<svg width="162" height="162" viewBox="0 0 162 162" fill="none" xmlns="http://www.w3.org/2000/svg">
<path d="M148.2 1H13.8C6.73076 1 1 6.73076 1 13.8V148.2C1 155.269 6.73075 161 13.8 161H148.2C155.269 161 161 155.269 161 148.2V13.8C161 6.73076 155.269 1 148.2 1Z" fill="#CDEAFC"/>
<path d="M122.912 120.464C123.256 120.392 126.064 133.232 125.696 138.224C125.328 143.216 122.912 160.576 122.912 160.576H111.352L109.264 136.008L109.656 160.576H94.12C94.12 160.576 90.52 143.696 91.1683 138.584C91.8083 133.472 95.224 120.024 95.224 120.024L122.912 120.456L122.912 120.464Z" fill="#263239"/>
<path d="M110.432 123.424C110.456 123.584 110.464 123.744 110.456 123.904V125.216C110.432 126.32 110.36 127.848 110.216 129.528C110.072 131.208 109.872 132.72 109.728 133.816C109.648 134.36 109.576 134.808 109.52 135.112C109.496 135.272 109.464 135.432 109.416 135.584C109.416 135.424 109.416 135.264 109.448 135.104C109.488 134.76 109.536 134.328 109.6 133.808C109.728 132.712 109.896 131.2 110.04 129.52C110.184 127.84 110.272 126.32 110.328 125.224C110.36 124.696 110.376 124.256 110.4 123.92C110.4 123.76 110.4 123.6 110.432 123.44V123.424Z" fill="#455A64"/>
<path d="M112.512 124.464C112.512 124.464 112.608 124.432 112.768 124.464C113 124.504 113.216 124.632 113.368 124.808C113.472 124.936 113.552 125.088 113.592 125.248C113.632 125.44 113.624 125.64 113.552 125.824C113.472 126.032 113.328 126.216 113.144 126.344C112.96 126.472 112.744 126.544 112.52 126.552C112.296 126.544 112.08 126.464 111.896 126.328C111.712 126.192 111.584 126 111.512 125.784C111.448 125.6 111.44 125.4 111.488 125.208C111.536 125.048 111.624 124.896 111.744 124.776C111.912 124.6 112.136 124.496 112.384 124.48C112.472 124.472 112.56 124.48 112.632 124.536H112.384C112.168 124.568 111.976 124.68 111.832 124.848C111.728 124.96 111.656 125.104 111.624 125.256C111.592 125.408 111.608 125.568 111.664 125.712C111.728 125.888 111.84 126.048 111.992 126.16C112.144 126.272 112.328 126.344 112.52 126.352C112.712 126.352 112.896 126.288 113.048 126.176C113.208 126.072 113.328 125.92 113.4 125.744C113.456 125.6 113.472 125.44 113.456 125.288C113.432 125.136 113.368 124.984 113.272 124.864C113.144 124.688 112.96 124.56 112.752 124.488C112.6 124.472 112.504 124.472 112.504 124.456L112.512 124.464Z" fill="#455A64"/>
<path d="M124.632 126.616C124.536 126.672 124.44 126.712 124.328 126.728C124.048 126.808 123.752 126.864 123.456 126.888C122.472 126.976 121.488 126.8 120.6 126.376C119.712 125.952 118.952 125.296 118.408 124.48C118.24 124.24 118.104 123.984 117.984 123.72C117.936 123.624 117.896 123.52 117.88 123.408C117.912 123.408 118.08 123.824 118.512 124.416C119.072 125.192 119.816 125.808 120.68 126.216C121.544 126.624 122.496 126.808 123.448 126.752C124.168 126.712 124.616 126.568 124.624 126.608L124.632 126.616Z" fill="#455A64"/>
<path d="M98.2 65.032C97.32 68.2243 96.0003 70.7843 94.7043 72.0643C93.4083 73.3443 92.024 74.8477 92.072 76.6717C92.088 77.384 92.328 78.1437 92.0163 78.792C91.608 79.624 90.536 79.8243 89.72 80.264C89.1363 80.6243 88.6563 81.144 88.3363 81.752C88.0163 82.36 87.864 83.048 87.9043 83.736C88.0003 85.1197 88.616 86.424 89.624 87.384C90.632 88.4003 92.2243 89.1037 93.48 88.4157C94.232 87.9997 94.664 87.1843 95.0403 86.408C97.0083 82.4003 98.792 78.312 100.384 74.136" fill="#263239"/>
<path d="M106.256 51.376C107.376 50.136 108.84 49.264 110.464 48.88C112.088 48.496 113.792 48.616 115.344 49.224C116.896 49.832 118.232 50.896 119.168 52.28C120.104 53.664 120.592 55.296 120.576 56.968C120.552 59.104 119.72 61.3437 120.576 63.304C121.168 64.68 122.552 65.7443 122.744 67.24C122.968 68.9763 121.48 70.5597 121.552 72.3037C121.608 73.448 122.32 74.456 123.144 75.2477C123.968 76.04 124.928 76.696 125.688 77.5523C127.784 79.944 127.92 83.7123 126.336 86.4643C124.752 89.2163 121.68 90.952 118.52 91.32C115.36 91.6957 112.144 90.824 109.336 89.32C107.512 88.3363 105.8 87.0243 104.72 85.2643C103.64 83.5043 103.264 81.208 104.12 79.32" fill="#263239"/>
<path d="M112.976 77.9843C112.976 77.9843 120.104 80.088 120.8 81.2163C121.496 82.344 123.736 95.5843 123.736 95.5843L119.368 111.192C119.368 111.192 122.984 117.016 123.152 119.96C115.064 125.176 105.936 123.72 96.376 119.536L95.688 104.288L94.7837 79.928L100.664 77.864L112.984 77.976L112.976 77.9843Z" fill="#E0E0E0"/>
<path d="M120.904 114.336H120.64L119.888 114.28L117.136 114.056L108.064 113.264L98.9917 112.416L96.2397 112.144L95.496 112.056C95.4077 112.056 95.32 112.04 95.24 112.016C95.3277 112.008 95.416 112.008 95.5037 112.016L96.2557 112.064L99.0077 112.288L108.08 113.08L117.152 113.92L119.904 114.2L120.648 114.28C120.736 114.288 120.816 114.304 120.904 114.328L120.904 114.336Z" fill="#438DCC"/>
<path d="M112.536 97.16C112.536 97.208 109.408 97.2477 105.544 97.2477C101.68 97.2477 98.552 97.208 98.552 97.16C98.552 97.112 101.68 97.0717 105.544 97.0717C109.408 97.0717 112.536 97.112 112.536 97.16Z" fill="#438DCC"/>
<path d="M121.952 86.696C121.768 86.728 121.584 86.7517 121.4 86.7517L119.88 86.84C118.6 86.9117 116.832 87.016 114.88 87.1677C112.936 87.32 111.168 87.48 109.896 87.608L108.384 87.752C108.2 87.7757 108.016 87.7923 107.824 87.784C108.008 87.736 108.192 87.704 108.376 87.688C108.72 87.6317 109.248 87.5677 109.88 87.4877C111.152 87.3277 112.912 87.144 114.864 87C116.816 86.8477 118.584 86.76 119.872 86.728C120.512 86.728 121.032 86.7037 121.392 86.7037C121.576 86.696 121.76 86.7037 121.952 86.7197L121.952 86.696Z" fill="#438DCC"/>
<path d="M120.8 81.2317L127.952 100.64L132.76 91.08L139.032 92.3677L135.424 107.44C135.24 108.752 134.656 109.968 133.744 110.936C132.832 111.896 131.648 112.552 130.352 112.816C129.264 113.04 128.144 112.976 127.088 112.632C126.032 112.288 125.088 111.68 124.344 110.864L122.104 108.4L120.792 81.2477L120.8 81.2317Z" fill="#E0E0E0"/>
<path d="M127.808 112.904C127.776 112.744 127.76 112.584 127.76 112.416C127.736 112.104 127.712 111.648 127.696 111.088C127.656 109.968 127.64 108.408 127.696 106.696C127.752 104.976 127.856 103.424 127.96 102.312C128.008 101.752 128.056 101.296 128.104 100.984C128.12 100.824 128.144 100.664 128.184 100.504C128.2 100.664 128.2 100.832 128.184 100.992C128.16 101.336 128.136 101.784 128.104 102.32C128.032 103.44 127.944 104.992 127.896 106.704C127.84 108.416 127.84 109.968 127.848 111.088V112.424C127.848 112.584 127.848 112.752 127.824 112.912L127.808 112.904Z" fill="#438DCC"/>
<path d="M137.048 101.056C137.032 101.104 135.272 100.48 133.12 99.6637C130.968 98.8477 129.24 98.1437 129.256 98.104C129.272 98.056 131.032 98.68 133.184 99.496C135.336 100.312 137.064 101.016 137.048 101.056Z" fill="#438DCC"/>
<path d="M140.536 90.1437L137.528 92.3677L134.184 91.544L134.992 90.6557L140.544 90.1437L140.536 90.1437Z" fill="#F8BC9E"/>
<path d="M151.416 63.1357L127.056 73.688L127.176 80.744L124.416 83.6317L133.72 91.9517L136.44 88.9117L143.68 87.896L151.408 63.1357L151.416 63.1357Z" fill="#FBFBFB"/>
<path d="M151.416 63.1357C151.2 63.8237 148.264 73.3437 143.768 87.9197V87.9677H143.712L136.472 89L136.528 88.9757L133.792 92.008L133.736 92.0797L133.672 92.0157L128.92 87.768L124.368 83.6957L124.296 83.6317L124.36 83.5677L127.112 80.68L127.088 80.744C127.048 78.3037 127.008 75.9357 126.976 73.688V73.6317L127.032 73.608L151.432 63.128L127.104 73.7597L127.152 73.6797C127.192 75.9357 127.232 78.296 127.272 80.7357V80.776L127.248 80.7997L124.496 83.688V83.56L129.056 87.6317L133.8 91.88H133.672L136.392 88.84L136.416 88.8157H136.448L143.696 87.8077L143.624 87.864C148.208 73.32 151.208 63.816 151.424 63.128L151.416 63.1357Z" fill="#263239"/>
<path d="M141.536 80.424C141.032 80.984 140.376 81.3917 139.64 81.576C138.912 81.768 138.136 81.736 137.424 81.48C136.712 81.2317 136.088 80.776 135.632 80.168C135.176 79.56 134.912 78.84 134.872 78.088C134.832 77.336 135.016 76.584 135.392 75.9357C135.776 75.288 136.344 74.76 137.024 74.4317C137.704 74.104 138.472 73.9837 139.216 74.088C139.968 74.1917 140.664 74.52 141.232 75.0237C141.984 75.6957 142.44 76.648 142.496 77.656C142.552 78.664 142.208 79.6637 141.528 80.4157L141.536 80.424Z" fill="#263239"/>
<path d="M151.416 63.1357C151.416 63.1357 148.632 66.4957 145.12 70.568C141.608 74.6397 138.728 77.912 138.688 77.88C138.648 77.848 141.472 74.52 144.984 70.4477C148.504 66.376 151.376 63.1037 151.416 63.1357Z" fill="#263239"/>
<path d="M76.408 147.296C75.208 146.224 74.4803 144.72 74.3843 143.112C74.2883 141.504 74.8317 139.928 75.9037 138.72L121.68 86.8963L130.76 95.016L85 146.784C83.928 147.992 82.424 148.72 80.808 148.816C79.2003 148.912 77.6163 148.36 76.408 147.288L76.408 147.296Z" fill="#438DCC"/>
<path d="M124.272 82.5437L120.952 86.2557L131.632 95.8L134.952 92.088L124.272 82.5437Z" fill="#438DCC"/>
<path opacity="0.5" d="M127.192 85.16V91.656L128.512 93.016V86.344L127.192 85.1677V85.16Z" fill="white"/>
<path d="M138.088 82.1283L141.424 83.4557L142.136 86.1437L140.528 90.1437L134.64 91L136.36 89.24L136.136 87.704C136.136 87.704 134.496 87.192 134.456 86.936C134.416 86.6877 134.656 85.8397 134.912 85.8C135.168 85.7597 136.888 86.3997 136.888 86.3997C136.888 86.3997 134.848 84.7843 134.904 84.5283C134.96 84.2723 135.176 83.6003 135.592 83.528C136.008 83.4563 139.296 85.0083 139.296 85.0083L139.832 86.232L140.296 84.28C140.296 84.28 137.368 83.4563 138.096 82.1283H138.088Z" fill="#F8BC9E"/>
<path d="M137.672 88.424C137.672 88.424 137.752 88.312 137.784 88.0803C137.816 87.7923 137.784 87.5043 137.688 87.24C137.592 86.968 137.432 86.728 137.216 86.536C137.048 86.392 136.92 86.3363 136.912 86.36C137.16 86.6403 137.368 86.9603 137.52 87.304C137.624 87.672 137.672 88.0483 137.664 88.4323L137.672 88.424Z" fill="#EC9A6E"/>
<path d="M139.256 87.8403C139.192 87.5523 139.152 87.2643 139.128 86.968C139.112 86.6403 139.056 86.312 138.96 86.0003C138.896 85.8083 138.792 85.6323 138.656 85.4883C138.496 85.336 138.312 85.224 138.112 85.144C137.312 84.856 136.6 84.6243 136.072 84.456C135.792 84.344 135.504 84.264 135.216 84.216C135.48 84.3523 135.752 84.472 136.04 84.5603C136.552 84.76 137.272 85.016 138.056 85.2963C138.24 85.3603 138.4 85.464 138.544 85.592C138.664 85.72 138.76 85.88 138.824 86.0483C138.92 86.3523 138.984 86.664 139.016 86.9763C139.024 87.2803 139.112 87.576 139.272 87.8403H139.256Z" fill="#EC9A6E"/>
<path d="M140.024 87.24C140.072 87.0243 140.064 86.792 140 86.5763C139.944 86.232 139.856 85.944 139.808 85.944C139.76 85.944 139.768 86.248 139.832 86.6C139.896 86.952 139.984 87.256 140.024 87.2323V87.24Z" fill="#EC9A6E"/>
<path d="M115.016 111.056C115.016 111.056 120.36 109.224 120.488 109.16C120.616 109.096 124.264 107.4 123.952 106.408C123.952 106.408 124.984 105.584 124.672 105.128L123.208 105.744C123.208 105.744 125.272 104.4 124.928 103.192C124.928 103.192 125.144 102.784 124.928 102.528C124.712 102.272 123.632 103.04 122.84 103.52L121.304 104.136C120.632 104.408 119.888 104.44 119.192 104.24C119.032 104.184 118.896 104.08 118.816 103.936C118.728 103.792 118.704 103.624 118.728 103.456C119.024 102.264 118.984 101.024 118.616 99.848C118.616 99.848 118.232 99.9843 117.976 100.808C117.632 101.864 116.6 102.68 116.192 103.368C115.976 103.768 115.616 104.4 115.36 104.872C115.248 105.064 115.104 105.232 114.936 105.368C114.76 105.504 114.568 105.6 114.352 105.656L114.72 108.44L115.024 111.04L115.016 111.056Z" fill="#F8BC9E"/>
<path d="M120.808 106.016C120.872 106.008 120.936 105.984 120.992 105.96C121.112 105.92 121.28 105.848 121.48 105.76C122.008 105.52 122.52 105.248 123.008 104.928C123.496 104.608 123.952 104.256 124.384 103.872C124.552 103.72 124.68 103.6 124.768 103.504C124.816 103.456 124.856 103.408 124.896 103.36C124.84 103.392 124.792 103.432 124.744 103.48L124.344 103.824C123.904 104.192 123.448 104.536 122.968 104.856C122.48 105.168 121.976 105.448 121.464 105.704L120.992 105.928C120.928 105.952 120.872 105.976 120.816 106.016H120.808Z" fill="#EC9A6E"/>
<path d="M120.904 107.08C121.04 107.056 121.176 107.008 121.296 106.952C121.608 106.824 121.904 106.672 122.184 106.496C122.464 106.32 122.744 106.136 123.008 105.936C123.128 105.856 123.232 105.768 123.328 105.664C123.328 105.648 122.808 106.008 122.144 106.424C121.8 106.624 121.504 106.768 121.272 106.896C121.144 106.952 121.024 107.008 120.904 107.088L120.904 107.08Z" fill="#EC9A6E"/>
<path d="M120.856 108.36C121.032 108.312 121.2 108.248 121.36 108.168C121.752 107.984 122.136 107.784 122.504 107.552C122.872 107.32 123.224 107.064 123.552 106.792C123.696 106.688 123.832 106.56 123.952 106.424C123.8 106.52 123.656 106.624 123.52 106.736C123.256 106.936 122.888 107.208 122.456 107.472C122.096 107.704 121.72 107.912 121.336 108.104C121.168 108.176 121.016 108.264 120.864 108.352L120.856 108.36Z" fill="#EC9A6E"/>
<path d="M115.016 111.056L95.1837 117.024C92.9437 116.008 91.08 114.328 89.8397 112.208C88.6 110.088 88.056 107.632 88.2717 105.192C88.8957 98.184 89.72 88.9603 89.9677 86.632C90.376 82.776 94.7997 79.928 94.7997 79.928C100.88 80.3203 99.5357 92.3523 99.5357 92.3523L97.0877 106.192L114.336 105.504L115.024 111.056H115.016Z" fill="#E0E0E0"/>
<path d="M97.08 106.2C97.08 106.016 97.08 105.832 97.1037 105.648C97.128 105.304 97.1837 104.784 97.256 104.144C97.4077 102.88 97.6797 101.144 98.04 99.2323C98.3997 97.32 98.7517 95.5997 99.032 94.36C99.1677 93.736 99.288 93.24 99.3757 92.8963C99.4077 92.712 99.464 92.536 99.528 92.36C99.512 92.5437 99.48 92.728 99.4397 92.904C99.3597 93.288 99.272 93.784 99.1517 94.3843C98.904 95.6323 98.5597 97.352 98.2077 99.2643C97.8557 101.168 97.5677 102.904 97.3757 104.16C97.2957 104.768 97.224 105.272 97.1677 105.648C97.1517 105.832 97.1197 106.016 97.0717 106.192L97.08 106.2Z" fill="#263239"/>
<path d="M114.328 105.512C114.272 105.528 114.208 105.536 114.144 105.536L113.6 105.584C113.128 105.616 112.456 105.656 111.616 105.704C109.936 105.792 107.616 105.872 105.056 105.944L98.4957 106.128L96.5117 106.192H95.976C95.912 106.2 95.848 106.2 95.784 106.192C95.848 106.176 95.9037 106.168 95.9677 106.168L96.504 106.12C96.9757 106.088 97.656 106.04 98.488 106C100.168 105.912 102.488 105.832 105.048 105.76L111.6 105.576L113.592 105.512H114.136C114.2 105.504 114.264 105.504 114.328 105.512Z" fill="#263239"/>
<path d="M97.832 100.952C97.7123 100.968 97.5843 100.968 97.464 100.952L96.472 100.872C95.64 100.808 94.488 100.728 93.208 100.672C91.9363 100.624 90.7837 100.6 89.944 100.6H88.952C88.8323 100.6 88.7043 100.6 88.584 100.576C88.696 100.544 88.808 100.528 88.9283 100.528C89.16 100.504 89.5043 100.496 89.9203 100.48C90.76 100.456 91.9197 100.448 93.192 100.504C94.472 100.56 95.624 100.656 96.456 100.752C96.872 100.8 97.208 100.848 97.4403 100.88C97.5683 100.88 97.6957 100.904 97.816 100.944L97.832 100.952Z" fill="#438DCC"/>
<path d="M99.528 91.4077C99.528 91.4557 97.2803 91.4077 94.504 91.288C91.736 91.16 89.4883 91.0397 89.496 90.9917C89.496 90.936 91.7443 90.9917 94.5123 91.112C97.2803 91.2317 99.528 91.3597 99.528 91.416V91.4077Z" fill="#438DCC"/>
<path d="M90.1283 112.448C90.1763 112.336 90.2403 112.232 90.3203 112.136C90.456 111.936 90.664 111.656 90.92 111.32C91.608 110.448 92.3683 109.632 93.1843 108.88C94.008 108.128 94.888 107.448 95.8237 106.848C96.168 106.616 96.4797 106.44 96.6877 106.328C96.792 106.256 96.9117 106.208 97.032 106.168C97.032 106.192 96.6 106.464 95.9037 106.952C94.088 108.216 92.4477 109.712 91.032 111.4C90.472 112.048 90.1597 112.464 90.136 112.448H90.1283Z" fill="#438DCC"/>
<path d="M104.36 114.336C104.312 114.336 103.976 112.48 103.616 110.176C103.248 107.872 103 105.992 103.048 105.984C103.096 105.984 103.432 107.84 103.8 110.144C104.168 112.448 104.416 114.32 104.368 114.328L104.36 114.336Z" fill="#438DCC"/>
<path d="M102.208 54.112V55.736L101.864 80.04C101.824 82.8643 104.216 85.144 107.24 85.16C110.288 85.1837 112.832 82.888 112.92 80.04C113.008 77.048 113.16 73.9037 113.16 73.9037C113.16 73.9037 117.032 73.368 117.968 68.3677C118.432 65.88 118.424 61.7757 118.312 58.4C118.288 57.68 118.12 56.984 117.816 56.328C117.512 55.68 117.08 55.096 116.544 54.624C116.008 54.144 115.384 53.784 114.704 53.552C114.024 53.32 113.304 53.232 112.592 53.288L102.2 54.12L102.208 54.112Z" fill="#F8BC9E"/>
<path d="M116.592 61.3443C116.592 61.512 116.52 61.672 116.4 61.7923C116.28 61.912 116.12 61.976 115.952 61.976C115.872 61.976 115.784 61.9683 115.712 61.9363C115.64 61.9043 115.56 61.864 115.504 61.8083C115.44 61.752 115.392 61.688 115.36 61.608C115.328 61.5363 115.304 61.448 115.304 61.368C115.304 61.2003 115.376 61.0403 115.496 60.92C115.616 60.8003 115.776 60.7363 115.944 60.7363C116.024 60.7363 116.112 60.7363 116.184 60.7683C116.264 60.8003 116.336 60.84 116.392 60.8963C116.448 60.952 116.504 61.016 116.536 61.096C116.568 61.1683 116.592 61.256 116.592 61.336V61.3443Z" fill="#263239"/>
<path d="M117.344 60.52C117.264 60.6 116.784 60.224 116.088 60.208C115.4 60.192 114.872 60.5277 114.8 60.44C114.728 60.3517 114.848 60.248 115.072 60.096C115.376 59.896 115.736 59.8 116.104 59.808C116.464 59.808 116.816 59.936 117.104 60.152C117.312 60.328 117.376 60.4797 117.344 60.52Z" fill="#263239"/>
<path d="M109.8 61.272C109.8 61.4403 109.728 61.6003 109.608 61.72C109.488 61.8403 109.328 61.9043 109.16 61.912C109.08 61.912 108.992 61.9043 108.92 61.8723C108.848 61.8403 108.768 61.8 108.712 61.7443C108.656 61.688 108.6 61.624 108.568 61.544C108.536 61.4723 108.512 61.384 108.512 61.304C108.512 61.1363 108.584 60.9763 108.704 60.856C108.824 60.7363 108.984 60.6723 109.152 60.6723C109.232 60.6723 109.32 60.68 109.392 60.712C109.472 60.7363 109.544 60.7843 109.6 60.84C109.664 60.8963 109.712 60.9603 109.744 61.0403C109.776 61.112 109.8 61.192 109.8 61.2803V61.272Z" fill="#263239"/>
<path d="M110.52 60.4643C110.44 60.5443 109.96 60.168 109.264 60.152C108.568 60.136 108.056 60.472 107.976 60.3843C107.896 60.296 108.024 60.192 108.256 60.04C108.56 59.84 108.92 59.736 109.288 59.752C109.648 59.752 110 59.88 110.288 60.096C110.496 60.28 110.56 60.4323 110.52 60.4643Z" fill="#263239"/>
<path d="M112.896 65.6797C113.264 65.576 113.64 65.512 114.024 65.512C114.2 65.512 114.368 65.464 114.408 65.3437C114.424 65.16 114.392 64.9757 114.304 64.8157L113.816 63.4397C113.128 61.496 112.656 59.904 112.736 59.88C112.816 59.856 113.424 61.4077 114.112 63.3437C114.28 63.8237 114.432 64.28 114.576 64.7197C114.68 64.936 114.704 65.176 114.648 65.4077C114.616 65.4717 114.576 65.528 114.528 65.5677C114.48 65.608 114.416 65.64 114.352 65.656C114.256 65.6797 114.152 65.688 114.048 65.688C113.664 65.736 113.28 65.7277 112.896 65.6797Z" fill="#263239"/>
<path d="M113.152 73.896C110.784 73.8723 108.472 73.1843 106.472 71.9203C106.472 71.9203 108.008 75.416 113.056 75.0883L113.152 73.9037L113.152 73.896Z" fill="#EC9A6E"/>
<path d="M112.56 67.336C112.432 67.1683 112.264 67.032 112.072 66.9443C111.88 66.856 111.664 66.824 111.456 66.84C111.304 66.8483 111.152 66.888 111.016 66.9603C110.88 67.032 110.76 67.128 110.656 67.24C110.56 67.352 110.504 67.496 110.488 67.64C110.472 67.784 110.504 67.9363 110.576 68.0643C110.688 68.1923 110.832 68.28 110.992 68.328C111.152 68.376 111.32 68.3683 111.48 68.3203C111.808 68.216 112.12 68.04 112.376 67.816C112.456 67.7603 112.528 67.6963 112.584 67.6163C112.608 67.576 112.624 67.5363 112.624 67.4883C112.624 67.4403 112.608 67.4 112.584 67.3603" fill="#EC9A6E"/>
<path d="M110.84 66.104C110.952 66.104 110.936 66.856 111.56 67.4083C112.192 67.96 112.992 67.896 113 68.008C113 68.056 112.816 68.152 112.48 68.152C112.04 68.1443 111.616 67.9843 111.28 67.6963C110.96 67.416 110.76 67.032 110.72 66.6083C110.696 66.2883 110.792 66.104 110.84 66.1123V66.104Z" fill="#263239"/>
<path d="M110.768 57.752C110.696 57.936 110.008 57.832 109.184 57.904C108.368 57.976 107.704 58.184 107.6 58.008C107.56 57.928 107.68 57.752 107.944 57.576C108.304 57.36 108.712 57.232 109.128 57.2C109.544 57.16 109.968 57.224 110.352 57.376C110.648 57.504 110.8 57.656 110.76 57.744L110.768 57.752Z" fill="#263239"/>
<path d="M117.144 58.504C117.016 58.656 116.544 58.48 115.968 58.456C115.392 58.432 114.904 58.528 114.792 58.36C114.744 58.28 114.824 58.12 115.04 57.984C115.328 57.816 115.664 57.728 116 57.752C116.336 57.776 116.656 57.888 116.928 58.096C117.128 58.264 117.192 58.432 117.136 58.504H117.144Z" fill="#263239"/>
<path d="M108.528 52.52C109.872 54.304 108.472 56.84 106.928 58.448C105.384 60.056 103.488 61.9363 103.912 64.1283C104.408 66.6723 107.88 68.3043 107.368 70.84C107.176 71.768 106.448 72.5603 106.448 73.496C106.448 75.2163 108.648 76.0317 109.288 77.6157C110.16 79.784 107.768 81.9523 107.728 84.296C107.704 85.624 108.456 86.8643 108.504 88.1923C108.584 90.9123 105.368 92.904 102.728 92.232C100.088 91.56 98.28 88.984 97.72 86.328C97.1517 83.672 98.0157 79.928 98.4477 77.24L93.88 78.3043C93.0237 77.4877 94.1923 76.6243 94.3843 75.4723C94.8643 72.5597 96.792 70.0963 97.688 67.2963C98.4797 64.8483 98.488 62.2243 98.8317 59.664C99.176 57.112 99.9683 54.448 101.928 52.76C103.88 51.072 107.256 50.872 108.832 52.904" fill="#263239"/>
<path d="M98.28 60.776C98.9443 60.8803 99.624 60.904 100.296 60.84C101.912 60.6083 103.424 59.92 104.664 58.864C105.888 57.784 106.96 56.544 107.856 55.184C108.2 54.688 108.48 54.272 108.696 53.952C108.792 53.8 108.904 53.648 109.016 53.512C108.944 53.68 108.856 53.84 108.752 53.992C108.576 54.296 108.304 54.728 107.96 55.256C107.088 56.656 106.016 57.92 104.776 59.008C103.512 60.088 101.96 60.776 100.312 60.9763C99.816 61.0243 99.3123 61.0083 98.8163 60.9283C98.68 60.904 98.552 60.8803 98.424 60.84C98.328 60.8163 98.28 60.7997 98.2883 60.792L98.28 60.776Z" fill="#455A64"/>
<path d="M104.24 61.448C104.024 61.656 103.776 61.832 103.504 61.96C102.864 62.3037 102.168 62.536 101.44 62.648C100.72 62.7517 99.992 62.728 99.2803 62.584C98.984 62.536 98.696 62.4477 98.4323 62.3037C98.4323 62.2717 98.776 62.376 99.304 62.456C100.704 62.6717 102.144 62.456 103.424 61.848C103.928 61.608 104.208 61.416 104.232 61.4403L104.24 61.448Z" fill="#455A64"/>
<path d="M120.576 58.072C120.024 58.072 119.48 57.936 119.008 57.656C118.536 57.376 118.144 56.968 117.888 56.48C118.256 56.864 118.656 57.208 119.096 57.512C119.568 57.752 120.064 57.936 120.568 58.072H120.576Z" fill="#455A64"/>
<path d="M120.256 59.776C119.944 59.872 119.616 59.88 119.296 59.8C118.984 59.72 118.688 59.56 118.464 59.328C118.496 59.288 118.848 59.512 119.344 59.624C119.832 59.744 120.256 59.712 120.264 59.768L120.256 59.776Z" fill="#455A64"/>
<path d="M73.0717 124.984C73.0717 126.752 74.104 160.672 74.104 160.672L59.672 160.6L57.152 145.528L56.488 160.6H42.616L44.12 123.368L73.08 124.984L73.0717 124.984Z" fill="#455A64"/>
<path d="M30.52 110.936L23.144 99.9357L28.616 95.4883L37.872 104.08C37.872 104.08 41.856 81.7437 45.776 80.392L45.472 115.032C42.904 116.256 39.976 116.512 37.232 115.76C34.488 115.008 32.104 113.288 30.52 110.928L30.52 110.936Z" fill="#263239"/>
<path d="M15.416 59.152L16.984 80.5603L42.68 129.816L57.536 121.216L32.208 73.0723L15.408 59.144L15.416 59.152Z" fill="#E2323D"/>
<g opacity="0.7">
<path d="M32.464 73.176C32.352 73.3597 32.208 73.512 32.04 73.6317C31.864 73.752 31.672 73.8397 31.464 73.88C31.256 73.9197 31.04 73.9197 30.84 73.8717C30.632 73.8237 30.44 73.736 30.272 73.608C30.464 74.3837 30.408 75.1997 30.112 75.944C29.816 76.6877 29.288 77.3117 28.616 77.7437C27.944 78.1757 27.152 78.376 26.352 78.3357C25.552 78.2877 24.792 78.0003 24.168 77.496C24.064 78.28 23.752 79.016 23.272 79.64C22.792 80.264 22.152 80.744 21.424 81.048C20.696 81.3437 19.896 81.4397 19.12 81.336C18.336 81.224 17.6 80.9117 16.984 80.424L15.424 59.176L32.472 73.192L32.464 73.176Z" fill="white"/>
</g>
<path d="M16.048 67.7597C16.048 67.7597 19.536 69.944 22.296 64.856L15.424 59.152L16.048 67.768L16.048 67.7597Z" fill="#E2323D"/>
<path d="M48.344 125.8C48.296 125.824 42.848 115.04 36.144 101.72C29.44 88.4003 24.056 77.576 24.112 77.56C24.168 77.5357 29.608 88.3203 36.312 101.64C43.016 114.968 48.384 125.776 48.336 125.8H48.344Z" fill="white"/>
<path d="M54.52 122.104C54.472 122.128 49.024 111.344 42.32 98.024C35.616 84.7037 30.232 73.8877 30.272 73.864C30.312 73.8397 35.768 84.6237 42.472 97.944C49.176 111.272 54.56 122.08 54.512 122.096L54.52 122.104Z" fill="white"/>
<path d="M24.312 87.832L20.976 89.1683L20.264 91.8563L21.408 96.3203L24.096 99.176L25.912 97.672L26.024 94.92L26.248 93.384C26.248 93.384 27.888 92.872 27.928 92.616C27.968 92.3683 27.728 91.5203 27.472 91.48C27.224 91.4403 25.496 92.0803 25.496 92.0803C25.496 92.0803 27.536 90.4643 27.48 90.2C27.424 89.9363 27.2 89.2803 26.792 89.2003C26.384 89.128 23.096 90.68 23.096 90.68L22.56 91.9043L22.096 89.9523C22.096 89.9523 25.024 89.1523 24.304 87.8243L24.312 87.832Z" fill="#EC9A6E"/>
<path d="M24.728 94.1437C24.728 94.1437 24.648 94.024 24.616 93.8C24.584 93.512 24.616 93.224 24.72 92.9597C24.816 92.696 24.984 92.4477 25.192 92.2557C25.36 92.1117 25.48 92.0637 25.496 92.0797C25.224 92.344 25.016 92.6717 24.88 93.0237C24.752 93.384 24.696 93.7597 24.728 94.1437Z" fill="#D17349"/>
<path d="M23.144 93.544C23.208 93.256 23.256 92.968 23.28 92.6717C23.296 92.344 23.352 92.0157 23.448 91.704C23.512 91.512 23.616 91.336 23.752 91.1843C23.904 91.032 24.088 90.9123 24.296 90.84C25.096 90.552 25.808 90.3203 26.336 90.152C26.616 90.0483 26.904 89.9683 27.2 89.912C26.936 90.056 26.664 90.168 26.376 90.2563C25.864 90.456 25.144 90.712 24.36 90.9917C24.176 91.0557 24.008 91.16 23.872 91.2963C23.752 91.4243 23.656 91.5843 23.592 91.752C23.488 92.056 23.424 92.36 23.4 92.68C23.392 92.984 23.304 93.288 23.144 93.544Z" fill="#D17349"/>
<path d="M22.384 92.9437C22.336 92.9437 22.344 92.6397 22.408 92.2877C22.464 91.9357 22.552 91.6477 22.6 91.656C22.648 91.8717 22.64 92.0957 22.576 92.312C22.52 92.664 22.432 92.9437 22.384 92.9437Z" fill="#D17349"/>
<path d="M67.448 73.992L64.5283 73L53.608 75.5037L52.64 76.312L46.856 129.824C49.336 132.384 57.168 132.896 61.608 132.136L67.448 73.992Z" fill="#438DCC"/>
<path d="M67.6477 74.0963L66.2403 73.4083C66.2403 73.4083 63.144 87.032 63.144 96.0323C63.144 105.032 61.2003 137.656 61.2003 137.656L75.9357 137.272V101.216L67.6477 74.0963Z" fill="#263239"/>
<path d="M46.856 138.176L41.272 136.544L43.224 110.168L42.856 91.048L45.776 80.392L52.704 76.1117C52.704 76.1117 47.24 135 46.856 138.176Z" fill="#263239"/>
<path d="M58.496 80.5763C57.152 80.456 55.904 79.8403 55 78.84C54.096 77.848 53.592 76.5443 53.6 75.2003V70.4163C53.6 70.4163 49.176 69.7283 49.136 65.304C49.088 60.8803 49.848 50.736 49.848 50.736C52.36 49.656 55.112 49.264 57.832 49.608C60.5437 49.952 63.1203 51.008 65.288 52.672L65.944 53.176L64.344 75.6003C64.296 76.312 64.104 77.0083 63.7763 77.64C63.4563 78.28 63.0083 78.84 62.4643 79.304C61.9203 79.768 61.288 80.12 60.6083 80.3363C59.928 80.552 59.216 80.632 58.504 80.568L58.496 80.5763Z" fill="#EC9A6E"/>
<path d="M53.608 70.3523C55.648 70.392 57.656 69.816 59.368 68.712C59.368 68.712 57.992 71.8883 53.592 71.496V70.3523L53.608 70.3523Z" fill="#D17349"/>
<path d="M65.4 57.76C65.4717 57.728 68.4317 56.864 68.3357 59.88C68.2397 62.904 65.224 62.184 65.224 62.0963C65.224 62.008 65.4 57.752 65.4 57.752L65.4 57.76Z" fill="#EC9A6E"/>
<path d="M66.1763 60.984C66.1763 60.984 66.2243 61.0243 66.312 61.064C66.376 61.096 66.44 61.112 66.504 61.112C66.568 61.112 66.6397 61.112 66.7037 61.08C67.0237 60.9763 67.3123 60.472 67.3443 59.936C67.3603 59.68 67.32 59.416 67.224 59.176C67.2003 59.08 67.1523 58.992 67.0883 58.92C67.0243 58.848 66.936 58.792 66.8477 58.76C66.7837 58.744 66.7203 58.744 66.664 58.76C66.6083 58.784 66.5603 58.832 66.5283 58.888C66.4803 58.968 66.504 59.032 66.488 59.032C66.472 59.032 66.424 58.984 66.4477 58.856C66.472 58.784 66.5123 58.72 66.5763 58.672C66.616 58.64 66.664 58.616 66.712 58.608C66.76 58.6 66.8163 58.592 66.8643 58.608C66.9923 58.632 67.1043 58.688 67.2003 58.776C67.2963 58.856 67.368 58.968 67.4083 59.088C67.528 59.352 67.576 59.648 67.56 59.936C67.5197 60.5443 67.192 61.1043 66.7523 61.2163C66.6723 61.24 66.584 61.24 66.504 61.2163C66.424 61.192 66.344 61.1683 66.28 61.112C66.1763 61.048 66.1763 60.9763 66.1763 60.968V60.984Z" fill="#D17349"/>
<path d="M51.296 57.536C51.296 57.704 51.36 57.856 51.472 57.976C51.584 58.096 51.744 58.168 51.904 58.168C51.984 58.168 52.064 58.168 52.144 58.136C52.224 58.112 52.288 58.072 52.352 58.016C52.416 57.96 52.464 57.896 52.496 57.824C52.528 57.752 52.552 57.672 52.56 57.592C52.56 57.424 52.496 57.272 52.384 57.152C52.272 57.032 52.112 56.96 51.952 56.96C51.872 56.96 51.792 56.96 51.712 56.992C51.632 57.016 51.568 57.056 51.504 57.112C51.44 57.168 51.392 57.232 51.36 57.304C51.328 57.376 51.304 57.456 51.296 57.536Z" fill="#263239"/>
<path d="M50.688 56.952C50.768 57.032 51.248 56.68 51.928 56.68C52.608 56.68 53.104 57.024 53.176 56.936C53.248 56.848 53.128 56.752 52.912 56.592C52.616 56.384 52.264 56.28 51.912 56.28C51.56 56.28 51.216 56.392 50.928 56.6C50.712 56.76 50.648 56.912 50.688 56.944L50.688 56.952Z" fill="#263239"/>
<path d="M57.976 57.824C57.976 57.992 58.04 58.144 58.152 58.264C58.264 58.384 58.424 58.456 58.584 58.456C58.664 58.456 58.744 58.456 58.824 58.424C58.904 58.4 58.968 58.36 59.032 58.304C59.096 58.248 59.144 58.184 59.176 58.112C59.208 58.04 59.232 57.96 59.24 57.88C59.24 57.712 59.176 57.56 59.064 57.44C58.952 57.32 58.792 57.248 58.632 57.24C58.552 57.24 58.472 57.24 58.392 57.272C58.312 57.296 58.248 57.336 58.184 57.392C58.12 57.448 58.072 57.512 58.04 57.584C58.008 57.656 57.984 57.736 57.976 57.816V57.824Z" fill="#263239"/>
<path d="M57.368 57.08C57.448 57.16 57.928 56.808 58.608 56.808C59.288 56.808 59.784 57.152 59.856 57.072C59.928 56.992 59.808 56.888 59.592 56.728C59.296 56.52 58.944 56.416 58.592 56.416C58.24 56.416 57.896 56.528 57.608 56.736C57.4 56.896 57.328 57.048 57.368 57.08Z" fill="#263239"/>
<path d="M54.904 62.12C54.544 62.008 54.176 61.944 53.8 61.9197C53.624 61.9037 53.456 61.8717 53.432 61.752C53.416 61.576 53.456 61.3917 53.544 61.24C53.712 60.824 53.888 60.376 54.056 59.92C54.768 58.04 55.28 56.48 55.208 56.464C55.136 56.448 54.496 57.936 53.784 59.816C53.616 60.28 53.44 60.7197 53.296 61.144C53.184 61.352 53.152 61.5997 53.2 61.832C53.224 61.896 53.264 61.944 53.312 61.992C53.36 62.0317 53.416 62.0637 53.48 62.088C53.576 62.1117 53.672 62.1277 53.776 62.1277C54.152 62.1757 54.528 62.1757 54.896 62.1277L54.904 62.12Z" fill="#263239"/>
<path d="M57.192 54.416C57.256 54.6 57.936 54.512 58.736 54.608C59.536 54.704 60.176 54.92 60.28 54.752C60.328 54.672 60.216 54.496 59.936 54.32C59.592 54.104 59.2 53.96 58.792 53.92C58.384 53.872 57.976 53.92 57.584 54.064C57.304 54.184 57.16 54.328 57.192 54.416Z" fill="#263239"/>
<path d="M50.936 54.984C51.056 55.136 51.52 54.984 52.08 54.984C52.64 54.984 53.112 55.088 53.232 54.928C53.28 54.856 53.208 54.696 52.992 54.552C52.712 54.376 52.384 54.288 52.056 54.296C51.728 54.304 51.408 54.416 51.136 54.608C50.936 54.752 50.872 54.912 50.928 54.984H50.936Z" fill="#263239"/>
<path d="M47.696 47.944C47.664 47.672 47.696 47.392 47.808 47.136C47.912 46.88 48.08 46.656 48.296 46.48C48.52 46.32 48.792 46.24 49.064 46.264C49.336 46.288 49.6 46.4 49.792 46.6C49.752 46.416 49.744 46.224 49.792 46.04C49.832 45.856 49.904 45.68 50.016 45.528C50.128 45.376 50.264 45.24 50.432 45.144C50.592 45.048 50.776 44.984 50.96 44.96C51.68 44.912 52.296 45.456 52.992 45.648C53.688 45.792 54.408 45.712 55.056 45.408C55.712 45.144 56.328 44.776 56.984 44.536C58.384 44.032 59.92 44.088 61.272 44.712C62.6237 45.336 63.672 46.464 64.2 47.856C65.1677 47.552 66.264 48.048 66.8637 48.864C67.4237 49.72 67.6477 50.752 67.496 51.768C67.4 52.448 67.2317 53.112 66.9917 53.752V53.92C66.9437 56.352 66.6717 59.208 65.6157 59.224C63.8077 59.248 64.2397 55.848 64.2397 55.848C62.024 54.992 62.8477 51.672 62.2877 51.16C61.7277 50.648 60.568 49.48 55.928 51.848C54.12 52.768 51.728 52.744 50.432 52.44L50.312 52.416H50.288L50.248 52.4C49.824 52.296 49.424 52.128 49.056 51.896C48.624 51.648 48.28 51.264 48.08 50.808C47.984 50.576 47.96 50.328 48 50.08C48.048 49.84 48.16 49.608 48.328 49.432C47.976 49.008 47.752 48.488 47.696 47.944Z" fill="#263239"/>
<path d="M54.32 64.2083C54.416 64.4803 54.544 64.744 54.712 64.984C54.8 65.1043 54.904 65.1997 55.032 65.272C55.16 65.3437 55.296 65.3923 55.44 65.4083C55.592 65.4083 55.744 65.368 55.88 65.2963C56.016 65.224 56.128 65.112 56.216 64.984C56.376 64.7203 56.456 64.408 56.432 64.104C56.432 63.8237 56.288 63.4883 56.016 63.4563C55.896 63.4563 55.776 63.48 55.672 63.528L54.208 64.12" fill="#D17349"/>
<path d="M54.904 65.4083C55.168 65.4243 55.432 65.3917 55.688 65.3117C55.944 65.208 56.152 65.0243 56.272 64.776C56.336 64.6243 56.376 64.4643 56.376 64.296C56.376 64.1283 56.344 63.9677 56.272 63.816C56.24 63.736 56.2 63.6637 56.144 63.5997C56.088 63.5357 56.096 63.544 56.032 63.5523C55.968 63.5523 55.88 63.6157 55.8 63.6477L55.56 63.7437C55.248 63.864 54.968 63.976 54.728 64.0643C54.48 64.184 54.208 64.264 53.936 64.3037C54.152 64.1277 54.4 63.992 54.656 63.896L55.464 63.5203L55.704 63.416C55.792 63.3757 55.88 63.336 55.968 63.304C56.04 63.2797 56.112 63.2797 56.184 63.304C56.248 63.3277 56.304 63.3757 56.344 63.4237C56.504 63.624 56.592 63.8723 56.616 64.1283C56.64 64.3843 56.584 64.6403 56.464 64.8643C56.304 65.1523 56.04 65.368 55.72 65.464C55.52 65.528 55.296 65.5357 55.088 65.4877C54.96 65.4557 54.896 65.4077 54.896 65.3917L54.904 65.4083Z" fill="#263239"/>
<path d="M62.472 50.752C62.488 50.576 62.488 50.392 62.472 50.216C62.392 49.736 62.152 49.296 61.784 48.976C61.2323 48.512 60.52 48.272 59.792 48.32C58.904 48.376 58.032 48.576 57.208 48.896C56.768 49.048 56.32 49.176 55.872 49.288C54.72 49.536 53.528 49.496 52.4 49.16C51.92 49.016 51.464 48.824 51.024 48.584C50.904 48.52 50.792 48.448 50.68 48.376C50.64 48.352 50.6 48.328 50.568 48.288C50.568 48.288 50.736 48.384 51.048 48.536C51.488 48.76 51.944 48.936 52.424 49.072C53.12 49.264 53.848 49.352 54.568 49.328C54.992 49.312 55.416 49.256 55.84 49.168C56.28 49.072 56.72 48.928 57.168 48.776C58.008 48.448 58.896 48.256 59.792 48.2C60.5437 48.16 61.288 48.408 61.8557 48.904C62.2397 49.24 62.4797 49.704 62.5437 50.208C62.5597 50.392 62.5437 50.576 62.472 50.744L62.472 50.752Z" fill="#455A64"/>
<path d="M65.912 58.224C65.912 58.224 65.8723 58.168 65.8563 58.128C65.8243 58.064 65.7763 57.968 65.72 57.848C65.5683 57.496 65.4563 57.128 65.3763 56.752C65.256 56.184 65.2163 55.608 65.2643 55.032C65.3443 54.336 65.48 53.648 65.656 52.968C65.832 52.304 65.832 51.6 65.656 50.936C65.576 50.648 65.432 50.392 65.2323 50.168C65.0563 49.976 64.84 49.832 64.6 49.752C64.248 49.616 63.8563 49.632 63.512 49.776C63.3923 49.84 63.272 49.92 63.1683 50.016C63.2483 49.896 63.3603 49.8 63.4883 49.736C63.6643 49.648 63.8563 49.6 64.056 49.584C64.2563 49.568 64.4483 49.6 64.632 49.664C64.8963 49.744 65.128 49.896 65.32 50.096C65.528 50.328 65.688 50.6 65.784 50.904C65.9683 51.592 65.9683 52.312 65.784 53C65.608 53.672 65.4723 54.352 65.384 55.04C65.336 55.6 65.368 56.168 65.4717 56.72C65.544 57.096 65.6483 57.464 65.784 57.816C65.88 58.088 65.944 58.224 65.9358 58.232L65.912 58.224Z" fill="#455A64"/>
<path d="M62.8963 50.392V49.712C62.9283 49.096 62.856 48.472 62.696 47.88C62.5763 47.472 62.376 47.096 62.104 46.76C61.8 46.376 61.384 46.104 60.92 45.976C60.3997 45.856 59.848 45.88 59.336 46.04C58.784 46.216 58.256 46.456 57.752 46.76C57.248 47.064 56.72 47.336 56.184 47.568C55.672 47.768 55.12 47.88 54.568 47.888C54.064 47.904 53.568 47.84 53.088 47.704C52.672 47.584 52.272 47.416 51.888 47.208C51.336 46.896 50.856 46.488 50.464 45.992C50.36 45.864 50.256 45.72 50.176 45.576C50.144 45.528 50.112 45.472 50.088 45.424C50.128 45.464 50.168 45.512 50.192 45.568C50.288 45.712 50.384 45.84 50.496 45.968C50.896 46.44 51.384 46.832 51.928 47.136C52.304 47.336 52.696 47.496 53.112 47.608C53.584 47.736 54.072 47.792 54.56 47.776C55.096 47.76 55.632 47.648 56.136 47.456C56.672 47.224 57.184 46.952 57.688 46.656C58.192 46.352 58.736 46.104 59.296 45.928C59.832 45.76 60.3997 45.736 60.9437 45.872C61.432 46.008 61.8723 46.296 62.184 46.704C62.456 47.048 62.6563 47.44 62.776 47.864C62.936 48.472 62.9917 49.104 62.9437 49.728C62.9437 49.952 62.9117 50.12 62.904 50.232C62.904 50.288 62.904 50.352 62.8963 50.408L62.8963 50.392Z" fill="#455A64"/>
<path d="M67.6477 74.0963C67.6477 74.0963 78.2 77.464 78.888 79.2963C79.416 80.6723 84.952 97.288 86.1443 108.128C86.2563 109.176 86.152 110.24 85.848 111.256C85.544 112.264 85.0403 113.208 84.3683 114.024C83.6963 114.84 82.872 115.512 81.9363 116.008C81 116.504 79.976 116.8 78.9283 116.896C71.7923 117.552 61.432 118.408 61.432 117.816V108.832L74.872 106.872L69.896 92.2557L67.6477 74.1117L67.6477 74.0963Z" fill="#263239"/>
<path d="M54.12 115.992C55.496 116.336 61.448 116.336 61.448 116.336V109.288C61.448 109.288 58.856 108.184 58.144 107.536C57.432 106.888 55.392 103.096 55.392 103.096C55.032 103.312 54.744 103.64 54.576 104.032C54.408 104.424 54.368 104.856 54.456 105.264C54.8 106.816 55.432 107 55.488 107.616C55.488 107.616 55.544 107.776 55.544 107.784C55.688 108.64 54.856 109.4 54.856 109.4C54.584 109.192 54.28 109.04 53.952 108.936C52.704 108.792 51.2 109.688 51.2 110.184C51.2 110.184 51.16 111.536 51.2 111.736C51.24 111.936 51.888 112.2 51.888 112.2C51.888 112.2 51.688 113.096 51.888 113.504C52.112 113.808 52.416 114.04 52.76 114.192C52.76 114.192 53.344 115.776 54.12 115.976V115.992Z" fill="#EC9A6E"/>
<path d="M55.568 114.856C54.6 114.96 53.632 114.752 52.8 114.248C52.824 114.2 53.408 114.44 54.176 114.592C54.936 114.744 55.568 114.8 55.568 114.856Z" fill="#D17349"/>
<path d="M55.216 112.744C54.688 112.904 54.128 112.928 53.592 112.832C53.04 112.784 52.512 112.616 52.048 112.32C52.072 112.272 52.736 112.536 53.616 112.664C54.496 112.784 55.208 112.704 55.216 112.744Z" fill="#D17349"/>
<path d="M55.008 106.68C55.216 106.936 55.384 107.224 55.488 107.544C55.552 107.704 55.608 107.864 55.64 108.032C55.688 108.232 55.688 108.44 55.64 108.632C55.496 109.072 55.192 109.44 54.784 109.664C54.584 109.784 54.36 109.872 54.128 109.92C53.912 109.96 53.696 109.984 53.48 109.984C53.072 109.984 52.712 109.984 52.408 110C51.8 110 51.432 110.088 51.424 110.064C51.736 109.936 52.064 109.872 52.4 109.872C52.704 109.848 53.088 109.84 53.472 109.816C53.68 109.816 53.888 109.784 54.088 109.744C54.304 109.696 54.504 109.616 54.696 109.504C55.064 109.304 55.344 108.968 55.48 108.568C55.528 108.392 55.528 108.216 55.48 108.04C55.448 107.88 55.408 107.72 55.36 107.568C55.176 107.016 54.984 106.688 55.008 106.672V106.68Z" fill="#D17349"/>
<path d="M75.0403 106.816C74.8643 106.872 74.6877 106.904 74.5123 106.928L73.064 107.176C71.8403 107.376 70.1443 107.648 68.2563 107.928C66.3683 108.216 64.68 108.456 63.448 108.616C62.216 108.776 61.448 108.856 61.448 108.808L61.976 108.72L63.432 108.488L68.2403 107.744C70.12 107.464 71.816 107.208 73.048 107.056L74.504 106.864C74.68 106.832 74.8643 106.808 75.0403 106.808L75.0403 106.816Z" fill="#455A64"/>
<path d="M80.7357 105.48C80.3837 105.512 80.0317 105.512 79.6797 105.48C79.0237 105.448 78.1277 105.4 77.1357 105.336C76.68 105.28 76.216 105.28 75.7597 105.352C75.5837 105.384 75.4077 105.448 75.256 105.544C75.1037 105.64 74.968 105.768 74.8643 105.92C74.7363 106.128 74.6877 106.384 74.7357 106.624C74.776 106.792 74.84 106.872 74.8317 106.888C74.8157 106.896 74.7357 106.824 74.6717 106.648C74.632 106.52 74.616 106.384 74.632 106.248C74.648 106.112 74.6883 105.984 74.7523 105.864C74.856 105.696 75 105.544 75.1677 105.432C75.336 105.32 75.5203 105.24 75.72 105.2C76.1923 105.12 76.6717 105.104 77.144 105.168C78.1437 105.24 79.0397 105.312 79.688 105.368C80.04 105.384 80.392 105.424 80.7357 105.496V105.48Z" fill="#455A64"/>
<path d="M78.552 107.944C77.9043 107.848 77.256 107.688 76.6403 107.472C76.0003 107.312 75.3763 107.096 74.776 106.824C75.4243 106.928 76.0643 107.08 76.6883 107.296C77.3283 107.456 77.9523 107.672 78.552 107.936V107.944Z" fill="#455A64"/>
<path d="M70.2 90.36C70.248 90.36 71.3283 93.7597 72.6083 97.992C73.8883 102.224 74.904 105.664 74.856 105.68C74.808 105.696 73.7277 102.28 72.4477 98.0477C71.176 93.816 70.152 90.3837 70.2 90.36Z" fill="#455A64"/>
<path d="M78.072 79.544C78.072 79.544 77.4557 79.672 76.5117 80.0323C75.288 80.504 74.1757 81.224 73.2477 82.152C72.3197 83.08 71.608 84.2 71.144 85.4237C70.7997 86.3683 70.7037 86.9923 70.664 86.984C70.664 86.84 70.68 86.6883 70.712 86.5443C70.7837 86.152 70.888 85.7603 71.0237 85.3763C71.464 84.1123 72.1757 82.9597 73.1197 82.0157C74.0637 81.064 75.208 80.344 76.472 79.9037C76.8477 79.768 77.24 79.6643 77.6317 79.5843C77.768 79.5523 77.912 79.528 78.056 79.528L78.072 79.544Z" fill="#455A64"/>
<path d="M42.992 86.8803C43 86.9603 43.008 87.0403 43.016 87.1203C43.016 87.2963 43.016 87.5203 43.04 87.8083C43.04 88.424 43.072 89.2803 43.088 90.328C43.112 92.472 43.152 95.4077 43.184 98.648C43.224 101.888 43.224 104.832 43.232 106.96V110.168C43.24 110.248 43.24 110.328 43.232 110.408C43.216 110.328 43.208 110.248 43.208 110.168C43.208 109.992 43.208 109.768 43.184 109.48C43.184 108.864 43.152 108.008 43.136 106.96C43.112 104.816 43.072 101.888 43.032 98.648C42.992 95.4077 43 92.4803 42.984 90.328V87.1203C42.976 87.0403 42.976 86.9603 42.984 86.8803H42.992Z" fill="#455A64"/>
<path d="M59.608 160.152C59.576 160.072 59.552 159.984 59.536 159.896C59.496 159.704 59.44 159.464 59.368 159.152C59.224 158.504 59.024 157.56 58.792 156.4C58.328 154.072 57.72 150.84 57.152 147.264C56.584 143.68 56.144 140.432 55.864 138.064C55.72 136.888 55.616 135.928 55.552 135.272L55.48 134.512C55.472 134.424 55.472 134.336 55.48 134.248C55.504 134.336 55.52 134.424 55.528 134.512C55.552 134.704 55.584 134.952 55.632 135.264C55.72 135.952 55.848 136.888 56 138.056C56.312 140.408 56.768 143.664 57.336 147.24C57.904 150.816 58.488 154.048 58.92 156.384C59.136 157.536 59.312 158.48 59.44 159.152C59.496 159.464 59.544 159.72 59.576 159.904C59.592 159.992 59.6 160.072 59.6 160.16L59.608 160.152Z" fill="#263239"/>
<path d="M78.952 116.88C78.952 116.928 75.08 117.224 70.296 117.536C65.512 117.856 61.6317 118.064 61.6317 118.016C61.6317 117.968 65.5037 117.672 70.2877 117.36C75.0717 117.048 78.952 116.816 78.952 116.88Z" fill="#455A64"/>
<path d="M148.485 1.8662H13.5154C7.08169 1.8662 1.86621 7.08168 1.86621 13.5153V148.485C1.86621 154.918 7.08169 160.134 13.5154 160.134H148.485C154.918 160.134 160.134 154.918 160.134 148.485V13.5153C160.134 7.08169 154.918 1.8662 148.485 1.8662Z" stroke="#438DCC" stroke-width="3"/>
</svg>
