<svg width="164" height="164" viewBox="0 0 164 164" fill="none" xmlns="http://www.w3.org/2000/svg">
<path d="M149.2 2H14.8C7.73076 2 2 7.73078 2 14.8V149.2C2 156.269 7.73076 162 14.8 162H149.2C156.269 162 162 156.269 162 149.2V14.8C162 7.73078 156.269 2 149.2 2Z" fill="#F8F19A" stroke="#F7A41A" stroke-width="3" stroke-miterlimit="10"/>
<path d="M130.248 161.991L129.848 149.728L132.542 161.991H143.404L138.592 138.792H117.528L118.674 161.991H130.248Z" fill="#916515"/>
<path d="M123.611 48.0545L120.139 42.1346L114.706 42.9105L110.219 37.4065L112.53 31.9025L106.475 27.9505L101.947 32.4225L95.9869 31.3986L93.5703 24.5185L86.3229 25.2705L85.9146 31.2705L80.5143 33.9505L74.8023 29.9905L69.0026 34.1185L72.0189 40.4705L68.5706 45.5585L62.3069 45.2305L60.6666 52.7985L66.6269 55.0385L67.1389 61.3986L60.9626 64.8705L63.9146 71.4305L70.3146 70.4545L74.5309 75.2705L72.3146 81.2468L78.1789 85.3025L82.7466 80.4865L89.0749 82.1665L91.0506 88.5825L98.0829 88.1185L98.9866 82.3586L105.035 78.9588L109.955 82.8226L116.21 78.2542L113.051 72.8706L116.139 67.4625L122.467 67.9188L124.411 60.8786L118.963 57.9986L118.259 51.5825L123.627 48.0625L123.611 48.0545ZM99.0429 68.7745C96.5949 70.1505 93.7866 70.7828 90.9789 70.5908C88.1629 70.4065 85.4749 69.4068 83.2426 67.7185C81.0109 66.0302 79.3386 63.7346 78.4343 61.1266C77.5389 58.5106 77.4506 55.6945 78.1866 53.0305C78.9226 50.3665 80.4503 47.9745 82.5706 46.1585C84.6986 44.3425 87.3226 43.1906 90.1143 42.8306C92.9066 42.4786 95.7546 42.9425 98.2749 44.1665C100.803 45.3905 102.899 47.3265 104.307 49.7185C106.187 52.9265 106.69 56.7346 105.707 60.3106C104.722 63.8863 102.323 66.9262 99.0429 68.7662V68.7745Z" fill="#F7A41A"/>
<path d="M93.9923 62.3627C97.0483 61.3067 98.6566 58.0184 97.5686 55.0184C96.4883 52.0264 93.1283 50.4584 90.0646 51.5144C87.0086 52.5704 85.4003 55.8584 86.4883 58.8584C87.5686 61.8507 90.9286 63.4187 93.9923 62.3627Z" fill="#916515"/>
<path d="M123.024 95.7203C123.024 95.7203 121.56 95.2563 121.544 94.3763C121.528 93.4963 132.52 92.2483 134.624 97.1283C134.624 97.1283 134.192 97.392 132.512 97.296" fill="#FAD27D"/>
<path d="M132.144 109.856L125.44 109.368C125.4 108.656 125.44 105.896 125.44 105.896C125.44 105.896 122.648 105.504 122.616 102.96C122.584 100.416 123.048 94.5843 123.048 94.5843C124.64 93.9603 126.384 93.7357 128.104 93.936C129.824 94.1357 131.456 94.752 132.824 95.7203L133.256 96.0083L132.144 109.856Z" fill="#F8B64C"/>
<path d="M123.72 98.9683C123.76 98.9363 123.8 98.896 123.824 98.8563C123.848 98.8083 123.864 98.7603 123.872 98.7123C123.872 98.6643 123.872 98.608 123.848 98.56C123.832 98.512 123.8 98.4723 123.768 98.432C123.728 98.3923 123.688 98.368 123.632 98.3443C123.576 98.32 123.528 98.3123 123.472 98.3123C123.416 98.3123 123.36 98.32 123.312 98.336C123.264 98.3603 123.216 98.384 123.176 98.4243C123.136 98.4563 123.104 98.496 123.08 98.5363C123.056 98.576 123.048 98.624 123.04 98.672C123.04 98.72 123.04 98.768 123.064 98.816C123.08 98.864 123.112 98.9043 123.144 98.9363C123.176 98.9683 123.224 99.0003 123.272 99.024C123.32 99.0483 123.368 99.056 123.424 99.0643C123.48 99.0643 123.528 99.0643 123.584 99.04C123.632 99.024 123.68 99.0003 123.72 98.9683Z" fill="#916515"/>
<path d="M123.048 98.384C123.088 98.4243 123.368 98.2318 123.752 98.2318C124.136 98.2318 124.416 98.416 124.456 98.368C124.496 98.32 124.432 98.272 124.312 98.1843C124.144 98.08 123.952 98.0237 123.744 98.0237C123.544 98.0237 123.352 98.0877 123.184 98.1997C123.088 98.288 123.024 98.368 123.04 98.384H123.048Z" fill="#916515"/>
<path d="M127.472 98.688C127.4 98.7277 127.352 98.784 127.312 98.848C127.28 98.912 127.264 98.992 127.28 99.0637C127.288 99.136 127.328 99.2 127.384 99.2557C127.44 99.312 127.512 99.344 127.584 99.3677C127.664 99.3837 127.744 99.3837 127.816 99.3517C127.888 99.328 127.96 99.28 128.008 99.2237C128.056 99.168 128.08 99.0957 128.088 99.024C128.088 98.9517 128.072 98.88 128.032 98.816C127.976 98.736 127.888 98.672 127.784 98.6477C127.68 98.624 127.568 98.6477 127.48 98.6957L127.472 98.688Z" fill="#916515"/>
<path d="M127.216 98.6957C127.256 98.736 127.536 98.544 127.92 98.544C128.304 98.544 128.584 98.72 128.624 98.6797C128.664 98.64 128.624 98.576 128.48 98.496C128.312 98.384 128.12 98.3277 127.92 98.3277C127.72 98.3277 127.52 98.384 127.36 98.496C127.24 98.592 127.2 98.6797 127.224 98.6957H127.216Z" fill="#916515"/>
<path d="M125.68 101.584C125.48 101.512 125.272 101.472 125.056 101.464C124.952 101.464 124.872 101.432 124.864 101.384C124.864 101.296 124.888 101.2 124.936 101.12L125.24 100.408C125.528 99.808 125.744 99.1757 125.896 98.5357C125.544 99.104 125.256 99.712 125.032 100.336L124.744 101.056C124.68 101.176 124.664 101.32 124.696 101.448C124.712 101.48 124.736 101.512 124.76 101.536C124.792 101.56 124.824 101.584 124.864 101.592H125.04C125.248 101.624 125.464 101.616 125.672 101.584H125.68Z" fill="#916515"/>
<path d="M126.928 101.968C126.328 102.216 125.696 102.384 125.04 102.464C125.168 102.648 125.36 102.792 125.592 102.864C125.816 102.936 126.072 102.936 126.296 102.864C127.128 102.576 126.928 101.976 126.928 101.976V101.968Z" fill="white"/>
<path d="M125.448 105.88C126.736 105.904 128 105.576 129.08 104.936C129.08 104.936 128.216 106.768 125.44 106.536V105.88H125.448Z" fill="#ED7A13"/>
<path d="M123.024 95.2403C123.024 95.2403 124.656 96.1043 126.944 95.2403C128.448 94.6803 130.16 94.4563 130.504 94.7603C130.856 95.0643 130.824 96.416 132.232 96.9043C132.232 96.9043 131.928 99.488 133.064 99.472C134.2 99.456 133.824 95.392 133.824 95.392L131.152 93.9763L128.176 93.248L125.296 93.424L123.048 93.8163V95.232L123.024 95.2403Z" fill="#916515"/>
<path d="M132.896 98.64C132.944 98.624 134.808 98.1203 134.752 99.8643C134.688 101.608 132.792 101.184 132.784 101.136C132.784 101.088 132.896 98.64 132.896 98.64Z" fill="#F8B64C"/>
<path d="M133.392 100.488C133.392 100.488 133.424 100.488 133.48 100.536C133.56 100.568 133.648 100.568 133.728 100.536C133.856 100.464 133.96 100.368 134.024 100.256C134.096 100.144 134.128 100.008 134.128 99.8803C134.144 99.728 134.112 99.5763 134.048 99.44C134.032 99.3843 134 99.3363 133.96 99.296C133.92 99.2563 133.864 99.2243 133.808 99.2083C133.768 99.2 133.728 99.2 133.696 99.2083C133.656 99.2243 133.632 99.248 133.616 99.28C133.592 99.328 133.616 99.36 133.592 99.3683C133.568 99.3683 133.552 99.3363 133.568 99.264C133.584 99.2243 133.608 99.184 133.648 99.1603C133.704 99.1283 133.768 99.1123 133.832 99.12C133.912 99.136 133.984 99.168 134.04 99.216C134.096 99.264 134.144 99.328 134.168 99.4003C134.248 99.552 134.28 99.7203 134.264 99.888C134.264 100.04 134.224 100.2 134.136 100.328C134.048 100.456 133.912 100.56 133.76 100.624C133.712 100.632 133.656 100.64 133.6 100.624C133.544 100.616 133.496 100.592 133.456 100.568C133.4 100.536 133.384 100.496 133.4 100.496L133.392 100.488Z" fill="#ED7A13"/>
<path d="M134.192 93.2557C134.192 93.312 133.896 93.2877 133.576 93.3837C133.256 93.4797 133.04 93.6397 132.992 93.6C132.944 93.5597 133.12 93.3037 133.512 93.2077C133.904 93.1117 134.216 93.2077 134.192 93.2557Z" fill="#916515"/>
<path d="M133.104 92.1523C133.232 92.416 133.256 92.704 133.16 92.9843C133.056 93.456 132.728 93.7363 132.688 93.696C132.648 93.6563 132.856 93.36 132.936 92.944C133.024 92.5197 133.024 92.16 133.096 92.16L133.104 92.1523Z" fill="#916515"/>
<path d="M124.912 97.8157C124.848 97.92 124.48 97.8157 124.048 97.8157C123.616 97.8157 123.24 97.8477 123.184 97.744C123.128 97.6397 123.512 97.3843 124.048 97.408C124.584 97.4323 124.976 97.7197 124.912 97.8157Z" fill="#916515"/>
<path d="M129.192 97.8157C129.136 97.92 128.76 97.8157 128.328 97.8157C127.896 97.8157 127.52 97.8477 127.464 97.744C127.408 97.6397 127.784 97.3843 128.328 97.408C128.864 97.4323 129.256 97.7197 129.192 97.8157Z" fill="#916515"/>
<path d="M127.576 94.016C122.544 93.52 121.584 94.3283 121.536 94.368C121.408 94.24 121.32 94.0883 121.28 93.9123C121.104 92.56 122.904 92.176 122.904 92.176C124.032 87.488 128.656 87.968 128.656 87.968V87.936C128.696 87.7363 128.824 87.568 129.008 87.4483C129.192 87.3363 129.416 87.296 129.632 87.328L130.36 87.456C130.576 87.4963 130.768 87.6083 130.896 87.776C131.016 87.9443 131.064 88.144 131.024 88.3443C136.448 89.9923 134.648 94.56 134.648 94.56L135.44 95.4323C136.144 96.7283 134.616 97.1283 134.616 97.1283C134.616 97.1283 132.736 94.544 127.584 94.016H127.576Z" fill="#ED750E"/>
<g opacity="0.2">
<path d="M129.864 93.248C130.168 93.248 130.472 93.3043 130.76 93.4003C132.168 93.7683 133.472 94.416 134.584 95.296C134.824 95.4643 135.04 95.664 135.216 95.8963C134.4 95.328 133.56 94.8083 132.68 94.3283C131.768 93.92 130.832 93.5603 129.872 93.248H129.864Z" fill="white"/>
</g>
<g opacity="0.2">
<path d="M130.68 88.6483C130.624 88.624 130.68 88.416 130.608 88.1683C130.536 87.92 130.424 87.744 130.472 87.7043C130.52 87.664 130.76 87.8163 130.824 88.1363C130.888 88.4563 130.728 88.656 130.672 88.656L130.68 88.6483Z" fill="white"/>
</g>
<g opacity="0.2">
<path d="M134.176 93.8803C133.864 93.824 133.976 92.496 133.2 91.1763C132.424 89.8643 131.184 89.1763 131.304 88.9203C131.36 88.7923 131.784 88.7923 132.376 89.056C133.152 89.424 133.784 89.9923 134.184 90.6963C134.592 91.4003 134.752 92.192 134.648 92.9843C134.552 93.5923 134.288 93.9123 134.168 93.8803H134.176Z" fill="white"/>
</g>
<path d="M93.9124 126.568C93.9124 126.568 90.5921 125 90.0321 124.312C89.4644 123.632 89.2084 121.12 89.2084 121.12L94.8641 123.048L93.9124 126.568Z" fill="#F8B64C"/>
<path d="M118.608 120.072C118.416 120.128 114.76 127.56 111.816 127.6C108.88 127.64 93.9124 126.56 93.9124 126.56L94.8403 123.024L109.2 122.608L113.904 116.808L118.608 120.08L118.608 120.072Z" fill="#F8B64C"/>
<path d="M138.616 139.712L117.544 140.8C117.48 138.688 118.344 121.76 118.344 121.76L117.184 123.728L111.144 118.832L116.416 112.344C117.248 111.328 118.288 110.464 119.488 109.824C120.688 109.176 122.016 108.76 123.392 108.584C124.208 108.48 124.832 108.432 125.232 108.384C127.56 109.056 130.056 109.056 132.384 108.384C133.392 108.416 134.392 108.592 135.344 108.904C137.144 109.48 138.768 110.44 140.088 111.688L146.4 121.344L138.752 125.728L137.648 122.688L138.616 139.704L138.616 139.712Z" fill="#FEEADA"/>
<path d="M128.92 158.96C128.984 158.96 129.032 159.224 129.016 159.56C129.008 159.888 128.952 160.16 128.888 160.16C128.824 160.16 128.784 159.888 128.792 159.56C128.792 159.232 128.856 158.944 128.92 158.968V158.96Z" fill="#F5AA2B"/>
<path d="M129 156.544C129.056 156.544 129.096 156.816 129.088 157.144C129.072 157.472 129.016 157.744 128.952 157.736C128.888 157.736 128.848 157.464 128.864 157.136C128.88 156.808 128.936 156.536 129 156.544Z" fill="#F5AA2B"/>
<path d="M129.128 154.16C129.184 154.16 129.224 154.432 129.2 154.76C129.176 155.088 129.112 155.36 129.048 155.352C128.984 155.352 128.952 155.08 128.976 154.744C129 154.416 129.08 154.152 129.128 154.152V154.16Z" fill="#F5AA2B"/>
<path d="M129.368 151.776C129.432 151.776 129.456 152.048 129.416 152.384C129.376 152.712 129.304 152.976 129.24 152.968C129.176 152.96 129.152 152.696 129.192 152.36C129.232 152.032 129.304 151.768 129.36 151.776H129.368Z" fill="#F5AA2B"/>
<path d="M129.616 150.008C129.68 150.008 129.704 150.152 129.68 150.312C129.656 150.472 129.584 150.592 129.528 150.584C129.464 150.584 129.44 150.44 129.464 150.28C129.488 150.112 129.56 150 129.616 150.008Z" fill="#F5AA2B"/>
<path d="M133.368 140.792L132.216 120.656H119.544L117.488 141.36L133.368 140.784L133.368 140.792Z" fill="#916515"/>
<path d="M136.12 109.184C136.12 109.184 130.984 110.408 130.904 121.392H128.832C128.832 121.392 128.288 112.176 133.872 108.552C133.872 108.552 135.488 108.2 136.12 109.192L136.12 109.184Z" fill="#916515"/>
<path d="M125.24 108.4C125.24 108.4 121.592 109.968 121.512 120.968H119.752C119.752 120.968 119.632 110.672 123.088 108.64C123.4 108.448 123.76 108.328 124.136 108.288C124.512 108.248 124.888 108.288 125.248 108.4H125.24Z" fill="#916515"/>
<path d="M141.752 160.056C141.808 160.056 141.92 160.288 141.984 160.608C142.056 160.92 142.056 161.184 141.984 161.2C141.912 161.216 141.816 160.968 141.752 160.648C141.688 160.336 141.688 160.064 141.752 160.056Z" fill="#F5AA2B"/>
<path d="M141.264 157.784C141.328 157.784 141.432 158.016 141.496 158.336C141.56 158.656 141.568 158.912 141.496 158.928C141.424 158.936 141.328 158.696 141.264 158.376C141.192 158.064 141.2 157.784 141.264 157.784Z" fill="#F5AA2B"/>
<path d="M140.768 155.496C140.832 155.496 140.936 155.728 141 156.048C141.072 156.368 141.072 156.624 141 156.64C140.928 156.648 140.832 156.408 140.768 156.088C140.704 155.768 140.712 155.504 140.768 155.496Z" fill="#F5AA2B"/>
<path d="M140.28 153.224C140.336 153.224 140.448 153.456 140.512 153.776C140.584 154.088 140.584 154.352 140.512 154.368C140.44 154.376 140.344 154.136 140.28 153.816C140.208 153.504 140.216 153.24 140.28 153.224Z" fill="#F5AA2B"/>
<path d="M139.784 150.944C139.848 150.944 139.952 151.176 140.024 151.496C140.096 151.808 140.096 152.072 140.024 152.088C139.952 152.096 139.856 151.856 139.792 151.536C139.728 151.216 139.728 150.96 139.792 150.944H139.784Z" fill="#F5AA2B"/>
<path d="M139.28 148.672C139.336 148.672 139.448 148.904 139.52 149.224C139.592 149.536 139.6 149.8 139.52 149.808C139.44 149.816 139.352 149.576 139.288 149.264C139.216 148.952 139.224 148.688 139.288 148.672H139.28Z" fill="#F5AA2B"/>
<path d="M138.776 146.392C138.832 146.392 138.944 146.624 139.016 146.936C139.088 147.248 139.096 147.512 139.016 147.528C138.936 147.536 138.848 147.296 138.776 146.984C138.704 146.672 138.712 146.392 138.776 146.392Z" fill="#F5AA2B"/>
<path d="M138.392 144.68C138.448 144.68 138.528 144.792 138.568 144.944C138.608 145.104 138.568 145.24 138.52 145.256C138.472 145.264 138.384 145.144 138.344 144.992C138.312 144.832 138.328 144.696 138.384 144.68H138.392Z" fill="#F5AA2B"/>
<path d="M121.584 120.392C121.672 120.576 121.704 120.776 121.696 120.976C121.704 121.2 121.656 121.424 121.552 121.632C121.488 121.76 121.392 121.88 121.264 121.968C121.144 122.056 120.992 122.12 120.84 122.152C120.68 122.176 120.512 122.152 120.36 122.104C120.208 122.048 120.08 121.96 119.976 121.84C119.816 121.664 119.728 121.44 119.72 121.208C119.72 120.816 119.848 120.616 119.872 120.632C119.896 120.64 119.84 120.864 119.872 121.2C119.896 121.392 119.984 121.576 120.12 121.72C120.2 121.808 120.304 121.872 120.416 121.912C120.528 121.952 120.656 121.968 120.776 121.952C120.896 121.928 121.008 121.88 121.104 121.808C121.2 121.736 121.28 121.656 121.344 121.552C121.44 121.376 121.496 121.184 121.512 120.984C121.56 120.616 121.544 120.392 121.584 120.392Z" fill="#F5AA2B"/>
<path d="M120.672 120.68C120.672 120.68 120.8 120.608 120.952 120.728C121 120.768 121.04 120.824 121.056 120.888C121.072 120.952 121.072 121.016 121.056 121.072C121.032 121.128 121 121.184 120.944 121.224C120.888 121.264 120.824 121.288 120.76 121.296C120.688 121.312 120.608 121.304 120.536 121.28C120.464 121.256 120.408 121.208 120.368 121.144C120.344 121.096 120.328 121.04 120.328 120.992C120.328 120.944 120.344 120.888 120.368 120.84C120.456 120.672 120.608 120.672 120.608 120.704C120.608 120.728 120.536 120.776 120.52 120.888C120.512 120.92 120.512 120.944 120.52 120.976C120.528 121 120.544 121.032 120.568 121.048C120.592 121.072 120.616 121.088 120.648 121.096C120.68 121.104 120.712 121.104 120.744 121.096C120.776 121.096 120.808 121.08 120.832 121.056C120.856 121.032 120.872 121.016 120.888 120.984C120.896 120.96 120.904 120.928 120.896 120.896C120.896 120.864 120.88 120.84 120.864 120.816C120.784 120.72 120.696 120.704 120.696 120.672L120.672 120.68Z" fill="#F5AA2B"/>
<path d="M130.76 120.464C130.84 120.64 130.872 120.824 130.848 121.016C130.848 121.232 130.784 121.44 130.664 121.624C130.592 121.744 130.48 121.84 130.36 121.92C130.232 121.992 130.088 122.032 129.936 122.04C129.792 122.04 129.64 122.024 129.504 121.976C129.368 121.928 129.24 121.856 129.128 121.768C128.96 121.624 128.84 121.432 128.776 121.224C128.672 120.88 128.736 120.664 128.776 120.664C128.816 120.664 128.816 120.88 128.936 121.176C129.008 121.344 129.128 121.504 129.28 121.624C129.464 121.768 129.696 121.84 129.936 121.832C130.048 121.832 130.168 121.8 130.264 121.744C130.36 121.688 130.448 121.616 130.504 121.52C130.608 121.36 130.672 121.184 130.696 121C130.696 120.816 130.712 120.64 130.752 120.464H130.76Z" fill="#F5AA2B"/>
<path d="M129.768 120.68C129.768 120.68 129.88 120.624 129.992 120.736C130.024 120.768 130.048 120.808 130.064 120.848C130.08 120.888 130.08 120.936 130.064 120.976C130.048 121.032 130.008 121.08 129.968 121.12C129.92 121.16 129.864 121.184 129.8 121.192C129.736 121.2 129.672 121.192 129.616 121.168C129.56 121.144 129.504 121.112 129.472 121.064C129.448 121.024 129.432 120.984 129.432 120.936C129.432 120.888 129.432 120.848 129.456 120.808C129.52 120.672 129.648 120.664 129.648 120.696C129.648 120.728 129.616 120.768 129.616 120.848C129.616 120.928 129.664 121.008 129.776 120.992C129.888 120.976 129.912 120.888 129.88 120.808C129.848 120.728 129.784 120.704 129.784 120.672L129.768 120.68Z" fill="#F5AA2B"/>
<path d="M130.28 125.544C130.28 125.544 130.184 125.624 129.984 125.736C129.704 125.888 129.416 126.032 129.12 126.152C128.136 126.568 127.096 126.88 126.024 127.064C124.952 127.248 123.864 127.312 122.768 127.256C122.44 127.232 122.112 127.2 121.792 127.144C121.672 127.136 121.552 127.112 121.44 127.072C121.44 127.04 121.952 127.072 122.784 127.104C123.856 127.12 124.928 127.032 125.984 126.856C127.04 126.672 128.064 126.384 129.056 126.008C129.808 125.736 130.256 125.52 130.272 125.544H130.28Z" fill="#F5AA2B"/>
<path d="M140.288 143.192L117.192 141.368V143.76L140.288 145.552V143.184V143.192Z" fill="#FAD27D"/>
<path d="M124.488 141.84C124.168 141.848 123.848 141.84 123.528 141.816C122.936 141.784 122.104 141.744 121.128 141.672L121.24 141.568L121.712 143.968L121.744 144.16L121.64 144.08L124.704 144.264L124.608 144.352C124.56 143.616 124.528 143 124.504 142.56C124.488 142.32 124.488 142.08 124.504 141.848C124.56 142.064 124.592 142.288 124.608 142.512C124.664 142.944 124.736 143.584 124.808 144.352V144.448H124.704L121.632 144.304H121.544V144.224L121.504 144.032L121.072 141.624L121.048 141.504H121.176C122.192 141.592 123.04 141.68 123.624 141.744C123.912 141.76 124.2 141.8 124.488 141.848L124.488 141.84Z" fill="#F5AA2B"/>
<path d="M120.072 142.344C120.496 142.264 120.936 142.256 121.368 142.32C121.8 142.32 122.232 142.376 122.64 142.504C122.216 142.584 121.776 142.592 121.344 142.528C120.912 142.528 120.48 142.472 120.072 142.344Z" fill="#916515"/>
<path d="M119.912 143.024C120.368 142.96 120.832 142.968 121.288 143.048C121.752 143.048 122.208 143.128 122.64 143.272C122.184 143.336 121.72 143.328 121.264 143.248C120.8 143.248 120.344 143.168 119.912 143.024Z" fill="#916515"/>
<path d="M94.1362 121.136L85.5839 118.504L85.2479 119.504C85.2479 119.504 88.5919 124.304 92.4882 125.288L94.1362 121.144V121.136Z" fill="#EE7411"/>
<path d="M119.544 135.08C119.544 135.08 106.344 126.648 105.552 126.392C104.76 126.136 99.0797 126.128 97.68 126.264C96.2797 126.4 92.1997 126.024 92.1997 126.024L96.3917 115.44L87.4957 113.36L87.968 111.912C87.968 111.912 95.1277 107.984 99.264 109.112C103.4 110.24 105.344 115.176 106.2 116.4C107.056 117.624 108.928 122 117.76 127.144L122.984 130.32L119.552 135.072L119.544 135.08Z" fill="#EE7411"/>
<path d="M105.304 118.04C105.288 118.08 105.272 118.12 105.256 118.16L105.104 118.488L104.512 119.736L102.352 124.24L102.264 124.136C102.768 124.104 103.272 124.104 103.784 124.136C104.336 124.136 104.88 124.248 105.392 124.44C106.376 124.944 107.344 125.56 108.368 126.184C110.416 127.456 112.632 128.864 114.936 130.352C115.208 130.568 115.544 130.712 115.896 130.768C116.152 130.8 116.416 130.776 116.656 130.696C116.904 130.616 117.12 130.488 117.296 130.312C117.472 130.136 117.6 129.928 117.664 129.696C117.728 129.464 117.736 129.224 117.672 129C117.6 128.696 117.424 128.424 117.176 128.216C116.92 128.024 116.608 127.84 116.336 127.664L114.68 126.592L108.976 122.872C108.584 122.616 108.248 122.304 107.96 121.952C107.68 121.624 107.44 121.312 107.216 121.008C106.784 120.408 106.416 119.872 106.136 119.44C105.856 119.008 105.64 118.656 105.504 118.416L105.352 118.152C105.352 118.152 105.32 118.088 105.304 118.056C105.336 118.08 105.352 118.112 105.376 118.144L105.544 118.4L106.216 119.4C106.512 119.832 106.88 120.36 107.328 120.968C107.552 121.264 107.8 121.576 108.08 121.896C108.36 122.24 108.696 122.536 109.08 122.784L114.808 126.472L116.464 127.536C116.752 127.728 117.032 127.888 117.328 128.104C117.624 128.336 117.832 128.656 117.912 129C117.992 129.352 117.952 129.712 117.784 130.04C117.624 130.368 117.344 130.632 117 130.808C116.656 130.976 116.256 131.048 115.872 130.992C115.48 130.928 115.112 130.776 114.808 130.536C112.496 129.048 110.288 127.64 108.248 126.36C107.224 125.736 106.248 125.104 105.296 124.616C104.808 124.432 104.296 124.328 103.768 124.32C103.272 124.296 102.776 124.296 102.28 124.32H102.136L102.192 124.2C103.152 122.304 103.92 120.76 104.472 119.68C104.736 119.168 104.936 118.76 105.088 118.472L105.248 118.16C105.28 118.088 105.296 118.048 105.296 118.056L105.304 118.04Z" fill="#916515"/>
<path d="M139.568 144.72C139.28 145.12 138.896 145.464 138.456 145.72C138.016 145.984 137.52 146.16 137 146.24C136.48 146.32 135.952 146.312 135.44 146.2C134.928 146.088 134.448 145.888 134.024 145.6L116.416 133.08L119.544 128.232L138.568 139.84C139.408 140.368 139.984 141.176 140.168 142.088C140.36 143 140.144 143.944 139.576 144.72H139.568Z" fill="#EE7411"/>
<path d="M100.904 117.36L99.3197 121.872H96.416L98.2157 117.376L100.904 117.36Z" fill="#916515"/>
<path d="M96.224 120.88C96.224 120.768 97.184 120.672 98.3597 120.664C99.536 120.656 100.52 120.744 100.52 120.856C100.52 120.968 99.568 121.064 98.384 121.072C97.2 121.072 96.224 120.992 96.224 120.88Z" fill="#916515"/>
<path d="M96.7764 119.44C96.7764 119.328 97.7364 119.232 98.9281 119.224C100.128 119.224 101.088 119.304 101.088 119.416C101.088 119.528 100.128 119.624 98.9281 119.624C97.7281 119.624 96.7764 119.544 96.7764 119.432V119.44Z" fill="#916515"/>
<path d="M97.12 118.072C97.12 117.96 98.0723 117.864 99.2563 117.856C100.44 117.856 101.416 117.936 101.416 118.056C101.416 118.176 100.456 118.264 99.28 118.264C98.1043 118.264 97.12 118.184 97.12 118.072Z" fill="#916515"/>
<path d="M94.192 120.632C94.064 121.44 93.824 122.232 93.488 122.992C93.216 123.768 92.864 124.512 92.432 125.224C92.6643 124.44 92.9523 123.664 93.296 122.92C93.7683 121.648 94.128 120.624 94.2003 120.632H94.192Z" fill="#916515"/>
<path d="M148.984 130.656C149.024 127.696 145.536 121.856 145.536 121.856L139.288 125.432L140.304 127.848L126.328 133.08L122.504 133.24L120.064 136.432L123.2 139.056L131.392 136.992C136.576 136.176 148.928 133.936 148.976 130.656L148.984 130.656Z" fill="#F8B64C"/>
<path d="M45.76 157.784C45.488 158.144 45.248 158.52 45.024 158.904C44.776 159.28 44.56 159.664 44.368 160.064C44.64 159.704 44.88 159.328 45.104 158.944C45.352 158.568 45.568 158.184 45.76 157.784Z" fill="#916515"/>
<path d="M44.72 160.992V161.168C44.72 161.264 44.792 161.328 44.816 161.32C44.84 161.32 44.816 161.232 44.816 161.144C44.816 161.056 44.744 160.984 44.72 160.992Z" fill="#916515"/>
<path d="M44.2001 160.432C44.2001 160.432 44.2801 160.488 44.3441 160.568C44.4161 160.64 44.4641 160.72 44.4801 160.712C44.5041 160.712 44.4801 160.6 44.4081 160.512C44.3361 160.424 44.2001 160.408 44.2001 160.432Z" fill="#916515"/>
<path d="M43.808 160.104C43.808 160.104 43.808 160.16 43.848 160.208C43.888 160.248 43.936 160.272 43.952 160.264C43.968 160.256 43.952 160.2 43.912 160.16C43.872 160.12 43.824 160.088 43.808 160.112V160.104Z" fill="#916515"/>
<path d="M80.3597 143.112H67.1283V145.96H80.3597V143.112Z" fill="#916515"/>
<path d="M73.76 123.84H60.528V126.688H73.76V123.84Z" fill="#916515"/>
<path d="M56.776 143.688H43.544C42.68 143.688 41.984 144.328 41.984 145.112C41.984 145.904 42.68 146.536 43.544 146.536H56.776C57.64 146.536 58.336 145.904 58.336 145.112C58.336 144.32 57.64 143.688 56.776 143.688Z" fill="#F5AA2B"/>
<path d="M48.3521 125.76C48.3521 126.136 48.5201 126.496 48.8081 126.768C49.1041 127.04 49.4961 127.184 49.9121 127.184H60.024C60.44 127.184 60.8321 127.032 61.1281 126.768C61.4241 126.504 61.584 126.136 61.584 125.76C61.584 125.384 61.4163 125.024 61.1281 124.752C60.8321 124.488 60.4401 124.336 60.024 124.336H49.9121C49.4961 124.336 49.1041 124.488 48.8081 124.752C48.5121 125.016 48.3521 125.384 48.3521 125.76Z" fill="#F5AA2B"/>
<path d="M51.2319 96.608C51.4319 96.6643 55.0799 104.096 58.0239 104.136C60.9599 104.176 75.9359 103.096 75.9359 103.096L76.1202 99.12L60.6479 99.1597L55.9439 93.36L51.2399 96.6157L51.2319 96.608Z" fill="#F8B64C"/>
<path d="M74.2163 99.616C74.2163 99.616 76.768 98.8717 77.0483 98.5037C77.328 98.1357 78.48 96.4237 78.48 96.4237C78.72 96.72 78.8243 97.088 78.768 97.456C78.688 97.7363 78.544 98.24 78.4403 98.6323C78.4243 98.688 78.4243 98.7443 78.4403 98.8C78.4563 98.8563 78.4883 98.9043 78.528 98.944C78.5683 98.9843 78.624 99.0163 78.688 99.0323C78.7443 99.0483 78.8083 99.056 78.8723 99.04C79.472 98.944 80.3603 98.8397 80.464 99.104C80.624 99.4957 79.9283 102.104 79.408 102.584C78.896 103.064 75.3843 103.072 75.3843 103.072L74.2163 99.6083L74.2163 99.616Z" fill="#F8B64C"/>
<path d="M79.808 99.8797C79.808 99.8797 79.648 100.056 79.2877 100.208C79.072 100.296 78.848 100.36 78.6157 100.392C78.4557 100.416 78.2957 100.392 78.16 100.312C78.0877 100.264 78.0237 100.2 77.9917 100.12C77.9597 100.04 77.952 99.9597 77.968 99.872C78 99.712 78.096 99.5757 78.2317 99.4797C78.352 99.408 78.48 99.3517 78.624 99.3197C78.8717 99.2557 79.0957 99.2237 79.28 99.184C79.4797 99.1277 79.6883 99.104 79.8963 99.1117C79.7203 99.216 79.52 99.2877 79.3197 99.3197L78.6797 99.4957C78.5677 99.5117 78.4557 99.5597 78.368 99.632C78.2798 99.7037 78.2157 99.792 78.176 99.8957C78.128 100.112 78.352 100.216 78.5843 100.192C78.8 100.168 79.008 100.128 79.2077 100.064C79.392 99.9917 79.5923 99.9277 79.7843 99.888L79.808 99.8797Z" fill="#ED7A13"/>
<path d="M79.3843 101.056C79.2563 101.152 79.1123 101.224 78.9523 101.264C78.8723 101.296 78.784 101.312 78.6963 101.32C78.64 101.32 78.576 101.32 78.5203 101.296C78.464 101.272 78.416 101.248 78.368 101.208C78.2643 101.128 78.2003 101.024 78.176 100.904C78.1523 100.784 78.176 100.664 78.24 100.56C78.384 100.384 78.5843 100.264 78.816 100.208L79.296 100.032C79.5763 99.9283 79.76 99.904 79.7683 99.9283C79.776 99.952 79.616 100.032 79.36 100.16C79.232 100.224 79.072 100.304 78.896 100.384C78.7123 100.44 78.5523 100.536 78.432 100.672C78.4 100.736 78.384 100.808 78.4 100.88C78.416 100.952 78.4563 101.016 78.512 101.064C78.528 101.088 78.56 101.112 78.592 101.12C78.624 101.136 78.656 101.136 78.688 101.136C78.7603 101.136 78.832 101.128 78.9043 101.112C79.184 101.056 79.3683 101.016 79.376 101.056H79.3843Z" fill="#ED7A13"/>
<path d="M77.84 101.92C77.84 101.92 77.76 101.784 77.6243 101.592C77.4483 101.328 77.2 101.12 76.9043 100.968L76.7603 100.896L76.8883 100.8C76.976 100.736 77.072 100.664 77.152 100.584C77.5603 100.176 77.888 99.7121 78.1363 99.2083C78.1683 99.2083 78.1363 99.408 78.0403 99.7043C77.8803 100.088 77.632 100.44 77.312 100.728C77.2243 100.808 77.1283 100.888 77.024 100.96V100.792C77.3523 100.96 77.616 101.216 77.7683 101.528C77.84 101.76 77.84 101.92 77.84 101.92Z" fill="#ED7A13"/>
<path d="M79.4483 101.968C79.4483 101.968 79.3363 102.096 79.0643 102.184C78.976 102.216 78.8883 102.224 78.8 102.224C78.7123 102.224 78.624 102.2 78.5363 102.16C78.432 102.112 78.352 102.04 78.2963 101.952C78.2643 101.896 78.2483 101.84 78.2483 101.776C78.2483 101.712 78.2643 101.656 78.2963 101.6C78.4083 101.432 78.576 101.288 78.7763 101.208C78.912 101.136 79.056 101.08 79.2083 101.024C79.4643 100.936 79.6403 100.912 79.6403 100.936C79.6403 100.96 79.504 101.032 79.2723 101.152C79.1603 101.216 79.024 101.288 78.8723 101.376C78.72 101.448 78.592 101.552 78.496 101.672C78.432 101.784 78.528 101.92 78.6483 101.984C78.768 102.04 78.9043 102.064 79.04 102.032C79.28 102 79.44 101.936 79.456 101.968H79.4483Z" fill="#ED7A13"/>
<path d="M36.24 75.872C36.184 76.5677 36.04 77.2563 35.808 77.92C35.568 78.592 35.072 79.1597 34.416 79.536C33.776 79.8637 32.896 80 32.648 80.624C32.4 81.2563 32.936 82.064 32.432 82.5357C32.208 82.704 31.936 82.8083 31.648 82.8403C31.176 82.944 30.728 83.136 30.344 83.408C29.96 83.68 29.64 84.0237 29.408 84.416C29.192 84.896 29.104 85.408 29.144 85.92C29.184 86.432 29.352 86.9363 29.632 87.376C30.216 88.256 30.944 89.056 31.792 89.7357L39.984 88.1357C39.984 88.1357 37.56 76.304 37.6 76.384C37.136 76.24 36.68 76.0717 36.24 75.872Z" fill="#916515"/>
<path d="M47.104 76.496C47.144 76.6797 47.224 76.848 47.344 76.9997C47.464 77.152 47.624 77.2717 47.8 77.3677C48.16 77.5437 48.512 77.744 48.84 77.9597C49.104 78.192 49.32 78.464 49.456 78.7757C49.6 79.088 49.664 79.4157 49.648 79.7517C49.624 80.4237 49.488 81.0797 49.256 81.7197C49.928 81.744 50.584 81.9117 51.176 82.192C51.768 82.4717 52.296 82.8717 52.7041 83.36C53.5201 84.3437 53.944 85.5437 53.92 86.7757C53.92 87.648 53.68 88.592 52.944 89.136C52.328 89.536 51.6 89.7677 50.84 89.8157C49.352 90.016 47.856 90.1357 46.36 90.2477C44.864 90.368 43.248 90.4557 41.92 89.7997C40.832 89.2 40.008 88.272 39.584 87.1757C38.92 85.5757 38.68 83.856 38.888 82.1517C39.096 80.4557 39.504 78.784 40.096 77.168" fill="#916515"/>
<path d="M36.7841 74.576C36.0561 74.24 35.2561 74.0403 34.4401 74.0083C33.6241 74.0083 32.7601 74.448 32.5361 75.1603C32.4321 75.5443 32.4881 75.952 32.6801 76.3123C32.8801 76.6643 33.1441 76.9843 33.4561 77.2563C33.7361 77.568 34.1281 77.776 34.5681 77.8483C34.9121 77.8643 35.2481 77.776 35.5281 77.6C36.0961 77.3043 36.5121 76.8083 36.6961 76.24C36.7761 75.952 36.7761 75.648 36.6801 75.3683C36.5841 75.088 36.4081 74.832 36.1601 74.6323" fill="#916515"/>
<path d="M46.112 72.9043C46.112 72.9043 47.584 72.4403 47.592 71.5603C47.608 70.688 36.616 69.4323 34.512 74.3123C34.512 74.3123 34.92 74.576 36.624 74.48" fill="#FAD27D"/>
<path d="M37.6961 86.4001L44.4001 85.9124C44.4401 85.2 44.4001 82.4403 44.4001 82.4403C44.4001 82.4403 47.1921 82.048 47.2241 79.504C47.2561 76.96 46.7921 71.1284 46.7921 71.1284C45.2081 70.5044 43.4641 70.2803 41.7521 70.48C40.0401 70.6803 38.4161 71.2883 37.0481 72.2483L36.6161 72.5363L37.6961 86.4001Z" fill="#F8B64C"/>
<path d="M45.632 75.3517C45.592 75.3197 45.552 75.28 45.528 75.2397C45.504 75.2 45.488 75.1437 45.48 75.0957C45.48 75.0477 45.48 74.992 45.504 74.944C45.52 74.896 45.552 74.8557 45.584 74.816C45.624 74.7757 45.664 74.752 45.72 74.7283C45.768 74.704 45.824 74.6957 45.88 74.6957C45.936 74.6957 45.992 74.704 46.04 74.7283C46.088 74.7443 46.136 74.7757 46.176 74.816C46.216 74.848 46.256 74.8883 46.28 74.928C46.304 74.976 46.32 75.024 46.328 75.072C46.328 75.12 46.328 75.1757 46.304 75.2237C46.288 75.2717 46.256 75.312 46.224 75.3517C46.184 75.392 46.144 75.4157 46.088 75.44C46.04 75.4637 45.984 75.472 45.928 75.472C45.872 75.472 45.816 75.4637 45.768 75.44C45.72 75.4157 45.672 75.392 45.632 75.3517Z" fill="#916515"/>
<path d="M46.784 74.912C46.744 74.9517 46.472 74.768 46.088 74.7597C45.704 74.7597 45.424 74.944 45.384 74.896C45.344 74.848 45.408 74.8 45.528 74.7117C45.688 74.5997 45.888 74.544 46.088 74.544C46.288 74.544 46.488 74.608 46.648 74.72C46.784 74.8083 46.816 74.8877 46.784 74.9037V74.912Z" fill="#916515"/>
<path d="M42.0079 75.104C42.0559 75.1283 42.096 75.1603 42.1199 75.2C42.1439 75.2403 42.176 75.2883 42.184 75.328C42.192 75.3683 42.2 75.424 42.184 75.472C42.176 75.52 42.16 75.568 42.128 75.6083C42.096 75.648 42.064 75.6883 42.016 75.712C41.976 75.744 41.9199 75.76 41.8719 75.7683C41.8159 75.776 41.7679 75.7843 41.7119 75.7683C41.6559 75.76 41.6079 75.744 41.5599 75.7203C41.4719 75.664 41.408 75.584 41.384 75.488C41.36 75.392 41.3759 75.296 41.4239 75.2083C41.4479 75.168 41.488 75.1283 41.536 75.0963C41.576 75.0643 41.6319 75.0483 41.6799 75.0323C41.7359 75.024 41.784 75.0163 41.84 75.0323C41.896 75.04 41.944 75.056 41.992 75.088L42.0079 75.104Z" fill="#916515"/>
<path d="M42.624 75.2243C42.576 75.264 42.304 75.072 41.92 75.072C41.536 75.072 41.256 75.248 41.216 75.2083C41.176 75.168 41.24 75.1123 41.36 75.024C41.52 74.912 41.72 74.8563 41.928 74.864C42.128 74.864 42.328 74.928 42.488 75.04C42.608 75.1283 42.648 75.2083 42.632 75.232L42.624 75.2243Z" fill="#916515"/>
<path d="M44.16 78.112C44.36 78.0397 44.568 78 44.784 77.9917C44.88 77.9917 44.968 77.968 44.968 77.9117C44.968 77.824 44.952 77.728 44.896 77.648C44.8 77.4157 44.696 77.184 44.592 76.9357C44.304 76.336 44.088 75.7043 43.936 75.0643C44.288 75.6403 44.576 76.24 44.8 76.864C44.896 77.1123 44.992 77.344 45.088 77.584C45.16 77.7043 45.176 77.84 45.144 77.9763C45.128 78.0083 45.104 78.0403 45.08 78.064C45.048 78.0883 45.016 78.1043 44.976 78.1203C44.92 78.128 44.864 78.128 44.8 78.1203C44.592 78.1523 44.376 78.144 44.168 78.112H44.16Z" fill="#916515"/>
<path d="M44.3921 82.4C43.1041 82.4243 41.8321 82.096 40.7521 81.456C40.7521 81.456 41.6161 83.2883 44.4001 83.056V82.4H44.3921Z" fill="#ED7A13"/>
<path d="M46.816 71.7677C46.2 72.0237 45.536 72.16 44.856 72.16C44.176 72.16 43.512 72.0237 42.896 71.7677C41.392 71.2077 39.68 70.9837 39.336 71.2877C38.984 71.5917 39.592 74.2157 38.192 74.7117C38.192 74.7117 37.928 76.0237 36.784 76.0077C35.64 75.9917 36.032 71.936 36.032 71.936L38.704 70.512L41.688 69.792L44.568 69.968L46.816 70.3597V71.776V71.7677Z" fill="#916515"/>
<path d="M36.944 75.1603C36.896 75.1603 35.024 74.6483 35.088 76.384C35.152 78.1203 37.048 77.7043 37.048 77.6563C37.048 77.6083 36.944 75.1603 36.944 75.1603Z" fill="#F8B64C"/>
<path d="M36.432 77.0157C36.432 77.0157 36.4 77.0157 36.344 77.0637C36.264 77.0957 36.176 77.0957 36.096 77.0637C35.968 76.992 35.864 76.896 35.8 76.784C35.728 76.672 35.696 76.5357 35.696 76.4077C35.688 76.256 35.712 76.112 35.776 75.9757C35.792 75.92 35.824 75.872 35.864 75.8317C35.904 75.792 35.96 75.76 36.016 75.7357C36.056 75.7197 36.096 75.728 36.128 75.7357C36.168 75.7517 36.192 75.776 36.208 75.808C36.24 75.856 36.208 75.888 36.24 75.8957C36.272 75.8957 36.28 75.8637 36.24 75.792C36.224 75.7517 36.2 75.712 36.16 75.6877C36.112 75.664 36.056 75.6557 36.008 75.664C35.928 75.68 35.856 75.712 35.8 75.7677C35.744 75.8157 35.696 75.8797 35.672 75.9437C35.6 76.1037 35.56 76.2797 35.576 76.448C35.576 76.5997 35.616 76.7597 35.712 76.8877C35.8 77.0157 35.936 77.12 36.088 77.184C36.136 77.1917 36.192 77.2 36.248 77.184C36.304 77.168 36.352 77.152 36.392 77.1277C36.44 77.0637 36.464 77.024 36.44 77.024L36.432 77.0157Z" fill="#ED7A13"/>
<path d="M35.648 69.76C35.624 69.712 35.944 69.584 36.328 69.696C36.72 69.808 36.896 70.0877 36.848 70.0877C36.8 70.0877 36.584 69.9597 36.264 69.872C35.944 69.7837 35.664 69.8317 35.648 69.76Z" fill="#916515"/>
<path d="M36.7359 68.6803C36.8079 68.6803 36.8079 69.0483 36.8959 69.4643C36.9839 69.8803 37.1919 70.1843 37.1439 70.2163C37.0959 70.2483 36.7759 69.9763 36.6799 69.504C36.5919 69.232 36.6079 68.9363 36.7439 68.672L36.7359 68.6803Z" fill="#916515"/>
<path d="M44.9201 74.3443C44.8561 74.2483 45.2081 73.952 45.7841 73.952C46.3601 73.952 46.7201 74.1843 46.6481 74.288C46.5761 74.384 46.2161 74.3437 45.7841 74.3597C45.3521 74.3757 44.9841 74.448 44.9201 74.3443Z" fill="#916515"/>
<path d="M39.28 71.232C39.864 71.568 40.416 71.952 40.936 72.368C41.464 72.784 42.144 73.008 42.848 73.008L42.68 72.7123C43.688 73.0803 44.752 73.312 45.84 73.408C46.032 73.4483 46.24 73.4483 46.432 73.408C46.624 73.36 46.808 73.2723 46.952 73.1443C47.2 72.848 46.856 72.32 46.816 71.776C46.784 71.3843 46.632 71.28 46.224 71.136C46.032 71.088 45.832 71.072 45.64 71.088C44.128 71.1443 42.616 71.0643 41.112 70.864C40.76 70.8 40.408 70.7763 40.048 70.7923C39.872 70.7923 39.696 70.832 39.536 70.9043C39.376 70.9683 39.232 71.072 39.12 71.184" fill="#916515"/>
<path d="M44.1921 78.432C44.1281 78.3917 44.0561 78.368 43.9761 78.368C43.8961 78.368 43.8241 78.3917 43.7601 78.432C43.6961 78.464 43.6481 78.5197 43.6161 78.576C43.5841 78.6317 43.5601 78.6957 43.5681 78.768C43.5681 78.9037 43.6241 79.0317 43.7201 79.1277C43.7921 79.2077 43.8961 79.2717 44.0161 79.296C44.1121 79.312 44.2081 79.3037 44.2961 79.2717C44.3841 79.2397 44.4641 79.1757 44.5121 79.104C44.5601 79.0317 44.5921 78.944 44.5921 78.8557C44.5921 78.768 44.5681 78.6797 44.5121 78.608C44.4561 78.5357 44.3841 78.4717 44.2961 78.432C44.2081 78.3917 44.1121 78.3757 44.0161 78.3757" fill="#ED7A13"/>
<path d="M45.16 78.928C45.16 78.928 45.048 79.024 44.832 79.0317C44.552 79.0317 44.28 78.9837 44.024 78.88C43.424 78.6637 43.048 78.2957 43.112 78.2477C43.176 78.1997 43.544 78.4877 44.104 78.688C44.336 78.784 44.584 78.848 44.832 78.8877C45.024 78.912 45.144 78.9037 45.152 78.928H45.16Z" fill="#916515"/>
<path d="M42.536 74.304C42.488 74.3437 42.4 74.3283 42.28 74.3443C42.16 74.3603 41.976 74.4 41.728 74.416C41.256 74.4557 40.864 74.416 40.864 74.2803C40.864 74.144 41.224 74.048 41.704 74.0083C41.92 73.9763 42.152 74 42.36 74.0563C42.544 74.1363 42.584 74.272 42.536 74.2963L42.536 74.304Z" fill="#916515"/>
<path d="M37.9841 72.3437C38.0161 73.7357 38.3201 75.12 38.3361 76.5037C38.3521 77.8957 38.0481 79.3677 37.0401 80.432C36.7121 80.832 36.2241 81.088 35.6801 81.1597C35.5281 81.184 35.3681 81.1597 35.2241 81.0957C35.0801 81.0317 34.9681 80.9357 34.8961 80.8077C34.8321 80.592 34.8641 80.3597 34.9841 80.16C35.3281 79.5277 35.7281 78.912 36.1681 78.3277C36.6081 77.744 36.8881 77.072 36.9681 76.368C36.9601 75.8477 36.8801 75.328 36.7281 74.832C36.5761 74.3277 36.5521 73.7997 36.6641 73.2877C36.7201 73.0317 36.8641 72.8 37.0641 72.6157C37.2641 72.432 37.5201 72.304 37.8001 72.2477" fill="#916515"/>
<path d="M41.56 71.2C46.592 70.704 47.552 71.5117 47.6 71.552C47.736 71.424 47.824 71.2717 47.856 71.104C48.04 69.7677 46.232 69.3677 46.232 69.3677C45.104 64.6797 40.48 65.1597 40.48 65.1597V65.1277C40.44 64.928 40.312 64.7597 40.128 64.64C39.944 64.528 39.72 64.4877 39.504 64.5197L38.784 64.6477C38.568 64.688 38.376 64.8 38.256 64.9677C38.136 65.136 38.088 65.3357 38.128 65.536C32.704 67.184 34.504 71.7517 34.504 71.7517L33.712 72.624C33.008 73.9277 34.536 74.32 34.536 74.32C34.536 74.32 36.408 71.728 41.568 71.2077L41.56 71.2Z" fill="#ED750E"/>
<g opacity="0.2">
<path d="M39.264 70.432C38.304 70.7443 37.368 71.1123 36.456 71.52C35.576 72 34.736 72.5203 33.928 73.088C34.096 72.8563 34.312 72.656 34.552 72.4883C35.656 71.6083 36.968 70.96 38.376 70.592C38.656 70.4877 38.96 70.432 39.264 70.4237V70.432Z" fill="white"/>
</g>
<g opacity="0.2">
<path d="M34.96 71.072C34.816 71.104 34.568 70.784 34.472 70.192C34.376 69.408 34.536 68.608 34.944 67.904C35.352 67.2 35.984 66.6323 36.752 66.2643C37.352 66 37.776 66 37.832 66.128C37.952 66.3923 36.688 67.056 35.936 68.384C35.184 69.712 35.28 71.0157 34.968 71.072H34.96Z" fill="white"/>
</g>
<path d="M31.2559 116.224L51.6159 117.896C51.6479 116.624 51.2239 108.888 50.9759 103.808C50.9279 102.848 51.9759 101.176 51.9359 100.368C51.8319 98.368 51.5039 98.288 51.5039 98.288L52.6639 100.256L58.7039 95.36L53.4319 88.8717C52.5999 87.856 51.5599 86.992 50.3599 86.352C49.1599 85.712 47.8319 85.2883 46.4559 85.1123C45.6399 85.0163 45.0159 84.96 44.6079 84.912C42.2799 85.584 39.7839 85.584 37.4559 84.912C36.4479 84.944 35.4479 85.12 34.4959 85.4323C32.6959 86.0083 31.0719 86.9677 29.7519 88.2157L21.1279 97.4643L29.1039 102.16L32.1759 99.216L32.5759 106.864L31.2639 116.224L31.2559 116.224Z" fill="#FEEADA"/>
<path d="M50.144 95.12C50.144 95.1757 47.128 95.2237 43.44 95.2237C39.752 95.2237 36.736 95.1757 36.736 95.12C36.736 95.0637 39.736 95.0157 43.44 95.0157C47.144 95.0157 50.144 95.056 50.144 95.12Z" fill="white"/>
<path d="M49.696 93.136C48.4 93.2717 47.088 93.2717 45.792 93.136C47.088 92.9997 48.4 92.9997 49.696 93.136Z" fill="white"/>
<path d="M35.1359 95.9277C34.8959 96.272 34.6159 96.592 34.3119 96.8877C33.7839 97.4637 33.0159 98.2477 32.1999 99.1117C31.3839 99.9757 30.6079 100.744 30.0399 101.296C29.7519 101.608 29.4399 101.896 29.0959 102.16C29.3439 101.824 29.6159 101.504 29.9199 101.2C30.4559 100.624 31.2159 99.8318 32.0319 98.9678C32.8479 98.1038 33.6239 97.3358 34.1919 96.784C34.4799 96.4718 34.7919 96.1837 35.1359 95.92V95.9277Z" fill="#916515"/>
<path d="M22.864 104.544C23.224 104.744 23.544 104.992 23.816 105.28C24.144 105.52 24.4 105.832 24.576 106.184C24.232 105.968 23.928 105.712 23.656 105.424C23.328 105.184 23.064 104.88 22.864 104.544Z" fill="#ED7A13"/>
<path d="M36.472 117.32L37.624 97.184H50.288L51.224 118.528L36.464 117.32H36.472Z" fill="#916515"/>
<path d="M48.512 102.4C48.512 102.4 48.416 102.488 48.216 102.608C47.944 102.784 47.656 102.944 47.352 103.088C45.352 104.056 43.096 104.488 40.832 104.328C40.496 104.304 40.16 104.256 39.824 104.2C39.696 104.192 39.576 104.16 39.464 104.112C39.464 104.08 39.992 104.152 40.848 104.184C41.952 104.224 43.064 104.136 44.144 103.944C45.224 103.736 46.28 103.416 47.28 102.984C48.048 102.632 48.504 102.368 48.504 102.4H48.512Z" fill="#F5AA2B"/>
<path d="M39.648 105.344C39.584 105.344 39.52 105.216 39.512 105.056C39.504 104.896 39.544 104.768 39.6 104.752C39.664 104.744 39.72 104.872 39.736 105.04C39.752 105.208 39.704 105.344 39.648 105.344Z" fill="#F5AA2B"/>
<path d="M39.304 107.552C39.24 107.552 39.24 107.296 39.304 106.984C39.368 106.68 39.456 106.44 39.52 106.448C39.584 106.456 39.584 106.712 39.52 107.016C39.456 107.32 39.368 107.56 39.304 107.552Z" fill="#F5AA2B"/>
<path d="M39.6 109.736C39.552 109.768 39.36 109.56 39.264 109.248C39.168 108.936 39.2 108.672 39.264 108.672C39.328 108.672 39.392 108.904 39.48 109.192C39.568 109.48 39.656 109.712 39.6 109.736Z" fill="#F5AA2B"/>
<path d="M41.664 110.736C41.664 110.792 41.376 110.832 41.032 110.776C40.68 110.72 40.44 110.552 40.472 110.504C40.504 110.456 40.76 110.52 41.072 110.576C41.392 110.624 41.664 110.68 41.664 110.736Z" fill="#F5AA2B"/>
<path d="M44.1201 110.712C44.1201 110.768 43.8401 110.816 43.5041 110.824C43.1681 110.824 42.8881 110.784 42.8881 110.728C42.8881 110.672 43.1601 110.624 43.5041 110.616C43.8401 110.616 44.1201 110.648 44.1201 110.712Z" fill="#F5AA2B"/>
<path d="M46.5681 110.68C46.5681 110.736 46.2961 110.792 45.9521 110.792C45.6081 110.792 45.3361 110.752 45.3361 110.696C45.3361 110.64 45.6161 110.592 45.9521 110.584C46.2961 110.584 46.5681 110.608 46.5681 110.672V110.68Z" fill="#F5AA2B"/>
<path d="M48.568 109.672C48.616 109.672 48.592 109.96 48.352 110.224C48.112 110.48 47.792 110.536 47.776 110.488C47.76 110.44 47.984 110.304 48.184 110.096C48.384 109.888 48.512 109.656 48.576 109.68L48.568 109.672Z" fill="#F5AA2B"/>
<path d="M49.016 107.472C49.08 107.472 49.088 107.736 49.04 108.04C48.992 108.344 48.896 108.584 48.84 108.576C48.776 108.568 48.768 108.312 48.816 108.008C48.864 107.704 48.944 107.472 49.016 107.472Z" fill="#F5AA2B"/>
<path d="M49.264 105.256C49.328 105.256 49.352 105.512 49.328 105.824C49.304 106.136 49.224 106.376 49.168 106.368C49.104 106.368 49.08 106.112 49.104 105.8C49.128 105.496 49.2 105.248 49.264 105.256Z" fill="#F5AA2B"/>
<path d="M49.344 103.544C49.408 103.544 49.448 103.68 49.448 103.84C49.448 104 49.384 104.136 49.328 104.128C49.264 104.128 49.224 103.992 49.224 103.832C49.224 103.672 49.28 103.536 49.344 103.536V103.544Z" fill="#F5AA2B"/>
<path d="M33.72 85.712C33.72 85.712 38.856 86.9357 38.936 97.9117H41C41 97.9117 41.544 88.6957 35.96 85.072C35.96 85.072 34.344 84.72 33.72 85.7037V85.712Z" fill="#916515"/>
<path d="M44.576 84.928C44.576 84.928 48.224 86.496 48.312 97.4963H50.0641C50.0641 97.4963 50.216 87.216 46.768 85.1917C46.448 84.9997 46.0881 84.8723 45.7041 84.8243C45.3201 84.7763 44.936 84.816 44.576 84.928Z" fill="#916515"/>
<path d="M40.992 97.072C41.088 97.264 41.136 97.4803 41.12 97.696C41.12 97.9443 41.048 98.176 40.896 98.3763C40.792 98.496 40.656 98.5843 40.512 98.6483C40.368 98.7123 40.2 98.7443 40.032 98.7443C39.864 98.7603 39.696 98.7443 39.536 98.6803C39.376 98.624 39.24 98.5363 39.12 98.4243C38.952 98.2323 38.856 98 38.848 97.76C38.824 97.5443 38.848 97.328 38.936 97.1283C38.976 97.328 39 97.536 39.008 97.744C39.032 97.952 39.128 98.144 39.272 98.304C39.48 98.464 39.744 98.544 40.016 98.5363C40.288 98.528 40.544 98.4243 40.736 98.256C40.872 98.0883 40.952 97.888 40.968 97.68C40.952 97.472 40.968 97.2723 40.984 97.0643L40.992 97.072Z" fill="#F5AA2B"/>
<path d="M39.968 97.3997C39.968 97.3997 40.08 97.312 40.24 97.3997C40.288 97.4317 40.32 97.4797 40.344 97.5277C40.368 97.5757 40.368 97.632 40.36 97.6877C40.344 97.7517 40.312 97.8157 40.256 97.8637C40.2 97.9117 40.136 97.9437 40.064 97.952C39.992 97.9597 39.912 97.952 39.848 97.92C39.784 97.888 39.728 97.84 39.688 97.7837C39.656 97.7357 39.64 97.6877 39.64 97.632C39.64 97.5757 39.656 97.5277 39.688 97.4797C39.8 97.3357 39.944 97.36 39.936 97.3837C39.928 97.408 39.864 97.4477 39.832 97.552C39.832 97.5757 39.824 97.6 39.832 97.6237C39.832 97.648 39.848 97.6717 39.864 97.6877C39.88 97.712 39.912 97.728 39.936 97.7357C39.968 97.7517 39.992 97.7517 40.024 97.7517C40.056 97.7517 40.08 97.728 40.104 97.712C40.128 97.696 40.144 97.6717 40.152 97.6397C40.16 97.616 40.16 97.5917 40.152 97.568C40.152 97.5437 40.136 97.52 40.12 97.504C40.072 97.44 39.976 97.4317 39.976 97.3997H39.968Z" fill="#F5AA2B"/>
<path d="M50.1039 97.0643C50.1039 97.0643 50.2319 97.2563 50.2079 97.6C50.1919 97.808 50.1199 98 49.992 98.176C49.912 98.2803 49.808 98.3763 49.688 98.4403C49.568 98.5043 49.4319 98.5523 49.2879 98.5683C49.1439 98.592 48.992 98.5683 48.856 98.5203C48.7199 98.4723 48.5999 98.3923 48.5119 98.2803C48.3919 98.1203 48.3039 97.9443 48.2719 97.7523C48.2399 97.5603 48.2479 97.3683 48.3119 97.1763C48.3519 97.1763 48.3599 97.376 48.4319 97.6883C48.4639 97.8643 48.552 98.0243 48.672 98.16C48.744 98.2323 48.832 98.2963 48.936 98.3283C49.04 98.3603 49.152 98.3763 49.264 98.3603C49.376 98.3443 49.4799 98.304 49.5839 98.256C49.6799 98.2003 49.7679 98.128 49.8319 98.048C49.9439 97.904 50.0239 97.7363 50.0559 97.568C50.1199 97.2563 50.0799 97.072 50.112 97.0643H50.1039Z" fill="#F5AA2B"/>
<path d="M49.128 97.3357C49.128 97.3357 49.184 97.216 49.376 97.2397C49.432 97.248 49.488 97.2717 49.528 97.3037C49.576 97.3357 49.608 97.3837 49.624 97.4317C49.648 97.4957 49.648 97.5597 49.624 97.6237C49.608 97.6877 49.56 97.744 49.504 97.7837C49.448 97.824 49.376 97.8477 49.296 97.8477C49.216 97.8477 49.152 97.824 49.088 97.7837C49.04 97.7517 49 97.712 48.976 97.664C48.952 97.616 48.944 97.5597 48.952 97.504C48.992 97.328 49.136 97.3037 49.136 97.328C49.136 97.3517 49.096 97.4157 49.112 97.504C49.112 97.5277 49.12 97.552 49.136 97.568C49.152 97.584 49.168 97.6 49.192 97.616C49.216 97.632 49.248 97.6397 49.28 97.6397C49.312 97.6397 49.336 97.6397 49.368 97.616C49.392 97.6 49.408 97.5757 49.416 97.5437C49.424 97.52 49.424 97.488 49.416 97.4637C49.416 97.44 49.4 97.4158 49.384 97.3998C49.368 97.3838 49.344 97.3677 49.32 97.3518C49.224 97.3121 49.136 97.3357 49.12 97.312L49.128 97.3357Z" fill="#F5AA2B"/>
<path d="M43.7365 161.991H50.3553L51.456 160.08L45.312 157.072L42.728 161.432L43.096 161.64C43.2585 161.73 43.4832 161.853 43.7365 161.991Z" fill="#FAD27D"/>
<path d="M38.578 161.991L56.456 112.816L69.9788 161.991H74.7465L58.888 104.68H55.04L34.3583 161.991H38.578Z" fill="#916515"/>
<path d="M54.4928 161.991L67.6236 113L85.3756 161.991H90.6341L69.5839 104.68H64.9919H64.9842L48.9315 161.991H54.4928Z" fill="#F5AA2B"/>
<path d="M42.712 161.28H42.704L42.7144 161.282L42.712 161.28Z" fill="#916515"/>
<path d="M43.104 161.512L44.0366 161.992H44.1688L43.112 161.448L42.808 161.296L42.7144 161.282L42.808 161.344L43.104 161.512Z" fill="#916515"/>
<path d="M38.2054 161.991L44.104 125.112L43.968 117.312L31.232 115.312L26.729 161.991H38.2054Z" fill="#916515"/>
<path d="M42.608 158.104L50.6633 161.992H52.9568L64.528 140.256C64.8237 139.824 64.976 139.32 64.976 138.808C64.976 138.296 64.8237 137.8 64.528 137.36L51.592 117.896V117.88H39.968L39.448 123.664L52.184 137.712C52.52 138.136 52.728 138.632 52.768 139.152C52.808 139.672 52.688 140.192 52.424 140.656L42.608 158.104Z" fill="#916515"/>
<path d="M44.9264 161.992C44.9323 161.97 44.9422 161.955 44.944 161.928C44.952 161.808 44.896 161.72 44.872 161.72C44.872 161.72 44.872 161.816 44.848 161.92C44.8417 161.947 44.8406 161.968 44.8369 161.992H44.9264Z" fill="#916515"/>
<path d="M44.968 160.888C45.128 161.232 45.176 161.616 45.112 161.984C45.1115 161.987 45.1105 161.989 45.11 161.992H45.176C45.256 161.608 45.216 161.216 45.048 160.856C44.872 160.496 44.592 160.192 44.232 159.984C44.12 159.92 44.008 159.872 43.888 159.824C43.848 159.808 43.808 159.792 43.768 159.792H43.76C43.76 159.792 43.944 159.864 44.192 160.032C44.528 160.248 44.8 160.544 44.968 160.888Z" fill="#916515"/>
<path d="M19.056 109.76C17.976 108.632 17.384 107.184 17.392 105.688C17.392 104.192 18 102.752 19.088 101.624L22.488 98.288L28.624 101.88C28.432 102 24.392 105.984 24.392 105.984L31.472 114.016C32.016 114.624 32.376 115.344 32.528 116.112C32.68 116.88 32.616 117.672 32.336 118.416L31.128 122.912L25.232 120.52L25.624 119.968H29.504L29.736 119.12L19.072 109.76H19.056Z" fill="#F8B64C"/>
<path d="M36.648 118.168C36.632 118.424 36.552 118.664 36.416 118.88C36.12 119.432 35.664 119.896 35.088 120.224C34.512 120.552 33.856 120.72 33.176 120.712C32.896 120.728 32.624 120.68 32.368 120.584C32.368 120.552 32.68 120.584 33.168 120.584C33.8 120.544 34.416 120.36 34.96 120.064C35.496 119.752 35.936 119.328 36.256 118.832C36.52 118.432 36.608 118.152 36.648 118.168Z" fill="#F5AA2B"/>
<path d="M53.608 161.528C53.456 161.496 53.312 161.456 53.176 161.392C52.904 161.296 52.504 161.144 52.024 160.944C51.056 160.552 49.736 159.952 48.32 159.232C46.904 158.512 45.664 157.792 44.784 157.264C44.352 156.992 43.992 156.768 43.752 156.608C43.512 156.448 43.384 156.352 43.4 156.336C43.544 156.392 43.68 156.456 43.808 156.544L44.872 157.152C45.768 157.664 47.032 158.36 48.432 159.08C49.84 159.8 51.144 160.408 52.096 160.84L53.224 161.352C53.36 161.4 53.496 161.464 53.616 161.544L53.608 161.528Z" fill="#F5AA2B"/>
<path d="M36.984 159.384C37.048 159.384 37.056 159.656 37.008 159.984C36.96 160.304 36.872 160.56 36.816 160.552C36.752 160.552 36.744 160.28 36.784 159.952C36.824 159.632 36.92 159.376 36.984 159.384Z" fill="#F5AA2B"/>
<path d="M37.32 157.056C37.384 157.056 37.392 157.328 37.344 157.656C37.296 157.976 37.208 158.232 37.144 158.224C37.08 158.224 37.072 157.952 37.12 157.624C37.168 157.304 37.256 157.048 37.32 157.056Z" fill="#F5AA2B"/>
<path d="M37.672 154.72C37.736 154.72 37.744 154.992 37.696 155.32C37.648 155.64 37.56 155.896 37.496 155.888C37.432 155.888 37.424 155.616 37.472 155.288C37.52 154.968 37.608 154.712 37.672 154.72Z" fill="#F5AA2B"/>
<path d="M38.0321 152.384C38.0961 152.384 38.1041 152.656 38.0321 152.984C37.9601 153.304 37.896 153.56 37.832 153.552C37.768 153.552 37.76 153.28 37.832 152.952C37.904 152.632 37.9681 152.376 38.0321 152.384Z" fill="#F5AA2B"/>
<path d="M38.4 150.056C38.464 150.056 38.472 150.328 38.4 150.656C38.328 150.976 38.256 151.232 38.2 151.224C38.136 151.224 38.128 150.952 38.2 150.624C38.272 150.304 38.336 150.048 38.4 150.056Z" fill="#F5AA2B"/>
<path d="M38.768 147.72C38.832 147.72 38.84 147.992 38.768 148.32C38.696 148.64 38.624 148.896 38.568 148.888C38.504 148.88 38.496 148.616 38.568 148.288C38.64 147.968 38.712 147.712 38.768 147.72Z" fill="#F5AA2B"/>
<path d="M39.152 145.392C39.216 145.392 39.224 145.664 39.152 145.992C39.08 146.312 39.008 146.568 38.944 146.56C38.88 146.56 38.88 146.288 38.944 145.96C39.008 145.64 39.088 145.384 39.152 145.392Z" fill="#F5AA2B"/>
<path d="M39.544 143.064C39.608 143.064 39.616 143.336 39.544 143.664C39.472 143.984 39.4 144.24 39.336 144.232C39.272 144.232 39.264 143.96 39.336 143.632C39.408 143.312 39.48 143.056 39.544 143.064Z" fill="#F5AA2B"/>
<path d="M39.944 140.736C40.008 140.736 40.008 141.016 39.944 141.336C39.88 141.656 39.792 141.912 39.736 141.904C39.672 141.904 39.672 141.624 39.736 141.304C39.8 140.984 39.888 140.728 39.944 140.736Z" fill="#F5AA2B"/>
<path d="M40.3439 138.408C40.4079 138.408 40.4079 138.688 40.3439 139.008C40.28 139.328 40.192 139.584 40.128 139.576C40.064 139.568 40.064 139.304 40.128 138.976C40.192 138.656 40.28 138.4 40.3439 138.408Z" fill="#F5AA2B"/>
<path d="M40.744 136.088C40.808 136.088 40.808 136.368 40.744 136.688C40.68 137.008 40.592 137.264 40.528 137.256C40.464 137.248 40.464 136.984 40.528 136.656C40.592 136.336 40.696 136.08 40.744 136.088Z" fill="#F5AA2B"/>
<path d="M41.176 133.768C41.24 133.768 41.24 134.04 41.176 134.368C41.112 134.688 41.024 134.944 40.96 134.928C40.896 134.92 40.896 134.656 40.96 134.328C41.024 134.008 41.12 133.752 41.176 133.768Z" fill="#F5AA2B"/>
<path d="M41.608 131.432C41.672 131.432 41.672 131.712 41.608 132.032C41.544 132.352 41.448 132.6 41.392 132.592C41.328 132.592 41.328 132.32 41.392 131.992C41.456 131.672 41.552 131.424 41.608 131.424V131.432Z" fill="#F5AA2B"/>
<path d="M42.0401 129.12C42.1041 129.12 42.1041 129.4 42.0401 129.72C41.9761 130.04 41.8801 130.296 41.8161 130.288C41.7521 130.28 41.7521 130.008 41.8161 129.688C41.8801 129.368 41.9921 129.112 42.0401 129.12Z" fill="#F5AA2B"/>
<path d="M42.56 126.808C42.624 126.808 42.608 127.088 42.536 127.408C42.464 127.72 42.352 127.976 42.288 127.96C42.224 127.952 42.24 127.688 42.32 127.36C42.4 127.04 42.504 126.792 42.568 126.808H42.56Z" fill="#F5AA2B"/>
<path d="M43.336 124.56C43.392 124.576 43.336 124.84 43.232 125.152C43.128 125.456 42.976 125.696 42.92 125.68C42.864 125.664 42.92 125.4 43.016 125.088C43.112 124.776 43.248 124.544 43.328 124.568L43.336 124.56Z" fill="#F5AA2B"/>
<path d="M44.1279 122.952C44.1839 122.984 44.1599 123.12 44.0799 123.264C43.9919 123.408 43.8879 123.504 43.8319 123.48C43.7839 123.456 43.7999 123.32 43.8799 123.176C43.9599 123.032 44.0799 122.928 44.1279 122.96V122.952Z" fill="#F5AA2B"/>
<path d="M45.056 156.8C45.104 156.832 45.056 156.968 44.968 157.104C44.88 157.24 44.752 157.32 44.696 157.288C44.648 157.256 44.696 157.12 44.776 156.984C44.856 156.848 45 156.76 45.056 156.792V156.8Z" fill="#F5AA2B"/>
<path d="M46.4639 154.824C46.5119 154.856 46.3999 155.096 46.2079 155.376C46.0159 155.648 45.8159 155.848 45.7759 155.816C45.7359 155.784 45.8399 155.536 46.0319 155.264C46.2239 154.992 46.4079 154.792 46.4639 154.824Z" fill="#F5AA2B"/>
<path d="M47.848 152.824C47.896 152.856 47.784 153.104 47.6 153.376C47.408 153.648 47.216 153.848 47.168 153.824C47.12 153.8 47.224 153.552 47.416 153.272C47.608 152.992 47.792 152.8 47.848 152.824Z" fill="#F5AA2B"/>
<path d="M49.184 150.816C49.24 150.848 49.136 151.088 48.944 151.368C48.76 151.648 48.568 151.848 48.512 151.816C48.456 151.784 48.568 151.536 48.752 151.256C48.936 150.976 49.128 150.776 49.176 150.808L49.184 150.816Z" fill="#F5AA2B"/>
<path d="M50.5039 148.784C50.5519 148.808 50.4559 149.064 50.2719 149.344C50.0959 149.624 49.9039 149.832 49.8399 149.8C49.7759 149.776 49.8879 149.52 50.0719 149.24C50.2559 148.96 50.4479 148.752 50.5039 148.784Z" fill="#F5AA2B"/>
<path d="M51.7841 146.752C51.8321 146.776 51.7361 147.032 51.5601 147.32C51.3841 147.608 51.2001 147.808 51.1281 147.776C51.0561 147.744 51.1681 147.496 51.3441 147.216C51.5201 146.936 51.7201 146.712 51.7761 146.752H51.7841Z" fill="#F5AA2B"/>
<path d="M53.0319 144.672C53.0799 144.696 52.9919 144.952 52.8239 145.24C52.6559 145.528 52.4719 145.736 52.4159 145.704C52.3599 145.672 52.4559 145.424 52.6239 145.136C52.7999 144.856 52.9759 144.64 53.0319 144.672Z" fill="#F5AA2B"/>
<path d="M54.24 142.592C54.296 142.616 54.208 142.872 54.04 143.16C53.872 143.448 53.696 143.656 53.64 143.632C53.584 143.608 53.68 143.352 53.84 143.064C54 142.776 54.184 142.568 54.24 142.592Z" fill="#F5AA2B"/>
<path d="M55.208 140.408C55.272 140.408 55.256 140.688 55.136 141.008C55.016 141.32 54.856 141.552 54.8 141.528C54.744 141.504 54.8 141.248 54.928 140.944C55.056 140.64 55.152 140.4 55.216 140.416L55.208 140.408Z" fill="#F5AA2B"/>
<path d="M54.9999 138.112C55.0559 138.088 55.2319 138.32 55.3199 138.64C55.4079 138.968 55.3679 139.248 55.3199 139.248C55.2719 139.248 55.1919 139 55.1119 138.688C55.0239 138.384 54.9519 138.104 55.0079 138.104L54.9999 138.112Z" fill="#F5AA2B"/>
<path d="M53.5279 136.176C53.5679 136.144 53.7919 136.312 54.0239 136.568C54.2559 136.824 54.3919 137.056 54.3439 137.088C54.2959 137.12 54.0719 136.944 53.8479 136.696C53.6239 136.44 53.4799 136.216 53.5279 136.176Z" fill="#F5AA2B"/>
<path d="M51.808 134.408C51.856 134.368 52.088 134.536 52.32 134.784C52.56 135.024 52.712 135.256 52.664 135.296C52.616 135.336 52.384 135.168 52.152 134.904C51.912 134.64 51.76 134.456 51.808 134.416V134.408Z" fill="#F5AA2B"/>
<path d="M50.096 132.648C50.144 132.608 50.376 132.776 50.608 133.024C50.848 133.264 51 133.496 50.952 133.536C50.904 133.576 50.68 133.408 50.44 133.144C50.2 132.88 50.048 132.696 50.096 132.656V132.648Z" fill="#F5AA2B"/>
<path d="M48.376 130.88C48.424 130.84 48.656 131.008 48.888 131.272C49.12 131.536 49.28 131.744 49.232 131.784C49.184 131.824 48.952 131.656 48.72 131.408C48.48 131.168 48.328 130.92 48.376 130.88Z" fill="#F5AA2B"/>
<path d="M46.664 129.12C46.704 129.08 46.944 129.248 47.176 129.496C47.416 129.736 47.568 129.968 47.52 130C47.48 130.032 47.24 129.872 47.008 129.624C46.768 129.384 46.616 129.152 46.664 129.12Z" fill="#F5AA2B"/>
<path d="M44.952 127.352C45 127.312 45.232 127.48 45.464 127.728C45.704 127.968 45.856 128.2 45.808 128.232C45.76 128.264 45.528 128.104 45.296 127.84C45.056 127.576 44.904 127.392 44.952 127.352Z" fill="#F5AA2B"/>
<path d="M43.664 126.032C43.712 126 43.848 126.064 43.96 126.184C44.08 126.304 44.136 126.432 44.088 126.472C44.04 126.512 43.904 126.44 43.792 126.32C43.672 126.2 43.616 126.072 43.664 126.032Z" fill="#F5AA2B"/>
<path d="M39.3441 153.584C39.3441 153.472 39.3601 153.368 39.3841 153.264L39.5601 152.344C39.7121 151.52 39.9281 150.384 40.1921 148.96C40.7121 146.104 41.3761 142.144 42.0641 137.76C42.7521 133.376 43.3201 129.408 43.7041 126.528C43.8881 125.104 44.04 123.944 44.1361 123.12C44.1841 122.728 44.2241 122.424 44.2561 122.192C44.2641 122.088 44.2881 121.976 44.3121 121.872C44.3201 121.984 44.3201 122.088 44.3121 122.2C44.2881 122.432 44.2641 122.744 44.2321 123.128C44.1601 123.936 44.0321 125.096 43.8641 126.544C43.5201 129.432 42.9681 133.408 42.2881 137.792C41.6081 142.176 40.9041 146.128 40.3441 148.984C40.0641 150.416 39.8241 151.568 39.6401 152.36C39.5521 152.752 39.4801 153.04 39.4241 153.272C39.4001 153.376 39.3761 153.48 39.3361 153.584H39.3441Z" fill="#F5AA2B"/>
<path d="M50.576 116.816C50.656 116.896 50.728 116.984 50.792 117.072L51.384 117.832C51.896 118.504 52.616 119.472 53.472 120.688C55.2 123.112 57.456 126.552 60.04 130.288C61.3363 132.16 62.624 133.904 63.8157 135.48C64.432 136.216 64.8717 137.056 65.1117 137.952C65.1917 138.368 65.2 138.792 65.136 139.208C65.0637 139.584 64.9517 139.96 64.7917 140.312C64.5037 140.912 64.16 141.488 63.7677 142.032L62.9037 143.28L62.368 144.064C62.3117 144.16 62.2477 144.256 62.176 144.336C62.2163 144.232 62.272 144.136 62.3283 144.04C62.432 143.848 62.608 143.576 62.832 143.224L63.664 141.96C64.0403 141.408 64.3597 140.832 64.6317 140.232C64.7757 139.88 64.88 139.52 64.944 139.152C64.9997 138.752 64.9837 138.352 64.912 137.952C64.6797 137.08 64.2477 136.264 63.648 135.552C62.4397 133.984 61.144 132.24 59.856 130.368C57.272 126.624 55.048 123.176 53.344 120.728C52.48 119.504 51.8 118.52 51.312 117.84L50.752 117.056C50.68 116.976 50.624 116.896 50.568 116.8L50.576 116.816Z" fill="#F5AA2B"/>
<path d="M153.418 116.745C153.345 116.358 153.356 115.954 153.267 115.574C153.079 114.778 152.881 113.982 152.631 113.202C152.421 112.544 152.134 111.91 151.879 111.265C151.393 110.046 150.689 108.956 149.875 107.936C149.531 107.504 149.124 107.123 148.774 106.694C148.108 105.874 147.297 105.216 146.472 104.577C145.675 103.956 144.81 103.433 143.911 102.977C143.263 102.651 142.608 102.324 141.926 102.095C140.951 101.768 139.968 101.461 138.939 101.296C138.058 101.156 137.18 101.023 136.289 101.004C135.16 100.98 134.04 101.056 132.921 101.247C131.991 101.407 131.081 101.617 130.189 101.919C129.013 102.316 127.893 102.834 126.816 103.46C125.089 104.463 123.61 105.764 122.302 107.259C121.576 108.087 120.97 109.012 120.416 109.97C119.847 110.958 119.371 111.996 119.017 113.073C118.687 114.076 118.386 115.093 118.233 116.153C118.112 116.987 118.066 117.824 118.01 118.655C117.967 119.289 118.072 119.937 118.133 120.573C118.187 121.153 118.238 121.736 118.351 122.307C118.456 122.842 118.641 123.363 118.791 123.889C119.006 124.636 119.275 125.362 119.589 126.077C119.995 127 120.47 127.882 121.026 128.718C121.907 130.037 122.911 131.257 124.123 132.287C124.369 132.498 124.474 132.73 124.474 133.062C124.464 135.96 124.469 138.86 124.469 141.758C124.469 144.498 124.482 147.243 124.461 149.983C124.453 150.871 124.676 151.689 125.17 152.387C126.008 153.569 127.135 154.292 128.637 154.325C129.596 154.344 130.474 154.101 131.247 153.542C132.217 152.843 133.16 152.11 134.113 151.389C134.589 151.03 135.045 150.669 135.706 150.674C136.21 150.674 136.659 150.777 137.054 151.068C138.152 151.877 139.232 152.714 140.336 153.518C141.413 154.3 142.613 154.524 143.905 154.193C145.082 153.89 145.967 153.183 146.575 152.139C147.026 151.365 147.147 150.501 147.147 149.617V139.108C147.147 137.06 147.147 135.013 147.141 132.965C147.141 132.687 147.224 132.485 147.455 132.312C147.703 132.129 147.923 131.902 148.143 131.683C148.943 130.882 149.714 130.056 150.364 129.123C150.952 128.278 151.46 127.393 151.89 126.46C152.158 125.88 152.384 125.281 152.609 124.682C152.741 124.334 152.856 123.975 152.935 123.614C153.09 122.899 153.23 122.178 153.345 121.455C153.437 120.878 153.522 120.295 153.533 119.715C153.552 118.728 153.6 117.734 153.415 116.753L153.418 116.745Z" fill="white"/>
<path d="M153.267 115.574C153.079 114.778 152.881 113.982 152.631 113.202C152.421 112.544 152.134 111.91 151.879 111.265C151.393 110.046 150.689 108.956 149.875 107.936C149.531 107.504 149.124 107.123 148.774 106.694C148.108 105.874 147.297 105.216 146.472 104.577C145.675 103.956 144.81 103.433 143.911 102.977C143.263 102.651 142.608 102.324 141.926 102.095C140.951 101.768 139.968 101.461 138.939 101.296C138.058 101.156 137.18 101.023 136.289 101.004C135.16 100.98 134.04 101.056 132.921 101.247C131.991 101.407 131.081 101.617 130.189 101.919C129.013 102.316 127.893 102.834 126.816 103.46C125.089 104.463 123.61 105.764 122.302 107.259C121.576 108.087 120.97 109.012 120.416 109.97C119.847 110.958 119.371 111.996 119.017 113.073C118.687 114.076 118.386 115.093 118.233 116.153C118.112 116.987 118.066 117.824 118.01 118.655C117.967 119.289 118.072 119.937 118.133 120.573C118.187 121.153 118.238 121.736 118.351 122.307C118.456 122.842 118.641 123.363 118.791 123.889C119.006 124.636 119.275 125.362 119.589 126.077C119.995 127 120.47 127.882 121.026 128.718C121.907 130.037 122.911 131.257 124.123 132.287C124.369 132.498 124.474 132.73 124.474 133.062C124.464 135.96 124.469 138.86 124.469 141.758C124.469 144.498 124.482 147.243 124.461 149.983C124.453 150.871 124.676 151.689 125.17 152.387C126.008 153.569 127.135 154.292 128.637 154.325C129.596 154.344 130.474 154.101 131.247 153.542C132.217 152.843 133.16 152.11 134.113 151.389C134.589 151.03 135.045 150.669 135.706 150.674C136.21 150.674 136.659 150.777 137.054 151.068C138.152 151.877 139.232 152.714 140.336 153.518C141.413 154.3 142.613 154.524 143.905 154.193C145.082 153.89 145.967 153.183 146.575 152.139C147.026 151.365 147.147 150.501 147.147 149.617V139.108C147.147 137.06 147.147 135.013 147.141 132.965C147.141 132.687 147.224 132.485 147.455 132.312C147.703 132.129 147.923 131.902 148.143 131.683C148.943 130.882 149.714 130.056 150.364 129.123C150.952 128.278 151.46 127.393 151.89 126.46C152.158 125.88 152.384 125.281 152.609 124.682C152.741 124.334 152.856 123.975 152.935 123.614C153.09 122.899 153.23 122.178 153.345 121.455C153.437 120.878 153.522 120.295 153.533 119.715C153.552 118.728 153.6 117.734 153.415 116.753C153.342 116.367 153.354 115.962 153.265 115.582L153.267 115.574ZM144.917 149.743C144.917 150.315 144.805 150.857 144.434 151.33C144.069 151.794 143.045 152.239 142.377 152.039C141.821 151.875 141.41 151.519 140.97 151.192C139.963 150.447 138.961 149.695 137.943 148.963C137.524 148.661 137.019 148.564 136.522 148.462C135.802 148.313 135.088 148.381 134.406 148.618C133.995 148.761 133.595 148.98 133.24 149.236C132.292 149.921 131.371 150.647 130.436 151.349C130.031 151.653 129.628 151.95 129.107 152.05C128.46 152.177 127.917 151.988 127.431 151.586C126.894 151.141 126.685 150.548 126.688 149.854C126.695 147.337 126.69 144.817 126.69 142.3H126.693V134.511C126.693 134.184 126.704 134.19 127.002 134.338C127.866 134.764 128.723 135.206 129.61 135.585C130.155 135.816 130.74 135.962 131.317 136.111C132.013 136.289 132.714 136.488 133.423 136.561C134.39 136.661 135.37 136.655 136.345 136.677C136.756 136.688 137.172 136.693 137.578 136.639C138.228 136.556 138.88 136.459 139.514 136.297C140.422 136.065 141.329 135.811 142.21 135.484C142.919 135.223 143.585 134.843 144.27 134.516C144.466 134.422 144.668 134.338 144.869 134.249C144.885 134.454 144.912 134.659 144.912 134.867C144.915 139.826 144.917 144.782 144.912 149.74L144.917 149.743ZM147.184 129.439C144.05 132.849 140.081 134.546 135.486 134.468C131.301 134.398 127.67 132.789 124.737 129.752C121.807 126.713 120.319 123.063 120.317 118.053C120.363 114.878 121.641 111.394 124.241 108.462C126.891 105.475 130.229 103.713 134.221 103.344C138.869 102.912 142.962 104.261 146.397 107.455C149.322 110.172 150.942 113.566 151.264 117.551C151.632 122.1 150.251 126.093 147.182 129.436L147.184 129.439Z" fill="#F6A313"/>
<path d="M137.537 115.331L135.819 111.835L134.1 115.331C133.893 115.749 133.495 116.04 133.036 116.108L129.196 116.669L131.975 119.391C132.308 119.718 132.459 120.187 132.381 120.646L131.726 124.488L135.16 122.675C135.367 122.567 135.593 122.513 135.819 122.513C136.044 122.513 136.27 122.567 136.477 122.675L139.912 124.488L139.256 120.646C139.178 120.185 139.329 119.715 139.662 119.391L142.442 116.669L138.601 116.108C138.142 116.04 137.744 115.752 137.537 115.331Z" fill="#F6A313"/>
<path d="M149.422 117.713C149.137 114.203 147.711 111.217 145.135 108.824C142.109 106.009 138.504 104.822 134.411 105.203C130.896 105.529 127.957 107.081 125.624 109.711C123.333 112.293 122.208 115.361 122.167 118.156C122.167 122.567 123.48 125.783 126.059 128.456C128.64 131.133 131.838 132.547 135.523 132.609C139.57 132.676 143.067 131.184 145.825 128.179C148.53 125.235 149.744 121.72 149.419 117.713H149.422ZM144.432 117.357L141.15 120.571L141.923 125.108C142.014 125.645 141.8 126.177 141.362 126.495C140.924 126.816 140.354 126.857 139.874 126.603L135.819 124.461L131.763 126.603C131.554 126.713 131.328 126.767 131.105 126.767C130.813 126.767 130.525 126.676 130.276 126.495C129.838 126.174 129.623 125.643 129.714 125.108L130.488 120.571L127.205 117.357C126.819 116.977 126.682 116.421 126.849 115.903C127.015 115.385 127.453 115.015 127.99 114.937L132.526 114.276L134.554 110.148C134.792 109.66 135.279 109.358 135.821 109.358C136.364 109.358 136.847 109.66 137.086 110.148L139.114 114.276L143.65 114.937C144.187 115.015 144.622 115.385 144.791 115.903C144.958 116.421 144.821 116.977 144.434 117.357H144.432Z" fill="#F6A313"/>
</svg>
