<svg width="164" height="164" viewBox="0 0 164 164" fill="none" xmlns="http://www.w3.org/2000/svg">
<path d="M149.2 2H14.8C7.73075 2 2 7.73039 2 14.8V149.2C2 156.269 7.73075 162 14.8 162H149.2C156.269 162 162 156.269 162 149.2V14.8C162 7.73039 156.269 2 149.2 2Z" fill="#CECFD0" stroke="#6E6F6F" stroke-width="2.4" stroke-miterlimit="10"/>
<path d="M130.248 161.991L129.848 149.728L132.542 161.991H143.404L138.592 138.792H117.528L118.674 161.991H130.248Z" fill="#343436"/>
<path d="M123.611 48.0544L120.139 42.1344L114.706 42.9104L110.219 37.4064L112.53 31.9024L106.475 27.9504L101.947 32.4224L95.9872 31.3984L93.5704 24.5184L86.3232 25.2704L85.9144 31.2704L80.5145 33.9504L74.8025 29.9904L69.0028 34.1184L72.0191 40.4704L68.5708 45.5584L62.3071 45.2304L60.6668 52.7984L66.6271 55.0385L67.1391 61.3984L60.9628 64.8705L63.9148 71.4305L70.3148 70.4545L74.5311 75.2705L72.3148 81.2472L78.1791 85.3025L82.7464 80.4865L89.0752 82.1665L91.0504 88.5825L98.0832 88.1185L98.9864 82.3585L105.034 78.9593L109.955 82.8225L116.21 78.2545L113.05 72.8705L116.138 67.4625L122.467 67.9192L124.41 60.8784L118.963 57.9984L118.259 51.5825L123.627 48.0625L123.611 48.0544ZM99.0432 68.7744C96.5952 70.1504 93.7864 70.7832 90.9792 70.5912C88.1632 70.4064 85.4752 69.4072 83.2432 67.7184C81.0111 66.0304 79.3388 63.7344 78.4345 61.1264C77.5391 58.5104 77.4508 55.6944 78.1868 53.0304C78.9228 50.3664 80.4505 47.9744 82.5712 46.1584C84.6992 44.3424 87.3224 43.1904 90.1144 42.8304C92.9072 42.4784 95.7552 42.9424 98.2752 44.1664C100.803 45.3904 102.899 47.3264 104.307 49.7184C106.187 52.9264 106.69 56.7344 105.707 60.3104C104.722 63.8864 102.323 66.9264 99.0432 68.7664V68.7744Z" fill="#6E6F6F"/>
<path d="M93.992 62.3624C97.048 61.3064 98.6568 58.0184 97.5688 55.0184C96.488 52.0264 93.128 50.4584 90.0648 51.5144C87.0088 52.5704 85.4 55.8584 86.488 58.8584C87.5688 61.8504 90.9288 63.4184 93.992 62.3624Z" fill="#343436"/>
<path d="M123.024 95.7201C123.024 95.7201 121.56 95.2561 121.544 94.3761C121.528 93.4961 132.52 92.2481 134.624 97.1281C134.624 97.1281 134.192 97.3921 132.512 97.2961" fill="#6E6F6F"/>
<path d="M132.144 109.856L125.44 109.368C125.4 108.656 125.44 105.896 125.44 105.896C125.44 105.896 122.648 105.504 122.616 102.96C122.584 100.416 123.048 94.5841 123.048 94.5841C124.64 93.9601 126.384 93.7361 128.104 93.9361C129.824 94.1361 131.456 94.7521 132.824 95.72L133.256 96.0081L132.144 109.856Z" fill="#BDBDBE"/>
<path d="M123.719 98.968C123.76 98.936 123.799 98.896 123.824 98.856C123.847 98.808 123.863 98.76 123.872 98.712C123.872 98.664 123.872 98.608 123.847 98.56C123.831 98.512 123.8 98.472 123.768 98.432C123.728 98.392 123.687 98.368 123.632 98.344C123.575 98.32 123.527 98.312 123.472 98.312C123.415 98.312 123.36 98.32 123.312 98.336C123.264 98.36 123.216 98.384 123.176 98.424C123.136 98.456 123.104 98.496 123.08 98.536C123.056 98.576 123.048 98.624 123.04 98.672C123.04 98.72 123.04 98.768 123.064 98.816C123.08 98.864 123.111 98.904 123.143 98.936C123.175 98.968 123.223 99 123.271 99.024C123.319 99.048 123.367 99.056 123.424 99.064C123.479 99.064 123.527 99.064 123.584 99.04C123.632 99.024 123.68 99 123.719 98.968Z" fill="#343436"/>
<path d="M123.048 98.3841C123.088 98.424 123.368 98.2321 123.752 98.2321C124.136 98.2321 124.416 98.416 124.456 98.368C124.496 98.32 124.432 98.272 124.312 98.1841C124.144 98.0801 123.952 98.024 123.744 98.024C123.544 98.024 123.352 98.088 123.184 98.2C123.088 98.288 123.024 98.368 123.04 98.3841H123.048Z" fill="#343436"/>
<path d="M127.472 98.6881C127.4 98.7281 127.352 98.7841 127.312 98.8481C127.28 98.9121 127.264 98.9921 127.28 99.0641C127.288 99.1361 127.328 99.2001 127.384 99.2561C127.44 99.3121 127.512 99.3441 127.584 99.3681C127.664 99.3841 127.744 99.3841 127.817 99.3521C127.888 99.3281 127.96 99.2801 128.008 99.2241C128.056 99.1681 128.08 99.0961 128.089 99.0241C128.089 98.9521 128.072 98.8801 128.032 98.8161C127.976 98.7361 127.888 98.6721 127.784 98.6481C127.68 98.6241 127.568 98.6481 127.481 98.6961L127.472 98.6881Z" fill="#343436"/>
<path d="M127.216 98.696C127.256 98.736 127.536 98.544 127.92 98.544C128.304 98.544 128.584 98.72 128.624 98.68C128.664 98.64 128.624 98.576 128.48 98.496C128.312 98.384 128.12 98.328 127.92 98.328C127.72 98.328 127.52 98.384 127.36 98.496C127.24 98.592 127.2 98.68 127.224 98.696H127.216Z" fill="#343436"/>
<path d="M125.68 101.584C125.48 101.512 125.272 101.472 125.056 101.464C124.952 101.464 124.872 101.432 124.864 101.384C124.864 101.296 124.888 101.2 124.936 101.12L125.24 100.408C125.528 99.808 125.744 99.176 125.896 98.536C125.544 99.104 125.256 99.712 125.032 100.336L124.744 101.056C124.68 101.176 124.664 101.32 124.696 101.448C124.712 101.48 124.736 101.512 124.76 101.536C124.792 101.56 124.824 101.584 124.864 101.592H125.04C125.248 101.624 125.464 101.616 125.672 101.584H125.68Z" fill="#343436"/>
<path d="M126.928 101.968C126.328 102.216 125.696 102.384 125.04 102.464C125.168 102.648 125.36 102.792 125.592 102.864C125.816 102.936 126.071 102.936 126.295 102.864C127.127 102.576 126.928 101.976 126.928 101.976V101.968Z" fill="white"/>
<path d="M125.447 105.88C126.736 105.904 128 105.576 129.079 104.936C129.079 104.936 128.215 106.768 125.44 106.536V105.88H125.447Z" fill="#9B9D9C"/>
<path d="M123.024 95.24C123.024 95.24 124.656 96.1041 126.944 95.24C128.448 94.6801 130.16 94.4561 130.504 94.7601C130.856 95.064 130.823 96.416 132.231 96.9041C132.231 96.9041 131.928 99.488 133.064 99.472C134.2 99.4561 133.824 95.392 133.824 95.392L131.152 93.976L128.176 93.248L125.296 93.424L123.047 93.816V95.2321L123.024 95.24Z" fill="#343436"/>
<path d="M132.896 98.64C132.944 98.624 134.808 98.12 134.752 99.864C134.688 101.608 132.792 101.184 132.784 101.136C132.784 101.088 132.896 98.64 132.896 98.64Z" fill="#BDBDBE"/>
<path d="M133.392 100.488C133.392 100.488 133.424 100.488 133.479 100.536C133.559 100.568 133.648 100.568 133.728 100.536C133.856 100.464 133.959 100.368 134.023 100.256C134.096 100.144 134.128 100.008 134.128 99.8799C134.144 99.7279 134.112 99.5759 134.048 99.4399C134.032 99.3839 134 99.3359 133.959 99.2959C133.92 99.2559 133.863 99.2239 133.808 99.2079C133.767 99.1999 133.728 99.1999 133.696 99.2079C133.655 99.2239 133.632 99.2479 133.616 99.2799C133.591 99.3279 133.616 99.3599 133.591 99.3679C133.568 99.3679 133.552 99.3359 133.568 99.2639C133.584 99.2239 133.607 99.184 133.648 99.16C133.703 99.128 133.767 99.112 133.831 99.12C133.911 99.136 133.984 99.1679 134.039 99.2159C134.096 99.2639 134.144 99.328 134.168 99.4C134.248 99.552 134.279 99.7199 134.263 99.8879C134.263 100.04 134.224 100.2 134.135 100.328C134.048 100.456 133.911 100.56 133.76 100.624C133.712 100.632 133.655 100.64 133.6 100.624C133.543 100.616 133.496 100.592 133.456 100.568C133.4 100.536 133.383 100.496 133.399 100.496L133.392 100.488Z" fill="#9B9D9C"/>
<path d="M134.192 93.2561C134.192 93.3121 133.896 93.2881 133.576 93.3841C133.256 93.4801 133.04 93.64 132.992 93.6001C132.944 93.5601 133.12 93.3041 133.512 93.2081C133.904 93.1121 134.216 93.2081 134.192 93.2561Z" fill="#343436"/>
<path d="M133.104 92.152C133.232 92.416 133.256 92.704 133.16 92.984C133.056 93.456 132.728 93.736 132.688 93.696C132.648 93.656 132.856 93.36 132.936 92.944C133.024 92.52 133.024 92.16 133.096 92.16L133.104 92.152Z" fill="#343436"/>
<path d="M124.912 97.8161C124.848 97.9201 124.48 97.8161 124.048 97.8161C123.616 97.8161 123.24 97.8481 123.184 97.7441C123.128 97.6401 123.512 97.3841 124.048 97.4081C124.584 97.4321 124.976 97.7201 124.912 97.8161Z" fill="#343436"/>
<path d="M129.192 97.8161C129.136 97.9201 128.76 97.8161 128.328 97.8161C127.896 97.8161 127.52 97.8481 127.464 97.7441C127.408 97.6401 127.784 97.3841 128.328 97.4081C128.864 97.4321 129.256 97.7201 129.192 97.8161Z" fill="#343436"/>
<path d="M127.576 94.016C122.544 93.52 121.584 94.3281 121.536 94.368C121.408 94.24 121.32 94.088 121.28 93.9121C121.104 92.5601 122.904 92.176 122.904 92.176C124.032 87.488 128.656 87.968 128.656 87.968V87.9361C128.696 87.7361 128.824 87.568 129.008 87.448C129.192 87.3361 129.416 87.296 129.632 87.3281L130.36 87.4561C130.576 87.496 130.768 87.6081 130.896 87.776C131.016 87.944 131.064 88.144 131.024 88.344C136.448 89.992 134.648 94.5601 134.648 94.5601L135.44 95.4321C136.144 96.7281 134.616 97.1281 134.616 97.1281C134.616 97.1281 132.736 94.544 127.584 94.016H127.576Z" fill="#6E6F6F"/>
<g opacity="0.2">
<path d="M129.865 93.2482C130.169 93.2482 130.473 93.3042 130.761 93.4002C132.169 93.7682 133.472 94.4162 134.584 95.2962C134.825 95.4642 135.04 95.6642 135.216 95.8962C134.4 95.3282 133.561 94.8082 132.681 94.3282C131.769 93.9202 130.832 93.5602 129.872 93.2482H129.865Z" fill="white"/>
</g>
<g opacity="0.2">
<path d="M130.68 88.648C130.624 88.624 130.68 88.416 130.608 88.168C130.536 87.92 130.424 87.744 130.472 87.704C130.52 87.664 130.76 87.816 130.824 88.136C130.888 88.456 130.728 88.656 130.672 88.656L130.68 88.648Z" fill="white"/>
</g>
<g opacity="0.2">
<path d="M134.176 93.8801C133.864 93.8241 133.976 92.4961 133.2 91.1761C132.424 89.8641 131.184 89.1761 131.304 88.9201C131.36 88.7921 131.784 88.7921 132.376 89.0561C133.152 89.4241 133.784 89.9921 134.184 90.6961C134.592 91.4001 134.752 92.1921 134.648 92.9841C134.552 93.5921 134.288 93.9121 134.168 93.8801H134.176Z" fill="white"/>
</g>
<path d="M93.912 126.568C93.912 126.568 90.592 125 90.032 124.312C89.464 123.632 89.208 121.12 89.208 121.12L94.864 123.048L93.912 126.568Z" fill="#BDBDBE"/>
<path d="M118.608 120.072C118.416 120.128 114.76 127.56 111.816 127.6C108.88 127.64 93.912 126.56 93.912 126.56L94.84 123.024L109.2 122.608L113.904 116.808L118.608 120.08V120.072Z" fill="#BDBDBE"/>
<path d="M138.616 139.712L117.544 140.8C117.48 138.688 118.344 121.76 118.344 121.76L117.184 123.728L111.144 118.832L116.416 112.344C117.248 111.328 118.288 110.464 119.488 109.824C120.688 109.176 122.016 108.76 123.392 108.584C124.208 108.48 124.832 108.432 125.232 108.384C127.56 109.056 130.056 109.056 132.384 108.384C133.392 108.416 134.392 108.592 135.344 108.904C137.144 109.48 138.768 110.44 140.088 111.688L146.4 121.344L138.752 125.728L137.648 122.688L138.616 139.704V139.712Z" fill="#6E6F6F"/>
<path d="M128.919 158.96C128.983 158.96 129.031 159.224 129.015 159.56C129.008 159.888 128.951 160.16 128.887 160.16C128.823 160.16 128.784 159.888 128.791 159.56C128.791 159.232 128.855 158.944 128.919 158.968V158.96Z" fill="#5C5F5F"/>
<path d="M129 156.544C129.056 156.544 129.096 156.816 129.088 157.144C129.072 157.472 129.016 157.744 128.952 157.736C128.888 157.736 128.848 157.464 128.864 157.136C128.88 156.808 128.936 156.536 129 156.544Z" fill="#5C5F5F"/>
<path d="M129.128 154.16C129.184 154.16 129.224 154.432 129.2 154.76C129.176 155.088 129.112 155.36 129.048 155.352C128.984 155.352 128.952 155.08 128.976 154.744C129 154.416 129.08 154.152 129.128 154.152V154.16Z" fill="#5C5F5F"/>
<path d="M129.368 151.776C129.432 151.776 129.456 152.048 129.416 152.384C129.376 152.712 129.304 152.976 129.24 152.968C129.176 152.96 129.152 152.696 129.192 152.36C129.232 152.032 129.304 151.768 129.36 151.776H129.368Z" fill="#5C5F5F"/>
<path d="M129.616 150.008C129.68 150.008 129.704 150.152 129.68 150.312C129.656 150.472 129.584 150.592 129.528 150.584C129.464 150.584 129.44 150.44 129.464 150.28C129.488 150.112 129.56 150 129.616 150.008Z" fill="#5C5F5F"/>
<path d="M133.367 140.792L132.215 120.656H119.543L117.488 141.36L133.367 140.784V140.792Z" fill="#343436"/>
<path d="M136.12 109.184C136.12 109.184 130.984 110.408 130.904 121.392H128.832C128.832 121.392 128.288 112.176 133.872 108.552C133.872 108.552 135.488 108.2 136.12 109.192V109.184Z" fill="#343436"/>
<path d="M125.241 108.4C125.241 108.4 121.593 109.968 121.513 120.968H119.753C119.753 120.968 119.632 110.672 123.088 108.64C123.401 108.448 123.76 108.328 124.137 108.288C124.512 108.248 124.889 108.288 125.248 108.4H125.241Z" fill="#343436"/>
<path d="M141.752 160.056C141.808 160.056 141.92 160.288 141.984 160.608C142.056 160.92 142.056 161.184 141.984 161.2C141.912 161.216 141.816 160.968 141.752 160.648C141.688 160.336 141.688 160.064 141.752 160.056Z" fill="#5C5F5F"/>
<path d="M141.264 157.783C141.328 157.783 141.432 158.016 141.496 158.336C141.56 158.656 141.568 158.912 141.496 158.928C141.424 158.935 141.328 158.695 141.264 158.375C141.192 158.064 141.2 157.783 141.264 157.783Z" fill="#5C5F5F"/>
<path d="M140.768 155.496C140.832 155.496 140.935 155.728 140.999 156.048C141.072 156.368 141.072 156.624 140.999 156.64C140.928 156.648 140.832 156.408 140.768 156.088C140.704 155.768 140.711 155.504 140.768 155.496Z" fill="#5C5F5F"/>
<path d="M140.28 153.224C140.336 153.224 140.448 153.456 140.512 153.776C140.584 154.088 140.584 154.352 140.512 154.368C140.44 154.376 140.344 154.136 140.28 153.816C140.208 153.504 140.216 153.24 140.28 153.224Z" fill="#5C5F5F"/>
<path d="M139.784 150.944C139.848 150.944 139.952 151.176 140.024 151.496C140.096 151.808 140.096 152.072 140.024 152.088C139.952 152.096 139.856 151.856 139.792 151.536C139.728 151.216 139.728 150.96 139.792 150.944H139.784Z" fill="#5C5F5F"/>
<path d="M139.28 148.672C139.336 148.672 139.448 148.904 139.52 149.224C139.592 149.536 139.6 149.8 139.52 149.808C139.44 149.816 139.352 149.576 139.288 149.264C139.216 148.952 139.224 148.688 139.288 148.672H139.28Z" fill="#5C5F5F"/>
<path d="M138.775 146.392C138.832 146.392 138.944 146.624 139.015 146.936C139.088 147.248 139.095 147.512 139.015 147.528C138.935 147.536 138.848 147.296 138.775 146.984C138.704 146.672 138.711 146.392 138.775 146.392Z" fill="#5C5F5F"/>
<path d="M138.392 144.68C138.448 144.68 138.528 144.792 138.568 144.944C138.608 145.104 138.568 145.24 138.52 145.256C138.472 145.264 138.384 145.144 138.343 144.992C138.311 144.832 138.328 144.696 138.384 144.68H138.392Z" fill="#5C5F5F"/>
<path d="M121.584 120.392C121.671 120.576 121.703 120.775 121.696 120.976C121.703 121.2 121.656 121.424 121.552 121.632C121.488 121.76 121.392 121.88 121.264 121.968C121.144 122.055 120.992 122.12 120.84 122.152C120.68 122.176 120.512 122.151 120.36 122.104C120.208 122.048 120.08 121.96 119.976 121.84C119.816 121.664 119.728 121.44 119.719 121.207C119.719 120.816 119.847 120.616 119.872 120.632C119.895 120.64 119.84 120.864 119.872 121.2C119.895 121.392 119.984 121.575 120.119 121.719C120.199 121.808 120.304 121.872 120.416 121.912C120.528 121.952 120.656 121.968 120.776 121.952C120.896 121.927 121.008 121.88 121.104 121.808C121.2 121.736 121.28 121.656 121.344 121.552C121.44 121.376 121.496 121.184 121.512 120.984C121.56 120.616 121.543 120.392 121.584 120.392Z" fill="#5C5F5F"/>
<path d="M120.672 120.68C120.672 120.68 120.8 120.608 120.952 120.728C121 120.768 121.04 120.824 121.056 120.888C121.072 120.952 121.072 121.016 121.056 121.072C121.032 121.128 121 121.184 120.944 121.224C120.888 121.264 120.824 121.288 120.76 121.296C120.688 121.312 120.608 121.304 120.536 121.28C120.464 121.256 120.408 121.208 120.368 121.144C120.344 121.096 120.328 121.04 120.328 120.992C120.328 120.944 120.344 120.888 120.368 120.84C120.456 120.672 120.608 120.672 120.608 120.704C120.608 120.728 120.536 120.776 120.52 120.888C120.512 120.92 120.512 120.944 120.52 120.976C120.528 121 120.544 121.032 120.568 121.048C120.592 121.072 120.616 121.088 120.648 121.096C120.68 121.104 120.712 121.104 120.744 121.096C120.776 121.096 120.808 121.08 120.832 121.056C120.856 121.032 120.872 121.016 120.888 120.984C120.896 120.96 120.904 120.928 120.896 120.896C120.896 120.864 120.88 120.84 120.864 120.816C120.784 120.72 120.696 120.704 120.696 120.672L120.672 120.68Z" fill="#5C5F5F"/>
<path d="M130.76 120.464C130.84 120.64 130.872 120.824 130.848 121.016C130.848 121.232 130.784 121.44 130.664 121.624C130.592 121.744 130.48 121.84 130.36 121.92C130.232 121.992 130.088 122.032 129.936 122.04C129.792 122.04 129.64 122.024 129.504 121.976C129.368 121.928 129.24 121.856 129.128 121.768C128.96 121.624 128.84 121.432 128.776 121.224C128.672 120.88 128.736 120.664 128.776 120.664C128.816 120.664 128.816 120.88 128.936 121.176C129.008 121.344 129.128 121.504 129.28 121.624C129.464 121.768 129.696 121.84 129.936 121.832C130.048 121.832 130.168 121.8 130.264 121.744C130.36 121.688 130.448 121.616 130.504 121.52C130.608 121.36 130.672 121.184 130.696 121C130.696 120.816 130.712 120.64 130.752 120.464H130.76Z" fill="#5C5F5F"/>
<path d="M129.768 120.68C129.768 120.68 129.88 120.624 129.992 120.736C130.024 120.768 130.048 120.808 130.064 120.848C130.08 120.888 130.08 120.936 130.064 120.976C130.048 121.032 130.008 121.08 129.968 121.12C129.92 121.16 129.864 121.184 129.8 121.192C129.736 121.2 129.672 121.192 129.616 121.168C129.56 121.144 129.504 121.112 129.472 121.064C129.448 121.024 129.432 120.984 129.432 120.936C129.432 120.888 129.432 120.848 129.456 120.808C129.52 120.672 129.648 120.664 129.648 120.696C129.648 120.728 129.616 120.768 129.616 120.848C129.616 120.928 129.664 121.008 129.776 120.992C129.888 120.976 129.912 120.888 129.88 120.808C129.848 120.728 129.784 120.704 129.784 120.672L129.768 120.68Z" fill="#5C5F5F"/>
<path d="M130.279 125.544C130.279 125.544 130.183 125.624 129.984 125.736C129.703 125.888 129.415 126.032 129.12 126.152C128.135 126.568 127.095 126.88 126.023 127.064C124.951 127.248 123.863 127.312 122.768 127.256C122.439 127.232 122.112 127.2 121.792 127.144C121.671 127.136 121.552 127.112 121.44 127.072C121.44 127.04 121.952 127.072 122.784 127.104C123.856 127.12 124.928 127.032 125.984 126.856C127.04 126.672 128.064 126.384 129.056 126.008C129.808 125.736 130.256 125.52 130.272 125.544H130.279Z" fill="#5C5F5F"/>
<path d="M140.288 143.192L117.192 141.368V143.76L140.288 145.552V143.184V143.192Z" fill="#6E6F6F"/>
<path d="M124.488 141.84C124.168 141.848 123.848 141.84 123.528 141.816C122.936 141.784 122.104 141.744 121.128 141.672L121.24 141.568L121.712 143.968L121.744 144.16L121.64 144.08L124.704 144.264L124.608 144.352C124.56 143.616 124.528 143 124.504 142.56C124.488 142.32 124.488 142.08 124.504 141.848C124.56 142.064 124.592 142.288 124.608 142.512C124.664 142.944 124.736 143.584 124.808 144.352V144.448H124.704L121.632 144.304H121.544V144.224L121.504 144.032L121.072 141.624L121.048 141.504H121.176C122.192 141.592 123.04 141.68 123.624 141.744C123.912 141.76 124.2 141.8 124.488 141.848L124.488 141.84Z" fill="#5C5F5F"/>
<path d="M120.071 142.344C120.496 142.264 120.936 142.256 121.368 142.32C121.8 142.32 122.231 142.376 122.64 142.504C122.215 142.584 121.776 142.592 121.344 142.528C120.912 142.528 120.48 142.472 120.071 142.344Z" fill="#343436"/>
<path d="M119.912 143.024C120.368 142.96 120.832 142.968 121.288 143.048C121.752 143.048 122.208 143.128 122.64 143.272C122.184 143.336 121.72 143.328 121.264 143.248C120.8 143.248 120.344 143.168 119.912 143.024Z" fill="#343436"/>
<path d="M94.136 121.136L85.584 118.504L85.248 119.504C85.248 119.504 88.592 124.304 92.488 125.288L94.136 121.144V121.136Z" fill="#5C5F5F"/>
<path d="M119.544 135.08C119.544 135.08 106.344 126.648 105.552 126.392C104.76 126.136 99.08 126.128 97.68 126.264C96.28 126.4 92.2 126.024 92.2 126.024L96.392 115.44L87.496 113.36L87.968 111.912C87.968 111.912 95.128 107.984 99.264 109.112C103.4 110.24 105.344 115.176 106.2 116.4C107.056 117.624 108.928 122 117.76 127.144L122.984 130.32L119.552 135.072L119.544 135.08Z" fill="#5C5F5F"/>
<path d="M105.304 118.04C105.288 118.08 105.272 118.12 105.256 118.16L105.104 118.488L104.512 119.736L102.352 124.24L102.263 124.136C102.768 124.104 103.271 124.104 103.783 124.136C104.336 124.136 104.88 124.248 105.392 124.44C106.376 124.944 107.344 125.56 108.368 126.184C110.416 127.456 112.631 128.864 114.935 130.352C115.207 130.568 115.543 130.712 115.895 130.768C116.151 130.8 116.416 130.776 116.656 130.696C116.904 130.616 117.12 130.488 117.296 130.312C117.472 130.136 117.6 129.928 117.664 129.696C117.728 129.464 117.735 129.224 117.671 129C117.6 128.696 117.424 128.424 117.175 128.216C116.919 128.024 116.608 127.84 116.336 127.664L114.68 126.592L108.976 122.872C108.583 122.616 108.247 122.304 107.959 121.952C107.68 121.624 107.44 121.312 107.216 121.008C106.784 120.408 106.416 119.872 106.135 119.44C105.856 119.008 105.64 118.656 105.504 118.416L105.351 118.152C105.351 118.152 105.32 118.088 105.304 118.056C105.336 118.08 105.351 118.112 105.376 118.144L105.543 118.4L106.216 119.4C106.512 119.832 106.88 120.36 107.328 120.968C107.552 121.264 107.8 121.576 108.08 121.896C108.36 122.24 108.696 122.536 109.08 122.784L114.807 126.472L116.464 127.536C116.752 127.728 117.032 127.888 117.328 128.104C117.623 128.336 117.831 128.656 117.911 129C117.991 129.352 117.952 129.712 117.783 130.04C117.623 130.368 117.344 130.632 116.999 130.808C116.656 130.976 116.256 131.048 115.872 130.992C115.479 130.928 115.111 130.776 114.807 130.536C112.496 129.048 110.288 127.64 108.247 126.36C107.223 125.736 106.247 125.104 105.296 124.616C104.807 124.432 104.295 124.328 103.767 124.32C103.271 124.296 102.775 124.296 102.279 124.32H102.135L102.192 124.2C103.152 122.304 103.92 120.76 104.471 119.68C104.736 119.168 104.935 118.76 105.088 118.472L105.248 118.16C105.28 118.088 105.296 118.048 105.296 118.056L105.304 118.04Z" fill="#343436"/>
<path d="M139.568 144.72C139.28 145.12 138.896 145.464 138.456 145.72C138.016 145.984 137.52 146.16 137 146.24C136.48 146.32 135.952 146.312 135.44 146.2C134.928 146.088 134.448 145.888 134.024 145.6L116.416 133.08L119.544 128.232L138.568 139.84C139.408 140.368 139.984 141.176 140.168 142.088C140.36 143 140.144 143.944 139.576 144.72H139.568Z" fill="#5C5F5F"/>
<path d="M100.904 117.36L99.32 121.872H96.416L98.216 117.376L100.904 117.36Z" fill="#343436"/>
<path d="M96.224 120.88C96.224 120.768 97.184 120.672 98.3592 120.664C99.536 120.656 100.519 120.744 100.519 120.856C100.519 120.968 99.568 121.064 98.384 121.072C97.2 121.072 96.224 120.992 96.224 120.88Z" fill="#343436"/>
<path d="M96.776 119.44C96.776 119.328 97.736 119.232 98.928 119.224C100.128 119.224 101.088 119.304 101.088 119.416C101.088 119.528 100.128 119.624 98.928 119.624C97.728 119.624 96.776 119.544 96.776 119.432V119.44Z" fill="#343436"/>
<path d="M97.12 118.072C97.12 117.96 98.072 117.864 99.256 117.856C100.44 117.856 101.416 117.936 101.416 118.056C101.416 118.176 100.456 118.264 99.28 118.264C98.104 118.264 97.12 118.184 97.12 118.072Z" fill="#343436"/>
<path d="M94.192 120.632C94.064 121.44 93.824 122.232 93.488 122.992C93.216 123.768 92.864 124.512 92.432 125.224C92.664 124.44 92.952 123.664 93.296 122.92C93.768 121.648 94.128 120.624 94.2 120.632H94.192Z" fill="#343436"/>
<path d="M148.984 130.656C149.024 127.696 145.536 121.856 145.536 121.856L139.288 125.432L140.304 127.848L126.328 133.08L122.504 133.24L120.064 136.432L123.2 139.056L131.392 136.992C136.576 136.176 148.928 133.936 148.976 130.656H148.984Z" fill="#BDBDBE"/>
<path d="M45.76 157.783C45.488 158.144 45.248 158.519 45.024 158.903C44.776 159.28 44.56 159.664 44.368 160.064C44.64 159.703 44.88 159.328 45.104 158.944C45.352 158.567 45.568 158.183 45.76 157.783Z" fill="#343436"/>
<path d="M44.7199 160.992V161.168C44.7199 161.264 44.7919 161.328 44.8159 161.32C44.8399 161.32 44.8159 161.232 44.8159 161.144C44.8159 161.056 44.7439 160.984 44.7199 160.992Z" fill="#343436"/>
<path d="M44.2 160.432C44.2 160.432 44.28 160.488 44.344 160.568C44.416 160.64 44.464 160.72 44.48 160.712C44.504 160.712 44.48 160.6 44.408 160.512C44.336 160.424 44.2 160.408 44.2 160.432Z" fill="#343436"/>
<path d="M43.8078 160.104C43.8078 160.104 43.8078 160.16 43.8478 160.208C43.8878 160.248 43.9358 160.272 43.9518 160.264C43.9678 160.256 43.9518 160.2 43.9118 160.16C43.8718 160.12 43.8238 160.088 43.8078 160.112V160.104Z" fill="#343436"/>
<path d="M80.3599 143.112H67.1285V145.96H80.3599V143.112Z" fill="#343436"/>
<path d="M73.7602 123.84H60.5282V126.688H73.7602V123.84Z" fill="#343436"/>
<path d="M56.776 143.688H43.544C42.68 143.688 41.984 144.328 41.984 145.112C41.984 145.904 42.68 146.536 43.544 146.536H56.776C57.64 146.536 58.336 145.904 58.336 145.112C58.336 144.32 57.64 143.688 56.776 143.688Z" fill="#5C5F5F"/>
<path d="M48.3519 125.76C48.3519 126.136 48.5199 126.496 48.8079 126.768C49.1039 127.04 49.4959 127.184 49.9119 127.184H60.0239C60.4399 127.184 60.8319 127.032 61.1279 126.768C61.4239 126.504 61.5839 126.136 61.5839 125.76C61.5839 125.384 61.4163 125.024 61.1279 124.752C60.8319 124.488 60.4399 124.336 60.0239 124.336H49.9119C49.4959 124.336 49.1039 124.488 48.8079 124.752C48.5119 125.016 48.3519 125.384 48.3519 125.76Z" fill="#5C5F5F"/>
<path d="M51.2321 96.608C51.432 96.664 55.08 104.096 58.024 104.136C60.96 104.176 75.936 103.096 75.936 103.096L76.1203 99.12L60.648 99.16L55.944 93.36L51.24 96.616L51.2321 96.608Z" fill="#BDBDBE"/>
<path d="M74.2164 99.6161C74.2164 99.6161 76.7681 98.8721 77.0484 98.5041C77.3281 98.1361 78.4801 96.4241 78.4801 96.4241C78.7201 96.7201 78.8244 97.0881 78.7681 97.4561C78.6881 97.7361 78.5441 98.2401 78.4404 98.6321C78.4244 98.6881 78.4244 98.7441 78.4404 98.8001C78.4564 98.8561 78.4884 98.9041 78.5281 98.9441C78.5684 98.9841 78.6241 99.0161 78.6881 99.0321C78.7444 99.0481 78.8084 99.0561 78.8724 99.0401C79.4721 98.9441 80.3604 98.8401 80.4641 99.1041C80.6241 99.4961 79.9284 102.104 79.4081 102.584C78.8961 103.064 75.3844 103.072 75.3844 103.072L74.2164 99.6081V99.6161Z" fill="#BDBDBE"/>
<path d="M79.8079 99.88C79.8079 99.88 79.6479 100.056 79.2875 100.208C79.0718 100.296 78.8478 100.36 78.6155 100.392C78.4555 100.416 78.2955 100.392 78.1598 100.312C78.0875 100.264 78.0235 100.2 77.9915 100.12C77.9595 100.04 77.9518 99.96 77.9678 99.872C77.9998 99.712 78.0958 99.576 78.2315 99.48C78.3518 99.408 78.4798 99.352 78.6238 99.32C78.8715 99.256 79.0955 99.224 79.2798 99.184C79.4795 99.128 79.6882 99.104 79.8962 99.112C79.7202 99.216 79.5198 99.288 79.3195 99.32L78.6795 99.496C78.5675 99.512 78.4555 99.56 78.3678 99.632C78.2795 99.704 78.2155 99.792 78.1758 99.896C78.1278 100.112 78.3518 100.216 78.5842 100.192C78.7998 100.168 79.0078 100.128 79.2075 100.064C79.3918 99.992 79.5922 99.928 79.7842 99.888L79.8079 99.88Z" fill="#9B9D9C"/>
<path d="M79.3845 101.056C79.2565 101.152 79.1125 101.224 78.9525 101.264C78.8725 101.296 78.7842 101.312 78.6965 101.32C78.6402 101.32 78.5762 101.32 78.5205 101.296C78.4642 101.272 78.4162 101.248 78.3682 101.208C78.2645 101.128 78.2005 101.024 78.1762 100.904C78.1525 100.784 78.1762 100.664 78.2402 100.56C78.3842 100.384 78.5845 100.264 78.8162 100.208L79.2962 100.032C79.5765 99.928 79.7602 99.904 79.7685 99.928C79.7762 99.952 79.6162 100.032 79.3602 100.16C79.2322 100.224 79.0722 100.304 78.8962 100.384C78.7125 100.44 78.5525 100.536 78.4322 100.672C78.4002 100.736 78.3842 100.808 78.4002 100.88C78.4162 100.952 78.4565 101.016 78.5122 101.064C78.5282 101.088 78.5602 101.112 78.5922 101.12C78.6242 101.136 78.6562 101.136 78.6882 101.136C78.7605 101.136 78.8322 101.128 78.9045 101.112C79.1842 101.056 79.3685 101.016 79.3762 101.056L79.3845 101.056Z" fill="#9B9D9C"/>
<path d="M77.8398 101.92C77.8398 101.92 77.7598 101.784 77.6242 101.592C77.4482 101.328 77.1998 101.12 76.9042 100.968L76.7602 100.896L76.8882 100.8C76.9759 100.736 77.0719 100.664 77.1519 100.584C77.5602 100.176 77.8879 99.712 78.1362 99.208C78.1682 99.208 78.1362 99.408 78.0402 99.704C77.8802 100.088 77.6319 100.44 77.3119 100.728C77.2242 100.808 77.1282 100.888 77.0239 100.96V100.792C77.3522 100.96 77.6159 101.216 77.7682 101.528C77.8399 101.76 77.8398 101.92 77.8398 101.92Z" fill="#9B9D9C"/>
<path d="M79.4484 101.968C79.4484 101.968 79.3364 102.096 79.0644 102.184C78.9762 102.216 78.8884 102.224 78.8002 102.224C78.7124 102.224 78.6242 102.2 78.5364 102.16C78.4322 102.112 78.3522 102.04 78.2964 101.952C78.2644 101.896 78.2484 101.84 78.2484 101.776C78.2484 101.712 78.2644 101.656 78.2964 101.6C78.4084 101.432 78.5762 101.288 78.7764 101.208C78.9122 101.136 79.0562 101.08 79.2084 101.024C79.4644 100.936 79.6404 100.912 79.6404 100.936C79.6404 100.96 79.5042 101.032 79.2724 101.152C79.1604 101.216 79.0242 101.288 78.8724 101.376C78.7202 101.448 78.5922 101.552 78.4962 101.672C78.4322 101.784 78.5282 101.92 78.6484 101.984C78.7682 102.04 78.9044 102.064 79.0402 102.032C79.2802 102 79.4402 101.936 79.4562 101.968H79.4484Z" fill="#9B9D9C"/>
<path d="M36.2402 75.8721C36.1842 76.5681 36.0402 77.2561 35.8082 77.9201C35.5682 78.5921 35.0722 79.1601 34.4162 79.5361C33.7762 79.8641 32.8962 80.0001 32.6482 80.6241C32.4002 81.2561 32.9362 82.0641 32.4322 82.5361C32.2082 82.7041 31.9362 82.8081 31.6482 82.8401C31.1762 82.9441 30.7282 83.1361 30.3442 83.4081C29.9602 83.6801 29.6402 84.0241 29.4082 84.4161C29.1922 84.8961 29.1042 85.4081 29.1442 85.9201C29.1842 86.4321 29.3522 86.9361 29.6322 87.3761C30.2162 88.2561 30.9442 89.0561 31.7922 89.7361L39.9842 88.1361C39.9842 88.1361 37.5602 76.3041 37.6002 76.3841C37.1362 76.2401 36.6802 76.0721 36.2402 75.8721Z" fill="#343436"/>
<path d="M47.104 76.496C47.144 76.68 47.224 76.848 47.344 77C47.464 77.152 47.624 77.272 47.8 77.368C48.16 77.544 48.512 77.744 48.84 77.96C49.104 78.192 49.32 78.464 49.456 78.776C49.6 79.088 49.664 79.416 49.648 79.752C49.624 80.424 49.488 81.08 49.256 81.72C49.928 81.744 50.584 81.912 51.176 82.192C51.768 82.472 52.296 82.872 52.704 83.36C53.52 84.344 53.944 85.544 53.92 86.776C53.92 87.648 53.68 88.592 52.944 89.136C52.328 89.536 51.6 89.768 50.84 89.816C49.352 90.016 47.856 90.136 46.36 90.248C44.864 90.368 43.248 90.456 41.92 89.8C40.832 89.2 40.008 88.272 39.584 87.176C38.92 85.576 38.68 83.856 38.888 82.152C39.096 80.456 39.504 78.784 40.096 77.168" fill="#343436"/>
<path d="M36.7839 74.576C36.0559 74.24 35.2559 74.04 34.4399 74.0081C33.6239 74.0081 32.7599 74.4481 32.5359 75.1601C32.4319 75.544 32.4879 75.9521 32.6799 76.3121C32.8799 76.664 33.1439 76.9841 33.4559 77.2561C33.7359 77.568 34.1279 77.776 34.5679 77.848C34.9119 77.864 35.2479 77.776 35.5279 77.6C36.0959 77.304 36.5119 76.8081 36.6959 76.24C36.7759 75.952 36.7759 75.6481 36.6799 75.368C36.5839 75.088 36.4079 74.8321 36.1599 74.6321" fill="#343436"/>
<path d="M46.1121 72.904C46.1121 72.904 47.5841 72.44 47.5921 71.56C47.6081 70.688 36.6161 69.432 34.5121 74.312C34.5121 74.312 34.9201 74.576 36.6241 74.48" fill="#6E6F6F"/>
<path d="M37.696 86.4L44.4 85.912C44.44 85.2 44.4 82.44 44.4 82.44C44.4 82.44 47.192 82.048 47.224 79.504C47.256 76.96 46.792 71.128 46.792 71.128C45.208 70.504 43.464 70.28 41.752 70.48C40.04 70.68 38.416 71.288 37.048 72.248L36.616 72.536L37.696 86.4Z" fill="#BDBDBE"/>
<path d="M45.6321 75.3521C45.5921 75.32 45.5521 75.28 45.5281 75.24C45.5041 75.2 45.4881 75.144 45.4801 75.096C45.4801 75.048 45.4801 74.992 45.5041 74.944C45.5201 74.896 45.5521 74.856 45.5841 74.816C45.6241 74.776 45.6641 74.7521 45.7201 74.7281C45.7681 74.7041 45.8241 74.696 45.8801 74.696C45.9361 74.696 45.9921 74.7041 46.0401 74.7281C46.0881 74.744 46.1361 74.776 46.1761 74.816C46.2161 74.848 46.2561 74.888 46.2801 74.9281C46.3041 74.9761 46.3201 75.0241 46.3281 75.072C46.3281 75.12 46.3281 75.176 46.3041 75.224C46.2881 75.272 46.2561 75.3121 46.2241 75.3521C46.1841 75.392 46.1441 75.416 46.0881 75.44C46.0401 75.464 45.9841 75.472 45.9281 75.472C45.8721 75.472 45.8161 75.464 45.7681 75.44C45.7201 75.416 45.6721 75.392 45.6321 75.3521Z" fill="#343436"/>
<path d="M46.7842 74.912C46.7442 74.952 46.4722 74.7679 46.0882 74.76C45.7042 74.76 45.4242 74.9439 45.3842 74.8959C45.3442 74.8479 45.4082 74.7999 45.5282 74.712C45.6882 74.6 45.8882 74.5439 46.0882 74.5439C46.2882 74.5439 46.4882 74.608 46.6482 74.7199C46.7842 74.808 46.8162 74.8879 46.7842 74.904V74.912Z" fill="#343436"/>
<path d="M42.0081 75.104C42.0561 75.128 42.0961 75.16 42.1201 75.2C42.1441 75.24 42.1761 75.288 42.1841 75.328C42.1921 75.368 42.2001 75.424 42.1841 75.472C42.1761 75.52 42.1601 75.568 42.1281 75.608C42.0961 75.648 42.0641 75.688 42.0161 75.712C41.9761 75.744 41.9201 75.76 41.8721 75.768C41.8161 75.776 41.7681 75.784 41.7121 75.768C41.6561 75.76 41.6081 75.744 41.5601 75.72C41.4721 75.664 41.4081 75.584 41.3841 75.4879C41.3601 75.3919 41.3761 75.2959 41.4241 75.208C41.4481 75.1679 41.4881 75.128 41.5361 75.096C41.5761 75.064 41.6321 75.0479 41.6801 75.032C41.7361 75.0239 41.7841 75.0159 41.8401 75.032C41.8961 75.0399 41.9441 75.0559 41.9921 75.0879L42.0081 75.104Z" fill="#343436"/>
<path d="M42.6238 75.224C42.5758 75.264 42.3038 75.072 41.9198 75.072C41.5358 75.072 41.2558 75.248 41.2158 75.208C41.1758 75.168 41.2398 75.112 41.3598 75.024C41.5198 74.9121 41.7198 74.856 41.9278 74.864C42.1278 74.864 42.3278 74.928 42.4878 75.04C42.6078 75.128 42.6478 75.208 42.6318 75.232L42.6238 75.224Z" fill="#343436"/>
<path d="M44.1599 78.112C44.3599 78.04 44.5679 78 44.7839 77.992C44.8799 77.992 44.9679 77.968 44.9679 77.912C44.9679 77.824 44.9519 77.728 44.8959 77.648C44.7999 77.416 44.6959 77.184 44.5919 76.936C44.3039 76.336 44.0879 75.704 43.9359 75.064C44.2879 75.64 44.5759 76.24 44.7999 76.864C44.8959 77.112 44.9919 77.344 45.0879 77.584C45.1599 77.704 45.1759 77.84 45.1439 77.976C45.1279 78.008 45.1039 78.04 45.0799 78.064C45.0479 78.088 45.0159 78.104 44.9759 78.12C44.9199 78.128 44.8639 78.128 44.7999 78.12C44.5919 78.152 44.3759 78.144 44.1679 78.112H44.1599Z" fill="#343436"/>
<path d="M44.3919 82.4C43.1039 82.424 41.8319 82.096 40.7519 81.4561C40.7519 81.4561 41.6159 83.288 44.4 83.0561V82.4H44.3919Z" fill="#9B9D9C"/>
<path d="M46.816 71.768C46.2 72.024 45.536 72.16 44.856 72.16C44.176 72.16 43.512 72.024 42.896 71.768C41.392 71.208 39.68 70.984 39.336 71.288C38.984 71.592 39.592 74.216 38.192 74.712C38.192 74.712 37.928 76.024 36.784 76.008C35.64 75.992 36.032 71.936 36.032 71.936L38.704 70.512L41.688 69.792L44.568 69.968L46.816 70.36V71.776V71.768Z" fill="#343436"/>
<path d="M36.9439 75.1601C36.8959 75.1601 35.0239 74.6481 35.0879 76.3841C35.1519 78.1201 37.0479 77.7041 37.0479 77.6561C37.0479 77.6081 36.9439 75.1601 36.9439 75.1601Z" fill="#BDBDBE"/>
<path d="M36.4322 77.016C36.4322 77.016 36.4002 77.016 36.3442 77.064C36.2642 77.096 36.1762 77.096 36.0962 77.064C35.9682 76.992 35.8642 76.896 35.8002 76.784C35.7282 76.672 35.6962 76.536 35.6962 76.408C35.6882 76.256 35.7122 76.112 35.7762 75.976C35.7922 75.92 35.8242 75.872 35.8642 75.832C35.9042 75.792 35.9602 75.76 36.0162 75.736C36.0562 75.72 36.0962 75.728 36.1282 75.736C36.1682 75.752 36.1922 75.776 36.2082 75.808C36.2402 75.856 36.2082 75.888 36.2402 75.896C36.2722 75.896 36.2802 75.864 36.2402 75.792C36.2242 75.752 36.2002 75.712 36.1602 75.688C36.1122 75.664 36.0562 75.656 36.0082 75.664C35.9282 75.68 35.8562 75.712 35.8002 75.768C35.7442 75.816 35.6962 75.88 35.6722 75.944C35.6002 76.104 35.5602 76.28 35.5762 76.448C35.5762 76.6 35.6162 76.76 35.7122 76.888C35.8002 77.016 35.9362 77.12 36.0882 77.184C36.1362 77.192 36.1922 77.2 36.2482 77.184C36.3042 77.168 36.3522 77.152 36.3922 77.128C36.4402 77.064 36.4642 77.024 36.4402 77.024L36.4322 77.016Z" fill="#9B9D9C"/>
<path d="M35.6482 69.7601C35.6242 69.7121 35.9442 69.5841 36.3282 69.6961C36.7202 69.8081 36.8962 70.088 36.8482 70.088C36.8002 70.088 36.5842 69.9601 36.2642 69.8721C35.9442 69.7841 35.6642 69.8321 35.6482 69.7601Z" fill="#343436"/>
<path d="M36.7361 68.68C36.8081 68.68 36.8081 69.048 36.8961 69.464C36.9841 69.88 37.1921 70.184 37.1441 70.216C37.0961 70.248 36.7761 69.976 36.6801 69.504C36.5921 69.232 36.6081 68.936 36.7441 68.672L36.7361 68.68Z" fill="#343436"/>
<path d="M44.92 74.344C44.856 74.248 45.208 73.952 45.784 73.952C46.36 73.952 46.72 74.184 46.648 74.288C46.576 74.384 46.216 74.344 45.784 74.36C45.352 74.376 44.984 74.448 44.92 74.344Z" fill="#343436"/>
<path d="M39.2799 71.232C39.8639 71.568 40.4159 71.952 40.9359 72.368C41.4639 72.784 42.1439 73.008 42.8479 73.008L42.6799 72.712C43.6879 73.08 44.7519 73.312 45.8399 73.408C46.0319 73.448 46.2399 73.448 46.4319 73.408C46.6239 73.36 46.8079 73.272 46.9519 73.144C47.1999 72.848 46.8559 72.32 46.8159 71.776C46.7839 71.384 46.6319 71.28 46.2239 71.136C46.0319 71.088 45.8319 71.072 45.6399 71.088C44.1279 71.144 42.6159 71.064 41.1119 70.864C40.7599 70.8 40.4079 70.776 40.0479 70.792C39.8719 70.792 39.6959 70.832 39.5359 70.904C39.3759 70.968 39.2319 71.072 39.1199 71.184" fill="#343436"/>
<path d="M44.1919 78.4321C44.1279 78.392 44.0559 78.368 43.9759 78.368C43.8959 78.368 43.8239 78.392 43.7599 78.4321C43.6959 78.464 43.6479 78.52 43.6159 78.576C43.5839 78.6321 43.5599 78.696 43.5679 78.768C43.5679 78.9041 43.624 79.0321 43.7199 79.1281C43.792 79.2081 43.8959 79.272 44.0159 79.296C44.1119 79.3121 44.2079 79.3041 44.2959 79.272C44.384 79.24 44.4639 79.176 44.5119 79.1041C44.5599 79.0321 44.5919 78.944 44.5919 78.8561C44.5919 78.768 44.5679 78.6801 44.5119 78.6081C44.4559 78.5361 44.3839 78.472 44.2959 78.4321C44.2079 78.392 44.1119 78.376 44.0159 78.376" fill="#9B9D9C"/>
<path d="M45.1602 78.928C45.1602 78.928 45.0482 79.024 44.8322 79.032C44.5522 79.032 44.2802 78.984 44.0242 78.88C43.4242 78.664 43.0482 78.296 43.1122 78.248C43.1762 78.2 43.5442 78.488 44.1042 78.688C44.3362 78.784 44.5842 78.848 44.8322 78.888C45.0242 78.912 45.1442 78.904 45.1522 78.928H45.1602Z" fill="#343436"/>
<path d="M42.5361 74.304C42.4881 74.344 42.4001 74.328 42.2801 74.344C42.1601 74.36 41.9761 74.4 41.7281 74.416C41.2561 74.456 40.8641 74.416 40.8641 74.28C40.8641 74.144 41.2241 74.048 41.7041 74.008C41.9201 73.976 42.1521 74 42.3601 74.056C42.5441 74.136 42.5841 74.272 42.5361 74.296V74.304Z" fill="#343436"/>
<path d="M37.984 72.3441C38.016 73.7361 38.32 75.1201 38.336 76.5041C38.352 77.8961 38.048 79.3681 37.04 80.4321C36.712 80.8321 36.224 81.0881 35.68 81.1601C35.528 81.1841 35.368 81.1601 35.224 81.0961C35.08 81.0321 34.968 80.9361 34.896 80.8081C34.832 80.592 34.864 80.3601 34.984 80.1601C35.328 79.5281 35.728 78.9121 36.168 78.3281C36.608 77.744 36.888 77.072 36.968 76.368C36.96 75.8481 36.88 75.328 36.728 74.8321C36.576 74.3281 36.552 73.8 36.664 73.288C36.72 73.0321 36.864 72.8 37.064 72.616C37.264 72.4321 37.52 72.3041 37.8 72.248" fill="#343436"/>
<path d="M41.5599 71.2C46.5919 70.704 47.5519 71.512 47.5999 71.552C47.7359 71.424 47.8239 71.2719 47.8559 71.104C48.0399 69.7679 46.2319 69.3679 46.2319 69.3679C45.1039 64.68 40.4799 65.16 40.4799 65.16V65.128C40.4399 64.928 40.3119 64.76 40.1279 64.6399C39.9439 64.528 39.7199 64.4879 39.5039 64.5199L38.7839 64.6479C38.5679 64.6879 38.3759 64.8 38.2559 64.9679C38.1359 65.136 38.0879 65.336 38.1279 65.536C32.7039 67.184 34.5039 71.752 34.5039 71.752L33.7119 72.624C33.0079 73.928 34.5359 74.3199 34.5359 74.3199C34.5359 74.3199 36.4079 71.728 41.5679 71.208L41.5599 71.2Z" fill="#6E6F6F"/>
<g opacity="0.2">
<path d="M39.2645 70.4321C38.3045 70.7441 37.3685 71.1121 36.4565 71.5201C35.5765 72.0001 34.7365 72.5201 33.9285 73.0881C34.0965 72.8561 34.3125 72.6561 34.5525 72.4881C35.6565 71.6081 36.9685 70.9601 38.3765 70.5921C38.6565 70.4881 38.9605 70.4321 39.2645 70.4241V70.4321Z" fill="white"/>
</g>
<g opacity="0.2">
<path d="M34.96 71.072C34.816 71.104 34.568 70.784 34.472 70.1919C34.376 69.408 34.536 68.608 34.944 67.904C35.352 67.2 35.984 66.632 36.752 66.2639C37.352 66 37.776 65.9999 37.832 66.128C37.952 66.3919 36.688 67.056 35.936 68.384C35.184 69.712 35.28 71.0159 34.968 71.072H34.96Z" fill="white"/>
</g>
<path d="M31.2562 116.224L51.6162 117.896C51.6482 116.624 51.2242 108.888 50.9762 103.808C50.9282 102.848 51.9762 101.176 51.9362 100.368C51.8322 98.368 51.5042 98.288 51.5042 98.288L52.6642 100.256L58.7042 95.36L53.4322 88.8719C52.6002 87.856 51.5602 86.992 50.3602 86.352C49.1602 85.712 47.8322 85.288 46.4562 85.112C45.6402 85.016 45.0162 84.96 44.6082 84.912C42.2802 85.584 39.7842 85.584 37.4562 84.912C36.4482 84.944 35.4482 85.12 34.4962 85.432C32.6962 86.008 31.0722 86.9679 29.7522 88.2159L21.1282 97.4639L29.1042 102.16L32.1762 99.216L32.5762 106.864L31.2642 116.224H31.2562Z" fill="#6E6F6F"/>
<path d="M50.1439 95.12C50.1439 95.176 47.1279 95.224 43.4399 95.224C39.7519 95.224 36.7359 95.176 36.7359 95.12C36.7359 95.064 39.7359 95.016 43.4399 95.016C47.1439 95.016 50.1439 95.056 50.1439 95.12Z" fill="white"/>
<path d="M49.6962 93.1361C48.4002 93.272 47.0882 93.272 45.7922 93.1361C47.0882 93.0001 48.4002 93.0001 49.6962 93.1361Z" fill="white"/>
<path d="M35.1361 95.9281C34.8961 96.272 34.6161 96.592 34.3121 96.888C33.7841 97.464 33.0161 98.248 32.2001 99.1121C31.3841 99.9761 30.6081 100.744 30.0401 101.296C29.7521 101.608 29.4401 101.896 29.0961 102.16C29.3441 101.824 29.6161 101.504 29.9201 101.2C30.4561 100.624 31.2161 99.8321 32.0321 98.968C32.8481 98.1041 33.6241 97.3361 34.1921 96.7841C34.4801 96.472 34.7921 96.1841 35.1361 95.92V95.9281Z" fill="#343436"/>
<path d="M22.8641 104.544C23.2241 104.744 23.5441 104.992 23.8161 105.28C24.1441 105.52 24.4001 105.832 24.5761 106.184C24.2321 105.968 23.9281 105.712 23.6561 105.424C23.3281 105.184 23.0641 104.88 22.8641 104.544Z" fill="#9B9D9C"/>
<path d="M36.4721 117.32L37.6241 97.1841H50.2881L51.2241 118.528L36.4641 117.32H36.4721Z" fill="#343436"/>
<path d="M48.5121 102.4C48.5121 102.4 48.4161 102.488 48.2161 102.608C47.9441 102.784 47.6561 102.944 47.3521 103.088C45.3521 104.056 43.0961 104.488 40.8321 104.328C40.4961 104.304 40.1601 104.256 39.8241 104.2C39.6961 104.192 39.5761 104.16 39.4641 104.112C39.4641 104.08 39.9921 104.152 40.8481 104.184C41.9521 104.224 43.0641 104.136 44.1441 103.944C45.2241 103.736 46.2801 103.416 47.2801 102.984C48.0481 102.632 48.5041 102.368 48.5041 102.4H48.5121Z" fill="#5C5F5F"/>
<path d="M39.6479 105.344C39.5839 105.344 39.5199 105.216 39.5119 105.056C39.5039 104.896 39.5439 104.768 39.5999 104.752C39.6639 104.744 39.7199 104.872 39.7359 105.04C39.7519 105.208 39.7039 105.344 39.6479 105.344Z" fill="#5C5F5F"/>
<path d="M39.3038 107.552C39.2398 107.552 39.2398 107.296 39.3038 106.984C39.3678 106.68 39.4558 106.44 39.5198 106.448C39.5838 106.456 39.5838 106.712 39.5198 107.016C39.4558 107.32 39.3678 107.56 39.3038 107.552Z" fill="#5C5F5F"/>
<path d="M39.6001 109.736C39.5521 109.768 39.3601 109.56 39.2641 109.248C39.1681 108.936 39.2001 108.672 39.2641 108.672C39.3281 108.672 39.3921 108.904 39.4801 109.192C39.5681 109.48 39.6561 109.712 39.6001 109.736Z" fill="#5C5F5F"/>
<path d="M41.664 110.736C41.664 110.792 41.376 110.832 41.032 110.776C40.68 110.72 40.44 110.552 40.472 110.504C40.504 110.456 40.76 110.52 41.072 110.576C41.392 110.624 41.664 110.68 41.664 110.736Z" fill="#5C5F5F"/>
<path d="M44.1199 110.712C44.1199 110.768 43.8399 110.816 43.5039 110.824C43.1679 110.824 42.8879 110.784 42.8879 110.728C42.8879 110.672 43.1599 110.624 43.5039 110.616C43.8399 110.616 44.1199 110.648 44.1199 110.712Z" fill="#5C5F5F"/>
<path d="M46.5679 110.68C46.5679 110.736 46.2959 110.792 45.9519 110.792C45.6079 110.792 45.3359 110.752 45.3359 110.696C45.3359 110.64 45.6159 110.592 45.9519 110.584C46.2959 110.584 46.5679 110.608 46.5679 110.672V110.68Z" fill="#5C5F5F"/>
<path d="M48.5679 109.672C48.6159 109.672 48.5919 109.96 48.3519 110.224C48.1119 110.48 47.7918 110.536 47.7758 110.488C47.7598 110.44 47.9839 110.304 48.1839 110.096C48.3839 109.888 48.5118 109.656 48.5758 109.68L48.5679 109.672Z" fill="#5C5F5F"/>
<path d="M49.016 107.472C49.08 107.472 49.088 107.736 49.04 108.04C48.992 108.344 48.896 108.584 48.84 108.576C48.776 108.568 48.768 108.312 48.816 108.008C48.864 107.704 48.944 107.472 49.016 107.472Z" fill="#5C5F5F"/>
<path d="M49.2641 105.256C49.3281 105.256 49.3521 105.512 49.3281 105.824C49.3041 106.136 49.2241 106.376 49.1681 106.368C49.1041 106.368 49.0801 106.112 49.1041 105.8C49.1281 105.496 49.2001 105.248 49.2641 105.256Z" fill="#5C5F5F"/>
<path d="M49.3438 103.544C49.4078 103.544 49.4478 103.68 49.4478 103.84C49.4478 104 49.3838 104.136 49.3278 104.128C49.2638 104.128 49.2238 103.992 49.2238 103.832C49.2238 103.672 49.2798 103.536 49.3438 103.536V103.544Z" fill="#5C5F5F"/>
<path d="M33.7199 85.712C33.7199 85.712 38.8559 86.936 38.9359 97.912H40.9999C40.9999 97.912 41.5439 88.696 35.9599 85.072C35.9599 85.072 34.3439 84.72 33.7199 85.704V85.712Z" fill="#343436"/>
<path d="M44.5762 84.9281C44.5762 84.9281 48.2242 86.496 48.3122 97.496H50.0642C50.0642 97.496 50.2162 87.216 46.7682 85.192C46.4482 85.0001 46.0882 84.8721 45.7042 84.8241C45.3202 84.7761 44.9362 84.816 44.5762 84.9281Z" fill="#343436"/>
<path d="M40.9918 97.072C41.0878 97.264 41.1358 97.48 41.1198 97.696C41.1198 97.944 41.0478 98.176 40.8958 98.376C40.7918 98.496 40.6558 98.584 40.5118 98.648C40.3678 98.712 40.1998 98.744 40.0318 98.744C39.8638 98.76 39.6958 98.744 39.5358 98.68C39.3758 98.624 39.2398 98.536 39.1198 98.424C38.9518 98.232 38.8558 98 38.8478 97.76C38.8238 97.544 38.8478 97.328 38.9358 97.128C38.9758 97.328 38.9998 97.536 39.0078 97.744C39.0318 97.952 39.1278 98.144 39.2718 98.304C39.4798 98.464 39.7438 98.544 40.0158 98.536C40.2878 98.528 40.5438 98.424 40.7358 98.256C40.8718 98.088 40.9518 97.888 40.9678 97.68C40.9518 97.472 40.9678 97.272 40.9838 97.064L40.9918 97.072Z" fill="#5C5F5F"/>
<path d="M39.9678 97.4001C39.9678 97.4001 40.0798 97.3121 40.2398 97.4001C40.2878 97.4321 40.3198 97.4801 40.3438 97.5281C40.3678 97.5761 40.3678 97.6321 40.3598 97.6881C40.3438 97.7521 40.3118 97.8161 40.2558 97.8641C40.1998 97.9121 40.1358 97.9441 40.0638 97.9521C39.9918 97.9601 39.9118 97.9521 39.8478 97.9201C39.7838 97.8881 39.7278 97.8401 39.6878 97.7841C39.6558 97.7361 39.6398 97.6881 39.6398 97.6321C39.6398 97.5761 39.6558 97.5281 39.6878 97.4801C39.7998 97.3361 39.9438 97.3601 39.9358 97.3841C39.9278 97.4081 39.8638 97.4481 39.8318 97.5521C39.8318 97.5761 39.8238 97.6001 39.8318 97.6241C39.8318 97.6481 39.8478 97.6721 39.8638 97.6881C39.8798 97.7121 39.9118 97.7281 39.9358 97.7361C39.9678 97.7521 39.9918 97.7521 40.0238 97.7521C40.0558 97.7521 40.0798 97.7281 40.1038 97.7121C40.1278 97.6961 40.1438 97.6721 40.1518 97.6401C40.1598 97.6161 40.1598 97.5921 40.1518 97.5681C40.1518 97.5441 40.1358 97.5201 40.1198 97.5041C40.0718 97.4401 39.9758 97.4321 39.9758 97.4001H39.9678Z" fill="#5C5F5F"/>
<path d="M50.1038 97.064C50.1038 97.064 50.2318 97.256 50.2078 97.6C50.1918 97.808 50.1198 98 49.9918 98.176C49.9118 98.28 49.8078 98.376 49.6878 98.44C49.5678 98.504 49.4318 98.552 49.2878 98.568C49.1438 98.592 48.9919 98.568 48.8559 98.52C48.7198 98.472 48.5998 98.392 48.5118 98.28C48.3918 98.12 48.3038 97.944 48.2718 97.752C48.2398 97.56 48.2478 97.368 48.3118 97.176C48.3518 97.176 48.3598 97.376 48.4318 97.688C48.4638 97.864 48.5519 98.024 48.6719 98.16C48.7439 98.232 48.8318 98.296 48.9358 98.328C49.0398 98.36 49.1518 98.376 49.2638 98.36C49.3758 98.344 49.4798 98.304 49.5838 98.256C49.6798 98.2 49.7678 98.128 49.8318 98.048C49.9438 97.904 50.0238 97.736 50.0558 97.568C50.1198 97.256 50.0798 97.072 50.1119 97.064H50.1038Z" fill="#5C5F5F"/>
<path d="M49.1279 97.336C49.1279 97.336 49.1839 97.216 49.3759 97.24C49.4319 97.248 49.4879 97.272 49.5279 97.304C49.5759 97.336 49.6079 97.384 49.6239 97.432C49.6479 97.496 49.6479 97.56 49.6239 97.624C49.6079 97.688 49.5599 97.744 49.5039 97.784C49.4479 97.824 49.3759 97.848 49.2959 97.848C49.2159 97.848 49.1519 97.824 49.0879 97.784C49.0399 97.752 48.9999 97.712 48.9759 97.664C48.9519 97.616 48.9439 97.56 48.9519 97.504C48.9919 97.328 49.1359 97.304 49.1359 97.328C49.1359 97.352 49.0959 97.416 49.1119 97.504C49.1119 97.528 49.1199 97.552 49.1359 97.568C49.1519 97.584 49.1679 97.6 49.1919 97.616C49.2159 97.632 49.2479 97.64 49.2799 97.64C49.3119 97.64 49.3359 97.64 49.3679 97.616C49.3919 97.6 49.4079 97.576 49.4159 97.544C49.4239 97.52 49.4239 97.488 49.4159 97.464C49.4159 97.44 49.3999 97.416 49.3839 97.4C49.3679 97.384 49.3439 97.368 49.3199 97.352C49.2239 97.312 49.1359 97.336 49.1199 97.312L49.1279 97.336Z" fill="#5C5F5F"/>
<path d="M43.7366 161.991H50.3554L51.4562 160.08L45.3122 157.072L42.7282 161.431L43.0962 161.639C43.2586 161.73 43.4834 161.853 43.7366 161.991Z" fill="#6E6F6F"/>
<path d="M38.5779 161.991L56.4559 112.816L69.9787 161.991H74.7465L58.8879 104.68H55.0398L34.3582 161.991H38.5779Z" fill="#343436"/>
<path d="M54.4929 161.991L67.6238 113L85.376 161.991H90.6344L69.5841 104.68H64.9843L48.9317 161.991H54.4929Z" fill="#5C5F5F"/>
<path d="M42.7123 161.28H42.7039L42.7148 161.283L42.7123 161.28Z" fill="#343436"/>
<path d="M43.1041 161.511L44.0366 161.991H44.1689L43.1121 161.447L42.8081 161.296L42.7145 161.282L42.8081 161.344L43.1041 161.511Z" fill="#343436"/>
<path d="M38.2053 161.991L44.1039 125.112L43.9679 117.312L31.2319 115.312L26.7289 161.991H38.2053Z" fill="#343436"/>
<path d="M42.6081 158.104L50.6634 161.992H52.9568L64.5281 140.256C64.8238 139.824 64.9761 139.32 64.9761 138.808C64.9761 138.296 64.8238 137.8 64.5281 137.36L51.592 117.896V117.88H39.9681L39.4481 123.664L52.1841 137.712C52.5201 138.136 52.728 138.632 52.768 139.152C52.808 139.672 52.688 140.192 52.424 140.656L42.6081 158.104Z" fill="#343436"/>
<path d="M44.9263 161.992C44.9321 161.97 44.942 161.955 44.9438 161.928C44.9518 161.808 44.8958 161.72 44.8719 161.72C44.8719 161.72 44.8719 161.816 44.8478 161.92C44.8415 161.947 44.8404 161.968 44.8367 161.992H44.9263Z" fill="#343436"/>
<path d="M44.9682 160.888C45.1282 161.232 45.1762 161.616 45.1122 161.984C45.1116 161.986 45.1106 161.989 45.1102 161.992H45.1762C45.2562 161.608 45.2162 161.216 45.0482 160.856C44.8722 160.496 44.5922 160.192 44.2322 159.984C44.1202 159.92 44.0082 159.872 43.8882 159.824C43.8482 159.808 43.8082 159.792 43.7682 159.792H43.7602C43.7602 159.792 43.9442 159.864 44.1922 160.032C44.5282 160.248 44.8002 160.544 44.9682 160.888Z" fill="#343436"/>
<path d="M19.0558 109.76C17.9758 108.632 17.3838 107.184 17.3918 105.688C17.3918 104.192 17.9999 102.752 19.0879 101.624L22.4879 98.288L28.6239 101.88C28.4319 102 24.3918 105.984 24.3918 105.984L31.4719 114.016C32.0159 114.624 32.3759 115.344 32.5279 116.112C32.6799 116.88 32.6158 117.672 32.3358 118.416L31.1279 122.912L25.2319 120.52L25.6239 119.968H29.5038L29.7359 119.12L19.0718 109.76H19.0558Z" fill="#BDBDBE"/>
<path d="M36.648 118.168C36.632 118.424 36.552 118.664 36.416 118.88C36.12 119.432 35.664 119.896 35.088 120.224C34.512 120.552 33.856 120.72 33.176 120.712C32.896 120.728 32.624 120.68 32.368 120.584C32.368 120.552 32.68 120.584 33.168 120.584C33.8 120.544 34.416 120.36 34.96 120.064C35.496 119.752 35.936 119.328 36.256 118.832C36.52 118.432 36.608 118.152 36.648 118.168Z" fill="#5C5F5F"/>
<path d="M53.6082 161.528C53.4562 161.496 53.3122 161.456 53.1762 161.392C52.9042 161.296 52.5042 161.144 52.0242 160.944C51.0562 160.552 49.7362 159.952 48.3202 159.232C46.9042 158.512 45.6642 157.792 44.7842 157.264C44.3522 156.992 43.9922 156.768 43.7522 156.608C43.5122 156.448 43.3842 156.352 43.4002 156.336C43.5442 156.392 43.6802 156.456 43.8082 156.544L44.8722 157.152C45.7682 157.664 47.0322 158.36 48.4322 159.08C49.8402 159.8 51.1442 160.408 52.0962 160.84L53.2242 161.352C53.3602 161.4 53.4962 161.464 53.6162 161.544L53.6082 161.528Z" fill="#5C5F5F"/>
<path d="M36.9838 159.383C37.0478 159.383 37.0558 159.655 37.0078 159.984C36.9598 160.304 36.8718 160.56 36.8158 160.551C36.7518 160.551 36.7438 160.279 36.7838 159.952C36.8238 159.632 36.9198 159.376 36.9838 159.383Z" fill="#5C5F5F"/>
<path d="M37.3199 157.056C37.3839 157.056 37.3919 157.328 37.3439 157.656C37.2959 157.976 37.2079 158.232 37.1439 158.224C37.0799 158.224 37.0719 157.952 37.1199 157.624C37.1679 157.304 37.2559 157.048 37.3199 157.056Z" fill="#5C5F5F"/>
<path d="M37.6719 154.72C37.7359 154.72 37.7439 154.992 37.6959 155.32C37.6479 155.64 37.5599 155.896 37.4959 155.888C37.4319 155.888 37.4239 155.616 37.4719 155.288C37.5199 154.968 37.6079 154.712 37.6719 154.72Z" fill="#5C5F5F"/>
<path d="M38.0319 152.384C38.0959 152.384 38.1039 152.656 38.0319 152.984C37.9599 153.304 37.8959 153.56 37.8319 153.552C37.7679 153.552 37.7599 153.28 37.8319 152.952C37.9039 152.632 37.9679 152.376 38.0319 152.384Z" fill="#5C5F5F"/>
<path d="M38.3998 150.056C38.4638 150.056 38.4718 150.328 38.3998 150.656C38.3278 150.976 38.2558 151.232 38.1998 151.224C38.1358 151.224 38.1278 150.952 38.1998 150.624C38.2718 150.304 38.3358 150.048 38.3998 150.056Z" fill="#5C5F5F"/>
<path d="M38.7678 147.72C38.8318 147.72 38.8398 147.992 38.7678 148.32C38.6958 148.64 38.6238 148.896 38.5678 148.888C38.5038 148.88 38.4958 148.616 38.5678 148.288C38.6398 147.968 38.7118 147.712 38.7678 147.72Z" fill="#5C5F5F"/>
<path d="M39.1521 145.392C39.2161 145.392 39.2241 145.664 39.1521 145.992C39.0801 146.312 39.0081 146.568 38.9441 146.56C38.8801 146.56 38.8801 146.288 38.9441 145.96C39.0081 145.64 39.0881 145.384 39.1521 145.392Z" fill="#5C5F5F"/>
<path d="M39.5438 143.064C39.6078 143.064 39.6158 143.336 39.5438 143.664C39.4718 143.984 39.3998 144.24 39.3358 144.232C39.2718 144.232 39.2638 143.96 39.3358 143.632C39.4078 143.312 39.4798 143.056 39.5438 143.064Z" fill="#5C5F5F"/>
<path d="M39.9439 140.736C40.0079 140.736 40.0079 141.016 39.9439 141.336C39.8799 141.656 39.7919 141.912 39.7359 141.904C39.6719 141.904 39.6719 141.624 39.7359 141.304C39.7999 140.984 39.8879 140.728 39.9439 140.736Z" fill="#5C5F5F"/>
<path d="M40.3441 138.407C40.4081 138.407 40.4081 138.688 40.3441 139.008C40.2801 139.328 40.1921 139.584 40.1281 139.576C40.0641 139.568 40.0641 139.304 40.1281 138.976C40.1921 138.656 40.2801 138.4 40.3441 138.407Z" fill="#5C5F5F"/>
<path d="M40.7441 136.088C40.8081 136.088 40.8081 136.368 40.7441 136.688C40.6801 137.008 40.5921 137.264 40.5281 137.256C40.4641 137.248 40.4641 136.984 40.5281 136.656C40.5921 136.336 40.6961 136.08 40.7441 136.088Z" fill="#5C5F5F"/>
<path d="M41.1761 133.768C41.2401 133.768 41.2401 134.04 41.1761 134.368C41.1121 134.688 41.0241 134.944 40.9601 134.928C40.8961 134.92 40.8961 134.656 40.9601 134.328C41.0241 134.008 41.1201 133.752 41.1761 133.768Z" fill="#5C5F5F"/>
<path d="M41.6082 131.432C41.6722 131.432 41.6722 131.712 41.6082 132.032C41.5442 132.352 41.4482 132.6 41.3922 132.592C41.3282 132.592 41.3282 132.32 41.3922 131.992C41.4562 131.672 41.5522 131.424 41.6082 131.424V131.432Z" fill="#5C5F5F"/>
<path d="M42.04 129.12C42.104 129.12 42.104 129.4 42.04 129.72C41.976 130.04 41.88 130.296 41.816 130.288C41.752 130.28 41.752 130.009 41.816 129.688C41.88 129.369 41.992 129.112 42.04 129.12Z" fill="#5C5F5F"/>
<path d="M42.5599 126.808C42.6239 126.808 42.6079 127.088 42.5359 127.408C42.4639 127.72 42.3519 127.976 42.2879 127.96C42.2239 127.952 42.2399 127.688 42.3199 127.36C42.3999 127.04 42.5039 126.792 42.5679 126.808H42.5599Z" fill="#5C5F5F"/>
<path d="M43.3359 124.56C43.3919 124.576 43.3359 124.84 43.2319 125.152C43.1279 125.456 42.9759 125.696 42.9199 125.68C42.8639 125.664 42.9199 125.4 43.0159 125.088C43.1119 124.776 43.2479 124.544 43.3279 124.568L43.3359 124.56Z" fill="#5C5F5F"/>
<path d="M44.1281 122.952C44.1841 122.984 44.1601 123.12 44.0801 123.264C43.9921 123.408 43.8881 123.504 43.8321 123.48C43.7841 123.456 43.8001 123.32 43.8801 123.176C43.9601 123.032 44.0801 122.928 44.1281 122.96V122.952Z" fill="#5C5F5F"/>
<path d="M45.0561 156.8C45.1041 156.832 45.0561 156.968 44.9681 157.104C44.8801 157.24 44.7521 157.32 44.6961 157.288C44.6481 157.256 44.6961 157.12 44.7761 156.984C44.8561 156.848 45.0001 156.76 45.0561 156.792V156.8Z" fill="#5C5F5F"/>
<path d="M46.4641 154.824C46.5121 154.856 46.4001 155.096 46.2081 155.376C46.0161 155.648 45.8161 155.848 45.7761 155.816C45.7361 155.784 45.8401 155.536 46.0321 155.264C46.2241 154.992 46.4081 154.792 46.4641 154.824Z" fill="#5C5F5F"/>
<path d="M47.8479 152.824C47.8959 152.856 47.7839 153.104 47.5999 153.376C47.4079 153.648 47.2159 153.848 47.1679 153.824C47.1199 153.8 47.2239 153.552 47.4159 153.272C47.6079 152.992 47.7919 152.8 47.8479 152.824Z" fill="#5C5F5F"/>
<path d="M49.1842 150.816C49.2402 150.848 49.1362 151.088 48.9442 151.368C48.7602 151.648 48.5682 151.848 48.5122 151.816C48.4562 151.784 48.5682 151.536 48.7522 151.256C48.9362 150.976 49.1282 150.776 49.1762 150.808L49.1842 150.816Z" fill="#5C5F5F"/>
<path d="M50.504 148.784C50.552 148.808 50.456 149.064 50.272 149.344C50.096 149.624 49.904 149.832 49.84 149.8C49.776 149.776 49.888 149.52 50.072 149.24C50.256 148.96 50.448 148.752 50.504 148.784Z" fill="#5C5F5F"/>
<path d="M51.784 146.752C51.832 146.776 51.736 147.032 51.56 147.32C51.384 147.608 51.2 147.808 51.128 147.776C51.056 147.744 51.168 147.496 51.344 147.216C51.52 146.936 51.72 146.712 51.776 146.752H51.784Z" fill="#5C5F5F"/>
<path d="M53.032 144.672C53.08 144.696 52.992 144.952 52.824 145.24C52.656 145.528 52.472 145.736 52.416 145.704C52.36 145.672 52.456 145.424 52.624 145.136C52.8 144.856 52.976 144.64 53.032 144.672Z" fill="#5C5F5F"/>
<path d="M54.2399 142.592C54.2959 142.616 54.2079 142.872 54.0399 143.16C53.8719 143.448 53.6959 143.656 53.6399 143.632C53.5839 143.608 53.6799 143.352 53.8399 143.064C53.9999 142.776 54.1839 142.568 54.2399 142.592Z" fill="#5C5F5F"/>
<path d="M55.2078 140.408C55.2718 140.408 55.2558 140.688 55.1358 141.008C55.0158 141.32 54.8558 141.552 54.7998 141.528C54.7438 141.504 54.7998 141.248 54.9278 140.944C55.0558 140.64 55.1518 140.4 55.2158 140.416L55.2078 140.408Z" fill="#5C5F5F"/>
<path d="M55.0001 138.112C55.0561 138.088 55.2321 138.32 55.3201 138.64C55.4081 138.968 55.3681 139.248 55.3201 139.248C55.2721 139.248 55.1921 139 55.1121 138.688C55.024 138.384 54.9521 138.104 55.008 138.104L55.0001 138.112Z" fill="#5C5F5F"/>
<path d="M53.528 136.176C53.568 136.144 53.792 136.312 54.024 136.568C54.256 136.824 54.392 137.056 54.344 137.088C54.296 137.12 54.072 136.944 53.848 136.696C53.624 136.44 53.48 136.216 53.528 136.176Z" fill="#5C5F5F"/>
<path d="M51.8081 134.408C51.8561 134.368 52.0881 134.536 52.3201 134.784C52.5601 135.024 52.7121 135.256 52.6641 135.296C52.6161 135.336 52.3841 135.168 52.1521 134.904C51.9121 134.64 51.7601 134.456 51.8081 134.416V134.408Z" fill="#5C5F5F"/>
<path d="M50.0959 132.648C50.1439 132.608 50.3759 132.776 50.6079 133.024C50.8479 133.264 50.9999 133.496 50.9519 133.536C50.9039 133.576 50.6799 133.408 50.4399 133.144C50.1999 132.88 50.0479 132.696 50.0959 132.656V132.648Z" fill="#5C5F5F"/>
<path d="M48.376 130.88C48.424 130.84 48.656 131.008 48.888 131.272C49.12 131.536 49.28 131.744 49.232 131.784C49.184 131.824 48.952 131.656 48.72 131.408C48.48 131.168 48.328 130.92 48.376 130.88Z" fill="#5C5F5F"/>
<path d="M46.6639 129.12C46.7039 129.08 46.9439 129.248 47.1759 129.496C47.4159 129.736 47.5679 129.968 47.5199 130C47.4799 130.032 47.2399 129.872 47.0079 129.624C46.7679 129.384 46.6159 129.152 46.6639 129.12Z" fill="#5C5F5F"/>
<path d="M44.9518 127.352C44.9998 127.312 45.2318 127.48 45.4638 127.728C45.7038 127.968 45.8558 128.2 45.8078 128.232C45.7598 128.264 45.5278 128.104 45.2958 127.84C45.0558 127.576 44.9038 127.392 44.9518 127.352Z" fill="#5C5F5F"/>
<path d="M43.664 126.032C43.712 126 43.848 126.064 43.96 126.184C44.08 126.304 44.136 126.432 44.088 126.472C44.04 126.512 43.904 126.44 43.792 126.32C43.672 126.2 43.616 126.072 43.664 126.032Z" fill="#5C5F5F"/>
<path d="M39.3439 153.584C39.3439 153.472 39.3599 153.368 39.3839 153.264L39.5599 152.343C39.7119 151.52 39.9279 150.384 40.1919 148.96C40.7119 146.104 41.3759 142.144 42.0639 137.76C42.7519 133.376 43.3199 129.408 43.7039 126.528C43.8879 125.104 44.0399 123.943 44.1359 123.12C44.1839 122.727 44.2239 122.424 44.2559 122.192C44.2639 122.088 44.2879 121.975 44.3119 121.872C44.3199 121.984 44.3199 122.088 44.3119 122.2C44.2879 122.432 44.2639 122.744 44.2319 123.128C44.1599 123.936 44.0319 125.095 43.8639 126.544C43.5199 129.431 42.9679 133.408 42.2879 137.792C41.6079 142.176 40.9039 146.128 40.3439 148.983C40.0639 150.416 39.8239 151.568 39.6399 152.359C39.5519 152.752 39.4799 153.04 39.4239 153.271C39.3999 153.376 39.3759 153.479 39.3359 153.584H39.3439Z" fill="#5C5F5F"/>
<path d="M50.576 116.816C50.656 116.896 50.728 116.984 50.792 117.072L51.384 117.832C51.896 118.504 52.6159 119.472 53.472 120.688C55.2 123.112 57.456 126.552 60.0399 130.288C61.3363 132.16 62.624 133.904 63.8157 135.48C64.432 136.216 64.8717 137.056 65.1117 137.952C65.1917 138.368 65.2 138.792 65.136 139.208C65.0637 139.584 64.9517 139.96 64.7917 140.312C64.5037 140.912 64.16 141.488 63.7677 142.032L62.9037 143.28L62.368 144.064C62.3117 144.16 62.2477 144.256 62.1759 144.336C62.2162 144.232 62.272 144.136 62.3282 144.04C62.432 143.848 62.608 143.576 62.832 143.224L63.664 141.96C64.0402 141.408 64.3597 140.832 64.6317 140.232C64.7757 139.88 64.88 139.52 64.944 139.152C64.9997 138.752 64.9837 138.352 64.912 137.952C64.6797 137.08 64.2477 136.264 63.6479 135.552C62.4397 133.984 61.144 132.24 59.856 130.368C57.272 126.624 55.048 123.176 53.344 120.728C52.48 119.504 51.8 118.52 51.312 117.84L50.752 117.056C50.68 116.976 50.624 116.896 50.568 116.8L50.576 116.816Z" fill="#5C5F5F"/>
<path d="M154.208 116.878C154.138 116.501 154.148 116.106 154.061 115.734C153.878 114.954 153.683 114.176 153.438 113.414C153.234 112.77 152.953 112.15 152.703 111.518C152.228 110.326 151.54 109.26 150.743 108.262C150.407 107.84 150.008 107.468 149.666 107.048C149.015 106.246 148.222 105.602 147.415 104.977C146.635 104.37 145.789 103.858 144.91 103.412C144.276 103.093 143.635 102.774 142.968 102.549C142.014 102.23 141.053 101.929 140.046 101.768C139.185 101.63 138.326 101.501 137.454 101.482C136.35 101.458 135.255 101.533 134.16 101.72C133.25 101.876 132.36 102.082 131.488 102.378C130.338 102.766 129.242 103.272 128.189 103.884C126.499 104.866 125.052 106.138 123.773 107.6C123.063 108.41 122.47 109.315 121.929 110.252C121.371 111.218 120.906 112.234 120.56 113.286C120.237 114.269 119.942 115.263 119.793 116.3C119.675 117.116 119.63 117.934 119.575 118.746C119.533 119.367 119.635 120.001 119.696 120.623C119.749 121.19 119.798 121.76 119.909 122.319C120.011 122.842 120.193 123.352 120.339 123.866C120.55 124.598 120.812 125.307 121.119 126.006C121.516 126.909 121.982 127.772 122.525 128.59C123.387 129.88 124.37 131.073 125.554 132.081C125.795 132.286 125.898 132.514 125.898 132.838C125.887 135.673 125.893 138.51 125.893 141.344C125.893 144.025 125.906 146.709 125.885 149.39C125.877 150.258 126.095 151.058 126.578 151.742C127.398 152.897 128.501 153.604 129.97 153.636C130.908 153.654 131.766 153.417 132.523 152.87C133.471 152.187 134.394 151.47 135.326 150.765C135.791 150.414 136.238 150.061 136.884 150.066C137.378 150.066 137.816 150.166 138.202 150.45C139.277 151.242 140.333 152.061 141.413 152.846C142.466 153.612 143.641 153.831 144.904 153.507C146.054 153.211 146.921 152.52 147.515 151.498C147.957 150.741 148.074 149.896 148.074 149.031V138.753C148.074 136.75 148.074 134.746 148.07 132.743C148.07 132.472 148.15 132.274 148.377 132.105C148.618 131.926 148.834 131.704 149.049 131.49C149.832 130.706 150.586 129.898 151.222 128.986C151.797 128.16 152.294 127.294 152.714 126.381C152.977 125.814 153.197 125.228 153.418 124.642C153.546 124.302 153.659 123.95 153.736 123.597C153.888 122.898 154.025 122.193 154.138 121.486C154.227 120.921 154.311 120.351 154.322 119.784C154.34 118.818 154.387 117.846 154.206 116.886L154.208 116.878Z" fill="white"/>
<path d="M154.061 115.734C153.878 114.954 153.683 114.176 153.438 113.414C153.234 112.77 152.953 112.15 152.703 111.518C152.228 110.326 151.54 109.26 150.743 108.262C150.407 107.84 150.008 107.468 149.666 107.048C149.015 106.246 148.222 105.602 147.415 104.977C146.635 104.37 145.789 103.858 144.91 103.412C144.276 103.093 143.635 102.774 142.968 102.549C142.014 102.23 141.053 101.929 140.046 101.768C139.185 101.63 138.326 101.501 137.454 101.482C136.35 101.458 135.255 101.533 134.16 101.72C133.25 101.876 132.36 102.082 131.488 102.378C130.338 102.766 129.242 103.272 128.189 103.884C126.499 104.866 125.052 106.138 123.773 107.6C123.063 108.41 122.47 109.315 121.929 110.252C121.371 111.218 120.906 112.234 120.56 113.286C120.237 114.269 119.942 115.263 119.793 116.3C119.675 117.116 119.63 117.934 119.575 118.746C119.533 119.367 119.635 120.001 119.696 120.623C119.749 121.19 119.798 121.76 119.909 122.319C120.011 122.842 120.193 123.352 120.339 123.866C120.55 124.598 120.812 125.307 121.119 126.006C121.516 126.909 121.982 127.772 122.525 128.59C123.387 129.88 124.37 131.073 125.554 132.081C125.795 132.286 125.898 132.514 125.898 132.838C125.887 135.673 125.893 138.51 125.893 141.344C125.893 144.025 125.906 146.709 125.885 149.39C125.877 150.258 126.095 151.058 126.578 151.742C127.398 152.897 128.501 153.604 129.97 153.636C130.908 153.654 131.766 153.417 132.523 152.87C133.471 152.187 134.394 151.47 135.326 150.765C135.791 150.414 136.238 150.061 136.884 150.066C137.378 150.066 137.816 150.166 138.202 150.45C139.277 151.242 140.333 152.061 141.413 152.846C142.466 153.612 143.641 153.831 144.904 153.507C146.054 153.211 146.921 152.52 147.515 151.498C147.957 150.741 148.074 149.896 148.074 149.031V138.753C148.074 136.75 148.074 134.746 148.07 132.743C148.07 132.472 148.15 132.274 148.377 132.105C148.618 131.926 148.834 131.704 149.049 131.49C149.832 130.706 150.586 129.898 151.222 128.986C151.797 128.16 152.294 127.294 152.714 126.381C152.977 125.814 153.197 125.228 153.418 124.642C153.546 124.302 153.659 123.95 153.736 123.597C153.888 122.898 154.025 122.193 154.138 121.486C154.227 120.921 154.311 120.351 154.322 119.784C154.34 118.818 154.387 117.846 154.206 116.886C154.134 116.509 154.146 116.113 154.059 115.741L154.061 115.734ZM145.894 149.155C145.894 149.714 145.784 150.245 145.422 150.706C145.064 151.161 144.063 151.596 143.409 151.401C142.866 151.24 142.463 150.892 142.033 150.572C141.048 149.844 140.067 149.107 139.072 148.392C138.662 148.097 138.168 148.002 137.682 147.902C136.978 147.757 136.28 147.822 135.613 148.054C135.21 148.194 134.819 148.409 134.472 148.659C133.545 149.329 132.644 150.039 131.73 150.726C131.333 151.023 130.939 151.314 130.43 151.411C129.797 151.535 129.266 151.35 128.79 150.958C128.265 150.522 128.06 149.942 128.062 149.263C128.07 146.801 128.065 144.337 128.065 141.874H128.068V134.256C128.068 133.936 128.078 133.942 128.37 134.086C129.216 134.504 130.054 134.936 130.921 135.306C131.454 135.533 132.027 135.675 132.591 135.821C133.272 135.994 133.958 136.19 134.651 136.262C135.597 136.358 136.555 136.354 137.509 136.375C137.91 136.386 138.318 136.39 138.714 136.338C139.35 136.256 139.989 136.161 140.609 136.002C141.497 135.775 142.385 135.527 143.246 135.208C143.939 134.953 144.591 134.58 145.261 134.261C145.453 134.169 145.65 134.086 145.847 133.999C145.862 134.2 145.889 134.401 145.889 134.604C145.892 139.454 145.894 144.302 145.889 149.152L145.894 149.155ZM148.111 129.294C145.046 132.63 141.163 134.29 136.669 134.214C132.576 134.145 129.024 132.572 126.155 129.601C123.29 126.629 121.834 123.058 121.832 118.158C121.876 115.052 123.126 111.645 125.67 108.777C128.262 105.855 131.527 104.132 135.431 103.771C139.978 103.348 143.982 104.668 147.342 107.792C150.202 110.45 151.786 113.77 152.102 117.667C152.462 122.117 151.111 126.022 148.109 129.292L148.111 129.294Z" fill="#8C8E8E"/>
<path d="M138.675 115.495L136.994 112.076L135.313 115.495C135.11 115.905 134.722 116.19 134.273 116.255L130.517 116.804L133.235 119.467C133.561 119.786 133.708 120.246 133.632 120.694L132.991 124.452L136.35 122.679C136.553 122.574 136.774 122.521 136.994 122.521C137.214 122.521 137.435 122.574 137.638 122.679L140.998 124.452L140.357 120.694C140.28 120.243 140.427 119.784 140.754 119.467L143.473 116.804L139.716 116.255C139.266 116.19 138.878 115.907 138.675 115.495Z" fill="#8C8E8E"/>
<path d="M150.3 117.826C150.021 114.393 148.626 111.471 146.107 109.13C143.146 106.378 139.621 105.217 135.617 105.59C132.179 105.909 129.305 107.426 127.022 109.999C124.781 112.525 123.681 115.525 123.641 118.258C123.641 122.574 124.925 125.719 127.448 128.334C129.973 130.952 133.101 132.335 136.705 132.395C140.664 132.462 144.085 131.002 146.782 128.062C149.428 125.183 150.614 121.745 150.297 117.826H150.3ZM145.419 117.478L142.209 120.621L142.965 125.059C143.054 125.584 142.845 126.104 142.416 126.416C141.988 126.73 141.431 126.77 140.961 126.522L136.994 124.426L133.027 126.522C132.823 126.629 132.601 126.682 132.384 126.682C132.097 126.682 131.817 126.593 131.573 126.416C131.144 126.102 130.933 125.582 131.023 125.059L131.78 120.621L128.569 117.478C128.191 117.106 128.057 116.562 128.221 116.055C128.383 115.548 128.811 115.186 129.337 115.11L133.773 114.464L135.757 110.426C135.99 109.949 136.466 109.653 136.997 109.653C137.528 109.653 138 109.949 138.234 110.426L140.217 114.464L144.654 115.11C145.18 115.186 145.605 115.548 145.77 116.055C145.933 116.562 145.8 117.106 145.421 117.478H145.419Z" fill="#8C8E8E"/>
</svg>
