<svg width="162" height="162" viewBox="0 0 162 162" fill="none" xmlns="http://www.w3.org/2000/svg">
<path d="M148.2 1H13.8C6.73076 1 1 6.73074 1 13.8V148.2C1 155.269 6.73076 161 13.8 161H148.2C155.269 161 161 155.269 161 148.2V13.8C161 6.73074 155.269 1 148.2 1Z" fill="#F9F19A"/>
<path d="M81.6911 159.8C79.996 147.374 77.1919 128.304 77.1919 128.304H77.1996L76.3759 121.24L68.1436 121.368L61.8159 144.544L64.4688 159.8H81.6911Z" fill="#F7A416"/>
<path d="M63.7757 157.584L70.312 121.192L52.9439 120.944C52.9427 120.945 50.3437 123.737 49.064 126.416C47.784 129.088 46.96 135.472 46.96 135.472C46.96 135.472 43.36 143.488 43.904 147.584C44.1109 149.145 44.7708 154.172 45.5088 159.8H63.7099L63.7757 157.584Z" fill="#F7A416"/>
<path d="M63.5852 159.8C64.3016 154.26 64.8961 149.668 65.3222 146.392C65.5385 144.648 65.7145 143.28 65.8342 142.336C65.8905 141.88 65.9302 141.52 65.9622 141.272C65.9942 141.024 65.9942 140.904 65.9942 140.904C65.9942 140.904 65.9705 141.024 65.9302 141.264C65.8905 141.504 65.8425 141.872 65.7785 142.328C65.6422 143.272 65.4585 144.64 65.2102 146.376L63.3906 159.8H63.5852Z" fill="#F7A416"/>
<path d="M51.6794 159.8L53.344 136.556H53.336L36.1292 135.701L34.3584 159.8H51.6794Z" fill="#F7A416"/>
<path d="M40.1091 159.8C40.1563 159.08 40.2008 158.378 40.24 157.712C40.408 154.728 40.528 152.304 40.576 150.624C40.6 149.8 40.632 149.152 40.632 148.696V148.016C40.632 148.016 40.6 148.048 40.6 148.168C40.592 148.296 40.568 148.464 40.568 148.672C40.544 149.12 40.512 149.768 40.464 150.6C40.392 152.272 40.248 154.696 40.0559 157.68C40.0117 158.356 39.9621 159.069 39.9098 159.8H40.1091Z" fill="#F7A416"/>
<path d="M39.4404 159.8L40.6879 147.728L45.2479 136.176L21.5679 135.208L21.5599 135.192V142.76L22.7344 159.8H39.4404Z" fill="#F7A416"/>
<path d="M144.6 111.92H42.12V30.888L144.664 30.696L144.6 111.92Z" fill="#FEEADA"/>
<path d="M144.6 111.92C144.6 111.16 144.6 79.416 144.552 30.696L144.664 30.784L42.28 30.992H42.12L42.248 30.888V111.92L42.136 111.832L144.616 111.92L42.136 112.008H42.024V30.784H42.312L144.696 30.6H144.808V30.688C144.696 79.416 144.608 111.16 144.6 111.92Z" fill="#F7A416"/>
<path d="M137.712 104.312H136.328L132.352 104.336L117.728 104.384L69.464 104.424H48.52V104.288C48.52 90.504 48.56 78.648 48.568 70.2243C48.568 66.024 48.592 62.68 48.608 60.3843C48.608 62.6883 48.632 66.0323 48.648 70.2243C48.648 78.648 48.68 90.504 48.696 104.288L48.56 104.16H69.368L117.632 104.2L132.256 104.248L136.232 104.272H137.264L137.704 104.312H137.712Z" fill="#F7A416"/>
<path d="M64.8798 92.5917H55.8881V101.584H64.8798V92.5917Z" fill="#EE7160"/>
<path d="M78.072 86.1597H69.08V101.584H78.072V86.1597Z" fill="#EE7160"/>
<path d="M91.3123 78.856H82.3203V101.584H91.3123V78.856Z" fill="#FBC173"/>
<path d="M104.152 70.7197H95.16V101.584H104.152V70.7197Z" fill="#EE7160"/>
<path d="M117.288 60.3043H108.296V101.584H117.288V60.3043Z" fill="#FBC173"/>
<path d="M130.32 52.368H121.328V101.16H130.32V52.368Z" fill="#EE7160"/>
<g opacity="0.5">
<path d="M78.072 86.1597H69.08V101.584H78.072V86.1597Z" fill="white"/>
</g>
<g opacity="0.5">
<path d="M104.152 70.7197H95.16V101.584H104.152V70.7197Z" fill="#FBC173"/>
</g>
<g opacity="0.5">
<path d="M130.328 52.368H121.336V101.16H130.328V52.368Z" fill="#FBC173"/>
</g>
<path d="M55.8881 83.368C55.8881 83.368 55.9681 83.304 56.0081 83.2797L56.3601 83.0397L57.7281 82.1283L62.8881 78.7357L80.7358 67.064L80.9438 66.9277V71.1997L80.7281 71.0877L87.7598 66.376L112.592 49.792L120.136 44.784L122.192 43.416L122.728 43.072C122.784 43.032 122.848 42.992 122.92 42.96C122.864 43.008 122.808 43.048 122.744 43.096L122.224 43.464L120.192 44.832L112.704 49.952L87.9281 66.6077L80.9041 71.32L80.6878 71.464V67.176L80.8958 67.288L62.9758 78.8797L57.7761 82.216L56.3841 83.096L56.0161 83.32C55.9361 83.3597 55.8961 83.3757 55.8881 83.3757V83.368Z" fill="#F7A416"/>
<path d="M122.92 46.776C122.84 46.416 122.808 46.04 122.824 45.672C122.8 44.984 122.784 44.024 122.776 42.936L122.92 43.08H122.576C121.424 43.08 120.384 43.08 119.632 43.04C119.224 43.056 118.808 43.024 118.408 42.936C118.816 42.872 119.224 42.848 119.64 42.88C120.392 42.856 121.432 42.84 122.592 42.84H123.072V42.976C123.072 44.048 123.072 45.008 123.024 45.712C123.032 46.072 123 46.432 122.928 46.784L122.92 46.776Z" fill="#F7A416"/>
<path d="M57.368 54.016C57.368 54.016 56.296 63.9517 57.664 69.3917L70.936 68.808C70.936 68.808 68.0957 59.008 69.8397 54.68L57.368 54.016Z" fill="#EBEBEB"/>
<path d="M57.424 53.704C57.424 53.704 57.5119 64.4317 58.0559 67.704L71.5119 67.064C71.5119 67.064 70.328 56.52 70.7842 53.704H57.424Z" fill="#EE7160"/>
<path d="M68.7523 58.208C68.7523 58.256 66.7363 58.416 64.248 58.568C61.752 58.72 59.736 58.8 59.728 58.752C59.728 58.704 61.7443 58.536 64.232 58.384C66.728 58.232 68.744 58.16 68.7523 58.208Z" fill="white"/>
<path d="M68.76 60.4803C68.76 60.5283 66.744 60.6883 64.2557 60.84C61.7597 60.9923 59.736 61.0723 59.736 61.0243C59.736 60.9763 61.752 60.8163 64.2397 60.664C66.7357 60.5123 68.7517 60.4323 68.76 60.4803Z" fill="white"/>
<path d="M66.4721 62.712C66.2244 62.776 65.9761 62.808 65.7284 62.8163C65.2721 62.8643 64.6244 62.9123 63.9044 62.952C63.1921 62.9923 62.5361 63.0243 62.0804 63.032C61.8321 63.064 61.5761 63.064 61.3201 63.032C61.5684 62.968 61.8161 62.936 62.0721 62.9283C62.5284 62.8803 63.1761 62.8323 63.8961 62.792C64.6084 62.7523 65.2644 62.7203 65.7201 62.712C65.9684 62.68 66.2244 62.68 66.4721 62.712Z" fill="white"/>
<path d="M91 41.464C91 41.544 83.128 41.6 73.4237 41.6C63.72 41.6 55.84 41.544 55.84 41.464C55.84 41.384 63.704 41.32 73.4077 41.32C83.112 41.32 91 41.384 91 41.464Z" fill="#F7A416"/>
<path d="M68.7601 44.672C68.7601 44.752 65.8078 44.808 62.1681 44.808C58.5281 44.808 55.576 44.752 55.576 44.672C55.576 44.592 58.5281 44.528 62.1681 44.528C65.8078 44.528 68.7601 44.592 68.7601 44.672Z" fill="#F7A416"/>
<path d="M75.7602 44.672C75.7602 44.752 74.6242 44.808 73.2239 44.808C71.8242 44.808 70.6882 44.752 70.6882 44.672C70.6882 44.592 71.8242 44.528 73.2239 44.528C74.6242 44.528 75.7602 44.592 75.7602 44.672Z" fill="#F7A416"/>
<path d="M57.648 131.896C57.6 131.76 57.584 131.616 57.576 131.464C57.544 131.192 57.528 130.792 57.52 130.296C57.52 129.008 57.6 127.72 57.744 126.44C57.92 124.984 58.064 123.664 58.2 122.608C58.24 122.08 58.304 121.544 58.408 121.024C58.456 121.56 58.448 122.096 58.384 122.632C58.32 123.616 58.168 124.976 58.008 126.472C57.848 127.968 57.736 129.328 57.704 130.304C57.672 131.28 57.688 131.896 57.64 131.904L57.648 131.896Z" fill="#455A64"/>
<path d="M59.608 125.448C59.312 124.76 59.136 124.024 59.088 123.28C58.952 122.544 58.928 121.792 59.032 121.048C59.184 121.776 59.288 122.504 59.344 123.24C59.48 123.968 59.568 124.704 59.616 125.44L59.608 125.448Z" fill="#455A64"/>
<path d="M66.3362 123.288C66.2882 123.288 66.3042 122.944 65.9279 122.688C65.8242 122.616 65.7039 122.576 65.5759 122.56C65.4479 122.544 65.3282 122.56 65.2079 122.616C65.0639 122.672 64.9442 122.76 64.8559 122.888C64.7682 123.008 64.7279 123.16 64.7279 123.312C64.7279 123.464 64.7759 123.608 64.8559 123.736C64.9442 123.856 65.0639 123.952 65.2079 124.008C65.3282 124.048 65.4562 124.064 65.5759 124.048C65.6962 124.032 65.8159 123.984 65.9202 123.912C66.2882 123.64 66.2562 123.28 66.3042 123.296C66.3522 123.312 66.3439 123.376 66.3279 123.52C66.2959 123.728 66.1922 123.92 66.0322 124.056C65.9119 124.168 65.7602 124.24 65.6002 124.272C65.4402 124.304 65.2719 124.296 65.1202 124.24C64.9359 124.176 64.7682 124.056 64.6479 123.896C64.5282 123.736 64.4642 123.544 64.4642 123.344C64.4642 123.144 64.5199 122.952 64.6319 122.784C64.7439 122.616 64.9039 122.488 65.0882 122.424C65.2399 122.368 65.3999 122.344 65.5599 122.376C65.7199 122.4 65.8722 122.472 65.9919 122.576C66.1602 122.704 66.2722 122.896 66.3042 123.096C66.3522 123.232 66.3279 123.312 66.3202 123.312L66.3362 123.288Z" fill="#455A64"/>
<path d="M44.896 82.696C43.016 84.408 41.464 86.4483 40.336 88.728C38.8 91.8723 29.424 110.104 30.72 112.088C32.016 114.072 35.84 115.736 36.224 115.68C36.608 115.624 43.792 111.304 43.792 111.304C43.792 111.304 48.264 97.0397 48.312 97.0077C48.36 96.968 44.888 82.7037 44.888 82.7037L44.896 82.696Z" fill="#E0E0E0"/>
<path d="M81.368 106.952C81.368 106.952 83.128 133.312 82.9283 134.704C82.728 136.096 79.24 142.88 79.24 142.88L76.904 134.92L78.808 131.056L75.72 109.336L81.368 106.944L81.368 106.952Z" fill="#FCC775"/>
<path d="M69.592 80.808L65.8403 80.2237C65.8403 80.2237 66.0163 86.9277 60.2 87.176C53.6 87.448 52.456 80.3997 52.456 80.3997C52.456 80.3997 46.08 81.576 44.912 82.648C43.744 83.72 49.28 111.872 49.28 111.872L48.752 130.048C48.752 130.048 55.824 133.6 64.0963 133.696C66.52 133.72 68.9283 133.264 71.176 132.336C73.4243 131.416 75.4563 130.048 77.1683 128.32L78.696 124.376L75.8083 109.792L69.592 80.808Z" fill="#FEEADA"/>
<path d="M69.5837 80.936C69.5837 80.936 74.2077 82.3043 75.6157 84.184C77.016 86.0643 82.0637 107.536 82.0637 107.536L75.8237 109.936L69.5837 80.9443V80.936Z" fill="#FEEADA"/>
<path d="M72.6243 88.168C72.616 88.248 72.616 88.3197 72.6243 88.3997C72.6243 88.5757 72.68 88.792 72.712 89.0557C72.8003 89.656 72.9283 90.4637 73.08 91.448C73.4 93.5037 73.832 96.2717 74.3043 99.336C74.776 102.4 75.1683 105.184 75.464 107.24C75.608 108.224 75.7283 109.032 75.816 109.632L75.928 110.288C75.9523 110.44 75.9683 110.512 75.976 110.512C75.9843 110.44 75.9843 110.36 75.976 110.288C75.976 110.112 75.9363 109.888 75.912 109.632C75.8563 109.064 75.7603 108.24 75.64 107.224C75.3923 105.192 75.0083 102.392 74.5443 99.304C74.0803 96.216 73.608 93.432 73.2483 91.4237C73.0723 90.4157 72.9123 89.5997 72.792 89.0397C72.744 88.7837 72.696 88.584 72.6563 88.3997C72.6563 88.328 72.6403 88.248 72.616 88.1757L72.6243 88.168Z" fill="#F7A416"/>
<path d="M56.696 99.432C56.816 99.64 56.96 99.832 57.112 100.024C57.384 100.4 57.808 100.936 58.352 101.544C61.2158 104.8 64.7197 107.44 68.648 109.288C69.3917 109.64 70.0157 109.904 70.4477 110.064C70.6717 110.16 70.8963 110.232 71.128 110.296C70.92 110.176 70.7037 110.064 70.4797 109.984C70.056 109.8 69.4557 109.528 68.7197 109.144C64.872 107.224 61.4 104.616 58.48 101.456C57.92 100.848 57.48 100.352 57.184 99.992C57.04 99.7917 56.88 99.608 56.704 99.448L56.696 99.432Z" fill="#F7A416"/>
<path d="M72.92 88.936C72.9443 89 73.8083 88.664 74.8963 88.36C75.9843 88.056 76.8963 87.9037 76.888 87.816C75.496 87.8557 74.1283 88.2403 72.92 88.936Z" fill="#F7A416"/>
<path d="M45.416 91.2483C45.512 91.256 45.608 91.256 45.696 91.2483L46.504 91.208L49.448 91.0403L59.184 90.376C62.9923 90.0803 66.4323 89.848 68.9283 89.8C70.168 89.768 71.1843 89.7603 71.88 89.768H72.6883C72.7843 89.7763 72.872 89.7763 72.968 89.768C72.8803 89.7443 72.7843 89.7283 72.6883 89.736C72.504 89.736 72.232 89.704 71.8883 89.688C71.192 89.656 70.1763 89.6323 68.9283 89.64C66.424 89.64 62.9763 89.8563 59.176 90.152L49.44 90.8803L46.488 91.128L45.688 91.208C45.592 91.208 45.504 91.2163 45.416 91.24L45.416 91.2483Z" fill="#F7A416"/>
<path d="M73.832 93.9677C74.5917 93.9837 75.3597 93.9197 76.1117 93.784C76.8797 93.72 77.6477 93.576 78.392 93.3597C77.6317 93.3437 76.8637 93.4077 76.1117 93.544C75.336 93.608 74.5757 93.7437 73.832 93.9677Z" fill="#F7A416"/>
<path d="M46.808 98.7523C46.904 98.7683 46.992 98.7683 47.088 98.7523L47.88 98.7203C48.568 98.68 49.56 98.6237 50.792 98.536C53.24 98.36 56.64 98.0803 60.36 97.5203C62.216 97.24 63.976 96.8963 65.576 96.6083C67.1683 96.312 68.616 96.0637 69.8403 95.912C71.064 95.768 72.0483 95.72 72.7363 95.6963C73.416 95.6803 73.8 95.6957 73.8083 95.672C73.72 95.6477 73.624 95.64 73.528 95.64C73.3443 95.64 73.0723 95.608 72.7363 95.608C71.7603 95.6003 70.792 95.64 69.816 95.752C68.5923 95.8723 67.144 96.104 65.544 96.392C63.944 96.68 62.184 97.016 60.328 97.304C56.624 97.8717 53.24 98.1757 50.792 98.392L47.888 98.648L47.096 98.728C47 98.728 46.904 98.728 46.816 98.7523L46.808 98.7523Z" fill="#F7A416"/>
<path d="M62.7683 104.984C62.9283 105 63.096 105 63.256 104.984C63.5683 104.984 64.0163 104.92 64.5763 104.864C65.6803 104.752 67.2163 104.568 68.8963 104.344C70.584 104.112 72.088 103.888 73.2003 103.672C73.7443 103.576 74.1923 103.488 74.4963 103.424C74.648 103.4 74.808 103.36 74.952 103.304C74.792 103.296 74.6243 103.304 74.4643 103.336L73.16 103.512L68.8483 104.12L64.536 104.712L63.2323 104.904C63.0723 104.912 62.92 104.944 62.7683 104.992V104.984Z" fill="#F7A416"/>
<path d="M48.376 108.224C48.576 108.24 48.784 108.224 48.984 108.2L50.64 108.048C52.04 107.912 53.968 107.704 56.104 107.464C58.24 107.224 60.16 107.008 61.5677 106.808L63.2157 106.576C63.416 106.56 63.624 106.52 63.816 106.464C63.6157 106.456 63.4077 106.464 63.208 106.488L61.5517 106.64C60.16 106.776 58.224 106.984 56.088 107.232C53.944 107.472 52.032 107.688 50.624 107.888L48.976 108.112C48.776 108.128 48.568 108.168 48.376 108.224Z" fill="#F7A416"/>
<path d="M49.088 115.816C49.184 115.816 49.272 115.816 49.368 115.792L50.16 115.664L53.056 115.152C55.496 114.736 58.88 114.136 62.6237 113.76C64.504 113.576 66.3037 113.456 67.944 113.424C69.576 113.392 71.064 113.424 72.296 113.424C73.528 113.424 74.5443 113.368 75.24 113.304C75.5843 113.272 75.848 113.248 76.0323 113.216C76.1277 113.208 76.216 113.192 76.312 113.168C76.216 113.16 76.12 113.16 76.0323 113.168L75.2317 113.216C74.536 113.248 73.5363 113.272 72.296 113.256C71.0563 113.24 69.56 113.192 67.9357 113.216C66.312 113.24 64.488 113.344 62.6 113.528C58.824 113.904 55.448 114.528 53.008 114.992C51.792 115.232 50.808 115.448 50.128 115.576L49.352 115.744C49.264 115.76 49.176 115.784 49.096 115.816H49.088Z" fill="#F7A416"/>
<path d="M48.952 124.496C49.048 124.528 49.144 124.544 49.24 124.552C49.432 124.584 49.72 124.616 50.096 124.64C51.144 124.704 52.2 124.672 53.248 124.552C55.904 124.28 59.456 123.328 63.448 122.728C67.4403 122.128 71.0883 121.648 73.704 121.24C74.744 121.104 75.7763 120.92 76.8003 120.672C77.08 120.592 77.3443 120.504 77.608 120.392C77.704 120.36 77.7923 120.312 77.8723 120.256C77.7763 120.28 77.6803 120.304 77.592 120.344C77.3283 120.448 77.064 120.544 76.792 120.616C76.0803 120.792 75.0083 120.92 73.6963 121.104C71.0723 121.472 67.432 121.896 63.4243 122.528C59.416 123.16 55.864 124.096 53.24 124.4C52.208 124.536 51.16 124.592 50.112 124.568C49.36 124.528 48.952 124.472 48.952 124.496Z" fill="#F7A416"/>
<path d="M74.5123 100.568C75.4723 100.52 76.4163 100.392 77.352 100.192C78.3043 100.064 79.24 99.864 80.1603 99.5843C79.2003 99.6323 78.248 99.7597 77.3123 99.96C76.36 100.088 75.4243 100.288 74.5123 100.568Z" fill="#F7A416"/>
<path d="M75.4243 107.2C75.4243 107.2 75.5203 107.232 75.688 107.2C75.9203 107.16 76.1443 107.08 76.36 106.968L78.4163 105.976C80.0323 105.208 81.352 104.608 81.3283 104.56C81.016 104.616 80.7043 104.712 80.4163 104.856C79.8723 105.064 79.1203 105.376 78.312 105.768C77.5043 106.152 76.7843 106.528 76.2723 106.824C76.008 106.992 75.72 107.12 75.416 107.208L75.4243 107.2Z" fill="#F7A416"/>
<path d="M77.6963 126.888C77.6003 126.896 77.496 126.92 77.4083 126.944L76.584 127.16C75.8723 127.344 74.8323 127.592 73.544 127.832C72.2563 128.072 70.7043 128.288 68.984 128.472C67.272 128.656 65.336 128.736 63.336 128.88C59.328 129.168 55.688 129.336 53.056 129.248C51.744 129.216 50.68 129.128 49.952 129.072L49.112 128.992C49.016 128.984 48.912 128.984 48.808 128.992C48.904 129.024 49 129.04 49.096 129.048C49.288 129.08 49.552 129.128 49.936 129.176C50.664 129.264 51.728 129.376 53.048 129.432C56.488 129.52 59.928 129.424 63.352 129.128C65.352 128.984 67.272 128.888 69.0083 128.696C70.744 128.504 72.296 128.264 73.592 128C74.888 127.736 75.912 127.464 76.6243 127.256C76.9763 127.16 77.2483 127.064 77.432 127C77.5203 126.968 77.608 126.928 77.688 126.88L77.6963 126.888Z" fill="#F7A416"/>
<path d="M79.7443 134.912C78.392 136.936 77 138.936 75.576 140.92C75.512 141 75.4403 141.096 75.336 141.096C75.2323 141.096 75.128 140.936 75.096 140.808C74.9603 139.928 75.08 139.032 75.448 138.216C75.816 137.416 76.1282 136.592 76.392 135.744C76.6082 134.856 76.6 133.92 76.984 133.072C77.192 132.616 77.48 132.208 77.6963 131.768C78.0003 131.072 78.552 130.512 79.2483 130.2" fill="#FCC775"/>
<path d="M45.72 92.632C45.728 92.8797 45.76 93.1357 45.808 93.3757L46.144 95.3917C46.432 97.096 46.856 99.448 47.336 102.048C47.816 104.648 48.248 106.992 48.6 108.688C48.76 109.504 48.904 110.176 49.008 110.696C49.048 110.944 49.112 111.184 49.192 111.424C49.184 111.176 49.152 110.92 49.104 110.68C49.016 110.168 48.912 109.48 48.768 108.664C48.472 106.96 48.056 104.608 47.576 102.008C47.096 99.4077 46.664 97.0717 46.312 95.3757C46.144 94.5597 46.008 93.88 45.904 93.368C45.864 93.1197 45.808 92.872 45.72 92.6403L45.72 92.632Z" fill="#263239"/>
<path d="M37.8241 94.104C38.2161 94.2877 38.6321 94.4317 39.0561 94.536C39.8241 94.7677 40.8801 95.08 42.0641 95.4077C43.2561 95.736 44.3201 96.024 45.0961 96.216C45.5121 96.344 45.9361 96.4317 46.3681 96.488C45.9761 96.296 45.5601 96.1437 45.1361 96.0317C44.3681 95.8 43.3121 95.4877 42.1281 95.16C40.9361 94.8317 39.8801 94.5437 39.0961 94.3517C38.6801 94.232 38.2561 94.1437 37.8241 94.104Z" fill="#455A64"/>
<path d="M33.504 102.464C33.624 102.568 33.768 102.656 33.92 102.712C34.32 102.888 34.744 103.032 35.176 103.12C36.264 103.36 37.76 103.64 39.4 104.032C41.04 104.416 42.52 104.8 43.584 105.088L44.848 105.424C44.992 105.48 45.152 105.512 45.304 105.52C45.16 105.44 45.008 105.376 44.848 105.336C44.56 105.232 44.128 105.088 43.6 104.928C42.544 104.6 41.072 104.184 39.424 103.8C37.776 103.416 36.264 103.152 35.184 102.96C34.76 102.88 34.336 102.768 33.928 102.624C33.792 102.56 33.648 102.504 33.504 102.464Z" fill="#455A64"/>
<path d="M42.096 109.928L48.928 127.76L46.992 135.224L34.688 114.696C34.688 114.696 39.08 109.536 42.096 109.928Z" fill="#B78876"/>
<path d="M48.8001 127.424L54.8721 137.104L54.7281 139.6L47.0001 142.88L46.4401 133.68L48.7921 127.432L48.8001 127.424Z" fill="#FCC775"/>
<path d="M45.1279 143.944C45.1279 143.944 45.7599 143.552 46.8239 143.032C47.1119 142.888 47.4079 142.76 47.7119 142.648C48.0319 142.528 48.3999 142.44 48.7759 142.32C49.5359 142.08 50.3519 141.784 51.1919 141.408C52.8639 140.664 54.3359 139.928 55.4079 139.408L56.6719 138.768C56.8319 138.696 56.9839 138.608 57.1279 138.512C56.9599 138.544 56.7919 138.608 56.6319 138.688L55.3359 139.256L51.0879 141.192C50.2559 141.552 49.4399 141.856 48.6959 142.104C48.3279 142.232 47.9599 142.32 47.6319 142.456C47.3199 142.576 47.0159 142.712 46.7199 142.872C46.3039 143.096 45.8959 143.344 45.5119 143.608C45.3679 143.704 45.2319 143.816 45.1119 143.944H45.1279Z" fill="#F7A416"/>
<path d="M71.8717 63.2323C71.8717 60.08 68.1917 54.464 65.0397 54.576L56.968 58.032C56.504 58.048 56.0639 58.24 55.7359 58.568C55.4079 58.896 55.2159 59.328 55.1919 59.792L54.3919 81.288C54.3359 82.7843 54.872 84.2403 55.888 85.3443C56.904 86.4483 58.312 87.1043 59.808 87.1683C61.304 87.224 62.7677 86.7043 63.8877 85.7123C65.0077 84.7203 65.704 83.3283 65.8237 81.8403C65.928 80.312 65.96 78.5603 65.96 78.568C65.96 78.5763 70.0157 78.1603 71.1837 72.984C71.784 70.424 71.88 66.7363 71.88 63.2323H71.8717Z" fill="#FCC775"/>
<path d="M70.4559 66.9123C70.4482 67.0883 70.3682 67.2483 70.2402 67.368C70.1122 67.4883 69.9439 67.5523 69.7679 67.544C69.6802 67.544 69.6002 67.528 69.5202 67.496C69.4402 67.464 69.3679 67.416 69.3039 67.352C69.2399 67.288 69.1919 67.2163 69.1599 67.1363C69.1279 67.0563 69.1119 66.968 69.1119 66.888C69.1202 66.712 69.2002 66.552 69.3282 66.4323C69.4562 66.312 69.6239 66.248 69.7999 66.2563C69.8882 66.2563 69.9682 66.2723 70.0482 66.3043C70.1282 66.3363 70.1999 66.3843 70.2639 66.44C70.3279 66.504 70.3759 66.5763 70.4079 66.6563C70.4399 66.7363 70.4559 66.8239 70.4559 66.9039L70.4559 66.9123Z" fill="#EE7411"/>
<path d="M70.808 65.3917C70.7203 65.4717 70.232 65.064 69.512 65.016C68.7843 64.968 68.2403 65.2957 68.1443 65.208C68.056 65.1197 68.2 65.016 68.4483 64.856C68.776 64.664 69.16 64.568 69.5363 64.6C69.912 64.6237 70.264 64.7677 70.5603 65.0077C70.792 65.192 70.872 65.3597 70.8163 65.3917H70.808Z" fill="#EE7411"/>
<path d="M63.5759 66.6397C63.5676 66.8157 63.4876 66.9757 63.3596 67.096C63.2316 67.2157 63.0639 67.2797 62.8879 67.272C62.7996 67.272 62.7196 67.256 62.6396 67.224C62.5596 67.192 62.4879 67.144 62.4239 67.08C62.3599 67.016 62.3119 66.9437 62.2799 66.8637C62.2479 66.7837 62.2319 66.696 62.2319 66.616C62.2396 66.44 62.3196 66.28 62.4476 66.1597C62.5756 66.04 62.7439 65.976 62.9199 65.9837C63.0076 65.9837 63.0876 65.9997 63.1676 66.0317C63.2476 66.0637 63.3199 66.1117 63.3839 66.1757C63.4479 66.2397 63.4959 66.312 63.5279 66.392C63.5599 66.472 63.5759 66.5597 63.5759 66.6397Z" fill="#EE7411"/>
<path d="M63.6963 65.064C63.608 65.144 63.1203 64.7363 62.4003 64.696C61.6803 64.6563 61.128 64.9763 61.032 64.8803C60.936 64.7843 61.0883 64.6883 61.336 64.536C61.6643 64.3363 62.04 64.248 62.424 64.28C62.8003 64.3043 63.16 64.4483 63.448 64.6883C63.672 64.872 63.7443 65.0397 63.6963 65.0717L63.6963 65.064Z" fill="#EE7411"/>
<path d="M65.9677 70.5917C66.36 70.504 66.76 70.456 67.16 70.456C67.3437 70.456 67.5197 70.424 67.56 70.296C67.5837 70.104 67.56 69.912 67.4717 69.7437L67.016 68.3037C66.3837 66.2557 65.944 64.5757 66.024 64.552C66.104 64.5277 66.6877 66.168 67.3117 68.2L67.7437 69.6477C67.848 69.88 67.864 70.136 67.7917 70.376C67.7597 70.44 67.72 70.4957 67.6642 70.536C67.608 70.5757 67.544 70.6077 67.4717 70.6237C67.368 70.648 67.256 70.648 67.1523 70.648C66.7523 70.68 66.3517 70.664 65.96 70.5917H65.9677Z" fill="#EE7411"/>
<path d="M66.024 78.584C63.56 78.4637 61.1677 77.656 59.136 76.264C59.136 76.264 60.6717 79.976 65.944 79.8237L66.024 78.5917L66.024 78.584Z" fill="#F8AF3F"/>
<path d="M65.544 72.3197C65.416 72.136 65.2477 71.992 65.048 71.896C64.8477 71.8 64.632 71.752 64.408 71.768C64.248 71.768 64.088 71.8077 63.944 71.8717C63.8 71.9357 63.6637 72.0317 63.56 72.152C63.4557 72.264 63.384 72.408 63.368 72.568C63.3443 72.7197 63.368 72.8797 63.448 73.016C63.5517 73.1517 63.6963 73.2477 63.8563 73.304C64.0163 73.3597 64.1917 73.3597 64.36 73.32C64.712 73.224 65.0403 73.0557 65.32 72.824C65.4083 72.7677 65.48 72.7037 65.5363 72.6237C65.56 72.584 65.576 72.536 65.576 72.488C65.576 72.44 65.56 72.392 65.5363 72.3517" fill="#F8AF3F"/>
<path d="M63.8077 70.952C63.928 70.952 63.88 71.736 64.5117 72.3203C65.1517 72.904 65.992 72.888 65.9837 73C65.9837 73.112 65.7917 73.144 65.4397 73.128C64.9757 73.1043 64.5437 72.92 64.2077 72.6083C63.8877 72.3043 63.688 71.8877 63.672 71.448C63.6637 71.1357 63.7597 70.952 63.816 70.952H63.8077Z" fill="#EE7411"/>
<path d="M64.008 62.9597C63.928 63.1517 63.208 63.0077 62.36 63.0557C61.5037 63.1037 60.7997 63.2957 60.7037 63.1037C60.6557 63.016 60.792 62.84 61.08 62.648C61.464 62.44 61.8877 62.3197 62.328 62.296C62.7677 62.28 63.1997 62.36 63.5997 62.536C63.9037 62.7037 64.0317 62.872 64.008 62.9597Z" fill="#EE7411"/>
<path d="M70.6717 63.2797C70.536 63.432 70.0477 63.2317 69.448 63.192C68.8477 63.144 68.3357 63.2317 68.2237 63.048C68.1757 62.9597 68.2717 62.8003 68.504 62.664C68.808 62.488 69.1677 62.4163 69.512 62.456C69.864 62.488 70.2 62.6237 70.472 62.8477C70.6717 63.032 70.728 63.208 70.664 63.2797H70.6717Z" fill="#263239"/>
<path d="M65.9196 79.7763L66.0239 78.584C66.0239 78.584 68.3036 78.008 69.4876 76.5443C70.9039 74.824 71.7436 71.2483 71.4716 69.0403C71.2316 67.096 71.4319 64.44 68.3196 63.7443C66.9519 63.432 67.2239 60.9603 66.4956 59.64C65.7519 58.272 65.8639 57.816 64.3196 57.512C62.8156 57.32 61.3039 57.336 59.8079 57.56C60.2639 57.944 60.5839 58.376 60.5116 58.76C60.4156 59.272 59.5999 60.5443 59.3039 60.968C58.1839 62.584 57.5279 64.472 57.4079 66.4323C57.2719 68.6723 57.8399 70.904 58.5519 73.032C59.2639 75.16 60.2079 79.1203 60.6799 81.32C61.1516 83.512 61.2316 87.768 59.6399 89.3603C56.9039 92.0963 50.8799 90.8323 52.0559 90.008C53.9359 88.8803 55.5839 87.832 55.1839 84.8483C54.8479 85.752 54.2079 86.5123 53.3839 87C52.5519 87.4883 51.5839 87.688 50.6319 87.5523C51.8879 85.816 52.4479 83.6643 52.1839 81.5363C51.7839 81.9203 51.3199 82.216 50.8079 82.4157C50.2959 82.616 49.7439 82.712 49.1919 82.696C48.0959 82.6563 46.9999 82.472 45.9519 82.152C45.1519 81.944 44.2239 81.592 44.0639 80.7843C43.8879 79.8243 44.9519 79.128 45.8879 78.8483C46.8239 78.568 47.9439 78.2723 48.2479 77.352C48.5919 76.3203 47.6399 75.288 47.6399 74.2C47.6399 72.8323 49.0079 71.9683 49.9199 70.968C51.5439 69.144 51.7919 66.536 52.0559 64.136C52.3119 61.7283 52.7919 59.072 54.6639 57.528C55.0959 57.2 55.5679 56.928 56.0639 56.72C56.3919 55.552 57.1279 54.536 58.1359 53.848C59.2239 53.128 60.4476 52.648 61.7436 52.448C64.2799 51.936 66.9116 52.232 69.2796 53.288C70.4559 53.824 71.5036 54.592 72.3676 55.544C73.2316 56.504 73.8876 57.624 74.2959 58.848C74.6076 59.856 74.7516 60.952 75.3437 61.8083C75.9356 62.664 77.2956 63.1363 78.056 62.408C78.056 63.4243 77.8479 64.4323 77.4402 65.368L78.8637 65.2003C79.064 66.056 78.9277 66.9603 78.488 67.7283C78.04 68.488 77.3276 69.0557 76.4797 69.304C77.3917 70.104 77.464 71.5203 77.0237 72.6403C76.5839 73.7603 75.7277 74.648 74.8797 75.5037C75.5517 75.624 76.1519 75.976 76.568 76.5123C76.9916 77.048 77.1997 77.7123 77.1517 78.392C77.0479 78.808 77.0159 79.24 77.064 79.6643C77.224 80.3203 77.8959 80.68 78.3517 81.176C78.6397 81.496 78.8477 81.88 78.952 82.296C79.0557 82.712 79.048 83.1523 78.9437 83.5683C78.8317 83.9843 78.6237 84.3683 78.3279 84.68C78.0322 84.9923 77.6637 85.224 77.256 85.3603L76.3439 85.7443C76.3439 85.7443 75.6317 84.12 74.8957 83.5203C74.1597 82.92 70.856 81.048 68.3759 80.648L65.8959 80.248L65.9599 79.7763H65.9196Z" fill="#EE7411"/>
<path d="M54.376 89.8C54.496 89.848 54.632 89.8717 54.76 89.8717C55.136 89.8717 55.504 89.7757 55.824 89.592C56.688 89.1357 57.616 87.9837 58.232 86.3677C58.392 85.944 58.496 85.5037 58.56 85.048C58.616 84.5597 58.616 84.0643 58.56 83.576C58.4 82.504 58.048 81.464 57.52 80.52C57 79.512 56.336 78.5117 55.696 77.4717C55.024 76.3997 54.456 75.272 53.992 74.0963C53.536 72.9283 53.256 71.704 53.168 70.4477C53.144 69.8557 53.168 69.256 53.256 68.664C53.344 68.104 53.488 67.544 53.688 67.0083C54.488 64.904 55.872 63.3603 57 62.088C57.584 61.464 58.12 60.904 58.584 60.4003C59 59.976 59.304 59.464 59.472 58.888C59.568 58.52 59.56 58.136 59.44 57.784C59.4 57.664 59.344 57.544 59.256 57.448C59.256 57.448 59.328 57.56 59.392 57.8C59.496 58.152 59.496 58.52 59.392 58.864C59.208 59.416 58.896 59.904 58.48 60.312C58.024 60.808 57.456 61.3437 56.872 61.9677C55.72 63.2157 54.312 64.776 53.48 66.9283C53.272 67.48 53.12 68.0477 53.024 68.6237C52.936 69.224 52.912 69.8397 52.936 70.4477C53.016 71.7277 53.296 72.9917 53.768 74.1917C54.232 75.384 54.808 76.5283 55.496 77.608C56.144 78.6563 56.808 79.64 57.32 80.632C57.84 81.56 58.192 82.568 58.36 83.608C58.48 84.5283 58.376 85.464 58.064 86.344C57.488 87.928 56.592 89.08 55.784 89.5357C55.472 89.7283 55.128 89.832 54.76 89.848C54.504 89.8237 54.376 89.7923 54.368 89.8H54.376Z" fill="#F7A416"/>
<path d="M52.608 64.072C52.608 64.072 52.784 63.5677 53.152 62.7997C53.368 62.3517 53.64 61.944 53.968 61.5677C54.376 61.128 54.864 60.7677 55.416 60.504C55.976 60.24 56.528 59.936 57.048 59.592C57.48 59.296 57.824 58.896 58.056 58.432C58.216 58.12 58.288 57.76 58.248 57.408C58.248 57.28 58.2 57.152 58.128 57.048C58.128 57.168 58.136 57.296 58.152 57.416C58.152 57.736 58.056 58.048 57.904 58.328C57.656 58.752 57.32 59.112 56.912 59.384C56.392 59.704 55.848 59.992 55.296 60.248C54.728 60.52 54.216 60.904 53.8 61.3757C53.464 61.7917 53.192 62.248 53 62.744C52.864 63.0557 52.752 63.384 52.664 63.7117C52.608 63.928 52.584 64.056 52.608 64.0637V64.072Z" fill="#F7A416"/>
<path d="M77.8563 65.032C77.5682 65.2157 77.2642 65.368 76.9443 65.4877C76.0482 65.8 75.0723 65.8 74.1763 65.4877C73.5203 65.2477 72.92 64.8797 72.4162 64.3997C71.912 63.9197 71.5042 63.352 71.2162 62.712C70.8643 61.9677 70.632 61.1677 70.52 60.344C70.4323 59.44 70.2083 58.552 69.8723 57.712C69.496 56.912 68.952 56.2 68.28 55.616C67.608 55.04 66.824 54.608 65.976 54.352C64.584 53.952 63.112 53.976 61.7359 54.44C60.808 54.728 59.9679 55.232 59.272 55.912C59.088 56.096 58.9199 56.304 58.7759 56.52C58.7199 56.592 58.6799 56.672 58.6479 56.76C58.856 56.48 59.0799 56.216 59.3279 55.968C60.0319 55.336 60.8643 54.872 61.7762 54.6C63.1203 54.176 64.552 54.16 65.896 54.56C66.712 54.816 67.4639 55.232 68.1039 55.792C68.7439 56.352 69.2719 57.04 69.6322 57.808C69.9682 58.632 70.1762 59.496 70.2639 60.3843C70.3759 61.224 70.6242 62.04 70.9922 62.808C71.2879 63.464 71.7199 64.056 72.2479 64.5437C72.7842 65.032 73.4082 65.4077 74.0879 65.64C75.0159 65.944 76.0239 65.912 76.9359 65.56C77.1842 65.464 77.4082 65.336 77.6239 65.1843C77.6963 65.1357 77.7602 65.08 77.816 65.016L77.8563 65.032Z" fill="#F7A416"/>
<path d="M76.376 82.1283C76.376 82.1283 76.1277 82.04 75.6957 81.848C75.096 81.5843 74.5437 81.208 74.0637 80.7523C73.3597 80.072 72.8157 79.24 72.488 78.312C72.0797 77.1843 72.04 75.96 72.3837 74.8157C72.76 73.608 73.384 72.4963 73.5037 71.3443C73.6157 70.3363 73.448 69.3123 73.016 68.4003C72.728 67.784 72.328 67.2323 71.832 66.7683C71.6957 66.6403 71.5517 66.5283 71.4 66.424C71.2957 66.3523 71.24 66.3203 71.2317 66.328C71.2317 66.3363 71.432 66.504 71.7597 66.8323C72.216 67.3123 72.584 67.864 72.8477 68.472C73.24 69.368 73.3917 70.3523 73.2797 71.3283C73.144 72.424 72.5437 73.512 72.1437 74.76C71.784 75.9517 71.8237 77.24 72.264 78.408C72.616 79.3603 73.1837 80.2083 73.928 80.888C74.424 81.352 75.0077 81.7123 75.64 81.9523C75.8077 82.024 75.9837 82.072 76.1597 82.12C76.216 82.1443 76.28 82.152 76.344 82.152L76.376 82.1283Z" fill="#F7A416"/>
<path d="M50.424 57.784C50.336 55.52 49.4 53.376 47.8 51.776C46.208 50.176 44.064 49.224 41.808 49.128H41.352C36.312 49.208 33.56 53.528 33.776 58.56L33.816 78.712C33.816 78.712 41.688 83.352 41.984 83.512L45.496 86.0323L45.456 74.7037C45.456 74.7037 50.32 74.1603 50.592 69.3283C50.712 66.9763 50.592 62.1443 50.424 57.776V57.784Z" fill="#FCC775"/>
<path d="M45.4959 74.68C43.2479 74.584 41.0799 73.848 39.2479 72.552C39.2479 72.552 40.5839 76.0963 45.4239 75.864L45.4959 74.68Z" fill="#F8AF3F"/>
<path d="M49.2001 61.544C49.2001 61.72 49.1201 61.896 48.9921 62.0157C48.8641 62.1437 48.6881 62.2083 48.5121 62.2083C48.4241 62.2083 48.3361 62.2 48.2561 62.168C48.1761 62.136 48.0961 62.088 48.0321 62.024C47.9681 61.96 47.9201 61.8883 47.8801 61.8083C47.8481 61.7283 47.8241 61.64 47.8241 61.5523C47.8241 61.3763 47.9041 61.2003 48.0401 61.08C48.1681 60.952 48.3441 60.888 48.5201 60.888C48.6081 60.888 48.6961 60.8963 48.7761 60.9283C48.8561 60.9603 48.9361 61.0083 49.0001 61.064C49.0641 61.128 49.1121 61.2003 49.1521 61.2803C49.1921 61.3603 49.2081 61.448 49.2081 61.5363L49.2001 61.544Z" fill="#EE7411"/>
<path d="M49.2801 60.112C49.1921 60.2 48.6881 59.792 47.9441 59.76C47.2001 59.728 46.6401 60.08 46.5761 59.984C46.5121 59.888 46.6321 59.784 46.8801 59.616C47.2081 59.408 47.6001 59.312 47.9841 59.328C48.3681 59.344 48.7441 59.48 49.0481 59.72C49.2561 59.904 49.3281 60.064 49.2801 60.104V60.112Z" fill="#EE7411"/>
<path d="M41.848 61.3923C41.848 61.576 41.768 61.7443 41.632 61.864C41.504 61.992 41.328 62.056 41.152 62.056C41.064 62.056 40.976 62.0483 40.896 62.0163C40.816 61.9843 40.736 61.9363 40.672 61.8723C40.608 61.8083 40.56 61.736 40.52 61.656C40.488 61.576 40.464 61.4883 40.464 61.4C40.464 61.224 40.544 61.048 40.672 60.9283C40.8 60.8003 40.976 60.7363 41.152 60.7363C41.24 60.7363 41.328 60.744 41.408 60.776C41.488 60.808 41.568 60.856 41.632 60.9123C41.696 60.9763 41.744 61.048 41.784 61.128C41.816 61.208 41.84 61.2963 41.84 61.384L41.848 61.3923Z" fill="#EE7411"/>
<path d="M41.976 59.936C41.888 60.024 41.376 59.616 40.64 59.584C39.904 59.552 39.336 59.904 39.272 59.808C39.208 59.712 39.328 59.608 39.576 59.44C39.904 59.232 40.296 59.136 40.68 59.152C41.064 59.168 41.44 59.304 41.744 59.544C41.952 59.728 42.024 59.896 41.976 59.928V59.936Z" fill="#EE7411"/>
<path d="M44.432 65.56C44.832 65.4557 45.24 65.4 45.648 65.3917C45.84 65.3917 46.016 65.352 46.056 65.224C46.08 65.032 46.04 64.8317 45.952 64.6557C45.8 64.2 45.632 63.6957 45.456 63.1837C44.768 61.096 44.272 59.384 44.36 59.36C44.448 59.336 45.072 61.0077 45.76 63.0877L46.216 64.568C46.328 64.7997 46.352 65.064 46.288 65.3117C46.256 65.3757 46.216 65.4397 46.16 65.48C46.104 65.528 46.04 65.56 45.968 65.576C45.864 65.5997 45.752 65.608 45.648 65.608C45.248 65.64 44.84 65.624 44.44 65.5517L44.432 65.56Z" fill="#EE7411"/>
<path d="M42.2319 65.992C42.3519 65.992 42.3199 66.7997 42.9839 67.4C43.6479 67.9997 44.5119 67.9523 44.5119 68.0643C44.5119 68.1763 44.3199 68.2083 43.9519 68.2083C43.4799 68.1923 43.0319 68.0163 42.6799 67.6963C42.3439 67.3923 42.1359 66.9763 42.1039 66.52C42.0879 66.168 42.1839 65.992 42.2399 65.992H42.2319Z" fill="#EE7411"/>
<path d="M42.3041 57.04C42.2241 57.232 41.4801 57.112 40.6081 57.176C39.7361 57.248 39.0161 57.448 38.9121 57.264C38.8641 57.176 39.0001 56.992 39.2881 56.808C39.6801 56.584 40.1121 56.456 40.5601 56.424C41.0081 56.392 41.456 56.464 41.872 56.632C42.176 56.776 42.3361 56.944 42.3041 57.04Z" fill="#EE7411"/>
<path d="M49.104 57.952C48.96 58.12 48.464 57.92 47.848 57.88C47.232 57.84 46.712 57.944 46.592 57.76C46.544 57.672 46.632 57.512 46.864 57.36C47.176 57.184 47.536 57.104 47.896 57.128C48.256 57.152 48.6 57.288 48.888 57.512C49.096 57.696 49.136 57.872 49.104 57.952Z" fill="#EE7411"/>
<path d="M34.344 62.1443C34.264 62.104 31.064 61.016 31.032 64.328C30.992 67.6323 34.32 66.9923 34.328 66.8963C34.336 66.8003 34.344 62.1443 34.344 62.1443Z" fill="#FCC775"/>
<path d="M33.6239 65.6477C33.6239 65.6477 33.5679 65.688 33.4719 65.7277C33.3999 65.7597 33.3199 65.7757 33.2479 65.7757C33.1759 65.7757 33.0959 65.7597 33.0239 65.7277C32.8159 65.592 32.6399 65.4 32.5279 65.176C32.4159 64.952 32.3599 64.696 32.3759 64.4477C32.3759 64.1597 32.4239 63.88 32.5439 63.624C32.5759 63.512 32.6319 63.416 32.7119 63.336C32.7919 63.256 32.8879 63.1997 32.9999 63.1677C33.0639 63.1517 33.1359 63.16 33.1999 63.1837C33.2639 63.2157 33.3119 63.2637 33.3359 63.3277C33.3839 63.4237 33.3599 63.4877 33.3759 63.496C33.3919 63.5037 33.4479 63.4397 33.4239 63.304C33.4079 63.224 33.3599 63.144 33.2959 63.096C33.2079 63.0237 33.0879 62.9917 32.9759 63.0077C32.8399 63.032 32.7119 63.096 32.6079 63.1837C32.5039 63.272 32.4239 63.3917 32.3679 63.5197C32.2239 63.8 32.1519 64.1117 32.1599 64.4317C32.1599 65.1037 32.5039 65.7277 32.9839 65.8717C33.0719 65.896 33.1679 65.9037 33.2559 65.8877C33.3439 65.8717 33.4319 65.8397 33.5119 65.784C33.6159 65.7277 33.6559 65.656 33.6239 65.6477Z" fill="#F8AF3F"/>
<path d="M30.4879 135.944C30.4959 136.096 30.4879 136.248 30.4399 136.4C30.3599 136.792 30.2479 137.176 30.1039 137.544C29.6239 138.784 28.8319 139.872 27.7919 140.704C26.7599 141.536 25.5199 142.08 24.2079 142.28C23.8159 142.344 23.4159 142.368 23.0159 142.36C22.8639 142.368 22.7119 142.36 22.5599 142.312C22.5599 142.272 23.1839 142.312 24.1599 142.128C25.4239 141.88 26.6159 141.336 27.6239 140.536C28.6239 139.72 29.4159 138.68 29.9279 137.496C30.3439 136.568 30.4479 135.944 30.4719 135.952L30.4879 135.944Z" fill="#F7A416"/>
<path d="M41.392 137.736C41.392 137.856 41.36 137.976 41.288 138.072C41.224 138.176 41.128 138.248 41.016 138.296C40.904 138.344 40.784 138.352 40.664 138.328C40.544 138.304 40.44 138.248 40.352 138.16C40.264 138.072 40.208 137.968 40.184 137.848C40.16 137.728 40.176 137.608 40.216 137.496C40.264 137.384 40.344 137.288 40.44 137.224C40.544 137.16 40.656 137.12 40.776 137.12C40.856 137.12 40.936 137.136 41.008 137.168C41.08 137.2 41.152 137.248 41.208 137.304C41.264 137.36 41.312 137.424 41.344 137.504C41.376 137.576 41.392 137.656 41.392 137.736Z" fill="#455A64"/>
<path d="M51.784 143.48C51.472 143.264 51.192 143 50.952 142.696C49.728 141.288 48.952 139.552 48.72 137.704C48.656 137.328 48.648 136.944 48.696 136.568C48.736 136.568 48.752 137 48.88 137.688C49.192 139.48 49.952 141.168 51.08 142.6C51.336 142.88 51.576 143.176 51.792 143.48H51.784Z" fill="#F7A416"/>
<path d="M45.568 80.4797C45.736 81.0397 45.96 81.592 46.232 82.1117C46.632 83.0237 47.176 83.624 47.232 83.576C47.288 83.528 46.84 82.8957 46.448 82.0157C46.056 81.1357 45.64 80.44 45.576 80.488L45.568 80.4797Z" fill="#263239"/>
<path d="M43.672 79.9197L33.84 71.64L31.768 74.8317C31.768 74.8317 23.192 81.112 21.568 82.8963L23.712 111.432C23.712 111.432 21.432 126.44 21.272 127.624C21.112 128.808 19.768 139.168 19.768 139.168C19.592 141.128 21.208 143.512 21.536 143.512C21.536 143.512 23.192 141.528 24.968 141.688C26.744 141.848 38.792 145.096 38.792 145.096L53.424 141.84L51.872 112.984L51.352 93.688L50.08 86.3037L47.184 83.416L45.464 78.9117C45.464 78.9117 44.92 84.664 44.848 84.44C44.768 84.216 43.672 79.9357 43.672 79.9357L43.672 79.9197Z" fill="#EE7411"/>
<path d="M32.048 75.32C32.16 75.512 32.288 75.688 32.44 75.8563C32.712 76.1923 33.112 76.664 33.624 77.224C34.64 78.36 36.128 79.8563 37.728 81.5363C38.52 82.3683 39.272 83.1683 39.912 83.928L39.992 84.0163L40.072 83.9363C41.16 82.8483 41.944 81.816 42.544 81.128L43.248 80.328C43.344 80.2403 43.424 80.1443 43.496 80.04C43.384 80.104 43.288 80.184 43.2 80.28C43.016 80.4483 42.744 80.712 42.448 81.0403C41.816 81.704 41 82.728 39.92 83.7763H40.08C39.44 83.0083 38.688 82.1923 37.896 81.368C36.28 79.688 34.776 78.216 33.728 77.1043C33.208 76.552 32.784 76.0963 32.496 75.784C32.36 75.6163 32.216 75.464 32.048 75.32Z" fill="#F7A416"/>
<path d="M48.6639 127.224V126.784C48.6639 126.48 48.6239 126.056 48.5919 125.528C48.5199 124.424 48.4159 122.848 48.2879 120.92C48.0159 117.032 47.6239 111.656 47.1519 105.72C46.6799 99.784 46.2159 94.424 45.8319 90.536C45.6399 88.5917 45.4639 87.0237 45.3359 85.944C45.2639 85.4237 45.1999 85 45.1599 84.696L45.1119 84.376L45.1359 84.7037C45.1679 85.0077 45.2079 85.4237 45.2639 85.9517C45.3679 87.0557 45.5119 88.6237 45.6799 90.552C46.0239 94.44 46.4639 99.8077 46.9359 105.744C47.4079 111.68 47.8479 117.024 48.1359 120.928C48.2959 122.856 48.4239 124.424 48.5119 125.536C48.5599 126.064 48.5999 126.48 48.6239 126.784C48.6239 126.912 48.6479 127.024 48.6639 127.112C48.6639 127.144 48.6559 127.184 48.6559 127.224H48.6639Z" fill="#F7A416"/>
<path d="M38.064 133.232C38.096 133.288 41.136 131.648 44.864 129.568C48.584 127.488 51.576 125.752 51.544 125.688C51.512 125.632 48.472 127.272 44.744 129.352C41.024 131.432 38.032 133.168 38.064 133.232Z" fill="#F7A416"/>
<path d="M47.7041 143.104C47.7281 142.904 47.7281 142.704 47.7041 142.504L47.6241 140.888C47.5601 139.52 47.5521 137.648 47.5761 135.56C47.6001 133.48 47.6081 131.584 47.6001 130.224V128.608C47.6001 128.408 47.6001 128.208 47.5601 128.008C47.5201 128.2 47.5041 128.4 47.5041 128.6C47.5041 129.032 47.4721 129.568 47.4481 130.216C47.4081 131.584 47.3761 133.472 47.3441 135.552C47.3201 137.632 47.3441 139.528 47.4641 140.896C47.5121 141.576 47.5761 142.128 47.6241 142.504C47.6241 142.704 47.6561 142.896 47.6961 143.088L47.7041 143.104Z" fill="#F7A416"/>
<path d="M76.7037 121.408L52.376 121.952L51.936 113.84L81.24 116.232L76.7037 121.416V121.408Z" fill="#FCC775"/>
<path d="M95.1121 95.768L95.3841 96.3683C93.2638 100.416 85.5518 115.08 85.5518 115.08L76.0721 119.672L53.4401 118.76V117.536L65.0878 112.928L79.6401 113.288L87.4558 97.7922C87.5518 97.6002 87.6958 97.4243 87.8718 97.2963C88.0478 97.16 88.2481 97.0723 88.4638 97.032L95.1121 95.768Z" fill="#F7A416"/>
<path d="M76.072 119.672C76.3037 119.392 76.5117 119.088 76.68 118.76C77.0237 118.176 77.4877 117.368 77.9837 116.48C78.4797 115.592 78.92 114.752 79.224 114.152C79.4077 113.832 79.56 113.504 79.6797 113.152C79.448 113.432 79.2477 113.736 79.08 114.064C78.7357 114.648 78.2717 115.456 77.7757 116.344C77.2797 117.224 76.84 118.072 76.536 118.68C76.3517 118.992 76.2 119.328 76.0797 119.672H76.072Z" fill="#F7A416"/>
<path d="M73.96 117.672L64.28 117.352L71.592 113.544L79.416 113.72L73.9677 117.672L73.96 117.672Z" fill="#EE7411"/>
<path d="M53.4401 117.552C53.5201 117.576 53.6001 117.584 53.6801 117.576L54.3601 117.6L56.8561 117.672C58.9601 117.728 61.8718 117.832 65.0558 117.96C68.2481 118.08 71.1761 118.16 73.2798 118.176H76.4478C76.5278 118.176 76.6078 118.176 76.6878 118.152C76.6078 118.144 76.5278 118.144 76.4478 118.152L75.7758 118.128L73.2798 118.056C71.1761 118 68.2718 117.888 65.0801 117.776C61.8878 117.656 58.9681 117.568 56.8801 117.56H53.7121C53.6241 117.552 53.5361 117.552 53.4561 117.56L53.4401 117.552Z" fill="#F7A416"/>
<path d="M77.464 119C77.528 118.912 77.5843 118.824 77.624 118.728L78.056 117.928C78.4323 117.208 78.968 116.208 79.6003 114.976L84.6083 105.192L88.328 97.8083L88.2563 97.864L93.432 96.808L94.872 96.4963C95.048 96.4643 95.2163 96.424 95.3763 96.3683C95.2003 96.376 95.0243 96.4003 94.856 96.44L93.4083 96.696L88.216 97.6643H88.168L88.1443 97.7123C87.0563 99.8403 85.768 102.368 84.3843 105.08L79.4403 114.896L77.96 117.888L77.5683 118.712C77.5203 118.808 77.48 118.912 77.4563 119.016L77.464 119Z" fill="#F7A416"/>
<path d="M83.2317 113.584C83.2317 113.584 82.8317 113.184 82.024 114.216C81.2157 115.248 79.88 118.24 79.88 118.24L78.3997 118.912C78.3997 118.912 79.6957 117.392 79.6957 116.768C79.6957 116.144 78.7197 116.144 78.1757 117.04C77.528 117.96 76.8317 118.848 76.072 119.68C76.072 119.68 76.568 121.504 76.7037 121.416C76.84 121.328 79.2957 121.2 79.2957 121.2L79.9677 120.888C79.9677 120.888 81.624 120.888 81.7117 120.432C81.8 119.976 84.536 118.112 84.536 117.696V115.12C84.536 115.12 85.7917 112.072 85.5197 111.768C85.2477 111.456 84.1277 110.784 83.24 113.6L83.2317 113.584Z" fill="#FCC775"/>
<path d="M83.0557 113.544C83.0557 113.544 83.1037 113.544 83.176 113.576C83.224 113.6 83.2637 113.632 83.288 113.68C83.3117 113.728 83.3277 113.776 83.32 113.832C83.2157 114.16 83.0877 114.672 82.952 115.296C82.8157 115.92 82.6717 116.664 82.44 117.416C82.2717 117.92 82.008 118.384 81.656 118.784C81.3597 119.168 81.0877 119.52 80.84 119.84C80.5757 120.152 80.3357 120.488 80.136 120.848C80.44 120.568 80.7197 120.264 80.968 119.936L81.8237 118.912C81.9997 118.712 82.1597 118.496 82.3037 118.272C82.456 118.024 82.5757 117.76 82.664 117.48C82.8637 116.768 83.032 116.048 83.144 115.32C83.2477 114.76 83.3437 114.272 83.416 113.848C83.416 113.776 83.3917 113.704 83.352 113.648C83.304 113.592 83.2477 113.552 83.176 113.536C83.0877 113.504 83.048 113.52 83.048 113.536L83.0557 113.544Z" fill="#F8AF3F"/>
<path d="M83.4563 118.8C83.9683 117.616 84.328 116.376 84.5283 115.112C84.0163 116.296 83.656 117.536 83.4563 118.8Z" fill="#F8AF3F"/>
<path d="M78.8643 116.408C78.8643 116.408 78.936 116.408 79.048 116.448C79.192 116.448 79.336 116.504 79.4403 116.6C79.5523 116.72 79.512 116.952 79.384 117.192L79 118L78.616 118.792C78.4803 119.024 78.3363 119.248 78.232 119.4C78.0003 119.752 77.896 120 77.928 120.016C78.0963 119.856 78.248 119.688 78.3843 119.496C78.5443 119.304 78.696 119.112 78.84 118.904C78.9763 118.656 79.1203 118.384 79.256 118.096C79.4 117.808 79.5043 117.544 79.624 117.28C79.688 117.152 79.72 117.008 79.736 116.872C79.736 116.8 79.736 116.736 79.7123 116.664C79.688 116.6 79.656 116.536 79.608 116.488C79.5363 116.432 79.4563 116.384 79.3603 116.36C79.272 116.336 79.176 116.336 79.0883 116.352C78.9283 116.368 78.872 116.392 78.872 116.408H78.8643Z" fill="#F8AF3F"/>
<path d="M35.088 85.608C35.04 85.448 34.96 85.288 34.856 85.1523C34.608 84.7683 34.328 84.408 34.008 84.0803C33.544 83.592 33.056 83.1363 32.536 82.712C31.928 82.136 31.216 81.672 30.448 81.3443C29.648 81.0883 28.808 81 27.968 81.096C27.296 81.16 26.632 81.256 25.976 81.4C25.408 81.5043 24.952 81.6003 24.648 81.6643C24.48 81.6803 24.32 81.7283 24.168 81.7923C24.336 81.7923 24.504 81.784 24.672 81.752C24.984 81.72 25.448 81.656 26.008 81.5683C26.576 81.48 27.24 81.3603 27.992 81.32C28.792 81.24 29.608 81.3283 30.376 81.576C31.12 81.8883 31.808 82.328 32.408 82.872C32.928 83.288 33.424 83.7283 33.904 84.2C34.328 84.6563 34.728 85.128 35.104 85.6163L35.088 85.608Z" fill="#F7A416"/>
<path d="M50.608 108.152L50.272 114.296C50.272 114.296 41.16 118.56 35.192 120.096C29.224 121.632 22.208 121.392 22.208 121.392L24.712 111.4L50.608 108.144V108.152Z" fill="#FCC775"/>
<path d="M68.2403 109.408C68.264 109.16 68.2083 108.904 68.0963 108.68C67.976 108.456 67.8 108.272 67.576 108.152C66.7843 107.664 65.128 106.584 65.128 106.584L60.12 106.128L50.64 108.152L50.304 114.296C50.304 114.296 55.136 114.568 56.256 114.528C57.376 114.488 60.4963 113.488 60.4963 113.488C60.4963 113.488 65.7277 114.152 65.96 113.864C66.1917 113.576 66.5443 113.24 66.2083 113.032C65.8723 112.824 61.8403 111.784 61.8403 111.784L64.5437 111.576C64.5437 111.576 68.4963 112.408 68.7843 112.28C69.0723 112.16 69.448 111.656 69.1997 111.28L68.952 110.904C69.0243 110.712 69.016 110.496 68.9443 110.304C68.8643 110.112 68.7197 109.952 68.536 109.864L68.1597 109.736L68.2403 109.4V109.408Z" fill="#FCC775"/>
<path d="M61.064 109.336C61.448 109.48 61.864 109.544 62.2723 109.536C63.0243 109.592 64.0963 109.472 65.1683 109.784C65.672 109.968 66.168 110.176 66.648 110.416C67.0563 110.592 67.4723 110.744 67.9043 110.872C68.2883 111.016 68.696 111.096 69.1043 111.112C69.1043 111.08 68.648 110.96 67.9523 110.712C67.6003 110.584 67.1843 110.424 66.7363 110.216C66.248 109.968 65.752 109.752 65.24 109.56C64.7043 109.408 64.1603 109.336 63.608 109.344H62.28C61.528 109.376 61.0723 109.296 61.064 109.328L61.064 109.336Z" fill="#F8AF3F"/>
<path d="M61.5043 107.904C61.8563 108.024 62.2243 108.072 62.5923 108.04C63.448 107.96 64.3203 108.072 65.128 108.376C66.0643 108.768 66.9123 109.144 67.5363 109.4C67.864 109.56 68.2083 109.68 68.5603 109.76C68.264 109.552 67.9363 109.384 67.6003 109.248C66.9923 108.96 66.1603 108.552 65.208 108.16C64.7523 107.968 64.264 107.856 63.768 107.84C63.3123 107.84 62.92 107.864 62.584 107.88C61.9043 107.944 61.512 107.912 61.5043 107.912L61.5043 107.904Z" fill="#F8AF3F"/>
<path d="M21.5761 82.872C21.5761 82.872 19.0481 86.8963 18.6481 88.8643C18.2481 90.8323 17.2801 111.552 17.6721 111.944C18.0161 112.264 18.3761 112.56 18.7521 112.832C18.7521 112.832 16.4721 113.32 17.1761 114.504C17.5921 115.216 18.0481 115.904 18.5441 116.56C18.5441 116.56 18.8801 120.392 19.3041 120.488C20.2641 120.92 21.2001 121.408 22.1121 121.936C22.1121 121.936 28.9921 118.224 29.6161 116.264C30.2401 114.296 31.7121 110.368 31.7121 110.368L30.5281 107.632L34.0641 90.9361C34.0641 90.9361 35.9681 85.592 32.5441 83.4083C29.1281 81.2241 22.8561 80.6563 21.5761 82.8643V82.872Z" fill="#EE7411"/>
<path d="M33.408 94.104C33.376 94.184 33.352 94.2723 33.336 94.3523C33.296 94.536 33.232 94.776 33.16 95.0877C33.016 95.752 32.808 96.68 32.544 97.8557L30.432 107.608V107.672L31.608 110.408V110.32C30.936 112.192 30.24 114.232 29.464 116.304L29.344 116.568L29.16 116.808C29.04 116.976 28.912 117.128 28.76 117.264C28.616 117.416 28.464 117.552 28.304 117.688C28.152 117.824 28 117.96 27.848 118.08C27.224 118.592 26.568 119.056 25.92 119.488C24.616 120.36 23.312 121.136 22.064 121.824H22.168C21.568 121.488 20.984 121.168 20.416 120.872C20.128 120.72 19.848 120.576 19.552 120.456L19.44 120.408C19.44 120.408 19.336 120.376 19.336 120.368C19.304 120.328 19.272 120.28 19.256 120.232C19.2 120.096 19.16 119.952 19.12 119.816C18.888 118.736 18.728 117.632 18.64 116.528V116.504C18.288 116.048 17.976 115.592 17.728 115.176C17.584 114.96 17.456 114.76 17.336 114.552C17.28 114.456 17.232 114.36 17.192 114.256C17.16 114.16 17.152 114.056 17.168 113.96C17.248 113.56 17.624 113.336 17.928 113.184C18.208 113.048 18.504 112.944 18.8 112.864H18.88L18.808 112.816C18.424 112.544 18.152 112.336 17.976 112.184C17.8 112.032 17.712 111.96 17.704 111.968C17.704 111.968 17.704 111.992 17.76 112.04C17.816 112.08 17.864 112.144 17.944 112.224C18.208 112.456 18.48 112.68 18.76 112.888V112.816C18.448 112.88 18.144 112.984 17.848 113.12C17.672 113.208 17.512 113.304 17.36 113.424C17.184 113.56 17.064 113.752 17.008 113.968C16.984 114.088 16.984 114.208 17.008 114.328C17.056 114.44 17.104 114.552 17.168 114.656C17.288 114.864 17.416 115.072 17.552 115.288C17.824 115.744 18.128 116.168 18.464 116.656V116.616C18.544 117.728 18.696 118.84 18.92 119.936C18.952 120.088 19 120.24 19.064 120.392C19.096 120.488 19.16 120.576 19.248 120.632L19.36 120.672L19.464 120.712C19.744 120.832 20.024 120.984 20.312 121.128C20.88 121.432 21.464 121.752 22.056 122.088L22.104 122.12L22.16 122.088C23.416 121.4 24.728 120.632 26.04 119.752C26.712 119.312 27.368 118.84 27.992 118.336C28.152 118.208 28.312 118.08 28.448 117.928C28.584 117.784 28.76 117.656 28.904 117.496C29.056 117.344 29.2 117.184 29.32 117.016C29.384 116.928 29.448 116.848 29.512 116.76L29.656 116.456C30.424 114.36 31.12 112.352 31.792 110.464V110.376L30.608 107.64V107.704C31.44 103.72 32.136 100.344 32.632 97.9357C32.872 96.76 33.056 95.816 33.184 95.1523C33.24 94.84 33.288 94.6 33.328 94.408C33.352 94.3043 33.376 94.2 33.384 94.0963L33.408 94.104Z" fill="#F7A416"/>
<path d="M18.6479 112.76C18.6479 112.76 18.7599 112.832 18.9919 112.904C19.3199 113.008 19.6719 113.064 20.0159 113.056C20.2639 113.048 20.5039 112.984 20.7279 112.88C20.9759 112.76 21.2079 112.624 21.4399 112.472C21.9199 112.152 22.3999 111.768 22.9439 111.4C24.0159 110.656 25.0239 110.032 25.7439 109.576C26.1519 109.352 26.5359 109.088 26.8959 108.784C26.4639 108.96 26.0559 109.176 25.6639 109.424C24.9199 109.856 23.8879 110.456 22.8079 111.208C22.2639 111.576 21.7759 111.976 21.3199 112.288C20.9439 112.6 20.4879 112.808 20.0079 112.888C19.6799 112.904 19.3439 112.888 19.0159 112.808C18.8959 112.768 18.7759 112.744 18.6479 112.744V112.76Z" fill="#F7A416"/>
<path d="M18.5599 116.568C18.7039 116.64 18.8559 116.672 19.0159 116.672C19.4319 116.704 19.8479 116.632 20.2319 116.456C21.4399 115.856 22.5759 115.136 23.6319 114.312C24.6799 113.48 25.6799 112.584 26.6239 111.624C26.9919 111.256 27.2719 110.96 27.4639 110.752C27.5759 110.656 27.6719 110.536 27.7519 110.408C27.3119 110.744 26.8959 111.112 26.5039 111.504C25.7519 112.2 24.7199 113.16 23.4879 114.12C22.4399 114.936 21.3279 115.664 20.1599 116.304C19.8079 116.488 19.4159 116.584 19.0239 116.584C18.8719 116.576 18.7199 116.568 18.5599 116.576V116.568Z" fill="#F7A416"/>
<path d="M50.272 114.288C50.464 114.336 50.656 114.352 50.848 114.36L52.432 114.456L54.776 114.568L56.144 114.624C56.4 114.608 56.648 114.56 56.888 114.496L57.624 114.32C58.648 114.064 59.608 113.808 60.4803 113.576H60.44C61.7443 113.696 62.8483 113.792 63.6323 113.848L64.5443 113.904C64.6563 113.912 64.76 113.912 64.872 113.904C64.7683 113.864 64.664 113.84 64.552 113.832L63.64 113.712C62.8643 113.616 61.7603 113.496 60.4483 113.36H60.408L57.56 114.088L56.824 114.264C56.6 114.328 56.368 114.368 56.128 114.384L54.76 114.336L52.416 114.272L50.832 114.248C50.64 114.24 50.456 114.248 50.264 114.272L50.272 114.288Z" fill="#F8AF3F"/>
<path d="M38.6 52.512H38.568C37.792 53.08 37.288 53.896 37.152 54.792V54.88C36.96 56.168 37 57.456 36.792 58.752C36.584 60.04 36.104 61.3283 35.072 62.1923C34.648 62.552 33.896 62.8003 33.552 62.3843C33.432 62.2083 33.376 62.008 33.376 61.8C33.112 58.72 32.192 55.984 32.2 52.768C32.2 52.336 32.304 51.912 32.512 51.52C32.728 51.136 33.032 50.8 33.416 50.544C34.152 50.064 35.056 49.56 35.88 49.92C36.704 50.28 37.76 51.68 38.4 52.272" fill="#EE7411"/>
<path d="M35.56 50.832C34.816 49.664 36.856 47.9759 38.344 47.5439C39.832 47.1119 41.8 47.792 43.28 48.264C44.216 48.568 45.152 48.984 46.136 48.944C46.792 48.88 47.44 48.72 48.048 48.472C48.656 48.224 49.32 48.0959 49.984 48.1039C50.312 48.1039 50.64 48.208 50.92 48.376C51.2 48.544 51.424 48.792 51.576 49.08C51.824 49.672 51.472 50.4879 50.808 50.5759C51.016 50.4639 51.256 50.408 51.488 50.4C51.72 50.392 51.96 50.448 52.176 50.552C52.392 50.656 52.576 50.808 52.712 50.992C52.848 51.176 52.944 51.3999 52.976 51.6239C53.008 51.8559 52.984 52.088 52.912 52.304C52.832 52.52 52.704 52.7199 52.528 52.8799C52.352 53.0399 52.144 53.152 51.912 53.216C51.68 53.28 51.44 53.2879 51.208 53.2399C51.632 52.9199 52.296 53.448 52.24 53.96C52.184 54.216 52.056 54.456 51.872 54.648C51.688 54.84 51.464 54.992 51.208 55.072C49.936 55.608 48.48 55.432 47.176 55.008C45.872 54.584 44.664 53.92 43.352 53.464C42.048 53.008 39.888 52.184 38.6 52.64C37.648 52.968 36.44 53.8399 36.44 53.8399L35.8 53.296C35.632 53.064 35.528 52.808 35.488 52.528C35.416 51.984 35.44 51.4239 35.544 50.8799" fill="#EE7411"/>
<path d="M148.2 2.19995H13.8001C7.3936 2.19995 2.20007 7.39344 2.20007 13.8V148.2C2.20007 154.606 7.3936 159.8 13.8001 159.8H148.2C154.607 159.8 159.8 154.606 159.8 148.2V13.8C159.8 7.39344 154.607 2.19995 148.2 2.19995Z" stroke="#F7A416" stroke-width="3"/>
<path d="M52.936 120.944L52.9439 120.944L52.944 120.944H52.936Z" fill="#455A64"/>
<path d="M152.418 115.745C152.345 115.358 152.356 114.954 152.267 114.574C152.079 113.778 151.881 112.982 151.631 112.202C151.421 111.544 151.134 110.91 150.879 110.265C150.393 109.046 149.689 107.956 148.875 106.936C148.531 106.504 148.124 106.123 147.774 105.694C147.108 104.874 146.297 104.216 145.472 103.577C144.675 102.956 143.81 102.433 142.911 101.977C142.264 101.651 141.608 101.324 140.926 101.095C139.951 100.768 138.968 100.461 137.939 100.296C137.058 100.156 136.18 100.023 135.289 100.004C134.16 99.9801 133.04 100.056 131.921 100.247C130.991 100.407 130.081 100.617 129.189 100.919C128.013 101.316 126.893 101.834 125.816 102.46C124.089 103.463 122.61 104.764 121.302 106.259C120.576 107.087 119.97 108.012 119.416 108.97C118.847 109.958 118.371 110.996 118.017 112.073C117.687 113.076 117.386 114.093 117.233 115.153C117.112 115.987 117.066 116.824 117.01 117.655C116.967 118.289 117.072 118.937 117.133 119.573C117.187 120.153 117.238 120.736 117.351 121.307C117.456 121.842 117.641 122.363 117.791 122.889C118.006 123.636 118.275 124.362 118.589 125.077C118.995 126 119.47 126.882 120.026 127.718C120.907 129.037 121.912 130.257 123.123 131.287C123.369 131.498 123.474 131.73 123.474 132.062C123.464 134.96 123.469 137.86 123.469 140.758C123.469 143.498 123.482 146.243 123.461 148.983C123.453 149.871 123.676 150.689 124.17 151.387C125.008 152.569 126.136 153.292 127.637 153.325C128.596 153.344 129.474 153.101 130.248 152.542C131.217 151.843 132.16 151.11 133.113 150.389C133.589 150.03 134.045 149.669 134.706 149.674C135.21 149.674 135.659 149.777 136.054 150.068C137.152 150.877 138.232 151.714 139.336 152.518C140.413 153.3 141.613 153.524 142.905 153.193C144.082 152.89 144.967 152.183 145.575 151.139C146.026 150.365 146.147 149.501 146.147 148.617V138.108C146.147 136.06 146.147 134.013 146.141 131.965C146.141 131.687 146.224 131.485 146.455 131.312C146.703 131.129 146.923 130.902 147.143 130.683C147.943 129.882 148.714 129.056 149.364 128.123C149.952 127.278 150.46 126.393 150.89 125.46C151.158 124.88 151.384 124.281 151.609 123.682C151.741 123.334 151.856 122.975 151.935 122.614C152.09 121.899 152.23 121.178 152.345 120.455C152.437 119.878 152.522 119.295 152.533 118.715C152.552 117.728 152.6 116.734 152.415 115.753L152.418 115.745Z" fill="white"/>
<path d="M152.267 114.574C152.079 113.778 151.881 112.982 151.631 112.202C151.421 111.544 151.134 110.91 150.879 110.265C150.393 109.046 149.689 107.956 148.875 106.936C148.531 106.504 148.124 106.123 147.774 105.694C147.108 104.874 146.297 104.216 145.472 103.577C144.675 102.956 143.81 102.433 142.911 101.977C142.264 101.651 141.608 101.324 140.926 101.095C139.951 100.768 138.968 100.461 137.939 100.296C137.058 100.156 136.18 100.023 135.289 100.004C134.16 99.9801 133.04 100.056 131.921 100.247C130.991 100.407 130.081 100.617 129.189 100.919C128.013 101.316 126.893 101.834 125.816 102.46C124.089 103.463 122.61 104.764 121.302 106.259C120.576 107.087 119.97 108.012 119.416 108.97C118.847 109.958 118.371 110.996 118.017 112.073C117.687 113.076 117.386 114.093 117.233 115.153C117.112 115.987 117.066 116.824 117.01 117.655C116.967 118.289 117.072 118.937 117.133 119.573C117.187 120.153 117.238 120.736 117.351 121.307C117.456 121.842 117.641 122.363 117.791 122.889C118.006 123.636 118.275 124.362 118.589 125.077C118.995 126 119.47 126.882 120.026 127.718C120.907 129.037 121.912 130.257 123.123 131.287C123.369 131.498 123.474 131.73 123.474 132.062C123.464 134.96 123.469 137.86 123.469 140.758C123.469 143.498 123.482 146.243 123.461 148.983C123.453 149.871 123.676 150.689 124.17 151.387C125.008 152.569 126.136 153.292 127.637 153.325C128.596 153.344 129.474 153.101 130.248 152.542C131.217 151.843 132.16 151.11 133.113 150.389C133.589 150.03 134.045 149.669 134.706 149.674C135.21 149.674 135.659 149.777 136.054 150.068C137.152 150.877 138.232 151.714 139.336 152.518C140.413 153.3 141.613 153.524 142.905 153.193C144.082 152.89 144.967 152.183 145.575 151.139C146.026 150.365 146.147 149.501 146.147 148.617V138.108C146.147 136.06 146.147 134.013 146.141 131.965C146.141 131.687 146.224 131.485 146.455 131.312C146.703 131.129 146.923 130.902 147.143 130.683C147.943 129.882 148.714 129.056 149.364 128.123C149.952 127.278 150.46 126.393 150.89 125.46C151.158 124.88 151.384 124.281 151.609 123.682C151.741 123.334 151.856 122.975 151.935 122.614C152.09 121.899 152.23 121.178 152.345 120.455C152.437 119.878 152.522 119.295 152.533 118.715C152.552 117.728 152.6 116.734 152.415 115.753C152.342 115.367 152.354 114.962 152.265 114.582L152.267 114.574ZM143.917 148.743C143.917 149.315 143.805 149.857 143.434 150.33C143.069 150.794 142.045 151.239 141.377 151.039C140.821 150.875 140.41 150.519 139.97 150.192C138.963 149.447 137.961 148.695 136.943 147.963C136.524 147.661 136.019 147.564 135.522 147.462C134.802 147.313 134.088 147.381 133.406 147.618C132.995 147.761 132.595 147.98 132.24 148.236C131.292 148.921 130.371 149.647 129.436 150.349C129.031 150.653 128.628 150.95 128.107 151.05C127.46 151.177 126.917 150.988 126.431 150.586C125.894 150.141 125.685 149.548 125.688 148.854C125.695 146.337 125.69 143.817 125.69 141.3H125.693V133.511C125.693 133.184 125.704 133.19 126.002 133.338C126.866 133.764 127.723 134.206 128.61 134.585C129.155 134.816 129.74 134.962 130.317 135.111C131.013 135.289 131.714 135.488 132.423 135.561C133.39 135.661 134.37 135.655 135.345 135.677C135.756 135.688 136.172 135.693 136.578 135.639C137.228 135.556 137.88 135.459 138.514 135.297C139.422 135.065 140.329 134.811 141.21 134.484C141.919 134.223 142.585 133.843 143.27 133.516C143.466 133.422 143.668 133.338 143.869 133.249C143.885 133.454 143.912 133.659 143.912 133.867C143.915 138.826 143.917 143.782 143.912 148.74L143.917 148.743ZM146.184 128.439C143.05 131.849 139.081 133.546 134.486 133.468C130.301 133.398 126.67 131.789 123.737 128.752C120.807 125.713 119.319 122.063 119.317 117.053C119.363 113.878 120.641 110.394 123.241 107.462C125.891 104.475 129.229 102.713 133.221 102.344C137.869 101.912 141.962 103.261 145.397 106.455C148.322 109.172 149.942 112.566 150.264 116.551C150.632 121.1 149.251 125.093 146.182 128.436L146.184 128.439Z" fill="#F6A313"/>
<path d="M136.537 114.331L134.819 110.835L133.1 114.331C132.893 114.749 132.495 115.04 132.036 115.108L128.196 115.669L130.975 118.391C131.308 118.718 131.459 119.187 131.381 119.646L130.726 123.488L134.16 121.675C134.367 121.567 134.593 121.513 134.819 121.513C135.044 121.513 135.27 121.567 135.477 121.675L138.912 123.488L138.256 119.646C138.178 119.185 138.329 118.715 138.662 118.391L141.442 115.669L137.601 115.108C137.142 115.04 136.744 114.752 136.537 114.331Z" fill="#F6A313"/>
<path d="M148.422 116.713C148.137 113.203 146.711 110.217 144.135 107.824C141.109 105.009 137.504 103.822 133.411 104.203C129.896 104.529 126.957 106.081 124.624 108.711C122.333 111.293 121.208 114.361 121.167 117.156C121.167 121.567 122.48 124.783 125.059 127.456C127.64 130.133 130.838 131.547 134.523 131.609C138.571 131.676 142.067 130.184 144.825 127.179C147.53 124.235 148.744 120.72 148.419 116.713H148.422ZM143.432 116.357L140.15 119.571L140.923 124.108C141.014 124.645 140.8 125.177 140.362 125.495C139.924 125.816 139.354 125.857 138.874 125.603L134.819 123.461L130.763 125.603C130.554 125.713 130.328 125.767 130.105 125.767C129.813 125.767 129.525 125.676 129.276 125.495C128.838 125.174 128.623 124.643 128.714 124.108L129.488 119.571L126.205 116.357C125.819 115.977 125.682 115.421 125.849 114.903C126.015 114.385 126.453 114.015 126.99 113.937L131.526 113.276L133.554 109.148C133.792 108.66 134.279 108.358 134.821 108.358C135.364 108.358 135.847 108.66 136.086 109.148L138.114 113.276L142.65 113.937C143.187 114.015 143.622 114.385 143.791 114.903C143.958 115.421 143.821 115.977 143.434 116.357H143.432Z" fill="#F6A313"/>
</svg>
