<svg width="530" height="247" viewBox="0 0 530 247" fill="none" xmlns="http://www.w3.org/2000/svg">
<path d="M0 10C0 4.47716 4.47715 0 10 0H520C525.523 0 530 4.47715 530 10V237C530 242.523 525.523 247 520 247H9.99999C4.47715 247 0 242.523 0 237V10Z" fill="#D9D9D9"/>
<path fill-rule="evenodd" clip-rule="evenodd" d="M520 3H10C6.13401 3 3 6.13401 3 10V237C3 240.866 6.134 244 9.99999 244H520C523.866 244 527 240.866 527 237V10C527 6.134 523.866 3 520 3ZM10 0C4.47715 0 0 4.47716 0 10V237C0 242.523 4.47714 247 9.99999 247H520C525.523 247 530 242.523 530 237V10C530 4.47715 525.523 0 520 0H10Z" fill="#575656"/>
<path d="M458.003 19.0146H407.44V71.7197H458.003V19.0146Z" fill="#E0E0E0"/>
<path d="M454.577 19.0146H404.015V71.7197H454.577V19.0146Z" fill="#FAFAFA"/>
<path d="M454.562 71.7421H404V19H454.562V71.7421ZM404 71.705H454.562V19.0593H404.03L404 71.705Z" fill="#E0E0E0"/>
<path d="M447.785 26.1035H410.814V64.6387H447.785V26.1035Z" fill="#FAFAFA"/>
<path d="M410.814 64.8906C410.552 65.2776 410.246 65.6334 409.902 65.9509C409.309 66.5738 408.479 67.4339 407.552 68.3385C406.625 69.2432 405.765 70.0662 405.135 70.652C404.813 70.9878 404.455 71.2863 404.067 71.5418C404.325 71.1536 404.629 70.7977 404.972 70.4814C405.565 69.8586 406.395 68.9985 407.329 68.0939C408.264 67.1892 409.116 66.3588 409.747 65.7804C410.068 65.4446 410.426 65.1461 410.814 64.8906Z" fill="#E0E0E0"/>
<path d="M447.785 64.8018C448.173 65.0638 448.529 65.3698 448.846 65.7138C449.468 66.2996 450.328 67.13 451.226 68.0643C452.123 68.9986 452.961 69.8439 453.539 70.4742C453.875 70.7955 454.173 71.1536 454.429 71.5419C454.036 71.2894 453.68 70.9851 453.369 70.6373C452.746 70.0441 451.886 69.2136 450.981 68.2793C450.076 67.3451 449.246 66.4924 448.668 65.8621C448.331 65.5462 448.035 65.1901 447.785 64.8018Z" fill="#E0E0E0"/>
<path d="M447.681 26.1996C447.955 25.8126 448.273 25.4592 448.63 25.1466C449.223 24.5238 450.053 23.6637 450.98 22.7665C451.907 21.8693 452.767 21.0314 453.398 20.453C453.717 20.1151 454.075 19.8165 454.465 19.5632C454.206 19.9524 453.899 20.3085 453.553 20.6236C452.967 21.2464 452.137 22.1065 451.203 23.0112C450.268 23.9158 449.408 24.7462 448.778 25.3246C448.45 25.661 448.082 25.9549 447.681 26.1996Z" fill="#E0E0E0"/>
<path d="M410.711 26.2964C410.321 26.0366 409.965 25.7303 409.65 25.3843C409.027 24.7986 408.167 23.9681 407.27 23.0338C406.373 22.0996 405.535 21.2468 404.957 20.6166C404.619 20.2972 404.32 19.9388 404.067 19.5488C404.451 19.8124 404.804 20.1183 405.12 20.4609C405.743 21.0466 406.603 21.8845 407.507 22.8114C408.412 23.7382 409.25 24.6058 409.828 25.2361C410.165 25.5519 410.461 25.908 410.711 26.2964Z" fill="#E0E0E0"/>
<path d="M447.681 64.6385C447.681 64.6385 447.681 64.5718 447.681 64.4532C447.681 64.3345 447.681 64.1418 447.681 63.9119C447.681 63.4299 447.681 62.7329 447.681 61.8283C447.681 60.0042 447.681 57.3794 447.644 53.9759C447.644 47.2284 447.599 37.6113 447.57 26.1034L447.71 26.2443H410.844L411.007 26.0811C411.007 40.2213 411.007 53.4569 411.007 64.6385L410.866 64.4977L437.559 64.5718L445.056 64.6089H447.043H445.086H437.619L410.836 64.683H410.695V64.5422C410.695 53.4198 410.695 40.1472 410.695 25.9847V25.8142H410.814H447.681H447.822V25.9625C447.822 37.5075 447.77 47.1543 447.748 53.9315C447.748 57.2904 447.748 59.9301 447.71 61.7467C447.71 62.6439 447.71 63.3261 447.71 63.8007C447.71 64.0231 447.71 64.2011 447.71 64.3271C447.711 64.4317 447.701 64.536 447.681 64.6385Z" fill="#E0E0E0"/>
<path d="M435.469 39.1982H423.13V51.5366H435.469V39.1982Z" fill="#EBEBEB"/>
<path d="M458.003 84.2214H407.44V136.926H458.003V84.2214Z" fill="#E0E0E0"/>
<path d="M454.577 84.2214H404.015V136.926H454.577V84.2214Z" fill="#FAFAFA"/>
<path d="M454.562 136.949H404V84.2065H454.562V136.949ZM404 136.912H454.562V84.2659H404.03L404 136.912Z" fill="#E0E0E0"/>
<path d="M447.785 91.3101H410.814V129.845H447.785V91.3101Z" fill="#FAFAFA"/>
<path d="M410.814 130.104C410.549 130.49 410.244 130.845 409.902 131.165C409.309 131.788 408.479 132.648 407.552 133.545C406.625 134.442 405.765 135.28 405.135 135.858C404.813 136.194 404.455 136.493 404.067 136.748C404.325 136.36 404.629 136.004 404.972 135.688C405.565 135.065 406.395 134.205 407.329 133.3C408.264 132.396 409.116 131.565 409.747 130.987C410.064 130.649 410.423 130.352 410.814 130.104Z" fill="#E0E0E0"/>
<path d="M447.785 130.009C448.173 130.271 448.529 130.577 448.846 130.921C449.468 131.506 450.328 132.337 451.226 133.271C452.123 134.205 452.961 135.051 453.539 135.681C453.878 136.002 454.177 136.363 454.429 136.756C454.04 136.496 453.684 136.19 453.369 135.844C452.746 135.258 451.886 134.42 450.981 133.494C450.076 132.567 449.246 131.699 448.668 131.069C448.331 130.753 448.035 130.397 447.785 130.009Z" fill="#E0E0E0"/>
<path d="M447.681 91.4139C447.939 91.0213 448.245 90.6625 448.593 90.3461C449.186 89.7233 450.016 88.8631 450.943 87.9659C451.87 87.0687 452.73 86.2383 453.36 85.6525C453.68 85.3146 454.038 85.0159 454.428 84.7627C454.168 85.1519 453.862 85.508 453.516 85.823C452.93 86.4459 452.1 87.306 451.166 88.2106C450.231 89.1152 449.371 89.9457 448.741 90.5241C448.421 90.8585 448.066 91.1569 447.681 91.4139Z" fill="#E0E0E0"/>
<path d="M410.711 91.5028C410.321 91.2431 409.965 90.9368 409.65 90.5908C409.027 90.005 408.167 89.1746 407.27 88.2403C406.373 87.306 405.535 86.4607 404.957 85.8304C404.621 85.5091 404.322 85.151 404.067 84.7627C404.454 85.0188 404.808 85.3228 405.12 85.6673C405.743 86.2531 406.603 87.091 407.507 88.0178C408.412 88.9447 409.25 89.8122 409.828 90.4425C410.165 90.7584 410.461 91.1145 410.711 91.5028Z" fill="#E0E0E0"/>
<path d="M447.681 129.845C447.681 129.845 447.681 129.778 447.681 129.66C447.681 129.541 447.681 129.348 447.681 129.118C447.681 128.636 447.681 127.939 447.681 127.042C447.681 125.211 447.681 122.593 447.644 119.183C447.644 112.435 447.6 102.818 447.57 91.3099L447.711 91.4508H410.844L411.007 91.2877C411.007 105.428 411.007 118.663 411.007 129.845L410.815 129.697L437.508 129.771H445.005H446.992H445.034H437.567L410.785 129.845H410.644V129.704C410.644 118.582 410.644 105.309 410.644 91.1468V91.1394H410.815H447.681H447.822V91.2877C447.822 102.833 447.77 112.479 447.748 119.257C447.748 122.616 447.748 125.255 447.711 127.079C447.711 127.969 447.711 128.651 447.711 129.126C447.711 129.348 447.711 129.526 447.711 129.652C447.706 129.717 447.696 129.782 447.681 129.845Z" fill="#E0E0E0"/>
<path d="M435.469 104.405H423.13V116.743H435.469V104.405Z" fill="#EBEBEB"/>
<path d="M297.684 77.4817L298.122 78.2232C298.615 79.0382 299.33 79.6965 300.183 80.1214L300.925 80.4921L300.183 80.937C299.365 81.4268 298.706 82.1426 298.285 82.9984L297.907 83.7399L297.469 82.9984C296.978 82.1817 296.262 81.523 295.408 81.1002L294.667 80.722L295.408 80.2845C296.225 79.7928 296.883 79.0775 297.306 78.2232L297.684 77.4817Z" fill="#E0E0E0"/>
<path d="M375.829 57.0237L376.266 57.7652C376.753 58.5916 377.469 59.2589 378.328 59.6856L379.069 60.0638L378.328 60.5013C377.511 60.993 376.852 61.7083 376.43 62.5626L376.051 63.3041L375.614 62.5626C375.12 61.7475 374.405 61.0893 373.553 60.6644L372.811 60.2862L373.553 59.8488C374.369 59.357 375.028 58.6417 375.451 57.7874L375.829 57.0237Z" fill="#E0E0E0"/>
<path d="M336.012 32.2507L336.234 32.6141C336.48 33.0225 336.837 33.3519 337.265 33.5632L337.65 33.756L337.287 33.971C336.874 34.2172 336.542 34.5778 336.33 35.0091L336.145 35.3872L335.923 35.0239C335.679 34.6138 335.321 34.2839 334.892 34.0748L334.506 33.882L334.877 33.6596C335.285 33.4135 335.615 33.0559 335.826 32.6289L336.012 32.2507Z" fill="#E0E0E0"/>
<path d="M366.264 57.2981L366.48 57.6614C366.728 58.0701 367.088 58.3994 367.518 58.6105L367.896 58.8033L367.532 59.0183C367.124 59.267 366.794 59.6271 366.583 60.0564L366.391 60.4346L366.176 60.0713C365.927 59.6626 365.567 59.3333 365.137 59.1222L364.759 58.9294L365.123 58.7143C365.531 58.4657 365.861 58.1056 366.072 57.6763L366.264 57.2981Z" fill="#E0E0E0"/>
<path d="M337.584 84.0364L337.806 84.3997C338.052 84.8079 338.41 85.1372 338.837 85.3488L339.223 85.5416L338.852 85.7566C338.443 86.0053 338.114 86.3654 337.903 86.7947L337.71 87.1729L337.495 86.8095C337.247 86.4007 336.89 86.0693 336.464 85.853L336.079 85.6676L336.442 85.4452C336.852 85.1996 337.184 84.8421 337.398 84.4145L337.584 84.0364Z" fill="#E0E0E0"/>
<path d="M372.53 106.244C372.797 104.294 370.039 102.685 367.963 102.536C366.967 102.577 365.971 102.493 364.997 102.284C362.965 101.543 362.157 98.955 360.177 98.1171C358.694 97.4943 356.989 98.0504 355.55 98.7696C354.112 99.4889 352.695 100.401 351.101 100.505C349.707 100.594 348.187 100.075 346.971 100.757C346.059 101.268 345.585 102.314 344.747 102.937C343.872 103.47 342.864 103.743 341.84 103.723C340.817 103.696 339.798 103.862 338.837 104.212C338.364 104.399 337.963 104.734 337.696 105.167C337.429 105.6 337.309 106.108 337.354 106.615L372.53 106.244Z" fill="#EBEBEB"/>
<path d="M191.186 76.3964C191.452 74.4463 188.694 72.8373 186.618 72.689C185.623 72.7298 184.626 72.6451 183.652 72.4369C181.62 71.6954 180.812 69.1076 178.832 68.2697C177.349 67.6469 175.644 68.203 174.205 68.9222C172.767 69.6415 171.351 70.5535 169.757 70.6573C168.363 70.7463 166.842 70.2272 165.626 70.9094C164.714 71.421 164.24 72.4665 163.402 73.0894C162.528 73.6225 161.519 73.8952 160.495 73.8754C159.472 73.8487 158.454 74.0147 157.492 74.3647C157.019 74.5516 156.619 74.8865 156.351 75.3195C156.084 75.7525 155.964 76.2603 156.009 76.7672L191.186 76.3964Z" fill="#EBEBEB"/>
<path d="M242.318 35.5577C242.689 32.8736 238.9 30.6639 236.06 30.4415C234.695 30.3303 233.287 30.5379 232.004 30.0856C229.216 29.1142 228.104 25.518 225.39 24.3687C223.358 23.516 221.015 24.2797 219.043 25.2659C217.07 26.2521 215.128 27.4904 212.925 27.6461C211.012 27.7721 208.936 27.0603 207.26 27.9946C206.007 28.6916 205.355 30.13 204.205 30.9605C203.007 31.6964 201.622 32.0722 200.216 32.0431C198.815 32.0086 197.419 32.2348 196.101 32.7104C194.833 33.2962 193.78 34.6383 194.04 36.0101L242.318 35.5577Z" fill="#F5F5F5"/>
<path d="M123.667 22H37.8545V164.04H123.667V22Z" fill="#E0E0E0"/>
<path d="M120.812 22H35V164.04H120.812V22Z" fill="#EBEBEB"/>
<path d="M117.157 24.8772H38.6558V161.155H117.157V24.8772Z" fill="#FAFAFA"/>
<path d="M101.875 42.584H53.604V143.449H101.875V42.584Z" fill="#EBEBEB"/>
<path d="M53.589 107.761C53.4778 98.3364 61.9456 89.1345 71.2809 87.8221C75.7298 87.1918 80.4531 88.0816 84.6277 86.3391C92.0426 83.2916 94.4079 73.4372 101.875 70.5083L102.216 143.411H53.589V107.761Z" fill="#E0E0E0"/>
<path d="M230.591 107.386L246.393 104.338L276.705 111.293L292.068 114.497L292.291 135.488L258.019 141.798L234.892 134.947L226.15 122.082L230.591 107.386Z" fill="#BABBBB"/>
<path d="M219.365 109.477L234.277 105.962C234.277 105.962 244.821 138.588 270.84 137.156C292.046 136.007 292.068 114.497 292.068 114.497L307.573 117.233C307.573 117.233 314.076 156.598 306.95 184.211C301.018 207.197 295.754 238.696 295.754 238.696H192.753L219.365 109.477Z" fill="#363637"/>
<path d="M370.458 210.341C370.458 210.341 327.978 135.918 320.334 126.368C311.962 115.913 305.282 117.121 305.282 117.121L300.788 167.253L336.906 218.498L345.515 221.605L370.458 210.341Z" fill="#363637"/>
<path d="M221.145 109.061C221.145 109.061 197.002 110.989 188.341 150.585C184.426 168.477 179.443 189.446 178.049 203.534C177.011 213.759 183.321 224.392 193.517 225.697L206.315 228.07C209.696 228.698 213.189 228.005 216.075 226.135C218.96 224.264 221.019 221.358 221.827 218.016L226.15 200.116L214.634 196.246L217.296 142.925L221.145 109.061Z" fill="#363637"/>
<path d="M309.545 144.905C309.601 145.083 309.638 145.267 309.656 145.454C309.723 145.854 309.797 146.388 309.901 147.048C309.952 147.396 310.004 147.789 310.071 148.205C310.138 148.62 310.16 149.087 310.205 149.584C310.308 150.57 310.427 151.697 310.479 152.95C310.658 155.881 310.678 158.819 310.538 161.752C310.365 165.341 310.009 168.92 309.47 172.474C308.914 176.255 308.217 179.829 307.513 183.062C306.809 186.295 306.104 189.194 305.504 191.626C304.903 194.058 304.376 196.008 304.021 197.358C303.843 198.003 303.702 198.522 303.59 198.908C303.546 199.089 303.489 199.268 303.42 199.441C303.435 199.256 303.467 199.072 303.516 198.893C303.605 198.492 303.731 197.973 303.88 197.321L305.244 191.53C305.815 189.09 306.497 186.191 307.172 182.958C307.847 179.725 308.544 176.159 309.1 172.385C309.656 168.61 310.034 164.97 310.19 161.7C310.345 158.43 310.36 155.427 310.19 152.935C310.19 151.69 310.056 150.563 309.975 149.569C309.938 149.08 309.901 148.62 309.871 148.19C309.841 147.76 309.774 147.389 309.737 147.033C309.663 146.373 309.611 145.839 309.567 145.439C309.548 145.262 309.54 145.083 309.545 144.905Z" fill="#263238"/>
<path d="M227.276 202.029C227.225 201.924 227.183 201.815 227.15 201.703C227.076 201.458 226.972 201.147 226.846 200.747L226.372 199.212C226.238 198.513 225.944 197.856 225.512 197.291C224.877 196.682 224.118 196.217 223.287 195.927C222.31 195.558 221.303 195.275 220.277 195.082C217.83 194.628 215.35 194.38 212.862 194.34H212.662V194.147L214.842 179.933C216.243 170.983 217.518 162.879 218.445 156.947C218.927 154.04 219.313 151.675 219.587 149.999C219.721 149.206 219.832 148.575 219.913 148.108C219.913 147.916 219.98 147.752 220.01 147.619C220.015 147.562 220.03 147.507 220.054 147.456C220.066 147.512 220.066 147.57 220.054 147.626C220.054 147.76 220.054 147.923 219.995 148.123C219.936 148.59 219.847 149.221 219.743 150.021C219.498 151.705 219.15 154.077 218.727 156.991C217.822 162.923 216.592 171.013 215.227 179.978C214.426 185.094 213.677 189.936 213.003 194.184L212.832 193.984C215.35 194.049 217.858 194.329 220.329 194.822C221.369 195.03 222.389 195.33 223.376 195.719C224.241 196.036 225.024 196.543 225.667 197.202C225.932 197.5 226.13 197.852 226.246 198.233L226.52 199.219C226.691 199.82 226.831 200.339 226.95 200.769C227.069 201.199 227.143 201.51 227.202 201.74C227.236 201.834 227.261 201.931 227.276 202.029Z" fill="#263238"/>
<path d="M194.021 208.08C194.045 207.742 194.109 207.408 194.214 207.086C194.447 206.193 194.76 205.322 195.148 204.484C196.413 201.683 198.384 199.26 200.868 197.451C203.352 195.643 206.264 194.512 209.318 194.169C210.233 194.058 211.156 194.028 212.076 194.08C212.416 194.084 212.754 194.127 213.085 194.207C211.846 194.214 210.608 194.29 209.377 194.436C206.393 194.848 203.557 195.991 201.121 197.763C198.685 199.535 196.725 201.882 195.415 204.595C194.888 205.731 194.423 206.894 194.021 208.08Z" fill="#263238"/>
<path d="M199.604 188.371C199.793 188.323 199.989 188.305 200.183 188.319C200.715 188.309 201.248 188.334 201.777 188.393C203.528 188.569 205.244 188.999 206.871 189.669C208.498 190.342 210.021 191.243 211.394 192.345C211.81 192.675 212.204 193.031 212.573 193.413C212.833 193.687 212.974 193.843 212.951 193.865C212.929 193.888 212.299 193.346 211.231 192.56C208.431 190.509 205.173 189.17 201.74 188.66C200.428 188.467 199.604 188.438 199.604 188.371Z" fill="#263238"/>
<path d="M224.593 137.156C224.544 136.805 224.527 136.45 224.541 136.096C224.541 135.414 224.496 134.435 224.407 133.227C224.185 130.073 223.643 126.95 222.791 123.906C221.926 120.866 220.761 117.921 219.313 115.112C218.75 114.037 218.275 113.177 217.927 112.598C217.731 112.302 217.562 111.99 217.422 111.664C217.659 111.928 217.87 112.213 218.053 112.517C218.446 113.08 218.957 113.918 219.536 114.986C222.622 120.586 224.373 126.824 224.652 133.212C224.704 134.428 224.696 135.436 224.652 136.096C224.667 136.451 224.647 136.806 224.593 137.156Z" fill="#263238"/>
<g opacity="0.3">
<path d="M308.448 178.116C314.602 167.684 314.735 154.129 309.36 143.266C311.089 154.84 310.717 166.63 308.262 178.072" fill="black"/>
</g>
<g opacity="0.3">
<path d="M253.651 189.913C248.98 191.285 242.529 191.619 237.954 189.913C241.52 194.978 248.394 196.809 254.355 195.163C260.317 193.517 265.819 187.548 266.278 181.371C263.394 185.272 258.33 188.564 253.651 189.913Z" fill="black"/>
</g>
<path d="M270.839 173.067C270.817 173.209 270.78 173.348 270.728 173.482C270.639 173.749 270.535 174.157 270.327 174.646C269.787 176.063 269.114 177.426 268.318 178.717C267.144 180.642 265.726 182.406 264.099 183.967C260.107 187.853 254.954 190.326 249.425 191.011C247.19 191.301 244.927 191.301 242.692 191.011C241.183 190.823 239.693 190.498 238.243 190.04C237.724 189.884 237.346 189.713 237.079 189.617C236.944 189.571 236.812 189.514 236.686 189.446C237.225 189.568 237.757 189.716 238.28 189.891C244.558 191.637 251.253 191.082 257.159 188.327C263.004 185.453 267.623 180.574 270.172 174.58C270.602 173.616 270.802 173.052 270.839 173.067Z" fill="#263238"/>
<path d="M218.757 224.978C218.757 224.978 218.705 225.06 218.572 225.178C218.385 225.364 218.184 225.535 217.971 225.69C217.195 226.269 216.335 226.724 215.42 227.04C214.06 227.492 212.641 227.742 211.209 227.781C209.476 227.836 207.742 227.774 206.018 227.596C202.311 227.277 199.019 226.736 196.638 226.313C195.445 226.098 194.481 225.912 193.821 225.772C193.469 225.724 193.124 225.64 192.79 225.52C193.143 225.525 193.495 225.56 193.843 225.623L196.683 226.039C199.07 226.402 202.377 226.891 206.055 227.21C207.779 227.388 209.513 227.46 211.246 227.425C212.649 227.396 214.042 227.171 215.383 226.758C216.591 226.337 217.728 225.737 218.757 224.978Z" fill="#263238"/>
<path d="M302.5 29.8851L305.548 26.9191C309.604 28.6839 311.48 33.3923 312.169 37.7671C312.859 42.1419 312.755 46.7391 314.616 50.758C316.04 53.85 318.628 56.6899 318.324 60.1082C318.035 63.3336 315.113 65.9437 315.098 69.184C315.098 72.3056 317.694 74.7007 319.206 77.4293C322.268 82.9534 324.256 105.554 322.654 111.671C309.181 110.507 285.32 109.069 271.84 105.969C275.392 82.7458 290.347 49.972 302.5 29.8851Z" fill="#263238"/>
<path d="M308.529 50.5876C309.463 34.8013 298 20.3571 282.021 18.4515C265.063 16.4347 250.063 28.5802 248.654 45.1006L244.68 111.79C244.607 113.079 244.967 114.355 245.703 115.416C249.618 121.14 256.707 125.619 263.046 126.501C269.178 127.354 275.399 125.76 280.62 122.853C281.485 122.364 282.208 121.655 282.714 120.799C283.22 119.943 283.492 118.969 283.504 117.974L283.778 103.048C283.777 103.035 283.779 103.022 283.783 103.01C283.788 102.998 283.795 102.986 283.804 102.977C283.813 102.968 283.824 102.961 283.836 102.957C283.849 102.952 283.862 102.95 283.875 102.952C285.271 103.057 286.675 103.017 288.064 102.833C292.009 101.869 302.071 97.9984 305.452 83.228C306.579 78.3341 307.706 64.4312 308.529 50.5876Z" fill="#BABBBB"/>
<path d="M286.596 72.3948C286.596 72.2465 288.249 72.0834 290.926 71.9351C291.601 71.9351 292.246 71.8239 292.409 71.379C292.508 70.6988 292.394 70.0045 292.083 69.3918L290.422 64.2014C288.123 56.8458 286.507 50.8175 286.803 50.7359C287.1 50.6544 289.213 56.5344 291.512 63.89C292.06 65.7066 292.587 67.4343 293.091 69.0804C293.299 69.8219 293.677 70.7265 293.269 71.6978C293.156 71.9242 292.992 72.1216 292.79 72.2745C292.588 72.4275 292.354 72.5321 292.105 72.5802C291.727 72.6555 291.341 72.6829 290.956 72.6618C288.257 72.6469 286.603 72.5431 286.596 72.3948Z" fill="#263238"/>
<path d="M304.169 56.1711C303.88 56.49 302.13 55.0218 299.624 54.9477C297.117 54.8735 295.249 56.186 294.982 55.8449C294.848 55.6892 295.152 55.1034 295.968 54.4954C297.046 53.7209 298.349 53.3246 299.676 53.3683C301 53.414 302.272 53.9022 303.287 54.7549C304.065 55.4222 304.354 56.0303 304.169 56.1711Z" fill="#263238"/>
<path d="M278.706 56.8086C278.365 57.1275 276.541 55.4739 273.805 55.2367C271.068 54.9994 268.94 56.2525 268.666 55.8818C268.533 55.7112 268.903 55.1403 269.83 54.5323C271.072 53.7964 272.516 53.4744 273.953 53.6128C275.391 53.7403 276.749 54.331 277.823 55.296C278.632 56.0152 278.869 56.6677 278.706 56.8086Z" fill="#263238"/>
<path d="M283.779 102.944C283.779 102.944 273.561 103.055 261.341 94.6617C261.341 94.6617 264.5 108.142 283.697 107.719L283.779 102.944Z" fill="#9B9D9C"/>
<path d="M285.076 78.5491C284.61 77.8926 283.988 77.3634 283.265 77.0098C282.542 76.6561 281.742 76.4894 280.938 76.5248C280.358 76.5333 279.785 76.6585 279.254 76.8929C278.723 77.1273 278.244 77.4661 277.846 77.8892C277.467 78.2944 277.223 78.8082 277.15 79.3586C277.077 79.9091 277.178 80.4686 277.439 80.9589C278.084 81.9896 279.552 82.3233 280.835 82.0563C282.105 81.7087 283.294 81.1141 284.334 80.3064C284.643 80.1088 284.914 79.8577 285.135 79.5649C285.239 79.4282 285.301 79.2636 285.311 79.092C285.322 78.9203 285.281 78.7494 285.195 78.601" fill="#9B9D9C"/>
<path d="M278.737 73.6332C279.167 73.6332 278.996 76.4509 281.309 78.616C283.623 80.7812 286.685 80.6774 286.685 81.0704C286.685 81.2557 285.944 81.5746 284.683 81.5153C283.012 81.4224 281.425 80.7544 280.19 79.6245C279.014 78.549 278.306 77.0558 278.217 75.4647C278.18 74.2858 278.544 73.6332 278.737 73.6332Z" fill="#263238"/>
<path d="M279.144 46.4723C278.832 47.1545 276.23 46.628 273.123 46.7541C270.016 46.8801 267.458 47.4956 267.087 46.8653C266.931 46.5464 267.406 45.9236 268.466 45.3156C269.876 44.5811 271.433 44.1731 273.022 44.1218C274.611 44.0705 276.191 44.3771 277.646 45.019C278.721 45.5529 279.247 46.146 279.144 46.4723Z" fill="#263238"/>
<path d="M304.71 47.0286C304.176 47.6218 302.063 47.0286 299.519 47.0286C296.976 47.0286 294.841 47.4512 294.329 46.8358C294.107 46.5392 294.44 45.946 295.375 45.3528C296.668 44.675 298.112 44.3358 299.572 44.3669C301.032 44.398 302.46 44.7984 303.724 45.5308C304.643 46.1314 304.947 46.7394 304.71 47.0286Z" fill="#263238"/>
<path d="M284.335 15.1148C282.955 12.7717 280.397 11.7039 277.535 11.2738C265.849 9.50169 252.814 16.5384 246.267 26.3706C239.719 36.2027 239.371 50.8768 244.161 61.6728L251.45 57.1201C266.079 51.0844 276.408 36.9887 285.818 22.4258C287.13 20.4461 285.558 17.1539 284.335 15.1148Z" fill="#263238"/>
<path d="M302.338 21.5433C297.451 15.9821 293.9 10.421 283.756 14.3064C282.273 17.1463 285.239 20.8315 287.79 22.9818C291.497 26.1405 294.678 28.2686 297.095 30.5301C301.974 35.0903 307.521 50.4317 308.003 58.8031C308.003 59.3296 308.929 51.6181 309.486 51.5365C310.168 51.4327 312.919 48.0664 312.541 43.4691C311.236 27.757 307.224 27.0971 302.338 21.5433Z" fill="#263238"/>
<path d="M277.565 11.2738C278.327 11.1251 279.115 11.1919 279.841 11.4666C281.636 12.0171 283.236 13.0693 284.453 14.4993C284.801 14.9012 285.108 15.3358 285.373 15.7969C285.603 16.2423 285.782 16.7124 285.906 17.1983C286.171 17.9816 286.372 18.785 286.507 19.6007C286.707 21.0318 286.366 21.8993 286.292 21.8771C286.218 21.8548 286.329 21.0021 286.018 19.6897C285.812 18.9132 285.564 18.1483 285.276 17.3985C285.144 16.9601 284.971 16.5355 284.757 16.1305C284.506 15.7056 284.219 15.3036 283.897 14.9293C282.749 13.5993 281.296 12.5665 279.663 11.9189C278.403 11.4666 277.55 11.3924 277.565 11.2738Z" fill="#455A64"/>
<path d="M301.855 61.0279C301.856 61.5967 301.639 62.1442 301.249 62.5579C300.858 62.9717 300.324 63.2202 299.757 63.2524C299.475 63.2788 299.19 63.2486 298.92 63.1637C298.65 63.0788 298.399 62.9407 298.183 62.7577C297.967 62.5747 297.79 62.3504 297.661 62.0979C297.533 61.8455 297.456 61.5699 297.436 61.2875C297.421 60.7098 297.632 60.1492 298.024 59.7243C298.416 59.2994 298.957 59.0436 299.534 59.0111C299.82 58.9836 300.109 59.0147 300.383 59.1024C300.657 59.1902 300.91 59.3327 301.127 59.5214C301.345 59.71 301.521 59.9409 301.646 60.1999C301.771 60.4589 301.842 60.7406 301.855 61.0279Z" fill="#263238"/>
<path d="M277.431 61.1463C277.446 61.724 277.235 62.2846 276.843 62.7094C276.452 63.1343 275.91 63.3901 275.333 63.4227C275.051 63.4501 274.767 63.4209 274.497 63.3368C274.227 63.2528 273.976 63.1155 273.76 62.933C273.544 62.7506 273.366 62.5268 273.238 62.2747C273.109 62.0226 273.033 61.7473 273.012 61.4651C272.996 60.8862 273.206 60.3237 273.598 59.8972C273.99 59.4708 274.532 59.2139 275.111 59.1813C275.393 59.1539 275.678 59.1833 275.948 59.2679C276.219 59.3524 276.47 59.4904 276.686 59.6736C276.902 59.8568 277.08 60.0815 277.208 60.3344C277.336 60.5874 277.412 60.8635 277.431 61.1463Z" fill="#263238"/>
<path d="M210.222 79.7059C211.602 77.4369 213.188 75.3014 215.709 74.3597C218.231 73.418 221.093 72.8768 223.072 71.0379C226.179 68.1831 226.038 63.4376 225.757 59.3001C225.475 55.1626 225.401 50.4022 228.574 47.6217C231.229 45.3008 235.448 45.0932 237.747 42.4312C239.281 40.6591 239.585 38.2122 240.119 35.9506C241.602 29.8927 244.917 19.3116 262.772 13.224L246.978 73.2401C248.157 73.5738 250.975 76.258 251.13 78.0746C251.271 79.7726 250.537 81.4929 250.522 83.1983C250.522 85.2819 252.791 86.5276 254.23 88.0699C256.054 90.0348 256.617 92.8673 256.336 95.4848C255.751 99.0621 254.794 102.569 253.481 105.947C238.829 104.464 217.445 103.99 206.278 94.6469C204.253 92.9563 207.153 84.7554 210.222 79.7059Z" fill="#263238"/>
<path d="M251.479 57.1202C251.205 56.9719 240.416 52.6713 239.726 64.0531C239.037 75.435 250.582 73.7444 250.619 73.4255C250.656 73.1067 251.479 57.1202 251.479 57.1202Z" fill="#BABBBB"/>
<path d="M247.415 68.9171C247.363 68.8726 247.208 69.0431 246.859 69.1692C246.377 69.3456 245.845 69.327 245.376 69.1173C244.205 68.5982 243.308 66.6333 243.374 64.5868C243.412 63.6117 243.665 62.657 244.116 61.7914C244.245 61.4437 244.456 61.1322 244.731 60.8831C245.006 60.6341 245.336 60.4548 245.695 60.3603C245.926 60.3141 246.166 60.3503 246.374 60.4628C246.581 60.5752 246.742 60.7567 246.83 60.9757C246.963 61.302 246.874 61.5244 246.933 61.5467C246.993 61.5689 247.193 61.3687 247.126 60.8942C247.084 60.6078 246.942 60.3454 246.726 60.1527C246.429 59.8965 246.042 59.7685 245.651 59.7968C245.179 59.8595 244.731 60.0424 244.351 60.3281C243.97 60.6138 243.67 60.9926 243.478 61.428C242.936 62.3843 242.636 63.4584 242.603 64.5571C242.536 66.8483 243.574 69.058 245.191 69.6289C245.49 69.7375 245.809 69.7766 246.125 69.7432C246.441 69.7098 246.746 69.6048 247.015 69.4361C247.378 69.184 247.452 68.9393 247.415 68.9171Z" fill="#9B9D9C"/>
<path d="M291.853 60.0935C291.913 59.2382 292.035 58.3882 292.216 57.5502C292.559 56.148 293.191 54.8327 294.071 53.6883C294.951 52.544 296.06 51.5958 297.327 50.9043C298.594 50.2128 299.992 49.7932 301.43 49.6722C302.869 49.5513 304.317 49.7318 305.682 50.2021C306.622 50.5191 307.507 50.9793 308.307 51.5664C309.161 52.1567 309.912 52.8831 310.531 53.7167C311.86 55.4565 312.595 57.5764 312.63 59.7652C312.665 61.954 311.997 64.0962 310.724 65.8771C310.136 66.7284 309.415 67.4795 308.588 68.1016C307.809 68.7157 306.939 69.2036 306.008 69.5475C304.288 70.2102 302.421 70.3997 300.603 70.0962C299.017 69.8345 297.515 69.2019 296.22 68.2499C294.325 66.8707 292.948 64.8935 292.313 62.6368C292.108 61.8024 291.959 60.9552 291.868 60.101C291.865 60.1578 291.865 60.2147 291.868 60.2715C291.868 60.4124 291.868 60.5755 291.868 60.7757C291.874 61.0468 291.902 61.317 291.949 61.5839C291.99 61.9521 292.06 62.3166 292.157 62.6739C292.752 64.9956 294.126 67.0425 296.05 68.4724C297.474 69.5382 299.145 70.2264 300.907 70.4727C302.669 70.719 304.465 70.5155 306.127 69.8812C308.1 69.1355 309.806 67.819 311.028 66.0996C312.35 64.2546 313.044 62.0335 313.008 59.7639C312.972 57.4943 312.208 55.2964 310.828 53.4943C310.185 52.6348 309.409 51.8838 308.529 51.2698C307.707 50.6797 306.799 50.2195 305.837 49.9055C304.156 49.3245 302.356 49.1783 300.603 49.4804C298.85 49.7825 297.202 50.523 295.813 51.6332C293.931 53.1253 292.622 55.2203 292.105 57.5651C292.02 57.9263 291.961 58.293 291.927 58.6625C291.891 58.9328 291.874 59.2053 291.875 59.4781C291.875 59.6783 291.875 59.8414 291.875 59.9749C291.866 60.0141 291.859 60.0537 291.853 60.0935Z" fill="#455A64"/>
<path d="M263.202 60.5533C263.261 59.6983 263.38 58.8484 263.558 58.01C264.115 55.7355 265.421 53.7143 267.265 52.2709C268.53 51.2787 270.011 50.598 271.588 50.2837C273.396 49.9262 275.267 50.0568 277.008 50.6618C277.947 50.9819 278.832 51.4419 279.633 52.0262C280.486 52.6185 281.237 53.3446 281.858 54.1765C283.185 55.9152 283.92 58.0331 283.956 60.2201C283.992 62.407 283.327 64.548 282.058 66.3295C281.467 67.1805 280.743 67.9315 279.915 68.5539C279.136 69.1683 278.265 69.6563 277.335 69.9998C275.614 70.6626 273.748 70.852 271.929 70.5485C270.346 70.2871 268.846 69.6544 267.554 68.7022C265.657 67.323 264.278 65.3462 263.639 63.0892C263.435 62.255 263.289 61.4077 263.202 60.5533C263.194 60.6098 263.194 60.6673 263.202 60.7238C263.202 60.8573 263.202 61.0278 263.202 61.228C263.202 61.4992 263.226 61.7697 263.276 62.0363C263.316 62.4051 263.388 62.7698 263.491 63.1262C264.08 65.4506 265.455 67.4995 267.384 68.9247C268.695 69.9097 270.219 70.5749 271.833 70.8674C273.708 71.1905 275.636 71.0062 277.416 70.3335C279.392 69.5934 281.1 68.2757 282.317 66.5519C283.64 64.7069 284.334 62.4858 284.298 60.2162C284.262 57.9467 283.497 55.7487 282.117 53.9466C280.842 52.2657 279.094 51.0033 277.097 50.3207C275.296 49.7052 273.363 49.5849 271.499 49.9722C269.514 50.3803 267.689 51.352 266.242 52.7711C264.796 54.1901 263.789 55.9962 263.343 57.9729C263.251 58.3326 263.191 58.6999 263.165 59.0703C263.121 59.3398 263.103 59.613 263.113 59.8859V60.3827C263.13 60.4454 263.16 60.5036 263.202 60.5533Z" fill="#455A64"/>
<path d="M283.667 59.7748C283.726 59.8118 284.023 59.3299 284.712 58.7738C285.596 58.0407 286.704 57.6303 287.852 57.61C289 57.5898 290.121 57.961 291.03 58.6625C291.771 59.189 292.053 59.6636 292.105 59.6191C291.921 59.1507 291.607 58.7444 291.201 58.4475C290.272 57.6346 289.073 57.197 287.839 57.2203C286.605 57.2436 285.424 57.7261 284.527 58.5736C284.133 58.8854 283.835 59.3016 283.667 59.7748Z" fill="#455A64"/>
<path d="M248.869 56.3937C249.552 56.6102 250.255 56.7543 250.968 56.8238C252.28 57.0314 254.097 57.2242 256.099 57.4022L261.237 57.8619C261.941 57.9703 262.653 58.0248 263.365 58.025C262.683 57.8068 261.98 57.6601 261.267 57.5875C259.962 57.3873 258.145 57.1946 256.136 57.0166L251.005 56.5569C250.299 56.4438 249.584 56.3893 248.869 56.3937Z" fill="#455A64"/>
<path d="M308.403 66.5073C309.328 65.438 310.079 64.2293 310.627 62.9259C311.058 61.5763 311.276 60.1679 311.272 58.7513C311.437 59.1503 311.513 59.5805 311.495 60.0118C311.521 61.0504 311.35 62.0846 310.991 63.0593C310.632 64.0342 310.088 64.9306 309.389 65.699C308.848 66.2774 308.432 66.5443 308.403 66.5073Z" fill="white"/>
<path d="M310.197 54.7919C310.257 54.7029 310.679 54.9179 310.939 55.4221C311.198 55.9263 311.087 56.3861 310.983 56.3786C310.879 56.3712 310.79 55.9931 310.59 55.5853C310.39 55.1774 310.13 54.8734 310.197 54.7919Z" fill="white"/>
<path d="M282.228 64.2606C282.169 64.2606 282.376 63.6674 282.547 62.7109C282.984 60.202 282.502 57.6195 281.19 55.4369C280.693 54.6064 280.293 54.1467 280.337 54.1022C280.774 54.421 281.142 54.8245 281.42 55.2886C282.165 56.3667 282.676 57.5881 282.923 58.875C283.169 60.1618 283.145 61.4859 282.851 62.7628C282.747 63.299 282.535 63.8085 282.228 64.2606Z" fill="white"/>
<path d="M242.811 73.2699C242.811 73.2699 242.655 73.4923 242.433 73.9001C242.114 74.4794 241.946 75.1296 241.944 75.7909C241.932 76.2704 242.019 76.7471 242.2 77.1912C242.381 77.6353 242.652 78.0371 242.996 78.3713C243.411 78.7836 243.918 79.0919 244.474 79.271C245.031 79.4501 245.622 79.495 246.2 79.402C246.773 79.2839 247.312 79.0343 247.772 78.6727C248.233 78.3111 248.603 77.8475 248.854 77.3184C249.057 76.8837 249.169 76.4122 249.183 75.9328C249.197 75.4534 249.113 74.9762 248.936 74.5304C248.702 73.9135 248.32 73.3635 247.824 72.9288C247.468 72.6248 247.23 72.4987 247.245 72.4691C247.49 72.5319 247.718 72.6484 247.913 72.8101C248.478 73.2215 248.919 73.7808 249.188 74.4266C249.403 74.9046 249.514 75.4226 249.514 75.9466C249.514 76.4707 249.403 76.9887 249.188 77.4667C248.933 78.0626 248.534 78.5858 248.026 78.9894C247.519 79.3929 246.919 79.6642 246.281 79.7789C245.643 79.8936 244.987 79.848 244.371 79.6463C243.755 79.4447 243.198 79.0932 242.752 78.6234C242.382 78.2528 242.095 77.8081 241.91 77.3186C241.725 76.8291 241.645 76.3059 241.677 75.7835C241.702 75.0854 241.92 74.4079 242.307 73.826C242.566 73.4182 242.811 73.255 242.811 73.2699Z" fill="#E0E0E0"/>
<path d="M305.445 82.0193C306.072 82.2703 306.764 82.312 307.417 82.138C308.116 81.9424 308.745 81.5544 309.234 81.0183C309.836 80.3682 310.242 79.5611 310.405 78.6901C310.575 77.8186 310.466 76.9157 310.094 76.1097C309.789 75.4488 309.334 74.8676 308.767 74.4117C308.219 74.011 307.62 73.6844 306.987 73.4403C307.176 73.4234 307.366 73.4488 307.543 73.5145C308.045 73.6536 308.517 73.8822 308.937 74.1892C309.567 74.652 310.076 75.2599 310.42 75.9614C310.844 76.8283 310.974 77.8094 310.791 78.7568C310.609 79.7037 310.156 80.5772 309.486 81.2704C308.942 81.8376 308.243 82.2321 307.477 82.4049C306.963 82.5262 306.425 82.4979 305.927 82.3233C305.578 82.1825 305.43 82.0342 305.445 82.0193Z" fill="#E0E0E0"/>
<path d="M264.314 229.249L275.31 232.504C275.31 232.504 281.375 235.107 284.327 235.782C287.989 236.62 290.488 235.485 290.622 233.446C290.755 231.407 287.908 231.148 287.908 231.148C285.488 230.226 283.134 229.138 280.864 227.892C279.215 226.747 277.867 225.221 276.934 223.444L280.864 223.985C280.864 223.985 289.131 229.917 292.246 231.711C295.36 233.505 296.042 230.354 296.309 229.405C296.576 228.456 287.1 218.839 287.1 218.839C287.1 218.839 296.176 224.667 297.799 226.12C299.423 227.574 301.87 228.048 302.411 227.106C302.953 226.165 304.443 226.157 302.411 222.138C300.38 218.12 284.119 207.309 284.119 207.309L288.568 206.36L293.447 208.532C293.787 210.206 294.479 211.789 295.479 213.174C297.236 215.784 300.357 213.174 300.357 213.174L298.422 203.164L288.783 197.128C288.783 197.128 278.758 198.352 277.268 199.026C275.777 199.701 274.146 202.541 274.146 202.541L271.439 203.638C267.235 204.854 267.376 209.059 266.019 209.192C264.662 209.326 225.111 201.614 225.111 201.614L221.53 200.68C215.598 205.181 213.233 212.618 212.187 219.217C212.187 219.217 211.097 222.45 212.187 224.229L264.314 229.249Z" fill="#BABBBB"/>
<path d="M257.055 222.213C257.008 222.001 256.995 221.783 257.018 221.567C257.015 221.319 257.037 221.07 257.084 220.826C257.119 220.49 257.183 220.157 257.277 219.832C257.834 217.96 258.776 216.225 260.043 214.738C261.273 213.244 262.644 211.871 264.136 210.638C264.727 210.099 265.37 209.619 266.056 209.207C265.508 209.775 264.926 210.31 264.314 210.808C262.888 212.087 261.559 213.47 260.339 214.946C259.108 216.401 258.16 218.073 257.544 219.877C257.107 221.293 257.136 222.22 257.055 222.213Z" fill="#9B9D9C"/>
<path d="M274.184 202.541C274.184 202.541 273.857 202.711 273.353 203.119C272.65 203.713 272.043 204.41 271.551 205.188C271.197 205.714 270.894 206.272 270.647 206.856C270.419 207.543 270.274 208.255 270.217 208.977C270.115 209.816 269.815 210.619 269.342 211.32C268.805 211.998 268.363 212.747 268.029 213.545C267.522 214.892 267.522 216.379 268.029 217.727L268.081 217.867L267.955 217.949C266.236 219.059 264.991 220.769 264.463 222.746C264.28 223.526 264.169 224.32 264.129 225.119C264.069 224.912 264.044 224.697 264.055 224.481C264.047 223.88 264.112 223.28 264.248 222.694C264.721 220.618 265.98 218.805 267.762 217.638L267.688 217.86C267.151 216.426 267.151 214.845 267.688 213.411C268.03 212.59 268.49 211.823 269.052 211.135C269.503 210.47 269.788 209.708 269.883 208.91C269.972 207.497 270.49 206.144 271.366 205.032C271.889 204.244 272.547 203.554 273.309 202.993C273.514 202.839 273.738 202.712 273.976 202.615C274.042 202.582 274.111 202.557 274.184 202.541Z" fill="#9B9D9C"/>
<path d="M283.704 206.975C282.755 207.098 281.791 206.995 280.889 206.676C279.987 206.356 279.173 205.829 278.514 205.136C278.588 205.047 279.581 205.811 281.012 206.308C282.444 206.804 283.704 206.864 283.704 206.975Z" fill="#9B9D9C"/>
<path d="M286.239 217.927C284.808 217.525 283.415 216.994 282.08 216.34C280.692 215.807 279.353 215.157 278.076 214.397C279.504 214.81 280.895 215.341 282.235 215.984C283.623 216.517 284.962 217.167 286.239 217.927Z" fill="#9B9D9C"/>
<path d="M277.32 223.34C275.881 222.852 274.474 222.272 273.108 221.604C273.882 221.639 274.64 221.836 275.333 222.183C276.072 222.419 276.75 222.813 277.32 223.34Z" fill="#9B9D9C"/>
<path d="M284.875 218.631C284.237 218.974 283.676 219.443 283.226 220.011C282.775 220.578 282.446 221.232 282.258 221.931C282.206 221.931 282.162 221.672 282.258 221.256C282.363 220.712 282.597 220.202 282.94 219.767C283.283 219.332 283.726 218.986 284.23 218.757C284.594 218.602 284.861 218.587 284.875 218.631Z" fill="#9B9D9C"/>
<path d="M288.85 212.618C288.894 212.722 288.168 213.092 287.678 213.923C287.429 214.45 287.221 214.995 287.055 215.554C286.95 215.248 286.922 214.921 286.974 214.601C287.026 214.282 287.156 213.98 287.352 213.723C287.916 212.774 288.835 212.514 288.85 212.618Z" fill="#9B9D9C"/>
<path d="M287.731 201.725C287.694 201.725 287.545 201.555 287.434 201.199C287.301 200.713 287.301 200.201 287.434 199.716C287.563 199.236 287.82 198.801 288.176 198.455C288.443 198.196 288.665 198.107 288.687 198.144C288.334 198.662 288.047 199.222 287.835 199.812C287.724 200.443 287.689 201.086 287.731 201.725Z" fill="#9B9D9C"/>
<path d="M367.893 205.136C367.893 205.136 367.396 195.408 357.312 193.391C347.228 191.374 329.566 199.946 329.566 199.946L280.079 234.432L281.562 238.696L331.79 231.696L336.387 233.461L371.667 210.282L404.96 186.213L401.253 183.314C401.253 183.314 391.925 189.743 385.756 192.508C379.586 195.274 370.666 200.124 367.893 205.136Z" fill="#F5F5F5"/>
<path d="M279.314 240.105L321.193 214.086L365.468 206.975C365.468 206.975 367.692 210.193 371.451 209.407L407.858 184.196L408.548 185.716L337.943 235.322C336.907 235.701 335.786 235.789 334.703 235.577C333.619 235.366 332.614 234.862 331.797 234.121L279.314 240.105Z" fill="#363637"/>
<path d="M365.468 206.975C365.368 207.084 365.253 207.179 365.127 207.257L364.104 207.998C363.214 208.636 361.931 209.563 360.396 210.734C357.252 213.07 352.981 216.399 348.369 220.174C343.757 223.948 339.612 227.455 336.646 230.013L333.109 233.053L332.145 233.869C332.041 233.972 331.924 234.062 331.797 234.136C331.797 234.136 331.886 234.017 332.093 233.817L333.006 232.942C333.806 232.2 334.97 231.118 336.439 229.82C339.36 227.21 343.46 223.681 348.095 219.892C352.729 216.103 356.993 212.811 360.203 210.527C361.79 209.377 363.103 208.488 364.022 207.887L365.082 207.205C365.204 207.117 365.333 207.04 365.468 206.975Z" fill="#263238"/>
<path d="M365.015 201.562C361.004 197.254 354.686 195.719 348.814 196.179C342.941 196.639 337.373 198.826 331.893 200.999L280.664 236.064L281.123 237.384L332.627 202.534C332.627 202.534 344.135 198.826 349.229 198.189C357.741 197.128 365.015 201.562 365.015 201.562Z" fill="#E0E0E0"/>
<path d="M373.053 206.174L397.685 189.557C397.685 189.557 377.502 200.057 373.053 206.174Z" fill="#E0E0E0"/>
<path d="M280.664 236.064C280.726 236 280.796 235.942 280.871 235.893L281.509 235.441L283.963 233.713L293.039 227.425L323.069 206.805L331.789 200.873C336.751 198.634 341.987 197.061 347.36 196.194C351.701 195.581 356.127 196.205 360.129 197.996C361.625 198.692 363.004 199.617 364.215 200.739C365.12 201.583 365.89 202.561 366.498 203.638C366.881 204.314 367.18 205.034 367.388 205.781C367.44 206.026 367.484 206.219 367.522 206.367C367.538 206.433 367.55 206.5 367.559 206.567C367.292 205.567 366.898 204.605 366.387 203.705C365.764 202.656 364.989 201.704 364.088 200.88C362.875 199.793 361.505 198.893 360.025 198.211C356.062 196.488 351.697 195.902 347.42 196.52C342.089 197.394 336.895 198.956 331.967 201.169H332.004L323.284 207.101L293.232 227.648L284.082 233.839L281.59 235.5L280.931 235.93C280.846 235.984 280.757 236.029 280.664 236.064Z" fill="#263238"/>
<path d="M325.509 209.555C325.626 209.459 325.756 209.379 325.895 209.318C326.154 209.177 326.54 208.962 327.037 208.71C328.038 208.191 329.498 207.464 331.337 206.634C336.106 204.399 341.166 202.849 346.367 202.029C351.597 201.24 356.939 201.728 361.939 203.453C363.441 203.995 364.884 204.688 366.247 205.522C366.736 205.803 367.085 206.078 367.329 206.263C367.459 206.343 367.58 206.435 367.693 206.538C367.693 206.538 367.151 206.226 366.173 205.67C364.793 204.895 363.346 204.248 361.85 203.735C356.873 202.102 351.584 201.658 346.404 202.437C341.24 203.254 336.206 204.75 331.434 206.886C329.587 207.687 328.112 208.369 327.089 208.851L325.917 209.392C325.787 209.46 325.65 209.515 325.509 209.555Z" fill="#263238"/>
<path d="M403.639 185.168C403.639 185.168 403.536 185.264 403.321 185.413L402.364 186.05L398.812 188.334C395.802 190.262 391.657 192.924 387.112 195.92C382.566 198.915 378.503 201.666 375.537 203.668L372.03 206.026L371.066 206.656C370.958 206.735 370.841 206.8 370.717 206.849C370.809 206.752 370.911 206.665 371.021 206.59L371.948 205.9C372.749 205.307 373.921 204.469 375.381 203.438C378.303 201.384 382.366 198.589 386.919 195.593C391.472 192.598 395.646 189.973 398.686 188.104C400.206 187.17 401.445 186.429 402.305 185.924L403.306 185.346C403.411 185.276 403.523 185.217 403.639 185.168Z" fill="#263238"/>
<path d="M381.232 211.832C380.729 213.042 380.09 214.192 379.327 215.257C378.377 216.384 375.278 217.956 375.033 220.099C374.789 222.242 375.293 227.269 371.941 231.096C369.781 233.476 367.047 235.262 364 236.286L350.779 234.996L329.662 226.684C329.19 226.564 328.784 226.264 328.531 225.848C328.279 225.432 328.2 224.933 328.312 224.459C328.443 223.944 328.725 223.48 329.121 223.126C329.517 222.772 330.01 222.544 330.537 222.472L331.041 222.391C331.041 222.391 329.825 221.397 331.567 219.654C333.05 218.171 336.216 219.009 337.848 219.551C339.479 220.092 349.044 224.089 350.757 224.704C352.277 225.245 353.449 225.727 353.449 225.727C353.449 225.727 341.207 217.467 341.036 216.384C340.836 215.087 340.969 214.494 342.222 213.589C343.705 212.514 346.138 213.663 348.495 214.657C350.253 215.398 361.457 220.93 361.457 220.93C361.457 220.93 361.961 220.44 361.457 219.447C360.952 218.453 357.23 213.663 356.644 212.773C356.059 211.884 355.903 211.379 356.489 210.631C357.304 209.57 359.455 209.066 361.434 210.875C362.688 212.032 367.144 215.028 367.144 215.028L387.713 200.02C387.713 200.02 390.271 199.953 389.381 203.52C388.491 207.086 381.232 211.832 381.232 211.832Z" fill="#BABBBB"/>
<path d="M365.898 224.341C365.075 224.158 364.308 223.779 363.663 223.237C363.018 222.695 362.513 222.005 362.19 221.226C362.287 221.167 362.887 222.087 363.911 222.939C364.934 223.792 365.95 224.229 365.898 224.341Z" fill="#9B9D9C"/>
<path d="M367.588 215.391C367.588 215.346 367.863 215.265 368.33 215.324C368.913 215.409 369.461 215.652 369.915 216.027C370.369 216.403 370.71 216.896 370.903 217.452C371.044 217.882 371.021 218.194 370.97 218.194C370.659 217.501 370.216 216.877 369.665 216.355C369.042 215.902 368.336 215.574 367.588 215.391Z" fill="#9B9D9C"/>
<path d="M368.56 219.521C368.449 219.521 368.397 218.416 367.959 217.156C367.522 215.895 366.907 214.968 366.995 214.931C367.647 215.487 368.111 216.23 368.323 217.059C368.654 217.836 368.737 218.696 368.56 219.521Z" fill="#9B9D9C"/>
<path d="M380.728 210.764C380.728 210.801 380.468 210.653 380.201 210.297C379.863 209.824 379.651 209.273 379.586 208.695C379.521 208.118 379.605 207.533 379.831 206.997C380.009 206.597 380.209 206.397 380.246 206.426C379.982 207.137 379.887 207.899 379.971 208.652C380.055 209.406 380.314 210.129 380.728 210.764Z" fill="#9B9D9C"/>
<path d="M362.138 229.516C361.662 229.625 361.168 229.625 360.692 229.516C359.54 229.312 358.434 228.9 357.43 228.3C356.429 227.712 355.488 227.03 354.619 226.261C354.233 225.977 353.89 225.638 353.604 225.253C354.03 225.467 354.429 225.734 354.79 226.046C355.694 226.744 356.64 227.385 357.622 227.967C358.595 228.543 359.647 228.975 360.744 229.249C361.589 229.427 362.138 229.457 362.138 229.516Z" fill="#9B9D9C"/>
<path d="M365.579 227.395C365.683 227.395 365.691 228.137 365.068 228.752C364.445 229.368 363.689 229.338 363.703 229.234C363.718 229.131 364.289 228.982 364.793 228.493C365.298 228.003 365.468 227.381 365.579 227.395Z" fill="#9B9D9C"/>
<path d="M370.629 223.688C370.673 223.688 370.673 223.888 370.532 224.155C370.338 224.484 370.044 224.744 369.694 224.897C369.347 225.066 368.956 225.123 368.575 225.06C368.278 225.001 368.13 224.882 368.152 224.838C368.174 224.793 368.834 224.897 369.531 224.548C370.228 224.2 370.525 223.651 370.629 223.688Z" fill="#9B9D9C"/>
<path d="M352.818 232.104C352.781 232.201 347.865 230.154 341.844 227.522C335.823 224.89 330.974 222.672 331.048 222.583C331.122 222.495 336.009 224.541 342.03 227.173C348.051 229.806 352.863 232.008 352.818 232.104Z" fill="#9B9D9C"/>
<path d="M115.067 159.727L131.157 238.718H270.817C271.556 238.718 272.265 238.424 272.788 237.901C273.311 237.379 273.605 236.669 273.605 235.93C273.606 235.563 273.534 235.2 273.395 234.861C273.255 234.522 273.05 234.213 272.791 233.954C272.532 233.694 272.224 233.488 271.885 233.347C271.547 233.207 271.183 233.135 270.817 233.135H242.699L227.781 159.646C227.642 158.96 227.272 158.343 226.732 157.898C226.191 157.454 225.514 157.209 224.815 157.206L118.092 156.064C117.637 156.059 117.186 156.157 116.773 156.349C116.36 156.541 115.995 156.822 115.705 157.174C115.415 157.525 115.208 157.936 115.097 158.378C114.987 158.82 114.976 159.281 115.067 159.727Z" fill="#868687"/>
<path d="M115.067 159.727L115.023 159.49C114.992 159.244 114.992 158.995 115.023 158.749C115.075 158.276 115.237 157.822 115.494 157.422C115.751 157.022 116.097 156.687 116.506 156.443C116.789 156.268 117.1 156.143 117.425 156.072C117.788 156.012 118.155 155.989 118.522 156.005H121.036L127.324 156.057L167.683 156.435L195.815 156.724L211.579 156.88L219.839 156.969L224.066 157.014C224.429 157.014 224.763 157.014 225.149 157.014C225.525 157.056 225.892 157.164 226.231 157.332C226.916 157.666 227.458 158.235 227.759 158.934C227.898 159.28 227.997 159.641 228.055 160.009L228.27 161.07C228.411 161.811 228.559 162.493 228.708 163.205C228.994 164.634 229.286 166.072 229.583 167.521C230.171 170.412 230.767 173.341 231.37 176.307C232.576 182.239 233.812 188.302 235.077 194.496C237.591 206.879 240.216 219.758 242.907 233.053L242.722 232.905H270.372C270.737 232.891 271.102 232.914 271.462 232.972C272.204 233.131 272.857 233.569 273.286 234.195C273.72 234.819 273.898 235.587 273.783 236.338C273.715 236.793 273.543 237.227 273.279 237.604C273.015 237.981 272.667 238.291 272.263 238.511C271.855 238.728 271.404 238.849 270.943 238.867H196.727H131.157H131.039V238.748C126.115 214.464 122.141 194.718 119.346 181.03C117.966 174.194 116.899 168.87 116.172 165.252C115.816 163.442 115.544 162.071 115.356 161.136C115.171 160.202 115.089 159.727 115.089 159.727C115.089 159.727 115.201 160.202 115.393 161.121C115.586 162.041 115.883 163.435 116.254 165.229C116.995 168.848 118.1 174.164 119.509 181.001C122.311 194.681 126.353 214.42 131.328 238.689L131.18 238.57L196.75 238.533H270.913C271.312 238.517 271.702 238.413 272.055 238.229C272.406 238.036 272.708 237.765 272.938 237.437C273.168 237.11 273.32 236.734 273.382 236.338C273.478 235.681 273.325 235.012 272.952 234.462C272.573 233.921 272.004 233.543 271.358 233.402C271.024 233.351 270.687 233.332 270.35 233.342H242.544V233.194C239.852 219.914 237.235 207.034 234.729 194.637C233.468 188.438 232.232 182.373 231.021 176.441L229.242 167.654C228.952 166.208 228.656 164.77 228.367 163.346C228.226 162.604 228.077 161.915 227.937 161.21L227.721 160.143C227.666 159.799 227.577 159.461 227.455 159.134C227.251 158.666 226.926 158.261 226.515 157.958C226.103 157.656 225.619 157.468 225.111 157.414C224.785 157.414 224.414 157.414 224.066 157.414L219.839 157.362L211.572 157.273L195.815 157.088L167.676 156.754L127.317 156.257L121.036 156.176L118.522 156.139C118.161 156.116 117.797 156.136 117.44 156.198C117.121 156.264 116.816 156.382 116.535 156.546C116.135 156.78 115.794 157.102 115.537 157.487C115.28 157.873 115.114 158.312 115.052 158.771C115.023 159.089 115.028 159.41 115.067 159.727Z" fill="#868687"/>
<path d="M174.809 200.487C177.356 200.487 179.421 198.422 179.421 195.875C179.421 193.328 177.356 191.263 174.809 191.263C172.262 191.263 170.197 193.328 170.197 195.875C170.197 198.422 172.262 200.487 174.809 200.487Z" fill="white"/>
<path d="M115.201 160.387C115.201 160.387 115.364 160.387 115.683 160.387H122.519L142.487 160.484L208.369 160.944L217.897 161.025H220.24C220.639 161.01 221.039 161.035 221.434 161.099C222.037 161.222 222.595 161.509 223.045 161.929C223.495 162.35 223.82 162.886 223.984 163.479C224.162 164.221 224.288 164.962 224.444 165.704L227.848 182.862C230.005 193.799 231.955 203.624 233.587 211.921C235.218 220.218 236.553 226.877 237.428 231.511C237.873 233.817 238.214 235.611 238.451 236.842C238.562 237.443 238.651 237.91 238.71 238.236C238.77 238.563 238.785 238.711 238.785 238.711C238.785 238.711 238.74 238.555 238.673 238.244C238.607 237.932 238.503 237.458 238.377 236.857L237.279 231.57C236.345 226.936 234.996 220.255 233.32 212.002C231.644 203.75 229.687 193.888 227.499 182.958C226.409 177.494 225.275 171.754 224.073 165.808C223.918 165.066 223.784 164.325 223.621 163.583C223.426 162.879 222.977 162.272 222.361 161.878C222.055 161.682 221.716 161.546 221.36 161.477C220.987 161.417 220.61 161.394 220.233 161.411H217.897L208.369 161.337L142.487 160.758L122.519 160.536L117.091 160.387H115.675H115.201Z" fill="#868687"/>
<path d="M472.727 176.77C475.975 175.095 479.793 174.88 483.397 175.473C485.332 175.792 487.349 176.37 488.669 177.831C489.989 179.291 490.233 181.842 488.728 183.088C487.752 183.752 486.573 184.051 485.399 183.933C482.581 183.933 479.467 183.407 477.198 185.105C475.908 186.069 475.055 187.678 473.491 188.152C472.722 188.331 471.917 188.254 471.196 187.934C470.475 187.615 469.877 187.069 469.494 186.38C468.764 184.964 468.602 183.322 469.042 181.79C469.227 180.726 469.657 179.719 470.296 178.848C470.935 177.978 471.767 177.266 472.727 176.77Z" fill="#EBEBEB"/>
<path d="M465.312 162.415C467.3 165.248 471.155 164.313 472.942 162.578C474.729 160.843 475.486 158.344 476.175 155.949C477.747 150.485 479.334 144.753 478.162 139.192C477.881 137.505 477.142 135.928 476.027 134.632C475.459 133.996 474.734 133.519 473.925 133.25C473.116 132.981 472.251 132.928 471.415 133.097C469.472 133.616 468.264 135.514 467.389 137.331C464.813 142.68 463.462 148.537 463.437 154.474C463.437 157.24 463.755 160.131 465.312 162.415Z" fill="#EBEBEB"/>
<path d="M459.863 166.478C462.02 163.928 462.428 160.19 461.464 156.987C460.5 153.784 458.343 151.055 455.844 148.831C452.902 146.222 449.482 144.208 445.774 142.899C444.338 142.328 442.795 142.075 441.251 142.157C440.478 142.2 439.726 142.432 439.063 142.833C438.4 143.234 437.845 143.791 437.447 144.456C436.387 146.473 437.403 148.905 438.508 150.922C440.443 154.446 442.652 157.813 445.114 160.991C447.102 163.549 449.371 166.07 452.388 167.227C455.406 168.384 458.55 168.199 460.122 166.122" fill="#EBEBEB"/>
<path d="M465.179 205.177C465.284 204.754 465.343 204.322 465.357 203.886C465.446 202.952 465.565 201.773 465.698 200.372C465.872 198.641 466.137 196.921 466.492 195.218C466.953 193.142 467.581 191.107 468.368 189.131C469.138 187.157 470.184 185.302 471.474 183.622C472.526 182.256 473.868 181.141 475.404 180.359C476.445 179.842 477.561 179.494 478.711 179.328C479.144 179.314 479.575 179.251 479.994 179.143C479.56 179.095 479.123 179.095 478.689 179.143C477.496 179.234 476.328 179.538 475.241 180.04C473.622 180.803 472.203 181.933 471.096 183.34C469.747 185.04 468.66 186.931 467.871 188.953C467.074 190.957 466.451 193.026 466.01 195.137C465.677 196.864 465.449 198.61 465.327 200.364C465.216 201.847 465.172 203.063 465.15 203.901C465.115 204.326 465.125 204.754 465.179 205.177Z" fill="#E0E0E0"/>
<path d="M465.424 202.47C465.446 202.273 465.446 202.074 465.424 201.877V200.164C465.424 198.681 465.424 196.538 465.498 193.884C465.631 188.582 466.083 182.88 466.981 174.835C467.819 167.272 468.938 158.47 470.117 152.746C470.369 151.441 470.629 150.27 470.859 149.246C471.089 148.223 471.289 147.333 471.474 146.614L471.875 144.953C471.933 144.76 471.968 144.561 471.978 144.36C471.891 144.54 471.821 144.729 471.771 144.923C471.637 145.353 471.474 145.895 471.274 146.562C471.074 147.229 470.829 148.149 470.569 149.18C470.31 150.21 470.021 151.367 469.746 152.665C468.281 159.432 467.18 166.274 466.447 173.159C465.564 181.227 465.164 188.56 465.127 193.876C465.127 196.538 465.127 198.689 465.223 200.172C465.223 200.869 465.297 201.432 465.327 201.877C465.332 202.078 465.365 202.278 465.424 202.47Z" fill="#E0E0E0"/>
<path d="M465.453 188.315C465.498 187.72 465.498 187.123 465.453 186.528C465.386 185.386 465.223 183.725 464.904 181.694C464.513 179.318 463.989 176.966 463.332 174.65C462.558 171.797 461.567 169.009 460.367 166.308C458.325 161.326 455.393 156.758 451.713 152.828C451.076 152.153 450.395 151.521 449.674 150.937C449.363 150.67 449.088 150.41 448.807 150.195L448.021 149.647C447.55 149.29 447.055 148.968 446.538 148.683C446.449 148.801 448.666 150.106 451.461 153.08C455.016 157.044 457.87 161.585 459.899 166.508C461.073 169.194 462.064 171.956 462.865 174.776C463.541 177.072 464.1 179.401 464.541 181.753C464.912 183.762 465.119 185.401 465.283 186.543C465.293 187.137 465.35 187.73 465.453 188.315Z" fill="#E0E0E0"/>
<path d="M451.773 213.289L453.189 232.723H478.155L479.579 213.289H451.773Z" fill="#E0E0E0"/>
<path d="M482.552 205.629H449.363V213.288H482.552V205.629Z" fill="#E0E0E0"/>
<path d="M449.363 231.974V234.102H450.92H482.003V231.974H449.363Z" fill="#EBEBEB"/>
<path d="M452.448 237.839L450.92 234.102H480.817L479.03 237.839H452.448Z" fill="#E0E0E0"/>
<path d="M479.112 219.636C479.112 219.636 479.075 219.703 478.993 219.821L478.622 220.311C478.266 220.763 477.784 221.393 477.139 222.172L477.072 222.253L477.013 222.172L473.469 217.226H473.676L470.154 222.209L470.043 222.364L469.925 222.216L465.75 217.256H465.987C465.92 217.352 465.839 217.448 465.757 217.545L462.05 222.224L461.931 222.379L461.813 222.216C460.545 220.429 459.366 218.753 458.298 217.241H458.498L454.168 222.179L454.086 222.268L454.027 222.164L452.67 219.888L452.322 219.28C452.28 219.212 452.245 219.14 452.218 219.065C452.218 219.065 452.27 219.124 452.366 219.258L452.744 219.843C453.093 220.385 453.575 221.134 454.175 222.068H454.034L458.305 217.07L458.409 216.944L458.506 217.078L462.057 222.038H461.82L465.528 217.352L465.757 217.063L465.876 216.915L465.995 217.063L470.154 222.038H469.925L473.476 217.085L473.58 216.937L473.684 217.085L477.176 222.075H477.05L478.533 220.259L478.941 219.792C478.992 219.733 479.049 219.681 479.112 219.636Z" fill="#F5F5F5"/>
<path d="M479.92 213.162C479.92 213.244 473.669 213.318 465.95 213.318C458.231 213.318 451.98 213.244 451.98 213.162C451.98 213.081 458.239 213.007 465.95 213.007C473.662 213.007 479.92 213.073 479.92 213.162Z" fill="#F5F5F5"/>
<path d="M481.181 234.31C481.181 234.399 474.389 234.466 466.003 234.466C457.616 234.466 450.817 234.399 450.817 234.31C450.817 234.221 457.616 234.154 466.003 234.154C474.389 234.154 481.181 234.191 481.181 234.31Z" fill="#F5F5F5"/>
</svg>
