<svg width="203" height="203" viewBox="0 0 203 203" fill="none" xmlns="http://www.w3.org/2000/svg">
<path d="M186.386 1.5H16.0017C7.87992 1.5 1.2959 8.091 1.2959 16.221V186.779C1.2959 194.91 7.87992 201.5 16.0017 201.5H186.386C194.508 201.5 201.092 194.91 201.092 186.779V16.221C201.092 8.09101 194.508 1.5 186.386 1.5Z" fill="#CDCECF"/>
<path d="M55.9102 174.231L54.2773 179.135V179.144C54.2773 179.144 54.5317 189.567 54.693 201.5H84.1047V174.241H88.182V174.231H55.9102Z" fill="#283136"/>
<path d="M98.3943 174.241H84.1045V201.5H107.711C102.92 186.8 98.3943 174.231 98.3943 174.231L98.3943 174.241Z" fill="#283136"/>
<path d="M199.682 110.13C198.141 111.002 197.329 112.779 195.9 113.835C194.419 114.749 192.705 115.216 190.96 115.175C189.226 115.135 187.492 115.409 185.859 116.007C184.277 116.739 182.989 118.393 183.313 120.099L201.092 119.924V109.631C200.598 109.721 200.125 109.873 199.682 110.13Z" fill="white"/>
<path d="M54.2571 96.799L53.0705 67.114C52.5127 58.932 56.1638 51.592 64.3584 51.256H65.2509C68.8919 51.317 72.3807 52.759 75.0176 55.277C77.6542 57.795 79.2466 61.216 79.4797 64.861C79.9259 71.998 80.3418 79.906 80.2205 83.733C79.9874 91.591 72.1068 92.728 72.1068 92.728C72.1068 92.728 72.4415 98.434 72.5024 100.719C72.5024 100.719 71.6606 101.328 64.3382 101.591C57.0156 101.856 54.2571 96.799 54.2571 96.799Z" fill="#B6B8B7"/>
<path d="M72.0966 92.698C68.4861 92.617 64.9669 91.5 61.9648 89.49C61.9648 89.49 64.3583 95.256 72.2184 94.688L72.0966 92.698Z" fill="#575656"/>
<path d="M76.7721 72.018C76.7721 72.312 76.6604 72.596 76.4473 72.8C76.2445 73.013 75.9611 73.124 75.6666 73.135C75.3824 73.155 75.1086 73.053 74.8859 72.871C74.6728 72.688 74.5411 72.424 74.5107 72.14C74.5107 71.845 74.6321 71.571 74.8452 71.358C75.048 71.155 75.3321 71.033 75.6259 71.023C75.9101 71.003 76.1839 71.094 76.397 71.287C76.6101 71.47 76.7418 71.734 76.7618 72.018H76.7721Z" fill="#283136"/>
<path d="M77.4922 69.216C77.3501 69.368 76.4984 68.718 75.2915 68.698C74.0846 68.678 73.1921 69.266 73.0703 69.114C72.9385 68.962 73.1515 68.799 73.5369 68.515C74.0646 68.16 74.6928 67.977 75.3322 67.997C75.9612 68.008 76.5694 68.221 77.066 68.596C77.4315 68.891 77.5529 69.155 77.4818 69.216H77.4922Z" fill="#283136"/>
<path d="M66.4375 72.211C66.2955 72.353 65.4435 71.713 64.2468 71.693C63.0602 71.673 62.1373 72.261 62.0156 72.109C61.8837 71.957 62.0967 71.784 62.4922 71.51C63.0196 71.155 63.6383 70.972 64.2772 70.992C64.9061 70.992 65.5247 71.206 66.0217 71.581C66.3766 71.886 66.4983 72.14 66.4273 72.211H66.4375Z" fill="#283136"/>
<path d="M70.119 78.739C70.7682 78.546 71.4375 78.434 72.117 78.424C72.4314 78.424 72.7154 78.343 72.7763 78.13C72.8067 77.815 72.7458 77.49 72.5836 77.206L71.7113 74.84C70.8898 72.83 70.2205 70.759 69.7134 68.647C70.687 70.576 71.4984 72.586 72.1474 74.637L72.9892 77.013C73.1718 77.388 73.2225 77.815 73.1211 78.221C73.0805 78.333 73.0095 78.424 72.9183 78.505C72.8269 78.587 72.7255 78.637 72.614 78.667C72.4416 78.708 72.259 78.728 72.0866 78.728C71.4375 78.81 70.7682 78.81 70.119 78.728V78.739Z" fill="#283136"/>
<path d="M66.4982 68.982C66.3461 69.297 65.1595 69.043 63.7295 69.084C62.2994 69.124 61.123 69.409 60.9607 69.084C60.8898 68.942 61.123 68.657 61.6099 68.373C62.2589 68.038 62.979 67.855 63.7092 67.845C64.4394 67.835 65.1595 67.987 65.8289 68.292C66.3258 68.556 66.5692 68.83 66.4982 68.982Z" fill="#283136"/>
<path d="M77.9385 64.657C77.7557 64.972 76.7523 64.911 75.6164 65.135C74.4798 65.368 73.5471 65.774 73.2732 65.541C73.1415 65.419 73.2732 65.124 73.5978 64.779C74.1046 64.333 74.7232 64.038 75.3929 63.916C76.0626 63.784 76.7523 63.825 77.3909 64.058C77.8475 64.282 78.0399 64.525 77.9385 64.647V64.657Z" fill="#283136"/>
<path d="M51.9854 78.647C51.9854 78.647 51.884 78.719 51.7217 78.79C51.6101 78.84 51.4885 78.861 51.3769 78.861C51.2653 78.861 51.1335 78.84 51.032 78.79C50.6872 78.576 50.3931 78.272 50.2004 77.906C50.0077 77.541 49.9164 77.135 49.9266 76.728C49.9063 76.272 49.9874 75.804 50.17 75.379C50.2207 75.206 50.312 75.053 50.4337 74.932C50.5553 74.81 50.7075 74.708 50.8698 74.647C50.9712 74.617 51.0929 74.627 51.1943 74.667C51.2957 74.719 51.3769 74.79 51.4276 74.891C51.5087 75.043 51.4276 75.155 51.5087 75.165C51.5898 75.165 51.6202 75.073 51.5696 74.85C51.5391 74.719 51.4681 74.607 51.3566 74.525C51.2044 74.414 51.0219 74.373 50.8393 74.393C50.6162 74.434 50.4033 74.536 50.2207 74.678C50.0483 74.83 49.9164 75.023 49.8352 75.236C49.6121 75.703 49.5006 76.221 49.5209 76.749C49.5006 77.226 49.6223 77.703 49.8759 78.109C50.1294 78.516 50.4945 78.84 50.9307 79.043C51.0726 79.084 51.2247 79.094 51.3769 79.064C51.5189 79.033 51.6608 78.982 51.7825 78.891C51.9955 78.769 51.9955 78.647 51.9955 78.647L51.9854 78.647Z" fill="#575656"/>
<path d="M70.9508 82.007C70.9508 82.099 70.6769 82.282 70.1394 82.333C69.4294 82.404 68.7195 82.272 68.0704 81.967C67.4112 81.683 66.8432 81.226 66.4376 80.637C66.1434 80.18 66.1029 79.835 66.1739 79.794C66.255 79.754 67.0055 80.79 68.3239 81.368C69.6424 81.947 70.8594 81.794 70.9508 81.998V82.007Z" fill="#283136"/>
<path d="M145.808 68.911C145.808 68.911 145.595 67.652 144.976 67.652C144.561 67.652 144.145 67.764 143.79 67.987C143.435 68.211 143.151 68.525 142.979 68.911C142.552 69.835 145.808 68.911 145.808 68.911Z" fill="#B6B8B7"/>
<path d="M129.936 88.941L130.555 79.023L132.553 68.799C132.553 68.799 134.114 67.145 134.936 67.52C135.768 67.896 135.453 69.277 135.453 69.277C135.453 69.277 137.634 66.921 138.446 67.459C139.267 67.997 138.963 69.277 138.963 69.277C138.963 69.277 140.961 66.657 141.863 67.378C142.776 68.099 141.863 69.277 141.863 69.277C141.863 69.277 143.09 80.718 142.472 84.81C142.279 86.007 141.812 87.135 141.102 88.109C140.392 89.084 139.449 89.875 138.374 90.414L136.731 96.85L128.618 92.434L129.936 88.941Z" fill="#B6B8B7"/>
<path d="M134.896 75.957L90.8394 75.47V71.947L134.896 70.708V75.967V75.957Z" fill="#575656"/>
<path d="M181.416 79.449L119.165 76.82C118.395 74.587 118.395 72.17 119.165 69.937L181.041 67.195C183.83 70.16 183.85 76.393 181.406 79.449H181.416Z" fill="#575656"/>
<path d="M180.818 67.774C180.818 67.774 178.942 69.531 179.013 73.358C179.084 77.185 181.011 78.79 181.011 78.79C182.36 77.104 182.989 74.942 182.755 72.8C182.42 69.053 180.818 67.774 180.818 67.774Z" fill="#E1DEDC"/>
<path d="M178.323 79.449C177.816 79.043 177.4 78.525 177.116 77.936C176.305 76.566 175.879 75.002 175.889 73.409C175.889 71.825 176.265 70.272 176.974 68.861C177.238 68.262 177.664 67.734 178.192 67.338C178.263 67.338 177.786 67.957 177.299 69.013C176.711 70.404 176.407 71.896 176.396 73.409C176.396 74.911 176.731 76.404 177.39 77.754C177.725 78.292 178.039 78.861 178.313 79.429L178.323 79.449Z" fill="#283136"/>
<path d="M181.092 67.348C181.163 67.409 180.707 67.987 180.2 69.043C179.55 70.414 179.226 71.926 179.256 73.439C179.287 74.962 179.672 76.454 180.372 77.805C180.636 78.373 181.021 78.881 181.477 79.307C181.477 79.307 181.265 79.307 180.981 79.094C180.595 78.79 180.281 78.413 180.058 77.987C179.226 76.617 178.759 75.053 178.729 73.459C178.698 71.855 179.094 70.272 179.885 68.881C180.159 68.282 180.575 67.754 181.092 67.348Z" fill="#283136"/>
<path d="M181.903 70.536C181.832 70.333 181.721 70.15 181.579 69.997C181.508 69.916 181.417 69.855 181.315 69.825C181.214 69.794 181.102 69.784 181.001 69.794C180.899 69.815 180.798 69.876 180.717 69.947C180.636 70.018 180.585 70.119 180.554 70.221C180.504 70.434 180.524 70.647 180.625 70.84C180.859 71.287 181.224 71.713 181.203 72.16C181.183 72.607 181.082 73.063 181.112 73.51C181.112 73.673 181.173 73.835 181.265 73.967C181.305 74.038 181.376 74.089 181.447 74.13C181.518 74.17 181.599 74.18 181.69 74.18C181.964 74.18 182.086 73.845 182.147 73.581C182.38 72.566 182.299 71.5 181.903 70.536Z" fill="white"/>
<path d="M119.156 77.043C118.496 75.967 118.202 74.718 118.303 73.47C118.253 72.211 118.598 70.972 119.298 69.926C119.45 69.987 118.872 71.51 118.851 73.48C118.831 75.45 119.298 76.993 119.156 77.043Z" fill="#283136"/>
<path d="M90.7476 76.302C90.5751 76.302 90.4027 76.231 90.271 76.109C90.1497 75.988 90.0786 75.815 90.0786 75.632V71.896C90.0786 71.723 90.1497 71.551 90.271 71.419C90.3931 71.287 90.5655 71.226 90.7476 71.226C90.9303 71.226 91.0924 71.297 91.2241 71.419C91.3566 71.541 91.4276 71.713 91.4276 71.896V75.642C91.4276 75.815 91.3462 75.988 91.2241 76.109C91.1028 76.231 90.9303 76.302 90.7476 76.302Z" fill="#575656"/>
<path d="M90.7474 76.302C90.7474 76.302 90.9301 76.302 91.1026 76.069C91.2143 75.967 91.275 75.815 91.275 75.673V74.972C91.275 74.373 91.275 73.754 91.2239 73.114V72.018C91.2343 71.957 91.2447 71.886 91.2239 71.825C91.204 71.764 91.184 71.703 91.1433 71.652C91.1026 71.602 91.0515 71.561 90.9908 71.531C90.9302 71.5 90.8695 71.49 90.7984 71.49C90.7378 71.49 90.6667 71.51 90.6157 71.541C90.555 71.571 90.5039 71.612 90.464 71.662C90.4233 71.713 90.3929 71.774 90.3826 71.835C90.3722 71.896 90.3619 71.967 90.3826 72.028V73.124C90.3826 73.794 90.3619 74.414 90.3219 74.982V75.683C90.3219 75.754 90.3315 75.835 90.3619 75.896C90.3929 75.967 90.4329 76.028 90.484 76.079C90.6667 76.262 90.8488 76.272 90.8391 76.312C90.8391 76.353 90.646 76.424 90.3522 76.242C90.2605 76.18 90.1894 76.099 90.1391 76.007C90.0881 75.916 90.0481 75.815 90.0377 75.713V74.982C90.0377 74.383 90.0377 73.764 89.9867 73.124V72.028C89.9667 71.774 90.0377 71.52 90.1998 71.317C90.2916 71.216 90.3929 71.124 90.5247 71.063C90.646 71.003 90.7881 70.972 90.9198 70.972C91.0619 70.972 91.1936 71.003 91.3157 71.063C91.4371 71.124 91.5488 71.206 91.6398 71.307C91.7922 71.51 91.8633 71.764 91.8426 72.018V73.114C91.8426 73.784 91.8226 74.404 91.7819 74.972V75.703C91.7619 75.804 91.7316 75.906 91.6701 75.998C91.6095 76.089 91.5384 76.17 91.4474 76.231C90.8998 76.414 90.7274 76.322 90.7378 76.302L90.7474 76.302Z" fill="#283136"/>
<path d="M98.4048 83.693C98.4048 83.693 97.4613 72.109 97.7455 71.094C98.0296 70.079 101.214 66.495 102.33 66.373C103.446 66.251 103.567 67.49 103.567 67.49C104.5 66.871 105.565 66.485 106.671 66.363C107.097 66.322 107.522 66.444 107.857 66.698C108.202 66.952 108.425 67.327 108.506 67.754C109.246 67.307 110.129 67.175 110.971 67.368C111.63 67.49 112.391 68.647 112.391 68.647C112.391 68.647 114.013 67.947 114.794 68.647C115.433 69.348 115.788 70.261 115.788 71.206C114.753 71.206 113.74 71.52 112.898 72.13C112.715 74.657 112.371 77.165 111.873 79.642C111.255 82.1189 108.8 84.18 107.968 85.459L107.32 94.018L96.8027 88.465L98.4048 83.703L98.4048 83.693Z" fill="#B6B8B7"/>
<path d="M100.768 71.967C100.697 71.439 100.737 70.891 100.89 70.373C101.042 69.855 101.295 69.378 101.63 68.962C101.904 68.495 102.259 68.089 102.695 67.774C103.131 67.459 103.628 67.236 104.156 67.114C103.395 67.774 102.695 68.485 102.056 69.267C101.559 70.13 101.123 71.033 100.758 71.967H100.768Z" fill="#575656"/>
<path d="M105.88 71.764C105.727 71.307 105.697 70.82 105.768 70.333C105.849 69.855 106.032 69.399 106.316 69.013C106.671 68.414 107.218 67.947 107.878 67.693C108.375 67.52 108.709 67.561 108.72 67.622C108.729 67.683 107.503 68.018 106.772 69.287C106.397 70.079 106.093 70.901 105.88 71.754L105.88 71.764Z" fill="#575656"/>
<path d="M109.693 71.388C109.551 71.388 109.785 70.261 110.768 69.388C111.752 68.515 112.857 68.393 112.867 68.505C112.878 68.617 111.975 68.972 111.123 69.774C110.261 70.576 109.876 71.429 109.693 71.378V71.388Z" fill="#575656"/>
<path d="M136.62 86.546C138.375 84.475 137.036 78.911 137.036 78.911C137.776 78.647 138.435 78.221 138.973 77.653C139.511 77.084 139.916 76.393 140.139 75.653C140.758 73.165 139.52 72.749 139.52 72.749C139.104 72.962 135.271 75.449 133.304 76.484C131.336 77.52 130.717 88.079 130.717 88.079" fill="#B6B8B7"/>
<path d="M130.727 88.028C130.676 87.571 130.676 87.104 130.727 86.637C130.778 85.744 130.869 84.464 131.051 82.881C131.234 81.012 131.65 79.165 132.289 77.398C132.4 77.135 132.543 76.891 132.705 76.657C132.887 76.414 133.131 76.221 133.415 76.089C133.892 75.825 134.409 75.551 134.865 75.256L137.857 73.409C138.374 73.094 138.861 72.779 139.399 72.475L139.5 72.414L139.601 72.464C139.804 72.566 139.976 72.698 140.119 72.87C140.261 73.043 140.362 73.246 140.423 73.459C140.534 73.825 140.585 74.21 140.554 74.596C140.514 75.621 140.159 76.607 139.541 77.418C138.922 78.231 138.07 78.84 137.096 79.155L137.239 78.891C137.685 80.769 137.786 82.708 137.522 84.627C137.431 85.155 137.248 85.672 136.985 86.149C136.883 86.312 136.761 86.454 136.62 86.576C136.681 86.404 136.761 86.231 136.873 86.078C137.086 85.601 137.228 85.104 137.289 84.587C137.451 82.708 137.289 80.82 136.832 79.002L136.782 78.809L136.974 78.738C138.09 78.312 139.013 77.489 139.581 76.444C139.865 75.865 140.028 75.226 140.058 74.576C140.108 74.281 140.088 73.967 139.976 73.693C139.865 73.409 139.683 73.165 139.439 72.982H139.642C139.175 73.256 138.648 73.591 138.151 73.906C137.157 74.546 136.153 75.165 135.159 75.754C134.672 76.048 134.165 76.322 133.689 76.587C133.465 76.678 133.273 76.829 133.131 77.012C132.978 77.206 132.857 77.418 132.765 77.652C132.116 79.368 131.68 81.165 131.457 82.992C131.214 84.555 131.072 85.835 130.96 86.718C130.93 87.165 130.859 87.601 130.737 88.038L130.727 88.028Z" fill="#575656"/>
<path d="M105.647 197.703H109.693C109.693 197.703 110.626 183.713 108.283 174.231C105.951 164.749 94.0133 123.602 94.0133 123.602L80.7986 101.784L73.7095 98.627L96.985 176.749L105.647 197.713L105.647 197.703Z" fill="#48575D"/>
<path d="M51.4883 97.744L52.5837 90.749L72.1069 99.52V95.297L80.7274 109.703L99.6932 163.653C100.302 165.317 101.042 170.861 99.9367 172.241L98.3849 174.241L77.8266 176.911L58.3341 106.424L51.4883 97.744Z" fill="#E1DEDC"/>
<path d="M74.3784 105.804C74.3784 105.804 83.3034 136.221 83.2323 136.434C83.1613 136.657 93.1208 167.561 93.1208 167.561L95.1187 158.262L81.2448 111.916L75.6667 105.073L74.3784 105.815V105.804Z" fill="#5B5B5B"/>
<path d="M45.6874 100.627C36.5393 106.21 36.0627 114.87 40.1397 124.81C40.8091 126.454 42.1377 129.287 43.0099 131.206C46.9449 139.591 55.1194 153.267 55.1194 156.465C55.1194 163.998 48.3851 198.932 48.3851 198.932C48.3851 198.932 84.8959 203.368 88.1918 199.927C91.4884 196.485 94.0236 174.952 92.9588 165.317C91.7926 154.688 86.3263 136.708 84.1049 130.048C82.7662 126.048 78.3648 116.059 73.1213 109.551C69.1963 104.657 64.5209 100.424 59.2775 96.993L51.4987 91.896L49.9064 97.287C48.6082 98.536 47.1985 99.653 45.6874 100.627Z" fill="#48575D"/>
<path d="M81.2246 103.013C81.9853 103.013 115.352 113.927 113.415 113.125L114.318 112.19L126.295 94.048L137.269 100.556C137.269 100.556 126.417 121.347 124.622 124.617C123.76 126.21 122.482 127.551 120.92 128.475C119.358 129.399 117.583 129.886 115.768 129.876C113.324 129.876 92.4213 126.373 92.4213 126.373L81.2246 103.033L81.2246 103.013Z" fill="#48575D"/>
<path d="M94.6421 90.525L97.2283 85.947L108.851 92.566L107.046 97.602L94.6525 90.516L94.6421 90.525Z" fill="#E1DEDC"/>
<path d="M43.5369 125.114C43.2529 124.901 77.1775 136.982 84.0941 134.799C91.0115 132.627 93.2426 125.804 95.7171 121.541C100.241 113.815 108.253 98.454 108.253 98.454L93.9019 90.231L79.612 114.21C79.612 114.21 54.3076 103.764 51.9851 103.084C49.6626 102.404 42.4618 101.47 38.9528 109.886C35.0177 119.206 43.5369 125.114 43.5369 125.114Z" fill="#48575D"/>
<path d="M43.537 125.114C43.4457 125.073 43.3544 125.023 43.2732 124.952C43.111 124.83 42.8777 124.637 42.5734 124.383C41.7013 123.622 40.9102 122.759 40.2409 121.815C39.1252 120.302 38.3646 118.566 38.0096 116.719C37.9082 116.16 37.8372 115.591 37.8169 115.023C37.8169 114.434 37.8777 113.825 37.8981 113.185C37.9183 112.546 38.1212 111.927 38.3139 111.287C38.5167 110.627 38.7499 109.987 39.0339 109.358C39.6222 107.987 40.4336 106.719 41.4477 105.622C42.5633 104.424 43.9629 103.52 45.5248 103.002C47.2083 102.444 48.9933 102.302 50.7478 102.596C51.6606 102.739 52.5632 102.993 53.4152 103.358L56.0623 104.353C63.192 107.155 71.123 110.404 79.6728 113.927L79.3687 114.028L93.6482 90.048L93.7799 89.825L94.0034 89.957L99.1855 92.952L108.395 98.221L108.617 98.343L108.496 98.566C105.666 103.957 102.888 109.185 100.149 114.17C98.7696 116.667 97.411 119.104 96.042 121.47C94.6627 123.835 93.6075 126.261 92.1675 128.464C90.8288 130.657 88.9826 132.505 86.7922 133.835C85.7274 134.464 84.5715 134.911 83.3542 135.165C82.1777 135.297 80.9907 135.297 79.8149 135.165C75.5955 134.617 71.4272 133.764 67.3401 132.607C59.835 130.607 53.902 128.607 49.8351 127.287C45.758 125.967 43.5471 125.104 43.5471 125.104C43.689 125.114 43.8311 125.155 43.9629 125.206L45.18 125.581L49.8858 127.104C53.9831 128.393 59.9263 130.302 67.4212 132.261C71.4983 133.388 75.6562 134.221 79.8549 134.749C81.0011 134.881 82.1577 134.881 83.3032 134.749C84.4598 134.495 85.5653 134.059 86.5791 133.459C88.7088 132.15 90.4944 130.343 91.7923 128.201C93.2123 126.059 94.2668 123.601 95.6461 121.206C97.0255 118.81 98.3641 116.414 99.7331 113.927C102.461 108.931 105.241 103.703 108.06 98.312L108.171 98.657L98.9324 93.409L93.7599 90.414L94.1047 90.322C89.0536 98.759 84.2267 106.85 79.7942 114.302L79.6824 114.484L79.49 114.404C70.981 110.881 62.9892 107.612 55.9304 104.759L53.2935 103.754C52.4619 103.399 51.5998 103.135 50.7073 102.993C49.0136 102.708 47.2894 102.84 45.6566 103.358C44.1556 103.856 42.7966 104.719 41.7114 105.865C40.7175 106.921 39.9163 108.15 39.328 109.47C39.0542 110.079 38.8108 110.719 38.608 111.358C38.4051 111.977 38.324 112.617 38.1921 113.216C38.0501 113.815 38.0604 114.424 38.0908 115.002C38.1009 115.561 38.1617 116.119 38.2632 116.667C38.5978 118.484 39.328 120.21 40.4031 121.713C41.0623 122.657 41.823 123.53 42.6648 124.312C42.9487 124.587 43.1719 124.769 43.3342 124.901L43.5674 125.084L43.537 125.114Z" fill="#283136"/>
<path d="M59.8452 176.292L62.9893 169.916L84.9867 170.302L82.5426 176.891L59.8452 176.281L59.8452 176.292Z" fill="#48575D"/>
<path d="M59.8452 176.292H66.4274C70.4943 176.353 76.1128 176.434 82.5529 176.587L82.2998 176.759C83.0502 174.759 83.8309 172.637 84.6323 170.465L84.744 170.17L84.9867 170.525C76.1232 170.363 68.2225 170.201 63.0298 170.048L63.182 169.957L60.7682 174.566C60.4943 175.073 60.2814 175.49 60.1089 175.825C60.0278 175.977 59.9467 176.13 59.8452 176.272C59.8452 176.272 59.8453 176.139 60.0176 175.865C60.1901 175.582 60.3625 175.124 60.5958 174.617L62.8371 169.835V169.733H62.969C68.2022 169.733 76.1025 169.876 84.926 170.038H85.2916L85.1591 170.373L85.0481 170.667L82.715 176.952L82.6447 177.124H82.4619C75.8901 176.931 70.1697 176.719 66.1332 176.556L61.4274 176.363L60.1901 176.302H59.8452L59.8452 176.292Z" fill="#283136"/>
<path d="M74.5202 111.368C74.4492 111.5 68.8816 108.434 62.0764 104.525C55.2711 100.617 49.8249 97.347 49.8858 97.236C49.9466 97.125 55.5247 100.17 62.3299 104.079C69.1351 107.987 74.5913 111.256 74.5202 111.368Z" fill="#283136"/>
<path d="M82.1276 159.449C82.1276 159.591 76.8234 159.368 70.3018 158.952C63.7704 158.536 58.4865 158.079 58.4966 157.957C58.4966 157.825 63.8109 158.038 70.3322 158.454C76.8634 158.87 82.1373 159.317 82.1276 159.449Z" fill="#283136"/>
<path d="M127.015 94.525L129.226 90.79L138.009 95.927L136.306 99.987L127.015 94.535L127.015 94.525Z" fill="#E1DEDC"/>
<path d="M115.707 120.79C114.744 119.815 114.003 118.637 113.557 117.347C113.111 116.048 112.969 114.667 113.131 113.307C113.283 113.307 113.334 115.104 114.044 117.175C114.764 119.246 115.859 120.698 115.697 120.79H115.707Z" fill="#283136"/>
<path d="M94.2168 124.363C95.0685 126.383 95.7582 128.465 96.2858 130.596C96.9747 132.678 97.5023 134.81 97.8575 136.982C97.0154 134.962 96.3258 132.87 95.7885 130.749C95.0989 128.667 94.5713 126.536 94.2168 124.363Z" fill="#283136"/>
<path d="M80.7376 121.754C79.8452 120.718 79.2569 119.449 79.0334 118.099C78.8107 116.749 78.9528 115.358 79.4493 114.089C79.3886 115.398 79.419 116.708 79.5507 118.018C79.8548 119.297 80.2507 120.546 80.7376 121.754Z" fill="#283136"/>
<path d="M71.6304 103.774L71.8738 104.028L74.3889 105.804L75.6469 105.094L74.8255 102.312L72.1679 100.312L71.6304 103.774Z" fill="#5B5B5B"/>
<path d="M75.0174 100.312C75.2912 101.094 75.4836 101.896 75.585 102.719L75.6664 103.144L75.3016 102.881C74.4188 102.262 73.3034 101.439 72.0153 100.505L72.4109 100.343C72.2892 101.135 72.1573 101.957 72.0357 102.82C71.9443 103.338 71.8633 103.815 71.7922 104.333L71.7314 104.688L71.417 104.525C69.5002 103.582 67.8369 102.749 66.6503 102.119C65.991 101.825 65.3623 101.459 64.7842 101.033C65.4738 101.216 66.1432 101.48 66.7821 101.825C68.0093 102.363 69.7131 103.155 71.6299 104.069L71.275 104.262L71.5083 102.749C71.6502 101.886 71.7821 101.064 71.9038 100.282L71.9748 99.865L72.2993 100.119C73.5569 101.114 74.6622 101.947 75.5043 102.617L75.2098 102.79C75.0581 101.977 74.9967 101.144 75.0071 100.322L75.0174 100.312Z" fill="#283136"/>
<path d="M60.6667 59.043H60.6262C59.47 59.967 58.7195 61.297 58.5166 62.769V62.921C58.2327 65.033 58.2834 67.135 57.9791 69.246C57.6749 71.358 56.9548 73.459 55.4132 74.861C54.7844 75.45 53.6688 75.856 53.1516 75.165C52.969 74.881 52.8879 74.546 52.8879 74.21C52.4923 69.175 51.1232 64.708 51.1334 59.459C51.1334 58.759 51.2854 58.058 51.5998 57.429C51.9143 56.799 52.3808 56.251 52.9488 55.835C54.0542 55.053 55.3929 54.231 56.6201 54.81C57.8473 55.388 59.4294 57.683 60.3726 58.647" fill="#283136"/>
<path d="M56.4581 55.581C55.2309 53.581 58.5981 50.708 61.0625 49.967C63.527 49.226 66.7724 50.393 69.2268 51.206C70.7785 51.713 72.3099 52.434 73.953 52.373C75.0379 52.261 76.1027 51.987 77.1172 51.561C78.1317 51.134 79.2166 50.921 80.3117 50.931C80.8593 50.942 81.3973 51.104 81.8531 51.398C82.32 51.693 82.6849 52.109 82.9387 52.596C83.3545 53.612 82.7663 55.002 81.6711 55.145C82.0159 54.952 82.4014 54.85 82.7966 54.85C83.1925 54.85 83.5773 54.931 83.9325 55.114C84.2877 55.297 84.5918 55.551 84.8249 55.876C85.058 56.2 85.2104 56.566 85.2615 56.962C85.3222 57.358 85.2815 57.754 85.1497 58.129C85.018 58.505 84.8049 58.84 84.5104 59.104C84.227 59.378 83.8718 59.571 83.4966 59.673C83.1214 59.774 82.7152 59.794 82.3304 59.713C83.0297 59.175 84.1256 60.068 84.0338 60.952C83.9428 61.388 83.7297 61.794 83.4359 62.129C83.1414 62.464 82.7559 62.708 82.3304 62.85C80.2207 63.764 77.8172 63.47 75.6668 62.749C73.5168 62.028 71.5087 60.891 69.3485 60.119C67.1882 59.338 63.6284 57.937 61.4885 58.718C59.9063 59.277 57.9185 60.759 57.9185 60.759L56.8637 59.825C56.5899 59.439 56.4074 58.982 56.3465 58.515C56.2248 57.581 56.2654 56.627 56.4479 55.703" fill="#283136"/>
<path d="M53.6082 72.901C53.4662 72.84 48.233 71.216 48.3039 76.586C48.3851 81.957 53.7603 80.779 53.7704 80.637C53.7704 80.484 53.598 72.901 53.598 72.901H53.6082Z" fill="#B6B8B7"/>
<path d="M201.092 181.639C200.053 182.83 199.105 184.142 197.837 185.084C195.687 186.688 192.969 186.982 190.342 187.084C187.715 187.185 185.017 187.256 182.613 188.343C180.21 189.429 178.252 191.967 178.75 194.546L198.978 194.355C200.311 192.14 201.092 189.554 201.092 186.779V181.639Z" fill="white"/>
<path d="M50.0685 147.399C50.7682 142.404 43.6486 138.21 38.3139 137.764C35.7683 137.561 33.1111 137.957 30.7075 137.114C25.4641 135.287 23.3851 128.525 18.2837 126.363C14.4602 124.759 10.0686 126.18 6.37702 128.048C4.69349 128.9 3.01579 129.847 1.2959 130.654V147.847L50.0685 147.388V147.399Z" fill="white"/>
<path d="M186.59 1.5H16.2058C8.08402 1.5 1.5 8.091 1.5 16.221V186.779C1.5 194.91 8.08402 201.5 16.2058 201.5H186.59C194.712 201.5 201.296 194.91 201.296 186.779V16.221C201.296 8.09101 194.712 1.5 186.59 1.5Z" stroke="#5B5B5B" stroke-width="3"/>
<path d="M191.556 145.098C191.468 144.626 191.481 144.132 191.372 143.667C191.143 142.693 190.9 141.72 190.594 140.767C190.338 139.962 189.987 139.187 189.675 138.398C189.081 136.907 188.221 135.575 187.225 134.328C186.805 133.8 186.306 133.335 185.879 132.81C185.065 131.807 184.073 131.002 183.065 130.221C182.09 129.462 181.032 128.822 179.933 128.265C179.141 127.866 178.34 127.467 177.506 127.186C176.314 126.787 175.112 126.411 173.854 126.21C172.777 126.038 171.703 125.876 170.614 125.853C169.234 125.823 167.865 125.916 166.496 126.15C165.359 126.345 164.246 126.602 163.156 126.972C161.718 127.457 160.349 128.09 159.032 128.855C156.92 130.082 155.111 131.673 153.512 133.5C152.625 134.513 151.883 135.644 151.207 136.815C150.51 138.022 149.929 139.293 149.496 140.608C149.092 141.836 148.724 143.079 148.537 144.375C148.39 145.395 148.334 146.418 148.265 147.433C148.212 148.209 148.34 149.001 148.416 149.779C148.482 150.488 148.544 151.2 148.682 151.899C148.81 152.553 149.037 153.19 149.22 153.832C149.483 154.747 149.811 155.634 150.195 156.508C150.691 157.636 151.273 158.715 151.952 159.737C153.03 161.35 154.258 162.841 155.739 164.101C156.04 164.358 156.168 164.642 156.168 165.048C156.155 168.591 156.162 172.137 156.162 175.68C156.162 179.031 156.178 182.386 156.152 185.737C156.142 186.823 156.415 187.822 157.019 188.677C158.043 190.121 159.422 191.005 161.258 191.045C162.431 191.068 163.504 190.771 164.45 190.088C165.635 189.234 166.788 188.337 167.954 187.456C168.535 187.017 169.093 186.576 169.901 186.582C170.518 186.582 171.066 186.707 171.549 187.063C172.892 188.053 174.212 189.076 175.562 190.058C176.879 191.015 178.347 191.289 179.926 190.884C181.364 190.514 182.447 189.65 183.19 188.373C183.742 187.426 183.889 186.37 183.889 185.289V172.441C183.889 169.937 183.889 167.433 183.883 164.929C183.883 164.59 183.984 164.343 184.267 164.131C184.569 163.907 184.838 163.63 185.107 163.362C186.086 162.383 187.029 161.373 187.823 160.232C188.542 159.2 189.163 158.117 189.689 156.976C190.017 156.267 190.292 155.535 190.568 154.803C190.729 154.377 190.87 153.938 190.966 153.496C191.156 152.622 191.327 151.741 191.468 150.858C191.58 150.151 191.685 149.439 191.698 148.73C191.721 147.523 191.78 146.308 191.554 145.108L191.556 145.098Z" fill="white"/>
<path d="M191.372 143.667C191.143 142.693 190.9 141.72 190.594 140.767C190.338 139.962 189.987 139.187 189.675 138.398C189.081 136.907 188.221 135.575 187.225 134.328C186.805 133.8 186.306 133.335 185.879 132.81C185.065 131.807 184.073 131.002 183.065 130.221C182.09 129.462 181.032 128.822 179.933 128.265C179.141 127.866 178.34 127.467 177.506 127.186C176.314 126.787 175.112 126.411 173.854 126.21C172.777 126.038 171.703 125.876 170.614 125.853C169.234 125.823 167.865 125.916 166.496 126.15C165.359 126.345 164.246 126.602 163.156 126.972C161.718 127.457 160.349 128.09 159.032 128.855C156.92 130.082 155.111 131.673 153.512 133.5C152.625 134.513 151.883 135.644 151.207 136.815C150.51 138.022 149.929 139.293 149.496 140.608C149.092 141.836 148.724 143.079 148.537 144.375C148.39 145.395 148.334 146.418 148.265 147.433C148.212 148.209 148.34 149.001 148.416 149.779C148.482 150.488 148.544 151.2 148.682 151.899C148.81 152.553 149.037 153.19 149.22 153.832C149.483 154.747 149.811 155.634 150.195 156.508C150.691 157.636 151.273 158.715 151.952 159.737C153.03 161.35 154.258 162.841 155.739 164.101C156.04 164.358 156.168 164.642 156.168 165.048C156.155 168.591 156.162 172.137 156.162 175.68C156.162 179.031 156.178 182.386 156.152 185.737C156.142 186.823 156.415 187.822 157.019 188.677C158.043 190.121 159.422 191.005 161.258 191.045C162.431 191.068 163.504 190.771 164.45 190.088C165.635 189.234 166.788 188.337 167.954 187.456C168.535 187.017 169.093 186.576 169.901 186.582C170.518 186.582 171.066 186.707 171.549 187.063C172.892 188.053 174.212 189.076 175.562 190.058C176.879 191.015 178.347 191.289 179.926 190.884C181.364 190.514 182.447 189.65 183.19 188.373C183.742 187.426 183.889 186.37 183.889 185.289V172.441C183.889 169.937 183.889 167.433 183.883 164.929C183.883 164.59 183.984 164.343 184.267 164.131C184.569 163.907 184.838 163.63 185.107 163.362C186.086 162.383 187.029 161.373 187.823 160.232C188.542 159.2 189.163 158.117 189.689 156.976C190.017 156.267 190.292 155.535 190.568 154.803C190.729 154.377 190.87 153.938 190.966 153.496C191.156 152.622 191.327 151.741 191.468 150.858C191.58 150.151 191.685 149.439 191.698 148.73C191.721 147.523 191.78 146.308 191.554 145.108C191.464 144.636 191.478 144.141 191.37 143.676L191.372 143.667ZM181.164 185.444C181.164 186.143 181.026 186.806 180.573 187.383C180.126 187.951 178.875 188.495 178.057 188.251C177.378 188.05 176.875 187.615 176.337 187.215C175.106 186.305 173.88 185.384 172.636 184.49C172.124 184.121 171.506 184.002 170.899 183.877C170.019 183.695 169.146 183.778 168.312 184.068C167.809 184.243 167.32 184.511 166.886 184.824C165.727 185.661 164.601 186.549 163.458 187.407C162.962 187.779 162.47 188.142 161.833 188.264C161.042 188.419 160.378 188.188 159.784 187.697C159.127 187.152 158.871 186.427 158.874 185.579C158.884 182.501 158.877 179.421 158.877 176.343H158.881V166.82C158.881 166.42 158.894 166.427 159.258 166.608C160.316 167.13 161.363 167.67 162.447 168.133C163.114 168.416 163.83 168.594 164.535 168.776C165.386 168.993 166.243 169.237 167.11 169.327C168.292 169.448 169.49 169.442 170.682 169.469C171.184 169.482 171.694 169.488 172.189 169.422C172.984 169.32 173.782 169.201 174.557 169.003C175.667 168.719 176.776 168.409 177.854 168.01C178.72 167.691 179.535 167.225 180.372 166.826C180.612 166.711 180.859 166.608 181.105 166.499C181.124 166.75 181.157 167.001 181.157 167.255C181.161 173.318 181.164 179.377 181.157 185.44L181.164 185.444ZM183.935 160.618C180.103 164.787 175.25 166.862 169.632 166.767C164.516 166.681 160.076 164.715 156.49 161.001C152.908 157.286 151.089 152.823 151.086 146.698C151.141 142.815 152.704 138.556 155.883 134.971C159.124 131.319 163.205 129.165 168.085 128.714C173.769 128.185 178.773 129.835 182.973 133.74C186.549 137.062 188.529 141.212 188.923 146.084C189.373 151.646 187.685 156.528 183.932 160.615L183.935 160.618Z" fill="#575656"/>
<path d="M172.14 143.369L170.039 139.094L167.937 143.369C167.684 143.881 167.198 144.236 166.637 144.319L161.942 145.005L165.34 148.334C165.747 148.733 165.931 149.307 165.836 149.868L165.035 154.565L169.234 152.348C169.487 152.217 169.763 152.151 170.039 152.151C170.314 152.151 170.59 152.217 170.843 152.348L175.043 154.565L174.242 149.868C174.146 149.304 174.33 148.729 174.738 148.334L178.137 145.005L173.441 144.319C172.879 144.236 172.393 143.884 172.14 143.369Z" fill="#575656"/>
<path d="M186.671 146.282C186.322 141.991 184.579 138.339 181.43 135.413C177.729 131.972 173.323 130.521 168.318 130.986C164.02 131.386 160.427 133.282 157.574 136.499C154.773 139.655 153.397 143.406 153.348 146.823C153.348 152.217 154.953 156.149 158.106 159.417C161.262 162.69 165.172 164.419 169.678 164.494C174.626 164.576 178.902 162.752 182.274 159.078C185.581 155.478 187.064 151.181 186.667 146.282H186.671ZM180.57 145.847L176.557 149.776L177.503 155.323C177.614 155.98 177.352 156.63 176.816 157.02C176.281 157.412 175.585 157.462 174.997 157.151L170.039 154.532L165.08 157.151C164.825 157.286 164.548 157.352 164.276 157.352C163.918 157.352 163.567 157.241 163.262 157.02C162.726 156.627 162.463 155.977 162.575 155.323L163.521 149.776L159.508 145.847C159.035 145.381 158.868 144.702 159.072 144.069C159.275 143.435 159.81 142.983 160.467 142.888L166.013 142.08L168.492 137.033C168.784 136.436 169.379 136.066 170.042 136.066C170.706 136.066 171.296 136.436 171.589 137.033L174.068 142.08L179.614 142.888C180.271 142.983 180.803 143.435 181.009 144.069C181.213 144.702 181.046 145.381 180.573 145.847H180.57Z" fill="#575656"/>
</svg>
