<svg width="164" height="164" viewBox="0 0 164 164" fill="none" xmlns="http://www.w3.org/2000/svg">
<path d="M149.2 2H14.8C7.73075 2 2 7.73075 2 14.8V149.2C2 156.269 7.73075 162 14.8 162H149.2C156.269 162 162 156.269 162 149.2V14.8C162 7.73075 156.269 2 149.2 2Z" fill="#CDCECF" stroke="#727272" stroke-width="2.4" stroke-miterlimit="10"/>
<path d="M130.248 161.991L129.848 149.728L132.542 161.991H143.404L138.592 138.792H117.528L118.674 161.991H130.248Z" fill="#363637"/>
<path d="M123.611 48.0546L120.139 42.1346L114.706 42.9106L110.219 37.4066L112.53 31.9026L106.475 27.9506L101.947 32.4226L95.9872 31.3986L93.5704 24.5186L86.3232 25.2706L85.9144 31.2706L80.5145 33.9506L74.8025 29.9906L69.0028 34.1186L72.0191 40.4706L68.5708 45.5586L62.3071 45.2306L60.6668 52.7986L66.6271 55.0386L67.1391 61.3986L60.9628 64.8706L63.9148 71.4306L70.3148 70.4546L74.5311 75.2706L72.3148 81.2469L78.1791 85.3024L82.7464 80.4866L89.0752 82.1664L91.0504 88.5824L98.0832 88.1184L98.9864 82.3584L105.034 78.9589L109.955 82.8224L116.21 78.2542L113.05 72.8706L116.138 67.4626L122.467 67.9189L124.41 60.8786L118.963 57.9986L118.259 51.5826L123.627 48.0626L123.611 48.0546ZM99.0432 68.7746C96.5952 70.1506 93.7864 70.7829 90.9792 70.5909C88.1632 70.4066 85.4752 69.4069 83.2432 67.7186C81.0111 66.0302 79.3388 63.7346 78.4345 61.1266C77.5391 58.5106 77.4508 55.6946 78.1868 53.0306C78.9228 50.3666 80.4505 47.9746 82.5712 46.1586C84.6992 44.3426 87.3224 43.1906 90.1144 42.8306C92.9072 42.4786 95.7552 42.9426 98.2752 44.1666C100.803 45.3906 102.899 47.3266 104.307 49.7186C106.187 52.9266 106.69 56.7346 105.707 60.3106C104.722 63.8862 102.323 66.9262 99.0432 68.7662V68.7746Z" fill="#6E6F6F"/>
<path d="M93.992 62.3627C97.048 61.3067 98.6568 58.0184 97.5688 55.0184C96.488 52.0264 93.128 50.4584 90.0648 51.5144C87.0088 52.5704 85.4 55.8584 86.488 58.8584C87.5688 61.8507 90.9288 63.4187 93.992 62.3627Z" fill="#363637"/>
<path d="M123.024 95.72C123.024 95.72 121.56 95.256 121.544 94.376C121.528 93.496 132.52 92.248 134.624 97.128C134.624 97.128 134.192 97.392 132.512 97.296" fill="#727272"/>
<path d="M132.144 109.856L125.44 109.368C125.4 108.656 125.44 105.896 125.44 105.896C125.44 105.896 122.648 105.504 122.616 102.96C122.584 100.416 123.048 94.5841 123.048 94.5841C124.64 93.9601 126.384 93.7361 128.104 93.9361C129.824 94.1361 131.456 94.7521 132.824 95.7201L133.256 96.0081L132.144 109.856Z" fill="#BABBBB"/>
<path d="M123.719 98.968C123.76 98.936 123.799 98.896 123.824 98.856C123.847 98.808 123.863 98.76 123.872 98.712C123.872 98.664 123.872 98.608 123.847 98.56C123.831 98.512 123.8 98.472 123.768 98.432C123.728 98.392 123.687 98.368 123.632 98.344C123.575 98.32 123.527 98.312 123.472 98.312C123.415 98.312 123.36 98.32 123.312 98.336C123.264 98.36 123.216 98.384 123.176 98.424C123.136 98.456 123.104 98.496 123.08 98.536C123.056 98.576 123.048 98.624 123.04 98.672C123.04 98.72 123.04 98.768 123.064 98.816C123.08 98.864 123.111 98.904 123.143 98.936C123.175 98.968 123.223 99 123.271 99.024C123.319 99.048 123.367 99.056 123.424 99.064C123.479 99.064 123.527 99.064 123.584 99.04C123.632 99.024 123.68 99 123.719 98.968Z" fill="#363637"/>
<path d="M123.048 98.3841C123.088 98.4241 123.368 98.232 123.752 98.232C124.136 98.232 124.416 98.416 124.456 98.368C124.496 98.32 124.432 98.2721 124.312 98.1841C124.144 98.0801 123.952 98.024 123.744 98.024C123.544 98.024 123.352 98.088 123.184 98.2C123.088 98.288 123.024 98.3681 123.04 98.3841H123.048Z" fill="#363637"/>
<path d="M127.472 98.6881C127.4 98.7281 127.352 98.7841 127.312 98.8481C127.28 98.9121 127.264 98.9921 127.28 99.0641C127.288 99.1361 127.328 99.2001 127.384 99.2561C127.44 99.3121 127.512 99.3441 127.584 99.3681C127.664 99.3841 127.744 99.3841 127.817 99.3521C127.888 99.3281 127.96 99.2801 128.008 99.2241C128.056 99.1681 128.08 99.0961 128.089 99.0241C128.089 98.9521 128.072 98.8801 128.032 98.8161C127.976 98.7361 127.888 98.6721 127.784 98.6481C127.68 98.6241 127.568 98.6481 127.481 98.6961L127.472 98.6881Z" fill="#363637"/>
<path d="M127.216 98.696C127.256 98.736 127.536 98.544 127.92 98.544C128.304 98.544 128.584 98.72 128.624 98.68C128.664 98.64 128.624 98.576 128.48 98.496C128.312 98.384 128.12 98.328 127.92 98.328C127.72 98.328 127.52 98.384 127.36 98.496C127.24 98.592 127.2 98.68 127.224 98.696H127.216Z" fill="#363637"/>
<path d="M125.68 101.584C125.48 101.512 125.272 101.472 125.056 101.464C124.952 101.464 124.872 101.432 124.864 101.384C124.864 101.296 124.888 101.2 124.936 101.12L125.24 100.408C125.528 99.808 125.744 99.176 125.896 98.536C125.544 99.104 125.256 99.712 125.032 100.336L124.744 101.056C124.68 101.176 124.664 101.32 124.696 101.448C124.712 101.48 124.736 101.512 124.76 101.536C124.792 101.56 124.824 101.584 124.864 101.592H125.04C125.248 101.624 125.464 101.616 125.672 101.584L125.68 101.584Z" fill="#363637"/>
<path d="M126.928 101.968C126.328 102.216 125.696 102.384 125.04 102.464C125.168 102.648 125.36 102.792 125.592 102.864C125.816 102.936 126.071 102.936 126.295 102.864C127.127 102.576 126.928 101.976 126.928 101.976V101.968Z" fill="white"/>
<path d="M125.447 105.88C126.736 105.904 128 105.576 129.079 104.936C129.079 104.936 128.215 106.768 125.44 106.536V105.88H125.447Z" fill="#9B9D9C"/>
<path d="M123.024 95.2401C123.024 95.2401 124.656 96.104 126.944 95.2401C128.448 94.6801 130.16 94.4561 130.504 94.76C130.856 95.064 130.823 96.416 132.231 96.904C132.231 96.904 131.928 99.488 133.064 99.472C134.2 99.456 133.824 95.392 133.824 95.392L131.152 93.976L128.176 93.248L125.296 93.424L123.047 93.816V95.232L123.024 95.2401Z" fill="#363637"/>
<path d="M132.896 98.64C132.944 98.624 134.808 98.12 134.752 99.864C134.688 101.608 132.792 101.184 132.784 101.136C132.784 101.088 132.896 98.64 132.896 98.64Z" fill="#BABBBB"/>
<path d="M133.392 100.488C133.392 100.488 133.424 100.488 133.48 100.536C133.56 100.568 133.648 100.568 133.728 100.536C133.856 100.464 133.96 100.368 134.024 100.256C134.096 100.144 134.128 100.008 134.128 99.88C134.144 99.728 134.112 99.576 134.048 99.44C134.032 99.384 134 99.336 133.96 99.296C133.92 99.256 133.864 99.224 133.808 99.208C133.768 99.2 133.728 99.2 133.696 99.208C133.656 99.224 133.632 99.248 133.616 99.28C133.592 99.328 133.616 99.36 133.592 99.368C133.568 99.368 133.552 99.336 133.568 99.264C133.584 99.224 133.608 99.184 133.648 99.16C133.704 99.128 133.768 99.112 133.832 99.12C133.912 99.136 133.984 99.168 134.04 99.216C134.096 99.264 134.144 99.328 134.169 99.4C134.249 99.552 134.28 99.72 134.264 99.888C134.264 100.04 134.224 100.2 134.136 100.328C134.048 100.456 133.912 100.56 133.76 100.624C133.712 100.632 133.656 100.64 133.6 100.624C133.544 100.616 133.497 100.592 133.456 100.568C133.401 100.536 133.384 100.496 133.4 100.496L133.392 100.488Z" fill="#9B9D9C"/>
<path d="M134.192 93.2561C134.192 93.3121 133.896 93.2881 133.576 93.3841C133.256 93.4801 133.04 93.6401 132.992 93.6001C132.944 93.5601 133.12 93.3041 133.512 93.2081C133.904 93.1121 134.216 93.2081 134.192 93.2561Z" fill="#363637"/>
<path d="M133.104 92.152C133.232 92.416 133.256 92.704 133.16 92.984C133.056 93.456 132.728 93.736 132.688 93.696C132.648 93.656 132.856 93.36 132.936 92.944C133.024 92.52 133.024 92.16 133.096 92.16L133.104 92.152Z" fill="#363637"/>
<path d="M124.912 97.8161C124.848 97.9201 124.48 97.8161 124.048 97.8161C123.616 97.8161 123.24 97.8481 123.184 97.7441C123.128 97.6401 123.512 97.3841 124.048 97.4081C124.584 97.4321 124.976 97.7201 124.912 97.8161Z" fill="#363637"/>
<path d="M129.192 97.8161C129.136 97.9201 128.76 97.8161 128.328 97.8161C127.896 97.8161 127.52 97.8481 127.464 97.7441C127.408 97.6401 127.784 97.3841 128.328 97.4081C128.864 97.4321 129.256 97.7201 129.192 97.8161Z" fill="#363637"/>
<path d="M127.576 94.016C122.544 93.52 121.584 94.328 121.536 94.368C121.408 94.24 121.32 94.088 121.28 93.912C121.104 92.56 122.904 92.176 122.904 92.176C124.032 87.488 128.656 87.968 128.656 87.968V87.936C128.696 87.736 128.824 87.568 129.008 87.448C129.192 87.336 129.416 87.2961 129.632 87.3281L130.36 87.456C130.576 87.496 130.768 87.608 130.896 87.776C131.016 87.944 131.064 88.144 131.024 88.344C136.448 89.992 134.648 94.5601 134.648 94.5601L135.44 95.432C136.144 96.728 134.616 97.1281 134.616 97.1281C134.616 97.1281 132.736 94.544 127.584 94.016H127.576Z" fill="#6E6F6F"/>
<g opacity="0.2">
<path d="M129.865 93.2481C130.169 93.2481 130.473 93.3041 130.761 93.4001C132.169 93.7681 133.472 94.4161 134.584 95.2961C134.825 95.4641 135.04 95.6641 135.216 95.8961C134.4 95.3281 133.561 94.8081 132.681 94.3281C131.769 93.9201 130.832 93.56 129.872 93.248L129.865 93.2481Z" fill="white"/>
</g>
<g opacity="0.2">
<path d="M130.68 88.648C130.624 88.624 130.68 88.416 130.608 88.168C130.536 87.92 130.424 87.744 130.472 87.704C130.52 87.664 130.76 87.816 130.824 88.136C130.888 88.456 130.728 88.656 130.672 88.656L130.68 88.648Z" fill="white"/>
</g>
<g opacity="0.2">
<path d="M134.176 93.8801C133.864 93.8241 133.976 92.4961 133.2 91.1761C132.424 89.8641 131.184 89.1761 131.304 88.9201C131.36 88.7921 131.784 88.7921 132.376 89.0561C133.152 89.4241 133.784 89.9921 134.184 90.6961C134.592 91.4001 134.752 92.1921 134.648 92.9841C134.552 93.5921 134.288 93.9121 134.168 93.8801H134.176Z" fill="white"/>
</g>
<path d="M93.912 126.568C93.912 126.568 90.592 125 90.032 124.312C89.464 123.632 89.208 121.12 89.208 121.12L94.864 123.048L93.912 126.568Z" fill="#BABBBB"/>
<path d="M118.608 120.072C118.416 120.128 114.76 127.56 111.816 127.6C108.88 127.64 93.912 126.56 93.912 126.56L94.84 123.024L109.2 122.608L113.904 116.808L118.608 120.08V120.072Z" fill="#BABBBB"/>
<path d="M138.616 139.712L117.544 140.8C117.48 138.688 118.344 121.76 118.344 121.76L117.184 123.728L111.144 118.832L116.416 112.344C117.248 111.328 118.288 110.464 119.488 109.824C120.688 109.176 122.016 108.76 123.392 108.584C124.208 108.48 124.832 108.432 125.232 108.384C127.56 109.056 130.056 109.056 132.384 108.384C133.392 108.416 134.392 108.592 135.344 108.904C137.144 109.48 138.768 110.44 140.088 111.688L146.4 121.344L138.752 125.728L137.648 122.688L138.616 139.704V139.712Z" fill="#727272"/>
<path d="M128.919 158.96C128.983 158.96 129.031 159.224 129.015 159.56C129.008 159.888 128.951 160.16 128.887 160.16C128.823 160.16 128.784 159.888 128.791 159.56C128.791 159.232 128.855 158.944 128.919 158.968V158.96Z" fill="#5F6162"/>
<path d="M129 156.544C129.056 156.544 129.096 156.816 129.088 157.144C129.072 157.472 129.016 157.744 128.952 157.736C128.888 157.736 128.848 157.464 128.864 157.136C128.88 156.808 128.936 156.536 129 156.544Z" fill="#5F6162"/>
<path d="M129.128 154.16C129.184 154.16 129.224 154.432 129.2 154.76C129.176 155.088 129.112 155.36 129.048 155.352C128.984 155.352 128.952 155.08 128.976 154.744C129 154.416 129.08 154.152 129.128 154.152V154.16Z" fill="#5F6162"/>
<path d="M129.368 151.776C129.432 151.776 129.456 152.048 129.416 152.384C129.376 152.712 129.304 152.976 129.24 152.968C129.176 152.96 129.152 152.696 129.192 152.36C129.232 152.032 129.304 151.768 129.36 151.776L129.368 151.776Z" fill="#5F6162"/>
<path d="M129.616 150.008C129.68 150.008 129.704 150.152 129.68 150.312C129.656 150.472 129.584 150.592 129.528 150.584C129.464 150.584 129.44 150.44 129.464 150.28C129.488 150.112 129.56 150 129.616 150.008Z" fill="#5F6162"/>
<path d="M133.367 140.792L132.215 120.656H119.543L117.488 141.36L133.367 140.784V140.792Z" fill="#363637"/>
<path d="M136.12 109.184C136.12 109.184 130.984 110.408 130.904 121.392H128.832C128.832 121.392 128.288 112.176 133.872 108.552C133.872 108.552 135.488 108.2 136.12 109.192V109.184Z" fill="#363637"/>
<path d="M125.241 108.4C125.241 108.4 121.593 109.968 121.513 120.968H119.753C119.753 120.968 119.632 110.672 123.088 108.64C123.401 108.448 123.76 108.328 124.137 108.288C124.512 108.248 124.889 108.288 125.248 108.4L125.241 108.4Z" fill="#363637"/>
<path d="M141.752 160.056C141.808 160.056 141.92 160.288 141.984 160.608C142.056 160.92 142.056 161.184 141.984 161.2C141.912 161.216 141.816 160.968 141.752 160.648C141.688 160.336 141.688 160.064 141.752 160.056Z" fill="#5F6162"/>
<path d="M141.264 157.784C141.328 157.784 141.432 158.016 141.496 158.336C141.56 158.656 141.568 158.912 141.496 158.928C141.424 158.936 141.328 158.696 141.264 158.376C141.192 158.064 141.2 157.784 141.264 157.784Z" fill="#5F6162"/>
<path d="M140.768 155.496C140.832 155.496 140.935 155.728 140.999 156.048C141.072 156.368 141.072 156.624 140.999 156.64C140.928 156.648 140.832 156.408 140.768 156.088C140.704 155.768 140.711 155.504 140.768 155.496Z" fill="#5F6162"/>
<path d="M140.28 153.224C140.336 153.224 140.448 153.456 140.512 153.776C140.584 154.088 140.584 154.352 140.512 154.368C140.44 154.376 140.344 154.136 140.28 153.816C140.208 153.504 140.216 153.24 140.28 153.224Z" fill="#5F6162"/>
<path d="M139.784 150.944C139.848 150.944 139.952 151.176 140.024 151.496C140.096 151.808 140.096 152.072 140.024 152.088C139.952 152.096 139.856 151.856 139.792 151.536C139.728 151.216 139.728 150.96 139.792 150.944H139.784Z" fill="#5F6162"/>
<path d="M139.28 148.672C139.336 148.672 139.448 148.904 139.52 149.224C139.592 149.536 139.6 149.8 139.52 149.808C139.44 149.816 139.352 149.576 139.288 149.264C139.216 148.952 139.224 148.688 139.288 148.672H139.28Z" fill="#5F6162"/>
<path d="M138.775 146.392C138.832 146.392 138.944 146.624 139.015 146.936C139.088 147.248 139.095 147.512 139.015 147.528C138.935 147.536 138.848 147.296 138.775 146.984C138.704 146.672 138.711 146.392 138.775 146.392Z" fill="#5F6162"/>
<path d="M138.393 144.68C138.448 144.68 138.528 144.792 138.569 144.944C138.608 145.104 138.569 145.24 138.521 145.256C138.473 145.264 138.384 145.144 138.344 144.992C138.312 144.832 138.329 144.696 138.384 144.68H138.393Z" fill="#5F6162"/>
<path d="M121.584 120.392C121.671 120.576 121.703 120.776 121.696 120.976C121.703 121.2 121.656 121.424 121.552 121.632C121.488 121.76 121.392 121.88 121.264 121.968C121.144 122.056 120.992 122.12 120.84 122.152C120.68 122.176 120.512 122.152 120.36 122.104C120.208 122.048 120.08 121.96 119.976 121.84C119.816 121.664 119.728 121.44 119.719 121.208C119.719 120.816 119.847 120.616 119.872 120.632C119.895 120.64 119.84 120.864 119.872 121.2C119.895 121.392 119.984 121.576 120.119 121.72C120.199 121.808 120.304 121.872 120.416 121.912C120.528 121.952 120.656 121.968 120.776 121.952C120.896 121.928 121.008 121.88 121.104 121.808C121.2 121.736 121.28 121.656 121.344 121.552C121.44 121.376 121.496 121.184 121.512 120.984C121.56 120.616 121.543 120.392 121.584 120.392Z" fill="#5F6162"/>
<path d="M120.672 120.68C120.672 120.68 120.8 120.608 120.952 120.728C121 120.768 121.04 120.824 121.056 120.888C121.072 120.952 121.072 121.016 121.056 121.072C121.032 121.128 121 121.184 120.944 121.224C120.888 121.264 120.824 121.288 120.76 121.296C120.688 121.312 120.608 121.304 120.536 121.28C120.464 121.256 120.408 121.208 120.368 121.144C120.344 121.096 120.328 121.04 120.328 120.992C120.328 120.944 120.344 120.888 120.368 120.84C120.456 120.672 120.608 120.672 120.608 120.704C120.608 120.728 120.536 120.776 120.52 120.888C120.512 120.92 120.512 120.944 120.52 120.976C120.528 121 120.544 121.032 120.568 121.048C120.592 121.072 120.616 121.088 120.648 121.096C120.68 121.104 120.712 121.104 120.744 121.096C120.776 121.096 120.808 121.08 120.832 121.056C120.856 121.032 120.872 121.016 120.888 120.984C120.896 120.96 120.904 120.928 120.896 120.896C120.896 120.864 120.88 120.84 120.864 120.816C120.784 120.72 120.696 120.704 120.696 120.672L120.672 120.68Z" fill="#5F6162"/>
<path d="M130.76 120.464C130.84 120.64 130.872 120.824 130.848 121.016C130.848 121.232 130.784 121.44 130.664 121.624C130.592 121.744 130.48 121.84 130.36 121.92C130.232 121.992 130.088 122.032 129.936 122.04C129.792 122.04 129.64 122.024 129.504 121.976C129.368 121.928 129.24 121.856 129.128 121.768C128.96 121.624 128.84 121.432 128.776 121.224C128.672 120.88 128.736 120.664 128.776 120.664C128.816 120.664 128.816 120.88 128.936 121.176C129.008 121.344 129.128 121.504 129.28 121.624C129.464 121.768 129.696 121.84 129.936 121.832C130.048 121.832 130.168 121.8 130.264 121.744C130.36 121.688 130.448 121.616 130.504 121.52C130.608 121.36 130.672 121.184 130.696 121C130.696 120.816 130.712 120.64 130.752 120.464H130.76Z" fill="#5F6162"/>
<path d="M129.768 120.68C129.768 120.68 129.88 120.624 129.992 120.736C130.024 120.768 130.048 120.808 130.064 120.848C130.08 120.888 130.08 120.936 130.064 120.976C130.048 121.032 130.008 121.08 129.968 121.12C129.92 121.16 129.864 121.184 129.8 121.192C129.736 121.2 129.672 121.192 129.616 121.168C129.56 121.144 129.504 121.112 129.472 121.064C129.448 121.024 129.432 120.984 129.432 120.936C129.432 120.888 129.432 120.848 129.456 120.808C129.52 120.672 129.648 120.664 129.648 120.696C129.648 120.728 129.616 120.768 129.616 120.848C129.616 120.928 129.664 121.008 129.776 120.992C129.888 120.976 129.912 120.888 129.88 120.808C129.848 120.728 129.784 120.704 129.784 120.672L129.768 120.68Z" fill="#5F6162"/>
<path d="M130.279 125.544C130.279 125.544 130.183 125.624 129.984 125.736C129.703 125.888 129.415 126.032 129.12 126.152C128.135 126.568 127.095 126.88 126.023 127.064C124.951 127.248 123.863 127.312 122.768 127.256C122.439 127.232 122.112 127.2 121.792 127.144C121.671 127.136 121.552 127.112 121.44 127.072C121.44 127.04 121.952 127.072 122.784 127.104C123.856 127.12 124.928 127.032 125.984 126.856C127.04 126.672 128.064 126.384 129.056 126.008C129.808 125.736 130.256 125.52 130.272 125.544H130.279Z" fill="#5F6162"/>
<path d="M140.288 143.192L117.192 141.368V143.76L140.288 145.552V143.184V143.192Z" fill="#727272"/>
<path d="M124.488 141.84C124.168 141.848 123.848 141.84 123.528 141.816C122.936 141.784 122.104 141.744 121.128 141.672L121.24 141.568L121.712 143.968L121.744 144.16L121.64 144.08L124.704 144.264L124.608 144.352C124.56 143.616 124.528 143 124.504 142.56C124.488 142.32 124.488 142.08 124.504 141.848C124.56 142.064 124.592 142.288 124.608 142.512C124.664 142.944 124.736 143.584 124.808 144.352V144.448H124.704L121.632 144.304H121.544V144.224L121.504 144.032L121.072 141.624L121.048 141.504H121.176C122.192 141.592 123.04 141.68 123.624 141.744C123.912 141.76 124.2 141.8 124.488 141.848L124.488 141.84Z" fill="#5F6162"/>
<path d="M120.072 142.344C120.496 142.264 120.937 142.256 121.369 142.32C121.801 142.32 122.232 142.376 122.64 142.504C122.216 142.584 121.776 142.592 121.344 142.528C120.912 142.528 120.48 142.472 120.072 142.344Z" fill="#363637"/>
<path d="M119.913 143.024C120.368 142.96 120.832 142.968 121.289 143.048C121.753 143.048 122.208 143.128 122.64 143.272C122.185 143.336 121.721 143.328 121.264 143.248C120.8 143.248 120.345 143.168 119.913 143.024Z" fill="#363637"/>
<path d="M94.136 121.136L85.584 118.504L85.248 119.504C85.248 119.504 88.592 124.304 92.488 125.288L94.136 121.144V121.136Z" fill="#5F6162"/>
<path d="M119.544 135.08C119.544 135.08 106.344 126.648 105.552 126.392C104.76 126.136 99.08 126.128 97.68 126.264C96.28 126.4 92.2 126.024 92.2 126.024L96.392 115.44L87.496 113.36L87.968 111.912C87.968 111.912 95.128 107.984 99.264 109.112C103.4 110.24 105.344 115.176 106.2 116.4C107.056 117.624 108.928 122 117.76 127.144L122.984 130.32L119.552 135.072L119.544 135.08Z" fill="#5F6162"/>
<path d="M105.304 118.04C105.288 118.08 105.272 118.12 105.256 118.16L105.104 118.488L104.512 119.736L102.352 124.24L102.263 124.136C102.768 124.104 103.271 124.104 103.783 124.136C104.336 124.136 104.88 124.248 105.392 124.44C106.376 124.944 107.344 125.56 108.368 126.184C110.416 127.456 112.631 128.864 114.935 130.352C115.207 130.568 115.543 130.712 115.895 130.768C116.151 130.8 116.416 130.776 116.656 130.696C116.904 130.616 117.12 130.488 117.296 130.312C117.472 130.136 117.6 129.928 117.664 129.696C117.728 129.464 117.735 129.224 117.671 129C117.6 128.696 117.424 128.424 117.175 128.216C116.919 128.024 116.608 127.84 116.336 127.664L114.68 126.592L108.976 122.872C108.583 122.616 108.247 122.304 107.959 121.952C107.68 121.624 107.44 121.312 107.216 121.008C106.784 120.408 106.416 119.872 106.135 119.44C105.856 119.008 105.64 118.656 105.504 118.416L105.351 118.152C105.351 118.152 105.32 118.088 105.304 118.056C105.336 118.08 105.351 118.112 105.376 118.144L105.543 118.4L106.216 119.4C106.512 119.832 106.88 120.36 107.328 120.968C107.552 121.264 107.8 121.576 108.08 121.896C108.36 122.24 108.696 122.536 109.08 122.784L114.807 126.472L116.464 127.536C116.752 127.728 117.032 127.888 117.328 128.104C117.623 128.336 117.831 128.656 117.911 129C117.991 129.352 117.952 129.712 117.783 130.04C117.623 130.368 117.344 130.632 116.999 130.808C116.656 130.976 116.256 131.048 115.872 130.992C115.479 130.928 115.111 130.776 114.807 130.536C112.496 129.048 110.288 127.64 108.247 126.36C107.223 125.736 106.247 125.104 105.296 124.616C104.807 124.432 104.295 124.328 103.767 124.32C103.271 124.296 102.775 124.296 102.279 124.32H102.135L102.192 124.2C103.152 122.304 103.92 120.76 104.471 119.68C104.736 119.168 104.935 118.76 105.088 118.472L105.248 118.16C105.28 118.088 105.296 118.048 105.296 118.056L105.304 118.04Z" fill="#363637"/>
<path d="M139.568 144.72C139.28 145.12 138.896 145.464 138.456 145.72C138.016 145.984 137.52 146.16 137 146.24C136.48 146.32 135.952 146.312 135.44 146.2C134.928 146.088 134.448 145.888 134.024 145.6L116.416 133.08L119.544 128.232L138.568 139.84C139.408 140.368 139.984 141.176 140.168 142.088C140.36 143 140.144 143.944 139.576 144.72H139.568Z" fill="#5F6162"/>
<path d="M100.904 117.36L99.32 121.872H96.416L98.216 117.376L100.904 117.36Z" fill="#363637"/>
<path d="M96.224 120.88C96.224 120.768 97.184 120.672 98.3592 120.664C99.536 120.656 100.519 120.744 100.519 120.856C100.519 120.968 99.568 121.064 98.384 121.072C97.2 121.072 96.224 120.992 96.224 120.88Z" fill="#363637"/>
<path d="M96.776 119.44C96.776 119.328 97.736 119.232 98.928 119.224C100.128 119.224 101.088 119.304 101.088 119.416C101.088 119.528 100.128 119.624 98.928 119.624C97.728 119.624 96.776 119.544 96.776 119.432V119.44Z" fill="#363637"/>
<path d="M97.12 118.072C97.12 117.96 98.072 117.864 99.256 117.856C100.44 117.856 101.416 117.936 101.416 118.056C101.416 118.176 100.456 118.264 99.28 118.264C98.104 118.264 97.12 118.184 97.12 118.072Z" fill="#363637"/>
<path d="M94.192 120.632C94.064 121.44 93.824 122.232 93.488 122.992C93.216 123.768 92.864 124.512 92.432 125.224C92.664 124.44 92.952 123.664 93.296 122.92C93.768 121.648 94.128 120.624 94.2 120.632H94.192Z" fill="#363637"/>
<path d="M148.984 130.656C149.024 127.696 145.536 121.856 145.536 121.856L139.288 125.432L140.304 127.848L126.328 133.08L122.504 133.24L120.064 136.432L123.2 139.056L131.392 136.992C136.576 136.176 148.928 133.936 148.976 130.656H148.984Z" fill="#BABBBB"/>
<path d="M45.76 157.784C45.488 158.144 45.248 158.52 45.024 158.904C44.776 159.28 44.56 159.664 44.368 160.064C44.64 159.704 44.88 159.328 45.104 158.944C45.352 158.568 45.568 158.184 45.76 157.784Z" fill="#363637"/>
<path d="M44.7199 160.992V161.168C44.7199 161.264 44.7919 161.328 44.8159 161.32C44.8399 161.32 44.8159 161.232 44.8159 161.144C44.8159 161.056 44.7439 160.984 44.7199 160.992Z" fill="#363637"/>
<path d="M44.2 160.432C44.2 160.432 44.28 160.488 44.344 160.568C44.416 160.64 44.464 160.72 44.48 160.712C44.504 160.712 44.48 160.6 44.408 160.512C44.336 160.424 44.2 160.408 44.2 160.432Z" fill="#363637"/>
<path d="M43.8078 160.104C43.8078 160.104 43.8078 160.16 43.8478 160.208C43.8878 160.248 43.9358 160.272 43.9518 160.264C43.9678 160.256 43.9518 160.2 43.9118 160.16C43.8718 160.12 43.8238 160.088 43.8078 160.112V160.104Z" fill="#363637"/>
<path d="M80.3595 143.112H67.1282V145.96H80.3595V143.112Z" fill="#363637"/>
<path d="M73.7602 123.84H60.5282V126.688H73.7602V123.84Z" fill="#363637"/>
<path d="M56.776 143.688H43.544C42.68 143.688 41.984 144.328 41.984 145.112C41.984 145.904 42.68 146.536 43.544 146.536H56.776C57.64 146.536 58.336 145.904 58.336 145.112C58.336 144.32 57.64 143.688 56.776 143.688Z" fill="#5F6162"/>
<path d="M48.3519 125.76C48.3519 126.136 48.5199 126.496 48.8079 126.768C49.1039 127.04 49.4959 127.184 49.9119 127.184H60.0239C60.4399 127.184 60.8319 127.032 61.1279 126.768C61.4239 126.504 61.5839 126.136 61.5839 125.76C61.5839 125.384 61.4163 125.024 61.1279 124.752C60.8319 124.488 60.4399 124.336 60.0239 124.336H49.9119C49.4959 124.336 49.1039 124.488 48.8079 124.752C48.5119 125.016 48.3519 125.384 48.3519 125.76Z" fill="#5F6162"/>
<path d="M51.2321 96.608C51.432 96.664 55.08 104.096 58.024 104.136C60.96 104.176 75.936 103.096 75.936 103.096L76.1203 99.12L60.648 99.16L55.944 93.36L51.24 96.616L51.2321 96.608Z" fill="#BABBBB"/>
<path d="M74.2164 99.6161C74.2164 99.6161 76.7681 98.8721 77.0484 98.5041C77.3281 98.1361 78.4801 96.4241 78.4801 96.4241C78.7201 96.7201 78.8244 97.0881 78.7681 97.4561C78.6881 97.7361 78.5441 98.2401 78.4404 98.6321C78.4244 98.6881 78.4244 98.7441 78.4404 98.8001C78.4564 98.8561 78.4884 98.9041 78.5281 98.9441C78.5684 98.9841 78.6241 99.0161 78.6881 99.0321C78.7444 99.0481 78.8084 99.0561 78.8724 99.0401C79.4721 98.9441 80.3604 98.8401 80.4641 99.1041C80.6241 99.4961 79.9284 102.104 79.4081 102.584C78.8961 103.064 75.3844 103.072 75.3844 103.072L74.2164 99.6081V99.6161Z" fill="#BABBBB"/>
<path d="M79.8078 99.88C79.8078 99.88 79.6478 100.056 79.2875 100.208C79.0718 100.296 78.8478 100.36 78.6155 100.392C78.4555 100.416 78.2955 100.392 78.1598 100.312C78.0875 100.264 78.0235 100.2 77.9915 100.12C77.9595 100.04 77.9518 99.96 77.9678 99.872C77.9998 99.712 78.0958 99.576 78.2315 99.48C78.3518 99.408 78.4798 99.352 78.6238 99.32C78.8715 99.256 79.0955 99.224 79.2798 99.184C79.4795 99.128 79.6882 99.104 79.8962 99.112C79.7202 99.216 79.5198 99.288 79.3195 99.32L78.6795 99.496C78.5675 99.512 78.4555 99.56 78.3678 99.632C78.2795 99.704 78.2155 99.792 78.1758 99.896C78.1278 100.112 78.3518 100.216 78.5842 100.192C78.7998 100.168 79.0078 100.128 79.2075 100.064C79.3918 99.992 79.5922 99.928 79.7842 99.888L79.8078 99.88Z" fill="#9B9D9C"/>
<path d="M79.3845 101.056C79.2565 101.152 79.1125 101.224 78.9525 101.264C78.8725 101.296 78.7842 101.312 78.6965 101.32C78.6402 101.32 78.5762 101.32 78.5205 101.296C78.4642 101.272 78.4162 101.248 78.3682 101.208C78.2645 101.128 78.2005 101.024 78.1762 100.904C78.1525 100.784 78.1762 100.664 78.2402 100.56C78.3842 100.384 78.5845 100.264 78.8162 100.208L79.2962 100.032C79.5765 99.928 79.7602 99.904 79.7685 99.928C79.7762 99.952 79.6162 100.032 79.3602 100.16C79.2322 100.224 79.0722 100.304 78.8962 100.384C78.7125 100.44 78.5525 100.536 78.4322 100.672C78.4002 100.736 78.3842 100.808 78.4002 100.88C78.4162 100.952 78.4565 101.016 78.5122 101.064C78.5282 101.088 78.5602 101.112 78.5922 101.12C78.6242 101.136 78.6562 101.136 78.6882 101.136C78.7605 101.136 78.8322 101.128 78.9045 101.112C79.1842 101.056 79.3685 101.016 79.3762 101.056H79.3845Z" fill="#9B9D9C"/>
<path d="M77.8398 101.92C77.8398 101.92 77.7598 101.784 77.6242 101.592C77.4482 101.328 77.1998 101.12 76.9042 100.968L76.7602 100.896L76.8882 100.8C76.9758 100.736 77.0718 100.664 77.1518 100.584C77.5602 100.176 77.8879 99.712 78.1362 99.208C78.1682 99.208 78.1362 99.408 78.0402 99.704C77.8802 100.088 77.6318 100.44 77.3118 100.728C77.2242 100.808 77.1282 100.888 77.0238 100.96V100.792C77.3522 100.96 77.6158 101.216 77.7682 101.528C77.8398 101.76 77.8398 101.92 77.8398 101.92Z" fill="#9B9D9C"/>
<path d="M79.4484 101.968C79.4484 101.968 79.3364 102.096 79.0644 102.184C78.9762 102.216 78.8884 102.224 78.8002 102.224C78.7124 102.224 78.6242 102.2 78.5364 102.16C78.4322 102.112 78.3522 102.04 78.2964 101.952C78.2644 101.896 78.2484 101.84 78.2484 101.776C78.2484 101.712 78.2644 101.656 78.2964 101.6C78.4084 101.432 78.5762 101.288 78.7764 101.208C78.9122 101.136 79.0562 101.08 79.2084 101.024C79.4644 100.936 79.6404 100.912 79.6404 100.936C79.6404 100.96 79.5042 101.032 79.2724 101.152C79.1604 101.216 79.0242 101.288 78.8724 101.376C78.7202 101.448 78.5922 101.552 78.4962 101.672C78.4322 101.784 78.5282 101.92 78.6484 101.984C78.7682 102.04 78.9044 102.064 79.0402 102.032C79.2802 102 79.4402 101.936 79.4562 101.968L79.4484 101.968Z" fill="#9B9D9C"/>
<path d="M36.2406 75.8719C36.1846 76.5676 36.0406 77.2562 35.8086 77.92C35.5686 78.592 35.0726 79.1596 34.4166 79.536C33.7766 79.8636 32.8966 80 32.6486 80.624C32.4006 81.2562 32.9366 82.064 32.4326 82.536C32.2086 82.704 31.9366 82.808 31.6486 82.84C31.1766 82.944 30.7286 83.136 30.3446 83.408C29.9606 83.68 29.6406 84.024 29.4086 84.4159C29.1926 84.896 29.1046 85.408 29.1446 85.92C29.1846 86.432 29.3526 86.936 29.6326 87.376C30.2166 88.256 30.9446 89.056 31.7926 89.7359L39.9846 88.136C39.9846 88.136 37.5606 76.304 37.6006 76.384C37.1366 76.24 36.6806 76.0716 36.2406 75.8719Z" fill="#363637"/>
<path d="M47.104 76.496C47.144 76.6797 47.224 76.848 47.344 76.9997C47.464 77.152 47.624 77.2717 47.8 77.3677C48.16 77.5437 48.512 77.744 48.84 77.9596C49.104 78.192 49.32 78.464 49.456 78.7756C49.6 79.088 49.664 79.4156 49.648 79.7516C49.624 80.4236 49.488 81.0796 49.256 81.7196C49.928 81.744 50.584 81.9117 51.176 82.192C51.768 82.472 52.296 82.872 52.704 83.36C53.52 84.344 53.944 85.544 53.92 86.776C53.92 87.648 53.68 88.592 52.944 89.136C52.328 89.536 51.6 89.768 50.84 89.816C49.352 90.016 47.856 90.136 46.36 90.248C44.864 90.368 43.248 90.456 41.92 89.8C40.832 89.2 40.008 88.272 39.584 87.176C38.92 85.576 38.68 83.856 38.888 82.152C39.096 80.4557 39.504 78.784 40.096 77.168" fill="#363637"/>
<path d="M36.7839 74.576C36.0559 74.24 35.2559 74.0403 34.4399 74.0083C33.6239 74.0083 32.7599 74.448 32.5359 75.1603C32.4319 75.5443 32.4879 75.952 32.6799 76.3123C32.8799 76.6643 33.1439 76.9843 33.4559 77.2563C33.7359 77.568 34.1279 77.776 34.5679 77.8483C34.9119 77.8643 35.2479 77.776 35.5279 77.6C36.0959 77.3043 36.5119 76.8083 36.6959 76.24C36.7759 75.952 36.7759 75.648 36.6799 75.3683C36.5839 75.088 36.4079 74.832 36.1599 74.6323" fill="#363637"/>
<path d="M46.1121 72.9042C46.1121 72.9042 47.5841 72.4402 47.5921 71.5602C47.6081 70.6879 36.6161 69.4322 34.5121 74.3122C34.5121 74.3122 34.9201 74.5759 36.6241 74.4799" fill="#727272"/>
<path d="M37.696 86.4L44.4 85.912C44.44 85.2 44.4 82.44 44.4 82.44C44.4 82.44 47.192 82.048 47.224 79.504C47.256 76.96 46.792 71.1283 46.792 71.1283C45.208 70.5043 43.464 70.2803 41.752 70.48C40.04 70.6803 38.416 71.2883 37.048 72.2483L36.616 72.5363L37.696 86.4Z" fill="#BABBBB"/>
<path d="M45.6321 75.3517C45.5921 75.3197 45.5521 75.28 45.5281 75.2397C45.5041 75.2 45.4881 75.1437 45.4801 75.0957C45.4801 75.0477 45.4801 74.992 45.5041 74.944C45.5201 74.896 45.5521 74.8557 45.5841 74.816C45.6241 74.7757 45.6641 74.752 45.7201 74.7283C45.7681 74.704 45.8241 74.6957 45.8801 74.6957C45.9361 74.6957 45.9921 74.704 46.0401 74.7283C46.0881 74.7443 46.1361 74.7757 46.1761 74.816C46.2161 74.848 46.2561 74.8883 46.2801 74.928C46.3041 74.976 46.3201 75.024 46.3281 75.072C46.3281 75.12 46.3281 75.1757 46.3041 75.2237C46.2881 75.2717 46.2561 75.312 46.2241 75.3517C46.1841 75.392 46.1441 75.4157 46.0881 75.44C46.0401 75.4637 45.9841 75.472 45.9281 75.472C45.8721 75.472 45.8161 75.4637 45.7681 75.44C45.7201 75.4157 45.6721 75.392 45.6321 75.3517Z" fill="#363637"/>
<path d="M46.7842 74.9121C46.7442 74.9517 46.4722 74.7681 46.0882 74.7597C45.7042 74.7597 45.4242 74.9441 45.3842 74.8961C45.3442 74.8481 45.4082 74.8001 45.5282 74.7117C45.6882 74.5997 45.8882 74.5441 46.0882 74.5441C46.2882 74.5441 46.4882 74.6081 46.6482 74.7201C46.7842 74.8083 46.8162 74.8877 46.7842 74.9037V74.9121Z" fill="#363637"/>
<path d="M42.0081 75.104C42.0561 75.1284 42.0961 75.1604 42.1201 75.2C42.1441 75.2404 42.1761 75.2883 42.1841 75.328C42.1921 75.3683 42.2001 75.424 42.1841 75.472C42.1761 75.52 42.1601 75.568 42.1281 75.6083C42.0961 75.648 42.0641 75.6883 42.0161 75.712C41.9761 75.744 41.9201 75.76 41.8721 75.7683C41.8161 75.776 41.7681 75.7843 41.7121 75.7683C41.6561 75.76 41.6081 75.744 41.5601 75.7203C41.4721 75.664 41.4081 75.584 41.3841 75.488C41.3601 75.392 41.3761 75.296 41.4241 75.2083C41.4481 75.168 41.4881 75.1283 41.5361 75.0963C41.5761 75.0643 41.6321 75.0483 41.6801 75.0323C41.7361 75.024 41.7841 75.0163 41.8401 75.0323C41.8961 75.04 41.9441 75.056 41.9921 75.088L42.0081 75.104Z" fill="#363637"/>
<path d="M42.6238 75.2243C42.5758 75.264 42.3038 75.072 41.9198 75.072C41.5358 75.072 41.2558 75.248 41.2158 75.2083C41.1758 75.168 41.2398 75.1122 41.3598 75.024C41.5198 74.912 41.7198 74.8563 41.9278 74.864C42.1278 74.864 42.3278 74.928 42.4878 75.04C42.6078 75.1282 42.6478 75.2083 42.6318 75.232L42.6238 75.2243Z" fill="#363637"/>
<path d="M44.1599 78.1119C44.3599 78.0396 44.5679 77.9999 44.7839 77.9917C44.8799 77.9917 44.9679 77.968 44.9679 77.9117C44.9679 77.824 44.9519 77.7279 44.8959 77.6479C44.7999 77.4156 44.6959 77.1839 44.5919 76.9357C44.3039 76.3359 44.0879 75.7042 43.9359 75.0642C44.2879 75.6402 44.5759 76.2399 44.7999 76.8639C44.8959 77.1122 44.9919 77.3439 45.0879 77.5839C45.1599 77.7042 45.1759 77.84 45.1439 77.9762C45.1279 78.0082 45.1039 78.0402 45.0799 78.064C45.0479 78.0882 45.0159 78.1042 44.9759 78.1202C44.9199 78.1279 44.8639 78.1279 44.7999 78.1202C44.5919 78.1522 44.3759 78.1439 44.1679 78.1119L44.1599 78.1119Z" fill="#363637"/>
<path d="M44.3919 82.4C43.1039 82.424 41.8319 82.096 40.7519 81.4559C40.7519 81.4559 41.6159 83.288 44.4 83.056V82.4H44.3919Z" fill="#9B9D9C"/>
<path d="M46.816 71.7677C46.2 72.0237 45.536 72.16 44.856 72.16C44.176 72.16 43.512 72.0237 42.896 71.7677C41.392 71.2077 39.68 70.9837 39.336 71.2877C38.984 71.5917 39.592 74.2157 38.192 74.7117C38.192 74.7117 37.928 76.0237 36.784 76.0077C35.64 75.9917 36.032 71.936 36.032 71.936L38.704 70.512L41.688 69.792L44.568 69.968L46.816 70.3597V71.776V71.7677Z" fill="#363637"/>
<path d="M36.9439 75.1603C36.8959 75.1603 35.0239 74.6483 35.0879 76.3841C35.1519 78.1203 37.0479 77.7043 37.0479 77.6563C37.0479 77.6083 36.9439 75.1603 36.9439 75.1603Z" fill="#BABBBB"/>
<path d="M36.4322 77.0157C36.4322 77.0157 36.4002 77.0157 36.3442 77.0637C36.2642 77.0957 36.1762 77.0957 36.0962 77.0637C35.9682 76.992 35.8642 76.896 35.8002 76.784C35.7282 76.672 35.6962 76.5357 35.6962 76.4077C35.6882 76.256 35.7122 76.112 35.7762 75.9757C35.7922 75.92 35.8242 75.872 35.8642 75.8317C35.9042 75.792 35.9602 75.76 36.0162 75.7357C36.0562 75.7197 36.0962 75.728 36.1282 75.7357C36.1682 75.7517 36.1922 75.776 36.2082 75.808C36.2402 75.856 36.2082 75.888 36.2402 75.8957C36.2722 75.8957 36.2802 75.8637 36.2402 75.792C36.2242 75.7517 36.2002 75.712 36.1602 75.6877C36.1122 75.664 36.0562 75.6557 36.0082 75.664C35.9282 75.68 35.8562 75.712 35.8002 75.7677C35.7442 75.8157 35.6962 75.8797 35.6722 75.9437C35.6002 76.1037 35.5602 76.2797 35.5762 76.448C35.5762 76.5997 35.6162 76.7597 35.7122 76.8877C35.8002 77.0157 35.9362 77.12 36.0882 77.184C36.1362 77.1917 36.1922 77.2 36.2482 77.184C36.3042 77.168 36.3522 77.152 36.3922 77.1277C36.4402 77.0637 36.4642 77.024 36.4402 77.024L36.4322 77.0157Z" fill="#9B9D9C"/>
<path d="M35.6481 69.7601C35.6241 69.7121 35.9441 69.5841 36.3281 69.6961C36.7201 69.8081 36.8961 70.0877 36.8481 70.0877C36.8001 70.0877 36.5841 69.9597 36.2641 69.872C35.9441 69.7837 35.6641 69.8317 35.6481 69.7601Z" fill="#363637"/>
<path d="M36.7361 68.6802C36.8081 68.6802 36.8081 69.0482 36.8961 69.4642C36.9841 69.8802 37.1921 70.1842 37.1441 70.2162C37.0961 70.2482 36.7761 69.9762 36.6801 69.504C36.5921 69.232 36.6081 68.9362 36.7441 68.672L36.7361 68.6802Z" fill="#363637"/>
<path d="M44.92 74.3442C44.856 74.2482 45.208 73.9519 45.784 73.9519C46.36 73.9519 46.72 74.1842 46.648 74.2879C46.576 74.3839 46.216 74.3437 45.784 74.3597C45.352 74.3757 44.984 74.4479 44.92 74.3442Z" fill="#363637"/>
<path d="M39.2799 71.232C39.8639 71.568 40.4159 71.952 40.9359 72.368C41.4639 72.784 42.1439 73.008 42.8479 73.008L42.6799 72.7123C43.6879 73.0803 44.7519 73.312 45.8399 73.408C46.0319 73.4483 46.2399 73.4483 46.4319 73.408C46.6239 73.36 46.8079 73.2723 46.9519 73.1443C47.1999 72.848 46.8559 72.32 46.8159 71.776C46.7839 71.3843 46.6319 71.28 46.2239 71.136C46.0319 71.088 45.8319 71.072 45.6399 71.088C44.1279 71.1443 42.6159 71.0643 41.1119 70.864C40.7599 70.8 40.4079 70.7763 40.0479 70.7923C39.8719 70.7923 39.6959 70.832 39.5359 70.9043C39.3759 70.9683 39.2319 71.072 39.1199 71.184" fill="#363637"/>
<path d="M44.1919 78.432C44.1279 78.3917 44.0559 78.368 43.9759 78.368C43.8959 78.368 43.8239 78.3917 43.7599 78.432C43.6959 78.464 43.6479 78.5197 43.6159 78.576C43.5839 78.6317 43.5599 78.6957 43.5679 78.768C43.5679 78.9037 43.624 79.0317 43.7199 79.1277C43.792 79.2077 43.8959 79.2717 44.0159 79.296C44.1119 79.312 44.2079 79.3037 44.2959 79.2717C44.384 79.2397 44.4639 79.1757 44.5119 79.104C44.5599 79.0317 44.5919 78.944 44.5919 78.8557C44.5919 78.7681 44.5679 78.6797 44.5119 78.6081C44.4559 78.5357 44.3839 78.4717 44.2959 78.432C44.2079 78.3917 44.1119 78.3757 44.0159 78.3757" fill="#9B9D9C"/>
<path d="M45.1602 78.9279C45.1602 78.9279 45.0482 79.0239 44.8322 79.0316C44.5522 79.0316 44.2802 78.9836 44.0242 78.8799C43.4242 78.6636 43.0482 78.2956 43.1122 78.2476C43.1762 78.1996 43.5442 78.4876 44.1042 78.6879C44.3362 78.7839 44.5842 78.8479 44.8322 78.8876C45.0242 78.9119 45.1442 78.9036 45.1522 78.9279H45.1602Z" fill="#363637"/>
<path d="M42.5361 74.3039C42.4881 74.3437 42.4001 74.3283 42.2801 74.3443C42.1601 74.3603 41.9761 74.4 41.7281 74.416C41.2561 74.4557 40.8641 74.416 40.8641 74.2803C40.8641 74.144 41.2241 74.0479 41.7041 74.0083C41.9201 73.9763 42.1521 74 42.3601 74.0563C42.5441 74.1363 42.5841 74.272 42.5361 74.2963V74.3039Z" fill="#363637"/>
<path d="M37.984 72.3438C38.016 73.7358 38.32 75.12 38.336 76.5038C38.352 77.8958 38.048 79.3678 37.04 80.432C36.712 80.832 36.224 81.0881 35.68 81.1598C35.528 81.1841 35.368 81.1598 35.224 81.0958C35.08 81.0318 34.968 80.9358 34.896 80.8078C34.832 80.5921 34.864 80.3598 34.984 80.1601C35.328 79.5278 35.728 78.9121 36.168 78.3278C36.608 77.7441 36.888 77.0721 36.968 76.3681C36.96 75.8478 36.88 75.3281 36.728 74.8321C36.576 74.3278 36.552 73.7998 36.664 73.2878C36.72 73.0318 36.864 72.8001 37.064 72.6158C37.264 72.4321 37.52 72.3041 37.8 72.2478" fill="#363637"/>
<path d="M41.5599 71.2C46.5919 70.704 47.5519 71.5117 47.5999 71.552C47.7359 71.424 47.8239 71.2717 47.8559 71.104C48.0399 69.7677 46.2319 69.3677 46.2319 69.3677C45.1039 64.6797 40.4799 65.1597 40.4799 65.1597V65.1277C40.4399 64.928 40.3119 64.7597 40.1279 64.64C39.9439 64.528 39.7199 64.4877 39.5039 64.5197L38.7839 64.6477C38.5679 64.688 38.3759 64.8 38.2559 64.9677C38.1359 65.136 38.0879 65.3357 38.1279 65.536C32.7039 67.184 34.5039 71.7517 34.5039 71.7517L33.7119 72.624C33.0079 73.9277 34.5359 74.32 34.5359 74.32C34.5359 74.32 36.4079 71.728 41.5679 71.2077L41.5599 71.2Z" fill="#6E6F6F"/>
<g opacity="0.2">
<path d="M39.2643 70.4321C38.3043 70.7444 37.3683 71.1124 36.4563 71.5201C35.5763 72.0001 34.7363 72.5204 33.9283 73.0881C34.0963 72.8564 34.3123 72.6561 34.5523 72.4884C35.6563 71.6084 36.9683 70.9601 38.3763 70.5921C38.6563 70.4878 38.9603 70.4321 39.2643 70.4238V70.4321Z" fill="white"/>
</g>
<g opacity="0.2">
<path d="M34.96 71.072C34.816 71.104 34.568 70.7841 34.472 70.192C34.376 69.408 34.536 68.608 34.944 67.904C35.352 67.2 35.984 66.6324 36.752 66.2644C37.352 66 37.776 66 37.832 66.1281C37.952 66.3924 36.688 67.0561 35.936 68.3841C35.184 69.7121 35.28 71.0158 34.968 71.072H34.96Z" fill="white"/>
</g>
<path d="M31.2564 116.224L51.6164 117.896C51.6484 116.624 51.2244 108.888 50.9764 103.808C50.9284 102.848 51.9764 101.176 51.9364 100.368C51.8324 98.368 51.5044 98.288 51.5044 98.288L52.6644 100.256L58.7044 95.36L53.4324 88.872C52.6004 87.856 51.5604 86.992 50.3604 86.352C49.1604 85.712 47.8324 85.288 46.4564 85.112C45.6404 85.016 45.0164 84.96 44.6084 84.912C42.2804 85.584 39.7844 85.584 37.4564 84.912C36.4484 84.944 35.4484 85.12 34.4964 85.432C32.6964 86.008 31.0724 86.968 29.7524 88.216L21.1284 97.464L29.1044 102.16L32.1764 99.216L32.5764 106.864L31.2644 116.224L31.2564 116.224Z" fill="#727272"/>
<path d="M50.1439 95.12C50.1439 95.176 47.1279 95.224 43.4399 95.224C39.7519 95.224 36.7359 95.176 36.7359 95.12C36.7359 95.064 39.7359 95.016 43.4399 95.016C47.1439 95.016 50.1439 95.056 50.1439 95.12Z" fill="white"/>
<path d="M49.6962 93.1361C48.4002 93.2721 47.0882 93.2721 45.7922 93.1361C47.0882 93.0001 48.4002 93.0001 49.6962 93.1361Z" fill="white"/>
<path d="M35.1361 95.9281C34.8961 96.272 34.6161 96.592 34.3121 96.8881C33.7841 97.4641 33.0161 98.2481 32.2001 99.1121C31.3841 99.9761 30.6081 100.744 30.0401 101.296C29.7521 101.608 29.4401 101.896 29.0961 102.16C29.3441 101.824 29.6161 101.504 29.9201 101.2C30.4561 100.624 31.2161 99.832 32.0321 98.968C32.8481 98.104 33.6241 97.336 34.1921 96.784C34.4801 96.472 34.7921 96.184 35.1361 95.92V95.9281Z" fill="#363637"/>
<path d="M22.8641 104.544C23.2241 104.744 23.5441 104.992 23.8161 105.28C24.1441 105.52 24.4001 105.832 24.5761 106.184C24.2321 105.968 23.9281 105.712 23.6561 105.424C23.3281 105.184 23.0641 104.88 22.8641 104.544Z" fill="#9B9D9C"/>
<path d="M36.4721 117.32L37.6241 97.184H50.2881L51.2241 118.528L36.4641 117.32H36.4721Z" fill="#363637"/>
<path d="M48.5121 102.4C48.5121 102.4 48.4161 102.488 48.2161 102.608C47.9441 102.784 47.6561 102.944 47.3521 103.088C45.3521 104.056 43.0961 104.488 40.8321 104.328C40.4961 104.304 40.1601 104.256 39.8241 104.2C39.6961 104.192 39.5761 104.16 39.4641 104.112C39.4641 104.08 39.9921 104.152 40.8481 104.184C41.9521 104.224 43.0641 104.136 44.1441 103.944C45.2241 103.736 46.2801 103.416 47.2801 102.984C48.0481 102.632 48.5041 102.368 48.5041 102.4H48.5121Z" fill="#5F6162"/>
<path d="M39.6479 105.344C39.5839 105.344 39.5199 105.216 39.5119 105.056C39.5039 104.896 39.5439 104.768 39.5999 104.752C39.6639 104.744 39.7199 104.872 39.7359 105.04C39.7519 105.208 39.7039 105.344 39.6479 105.344Z" fill="#5F6162"/>
<path d="M39.3038 107.552C39.2398 107.552 39.2398 107.296 39.3038 106.984C39.3678 106.68 39.4558 106.44 39.5198 106.448C39.5838 106.456 39.5838 106.712 39.5198 107.016C39.4558 107.32 39.3678 107.56 39.3038 107.552Z" fill="#5F6162"/>
<path d="M39.6001 109.736C39.5521 109.768 39.3601 109.56 39.2641 109.248C39.1681 108.936 39.2001 108.672 39.2641 108.672C39.3281 108.672 39.3921 108.904 39.4801 109.192C39.5681 109.48 39.6561 109.712 39.6001 109.736Z" fill="#5F6162"/>
<path d="M41.664 110.736C41.664 110.792 41.376 110.832 41.032 110.776C40.68 110.72 40.44 110.552 40.472 110.504C40.504 110.456 40.76 110.52 41.072 110.576C41.392 110.624 41.664 110.68 41.664 110.736Z" fill="#5F6162"/>
<path d="M44.1199 110.712C44.1199 110.768 43.8399 110.816 43.5039 110.824C43.1679 110.824 42.8879 110.784 42.8879 110.728C42.8879 110.672 43.1599 110.624 43.5039 110.616C43.8399 110.616 44.1199 110.648 44.1199 110.712Z" fill="#5F6162"/>
<path d="M46.5679 110.68C46.5679 110.736 46.2959 110.792 45.9519 110.792C45.6079 110.792 45.3359 110.752 45.3359 110.696C45.3359 110.64 45.6159 110.592 45.9519 110.584C46.2959 110.584 46.5679 110.608 46.5679 110.672V110.68Z" fill="#5F6162"/>
<path d="M48.5678 109.672C48.6158 109.672 48.5918 109.96 48.3518 110.224C48.1118 110.48 47.7918 110.536 47.7758 110.488C47.7598 110.44 47.9838 110.304 48.1838 110.096C48.3838 109.888 48.5118 109.656 48.5758 109.68L48.5678 109.672Z" fill="#5F6162"/>
<path d="M49.016 107.472C49.08 107.472 49.088 107.736 49.04 108.04C48.992 108.344 48.896 108.584 48.84 108.576C48.776 108.568 48.768 108.312 48.816 108.008C48.864 107.704 48.944 107.472 49.016 107.472Z" fill="#5F6162"/>
<path d="M49.2641 105.256C49.3281 105.256 49.3521 105.512 49.3281 105.824C49.3041 106.136 49.2241 106.376 49.1681 106.368C49.1041 106.368 49.0801 106.112 49.1041 105.8C49.1281 105.496 49.2001 105.248 49.2641 105.256Z" fill="#5F6162"/>
<path d="M49.3438 103.544C49.4078 103.544 49.4478 103.68 49.4478 103.84C49.4478 104 49.3838 104.136 49.3278 104.128C49.2638 104.128 49.2238 103.992 49.2238 103.832C49.2238 103.672 49.2798 103.536 49.3438 103.536V103.544Z" fill="#5F6162"/>
<path d="M33.7199 85.712C33.7199 85.712 38.8559 86.936 38.9359 97.912H40.9999C40.9999 97.912 41.5439 88.696 35.9599 85.072C35.9599 85.072 34.3439 84.72 33.7199 85.704V85.712Z" fill="#363637"/>
<path d="M44.5762 84.9281C44.5762 84.9281 48.2242 86.4961 48.3122 97.4961H50.0642C50.0642 97.4961 50.2162 87.216 46.7682 85.192C46.4482 85 46.0882 84.8721 45.7042 84.8241C45.3202 84.7761 44.9362 84.8161 44.5762 84.9281Z" fill="#363637"/>
<path d="M40.9918 97.0719C41.0878 97.264 41.1358 97.48 41.1198 97.696C41.1198 97.944 41.0478 98.176 40.8958 98.376C40.7918 98.496 40.6558 98.584 40.5118 98.648C40.3678 98.712 40.1998 98.744 40.0318 98.744C39.8638 98.76 39.6958 98.744 39.5358 98.68C39.3758 98.624 39.2398 98.536 39.1198 98.424C38.9518 98.232 38.8558 98 38.8478 97.76C38.8238 97.544 38.8478 97.328 38.9358 97.128C38.9758 97.328 38.9998 97.536 39.0078 97.744C39.0318 97.952 39.1278 98.144 39.2718 98.304C39.4798 98.464 39.7438 98.544 40.0158 98.536C40.2878 98.528 40.5438 98.424 40.7358 98.256C40.8718 98.088 40.9518 97.888 40.9678 97.68C40.9518 97.472 40.9678 97.272 40.9838 97.064L40.9918 97.0719Z" fill="#5F6162"/>
<path d="M39.9678 97.4C39.9678 97.4 40.0798 97.312 40.2398 97.4C40.2878 97.432 40.3198 97.48 40.3438 97.528C40.3678 97.576 40.3678 97.632 40.3598 97.688C40.3438 97.752 40.3118 97.816 40.2558 97.864C40.1998 97.912 40.1358 97.944 40.0638 97.952C39.9918 97.9599 39.9118 97.952 39.8478 97.92C39.7838 97.888 39.7278 97.84 39.6878 97.784C39.6558 97.7359 39.6398 97.688 39.6398 97.632C39.6398 97.576 39.6558 97.5279 39.6878 97.4799C39.7998 97.3359 39.9438 97.36 39.9358 97.384C39.9278 97.408 39.8638 97.4479 39.8318 97.552C39.8318 97.576 39.8238 97.5999 39.8318 97.6239C39.8318 97.6479 39.8478 97.672 39.8638 97.688C39.8798 97.712 39.9118 97.7279 39.9358 97.7359C39.9678 97.7519 39.9918 97.752 40.0238 97.752C40.0558 97.752 40.0798 97.728 40.1038 97.712C40.1278 97.696 40.1438 97.672 40.1518 97.64C40.1598 97.6159 40.1598 97.5919 40.1518 97.568C40.1518 97.544 40.1358 97.5199 40.1198 97.5039C40.0718 97.44 39.9758 97.432 39.9758 97.4H39.9678Z" fill="#5F6162"/>
<path d="M50.1042 97.064C50.1042 97.064 50.2322 97.256 50.2082 97.6C50.1922 97.808 50.1202 98 49.9922 98.176C49.9122 98.28 49.8082 98.376 49.6882 98.44C49.5682 98.504 49.4322 98.552 49.2882 98.568C49.1442 98.592 48.9922 98.568 48.8562 98.52C48.7202 98.472 48.6002 98.392 48.5122 98.28C48.3922 98.12 48.3042 97.944 48.2722 97.752C48.2402 97.56 48.2482 97.368 48.3122 97.176C48.3522 97.176 48.3602 97.376 48.4322 97.688C48.4642 97.864 48.5522 98.024 48.6722 98.16C48.7442 98.232 48.8322 98.296 48.9362 98.328C49.0402 98.36 49.1522 98.376 49.2642 98.36C49.3762 98.344 49.4802 98.304 49.5842 98.256C49.6802 98.2 49.7682 98.128 49.8322 98.048C49.9442 97.904 50.0242 97.736 50.0562 97.568C50.1202 97.256 50.0802 97.072 50.1122 97.064H50.1042Z" fill="#5F6162"/>
<path d="M49.1279 97.336C49.1279 97.336 49.1839 97.216 49.3759 97.24C49.4319 97.248 49.4879 97.272 49.5279 97.304C49.5759 97.336 49.6079 97.384 49.6239 97.432C49.6479 97.496 49.6479 97.56 49.6239 97.624C49.6079 97.688 49.5599 97.744 49.5039 97.784C49.4479 97.824 49.3759 97.848 49.2959 97.848C49.2159 97.848 49.1519 97.824 49.0879 97.784C49.0399 97.752 48.9999 97.712 48.9759 97.664C48.9519 97.616 48.9439 97.56 48.9519 97.504C48.9919 97.328 49.1359 97.304 49.1359 97.328C49.1359 97.352 49.0959 97.416 49.1119 97.504C49.1119 97.528 49.1199 97.552 49.1359 97.568C49.1519 97.584 49.1679 97.6 49.1919 97.616C49.2159 97.632 49.2479 97.64 49.2799 97.64C49.3119 97.64 49.3359 97.64 49.3679 97.616C49.3919 97.6 49.4079 97.576 49.4159 97.544C49.4239 97.52 49.4239 97.488 49.4159 97.464C49.4159 97.44 49.3999 97.416 49.3839 97.4C49.3679 97.384 49.3439 97.368 49.3199 97.352C49.2239 97.312 49.1359 97.336 49.1199 97.312L49.1279 97.336Z" fill="#5F6162"/>
<path d="M43.7366 161.991H50.3554L51.4562 160.08L45.3122 157.072L42.7281 161.432L43.0962 161.64C43.2586 161.73 43.4834 161.854 43.7366 161.991Z" fill="#727272"/>
<path d="M38.5779 161.991L56.4559 112.816L69.9787 161.991H74.7465L58.8879 104.68H55.0398L34.3582 161.991H38.5779Z" fill="#363637"/>
<path d="M54.4929 161.991L67.6238 113L85.376 161.991H90.6344L69.5841 104.68H64.9843L48.9317 161.991H54.4929Z" fill="#5F6162"/>
<path d="M42.7122 161.28H42.7039L42.7147 161.283L42.7122 161.28Z" fill="#363637"/>
<path d="M43.1041 161.512L44.0366 161.992H44.1689L43.1121 161.448L42.8081 161.296L42.7145 161.282L42.8081 161.344L43.1041 161.512Z" fill="#363637"/>
<path d="M38.2055 161.991L44.1042 125.112L43.9682 117.312L31.2322 115.312L26.7291 161.991H38.2055Z" fill="#363637"/>
<path d="M42.6081 158.104L50.6634 161.992H52.9568L64.5281 140.256C64.8238 139.824 64.9761 139.32 64.9761 138.808C64.9761 138.296 64.8238 137.8 64.5281 137.36L51.592 117.896V117.88H39.9681L39.4481 123.664L52.1841 137.712C52.5201 138.136 52.728 138.632 52.768 139.152C52.808 139.672 52.688 140.192 52.424 140.656L42.6081 158.104Z" fill="#363637"/>
<path d="M44.9266 161.992C44.9325 161.97 44.9424 161.955 44.9442 161.928C44.9522 161.808 44.8962 161.72 44.8722 161.72C44.8722 161.72 44.8722 161.816 44.8482 161.92C44.8418 161.947 44.8408 161.968 44.8371 161.992H44.9266Z" fill="#363637"/>
<path d="M44.9682 160.888C45.1282 161.232 45.1762 161.616 45.1122 161.984C45.1116 161.986 45.1106 161.989 45.1102 161.992H45.1762C45.2562 161.608 45.2162 161.216 45.0482 160.856C44.8722 160.496 44.5922 160.192 44.2322 159.984C44.1202 159.92 44.0082 159.872 43.8882 159.824C43.8482 159.808 43.8082 159.792 43.7682 159.792H43.7602C43.7602 159.792 43.9442 159.864 44.1922 160.032C44.5282 160.248 44.8002 160.544 44.9682 160.888Z" fill="#363637"/>
<path d="M19.0561 109.76C17.9761 108.632 17.3841 107.184 17.3921 105.688C17.3921 104.192 18.0001 102.752 19.0881 101.624L22.4881 98.288L28.6241 101.88C28.4321 102 24.3921 105.984 24.3921 105.984L31.4721 114.016C32.0161 114.624 32.3761 115.344 32.5281 116.112C32.6801 116.88 32.6161 117.672 32.3361 118.416L31.1281 122.912L25.2321 120.52L25.6241 119.968H29.5041L29.7361 119.12L19.0721 109.76H19.0561Z" fill="#BABBBB"/>
<path d="M36.648 118.168C36.632 118.424 36.552 118.664 36.416 118.88C36.12 119.432 35.664 119.896 35.088 120.224C34.512 120.552 33.856 120.72 33.176 120.712C32.896 120.728 32.624 120.68 32.368 120.584C32.368 120.552 32.68 120.584 33.168 120.584C33.8 120.544 34.416 120.36 34.96 120.064C35.496 119.752 35.936 119.328 36.256 118.832C36.52 118.432 36.608 118.152 36.648 118.168Z" fill="#5F6162"/>
<path d="M53.6081 161.528C53.4561 161.496 53.3121 161.456 53.1761 161.392C52.9041 161.296 52.5041 161.144 52.0241 160.944C51.0561 160.552 49.7361 159.952 48.3201 159.232C46.9041 158.512 45.6641 157.792 44.7841 157.264C44.3521 156.992 43.9921 156.768 43.7521 156.608C43.5121 156.448 43.3841 156.352 43.4001 156.336C43.5441 156.392 43.6801 156.456 43.8081 156.544L44.8721 157.152C45.7681 157.664 47.0321 158.36 48.4321 159.08C49.8401 159.8 51.1441 160.408 52.0961 160.84L53.2241 161.352C53.3602 161.4 53.4961 161.464 53.6162 161.544L53.6081 161.528Z" fill="#5F6162"/>
<path d="M36.9838 159.384C37.0478 159.384 37.0558 159.656 37.0078 159.984C36.9598 160.304 36.8718 160.56 36.8158 160.552C36.7518 160.552 36.7438 160.28 36.7838 159.952C36.8238 159.632 36.9198 159.376 36.9838 159.384Z" fill="#5F6162"/>
<path d="M37.3199 157.056C37.3839 157.056 37.3919 157.328 37.3439 157.656C37.2959 157.976 37.2079 158.232 37.1439 158.224C37.0799 158.224 37.0719 157.952 37.1199 157.624C37.1679 157.304 37.2559 157.048 37.3199 157.056Z" fill="#5F6162"/>
<path d="M37.6718 154.72C37.7358 154.72 37.7438 154.992 37.6958 155.32C37.6478 155.64 37.5598 155.896 37.4958 155.888C37.4318 155.888 37.4238 155.616 37.4718 155.288C37.5198 154.968 37.6078 154.712 37.6718 154.72Z" fill="#5F6162"/>
<path d="M38.0319 152.384C38.0959 152.384 38.1039 152.656 38.0319 152.984C37.9599 153.304 37.8959 153.56 37.8319 153.552C37.7679 153.552 37.7599 153.28 37.8319 152.952C37.9039 152.632 37.9679 152.376 38.0319 152.384Z" fill="#5F6162"/>
<path d="M38.3998 150.056C38.4638 150.056 38.4718 150.328 38.3998 150.656C38.3278 150.976 38.2558 151.232 38.1998 151.224C38.1358 151.224 38.1278 150.952 38.1998 150.624C38.2718 150.304 38.3358 150.048 38.3998 150.056Z" fill="#5F6162"/>
<path d="M38.7678 147.72C38.8318 147.72 38.8398 147.992 38.7678 148.32C38.6958 148.64 38.6238 148.896 38.5678 148.888C38.5038 148.88 38.4958 148.616 38.5678 148.288C38.6398 147.968 38.7118 147.712 38.7678 147.72Z" fill="#5F6162"/>
<path d="M39.1521 145.392C39.2161 145.392 39.2241 145.664 39.1521 145.992C39.0801 146.312 39.0081 146.568 38.9441 146.56C38.8801 146.56 38.8801 146.288 38.9441 145.96C39.0081 145.64 39.0881 145.384 39.1521 145.392Z" fill="#5F6162"/>
<path d="M39.5438 143.064C39.6078 143.064 39.6158 143.336 39.5438 143.664C39.4718 143.984 39.3998 144.24 39.3358 144.232C39.2718 144.232 39.2638 143.96 39.3358 143.632C39.4078 143.312 39.4798 143.056 39.5438 143.064Z" fill="#5F6162"/>
<path d="M39.9439 140.736C40.0079 140.736 40.0079 141.016 39.9439 141.336C39.8799 141.656 39.7919 141.912 39.7359 141.904C39.6719 141.904 39.6719 141.624 39.7359 141.304C39.7999 140.984 39.8879 140.728 39.9439 140.736Z" fill="#5F6162"/>
<path d="M40.3441 138.408C40.4081 138.408 40.4081 138.688 40.3441 139.008C40.2801 139.328 40.1921 139.584 40.1281 139.576C40.0641 139.568 40.0641 139.304 40.1281 138.976C40.1921 138.656 40.2801 138.4 40.3441 138.408Z" fill="#5F6162"/>
<path d="M40.7441 136.088C40.8081 136.088 40.8081 136.368 40.7441 136.688C40.6801 137.008 40.5921 137.264 40.5281 137.256C40.4641 137.248 40.4641 136.984 40.5281 136.656C40.5921 136.336 40.6961 136.08 40.7441 136.088Z" fill="#5F6162"/>
<path d="M41.1761 133.768C41.2401 133.768 41.2401 134.04 41.1761 134.368C41.1121 134.688 41.0241 134.944 40.9601 134.928C40.8961 134.92 40.8961 134.656 40.9601 134.328C41.0241 134.008 41.1201 133.752 41.1761 133.768Z" fill="#5F6162"/>
<path d="M41.6081 131.432C41.6721 131.432 41.6721 131.712 41.6081 132.032C41.5441 132.352 41.4481 132.6 41.3921 132.592C41.3281 132.592 41.3281 132.32 41.3921 131.992C41.4561 131.672 41.5521 131.424 41.6081 131.424V131.432Z" fill="#5F6162"/>
<path d="M42.04 129.12C42.104 129.12 42.104 129.4 42.04 129.72C41.976 130.04 41.88 130.296 41.816 130.288C41.752 130.28 41.752 130.008 41.816 129.688C41.88 129.368 41.992 129.112 42.04 129.12Z" fill="#5F6162"/>
<path d="M42.5599 126.808C42.6239 126.808 42.6079 127.088 42.5359 127.408C42.4639 127.72 42.3519 127.976 42.2879 127.96C42.2239 127.952 42.2399 127.688 42.3199 127.36C42.3999 127.04 42.5039 126.792 42.5679 126.808H42.5599Z" fill="#5F6162"/>
<path d="M43.3359 124.56C43.3919 124.576 43.3359 124.84 43.2319 125.152C43.1279 125.456 42.9759 125.696 42.9199 125.68C42.8639 125.664 42.9199 125.4 43.0159 125.088C43.1119 124.776 43.2479 124.544 43.3279 124.568L43.3359 124.56Z" fill="#5F6162"/>
<path d="M44.1281 122.952C44.1841 122.984 44.1601 123.12 44.0801 123.264C43.9921 123.408 43.8881 123.504 43.8321 123.48C43.7841 123.456 43.8001 123.32 43.8801 123.176C43.9601 123.032 44.0801 122.928 44.1281 122.96V122.952Z" fill="#5F6162"/>
<path d="M45.0561 156.8C45.1041 156.832 45.0561 156.968 44.9681 157.104C44.8801 157.24 44.7521 157.32 44.6961 157.288C44.6481 157.256 44.6961 157.12 44.7761 156.984C44.8561 156.848 45.0001 156.76 45.0561 156.792V156.8Z" fill="#5F6162"/>
<path d="M46.4641 154.824C46.5121 154.856 46.4001 155.096 46.2081 155.376C46.0161 155.648 45.8161 155.848 45.7761 155.816C45.7361 155.784 45.8401 155.536 46.0321 155.264C46.2241 154.992 46.4081 154.792 46.4641 154.824Z" fill="#5F6162"/>
<path d="M47.8479 152.824C47.8959 152.856 47.7839 153.104 47.5999 153.376C47.4079 153.648 47.2159 153.848 47.1679 153.824C47.1199 153.8 47.2239 153.552 47.4159 153.272C47.6079 152.992 47.7919 152.8 47.8479 152.824Z" fill="#5F6162"/>
<path d="M49.1842 150.816C49.2402 150.848 49.1362 151.088 48.9442 151.368C48.7602 151.648 48.5682 151.848 48.5122 151.816C48.4562 151.784 48.5682 151.536 48.7522 151.256C48.9362 150.976 49.1282 150.776 49.1762 150.808L49.1842 150.816Z" fill="#5F6162"/>
<path d="M50.504 148.784C50.552 148.808 50.456 149.064 50.272 149.344C50.096 149.624 49.904 149.832 49.84 149.8C49.776 149.776 49.888 149.52 50.072 149.24C50.256 148.96 50.448 148.752 50.504 148.784Z" fill="#5F6162"/>
<path d="M51.784 146.752C51.832 146.776 51.736 147.032 51.56 147.32C51.384 147.608 51.2 147.808 51.128 147.776C51.056 147.744 51.168 147.496 51.344 147.216C51.52 146.936 51.72 146.712 51.776 146.752H51.784Z" fill="#5F6162"/>
<path d="M53.032 144.672C53.08 144.696 52.992 144.952 52.824 145.24C52.656 145.528 52.472 145.736 52.416 145.704C52.36 145.672 52.456 145.424 52.624 145.136C52.8 144.856 52.976 144.64 53.032 144.672Z" fill="#5F6162"/>
<path d="M54.2399 142.592C54.2959 142.616 54.2079 142.872 54.0399 143.16C53.8719 143.448 53.6959 143.656 53.6399 143.632C53.5839 143.608 53.6799 143.352 53.8399 143.064C53.9999 142.776 54.1839 142.568 54.2399 142.592Z" fill="#5F6162"/>
<path d="M55.2082 140.408C55.2722 140.408 55.2562 140.688 55.1362 141.008C55.0162 141.32 54.8562 141.552 54.8002 141.528C54.7442 141.504 54.8002 141.248 54.9282 140.944C55.0562 140.64 55.1522 140.4 55.2162 140.416L55.2082 140.408Z" fill="#5F6162"/>
<path d="M55.0001 138.112C55.0561 138.088 55.2321 138.32 55.3201 138.64C55.4081 138.968 55.3681 139.248 55.3201 139.248C55.2721 139.248 55.1921 139 55.1121 138.688C55.024 138.384 54.9521 138.104 55.008 138.104L55.0001 138.112Z" fill="#5F6162"/>
<path d="M53.528 136.176C53.568 136.144 53.792 136.312 54.024 136.568C54.256 136.824 54.392 137.056 54.344 137.088C54.296 137.12 54.072 136.944 53.848 136.696C53.624 136.44 53.48 136.216 53.528 136.176Z" fill="#5F6162"/>
<path d="M51.8081 134.408C51.8561 134.368 52.0881 134.536 52.3201 134.784C52.5601 135.024 52.7121 135.256 52.6641 135.296C52.6161 135.336 52.3841 135.168 52.1521 134.904C51.9121 134.64 51.7601 134.456 51.8081 134.416V134.408Z" fill="#5F6162"/>
<path d="M50.0959 132.648C50.1439 132.608 50.3759 132.776 50.6079 133.024C50.8479 133.264 50.9999 133.496 50.9519 133.536C50.9039 133.576 50.6799 133.408 50.4399 133.144C50.1999 132.88 50.0479 132.696 50.0959 132.656V132.648Z" fill="#5F6162"/>
<path d="M48.376 130.88C48.424 130.84 48.656 131.008 48.888 131.272C49.12 131.536 49.28 131.744 49.232 131.784C49.184 131.824 48.952 131.656 48.72 131.408C48.48 131.168 48.328 130.92 48.376 130.88Z" fill="#5F6162"/>
<path d="M46.6639 129.12C46.7039 129.08 46.9439 129.248 47.1759 129.496C47.4159 129.736 47.5679 129.968 47.5199 130C47.4799 130.032 47.2399 129.872 47.0079 129.624C46.7679 129.384 46.6159 129.152 46.6639 129.12Z" fill="#5F6162"/>
<path d="M44.9518 127.352C44.9998 127.312 45.2318 127.48 45.4638 127.728C45.7038 127.968 45.8558 128.2 45.8078 128.232C45.7598 128.264 45.5278 128.104 45.2958 127.84C45.0558 127.576 44.9038 127.392 44.9518 127.352Z" fill="#5F6162"/>
<path d="M43.664 126.032C43.712 126 43.848 126.064 43.96 126.184C44.08 126.304 44.136 126.432 44.088 126.472C44.04 126.512 43.904 126.44 43.792 126.32C43.672 126.2 43.616 126.072 43.664 126.032Z" fill="#5F6162"/>
<path d="M39.3439 153.584C39.3439 153.472 39.3599 153.368 39.3839 153.264L39.5599 152.344C39.7119 151.52 39.9279 150.384 40.1919 148.96C40.7119 146.104 41.3759 142.144 42.0639 137.76C42.7519 133.376 43.3199 129.408 43.7039 126.528C43.8879 125.104 44.0399 123.944 44.1359 123.12C44.1839 122.728 44.2239 122.424 44.2559 122.192C44.2639 122.088 44.2879 121.976 44.3119 121.872C44.3199 121.984 44.3199 122.088 44.3119 122.2C44.2879 122.432 44.2639 122.744 44.2319 123.128C44.1599 123.936 44.0319 125.096 43.8639 126.544C43.5199 129.432 42.9679 133.408 42.2879 137.792C41.6079 142.176 40.9039 146.128 40.3439 148.984C40.0639 150.416 39.8239 151.568 39.6399 152.36C39.5519 152.752 39.4799 153.04 39.4239 153.272C39.3999 153.376 39.3759 153.48 39.3359 153.584H39.3439Z" fill="#5F6162"/>
<path d="M50.576 116.816C50.656 116.896 50.728 116.984 50.792 117.072L51.384 117.832C51.896 118.504 52.6159 119.472 53.472 120.688C55.2 123.112 57.456 126.552 60.0399 130.288C61.3362 132.16 62.624 133.904 63.8157 135.48C64.432 136.216 64.8717 137.056 65.1117 137.952C65.1917 138.368 65.2 138.792 65.136 139.208C65.0637 139.584 64.9517 139.96 64.7917 140.312C64.5037 140.912 64.16 141.488 63.7677 142.032L62.9037 143.28L62.368 144.064C62.3117 144.16 62.2477 144.256 62.1759 144.336C62.2162 144.232 62.272 144.136 62.3282 144.04C62.432 143.848 62.608 143.576 62.832 143.224L63.664 141.96C64.0402 141.408 64.3597 140.832 64.6317 140.232C64.7757 139.88 64.88 139.52 64.944 139.152C64.9997 138.752 64.9837 138.352 64.912 137.952C64.6797 137.08 64.2477 136.264 63.6479 135.552C62.4397 133.984 61.144 132.24 59.856 130.368C57.272 126.624 55.048 123.176 53.344 120.728C52.48 119.504 51.8 118.52 51.312 117.84L50.752 117.056C50.68 116.976 50.624 116.896 50.568 116.8L50.576 116.816Z" fill="#5F6162"/>
</svg>
