<svg width="69" height="130" viewBox="0 0 69 130" fill="none" xmlns="http://www.w3.org/2000/svg">
<path d="M19.7425 60.3798C19.7425 61.072 2.4082 118.305 2.4082 118.305L17.3084 111.75L25.4691 129.45L35.9583 61.2728L19.7425 60.3798Z" fill="#369FFF"/>
<path d="M32.4268 62.8021L35.9583 128.446L48.938 110.441L65.7025 122.244L48.938 57.7697L32.4268 62.8021Z" fill="#369FFF"/>
<g opacity="0.5">
<path d="M18.6172 64.7194C19.0036 65.9371 19.7567 67.0106 20.7767 67.798C21.7968 68.5854 23.0357 69.0494 24.3296 69.1288C25.8562 69.1911 27.5376 68.7274 28.825 69.5442C30.1125 70.361 30.6541 72.2646 32.1667 72.4654C33.9395 72.7146 34.9807 70.3887 36.655 69.8349C38.9414 69.1011 41.3404 71.8147 43.5916 70.9771C45.0408 70.4371 45.7021 68.6027 47.2357 68.2082C47.9089 68.0965 48.5981 68.12 49.2618 68.2774C50.0527 68.3634 50.8517 68.2139 51.5553 67.8482L50.7321 64.6847L49.3251 58.5447H19.187L18.6172 64.7194Z" fill="black"/>
</g>
<path d="M36.2393 13.6192C37.7189 13.744 39.1796 14.032 40.5939 14.4776C40.5917 14.2405 40.6371 14.0052 40.7276 13.7854C42.0033 10.4258 43.2743 7.07308 44.5406 3.72731L44.6321 3.64424C44.1034 3.35128 43.6676 2.92001 43.3728 2.39823C43.0058 1.83493 42.4982 1.37368 41.8984 1.05857C41.2985 0.743458 40.6266 0.585034 39.9467 0.598442C39.2432 3.45042 38.406 7.35459 37.787 9.7843C37.5223 11.1475 36.9972 12.4488 36.2393 13.6192Z" fill="#369FFF"/>
<path d="M17.8778 44.1881C16.9358 42.8063 16.1747 41.3132 15.6125 39.744C15.4158 39.9336 15.1739 40.0717 14.909 40.1455L14.6065 40.2493C14.4182 40.3684 14.2206 40.4726 14.0156 40.5608C13.3758 40.8017 12.7228 41.0074 12.0598 41.1769L9.65383 41.8345C7.94431 42.2914 6.38958 42.686 5.26397 42.949C4.66305 43.1296 4.04576 43.2524 3.42077 43.3159C3.98953 43.055 4.58346 42.851 5.19362 42.7068L6.72725 42.2637L3.20973 43.0321C2.75245 44.998 1.33842 47.1024 2.58362 48.6184C2.71538 48.7734 2.86943 48.9086 3.0409 49.0199C7.52222 47.3862 13.2698 45.2749 17.0336 44.2989C17.3065 44.2147 17.592 44.1772 17.8778 44.1881Z" fill="#369FFF"/>
<path d="M29.4155 13.114C29.4155 13.3078 29.4155 13.474 29.4155 13.6263C29.4155 13.7785 29.4155 13.9862 29.4155 14.1593C31.0242 13.7498 32.6783 13.5382 34.34 13.5293C34.34 13.4394 34.34 13.3494 34.34 13.2594L34.5722 9.61826C34.5722 9.37598 34.5722 9.12677 34.5722 8.87065C34.6214 6.25403 34.7269 4.08735 34.8184 3.6651C34.0727 2.79981 33.3621 0.986179 31.8566 0.792355C30.6114 0.633143 29.9642 0.792356 29.4366 1.29076C29.4929 4.93188 29.3733 9.53519 29.4155 13.114Z" fill="#369FFF"/>
<path d="M9.97939 25.8722C10.289 25.9923 10.5987 26.103 10.9083 26.2046C9.59234 25.6922 8.24116 25.1382 6.94629 24.5912C7.84003 24.9997 8.86045 25.4429 9.97939 25.8722Z" fill="#369FFF"/>
<path d="M14.5007 32.2334C14.59 30.7103 14.8592 29.2027 15.3027 27.7408C14.9088 27.6232 14.5007 27.4916 14.0856 27.3532C12.6413 27.118 11.2264 26.7328 9.86462 26.2041C8.33318 25.6038 6.84123 24.9102 5.39739 24.1274C4.62354 23.719 4.0748 23.4352 3.81451 23.2344L2.97029 22.8814C2.42156 23.7605 1.56328 24.4805 0.965302 25.3596C0.644365 25.8591 0.471394 26.4369 0.46582 27.0278C5.04563 28.26 10.5752 29.8867 14.4233 32.1434L14.5007 32.2334Z" fill="#369FFF"/>
<path d="M16.048 25.5536C16.6124 24.2516 17.3202 23.0143 18.1585 21.864L17.856 21.6702C15.5438 20.1581 13.4189 18.3855 11.5244 16.3885L11.4752 16.3331C10.6169 15.6409 9.80085 14.9002 9.07624 14.2564C8.97949 14.5593 8.81343 14.8364 8.59082 15.0663C7.50039 16.1393 5.45321 15.447 4.25022 16.3954C3.82477 16.744 3.55051 17.2391 3.4834 17.7798C7.3056 19.8687 11.0092 22.161 14.5776 24.6467C15.1545 24.9998 15.6681 25.3113 16.048 25.5536Z" fill="#369FFF"/>
<path d="M17.9625 18.7354C18.4549 19.4276 18.8911 20.023 19.2147 20.4937C20.3104 19.2214 21.5656 18.0909 22.9503 17.1294C22.5282 16.6034 22.0076 15.918 21.4308 15.1566C20.9172 14.5751 20.3333 13.8829 19.7212 13.1284C18.8208 12.0139 18.0469 10.9825 17.5123 10.2141C17.1929 9.81981 16.9257 9.38716 16.7173 8.92655C16.7173 8.92655 16.9354 9.10652 17.2379 9.4734C16.7454 8.78117 16.2811 8.19278 15.8731 7.66669C15.5834 8.30593 15.115 8.85093 14.5224 9.23805C13.636 9.75722 12.4611 9.72953 11.4551 9.93027C13.4907 12.3311 15.3705 14.8558 17.0831 17.4894L17.9625 18.7354Z" fill="#369FFF"/>
<path d="M24.1953 16.3258C25.3481 15.6435 26.5693 15.0799 27.8394 14.6437C27.7902 14.4983 27.748 14.3461 27.6987 14.173C27.4244 13.2385 27.0937 11.9371 26.8053 10.4765C26.5169 9.01591 26.3269 7.70759 26.2214 6.72463C26.1562 6.22647 26.1234 5.72475 26.1229 5.22249L26.0807 4.95253C25.6098 4.99041 25.136 4.93588 24.6868 4.79209C24.2375 4.6483 23.8218 4.41813 23.4636 4.11494C22.3029 3.09044 20.333 3.22196 18.8135 3.86573C20.4175 7.66606 22.8164 12.8647 24.139 16.1943C24.1601 16.2358 24.1742 16.2774 24.1953 16.3258Z" fill="#369FFF"/>
<path d="M19.0396 20.696L18.9893 20.6384L19.0324 20.7103L19.0396 20.696Z" fill="#369FFF"/>
<path d="M15.2609 38.6576C14.8111 37.1063 14.5536 35.5072 14.494 33.8951H14.3815C12.9745 33.9712 11.3283 33.9505 9.59765 33.8951C9.07003 33.8951 8.52831 33.8951 7.95144 33.8951C6.2771 33.8951 4.76457 33.7636 3.67414 33.6597C3.17465 33.6113 2.77365 33.5628 2.47818 33.5213L1.40886 33.459C1.16967 33.8189 0.930474 34.1512 0.705353 34.5527C0.0933047 35.6118 -0.293627 36.9409 0.283246 38.0138L0.346559 38.1038C5.00376 38.2146 9.65626 38.3484 14.3041 38.5053C14.6301 38.4939 14.9551 38.5457 15.2609 38.6576Z" fill="#369FFF"/>
<path d="M21.7962 48.84L22.0917 48.6531C20.7736 47.618 19.5919 46.4251 18.5742 45.1019C18.4417 45.3365 18.2534 45.536 18.0254 45.6834C17.9433 45.8917 17.8076 46.0754 17.6315 46.2164C16.731 46.9086 15.4647 47.677 14.0506 48.5908C12.6366 49.5045 11.3562 50.2798 10.4135 50.8405C9.92466 51.1754 9.40115 51.4585 8.85174 51.685C9.28334 51.2863 9.75473 50.9315 10.2587 50.6259C10.7793 50.2798 11.4125 49.8506 12.123 49.3937C10.7582 50.2036 9.38641 51.0136 8.15527 51.7542C8.38743 52.7787 8.0216 53.9694 8.49998 54.9316C8.97837 55.8938 9.96328 56.1776 11.0607 56.3714L19.4324 50.2521C20.1522 49.6789 20.9473 49.2039 21.7962 48.84Z" fill="#369FFF"/>
<path d="M60.0244 52.0248L61.1715 52.9111C61.193 52.8841 61.2165 52.8586 61.2419 52.835L60.8689 52.5926L60.0244 52.0248Z" fill="#369FFF"/>
<path d="M49.5769 46.1058C48.5179 47.3072 47.3156 48.3787 45.9961 49.297C46.3675 49.6707 46.713 50.0684 47.0302 50.4876C47.0694 50.5131 47.107 50.5408 47.1428 50.5707C47.7129 51.1292 48.188 51.7743 48.5498 52.4813L49.999 54.911L50.0412 54.994C50.9839 56.5377 51.9266 58.1437 52.7568 59.542C52.86 59.3157 53.0002 59.1076 53.1718 58.9259C54.6351 57.4238 57.6039 58.8844 59.1516 57.4791C59.3042 57.3355 59.4367 57.1726 59.5456 56.9946C56.6964 53.9419 52.8975 49.6639 50.4774 47.165C50.1405 46.8439 49.8386 46.4889 49.5769 46.1058ZM50.6955 49.387C51.3278 50.1749 51.9105 51.0002 52.4402 51.8583C53.0675 52.6507 53.6477 53.4781 54.1779 54.3364C53.3659 53.7051 52.675 52.9362 52.1377 52.0659C51.5041 51.2611 51.0163 50.3549 50.6955 49.387Z" fill="#369FFF"/>
<path d="M35.001 3.79018C34.983 3.77581 34.9666 3.75955 34.9521 3.7417C34.9583 3.85472 34.9583 3.96799 34.9521 4.08101L35.001 3.79018Z" fill="#369FFF"/>
<path d="M54.3476 35.4869C54.1807 36.9017 53.8575 38.2944 53.3838 39.6403L53.9325 39.9034L55.8742 40.9002C55.2132 40.5713 54.5824 40.1869 53.9888 39.7511C56.0244 40.6196 58.009 41.5995 59.9334 42.6861C61.3404 43.4406 62.6771 44.1536 63.6831 44.7143L64.3374 44.9843C64.3278 44.6603 64.3754 44.3371 64.478 44.029C65.0268 42.4715 67.0529 41.6547 67.7493 40.2841C63.5002 38.7543 58.041 36.8506 54.3476 35.4869Z" fill="#369FFF"/>
<path d="M50.5205 44.9708C50.9074 45.2685 51.3999 45.663 51.9275 46.0368L52.1175 46.1684C53.2782 46.9367 54.8541 48.0166 56.5847 49.228C58.3153 50.4394 59.8701 51.5608 60.9887 52.3777L61.4108 52.6961C62.1143 52.1977 62.9585 51.8862 63.6901 51.457C60.0741 48.342 55.8038 44.0363 52.5536 41.5858C51.9901 42.7769 51.3092 43.9107 50.5205 44.9708Z" fill="#369FFF"/>
<path d="M27.6146 52.0108C27.5505 51.8748 27.4777 51.743 27.3965 51.6162C26.1142 51.1354 24.8859 50.5253 23.7313 49.7957L23.6328 49.9203C23.3725 50.2318 23.077 50.564 22.7534 50.9171C22.1765 51.6093 21.3886 52.5023 20.4811 53.4645C19.5735 54.4267 18.6027 55.3681 17.9274 55.998C17.586 56.3618 17.1982 56.6805 16.7736 56.9464C16.7736 56.9464 16.8369 56.8148 16.9987 56.6279C16.4219 57.1956 15.8801 57.7494 15.3877 58.2685C16.1615 59.8537 15.3877 62.1658 16.7103 63.4464C16.9433 63.676 17.2241 63.8531 17.5334 63.9656C20.3474 60.2483 24.1815 55.4373 26.9111 52.4538C27.0821 52.2259 27.3326 52.0681 27.6146 52.0108Z" fill="#369FFF"/>
<path d="M35.6344 52.8553C35.8293 53.1198 35.9395 53.4355 35.9509 53.7621C36.1786 54.4452 36.2269 55.1738 36.0916 55.8803C35.9861 56.7179 35.8665 57.6178 35.7469 58.5592C35.5781 59.8121 35.4092 60.982 35.2615 62.0204C35.1489 63.3425 35.0434 64.6439 34.9238 65.8207C35.6437 66.485 36.465 67.0339 37.3579 67.4474C38.7087 67.8766 39.9117 67.2328 41.1076 66.3745C40.8332 61.9373 40.5941 56.4064 40.777 52.4607L40.988 52.9452C40.9247 52.7168 40.9036 52.5853 40.9247 52.5784C41.21 53.0742 41.4343 53.6017 41.593 54.1497C41.9589 55.1396 42.4232 56.5241 42.8875 58.0608C43.0141 58.49 43.1337 58.9053 43.2463 59.3068C43.7387 60.9474 44.1679 62.6018 44.4915 64.1524C44.9889 63.9331 45.5293 63.8243 46.0743 63.834C47.3125 63.8686 48.621 64.5954 49.7888 64.7477C47.805 60.0198 45.6874 54.1013 44.8643 50.0587C42.0668 51.7206 38.8973 52.6809 35.6344 52.8553ZM38.1881 60.3798C38.0447 59.744 37.9926 59.0916 38.0333 58.4415C37.958 57.7944 37.9698 57.1404 38.0685 56.4964C38.4686 57.7557 38.5099 59.0989 38.1881 60.3798Z" fill="#369FFF"/>
<path d="M33.7139 52.9379C33.7362 52.9113 33.7622 52.888 33.7913 52.8687C31.6592 52.8038 29.5518 52.3993 27.5512 51.6711C27.6004 51.7334 27.6567 51.8027 27.72 51.8926C27.7407 51.9379 27.7642 51.9818 27.7904 52.0242C28.1984 52.1349 28.3251 52.7164 28.2758 53.1525C28.252 53.3692 28.2144 53.5842 28.1632 53.7963C28.122 54.4117 27.982 55.0169 27.7482 55.5892C27.4386 56.3852 27.0447 57.209 26.5944 58.0812C25.8485 59.5593 25.0219 60.9966 24.1181 62.3868C23.703 63.0237 23.3653 63.4944 23.1543 63.7713C23.4096 63.8001 23.6601 63.8606 23.9 63.9513C25.8628 64.7058 26.9251 67.5093 29.0145 67.267L29.2044 67.2324C30.4285 63.3975 31.6526 58.0812 32.8767 54.5162C33.0331 53.9354 33.3191 53.3963 33.7139 52.9379Z" fill="#369FFF"/>
<path d="M51.0826 22.2306C51.3171 22.0229 51.5516 21.8221 51.7861 21.6283C52.0392 21.2768 52.3536 20.9721 52.7147 20.7284C53.2705 20.3408 53.8896 19.96 54.5509 19.5655C55.8664 18.7763 57.0905 18.1256 57.998 17.6826C58.6171 17.385 59.0744 17.1842 59.3136 17.1012L60.5658 16.3743C59.3277 14.4638 60.9317 11.5633 59.4754 9.80508C59.4081 9.72625 59.3353 9.65222 59.2573 9.58356C55.5921 12.2556 50.8645 15.2875 46.749 17.6826C48.4297 18.9627 49.8925 20.4979 51.0826 22.2306ZM51.962 14.4914C52.7924 13.9004 53.6646 13.3683 54.572 12.8993C53.8784 13.6571 53.0632 14.2978 52.159 14.796C51.3225 15.3981 50.394 15.8655 49.4083 16.1805C50.2171 15.5577 51.0705 14.9932 51.962 14.4914Z" fill="#369FFF"/>
<path d="M54.2207 30.0258C54.3932 31.0764 54.4802 32.1388 54.481 33.2031C54.481 33.4038 54.481 33.5976 54.481 33.7915H54.8116C55.4026 33.7915 55.9865 33.8469 56.5774 33.8884H56.9925C58.2025 33.8884 59.8698 33.9991 61.713 34.1307C63.4366 34.2622 64.9984 34.4145 66.1732 34.5529C66.4687 33.2446 68.1079 32.5939 68.5933 31.3271C68.8076 30.6717 68.7572 29.9603 68.4526 29.3405C64.1542 29.5758 58.3432 29.9219 54.7624 30.0327L54.2207 30.0258Z" fill="#369FFF"/>
<path d="M49.3389 5.53475L42.2054 14.3607C42.054 14.5463 41.8763 14.7094 41.6777 14.8452C43.2485 15.4383 44.7357 16.2269 46.1028 17.1919L46.2013 17.0673C46.2988 16.8104 46.447 16.5752 46.6375 16.375C46.954 16.0151 47.3409 15.5928 47.749 15.1359C49.8595 12.6439 52.2655 10.1242 54.2775 8.03368C53.8652 7.88356 53.4908 7.64741 53.18 7.34145C52.2936 6.46232 52.1037 4.99481 51.0695 4.32335C50.7352 4.12189 50.3562 4.00313 49.965 3.97723C49.9682 4.00252 49.9682 4.02808 49.965 4.05337C49.9657 4.32881 49.9107 4.60163 49.8032 4.85595C49.6957 5.11028 49.5379 5.34102 49.3389 5.53475Z" fill="#369FFF"/>
<path d="M53.7561 27.9555L54.34 27.6994C54.7795 27.4596 55.2383 27.2558 55.7118 27.0902C56.5842 26.7372 57.8223 26.2803 59.1449 25.7957C60.4675 25.3112 61.7197 24.8889 62.6132 24.5982C63.0884 24.4105 63.5842 24.2781 64.0906 24.2036C64.0906 24.2036 63.9217 24.3282 63.584 24.4736L65.3991 23.8852C65.3991 22.4454 65.8071 20.9155 65.0614 19.6903C64.8755 19.3909 64.6373 19.1261 64.3579 18.9081C60.5238 20.431 55.2827 22.8261 51.9199 23.5183C52.7147 24.9176 53.3314 26.4079 53.7561 27.9555Z" fill="#369FFF"/>
<path d="M66.1172 34.8585L64.5479 34.7397C65.0686 34.7747 65.5894 34.8166 66.1172 34.8585Z" fill="#369FFF"/>
<path d="M27.9663 14.1116C28.0085 14.2778 28.0367 14.4301 28.0648 14.5686L28.1774 14.534C28.0789 14.2847 27.9804 14.0147 27.8818 13.7169C27.8889 13.8485 27.9241 13.9939 27.9663 14.1116Z" fill="#369FFF"/>
<path d="M46.1584 17.2343C46.1657 17.1769 46.1798 17.1207 46.2003 17.0667L46.1025 17.1924L46.1584 17.2343Z" fill="black"/>
<path d="M51.4214 22.7439C51.4223 22.5211 51.4652 22.3004 51.548 22.093C51.6116 21.9282 51.6967 21.7722 51.8014 21.6291C51.5527 21.823 51.3182 22.0238 51.0977 22.2315C51.1821 22.3977 51.3088 22.5708 51.4214 22.7439Z" fill="#369FFF"/>
<path d="M64.3371 45.0816V44.9847L63.6826 44.7146L64.3371 45.0816Z" fill="black"/>
<path d="M51.9558 46.0373C51.3998 45.6288 50.9072 45.2687 50.5483 44.9709L50.4639 45.0748C50.7031 45.2272 51.238 45.5665 51.9558 46.0373Z" fill="black"/>
<path d="M52.5322 59.3687L52.687 59.6525L52.7292 59.5418C51.8991 58.1573 50.9564 56.5375 50.0137 54.9938C51.0126 56.6898 51.885 58.2404 52.5322 59.3687Z" fill="black"/>
<path d="M35.2266 52.8688C35.5273 53.0579 35.7705 53.3235 35.9303 53.6375C35.9303 53.679 35.9303 53.7206 35.9796 53.7621C35.9682 53.4355 35.8579 53.1196 35.6629 52.855L35.2266 52.8688Z" fill="#369FFF"/>
<path d="M27.79 52.0248C28.0139 52.4374 28.1413 52.894 28.163 53.3612C28.1736 53.5065 28.1736 53.6522 28.163 53.7975C28.2142 53.5853 28.2518 53.3703 28.2756 53.1535C28.3249 52.7103 28.1982 52.1356 27.79 52.0248Z" fill="#369FFF"/>
<path d="M23.7458 49.7957H23.6754C23.5487 49.9895 23.2743 50.3496 22.8872 50.8136C22.852 50.8551 22.8098 50.9105 22.7676 50.9521C23.0913 50.5989 23.3869 50.2596 23.6472 49.9549L23.7458 49.7957Z" fill="black"/>
<path d="M15.409 27.2704C15.1688 27.3878 14.9029 27.4449 14.6349 27.4366L14.0508 27.3535C14.466 27.492 14.8742 27.6236 15.2683 27.7413C15.3034 27.582 15.3597 27.4643 15.409 27.2704Z" fill="black"/>
<path d="M23.1978 16.9568C22.7953 16.6473 22.4294 16.2942 22.1071 15.9043L21.4033 15.1564C21.9804 15.9181 22.5011 16.6037 22.9234 17.1299L23.1978 16.9568Z" fill="black"/>
<path d="M29.373 14.1803H29.4359C29.4359 14.0072 29.4359 13.8271 29.4359 13.6471C29.434 13.8265 29.413 14.0053 29.373 14.1803Z" fill="black"/>
<path d="M34.3682 13.5313H34.6356C34.6004 12.7488 34.5934 11.3085 34.6356 9.6189L34.4033 13.2612C34.3752 13.3512 34.3682 13.4413 34.3682 13.5313Z" fill="black"/>
<path d="M40.7275 13.7787C40.637 13.9985 40.5916 14.2338 40.5938 14.4709C40.9597 14.5886 41.2973 14.7132 41.6772 14.8516C41.8758 14.7159 42.0535 14.5527 42.2048 14.3671L49.3384 5.54118C49.7377 5.15607 49.9655 4.63075 49.9715 4.08058C49.9747 4.05529 49.9747 4.02972 49.9715 4.00443C48.6841 3.9006 47.2067 4.53053 45.9193 4.13596C45.6117 4.04716 45.3088 3.9432 45.0118 3.82446C44.646 4.91125 44.041 6.59336 43.3304 8.44853C42.6384 10.4245 41.8351 12.3612 40.9245 14.2494C41.4951 12.2368 42.1833 10.2584 42.9857 8.32394C43.6892 6.448 44.3576 4.78665 44.8078 3.72754C44.754 3.70401 44.7023 3.67622 44.653 3.64447L44.5616 3.72754C43.2765 7.09177 41.9985 10.4421 40.7275 13.7787ZM44.442 10.8852C45.0569 10.0209 45.7491 9.21238 46.5103 8.4693C46.0459 9.42636 45.4467 10.3142 44.7304 11.1067C44.1128 11.9769 43.3766 12.7595 42.5425 13.4326C43.0973 12.5294 43.733 11.6769 44.442 10.8852Z" fill="#369FFF"/>
<path d="M49.6332 13.1003C50.8221 11.8335 51.9126 10.6983 52.7146 9.88838C53.1211 9.42283 53.5762 9.00056 54.0723 8.62852C53.731 9.14216 53.3399 9.62205 52.9045 10.0614C52.1518 10.9129 51.0895 12.0758 49.9076 13.3426C48.7257 14.6094 47.6282 15.7516 46.8262 16.5545C46.5748 16.7588 46.4032 17.0426 46.3408 17.3575L46.7418 17.6621C50.8573 15.267 55.5849 12.235 59.2501 9.56303C58.9257 9.25033 58.5337 9.01371 58.1034 8.8708C56.9215 8.46931 55.4653 8.48315 54.2974 8.0332C52.2854 10.1099 49.8654 12.6434 47.7689 15.1355C48.3106 14.5263 48.9508 13.8341 49.6332 13.1003Z" fill="#369FFF"/>
<path d="M59.5176 17.0808C59.0802 17.4142 58.6087 17.7019 58.1106 17.9392C57.2453 18.4376 56.0423 19.116 54.7338 19.8982C53.4253 20.6804 52.1379 21.3311 51.765 22.2172C51.6387 22.4856 51.5808 22.7802 51.5962 23.0755L51.8706 23.5462C55.2333 22.854 60.4744 20.4589 64.3085 18.936C63.1407 18.0153 61.389 17.6554 60.5588 16.4025L59.3277 17.0808C59.4402 17.0808 59.5106 17.0393 59.5176 17.0808ZM57.0483 21.2342C56.4093 21.5738 55.7249 21.8231 55.0152 21.9749C56.1904 21.1232 57.5433 20.5392 58.9759 20.2651C58.3808 20.6583 57.7317 20.9659 57.0483 21.1788V21.2342Z" fill="#369FFF"/>
<path d="M62.7119 24.8405C61.8395 25.1866 60.6013 25.6435 59.2717 26.1349C57.9421 26.6264 56.6899 27.0418 55.7964 27.3256C55.3252 27.5176 54.8312 27.6502 54.3261 27.7201L53.7422 27.9763C53.9343 28.6599 54.0893 29.3531 54.2065 30.053H54.7341C58.3149 29.963 64.1259 29.6168 68.4243 29.3607C68.2114 28.865 67.9322 28.3994 67.5942 27.9763C66.8273 27.0279 65.8776 26.1557 65.5399 24.9928C65.4388 24.6201 65.3868 24.2363 65.3852 23.8506L63.5701 24.439L62.7119 24.8405Z" fill="#369FFF"/>
<path d="M61.6711 34.511L56.9647 34.1579C56.3099 34.1394 55.6579 34.0653 55.016 33.9364C55.5291 33.8711 56.0477 33.8572 56.5637 33.8949C55.9727 33.8534 55.3889 33.8187 54.7979 33.798H54.4673C54.4673 34.3725 54.411 34.9332 54.3477 35.4939C58.0411 36.8784 63.4932 38.7612 67.7494 40.2911C67.8983 40.0107 67.9801 39.7005 67.9886 39.3843C68.0379 37.7298 66.0118 36.4631 66.1173 34.864C65.5897 34.8225 65.0691 34.7809 64.5485 34.7256L61.6711 34.511Z" fill="#369FFF"/>
<path d="M55.8733 40.9001L53.9316 39.9241L53.3829 39.661C53.1536 40.3162 52.8882 40.9586 52.5879 41.5854C55.8381 44.0359 60.1083 48.3416 63.7243 51.4566C64.1796 51.211 64.5643 50.8562 64.8429 50.4252C65.7153 48.9161 64.5264 47.0817 64.3575 45.3511C63.2671 44.8181 61.6138 43.9667 59.7707 43.0045C58.2581 42.2084 56.8933 41.4677 55.8733 40.9001Z" fill="#369FFF"/>
<path d="M56.4011 49.5254C54.6705 48.314 53.1087 47.1926 51.9972 46.3758C51.2022 45.7874 50.6324 45.3582 50.3862 45.1367C50.1259 45.4689 49.8586 45.7943 49.5771 46.1058C49.83 46.4875 50.1224 46.8424 50.4495 47.1649C52.8695 49.6638 56.6685 53.9418 59.5177 56.9945C60.179 55.9146 60.0171 54.3433 60.8121 53.2842C60.9187 53.1481 61.0389 53.0228 61.1709 52.9104L60.0242 52.0243C58.9971 51.3252 57.7448 50.4668 56.4011 49.5254Z" fill="#369FFF"/>
<path d="M49.6551 55.0908C49.1486 54.2325 48.6702 53.4087 48.2481 52.6473C47.9245 51.9655 47.5053 51.3317 47.0029 50.7644C46.8261 50.5969 46.6059 50.4806 46.3664 50.4281C46.127 50.3756 45.8774 50.389 45.6451 50.4667C45.3145 50.5844 45.223 50.799 45.1949 50.7713C45.1667 50.7436 45.1949 50.529 45.5818 50.3352C45.8187 50.2306 46.0796 50.1896 46.3378 50.2163C46.5961 50.2431 46.8426 50.3366 47.0521 50.4875C46.7349 50.0683 46.3894 49.6705 46.018 49.2969C45.6522 49.5461 45.2793 49.7953 44.8994 50.0237C45.7084 54.0663 47.826 59.9849 49.8239 64.7128C50.107 64.7644 50.3979 64.7585 50.6785 64.6954C50.9592 64.6323 51.2238 64.5134 51.4561 64.3459C52.7083 63.4045 52.1947 61.4247 52.6239 59.9433L52.3425 59.5003C51.6108 58.3789 50.6681 56.8214 49.6551 55.0908Z" fill="#369FFF"/>
<path d="M43.9498 62.0064C44.1158 62.5539 44.2173 63.1183 44.2523 63.6885C44.0169 63.1696 43.8331 62.6295 43.7036 62.0756L42.5358 58.1369C42.0926 56.6693 41.6916 55.3334 41.3468 54.205C41.185 53.6443 41.0584 53.2013 40.9881 52.9175L40.777 52.4329C40.5941 56.3786 40.8333 61.9095 41.1077 66.3467C42.1469 65.4809 43.282 64.7332 44.4915 64.1177C44.1679 62.5741 43.7388 60.9196 43.2463 59.2721C43.5418 60.3243 43.781 61.2657 43.9498 62.0064Z" fill="#369FFF"/>
<path d="M35.0365 63.4045C34.9658 64.0792 34.834 64.7464 34.6426 65.3981C34.6237 64.7191 34.6708 64.04 34.7833 63.3698C34.917 62.1238 35.128 60.4071 35.3813 58.5242L35.7612 55.8522C35.9135 55.1639 35.882 54.4484 35.6697 53.7756C35.5131 53.4149 35.2447 53.112 34.9029 52.9103H34.4808C34.2486 52.9103 34.0165 52.9103 33.7773 52.9103C33.7483 52.9296 33.7222 52.9529 33.6999 52.9795C33.3042 53.4399 33.0181 53.9815 32.8627 54.5647C31.6386 58.1297 30.4145 63.446 29.1904 67.2809C30.6396 66.9833 31.5753 65.2458 33.0738 65.1489C33.7512 65.1511 34.4044 65.3973 34.9099 65.8411C35.0295 64.6643 35.135 63.3629 35.2476 62.0408C35.1843 62.5115 35.1069 62.9891 35.0365 63.4045Z" fill="#369FFF"/>
<path d="M26.2697 57.9225C26.6989 57.0642 27.121 56.2335 27.4376 55.479C27.7272 54.8227 27.8849 54.1175 27.9019 53.4023C27.905 52.926 27.8067 52.4544 27.6134 52.0178C27.3314 52.0751 27.0809 52.2329 26.9099 52.4608C24.1803 55.4443 20.3322 60.2553 17.5322 63.9726C19.0799 64.5471 21.2045 63.5711 23.0266 63.7649C23.1954 63.4603 23.4979 62.9481 23.8989 62.2628C24.5321 61.1621 25.3974 59.6392 26.2697 57.9225Z" fill="#369FFF"/>
<path d="M16.9985 56.628C17.491 56.0535 18.7573 54.759 20.2135 53.2153C21.7964 51.5471 23.119 50.1211 23.5763 49.7058C23.119 49.4081 22.6758 49.0966 22.2396 48.7712C21.6823 49.2861 21.0976 49.7713 20.4879 50.2249C19.8241 50.802 19.0862 51.2907 18.2929 51.6786C18.8621 51.01 19.5254 50.425 20.2628 49.9411C20.8537 49.4912 21.3954 49.1035 21.7964 48.8405C20.9442 49.1947 20.1443 49.6604 19.4186 50.2249L11.082 56.3719C12.5312 56.6211 14.1704 56.6834 15.0779 57.7564C15.2147 57.9194 15.3305 58.0984 15.4227 58.2894C15.8799 57.7494 16.4216 57.2303 16.9985 56.628Z" fill="#369FFF"/>
<path d="M13.8257 48.2865C15.2327 47.3866 16.5483 46.6044 17.4347 46.023C17.6189 45.8953 17.7608 45.7172 17.8427 45.5107C17.9021 45.3545 17.9021 45.1824 17.8427 45.0261C17.7513 44.7562 17.5613 44.7077 17.5754 44.68C17.5895 44.6523 17.8076 44.68 17.9764 44.9708C18.0688 45.1555 18.0913 45.3666 18.0397 45.5661C18.0309 45.6069 18.0167 45.6465 17.9975 45.6838C18.2255 45.5364 18.4137 45.3369 18.5462 45.1023C18.3211 44.8046 18.096 44.5001 17.8779 44.1886C17.5921 44.1776 17.3066 44.2151 17.0337 44.2993C13.27 45.2754 7.52234 47.3866 3.04102 49.0203C4.44802 50.031 7.01582 49.5949 7.92334 51.1524C8.0229 51.3427 8.09624 51.5452 8.14142 51.7546C9.37255 51.0139 10.7444 50.204 12.1092 49.3941C12.6438 49.0411 13.1926 48.6742 13.8257 48.2865Z" fill="#369FFF"/>
<path d="M9.56199 41.4887L11.975 40.8518C12.7207 40.6649 13.382 40.5196 13.9237 40.3257C14.5035 40.1237 15.0249 39.7864 15.4433 39.3428C15.4433 39.3428 15.4011 39.5297 15.183 39.7789C15.0173 39.9622 14.8253 40.1207 14.6131 40.2496L14.9157 40.1458C15.1806 40.0719 15.4225 39.9339 15.6192 39.7443C15.4925 39.3843 15.3729 39.052 15.2674 38.6575C14.9671 38.5426 14.6469 38.4862 14.3247 38.4913C9.6722 38.3298 5.01969 38.196 0.367188 38.0898C1.01441 39.1697 2.4777 39.6474 3.05458 40.7618C3.3903 41.4734 3.44791 42.2817 3.21639 43.0323L6.73391 42.264C7.56405 42.0009 8.54191 41.7586 9.56199 41.4887Z" fill="#369FFF"/>
<path d="M1.93649 33.3757C2.52613 33.3213 3.11966 33.3213 3.70931 33.3757C4.80678 33.4173 6.31228 33.4727 7.97958 33.5073C9.64689 33.5419 11.1594 33.5488 12.2499 33.5557C12.8441 33.5259 13.4398 33.549 14.0297 33.625C13.4482 33.7551 12.8532 33.8179 12.2569 33.8119C11.5534 33.8534 10.6248 33.8742 9.61876 33.8811C11.3494 33.9503 13.0096 33.9711 14.4026 33.8811H14.5151C14.5151 33.6526 14.5151 33.4242 14.5151 33.1889C14.5151 32.9535 14.5151 32.5382 14.5151 32.2197L14.4166 32.1574C10.5685 29.9008 5.03893 28.274 0.459123 27.0419C0.405145 27.4139 0.482598 27.7928 0.678518 28.1154C0.874437 28.438 1.17695 28.6846 1.53548 28.814L1.437 28.191C2.56965 28.6755 2.87917 30.1777 2.52039 31.3406C2.25601 32.0803 1.88652 32.7795 1.42292 33.4173L2.49226 33.4796C2.3023 33.4768 2.11427 33.4417 1.93649 33.3757ZM11.7855 32.3997C12.5827 32.4805 13.3629 32.6788 14.1001 32.9881C13.3003 33.0285 12.4989 32.9515 11.7222 32.7597C10.9272 32.6795 10.1492 32.4811 9.41474 32.1713C10.2122 32.1306 11.0113 32.2076 11.7855 32.3997Z" fill="#369FFF"/>
<path d="M3.61853 23.131C4.26549 23.3401 4.89182 23.6066 5.48983 23.9271L6.94609 24.6193C8.24054 25.1662 9.59127 25.72 10.9068 26.2322C12.1223 26.6666 13.3749 26.9932 14.6495 27.2083C14.9096 27.2371 15.1727 27.1939 15.4092 27.0837C15.4452 27.0597 15.4782 27.0319 15.5077 27.0006C15.6484 26.5922 15.7962 26.1907 15.965 25.7892C15.3178 25.4777 14.3329 24.9516 13.2354 24.3286C12.0623 23.7447 10.9502 23.0491 9.91488 22.2519C11.1383 22.7391 12.3155 23.3321 13.4324 24.024L14.5721 24.7162C11.0009 22.2041 7.29255 19.8863 3.46376 17.7732C3.23864 19.0746 3.74515 20.7359 3.33711 22.0858C3.24133 22.3721 3.11146 22.6463 2.9502 22.9026L3.79441 23.2556C3.68185 23.1933 3.6115 23.138 3.61853 23.131Z" fill="#369FFF"/>
<path d="M10.4132 15.0731C10.8756 15.4083 11.3022 15.7886 11.6866 16.2084C12.4534 16.9006 13.5227 17.9113 14.7468 18.9358C15.9709 19.9603 17.1317 20.8394 17.983 21.4624L18.2714 21.677C18.5176 21.3447 18.7638 21.0194 19.0312 20.7079L18.989 20.6386C18.6161 20.2025 18.1518 19.6141 17.6594 18.9427C16.9803 18.111 16.4172 17.1938 15.985 16.2153C16.3954 16.5982 16.7547 17.0308 17.0543 17.5029C15.3417 14.8692 13.462 12.3445 11.4263 9.94373C10.8381 10.0335 10.2992 10.3194 9.8997 10.7536C9.11881 11.6881 9.40724 13.1557 9.02734 14.2632C9.73085 14.9001 10.568 15.6061 11.4263 16.3399C11.0381 15.9592 10.698 15.5339 10.4132 15.0731Z" fill="#369FFF"/>
<path d="M20.0097 12.9277C21.7684 15.1151 23.2387 16.8595 23.2036 16.9703C23.5272 16.7534 23.8578 16.5457 24.1955 16.3473C24.1955 16.2988 24.1603 16.2573 24.1392 16.2158C22.8166 12.8931 20.4177 7.68754 18.8137 3.88721C18.558 4.00017 18.3091 4.12729 18.068 4.26793C16.8931 4.96016 16.5062 6.46229 15.873 7.68753C16.2811 8.21362 16.7454 8.82971 17.2378 9.49424C17.7303 10.1588 18.8207 11.4533 20.0097 12.9277ZM21.8247 11.924C22.2754 12.6322 22.657 13.3809 22.9644 14.1599C23.3788 14.8894 23.7204 15.6567 23.9844 16.4511C22.9135 15.1297 22.1737 13.5789 21.8247 11.924Z" fill="#369FFF"/>
<path d="M26.1436 5.14666C26.3066 5.64925 26.4197 6.16624 26.4813 6.69033C26.6501 7.63868 26.8823 8.96084 27.1848 10.4076C27.438 11.6744 27.6843 12.8096 27.8883 13.7164C27.9868 14.0141 28.0853 14.2841 28.1837 14.5333C28.5566 14.4087 28.9365 14.2979 29.3305 14.1941C29.1591 13.439 29.0392 12.6736 28.9717 11.9028C28.8053 11.1338 28.7251 10.3492 28.7325 9.56307C29.0807 10.2844 29.286 11.0643 29.3375 11.8613C29.4008 12.3181 29.429 12.7473 29.443 13.1142C29.443 9.53539 29.5204 4.93207 29.5134 1.29095C28.9295 1.83781 28.5003 2.79308 27.5576 4.1637C27.3902 4.39224 27.1734 4.58151 26.9228 4.71794C26.6723 4.85437 26.3942 4.93459 26.1084 4.95283L26.1506 5.2228C26.1295 5.18127 26.1366 5.14666 26.1436 5.14666Z" fill="#369FFF"/>
<path d="M35.0011 8.87801C34.9659 10.8924 34.9026 12.6368 34.8252 13.5298C35.3036 13.5298 35.782 13.5298 36.2322 13.6059C36.9893 12.4376 37.5145 11.1387 37.7799 9.77791C38.399 7.34819 39.2502 3.44402 39.9397 0.592041C39.5036 0.620267 39.0789 0.740689 38.6945 0.945084C37.6111 1.53348 36.2955 4.10856 35.6131 4.12241C35.49 4.11309 35.3701 4.07876 35.2611 4.02157C35.1522 3.96438 35.0564 3.88558 34.98 3.79014V4.08087C35.0011 4.92539 35.0011 6.75287 35.0011 8.87801Z" fill="#369FFF"/>
<path d="M55.7961 27.3254C56.6896 27.0416 57.9066 26.6332 59.2714 26.1348C60.6362 25.6364 61.8392 25.1865 62.7116 24.8403L63.5839 24.4735C63.9216 24.3281 64.1045 24.2312 64.0904 24.2035C63.584 24.278 63.0882 24.4104 62.6131 24.5981C61.7196 24.8888 60.5026 25.2903 59.1448 25.7956C57.787 26.3009 56.584 26.7371 55.7117 27.0901C55.2382 27.2557 54.7793 27.4594 54.3398 27.6992C54.8392 27.6348 55.3284 27.5093 55.7961 27.3254Z" fill="#263238"/>
<path d="M56.9784 33.9086H56.5633C56.0473 33.871 55.5288 33.8849 55.0156 33.9502C55.6575 34.079 56.3095 34.1532 56.9643 34.1717L61.6708 34.5247L64.5481 34.7324L66.1169 34.8501C66.1169 34.7878 66.1169 34.7255 66.1169 34.6632C66.1169 34.6009 66.1169 34.6147 66.1169 34.587C64.9421 34.4486 63.3803 34.2963 61.6567 34.1648C59.8557 34.0194 58.2166 33.9363 56.9784 33.9086Z" fill="#263238"/>
<path d="M59.9329 42.693C58.0085 41.6063 56.0239 40.6265 53.9883 39.7579C54.5819 40.1937 55.2127 40.5782 55.8737 40.907C56.8938 41.4747 58.2586 42.2153 59.7641 42.9837C61.6072 43.9528 63.2816 44.7974 64.3509 45.3304C64.3509 45.2404 64.3509 45.1504 64.3509 45.0604L63.6966 44.6935C62.6766 44.1536 61.368 43.4406 59.9329 42.693Z" fill="#263238"/>
<path d="M56.6127 49.2282C54.8821 48.0168 53.3062 46.9369 52.1454 46.1685L51.9555 46.037C51.252 45.5663 50.7032 45.2271 50.4359 45.0748L50.5203 44.971C51.3212 43.9123 52.014 42.7785 52.5886 41.586C52.8921 40.9526 53.1598 40.3032 53.3906 39.6408C53.8643 38.2949 54.1875 36.9023 54.3544 35.4874C54.4178 34.9267 54.4599 34.366 54.474 33.7915C54.474 33.5977 54.474 33.4038 54.474 33.2031C54.4844 31.4306 54.2477 29.6652 53.7705 27.956C53.3303 26.4062 52.697 24.9158 51.8851 23.5188L51.6108 23.0481C51.5953 22.7528 51.6533 22.4581 51.7796 22.1898C52.1525 21.3037 53.461 20.6738 54.7484 19.8708C56.0358 19.0678 57.2599 18.4102 58.1252 17.9118C58.6232 17.6745 59.0948 17.3868 59.5322 17.0534C59.5322 17.0534 59.4548 17.0534 59.3423 17.1019C59.1031 17.185 58.6388 17.3857 58.0267 17.6834C57.1192 18.1264 55.9162 18.7771 54.5795 19.5662C53.9182 19.9608 53.2992 20.3415 52.7434 20.7292C52.3823 20.9728 52.0679 21.2775 51.8148 21.6291C51.7102 21.7721 51.625 21.9281 51.5615 22.0929C51.4788 22.3002 51.4358 22.5208 51.4349 22.7435C51.3223 22.5705 51.2168 22.3974 51.0972 22.2313C49.9068 20.4907 48.4415 18.9484 46.7566 17.6626L46.3556 17.358C46.418 17.0431 46.5895 16.7593 46.841 16.555C47.643 15.752 48.7334 14.6168 49.9223 13.3431C51.1113 12.0694 52.1665 10.9134 52.9193 10.0619C53.3547 9.62254 53.7458 9.14266 54.0871 8.62901C53.591 9.00106 53.1359 9.42333 52.7293 9.88887C51.9273 10.6988 50.8369 11.834 49.648 13.1008C48.9445 13.8346 48.3254 14.5268 47.7626 15.1775C47.3475 15.6344 46.9676 16.0566 46.6511 16.4166C46.4607 16.6167 46.3124 16.852 46.2149 17.1088C46.1942 17.1624 46.18 17.2181 46.1727 17.2749L46.1164 17.2334C44.7493 16.2685 43.2622 15.4798 41.6914 14.8868C41.3326 14.7483 40.9879 14.6237 40.608 14.506C39.1936 14.0604 37.7329 13.7725 36.2533 13.6477C35.7819 13.6061 35.3035 13.5854 34.8463 13.5715C34.9236 12.6785 34.987 10.9341 35.0221 8.91976C35.0643 6.79462 35.0221 4.96713 35.0221 4.12262C35.0283 4.00963 35.0283 3.8964 35.0221 3.78342L34.9518 3.70728C34.8603 4.12953 34.7548 6.29621 34.7056 8.91283C34.7056 9.16895 34.7056 9.41816 34.7056 9.66044C34.7056 11.3495 34.7056 12.7893 34.7056 13.5715H34.4382C32.7766 13.5804 31.1224 13.792 29.5137 14.2014H29.4504C29.4897 14.0194 29.5086 13.8337 29.5067 13.6477C29.5067 13.4954 29.5067 13.3292 29.5067 13.1354C29.5067 12.7685 29.4645 12.3394 29.4011 11.8825C29.3497 11.0856 29.1443 10.3056 28.7961 9.58429C28.7887 10.3705 28.8689 11.1551 29.0353 11.924C29.1029 12.6948 29.2228 13.4603 29.3941 14.2153C29.0001 14.3191 28.6202 14.4299 28.2474 14.5545L28.1348 14.5891C28.1348 14.4507 28.0786 14.2984 28.0363 14.1322C27.9941 13.9661 27.9801 13.8692 27.9519 13.7377C27.7549 12.8308 27.5087 11.6956 27.2484 10.4288C26.967 8.98206 26.7349 7.6599 26.5449 6.71155C26.4834 6.18746 26.3703 5.67047 26.2072 5.16788C26.2072 5.16788 26.2072 5.20249 26.2072 5.24402C26.2077 5.74628 26.2406 6.24801 26.3057 6.74617C26.4113 7.70836 26.6012 9.04436 26.8896 10.498C27.1781 11.9517 27.5087 13.2669 27.7831 14.1945C27.8323 14.3676 27.8745 14.5199 27.9238 14.6652C26.6536 15.1014 25.4325 15.6651 24.2796 16.3474C23.942 16.5458 23.6113 16.7535 23.2877 16.9704C23.2877 16.8596 21.8807 15.1152 20.0938 12.9278C18.9189 11.4741 17.9059 10.1935 17.322 9.46662C17.0195 9.09973 16.8295 8.89899 16.8014 8.91976C17.0098 9.38037 17.277 9.81302 17.5964 10.2073C18.131 10.9757 18.9049 12.0071 19.8053 13.1216C20.4174 13.8761 21.0013 14.5683 21.5149 15.1498L22.2184 15.8974C22.5406 16.2872 22.9064 16.6402 23.3088 16.9496L23.0626 17.1227C21.6778 18.0841 20.4226 19.2146 19.327 20.4869C19.0034 20.0162 18.5672 19.4001 18.0747 18.7286L17.1672 17.4965C16.8676 17.0244 16.5083 16.5918 16.0979 16.2089C16.53 17.1874 17.0931 18.1046 17.7722 18.9363C18.2647 19.6285 18.729 20.1961 19.1018 20.6323L19.1511 20.6876C18.8838 20.9991 18.6375 21.3245 18.3913 21.6567L18.1029 21.4422C17.2516 20.8192 16.0979 19.94 14.8668 18.9155C13.6356 17.891 12.5733 16.9081 11.8065 16.1882C11.4221 15.7684 10.9955 15.3881 10.5332 15.0529C10.8271 15.5128 11.1767 15.9358 11.5744 16.3127L11.6236 16.3681C13.518 18.3652 15.6429 20.1377 17.9551 21.6498L18.2576 21.8437C17.4193 22.994 16.7116 24.2312 16.1471 25.5332C15.7672 25.2909 15.2537 24.9794 14.6557 24.6264L13.516 23.9342C12.3991 23.2423 11.222 22.6493 9.9985 22.1621C11.0338 22.9593 12.146 23.6548 13.319 24.2388C14.4165 24.8618 15.4296 25.3878 16.0486 25.6994C15.8798 26.1008 15.7321 26.5023 15.5914 26.9108C15.5619 26.942 15.5288 26.9699 15.4929 26.9938C15.2563 27.1041 14.9932 27.1472 14.7331 27.1184C13.4585 26.9034 12.206 26.5767 10.9904 26.1424C10.6809 26.0362 10.3714 25.9255 10.0618 25.8101C8.94324 25.3809 7.9513 24.9379 7.02971 24.5295L5.57347 23.8373C4.97545 23.5168 4.34911 23.2503 3.70215 23.0412C3.70215 23.0412 3.76546 23.1035 3.87802 23.1727C4.13832 23.3458 4.68705 23.6573 5.46091 24.0657C6.90474 24.8485 8.3967 25.5421 9.92814 26.1424C11.2899 26.6711 12.7048 27.0563 14.1492 27.2915L14.7331 27.3745C15.001 27.3828 15.2669 27.3257 15.5069 27.2084C15.4577 27.3676 15.4084 27.5199 15.3662 27.6791C14.9346 29.1424 14.6773 30.65 14.5994 32.1717C14.5994 32.4901 14.5994 32.8155 14.5994 33.1408C14.5994 33.4661 14.5994 33.6046 14.5994 33.833C14.659 35.4451 14.9165 37.0443 15.3662 38.5956C15.4718 38.9624 15.5914 39.3224 15.718 39.6824C16.2802 41.2515 17.0413 42.7447 17.9833 44.1265C18.2014 44.438 18.4265 44.7425 18.6516 45.0402C19.6693 46.3633 20.851 47.5563 22.1691 48.5913L21.8736 48.7782C21.4726 49.0413 20.931 49.4289 20.34 49.8789C19.6026 50.3627 18.9393 50.9478 18.3702 51.6164C19.1634 51.2285 19.9014 50.7398 20.5651 50.1627C21.1749 49.7091 21.7596 49.2238 22.3169 48.709C22.753 49.0344 23.1962 49.3458 23.6535 49.6435C23.1962 50.0588 21.8736 51.4848 20.2908 53.1531C18.8345 54.6968 17.5682 55.9912 17.0757 56.5658C16.9139 56.7527 16.8295 56.8634 16.8506 56.8842C17.2752 56.6184 17.663 56.2996 18.0044 55.9359C18.7079 55.3059 19.5873 54.4199 20.5581 53.4023C21.5289 52.3847 22.2535 51.5471 22.8304 50.8549C22.8726 50.8134 22.9148 50.758 22.95 50.7165C23.3369 50.2527 23.6113 49.8927 23.7379 49.6989H23.8083C24.963 50.4285 26.1912 51.0386 27.4735 51.5195C27.5547 51.6463 27.6275 51.7781 27.6916 51.914C27.8849 52.3506 27.9831 52.8222 27.9801 53.2985C27.9631 54.0137 27.8054 54.7189 27.5157 55.3752C27.1992 56.1297 26.7771 56.9604 26.3479 57.8187C25.4756 59.5424 24.6103 61.0653 23.9771 62.159C23.5761 62.8512 23.2736 63.3565 23.1048 63.6611H23.2314C23.4425 63.3773 23.7802 62.9066 24.1952 62.2767C25.099 60.8865 25.9256 59.4491 26.6715 57.971C27.1077 57.0988 27.5157 56.2751 27.8253 55.479C28.0591 54.9067 28.1992 54.3016 28.2404 53.6861C28.2509 53.5409 28.2509 53.3952 28.2404 53.25C28.2186 52.7829 28.0912 52.3265 27.8675 51.914C27.8413 51.8716 27.8178 51.8277 27.7972 51.7825C27.7338 51.6925 27.6775 51.6233 27.6283 51.561C29.6289 52.2892 31.7363 52.6936 33.8684 52.7585C34.0935 52.7585 34.3257 52.7585 34.5719 52.7585H34.994C35.3402 53.0066 35.5907 53.3629 35.7045 53.7692C35.9169 54.442 35.9484 55.1575 35.796 55.8459L35.4161 58.5179C35.1628 60.4146 34.9518 62.1313 34.8181 63.3635C34.7057 64.0336 34.6586 64.7128 34.6774 65.3917C34.8688 64.74 35.0006 64.0728 35.0714 63.3981C35.1417 62.9827 35.2191 62.5051 35.2965 62.0136C35.4443 61.003 35.6131 59.8331 35.7819 58.5525C35.9015 57.6111 36.0211 56.7112 36.1266 55.8736C36.262 55.1671 36.2135 54.4384 35.9859 53.7553C35.9859 53.7138 35.9859 53.6723 35.9367 53.6307C35.7769 53.3168 35.5338 53.0513 35.2332 52.8624H35.6412C38.9006 52.672 42.0627 51.6975 44.8501 50.0242C45.23 49.7958 45.6028 49.5466 45.9687 49.2974C47.2882 48.379 48.4905 47.3076 49.5495 46.1062C49.8309 45.7947 50.0982 45.4694 50.3585 45.1371C50.6047 45.3586 51.1746 45.7878 51.9695 46.3762C53.0811 47.193 54.6429 48.3144 56.3735 49.5258C57.7172 50.4673 58.9694 51.3256 59.9965 52.0248L60.8407 52.5924L61.2136 52.8347L61.4106 52.6962L61.0307 52.3847C59.898 51.561 58.3433 50.4465 56.6127 49.2282ZM34.4804 50.4603C31.0117 50.4603 27.6208 49.4482 24.7367 47.552C21.8525 45.6557 19.6046 42.9605 18.2771 39.8072C16.9497 36.6538 16.6024 33.184 17.2791 29.8364C17.9558 26.4888 19.6262 23.4139 22.079 21.0004C24.5317 18.5869 27.6568 16.9433 31.0589 16.2775C34.461 15.6116 37.9874 15.9533 41.1921 17.2595C44.3968 18.5657 47.1359 20.7776 49.063 23.6155C50.9902 26.4534 52.0188 29.7899 52.0188 33.2031C52.0188 37.78 50.171 42.1694 46.8819 45.4058C43.5929 48.6422 39.1319 50.4603 34.4804 50.4603Z" fill="#FAFAFA"/>
<path d="M54.1786 54.3363C53.6485 53.4779 53.0683 52.6505 52.441 51.8581C51.9113 51 51.3286 50.1747 50.6963 49.3868C51.017 50.3547 51.5049 51.2609 52.1385 52.0658C52.6758 52.936 53.3667 53.7049 54.1786 54.3363Z" fill="#263238"/>
<path d="M50.0135 54.9939L49.9713 54.9108L48.522 52.4811C48.1602 51.7741 47.6851 51.1291 47.115 50.5706C47.0792 50.5407 47.0416 50.513 47.0025 50.4875C46.7978 50.3359 46.5564 50.2395 46.3022 50.2079C46.048 50.1764 45.7898 50.2107 45.5533 50.3075C45.1945 50.5014 45.1523 50.7506 45.1663 50.7436C45.1804 50.7367 45.2859 50.5567 45.6166 50.4391C45.8488 50.3613 46.0984 50.3479 46.3379 50.4004C46.5774 50.4529 46.7976 50.5693 46.9743 50.7367C47.4768 51.304 47.8959 51.9378 48.2195 52.6196C48.6627 53.381 49.1411 54.2048 49.6265 55.0631C50.6396 56.7937 51.5823 58.3512 52.2788 59.4726L52.5601 59.9157C52.5601 59.8187 52.6235 59.7218 52.6586 59.6249L52.5039 59.3411C51.8848 58.2405 51.0124 56.6899 50.0135 54.9939Z" fill="#263238"/>
<path d="M42.5358 58.1363L43.7036 62.0751C43.8331 62.6289 44.0169 63.1691 44.2524 63.688C44.2173 63.1177 44.1158 62.5533 43.9499 62.0059C43.781 61.2652 43.5418 60.3238 43.2464 59.2785C43.1338 58.877 43.0142 58.4617 42.8876 58.0325C42.4233 56.4957 41.9589 55.1113 41.5931 54.1214C41.4344 53.5734 41.2101 53.0459 40.9248 52.55C40.9248 52.55 40.9248 52.6885 40.9881 52.9169C41.0514 53.1454 41.1851 53.6092 41.3469 54.2045C41.6916 55.3328 42.0926 56.6688 42.5358 58.1363Z" fill="#263238"/>
<path d="M38.0684 56.4965C37.9697 57.1408 37.9579 57.795 38.0332 58.4423C37.9926 59.0926 38.0447 59.7452 38.1881 60.3812C38.51 59.0999 38.4686 57.7563 38.0684 56.4965Z" fill="#263238"/>
<path d="M17.9754 44.9703C17.8066 44.6588 17.5674 44.6657 17.5744 44.6796C17.5815 44.6934 17.7503 44.7557 17.8418 45.0257C17.9011 45.1819 17.9011 45.354 17.8418 45.5102C17.7598 45.7167 17.6179 45.8949 17.4337 46.0225C16.5473 46.604 15.2247 47.4069 13.8248 48.2861C13.2197 48.6737 12.6429 49.0406 12.1082 49.3936C11.4047 49.8505 10.7645 50.2797 10.2439 50.6258C9.73991 50.9314 9.26852 51.2862 8.83691 51.6849C9.38633 51.4584 9.90984 51.1753 10.3987 50.8404C11.3414 50.2797 12.6288 49.4559 14.0358 48.5907C15.4428 47.7254 16.7162 46.8947 17.6167 46.2163C17.7927 46.0753 17.9285 45.8916 18.0106 45.6833C18.0298 45.646 18.044 45.6065 18.0528 45.5656C18.1 45.3644 18.0726 45.1533 17.9754 44.9703Z" fill="#263238"/>
<path d="M15.1838 39.7789C15.4019 39.5297 15.4582 39.3497 15.4442 39.3428C15.0258 39.7864 14.5044 40.1237 13.9246 40.3257C13.397 40.5196 12.7216 40.6649 11.9759 40.8518L9.56285 41.4887C8.54277 41.7586 7.57897 42.0217 6.74884 42.264L5.21521 42.707C4.60505 42.8512 4.01114 43.0553 3.44238 43.3162C4.06737 43.2527 4.68464 43.1298 5.28556 42.9493C6.41117 42.6862 7.9659 42.257 9.67542 41.8348L12.0814 41.1772C12.7444 41.0076 13.3974 40.802 14.0372 40.5611C14.2422 40.4728 14.4398 40.3687 14.6281 40.2496C14.8353 40.1197 15.0224 39.9611 15.1838 39.7789Z" fill="#263238"/>
<path d="M14.0083 33.6316C13.4183 33.5557 12.8226 33.5325 12.2284 33.5624C11.138 33.5624 9.62544 33.5624 7.95814 33.5139C6.29083 33.4654 4.78533 33.4239 3.68786 33.3824C3.09821 33.3279 2.50469 33.3279 1.91504 33.3824C2.09372 33.4562 2.28424 33.4984 2.47783 33.507C2.77331 33.5485 3.18135 33.597 3.6738 33.6454C4.76423 33.7492 6.27675 33.8462 7.95109 33.8808C8.52797 33.8808 9.06968 33.8808 9.59731 33.8808C10.6033 33.8808 11.5179 33.8808 12.2355 33.8116C12.8315 33.8198 13.4265 33.7594 14.0083 33.6316Z" fill="#263238"/>
<path d="M11.6932 32.7597C12.4699 32.9515 13.2713 33.0285 14.0711 32.9881C12.5618 32.4785 10.9811 32.2029 9.38574 32.1713C10.1202 32.4811 10.8983 32.6795 11.6932 32.7597Z" fill="#263238"/>
<path d="M23.984 16.4298C23.72 15.6354 23.3784 14.868 22.9639 14.1385C22.6566 13.3595 22.275 12.6108 21.8242 11.9026C22.1732 13.5575 22.9131 15.1083 23.984 16.4298Z" fill="#263238"/>
<path d="M40.9033 14.2427C41.814 12.3544 42.6172 10.4178 43.3093 8.44182C44.0128 6.57281 44.6249 4.90453 44.9907 3.81774L44.7867 3.72083C44.3364 4.77993 43.6751 6.44128 42.9646 8.31722C42.1621 10.2517 41.4739 12.2301 40.9033 14.2427Z" fill="#263238"/>
<path d="M44.7309 11.1069C45.4472 10.3144 46.0463 9.42655 46.5107 8.46948C45.7495 9.21256 45.0574 10.0211 44.4424 10.8854C43.7334 11.6771 43.0977 12.5296 42.543 13.4328C43.3771 12.7597 44.1133 11.9771 44.7309 11.1069Z" fill="#263238"/>
<path d="M52.1599 14.7966C53.0641 14.2984 53.8793 13.6576 54.5729 12.8999C53.6655 13.3689 52.7933 13.9009 51.9629 14.492C51.0719 14.9894 50.2184 15.5492 49.4092 16.1672C50.394 15.8565 51.3225 15.3938 52.1599 14.7966Z" fill="#263238"/>
<path d="M56.9016 20.8468C56.2092 21.083 55.569 21.4473 55.0156 21.9201C55.7255 21.7682 56.4102 21.5188 57.0494 21.1792C57.7362 20.9489 58.3856 20.6224 58.9776 20.2097C58.2505 20.2888 57.5456 20.5051 56.9016 20.8468Z" fill="#263238"/>
<path d="M34.4808 50.4605C44.1669 50.4605 52.0191 42.7341 52.0191 33.2032C52.0191 23.6723 44.1669 15.946 34.4808 15.946C24.7946 15.946 16.9424 23.6723 16.9424 33.2032C16.9424 42.7341 24.7946 50.4605 34.4808 50.4605Z" fill="#FAFAFA"/>
<path d="M42.7398 69.1431C42.7846 69.2777 42.8129 69.4172 42.8243 69.5584C42.8665 69.8768 42.9227 70.2506 42.9931 70.7629C43.1338 71.8635 43.3238 73.3657 43.563 75.207C44.0413 78.9519 44.7308 84.1229 45.5679 89.8268C46.4051 95.5308 47.2563 100.681 47.9036 104.405C48.2201 106.233 48.4734 107.728 48.6634 108.815C48.7478 109.306 48.8111 109.701 48.8603 110.019C48.8885 110.158 48.9049 110.3 48.9096 110.441C48.8519 110.311 48.8118 110.174 48.79 110.033C48.7196 109.721 48.6352 109.341 48.5226 108.842C48.2975 107.811 48.0021 106.309 47.6433 104.447C46.9398 100.736 46.0534 95.5862 45.2091 89.9099C44.3649 84.2336 43.7177 79.0212 43.3026 75.2624C43.0986 73.3864 42.9439 71.8635 42.8524 70.8113C42.8102 70.3129 42.775 69.9114 42.7539 69.593C42.7298 69.4442 42.7251 69.293 42.7398 69.1431Z" fill="#263238"/>
<path d="M32.5743 65.5363C32.6728 65.5363 33.51 79.6162 34.4457 96.9981C35.3813 114.38 36.0637 128.467 35.9582 128.474C35.8527 128.481 35.0155 114.394 34.0798 97.0119C33.1442 79.6301 32.4688 65.5363 32.5743 65.5363Z" fill="#263238"/>
<path d="M26.9744 68.5824C26.9788 68.7248 26.9622 68.867 26.9252 69.0047C26.8689 69.3162 26.7915 69.6969 26.7001 70.1884C26.482 71.2613 26.1865 72.7358 25.8207 74.5286C25.0328 78.232 23.9634 83.2646 22.7745 88.8231C21.5856 94.3817 20.4389 99.4004 19.6228 103.09C19.2148 104.876 18.8771 106.343 18.6309 107.409C18.5113 107.88 18.4198 108.268 18.3424 108.572C18.3167 108.713 18.2742 108.85 18.2158 108.981C18.2169 108.838 18.2358 108.696 18.2721 108.559C18.3284 108.254 18.3987 107.866 18.4902 107.375C18.7083 106.309 19.0108 104.834 19.3696 103.035C20.1645 99.3381 21.2338 94.3056 22.4157 88.7401C23.5976 83.1746 24.7514 78.1628 25.5674 74.4733C25.9825 72.6873 26.3202 71.2198 26.5664 70.1538C26.679 69.6831 26.7775 69.2954 26.8548 68.9908C26.8851 68.8521 26.9251 68.7157 26.9744 68.5824Z" fill="#263238"/>
<path d="M35.8374 23.5114L38.3067 28.4262C38.3672 28.5468 38.4563 28.6512 38.5665 28.7307C38.6767 28.8103 38.8048 28.8625 38.9398 28.8831L44.4553 29.6653C44.6044 29.6922 44.7433 29.7581 44.8576 29.856C44.9719 29.954 45.0572 30.0804 45.1047 30.222C45.1522 30.3636 45.1601 30.5152 45.1275 30.6609C45.095 30.8065 45.0232 30.9408 44.9196 31.0497L40.9308 34.8708C40.8331 34.9647 40.7603 35.0806 40.7186 35.2085C40.6769 35.3364 40.6676 35.4724 40.6916 35.6046L41.6272 41.0109C41.6548 41.163 41.6384 41.3197 41.5798 41.463C41.5213 41.6064 41.4229 41.7306 41.296 41.8216C41.169 41.9125 41.0187 41.9665 40.862 41.9774C40.7054 41.9883 40.5488 41.9556 40.4102 41.8831L35.4856 39.3288C35.3637 39.2674 35.2287 39.2354 35.0917 39.2354C34.9547 39.2354 34.8197 39.2674 34.6977 39.3288L29.7732 41.8831C29.6345 41.9556 29.4779 41.9883 29.3213 41.9774C29.1647 41.9665 29.0143 41.9125 28.8874 41.8216C28.7605 41.7306 28.6621 41.6064 28.6035 41.463C28.5449 41.3197 28.5285 41.163 28.5561 41.0109L29.4988 35.6046C29.5213 35.4718 29.5106 35.3357 29.4677 35.2078C29.4248 35.08 29.351 34.9644 29.2526 34.8708L25.2637 31.0497C25.1601 30.9404 25.0885 30.8055 25.0563 30.6594C25.0241 30.5133 25.0326 30.3613 25.0808 30.2195C25.1291 30.0778 25.2153 29.9514 25.3305 29.8539C25.4456 29.7563 25.5854 29.6912 25.7351 29.6653L31.2435 28.8831C31.3786 28.8625 31.5066 28.8103 31.6168 28.7307C31.727 28.6512 31.8161 28.5468 31.8767 28.4262L34.346 23.5114C34.4161 23.3761 34.5229 23.2626 34.6545 23.1833C34.7861 23.104 34.9374 23.062 35.0917 23.062C35.246 23.062 35.3973 23.104 35.5289 23.1833C35.6605 23.2626 35.7673 23.3761 35.8374 23.5114Z" fill="#369FFF"/>
<path d="M41.7549 21.982L42.0503 22.9234C42.1156 23.1295 42.2311 23.3168 42.3869 23.4688C42.5426 23.6209 42.7338 23.7331 42.9438 23.7956L43.9005 24.0933L42.9368 24.4117C42.742 24.4775 42.5649 24.5857 42.4187 24.7284C42.2725 24.871 42.161 25.0444 42.0925 25.2355L41.7549 26.1977L41.382 25.1939C41.3109 25.0067 41.1982 24.8375 41.0522 24.6985C40.9061 24.5596 40.7304 24.4545 40.5378 24.3909L39.6162 24.0933L40.5237 23.7887C40.711 23.728 40.8821 23.6269 41.0245 23.4927C41.1669 23.3586 41.277 23.1948 41.3468 23.0134L41.7549 21.982Z" fill="#369FFF"/>
<g opacity="0.3">
<path d="M40.7275 13.779C40.637 13.9988 40.5916 14.2341 40.5938 14.4712C40.9597 14.5889 41.2973 14.7135 41.6772 14.8519C41.8758 14.7162 42.0535 14.553 42.2048 14.3674L49.3384 5.54148C49.7377 5.15637 49.9655 4.63106 49.9715 4.08088C49.9747 4.0556 49.9747 4.03002 49.9715 4.00474C48.6841 3.9009 47.2067 4.53083 45.9193 4.13626C45.6117 4.04746 45.3088 3.9435 45.0118 3.82476C44.646 4.91156 44.041 6.59367 43.3304 8.44884C42.6384 10.4248 41.8351 12.3615 40.9245 14.2497C41.4951 12.2372 42.1833 10.2587 42.9857 8.32424C43.6892 6.4483 44.3576 4.78696 44.8078 3.72785C44.754 3.70432 44.7023 3.67653 44.653 3.64478L44.5616 3.72785C43.2765 7.09208 41.9985 10.4425 40.7275 13.779ZM44.442 10.8855C45.0569 10.0212 45.7491 9.21268 46.5103 8.4696C46.0459 9.42667 45.4467 10.3145 44.7304 11.107C44.1128 11.9772 43.3766 12.7598 42.5425 13.4329C43.0973 12.5297 43.733 11.6772 44.442 10.8855Z" fill="black"/>
<path d="M49.6342 13.1006C50.8231 11.8338 51.9135 10.6986 52.7155 9.88868C53.1221 9.42314 53.5772 9.00087 54.0733 8.62882C53.732 9.14247 53.3409 9.62235 52.9055 10.0617C52.1528 10.9132 51.0905 12.0761 49.9086 13.3429C48.7267 14.6097 47.6292 15.7519 46.8272 16.5548C46.5757 16.7591 46.4042 17.0429 46.3418 17.3578L46.7428 17.6624C50.8583 15.2673 55.5858 12.2353 59.2511 9.56334C58.9267 9.25064 58.5347 9.01402 58.1044 8.87111C56.9225 8.46962 55.4662 8.48346 54.2984 8.03351C52.2864 10.1102 49.8664 12.6438 47.7699 15.1358C48.3116 14.5266 48.9518 13.8344 49.6342 13.1006Z" fill="black"/>
<path d="M59.5176 17.0808C59.0802 17.4142 58.6087 17.7019 58.1106 17.9392C57.2453 18.4376 56.0423 19.116 54.7338 19.8982C53.4253 20.6804 52.1379 21.3311 51.765 22.2172C51.6387 22.4856 51.5808 22.7802 51.5962 23.0755L51.8706 23.5462C55.2333 22.854 60.4744 20.4589 64.3085 18.936C63.1407 18.0153 61.389 17.6554 60.5588 16.4025L59.3277 17.0808C59.4402 17.0808 59.5106 17.0393 59.5176 17.0808ZM57.0483 21.2342C56.4093 21.5738 55.7249 21.8231 55.0152 21.9749C56.1904 21.1232 57.5433 20.5392 58.9759 20.2651C58.3808 20.6583 57.7317 20.9659 57.0483 21.1788V21.2342Z" fill="black"/>
<path d="M62.7128 24.8408C61.8405 25.1869 60.6023 25.6438 59.2727 26.1352C57.9431 26.6267 56.6908 27.0421 55.7974 27.3259C55.3262 27.5179 54.8321 27.6505 54.3271 27.7204L53.7432 27.9766C53.9353 28.6602 54.0903 29.3534 54.2075 30.0533H54.7351C58.3159 29.9633 64.1269 29.6172 68.4253 29.361C68.2124 28.8653 67.9332 28.3997 67.5951 27.9766C66.8283 27.0282 65.8786 26.156 65.5409 24.9931C65.4398 24.6204 65.3878 24.2366 65.3861 23.8509L63.5711 24.4393L62.7128 24.8408Z" fill="black"/>
<path d="M61.6711 34.5113L56.9647 34.1583C56.3099 34.1398 55.6579 34.0657 55.016 33.9368C55.5291 33.8715 56.0477 33.8576 56.5637 33.8953C55.9727 33.8537 55.3889 33.8191 54.7979 33.7983H54.4673C54.4673 34.3729 54.411 34.9336 54.3477 35.4943C58.0411 36.8788 63.4932 38.7616 67.7494 40.2914C67.8983 40.011 67.9801 39.7009 67.9886 39.3846C68.0379 37.7302 66.0118 36.4634 66.1173 34.8644C65.5897 34.8228 65.0691 34.7813 64.5485 34.7259L61.6711 34.5113Z" fill="black"/>
<path d="M55.8742 40.9004L53.9326 39.9244L53.3838 39.6613C53.1546 40.3165 52.8892 40.9589 52.5889 41.5857C55.8391 44.0362 60.1093 48.3419 63.7253 51.4569C64.1805 51.2113 64.5653 50.8565 64.8439 50.4255C65.7163 48.9164 64.5273 47.082 64.3585 45.3514C63.2681 44.8184 61.6148 43.967 59.7716 43.0048C58.2591 42.2087 56.8943 41.468 55.8742 40.9004Z" fill="black"/>
<path d="M56.4011 49.5254C54.6705 48.314 53.1087 47.1926 51.9972 46.3758C51.2022 45.7874 50.6324 45.3582 50.3862 45.1367C50.1259 45.4689 49.8586 45.7943 49.5771 46.1058C49.83 46.4875 50.1224 46.8424 50.4495 47.1649C52.8695 49.6638 56.6685 53.9418 59.5177 56.9945C60.179 55.9146 60.0171 54.3433 60.8121 53.2842C60.9187 53.1481 61.0389 53.0228 61.1709 52.9104L60.0242 52.0243C58.9971 51.3252 57.7448 50.4668 56.4011 49.5254Z" fill="black"/>
<path d="M49.6551 55.0911C49.1486 54.2328 48.6702 53.409 48.2481 52.6476C47.9245 51.9658 47.5053 51.332 47.0029 50.7647C46.8261 50.5973 46.6059 50.4809 46.3664 50.4284C46.127 50.3759 45.8774 50.3893 45.6451 50.467C45.3145 50.5847 45.223 50.7993 45.1949 50.7716C45.1667 50.7439 45.1949 50.5293 45.5818 50.3355C45.8187 50.2309 46.0796 50.1899 46.3378 50.2166C46.5961 50.2434 46.8426 50.3369 47.0521 50.4878C46.7349 50.0686 46.3894 49.6709 46.018 49.2972C45.6522 49.5464 45.2793 49.7956 44.8994 50.024C45.7084 54.0666 47.826 59.9852 49.8239 64.7131C50.107 64.7647 50.3979 64.7588 50.6785 64.6957C50.9592 64.6326 51.2238 64.5137 51.4561 64.3462C52.7083 63.4048 52.1947 61.425 52.6239 59.9437L52.3425 59.5006C51.6108 58.3792 50.6681 56.8217 49.6551 55.0911Z" fill="black"/>
<path d="M43.9498 62.0064C44.1158 62.5539 44.2173 63.1183 44.2523 63.6885C44.0169 63.1696 43.8331 62.6295 43.7036 62.0756L42.5358 58.1369C42.0926 56.6693 41.6916 55.3334 41.3468 54.205C41.185 53.6443 41.0584 53.2013 40.9881 52.9175L40.777 52.4329C40.5941 56.3786 40.8333 61.9095 41.1077 66.3467C42.1469 65.4809 43.282 64.7332 44.4915 64.1177C44.1679 62.5741 43.7388 60.9196 43.2463 59.2721C43.5418 60.3243 43.781 61.2657 43.9498 62.0064Z" fill="black"/>
<path d="M35.0365 63.4048C34.9658 64.0795 34.834 64.7467 34.6426 65.3984C34.6237 64.7194 34.6708 64.0403 34.7833 63.3701C34.917 62.1241 35.128 60.4074 35.3813 58.5246L35.7612 55.8526C35.9135 55.1642 35.882 54.4487 35.6697 53.7759C35.5131 53.4152 35.2447 53.1123 34.9029 52.9106H34.4808C34.2486 52.9106 34.0165 52.9106 33.7773 52.9106C33.7483 52.9299 33.7222 52.9532 33.6999 52.9798C33.3042 53.4402 33.0181 53.9818 32.8627 54.565C31.6386 58.13 30.4145 63.4463 29.1904 67.2812C30.6396 66.9836 31.5753 65.2461 33.0738 65.1492C33.7512 65.1514 34.4044 65.3976 34.9099 65.8414C35.0295 64.6646 35.135 63.3632 35.2476 62.0411C35.1843 62.5118 35.1069 62.9894 35.0365 63.4048Z" fill="black"/>
<path d="M26.2707 57.9222C26.6998 57.0638 27.122 56.2331 27.4385 55.4786C27.7282 54.8224 27.8859 54.1172 27.9028 53.4019C27.9059 52.9257 27.8077 52.4541 27.6144 52.0175C27.3324 52.0747 27.0819 52.2325 26.9109 52.4605C24.1813 55.444 20.3331 60.255 17.5332 63.9722C19.0809 64.5468 21.2055 63.5707 23.0276 63.7646C23.1964 63.46 23.4989 62.9477 23.8999 62.2624C24.5331 61.1618 25.3984 59.6389 26.2707 57.9222Z" fill="black"/>
<path d="M16.9985 56.628C17.491 56.0535 18.7573 54.759 20.2135 53.2153C21.7964 51.5471 23.119 50.1211 23.5763 49.7058C23.119 49.4081 22.6758 49.0966 22.2396 48.7712C21.6823 49.2861 21.0976 49.7713 20.4879 50.2249C19.8241 50.802 19.0862 51.2907 18.2929 51.6786C18.8621 51.01 19.5254 50.425 20.2628 49.9411C20.8537 49.4912 21.3954 49.1035 21.7964 48.8405C20.9442 49.1947 20.1443 49.6604 19.4186 50.2249L11.082 56.3719C12.5312 56.6211 14.1704 56.6834 15.0779 57.7564C15.2147 57.9194 15.3305 58.0984 15.4227 58.2894C15.8799 57.7494 16.4216 57.2303 16.9985 56.628Z" fill="black"/>
<path d="M13.8257 48.2865C15.2327 47.3866 16.5483 46.6044 17.4347 46.023C17.6189 45.8953 17.7608 45.7172 17.8427 45.5107C17.9021 45.3545 17.9021 45.1824 17.8427 45.0261C17.7513 44.7562 17.5613 44.7077 17.5754 44.68C17.5895 44.6523 17.8076 44.68 17.9764 44.9708C18.0688 45.1555 18.0913 45.3666 18.0397 45.5661C18.0309 45.6069 18.0167 45.6465 17.9975 45.6838C18.2255 45.5364 18.4137 45.3369 18.5462 45.1023C18.3211 44.8046 18.096 44.5001 17.8779 44.1886C17.5921 44.1776 17.3066 44.2151 17.0337 44.2993C13.27 45.2754 7.52234 47.3866 3.04102 49.0203C4.44802 50.031 7.01582 49.5949 7.92334 51.1524C8.0229 51.3427 8.09624 51.5452 8.14142 51.7546C9.37255 51.0139 10.7444 50.204 12.1092 49.3941C12.6438 49.0411 13.1926 48.6742 13.8257 48.2865Z" fill="black"/>
<path d="M9.56199 41.489L11.975 40.8521C12.7207 40.6652 13.382 40.5199 13.9237 40.326C14.5035 40.124 15.0249 39.7867 15.4433 39.3431C15.4433 39.3431 15.4011 39.53 15.183 39.7792C15.0173 39.9625 14.8253 40.121 14.6131 40.2499L14.9157 40.1461C15.1806 40.0722 15.4225 39.9342 15.6192 39.7446C15.4925 39.3846 15.3729 39.0523 15.2674 38.6578C14.9671 38.5429 14.6469 38.4865 14.3247 38.4916C9.6722 38.3301 5.01969 38.1963 0.367188 38.0901C1.01441 39.17 2.4777 39.6477 3.05458 40.7621C3.3903 41.4737 3.44791 42.282 3.21639 43.0327L6.73391 42.2643C7.56405 42.0012 8.54191 41.7589 9.56199 41.489Z" fill="black"/>
<path d="M1.93649 33.3761C2.52613 33.3217 3.11966 33.3217 3.70931 33.3761C4.80678 33.4176 6.31228 33.473 7.97958 33.5076C9.64689 33.5423 11.1594 33.5492 12.2499 33.5561C12.8441 33.5262 13.4398 33.5494 14.0297 33.6253C13.4482 33.7555 12.8532 33.8182 12.2569 33.8122C11.5534 33.8538 10.6248 33.8745 9.61876 33.8814C11.3494 33.9507 13.0096 33.9714 14.4026 33.8814H14.5151C14.5151 33.653 14.5151 33.4246 14.5151 33.1892C14.5151 32.9539 14.5151 32.5385 14.5151 32.2201L14.4166 32.1578C10.5685 29.9011 5.03893 28.2744 0.459123 27.0422C0.405145 27.4142 0.482598 27.7932 0.678518 28.1158C0.874437 28.4383 1.17695 28.6849 1.53548 28.8143L1.437 28.1913C2.56965 28.6759 2.87917 30.178 2.52039 31.341C2.25601 32.0807 1.88652 32.7799 1.42292 33.4177L2.49226 33.48C2.3023 33.4772 2.11427 33.442 1.93649 33.3761ZM11.7855 32.4001C12.5827 32.4808 13.3629 32.6792 14.1001 32.9885C13.3003 33.0288 12.4989 32.9519 11.7222 32.76C10.9272 32.6799 10.1492 32.4815 9.41474 32.1716C10.2122 32.1309 11.0113 32.2079 11.7855 32.4001Z" fill="black"/>
<path d="M3.61756 23.1307C4.26452 23.3398 4.89084 23.6063 5.48886 23.9268L6.94512 24.619C8.23956 25.1659 9.59029 25.7197 10.9058 26.2319C12.1214 26.6663 13.3739 26.9929 14.6485 27.208C14.9086 27.2368 15.1717 27.1936 15.4083 27.0833C15.4442 27.0594 15.4773 27.0316 15.5068 27.0003C15.6475 26.5919 15.7952 26.1904 15.964 25.7889C15.3168 25.4774 14.3319 24.9513 13.2344 24.3283C12.0614 23.7443 10.9492 23.0488 9.9139 22.2516C11.1374 22.7388 12.3145 23.3318 13.4314 24.0237L14.5711 24.7159C10.9999 22.2038 7.29158 19.886 3.46278 17.7729C3.23766 19.0743 3.74417 20.7356 3.33614 22.0855C3.24036 22.3718 3.11049 22.646 2.94922 22.9023L3.79343 23.2553C3.68087 23.193 3.61052 23.1377 3.61756 23.1307Z" fill="black"/>
<path d="M10.4132 15.0735C10.8756 15.4087 11.3022 15.789 11.6866 16.2088C12.4534 16.901 13.5227 17.9116 14.7468 18.9361C15.9709 19.9606 17.1317 20.8398 17.983 21.4628L18.2714 21.6773C18.5176 21.3451 18.7638 21.0197 19.0312 20.7082L18.989 20.639C18.6161 20.2029 18.1518 19.6145 17.6594 18.9431C16.9803 18.1114 16.4172 17.1941 15.985 16.2157C16.3954 16.5986 16.7547 17.0312 17.0543 17.5032C15.3417 14.8696 13.462 12.3449 11.4263 9.94409C10.8381 10.0339 10.2992 10.3198 9.8997 10.754C9.11881 11.6885 9.40724 13.156 9.02734 14.2636C9.73085 14.9004 10.568 15.6065 11.4263 16.3403C11.0381 15.9596 10.698 15.5343 10.4132 15.0735Z" fill="black"/>
<path d="M20.0097 12.9277C21.7684 15.1151 23.2387 16.8595 23.2036 16.9703C23.5272 16.7534 23.8578 16.5457 24.1955 16.3473C24.1955 16.2988 24.1603 16.2573 24.1392 16.2158C22.8166 12.8931 20.4177 7.68754 18.8137 3.88721C18.558 4.00017 18.3091 4.12729 18.068 4.26793C16.8931 4.96016 16.5062 6.46229 15.873 7.68753C16.2811 8.21362 16.7454 8.82971 17.2378 9.49424C17.7303 10.1588 18.8207 11.4533 20.0097 12.9277ZM21.8247 11.924C22.2754 12.6322 22.657 13.3809 22.9644 14.1599C23.3788 14.8894 23.7204 15.6567 23.9844 16.4511C22.9135 15.1297 22.1737 13.5789 21.8247 11.924Z" fill="black"/>
<path d="M26.1436 5.14702C26.3066 5.64962 26.4197 6.16661 26.4813 6.6907C26.6501 7.63905 26.8823 8.9612 27.1848 10.408C27.438 11.6747 27.6843 12.81 27.8883 13.7168C27.9868 14.0145 28.0853 14.2844 28.1837 14.5336C28.5566 14.409 28.9365 14.2983 29.3305 14.1944C29.1591 13.4394 29.0392 12.6739 28.9717 11.9032C28.8053 11.1342 28.7251 10.3496 28.7325 9.56344C29.0807 10.2847 29.286 11.0647 29.3375 11.8616C29.4008 12.3185 29.429 12.7477 29.443 13.1146C29.443 9.53575 29.5204 4.93244 29.5134 1.29132C28.9295 1.83818 28.5003 2.79345 27.5576 4.16406C27.3902 4.39261 27.1734 4.58188 26.9228 4.71831C26.6723 4.85474 26.3942 4.93495 26.1084 4.9532L26.1506 5.22317C26.1295 5.18164 26.1366 5.14702 26.1436 5.14702Z" fill="black"/>
<path d="M35.0011 8.87801C34.9659 10.8924 34.9026 12.6368 34.8252 13.5298C35.3036 13.5298 35.782 13.5298 36.2322 13.6059C36.9893 12.4376 37.5145 11.1387 37.7799 9.77791C38.399 7.34819 39.2502 3.44402 39.9397 0.592041C39.5036 0.620267 39.0789 0.740689 38.6945 0.945084C37.6111 1.53348 36.2955 4.10856 35.6131 4.12241C35.49 4.11309 35.3701 4.07876 35.2611 4.02157C35.1522 3.96438 35.0564 3.88558 34.98 3.79014V4.08087C35.0011 4.92539 35.0011 6.75287 35.0011 8.87801Z" fill="black"/>
</g>
</svg>
