<svg width="22" height="39" viewBox="0 0 22 39" fill="none" xmlns="http://www.w3.org/2000/svg">
<path d="M4.04617 7.55055C5.21096 3.20361 9.67919 0.623951 14.0262 1.78871C18.3733 2.95347 20.953 7.42158 19.7882 11.7685C18.9469 14.9083 16.3821 17.1261 13.3844 17.6768L8.96339 34.1758L4.68622 36.6452L2.2168 32.3681L5.06824 30.7219L3.42196 27.8705L6.27341 26.2243L4.62712 23.3729L7.47857 21.7267L5.83229 18.8753L6.63783 15.8691C4.31709 13.8933 3.20485 10.6903 4.04617 7.55055ZM10.2709 6.80816C9.93812 8.05014 10.6752 9.32674 11.9172 9.65953C13.1592 9.99232 14.4358 9.25527 14.7686 8.01329C15.1014 6.77131 14.3644 5.4947 13.1224 5.16192C11.8803 4.82913 10.6037 5.56618 10.2709 6.80816Z" fill="#FFFFFF"/>
<path d="M14.395 0.339053C19.665 1.7511 22.7924 7.16783 21.3803 12.4377C20.4335 15.9712 17.6866 18.5394 14.3946 19.4244L10.2172 35.014C10.1325 35.3303 9.9255 35.6 9.64188 35.7638L5.10478 38.3832C4.51416 38.7242 3.75894 38.5218 3.41795 37.9312L0.798456 33.3942C0.457464 32.8036 0.659823 32.0484 1.25044 31.7074L3.20577 30.5786L2.07686 28.6233C1.73587 28.0327 1.93823 27.2775 2.52884 26.9365L4.48417 25.8076L3.35526 23.8524C3.01427 23.2618 3.21663 22.5066 3.80725 22.1656L5.76257 21.0367L4.63367 19.0814C4.46992 18.7978 4.42554 18.4608 4.5103 18.1444L4.85243 16.8676C2.44394 14.4553 1.34921 10.8577 2.29605 7.32419C3.70813 2.05436 9.12501 -1.07299 14.395 0.339053ZM18.9948 11.7985C20.0538 7.8461 17.7083 3.78356 13.7558 2.72452C9.8033 1.66549 5.74064 4.011 4.68158 7.96337C3.9171 10.8164 4.92595 13.7291 7.03845 15.5276C7.40143 15.8366 7.55411 16.327 7.43073 16.7874L7.02822 18.2896L8.51881 20.8713C8.8598 21.4619 8.65744 22.2171 8.06682 22.558L6.11149 23.6869L7.2404 25.6422C7.5814 26.2328 7.37904 26.988 6.78842 27.329L4.83309 28.4579L5.962 30.4131C6.30299 31.0037 6.10063 31.7589 5.51002 32.0999L3.55469 33.2288L4.93934 35.627L7.96408 33.8807L12.2018 18.0658C12.3252 17.6053 12.7026 17.257 13.1714 17.1709C15.9002 16.6696 18.2303 14.6515 18.9948 11.7985Z" fill="#1F1F1F"/>
<path d="M11.8382 9.88092C10.5207 9.52791 9.73882 8.17373 10.0918 6.85627C10.4449 5.53881 11.7991 4.75698 13.1166 5.10999C14.4341 5.463 15.2159 6.81718 14.8629 8.13464C14.5099 9.4521 13.1557 10.2339 11.8382 9.88092Z" fill="#1F1F1F"/>
</svg>
