<svg width="122" height="112" viewBox="0 0 122 112" fill="none" xmlns="http://www.w3.org/2000/svg">
<g id="hidden/pana">
<g id="Character">
<path id="Vector" d="M1.46691e-07 111.892L2.60032e-08 53.4981C2.33591e-08 52.2188 0.526971 50.9919 1.46499 50.0873C2.403 49.1827 3.67523 48.6745 5.00178 48.6745L9.78056 48.6745C10.7365 48.6742 11.6724 48.4098 12.4775 47.9127C13.2826 47.4156 13.9232 46.7066 14.3236 45.8694L15.3526 43.7188C15.7526 42.8822 16.3928 42.1737 17.1974 41.6771C18.0019 41.1805 18.9372 40.9166 19.8924 40.9167L42.5948 40.9167C43.4646 40.9168 44.3194 41.1356 45.0748 41.5515C45.8301 41.9675 46.46 42.5662 46.9021 43.2886L48.0171 45.1075C48.4573 45.8334 49.0867 46.4356 49.8428 46.8544C50.599 47.2732 51.4556 47.4939 52.3276 47.4947L81.2646 47.4947C81.9218 47.4947 82.5724 47.6196 83.1795 47.8622C83.7865 48.1048 84.3381 48.4603 84.8026 48.9086C85.2671 49.3568 85.6354 49.8889 85.8866 50.4745C86.1378 51.0601 86.2669 51.6877 86.2664 52.3214L86.2664 111.892L1.46691e-07 111.892Z" fill="#E30613"/>
<g id="Group" opacity="0.3">
<path id="Vector_2" d="M1.46691e-07 111.892L2.60032e-08 53.4981C2.33591e-08 52.2188 0.526971 50.9919 1.46499 50.0873C2.403 49.1827 3.67523 48.6745 5.00178 48.6745L9.78056 48.6745C10.7365 48.6742 11.6724 48.4098 12.4775 47.9127C13.2826 47.4156 13.9232 46.7066 14.3236 45.8694L15.3526 43.7188C15.7526 42.8822 16.3928 42.1737 17.1974 41.6771C18.0019 41.1805 18.9372 40.9166 19.8924 40.9167L42.5948 40.9167C43.4646 40.9168 44.3194 41.1356 45.0748 41.5515C45.8301 41.9675 46.46 42.5662 46.9021 43.2886L48.0171 45.1075C48.4573 45.8334 49.0867 46.4356 49.8428 46.8544C50.599 47.2732 51.4556 47.4939 52.3276 47.4947L81.2646 47.4947C81.9218 47.4947 82.5724 47.6196 83.1795 47.8622C83.7865 48.1048 84.3381 48.4603 84.8026 48.9086C85.2671 49.3568 85.6354 49.8889 85.8866 50.4745C86.1378 51.0601 86.2669 51.6877 86.2664 52.3214L86.2664 111.892L1.46691e-07 111.892Z" fill="black"/>
</g>
<path id="Vector_3" d="M1.19621e-07 110.613L8.8471 55.8484C9.04322 54.9671 9.54685 54.1773 10.2739 53.6109C11.001 53.0445 11.9075 52.7357 12.8422 52.7361L87.1234 52.7361C87.7996 52.7358 88.4653 52.8975 89.0607 53.2068C89.656 53.516 90.1623 53.9631 90.5341 54.5078C90.906 55.0525 91.1316 55.6777 91.1908 56.3274C91.2499 56.977 91.1408 57.6306 90.8732 58.2295L74.8356 109.249L1.19621e-07 110.613Z" fill="#EBEBEB"/>
<path id="Vector_4" d="M1.10579e-07 110.613L11.1823 60.2265C11.3777 59.3451 11.8806 58.555 12.6071 57.9881C13.3335 57.4211 14.2396 57.1116 15.1742 57.1111L89.4714 57.1111C90.1477 57.1113 90.8134 57.2736 91.4087 57.5832C92.0039 57.8928 92.5101 58.3401 92.8819 58.885C93.2536 59.4299 93.4792 60.0553 93.5384 60.705C93.5976 61.3548 93.4886 62.0085 93.2211 62.6076L72.0735 109.947L1.10579e-07 110.613Z" fill="#FAFAFA"/>
<path id="Vector_5" d="M1.08661e-07 111.892L18.0128 62.7336C18.3796 61.7345 19.0584 60.8696 19.9558 60.2578C20.8532 59.6459 21.9251 59.3173 23.0241 59.3171L99.6056 59.3171C100.178 59.3174 100.743 59.4492 101.253 59.7016C101.762 59.9539 102.202 60.3196 102.536 60.7684C102.87 61.2172 103.089 61.7362 103.173 62.2826C103.258 62.8289 103.207 63.3869 103.024 63.9103L86.2664 111.892L1.08661e-07 111.892Z" fill="#E30613"/>
<g id="Group 208">
<path id="Vector_6" d="M52.019 94.6953C43.0444 94.6953 38.1287 87.2479 38.0809 87.1711C38.0533 87.1282 38.0372 87.0793 38.0339 87.029C38.0305 86.9786 38.0401 86.9282 38.0618 86.8823C38.1096 86.784 42.78 77.2627 52.7995 77.2473L52.8345 77.2473C62.5227 77.2473 66.5337 86.5965 66.5879 86.6918C66.6059 86.731 66.6152 86.7733 66.6152 86.8162C66.6152 86.8591 66.6059 86.9015 66.5879 86.9406C65.7546 88.4193 64.6403 89.7335 63.3032 90.8149C61.2101 92.5754 57.5687 94.6769 52.0508 94.6892L52.019 94.6953ZM38.718 86.9867C39.4317 87.9945 44.0798 94.0808 52.0222 94.0808L52.0508 94.0808C57.3489 94.0808 60.8533 92.0623 62.8604 90.3756C64.0876 89.3619 65.1235 88.1509 65.922 86.7962C65.4123 85.6963 61.4618 77.8618 52.8186 77.8618L52.7995 77.8618C43.8696 77.8741 39.352 85.7854 38.718 86.9867Z" fill="white"/>
<path id="Vector_7" d="M52.9622 91.4601C51.8861 91.4607 50.834 91.1536 49.9389 90.5776C49.0438 90.0016 48.3458 89.1826 47.9333 88.2242C47.5208 87.2657 47.4122 86.2108 47.6213 85.1928C47.8304 84.1749 48.3477 83.2395 49.108 82.5051C49.8682 81.7706 50.8372 81.2701 51.8924 81.0667C52.9476 80.8632 54.0416 80.9661 55.0362 81.3622C56.0308 81.7584 56.8813 82.43 57.4801 83.2923C58.0789 84.1545 58.3992 85.1686 58.4004 86.2063C58.4004 87.5981 57.8278 88.933 56.8082 89.918C55.7886 90.903 54.4054 91.4576 52.9622 91.4601ZM52.9622 81.5824C52.0115 81.5818 51.0819 81.8532 50.2912 82.3624C49.5006 82.8715 48.8843 83.5954 48.5205 84.4425C48.1566 85.2896 48.0616 86.2217 48.2474 87.1209C48.4332 88.0201 48.8914 88.8459 49.5641 89.4938C50.2369 90.1417 51.0938 90.5826 52.0264 90.7605C52.9591 90.9385 53.9255 90.8456 54.8034 90.4936C55.6813 90.1416 56.4311 89.5464 56.958 88.7832C57.4849 88.02 57.7652 87.1232 57.7633 86.2063C57.7557 84.9826 57.2467 83.8113 56.3474 82.948C55.448 82.0847 54.2311 81.5994 52.9622 81.5978L52.9622 81.5824Z" fill="white"/>
<path id="Vector_8" d="M42.5114 95.2728C42.4656 95.2732 42.4203 95.2641 42.3785 95.246C42.3367 95.228 42.2995 95.2015 42.2692 95.1684C42.2139 95.1068 42.1862 95.0266 42.1922 94.9454C42.1982 94.8642 42.2373 94.7886 42.3011 94.7352L64.1274 76.2733C64.1913 76.2236 64.2726 76.1997 64.3544 76.2064C64.4362 76.2132 64.5121 76.2502 64.5664 76.3096C64.6206 76.369 64.6489 76.4463 64.6455 76.5254C64.6421 76.6045 64.6071 76.6793 64.5479 76.7341L42.7185 95.196C42.6612 95.2447 42.5877 95.272 42.5114 95.2728Z" fill="white"/>
</g>
<path id="Vector_9" d="M107.223 45.1719C107.223 45.1719 109.453 46.5544 110.409 48.5883C112.18 52.4104 121.967 68.4297 121.967 68.4297C121.967 68.4297 122.04 76.1106 121.967 78.8604C121.894 81.6102 120.925 88.1052 120.925 88.1052L109.663 84.8054L109.947 71.4437L101.109 58.085L107.223 45.1719Z" fill="#455A64"/>
<path id="Vector_10" d="M105.168 55.7195C105.57 54.5428 108.115 46.8926 107.332 45.3534C106.548 43.8141 100.45 39.7555 100.45 39.7555L95.6141 35.8567L78.2289 32.6399L66.1386 33.4356L65.0586 47.4948L81.2077 47.6023C85.3939 47.6023 86.2572 51.2892 86.2572 51.9037L86.2572 52.7516L86.8944 52.7516C87.4554 52.7515 88.0108 52.8592 88.5281 53.0684C89.0455 53.2775 89.5145 53.5839 89.9077 53.9697C90.301 54.3556 90.6106 54.813 90.8186 55.3155C91.0265 55.818 91.1286 56.3553 91.1189 56.8963L91.1189 57.4646C92.0073 57.8248 92.7218 58.4953 93.1196 59.3419L99.915 59.3419C100.992 59.3419 102.511 60.3189 103.015 61.6523C104.863 56.9393 105.401 55.0344 105.175 55.6857L105.168 55.7195Z" fill="#455A64"/>
<path id="Vector_11" d="M112.487 16.9983C104.258 20.6391 94.4488 19.9662 86.0987 16.5897C83.6073 15.585 81.0969 14.2424 79.727 12.0026C79.3733 11.422 79.0898 10.7368 79.2714 10.0855C79.453 9.43414 80.2463 8.92105 80.8643 9.23136L112.487 16.9983Z" fill="#455A64"/>
<g id="Group_2" opacity="0.3">
<path id="Vector_12" d="M112.487 16.9983C104.258 20.6391 94.4488 19.9662 86.0987 16.5897C83.6073 15.585 81.0969 14.2424 79.727 12.0026C79.3733 11.422 79.0898 10.7368 79.2714 10.0855C79.453 9.43414 80.2463 8.92105 80.8643 9.23136L112.487 16.9983Z" fill="black"/>
</g>
<path id="Vector_13" d="M102.51 28.6917C102.51 28.6917 110.096 32.8363 110.408 35.8933L102.867 42.1394L105.19 43.82L90.6113 49.7343C90.6113 49.7343 94.3674 47.5283 96.8174 41.1839C99.2673 34.8395 98.5218 34.4646 98.5218 34.4646L102.51 28.6917Z" fill="#455A64"/>
<g id="Group_3" opacity="0.3">
<path id="Vector_14" d="M102.51 28.6917C102.51 28.6917 109.93 32.6857 110.408 35.8933L102.867 42.1394L105.19 43.82L90.6113 49.7343C90.6113 49.7343 94.3674 47.5283 96.8174 41.1839C99.2673 34.8395 98.5218 34.4646 98.5218 34.4646L102.51 28.6917Z" fill="black"/>
</g>
<path id="Vector_15" d="M82.5205 19.9417C83.0047 20.4394 83.9286 20.2673 84.3906 19.7512C84.8525 19.235 84.9576 18.5222 84.9576 17.8248C84.9576 17.1274 84.8748 16.4484 85.0468 15.7847C85.3654 14.5834 89.7842 11.6248 91.0713 11.6186L93.9768 7.75357C95.455 6.73969 96.8855 5.66436 98.6472 5.68586C100.24 5.7043 101.655 6.65673 103.206 7.01313C104.337 7.27121 105.525 7.20976 106.666 7.4279C107.807 7.64604 108.985 8.25744 109.352 9.32048C109.568 9.93495 109.485 12.4328 109.709 13.0534C110.164 14.3407 111.792 14.2209 112.079 15.5512C112.311 16.6327 111.55 16.6634 111.442 17.7634C111.324 18.9585 112.012 20.0707 112.515 21.1675C113.019 22.2644 113.312 23.6562 112.515 24.5871C111.821 25.4074 110.524 25.5641 109.845 26.3967C109.352 27.0112 109.298 27.8254 109.068 28.5474C108.839 29.2694 108.249 30.0651 107.453 30.0067L98.2968 29.5828C95.0122 29.8378 91.6288 30.0836 88.4907 29.1219C85.3527 28.1602 82.4822 25.6993 82.1445 22.5378C82.6092 22.6579 83.104 22.6018 83.5272 22.3811C83.1813 22.0727 82.9114 21.6935 82.7372 21.2714C82.563 20.8493 82.4889 20.395 82.5205 19.9417Z" fill="#263238"/>
<path id="Vector_16" d="M88.6085 24.6086C88.5894 22.3289 88.583 20.0369 88.9685 17.7879C89.354 15.5389 90.16 13.3176 91.6127 11.5172C91.8326 11.2468 93.5242 9.48328 93.8428 9.61846C94.0786 9.71678 92.8202 11.4619 92.8871 11.6985C93.4223 13.9997 92.9763 16.433 92.0556 18.6144C91.1402 20.73 89.983 22.7405 88.6053 24.6086" fill="#263238"/>
<path id="Vector_17" d="M92.8228 45.4975C89.3503 44.3638 84.7754 35.8257 84.7754 35.8257L91.1025 16.2486C92.6954 10.7429 97.3627 7.05298 103.024 8.74893L103.537 8.93635C106.03 9.83936 108.08 11.6148 109.277 13.9093C110.474 16.2037 110.732 18.8488 109.998 21.318C108.583 26.0832 106.955 31.3278 105.955 33.798C103.887 38.9104 98.2515 37.792 98.2515 37.792C98.2515 37.792 97.8214 38.9964 97.2958 40.5265C96.1298 43.9614 94.8236 46.2226 93.4728 45.6757L92.8228 45.4975Z" fill="#FFBE9D"/>
<path id="Vector_18" d="M98.2525 37.7767C95.7944 36.879 93.6548 35.3201 92.0879 33.2849C92.0879 33.2849 92.3237 37.6354 97.8224 39.0978L98.2525 37.7767Z" fill="#EB996E"/>
<path id="Vector_19" d="M105.808 24.4087C105.735 24.5999 105.588 24.7563 105.398 24.8446C105.207 24.9329 104.989 24.9463 104.788 24.8819C104.689 24.8542 104.596 24.8075 104.515 24.7446C104.434 24.6816 104.368 24.6038 104.319 24.5156C104.27 24.4274 104.24 24.3307 104.23 24.2311C104.22 24.1315 104.231 24.031 104.263 23.9356C104.334 23.7434 104.481 23.5861 104.672 23.4975C104.863 23.409 105.082 23.3964 105.282 23.4625C105.382 23.4902 105.475 23.5369 105.555 23.5998C105.636 23.6627 105.703 23.7405 105.752 23.8287C105.801 23.9169 105.831 24.0137 105.841 24.1133C105.85 24.2129 105.839 24.3134 105.808 24.4087Z" fill="#263238"/>
<path id="Vector_20" d="M108.029 23.0384C107.899 23.0998 107.481 22.4792 106.663 22.1843C105.844 21.8893 105.089 22.0675 105.038 21.9385C105.012 21.8801 105.175 21.7418 105.509 21.6527C105.955 21.5451 106.425 21.573 106.854 21.7326C107.28 21.8848 107.646 22.1647 107.895 22.5314C108.074 22.8079 108.093 23.0107 108.029 23.0384Z" fill="#263238"/>
<path id="Vector_21" d="M98.0932 21.8248C98.0204 22.016 97.8732 22.1723 97.6829 22.2607C97.4926 22.349 97.2741 22.3624 97.0737 22.298C96.974 22.2702 96.881 22.2235 96.8002 22.1606C96.7194 22.0978 96.6525 22.02 96.6032 21.9319C96.554 21.8438 96.5234 21.7471 96.5134 21.6475C96.5034 21.5478 96.5141 21.4473 96.5449 21.3517C96.6177 21.1598 96.7653 21.0029 96.9564 20.9145C97.1474 20.8261 97.3667 20.8132 97.5675 20.8785C97.6672 20.9063 97.7601 20.953 97.8408 21.0159C97.9214 21.0788 97.9882 21.1566 98.0372 21.2448C98.0862 21.333 98.1164 21.4297 98.126 21.5293C98.1356 21.629 98.1244 21.7294 98.0932 21.8248Z" fill="#263238"/>
<path id="Vector_22" d="M99.8893 20.4579C99.7587 20.5101 99.3286 19.9356 98.5066 19.6468C97.6847 19.358 96.9487 19.4932 96.8914 19.3733C96.8659 19.3211 97.0188 19.2013 97.347 19.1306C97.7942 19.0475 98.2566 19.0869 98.6818 19.2443C99.1034 19.3897 99.4712 19.6515 99.7396 19.997C99.9243 20.2459 99.9498 20.4302 99.8893 20.4579Z" fill="#263238"/>
<path id="Vector_23" d="M100.459 27.5794C100.459 27.5334 101.017 27.6317 101.88 27.8283C102.097 27.8836 102.31 27.9174 102.399 27.7914C102.497 27.5892 102.529 27.3633 102.492 27.1432C102.492 26.584 102.492 26.0002 102.473 25.3858C102.473 22.8879 102.546 20.8663 102.648 20.8694C102.75 20.8725 102.842 22.891 102.849 25.3888C102.849 26.0033 102.849 26.5871 102.849 27.1462C102.886 27.437 102.815 27.7312 102.648 27.9758C102.591 28.0362 102.52 28.0831 102.441 28.1129C102.362 28.1427 102.277 28.1547 102.192 28.1478C102.064 28.1353 101.938 28.1074 101.816 28.0649C100.963 27.8068 100.446 27.6255 100.459 27.5794Z" fill="#263238"/>
<path id="Vector_24" d="M100.9 18.5314C100.734 18.7188 99.9441 18.3194 98.9533 18.0828C97.9625 17.8463 97.0768 17.8186 97.0227 17.579C97.0036 17.4653 97.217 17.3117 97.612 17.2195C98.1286 17.1163 98.6627 17.128 99.1739 17.2536C99.685 17.3793 100.16 17.6156 100.562 17.9446C100.862 18.2088 100.973 18.4423 100.9 18.5314Z" fill="#263238"/>
<path id="Vector_25" d="M108.461 21.8588C108.248 21.9848 107.757 21.5946 107.082 21.3396C106.406 21.0846 105.785 21.0078 105.725 20.7712C105.702 20.6606 105.862 20.5131 106.18 20.4333C106.596 20.3474 107.029 20.3882 107.42 20.55C107.813 20.7007 108.148 20.9673 108.375 21.312C108.554 21.5823 108.56 21.7943 108.461 21.8588Z" fill="#263238"/>
<path id="Vector_26" d="M90.0542 20.2088C89.9778 20.1382 86.8015 17.837 85.5494 21.3917C84.2974 24.9464 88.2542 25.4226 88.2988 25.3243C88.3434 25.226 90.0542 20.2088 90.0542 20.2088Z" fill="#FFBE9D"/>
<path id="Vector_27" d="M87.647 23.61C87.647 23.5916 87.5674 23.6315 87.4431 23.6438C87.268 23.6566 87.0946 23.6038 86.9589 23.4963C86.618 23.229 86.5001 22.5255 86.7104 21.8803C86.8078 21.5729 86.9755 21.2905 87.201 21.0538C87.2743 20.9575 87.3703 20.8794 87.4811 20.826C87.5919 20.7726 87.7143 20.7453 87.8382 20.7466C87.9209 20.7516 87.9989 20.7856 88.0576 20.8422C88.1162 20.8987 88.1515 20.974 88.1567 21.0538C88.1567 21.1705 88.1249 21.2351 88.1408 21.2474C88.1567 21.2596 88.2428 21.2136 88.2619 21.0569C88.2727 20.9624 88.2502 20.8672 88.1982 20.7865C88.124 20.6803 88.0096 20.6064 87.8796 20.5807C87.7186 20.5602 87.5548 20.5796 87.4037 20.6372C87.2527 20.6947 87.1193 20.7884 87.0162 20.9094C86.7503 21.1672 86.5535 21.4835 86.4428 21.8311C86.2166 22.5531 86.3599 23.3489 86.8378 23.6745C86.9269 23.7352 87.0291 23.7756 87.1367 23.7926C87.2443 23.8097 87.3545 23.8029 87.459 23.7728C87.612 23.693 87.6597 23.6192 87.647 23.61Z" fill="#EB996E"/>
<path id="Vector_28" d="M109.628 14.6539C110.336 14.5279 109.179 12.0885 107.93 10.967C106.041 9.28953 102.855 7.60895 100.603 7.51985C97.9077 7.40924 95.4514 7.93769 93.473 9.70738C91.4946 11.4771 90.1661 13.852 89.3919 16.3468C89.1562 17.1056 88.9682 17.9167 89.1689 18.6879C89.4142 19.6403 90.2362 20.4515 89.8061 21.5237C89.7232 21.7155 89.6805 21.9212 89.6805 22.129C89.6805 22.3367 89.7232 22.5424 89.8061 22.7342C90.2457 23.6559 91.2939 23.2565 91.8992 22.7342C93.1735 21.5974 93.8489 19.9691 94.467 18.3837C94.9066 17.2654 95.3526 16.1194 95.3941 14.9212C95.4164 14.2698 95.3176 13.6154 95.3781 12.9672C95.3868 12.6402 95.4694 12.3191 95.6202 12.0261C95.771 11.7332 95.9863 11.4756 96.251 11.2712C96.3763 11.1925 96.5098 11.1266 96.6493 11.0746C97.3132 10.8048 98.0395 10.7101 98.7539 10.8002C99.4683 10.8904 100.145 11.1622 100.714 11.5877C102.549 12.961 105.742 15.1516 106.901 14.7676C108.574 14.2115 109.112 13.6769 109.112 13.6769L109.628 14.6539Z" fill="#263238"/>
<path id="Vector_29" d="M100.972 7.10522C103.227 7.10522 105.528 7.86717 107.101 9.42179C107.939 10.2483 108.573 11.3451 108.519 12.4942C108.465 13.6432 107.563 14.7984 106.362 14.8752L106.273 14.8967C104.521 14.8967 103.568 14.3775 102.176 13.3606C101.004 12.5003 100.096 11.3389 98.9202 10.4818C97.6615 9.56154 96.1456 9.02644 94.5684 8.94557C96.5117 7.86103 98.71 7.11444 100.972 7.10522Z" fill="#263238"/>
<path id="Vector_30" d="M92.7598 8.49386C92.7821 8.53073 93.193 8.2788 93.929 8.05759C94.3566 7.92977 94.7981 7.85038 95.2447 7.82102C95.7856 7.77864 96.3296 7.85208 96.8376 8.03608C97.7494 8.42697 98.5288 9.05724 99.0869 9.85492C99.5169 10.4694 99.6603 10.918 99.7049 10.9026C99.7495 10.8872 99.7049 10.7797 99.6348 10.5769C99.5356 10.291 99.403 10.0168 99.2398 9.75968C98.702 8.89153 97.8952 8.20806 96.9332 7.80565C96.3907 7.6052 95.8066 7.5315 95.2288 7.59059C94.7642 7.63378 94.3077 7.73712 93.8716 7.89783C93.4601 8.01524 93.0804 8.21875 92.7598 8.49386Z" fill="#455A64"/>
<path id="Vector_31" d="M91.9763 9.64924C91.8903 10.0119 91.872 10.3864 91.9221 10.7553C92.0649 12.5616 92.853 14.2643 94.1522 15.5728C94.4043 15.8549 94.705 16.0929 95.0411 16.2763C95.108 16.218 93.6998 15.1457 92.8397 13.2501C91.9795 11.3544 92.0623 9.63695 91.9763 9.64924Z" fill="#455A64"/>
<path id="Vector_32" d="M105.33 8.073C105.605 8.30755 105.893 8.52705 106.193 8.73048C106.876 9.27145 107.468 9.91087 107.949 10.6261C108.423 11.3378 108.783 12.1147 109.016 12.9304C109.087 13.2779 109.178 13.6214 109.287 13.9597C109.323 13.6008 109.292 13.2386 109.194 12.8905C108.82 11.1693 107.799 9.64259 106.327 8.60452C106.032 8.36963 105.694 8.18943 105.33 8.073Z" fill="#455A64"/>
<path id="Vector_33" d="M89.6759 41.1377C89.6759 41.1377 92.9351 43.8352 96.43 42.7845L95.7928 44.2285C95.503 44.7969 95.1505 45.3336 94.7414 45.8292C93.5661 47.319 92.1708 48.6346 90.5998 49.7342C89.3892 46.3054 88.8763 43.6478 89.6759 41.1377Z" fill="white"/>
<path id="Vector_34" d="M110.091 12.4389C110.091 12.4389 109.741 9.69831 109.422 7.24963C109.218 5.67965 107.609 1.34146 105.599 0.773076C103.589 0.204687 102.853 1.04652 101.977 0.797655C101.101 0.548793 99.9889 -0.289964 98.3673 0.103299C96.7457 0.496562 94.6463 1.35068 93.6714 2.98211C92.6965 4.61354 90.957 7.40939 90.5843 9.07769C90.4331 9.88735 90.1873 10.6779 89.8516 11.4342C89.8516 11.4342 97.5072 8.08224 110.091 12.4389Z" fill="#455A64"/>
<path id="Vector_35" d="M110.12 13.8277L109.776 9.9903C109.776 9.9903 104.041 8.07621 100.467 7.76898C96.892 7.46174 90.7975 8.34965 90.7975 8.34965L89.9883 11.7723L110.12 13.8277Z" fill="#263238"/>
<path id="Vector_36" d="M103.789 1.86353C103.818 1.86353 103.926 2.25372 104.232 2.83747C104.643 3.5951 105.167 4.29067 105.787 4.9021C106.413 5.51059 107.079 6.08012 107.781 6.60726C108.081 6.81673 108.365 7.04672 108.632 7.29547C108.538 7.25923 108.451 7.2095 108.374 7.148C108.214 7.04661 107.988 6.89299 107.711 6.69636C106.983 6.19108 106.3 5.62789 105.669 5.0127C105.034 4.39266 104.513 3.67388 104.127 2.88662C104.013 2.64825 103.918 2.40173 103.843 2.14926C103.811 2.05715 103.792 1.96084 103.789 1.86353Z" fill="#263238"/>
<path id="Vector_37" d="M95.8691 6.12205C95.8691 6.0944 96.2483 6.01145 96.8249 5.7718C97.1647 5.62916 97.4927 5.46174 97.8061 5.27101C98.1893 5.04 98.5497 4.7757 98.8829 4.48141C99.2086 4.17729 99.506 3.84625 99.7718 3.4921C99.9865 3.20025 100.176 2.89199 100.339 2.57039C100.619 2.02351 100.724 1.64868 100.753 1.64868C100.752 1.73897 100.735 1.82842 100.702 1.91291C100.637 2.15065 100.552 2.38287 100.447 2.60726C100.294 2.94008 100.109 3.25885 99.896 3.5597C99.6323 3.92753 99.3314 4.26921 98.9976 4.57972C98.6584 4.88763 98.2893 5.16336 97.8953 5.40312C97.5705 5.59098 97.2294 5.75134 96.8759 5.88241C96.639 5.97125 96.395 6.04113 96.1463 6.09133C96.0563 6.1161 95.9627 6.12648 95.8691 6.12205Z" fill="#263238"/>
<path id="Vector_38" d="M119.352 15.923C119.504 15.9703 119.636 16.0621 119.731 16.1855C119.826 16.309 119.879 16.458 119.882 16.6117C119.884 16.7653 119.837 16.916 119.747 17.0426C119.657 17.1692 119.527 17.2655 119.378 17.3179C113.665 19.2907 107.501 19.7157 101.556 18.5468C90.3291 16.3316 80.4434 10.1347 80.1248 9.94418C79.3124 9.42495 79.9974 9.21295 80.2713 9.14229C80.5453 9.07162 96.1018 10.9857 101.712 11.4742C106.038 11.8552 115.312 14.6572 119.352 15.923Z" fill="#455A64"/>
<path id="Vector_39" d="M78.2285 32.6398C78.2285 32.6398 80.3535 25.982 80.9301 24.5779C81.0761 24.1868 81.3323 23.8426 81.67 23.5843C82.0077 23.3259 82.4135 23.1636 82.8416 23.1155L83.5457 24.5073C85.2947 28.148 92.0455 32.6306 92.0455 32.6306C92.0455 32.6306 90.9878 33.4018 89.8664 39.7862C88.745 46.1705 90.6024 49.7345 90.6024 49.7345" fill="#455A64"/>
<path id="Vector_40" d="M90.6121 49.7344C90.6121 49.7344 90.593 49.7098 90.5675 49.6576C90.5261 49.5807 90.4888 49.5017 90.456 49.421C90.3237 49.1118 90.2088 48.7959 90.1119 48.4747C89.7603 47.2799 89.5518 46.0501 89.4907 44.8094C89.4007 42.9425 89.5386 41.0719 89.9017 39.2361C90.0896 38.1915 90.3158 37.0855 90.6121 35.961C90.7682 35.3957 90.9307 34.8211 91.1346 34.2466C91.2397 33.9578 91.3544 33.6721 91.485 33.3894C91.6094 33.0883 91.786 32.8098 92.0075 32.566L92.0075 32.6951C91.1123 32.0806 90.2075 31.4231 89.3059 30.7195C88.5827 30.145 87.8755 29.5674 87.216 28.9683C86.8783 28.6764 86.5788 28.3538 86.2603 28.0681C85.9417 27.7823 85.6422 27.4536 85.365 27.1464C84.8013 26.5397 84.2949 25.8858 83.8517 25.1923C83.4503 24.498 83.1317 23.8098 82.7972 23.1553L82.8641 23.1953C82.4625 23.2353 82.0806 23.3833 81.7618 23.6223C81.4558 23.8512 81.2138 24.1501 81.0578 24.4918C80.7647 25.1739 80.5448 25.856 80.3218 26.4858L79.2132 29.7763C78.9105 30.6826 78.6684 31.3985 78.5027 31.8993C78.4199 32.1359 78.3593 32.3233 78.3116 32.4585L78.2606 32.6029C78.2606 32.6336 78.2415 32.649 78.2383 32.649L78.2383 32.5998L78.2797 32.4523C78.3211 32.3141 78.3785 32.1267 78.4485 31.887L79.1208 29.7517C79.4139 28.83 79.7739 27.7209 80.1976 26.4489C80.4206 25.816 80.6277 25.1401 80.9271 24.4396C81.0906 24.0665 81.3536 23.7418 81.6893 23.4984C82.0251 23.2551 82.4216 23.1017 82.8386 23.054L82.8864 23.054L82.9087 23.097C83.2433 23.7483 83.5746 24.4457 83.9664 25.1186C84.4055 25.803 84.9077 26.4477 85.467 27.045C85.7441 27.3522 86.0595 27.6594 86.359 27.9667C86.6585 28.2739 86.9962 28.5812 87.3148 28.8607C87.9742 29.4568 88.6751 30.0313 89.3983 30.6028C90.2967 31.3063 91.2015 31.973 92.0872 32.5752L92.1636 32.6275L92.0904 32.7012C91.892 32.9292 91.7328 33.1865 91.6188 33.4631C91.4882 33.7397 91.3767 34.0223 91.2716 34.305C91.0645 34.8734 90.9052 35.4448 90.7491 36.0071C90.4496 37.1316 90.2234 38.2284 90.0291 39.2699C89.6593 41.0957 89.5097 42.9566 89.5831 44.8155C89.6343 46.0497 89.8256 47.2746 90.1534 48.4686C90.2426 48.7911 90.3489 49.109 90.4719 49.421L90.5675 49.6607C90.5845 49.684 90.5995 49.7086 90.6121 49.7344Z" fill="#263238"/>
<path id="Vector_41" d="M66.1384 33.4353C66.1384 33.4353 60.6906 34.7626 58.3681 42.677C57.269 46.413 57.0938 47.4791 57.0938 47.4791L65.0584 47.5037L66.1384 33.4353Z" fill="#455A64"/>
<path id="Vector_42" d="M106.707 51.3567C106.677 51.4981 106.632 51.6361 106.573 51.7684L106.152 52.8652C105.796 53.7869 105.308 55.0712 104.798 56.4968C104.289 57.9223 103.843 59.2189 103.524 60.159L103.17 61.2712C103.131 61.4093 103.08 61.544 103.018 61.6737C103.033 61.5307 103.064 61.3896 103.11 61.2528C103.18 60.9855 103.288 60.6014 103.429 60.1252C103.712 59.1759 104.133 57.8701 104.642 56.4384C105.152 55.0067 105.659 53.7347 106.044 52.8191C106.235 52.3614 106.395 51.9927 106.512 51.7377C106.565 51.6054 106.63 51.4779 106.707 51.3567Z" fill="#263238"/>
<path id="Vector_43" d="M89.8259 49.7346C89.8259 49.7346 89.7622 49.6977 89.6507 49.6117L89.1537 49.2245L88.8065 48.9419L88.4146 48.5886C88.1311 48.3336 87.8061 48.0448 87.4588 47.7037C85.6929 45.943 84.0936 44.0336 82.6801 41.9983C81.9082 40.8841 81.1978 39.7314 80.5519 38.545C80.0051 37.5791 79.5179 36.583 79.0928 35.5617C78.8095 34.871 78.5743 34.1627 78.3887 33.4418C78.3409 33.1991 78.3027 32.9994 78.2709 32.8488C78.2548 32.7802 78.2452 32.7102 78.2422 32.6399C78.2716 32.7048 78.293 32.7729 78.3059 32.8427L78.4525 33.4295C78.6609 34.139 78.9108 34.8365 79.2011 35.5187C79.6404 36.529 80.136 37.5156 80.6857 38.4743C81.2974 39.565 82.0334 40.7264 82.8649 41.9092C84.2629 43.9365 85.8337 45.848 87.5608 47.6238C87.8794 47.971 88.198 48.2629 88.4815 48.524L88.8638 48.8866L89.1983 49.1785L89.6603 49.584C89.7197 49.6297 89.7751 49.68 89.8259 49.7346Z" fill="#263238"/>
<path id="Vector_44" d="M96.2473 59.3632C96.1459 59.2516 96.0552 59.1313 95.9765 59.0037C95.8109 58.7641 95.5783 58.4169 95.2948 57.9837C94.7277 57.1204 93.9631 55.916 93.1507 54.5672C92.3383 53.2185 91.6279 51.9834 91.1277 51.0801C90.876 50.6315 90.6785 50.2629 90.5447 50.0078C90.4688 49.8783 90.4049 49.7426 90.3535 49.6023C90.4476 49.72 90.5307 49.8454 90.602 49.9771C90.7677 50.2506 90.9779 50.5916 91.2392 51.0279C91.784 51.9496 92.5135 53.1478 93.3036 54.4874L95.3967 57.9407L96.0339 58.9853C96.1176 59.1043 96.1892 59.2308 96.2473 59.3632Z" fill="#263238"/>
<path id="Vector_45" d="M96.1618 52.4104C96.0019 52.1575 95.7527 51.9688 95.46 51.8791C95.1673 51.7893 94.8509 51.8045 94.5689 51.9219L94.3013 52.0909C94.1268 52.2369 93.9989 52.4277 93.9324 52.6411C93.866 52.8546 93.8637 53.0818 93.9259 53.2964C93.9881 53.511 94.1122 53.7041 94.2838 53.8534C94.4554 54.0026 94.6674 54.1018 94.8951 54.1394C95.1228 54.177 95.357 54.1515 95.5703 54.0658C95.7836 53.9801 95.9672 53.8378 96.0999 53.6554C96.2326 53.473 96.3089 53.258 96.3198 53.0354C96.3308 52.8128 96.276 52.5918 96.1618 52.3981L96.1618 52.4104Z" fill="#263238"/>
<path id="Vector_46" d="M94.7354 53.2463C94.8569 53.2463 94.9553 53.1513 94.9553 53.0343C94.9553 52.9172 94.8569 52.8223 94.7354 52.8223C94.614 52.8223 94.5156 52.9172 94.5156 53.0343C94.5156 53.1513 94.614 53.2463 94.7354 53.2463Z" fill="#455A64"/>
<path id="Vector_47" d="M95.6174 53.025C95.6174 53.0669 95.6045 53.1079 95.5803 53.1428C95.5562 53.1776 95.5219 53.2048 95.4817 53.2208C95.4415 53.2369 95.3973 53.2411 95.3547 53.2329C95.312 53.2247 95.2729 53.2045 95.2421 53.1749C95.2114 53.1452 95.1904 53.1075 95.182 53.0663C95.1735 53.0252 95.1778 52.9826 95.1945 52.9439C95.2111 52.9051 95.2393 52.872 95.2754 52.8487C95.3116 52.8254 95.3541 52.813 95.3975 52.813C95.4558 52.813 95.5118 52.8353 95.553 52.8751C95.5942 52.9148 95.6174 52.9688 95.6174 53.025Z" fill="#455A64"/>
<path id="Vector_48" d="M98.7451 57.0188C98.5852 56.7659 98.336 56.5772 98.0433 56.4875C97.7506 56.3977 97.4342 56.4129 97.1522 56.5303L96.8814 56.6993C96.7069 56.8453 96.5789 57.0361 96.5125 57.2495C96.446 57.463 96.4438 57.6902 96.506 57.9048C96.5682 58.1194 96.6923 58.3125 96.8639 58.4618C97.0355 58.611 97.2474 58.7102 97.4752 58.7478C97.7029 58.7854 97.9371 58.7599 98.1503 58.6742C98.3636 58.5885 98.5473 58.4462 98.68 58.2638C98.8127 58.0814 98.889 57.8664 98.8999 57.6438C98.9109 57.4212 98.8561 57.2002 98.7419 57.0065L98.7451 57.0188Z" fill="#263238"/>
<path id="Vector_49" d="M97.3175 57.8483C97.4389 57.8483 97.5373 57.7534 97.5373 57.6363C97.5373 57.5192 97.4389 57.4243 97.3175 57.4243C97.1961 57.4243 97.0977 57.5192 97.0977 57.6363C97.0977 57.7534 97.1961 57.8483 97.3175 57.8483Z" fill="#455A64"/>
<path id="Vector_50" d="M97.9815 57.8483C98.1029 57.8483 98.2014 57.7534 98.2014 57.6363C98.2014 57.5192 98.1029 57.4243 97.9815 57.4243C97.8601 57.4243 97.7617 57.5192 97.7617 57.6363C97.7617 57.7534 97.8601 57.8483 97.9815 57.8483Z" fill="#455A64"/>
<path id="Vector_51" d="M71.5957 42.2316C71.5296 42.1355 71.4751 42.0324 71.4332 41.9244C71.3185 41.7001 71.1847 41.4266 71.0222 41.1071C70.675 40.4189 70.1748 39.4788 69.5599 38.4741C68.9451 37.4694 68.3302 36.5907 67.8714 35.967L67.3266 35.2266C67.2541 35.14 67.1911 35.0463 67.1387 34.947C67.229 35.0175 67.3093 35.0991 67.3776 35.1897C67.5242 35.3526 67.7249 35.5953 67.967 35.8995C69.2237 37.4959 70.2852 39.2269 71.1305 41.058C71.2898 41.4113 71.4141 41.697 71.4905 41.8998C71.5434 42.0044 71.5789 42.1164 71.5957 42.2316Z" fill="#263238"/>
<path id="Vector_52" d="M71.2833 47.6361C71.2626 46.971 71.2956 46.3054 71.3821 45.6452C71.4171 44.9811 71.5055 44.3206 71.6465 43.6697C71.6692 44.3348 71.6362 45.0006 71.5478 45.6606C71.5165 46.325 71.4281 46.9858 71.2833 47.6361Z" fill="#263238"/>
<path id="Vector_53" d="M80.2527 37.8781C80.2527 37.9212 77.8537 38.0441 74.8877 38.1516C71.9217 38.2591 69.5195 38.3083 69.5195 38.2622C69.5195 38.2161 71.9185 38.0963 74.8813 37.9918C77.8442 37.8874 80.2495 37.8351 80.2527 37.8781Z" fill="#263238"/>
<path id="Vector_54" d="M79.0416 35.3249C78.8965 35.3396 78.7502 35.3396 78.6051 35.3249C78.3279 35.3249 77.9201 35.2941 77.4231 35.2788C74.8176 35.202 72.2127 35.4478 69.672 36.01C69.1845 36.1175 68.7895 36.2097 68.5187 36.2773C68.3793 36.3182 68.2365 36.347 68.0918 36.3633C68.2215 36.2995 68.3583 36.2501 68.4996 36.2158C68.7672 36.1298 69.1559 36.0223 69.6433 35.9086C70.9114 35.5966 72.2022 35.3778 73.5046 35.2542C74.8079 35.1337 76.1188 35.107 77.4263 35.1743C77.9265 35.205 78.3311 35.2388 78.6115 35.2726C78.7562 35.277 78.9002 35.2945 79.0416 35.3249Z" fill="#263238"/>
<path id="Vector_55" d="M106.357 49.0462C106.146 48.8895 105.949 48.7158 105.768 48.527C105.3 48.1046 104.806 47.7096 104.289 47.3441C103.772 46.9807 103.231 46.6482 102.671 46.3486C102.43 46.2371 102.198 46.1087 101.977 45.9646C102.238 46.0269 102.49 46.1219 102.725 46.2473C103.308 46.5214 103.865 46.8453 104.388 47.2151C104.914 47.5806 105.403 47.992 105.851 48.444C106.047 48.6216 106.217 48.8242 106.357 49.0462Z" fill="#263238"/>
<path id="Vector_56" d="M107.443 48.1461C107.123 47.4564 106.722 46.804 106.249 46.2012C105.731 45.6342 105.15 45.1242 104.516 44.6804C104.738 44.7498 104.946 44.8536 105.134 44.9877C106.073 45.606 106.807 46.4736 107.246 47.4855C107.351 47.693 107.418 47.9165 107.443 48.1461Z" fill="#263238"/>
<path id="Vector_57" d="M77.6645 88.8027C77.6485 92.8797 77.6645 100.017 77.6963 104.109C77.7005 104.939 78.0451 105.732 78.6546 106.317C79.2642 106.902 80.0891 107.231 80.9491 107.231L102.578 107.231C103.44 107.231 104.268 106.9 104.878 106.312C105.488 105.724 105.831 104.926 105.831 104.094L105.831 88.5508C105.831 88.1352 105.745 87.7237 105.579 87.3403C105.412 86.9569 105.169 86.6091 104.862 86.3173C104.555 86.0254 104.191 85.7953 103.792 85.6402C103.392 85.4851 102.964 85.4082 102.533 85.4139L80.8694 85.6781C80.0172 85.6902 79.204 86.0243 78.6047 86.6086C78.0053 87.1929 77.6677 87.9808 77.6645 88.8027Z" fill="#455A64"/>
<path id="Vector_58" d="M93.3232 97.1023C94.7648 96.5301 95.4525 94.9393 94.8592 93.549C94.2659 92.1588 92.6163 91.4956 91.1747 92.0678C89.7331 92.6399 89.0454 94.2308 89.6387 95.621C90.232 97.0113 91.8816 97.6745 93.3232 97.1023Z" fill="#263238"/>
<path id="Vector_59" d="M90.7777 96.2041L93.7309 96.2041L93.7309 101.283C93.7309 101.605 93.5984 101.913 93.3624 102.141C93.1264 102.368 92.8063 102.496 92.4725 102.496L92.0201 102.496C91.6864 102.496 91.3663 102.368 91.1303 102.141C90.8943 101.913 90.7617 101.605 90.7617 101.283L90.7617 96.2041L90.7777 96.2041Z" fill="#263238"/>
<path id="Vector_60" d="M85.101 85.6412L82.1445 85.6412L82.1445 77.653C82.1445 75.1938 83.1575 72.8354 84.9607 71.0964C86.7638 69.3575 89.2094 68.3806 91.7594 68.3806C94.3095 68.3806 96.755 69.3575 98.5582 71.0964C100.361 72.8354 101.374 75.1938 101.374 77.653L101.374 81.4443L98.3924 81.4443L98.3924 77.6438C98.3924 75.944 97.6922 74.3139 96.4459 73.112C95.1996 71.9101 93.5092 71.2348 91.7467 71.2348C89.9841 71.2348 88.2938 71.9101 87.0475 73.112C85.8012 74.3139 85.101 75.944 85.101 77.6438L85.101 85.6412Z" fill="#E0E0E0"/>
<path id="Vector_61" d="M85.1009 85.6412C85.1009 85.6412 85.1009 85.5828 85.1009 85.4784L85.1009 85.0083C85.1009 84.5905 85.1009 83.9852 85.1009 83.2018C85.1009 82.4183 85.1009 81.4567 85.0849 80.3383C85.0849 79.7791 85.0849 79.18 85.0849 78.544C85.0524 77.8665 85.0865 77.1876 85.1869 76.5163C85.4753 74.9492 86.352 73.5394 87.6495 72.556C88.3721 72.0063 89.2053 71.6077 90.0963 71.3854C91.0464 71.1472 92.0391 71.1115 93.005 71.281C94.0289 71.4595 94.9942 71.8702 95.8212 72.4792C96.698 73.1066 97.3979 73.9357 97.857 74.891C97.9796 75.1341 98.086 75.3845 98.1756 75.6407C98.2602 75.9001 98.3304 76.1636 98.3859 76.4303C98.4847 76.9727 98.5263 77.5234 98.5101 78.074C98.5101 79.1739 98.5101 80.2943 98.5101 81.4351L98.4273 81.3553L101.396 81.3553L101.314 81.4351L101.314 79.2261C101.314 78.4765 101.336 77.7084 101.275 76.9495C101.193 75.936 100.942 74.942 100.53 74.0062C99.924 72.6711 99.001 71.4923 97.8355 70.5647C96.67 69.6371 95.2947 68.9868 93.8205 68.6664C93.5848 68.608 93.3458 68.5896 93.1101 68.5496L92.7596 68.4974L92.4028 68.479C92.1671 68.479 91.9313 68.4452 91.6988 68.4513L90.9979 68.4851C90.0883 68.5547 89.1942 68.7524 88.3441 69.0719C88.2421 69.1119 88.1338 69.1426 88.0255 69.1856L87.726 69.3239C87.5285 69.4222 87.3246 69.5021 87.1366 69.6096C86.3926 70.018 85.7044 70.5144 85.0881 71.0874C84.9384 71.2257 84.8078 71.3793 84.6644 71.5237C84.5215 71.6648 84.3895 71.8157 84.2694 71.9753C83.3138 73.1389 82.6675 74.51 82.3865 75.9694C82.2669 76.6318 82.2104 77.3033 82.2177 77.9757L82.2177 79.8467C82.2177 82.234 82.2017 84.1911 82.1986 85.6289L82.1667 85.5982L84.3681 85.6166L84.9384 85.6166L85.1359 85.6166L84.9479 85.6166L84.3872 85.6166L82.1571 85.6351L82.1253 85.6351L82.1253 85.6044C82.1253 84.1665 82.1253 82.2094 82.1062 79.8222C82.1062 79.223 82.1062 78.5932 82.1062 77.9511C82.0986 77.2719 82.1529 76.5933 82.2686 75.9233C82.5471 74.4395 83.1979 73.044 84.1642 71.8586C84.2874 71.6966 84.4215 71.5427 84.5656 71.3977C84.709 71.2502 84.8396 71.0905 84.9957 70.9522C85.303 70.6655 85.6286 70.3977 85.9706 70.1503C86.3192 69.8919 86.6865 69.6578 87.0697 69.4498C87.2577 69.3392 87.4679 69.2593 87.6655 69.161L87.9841 69.0166C88.086 68.9736 88.1943 68.9398 88.3026 68.8999C89.1662 68.5692 90.0753 68.3622 91.0011 68.2854L91.7083 68.2485C91.9473 68.2485 92.1862 68.267 92.4283 68.2762L92.7883 68.2946L93.1451 68.3469C93.3841 68.3868 93.6294 68.4052 93.8651 68.4636C95.8486 68.8851 97.6449 69.8963 99.0007 71.3547C99.703 72.1076 100.275 72.9644 100.696 73.8925C101.113 74.8443 101.369 75.8547 101.454 76.885C101.514 77.6623 101.482 78.4211 101.492 79.1739L101.492 81.4628L98.3572 81.4628L98.3572 81.386C98.3572 80.2451 98.3572 79.1247 98.3572 78.0248C98.3728 77.4837 98.3333 76.9424 98.2393 76.4087C98.1852 76.1476 98.1151 75.8895 98.0354 75.6376C97.6227 74.4015 96.821 73.3201 95.7416 72.5437C94.9349 71.9467 93.9925 71.5434 92.9922 71.367C92.047 71.2001 91.0756 71.2315 90.1441 71.4592C88.9244 71.7647 87.8208 72.4003 86.9633 73.2909C86.1059 74.1815 85.5304 75.2899 85.3048 76.4856C85.2024 77.1525 85.165 77.8273 85.1933 78.501C85.1933 79.1432 85.1933 79.7453 85.1933 80.3107C85.1933 81.4321 85.1933 82.3968 85.1933 83.1833C85.1933 83.9699 85.1933 84.5628 85.1773 84.9776L85.1773 85.4384C85.104 85.5921 85.1009 85.6412 85.1009 85.6412Z" fill="#263238"/>
<path id="Vector_62" d="M109.103 78.9341C108.416 79.4139 107.698 79.8511 106.953 80.2429C106.237 80.6802 105.492 81.0712 104.723 81.4135C106.127 80.4961 107.591 79.6679 109.106 78.9341L109.103 78.9341Z" fill="#263238"/>
<path id="Vector_63" d="M105.757 77.2966C105.581 77.8798 105.352 78.4473 105.075 78.9926C104.845 79.5581 104.566 80.1039 104.24 80.624C104.415 80.0402 104.643 79.4727 104.922 78.9281C105.152 78.3625 105.431 77.8167 105.757 77.2966Z" fill="#263238"/>
<path id="Vector_64" d="M107.829 83.7487C107.367 83.6052 106.922 83.4125 106.504 83.1741C106.06 82.9819 105.64 82.7417 105.252 82.4583C106.159 82.7918 107.024 83.2248 107.829 83.7487Z" fill="#263238"/>
<path id="Vector_65" d="M114.704 81.7637C115.618 80.9342 117.329 81.8559 118.116 82.7991L117.836 82.4243C118.979 83.8683 119.378 85.2939 118.89 87.0482C118.495 88.4707 118.011 90.0099 117.641 90.5937L115.956 93.2421C115.778 93.5315 115.531 93.7765 115.237 93.9574C114.943 94.1383 114.608 94.25 114.261 94.2836C114.119 94.3069 113.973 94.283 113.847 94.216L112.675 93.9641C112.675 93.9641 111.352 94.683 110.483 95.0302C109.613 95.3774 107.74 95.1347 107.74 95.1347L103.808 98.545C103.631 98.7056 103.408 98.8119 103.168 98.8502C102.928 98.8885 102.682 98.8571 102.461 98.76C102.394 98.7385 102.333 98.7041 102.281 98.6592C102.229 98.6142 102.186 98.5595 102.157 98.4984C102.127 98.4372 102.11 98.3709 102.108 98.3034C102.105 98.2359 102.117 98.1687 102.142 98.1056C102.41 97.2577 105.465 94.1116 105.465 94.1116L106.029 93.3158L108.686 89.629C108.668 89.5479 108.628 89.4729 108.571 89.4114C108.513 89.35 108.439 89.3043 108.358 89.279C108.276 89.2538 108.189 89.2498 108.105 89.2676C108.021 89.2853 107.943 89.3241 107.88 89.3801L107.042 90.1205L105.905 92.136C105.905 92.136 104.742 92.901 103.993 92.3111L105.207 88.8793L107.845 85.5642C107.845 85.5642 112.576 83.6716 113.681 82.6731C114.003 82.3935 114.357 82.074 114.704 81.7637Z" fill="#FFBE9D"/>
<path id="Vector_66" d="M110.868 92.551C110.909 92.5787 110.351 93.3191 109.469 94.0442C108.587 94.7693 107.745 95.1902 107.723 95.1472C107.701 95.1042 108.478 94.6187 109.342 93.9028C110.205 93.187 110.817 92.5141 110.868 92.551Z" fill="#EB996E"/>
<path id="Vector_67" d="M113.613 93.1992C113.661 93.2422 113.295 93.6078 112.753 93.9366C112.448 94.166 112.103 94.3408 111.734 94.4527C111.705 94.4067 112.119 94.1148 112.645 93.7799C112.952 93.5622 113.275 93.368 113.613 93.1992Z" fill="#EB996E"/>
<path id="Vector_68" d="M104.785 94.8368C105.004 94.516 105.242 94.2082 105.499 93.9151C105.948 93.3528 106.553 92.5663 107.194 91.6753C107.512 91.2329 107.812 90.8028 108.079 90.4126C108.324 90.0796 108.514 89.7115 108.64 89.3219C108.742 88.9576 108.728 88.572 108.599 88.2158C108.599 88.2158 108.685 88.2988 108.752 88.4954C108.837 88.7742 108.845 89.07 108.774 89.3526C108.663 89.7641 108.478 90.1539 108.229 90.5047C107.968 90.9041 107.675 91.3373 107.353 91.7828C106.716 92.6769 106.079 93.4542 105.607 93.998C105.364 94.3041 105.088 94.5852 104.785 94.8368Z" fill="#EB996E"/>
<path id="Vector_69" d="M108.441 88.9714C108.457 88.9991 108.189 89.1343 107.826 89.4292C107.355 89.8133 106.976 90.2926 106.718 90.8333C106.598 91.1537 106.446 91.4623 106.265 91.755C106.096 91.9935 105.858 92.1793 105.58 92.2896C105.343 92.4083 105.08 92.4705 104.813 92.4709C104.813 92.4371 105.102 92.3787 105.52 92.1636C105.763 92.0488 105.968 91.8725 106.116 91.6536C106.281 91.3656 106.422 91.0657 106.539 90.7565C106.808 90.1889 107.221 89.6963 107.74 89.3248C107.944 89.1582 108.183 89.0375 108.441 88.9714Z" fill="#EB996E"/>
<path id="Vector_70" d="M120.651 87.801C120.625 87.7547 120.605 87.705 120.594 87.6535C120.555 87.5398 120.511 87.3985 120.457 87.2265C120.339 86.8547 120.179 86.3047 119.931 85.6657C119.653 84.9012 119.267 84.1774 118.784 83.515C118.201 82.7048 117.38 82.081 116.426 81.7238C115.453 81.4149 114.399 81.4388 113.441 81.7914C112.657 82.075 111.931 82.4912 111.297 83.0204C110.867 83.3746 110.459 83.7542 110.077 84.1572L109.758 84.4859C109.685 84.5596 109.644 84.5996 109.641 84.5934C109.667 84.5476 109.698 84.5044 109.733 84.4644C109.797 84.3845 109.895 84.2647 110.023 84.1172C110.39 83.695 110.79 83.2996 111.218 82.9344C111.854 82.3845 112.589 81.9523 113.387 81.6593C114.376 81.2859 115.469 81.2566 116.477 81.5764C117.46 81.9423 118.306 82.5845 118.905 83.4198C119.39 84.0962 119.772 84.8359 120.039 85.6165C120.272 86.274 120.415 86.8209 120.514 87.1988C120.559 87.3709 120.594 87.506 120.622 87.6351C120.641 87.6885 120.651 87.7446 120.651 87.801Z" fill="#263238"/>
<path id="Vector_71" d="M117.736 67.8738C117.736 67.9045 117.232 67.8738 116.429 67.9568C115.384 68.0765 114.366 68.3565 113.412 68.7863C112.455 69.2102 111.581 69.7902 110.829 70.5007C110.255 71.0506 109.988 71.4623 109.959 71.4439C110.005 71.3346 110.065 71.2313 110.137 71.1367C110.212 71.024 110.294 70.9162 110.383 70.8141C110.495 70.6716 110.616 70.5362 110.746 70.4085C111.487 69.6623 112.368 69.0587 113.342 68.6296C114.31 68.1914 115.351 67.922 116.417 67.8339C116.735 67.8106 117.054 67.8106 117.372 67.8339C117.495 67.8333 117.617 67.8467 117.736 67.8738Z" fill="#263238"/>
<path id="Vector_72" d="M106.706 31.4167C107.159 31.7045 107.586 32.0293 107.981 32.3876C108.447 32.8014 108.873 33.2549 109.255 33.7425C109.772 34.3867 110.177 35.108 110.453 35.8778L110.453 35.9147L110.421 35.9393L102.893 42.2008L102.893 42.0748L103.992 42.8705L105.215 43.7585L105.33 43.8414L105.199 43.8936L94.8294 48.0721L91.7264 49.301L90.9076 49.6451L90.6878 49.725C90.6368 49.7434 90.6113 49.7496 90.6113 49.7465L90.6814 49.7096L90.8949 49.6144L91.7264 49.2641L94.8103 47.986L105.158 43.7585L105.139 43.8967L103.912 43.0088L102.816 42.2161L102.733 42.1547L102.813 42.0902L110.367 35.8625L110.348 35.9208C110.083 35.162 109.691 34.45 109.188 33.8132C108.818 33.321 108.403 32.8614 107.949 32.4398C107.764 32.2617 107.586 32.1172 107.436 31.9913C107.286 31.8653 107.152 31.7609 107.044 31.684L106.799 31.4966C106.764 31.4739 106.733 31.447 106.706 31.4167Z" fill="#263238"/>
<path id="Vector_73" d="M100.019 30.6888C99.9078 30.7748 99.4299 30.3631 98.8119 29.9176C98.1938 29.4721 97.6586 29.1311 97.7128 28.9959C97.7669 28.8607 98.4423 29.0328 99.1114 29.5243C99.7804 30.0159 100.124 30.612 100.019 30.6888Z" fill="#263238"/>
<g id="Group_4" opacity="0.3">
<path id="Vector_74" d="M117.608 66.6999C116.691 66.1131 115.451 66.3681 114.454 66.8166C112.407 67.7679 110.803 69.4241 109.959 71.459L110.278 70.9551C111.925 69.0226 114.518 68.0241 117.114 67.9442C117.31 67.9383 117.498 67.8726 117.652 67.7566C117.806 67.6406 117.918 67.4803 117.971 67.299C117.977 67.1761 117.945 67.0543 117.881 66.948C117.817 66.8418 117.722 66.7557 117.608 66.6999Z" fill="black"/>
</g>
</g>
</g>
</svg>
