<svg width="634" height="508" viewBox="0 0 634 508" fill="none" xmlns="http://www.w3.org/2000/svg">
<path d="M589.41 453.945H0V454.24H589.41V453.945Z" fill="#EBEBEB"/>
<path d="M279.38 401.37H51.7737C49.9886 401.37 48.2765 400.661 47.0142 399.399C45.7519 398.136 45.0427 396.424 45.0427 394.639V74.6721C45.0582 72.8971 45.7743 71.2002 47.0349 69.9506C48.2955 68.701 49.9987 67.9999 51.7737 68H279.38C281.165 68 282.877 68.7091 284.14 69.9715C285.402 71.2338 286.111 72.9459 286.111 74.731V394.639C286.111 396.424 285.402 398.136 284.14 399.399C282.877 400.661 281.165 401.37 279.38 401.37ZM51.7737 68.2358C50.0677 68.2389 48.4324 68.918 47.226 70.1244C46.0196 71.3307 45.3405 72.966 45.3374 74.6721V394.639C45.3405 396.345 46.0196 397.98 47.226 399.187C48.4324 400.393 50.0677 401.072 51.7737 401.075H279.38C281.086 401.072 282.722 400.393 283.928 399.187C285.134 397.98 285.813 396.345 285.817 394.639V74.6721C285.813 72.966 285.134 71.3307 283.928 70.1244C282.722 68.918 281.086 68.2389 279.38 68.2358H51.7737Z" fill="#EBEBEB"/>
<path d="M534.371 401.37H306.741C304.956 401.367 303.246 400.657 301.984 399.395C300.723 398.134 300.013 396.423 300.01 394.639V74.6721C300.028 72.8981 300.745 71.2029 302.005 69.954C303.265 68.705 304.966 68.003 306.741 68H534.371C536.142 68.0061 537.839 68.7099 539.094 69.9589C540.35 71.2078 541.063 72.9012 541.078 74.6721V394.639C541.078 396.42 540.372 398.129 539.115 399.39C537.858 400.652 536.152 401.364 534.371 401.37ZM306.741 68.2358C305.034 68.2389 303.399 68.918 302.193 70.1244C300.986 71.3307 300.307 72.966 300.304 74.6721V394.639C300.307 396.345 300.986 397.98 302.193 399.187C303.399 400.393 305.034 401.072 306.741 401.075H534.371C536.077 401.072 537.712 400.393 538.918 399.187C540.125 397.98 540.804 396.345 540.807 394.639V74.6721C540.804 72.966 540.125 71.3307 538.918 70.1244C537.712 68.918 536.077 68.2389 534.371 68.2358H306.741Z" fill="#EBEBEB"/>
<path d="M530.351 472.913H499.702V473.207H530.351V472.913Z" fill="#EBEBEB"/>
<path d="M419.695 476.119H366.613V476.414H419.695V476.119Z" fill="#EBEBEB"/>
<path d="M498.523 461.973H426.862V462.268H498.523V461.973Z" fill="#EBEBEB"/>
<path d="M84.5096 463.954H61.8409V464.248H84.5096V463.954Z" fill="#EBEBEB"/>
<path d="M160.19 463.954H95.0128V464.248H160.19V463.954Z" fill="#EBEBEB"/>
<path d="M287.797 468.928H200.01V469.223H287.797V468.928Z" fill="#EBEBEB"/>
<path d="M499.82 106.064H390.755V254.477H499.82V106.064Z" fill="#E6E6E6"/>
<path d="M504.476 106.064H395.411V254.477H504.476V106.064Z" fill="#F5F5F5"/>
<path d="M496.118 246.756V113.785H403.769V246.756H496.118Z" fill="white"/>
<path d="M496.118 246.768V113.797H492.593V246.768H496.118Z" fill="#E6E6E6"/>
<path d="M501.022 137.032H398.865V147.393H501.022V137.032Z" fill="#F5F5F5"/>
<path d="M342.317 106.064H233.253V254.477H342.317V106.064Z" fill="#E6E6E6"/>
<path d="M346.974 106.064H237.909V254.477H346.974V106.064Z" fill="#F5F5F5"/>
<path d="M338.628 246.768V113.797H246.279V246.768H338.628Z" fill="white"/>
<path d="M338.616 246.756V113.785H335.091V246.756H338.616Z" fill="#E6E6E6"/>
<path d="M343.532 137.032H241.375V147.393H343.532V137.032Z" fill="#F5F5F5"/>
<path d="M184.827 106.064H75.7627V254.477H184.827V106.064Z" fill="#E6E6E6"/>
<path d="M189.483 106.064H80.4191V254.477H189.483V106.064Z" fill="#F5F5F5"/>
<path d="M181.126 246.756V113.785H88.7768V246.756H181.126Z" fill="white"/>
<path d="M181.126 246.768V113.797H177.601V246.768H181.126Z" fill="#E6E6E6"/>
<path d="M186.029 137.032H83.873V147.393H186.029V137.032Z" fill="#F5F5F5"/>
<path d="M175.764 380.441C177.871 371.514 172.341 362.568 163.414 360.461C154.486 358.353 145.54 363.883 143.433 372.811C141.326 381.739 146.855 390.684 155.783 392.791C164.711 394.899 173.656 389.369 175.764 380.441Z" fill="#EBEBEB"/>
<path d="M171.341 441.78H108.416V453.934H171.341V441.78Z" fill="#F5F5F5"/>
<path d="M165.164 341.498H114.605V441.78H165.164V341.498Z" fill="#F5F5F5"/>
<path d="M165.164 341.498H152.799V441.78H165.164V341.498Z" fill="#EBEBEB"/>
<path d="M171.341 337.254H108.416V345.73H171.341V337.254Z" fill="#F5F5F5"/>
<path d="M139.879 313.477C132.659 313.48 125.736 316.351 120.631 321.457C115.527 326.564 112.66 333.488 112.66 340.708H167.109C167.109 333.486 164.241 326.56 159.134 321.453C154.027 316.346 147.101 313.477 139.879 313.477Z" fill="#F5F5F5"/>
<path d="M139.879 311.025C139.468 311.022 139.061 311.101 138.681 311.256C138.3 311.411 137.954 311.639 137.663 311.929C137.371 312.218 137.14 312.562 136.982 312.941C136.824 313.32 136.743 313.727 136.743 314.137H142.967C142.967 313.316 142.643 312.528 142.064 311.945C141.486 311.362 140.7 311.032 139.879 311.025Z" fill="#F5F5F5"/>
<path d="M136.281 380.447C138.389 371.519 132.859 362.573 123.931 360.466C115.003 358.359 106.058 363.888 103.951 372.816C101.843 381.744 107.373 390.69 116.301 392.797C125.228 394.904 134.174 389.375 136.281 380.447Z" fill="#EBEBEB"/>
<path d="M128.153 388.402C134.639 381.915 134.639 371.399 128.152 364.912C121.666 358.426 111.149 358.426 104.663 364.912C98.1766 371.399 98.1766 381.915 104.663 388.402C111.149 394.888 121.666 394.888 128.153 388.402Z" fill="#F5F5F5"/>
<path d="M249.356 337.266H243.662L229.198 453.945H234.892L249.356 337.266Z" fill="#E0E0E0"/>
<path d="M477.469 337.266H471.764L457.311 453.945H463.005L477.469 337.266Z" fill="#E0E0E0"/>
<path d="M282.693 395.606H288.398L295.624 453.945H289.919L282.693 395.606Z" fill="#E0E0E0"/>
<path d="M510.335 395.606H516.04L523.266 453.945H517.572L510.335 395.606Z" fill="#E0E0E0"/>
<path d="M488.161 386.541H233.536L225.107 327.093H479.732L488.161 386.541Z" fill="#F5F5F5"/>
<path d="M227.548 386.541H233.536L225.107 327.093H219.119L227.548 386.541Z" fill="#EBEBEB"/>
<path d="M519.989 397.81H293.75L289.942 391.645H516.181L519.989 397.81Z" fill="#F5F5F5"/>
<path d="M229.457 397.81H293.75L289.942 391.645H225.65L229.457 397.81Z" fill="#EBEBEB"/>
<path d="M294.705 507.181C420.936 507.181 523.266 501.206 523.266 493.837C523.266 486.467 420.936 480.492 294.705 480.492C168.474 480.492 66.1436 486.467 66.1436 493.837C66.1436 501.206 168.474 507.181 294.705 507.181Z" fill="#F5F5F5"/>
<path d="M122.651 459.169L134.819 475.996C134.819 475.996 108.922 488.637 109.111 493.627L161.07 488.472L160.574 483.127C160.418 481.503 159.948 479.924 159.19 478.48L143.416 448.302L122.651 459.169Z" fill="#263238"/>
<path d="M161.07 488.472L160.514 484.274L110.85 490.789C110.85 490.789 108.638 492.031 109.064 493.627L161.07 488.472Z" fill="#455A64"/>
<path d="M134.535 476.02C134.535 476.268 135.848 476.257 137.184 476.954C138.52 477.652 139.277 478.645 139.549 478.515C139.821 478.385 139.253 476.966 137.621 476.15C135.989 475.334 134.464 475.795 134.535 476.02Z" fill="white"/>
<path d="M129.06 478.976C129.06 479.225 130.172 479.556 131.141 480.537C132.111 481.519 132.466 482.63 132.714 482.595C132.962 482.559 132.986 481.117 131.768 479.911C130.55 478.704 129.048 478.728 129.06 478.976Z" fill="white"/>
<path d="M126.636 486.036C126.872 486.036 127.109 484.771 126.317 483.446C125.524 482.122 124.283 481.684 124.2 481.909C124.117 482.134 124.921 482.796 125.548 483.896C126.175 484.995 126.388 486.036 126.636 486.036Z" fill="white"/>
<path d="M132.454 472.425C132.655 472.579 133.542 471.739 134.819 471.243C136.096 470.746 137.361 470.592 137.385 470.332C137.408 470.072 136.025 469.741 134.464 470.427C132.903 471.113 132.253 472.295 132.454 472.425Z" fill="white"/>
<path d="M281.176 431.464L302.248 457.006L324.716 472.378C325.1 472.64 325.426 472.978 325.673 473.371C325.921 473.764 326.084 474.204 326.154 474.664C326.224 475.123 326.199 475.592 326.079 476.041C325.96 476.49 325.749 476.909 325.461 477.274C325.128 477.699 324.697 478.039 324.205 478.263C323.713 478.487 323.175 478.59 322.635 478.562C315.634 478.208 289.927 476.741 288.484 474.79C286.817 472.532 264.456 449.331 264.456 449.331L281.176 431.464Z" fill="#263238"/>
<path d="M325.496 477.297L287.053 473.123L287.976 474.187C288.771 475.104 289.864 475.711 291.062 475.902C294.267 476.387 303.147 477.569 322.587 478.657C323.147 478.686 323.704 478.577 324.212 478.34C324.719 478.103 325.16 477.745 325.496 477.297Z" fill="#455A64"/>
<path d="M310.301 471.302C310.229 470 310.405 468.695 310.822 467.459C311.637 465.437 313.328 464.597 313.187 464.408C313.045 464.219 312.666 464.408 312.004 464.834C311.161 465.418 310.502 466.229 310.102 467.173C309.702 468.117 309.579 469.155 309.745 470.167C309.946 470.9 310.23 471.337 310.301 471.302Z" fill="white"/>
<path d="M314.984 473.123C315.355 472.098 315.786 471.095 316.273 470.119C317.219 468.606 318.543 467.884 318.449 467.754C318.354 467.624 316.746 468.074 315.658 469.788C315.296 470.254 315.046 470.798 314.929 471.376C314.812 471.955 314.831 472.553 314.984 473.123Z" fill="white"/>
<path d="M303.324 469.883C303.549 469.883 303.691 467.577 305.004 465.153C306.316 462.729 308.102 461.251 307.972 461.073C307.842 460.896 305.725 462.173 304.353 464.822C303.428 466.336 303.063 468.127 303.324 469.883Z" fill="white"/>
<path d="M296.23 462.622C296.431 462.717 297.317 460.943 299.056 459.323C300.794 457.703 302.603 456.899 302.52 456.698C302.438 456.497 300.416 457.029 298.559 458.791C297.36 459.758 296.536 461.113 296.23 462.622Z" fill="white"/>
<path d="M289.832 455.315C290.613 454.006 291.572 452.812 292.682 451.767C294.621 450.171 296.762 449.946 296.726 449.733C296.691 449.52 296.17 449.568 295.307 449.733C294.175 449.966 293.117 450.469 292.221 451.199C291.317 451.922 290.6 452.851 290.128 453.907C289.785 454.735 289.749 455.291 289.832 455.315Z" fill="white"/>
<path d="M291.429 450.431C291.429 450.431 291.228 450.017 290.648 449.449C289.806 448.656 288.818 448.034 287.739 447.617C286.978 447.251 286.119 447.143 285.291 447.309C285.022 447.391 284.784 447.555 284.611 447.777C284.437 447.999 284.336 448.269 284.322 448.551C284.332 449.093 284.538 449.614 284.901 450.017C285.687 450.81 286.725 451.305 287.836 451.417C288.947 451.529 290.062 451.252 290.991 450.632C291.891 449.995 292.583 449.107 292.978 448.077C293.374 447.048 293.456 445.925 293.214 444.849C293.152 444.579 293.032 444.325 292.862 444.104C292.693 443.884 292.478 443.703 292.233 443.572C291.972 443.467 291.684 443.447 291.411 443.518C291.139 443.588 290.896 443.744 290.719 443.963C290.214 444.627 289.899 445.416 289.809 446.245C289.607 447.375 289.607 448.532 289.809 449.662C289.848 450.077 289.973 450.48 290.175 450.845C290.01 449.339 290.066 447.817 290.341 446.328C290.459 445.612 290.747 444.935 291.18 444.353C291.278 444.234 291.41 444.149 291.559 444.111C291.708 444.072 291.865 444.083 292.008 444.14C292.164 444.236 292.298 444.363 292.402 444.514C292.506 444.664 292.577 444.835 292.611 445.015C292.79 445.949 292.696 446.915 292.342 447.797C291.988 448.68 291.387 449.442 290.613 449.993C289.83 450.518 288.891 450.76 287.952 450.681C287.013 450.601 286.129 450.205 285.445 449.556C285.183 449.283 285.025 448.928 284.996 448.551C284.998 448.395 285.05 448.243 285.143 448.118C285.237 447.993 285.367 447.9 285.516 447.853C286.22 447.714 286.95 447.793 287.609 448.078C289.008 448.636 290.3 449.433 291.429 450.431Z" fill="white"/>
<path d="M108.284 330.857C108.284 330.857 62.249 380.261 66.5178 392.264C73.4118 411.704 125.382 471.006 125.382 471.006L152.32 457.999L118.76 402.693L109.502 389.166L146.466 354.388L149.612 354.069C149.612 354.069 220.562 399.785 221.247 399.406C221.933 399.028 275.973 464.349 275.973 464.349L301.35 448.432C301.35 448.432 246.707 376.809 245.571 375.118C244.436 373.427 182 326.02 182 326.02L163.258 300.62L110.424 309.962L108.284 330.857Z" fill="#263238"/>
<path d="M145.52 352.78C145.426 352.839 144.563 351.196 142.777 348.819C141.723 347.443 140.577 346.139 139.348 344.917C137.828 343.431 136.191 342.07 134.452 340.849C132.693 339.653 130.843 338.598 128.918 337.692C127.344 336.965 125.72 336.353 124.058 335.859C121.208 335.019 119.328 334.795 119.328 334.676C119.763 334.646 120.201 334.674 120.629 334.759C121.138 334.803 121.644 334.882 122.142 334.996C122.734 335.114 123.408 335.22 124.117 335.433C125.825 335.876 127.494 336.458 129.107 337.171C133.087 338.925 136.698 341.417 139.75 344.515C140.983 345.772 142.11 347.128 143.12 348.571C143.581 349.162 143.912 349.753 144.231 350.262C144.51 350.692 144.762 351.138 144.988 351.598C145.213 351.969 145.392 352.366 145.52 352.78Z" fill="#263238"/>
<path d="M174.752 327.818C174.752 327.948 172.872 328.492 170.093 330.041C168.477 330.96 166.935 332.004 165.481 333.163C163.713 334.617 162.054 336.198 160.514 337.893C157.756 340.982 155.374 344.387 153.419 348.039C151.906 350.841 151.196 352.686 151.054 352.65C151.143 352.191 151.281 351.743 151.468 351.314C151.61 350.888 151.823 350.38 152.083 349.8C152.343 349.221 152.627 348.547 152.994 347.837C154.881 344.081 157.268 340.596 160.089 337.479C161.656 335.774 163.352 334.193 165.162 332.749C166.647 331.597 168.23 330.576 169.892 329.698C170.528 329.353 171.183 329.045 171.855 328.776C172.356 328.549 172.874 328.359 173.404 328.208C173.839 328.033 174.29 327.902 174.752 327.818Z" fill="#263238"/>
<path d="M120.333 214.901C120.333 214.901 125.11 215.717 133.506 220.861L165.918 240.963L193.435 215.575L206.147 227.14C206.147 227.14 178.583 260.132 176.797 261.787C170.022 267.853 163.684 264.483 163.684 264.483L137.5 249.421L120.333 214.901Z" fill="#0099FF"/>
<path d="M154.767 284.385L120.333 214.901L96.0447 217.846L88.5714 215.351L62.5565 222.446L61.6696 235.867C61.6696 235.867 43.4237 254.184 43.9321 255.331L102.005 315.378C102.005 315.378 102.371 337.928 102.667 337.349C108.579 326.044 121.433 332.146 139.324 338.448L141.027 311.547L153.573 335.078L185.146 318.523L154.767 284.385Z" fill="#0099FF"/>
<path d="M64.2592 228.051L108.059 261.184L91.6577 217.597L87.3771 213.399L62.32 222.848L64.2592 228.051Z" fill="#E0E0E0"/>
<path d="M75.3511 171.173C72.4172 166.813 67.9488 163.72 62.836 162.508C57.7233 161.296 52.3417 162.055 47.7634 164.633L46.8174 165.165C36.9672 171.48 36.8372 183.364 43.4237 193.025L63.4315 225.828L87.9801 229.765L87.3889 213.411L86.2064 210.573C86.2064 210.573 95.1342 203.549 89.7539 193.711C87.1524 188.934 81.0152 179.58 75.3511 171.173Z" fill="#EB996E"/>
<path d="M86.2655 210.502C81.7247 213.059 76.5448 214.258 71.3424 213.955C71.3424 213.955 78.1181 219.773 87.3889 213.4L86.2655 210.502Z" fill="#D1734A"/>
<path d="M77.3731 181.437C77.582 181.798 77.6408 182.227 77.5369 182.632C77.433 183.037 77.1747 183.384 76.8173 183.601C76.6482 183.714 76.458 183.793 76.2578 183.832C76.0577 183.871 75.8518 183.87 75.6523 183.828C75.4528 183.786 75.2636 183.705 75.0961 183.588C74.9286 183.472 74.7861 183.323 74.677 183.151C74.464 182.792 74.4017 182.363 74.5035 181.957C74.6054 181.552 74.8633 181.203 75.221 180.987C75.3911 180.873 75.5822 180.794 75.7832 180.755C75.9843 180.716 76.1911 180.717 76.3916 180.759C76.5921 180.801 76.7822 180.882 76.9508 180.999C77.1193 181.115 77.2629 181.264 77.3731 181.437Z" fill="#263238"/>
<path d="M76.2852 177.57C76.2143 177.854 74.7243 177.664 73.2226 178.516C71.7208 179.367 71.035 180.727 70.7748 180.644C70.5147 180.562 70.6329 180.171 70.9167 179.556C71.3155 178.748 71.9506 178.08 72.7377 177.641C73.5191 177.196 74.4228 177.013 75.3156 177.12C76.0251 177.203 76.368 177.44 76.2852 177.57Z" fill="#263238"/>
<path d="M64.6613 189.016C64.8671 189.379 64.9242 189.807 64.8205 190.211C64.7169 190.614 64.4605 190.962 64.1055 191.18C63.9354 191.294 63.7443 191.373 63.5432 191.413C63.3422 191.452 63.1354 191.45 62.9349 191.409C62.7344 191.367 62.5443 191.285 62.3757 191.169C62.2072 191.053 62.0636 190.904 61.9534 190.731C61.7475 190.369 61.6905 189.94 61.7941 189.537C61.8978 189.133 62.1542 188.785 62.5091 188.567C62.6792 188.453 62.8704 188.374 63.0714 188.335C63.2725 188.296 63.4793 188.297 63.6798 188.339C63.8803 188.381 64.0704 188.462 64.2389 188.579C64.4075 188.695 64.5511 188.844 64.6613 189.016Z" fill="#263238"/>
<path d="M61.8233 185.445C61.7523 185.729 60.2506 185.54 58.7488 186.391C57.247 187.243 56.573 188.603 56.3129 188.508C56.0527 188.413 56.171 188.047 56.4548 187.432C56.8547 186.617 57.4943 185.945 58.2876 185.504C59.069 185.059 59.9726 184.877 60.8655 184.984C61.5158 185.079 61.8588 185.315 61.8233 185.445Z" fill="#263238"/>
<path d="M73.0334 193.806C73.6899 193.115 74.4286 192.507 75.2328 191.996C75.5876 191.736 75.9187 191.452 75.8359 191.157C75.7531 190.861 75.3747 190.506 74.9372 190.163L72.1583 187.881C68.2443 184.606 65.1816 181.827 65.3117 181.661C65.4417 181.496 68.7291 184.026 72.6431 187.314L75.3865 189.679C75.8861 190.008 76.2543 190.501 76.4271 191.074C76.4485 191.24 76.4307 191.409 76.3753 191.567C76.3198 191.725 76.2283 191.868 76.1079 191.984C75.9285 192.165 75.7256 192.32 75.5048 192.446C74.7426 193.003 73.912 193.46 73.0334 193.806Z" fill="#263238"/>
<path d="M69.1903 197.329C69.4268 197.176 70.3727 198.807 72.3948 199.186C74.4169 199.564 76.0724 198.394 76.2143 198.618C76.3562 198.843 76.0014 199.15 75.2801 199.588C74.335 200.14 73.2239 200.337 72.1465 200.144C71.107 199.965 70.1781 199.388 69.5568 198.536C69.1902 197.885 69.0838 197.388 69.1903 197.329Z" fill="#263238"/>
<path d="M60.9128 182.028C60.7709 182.501 59.2455 182.3 57.4599 182.56C55.6743 182.82 54.2317 183.388 53.9952 182.974C53.8888 182.773 54.1371 182.335 54.7047 181.874C55.4536 181.306 56.3382 180.943 57.2707 180.822C58.1906 180.688 59.1296 180.802 59.9905 181.153C60.6527 181.437 60.9956 181.803 60.9128 182.028Z" fill="#263238"/>
<path d="M73.6601 173.644C73.6601 174.141 72.4776 174.46 71.2241 175.252C69.9707 176.044 69.1902 176.943 68.7291 176.754C68.5162 176.659 68.4571 176.234 68.7291 175.631C69.0596 174.857 69.6214 174.204 70.3373 173.762C71.0415 173.311 71.8662 173.084 72.7023 173.112C73.3053 173.171 73.6719 173.407 73.6601 173.644Z" fill="#263238"/>
<path d="M50.3413 201.657C50.1281 201.304 49.8454 200.999 49.5104 200.758C49.1753 200.518 48.7949 200.349 48.3922 200.26C47.9896 200.172 47.5731 200.166 47.1682 200.244C46.7633 200.321 46.3784 200.48 46.037 200.711C44.3105 201.894 42.8679 204.081 45.1028 207.806C49.076 214.369 54.8466 208.989 54.752 208.835C54.6574 208.681 52.0322 204.389 50.3413 201.657Z" fill="#EB996E"/>
<path d="M51.8194 207.203C51.8194 207.203 51.7603 207.357 51.6184 207.558C51.4141 207.841 51.1096 208.036 50.767 208.102C50.1822 208.084 49.6125 207.913 49.1145 207.605C48.6165 207.298 48.2078 206.866 47.929 206.352C47.5698 205.799 47.3395 205.173 47.255 204.519C47.1956 204.277 47.1946 204.024 47.2522 203.781C47.3098 203.539 47.4242 203.313 47.5861 203.124C47.6944 203.006 47.8414 202.932 48 202.915C48.1586 202.898 48.3181 202.938 48.4493 203.029C48.6503 203.159 48.6858 203.313 48.7331 203.301C48.7804 203.289 48.804 203.1 48.5912 202.863C48.4544 202.726 48.2753 202.638 48.0827 202.615C47.9525 202.599 47.8203 202.61 47.6943 202.646C47.5683 202.683 47.451 202.745 47.3496 202.828C47.1118 203.044 46.9336 203.317 46.8321 203.621C46.7306 203.926 46.7093 204.251 46.7701 204.566C46.8316 205.304 47.0754 206.015 47.4796 206.636C47.8004 207.24 48.2924 207.736 48.894 208.062C49.4956 208.388 50.18 208.53 50.8616 208.468C51.07 208.411 51.263 208.308 51.4266 208.167C51.5903 208.026 51.7204 207.85 51.8076 207.653C51.9022 207.369 51.8549 207.203 51.8194 207.203Z" fill="#D1734A"/>
<path d="M109.241 264.389C109.018 264.374 108.798 264.322 108.591 264.235L106.782 263.667L100.148 261.456L78.331 253.947L72.1229 251.771L71.8627 251.689V251.417L73.731 243.388L74.0148 243.719L64.886 244.062H64.7322V243.92C63.7863 241.46 63.0176 239.462 62.4619 238.007C62.2254 237.369 62.0362 236.825 61.8706 236.411C61.8003 236.222 61.7449 236.029 61.7051 235.831C61.8229 235.995 61.9183 236.174 61.9889 236.364C62.1662 236.777 62.3909 237.298 62.6747 237.924C63.2778 239.379 64.1055 241.354 65.1106 243.837L64.9096 243.707L74.0385 243.234H74.3932L74.3223 243.589C73.7547 246.095 73.1398 248.792 72.5013 251.641L72.3002 251.287L78.532 253.321L100.29 260.995L106.853 263.36L108.638 264.034C108.848 264.136 109.05 264.255 109.241 264.389Z" fill="#263238"/>
<path d="M141.11 311.499C140.989 311.331 140.889 311.148 140.814 310.955L140.069 309.359C139.431 307.976 138.567 305.93 137.408 303.447C136.041 300.563 134.517 297.757 132.844 295.039C131.898 293.502 130.857 291.917 129.71 290.309C128.563 288.701 127.345 287.116 126.068 285.449C121.031 278.792 116.502 272.749 113.238 268.35L109.395 263.147C108.981 262.579 108.65 262.095 108.378 261.716C108.245 261.556 108.137 261.377 108.059 261.184C108.213 261.318 108.352 261.469 108.473 261.634L109.584 263.005C110.589 264.282 111.949 266.009 113.569 268.114C116.916 272.442 121.516 278.437 126.577 285.094C127.83 286.762 129.084 288.37 130.219 289.99C131.354 291.61 132.395 293.194 133.341 294.72C135.001 297.467 136.498 300.31 137.822 303.234C138.934 305.752 139.726 307.81 140.306 309.229L140.932 310.873C141.023 311.071 141.083 311.283 141.11 311.499Z" fill="#263238"/>
<path d="M180.641 320.841C180.493 320.952 180.335 321.047 180.168 321.125L178.76 321.893L173.356 324.767L164.854 329.26L159.58 332.039L156.73 333.577L155.252 334.381L154.507 334.795L154.129 335.007L153.952 335.114H153.869C153.869 335.114 153.869 334.676 153.751 334.747L153.455 335.102L140.85 311.641L141.405 311.476C141.831 317.152 142.28 323.182 142.742 329.391C142.978 332.477 143.203 335.516 143.416 338.484V339.052L142.907 338.78L140.246 337.278C139.368 336.759 138.46 336.293 137.527 335.882C135.734 335.024 133.885 334.29 131.993 333.683C130.176 333.071 128.319 332.586 126.435 332.229C125.513 332.051 124.578 331.992 123.668 331.874C122.766 331.754 121.857 331.699 120.948 331.708C114.431 331.449 108.029 333.482 102.856 337.455L102.501 337.739V337.278C102.324 330.242 102.194 324.519 102.087 320.522C102.087 318.571 102.087 317.045 102.016 315.969C102.016 315.473 102.016 315.082 102.016 314.787C102.006 314.653 102.006 314.518 102.016 314.385C102.028 314.518 102.028 314.653 102.016 314.787C102.016 315.082 102.016 315.484 102.016 315.969L102.217 320.522C102.359 324.519 102.572 330.242 102.82 337.278L102.454 337.124C107.69 333.025 114.208 330.91 120.854 331.152C121.778 331.139 122.703 331.191 123.621 331.306C124.543 331.424 125.489 331.484 126.435 331.661C128.345 332.019 130.23 332.505 132.075 333.115C133.988 333.735 135.86 334.474 137.68 335.327C138.638 335.705 139.501 336.261 140.424 336.734L143.167 338.236L142.706 338.519C142.481 335.551 142.257 332.512 142.02 329.426C141.571 323.218 141.121 317.187 140.708 311.511L140.601 310.092L141.263 311.346L153.869 334.913V334.984L153.538 335.268C153.467 335.327 153.278 334.936 153.419 334.865L153.514 334.795L153.703 334.688L154.082 334.463L154.838 334.061L156.328 333.257L159.19 331.756L164.488 329.012L173.049 324.625L178.524 321.87L179.966 321.16C180.176 321.024 180.402 320.917 180.641 320.841Z" fill="#263238"/>
<path d="M111.547 263.549C111.467 263.369 111.416 263.177 111.394 262.982C111.323 262.532 111.216 261.976 111.098 261.314C110.85 259.777 110.518 257.708 110.105 255.189C109.301 250.01 108.213 242.844 107.066 234.933C106.77 232.923 106.486 230.96 106.214 229.02L106.486 229.28L98.6817 228.571H98.2797L98.457 228.216L101.496 222.386L101.555 222.658L96.5059 218.863L95.2052 217.846C94.8977 217.597 94.744 217.467 94.7558 217.444C94.9422 217.522 95.1172 217.626 95.2761 217.751L96.6951 218.709L101.863 222.351L102.016 222.469L101.934 222.635L98.9892 228.547L98.7763 228.145L106.593 228.796H106.829V229.032C107.101 230.924 107.385 232.887 107.681 234.885C108.863 242.808 109.844 249.974 110.554 255.177C110.873 257.696 111.145 259.777 111.346 261.326C111.417 262 111.488 262.509 111.535 263.005C111.564 263.185 111.568 263.368 111.547 263.549Z" fill="#263238"/>
<path d="M122.675 223.344C122.816 223.273 129.687 236.021 138.047 251.819C146.407 267.617 152.994 280.494 152.852 280.577C152.71 280.66 145.828 267.913 137.479 252.103C129.131 236.293 122.521 223.427 122.675 223.344Z" fill="#263238"/>
<path d="M87.8855 230.652C87.8855 230.569 87.8855 234.838 87.8855 234.838L91.3029 236.269L93.4669 235.086L92.8402 231.373L88.5832 229.99L87.8855 230.652Z" fill="#FF4E5A"/>
<path d="M91.3148 236.269L95.1933 251.452L108.059 261.184L101.449 243.6L93.4196 234.814L91.3148 236.269Z" fill="#FF4E5A"/>
<path d="M88.0038 230.25C88.1415 231.522 88.181 232.803 88.122 234.081V236.021C88.122 236.375 88.122 236.73 88.122 237.097V237.546C88.122 237.854 87.6845 237.818 87.72 237.794H87.649L87.0932 237.641L82.1977 236.233C78.733 235.228 75.6112 234.282 73.3645 233.561C72.1372 233.24 70.9479 232.788 69.817 232.213C70.16 232.239 70.498 232.311 70.8221 232.426L73.53 233.135C75.8122 233.762 78.9577 234.637 82.4224 235.642L87.2943 237.073L87.85 237.239H87.921C87.921 237.049 87.85 237.511 87.921 237.463H87.6845V235.985C87.6845 235.311 87.7436 234.661 87.7791 234.058C87.7503 232.784 87.8254 231.511 88.0038 230.25Z" fill="#263238"/>
<path d="M95.2643 226.975C95.5291 228.536 95.6242 230.122 95.5481 231.705V232.083L95.2052 232.036L93.8571 231.681C91.8503 231.252 89.8929 230.618 88.0156 229.789C90.0507 230.031 92.0582 230.467 94.0109 231.09L95.3589 231.456L94.9805 231.74C94.8891 230.146 94.9844 228.547 95.2643 226.975Z" fill="#263238"/>
<path d="M151.149 291.811C150.751 292.107 150.318 292.353 149.86 292.544C149.009 292.982 147.767 293.596 146.23 294.318C143.155 295.784 138.851 297.711 134.038 299.674C129.226 301.637 124.803 303.293 121.575 304.404C119.967 304.96 118.654 305.398 117.744 305.682C117.283 305.864 116.803 305.991 116.313 306.06C116.746 305.816 117.201 305.614 117.673 305.457L121.433 303.991C124.602 302.808 128.989 301.07 133.802 299.095C138.615 297.12 142.931 295.276 146.052 293.916L149.754 292.319C150.202 292.107 150.669 291.937 151.149 291.811Z" fill="#263238"/>
<path d="M195.481 218.094L209.233 207.321L214.921 213.4L204.113 225.378L195.481 218.094Z" fill="#EB996E"/>
<path d="M224.44 195.946C224.44 195.946 223.825 193.581 221.318 194.964C220.408 195.473 214.838 199.907 214.838 199.907C214.838 199.907 211.066 202.651 210.936 202.852C211.006 203.654 211.161 204.447 211.397 205.217L216.056 203.289L224.44 195.946Z" fill="#D1734A"/>
<path d="M102.454 315.792C102.336 315.91 90.688 303.967 76.439 289.103C62.1899 274.239 50.7315 262.095 50.8616 261.976C50.9917 261.858 62.6865 273.801 76.8765 288.677C91.0665 303.553 102.584 315.674 102.454 315.792Z" fill="#263238"/>
<path d="M101.993 295.368C101.712 295.01 101.505 294.6 101.383 294.161C101.262 293.722 101.228 293.263 101.285 292.811C101.341 292.359 101.486 291.923 101.712 291.527C101.938 291.131 102.239 290.784 102.6 290.506L471.807 1.29963C472.533 0.7378 473.451 0.48437 474.362 0.594183C475.272 0.703996 476.103 1.16824 476.674 1.88641C477.241 2.6103 477.497 3.52943 477.387 4.44222C477.276 5.35501 476.809 6.18691 476.086 6.75541L106.854 295.974C106.496 296.255 106.085 296.462 105.646 296.584C105.208 296.706 104.749 296.74 104.297 296.683C103.846 296.627 103.409 296.482 103.014 296.256C102.618 296.031 102.272 295.729 101.993 295.368Z" fill="#800101"/>
<path d="M492.788 380.301C402.182 320.792 390.732 199.362 305.318 135.734C304.3 134.973 303.471 133.987 302.895 132.854C302.319 131.721 302.011 130.47 301.996 129.199C301.981 127.928 302.259 126.671 302.808 125.524C303.358 124.378 304.163 123.374 305.163 122.589L432.662 22.8112C434.077 21.717 435.806 21.1055 437.595 21.0666C439.384 21.0277 441.139 21.5634 442.601 22.595C531.509 85.3337 541.925 209.499 633.925 269.874L492.788 380.301Z" fill="#0099FF"/>
<path d="M520.045 156.559L515.827 162.692L519.17 169.001L513.213 166.496L509.086 172.659L509.676 164.98L503.72 162.475L509.998 160.23L510.587 152.551L513.93 158.86L520.045 156.559Z" fill="white"/>
<path d="M424.062 231.741L419.811 237.862L423.221 244.194L417.177 241.659L412.926 247.78C413.081 245.206 413.255 242.639 413.484 240.091L407.44 237.555L413.804 235.339L414.362 227.65L417.772 233.982L424.062 231.741Z" fill="white"/>
<path d="M498.803 135.12C497.392 137.15 495.986 139.161 494.667 141.222L498.153 147.473L492.048 144.982C490.661 146.999 489.25 149.029 487.912 151.084L488.437 143.504C486.407 142.661 484.361 141.841 482.302 141.043L488.703 138.799C488.843 136.274 488.959 133.762 489.099 131.237L492.648 137.427L498.803 135.12Z" fill="white"/>
<path d="M528.277 188.692L521.919 190.921L518.463 184.691C518.314 187.228 518.146 189.759 517.924 192.271L511.59 194.488L517.653 196.965C517.51 199.483 517.36 202.02 517.242 204.527C518.623 202.512 520.023 200.504 521.355 198.452L527.455 200.88L523.938 194.711C525.465 192.746 526.871 190.719 528.277 188.692Z" fill="white"/>
<path d="M444.056 253.541C442.657 255.547 441.27 257.578 439.945 259.609C441.115 261.69 442.28 263.729 443.475 265.798L437.357 263.364C435.959 265.371 434.578 267.383 433.247 269.432L433.68 261.865L427.617 259.389L433.949 257.176C434.098 254.641 434.246 252.107 434.486 249.603L437.943 255.829L444.056 253.541Z" fill="white"/>
<path d="M415.303 201.319L408.956 203.54L405.412 197.352C405.293 199.864 405.15 202.388 405.025 204.918L398.653 207.151L404.754 209.621C404.611 212.145 404.443 214.681 404.22 217.198L408.44 211.124C410.458 211.935 412.487 212.77 414.492 213.618L411.035 207.356L415.303 201.319Z" fill="white"/>
<path d="M469.514 129.967L465.39 136.047L469.021 142.198L462.814 139.813C461.423 141.848 460.038 143.864 458.683 145.912C458.8 143.401 458.898 140.884 458.996 138.368L452.703 136.057L459.158 133.737C459.25 131.239 459.317 128.753 459.384 126.267C460.656 128.255 461.916 130.281 463.157 132.301L469.514 129.967Z" fill="white"/>
<path d="M521.426 221.828L515.012 224.1L511.39 217.998C511.272 220.505 511.172 223.017 511.059 225.506L504.645 227.839L510.874 230.188C510.762 232.676 510.692 235.158 510.611 237.616L514.699 231.614L520.99 233.901L517.233 227.897L521.426 221.828Z" fill="white"/>
<path d="M473.869 258.279L469.724 264.326L473.581 270.379L467.164 268.048L463.032 274.058L463.261 266.595L456.913 264.185L463.425 261.953C463.508 259.447 463.616 256.929 463.724 254.41C464.938 256.473 466.178 258.523 467.443 260.561L473.869 258.279Z" fill="white"/>
<path d="M422.493 167.721L416.073 169.954L412.287 163.978C412.232 166.425 412.172 168.889 412.093 171.347L405.686 173.544L411.967 175.868C411.888 178.326 411.803 180.803 411.693 183.291L415.787 177.292L422.001 179.694L418.337 173.781L422.493 167.721Z" fill="white"/>
<path d="M441.077 141.754C439.687 143.764 438.316 145.78 436.945 147.796L440.735 153.889C438.619 153.085 436.502 152.301 434.385 151.539L430.254 157.581C430.337 155.085 430.396 152.601 430.455 150.117L423.992 147.915L430.545 145.594L430.64 138.197C432.03 140.202 433.289 142.163 434.58 144.155L441.077 141.754Z" fill="white"/>
<path d="M501.746 247.728C500.391 249.706 499.013 251.697 497.652 253.693C498.937 255.668 500.241 257.65 501.557 259.595L495.111 257.398C493.739 259.37 492.378 261.367 491.024 263.344C491.055 260.895 491.104 258.452 491.159 255.99L484.794 253.678L491.275 251.417C491.336 248.937 491.416 246.464 491.497 243.99C492.751 245.996 493.999 248.02 495.259 250.008L501.746 247.728Z" fill="white"/>
<path d="M478.281 214.317C471.878 202.668 465.71 190.933 459.234 179.258C459.073 178.927 458.838 178.638 458.549 178.411C458.259 178.185 457.922 178.027 457.563 177.95C457.204 177.874 456.831 177.88 456.474 177.968C456.117 178.056 455.784 178.225 455.501 178.461L434.204 195.214C433.575 195.74 433.144 196.465 432.982 197.269C432.82 198.073 432.937 198.908 433.314 199.635C439.723 211.266 445.884 223.019 452.361 234.694C452.524 235.024 452.76 235.313 453.05 235.538C453.341 235.764 453.679 235.92 454.039 235.995C454.399 236.07 454.772 236.062 455.129 235.971C455.486 235.881 455.818 235.71 456.1 235.473L477.41 218.682C478.023 218.157 478.442 217.441 478.6 216.649C478.758 215.857 478.646 215.036 478.281 214.317ZM457.173 208.755L449.741 215.979C448.675 213.986 447.608 211.993 446.517 210.012L455.035 204.664C454.957 203.696 455.113 202.724 455.489 201.828C455.866 200.933 456.452 200.142 457.198 199.522C457.674 199.118 458.235 198.83 458.839 198.678C459.444 198.526 460.074 198.516 460.682 198.647C461.29 198.779 461.859 199.049 462.347 199.436C462.834 199.824 463.225 200.318 463.491 200.882C464.118 202.116 464.309 203.529 464.032 204.888C463.755 206.248 463.028 207.474 461.968 208.367C461.314 208.937 460.495 209.283 459.632 209.353C458.769 209.423 457.907 209.213 457.173 208.755Z" fill="white"/>
<path d="M479.305 209.26C478.984 208.624 478.884 207.899 479.021 207.199C479.159 206.5 479.526 205.867 480.065 205.4L482.085 203.823C484.832 201.579 486.814 198.537 487.758 195.118C488.702 191.698 488.56 188.07 487.353 184.735C484.203 176.701 475.69 174.377 469.321 179.353L466.93 181.236C466.679 181.448 466.384 181.599 466.066 181.678C465.747 181.757 465.415 181.762 465.095 181.692C464.775 181.623 464.475 181.481 464.218 181.278C463.961 181.074 463.754 180.814 463.613 180.518C463.288 179.883 463.186 179.157 463.324 178.457C463.462 177.756 463.831 177.123 464.373 176.658C464.992 176.169 465.612 175.68 466.237 175.234C474.099 169.078 484.659 170.349 490 178.841C492.777 183.543 493.798 189.079 492.879 194.464C491.96 199.849 489.162 204.733 484.982 208.249L482.572 210.126C482.312 210.323 482.011 210.458 481.692 210.521C481.372 210.584 481.042 210.574 480.727 210.49C480.412 210.407 480.121 210.253 479.874 210.039C479.628 209.826 479.433 209.56 479.305 209.26Z" fill="white"/>
<path d="M221.957 195.757C222.903 195.335 223.939 195.157 224.972 195.237C226.004 195.318 227 195.655 227.869 196.218C229.127 197.055 230.211 198.127 231.062 199.375C231.258 199.8 231.3 200.28 231.182 200.733C231.063 201.186 230.791 201.584 230.412 201.858C229.052 202.887 225.422 202.792 225.422 202.792L227.03 201.444L224.464 199.079C223.895 199.22 223.298 199.181 222.752 198.97C222.206 198.758 221.738 198.384 221.413 197.897C220.55 196.182 221.957 195.757 221.957 195.757Z" fill="#EB996E"/>
<path d="M211.291 202.225C212.116 201.193 213.313 200.526 214.625 200.368C216.133 200.474 217.618 200.793 219.036 201.314C219.036 201.314 223.388 206.044 223.766 207.002C224.145 207.96 222.04 209.497 222.04 209.497C222.04 209.497 222.595 211.957 221.614 213.246C220.633 214.535 211.575 220.341 211.575 220.341L205.497 218.532C205.497 218.532 211.468 211.567 213.029 210.325C214.59 209.083 213.916 209.651 213.916 209.651L213.455 208.386C213.257 207.842 212.931 207.355 212.505 206.964C212.079 206.573 211.565 206.29 211.007 206.139L210.309 205.95L207.306 208.315C207.114 207.853 207.044 207.349 207.102 206.853C207.16 206.356 207.344 205.882 207.637 205.477C208.695 204.226 209.926 203.131 211.291 202.225Z" fill="#EB996E"/>
<path d="M217.818 203.147C217.818 203.147 216.056 200.676 217.404 199.753C218.752 198.831 220.077 199.493 221.508 199.919C222.314 200.189 223.051 200.634 223.664 201.223C224.277 201.812 224.753 202.53 225.055 203.325C225.422 204.803 225.812 206.872 223.742 207.002C221.673 207.132 217.818 203.147 217.818 203.147Z" fill="#EB996E"/>
<path d="M210.96 202.544C211.561 202.05 212.322 201.793 213.1 201.823C214.966 201.765 216.785 202.421 218.185 203.656C219.594 204.834 220.721 206.313 221.484 207.984C221.849 208.646 222.063 209.381 222.111 210.136C221.737 209.5 221.398 208.845 221.094 208.173C220.25 206.638 219.132 205.271 217.795 204.141C216.487 202.975 214.815 202.302 213.065 202.237C212.356 202.28 211.651 202.383 210.96 202.544Z" fill="#D1734A"/>
<path d="M223.754 207.522C223.648 207.522 223.612 206.896 223.329 205.95C222.966 204.735 222.312 203.627 221.425 202.722C220.417 201.939 219.263 201.364 218.031 201.031C217.494 200.919 216.974 200.74 216.482 200.498C217.034 200.403 217.602 200.439 218.137 200.605C219.491 200.845 220.762 201.418 221.839 202.272C222.815 203.238 223.482 204.473 223.754 205.82C223.926 206.374 223.926 206.968 223.754 207.522Z" fill="#D1734A"/>
<path d="M200.767 222.339C200.767 222.339 207.992 222.99 211.882 220.163C215.772 217.337 210.581 212.808 210.581 212.808L200.767 222.339Z" fill="#EB996E"/>
<path d="M214.992 211.578C214.838 211.661 214.46 211.259 214.152 210.68C213.845 210.1 213.703 209.58 213.857 209.497C214.011 209.414 214.377 209.817 214.696 210.384C215.016 210.952 215.134 211.496 214.992 211.578Z" fill="#FF9A6C"/>
<path d="M43.9676 255.283C43.9676 255.283 34.8979 307.16 35.5837 316.312C36.3642 326.706 40.6448 327.368 46.5455 327.901C52.0441 328.385 93.6561 322.568 93.6561 322.568L88.8197 303.328L61.3622 304.724L68.1024 276.427L43.9676 255.283Z" fill="#0099FF"/>
<path d="M91.6577 303.577C91.6577 303.577 93.254 295.063 96.9671 292.272C100.68 289.481 110.483 286.289 110.483 286.289C110.483 286.289 110.779 287.4 109.383 289.422C107.988 291.444 103.222 294.046 103.222 294.046L113.723 292.035L123.266 286.88C123.437 286.78 123.637 286.741 123.833 286.772C124.029 286.802 124.209 286.898 124.342 287.045C124.85 287.625 125.3 288.713 123.585 290.238C120.972 292.603 113.203 297.889 113.203 297.889C113.203 297.889 113.995 306.746 111.169 308.153C108.343 309.56 96.9789 313.309 96.9789 313.309L91.6577 315.023L88.9379 303.754L91.6577 303.577Z" fill="#EB996E"/>
<path d="M49.7973 313.344C49.7813 312.527 49.9554 311.717 50.3058 310.979C51.0424 309.095 52.3229 307.473 53.9844 306.319C55.6458 305.165 57.6131 304.531 59.6357 304.499C60.4655 304.416 61.3029 304.542 62.0716 304.866C62.0716 304.96 61.1256 304.806 59.7066 304.936C57.7959 305.082 55.9588 305.736 54.3851 306.829C52.8114 307.923 51.5582 309.417 50.7551 311.156C50.0693 312.445 49.9038 313.356 49.7973 313.344Z" fill="#263238"/>
<path d="M46.3427 175.69L46.2883 175.728C45.6354 177.967 45.8701 180.366 46.9439 182.426L47.0777 182.615C48.6168 185.581 50.6002 188.232 52.1121 191.216C53.6241 194.201 54.61 197.558 53.8891 200.77C53.608 202.104 52.5357 203.645 51.2405 203.237C50.7512 203.032 50.3334 202.689 50.0387 202.249C44.9639 196.149 39.1356 191.676 34.3956 184.934C33.7461 184.037 33.3221 182.996 33.1589 181.898C32.9957 180.801 33.098 179.679 33.4574 178.625C34.1676 176.61 35.1543 174.331 37.2698 173.957C39.3854 173.583 43.502 175.077 45.6052 175.454" fill="#263238"/>
<path d="M36.5351 174.179C33.1045 172.703 35.926 166.658 38.4341 163.433C40.9422 160.209 46.2241 158.746 50.1465 157.561C52.6274 156.806 55.2773 156.329 57.3382 154.748C58.6418 153.6 59.7732 152.27 60.6976 150.799C61.6136 149.318 62.8244 148.042 64.2548 147.051C64.9751 146.565 65.8151 146.285 66.6842 146.242C67.5532 146.2 68.4182 146.396 69.1854 146.809C70.6512 147.744 71.1649 150.091 69.8908 151.28C70.1669 150.717 70.5751 150.229 71.0804 149.859C71.5858 149.489 72.1735 149.247 72.7933 149.154C73.4132 149.06 74.047 149.118 74.6406 149.323C75.2343 149.527 75.7702 149.872 76.2028 150.328C76.6354 150.784 76.9518 151.338 77.1252 151.942C77.2985 152.546 77.3236 153.182 77.1983 153.797C77.073 154.412 76.8011 154.987 76.4056 155.473C76.0102 155.959 75.5029 156.342 74.9271 156.589C75.3396 155.243 77.5779 155.399 78.2727 156.632C78.5506 157.288 78.6536 158.003 78.5716 158.709C78.4896 159.415 78.2254 160.087 77.805 160.659C75.9156 163.775 72.5252 165.597 69.0686 166.631C65.612 167.665 61.9812 168.028 58.4639 168.996C54.9466 169.964 49.0452 171.399 46.9877 174.373C46.5 176 45.0427 175.339 45.0427 175.339L43.8563 175.046C43.5 175 41.7619 174.502 41.5 174.438C39.5 173.938 38.7308 173.931 37.5 173.924" fill="#263238"/>
<path d="M70.4062 150.526C70.3519 150.564 70.4083 151.22 70.2345 152.454C69.9798 154.187 69.3037 155.837 68.2654 157.261C66.763 159.388 64.4958 160.861 61.9437 161.369C59.0635 161.946 55.7998 161.309 52.3543 161.067C49.0459 160.635 45.6697 161.227 42.6834 162.764C41.4665 163.421 40.4126 164.344 39.602 165.463C38.7915 166.581 38.2457 167.865 38.0062 169.217C37.8816 170.132 37.9445 171.059 38.1913 171.943C38.438 172.827 38.8634 173.65 39.4416 174.361C39.7608 174.737 40.1339 175.064 40.5492 175.332C40.8437 175.498 41.0045 175.572 41.0163 175.55C40.5352 175.129 40.0884 174.671 39.6799 174.179C38.6815 172.764 38.2757 171.013 38.5469 169.29C38.81 168.028 39.3541 166.837 40.1389 165.804C40.9237 164.772 41.9292 163.925 43.081 163.327C45.9489 161.905 49.168 161.369 52.3201 161.787C55.7022 162.074 59.0482 162.693 62.1077 162.043C64.3526 161.548 66.3875 160.349 67.911 158.623C69.4345 156.897 70.3653 154.736 70.5656 152.461C70.6088 151.976 70.6008 151.488 70.5417 151.005C70.471 150.694 70.4307 150.522 70.4062 150.526Z" fill="#455A64"/>
<path d="M47.6121 196.166C47.6121 196.166 47.7715 195.783 47.6649 195.103C47.4731 194.143 47.0207 193.259 46.3558 192.545C44.7503 190.588 41.3068 189.702 39.0487 187.018C37.9496 185.819 37.2601 184.302 37.0746 182.676C36.9817 181.354 37.3298 180.026 38.0656 178.897C38.5585 178.121 39.2453 177.482 40.0571 177.043C40.648 176.761 41.0176 176.675 41.0071 176.601C40.6473 176.56 40.2804 176.618 39.9471 176.77C39.0067 177.132 38.1916 177.765 37.6092 178.585C36.7351 179.797 36.2992 181.258 36.3743 182.726C36.5342 184.518 37.2698 186.198 38.4735 187.52C39.6395 188.806 41.0345 189.868 42.5922 190.656C43.8131 191.262 44.9408 192.031 45.9442 192.944C46.83 193.811 47.4131 194.938 47.6121 196.166Z" fill="#455A64"/>
</svg>
