<svg width="483" height="518" viewBox="0 0 483 518" fill="none" xmlns="http://www.w3.org/2000/svg">
<path d="M475.877 65.7665V142.246H366.014L362.055 66.3021L475.877 65.7665Z" fill="#E0E0E0"/>
<path d="M362.055 66.2904V142.083H471.918V66.2904H362.055Z" fill="white"/>
<path d="M472.43 142.607H361.496V65.7549H472.396L472.43 142.607ZM362.579 141.57H471.394V66.8611H362.579V141.57Z" fill="#E0E0E0"/>
<path d="M460.015 75.7107H373.953V132.674H460.015V75.7107Z" fill="white"/>
<path d="M460.017 75.7106H459.586H458.363H453.636L435.902 75.7805L373.955 75.9086L374.199 75.6524C374.199 93.1187 374.199 112.343 374.199 132.604L373.931 132.336H459.994L459.772 132.558C459.772 115.219 459.866 101.014 459.889 91.1159C459.889 86.1672 459.889 82.3013 459.947 79.658C459.947 78.3422 459.947 77.3292 459.947 76.6422C459.947 75.9552 459.947 75.5942 459.947 75.5942C459.947 75.5942 459.947 75.9319 459.947 76.5956C459.947 77.2593 459.947 78.2724 459.947 79.5649C459.947 82.2081 459.947 86.0507 460.005 90.9762C460.005 100.909 460.064 115.161 460.11 132.558V132.767H459.901L373.838 132.825H373.57V132.558C373.57 112.297 373.57 92.9674 373.57 75.6059V75.3613H373.826L435.937 75.4778L453.613 75.5476H458.27H459.866L460.017 75.7106Z" fill="#E0E0E0"/>
<path d="M362.055 66.0809C362.727 66.3944 363.36 66.7852 363.941 67.2454C365.105 68.0604 366.596 69.2132 368.249 70.529C369.903 71.8448 371.358 73.1024 372.383 74.0223C372.975 74.4871 373.503 75.0273 373.955 75.6292C371.864 74.179 369.847 72.6245 367.912 70.9715C365.855 69.4702 363.899 67.8366 362.055 66.0809Z" fill="#E0E0E0"/>
<path d="M471.916 66.3021C470.093 68.0749 468.147 69.7169 466.094 71.216C464.164 72.856 462.121 74.358 459.98 75.7106C461.801 73.9357 463.747 72.2935 465.803 70.7968C467.724 69.1463 469.767 67.6438 471.916 66.3021Z" fill="#E0E0E0"/>
<path d="M471.824 142.094L459.574 132.173L471.824 142.094Z" fill="white"/>
<path d="M459.574 132.173C461.778 133.614 463.883 135.201 465.874 136.924C467.969 138.514 469.957 140.241 471.824 142.094C469.617 140.659 467.512 139.071 465.524 137.343C463.425 135.758 461.437 134.03 459.574 132.173Z" fill="#E0E0E0"/>
<path d="M362.055 142.094C363.837 140.329 365.748 138.698 367.772 137.215C369.682 135.594 371.705 134.111 373.827 132.779C372.039 134.535 370.129 136.161 368.11 137.646C366.201 139.272 364.177 140.759 362.055 142.094Z" fill="#E0E0E0"/>
<path d="M391.434 93.4564V112.53H445.579V93.4564H391.434Z" fill="#E0E0E0"/>
<path d="M172.171 22.8925C172.171 22.8925 172.078 22.8925 171.903 22.811L171.123 22.5083L168.189 21.3438L157.43 16.6862L122.02 1.25757L120.797 0.721942H121.053L86.3534 15.5567L75.8736 19.9582L73.0091 21.1226C72.6827 21.2724 72.3437 21.3932 71.9961 21.4836C72.3067 21.302 72.6296 21.1425 72.9626 21.0062L75.7688 19.7253L86.2486 15.0676L120.867 0.0582202L120.995 0L121.123 0.0582202L122.346 0.593855L157.674 16.1971L168.364 20.9945L171.251 22.322L171.997 22.6829C172.06 22.7487 172.118 22.8188 172.171 22.8925Z" fill="#E0E0E0"/>
<path d="M227.4 17.8157H0V188.089H227.4V17.8157Z" fill="#E0E0E0"/>
<path d="M220.309 25.7338H7.95312V181.091H220.309V25.7338Z" fill="#FAFAFA"/>
<path d="M54.8555 93.6427C54.8555 93.6427 55.0767 119.726 56.4041 127.679L89.1127 126.13C89.1127 126.13 86.2366 100.513 87.3428 93.6427H54.8555Z" fill="#E0E0E0"/>
<path d="M70.9601 97.2991C70.9601 97.2991 70.9601 97.2991 71.0882 97.2991H71.4375C71.8928 97.2821 72.3487 97.3054 72.7999 97.3689C73.52 97.4767 74.2215 97.6844 74.8842 97.9861C75.7537 98.4202 76.5231 99.0309 77.1432 99.7793C77.8963 100.701 78.4335 101.779 78.7152 102.935C78.9661 104.289 78.8454 105.685 78.3658 106.975C78.1198 107.673 77.812 108.347 77.4459 108.99C77.085 109.654 76.7123 110.306 76.398 111.028C75.7443 112.511 75.3014 114.079 75.0822 115.685V115.79H74.9774L71.7519 115.848H68.3634H68.247V115.767C68.1058 114.17 67.5696 112.633 66.6867 111.295C66.2908 110.632 65.8599 110.003 65.4524 109.362C65.0448 108.722 64.6257 108.198 64.288 107.488C63.6841 106.253 63.504 104.853 63.7756 103.505C63.9618 102.343 64.3903 101.232 65.0332 100.245C65.5923 99.4546 66.3202 98.7984 67.1641 98.3238C67.794 97.9786 68.4677 97.7201 69.1669 97.5553C69.6068 97.4465 70.0545 97.3725 70.506 97.334H70.8553C70.9368 97.334 70.9717 97.334 70.9717 97.334H70.8553H70.506C70.0618 97.3877 69.6221 97.4733 69.1902 97.5902C68.5016 97.7699 67.8399 98.0401 67.2223 98.3936C66.4048 98.8637 65.7042 99.5125 65.1729 100.292C64.567 101.267 64.1704 102.357 64.0085 103.494C63.7544 104.8 63.9343 106.154 64.5209 107.348C64.8777 107.984 65.2663 108.602 65.6853 109.199C66.0812 109.817 66.5237 110.457 66.9196 111.132C67.83 112.503 68.3825 114.081 68.5265 115.72L68.41 115.592H71.7985H75.0239L74.9075 115.709C75.1364 114.081 75.591 112.494 76.2582 110.993C76.5726 110.271 76.9569 109.584 77.3178 108.932C77.6885 108.305 77.9929 107.642 78.2261 106.952C78.7007 105.676 78.8095 104.293 78.5405 102.958C78.2773 101.83 77.7639 100.776 77.0384 99.8725C76.4391 99.1342 75.6939 98.5277 74.8493 98.0909C74.2036 97.7824 73.5176 97.5668 72.8115 97.4505C72.3643 97.382 71.9131 97.3431 71.4608 97.334H70.9834L70.9601 97.2991Z" fill="white"/>
<path d="M72.6489 115.464C72.6466 115.429 72.6466 115.394 72.6489 115.359V115.056C72.6489 114.789 72.5441 114.393 72.4626 113.892C72.3229 112.879 72.1017 111.4 71.9503 109.572C71.9503 109.118 71.9503 108.64 71.8688 108.14C71.7873 107.639 71.8688 107.115 71.8688 106.568C71.8853 106.005 72.0119 105.451 72.2414 104.938C72.4846 104.38 72.9297 103.935 73.4873 103.692C73.7846 103.567 74.1121 103.532 74.429 103.592C74.7458 103.652 75.0379 103.804 75.2689 104.029C75.3889 104.146 75.4847 104.285 75.5506 104.439C75.6165 104.593 75.6514 104.759 75.6531 104.926C75.6423 105.264 75.5241 105.591 75.3155 105.857C75.11 106.135 74.8376 106.355 74.5237 106.498C74.2165 106.644 73.8917 106.75 73.5572 106.812C72.8794 106.958 72.1893 107.04 71.4962 107.057C70.7997 107.081 70.1024 107.046 69.4119 106.952C69.0739 106.907 68.7444 106.813 68.4337 106.673C68.1227 106.535 67.8418 106.337 67.607 106.09C67.373 105.847 67.2082 105.545 67.1296 105.217C67.0618 104.887 67.1026 104.544 67.246 104.239C67.3838 103.939 67.629 103.703 67.933 103.575C68.2314 103.452 68.5662 103.452 68.8646 103.575C69.1468 103.706 69.3882 103.912 69.5632 104.169C69.7267 104.417 69.8413 104.693 69.9009 104.984C70.0096 105.533 70.0681 106.09 70.0756 106.649C70.0756 107.721 70.1804 108.722 70.2269 109.642C70.3201 111.47 70.39 112.949 70.4482 113.985C70.4482 114.486 70.4482 114.882 70.4482 115.15V115.452C70.4507 115.487 70.4507 115.522 70.4482 115.557C70.4431 115.522 70.4431 115.487 70.4482 115.452C70.4482 115.382 70.4482 115.278 70.4482 115.15C70.4482 115.021 70.4482 114.486 70.3667 113.985C70.3667 112.96 70.2269 111.47 70.1221 109.642C70.1221 108.734 70.0174 107.732 69.9475 106.649C69.9383 106.095 69.8837 105.542 69.7845 104.996C69.7183 104.718 69.604 104.454 69.4468 104.216C69.2783 103.979 69.0544 103.787 68.7947 103.657C68.5181 103.547 68.2097 103.547 67.933 103.657C67.6507 103.772 67.4249 103.994 67.3042 104.274C67.1609 104.554 67.1197 104.875 67.1878 105.182C67.2637 105.493 67.4204 105.778 67.6419 106.009C68.1192 106.475 68.7375 106.77 69.4002 106.847C70.7652 107.018 72.1487 106.971 73.499 106.708C73.8292 106.643 74.15 106.538 74.4538 106.393C74.7455 106.251 75.0005 106.044 75.199 105.788C75.3963 105.539 75.5067 105.232 75.5134 104.914C75.5169 104.76 75.4876 104.606 75.4274 104.463C75.3672 104.321 75.2774 104.193 75.1641 104.088C74.9458 103.877 74.6713 103.735 74.3739 103.677C74.0764 103.619 73.7685 103.648 73.4873 103.762C72.9745 104.001 72.5623 104.413 72.3229 104.926C72.0977 105.433 71.9713 105.978 71.9503 106.533C71.9503 107.068 71.9503 107.592 71.9503 108.082C71.9503 108.571 71.9503 109.06 72.0202 109.525C72.1599 111.354 72.3695 112.821 72.5092 113.834C72.5092 114.346 72.6257 114.73 72.6606 114.998V115.301C72.6443 115.354 72.6403 115.409 72.6489 115.464Z" fill="white"/>
<path d="M68.3398 115.639C68.3398 115.639 68.3398 116.046 68.4214 116.722C68.5029 117.397 68.5145 118.457 68.5727 119.551V119.481L70.7735 122.02H70.6687L73.2071 121.88H73.1023L74.3715 120.331L75.0003 119.551V119.656C75.0003 118.165 74.9305 116.745 74.8955 115.464L75.0353 115.592H70.2844H68.3981C68.5491 115.577 68.7012 115.577 68.8522 115.592L70.1913 115.522L75.0353 115.336H75.1634V115.476C75.1634 116.768 75.2449 118.177 75.2798 119.668L74.651 120.436L73.3818 121.985L70.8317 122.113H70.7618L68.6077 119.539C68.6077 118.375 68.6077 117.444 68.6077 116.628C68.492 116.306 68.4025 115.975 68.3398 115.639Z" fill="white"/>
<path d="M74.9083 119.318L74.6638 119.213C74.448 119.115 74.2263 119.029 74 118.957C73.2527 118.695 72.4626 118.577 71.6712 118.608C70.8908 118.631 70.1212 118.797 69.4006 119.097C69.1812 119.185 68.9673 119.286 68.7602 119.4L68.5156 119.516C68.5787 119.452 68.6539 119.4 68.7369 119.365C68.9391 119.239 69.1491 119.126 69.3657 119.027C70.101 118.704 70.8917 118.526 71.6945 118.503C72.4878 118.486 73.2774 118.617 74.0233 118.887C74.2469 118.97 74.4647 119.067 74.6754 119.178C74.7572 119.218 74.8352 119.265 74.9083 119.318Z" fill="white"/>
<path d="M74.9085 118.305L74.664 118.2C74.5126 118.13 74.2914 118.037 74.0003 117.933C72.513 117.419 70.8889 117.469 69.4357 118.072C69.1563 118.189 68.935 118.293 68.7837 118.375C68.6323 118.457 68.5624 118.503 68.5508 118.491L68.772 118.34C68.9735 118.216 69.1836 118.107 69.4008 118.014C70.1343 117.686 70.9262 117.507 71.7297 117.49C72.524 117.458 73.3166 117.589 74.0585 117.874C74.2866 117.955 74.5084 118.052 74.7222 118.165C74.7888 118.206 74.8512 118.252 74.9085 118.305Z" fill="white"/>
<path d="M74.8493 117.327C74.8493 117.327 74.7562 117.327 74.6048 117.234C74.4534 117.141 74.2322 117.071 73.9411 116.966C73.192 116.711 72.4032 116.593 71.6122 116.617C70.812 116.631 70.0218 116.797 69.2834 117.106C69.0039 117.222 68.7827 117.327 68.6313 117.409C68.5602 117.459 68.4817 117.499 68.3984 117.525L68.6197 117.374C68.8186 117.245 69.0291 117.136 69.2485 117.048C69.9824 116.719 70.7735 116.537 71.5773 116.512C72.3708 116.494 73.1607 116.624 73.9061 116.896C74.1302 116.982 74.3481 117.083 74.5582 117.199L74.8493 117.327Z" fill="white"/>
<path d="M18.4219 50.9667C18.4219 50.9667 18.6431 77.0497 19.9706 85.0027L52.6791 83.4657C52.6791 83.4657 49.803 57.8484 50.9092 50.9667H18.4219Z" fill="#EBEBEB"/>
<path d="M45.9376 61.9239C42.3074 62.4628 38.6487 62.7894 34.9804 62.902C31.3263 63.2321 27.656 63.3488 23.9883 63.2513C27.6179 62.7046 31.2767 62.3741 34.9455 62.2616C38.6 61.9383 42.2701 61.8256 45.9376 61.9239Z" fill="white"/>
<path d="M45.9962 67.4549C42.3651 67.9862 38.7069 68.3128 35.039 68.433C31.3845 68.7562 27.7144 68.8689 24.0469 68.7707C27.6771 68.2318 31.3358 67.9052 35.0041 67.7926C38.6582 67.4623 42.3287 67.3496 45.9962 67.4549Z" fill="white"/>
<path d="M40.4278 72.8694C38.3812 73.3183 36.2933 73.5525 34.1981 73.5681C32.1114 73.7802 30.0086 73.7802 27.9219 73.5681C29.9735 73.1256 32.0645 72.8915 34.1632 72.8694C36.246 72.6575 38.3449 72.6575 40.4278 72.8694Z" fill="white"/>
<path d="M16.8242 127.702C16.8242 127.702 17.0455 153.773 18.3729 161.738L51.0815 160.189C51.0815 160.189 48.2054 134.572 49.3116 127.702H16.8242Z" fill="#EBEBEB"/>
<path d="M44.4337 138.659C40.8026 139.191 37.1444 139.518 33.4765 139.637C29.822 139.961 26.1519 140.073 22.4844 139.975C26.1146 139.436 29.7733 139.11 33.4416 138.997C37.0953 138.66 40.7662 138.547 44.4337 138.659Z" fill="white"/>
<path d="M44.4454 144.179C40.8151 144.717 37.1565 145.043 33.4882 145.157C29.8341 145.487 26.1636 145.6 22.4961 145.494C26.1264 144.955 29.785 144.629 33.4533 144.516C37.1078 144.193 40.7779 144.08 44.4454 144.179Z" fill="white"/>
<path d="M38.8809 149.605C36.8332 150.047 34.746 150.281 32.6512 150.304C30.5644 150.512 28.4619 150.512 26.375 150.304C28.4265 149.862 30.5179 149.632 32.6163 149.617C34.6987 149.401 36.7977 149.397 38.8809 149.605Z" fill="white"/>
<path d="M106.266 57.8834L109.503 133.105L203.413 134.235L199.198 58.8732L106.266 57.8834Z" fill="#EBEBEB"/>
<path d="M198.465 57.3478H105.184V127.784H198.465V57.3478Z" fill="#F5F5F5"/>
<path d="M198.476 127.784C198.476 127.784 198.476 127.329 198.476 126.468C198.476 125.606 198.476 124.349 198.476 122.718C198.476 119.411 198.476 114.567 198.418 108.466C198.418 96.1812 198.336 78.6101 198.278 57.3478L198.534 57.6039H105.264L105.578 57.2895C105.578 82.6157 105.578 106.603 105.578 127.725L105.287 127.434L172.567 127.574L191.699 127.656H196.787H198.103H198.557H198.138H196.857H191.827L172.754 127.725L105.287 127.865H104.996V127.574C104.996 106.451 104.996 82.4643 104.996 57.1382V56.8121H105.322H198.592H198.86V57.0799C198.802 78.4121 198.755 96.0415 198.72 108.314C198.72 114.428 198.72 119.213 198.65 122.509C198.65 124.116 198.65 125.35 198.65 126.212C198.65 127.073 198.476 127.784 198.476 127.784Z" fill="#E0E0E0"/>
<path d="M154.238 72.2639H116.43V119.854H154.238V72.2639Z" fill="#F5F5F5"/>
<path d="M154.226 119.854C154.221 119.772 154.221 119.691 154.226 119.609V118.934C154.226 118.305 154.226 117.443 154.226 116.337C154.226 114.008 154.226 110.736 154.144 106.568C154.144 98.1956 154.063 86.3418 154.005 72.2639L154.284 72.555H116.475C116.405 72.6249 117.081 71.9495 116.801 72.2406V75.501C116.801 76.5956 116.801 77.6785 116.801 78.7614V85.1774C116.801 89.4042 116.801 93.5263 116.801 97.5202C116.801 105.52 116.801 113.007 116.801 119.807L116.533 119.539L143.909 119.679L151.594 119.749H153.632C154.098 119.749 154.342 119.749 154.342 119.749C154.125 119.766 153.907 119.766 153.69 119.749H151.699L144.084 119.819L116.533 119.959H116.266V119.691C116.266 112.891 116.266 105.403 116.266 97.4038C116.266 93.4098 116.266 89.2528 116.266 85.0609V72.2872L116.592 71.9612H154.4H154.692V72.2406C154.692 86.4 154.587 98.312 154.552 106.731C154.552 110.876 154.552 114.148 154.47 116.43C154.47 117.517 154.47 118.367 154.47 118.981C154.47 119.237 154.47 119.458 154.47 119.621C154.47 119.784 154.226 119.865 154.226 119.854Z" fill="#E0E0E0"/>
<path d="M190.337 61.3766H117.875V68.235H190.337V61.3766Z" fill="#F5F5F5"/>
<path d="M190.323 68.2351C190.307 68.0803 190.307 67.9242 190.323 67.7693C190.323 67.4317 190.323 66.9892 190.323 66.4303C190.323 65.2658 190.323 63.5541 190.253 61.3767L190.382 61.5048C178.155 61.6212 150.302 61.7027 117.92 61.7027L118.246 61.3767V68.2118L117.92 67.8858L169.247 68.0255L184.664 68.1187H188.856H189.951H190.347H189.997H188.938H184.816L169.48 68.2118L117.873 68.3399H117.559V61.4L117.873 61.0856C150.256 61.0856 178.108 61.1554 190.335 61.2719H190.463V61.4C190.463 63.6124 190.44 65.3241 190.393 66.5351C190.393 67.0823 190.393 67.5015 190.393 67.8392C190.393 68.1769 190.323 68.2468 190.323 68.2351Z" fill="#E0E0E0"/>
<path d="M190.349 72.2639H158.875V100.944H190.349V72.2639Z" fill="#F5F5F5"/>
<path d="M190.324 100.944C190.311 100.761 190.311 100.579 190.324 100.396V98.8361C190.324 97.4388 190.324 95.4709 190.254 93.014C190.254 87.972 190.173 80.8458 190.115 72.2873L190.394 72.5667H158.955L159.269 72.2523V87.3898C159.269 92.1989 159.269 96.7052 159.269 100.967L158.885 100.629L181.591 100.769L188.03 100.851H189.742H190.359C190.177 100.867 189.994 100.867 189.812 100.851H188.147L181.766 100.92L158.885 101.072H158.605V100.781C158.605 96.5771 158.605 92.0126 158.605 87.2035V79.9724C158.605 78.7149 158.605 77.434 158.605 76.1531V72.2756L158.932 71.9496H190.371H190.639V72.2174C190.58 80.8458 190.534 88.0302 190.499 93.177C190.499 95.6223 190.499 97.5668 190.429 98.9991C190.429 99.6201 190.429 100.121 190.429 100.501C190.411 100.652 190.376 100.801 190.324 100.944Z" fill="#E0E0E0"/>
<path d="M190.349 105.438H158.875V119.854H190.349V105.438Z" fill="#F5F5F5"/>
<path d="M190.326 119.854C190.3 119.505 190.3 119.155 190.326 118.806V115.918C190.326 113.368 190.245 109.817 190.198 105.438L190.431 105.671L158.991 105.764C158.7 106.055 159.376 105.368 159.306 105.45V112.844C159.306 115.254 159.306 117.595 159.306 119.831L159.003 119.528L181.511 119.668L188.067 119.761H189.837H190.477C190.288 119.777 190.097 119.777 189.907 119.761H188.207L181.709 119.842L159.003 119.982H158.7V119.679C158.7 117.444 158.7 115.103 158.7 112.693C158.7 111.528 158.7 110.271 158.7 109.025V105.299C158.63 105.299 159.317 104.681 159.026 104.973L190.466 105.054H190.699V105.275C190.64 109.712 190.605 113.321 190.571 115.895C190.571 117.059 190.571 118.026 190.512 118.736C190.48 119.113 190.418 119.487 190.326 119.854Z" fill="#E0E0E0"/>
<path d="M153.307 72.3455C141.604 88.5193 128.132 103.692 116.43 119.854L153.307 72.3455Z" fill="white"/>
<path d="M116.43 119.854C116.507 119.664 116.613 119.487 116.744 119.33L117.722 117.874C118.596 116.617 119.888 114.835 121.507 112.658C124.767 108.279 129.413 102.364 134.618 95.9017C139.823 89.4391 144.527 83.5705 147.869 79.2737L151.805 74.1852L152.888 72.7996C153.144 72.4968 153.284 72.3338 153.307 72.3454C153.229 72.5383 153.123 72.7187 152.993 72.8811C152.725 73.277 152.41 73.7544 152.014 74.325C151.141 75.5825 149.849 77.3641 148.23 79.5532C144.981 83.9198 140.324 89.835 135.119 96.3092C129.914 102.783 125.209 108.629 121.868 112.926L117.932 118.026C117.489 118.573 117.14 119.027 116.849 119.4C116.558 119.772 116.453 119.865 116.43 119.854Z" fill="#E0E0E0"/>
<path d="M154.229 119.854C154.089 119.97 145.519 109.374 135.074 96.2627C124.63 83.1514 116.281 72.3805 116.444 72.264C116.607 72.1476 125.154 82.7438 135.598 95.8668C146.043 108.99 154.381 119.749 154.229 119.854Z" fill="#E0E0E0"/>
<path d="M109.502 72.3688C109.502 73.5387 109.155 74.6823 108.506 75.6551C107.856 76.6279 106.932 77.386 105.851 77.8337C104.77 78.2814 103.581 78.3986 102.433 78.1703C101.286 77.9421 100.232 77.3787 99.4044 76.5515C98.5772 75.7242 98.0138 74.6702 97.7855 73.5228C97.5573 72.3753 97.6744 71.1859 98.1221 70.1051C98.5699 69.0242 99.328 68.1004 100.301 67.4504C101.274 66.8004 102.417 66.4535 103.587 66.4535C105.156 66.4535 106.661 67.0767 107.77 68.186C108.879 69.2954 109.502 70.7999 109.502 72.3688Z" fill="#E0E0E0"/>
<path d="M206.252 58.0115C206.252 59.1814 205.905 60.325 205.255 61.2978C204.606 62.2706 203.682 63.0287 202.601 63.4764C201.52 63.9241 200.331 64.0413 199.183 63.8131C198.036 63.5848 196.982 63.0214 196.154 62.1942C195.327 61.3669 194.764 60.3129 194.536 59.1655C194.307 58.018 194.424 56.8287 194.872 55.7478C195.32 54.6669 196.078 53.7431 197.051 53.0931C198.024 52.4431 199.167 52.0962 200.337 52.0962C201.906 52.0962 203.411 52.7194 204.52 53.8287C205.629 54.9381 206.252 56.4426 206.252 58.0115Z" fill="#E0E0E0"/>
<path d="M377.913 468.19V494.704H373.488V497.592H377.913V515.338H460.669V499.187H454.544V495.694H460.669V490.419H463.393V488.021H460.156V468.225L377.913 468.19Z" fill="#F5F5F5"/>
<path d="M438.695 468.272V515.035H460.668V498.885H454.543V495.671L460.668 495.776V490.501H463.451L463.393 487.776L460.156 487.694V468.19L438.695 468.272Z" fill="#E0E0E0"/>
<path d="M440.255 497.208C440.255 497.371 425.281 497.499 406.813 497.499C388.346 497.499 373.371 497.371 373.371 497.208C373.371 497.045 388.346 496.917 406.813 496.917C425.281 496.917 440.255 497.045 440.255 497.208Z" fill="#E0E0E0"/>
<path d="M440.255 494.518C440.255 494.681 425.281 494.809 406.813 494.809C388.346 494.809 373.371 494.681 373.371 494.518C373.371 494.355 388.346 494.215 406.813 494.215C425.281 494.215 440.255 494.355 440.255 494.518Z" fill="#E0E0E0"/>
<path d="M444.552 487.217C444.552 487.38 429.578 487.508 411.11 487.508C392.642 487.508 377.668 487.38 377.668 487.217C377.668 487.054 392.642 486.926 411.11 486.926C429.578 486.926 444.552 487.101 444.552 487.217Z" fill="#E0E0E0"/>
<path d="M444.97 507.012C444.97 507.175 429.996 507.315 411.528 507.315C393.06 507.315 378.074 507.175 378.074 507.012C378.074 506.849 393.049 506.721 411.528 506.721C430.007 506.721 444.97 506.861 444.97 507.012Z" fill="#E0E0E0"/>
<path d="M128.052 384.061H191.187C193.317 384.061 195.361 383.214 196.868 381.708C198.375 380.201 199.221 378.157 199.221 376.026V356.569C199.221 354.789 198.87 353.027 198.189 351.382C197.508 349.738 196.51 348.244 195.251 346.985C193.993 345.726 192.498 344.728 190.854 344.047C189.21 343.366 187.447 343.015 185.667 343.015H127.574L128.052 384.061Z" fill="#EBEBEB"/>
<path d="M190.127 396.299H65.9884C64.3741 396.287 62.8299 395.638 61.6917 394.493C60.5534 393.348 59.9132 391.8 59.9102 390.186C59.9132 388.562 60.5595 387.006 61.7075 385.858C62.8555 384.71 64.4115 384.064 66.035 384.061H190.127C191.75 384.064 193.305 384.711 194.451 385.859C195.597 387.007 196.241 388.564 196.241 390.186C196.241 391.807 195.597 393.362 194.45 394.509C193.304 395.655 191.749 396.299 190.127 396.299Z" fill="#EBEBEB"/>
<path d="M40.6867 221.077L108.98 219.913L152.331 383.758L59.9113 384.632L24.9787 241.012C24.3991 238.636 24.3678 236.159 24.8873 233.769C25.4068 231.38 26.4634 229.139 27.977 227.218C29.4907 225.297 31.4216 223.746 33.6237 222.682C35.8257 221.618 38.2411 221.069 40.6867 221.077Z" fill="#E0E0E0"/>
<path d="M74.709 396.299L54.2734 515.047H59.8743L86.7375 396.299H74.709Z" fill="#EBEBEB"/>
<path d="M122.881 396.299L101.164 515.047H106.765L134.909 396.299H122.881Z" fill="#E0E0E0"/>
<path d="M176.165 396.299L200.385 515.047H194.784L164.125 396.299H176.165Z" fill="#EBEBEB"/>
<path d="M101.164 219.866L134.932 383.886H160.852L133.78 238.962C132.787 233.6 129.948 228.754 125.756 225.266C121.563 221.778 116.282 219.867 110.829 219.866H101.164Z" fill="#EBEBEB"/>
<path d="M482.15 515.699C482.15 515.862 374.43 516.001 241.569 516.001C108.709 516.001 0.964844 515.862 0.964844 515.699C0.964844 515.536 108.662 515.396 241.569 515.396C374.476 515.396 482.15 515.524 482.15 515.699Z" fill="#263238"/>
<path d="M176.969 516.037H87.9375L94.6679 451.225L176.969 450.689V516.037Z" fill="#FF4E5A"/>
<g opacity="0.4">
<path d="M176.969 516.037H87.9375L94.6679 451.225L176.969 450.689V516.037Z" fill="black"/>
</g>
<path d="M189.954 450.689H100.922V516.025H189.954V450.689Z" fill="#FF4E5A"/>
<g opacity="0.2">
<path d="M189.954 450.689H100.922V516.025H189.954V450.689Z" fill="black"/>
</g>
<path d="M190.697 482.326C190.697 482.489 170.669 482.629 145.971 482.629C121.274 482.629 101.223 482.489 101.223 482.326C101.223 482.163 121.251 482.012 145.971 482.012C170.692 482.012 190.697 482.152 190.697 482.326Z" fill="#263238"/>
<path d="M116.779 488.614C116.376 485.363 116.376 482.073 116.779 478.822C117.183 482.073 117.183 485.363 116.779 488.614Z" fill="#263238"/>
<path d="M178.682 488.265C178.278 485.364 178.278 482.421 178.682 479.52C179.085 482.421 179.085 485.364 178.682 488.265Z" fill="#263238"/>
<path d="M159.073 451.027C159.073 451.027 159.073 450.317 158.864 449.094C158.553 447.361 157.879 445.714 156.884 444.262C155.417 442.105 153.382 440.397 151.004 439.324C148.074 438.035 144.887 437.433 141.688 437.566C138.471 437.592 135.295 438.303 132.373 439.65C130.008 440.756 127.961 442.442 126.423 444.553C125.392 445.978 124.652 447.592 124.245 449.303C123.966 450.526 123.954 451.225 123.896 451.225C123.878 451.054 123.878 450.883 123.896 450.712C123.898 450.224 123.945 449.737 124.036 449.257C124.362 447.479 125.065 445.792 126.097 444.308C127.632 442.091 129.719 440.313 132.152 439.15C135.12 437.742 138.357 436.995 141.642 436.961C144.93 436.825 148.205 437.463 151.202 438.824C153.65 439.961 155.728 441.765 157.199 444.029C158.195 445.541 158.828 447.262 159.05 449.059C159.093 449.543 159.093 450.03 159.05 450.514C159.087 450.683 159.095 450.856 159.073 451.027Z" fill="#263238"/>
<path d="M125.672 198.673C129.927 196.675 134.711 196.096 139.319 197.02C141.8 197.428 144.385 198.184 146.061 200.024C147.738 201.864 148.064 205.159 146.131 206.755C144.884 207.599 143.381 207.982 141.881 207.837C138.271 207.837 134.277 207.162 131.401 209.328C129.759 210.562 128.665 212.623 126.744 213.229C125.761 213.455 124.731 213.356 123.809 212.946C122.887 212.537 122.123 211.839 121.632 210.958C120.699 209.164 120.491 207.08 121.05 205.136C121.271 203.776 121.803 202.485 122.605 201.364C123.407 200.243 124.456 199.322 125.672 198.673Z" fill="#0099FF"/>
<path d="M116.172 180.311C118.711 183.944 123.636 182.744 125.93 180.532C128.224 178.319 129.179 175.106 130.064 172.055C132.067 165.068 134.093 157.732 132.602 150.618C132.24 148.463 131.294 146.449 129.866 144.796C129.141 143.982 128.215 143.373 127.181 143.03C126.147 142.686 125.041 142.621 123.974 142.839C121.482 143.492 119.933 145.925 118.815 148.254C115.525 155.097 113.802 162.587 113.773 170.18C113.773 173.673 114.169 177.411 116.172 180.322" fill="#0099FF"/>
<path d="M109.198 185.516C110.503 183.814 111.372 181.818 111.73 179.703C112.087 177.589 111.921 175.418 111.247 173.382C109.867 169.292 107.38 165.665 104.063 162.902C100.302 159.572 95.9275 157.009 91.184 155.357C89.3394 154.604 87.3517 154.266 85.3619 154.367C84.3734 154.424 83.4138 154.722 82.5673 155.236C81.7208 155.749 81.0131 156.463 80.5063 157.313C79.1439 159.898 80.5063 163.031 81.8454 165.581C84.3255 170.089 87.156 174.395 90.3107 178.459C92.8375 181.731 95.7486 184.957 99.6261 186.424C103.504 187.891 107.509 187.728 109.559 185.05" fill="#0099FF"/>
<path d="M115.998 235.003C116.127 234.461 116.205 233.907 116.231 233.35C116.348 232.185 116.487 230.648 116.662 228.855C116.888 226.643 117.226 224.443 117.675 222.265C118.261 219.611 119.064 217.009 120.074 214.486C121.057 211.962 122.394 209.59 124.045 207.442C125.39 205.692 127.108 204.264 129.075 203.261C130.394 202.602 131.809 202.154 133.267 201.934C133.821 201.913 134.371 201.835 134.909 201.701C134.351 201.641 133.789 201.641 133.232 201.701C131.708 201.83 130.219 202.224 128.83 202.865C126.759 203.842 124.942 205.285 123.521 207.081C121.8 209.257 120.414 211.679 119.41 214.265C118.408 216.829 117.629 219.474 117.081 222.171C116.655 224.38 116.364 226.612 116.208 228.855C116.068 230.765 116.01 232.348 115.987 233.373C115.933 233.915 115.937 234.462 115.998 235.003Z" fill="#263238"/>
<path d="M116.302 231.545C116.337 231.29 116.337 231.032 116.302 230.777V228.587C116.302 226.701 116.302 223.93 116.395 220.565C116.558 213.776 117.152 206.487 118.27 196.193C119.341 186.529 120.774 175.234 122.287 167.944C122.613 166.279 122.939 164.789 123.242 163.473C123.545 162.157 123.789 161.028 124.034 160.108C124.279 159.188 124.407 158.547 124.546 157.989C124.619 157.742 124.662 157.488 124.674 157.232C124.555 157.46 124.465 157.703 124.407 157.954L123.778 160.038C123.498 160.946 123.207 162.076 122.881 163.391C122.555 164.707 122.171 166.186 121.822 167.851C119.943 176.506 118.532 185.256 117.595 194.062C116.43 204.367 115.965 213.753 115.918 220.553C115.918 223.953 115.918 226.701 116.034 228.599C116.034 229.484 116.128 230.206 116.162 230.788C116.185 231.044 116.232 231.298 116.302 231.545Z" fill="#263238"/>
<path d="M116.349 213.438C116.415 212.663 116.415 211.884 116.349 211.109C116.267 209.642 116.058 207.523 115.65 204.926C115.15 201.886 114.477 198.877 113.636 195.914C112.653 192.267 111.392 188.701 109.863 185.248C107.253 178.879 103.504 173.039 98.8008 168.014C97.9864 167.15 97.1151 166.34 96.1925 165.592C95.7966 165.255 95.4473 164.917 95.0281 164.649L94.015 163.95C93.4084 163.509 92.7657 163.12 92.0938 162.786C94.3111 164.521 96.4153 166.395 98.3933 168.399C102.942 173.468 106.593 179.276 109.187 185.574C110.683 189.01 111.947 192.542 112.972 196.147C113.838 199.081 114.553 202.058 115.114 205.066C115.592 207.64 115.86 209.724 116.023 211.191C116.076 211.947 116.185 212.698 116.349 213.438Z" fill="#263238"/>
<path d="M98.8594 245.378L100.664 270.227H132.593L134.409 245.378H98.8594Z" fill="#263238"/>
<path d="M138.217 235.574H95.7734V245.367H138.217V235.574Z" fill="#263238"/>
<path d="M95.7734 269.272V271.985H97.7646H137.518V269.272H95.7734Z" fill="#455A64"/>
<path d="M99.7179 276.771L97.7617 271.985H135.99L133.707 276.771H99.7179Z" fill="#455A64"/>
<path d="M133.815 253.494C133.815 253.494 133.815 253.576 133.663 253.727L133.186 254.356L131.335 256.685L131.241 256.801L131.172 256.685L126.595 250.362H126.863L122.357 256.732L122.217 256.941L122.066 256.743C120.401 254.775 118.573 252.633 116.733 250.397H117.036L116.744 250.77L111.97 256.743L111.807 256.941L111.668 256.732L107.161 250.374H107.429L101.886 256.685L101.782 256.801L101.712 256.673L99.9767 253.751L99.5343 252.982C99.4753 252.896 99.4283 252.802 99.3945 252.703C99.4644 252.778 99.5268 252.86 99.5808 252.947L100.07 253.692L101.898 256.557H101.723L107.173 250.164L107.313 250.001L107.441 250.176C108.815 252.097 110.34 254.24 111.982 256.51H111.668L116.43 250.514L116.721 250.153L116.872 249.955L117.036 250.141C118.899 252.377 120.692 254.531 122.357 256.51H122.054L126.595 250.164L126.735 249.978L126.863 250.164L131.335 256.557H131.172C131.987 255.59 132.639 254.81 133.105 254.228L133.629 253.634C133.685 253.58 133.747 253.533 133.815 253.494Z" fill="#E0E0E0"/>
<path d="M134.849 245.215C134.849 245.32 126.85 245.413 116.987 245.413C107.125 245.413 99.1133 245.32 99.1133 245.215C99.1133 245.111 107.113 245.017 116.964 245.017C126.815 245.017 134.849 245.099 134.849 245.215Z" fill="#455A64"/>
<path d="M136.47 272.253C136.47 272.37 127.772 272.451 117.048 272.451C106.323 272.451 97.6367 272.37 97.6367 272.253C97.6367 272.137 106.323 272.055 117.048 272.055C127.772 272.055 136.47 272.148 136.47 272.253Z" fill="#263238"/>
<path d="M301.641 277.318H395.121V272.777H301.641V277.318Z" fill="#263238"/>
<path d="M409.61 277.318L427.146 211.622H354.148L338.277 277.318H409.61Z" fill="#263238"/>
<path d="M342.652 272.346H407.848L423.032 214.661H357.487L342.652 272.346Z" fill="#455A64"/>
<path d="M408.306 272.964H341.934L357.071 214.102H423.816L408.306 272.964ZM343.401 271.799H407.444L422.314 215.266H358.003L343.401 271.799Z" fill="#263238"/>
<path d="M113.704 290.081H108.988V515.466H113.704V290.081Z" fill="#455A64"/>
<path d="M118.435 290.721H113.719V515.454H118.435V290.721Z" fill="#263238"/>
<path d="M404.544 290.081H399.828V515.466H404.544V290.081Z" fill="#455A64"/>
<path d="M409.259 290.721H404.543V515.454H409.259V290.721Z" fill="#263238"/>
<path d="M475.13 276.981H54.2734V295.472H475.13V276.981Z" fill="#455A64"/>
<path d="M402.193 295.472H244.332V326.073H402.193V295.472Z" fill="#455A64"/>
<path d="M330.299 308.653C330.299 309.344 330.094 310.019 329.71 310.594C329.326 311.168 328.781 311.616 328.143 311.88C327.504 312.145 326.802 312.214 326.124 312.079C325.447 311.944 324.824 311.612 324.336 311.123C323.847 310.635 323.514 310.012 323.38 309.335C323.245 308.657 323.314 307.955 323.578 307.316C323.843 306.678 324.291 306.132 324.865 305.749C325.44 305.365 326.115 305.16 326.806 305.16C327.732 305.16 328.621 305.528 329.276 306.183C329.931 306.838 330.299 307.727 330.299 308.653Z" fill="#263238"/>
<path d="M436.577 295.472C436.577 295.635 381.849 295.775 314.429 295.775C247.009 295.775 192.281 295.635 192.281 295.472C192.281 295.309 247.009 295.169 314.429 295.169C381.849 295.169 436.577 295.309 436.577 295.472Z" fill="#263238"/>
<path d="M290.908 77.9463C291.537 77.9463 300.049 79.3669 300.049 79.3669L311.565 93.8756L313.3 96.6236L297.766 106.556L290.908 96.4024L285.086 92.618C285.953 91.9559 286.985 91.5458 288.07 91.4328C289.155 91.3198 290.25 91.5083 291.234 91.9776C293.529 92.9427 295.999 93.4262 298.488 93.3982L296.439 87.5761L290.128 86.3185L290.908 77.9463Z" fill="#EB996E"/>
<path d="M291.632 67.7926C291.874 67.7293 292.126 67.7176 292.372 67.7581C292.619 67.7986 292.854 67.8905 293.063 68.0277C293.271 68.165 293.449 68.3445 293.583 68.5548C293.718 68.765 293.807 69.0012 293.845 69.2481C294.788 75.1983 297.641 93.1071 298.502 98.3586C298.575 98.7767 298.489 99.2069 298.26 99.5646C298.032 99.9222 297.678 100.182 297.268 100.292L283.563 104.122C283.326 104.19 283.078 104.205 282.835 104.167C282.592 104.13 282.36 104.039 282.155 103.903C281.951 103.767 281.778 103.588 281.649 103.379C281.52 103.169 281.438 102.934 281.409 102.69L277.659 72.9626C277.603 72.5276 277.708 72.0871 277.955 71.7244C278.202 71.3618 278.573 71.1022 278.998 70.9947L291.632 67.7926Z" fill="#263238"/>
<path d="M282.432 100.455L296.405 96.5538L292.702 71.8215C292.653 71.4883 292.534 71.1694 292.353 70.8856C292.171 70.6018 291.932 70.3596 291.651 70.1748C291.369 69.99 291.052 69.867 290.719 69.8136C290.387 69.7602 290.047 69.7778 289.721 69.8652L278.531 72.8345L282.432 100.455Z" fill="#EBEBEB"/>
<path d="M296.112 82.3595L289.836 87.0172C289.836 87.0172 290.36 88.6707 291.315 88.7871C293.349 88.5212 295.358 88.0929 297.323 87.5062L296.112 82.3595Z" fill="#EB996E"/>
<path d="M295.355 78.5984L288.776 81.4861C288.776 81.4861 288.357 83.6287 290.814 83.3259L288.613 84.9095C288.613 84.9095 289.161 85.8644 291.909 85.9808C294.657 86.0973 297.323 82.278 297.323 82.278L295.355 78.5984Z" fill="#EB996E"/>
<path d="M301.891 85.9226C301.891 86.0041 301.087 85.8527 300.214 85.0376C299.733 84.5872 299.227 84.1635 298.7 83.7684C298.404 83.5504 298.057 83.4123 297.692 83.3674C297.326 83.3226 296.956 83.3724 296.616 83.5122C294.789 84.564 292.881 85.4674 290.91 86.2137C292.613 84.92 294.457 83.8224 296.406 82.9416C296.852 82.76 297.339 82.7036 297.815 82.7786C298.235 82.8775 298.631 83.0596 298.98 83.3142C299.525 83.7345 300.024 84.2106 300.47 84.7348C300.915 85.1632 301.39 85.5601 301.891 85.9226Z" fill="#D1734A"/>
<path d="M300.596 102.318C299.469 100.955 298.768 99.2911 298.581 97.5327C298.395 95.7742 298.731 93.9999 299.548 92.4316C299.229 94.0882 299.108 95.7768 299.187 97.4619C299.461 99.131 299.934 100.761 300.596 102.318Z" fill="#D1734A"/>
<path d="M299.78 81.4978C299.699 81.5676 299.35 81.0669 298.511 80.7991C297.39 80.4861 296.19 80.624 295.169 81.1834C293.935 81.7772 292.84 82.5341 291.967 82.8951C291.094 83.256 290.477 83.3375 290.465 83.2677C290.453 83.1978 290.977 82.9882 291.769 82.5108C292.561 82.0334 293.586 81.2649 294.925 80.6361C295.557 80.3198 296.246 80.1337 296.951 80.0888C297.538 80.0543 298.126 80.1622 298.663 80.4032C299.536 80.834 299.78 81.4745 299.78 81.4978Z" fill="#D1734A"/>
<path d="M299.234 122.753L333.457 144.726L324.386 170.669C324.386 170.669 300.969 163.438 301.4 162.681C301.831 161.924 299.234 122.753 299.234 122.753Z" fill="#0099FF"/>
<path d="M290.384 473.919L284.992 498.71C284.992 498.71 308.386 512.508 307.838 517.178L259.398 508.468L266.199 469.495L290.384 473.919Z" fill="#263238"/>
<path d="M259.398 508.468L260.237 504.567L306.371 514.383C306.371 514.383 308.351 515.71 307.838 517.178L259.398 508.468Z" fill="#455A64"/>
<path d="M235.284 476.644L234.481 501.993C234.481 501.993 259.993 511.309 260.296 516.025L211.076 516.246L210.703 476.656L235.284 476.644Z" fill="#263238"/>
<g opacity="0.6">
<path d="M211.074 516.246L211.191 512.252L258.338 513.545C258.338 513.545 260.539 514.488 260.294 516.025L211.074 516.246Z" fill="#455A64"/>
</g>
<path d="M242.421 60.8759L247.439 119.097L276.55 116.768C276.724 113.368 276.48 100.21 276.48 100.21C276.48 100.21 288.601 98.3237 288.753 86.237C288.823 80.345 287.984 68.1885 287.099 57.2313C286.643 51.382 283.912 45.9446 279.493 42.0851C275.075 38.2256 269.319 36.2515 263.462 36.5861C260.471 36.7604 257.546 37.532 254.859 38.8553C252.172 40.1786 249.777 42.0268 247.815 44.2909C245.854 46.555 244.366 49.189 243.44 52.0375C242.513 54.886 242.167 57.8913 242.421 60.8759Z" fill="#EB996E"/>
<path d="M276.493 99.9888C270.896 100.09 265.396 98.5259 260.691 95.4941C260.691 95.4941 264.429 104.216 276.516 103.121L276.493 99.9888Z" fill="#D1734A"/>
<path d="M282.431 65.6966C282.434 66.1488 282.261 66.5845 281.948 66.9107C281.634 67.237 281.206 67.4281 280.754 67.4432C280.534 67.4606 280.313 67.4338 280.103 67.3644C279.894 67.2949 279.7 67.1842 279.534 67.0388C279.368 66.8933 279.233 66.7161 279.137 66.5176C279.04 66.3191 278.984 66.1033 278.973 65.8829C278.969 65.4326 279.141 64.9986 279.452 64.6727C279.763 64.3467 280.188 64.1544 280.638 64.1363C280.858 64.1188 281.08 64.1456 281.291 64.2149C281.501 64.2843 281.695 64.3948 281.862 64.5401C282.029 64.6853 282.165 64.8624 282.263 65.061C282.361 65.2596 282.418 65.4757 282.431 65.6966Z" fill="#263238"/>
<path d="M284.527 63.2514C284.318 63.4842 283.002 62.5061 281.139 62.5178C279.276 62.5294 277.913 63.4493 277.715 63.2281C277.517 63.0068 277.832 62.7157 278.426 62.2849C279.234 61.7278 280.192 61.4312 281.174 61.4348C282.144 61.4314 283.09 61.7373 283.875 62.3082C284.446 62.739 284.644 63.1582 284.527 63.2514Z" fill="#263238"/>
<path d="M264.544 65.6966C264.551 66.1477 264.38 66.5834 264.068 66.91C263.757 67.2365 263.33 67.428 262.879 67.4432C262.659 67.4606 262.437 67.4339 262.226 67.3646C262.016 67.2952 261.822 67.1847 261.655 67.0394C261.488 66.8941 261.352 66.717 261.254 66.5184C261.156 66.3199 261.099 66.1038 261.086 65.8829C261.086 65.4315 261.26 64.9975 261.573 64.6719C261.885 64.3463 262.312 64.1543 262.763 64.1363C262.982 64.1204 263.203 64.1484 263.412 64.2185C263.621 64.2885 263.814 64.3993 263.979 64.5445C264.145 64.6896 264.28 64.8661 264.377 65.0639C264.474 65.2617 264.531 65.4767 264.544 65.6966Z" fill="#263238"/>
<path d="M266.223 63.6006C266.013 63.8219 264.697 62.8554 262.834 62.8671C260.971 62.8787 259.609 63.7986 259.411 63.5657C259.213 63.3328 259.527 63.065 260.121 62.6342C260.924 62.068 261.886 61.7704 262.869 61.7841C263.84 61.7766 264.788 62.0829 265.571 62.6575C266.141 63.0883 266.327 63.4958 266.223 63.6006Z" fill="#263238"/>
<path d="M273 77.4106C273.982 77.1039 274.999 76.9201 276.027 76.8633C276.493 76.8633 276.947 76.7236 277.028 76.3976C277.066 75.9071 276.957 75.4165 276.714 74.9886C276.26 73.8242 275.794 72.6598 275.305 71.3673C273.349 66.2089 271.94 61.9704 272.15 61.9005C272.359 61.8307 274.106 65.9411 276.062 71.0878C276.528 72.3687 276.982 73.5797 277.401 74.7325C277.702 75.3086 277.792 75.9715 277.657 76.6072C277.588 76.7756 277.481 76.9255 277.343 77.0448C277.206 77.1641 277.042 77.2495 276.865 77.2942C276.604 77.3679 276.334 77.4071 276.062 77.4106C275.046 77.5437 274.016 77.5437 273 77.4106Z" fill="#263238"/>
<path d="M267.502 78.7032C267.805 78.7032 267.805 80.706 269.54 82.1965C271.275 83.6869 273.417 83.3609 273.44 83.6986C273.464 84.0363 272.963 84.0828 272.043 84.1061C270.857 84.1132 269.706 83.7008 268.794 82.9417C267.89 82.2241 267.308 81.1771 267.176 80.0306C267.176 79.1923 267.362 78.6916 267.502 78.7032Z" fill="#263238"/>
<path d="M266.713 56.2997C266.526 56.8121 264.663 56.5675 262.474 56.8353C260.285 57.1032 258.527 57.697 258.236 57.2429C258.108 57.0216 258.41 56.5442 259.132 56.0785C260.081 55.474 261.157 55.0956 262.275 54.9725C263.393 54.8493 264.525 54.9847 265.583 55.3682C266.387 55.6593 266.782 56.0668 266.713 56.2997Z" fill="#263238"/>
<path d="M283.851 57.86C283.525 58.2908 282.233 57.86 280.696 57.86C279.159 57.86 277.843 58.1511 277.54 57.7086C277.412 57.4874 277.622 57.0682 278.192 56.6606C278.96 56.1833 279.852 55.944 280.755 55.9731C281.659 56.0021 282.534 56.298 283.269 56.8236C283.816 57.2195 283.991 57.662 283.851 57.86Z" fill="#263238"/>
<path d="M255.532 47.5898H255.462C253.548 49.1214 252.297 51.3315 251.969 53.7612V54.0058C251.491 57.499 251.585 60.9923 251.072 64.4855C250.56 67.9788 249.372 71.4721 246.81 73.8009C245.762 74.779 243.911 75.4544 243.049 74.3133C242.754 73.8387 242.605 73.2882 242.619 72.7297C241.966 64.3808 239.684 56.975 239.707 48.2768C239.695 47.1074 239.962 45.952 240.487 44.9068C241.011 43.8616 241.778 42.957 242.723 42.2684C244.551 40.9642 246.776 39.6019 248.813 40.5683C250.851 41.5348 253.471 45.3308 255.043 46.9377" fill="#263238"/>
<path d="M246.509 66.3603C246.299 66.2672 238.183 63.8918 238.44 72.1824C238.696 80.4731 246.975 78.4936 246.975 78.2607C246.975 78.0278 246.509 66.3603 246.509 66.3603Z" fill="#EB996E"/>
<path d="M244.342 75.1982C244.342 75.1982 244.203 75.303 243.97 75.4195C243.63 75.5788 243.242 75.5997 242.887 75.4777C242.342 75.1562 241.892 74.6957 241.583 74.1434C241.274 73.591 241.117 72.9665 241.129 72.3337C241.086 71.6226 241.201 70.9107 241.466 70.2494C241.533 69.9847 241.663 69.7402 241.846 69.5373C242.029 69.3344 242.258 69.1791 242.514 69.085C242.679 69.0372 242.856 69.0469 243.014 69.1125C243.173 69.178 243.305 69.2957 243.388 69.446C243.504 69.6789 243.458 69.8419 243.504 69.8535C243.551 69.8652 243.667 69.7138 243.597 69.3761C243.544 69.1701 243.42 68.989 243.248 68.8638C243.012 68.7057 242.726 68.6395 242.444 68.6775C242.107 68.76 241.796 68.9258 241.54 69.1598C241.284 69.3938 241.09 69.6884 240.977 70.0165C240.648 70.7464 240.504 71.5464 240.558 72.3454C240.663 74.0222 241.571 75.5475 242.771 75.8386C242.996 75.8956 243.231 75.9011 243.459 75.8548C243.687 75.8084 243.901 75.7114 244.086 75.5708C244.342 75.3962 244.377 75.2099 244.342 75.1982Z" fill="#D1734A"/>
<path d="M248.546 41.8492C246.509 38.5306 252.098 33.7682 256.185 32.5339C260.272 31.2996 265.663 33.2325 269.727 34.5832C272.301 35.4333 274.851 36.621 277.564 36.5162C279.37 36.3238 281.138 35.8728 282.815 35.1771C284.491 34.4684 286.294 34.1117 288.114 34.1291C289.022 34.1484 289.908 34.4157 290.676 34.9021C291.443 35.3885 292.063 36.0755 292.468 36.8888C293.155 38.5656 292.177 40.8711 290.373 41.1157C290.948 40.8029 291.59 40.6339 292.245 40.623C292.9 40.6121 293.548 40.7596 294.133 41.053C294.719 41.3463 295.225 41.7769 295.608 42.3079C295.991 42.8389 296.241 43.4548 296.335 44.1029C296.429 44.751 296.365 45.4123 296.148 46.0303C295.931 46.6484 295.569 47.2049 295.091 47.6526C294.613 48.1002 294.034 48.4257 293.403 48.6013C292.772 48.7769 292.108 48.7974 291.467 48.6611C292.631 47.7645 294.448 49.2433 294.297 50.7105C294.138 51.435 293.794 52.1058 293.298 52.6571C292.802 53.2083 292.171 53.6209 291.467 53.8544C287.974 55.3682 283.98 54.8791 280.405 53.6798C276.83 52.4804 273.512 50.6057 269.925 49.3132C266.339 48.0207 260.435 45.6918 256.884 46.9843C254.264 47.9159 250.957 50.3728 250.957 50.3728L249.203 48.8216C248.748 48.1745 248.451 47.4295 248.337 46.6467C248.141 45.0954 248.196 43.5228 248.5 41.989" fill="#263238"/>
<path d="M291.363 40.8479C291.293 40.8479 290.944 41.4534 290.047 42.4199C288.779 43.77 287.2 44.7894 285.448 45.3891C282.871 46.3153 280.036 46.2026 277.541 45.0747C274.723 43.8055 272.313 41.2438 269.507 38.9149C266.934 36.5043 263.682 34.9432 260.191 34.4436C258.75 34.2669 257.288 34.4215 255.916 34.8958C254.544 35.37 253.298 36.1512 252.273 37.18C251.613 37.8985 251.105 38.7438 250.78 39.6645C250.456 40.5853 250.322 41.5623 250.387 42.5363C250.433 43.0596 250.554 43.5734 250.748 44.0617C250.899 44.3877 250.992 44.5507 251.016 44.5391C250.859 43.8768 250.754 43.2033 250.701 42.5247C250.703 40.6802 251.416 38.9075 252.692 37.5759C253.683 36.6397 254.871 35.9381 256.169 35.5229C257.467 35.1077 258.842 34.9896 260.191 35.1772C263.51 35.7048 266.593 37.2181 269.041 39.5204C271.766 41.8493 274.258 44.4459 277.273 45.7617C279.497 46.7119 281.967 46.9204 284.318 46.3562C286.67 45.792 288.777 44.4852 290.327 42.6295C290.658 42.2338 290.947 41.8045 291.188 41.3486C291.316 41.0342 291.386 40.8595 291.363 40.8479Z" fill="#455A64"/>
<path d="M244.391 65.9994C244.391 65.9994 244.752 65.7665 245.066 65.1144C245.475 64.1693 245.62 63.1311 245.486 62.1102C245.299 59.4437 242.935 56.5792 242.633 52.888C242.422 51.183 242.743 49.4546 243.553 47.9392C244.259 46.7419 245.339 45.8093 246.627 45.2843C247.501 44.9157 248.457 44.7831 249.398 44.9001C250.062 45.0165 250.423 45.1679 250.458 45.098C250.18 44.8428 249.838 44.6695 249.468 44.5973C248.464 44.3358 247.404 44.3846 246.429 44.737C244.976 45.249 243.743 46.2436 242.935 47.5549C242.006 49.1981 241.627 51.0953 241.853 52.9695C242.068 54.7898 242.608 56.5567 243.448 58.1861C244.113 59.4529 244.603 60.8044 244.903 62.2034C245.132 63.4912 244.953 64.8183 244.391 65.9994Z" fill="#455A64"/>
<path d="M293.027 495.182C293.027 495.182 318.26 371.404 318.283 368.935L273.209 345.158L255.742 490.419L293.027 495.182Z" fill="#263238"/>
<path d="M236.276 499.327L271.127 284.806V238.532L220.661 242.141C220.055 243.946 207.328 499.606 207.328 499.606L212.242 499.327H236.276Z" fill="#263238"/>
<path d="M298.525 235.26L318.286 368.935L274.107 358.222L256.105 239.614L298.525 235.26Z" fill="#263238"/>
<path d="M306.14 292.84C306.14 292.84 313.825 286.238 314.582 281.266C315.339 276.294 305.371 196.263 305.371 196.263L300.283 130.101C300.283 131.265 300.423 121.763 298.886 121.193C294.228 119.435 284.656 116.244 284.656 116.244L279.184 111.33C279.184 111.33 289.011 153.343 290.921 164.824L306.14 292.84Z" fill="#0099FF"/>
<path d="M243.038 106.766L234.771 112.273L203.762 124.465L217.537 176.41L215.686 206.592L213.928 225.746C213.928 225.746 204.694 273.173 196.543 301.993C196.543 301.993 205.637 319.226 213.113 321.625L216.222 323.476L227.307 242.304L236.82 229.496C237.74 228.261 238.59 226.992 239.394 225.688C241.723 221.88 247.056 213.229 251.306 206.557C256.918 197.742 264.114 177.714 261.983 169.167C259.853 160.62 243.038 106.766 243.038 106.766Z" fill="#0099FF"/>
<path d="M221.977 285.842C229.237 279.967 235.267 272.718 239.722 264.51L221.977 285.842Z" fill="#263238"/>
<path d="M243.039 106.766L250.503 154.658C250.3 160.781 249.286 166.851 247.487 172.707L234.166 215.79C234.166 215.79 223.686 239.277 227.308 242.281C230.929 245.285 259.097 242.281 259.097 242.281L297.22 236.75C298.07 236.626 298.84 236.179 299.371 235.503C299.902 234.827 300.153 233.973 300.073 233.117L294.413 174.64C292.504 170.599 291.724 162.332 290.92 159.398L279.183 111.342L276.784 111.028L271.567 114.602L268.819 114.824L245.752 103.657L243.039 106.766Z" fill="#EBEBEB"/>
<path d="M236.088 209.537C242.248 190.336 250.224 159.118 250.224 159.118C252.704 175.42 249.991 192.129 243.924 207.5C238.964 220.029 232.967 229.507 228.845 242.351L228.717 242.875C228.717 242.875 226.388 243.003 226.551 239.568C226.714 236.133 230.044 225.909 232.268 220.25C234.493 214.591 236.088 209.537 236.088 209.537Z" fill="#E0E0E0"/>
<path d="M272.894 118.666H267.713L266.164 125.757L270.694 131.242L275.258 130.788L276.749 125.699L275.526 122.858L272.894 118.666Z" fill="#FF4E5A"/>
<path d="M303.113 160.073C304.743 160.399 322.745 172.509 329.289 171.205C335.833 169.901 341.131 163.729 341.83 162.902C345.544 158.501 343.215 149.36 342.144 145.914C341.883 145.073 341.528 144.264 341.084 143.503L313.29 95.762L296.906 105.718L313.907 136.726L303.113 160.073Z" fill="#0099FF"/>
<path d="M169.052 217.793C167.975 214.977 167.507 211.963 167.68 208.953C167.852 205.942 168.661 203.002 170.053 200.327C173.826 192.863 179.811 180.811 181.069 176.852C182.932 170.972 200.351 125.851 203.763 124.453L218.901 175.56L201.318 212.588L221.928 251.422L204.753 269.936C204.753 269.936 172.254 224.617 169.576 219.016C169.389 218.612 169.215 218.205 169.052 217.793Z" fill="#0099FF"/>
<path d="M222.741 281.72C225.992 278.678 228.879 275.271 231.346 271.566C231.324 271.517 231.312 271.463 231.312 271.409C231.312 271.355 231.324 271.301 231.346 271.252C231.386 271.194 231.438 271.145 231.498 271.109C231.559 271.073 231.626 271.05 231.696 271.042C232.682 269.513 233.584 267.931 234.397 266.303C231.521 264.428 227.76 261.645 231.847 261.017C236.889 260.295 240.487 257.849 241 256.51C241.512 255.171 239.835 253.972 238.508 254.822C236.98 255.606 235.349 256.17 233.664 256.499C232.318 256.816 230.928 256.903 229.553 256.755C227.958 256.58 221.402 253.739 220.238 253.529L207.977 266.431C207.977 266.431 217.397 276.457 222.741 281.72Z" fill="#EB996E"/>
<path d="M302.994 161.493C302.793 161.035 302.648 160.554 302.563 160.061C302.318 159.13 302.016 157.732 301.678 156.067C300.816 151.659 300.182 147.209 299.78 142.735C299.38 138.26 299.216 133.766 299.291 129.274C299.291 127.551 299.384 126.165 299.454 125.198C299.464 124.698 299.518 124.199 299.617 123.708C299.699 124.204 299.723 124.708 299.687 125.21C299.687 126.293 299.687 127.655 299.687 129.274C299.687 132.767 299.885 137.425 300.351 142.688C300.816 147.951 301.515 152.609 302.074 155.997C302.342 157.593 302.575 158.943 302.761 160.015C302.885 160.499 302.963 160.994 302.994 161.493Z" fill="#263238"/>
<path d="M317.248 164.253C317.248 164.253 317.108 164.253 316.852 164.16C316.492 164.029 316.145 163.865 315.815 163.671C314.603 162.921 313.589 161.89 312.858 160.667C311.835 158.856 311.119 156.889 310.739 154.845C310.143 152.376 309.68 149.876 309.353 147.357C308.864 141.978 308.456 137.145 308.188 133.629C308.072 131.964 307.979 130.566 307.897 129.46C307.842 128.949 307.842 128.434 307.897 127.923C308.028 128.419 308.114 128.926 308.154 129.437C308.27 130.601 308.433 131.929 308.619 133.582C309.004 137.076 309.481 141.954 309.958 147.288C310.296 149.942 310.797 152.458 311.297 154.717C311.634 156.746 312.286 158.711 313.23 160.539C313.909 161.733 314.839 162.766 315.955 163.566C316.794 164.02 317.306 164.207 317.248 164.253Z" fill="#263238"/>
<g opacity="0.3">
<path d="M307.863 127.97C306.444 133.335 305.463 138.806 304.928 144.33C304.438 147.626 304.612 150.988 305.441 154.216C306.442 157.383 308.783 160.306 311.996 161.202C310.529 150.397 309.237 139.571 308.119 128.727" fill="black"/>
</g>
<g opacity="0.3">
<path d="M212.52 232.663C212.52 232.663 217.969 243.83 220.985 249.675C227.273 223.697 219.296 196.356 221.893 169.761L217.352 178.925L216.071 200.129L215.093 212.565C215.093 212.565 214.161 225.944 212.52 232.663Z" fill="black"/>
</g>
<path d="M216.922 124.942C217.274 125.393 217.582 125.877 217.842 126.386C218.133 126.864 218.459 127.458 218.808 128.156C219.158 128.855 219.588 129.658 219.973 130.567C220.922 132.689 221.743 134.866 222.43 137.087C224.086 142.546 224.918 148.221 224.898 153.925C224.892 156.262 224.733 158.595 224.421 160.911C224.328 161.901 224.141 162.786 224.002 163.555C223.862 164.323 223.722 164.998 223.594 165.534C223.49 166.1 223.33 166.654 223.117 167.188C223.148 166.615 223.23 166.046 223.361 165.488C223.454 164.94 223.571 164.323 223.676 163.496C223.78 162.67 223.92 161.843 224.002 160.865C224.241 158.571 224.354 156.266 224.339 153.96C224.303 151.143 224.089 148.331 223.699 145.541C223.269 142.754 222.666 139.997 221.894 137.285C221.243 135.073 220.465 132.899 219.565 130.776C219.216 129.856 218.808 129.064 218.494 128.342C218.179 127.621 217.877 127.027 217.621 126.538C217.335 126.031 217.101 125.496 216.922 124.942Z" fill="#263238"/>
<path d="M201.156 212.903C201.074 212.961 200.294 211.738 198.827 209.817C196.87 207.396 194.548 205.294 191.945 203.587C190.551 202.645 188.866 202.232 187.194 202.423C185.837 202.673 184.552 203.222 183.433 204.03C181.465 205.381 180.394 206.44 180.312 206.359C180.502 206.056 180.738 205.785 181.011 205.555C181.692 204.876 182.419 204.245 183.189 203.669C184.333 202.804 185.659 202.21 187.066 201.934C188.867 201.677 190.698 202.091 192.213 203.098C194.882 204.833 197.22 207.029 199.118 209.584C199.693 210.351 200.222 211.152 200.702 211.983C200.9 212.264 201.053 212.574 201.156 212.903Z" fill="#263238"/>
<path d="M197.31 200.665C199.621 204.192 200.948 208.272 201.153 212.484C200.967 212.484 200.512 209.759 199.441 206.51C198.37 203.261 197.182 200.769 197.31 200.665Z" fill="#263238"/>
<path d="M212.158 231.941C212.492 232.411 212.784 232.91 213.031 233.431L215.243 237.612C217.095 241.163 219.622 246.112 222.428 251.666L222.533 251.864L222.381 252.016L221.217 253.18C216.641 257.942 212.484 262.239 209.445 265.313L205.823 268.946C205.397 269.41 204.934 269.839 204.438 270.227C204.785 269.714 205.174 269.231 205.602 268.783L209.095 265.022C212.053 261.855 216.175 257.523 220.739 252.761L221.904 251.596V251.946C219.109 246.38 216.641 241.466 214.917 237.798L212.88 233.536C212.587 233.029 212.346 232.495 212.158 231.941Z" fill="#263238"/>
<path d="M234.843 208.513C234.813 208.176 234.813 207.837 234.843 207.5C234.843 206.789 234.843 205.835 234.843 204.624C234.902 202.074 234.983 198.464 235.088 194.039C235.193 189.614 235.309 184.258 235.554 178.354C235.702 171.919 236.577 165.52 238.162 159.281C239.042 156.084 240.276 152.994 241.842 150.071L242.063 150.513C240.613 150.265 239.296 149.52 238.337 148.405C237.422 147.361 236.757 146.123 236.392 144.784C235.859 142.307 235.655 139.769 235.787 137.239C235.787 132.499 235.787 128.261 235.787 124.721C235.787 121.181 235.787 118.422 235.787 116.419C235.787 115.487 235.787 114.742 235.787 114.183C235.759 113.928 235.759 113.67 235.787 113.415C235.831 113.668 235.85 113.926 235.845 114.183C235.845 114.742 235.845 115.487 235.903 116.419C235.903 118.422 235.973 121.228 236.031 124.709C236.089 128.191 236.113 132.488 236.159 137.239C236.043 139.72 236.254 142.206 236.788 144.633C237.136 145.881 237.761 147.036 238.616 148.009C239.484 149.021 240.679 149.697 241.993 149.919L242.412 149.989L242.214 150.362C240.671 153.244 239.457 156.291 238.593 159.444C237.025 165.64 236.143 171.989 235.961 178.378C235.693 184.27 235.542 189.591 235.356 194.062C235.169 198.534 235.03 202.074 234.925 204.635L234.785 207.511C234.821 207.844 234.841 208.178 234.843 208.513Z" fill="#263238"/>
<path d="M284.738 116.931C284.855 117.134 284.948 117.349 285.018 117.572C285.181 118.061 285.414 118.736 285.681 119.446L288.092 126.433C289.093 129.425 290.293 132.977 291.585 136.913C292.226 138.927 293.017 140.976 293.611 143.247C293.93 144.428 293.982 145.665 293.763 146.868C293.649 147.511 293.407 148.123 293.05 148.669C292.694 149.216 292.232 149.684 291.69 150.047L291.783 149.616C292.761 151.072 293.797 152.621 294.764 154.274C296.217 156.615 297.315 159.157 298.024 161.82C298.569 164.327 298.745 166.9 298.548 169.458C298.269 174.291 297.954 178.634 297.698 182.267C297.442 185.9 297.221 188.811 297.058 190.918C296.976 191.885 296.906 192.665 296.86 193.247C296.848 193.522 296.809 193.795 296.743 194.062C296.716 193.788 296.716 193.511 296.743 193.236C296.743 192.642 296.802 191.85 296.837 190.907C296.941 188.788 297.093 185.842 297.279 182.244C297.465 178.645 297.733 174.221 298.013 169.435C298.174 166.934 297.99 164.422 297.465 161.971C296.758 159.371 295.676 156.888 294.252 154.6C293.297 152.993 292.272 151.456 291.294 149.942L291.119 149.686L291.387 149.523C291.86 149.205 292.264 148.795 292.574 148.316C292.884 147.838 293.094 147.302 293.192 146.74C293.4 145.619 293.356 144.466 293.064 143.364C292.505 141.174 291.713 139.067 291.084 137.076C289.804 133.082 288.651 129.519 287.673 126.514C286.695 123.51 285.984 121.193 285.449 119.528C285.204 118.748 285.018 118.107 284.866 117.618C284.807 117.393 284.764 117.163 284.738 116.931Z" fill="#263238"/>
<path d="M239.418 261.622C239.29 261.966 239.109 262.288 238.883 262.577C238.51 263.171 237.951 264.009 237.241 265.034C235.809 267.083 233.747 269.866 231.419 272.87C229.09 275.875 226.831 278.506 225.177 280.369C224.351 281.301 223.664 282.046 223.175 282.547C222.685 283.047 222.406 283.315 222.371 283.292C223.126 282.171 223.955 281.101 224.851 280.09C226.423 278.157 228.589 275.432 230.941 272.498C233.293 269.563 235.378 266.769 236.891 264.778C237.664 263.672 238.508 262.618 239.418 261.622Z" fill="#455A64"/>
<path d="M257.666 246.601C257.666 246.601 257.666 246.822 257.666 247.253C257.666 247.684 257.549 248.348 257.456 249.174C257.27 250.875 256.979 253.355 256.618 256.534C255.861 262.926 254.732 272.183 253.241 283.595C250.295 306.429 245.824 337.927 241.015 372.72C238.616 390.128 236.357 406.709 234.541 421.823C234.063 425.596 233.679 429.287 233.143 432.862C232.608 436.437 232.06 439.848 231.548 443.225L228.73 461.856C227.018 473.244 225.668 482.455 224.783 488.836C224.34 492.014 224.014 494.495 223.816 496.183C223.723 497.021 223.653 497.662 223.63 498.093C223.619 498.256 223.619 498.419 223.63 498.582C223.63 498.722 223.711 498.582 223.711 498.582C223.711 498.582 223.618 498.582 223.63 498.524C223.608 498.361 223.608 498.197 223.63 498.035C223.63 497.604 223.688 496.952 223.77 496.113C223.921 494.425 224.212 491.933 224.62 488.742C225.435 482.35 226.716 473.128 228.369 461.74C229.219 456.034 230.139 449.804 231.117 443.109C231.629 439.755 232.142 436.297 232.677 432.734C233.213 429.171 233.586 425.479 234.063 421.707C235.903 406.569 238.092 390 240.479 372.591C245.288 337.787 249.794 306.313 252.892 283.49C254.394 272.102 255.605 262.868 256.455 256.464C256.863 253.285 257.189 250.816 257.41 249.105C257.526 248.289 257.608 247.649 257.666 247.195C257.724 246.741 257.666 246.601 257.666 246.601Z" fill="#455A64"/>
<path d="M284.234 494.029C284.251 493.818 284.278 493.608 284.316 493.4C284.386 492.958 284.479 492.34 284.607 491.537C284.898 489.884 285.306 487.496 285.771 484.422C286.854 478.216 288.426 469.285 290.359 458.258L305.776 371.939C306.224 369.891 306.35 367.785 306.149 365.698C305.881 363.625 305.532 361.529 305.229 359.48C304.6 355.358 303.975 351.302 303.354 347.312C302.097 339.347 300.851 331.662 299.64 324.349C297.206 309.724 294.854 296.578 292.758 285.563C290.662 274.547 288.811 265.663 287.413 259.549C286.75 256.487 286.144 254.123 285.771 252.563C285.597 251.783 285.457 251.166 285.352 250.735C285.247 250.304 285.224 250.106 285.224 250.106C285.297 250.308 285.359 250.514 285.41 250.723L285.899 252.54C286.307 254.135 286.947 256.487 287.646 259.526C289.113 265.616 291.023 274.501 293.177 285.504C295.331 296.508 297.718 309.654 300.164 324.28C301.398 331.592 302.644 339.277 303.913 347.242C304.534 351.24 305.163 355.296 305.799 359.41C306.114 361.483 306.452 363.532 306.731 365.651C306.936 367.805 306.806 369.977 306.347 372.091C300.28 405.754 294.796 436.239 290.813 458.328C288.799 469.343 287.169 478.263 286.039 484.457C285.469 487.531 285.015 489.919 284.712 491.56C284.56 492.352 284.432 492.969 284.351 493.4C284.269 493.831 284.234 494.029 284.234 494.029Z" fill="#455A64"/>
<path d="M271.124 283.292C271.299 283.292 269.238 297.172 266.524 314.242C263.811 331.313 261.494 345.158 261.354 345.158C261.215 345.158 263.252 331.278 265.954 314.207C268.655 297.137 270.961 283.269 271.124 283.292Z" fill="#455A64"/>
<path d="M236.691 498.943C236.312 499.054 235.921 499.12 235.527 499.141C234.793 499.222 233.722 499.327 232.394 499.432C229.751 499.641 226.083 499.839 222.031 499.898C217.979 499.956 214.299 499.898 211.644 499.769C210.317 499.769 209.246 499.653 208.512 499.583C208.118 499.59 207.725 499.535 207.348 499.42C208.777 499.31 210.212 499.287 211.644 499.35C214.299 499.35 217.956 499.35 222.008 499.292C226.06 499.234 229.705 499.106 232.359 499.001C233.8 498.884 235.248 498.865 236.691 498.943Z" fill="#455A64"/>
<path d="M293.027 495.182C292.533 495.204 292.037 495.176 291.548 495.1L287.543 494.681C284.166 494.297 279.508 493.714 274.361 493.051C269.215 492.387 264.557 491.747 261.192 491.258L257.209 490.652C256.717 490.593 256.231 490.496 255.754 490.361C256.251 490.314 256.752 490.333 257.244 490.419C258.188 490.501 259.573 490.64 261.25 490.827C264.627 491.211 269.296 491.782 274.443 492.445C279.59 493.109 284.236 493.761 287.601 494.25L291.583 494.867C292.075 494.915 292.56 495.02 293.027 495.182Z" fill="#455A64"/>
<path d="M243.891 114.509C244.343 114.743 244.772 115.02 245.171 115.336L248.595 117.665C251.506 119.656 255.581 122.322 260.239 124.977C261.986 125.979 263.732 126.91 265.269 127.749L264.85 127.935C265.828 124.069 266.69 120.75 267.319 118.41C267.622 117.315 267.878 116.407 268.087 115.662C268.161 115.328 268.275 115.003 268.425 114.695C268.417 115.038 268.366 115.378 268.274 115.709C268.111 116.465 267.913 117.385 267.68 118.491C267.132 120.82 266.352 124.197 265.351 128.075L265.269 128.424L264.943 128.261C263.348 127.434 261.625 126.503 259.878 125.501C255.885 123.221 252.021 120.722 248.304 118.014C246.883 116.978 245.754 116.093 244.985 115.476C244.586 115.195 244.219 114.871 243.891 114.509Z" fill="#263238"/>
<path d="M282.315 123.079C280.694 124.377 278.973 125.545 277.168 126.572L276.912 126.736L276.772 126.456L275.2 123.394C274.036 121.065 272.93 118.852 272.196 117.269C271.739 116.437 271.372 115.559 271.102 114.649C271.678 115.404 272.17 116.22 272.569 117.082C273.407 118.608 274.537 120.739 275.736 123.114L277.308 126.246L276.912 126.13C278.637 124.984 280.443 123.964 282.315 123.079Z" fill="#263238"/>
<path d="M274.722 121.938C274.412 122.243 274.068 122.513 273.698 122.742C273.057 123.219 272.149 123.906 271.136 124.546C270.123 125.187 269.203 125.851 268.528 126.293C268.159 126.547 267.77 126.77 267.363 126.957C267.675 126.649 268.018 126.376 268.388 126.142C269.04 125.676 269.948 125.035 270.95 124.348L273.558 122.602C273.926 122.347 274.316 122.125 274.722 121.938Z" fill="#263238"/>
<path d="M271.23 124.348C270.399 123.696 269.62 122.979 268.901 122.206C268.148 121.483 267.452 120.705 266.816 119.877C267.625 120.531 268.38 121.247 269.075 122.02C269.852 122.739 270.572 123.518 271.23 124.348Z" fill="#263238"/>
<path d="M249.292 227.644C249.637 230.555 250.451 233.39 251.703 236.04C253.126 238.599 254.959 240.909 257.129 242.875C256.331 242.502 255.608 241.985 254.998 241.35C251.836 238.453 249.812 234.521 249.292 230.264C249.137 229.398 249.137 228.511 249.292 227.644Z" fill="#263238"/>
<path d="M256.067 242.991C252.191 242.661 248.561 240.955 245.832 238.182C245.948 238.043 247.951 239.638 250.769 240.954C253.587 242.269 256.102 242.805 256.067 242.991Z" fill="#263238"/>
<path d="M278.82 205.718C279.021 206.112 279.166 206.531 279.251 206.964C279.496 207.779 279.81 208.967 280.159 210.457C280.881 213.403 281.731 217.514 282.407 222.102C283.082 226.689 283.466 230.858 283.641 233.897C283.723 235.411 283.769 236.634 283.769 237.484C283.826 237.92 283.826 238.363 283.769 238.799C283.661 238.373 283.598 237.935 283.583 237.495C283.49 236.517 283.385 235.329 283.257 233.921C282.977 230.916 282.535 226.759 281.859 222.195C281.184 217.63 280.392 213.52 279.787 210.551C279.507 209.165 279.263 207.989 279.065 207.057C278.934 206.621 278.852 206.172 278.82 205.718Z" fill="#263238"/>
<path d="M271.066 132.43C269.552 144.528 268.435 170.855 268.015 183.07C267.666 193.271 267.701 203.483 267.736 213.695C267.736 216.99 267.736 220.39 269.145 223.382C271.578 228.774 277.529 231.533 282.99 233.723L271.066 132.43Z" fill="#E0E0E0"/>
<path d="M284.645 231.976L290.898 216.652L275.26 130.788L270.695 131.242C270.695 131.242 271.336 220.483 271.126 221.287L284.645 231.976Z" fill="#FF4E5A"/>
<path d="M275.097 130.788C274.392 131.011 273.659 131.132 272.92 131.149C272.193 131.245 271.457 131.245 270.73 131.149C271.45 131.024 272.178 130.954 272.908 130.939C273.634 130.843 274.365 130.792 275.097 130.788Z" fill="#263238"/>
</svg>
