<svg width="660" height="577" viewBox="0 0 660 577" fill="none" xmlns="http://www.w3.org/2000/svg">
<path d="M92.65 542.169L104.818 558.996C104.818 558.996 78.9212 571.637 79.1104 576.627L131.069 571.472L130.573 566.127C130.417 564.503 129.947 562.924 129.189 561.48L113.415 531.302L92.65 542.169Z" fill="#263238"/>
<path d="M131.068 571.472L130.513 567.274L80.8478 573.789C80.8478 573.789 78.6365 575.031 79.0622 576.627L131.068 571.472Z" fill="#455A64"/>
<path d="M104.534 559.02C104.534 559.269 105.846 559.257 107.182 559.954C108.519 560.652 109.275 561.645 109.547 561.515C109.819 561.385 109.252 559.966 107.62 559.15C105.988 558.334 104.463 558.796 104.534 559.02Z" fill="white"/>
<path d="M99.0587 561.976C99.0587 562.225 100.17 562.556 101.14 563.537C102.11 564.519 102.464 565.63 102.713 565.595C102.961 565.559 102.985 564.117 101.767 562.91C100.549 561.704 99.0468 561.728 99.0587 561.976Z" fill="white"/>
<path d="M96.6372 569.036C96.8737 569.036 97.1102 567.771 96.3179 566.446C95.5256 565.122 94.284 564.684 94.2012 564.909C94.1184 565.134 94.9226 565.796 95.5493 566.895C96.176 567.995 96.3888 569.036 96.6372 569.036Z" fill="white"/>
<path d="M102.453 555.425C102.654 555.579 103.541 554.739 104.818 554.243C106.096 553.746 107.361 553.592 107.384 553.332C107.408 553.072 106.025 552.741 104.464 553.427C102.903 554.113 102.252 555.295 102.453 555.425Z" fill="white"/>
<path d="M251.178 514.464L272.25 540.006L294.717 555.378C295.101 555.64 295.427 555.978 295.674 556.371C295.922 556.764 296.086 557.204 296.155 557.664C296.225 558.123 296.2 558.592 296.081 559.041C295.961 559.49 295.751 559.909 295.462 560.274C295.129 560.699 294.698 561.039 294.206 561.263C293.714 561.487 293.176 561.59 292.636 561.562C285.635 561.208 259.928 559.741 258.485 557.79C256.818 555.532 234.457 532.331 234.457 532.331L251.178 514.464Z" fill="#263238"/>
<path d="M295.498 560.297L257.055 556.123L257.977 557.187C258.772 558.104 259.865 558.711 261.063 558.902C264.268 559.387 273.148 560.569 292.589 561.657C293.148 561.686 293.706 561.577 294.213 561.34C294.72 561.103 295.161 560.745 295.498 560.297Z" fill="#455A64"/>
<path d="M280.3 554.302C280.228 553 280.404 551.695 280.82 550.459C281.636 548.437 283.327 547.597 283.185 547.408C283.043 547.219 282.665 547.408 282.003 547.834C281.16 548.418 280.5 549.229 280.101 550.173C279.701 551.117 279.577 552.155 279.744 553.167C279.945 553.9 280.229 554.337 280.3 554.302Z" fill="white"/>
<path d="M284.982 556.123C285.353 555.098 285.784 554.095 286.271 553.119C287.217 551.606 288.541 550.884 288.447 550.754C288.352 550.624 286.744 551.074 285.656 552.788C285.294 553.254 285.044 553.798 284.927 554.376C284.81 554.955 284.829 555.553 284.982 556.123Z" fill="white"/>
<path d="M273.325 552.883C273.549 552.883 273.691 550.577 275.004 548.153C276.316 545.729 278.102 544.251 277.972 544.073C277.842 543.896 275.725 545.173 274.353 547.822C273.428 549.336 273.063 551.128 273.325 552.883Z" fill="white"/>
<path d="M266.23 545.622C266.431 545.717 267.318 543.943 269.057 542.323C270.795 540.703 272.604 539.899 272.521 539.698C272.439 539.497 270.417 540.029 268.56 541.791C267.361 542.758 266.537 544.113 266.23 545.622Z" fill="white"/>
<path d="M259.831 538.315C260.612 537.006 261.571 535.812 262.68 534.767C264.62 533.171 266.76 532.946 266.725 532.733C266.689 532.52 266.169 532.568 265.306 532.733C264.174 532.966 263.115 533.469 262.219 534.2C261.316 534.923 260.598 535.851 260.126 536.907C259.783 537.735 259.748 538.291 259.831 538.315Z" fill="white"/>
<path d="M261.427 533.431C261.427 533.431 261.226 533.017 260.647 532.449C259.805 531.656 258.817 531.034 257.738 530.617C256.977 530.251 256.118 530.143 255.29 530.309C255.02 530.391 254.783 530.555 254.609 530.777C254.436 530.999 254.335 531.269 254.32 531.551C254.331 532.093 254.537 532.614 254.9 533.017C255.686 533.81 256.723 534.305 257.834 534.417C258.945 534.529 260.061 534.252 260.99 533.632C261.89 532.995 262.581 532.107 262.977 531.077C263.373 530.048 263.455 528.925 263.213 527.849C263.15 527.579 263.03 527.325 262.861 527.104C262.691 526.884 262.477 526.703 262.231 526.572C261.97 526.467 261.683 526.447 261.41 526.518C261.137 526.588 260.895 526.744 260.718 526.963C260.213 527.627 259.898 528.416 259.807 529.245C259.605 530.375 259.605 531.532 259.807 532.662C259.847 533.077 259.972 533.48 260.174 533.845C260.009 532.339 260.065 530.817 260.339 529.328C260.457 528.612 260.745 527.935 261.179 527.353C261.276 527.234 261.409 527.149 261.558 527.111C261.707 527.072 261.864 527.083 262.007 527.14C262.163 527.236 262.297 527.363 262.401 527.514C262.504 527.664 262.576 527.835 262.61 528.015C262.788 528.949 262.695 529.915 262.34 530.797C261.986 531.68 261.386 532.442 260.611 532.993C259.828 533.518 258.89 533.761 257.951 533.681C257.012 533.601 256.127 533.205 255.444 532.556C255.182 532.283 255.023 531.928 254.994 531.551C254.997 531.395 255.049 531.243 255.142 531.118C255.235 530.993 255.366 530.9 255.515 530.853C256.219 530.714 256.949 530.793 257.608 531.078C259.007 531.636 260.299 532.433 261.427 533.431Z" fill="white"/>
<path d="M78.2836 413.857C78.2836 413.857 32.249 463.261 36.5178 475.264C43.4118 494.704 95.3825 554.006 95.3825 554.006L122.32 540.999L88.7605 485.693L79.5015 472.166L116.466 437.388L119.612 437.069C119.612 437.069 190.562 482.785 191.247 482.406C191.933 482.028 245.973 547.349 245.973 547.349L271.35 531.432C271.35 531.432 216.707 459.809 215.571 458.118C214.436 456.427 152 409.02 152 409.02L133.258 383.62L80.4239 392.962L78.2836 413.857Z" fill="#263238"/>
<path d="M115.52 435.78C115.426 435.84 114.563 434.196 112.777 431.819C111.723 430.443 110.577 429.139 109.348 427.917C107.828 426.431 106.191 425.071 104.452 423.849C102.693 422.653 100.843 421.598 98.9182 420.692C97.344 419.966 95.7198 419.353 94.0581 418.859C91.2083 418.019 89.3281 417.795 89.3281 417.676C89.7635 417.646 90.2009 417.674 90.6289 417.759C91.1382 417.803 91.6439 417.882 92.1425 417.996C92.7337 418.114 93.4077 418.22 94.1172 418.433C95.825 418.876 97.4939 419.458 99.1074 420.171C103.087 421.925 106.698 424.417 109.75 427.515C110.983 428.772 112.11 430.128 113.12 431.571C113.581 432.162 113.912 432.753 114.231 433.262C114.51 433.692 114.762 434.138 114.988 434.598C115.213 434.969 115.392 435.366 115.52 435.78Z" fill="#263238"/>
<path d="M144.752 410.818C144.752 410.948 142.872 411.492 140.093 413.041C138.477 413.96 136.935 415.004 135.481 416.163C133.714 417.617 132.054 419.198 130.515 420.893C127.756 423.982 125.374 427.387 123.42 431.039C121.906 433.841 121.197 435.686 121.055 435.65C121.143 435.191 121.282 434.743 121.469 434.314C121.61 433.888 121.823 433.38 122.083 432.8C122.344 432.221 122.627 431.547 122.994 430.838C124.882 427.081 127.268 423.596 130.089 420.479C131.656 418.774 133.352 417.193 135.162 415.749C136.647 414.597 138.23 413.576 139.892 412.698C140.528 412.353 141.183 412.045 141.855 411.776C142.357 411.549 142.874 411.359 143.404 411.208C143.839 411.033 144.291 410.902 144.752 410.818Z" fill="#263238"/>
<path d="M89.7305 297.948C89.7305 297.948 95.1108 298.717 103.507 303.861L135.919 323.963L163.435 298.575L176.147 310.14C176.147 310.14 148.583 343.132 146.798 344.787C140.022 350.853 133.684 347.483 133.684 347.483L105.883 334.038L89.7305 297.948Z" fill="#0099FF"/>
<path d="M124.768 367.385L90.3334 297.901L66.0449 300.846L58.5715 298.351L32.5566 305.446L31.6698 318.867C31.6698 318.867 13.4238 337.184 13.9323 338.331L72.0047 398.378C72.0047 398.378 72.3713 420.928 72.6669 420.349C78.5794 409.044 91.4331 415.146 109.324 421.449L111.027 394.547L123.573 418.079L155.146 401.524L124.768 367.385Z" fill="#0099FF"/>
<path d="M34.2596 311.051L78.0593 344.184L61.658 300.597L57.3774 296.399L32.3203 305.848L34.2596 311.051Z" fill="#E0E0E0"/>
<path d="M45.3523 254.173C42.4184 249.814 37.95 246.72 32.8373 245.508C27.7245 244.296 22.3429 245.055 17.7647 247.633L16.8187 248.166C6.96847 254.48 6.83839 266.364 13.4249 276.025L33.4327 308.828L57.9813 312.765L57.3901 296.411L56.2076 293.573C56.2076 293.573 65.1354 286.549 59.7551 276.711C57.1536 271.934 51.0164 262.58 45.3523 254.173Z" fill="#EB996E"/>
<path d="M56.2669 293.502C51.726 296.059 46.5462 297.258 41.3438 296.955C41.3438 296.955 48.1195 302.773 57.3902 296.4L56.2669 293.502Z" fill="#D1734A"/>
<path d="M47.3744 264.437C47.5833 264.798 47.6421 265.227 47.5382 265.632C47.4343 266.037 47.176 266.384 46.8186 266.601C46.6495 266.714 46.4593 266.793 46.2591 266.832C46.059 266.871 45.8531 266.87 45.6536 266.828C45.4541 266.786 45.265 266.705 45.0974 266.588C44.9299 266.472 44.7874 266.323 44.6783 266.151C44.4653 265.792 44.403 265.363 44.5048 264.957C44.6067 264.552 44.8646 264.203 45.2223 263.987C45.3924 263.873 45.5835 263.794 45.7846 263.755C45.9856 263.716 46.1924 263.717 46.3929 263.759C46.5934 263.801 46.7835 263.882 46.9521 263.999C47.1206 264.115 47.2642 264.264 47.3744 264.437Z" fill="#263238"/>
<path d="M46.2837 260.57C46.2127 260.854 44.7228 260.664 43.221 261.516C41.7193 262.367 41.0334 263.727 40.7733 263.644C40.5131 263.562 40.6314 263.171 40.9152 262.556C41.314 261.748 41.949 261.08 42.7362 260.641C43.5176 260.196 44.4212 260.013 45.314 260.12C46.0235 260.203 46.3665 260.44 46.2837 260.57Z" fill="#263238"/>
<path d="M34.6599 272.016C34.8657 272.379 34.9228 272.807 34.8191 273.211C34.7155 273.614 34.4591 273.962 34.1041 274.18C33.934 274.294 33.7429 274.373 33.5418 274.413C33.3408 274.452 33.134 274.45 32.9335 274.409C32.733 274.367 32.5429 274.285 32.3743 274.169C32.2058 274.053 32.0622 273.904 31.952 273.731C31.7462 273.369 31.6891 272.94 31.7927 272.537C31.8964 272.133 32.1528 271.785 32.5078 271.567C32.6778 271.453 32.869 271.374 33.07 271.335C33.2711 271.296 33.4779 271.297 33.6784 271.339C33.8789 271.381 34.069 271.462 34.2375 271.579C34.4061 271.695 34.5497 271.844 34.6599 272.016Z" fill="#263238"/>
<path d="M31.8228 268.445C31.7518 268.729 30.25 268.54 28.7483 269.391C27.2465 270.243 26.5725 271.602 26.3123 271.508C26.0522 271.413 26.1704 271.047 26.4542 270.432C26.8542 269.617 27.4938 268.945 28.2871 268.504C29.0685 268.059 29.9721 267.877 30.8649 267.984C31.5153 268.079 31.8582 268.315 31.8228 268.445Z" fill="#263238"/>
<path d="M43.0343 276.805C43.6908 276.115 44.4295 275.507 45.2337 274.996C45.5885 274.736 45.9196 274.452 45.8368 274.157C45.754 273.861 45.3756 273.506 44.9381 273.163L42.1592 270.881C38.2452 267.606 35.1825 264.827 35.3126 264.661C35.4427 264.496 38.73 267.026 42.6441 270.314L45.3875 272.679C45.887 273.008 46.2553 273.501 46.4281 274.074C46.4494 274.24 46.4316 274.409 46.3762 274.567C46.3208 274.725 46.2292 274.868 46.1088 274.984C45.9294 275.165 45.7265 275.32 45.5057 275.446C44.7435 276.003 43.9129 276.46 43.0343 276.805Z" fill="#263238"/>
<path d="M39.1915 280.329C39.428 280.176 40.374 281.807 42.3961 282.186C44.4182 282.564 46.0737 281.394 46.2156 281.618C46.3575 281.843 46.0027 282.15 45.2814 282.588C44.3363 283.14 43.2252 283.337 42.1478 283.144C41.1083 282.965 40.1794 282.388 39.5581 281.535C39.1915 280.885 39.0851 280.388 39.1915 280.329Z" fill="#263238"/>
<path d="M30.9143 265.028C30.7724 265.501 29.247 265.3 27.4614 265.56C25.6759 265.82 24.2332 266.388 23.9967 265.974C23.8903 265.773 24.1386 265.335 24.7062 264.874C25.4552 264.306 26.3398 263.943 27.2722 263.822C28.1921 263.688 29.1311 263.802 29.992 264.153C30.6542 264.437 30.9971 264.803 30.9143 265.028Z" fill="#263238"/>
<path d="M43.6604 256.644C43.6604 257.141 42.4779 257.46 41.2244 258.252C39.971 259.045 39.1905 259.943 38.7294 259.754C38.5165 259.659 38.4574 259.234 38.7294 258.631C39.0599 257.857 39.6216 257.204 40.3376 256.762C41.0418 256.311 41.8665 256.084 42.7025 256.112C43.3056 256.171 43.6722 256.408 43.6604 256.644Z" fill="#263238"/>
<path d="M20.3418 284.657C20.1287 284.304 19.846 283.999 19.5109 283.758C19.1759 283.518 18.7954 283.349 18.3928 283.26C17.9901 283.172 17.5737 283.166 17.1688 283.244C16.7639 283.321 16.379 283.48 16.0375 283.711C14.3111 284.894 12.8685 287.081 15.1034 290.806C19.0766 297.369 24.8471 291.989 24.7525 291.835C24.6579 291.681 22.0328 287.389 20.3418 284.657Z" fill="#EB996E"/>
<path d="M21.8175 290.203C21.8175 290.203 21.7584 290.357 21.6165 290.558C21.4122 290.841 21.1078 291.036 20.7651 291.102C20.1803 291.084 19.6106 290.913 19.1126 290.605C18.6147 290.298 18.2059 289.866 17.9271 289.352C17.5679 288.799 17.3376 288.173 17.2531 287.519C17.1937 287.277 17.1928 287.024 17.2503 286.781C17.3079 286.539 17.4223 286.313 17.5842 286.124C17.6925 286.006 17.8395 285.932 17.9981 285.915C18.1567 285.898 18.3163 285.938 18.4474 286.029C18.6484 286.159 18.6839 286.313 18.7312 286.301C18.7785 286.289 18.8022 286.1 18.5893 285.863C18.4525 285.726 18.2734 285.638 18.0808 285.615C17.9506 285.599 17.8184 285.61 17.6924 285.646C17.5664 285.683 17.4491 285.745 17.3477 285.828C17.1099 286.044 16.9317 286.317 16.8303 286.621C16.7288 286.926 16.7074 287.251 16.7683 287.566C16.8297 288.304 17.0735 289.015 17.4778 289.636C17.7985 290.24 18.2905 290.736 18.8921 291.062C19.4937 291.388 20.1782 291.53 20.8597 291.468C21.0681 291.411 21.2611 291.308 21.4248 291.167C21.5884 291.026 21.7185 290.85 21.8057 290.653C21.9003 290.369 21.853 290.203 21.8175 290.203Z" fill="#D1734A"/>
<path d="M79.2395 347.389C79.0157 347.374 78.7959 347.322 78.5891 347.235L76.7799 346.668L70.1461 344.456L48.329 336.947L42.1209 334.772L41.8608 334.689V334.417L43.7291 326.388L44.0129 326.719L34.884 327.062H34.7303V326.92C33.7843 324.46 33.0157 322.462 32.4599 321.007C32.2234 320.369 32.0342 319.825 31.8687 319.411C31.7983 319.223 31.743 319.029 31.7031 318.832C31.821 318.996 31.9164 319.174 31.9869 319.364C32.1643 319.778 32.389 320.298 32.6728 320.925C33.2758 322.379 34.1036 324.354 35.1087 326.837L34.9077 326.707L44.0366 326.234H44.3913L44.3204 326.589C43.7528 329.096 43.1379 331.792 42.4993 334.642L42.2983 334.287L48.53 336.321L70.288 343.995L76.8508 346.36L78.6364 347.034C78.8465 347.136 79.0481 347.255 79.2395 347.389Z" fill="#263238"/>
<path d="M111.109 394.499C110.988 394.331 110.889 394.148 110.814 393.955L110.069 392.359C109.43 390.975 108.567 388.93 107.408 386.447C106.041 383.563 104.517 380.756 102.844 378.039C101.898 376.502 100.857 374.917 99.7101 373.309C98.5631 371.701 97.3451 370.116 96.068 368.449C91.0306 361.791 86.5016 355.749 83.2379 351.35L79.3948 346.147C78.9809 345.579 78.6498 345.095 78.3779 344.716C78.2448 344.556 78.1372 344.377 78.0586 344.184C78.2125 344.318 78.3513 344.469 78.4725 344.633L79.584 346.005C80.5891 347.282 81.949 349.009 83.569 351.114C86.9155 355.441 91.5154 361.437 96.5765 368.094C97.8299 369.761 99.0834 371.37 100.219 372.99C101.354 374.61 102.394 376.194 103.34 377.72C105.001 380.467 106.498 383.31 107.822 386.234C108.934 388.752 109.726 390.81 110.305 392.229L110.932 393.873C111.023 394.071 111.082 394.283 111.109 394.499Z" fill="#263238"/>
<path d="M150.639 403.841C150.492 403.952 150.333 404.047 150.166 404.125L148.759 404.894L143.355 407.767L134.853 412.261L129.579 415.039L126.729 416.577L125.251 417.381L124.506 417.795L124.128 418.007L123.95 418.114H123.868C123.868 418.114 123.868 417.676 123.749 417.747L123.454 418.102L110.848 394.641L111.404 394.476C111.83 400.152 112.279 406.182 112.74 412.391C112.977 415.477 113.202 418.516 113.414 421.484V422.052L112.906 421.78L110.245 420.278C109.367 419.759 108.459 419.293 107.526 418.883C105.733 418.025 103.884 417.29 101.992 416.683C100.174 416.072 98.3175 415.586 96.4338 415.229C95.5114 415.051 94.5773 414.992 93.6667 414.874C92.7652 414.754 91.8564 414.699 90.947 414.708C84.4297 414.449 78.0278 416.482 72.8548 420.455L72.5001 420.739V420.278C72.3227 413.242 72.1926 407.519 72.0862 403.522C72.0862 401.571 72.0862 400.045 72.0153 398.969C72.0153 398.473 72.0153 398.082 72.0153 397.787C72.0053 397.653 72.0053 397.519 72.0153 397.385C72.0272 397.519 72.0272 397.653 72.0153 397.787C72.0153 398.082 72.0153 398.484 72.0153 398.969L72.2163 403.522C72.3582 407.519 72.571 413.242 72.8193 420.278L72.4528 420.124C77.6892 416.025 84.2067 413.91 90.8524 414.153C91.7772 414.139 92.7018 414.191 93.6194 414.306C94.5418 414.425 95.4878 414.484 96.4338 414.661C98.3444 415.019 100.229 415.505 102.074 416.115C103.987 416.735 105.859 417.474 107.679 418.327C108.637 418.705 109.5 419.261 110.423 419.734L113.166 421.236L112.705 421.519C112.48 418.551 112.256 415.512 112.019 412.426C111.57 406.218 111.12 400.187 110.707 394.511L110.6 393.092L111.262 394.346L123.868 417.913V417.984L123.537 418.268C123.466 418.327 123.276 417.937 123.418 417.866L123.513 417.795L123.702 417.688L124.081 417.464L124.837 417.061L126.327 416.257L129.189 414.756L134.487 412.012L143.048 407.625L148.523 404.87L149.965 404.16C150.175 404.024 150.401 403.917 150.639 403.841Z" fill="#263238"/>
<path d="M81.546 346.549C81.4662 346.369 81.4144 346.177 81.3923 345.982C81.3213 345.532 81.2149 344.976 81.0966 344.314C80.8483 342.777 80.5172 340.708 80.1033 338.189C79.2992 333.01 78.2113 325.844 77.0643 317.933C76.7687 315.922 76.4849 313.96 76.2129 312.02L76.4849 312.28L68.6804 311.571H68.2784L68.4557 311.216L71.4948 305.386L71.5539 305.658L66.5046 301.863L65.2039 300.846C64.8964 300.597 64.7427 300.467 64.7545 300.444C64.941 300.522 65.116 300.626 65.2748 300.751L66.6938 301.709L71.8613 305.351L72.0151 305.469L71.9323 305.635L68.9879 311.547L68.775 311.145L76.5913 311.796H76.8278V312.032C77.0998 313.924 77.3836 315.887 77.6792 317.885C78.8617 325.808 79.8432 332.974 80.5527 338.177C80.872 340.696 81.1439 342.777 81.345 344.326C81.4159 345 81.4869 345.509 81.5342 346.005C81.5624 346.185 81.5664 346.368 81.546 346.549Z" fill="#263238"/>
<path d="M92.6745 306.344C92.8164 306.273 99.6867 319.021 108.047 334.819C116.407 350.617 122.994 363.494 122.852 363.577C122.71 363.66 115.828 350.913 107.479 335.103C99.1309 319.293 92.5208 306.427 92.6745 306.344Z" fill="#263238"/>
<path d="M57.8867 313.652C57.8867 313.569 57.8867 317.838 57.8867 317.838L61.3041 319.269L63.4681 318.087L62.8414 314.374L58.5844 312.99L57.8867 313.652Z" fill="#FF4E5A"/>
<path d="M61.3164 319.269L65.195 334.452L78.0605 344.184L71.4504 326.6L63.4212 317.814L61.3164 319.269Z" fill="#FF4E5A"/>
<path d="M58.0032 313.25C58.1409 314.522 58.1805 315.803 58.1214 317.081V319.021C58.1214 319.375 58.1214 319.73 58.1214 320.097V320.546C58.1214 320.853 57.6839 320.818 57.7194 320.794H57.6484L57.0927 320.641L52.1971 319.233C48.7324 318.228 45.6106 317.282 43.3639 316.561C42.1366 316.24 40.9473 315.788 39.8164 315.213C40.1594 315.239 40.4974 315.311 40.8215 315.426L43.5294 316.135C45.8117 316.762 48.9571 317.637 52.4218 318.642L57.2937 320.073L57.8495 320.239H57.9204C57.9204 320.049 57.8495 320.511 57.9204 320.463H57.6839V320.061V318.985C57.6839 318.311 57.743 317.661 57.7785 317.058C57.7497 315.784 57.8249 314.511 58.0032 313.25Z" fill="#263238"/>
<path d="M65.2643 309.975C65.5291 311.536 65.6242 313.122 65.5481 314.705V315.083L65.2052 315.036L63.8572 314.681C61.8504 314.252 59.8929 313.618 58.0156 312.789C60.0508 313.032 62.0582 313.467 64.0109 314.09L65.3589 314.456L64.9805 314.74C64.8891 313.146 64.9844 311.547 65.2643 309.975Z" fill="#263238"/>
<path d="M121.149 374.811C120.751 375.107 120.318 375.353 119.86 375.544C119.009 375.981 117.767 376.596 116.23 377.318C113.155 378.784 108.851 380.711 104.038 382.674C99.2254 384.637 94.8028 386.293 91.5746 387.404C89.9664 387.96 88.6538 388.398 87.7433 388.681C87.2831 388.864 86.8028 388.991 86.3125 389.06C86.7457 388.816 87.201 388.614 87.6724 388.457L91.4327 386.991C94.6018 385.808 98.9889 384.07 103.802 382.095C108.614 380.12 112.93 378.276 116.052 376.916L119.753 375.319C120.202 375.107 120.669 374.937 121.149 374.811Z" fill="#263238"/>
<path d="M165.48 301.094L179.233 290.322L184.921 296.4L174.113 308.378L165.48 301.094Z" fill="#EB996E"/>
<path d="M194.442 278.946C194.442 278.946 193.827 276.581 191.32 277.964C190.409 278.473 184.84 282.907 184.84 282.907C184.84 282.907 181.068 285.651 180.938 285.852C181.008 286.654 181.162 287.447 181.399 288.217L186.058 286.289L194.442 278.946Z" fill="#D1734A"/>
<path d="M72.4528 398.792C72.3345 398.91 60.6869 386.967 46.4379 372.103C32.1888 357.239 20.7304 345.095 20.8605 344.976C20.9905 344.858 32.6854 356.801 46.8754 371.677C61.0653 386.553 72.5828 398.674 72.4528 398.792Z" fill="#263238"/>
<path opacity="0.7" d="M71.9942 378.369C71.7133 378.01 71.506 377.6 71.3844 377.161C71.2628 376.722 71.2292 376.263 71.2856 375.811C71.3419 375.359 71.4872 374.923 71.7129 374.527C71.9386 374.131 72.2403 373.784 72.6007 373.506L441.808 84.2996C442.534 83.7378 443.452 83.4844 444.362 83.5942C445.273 83.704 446.104 84.1683 446.675 84.8864C447.242 85.6103 447.498 86.5294 447.388 87.4422C447.277 88.355 446.81 89.1869 446.087 89.7554L76.8549 378.974C76.4965 379.255 76.0862 379.462 75.6474 379.584C75.2086 379.706 74.7501 379.74 74.2983 379.683C73.8465 379.627 73.4103 379.482 73.0148 379.256C72.6194 379.031 72.2725 378.729 71.9942 378.369Z" fill="#800101"/>
<path d="M462.788 463.301C372.182 403.792 360.732 282.362 275.318 218.734C274.3 217.973 273.471 216.987 272.895 215.854C272.319 214.721 272.011 213.47 271.996 212.199C271.981 210.928 272.259 209.671 272.808 208.524C273.358 207.378 274.163 206.374 275.163 205.589L402.662 105.811C404.077 104.717 405.806 104.105 407.595 104.067C409.384 104.028 411.139 104.563 412.601 105.595C501.509 168.334 511.925 292.499 603.925 352.874L462.788 463.301Z" fill="#0099FF"/>
<path d="M490.046 239.559L485.828 245.692L489.171 252.001L483.215 249.496L479.088 255.659L479.677 247.98L473.721 245.475L479.999 243.23L480.588 235.551L483.931 241.86L490.046 239.559Z" fill="white"/>
<path d="M394.061 314.741L389.81 320.862L393.22 327.194L387.176 324.659L382.925 330.78C383.08 328.206 383.254 325.639 383.483 323.091L377.439 320.555L383.803 318.339L384.361 310.65L387.771 316.982L394.061 314.741Z" fill="white"/>
<path d="M468.805 218.12C467.393 220.15 465.988 222.161 464.668 224.222L468.155 230.473L462.05 227.982C460.663 229.999 459.251 232.029 457.913 234.084L458.439 226.504C456.408 225.661 454.363 224.841 452.303 224.043L458.705 221.799C458.845 219.275 458.96 216.762 459.101 214.237L462.649 220.427L468.805 218.12Z" fill="white"/>
<path d="M498.278 271.693L491.92 273.922L488.464 267.691C488.315 270.229 488.147 272.759 487.925 275.272L481.591 277.488L487.654 279.965C487.511 282.483 487.361 285.02 487.243 287.527C488.624 285.512 490.023 283.504 491.356 281.452L497.456 283.88L493.939 277.711C495.466 275.746 496.872 273.719 498.278 271.693Z" fill="white"/>
<path d="M414.057 336.541C412.658 338.547 411.272 340.578 409.946 342.609C411.117 344.69 412.282 346.729 413.477 348.798L407.359 346.364C405.96 348.371 404.58 350.383 403.248 352.432L403.681 344.865L397.618 342.389L403.95 340.176C404.099 337.641 404.247 335.107 404.487 332.603L407.944 338.829L414.057 336.541Z" fill="white"/>
<path d="M385.303 284.319L378.956 286.54L375.412 280.352C375.293 282.864 375.15 285.388 375.025 287.918L368.653 290.151L374.754 292.621C374.611 295.145 374.443 297.681 374.22 300.198L378.44 294.124C380.458 294.935 382.487 295.77 384.492 296.618L381.035 290.356L385.303 284.319Z" fill="white"/>
<path d="M439.514 212.967L435.39 219.047L439.021 225.198L432.814 222.814C431.423 224.848 430.038 226.864 428.684 228.912C428.8 226.401 428.898 223.884 428.997 221.368L422.703 219.057L429.158 216.737C429.25 214.239 429.317 211.753 429.384 209.267C430.657 211.255 431.916 213.281 433.157 215.301L439.514 212.967Z" fill="white"/>
<path d="M491.426 304.828L485.012 307.1L481.391 300.998C481.272 303.505 481.172 306.018 481.06 308.506L474.645 310.839L480.874 313.188C480.762 315.676 480.693 318.158 480.611 320.616L484.7 314.614L490.99 316.901L487.233 310.897L491.426 304.828Z" fill="white"/>
<path d="M443.869 341.279L439.724 347.326L443.581 353.379L437.164 351.048L433.032 357.058L433.261 349.595L426.913 347.185L433.426 344.953C433.509 342.447 433.616 339.929 433.724 337.41C434.939 339.473 436.179 341.523 437.443 343.561L443.869 341.279Z" fill="white"/>
<path d="M392.493 250.721L386.074 252.954L382.287 246.978C382.233 249.425 382.172 251.889 382.093 254.347L375.686 256.544L381.967 258.868C381.888 261.326 381.803 263.803 381.693 266.291L385.788 260.292L392.001 262.694L388.337 256.781L392.493 250.721Z" fill="white"/>
<path d="M411.075 224.754C409.686 226.764 408.315 228.78 406.944 230.796L410.734 236.889C408.617 236.085 406.5 235.301 404.383 234.539L400.252 240.581C400.336 238.085 400.394 235.601 400.453 233.117L393.99 230.915L400.543 228.594L400.638 221.197C402.028 223.202 403.288 225.163 404.578 227.155L411.075 224.754Z" fill="white"/>
<path d="M471.746 330.728C470.392 332.706 469.013 334.697 467.652 336.693C468.937 338.668 470.241 340.65 471.557 342.595L465.111 340.398C463.739 342.37 462.378 344.367 461.024 346.344C461.055 343.895 461.104 341.452 461.159 338.99L454.794 336.678L461.275 334.417C461.336 331.937 461.416 329.464 461.497 326.99C462.751 328.996 463.999 331.02 465.259 333.008L471.746 330.728Z" fill="white"/>
<path d="M448.281 297.317C441.879 285.668 435.711 273.933 429.235 262.258C429.073 261.927 428.839 261.638 428.549 261.411C428.26 261.185 427.923 261.027 427.563 260.95C427.204 260.874 426.832 260.88 426.475 260.968C426.118 261.056 425.785 261.225 425.502 261.461L404.204 278.214C403.576 278.74 403.144 279.465 402.983 280.269C402.821 281.073 402.938 281.908 403.314 282.635C409.723 294.266 415.885 306.019 422.361 317.694C422.524 318.024 422.76 318.313 423.051 318.538C423.342 318.764 423.68 318.92 424.04 318.995C424.4 319.07 424.772 319.062 425.129 318.971C425.486 318.881 425.818 318.71 426.1 318.473L447.41 301.682C448.023 301.157 448.442 300.441 448.6 299.649C448.758 298.857 448.646 298.036 448.281 297.317ZM427.174 291.755L419.742 298.979C418.675 296.986 417.608 294.993 416.517 293.012L425.035 287.664C424.957 286.696 425.113 285.724 425.489 284.828C425.866 283.933 426.452 283.142 427.198 282.522C427.674 282.118 428.236 281.83 428.84 281.678C429.444 281.526 430.074 281.516 430.682 281.647C431.29 281.779 431.86 282.049 432.347 282.436C432.834 282.824 433.225 283.318 433.491 283.882C434.118 285.116 434.309 286.529 434.033 287.888C433.756 289.248 433.028 290.474 431.968 291.367C431.314 291.937 430.495 292.283 429.632 292.353C428.77 292.423 427.908 292.213 427.174 291.755Z" fill="white"/>
<path d="M449.305 292.26C448.983 291.624 448.883 290.899 449.021 290.2C449.159 289.5 449.526 288.867 450.064 288.4L452.084 286.823C454.831 284.579 456.814 281.537 457.758 278.118C458.701 274.698 458.56 271.07 457.353 267.735C454.203 259.701 445.69 257.377 439.321 262.353L436.93 264.236C436.679 264.448 436.383 264.599 436.065 264.678C435.747 264.757 435.415 264.762 435.095 264.692C434.774 264.623 434.474 264.481 434.217 264.278C433.96 264.074 433.754 263.814 433.613 263.518C433.288 262.883 433.186 262.157 433.324 261.457C433.461 260.756 433.831 260.123 434.372 259.658C434.992 259.169 435.611 258.68 436.237 258.234C444.099 252.078 454.658 253.349 459.999 261.841C462.777 266.543 463.797 272.079 462.878 277.464C461.959 282.849 459.161 287.733 454.981 291.249L452.571 293.126C452.312 293.323 452.011 293.458 451.691 293.521C451.371 293.584 451.042 293.574 450.727 293.49C450.412 293.407 450.12 293.253 449.874 293.039C449.627 292.826 449.433 292.56 449.305 292.26Z" fill="white"/>
<path d="M191.957 278.757C192.903 278.335 193.939 278.157 194.972 278.237C196.004 278.318 197 278.655 197.869 279.218C199.127 280.054 200.211 281.127 201.062 282.375C201.258 282.8 201.3 283.28 201.182 283.733C201.063 284.186 200.791 284.584 200.412 284.858C199.052 285.887 195.422 285.792 195.422 285.792L197.03 284.444L194.464 282.079C193.895 282.219 193.298 282.181 192.752 281.97C192.206 281.758 191.738 281.383 191.413 280.897C190.55 279.182 191.957 278.757 191.957 278.757Z" fill="#EB996E"/>
<path d="M181.29 285.225C182.115 284.193 183.313 283.526 184.625 283.368C186.132 283.474 187.617 283.793 189.036 284.314C189.036 284.314 193.387 289.044 193.766 290.002C194.144 290.96 192.039 292.497 192.039 292.497C192.039 292.497 192.595 294.957 191.614 296.246C190.632 297.535 181.574 303.341 181.574 303.341L175.496 301.532C175.496 301.532 181.468 294.567 183.029 293.325C184.589 292.083 183.915 292.651 183.915 292.651L183.454 291.386C183.256 290.842 182.931 290.355 182.505 289.964C182.079 289.573 181.565 289.29 181.007 289.139L180.309 288.95L177.305 291.315C177.114 290.853 177.044 290.349 177.102 289.853C177.16 289.356 177.344 288.882 177.636 288.477C178.695 287.226 179.925 286.131 181.29 285.225Z" fill="#EB996E"/>
<path d="M187.816 286.147C187.816 286.147 186.054 283.676 187.402 282.753C188.75 281.831 190.075 282.493 191.506 282.919C192.312 283.189 193.049 283.634 193.662 284.223C194.276 284.812 194.751 285.53 195.053 286.325C195.42 287.803 195.81 289.872 193.741 290.002C191.671 290.132 187.816 286.147 187.816 286.147Z" fill="#EB996E"/>
<path d="M180.961 285.544C181.562 285.05 182.324 284.793 183.101 284.823C184.968 284.765 186.786 285.421 188.186 286.656C189.595 287.834 190.722 289.313 191.485 290.984C191.85 291.646 192.064 292.381 192.112 293.136C191.738 292.5 191.399 291.845 191.095 291.173C190.251 289.638 189.133 288.271 187.796 287.141C186.488 285.975 184.816 285.302 183.066 285.237C182.357 285.28 181.653 285.383 180.961 285.544Z" fill="#D1734A"/>
<path d="M193.753 290.523C193.646 290.523 193.611 289.896 193.327 288.95C192.964 287.735 192.311 286.627 191.423 285.722C190.415 284.939 189.261 284.364 188.03 284.031C187.493 283.919 186.973 283.74 186.48 283.499C187.033 283.403 187.6 283.439 188.136 283.605C189.489 283.845 190.761 284.418 191.837 285.272C192.814 286.238 193.481 287.473 193.753 288.82C193.925 289.374 193.925 289.968 193.753 290.523Z" fill="#D1734A"/>
<path d="M170.766 305.339C170.766 305.339 177.991 305.989 181.881 303.163C185.771 300.337 180.58 295.808 180.58 295.808L170.766 305.339Z" fill="#EB996E"/>
<path d="M184.991 294.578C184.837 294.661 184.459 294.259 184.151 293.68C183.844 293.1 183.702 292.58 183.855 292.497C184.009 292.414 184.376 292.816 184.695 293.384C185.014 293.952 185.133 294.496 184.991 294.578Z" fill="#FF9A6C"/>
<path d="M13.9678 338.283C13.9678 338.283 4.89805 390.16 5.5839 399.312C6.36435 409.706 10.645 410.368 16.5456 410.901C22.0442 411.385 63.6563 405.567 63.6563 405.567L58.8199 386.328L31.3623 387.724L38.1025 359.426L13.9678 338.283Z" fill="#0099FF"/>
<path d="M61.6572 386.577C61.6572 386.577 63.2536 378.063 66.9667 375.272C70.6797 372.481 80.4826 369.289 80.4826 369.289C80.4826 369.289 80.7782 370.4 79.3829 372.422C77.9875 374.444 73.2221 377.046 73.2221 377.046L83.7226 375.035L93.2654 369.88C93.4365 369.78 93.6368 369.741 93.8328 369.772C94.0288 369.802 94.2084 369.898 94.3414 370.045C94.8499 370.625 95.2993 371.713 93.5846 373.238C90.9713 375.603 83.2023 380.889 83.2023 380.889C83.2023 380.889 83.9946 389.746 81.1684 391.153C78.3423 392.56 66.9785 396.309 66.9785 396.309L61.6572 398.023L58.9375 386.754L61.6572 386.577Z" fill="#EB996E"/>
<path d="M19.7979 396.344C19.7819 395.527 19.9559 394.717 20.3064 393.979C21.043 392.095 22.3235 390.473 23.985 389.319C25.6464 388.165 27.6136 387.532 29.6363 387.499C30.4661 387.416 31.3035 387.542 32.0722 387.866C32.0722 387.96 31.1262 387.807 29.7072 387.937C27.7965 388.082 25.9593 388.736 24.3856 389.829C22.8119 390.923 21.5588 392.417 20.7557 394.157C20.0699 395.445 19.9043 396.356 19.7979 396.344Z" fill="#263238"/>
<path d="M16.3427 258.69L16.2883 258.728C15.6354 260.967 15.8701 263.366 16.9439 265.426L17.0777 265.615C18.6168 268.581 20.6002 271.232 22.1121 274.216C23.6241 277.201 24.61 280.558 23.8891 283.77C23.608 285.104 22.5357 286.645 21.2405 286.237C20.7512 286.032 20.3334 285.689 20.0387 285.249C14.9639 279.149 9.13559 274.676 4.39563 267.934C3.74612 267.036 3.32209 265.995 3.15889 264.898C2.99569 263.801 3.09804 262.678 3.45742 261.625C4.16764 259.61 5.15433 257.331 7.26985 256.957C9.38536 256.583 13.5021 258.077 15.6052 258.454" fill="#263238"/>
<path d="M7.62954 257.952C4.19898 256.477 5.92507 249.658 8.43319 246.433C10.9413 243.209 16.2232 241.746 20.1456 240.561C22.6265 239.806 25.2764 239.329 27.3373 237.748C28.6409 236.6 29.7723 235.27 30.6967 233.799C31.6126 232.318 32.8234 231.042 34.2539 230.051C34.9742 229.565 35.8142 229.285 36.6832 229.242C37.5523 229.2 38.4172 229.396 39.1845 229.809C40.6503 230.744 41.164 233.091 39.8899 234.28C40.166 233.717 40.5741 233.23 41.0795 232.859C41.5849 232.489 42.1725 232.247 42.7924 232.154C43.4123 232.06 44.0461 232.118 44.6397 232.323C45.2333 232.527 45.7693 232.872 46.2019 233.328C46.6345 233.784 46.9509 234.338 47.1242 234.942C47.2976 235.546 47.3227 236.183 47.1974 236.797C47.0721 237.412 46.8002 237.987 46.4047 238.473C46.0093 238.959 45.502 239.342 44.9262 239.589C45.3387 238.243 47.577 238.399 48.2718 239.633C48.5497 240.288 48.6526 241.004 48.5706 241.71C48.4886 242.416 48.2245 243.087 47.8041 243.659C45.9147 246.775 42.5243 248.597 39.0677 249.631C35.6111 250.665 31.9803 251.029 28.463 251.996C24.9457 252.964 19.0443 254.399 16.9868 257.373C15.4568 259.55 14.2355 263.302 14.2355 263.302L12.0063 263.054C11.2923 262.798 10.6477 262.378 10.1244 261.828C9.11199 260.72 8.28349 259.457 7.6706 258.088" fill="#263238"/>
<path d="M40.4054 233.526C40.351 233.564 40.4075 234.22 40.2337 235.454C39.979 237.187 39.3029 238.837 38.2646 240.261C36.7622 242.388 34.495 243.861 31.9429 244.369C29.0627 244.946 25.799 244.309 22.3535 244.067C19.0451 243.635 15.6689 244.227 12.6826 245.764C11.4657 246.421 10.4118 247.344 9.60121 248.463C8.79064 249.581 8.24484 250.865 8.00536 252.217C7.88074 253.132 7.94369 254.059 8.19044 254.943C8.43719 255.827 8.86257 256.65 9.44079 257.361C9.75996 257.737 10.1331 258.064 10.5484 258.332C10.8429 258.498 11.0037 258.572 11.0155 258.55C10.5344 258.129 10.0875 257.671 9.6791 257.179C8.6807 255.764 8.27483 254.013 8.54606 252.29C8.80919 251.028 9.35328 249.837 10.1381 248.804C10.9229 247.772 11.9284 246.925 13.0802 246.327C15.9481 244.905 19.1671 244.369 22.3193 244.787C25.7013 245.074 29.0474 245.693 32.1069 245.043C34.3517 244.548 36.3867 243.349 37.9102 241.623C39.4337 239.897 40.3645 237.736 40.5647 235.461C40.608 234.976 40.6 234.488 40.5409 234.005C40.4701 233.694 40.4298 233.522 40.4054 233.526Z" fill="#455A64"/>
<path d="M17.6136 279.166C17.6136 279.166 17.7731 278.783 17.6664 278.103C17.4746 277.143 17.0222 276.259 16.3574 275.545C14.7519 273.588 11.3083 272.702 9.05026 270.018C7.95107 268.819 7.26159 267.302 7.0761 265.676C6.9832 264.353 7.3313 263.026 8.06708 261.897C8.56002 261.121 9.24681 260.482 10.0586 260.043C10.6496 259.76 11.0191 259.675 11.0086 259.601C10.6489 259.56 10.2819 259.618 9.94867 259.77C9.00822 260.132 8.1931 260.765 7.61067 261.585C6.73658 262.797 6.3007 264.258 6.37578 265.726C6.53572 267.518 7.2713 269.198 8.47504 270.52C9.64099 271.806 11.036 272.868 12.5937 273.656C13.8146 274.262 14.9423 275.031 15.9458 275.944C16.8315 276.811 17.4146 277.937 17.6136 279.166Z" fill="#455A64"/>
</svg>
