<svg width="194" height="192" viewBox="0 0 194 192" fill="none" xmlns="http://www.w3.org/2000/svg">
<mask id="mask0_751_2228" style="mask-type:luminance" maskUnits="userSpaceOnUse" x="2" y="2" width="190" height="188">
<path d="M178.015 2H15.9848C8.2612 2 2 8.19529 2 15.8376V176.162C2 183.805 8.2612 190 15.9848 190H178.015C185.739 190 192 183.805 192 176.162V15.8376C192 8.19529 185.739 2 178.015 2Z" fill="white"/>
</mask>
<g mask="url(#mask0_751_2228)">
<path d="M178.017 0.568542H15.9862C7.46359 0.568542 0.554688 7.40472 0.554688 15.8376V176.162C0.554688 184.595 7.46359 191.432 15.9862 191.432H178.017C186.539 191.432 193.448 184.595 193.448 176.162V15.8376C193.448 7.40472 186.539 0.568542 178.017 0.568542Z" fill="#CCEBFF"/>
<path d="M256.967 182.671C257.623 177.976 250.862 174.025 245.779 173.614C243.359 173.424 240.841 173.796 238.546 172.994C233.569 171.286 231.582 164.93 226.731 162.897C223.105 161.39 218.919 162.726 215.408 164.482C211.898 166.238 208.416 168.432 204.481 168.69C201.067 168.91 197.344 167.65 194.354 169.301C192.126 170.532 190.959 173.061 188.905 174.569C186.86 176.077 184.275 176.353 181.777 176.449C179.279 176.544 176.714 176.611 174.428 177.632C172.142 178.653 170.281 181.039 170.754 183.463L256.967 182.661V182.671Z" fill="#EBEBEB"/>
<path d="M48.3828 139.145C49.0483 134.449 42.2778 130.508 37.2047 130.088C34.7839 129.897 32.257 130.269 29.9712 129.477C24.9849 127.76 23.0077 121.404 18.1564 119.371C14.5204 117.863 10.3443 119.199 6.8336 120.955C3.32294 122.711 -0.158787 124.906 -4.10346 125.164C-7.51767 125.383 -11.2309 124.124 -14.2207 125.775C-16.4486 127.006 -17.6156 129.535 -19.67 131.042C-21.7243 132.55 -24.2994 132.827 -26.7974 132.922C-29.2953 133.018 -31.8705 133.085 -34.1466 134.115C-36.4131 135.146 -38.2938 137.513 -37.8212 139.937L48.3828 139.135V139.145Z" fill="#EBEBEB"/>
<path d="M231.912 112.939C232.336 109.809 227.88 107.242 224.524 106.965C222.923 106.841 221.264 107.08 219.779 106.564C216.499 105.429 215.188 101.23 211.986 99.8936C209.584 98.9011 206.835 99.7791 204.511 100.943C202.187 102.108 199.901 103.549 197.306 103.711C195.05 103.854 192.561 103.024 190.661 104.112C189.195 104.932 188.424 106.602 187.064 107.595C185.656 108.454 184.026 108.893 182.367 108.855C180.718 108.816 179.068 109.074 177.516 109.637C176.011 110.324 174.786 111.88 175.095 113.483L231.912 112.93V112.939Z" fill="white"/>
<path d="M52.3647 91.5815L51.2362 63.6773C50.7058 55.9856 54.1778 49.0859 61.9707 48.7709H62.8195C66.2819 48.8282 69.5997 50.1833 72.1073 52.55C74.6149 54.9167 76.1291 58.1328 76.3509 61.5588C76.7753 68.2676 77.1707 75.7017 77.055 79.2995C76.8332 86.6859 69.3393 87.7547 69.3393 87.7547C69.3393 87.7547 69.6575 93.1179 69.7154 95.2651C69.7154 95.2651 68.9149 95.8377 61.9514 96.0858C54.988 96.334 52.3647 91.5815 52.3647 91.5815Z" fill="#EB996E"/>
<path d="M69.3303 87.7261C65.8968 87.6497 62.5501 86.6 59.6953 84.7104C59.6953 84.7104 61.9715 90.131 69.4461 89.5965L69.3303 87.7261Z" fill="#D1734A"/>
<path d="M73.7758 68.2867C73.7758 68.5635 73.6697 68.8307 73.4671 69.0215C73.2742 69.2219 73.0042 69.3269 72.7245 69.3365C72.4544 69.3555 72.194 69.2601 71.9818 69.0883C71.7793 68.9166 71.6539 68.6684 71.625 68.4012C71.625 68.1245 71.7407 67.8668 71.9433 67.6664C72.1362 67.4755 72.4062 67.361 72.6859 67.3515C72.956 67.3324 73.2164 67.4183 73.4189 67.5996C73.6214 67.7714 73.7468 68.0195 73.7661 68.2867H73.7758Z" fill="#263238"/>
<path d="M74.461 65.6528C74.326 65.7959 73.5158 65.1852 72.3681 65.1661C71.2204 65.147 70.3717 65.7005 70.2559 65.5573C70.1306 65.4142 70.3331 65.2615 70.6996 64.9943C71.2011 64.6603 71.7991 64.4885 72.4067 64.5076C73.0047 64.5171 73.5834 64.7175 74.0559 65.0706C74.4032 65.3474 74.5189 65.5955 74.4514 65.6528H74.461Z" fill="#263238"/>
<path d="M63.9492 68.468C63.8142 68.6016 63.004 68.0004 61.866 67.9813C60.7375 67.9622 59.8599 68.5157 59.7441 68.3726C59.6188 68.2295 59.8213 68.0672 60.1974 67.8095C60.699 67.4755 61.2873 67.3038 61.8949 67.3228C62.4929 67.3228 63.0812 67.5233 63.5538 67.8764C63.8914 68.1626 64.0071 68.4012 63.9396 68.468H63.9492Z" fill="#263238"/>
<path d="M67.4522 74.6042C68.0695 74.4229 68.706 74.3179 69.3522 74.3084C69.6512 74.3084 69.9212 74.2321 69.9791 74.0316C70.008 73.7358 69.9502 73.4304 69.7959 73.1632L68.9664 70.9397C68.1852 69.0501 67.5486 67.1033 67.0664 65.1183C67.9923 66.9315 68.7639 68.8211 69.3811 70.7488L70.1816 72.9819C70.3552 73.335 70.4035 73.7358 70.307 74.1175C70.2684 74.2225 70.2009 74.3084 70.1141 74.3847C70.0273 74.4611 69.9309 74.5088 69.8248 74.5374C69.6608 74.5756 69.4872 74.5947 69.3233 74.5947C68.706 74.671 68.0695 74.671 67.4522 74.5947V74.6042Z" fill="#263238"/>
<path d="M64.0083 65.4333C63.8637 65.7291 62.7352 65.4906 61.3754 65.5287C60.0155 65.5669 58.8967 65.8341 58.7424 65.5287C58.6748 65.3951 58.8967 65.1279 59.3596 64.8607C59.9769 64.5458 60.6616 64.374 61.3561 64.3645C62.0505 64.3549 62.7352 64.4981 63.3718 64.7844C63.8444 65.0325 64.0759 65.2901 64.0083 65.4333Z" fill="#263238"/>
<path d="M74.887 61.3679C74.7134 61.6637 73.7586 61.6065 72.6784 61.8164C71.5982 62.0359 70.7109 62.4177 70.4505 62.1982C70.3251 62.0836 70.4505 61.8069 70.7591 61.4824C71.2413 61.0625 71.8297 60.7858 72.4662 60.6713C73.1028 60.5472 73.7586 60.5854 74.3662 60.8049C74.8002 61.0148 74.9835 61.2438 74.887 61.3584V61.3679Z" fill="#263238"/>
<path d="M50.2053 74.5184C50.2053 74.5184 50.1088 74.5852 49.9545 74.652C49.8484 74.6997 49.7327 74.7188 49.6266 74.7188C49.5205 74.7188 49.3951 74.6997 49.2987 74.652C48.9707 74.4516 48.691 74.1653 48.5078 73.8217C48.3246 73.4782 48.2377 73.0964 48.2474 72.7147C48.2281 72.2853 48.3053 71.8463 48.4789 71.4455C48.5271 71.2832 48.6139 71.1401 48.7296 71.0256C48.8454 70.9111 48.99 70.8156 49.1443 70.7584C49.2408 70.7298 49.3565 70.7393 49.453 70.7775C49.5494 70.8252 49.6266 70.892 49.6748 70.9874C49.752 71.1306 49.6748 71.2355 49.752 71.2451C49.8291 71.2451 49.8581 71.1592 49.8098 70.9492C49.7809 70.8252 49.7134 70.7202 49.6073 70.6439C49.4626 70.5389 49.289 70.5007 49.1154 70.5198C48.9032 70.558 48.7007 70.6534 48.5271 70.787C48.3631 70.9302 48.2377 71.1115 48.1606 71.3119C47.9484 71.7509 47.8423 72.2376 47.8616 72.7338C47.8423 73.1823 47.9581 73.6309 48.1992 74.0126C48.4403 74.3943 48.7875 74.6997 49.2022 74.8906C49.3372 74.9287 49.4819 74.9383 49.6266 74.9096C49.7616 74.881 49.8966 74.8333 50.0124 74.7474C50.2149 74.6329 50.2149 74.5184 50.2149 74.5184H50.2053Z" fill="#D1734A"/>
<path d="M68.2394 77.6771C68.2394 77.763 67.979 77.9348 67.4679 77.9825C66.7927 78.0493 66.1176 77.9253 65.5003 77.639C64.8734 77.3718 64.3333 76.9423 63.9476 76.3888C63.6679 75.9594 63.6293 75.6349 63.6968 75.5967C63.774 75.5586 64.4877 76.532 65.7415 77.0759C66.9953 77.6199 68.1526 77.4767 68.2394 77.6676V77.6771Z" fill="#263238"/>
<path d="M139.427 65.3665C139.427 65.3665 139.224 64.1832 138.636 64.1832C138.24 64.1832 137.845 64.2881 137.507 64.4981C137.17 64.708 136.9 65.0039 136.736 65.3665C136.331 66.2349 139.427 65.3665 139.427 65.3665Z" fill="#EB996E"/>
<path d="M124.336 84.1951L124.924 74.8715L126.824 65.2615C126.824 65.2615 128.309 63.706 129.091 64.0591C129.882 64.4122 129.583 65.71 129.583 65.71C129.583 65.71 131.656 63.496 132.428 64.0018C133.209 64.5076 132.92 65.71 132.92 65.71C132.92 65.71 134.82 63.2479 135.678 63.9255C136.546 64.603 135.678 65.71 135.678 65.71C135.678 65.71 136.845 76.4652 136.257 80.3111C136.073 81.4371 135.63 82.4964 134.955 83.4126C134.28 84.3287 133.383 85.0731 132.36 85.5789L130.798 91.6292L123.082 87.478L124.336 84.1951Z" fill="#EB996E"/>
<path d="M129.053 71.9894L87.1562 71.5313V68.2199L129.053 67.0556V71.999V71.9894Z" fill="#E1323D"/>
<path d="M173.292 75.2723L114.093 72.8006C113.36 70.7011 113.36 68.4299 114.093 66.3304L172.935 63.7537C175.587 66.5403 175.606 72.3998 173.282 75.2723H173.292Z" fill="#E1323D"/>
<path d="M172.723 64.2977C172.723 64.2977 170.938 65.9486 171.006 69.5464C171.073 73.1442 172.906 74.652 172.906 74.652C174.189 73.0678 174.786 71.0351 174.565 69.0215C174.246 65.5001 172.723 64.2977 172.723 64.2977Z" fill="#E0E0E0"/>
<path d="M170.35 75.2723C169.868 74.8906 169.472 74.4039 169.202 73.8504C168.431 72.5621 168.026 71.0924 168.035 69.5941C168.035 68.1054 168.392 66.6453 169.067 65.3188C169.318 64.7558 169.723 64.2595 170.225 63.8873C170.292 63.8873 169.839 64.4695 169.376 65.462C168.817 66.7694 168.527 68.1722 168.518 69.5941C168.518 71.0065 168.836 72.4094 169.463 73.6786C169.781 74.1844 170.08 74.7188 170.34 75.2532L170.35 75.2723Z" fill="#263238"/>
<path d="M172.983 63.8969C173.051 63.9541 172.617 64.4981 172.134 65.4906C171.517 66.7789 171.209 68.2008 171.237 69.6227C171.266 71.0542 171.633 72.4571 172.298 73.7263C172.549 74.2607 172.916 74.7379 173.35 75.1387C173.35 75.1387 173.147 75.1387 172.877 74.9383C172.511 74.652 172.212 74.2989 171.999 73.8981C171.209 72.6097 170.765 71.1401 170.736 69.6418C170.707 68.134 171.083 66.6453 171.835 65.3379C172.096 64.7748 172.491 64.2786 172.983 63.8969Z" fill="#263238"/>
<path d="M173.753 66.8934C173.686 66.7025 173.58 66.5308 173.445 66.3876C173.377 66.3113 173.291 66.254 173.194 66.2254C173.098 66.1968 172.992 66.1872 172.895 66.1968C172.799 66.2158 172.702 66.2731 172.625 66.3399C172.548 66.4067 172.5 66.5021 172.471 66.5976C172.423 66.798 172.442 66.9984 172.538 67.1797C172.76 67.5996 173.107 68.0004 173.088 68.4203C173.069 68.8402 172.972 69.2696 173.001 69.6895C173.001 69.8422 173.059 69.9949 173.146 70.119C173.184 70.1858 173.252 70.2335 173.319 70.2717C173.387 70.3099 173.464 70.3194 173.551 70.3194C173.811 70.3194 173.927 70.0045 173.985 69.7563C174.207 68.802 174.13 67.8 173.753 66.8934Z" fill="white"/>
<path d="M114.083 73.0105C113.456 71.999 113.176 70.8252 113.273 69.6514C113.224 68.468 113.552 67.3037 114.218 66.3208C114.362 66.3781 113.813 67.8095 113.793 69.6609C113.774 71.5123 114.218 72.9628 114.083 73.0105Z" fill="#263238"/>
<path d="M87.0662 72.3139C86.9023 72.3139 86.7383 72.2471 86.6129 72.1326C86.4972 72.0181 86.4297 71.8559 86.4297 71.6841V68.1722C86.4297 68.01 86.4972 67.8477 86.6129 67.7237C86.7287 67.5996 86.8926 67.5424 87.0662 67.5424C87.2398 67.5424 87.3942 67.6092 87.5195 67.7237C87.6449 67.8382 87.7124 68.0004 87.7124 68.1722V71.6936C87.7124 71.8559 87.6353 72.0181 87.5195 72.1326C87.4038 72.2471 87.2398 72.3139 87.0662 72.3139Z" fill="#E1323D"/>
<path d="M87.0664 72.3139C87.0664 72.3139 87.24 72.3139 87.404 72.0944C87.5101 71.999 87.5679 71.8558 87.5679 71.7222V71.0638C87.5679 70.5007 87.5679 69.9186 87.5197 69.3174V68.2867C87.5294 68.2295 87.539 68.1627 87.5197 68.1054C87.5004 68.0481 87.4811 67.9909 87.4425 67.9432C87.404 67.8954 87.3558 67.8573 87.2979 67.8286C87.24 67.8 87.1821 67.7905 87.1146 67.7905C87.0568 67.7905 86.9892 67.8096 86.941 67.8382C86.8832 67.8668 86.8349 67.905 86.7964 67.9527C86.7578 68.0004 86.7288 68.0577 86.7192 68.1149C86.7096 68.1722 86.6999 68.239 86.7192 68.2963V69.3269C86.7192 69.9568 86.6999 70.5389 86.6613 71.0733V71.7318C86.6613 71.7986 86.671 71.8749 86.6999 71.9322C86.7288 71.999 86.7674 72.0563 86.8157 72.104C86.9893 72.2757 87.1629 72.2853 87.1532 72.3235C87.1532 72.3616 86.97 72.4284 86.6903 72.2567C86.6035 72.1994 86.536 72.1231 86.4877 72.0372C86.4395 71.9513 86.4009 71.8558 86.3913 71.7604V71.0733C86.3913 70.5103 86.3913 69.9281 86.3431 69.3269V68.2963C86.3238 68.0577 86.3913 67.8191 86.5456 67.6282C86.6324 67.5328 86.7288 67.4469 86.8542 67.3897C86.97 67.3324 87.105 67.3038 87.2304 67.3038C87.3654 67.3038 87.4908 67.3324 87.6065 67.3897C87.7222 67.4469 87.8283 67.5233 87.9151 67.6187C88.0598 67.8096 88.1273 68.0481 88.108 68.2867V69.3174C88.108 69.9472 88.0887 70.5294 88.0502 71.0638V71.7509C88.0309 71.8463 88.0019 71.9417 87.9441 72.0276C87.8862 72.1135 87.8187 72.1899 87.7319 72.2471C87.2111 72.4189 87.0471 72.333 87.0568 72.3139H87.0664Z" fill="#263238"/>
<path d="M94.3481 79.2613C94.3481 79.2613 93.4511 68.3726 93.7212 67.4183C93.9912 66.4639 97.0196 63.0952 98.0806 62.9807C99.1415 62.8662 99.2572 64.0304 99.2572 64.0304C100.145 63.4483 101.157 63.0857 102.208 62.9711C102.614 62.933 103.019 63.0475 103.337 63.2861C103.665 63.5246 103.877 63.8777 103.954 64.2786C104.658 63.8587 105.497 63.7346 106.298 63.9159C106.925 64.0304 107.648 65.1184 107.648 65.1184C107.648 65.1184 109.191 64.4599 109.934 65.1184C110.541 65.7768 110.879 66.6357 110.879 67.5232C109.895 67.5232 108.931 67.8191 108.13 68.3917C107.957 70.7679 107.629 73.1251 107.156 75.4536C106.568 77.7821 104.234 79.7194 103.443 80.9218L102.826 88.9667L92.8242 83.7466L94.3481 79.2708V79.2613Z" fill="#EB996E"/>
<path d="M96.5947 68.239C96.5272 67.7428 96.5658 67.2274 96.7105 66.7407C96.8551 66.254 97.0962 65.8055 97.4145 65.4142C97.6749 64.9752 98.0125 64.5935 98.4272 64.2977C98.8419 64.0018 99.3145 63.7919 99.816 63.6774C99.0927 64.2977 98.4272 64.9657 97.8196 65.7005C97.347 66.5117 96.9323 67.361 96.5851 68.239H96.5947Z" fill="#D1734A"/>
<path d="M101.457 68.0481C101.312 67.6187 101.284 67.1606 101.351 66.7025C101.428 66.254 101.602 65.8245 101.872 65.4619C102.209 64.8989 102.73 64.4599 103.357 64.2213C103.83 64.0591 104.148 64.0972 104.158 64.1545C104.167 64.2117 103 64.5267 102.306 65.7196C101.949 66.4639 101.66 67.2369 101.457 68.0386V68.0481Z" fill="#D1734A"/>
<path d="M105.083 67.695C104.948 67.695 105.17 66.6358 106.105 65.815C107.041 64.9943 108.092 64.8798 108.102 64.9848C108.111 65.0898 107.253 65.4238 106.443 66.1777C105.623 66.9316 105.257 67.7332 105.083 67.6855V67.695Z" fill="#D1734A"/>
<path d="M130.691 81.943C132.36 79.9962 131.087 74.7665 131.087 74.7665C131.791 74.5184 132.418 74.1176 132.929 73.5832C133.44 73.0487 133.826 72.3998 134.038 71.7032C134.626 69.3651 133.45 68.9738 133.45 68.9738C133.054 69.1742 129.409 71.5123 127.538 72.4857C125.666 73.4591 125.078 83.384 125.078 83.384" fill="#EB996E"/>
<path d="M125.087 83.3362C125.039 82.9068 125.039 82.4678 125.087 82.0288C125.135 81.189 125.222 79.9866 125.396 78.4979C125.569 76.7419 125.965 75.0051 126.572 73.3446C126.678 73.0964 126.813 72.8674 126.968 72.6479C127.141 72.4189 127.373 72.2376 127.643 72.1135C128.096 71.8654 128.588 71.6077 129.022 71.331L131.867 69.5941C132.359 69.2983 132.822 69.0024 133.333 68.7161L133.43 68.6589L133.526 68.7066C133.719 68.802 133.883 68.9261 134.018 69.0883C134.153 69.2506 134.249 69.4414 134.307 69.6418C134.413 69.9854 134.462 70.348 134.433 70.7107C134.394 71.6745 134.056 72.6002 133.468 73.3636C132.88 74.1271 132.07 74.6997 131.144 74.9955L131.279 74.7474C131.703 76.5129 131.8 78.3356 131.549 80.1393C131.462 80.6355 131.288 81.1222 131.038 81.5707C130.941 81.7234 130.826 81.857 130.69 81.9716C130.748 81.8093 130.826 81.6471 130.932 81.5039C131.134 81.0554 131.269 80.5878 131.327 80.1011C131.481 78.3356 131.327 76.5606 130.893 74.8524L130.845 74.6711L131.028 74.6043C132.089 74.2034 132.967 73.4304 133.507 72.4475C133.777 71.9035 133.931 71.3023 133.96 70.6916C134.008 70.4148 133.989 70.119 133.883 69.8613C133.777 69.5941 133.603 69.3651 133.372 69.1933H133.565C133.121 69.451 132.619 69.7659 132.147 70.0617C131.202 70.6629 130.247 71.2451 129.302 71.7986C128.839 72.0753 128.356 72.333 127.903 72.5811C127.691 72.667 127.508 72.8101 127.373 72.9819C127.228 73.1632 127.112 73.3636 127.026 73.5831C126.408 75.1959 125.994 76.8851 125.781 78.6028C125.55 80.0725 125.415 81.2749 125.309 82.1052C125.28 82.5251 125.212 82.9354 125.097 83.3458L125.087 83.3362Z" fill="#D1734A"/>
<path d="M52.3845 168.986C52.3845 168.986 53.5515 216.253 52.3845 222.017C51.2175 227.781 49.25 251.611 49.25 269.284C49.25 286.958 50.0023 290.986 50.0023 290.986H67.3434C67.3434 290.986 68.5779 257.384 73.9307 237.926C78.9074 219.87 84.6267 192.405 84.6267 180.495V164.367H53.9373L52.3845 168.976V168.986Z" fill="#263238"/>
<path d="M94.3393 164.367C94.3393 164.367 112.539 214.326 113.706 228.936C114.873 243.537 114.921 290.986 114.921 290.986H96.9627L94.5708 233.698L80.75 196.566V164.377H94.3393V164.367Z" fill="#263238"/>
<path d="M101.234 186.431H105.083C105.083 186.431 105.97 173.28 103.742 164.367C101.524 155.454 90.1719 116.775 90.1719 116.775L77.6049 96.2672L70.8633 93.2993L92.9978 166.734L101.234 186.44V186.431Z" fill="#455A64"/>
<path d="M49.7344 92.469L50.776 85.8938L69.342 94.1391V90.1691L77.54 103.711L95.5755 154.423C96.1542 155.988 96.8582 161.199 95.807 162.497L94.3313 164.377L74.7816 166.886L56.2445 100.628L49.7344 92.469Z" fill="#E0E0E0"/>
<path d="M71.5 100.046C71.5 100.046 79.9873 128.638 79.9198 128.838C79.8523 129.048 89.3233 158.097 89.3233 158.097L91.2233 149.356L78.0294 105.791L72.7249 99.3592L71.5 100.056V100.046Z" fill="#0099FF"/>
<path d="M44.2181 95.1793C35.5186 100.428 35.0653 108.568 38.9425 117.911C39.579 119.457 40.8425 122.12 41.6719 123.923C45.414 131.806 53.1877 144.66 53.1877 147.667C53.1877 154.748 46.7836 187.586 46.7836 187.586C46.7836 187.586 81.5044 191.756 84.6389 188.521C87.7734 185.286 90.1846 165.045 89.1719 155.988C88.0628 145.997 82.8643 129.096 80.7521 122.835C79.479 119.075 75.2932 109.685 70.3069 103.568C66.5745 98.9679 62.1283 94.9884 57.142 91.7628L49.7445 86.9722L48.2303 92.0396C46.9958 93.2134 45.6552 94.2631 44.2181 95.1793Z" fill="#455A64"/>
<path d="M78.0117 97.422C78.7351 97.422 110.466 107.681 108.624 106.927L109.482 106.049L120.873 88.9954L131.308 95.1125C131.308 95.1125 120.988 114.657 119.281 117.73C118.461 119.228 117.246 120.488 115.761 121.356C114.276 122.225 112.588 122.683 110.861 122.673C108.537 122.673 88.6594 119.381 88.6594 119.381L78.0117 97.441V97.422Z" fill="#455A64"/>
<path d="M90.7695 85.6838L93.2289 81.3799L104.282 87.602L102.565 92.3354L90.7792 85.6743L90.7695 85.6838Z" fill="#E0E0E0"/>
<path d="M42.1709 118.197C41.9009 117.997 74.1623 129.353 80.7399 127.302C87.3176 125.259 89.4394 118.846 91.7927 114.838C96.0943 107.576 103.714 93.1371 103.714 93.1371L90.0663 85.4071L76.477 107.948C76.477 107.948 52.4135 98.1281 50.2049 97.4887C47.9963 96.8493 41.1486 95.9714 37.8115 103.883C34.0694 112.643 42.1709 118.197 42.1709 118.197Z" fill="#455A64"/>
<path d="M42.1701 118.197C42.0833 118.159 41.9965 118.111 41.9193 118.045C41.765 117.93 41.5432 117.749 41.2538 117.51C40.4244 116.795 39.6721 115.983 39.0355 115.096C37.9746 113.674 37.2513 112.042 36.9137 110.305C36.8173 109.78 36.7498 109.246 36.7305 108.711C36.7305 108.158 36.7883 107.585 36.8076 106.984C36.8269 106.383 37.0198 105.801 37.2031 105.2C37.3959 104.579 37.6178 103.978 37.8878 103.386C38.4472 102.098 39.2188 100.905 40.1833 99.8745C41.2442 98.7484 42.5751 97.8991 44.0604 97.4124C45.6614 96.8875 47.3589 96.7539 49.0274 97.0307C49.8954 97.1643 50.7538 97.4029 51.564 97.7464L54.0812 98.6816C60.8614 101.316 68.4036 104.369 76.534 107.681L76.2447 107.776L89.8244 85.2353L89.9498 85.0254L90.1619 85.1494L95.0904 87.9647L103.848 92.9176L104.06 93.0321L103.944 93.242C101.253 98.3095 98.6107 103.224 96.0066 107.91C94.6949 110.257 93.4026 112.548 92.1005 114.771C90.7888 116.995 89.7858 119.276 88.4163 121.347C87.1432 123.408 85.3878 125.145 83.3046 126.395C82.2919 126.987 81.1924 127.407 80.035 127.645C78.9163 127.769 77.7878 127.769 76.669 127.645C72.6569 127.13 68.6929 126.328 64.8061 125.24C57.6691 123.36 52.0269 121.48 48.1594 120.24C44.2822 118.999 42.1797 118.188 42.1797 118.188C42.3147 118.197 42.4498 118.236 42.5751 118.283L43.7325 118.636L48.2076 120.068C52.1041 121.28 57.7558 123.074 64.8833 124.916C68.7604 125.975 72.7147 126.758 76.7076 127.254C77.7975 127.378 78.897 127.378 79.9868 127.254C81.0863 127.015 82.1376 126.605 83.102 126.042C85.1274 124.811 86.8249 123.112 88.0594 121.098C89.4097 119.085 90.4127 116.775 91.7244 114.523C93.0361 112.271 94.3092 110.019 95.6112 107.681C98.2056 102.986 100.848 98.0709 103.529 93.0035L103.636 93.3279L94.8493 88.3941L89.9305 85.5789L90.2584 85.493C85.4553 93.4234 80.8645 101.029 76.6498 108.034L76.5437 108.206L76.3604 108.129C68.2685 104.818 60.6685 101.745 53.9559 99.0634L51.4482 98.1186C50.6574 97.7846 49.8376 97.5365 48.9888 97.4029C47.3782 97.1356 45.7386 97.2597 44.1858 97.7464C42.7584 98.214 41.466 99.0252 40.434 100.104C39.4888 101.096 38.7269 102.251 38.1675 103.491C37.9071 104.064 37.6756 104.665 37.4828 105.266C37.2899 105.849 37.2127 106.45 37.0873 107.013C36.9523 107.576 36.9619 108.148 36.9909 108.692C37.0005 109.217 37.0584 109.742 37.1548 110.257C37.4731 111.966 38.1675 113.588 39.1899 115C39.8168 115.888 40.5401 116.709 41.3406 117.443C41.6107 117.701 41.8229 117.873 41.9772 117.997L42.199 118.169L42.1701 118.197Z" fill="#263238"/>
<path d="M57.6797 166.304L60.6695 160.311L81.5888 160.674L79.2645 166.867L57.6797 166.295V166.304Z" fill="#455A64"/>
<path d="M57.6797 166.304H63.9391C67.8066 166.362 73.1497 166.438 79.2741 166.581L79.033 166.743C79.7467 164.863 80.4893 162.869 81.2513 160.827L81.3574 160.55L81.5888 160.884C73.1594 160.731 65.6462 160.578 60.7081 160.435L60.8528 160.349L58.5574 164.682C58.2969 165.159 58.0944 165.55 57.9305 165.865C57.8533 166.009 57.7761 166.152 57.6797 166.285C57.6797 166.285 57.6797 166.161 57.8437 165.904C58.0076 165.636 58.1716 165.207 58.3934 164.73L60.5249 160.235V160.139H60.6502C65.6269 160.139 73.1401 160.273 81.531 160.426H81.8782L81.7528 160.741L81.6467 161.017L79.4284 166.925L79.3609 167.087H79.1873C72.9376 166.906 67.498 166.705 63.6594 166.552L59.1843 166.371L58.0076 166.314C57.9015 166.314 57.7858 166.314 57.6797 166.314V166.304Z" fill="#263238"/>
<path d="M71.6344 105.276C71.5669 105.4 66.272 102.518 59.8004 98.8438C53.3288 95.1697 48.1496 92.0968 48.2075 91.9919C48.2654 91.8869 53.57 94.7498 60.0415 98.4239C66.5131 102.098 71.7019 105.171 71.6344 105.276Z" fill="#263238"/>
<path d="M78.8705 150.472C78.8705 150.606 73.8264 150.396 67.6248 150.005C61.4137 149.613 56.3888 149.184 56.3985 149.069C56.3985 148.945 61.4523 149.146 67.6538 149.537C73.8649 149.928 78.8802 150.348 78.8705 150.472Z" fill="#263238"/>
<path d="M121.559 89.4438L123.661 85.9319L132.013 90.7608L130.393 94.578L121.559 89.4534V89.4438Z" fill="#E0E0E0"/>
<path d="M110.804 114.132C109.888 113.216 109.184 112.109 108.76 110.897C108.335 109.675 108.2 108.377 108.355 107.099C108.499 107.099 108.548 108.788 109.223 110.735C109.907 112.681 110.949 114.046 110.795 114.132H110.804Z" fill="#263238"/>
<path d="M90.3672 117.491C91.1773 119.39 91.8332 121.347 92.3347 123.351C92.9905 125.307 93.4921 127.311 93.8296 129.353C93.0291 127.454 92.3733 125.488 91.8621 123.494C91.2063 121.537 90.7048 119.533 90.3672 117.491Z" fill="#263238"/>
<path d="M77.5499 115.039C76.7011 114.065 76.1417 112.872 75.9296 111.603C75.7174 110.334 75.8524 109.026 76.325 107.833C76.2671 109.065 76.2961 110.296 76.4214 111.527C76.7108 112.729 77.0869 113.903 77.5499 115.039Z" fill="#263238"/>
<path d="M68.8867 98.1376L69.1182 98.3762L71.5101 100.046L72.706 99.3782L71.9248 96.7634L69.3979 94.8834L68.8867 98.1376Z" fill="#0099FF"/>
<path d="M72.1104 94.8835C72.3708 95.6183 72.554 96.3722 72.6505 97.1452L72.7276 97.546L72.3804 97.2979C71.5413 96.7157 70.4804 95.9427 69.2556 95.0648L69.6317 94.9121C69.516 95.6565 69.3906 96.4295 69.2748 97.2406C69.188 97.7273 69.1109 98.1758 69.0434 98.6626L68.9855 98.9966L68.6865 98.8439C66.8637 97.9564 65.282 97.1738 64.1535 96.5821C63.5266 96.3054 62.9287 95.9618 62.3789 95.561C63.0347 95.7328 63.6713 95.9809 64.2789 96.3054C65.4459 96.8112 67.0662 97.5555 68.8891 98.4144L68.5515 98.5957L68.7733 97.1738C68.9083 96.3627 69.0337 95.5897 69.1495 94.8548L69.217 94.4636L69.5256 94.7021C70.7216 95.6374 71.7728 96.4199 72.5733 97.0498L72.2936 97.212C72.149 96.4485 72.0911 95.666 72.1007 94.893L72.1104 94.8835Z" fill="#263238"/>
<path d="M58.4606 56.0905H58.422C57.3225 56.959 56.6088 58.2091 56.4159 59.5929V59.736C56.1459 61.721 56.1941 63.6964 55.9047 65.6814C55.6154 67.6664 54.9306 69.6418 53.4646 70.9588C52.8667 71.5123 51.8058 71.894 51.3139 71.2451C51.1403 70.9778 51.0631 70.6629 51.0631 70.348C50.687 65.6146 49.3849 61.4156 49.3946 56.4818C49.3946 55.8233 49.5393 55.1649 49.8382 54.5732C50.1372 53.9815 50.5809 53.4662 51.121 53.0749C52.1723 52.3401 53.4454 51.5671 54.6124 52.1111C55.7794 52.655 57.2839 54.8118 58.1809 55.7184" fill="#263238"/>
<path d="M54.459 52.8363C53.292 50.9563 56.494 48.2556 58.8376 47.559C61.1813 46.8623 64.2676 47.9598 66.6016 48.7232C68.0772 49.2004 69.5336 49.878 71.096 49.8207C72.128 49.7157 73.1407 49.4581 74.1052 49.0573C75.0696 48.6564 76.1016 48.456 77.1432 48.4656C77.664 48.4751 78.1752 48.6278 78.6092 48.9046C79.0529 49.1813 79.4001 49.5726 79.6412 50.0307C80.0366 50.985 79.4772 52.2924 78.4356 52.426C78.7635 52.2447 79.13 52.1492 79.5062 52.1492C79.8823 52.1492 80.2488 52.2256 80.5864 52.3974C80.9239 52.5691 81.2133 52.8077 81.4351 53.1131C81.6569 53.4185 81.8016 53.762 81.8498 54.1342C81.9077 54.5064 81.8691 54.8786 81.7437 55.2317C81.6184 55.5848 81.4158 55.8997 81.1361 56.1478C80.8661 56.4055 80.5285 56.5868 80.1717 56.6822C79.8148 56.7777 79.429 56.7967 79.0625 56.7204C79.728 56.2146 80.7696 57.0544 80.6828 57.8847C80.596 58.295 80.3935 58.6767 80.1138 58.9917C79.8341 59.3066 79.4676 59.5356 79.0625 59.6692C77.0564 60.5281 74.7706 60.2514 72.726 59.5738C70.6813 58.8962 68.7717 57.8274 66.7173 57.1021C64.663 56.3673 61.2777 55.0503 59.2427 55.7852C57.7382 56.31 55.8478 57.7033 55.8478 57.7033L54.8448 56.8254C54.5843 56.4627 54.4107 56.0333 54.3529 55.5943C54.2371 54.7163 54.2757 53.8193 54.4493 52.9509" fill="#263238"/>
<path d="M51.748 69.1169C51.6129 69.0597 46.6363 67.5328 46.7038 72.5811C46.781 77.6294 51.8926 76.5224 51.9023 76.3888C51.9023 76.2457 51.7383 69.1169 51.7383 69.1169H51.748Z" fill="#EB996E"/>
</g>
<path d="M178.015 2H15.9848C8.2612 2 2 8.19529 2 15.8376V176.162C2 183.805 8.2612 190 15.9848 190H178.015C185.739 190 192 183.805 192 176.162V15.8376C192 8.19529 185.739 2 178.015 2Z" stroke="#0099FF" stroke-width="3"/>
</svg>
