<svg width="192" height="192" viewBox="0 0 192 192" fill="none" xmlns="http://www.w3.org/2000/svg">
<mask id="mask0_751_2257" style="mask-type:luminance" maskUnits="userSpaceOnUse" x="1" y="1" width="190" height="190">
<path d="M175.8 1H16.2C7.80527 1 1 7.80527 1 16.2V175.8C1 184.195 7.80527 191 16.2 191H175.8C184.195 191 191 184.195 191 175.8V16.2C191 7.80527 184.195 1 175.8 1Z" fill="white"/>
</mask>
<g mask="url(#mask0_751_2257)">
<path d="M175.8 1H16.2C7.80527 1 1 7.80527 1 16.2V175.8C1 184.195 7.80527 191 16.2 191H175.8C184.195 191 191 184.195 191 175.8V16.2C191 7.80527 184.195 1 175.8 1Z" fill="#CCEBFF"/>
<path d="M171.523 132.717H49.8281V36.492L171.599 36.264L171.523 132.717Z" fill="#FAFAFA"/>
<path d="M171.524 132.718C171.524 131.815 171.524 94.119 171.467 36.264L171.6 36.3685L50.0188 36.6155H49.8288L49.9808 36.492V132.718L49.8478 132.613L171.543 132.718L49.8478 132.822H49.7148V36.3685H50.0568L171.638 36.15H171.771V36.2545C171.638 94.119 171.533 131.815 171.524 132.718Z" fill="#263238"/>
<path d="M163.345 123.683H161.702L156.98 123.712L139.614 123.769L82.3007 123.816H57.4297V123.655C57.4297 107.286 57.4772 93.207 57.4867 83.2035C57.4867 78.216 57.5152 74.245 57.5342 71.5185V67.3195C57.5342 67.4145 57.5342 67.5 57.5342 67.595V71.5185C57.5342 74.2545 57.5627 78.2255 57.5817 83.2035C57.5817 93.207 57.6197 107.286 57.6387 123.655L57.4772 123.503H82.1867L139.5 123.55L156.866 123.607L161.588 123.636H162.813L163.336 123.683H163.345Z" fill="#263238"/>
<path d="M76.8577 109.766H66.1797V120.444H76.8577V109.766Z" fill="#FF725E"/>
<path d="M92.5218 102.128H81.8438V120.444H92.5218V102.128Z" fill="#FF725E"/>
<path d="M108.244 93.454H97.5664V120.443H108.244V93.454Z" fill="#FF725E"/>
<path d="M123.494 83.7925H112.816V120.443H123.494V83.7925Z" fill="#FF725E"/>
<path d="M139.092 71.4235H128.414V120.443H139.092V71.4235Z" fill="#FF725E"/>
<path d="M154.569 61.9995H143.891V119.94H154.569V61.9995Z" fill="#FF725E"/>
<g opacity="0.5">
<path d="M92.5218 102.128H81.8438V120.444H92.5218V102.128Z" fill="white"/>
</g>
<g opacity="0.5">
<path d="M123.494 83.7925H112.816V120.443H123.494V83.7925Z" fill="white"/>
</g>
<g opacity="0.5">
<path d="M154.576 61.9995H143.898V119.94H154.576V61.9995Z" fill="white"/>
</g>
<path d="M66.1797 98.812C66.1797 98.812 66.2747 98.736 66.3222 98.7075L66.7402 98.4225L68.3647 97.3395L74.4922 93.3115L95.6867 79.451L95.9337 79.2895V84.3625L95.6772 84.2295L104.028 78.634L133.516 58.9405L142.474 52.9935L144.916 51.369L145.552 50.9605C145.619 50.913 145.695 50.8655 145.78 50.8275C145.714 50.8845 145.647 50.932 145.571 50.989L144.954 51.426L142.541 53.0505L133.649 59.1305L104.227 78.9095L95.8862 84.505L95.6297 84.676V79.584L95.8767 79.717L74.5967 93.4825L68.4217 97.444L66.7687 98.489L66.3317 98.755C66.2367 98.8025 66.1892 98.8215 66.1797 98.8215V98.812Z" fill="#263238"/>
<path d="M145.78 55.359C145.685 54.9315 145.647 54.485 145.666 54.048C145.637 53.231 145.618 52.091 145.609 50.799L145.78 50.97H145.371C144.003 50.97 142.768 50.97 141.875 50.9225C141.391 50.9415 140.897 50.9035 140.422 50.799C140.906 50.723 141.391 50.6945 141.885 50.7325C142.778 50.704 144.013 50.685 145.39 50.685H145.96V50.8465C145.96 52.1195 145.96 53.2595 145.903 54.0955C145.913 54.523 145.875 54.9505 145.789 55.3685L145.78 55.359Z" fill="#263238"/>
<path d="M67.9354 63.9565C67.9354 63.9565 66.6624 75.7555 68.2869 82.2155L84.0474 81.522C84.0474 81.522 80.6749 69.8845 82.7459 64.745L67.9354 63.9565Z" fill="#EBEBEB"/>
<path d="M68.0039 63.586C68.0039 63.586 68.1084 76.3255 68.7544 80.211L84.7334 79.451C84.7334 79.451 83.3274 66.93 83.8689 63.586H68.0039Z" fill="#FF725E"/>
<path d="M81.4543 68.9345C81.4543 68.9915 79.0603 69.1815 76.1058 69.362C73.1418 69.5425 70.7478 69.6375 70.7383 69.5805C70.7383 69.5235 73.1323 69.324 76.0868 69.1435C79.0508 68.963 81.4448 68.8775 81.4543 68.9345Z" fill="white"/>
<path d="M81.466 71.6325C81.466 71.6895 79.072 71.8795 76.1175 72.06C73.1535 72.2405 70.75 72.3355 70.75 72.2785C70.75 72.2215 73.144 72.0315 76.0985 71.851C79.0625 71.6705 81.4565 71.5755 81.466 71.6325Z" fill="white"/>
<path d="M78.7469 74.283C78.4524 74.359 78.1579 74.397 77.8634 74.4065C77.3219 74.4635 76.5524 74.5205 75.6974 74.568C74.8519 74.6155 74.0729 74.6535 73.5314 74.663C73.2369 74.701 72.9329 74.701 72.6289 74.663C72.9234 74.587 73.2179 74.549 73.5219 74.5395C74.0634 74.4825 74.8329 74.4255 75.6879 74.378C76.5334 74.3305 77.3124 74.2925 77.8539 74.283C78.1484 74.245 78.4524 74.245 78.7469 74.283Z" fill="white"/>
<path d="M107.874 49.051C107.874 49.146 98.5256 49.2125 87.0021 49.2125C75.4786 49.2125 66.1211 49.146 66.1211 49.051C66.1211 48.956 75.4596 48.88 86.9831 48.88C98.5066 48.88 107.874 48.956 107.874 49.051Z" fill="#263238"/>
<path d="M81.4646 52.8605C81.4646 52.9555 77.9591 53.022 73.6366 53.022C69.3141 53.022 65.8086 52.9555 65.8086 52.8605C65.8086 52.7655 69.3141 52.6895 73.6366 52.6895C77.9591 52.6895 81.4646 52.7655 81.4646 52.8605Z" fill="#263238"/>
<path d="M89.7769 52.8605C89.7769 52.9555 88.4279 53.022 86.7654 53.022C85.1029 53.022 83.7539 52.9555 83.7539 52.8605C83.7539 52.7655 85.1029 52.6895 86.7654 52.6895C88.4279 52.6895 89.7769 52.7655 89.7769 52.8605Z" fill="#263238"/>
<path d="M62.6843 143.433C62.6843 143.433 59.5968 146.749 58.0768 149.931C56.5568 153.104 55.5783 160.685 55.5783 160.685C55.5783 160.685 51.3033 170.204 51.9493 175.068C52.5953 179.942 56.9558 213.239 56.9558 213.239C56.9558 213.239 56.7373 245.615 59.8248 251.382L60.5088 254.507L72.9538 252.294L73.6568 250.584L75.5473 186.943L83.3088 143.728L62.6748 143.433H62.6843Z" fill="#455A64"/>
<path d="M68.2692 156.439C68.2122 156.277 68.1932 156.106 68.1837 155.926C68.1457 155.603 68.1267 155.128 68.1172 154.539C68.1172 153.009 68.2122 151.48 68.3832 149.96C68.5922 148.231 68.7632 146.663 68.9247 145.409C68.9722 144.782 69.0482 144.146 69.1717 143.529C69.2287 144.165 69.2192 144.801 69.1432 145.438C69.0672 146.606 68.8867 148.221 68.6967 149.998C68.5067 151.774 68.3737 153.39 68.3357 154.549C68.2977 155.708 68.3167 156.439 68.2597 156.449L68.2692 156.439Z" fill="#455A64"/>
<path d="M70.5965 148.782C70.245 147.965 70.036 147.091 69.979 146.208C69.8175 145.334 69.789 144.441 69.9125 143.557C70.093 144.422 70.2165 145.286 70.283 146.16C70.4445 147.025 70.549 147.899 70.606 148.773L70.5965 148.782Z" fill="#455A64"/>
<path d="M78.5863 146.217C78.5293 146.217 78.5483 145.809 78.1018 145.505C77.9783 145.419 77.8358 145.372 77.6838 145.353C77.5318 145.334 77.3893 145.353 77.2468 145.419C77.0758 145.486 76.9333 145.59 76.8288 145.742C76.7243 145.885 76.6768 146.065 76.6768 146.246C76.6768 146.426 76.7338 146.597 76.8288 146.749C76.9333 146.892 77.0758 147.006 77.2468 147.072C77.3893 147.12 77.5413 147.139 77.6838 147.12C77.8263 147.101 77.9688 147.044 78.0923 146.958C78.5293 146.635 78.4913 146.208 78.5483 146.227C78.6053 146.246 78.5958 146.322 78.5768 146.493C78.5388 146.74 78.4153 146.968 78.2253 147.129C78.0828 147.262 77.9023 147.348 77.7123 147.386C77.5223 147.424 77.3228 147.414 77.1423 147.348C76.9238 147.272 76.7243 147.129 76.5818 146.939C76.4393 146.749 76.3633 146.521 76.3633 146.284C76.3633 146.046 76.4298 145.818 76.5628 145.619C76.6958 145.419 76.8858 145.267 77.1043 145.191C77.2848 145.125 77.4748 145.096 77.6648 145.134C77.8548 145.163 78.0353 145.248 78.1778 145.372C78.3773 145.524 78.5103 145.752 78.5483 145.989C78.6053 146.151 78.5768 146.246 78.5673 146.246L78.5863 146.217Z" fill="#455A64"/>
<path d="M91.4768 152.174C91.4768 152.174 97.6043 193.841 98.2598 200.966C98.9153 208.091 73.5883 245.568 73.5883 245.568L62.0078 233.503L78.6328 202.6L73.2178 171.459L80.7323 143.937L90.5078 143.785L91.4863 152.174H91.4768Z" fill="#455A64"/>
<path d="M57.9141 241.407C57.9141 241.407 57.9141 241.72 58.0091 242.319C58.1041 242.917 58.2276 243.782 58.4366 244.912C58.8546 247.173 59.5196 250.441 60.4221 254.517V254.602H60.5076L72.9526 252.436H73.0476V252.341C73.3896 243.801 73.8076 233.588 74.2541 222.635C74.7101 210.855 75.1376 199.911 75.4891 190.962C76.4201 183.761 77.1896 177.814 77.7311 173.653C77.9876 171.582 78.1966 169.957 78.3391 168.836C78.4056 168.295 78.4531 167.867 78.4911 167.573C78.5291 167.278 78.5291 167.136 78.5291 167.136C78.5291 167.136 78.5006 167.278 78.4531 167.563C78.4056 167.848 78.3486 168.285 78.2726 168.827C78.1111 169.948 77.8926 171.572 77.5981 173.634L75.2516 190.943C74.8906 199.901 74.4441 210.826 73.9691 222.616C73.5416 233.569 73.1426 243.782 72.8101 252.322L72.9051 252.218L60.4601 254.45L60.5646 254.517C59.6431 250.441 58.9401 247.173 58.4936 244.931C58.2751 243.801 58.1136 242.936 58.0186 242.347C57.9711 242.053 57.9331 241.806 57.9236 241.673C57.9236 241.587 57.9236 241.492 57.9141 241.407Z" fill="#263238"/>
<path d="M53.128 98.014C50.8955 100.047 49.0525 102.469 47.713 105.177C45.889 108.91 34.755 130.561 36.294 132.917C37.833 135.273 42.374 137.249 42.83 137.182C43.286 137.116 51.817 131.986 51.817 131.986C51.817 131.986 57.1275 115.047 57.1845 115.009C57.2415 114.962 53.1185 98.0235 53.1185 98.0235L53.128 98.014Z" fill="#E0E0E0"/>
<path d="M96.4375 126.818C96.4375 126.818 98.5275 158.12 98.29 159.773C98.0525 161.426 93.9105 169.482 93.9105 169.482L91.1365 160.03L93.3975 155.441L89.7305 129.649L96.4375 126.808V126.818Z" fill="#B78876"/>
<path d="M82.4528 95.772L77.9973 95.0785C77.9973 95.0785 78.2063 103.039 71.2998 103.334C63.4623 103.657 62.1038 95.2875 62.1038 95.2875C62.1038 95.2875 54.5323 96.684 53.1453 97.957C51.7583 99.23 58.3323 132.66 58.3323 132.66L57.7053 154.244C57.7053 154.244 66.1033 158.462 75.9263 158.576C78.8048 158.605 81.6643 158.063 84.3338 156.961C87.0033 155.869 89.4163 154.244 91.4493 152.192L93.2638 147.509L89.8343 130.191L82.4528 95.772Z" fill="#E0E0E0"/>
<path d="M82.4453 95.924C82.4453 95.924 87.9363 97.5485 89.6083 99.781C91.2708 102.014 97.2653 127.512 97.2653 127.512L89.8553 130.362L82.4453 95.9335V95.924Z" fill="#E0E0E0"/>
<path d="M86.0525 104.512C86.043 104.607 86.043 104.692 86.0525 104.787C86.0525 104.996 86.119 105.253 86.157 105.566C86.2615 106.279 86.4135 107.238 86.594 108.407C86.974 110.848 87.487 114.135 88.0475 117.774C88.608 121.412 89.0735 124.718 89.425 127.16C89.596 128.328 89.7385 129.288 89.843 130L89.976 130.779C90.0045 130.96 90.0235 131.045 90.033 131.045C90.0425 130.96 90.0425 130.865 90.033 130.779C90.033 130.57 89.9855 130.304 89.957 130C89.8905 129.326 89.7765 128.347 89.634 127.141C89.3395 124.728 88.8835 121.403 88.3325 117.736C87.7815 114.069 87.221 110.763 86.7935 108.378C86.5845 107.181 86.3945 106.212 86.252 105.547C86.195 105.243 86.138 105.006 86.0905 104.787C86.0905 104.702 86.0715 104.607 86.043 104.521L86.0525 104.512Z" fill="#263238"/>
<path d="M67.1406 117.888C67.2831 118.135 67.4541 118.363 67.6346 118.591C67.9576 119.037 68.4611 119.674 69.1071 120.396C72.5081 124.263 76.6691 127.398 81.3336 129.592C82.2171 130.01 82.9581 130.324 83.4711 130.514C83.7371 130.628 84.0031 130.713 84.2786 130.789C84.0316 130.647 83.7751 130.514 83.5091 130.419C83.0056 130.2 82.2931 129.877 81.4191 129.421C76.8496 127.141 72.7266 124.044 69.2591 120.292C68.5941 119.57 68.0716 118.98 67.7201 118.553C67.5491 118.315 67.3591 118.097 67.1501 117.907L67.1406 117.888Z" fill="#263238"/>
<path d="M86.4062 105.424C86.4347 105.5 87.4608 105.101 88.7528 104.74C90.0447 104.379 91.1277 104.198 91.1182 104.094C89.4652 104.141 87.8407 104.597 86.4062 105.424Z" fill="#455A64"/>
<path d="M53.7422 108.17C53.8562 108.179 53.9702 108.179 54.0747 108.17L55.0342 108.122L58.5302 107.923L70.0917 107.134C74.6137 106.783 78.6987 106.507 81.6627 106.45C83.1352 106.412 84.3417 106.403 85.1682 106.412H86.1277C86.2417 106.422 86.3462 106.422 86.4602 106.412C86.3557 106.384 86.2417 106.365 86.1277 106.374C85.9092 106.374 85.5862 106.336 85.1777 106.317C84.3512 106.279 83.1447 106.251 81.6627 106.26C78.6892 106.26 74.5947 106.517 70.0822 106.868L58.5207 107.733L55.0152 108.027L54.0652 108.122C53.9512 108.122 53.8467 108.132 53.7422 108.16V108.17Z" fill="#455A64"/>
<path d="M87.4883 111.399C88.3908 111.418 89.3028 111.342 90.1958 111.181C91.1078 111.105 92.0198 110.934 92.9033 110.677C92.0008 110.658 91.0888 110.734 90.1958 110.896C89.2743 110.972 88.3718 111.133 87.4883 111.399Z" fill="#455A64"/>
<path d="M55.3984 117.08C55.5124 117.099 55.6169 117.099 55.7309 117.08L56.6714 117.042C57.4884 116.995 58.6664 116.928 60.1294 116.824C63.0364 116.615 67.0739 116.282 71.4914 115.617C73.6954 115.285 75.7854 114.876 77.6854 114.534C79.5759 114.183 81.2954 113.888 82.7489 113.708C84.2024 113.537 85.3709 113.48 86.1879 113.451C86.9954 113.432 87.4514 113.451 87.4609 113.423C87.3564 113.394 87.2424 113.385 87.1284 113.385C86.9099 113.385 86.5869 113.347 86.1879 113.347C85.0289 113.337 83.8794 113.385 82.7204 113.518C81.2669 113.66 79.5474 113.936 77.6474 114.278C75.7474 114.62 73.6574 115.019 71.4534 115.361C67.0549 116.035 63.0364 116.396 60.1294 116.653L56.6809 116.957L55.7404 117.052C55.6264 117.052 55.5124 117.052 55.4079 117.08H55.3984Z" fill="#455A64"/>
<path d="M74.3477 124.481C74.5377 124.5 74.7372 124.5 74.9272 124.481C75.2977 124.481 75.8297 124.405 76.4947 124.338C77.8057 124.205 79.6297 123.987 81.6247 123.721C83.6292 123.445 85.4152 123.179 86.7357 122.923C87.3817 122.809 87.9137 122.704 88.2747 122.628C88.4552 122.6 88.6452 122.552 88.8162 122.486C88.6262 122.476 88.4267 122.486 88.2367 122.524L86.6882 122.733L81.5677 123.455L76.4472 124.158L74.8987 124.386C74.7087 124.395 74.5282 124.433 74.3477 124.49V124.481Z" fill="#455A64"/>
<path d="M57.2578 128.328C57.4953 128.347 57.7423 128.328 57.9798 128.3L59.9463 128.119C61.6088 127.958 63.8983 127.711 66.4348 127.426C68.9713 127.141 71.2513 126.884 72.9233 126.647L74.8803 126.371C75.1178 126.352 75.3648 126.305 75.5928 126.238C75.3553 126.229 75.1083 126.238 74.8708 126.267L72.9043 126.447C71.2513 126.609 68.9523 126.856 66.4158 127.15C63.8698 127.435 61.5993 127.692 59.9273 127.929L57.9703 128.195C57.7328 128.214 57.4858 128.262 57.2578 128.328Z" fill="#455A64"/>
<path d="M58.1055 137.344C58.2195 137.344 58.324 137.344 58.438 137.315L59.3785 137.163L62.8175 136.555C65.715 136.061 69.7335 135.349 74.1795 134.902C76.412 134.684 78.5495 134.541 80.497 134.503C82.435 134.465 84.202 134.503 85.665 134.503C87.128 134.503 88.3345 134.437 89.161 134.361C89.5695 134.323 89.883 134.295 90.1015 134.257C90.2155 134.247 90.32 134.228 90.434 134.2C90.32 134.19 90.206 134.19 90.1015 134.2L89.1515 134.257C88.325 134.295 87.1375 134.323 85.665 134.304C84.1925 134.285 82.416 134.228 80.4875 134.257C78.559 134.285 76.393 134.409 74.151 134.627C69.667 135.074 65.658 135.815 62.7605 136.365C61.3165 136.65 60.148 136.907 59.3405 137.059L58.419 137.258C58.3145 137.277 58.21 137.306 58.115 137.344H58.1055Z" fill="#455A64"/>
<path d="M57.9414 147.652C58.0554 147.69 58.1694 147.709 58.2834 147.718C58.5114 147.756 58.8534 147.794 59.2999 147.823C60.5444 147.899 61.7984 147.861 63.0429 147.718C66.1969 147.395 70.4149 146.265 75.1554 145.552C79.8959 144.84 84.2279 144.27 87.3344 143.785C88.5694 143.624 89.7949 143.405 91.0109 143.111C91.3434 143.016 91.6569 142.911 91.9704 142.778C92.0844 142.74 92.1889 142.683 92.2839 142.617C92.1699 142.645 92.0559 142.674 91.9514 142.721C91.6379 142.845 91.3244 142.959 91.0014 143.044C90.1559 143.253 88.8829 143.405 87.3249 143.624C84.2089 144.061 79.8864 144.564 75.1269 145.315C70.3674 146.065 66.1494 147.177 63.0334 147.538C61.8079 147.699 60.5634 147.766 59.3189 147.737C58.4259 147.69 57.9414 147.623 57.9414 147.652Z" fill="#455A64"/>
<path d="M88.2969 119.237C89.4369 119.18 90.5579 119.028 91.6694 118.79C92.7999 118.638 93.9114 118.401 95.0039 118.068C93.8639 118.125 92.7334 118.277 91.6219 118.515C90.4914 118.667 89.3799 118.904 88.2969 119.237Z" fill="#455A64"/>
<path d="M89.3767 127.112C89.3767 127.112 89.4907 127.15 89.6902 127.112C89.9657 127.065 90.2317 126.97 90.4882 126.837L92.9297 125.659C94.8487 124.747 96.4162 124.034 96.3877 123.977C96.0172 124.044 95.6467 124.158 95.3047 124.329C94.6587 124.576 93.7657 124.946 92.8062 125.412C91.8467 125.868 90.9917 126.314 90.3837 126.666C90.0702 126.865 89.7282 127.017 89.3672 127.122L89.3767 127.112Z" fill="#455A64"/>
<path d="M92.0779 150.492C91.9639 150.502 91.8404 150.53 91.7359 150.559L90.7574 150.815C89.9119 151.034 88.6769 151.328 87.1474 151.613C85.6179 151.898 83.7749 152.155 81.7324 152.373C79.6994 152.592 77.4004 152.687 75.0254 152.858C70.2659 153.2 65.9434 153.399 62.8179 153.295C61.2599 153.257 59.9964 153.152 59.1319 153.086L58.1344 152.991C58.0204 152.981 57.8969 152.981 57.7734 152.991C57.8874 153.029 58.0014 153.048 58.1154 153.057C58.3434 153.095 58.6569 153.152 59.1129 153.209C59.9774 153.314 61.2409 153.447 62.8084 153.513C66.8934 153.618 70.9784 153.504 75.0444 153.152C77.4194 152.981 79.6994 152.867 81.7609 152.639C83.8224 152.411 85.6654 152.126 87.2044 151.813C88.7434 151.499 89.9594 151.176 90.8049 150.929C91.2229 150.815 91.5459 150.701 91.7644 150.625C91.8689 150.587 91.9734 150.54 92.0684 150.483L92.0779 150.492Z" fill="#455A64"/>
<path d="M94.5098 160.02C92.9043 162.424 91.2513 164.799 89.5603 167.155C89.4843 167.25 89.3988 167.364 89.2753 167.364C89.1518 167.364 89.0283 167.174 88.9903 167.022C88.8288 165.977 88.9713 164.913 89.4083 163.944C89.8453 162.994 90.2158 162.015 90.5293 161.008C90.7858 159.954 90.7763 158.842 91.2323 157.835C91.4793 157.294 91.8213 156.809 92.0778 156.287C92.4388 155.46 93.0943 154.795 93.9208 154.425" fill="#B78876"/>
<path d="M54.1055 109.813C54.115 110.107 54.153 110.411 54.21 110.696L54.609 113.09C54.951 115.114 55.4545 117.907 56.0245 120.994C56.5945 124.082 57.1075 126.865 57.5255 128.879C57.7155 129.848 57.8865 130.646 58.01 131.264C58.0575 131.558 58.1335 131.843 58.2285 132.128C58.219 131.834 58.181 131.53 58.124 131.245C58.0195 130.637 57.896 129.82 57.725 128.851C57.3735 126.827 56.8795 124.034 56.3095 120.947C55.7395 117.859 55.2265 115.085 54.8085 113.071C54.609 112.102 54.4475 111.295 54.324 110.687C54.2765 110.392 54.21 110.098 54.1055 109.822V109.813Z" fill="#263238"/>
<path d="M44.7305 111.561C45.196 111.779 45.69 111.95 46.1935 112.074C47.1055 112.349 48.3595 112.72 49.7655 113.109C51.181 113.499 52.4445 113.841 53.366 114.069C53.86 114.221 54.3635 114.325 54.8765 114.392C54.411 114.164 53.917 113.983 53.4135 113.85C52.5015 113.575 51.2475 113.204 49.8415 112.815C48.426 112.425 47.172 112.083 46.241 111.855C45.747 111.713 45.2435 111.608 44.7305 111.561Z" fill="#455A64"/>
<path d="M39.5977 121.489C39.7402 121.612 39.9112 121.717 40.0917 121.783C40.5667 121.992 41.0702 122.163 41.5832 122.268C42.8752 122.553 44.6517 122.885 46.5992 123.351C48.5467 123.807 50.3042 124.263 51.5677 124.605L53.0687 125.004C53.2397 125.07 53.4297 125.108 53.6102 125.118C53.4392 125.023 53.2587 124.947 53.0687 124.899C52.7267 124.776 52.2137 124.605 51.5867 124.415C50.3327 124.025 48.5847 123.531 46.6277 123.075C44.6707 122.619 42.8752 122.306 41.5927 122.078C41.0892 121.983 40.5857 121.85 40.1012 121.679C39.9397 121.603 39.7687 121.536 39.5977 121.489Z" fill="#455A64"/>
<path d="M49.8009 130.352L57.9139 151.528L55.6149 160.391L41.0039 136.014C41.0039 136.014 46.2194 129.887 49.8009 130.352Z" fill="#B78876"/>
<path d="M57.7634 151.128L64.9739 162.623L64.8029 165.587L55.6259 169.482L54.9609 158.557L57.7539 151.138L57.7634 151.128Z" fill="#B78876"/>
<path d="M53.4018 170.746C53.4018 170.746 54.1523 170.281 55.4158 169.663C55.7578 169.492 56.1093 169.34 56.4703 169.207C56.8503 169.065 57.2873 168.96 57.7338 168.818C58.6363 168.533 59.6053 168.181 60.6028 167.735C62.5883 166.851 64.3363 165.977 65.6093 165.36L67.1103 164.6C67.3003 164.514 67.4808 164.41 67.6518 164.296C67.4523 164.334 67.2528 164.41 67.0628 164.505L65.5238 165.179L60.4793 167.478C59.4913 167.906 58.5223 168.267 57.6388 168.561C57.2018 168.713 56.7648 168.818 56.3753 168.979C56.0048 169.122 55.6438 169.283 55.2923 169.473C54.7983 169.739 54.3138 170.034 53.8578 170.347C53.6868 170.461 53.5253 170.594 53.3828 170.746H53.4018Z" fill="#263238"/>
<path d="M85.1607 74.9005C85.1607 71.1575 80.7907 64.4885 77.0477 64.6215L67.4622 68.7255C66.9112 68.7445 66.3887 68.9725 65.9992 69.362C65.6097 69.7515 65.3817 70.2645 65.3532 70.8155L64.4032 96.342C64.3367 98.1185 64.9732 99.8475 66.1797 101.159C67.3862 102.47 69.0582 103.249 70.8347 103.325C72.6112 103.391 74.3497 102.774 75.6797 101.596C77.0097 100.418 77.8362 98.7645 77.9787 96.9975C78.1022 95.183 78.1402 93.1025 78.1402 93.112C78.1402 93.1215 82.9567 92.6275 84.3437 86.481C85.0562 83.441 85.1702 79.0615 85.1702 74.9005H85.1607Z" fill="#B78876"/>
<path d="M83.4788 79.2705C83.4693 79.4795 83.3743 79.6695 83.2223 79.812C83.0703 79.9545 82.8708 80.0305 82.6618 80.021C82.5573 80.021 82.4623 80.002 82.3673 79.964C82.2723 79.926 82.1868 79.869 82.1108 79.793C82.0348 79.717 81.9778 79.6315 81.9398 79.5365C81.9018 79.4415 81.8828 79.337 81.8828 79.242C81.8923 79.033 81.9873 78.843 82.1393 78.7005C82.2913 78.558 82.4908 78.482 82.6998 78.4915C82.8043 78.4915 82.8993 78.5105 82.9943 78.5485C83.0893 78.5865 83.1748 78.6435 83.2508 78.71C83.3268 78.786 83.3838 78.8715 83.4218 78.9665C83.4598 79.0615 83.4788 79.166 83.4788 79.261V79.2705Z" fill="#263238"/>
<path d="M83.8975 77.4655C83.793 77.5605 83.2135 77.076 82.3585 77.019C81.494 76.962 80.848 77.3515 80.734 77.247C80.6295 77.1425 80.8005 77.019 81.095 76.829C81.4845 76.601 81.9405 76.487 82.387 76.525C82.8335 76.5535 83.2515 76.7245 83.603 77.0095C83.8785 77.228 83.9735 77.4275 83.907 77.4655H83.8975Z" fill="#263238"/>
<path d="M75.3108 78.9475C75.3013 79.1565 75.2063 79.3465 75.0543 79.489C74.9023 79.6315 74.7028 79.7075 74.4938 79.698C74.3893 79.698 74.2943 79.679 74.1993 79.641C74.1043 79.603 74.0188 79.546 73.9428 79.47C73.8668 79.394 73.8098 79.3085 73.7718 79.2135C73.7338 79.1185 73.7148 79.014 73.7148 78.919C73.7243 78.71 73.8193 78.52 73.9713 78.3775C74.1233 78.235 74.3228 78.159 74.5318 78.1685C74.6363 78.1685 74.7313 78.1875 74.8263 78.2255C74.9213 78.2635 75.0068 78.3205 75.0828 78.3965C75.1588 78.4725 75.2158 78.558 75.2538 78.653C75.2918 78.748 75.3108 78.8525 75.3108 78.9475Z" fill="#263238"/>
<path d="M75.4519 77.076C75.3474 77.171 74.7679 76.6865 73.9129 76.639C73.0579 76.5915 72.4024 76.9715 72.2884 76.8575C72.1744 76.7435 72.3549 76.6295 72.6494 76.449C73.0389 76.2115 73.4854 76.107 73.9414 76.145C74.3879 76.1735 74.8154 76.3445 75.1574 76.6295C75.4234 76.848 75.5089 77.0475 75.4519 77.0855V77.076Z" fill="#263238"/>
<path d="M78.1501 83.6405C78.6156 83.536 79.0906 83.479 79.5656 83.479C79.7841 83.479 79.9931 83.441 80.0406 83.289C80.0691 83.061 80.0406 82.833 79.9361 82.6335L79.3946 80.9235C78.6441 78.4915 78.1216 76.4965 78.2166 76.468C78.3116 76.4395 79.0051 78.387 79.7461 80.8L80.2591 82.5195C80.3826 82.795 80.4016 83.099 80.3161 83.384C80.2781 83.46 80.2306 83.5265 80.1641 83.574C80.0976 83.6215 80.0216 83.6595 79.9361 83.6785C79.8126 83.707 79.6796 83.707 79.5561 83.707C79.0811 83.745 78.6061 83.726 78.1406 83.6405H78.1501Z" fill="#263238"/>
<path d="M78.2147 93.131C75.2887 92.9885 72.4482 92.029 70.0352 90.376C70.0352 90.376 71.8592 94.784 78.1197 94.6035L78.2147 93.1405V93.131Z" fill="#AA6550"/>
<path d="M77.6453 85.6925C77.4933 85.474 77.2938 85.303 77.0563 85.189C76.8188 85.075 76.5623 85.018 76.2963 85.037C76.1063 85.037 75.9163 85.0845 75.7453 85.1605C75.5743 85.2365 75.4128 85.3505 75.2893 85.493C75.1658 85.626 75.0803 85.797 75.0613 85.987C75.0328 86.1675 75.0613 86.3575 75.1563 86.519C75.2798 86.6805 75.4508 86.7945 75.6408 86.861C75.8308 86.9275 76.0398 86.9275 76.2393 86.88C76.6573 86.766 77.0468 86.5665 77.3793 86.291C77.4838 86.2245 77.5693 86.1485 77.6358 86.0535C77.6643 86.006 77.6833 85.949 77.6833 85.892C77.6833 85.835 77.6643 85.778 77.6358 85.7305" fill="#AA6550"/>
<path d="M75.5839 84.068C75.7264 84.068 75.6694 84.999 76.4199 85.6925C77.1799 86.386 78.1774 86.367 78.1679 86.5C78.1679 86.633 77.9399 86.671 77.5219 86.652C76.9709 86.6235 76.4579 86.405 76.0589 86.0345C75.6789 85.6735 75.4414 85.1795 75.4224 84.657C75.4129 84.2865 75.5269 84.068 75.5934 84.068H75.5839Z" fill="#263238"/>
<path d="M75.8215 74.5775C75.7265 74.8055 74.8715 74.6345 73.8645 74.6915C72.848 74.7485 72.012 74.9765 71.898 74.7485C71.841 74.644 72.0025 74.435 72.3445 74.207C72.8005 73.96 73.304 73.8175 73.8265 73.789C74.349 73.77 74.862 73.865 75.337 74.074C75.698 74.2735 75.85 74.473 75.8215 74.5775Z" fill="#263238"/>
<path d="M83.7338 74.9575C83.5723 75.138 82.9928 74.9005 82.2803 74.853C81.5678 74.796 80.9598 74.9005 80.8268 74.682C80.7698 74.5775 80.8838 74.3875 81.1593 74.226C81.5203 74.017 81.9478 73.9315 82.3563 73.979C82.7743 74.017 83.1733 74.1785 83.4963 74.4445C83.7338 74.663 83.8003 74.872 83.7243 74.9575H83.7338Z" fill="#263238"/>
<path d="M78.0941 94.5465L78.2176 93.131C78.2176 93.131 80.9251 92.447 82.3311 90.7085C84.0126 88.666 85.0101 84.4195 84.687 81.7975C84.4021 79.489 84.6396 76.335 80.9441 75.5085C79.3196 75.138 79.6426 72.2025 78.7781 70.635C77.8946 69.0105 78.0276 68.469 76.1941 68.108C74.4081 67.88 72.6126 67.899 70.8361 68.165C71.3776 68.621 71.7576 69.134 71.6721 69.59C71.5581 70.198 70.5891 71.7085 70.2375 72.212C68.9075 74.131 68.1286 76.373 67.9861 78.7005C67.8246 81.3605 68.4991 84.011 69.3446 86.538C70.1901 89.065 71.3111 93.7675 71.8716 96.38C72.4321 98.983 72.5271 104.037 70.6366 105.928C67.3876 109.176 60.2341 107.676 61.6306 106.697C63.8631 105.358 65.8201 104.113 65.3451 100.569C64.9461 101.643 64.1861 102.546 63.2076 103.125C62.2196 103.705 61.0701 103.942 59.9396 103.781C61.4311 101.719 62.0961 99.1635 61.7826 96.6365C61.3076 97.0925 60.7566 97.444 60.1486 97.6815C59.5406 97.919 58.8851 98.033 58.2296 98.014C56.9281 97.9665 55.6266 97.748 54.3821 97.368C53.4321 97.121 52.3301 96.703 52.1401 95.7435C51.9311 94.6035 53.1946 93.777 54.3061 93.4445C55.4176 93.112 56.7476 92.7605 57.1086 91.668C57.5171 90.4425 56.3866 89.217 56.3866 87.925C56.3866 86.3005 58.0111 85.2745 59.0941 84.087C61.0226 81.921 61.3171 78.824 61.6306 75.974C61.9346 73.1145 62.5046 69.9605 64.7276 68.127C65.2406 67.7375 65.8011 67.4145 66.3901 67.1675C66.7796 65.7805 67.6536 64.574 68.8505 63.757C70.1425 62.902 71.5961 62.332 73.1351 62.0945C76.1466 61.4865 79.2721 61.838 82.0841 63.092C83.4806 63.7285 84.7251 64.6405 85.7511 65.771C86.7771 66.911 87.5561 68.241 88.0406 69.6945C88.4111 70.8915 88.5821 72.193 89.2851 73.2095C89.9881 74.226 91.6031 74.7865 92.5056 73.922C92.5056 75.1285 92.2586 76.3255 91.7741 77.437L93.4651 77.2375C93.7026 78.254 93.5411 79.3275 93.0186 80.2395C92.4866 81.142 91.6411 81.8165 90.6341 82.111C91.7171 83.061 91.8026 84.7425 91.2801 86.0725C90.7576 87.4025 89.7411 88.457 88.7341 89.4735C89.5321 89.616 90.2446 90.034 90.7386 90.6705C91.2421 91.307 91.4891 92.0955 91.4321 92.903C91.3086 93.397 91.2706 93.91 91.3276 94.4135C91.5176 95.1925 92.3156 95.62 92.8571 96.209C93.1991 96.589 93.4461 97.045 93.5696 97.539C93.6931 98.033 93.6836 98.5555 93.5601 99.0495C93.4271 99.5435 93.1801 99.9995 92.8286 100.37C92.4771 100.741 92.0401 101.016 91.5556 101.178L90.4726 101.634C90.4726 101.634 89.6271 99.705 88.7531 98.9925C87.8791 98.28 83.9556 96.057 81.0106 95.582L78.0656 95.107L78.1416 94.5465H78.0941Z" fill="#263238"/>
<path d="M64.3845 106.45C64.527 106.507 64.6885 106.535 64.8405 106.535C65.287 106.535 65.724 106.421 66.104 106.203C67.13 105.661 68.232 104.293 68.9635 102.374C69.1535 101.871 69.277 101.348 69.353 100.807C69.4195 100.227 69.4195 99.6385 69.353 99.059C69.163 97.786 68.745 96.551 68.118 95.43C67.5005 94.233 66.712 93.0455 65.952 91.8105C65.154 90.5375 64.4795 89.198 63.9285 87.8015C63.387 86.4145 63.0545 84.961 62.95 83.4695C62.9215 82.7665 62.95 82.054 63.0545 81.351C63.159 80.686 63.33 80.021 63.5675 79.3845C64.5175 76.886 66.161 75.0525 67.5005 73.542C68.194 72.801 68.8305 72.136 69.3815 71.5375C69.8755 71.034 70.2365 70.426 70.436 69.742C70.55 69.305 70.5405 68.849 70.398 68.431C70.3505 68.2885 70.284 68.146 70.1795 68.032C70.1795 68.032 70.265 68.165 70.341 68.45C70.4645 68.868 70.4645 69.305 70.341 69.7135C70.1225 70.369 69.752 70.9485 69.258 71.433C68.7165 72.022 68.042 72.6585 67.3485 73.3995C65.9805 74.8815 64.3085 76.734 63.3205 79.2895C63.0735 79.945 62.893 80.6195 62.779 81.3035C62.6745 82.016 62.646 82.7475 62.6745 83.4695C62.7695 84.9895 63.102 86.4905 63.6625 87.9155C64.2135 89.331 64.8975 90.6895 65.7145 91.972C66.484 93.2165 67.2725 94.385 67.8805 95.563C68.498 96.665 68.916 97.862 69.1155 99.097C69.258 100.189 69.1345 101.301 68.764 102.346C68.08 104.227 67.016 105.595 66.0565 106.136C65.686 106.364 65.2775 106.488 64.8405 106.507C64.5365 106.478 64.3845 106.44 64.375 106.45H64.3845Z" fill="#455A64"/>
<path d="M62.2844 75.898C62.2844 75.898 62.4934 75.2995 62.9304 74.3875C63.1869 73.8555 63.5099 73.371 63.8994 72.9245C64.3839 72.402 64.9634 71.9745 65.6189 71.661C66.2839 71.3475 66.9394 70.9865 67.5569 70.578C68.0699 70.2265 68.4784 69.7515 68.7539 69.2005C68.9439 68.83 69.0294 68.4025 68.9819 67.9845C68.9819 67.8325 68.9249 67.6805 68.8394 67.557C68.8394 67.6995 68.8489 67.8515 68.8679 67.994C68.8679 68.374 68.7539 68.7445 68.5734 69.077C68.2789 69.5805 67.8799 70.008 67.3954 70.331C66.7779 70.711 66.1319 71.053 65.4764 71.357C64.8019 71.68 64.1939 72.136 63.6999 72.6965C63.3009 73.1905 62.9779 73.732 62.7499 74.321C62.5884 74.6915 62.4554 75.081 62.3509 75.4705C62.2844 75.727 62.2559 75.879 62.2844 75.8885V75.898Z" fill="#455A64"/>
<path d="M92.2665 77.038C91.9245 77.2565 91.5635 77.437 91.1835 77.5795C90.1195 77.95 88.9605 77.95 87.8965 77.5795C87.1175 77.2945 86.405 76.8575 85.8065 76.2875C85.208 75.7175 84.7235 75.043 84.3815 74.283C83.9635 73.3995 83.688 72.4495 83.555 71.471C83.4505 70.3975 83.1845 69.343 82.7855 68.3455C82.339 67.3955 81.693 66.55 80.895 65.8565C80.097 65.1725 79.166 64.6595 78.159 64.3555C76.506 63.8805 74.758 63.909 73.124 64.46C72.022 64.802 71.0245 65.4005 70.198 66.208C69.9795 66.4265 69.78 66.6735 69.609 66.93C69.5425 67.0155 69.495 67.1105 69.457 67.215C69.704 66.8825 69.97 66.569 70.2645 66.2745C71.1005 65.524 72.0885 64.973 73.1715 64.65C74.7675 64.1465 76.468 64.1275 78.064 64.6025C79.033 64.9065 79.926 65.4005 80.686 66.0655C81.446 66.7305 82.073 67.5475 82.5005 68.4595C82.8995 69.438 83.1465 70.464 83.251 71.5185C83.384 72.516 83.6785 73.485 84.1155 74.397C84.467 75.176 84.98 75.879 85.607 76.4585C86.2435 77.038 86.9845 77.4845 87.792 77.76C88.894 78.121 90.091 78.083 91.174 77.665C91.4685 77.551 91.7345 77.399 91.991 77.2185C92.0765 77.1615 92.1525 77.095 92.219 77.019L92.2665 77.038Z" fill="#455A64"/>
<path d="M90.5108 97.3395C90.5108 97.3395 90.2164 97.235 89.7033 97.007C88.9908 96.6935 88.3353 96.247 87.7653 95.7055C86.9293 94.898 86.2833 93.91 85.8938 92.808C85.4093 91.4685 85.3618 90.015 85.7703 88.6565C86.2168 87.222 86.9578 85.9015 87.1003 84.5335C87.2333 83.3365 87.0338 82.1205 86.5208 81.0375C86.1788 80.306 85.7038 79.6505 85.1148 79.0995C84.9533 78.9475 84.7823 78.8145 84.6018 78.691C84.4783 78.6055 84.4118 78.5675 84.4023 78.577C84.4023 78.5865 84.6398 78.786 85.0293 79.1755C85.5708 79.7455 86.0078 80.401 86.3213 81.123C86.7868 82.187 86.9673 83.3555 86.8343 84.5145C86.6728 85.816 85.9603 87.108 85.4853 88.59C85.0578 90.0055 85.1053 91.535 85.6278 92.922C86.0458 94.0525 86.7203 95.0595 87.6038 95.867C88.1928 96.418 88.8863 96.8455 89.6368 97.1305C89.8363 97.216 90.0453 97.273 90.2543 97.33C90.3208 97.3585 90.3968 97.368 90.4728 97.368L90.5108 97.3395Z" fill="#455A64"/>
<path d="M59.6898 68.431C59.5853 65.7425 58.4738 63.1965 56.5738 61.2965C54.6833 59.3965 52.1373 58.266 49.4583 58.152H48.9168C42.9318 58.247 39.6638 63.377 39.9203 69.3525L39.9678 93.283C39.9678 93.283 49.3158 98.793 49.6673 98.983L53.8378 101.975L53.7903 88.5235C53.7903 88.5235 59.5663 87.8775 59.8893 82.1395C60.0318 79.3465 59.8893 73.6085 59.6898 68.4215V68.431Z" fill="#FFBE9D"/>
<path d="M53.8375 88.495C51.168 88.381 48.5935 87.507 46.418 85.968C46.418 85.968 48.0045 90.1765 53.752 89.901L53.8375 88.495Z" fill="#EB996E"/>
<path d="M58.2395 72.896C58.2395 73.105 58.1445 73.314 57.9925 73.4565C57.8405 73.6085 57.6315 73.6845 57.4225 73.6845C57.318 73.6845 57.2135 73.675 57.1185 73.637C57.0235 73.599 56.9285 73.542 56.8525 73.466C56.7765 73.39 56.7195 73.3045 56.672 73.2095C56.634 73.1145 56.6055 73.01 56.6055 72.9055C56.6055 72.6965 56.7005 72.4875 56.862 72.345C57.014 72.193 57.223 72.117 57.432 72.117C57.5365 72.117 57.641 72.1265 57.736 72.1645C57.831 72.2025 57.926 72.2595 58.002 72.326C58.078 72.402 58.135 72.4875 58.1825 72.5825C58.23 72.6775 58.249 72.782 58.249 72.8865L58.2395 72.896Z" fill="#263238"/>
<path d="M58.3327 71.1955C58.2282 71.3 57.6298 70.8155 56.7463 70.7775C55.8628 70.7395 55.1978 71.1575 55.1218 71.0435C55.0458 70.9295 55.1883 70.806 55.4828 70.6065C55.8723 70.3595 56.3378 70.2455 56.7938 70.2645C57.2498 70.2835 57.6963 70.445 58.0573 70.73C58.3043 70.9485 58.3897 71.1385 58.3327 71.186V71.1955Z" fill="#263238"/>
<path d="M49.5068 72.7155C49.5068 72.934 49.4118 73.1335 49.2503 73.276C49.0983 73.428 48.8893 73.504 48.6803 73.504C48.5758 73.504 48.4713 73.4945 48.3763 73.4565C48.2813 73.4185 48.1863 73.3615 48.1103 73.2855C48.0343 73.2095 47.9773 73.124 47.9298 73.029C47.8918 72.934 47.8633 72.8295 47.8633 72.725C47.8633 72.516 47.9583 72.307 48.1103 72.1645C48.2623 72.0125 48.4713 71.9365 48.6803 71.9365C48.7848 71.9365 48.8893 71.946 48.9843 71.984C49.0793 72.022 49.1743 72.079 49.2503 72.1455C49.3263 72.2215 49.3833 72.307 49.4308 72.402C49.4688 72.497 49.4973 72.6015 49.4973 72.706L49.5068 72.7155Z" fill="#263238"/>
<path d="M49.6609 70.9865C49.5564 71.091 48.9484 70.6065 48.0744 70.5685C47.2004 70.5305 46.5259 70.9485 46.4499 70.8345C46.3739 70.7205 46.5164 70.597 46.8109 70.3975C47.2004 70.1505 47.6659 70.0365 48.1219 70.0555C48.5779 70.0745 49.0244 70.236 49.3854 70.521C49.6324 70.7395 49.7179 70.939 49.6609 70.977V70.9865Z" fill="#263238"/>
<path d="M52.5741 77.665C53.0491 77.5415 53.5336 77.475 54.0181 77.4655C54.2461 77.4655 54.4551 77.418 54.5026 77.266C54.5311 77.038 54.4836 76.8005 54.3791 76.5915C54.1986 76.05 53.9991 75.4515 53.7901 74.8435C52.9731 72.364 52.3841 70.331 52.4886 70.3025C52.5931 70.274 53.3341 72.2595 54.1511 74.7295L54.6926 76.487C54.8256 76.7625 54.8541 77.076 54.7781 77.3705C54.7401 77.4465 54.6926 77.5225 54.6261 77.57C54.5596 77.627 54.4836 77.665 54.3981 77.684C54.2746 77.7125 54.1416 77.722 54.0181 77.722C53.5431 77.76 53.0586 77.741 52.5836 77.6555L52.5741 77.665Z" fill="#263238"/>
<path d="M49.9627 78.178C50.1052 78.178 50.0672 79.1375 50.8557 79.85C51.6442 80.5625 52.6702 80.5055 52.6702 80.6385C52.6702 80.7715 52.4422 80.8095 52.0052 80.8095C51.4447 80.7905 50.9127 80.5815 50.4947 80.2015C50.0957 79.8405 49.8487 79.3465 49.8107 78.805C49.7917 78.387 49.9057 78.178 49.9722 78.178H49.9627Z" fill="#263238"/>
<path d="M50.0471 67.5475C49.9521 67.7755 49.0686 67.633 48.0331 67.709C46.9975 67.7945 46.1426 68.032 46.0191 67.8135C45.9621 67.709 46.1236 67.4905 46.4656 67.272C46.9311 67.006 47.4441 66.854 47.9761 66.816C48.5081 66.778 49.0401 66.8635 49.5341 67.063C49.8951 67.234 50.0851 67.4335 50.0471 67.5475Z" fill="#263238"/>
<path d="M58.123 68.6305C57.952 68.83 57.363 68.5925 56.6315 68.545C55.9 68.4975 55.2825 68.621 55.14 68.4025C55.083 68.298 55.1875 68.108 55.463 67.9275C55.8335 67.7185 56.261 67.6235 56.6885 67.652C57.116 67.6805 57.5245 67.842 57.8665 68.108C58.1135 68.3265 58.161 68.5355 58.123 68.6305Z" fill="#263238"/>
<path d="M40.5975 73.6085C40.5025 73.561 36.7025 72.269 36.6645 76.202C36.617 80.1255 40.569 79.3655 40.5785 79.2515C40.588 79.1375 40.5975 73.6085 40.5975 73.6085Z" fill="#FFBE9D"/>
<path d="M39.7392 77.7695C39.7392 77.7695 39.6727 77.817 39.5587 77.8645C39.4732 77.9025 39.3782 77.9215 39.2927 77.9215C39.2072 77.9215 39.1122 77.9025 39.0267 77.8645C38.7797 77.703 38.5707 77.475 38.4377 77.209C38.3047 76.943 38.2382 76.639 38.2572 76.3445C38.2572 76.0025 38.3142 75.67 38.4567 75.366C38.4947 75.233 38.5612 75.119 38.6562 75.024C38.7512 74.929 38.8652 74.8625 38.9982 74.8245C39.0742 74.8055 39.1597 74.815 39.2357 74.8435C39.3117 74.8815 39.3687 74.9385 39.3972 75.0145C39.4542 75.1285 39.4257 75.2045 39.4447 75.214C39.4637 75.2235 39.5302 75.1475 39.5017 74.986C39.4827 74.891 39.4257 74.796 39.3497 74.739C39.2452 74.6535 39.1027 74.6155 38.9697 74.6345C38.8082 74.663 38.6562 74.739 38.5327 74.8435C38.4092 74.948 38.3142 75.0905 38.2477 75.2425C38.0767 75.575 37.9912 75.9455 38.0007 76.3255C38.0007 77.1235 38.4092 77.8645 38.9792 78.0355C39.0837 78.064 39.1977 78.0735 39.3022 78.0545C39.4067 78.0355 39.5112 77.9975 39.6062 77.931C39.7297 77.8645 39.7772 77.779 39.7392 77.7695Z" fill="#EB996E"/>
<path d="M25.4155 160.353V169.34L27.8285 204.348C27.8285 204.348 26.3275 221.324 25.406 230.919C24.608 239.241 25.919 253.738 25.919 253.738H39.9885L45.014 205.393L48.13 175.24L53.545 161.522L25.425 160.372L25.4155 160.353Z" fill="#263238"/>
<path d="M63.1386 161.958L59.7091 210.76L45.4971 247.325L44.8416 249.529L36.4531 247.496L42.6946 160.97L63.1291 161.958H63.1386Z" fill="#263238"/>
<path d="M48.0644 175.591C48.0644 175.658 48.0644 175.724 48.0644 175.791V176.389C48.0644 176.931 48.0264 177.7 47.9979 178.679C47.9409 180.674 47.7984 183.552 47.5989 187.096C47.1809 194.192 46.3829 203.996 45.1574 214.769C43.9224 225.552 42.6019 235.299 41.6234 242.367C41.1294 245.882 40.7209 248.722 40.4359 250.708C40.2934 251.677 40.1794 252.446 40.1034 252.978C40.0559 253.225 40.0369 253.425 40.0084 253.567C39.9989 253.634 39.9799 253.7 39.9609 253.767C39.9609 253.7 39.9609 253.624 39.9609 253.558L40.0369 252.94C40.1034 252.399 40.1984 251.639 40.3219 250.67C40.5784 248.684 40.9584 245.834 41.4049 242.319C42.3359 235.289 43.6469 225.542 44.8629 214.722C46.0789 203.901 46.9149 194.164 47.3804 187.058C47.6084 183.514 47.7794 180.636 47.8649 178.65C47.9219 177.662 47.9599 176.893 47.9884 176.361C47.9884 176.114 48.0169 175.914 48.0264 175.762C48.0264 175.62 48.0644 175.582 48.0644 175.582V175.591Z" fill="#455A64"/>
<path d="M36.0161 161.246C36.0256 161.426 36.0161 161.607 35.9591 161.787C35.8641 162.253 35.7311 162.709 35.5601 163.146C34.9901 164.618 34.0496 165.91 32.8146 166.898C31.5891 167.886 30.1166 168.532 28.5586 168.77C28.0931 168.846 27.6181 168.874 27.1431 168.865C26.9626 168.874 26.7821 168.865 26.6016 168.808C26.6016 168.76 27.3426 168.808 28.5016 168.589C30.0026 168.295 31.4181 167.649 32.6151 166.699C33.8026 165.73 34.7431 164.495 35.3511 163.089C35.8451 161.987 35.9686 161.246 35.9971 161.255L36.0161 161.246Z" fill="#455A64"/>
<path d="M48.9674 163.374C48.9674 163.516 48.9294 163.659 48.8439 163.773C48.7679 163.896 48.6539 163.982 48.5209 164.039C48.3879 164.096 48.2454 164.105 48.1029 164.077C47.9604 164.048 47.8369 163.982 47.7324 163.877C47.6279 163.773 47.5614 163.649 47.5329 163.507C47.5044 163.364 47.5234 163.222 47.5709 163.089C47.6279 162.956 47.7229 162.842 47.8369 162.766C47.9604 162.69 48.0934 162.642 48.2359 162.642C48.3309 162.642 48.4259 162.661 48.5114 162.699C48.5969 162.737 48.6824 162.794 48.7489 162.861C48.8154 162.927 48.8724 163.003 48.9104 163.098C48.9484 163.184 48.9674 163.279 48.9674 163.374Z" fill="#455A64"/>
<path d="M61.3052 170.195C60.9347 169.938 60.6022 169.625 60.3172 169.264C58.8637 167.592 57.9422 165.53 57.6667 163.336C57.5907 162.889 57.5812 162.433 57.6382 161.987C57.6857 161.987 57.7047 162.5 57.8567 163.317C58.2272 165.445 59.1297 167.449 60.4692 169.15C60.7732 169.482 61.0582 169.834 61.3147 170.195H61.3052Z" fill="#455A64"/>
<path d="M53.9258 95.3825C54.1253 96.0475 54.3913 96.703 54.7143 97.3205C55.1893 98.4035 55.8353 99.116 55.9018 99.059C55.9683 99.002 55.4363 98.2515 54.9708 97.2065C54.5053 96.1615 54.0113 95.335 53.9353 95.392L53.9258 95.3825Z" fill="#263238"/>
<path d="M51.6714 94.7175L39.9959 84.885L37.5354 88.6755C37.5354 88.6755 27.3514 96.133 25.4229 98.2515L27.9689 132.138C27.9689 132.138 25.2614 149.96 25.0714 151.366C24.8814 152.772 23.2854 165.075 23.2854 165.075C23.0764 167.402 24.9954 170.233 25.3849 170.233C25.3849 170.233 27.3514 167.877 29.4604 168.067C31.5694 168.257 45.8764 172.114 45.8764 172.114L63.2519 168.248L61.4089 133.981L60.7914 111.067L59.2809 102.299L55.8419 98.869L53.7994 93.5205C53.7994 93.5205 53.1534 100.351 53.0679 100.085C52.9729 99.819 51.6714 94.7365 51.6714 94.7365V94.7175Z" fill="#0066AA"/>
<path d="M37.8711 89.255C38.0041 89.483 38.1561 89.692 38.3366 89.8915C38.6596 90.2905 39.1346 90.851 39.7426 91.516C40.9491 92.865 42.7161 94.6415 44.6161 96.6365C45.5566 97.6245 46.4496 98.5745 47.2096 99.477L47.3046 99.5815L47.3996 99.4865C48.6916 98.1945 49.6226 96.969 50.3351 96.152L51.1711 95.202C51.2851 95.0975 51.3801 94.9835 51.4656 94.86C51.3326 94.936 51.2186 95.031 51.1141 95.145C50.8956 95.3445 50.5726 95.658 50.2211 96.0475C49.4706 96.836 48.5016 98.052 47.2191 99.2965H47.4091C46.6491 98.3845 45.7561 97.4155 44.8156 96.437C42.8966 94.442 41.1106 92.694 39.8661 91.3735C39.2486 90.718 38.7451 90.1765 38.4031 89.806C38.2416 89.6065 38.0706 89.426 37.8711 89.255Z" fill="#263238"/>
<path d="M57.6008 150.891C57.6008 150.891 57.6008 150.796 57.6008 150.758V150.368C57.6008 150.007 57.5533 149.504 57.5153 148.877C57.4298 147.566 57.3063 145.694 57.1543 143.405C56.8313 138.788 56.3658 132.404 55.8053 125.355C55.2448 118.306 54.6938 111.941 54.2378 107.324C54.0098 105.015 53.8008 103.153 53.6488 101.871C53.5633 101.253 53.4873 100.75 53.4398 100.389L53.3828 100.009C53.3828 100.009 53.3828 99.9235 53.3828 99.876C53.3828 99.9235 53.3828 99.971 53.3828 100.009L53.4113 100.398C53.4493 100.759 53.4968 101.253 53.5633 101.88C53.6868 103.191 53.8578 105.053 54.0573 107.343C54.4658 111.96 54.9883 118.334 55.5488 125.383C56.1093 132.432 56.6318 138.778 56.9738 143.414C57.1638 145.704 57.3158 147.566 57.4203 148.886C57.4773 149.513 57.5248 150.007 57.5533 150.368C57.5533 150.52 57.5818 150.653 57.6008 150.758C57.6008 150.796 57.5913 150.843 57.5913 150.891H57.6008Z" fill="#263238"/>
<path d="M45.012 158.025C45.05 158.092 48.66 156.144 53.087 153.674C57.5045 151.204 61.0575 149.143 61.0195 149.067C60.9815 149 57.3715 150.948 52.9445 153.418C48.527 155.888 44.974 157.949 45.012 158.025Z" fill="#263238"/>
<path d="M56.4609 169.749C56.4894 169.511 56.4894 169.274 56.4609 169.036L56.3659 167.117C56.2899 165.493 56.2804 163.27 56.3089 160.79C56.3374 158.32 56.3469 156.069 56.3374 154.454V152.535C56.3374 152.297 56.3374 152.06 56.2899 151.822C56.2424 152.05 56.2234 152.288 56.2234 152.525C56.2234 153.038 56.1854 153.675 56.1569 154.444C56.1094 156.069 56.0714 158.311 56.0334 160.781C56.0049 163.251 56.0334 165.502 56.1759 167.127C56.2329 167.934 56.3089 168.59 56.3659 169.036C56.3659 169.274 56.4039 169.502 56.4514 169.73L56.4609 169.749Z" fill="#263238"/>
<path d="M90.9003 143.984L62.0108 144.63L61.4883 134.997L96.2868 137.838L90.9003 143.994V143.984Z" fill="#FFBE9D"/>
<path d="M112.759 113.537L113.082 114.249C110.564 119.056 101.406 136.47 101.406 136.47L90.1489 141.923L63.2734 140.84V139.386L77.1054 133.914L94.3859 134.342L103.667 115.94C103.781 115.712 103.952 115.503 104.161 115.351C104.37 115.19 104.608 115.085 104.864 115.038L112.759 113.537Z" fill="#455A64"/>
<path d="M90.1484 141.923C90.4239 141.59 90.6709 141.229 90.8704 140.84C91.2789 140.146 91.8299 139.187 92.4189 138.132C93.0079 137.078 93.5304 136.08 93.8914 135.368C94.1099 134.988 94.2904 134.598 94.4329 134.18C94.1574 134.513 93.9199 134.874 93.7204 135.263C93.3119 135.957 92.7609 136.916 92.1719 137.971C91.5829 139.016 91.0604 140.023 90.6994 140.745C90.4809 141.115 90.3004 141.514 90.1579 141.923H90.1484Z" fill="#263238"/>
<path d="M87.6395 139.548L76.1445 139.168L84.8275 134.646L94.1185 134.855L87.649 139.548H87.6395Z" fill="#263238"/>
<path d="M63.2734 139.406C63.3684 139.434 63.4634 139.444 63.5584 139.434L64.3659 139.463L67.3299 139.548C69.8284 139.615 73.2864 139.738 77.0674 139.89C80.8579 140.033 84.3349 140.128 86.8334 140.147H90.5954C90.6904 140.147 90.7854 140.147 90.8804 140.118C90.7854 140.109 90.6904 140.109 90.5954 140.118L89.7974 140.09L86.8334 140.004C84.3349 139.938 80.8864 139.805 77.0959 139.672C73.3054 139.529 69.8379 139.425 67.3584 139.415H63.5964C63.4919 139.406 63.3874 139.406 63.2924 139.415L63.2734 139.406Z" fill="#263238"/>
<path d="M91.8025 141.125C91.8785 141.021 91.945 140.916 91.9925 140.802L92.5055 139.852C92.952 138.997 93.5885 137.81 94.339 136.347L100.286 124.728L104.703 115.96L104.618 116.026L110.764 114.772L112.474 114.402C112.683 114.364 112.883 114.316 113.073 114.25C112.864 114.259 112.655 114.288 112.455 114.335L110.736 114.639L104.57 115.789H104.513L104.485 115.846C103.193 118.373 101.663 121.375 100.02 124.595L94.149 136.252L92.3915 139.805L91.926 140.783C91.869 140.897 91.8215 141.021 91.793 141.144L91.8025 141.125Z" fill="#263238"/>
<path d="M98.6509 134.693C98.6509 134.693 98.1759 134.218 97.2164 135.444C96.2569 136.669 94.6704 140.222 94.6704 140.222L92.9129 141.02C92.9129 141.02 94.4519 139.215 94.4519 138.474C94.4519 137.733 93.2929 137.733 92.6469 138.797C91.8774 139.89 91.0509 140.944 90.1484 141.932C90.1484 141.932 90.7374 144.098 90.8989 143.994C91.0604 143.889 93.9769 143.737 93.9769 143.737L94.7749 143.367C94.7749 143.367 96.7414 143.367 96.8459 142.825C96.9504 142.284 100.199 140.07 100.199 139.576V136.517C100.199 136.517 101.691 132.898 101.368 132.537C101.045 132.166 99.7149 131.368 98.6604 134.712L98.6509 134.693Z" fill="#FFBE9D"/>
<path d="M98.4402 134.646C98.4402 134.646 98.4972 134.646 98.5827 134.684C98.6397 134.713 98.6872 134.751 98.7157 134.808C98.7442 134.865 98.7632 134.921 98.7537 134.988C98.6302 135.377 98.4782 135.985 98.3167 136.726C98.1552 137.467 97.9842 138.351 97.7087 139.244C97.5092 139.843 97.1957 140.394 96.7777 140.869C96.4262 141.325 96.1032 141.743 95.8087 142.123C95.4952 142.493 95.2102 142.892 94.9727 143.32C95.3337 142.987 95.6662 142.626 95.9607 142.237L96.9772 141.021C97.1862 140.783 97.3762 140.527 97.5472 140.261C97.7277 139.966 97.8702 139.653 97.9747 139.32C98.2122 138.475 98.4117 137.619 98.5447 136.755C98.6682 136.09 98.7822 135.511 98.8677 135.007C98.8677 134.922 98.8392 134.836 98.7917 134.77C98.7347 134.703 98.6682 134.656 98.5827 134.637C98.4782 134.599 98.4307 134.618 98.4307 134.637L98.4402 134.646Z" fill="#EB996E"/>
<path d="M98.918 140.887C99.526 139.481 99.9535 138.009 100.191 136.508C99.583 137.914 99.1555 139.386 98.918 140.887Z" fill="#EB996E"/>
<path d="M93.462 138.047C93.462 138.047 93.5475 138.047 93.6805 138.095C93.8515 138.095 94.0225 138.161 94.146 138.275C94.279 138.418 94.2315 138.693 94.0795 138.978L93.6235 139.938L93.1675 140.878C93.006 141.154 92.835 141.42 92.7115 141.6C92.436 142.018 92.3125 142.313 92.3505 142.332C92.55 142.142 92.7305 141.942 92.892 141.714C93.082 141.486 93.2625 141.258 93.4335 141.011C93.595 140.717 93.766 140.394 93.9275 140.052C94.0985 139.71 94.222 139.396 94.3645 139.083C94.4405 138.931 94.4785 138.76 94.4975 138.598C94.4975 138.513 94.4975 138.437 94.469 138.351C94.4405 138.275 94.4025 138.199 94.3455 138.142C94.26 138.076 94.165 138.019 94.051 137.99C93.9465 137.962 93.8325 137.962 93.728 137.981C93.538 138 93.4715 138.028 93.4715 138.047H93.462Z" fill="#EB996E"/>
<path d="M41.4792 101.472C41.4222 101.282 41.3272 101.092 41.2037 100.93C40.9092 100.474 40.5767 100.047 40.1967 99.6575C39.6457 99.078 39.0662 98.5365 38.4487 98.033C37.7267 97.349 36.8812 96.798 35.9692 96.4085C35.0192 96.1045 34.0217 96 33.0242 96.114C32.2262 96.19 31.4377 96.304 30.6587 96.475C29.9842 96.5985 29.4427 96.7125 29.0817 96.7885C28.8822 96.8075 28.6922 96.8645 28.5117 96.9405C28.7112 96.9405 28.9107 96.931 29.1102 96.893C29.4807 96.855 30.0317 96.779 30.6967 96.6745C31.3712 96.57 32.1597 96.4275 33.0527 96.38C34.0027 96.285 34.9717 96.3895 35.8837 96.684C36.7672 97.0545 37.5842 97.577 38.2967 98.223C38.9142 98.717 39.5032 99.2395 40.0732 99.8C40.5767 100.341 41.0517 100.902 41.4982 101.481L41.4792 101.472Z" fill="#263238"/>
<path d="M59.9086 128.243L59.5096 135.539C59.5096 135.539 48.6891 140.603 41.6021 142.427C34.5151 144.251 26.1836 143.966 26.1836 143.966L29.1571 132.1L59.9086 128.234V128.243Z" fill="#FFBE9D"/>
<path d="M80.8459 129.734C80.8744 129.44 80.8079 129.136 80.6749 128.87C80.5324 128.604 80.3234 128.385 80.0574 128.243C79.1169 127.663 77.1504 126.381 77.1504 126.381L71.2034 125.839L59.9459 128.243L59.5469 135.539C59.5469 135.539 65.2849 135.862 66.6149 135.814C67.9449 135.767 71.6499 134.579 71.6499 134.579C71.6499 134.579 77.8629 135.368 78.1384 135.026C78.4139 134.684 78.8319 134.285 78.4329 134.038C78.0339 133.791 73.2459 132.556 73.2459 132.556L76.4569 132.309C76.4569 132.309 81.1499 133.297 81.4919 133.145C81.8339 133.002 82.2804 132.404 81.9859 131.957L81.6914 131.511C81.7769 131.283 81.7674 131.026 81.6819 130.798C81.5869 130.57 81.4159 130.38 81.1974 130.276L80.7509 130.124L80.8459 129.725V129.734Z" fill="#FFBE9D"/>
<path d="M72.3242 129.649C72.7802 129.82 73.2742 129.896 73.7587 129.887C74.6517 129.953 75.9247 129.811 77.1977 130.181C77.7962 130.4 78.3852 130.647 78.9552 130.932C79.4397 131.141 79.9337 131.321 80.4467 131.473C80.9027 131.644 81.3872 131.739 81.8717 131.758C81.8717 131.72 81.3302 131.578 80.5037 131.283C80.0857 131.131 79.5917 130.941 79.0597 130.694C78.4802 130.4 77.8912 130.143 77.2832 129.915C76.6467 129.735 76.0007 129.649 75.3452 129.659H73.7682C72.8752 129.697 72.3337 129.602 72.3242 129.64V129.649Z" fill="#EB996E"/>
<path d="M72.8477 127.948C73.2657 128.091 73.7027 128.148 74.1397 128.11C75.1562 128.015 76.1917 128.148 77.1512 128.509C78.2627 128.974 79.2697 129.421 80.0107 129.725C80.4002 129.915 80.8087 130.057 81.2267 130.152C80.8752 129.905 80.4857 129.706 80.0867 129.544C79.3647 129.202 78.3767 128.718 77.2462 128.252C76.7047 128.024 76.1252 127.891 75.5362 127.872C74.9947 127.872 74.5292 127.901 74.1302 127.92C73.3227 127.996 72.8572 127.958 72.8477 127.958V127.948Z" fill="#EB996E"/>
<path d="M25.4321 98.223C25.4321 98.223 22.4301 103.001 21.9551 105.339C21.4801 107.675 20.3306 132.28 20.7961 132.746C21.2046 133.126 21.6321 133.477 22.0786 133.8C22.0786 133.8 19.3711 134.38 20.2071 135.786C20.7011 136.632 21.2426 137.449 21.8316 138.228C21.8316 138.228 22.2306 142.778 22.7341 142.892C23.8741 143.405 24.9856 143.985 26.0686 144.612C26.0686 144.612 34.2386 140.204 34.9796 137.876C35.7206 135.539 37.4686 130.875 37.4686 130.875L36.0626 127.625L40.2616 107.799C40.2616 107.799 42.5226 101.453 38.4566 98.8595C34.4001 96.266 26.9521 95.5915 25.4321 98.2135V98.223Z" fill="#0066AA"/>
<path d="M39.4847 111.561C39.4467 111.656 39.4182 111.761 39.3992 111.856C39.3517 112.074 39.2757 112.359 39.1902 112.73C39.0192 113.518 38.7722 114.62 38.4587 116.017L35.9507 127.597V127.673L37.3472 130.922V130.818C36.5492 133.041 35.7227 135.463 34.8012 137.924L34.6587 138.237L34.4402 138.522C34.2977 138.722 34.1457 138.902 33.9652 139.064C33.7942 139.244 33.6137 139.406 33.4237 139.567C33.2432 139.729 33.0627 139.89 32.8822 140.033C32.1412 140.641 31.3622 141.192 30.5927 141.705C29.0442 142.74 27.4957 143.662 26.0137 144.479H26.1372C25.4247 144.08 24.7312 143.7 24.0567 143.348C23.7147 143.168 23.3822 142.997 23.0307 142.854L22.8977 142.797C22.8977 142.797 22.7742 142.759 22.7742 142.75C22.7362 142.702 22.6982 142.645 22.6792 142.588C22.6127 142.427 22.5652 142.256 22.5177 142.094C22.2422 140.812 22.0522 139.501 21.9477 138.19V138.161C21.5297 137.62 21.1592 137.078 20.8647 136.584C20.6937 136.328 20.5417 136.09 20.3992 135.843C20.3327 135.729 20.2757 135.615 20.2282 135.492C20.1902 135.378 20.1807 135.254 20.1997 135.14C20.2947 134.665 20.7412 134.399 21.1022 134.219C21.4347 134.057 21.7862 133.934 22.1377 133.839H22.2327L22.1472 133.782C21.6912 133.459 21.3682 133.212 21.1592 133.031C20.9502 132.851 20.8457 132.765 20.8362 132.775C20.8362 132.775 20.8362 132.803 20.9027 132.86C20.9692 132.908 21.0262 132.984 21.1212 133.079C21.4347 133.354 21.7577 133.62 22.0902 133.867V133.782C21.7197 133.858 21.3587 133.981 21.0072 134.143C20.7982 134.247 20.6082 134.361 20.4277 134.504C20.2187 134.665 20.0762 134.893 20.0097 135.15C19.9812 135.292 19.9812 135.435 20.0097 135.577C20.0667 135.71 20.1237 135.843 20.1997 135.967C20.3422 136.214 20.4942 136.461 20.6557 136.717C20.9787 137.259 21.3397 137.762 21.7387 138.342V138.294C21.8337 139.615 22.0142 140.935 22.2802 142.237C22.3182 142.417 22.3752 142.598 22.4512 142.778C22.4892 142.892 22.5652 142.997 22.6697 143.063L22.8027 143.111L22.9262 143.158C23.2587 143.301 23.5912 143.481 23.9332 143.652C24.6077 144.013 25.3012 144.393 26.0042 144.792L26.0612 144.83L26.1277 144.792C27.6192 143.975 29.1772 143.063 30.7352 142.018C31.5332 141.496 32.3122 140.935 33.0532 140.337C33.2432 140.185 33.4332 140.033 33.5947 139.852C33.7562 139.681 33.9652 139.529 34.1362 139.339C34.3167 139.159 34.4877 138.969 34.6302 138.769C34.7062 138.665 34.7822 138.57 34.8582 138.465L35.0292 138.104C35.9412 135.615 36.7677 133.231 37.5657 130.989V130.884L36.1597 127.635V127.711C37.1477 122.98 37.9742 118.971 38.5632 116.112C38.8482 114.715 39.0667 113.594 39.2187 112.806C39.2852 112.435 39.3422 112.15 39.3897 111.922C39.4182 111.799 39.4467 111.675 39.4562 111.552L39.4847 111.561Z" fill="#263238"/>
<path d="M21.957 133.715C21.957 133.715 22.09 133.801 22.3655 133.886C22.755 134.01 23.173 134.076 23.5815 134.067C23.876 134.057 24.161 133.981 24.427 133.858C24.7215 133.715 24.997 133.554 25.2725 133.373C25.8425 132.993 26.4125 132.537 27.0585 132.1C28.3315 131.217 29.5285 130.476 30.3835 129.934C30.868 129.668 31.324 129.355 31.7515 128.994C31.2385 129.203 30.754 129.459 30.2885 129.754C29.405 130.267 28.1795 130.979 26.897 131.872C26.251 132.309 25.6715 132.784 25.13 133.155C24.6835 133.525 24.142 133.772 23.572 133.867C23.1825 133.886 22.7835 133.867 22.394 133.772C22.2515 133.725 22.109 133.696 21.957 133.696V133.715Z" fill="#263238"/>
<path d="M21.8516 138.237C22.0226 138.323 22.2031 138.36 22.3931 138.36C22.8871 138.398 23.3811 138.313 23.8371 138.104C25.2716 137.392 26.6206 136.536 27.8746 135.558C29.1191 134.57 30.3066 133.506 31.4276 132.366C31.8646 131.929 32.1971 131.578 32.4251 131.331C32.5581 131.217 32.6721 131.074 32.7671 130.922C32.2446 131.321 31.7506 131.758 31.2851 132.224C30.3921 133.05 29.1666 134.19 27.7036 135.33C26.4591 136.299 25.1386 137.164 23.7516 137.924C23.3336 138.142 22.8681 138.256 22.4026 138.256C22.2221 138.246 22.0416 138.237 21.8516 138.246V138.237Z" fill="#263238"/>
<path d="M59.5095 135.529C59.7375 135.586 59.9655 135.605 60.1935 135.615L62.0745 135.729L64.858 135.862L66.4825 135.928C66.7865 135.909 67.081 135.852 67.366 135.776L68.24 135.567C69.456 135.263 70.596 134.959 71.6315 134.684H71.584C73.1325 134.826 74.4435 134.94 75.3745 135.007L76.4575 135.073C76.5905 135.083 76.714 135.083 76.847 135.073C76.7235 135.026 76.6 134.997 76.467 134.988L75.384 134.845C74.4625 134.731 73.1515 134.589 71.5935 134.427H71.546L68.164 135.292L67.29 135.501C67.024 135.577 66.7485 135.624 66.4635 135.643L64.839 135.586L62.0555 135.51L60.1745 135.482C59.9465 135.472 59.728 135.482 59.5 135.51L59.5095 135.529Z" fill="#EB996E"/>
<path d="M45.6508 62.1705H45.6128C44.6913 62.845 44.0928 63.814 43.9313 64.878V64.9825C43.7033 66.512 43.7508 68.0415 43.5038 69.5805C43.2568 71.11 42.6868 72.6395 41.4613 73.6655C40.9578 74.093 40.0648 74.3875 39.6563 73.8935C39.5138 73.6845 39.4473 73.447 39.4473 73.2C39.1338 69.5425 38.0413 66.2935 38.0508 62.4745C38.0508 61.9615 38.1743 61.458 38.4213 60.9925C38.6778 60.5365 39.0388 60.1375 39.4948 59.8335C40.3688 59.2635 41.4423 58.665 42.4208 59.0925C43.3993 59.52 44.6533 61.1825 45.4133 61.8855" fill="#263238"/>
<path d="M42.0395 60.1755C41.156 58.7885 43.5785 56.784 45.3455 56.271C47.1125 55.758 49.4495 56.5655 51.207 57.126C52.3185 57.487 53.43 57.981 54.5985 57.9335C55.3775 57.8575 56.147 57.6675 56.869 57.373C57.591 57.0785 58.3795 56.9265 59.168 56.936C59.5575 56.936 59.947 57.0595 60.2795 57.259C60.612 57.4585 60.878 57.753 61.0585 58.095C61.353 58.798 60.935 59.767 60.1465 59.8715C60.3935 59.7385 60.6785 59.672 60.954 59.6625C61.2295 59.653 61.5145 59.7195 61.771 59.843C62.0275 59.9665 62.246 60.147 62.4075 60.3655C62.569 60.584 62.683 60.85 62.721 61.116C62.759 61.3915 62.7305 61.667 62.645 61.9235C62.55 62.18 62.398 62.4175 62.189 62.6075C61.98 62.7975 61.733 62.9305 61.4575 63.0065C61.182 63.0825 60.897 63.092 60.6215 63.035C61.125 62.655 61.9135 63.282 61.847 63.89C61.7805 64.194 61.6285 64.479 61.41 64.707C61.1915 64.935 60.9255 65.1155 60.6215 65.2105C59.111 65.847 57.382 65.638 55.8335 65.1345C54.285 64.631 52.8505 63.8425 51.2925 63.301C49.744 62.7595 47.179 61.781 45.6495 62.3225C44.519 62.712 43.0845 63.7475 43.0845 63.7475L42.3245 63.1015C42.125 62.826 42.0015 62.522 41.954 62.1895C41.8685 61.5435 41.897 60.8785 42.0205 60.2325" fill="#263238"/>
</g>
<path d="M175.801 2.42499H16.2008C8.59306 2.42499 2.42578 8.59227 2.42578 16.2V175.8C2.42578 183.408 8.59306 189.575 16.2008 189.575H175.801C183.409 189.575 189.576 183.408 189.576 175.8V16.2C189.576 8.59227 183.409 2.42499 175.801 2.42499Z" stroke="#0099FF" stroke-width="3"/>
</svg>
