<?xml version="1.0" encoding="UTF-8"?>
<svg id="Layer_1" data-name="Layer 1" xmlns="http://www.w3.org/2000/svg" viewBox="0 0 1019.05 213.5">
  <g>
    <rect x="28.6" y="6.21" width="294.47" height="200.02" fill="#fff" stroke-width="0"/>
    <rect x="34.26" y="11.69" width="283.15" height="188.77" fill="#034ea2" stroke-width="0"/>
    <g>
      <polygon points="169.8 52.82 175.77 48.46 181.75 52.82 179.48 45.77 185.54 41.41 178.06 41.41 175.77 34.28 173.48 41.42 166.01 41.41 172.07 45.77 169.8 52.82" fill="#fff" stroke-width="0"/>
      <polygon points="138.88 61.13 144.85 56.77 150.83 61.13 148.56 54.08 154.62 49.72 147.14 49.72 144.85 42.58 142.56 49.73 135.09 49.72 141.15 54.08 138.88 61.13" fill="#fff" stroke-width="0"/>
      <polygon points="122.23 65.25 119.94 72.4 112.47 72.39 118.53 76.75 116.26 83.81 122.23 79.45 128.21 83.81 125.93 76.75 132 72.39 124.52 72.39 122.23 65.25" fill="#fff" stroke-width="0"/>
      <polygon points="113.93 110.33 119.9 114.69 117.63 107.63 123.7 103.27 116.22 103.27 113.93 96.13 111.64 103.29 104.16 103.27 110.23 107.63 107.96 114.69 113.93 110.33" fill="#fff" stroke-width="0"/>
      <polygon points="124.52 134.25 122.23 127.1 119.94 134.26 112.47 134.25 118.53 138.61 116.26 145.66 122.23 141.29 128.21 145.66 125.93 138.61 132 134.25 124.52 134.25" fill="#fff" stroke-width="0"/>
      <polygon points="147.19 156.92 144.9 149.78 142.61 156.92 135.13 156.92 141.2 161.28 138.93 168.33 144.9 163.97 150.87 168.33 148.6 161.28 154.67 156.92 147.19 156.92" fill="#fff" stroke-width="0"/>
      <polygon points="178.07 165.13 175.78 157.98 173.49 165.14 166.01 165.13 172.08 169.49 169.81 176.54 175.78 172.18 181.75 176.54 179.48 169.49 185.55 165.13 178.07 165.13" fill="#fff" stroke-width="0"/>
      <polygon points="208.95 156.92 206.66 149.78 204.37 156.92 196.9 156.92 202.96 161.28 200.69 168.33 206.66 163.97 212.64 168.33 210.36 161.28 216.43 156.92 208.95 156.92" fill="#fff" stroke-width="0"/>
      <polygon points="231.62 134.25 229.33 127.1 227.04 134.26 219.56 134.25 225.63 138.61 223.35 145.66 229.33 141.29 235.3 145.66 233.03 138.61 239.09 134.25 231.62 134.25" fill="#fff" stroke-width="0"/>
      <polygon points="247.31 103.19 239.83 103.19 237.53 96.04 235.25 103.2 227.77 103.19 233.84 107.55 231.57 114.6 237.53 110.23 243.51 114.6 241.24 107.55 247.31 103.19" fill="#fff" stroke-width="0"/>
      <polygon points="223.35 83.71 229.33 79.35 235.3 83.71 233.03 76.66 239.09 72.31 231.62 72.31 229.33 65.16 227.04 72.32 219.56 72.31 225.63 76.66 223.35 83.71" fill="#fff" stroke-width="0"/>
      <polygon points="206.75 42.58 204.46 49.74 196.98 49.72 203.04 54.09 200.77 61.14 206.76 56.77 212.72 61.14 210.45 54.09 216.52 49.72 209.03 49.72 206.75 42.58" fill="#fff" stroke-width="0"/>
    </g>
  </g>
  <g>
    <path d="m386.94,65.68l9.11,2.89c-1.4,5.08-3.72,8.85-6.97,11.31-3.25,2.47-7.37,3.7-12.36,3.7-6.18,0-11.26-2.11-15.23-6.33-3.98-4.22-5.97-9.99-5.97-17.31,0-7.74,2-13.76,6-18.04,4-4.29,9.26-6.43,15.78-6.43,5.69,0,10.31,1.68,13.87,5.05,2.12,1.99,3.7,4.85,4.76,8.57l-9.3,2.22c-.55-2.41-1.7-4.32-3.44-5.71s-3.87-2.09-6.36-2.09c-3.45,0-6.25,1.24-8.39,3.71-2.15,2.47-3.22,6.49-3.22,12.03,0,5.88,1.06,10.07,3.17,12.57,2.12,2.5,4.87,3.75,8.25,3.75,2.5,0,4.64-.79,6.44-2.38,1.8-1.59,3.09-4.08,3.87-7.49Z" fill="#034ea2" stroke-width="0"/>
    <path d="m401.98,65.45c0-2.96.73-5.83,2.19-8.6,1.46-2.77,3.53-4.89,6.2-6.35,2.68-1.46,5.67-2.19,8.97-2.19,5.1,0,9.28,1.66,12.54,4.97,3.26,3.31,4.89,7.5,4.89,12.55s-1.64,9.33-4.94,12.68c-3.29,3.35-7.43,5.03-12.42,5.03-3.09,0-6.04-.7-8.84-2.09-2.8-1.4-4.94-3.44-6.39-6.14-1.46-2.7-2.19-5.98-2.19-9.85Zm9.14.48c0,3.34.79,5.9,2.38,7.68,1.59,1.78,3.54,2.67,5.87,2.67s4.28-.89,5.86-2.67,2.37-4.36,2.37-7.74-.79-5.84-2.37-7.62-3.53-2.67-5.86-2.67-4.28.89-5.87,2.67c-1.59,1.78-2.38,4.34-2.38,7.68Z" fill="#034ea2" stroke-width="0"/>
    <path d="m442.74,70.37v-8.92h17.52v8.92h-17.52Z" fill="#034ea2" stroke-width="0"/>
    <path d="m461.49,49.08h4.95v-2.54c0-2.83.3-4.95.9-6.35s1.71-2.53,3.33-3.41c1.62-.88,3.67-1.32,6.14-1.32s5.02.38,7.46,1.14l-1.21,6.22c-1.42-.34-2.78-.51-4.09-.51s-2.22.3-2.78.91c-.56.6-.84,1.76-.84,3.48v2.38h6.67v7.01h-6.67v26.69h-8.92v-26.69h-4.95v-7.01Z" fill="#034ea2" stroke-width="0"/>
    <path d="m509.23,82.78v-5.05c-1.23,1.8-2.84,3.22-4.84,4.25-2,1.04-4.11,1.55-6.33,1.55s-4.3-.5-6.09-1.49c-1.8-.99-3.1-2.39-3.9-4.19-.8-1.8-1.21-4.28-1.21-7.46v-21.33h8.92v15.49c0,4.74.16,7.64.49,8.71.33,1.07.92,1.92,1.79,2.54.87.62,1.97.94,3.3.94,1.52,0,2.89-.42,4.09-1.25,1.21-.83,2.03-1.87,2.47-3.11.45-1.24.67-4.27.67-9.09v-14.22h8.92v33.71h-8.28Z" fill="#034ea2" stroke-width="0"/>
    <path d="m557.41,82.78h-8.92v-17.2c0-3.64-.19-5.99-.57-7.06s-1-1.9-1.86-2.49c-.86-.59-1.89-.89-3.1-.89-1.54,0-2.93.42-4.16,1.27-1.23.85-2.07,1.97-2.52,3.37-.46,1.4-.68,3.98-.68,7.74v15.27h-8.92v-33.71h8.28v4.95c2.94-3.81,6.64-5.71,11.11-5.71,1.97,0,3.77.35,5.39,1.06s2.86,1.61,3.7,2.71c.84,1.1,1.42,2.35,1.75,3.75s.49,3.4.49,6v20.95Z" fill="#034ea2" stroke-width="0"/>
    <path d="m597.36,82.78h-8.28v-4.95c-1.38,1.93-3,3.36-4.87,4.3-1.87.94-3.76,1.41-5.66,1.41-3.87,0-7.19-1.56-9.95-4.68-2.76-3.12-4.14-7.47-4.14-13.06s1.34-10.05,4.03-13.03c2.69-2.97,6.08-4.46,10.19-4.46,3.77,0,7.02,1.57,9.78,4.7v-16.76h8.92v46.53Zm-23.8-17.58c0,3.6.5,6.2,1.49,7.81,1.44,2.33,3.45,3.49,6.03,3.49,2.05,0,3.8-.87,5.24-2.62,1.44-1.75,2.16-4.35,2.16-7.82,0-3.87-.7-6.66-2.09-8.36s-3.19-2.56-5.37-2.56-3.89.84-5.32,2.52c-1.43,1.68-2.14,4.2-2.14,7.54Z" fill="#034ea2" stroke-width="0"/>
    <path d="m625.68,72.06l8.89,1.49c-1.14,3.26-2.95,5.74-5.41,7.44-2.47,1.7-5.55,2.55-9.25,2.55-5.86,0-10.2-1.92-13.01-5.74-2.22-3.07-3.33-6.94-3.33-11.62,0-5.59,1.46-9.96,4.38-13.12s6.61-4.75,11.08-4.75c5.01,0,8.97,1.66,11.87,4.97,2.9,3.31,4.29,8.38,4.16,15.22h-22.34c.06,2.65.78,4.7,2.16,6.17,1.38,1.47,3.09,2.21,5.14,2.21,1.4,0,2.57-.38,3.52-1.14.95-.76,1.67-1.99,2.16-3.68Zm.51-9.01c-.06-2.58-.73-4.54-2-5.89-1.27-1.34-2.81-2.02-4.63-2.02-1.95,0-3.55.71-4.82,2.13-1.27,1.42-1.89,3.34-1.87,5.78h13.33Z" fill="#034ea2" stroke-width="0"/>
    <path d="m673.22,82.78h-8.28v-4.95c-1.38,1.93-3,3.36-4.87,4.3s-3.76,1.41-5.67,1.41c-3.87,0-7.19-1.56-9.95-4.68-2.76-3.12-4.14-7.47-4.14-13.06s1.34-10.05,4.03-13.03c2.69-2.97,6.08-4.46,10.19-4.46,3.77,0,7.03,1.57,9.78,4.7v-16.76h8.92v46.53Zm-23.8-17.58c0,3.6.5,6.2,1.49,7.81,1.44,2.33,3.45,3.49,6.03,3.49,2.05,0,3.8-.87,5.24-2.62,1.44-1.75,2.16-4.35,2.16-7.82,0-3.87-.7-6.66-2.09-8.36s-3.19-2.56-5.36-2.56-3.89.84-5.32,2.52c-1.43,1.68-2.14,4.2-2.14,7.54Z" fill="#034ea2" stroke-width="0"/>
    <path d="m699.69,82.78v-46.53h8.92v16.76c2.75-3.13,6.01-4.7,9.78-4.7,4.11,0,7.5,1.49,10.19,4.46,2.69,2.97,4.03,7.24,4.03,12.81s-1.37,10.19-4.11,13.3c-2.74,3.11-6.07,4.67-9.98,4.67-1.93,0-3.82-.48-5.7-1.44-1.87-.96-3.49-2.38-4.84-4.27v4.95h-8.28Zm8.86-17.58c0,3.49.55,6.07,1.65,7.74,1.54,2.37,3.6,3.55,6.16,3.55,1.97,0,3.64-.84,5.03-2.52,1.38-1.68,2.08-4.33,2.08-7.95,0-3.85-.7-6.63-2.09-8.33s-3.19-2.56-5.37-2.56-3.91.83-5.33,2.49c-1.42,1.66-2.12,4.18-2.12,7.57Z" fill="#034ea2" stroke-width="0"/>
    <path d="m735.55,49.08h9.49l8.06,23.93,7.87-23.93h9.23l-11.9,32.44-2.13,5.87c-.78,1.97-1.53,3.47-2.24,4.51-.71,1.04-1.52,1.88-2.44,2.52s-2.05,1.15-3.4,1.51c-1.34.36-2.86.54-4.55.54s-3.39-.18-5.04-.54l-.79-6.98c1.4.27,2.66.41,3.78.41,2.07,0,3.61-.61,4.6-1.83.99-1.22,1.76-2.77,2.29-4.65l-12.82-33.8Z" fill="#034ea2" stroke-width="0"/>
    <path d="m372.56,127.08v7.11h-6.09v13.58c0,2.75.06,4.35.18,4.81.12.46.38.83.79,1.13.41.3.91.45,1.51.45.82,0,2.02-.29,3.59-.86l.76,6.92c-2.07.89-4.42,1.33-7.04,1.33-1.61,0-3.06-.27-4.35-.81-1.29-.54-2.24-1.24-2.84-2.09-.6-.86-1.02-2.02-1.25-3.47-.19-1.04-.29-3.13-.29-6.29v-14.69h-4.09v-7.11h4.09v-6.7l8.95-5.21v11.9h6.09Z" fill="#034ea2" stroke-width="0"/>
    <path d="m387.64,114.25v17.11c2.88-3.36,6.32-5.05,10.31-5.05,2.05,0,3.9.38,5.55,1.14s2.89,1.74,3.73,2.92c.84,1.19,1.41,2.5,1.71,3.94.31,1.44.46,3.67.46,6.7v19.77h-8.92v-17.8c0-3.53-.17-5.78-.51-6.73-.34-.95-.94-1.71-1.79-2.27s-1.93-.84-3.22-.84c-1.48,0-2.8.36-3.97,1.08-1.16.72-2.01,1.8-2.55,3.25-.54,1.45-.81,3.59-.81,6.43v16.88h-8.92v-46.53h8.92Z" fill="#034ea2" stroke-width="0"/>
    <path d="m437.97,150.06l8.89,1.49c-1.14,3.26-2.95,5.74-5.41,7.44-2.47,1.7-5.55,2.55-9.25,2.55-5.86,0-10.2-1.92-13.01-5.74-2.22-3.07-3.33-6.94-3.33-11.62,0-5.59,1.46-9.96,4.38-13.12s6.61-4.75,11.08-4.75c5.01,0,8.97,1.66,11.87,4.97,2.9,3.31,4.29,8.38,4.16,15.22h-22.34c.06,2.65.78,4.7,2.16,6.17,1.38,1.47,3.09,2.21,5.14,2.21,1.4,0,2.57-.38,3.52-1.14.95-.76,1.67-1.99,2.16-3.68Zm.51-9.01c-.06-2.58-.73-4.54-2-5.89-1.27-1.34-2.81-2.02-4.63-2.02-1.95,0-3.55.71-4.82,2.13-1.27,1.42-1.89,3.34-1.87,5.78h13.33Z" fill="#034ea2" stroke-width="0"/>
    <path d="m472.73,160.78v-46.53h34.5v7.87h-25.11v10.32h23.36v7.84h-23.36v12.66h25.99v7.84h-35.39Z" fill="#034ea2" stroke-width="0"/>
    <path d="m538.2,160.78v-5.05c-1.23,1.8-2.84,3.22-4.84,4.25-2,1.04-4.11,1.55-6.33,1.55s-4.29-.5-6.09-1.49c-1.8-.99-3.1-2.39-3.9-4.19-.8-1.8-1.21-4.28-1.21-7.46v-21.33h8.92v15.49c0,4.74.16,7.64.49,8.71.33,1.07.93,1.92,1.79,2.54.87.62,1.97.94,3.3.94,1.52,0,2.89-.42,4.1-1.25,1.21-.83,2.03-1.87,2.47-3.11.45-1.24.67-4.27.67-9.09v-14.22h8.92v33.71h-8.29Z" fill="#034ea2" stroke-width="0"/>
    <path d="m564.26,160.78h-8.92v-33.71h8.28v4.79c1.42-2.26,2.69-3.75,3.82-4.47,1.13-.72,2.42-1.08,3.86-1.08,2.03,0,3.99.56,5.87,1.68l-2.76,7.78c-1.5-.97-2.9-1.46-4.19-1.46s-2.31.34-3.17,1.03c-.87.69-1.55,1.93-2.05,3.73-.5,1.8-.75,5.57-.75,11.3v10.41Z" fill="#034ea2" stroke-width="0"/>
    <path d="m578.96,143.45c0-2.96.73-5.83,2.19-8.6,1.46-2.77,3.53-4.89,6.2-6.35,2.68-1.46,5.67-2.19,8.97-2.19,5.1,0,9.28,1.66,12.54,4.97,3.26,3.31,4.89,7.5,4.89,12.55s-1.64,9.33-4.94,12.68c-3.29,3.35-7.43,5.03-12.42,5.03-3.09,0-6.04-.7-8.84-2.09-2.8-1.4-4.94-3.44-6.39-6.14-1.46-2.7-2.19-5.98-2.19-9.85Zm9.14.48c0,3.34.79,5.9,2.38,7.68,1.59,1.78,3.54,2.67,5.87,2.67s4.28-.89,5.86-2.67,2.37-4.36,2.37-7.74-.79-5.84-2.37-7.62-3.53-2.67-5.86-2.67-4.28.89-5.87,2.67c-1.59,1.78-2.38,4.34-2.38,7.68Z" fill="#034ea2" stroke-width="0"/>
    <path d="m620.47,127.08h8.31v4.95c1.08-1.69,2.54-3.07,4.38-4.13,1.84-1.06,3.88-1.59,6.12-1.59,3.91,0,7.24,1.53,9.97,4.6,2.73,3.07,4.09,7.34,4.09,12.82s-1.38,10-4.13,13.12c-2.75,3.12-6.08,4.68-10,4.68-1.86,0-3.55-.37-5.06-1.11-1.51-.74-3.11-2.01-4.78-3.81v16.98h-8.92v-46.53Zm8.82,16.28c0,3.79.75,6.58,2.25,8.39,1.5,1.81,3.33,2.71,5.49,2.71s3.8-.83,5.17-2.49c1.38-1.66,2.06-4.38,2.06-8.17,0-3.53-.71-6.16-2.12-7.87-1.42-1.71-3.17-2.57-5.27-2.57s-3.99.84-5.43,2.52c-1.44,1.68-2.16,4.17-2.16,7.47Z" fill="#034ea2" stroke-width="0"/>
    <path d="m679.95,150.06l8.89,1.49c-1.14,3.26-2.95,5.74-5.41,7.44-2.47,1.7-5.55,2.55-9.25,2.55-5.86,0-10.2-1.92-13.01-5.74-2.22-3.07-3.33-6.94-3.33-11.62,0-5.59,1.46-9.96,4.38-13.12s6.61-4.75,11.08-4.75c5.01,0,8.97,1.66,11.87,4.97,2.9,3.31,4.29,8.38,4.16,15.22h-22.34c.06,2.65.78,4.7,2.16,6.17,1.38,1.47,3.09,2.21,5.14,2.21,1.4,0,2.57-.38,3.52-1.14.95-.76,1.67-1.99,2.16-3.68Zm.51-9.01c-.06-2.58-.73-4.54-2-5.89-1.27-1.34-2.81-2.02-4.63-2.02-1.95,0-3.55.71-4.82,2.13-1.27,1.42-1.89,3.34-1.87,5.78h13.33Z" fill="#034ea2" stroke-width="0"/>
    <path d="m703.24,137.36l-8.09-1.46c.91-3.26,2.48-5.67,4.7-7.24,2.22-1.57,5.52-2.35,9.9-2.35,3.98,0,6.94.47,8.89,1.41,1.95.94,3.32,2.14,4.11,3.59.79,1.45,1.19,4.11,1.19,7.98l-.1,10.41c0,2.96.14,5.15.43,6.55.29,1.41.82,2.92,1.6,4.52h-8.82c-.23-.59-.52-1.47-.86-2.63-.15-.53-.25-.88-.32-1.05-1.52,1.48-3.15,2.59-4.89,3.33-1.73.74-3.59,1.11-5.55,1.11-3.47,0-6.21-.94-8.2-2.82-2-1.88-3-4.26-3-7.14,0-1.9.46-3.6,1.37-5.09.91-1.49,2.18-2.63,3.82-3.43,1.64-.79,4-1.49,7.09-2.08,4.17-.78,7.06-1.51,8.66-2.19v-.89c0-1.71-.42-2.94-1.27-3.67-.85-.73-2.44-1.1-4.79-1.1-1.59,0-2.82.31-3.71.94-.89.62-1.61,1.72-2.16,3.29Zm11.93,7.24c-1.14.38-2.95.84-5.43,1.36-2.47.53-4.09,1.05-4.86,1.56-1.16.83-1.75,1.87-1.75,3.14s.46,2.33,1.4,3.24c.93.91,2.12,1.36,3.55,1.36,1.61,0,3.14-.53,4.6-1.59,1.08-.8,1.79-1.79,2.12-2.95.23-.76.35-2.21.35-4.35v-1.78Z" fill="#034ea2" stroke-width="0"/>
    <path d="m763.39,160.78h-8.92v-17.2c0-3.64-.19-5.99-.57-7.06s-1-1.9-1.86-2.49c-.86-.59-1.89-.89-3.1-.89-1.54,0-2.93.42-4.16,1.27-1.23.85-2.07,1.97-2.52,3.37-.46,1.4-.68,3.98-.68,7.74v15.27h-8.92v-33.71h8.28v4.95c2.94-3.81,6.64-5.71,11.11-5.71,1.97,0,3.77.35,5.39,1.06s2.86,1.61,3.7,2.71c.84,1.1,1.42,2.35,1.75,3.75s.49,3.4.49,6v20.95Z" fill="#034ea2" stroke-width="0"/>
    <path d="m790.49,114.25h9.39v25.2c0,4,.12,6.59.35,7.78.4,1.9,1.36,3.43,2.87,4.59,1.51,1.15,3.58,1.73,6.21,1.73s4.68-.54,6.03-1.63c1.35-1.09,2.17-2.43,2.45-4.01.27-1.59.41-4.22.41-7.9v-25.74h9.39v24.44c0,5.59-.25,9.53-.76,11.84-.51,2.31-1.45,4.25-2.81,5.84-1.37,1.59-3.19,2.85-5.47,3.79s-5.27,1.41-8.95,1.41c-4.44,0-7.81-.51-10.11-1.54-2.29-1.03-4.11-2.36-5.44-4-1.33-1.64-2.21-3.36-2.63-5.16-.62-2.67-.92-6.6-.92-11.81v-24.82Z" fill="#034ea2" stroke-width="0"/>
    <path d="m868.09,160.78h-8.92v-17.2c0-3.64-.19-5.99-.57-7.06s-1-1.9-1.86-2.49c-.86-.59-1.89-.89-3.09-.89-1.54,0-2.93.42-4.16,1.27-1.23.85-2.07,1.97-2.52,3.37s-.68,3.98-.68,7.74v15.27h-8.92v-33.71h8.29v4.95c2.94-3.81,6.64-5.71,11.11-5.71,1.97,0,3.77.35,5.4,1.06,1.63.71,2.86,1.61,3.7,2.71.84,1.1,1.42,2.35,1.75,3.75.33,1.4.49,3.4.49,6v20.95Z" fill="#034ea2" stroke-width="0"/>
    <path d="m877.14,122.51v-8.25h8.92v8.25h-8.92Zm0,38.28v-33.71h8.92v33.71h-8.92Z" fill="#034ea2" stroke-width="0"/>
    <path d="m893.13,143.45c0-2.96.73-5.83,2.19-8.6,1.46-2.77,3.53-4.89,6.21-6.35,2.68-1.46,5.66-2.19,8.96-2.19,5.1,0,9.28,1.66,12.54,4.97,3.26,3.31,4.89,7.5,4.89,12.55s-1.65,9.33-4.94,12.68c-3.29,3.35-7.43,5.03-12.43,5.03-3.09,0-6.04-.7-8.84-2.09-2.8-1.4-4.94-3.44-6.39-6.14-1.46-2.7-2.19-5.98-2.19-9.85Zm9.14.48c0,3.34.79,5.9,2.38,7.68,1.59,1.78,3.54,2.67,5.87,2.67s4.28-.89,5.86-2.67,2.36-4.36,2.36-7.74-.79-5.84-2.36-7.62-3.53-2.67-5.86-2.67-4.29.89-5.87,2.67c-1.59,1.78-2.38,4.34-2.38,7.68Z" fill="#034ea2" stroke-width="0"/>
    <path d="m965.56,160.78h-8.92v-17.2c0-3.64-.19-5.99-.57-7.06s-1-1.9-1.86-2.49c-.86-.59-1.89-.89-3.1-.89-1.54,0-2.93.42-4.16,1.27-1.23.85-2.07,1.97-2.52,3.37-.46,1.4-.68,3.98-.68,7.74v15.27h-8.92v-33.71h8.28v4.95c2.94-3.81,6.64-5.71,11.11-5.71,1.97,0,3.77.35,5.39,1.06s2.86,1.61,3.7,2.71c.84,1.1,1.42,2.35,1.75,3.75s.49,3.4.49,6v20.95Z" fill="#034ea2" stroke-width="0"/>
  </g>
</svg>
