<svg width="290" height="152" viewBox="0 0 290 152" fill="none" xmlns="http://www.w3.org/2000/svg">
<mask id="mask0_1302_7773" style="mask-type:alpha" maskUnits="userSpaceOnUse" x="0" y="0" width="290" height="152">
<rect width="289.534" height="151.75" fill="#D9D9D9"/>
</mask>
<g mask="url(#mask0_1302_7773)">
<path d="M158.203 145.438C158.627 146 159.001 146.586 159.35 147.185C159.737 147.772 160.074 148.37 160.373 148.994C159.949 148.432 159.575 147.846 159.225 147.248C158.839 146.661 158.502 146.062 158.203 145.438Z" fill="#263239"/>
<path d="M159.824 150.441V150.715C159.824 150.865 159.712 150.965 159.675 150.953C159.637 150.953 159.675 150.815 159.675 150.679C159.675 150.541 159.787 150.429 159.824 150.441Z" fill="#263239"/>
<path d="M160.635 149.568C160.635 149.568 160.51 149.656 160.41 149.78C160.298 149.892 160.223 150.017 160.198 150.004C160.161 150.004 160.198 149.829 160.31 149.693C160.423 149.555 160.635 149.53 160.635 149.568Z" fill="#263239"/>
<path d="M161.246 149.057C161.246 149.057 161.246 149.144 161.184 149.219C161.121 149.281 161.047 149.318 161.022 149.306C160.997 149.293 161.022 149.206 161.084 149.144C161.146 149.081 161.221 149.031 161.246 149.069V149.057Z" fill="#263239"/>
<path d="M104.254 122.562H124.885V127.003H104.254V122.562Z" fill="#263239"/>
<path d="M114.544 92.5117H135.176V96.9525H114.544V92.5117Z" fill="#263239"/>
<path d="M141.025 123.459H161.657C163.005 123.459 164.09 124.457 164.09 125.68C164.09 126.915 163.005 127.9 161.657 127.9H141.025C139.678 127.9 138.593 126.915 138.593 125.68C138.593 124.445 139.678 123.459 141.025 123.459Z" fill="#455A64"/>
<path d="M154.162 95.5057C154.162 96.0915 153.9 96.6533 153.451 97.0774C152.99 97.5015 152.378 97.726 151.73 97.726H135.963C135.314 97.726 134.703 97.4886 134.241 97.0774C133.78 96.6653 133.53 96.0915 133.53 95.5057C133.53 94.9189 133.792 94.358 134.241 93.9339C134.703 93.5218 135.314 93.2853 135.963 93.2853H151.73C152.378 93.2853 152.99 93.5218 153.451 93.9339C153.913 94.3451 154.162 94.9189 154.162 95.5057Z" fill="#455A64"/>
<path d="M149.67 50.0502C149.358 50.138 143.67 61.7259 139.079 61.7878C134.502 61.8506 111.15 60.1671 111.15 60.1671L110.863 53.967L134.988 54.0289L142.323 44.9857L149.657 50.0622L149.67 50.0502Z" fill="#F8BC9E"/>
<path d="M113.832 54.7405C113.832 54.7405 109.853 53.58 109.416 53.0062C108.98 52.4324 107.184 49.7629 107.184 49.7629C106.81 50.2249 106.647 50.7987 106.735 51.3726C106.86 51.8096 107.084 52.595 107.246 53.2067C107.271 53.2935 107.271 53.3813 107.246 53.4682C107.221 53.556 107.171 53.6308 107.109 53.6927C107.046 53.7555 106.959 53.8054 106.86 53.8304C106.772 53.8553 106.672 53.8673 106.572 53.8424C105.637 53.6927 104.252 53.5301 104.09 53.9422C103.841 54.553 104.926 58.6204 105.737 59.3688C106.535 60.1173 112.011 60.1293 112.011 60.1293L113.832 54.7285L113.832 54.7405Z" fill="#F8BC9E"/>
<path d="M105.113 55.1517C105.113 55.1517 105.362 55.4261 105.924 55.6636C106.26 55.8004 106.609 55.9002 106.972 55.95C107.221 55.9879 107.471 55.9501 107.682 55.8253C107.795 55.7505 107.895 55.6507 107.945 55.5259C107.994 55.4012 108.006 55.2765 107.982 55.1397C107.932 54.8902 107.782 54.6777 107.57 54.528C107.383 54.4162 107.183 54.3284 106.959 54.2785C106.572 54.1787 106.223 54.1289 105.936 54.067C105.624 53.9792 105.299 53.9422 104.975 53.9542C105.249 54.1168 105.562 54.2287 105.874 54.2786L106.872 54.553C107.046 54.5779 107.221 54.6528 107.358 54.7655C107.496 54.8773 107.595 55.015 107.657 55.1767C107.732 55.5139 107.383 55.6756 107.021 55.6387C106.684 55.6008 106.36 55.5389 106.049 55.4391C105.761 55.3264 105.449 55.2266 105.149 55.1647L105.113 55.1517Z" fill="#EC9A6E"/>
<path d="M105.774 56.9859C105.973 57.1356 106.198 57.2483 106.447 57.3102C106.572 57.3601 106.71 57.3851 106.847 57.398C106.934 57.398 107.034 57.398 107.121 57.3601C107.209 57.3231 107.284 57.2853 107.358 57.2234C107.52 57.0986 107.62 56.936 107.658 56.7494C107.695 56.5618 107.658 56.3751 107.558 56.2125C107.334 55.9381 107.021 55.7514 106.66 55.6637L105.911 55.3892C105.474 55.2275 105.188 55.1896 105.175 55.2275C105.163 55.2645 105.413 55.3892 105.812 55.5888C106.011 55.6886 106.261 55.8133 106.535 55.9381C106.822 56.0259 107.071 56.1755 107.259 56.3871C107.309 56.4869 107.334 56.5997 107.309 56.7115C107.284 56.8242 107.221 56.924 107.134 56.9988C107.109 57.0358 107.059 57.0737 107.009 57.0857C106.959 57.1106 106.909 57.1106 106.86 57.1106C106.747 57.1106 106.635 57.0986 106.522 57.0737C106.086 56.9859 105.799 56.924 105.787 56.9859L105.774 56.9859Z" fill="#EC9A6E"/>
<path d="M108.182 58.333C108.182 58.333 108.306 58.1214 108.518 57.822C108.792 57.4099 109.18 57.0855 109.641 56.849L109.865 56.7363L109.666 56.5866C109.529 56.4868 109.379 56.375 109.254 56.2502C108.618 55.6136 108.107 54.8901 107.72 54.1047C107.67 54.1047 107.72 54.4161 107.869 54.8781C108.119 55.4769 108.506 56.0257 109.005 56.4748C109.142 56.5995 109.291 56.7243 109.454 56.8361V56.5746C108.942 56.8361 108.531 57.2353 108.294 57.7222C108.182 58.0835 108.182 58.333 108.182 58.333Z" fill="#EC9A6E"/>
<path d="M105.674 58.4079C105.674 58.4079 105.848 58.6075 106.273 58.7452C106.41 58.7951 106.547 58.8071 106.685 58.8071C106.821 58.8071 106.959 58.7701 107.096 58.7073C107.258 58.6325 107.383 58.5207 107.47 58.383C107.52 58.2961 107.545 58.2084 107.545 58.1086C107.545 58.0088 107.52 57.9219 107.47 57.8341C107.295 57.5726 107.034 57.3481 106.722 57.2234C106.51 57.1107 106.286 57.0238 106.048 56.936C105.649 56.7993 105.374 56.7614 105.374 56.7993C105.374 56.8362 105.587 56.949 105.948 57.1356C106.123 57.2354 106.335 57.3481 106.572 57.4849C106.809 57.5976 107.009 57.7593 107.159 57.9469C107.258 58.1215 107.109 58.3331 106.921 58.4329C106.735 58.5207 106.522 58.5576 106.31 58.5077C105.936 58.4579 105.687 58.3581 105.662 58.408L105.674 58.4079Z" fill="#EC9A6E"/>
<path d="M173.046 17.7177C173.133 18.8024 173.358 19.8761 173.72 20.911C174.094 21.9588 174.867 22.844 175.89 23.4308C176.888 23.9417 178.26 24.1542 178.647 25.1272C179.033 26.1131 178.198 27.3725 178.984 28.1081C179.333 28.3705 179.757 28.5331 180.206 28.583C180.942 28.7447 181.641 29.0441 182.239 29.4682C182.838 29.8923 183.337 30.4282 183.699 31.0399C184.036 31.7883 184.173 32.5867 184.11 33.385C184.048 34.1834 183.786 34.9697 183.349 35.6553C182.439 37.0274 181.304 38.2748 179.981 39.3347L167.208 36.8399C167.208 36.8399 170.988 18.3913 170.925 18.516C171.649 18.2915 172.36 18.0291 173.046 17.7177Z" fill="#263239"/>
<path d="M156.107 18.6906C156.045 18.977 155.92 19.2394 155.733 19.476C155.546 19.7134 155.296 19.9001 155.022 20.0498C154.46 20.3242 153.912 20.6365 153.4 20.9728C152.989 21.335 152.652 21.7592 152.44 22.2452C152.215 22.7321 152.115 23.2431 152.14 23.767C152.178 24.8148 152.39 25.8377 152.752 26.8356C151.704 26.8735 150.681 27.135 149.758 27.5721C148.835 28.0082 148.011 28.6319 147.375 29.3932C146.103 30.9271 145.442 32.7982 145.479 34.7192C145.479 36.0793 145.853 37.5512 147.001 38.3995C147.962 39.0232 149.097 39.3845 150.282 39.4593C152.602 39.7716 154.934 39.9583 157.267 40.1329C159.6 40.3205 162.12 40.4572 164.19 39.4344C165.887 38.4993 167.171 37.0523 167.833 35.3429C168.868 32.8481 169.242 30.1666 168.918 27.5092C168.594 24.8647 167.957 22.2581 167.034 19.7384" fill="#263239"/>
<path d="M172.198 15.6968C173.333 15.1729 174.581 14.8615 175.853 14.8116C177.125 14.8116 178.473 15.4973 178.822 16.6079C178.984 17.2067 178.897 17.8424 178.597 18.4042C178.286 18.953 177.874 19.452 177.387 19.8761C176.951 20.3621 176.34 20.6864 175.654 20.7992C175.117 20.8241 174.593 20.6864 174.157 20.412C173.271 19.9509 172.622 19.1775 172.335 18.2914C172.211 17.8424 172.211 17.3683 172.36 16.9322C172.51 16.4952 172.785 16.096 173.171 15.7846" fill="#263239"/>
<path d="M157.655 13.0903C157.655 13.0903 155.36 12.3668 155.347 10.9947C155.322 9.63455 172.462 7.67659 175.742 15.2857C175.742 15.2857 175.106 15.6969 172.449 15.5472" fill="#438DCC"/>
<path d="M170.777 34.1334L160.324 33.373C160.261 32.2623 160.324 27.9593 160.324 27.9593C160.324 27.9593 155.97 27.3476 155.92 23.3808C155.871 19.4141 156.594 10.321 156.594 10.321C159.064 9.34803 161.783 8.99876 164.453 9.31015C167.122 9.62247 169.654 10.5705 171.787 12.0674L172.461 12.5164L170.777 34.1334Z" fill="#F8BC9E"/>
<path d="M158.402 16.9064C158.464 16.8565 158.526 16.7946 158.564 16.7318C158.601 16.6699 158.626 16.5821 158.639 16.5072C158.639 16.4324 158.639 16.3455 158.601 16.2707C158.576 16.1958 158.526 16.133 158.477 16.0711C158.414 16.0083 158.352 15.9713 158.264 15.9344C158.19 15.8965 158.102 15.8835 158.015 15.8835C157.928 15.8835 157.84 15.8965 157.765 15.9344C157.691 15.9593 157.616 16.0083 157.553 16.0711C157.491 16.121 157.429 16.1838 157.391 16.2457C157.354 16.3206 157.329 16.3954 157.316 16.4703C157.316 16.5451 157.316 16.632 157.354 16.7068C157.379 16.7817 157.429 16.8445 157.479 16.9064C157.541 16.9692 157.603 17.0062 157.691 17.0441C157.765 17.081 157.853 17.094 157.94 17.094C158.027 17.094 158.115 17.081 158.19 17.0441C158.264 17.0062 158.339 16.9692 158.402 16.9064Z" fill="#263239"/>
<path d="M156.607 16.2207C156.669 16.2826 157.094 15.9961 157.692 15.9832C158.291 15.9832 158.728 16.2706 158.79 16.1957C158.852 16.1209 158.753 16.046 158.566 15.9083C158.316 15.7337 158.004 15.6469 157.692 15.6469C157.38 15.6469 157.069 15.7466 156.819 15.9213C156.607 16.059 156.557 16.1828 156.607 16.2077V16.2207Z" fill="#263239"/>
<path d="M164.053 16.5202C163.978 16.558 163.916 16.6079 163.878 16.6698C163.841 16.7327 163.791 16.8075 163.778 16.8694C163.766 16.9323 163.753 17.0191 163.778 17.094C163.791 17.1688 163.816 17.2436 163.866 17.3065C163.916 17.3684 163.965 17.4312 164.04 17.4682C164.103 17.5181 164.19 17.543 164.265 17.556C164.352 17.568 164.427 17.5809 164.514 17.556C164.602 17.543 164.677 17.5181 164.751 17.4811C164.889 17.3933 164.988 17.2686 165.026 17.1189C165.063 16.9692 165.038 16.8195 164.963 16.6828C164.926 16.6199 164.864 16.558 164.789 16.5081C164.726 16.4582 164.639 16.4333 164.564 16.4083C164.477 16.3954 164.402 16.3834 164.315 16.4083C164.227 16.4204 164.153 16.4453 164.078 16.4952L164.053 16.5202Z" fill="#263239"/>
<path d="M163.093 16.7077C163.167 16.7696 163.592 16.4702 164.19 16.4702C164.789 16.4702 165.226 16.7446 165.288 16.6827C165.35 16.6199 165.251 16.533 165.064 16.3953C164.814 16.2207 164.502 16.1339 164.178 16.1459C163.866 16.1459 163.554 16.2457 163.305 16.4203C163.118 16.558 163.055 16.6827 163.08 16.7197L163.093 16.7077Z" fill="#263239"/>
<path d="M160.698 21.2105C160.386 21.0978 160.061 21.0359 159.725 21.0229C159.575 21.0229 159.438 20.986 159.438 20.8982C159.438 20.7615 159.463 20.6117 159.55 20.487C159.7 20.1248 159.862 19.7635 160.024 19.3764C160.473 18.4413 160.81 17.4563 161.047 16.4584C160.498 17.3565 160.049 18.2916 159.7 19.2646C159.55 19.6517 159.4 20.013 159.251 20.3872C159.138 20.5748 159.113 20.7864 159.163 20.9989C159.188 21.0488 159.226 21.0987 159.263 21.1357C159.313 21.1736 159.363 21.1985 159.425 21.2234C159.513 21.2354 159.6 21.2354 159.7 21.2234C160.024 21.2733 160.361 21.2604 160.685 21.2105H160.698Z" fill="#263239"/>
<path d="M160.336 27.8964C162.344 27.9343 164.328 27.4224 166.012 26.4244C166.012 26.4244 164.665 29.2814 160.324 28.9192V27.8964H160.336Z" fill="#EC9A6E"/>
<path d="M156.557 11.3181C157.517 11.7172 158.552 11.9297 159.613 11.9297C160.673 11.9297 161.708 11.7172 162.669 11.3181C165.014 10.4449 167.683 10.0956 168.22 10.5696C168.769 11.0436 167.821 15.1351 170.004 15.9085C170.004 15.9085 170.415 17.9542 172.199 17.9293C173.983 17.9043 173.372 11.5805 173.372 11.5805L169.205 9.36009L164.552 8.23743L160.062 8.51186L156.557 9.12262V11.331V11.3181Z" fill="#263239"/>
<path d="M171.949 16.608C172.024 16.608 174.943 15.8096 174.843 18.516C174.743 21.2233 171.787 20.5747 171.787 20.4999C171.787 20.425 171.949 16.608 171.949 16.608Z" fill="#F8BC9E"/>
<path d="M172.748 19.501C172.748 19.501 172.798 19.501 172.885 19.5758C173.01 19.6257 173.147 19.6257 173.272 19.5758C173.471 19.464 173.633 19.3143 173.733 19.1397C173.845 18.965 173.895 18.7525 173.895 18.5529C173.908 18.3164 173.87 18.0919 173.771 17.8793C173.746 17.7925 173.696 17.7176 173.633 17.6548C173.571 17.5929 173.484 17.543 173.396 17.5051C173.334 17.4802 173.272 17.4931 173.222 17.5051C173.159 17.5301 173.122 17.568 173.097 17.6179C173.047 17.6927 173.097 17.7426 173.047 17.7546C172.997 17.7546 172.985 17.7047 173.047 17.5929C173.072 17.5301 173.109 17.4682 173.172 17.4303C173.247 17.3933 173.334 17.3804 173.409 17.3933C173.534 17.4183 173.646 17.4682 173.733 17.555C173.82 17.6299 173.895 17.7296 173.933 17.8294C174.045 18.0789 174.107 18.3533 174.082 18.6158C174.082 18.8523 174.02 19.1018 173.87 19.3014C173.733 19.501 173.521 19.6636 173.284 19.7634C173.209 19.7754 173.122 19.7883 173.035 19.7634C172.947 19.7384 172.872 19.7135 172.81 19.6756C172.735 19.5758 172.698 19.5139 172.735 19.5139L172.748 19.501Z" fill="#EC9A6E"/>
<path d="M173.971 8.18755C174.008 8.1127 173.509 7.91312 172.91 8.08775C172.299 8.26239 172.025 8.69852 172.1 8.69852C172.174 8.69852 172.511 8.49893 173.01 8.36217C173.509 8.22451 173.946 8.29936 173.971 8.18755Z" fill="#263239"/>
<path d="M172.273 6.5039C172.16 6.5039 172.16 7.0777 172.023 7.72635C171.886 8.375 171.562 8.84901 171.637 8.89891C171.711 8.9488 172.21 8.52469 172.36 7.78826C172.497 7.36415 172.472 6.90307 172.26 6.49097L172.273 6.5039Z" fill="#263239"/>
<path d="M159.512 15.3356C159.612 15.1859 159.063 14.7239 158.165 14.7239C157.266 14.7239 156.705 15.0861 156.817 15.2478C156.93 15.3975 157.491 15.3346 158.165 15.3596C158.838 15.3845 159.412 15.4973 159.512 15.3356Z" fill="#263239"/>
<path d="M168.305 10.4827C167.395 11.0066 166.534 11.6054 165.723 12.254C164.9 12.9027 163.84 13.2519 162.742 13.2519L163.004 12.7909C161.432 13.3646 159.773 13.7259 158.077 13.8756C157.777 13.9385 157.453 13.9385 157.153 13.8756C156.854 13.8008 156.567 13.664 156.343 13.4644C155.956 13.0024 156.492 12.1792 156.555 11.3309C156.605 10.7202 156.842 10.5575 157.478 10.333C157.777 10.2582 158.089 10.2332 158.388 10.2582C160.746 10.3459 163.104 10.2212 165.449 9.90889C165.998 9.8091 166.546 9.77214 167.108 9.79708C167.382 9.79708 167.657 9.85899 167.906 9.97172C168.156 10.0715 168.38 10.2332 168.555 10.4079" fill="#263239"/>
<path d="M160.648 21.7093C160.747 21.6464 160.86 21.6095 160.984 21.6095C161.109 21.6095 161.221 21.6464 161.321 21.7093C161.421 21.7592 161.496 21.846 161.546 21.9338C161.596 22.0207 161.633 22.1205 161.621 22.2332C161.621 22.4448 161.533 22.6444 161.384 22.7941C161.271 22.9188 161.109 23.0186 160.922 23.0565C160.772 23.0814 160.623 23.0685 160.485 23.0186C160.348 22.9687 160.224 22.8689 160.149 22.7571C160.074 22.6444 160.024 22.5076 160.024 22.3699C160.024 22.2332 160.061 22.0955 160.149 21.9837C160.236 21.871 160.348 21.7712 160.485 21.7093C160.623 21.6464 160.772 21.6215 160.922 21.6215" fill="#EC9A6E"/>
<path d="M159.137 22.4827C159.137 22.4827 159.312 22.6324 159.649 22.6444C160.085 22.6444 160.51 22.5696 160.909 22.4079C161.844 22.0706 162.431 21.4968 162.331 21.422C162.231 21.3471 161.657 21.7962 160.784 22.1085C160.422 22.2582 160.036 22.358 159.649 22.4199C159.349 22.4578 159.162 22.4449 159.15 22.4827H159.137Z" fill="#263239"/>
<path d="M163.229 15.2727C163.304 15.3346 163.441 15.3106 163.628 15.3355C163.815 15.3605 164.102 15.4224 164.489 15.4473C165.225 15.5092 165.836 15.4473 165.836 15.2357C165.836 15.0232 165.275 14.8735 164.526 14.8116C164.189 14.7617 163.828 14.7987 163.503 14.8865C163.216 15.0112 163.154 15.2228 163.229 15.2607L163.229 15.2727Z" fill="#263239"/>
<path d="M170.328 12.2162C170.278 14.3867 169.804 16.5451 169.779 18.7027C169.754 20.8732 170.228 23.1684 171.8 24.8279C172.311 25.4516 173.072 25.8508 173.921 25.9626C174.158 26.0005 174.407 25.9626 174.632 25.8628C174.856 25.763 175.031 25.6133 175.143 25.4137C175.243 25.0774 175.193 24.7152 175.006 24.4038C174.469 23.4179 173.846 22.4578 173.16 21.5468C172.474 20.6366 172.037 19.5888 171.912 18.4911C171.925 17.6798 172.049 16.8695 172.286 16.0961C172.523 15.3098 172.561 14.4865 172.386 13.6881C172.299 13.289 172.074 12.9277 171.763 12.6403C171.451 12.3539 171.052 12.1543 170.615 12.0665" fill="#263239"/>
<path d="M164.751 10.4328C156.905 9.65945 155.408 10.9189 155.333 10.9817C155.121 10.7821 154.984 10.5446 154.934 10.2831C154.647 8.19952 157.466 7.57582 157.466 7.57582C159.225 0.266054 166.435 1.0145 166.435 1.0145V0.964599C166.498 0.653211 166.697 0.390796 166.984 0.204148C167.271 0.0295123 167.62 -0.0333225 167.957 0.0165735L169.08 0.216161C169.417 0.278993 169.716 0.45363 169.903 0.715122C170.09 0.977538 170.165 1.28892 170.103 1.60124C178.56 4.17088 175.753 11.2931 175.753 11.2931L176.988 12.6532C178.086 14.686 175.703 15.2977 175.703 15.2977C175.703 15.2977 172.785 11.2561 164.739 10.4448L164.751 10.4328Z" fill="#E2323D"/>
<g opacity="0.2">
<path d="M168.332 9.23533C169.829 9.72228 171.289 10.2961 172.711 10.9318C174.083 11.6803 175.392 12.4915 176.652 13.3767C176.39 13.0154 176.054 12.7031 175.679 12.4416C173.958 11.0695 171.912 10.0586 169.717 9.48483C169.28 9.3222 168.806 9.23535 168.332 9.22241V9.23533Z" fill="white"/>
</g>
<g opacity="0.2">
<path d="M175.041 10.2332C175.265 10.2831 175.652 9.7841 175.802 8.86103C175.951 7.63857 175.702 6.39117 175.066 5.29346C174.429 4.19575 173.444 3.31056 172.246 2.73675C171.311 2.32465 170.65 2.32465 170.562 2.52424C170.375 2.93634 172.346 3.97121 173.519 6.0419C174.691 8.11259 174.542 10.1454 175.028 10.2332H175.041Z" fill="white"/>
</g>
<path d="M180.817 80.6365L149.071 83.2431C149.021 81.2602 149.682 69.1983 150.069 61.2768C150.144 59.78 148.51 57.1734 148.572 55.913C148.734 52.7945 149.246 52.6698 149.246 52.6698L147.437 55.7384L138.019 48.1043L146.239 37.9874C147.537 36.4037 149.158 35.0565 151.029 34.0586C152.9 33.0606 154.971 32.4 157.117 32.1255C158.389 31.9759 159.362 31.8881 159.998 31.8132C163.628 32.861 167.52 32.861 171.15 31.8132C172.722 31.8631 174.281 32.1376 175.765 32.6245C178.572 33.5227 181.104 35.0186 183.162 36.9645L196.609 51.3854L184.173 58.7072L179.383 54.1168L178.759 66.0419L180.805 80.6365L180.817 80.6365Z" fill="#438DCC"/>
<path d="M151.367 47.7301C151.367 47.817 156.07 47.8918 161.82 47.8918C167.571 47.8918 172.273 47.817 172.273 47.7301C172.273 47.6423 167.596 47.5675 161.82 47.5675C156.045 47.5675 151.367 47.6303 151.367 47.7301Z" fill="white"/>
<path d="M152.065 44.6366C154.086 44.8482 156.132 44.8482 158.152 44.6366C156.132 44.424 154.086 44.424 152.065 44.6366Z" fill="white"/>
<path d="M174.768 48.9894C175.142 49.5263 175.578 50.0252 176.052 50.4863C176.876 51.3844 178.073 52.6069 179.346 53.9541C180.618 55.3013 181.828 56.4988 182.714 57.3599C183.163 57.846 183.649 58.295 184.186 58.7071C183.799 58.1832 183.375 57.6843 182.901 57.2103C182.065 56.3121 180.88 55.0767 179.608 53.7295C178.335 52.3824 177.125 51.1848 176.24 50.3246C175.791 49.8377 175.304 49.3886 174.768 48.9774V48.9894Z" fill="#263239"/>
<path d="M193.902 62.4243C193.341 62.7357 192.842 63.1229 192.418 63.5719C191.907 63.9462 191.507 64.4322 191.233 64.981C191.769 64.6447 192.243 64.2455 192.667 63.7965C193.179 63.4222 193.59 62.9482 193.902 62.4243Z" fill="#EC9A6E"/>
<path d="M172.685 82.3459L170.889 50.9484H151.142L149.683 84.229L172.697 82.3459H172.685Z" fill="#263239"/>
<path d="M153.911 59.0815C153.911 59.0815 154.061 59.2182 154.373 59.4058C154.797 59.6802 155.246 59.9297 155.72 60.1543C158.839 61.6631 162.356 62.3367 165.886 62.0873C166.41 62.0503 166.934 61.9755 167.458 61.8877C167.658 61.8757 167.845 61.8258 168.02 61.7509C168.02 61.701 167.196 61.8128 165.862 61.8627C164.14 61.9256 162.406 61.7879 160.722 61.4885C159.038 61.1642 157.392 60.6652 155.832 59.9916C154.635 59.4428 153.924 59.0316 153.924 59.0815H153.911Z" fill="#455A64"/>
<path d="M167.734 63.6719C167.833 63.6719 167.933 63.4723 167.946 63.2228C167.958 62.9733 167.896 62.7738 167.808 62.7488C167.709 62.7368 167.621 62.9364 167.596 63.1979C167.571 63.4603 167.646 63.6719 167.734 63.6719Z" fill="#455A64"/>
<path d="M168.269 67.1147C168.369 67.1147 168.369 66.7155 168.269 66.2286C168.169 65.7546 168.032 65.3803 167.932 65.3933C167.832 65.4053 167.832 65.8045 167.932 66.2785C168.032 66.7525 168.169 67.1267 168.269 67.1147Z" fill="#455A64"/>
<path d="M167.807 70.5206C167.882 70.5705 168.182 70.2462 168.331 69.7592C168.481 69.2732 168.431 68.8611 168.331 68.8611C168.232 68.8611 168.132 69.2233 167.995 69.6723C167.857 70.1214 167.72 70.4827 167.807 70.5206Z" fill="#455A64"/>
<path d="M164.59 72.0793C164.59 72.1662 165.039 72.229 165.575 72.1412C166.124 72.0544 166.499 71.7919 166.449 71.7171C166.399 71.6423 166 71.742 165.513 71.8298C165.014 71.9047 164.59 71.9915 164.59 72.0793Z" fill="#455A64"/>
<path d="M160.759 72.0424C160.759 72.1293 161.195 72.2041 161.719 72.217C162.243 72.217 162.68 72.1542 162.68 72.0673C162.68 71.9796 162.256 71.9047 161.719 71.8927C161.195 71.8927 160.759 71.9426 160.759 72.0424Z" fill="#455A64"/>
<path d="M156.942 71.9916C156.942 72.0794 157.366 72.1662 157.903 72.1662C158.439 72.1662 158.863 72.1043 158.863 72.0166C158.863 71.9297 158.427 71.8549 157.903 71.8419C157.366 71.8419 156.942 71.8798 156.942 71.9796V71.9916Z" fill="#455A64"/>
<path d="M153.824 70.4208C153.75 70.4208 153.787 70.8698 154.161 71.281C154.535 71.6802 155.034 71.768 155.059 71.6931C155.084 71.6183 154.735 71.4058 154.423 71.0814C154.111 70.7571 153.912 70.3958 153.812 70.4328L153.824 70.4208Z" fill="#455A64"/>
<path d="M153.126 66.99C153.027 66.99 153.014 67.4021 153.089 67.8761C153.164 68.3501 153.313 68.7243 153.401 68.7114C153.501 68.6994 153.513 68.2993 153.438 67.8253C153.363 67.3513 153.239 66.99 153.126 66.99Z" fill="#455A64"/>
<path d="M152.738 63.5351C152.638 63.5351 152.601 63.9333 152.638 64.4203C152.676 64.9063 152.801 65.2815 152.888 65.2686C152.988 65.2686 153.025 64.8694 152.988 64.3824C152.95 63.9084 152.838 63.5222 152.738 63.5351Z" fill="#455A64"/>
<path d="M152.616 60.8648C152.516 60.8648 152.453 61.0773 152.453 61.3268C152.453 61.5763 152.553 61.7879 152.641 61.7759C152.74 61.7759 152.803 61.5633 152.803 61.3139C152.803 61.0644 152.715 60.8528 152.616 60.8528V60.8648Z" fill="#455A64"/>
<path d="M176.975 33.0607C176.975 33.0607 168.966 34.9688 168.842 52.0831H165.623C165.623 52.0831 164.775 37.713 173.482 32.0628C173.482 32.0628 176.002 31.5139 176.975 33.0478V33.0607Z" fill="#263239"/>
<path d="M160.049 31.8381C160.049 31.8381 154.361 34.283 154.223 51.4352H151.492C151.492 51.4352 151.255 35.4056 156.631 32.2493C157.13 31.9499 157.691 31.7512 158.29 31.6764C158.889 31.6015 159.488 31.6634 160.049 31.8381Z" fill="#263239"/>
<path d="M165.637 50.7738C165.488 51.0732 165.413 51.4105 165.438 51.7468C165.438 52.134 165.55 52.4953 165.787 52.8076C165.949 52.9942 166.161 53.1319 166.386 53.2317C166.61 53.3315 166.872 53.3814 167.134 53.3814C167.396 53.4063 167.658 53.3814 167.908 53.2816C168.157 53.1938 168.369 53.057 168.556 52.8824C168.818 52.583 168.968 52.2208 168.98 51.8466C169.018 51.5103 168.98 51.173 168.843 50.8616C168.781 51.173 168.743 51.4973 168.731 51.8216C168.694 52.146 168.544 52.4454 168.319 52.6948C167.995 52.9443 167.583 53.0691 167.159 53.0571C166.735 53.0441 166.336 52.8824 166.037 52.62C165.825 52.3585 165.7 52.0462 165.675 51.7219C165.7 51.3975 165.675 51.0862 165.65 50.7618L165.637 50.7738Z" fill="#455A64"/>
<path d="M167.235 51.2847C167.235 51.2847 167.06 51.1479 166.811 51.2847C166.736 51.3345 166.686 51.4094 166.648 51.4842C166.611 51.5591 166.611 51.6469 166.623 51.7337C166.648 51.8335 166.698 51.9333 166.786 52.0081C166.873 52.083 166.973 52.1329 167.085 52.1458C167.197 52.1578 167.322 52.1458 167.422 52.0959C167.522 52.046 167.609 51.9712 167.671 51.8834C167.721 51.8086 167.746 51.7337 167.746 51.6468C167.746 51.5591 167.721 51.4842 167.671 51.4094C167.497 51.1849 167.272 51.2227 167.285 51.2597C167.297 51.2976 167.397 51.3595 167.447 51.5221C167.447 51.5591 167.459 51.597 167.447 51.6339C167.447 51.6718 167.422 51.7088 167.397 51.7337C167.372 51.7716 167.322 51.7965 167.285 51.8085C167.235 51.8335 167.197 51.8335 167.147 51.8335C167.097 51.8335 167.06 51.7965 167.023 51.7716C166.985 51.7466 166.96 51.7088 166.948 51.6589C166.935 51.6219 166.935 51.584 166.948 51.5471C166.948 51.5092 166.973 51.4722 166.998 51.4473C167.072 51.3475 167.222 51.3345 167.222 51.2846L167.235 51.2847Z" fill="#455A64"/>
<path d="M151.429 50.7618C151.429 50.7618 151.23 51.0612 151.267 51.5971C151.292 51.9215 151.404 52.2208 151.604 52.4953C151.729 52.6579 151.891 52.8076 152.078 52.9074C152.265 53.0072 152.477 53.082 152.702 53.1069C152.926 53.1439 153.163 53.1069 153.375 53.0321C153.587 52.9573 153.775 52.8325 153.912 52.6579C154.099 52.4084 154.236 52.134 154.286 51.8346C154.336 51.5352 154.323 51.2359 154.224 50.9365C154.161 50.9365 154.149 51.2479 154.036 51.7348C153.987 52.0092 153.849 52.2587 153.662 52.4703C153.55 52.583 153.413 52.6828 153.251 52.7327C153.088 52.7826 152.914 52.8076 152.739 52.7826C152.565 52.7577 152.402 52.6949 152.24 52.62C152.091 52.5332 151.953 52.4204 151.854 52.2957C151.679 52.0712 151.554 51.8097 151.504 51.5472C151.404 51.0612 151.467 50.7739 151.417 50.7619L151.429 50.7618Z" fill="#455A64"/>
<path d="M152.951 51.1849C152.951 51.1849 152.864 50.9983 152.565 51.0352C152.477 51.0482 152.39 51.0851 152.328 51.135C152.253 51.1849 152.203 51.2598 152.178 51.3346C152.141 51.4344 152.141 51.5342 152.178 51.634C152.203 51.7338 152.278 51.8216 152.365 51.8835C152.452 51.9463 152.565 51.9833 152.689 51.9833C152.814 51.9833 152.914 51.9463 153.014 51.8835C153.089 51.8336 153.151 51.7717 153.188 51.6968C153.226 51.622 153.238 51.5342 153.226 51.4473C153.163 51.1729 152.939 51.135 152.939 51.1729C152.939 51.2099 153.001 51.3097 152.976 51.4473C152.976 51.4843 152.964 51.5222 152.939 51.5471C152.914 51.5721 152.889 51.597 152.852 51.622C152.814 51.6469 152.764 51.6589 152.714 51.6589C152.664 51.6589 152.627 51.6589 152.577 51.622C152.54 51.597 152.515 51.5591 152.502 51.5093C152.49 51.4723 152.49 51.4224 152.502 51.3845C152.502 51.3476 152.527 51.3097 152.552 51.2847C152.577 51.2598 152.615 51.2348 152.652 51.2099C152.802 51.148 152.939 51.1849 152.964 51.148L152.951 51.1849Z" fill="#455A64"/>
<path d="M161.357 151.999H151.037L149.321 149.019L158.901 144.329L162.93 151.127L162.356 151.451C162.103 151.592 161.752 151.784 161.357 151.999Z" fill="#438DCC"/>
<path d="M169.401 151.999L141.525 75.3226L120.439 151.999H113.005L137.733 62.637H143.733L175.98 151.999H169.401Z" fill="#263239"/>
<path d="M144.586 151.999L124.112 75.609L96.4324 151.999H88.233L121.056 62.637H128.216H128.228L153.258 151.999H144.586Z" fill="#455A64"/>
<path d="M162.954 150.89H162.967L162.95 150.893L162.954 150.89Z" fill="#263239"/>
<path d="M162.344 151.251L160.889 152H160.683L162.331 151.152L162.805 150.915L162.951 150.893L162.805 150.99L162.344 151.251Z" fill="#263239"/>
<path d="M169.982 151.999L160.785 94.4957L160.997 82.3331L180.856 79.2146L187.877 151.999H169.982Z" fill="#263239"/>
<path d="M163.118 145.939L150.557 152H146.981L128.939 118.109C128.478 117.435 128.24 116.65 128.24 115.851C128.24 115.053 128.478 114.28 128.939 113.593L149.109 83.2442V83.2192H167.234L168.045 92.2375L148.186 114.142C147.662 114.803 147.338 115.577 147.276 116.387C147.213 117.198 147.4 118.009 147.812 118.732L163.118 145.939Z" fill="#263239"/>
<path d="M159.503 152C159.494 151.966 159.478 151.943 159.476 151.901C159.463 151.713 159.55 151.576 159.588 151.576C159.588 151.576 159.588 151.725 159.625 151.888C159.635 151.931 159.637 151.963 159.643 152L159.503 152Z" fill="#263239"/>
<path d="M159.439 150.278C159.189 150.815 159.114 151.414 159.214 151.988C159.215 151.992 159.216 151.996 159.217 152H159.114C158.99 151.401 159.052 150.79 159.314 150.228C159.588 149.668 160.025 149.194 160.586 148.869C160.761 148.769 160.936 148.695 161.123 148.62C161.185 148.595 161.247 148.57 161.31 148.57H161.322C161.322 148.57 161.035 148.682 160.649 148.944C160.125 149.28 159.701 149.742 159.439 150.278Z" fill="#263239"/>
<path d="M199.841 70.5575C201.525 68.7982 202.448 66.5409 202.435 64.2078C202.435 61.8756 201.487 59.6303 199.791 57.871L194.489 52.6698L184.922 58.2702C185.221 58.4577 191.521 64.6698 191.521 64.6698L180.481 77.1937C179.633 78.1417 179.072 79.2644 178.835 80.4619C178.598 81.6594 178.697 82.8939 179.134 84.0544L181.018 91.0648L190.211 87.3346L189.6 86.4744H183.55L183.188 85.1521L199.816 70.5575L199.841 70.5575Z" fill="#F8BC9E"/>
<path d="M172.41 83.6682C172.435 84.0674 172.56 84.4416 172.772 84.778C173.234 85.6391 173.945 86.3617 174.843 86.8736C175.741 87.3846 176.764 87.647 177.824 87.6341C178.261 87.659 178.685 87.5842 179.084 87.4345C179.084 87.3846 178.597 87.4345 177.837 87.4345C176.851 87.3726 175.891 87.0861 175.042 86.6241C174.207 86.1381 173.521 85.4765 173.022 84.7031C172.61 84.0794 172.473 83.6433 172.41 83.6682Z" fill="#455A64"/>
<path d="M145.964 151.276C146.201 151.227 146.425 151.165 146.638 151.065C147.062 150.915 147.685 150.678 148.434 150.366C149.943 149.755 152.001 148.82 154.209 147.697C156.417 146.574 158.351 145.452 159.723 144.628C160.396 144.204 160.958 143.855 161.332 143.605C161.706 143.356 161.906 143.206 161.881 143.181C161.656 143.268 161.444 143.368 161.245 143.506L159.586 144.454C158.188 145.252 156.218 146.337 154.035 147.459C151.839 148.582 149.806 149.53 148.321 150.204L146.563 151.002C146.351 151.077 146.139 151.177 145.951 151.301L145.964 151.276Z" fill="#455A64"/>
<path d="M171.886 147.933C171.787 147.933 171.774 148.357 171.849 148.869C171.924 149.368 172.061 149.767 172.148 149.754C172.248 149.754 172.261 149.33 172.198 148.819C172.136 148.32 171.986 147.921 171.886 147.933Z" fill="#455A64"/>
<path d="M171.363 144.304C171.263 144.304 171.25 144.728 171.325 145.239C171.4 145.738 171.537 146.137 171.637 146.125C171.737 146.125 171.749 145.701 171.675 145.189C171.6 144.69 171.462 144.291 171.363 144.304Z" fill="#455A64"/>
<path d="M170.814 140.661C170.714 140.661 170.702 141.086 170.776 141.597C170.851 142.095 170.988 142.496 171.088 142.483C171.188 142.483 171.201 142.059 171.126 141.548C171.051 141.049 170.914 140.648 170.814 140.661Z" fill="#455A64"/>
<path d="M170.251 137.019C170.151 137.019 170.139 137.443 170.251 137.954C170.363 138.453 170.463 138.853 170.563 138.84C170.663 138.84 170.675 138.416 170.563 137.905C170.451 137.406 170.351 137.006 170.251 137.019Z" fill="#455A64"/>
<path d="M169.679 133.389C169.579 133.389 169.567 133.813 169.679 134.325C169.791 134.824 169.903 135.223 169.991 135.21C170.091 135.21 170.103 134.786 169.991 134.275C169.878 133.776 169.779 133.377 169.679 133.389Z" fill="#455A64"/>
<path d="M169.105 129.747C169.005 129.747 168.992 130.171 169.105 130.682C169.217 131.181 169.329 131.58 169.417 131.568C169.516 131.555 169.529 131.144 169.417 130.632C169.304 130.133 169.192 129.734 169.105 129.747Z" fill="#455A64"/>
<path d="M168.507 126.117C168.407 126.117 168.395 126.541 168.507 127.053C168.619 127.552 168.732 127.95 168.831 127.938C168.931 127.938 168.931 127.514 168.831 127.002C168.732 126.503 168.607 126.105 168.507 126.117Z" fill="#455A64"/>
<path d="M167.895 122.487C167.795 122.487 167.783 122.911 167.895 123.422C168.007 123.921 168.119 124.32 168.219 124.308C168.319 124.308 168.332 123.883 168.219 123.372C168.107 122.873 167.995 122.474 167.895 122.487Z" fill="#455A64"/>
<path d="M167.271 118.857C167.171 118.857 167.171 119.293 167.271 119.792C167.371 120.291 167.508 120.691 167.595 120.678C167.695 120.678 167.695 120.242 167.595 119.743C167.495 119.244 167.358 118.844 167.271 118.857Z" fill="#455A64"/>
<path d="M166.649 115.226C166.549 115.226 166.549 115.664 166.649 116.162C166.749 116.661 166.886 117.061 166.986 117.049C167.085 117.036 167.085 116.624 166.986 116.113C166.886 115.614 166.749 115.214 166.649 115.226Z" fill="#455A64"/>
<path d="M166.024 111.61C165.924 111.61 165.924 112.046 166.024 112.545C166.124 113.044 166.261 113.443 166.361 113.431C166.46 113.418 166.46 113.007 166.361 112.495C166.261 111.996 166.099 111.597 166.024 111.61Z" fill="#455A64"/>
<path d="M165.35 107.993C165.25 107.993 165.25 108.417 165.35 108.928C165.45 109.427 165.587 109.826 165.687 109.801C165.787 109.788 165.787 109.377 165.687 108.865C165.587 108.366 165.437 107.968 165.35 107.993Z" fill="#455A64"/>
<path d="M164.676 104.349C164.576 104.349 164.576 104.786 164.676 105.285C164.776 105.784 164.926 106.171 165.013 106.158C165.113 106.158 165.113 105.734 165.013 105.223C164.913 104.724 164.764 104.337 164.676 104.337V104.349Z" fill="#455A64"/>
<path d="M164.004 100.745C163.904 100.745 163.904 101.182 164.004 101.681C164.103 102.18 164.253 102.579 164.353 102.566C164.453 102.554 164.453 102.13 164.353 101.631C164.253 101.132 164.078 100.733 164.004 100.745Z" fill="#455A64"/>
<path d="M163.192 97.1401C163.092 97.1401 163.117 97.5762 163.229 98.0752C163.342 98.5621 163.516 98.9613 163.616 98.9363C163.716 98.9234 163.691 98.5122 163.566 98.0003C163.442 97.5014 163.279 97.1151 163.18 97.1401H163.192Z" fill="#455A64"/>
<path d="M161.983 93.6345C161.895 93.6595 161.983 94.0716 162.145 94.5576C162.307 95.0316 162.544 95.4058 162.631 95.3809C162.719 95.3559 162.631 94.9448 162.482 94.4578C162.332 93.9718 162.12 93.6096 161.995 93.6475L161.983 93.6345Z" fill="#455A64"/>
<path d="M160.746 91.1277C160.659 91.1776 160.696 91.3892 160.821 91.6137C160.958 91.8383 161.121 91.9879 161.208 91.951C161.283 91.9131 161.258 91.7015 161.133 91.477C161.008 91.2524 160.821 91.0898 160.746 91.1397V91.1277Z" fill="#455A64"/>
<path d="M159.301 143.905C159.227 143.955 159.301 144.167 159.439 144.379C159.576 144.591 159.775 144.716 159.863 144.666C159.938 144.616 159.863 144.404 159.738 144.192C159.613 143.98 159.389 143.843 159.301 143.893V143.905Z" fill="#455A64"/>
<path d="M157.105 140.824C157.031 140.874 157.205 141.248 157.505 141.684C157.804 142.108 158.116 142.421 158.178 142.371C158.241 142.321 158.078 141.934 157.779 141.51C157.48 141.085 157.193 140.774 157.105 140.824Z" fill="#455A64"/>
<path d="M154.947 137.705C154.872 137.755 155.047 138.142 155.334 138.566C155.633 138.99 155.932 139.301 156.007 139.264C156.082 139.226 155.92 138.84 155.621 138.403C155.321 137.967 155.034 137.668 154.947 137.705Z" fill="#455A64"/>
<path d="M152.863 134.574C152.776 134.624 152.938 134.998 153.237 135.435C153.524 135.871 153.824 136.184 153.911 136.134C153.998 136.084 153.824 135.697 153.537 135.261C153.25 134.824 152.951 134.512 152.876 134.562L152.863 134.574Z" fill="#455A64"/>
<path d="M150.806 131.406C150.731 131.444 150.88 131.843 151.167 132.279C151.442 132.716 151.741 133.04 151.841 132.99C151.941 132.953 151.766 132.553 151.479 132.117C151.192 131.68 150.893 131.356 150.806 131.406Z" fill="#455A64"/>
<path d="M148.81 128.237C148.735 128.274 148.885 128.673 149.159 129.122C149.434 129.572 149.72 129.884 149.833 129.834C149.945 129.784 149.77 129.398 149.496 128.961C149.221 128.525 148.91 128.174 148.822 128.237L148.81 128.237Z" fill="#455A64"/>
<path d="M146.864 124.994C146.789 125.031 146.927 125.43 147.188 125.879C147.45 126.328 147.737 126.654 147.825 126.604C147.912 126.554 147.762 126.167 147.5 125.718C147.226 125.28 146.951 124.944 146.864 124.994Z" fill="#455A64"/>
<path d="M144.981 121.751C144.893 121.789 145.031 122.188 145.293 122.637C145.555 123.086 145.829 123.41 145.916 123.373C146.004 123.336 145.854 122.936 145.604 122.487C145.355 122.038 145.068 121.714 144.981 121.751Z" fill="#455A64"/>
<path d="M143.471 118.346C143.371 118.346 143.396 118.782 143.583 119.281C143.77 119.768 144.02 120.129 144.107 120.092C144.194 120.054 144.107 119.655 143.907 119.181C143.708 118.707 143.558 118.333 143.458 118.358L143.471 118.346Z" fill="#455A64"/>
<path d="M143.796 114.765C143.709 114.728 143.434 115.09 143.297 115.589C143.16 116.101 143.222 116.537 143.297 116.537C143.372 116.537 143.497 116.151 143.621 115.664C143.759 115.19 143.871 114.753 143.784 114.753L143.796 114.765Z" fill="#455A64"/>
<path d="M146.091 111.747C146.029 111.697 145.679 111.959 145.318 112.358C144.956 112.758 144.744 113.119 144.819 113.169C144.894 113.219 145.243 112.944 145.592 112.558C145.941 112.159 146.166 111.81 146.091 111.747Z" fill="#455A64"/>
<path d="M148.771 108.99C148.697 108.928 148.335 109.189 147.973 109.576C147.599 109.95 147.362 110.312 147.437 110.375C147.511 110.437 147.873 110.175 148.235 109.763C148.609 109.352 148.846 109.064 148.771 109.002V108.99Z" fill="#455A64"/>
<path d="M151.441 106.246C151.366 106.183 151.005 106.446 150.643 106.832C150.269 107.206 150.032 107.568 150.107 107.63C150.181 107.693 150.531 107.431 150.905 107.019C151.279 106.607 151.516 106.321 151.441 106.258V106.246Z" fill="#455A64"/>
<path d="M154.123 103.489C154.048 103.426 153.686 103.689 153.325 104.1C152.963 104.512 152.713 104.836 152.788 104.898C152.863 104.961 153.225 104.699 153.587 104.312C153.961 103.938 154.198 103.551 154.123 103.489Z" fill="#455A64"/>
<path d="M156.793 100.745C156.73 100.683 156.356 100.944 155.995 101.331C155.62 101.706 155.383 102.067 155.458 102.117C155.52 102.167 155.895 101.917 156.256 101.531C156.631 101.157 156.868 100.795 156.793 100.745Z" fill="#455A64"/>
<path d="M159.463 97.9883C159.388 97.9255 159.026 98.1879 158.664 98.5741C158.29 98.9483 158.053 99.3105 158.128 99.3604C158.203 99.4103 158.565 99.1609 158.926 98.7487C159.301 98.3376 159.538 98.0502 159.463 97.9883Z" fill="#455A64"/>
<path d="M161.471 95.9297C161.396 95.8798 161.184 95.9795 161.01 96.1662C160.823 96.3538 160.735 96.5534 160.81 96.6153C160.885 96.6781 161.097 96.5654 161.272 96.3787C161.459 96.1911 161.546 95.9916 161.471 95.9297Z" fill="#455A64"/>
<path d="M168.206 138.89C168.206 138.716 168.181 138.554 168.144 138.391L167.869 136.956C167.632 135.672 167.296 133.901 166.884 131.68C166.073 127.227 165.038 121.052 163.965 114.217C162.892 107.381 162.007 101.194 161.408 96.7031C161.121 94.4827 160.884 92.6735 160.734 91.3892C160.66 90.7775 160.597 90.3044 160.547 89.9422C160.535 89.7805 160.497 89.6049 160.46 89.4432C160.447 89.6179 160.447 89.7805 160.46 89.9551C160.497 90.3164 160.535 90.8034 160.585 91.4021C160.697 92.6615 160.897 94.4698 161.158 96.7281C161.695 101.231 162.556 107.431 163.616 114.267C164.676 121.102 165.774 127.264 166.647 131.717C167.084 133.95 167.458 135.747 167.745 136.981C167.882 137.593 167.994 138.042 168.082 138.403C168.119 138.566 168.156 138.728 168.219 138.89H168.206Z" fill="#455A64"/>
<path d="M150.693 81.5597C150.568 81.6844 150.456 81.8221 150.356 81.9589L149.433 83.1435C148.634 84.1913 147.512 85.7011 146.177 87.5971C143.483 91.3772 139.965 96.741 135.936 102.566C133.915 105.485 131.907 108.204 130.049 110.662C129.088 111.81 128.402 113.119 128.028 114.516C127.903 115.165 127.89 115.825 127.99 116.474C128.103 117.061 128.277 117.647 128.527 118.196C128.976 119.131 129.512 120.03 130.123 120.878L131.471 122.824L132.306 124.046C132.394 124.196 132.493 124.346 132.605 124.47C132.542 124.309 132.456 124.159 132.368 124.009C132.206 123.71 131.932 123.286 131.582 122.737L130.285 120.766C129.698 119.905 129.2 119.007 128.776 118.071C128.552 117.522 128.389 116.961 128.289 116.387C128.202 115.763 128.227 115.14 128.339 114.516C128.701 113.157 129.375 111.884 130.31 110.774C132.194 108.329 134.214 105.61 136.223 102.691C140.252 96.8529 143.72 91.477 146.377 87.66C147.724 85.751 148.784 84.2172 149.545 83.1564L150.418 81.934C150.53 81.8092 150.618 81.6845 150.705 81.5348L150.693 81.5597Z" fill="#455A64"/>
</g>
</svg>
