<svg width="290" height="152" viewBox="0 0 290 152" fill="none" xmlns="http://www.w3.org/2000/svg">
<mask id="mask0_1302_10701" style="mask-type:alpha" maskUnits="userSpaceOnUse" x="0" y="0" width="290" height="152">
<rect width="289.534" height="151.75" fill="#D9D9D9"/>
</mask>
<g mask="url(#mask0_1302_10701)">
<path d="M175.961 142.508C176.044 142.24 176.088 141.962 176.094 141.681C176.152 141.152 176.193 140.366 176.201 139.407C176.192 136.919 176.043 134.434 175.755 131.964C175.424 129.135 175.126 126.58 174.928 124.521C174.862 123.488 174.729 122.46 174.531 121.444C174.451 122.477 174.468 123.515 174.58 124.545C174.704 126.464 174.994 129.102 175.308 131.988C175.622 134.875 175.829 137.521 175.895 139.432C175.866 140.458 175.888 141.484 175.961 142.508Z" fill="#455A64"/>
<path d="M172.189 130.004C172.749 128.663 173.092 127.242 173.206 125.794C173.476 124.368 173.512 122.907 173.314 121.469C173.173 121.469 173.033 123.379 172.719 125.728C172.404 128.077 172.065 129.937 172.189 130.004Z" fill="#455A64"/>
<path d="M159.132 125.802C159.223 125.802 159.19 125.141 159.917 124.628C160.121 124.495 160.353 124.413 160.595 124.389C160.837 124.365 161.081 124.398 161.307 124.487C161.579 124.596 161.812 124.785 161.975 125.029C162.138 125.273 162.222 125.561 162.218 125.854C162.213 126.147 162.12 126.432 161.95 126.671C161.78 126.91 161.541 127.092 161.266 127.192C161.036 127.275 160.789 127.3 160.547 127.267C160.306 127.234 160.075 127.143 159.876 127.002C159.173 126.464 159.223 125.778 159.132 125.802C159.041 125.827 159.057 125.951 159.09 126.232C159.145 126.638 159.348 127.01 159.661 127.274C159.9 127.476 160.187 127.613 160.494 127.673C160.8 127.732 161.118 127.712 161.414 127.614C161.785 127.492 162.109 127.258 162.341 126.944C162.572 126.629 162.7 126.251 162.707 125.86C162.713 125.47 162.598 125.087 162.376 124.766C162.155 124.444 161.839 124.199 161.472 124.066C161.179 123.958 160.862 123.928 160.553 123.978C160.245 124.029 159.954 124.159 159.711 124.355C159.388 124.607 159.17 124.969 159.099 125.372C159.057 125.67 159.107 125.802 159.132 125.802Z" fill="#455A64"/>
<path d="M155.277 3.0658C153.871 4.33112 150.315 4.56269 148.876 5.82801C147.222 7.29182 145.75 9.80593 144.518 11.6171C143.386 13.3896 142.524 15.3213 141.962 17.3483C137.53 31.8209 140.036 48.0386 133.85 61.8579C133.023 63.7518 132.03 66.1005 133.304 67.7462C133.815 68.3021 134.419 68.764 135.09 69.1108C136.863 70.1987 138.424 71.5998 139.696 73.2458C140.179 74.0473 140.849 74.7198 141.648 75.2058C142.409 75.4872 143.228 75.5725 144.03 75.4539C147.007 75.2224 150.175 74.6269 152.242 72.4436C153.248 71.3457 153.979 70.025 154.376 68.5898C155.004 66.1607 155.283 63.6544 155.203 61.1467C155.203 58.2246 155.184 55.308 155.145 52.3969" fill="#263238"/>
<path d="M195.398 61.0146L175.5 52.4385L155.33 52.9678L143.181 57.9298C143.181 57.9298 137.971 86.1474 139.046 92.383C140.816 102.423 135.44 139.845 133.083 151.572C131.049 161.728 137.003 167.757 139.997 170.519C155.239 184.578 163.153 182.684 174.293 175.382C185.623 167.939 201.154 161.811 201.154 161.811C199.327 149.72 196.407 138.365 191.768 128.159L186.888 110.925L188.997 96.2783L195.398 61.0146Z" fill="#0099FF"/>
<path d="M176.822 21.194L175.54 55.7878C175.489 57.1815 175.155 58.5503 174.559 59.8111C173.963 61.0719 173.117 62.1983 172.072 63.1219C171.027 64.0454 169.805 64.7469 168.48 65.1836C167.156 65.6203 165.756 65.7832 164.367 65.6623C161.769 65.4385 159.362 64.206 157.661 62.2288C155.961 60.2517 155.102 57.6872 155.27 55.0848C155.369 52.4798 155.319 49.395 155.311 49.1304C155.311 49.1304 146.644 47.1869 146.33 38.4454C146.181 34.2194 146.28 27.1236 146.727 19.234C146.965 15.1491 148.731 11.3032 151.674 8.46084C154.618 5.61849 158.523 3.98781 162.614 3.89294H163.441C172.579 4.23202 177.392 12.0969 176.822 21.194Z" fill="#FFBE9D"/>
<path d="M155.28 49.1716C159.318 49.1548 163.26 47.9339 166.602 45.665C166.602 45.665 164.054 52.0247 155.313 51.4541L155.28 49.1716Z" fill="#EB996E"/>
<path d="M148.837 26.305C148.841 26.6305 148.972 26.9414 149.203 27.1716C149.433 27.4017 149.744 27.5329 150.069 27.5372C150.228 27.5461 150.386 27.5233 150.536 27.47C150.685 27.4167 150.822 27.3341 150.94 27.227C151.057 27.1199 151.151 26.9905 151.218 26.8464C151.284 26.7022 151.321 26.5463 151.326 26.3877C151.322 26.0622 151.191 25.7513 150.961 25.5211C150.73 25.2909 150.419 25.1597 150.094 25.1554C149.935 25.1465 149.777 25.1694 149.627 25.2227C149.478 25.2759 149.341 25.3585 149.223 25.4656C149.106 25.5727 149.012 25.7021 148.945 25.8463C148.879 25.9904 148.842 26.1464 148.837 26.305Z" fill="#263238"/>
<path d="M148.654 24.0802C148.811 24.2373 149.746 23.5178 151.085 23.4848C152.425 23.4517 153.434 24.105 153.566 23.9396C153.699 23.7742 153.467 23.5757 153.037 23.2697C152.444 22.8809 151.745 22.6845 151.036 22.7074C150.337 22.7198 149.661 22.9577 149.109 23.3855C148.712 23.675 148.579 23.9727 148.654 24.0802Z" fill="#263238"/>
<path d="M161.573 26.3049C161.577 26.6303 161.708 26.9413 161.938 27.1715C162.169 27.4016 162.48 27.5328 162.805 27.5371C162.964 27.546 163.123 27.5232 163.273 27.47C163.423 27.4169 163.561 27.3344 163.678 27.2274C163.796 27.1204 163.892 26.9911 163.959 26.8469C164.026 26.7027 164.064 26.5465 164.07 26.3876C164.066 26.0621 163.935 25.7511 163.705 25.521C163.474 25.2908 163.164 25.1596 162.838 25.1553C162.679 25.1453 162.519 25.1673 162.369 25.22C162.219 25.2728 162.08 25.3552 161.962 25.4624C161.844 25.5696 161.749 25.6994 161.682 25.8441C161.615 25.9888 161.578 26.1455 161.573 26.3049Z" fill="#263238"/>
<path d="M161.497 24.2374C161.662 24.3945 162.589 23.675 163.928 23.6419C165.268 23.6088 166.277 24.2622 166.409 24.0968C166.542 23.9314 166.318 23.7329 165.88 23.4269C165.289 23.0392 164.593 22.8428 163.887 22.8645C163.186 22.8758 162.507 23.1137 161.952 23.5427C161.555 23.8652 161.423 24.1629 161.497 24.2374Z" fill="#263238"/>
<path d="M157.288 33.4999C156.574 33.2988 155.838 33.1849 155.096 33.1609C154.749 33.1609 154.427 33.0699 154.36 32.8383C154.325 32.4835 154.397 32.1264 154.567 31.8128C154.873 30.9858 155.187 30.1009 155.518 29.1829C156.841 25.4283 157.792 22.3436 157.635 22.2939C157.478 22.2443 156.296 25.2381 154.972 28.9927C154.658 29.919 154.352 30.7956 154.063 31.6392C153.857 32.0603 153.804 32.5398 153.914 32.9954C153.969 33.1142 154.049 33.2195 154.149 33.3038C154.249 33.3881 154.366 33.4494 154.493 33.4834C154.683 33.5267 154.877 33.5489 155.072 33.5495C155.81 33.6254 156.554 33.6087 157.288 33.4999Z" fill="#263238"/>
<path d="M161.92 20.3669C162.069 20.7225 163.4 20.4827 164.988 20.5902C166.576 20.6977 167.866 21.0698 168.056 20.7308C168.139 20.5654 167.899 20.2345 167.37 19.9037C166.648 19.432 165.789 19.2165 164.93 19.2918C164.17 19.2127 163.402 19.3264 162.697 19.6226C162.143 19.8955 161.854 20.1932 161.92 20.3669Z" fill="#263238"/>
<path d="M148.309 19.6805C148.59 19.9865 149.673 19.6805 150.972 19.6309C152.27 19.5812 153.378 19.8045 153.626 19.482C153.742 19.3331 153.56 19.0271 153.081 18.746C152.413 18.3901 151.661 18.2242 150.906 18.2663C150.157 18.2771 149.426 18.4977 148.797 18.9031C148.334 19.2173 148.185 19.5399 148.309 19.6805Z" fill="#263238"/>
<path d="M153.451 5.63794C153.447 5.69576 153.447 5.7538 153.451 5.81162V5.63794Z" fill="#263238"/>
<path d="M157.297 37.8499C157.338 37.6339 157.411 37.4251 157.512 37.2296C157.638 37.0158 157.815 36.8361 158.027 36.7063C158.239 36.5766 158.479 36.5007 158.727 36.4853C159.228 36.466 159.717 36.6408 160.092 36.9733C160.256 37.1148 160.389 37.2898 160.48 37.4867C160.571 37.6835 160.619 37.8976 160.621 38.1145C160.619 38.2297 160.591 38.3429 160.538 38.4453C160.413 38.7428 160.219 39.006 159.971 39.2132C159.724 39.4203 159.431 39.5654 159.116 39.6362C158.804 39.6935 158.483 39.6601 158.189 39.5399C157.896 39.4196 157.644 39.2177 157.462 38.9581C157.359 38.801 157.291 38.6231 157.263 38.4371C157.241 38.2409 157.253 38.0424 157.297 37.8499Z" fill="#EB996E"/>
<path d="M156.352 38.6356C156.352 38.4867 157.518 38.28 158.833 37.6349C160.148 36.9898 161.033 36.1959 161.141 36.3034C160.671 37.1219 159.936 37.7551 159.057 38.098C157.609 38.7845 156.352 38.7679 156.352 38.6356Z" fill="#263238"/>
<path d="M153.932 4.78608C155.586 1.81712 158.894 0.328503 162.574 0.03905C167.089 -0.316564 171.547 1.79231 174.88 4.91014C178.213 8.02796 180.545 12.0968 182.513 16.2484C183.812 18.9693 184.498 25.5854 187.765 28.3559C187.765 28.3559 190.064 30.0099 190.924 34.2276C191.773 37.4941 192.108 40.8731 191.916 44.2427C191.776 46.1035 191.47 48.0056 191.916 49.8085C192.412 51.1785 192.995 52.5154 193.661 53.8112C194.366 55.9256 194.278 58.2243 193.413 60.2784L175.624 53.0917L176.129 39.6032C176.129 39.6032 176.716 31.4406 173.416 30.9113C169.322 30.258 172.159 25.6763 171.762 22.5751C171.498 19.4561 170.501 16.4438 168.851 13.7839C167.098 11.2285 164.211 9.3181 161.143 9.40907C159.572 9.45869 158.034 10.0128 156.462 9.88873H156.181C155.645 9.78163 155.142 9.54699 154.716 9.20465C154.289 8.86231 153.951 8.42232 153.731 7.92187C153.51 7.42142 153.413 6.87522 153.448 6.32942C153.483 5.78362 153.649 5.25426 153.932 4.78608Z" fill="#263238"/>
<path d="M191.634 43.5646C191.696 43.3511 191.738 43.1324 191.759 42.9113C191.816 42.4812 191.899 41.8527 191.965 41.0257C192.055 40.0248 192.074 39.0189 192.023 38.0154C191.983 36.6752 191.703 35.353 191.196 34.1119C190.874 33.3944 190.448 32.7284 189.931 32.1353C189.36 31.5149 188.722 30.9601 188.029 30.4813C186.631 29.4475 184.985 28.5544 183.728 27.1154C182.466 25.5411 181.49 23.7582 180.842 21.8473C180.122 19.8625 179.188 17.8529 178.361 15.7688C177.559 13.7254 176.62 11.7388 175.549 9.8226C174.542 8.00548 173.207 6.39043 171.613 5.05902C170.164 3.84995 168.41 3.06311 166.543 2.78474C164.93 2.57484 163.292 2.65042 161.705 3.00803C159.387 3.45742 157.245 4.55586 155.527 6.17548C154.895 6.75737 154.374 7.44956 153.989 8.2182C154.477 7.52649 155.031 6.8839 155.643 6.29954C157.369 4.7568 159.486 3.71829 161.763 3.29749C163.318 2.96922 164.919 2.91325 166.493 3.13209C168.289 3.41654 169.973 4.18573 171.364 5.35675C172.9 6.66879 174.183 8.24933 175.152 10.0211C176.208 11.9257 177.136 13.8983 177.931 15.9259C178.758 18.0017 179.676 19.9865 180.412 21.9796C181.078 23.9339 182.086 25.7541 183.389 27.3552C184.712 28.8604 186.399 29.7535 187.781 30.7542C188.458 31.2183 189.083 31.7564 189.641 32.3586C190.144 32.9255 190.559 33.5637 190.874 34.2525C191.399 35.4512 191.707 36.7337 191.783 38.0402C191.845 39.0344 191.845 40.0315 191.783 41.0257C191.742 41.8527 191.684 42.4812 191.651 42.9113C191.633 43.1285 191.627 43.3467 191.634 43.5646Z" fill="#455A64"/>
<path d="M136.927 60.8159C137.709 60.5871 138.447 60.2293 139.11 59.7573C140.926 58.4697 142.356 56.7112 143.245 54.6712C144.486 51.6249 145.093 48.3581 145.032 45.0696C145.131 41.3729 144.85 37.3288 144.585 33.1028C144.256 29.1381 144.231 25.154 144.511 21.1856C144.654 19.4604 144.93 17.7488 145.338 16.0664C145.637 14.5912 146.129 13.1619 146.802 11.8156C147.38 10.7223 148.163 9.75071 149.109 8.9541C149.936 8.2346 150.722 7.68878 151.342 7.22565C151.962 6.76253 152.442 6.39864 152.756 6.11746C152.921 5.99246 153.074 5.85116 153.211 5.69568C153.032 5.79863 152.863 5.91766 152.706 6.05129C152.376 6.2994 151.879 6.64674 151.243 7.08505C150.606 7.52337 149.812 8.06093 148.96 8.73907C147.967 9.54602 147.145 10.5444 146.545 11.675C145.836 13.0312 145.316 14.4781 144.999 15.9754C144.592 17.6748 144.316 19.4028 144.172 21.1442C143.858 25.1325 143.858 29.1393 144.172 33.1276C144.436 37.3619 144.734 41.3977 144.651 45.0613C144.735 48.3017 144.173 51.5262 142.997 54.5471C142.139 56.5729 140.754 58.3319 138.986 59.6415C138.333 60.0886 137.645 60.4814 136.927 60.8159Z" fill="#455A64"/>
<path d="M190.633 41.9107C190.633 41.9107 190.633 41.8693 190.683 41.7701C190.72 41.6316 190.748 41.4906 190.766 41.3483C190.836 40.7992 190.836 40.2434 190.766 39.6943C190.64 38.8216 190.421 37.9649 190.112 37.1388C189.725 36.0448 189.258 34.9806 188.715 33.9549C188.382 33.3559 187.976 32.8003 187.507 32.3008C186.983 31.7758 186.394 31.32 185.754 30.9445C184.331 30.218 182.98 29.3597 181.718 28.3808C180.39 27.2339 179.312 25.8265 178.551 24.2458C177.767 22.5213 177.147 20.7271 176.698 18.8867C176.246 17.0266 175.666 15.2 174.961 13.4202C174.299 11.7353 173.29 10.2083 172.001 8.93781C170.801 7.80797 169.323 7.01736 167.717 6.64699C166.323 6.333 164.876 6.333 163.482 6.64699C162.355 6.90352 161.249 7.24637 160.174 7.67249C159.223 8.0281 158.405 8.36717 157.751 8.65662C157.098 8.94608 156.585 9.18591 156.246 9.35958C156.069 9.43569 155.9 9.52992 155.742 9.64077C155.929 9.58807 156.112 9.51888 156.288 9.43401L157.817 8.81376C158.479 8.54911 159.298 8.23485 160.257 7.89578C161.335 7.4985 162.441 7.18063 163.565 6.94471C164.919 6.6688 166.316 6.69422 167.659 7.01915C169.195 7.39262 170.607 8.16254 171.753 9.25207C172.972 10.4832 173.923 11.9529 174.548 13.5691C175.238 15.3376 175.81 17.15 176.26 18.9942C176.714 20.8598 177.348 22.6767 178.154 24.4194C178.948 26.0491 180.075 27.4943 181.462 28.662C182.753 29.6514 184.138 30.5128 185.597 31.234C186.219 31.5832 186.792 32.0144 187.3 32.5158C187.76 32.9902 188.157 33.521 188.483 34.0954C189.482 35.8437 190.207 37.7347 190.633 39.7026C190.729 40.4355 190.729 41.1777 190.633 41.9107Z" fill="#455A64"/>
<path d="M173.721 29.9768C173.862 29.9024 179.585 27.901 179.709 33.839C179.833 39.7769 173.837 38.677 173.829 38.5033C173.821 38.3296 173.721 29.9768 173.721 29.9768Z" fill="#FFBE9D"/>
<path d="M175.623 36.2208C175.623 36.2208 175.722 36.2869 175.904 36.3614C176.151 36.462 176.427 36.462 176.674 36.3614C177.053 36.1121 177.359 35.766 177.559 35.3589C177.76 34.9517 177.848 34.4984 177.815 34.0458C177.816 33.5347 177.706 33.0295 177.492 32.5654C177.429 32.3776 177.321 32.2083 177.177 32.0727C177.032 31.937 176.857 31.8392 176.665 31.788C176.546 31.7599 176.42 31.7742 176.31 31.8285C176.2 31.8829 176.112 31.9738 176.062 32.0857C175.987 32.2511 176.062 32.3752 175.995 32.3835C175.929 32.3917 175.863 32.2842 175.904 32.0361C175.937 31.8894 176.019 31.7581 176.136 31.664C176.214 31.6006 176.304 31.5533 176.401 31.5249C176.497 31.4965 176.598 31.4876 176.698 31.4986C176.944 31.5414 177.174 31.6469 177.367 31.8049C177.559 31.9628 177.708 32.1678 177.798 32.4C178.063 32.9108 178.2 33.4786 178.195 34.054C178.195 35.2532 177.591 36.3862 176.74 36.6508C176.581 36.7009 176.413 36.7143 176.248 36.69C176.083 36.6656 175.926 36.6041 175.789 36.5102C175.631 36.3614 175.598 36.2291 175.623 36.2208Z" fill="#EB996E"/>
<path d="M112.861 108.634C112.861 108.634 98.4548 102.969 96.2715 101.364C96.2715 101.364 86.1406 99.7104 82.3364 98.4698C82.3364 98.4698 81.6417 99.4044 83.8498 101.034C86.0579 102.663 92.674 104.879 92.674 104.879C92.674 104.879 90.929 107.674 91.3922 109.312C91.8553 110.949 94.8904 114.2 95.5851 113.273C96.2798 112.347 96.1723 111.876 96.1723 111.876L98.9345 113.472C100.025 114.104 101.263 114.437 102.524 114.439H105.493L111.505 117.441L112.861 108.634Z" fill="#FFBE9D"/>
<path d="M104.045 112.454C104.045 112.454 103.722 112.595 103.135 112.736C102.315 112.915 101.465 112.898 100.654 112.686C100.082 112.539 99.5274 112.331 98.9998 112.066C98.4127 111.793 97.9082 111.371 97.2218 110.999C96.8548 110.811 96.4404 110.736 96.0309 110.784C95.6174 110.834 95.2452 110.958 94.8731 111.024C94.5258 111.116 94.1571 111.084 93.831 110.933C93.5035 110.745 93.2476 110.454 93.1032 110.106C92.9008 109.597 92.7889 109.057 92.7724 108.51L92.5657 108.741C95.5347 108.634 98.1397 108.377 100.009 108.179C100.943 108.071 101.663 107.98 102.2 107.906C102.481 107.894 102.76 107.843 103.027 107.757C102.753 107.722 102.475 107.722 102.2 107.757L99.9922 107.898C98.1232 108.022 95.5181 108.22 92.5492 108.319H92.3259V108.543C92.3374 109.142 92.4609 109.734 92.6897 110.288C92.8766 110.716 93.1992 111.07 93.6077 111.297C94.0189 111.488 94.4831 111.531 94.9227 111.421C95.7497 111.239 96.4196 110.999 97.0233 111.338C97.627 111.677 98.2142 112.107 98.8179 112.363C99.3699 112.635 99.9532 112.838 100.555 112.967C101.426 113.171 102.336 113.143 103.193 112.884C103.424 112.812 103.647 112.712 103.854 112.587C103.987 112.515 104.05 112.471 104.045 112.454Z" fill="#EB996E"/>
<path d="M94.0638 108.353C94.1878 108.353 94.4442 107.782 94.8494 107.104C95.2547 106.426 95.6764 105.905 95.5689 105.814C95.4614 105.723 94.9156 106.144 94.4773 106.88C94.039 107.617 93.9563 108.328 94.0638 108.353Z" fill="#EB996E"/>
<path d="M95.6183 110.916C95.5686 111.032 95.7671 111.222 95.9242 111.479C96.0814 111.735 96.1806 111.991 96.3047 111.991C96.4287 111.991 96.528 111.627 96.3047 111.247C96.0814 110.867 95.6513 110.776 95.6183 110.916Z" fill="#EB996E"/>
<path d="M144.693 57.3508C144.693 57.3508 138.119 59.1703 134.968 63.9669C133.314 66.4479 124.845 106.144 124.845 106.144H108.9L107.048 118.442L124.101 122.709C127.859 123.666 131.827 123.376 135.406 121.882C136.721 121.328 137.771 120.683 138.019 119.997C138.772 117.871 144.693 57.3508 144.693 57.3508Z" fill="#0099FF"/>
<g opacity="0.3">
<path d="M194.953 135.726C193.217 136.802 191.05 136.843 189.007 136.777C185.195 136.669 181.159 136.239 178.124 133.924C177.353 133.249 176.544 132.619 175.701 132.038C173.559 130.789 170.449 130.831 169.25 128.664C168.563 127.415 168.762 125.753 167.844 124.669C166.926 123.586 164.966 123.553 163.378 123.66C158.096 124.007 152.797 123.33 147.772 121.667C154.579 120.799 161.468 121.279 168.307 121.758C168.572 121.761 168.834 121.805 169.084 121.891C169.344 122.015 169.584 122.176 169.796 122.37C171.631 123.858 173.733 124.981 175.99 125.678C176.921 125.872 177.802 126.255 178.578 126.803C178.938 127.147 179.265 127.523 179.554 127.928C181.39 130.219 184.07 131.666 186.815 132.716C189.561 133.766 192.423 134.478 195.127 135.627" fill="black"/>
</g>
<path d="M195.182 60.9236C195.901 61.2792 198.052 61.5604 199.772 65.7037C201.327 69.4583 209.878 121.113 209.158 124.363C208.439 127.614 205.379 133.361 199.433 134.982C194.859 136.231 184.141 132.17 179.452 130.235C178.195 129.714 177.054 128.044 177.55 126.77L183.405 113.538L190.121 114.266L186.234 92.9454L195.182 60.9236Z" fill="#0099FF"/>
<path d="M184.538 79.1922C184.613 79.1922 184.604 78.0261 184.836 76.1653C185.117 73.7495 185.841 71.4059 186.97 69.2515C188.124 67.1132 189.799 65.3012 191.841 63.9835C192.715 63.4788 193.618 63.0259 194.545 62.6272C194.262 62.6413 193.983 62.6999 193.718 62.8009C193 63.0319 192.31 63.3397 191.659 63.7188C189.511 65.0016 187.75 66.842 186.564 69.0448C185.409 71.2449 184.708 73.6554 184.505 76.1323C184.435 76.8771 184.412 77.6257 184.439 78.3735C184.435 78.6496 184.469 78.9249 184.538 79.1922Z" fill="#263238"/>
<path d="M183.405 113.554C184.017 113.717 184.643 113.825 185.274 113.877C186.457 114.042 188.135 114.249 190.104 114.481H190.162H190.22C191.436 113.914 192.775 113.658 194.115 113.736C196.66 113.821 199.117 114.688 201.153 116.217C201.753 116.693 202.285 117.25 202.732 117.871C202.859 118.128 203.014 118.37 203.195 118.591C203.132 118.3 203.023 118.021 202.873 117.764C202.474 117.079 201.956 116.471 201.343 115.969C199.293 114.324 196.759 113.397 194.131 113.331C192.705 113.245 191.28 113.53 189.996 114.158H190.112C188.135 113.96 186.457 113.811 185.266 113.712C184.651 113.609 184.028 113.557 183.405 113.554Z" fill="#263238"/>
<path d="M185.671 88.3472C185.657 88.6907 185.682 89.0347 185.746 89.3727C185.845 90.117 185.977 91.0267 186.126 92.1597C186.457 94.5084 186.953 97.7503 187.524 101.323C188.094 104.896 188.624 108.129 189.062 110.47C189.24 111.401 189.517 112.31 189.889 113.182C190.145 113.844 190.592 114.009 190.592 113.943C190.321 113.737 190.129 113.446 190.046 113.116C189.753 112.234 189.535 111.33 189.393 110.412C189.02 107.931 188.524 104.78 187.978 101.249C187.433 97.7172 186.87 94.4422 186.457 92.1018L185.944 89.3396C185.89 88.9998 185.798 88.667 185.671 88.3472Z" fill="#263238"/>
<path d="M177.534 127.308C177.475 127.372 177.435 127.453 177.418 127.539C177.36 127.781 177.36 128.033 177.418 128.275C177.502 128.667 177.684 129.032 177.948 129.334C178.304 129.713 178.735 130.014 179.213 130.219C181.305 131.046 184.175 132.046 187.409 133.188C190.642 134.329 193.512 135.478 195.811 135.528C196.701 135.569 197.592 135.503 198.466 135.33C198.789 135.286 199.104 135.194 199.4 135.057C198.218 135.228 197.021 135.283 195.828 135.222C193.62 135.106 190.766 133.866 187.558 132.741L179.345 129.913C178.892 129.738 178.479 129.473 178.13 129.135C177.881 128.873 177.696 128.556 177.592 128.209C177.51 127.916 177.491 127.609 177.534 127.308Z" fill="#263238"/>
<path d="M138.267 99.3382C138.252 98.9431 138.202 98.5501 138.118 98.1638C138.052 97.7834 137.978 97.3368 137.92 96.7827C137.862 96.2286 137.763 95.6332 137.721 94.955C137.587 93.3654 137.546 91.7693 137.597 90.1749C137.685 88.2335 137.897 86.2998 138.234 84.3858C138.608 82.4685 139.111 80.5787 139.739 78.7291C140.259 77.2206 140.873 75.7457 141.575 74.3129C141.856 73.6926 142.162 73.1633 142.402 72.6588C142.642 72.1544 142.882 71.7657 143.08 71.4431C143.297 71.1098 143.486 70.7584 143.643 70.3928C143.378 70.689 143.142 71.0103 142.94 71.3522C142.716 71.6664 142.46 72.0634 142.187 72.5348C141.914 73.0062 141.583 73.5355 141.286 74.1888C140.536 75.614 139.887 77.0897 139.342 78.605C138.692 80.468 138.175 82.375 137.796 84.3114C137.449 86.2567 137.244 88.2247 137.184 90.1997C137.148 91.8101 137.223 93.421 137.407 95.0212C137.457 95.6993 137.581 96.3113 137.663 96.8489C137.746 97.3864 137.845 97.8495 137.936 98.2217C138.007 98.6044 138.118 98.9786 138.267 99.3382Z" fill="#263238"/>
<path d="M133.106 152.44C133.16 152.308 133.196 152.169 133.214 152.027C133.272 151.704 133.338 151.316 133.429 150.836C133.611 149.744 133.851 148.264 134.14 146.461C134.727 142.764 135.496 137.645 136.332 131.997C137.167 126.348 137.895 121.246 138.374 117.508L138.937 113.108C138.986 112.628 139.028 112.231 139.069 111.909C139.089 111.769 139.089 111.627 139.069 111.487C139.016 111.617 138.98 111.753 138.961 111.892C138.904 112.215 138.837 112.612 138.755 113.083C138.581 114.183 138.341 115.663 138.06 117.466C137.498 121.229 136.729 126.315 135.885 131.939C135.041 137.563 134.33 142.69 133.826 146.42C133.586 148.231 133.387 149.728 133.247 150.82C133.189 151.299 133.148 151.696 133.106 152.019C133.086 152.159 133.086 152.301 133.106 152.44Z" fill="#263238"/>
<path d="M175.765 53.1744L175.682 52.3474C175.682 52.3474 173.201 60.2288 164.55 59.6747C164.55 59.6747 156.719 59.1951 154.792 54.4232L149.83 55.2502L152.724 65.7284L162.541 70.9386L173.606 69.9048L178.287 63.2143L178.089 55.7712L175.765 53.1744Z" fill="#0099FF"/>
<path d="M163.747 60.0551C163.738 60.1568 163.738 60.2593 163.747 60.361C163.747 60.5926 163.747 60.8903 163.747 61.279C163.747 62.106 163.631 63.2639 163.532 64.7855C163.317 67.8372 162.961 72.2286 162.49 77.6952C161.556 88.5786 160.174 103.622 158.62 120.228C157.851 128.498 157.123 136.446 156.453 143.641C155.783 150.836 154.939 157.295 154.799 162.778C154.691 165.515 154.799 167.996 154.939 170.163C155.08 172.33 155.196 174.191 155.295 175.721C155.394 177.251 155.469 178.408 155.518 179.235C155.518 179.616 155.56 179.922 155.576 180.145C155.562 180.249 155.562 180.355 155.576 180.459C155.576 180.459 155.576 180.352 155.576 180.145C155.576 179.938 155.576 179.616 155.576 179.227C155.576 178.4 155.51 177.242 155.427 175.712C155.345 174.182 155.254 172.313 155.146 170.155C155.039 167.996 154.948 165.515 155.072 162.786C155.279 157.336 156.271 150.886 156.842 143.682C157.412 136.479 158.264 128.573 159.041 120.27C160.588 103.663 161.928 88.6117 162.788 77.72C163.218 72.27 163.532 67.8538 163.689 64.8021C163.764 63.2721 163.83 62.0895 163.822 61.279V60.361C163.81 60.2562 163.785 60.1534 163.747 60.0551Z" fill="#263238"/>
<path d="M152.417 54.6794C152.437 55.3837 152.618 56.0739 152.946 56.6973C153.668 58.2393 154.759 59.5799 156.122 60.6008C157.477 61.6047 158.977 62.3967 160.571 62.9495C161.212 63.2172 161.884 63.4007 162.572 63.4954C161.965 63.1678 161.332 62.8912 160.678 62.6684C159.152 62.0501 157.71 61.2415 156.386 60.2618C155.076 59.2728 153.995 58.0116 153.219 56.565C152.64 55.4486 152.491 54.6794 152.417 54.6794Z" fill="#263238"/>
<path d="M164.625 63.4955C165.414 63.5648 166.21 63.5286 166.99 63.388C168.894 63.18 170.752 62.6632 172.49 61.858C174.242 61.0351 175.75 59.7695 176.865 58.1861C177.201 57.7082 177.478 57.1918 177.692 56.6479C177.788 56.457 177.847 56.2492 177.865 56.0359C177.791 56.0359 177.493 56.8629 176.625 58.0124C175.476 59.4869 173.998 60.671 172.308 61.4693C170.607 62.2672 168.803 62.8239 166.949 63.1234C166.168 63.2061 165.392 63.3303 164.625 63.4955Z" fill="#263238"/>
<path d="M162.143 60.3363C162.192 60.3363 161.919 60.0303 161.465 60.2536C161.336 60.3308 161.236 60.4474 161.18 60.586C161.123 60.7246 161.113 60.8777 161.15 61.0227C161.192 61.2028 161.298 61.3615 161.448 61.4693C161.603 61.5637 161.78 61.615 161.961 61.6181C162.137 61.6324 162.313 61.6011 162.474 61.5271C162.642 61.4476 162.773 61.3051 162.837 61.1302C162.901 60.9861 162.912 60.8243 162.868 60.673C162.824 60.5218 162.728 60.3909 162.598 60.3032C162.151 60.0468 161.87 60.3032 161.919 60.3611C161.969 60.419 162.192 60.3611 162.407 60.543C162.459 60.597 162.493 60.6661 162.503 60.7404C162.514 60.8146 162.501 60.8903 162.465 60.9565C162.399 61.1136 162.25 61.1715 161.977 61.1633C161.894 61.1737 161.809 61.1579 161.735 61.118C161.661 61.0781 161.601 61.0161 161.564 60.9406C161.526 60.8652 161.514 60.7799 161.527 60.6968C161.54 60.6137 161.579 60.5368 161.638 60.4768C161.886 60.3032 162.143 60.3859 162.143 60.3363Z" fill="#263238"/>
<path d="M160.754 71.6333C160.804 71.6333 160.539 71.3273 160.076 71.5506C159.949 71.629 159.851 71.7461 159.796 71.8846C159.741 72.0231 159.732 72.1756 159.77 72.3197C159.808 72.4991 159.911 72.6582 160.059 72.7663C160.216 72.8621 160.396 72.9135 160.58 72.9151C160.756 72.928 160.933 72.8967 161.093 72.8242C161.176 72.7847 161.25 72.7292 161.311 72.6611C161.372 72.593 161.419 72.5135 161.449 72.4272C161.512 72.2831 161.523 72.1213 161.479 71.97C161.435 71.8188 161.34 71.6879 161.209 71.6002C160.762 71.3438 160.481 71.6002 160.539 71.6581C160.597 71.716 160.812 71.6581 161.027 71.84C161.075 71.8963 161.106 71.9651 161.116 72.0383C161.126 72.1116 161.116 72.1862 161.085 72.2535C161.01 72.4106 160.862 72.4685 160.597 72.4603C160.513 72.4729 160.427 72.4586 160.351 72.4195C160.275 72.3804 160.214 72.3184 160.175 72.2424C160.137 72.1665 160.124 72.0803 160.137 71.9962C160.15 71.9121 160.19 71.8343 160.25 71.7738C160.489 71.6002 160.729 71.6911 160.754 71.6333Z" fill="#263238"/>
<path d="M155.692 125.62C155.741 125.62 155.468 125.306 155.013 125.538C154.887 125.617 154.789 125.734 154.732 125.872C154.676 126.01 154.664 126.162 154.699 126.307C154.746 126.485 154.851 126.642 154.997 126.753C155.152 126.848 155.329 126.899 155.51 126.902C155.688 126.916 155.867 126.885 156.031 126.811C156.196 126.729 156.323 126.587 156.386 126.414C156.45 126.27 156.461 126.108 156.417 125.957C156.373 125.806 156.277 125.675 156.146 125.587C155.7 125.331 155.419 125.587 155.468 125.645C155.518 125.703 155.741 125.645 155.965 125.827C156.014 125.883 156.045 125.952 156.054 126.026C156.063 126.1 156.049 126.175 156.014 126.241C155.948 126.398 155.799 126.456 155.526 126.447C155.443 126.458 155.358 126.442 155.284 126.402C155.21 126.362 155.15 126.3 155.113 126.225C155.075 126.149 155.062 126.064 155.076 125.981C155.089 125.898 155.128 125.821 155.187 125.761C155.419 125.587 155.667 125.67 155.692 125.62Z" fill="#263238"/>
<path d="M154.699 138.712C154.749 138.712 154.484 138.398 154.021 138.629C153.894 138.708 153.796 138.825 153.741 138.963C153.686 139.102 153.677 139.254 153.715 139.398C153.753 139.578 153.857 139.737 154.005 139.845C154.162 139.941 154.342 139.992 154.526 139.994C154.702 140.007 154.878 139.975 155.038 139.903C155.121 139.863 155.195 139.808 155.256 139.74C155.317 139.672 155.364 139.592 155.394 139.506C155.458 139.362 155.469 139.2 155.425 139.049C155.381 138.898 155.285 138.767 155.154 138.679C154.708 138.423 154.427 138.679 154.476 138.737C154.526 138.795 154.757 138.737 154.972 138.919C155.021 138.975 155.053 139.043 155.063 139.117C155.073 139.19 155.062 139.265 155.03 139.332C154.956 139.489 154.807 139.547 154.542 139.539C154.458 139.552 154.372 139.537 154.296 139.498C154.221 139.459 154.159 139.397 154.121 139.321C154.082 139.245 154.069 139.159 154.082 139.075C154.095 138.991 154.135 138.913 154.195 138.853C154.402 138.679 154.65 138.762 154.699 138.712Z" fill="#263238"/>
<path d="M153.658 151.804C153.708 151.804 153.443 151.489 152.989 151.721C152.859 151.797 152.759 151.914 152.702 152.052C152.645 152.191 152.635 152.345 152.674 152.49C152.716 152.67 152.822 152.829 152.972 152.937C153.126 153.032 153.303 153.084 153.485 153.085C153.661 153.099 153.837 153.068 153.997 152.994C154.08 152.955 154.154 152.9 154.215 152.831C154.276 152.763 154.323 152.684 154.353 152.597C154.418 152.454 154.43 152.293 154.387 152.142C154.345 151.991 154.251 151.859 154.122 151.77C153.667 151.514 153.386 151.77 153.443 151.828C153.501 151.886 153.716 151.828 153.931 152.01C153.983 152.064 154.017 152.133 154.027 152.208C154.038 152.282 154.024 152.358 153.989 152.424C153.915 152.581 153.766 152.639 153.501 152.631C153.417 152.643 153.331 152.629 153.255 152.59C153.18 152.551 153.118 152.489 153.08 152.413C153.041 152.337 153.028 152.251 153.041 152.166C153.054 152.082 153.094 152.005 153.154 151.944C153.386 151.77 153.634 151.853 153.658 151.804Z" fill="#263238"/>
<path d="M131.543 114.282C131.582 113.725 131.524 113.165 131.369 112.628C131.083 111.276 130.52 109.998 129.715 108.874C128.915 107.732 127.796 106.852 126.498 106.343C125.984 106.097 125.411 106 124.844 106.062C124.844 106.128 125.481 106.202 126.399 106.624C127.589 107.183 128.617 108.037 129.384 109.105C130.131 110.199 130.69 111.409 131.038 112.686C131.163 113.231 131.332 113.765 131.543 114.282Z" fill="#263238"/>
<path d="M154.701 49.4693C154.866 52.9924 154.949 56.8132 152.914 59.6994C152.368 60.4768 151.682 61.1467 151.186 61.9572C149.623 64.5126 150.226 67.8124 151.186 70.6408C150.441 71.1204 149.441 70.5333 148.936 69.8138C148.551 69.0126 148.04 68.2782 147.423 67.6387C147.489 68.9076 147.746 70.1593 148.184 71.352C146.315 71.567 144.603 70.2025 143.577 68.6311C142.18 66.4884 141.616 63.9087 141.989 61.3783C142.188 60.0716 142.635 58.8063 142.949 57.5161C143.776 53.96 143.627 50.2467 143.437 46.5996L148.597 47.4266" fill="#263238"/>
<g opacity="0.3">
<path d="M185.563 87.9255C185.762 88.8022 185.869 89.7615 186.06 90.6464C187.052 95.2198 187.399 99.7931 188.334 104.507C186.368 102.278 185.067 99.5435 184.577 96.6126C184.087 93.6816 184.429 90.6721 185.563 87.9255Z" fill="black"/>
</g>
<g opacity="0.3">
<path d="M125.249 105.871C127.349 105.436 129.536 105.805 131.377 106.905C132.283 107.461 133.041 108.227 133.588 109.138C134.135 110.05 134.455 111.079 134.52 112.14C134.52 112.62 134.354 113.257 133.866 113.265C133.604 113.23 133.367 113.093 133.205 112.884C132.286 111.937 131.455 110.907 130.724 109.808C129.971 108.692 129.243 107.434 128.011 106.889C127.052 106.467 125.852 106.517 125.108 105.78" fill="black"/>
</g>
<g opacity="0.3">
<path d="M191.633 113.678C192.647 113.041 193.792 112.642 194.983 112.513C196.174 112.384 197.378 112.528 198.505 112.934C199.423 113.261 200.294 113.708 201.094 114.265C201.73 114.652 202.319 115.113 202.847 115.638C202.97 115.751 203.049 115.903 203.07 116.068C203.064 116.133 203.045 116.196 203.014 116.254C202.983 116.311 202.941 116.362 202.89 116.403C202.839 116.444 202.781 116.474 202.718 116.492C202.655 116.51 202.589 116.515 202.524 116.507C202.262 116.47 202.014 116.364 201.805 116.201C198.761 114.32 195.2 113.452 191.633 113.72" fill="black"/>
</g>
<path d="M177.549 80.9537C177.549 81.5657 173.414 117.425 173.414 117.425L141.987 118.467V80.9537H177.549Z" fill="#E30613"/>
<path d="M170.106 76.9427C170.106 77.7036 174.473 122.106 174.473 122.106L140.35 121.279L134.611 76.9344L170.106 76.9427Z" fill="#E30613"/>
<path d="M170.109 76.9427H169.488H167.611L160.449 76.8931L134.613 76.8021H134.415V77.0006C136.028 89.5794 137.979 104.722 140.072 121.006C140.072 121.122 140.072 121.246 140.113 121.361V121.543H140.303L174.417 122.37H174.641V122.155C173.309 108.75 172.16 97.4526 171.39 89.4802C170.994 85.5353 170.671 82.4092 170.448 80.259C170.34 79.2087 170.249 78.3983 170.191 77.8276C170.191 77.563 170.133 77.3645 170.117 77.2074C170.1 77.0502 170.117 77.0006 170.117 77.0089C170.117 77.0171 170.117 77.0833 170.117 77.2322C170.117 77.381 170.117 77.6043 170.167 77.869C170.216 78.4479 170.282 79.2749 170.373 80.35C170.572 82.5085 170.861 85.6511 171.2 89.6208C171.945 97.5683 173.003 108.84 174.252 122.197L174.45 121.99L140.336 121.163L140.543 121.353L140.493 120.998C138.376 104.714 136.408 89.5712 134.771 77.0089L134.589 77.2074L160.309 77.1164L167.52 77.0668H169.422L170.109 76.9427Z" fill="#263238"/>
<path d="M184.316 117.35C184.316 117.35 181.603 111.355 181.008 111.016C180.413 110.676 170.72 109.568 168.785 109.543C166.692 109.543 163.459 109.601 162.921 110.627C162.533 111.379 162.921 112.488 164.476 112.711C164.476 112.711 162.309 112.603 162.549 113.96C162.789 115.316 167.652 117.805 167.652 117.805C167.652 117.805 166.742 118.823 168.553 120.749L169.38 121.767C169.38 121.767 169.041 123.578 170.058 124.372C171.076 125.166 177.551 127.423 177.551 127.423L180.032 126.596L181.62 127.423C181.62 127.423 186.764 122.403 184.316 117.35Z" fill="#FFBE9D"/>
<path d="M163.746 112.446C164.442 112.772 165.167 113.029 165.912 113.215C167.277 113.629 169.171 114.133 171.288 114.605C173.405 115.076 175.34 115.432 176.746 115.614C177.5 115.764 178.268 115.836 179.037 115.829C178.307 115.589 177.557 115.415 176.796 115.308C175.407 115.035 173.488 114.654 171.379 114.183C169.27 113.711 167.368 113.257 165.995 112.918C165.26 112.697 164.507 112.54 163.746 112.446Z" fill="#EB996E"/>
<path d="M167.875 117.987C169.3 118.73 170.832 119.249 172.415 119.525C173.974 119.933 175.587 120.095 177.195 120.005C177.195 119.881 175.078 119.666 172.506 119.104C169.934 118.541 167.933 117.863 167.875 117.987Z" fill="#EB996E"/>
<path d="M169.478 121.717C171.266 123.149 173.516 123.879 175.805 123.768C175.805 123.636 174.324 123.479 172.588 122.941C170.851 122.403 169.544 121.61 169.478 121.717Z" fill="#EB996E"/>
<path d="M179.189 124.049C179.189 124.091 179.693 124.115 180.33 123.66C180.686 123.392 180.971 123.04 181.157 122.635C181.388 122.134 181.468 121.577 181.389 121.031C181.362 120.803 181.402 120.574 181.505 120.369C181.636 120.176 181.789 119.999 181.959 119.84C182.268 119.499 182.464 119.072 182.522 118.616C182.613 117.838 182.315 117.408 182.282 117.441C182.298 117.815 182.279 118.188 182.224 118.558C182.134 118.938 181.943 119.287 181.67 119.567C181.472 119.742 181.294 119.939 181.141 120.154C180.989 120.426 180.926 120.738 180.959 121.047C181.032 121.482 180.995 121.928 180.85 122.344C180.706 122.76 180.459 123.133 180.132 123.429C179.627 123.884 179.172 123.975 179.189 124.049Z" fill="#EB996E"/>
<path d="M177.548 126.77C177.548 126.886 178.268 126.869 178.781 126.232C179.293 125.596 179.169 124.884 179.054 124.909C178.938 124.934 178.863 125.463 178.45 125.96C178.036 126.456 177.532 126.629 177.548 126.77Z" fill="#EB996E"/>
</g>
</svg>
