<svg width="290" height="152" viewBox="0 0 290 152" fill="none" xmlns="http://www.w3.org/2000/svg">
<mask id="mask0_1302_5621" style="mask-type:alpha" maskUnits="userSpaceOnUse" x="0" y="0" width="290" height="152">
<rect width="289.534" height="151.75" fill="#D9D9D9"/>
</mask>
<g mask="url(#mask0_1302_5621)">
<path d="M74.7324 -5L74.7481 -0.236375L76.5207 0.537516L74.1938 0.542742L73.7598 3.53373L115.885 8.07774L120.078 1.47351L74.7324 -5Z" fill="#F5F5F5"/>
<path d="M68.2227 5.10241L68.7717 2.32581L73.985 2.9376L98.3679 5.79787L97.4633 8.82023L68.2227 5.10241Z" fill="#263238"/>
<path d="M115.007 10.7498L91.2832 8.13527C91.839 6.35985 92.9989 4.83505 94.5615 3.82546C96.1241 2.81587 97.9909 2.38521 99.8379 2.60822L118.537 4.85146L115.007 10.7498Z" fill="#455A64"/>
<path d="M146.92 4.94036L146.962 20.9725L64.4532 21.1921C64.4497 20.1942 64.6431 19.2053 65.0221 18.2822C65.4011 17.359 65.9584 16.5196 66.6622 15.812C67.3659 15.1044 68.2022 14.5425 69.1232 14.1584C70.0443 13.7743 71.032 13.5755 72.03 13.5735L109.156 13.4741L118.673 0.427734L142.522 0.547999C143.688 0.547998 144.805 1.01059 145.63 1.83417C146.455 2.65775 146.918 3.77495 146.92 4.94036Z" fill="#0099FF"/>
<path d="M146.637 17.8664C146.637 17.9396 128.398 18.0024 105.903 18.0024C83.4081 18.0024 65.1641 17.9396 65.1641 17.8664C65.1641 17.7932 83.3976 17.7305 105.903 17.7305C128.409 17.7305 146.637 17.7932 146.637 17.8664Z" fill="#263238"/>
<path d="M225.977 30.2958L193.678 48.4091V44.2782L224.576 28.0996L225.977 30.2958Z" fill="#F5F5F5"/>
<path d="M193.678 48.4091L219.08 34.1444L221.203 37.172L205.511 46.4849L205.412 50.5373L193.678 56.9167V48.4091Z" fill="#263238"/>
<path d="M193.678 87.7103L219.08 73.4403L221.203 76.4679L205.511 85.786L205.412 89.8332L193.678 96.2126V87.7103Z" fill="#263238"/>
<path d="M193.678 76.1752L126.417 76.1752V34.1444L188.836 34.1444C190.12 34.1444 191.351 34.6546 192.26 35.5626C193.168 36.4707 193.678 37.7023 193.678 38.9865V76.1752Z" fill="#0099FF"/>
<path d="M126.412 126.949L193.678 126.949V77.7385H126.412V126.949Z" fill="#0099FF"/>
<path d="M194.049 117.641H222.605V120.25L193.662 123.351L194.049 117.641Z" fill="#263238"/>
<path d="M198.163 127.9C198.818 127.9 199.446 127.64 199.909 127.177C200.371 126.715 200.631 126.087 200.631 125.432V122.964C200.631 122.31 200.371 121.682 199.909 121.219C199.446 120.756 198.818 120.496 198.163 120.496C197.509 120.496 196.881 120.756 196.418 121.219C195.955 121.682 195.695 122.31 195.695 122.964V125.432C195.695 126.087 195.955 126.715 196.418 127.177C196.881 127.64 197.509 127.9 198.163 127.9Z" fill="#263238"/>
<path d="M219.508 119.189V110.671H215.633V119.769L219.508 119.189Z" fill="#263238"/>
<path d="M126.411 144.346H193.656V128.674H126.411V144.346Z" fill="#0099FF"/>
<path opacity="0.6" d="M193.764 76.064L126.503 76.064V34.0332L188.922 34.0332C190.206 34.0332 191.437 34.5434 192.345 35.4514C193.254 36.3595 193.764 37.5911 193.764 38.8753V76.064Z" fill="black"/>
<path opacity="0.6" d="M126.498 126.838L193.764 126.838V77.6275H126.498V126.838Z" fill="black"/>
<path opacity="0.6" d="M126.495 144.234H193.74V128.563H126.495V144.234Z" fill="black"/>
<path d="M126.411 150.688H193.656V144.34H126.411V150.688Z" fill="#0099FF"/>
<path d="M69.3944 144.707H141.555L141.555 28.0735L69.3944 28.0735L69.3944 144.707Z" fill="#0099FF"/>
<path opacity="0.3" d="M69.3964 141.462H141.557L141.557 24.8288L69.3964 24.8288L69.3964 141.462Z" fill="black"/>
<path d="M65.5985 59.1755H93.5371V26.4524H65.5985V59.1755Z" fill="#0099FF"/>
<path d="M146.963 20.894V27.1689C146.963 27.8623 146.688 28.5273 146.197 29.0176C145.707 29.5079 145.042 29.7834 144.348 29.7834H65.5996V20.894H146.963Z" fill="#0099FF"/>
<path d="M110.297 40.2519V20.9045H65.5996V36.806C65.5996 37.2598 65.689 37.7093 65.8627 38.1287C66.0364 38.548 66.291 38.929 66.612 39.25C66.9329 39.5709 67.3139 39.8255 67.7333 39.9992C68.1526 40.1729 68.6021 40.2623 69.056 40.2623H110.297" fill="#E30613"/>
<path d="M83.457 35.8542H107.176V23.5086L83.457 23.5086V35.8542Z" fill="#455A64"/>
<path d="M78.2291 24.8419H79.5625V23.5085H78.2291V24.8419Z" fill="#455A64"/>
<path d="M75.6646 24.8419H76.998V23.5085H75.6646V24.8419Z" fill="#455A64"/>
<path d="M73.0865 24.8419H74.4199V23.5085H73.0865V24.8419Z" fill="#455A64"/>
<path d="M67.7325 24.8419H71.3301V23.5085H67.7325V24.8419Z" fill="#F5F5F5"/>
<path d="M67.7325 27.1166H71.3301V25.7832H67.7325V27.1166Z" fill="#F5F5F5"/>
<path d="M67.7325 29.4069H71.3301V28.0735H67.7325V29.4069Z" fill="#F5F5F5"/>
<path d="M67.7325 31.8541H71.3301V30.5207H67.7325V31.8541Z" fill="#F5F5F5"/>
<path d="M73.0865 27.1584H74.4199V25.825H73.0865V27.1584Z" fill="#455A64"/>
<path d="M78.2291 27.2317H79.5625V25.8983H78.2291V27.2317Z" fill="#455A64"/>
<path d="M78.2291 29.4487H79.5625V28.1153H78.2291V29.4487Z" fill="#455A64"/>
<path d="M75.5768 27.2317H76.9102V25.8983H75.5768V27.2317Z" fill="#455A64"/>
<path d="M75.5768 29.4487H76.9102V28.1153H75.5768V29.4487Z" fill="#455A64"/>
<path d="M72.9713 29.4487H74.3047V28.1153H72.9713V29.4487Z" fill="#455A64"/>
<path d="M71.6113 34.6829C71.6113 35.1411 71.7472 35.5889 72.0017 35.9699C72.2563 36.3508 72.618 36.6477 73.0413 36.823C73.4646 36.9984 73.9303 37.0442 74.3797 36.9548C74.829 36.8655 75.2418 36.6448 75.5657 36.3209C75.8897 35.9969 76.1103 35.5842 76.1997 35.1348C76.2891 34.6855 76.2432 34.2197 76.0679 33.7964C75.8926 33.3732 75.5957 33.0114 75.2147 32.7569C74.8338 32.5023 74.3859 32.3665 73.9278 32.3665C73.3134 32.3665 72.7242 32.6105 72.2898 33.0449C71.8554 33.4794 71.6113 34.0685 71.6113 34.6829Z" fill="#FF725E"/>
<path d="M77.1133 34.6829C77.1133 34.9538 77.1936 35.2187 77.3442 35.444C77.4947 35.6693 77.7087 35.8449 77.959 35.9486C78.2093 36.0523 78.4848 36.0794 78.7506 36.0265C79.0163 35.9737 79.2604 35.8432 79.452 35.6516C79.6436 35.46 79.7741 35.2159 79.827 34.9501C79.8798 34.6844 79.8527 34.4089 79.749 34.1586C79.6453 33.9083 79.4697 33.6943 79.2444 33.5437C79.0191 33.3932 78.7542 33.3129 78.4833 33.3129C78.1199 33.3129 77.7715 33.4572 77.5146 33.7141C77.2576 33.9711 77.1133 34.3195 77.1133 34.6829Z" fill="#455A64"/>
<path d="M68.0234 34.7039C68.0234 34.9748 68.1038 35.2397 68.2543 35.465C68.4049 35.6903 68.6188 35.8659 68.8692 35.9696C69.1195 36.0733 69.395 36.1004 69.6607 36.0475C69.9265 35.9947 70.1706 35.8642 70.3622 35.6726C70.5538 35.481 70.6843 35.2369 70.7371 34.9711C70.79 34.7054 70.7629 34.4299 70.6592 34.1796C70.5555 33.9293 70.3799 33.7153 70.1546 33.5647C69.9293 33.4142 69.6644 33.3339 69.3935 33.3339C69.0301 33.3339 68.6816 33.4782 68.4247 33.7351C68.1678 33.9921 68.0234 34.3405 68.0234 34.7039Z" fill="#455A64"/>
<path d="M146.873 95.8518L65.5986 95.8518V59.1808L142.392 59.1808C143.58 59.1808 144.72 59.6529 145.561 60.4933C146.401 61.3337 146.873 62.4735 146.873 63.662V95.8518Z" fill="#0099FF"/>
<path d="M146.873 109.923L65.5986 109.923V99.0886C65.5986 98.4326 65.8592 97.8035 66.323 97.3397C66.7868 96.8759 67.4159 96.6153 68.0719 96.6153L143.338 96.6153C144.276 96.6153 145.175 96.9877 145.838 97.6506C146.501 98.3135 146.873 99.2126 146.873 100.15V109.923Z" fill="#0099FF"/>
<path opacity="0.3" d="M116.712 102.78H96.1045C95.3875 102.78 94.6999 102.495 94.1929 101.988C93.6859 101.481 93.4011 100.794 93.4011 100.077V96.6153H119.41V100.077C119.41 100.793 119.126 101.48 118.62 101.987C118.114 102.493 117.428 102.779 116.712 102.78Z" fill="black"/>
<path d="M146.874 137.354H65.5992V114.185C65.5992 113.196 65.992 112.248 66.6912 111.548C67.3904 110.849 68.3387 110.456 69.3275 110.456L143.151 110.456C144.139 110.456 145.088 110.849 145.787 111.548C146.486 112.248 146.879 113.196 146.879 114.185V137.354H146.874Z" fill="#0099FF"/>
<path opacity="0.3" d="M116.712 116.621H96.1045C95.3875 116.621 94.6999 116.337 94.1929 115.83C93.6859 115.323 93.4011 114.635 93.4011 113.918V110.456H119.41V113.918C119.41 114.634 119.126 115.321 118.62 115.828C118.114 116.335 117.428 116.62 116.712 116.621Z" fill="black"/>
<path d="M65.5986 150.694H146.873V138.725H65.5986V150.694Z" fill="#0099FF"/>
<path d="M93.5367 52.2733L125.434 52.2733V50.2706L93.5367 50.2706V52.2733Z" fill="#263238"/>
<path d="M93.5366 50.2759L136.467 50.2759V42.8193L93.5366 42.8193V50.2759Z" fill="#F5F5F5"/>
<path d="M93.6641 25.1243C93.6641 25.2028 96.3152 25.2603 99.5833 25.2603C102.851 25.2603 105.503 25.2028 105.503 25.1243C105.503 25.0459 102.851 24.9832 99.5833 24.9832C96.3152 24.9832 93.6641 25.0459 93.6641 25.1243Z" fill="#FAFAFA"/>
<path d="M100.48 27.0329C102.149 27.2142 103.832 27.2142 105.5 27.0329C103.832 26.8447 102.148 26.8447 100.48 27.0329Z" fill="#FAFAFA"/>
<path d="M100.48 29.0513C102.148 29.2396 103.832 29.2396 105.5 29.0513C103.832 28.8631 102.148 28.8631 100.48 29.0513Z" fill="#FAFAFA"/>
<path d="M100.334 32.3665C102 32.5548 103.682 32.5548 105.349 32.3665C103.682 32.1783 102 32.1783 100.334 32.3665Z" fill="#FAFAFA"/>
<path d="M86.5977 32.3665C88.2656 32.5548 89.9495 32.5548 91.6175 32.3665C89.9495 32.1783 88.2656 32.1783 86.5977 32.3665Z" fill="#FAFAFA"/>
<path opacity="0.5" d="M65.4755 151H146.75V139.031H65.4755V151Z" fill="white"/>
<path d="M65.6465 92.2857C65.6465 92.3642 83.8068 92.4269 106.208 92.4269C128.609 92.4269 146.769 92.3642 146.769 92.2857C146.769 92.2073 128.614 92.1445 106.208 92.1445C83.8016 92.1445 65.6465 92.2073 65.6465 92.2857Z" fill="#263238"/>
<path d="M65.6465 89.3051C65.6465 89.3836 83.8068 89.4463 106.208 89.4463C128.609 89.4463 146.769 89.3836 146.769 89.3051C146.769 89.2267 128.614 89.1639 106.208 89.1639C83.8016 89.1639 65.6465 89.2267 65.6465 89.3051Z" fill="#263238"/>
<path d="M65.6465 86.335C65.6465 86.4135 83.8068 86.4762 106.208 86.4762C128.609 86.4762 146.769 86.4135 146.769 86.335C146.769 86.2566 128.614 86.1938 106.208 86.1938C83.8016 86.1938 65.6465 86.2461 65.6465 86.335Z" fill="#263238"/>
<path d="M65.6465 83.344C65.6465 83.4225 83.8068 83.48 106.208 83.48C128.609 83.48 146.769 83.4225 146.769 83.344C146.769 83.2656 128.614 83.1976 106.208 83.1976C83.8016 83.1976 65.6465 83.2656 65.6465 83.344Z" fill="#263238"/>
<path d="M65.5 109.913C65.5 109.991 83.744 110.049 106.244 110.049C128.745 110.049 146.994 109.991 146.994 109.913C146.994 109.834 128.755 109.771 106.244 109.771C83.7336 109.771 65.5 109.834 65.5 109.913Z" fill="#263238"/>
<path d="M65.5 137.349C65.5 137.428 83.744 137.49 106.244 137.49C128.745 137.49 146.994 137.428 146.994 137.349C146.994 137.271 128.755 137.208 106.244 137.208C83.7336 137.208 65.5 137.271 65.5 137.349Z" fill="#263238"/>
<path d="M93.4023 96.6206C93.3781 96.7393 93.3658 96.8602 93.3657 96.9814C93.3657 97.2428 93.3291 97.588 93.2977 98.0272C93.2549 98.5754 93.2549 99.1261 93.2977 99.6743C93.3526 100.42 93.6294 101.132 94.0925 101.719C94.3739 102.056 94.7328 102.32 95.1383 102.488C95.5741 102.649 96.024 102.77 96.4822 102.848C97.4822 103.023 98.4946 103.118 99.5098 103.131C101.648 103.131 103.981 103.094 106.443 103.068L113.372 102.963C114.418 102.963 115.463 102.963 116.399 102.885C116.879 102.854 117.35 102.739 117.79 102.545C118.201 102.373 118.561 102.1 118.836 101.75C119.282 101.152 119.541 100.435 119.579 99.69C119.608 99.1414 119.608 98.5915 119.579 98.0429C119.579 97.588 119.537 97.2429 119.516 96.9971C119.511 96.8771 119.493 96.7579 119.464 96.6415C119.451 96.7615 119.451 96.8824 119.464 97.0023C119.464 97.269 119.464 97.6141 119.464 98.0481C119.464 98.4821 119.464 99.0521 119.422 99.6796C119.372 100.39 119.113 101.07 118.679 101.635C118.425 101.954 118.094 102.202 117.717 102.357C117.303 102.517 116.865 102.609 116.42 102.629C115.49 102.681 114.465 102.66 113.403 102.681L106.475 102.765C104.017 102.765 101.675 102.854 99.5516 102.848C98.5494 102.842 97.5493 102.756 96.5606 102.592C96.1169 102.525 95.6808 102.415 95.2586 102.263C94.8792 102.114 94.5418 101.876 94.2755 101.567C93.8264 101.014 93.55 100.341 93.4807 99.6325C93.4325 99.0918 93.422 98.5484 93.4493 98.0063C93.4493 97.5566 93.4493 97.2063 93.4493 96.9605C93.4416 96.8462 93.4259 96.7327 93.4023 96.6206Z" fill="#263238"/>
<path d="M93.4023 110.211C93.3781 110.329 93.3658 110.45 93.3657 110.571C93.3657 110.838 93.3291 111.178 93.2977 111.617C93.2549 112.166 93.2549 112.716 93.2977 113.264C93.3526 114.01 93.6294 114.722 94.0925 115.309C94.3725 115.647 94.7317 115.911 95.1383 116.078C95.5741 116.239 96.024 116.36 96.4822 116.438C97.4822 116.613 98.4946 116.708 99.5098 116.721C101.648 116.721 103.981 116.684 106.443 116.658L113.372 116.553C114.418 116.553 115.463 116.553 116.399 116.48C116.879 116.444 117.348 116.329 117.79 116.14C118.2 115.967 118.559 115.694 118.836 115.346C119.282 114.745 119.54 114.027 119.579 113.28C119.608 112.731 119.608 112.182 119.579 111.633C119.579 111.178 119.537 110.833 119.516 110.587C119.511 110.467 119.493 110.348 119.464 110.232C119.451 110.352 119.451 110.472 119.464 110.592C119.464 110.859 119.464 111.204 119.464 111.638C119.464 112.072 119.464 112.642 119.422 113.27C119.372 113.98 119.113 114.66 118.679 115.225C118.425 115.544 118.094 115.792 117.717 115.947C117.303 116.107 116.865 116.199 116.42 116.219C115.49 116.271 114.465 116.25 113.403 116.271L106.475 116.355C104.017 116.355 101.675 116.444 99.5516 116.438C98.5494 116.432 97.5493 116.346 96.5606 116.182C96.1169 116.115 95.6808 116.005 95.2586 115.853C94.8792 115.704 94.5418 115.466 94.2755 115.157C93.8264 114.604 93.55 113.932 93.4807 113.223C93.4325 112.682 93.422 112.139 93.4493 111.596C93.4493 111.147 93.4493 110.796 93.4493 110.551C93.4416 110.436 93.4259 110.323 93.4023 110.211Z" fill="#263238"/>
</g>
</svg>
