<svg width="290" height="152" viewBox="0 0 290 152" fill="none" xmlns="http://www.w3.org/2000/svg">
<mask id="mask0_1302_8026" style="mask-type:alpha" maskUnits="userSpaceOnUse" x="0" y="0" width="290" height="152">
<rect width="289.534" height="151.75" fill="#D9D9D9"/>
</mask>
<g mask="url(#mask0_1302_8026)">
<path d="M122.959 107.985L126.016 111.798V105.233H135.638C135.638 105.233 136.708 120.281 136.487 123.483C136.258 125.155 135.863 126.799 135.306 128.392C135.016 129.313 134.495 130.145 133.791 130.807C133.088 131.469 132.227 131.94 131.289 132.174C130.352 132.409 129.371 132.399 128.438 132.145C127.506 131.892 126.654 131.404 125.965 130.727C124.886 129.68 123.879 128.563 122.95 127.381C118.704 121.878 111.57 108.486 111.57 108.486L118.984 104.01L122.959 107.985Z" fill="#EB996E"/>
<path d="M122.373 107.246C122.734 107.852 123.155 108.421 123.63 108.944C124.479 109.955 125.566 111.339 126.848 112.842C128.131 114.345 129.354 115.662 130.296 116.553C130.771 117.073 131.321 117.52 131.927 117.878C131.491 117.333 131.02 116.817 130.517 116.332C129.668 115.39 128.479 114.039 127.197 112.545C124.632 109.513 122.466 107.135 122.373 107.246Z" fill="#EB996E"/>
<path d="M174.745 22.0931L175.178 57.039C175.254 62.9836 174.15 71.7307 164.741 71.4165C156.605 70.5673 154.448 62.8308 154.389 57.2853C154.389 54.6527 154.321 52.4616 154.304 52.1899C154.304 52.1899 145.395 51.4595 144.64 42.6615C144.283 38.4153 144.24 29.5918 144.308 21.6175C144.341 17.4793 145.933 13.5056 148.766 10.4895C151.6 7.47341 155.466 5.63677 159.595 5.34619L160.444 5.27825C169.615 5.14238 174.864 12.8704 174.745 22.0931Z" fill="#EB996E"/>
<path d="M154.305 52.1899C158.373 51.8738 162.265 50.4004 165.523 47.9437C165.523 47.9437 163.196 54.5847 154.347 54.4319L154.305 52.1899Z" fill="#D1734A"/>
<path d="M159.347 25.2183C159.526 25.3966 160.536 24.5813 162.014 24.5389C163.492 24.4964 164.562 25.2267 164.74 25.0314C164.918 24.8361 164.638 24.6238 164.154 24.2841C163.507 23.853 162.74 23.6361 161.963 23.6642C161.193 23.6843 160.45 23.9556 159.848 24.437C159.407 24.8021 159.262 25.1418 159.347 25.2183Z" fill="#263238"/>
<path d="M158.541 28.7765C158.561 29.0866 158.7 29.3769 158.93 29.586C159.16 29.7952 159.462 29.9069 159.773 29.8974C159.925 29.8986 160.076 29.8692 160.217 29.8109C160.357 29.7527 160.485 29.6667 160.592 29.5582C160.699 29.4497 160.783 29.3209 160.839 29.1793C160.895 29.0377 160.922 28.8863 160.919 28.734C160.901 28.4231 160.763 28.1315 160.532 27.9219C160.302 27.7123 159.999 27.6014 159.688 27.613C159.536 27.613 159.385 27.6432 159.245 27.7019C159.105 27.7606 158.978 27.8465 158.871 27.9548C158.764 28.0631 158.68 28.1914 158.623 28.3325C158.567 28.4736 158.539 28.6245 158.541 28.7765Z" fill="#263238"/>
<path d="M155.654 35.477C154.925 35.3061 154.177 35.2262 153.429 35.2392C153.08 35.2392 152.749 35.1797 152.673 34.9504C152.613 34.5976 152.667 34.235 152.826 33.9144C153.089 33.0651 153.369 32.148 153.675 31.2053C154.821 27.3498 155.62 24.1991 155.467 24.1567C155.314 24.1142 154.261 27.1969 153.114 31.044C152.834 31.9951 152.571 32.8953 152.325 33.7615C152.136 34.1933 152.109 34.6786 152.248 35.1288C152.305 35.2483 152.39 35.3527 152.494 35.4338C152.599 35.5149 152.721 35.5704 152.851 35.5958C153.048 35.624 153.248 35.624 153.446 35.5958C154.184 35.6467 154.925 35.6067 155.654 35.477Z" fill="#263238"/>
<path d="M159.976 18.9424C160.12 19.2736 161.301 19.0273 162.71 19.1038C164.12 19.1802 165.258 19.4859 165.445 19.1717C165.521 19.0188 165.3 18.7216 164.825 18.4244C164.189 18.074 163.481 17.8762 162.756 17.8468C162.031 17.8173 161.309 17.9569 160.647 18.2545C160.154 18.5093 159.916 18.815 159.976 18.9424Z" fill="#263238"/>
<path d="M145.972 21.1589C146.125 21.4222 147.28 21.1589 148.673 21.0825C150.065 21.0061 151.22 21.2184 151.373 20.9381C151.433 20.8022 151.203 20.5645 150.719 20.3522C150.064 20.0899 149.36 19.974 148.656 20.0125C147.945 20.0331 147.247 20.2069 146.609 20.522C146.15 20.7683 145.904 21.0315 145.972 21.1589Z" fill="#263238"/>
<path d="M174.498 28.6662C174.651 28.5898 180.443 26.4328 180.672 32.4623C180.901 38.4919 174.804 37.5068 174.787 37.3284C174.77 37.1501 174.498 28.6662 174.498 28.6662Z" fill="#EB996E"/>
<path d="M176.535 34.9505C176.535 34.9505 176.646 35.0184 176.824 35.0949C176.949 35.1474 177.083 35.1745 177.219 35.1745C177.354 35.1745 177.489 35.1474 177.614 35.0949C177.993 34.8323 178.296 34.4739 178.491 34.0562C178.687 33.6385 178.768 33.1764 178.726 32.717C178.72 32.1985 178.598 31.6879 178.37 31.2224C178.303 31.0335 178.19 30.8641 178.042 30.7293C177.894 30.5944 177.715 30.4983 177.52 30.4496C177.398 30.42 177.268 30.4355 177.156 30.4931C177.044 30.5508 176.956 30.6468 176.909 30.7638C176.832 30.9336 176.909 31.0525 176.849 31.061C176.79 31.0695 176.714 30.9676 176.747 30.7128C176.777 30.5628 176.858 30.4278 176.977 30.3307C177.055 30.2639 177.145 30.2137 177.243 30.183C177.341 30.1524 177.444 30.1419 177.546 30.1523C177.797 30.1895 178.033 30.2912 178.233 30.4475C178.432 30.6039 178.588 30.8094 178.684 31.044C178.97 31.5644 179.119 32.1488 179.117 32.7425C179.117 33.9569 178.556 35.1204 177.69 35.4091C177.53 35.4629 177.36 35.4801 177.193 35.4595C177.025 35.439 176.864 35.3811 176.722 35.2902C176.552 35.1119 176.518 34.9505 176.535 34.9505Z" fill="#D1734A"/>
<path d="M157.079 39.6552C157.011 39.5024 158.191 39.1457 159.024 38.0332C159.372 37.5477 159.658 37.0198 159.873 36.4621C160.043 36.0205 160.179 35.7488 160.247 35.7658C160.315 35.7828 160.289 36.08 160.196 36.564C160.068 37.2003 159.801 37.8005 159.414 38.322C159.02 38.8491 158.488 39.2575 157.877 39.5024C157.402 39.6892 157.096 39.7062 157.079 39.6552Z" fill="#263238"/>
<path d="M132.623 13.7196C132.673 13.5409 132.759 13.3738 132.874 13.2281C132.989 13.0823 133.132 12.9608 133.294 12.8704C133.997 12.557 134.77 12.434 135.536 12.5137C137.887 12.4624 140.178 11.7661 142.16 10.501C143.08 9.17332 144.109 7.92356 145.234 6.7644C147.901 4.01289 150.1 2.14458 152.368 1.2274C155.858 -0.0383353 159.627 -0.331869 163.272 0.378172C166.338 1.18494 169.089 3.6647 169.514 6.80686C171.212 5.35468 173.811 5.36317 175.9 6.20391H175.951C178.278 7.05314 179.603 9.49044 180.29 11.8683C180.978 14.2461 181.267 16.7769 182.524 18.9084C182.787 19.35 183.101 19.885 182.872 20.3521C182.766 20.5219 182.611 20.6558 182.428 20.7361C182.245 20.8164 182.041 20.8394 181.844 20.8022C181.452 20.7143 181.082 20.5467 180.757 20.3097C181.021 20.9296 181.284 21.5495 181.539 22.1695C180.689 22.3187 179.815 22.2634 178.991 22.0081C178.564 24.1255 178.011 26.2155 177.335 28.267C176.468 28.1635 175.593 28.3777 174.872 28.8699C174.023 29.6088 173.692 30.9845 172.325 30.4665C171.637 30.1947 171.008 28.768 170.77 28.0462C169.24 23.3621 168.733 18.4041 169.284 13.5073C168.322 12.4761 167.169 11.6425 165.887 11.053L165.989 11.1464C163.535 10.2972 160.75 9.44798 158.414 10.6029C156.605 11.5031 155.544 13.3799 154.168 14.8491C152.918 16.2326 151.4 17.3491 149.707 18.1313C148.015 18.9135 146.181 19.3454 144.317 19.401C144.19 21.8723 144.393 25.3456 144.266 27.8933L142.228 23.9104C142.058 23.6132 141.922 23.3244 141.786 23.0612L141.735 22.9763C141.53 22.4933 141.298 22.0226 141.039 21.5665C140.752 21.8081 140.386 21.9369 140.011 21.9288C139.636 21.9207 139.276 21.7763 138.999 21.5226C138.723 21.2688 138.548 20.923 138.507 20.5498C138.467 20.1766 138.564 19.8015 138.78 19.4944C138.989 19.2085 139.241 18.9565 139.527 18.7471C139.223 19.0408 138.848 19.2508 138.439 19.3565C138.03 19.4621 137.6 19.4599 137.192 19.35C136.788 19.2256 136.437 18.972 136.191 18.6284C135.946 18.2847 135.82 17.8699 135.833 17.4478C135.868 17.1637 135.977 16.8937 136.148 16.6644C136.319 16.4351 136.547 16.2543 136.81 16.1399C135.719 16.2275 134.627 15.9849 133.676 15.4436C133.022 15.0784 132.411 14.4924 132.623 13.7196Z" fill="#263238"/>
<path d="M166.744 7.8175C167.051 8.07538 167.336 8.35953 167.593 8.66674C168.289 9.50681 168.755 10.5136 168.944 11.5881C169.091 12.3234 169.165 13.0716 169.164 13.8216C169.164 14.6708 169.105 15.52 169.046 16.4202C168.962 17.3803 168.94 18.3447 168.978 19.3076C169.001 19.8188 169.067 20.3272 169.173 20.8278C169.252 21.3646 169.465 21.8728 169.793 22.3054C169.947 22.4768 170.143 22.6053 170.362 22.6782C170.581 22.7512 170.815 22.7661 171.041 22.7215C171.471 22.6408 171.863 22.4198 172.154 22.0931C172.634 21.4361 172.927 20.6614 173.003 19.8511H172.816C173.084 20.5127 173.445 21.133 173.886 21.694C174.315 22.208 174.921 22.5416 175.585 22.6281C175.897 22.6592 176.211 22.6034 176.493 22.4668C176.756 22.3294 176.972 22.1165 177.113 21.8553C177.24 21.6176 177.304 21.3518 177.3 21.0825C177.287 20.8265 177.185 20.5831 177.011 20.3946L176.918 20.4796C177.443 21.0794 178.088 21.5625 178.812 21.8978C179.003 21.9851 179.198 22.0617 179.398 22.1271L179.61 22.178L179.406 22.0931C179.279 22.0337 179.083 21.9572 178.837 21.8383C178.139 21.4833 177.518 20.9925 177.011 20.3946L176.926 20.4796C177.068 20.6658 177.15 20.8914 177.159 21.1254C177.168 21.3595 177.105 21.5907 176.977 21.7874C176.852 22.0176 176.659 22.2043 176.425 22.3224C176.162 22.4494 175.866 22.4967 175.576 22.4583C174.958 22.3867 174.391 22.0831 173.988 21.609C173.557 21.0596 173.208 20.4502 172.952 19.8002L172.825 19.5199L172.774 19.8257C172.684 20.6013 172.391 21.3394 171.924 21.9657C171.663 22.2553 171.314 22.452 170.931 22.5262C170.739 22.5652 170.54 22.5536 170.354 22.4926C170.168 22.4315 170.001 22.3231 169.869 22.178C169.564 21.7733 169.368 21.2965 169.3 20.7938C169.194 20.3018 169.129 19.8019 169.105 19.2991C169.062 18.345 169.079 17.3892 169.156 16.4372C169.215 15.5285 169.275 14.6538 169.258 13.8301C169.251 13.0675 169.166 12.3076 169.003 11.5626C168.8 10.473 168.307 9.45811 167.576 8.62427C167.344 8.31237 167.063 8.03995 166.744 7.8175Z" fill="#455A64"/>
<path d="M139.51 16.3777C139.51 16.3777 139.51 16.3777 139.586 16.4371C139.663 16.4965 139.714 16.539 139.807 16.5985C139.919 16.6911 140.042 16.7709 140.172 16.8362C140.347 16.9447 140.528 17.0412 140.716 17.125C141.895 17.6573 143.188 17.8878 144.478 17.7959C146.403 17.6733 148.251 16.9915 149.794 15.8341C151.654 14.4082 153.205 12.6199 154.354 10.5774C154.991 9.50737 155.518 8.42035 156.053 7.40976C156.583 6.42433 157.252 5.5205 158.04 4.72619C158.748 4.00932 159.624 3.4809 160.588 3.18907C161.021 3.06776 161.471 3.01616 161.921 3.03621C162.34 3.06125 162.754 3.1412 163.152 3.27399C164.362 3.68905 165.372 4.54391 165.98 5.66883C166.18 6.08899 166.331 6.53064 166.43 6.98514C166.43 6.98514 166.43 6.98514 166.43 6.89173C166.43 6.79831 166.43 6.73037 166.388 6.61997C166.316 6.27723 166.205 5.94386 166.057 5.62637C165.806 5.1293 165.473 4.67844 165.072 4.29308C164.54 3.77684 163.903 3.3827 163.203 3.13812C162.795 2.99592 162.369 2.90743 161.938 2.87486C161.472 2.85504 161.005 2.90659 160.554 3.02772C159.562 3.32127 158.66 3.85847 157.93 4.59031C157.133 5.39563 156.455 6.31073 155.917 7.30785C155.331 8.32693 154.813 9.41395 154.176 10.4755C153.045 12.4959 151.517 14.2667 149.684 15.6813C148.168 16.82 146.359 17.5034 144.469 17.6515C143.196 17.7574 141.916 17.5504 140.741 17.0485C140.318 16.8496 139.907 16.6255 139.51 16.3777Z" fill="#455A64"/>
<path d="M138.711 12.5137C138.807 12.5993 138.912 12.6734 139.025 12.7345C139.326 12.9125 139.638 13.0713 139.959 13.21C140.441 13.4117 140.938 13.5736 141.445 13.6941C142.691 13.9826 143.981 14.023 145.242 13.813C145.753 13.7267 146.256 13.596 146.745 13.4223C147.079 13.3126 147.403 13.1733 147.713 13.0062C147.829 12.9565 147.938 12.8908 148.036 12.8109C148.036 12.8109 147.534 13.0232 146.702 13.2865C146.213 13.4364 145.714 13.55 145.208 13.6262C144.589 13.7165 143.964 13.7534 143.339 13.7366C142.203 13.701 141.081 13.4772 140.019 13.0742C139.203 12.7599 138.728 12.4797 138.711 12.5137Z" fill="#455A64"/>
<path d="M145.904 25.2183C146.082 25.3966 147.101 24.5813 148.571 24.5389C150.04 24.4964 151.118 25.2267 151.305 25.0314C151.492 24.8361 151.195 24.6238 150.719 24.2841C150.072 23.853 149.305 23.6361 148.528 23.6642C147.758 23.6843 147.015 23.9556 146.414 24.437C145.963 24.8021 145.819 25.1418 145.904 25.2183Z" fill="#263238"/>
<path d="M146.219 28.7766C146.239 29.0867 146.378 29.377 146.608 29.5861C146.838 29.7953 147.14 29.907 147.45 29.8976C147.603 29.8976 147.754 29.8674 147.894 29.8088C148.035 29.7503 148.163 29.6644 148.27 29.5563C148.377 29.4481 148.462 29.3198 148.52 29.1787C148.577 29.0376 148.606 28.8865 148.605 28.7341C148.583 28.4233 148.442 28.1329 148.211 27.9239C147.98 27.715 147.677 27.6036 147.365 27.6131C147.213 27.6131 147.063 27.6433 146.923 27.702C146.782 27.7607 146.655 27.8466 146.549 27.9549C146.442 28.0632 146.358 28.1915 146.301 28.3326C146.245 28.4737 146.217 28.6246 146.219 28.7766Z" fill="#263238"/>
<path d="M144.91 61.7098L155.058 57.7354L173.75 56.6738L182.54 60.0113L170.498 66.7033L160.12 66.3211L144.91 61.7098Z" fill="#EB996E"/>
<path d="M132.946 157.24C133.864 157.393 195.11 160 195.11 160L192.962 104.927L192.783 94.1165L189.302 61.3616C189.302 61.3616 180.147 58.2109 175.476 56.7078C175.476 56.7078 170.559 61.8032 161.217 61.6928C152.08 61.5569 150.177 59.4932 150.177 59.4932L137.396 64.3933C137.396 64.3933 128.318 67.6544 126.756 71.6713C125.193 75.6881 122.441 97.9295 122.441 97.9295H135.689L135.435 137.41L132.946 157.24Z" fill="#0099FF"/>
<g opacity="0.2">
<path d="M171.449 83.7048L173.351 97.5898L182.54 101.692L189.334 95.8998V83.017L171.449 83.7048Z" fill="black"/>
</g>
<path d="M189.086 87.6452C189.086 87.7556 185.273 87.849 180.594 87.849C175.915 87.849 172.102 87.7556 172.102 87.6452C174.927 87.4332 177.761 87.3623 180.594 87.4329C183.426 87.3623 186.261 87.4332 189.086 87.6452Z" fill="#263238"/>
<path d="M128.818 77.412C128.863 77.5304 128.897 77.6526 128.92 77.7772C128.98 78.0489 129.065 78.3971 129.158 78.8387C129.491 80.1629 129.9 81.4672 130.381 82.7452C130.992 84.3927 131.85 86.3204 132.929 88.486C134.007 90.6515 134.831 93.2417 135.774 95.9932V96.0526C135.774 99.3477 135.731 102.965 135.706 106.736C135.612 115.152 135.536 122.778 135.476 128.34C135.425 131.075 135.391 133.3 135.357 134.888C135.357 135.635 135.357 136.221 135.307 136.663C135.325 136.869 135.325 137.077 135.307 137.283C135.286 137.077 135.286 136.869 135.307 136.663C135.307 136.221 135.307 135.627 135.307 134.88C135.307 133.3 135.307 131.067 135.307 128.332C135.307 122.77 135.374 115.152 135.417 106.728C135.417 102.957 135.485 99.3477 135.51 96.0526V96.0951C134.585 93.3436 133.701 90.7959 132.742 88.6049C131.824 86.7151 131.005 84.7791 130.288 82.8046C129.82 81.5131 129.443 80.1908 129.158 78.8472C129.073 78.3801 129.005 77.998 128.971 77.7687C128.907 77.6557 128.856 77.5361 128.818 77.412Z" fill="#263238"/>
<path d="M193.748 70.9324C193.778 71.3225 193.778 71.7142 193.748 72.1043C193.748 72.9536 193.672 74.0066 193.629 75.3059C193.519 78.0744 193.375 81.7686 193.213 85.8534C193.052 89.9382 192.857 93.6324 192.729 96.4009C192.661 97.6917 192.593 98.7702 192.551 99.594C192.55 99.9881 192.508 100.381 192.424 100.766C192.393 100.376 192.393 99.984 192.424 99.594C192.424 98.7447 192.466 97.6832 192.483 96.3924C192.551 93.6918 192.678 89.9552 192.848 85.8364C193.018 81.7176 193.205 77.9895 193.383 75.2889C193.468 73.9387 193.553 72.8516 193.621 72.0958C193.632 71.7052 193.675 71.3161 193.748 70.9324Z" fill="#263238"/>
<g opacity="0.3">
<path d="M128.851 79.3738C128.619 85.4208 130.779 91.3155 134.863 95.781C133.615 90.0996 130.507 84.8174 128.851 79.3738Z" fill="black"/>
</g>
<g opacity="0.3">
<path d="M155.756 133.894C158.636 133.513 161.262 132.049 163.102 129.801C165.042 127.637 166.702 125.237 168.044 122.659C169.777 119.152 170.76 115.323 170.932 111.415C167.382 120.986 162.134 128.553 155.756 133.894Z" fill="black"/>
</g>
<path d="M172.061 107.246C172.061 107.246 172.061 107.373 172.01 107.602L171.789 108.596C171.696 109.029 171.56 109.556 171.382 110.15C171.203 110.744 171.008 111.449 170.736 112.188C170.131 113.943 169.425 115.661 168.622 117.334C167.615 119.385 166.48 121.37 165.225 123.279C163.957 125.166 162.57 126.97 161.072 128.68C159.859 130.068 158.563 131.381 157.191 132.612C156.605 133.147 156.036 133.58 155.543 133.979C155.051 134.379 154.626 134.693 154.253 134.939L153.403 135.517C153.31 135.589 153.207 135.649 153.098 135.695C153.098 135.695 153.183 135.593 153.361 135.449L154.151 134.812C154.507 134.548 154.924 134.217 155.399 133.801C155.875 133.385 156.427 132.952 156.996 132.4C158.356 131.156 159.646 129.838 160.86 128.451C163.82 125.042 166.329 121.266 168.324 117.216C169.139 115.556 169.868 113.855 170.507 112.12C170.796 111.39 170.999 110.71 171.203 110.116C171.407 109.522 171.56 109.004 171.679 108.579C171.798 108.154 171.891 107.874 171.968 107.611C171.984 107.486 172.015 107.363 172.061 107.246Z" fill="#263238"/>
<path d="M170.293 90.0148C170.279 90.203 170.254 90.3902 170.216 90.5753C170.149 90.9744 170.055 91.5094 169.936 92.1718C169.817 92.8342 169.656 93.7174 169.41 94.7195C169.163 95.7216 168.934 96.8171 168.56 98.0145L168 99.9168C167.796 100.579 167.541 101.25 167.304 101.946C166.845 103.365 166.225 104.825 165.605 106.371C162.765 113.05 158.956 119.273 154.302 124.842C153.206 126.099 152.187 127.313 151.134 128.366C150.625 128.901 150.141 129.436 149.64 129.912L148.204 131.271C147.304 132.162 146.421 132.876 145.657 133.538C144.892 134.2 144.221 134.727 143.652 135.152L142.362 136.128C142.215 136.249 142.059 136.356 141.895 136.451C142.019 136.308 142.158 136.18 142.311 136.069L143.559 135.033C144.111 134.591 144.773 134.039 145.512 133.334C146.251 132.629 147.126 131.933 148.009 131.033L149.419 129.657C149.911 129.181 150.378 128.638 150.888 128.103C151.924 127.05 152.926 125.835 154.013 124.57C156.294 121.78 158.39 118.844 160.289 115.78C162.149 112.695 163.809 109.492 165.257 106.193C165.885 104.656 166.514 103.203 166.955 101.802C167.193 101.106 167.456 100.443 167.669 99.7894C167.881 99.1355 168.059 98.5071 168.246 97.9042C168.645 96.7067 168.892 95.6027 169.155 94.6346C169.418 93.6665 169.614 92.8342 169.749 92.1464C169.885 91.4585 170.021 90.9574 170.106 90.5583C170.148 90.3708 170.211 90.1886 170.293 90.0148Z" fill="#263238"/>
<path d="M121.897 72.8856C125.676 78.6179 140.963 101.861 145.481 108.732C145.593 108.901 145.654 109.099 145.657 109.303C145.66 109.506 145.604 109.706 145.497 109.878C145.39 110.051 145.235 110.189 145.051 110.276C144.868 110.364 144.663 110.396 144.462 110.371L117.286 106.974C116.999 106.933 116.739 106.781 116.564 106.549L90.6201 71.1192C90.4996 70.9543 90.4288 70.7583 90.4161 70.5544C90.4034 70.3505 90.4494 70.1472 90.5485 69.9686C90.6476 69.79 90.7958 69.6435 90.9756 69.5464C91.1553 69.4493 91.3591 69.4057 91.5628 69.4207L119.503 71.4929C119.983 71.5227 120.449 71.6642 120.865 71.9059C121.28 72.1477 121.634 72.4832 121.897 72.8856Z" fill="#E1323D"/>
<path d="M121.896 72.8857C121.84 72.7666 121.769 72.6553 121.684 72.5545C121.447 72.2595 121.16 72.0093 120.835 71.8157C120.278 71.5213 119.656 71.3696 119.026 71.3741L116.478 71.1703L100.343 69.9049L95.0096 69.4973L92.1646 69.2765C91.9184 69.2765 91.7061 69.2765 91.4173 69.2765C91.1271 69.2892 90.8506 69.4034 90.636 69.5992C90.4192 69.7985 90.2798 70.0681 90.2425 70.3602C90.2052 70.6524 90.2724 70.9484 90.4322 71.1958L97.9819 81.5479L115.298 105.233C115.697 105.768 116.045 106.269 116.47 106.821C116.605 106.964 116.77 107.074 116.954 107.144C117.125 107.2 117.301 107.237 117.48 107.254L118.44 107.373L122.236 107.849L129.667 108.783L143.73 110.532C144.019 110.532 144.265 110.609 144.579 110.626C144.747 110.627 144.913 110.595 145.068 110.531C145.222 110.467 145.362 110.372 145.479 110.252C145.598 110.135 145.691 109.997 145.756 109.843C145.82 109.69 145.853 109.526 145.853 109.36C145.837 109.05 145.724 108.753 145.53 108.511C144.919 107.594 144.325 106.685 143.739 105.794C142.558 104.01 141.42 102.278 140.342 100.605C138.134 97.2672 136.095 94.1505 134.193 91.2631L125.251 77.8113L122.805 74.1596L122.16 73.2169C122.092 73.1063 122.012 73.0037 121.922 72.9112C121.922 72.9112 121.981 73.0301 122.117 73.2424L122.729 74.2105L125.106 77.9047L133.921 91.4415L140.036 100.783L143.433 105.98L145.208 108.698C145.365 108.878 145.458 109.105 145.471 109.343C145.465 109.569 145.374 109.784 145.216 109.946C145.137 110.025 145.043 110.087 144.939 110.129C144.836 110.172 144.725 110.193 144.613 110.193C144.375 110.193 144.07 110.133 143.764 110.099L129.726 108.324L122.295 107.382L118.499 106.906L117.54 106.787C117.396 106.775 117.254 106.75 117.115 106.711C116.998 106.661 116.891 106.589 116.801 106.498C116.427 105.98 116.045 105.462 115.663 104.953L98.3386 81.2592L90.7634 70.9495C90.6457 70.7775 90.5954 70.5682 90.622 70.3615C90.6487 70.1548 90.7504 69.9651 90.9078 69.8285C91.0558 69.6896 91.2485 69.6082 91.4513 69.5992C91.6551 69.5992 91.9269 69.5992 92.1562 69.5992L95.0011 69.803L100.343 70.1852L116.478 71.3062L119.026 71.4675C119.641 71.4486 120.251 71.5829 120.801 71.8582C121.24 72.1123 121.615 72.4638 121.896 72.8857Z" fill="#263238"/>
<path d="M90.6367 71.1023C90.8258 71.1503 91.0193 71.1787 91.2142 71.1872L92.8617 71.357L98.9932 71.9005L119.859 73.599L119.697 73.4971C121.005 75.4418 122.347 77.4545 123.706 79.5351C129.209 88.0275 134.016 95.781 137.65 101.318C139.459 104.095 140.962 106.311 142.007 107.84L143.23 109.539C143.365 109.75 143.518 109.949 143.688 110.133C143.576 109.909 143.448 109.694 143.306 109.488L142.151 107.696L137.905 101.106C134.347 95.5262 129.574 87.7218 124.063 79.2464C122.712 77.1658 121.362 75.1446 120.046 73.2084L119.986 73.1149H119.884L99.0017 71.5693L92.8532 71.1532L91.1972 71.0683C91.0098 71.0674 90.8226 71.0787 90.6367 71.1023Z" fill="#263238"/>
<path d="M106.805 76.5628C106.822 76.492 106.852 76.4252 106.896 76.3665C106.939 76.3078 106.993 76.2584 107.056 76.2212C107.118 76.184 107.188 76.1597 107.26 76.1498C107.332 76.1399 107.405 76.1446 107.476 76.1637C107.754 76.2255 108.007 76.3671 108.206 76.5713C108.334 76.6854 108.416 76.8412 108.44 77.0107C108.463 77.1803 108.425 77.3526 108.333 77.497C108.062 77.8367 107.484 77.7093 107.178 77.429C107.046 77.3296 106.942 77.1974 106.877 77.0455C106.811 76.8936 106.786 76.7272 106.805 76.5628Z" fill="white"/>
<path d="M119.486 96.6728C119.486 96.6728 120.565 94.1251 117.839 93.7854C114.554 93.6124 111.263 93.6124 107.979 93.7854C107.979 93.7854 104.081 94.193 104.905 96.9955C104.905 96.9955 102.595 99.0591 103.826 101.284C105.058 103.509 105.525 102.847 105.525 102.847C105.525 102.847 105.194 105.573 107.223 105.98C107.223 105.98 109.457 108.621 111.512 108.452C113.567 108.282 122.306 104.087 122.883 103.263C123.461 102.439 124.284 101.972 123.792 101.046C123.792 101.046 124.862 98.6345 122.552 98.2693C122.62 98.2693 122.458 96.2566 119.486 96.6728Z" fill="#EB996E"/>
<path d="M107.086 97.59C107.692 97.7147 108.311 97.7603 108.929 97.7258C110.058 97.7258 111.629 97.7258 113.353 97.7258C114.842 97.7641 116.331 97.6732 117.803 97.4541C118.984 97.1823 119.442 96.4945 119.383 96.486C118.882 96.8062 118.326 97.0308 117.744 97.1484C116.28 97.2613 114.812 97.301 113.345 97.2673C111.646 97.2673 110.05 97.3437 108.92 97.4031C108.304 97.3933 107.688 97.456 107.086 97.59Z" fill="#D1734A"/>
<path d="M109.049 101.709C109.049 101.709 109.244 101.836 109.635 101.912C110.194 102.025 110.765 102.062 111.333 102.023C112.173 101.96 113.004 101.809 113.813 101.573C114.73 101.318 115.698 100.97 116.717 100.656C117.668 100.344 118.651 100.142 119.647 100.053C120.507 100.126 121.371 99.9525 122.136 99.5516C122.433 99.3525 122.645 99.0496 122.73 98.7024C122.785 98.4407 122.749 98.168 122.628 97.9296C122.416 97.5304 122.119 97.5134 122.127 97.5304C122.136 97.5474 122.339 97.6493 122.467 97.9975C122.549 98.2369 122.542 98.4977 122.449 98.7328C122.355 98.9679 122.181 99.1619 121.957 99.2798C121.225 99.6078 120.418 99.7311 119.622 99.6365C118.59 99.6992 117.571 99.8962 116.59 100.222L113.694 101.191C112.916 101.439 112.118 101.615 111.308 101.717C110.556 101.77 109.801 101.767 109.049 101.709Z" fill="#D1734A"/>
<path d="M111.959 105.199C112.583 105.158 113.2 105.038 113.794 104.842C114.915 104.562 116.443 104.12 118.116 103.577C119.789 103.033 121.275 102.473 122.362 102.04C122.961 101.85 123.533 101.582 124.061 101.241C124.061 101.123 121.326 102.091 117.997 103.144C114.668 104.197 111.925 105.072 111.959 105.199Z" fill="#D1734A"/>
<path d="M111.262 108.426C111.775 108.471 112.291 108.413 112.782 108.256C113.98 107.965 115.147 107.555 116.264 107.033C117.572 106.43 118.718 105.827 119.542 105.386C120.012 105.184 120.452 104.918 120.85 104.596C120.79 104.46 118.65 105.445 116.077 106.617C113.504 107.789 111.245 108.316 111.262 108.426Z" fill="#EB996E"/>
<path d="M198.09 83.8577C198.09 83.8577 192.536 106.099 185.597 114.311C178.88 122.26 168.349 118.608 164.706 108.316C161.063 98.0229 154.566 74.5332 154.566 74.5332L162.541 68.4357L176.324 95.1441L182.54 76.9365L198.09 83.8577Z" fill="#EB996E"/>
<path d="M154.931 75.1447L149.08 66.6524C148.23 66.4665 147.397 66.2079 146.591 65.8796C145.929 65.4889 145.275 62.126 145.292 61.4636C145.309 60.8012 144.154 59.2725 144.621 58.8394C145.088 58.4063 146.651 58.3723 146.566 57.7439C146.566 57.608 145.402 56.1983 146.311 55.1962C146.812 54.8616 147.371 54.6227 147.959 54.4914L147.865 51.2558C147.865 51.2558 149.615 47.4427 151.398 48.8185C151.398 48.8185 158.132 53.9903 158.812 54.8226C159.491 55.6548 162.081 66.4231 162.54 68.4103" fill="#EB996E"/>
<path d="M162.539 68.4357C162.531 68.2408 162.503 68.0473 162.455 67.8582C162.361 67.4506 162.251 66.9156 162.106 66.2447C161.792 64.835 161.317 62.8478 160.68 60.3001C160.357 59.0432 160 57.6759 159.55 56.2152C159.431 55.8501 159.321 55.4849 159.168 55.1112C158.988 54.7239 158.713 54.3881 158.37 54.1346C157.758 53.5911 157.113 53.0646 156.45 52.5211C155.117 51.4426 153.699 50.3301 152.204 49.1836C151.84 48.8385 151.425 48.552 150.973 48.3344C150.709 48.269 150.433 48.2681 150.168 48.3317C149.904 48.3952 149.658 48.5214 149.453 48.6995C148.687 49.3669 148.076 50.1927 147.661 51.1198V51.1708C147.661 51.485 147.661 51.8247 147.661 52.1644C147.661 52.9202 147.712 53.6676 147.729 54.4064L147.89 54.2026C147.483 54.3023 147.086 54.4358 146.701 54.6017C146.486 54.687 146.29 54.814 146.124 54.9754C145.976 55.1486 145.866 55.3512 145.801 55.5698C145.692 55.9996 145.728 56.4534 145.903 56.8607C145.974 57.0551 146.062 57.2427 146.166 57.4212L146.319 57.6674V57.7269C146.319 57.7269 146.319 57.7269 146.319 57.7863C146.319 57.8458 146.149 57.9562 145.988 58.0241C145.819 58.0909 145.646 58.1476 145.47 58.194C145.283 58.2534 145.105 58.3044 144.909 58.3808C144.686 58.449 144.49 58.5857 144.349 58.7714C144.264 58.9929 144.264 59.2379 144.349 59.4593C144.398 59.6457 144.464 59.8275 144.544 60.0028C144.689 60.351 144.85 60.6737 144.969 60.9964C145.029 61.1393 145.064 61.2917 145.071 61.4465C145.081 61.6314 145.101 61.8157 145.13 61.9985C145.181 62.3552 145.241 62.6949 145.317 63.0346C145.447 63.6989 145.629 64.3519 145.861 64.9878C145.969 65.3233 146.145 65.6327 146.379 65.8965C146.658 66.0775 146.965 66.2123 147.287 66.2956C147.882 66.4825 148.459 66.6268 148.986 66.7542L148.892 66.6863L153.223 72.8517L154.429 74.5502C154.561 74.7484 154.709 74.9358 154.871 75.1107C154.771 74.8948 154.648 74.6899 154.506 74.4992L153.368 72.8008L149.122 66.5589V66.5164H149.062C148.51 66.3806 147.933 66.2277 147.364 66.0409C147.085 65.9689 146.818 65.8544 146.574 65.7012C146.391 65.4743 146.253 65.215 146.166 64.9369C145.95 64.3127 145.777 63.6742 145.648 63.0261C145.58 62.6949 145.521 62.3552 145.47 62.0155C145.47 61.8457 145.427 61.6673 145.427 61.5145C145.419 61.3141 145.379 61.1163 145.309 60.9285C145.173 60.5803 145.011 60.2491 144.875 59.9264C144.806 59.7659 144.747 59.6015 144.697 59.4338C144.656 59.304 144.656 59.1645 144.697 59.0347C144.796 58.9324 144.918 58.8565 145.054 58.8139L145.58 58.644C145.771 58.5933 145.958 58.5309 146.141 58.4572C146.258 58.4228 146.367 58.3652 146.462 58.2879C146.557 58.2106 146.635 58.1152 146.693 58.0071C146.723 57.9346 146.738 57.8564 146.735 57.7778C146.738 57.7237 146.723 57.6701 146.693 57.625V57.5485L146.548 57.3023C146.454 57.143 146.374 56.9752 146.311 56.8012C146.167 56.4783 146.134 56.1171 146.217 55.7736C146.269 55.6113 146.352 55.461 146.463 55.332C146.589 55.2138 146.736 55.1215 146.897 55.0603C147.258 54.9079 147.629 54.783 148.009 54.6866L148.17 54.6442V54.4828C148.17 53.744 148.128 52.9882 148.103 52.2323C148.103 51.8927 148.103 51.5615 148.103 51.2472V51.3407C148.481 50.472 149.046 49.6978 149.759 49.0732C149.913 48.9348 150.099 48.8349 150.299 48.7818C150.5 48.7286 150.71 48.7237 150.913 48.7675C151.314 48.9649 151.685 49.2163 152.017 49.5148C153.495 50.6528 154.913 51.7568 156.264 52.8268C156.926 53.3618 157.571 53.8883 158.183 54.4149C158.491 54.63 158.738 54.923 158.896 55.2641C159.041 55.6123 159.16 55.9775 159.278 56.3341C159.737 57.7778 160.128 59.1451 160.45 60.385C161.096 62.8478 161.622 64.8519 162.004 66.2871C162.174 66.9495 162.319 67.4846 162.421 67.8837C162.45 68.0697 162.49 68.2539 162.539 68.4357Z" fill="#D1734A"/>
<path d="M147.961 54.4829C147.961 54.5593 148.649 54.4829 149.71 54.6102C150.335 54.7006 150.951 54.8398 151.553 55.0264C152.342 55.1371 153.142 55.1371 153.931 55.0264C154.609 54.9316 155.299 54.9924 155.949 55.2043C156.6 55.4162 157.193 55.7736 157.685 56.2493C158.07 56.6688 158.375 57.1552 158.585 57.6845C158.593 57.3781 158.536 57.0734 158.418 56.7908C158.299 56.5082 158.121 56.2541 157.897 56.0454C157.453 55.5538 156.905 55.1678 156.292 54.916C155.534 54.6177 154.713 54.5155 153.906 54.6187C153.15 54.7115 152.385 54.7115 151.63 54.6187C151.01 54.446 150.376 54.3323 149.736 54.279C149.137 54.2365 148.535 54.3056 147.961 54.4829Z" fill="#D1734A"/>
<path d="M150.345 54.3129C150.447 54.3639 150.718 53.9647 150.684 53.4043C150.65 52.8438 150.336 52.4871 150.243 52.555C150.149 52.623 150.243 52.9796 150.243 53.4043C150.243 53.8289 150.234 54.262 150.345 54.3129Z" fill="#EB996E"/>
<path d="M146.363 57.8798C148.072 58.0477 149.797 57.9126 151.459 57.4806C152.059 57.2881 152.69 57.2103 153.319 57.2513C153.807 57.3547 154.24 57.6363 154.533 58.0411C154.78 58.4574 155.001 58.8885 155.195 59.332C155.224 58.8136 155.074 58.3012 154.771 57.8798C154.619 57.629 154.42 57.4107 154.184 57.2373C153.948 57.0639 153.68 56.9388 153.395 56.8692C152.714 56.7959 152.025 56.8682 151.374 57.0815C148.631 57.6675 146.355 57.7609 146.363 57.8798Z" fill="#D1734A"/>
<path d="M145.461 60.9369C145.871 61.0367 146.299 61.0367 146.709 60.9369C147.474 60.852 148.501 60.5887 149.622 60.3679C150.138 60.2546 150.665 60.2033 151.193 60.2151C151.604 60.2223 152.002 60.3657 152.323 60.6227C152.614 60.8785 152.808 61.2261 152.875 61.6078C152.875 61.6078 152.96 61.4974 152.943 61.2681C152.909 60.9448 152.761 60.6439 152.527 60.4189C152.175 60.0798 151.715 59.8753 151.227 59.8414C150.658 59.8034 150.086 59.8463 149.529 59.9688C148.382 60.1981 147.38 60.5038 146.641 60.6567C146.24 60.715 145.845 60.8088 145.461 60.9369Z" fill="#D1734A"/>
<path d="M147.476 63.3658C147.399 63.4253 147.968 64.0197 149.021 64.0197L148.817 63.8414C148.817 64.0198 148.86 64.1981 148.877 64.3764C148.899 65.1142 149.064 65.8408 149.361 66.5165C149.469 65.7908 149.446 65.0516 149.293 64.334L149.216 63.7905V63.6036H149.03C148.504 63.5886 147.982 63.5087 147.476 63.3658Z" fill="#EB996E"/>
<path d="M189.298 61.3276C189.298 61.3276 200.669 64.0792 200.652 79.1615C200.635 94.2439 197.213 101.692 197.213 101.692L176.254 90.278L180.925 78.5331L189.298 61.3276Z" fill="#0099FF"/>
<path d="M197.216 101.692C197.065 101.643 196.919 101.578 196.783 101.496C196.46 101.343 196.061 101.131 195.568 100.885L191.093 98.5239L176.146 90.4732L175.977 90.3798L176.045 90.2014C176.41 89.2673 176.783 88.2737 177.174 87.2631L180.97 77.412L182.626 73.1658C183.096 71.9033 183.664 70.6795 184.325 69.5056C185.188 67.745 186.489 66.2359 188.104 65.1236C188.558 64.8437 189.058 64.6454 189.581 64.5376L189.989 64.4781H190.133C189.444 64.613 188.787 64.8782 188.197 65.2594C186.653 66.4 185.416 67.9056 184.596 69.6415C183.977 70.8146 183.446 72.0324 183.008 73.2847L181.386 77.5733L177.573 87.4159L176.444 90.3543L176.342 90.091L191.22 98.2691L195.628 100.74L196.8 101.428C196.951 101.495 197.091 101.584 197.216 101.692Z" fill="#263238"/>
</g>
</svg>
