<svg width="290" height="152" viewBox="0 0 290 152" fill="none" xmlns="http://www.w3.org/2000/svg">
<mask id="mask0_1302_7906" style="mask-type:alpha" maskUnits="userSpaceOnUse" x="0" y="0" width="290" height="152">
<rect width="289.534" height="151.75" fill="#D9D9D9"/>
</mask>
<g mask="url(#mask0_1302_7906)">
<path d="M109.373 152C111.665 135.195 115.458 109.405 115.458 109.405H115.447L116.561 99.8518L127.694 100.025L136.252 131.367L132.664 152H109.373Z" fill="#455A64"/>
<path d="M133.603 149.003L124.763 99.7869L148.252 99.4513C148.253 99.453 151.768 103.228 153.499 106.852C155.23 110.466 156.344 119.099 156.344 119.099C156.344 119.099 161.213 129.939 160.477 135.479C160.197 137.59 159.305 144.389 158.307 152H133.692L133.603 149.003Z" fill="#455A64"/>
<path d="M133.86 152C132.891 144.508 132.087 138.298 131.511 133.867C131.218 131.509 130.98 129.659 130.818 128.382C130.742 127.765 130.689 127.279 130.645 126.943C130.602 126.608 130.602 126.445 130.602 126.445C130.602 126.445 130.634 126.608 130.689 126.933C130.742 127.257 130.807 127.755 130.894 128.371C131.078 129.648 131.327 131.498 131.662 133.846L134.123 152H133.86Z" fill="#263239"/>
<path d="M149.962 152L147.711 120.566H147.722L170.992 119.409L173.387 152H149.962Z" fill="#263239"/>
<path d="M165.609 152C165.546 151.026 165.485 150.077 165.432 149.177C165.205 145.141 165.043 141.863 164.978 139.591C164.946 138.476 164.902 137.599 164.902 136.983V136.064C164.902 136.064 164.946 136.107 164.946 136.269C164.956 136.442 164.989 136.669 164.989 136.95C165.021 137.556 165.065 138.433 165.129 139.558C165.227 141.82 165.422 145.097 165.681 149.133C165.741 150.047 165.808 151.012 165.879 152H165.609Z" fill="#455A64"/>
<path d="M166.512 152L164.825 135.674L158.658 120.051L190.683 118.742L190.693 118.72V128.955L189.105 152H166.512Z" fill="#263239"/>
<path d="M132.109 61.1083H144.27V73.2697H132.109V61.1083Z" fill="#EE7160"/>
<path d="M114.267 52.4098H126.428V73.269H114.267V52.4098Z" fill="#EE7160"/>
<g opacity="0.5">
<path d="M114.267 52.4097H126.428V73.2689H114.267V52.4097Z" fill="white"/>
</g>
<path d="M142.268 8.93896C142.268 8.93896 143.718 22.3759 141.868 29.7329L123.919 28.9435C123.919 28.9435 127.76 15.6901 125.402 9.83695L142.268 8.93896Z" fill="#EBEBEB"/>
<path d="M126.874 14.6082C126.874 14.6731 129.6 14.8895 132.965 15.095C136.341 15.3006 139.067 15.4088 139.078 15.3439C139.078 15.279 136.351 15.0518 132.987 14.8462C129.611 14.6406 126.885 14.5433 126.874 14.6082Z" fill="white"/>
<path d="M126.862 17.6813C126.862 17.7462 129.589 17.9626 132.954 18.1677C136.329 18.3737 139.066 18.4819 139.066 18.417C139.066 18.3521 136.34 18.1357 132.976 17.9297C129.6 17.7245 126.874 17.6164 126.862 17.6813Z" fill="white"/>
<path d="M129.956 20.6993C130.291 20.7859 130.627 20.8292 130.962 20.8404C131.579 20.9053 132.455 20.9702 133.429 21.0239C134.392 21.0784 135.279 21.1217 135.896 21.1321C136.231 21.1754 136.578 21.1754 136.924 21.1321C136.588 21.0455 136.253 21.0023 135.907 20.9918C135.29 20.9269 134.414 20.862 133.44 20.8075C132.477 20.7538 131.59 20.7105 130.973 20.6993C130.638 20.6561 130.291 20.6561 129.956 20.6993Z" fill="white"/>
<path d="M141.889 114.263C141.954 114.079 141.976 113.885 141.987 113.679C142.03 113.311 142.052 112.77 142.062 112.099C142.062 110.357 141.954 108.615 141.76 106.884C141.522 104.915 141.327 103.13 141.143 101.702C141.089 100.988 141.002 100.263 140.862 99.5594C140.797 100.285 140.807 101.009 140.894 101.734C140.981 103.065 141.186 104.904 141.403 106.928C141.619 108.95 141.77 110.79 141.814 112.11C141.857 113.43 141.835 114.263 141.9 114.274L141.889 114.263Z" fill="#455A64"/>
<path d="M139.239 105.543C139.64 104.612 139.878 103.617 139.943 102.611C140.126 101.616 140.159 100.598 140.018 99.5923C139.813 100.576 139.672 101.561 139.596 102.557C139.412 103.542 139.293 104.537 139.228 105.532L139.239 105.543Z" fill="#455A64"/>
<path d="M130.14 102.621C130.205 102.621 130.183 102.157 130.692 101.81C130.833 101.713 130.995 101.659 131.168 101.637C131.342 101.616 131.503 101.637 131.666 101.713C131.861 101.789 132.023 101.907 132.142 102.08C132.261 102.243 132.315 102.448 132.315 102.654C132.315 102.859 132.25 103.054 132.142 103.227C132.023 103.39 131.861 103.519 131.666 103.595C131.503 103.649 131.33 103.671 131.168 103.65C131.006 103.628 130.844 103.563 130.703 103.465C130.205 103.097 130.248 102.611 130.183 102.633C130.119 102.654 130.13 102.74 130.151 102.935C130.195 103.216 130.335 103.477 130.551 103.66C130.714 103.812 130.919 103.909 131.136 103.953C131.352 103.996 131.58 103.985 131.785 103.909C132.034 103.823 132.261 103.66 132.423 103.444C132.585 103.227 132.672 102.968 132.672 102.697C132.672 102.427 132.597 102.167 132.445 101.94C132.294 101.713 132.077 101.54 131.828 101.453C131.623 101.378 131.406 101.345 131.19 101.388C130.974 101.421 130.768 101.518 130.606 101.659C130.378 101.832 130.227 102.092 130.183 102.362C130.119 102.546 130.151 102.654 130.162 102.654L130.14 102.621Z" fill="#455A64"/>
<path d="M159.135 47.7255C161.678 50.0408 163.777 52.8 165.302 55.8831C167.38 60.1354 180.06 84.7917 178.307 87.4749C176.554 90.158 171.383 92.4084 170.863 92.333C170.344 92.2569 160.629 86.4146 160.629 86.4146C160.629 86.4146 154.581 67.1237 154.516 67.0805C154.451 67.0268 159.146 47.7359 159.146 47.7359L159.135 47.7255Z" fill="#E0E0E0"/>
<path d="M109.811 80.529C109.811 80.529 107.431 116.178 107.701 118.061C107.972 119.943 112.689 129.118 112.689 129.118L115.848 118.353L113.273 113.127L117.449 83.7531L109.811 80.5178L109.811 80.529Z" fill="#B78876"/>
<path d="M125.738 45.172L130.812 44.3818C130.812 44.3818 130.574 53.4482 138.44 53.784C147.366 54.1519 148.913 44.6198 148.913 44.6198C148.913 44.6198 157.535 46.2107 159.115 47.6604C160.695 49.1102 153.208 87.1822 153.208 87.1822L153.922 111.763C153.922 111.763 144.358 116.567 133.17 116.697C129.893 116.73 126.636 116.112 123.596 114.857C120.555 113.614 117.807 111.763 115.492 109.426L113.426 104.093L117.331 84.3701L125.738 45.172Z" fill="#E0E0E0"/>
<path d="M125.748 45.3452C125.748 45.3452 119.495 47.1957 117.59 49.7378C115.697 52.2807 108.87 81.3183 108.87 81.3183L117.309 84.5641L125.748 45.3564V45.3452Z" fill="#E0E0E0"/>
<path d="M121.635 55.1257C121.646 55.2339 121.646 55.3309 121.635 55.4391C121.635 55.6771 121.56 55.9696 121.517 56.3263C121.397 57.1381 121.224 58.2304 121.019 59.5616C120.586 62.3417 120.002 66.0851 119.363 70.2292C118.725 74.3725 118.195 78.1376 117.795 80.9185C117.6 82.2488 117.437 83.342 117.319 84.153L117.167 85.0402C117.135 85.2461 117.113 85.3431 117.102 85.3431C117.091 85.2461 117.091 85.1379 117.102 85.0402C117.102 84.8021 117.156 84.4992 117.189 84.153C117.264 83.3852 117.394 82.2705 117.557 80.8968C117.892 78.1488 118.411 74.3621 119.039 70.1859C119.666 66.0097 120.305 62.2447 120.791 59.5287C121.029 58.1655 121.246 57.0619 121.408 56.3046C121.473 55.9584 121.538 55.6883 121.592 55.4391C121.592 55.3421 121.614 55.2339 121.646 55.1362L121.635 55.1257Z" fill="#263239"/>
<path d="M143.176 70.359C143.013 70.6403 142.819 70.9 142.613 71.1596C142.245 71.6685 141.672 72.393 140.936 73.2152C137.063 77.619 132.325 81.1893 127.012 83.6881C126.006 84.1642 125.162 84.5216 124.578 84.738C124.275 84.8678 123.971 84.9648 123.658 85.0513C123.939 84.8887 124.232 84.7372 124.535 84.629C125.108 84.3806 125.92 84.0127 126.915 83.4934C132.119 80.8968 136.814 77.3698 140.763 73.0966C141.52 72.2744 142.116 71.6028 142.516 71.1163C142.711 70.8455 142.927 70.597 143.165 70.3806L143.176 70.359Z" fill="#263239"/>
<path d="M121.236 56.1643C121.203 56.2509 120.035 55.7965 118.564 55.3854C117.092 54.9742 115.859 54.7683 115.87 54.6497C117.753 54.7034 119.602 55.2235 121.236 56.1643Z" fill="#455A64"/>
<path d="M158.432 59.2915C158.302 59.3019 158.172 59.3019 158.053 59.2915L156.96 59.237L152.979 59.0102L139.812 58.1118C134.662 57.7119 130.009 57.3978 126.634 57.3329C124.957 57.2896 123.583 57.2792 122.642 57.2896H121.549C121.419 57.3008 121.3 57.3008 121.171 57.2896C121.289 57.2575 121.419 57.2359 121.549 57.2463C121.798 57.2463 122.166 57.203 122.631 57.1814C123.572 57.1381 124.946 57.1061 126.634 57.1165C130.021 57.1165 134.683 57.409 139.823 57.8089L152.99 58.7938L156.982 59.1288L158.064 59.237C158.194 59.237 158.313 59.2482 158.432 59.2803L158.432 59.2915Z" fill="#455A64"/>
<path d="M120.002 62.9692C118.975 62.9908 117.936 62.9043 116.919 62.7207C115.88 62.6342 114.842 62.4394 113.835 62.1469C114.863 62.1253 115.902 62.2119 116.919 62.3962C117.968 62.4827 118.996 62.6663 120.002 62.9692Z" fill="#455A64"/>
<path d="M156.549 69.4398C156.419 69.4615 156.3 69.4615 156.17 69.4398L155.099 69.3966C154.169 69.3421 152.827 69.2659 151.161 69.1473C147.85 68.9093 143.252 68.531 138.221 67.7737C135.711 67.3946 133.331 66.9298 131.167 66.5403C129.014 66.1396 127.056 65.8038 125.4 65.5987C123.745 65.4039 122.414 65.339 121.484 65.3069C120.564 65.2853 120.045 65.3061 120.034 65.2741C120.153 65.2412 120.283 65.2308 120.413 65.2308C120.661 65.2308 121.029 65.1875 121.484 65.1875C122.804 65.1771 124.113 65.2308 125.433 65.3823C127.088 65.545 129.047 65.8583 131.21 66.2478C133.374 66.6373 135.755 67.0917 138.265 67.4812C143.274 68.2489 147.85 68.6601 151.161 68.9526L155.088 69.2988L156.159 69.407C156.289 69.407 156.419 69.407 156.538 69.4398L156.549 69.4398Z" fill="#455A64"/>
<path d="M134.965 77.8675C134.748 77.8891 134.522 77.8891 134.305 77.8675C133.883 77.8675 133.277 77.781 132.52 77.7048C131.027 77.5534 128.949 77.3049 126.677 77.002C124.395 76.6878 122.361 76.3849 120.857 76.0932C120.121 75.9634 119.515 75.8439 119.104 75.7574C118.899 75.7253 118.682 75.6708 118.488 75.5955C118.704 75.5843 118.931 75.5955 119.147 75.6388L120.911 75.8768L126.742 76.699L132.574 77.4997L134.337 77.7593C134.554 77.7697 134.76 77.813 134.965 77.8779V77.8675Z" fill="#455A64"/>
<path d="M154.43 82.2489C154.159 82.2705 153.878 82.2489 153.607 82.2168L151.368 82.0108C149.475 81.8273 146.867 81.546 143.978 81.2215C141.09 80.8969 138.493 80.6044 136.589 80.3343L134.361 80.0209C134.09 79.9993 133.808 79.9448 133.549 79.8695C133.82 79.8582 134.101 79.8687 134.371 79.9015L136.611 80.1075C138.493 80.291 141.111 80.5723 144 80.9073C146.9 81.2319 149.485 81.5244 151.39 81.7953L153.618 82.0974C153.889 82.119 154.17 82.1735 154.43 82.2489Z" fill="#455A64"/>
<path d="M153.467 92.5165C153.337 92.5165 153.218 92.5165 153.088 92.4836L152.017 92.3105L148.101 91.6181C144.801 91.0555 140.224 90.2445 135.161 89.7356C132.618 89.4872 130.184 89.3245 127.966 89.2812C125.759 89.2379 123.747 89.2812 122.081 89.2812C120.414 89.2812 119.04 89.2059 118.099 89.1193C117.634 89.076 117.277 89.0432 117.028 88.9999C116.899 88.9895 116.779 88.9678 116.649 88.9358C116.779 88.9246 116.909 88.9246 117.028 88.9358L118.11 88.9999C119.051 89.0432 120.403 89.076 122.081 89.0544C123.757 89.0327 125.781 88.9678 127.977 88.9999C130.173 89.0327 132.64 89.173 135.193 89.4222C140.3 89.9303 144.866 90.7742 148.165 91.4017C149.81 91.7263 151.141 92.0188 152.06 92.1919L153.11 92.4187C153.229 92.4404 153.348 92.4732 153.456 92.5165H153.467Z" fill="#455A64"/>
<path d="M153.65 104.255C153.521 104.298 153.391 104.321 153.261 104.331C153.001 104.374 152.612 104.418 152.103 104.45C150.686 104.537 149.258 104.494 147.841 104.331C144.249 103.963 139.445 102.676 134.046 101.864C128.647 101.053 123.714 100.404 120.176 99.8518C118.77 99.6683 117.374 99.4191 115.989 99.0833C115.61 98.9751 115.253 98.8565 114.896 98.705C114.767 98.6617 114.647 98.5968 114.539 98.5215C114.669 98.5535 114.799 98.5856 114.918 98.6401C115.275 98.7803 115.632 98.911 116 99.008C116.962 99.246 118.412 99.4191 120.186 99.6683C123.735 100.166 128.658 100.739 134.078 101.594C139.499 102.448 144.303 103.714 147.851 104.125C149.247 104.309 150.664 104.385 152.082 104.353C153.099 104.299 153.65 104.223 153.65 104.255Z" fill="#455A64"/>
<path d="M119.082 71.8953C117.784 71.8304 116.507 71.6573 115.242 71.3864C113.954 71.2133 112.688 70.9432 111.444 70.5649C112.742 70.6299 114.03 70.8022 115.295 71.073C116.583 71.2461 117.849 71.5162 119.082 71.8953Z" fill="#455A64"/>
<path d="M117.848 80.864C117.848 80.864 117.718 80.9073 117.492 80.864C117.177 80.8103 116.874 80.7021 116.583 80.5506L113.802 79.2091C111.616 78.1704 109.832 77.3586 109.864 77.2937C110.286 77.3698 110.708 77.4997 111.097 77.6944C111.833 77.9757 112.85 78.398 113.943 78.9278C115.035 79.4471 116.009 79.9552 116.701 80.3559C117.059 80.5827 117.448 80.7558 117.859 80.8752L117.848 80.864Z" fill="#455A64"/>
<path d="M114.778 107.49C114.907 107.501 115.048 107.533 115.167 107.565L116.282 107.858C117.244 108.107 118.651 108.442 120.393 108.767C122.135 109.091 124.233 109.384 126.56 109.632C128.875 109.882 131.493 109.99 134.198 110.185C139.619 110.574 144.541 110.801 148.101 110.682C149.875 110.639 151.314 110.52 152.299 110.444L153.435 110.336C153.564 110.325 153.705 110.325 153.846 110.336C153.716 110.379 153.586 110.401 153.456 110.411C153.197 110.455 152.84 110.52 152.32 110.584C151.336 110.704 149.897 110.855 148.112 110.931C143.459 111.049 138.807 110.92 134.177 110.52C131.472 110.325 128.875 110.195 126.527 109.935C124.18 109.676 122.081 109.351 120.328 108.994C118.575 108.637 117.191 108.269 116.227 107.988C115.751 107.858 115.383 107.728 115.135 107.642C115.016 107.598 114.897 107.545 114.789 107.48L114.778 107.49Z" fill="#455A64"/>
<path d="M112.008 118.341C113.836 121.079 115.719 123.784 117.645 126.467C117.731 126.575 117.828 126.705 117.969 126.705C118.11 126.705 118.251 126.488 118.294 126.315C118.477 125.125 118.316 123.914 117.818 122.81C117.32 121.728 116.898 120.613 116.541 119.466C116.249 118.266 116.26 117 115.741 115.853C115.459 115.237 115.07 114.685 114.777 114.09C114.366 113.149 113.62 112.391 112.678 111.969" fill="#B78876"/>
<path d="M158.021 61.1627C158.011 61.4977 157.967 61.8439 157.902 62.1685L157.448 64.8949C157.059 67.1998 156.485 70.3806 155.836 73.8964C155.187 77.413 154.603 80.5826 154.127 82.8763C153.91 83.9798 153.715 84.8886 153.575 85.5923C153.521 85.9273 153.434 86.2518 153.326 86.5764C153.337 86.2414 153.38 85.8952 153.445 85.5706C153.564 84.8782 153.705 83.9478 153.899 82.8442C154.3 80.5393 154.862 77.3585 155.511 73.8427C156.161 70.3261 156.745 67.1669 157.221 64.8733C157.448 63.7697 157.632 62.8505 157.773 62.1581C157.827 61.8223 157.902 61.4873 158.021 61.174L158.021 61.1627Z" fill="#263239"/>
<path d="M168.699 63.1534C168.169 63.4019 167.606 63.5966 167.033 63.7377C165.994 64.051 164.566 64.4734 162.965 64.9166C161.353 65.3605 159.914 65.75 158.865 66.0097C158.302 66.1828 157.729 66.3014 157.144 66.3775C157.675 66.1179 158.237 65.9119 158.811 65.7605C159.849 65.4471 161.277 65.0247 162.879 64.5816C164.491 64.1376 165.919 63.7481 166.979 63.4884C167.542 63.3266 168.115 63.2071 168.699 63.1534Z" fill="#455A64"/>
<path d="M174.543 74.4598C174.381 74.6001 174.186 74.7195 173.98 74.7948C173.439 75.0329 172.866 75.2276 172.282 75.347C170.81 75.6716 168.787 76.0499 166.569 76.5796C164.351 77.0989 162.35 77.619 160.911 78.0085L159.201 78.4629C159.007 78.5382 158.79 78.5815 158.585 78.5919C158.78 78.4837 158.985 78.3972 159.201 78.3435C159.591 78.2025 160.175 78.0085 160.889 77.7921C162.317 77.3481 164.308 76.7855 166.537 76.2662C168.766 75.7469 170.81 75.3895 172.271 75.1298C172.844 75.0216 173.418 74.871 173.97 74.6762C174.153 74.5897 174.348 74.5135 174.543 74.4598Z" fill="#455A64"/>
<path d="M162.923 84.5537L153.683 108.669L156.302 118.764L172.941 91.0019C172.941 91.0019 167.002 84.024 162.923 84.5537Z" fill="#B78876"/>
<path d="M153.855 108.215L145.644 121.307L145.838 124.682L156.29 129.118L157.047 116.676L153.866 108.226L153.855 108.215Z" fill="#B78876"/>
<path d="M158.822 130.557C158.822 130.557 157.967 130.026 156.528 129.323C156.139 129.128 155.739 128.955 155.328 128.804C154.895 128.641 154.397 128.523 153.889 128.36C152.861 128.035 151.757 127.635 150.621 127.126C148.36 126.121 146.369 125.125 144.92 124.422L143.21 123.557C142.994 123.459 142.788 123.34 142.593 123.21C142.821 123.253 143.048 123.341 143.264 123.449L145.017 124.217L150.762 126.835C151.887 127.322 152.991 127.733 153.997 128.068C154.494 128.241 154.992 128.361 155.436 128.544C155.858 128.707 156.269 128.89 156.669 129.107C157.232 129.41 157.783 129.745 158.303 130.102C158.498 130.232 158.681 130.383 158.844 130.557H158.822Z" fill="#263239"/>
<path d="M122.652 21.403C122.652 17.1399 127.629 9.54486 131.892 9.69632L142.808 14.3702C143.435 14.3918 144.03 14.6515 144.474 15.0951C144.917 15.5386 145.177 16.1229 145.21 16.7504L146.291 45.8213C146.367 47.8449 145.642 49.814 144.268 51.307C142.894 52.8 140.99 53.6872 138.967 53.7738C136.944 53.8491 134.964 53.1463 133.45 51.8047C131.935 50.4631 130.993 48.5806 130.831 46.5682C130.69 44.5014 130.647 42.1324 130.647 42.1428C130.647 42.154 125.162 41.5914 123.583 34.5911C122.771 31.129 122.641 26.1418 122.641 21.403L122.652 21.403Z" fill="#B78876"/>
<path d="M124.567 26.3797C124.578 26.6177 124.686 26.8341 124.859 26.996C125.032 27.1587 125.26 27.2453 125.498 27.234C125.616 27.234 125.724 27.2124 125.833 27.1691C125.941 27.1258 126.039 27.0609 126.125 26.9744C126.212 26.8878 126.277 26.7909 126.32 26.6827C126.363 26.5745 126.385 26.4551 126.385 26.3469C126.374 26.1088 126.265 25.8925 126.092 25.7306C125.919 25.5679 125.692 25.4813 125.454 25.4925C125.335 25.4925 125.227 25.5142 125.119 25.5575C125.01 25.6007 124.913 25.6656 124.827 25.741C124.74 25.8275 124.675 25.9253 124.632 26.0335C124.589 26.1417 124.567 26.2603 124.567 26.3685L124.567 26.3797Z" fill="#263239"/>
<path d="M124.093 24.3233C124.211 24.4315 124.872 23.8801 125.845 23.8152C126.83 23.7503 127.565 24.1934 127.695 24.0748C127.815 23.9554 127.62 23.8152 127.284 23.5988C126.841 23.3391 126.322 23.2093 125.813 23.2526C125.305 23.2846 124.828 23.4794 124.428 23.804C124.114 24.0532 124.006 24.28 124.082 24.3233H124.093Z" fill="#263239"/>
<path d="M133.872 26.0111C133.883 26.2491 133.991 26.4655 134.164 26.6282C134.337 26.79 134.564 26.8766 134.802 26.8662C134.922 26.8662 135.03 26.8445 135.138 26.8013C135.246 26.758 135.343 26.6931 135.43 26.6065C135.516 26.52 135.581 26.4222 135.625 26.314C135.668 26.2058 135.689 26.0872 135.689 25.979C135.679 25.741 135.571 25.5246 135.398 25.3619C135.225 25.2 134.997 25.1135 134.759 25.1239C134.64 25.1239 134.532 25.1455 134.424 25.1888C134.316 25.2321 134.218 25.297 134.131 25.3835C134.045 25.4701 133.98 25.5679 133.937 25.6761C133.893 25.7843 133.872 25.9029 133.872 26.0111Z" fill="#263239"/>
<path d="M133.711 23.8801C133.83 23.9883 134.49 23.4369 135.464 23.3824C136.437 23.3287 137.184 23.7615 137.314 23.6316C137.444 23.5018 137.238 23.372 136.903 23.166C136.459 22.8959 135.951 22.7765 135.432 22.8198C134.923 22.8527 134.436 23.0474 134.047 23.372C133.744 23.6204 133.646 23.8472 133.711 23.8905L133.711 23.8801Z" fill="#263239"/>
<path d="M130.638 31.3558C130.107 31.2371 129.567 31.1722 129.026 31.1722C128.777 31.1722 128.539 31.1289 128.485 30.9558C128.453 30.6962 128.485 30.4365 128.604 30.2089L129.22 28.2615C130.075 25.4918 130.67 23.2198 130.562 23.1877C130.454 23.1549 129.664 25.3732 128.82 28.1212L128.236 30.0791C128.095 30.3933 128.074 30.7395 128.171 31.064C128.215 31.1506 128.268 31.2259 128.344 31.2804C128.42 31.3341 128.506 31.3774 128.604 31.399C128.744 31.4319 128.896 31.4319 129.036 31.4319C129.577 31.4752 130.119 31.4535 130.648 31.3558H130.638Z" fill="#263239"/>
<path d="M130.562 42.1645C133.894 42.0018 137.129 40.9095 139.877 39.027C139.877 39.027 137.8 44.047 130.67 43.8411L130.562 42.1749L130.562 42.1645Z" fill="#AB6550"/>
<path d="M131.211 33.6926C131.384 33.4442 131.612 33.2494 131.882 33.1196C132.153 32.9898 132.445 32.9248 132.748 32.9465C132.964 32.9465 133.18 33.0002 133.375 33.0867C133.57 33.1733 133.754 33.3031 133.895 33.4658C134.036 33.6173 134.133 33.812 134.154 34.0284C134.186 34.2336 134.154 34.4499 134.046 34.6343C133.906 34.8178 133.71 34.9476 133.494 35.0238C133.277 35.0991 133.04 35.0991 132.813 35.0454C132.337 34.9156 131.893 34.688 131.514 34.3746C131.395 34.2985 131.298 34.2119 131.222 34.1037C131.19 34.05 131.168 33.9851 131.168 33.9202C131.168 33.8553 131.19 33.7904 131.222 33.7359" fill="#AB6550"/>
<path d="M133.56 31.843C133.397 31.843 133.462 32.9033 132.608 33.6935C131.742 34.4829 130.606 34.4612 130.617 34.6127C130.617 34.7642 130.877 34.8075 131.353 34.7858C131.98 34.7538 132.565 34.5045 133.019 34.083C133.452 33.6718 133.722 33.1085 133.743 32.5138C133.755 32.0915 133.625 31.843 133.549 31.843L133.56 31.843Z" fill="#263239"/>
<path d="M133.288 21.0343C133.396 21.294 134.37 21.0992 135.517 21.1642C136.675 21.2291 137.627 21.4887 137.757 21.2291C137.822 21.1105 137.637 20.8724 137.248 20.6128C136.729 20.3315 136.156 20.1688 135.56 20.1367C134.965 20.1151 134.381 20.2233 133.84 20.4613C133.429 20.6881 133.256 20.9157 133.288 21.0343Z" fill="#263239"/>
<path d="M124.277 21.4671C124.46 21.6731 125.12 21.4022 125.932 21.3485C126.743 21.2836 127.436 21.4022 127.587 21.1538C127.652 21.0344 127.522 20.8188 127.208 20.6344C126.797 20.3964 126.311 20.2995 125.845 20.3532C125.369 20.3964 124.915 20.5799 124.547 20.8829C124.277 21.1321 124.2 21.3701 124.287 21.4671H124.277Z" fill="#263239"/>
<path d="M130.702 43.7768L130.561 42.1643C130.561 42.1643 127.478 41.3854 125.876 39.4059C123.961 37.0794 122.825 32.2436 123.193 29.2576C123.518 26.6281 123.247 23.0362 127.456 22.0953C129.306 21.673 128.938 18.3303 129.923 16.5447C130.929 14.6947 130.777 14.078 132.866 13.6668C134.9 13.4072 136.944 13.4288 138.967 13.7318C138.35 14.2511 137.918 14.8353 138.015 15.3546C138.145 16.047 139.248 17.7677 139.649 18.3407C141.163 20.5262 142.051 23.0795 142.213 25.7305C142.397 28.7599 141.629 31.778 140.666 34.6559C139.703 37.5338 138.426 42.8896 137.788 45.8645C137.15 48.8289 137.042 54.5847 139.194 56.7381C142.894 60.4382 151.041 58.7288 149.451 57.614C146.908 56.0889 144.68 54.6712 145.221 50.6361C145.675 51.8583 146.54 52.8865 147.655 53.5461C148.78 54.2064 150.089 54.4765 151.377 54.293C149.678 51.9448 148.921 49.0349 149.278 46.157C149.819 46.6763 150.446 47.0762 151.139 47.3463C151.831 47.6172 152.578 47.747 153.324 47.7254C154.806 47.6717 156.289 47.4224 157.706 46.9897C158.788 46.7084 160.043 46.2323 160.259 45.14C160.497 43.8417 159.058 42.9001 157.792 42.5218C156.527 42.1427 155.012 41.7428 154.601 40.4982C154.135 39.1029 155.423 37.7069 155.423 36.2355C155.423 34.3858 153.573 33.2174 152.34 31.8646C150.143 29.3978 149.808 25.8708 149.451 22.6251C149.105 19.3689 148.455 15.7766 145.924 13.6885C145.34 13.2449 144.701 12.877 144.03 12.5957C143.587 11.0162 142.592 9.64214 141.228 8.71169C139.757 7.73797 138.102 7.08882 136.349 6.81835C132.919 6.12592 129.36 6.52624 126.158 7.95436C124.567 8.67924 123.15 9.71787 121.982 11.0053C120.813 12.3036 119.926 13.8183 119.374 15.4736C118.952 16.8368 118.757 18.3191 117.957 19.4771C117.156 20.6343 115.317 21.2731 114.289 20.2881C114.289 21.6626 114.57 23.0258 115.121 24.2912L113.196 24.0644C112.926 25.2216 113.11 26.4446 113.704 27.4832C114.31 28.5107 115.274 29.2784 116.42 29.6142C115.187 30.6961 115.089 32.6115 115.685 34.1262C116.279 35.6408 117.437 36.8414 118.584 37.9986C117.675 38.1613 116.864 38.6373 116.301 39.3626C115.728 40.0871 115.447 40.9855 115.512 41.9047C115.652 42.4673 115.695 43.0515 115.63 43.6253C115.414 44.5125 114.505 44.999 113.889 45.6697C113.499 46.1025 113.218 46.6218 113.077 47.1844C112.937 47.747 112.947 48.3425 113.088 48.9051C113.24 49.4677 113.521 49.987 113.921 50.4085C114.321 50.8309 114.819 51.1442 115.371 51.3285L116.604 51.8478C116.604 51.8478 117.567 49.6512 118.563 48.8401C119.558 48.0283 124.026 45.4966 127.38 44.9557L130.734 44.4147L130.647 43.7768H130.702Z" fill="#263239"/>
<path d="M146.314 57.3328C146.152 57.3977 145.968 57.4298 145.795 57.4298C145.286 57.4298 144.789 57.2999 144.356 57.0515C143.187 56.4344 141.932 54.8765 141.099 52.691C140.883 52.118 140.742 51.5225 140.656 50.9062C140.58 50.2459 140.58 49.5759 140.656 48.9155C140.872 47.4658 141.348 46.0593 142.062 44.7826C142.765 43.4194 143.663 42.0666 144.529 40.6601C145.438 39.2104 146.206 37.6853 146.833 36.0953C147.45 34.5157 147.829 32.86 147.948 31.161C147.98 30.3604 147.948 29.5493 147.829 28.7487C147.71 27.9914 147.515 27.234 147.245 26.5096C146.163 23.6637 144.291 21.576 142.765 19.8554C141.976 19.0115 141.251 18.2542 140.623 17.573C140.061 16.9992 139.65 16.3067 139.422 15.5278C139.293 15.0301 139.303 14.5108 139.466 14.0347C139.52 13.8724 139.595 13.7102 139.714 13.5803C139.714 13.5803 139.617 13.7318 139.531 14.0564C139.39 14.5324 139.39 15.0301 139.531 15.4953C139.779 16.2418 140.201 16.9018 140.764 17.4536C141.381 18.1244 142.149 18.8488 142.939 19.6927C144.497 21.3805 146.401 23.4906 147.526 26.4014C147.807 27.1475 148.013 27.9152 148.143 28.6942C148.262 29.506 148.294 30.3387 148.262 31.161C148.153 32.892 147.775 34.6014 147.136 36.2243C146.509 37.8368 145.73 39.3843 144.799 40.8445C143.923 42.2622 143.025 43.5925 142.333 44.9341C141.629 46.1891 141.153 47.5523 140.926 48.9588C140.764 50.2034 140.905 51.4688 141.327 52.6589C142.106 54.8011 143.317 56.3591 144.41 56.9754C144.832 57.2358 145.297 57.3761 145.795 57.3977C146.141 57.3648 146.314 57.3224 146.325 57.3328H146.314Z" fill="#455A64"/>
<path d="M148.706 22.5386C148.706 22.5386 148.468 21.8566 147.971 20.818C147.678 20.2121 147.311 19.6607 146.867 19.1518C146.315 18.5572 145.655 18.0699 144.909 17.7133C144.151 17.3563 143.405 16.9451 142.702 16.4799C142.117 16.0796 141.652 15.5386 141.338 14.9111C141.122 14.4892 141.025 14.0023 141.079 13.5263C141.079 13.3532 141.144 13.1801 141.241 13.0394C141.241 13.2017 141.23 13.3748 141.209 13.5371C141.209 13.9699 141.338 14.3918 141.544 14.7705C141.879 15.3439 142.334 15.8308 142.886 16.1986C143.589 16.6314 144.324 17.0209 145.071 17.3671C145.839 17.7349 146.532 18.2542 147.094 18.8922C147.549 19.4548 147.916 20.0718 148.176 20.7426C148.36 21.1642 148.511 21.6082 148.63 22.0513C148.706 22.3439 148.739 22.517 148.706 22.5274V22.5386Z" fill="#455A64"/>
<path d="M114.56 23.8367C114.95 24.0851 115.361 24.2911 115.793 24.453C117.005 24.8753 118.325 24.8753 119.537 24.453C120.424 24.1284 121.236 23.6307 121.917 22.9816C122.599 22.3325 123.15 21.5647 123.54 20.6992C124.016 19.6926 124.33 18.6107 124.482 17.4967C124.6 16.2742 124.903 15.0732 125.357 13.9372C125.866 12.8553 126.602 11.8924 127.511 11.1026C128.42 10.3236 129.48 9.73942 130.627 9.39321C132.509 8.85225 134.5 8.88471 136.361 9.51221C137.616 9.9017 138.752 10.5833 139.693 11.5029C139.942 11.7518 140.169 12.0331 140.364 12.3252C140.44 12.4226 140.494 12.5307 140.537 12.6498C140.256 12.2711 139.953 11.9141 139.617 11.5787C138.665 10.724 137.54 10.0964 136.306 9.72859C134.489 9.15518 132.553 9.13355 130.735 9.6745C129.631 10.0207 128.614 10.5833 127.749 11.3406C126.883 12.098 126.169 13.0284 125.682 14.0671C125.228 15.1814 124.946 16.3499 124.828 17.5512C124.676 18.6868 124.341 19.7904 123.843 20.829C123.443 21.7162 122.859 22.5168 122.145 23.1763C121.419 23.8367 120.575 24.3448 119.656 24.659C118.401 25.0701 117.038 25.0268 115.805 24.5508C115.469 24.4209 115.166 24.2478 114.874 24.0427C114.776 23.977 114.69 23.9016 114.615 23.8151L114.56 23.8367Z" fill="#455A64"/>
<path d="M116.562 46.9577C116.562 46.9577 116.898 46.8383 117.482 46.5786C118.293 46.222 119.04 45.7131 119.69 45.0968C120.642 44.1768 121.377 43.0516 121.821 41.7966C122.373 40.2715 122.426 38.6157 121.962 37.0682C121.453 35.4349 120.609 33.9315 120.447 32.3735C120.295 31.0103 120.522 29.6255 121.106 28.3921C121.496 27.5586 122.037 26.8125 122.708 26.185C122.892 26.0119 123.087 25.8604 123.292 25.7194C123.433 25.6224 123.508 25.5791 123.52 25.5895C123.52 25.6007 123.249 25.8276 122.805 26.2715C122.188 26.9207 121.691 27.6668 121.334 28.4891C120.804 29.7008 120.598 31.0319 120.75 32.3519C120.933 33.8337 121.745 35.3051 122.286 36.9929C122.773 38.6045 122.719 40.3468 122.123 41.9264C121.647 43.2143 120.88 44.3611 119.873 45.2803C119.202 45.9078 118.413 46.3951 117.558 46.7197C117.331 46.8166 117.093 46.8815 116.855 46.9465C116.779 46.9793 116.692 46.9897 116.606 46.9897L116.562 46.9577Z" fill="#455A64"/>
<path d="M151.659 14.0348C151.778 10.973 153.044 8.07343 155.208 5.90961C157.361 3.74579 160.26 2.45832 163.311 2.32849H163.928C170.744 2.43667 174.466 8.279 174.173 15.0842L174.119 42.3375C174.119 42.3375 163.473 48.6126 163.073 48.829L158.323 52.2374L158.378 36.9168C158.378 36.9168 151.8 36.1819 151.432 29.6471C151.269 26.4663 151.432 19.9316 151.659 14.0239V14.0348Z" fill="#EB996E"/>
<path d="M158.324 36.8847C161.364 36.7549 164.296 35.7595 166.773 34.0068C166.773 34.0068 164.967 38.8001 158.421 38.4859L158.324 36.8847Z" fill="#D1734A"/>
<path d="M153.315 19.1197C153.315 19.3577 153.423 19.5958 153.596 19.7576C153.769 19.9307 154.007 20.0181 154.245 20.0181C154.364 20.0181 154.483 20.0069 154.592 19.9636C154.7 19.9203 154.808 19.8554 154.894 19.7689C154.981 19.6823 155.046 19.5853 155.1 19.4771C155.143 19.369 155.176 19.2495 155.176 19.1309C155.176 18.8929 155.068 18.6549 154.884 18.4922C154.711 18.3191 154.473 18.2325 154.235 18.2325C154.116 18.2325 153.996 18.2438 153.888 18.287C153.78 18.3303 153.672 18.3952 153.585 18.4706C153.499 18.5571 153.434 18.6549 153.38 18.7631C153.326 18.8713 153.304 18.9899 153.304 19.1093L153.315 19.1197Z" fill="#263239"/>
<path d="M153.205 17.1831C153.324 17.3021 154.006 16.7503 155.012 16.707C156.018 16.6638 156.775 17.1398 156.862 17.01C156.948 16.8801 156.786 16.7395 156.451 16.5123C156.007 16.231 155.477 16.1012 154.958 16.1228C154.438 16.1444 153.93 16.3284 153.519 16.6529C153.237 16.9018 153.14 17.1182 153.205 17.1723V17.1831Z" fill="#263239"/>
<path d="M163.257 18.9144C163.257 19.1628 163.365 19.3904 163.549 19.5523C163.722 19.7254 163.96 19.812 164.198 19.812C164.317 19.812 164.436 19.8016 164.545 19.7583C164.653 19.715 164.761 19.6501 164.848 19.5635C164.934 19.477 164.999 19.3792 165.053 19.271C165.096 19.1628 165.129 19.0442 165.129 18.9248C165.129 18.6868 165.021 18.4488 164.848 18.2869C164.674 18.1138 164.436 18.0272 164.198 18.0272C164.079 18.0272 163.96 18.0376 163.852 18.0809C163.744 18.1242 163.636 18.1891 163.549 18.2652C163.463 18.3518 163.398 18.4488 163.344 18.557C163.3 18.6651 163.268 18.7846 163.268 18.9032L163.257 18.9144Z" fill="#263239"/>
<path d="M163.084 16.9452C163.203 17.0642 163.895 16.5124 164.891 16.4691C165.886 16.4258 166.654 16.9019 166.741 16.7721C166.827 16.6422 166.665 16.5016 166.33 16.2744C165.886 15.9931 165.356 15.8632 164.837 15.8849C164.317 15.9065 163.809 16.0904 163.398 16.415C163.116 16.6639 163.019 16.8911 163.084 16.9343V16.9452Z" fill="#263239"/>
<path d="M159.764 24.5509C159.223 24.4099 158.671 24.3345 158.119 24.3233C157.86 24.3233 157.622 24.2696 157.568 24.0965C157.535 23.8369 157.589 23.566 157.708 23.328C157.914 22.7117 158.141 22.0297 158.379 21.3372C159.31 18.5139 159.98 16.1986 159.861 16.1661C159.742 16.1337 158.898 18.3945 157.968 21.2074L157.351 23.2094C157.2 23.5227 157.167 23.8801 157.254 24.2151C157.297 24.3017 157.351 24.3882 157.427 24.4427C157.503 24.5076 157.589 24.5509 157.687 24.5726C157.827 24.6046 157.979 24.6158 158.119 24.6158C158.66 24.6591 159.212 24.6375 159.753 24.5397L159.764 24.5509Z" fill="#263239"/>
<path d="M162.739 25.1353C162.576 25.1353 162.62 26.2276 161.722 27.0394C160.824 27.8505 159.655 27.7863 159.655 27.9378C159.655 28.0893 159.915 28.1325 160.412 28.1325C161.051 28.1109 161.657 27.8729 162.133 27.4401C162.587 27.029 162.868 26.4664 162.912 25.8493C162.933 25.3733 162.803 25.1353 162.728 25.1353L162.739 25.1353Z" fill="#263239"/>
<path d="M162.64 13.0285C162.748 13.2882 163.755 13.1259 164.934 13.2124C166.113 13.3098 167.087 13.5803 167.227 13.3315C167.292 13.2124 167.108 12.9636 166.719 12.7148C166.189 12.4118 165.605 12.2387 164.999 12.1955C164.393 12.1522 163.787 12.2496 163.224 12.4768C162.813 12.6715 162.597 12.8987 162.64 13.0285Z" fill="#263239"/>
<path d="M153.445 14.262C153.64 14.4892 154.311 14.2187 155.144 14.1646C155.977 14.1105 156.68 14.2511 156.842 14.0023C156.907 13.8833 156.788 13.6669 156.474 13.4613C156.052 13.2233 155.566 13.1151 155.079 13.1476C154.592 13.1801 154.127 13.364 153.737 13.6669C153.456 13.9158 153.402 14.1538 153.445 14.262Z" fill="#263239"/>
<path d="M173.405 19.9315C173.513 19.877 177.841 18.4056 177.884 22.8847C177.938 27.3534 173.438 26.4879 173.427 26.3581C173.416 26.2282 173.405 19.9315 173.405 19.9315Z" fill="#EB996E"/>
<path d="M174.381 24.6694C174.381 24.6694 174.456 24.7239 174.586 24.7776C174.684 24.8209 174.792 24.8425 174.889 24.8425C174.986 24.8425 175.095 24.8209 175.192 24.7776C175.473 24.5941 175.711 24.3344 175.863 24.0315C176.014 23.7285 176.09 23.3823 176.068 23.0465C176.068 22.657 176.003 22.2788 175.841 21.9326C175.798 21.7811 175.722 21.6513 175.614 21.5431C175.506 21.4349 175.376 21.3587 175.225 21.3155C175.138 21.2938 175.041 21.305 174.954 21.3371C174.867 21.3804 174.803 21.4453 174.77 21.5319C174.705 21.6617 174.738 21.7482 174.716 21.7595C174.694 21.7699 174.619 21.6833 174.651 21.4998C174.673 21.3916 174.738 21.2834 174.824 21.2185C174.943 21.1207 175.105 21.0774 175.257 21.0991C175.441 21.1319 175.614 21.2185 175.755 21.3371C175.895 21.4565 176.003 21.6184 176.079 21.7915C176.274 22.1706 176.371 22.5921 176.361 23.0249C176.361 23.9337 175.895 24.7776 175.246 24.9723C175.127 25.0052 174.997 25.0156 174.878 24.994C174.759 24.9723 174.64 24.929 174.532 24.8537C174.391 24.7776 174.337 24.6806 174.381 24.6694Z" fill="#D1734A"/>
<path d="M178.62 119.737C178.609 119.943 178.62 120.149 178.685 120.354C178.793 120.884 178.945 121.404 179.139 121.901C179.789 123.578 180.86 125.05 182.266 126.175C183.662 127.3 185.339 128.036 187.113 128.306C187.643 128.393 188.184 128.425 188.725 128.414C188.931 128.425 189.136 128.414 189.342 128.349C189.342 128.295 188.498 128.349 187.178 128.101C185.469 127.765 183.857 127.029 182.493 125.948C181.141 124.844 180.07 123.438 179.377 121.836C178.815 120.581 178.674 119.737 178.642 119.749L178.62 119.737Z" fill="#455A64"/>
<path d="M163.875 122.161C163.875 122.323 163.918 122.485 164.015 122.615C164.102 122.756 164.232 122.853 164.383 122.918C164.534 122.983 164.697 122.994 164.859 122.961C165.021 122.929 165.162 122.853 165.281 122.734C165.4 122.615 165.476 122.474 165.508 122.312C165.541 122.15 165.519 121.988 165.465 121.836C165.4 121.685 165.292 121.555 165.162 121.468C165.021 121.382 164.87 121.327 164.708 121.327C164.599 121.327 164.491 121.35 164.394 121.393C164.296 121.436 164.199 121.5 164.123 121.577C164.048 121.652 163.983 121.739 163.939 121.847C163.896 121.944 163.875 122.053 163.875 122.161Z" fill="#455A64"/>
<path d="M149.821 129.929C150.243 129.637 150.622 129.28 150.946 128.869C152.602 126.965 153.651 124.617 153.965 122.118C154.051 121.61 154.062 121.09 153.997 120.581C153.943 120.581 153.922 121.166 153.748 122.096C153.327 124.519 152.299 126.803 150.773 128.739C150.427 129.118 150.102 129.518 149.81 129.929H149.821Z" fill="#455A64"/>
<path d="M158.227 44.7282C157.999 45.4855 157.696 46.2324 157.329 46.9353C156.788 48.1686 156.052 48.9805 155.976 48.9155C155.9 48.8506 156.506 47.9955 157.036 46.8054C157.567 45.6153 158.129 44.6745 158.216 44.7394L158.227 44.7282Z" fill="#263239"/>
<path d="M160.789 43.9708L174.086 32.7734L176.888 37.0899C176.888 37.0899 188.486 45.5833 190.682 47.9963L187.783 86.5877C187.783 86.5877 190.866 106.884 191.083 108.486C191.299 110.087 193.117 124.098 193.117 124.098C193.355 126.748 191.169 129.972 190.726 129.972C190.726 129.972 188.486 127.289 186.084 127.506C183.682 127.722 167.389 132.114 167.389 132.114L147.601 127.711L149.7 88.6866L150.403 62.5909L152.123 52.6045L156.04 48.6992L158.366 42.6076C158.366 42.6076 159.101 50.3869 159.199 50.084C159.307 49.7811 160.789 43.9924 160.789 43.9924L160.789 43.9708Z" fill="#0099FF"/>
<path d="M176.512 37.7503C176.36 38.0099 176.187 38.2479 175.982 38.4755C175.614 38.9299 175.073 39.5679 174.38 40.3252C173.006 41.8615 170.994 43.8851 168.83 46.1571C167.759 47.2823 166.742 48.3642 165.877 49.3916L165.768 49.511L165.66 49.4028C164.189 47.9314 163.128 46.5354 162.317 45.6049L161.365 44.523C161.235 44.4044 161.127 44.2746 161.03 44.1335C161.181 44.2201 161.311 44.3283 161.43 44.4581C161.679 44.6857 162.047 45.0423 162.447 45.4863C163.302 46.3839 164.405 47.7687 165.866 49.1864H165.649C166.515 48.1478 167.532 47.0443 168.603 45.9295C170.788 43.6575 172.822 41.6668 174.24 40.1633C174.943 39.4164 175.516 38.8001 175.906 38.3777C176.09 38.1509 176.285 37.945 176.512 37.7503Z" fill="#263239"/>
<path d="M154.04 107.945V107.349C154.04 106.938 154.094 106.365 154.137 105.651C154.235 104.158 154.375 102.026 154.549 99.4191C154.916 94.161 155.447 86.8906 156.085 78.8628C156.723 70.835 157.351 63.5862 157.87 58.3281C158.13 55.6987 158.368 53.5781 158.541 52.118C158.638 51.4143 158.725 50.8413 158.779 50.4302L158.844 49.9974L158.811 50.4406C158.768 50.8517 158.714 51.4143 158.638 52.1284C158.498 53.6214 158.303 55.742 158.076 58.3498C157.61 63.6078 157.015 70.8671 156.377 78.8948C155.739 86.9226 155.144 94.1506 154.754 99.4295C154.538 102.037 154.365 104.158 154.246 105.661C154.181 106.375 154.127 106.938 154.094 107.349C154.094 107.522 154.062 107.674 154.04 107.793C154.04 107.836 154.051 107.89 154.051 107.945H154.04Z" fill="#263239"/>
<path d="M168.375 116.069C168.331 116.146 164.22 113.928 159.178 111.115C154.148 108.302 150.101 105.954 150.144 105.867C150.188 105.791 154.299 108.01 159.341 110.823C164.372 113.636 168.418 115.983 168.375 116.069Z" fill="#263239"/>
<path d="M155.338 129.421C155.305 129.15 155.305 128.88 155.338 128.609L155.446 126.424C155.533 124.573 155.543 122.041 155.511 119.218C155.478 116.405 155.468 113.84 155.478 112.001V109.816C155.478 109.546 155.478 109.275 155.533 109.005C155.587 109.264 155.608 109.534 155.608 109.805C155.608 110.39 155.652 111.115 155.684 111.991C155.738 113.841 155.781 116.395 155.825 119.207C155.857 122.02 155.825 124.584 155.662 126.434C155.597 127.354 155.511 128.101 155.446 128.609C155.446 128.88 155.403 129.139 155.349 129.398L155.338 129.421Z" fill="#263239"/>
<path d="M116.12 100.079L149.02 100.815L149.615 89.8446L109.985 93.0791L116.12 100.09V100.079Z" fill="#EB996E"/>
<path d="M91.2234 65.4039L90.8555 66.2158C93.723 71.6902 104.153 91.5212 104.153 91.5212L116.973 97.7314L147.58 96.498V94.8431L131.828 88.6113L112.148 89.0978L101.578 68.1416C101.448 67.8819 101.253 67.6439 101.015 67.4708C100.777 67.2865 100.506 67.1678 100.214 67.1133L91.2234 65.4039Z" fill="#E1323D"/>
<path d="M116.973 97.7315C116.659 97.3524 116.378 96.9413 116.15 96.4981C115.686 95.7079 115.058 94.6156 114.387 93.4151C113.717 92.2137 113.121 91.0781 112.71 90.2663C112.461 89.8335 112.256 89.3903 112.094 88.9143C112.407 89.2926 112.678 89.7037 112.905 90.1469C113.37 90.9371 113.998 92.0294 114.669 93.2307C115.339 94.4208 115.934 95.5677 116.345 96.3899C116.594 96.8122 116.8 97.2658 116.962 97.7315H116.973Z" fill="#263239"/>
<path d="M119.829 95.0265L132.92 94.5937L123.031 89.4438L112.45 89.6819L119.818 95.0265H119.829Z" fill="#263239"/>
<path d="M147.58 94.8647C147.472 94.8968 147.364 94.908 147.256 94.8968L146.336 94.9288L142.96 95.0266C140.115 95.102 136.177 95.243 131.871 95.4161C127.554 95.578 123.594 95.687 120.749 95.7086H116.465C116.357 95.7086 116.248 95.7086 116.14 95.6758C116.248 95.6654 116.357 95.6654 116.465 95.6758L117.374 95.6437L120.749 95.5459C123.594 95.4706 127.522 95.3191 131.838 95.1677C136.155 95.005 140.104 94.8856 142.928 94.8752H147.212C147.331 94.8639 147.45 94.8639 147.558 94.8752L147.58 94.8647Z" fill="#263239"/>
<path d="M115.091 96.8226C115.005 96.704 114.928 96.5845 114.875 96.4547L114.291 95.3728C113.782 94.3991 113.057 93.0471 112.202 91.381L105.429 78.1488L100.399 68.1631L100.496 68.2385L93.4962 66.8103L91.5488 66.3888C91.3108 66.3455 91.0832 66.291 90.8668 66.2157C91.1048 66.2261 91.3428 66.259 91.5704 66.3127L93.5283 66.6589L100.55 67.9684H100.615L100.647 68.0333C102.119 70.9112 103.861 74.33 105.732 77.9973L112.418 91.2719L114.42 95.3191L114.95 96.4331C115.015 96.5629 115.07 96.7039 115.102 96.8442L115.091 96.8226Z" fill="#263239"/>
<path d="M107.29 89.4985C107.29 89.4985 107.831 88.9575 108.923 90.3528C110.016 91.7488 111.823 95.7952 111.823 95.7952L113.825 96.704C113.825 96.704 112.072 94.6484 112.072 93.8045C112.072 92.9606 113.392 92.9606 114.128 94.1723C115.004 95.4161 115.945 96.6174 116.973 97.7426C116.973 97.7426 116.302 100.209 116.118 100.09C115.934 99.9714 112.613 99.7982 112.613 99.7982L111.704 99.3759C111.704 99.3759 109.464 99.3759 109.346 98.7596C109.226 98.1425 105.526 95.6221 105.526 95.0595V91.5757C105.526 91.5757 103.828 87.4533 104.196 87.0421C104.564 86.6206 106.078 85.7118 107.279 89.5201L107.29 89.4985Z" fill="#EB996E"/>
<path d="M107.528 89.4439C107.528 89.4439 107.463 89.4439 107.365 89.4871C107.3 89.52 107.247 89.5633 107.214 89.6282C107.182 89.6931 107.16 89.758 107.171 89.8334C107.312 90.2773 107.485 90.9698 107.668 91.8136C107.853 92.6575 108.047 93.6633 108.361 94.6803C108.588 95.3623 108.945 95.9898 109.421 96.5308C109.822 97.0501 110.189 97.5261 110.524 97.9589C110.882 98.3804 111.206 98.8348 111.477 99.3221C111.065 98.943 110.687 98.5319 110.351 98.0887L109.194 96.7039C108.956 96.433 108.74 96.1413 108.545 95.8384C108.339 95.5026 108.177 95.1459 108.058 94.7669C107.788 93.8044 107.56 92.8306 107.409 91.8457C107.268 91.0884 107.139 90.4288 107.041 89.855C107.041 89.758 107.074 89.6602 107.127 89.5849C107.192 89.5088 107.268 89.4551 107.365 89.4334C107.485 89.3902 107.538 89.4118 107.538 89.4334L107.528 89.4439Z" fill="#D1734A"/>
<path d="M106.986 96.5517C106.294 94.9504 105.807 93.2739 105.537 91.5645C106.229 93.1657 106.716 94.8422 106.986 96.5517Z" fill="#D1734A"/>
<path d="M113.197 93.3172C113.197 93.3172 113.1 93.3172 112.948 93.3708C112.754 93.3708 112.559 93.447 112.418 93.5768C112.266 93.7387 112.321 94.0529 112.494 94.3774L113.013 95.4698L113.533 96.5413C113.716 96.8554 113.911 97.1575 114.052 97.3635C114.365 97.8395 114.506 98.1753 114.463 98.197C114.235 97.9806 114.03 97.753 113.846 97.4933C113.63 97.2337 113.424 96.974 113.23 96.6927C113.045 96.3577 112.851 95.9891 112.667 95.5996C112.472 95.2101 112.331 94.8535 112.169 94.4968C112.083 94.3237 112.04 94.1282 112.018 93.9447C112.018 93.8469 112.018 93.7603 112.05 93.6634C112.083 93.5768 112.126 93.4903 112.191 93.4254C112.288 93.3492 112.396 93.2843 112.526 93.2522C112.645 93.2194 112.775 93.2202 112.894 93.2418C113.11 93.2635 113.186 93.2955 113.186 93.3172H113.197Z" fill="#D1734A"/>
<path d="M172.4 51.6636C172.465 51.4472 172.573 51.2308 172.714 51.0473C173.049 50.528 173.428 50.0407 173.86 49.5975C174.488 48.9372 175.148 48.3209 175.851 47.7471C176.673 46.9681 177.636 46.3406 178.675 45.8974C179.757 45.5512 180.893 45.4318 182.029 45.5616C182.938 45.6482 183.836 45.778 184.723 45.9727C185.491 46.1138 186.108 46.2436 186.519 46.3302C186.746 46.3518 186.962 46.4167 187.168 46.5033C186.941 46.5033 186.714 46.4921 186.486 46.4488C186.064 46.4055 185.437 46.3189 184.68 46.2003C183.911 46.0809 183.013 45.919 181.996 45.8645C180.915 45.7564 179.811 45.8758 178.772 46.2108C177.766 46.6331 176.836 47.2278 176.024 47.9635C175.321 48.5261 174.65 49.1215 174.001 49.7594C173.428 50.3765 172.887 51.0145 172.378 51.6748L172.4 51.6636Z" fill="#263239"/>
<path d="M151.411 82.1517L151.865 90.4608C151.865 90.4608 164.188 96.227 172.259 98.3051C180.33 100.382 189.818 100.058 189.818 100.058L186.432 86.5443L151.411 82.1405V82.1517Z" fill="#EB996E"/>
<path d="M127.565 83.8501C127.533 83.5151 127.609 83.1689 127.76 82.8659C127.923 82.563 128.161 82.3146 128.464 82.1519C129.535 81.4923 131.774 80.0313 131.774 80.0313L138.547 79.415L151.368 82.1519L151.822 90.4609C151.822 90.4609 145.288 90.8288 143.773 90.7751C142.258 90.7206 138.038 89.3678 138.038 89.3678C138.038 89.3678 130.963 90.2662 130.649 89.8767C130.336 89.4872 129.859 89.0328 130.313 88.7515C130.768 88.4702 136.221 87.0637 136.221 87.0637L132.565 86.7824C132.565 86.7824 127.219 87.9076 126.83 87.7345C126.44 87.5726 125.932 86.8906 126.268 86.3825L126.603 85.8736C126.505 85.614 126.516 85.3222 126.613 85.0626C126.722 84.8029 126.917 84.5866 127.166 84.4671L127.674 84.294L127.565 83.8396V83.8501Z" fill="#EB996E"/>
<path d="M137.27 83.7531C136.75 83.9478 136.188 84.0344 135.635 84.0232C134.618 84.0993 133.169 83.9366 131.719 84.359C131.038 84.6074 130.367 84.8887 129.718 85.2133C129.166 85.4513 128.603 85.6573 128.019 85.8304C127.499 86.0251 126.948 86.1333 126.396 86.1549C126.396 86.1117 127.013 85.949 127.954 85.614C128.43 85.4409 128.993 85.2245 129.598 84.9432C130.259 84.6074 130.93 84.3157 131.622 84.056C132.346 83.8501 133.082 83.7531 133.829 83.7635H135.625C136.642 83.8068 137.258 83.6986 137.27 83.7419L137.27 83.7531Z" fill="#D1734A"/>
<path d="M136.674 81.8168C136.198 81.9787 135.7 82.0436 135.202 82.0003C134.045 81.8921 132.866 82.0436 131.773 82.4547C130.507 82.9852 129.36 83.4933 128.516 83.8396C128.073 84.0559 127.607 84.2186 127.131 84.3268C127.532 84.0455 127.975 83.8179 128.43 83.6344C129.252 83.2449 130.377 82.6927 131.665 82.163C132.281 81.9033 132.942 81.7519 133.612 81.7302C134.229 81.7302 134.759 81.7623 135.214 81.7839C136.133 81.8705 136.663 81.8272 136.674 81.8272L136.674 81.8168Z" fill="#D1734A"/>
<path d="M190.674 47.9635C190.674 47.9635 194.092 53.4059 194.633 56.0674C195.174 58.7289 196.484 86.7496 195.953 87.2801C195.488 87.7129 195.001 88.1136 194.493 88.4814C194.493 88.4814 197.576 89.141 196.624 90.7422C196.062 91.7055 195.445 92.636 194.774 93.5231C194.774 93.5231 194.32 98.7051 193.746 98.8349C192.448 99.4192 191.182 100.08 189.949 100.794C189.949 100.794 180.644 95.7735 179.8 93.1224C178.957 90.4609 176.966 85.1492 176.966 85.1492L178.567 81.449L173.785 58.8692C173.785 58.8692 171.21 51.642 175.841 48.6888C180.46 45.7348 188.943 44.967 190.674 47.9531V47.9635Z" fill="#0099FF"/>
<path d="M174.671 63.1535C174.715 63.2617 174.747 63.3811 174.769 63.4893C174.823 63.7377 174.91 64.0623 175.007 64.4838C175.202 65.3822 175.483 66.6372 175.84 68.2272L178.696 81.4161V81.5027L177.106 85.2028V85.0834C178.015 87.6151 178.956 90.3743 180.005 93.1769L180.168 93.5335L180.416 93.8581C180.579 94.0849 180.752 94.2909 180.957 94.4752C181.152 94.6803 181.358 94.8639 181.574 95.0482C181.78 95.2317 181.985 95.416 182.191 95.5787C183.035 96.2711 183.922 96.8987 184.798 97.4829C186.562 98.6618 188.325 99.7108 190.013 100.641H189.872C190.684 100.187 191.474 99.7541 192.242 99.3542C192.631 99.1482 193.01 98.9543 193.41 98.7916L193.562 98.7267C193.562 98.7267 193.702 98.6834 193.702 98.673C193.746 98.6185 193.789 98.5536 193.81 98.4887C193.886 98.3043 193.94 98.1104 193.994 97.9261C194.308 96.4659 194.525 94.9729 194.644 93.4798V93.447C195.12 92.8307 195.542 92.2136 195.877 91.651C196.072 91.3593 196.245 91.0884 196.407 90.8071C196.483 90.6773 196.548 90.5474 196.602 90.4072C196.645 90.2774 196.656 90.1363 196.634 90.0065C196.526 89.4655 196.018 89.1626 195.606 88.9566C195.228 88.7731 194.827 88.6329 194.427 88.5247H194.319L194.416 88.4598C194.936 88.0919 195.304 87.8098 195.542 87.6047C195.78 87.3987 195.899 87.3017 195.909 87.3129C195.909 87.3129 195.909 87.345 195.834 87.4099C195.758 87.4644 195.693 87.5501 195.585 87.6583C195.228 87.9725 194.86 88.2754 194.481 88.5567V88.4598C194.903 88.5463 195.314 88.6866 195.715 88.8701C195.953 88.9895 196.169 89.1193 196.375 89.2812C196.613 89.4655 196.775 89.7252 196.851 90.0177C196.883 90.1796 196.883 90.3423 196.851 90.5042C196.786 90.6556 196.721 90.8071 196.634 90.9481C196.472 91.2294 196.299 91.5107 196.115 91.8025C195.747 92.4195 195.336 92.9925 194.882 93.6529V93.5984C194.773 95.1027 194.568 96.6061 194.265 98.088C194.222 98.2939 194.157 98.4999 194.07 98.705C194.027 98.8349 193.94 98.9535 193.821 99.0296L193.67 99.0833L193.529 99.1378C193.151 99.2997 192.772 99.5057 192.382 99.7004C191.614 100.112 190.824 100.544 190.024 100.999L189.959 101.042L189.883 100.999C188.185 100.068 186.41 99.0296 184.636 97.8395C183.727 97.2449 182.84 96.6061 181.996 95.9241C181.78 95.751 181.563 95.5787 181.379 95.3728C181.195 95.178 180.957 95.0049 180.763 94.7885C180.557 94.5826 180.362 94.367 180.2 94.1394C180.114 94.0208 180.027 93.9118 179.94 93.7932L179.746 93.3821C178.707 90.5475 177.766 87.8323 176.857 85.2789V85.1595L178.458 81.4594V81.546C177.333 76.158 176.392 71.5924 175.721 68.3354C175.396 66.7454 175.148 65.4688 174.974 64.5712C174.899 64.1488 174.834 63.8243 174.78 63.5646C174.747 63.4244 174.715 63.2833 174.704 63.1431L174.671 63.1535Z" fill="#263239"/>
<path d="M194.633 88.3837C194.633 88.3837 194.481 88.4815 194.168 88.5785C193.724 88.7195 193.248 88.7949 192.783 88.7844C192.447 88.7732 192.123 88.6867 191.82 88.5464C191.484 88.3837 191.171 88.1994 190.857 87.9942C190.208 87.5615 189.559 87.0422 188.823 86.5445C187.373 85.5387 186.01 84.6948 185.036 84.0777C184.484 83.7748 183.965 83.4174 183.478 83.0062C184.063 83.2443 184.614 83.5368 185.144 83.8726C186.151 84.4568 187.546 85.2678 189.007 86.2848C189.743 86.7825 190.403 87.3235 191.019 87.7458C191.528 88.1673 192.144 88.4486 192.794 88.5568C193.237 88.5785 193.692 88.5568 194.135 88.4486C194.297 88.3941 194.46 88.3621 194.633 88.3621V88.3837Z" fill="#263239"/>
<path d="M194.752 93.5336C194.557 93.6314 194.352 93.6738 194.135 93.6738C193.573 93.7171 193.01 93.6201 192.491 93.3821C190.857 92.5711 189.321 91.5966 187.893 90.4826C186.475 89.3574 185.123 88.1457 183.846 86.8474C183.349 86.3497 182.97 85.9498 182.71 85.6685C182.559 85.5387 182.429 85.376 182.321 85.2029C182.916 85.6573 183.478 86.155 184.009 86.6855C185.026 87.6264 186.421 88.9247 188.087 90.2229C189.505 91.3265 191.009 92.3114 192.588 93.177C193.064 93.4254 193.594 93.5552 194.124 93.5552C194.33 93.544 194.536 93.5336 194.752 93.5448V93.5336Z" fill="#263239"/>
<path d="M151.864 90.4504C151.605 90.5153 151.345 90.5362 151.085 90.5474L148.943 90.6772L145.773 90.8287L143.923 90.9048C143.577 90.8832 143.241 90.8175 142.917 90.7309L141.921 90.4929C140.537 90.1467 139.238 89.8012 138.059 89.4871H138.113C136.349 89.6498 134.856 89.7788 133.796 89.855L132.563 89.9311C132.411 89.9415 132.271 89.9415 132.119 89.9311C132.26 89.8766 132.401 89.8437 132.552 89.8333L133.786 89.6714C134.835 89.5416 136.328 89.3789 138.102 89.1946H138.156L142.008 90.1795L143.003 90.4175C143.306 90.5041 143.62 90.5578 143.945 90.5794L145.795 90.5145L148.965 90.428L151.107 90.3959C151.366 90.3847 151.615 90.3959 151.875 90.428L151.864 90.4504Z" fill="#EC9A6E"/>
<path d="M167.649 6.90489H167.693C168.742 7.67305 169.424 8.7766 169.608 9.98834V10.1073C169.867 11.8492 169.813 13.5911 170.094 15.3438C170.376 17.0857 171.025 18.8279 172.421 19.9964C172.994 20.4829 174.011 20.8187 174.476 20.2561C174.638 20.018 174.714 19.7472 174.714 19.4659C175.071 15.3005 176.315 11.6004 176.305 7.2511C176.305 6.66687 176.164 6.09346 175.883 5.56333C175.591 5.04401 175.179 4.58961 174.66 4.24339C173.665 3.59425 172.442 2.91264 171.328 3.3995C170.213 3.88637 168.785 5.77971 167.92 6.58032" fill="#263239"/>
<path d="M171.763 4.63295C172.769 3.05336 170.01 0.770527 167.998 0.186295C165.985 -0.397937 163.324 0.52169 161.322 1.16002C160.056 1.57114 158.79 2.13374 157.46 2.07964C156.573 1.99309 155.696 1.7767 154.874 1.44131C154.052 1.10592 153.154 0.932813 152.256 0.943632C151.812 0.943632 151.369 1.08428 150.99 1.31148C150.611 1.53868 150.308 1.87408 150.103 2.26357C149.767 3.06418 150.243 4.16773 151.141 4.28674C150.86 4.13527 150.535 4.05954 150.222 4.04872C149.908 4.0379 149.583 4.11363 149.291 4.25428C148.999 4.39493 148.75 4.60049 148.566 4.84933C148.382 5.09816 148.253 5.40111 148.209 5.70404C148.166 6.01779 148.199 6.33155 148.296 6.62366C148.404 6.91578 148.577 7.18626 148.815 7.40264C149.053 7.61902 149.335 7.77049 149.648 7.85704C149.962 7.9436 150.287 7.95441 150.6 7.8895C150.027 7.45673 149.129 8.1708 149.205 8.86322C149.28 9.20943 149.454 9.534 149.702 9.79366C149.951 10.0533 150.254 10.2589 150.6 10.3671C152.321 11.092 154.29 10.8539 156.053 10.2805C157.817 9.7071 159.45 8.80912 161.225 8.19243C162.988 7.57574 165.909 6.46138 167.651 7.07807C168.939 7.52165 170.572 8.70093 170.572 8.70093L171.438 7.96522C171.665 7.65148 171.806 7.30527 171.86 6.92659C171.957 6.19089 171.925 5.43356 171.784 4.69786" fill="#263239"/>
<path d="M148.262 99.4512L148.251 99.4513L148.251 99.4512H148.262Z" fill="#455A64"/>
</g>
</svg>
