<svg width="164" height="164" viewBox="0 0 164 164" fill="none" xmlns="http://www.w3.org/2000/svg">
<path d="M150.072 2H13.7646C7.26722 2 2 7.27259 2 13.7766V150.223C2 156.728 7.26722 162 13.7646 162H150.072C156.57 162 161.837 156.728 161.837 150.223V13.7766C161.837 7.27259 156.57 2 150.072 2Z" fill="#CCCDCE"/>
<path d="M45.6914 140.185L44.3851 144.108V144.115C44.3851 144.115 44.5887 152.454 44.7177 162H68.247V140.193H71.5089V140.185H45.6914Z" fill="#283135"/>
<path d="M79.6787 140.193H68.2469V162H87.132C83.2992 150.24 79.6787 140.185 79.6787 140.185L79.6787 140.193Z" fill="#283135"/>
<path d="M160.709 88.904C159.476 89.6016 158.826 91.0232 157.683 91.868C156.498 92.5992 155.127 92.9728 153.731 92.94C152.344 92.908 150.957 93.1272 149.65 93.6056C148.385 94.1912 147.354 95.5144 147.614 96.8792L161.837 96.7392V88.5048C161.442 88.5768 161.063 88.6984 160.709 88.904Z" fill="white"/>
<path d="M44.369 78.2394L43.4197 54.4914C42.9734 47.9452 45.8943 42.0731 52.45 41.8051H53.164C56.0768 41.8538 58.8678 43.0071 60.9774 45.0214C63.0866 47.0355 64.3606 49.7726 64.547 52.6883C64.904 58.398 65.2367 64.7247 65.1397 67.7866C64.9532 74.0729 58.6487 74.9825 58.6487 74.9825C58.6487 74.9825 58.9165 79.5473 58.9652 81.3748C58.9652 81.3748 58.2918 81.8619 52.4338 82.0728C46.5758 82.2848 44.369 78.2394 44.369 78.2394Z" fill="#B8B9B9"/>
<path d="M58.6406 74.9583C55.7522 74.8936 52.9368 74 50.5351 72.3917C50.5351 72.3917 52.4499 77.0051 58.738 76.5505L58.6406 74.9583Z" fill="#575656"/>
<path d="M62.381 58.4142C62.381 58.6498 62.2916 58.8772 62.1211 59.0396C61.9589 59.2102 61.7322 59.2995 61.4966 59.3076C61.2692 59.3238 61.0502 59.2427 60.872 59.0965C60.7015 58.9503 60.5962 58.7391 60.5718 58.5117C60.5718 58.2761 60.669 58.0569 60.8394 57.8863C61.0017 57.7239 61.229 57.6265 61.464 57.6183C61.6914 57.6021 61.9104 57.6752 62.0809 57.8295C62.2514 57.9757 62.3567 58.1868 62.3727 58.4142H62.381Z" fill="#283135"/>
<path d="M62.957 56.1726C62.8434 56.2944 62.162 55.7746 61.1965 55.7584C60.231 55.7422 59.517 56.2132 59.4195 56.0914C59.3141 55.9695 59.4845 55.8396 59.7928 55.6122C60.215 55.3279 60.7175 55.1818 61.229 55.198C61.7322 55.2061 62.2188 55.3766 62.6161 55.6772C62.9085 55.9127 63.0056 56.1238 62.9487 56.1726H62.957Z" fill="#283135"/>
<path d="M54.1133 58.5685C53.9997 58.6822 53.3181 58.1705 52.3607 58.1543C51.4115 58.138 50.6731 58.6092 50.5758 58.4873C50.4702 58.3655 50.6406 58.2274 50.957 58.0081C51.379 57.7238 51.8739 57.5776 52.385 57.5939C52.8882 57.5939 53.383 57.7644 53.7806 58.065C54.0646 58.3086 54.1619 58.5116 54.1051 58.5685H54.1133Z" fill="#283135"/>
<path d="M57.0585 63.7909C57.5778 63.6368 58.1133 63.5473 58.6569 63.539C58.9084 63.539 59.1356 63.4744 59.1843 63.3038C59.2086 63.0518 59.1599 62.7918 59.0302 62.5648L58.3323 60.672C57.6751 59.064 57.1397 57.4071 56.734 55.7178C57.5129 57.261 58.162 58.8691 58.6812 60.5097L59.3547 62.4101C59.5007 62.7106 59.5413 63.0518 59.4602 63.3767C59.4277 63.4661 59.3709 63.539 59.2979 63.6042C59.2248 63.6694 59.1437 63.7097 59.0545 63.7339C58.9166 63.7666 58.7705 63.7826 58.6326 63.7826C58.1133 63.8478 57.5778 63.8478 57.0585 63.7826V63.7909Z" fill="#283135"/>
<path d="M54.1618 55.9858C54.0402 56.2376 53.0909 56.0346 51.9469 56.0671C50.8028 56.0995 49.8617 56.327 49.7318 56.0671C49.6751 55.9534 49.8617 55.7259 50.2512 55.4985C50.7704 55.2305 51.3465 55.0843 51.9306 55.0762C52.5148 55.0681 53.0909 55.1899 53.6264 55.4335C54.0239 55.6447 54.2186 55.864 54.1618 55.9858Z" fill="#283135"/>
<path d="M63.3141 52.5259C63.1679 52.7776 62.3651 52.7289 61.4564 52.9075C60.5471 53.0944 59.801 53.4192 59.5819 53.2325C59.4765 53.135 59.5819 52.8995 59.8415 52.6233C60.247 52.2659 60.7419 52.0304 61.2776 51.933C61.8134 51.8274 62.3651 51.8599 62.876 52.0467C63.2413 52.2254 63.3952 52.4203 63.3141 52.5178V52.5259Z" fill="#283135"/>
<path d="M42.5516 63.718C42.5516 63.718 42.4705 63.7749 42.3406 63.8317C42.2514 63.8721 42.1541 63.8886 42.0648 63.8886C41.9755 63.8886 41.8701 63.8721 41.7889 63.8317C41.513 63.6611 41.2778 63.4175 41.1236 63.1248C40.9694 62.8326 40.8964 62.5079 40.9046 62.1825C40.8883 61.8175 40.9532 61.4436 41.0993 61.1029C41.1398 60.9648 41.2129 60.8427 41.3102 60.7455C41.4075 60.6477 41.5293 60.5665 41.6591 60.518C41.7402 60.4937 41.8376 60.5014 41.9187 60.534C41.9998 60.5749 42.0648 60.6317 42.1054 60.7129C42.1702 60.8345 42.1054 60.9239 42.1702 60.9322C42.2351 60.9322 42.2594 60.8587 42.219 60.6804C42.1946 60.5749 42.1378 60.4854 42.0486 60.4202C41.9268 60.3313 41.7808 60.2987 41.6347 60.3147C41.4562 60.3473 41.2859 60.4285 41.1398 60.5423C41.0019 60.6637 40.8964 60.8185 40.8314 60.9891C40.653 61.3625 40.5638 61.7766 40.58 62.1992C40.5638 62.5808 40.6611 62.9625 40.864 63.2872C41.0668 63.6125 41.3589 63.872 41.7078 64.0345C41.8214 64.067 41.943 64.0753 42.0648 64.051C42.1784 64.0267 42.2919 63.9858 42.3893 63.9129C42.5597 63.8152 42.5597 63.718 42.5597 63.718L42.5516 63.718Z" fill="#575656"/>
<path d="M57.7239 66.4059C57.7239 66.4795 57.5048 66.6252 57.0748 66.6661C56.5068 66.723 55.9389 66.6175 55.4196 66.3734C54.8923 66.1464 54.4378 65.7807 54.1134 65.3097C53.878 64.944 53.8456 64.6679 53.9024 64.6353C53.9673 64.6033 54.5677 65.4318 55.6224 65.8946C56.6772 66.3574 57.6508 66.2353 57.7239 66.3983V66.4059Z" fill="#283135"/>
<path d="M117.61 55.929C117.61 55.929 117.439 54.9219 116.944 54.9219C116.612 54.9219 116.279 55.0112 115.995 55.19C115.711 55.3686 115.484 55.6204 115.346 55.929C115.005 56.6681 117.61 55.929 117.61 55.929Z" fill="#B8B9B9"/>
<path d="M104.912 71.9532L105.407 64.0184L107.006 55.8396C107.006 55.8396 108.254 54.5158 108.912 54.8163C109.578 55.1168 109.326 56.2214 109.326 56.2214C109.326 56.2214 111.07 54.3371 111.72 54.7675C112.377 55.198 112.134 56.2214 112.134 56.2214C112.134 56.2214 113.732 54.1259 114.454 54.7026C115.184 55.2792 114.454 56.2214 114.454 56.2214C114.454 56.2214 115.435 65.3749 114.941 68.6478C114.786 69.606 114.413 70.5079 113.845 71.2871C113.277 72.067 112.522 72.7005 111.662 73.1313L110.348 78.2803L103.858 74.7473L104.912 71.9532Z" fill="#B8B9B9"/>
<path d="M108.88 61.5656L73.6348 61.1757V58.3573L108.88 57.3665V61.5733V61.5656Z" fill="#575656"/>
<path d="M146.096 64.3591L96.2952 62.256C95.6792 60.4693 95.6792 58.536 96.2952 56.7492L145.796 54.5563C148.027 56.928 148.043 61.9147 146.088 64.3591H146.096Z" fill="#575656"/>
<path d="M145.618 55.0194C145.618 55.0194 144.117 56.4245 144.174 59.4864C144.23 62.5482 145.772 63.8318 145.772 63.8318C146.851 62.4837 147.354 60.7532 147.167 59.0397C146.899 56.0428 145.618 55.0194 145.618 55.0194Z" fill="#E1DEDC"/>
<path d="M143.622 64.3592C143.216 64.0344 142.883 63.6202 142.656 63.1491C142.007 62.0528 141.666 60.8018 141.674 59.5269C141.674 58.26 141.975 57.0173 142.542 55.8884C142.754 55.4092 143.094 54.9868 143.517 54.67C143.574 54.67 143.192 55.1656 142.802 56.0102C142.332 57.1228 142.089 58.3168 142.08 59.5269C142.08 60.7289 142.348 61.923 142.875 63.0032C143.143 63.4335 143.394 63.8886 143.614 64.3432L143.622 64.3592Z" fill="#283135"/>
<path d="M145.837 54.6782C145.894 54.7269 145.529 55.1899 145.123 56.0345C144.603 57.131 144.344 58.3411 144.368 59.5513C144.393 60.7698 144.701 61.9633 145.261 63.0436C145.472 63.4987 145.78 63.9046 146.145 64.246C146.145 64.246 145.975 64.246 145.748 64.0753C145.439 63.8317 145.188 63.5307 145.01 63.19C144.344 62.0937 143.97 60.8427 143.946 59.5676C143.922 58.2843 144.238 57.0173 144.871 55.9046C145.09 55.4254 145.423 55.003 145.837 54.6782Z" fill="#283135"/>
<path d="M146.486 57.2285C146.429 57.066 146.34 56.9199 146.226 56.798C146.17 56.733 146.097 56.6843 146.015 56.6599C145.934 56.6356 145.845 56.6275 145.764 56.6356C145.682 56.6519 145.602 56.7005 145.537 56.7574C145.472 56.8143 145.431 56.8955 145.406 56.9767C145.366 57.1472 145.382 57.3178 145.463 57.4721C145.65 57.8295 145.942 58.1706 145.926 58.5279C145.91 58.8853 145.829 59.2508 145.853 59.6082C145.853 59.7381 145.902 59.868 145.975 59.9736C146.007 60.0305 146.064 60.0711 146.121 60.1037C146.178 60.1363 146.242 60.144 146.315 60.144C146.534 60.144 146.632 59.8762 146.681 59.665C146.867 58.8528 146.802 58 146.486 57.2285Z" fill="white"/>
<path d="M96.288 62.4343C95.76 61.5732 95.5248 60.5748 95.6056 59.5756C95.5656 58.5684 95.8416 57.5776 96.4016 56.7411C96.5232 56.7898 96.0608 58.008 96.044 59.5836C96.028 61.1596 96.4016 62.394 96.288 62.4343Z" fill="#283135"/>
<path d="M73.5614 61.8418C73.4234 61.8418 73.2854 61.7849 73.1801 61.6871C73.083 61.5899 73.0262 61.4518 73.0262 61.3054V58.3167C73.0262 58.1786 73.083 58.0406 73.1801 57.935C73.2778 57.8294 73.4157 57.7806 73.5614 57.7806C73.7075 57.7806 73.8372 57.8375 73.9426 57.935C74.0486 58.0325 74.1054 58.1706 74.1054 58.3167V61.3138C74.1054 61.4518 74.0402 61.5899 73.9426 61.6871C73.8455 61.7849 73.7075 61.8418 73.5614 61.8418Z" fill="#575656"/>
<path d="M73.5612 61.8418C73.5612 61.8418 73.7074 61.8418 73.8454 61.6551C73.9347 61.5734 73.9833 61.4519 73.9833 61.3381V60.7775C73.9833 60.2987 73.9833 59.8031 73.9424 59.2914V58.4142C73.9507 58.3655 73.959 58.3087 73.9424 58.2599C73.9265 58.2112 73.9105 58.1625 73.8779 58.1218C73.8454 58.0813 73.8045 58.0488 73.7559 58.0245C73.7074 58 73.6589 57.9919 73.602 57.9919C73.5535 57.9919 73.4966 58.0082 73.4558 58.0326C73.4073 58.0569 73.3664 58.0894 73.3345 58.13C73.3019 58.1706 73.2776 58.2194 73.2694 58.2681C73.261 58.3168 73.2528 58.3737 73.2694 58.4224V59.2995C73.2694 59.8356 73.2528 60.3313 73.2208 60.7858V61.3464C73.2208 61.4033 73.2285 61.4678 73.2528 61.517C73.2776 61.5734 73.3096 61.6226 73.3505 61.6628C73.4966 61.8092 73.6423 61.8175 73.6346 61.8495C73.6346 61.8821 73.4801 61.939 73.245 61.7932C73.1717 61.744 73.1148 61.6794 73.0746 61.6059C73.0338 61.533 73.0018 61.4518 72.9934 61.3707V60.7858C72.9934 60.3064 72.9934 59.8112 72.9526 59.2995V58.4224C72.9366 58.2194 72.9934 58.0163 73.1231 57.8538C73.1966 57.7726 73.2776 57.6995 73.383 57.6508C73.4801 57.6021 73.5938 57.5778 73.6991 57.5778C73.8128 57.5778 73.9182 57.6021 74.0158 57.6508C74.113 57.6995 74.2023 57.7646 74.2751 57.8457C74.397 58.0082 74.4539 58.2112 74.4374 58.4142V59.2914C74.4374 59.8274 74.4214 60.323 74.3888 60.7775V61.3624C74.3728 61.4436 74.3486 61.5247 74.2994 61.5982C74.2509 61.6711 74.194 61.7363 74.1212 61.7849C73.6831 61.9313 73.5452 61.8578 73.5535 61.8418L73.5612 61.8418Z" fill="#283135"/>
<path d="M79.6871 67.7541C79.6871 67.7541 78.9323 58.4874 79.1597 57.6752C79.387 56.863 81.9343 53.996 82.8272 53.8986C83.72 53.8011 83.8168 54.7919 83.8168 54.7919C84.5632 54.2965 85.4152 53.9879 86.3 53.8904C86.6408 53.8579 86.9808 53.9554 87.2488 54.1585C87.5248 54.3615 87.7032 54.662 87.768 55.0031C88.36 54.6458 89.0664 54.5402 89.74 54.6945C90.2672 54.7919 90.876 55.7178 90.876 55.7178C90.876 55.7178 92.1736 55.1575 92.7984 55.7178C93.3096 56.2783 93.5936 57.0092 93.5936 57.7646C92.7656 57.7646 91.9552 58.0163 91.2816 58.5036C91.1352 60.5257 90.86 62.5322 90.4616 64.5139C89.9672 66.4955 88.0032 68.1441 87.3376 69.1674L86.8192 76.0142L78.4055 71.5716L79.6871 67.7624L79.6871 67.7541Z" fill="#B8B9B9"/>
<path d="M81.5775 58.3737C81.5206 57.9513 81.5532 57.5127 81.6752 57.0985C81.7966 56.6843 81.9996 56.3027 82.2672 55.9696C82.4864 55.596 82.7704 55.2711 83.1192 55.0194C83.468 54.7675 83.8656 54.5889 84.288 54.4915C83.6792 55.0194 83.1192 55.5879 82.608 56.2133C82.2104 56.9036 81.8617 57.6265 81.5697 58.3737H81.5775Z" fill="#575656"/>
<path d="M85.6672 58.2113C85.5448 57.8458 85.5208 57.4559 85.5776 57.0661C85.6424 56.6844 85.7888 56.3189 86.016 56.0102C86.3 55.5311 86.7376 55.1575 87.2656 54.9544C87.6632 54.8163 87.9304 54.8488 87.9392 54.8976C87.9464 54.9463 86.9656 55.2143 86.3808 56.2296C86.0808 56.863 85.8376 57.5209 85.6672 58.2032L85.6672 58.2113Z" fill="#575656"/>
<path d="M88.7176 57.9107C88.604 57.9107 88.7912 57.0091 89.5776 56.3107C90.3648 55.6123 91.2488 55.5147 91.2568 55.604C91.2656 55.6934 90.5432 55.9777 89.8616 56.6193C89.172 57.261 88.864 57.9432 88.7176 57.9026V57.9107Z" fill="#575656"/>
<path d="M110.259 70.0368C111.663 68.3799 110.592 63.9289 110.592 63.9289C111.184 63.7179 111.711 63.3766 112.142 62.9221C112.572 62.4669 112.896 61.9147 113.074 61.3221C113.57 59.332 112.579 58.999 112.579 58.999C112.246 59.1696 109.18 61.1591 107.606 61.9876C106.032 62.816 105.537 71.2629 105.537 71.2629" fill="#B8B9B9"/>
<path d="M105.545 71.2226C105.504 70.8569 105.504 70.4835 105.545 70.1096C105.586 69.395 105.658 68.3715 105.804 67.1046C105.95 65.6101 106.283 64.1322 106.794 62.7188C106.883 62.5078 106.998 62.3129 107.127 62.1256C107.273 61.9313 107.468 61.7766 107.695 61.6711C108.077 61.4602 108.49 61.2409 108.855 61.005L111.249 59.527C111.662 59.2751 112.052 59.0234 112.482 58.7798L112.563 58.731L112.644 58.7716C112.806 58.8528 112.944 58.9584 113.058 59.0965C113.172 59.2346 113.253 59.397 113.302 59.5675C113.39 59.8599 113.431 60.1683 113.406 60.477C113.374 61.2972 113.09 62.0854 112.596 62.7348C112.101 63.3849 111.419 63.872 110.64 64.1238L110.754 63.9129C111.111 65.4151 111.192 66.9665 110.981 68.5014C110.908 68.9238 110.762 69.3381 110.551 69.7197C110.47 69.8494 110.372 69.9633 110.259 70.061C110.308 69.923 110.372 69.7849 110.462 69.6628C110.632 69.2812 110.746 68.883 110.794 68.4694C110.924 66.9665 110.794 65.456 110.429 64.0018L110.389 63.8477L110.542 63.7908C111.435 63.4495 112.174 62.7917 112.628 61.9555C112.855 61.4922 112.986 60.9807 113.01 60.461C113.05 60.2252 113.034 59.9736 112.944 59.7543C112.855 59.5269 112.71 59.332 112.514 59.1858H112.677C112.303 59.4051 111.882 59.6731 111.484 59.9249C110.689 60.4367 109.886 60.9322 109.09 61.4033C108.701 61.6385 108.295 61.8578 107.914 62.0694C107.735 62.1422 107.582 62.2637 107.468 62.4101C107.346 62.5647 107.249 62.7348 107.175 62.9221C106.656 64.2945 106.307 65.7322 106.129 67.1941C105.934 68.4445 105.821 69.4678 105.731 70.1748C105.707 70.5322 105.65 70.8812 105.553 71.2302L105.545 71.2226Z" fill="#575656"/>
<path d="M85.4808 158.962H88.7176C88.7176 158.962 89.464 147.77 87.5896 140.185C85.724 132.599 76.1739 99.6817 76.1739 99.6817L65.6022 82.2273L59.9309 79.7014L78.5513 142.199L85.4808 158.97L85.4808 158.962Z" fill="#48575D"/>
<path d="M42.1539 78.995L43.0302 73.3992L58.6488 80.416V77.0377L65.5452 88.5625L80.7179 131.722C81.2045 133.054 81.7965 137.489 80.9127 138.593L79.6712 140.193L63.2246 142.329L47.6306 85.9393L42.1539 78.995Z" fill="#E1DEDC"/>
<path d="M60.466 85.4432C60.466 85.4432 67.606 109.777 67.5491 109.947C67.4923 110.126 75.4599 134.849 75.4599 134.849L77.0582 127.41L65.9591 90.3328L61.4966 84.8584L60.466 85.452V85.4432Z" fill="#5A5A5A"/>
<path d="M37.5132 81.3013C30.1947 85.7681 29.8134 92.696 33.075 100.648C33.6106 101.963 34.6734 104.23 35.3712 105.765C38.5192 112.473 45.0588 123.414 45.0588 125.971C45.0588 131.998 39.6714 159.946 39.6714 159.946C39.6714 159.946 68.88 163.494 71.5167 160.742C74.154 157.987 76.1822 140.762 75.3303 133.054C74.3974 124.55 70.0243 110.166 68.2472 104.838C67.1762 101.638 63.6551 93.6465 59.4603 88.4409C56.3203 84.5257 52.58 81.1389 48.3853 78.3941L42.1622 74.317L40.8884 78.6293C39.8498 79.6285 38.7221 80.5221 37.5132 81.3013Z" fill="#48575D"/>
<path d="M65.943 83.2104C66.5515 83.2104 93.2448 91.9416 91.6952 91.2992L92.4176 90.552L101.999 76.0385L110.778 81.2444C110.778 81.2444 102.097 97.8776 100.661 100.494C99.9712 101.768 98.9488 102.841 97.6992 103.58C96.4496 104.318 95.0296 104.709 93.5776 104.701C91.6224 104.701 74.9003 101.898 74.9003 101.898L65.943 83.2264L65.943 83.2104Z" fill="#48575D"/>
<path d="M76.6769 73.2202L78.7459 69.5574L88.044 74.8527L86.6 78.8812L76.6853 73.2124L76.6769 73.2202Z" fill="#E1DEDC"/>
<path d="M35.7928 100.891C35.5656 100.721 62.7053 110.386 68.2386 108.639C73.7725 106.902 75.5574 101.443 77.537 98.0328C81.1558 91.852 87.5656 79.5632 87.5656 79.5632L76.0848 72.9849L64.6529 92.168C64.6529 92.168 44.4094 83.8112 42.5514 83.2672C40.6934 82.7232 34.9327 81.9757 32.1255 88.7088C28.9774 96.1648 35.7928 100.891 35.7928 100.891Z" fill="#48575D"/>
<path d="M35.7929 100.891C35.7198 100.858 35.6468 100.818 35.5818 100.762C35.4521 100.664 35.2654 100.51 35.022 100.306C34.3243 99.6968 33.6914 99.0072 33.156 98.252C32.2634 97.0416 31.655 95.6528 31.371 94.1752C31.2898 93.728 31.233 93.2728 31.2168 92.8184C31.2168 92.3472 31.2654 91.86 31.2818 91.348C31.2979 90.8368 31.4602 90.3416 31.6144 89.8296C31.7766 89.3016 31.9632 88.7896 32.1904 88.2864C32.661 87.1896 33.3102 86.1752 34.1214 85.2968C35.0139 84.3392 36.1336 83.616 37.3831 83.2016C38.7299 82.7552 40.1579 82.6416 41.5615 82.8768C42.2918 82.9912 43.0138 83.1944 43.6954 83.4864L45.8131 84.2824C51.5169 86.524 57.8617 89.1232 64.7015 91.9416L64.4582 92.0224L75.8818 72.8386L75.9872 72.6602L76.166 72.7656L80.3117 75.1615L87.6792 79.3766L87.8568 79.4744L87.76 79.6527C85.496 83.9656 83.2736 88.148 81.0824 92.136C79.979 94.1336 78.8921 96.0832 77.7969 97.976C76.6934 99.868 75.8493 101.809 74.6973 103.571C73.6263 105.326 72.1494 106.804 70.397 107.868C69.5452 108.371 68.6205 108.729 67.6466 108.932C66.7054 109.038 65.7559 109.038 64.8152 108.932C61.4397 108.494 58.105 107.811 54.8354 106.886C48.8313 105.286 44.0849 103.686 40.8314 102.63C37.5697 101.574 35.801 100.883 35.801 100.883C35.9145 100.891 36.0282 100.924 36.1336 100.965L37.1073 101.265L40.8719 102.483C44.1498 103.514 48.9043 105.042 54.9002 106.609C58.1619 107.51 61.4882 108.177 64.8472 108.599C65.7642 108.705 66.6894 108.705 67.6058 108.599C68.5311 108.396 69.4155 108.047 70.2266 107.567C71.9303 106.52 73.3588 105.074 74.3971 103.361C75.5331 101.647 76.3767 99.6808 77.4802 97.7648C78.5837 95.848 79.6546 93.9312 80.7498 91.9416C82.932 87.9448 85.156 83.7624 87.4112 79.4495L87.5 79.7256L80.1092 75.5271L75.9712 73.1313L76.2471 73.0578C72.2062 79.8068 68.3447 86.28 64.7987 92.2416L64.7092 92.3872L64.5553 92.3232C57.7481 89.5048 51.3547 86.8896 45.7076 84.6072L43.5981 83.8032C42.9328 83.5192 42.2431 83.308 41.5291 83.1944C40.1742 82.9664 38.7948 83.072 37.4886 83.4864C36.2878 83.8848 35.2006 84.5752 34.3324 85.492C33.5373 86.3368 32.8963 87.32 32.4257 88.376C32.2067 88.8632 32.0119 89.3752 31.8497 89.8864C31.6874 90.3816 31.6225 90.8936 31.517 91.3728C31.4034 91.852 31.4116 92.3392 31.4359 92.8016C31.444 93.2488 31.4927 93.6952 31.5739 94.1336C31.8415 95.5872 32.4257 96.968 33.2858 98.1704C33.8131 98.9256 34.4217 99.624 35.0951 100.25C35.3223 100.47 35.5008 100.615 35.6307 100.721L35.8172 100.867L35.7929 100.891Z" fill="#283135"/>
<path d="M48.8394 141.834L51.3547 136.733L68.9526 137.042L66.9973 142.313L48.8394 141.825L48.8394 141.834Z" fill="#48575D"/>
<path d="M48.8394 141.834H54.1052C57.3587 141.882 61.8535 141.947 67.0056 142.07L66.8031 142.207C67.4034 140.607 68.028 138.91 68.6691 137.172L68.7585 136.936L68.9526 137.22C61.8618 137.09 55.5413 136.961 51.3871 136.838L51.5089 136.766L49.5778 140.453C49.3587 140.858 49.1884 141.192 49.0504 141.46C48.9855 141.582 48.9206 141.704 48.8394 141.818C48.8394 141.818 48.8395 141.711 48.9773 141.492C49.1153 141.266 49.2533 140.9 49.4399 140.494L51.2329 136.668V136.586H51.3385C55.525 136.586 61.8453 136.701 68.9041 136.83H69.1965L69.0905 137.098L69.0017 137.334L67.1353 142.362L67.079 142.5H66.9328C61.6753 142.345 57.099 142.175 53.8698 142.045L50.1052 141.89L49.1153 141.842H48.8394L48.8394 141.834Z" fill="#283135"/>
<path d="M60.5794 89.8944C60.5226 90 56.0686 87.5472 50.6244 84.42C45.1802 81.2936 40.8232 78.6779 40.8719 78.5891C40.9206 78.4995 45.383 80.9363 50.8272 84.0624C56.2714 87.1896 60.6363 89.8048 60.5794 89.8944Z" fill="#283135"/>
<path d="M66.6653 128.359C66.6653 128.473 62.422 128.294 57.2047 127.962C51.9796 127.629 47.7525 127.262 47.7605 127.166C47.7605 127.06 52.012 127.23 57.229 127.563C62.454 127.896 66.6731 128.254 66.6653 128.359Z" fill="#283135"/>
<path d="M102.575 76.4202L104.344 73.4318L111.37 77.5414L110.008 80.7899L102.575 76.4285L102.575 76.4202Z" fill="#E1DEDC"/>
<path d="M93.5288 97.432C92.7584 96.652 92.1656 95.7096 91.8088 94.6776C91.452 93.6384 91.3384 92.5336 91.468 91.4456C91.5896 91.4456 91.6304 92.8832 92.1984 94.54C92.7744 96.1968 93.6504 97.3584 93.5208 97.432H93.5288Z" fill="#283135"/>
<path d="M76.3367 100.29C77.0181 101.906 77.5699 103.572 77.9919 105.277C78.5431 106.942 78.9651 108.648 79.2493 110.386C78.5756 108.77 78.0239 107.096 77.5941 105.399C77.0424 103.734 76.6203 102.029 76.3367 100.29Z" fill="#283135"/>
<path d="M65.5534 98.2032C64.8394 97.3752 64.3688 96.3592 64.19 95.2792C64.0118 94.1992 64.1255 93.0864 64.5227 92.0712C64.4741 93.1192 64.4985 94.1664 64.6038 95.2144C64.8471 96.2376 65.1638 97.2368 65.5534 98.2032Z" fill="#283135"/>
<path d="M58.2676 83.8193L58.4623 84.0224L60.4744 85.4432L61.4808 84.8753L60.8237 82.6496L58.6976 81.0496L58.2676 83.8193Z" fill="#5A5A5A"/>
<path d="M60.9772 81.0495C61.1962 81.6753 61.3501 82.3168 61.4313 82.9752L61.4964 83.3152L61.2045 83.1048C60.4983 82.6096 59.606 81.9514 58.5755 81.2042L58.892 81.0744C58.7946 81.7079 58.6891 82.3656 58.5918 83.056C58.5187 83.4704 58.4539 83.852 58.397 84.2664L58.3484 84.5504L58.0969 84.42C56.5634 83.6656 55.2328 82.9992 54.2835 82.4952C53.7561 82.26 53.2531 81.9674 52.7906 81.6267C53.3423 81.7725 53.8778 81.9841 54.3889 82.26C55.3707 82.6904 56.7337 83.324 58.2672 84.0552L57.9833 84.2096L58.1699 82.9992C58.2834 82.3088 58.3889 81.651 58.4863 81.0252L58.5431 80.6921L58.8027 80.8954C59.8088 81.6913 60.693 82.3576 61.3667 82.8936L61.1311 83.032C61.0097 82.3816 60.9606 81.7156 60.9689 81.0578L60.9772 81.0495Z" fill="#283135"/>
<path d="M49.4966 48.0345H49.4643C48.5393 48.7736 47.9389 49.8376 47.7766 51.0152V51.1371C47.5495 52.8264 47.59 54.5076 47.3466 56.1969C47.1032 57.8863 46.5271 59.5675 45.2939 60.6886C44.7908 61.1597 43.8983 61.4844 43.4846 60.9321C43.3385 60.7046 43.2736 60.4368 43.2736 60.1683C42.9571 56.1401 41.8618 52.5665 41.87 48.3675C41.87 47.8071 41.9916 47.2467 42.2431 46.7432C42.4947 46.2396 42.8679 45.801 43.3223 45.468C44.2066 44.8427 45.2776 44.1848 46.2594 44.6477C47.2411 45.1107 48.5068 46.9462 49.2614 47.7178" fill="#283135"/>
<path d="M46.1298 45.265C45.148 43.665 47.8418 41.3665 49.8133 40.7737C51.7849 40.1808 54.3812 41.1148 56.3447 41.7645C57.5861 42.1706 58.8112 42.7473 60.1257 42.6985C60.9936 42.6092 61.8455 42.3899 62.657 42.0488C63.4687 41.7077 64.3366 41.5371 65.2126 41.5453C65.6507 41.5533 66.0811 41.6833 66.4458 41.9189C66.8193 42.1544 67.1112 42.4873 67.3142 42.8772C67.6469 43.6894 67.1763 44.8021 66.3002 44.9157C66.576 44.7614 66.8844 44.6803 67.2006 44.6803C67.5173 44.6803 67.8251 44.7453 68.1093 44.8914C68.3934 45.0376 68.6367 45.2406 68.8232 45.5005C69.0097 45.7605 69.1316 46.0529 69.1725 46.3696C69.221 46.6863 69.1885 47.003 69.083 47.3036C68.9777 47.6041 68.8072 47.8721 68.5716 48.0833C68.3449 48.3025 68.0607 48.4569 67.7606 48.5381C67.4604 48.6193 67.1354 48.6356 66.8276 48.5705C67.387 48.1401 68.2638 48.8548 68.1903 49.5614C68.1175 49.9107 67.947 50.2356 67.712 50.5036C67.4764 50.7716 67.168 50.9665 66.8276 51.0803C65.1398 51.8113 63.217 51.5757 61.4967 50.999C59.7767 50.4224 58.1702 49.5127 56.4421 48.8955C54.7138 48.2701 51.866 47.1493 50.1541 47.7747C48.8883 48.2213 47.2981 49.4071 47.2981 49.4071L46.4542 48.66C46.2352 48.3513 46.0892 47.9858 46.0405 47.6122C45.9431 46.865 45.9756 46.1016 46.1216 45.3625" fill="#283135"/>
<path d="M43.8498 59.1208C43.7362 59.0721 39.5497 57.7726 39.6064 62.0687C39.6714 66.3656 43.9715 65.4234 43.9796 65.3096C43.9796 65.1875 43.8417 59.1208 43.8417 59.1208H43.8498Z" fill="#B8B9B9"/>
<path d="M161.837 146.112C161.006 147.064 160.247 148.114 159.233 148.867C157.513 150.15 155.338 150.386 153.237 150.467C151.135 150.548 148.977 150.605 147.054 151.474C145.131 152.343 143.565 154.374 143.963 156.437L160.146 156.285C161.212 154.512 161.837 152.443 161.837 150.223V146.112Z" fill="white"/>
<path d="M41.0181 118.719C41.5778 114.723 35.8822 111.368 31.6144 111.011C29.5779 110.849 27.4522 111.166 25.5293 110.491C21.3346 109.03 19.6714 103.62 15.5902 101.89C12.5314 100.607 9.01819 101.744 6.0649 103.238C4.71807 103.92 3.37591 104.678 2 105.323V119.078L41.0181 118.71V118.719Z" fill="white"/>
<path d="M150.235 2H13.9279C7.43048 2 2.16327 7.27259 2.16327 13.7766V150.223C2.16327 156.728 7.43048 162 13.9279 162H150.235C156.733 162 162 156.728 162 150.223V13.7766C162 7.27259 156.733 2 150.235 2Z" stroke="#5A5A5A" stroke-width="2.4"/>
</svg>
