<svg width="162" height="162" viewBox="0 0 162 162" fill="none" xmlns="http://www.w3.org/2000/svg">
<path d="M148.2 1H13.8C6.73076 1 1 6.73076 1 13.8V148.2C1 155.269 6.73075 161 13.8 161H148.2C155.269 161 161 155.269 161 148.2V13.8C161 6.73076 155.269 1 148.2 1Z" fill="#D4D6D7"/>
<path d="M122.912 120.464C123.256 120.392 126.064 133.232 125.696 138.224C125.328 143.216 122.912 160.576 122.912 160.576H111.352L109.264 136.008L109.656 160.576H94.12C94.12 160.576 90.52 143.696 91.168 138.584C91.808 133.472 95.224 120.024 95.224 120.024L122.912 120.456V120.464Z" fill="#242E33"/>
<path d="M110.432 123.424C110.456 123.584 110.464 123.744 110.456 123.904V125.216C110.432 126.32 110.36 127.848 110.216 129.528C110.072 131.208 109.872 132.72 109.728 133.816C109.648 134.36 109.576 134.808 109.52 135.112C109.496 135.272 109.464 135.432 109.416 135.584C109.416 135.424 109.416 135.264 109.448 135.104C109.488 134.76 109.536 134.328 109.6 133.808C109.728 132.712 109.896 131.2 110.04 129.52C110.184 127.84 110.272 126.32 110.328 125.224C110.36 124.696 110.376 124.256 110.4 123.92C110.4 123.76 110.4 123.6 110.432 123.44L110.432 123.424Z" fill="#425359"/>
<path d="M112.512 124.464C112.512 124.464 112.608 124.432 112.768 124.464C113 124.504 113.216 124.632 113.368 124.808C113.472 124.936 113.552 125.088 113.592 125.248C113.632 125.44 113.624 125.64 113.552 125.824C113.472 126.032 113.328 126.216 113.144 126.344C112.96 126.472 112.744 126.544 112.52 126.552C112.296 126.544 112.08 126.464 111.896 126.328C111.712 126.192 111.584 126 111.512 125.784C111.448 125.6 111.44 125.4 111.488 125.208C111.536 125.048 111.624 124.896 111.744 124.776C111.912 124.6 112.136 124.496 112.384 124.48C112.472 124.472 112.56 124.48 112.632 124.536H112.384C112.168 124.568 111.976 124.68 111.832 124.848C111.728 124.96 111.656 125.104 111.624 125.256C111.592 125.408 111.608 125.568 111.664 125.712C111.728 125.888 111.84 126.048 111.992 126.16C112.144 126.272 112.328 126.344 112.52 126.352C112.712 126.352 112.896 126.288 113.048 126.176C113.208 126.072 113.328 125.92 113.4 125.744C113.456 125.6 113.472 125.44 113.456 125.288C113.432 125.136 113.368 124.984 113.272 124.864C113.144 124.688 112.96 124.56 112.752 124.488C112.6 124.472 112.504 124.472 112.504 124.456L112.512 124.464Z" fill="#425359"/>
<path d="M124.632 126.616C124.536 126.672 124.44 126.712 124.328 126.728C124.048 126.808 123.752 126.864 123.456 126.888C122.472 126.976 121.488 126.8 120.6 126.376C119.712 125.952 118.952 125.296 118.408 124.48C118.24 124.24 118.104 123.984 117.984 123.72C117.936 123.624 117.896 123.52 117.88 123.408C117.912 123.408 118.08 123.824 118.512 124.416C119.072 125.192 119.816 125.808 120.68 126.216C121.544 126.624 122.496 126.808 123.448 126.752C124.168 126.712 124.616 126.568 124.624 126.608L124.632 126.616Z" fill="#425359"/>
<path d="M98.2 65.032C97.32 68.2243 96.0008 70.7843 94.7048 72.0643C93.4088 73.3443 92.024 74.8477 92.072 76.6717C92.088 77.384 92.328 78.1437 92.0168 78.792C91.608 79.624 90.536 79.8243 89.72 80.264C89.1368 80.6243 88.656 81.144 88.3368 81.752C88.0168 82.36 87.864 83.048 87.9048 83.736C88.0008 85.12 88.616 86.424 89.624 87.384C90.632 88.4 92.2248 89.104 93.48 88.416C94.232 88 94.664 87.184 95.04 86.408C97.0088 82.4 98.792 78.312 100.385 74.136" fill="#242E33"/>
<path d="M106.257 51.376C107.377 50.136 108.84 49.264 110.465 48.88C112.088 48.496 113.793 48.616 115.345 49.224C116.897 49.832 118.232 50.896 119.169 52.28C120.104 53.664 120.593 55.296 120.577 56.968C120.552 59.104 119.72 61.3437 120.577 63.304C121.169 64.68 122.552 65.7443 122.744 67.24C122.968 68.9763 121.48 70.5597 121.553 72.3037C121.608 73.448 122.321 74.456 123.144 75.2477C123.969 76.04 124.929 76.696 125.688 77.5523C127.784 79.944 127.921 83.712 126.337 86.464C124.753 89.216 121.681 90.952 118.52 91.32C115.361 91.696 112.145 90.824 109.336 89.32C107.512 88.336 105.8 87.024 104.721 85.264C103.64 83.504 103.265 81.208 104.12 79.32" fill="#242E33"/>
<path d="M112.976 77.9843C112.976 77.9843 120.104 80.088 120.8 81.216C121.496 82.344 123.736 95.584 123.736 95.584L119.368 111.192C119.368 111.192 122.984 117.016 123.151 119.96C115.064 125.176 105.936 123.72 96.376 119.536L95.688 104.288L94.7832 79.928L100.664 77.864L112.984 77.976L112.976 77.9843Z" fill="#DDDBD8"/>
<path d="M120.904 114.336H120.639L119.887 114.28L117.135 114.056L108.063 113.264L98.9912 112.416L96.2392 112.144L95.496 112.056C95.4072 112.056 95.32 112.04 95.24 112.016C95.3272 112.008 95.416 112.008 95.5032 112.016L96.2552 112.064L99.0072 112.288L108.08 113.08L117.152 113.92L119.904 114.2L120.648 114.28C120.735 114.288 120.816 114.304 120.904 114.328L120.904 114.336Z" fill="#575656"/>
<path d="M112.536 97.16C112.536 97.208 109.408 97.248 105.544 97.248C101.68 97.248 98.552 97.208 98.552 97.16C98.552 97.112 101.68 97.072 105.544 97.072C109.408 97.072 112.536 97.112 112.536 97.16Z" fill="#575656"/>
<path d="M121.952 86.6961C121.768 86.7281 121.584 86.7521 121.4 86.7521L119.88 86.8401C118.6 86.9121 116.832 87.016 114.88 87.1681C112.936 87.3201 111.168 87.4801 109.896 87.6081L108.384 87.7521C108.2 87.7761 108.016 87.7921 107.824 87.7841C108.008 87.736 108.192 87.704 108.376 87.688C108.72 87.632 109.248 87.568 109.88 87.488C111.152 87.328 112.912 87.144 114.864 87C116.816 86.848 118.584 86.7601 119.872 86.7281C120.512 86.7281 121.032 86.704 121.392 86.704C121.576 86.6961 121.76 86.704 121.952 86.72V86.6961Z" fill="#575656"/>
<path d="M120.8 81.2321L127.952 100.64L132.76 91.0801L139.032 92.3681L135.424 107.44C135.24 108.752 134.656 109.968 133.744 110.936C132.832 111.896 131.648 112.552 130.352 112.816C129.264 113.04 128.144 112.976 127.088 112.632C126.032 112.288 125.088 111.68 124.344 110.864L122.104 108.4L120.792 81.2481L120.8 81.2321Z" fill="#DDDBD8"/>
<path d="M127.808 112.904C127.776 112.744 127.76 112.584 127.76 112.416C127.736 112.104 127.712 111.648 127.696 111.088C127.656 109.968 127.64 108.408 127.696 106.696C127.752 104.976 127.856 103.424 127.96 102.312C128.008 101.752 128.056 101.296 128.104 100.984C128.12 100.824 128.144 100.664 128.184 100.504C128.2 100.664 128.2 100.832 128.184 100.992C128.16 101.336 128.136 101.784 128.104 102.32C128.032 103.44 127.944 104.992 127.896 106.704C127.84 108.416 127.84 109.968 127.848 111.088V112.424C127.848 112.584 127.848 112.752 127.824 112.912L127.808 112.904Z" fill="#575656"/>
<path d="M137.048 101.056C137.032 101.104 135.272 100.48 133.12 99.664C130.968 98.848 129.24 98.144 129.256 98.104C129.272 98.056 131.032 98.68 133.184 99.496C135.336 100.312 137.064 101.016 137.048 101.056Z" fill="#575656"/>
<path d="M140.536 90.144L137.528 92.368L134.184 91.544L134.992 90.656L140.544 90.144H140.536Z" fill="#C6C5C6"/>
<path d="M151.416 63.1357L127.057 73.6881L127.176 80.744L124.417 83.632L133.72 91.952L136.44 88.912L143.681 87.896L151.408 63.1357H151.416Z" fill="#FDFCFC"/>
<path d="M151.416 63.1358C151.2 63.8238 148.264 73.3438 143.768 87.92V87.9681H143.712L136.472 89L136.528 88.976L133.792 92.0081L133.736 92.0801L133.672 92.0161L128.92 87.7681L124.368 83.6961L124.296 83.632L124.36 83.5681L127.112 80.6801L127.088 80.744C127.048 78.3038 127.008 75.9358 126.976 73.688V73.6318L127.032 73.6081L151.432 63.1281L127.104 73.7598L127.152 73.6798C127.192 75.9358 127.232 78.296 127.272 80.7358V80.7761L127.248 80.7998L124.496 83.688V83.5601L129.056 87.632L133.8 91.8801H133.672L136.392 88.8401L136.416 88.816H136.448L143.696 87.8081L143.624 87.864C148.208 73.3201 151.208 63.816 151.424 63.1281L151.416 63.1358Z" fill="#242E33"/>
<path d="M141.535 80.4239C141.032 80.9839 140.376 81.3919 139.64 81.5759C138.912 81.7679 138.136 81.7359 137.423 81.4799C136.712 81.2319 136.088 80.7759 135.631 80.1679C135.176 79.5599 134.911 78.8399 134.872 78.0879C134.831 77.3359 135.016 76.5839 135.392 75.9356C135.776 75.2879 136.344 74.7599 137.023 74.4316C137.704 74.1039 138.472 73.9836 139.216 74.0879C139.968 74.1916 140.664 74.5199 141.231 75.0236C141.983 75.6956 142.44 76.6479 142.495 77.6559C142.552 78.6639 142.208 79.6636 141.528 80.4156L141.535 80.4239Z" fill="#242E33"/>
<path d="M151.416 63.1357C151.416 63.1357 148.632 66.4957 145.12 70.5681C141.608 74.6397 138.728 77.9121 138.688 77.8801C138.648 77.8481 141.472 74.5201 144.984 70.4477C148.504 66.3761 151.376 63.1037 151.416 63.1357Z" fill="#242E33"/>
<path d="M76.408 147.296C75.208 146.224 74.4803 144.72 74.3843 143.112C74.2883 141.504 74.8317 139.928 75.9037 138.72L121.68 86.896L130.76 95.016L85 146.784C83.928 147.992 82.424 148.72 80.808 148.816C79.2003 148.912 77.6163 148.36 76.408 147.288V147.296Z" fill="#575656"/>
<path d="M124.272 82.5439L120.952 86.256L131.632 95.7999L134.952 92.0879L124.272 82.5439Z" fill="#575656"/>
<path opacity="0.5" d="M127.192 85.16V91.656L128.512 93.016V86.344L127.192 85.168V85.16Z" fill="white"/>
<path d="M138.088 82.1281L141.424 83.4561L142.136 86.144L140.528 90.144L134.64 91L136.36 89.2401L136.136 87.704C136.136 87.704 134.496 87.192 134.456 86.936C134.416 86.688 134.656 85.84 134.912 85.8C135.168 85.76 136.888 86.4 136.888 86.4C136.888 86.4 134.848 84.784 134.904 84.528C134.96 84.272 135.176 83.6 135.592 83.528C136.008 83.456 139.296 85.008 139.296 85.008L139.832 86.232L140.296 84.28C140.296 84.28 137.368 83.456 138.096 82.1281H138.088Z" fill="#C6C5C6"/>
<path d="M137.672 88.424C137.672 88.424 137.752 88.312 137.784 88.08C137.816 87.792 137.784 87.504 137.688 87.24C137.592 86.968 137.432 86.728 137.217 86.536C137.048 86.392 136.92 86.336 136.913 86.36C137.16 86.64 137.368 86.96 137.52 87.304C137.624 87.672 137.672 88.048 137.665 88.432L137.672 88.424Z" fill="#6A6B6B"/>
<path d="M139.256 87.8401C139.192 87.5521 139.152 87.2641 139.128 86.9681C139.112 86.6401 139.056 86.3121 138.96 86.0001C138.896 85.8081 138.792 85.6321 138.656 85.4881C138.496 85.3361 138.312 85.2241 138.112 85.1441C137.312 84.8561 136.6 84.6241 136.072 84.4561C135.792 84.3441 135.504 84.2641 135.217 84.2161C135.48 84.3521 135.752 84.4721 136.04 84.5601C136.552 84.7601 137.272 85.0161 138.056 85.2961C138.241 85.3601 138.4 85.4641 138.544 85.5921C138.664 85.7201 138.76 85.8801 138.824 86.0481C138.92 86.3521 138.984 86.6641 139.016 86.9761C139.024 87.2801 139.112 87.5761 139.272 87.8401L139.256 87.8401Z" fill="#6A6B6B"/>
<path d="M140.024 87.24C140.072 87.024 140.064 86.792 140 86.576C139.944 86.232 139.856 85.944 139.808 85.944C139.76 85.944 139.768 86.248 139.832 86.6C139.896 86.952 139.984 87.256 140.024 87.232V87.24Z" fill="#6A6B6B"/>
<path d="M115.016 111.056C115.016 111.056 120.36 109.224 120.488 109.16C120.616 109.096 124.264 107.4 123.952 106.408C123.952 106.408 124.984 105.584 124.672 105.128L123.208 105.744C123.208 105.744 125.272 104.4 124.928 103.192C124.928 103.192 125.144 102.784 124.928 102.528C124.712 102.272 123.632 103.04 122.84 103.52L121.304 104.136C120.632 104.408 119.888 104.44 119.192 104.24C119.032 104.184 118.896 104.08 118.816 103.936C118.728 103.792 118.704 103.624 118.728 103.456C119.024 102.264 118.984 101.024 118.616 99.848C118.616 99.848 118.232 99.984 117.976 100.808C117.632 101.864 116.6 102.68 116.192 103.368C115.976 103.768 115.616 104.4 115.36 104.872C115.248 105.064 115.104 105.232 114.936 105.368C114.76 105.504 114.568 105.6 114.352 105.656L114.72 108.44L115.024 111.04L115.016 111.056Z" fill="#C6C5C6"/>
<path d="M120.808 106.016C120.872 106.008 120.936 105.984 120.992 105.96C121.112 105.92 121.28 105.848 121.48 105.76C122.008 105.52 122.52 105.248 123.007 104.928C123.496 104.608 123.951 104.256 124.383 103.872C124.552 103.72 124.68 103.6 124.768 103.504C124.816 103.456 124.856 103.408 124.895 103.36C124.84 103.392 124.792 103.432 124.744 103.48L124.344 103.824C123.903 104.192 123.448 104.536 122.968 104.856C122.48 105.168 121.976 105.448 121.464 105.704L120.992 105.928C120.928 105.952 120.872 105.976 120.816 106.016H120.808Z" fill="#6A6B6B"/>
<path d="M120.904 107.08C121.04 107.056 121.176 107.008 121.296 106.952C121.608 106.824 121.904 106.672 122.184 106.496C122.464 106.32 122.744 106.136 123.008 105.936C123.128 105.856 123.232 105.768 123.328 105.664C123.328 105.648 122.808 106.008 122.144 106.424C121.8 106.624 121.504 106.768 121.272 106.896C121.144 106.952 121.024 107.008 120.904 107.088V107.08Z" fill="#6A6B6B"/>
<path d="M120.856 108.36C121.032 108.312 121.199 108.248 121.359 108.168C121.752 107.984 122.136 107.784 122.504 107.552C122.872 107.32 123.224 107.064 123.551 106.792C123.695 106.688 123.832 106.56 123.951 106.424C123.8 106.52 123.656 106.624 123.519 106.736C123.256 106.936 122.888 107.208 122.456 107.472C122.096 107.704 121.72 107.912 121.336 108.104C121.167 108.176 121.016 108.264 120.863 108.352L120.856 108.36Z" fill="#6A6B6B"/>
<path d="M115.016 111.056L95.184 117.024C92.944 116.008 91.08 114.328 89.84 112.208C88.6 110.088 88.056 107.632 88.272 105.192C88.896 98.184 89.72 88.96 89.968 86.632C90.376 82.776 94.8 79.928 94.8 79.928C100.88 80.3203 99.536 92.352 99.536 92.352L97.088 106.192L114.336 105.504L115.024 111.056H115.016Z" fill="#DDDBD8"/>
<path d="M97.08 106.2C97.08 106.016 97.08 105.832 97.104 105.648C97.128 105.304 97.184 104.784 97.256 104.144C97.408 102.88 97.68 101.144 98.04 99.232C98.4 97.32 98.752 95.6 99.032 94.36C99.168 93.736 99.288 93.24 99.376 92.896C99.408 92.712 99.464 92.536 99.528 92.36C99.512 92.544 99.48 92.728 99.44 92.904C99.36 93.288 99.272 93.784 99.152 94.384C98.904 95.632 98.56 97.352 98.208 99.264C97.856 101.168 97.568 102.904 97.376 104.16C97.296 104.768 97.224 105.272 97.168 105.648C97.152 105.832 97.12 106.016 97.072 106.192L97.08 106.2Z" fill="#242E33"/>
<path d="M114.328 105.512C114.272 105.528 114.208 105.536 114.144 105.536L113.6 105.584C113.128 105.616 112.456 105.656 111.616 105.704C109.936 105.792 107.616 105.872 105.056 105.944L98.496 106.128L96.512 106.192H95.976C95.912 106.2 95.848 106.2 95.784 106.192C95.848 106.176 95.904 106.168 95.968 106.168L96.504 106.12C96.976 106.088 97.656 106.04 98.488 106C100.168 105.912 102.488 105.832 105.048 105.76L111.6 105.576L113.592 105.512H114.136C114.2 105.504 114.264 105.504 114.328 105.512Z" fill="#242E33"/>
<path d="M97.832 100.952C97.712 100.968 97.584 100.968 97.464 100.952L96.472 100.872C95.64 100.808 94.488 100.728 93.208 100.672C91.936 100.624 90.784 100.6 89.944 100.6H88.952C88.832 100.6 88.704 100.6 88.584 100.576C88.696 100.544 88.808 100.528 88.928 100.528C89.16 100.504 89.504 100.496 89.92 100.48C90.76 100.456 91.92 100.448 93.192 100.504C94.472 100.56 95.624 100.656 96.456 100.752C96.872 100.8 97.208 100.848 97.44 100.88C97.568 100.88 97.696 100.904 97.816 100.944L97.832 100.952Z" fill="#575656"/>
<path d="M99.528 91.408C99.528 91.456 97.2808 91.408 94.504 91.288C91.736 91.16 89.4888 91.04 89.496 90.992C89.496 90.936 91.7448 90.992 94.5128 91.112C97.2808 91.232 99.528 91.36 99.528 91.416V91.408Z" fill="#575656"/>
<path d="M90.128 112.448C90.176 112.336 90.24 112.232 90.32 112.136C90.456 111.936 90.664 111.656 90.92 111.32C91.608 110.448 92.368 109.632 93.184 108.88C94.008 108.128 94.888 107.448 95.8232 106.848C96.168 106.616 96.4792 106.44 96.6872 106.328C96.792 106.256 96.9112 106.208 97.032 106.168C97.032 106.192 96.6 106.464 95.9032 106.952C94.088 108.216 92.4472 109.712 91.032 111.4C90.472 112.048 90.1592 112.464 90.136 112.448L90.128 112.448Z" fill="#575656"/>
<path d="M104.36 114.336C104.312 114.336 103.976 112.48 103.617 110.176C103.249 107.872 103 105.992 103.048 105.984C103.096 105.984 103.432 107.84 103.8 110.144C104.168 112.448 104.417 114.32 104.369 114.328L104.36 114.336Z" fill="#575656"/>
<path d="M102.209 54.1121V55.7361L101.864 80.0401C101.825 82.8641 104.216 85.1441 107.24 85.1601C110.289 85.1841 112.832 82.8881 112.92 80.0401C113.008 77.0481 113.16 73.9037 113.16 73.9037C113.16 73.9037 117.032 73.3681 117.969 68.3678C118.433 65.8801 118.424 61.7757 118.312 58.4001C118.289 57.6801 118.12 56.9841 117.816 56.3281C117.512 55.6801 117.08 55.0961 116.544 54.6241C116.008 54.1441 115.384 53.7841 114.705 53.5521C114.024 53.3201 113.304 53.2321 112.593 53.2881L102.2 54.1201L102.209 54.1121Z" fill="#C6C5C6"/>
<path d="M116.592 61.3443C116.592 61.512 116.52 61.672 116.4 61.7923C116.28 61.912 116.12 61.976 115.952 61.976C115.872 61.976 115.784 61.9683 115.712 61.9363C115.64 61.9043 115.56 61.864 115.504 61.8083C115.44 61.752 115.392 61.688 115.36 61.608C115.328 61.5363 115.304 61.448 115.304 61.368C115.304 61.2003 115.376 61.0403 115.496 60.92C115.616 60.8003 115.776 60.7363 115.944 60.7363C116.024 60.7363 116.112 60.7363 116.184 60.7683C116.264 60.8003 116.336 60.84 116.392 60.8963C116.448 60.952 116.504 61.016 116.536 61.096C116.568 61.1683 116.592 61.256 116.592 61.336V61.3443Z" fill="#242E33"/>
<path d="M117.344 60.52C117.264 60.6 116.784 60.224 116.088 60.208C115.4 60.192 114.872 60.5276 114.8 60.44C114.728 60.3516 114.848 60.2479 115.072 60.096C115.376 59.896 115.736 59.8 116.104 59.808C116.464 59.808 116.816 59.936 117.104 60.152C117.312 60.328 117.376 60.4796 117.344 60.52Z" fill="#242E33"/>
<path d="M109.8 61.272C109.8 61.4402 109.728 61.6002 109.608 61.72C109.488 61.8402 109.328 61.9042 109.16 61.912C109.08 61.912 108.992 61.9042 108.92 61.8722C108.848 61.8402 108.768 61.8 108.712 61.7442C108.656 61.688 108.6 61.624 108.568 61.544C108.536 61.4722 108.512 61.384 108.512 61.304C108.512 61.1362 108.584 60.9762 108.704 60.856C108.824 60.7362 108.984 60.6722 109.152 60.6722C109.232 60.6722 109.32 60.68 109.392 60.712C109.472 60.7362 109.544 60.7842 109.6 60.84C109.664 60.8962 109.712 60.9602 109.744 61.0402C109.776 61.112 109.8 61.192 109.8 61.2802V61.272Z" fill="#242E33"/>
<path d="M110.52 60.4643C110.44 60.5443 109.96 60.168 109.263 60.152C108.568 60.136 108.056 60.472 107.976 60.3843C107.896 60.296 108.024 60.192 108.256 60.04C108.56 59.84 108.92 59.736 109.288 59.752C109.647 59.752 109.999 59.88 110.287 60.096C110.495 60.28 110.559 60.4323 110.52 60.4643Z" fill="#242E33"/>
<path d="M112.896 65.6797C113.264 65.576 113.64 65.512 114.024 65.512C114.2 65.512 114.368 65.464 114.408 65.3437C114.424 65.16 114.392 64.9757 114.304 64.8157L113.816 63.4397C113.128 61.496 112.656 59.904 112.736 59.88C112.816 59.856 113.424 61.4077 114.112 63.3437C114.28 63.8237 114.432 64.28 114.576 64.7197C114.68 64.936 114.704 65.176 114.648 65.4077C114.616 65.4717 114.576 65.528 114.528 65.5677C114.48 65.608 114.416 65.64 114.352 65.656C114.256 65.6797 114.152 65.688 114.048 65.688C113.664 65.736 113.28 65.7277 112.896 65.6797Z" fill="#242E33"/>
<path d="M113.152 73.896C110.784 73.8723 108.472 73.1843 106.472 71.9203C106.472 71.9203 108.008 75.416 113.056 75.0883L113.152 73.9036V73.896Z" fill="#6A6B6B"/>
<path d="M112.56 67.336C112.432 67.1683 112.264 67.032 112.072 66.9443C111.88 66.856 111.664 66.824 111.456 66.84C111.304 66.8483 111.152 66.888 111.016 66.9603C110.88 67.032 110.76 67.128 110.656 67.24C110.56 67.352 110.504 67.496 110.488 67.64C110.472 67.784 110.504 67.9363 110.576 68.0643C110.688 68.1923 110.832 68.28 110.992 68.328C111.152 68.376 111.32 68.3684 111.48 68.3203C111.808 68.216 112.12 68.04 112.376 67.816C112.456 67.7603 112.528 67.6963 112.584 67.6163C112.608 67.576 112.624 67.5363 112.624 67.4883C112.624 67.4403 112.608 67.4 112.584 67.3603" fill="#6A6B6B"/>
<path d="M110.84 66.104C110.952 66.104 110.936 66.856 111.56 67.4083C112.192 67.96 112.992 67.896 113 68.008C113 68.056 112.816 68.152 112.48 68.152C112.04 68.1443 111.616 67.9843 111.28 67.6963C110.96 67.416 110.76 67.032 110.72 66.6083C110.696 66.2883 110.792 66.104 110.84 66.1123V66.104Z" fill="#242E33"/>
<path d="M110.768 57.752C110.696 57.936 110.008 57.832 109.184 57.904C108.368 57.976 107.704 58.184 107.6 58.008C107.56 57.928 107.68 57.752 107.944 57.576C108.304 57.36 108.712 57.232 109.128 57.2C109.544 57.16 109.968 57.224 110.352 57.376C110.648 57.504 110.8 57.656 110.76 57.744L110.768 57.752Z" fill="#242E33"/>
<path d="M117.144 58.5039C117.016 58.6559 116.544 58.4799 115.968 58.4559C115.392 58.4319 114.904 58.5279 114.792 58.3599C114.744 58.2799 114.824 58.1199 115.04 57.9839C115.328 57.8159 115.664 57.7279 116 57.7519C116.336 57.7759 116.656 57.8879 116.928 58.0959C117.128 58.2639 117.192 58.432 117.136 58.5039H117.144Z" fill="#242E33"/>
<path d="M108.528 52.52C109.872 54.304 108.472 56.84 106.928 58.448C105.384 60.056 103.488 61.9363 103.912 64.1283C104.408 66.6723 107.88 68.3043 107.368 70.84C107.176 71.768 106.448 72.5603 106.448 73.496C106.448 75.2162 108.648 76.0316 109.288 77.6156C110.16 79.784 107.768 81.952 107.728 84.296C107.704 85.624 108.456 86.864 108.504 88.192C108.584 90.912 105.368 92.904 102.728 92.232C100.088 91.56 98.28 88.984 97.72 86.328C97.152 83.672 98.016 79.928 98.448 77.24L93.88 78.3043C93.024 77.4876 94.192 76.6243 94.384 75.4723C94.864 72.5596 96.792 70.0963 97.688 67.2963C98.48 64.8483 98.488 62.2243 98.832 59.664C99.176 57.112 99.968 54.448 101.928 52.76C103.88 51.072 107.256 50.872 108.832 52.904" fill="#242E33"/>
<path d="M98.28 60.776C98.944 60.8803 99.624 60.904 100.296 60.84C101.912 60.6083 103.424 59.92 104.664 58.864C105.888 57.784 106.96 56.544 107.856 55.184C108.2 54.688 108.48 54.272 108.696 53.952C108.792 53.8 108.904 53.648 109.016 53.512C108.944 53.68 108.856 53.84 108.752 53.992C108.576 54.296 108.304 54.728 107.96 55.256C107.088 56.656 106.016 57.92 104.776 59.008C103.512 60.088 101.96 60.776 100.312 60.9763C99.816 61.0243 99.312 61.0083 98.816 60.9283C98.68 60.904 98.552 60.8803 98.424 60.84C98.328 60.8163 98.28 60.7996 98.288 60.7919L98.28 60.776Z" fill="#425359"/>
<path d="M104.241 61.4481C104.024 61.6561 103.777 61.8321 103.505 61.9601C102.865 62.3037 102.168 62.5361 101.441 62.6481C100.721 62.7517 99.992 62.7281 99.2808 62.5841C98.984 62.536 98.696 62.4477 98.4328 62.3037C98.4328 62.2717 98.776 62.3761 99.304 62.4561C100.704 62.6717 102.145 62.4561 103.425 61.8481C103.928 61.6081 104.208 61.4161 104.232 61.4403L104.241 61.4481Z" fill="#425359"/>
<path d="M120.576 58.072C120.024 58.072 119.48 57.936 119.008 57.656C118.536 57.376 118.144 56.968 117.888 56.48C118.256 56.864 118.656 57.208 119.096 57.512C119.568 57.752 120.064 57.936 120.568 58.072H120.576Z" fill="#425359"/>
<path d="M120.257 59.776C119.944 59.872 119.616 59.88 119.296 59.8C118.984 59.72 118.689 59.56 118.465 59.328C118.497 59.288 118.848 59.512 119.344 59.624C119.832 59.744 120.257 59.712 120.264 59.768L120.257 59.776Z" fill="#425359"/>
<path d="M73.0718 124.984C73.0718 126.752 74.104 160.672 74.104 160.672L59.672 160.6L57.152 145.528L56.488 160.6H42.616L44.12 123.368L73.08 124.984H73.0718Z" fill="#425359"/>
<path d="M30.5202 110.936L23.1442 99.936L28.6162 95.488L37.8722 104.08C37.8722 104.08 41.8562 81.744 45.7762 80.392L45.4722 115.032C42.9042 116.256 39.9762 116.512 37.2322 115.76C34.4882 115.008 32.1042 113.288 30.5202 110.928V110.936Z" fill="#242E33"/>
<path d="M15.4158 59.1519L16.9838 80.5602L42.6798 129.816L57.5358 121.216L32.2078 73.0722L15.4078 59.1439L15.4158 59.1519Z" fill="#575656"/>
<g opacity="0.7">
<path d="M32.4638 73.176C32.3518 73.3597 32.2078 73.512 32.0398 73.6317C31.8638 73.752 31.6718 73.8397 31.4638 73.88C31.2558 73.9197 31.0398 73.9197 30.8398 73.8717C30.6318 73.8237 30.4398 73.736 30.2718 73.608C30.4638 74.3837 30.4078 75.1997 30.1118 75.944C29.8158 76.6877 29.2878 77.3117 28.6158 77.7437C27.9438 78.1757 27.1518 78.376 26.3518 78.3357C25.5518 78.2877 24.7918 78.0003 24.1678 77.496C24.0638 78.28 23.7518 79.016 23.2718 79.64C22.7918 80.264 22.1518 80.744 21.4238 81.048C20.6958 81.344 19.8958 81.44 19.1198 81.336C18.3358 81.224 17.5998 80.9117 16.9838 80.424L15.4238 59.176L32.4718 73.192L32.4638 73.176Z" fill="white"/>
</g>
<path d="M16.0478 67.7597C16.0478 67.7597 19.5358 69.944 22.2958 64.856L15.4238 59.152L16.0478 67.768V67.7597Z" fill="#575656"/>
<path d="M48.3442 125.8C48.2962 125.824 42.8482 115.04 36.1442 101.72C29.4402 88.4 24.0562 77.576 24.1122 77.56C24.1682 77.5357 29.6082 88.32 36.3122 101.64C43.0162 114.968 48.3842 125.776 48.3362 125.8L48.3442 125.8Z" fill="white"/>
<path d="M54.5201 122.104C54.4721 122.128 49.0241 111.344 42.3201 98.0241C35.6161 84.7041 30.2321 73.8877 30.2721 73.8641C30.3121 73.8397 35.7681 84.6241 42.4721 97.9441C49.1761 111.272 54.5601 122.08 54.5121 122.096L54.5201 122.104Z" fill="white"/>
<path d="M24.3121 87.832L20.9761 89.168L20.2641 91.856L21.4081 96.32L24.0961 99.176L25.9121 97.672L26.0241 94.92L26.2481 93.384C26.2481 93.384 27.8881 92.872 27.9281 92.616C27.9681 92.368 27.7281 91.52 27.4721 91.48C27.2241 91.44 25.4961 92.08 25.4961 92.08C25.4961 92.08 27.5361 90.464 27.4801 90.2C27.4241 89.936 27.2001 89.28 26.7921 89.2C26.3841 89.128 23.0961 90.68 23.0961 90.68L22.5601 91.904L22.0961 89.952C22.0961 89.952 25.0241 89.152 24.3041 87.824L24.3121 87.832Z" fill="#6A6B6B"/>
<path d="M24.7282 94.144C24.7282 94.144 24.6482 94.024 24.6162 93.8C24.5842 93.512 24.6162 93.224 24.7202 92.96C24.8162 92.696 24.9842 92.448 25.1922 92.256C25.3602 92.112 25.4802 92.064 25.4962 92.08C25.2242 92.344 25.0162 92.672 24.8802 93.024C24.7522 93.384 24.6962 93.76 24.7282 94.144Z" fill="#575656"/>
<path d="M23.1442 93.544C23.2082 93.256 23.2562 92.968 23.2802 92.672C23.2962 92.344 23.3522 92.016 23.4482 91.704C23.5122 91.512 23.6162 91.336 23.7522 91.184C23.9042 91.032 24.0882 90.912 24.2962 90.84C25.0962 90.552 25.8082 90.32 26.3362 90.152C26.6162 90.048 26.9042 89.968 27.2002 89.912C26.9362 90.056 26.6642 90.168 26.3762 90.256C25.8642 90.456 25.1442 90.712 24.3602 90.992C24.1762 91.056 24.0082 91.16 23.8722 91.296C23.7522 91.424 23.6562 91.584 23.5922 91.752C23.4882 92.056 23.4242 92.36 23.4002 92.68C23.3922 92.984 23.3042 93.288 23.1442 93.544Z" fill="#575656"/>
<path d="M22.384 92.944C22.336 92.944 22.344 92.64 22.408 92.288C22.464 91.936 22.552 91.648 22.6 91.656C22.648 91.872 22.64 92.096 22.576 92.312C22.52 92.664 22.432 92.944 22.384 92.944Z" fill="#575656"/>
<path d="M67.4478 73.992L64.5282 73L53.6078 75.5037L52.6398 76.312L46.8558 129.824C49.3358 132.384 57.1678 132.896 61.6078 132.136L67.4478 73.992Z" fill="#575656"/>
<path d="M67.6479 74.0963L66.2404 73.4083C66.2404 73.4083 63.1441 87.032 63.1441 96.032C63.1441 105.032 61.2004 137.656 61.2004 137.656L75.9359 137.272V101.216L67.6479 74.0963Z" fill="#242E33"/>
<path d="M46.8559 138.176L41.2719 136.544L43.2239 110.168L42.8559 91.048L45.7759 80.392L52.7039 76.1117C52.7039 76.1117 47.2399 135 46.8559 138.176Z" fill="#242E33"/>
<path d="M58.4962 80.5763C57.1522 80.456 55.9042 79.8403 55.0002 78.84C54.0962 77.848 53.5922 76.5443 53.6002 75.2003V70.4163C53.6002 70.4163 49.1762 69.7283 49.1362 65.304C49.0882 60.8804 49.8482 50.736 49.8482 50.736C52.3602 49.656 55.1122 49.264 57.8322 49.608C60.5438 49.952 63.1205 51.008 65.2882 52.672L65.9442 53.176L64.3442 75.6003C64.2962 76.312 64.1042 77.0083 63.7765 77.64C63.4565 78.28 63.0085 78.84 62.4645 79.304C61.9205 79.768 61.2882 80.12 60.6085 80.3363C59.9282 80.552 59.2162 80.632 58.5042 80.568L58.4962 80.5763Z" fill="#6A6B6B"/>
<path d="M53.6082 70.3524C55.6482 70.392 57.6562 69.816 59.3682 68.712C59.3682 68.712 57.9922 71.8884 53.5922 71.496V70.3524H53.6082Z" fill="#575656"/>
<path d="M65.3998 57.76C65.4715 57.728 68.4315 56.864 68.3355 59.88C68.2395 62.904 65.2238 62.184 65.2238 62.0963C65.2238 62.008 65.3998 57.752 65.3998 57.752V57.76Z" fill="#6A6B6B"/>
<path d="M66.1761 60.984C66.1761 60.984 66.2241 61.0242 66.3118 61.064C66.3758 61.096 66.4398 61.112 66.5038 61.112C66.5678 61.112 66.6396 61.112 66.7036 61.08C67.0236 60.9762 67.3121 60.472 67.3441 59.936C67.3601 59.68 67.3198 59.416 67.2238 59.176C67.2001 59.08 67.1521 58.992 67.0881 58.92C67.0241 58.848 66.9358 58.792 66.8476 58.76C66.7836 58.744 66.7201 58.744 66.6638 58.76C66.6081 58.784 66.5601 58.832 66.5281 58.888C66.4801 58.968 66.5038 59.032 66.4878 59.032C66.4718 59.032 66.4238 58.984 66.4476 58.856C66.4718 58.784 66.5121 58.72 66.5761 58.672C66.6158 58.64 66.6638 58.616 66.7118 58.608C66.7598 58.6 66.8161 58.592 66.8641 58.608C66.9921 58.632 67.1041 58.688 67.2001 58.776C67.2961 58.856 67.3678 58.968 67.4081 59.088C67.5278 59.352 67.5758 59.648 67.5598 59.936C67.5196 60.5442 67.1918 61.1042 66.7521 61.2162C66.6721 61.24 66.5838 61.24 66.5038 61.2162C66.4238 61.192 66.3438 61.1682 66.2798 61.112C66.1761 61.048 66.1761 60.9762 66.1761 60.968V60.984Z" fill="#575656"/>
<path d="M51.2961 57.536C51.2961 57.704 51.3601 57.856 51.4721 57.976C51.5841 58.096 51.7441 58.168 51.9041 58.168C51.9841 58.168 52.0641 58.168 52.1441 58.136C52.2241 58.112 52.2881 58.072 52.3521 58.016C52.4161 57.96 52.4641 57.896 52.4961 57.824C52.5281 57.752 52.5521 57.672 52.5601 57.592C52.5601 57.424 52.4961 57.2719 52.3841 57.1519C52.2721 57.0319 52.1121 56.96 51.9521 56.96C51.8721 56.96 51.7921 56.9599 51.7121 56.992C51.6321 57.0159 51.5681 57.056 51.5041 57.112C51.4401 57.168 51.3921 57.232 51.3601 57.304C51.3281 57.376 51.3041 57.456 51.2961 57.536Z" fill="#242E33"/>
<path d="M50.6882 56.952C50.7682 57.032 51.2482 56.68 51.9282 56.68C52.6082 56.68 53.1042 57.024 53.1762 56.936C53.2482 56.848 53.1282 56.752 52.9122 56.592C52.6162 56.384 52.2642 56.28 51.9122 56.28C51.5602 56.28 51.2162 56.392 50.9282 56.6C50.7122 56.76 50.6482 56.912 50.6882 56.944V56.952Z" fill="#242E33"/>
<path d="M57.9762 57.8241C57.9762 57.9921 58.0402 58.1441 58.1522 58.2641C58.2642 58.3841 58.4242 58.4561 58.5842 58.4561C58.6642 58.4561 58.7442 58.4561 58.8242 58.4241C58.9042 58.4001 58.9682 58.3601 59.0322 58.3041C59.0962 58.2481 59.1442 58.1841 59.1762 58.1121C59.2082 58.0401 59.2322 57.9601 59.2402 57.8801C59.2402 57.7121 59.1762 57.5601 59.0642 57.4401C58.9522 57.32 58.7922 57.248 58.6322 57.24C58.5522 57.24 58.4722 57.2401 58.3922 57.2721C58.3122 57.2961 58.2482 57.3361 58.1842 57.3921C58.1202 57.4481 58.0722 57.5121 58.0402 57.5841C58.0082 57.6561 57.9842 57.7361 57.9762 57.8161L57.9762 57.8241Z" fill="#242E33"/>
<path d="M57.368 57.08C57.448 57.16 57.928 56.808 58.608 56.808C59.288 56.808 59.784 57.152 59.856 57.072C59.928 56.992 59.808 56.888 59.592 56.728C59.296 56.52 58.944 56.416 58.592 56.416C58.24 56.416 57.896 56.528 57.608 56.736C57.4 56.896 57.328 57.048 57.368 57.08Z" fill="#242E33"/>
<path d="M54.9041 62.12C54.5441 62.008 54.1761 61.944 53.8001 61.9197C53.6241 61.9037 53.4561 61.8717 53.4321 61.752C53.4161 61.576 53.4561 61.3917 53.5441 61.24C53.7121 60.824 53.8881 60.376 54.0561 59.92C54.7681 58.04 55.2801 56.48 55.2081 56.464C55.1361 56.448 54.4961 57.936 53.7841 59.816C53.6161 60.28 53.4401 60.7197 53.2961 61.144C53.1841 61.352 53.1521 61.5997 53.2001 61.832C53.2241 61.896 53.2641 61.944 53.3121 61.992C53.3601 62.0317 53.4161 62.0637 53.4801 62.088C53.5761 62.1117 53.6721 62.1277 53.7761 62.1277C54.1521 62.1757 54.5281 62.1757 54.8961 62.1277L54.9041 62.12Z" fill="#242E33"/>
<path d="M57.1919 54.416C57.2559 54.6 57.9359 54.512 58.7359 54.608C59.5359 54.704 60.1759 54.92 60.2799 54.752C60.3279 54.672 60.2159 54.496 59.9359 54.32C59.5919 54.104 59.1999 53.96 58.7919 53.92C58.3839 53.872 57.9759 53.92 57.5839 54.064C57.3039 54.184 57.1599 54.328 57.1919 54.416Z" fill="#242E33"/>
<path d="M50.936 54.984C51.056 55.136 51.52 54.984 52.08 54.984C52.64 54.984 53.112 55.088 53.232 54.928C53.28 54.856 53.208 54.696 52.992 54.552C52.712 54.376 52.384 54.288 52.056 54.296C51.728 54.304 51.408 54.416 51.136 54.608C50.936 54.752 50.872 54.912 50.928 54.984H50.936Z" fill="#242E33"/>
<path d="M47.6961 47.944C47.6641 47.672 47.6961 47.392 47.8081 47.136C47.9121 46.8799 48.0801 46.6559 48.2961 46.4799C48.5201 46.32 48.7921 46.24 49.0641 46.264C49.3361 46.2879 49.6001 46.4 49.7921 46.5999C49.7521 46.416 49.7441 46.2239 49.7921 46.0399C49.8321 45.856 49.9041 45.6799 50.0161 45.5279C50.1281 45.376 50.2641 45.24 50.4321 45.1439C50.5921 45.048 50.7761 44.9839 50.9601 44.96C51.6801 44.912 52.2961 45.4559 52.9921 45.6479C53.6881 45.792 54.4081 45.712 55.0561 45.408C55.7121 45.1439 56.3281 44.776 56.9841 44.536C58.3841 44.0319 59.9201 44.0879 61.2721 44.7119C62.6238 45.336 63.6721 46.4639 64.2001 47.856C65.1678 47.552 66.2641 48.048 66.8638 48.864C67.4238 49.72 67.6478 50.752 67.4962 51.768C67.4002 52.448 67.2318 53.112 66.9918 53.752V53.92C66.9438 56.3519 66.6718 59.2079 65.6158 59.224C63.8078 59.248 64.2398 55.848 64.2398 55.848C62.0242 54.992 62.8478 51.672 62.2878 51.16C61.7278 50.648 60.5682 49.4799 55.9282 51.848C54.1202 52.7679 51.7282 52.744 50.4322 52.44L50.3122 52.4159H50.2882L50.2482 52.3999C49.8242 52.2959 49.4242 52.1279 49.0562 51.8959C48.6242 51.6479 48.2802 51.2639 48.0802 50.8079C47.9842 50.5759 47.9602 50.3279 48.0002 50.0799C48.0482 49.8399 48.1602 49.6079 48.3282 49.4319C47.9762 49.0079 47.7521 48.4879 47.6961 47.944Z" fill="#242E33"/>
<path d="M54.3198 64.2083C54.4158 64.4803 54.5438 64.7441 54.7118 64.9841C54.7998 65.1043 54.9038 65.1997 55.0318 65.2721C55.1598 65.3437 55.2958 65.3923 55.4398 65.4083C55.5918 65.4083 55.7438 65.3681 55.8798 65.2963C56.0158 65.2241 56.1278 65.1121 56.2158 64.9841C56.3758 64.7203 56.4558 64.4081 56.4318 64.1041C56.4318 63.8237 56.2878 63.4883 56.0158 63.4563C55.8958 63.4563 55.7758 63.4801 55.6718 63.5281L54.2078 64.1201" fill="#575656"/>
<path d="M54.9039 65.4082C55.1679 65.4242 55.4319 65.3917 55.6879 65.3117C55.9439 65.208 56.1519 65.0242 56.2719 64.776C56.3359 64.6242 56.3759 64.4642 56.3759 64.296C56.3759 64.1282 56.3439 63.9677 56.2719 63.816C56.2399 63.736 56.1999 63.6637 56.1439 63.5997C56.0879 63.5357 56.0959 63.544 56.0319 63.5522C55.9679 63.5522 55.8799 63.6157 55.7999 63.6477L55.5599 63.7437C55.2479 63.864 54.9679 63.976 54.7279 64.0642C54.4799 64.184 54.2079 64.264 53.9359 64.3037C54.1519 64.1277 54.3999 63.992 54.6559 63.896L55.4639 63.5202L55.7039 63.416C55.7919 63.3757 55.8799 63.336 55.9679 63.304C56.0399 63.2797 56.1119 63.2797 56.1839 63.304C56.2479 63.3277 56.3039 63.3757 56.3439 63.4237C56.5039 63.624 56.5919 63.8722 56.6159 64.1282C56.6399 64.3842 56.5839 64.6402 56.4639 64.8642C56.3039 65.1522 56.0399 65.368 55.7199 65.464C55.5199 65.528 55.2959 65.5357 55.0879 65.4877C54.9599 65.4557 54.8959 65.4077 54.8959 65.3917L54.9039 65.4082Z" fill="#242E33"/>
<path d="M62.472 50.752C62.488 50.576 62.488 50.392 62.472 50.216C62.392 49.736 62.152 49.296 61.784 48.976C61.2323 48.512 60.52 48.272 59.792 48.32C58.904 48.376 58.032 48.576 57.208 48.896C56.768 49.048 56.32 49.176 55.872 49.288C54.72 49.536 53.528 49.496 52.4 49.16C51.92 49.016 51.464 48.824 51.024 48.584C50.904 48.52 50.792 48.448 50.68 48.376C50.64 48.352 50.6 48.328 50.568 48.288C50.568 48.288 50.736 48.384 51.048 48.536C51.488 48.76 51.944 48.936 52.424 49.072C53.12 49.264 53.848 49.352 54.568 49.328C54.992 49.312 55.416 49.256 55.84 49.168C56.28 49.072 56.72 48.928 57.168 48.776C58.0079 48.448 58.896 48.256 59.792 48.2C60.5437 48.16 61.288 48.408 61.8557 48.904C62.2397 49.24 62.4797 49.704 62.5437 50.208C62.5597 50.392 62.5437 50.576 62.472 50.744L62.472 50.752Z" fill="#425359"/>
<path d="M65.9121 58.224C65.9121 58.224 65.8724 58.168 65.8564 58.128C65.8243 58.064 65.7763 57.968 65.7201 57.848C65.5684 57.496 65.4564 57.128 65.3764 56.752C65.2561 56.184 65.2164 55.608 65.2644 55.032C65.3444 54.336 65.4801 53.6479 65.6561 52.9679C65.8321 52.3039 65.8321 51.6 65.6561 50.9359C65.5761 50.648 65.4321 50.3919 65.2324 50.168C65.0564 49.9759 64.8401 49.832 64.6001 49.7519C64.2481 49.6159 63.8564 49.6319 63.5121 49.776C63.3924 49.84 63.2721 49.9199 63.1683 50.016C63.2484 49.896 63.3604 49.7999 63.4884 49.7359C63.6644 49.648 63.8564 49.5999 64.0561 49.5839C64.2564 49.568 64.4484 49.6 64.6321 49.664C64.8963 49.744 65.1281 49.8959 65.3201 50.096C65.5281 50.328 65.6881 50.5999 65.7841 50.9039C65.9684 51.592 65.9684 52.3119 65.7841 53C65.6081 53.672 65.4723 54.352 65.3841 55.04C65.336 55.6 65.3681 56.168 65.4717 56.72C65.5441 57.096 65.6484 57.464 65.7841 57.816C65.8801 58.088 65.9441 58.224 65.9357 58.232L65.9121 58.224Z" fill="#425359"/>
<path d="M62.8961 50.392V49.712C62.9281 49.096 62.8559 48.472 62.6959 47.88C62.5761 47.472 62.3759 47.096 62.1039 46.76C61.7999 46.376 61.3839 46.104 60.9199 45.976C60.3996 45.856 59.8479 45.88 59.3359 46.04C58.7839 46.216 58.2559 46.456 57.7519 46.76C57.2479 47.064 56.7199 47.336 56.1839 47.568C55.6719 47.768 55.1199 47.88 54.5679 47.888C54.0639 47.904 53.5679 47.84 53.0879 47.704C52.6719 47.584 52.2719 47.4159 51.8879 47.2079C51.3359 46.8959 50.8559 46.488 50.4639 45.992C50.3599 45.864 50.2559 45.72 50.1759 45.576C50.1439 45.528 50.1119 45.472 50.0879 45.424C50.1279 45.464 50.1679 45.512 50.1919 45.568C50.2879 45.712 50.3839 45.84 50.4959 45.968C50.8959 46.44 51.3839 46.8319 51.9279 47.1359C52.3039 47.3359 52.6959 47.4959 53.1119 47.6079C53.5839 47.7359 54.0719 47.792 54.5599 47.776C55.0959 47.76 55.6319 47.648 56.1359 47.456C56.6719 47.224 57.1839 46.952 57.6879 46.656C58.1919 46.352 58.7359 46.104 59.2959 45.928C59.8319 45.76 60.3996 45.736 60.9436 45.872C61.4318 46.008 61.8721 46.296 62.1839 46.704C62.4559 47.048 62.6561 47.4399 62.7759 47.8639C62.9358 48.4719 62.9916 49.104 62.9436 49.728C62.9436 49.952 62.9116 50.12 62.9039 50.232C62.9039 50.288 62.9039 50.3519 62.8961 50.4079L62.8961 50.392Z" fill="#425359"/>
<path d="M67.6478 74.0963C67.6478 74.0963 78.2 77.464 78.8881 79.2963C79.416 80.6723 84.952 97.288 86.144 108.128C86.256 109.176 86.152 110.24 85.848 111.256C85.544 112.264 85.04 113.208 84.368 114.024C83.696 114.84 82.872 115.512 81.936 116.008C81 116.504 79.976 116.8 78.9283 116.896C71.7923 117.552 61.432 118.408 61.432 117.816V108.832L74.872 106.872L69.896 92.256L67.6478 74.1117L67.6478 74.0963Z" fill="#242E33"/>
<path d="M54.1198 115.992C55.4958 116.336 61.4478 116.336 61.4478 116.336V109.288C61.4478 109.288 58.8558 108.184 58.1438 107.536C57.4318 106.888 55.3918 103.096 55.3918 103.096C55.0318 103.312 54.7438 103.64 54.5758 104.032C54.4078 104.424 54.3678 104.856 54.4558 105.264C54.7998 106.816 55.4318 107 55.4878 107.616C55.4878 107.616 55.5438 107.776 55.5438 107.784C55.6878 108.64 54.8558 109.4 54.8558 109.4C54.5838 109.192 54.2798 109.04 53.9518 108.936C52.7038 108.792 51.1998 109.688 51.1998 110.184C51.1998 110.184 51.1598 111.536 51.1998 111.736C51.2398 111.936 51.8878 112.2 51.8878 112.2C51.8878 112.2 51.6878 113.096 51.8878 113.504C52.1118 113.808 52.4158 114.04 52.7598 114.192C52.7598 114.192 53.3438 115.776 54.1198 115.976L54.1198 115.992Z" fill="#6A6B6B"/>
<path d="M55.568 114.856C54.6 114.96 53.632 114.752 52.8 114.248C52.824 114.2 53.408 114.44 54.176 114.592C54.936 114.744 55.568 114.8 55.568 114.856Z" fill="#575656"/>
<path d="M55.2161 112.744C54.6881 112.904 54.1281 112.928 53.5921 112.832C53.0401 112.784 52.5121 112.616 52.0481 112.32C52.0721 112.272 52.7361 112.536 53.6161 112.664C54.496 112.784 55.2081 112.704 55.2161 112.744Z" fill="#575656"/>
<path d="M55.0078 106.68C55.2158 106.936 55.3838 107.224 55.4878 107.544C55.5518 107.704 55.6078 107.864 55.6398 108.032C55.6878 108.232 55.6878 108.44 55.6398 108.632C55.4958 109.072 55.1918 109.44 54.7838 109.664C54.5838 109.784 54.3598 109.872 54.1278 109.92C53.9118 109.96 53.6958 109.984 53.4798 109.984C53.0718 109.984 52.7118 109.984 52.4078 110C51.7998 110 51.4318 110.088 51.4238 110.064C51.7358 109.936 52.0638 109.872 52.3998 109.872C52.7038 109.848 53.0878 109.84 53.4718 109.816C53.6798 109.816 53.8878 109.784 54.0878 109.744C54.3038 109.696 54.5038 109.616 54.6958 109.504C55.0638 109.304 55.3438 108.968 55.4798 108.568C55.5278 108.392 55.5278 108.216 55.4798 108.04C55.4478 107.88 55.4078 107.72 55.3598 107.568C55.1758 107.016 54.9838 106.688 55.0078 106.672L55.0078 106.68Z" fill="#575656"/>
<path d="M75.0403 106.816C74.8643 106.872 74.6878 106.904 74.5123 106.928L73.0641 107.176C71.8403 107.376 70.1443 107.648 68.2563 107.928C66.3683 108.216 64.6801 108.456 63.4481 108.616C62.2161 108.776 61.4481 108.856 61.4481 108.808L61.9761 108.72L63.4321 108.488L68.2403 107.744C70.1201 107.464 71.8161 107.208 73.0481 107.056L74.5041 106.864C74.6801 106.832 74.8643 106.808 75.0403 106.808V106.816Z" fill="#425359"/>
<path d="M80.7356 105.48C80.3836 105.512 80.0316 105.512 79.6796 105.48C79.0236 105.448 78.1276 105.4 77.1356 105.336C76.6799 105.28 76.2159 105.28 75.7596 105.352C75.5836 105.384 75.4076 105.448 75.2559 105.544C75.1036 105.64 74.9679 105.768 74.8642 105.92C74.7362 106.128 74.6876 106.384 74.7356 106.624C74.7759 106.792 74.8399 106.872 74.8316 106.888C74.8156 106.896 74.7356 106.824 74.6716 106.648C74.6319 106.52 74.6159 106.384 74.6319 106.248C74.6479 106.112 74.6882 105.984 74.7522 105.864C74.8559 105.696 74.9999 105.544 75.1676 105.432C75.3359 105.32 75.5203 105.24 75.7199 105.2C76.1923 105.12 76.6716 105.104 77.1439 105.168C78.1436 105.24 79.0396 105.312 79.6879 105.368C80.0399 105.384 80.3919 105.424 80.7356 105.496V105.48Z" fill="#425359"/>
<path d="M78.5522 107.944C77.9045 107.848 77.2562 107.688 76.6405 107.472C76.0005 107.312 75.3765 107.096 74.7762 106.824C75.4245 106.928 76.0645 107.08 76.6885 107.296C77.3285 107.456 77.9525 107.672 78.5522 107.936V107.944Z" fill="#425359"/>
<path d="M70.2001 90.36C70.2481 90.36 71.3283 93.76 72.6083 97.992C73.8883 102.224 74.9041 105.664 74.8561 105.68C74.8081 105.696 73.7278 102.28 72.4478 98.048C71.1761 93.816 70.1521 90.384 70.2001 90.36Z" fill="#425359"/>
<path d="M78.0721 79.544C78.0721 79.544 77.4557 79.672 76.5117 80.0323C75.2881 80.504 74.1757 81.224 73.2477 82.152C72.3197 83.08 71.6081 84.2 71.1441 85.424C70.7997 86.368 70.7037 86.992 70.6641 86.984C70.6641 86.84 70.6801 86.688 70.7121 86.544C70.7837 86.152 70.8881 85.76 71.0237 85.376C71.4641 84.112 72.1757 82.96 73.1197 82.016C74.0637 81.064 75.2081 80.344 76.4721 79.9037C76.8477 79.768 77.2401 79.6643 77.6318 79.5843C77.7681 79.5523 77.9121 79.528 78.0561 79.528L78.0721 79.544Z" fill="#425359"/>
<path d="M42.9922 86.88C43.0002 86.96 43.0082 87.04 43.0162 87.12C43.0162 87.296 43.0161 87.52 43.0401 87.808C43.0401 88.424 43.0722 89.28 43.0882 90.328C43.1122 92.472 43.1521 95.408 43.1841 98.648C43.2241 101.888 43.2242 104.832 43.2322 106.96V110.168C43.2402 110.248 43.2402 110.328 43.2322 110.408C43.2162 110.328 43.2082 110.248 43.2082 110.168C43.2082 109.992 43.2081 109.768 43.1841 109.48C43.1841 108.864 43.1522 108.008 43.1362 106.96C43.1122 104.816 43.0722 101.888 43.0322 98.648C42.9922 95.408 43.0001 92.48 42.9841 90.328V87.12C42.9761 87.04 42.9761 86.96 42.9841 86.88H42.9922Z" fill="#425359"/>
<path d="M59.6078 160.152C59.5758 160.072 59.5518 159.984 59.5358 159.896C59.4958 159.704 59.4398 159.464 59.3678 159.152C59.2238 158.504 59.0238 157.56 58.7918 156.4C58.3278 154.072 57.7198 150.84 57.1518 147.264C56.5838 143.68 56.1439 140.432 55.8639 138.064C55.7199 136.888 55.6158 135.928 55.5518 135.272L55.4798 134.512C55.4718 134.424 55.4718 134.336 55.4798 134.248C55.5038 134.336 55.5198 134.424 55.5278 134.512C55.5518 134.704 55.5838 134.952 55.6318 135.264C55.7198 135.952 55.8478 136.888 55.9998 138.056C56.3118 140.408 56.7678 143.664 57.3358 147.24C57.9038 150.816 58.4878 154.048 58.9198 156.384C59.1358 157.536 59.3118 158.48 59.4398 159.152C59.4958 159.464 59.5438 159.72 59.5758 159.904C59.5918 159.992 59.5998 160.072 59.5998 160.16L59.6078 160.152Z" fill="#242E33"/>
<path d="M78.9519 116.88C78.9519 116.928 75.0799 117.224 70.2959 117.536C65.5119 117.856 61.6317 118.064 61.6317 118.016C61.6317 117.968 65.5037 117.672 70.2876 117.36C75.0716 117.048 78.9519 116.816 78.9519 116.88Z" fill="#425359"/>
<path d="M148.485 1.86621H13.5151C7.08151 1.86621 1.86603 7.0817 1.86603 13.5154V148.485C1.86603 154.918 7.08151 160.134 13.5151 160.134H148.485C154.918 160.134 160.134 154.918 160.134 148.485V13.5154C160.134 7.08171 154.918 1.86621 148.485 1.86621Z" stroke="#575656" stroke-width="2.4"/>
</svg>
