<svg width="163" height="163" viewBox="0 0 163 163" fill="none" xmlns="http://www.w3.org/2000/svg">
<path d="M148.7 1.43591H14.3C7.23075 1.43591 1.5 7.16667 1.5 14.2359V148.636C1.5 155.705 7.23075 161.436 14.3 161.436H148.7C155.769 161.436 161.5 155.705 161.5 148.636V14.2359C161.5 7.16667 155.769 1.43591 148.7 1.43591Z" fill="#CDCECF" stroke="#727272" stroke-width="2.4" stroke-miterlimit="10"/>
<path d="M129.748 161.427L129.348 149.164L132.042 161.427H142.904L138.092 138.228H117.028L118.174 161.427H129.748Z" fill="#363637"/>
<path d="M123.111 47.4905L119.639 41.5705L114.206 42.3465L109.719 36.8425L112.03 31.3385L105.975 27.3865L101.447 31.8585L95.4872 30.8345L93.0704 23.9545L85.8232 24.7065L85.4144 30.7065L80.0145 33.3865L74.3025 29.4265L68.5028 33.5545L71.5191 39.9065L68.0708 44.9945L61.8071 44.6665L60.1668 52.2345L66.1271 54.4745L66.6391 60.8345L60.4628 64.3065L63.4148 70.8665L69.8148 69.8905L74.0311 74.7065L71.8148 80.6828L77.6791 84.7383L82.2464 79.9225L88.5752 81.6023L90.5504 88.0183L97.5832 87.5543L98.4864 81.7943L104.534 78.3948L109.455 82.2583L115.71 77.6902L112.55 72.3065L115.638 66.8985L121.967 67.3548L123.91 60.3145L118.463 57.4345L117.759 51.0185L123.127 47.4985L123.111 47.4905ZM98.5432 68.2105C96.0952 69.5865 93.2864 70.2188 90.4792 70.0268C87.6632 69.8425 84.9752 68.8428 82.7432 67.1545C80.5111 65.4662 78.8388 63.1705 77.9345 60.5625C77.0391 57.9465 76.9508 55.1305 77.6868 52.4665C78.4228 49.8025 79.9505 47.4105 82.0712 45.5945C84.1992 43.7785 86.8224 42.6265 89.6144 42.2665C92.4072 41.9145 95.2552 42.3785 97.7752 43.6025C100.303 44.8265 102.399 46.7625 103.807 49.1545C105.687 52.3625 106.19 56.1705 105.207 59.7465C104.222 63.3222 101.823 66.3622 98.5432 68.2022V68.2105Z" fill="#6E6F6F"/>
<path d="M93.492 61.7986C96.548 60.7426 98.1568 57.4543 97.0688 54.4543C95.988 51.4623 92.628 49.8943 89.5648 50.9503C86.5088 52.0063 84.9 55.2943 85.988 58.2943C87.0688 61.2866 90.4288 62.8546 93.492 61.7986Z" fill="#363637"/>
<path d="M122.524 95.1559C122.524 95.1559 121.06 94.6919 121.044 93.8119C121.028 92.9319 132.02 91.6839 134.124 96.5639C134.124 96.5639 133.692 96.8279 132.012 96.7319" fill="#727272"/>
<path d="M131.644 109.292L124.94 108.804C124.9 108.092 124.94 105.332 124.94 105.332C124.94 105.332 122.148 104.94 122.116 102.396C122.084 99.852 122.548 94.02 122.548 94.02C124.14 93.396 125.884 93.172 127.604 93.372C129.324 93.572 130.956 94.188 132.324 95.156L132.756 95.444L131.644 109.292Z" fill="#BABBBB"/>
<path d="M123.219 98.4039C123.26 98.3719 123.299 98.3319 123.324 98.2919C123.347 98.2439 123.363 98.1959 123.372 98.1479C123.372 98.0999 123.372 98.0439 123.347 97.9959C123.331 97.9479 123.3 97.9079 123.268 97.8679C123.228 97.8279 123.187 97.8039 123.132 97.7799C123.075 97.7559 123.027 97.7479 122.972 97.7479C122.915 97.7479 122.86 97.7559 122.812 97.7719C122.764 97.7959 122.716 97.8199 122.676 97.8599C122.636 97.8919 122.604 97.9319 122.58 97.9719C122.556 98.0119 122.548 98.0599 122.54 98.1079C122.54 98.1559 122.54 98.2039 122.564 98.2519C122.58 98.2999 122.611 98.3399 122.643 98.3719C122.675 98.4039 122.723 98.4359 122.771 98.4599C122.819 98.4839 122.867 98.4919 122.924 98.4999C122.979 98.4999 123.027 98.4999 123.084 98.4759C123.132 98.4599 123.18 98.4359 123.219 98.4039Z" fill="#363637"/>
<path d="M122.548 97.82C122.588 97.86 122.868 97.668 123.252 97.668C123.636 97.668 123.916 97.852 123.956 97.804C123.996 97.756 123.932 97.708 123.812 97.62C123.644 97.516 123.452 97.46 123.244 97.46C123.044 97.46 122.852 97.524 122.684 97.636C122.588 97.724 122.524 97.804 122.54 97.82H122.548Z" fill="#363637"/>
<path d="M126.972 98.124C126.9 98.164 126.852 98.22 126.812 98.284C126.78 98.348 126.764 98.428 126.78 98.5C126.788 98.572 126.828 98.636 126.884 98.692C126.94 98.748 127.012 98.78 127.084 98.804C127.164 98.82 127.244 98.82 127.317 98.788C127.388 98.764 127.46 98.716 127.508 98.66C127.556 98.604 127.58 98.532 127.589 98.46C127.589 98.388 127.572 98.316 127.532 98.252C127.476 98.172 127.388 98.108 127.284 98.084C127.18 98.06 127.068 98.084 126.981 98.132L126.972 98.124Z" fill="#363637"/>
<path d="M126.716 98.1319C126.756 98.1719 127.036 97.9799 127.42 97.9799C127.804 97.9799 128.084 98.1559 128.124 98.1159C128.164 98.0759 128.124 98.0119 127.98 97.9319C127.812 97.8199 127.62 97.7639 127.42 97.7639C127.22 97.7639 127.02 97.8199 126.86 97.9319C126.74 98.0279 126.7 98.1159 126.724 98.1319H126.716Z" fill="#363637"/>
<path d="M125.18 101.02C124.98 100.948 124.772 100.908 124.556 100.9C124.452 100.9 124.372 100.868 124.364 100.82C124.364 100.732 124.388 100.636 124.436 100.556L124.74 99.8439C125.028 99.2439 125.244 98.6119 125.396 97.9719C125.044 98.5399 124.756 99.1479 124.532 99.7719L124.244 100.492C124.18 100.612 124.164 100.756 124.196 100.884C124.212 100.916 124.236 100.948 124.26 100.972C124.292 100.996 124.324 101.02 124.364 101.028H124.54C124.748 101.06 124.964 101.052 125.172 101.02L125.18 101.02Z" fill="#363637"/>
<path d="M126.428 101.404C125.828 101.652 125.196 101.82 124.54 101.9C124.668 102.084 124.86 102.228 125.092 102.3C125.316 102.372 125.571 102.372 125.795 102.3C126.627 102.012 126.428 101.412 126.428 101.412V101.404Z" fill="white"/>
<path d="M124.947 105.316C126.236 105.34 127.5 105.012 128.579 104.372C128.579 104.372 127.715 106.204 124.94 105.972V105.316H124.947Z" fill="#9B9D9C"/>
<path d="M122.524 94.676C122.524 94.676 124.156 95.54 126.444 94.676C127.948 94.116 129.66 93.892 130.004 94.196C130.356 94.5 130.323 95.852 131.731 96.34C131.731 96.34 131.428 98.924 132.564 98.908C133.7 98.892 133.324 94.828 133.324 94.828L130.652 93.412L127.676 92.684L124.796 92.86L122.547 93.252V94.668L122.524 94.676Z" fill="#363637"/>
<path d="M132.396 98.0759C132.444 98.0599 134.308 97.5559 134.252 99.2999C134.188 101.044 132.292 100.62 132.284 100.572C132.284 100.524 132.396 98.0759 132.396 98.0759Z" fill="#BABBBB"/>
<path d="M132.892 99.9239C132.892 99.9239 132.924 99.9239 132.98 99.9719C133.06 100.004 133.148 100.004 133.228 99.9719C133.356 99.8999 133.46 99.8039 133.524 99.6919C133.596 99.5799 133.628 99.4439 133.628 99.3159C133.644 99.1639 133.612 99.0119 133.548 98.8759C133.532 98.8199 133.5 98.7719 133.46 98.7319C133.42 98.6919 133.364 98.6599 133.308 98.6439C133.268 98.6359 133.228 98.6359 133.196 98.6439C133.156 98.6599 133.132 98.6839 133.116 98.7159C133.092 98.7639 133.116 98.7959 133.092 98.8039C133.068 98.8039 133.052 98.7719 133.068 98.6999C133.084 98.6599 133.108 98.6199 133.148 98.5959C133.204 98.5639 133.268 98.5479 133.332 98.5559C133.412 98.5719 133.484 98.6039 133.54 98.6519C133.596 98.6999 133.644 98.7639 133.669 98.8359C133.749 98.9879 133.78 99.1559 133.764 99.3239C133.764 99.4759 133.724 99.6359 133.636 99.7639C133.548 99.8919 133.412 99.9959 133.26 100.06C133.212 100.068 133.156 100.076 133.1 100.06C133.044 100.052 132.997 100.028 132.956 100.004C132.901 99.9719 132.884 99.9319 132.9 99.9319L132.892 99.9239Z" fill="#9B9D9C"/>
<path d="M133.692 92.692C133.692 92.748 133.396 92.724 133.076 92.82C132.756 92.916 132.54 93.076 132.492 93.036C132.444 92.996 132.62 92.74 133.012 92.644C133.404 92.548 133.716 92.644 133.692 92.692Z" fill="#363637"/>
<path d="M132.604 91.5879C132.732 91.8519 132.756 92.1399 132.66 92.4199C132.556 92.8919 132.228 93.1719 132.188 93.1319C132.148 93.0919 132.356 92.7959 132.436 92.3799C132.524 91.9559 132.524 91.5959 132.596 91.5959L132.604 91.5879Z" fill="#363637"/>
<path d="M124.412 97.2519C124.348 97.3559 123.98 97.2519 123.548 97.2519C123.116 97.2519 122.74 97.2839 122.684 97.1799C122.628 97.0759 123.012 96.8199 123.548 96.8439C124.084 96.8679 124.476 97.1559 124.412 97.2519Z" fill="#363637"/>
<path d="M128.692 97.2519C128.636 97.3559 128.26 97.2519 127.828 97.2519C127.396 97.2519 127.02 97.2839 126.964 97.1799C126.908 97.0759 127.284 96.8199 127.828 96.8439C128.364 96.8679 128.756 97.1559 128.692 97.2519Z" fill="#363637"/>
<path d="M127.076 93.452C122.044 92.956 121.084 93.764 121.036 93.804C120.908 93.676 120.82 93.524 120.78 93.348C120.604 91.996 122.404 91.612 122.404 91.612C123.532 86.924 128.156 87.404 128.156 87.404V87.372C128.196 87.172 128.324 87.004 128.508 86.884C128.692 86.772 128.916 86.732 129.132 86.764L129.86 86.892C130.076 86.932 130.268 87.044 130.396 87.212C130.516 87.38 130.564 87.58 130.524 87.78C135.948 89.428 134.148 93.996 134.148 93.996L134.94 94.868C135.644 96.164 134.116 96.564 134.116 96.564C134.116 96.564 132.236 93.98 127.084 93.452H127.076Z" fill="#6E6F6F"/>
<g opacity="0.2">
<path d="M129.365 92.684C129.669 92.684 129.973 92.74 130.261 92.836C131.669 93.204 132.972 93.852 134.084 94.732C134.325 94.9 134.54 95.1 134.716 95.332C133.9 94.764 133.061 94.244 132.181 93.764C131.269 93.356 130.332 92.996 129.372 92.684L129.365 92.684Z" fill="white"/>
</g>
<g opacity="0.2">
<path d="M130.18 88.0839C130.124 88.0599 130.18 87.8519 130.108 87.6039C130.036 87.3559 129.924 87.1799 129.972 87.1399C130.02 87.0999 130.26 87.2519 130.324 87.5719C130.388 87.8919 130.228 88.0919 130.172 88.0919L130.18 88.0839Z" fill="white"/>
</g>
<g opacity="0.2">
<path d="M133.676 93.316C133.364 93.26 133.476 91.932 132.7 90.612C131.924 89.3 130.684 88.612 130.804 88.356C130.86 88.228 131.284 88.228 131.876 88.492C132.652 88.86 133.284 89.428 133.684 90.132C134.092 90.836 134.252 91.628 134.148 92.42C134.052 93.028 133.788 93.348 133.668 93.316H133.676Z" fill="white"/>
</g>
<path d="M93.412 126.004C93.412 126.004 90.092 124.436 89.532 123.748C88.964 123.068 88.708 120.556 88.708 120.556L94.364 122.484L93.412 126.004Z" fill="#BABBBB"/>
<path d="M118.108 119.508C117.916 119.564 114.26 126.996 111.316 127.036C108.38 127.076 93.412 125.996 93.412 125.996L94.34 122.46L108.7 122.044L113.404 116.244L118.108 119.516V119.508Z" fill="#BABBBB"/>
<path d="M138.116 139.148L117.044 140.236C116.98 138.124 117.844 121.196 117.844 121.196L116.684 123.164L110.644 118.268L115.916 111.78C116.748 110.764 117.788 109.9 118.988 109.26C120.188 108.612 121.516 108.196 122.892 108.02C123.708 107.916 124.332 107.868 124.732 107.82C127.06 108.492 129.556 108.492 131.884 107.82C132.892 107.852 133.892 108.028 134.844 108.34C136.644 108.916 138.268 109.876 139.588 111.124L145.9 120.78L138.252 125.164L137.148 122.124L138.116 139.14V139.148Z" fill="#727272"/>
<path d="M128.419 158.396C128.483 158.396 128.531 158.66 128.515 158.996C128.508 159.324 128.451 159.596 128.387 159.596C128.323 159.596 128.284 159.324 128.291 158.996C128.291 158.668 128.355 158.38 128.419 158.404V158.396Z" fill="#5F6162"/>
<path d="M128.5 155.98C128.556 155.98 128.596 156.252 128.588 156.58C128.572 156.908 128.516 157.18 128.452 157.172C128.388 157.172 128.348 156.9 128.364 156.572C128.38 156.244 128.436 155.972 128.5 155.98Z" fill="#5F6162"/>
<path d="M128.628 153.596C128.684 153.596 128.724 153.868 128.7 154.196C128.676 154.524 128.612 154.796 128.548 154.788C128.484 154.788 128.452 154.516 128.476 154.18C128.5 153.852 128.58 153.588 128.628 153.588V153.596Z" fill="#5F6162"/>
<path d="M128.868 151.212C128.932 151.212 128.956 151.484 128.916 151.82C128.876 152.148 128.804 152.412 128.74 152.404C128.676 152.396 128.652 152.132 128.692 151.796C128.732 151.468 128.804 151.204 128.86 151.212L128.868 151.212Z" fill="#5F6162"/>
<path d="M129.116 149.444C129.18 149.444 129.204 149.588 129.18 149.748C129.156 149.908 129.084 150.028 129.028 150.02C128.964 150.02 128.94 149.876 128.964 149.716C128.988 149.548 129.06 149.436 129.116 149.444Z" fill="#5F6162"/>
<path d="M132.867 140.228L131.715 120.092H119.043L116.988 140.796L132.867 140.22V140.228Z" fill="#363637"/>
<path d="M135.62 108.62C135.62 108.62 130.484 109.844 130.404 120.828H128.332C128.332 120.828 127.788 111.612 133.372 107.988C133.372 107.988 134.988 107.636 135.62 108.628V108.62Z" fill="#363637"/>
<path d="M124.741 107.836C124.741 107.836 121.093 109.404 121.013 120.404H119.253C119.253 120.404 119.132 110.108 122.588 108.076C122.901 107.884 123.26 107.764 123.637 107.724C124.012 107.684 124.389 107.724 124.748 107.836L124.741 107.836Z" fill="#363637"/>
<path d="M141.252 159.492C141.308 159.492 141.42 159.724 141.484 160.044C141.556 160.356 141.556 160.62 141.484 160.636C141.412 160.652 141.316 160.404 141.252 160.084C141.188 159.772 141.188 159.5 141.252 159.492Z" fill="#5F6162"/>
<path d="M140.764 157.22C140.828 157.22 140.932 157.452 140.996 157.772C141.06 158.092 141.068 158.348 140.996 158.364C140.924 158.372 140.828 158.132 140.764 157.812C140.692 157.5 140.7 157.22 140.764 157.22Z" fill="#5F6162"/>
<path d="M140.268 154.932C140.332 154.932 140.435 155.164 140.499 155.484C140.572 155.804 140.572 156.06 140.499 156.076C140.428 156.084 140.332 155.844 140.268 155.524C140.204 155.204 140.211 154.94 140.268 154.932Z" fill="#5F6162"/>
<path d="M139.78 152.66C139.836 152.66 139.948 152.892 140.012 153.212C140.084 153.524 140.084 153.788 140.012 153.804C139.94 153.812 139.844 153.572 139.78 153.252C139.708 152.94 139.716 152.676 139.78 152.66Z" fill="#5F6162"/>
<path d="M139.284 150.38C139.348 150.38 139.452 150.612 139.524 150.932C139.596 151.244 139.596 151.508 139.524 151.524C139.452 151.532 139.356 151.292 139.292 150.972C139.228 150.652 139.228 150.396 139.292 150.38H139.284Z" fill="#5F6162"/>
<path d="M138.78 148.108C138.836 148.108 138.948 148.34 139.02 148.66C139.092 148.972 139.1 149.236 139.02 149.244C138.94 149.252 138.852 149.012 138.788 148.7C138.716 148.388 138.724 148.124 138.788 148.108H138.78Z" fill="#5F6162"/>
<path d="M138.275 145.828C138.332 145.828 138.444 146.06 138.515 146.372C138.588 146.684 138.595 146.948 138.515 146.964C138.435 146.972 138.348 146.732 138.275 146.42C138.204 146.108 138.211 145.828 138.275 145.828Z" fill="#5F6162"/>
<path d="M137.893 144.116C137.948 144.116 138.028 144.228 138.069 144.38C138.108 144.54 138.069 144.676 138.021 144.692C137.973 144.7 137.884 144.58 137.844 144.428C137.812 144.268 137.829 144.132 137.884 144.116H137.893Z" fill="#5F6162"/>
<path d="M121.084 119.828C121.171 120.012 121.203 120.212 121.196 120.412C121.203 120.636 121.156 120.86 121.052 121.068C120.988 121.196 120.892 121.316 120.764 121.404C120.644 121.492 120.492 121.556 120.34 121.588C120.18 121.612 120.012 121.588 119.86 121.54C119.708 121.484 119.58 121.396 119.476 121.276C119.316 121.1 119.228 120.876 119.219 120.644C119.219 120.252 119.347 120.052 119.372 120.068C119.395 120.076 119.34 120.3 119.372 120.636C119.395 120.828 119.484 121.012 119.619 121.156C119.699 121.244 119.804 121.308 119.916 121.348C120.028 121.388 120.156 121.404 120.276 121.388C120.396 121.364 120.508 121.316 120.604 121.244C120.7 121.172 120.78 121.092 120.844 120.988C120.94 120.812 120.996 120.62 121.012 120.42C121.06 120.052 121.043 119.828 121.084 119.828Z" fill="#5F6162"/>
<path d="M120.172 120.116C120.172 120.116 120.3 120.044 120.452 120.164C120.5 120.204 120.54 120.26 120.556 120.324C120.572 120.388 120.572 120.452 120.556 120.508C120.532 120.564 120.5 120.62 120.444 120.66C120.388 120.7 120.324 120.724 120.26 120.732C120.188 120.748 120.108 120.74 120.036 120.716C119.964 120.692 119.908 120.644 119.868 120.58C119.844 120.532 119.828 120.476 119.828 120.428C119.828 120.38 119.844 120.324 119.868 120.276C119.956 120.108 120.108 120.108 120.108 120.14C120.108 120.164 120.036 120.212 120.02 120.324C120.012 120.356 120.012 120.38 120.02 120.412C120.028 120.436 120.044 120.468 120.068 120.484C120.092 120.508 120.116 120.524 120.148 120.532C120.18 120.54 120.212 120.54 120.244 120.532C120.276 120.532 120.308 120.516 120.332 120.492C120.356 120.468 120.372 120.452 120.388 120.42C120.396 120.396 120.404 120.364 120.396 120.332C120.396 120.3 120.38 120.276 120.364 120.252C120.284 120.156 120.196 120.14 120.196 120.108L120.172 120.116Z" fill="#5F6162"/>
<path d="M130.26 119.9C130.34 120.076 130.372 120.26 130.348 120.452C130.348 120.668 130.284 120.876 130.164 121.06C130.092 121.18 129.98 121.276 129.86 121.356C129.732 121.428 129.588 121.468 129.436 121.476C129.292 121.476 129.14 121.46 129.004 121.412C128.868 121.364 128.74 121.292 128.628 121.204C128.46 121.06 128.34 120.868 128.276 120.66C128.172 120.316 128.236 120.1 128.276 120.1C128.316 120.1 128.316 120.316 128.436 120.612C128.508 120.78 128.628 120.94 128.78 121.06C128.964 121.204 129.196 121.276 129.436 121.268C129.548 121.268 129.668 121.236 129.764 121.18C129.86 121.124 129.948 121.052 130.004 120.956C130.108 120.796 130.172 120.62 130.196 120.436C130.196 120.252 130.212 120.076 130.252 119.9H130.26Z" fill="#5F6162"/>
<path d="M129.268 120.116C129.268 120.116 129.38 120.06 129.492 120.172C129.524 120.204 129.548 120.244 129.564 120.284C129.58 120.324 129.58 120.372 129.564 120.412C129.548 120.468 129.508 120.516 129.468 120.556C129.42 120.596 129.364 120.62 129.3 120.628C129.236 120.636 129.172 120.628 129.116 120.604C129.06 120.58 129.004 120.548 128.972 120.5C128.948 120.46 128.932 120.42 128.932 120.372C128.932 120.324 128.932 120.284 128.956 120.244C129.02 120.108 129.148 120.1 129.148 120.132C129.148 120.164 129.116 120.204 129.116 120.284C129.116 120.364 129.164 120.444 129.276 120.428C129.388 120.412 129.412 120.324 129.38 120.244C129.348 120.164 129.284 120.14 129.284 120.108L129.268 120.116Z" fill="#5F6162"/>
<path d="M129.779 124.98C129.779 124.98 129.683 125.06 129.484 125.172C129.203 125.324 128.915 125.468 128.62 125.588C127.635 126.004 126.595 126.316 125.523 126.5C124.451 126.684 123.363 126.748 122.268 126.692C121.939 126.668 121.612 126.636 121.292 126.58C121.171 126.572 121.052 126.548 120.94 126.508C120.94 126.476 121.452 126.508 122.284 126.54C123.356 126.556 124.428 126.468 125.484 126.292C126.54 126.108 127.564 125.82 128.556 125.444C129.308 125.172 129.756 124.956 129.772 124.98H129.779Z" fill="#5F6162"/>
<path d="M139.788 142.628L116.692 140.804V143.196L139.788 144.988V142.62V142.628Z" fill="#727272"/>
<path d="M123.988 141.276C123.668 141.284 123.348 141.276 123.028 141.252C122.436 141.22 121.604 141.18 120.628 141.108L120.74 141.004L121.212 143.404L121.244 143.596L121.14 143.516L124.204 143.7L124.108 143.788C124.06 143.052 124.028 142.436 124.004 141.996C123.988 141.756 123.988 141.516 124.004 141.284C124.06 141.5 124.092 141.724 124.108 141.948C124.164 142.38 124.236 143.02 124.308 143.788V143.884H124.204L121.132 143.74H121.044V143.66L121.004 143.468L120.572 141.06L120.548 140.94H120.676C121.692 141.028 122.54 141.116 123.124 141.18C123.412 141.196 123.7 141.236 123.988 141.284L123.988 141.276Z" fill="#5F6162"/>
<path d="M119.572 141.78C119.996 141.7 120.437 141.692 120.869 141.756C121.301 141.756 121.732 141.812 122.14 141.94C121.716 142.02 121.276 142.028 120.844 141.964C120.412 141.964 119.98 141.908 119.572 141.78Z" fill="#363637"/>
<path d="M119.413 142.46C119.868 142.396 120.332 142.404 120.789 142.484C121.253 142.484 121.708 142.564 122.14 142.708C121.685 142.772 121.221 142.764 120.764 142.684C120.3 142.684 119.845 142.604 119.413 142.46Z" fill="#363637"/>
<path d="M93.636 120.572L85.084 117.94L84.748 118.94C84.748 118.94 88.092 123.74 91.988 124.724L93.636 120.58V120.572Z" fill="#5F6162"/>
<path d="M119.044 134.516C119.044 134.516 105.844 126.084 105.052 125.828C104.26 125.572 98.58 125.564 97.18 125.7C95.78 125.836 91.7 125.46 91.7 125.46L95.892 114.876L86.996 112.796L87.468 111.348C87.468 111.348 94.628 107.42 98.764 108.548C102.9 109.676 104.844 114.612 105.7 115.836C106.556 117.06 108.428 121.436 117.26 126.58L122.484 129.756L119.052 134.508L119.044 134.516Z" fill="#5F6162"/>
<path d="M104.804 117.476C104.788 117.516 104.772 117.556 104.756 117.596L104.604 117.924L104.012 119.172L101.852 123.676L101.763 123.572C102.268 123.54 102.771 123.54 103.283 123.572C103.836 123.572 104.38 123.684 104.892 123.876C105.876 124.38 106.844 124.996 107.868 125.62C109.916 126.892 112.131 128.3 114.435 129.788C114.707 130.004 115.043 130.148 115.395 130.204C115.651 130.236 115.916 130.212 116.156 130.132C116.404 130.052 116.62 129.924 116.796 129.748C116.972 129.572 117.1 129.364 117.164 129.132C117.228 128.9 117.235 128.66 117.171 128.436C117.1 128.132 116.924 127.86 116.675 127.652C116.419 127.46 116.108 127.276 115.836 127.1L114.18 126.028L108.476 122.308C108.083 122.052 107.747 121.74 107.459 121.388C107.18 121.06 106.94 120.748 106.716 120.444C106.284 119.844 105.916 119.308 105.635 118.876C105.356 118.444 105.14 118.092 105.004 117.852L104.851 117.588C104.851 117.588 104.82 117.524 104.804 117.492C104.836 117.516 104.851 117.548 104.876 117.58L105.043 117.836L105.716 118.836C106.012 119.268 106.38 119.796 106.828 120.404C107.052 120.7 107.3 121.012 107.58 121.332C107.86 121.676 108.196 121.972 108.58 122.22L114.307 125.908L115.964 126.972C116.252 127.164 116.532 127.324 116.828 127.54C117.123 127.772 117.331 128.092 117.411 128.436C117.491 128.788 117.452 129.148 117.283 129.476C117.123 129.804 116.844 130.068 116.499 130.244C116.156 130.412 115.756 130.484 115.372 130.428C114.979 130.364 114.611 130.212 114.307 129.972C111.996 128.484 109.788 127.076 107.747 125.796C106.723 125.172 105.747 124.54 104.796 124.052C104.307 123.868 103.795 123.764 103.267 123.756C102.771 123.732 102.275 123.732 101.779 123.756H101.635L101.692 123.636C102.652 121.74 103.42 120.196 103.971 119.116C104.236 118.604 104.435 118.196 104.588 117.908L104.748 117.596C104.78 117.524 104.796 117.484 104.796 117.492L104.804 117.476Z" fill="#363637"/>
<path d="M139.068 144.156C138.78 144.556 138.396 144.9 137.956 145.156C137.516 145.42 137.02 145.596 136.5 145.676C135.98 145.756 135.452 145.748 134.94 145.636C134.428 145.524 133.948 145.324 133.524 145.036L115.916 132.516L119.044 127.668L138.068 139.276C138.908 139.804 139.484 140.612 139.668 141.524C139.86 142.436 139.644 143.38 139.076 144.156H139.068Z" fill="#5F6162"/>
<path d="M100.404 116.796L98.82 121.308H95.916L97.716 116.812L100.404 116.796Z" fill="#363637"/>
<path d="M95.724 120.316C95.724 120.204 96.684 120.108 97.8592 120.1C99.036 120.092 100.019 120.18 100.019 120.292C100.019 120.404 99.068 120.5 97.884 120.508C96.7 120.508 95.724 120.428 95.724 120.316Z" fill="#363637"/>
<path d="M96.276 118.876C96.276 118.764 97.236 118.668 98.428 118.66C99.628 118.66 100.588 118.74 100.588 118.852C100.588 118.964 99.628 119.06 98.428 119.06C97.228 119.06 96.276 118.98 96.276 118.868V118.876Z" fill="#363637"/>
<path d="M96.62 117.508C96.62 117.396 97.572 117.3 98.756 117.292C99.94 117.292 100.916 117.372 100.916 117.492C100.916 117.612 99.956 117.7 98.78 117.7C97.604 117.7 96.62 117.62 96.62 117.508Z" fill="#363637"/>
<path d="M93.692 120.068C93.564 120.876 93.324 121.668 92.988 122.428C92.716 123.204 92.364 123.948 91.932 124.66C92.164 123.876 92.452 123.1 92.796 122.356C93.268 121.084 93.628 120.06 93.7 120.068H93.692Z" fill="#363637"/>
<path d="M148.484 130.092C148.524 127.132 145.036 121.292 145.036 121.292L138.788 124.868L139.804 127.284L125.828 132.516L122.004 132.676L119.564 135.868L122.7 138.492L130.892 136.428C136.076 135.612 148.428 133.372 148.476 130.092H148.484Z" fill="#BABBBB"/>
<path d="M45.26 157.22C44.988 157.58 44.748 157.956 44.524 158.34C44.276 158.716 44.06 159.1 43.868 159.5C44.14 159.14 44.38 158.764 44.604 158.38C44.852 158.004 45.068 157.62 45.26 157.22Z" fill="#363637"/>
<path d="M44.2199 160.428V160.604C44.2199 160.7 44.2919 160.764 44.3159 160.756C44.3399 160.756 44.3159 160.668 44.3159 160.58C44.3159 160.492 44.2439 160.42 44.2199 160.428Z" fill="#363637"/>
<path d="M43.7 159.868C43.7 159.868 43.78 159.924 43.844 160.004C43.916 160.076 43.964 160.156 43.98 160.148C44.004 160.148 43.98 160.036 43.908 159.948C43.836 159.86 43.7 159.844 43.7 159.868Z" fill="#363637"/>
<path d="M43.3078 159.54C43.3078 159.54 43.3078 159.596 43.3478 159.644C43.3878 159.684 43.4358 159.708 43.4518 159.7C43.4678 159.692 43.4518 159.636 43.4118 159.596C43.3718 159.556 43.3238 159.524 43.3078 159.548V159.54Z" fill="#363637"/>
<path d="M79.8595 142.548H66.6282V145.396H79.8595V142.548Z" fill="#363637"/>
<path d="M73.2602 123.276H60.0282V126.124H73.2602V123.276Z" fill="#363637"/>
<path d="M56.276 143.124H43.044C42.18 143.124 41.484 143.764 41.484 144.548C41.484 145.34 42.18 145.972 43.044 145.972H56.276C57.14 145.972 57.836 145.34 57.836 144.548C57.836 143.756 57.14 143.124 56.276 143.124Z" fill="#5F6162"/>
<path d="M47.8519 125.196C47.8519 125.572 48.0199 125.932 48.3079 126.204C48.6039 126.476 48.9959 126.62 49.4119 126.62H59.5239C59.9399 126.62 60.3319 126.468 60.6279 126.204C60.9239 125.94 61.0839 125.572 61.0839 125.196C61.0839 124.82 60.9162 124.46 60.6279 124.188C60.3319 123.924 59.9399 123.772 59.5239 123.772H49.4119C48.9959 123.772 48.6039 123.924 48.3079 124.188C48.0119 124.452 47.8519 124.82 47.8519 125.196Z" fill="#5F6162"/>
<path d="M50.7321 96.0439C50.932 96.0999 54.58 103.532 57.524 103.572C60.46 103.612 75.436 102.532 75.436 102.532L75.6203 98.5559L60.148 98.5959L55.444 92.7959L50.74 96.0519L50.7321 96.0439Z" fill="#BABBBB"/>
<path d="M73.7164 99.0519C73.7164 99.0519 76.2681 98.3079 76.5484 97.9399C76.8281 97.5719 77.9801 95.8599 77.9801 95.8599C78.2201 96.1559 78.3244 96.5239 78.2681 96.8919C78.1881 97.1719 78.0441 97.6759 77.9404 98.0679C77.9244 98.1239 77.9244 98.1799 77.9404 98.2359C77.9564 98.2919 77.9884 98.3399 78.0281 98.3799C78.0684 98.4199 78.1241 98.4519 78.1881 98.4679C78.2444 98.4839 78.3084 98.4919 78.3724 98.4759C78.9721 98.3799 79.8604 98.2759 79.9641 98.5399C80.1241 98.9319 79.4284 101.54 78.9081 102.02C78.3961 102.5 74.8844 102.508 74.8844 102.508L73.7164 99.0439V99.0519Z" fill="#BABBBB"/>
<path d="M79.3078 99.3159C79.3078 99.3159 79.1478 99.4919 78.7875 99.6439C78.5718 99.7319 78.3478 99.7959 78.1155 99.8279C77.9555 99.8519 77.7955 99.8279 77.6598 99.7479C77.5875 99.6999 77.5235 99.6359 77.4915 99.5559C77.4595 99.4759 77.4518 99.3959 77.4678 99.3079C77.4998 99.1479 77.5958 99.0119 77.7315 98.9159C77.8518 98.8439 77.9798 98.7879 78.1238 98.7559C78.3715 98.6919 78.5955 98.6599 78.7798 98.6199C78.9795 98.5639 79.1882 98.5399 79.3962 98.5479C79.2202 98.6519 79.0198 98.7239 78.8195 98.7559L78.1795 98.9319C78.0675 98.9479 77.9555 98.9959 77.8678 99.0679C77.7795 99.1399 77.7155 99.2279 77.6758 99.3319C77.6278 99.5479 77.8518 99.6519 78.0842 99.6279C78.2998 99.6039 78.5078 99.5639 78.7075 99.4999C78.8918 99.4279 79.0922 99.3639 79.2842 99.3239L79.3078 99.3159Z" fill="#9B9D9C"/>
<path d="M78.8845 100.492C78.7565 100.588 78.6125 100.66 78.4525 100.7C78.3725 100.732 78.2842 100.748 78.1965 100.756C78.1402 100.756 78.0762 100.756 78.0205 100.732C77.9642 100.708 77.9162 100.684 77.8682 100.644C77.7645 100.564 77.7005 100.46 77.6762 100.34C77.6525 100.22 77.6762 100.1 77.7402 99.9959C77.8842 99.8199 78.0845 99.6999 78.3162 99.6439L78.7962 99.4679C79.0765 99.3639 79.2602 99.3399 79.2685 99.3639C79.2762 99.3879 79.1162 99.4679 78.8602 99.5959C78.7322 99.6599 78.5722 99.7399 78.3962 99.8199C78.2125 99.8759 78.0525 99.9719 77.9322 100.108C77.9002 100.172 77.8842 100.244 77.9002 100.316C77.9162 100.388 77.9565 100.452 78.0122 100.5C78.0282 100.524 78.0602 100.548 78.0922 100.556C78.1242 100.572 78.1562 100.572 78.1882 100.572C78.2605 100.572 78.3322 100.564 78.4045 100.548C78.6842 100.492 78.8685 100.452 78.8762 100.492H78.8845Z" fill="#9B9D9C"/>
<path d="M77.3398 101.356C77.3398 101.356 77.2598 101.22 77.1242 101.028C76.9482 100.764 76.6998 100.556 76.4042 100.404L76.2602 100.332L76.3882 100.236C76.4758 100.172 76.5719 100.1 76.6519 100.02C77.0602 99.6119 77.3879 99.1479 77.6362 98.6439C77.6682 98.6439 77.6362 98.8439 77.5402 99.1399C77.3802 99.5239 77.1318 99.8759 76.8118 100.164C76.7242 100.244 76.6282 100.324 76.5238 100.396V100.228C76.8522 100.396 77.1159 100.652 77.2682 100.964C77.3399 101.196 77.3398 101.356 77.3398 101.356Z" fill="#9B9D9C"/>
<path d="M78.9484 101.404C78.9484 101.404 78.8364 101.532 78.5644 101.62C78.4762 101.652 78.3884 101.66 78.3002 101.66C78.2124 101.66 78.1242 101.636 78.0364 101.596C77.9322 101.548 77.8522 101.476 77.7964 101.388C77.7644 101.332 77.7484 101.276 77.7484 101.212C77.7484 101.148 77.7644 101.092 77.7964 101.036C77.9084 100.868 78.0762 100.724 78.2764 100.644C78.4122 100.572 78.5562 100.516 78.7084 100.46C78.9644 100.372 79.1404 100.348 79.1404 100.372C79.1404 100.396 79.0042 100.468 78.7724 100.588C78.6604 100.652 78.5242 100.724 78.3724 100.812C78.2202 100.884 78.0922 100.988 77.9962 101.108C77.9322 101.22 78.0282 101.356 78.1484 101.42C78.2682 101.476 78.4044 101.5 78.5402 101.468C78.7802 101.436 78.9402 101.372 78.9562 101.404L78.9484 101.404Z" fill="#9B9D9C"/>
<path d="M35.7406 75.3079C35.6846 76.0035 35.5406 76.6921 35.3086 77.3559C35.0686 78.0279 34.5726 78.5956 33.9166 78.9719C33.2766 79.2996 32.3966 79.4359 32.1486 80.0599C31.9006 80.6921 32.4366 81.4999 31.9326 81.9719C31.7086 82.1399 31.4366 82.2439 31.1486 82.2759C30.6766 82.3799 30.2286 82.5719 29.8446 82.8439C29.4606 83.1159 29.1406 83.4599 28.9086 83.8519C28.6926 84.3319 28.6046 84.8439 28.6446 85.3559C28.6846 85.8679 28.8526 86.3719 29.1326 86.8119C29.7166 87.6919 30.4446 88.4919 31.2926 89.1719L39.4846 87.5719C39.4846 87.5719 37.0606 75.7399 37.1006 75.8199C36.6366 75.6759 36.1806 75.5075 35.7406 75.3079Z" fill="#363637"/>
<path d="M46.604 75.9319C46.644 76.1156 46.724 76.2839 46.844 76.4356C46.964 76.5879 47.124 76.7076 47.3 76.8036C47.66 76.9796 48.012 77.1799 48.34 77.3956C48.604 77.6279 48.82 77.8999 48.956 78.2116C49.1 78.5239 49.164 78.8516 49.148 79.1876C49.124 79.8596 48.988 80.5156 48.756 81.1556C49.428 81.1799 50.084 81.3476 50.676 81.6279C51.268 81.9079 51.796 82.3079 52.204 82.7959C53.02 83.7799 53.444 84.9799 53.42 86.2119C53.42 87.0839 53.18 88.0279 52.444 88.5719C51.828 88.9719 51.1 89.2039 50.34 89.2519C48.852 89.4519 47.356 89.5719 45.86 89.6839C44.364 89.8039 42.748 89.8919 41.42 89.2359C40.332 88.6359 39.508 87.7079 39.084 86.6119C38.42 85.0119 38.18 83.2919 38.388 81.5879C38.596 79.8916 39.004 78.2199 39.596 76.6039" fill="#363637"/>
<path d="M36.2839 74.0119C35.5559 73.6759 34.7559 73.4762 33.9399 73.4442C33.1239 73.4442 32.2599 73.8839 32.0359 74.5962C31.9319 74.9802 31.9879 75.3879 32.1799 75.7482C32.3799 76.1002 32.6439 76.4202 32.9559 76.6922C33.2359 77.0039 33.6279 77.2119 34.0679 77.2842C34.4119 77.3002 34.7479 77.2119 35.0279 77.0359C35.5959 76.7402 36.0119 76.2442 36.1959 75.6759C36.2759 75.3879 36.2759 75.0839 36.1799 74.8042C36.0839 74.5239 35.9079 74.2679 35.6599 74.0682" fill="#363637"/>
<path d="M45.6121 72.3402C45.6121 72.3402 47.0841 71.8762 47.0921 70.9962C47.1081 70.1238 36.1161 68.8681 34.0121 73.7481C34.0121 73.7481 34.4201 74.0118 36.1241 73.9158" fill="#727272"/>
<path d="M37.196 85.8359L43.9 85.3479C43.94 84.6359 43.9 81.8759 43.9 81.8759C43.9 81.8759 46.692 81.4839 46.724 78.9399C46.756 76.3959 46.292 70.5642 46.292 70.5642C44.708 69.9402 42.964 69.7162 41.252 69.9159C39.54 70.1162 37.916 70.7242 36.548 71.6842L36.116 71.9722L37.196 85.8359Z" fill="#BABBBB"/>
<path d="M45.1321 74.7876C45.0921 74.7556 45.0521 74.7159 45.0281 74.6756C45.0041 74.6359 44.9881 74.5796 44.9801 74.5316C44.9801 74.4836 44.9801 74.4279 45.0041 74.3799C45.0201 74.3319 45.0521 74.2916 45.0841 74.2519C45.1241 74.2116 45.1641 74.1879 45.2201 74.1642C45.2681 74.1399 45.3241 74.1316 45.3801 74.1316C45.4361 74.1316 45.4921 74.1399 45.5401 74.1642C45.5881 74.1802 45.6361 74.2116 45.6761 74.2519C45.7161 74.2839 45.7561 74.3242 45.7801 74.3639C45.8041 74.4119 45.8201 74.4599 45.8281 74.5079C45.8281 74.5559 45.8281 74.6116 45.8041 74.6596C45.7881 74.7076 45.7561 74.7479 45.7241 74.7876C45.6841 74.8279 45.6441 74.8516 45.5881 74.8759C45.5401 74.8996 45.4841 74.9079 45.4281 74.9079C45.3721 74.9079 45.3161 74.8996 45.2681 74.8759C45.2201 74.8516 45.1721 74.8279 45.1321 74.7876Z" fill="#363637"/>
<path d="M46.2842 74.348C46.2442 74.3877 45.9722 74.204 45.5882 74.1957C45.2042 74.1957 44.9242 74.38 44.8842 74.332C44.8442 74.284 44.9082 74.236 45.0282 74.1477C45.1882 74.0357 45.3882 73.98 45.5882 73.98C45.7882 73.98 45.9882 74.044 46.1482 74.156C46.2842 74.2442 46.3162 74.3237 46.2842 74.3397V74.348Z" fill="#363637"/>
<path d="M41.5081 74.5399C41.5561 74.5643 41.5961 74.5963 41.6201 74.6359C41.6441 74.6763 41.6761 74.7242 41.6841 74.764C41.6921 74.8042 41.7001 74.8599 41.6841 74.9079C41.6761 74.9559 41.6601 75.0039 41.6281 75.0442C41.5961 75.0839 41.5641 75.1243 41.5161 75.1479C41.4761 75.1799 41.4201 75.1959 41.3721 75.2043C41.3161 75.2119 41.2681 75.2203 41.2121 75.2043C41.1561 75.1959 41.1081 75.1799 41.0601 75.1563C40.9721 75.0999 40.9081 75.0199 40.8841 74.9239C40.8601 74.8279 40.8761 74.7319 40.9241 74.6443C40.9481 74.6039 40.9881 74.5642 41.0361 74.5322C41.0761 74.5002 41.1321 74.4842 41.1801 74.4682C41.2361 74.4599 41.2841 74.4522 41.3401 74.4682C41.3961 74.4759 41.4441 74.4919 41.4921 74.5239L41.5081 74.5399Z" fill="#363637"/>
<path d="M42.1238 74.6602C42.0758 74.6999 41.8038 74.5079 41.4198 74.5079C41.0358 74.5079 40.7558 74.6839 40.7158 74.6442C40.6758 74.6039 40.7398 74.5481 40.8598 74.4599C41.0198 74.3479 41.2198 74.2922 41.4278 74.2999C41.6278 74.2999 41.8278 74.3639 41.9878 74.4759C42.1078 74.5641 42.1478 74.6442 42.1318 74.6679L42.1238 74.6602Z" fill="#363637"/>
<path d="M43.6599 77.5478C43.8599 77.4756 44.0679 77.4358 44.2839 77.4276C44.3799 77.4276 44.4679 77.4039 44.4679 77.3476C44.4679 77.2599 44.4519 77.1638 44.3959 77.0838C44.2999 76.8516 44.1959 76.6198 44.0919 76.3716C43.8039 75.7718 43.5879 75.1401 43.4359 74.5001C43.7879 75.0761 44.0759 75.6758 44.2999 76.2998C44.3959 76.5481 44.4919 76.7798 44.5879 77.0198C44.6599 77.1401 44.6759 77.2759 44.6439 77.4121C44.6279 77.4441 44.6039 77.4761 44.5799 77.4999C44.5479 77.5241 44.5159 77.5401 44.4759 77.5561C44.4199 77.5638 44.3639 77.5638 44.2999 77.5561C44.0919 77.5881 43.8759 77.5798 43.6679 77.5478L43.6599 77.5478Z" fill="#363637"/>
<path d="M43.8919 81.8359C42.6039 81.8599 41.3319 81.5319 40.2519 80.8918C40.2519 80.8918 41.1159 82.7239 43.9 82.4919V81.8359H43.8919Z" fill="#9B9D9C"/>
<path d="M46.316 71.2036C45.7 71.4596 45.036 71.5959 44.356 71.5959C43.676 71.5959 43.012 71.4596 42.396 71.2036C40.892 70.6436 39.18 70.4196 38.836 70.7236C38.484 71.0276 39.092 73.6516 37.692 74.1476C37.692 74.1476 37.428 75.4596 36.284 75.4436C35.14 75.4276 35.532 71.3719 35.532 71.3719L38.204 69.9479L41.188 69.2279L44.068 69.4039L46.316 69.7956V71.2119V71.2036Z" fill="#363637"/>
<path d="M36.4439 74.5962C36.3959 74.5962 34.5239 74.0842 34.5879 75.82C34.6519 77.5562 36.5479 77.1402 36.5479 77.0922C36.5479 77.0442 36.4439 74.5962 36.4439 74.5962Z" fill="#BABBBB"/>
<path d="M35.9321 76.4516C35.9321 76.4516 35.9001 76.4516 35.8441 76.4996C35.7641 76.5316 35.6762 76.5316 35.5962 76.4996C35.4682 76.4279 35.3641 76.3319 35.3001 76.2199C35.2281 76.1079 35.1962 75.9716 35.1962 75.8436C35.1882 75.6919 35.2121 75.5479 35.2761 75.4116C35.2921 75.3559 35.3241 75.3079 35.3641 75.2676C35.4041 75.2279 35.4601 75.1959 35.5161 75.1716C35.5561 75.1556 35.5961 75.1639 35.6281 75.1716C35.6681 75.1876 35.6921 75.2119 35.7081 75.2439C35.7401 75.2919 35.7082 75.3239 35.7402 75.3316C35.7722 75.3316 35.7802 75.2996 35.7402 75.2279C35.7242 75.1876 35.7001 75.1479 35.6601 75.1236C35.6121 75.0999 35.5561 75.0916 35.5081 75.0999C35.4281 75.1159 35.3561 75.1479 35.3001 75.2036C35.2441 75.2516 35.1961 75.3156 35.1721 75.3796C35.1001 75.5396 35.0601 75.7156 35.0761 75.8839C35.0761 76.0356 35.1162 76.1956 35.2122 76.3236C35.3002 76.4516 35.4361 76.5559 35.5881 76.6199C35.6361 76.6276 35.6921 76.6359 35.7481 76.6199C35.8041 76.6039 35.8521 76.5879 35.8921 76.5636C35.9401 76.4996 35.9642 76.4599 35.9402 76.4599L35.9321 76.4516Z" fill="#9B9D9C"/>
<path d="M35.1482 69.196C35.1242 69.148 35.4442 69.02 35.8282 69.132C36.2202 69.244 36.3962 69.5236 36.3482 69.5236C36.3002 69.5236 36.0842 69.3956 35.7642 69.3079C35.4442 69.2196 35.1642 69.2676 35.1482 69.196Z" fill="#363637"/>
<path d="M36.2361 68.1162C36.3081 68.1162 36.3081 68.4842 36.3961 68.9002C36.4841 69.3162 36.6921 69.6202 36.6441 69.6522C36.5961 69.6842 36.2761 69.4122 36.1801 68.9399C36.0921 68.6679 36.1081 68.3722 36.2441 68.1079L36.2361 68.1162Z" fill="#363637"/>
<path d="M44.42 73.7801C44.356 73.6841 44.708 73.3878 45.284 73.3878C45.86 73.3878 46.22 73.6201 46.148 73.7238C46.076 73.8198 45.716 73.7796 45.284 73.7956C44.852 73.8116 44.484 73.8838 44.42 73.7801Z" fill="#363637"/>
<path d="M38.7799 70.6679C39.3639 71.0039 39.9159 71.3879 40.4359 71.8039C40.9639 72.2199 41.6439 72.4439 42.3479 72.4439L42.1799 72.1482C43.1879 72.5162 44.2519 72.7479 45.3399 72.8439C45.5319 72.8842 45.7399 72.8842 45.9319 72.8439C46.1239 72.7959 46.3079 72.7082 46.4519 72.5802C46.6999 72.2839 46.3559 71.7559 46.3159 71.2119C46.2839 70.8202 46.1319 70.7159 45.7239 70.5719C45.5319 70.5239 45.3319 70.5079 45.1399 70.5239C43.6279 70.5802 42.1159 70.5002 40.6119 70.2999C40.2599 70.2359 39.9079 70.2122 39.5479 70.2282C39.3719 70.2282 39.1959 70.2679 39.0359 70.3402C38.8759 70.4042 38.7319 70.5079 38.6199 70.6199" fill="#363637"/>
<path d="M43.6919 77.868C43.6279 77.8276 43.5559 77.804 43.4759 77.804C43.3959 77.804 43.3239 77.8276 43.2599 77.868C43.1959 77.9 43.1479 77.9556 43.1159 78.012C43.0839 78.0676 43.0599 78.1316 43.0679 78.204C43.0679 78.3396 43.124 78.4676 43.2199 78.5636C43.292 78.6436 43.3959 78.7076 43.5159 78.732C43.6119 78.748 43.7079 78.7396 43.7959 78.7076C43.884 78.6756 43.9639 78.6116 44.0119 78.54C44.0599 78.4676 44.0919 78.38 44.0919 78.2916C44.0919 78.204 44.0679 78.1156 44.0119 78.044C43.9559 77.9716 43.8839 77.9076 43.7959 77.868C43.7079 77.8276 43.6119 77.8116 43.5159 77.8116" fill="#9B9D9C"/>
<path d="M44.6602 78.3639C44.6602 78.3639 44.5482 78.4599 44.3322 78.4675C44.0522 78.4675 43.7802 78.4195 43.5242 78.3158C42.9242 78.0995 42.5482 77.7315 42.6122 77.6835C42.6762 77.6355 43.0442 77.9235 43.6042 78.1239C43.8362 78.2199 44.0842 78.2838 44.3322 78.3235C44.5242 78.3478 44.6442 78.3395 44.6522 78.3639H44.6602Z" fill="#363637"/>
<path d="M42.0361 73.74C41.9881 73.7798 41.9001 73.7643 41.7801 73.7803C41.6601 73.7963 41.4761 73.8361 41.2281 73.8521C40.7561 73.8918 40.3641 73.852 40.3641 73.7163C40.3641 73.58 40.7241 73.484 41.2041 73.4443C41.4201 73.4123 41.6521 73.4361 41.8601 73.4923C42.0441 73.5723 42.0841 73.708 42.0361 73.7323V73.74Z" fill="#363637"/>
<path d="M37.484 71.7797C37.516 73.1717 37.82 74.556 37.836 75.9397C37.852 77.3317 37.548 78.8037 36.54 79.868C36.212 80.268 35.724 80.524 35.18 80.5957C35.028 80.62 34.868 80.5957 34.724 80.5317C34.58 80.4677 34.468 80.3717 34.396 80.2437C34.332 80.028 34.364 79.7957 34.484 79.596C34.828 78.9637 35.228 78.348 35.668 77.7637C36.108 77.18 36.388 76.508 36.468 75.804C36.46 75.2837 36.38 74.764 36.228 74.268C36.076 73.7637 36.052 73.2357 36.164 72.7237C36.22 72.4677 36.364 72.236 36.564 72.0517C36.764 71.868 37.02 71.74 37.3 71.6837" fill="#363637"/>
<path d="M41.0599 70.6359C46.0919 70.1399 47.0519 70.9476 47.0999 70.9879C47.2359 70.8599 47.3239 70.7076 47.3559 70.5399C47.5399 69.2036 45.7319 68.8036 45.7319 68.8036C44.6039 64.1156 39.9799 64.5956 39.9799 64.5956V64.5636C39.9399 64.3639 39.8119 64.1956 39.6279 64.0759C39.4439 63.9639 39.2199 63.9236 39.0039 63.9556L38.2839 64.0836C38.0679 64.1239 37.8759 64.2359 37.7559 64.4036C37.6359 64.5719 37.5879 64.7716 37.6279 64.9719C32.2039 66.6199 34.0039 71.1876 34.0039 71.1876L33.2119 72.0599C32.5079 73.3636 34.0359 73.7559 34.0359 73.7559C34.0359 73.7559 35.9079 71.1639 41.0679 70.6436L41.0599 70.6359Z" fill="#6E6F6F"/>
<g opacity="0.2">
<path d="M38.7643 69.868C37.8043 70.1803 36.8683 70.5483 35.9563 70.956C35.0763 71.436 34.2363 71.9563 33.4283 72.524C33.5963 72.2923 33.8123 72.092 34.0523 71.9243C35.1563 71.0443 36.4683 70.396 37.8763 70.028C38.1563 69.9237 38.4603 69.868 38.7643 69.8597V69.868Z" fill="white"/>
</g>
<g opacity="0.2">
<path d="M34.46 70.508C34.316 70.54 34.068 70.22 33.972 69.628C33.876 68.844 34.036 68.044 34.444 67.34C34.852 66.636 35.484 66.0683 36.252 65.7003C36.852 65.436 37.276 65.436 37.332 65.564C37.452 65.8283 36.188 66.492 35.436 67.82C34.684 69.148 34.78 70.4517 34.468 70.508H34.46Z" fill="white"/>
</g>
<path d="M30.7564 115.66L51.1164 117.332C51.1484 116.06 50.7244 108.324 50.4764 103.244C50.4284 102.284 51.4764 100.612 51.4364 99.8039C51.3324 97.8039 51.0044 97.7239 51.0044 97.7239L52.1644 99.6919L58.2044 94.7959L52.9324 88.3079C52.1004 87.2919 51.0604 86.4279 49.8604 85.7879C48.6604 85.1479 47.3324 84.7239 45.9564 84.5479C45.1404 84.4519 44.5164 84.3959 44.1084 84.3479C41.7804 85.0199 39.2844 85.0199 36.9564 84.3479C35.9484 84.3799 34.9484 84.5559 33.9964 84.8679C32.1964 85.4439 30.5724 86.4039 29.2524 87.6519L20.6284 96.8999L28.6044 101.596L31.6764 98.6519L32.0764 106.3L30.7644 115.66L30.7564 115.66Z" fill="#727272"/>
<path d="M49.6439 94.5559C49.6439 94.6119 46.6279 94.6599 42.9399 94.6599C39.2519 94.6599 36.2359 94.6119 36.2359 94.5559C36.2359 94.4999 39.2359 94.4519 42.9399 94.4519C46.6439 94.4519 49.6439 94.4919 49.6439 94.5559Z" fill="white"/>
<path d="M49.1962 92.572C47.9002 92.708 46.5882 92.708 45.2922 92.572C46.5882 92.436 47.9002 92.436 49.1962 92.572Z" fill="white"/>
<path d="M34.6361 95.364C34.3961 95.708 34.1161 96.028 33.8121 96.324C33.2841 96.9 32.5161 97.684 31.7001 98.548C30.8841 99.412 30.1081 100.18 29.5401 100.732C29.2521 101.044 28.9401 101.332 28.5961 101.596C28.8441 101.26 29.1161 100.94 29.4201 100.636C29.9561 100.06 30.7161 99.268 31.5321 98.404C32.3481 97.54 33.1241 96.772 33.6921 96.22C33.9801 95.908 34.2921 95.62 34.6361 95.356V95.364Z" fill="#363637"/>
<path d="M22.3641 103.98C22.7241 104.18 23.0441 104.428 23.3161 104.716C23.6441 104.956 23.9001 105.268 24.0761 105.62C23.7321 105.404 23.4281 105.148 23.1561 104.86C22.8281 104.62 22.5641 104.316 22.3641 103.98Z" fill="#9B9D9C"/>
<path d="M35.9721 116.756L37.1241 96.6199H49.7881L50.7241 117.964L35.9641 116.756H35.9721Z" fill="#363637"/>
<path d="M48.0121 101.836C48.0121 101.836 47.9161 101.924 47.7161 102.044C47.4441 102.22 47.1561 102.38 46.8521 102.524C44.8521 103.492 42.5961 103.924 40.3321 103.764C39.9961 103.74 39.6601 103.692 39.3241 103.636C39.1961 103.628 39.0761 103.596 38.9641 103.548C38.9641 103.516 39.4921 103.588 40.3481 103.62C41.4521 103.66 42.5641 103.572 43.6441 103.38C44.7241 103.172 45.7801 102.852 46.7801 102.42C47.5481 102.068 48.0041 101.804 48.0041 101.836H48.0121Z" fill="#5F6162"/>
<path d="M39.1479 104.78C39.0839 104.78 39.0199 104.652 39.0119 104.492C39.0039 104.332 39.0439 104.204 39.0999 104.188C39.1639 104.18 39.2199 104.308 39.2359 104.476C39.2519 104.644 39.2039 104.78 39.1479 104.78Z" fill="#5F6162"/>
<path d="M38.8038 106.988C38.7398 106.988 38.7398 106.732 38.8038 106.42C38.8678 106.116 38.9558 105.876 39.0198 105.884C39.0838 105.892 39.0838 106.148 39.0198 106.452C38.9558 106.756 38.8678 106.996 38.8038 106.988Z" fill="#5F6162"/>
<path d="M39.1001 109.172C39.0521 109.204 38.8601 108.996 38.7641 108.684C38.6681 108.372 38.7001 108.108 38.7641 108.108C38.8281 108.108 38.8921 108.34 38.9801 108.628C39.0681 108.916 39.1561 109.148 39.1001 109.172Z" fill="#5F6162"/>
<path d="M41.164 110.172C41.164 110.228 40.876 110.268 40.532 110.212C40.18 110.156 39.94 109.988 39.972 109.94C40.004 109.892 40.26 109.956 40.572 110.012C40.892 110.06 41.164 110.116 41.164 110.172Z" fill="#5F6162"/>
<path d="M43.6199 110.148C43.6199 110.204 43.3399 110.252 43.0039 110.26C42.6679 110.26 42.3879 110.22 42.3879 110.164C42.3879 110.108 42.6599 110.06 43.0039 110.052C43.3399 110.052 43.6199 110.084 43.6199 110.148Z" fill="#5F6162"/>
<path d="M46.0679 110.116C46.0679 110.172 45.7959 110.228 45.4519 110.228C45.1079 110.228 44.8359 110.188 44.8359 110.132C44.8359 110.076 45.1159 110.028 45.4519 110.02C45.7959 110.02 46.0679 110.044 46.0679 110.108V110.116Z" fill="#5F6162"/>
<path d="M48.0678 109.108C48.1158 109.108 48.0918 109.396 47.8518 109.66C47.6118 109.916 47.2918 109.972 47.2758 109.924C47.2598 109.876 47.4838 109.74 47.6838 109.532C47.8838 109.324 48.0118 109.092 48.0758 109.116L48.0678 109.108Z" fill="#5F6162"/>
<path d="M48.516 106.908C48.58 106.908 48.588 107.172 48.54 107.476C48.492 107.78 48.396 108.02 48.34 108.012C48.276 108.004 48.268 107.748 48.316 107.444C48.364 107.14 48.444 106.908 48.516 106.908Z" fill="#5F6162"/>
<path d="M48.7641 104.692C48.8281 104.692 48.8521 104.948 48.8281 105.26C48.8041 105.572 48.7241 105.812 48.6681 105.804C48.6041 105.804 48.5801 105.548 48.6041 105.236C48.6281 104.932 48.7001 104.684 48.7641 104.692Z" fill="#5F6162"/>
<path d="M48.8438 102.98C48.9078 102.98 48.9478 103.116 48.9478 103.276C48.9478 103.436 48.8838 103.572 48.8278 103.564C48.7638 103.564 48.7238 103.428 48.7238 103.268C48.7238 103.108 48.7798 102.972 48.8438 102.972V102.98Z" fill="#5F6162"/>
<path d="M33.2199 85.1479C33.2199 85.1479 38.3559 86.3719 38.4359 97.3479H40.4999C40.4999 97.3479 41.0439 88.1319 35.4599 84.5079C35.4599 84.5079 33.8439 84.1559 33.2199 85.1399V85.1479Z" fill="#363637"/>
<path d="M44.0762 84.364C44.0762 84.364 47.7242 85.932 47.8122 96.932H49.5642C49.5642 96.932 49.7162 86.652 46.2682 84.628C45.9482 84.436 45.5882 84.308 45.2042 84.26C44.8202 84.212 44.4362 84.252 44.0762 84.364Z" fill="#363637"/>
<path d="M40.4918 96.508C40.5878 96.7 40.6358 96.916 40.6198 97.132C40.6198 97.38 40.5478 97.612 40.3958 97.812C40.2918 97.932 40.1558 98.02 40.0118 98.084C39.8678 98.148 39.6998 98.18 39.5318 98.18C39.3638 98.196 39.1958 98.18 39.0358 98.116C38.8758 98.06 38.7398 97.972 38.6198 97.86C38.4518 97.668 38.3558 97.436 38.3478 97.196C38.3238 96.98 38.3478 96.764 38.4358 96.564C38.4758 96.764 38.4998 96.972 38.5078 97.18C38.5318 97.388 38.6278 97.58 38.7718 97.74C38.9798 97.9 39.2438 97.98 39.5158 97.972C39.7878 97.964 40.0438 97.86 40.2358 97.692C40.3718 97.524 40.4518 97.324 40.4678 97.116C40.4518 96.908 40.4678 96.708 40.4838 96.5L40.4918 96.508Z" fill="#5F6162"/>
<path d="M39.4678 96.8359C39.4678 96.8359 39.5798 96.7479 39.7398 96.8359C39.7878 96.8679 39.8198 96.9159 39.8438 96.9639C39.8678 97.0119 39.8678 97.0679 39.8598 97.1239C39.8438 97.1879 39.8118 97.2519 39.7558 97.2999C39.6998 97.3479 39.6358 97.3799 39.5638 97.3879C39.4918 97.3959 39.4118 97.3879 39.3478 97.3559C39.2838 97.3239 39.2278 97.2759 39.1878 97.2199C39.1558 97.1719 39.1398 97.1239 39.1398 97.0679C39.1398 97.0119 39.1558 96.9639 39.1878 96.9159C39.2998 96.7719 39.4438 96.7959 39.4358 96.8199C39.4278 96.8439 39.3638 96.8839 39.3318 96.9879C39.3318 97.0119 39.3238 97.0359 39.3318 97.0599C39.3318 97.0839 39.3478 97.1079 39.3638 97.1239C39.3798 97.1479 39.4118 97.1639 39.4358 97.1719C39.4678 97.1879 39.4918 97.1879 39.5238 97.1879C39.5558 97.1879 39.5798 97.1639 39.6038 97.1479C39.6278 97.1319 39.6438 97.1079 39.6518 97.0759C39.6598 97.0519 39.6598 97.0279 39.6518 97.0039C39.6518 96.9799 39.6358 96.9559 39.6198 96.9399C39.5718 96.8759 39.4758 96.8679 39.4758 96.8359H39.4678Z" fill="#5F6162"/>
<path d="M49.6042 96.4999C49.6042 96.4999 49.7322 96.6919 49.7082 97.0359C49.6922 97.2439 49.6202 97.4359 49.4922 97.6119C49.4122 97.7159 49.3082 97.8119 49.1882 97.8759C49.0682 97.9399 48.9322 97.9879 48.7882 98.0039C48.6442 98.0279 48.4922 98.0039 48.3562 97.9559C48.2202 97.9079 48.1002 97.8279 48.0122 97.7159C47.8922 97.5559 47.8042 97.3799 47.7722 97.1879C47.7402 96.9959 47.7482 96.8039 47.8122 96.6119C47.8522 96.6119 47.8602 96.8119 47.9322 97.1239C47.9642 97.2999 48.0522 97.4599 48.1722 97.5959C48.2442 97.6679 48.3322 97.7319 48.4362 97.7639C48.5402 97.7959 48.6522 97.8119 48.7642 97.7959C48.8762 97.7799 48.9802 97.7399 49.0842 97.6919C49.1802 97.6359 49.2682 97.5639 49.3322 97.4839C49.4442 97.3399 49.5242 97.1719 49.5562 97.0039C49.6202 96.6919 49.5802 96.5079 49.6122 96.4999H49.6042Z" fill="#5F6162"/>
<path d="M48.6278 96.7719C48.6278 96.7719 48.6838 96.6519 48.8758 96.6759C48.9318 96.6839 48.9878 96.7079 49.0278 96.7399C49.0758 96.7719 49.1078 96.8199 49.1238 96.8679C49.1478 96.9319 49.1478 96.9959 49.1238 97.0599C49.1078 97.1239 49.0598 97.1799 49.0038 97.2199C48.9478 97.2599 48.8758 97.2839 48.7958 97.2839C48.7158 97.2839 48.6518 97.2599 48.5878 97.2199C48.5398 97.1879 48.4998 97.1479 48.4758 97.0999C48.4518 97.0519 48.4438 96.9959 48.4518 96.9399C48.4918 96.7639 48.6358 96.7399 48.6358 96.7639C48.6358 96.7879 48.5958 96.8519 48.6118 96.9399C48.6118 96.9639 48.6198 96.9879 48.6358 97.0039C48.6518 97.0199 48.6678 97.0359 48.6918 97.0519C48.7158 97.0679 48.7478 97.0759 48.7798 97.0759C48.8118 97.0759 48.8358 97.0759 48.8678 97.0519C48.8918 97.0359 48.9078 97.0119 48.9158 96.9799C48.9238 96.9559 48.9238 96.9239 48.9158 96.8999C48.9158 96.8759 48.8998 96.8519 48.8838 96.8359C48.8678 96.8199 48.8438 96.8039 48.8198 96.7879C48.7238 96.7479 48.6358 96.7719 48.6198 96.7479L48.6278 96.7719Z" fill="#5F6162"/>
<path d="M43.2366 161.427H49.8554L50.9562 159.516L44.8122 156.508L42.2282 160.868L42.5962 161.076C42.7586 161.166 42.9834 161.29 43.2366 161.427Z" fill="#727272"/>
<path d="M38.0779 161.427L55.9559 112.252L69.4787 161.427H74.2465L58.3879 104.116H54.5398L33.8582 161.427H38.0779Z" fill="#363637"/>
<path d="M53.9929 161.427L67.1238 112.436L84.876 161.427H90.1344L69.0841 104.116H64.4843L48.4317 161.427H53.9929Z" fill="#5F6162"/>
<path d="M42.2122 160.716H42.2039L42.2147 160.718L42.2122 160.716Z" fill="#363637"/>
<path d="M42.6041 160.948L43.5366 161.428H43.6689L42.6121 160.884L42.3081 160.732L42.2145 160.718L42.3081 160.78L42.6041 160.948Z" fill="#363637"/>
<path d="M37.7055 161.427L43.6042 124.548L43.4682 116.748L30.7322 114.748L26.2291 161.427H37.7055Z" fill="#363637"/>
<path d="M42.1081 157.54L50.1634 161.428H52.4568L64.0281 139.692C64.3238 139.26 64.4761 138.756 64.4761 138.244C64.4761 137.732 64.3238 137.236 64.0281 136.796L51.092 117.332V117.316H39.4681L38.9481 123.1L51.6841 137.148C52.0201 137.572 52.228 138.068 52.268 138.588C52.308 139.108 52.188 139.628 51.924 140.092L42.1081 157.54Z" fill="#363637"/>
<path d="M44.4266 161.428C44.4325 161.405 44.4424 161.391 44.4442 161.364C44.4522 161.244 44.3962 161.156 44.3722 161.156C44.3722 161.156 44.3722 161.252 44.3482 161.356C44.3418 161.383 44.3408 161.404 44.3371 161.428H44.4266Z" fill="#363637"/>
<path d="M44.4682 160.324C44.6282 160.668 44.6762 161.052 44.6122 161.42C44.6116 161.422 44.6106 161.425 44.6102 161.428H44.6762C44.7562 161.044 44.7162 160.652 44.5482 160.292C44.3722 159.932 44.0922 159.628 43.7322 159.42C43.6202 159.356 43.5082 159.308 43.3882 159.26C43.3482 159.244 43.3082 159.228 43.2682 159.228H43.2602C43.2602 159.228 43.4442 159.3 43.6922 159.468C44.0282 159.684 44.3002 159.98 44.4682 160.324Z" fill="#363637"/>
<path d="M18.5561 109.196C17.4761 108.068 16.8841 106.62 16.8921 105.124C16.8921 103.628 17.5001 102.188 18.5881 101.06L21.9881 97.7239L28.1241 101.316C27.9321 101.436 23.8921 105.42 23.8921 105.42L30.9721 113.452C31.5161 114.06 31.8761 114.78 32.0281 115.548C32.1801 116.316 32.1161 117.108 31.8361 117.852L30.6281 122.348L24.7321 119.956L25.1241 119.404H29.0041L29.2361 118.556L18.5721 109.196H18.5561Z" fill="#BABBBB"/>
<path d="M36.148 117.604C36.132 117.86 36.052 118.1 35.916 118.316C35.62 118.868 35.164 119.332 34.588 119.66C34.012 119.988 33.356 120.156 32.676 120.148C32.396 120.164 32.124 120.116 31.868 120.02C31.868 119.988 32.18 120.02 32.668 120.02C33.3 119.98 33.916 119.796 34.46 119.5C34.996 119.188 35.436 118.764 35.756 118.268C36.02 117.868 36.108 117.588 36.148 117.604Z" fill="#5F6162"/>
<path d="M53.1082 160.964C52.9562 160.932 52.8122 160.892 52.6762 160.828C52.4042 160.732 52.0042 160.58 51.5242 160.38C50.5562 159.988 49.2362 159.388 47.8202 158.668C46.4042 157.948 45.1642 157.228 44.2842 156.7C43.8522 156.428 43.4922 156.204 43.2522 156.044C43.0122 155.884 42.8842 155.788 42.9002 155.772C43.0442 155.828 43.1802 155.892 43.3082 155.98L44.3722 156.588C45.2682 157.1 46.5322 157.796 47.9322 158.516C49.3402 159.236 50.6442 159.844 51.5962 160.276L52.7242 160.788C52.8602 160.836 52.9962 160.9 53.1162 160.98L53.1082 160.964Z" fill="#5F6162"/>
<path d="M36.4838 158.82C36.5478 158.82 36.5558 159.092 36.5078 159.42C36.4598 159.74 36.3718 159.996 36.3158 159.988C36.2518 159.988 36.2438 159.716 36.2838 159.388C36.3238 159.068 36.4198 158.812 36.4838 158.82Z" fill="#5F6162"/>
<path d="M36.8199 156.492C36.8839 156.492 36.8919 156.764 36.8439 157.092C36.7959 157.412 36.7079 157.668 36.6439 157.66C36.5799 157.66 36.5719 157.388 36.6199 157.06C36.6679 156.74 36.7559 156.484 36.8199 156.492Z" fill="#5F6162"/>
<path d="M37.1718 154.156C37.2358 154.156 37.2438 154.428 37.1958 154.756C37.1478 155.076 37.0598 155.332 36.9958 155.324C36.9318 155.324 36.9238 155.052 36.9718 154.724C37.0198 154.404 37.1078 154.148 37.1718 154.156Z" fill="#5F6162"/>
<path d="M37.5319 151.82C37.5959 151.82 37.6039 152.092 37.5319 152.42C37.4599 152.74 37.3959 152.996 37.3319 152.988C37.2679 152.988 37.2599 152.716 37.3319 152.388C37.4039 152.068 37.4679 151.812 37.5319 151.82Z" fill="#5F6162"/>
<path d="M37.8998 149.492C37.9638 149.492 37.9718 149.764 37.8998 150.092C37.8278 150.412 37.7558 150.668 37.6998 150.66C37.6358 150.66 37.6278 150.388 37.6998 150.06C37.7718 149.74 37.8358 149.484 37.8998 149.492Z" fill="#5F6162"/>
<path d="M38.2678 147.156C38.3318 147.156 38.3398 147.428 38.2678 147.756C38.1958 148.076 38.1238 148.332 38.0678 148.324C38.0038 148.316 37.9958 148.052 38.0678 147.724C38.1398 147.404 38.2118 147.148 38.2678 147.156Z" fill="#5F6162"/>
<path d="M38.6521 144.828C38.7161 144.828 38.7241 145.1 38.6521 145.428C38.5801 145.748 38.5081 146.004 38.4441 145.996C38.3801 145.996 38.3801 145.724 38.4441 145.396C38.5081 145.076 38.5881 144.82 38.6521 144.828Z" fill="#5F6162"/>
<path d="M39.0438 142.5C39.1078 142.5 39.1158 142.772 39.0438 143.1C38.9718 143.42 38.8998 143.676 38.8358 143.668C38.7718 143.668 38.7638 143.396 38.8358 143.068C38.9078 142.748 38.9798 142.492 39.0438 142.5Z" fill="#5F6162"/>
<path d="M39.4439 140.172C39.5079 140.172 39.5079 140.452 39.4439 140.772C39.3799 141.092 39.2919 141.348 39.2359 141.34C39.1719 141.34 39.1719 141.06 39.2359 140.74C39.2999 140.42 39.3879 140.164 39.4439 140.172Z" fill="#5F6162"/>
<path d="M39.8441 137.844C39.9081 137.844 39.9081 138.124 39.8441 138.444C39.7801 138.764 39.6921 139.02 39.6281 139.012C39.5641 139.004 39.5641 138.74 39.6281 138.412C39.6921 138.092 39.7801 137.836 39.8441 137.844Z" fill="#5F6162"/>
<path d="M40.2441 135.524C40.3081 135.524 40.3081 135.804 40.2441 136.124C40.1801 136.444 40.0921 136.7 40.0281 136.692C39.9641 136.684 39.9641 136.42 40.0281 136.092C40.0921 135.772 40.1961 135.516 40.2441 135.524Z" fill="#5F6162"/>
<path d="M40.6761 133.204C40.7401 133.204 40.7401 133.476 40.6761 133.804C40.6121 134.124 40.5241 134.38 40.4601 134.364C40.3961 134.356 40.3961 134.092 40.4601 133.764C40.5241 133.444 40.6201 133.188 40.6761 133.204Z" fill="#5F6162"/>
<path d="M41.1082 130.868C41.1722 130.868 41.1722 131.148 41.1082 131.468C41.0442 131.788 40.9482 132.036 40.8922 132.028C40.8282 132.028 40.8282 131.756 40.8922 131.428C40.9562 131.108 41.0522 130.86 41.1082 130.86V130.868Z" fill="#5F6162"/>
<path d="M41.54 128.556C41.604 128.556 41.604 128.836 41.54 129.156C41.476 129.476 41.38 129.732 41.316 129.724C41.252 129.716 41.252 129.444 41.316 129.124C41.38 128.804 41.492 128.548 41.54 128.556Z" fill="#5F6162"/>
<path d="M42.0599 126.244C42.1239 126.244 42.1079 126.524 42.0359 126.844C41.9639 127.156 41.8519 127.412 41.7879 127.396C41.7239 127.388 41.7399 127.124 41.8199 126.796C41.8999 126.476 42.0039 126.228 42.0679 126.244H42.0599Z" fill="#5F6162"/>
<path d="M42.8359 123.996C42.8919 124.012 42.8359 124.276 42.7319 124.588C42.6279 124.892 42.4759 125.132 42.4199 125.116C42.3639 125.1 42.4199 124.836 42.5159 124.524C42.6119 124.212 42.7479 123.98 42.8279 124.004L42.8359 123.996Z" fill="#5F6162"/>
<path d="M43.6281 122.388C43.6841 122.42 43.6601 122.556 43.5801 122.7C43.4921 122.844 43.3881 122.94 43.3321 122.916C43.2841 122.892 43.3001 122.756 43.3801 122.612C43.4601 122.468 43.5801 122.364 43.6281 122.396V122.388Z" fill="#5F6162"/>
<path d="M44.5561 156.236C44.6041 156.268 44.5561 156.404 44.4681 156.54C44.3801 156.676 44.2521 156.756 44.1961 156.724C44.1481 156.692 44.1961 156.556 44.2761 156.42C44.3561 156.284 44.5001 156.196 44.5561 156.228V156.236Z" fill="#5F6162"/>
<path d="M45.9641 154.26C46.0121 154.292 45.9001 154.532 45.7081 154.812C45.5161 155.084 45.3161 155.284 45.2761 155.252C45.2361 155.22 45.3401 154.972 45.5321 154.7C45.7241 154.428 45.9081 154.228 45.9641 154.26Z" fill="#5F6162"/>
<path d="M47.3479 152.26C47.3959 152.292 47.2839 152.54 47.0999 152.812C46.9079 153.084 46.7159 153.284 46.6679 153.26C46.6199 153.236 46.7239 152.988 46.9159 152.708C47.1079 152.428 47.2919 152.236 47.3479 152.26Z" fill="#5F6162"/>
<path d="M48.6842 150.252C48.7402 150.284 48.6362 150.524 48.4442 150.804C48.2602 151.084 48.0682 151.284 48.0122 151.252C47.9562 151.22 48.0682 150.972 48.2522 150.692C48.4362 150.412 48.6282 150.212 48.6762 150.244L48.6842 150.252Z" fill="#5F6162"/>
<path d="M50.004 148.22C50.052 148.244 49.956 148.5 49.772 148.78C49.596 149.06 49.404 149.268 49.34 149.236C49.276 149.212 49.388 148.956 49.572 148.676C49.756 148.396 49.948 148.188 50.004 148.22Z" fill="#5F6162"/>
<path d="M51.284 146.188C51.332 146.212 51.236 146.468 51.06 146.756C50.884 147.044 50.7 147.244 50.628 147.212C50.556 147.18 50.668 146.932 50.844 146.652C51.02 146.372 51.22 146.148 51.276 146.188H51.284Z" fill="#5F6162"/>
<path d="M52.532 144.108C52.58 144.132 52.492 144.388 52.324 144.676C52.156 144.964 51.972 145.172 51.916 145.14C51.86 145.108 51.956 144.86 52.124 144.572C52.3 144.292 52.476 144.076 52.532 144.108Z" fill="#5F6162"/>
<path d="M53.7399 142.028C53.7959 142.052 53.7079 142.308 53.5399 142.596C53.3719 142.884 53.1959 143.092 53.1399 143.068C53.0839 143.044 53.1799 142.788 53.3399 142.5C53.4999 142.212 53.6839 142.004 53.7399 142.028Z" fill="#5F6162"/>
<path d="M54.7082 139.844C54.7722 139.844 54.7562 140.124 54.6362 140.444C54.5162 140.756 54.3562 140.988 54.3002 140.964C54.2442 140.94 54.3002 140.684 54.4282 140.38C54.5562 140.076 54.6522 139.836 54.7162 139.852L54.7082 139.844Z" fill="#5F6162"/>
<path d="M54.5001 137.548C54.5561 137.524 54.7321 137.756 54.8201 138.076C54.9081 138.404 54.8681 138.684 54.8201 138.684C54.7721 138.684 54.6921 138.436 54.6121 138.124C54.524 137.82 54.4521 137.54 54.508 137.54L54.5001 137.548Z" fill="#5F6162"/>
<path d="M53.028 135.612C53.068 135.58 53.292 135.748 53.524 136.004C53.756 136.26 53.892 136.492 53.844 136.524C53.796 136.556 53.572 136.38 53.348 136.132C53.124 135.876 52.98 135.652 53.028 135.612Z" fill="#5F6162"/>
<path d="M51.3081 133.844C51.3561 133.804 51.5881 133.972 51.8201 134.22C52.0601 134.46 52.2121 134.692 52.1641 134.732C52.1161 134.772 51.8841 134.604 51.6521 134.34C51.4121 134.076 51.2601 133.892 51.3081 133.852V133.844Z" fill="#5F6162"/>
<path d="M49.5959 132.084C49.6439 132.044 49.8759 132.212 50.1079 132.46C50.3479 132.7 50.4999 132.932 50.4519 132.972C50.4039 133.012 50.1799 132.844 49.9399 132.58C49.6999 132.316 49.5479 132.132 49.5959 132.092V132.084Z" fill="#5F6162"/>
<path d="M47.876 130.316C47.924 130.276 48.156 130.444 48.388 130.708C48.62 130.972 48.78 131.18 48.732 131.22C48.684 131.26 48.452 131.092 48.22 130.844C47.98 130.604 47.828 130.356 47.876 130.316Z" fill="#5F6162"/>
<path d="M46.1639 128.556C46.2039 128.516 46.4439 128.684 46.6759 128.932C46.9159 129.172 47.0679 129.404 47.0199 129.436C46.9799 129.468 46.7399 129.308 46.5079 129.06C46.2679 128.82 46.1159 128.588 46.1639 128.556Z" fill="#5F6162"/>
<path d="M44.4518 126.788C44.4998 126.748 44.7318 126.916 44.9638 127.164C45.2038 127.404 45.3558 127.636 45.3078 127.668C45.2598 127.7 45.0278 127.54 44.7958 127.276C44.5558 127.012 44.4038 126.828 44.4518 126.788Z" fill="#5F6162"/>
<path d="M43.164 125.468C43.212 125.436 43.348 125.5 43.46 125.62C43.58 125.74 43.636 125.868 43.588 125.908C43.54 125.948 43.404 125.876 43.292 125.756C43.172 125.636 43.116 125.508 43.164 125.468Z" fill="#5F6162"/>
<path d="M38.8439 153.02C38.8439 152.908 38.8599 152.804 38.8839 152.7L39.0599 151.78C39.2119 150.956 39.4279 149.82 39.6919 148.396C40.2119 145.54 40.8759 141.58 41.5639 137.196C42.2519 132.812 42.8199 128.844 43.2039 125.964C43.3879 124.54 43.5399 123.38 43.6359 122.556C43.6839 122.164 43.7239 121.86 43.7559 121.628C43.7639 121.524 43.7879 121.412 43.8119 121.308C43.8199 121.42 43.8199 121.524 43.8119 121.636C43.7879 121.868 43.7639 122.18 43.7319 122.564C43.6599 123.372 43.5319 124.532 43.3639 125.98C43.0199 128.868 42.4679 132.844 41.7879 137.228C41.1079 141.612 40.4039 145.564 39.8439 148.42C39.5639 149.852 39.3239 151.004 39.1399 151.796C39.0519 152.188 38.9799 152.476 38.9239 152.708C38.8999 152.812 38.8759 152.916 38.8359 153.02H38.8439Z" fill="#5F6162"/>
<path d="M50.076 116.252C50.156 116.332 50.228 116.42 50.292 116.508L50.884 117.268C51.396 117.94 52.1159 118.908 52.972 120.124C54.7 122.548 56.956 125.988 59.5399 129.724C60.8362 131.596 62.124 133.34 63.3157 134.916C63.932 135.652 64.3717 136.492 64.6117 137.388C64.6917 137.804 64.7 138.228 64.636 138.644C64.5637 139.02 64.4517 139.396 64.2917 139.748C64.0037 140.348 63.66 140.924 63.2677 141.468L62.4037 142.716L61.868 143.5C61.8117 143.596 61.7477 143.692 61.6759 143.772C61.7162 143.668 61.772 143.572 61.8282 143.476C61.932 143.284 62.108 143.012 62.332 142.66L63.164 141.396C63.5402 140.844 63.8597 140.268 64.1317 139.668C64.2757 139.316 64.38 138.956 64.444 138.588C64.4997 138.188 64.4837 137.788 64.412 137.388C64.1797 136.516 63.7477 135.7 63.1479 134.988C61.9397 133.42 60.644 131.676 59.356 129.804C56.772 126.06 54.548 122.612 52.844 120.164C51.98 118.94 51.3 117.956 50.812 117.276L50.252 116.492C50.18 116.412 50.124 116.332 50.068 116.236L50.076 116.252Z" fill="#5F6162"/>
</svg>
