<svg width="163" height="163" viewBox="0 0 163 163" fill="none" xmlns="http://www.w3.org/2000/svg">
<path d="M148.7 1.5H14.3C7.23075 1.5 1.5 7.23039 1.5 14.3V148.7C1.5 155.769 7.23075 161.5 14.3 161.5H148.7C155.769 161.5 161.5 155.769 161.5 148.7V14.3C161.5 7.23039 155.769 1.5 148.7 1.5Z" fill="#CDCECF" stroke="#727272" stroke-width="2.4" stroke-miterlimit="10"/>
<path d="M82.1912 160.3C80.4962 147.874 77.692 128.804 77.692 128.804H77.6998L76.876 121.74L68.6437 121.868L62.316 145.044L64.9689 160.3H82.1912Z" fill="#4E636A"/>
<path d="M64.2758 158.084L70.812 121.692L53.4439 121.444C53.4428 121.445 50.8438 124.237 49.5641 126.916C48.284 129.588 47.46 135.972 47.46 135.972C47.46 135.972 43.86 143.988 44.404 148.084C44.611 149.645 45.2709 154.672 46.0088 160.3H64.2099L64.2758 158.084Z" fill="#4E636A"/>
<path d="M64.0852 160.3C64.8016 154.76 65.3962 150.169 65.8222 146.892C66.0385 145.148 66.2145 143.78 66.3342 142.836C66.3905 142.38 66.4302 142.02 66.4622 141.772C66.4942 141.524 66.4942 141.404 66.4942 141.404C66.4942 141.404 66.4705 141.524 66.4302 141.764C66.3905 142.004 66.3425 142.372 66.2785 142.828C66.1422 143.772 65.9585 145.14 65.7102 146.876L63.8906 160.3H64.0852Z" fill="#2A363C"/>
<path d="M52.1795 160.3L53.8442 137.057H53.8362L36.6294 136.202L34.8586 160.3H52.1795Z" fill="#2A363C"/>
<path d="M40.609 160.3C40.6562 159.58 40.7007 158.878 40.74 158.213C40.908 155.228 41.0279 152.804 41.0759 151.125C41.0999 150.3 41.132 149.652 41.132 149.196V148.517C41.132 148.517 41.0999 148.548 41.0999 148.668C41.0919 148.796 41.0679 148.964 41.0679 149.172C41.0439 149.62 41.0119 150.268 40.9639 151.1C40.8919 152.773 40.7479 155.196 40.5559 158.18C40.5117 158.856 40.462 159.57 40.4098 160.3H40.609Z" fill="#4E636A"/>
<path d="M39.9406 160.3L41.1882 148.228L45.7482 136.676L22.0682 135.708L22.0602 135.692V143.26L23.2346 160.3H39.9406Z" fill="#2A363C"/>
<path d="M145.1 112.42H42.6199V31.388L145.164 31.196L145.1 112.42Z" fill="#FEFCFA"/>
<path d="M145.1 112.42C145.1 111.66 145.1 79.916 145.052 31.196L145.164 31.284L42.7802 31.492H42.6202L42.7482 31.388V112.42L42.6362 112.332L145.116 112.42L42.6362 112.508H42.5242V31.284H42.8122L145.196 31.1H145.308V31.188C145.196 79.916 145.109 111.66 145.1 112.42Z" fill="#2A363C"/>
<path d="M138.212 104.812H136.828L132.852 104.836L118.228 104.884L69.9638 104.924H49.0199V104.788C49.0199 91.004 49.0599 79.148 49.0679 70.724C49.0679 66.524 49.0919 63.18 49.1079 60.884C49.1079 63.188 49.1319 66.532 49.1479 70.724C49.1479 79.148 49.1799 91.004 49.1959 104.788L49.0599 104.66H69.8678L118.132 104.7L132.756 104.748L136.732 104.772H137.764L138.204 104.812L138.212 104.812Z" fill="#2A363C"/>
<path d="M65.3796 93.092H56.3879V102.084H65.3796V93.092Z" fill="#1F2B2D"/>
<path d="M78.5721 86.66H69.5801V102.084H78.5721V86.66Z" fill="#1F2B2D"/>
<path d="M91.812 79.356H82.82V102.084H91.812V79.356Z" fill="#1F2B2D"/>
<path d="M104.652 71.22H95.66V102.084H104.652V71.22Z" fill="#1F2B2D"/>
<path d="M117.788 60.804H108.796V102.084H117.788V60.804Z" fill="#1F2B2D"/>
<path d="M130.82 52.868H121.828V101.66H130.82V52.868Z" fill="#1F2B2D"/>
<g opacity="0.5">
<path d="M78.5721 86.66H69.5801V102.084H78.5721V86.66Z" fill="white"/>
</g>
<g opacity="0.5">
<path d="M104.652 71.22H95.66V102.084H104.652V71.22Z" fill="white"/>
</g>
<g opacity="0.5">
<path d="M130.828 52.868H121.836V101.66H130.828V52.868Z" fill="white"/>
</g>
<path d="M56.3879 83.868C56.3879 83.868 56.4679 83.8041 56.5079 83.7801L56.8599 83.54L58.2279 82.6281L63.3879 79.2361L81.2356 67.564L81.4436 67.4281V71.7L81.2279 71.588L88.2592 66.8761L113.091 50.292L120.636 45.2841L122.691 43.916L123.228 43.572C123.283 43.5321 123.347 43.4921 123.42 43.4601C123.363 43.5081 123.308 43.5481 123.244 43.596L122.723 43.964L120.692 45.3321L113.204 50.4521L88.428 67.1081L81.4039 71.82L81.1876 71.964V67.6761L81.3956 67.788L63.4756 79.3801L58.2759 82.716L56.8839 83.596L56.5159 83.82C56.4359 83.8601 56.3959 83.876 56.3879 83.876L56.3879 83.868Z" fill="#2A363C"/>
<path d="M123.42 47.276C123.34 46.916 123.308 46.54 123.324 46.172C123.299 45.484 123.283 44.524 123.276 43.436L123.42 43.58H123.075C121.923 43.58 120.883 43.58 120.131 43.54C119.724 43.556 119.308 43.524 118.908 43.436C119.315 43.372 119.724 43.348 120.14 43.38C120.892 43.356 121.932 43.34 123.091 43.34H123.571V43.476C123.571 44.548 123.571 45.508 123.523 46.212C123.532 46.572 123.5 46.932 123.427 47.284L123.42 47.276Z" fill="#2A363C"/>
<path d="M57.8679 54.516C57.8679 54.516 56.7958 64.452 58.1638 69.892L71.4358 69.308C71.4358 69.308 68.5956 59.508 70.3396 55.18L57.8679 54.516Z" fill="#F2EAD7"/>
<path d="M57.9238 54.204C57.9238 54.204 58.0118 64.932 58.5558 68.204L72.0118 67.564C72.0118 67.564 70.8278 57.02 71.2842 54.204H57.9238Z" fill="#1F2B2D"/>
<path d="M69.2524 58.708C69.2524 58.756 67.2364 58.916 64.7482 59.068C62.2522 59.22 60.2361 59.3 60.2282 59.252C60.2282 59.204 62.2444 59.036 64.7322 58.884C67.2282 58.732 69.2442 58.66 69.2524 58.708Z" fill="white"/>
<path d="M69.26 60.98C69.26 61.028 67.244 61.1879 64.7557 61.3399C62.2597 61.4919 60.2359 61.572 60.2359 61.524C60.2359 61.476 62.252 61.3159 64.7397 61.1639C67.2357 61.012 69.2517 60.932 69.26 60.98Z" fill="white"/>
<path d="M66.9719 63.212C66.7242 63.276 66.4759 63.308 66.2282 63.316C65.7719 63.364 65.1242 63.412 64.4042 63.452C63.6919 63.492 63.0359 63.524 62.5802 63.532C62.3319 63.564 62.0759 63.564 61.8199 63.532C62.0682 63.468 62.3159 63.436 62.5719 63.428C63.0282 63.38 63.6759 63.332 64.3959 63.292C65.1082 63.252 65.7642 63.22 66.2199 63.212C66.4682 63.18 66.7242 63.18 66.9719 63.212Z" fill="white"/>
<path d="M91.5 41.9639C91.5 42.0439 83.628 42.1 73.9235 42.1C64.2198 42.1 56.3398 42.0439 56.3398 41.9639C56.3398 41.884 64.2038 41.8199 73.9075 41.8199C83.612 41.8199 91.5 41.884 91.5 41.9639Z" fill="#2A363C"/>
<path d="M69.2602 45.1719C69.2602 45.252 66.3078 45.308 62.6682 45.308C59.0282 45.308 56.0762 45.2519 56.0762 45.1719C56.0762 45.0919 59.0282 45.028 62.6682 45.028C66.3078 45.028 69.2602 45.0919 69.2602 45.1719Z" fill="#2A363C"/>
<path d="M76.2602 45.1719C76.2602 45.252 75.1243 45.308 73.724 45.308C72.3243 45.308 71.1883 45.2519 71.1883 45.1719C71.1883 45.0919 72.3243 45.028 73.724 45.028C75.1243 45.028 76.2602 45.0919 76.2602 45.1719Z" fill="#2A363C"/>
<path d="M58.1479 132.396C58.0999 132.26 58.0839 132.116 58.0759 131.964C58.0439 131.692 58.0279 131.292 58.0199 130.796C58.0199 129.508 58.0999 128.22 58.2439 126.94C58.4199 125.484 58.5639 124.164 58.6999 123.108C58.7399 122.58 58.8039 122.044 58.9079 121.524C58.9559 122.06 58.9479 122.596 58.8839 123.132C58.8199 124.116 58.6679 125.476 58.5079 126.972C58.3479 128.468 58.2359 129.828 58.2039 130.804C58.1719 131.78 58.1879 132.396 58.1399 132.404L58.1479 132.396Z" fill="#4E636A"/>
<path d="M60.1081 125.948C59.8121 125.26 59.6361 124.524 59.5881 123.78C59.4521 123.044 59.4281 122.292 59.5321 121.548C59.6841 122.276 59.7881 123.004 59.8441 123.74C59.9801 124.468 60.0681 125.204 60.1161 125.94L60.1081 125.948Z" fill="#4E636A"/>
<path d="M66.8365 123.788C66.7885 123.788 66.8045 123.444 66.4282 123.188C66.3245 123.116 66.2042 123.076 66.0762 123.06C65.9482 123.044 65.8285 123.06 65.7082 123.116C65.5642 123.172 65.4445 123.26 65.3562 123.388C65.2685 123.508 65.2282 123.66 65.2282 123.812C65.2282 123.964 65.2762 124.108 65.3562 124.236C65.4445 124.356 65.5642 124.452 65.7082 124.508C65.8285 124.548 65.9565 124.564 66.0762 124.548C66.1965 124.532 66.3162 124.484 66.4205 124.412C66.7885 124.14 66.7565 123.78 66.8045 123.796C66.8525 123.812 66.8442 123.876 66.8282 124.02C66.7962 124.228 66.6925 124.42 66.5325 124.556C66.4122 124.668 66.2605 124.74 66.1005 124.772C65.9405 124.804 65.7722 124.796 65.6205 124.74C65.4361 124.676 65.2685 124.556 65.1482 124.396C65.0285 124.236 64.9645 124.044 64.9645 123.844C64.9645 123.644 65.0202 123.452 65.1322 123.284C65.2442 123.116 65.4041 122.988 65.5885 122.924C65.7401 122.868 65.9001 122.844 66.0601 122.876C66.2201 122.9 66.3725 122.972 66.4921 123.076C66.6605 123.204 66.7725 123.396 66.8045 123.596C66.8525 123.732 66.8281 123.812 66.8205 123.812L66.8365 123.788Z" fill="#4E636A"/>
<path d="M45.3958 83.196C43.5158 84.9081 41.9638 86.948 40.8358 89.2281C39.2998 92.372 29.9238 110.604 31.2198 112.588C32.5158 114.572 36.3398 116.236 36.7238 116.18C37.1078 116.124 44.2918 111.804 44.2918 111.804C44.2918 111.804 48.7638 97.54 48.8118 97.5081C48.8598 97.468 45.3878 83.2041 45.3878 83.2041L45.3958 83.196Z" fill="#E4E3E1"/>
<path d="M81.868 107.452C81.868 107.452 83.628 133.812 83.428 135.204C83.228 136.596 79.7399 143.38 79.7399 143.38L77.4039 135.42L79.3079 131.556L76.2199 109.836L81.868 107.444L81.868 107.452Z" fill="#485757"/>
<path d="M70.0918 81.308L66.3402 80.724C66.3402 80.724 66.5162 87.428 60.6998 87.676C54.0998 87.948 52.9558 80.9 52.9558 80.9C52.9558 80.9 46.5798 82.076 45.4118 83.148C44.2438 84.22 49.7798 112.372 49.7798 112.372L49.2518 130.548C49.2518 130.548 56.3238 134.1 64.5962 134.196C67.0198 134.22 69.4282 133.764 71.6758 132.836C73.9242 131.916 75.9562 130.548 77.6682 128.82L79.1958 124.876L76.3082 110.292L70.0918 81.308Z" fill="#E4E3E1"/>
<path d="M70.0836 81.436C70.0836 81.436 74.7076 82.804 76.1156 84.684C77.5159 86.564 82.5632 108.036 82.5632 108.036L76.3236 110.436L70.0836 81.444V81.436Z" fill="#E4E3E1"/>
<path d="M73.1243 88.668C73.116 88.748 73.116 88.82 73.1243 88.9C73.1243 89.076 73.18 89.292 73.212 89.556C73.3003 90.156 73.4283 90.964 73.58 91.948C73.9 94.004 74.332 96.772 74.8043 99.836C75.276 102.9 75.6683 105.684 75.964 107.74C76.108 108.724 76.2283 109.532 76.316 110.132L76.428 110.788C76.4523 110.94 76.4683 111.012 76.476 111.012C76.4843 110.94 76.4843 110.86 76.476 110.788C76.476 110.612 76.4363 110.388 76.412 110.132C76.3563 109.564 76.2603 108.74 76.14 107.724C75.8923 105.692 75.5083 102.892 75.0443 99.804C74.5803 96.716 74.108 93.932 73.7483 91.924C73.5723 90.916 73.4123 90.1 73.292 89.54C73.244 89.284 73.196 89.084 73.1563 88.9C73.1563 88.828 73.1403 88.748 73.116 88.676L73.1243 88.668Z" fill="#2A363C"/>
<path d="M57.1961 99.932C57.3161 100.14 57.4601 100.332 57.6121 100.524C57.8841 100.9 58.3081 101.436 58.8521 102.044C61.7158 105.3 65.2198 107.94 69.1481 109.788C69.8918 110.14 70.5158 110.404 70.9478 110.564C71.1718 110.66 71.3964 110.732 71.6281 110.796C71.4201 110.676 71.2038 110.564 70.9798 110.484C70.5561 110.3 69.9558 110.028 69.2198 109.644C65.3721 107.724 61.9001 105.116 58.9801 101.956C58.4201 101.348 57.9801 100.852 57.6841 100.492C57.5401 100.292 57.3801 100.108 57.2041 99.948L57.1961 99.932Z" fill="#2A363C"/>
<path d="M73.4199 89.4361C73.4442 89.5001 74.3082 89.164 75.3962 88.8601C76.4842 88.5561 77.3962 88.404 77.3879 88.316C75.9959 88.3561 74.6282 88.74 73.4199 89.4361Z" fill="#4E636A"/>
<path d="M45.916 91.748C46.012 91.756 46.108 91.756 46.196 91.748L47.004 91.708L49.948 91.54L59.684 90.876C63.4923 90.58 66.9323 90.348 69.4283 90.3C70.668 90.268 71.6843 90.26 72.38 90.268H73.1883C73.2843 90.276 73.372 90.276 73.468 90.268C73.3803 90.244 73.2843 90.228 73.1883 90.236C73.004 90.236 72.732 90.204 72.3883 90.188C71.692 90.156 70.6763 90.132 69.4283 90.14C66.924 90.14 63.4763 90.356 59.676 90.652L49.94 91.38L46.988 91.628L46.188 91.708C46.092 91.708 46.004 91.716 45.916 91.74V91.748Z" fill="#4E636A"/>
<path d="M74.332 94.4679C75.0918 94.484 75.8598 94.4199 76.6118 94.284C77.3798 94.2199 78.1478 94.0759 78.892 93.86C78.1318 93.8439 77.3638 93.908 76.6118 94.0439C75.836 94.108 75.0758 94.2439 74.332 94.4679Z" fill="#4E636A"/>
<path d="M47.3078 99.252C47.4038 99.268 47.4918 99.268 47.5878 99.252L48.3798 99.22C49.0678 99.18 50.0598 99.124 51.2918 99.036C53.7398 98.86 57.1398 98.58 60.8598 98.02C62.7158 97.74 64.4758 97.396 66.0758 97.108C67.6681 96.812 69.1158 96.564 70.3401 96.412C71.5638 96.268 72.5481 96.22 73.2361 96.196C73.9158 96.18 74.2998 96.196 74.3081 96.172C74.2198 96.148 74.1238 96.14 74.0278 96.14C73.8441 96.14 73.5721 96.108 73.2361 96.108C72.2601 96.1 71.2918 96.14 70.3158 96.252C69.0921 96.372 67.6438 96.604 66.0438 96.892C64.4438 97.18 62.6838 97.516 60.8278 97.804C57.1238 98.372 53.7398 98.676 51.2918 98.892L48.3878 99.148L47.5958 99.228C47.4998 99.228 47.4038 99.228 47.3158 99.252H47.3078Z" fill="#4E636A"/>
<path d="M63.2683 105.484C63.4283 105.5 63.5961 105.5 63.7561 105.484C64.0683 105.484 64.5164 105.42 65.0764 105.364C66.1804 105.252 67.7163 105.068 69.3963 104.844C71.0841 104.612 72.5881 104.388 73.7003 104.172C74.2443 104.076 74.6923 103.988 74.9963 103.924C75.1481 103.9 75.3081 103.86 75.4521 103.804C75.2921 103.796 75.1243 103.804 74.9643 103.836L73.6601 104.012L69.3484 104.62L65.0361 105.212L63.7323 105.404C63.5723 105.412 63.4201 105.444 63.2683 105.492L63.2683 105.484Z" fill="#4E636A"/>
<path d="M48.8758 108.724C49.0758 108.74 49.2838 108.724 49.4838 108.7L51.1398 108.548C52.5398 108.412 54.4678 108.204 56.6038 107.964C58.7398 107.724 60.6598 107.508 62.0675 107.308L63.7155 107.076C63.9158 107.06 64.1238 107.02 64.3158 106.964C64.1155 106.956 63.9075 106.964 63.7078 106.988L62.0515 107.14C60.6598 107.276 58.7238 107.484 56.5878 107.732C54.4438 107.972 52.5318 108.188 51.1238 108.388L49.4758 108.612C49.2758 108.628 49.0678 108.668 48.8758 108.724Z" fill="#4E636A"/>
<path d="M49.5879 116.316C49.6839 116.316 49.7719 116.316 49.8679 116.292L50.6599 116.164L53.5559 115.652C55.9959 115.236 59.3799 114.636 63.1236 114.26C65.0039 114.076 66.8036 113.956 68.4439 113.924C70.0759 113.892 71.5639 113.924 72.7959 113.924C74.0278 113.924 75.0442 113.868 75.7399 113.804C76.0842 113.772 76.3479 113.748 76.5322 113.716C76.6276 113.708 76.7159 113.692 76.8119 113.668C76.7159 113.66 76.6199 113.66 76.5322 113.668L75.7316 113.716C75.0359 113.748 74.0362 113.772 72.7959 113.756C71.5562 113.74 70.0599 113.692 68.4356 113.716C66.8119 113.74 64.9879 113.844 63.0999 114.028C59.3239 114.404 55.9479 115.028 53.5079 115.492C52.2919 115.732 51.3079 115.948 50.6279 116.076L49.8519 116.244C49.7639 116.26 49.6759 116.284 49.5959 116.316H49.5879Z" fill="#4E636A"/>
<path d="M49.4519 124.996C49.5479 125.028 49.6439 125.044 49.7399 125.052C49.9319 125.084 50.2199 125.116 50.5959 125.14C51.6439 125.204 52.6999 125.172 53.7479 125.052C56.4039 124.78 59.9559 123.828 63.9479 123.228C67.9402 122.628 71.5882 122.148 74.2039 121.74C75.2439 121.604 76.2762 121.42 77.3002 121.172C77.5799 121.092 77.8442 121.004 78.1079 120.892C78.2039 120.86 78.2922 120.812 78.3722 120.756C78.2762 120.78 78.1802 120.804 78.0919 120.844C77.8282 120.948 77.5639 121.044 77.2919 121.116C76.5802 121.292 75.5082 121.42 74.1962 121.604C71.5722 121.972 67.9319 122.396 63.9242 123.028C59.9159 123.66 56.3639 124.596 53.7399 124.9C52.7079 125.036 51.6599 125.092 50.6119 125.068C49.8599 125.028 49.4519 124.972 49.4519 124.996Z" fill="#4E636A"/>
<path d="M75.0125 101.068C75.9725 101.02 76.9165 100.892 77.8522 100.692C78.8045 100.564 79.7402 100.364 80.6605 100.084C79.7005 100.132 78.7482 100.26 77.8125 100.46C76.8602 100.588 75.9245 100.788 75.0125 101.068Z" fill="#4E636A"/>
<path d="M75.9243 107.7C75.9243 107.7 76.0203 107.732 76.188 107.7C76.4203 107.66 76.6443 107.58 76.86 107.468L78.9163 106.476C80.5323 105.708 81.852 105.108 81.828 105.06C81.516 105.116 81.2043 105.212 80.9163 105.356C80.3723 105.564 79.6203 105.876 78.812 106.268C78.0043 106.652 77.2843 107.028 76.7723 107.324C76.508 107.492 76.22 107.62 75.916 107.708L75.9243 107.7Z" fill="#4E636A"/>
<path d="M78.1961 127.388C78.1001 127.396 77.9958 127.42 77.9081 127.444L77.0838 127.66C76.3721 127.844 75.3321 128.092 74.0438 128.332C72.7561 128.572 71.2041 128.788 69.4838 128.972C67.7718 129.156 65.8358 129.236 63.8358 129.38C59.8278 129.668 56.1878 129.836 53.5558 129.748C52.2438 129.716 51.1798 129.628 50.4518 129.572L49.6118 129.492C49.5158 129.484 49.4118 129.484 49.3078 129.492C49.4038 129.524 49.4998 129.54 49.5958 129.548C49.7878 129.58 50.0518 129.628 50.4358 129.676C51.1638 129.764 52.2278 129.876 53.5478 129.932C56.9878 130.02 60.4278 129.924 63.8518 129.628C65.8518 129.484 67.7718 129.388 69.5081 129.196C71.2438 129.004 72.7958 128.764 74.0918 128.5C75.3878 128.236 76.4118 127.964 77.1241 127.756C77.4761 127.66 77.7481 127.564 77.9318 127.5C78.0201 127.468 78.1078 127.428 78.1878 127.38L78.1961 127.388Z" fill="#4E636A"/>
<path d="M80.2443 135.412C78.892 137.436 77.5 139.436 76.076 141.42C76.012 141.5 75.9403 141.596 75.836 141.596C75.7323 141.596 75.628 141.436 75.596 141.308C75.4603 140.428 75.58 139.532 75.948 138.716C76.316 137.916 76.6283 137.092 76.892 136.244C77.1083 135.356 77.1 134.42 77.484 133.572C77.692 133.116 77.98 132.708 78.1963 132.268C78.5003 131.572 79.052 131.012 79.7483 130.7" fill="#485757"/>
<path d="M46.2199 93.132C46.2279 93.38 46.2599 93.636 46.3079 93.876L46.6439 95.8919C46.9319 97.5959 47.3559 99.9479 47.8359 102.548C48.3159 105.148 48.7479 107.492 49.0999 109.188C49.2599 110.004 49.4039 110.676 49.5079 111.196C49.5479 111.444 49.6119 111.684 49.6919 111.924C49.6839 111.676 49.6519 111.42 49.6039 111.18C49.5159 110.668 49.4119 109.98 49.2679 109.164C48.9719 107.46 48.5559 105.108 48.0759 102.508C47.5959 99.908 47.1639 97.572 46.8119 95.876C46.6439 95.06 46.5079 94.38 46.4039 93.8679C46.3639 93.6199 46.3079 93.3719 46.2199 93.1399V93.132Z" fill="#2A363C"/>
<path d="M38.3242 94.604C38.7162 94.788 39.1322 94.932 39.5562 95.036C40.3242 95.268 41.3802 95.58 42.5642 95.908C43.7562 96.236 44.8202 96.524 45.5962 96.716C46.0122 96.844 46.4362 96.932 46.8682 96.988C46.4762 96.796 46.0602 96.644 45.6362 96.532C44.8682 96.3 43.8122 95.988 42.6282 95.66C41.4362 95.332 40.3802 95.044 39.5962 94.852C39.1802 94.732 38.7562 94.644 38.3242 94.604Z" fill="#4E636A"/>
<path d="M34.0039 102.964C34.1239 103.068 34.2679 103.156 34.4199 103.212C34.8199 103.388 35.2439 103.532 35.6759 103.62C36.7639 103.86 38.2599 104.14 39.8999 104.532C41.5399 104.916 43.0199 105.3 44.0839 105.588L45.3479 105.924C45.4919 105.98 45.6519 106.012 45.8039 106.02C45.6599 105.94 45.5079 105.876 45.3479 105.836C45.0599 105.732 44.6279 105.588 44.0999 105.428C43.0439 105.1 41.5719 104.684 39.9239 104.3C38.2759 103.916 36.7639 103.652 35.6839 103.46C35.2599 103.38 34.8359 103.268 34.4279 103.124C34.2919 103.06 34.1479 103.004 34.0039 102.964Z" fill="#4E636A"/>
<path d="M42.5959 110.428L49.4279 128.26L47.4919 135.724L35.1879 115.196C35.1879 115.196 39.5799 110.036 42.5959 110.428Z" fill="#485757"/>
<path d="M49.2998 127.924L55.3718 137.605L55.2278 140.101L47.4998 143.381L46.9398 134.181L49.2918 127.932L49.2998 127.924Z" fill="#485757"/>
<path d="M45.6281 144.444C45.6281 144.444 46.2601 144.052 47.3241 143.532C47.6121 143.388 47.9081 143.26 48.2121 143.148C48.5321 143.028 48.9001 142.94 49.2761 142.82C50.0361 142.58 50.8521 142.284 51.6921 141.908C53.3641 141.164 54.8361 140.428 55.9081 139.908L57.1721 139.268C57.3321 139.196 57.4841 139.108 57.6281 139.012C57.4601 139.044 57.2921 139.108 57.1321 139.188L55.8361 139.756L51.5881 141.692C50.7561 142.052 49.9401 142.356 49.1961 142.604C48.8281 142.732 48.4601 142.82 48.1321 142.956C47.8201 143.076 47.5161 143.212 47.2201 143.372C46.8041 143.596 46.3961 143.844 46.0121 144.108C45.8681 144.204 45.7321 144.316 45.6121 144.444H45.6281Z" fill="#2A363C"/>
<path d="M72.3716 63.732C72.3716 60.58 68.6916 54.964 65.5396 55.076L57.4679 58.532C57.0039 58.548 56.5638 58.74 56.2358 59.068C55.9078 59.396 55.7159 59.828 55.6918 60.292L54.8918 81.788C54.8358 83.284 55.3719 84.74 56.3879 85.844C57.4039 86.948 58.8119 87.604 60.3079 87.668C61.8039 87.724 63.2677 87.204 64.3877 86.212C65.5077 85.22 66.2039 83.828 66.3237 82.34C66.4279 80.812 66.4599 79.06 66.4599 79.068C66.4599 79.076 70.5156 78.66 71.6836 73.484C72.2839 70.924 72.3799 67.236 72.3799 63.732H72.3716Z" fill="#485757"/>
<path d="M70.9561 67.412C70.9484 67.588 70.8684 67.748 70.7404 67.868C70.6124 67.988 70.4441 68.052 70.2681 68.044C70.1804 68.044 70.1004 68.028 70.0204 67.996C69.9404 67.964 69.8681 67.916 69.8041 67.852C69.7401 67.788 69.6921 67.716 69.6601 67.636C69.6281 67.556 69.6121 67.468 69.6121 67.388C69.6204 67.212 69.7004 67.052 69.8284 66.932C69.9564 66.8121 70.1241 66.748 70.3001 66.756C70.3884 66.756 70.4684 66.772 70.5484 66.804C70.6284 66.836 70.7001 66.8841 70.7641 66.94C70.8281 67.004 70.8761 67.076 70.9081 67.156C70.9401 67.236 70.9561 67.324 70.9561 67.404V67.412Z" fill="#2A363C"/>
<path d="M71.3078 65.8921C71.2201 65.9721 70.7318 65.5641 70.0118 65.5161C69.2841 65.4681 68.7401 65.7961 68.6441 65.7081C68.5558 65.6201 68.6998 65.5161 68.9481 65.3561C69.2758 65.1641 69.6598 65.0681 70.0361 65.1001C70.4118 65.1241 70.7638 65.2681 71.0601 65.5081C71.2918 65.6921 71.3718 65.8601 71.3161 65.8921H71.3078Z" fill="#2A363C"/>
<path d="M64.076 67.1401C64.0678 67.3161 63.9878 67.4761 63.8598 67.5961C63.7318 67.716 63.564 67.7801 63.388 67.7721C63.2998 67.7721 63.2198 67.7561 63.1398 67.7241C63.0598 67.6921 62.988 67.644 62.924 67.5801C62.86 67.516 62.812 67.4441 62.78 67.364C62.748 67.2841 62.732 67.1961 62.732 67.1161C62.7398 66.9401 62.8198 66.7801 62.9478 66.6601C63.0758 66.5401 63.244 66.4761 63.42 66.4841C63.5078 66.4841 63.5878 66.5001 63.6678 66.5321C63.7478 66.5641 63.82 66.6121 63.8841 66.6761C63.948 66.7401 63.996 66.8121 64.028 66.8921C64.06 66.9721 64.076 67.0601 64.076 67.1401Z" fill="#2A363C"/>
<path d="M64.1965 65.564C64.1082 65.644 63.6205 65.236 62.9005 65.196C62.1805 65.156 61.6282 65.476 61.5322 65.38C61.4362 65.284 61.5885 65.188 61.8362 65.036C62.1645 64.836 62.5402 64.748 62.9242 64.78C63.3005 64.804 63.6602 64.948 63.9482 65.188C64.1722 65.372 64.2445 65.54 64.1965 65.572V65.564Z" fill="#2A363C"/>
<path d="M66.4678 71.092C66.8602 71.004 67.2602 70.956 67.6602 70.956C67.8438 70.956 68.0198 70.924 68.0602 70.796C68.0838 70.604 68.0602 70.412 67.9718 70.244L67.5162 68.804C66.8838 66.756 66.4442 65.076 66.5241 65.052C66.6042 65.028 67.1878 66.668 67.8118 68.7L68.2438 70.148C68.3481 70.38 68.3642 70.636 68.2918 70.876C68.2598 70.94 68.2201 70.996 68.1645 71.036C68.1081 71.076 68.0441 71.108 67.9718 71.124C67.8681 71.148 67.7561 71.148 67.6525 71.148C67.2525 71.18 66.8518 71.164 66.4602 71.092H66.4678Z" fill="#2A363C"/>
<path d="M66.5239 79.0841C64.0599 78.964 61.6677 78.1561 59.6359 76.764C59.6359 76.764 61.1717 80.476 66.4439 80.324L66.5239 79.092V79.0841Z" fill="#3D3B37"/>
<path d="M66.0442 72.82C65.9162 72.6361 65.7478 72.492 65.5482 72.396C65.3478 72.3 65.1322 72.2521 64.9082 72.268C64.7482 72.268 64.5882 72.3081 64.4442 72.372C64.3002 72.4361 64.1638 72.5321 64.0602 72.6521C63.9558 72.764 63.8842 72.9081 63.8682 73.068C63.8444 73.22 63.8682 73.3801 63.9482 73.516C64.0518 73.6521 64.1964 73.748 64.3564 73.8041C64.5164 73.8601 64.6918 73.8601 64.8602 73.82C65.2122 73.724 65.5404 73.5561 65.8202 73.3241C65.9084 73.268 65.9802 73.2041 66.0364 73.1241C66.0602 73.0841 66.0762 73.0361 66.0762 72.988C66.0762 72.94 66.0602 72.892 66.0364 72.8521" fill="#3D3B37"/>
<path d="M64.3077 71.452C64.428 71.452 64.38 72.236 65.0117 72.82C65.6517 73.404 66.492 73.388 66.4837 73.5C66.4837 73.612 66.2917 73.644 65.9397 73.628C65.4757 73.604 65.0437 73.42 64.7077 73.108C64.3877 72.804 64.188 72.388 64.172 71.948C64.1637 71.636 64.2597 71.452 64.316 71.452H64.3077Z" fill="#2A363C"/>
<path d="M64.5079 63.46C64.4279 63.6519 63.7079 63.508 62.8599 63.556C62.0036 63.604 61.2996 63.7959 61.2036 63.604C61.1556 63.5159 61.2919 63.3399 61.5799 63.1479C61.9639 62.9399 62.3876 62.8199 62.8279 62.7959C63.2676 62.78 63.6996 62.86 64.0996 63.036C64.4036 63.204 64.5316 63.3719 64.5079 63.46Z" fill="#2A363C"/>
<path d="M71.1718 63.78C71.0361 63.932 70.5478 63.732 69.9481 63.6919C69.3478 63.6439 68.8358 63.732 68.7238 63.548C68.6758 63.46 68.7718 63.2999 69.0041 63.1639C69.3081 62.9879 69.6678 62.9159 70.0121 62.956C70.3641 62.9879 70.7001 63.124 70.9721 63.348C71.1718 63.532 71.2281 63.708 71.1641 63.78H71.1718Z" fill="#2A363C"/>
<path d="M66.4199 80.276L66.5242 79.084C66.5242 79.084 68.8039 78.508 69.9879 77.044C71.4042 75.324 72.2439 71.748 71.9719 69.54C71.7319 67.596 71.9322 64.94 68.8199 64.244C67.4522 63.932 67.7242 61.46 66.9959 60.14C66.2522 58.772 66.3642 58.316 64.8199 58.012C63.3159 57.82 61.8042 57.836 60.3082 58.06C60.7642 58.444 61.0842 58.876 61.0119 59.26C60.9159 59.772 60.1002 61.044 59.8042 61.468C58.6842 63.084 58.0282 64.972 57.9082 66.932C57.7722 69.172 58.3402 71.404 59.0522 73.532C59.7642 75.66 60.7082 79.62 61.1802 81.82C61.6519 84.012 61.7319 88.268 60.1402 89.86C57.4042 92.596 51.3802 91.332 52.5562 90.508C54.4362 89.38 56.0842 88.332 55.6842 85.348C55.3482 86.252 54.7082 87.012 53.8842 87.5C53.0522 87.988 52.0842 88.188 51.1322 88.052C52.3882 86.316 52.9482 84.164 52.6842 82.036C52.2842 82.42 51.8202 82.716 51.3082 82.916C50.7962 83.116 50.2442 83.212 49.6922 83.196C48.5962 83.156 47.5002 82.972 46.4522 82.652C45.6522 82.444 44.7242 82.092 44.5642 81.284C44.3882 80.324 45.4522 79.628 46.3882 79.348C47.3242 79.068 48.4442 78.772 48.7482 77.852C49.0922 76.82 48.1402 75.788 48.1402 74.7C48.1402 73.332 49.5082 72.468 50.4202 71.468C52.0442 69.644 52.2922 67.036 52.5562 64.636C52.8122 62.228 53.2922 59.572 55.1642 58.028C55.5962 57.7 56.0682 57.428 56.5642 57.22C56.8922 56.052 57.6282 55.036 58.6362 54.348C59.7242 53.628 60.9479 53.148 62.2439 52.948C64.7802 52.436 67.4119 52.732 69.7799 53.788C70.9562 54.324 72.0039 55.092 72.8679 56.044C73.7319 57.004 74.3879 58.124 74.7962 59.348C75.1079 60.356 75.2519 61.452 75.8439 62.308C76.4359 63.164 77.7959 63.636 78.5562 62.908C78.5562 63.924 78.3482 64.932 77.9405 65.868L79.3639 65.7C79.5642 66.556 79.4279 67.46 78.9882 68.228C78.5402 68.988 77.8279 69.556 76.9799 69.804C77.8919 70.604 77.9642 72.02 77.5239 73.14C77.0842 74.26 76.2279 75.148 75.3799 76.004C76.0519 76.124 76.6522 76.476 77.0682 77.012C77.4919 77.548 77.6999 78.212 77.6519 78.892C77.5482 79.308 77.5162 79.74 77.5642 80.164C77.7242 80.82 78.3962 81.18 78.8519 81.676C79.1399 81.996 79.3479 82.38 79.4522 82.796C79.5559 83.212 79.5482 83.652 79.4439 84.068C79.3319 84.484 79.1239 84.868 78.8282 85.18C78.5325 85.492 78.1639 85.724 77.7562 85.86L76.8442 86.244C76.8442 86.244 76.1319 84.62 75.3959 84.02C74.6599 83.42 71.3562 81.548 68.8762 81.148L66.3962 80.748L66.4602 80.276H66.4199Z" fill="#2A363C"/>
<path d="M54.8761 90.3C54.9961 90.348 55.1321 90.372 55.2601 90.372C55.6361 90.372 56.0041 90.276 56.3241 90.092C57.1881 89.636 58.1161 88.484 58.7321 86.868C58.8921 86.444 58.9961 86.004 59.0601 85.548C59.1161 85.06 59.1161 84.564 59.0601 84.076C58.9001 83.004 58.5481 81.964 58.0201 81.02C57.5001 80.012 56.8361 79.012 56.1961 77.972C55.5241 76.9 54.9561 75.772 54.4921 74.596C54.0361 73.428 53.7561 72.204 53.6681 70.948C53.6441 70.356 53.6681 69.756 53.7561 69.164C53.8441 68.604 53.9881 68.044 54.1881 67.508C54.9881 65.404 56.3721 63.86 57.5001 62.588C58.0841 61.964 58.6201 61.404 59.0841 60.9C59.5001 60.476 59.8041 59.964 59.9721 59.388C60.0681 59.02 60.0601 58.636 59.9401 58.284C59.9001 58.164 59.8441 58.044 59.7561 57.948C59.7561 57.948 59.8281 58.06 59.8921 58.3C59.9961 58.652 59.9961 59.02 59.8921 59.364C59.7081 59.916 59.3961 60.404 58.9801 60.812C58.5241 61.308 57.9561 61.844 57.3721 62.468C56.2201 63.716 54.8121 65.276 53.9801 67.428C53.7721 67.98 53.6201 68.548 53.5241 69.124C53.4361 69.724 53.4121 70.34 53.4361 70.948C53.5161 72.228 53.7961 73.492 54.2681 74.692C54.7321 75.884 55.3081 77.028 55.9961 78.108C56.6441 79.156 57.3081 80.14 57.8201 81.132C58.3401 82.06 58.6921 83.068 58.8601 84.108C58.9801 85.028 58.8761 85.964 58.5641 86.844C57.9881 88.428 57.0921 89.58 56.2841 90.036C55.9721 90.228 55.6281 90.332 55.2601 90.348C55.0041 90.324 54.8761 90.292 54.8681 90.3H54.8761Z" fill="#4E636A"/>
<path d="M53.1081 64.572C53.1081 64.572 53.2841 64.068 53.6521 63.3C53.8681 62.852 54.1401 62.444 54.4681 62.068C54.8761 61.628 55.3641 61.268 55.9161 61.004C56.4761 60.74 57.0281 60.436 57.5481 60.092C57.9801 59.796 58.3241 59.396 58.5561 58.932C58.7161 58.62 58.7881 58.26 58.7481 57.908C58.7481 57.78 58.7001 57.652 58.6281 57.548C58.6281 57.668 58.6361 57.796 58.6521 57.916C58.6521 58.236 58.5561 58.548 58.4041 58.828C58.1561 59.252 57.8201 59.612 57.4121 59.884C56.8921 60.204 56.3481 60.492 55.7961 60.748C55.2281 61.02 54.7161 61.404 54.3001 61.876C53.9641 62.292 53.6921 62.748 53.5001 63.244C53.3641 63.556 53.2521 63.884 53.1641 64.212C53.1081 64.428 53.0841 64.556 53.1081 64.564V64.572Z" fill="#4E636A"/>
<path d="M78.3563 65.532C78.0683 65.716 77.7643 65.868 77.4443 65.988C76.5483 66.3 75.5723 66.3 74.6763 65.988C74.0203 65.748 73.4201 65.38 72.9163 64.9C72.4121 64.42 72.0043 63.852 71.7163 63.2121C71.3643 62.468 71.1321 61.668 71.0201 60.844C70.9323 59.94 70.7083 59.052 70.3723 58.2121C69.9961 57.4121 69.4521 56.7 68.7801 56.116C68.1081 55.54 67.3241 55.1081 66.4761 54.852C65.0841 54.452 63.6121 54.476 62.2361 54.94C61.3081 55.228 60.4681 55.732 59.7721 56.4121C59.5881 56.596 59.4201 56.804 59.2761 57.02C59.22 57.092 59.1801 57.172 59.1481 57.2601C59.3561 56.98 59.5801 56.716 59.8281 56.468C60.5321 55.8361 61.3643 55.372 62.2763 55.1C63.6203 54.676 65.0521 54.6601 66.3961 55.0601C67.2121 55.316 67.9641 55.732 68.6041 56.292C69.2441 56.852 69.7721 57.54 70.1323 58.308C70.4683 59.132 70.6763 59.996 70.7641 60.884C70.8761 61.724 71.1243 62.54 71.4923 63.308C71.7881 63.964 72.2201 64.5561 72.7481 65.044C73.2843 65.5321 73.9083 65.908 74.5881 66.14C75.5161 66.444 76.5241 66.4121 77.4361 66.0601C77.6843 65.964 77.9083 65.836 78.1241 65.684C78.1963 65.636 78.2603 65.58 78.3161 65.516L78.3563 65.532Z" fill="#4E636A"/>
<path d="M76.8759 82.628C76.8759 82.628 76.6277 82.54 76.1957 82.348C75.5959 82.084 75.0437 81.708 74.5637 81.252C73.8597 80.572 73.3157 79.74 72.9879 78.812C72.5797 77.684 72.5399 76.46 72.8837 75.316C73.2599 74.108 73.8839 72.996 74.0037 71.844C74.1157 70.836 73.9479 69.812 73.5159 68.9C73.2279 68.284 72.8279 67.732 72.3319 67.268C72.1957 67.14 72.0517 67.028 71.8999 66.924C71.7957 66.852 71.7399 66.82 71.7317 66.828C71.7317 66.836 71.9319 67.004 72.2596 67.332C72.7159 67.812 73.0839 68.364 73.3476 68.972C73.7399 69.868 73.8917 70.852 73.7797 71.828C73.6439 72.924 73.0437 74.012 72.6437 75.26C72.2839 76.452 72.3237 77.74 72.7639 78.908C73.1159 79.86 73.6836 80.708 74.4279 81.388C74.9239 81.852 75.5077 82.212 76.1399 82.452C76.3077 82.524 76.4837 82.572 76.6597 82.62C76.7159 82.644 76.7799 82.652 76.8439 82.652L76.8759 82.628Z" fill="#4E636A"/>
<path d="M50.9239 58.2841C50.8359 56.02 49.8999 53.876 48.2999 52.276C46.7079 50.676 44.5639 49.7241 42.3079 49.6281H41.8519C36.8119 49.7081 34.0599 54.0281 34.2759 59.0601L34.3159 79.2121C34.3159 79.2121 42.1879 83.8521 42.4839 84.0121L45.9959 86.5321L45.9559 75.2041C45.9559 75.2041 50.8199 74.6601 51.0919 69.8281C51.2119 67.4761 51.0919 62.644 50.9239 58.276V58.2841Z" fill="#F4F3F1"/>
<path d="M45.9961 75.18C43.7481 75.084 41.5801 74.348 39.7481 73.052C39.7481 73.052 41.084 76.596 45.9241 76.364L45.9961 75.18Z" fill="#CDCDCF"/>
<path d="M49.7002 62.0439C49.7002 62.2199 49.6202 62.3959 49.4922 62.5159C49.3642 62.6439 49.1882 62.708 49.0122 62.708C48.9242 62.708 48.8362 62.7 48.7562 62.6679C48.6762 62.636 48.5962 62.5879 48.5322 62.524C48.4682 62.46 48.4202 62.3879 48.3802 62.308C48.3482 62.228 48.3242 62.1399 48.3242 62.052C48.3242 61.876 48.4042 61.7 48.5402 61.58C48.6682 61.452 48.8442 61.3879 49.0202 61.3879C49.1082 61.3879 49.1962 61.3959 49.2762 61.428C49.3562 61.46 49.4362 61.508 49.5002 61.5639C49.5642 61.628 49.6122 61.6999 49.6522 61.78C49.6922 61.86 49.7082 61.9479 49.7082 62.036L49.7002 62.0439Z" fill="#2A363C"/>
<path d="M49.78 60.612C49.692 60.7 49.188 60.292 48.444 60.26C47.7 60.228 47.14 60.58 47.076 60.484C47.012 60.388 47.132 60.284 47.38 60.116C47.708 59.908 48.1 59.812 48.484 59.828C48.868 59.844 49.244 59.98 49.548 60.22C49.756 60.404 49.828 60.564 49.78 60.604V60.612Z" fill="#2A363C"/>
<path d="M42.3481 61.8919C42.3481 62.076 42.2681 62.2439 42.1321 62.3639C42.0041 62.4919 41.8281 62.556 41.6521 62.556C41.5641 62.556 41.4761 62.548 41.3961 62.5159C41.3161 62.484 41.2361 62.436 41.1721 62.3719C41.1081 62.308 41.0601 62.236 41.0201 62.156C40.9881 62.0759 40.9641 61.9879 40.9641 61.9C40.9641 61.724 41.0441 61.548 41.1721 61.428C41.3001 61.3 41.4761 61.236 41.6521 61.236C41.7401 61.236 41.8281 61.2439 41.9081 61.276C41.9881 61.308 42.0681 61.356 42.1321 61.412C42.1961 61.476 42.2441 61.5479 42.2841 61.628C42.3161 61.708 42.3401 61.7959 42.3401 61.884L42.3481 61.8919Z" fill="#2A363C"/>
<path d="M42.4761 60.436C42.3881 60.524 41.8761 60.116 41.1401 60.084C40.4041 60.052 39.8361 60.404 39.7721 60.308C39.7081 60.212 39.8281 60.108 40.0761 59.94C40.4041 59.732 40.7961 59.636 41.1801 59.652C41.5641 59.668 41.9401 59.804 42.2441 60.044C42.4521 60.228 42.5241 60.396 42.4761 60.428V60.436Z" fill="#2A363C"/>
<path d="M44.9321 66.06C45.3321 65.956 45.7401 65.9 46.1481 65.892C46.3402 65.892 46.5161 65.852 46.5561 65.724C46.5801 65.532 46.5401 65.332 46.4521 65.156C46.3001 64.7 46.1322 64.196 45.9562 63.684C45.2682 61.596 44.7721 59.884 44.8601 59.86C44.9481 59.836 45.5722 61.508 46.2602 63.588L46.7162 65.068C46.8282 65.3 46.8522 65.564 46.7882 65.812C46.7562 65.876 46.7161 65.94 46.6601 65.98C46.6041 66.028 46.5402 66.06 46.4682 66.076C46.3642 66.1 46.2521 66.108 46.1481 66.108C45.7481 66.14 45.3402 66.124 44.9402 66.052L44.9321 66.06Z" fill="#2A363C"/>
<path d="M42.7321 66.4919C42.8521 66.4919 42.8201 67.3 43.4841 67.9C44.1481 68.5 45.0121 68.4519 45.0121 68.5639C45.0121 68.6759 44.8201 68.708 44.4521 68.708C43.9801 68.6919 43.5321 68.5159 43.1801 68.1959C42.8441 67.8919 42.6361 67.476 42.6041 67.0199C42.5881 66.6679 42.6841 66.4919 42.7401 66.4919H42.7321Z" fill="#2A363C"/>
<path d="M42.8038 57.54C42.7238 57.7321 41.9798 57.6121 41.1078 57.676C40.2358 57.748 39.5158 57.948 39.4118 57.764C39.3638 57.676 39.4998 57.492 39.7878 57.3081C40.1798 57.0841 40.6118 56.9561 41.0598 56.924C41.5078 56.892 41.9558 56.964 42.3718 57.1321C42.6758 57.276 42.8358 57.444 42.8038 57.54Z" fill="#2A363C"/>
<path d="M49.6039 58.4519C49.4599 58.6199 48.9639 58.4199 48.3479 58.3799C47.7319 58.3399 47.2119 58.4439 47.0919 58.26C47.0439 58.1719 47.1319 58.012 47.3639 57.86C47.6759 57.684 48.0359 57.6039 48.3959 57.6279C48.7559 57.6519 49.0999 57.7879 49.3879 58.012C49.596 58.1959 49.6359 58.3719 49.6039 58.4519Z" fill="#2A363C"/>
<path d="M34.844 62.644C34.764 62.6041 31.564 61.516 31.532 64.8281C31.492 68.1321 34.82 67.492 34.828 67.396C34.836 67.3 34.844 62.644 34.844 62.644Z" fill="#F4F3F1"/>
<path d="M34.124 66.1479C34.124 66.1479 34.068 66.1879 33.972 66.2279C33.9 66.26 33.82 66.2759 33.748 66.2759C33.676 66.2759 33.596 66.26 33.524 66.2279C33.316 66.0919 33.14 65.8999 33.028 65.6759C32.916 65.4519 32.86 65.1959 32.876 64.9479C32.876 64.6599 32.924 64.3799 33.044 64.1239C33.076 64.012 33.132 63.9159 33.212 63.836C33.292 63.7559 33.388 63.6999 33.5 63.6679C33.564 63.6519 33.636 63.6599 33.7 63.6839C33.764 63.7159 33.812 63.7639 33.836 63.8279C33.884 63.9239 33.86 63.9879 33.876 63.9959C33.892 64.0039 33.948 63.9399 33.924 63.8039C33.908 63.7239 33.86 63.6439 33.796 63.5959C33.708 63.5239 33.588 63.4919 33.476 63.5079C33.34 63.5319 33.212 63.5959 33.108 63.6839C33.004 63.7719 32.924 63.8919 32.868 64.0199C32.724 64.2999 32.652 64.612 32.66 64.9319C32.66 65.6039 33.004 66.2279 33.484 66.3719C33.572 66.3959 33.668 66.4039 33.756 66.3879C33.844 66.3719 33.932 66.3399 34.012 66.2839C34.116 66.2279 34.156 66.1559 34.124 66.1479Z" fill="#CDCDCF"/>
<path d="M30.9882 136.444C30.9962 136.596 30.9882 136.748 30.9402 136.9C30.8602 137.292 30.7482 137.676 30.6042 138.044C30.1242 139.284 29.3322 140.372 28.2922 141.204C27.2602 142.036 26.0202 142.58 24.7082 142.78C24.3162 142.844 23.9162 142.868 23.5162 142.86C23.3642 142.868 23.2122 142.86 23.0602 142.812C23.0602 142.772 23.6842 142.812 24.6602 142.628C25.9242 142.38 27.1162 141.836 28.1242 141.036C29.1242 140.22 29.9162 139.18 30.4282 137.996C30.8442 137.068 30.9482 136.444 30.9722 136.452L30.9882 136.444Z" fill="#4E636A"/>
<path d="M41.8919 138.236C41.8919 138.356 41.8599 138.476 41.7879 138.572C41.7239 138.676 41.6279 138.748 41.5159 138.796C41.4039 138.844 41.2839 138.852 41.1639 138.828C41.0439 138.804 40.9399 138.748 40.8519 138.66C40.7639 138.572 40.7079 138.468 40.6839 138.348C40.6599 138.228 40.6759 138.108 40.7159 137.996C40.7639 137.884 40.8439 137.788 40.9399 137.724C41.0439 137.66 41.1559 137.62 41.2759 137.62C41.3559 137.62 41.4359 137.636 41.5079 137.668C41.5799 137.7 41.6519 137.748 41.7079 137.804C41.7639 137.86 41.8119 137.924 41.8439 138.004C41.8759 138.076 41.8919 138.156 41.8919 138.236Z" fill="#4E636A"/>
<path d="M52.2841 143.98C51.9721 143.764 51.6921 143.5 51.4521 143.196C50.2281 141.788 49.4521 140.052 49.2201 138.204C49.1561 137.828 49.1481 137.444 49.1961 137.068C49.2361 137.068 49.2521 137.5 49.3801 138.188C49.6921 139.98 50.4521 141.668 51.5801 143.1C51.8361 143.38 52.0761 143.676 52.2921 143.98H52.2841Z" fill="#4E636A"/>
<path d="M46.068 80.98C46.236 81.54 46.46 82.092 46.732 82.612C47.132 83.524 47.676 84.124 47.732 84.076C47.788 84.028 47.34 83.396 46.948 82.516C46.556 81.636 46.14 80.94 46.076 80.988L46.068 80.98Z" fill="#2A363C"/>
<path d="M44.1721 80.42L34.3401 72.14L32.2681 75.332C32.2681 75.332 23.6921 81.612 22.0681 83.396L24.2121 111.932C24.2121 111.932 21.9321 126.94 21.7721 128.124C21.6121 129.308 20.2681 139.668 20.2681 139.668C20.0921 141.628 21.7081 144.012 22.0361 144.012C22.0361 144.012 23.6921 142.028 25.4681 142.188C27.2441 142.348 39.2921 145.596 39.2921 145.596L53.9241 142.34L52.372 113.484L51.8521 94.188L50.5801 86.804L47.6841 83.916L45.9641 79.412C45.9641 79.412 45.4201 85.164 45.3481 84.94C45.2681 84.716 44.1721 80.436 44.1721 80.436V80.42Z" fill="#8C9192"/>
<path d="M32.5481 75.82C32.6601 76.012 32.7881 76.188 32.9401 76.356C33.2121 76.692 33.6121 77.164 34.1241 77.724C35.1401 78.86 36.6281 80.356 38.2281 82.036C39.0201 82.868 39.7721 83.668 40.4121 84.428L40.4921 84.516L40.5721 84.436C41.6601 83.348 42.4441 82.316 43.0441 81.628L43.7481 80.828C43.844 80.74 43.9241 80.6439 43.9961 80.5399C43.8841 80.604 43.7881 80.684 43.7001 80.78C43.5161 80.9479 43.2441 81.212 42.9481 81.5399C42.3161 82.204 41.5001 83.228 40.4201 84.276H40.5801C39.9401 83.508 39.1881 82.6919 38.3961 81.8679C36.7801 80.1879 35.2761 78.7159 34.2281 77.604C33.7081 77.052 33.2841 76.5959 32.9961 76.284C32.8601 76.1159 32.7161 75.964 32.5481 75.82Z" fill="#2A363C"/>
<path d="M49.1641 127.724V127.284C49.1641 126.98 49.1241 126.556 49.0921 126.028C49.0201 124.924 48.9161 123.348 48.7881 121.42C48.5161 117.532 48.1241 112.156 47.6521 106.22C47.1801 100.284 46.7161 94.924 46.3321 91.036C46.1401 89.092 45.9641 87.524 45.8361 86.444C45.7641 85.924 45.7001 85.5 45.6601 85.196L45.6121 84.876L45.6361 85.204C45.6681 85.508 45.7081 85.924 45.7641 86.452C45.8681 87.556 46.0121 89.124 46.1801 91.052C46.5241 94.94 46.9641 100.308 47.4361 106.244C47.9081 112.18 48.3481 117.524 48.6361 121.428C48.7961 123.356 48.9241 124.924 49.0121 126.036C49.0601 126.564 49.1001 126.98 49.1241 127.284C49.1241 127.412 49.1481 127.524 49.1641 127.612C49.1641 127.644 49.1561 127.684 49.1561 127.724H49.1641Z" fill="#2A363C"/>
<path d="M38.5639 133.732C38.5959 133.788 41.6359 132.148 45.3639 130.068C49.0839 127.988 52.0759 126.252 52.0439 126.188C52.0119 126.132 48.9719 127.772 45.2439 129.852C41.5239 131.932 38.5319 133.668 38.5639 133.732Z" fill="#2A363C"/>
<path d="M48.2039 143.604C48.2279 143.404 48.2279 143.204 48.2039 143.004L48.1239 141.388C48.0599 140.02 48.0519 138.148 48.0759 136.06C48.0999 133.98 48.1079 132.084 48.0999 130.724V129.108C48.0999 128.908 48.0999 128.708 48.0599 128.508C48.0199 128.7 48.0039 128.9 48.0039 129.1C48.0039 129.532 47.9719 130.068 47.9479 130.716C47.9079 132.084 47.8759 133.972 47.8439 136.052C47.8199 138.132 47.8439 140.028 47.9639 141.396C48.0119 142.076 48.0759 142.628 48.1239 143.004C48.1239 143.204 48.1559 143.396 48.1959 143.588L48.2039 143.604Z" fill="#2A363C"/>
<path d="M77.2037 121.908L52.8759 122.452L52.4359 114.34L81.74 116.732L77.2037 121.916V121.908Z" fill="#F4F3F1"/>
<path d="M95.612 96.268L95.884 96.868C93.7632 100.916 86.0512 115.58 86.0512 115.58L76.5718 120.172L53.9398 119.26V118.036L65.5875 113.428L80.1398 113.788L87.9552 98.292C88.0512 98.1 88.1952 97.924 88.3712 97.796C88.5472 97.66 88.748 97.572 88.9632 97.532L95.612 96.268Z" fill="#4E636A"/>
<path d="M76.5718 120.172C76.8036 119.892 77.0116 119.588 77.1798 119.26C77.5236 118.676 77.9876 117.868 78.4836 116.98C78.9796 116.092 79.4198 115.252 79.7238 114.652C79.9076 114.332 80.0598 114.004 80.1796 113.652C79.9478 113.932 79.7476 114.236 79.5798 114.564C79.2356 115.148 78.7716 115.956 78.2756 116.844C77.7796 117.724 77.3398 118.572 77.0358 119.18C76.8516 119.492 76.6998 119.828 76.5796 120.172H76.5718Z" fill="#2A363C"/>
<path d="M74.4601 118.172L64.7801 117.852L72.0921 114.044L79.9161 114.22L74.4678 118.172H74.4601Z" fill="#2A363C"/>
<path d="M53.9398 118.052C54.0198 118.076 54.0998 118.084 54.1798 118.076L54.8598 118.1L57.3558 118.172C59.4598 118.228 62.3715 118.332 65.5555 118.46C68.7478 118.58 71.6758 118.66 73.7795 118.676H76.9475C77.0275 118.676 77.1075 118.676 77.1875 118.652C77.1075 118.644 77.0275 118.644 76.9475 118.652L76.2755 118.628L73.7795 118.556C71.6758 118.5 68.7715 118.388 65.5798 118.276C62.3875 118.156 59.4678 118.068 57.3798 118.06H54.2118C54.1238 118.052 54.0358 118.052 53.9558 118.06L53.9398 118.052Z" fill="#2A363C"/>
<path d="M77.964 119.5C78.028 119.412 78.0842 119.324 78.1239 119.228L78.5559 118.428C78.9322 117.708 79.4679 116.708 80.1002 115.476L85.108 105.692L88.828 98.3081L88.756 98.364L93.932 97.3081L95.372 96.996C95.548 96.964 95.716 96.924 95.876 96.868C95.7 96.876 95.524 96.9 95.356 96.94L93.908 97.196L88.716 98.164H88.668L88.644 98.2121C87.556 100.34 86.268 102.868 84.884 105.58L79.9402 115.396L78.4599 118.388L78.0682 119.212C78.0202 119.308 77.9799 119.412 77.9562 119.516L77.964 119.5Z" fill="#2A363C"/>
<path d="M83.7312 114.084C83.7312 114.084 83.3312 113.684 82.524 114.716C81.7152 115.748 80.3798 118.74 80.3798 118.74L78.8996 119.412C78.8996 119.412 80.1956 117.892 80.1956 117.268C80.1956 116.644 79.2196 116.644 78.6756 117.54C78.0278 118.46 77.3316 119.348 76.5718 120.18C76.5718 120.18 77.0679 122.004 77.2036 121.916C77.3398 121.828 79.7956 121.7 79.7956 121.7L80.4676 121.388C80.4676 121.388 82.124 121.388 82.2112 120.932C82.3 120.476 85.036 118.612 85.036 118.196V115.62C85.036 115.62 86.2912 112.572 86.0192 112.268C85.7472 111.956 84.6272 111.284 83.74 114.1L83.7312 114.084Z" fill="#F4F3F1"/>
<path d="M83.556 114.044C83.556 114.044 83.604 114.044 83.676 114.076C83.724 114.1 83.764 114.132 83.788 114.18C83.812 114.228 83.828 114.276 83.82 114.332C83.716 114.66 83.588 115.172 83.452 115.796C83.316 116.42 83.172 117.164 82.94 117.916C82.772 118.42 82.508 118.884 82.156 119.284C81.86 119.668 81.588 120.02 81.3399 120.34C81.0756 120.652 80.8356 120.988 80.6359 121.348C80.9399 121.068 81.2196 120.764 81.4679 120.436L82.324 119.412C82.5 119.212 82.66 118.996 82.804 118.772C82.956 118.524 83.076 118.26 83.164 117.98C83.364 117.268 83.532 116.548 83.644 115.82C83.748 115.26 83.844 114.772 83.916 114.348C83.916 114.276 83.892 114.204 83.852 114.148C83.804 114.092 83.748 114.052 83.676 114.036C83.588 114.004 83.548 114.02 83.548 114.036L83.556 114.044Z" fill="#CDCDCF"/>
<path d="M83.956 119.3C84.468 118.116 84.828 116.876 85.028 115.612C84.516 116.796 84.156 118.036 83.956 119.3Z" fill="#CDCDCF"/>
<path d="M79.3642 116.908C79.3642 116.908 79.4359 116.908 79.5479 116.948C79.6919 116.948 79.8359 117.004 79.9402 117.1C80.0522 117.22 80.0119 117.452 79.8839 117.692L79.4999 118.5L79.1159 119.292C78.9802 119.524 78.8363 119.748 78.7319 119.9C78.5002 120.252 78.3959 120.5 78.4279 120.516C78.5962 120.356 78.7479 120.188 78.8842 119.996C79.0442 119.804 79.1959 119.612 79.3399 119.404C79.4762 119.156 79.6202 118.884 79.7559 118.596C79.8999 118.308 80.0042 118.044 80.1239 117.78C80.1879 117.652 80.2199 117.508 80.2359 117.372C80.2359 117.3 80.2359 117.236 80.2122 117.164C80.1879 117.1 80.1559 117.036 80.1079 116.988C80.0363 116.932 79.9562 116.884 79.8603 116.86C79.7719 116.836 79.6759 116.836 79.5883 116.852C79.4283 116.868 79.3719 116.892 79.3719 116.908H79.3642Z" fill="#CDCDCF"/>
<path d="M35.588 86.108C35.54 85.948 35.46 85.788 35.356 85.652C35.108 85.268 34.828 84.908 34.508 84.58C34.044 84.092 33.556 83.636 33.036 83.212C32.428 82.636 31.716 82.172 30.948 81.844C30.148 81.5879 29.308 81.5 28.468 81.596C27.796 81.66 27.132 81.756 26.476 81.9C25.908 82.004 25.452 82.1 25.148 82.164C24.98 82.18 24.82 82.228 24.668 82.292C24.836 82.292 25.004 82.284 25.172 82.252C25.484 82.22 25.948 82.156 26.508 82.068C27.076 81.98 27.74 81.86 28.492 81.82C29.292 81.7399 30.108 81.828 30.876 82.076C31.62 82.3879 32.308 82.828 32.908 83.372C33.428 83.788 33.924 84.228 34.404 84.7C34.828 85.156 35.228 85.628 35.604 86.116L35.588 86.108Z" fill="#2A363C"/>
<path d="M51.1078 108.652L50.7718 114.796C50.7718 114.796 41.6598 119.06 35.6918 120.596C29.7238 122.132 22.7078 121.892 22.7078 121.892L25.2118 111.9L51.1078 108.644V108.652Z" fill="#F4F3F1"/>
<path d="M68.7402 109.908C68.7639 109.66 68.7082 109.404 68.5962 109.18C68.4759 108.956 68.2999 108.772 68.0759 108.652C67.2842 108.164 65.6279 107.084 65.6279 107.084L60.6199 106.628L51.1399 108.652L50.8039 114.796C50.8039 114.796 55.6359 115.068 56.7559 115.028C57.8759 114.988 60.9962 113.988 60.9962 113.988C60.9962 113.988 66.2276 114.652 66.4599 114.364C66.6916 114.076 67.0442 113.74 66.7082 113.532C66.3722 113.324 62.3402 112.284 62.3402 112.284L65.0436 112.076C65.0436 112.076 68.9962 112.908 69.2842 112.78C69.5722 112.66 69.9479 112.156 69.6996 111.78L69.4519 111.404C69.5242 111.212 69.5159 110.996 69.4442 110.804C69.3642 110.612 69.2196 110.452 69.0359 110.364L68.6596 110.236L68.7402 109.9V109.908Z" fill="#F4F3F1"/>
<path d="M61.5641 109.836C61.9481 109.98 62.3641 110.044 62.7724 110.036C63.5244 110.092 64.5964 109.972 65.6683 110.284C66.1721 110.468 66.6681 110.676 67.1481 110.916C67.5564 111.092 67.9724 111.244 68.4044 111.372C68.7884 111.516 69.1961 111.596 69.6043 111.612C69.6043 111.58 69.1481 111.46 68.4523 111.212C68.1003 111.084 67.6843 110.924 67.2364 110.716C66.7481 110.468 66.2521 110.252 65.7401 110.06C65.2044 109.908 64.6604 109.836 64.1081 109.844H62.7801C62.0281 109.876 61.5723 109.796 61.5641 109.828L61.5641 109.836Z" fill="#CDCDCF"/>
<path d="M62.0043 108.404C62.3563 108.524 62.7243 108.572 63.0923 108.54C63.948 108.46 64.8203 108.572 65.628 108.876C66.5643 109.268 67.4123 109.644 68.0363 109.9C68.364 110.06 68.7083 110.18 69.0603 110.26C68.764 110.052 68.4363 109.884 68.1003 109.748C67.4923 109.46 66.6603 109.052 65.708 108.66C65.2523 108.468 64.764 108.356 64.268 108.34C63.8123 108.34 63.42 108.364 63.084 108.38C62.4043 108.444 62.012 108.412 62.0043 108.412L62.0043 108.404Z" fill="#CDCDCF"/>
<path d="M22.0759 83.372C22.0759 83.372 19.5479 87.396 19.1479 89.364C18.7479 91.332 17.7799 112.052 18.1719 112.444C18.5159 112.764 18.8759 113.06 19.2519 113.332C19.2519 113.332 16.9719 113.82 17.6759 115.004C18.0919 115.716 18.5479 116.404 19.0439 117.06C19.0439 117.06 19.3799 120.892 19.8039 120.988C20.7639 121.42 21.6999 121.908 22.6119 122.436C22.6119 122.436 29.4919 118.724 30.1159 116.764C30.7399 114.796 32.2119 110.868 32.2119 110.868L31.0279 108.132L34.5639 91.436C34.5639 91.436 36.4679 86.092 33.0439 83.908C29.6279 81.724 23.3559 81.156 22.0759 83.364V83.372Z" fill="#8C9192"/>
<path d="M33.9078 94.604C33.8758 94.684 33.8518 94.772 33.8358 94.852C33.7958 95.036 33.7318 95.276 33.6598 95.588C33.5158 96.252 33.3078 97.18 33.0438 98.356L30.9318 108.108V108.172L32.1078 110.908V110.82C31.4358 112.692 30.7398 114.732 29.9638 116.804L29.8438 117.068L29.6598 117.308C29.5398 117.476 29.4118 117.628 29.2598 117.764C29.1158 117.916 28.9638 118.052 28.8038 118.188C28.6518 118.324 28.4998 118.46 28.3478 118.58C27.7238 119.092 27.0678 119.556 26.4198 119.988C25.1158 120.86 23.8118 121.636 22.5638 122.324H22.6678C22.0678 121.988 21.4838 121.668 20.9158 121.372C20.6278 121.22 20.3478 121.076 20.0518 120.956L19.9398 120.908C19.9398 120.908 19.8358 120.876 19.8358 120.868C19.8038 120.828 19.7718 120.78 19.7558 120.732C19.6998 120.596 19.6598 120.452 19.6198 120.316C19.3878 119.236 19.2278 118.132 19.1398 117.028V117.004C18.7878 116.548 18.4758 116.092 18.2278 115.676C18.0838 115.46 17.9558 115.26 17.8358 115.052C17.7798 114.956 17.7318 114.86 17.6918 114.756C17.6598 114.66 17.6518 114.556 17.6678 114.46C17.7478 114.06 18.1238 113.836 18.4278 113.684C18.7078 113.548 19.0038 113.444 19.2998 113.364H19.3798L19.3078 113.316C18.9238 113.044 18.6518 112.836 18.4758 112.684C18.2998 112.532 18.2118 112.46 18.2038 112.468C18.2038 112.468 18.2038 112.492 18.2598 112.54C18.3158 112.58 18.3638 112.644 18.4438 112.724C18.7078 112.956 18.9798 113.18 19.2598 113.388V113.316C18.9478 113.38 18.6438 113.484 18.3478 113.62C18.1718 113.708 18.0118 113.804 17.8598 113.924C17.6838 114.06 17.5638 114.252 17.5078 114.468C17.4838 114.588 17.4838 114.708 17.5078 114.828C17.5558 114.94 17.6038 115.052 17.6678 115.156C17.7878 115.364 17.9158 115.572 18.0518 115.788C18.3238 116.244 18.6278 116.668 18.9638 117.156V117.116C19.0438 118.228 19.1958 119.34 19.4198 120.436C19.4518 120.588 19.4998 120.74 19.5638 120.892C19.5958 120.988 19.6598 121.076 19.7478 121.132L19.8598 121.172L19.9638 121.212C20.2438 121.332 20.5238 121.484 20.8118 121.628C21.3798 121.932 21.9638 122.252 22.5558 122.588L22.6038 122.62L22.6598 122.588C23.9158 121.9 25.2278 121.132 26.5398 120.252C27.2118 119.812 27.8678 119.34 28.4918 118.836C28.6518 118.708 28.8118 118.58 28.9478 118.428C29.0838 118.284 29.2598 118.156 29.4038 117.996C29.5558 117.844 29.6998 117.684 29.8198 117.516C29.8838 117.428 29.9478 117.348 30.0118 117.26L30.1558 116.956C30.9238 114.86 31.6198 112.852 32.2918 110.964V110.876L31.1078 108.14V108.204C31.9398 104.22 32.6358 100.844 33.1318 98.436C33.3718 97.26 33.5558 96.3159 33.6838 95.652C33.7398 95.3399 33.7878 95.1 33.8278 94.908C33.8518 94.804 33.8758 94.6999 33.8838 94.5959L33.9078 94.604Z" fill="#2A363C"/>
<path d="M19.1481 113.26C19.1481 113.26 19.2601 113.332 19.4921 113.404C19.8201 113.508 20.1721 113.564 20.5161 113.556C20.7641 113.548 21.0041 113.484 21.2281 113.38C21.4761 113.26 21.7081 113.124 21.9401 112.972C22.4201 112.652 22.9001 112.268 23.4441 111.9C24.5161 111.156 25.5241 110.532 26.2441 110.076C26.6521 109.852 27.0361 109.588 27.3961 109.284C26.9641 109.46 26.5561 109.676 26.1641 109.924C25.4201 110.356 24.3881 110.956 23.3081 111.708C22.7641 112.076 22.2761 112.476 21.8201 112.788C21.4441 113.1 20.9881 113.308 20.5081 113.388C20.1801 113.404 19.8441 113.388 19.5161 113.308C19.3961 113.268 19.2761 113.244 19.1481 113.244V113.26Z" fill="#2A363C"/>
<path d="M19.0602 117.068C19.2042 117.14 19.3562 117.172 19.5162 117.172C19.9322 117.204 20.3482 117.132 20.7322 116.956C21.9402 116.356 23.0762 115.636 24.1322 114.812C25.1802 113.98 26.1802 113.084 27.1242 112.124C27.4922 111.756 27.7722 111.46 27.9642 111.252C28.0762 111.156 28.1722 111.036 28.2522 110.908C27.8122 111.244 27.3962 111.612 27.0042 112.004C26.2522 112.7 25.2202 113.66 23.9882 114.62C22.9402 115.436 21.8282 116.164 20.6602 116.804C20.3082 116.988 19.9162 117.084 19.5242 117.084C19.3722 117.076 19.2202 117.068 19.0602 117.076V117.068Z" fill="#2A363C"/>
<path d="M50.7721 114.788C50.9641 114.836 51.1561 114.852 51.3481 114.86L52.9321 114.956L55.2761 115.068L56.6441 115.124C56.9001 115.108 57.1481 115.06 57.3881 114.996L58.1241 114.82C59.1481 114.564 60.1081 114.308 60.9803 114.076H60.94C62.2443 114.196 63.3483 114.292 64.1323 114.348L65.0443 114.404C65.1563 114.412 65.26 114.412 65.372 114.404C65.2683 114.364 65.164 114.34 65.052 114.332L64.14 114.212C63.3643 114.116 62.2603 113.996 60.9483 113.86H60.908L58.0601 114.588L57.3241 114.764C57.1001 114.828 56.8681 114.868 56.6281 114.884L55.2601 114.836L52.916 114.772L51.3321 114.748C51.1401 114.74 50.9561 114.748 50.7641 114.772L50.7721 114.788Z" fill="#CDCDCF"/>
<path d="M39.1001 53.0121H39.0681C38.2921 53.58 37.7881 54.396 37.6521 55.292V55.38C37.4601 56.668 37.5001 57.956 37.2921 59.252C37.0841 60.54 36.6041 61.828 35.5721 62.692C35.1481 63.052 34.3961 63.3 34.0521 62.8841C33.9321 62.7081 33.8761 62.508 33.8761 62.3C33.6121 59.22 32.6921 56.4841 32.7001 53.268C32.7001 52.8361 32.8041 52.4121 33.0121 52.02C33.2281 51.6361 33.5321 51.3 33.9161 51.044C34.6521 50.564 35.5561 50.0601 36.3801 50.42C37.2041 50.78 38.2601 52.18 38.9001 52.772" fill="#2A363C"/>
<path d="M36.0598 51.332C35.3158 50.164 37.3558 48.476 38.8438 48.044C40.3318 47.612 42.2998 48.292 43.7798 48.764C44.7158 49.068 45.6518 49.484 46.6358 49.444C47.2918 49.38 47.9398 49.22 48.5478 48.972C49.1558 48.724 49.8198 48.596 50.4838 48.604C50.8118 48.604 51.1398 48.708 51.4198 48.876C51.6998 49.044 51.9238 49.292 52.0758 49.58C52.3238 50.172 51.9718 50.988 51.3078 51.076C51.5158 50.964 51.7558 50.908 51.9878 50.9C52.2198 50.892 52.4598 50.948 52.6758 51.052C52.8918 51.156 53.0758 51.308 53.2118 51.492C53.3478 51.676 53.4438 51.9 53.4758 52.124C53.5078 52.356 53.4838 52.588 53.4118 52.804C53.3318 53.02 53.2038 53.22 53.0278 53.38C52.8518 53.54 52.6438 53.652 52.4118 53.716C52.1798 53.78 51.9398 53.788 51.7078 53.74C52.1318 53.42 52.7958 53.948 52.7398 54.46C52.6838 54.716 52.5558 54.956 52.3718 55.148C52.1878 55.34 51.9638 55.492 51.7078 55.572C50.4358 56.108 48.9798 55.932 47.6758 55.508C46.3718 55.084 45.1638 54.42 43.8518 53.964C42.5478 53.508 40.3878 52.684 39.0998 53.14C38.1478 53.468 36.9398 54.34 36.9398 54.34L36.2998 53.796C36.1318 53.564 36.0278 53.308 35.9878 53.028C35.9158 52.484 35.9398 51.924 36.0438 51.38" fill="#2A363C"/>
<path d="M148.7 2.69995H14.3C7.89353 2.69995 2.7 7.89355 2.7 14.3V148.7C2.7 155.106 7.89353 160.3 14.3 160.3H148.7C155.106 160.3 160.3 155.106 160.3 148.7V14.3C160.3 7.89355 155.106 2.69995 148.7 2.69995Z" stroke="#9EABAD" stroke-width="2.4"/>
<path d="M153.824 115.719C153.753 115.342 153.763 114.946 153.676 114.574C153.493 113.796 153.298 113.017 153.054 112.254C152.85 111.61 152.568 110.99 152.318 110.36C151.843 109.167 151.155 108.101 150.358 107.103C150.022 106.681 149.623 106.309 149.282 105.889C148.63 105.087 147.837 104.443 147.03 103.818C146.25 103.21 145.405 102.699 144.525 102.253C143.891 101.934 143.25 101.614 142.583 101.39C141.63 101.07 140.668 100.77 139.662 100.609C138.8 100.471 137.941 100.342 137.07 100.323C135.966 100.3 134.87 100.374 133.775 100.561C132.866 100.717 131.975 100.923 131.103 101.218C129.953 101.606 128.858 102.113 127.804 102.725C126.114 103.707 124.667 104.979 123.388 106.441C122.678 107.251 122.085 108.156 121.544 109.093C120.986 110.059 120.522 111.075 120.175 112.128C119.852 113.11 119.558 114.104 119.408 115.141C119.29 115.957 119.246 116.775 119.19 117.588C119.148 118.208 119.25 118.842 119.311 119.464C119.364 120.031 119.414 120.601 119.524 121.161C119.626 121.683 119.808 122.193 119.954 122.707C120.165 123.438 120.427 124.148 120.734 124.847C121.132 125.75 121.597 126.613 122.14 127.431C123.002 128.721 123.985 129.914 125.17 130.922C125.41 131.128 125.513 131.355 125.513 131.68C125.502 134.514 125.508 137.35 125.508 140.185C125.508 142.866 125.521 145.55 125.5 148.231C125.492 149.099 125.71 149.899 126.194 150.582C127.013 151.738 128.116 152.446 129.585 152.477C130.523 152.496 131.382 152.258 132.138 151.711C133.086 151.028 134.009 150.31 134.942 149.606C135.406 149.255 135.853 148.902 136.499 148.906C136.993 148.906 137.431 149.007 137.818 149.291C138.892 150.083 139.948 150.902 141.028 151.688C142.082 152.454 143.256 152.673 144.519 152.348C145.67 152.052 146.537 151.361 147.13 150.339C147.572 149.582 147.69 148.738 147.69 147.872V137.594C147.69 135.59 147.69 133.588 147.685 131.585C147.685 131.313 147.766 131.115 147.992 130.946C148.234 130.766 148.45 130.545 148.664 130.33C149.447 129.547 150.202 128.74 150.837 127.827C151.412 127.001 151.909 126.135 152.33 125.222C152.592 124.654 152.812 124.069 153.033 123.483C153.162 123.143 153.274 122.791 153.351 122.438C153.503 121.739 153.64 121.034 153.753 120.327C153.842 119.762 153.926 119.192 153.937 118.625C153.955 117.659 154.002 116.687 153.822 115.727L153.824 115.719Z" fill="white"/>
<path d="M153.676 114.574C153.493 113.796 153.298 113.017 153.054 112.254C152.85 111.61 152.568 110.99 152.318 110.36C151.843 109.167 151.155 108.101 150.358 107.103C150.022 106.681 149.623 106.309 149.282 105.889C148.63 105.087 147.837 104.443 147.03 103.818C146.25 103.21 145.405 102.699 144.525 102.253C143.891 101.934 143.25 101.614 142.583 101.39C141.63 101.07 140.668 100.77 139.662 100.609C138.8 100.471 137.941 100.342 137.07 100.323C135.966 100.3 134.87 100.374 133.775 100.561C132.866 100.717 131.975 100.923 131.103 101.218C129.953 101.606 128.858 102.113 127.804 102.725C126.114 103.707 124.667 104.979 123.388 106.441C122.678 107.251 122.085 108.156 121.544 109.093C120.986 110.059 120.522 111.075 120.175 112.128C119.852 113.11 119.558 114.104 119.408 115.141C119.29 115.957 119.246 116.775 119.19 117.588C119.148 118.208 119.25 118.842 119.311 119.464C119.364 120.031 119.414 120.601 119.524 121.161C119.626 121.683 119.808 122.193 119.954 122.707C120.165 123.438 120.427 124.148 120.734 124.847C121.132 125.75 121.597 126.613 122.14 127.431C123.002 128.721 123.985 129.914 125.17 130.922C125.41 131.128 125.513 131.355 125.513 131.68C125.502 134.514 125.508 137.35 125.508 140.185C125.508 142.866 125.521 145.55 125.5 148.231C125.492 149.099 125.71 149.899 126.194 150.582C127.013 151.738 128.116 152.446 129.585 152.477C130.523 152.496 131.382 152.258 132.138 151.711C133.086 151.028 134.009 150.31 134.942 149.606C135.406 149.255 135.853 148.902 136.499 148.906C136.993 148.906 137.431 149.007 137.818 149.291C138.892 150.083 139.948 150.902 141.028 151.688C142.082 152.454 143.256 152.673 144.519 152.348C145.67 152.052 146.537 151.361 147.13 150.339C147.572 149.582 147.69 148.738 147.69 147.872V137.594C147.69 135.59 147.69 133.588 147.685 131.585C147.685 131.313 147.766 131.115 147.992 130.946C148.234 130.766 148.45 130.545 148.664 130.33C149.447 129.547 150.202 128.74 150.837 127.827C151.412 127.001 151.909 126.135 152.33 125.222C152.592 124.654 152.812 124.069 153.033 123.483C153.162 123.143 153.274 122.791 153.351 122.438C153.503 121.739 153.64 121.034 153.753 120.327C153.842 119.762 153.926 119.192 153.937 118.625C153.955 117.659 154.002 116.687 153.822 115.727C153.75 115.35 153.761 114.954 153.674 114.582L153.676 114.574ZM145.51 147.996C145.51 148.555 145.399 149.086 145.037 149.548C144.679 150.002 143.678 150.437 143.025 150.242C142.481 150.081 142.078 149.733 141.648 149.414C140.663 148.685 139.683 147.949 138.687 147.234C138.278 146.938 137.783 146.842 137.298 146.742C136.594 146.598 135.895 146.663 135.228 146.895C134.826 147.036 134.434 147.25 134.088 147.5C133.16 148.17 132.259 148.88 131.345 149.566C130.948 149.864 130.554 150.154 130.045 150.253C129.412 150.377 128.881 150.192 128.406 149.798C127.88 149.363 127.675 148.782 127.678 148.105C127.686 145.642 127.68 143.178 127.68 140.715H127.683V133.097C127.683 132.778 127.694 132.782 127.986 132.927C128.831 133.345 129.669 133.778 130.536 134.147C131.07 134.374 131.642 134.516 132.206 134.662C132.887 134.836 133.573 135.031 134.266 135.102C135.212 135.2 136.171 135.194 137.124 135.216C137.526 135.226 137.934 135.231 138.33 135.178C138.966 135.097 139.604 135.002 140.224 134.844C141.112 134.617 142 134.369 142.862 134.049C143.555 133.794 144.206 133.422 144.876 133.102C145.068 133.01 145.266 132.927 145.462 132.841C145.478 133.041 145.504 133.242 145.504 133.445C145.507 138.295 145.51 143.143 145.504 147.993L145.51 147.996ZM147.726 128.136C144.661 131.471 140.778 133.131 136.284 133.054C132.191 132.986 128.639 131.413 125.77 128.442C122.905 125.47 121.45 121.899 121.447 116.999C121.491 113.893 122.742 110.486 125.285 107.618C127.878 104.696 131.142 102.973 135.046 102.612C139.594 102.19 143.597 103.509 146.957 106.634C149.818 109.291 151.402 112.61 151.718 116.509C152.077 120.958 150.726 124.863 147.724 128.133L147.726 128.136Z" fill="#C4C6C4"/>
<path d="M138.29 114.337L136.61 110.917L134.928 114.337C134.726 114.746 134.337 115.03 133.888 115.097L130.132 115.646L132.85 118.308C133.176 118.627 133.323 119.086 133.247 119.535L132.606 123.293L135.966 121.52C136.168 121.414 136.389 121.362 136.61 121.362C136.83 121.362 137.05 121.414 137.253 121.52L140.613 123.293L139.972 119.535C139.895 119.084 140.043 118.625 140.369 118.308L143.088 115.646L139.331 115.097C138.882 115.03 138.493 114.748 138.29 114.337Z" fill="#C4C6C4"/>
<path d="M149.915 116.666C149.637 113.234 148.242 110.312 145.722 107.972C142.762 105.219 139.237 104.058 135.233 104.43C131.794 104.75 128.92 106.267 126.638 108.84C124.397 111.366 123.296 114.366 123.257 117.1C123.257 121.414 124.541 124.56 127.063 127.174C129.588 129.793 132.716 131.176 136.321 131.236C140.279 131.302 143.7 129.842 146.398 126.903C149.043 124.024 150.23 120.586 149.912 116.666H149.915ZM145.034 116.318L141.824 119.462L142.581 123.9C142.67 124.425 142.46 124.945 142.031 125.257C141.603 125.57 141.046 125.61 140.576 125.362L136.61 123.267L132.642 125.362C132.438 125.47 132.218 125.523 131.999 125.523C131.713 125.523 131.432 125.434 131.188 125.257C130.759 124.942 130.549 124.422 130.638 123.9L131.395 119.462L128.185 116.318C127.806 115.946 127.673 115.402 127.836 114.896C127.998 114.39 128.426 114.028 128.952 113.951L133.389 113.305L135.372 109.267C135.606 108.79 136.082 108.494 136.612 108.494C137.143 108.494 137.615 108.79 137.85 109.267L139.833 113.305L144.27 113.951C144.795 114.028 145.221 114.39 145.386 114.896C145.549 115.402 145.415 115.946 145.037 116.318H145.034Z" fill="#C4C6C4"/>
</svg>
