<?xml version="1.0" encoding="UTF-8"?><svg id="a" xmlns="http://www.w3.org/2000/svg" viewBox="0 0 400.31 648.17"><path d="m243.51,153.72c-10.51,190.44-41,329.05-136,494.45l-4.62-.55-10.56-1.27s69.21-103.76,95.13-211.78c28.18-117.52,56.05-280.84,56.05-280.84Z" fill="#ffa600" stroke-width="0"/><path d="m198.83,408.36s-74.34-44.04-96.44-67.44c-22.1-23.4-62.34-86.57-62.34-86.57,0,0,77.66,19.03,106.04,49.57,28.38,30.53,54.64,97.35,54.64,97.35l-1.91,7.09Z" fill="#ffa600" stroke-width="0"/><path d="m69.66,275.7c.11.11.23.2.37.26l1.06.89c.99.71,2.32,1.9,4.08,3.27,3.62,2.83,8.92,6.86,15.51,11.77,6.59,4.91,14.48,10.73,23.07,17.35,4.3,3.32,8.78,6.84,13.25,10.71,2.24,1.93,4.42,3.96,6.55,6.13,2.13,2.17,3.92,4.69,5.92,7.11,8.05,9.68,16.13,18.46,23.37,26.56,7.24,8.1,13.69,15.48,18.95,21.79,5.26,6.32,9.37,11.52,12.2,15.16l3.26,4.18.86,1.07c.08.13.19.25.31.35,0,0-.11-.08-.24-.41l-.78-1.12-3.08-4.34c-2.77-3.67-6.79-8.97-12.02-15.33-5.23-6.36-11.55-13.77-18.82-21.91-7.27-8.14-15.28-16.96-23.28-26.6-2.01-2.4-3.85-4.9-5.98-7.13-2.13-2.23-4.37-4.27-6.63-6.2-4.49-3.86-8.98-7.4-13.31-10.68-8.65-6.6-16.58-12.34-23.21-17.19l-15.66-11.56-4.2-3.11-1.12-.8c-.13-.09-.28-.15-.44-.19Z" fill="#263238" stroke-width="0"/><path d="m168.64,501.78s-70.01-50.64-89.9-75.97c-19.89-25.33-54.13-91.85-54.13-91.85,0,0,75.58,26,101.18,59.02,25.6,33.01,45.53,101.92,45.53,101.92l-2.68,6.88Z" fill="#ffa600" stroke-width="0"/><path d="m52.1,357.88l.31.35.97.97c.88.84,2.14,2.09,3.81,3.65,3.34,3.16,8.27,7.65,14.38,13.14,6.11,5.49,13.44,12,21.4,19.39,3.98,3.68,8.12,7.61,12.21,11.86,2.05,2.11,4.05,4.36,5.92,6.68,1.87,2.32,3.5,5.03,5.26,7.6,7.09,10.37,14.36,19.87,20.84,28.6,6.49,8.73,12.21,16.64,16.87,23.41,4.66,6.76,8.28,12.35,10.8,16.19l2.85,4.46.76,1.15.29.38c-.04-.15-.12-.3-.21-.43l-.68-1.2-2.7-4.54c-2.44-3.89-5.99-9.58-10.57-16.37-4.58-6.79-10.27-14.81-16.75-23.55-6.48-8.75-13.64-18.33-20.75-28.6-1.77-2.58-3.42-5.19-5.25-7.61-1.84-2.43-3.96-4.63-6.04-6.76-4.12-4.26-8.27-8.19-12.27-11.87-8-7.36-15.38-13.8-21.55-19.24l-14.55-12.92-3.9-3.52-1.05-.9c-.11-.13-.25-.23-.4-.31Z" fill="#263238" stroke-width="0"/><path d="m132.31,591.37s-66.42-55.28-84.51-81.91C29.71,482.82,0,414.09,0,414.09c0,0,73.66,31.11,96.88,65.72,23.22,34.61,38.45,104.77,38.45,104.77l-3.02,6.79Z" fill="#ffa600" stroke-width="0"/><path d="m25.81,439.85c.07.14.17.27.29.38l.84,1.03c.81.9,1.99,2.24,3.6,3.95,3.12,3.39,7.72,8.2,13.45,14.1,5.73,5.9,12.59,12.89,20.04,20.77,3.72,3.95,7.58,8.16,11.37,12.68,1.9,2.25,3.74,4.61,5.5,7.09,1.65,2.51,3.13,5.26,4.72,7.96,6.39,10.81,12.96,20.77,18.86,29.94,5.9,9.17,11.06,17.45,15.25,24.51,4.19,7.07,7.45,12.85,9.72,16.89l2.54,4.65.68,1.2c.07.14.16.27.26.38l-.18-.43-.59-1.24-2.4-4.72c-2.15-4.06-5.28-9.94-9.42-17.04-4.14-7.1-9.26-15.47-15.11-24.65-5.85-9.17-12.4-19.16-18.77-29.94-1.6-2.71-3.04-5.41-4.77-7.99-1.73-2.58-3.64-4.9-5.57-7.17-3.82-4.53-7.71-8.73-11.46-12.68-7.48-7.88-14.4-14.81-20.17-20.65l-13.61-13.88-3.7-3.8-.97-.97-.41-.36Z" fill="#263238" stroke-width="0"/><path d="m133.1,595.17s76.48,1.06,103.32-8.02c21.87-7.4,59.59-38.39,59.59-38.39,0,0-51.85-14.83-87-4.49-35.15,10.35-74.13,44.55-74.13,44.55l-1.78,6.35Z" fill="#ffa600" stroke-width="0"/><path d="m274.48,554.26c-.49,0-.98.03-1.47.11l-4.09.41c-3.7.48-8.92,1.1-15.31,1.89-6.38.78-14.15,1.82-22.69,3.02-9.26,1.28-18.43,3.1-27.46,5.47-9.05,2.45-17.96,5.35-26.72,8.7-8.07,3.04-15.24,6-21.24,8.53-6.01,2.53-10.85,4.63-14.19,6.09l-3.84,1.71c-.45.18-.89.4-1.3.65.47-.13.93-.29,1.38-.49l3.87-1.51,14.29-5.82c6.03-2.45,13.23-5.35,21.28-8.31,8.05-2.97,17.04-6.04,26.64-8.59,9.04-2.34,18.2-4.16,27.44-5.44,8.44-1.47,16.09-2.42,22.58-3.4l15.27-2.17,4.15-.62c.47-.03.94-.1,1.4-.22Z" fill="#263238" stroke-width="0"/><path d="m166.76,508.78s86.28-4.79,116.69-15.36c30.41-10.57,95.24-48.04,95.24-48.04,0,0-77.68-18.94-116.96-5.02-39.28,13.93-93.38,61.18-93.38,61.18l-1.58,7.24Z" fill="#ffa600" stroke-width="0"/><path d="m342.58,450.65s-.16-.01-.47.03l-1.37.2-5.23.85-19.27,2.99c-8.11,1.26-17.81,2.69-28.53,4.56-5.35.92-10.96,1.98-16.74,3.35-2.89.67-5.8,1.48-8.73,2.42-2.92,1.08-5.69,2.35-8.6,3.58-11.54,4.88-22.77,8.96-32.91,12.83-10.14,3.87-19.25,7.52-26.81,10.78-7.56,3.26-13.58,6.08-17.74,8.06l-4.74,2.37c-.5.24-.91.46-1.22.63-.14.07-.28.15-.41.24.15-.03.31-.08.45-.15l1.26-.56,4.81-2.21c4.19-1.88,10.25-4.65,17.82-7.79,7.58-3.14,16.7-6.76,26.85-10.6,10.16-3.84,21.41-7.92,32.98-12.78,2.88-1.21,5.72-2.54,8.54-3.56,2.83-1.02,5.76-1.74,8.61-2.4,5.74-1.35,11.35-2.43,16.68-3.39,10.7-1.91,20.37-3.4,28.48-4.74,8.11-1.34,14.62-2.48,19.23-3.36,2.26-.41,4-.77,5.2-1.01l1.35-.3c.16,0,.33-.02.49-.06Z" fill="#263238" stroke-width="0"/><path d="m196.94,406.19s68.44-52.77,98.37-64.68c29.93-11.9,103.46-25.95,103.46-25.95,0,0-46.37,65.15-85.19,80.3-38.82,15.15-110.65,14.82-110.65,14.82l-5.99-4.5Z" fill="#ffa600" stroke-width="0"/><path d="m367.95,335.17s-.16.04-.43.18l-1.2.64-4.63,2.53c-4.01,2.2-9.86,5.31-17.15,9-7.29,3.69-16.08,7.93-25.95,12.33-4.93,2.23-10.14,4.47-15.53,6.74-5.39,2.26-11.16,4.38-16.88,6.95-11.41,5.11-22.07,10.43-31.88,14.96-9.82,4.53-18.81,8.33-26.44,11.24-7.63,2.91-13.99,4.97-18.31,6.32-2.13.62-3.83,1.13-5.04,1.51l-1.32.41c-.28.1-.44.16-.43.18.16-.02.32-.05.47-.09l1.33-.33,5.09-1.34c4.39-1.29,10.81-3.14,18.45-6.06,7.64-2.92,16.7-6.58,26.55-11.09,9.85-4.51,20.52-9.8,31.92-14.89,5.69-2.54,11.37-4.7,16.83-6.94,5.46-2.24,10.67-4.52,15.56-6.78,9.86-4.48,18.63-8.77,25.91-12.54,7.27-3.76,13.07-6.95,17.02-9.22,1.98-1.13,3.58-2.02,4.53-2.68l1.18-.72.36-.3Z" fill="#263238" stroke-width="0"/><path d="m221.9,298.79s54.48-59.47,81.62-76.69c27.14-17.22,96.79-44.83,96.79-44.83,0,0-33.4,72.66-68.68,94.8-35.29,22.13-106.04,35.26-106.04,35.26l-3.7-8.53Z" fill="#ffa600" stroke-width="0"/><path d="m373.75,202.31s-.08.11-.41.22c-.33.11-.67.46-1.15.76-1.04.71-2.49,1.71-4.29,3.01l-15.95,10.95c-6.74,4.66-14.74,10.19-23.62,16.34-8.88,6.15-18.59,13.04-28.54,20.54-20.08,14.78-39.03,27.1-52.69,36.09-6.77,4.46-12.24,8.13-16.18,10.64l-4.38,2.92-1.12.78c-.13.09-.26.18-.38.29.15-.05.29-.12.43-.21l1.18-.72c1.07-.67,2.58-1.6,4.45-2.78l16.24-10.36c13.74-8.85,32.76-21.09,52.87-35.9,9.97-7.5,19.63-14.38,28.48-20.58,8.85-6.21,16.8-11.78,23.52-16.49,6.72-4.72,12.01-8.53,15.8-11.19,1.79-1.31,3.21-2.37,4.24-3.11l1.1-.82c.14-.11.28-.24.4-.38Z" fill="#263238" stroke-width="0"/><path d="m221.21,306.86s-68.75-36.01-89.68-55.97c-20.93-19.95-59.98-74.71-59.98-74.71,0,0,70.55,13.41,97.47,39.41,26.92,26,53.59,84.76,53.59,84.76l-1.4,6.51Z" fill="#ffa600" stroke-width="0"/><path d="m99.12,193.93l.34.24,1.01.72c.88.63,2.19,1.57,3.86,2.77,3.37,2.41,8.33,5.75,14.4,9.79,6.07,4.05,13.48,8.95,21.51,14.48,4.01,2.77,8.18,5.73,12.37,8.98,2.15,1.54,4.16,3.34,6.16,5.18,2,1.84,3.75,4.03,5.61,6.16,7.66,8.29,15.34,15.8,22.24,22.75,6.9,6.95,13,13.21,18.03,18.62,5.03,5.42,8.95,9.9,11.68,12.99l3.13,3.59.82.93.34.24s-.1-.07-.22-.35l-.76-.97-3-3.71c-2.66-3.17-6.51-7.74-11.49-13.19s-11.03-11.83-17.89-18.78c-6.86-6.95-14.51-14.48-22.14-22.75-1.92-2.08-3.71-4.18-5.67-6.2-1.96-2.02-4.12-3.61-6.23-5.23-4.22-3.26-8.4-6.21-12.47-8.93-8.07-5.5-15.46-10.28-21.64-14.33l-14.56-9.57-3.96-2.62-1.01-.72-.45-.09Z" fill="#263238" stroke-width="0"/><path d="m236.13,203.41s-63.15-35.11-82.15-54.17c-19-19.06-54.1-70.95-54.1-70.95,0,0,65.36,14.14,89.83,38.99,24.47,24.84,47.9,80.13,47.9,80.13l-1.47,6.01Z" fill="#ffa600" stroke-width="0"/><path d="m125.12,95.47c.37.36.76.69,1.18.98.83.6,1.98,1.54,3.54,2.68,3.13,2.24,7.64,5.47,13.23,9.47,5.59,4,12.33,8.64,19.63,14.05,3.69,2.65,7.5,5.52,11.31,8.63,1.92,1.56,3.79,3.22,5.62,4.98,1.73,1.8,3.39,3.82,5.12,5.8,6.93,7.9,13.9,15.07,20.13,21.67,6.23,6.6,11.81,12.6,16.36,17.75,4.56,5.15,8.11,9.42,10.57,12.36l2.83,3.4c.32.41.66.8,1.03,1.16-.26-.45-.55-.88-.89-1.28l-2.69-3.51c-2.4-3.02-5.87-7.35-10.39-12.55-4.52-5.2-9.98-11.3-16.21-17.9-6.23-6.6-13.16-13.83-20.06-21.71-1.74-1.97-3.35-3.96-5.17-5.84-1.82-1.88-3.75-3.46-5.67-5.02-3.86-3.13-7.69-5.98-11.4-8.63-7.39-5.29-14.13-9.92-19.78-13.84l-13.39-9.26-3.6-2.57c-.41-.31-.85-.59-1.31-.83Z" fill="#263238" stroke-width="0"/><path d="m236.09,207.07s39.78-55.57,60.53-72.59c20.75-17.02,74.7-48.66,74.7-48.66,0,0-21.76,58.95-48.62,80.92-26.87,21.98-84.6,45.47-84.6,45.47l-2.01-5.14Z" fill="#ffa600" stroke-width="0"/><path d="m351.75,108.63c-.4.33-.77.69-1.11,1.07-.69.73-1.73,1.78-3.03,3.18-2.61,2.78-6.32,6.89-10.87,11.98-4.55,5.09-9.91,11.18-16.01,17.82-3.04,3.32-6.27,6.79-9.73,10.16-1.74,1.71-3.55,3.41-5.49,5.01-1.94,1.61-4.11,3.01-6.18,4.57-8.39,6.19-16.1,12.45-23.19,18.04-7.08,5.59-13.51,10.56-19.02,14.6-5.51,4.04-9.98,7.26-13.08,9.48l-3.61,2.53c-.43.27-.83.59-1.21.94.46-.23.9-.49,1.32-.79l3.7-2.38c3.12-2.05,7.71-5.18,13.25-9.24,5.54-4.06,12-8.83,19.13-14.43,7.13-5.6,14.85-11.76,23.2-17.96,2.1-1.56,4.24-2.94,6.21-4.59,1.97-1.65,3.81-3.35,5.56-5.07,3.51-3.46,6.73-6.95,9.76-10.29,6.08-6.69,11.36-12.87,15.87-17.99l10.65-12.16c1.22-1.38,2.18-2.48,2.9-3.3.36-.36.68-.75.97-1.17Z" fill="#263238" stroke-width="0"/><path d="m237.71,182.75s-14.14-69.12-11.42-95.95C229.01,59.98,246.9,0,246.9,0c0,0,30.47,59.53,26.81,94.12-3.66,34.59-33.98,89.09-33.98,89.09l-2.02-.46Z" fill="#ffa600" stroke-width="0"/><path d="m249.63,30.49c-.04.51-.04,1.02,0,1.54.03,1.03.07,2.51.18,4.41.18,3.85.52,9.41,1.01,16.26.49,6.86,1.14,15.01,1.65,24.09.28,4.48.48,9.29.51,14.24,0,2.47-.09,4.97-.31,7.49-.22,2.52-.8,5.04-1.22,7.69-1.73,10.37-2.84,20.29-3.98,29.27-1.13,8.97-2.28,17.12-3.37,23.9-1.09,6.78-2.15,12.25-2.89,16-.39,1.86-.63,3.27-.84,4.34-.13.5-.21,1.01-.23,1.52.17-.48.31-.98.4-1.49.26-1.05.59-2.49.97-4.34.78-3.72,2.01-9.26,3.14-15.99,1.13-6.73,2.39-14.88,3.57-23.91,1.18-9.03,2.36-18.93,4.05-29.21.42-2.59.94-5.11,1.22-7.69.29-2.58.3-5.09.29-7.58,0-4.95-.25-9.73-.5-14.25-.62-9-1.28-17.23-1.85-24.08l-1.26-16.19-.28-4.48c-.04-.52-.13-1.03-.25-1.53Z" fill="#263238" stroke-width="0"/><path d="m200.78,401.22l-1.96,7.16s-26.09-15.47-51.96-32.92l-.76-71.54c28.46,30.4,54.68,97.29,54.68,97.29Z" isolation="isolate" opacity=".1" stroke-width="0"/><path d="m171.22,494.83l-2.58,6.95s-54.44-36.24-60.75-47.56l17.85-61.27c25.46,32.89,45.47,101.87,45.47,101.87Z" isolation="isolate" opacity=".1" stroke-width="0"/><path d="m135.36,584.63l-3.05,6.74s-52.02-37.97-70.11-64.58l34.67-46.96c23.28,34.58,38.5,104.8,38.5,104.8Z" isolation="isolate" opacity=".1" stroke-width="0"/><path d="m222.62,300.35l-1.4,6.51s-28.59-15.74-48.4-27.25l-3.79-64.02c26.92,26,53.59,84.76,53.59,84.76Z" isolation="isolate" opacity=".1" stroke-width="0"/><path d="m237.59,197.39l-1.46,6.02s-16.51-9.17-35.19-20.7l-11.25-65.45c24.46,24.81,47.9,80.13,47.9,80.13Z" isolation="isolate" opacity=".1" stroke-width="0"/></svg>
