<?xml version="1.0" encoding="UTF-8"?>
<svg id="Layer_1" data-name="Layer 1" xmlns="http://www.w3.org/2000/svg" viewBox="0 0 1953.27 1762">
  <defs>
    <style>
      .cls-1 {
        fill: #000;
      }

      .cls-1, .cls-2, .cls-3, .cls-4, .cls-5, .cls-6, .cls-7, .cls-8, .cls-9, .cls-10, .cls-11, .cls-12, .cls-13 {
        stroke-width: 0px;
      }

      .cls-2 {
        fill: #e0e0e0;
      }

      .cls-14 {
        opacity: .2;
      }

      .cls-3 {
        fill: #eb996e;
      }

      .cls-4 {
        fill: #455a64;
      }

      .cls-5 {
        fill: #f5f5f5;
      }

      .cls-6 {
        fill: #09f;
      }

      .cls-7 {
        fill: #ffbe9d;
      }

      .cls-8 {
        fill: #ebebeb;
      }

      .cls-9 {
        fill: #40bbff;
      }

      .cls-10 {
        fill: #e2323d;
      }

      .cls-11 {
        fill: #263238;
      }

      .cls-12 {
        fill: #fafafa;
      }

      .cls-15 {
        opacity: .6;
      }

      .cls-13 {
        fill: #fff;
      }

      .cls-16 {
        opacity: .4;
      }
    </style>
  </defs>
  <path class="cls-8" d="M1841.41,1440.23c17.11-8.83,37.29-9.98,56.26-6.84,10.19,1.66,20.72,4.72,27.76,12.43,7.04,7.7,8.28,21.17.29,27.71-5.14,3.48-11.34,5.07-17.53,4.47-14.83,0-31.36-2.82-43.21,6.13-6.79,5.09-11.31,13.59-19.39,16.11-4.05.93-8.3.52-12.1-1.16-3.8-1.69-6.96-4.57-8.98-8.2-3.86-7.46-4.7-16.12-2.36-24.19.95-5.6,3.17-10.91,6.52-15.5,3.34-4.59,7.7-8.35,12.74-10.97Z"/>
  <path class="cls-8" d="M1802.22,1364.46c10.48,14.92,30.82,9.98,40.22.87,9.41-9.11,13.42-22.33,17.03-34.97,8.29-28.79,16.57-58.99,10.48-88.28-1.46-8.89-5.36-17.21-11.27-24.03-2.98-3.36-6.8-5.87-11.06-7.28-4.26-1.42-8.82-1.69-13.22-.8-10.27,2.69-16.57,12.76-21.25,22.29-13.51,28.21-20.58,59.07-20.72,90.35,0,14.54,1.66,29.83,9.86,41.84"/>
  <path class="cls-8" d="M1773.51,1386c11.35-13.47,13.51-33.14,8.29-50-5.72-16.79-15.98-31.67-29.62-43-15.47-13.78-33.48-24.41-53.03-31.28-7.56-3.09-15.7-4.5-23.86-4.14-4.07.23-8.03,1.46-11.52,3.57-3.5,2.11-6.42,5.04-8.53,8.53-5.55,10.65,0,23.57,5.59,34.09,10.18,18.59,21.83,36.34,34.84,53.07,10.44,13.46,22.41,26.76,38.32,32.85,15.91,6.09,32.44,5.34,40.89-5.68"/>
  <path class="cls-2" d="M1801.52,1589.9c.58-2.22.89-4.5.95-6.79.49-4.93,1.07-11.15,1.82-18.52.92-9.12,2.31-18.19,4.14-27.18,2.43-10.94,5.74-21.66,9.9-32.07,4.04-10.4,9.55-20.16,16.36-29,5.52-7.22,12.6-13.11,20.72-17.23,5.49-2.73,11.38-4.56,17.44-5.43,2.28-.09,4.54-.42,6.75-1-2.29-.22-4.59-.22-6.88,0-6.3.47-12.46,2.07-18.18,4.72-8.52,4.02-16,9.96-21.83,17.36-7.12,8.96-12.85,18.95-16.98,29.62-4.22,10.55-7.5,21.44-9.82,32.56-1.74,9.1-2.95,18.3-3.6,27.55-.58,7.83-.79,14.21-.91,18.6-.17,2.26-.13,4.54.13,6.79Z"/>
  <path class="cls-2" d="M1802.81,1575.74c.19-1.04.25-2.1.21-3.15v-9.03c0-7.79,0-19.1.42-33.14.66-27.96,3.06-58,7.75-100.42,4.39-39.85,10.27-86.21,16.57-116.37,1.33-6.88,2.65-13.05,3.94-18.44,1.28-5.38,2.24-10.11,3.23-13.88.99-3.77,1.57-6.46,2.11-8.74.3-1.01.48-2.06.54-3.11-.47.94-.83,1.92-1.08,2.95-.7,2.28-1.57,5.13-2.61,8.62-1.04,3.48-2.36,8.28-3.73,13.79-1.37,5.51-2.9,11.52-4.35,18.39-7.72,35.67-13.53,71.72-17.4,108-4.64,42.47-6.76,81.16-6.92,109.16,0,14,0,25.31.5,33.14.21,3.64.37,6.63.54,8.99-.01,1.08.08,2.17.29,3.23Z"/>
  <path class="cls-2" d="M1803.01,1501.17c.23-3.13.23-6.27,0-9.4-.53-8.54-1.48-17.04-2.86-25.48-2.06-12.58-4.83-25.02-8.28-37.29-4.08-14.99-9.31-29.65-15.66-43.83-10.78-26.24-26.22-50.32-45.57-71.05-3.38-3.52-6.96-6.84-10.73-9.94-1.66-1.41-3.11-2.77-4.6-3.89l-4.14-2.86c-2.51-1.91-5.17-3.61-7.96-5.09,9.13,7.18,17.81,14.93,25.98,23.2,18.75,20.88,33.78,44.81,44.45,70.76,6.17,14.15,11.4,28.69,15.62,43.54,3.58,12.09,6.52,24.35,8.83,36.75,1.94,10.6,3.06,19.26,3.77,25.23.12,3.15.5,6.28,1.16,9.36Z"/>
  <path class="cls-2" d="M1730.89,1632.66l7.5,102.37h131.53l7.5-102.37h-146.53Z"/>
  <path class="cls-2" d="M1893.11,1592.26h-174.91v40.35h174.91v-40.35Z"/>
  <path class="cls-8" d="M1718.21,1731.13v11.19h172.01v-11.19h-172.01Z"/>
  <path class="cls-2" d="M1734.49,1762l-8.08-19.68h157.51l-9.36,19.68h-140.06Z"/>
  <path class="cls-5" d="M1874.97,1666.09c-.18.34-.39.65-.62.96l-1.99,2.61-7.66,9.65-.33.42-.33-.45-18.81-26.02h1.07l-18.56,26.22-.58.83-.63-.79-21.99-26.14h1.28c-.42.45-.79.99-1.2,1.49l-19.68,24.65-.66.83-.58-.87-18.56-26.22h1.07l-22.83,26.06-.42.45-.33-.49-7.13-12.02-1.82-3.19c-.25-.36-.44-.75-.58-1.16.29.32.54.66.74,1.04.54.79,1.25,1.83,2.03,3.07,1.87,2.86,4.35,6.83,7.54,11.81h-.75c5.88-6.83,13.51-15.78,22.49-26.35l.58-.66.5.75,18.73,26.1h-1.28c6.25-7.83,12.8-16.11,19.64-24.86l1.2-1.53.62-.79.62.79,21.96,26.18h-1.24l18.73-26.1.54-.75.54.75,18.43,26.3h-.66l7.95-9.57,2.15-2.44c.24-.21.5-.4.79-.54Z"/>
  <path class="cls-5" d="M1879.24,1631.96c0,.45-33.14.83-73.62.83s-73.61-.38-73.61-.83,32.94-.83,73.61-.83,73.62.38,73.62.83Z"/>
  <path class="cls-5" d="M1885.87,1743.39c0,.45-35.79.83-80,.83s-79.99-.37-79.99-.83,35.79-.79,79.99-.79,80,.33,80,.79Z"/>
  <path class="cls-5" d="M19.68,1548.07v114.67H.5v12.43h19.18v76.72h357.81v-69.8h-26.39v-15.21h26.51v-22.83h11.81v-10.32h-14v-85.67H19.68Z"/>
  <path class="cls-2" d="M282.45,1548.4v202.25h94.99v-69.85h-26.47v-13.92l26.47.46v-22.79h12.01l-.21-11.81-14-.33v-84.35l-92.8.33Z"/>
  <path class="cls-2" d="M289.21,1673.51c0,.7-64.75,1.28-144.58,1.28s-144.62-.58-144.62-1.28,64.75-1.25,144.62-1.25,144.58.58,144.58,1.25Z"/>
  <path class="cls-2" d="M289.21,1661.87c0,.7-64.75,1.28-144.58,1.28s-144.62-.58-144.62-1.28,64.75-1.25,144.62-1.25,144.58.54,144.58,1.25Z"/>
  <path class="cls-2" d="M307.77,1630.55c0,.7-64.71,1.24-144.58,1.24s-144.62-.54-144.62-1.24,64.75-1.28,144.62-1.28,144.58.58,144.58,1.28Z"/>
  <path class="cls-2" d="M309.67,1715.93c0,.7-64.75,1.28-144.62,1.28s-144.58-.58-144.58-1.28,64.71-1.24,144.58-1.24,144.62.58,144.62,1.24Z"/>
  <path class="cls-5" d="M76.77,1348.67v114.63h-19.18v12.43h19.18v76.73h357.77v-69.81h-26.47v-15.2h26.47v-22.79h11.85v-10.4h-14v-85.59H76.77Z"/>
  <path class="cls-2" d="M339.54,1349.01v202.21h94.99v-69.8h-26.47v-13.96l26.47.49v-22.83h12.01l-.21-11.77-14-.33v-84.35l-92.8.33Z"/>
  <path class="cls-2" d="M346.29,1474.12c0,.7-64.75,1.25-144.58,1.25s-144.75-.54-144.75-1.25,64.75-1.28,144.62-1.28,144.71.58,144.71,1.28Z"/>
  <path class="cls-2" d="M346.29,1462.47c0,.71-64.75,1.25-144.58,1.25s-144.75-.54-144.75-1.25,64.75-1.28,144.62-1.28,144.71.58,144.71,1.28Z"/>
  <path class="cls-2" d="M364.89,1431.12c0,.71-64.75,1.28-144.62,1.28s-144.58-.58-144.58-1.28,64.71-1.28,144.58-1.28,144.62.58,144.62,1.28Z"/>
  <path class="cls-2" d="M366.68,1516.54c0,.7-64.75,1.24-144.62,1.24s-144.58-.54-144.58-1.24,64.71-1.28,144.58-1.28,144.62.58,144.62,1.28Z"/>
  <path class="cls-2" d="M652.24,75.23l-.91-.29-2.53-.99-9.7-4.14-35.3-15.12L486.73,3.81l-4.14-1.78h.83l-114.34,49.17-34.55,14.33-9.45,3.85c-1.08.51-2.2.92-3.36,1.2,1.02-.6,2.09-1.13,3.19-1.57l9.28-4.14,34.38-15.16L482.8,0h.83l4.14,1.78,116.58,51.45,35.25,15.83,9.53,4.39,2.44,1.2c.25.16.47.35.66.58Z"/>
  <path class="cls-2" d="M834.48,58.46H84.14v561.8h750.34V58.46Z"/>
  <path class="cls-12" d="M811.07,84.55H110.36v512.62h700.71V84.55Z"/>
  <path class="cls-2" d="M265.14,308.51s.7,86.09,5.1,112.31l107.92-5.05s-9.49-84.59-5.8-107.21l-107.21-.04Z"/>
  <path class="cls-13" d="M318.29,320.69h1.57c1.49-.13,2.99-.13,4.47,0,2.38.35,4.7,1.05,6.88,2.07,2.89,1.44,5.43,3.49,7.46,6.01,2.48,3.04,4.25,6.59,5.18,10.4.83,4.47.45,9.07-1.12,13.34-.82,2.31-1.84,4.54-3.07,6.67-1.2,2.15-2.4,4.14-3.44,6.71-2.08,4.9-3.47,10.05-4.14,15.33v.37h-22.83v-.37c-.46-5.27-2.24-10.34-5.18-14.75-1.28-2.24-2.69-4.14-4.14-6.38-1.39-1.99-2.67-4.07-3.81-6.21-1.97-4.08-2.56-8.69-1.7-13.13.63-3.84,2.04-7.5,4.14-10.77,1.85-2.48,4.22-4.52,6.96-5.97,2.08-1.15,4.31-2.02,6.63-2.57,1.45-.37,2.94-.61,4.43-.7-1.4.2-2.78.49-4.14.87-2.28.58-4.47,1.47-6.5,2.65-2.71,1.54-5.04,3.68-6.79,6.26-2.08,3.21-3.49,6.8-4.14,10.56-.83,4.32-.22,8.78,1.74,12.72,1.13,2.11,2.39,4.14,3.77,6.09,1.33,2.07,2.73,4.14,4.14,6.38,3.02,4.51,4.85,9.71,5.34,15.12l-.41-.37h21.83l-.41.37c.77-5.36,2.27-10.59,4.47-15.54,1.04-2.33,2.22-4.6,3.52-6.79,1.2-2.08,2.2-4.28,2.98-6.55,1.57-4.13,1.99-8.62,1.2-12.97-.87-3.71-2.57-7.18-4.97-10.15-1.96-2.46-4.44-4.47-7.25-5.88-2.13-1.03-4.38-1.75-6.71-2.15-1.47-.22-2.95-.33-4.43-.33h-1.57l.04-.33Z"/>
  <path class="cls-13" d="M323.84,380.64c0-.11,0-.22,0-.33v-.99c0-.91-.33-2.2-.58-3.85-.5-3.36-1.2-8.29-1.7-14.25,0-1.49,0-3.07-.29-4.72-.29-1.66,0-3.4,0-5.18.04-1.86.45-3.69,1.2-5.39.83-1.84,2.3-3.31,4.14-4.14.99-.39,2.06-.49,3.1-.29,1.04.2,2.01.69,2.78,1.41.4.39.73.85.95,1.36.22.51.34,1.06.34,1.62-.03,1.12-.42,2.19-1.12,3.07-.68.91-1.58,1.63-2.61,2.11-1.02.49-2.09.85-3.19,1.08-2.24.45-4.51.71-6.79.79-2.3.08-4.6-.03-6.88-.33-1.11-.19-2.2-.51-3.23-.95-1.04-.45-1.97-1.11-2.73-1.95-.77-.8-1.31-1.78-1.57-2.86-.24-1.08-.1-2.2.37-3.19.46-.99,1.27-1.78,2.28-2.2.48-.21,1-.33,1.53-.33s1.05.11,1.53.33c.93.41,1.73,1.09,2.28,1.95.56.81.96,1.73,1.16,2.69.34,1.82.52,3.66.54,5.51,0,3.56.37,6.84.54,9.86.29,6.05.54,10.94.7,14.33v4.89c.03.12.03.25,0,.37v-1.37c0-.91,0-2.2-.25-3.89,0-3.4-.5-8.29-.83-14.29,0-3.02-.37-6.34-.54-9.9-.03-1.82-.23-3.64-.58-5.43-.19-.94-.57-1.83-1.12-2.61-.53-.8-1.28-1.43-2.15-1.82-.44-.19-.92-.29-1.41-.29s-.96.1-1.41.29c-.93.4-1.68,1.12-2.11,2.03-.44.93-.55,1.98-.33,2.98.24,1.03.75,1.98,1.49,2.73,1.56,1.54,3.58,2.52,5.76,2.78,2.25.3,4.52.41,6.79.33,2.27-.07,4.53-.33,6.75-.79,1.08-.23,2.14-.58,3.15-1.04.96-.48,1.8-1.16,2.49-1.99.63-.84.99-1.85,1.04-2.9-.04-1.02-.45-2-1.16-2.73-.73-.68-1.64-1.15-2.62-1.34-.98-.19-2-.1-2.93.26-1.86.79-3.35,2.28-4.14,4.14-.75,1.67-1.18,3.47-1.24,5.3v5.1c0,1.62,0,3.23.25,4.76.46,6.01,1.12,10.85,1.57,14.21.25,1.7.41,2.98.54,3.89v.99c.09.05.17.1.25.17Z"/>
  <path class="cls-13" d="M309.67,381.22s0,1.33.25,3.6c.25,2.28.33,5.72.5,9.32v-.21l7.25,8.29h-.37l8.29-.46h-.33l4.14-5.1,2.11-2.57v.33c0-4.93,0-9.61-.29-13.84l.46.41-15.7.21h-6.3c.5-.05,1-.05,1.49,0l4.43-.21,15.95-.62h.46v.46c0,4.14.29,8.91.41,13.84l-2.11,2.57c-1.45,1.74-2.86,3.44-4.14,5.1h-.21l-8.29.41-7.13-8.29v-9.61c-.4-1.18-.69-2.41-.87-3.65Z"/>
  <path class="cls-13" d="M331.3,393.36l-.79-.33c-.5,0-1.24-.54-2.2-.87-2.44-.82-5.01-1.21-7.58-1.16-2.57.11-5.11.66-7.5,1.62l-2.11.99-.79.41.7-.5c.68-.41,1.39-.78,2.11-1.12,2.39-1.05,4.97-1.64,7.58-1.74,2.61-.06,5.21.38,7.66,1.28.95.37,1.66.7,2.15.95l.75.46Z"/>
  <path class="cls-13" d="M331.3,390l-.91-.33c-.5,0-1.24-.54-2.2-.87-2.44-.82-5.01-1.21-7.58-1.16-2.57.11-5.11.66-7.5,1.62-.72.29-1.43.63-2.11.99l-.79.41.7-.5c.67-.44,1.38-.81,2.11-1.12,2.39-1.07,4.96-1.67,7.58-1.74,2.61-.06,5.21.38,7.66,1.28.74.27,1.46.58,2.15.95l.87.46Z"/>
  <path class="cls-13" d="M331.09,386.77c-.27-.09-.53-.2-.79-.33-.71-.33-1.45-.62-2.2-.87-2.44-.82-5.01-1.21-7.58-1.16-2.58.09-5.11.64-7.5,1.62-.91.37-1.62.75-2.11.99l-.79.37.7-.5c.5-.29,1.2-.66,2.11-1.08,2.39-1.07,4.97-1.66,7.58-1.74,2.61-.06,5.21.38,7.66,1.28.74.27,1.46.58,2.15.95l.75.46Z"/>
  <path class="cls-8" d="M144.91,167.87s.75,86.05,5.14,112.31l107.92-5.26s-9.49-84.59-5.84-107.17l-107.21.12Z"/>
  <path class="cls-13" d="M235.85,203.99c-11.97,1.78-24.03,2.85-36.12,3.23-12.07,1.07-24.18,1.45-36.29,1.12,11.98-1.78,24.06-2.86,36.17-3.23,12.05-1.08,24.15-1.45,36.25-1.12Z"/>
  <path class="cls-13" d="M235.89,222.22c-11.98,1.78-24.06,2.85-36.17,3.23-12.05,1.08-24.15,1.45-36.25,1.12,11.97-1.78,24.03-2.85,36.13-3.23,12.06-1.08,24.18-1.45,36.29-1.12Z"/>
  <path class="cls-13" d="M217.54,240.11c-6.81,1.48-13.75,2.25-20.71,2.32-6.89.69-13.83.69-20.71,0,6.81-1.47,13.75-2.23,20.71-2.28,6.89-.72,13.83-.74,20.71-.04Z"/>
  <path class="cls-8" d="M139.82,421.03s.75,86.04,5.1,112.31l107.92-5.13s-9.45-84.6-5.8-107.17h-107.21Z"/>
  <path class="cls-13" d="M230.96,457.19c-11.98,1.78-24.06,2.86-36.17,3.23-12.05,1.1-24.15,1.47-36.25,1.12,11.97-1.78,24.03-2.85,36.12-3.23,12.07-1.08,24.18-1.45,36.29-1.12Z"/>
  <path class="cls-13" d="M230.96,475.38c-11.98,1.78-24.06,2.86-36.17,3.23-12.06,1.07-24.18,1.45-36.29,1.12,11.98-1.77,24.06-2.85,36.17-3.23,12.07-1.07,24.18-1.45,36.29-1.12Z"/>
  <path class="cls-13" d="M212.44,493.28c-6.81,1.47-13.75,2.25-20.71,2.32-6.89.69-13.83.69-20.71,0,6.81-1.48,13.75-2.24,20.71-2.28,6.89-.72,13.83-.73,20.71-.04Z"/>
  <path class="cls-8" d="M434.78,190.65l10.69,248.19,309.84,3.73-13.92-248.65-306.6-3.27Z"/>
  <path class="cls-5" d="M738.94,188.87h-307.77v232.41h307.77v-232.41Z"/>
  <path class="cls-2" d="M738.94,421.28v-16.57c0-10.9,0-26.76-.25-47.02,0-40.56-.25-98.51-.45-168.69l.87.87h-307.73l1.08-1.08v232.41l-.95-.95,222.01.5,63.14.25h22.62-22.08l-62.93.25-222.63.46h-.95v-233.78h309.71v.87c0,70.43-.33,128.43-.46,169.23,0,20.18,0,35.96-.21,46.81v12.43c0,3.02-.79,4.02-.79,4.02Z"/>
  <path class="cls-5" d="M593.08,238.12h-124.78v157.01h124.78v-157.01Z"/>
  <path class="cls-2" d="M593.08,395.05c-.04-.26-.04-.53,0-.79v-10.81c0-7.58,0-18.48-.29-32.23,0-27.63-.25-66.74-.45-113.18l.95.95h-124.74l1.04-1.04v156.97l-.87-.87,90.35.46,25.36.21h9.07c-.73.07-1.47.07-2.19,0h-6.55l-25.15.21-90.89.46h-.87v-157.22l1.08-1.08h125.69v.95c0,46.69-.37,86-.49,113.8,0,13.63,0,24.44-.25,31.98v10.4c-.22.31-.49.59-.79.83Z"/>
  <path class="cls-5" d="M712.22,202.17h-239.12v22.62h239.12v-22.62Z"/>
  <path class="cls-2" d="M712.18,224.83v-5.97c0-4.14,0-9.49-.25-16.57l.42.46c-40.31.37-132.24.62-239.08.62l1.04-1.04v22.58l-1.04-1.08,169.48.46,50.87.33h17.44c.42-.06.85-.06,1.28,0h-18.23l-50.63.29-170.22.46h-1.08v-23.61c.46-.5-1.04,1.04,1.08-1.08,106.84,0,198.85.25,239.08.62h.45v.41c0,7.29-.21,12.97-.25,16.94v4.14c.01.7-.11,1.39-.37,2.03Z"/>
  <path class="cls-5" d="M712.22,238.12h-103.86v94.62h103.86v-94.62Z"/>
  <path class="cls-2" d="M712.18,332.91c-.03-.61-.03-1.22,0-1.82v-5.14c0-4.64,0-11.1-.21-19.31,0-16.57-.29-40.14-.45-68.36l.87.87h-103.81l1.04-1.04v94.54l-.91-.91,74.9.46,21.25.25h5.67c.66-.06,1.33-.06,1.99,0-.6.06-1.19.06-1.78,0h-5.51l-21.05.25-75.48.5h-.95v-94.83l1.07-1.08h104.73v.91c0,28.46-.33,52.16-.46,68.94,0,8.08,0,14.5-.25,19.1v4.97c-.15.59-.37,1.16-.66,1.7Z"/>
  <path class="cls-5" d="M712.22,347.58h-103.86v47.56h103.86v-47.56Z"/>
  <path class="cls-2" d="M712.18,395.05v-13.01c0-8.29-.25-20.13-.42-34.55l.75.79-103.82.29c-.95.95,1.28-1.28,1.04-1.08v47.48l-.99-.99,74.23.46,21.63.29h7.95c-.62.06-1.25.06-1.87,0h-5.63l-21.42.29-74.9.46h-1.04v-47.89l1.08-1.04,103.82.29h.79v.75c0,14.62-.33,26.51-.42,35.05,0,3.89,0,7-.21,9.36-.09,1.04-.28,2.07-.58,3.07Z"/>
  <path class="cls-13" d="M589.97,238.38c-38.61,53.36-82.85,103.57-121.67,156.76l121.67-156.76Z"/>
  <path class="cls-2" d="M468.3,395.05c.26-.63.61-1.21,1.04-1.74.87-1.33,1.95-2.9,3.27-4.81,2.82-4.14,7.13-10.03,12.43-17.23,10.73-14.42,26.06-33.93,43.25-55.26,17.19-21.34,32.68-40.68,43.7-54.85l13.01-16.82,3.56-4.52c.41-.55.86-1.07,1.37-1.53,0,0-.29.66-1,1.78-.7,1.12-1.94,2.86-3.27,4.76-2.86,4.14-7.12,10.03-12.43,17.23-10.73,14.42-26.1,33.93-43.25,55.26-17.15,21.33-32.69,40.68-43.7,54.85l-13.01,16.82-3.6,4.56c-.83.99-1.28,1.49-1.37,1.49Z"/>
  <path class="cls-2" d="M593.08,395.05c-.46.37-28.75-34.51-63.22-77.84-34.47-43.33-62.14-78.71-61.56-79.17.58-.46,28.75,34.47,63.22,77.84,34.47,43.37,62.02,78.88,61.56,79.17Z"/>
  <path class="cls-2" d="M445.47,238.46c0,3.87-1.13,7.66-3.28,10.88-2.15,3.22-5.2,5.73-8.77,7.22-3.57,1.48-7.51,1.88-11.31,1.12-3.8-.75-7.29-2.62-10.02-5.35-2.74-2.74-4.6-6.23-5.35-10.02-.75-3.8-.36-7.73,1.12-11.31,1.48-3.57,4-6.63,7.22-8.77,3.22-2.15,7.01-3.29,10.88-3.28,5.17,0,10.14,2.06,13.8,5.72,3.66,3.66,5.71,8.62,5.71,13.8Z"/>
  <path class="cls-2" d="M764.67,191.07c0,3.86-1.15,7.63-3.29,10.84-2.14,3.21-5.19,5.71-8.76,7.19-3.57,1.48-7.49,1.86-11.27,1.11-3.79-.75-7.26-2.61-9.99-5.34-2.73-2.73-4.59-6.21-5.34-9.99-.75-3.78-.37-7.71,1.11-11.27,1.48-3.57,3.98-6.61,7.19-8.76,3.21-2.14,6.98-3.29,10.84-3.29,5.17,0,10.14,2.06,13.8,5.71,3.66,3.66,5.71,8.62,5.71,13.8Z"/>
  <path class="cls-12" d="M1139.63,62.22l.75,13.75c1.41-1.24,3.1-2.12,4.91-2.59,1.82-.46,3.72-.48,5.55-.06,1.83.42,3.53,1.27,4.97,2.47,1.44,1.21,2.56,2.74,3.3,4.47.73,1.73,1.04,3.61.9,5.48-.14,1.87-.72,3.68-1.69,5.29-.98,1.6-2.32,2.95-3.92,3.93-1.6.98-3.41,1.57-5.28,1.72-2.8.13-5.56-.74-7.79-2.44l.75,13.8c2.02-1.97,4.68-3.13,7.5-3.27,3.16-.16,6.24.93,8.59,3.04,2.35,2.11,3.76,5.07,3.92,8.23.17,3.15-.93,6.24-3.04,8.59-2.11,2.35-5.07,3.76-8.23,3.92-2.8.15-5.57-.72-7.79-2.44l.75,13.8c2.03-1.95,4.68-3.11,7.5-3.27,1.92-.12,3.84.24,5.6,1.02,1.75.79,3.3,1.99,4.49,3.51,1.19,1.51,2,3.29,2.35,5.19.36,1.89.24,3.84-.32,5.69-.57,1.84-1.57,3.52-2.92,4.89-1.35,1.37-3.02,2.39-4.85,2.98-1.84.59-3.79.72-5.69.39-1.9-.33-3.68-1.12-5.21-2.29l.74,13.75c1.41-1.26,3.1-2.17,4.93-2.65,1.83-.48,3.75-.51,5.6-.1,1.85.41,3.57,1.26,5.02,2.47,1.46,1.21,2.6,2.75,3.34,4.49.74,1.74,1.05,3.63.91,5.52-.14,1.89-.73,3.71-1.71,5.33-.99,1.61-2.34,2.97-3.96,3.95-1.62.98-3.44,1.57-5.33,1.7-2.8.16-5.57-.71-7.79-2.44l.7,13.8c1.41-1.26,3.1-2.17,4.93-2.65s3.75-.51,5.6-.1c1.85.41,3.57,1.26,5.02,2.47,1.45,1.21,2.59,2.75,3.34,4.49.74,1.74,1.05,3.64.91,5.52-.14,1.89-.73,3.71-1.71,5.33-.99,1.61-2.35,2.97-3.96,3.95-1.62.98-3.45,1.57-5.33,1.7-2.8.13-5.56-.73-7.79-2.44l.74,13.75c1.66-1.57,3.72-2.64,5.96-3.07,2.24-.43,4.55-.21,6.67.63,2.12.84,3.96,2.28,5.29,4.13,1.33,1.85,2.1,4.05,2.22,6.33.12,2.28-.42,4.54-1.54,6.53-1.13,1.98-2.8,3.6-4.82,4.66-2.02,1.06-4.3,1.52-6.57,1.33-2.27-.2-4.44-1.04-6.25-2.43l.46,8.58,367.17-8.82-18.6-213.85-359.26,22.37Z"/>
  <path class="cls-5" d="M1131.51,53.44l.75,13.71c1.65-1.57,3.72-2.64,5.96-3.07,2.24-.43,4.56-.21,6.68.63,2.12.84,3.95,2.28,5.28,4.13,1.33,1.85,2.1,4.05,2.22,6.33.12,2.28-.42,4.54-1.54,6.53-1.13,1.98-2.8,3.6-4.82,4.66-2.02,1.06-4.3,1.52-6.57,1.33-2.27-.19-4.44-1.04-6.25-2.43l.74,13.8c1.41-1.24,3.1-2.12,4.92-2.59,1.82-.46,3.72-.48,5.55-.06,1.83.42,3.54,1.27,4.97,2.47,1.44,1.21,2.57,2.74,3.3,4.47.73,1.73,1.04,3.61.9,5.48-.14,1.87-.72,3.68-1.69,5.29-.97,1.6-2.32,2.95-3.92,3.93-1.6.98-3.41,1.57-5.28,1.72-2.8.13-5.56-.74-7.79-2.44l.74,13.75c1.64-1.56,3.7-2.61,5.92-3.04,2.22-.42,4.52-.2,6.62.65,2.1.85,3.91,2.28,5.22,4.13,1.31,1.85,2.06,4.03,2.16,6.3.16,3.12-.92,6.18-3.01,8.51-2.09,2.33-5.01,3.74-8.13,3.92-2.82.15-5.6-.71-7.83-2.44l.75,13.8c2.03-1.95,4.69-3.11,7.5-3.27,1.93-.12,3.86.23,5.62,1.02,1.76.79,3.31,2,4.5,3.52,1.19,1.52,2,3.31,2.35,5.21.35,1.9.23,3.86-.35,5.7-.57,1.85-1.59,3.52-2.96,4.89-1.36,1.37-3.04,2.38-4.89,2.96-1.85.57-3.8.69-5.71.34-1.9-.35-3.69-1.16-5.21-2.35l.7,13.75c1.41-1.26,3.1-2.17,4.93-2.65,1.83-.48,3.75-.51,5.6-.1,1.85.41,3.57,1.26,5.02,2.47,1.46,1.21,2.6,2.75,3.34,4.49.74,1.74,1.05,3.64.91,5.52-.14,1.89-.73,3.71-1.71,5.33-.99,1.61-2.34,2.97-3.96,3.95-1.62.98-3.44,1.57-5.33,1.7-2.8.16-5.57-.71-7.79-2.44l.74,13.8c2.01-1.96,4.66-3.12,7.46-3.27,1.92-.12,3.85.22,5.61,1.01,1.76.78,3.3,1.98,4.5,3.5,1.2,1.51,2.01,3.29,2.37,5.18.36,1.89.25,3.85-.31,5.69-.56,1.84-1.56,3.53-2.91,4.9-1.35,1.37-3.02,2.4-4.86,2.99-1.83.59-3.79.73-5.69.4-1.9-.33-3.69-1.11-5.22-2.29l.45,8.53,367.21-19.89-10.64-199.68-367.13,19.64Z"/>
  <path class="cls-2" d="M1500.71,73.33c0,.58-82.15,5.47-183.49,10.9-101.33,5.43-183.56,9.32-183.6,8.74-.04-.58,82.11-5.47,183.48-10.9,101.37-5.43,183.56-9.36,183.61-8.74Z"/>
  <path class="cls-2" d="M1502.41,105.27c0,.62-82.11,5.47-183.49,10.9-101.37,5.43-183.56,9.36-183.61,8.74-.04-.62,82.11-5.47,183.49-10.9,101.37-5.43,183.56-9.32,183.61-8.74Z"/>
  <path class="cls-2" d="M1504.11,137.25c0,.58-82.11,5.47-183.44,10.9-101.33,5.43-183.6,9.32-183.6,8.74s82.06-5.47,183.48-10.9c101.42-5.43,183.52-9.32,183.56-8.74Z"/>
  <path class="cls-2" d="M1505.81,169.19c0,.62-82.11,5.51-183.44,10.9-101.33,5.39-183.56,9.36-183.61,8.74-.04-.62,82.32-5.47,183.49-10.9,101.16-5.43,183.56-9.32,183.56-8.74Z"/>
  <path class="cls-2" d="M1507.55,201.17c0,.58-82.15,5.47-183.48,10.9-101.33,5.43-183.56,9.32-183.61,8.74-.04-.58,82.11-5.47,183.48-10.9,101.38-5.43,183.57-9.32,183.61-8.74Z"/>
  <path class="cls-2" d="M1183.58,50.69l-2.07.11,10.68,199.77,2.07-.11-10.68-199.77Z"/>
  <path class="cls-2" d="M1226.5,248.69c-.62,0-3.48-44.66-6.42-99.8-2.94-55.14-4.88-99.92-4.14-99.96.75-.04,3.44,44.66,6.42,99.84,2.98,55.18,4.72,99.88,4.14,99.92Z"/>
  <path class="cls-2" d="M1161.13,252.21c-.58,0-3.48-44.7-6.42-99.84-2.95-55.14-4.85-99.92-4.14-99.96.7-.04,3.48,44.66,6.42,99.84,2.94,55.18,4.77,99.92,4.14,99.96Z"/>
  <path class="cls-2" d="M1262.5,246.78c-.62,0-3.48-44.66-6.42-99.84-2.94-55.18-5.09-99.88-4.47-99.88s3.44,44.66,6.42,99.8c2.98,55.14,4.85,99.88,4.47,99.92Z"/>
  <path class="cls-2" d="M1298.05,244.88c-.58,0-3.43-44.66-6.42-99.84-2.98-55.18-4.85-99.92-4.14-99.96.7-.04,3.48,44.66,6.42,99.84,2.95,55.18,4.77,99.92,4.14,99.96Z"/>
  <path class="cls-2" d="M1333.85,242.97c-.58,0-3.44-44.7-6.42-99.84-2.98-55.14-4.85-99.92-4.14-99.96.7-.04,3.48,44.66,6.42,99.84,2.95,55.18,4.77,99.92,4.15,99.96Z"/>
  <path class="cls-2" d="M1369.63,241.02c-.58,0-3.48-44.66-6.42-99.8-2.94-55.14-4.85-99.92-4.14-99.96.7-.04,3.48,44.66,6.42,99.84,2.94,55.18,4.72,99.92,4.14,99.92Z"/>
  <path class="cls-2" d="M1405.43,239.12c-.58,0-3.48-44.66-6.42-99.84-2.94-55.18-4.85-99.92-4.14-99.92s3.48,44.66,6.42,99.84c2.94,55.18,4.72,99.88,4.14,99.92Z"/>
  <path class="cls-2" d="M1441.22,237.22c-.58,0-3.48-44.66-6.42-99.84-2.94-55.18-4.85-99.92-4.14-99.96.7-.04,3.48,44.66,6.42,99.84,2.95,55.18,4.72,99.92,4.14,99.96Z"/>
  <path class="cls-2" d="M1477.01,235.31c-.62,0-3.48-44.7-6.42-99.84-2.94-55.14-4.89-99.92-4.14-99.96.74-.04,3.19,44.7,6.3,99.84,3.11,55.14,4.85,99.92,4.26,99.96Z"/>
  <path class="cls-8" d="M1172.61,74.4c1.1,8.15,5.3,15.57,11.72,20.71,2.86,1.92,6.14,3.11,9.57,3.45,3.43.35,6.89-.15,10.07-1.46,3.18-1.31,6-3.38,8.2-6.03,2.19-2.65,3.7-5.8,4.39-9.18.69-3.37.53-6.87-.45-10.17-.98-3.3-2.76-6.31-5.18-8.76-2.42-2.45-5.41-4.26-8.69-5.29-3.29-1.02-6.78-1.22-10.16-.57"/>
  <path class="cls-2" d="M1171.7,74.32c.2,3.26,1.36,6.39,3.33,8.99,1.97,2.6,4.67,4.57,7.75,5.64,3.09,1.08,6.42,1.21,9.58.4s6.02-2.54,8.2-4.97c2.18-2.43,3.6-5.45,4.07-8.68.47-3.23-.02-6.53-1.42-9.48-1.4-2.95-3.64-5.43-6.44-7.11-2.8-1.68-6.03-2.5-9.3-2.35-2.2.1-4.35.64-6.34,1.58-1.99.94-3.77,2.27-5.24,3.9-1.47,1.63-2.6,3.55-3.32,5.62-.72,2.07-1.03,4.27-.89,6.47Z"/>
  <path class="cls-2" d="M1162.13,68.15c.11,1.98.8,3.88,1.99,5.47,1.19,1.59,2.82,2.78,4.69,3.44,1.87.66,3.89.75,5.81.26,1.92-.49,3.65-1.54,4.97-3.01,1.32-1.47,2.18-3.31,2.47-5.27.28-1.96-.02-3.96-.88-5.75-.85-1.79-2.22-3.28-3.92-4.3-1.7-1.01-3.67-1.5-5.65-1.4-1.32.07-2.61.4-3.8.97-1.19.57-2.26,1.37-3.14,2.35-.88.98-1.56,2.13-2,3.37-.44,1.24-.63,2.56-.55,3.88Z"/>
  <path class="cls-8" d="M1171.36,77.43c0-.37,1.58,0,3.69-.87,1.33-.45,2.55-1.19,3.57-2.16,1.02-.97,1.81-2.16,2.32-3.47.44-1.37.6-2.81.44-4.23-.15-1.43-.6-2.81-1.31-4.05-1.07-1.95-2.28-2.86-2.11-3.15.17-.29,1.74.25,3.39,2.28,1.05,1.38,1.73,2.99,2.02,4.69.28,1.7.14,3.45-.4,5.09-.58,1.63-1.57,3.09-2.88,4.23-1.31,1.14-2.88,1.92-4.58,2.28-2.61.41-4.14-.41-4.14-.62Z"/>
  <path class="cls-8" d="M1179.86,61.48c.29-.54,2.82.37,5.71-.33,2.9-.7,4.81-2.57,5.3-2.2.5.37-.95,3.36-4.81,4.14-3.85.79-6.42-1.16-6.21-1.62Z"/>
  <path class="cls-8" d="M1182.43,86.83c-.58,0-1.2-3.19-3.89-5.72-2.7-2.53-5.97-2.94-5.92-3.56.04-.62.87-.58,2.32-.41,1.91.25,3.7,1.1,5.09,2.44,1.41,1.31,2.35,3.04,2.69,4.93.25,1.45,0,2.32-.29,2.32Z"/>
  <path class="cls-5" d="M1454.77,62.6c1.1,8.15,5.3,15.57,11.72,20.71,2.85,1.96,6.15,3.18,9.59,3.56,3.44.38,6.93-.11,10.14-1.4,3.21-1.3,6.05-3.37,8.26-6.03,2.21-2.66,3.74-5.83,4.43-9.22.69-3.39.53-6.9-.46-10.22-1-3.32-2.8-6.33-5.25-8.78-2.45-2.45-5.46-4.25-8.78-5.25-3.31-1-6.82-1.16-10.21-.48"/>
  <path class="cls-2" d="M1487,58.08c.19,3.2-.57,6.38-2.19,9.14-1.62,2.76-4.02,4.98-6.91,6.38-2.88,1.39-6.12,1.9-9.29,1.46-3.17-.45-6.13-1.82-8.52-3.96-2.39-2.14-4.08-4.93-4.88-8.03-.79-3.1-.64-6.37.42-9.39,1.06-3.02,3.01-5.65,5.57-7.57,2.57-1.91,5.65-3.02,8.85-3.18,4.25-.23,8.43,1.24,11.6,4.08,3.17,2.84,5.09,6.83,5.34,11.08Z"/>
  <path class="cls-2" d="M1495.62,51.2c.1,1.92-.37,3.82-1.34,5.47-.98,1.65-2.42,2.97-4.15,3.8-1.73.83-3.67,1.12-5.56.85-1.9-.27-3.67-1.1-5.1-2.38-1.43-1.28-2.44-2.96-2.92-4.82-.47-1.86-.39-3.82.25-5.62.64-1.81,1.8-3.39,3.33-4.54,1.54-1.15,3.38-1.82,5.29-1.92,2.56-.14,5.08.75,6.99,2.47,1.91,1.72,3.06,4.12,3.2,6.69Z"/>
  <path class="cls-8" d="M1487.58,61.02c0,.21-1.24,1.16-3.81,1.04-1.68-.13-3.28-.7-4.68-1.63-1.39-.94-2.52-2.21-3.28-3.71-.69-1.52-.99-3.19-.89-4.86.1-1.67.61-3.29,1.48-4.71,1.37-2.15,2.9-2.73,3.02-2.53.13.21-.87,1.24-1.66,3.23-.55,1.25-.83,2.59-.83,3.96s.28,2.71.83,3.96c.63,1.2,1.51,2.25,2.58,3.08,1.07.83,2.31,1.42,3.63,1.72,2.24.46,3.52.12,3.6.46Z"/>
  <path class="cls-8" d="M1477.93,46.56c.42.41-1.95,2.82-5.8,2.4-3.85-.41-5.59-3.4-5.06-3.69.54-.29,2.44,1.2,5.3,1.53,2.86.33,5.18-.75,5.55-.25Z"/>
  <path class="cls-8" d="M1477.93,71.21c-.58.21-1.41-3.73,1.53-7.29,2.94-3.56,7.04-3.23,6.96-2.65-.08.58-3.02,1.37-5.3,4.14-2.28,2.78-2.49,5.8-3.19,5.8Z"/>
  <path class="cls-2" d="M1458.62,180.87l-2.2.46c-1.45.29-3.6.7-6.38,1.49-5.64,1.41-13.55,4.6-23.94,8.29-5.8,2.03-11.8,3.42-17.9,4.14-7.3,1.04-14.74-.07-21.42-3.19-3.7-1.88-6.97-4.52-9.57-7.75-2.79-3.48-4.47-7.73-4.81-12.18-.58-9.32,4.14-18.27,10.11-26.14,3.02-4.09,6.39-7.92,10.07-11.43,3.73-3.85,8.03-7.09,12.76-9.61,2.63-1.29,5.62-1.67,8.49-1.08,1.46.39,2.81,1.08,3.97,2.03,1.17.95,2.11,2.14,2.78,3.48,1.41,2.67,1.95,5.71,1.57,8.7-.38,2.89-1.27,5.7-2.61,8.29-5.74,11.15-14.15,20.7-24.48,27.8-10.34,7.1-22.26,11.53-34.72,12.88-6.66.77-13.41.46-19.97-.91-6.77-1.29-13.15-4.13-18.64-8.29-5.59-4.47-9.66-10.56-11.64-17.44-1.95-6.93-2.32-14.21-1.08-21.29,2.36-14.46,10.69-27.09,19.72-38.49,2.28-2.9,4.64-5.72,7-8.58,2.21-3.24,5.32-5.76,8.95-7.25,2.08-.6,4.31-.36,6.21.66,1.75,1.04,3.18,2.55,4.14,4.35,1.77,3.61,2.22,7.73,1.28,11.64-3.32,14.65-9.41,28.53-17.94,40.89-8.19,11.92-17.3,23.19-27.26,33.68-4.85,5.18-9.49,10.44-14.59,15.29-4.89,5.03-10.87,8.87-17.48,11.23-3.39,1.02-6.97,1.24-10.47.63-3.49-.61-6.78-2.03-9.63-4.15-5.43-4.14-9.71-9.6-12.43-15.87-5.08-11.85-7.35-24.71-6.63-37.57.63-12.1,3.64-23.95,8.87-34.88,4.86-10.24,11.77-19.38,20.3-26.85,2.11-1.78,4.53-3.19,7.13-4.14,2.68-.95,5.6-.95,8.28,0,2.46,1.03,4.62,2.69,6.25,4.8,1.63,2.11,2.69,4.61,3.07,7.26.68,4.86.42,9.81-.74,14.58-.9,4.51-2.15,8.94-3.73,13.26-2.89,7.89-6.67,15.42-11.27,22.45-7.44,11.18-16.13,21.48-25.89,30.7-16.03,15.12-25.64,22.58-25.64,22.58,0,0,.5-.54,1.62-1.53l4.89-4.43c4.14-3.85,10.73-9.53,18.56-17.23,9.6-9.27,18.13-19.58,25.43-30.74,4.52-6.98,8.22-14.46,11.02-22.29,1.54-4.25,2.75-8.61,3.6-13.05,1.09-4.59,1.31-9.33.66-14-.34-2.37-1.28-4.61-2.73-6.51-1.45-1.9-3.36-3.4-5.55-4.35-2.45-.55-5-.45-7.4.27-2.4.73-4.58,2.06-6.32,3.87-8.29,7.33-15,16.26-19.72,26.27-5.16,10.66-8.16,22.23-8.82,34.05-.7,12.56,1.54,25.12,6.55,36.66,2.55,5.91,6.54,11.09,11.6,15.08,2.59,1.91,5.6,3.2,8.78,3.74,3.17.55,6.44.34,9.52-.59,6.35-2.3,12.09-6.03,16.78-10.9,4.93-4.76,9.61-10.07,14.42-15.2,9.86-10.44,18.9-21.61,27.05-33.43,8.41-12.12,14.42-25.73,17.73-40.1.86-3.41.51-7.01-.99-10.19-.67-1.51-1.84-2.75-3.31-3.5s-3.16-.98-4.77-.64c-3.21,1.38-5.94,3.67-7.87,6.59-2.36,2.82-4.72,5.63-6.96,8.29-8.99,11.31-17.07,23.66-19.35,37.49-1.19,6.78-.85,13.75.99,20.38,1.84,6.53,5.66,12.32,10.94,16.57,10.81,7.69,24.15,10.94,37.29,9.07,12.14-1.32,23.77-5.62,33.85-12.51,10.08-6.89,18.3-16.17,23.93-27.01,1.43-2.31,2.28-4.92,2.47-7.63.2-2.71-.27-5.42-1.35-7.91-.55-1.14-1.34-2.15-2.31-2.97-.97-.81-2.1-1.41-3.32-1.76-2.52-.5-5.12-.15-7.41.99-4.6,2.42-8.79,5.54-12.43,9.24-3.6,3.45-6.92,7.19-9.9,11.19-5.8,7.71-10.48,16.57-9.98,25.11.42,4.06,1.9,7.95,4.27,11.28,2.37,3.33,5.57,5.98,9.28,7.7,6.42,3.13,13.62,4.32,20.71,3.44,6.05-.73,11.99-2.12,17.73-4.14,10.4-3.52,18.44-6.59,24.11-7.87,2.88-.68,5.82-1.1,8.78-1.24Z"/>
  <path class="cls-4" d="M1735.61,819.27H152.49v92.05h1583.11v-92.05Z"/>
  <path class="cls-11" d="M152.49,787.37h-58.04v153.2h58.04v-153.2Z"/>
  <path class="cls-4" d="M152.49,906.48c-9.5,1.09-19.07,1.45-28.63,1.07-9.56.38-19.13.01-28.63-1.07,9.5-1.06,19.07-1.43,28.63-1.08,9.56-.35,19.12.01,28.63,1.08Z"/>
  <path class="cls-4" d="M152.49,889.9c-9.5,1.09-19.07,1.45-28.63,1.08-9.56.37-19.13.01-28.63-1.08,9.5-1.06,19.07-1.43,28.63-1.07,9.56-.35,19.12,0,28.63,1.07Z"/>
  <path class="cls-4" d="M152.49,873.34c-9.5,1.09-19.07,1.45-28.63,1.07-9.56.38-19.13.01-28.63-1.07,9.5-1.07,19.07-1.43,28.63-1.08,9.56-.35,19.12.01,28.63,1.08Z"/>
  <path class="cls-4" d="M152.49,856.76c-9.5,1.06-19.07,1.43-28.63,1.08-9.56.35-19.12-.01-28.63-1.08,9.5-1.06,19.07-1.43,28.63-1.07,9.56-.35,19.12,0,28.63,1.07Z"/>
  <path class="cls-4" d="M152.49,840.19c-9.5,1.06-19.07,1.42-28.63,1.07-9.56.35-19.12,0-28.63-1.07,9.5-1.07,19.07-1.43,28.63-1.08,9.56-.35,19.12.01,28.63,1.08Z"/>
  <path class="cls-4" d="M152.49,823.62c-9.5,1.06-19.07,1.43-28.63,1.07-9.56.35-19.12,0-28.63-1.07,9.5-1.09,19.07-1.45,28.63-1.08,9.56-.37,19.13,0,28.63,1.08Z"/>
  <path class="cls-4" d="M152.49,807.05c-9.5,1.06-19.07,1.43-28.63,1.08-9.56.35-19.12,0-28.63-1.08,9.5-1.09,19.07-1.45,28.63-1.07,9.56-.37,19.13-.01,28.63,1.07Z"/>
  <path class="cls-4" d="M152.49,923.8c-9.5,1.06-19.07,1.42-28.63,1.07-9.56.35-19.12,0-28.63-1.07,9.5-1.09,19.07-1.45,28.63-1.08,9.56-.37,19.13,0,28.63,1.08Z"/>
  <path class="cls-11" d="M1781.3,787.37h-58.04v153.2h58.04v-153.2Z"/>
  <path class="cls-4" d="M1781.3,906.48c-19.06,1.44-38.2,1.44-57.26,0,19.06-1.44,38.2-1.44,57.26,0Z"/>
  <path class="cls-4" d="M1781.3,889.9c-19.06,1.44-38.2,1.44-57.26,0,19.06-1.44,38.2-1.44,57.26,0Z"/>
  <path class="cls-4" d="M1781.3,873.34c-19.06,1.43-38.2,1.43-57.26,0,19.06-1.44,38.2-1.44,57.26,0Z"/>
  <path class="cls-4" d="M1781.3,856.76c-19.06,1.44-38.2,1.44-57.26,0,19.06-1.44,38.2-1.44,57.26,0Z"/>
  <path class="cls-4" d="M1781.3,840.19c-19.06,1.44-38.2,1.44-57.26,0,19.06-1.43,38.2-1.43,57.26,0Z"/>
  <path class="cls-4" d="M1781.3,823.62c-19.06,1.44-38.2,1.44-57.26,0,19.06-1.44,38.2-1.44,57.26,0Z"/>
  <path class="cls-4" d="M1781.3,807.05c-19.06,1.44-38.2,1.44-57.26,0,19.06-1.44,38.2-1.44,57.26,0Z"/>
  <path class="cls-4" d="M1781.3,923.8c-19.06,1.43-38.2,1.43-57.26,0,19.06-1.44,38.2-1.44,57.26,0Z"/>
  <path class="cls-2" d="M1595.46,725.19H280.26v35.96h1315.2v-35.96Z"/>
  <path class="cls-13" d="M1460.15,325.71H415.56v636.04h1044.59V325.71Z"/>
  <path class="cls-11" d="M1460.15,961.74c0-6.79-.29-246.7-.83-636.04l.83.83-1044.51.25,1.08-1.08v636.04l-1.04-.99,1044.6.99-1044.72.87h-.99V324.63h1.16l1044.51.25h.87v.83c-.63,389.33-.91,629.24-.96,636.04Z"/>
  <path class="cls-11" d="M253.12,833.23v-69.02h133.27v34.51h404.09c4.55,0,9.05.9,13.25,2.65,4.2,1.74,8.02,4.3,11.23,7.52,3.21,3.22,5.76,7.04,7.49,11.25,1.74,4.2,2.63,8.71,2.62,13.26v87h76.35v-87c0-7.16,2.84-14.02,7.9-19.09,5.06-5.06,11.91-7.91,19.07-7.92,3.55,0,7.05.71,10.32,2.07,3.27,1.36,6.24,3.35,8.74,5.86,2.5,2.51,4.48,5.49,5.83,8.76,1.35,3.27,2.05,6.78,2.04,10.33v91.14h79.33v-86.75c0-5.71,1.12-11.37,3.3-16.65,2.18-5.28,5.38-10.08,9.42-14.12,4.03-4.04,8.83-7.25,14.1-9.44,5.28-2.19,10.93-3.32,16.64-3.33h392.24v-39.03h149.72v217.5H252.96l.17-139.49Z"/>
  <path class="cls-6" d="M186.88,1656.77l1.74,100.79h1496.2l2.53-100.79-64.79-426.42-2.28-332.78-1368.93-4.06v352.13l-64.46,411.13Z"/>
  <g class="cls-16">
    <path class="cls-1" d="M313.48,1259.77l-43.5,334.57h1311.8l-38.73-334.57H313.48Z"/>
  </g>
  <path class="cls-10" d="M1630.42,1091.74H234.27c-9.2,0-16.65,7.45-16.65,16.65v1.66c0,9.2,7.46,16.65,16.65,16.65h1396.15c9.2,0,16.66-7.45,16.66-16.65v-1.66c0-9.2-7.46-16.65-16.66-16.65Z"/>
  <path class="cls-2" d="M1211.96,1371.42h-14.87v222.92h14.87v-222.92Z"/>
  <path class="cls-11" d="M1245.93,1373.95c-12.61,7.05-26.82,10.75-41.26,10.75s-28.65-3.7-41.26-10.75v-32.77h82.52v32.77Z"/>
  <path class="cls-4" d="M1246.89,1343.37c0,7.21-18.98,13.09-42.38,13.09s-42.38-5.88-42.38-13.09,18.97-13.05,42.38-13.05,42.38,5.84,42.38,13.05Z"/>
  <path class="cls-2" d="M389.83,1302.85h-14.87v290.37h14.87v-290.37Z"/>
  <path class="cls-11" d="M423.68,1305.38c-12.61,7.05-26.81,10.75-41.26,10.75s-28.65-3.7-41.26-10.75v-32.77h82.52v32.77Z"/>
  <path class="cls-4" d="M424.8,1274.81c0,7.21-18.97,13.09-42.38,13.09s-42.38-5.88-42.38-13.09,18.97-13.05,42.38-13.05,42.38,5.84,42.38,13.05Z"/>
  <path class="cls-2" d="M445.51,1373.37h-14.87v222.92h14.87v-222.92Z"/>
  <path class="cls-11" d="M479.52,1375.94c-12.61,7.05-26.82,10.75-41.26,10.75s-28.65-3.7-41.26-10.75v-32.77h82.52v32.77Z"/>
  <path class="cls-4" d="M438.1,1358.41c23.41,0,42.38-5.84,42.38-13.05s-18.97-13.05-42.38-13.05-42.38,5.84-42.38,13.05,18.97,13.05,42.38,13.05Z"/>
  <path class="cls-11" d="M423.68,1441.39c-12.62,7.03-26.82,10.72-41.26,10.72s-28.65-3.69-41.26-10.72v-32.77h82.52v32.77Z"/>
  <path class="cls-4" d="M424.8,1410.82c0,7.21-18.97,13.05-42.38,13.05s-42.38-5.84-42.38-13.05,18.97-13.21,42.38-13.21,42.38,5.96,42.38,13.21Z"/>
  <path class="cls-2" d="M551.73,1373.37h-14.87v222.92h14.87v-222.92Z"/>
  <path class="cls-11" d="M585.54,1375.94c-12.6,7.05-26.8,10.75-41.24,10.75s-28.64-3.7-41.24-10.75v-32.77h82.48v32.77Z"/>
  <path class="cls-4" d="M544.27,1358.41c23.41,0,42.38-5.84,42.38-13.05s-18.98-13.05-42.38-13.05-42.38,5.84-42.38,13.05,18.97,13.05,42.38,13.05Z"/>
  <path class="cls-2" d="M662.97,1373.37h-14.87v222.92h14.87v-222.92Z"/>
  <path class="cls-11" d="M696.77,1375.94c-12.61,7.05-26.82,10.75-41.26,10.75s-28.65-3.7-41.26-10.75v-32.77h82.52v32.77Z"/>
  <path class="cls-4" d="M655.51,1358.41c23.41,0,42.38-5.84,42.38-13.05s-18.98-13.05-42.38-13.05-42.38,5.84-42.38,13.05,18.97,13.05,42.38,13.05Z"/>
  <path class="cls-2" d="M772.58,1373.37h-14.87v222.92h14.87v-222.92Z"/>
  <path class="cls-11" d="M806.39,1375.94c-12.6,7.05-26.8,10.75-41.24,10.75s-28.64-3.7-41.24-10.75v-32.77h82.48v32.77Z"/>
  <path class="cls-4" d="M765.16,1358.41c23.41,0,42.38-5.84,42.38-13.05s-18.98-13.05-42.38-13.05-42.38,5.84-42.38,13.05,18.98,13.05,42.38,13.05Z"/>
  <path class="cls-2" d="M880.96,1373.37h-14.87v222.92h14.87v-222.92Z"/>
  <path class="cls-11" d="M914.76,1375.94c-12.6,7.05-26.8,10.75-41.24,10.75s-28.64-3.7-41.24-10.75v-32.77h82.48v32.77Z"/>
  <path class="cls-4" d="M873.5,1358.41c23.4,0,42.38-5.84,42.38-13.05s-18.98-13.05-42.38-13.05-42.38,5.84-42.38,13.05,18.98,13.05,42.38,13.05Z"/>
  <path class="cls-2" d="M991.07,1373.37h-14.87v222.92h14.87v-222.92Z"/>
  <path class="cls-11" d="M1024.88,1375.94c-12.6,7.05-26.8,10.75-41.24,10.75s-28.64-3.7-41.24-10.75v-32.77h82.48v32.77Z"/>
  <path class="cls-4" d="M983.66,1358.41c23.41,0,42.38-5.84,42.38-13.05s-18.97-13.05-42.38-13.05-42.38,5.84-42.38,13.05,18.98,13.05,42.38,13.05Z"/>
  <path class="cls-2" d="M1101.81,1373.37h-14.87v222.92h14.87v-222.92Z"/>
  <path class="cls-11" d="M1135.65,1375.94c-12.61,7.05-26.82,10.75-41.26,10.75s-28.65-3.7-41.26-10.75v-32.77h82.52v32.77Z"/>
  <path class="cls-4" d="M1094.39,1358.41c23.41,0,42.38-5.84,42.38-13.05s-18.97-13.05-42.38-13.05-42.38,5.84-42.38,13.05,18.98,13.05,42.38,13.05Z"/>
  <path class="cls-2" d="M1323.32,1373.37h-14.87v222.92h14.87v-222.92Z"/>
  <path class="cls-11" d="M1357.12,1375.94c-12.6,7.05-26.8,10.75-41.24,10.75s-28.64-3.7-41.24-10.75v-32.77h82.48v32.77Z"/>
  <path class="cls-4" d="M1315.87,1358.41c23.4,0,42.38-5.84,42.38-13.05s-18.98-13.05-42.38-13.05-42.38,5.84-42.38,13.05,18.98,13.05,42.38,13.05Z"/>
  <path class="cls-2" d="M1435.3,1373.37h-14.87v222.92h14.87v-222.92Z"/>
  <path class="cls-11" d="M1469.1,1375.94c-12.6,7.05-26.8,10.75-41.24,10.75s-28.64-3.7-41.24-10.75v-32.77h82.48v32.77Z"/>
  <path class="cls-4" d="M1427.84,1358.41c23.41,0,42.38-5.84,42.38-13.05s-18.97-13.05-42.38-13.05-42.38,5.84-42.38,13.05,18.98,13.05,42.38,13.05Z"/>
  <path class="cls-2" d="M499.61,1302.85h-14.87v290.37h14.87v-290.37Z"/>
  <path class="cls-11" d="M533.38,1305.38c-12.6,7.05-26.8,10.75-41.24,10.75s-28.64-3.7-41.24-10.75v-32.77h82.48v32.77Z"/>
  <path class="cls-4" d="M534.58,1274.81c0,7.21-18.98,13.09-42.38,13.09s-42.38-5.88-42.38-13.09,18.97-13.05,42.38-13.05,42.38,5.84,42.38,13.05Z"/>
  <path class="cls-2" d="M609.4,1302.85h-14.87v290.37h14.87v-290.37Z"/>
  <path class="cls-11" d="M643.2,1305.38c-12.6,7.05-26.8,10.75-41.24,10.75s-28.64-3.7-41.24-10.75v-32.77h82.48v32.77Z"/>
  <path class="cls-4" d="M644.32,1274.81c0,7.21-18.97,13.09-42.38,13.09s-42.38-5.88-42.38-13.09,18.98-13.05,42.38-13.05,42.38,5.84,42.38,13.05Z"/>
  <path class="cls-2" d="M719.18,1302.85h-14.87v290.37h14.87v-290.37Z"/>
  <path class="cls-11" d="M752.95,1305.38c-12.61,7.05-26.8,10.75-41.24,10.75s-28.64-3.7-41.24-10.75v-32.77h82.48v32.77Z"/>
  <path class="cls-4" d="M754.11,1274.81c0,7.21-18.98,13.09-42.38,13.09s-42.38-5.88-42.38-13.09,18.97-13.05,42.38-13.05,42.38,5.84,42.38,13.05Z"/>
  <path class="cls-2" d="M828.97,1302.85h-14.87v290.37h14.87v-290.37Z"/>
  <path class="cls-11" d="M862.77,1305.38c-12.61,7.05-26.82,10.75-41.26,10.75s-28.65-3.7-41.26-10.75v-32.77h82.52v32.77Z"/>
  <path class="cls-4" d="M863.89,1274.81c0,7.21-18.98,13.09-42.38,13.09s-42.38-5.88-42.38-13.09,18.97-13.05,42.38-13.05,42.38,5.84,42.38,13.05Z"/>
  <path class="cls-2" d="M938.71,1302.85h-14.87v290.37h14.87v-290.37Z"/>
  <path class="cls-11" d="M972.51,1305.38c-12.61,7.05-26.82,10.75-41.26,10.75s-28.65-3.7-41.26-10.75v-32.77h82.52v32.77Z"/>
  <path class="cls-4" d="M973.67,1274.81c0,7.21-18.98,13.09-42.38,13.09s-42.38-5.88-42.38-13.09,18.97-13.05,42.38-13.05,42.38,5.84,42.38,13.05Z"/>
  <path class="cls-2" d="M1048.49,1302.85h-14.87v290.37h14.87v-290.37Z"/>
  <path class="cls-11" d="M1082.29,1305.38c-12.6,7.05-26.8,10.75-41.24,10.75s-28.64-3.7-41.24-10.75v-32.77h82.48v32.77Z"/>
  <path class="cls-4" d="M1083.46,1274.81c0,7.21-18.98,13.09-42.38,13.09s-42.38-5.88-42.38-13.09,18.97-13.05,42.38-13.05,42.38,5.84,42.38,13.05Z"/>
  <path class="cls-2" d="M1158.27,1302.85h-14.87v290.37h14.87v-290.37Z"/>
  <path class="cls-11" d="M1192.08,1305.38c-12.6,7.05-26.8,10.75-41.24,10.75s-28.64-3.7-41.24-10.75v-32.77h82.48v32.77Z"/>
  <path class="cls-4" d="M1193.2,1274.81c0,7.21-18.98,13.09-42.38,13.09s-42.38-5.88-42.38-13.09,18.97-13.05,42.38-13.05,42.38,5.84,42.38,13.05Z"/>
  <path class="cls-2" d="M1268.06,1302.85h-14.87v290.37h14.87v-290.37Z"/>
  <path class="cls-11" d="M1301.86,1305.38c-12.6,7.05-26.8,10.75-41.24,10.75s-28.64-3.7-41.24-10.75v-32.77h82.48v32.77Z"/>
  <path class="cls-4" d="M1302.98,1274.81c0,7.21-18.98,13.09-42.38,13.09s-42.38-5.88-42.38-13.09,18.97-13.05,42.38-13.05,42.38,5.84,42.38,13.05Z"/>
  <path class="cls-2" d="M1377.84,1302.85h-14.87v290.37h14.87v-290.37Z"/>
  <path class="cls-11" d="M1411.65,1305.38c-12.61,7.05-26.82,10.75-41.26,10.75s-28.65-3.7-41.26-10.75v-32.77h82.52v32.77Z"/>
  <path class="cls-4" d="M1412.76,1274.81c0,7.21-18.98,13.09-42.38,13.09s-42.38-5.88-42.38-13.09,18.97-13.05,42.38-13.05,42.38,5.84,42.38,13.05Z"/>
  <path class="cls-2" d="M1487.58,1302.85h-14.87v290.37h14.87v-290.37Z"/>
  <path class="cls-11" d="M1521.43,1305.38c-12.61,7.05-26.82,10.75-41.26,10.75s-28.65-3.7-41.26-10.75v-32.77h82.53v32.77Z"/>
  <path class="cls-4" d="M1522.54,1274.81c0,7.21-18.97,13.09-42.38,13.09s-42.38-5.88-42.38-13.09,18.98-13.05,42.38-13.05,42.38,5.84,42.38,13.05Z"/>
  <path class="cls-11" d="M533.92,1504.9c-12.61,7.05-26.82,10.75-41.26,10.75s-28.65-3.7-41.26-10.75v-32.73h82.52v32.73Z"/>
  <path class="cls-4" d="M535.04,1474.32c0,7.21-18.98,13.05-42.38,13.05s-42.38-5.84-42.38-13.05,18.97-13.09,42.38-13.09,42.38,5.89,42.38,13.09Z"/>
  <path class="cls-11" d="M478.2,1561.41c-12.6,7.05-26.8,10.75-41.24,10.75s-28.64-3.7-41.24-10.75v-32.77h82.48v32.77Z"/>
  <path class="cls-4" d="M436.98,1543.88c23.41,0,42.38-5.84,42.38-13.05s-18.97-13.05-42.38-13.05-42.38,5.84-42.38,13.05,18.97,13.05,42.38,13.05Z"/>
  <path class="cls-11" d="M585.87,1560.37c-12.62,7.03-26.82,10.72-41.26,10.72s-28.64-3.69-41.26-10.72v-32.81h82.52v32.81Z"/>
  <path class="cls-4" d="M586.99,1529.75c0,7.21-18.98,13.09-42.38,13.09s-42.38-5.88-42.38-13.09,18.97-13.05,42.38-13.05,42.38,5.84,42.38,13.05Z"/>
  <path class="cls-11" d="M693.5,1507.01c-12.6,7.05-26.8,10.75-41.24,10.75s-28.64-3.7-41.24-10.75v-32.77h82.48v32.77Z"/>
  <path class="cls-4" d="M694.66,1476.32c0,7.21-18.97,13.05-42.38,13.05s-42.38-5.84-42.38-13.05,18.98-13.05,42.38-13.05,42.38,5.97,42.38,13.05Z"/>
  <path class="cls-11" d="M806.39,1505.97c-12.61,7.03-26.81,10.72-41.24,10.72s-28.63-3.69-41.24-10.72v-32.77h82.48v32.77Z"/>
  <path class="cls-4" d="M807.55,1475.36c0,7.25-18.97,13.09-42.38,13.09s-42.38-5.84-42.38-13.09,18.97-13.05,42.38-13.05,42.38,5.71,42.38,13.05Z"/>
  <path class="cls-11" d="M914.76,1505.97c-12.61,7.03-26.81,10.72-41.24,10.72s-28.63-3.69-41.24-10.72v-32.77h82.48v32.77Z"/>
  <path class="cls-4" d="M915.88,1475.36c0,7.25-18.97,13.09-42.38,13.09s-42.38-5.84-42.38-13.09,18.97-13.05,42.38-13.05,42.38,5.71,42.38,13.05Z"/>
  <path class="cls-11" d="M1026.74,1505.97c-12.61,7.03-26.8,10.72-41.24,10.72s-28.63-3.69-41.24-10.72v-32.77h82.48v32.77Z"/>
  <path class="cls-4" d="M1027.86,1475.36c0,7.25-18.97,13.09-42.38,13.09s-42.38-5.84-42.38-13.09,18.98-13.05,42.38-13.05,42.38,5.71,42.38,13.05Z"/>
  <path class="cls-11" d="M1136.27,1561.41c-12.61,7.05-26.81,10.75-41.26,10.75s-28.65-3.7-41.26-10.75v-32.77h82.52v32.77Z"/>
  <path class="cls-4" d="M1095.01,1543.88c23.41,0,42.38-5.84,42.38-13.05s-18.97-13.05-42.38-13.05-42.38,5.84-42.38,13.05,18.98,13.05,42.38,13.05Z"/>
  <path class="cls-11" d="M1245.93,1505.97c-12.62,7.03-26.82,10.72-41.26,10.72s-28.64-3.69-41.26-10.72v-32.77h82.52v32.77Z"/>
  <path class="cls-4" d="M1246.89,1475.36c0,7.25-18.98,13.09-42.38,13.09s-42.38-5.84-42.38-13.09,18.97-13.05,42.38-13.05,42.38,5.71,42.38,13.05Z"/>
  <path class="cls-11" d="M1357.12,1547.28c-12.6,7.05-26.8,10.75-41.24,10.75s-28.64-3.7-41.24-10.75v-32.77h82.48v32.77Z"/>
  <path class="cls-4" d="M1358.24,1516.71c0,7.21-18.97,13.05-42.38,13.05s-42.38-5.84-42.38-13.05,18.97-13.09,42.38-13.09,42.38,5.84,42.38,13.09Z"/>
  <path class="cls-11" d="M1476.56,1574.49c-12.62,7.03-26.82,10.72-41.26,10.72s-28.65-3.69-41.26-10.72v-32.81h82.52v32.81Z"/>
  <path class="cls-4" d="M1477.68,1543.88c0,7.21-18.97,13.09-42.38,13.09s-42.38-5.88-42.38-13.09,18.98-13.05,42.38-13.05,42.38,5.84,42.38,13.05Z"/>
  <path class="cls-11" d="M644.16,1441.39c-12.61,7.03-26.81,10.72-41.24,10.72s-28.63-3.69-41.24-10.72v-32.77h82.48v32.77Z"/>
  <path class="cls-4" d="M645.24,1410.82c0,7.21-18.98,13.05-42.38,13.05s-42.38-5.84-42.38-13.05,18.97-13.09,42.38-13.09,42.38,5.84,42.38,13.09Z"/>
  <path class="cls-11" d="M754.39,1441.39c-12.61,7.03-26.8,10.72-41.24,10.72s-28.63-3.69-41.24-10.72v-32.77h82.48v32.77Z"/>
  <path class="cls-4" d="M755.51,1410.82c0,7.21-18.97,13.05-42.38,13.05s-42.38-5.84-42.38-13.05,18.98-13.09,42.38-13.09,42.38,5.84,42.38,13.09Z"/>
  <path class="cls-11" d="M862.77,1441.39c-12.62,7.03-26.82,10.72-41.26,10.72s-28.64-3.69-41.26-10.72v-32.77h82.52v32.77Z"/>
  <path class="cls-4" d="M863.89,1410.82c0,7.21-18.98,13.05-42.38,13.05s-42.38-5.84-42.38-13.05,18.97-13.21,42.38-13.21,42.38,5.96,42.38,13.21Z"/>
  <path class="cls-11" d="M968.57,1441.39c-12.61,7.03-26.82,10.72-41.26,10.72s-28.65-3.69-41.26-10.72v-32.77h82.52v32.77Z"/>
  <path class="cls-4" d="M969.69,1410.82c0,7.21-18.97,13.05-42.38,13.05s-42.38-5.84-42.38-13.05,18.98-13.09,42.38-13.09,42.38,5.84,42.38,13.09Z"/>
  <path class="cls-11" d="M1078.69,1441.39c-12.62,7.03-26.82,10.72-41.26,10.72s-28.65-3.69-41.26-10.72v-32.77h82.52v32.77Z"/>
  <path class="cls-4" d="M1079.81,1410.82c0,7.21-18.97,13.05-42.38,13.05s-42.38-5.84-42.38-13.05,18.89-13.21,42.38-13.21,42.38,5.96,42.38,13.21Z"/>
  <path class="cls-11" d="M1190.26,1441.39c-12.61,7.03-26.81,10.72-41.24,10.72s-28.63-3.69-41.24-10.72v-32.77h82.48v32.77Z"/>
  <path class="cls-4" d="M1191.41,1410.82c0,7.21-18.97,13.05-42.38,13.05s-42.38-5.84-42.38-13.05,19.14-13.21,42.38-13.21,42.38,5.96,42.38,13.21Z"/>
  <path class="cls-11" d="M1302.73,1441.39c-12.61,7.03-26.81,10.72-41.24,10.72s-28.63-3.69-41.24-10.72v-32.77h82.48v32.77Z"/>
  <path class="cls-4" d="M1303.93,1410.82c0,7.21-18.98,13.05-42.38,13.05s-42.38-5.84-42.38-13.05,18.97-13.09,42.38-13.09,42.38,5.84,42.38,13.09Z"/>
  <path class="cls-11" d="M1411.65,1479.84c-12.62,7.03-26.82,10.72-41.26,10.72s-28.65-3.69-41.26-10.72v-32.77h82.52v32.77Z"/>
  <path class="cls-4" d="M1412.76,1449.26c0,7.21-18.98,13.05-42.38,13.05s-42.38-5.84-42.38-13.05,18.97-13.09,42.38-13.09,42.38,5.84,42.38,13.09Z"/>
  <path class="cls-11" d="M1521.59,1441.39c-12.61,7.03-26.82,10.72-41.26,10.72s-28.65-3.69-41.26-10.72v-32.77h82.52v32.77Z"/>
  <path class="cls-4" d="M1522.71,1410.82c0,7.21-18.97,13.05-42.38,13.05s-42.38-5.84-42.38-13.05,18.98-13.09,42.38-13.09,42.38,5.84,42.38,13.09Z"/>
  <path class="cls-13" d="M1040.83,987.93h-204.03v29.91h204.03v-29.91Z"/>
  <g class="cls-16">
    <path class="cls-1" d="M250.8,1126.71l1371.29,36.66-.24-36.66H250.8Z"/>
  </g>
  <path class="cls-11" d="M1682,1656.77c0,.58-333.54,1.08-744.87,1.08s-744.91-.5-744.91-1.08,333.45-1.07,744.91-1.07,744.87.5,744.87,1.07Z"/>
  <path class="cls-11" d="M313.48,1259.77s0,2.07-.66,6.05c-.66,3.98-1.2,9.94-2.15,17.65-1.99,15.5-4.85,38.24-8.53,67.32-7.46,58.25-18.23,141.89-31.28,243.63l-.87-.95h487.19l583.09.29,176.73.37h64.63-64.63l-176.73.33-583.17.95-487.19-.21h-.99v-.99c13.38-101.7,24.4-185.31,32.06-243.56,3.85-29,6.88-51.78,8.95-67.27,1.08-7.67,1.86-13.59,2.44-17.61.58-4.02,1.12-6.01,1.12-6.01Z"/>
  <path class="cls-11" d="M1082.42,516.85c0,.62-65.33,1.08-145.95,1.08s-145.99-.46-145.99-1.08,65.37-1.07,145.99-1.07,145.95.49,145.95,1.07Z"/>
  <path class="cls-11" d="M1354.8,615.16c0,.58-186.67,1.08-416.92,1.08s-416.93-.5-416.93-1.08,186.63-1.07,416.93-1.07,416.92.54,416.92,1.07Z"/>
  <path class="cls-11" d="M1354.8,675.23c0,.62-186.67,1.08-416.92,1.08s-416.93-.46-416.93-1.08,186.63-1.07,416.93-1.07,416.92.49,416.92,1.07Z"/>
  <path class="cls-11" d="M1354.8,735.34c0,.62-186.67,1.07-416.92,1.07s-416.93-.45-416.93-1.07,186.63-1.08,416.93-1.08,416.92.5,416.92,1.08Z"/>
  <path class="cls-11" d="M1620.23,1225.3c0,.58-306.15,1.08-683.55,1.08s-683.8-.5-683.8-1.08,306.07-1.07,683.8-1.07,683.55.45,683.55,1.07Z"/>
  <path class="cls-11" d="M984.32,784.47c0,.58-42.54,1.08-94.99,1.08s-94.95-.42-94.95-1.08,42.54-1.07,94.99-1.07,94.95.58,94.95,1.07Z"/>
  <path class="cls-7" d="M1406.84,222.26c-3.18.34-6.12,1.86-8.22,4.26-2.11,2.4-3.24,5.51-3.17,8.7l7.62,172.59c.33,20.38,30.12,31.82,51.95,31.32,21.99-.5,22.74-11.31,22.99-30.7.45-32.4.42-44.58.45-44.37.04.21,27.84-4.68,33.52-41.06,2.81-18.06,1.86-47.68.29-71.88-1.45-21.83-15.95-48.51-37.66-46.19l-67.77,17.32Z"/>
  <path class="cls-11" d="M1503.28,274.67c0,1.21-.45,2.38-1.29,3.25-.84.87-1.98,1.39-3.18,1.43-.59.06-1.19,0-1.75-.19s-1.09-.47-1.53-.86c-.45-.39-.82-.86-1.08-1.39-.26-.53-.41-1.11-.44-1.7-.01-1.21.44-2.38,1.28-3.27s1.98-1.4,3.19-1.46c.59-.04,1.18.03,1.75.21.56.19,1.08.48,1.53.87.44.39.81.86,1.07,1.4.26.53.42,1.11.45,1.7Z"/>
  <path class="cls-11" d="M1505.85,264.18c-.58.62-4.14-1.99-9.11-1.99s-8.7,2.57-9.24,1.95c-.54-.62.33-1.37,1.95-2.53,2.16-1.51,4.74-2.32,7.38-2.32,2.6,0,5.13.81,7.25,2.32,1.57,1.2,2.07,2.28,1.78,2.57Z"/>
  <path class="cls-11" d="M1456.68,275.91c.02,1.22-.43,2.39-1.27,3.28-.84.88-1.99,1.4-3.2,1.45-.59.04-1.18-.03-1.74-.21s-1.08-.48-1.52-.86c-.45-.38-.82-.85-1.08-1.38-.26-.53-.42-1.1-.46-1.69-.02-1.22.43-2.39,1.27-3.28.84-.88,1.99-1.4,3.2-1.45.59-.05,1.18.02,1.74.2.56.18,1.08.47,1.53.86.44.39.81.86,1.07,1.39.26.53.42,1.11.45,1.7Z"/>
  <path class="cls-11" d="M1456.59,267.58c-.58.62-4.14-1.99-9.15-1.99s-8.66,2.57-9.2,1.95c-.54-.62.29-1.37,1.91-2.53,2.16-1.51,4.74-2.32,7.38-2.32,2.62,0,5.17.83,7.29,2.36,1.53,1.16,2.07,2.24,1.78,2.53Z"/>
  <path class="cls-11" d="M1474.86,304.74c2.69-.85,5.48-1.35,8.29-1.49,1.28,0,2.53-.41,2.73-1.28.1-1.32-.21-2.63-.87-3.77l-3.81-9.78c-3.53-8.25-6.4-16.77-8.58-25.48,4.2,7.99,7.75,16.3,10.61,24.86l3.64,9.82c.82,1.54,1.05,3.32.66,5.01-.19.45-.47.85-.83,1.18-.36.33-.79.58-1.25.72-.72.19-1.46.29-2.2.29-2.79.34-5.62.31-8.41-.08Z"/>
  <path class="cls-3" d="M1478.47,364.07c-17.11.29-33.95-4.17-48.67-12.88,0,0,12.43,24.86,48.67,21.46v-8.58Z"/>
  <path class="cls-11" d="M1458.83,258.8c-.5,1.37-5.51.75-11.39,1.45-5.89.7-10.65,2.32-11.43,1.12-.79-1.2.5-1.86,2.4-3.19,2.49-1.62,5.33-2.64,8.28-2.98,3.01-.38,6.07-.03,8.9,1.04,2.36.87,3.44,2.11,3.23,2.57Z"/>
  <path class="cls-11" d="M1503.99,252.05c-.87,1.12-4.35,0-8.49,0s-7.66.79-8.49-.41c-.33-.58.21-1.74,1.74-2.82,2.06-1.32,4.47-1.97,6.92-1.86,2.43.04,4.8.83,6.76,2.28,1.49,1.08,1.94,2.24,1.57,2.82Z"/>
  <path class="cls-3" d="M1477.18,320.48c-.74,2.18-1.79,4.24-3.11,6.13-.68.93-1.54,1.71-2.54,2.29-1,.58-2.11.94-3.25,1.07-1.23-.01-2.43-.33-3.5-.92s-1.97-1.44-2.63-2.47c-1.32-2.09-1.93-4.54-1.74-7,0-2.2,1.12-4.85,3.32-5.1.92-.06,1.84.14,2.65.58l11.56,4.68"/>
  <path class="cls-11" d="M1472.58,329.81c-2.09.15-4.18-.1-6.17-.75-2-.77-3.65-2.24-4.64-4.14-.52-1.2-.79-2.49-.79-3.79s.27-2.6.79-3.79c.26-.61.59-1.18,1-1.7.45-.5.37-.46.87-.41.64.22,1.26.47,1.87.75l1.9.79,6.58,2.57c2,.94,4.12,1.58,6.3,1.91-1.71-1.4-3.64-2.51-5.71-3.27l-6.42-2.98-1.86-.83c-.69-.33-1.4-.62-2.11-.87-.56-.19-1.17-.19-1.74,0-.5.23-.93.59-1.24,1.04-.56.66-1,1.4-1.33,2.2-.62,1.47-.91,3.06-.85,4.66.06,1.6.48,3.16,1.22,4.58,1.25,2.28,3.35,3.98,5.84,4.72,1.64.47,3.38.47,5.02,0,.99-.12,1.53-.54,1.49-.66Z"/>
  <path class="cls-7" d="M1606.02,1075.92l-1.04,149.26-67.03-4.81-15-145.37,83.07.91Z"/>
  <path class="cls-4" d="M1535.59,1191.09s47.19,33.47,70.05,4.47l5.97,14.04,26.8,100.09c.92,3.14.65,6.5-.73,9.46-1.39,2.96-3.81,5.31-6.8,6.61-2.3.91-4.82,1.15-7.24.68-2.43-.47-4.67-1.63-6.47-3.33-19.43-18.43-90.48-86.71-89.77-95.99l.25-24.56c.02-2.49.79-4.91,2.21-6.96,1.42-2.05,3.42-3.62,5.74-4.51Z"/>
  <g class="cls-15">
    <path class="cls-13" d="M1628.56,1326.43l-101.21-107.71v5.38c-.54,5.8,2.03,8.29,4.77,11.81,8.28,11.06,30.86,35.75,84.59,87.33,1.54,1.48,3.42,2.56,5.49,3.15,2.06.58,4.23.64,6.32.17l.04-.12Z"/>
  </g>
  <g class="cls-15">
    <path class="cls-13" d="M1542.18,1202.6c1.55,1.14,2.64,2.81,3.04,4.7.41,1.89.1,3.86-.85,5.53-1.08,1.6-2.74,2.73-4.62,3.16-1.89.42-3.86.11-5.53-.87-1.65-1.21-2.8-2.98-3.22-4.99-.42-2-.08-4.09.95-5.86,1.3-1.56,3.15-2.55,5.16-2.77,2.02-.22,4.04.34,5.65,1.57"/>
  </g>
  <path class="cls-11" d="M1599.4,1271.21c.7.33,3.52-6.3,11.06-9.9,7.54-3.6,14.42-2.07,14.59-2.86.17-.79-1.49-1.28-4.47-1.69-3.91-.42-7.84.3-11.35,2.07-3.53,1.71-6.48,4.42-8.49,7.79-1.45,2.57-1.66,4.47-1.32,4.6Z"/>
  <path class="cls-11" d="M1608.47,1288.11c.62.58,4.68-3.57,11.23-5.47,6.55-1.9,12.14-.87,12.43-1.66.29-.79-5.76-3.32-13.17-1-7.41,2.32-11.15,7.79-10.48,8.12Z"/>
  <path class="cls-11" d="M1582.49,1249.54c.62.58,6.79-5.8,16.57-9.65,9.77-3.85,18.72-3.6,18.77-4.47.04-.87-9.24-2.4-19.8,1.9-10.57,4.31-16.12,11.85-15.54,12.22Z"/>
  <path class="cls-11" d="M1580.25,1219.05c.33.79,7.33-2.19,16.57-2.53,9.24-.33,16.32,1.78,16.57,1,.25-.79-6.92-4.15-16.57-3.81-9.65.33-16.99,4.77-16.57,5.34Z"/>
  <path class="cls-11" d="M1601.88,1216.23c.12-1.61-.12-3.22-.71-4.72-1.24-4.23-3.3-8.19-6.05-11.64-1.8-2.71-4.45-4.73-7.54-5.76-1.04-.25-2.13-.18-3.12.21-1,.4-1.84,1.08-2.43,1.98-1.03,1.82-1.35,3.96-.91,6.01,1.06,4.13,3.52,7.76,6.97,10.27,3.45,2.51,7.67,3.72,11.92,3.44,4.2-.36,8.21-1.95,11.5-4.59,3.29-2.63,5.73-6.18,7.01-10.2.32-1.01.42-2.08.28-3.14-.14-1.05-.5-2.06-1.06-2.96-.66-.85-1.58-1.47-2.61-1.77-1.03-.31-2.13-.28-3.15.07-2.94,1.24-5.5,3.24-7.41,5.8-2.88,3.33-5.14,7.15-6.67,11.27-.7,1.47-1.09,3.06-1.12,4.68,2.34-5.3,5.46-10.23,9.24-14.62,1.76-2.14,4.02-3.82,6.58-4.89.55-.21,1.16-.24,1.73-.08.57.17,1.07.51,1.42.99.34.63.54,1.32.59,2.04.05.72-.05,1.43-.3,2.11-1.21,3.43-3.38,6.45-6.25,8.69-2.87,2.24-6.33,3.6-9.95,3.94-3.59.21-7.16-.8-10.11-2.87-2.95-2.07-5.11-5.07-6.13-8.53-.32-1.4-.14-2.86.5-4.14.3-.51.76-.91,1.3-1.14.55-.23,1.15-.28,1.72-.15,2.58.9,4.84,2.56,6.46,4.77,3.61,4.45,6.41,9.5,8.29,14.91Z"/>
  <path class="cls-7" d="M1763.86,947.49l82.03,155.69-65.5,39.23-105.89-149.18,89.36-45.74Z"/>
  <path class="cls-4" d="M1835.61,1082.33l2.69,4.15s91.43-15.58,100.75-2.11l-146.08,88.65-27.55-49.71c13.95-1.4,27.44-5.78,39.55-12.85,12.11-7.07,22.56-16.66,30.63-28.13Z"/>
  <g class="cls-15">
    <path class="cls-13" d="M1789.67,1129.94c-1.14,1.28-1.78,2.94-1.78,4.66s.64,3.38,1.78,4.66c1.25,1.17,2.9,1.83,4.62,1.83s3.37-.65,4.62-1.83c1.22-1.35,1.89-3.11,1.89-4.93s-.67-3.58-1.89-4.93c-1.41-1.11-3.2-1.64-5-1.46-1.79.18-3.44,1.05-4.61,2.41"/>
  </g>
  <g class="cls-15">
    <path class="cls-13" d="M1792.98,1173.19l-6.63-11.98,142.43-80.61s8.28-1.12,10.27,3.93l-146.08,88.66Z"/>
  </g>
  <path class="cls-11" d="M1839.05,1086.9c.42.7-2.94,3.19-5.06,7.62-2.11,4.44-2.19,8.58-3.02,8.7-.83.12-2.24-4.68.42-9.98,2.65-5.3,7.41-7.21,7.66-6.34Z"/>
  <path class="cls-11" d="M1858.23,1083.78c.58.62-1.78,3.69-2.36,8.28-.58,4.6.62,8.29,0,8.54-.62.24-3.64-3.36-2.81-8.95.83-5.59,4.72-8.54,5.18-7.87Z"/>
  <path class="cls-11" d="M1878.07,1096.84c-.58.58-3.73-2.4-4.14-7.41-.42-5.02,1.87-8.62,2.53-8.29.66.33,0,3.77.37,7.87.37,4.1,1.91,7.33,1.24,7.83Z"/>
  <path class="cls-11" d="M1792.41,985.44l-142.84-274.91s-20.05-28.37-47.44-26.64c-12.43.83-54.43,13.17-96.48,26.43l-1.37-18.48-143.51,13.01s-42.83,79.13-35.42,133.82c7.41,54.68,19.51,54.52,19.51,54.52l116-1.94,49.71,1.82,6.63,200.84,103.57-12.18,5.14-173.46,71.42,132.57,95.08-55.39Z"/>
  <path class="cls-4" d="M1460.78,879.26s.42-.38,1.12-1.2l3.11-3.69,11.64-14.21,42.05-51.95c10.15-16.36,33.43-26.06,56.71-22.08,12.11,1.99,23.37,7.48,32.39,15.79,4.65,4.34,8.39,9.54,11.02,15.33,2.56,6.02,4.13,12.41,4.64,18.93.75,7.95.54,15.91.5,23.74-.04,7.83,0,15.58-.21,23.16-.29,15.21-.54,29.83-.79,43.79-.58,27.92-1.41,53.03-2.2,74.11-.79,21.09-1.57,38.03-2.07,49.92-.25,5.84-.45,10.36-.58,13.59v3.57c-.04.4-.04.8,0,1.2.04-.4.04-.81,0-1.2,0-.91,0-2.07.29-3.52.21-3.23.54-7.79.91-13.59.75-11.77,1.7-29,2.65-49.92.95-20.93,1.95-46.19,2.65-74.12.25-13.96.54-28.58.87-43.79,0-7.58,0-15.33.25-23.16.23-7.99.05-15.98-.54-23.94-.52-6.72-2.12-13.31-4.77-19.51-2.74-6-6.64-11.41-11.47-15.91-9.29-8.55-20.89-14.17-33.35-16.15-23.9-4.15-47.8,6-58.25,22.99l-41.43,52.32-11.35,14.5-2.9,3.81c-.33.38-.64.78-.91,1.2Z"/>
  <path class="cls-4" d="M1511.98,977.03c.5,0,.91-29,.91-64.88s-.41-64.83-.91-64.83-.95,29-.95,64.83.41,64.88.95,64.88Z"/>
  <path class="cls-4" d="M1374.36,759.62c.68-.12,1.33-.32,1.95-.62l5.43-2.2,19.97-8.28c16.86-6.84,40.31-15.91,66.53-24.86,26.22-8.95,50.21-16.57,67.69-21.67l20.72-6.01,5.63-1.66c.67-.18,1.32-.42,1.95-.7-.69,0-1.38.11-2.03.33l-5.71,1.32c-4.97,1.2-12.1,3.02-20.72,5.47-17.56,4.81-41.67,12.05-67.94,21.17-26.26,9.11-49.71,18.47-66.28,25.6-8.28,3.57-15.12,6.55-19.76,8.7l-5.3,2.49c-.74.22-1.45.53-2.11.91Z"/>
  <path class="cls-4" d="M1370.22,729.66c4.24.11,8.49-.05,12.72-.5,7.83-.5,18.68-.99,30.66-1.32l30.7-.62c4.32.1,8.65-.15,12.92-.75-1.12-.28-2.28-.39-3.44-.33-2.19,0-5.34-.21-9.28-.29-7.87,0-18.72-.25-30.74,0-12.01.25-22.87,1.04-30.7,1.82-3.93.42-7.08.79-9.28,1.12-1.23.11-2.43.41-3.57.87Z"/>
  <path class="cls-4" d="M1677.69,1007.93c.29.21,3.93-5.01,10.89-12.43,4.07-4.41,8.42-8.56,13.01-12.43,5.65-4.62,11.6-8.86,17.81-12.68,11.38-6.84,23.65-12.08,36.46-15.58,9.86-2.65,16.16-3.44,16.11-3.77-1.5-.05-3,.06-4.47.33-1.74.17-3.47.43-5.18.79-2.27.36-4.53.83-6.75,1.41-5.87,1.4-11.63,3.22-17.24,5.43-6.86,2.76-13.51,6.05-19.88,9.82-6.29,3.85-12.29,8.18-17.94,12.92-4.6,3.91-8.9,8.15-12.89,12.68-1.78,1.91-3.19,3.77-4.47,5.35-1.1,1.32-2.14,2.71-3.11,4.14-.95,1.24-1.74,2.58-2.36,4.02Z"/>
  <path class="cls-4" d="M1508.83,1060.34c0,.29,5.76-2.77,15.29-6.71,12.39-5.07,25.32-8.72,38.53-10.89,13.24-2.15,26.68-2.77,40.06-1.87,10.27.66,16.57,1.82,16.57,1.49-1.41-.51-2.87-.87-4.35-1.07-2.86-.58-7-1.2-12.14-1.74-27.1-2.55-54.4,1.89-79.29,12.89-3.76,1.64-7.42,3.48-10.98,5.51-1.3.68-2.54,1.48-3.69,2.4Z"/>
  <path class="cls-4" d="M1363.88,701.62c-.12.65-.36,1.29-.7,1.86l-2.44,5.18-4.14,8.08c-1.53,3.23-3.19,6.84-5.06,10.81-9.98,20.71-17.48,42.53-22.33,65-4.17,22.62-3.51,45.86,1.95,68.19.91,4.14,2.03,8.28,2.94,11.52.91,3.23,1.78,6.3,2.53,8.66l1.66,5.47c.24.05.45.19.6.39.15.2.21.44.19.69-.02.24-.14.47-.32.64-.19.17-.42.26-.66.26s-.48-.09-.67-.26c-.18-.16-.3-.39-.32-.64-.02-.24.04-.49.19-.69.14-.2.36-.34.6-.39-.58-1.45-1.24-3.23-2.03-5.34-.79-2.11-1.87-5.18-2.86-8.58-.99-3.39-2.28-7.17-3.27-11.52-5.98-22.5-6.87-46.05-2.61-68.93,4.83-22.66,12.58-44.59,23.07-65.25l5.34-10.69c1.62-3.03,3.07-5.68,4.14-7.91l2.78-4.97c.4-.6.89-1.13,1.45-1.57Z"/>
  <path class="cls-11" d="M1411.06,400.65c-3.27,3.02-6.3,6.3-9.03,9.82-2.14,3.92-3.96,8.01-5.43,12.22-.25-4.73,1.01-9.43,3.61-13.39,2.6-3.96,6.4-6.99,10.84-8.65Z"/>
  <path class="cls-11" d="M1476.56,407.23c2.54,2.81,4.42,6.15,5.51,9.77,1.09,3.63,1.36,7.45.79,11.19-1.18-3.46-2.13-6.98-2.86-10.56-1.39-3.38-2.54-6.86-3.44-10.4Z"/>
  <path class="cls-9" d="M1537.71,432.75s25.56,16.07,28.58,56.09c2.97,29.81,8.05,59.39,15.21,88.49l102.66,13.38-6.46,52.24-174,6.83,34.02-217.04Z"/>
  <path class="cls-9" d="M1399.55,386.31l-15.95,18.15s-41.43,9.86-50.54,13.71c-9.11,3.85,14.17,88.74,14.17,88.74l-3.44,174.58c-.06,3.09.52,6.16,1.72,9.01,1.2,2.85,2.99,5.41,5.25,7.52,2.26,2.11,4.94,3.72,7.86,4.73,2.92,1.01,6.03,1.38,9.1,1.11l157.76-14.04,13.59-196.95-1.37-60.19-37.62-12.76-21.75-21.54c-6.31,7.2-15.04,11.85-24.54,13.07-9.51,1.21-19.12-1.09-27.04-6.48l-27.22-18.64Z"/>
  <path class="cls-9" d="M1332.93,418.17s-32.15,12.43-34.88,60.82c-1.78,31.9-13.01,86.42-20.46,119.89-2.07,9.32-2.28,18.97-.6,28.36,1.68,9.4,5.2,18.38,10.37,26.41,6.26,9.74,14.77,17.84,24.81,23.61,10.04,5.77,21.33,9.04,32.9,9.53l134.97-17.94-2.12-50.83-124.7-15.83-5.64-91.14-14.66-92.88Z"/>
  <path class="cls-11" d="M1329.53,646.39c.13-1.79.13-3.59,0-5.39.06-4.86.67-9.7,1.83-14.41,1.64-6.99,5.23-13.37,10.36-18.39,2.99-2.91,6.6-5.11,10.57-6.42,4.33-1.25,8.84-1.74,13.34-1.45,16.11.87,32.15,2.69,48.05,5.43,5.84,1.04,55.06,8.28,58.78,8.78,1.77.4,3.58.63,5.39.66-1.7-.59-3.45-1.04-5.22-1.37-3.73-.79-52.9-8.28-58.7-9.36-15.79-3.11-31.78-5.1-47.85-5.97-4.72-.32-9.47.21-14,1.58-4.2,1.43-8.03,3.8-11.19,6.92-5.29,5.28-8.91,11.99-10.44,19.3-1.05,4.83-1.48,9.77-1.28,14.71-.06,1.8.06,3.61.37,5.39Z"/>
  <path class="cls-11" d="M1362.43,511.34c-.35,1.15-.53,2.35-.54,3.56-.25,2.32-.49,5.68-.7,9.82-.42,8.74-.91,19.97-1.45,32.35-.49,10.76-1.69,21.47-3.6,32.07-1.57,8.28-3.19,12.96-2.9,13.09.63-1.06,1.11-2.18,1.45-3.36.41-1.08.83-2.45,1.28-4.14.45-1.7.99-3.4,1.45-5.43,2.29-10.61,3.67-21.39,4.15-32.23.7-12.68.79-24.15.91-32.44v-9.82c.13-1.16.11-2.33-.04-3.48Z"/>
  <path class="cls-11" d="M1294.28,665.08c1.09,1.33,2.31,2.55,3.64,3.65,3.55,3.05,7.33,5.82,11.31,8.28,13.3,8.05,28.35,12.78,43.87,13.75,8.53.55,17.09-.09,25.44-1.91,7.75-1.66,14.25-4.39,19.93-5.71,4.51-.99,9.09-1.63,13.71-1.9,1.72-.11,3.42-.46,5.06-1.04,0,0-1.83,0-5.14.29-4.68.04-9.36.5-13.96,1.37-5.84,1.2-12.43,3.81-19.97,5.34-8.18,1.68-16.53,2.25-24.86,1.7-15.24-1.01-30.06-5.46-43.34-13.01-5.42-3.33-10.66-6.94-15.7-10.81Z"/>
  <g class="cls-14">
    <path class="cls-1" d="M1420.92,693.95c.47-1.69.6-3.45.37-5.19-.22-1.74-.8-3.41-1.69-4.92-1.05-1.02-2.3-1.8-3.67-2.31-1.37-.5-2.83-.72-4.28-.64-6.74.36-13.37,1.75-19.68,4.15-14.63,4.32-29.87,6.21-45.11,5.59,6.74,5.35,15.01,8.43,23.61,8.78,8.53.31,17.07-.27,25.48-1.74l26.39-3.73"/>
  </g>
  <path class="cls-11" d="M1526.15,613.42c-.37-.29,4.97-5.84,11.06-16.57,8.01-13.85,12.66-29.38,13.54-45.35.89-15.97-1.99-31.92-8.41-46.58-4.85-11.27-9.53-17.36-9.2-17.61,1.29,1.23,2.42,2.62,3.36,4.14,2.77,4.04,5.2,8.31,7.25,12.76,6.92,14.78,10.07,31.04,9.15,47.33-.91,16.29-5.85,32.1-14.38,46.01-2.53,4.2-5.41,8.18-8.62,11.89-1.08,1.48-2.35,2.81-3.77,3.98Z"/>
  <path class="cls-11" d="M1492.92,421.94c-.88,1.42-1.97,2.71-3.23,3.81-3.24,3.17-6.84,5.95-10.73,8.29-5.79,3.58-12.11,6.24-18.73,7.87-8.11,2.13-16.59,2.46-24.85.99-8.13-1.85-15.92-4.97-23.08-9.24-5.88-3.39-11.43-7.33-16.57-11.77-3.47-2.93-6.64-6.19-9.49-9.74-1.12-1.24-2.06-2.63-2.78-4.14,4.15,4.52,8.57,8.77,13.26,12.72,5.21,4.18,10.75,7.92,16.57,11.19,7,4.08,14.59,7.07,22.49,8.87,7.95,1.4,16.11,1.12,23.95-.83,6.45-1.5,12.64-3.93,18.39-7.21,5.23-3.18,10.17-6.8,14.79-10.81Z"/>
  <path class="cls-11" d="M1427.76,409.92c-1.05,4.25-2.43,8.4-4.14,12.43-1.04,4.25-2.42,8.41-4.14,12.43-.35-4.51.36-9.03,2.07-13.22,1.11-4.32,3.24-8.31,6.21-11.64Z"/>
  <path class="cls-11" d="M1453.07,414.52c1.06,4.48,1.42,9.09,1.08,13.67.37,4.59-.01,9.2-1.12,13.67-1.04-4.48-1.38-9.09-1.04-13.67-.35-4.59.02-9.2,1.07-13.67Z"/>
  <path class="cls-11" d="M1367.65,487.4c-.37,0-.7-3.81-2.15-9.74-1.95-7.71-5.07-15.07-9.24-21.83-4.23-6.73-9.47-12.77-15.54-17.9-4.68-3.94-7.95-5.92-7.79-6.26,3.19,1.15,6.15,2.87,8.74,5.05,13.14,9.96,22.15,24.42,25.32,40.6.83,3.29,1.05,6.7.66,10.07Z"/>
  <path class="cls-11" d="M1478.59,664.33c-3.58,1.76-7.33,3.15-11.19,4.14-7.04,2.07-16.86,4.51-27.8,6.79-10.94,2.28-20.93,4.14-28.13,5.3-3.85.92-7.77,1.48-11.73,1.66,3.71-1.39,7.54-2.44,11.43-3.15,7.13-1.66,17.03-3.69,27.96-5.92,10.94-2.24,20.72-4.47,27.88-6.17,3.78-1.18,7.64-2.07,11.56-2.65Z"/>
  <path class="cls-2" d="M1503.37,692.67c.74-2.61,39.23-155.44,46.48-185.81l146.07-7.37-51.08,179.63-141.47,13.55Z"/>
  <path class="cls-8" d="M1503.37,701.12c.74-2.61,39.23-155.43,46.48-185.8l146.07-7.38-51.08,179.63-141.47,13.54Z"/>
  <path class="cls-5" d="M1508.96,704.97c.74-2.65,39.27-155.43,46.48-185.84l146.2-7.38-51.08,179.63-141.6,13.59Z"/>
  <path class="cls-2" d="M1503.37,692.67c.74-2.61,39.23-155.44,46.48-185.81l146.07-7.37-51.08,179.63-141.47,13.55Z"/>
  <path class="cls-11" d="M1503.37,692.67l2.65-.33,7.58-.79,28.67-2.98,102.49-10.32-.79.62c14.41-50.87,31.94-112.81,50.87-179.67l1.12,1.37-4.44.21-141.64,7.04.91-.74c-13.92,54.76-25.69,101.04-34.01,133.73-4.15,16.28-7.5,29.2-9.82,38.15-1.12,4.35-1.99,7.75-2.65,10.15-.29,1.12-.5,1.99-.71,2.65l-.24.91v-.79c0-.54.37-1.49.58-2.56.58-2.36,1.41-5.72,2.4-9.98,2.2-8.95,5.3-21.79,9.28-38.03,8.08-32.94,19.55-79.5,33.14-134.68v-.7h.75l141.89-7.29,4.43-.21h1.53l-.42,1.45c-19.1,66.82-36.75,128.76-51.29,179.59v.58h-.58l-103.24,9.4-28.46,2.53-7.41.63-2.61.08Z"/>
  <path class="cls-8" d="M1503.37,701.12c.74-2.61,39.23-155.43,46.48-185.8l146.07-7.38-51.08,179.63-141.47,13.54Z"/>
  <path class="cls-11" d="M1503.37,701.12l2.65-.33,7.58-.79,28.67-2.98,102.49-10.32-.79.62c14.41-50.87,31.94-112.81,50.87-179.71l1.12,1.41-4.44.21-141.64,7.04.91-.75c-13.92,54.77-25.69,101.05-34.01,133.73-4.15,16.28-7.5,29-9.82,38.15-1.12,4.35-1.99,7.75-2.65,10.15-.29,1.12-.5,1.99-.71,2.65l-.24.91v-.83c0-.58.37-1.45.58-2.53.58-2.36,1.41-5.71,2.4-9.98,2.2-8.95,5.3-21.79,9.28-38.03,8.08-32.93,19.55-79.5,33.14-134.68v-.7h.75l141.89-7.46h5.96l-.42,1.45c-19.1,66.82-36.75,128.76-51.29,179.59v.58h-.58l-103.24,9.4-28.46,2.53-7.41.62-2.61.04Z"/>
  <path class="cls-5" d="M1508.96,704.97c.74-2.65,39.27-155.43,46.48-185.84l146.2-7.38-51.08,179.63-141.6,13.59Z"/>
  <path class="cls-11" d="M1508.96,704.97s.95,0,2.65-.33l7.58-.83,28.67-2.95,102.49-10.36-.75.66c14.38-50.87,31.94-112.85,50.87-179.71l1.08,1.37h-4.44l-141.64,7.08.91-.79c-13.92,54.77-25.69,101.05-34.01,133.73-4.15,16.28-7.5,29.21-9.78,38.16-1.16,4.14-2.03,7.75-2.65,10.19-.29,1.08-.54,1.95-.7,2.61-.17.66-.29.91-.29.95-.04-.28-.04-.56,0-.83,0-.66.33-1.49.58-2.57.58-2.36,1.37-5.68,2.4-9.98l9.24-38.03c8.28-32.89,19.55-79.5,33.14-134.64v-.74h.74l141.97-6.92,4.44-.21h1.49l-.42,1.45c-19.1,66.86-36.75,128.76-51.24,179.59v.58h-.62l-103.4,9.15-28.46,2.53-7.41.63-2.44.21Z"/>
  <path class="cls-7" d="M1477.93,615.28h20.05c4.09-4.06,8.45-7.83,13.05-11.31,2.77-1.41,16.57-5.55,16.57-5.55l-4.14,14.21s-1.82.62-3.64,1.32c-3.48,1.37-2.53,4.47.25,4.47h20.22s20.71-9.94,23.73-8.28c3.03,1.66,3.48,4.14.87,8.28-2.61,4.14-20.71,12.89-22.86,13.59l-5.92,1.74,5.59,1.74,26.35-9.2c1.7-.33,4.14-.63,4.85.37.35.33.62.72.81,1.16.19.44.28.91.28,1.39s-.1.95-.28,1.38c-.19.44-.46.84-.81,1.16-3.74,3.4-7.71,6.55-11.89,9.41,0,0,4.14,6.17.7,9.32-3.44,3.15-13.58,12.43-13.58,12.43-.58,2.92-2.02,5.59-4.15,7.66-3.15,2.45-37.62,2.45-40.06,2.45-5.68-2.17-11.16-4.85-16.36-8l-9.16-.95-.45-48.8Z"/>
  <path class="cls-3" d="M1537.79,651.12c2.59.8,5.37.72,7.91-.21,1.58-.62,3.08-1.43,4.47-2.4,2.98-1.9,5.68-3.73,7.58-5.05,1.09-.63,2.1-1.42,2.98-2.32-1.16.5-2.27,1.11-3.31,1.82-1.99,1.24-4.72,2.94-7.71,4.89-1.29.92-2.68,1.71-4.14,2.36-1.23.5-2.53.8-3.85.87-2.48.08-3.93-.08-3.93.04Z"/>
  <path class="cls-3" d="M1536.21,664.05s.75.99,2.61,1.45c2.44.54,4.99.11,7.13-1.2,2.08-1.14,4.02-2.53,5.75-4.14.77-.63,1.43-1.39,1.95-2.24-2.64,2.11-5.41,4.04-8.28,5.8-1.97,1.21-4.3,1.69-6.59,1.37-.88-.28-1.74-.63-2.57-1.04Z"/>
  <path class="cls-3" d="M1526.44,635.33c1.84.2,3.69.04,5.47-.46,1.83-.21,3.59-.81,5.18-1.74-1.81.13-3.6.45-5.35.95-1.8.23-3.58.65-5.3,1.25Z"/>
  <path class="cls-7" d="M1700.39,608.49c.91-.53,1.71-1.24,2.35-2.08.64-.84,1.09-1.8,1.35-2.82.26-1.03.31-2.09.15-3.13-.16-1.05-.53-2.05-1.07-2.95-.69-1.25-1.65-2.33-2.82-3.15-11.21-3-22.56-5.43-34.01-7.29-3.15-.46-3.52,5.34.37,8.28,3.89,2.94,33.68,13.26,33.68,13.26v-.12Z"/>
  <path class="cls-7" d="M1693.89,628.66c.91-.53,1.71-1.23,2.34-2.07.64-.84,1.09-1.8,1.35-2.82.26-1.02.31-2.08.15-3.12-.16-1.04-.52-2.04-1.07-2.93-.65-1.28-1.62-2.36-2.82-3.15-3.15-1.66-31.56-9.15-34.01-7.33-2.44,1.82-3.52,5.34.37,8.28,3.9,2.94,33.68,13.26,33.68,13.26v-.12Z"/>
  <path class="cls-7" d="M1688.25,624.52c1.32.29,2.55.87,3.61,1.71,1.06.83,1.92,1.89,2.52,3.1.64,1.28.85,2.74.58,4.14-.46,2.14-1.49,4.11-2.99,5.71-1.49,1.6-3.4,2.76-5.5,3.37-5.1,1.57-21.67-2.16-21.67-2.16l3.81-10.69-11.6-3.81c-1.04-.43-1.86-1.27-2.29-2.31-.43-1.04-.42-2.21,0-3.25.43-1.04,1.26-1.86,2.3-2.29,1.05-.43,2.21-.42,3.25,0,1.87.7,21.3,4.85,27.96,6.46Z"/>
  <path class="cls-7" d="M1696.91,618.02c.91-.53,1.71-1.23,2.34-2.07.64-.84,1.09-1.8,1.35-2.82.26-1.02.31-2.08.15-3.12-.16-1.04-.52-2.04-1.07-2.93-.65-1.27-1.62-2.36-2.82-3.15-3.15-1.7-28.46-6.17-31.44-6.83-2.98-.66-6.09,4.85-2.19,7.66,3.89,2.81,33.68,13.26,33.68,13.26Z"/>
  <path class="cls-3" d="M1668.5,607.82c1.44.52,2.92.9,4.43,1.16,2.77.62,6.59,1.41,10.81,2.24,3.59.57,7.04,1.84,10.15,3.73,1.19.91,2.26,1.97,3.19,3.15-.12-.41-.32-.79-.58-1.12-.61-.95-1.38-1.79-2.28-2.49-1.35-1.01-2.85-1.8-4.44-2.36-1.93-.7-3.91-1.25-5.92-1.66l-10.85-2.03c-1.49-.31-3-.51-4.51-.63Z"/>
  <path class="cls-3" d="M1673.22,598.59c1.34.47,2.73.82,4.14,1.04l10.32,1.99c3.43.58,6.7,1.87,9.61,3.77,1.11.92,2.11,1.96,2.98,3.11,0,0,0-.42-.5-1.08-.58-.93-1.3-1.75-2.15-2.44-2.88-2.14-6.23-3.56-9.77-4.14-4.15-.83-7.75-1.37-10.4-1.82-1.4-.23-2.81-.37-4.23-.42Z"/>
  <path class="cls-3" d="M1667.95,619.71c1.35.5,2.74.9,4.15,1.2,3.23.9,6.51,1.63,9.82,2.2,3.29.43,6.47,1.5,9.36,3.15,1.09.8,2.1,1.71,2.98,2.74-.12-.36-.3-.7-.54-1-.58-.85-1.31-1.6-2.15-2.19-2.88-1.82-6.12-2.99-9.49-3.44-3.9-.62-7.34-1.45-9.86-1.95-1.39-.4-2.82-.63-4.27-.7Z"/>
  <path class="cls-3" d="M1666.38,628.99c1.91,1.05,3.95,1.87,6.05,2.45,2.03.81,4.14,1.37,6.3,1.7-1.91-1.05-3.94-1.86-6.05-2.4-2.03-.8-4.14-1.39-6.3-1.74Z"/>
  <path class="cls-11" d="M1953.27,1757.56c0,.58-434.99,1.07-971.35,1.07s-971.44-.62-971.44-1.07,434.99-1.08,971.44-1.08,971.35.46,971.35,1.08Z"/>
  <path class="cls-13" d="M1608.01,350.11l11.68-43.58c-13.63-15.07-21.94-34.19-23.66-54.44-6.26-65.12,33.84-122.17,98.1-131.7,15.22-2.4,30.76-1.77,45.73,1.86,14.97,3.62,29.08,10.17,41.52,19.26,12.44,9.09,22.96,20.55,30.95,33.72,8,13.17,13.32,27.79,15.65,43.01,9.45,64.3-36.87,123.12-101.12,132.57-26.84,4.14-56.59-5.55-78.71-17.94l-40.14,17.23Z"/>
  <path class="cls-11" d="M1671.56,245.41c5.54,0,10.03-4.49,10.03-10.03s-4.49-10.03-10.03-10.03-10.02,4.49-10.02,10.03,4.49,10.03,10.02,10.03Z"/>
  <path class="cls-11" d="M1721.77,235.39c-.02,1.99-.63,3.92-1.76,5.56-1.12,1.64-2.7,2.91-4.54,3.65-1.84.74-3.86.92-5.81.52-1.94-.4-3.73-1.37-5.12-2.78-1.4-1.41-2.34-3.21-2.72-5.16-.38-1.95-.17-3.97.59-5.8.77-1.83,2.06-3.4,3.71-4.5,1.66-1.1,3.59-1.69,5.58-1.69,1.33,0,2.66.25,3.89.77,1.23.51,2.35,1.26,3.29,2.21.94.95,1.68,2.08,2.17,3.31.49,1.24.74,2.56.72,3.9Z"/>
  <path class="cls-11" d="M1761.79,230.38c.99,1.72,1.45,3.69,1.32,5.67-.13,1.98-.85,3.88-2.06,5.45-1.21,1.57-2.86,2.75-4.74,3.39-1.88.64-3.9.7-5.82.18-1.92-.52-3.63-1.59-4.94-3.08-1.3-1.49-2.13-3.34-2.39-5.31-.26-1.97.08-3.97.96-5.74.88-1.78,2.27-3.25,3.99-4.24,2.3-1.32,5.04-1.67,7.6-.98,2.56.69,4.74,2.37,6.07,4.67Z"/>
  <path class="cls-11" d="M1712.32,118.19c.67-.07,1.36-.07,2.03,0h10.36l5.26.7,6.13.91,6.88,1.7c11.77,2.99,22.97,7.88,33.15,14.5,13.62,8.7,25.33,20.09,34.38,33.47,10.94,16.45,17.66,35.35,19.55,55.02.46,5.35.58,10.71.33,16.07,0,2.73,0,5.47-.54,8.29l-1.24,8.29c-2.1,11.4-5.86,22.43-11.19,32.73-5.66,10.78-12.84,20.69-21.34,29.41-9.08,8.89-19.45,16.34-30.78,22.08-11.73,6.02-24.44,9.92-37.53,11.52-3.32.52-6.67.81-10.03.87-3.37.19-6.74.19-10.11,0-6.81-.27-13.59-1.11-20.26-2.53-14.38-3.12-28.07-8.88-40.35-16.99h1.25l-41.1,16.57-2.44.95.7-2.53c4.14-15.02,8.16-29.66,12.05-43.91l.21,1.08c-11.13-14.78-18.63-31.96-21.91-50.17-1.57-8.48-2.1-17.12-1.58-25.73.07-4.17.45-8.32,1.16-12.43.29-2.03.62-4.14.91-6.01.29-1.86.99-3.89,1.45-5.84,6.93-26.94,23.2-50.55,45.9-66.62,8.38-6.04,17.55-10.89,27.26-14.42l6.17-2.2,5.8-1.45,5.34-1.33c1.74-.33,3.36-.54,4.93-.75,3.11-.41,5.84-.95,8.29-1.08h9.73c.41-.07.83-.07,1.24,0h-1.24l-3.65.29-6.01.41c-2.4,0-5.09.75-8.28,1.2-22.28,3.85-42.97,14.09-59.55,29.48-16.58,15.38-28.33,35.25-33.83,57.19-.45,1.86-1.04,3.77-1.41,5.72l-.87,5.88c-.67,4.01-1.03,8.07-1.07,12.14-.47,8.45.09,16.92,1.66,25.23,3.25,17.84,10.66,34.65,21.63,49.09l.37.5v.58c-3.89,14.2-7.9,28.85-12.02,43.95l-1.74-1.53,41.1-16.57.62-.25.58.37c17.63,11.69,38.14,18.3,59.28,19.1,3.28.19,6.57.19,9.86,0,3.29-.07,6.57-.34,9.82-.83,12.79-1.56,25.2-5.36,36.66-11.23,11.11-5.59,21.29-12.87,30.16-21.58,8.33-8.52,15.4-18.19,21-28.71,5.21-10.08,8.92-20.87,11.02-32.02.42-2.73.87-5.43,1.28-8.29.42-2.86.33-5.39.54-8.04.98-20.27-3.38-40.44-12.63-58.49-9.25-18.06-23.08-33.37-40.11-44.41-10.04-6.65-21.09-11.64-32.73-14.75l-6.76-1.82-6.09-.99-5.18-.83c-1.62,0-3.07-.25-4.4-.33l-5.92-.46c-.74,0-1.48-.07-2.2-.21Z"/>
  <path class="cls-11" d="M1354.05,237.34c-9.72,3.81-17.14,12.89-18.21,22.32-.48,4.68.53,9.39,2.88,13.47,2.35,4.08,5.91,7.31,10.2,9.25-3.84,4.07-3.04,10.8,1.59,13.27,4.63,2.47,11.87.02,14.2-4.82-.42,5.18,4.4,9.53,9.94,9.97,5.53.44,11.33-2.52,15.1-6.66,3.77-4.15,5.73-9.39,6.7-14.56l-14.14-38.09c-7.02-6.27-18.53-7.95-28.24-4.15Z"/>
  <path class="cls-11" d="M1518.16,248.41c-4.6-2.68-7.59-6.41-7.43-11.69-2.99.96-6.13-2.79-7.94-5.31-1.81-2.52-3.99-3.77-3.93-6.86.07-.61-.03-1.23-.28-1.8-.48-.83-1.54-1.11-2.48-1.34-2.4-.69-4.59-1.98-6.36-3.74-1.77-1.76-3.07-3.94-3.79-6.33-4.79,2.2-10.04,3.2-15.3,2.89-1.14,1.7-2.69,3.09-4.5,4.03-1.81.95-3.84,1.42-5.88,1.39-2.05-.04-4.05-.59-5.83-1.6-1.78-1.01-3.27-2.46-4.35-4.2-.73,1.37-1.74,2.58-2.97,3.52-1.23.95-2.66,1.62-4.17,1.97-3.04.69-6.17.94-9.28.73.64,3,.18,6.13-1.31,8.81-1.49,2.68-3.9,4.74-6.78,5.78-.8.27-1.71.52-2.06,1.28-.34.76.08,1.66.41,2.46,2.08,5.01-1.11,11.49-6.46,12.89,3.73,2.72,3.52,9.22-.39,11.7-.8.51-1.84,1.11-1.7,2.04.09.35.27.67.52.93,1.72,2.14,3.44,4.5,3.72,7.23.28,2.73-1.52,5.84-4.29,6.03,1.49,1.24,2.89,2.86,2.97,4.78.08,1.92-1.83,3.93-3.68,3.28-.78-.27-11.99-2.17-12.5-2.81-6.56-8.34,1.19-17.94,1.54-28.5.36-10.56,3.82-20.87,8.89-30.15,2.07-3.95,4.65-7.6,7.69-10.87,3.66-3.54,7.72-6.65,12.09-9.27,5.56-3.62,11.3-7.24,17.78-8.89,12.02-3.11,24.69.91,36.1,5.78,4.42,1.69,8.59,3.96,12.4,6.76,4.44,3.51,7.7,8.18,10.6,12.98,4.18,6.94,7.69,14.44,8.68,22.47"/>
  <path class="cls-11" d="M1464.91,213.24s-15.01,60.91-49.13,74.12c-18.62-15.79-16.95-42.47-16.95-42.47l14.23-33.15,30.23-3.67,21.63,5.16Z"/>
  <path class="cls-11" d="M1463.18,219.35s14.6,33.56,56.21,37.31c-5.89-29.08-15.06-47.31-15.06-47.31l-27.09-8.22-16.69,6.95,2.62,11.27Z"/>
  <path class="cls-11" d="M1519.39,256.66s8.78-83.52-70.78-74.88c-79.56,8.64-77.03,86.76-58.63,102.14,18.4,15.38,40.53-5.94,40.53-5.94l-4.44-59.21,24.76-18.26-2.22,18.26,23.52-1.36,8.23,15.01,39.03,24.25Z"/>
</svg>
