<?xml version="1.0" encoding="UTF-8"?>
<svg id="Layer_1" data-name="Layer 1" xmlns="http://www.w3.org/2000/svg" viewBox="0 0 1000 1000">
  <defs>
    <style>
      .cls-1 {
        fill: #000;
      }

      .cls-1, .cls-2, .cls-3, .cls-4, .cls-5, .cls-6, .cls-7, .cls-8, .cls-9, .cls-10, .cls-11 {
        stroke-width: 0px;
      }

      .cls-2 {
        fill: #e0e0e0;
      }

      .cls-3 {
        fill: #455a64;
      }

      .cls-4 {
        fill: #f5f5f5;
      }

      .cls-5 {
        fill: #09f;
      }

      .cls-6 {
        fill: #ebebeb;
      }

      .cls-7 {
        fill: #263238;
      }

      .cls-8 {
        fill: #fafafa;
      }

      .cls-9 {
        fill: #6f4439;
      }

      .cls-12 {
        opacity: .3;
      }

      .cls-10 {
        fill: #fff;
      }

      .cls-11 {
        fill: #ae7461;
      }
    </style>
  </defs>
  <g>
    <path class="cls-6" d="M983.44,561.13h-75.88l-.33-137.6h75.9l.32,137.6Z"/>
    <path class="cls-2" d="M983.12,423.53h-37.95v137.6h37.95v-137.6Z"/>
    <path class="cls-6" d="M942.69,400.02h-26.79v23.51h26.79v-23.51Z"/>
    <path class="cls-2" d="M942.69,400.02h-6.39v23.51h6.39v-23.51Z"/>
    <path class="cls-2" d="M985.33,422.16h-80.37v1.37h80.37v-1.37Z"/>
    <path class="cls-10" d="M928.65,433.79h-6.43v13.5h6.43v-13.5Z"/>
    <path class="cls-2" d="M945.19,452.58c0,.14-8.5.26-18.97.26s-18.97-.12-18.97-.26,8.5-.26,18.97-.26,18.97.14,18.97.26Z"/>
    <path class="cls-4" d="M966.89,433.79h-6.42v13.5h6.42v-13.5Z"/>
    <path class="cls-6" d="M983.44,452.58c0,.14-8.48.26-18.96.26s-18.97-.12-18.97-.26,8.48-.26,18.97-.26,18.96.14,18.96.26Z"/>
    <path class="cls-4" d="M966.89,460.58h-6.42v13.5h6.42v-13.5Z"/>
    <path class="cls-6" d="M983.44,479.37c0,.13-8.48.25-18.96.25s-18.97-.12-18.97-.25,8.48-.26,18.97-.26,18.96.12,18.96.26Z"/>
    <path class="cls-4" d="M966.89,488.17h-6.42v13.5h6.42v-13.5Z"/>
    <path class="cls-6" d="M983.44,506.96c0,.14-8.48.26-18.96.26s-18.97-.12-18.97-.26,8.48-.26,18.97-.26,18.96.12,18.96.26Z"/>
    <path class="cls-4" d="M966.89,515.77h-6.42v13.5h6.42v-13.5Z"/>
    <path class="cls-6" d="M983.44,534.56c0,.13-8.48.25-18.96.25s-18.97-.12-18.97-.25,8.48-.26,18.97-.26,18.96.12,18.96.26Z"/>
    <path class="cls-10" d="M928.65,460.99h-6.43v13.5h6.43v-13.5Z"/>
    <path class="cls-2" d="M945.19,479.78c0,.14-8.5.26-18.97.26s-18.97-.12-18.97-.26,8.5-.26,18.97-.26,18.97.11,18.97.26Z"/>
    <path class="cls-10" d="M928.65,488.19h-6.43v13.5h6.43v-13.5Z"/>
    <path class="cls-2" d="M945.19,506.97c0,.14-8.5.26-18.97.26s-18.97-.12-18.97-.26,8.5-.26,18.97-.26,18.97.11,18.97.26Z"/>
    <path class="cls-10" d="M928.65,515.38h-6.43v13.5h6.43v-13.5Z"/>
    <path class="cls-2" d="M945.19,534.17c0,.13-8.5.25-18.97.25s-18.97-.12-18.97-.25,8.5-.26,18.97-.26,18.97.12,18.97.26Z"/>
    <path class="cls-4" d="M303.46,208.29h-84.41v352.58h84.41V208.29Z"/>
    <path class="cls-6" d="M303.46,208.29h-42.21v351.71h42.21V208.29Z"/>
    <path class="cls-4" d="M258.5,182.04h-29.81v26.26h29.81v-26.26Z"/>
    <path class="cls-6" d="M258.5,182.04h-7.11v26.26h7.11v-26.26Z"/>
    <path class="cls-2" d="M212.01,208.29v-1.53h93.91v1.53"/>
    <path class="cls-8" d="M242.85,219.75h-7.14v15.07h7.14v-15.07Z"/>
    <path class="cls-2" d="M261.24,240.74c0,.16-9.44.29-21.1.29s-21.1-.13-21.1-.29,9.45-.29,21.1-.29,21.1.13,21.1.29Z"/>
    <path class="cls-2" d="M285.42,219.75h-7.14v15.07h7.14v-15.07Z"/>
    <path class="cls-2" d="M303.83,240.74c0,.16-9.45.29-21.11.29s-21.1-.13-21.1-.29,9.45-.29,21.1-.29,21.11.13,21.11.29Z"/>
    <path class="cls-2" d="M285.42,249.67h-7.14v15.07h7.14v-15.07Z"/>
    <path class="cls-2" d="M303.83,270.65c0,.16-9.45.29-21.11.29s-21.1-.13-21.1-.29,9.45-.29,21.1-.29,21.11.13,21.11.29Z"/>
    <path class="cls-2" d="M285.42,280.47h-7.14v15.07h7.14v-15.07Z"/>
    <path class="cls-2" d="M303.83,301.46c0,.16-9.45.29-21.11.29s-21.1-.13-21.1-.29,9.45-.29,21.1-.29,21.11.13,21.11.29Z"/>
    <path class="cls-2" d="M285.42,311.3h-7.14v15.07h7.14v-15.07Z"/>
    <path class="cls-2" d="M303.83,332.27c0,.16-9.45.29-21.11.29s-21.1-.13-21.1-.29,9.45-.29,21.1-.29,21.11.13,21.11.29Z"/>
    <path class="cls-2" d="M285.42,341.22h-7.14v15.07h7.14v-15.07Z"/>
    <path class="cls-2" d="M303.83,362.21c0,.16-9.45.29-21.11.29s-21.1-.13-21.1-.29,9.45-.29,21.1-.29,21.11.13,21.11.29Z"/>
    <path class="cls-2" d="M285.42,371.28h-7.14v15.07h7.14v-15.07Z"/>
    <path class="cls-2" d="M285.42,401.73h-7.14v15.07h7.14v-15.07Z"/>
    <path class="cls-2" d="M303.83,392.25c0,.16-9.45.29-21.11.29s-21.1-.13-21.1-.29,9.45-.27,21.1-.27,21.11.12,21.11.27Z"/>
    <path class="cls-8" d="M242.85,250.11h-7.14v15.07h7.14v-15.07Z"/>
    <path class="cls-2" d="M261.24,271.1c0,.16-9.44.29-21.1.29s-21.1-.13-21.1-.29,9.45-.29,21.1-.29,21.1.13,21.1.29Z"/>
    <path class="cls-8" d="M242.85,280.49h-7.14v15.07h7.14v-15.07Z"/>
    <path class="cls-2" d="M261.24,301.47c0,.16-9.44.29-21.1.29s-21.1-.13-21.1-.29,9.45-.29,21.1-.29,21.1.13,21.1.29Z"/>
    <path class="cls-8" d="M242.85,310.85h-7.14v15.07h7.14v-15.07Z"/>
    <path class="cls-2" d="M261.24,331.83c0,.16-9.44.29-21.1.29s-21.1-.13-21.1-.29,9.45-.29,21.1-.29,21.1.13,21.1.29Z"/>
    <path class="cls-8" d="M242.85,341.22h-7.14v15.07h7.14v-15.07Z"/>
    <path class="cls-2" d="M261.24,362.21c0,.16-9.44.29-21.1.29s-21.1-.13-21.1-.29,9.45-.29,21.1-.29,21.1.13,21.1.29Z"/>
    <path class="cls-8" d="M242.85,371.58h-7.14v15.07h7.14v-15.07Z"/>
    <path class="cls-2" d="M261.24,392.57c0,.16-9.44.29-21.1.29s-21.1-.13-21.1-.29,9.45-.29,21.1-.29,21.1.13,21.1.29Z"/>
    <path class="cls-8" d="M242.85,401.96h-7.14v15.07h7.14v-15.07Z"/>
    <path class="cls-4" d="M143.88,294.1H59.47v267.51h84.41v-267.51Z"/>
    <path class="cls-6" d="M143.89,294.1h-42.21v266.77h42.21v-266.77Z"/>
    <path class="cls-4" d="M98.92,267.84h-29.81v26.26h29.81v-26.26Z"/>
    <path class="cls-6" d="M98.92,267.84h-7.11v26.26h7.11v-26.26Z"/>
    <path class="cls-2" d="M52.44,294.1v-1.53h93.93v1.53"/>
    <path class="cls-8" d="M83.27,305.56h-7.14v15.07h7.14v-15.07Z"/>
    <path class="cls-2" d="M101.68,326.54c0,.16-9.45.29-21.1.29s-21.11-.13-21.11-.29,9.45-.29,21.11-.29,21.1.13,21.1.29Z"/>
    <path class="cls-2" d="M125.84,305.56h-7.14v15.07h7.14v-15.07Z"/>
    <path class="cls-2" d="M144.25,326.54c0,.16-9.45.29-21.1.29s-21.11-.13-21.11-.29,9.45-.29,21.11-.29,21.1.13,21.1.29Z"/>
    <path class="cls-2" d="M125.84,335.47h-7.14v15.07h7.14v-15.07Z"/>
    <path class="cls-2" d="M144.25,356.45c0,.16-9.45.29-21.1.29s-21.11-.13-21.11-.29,9.45-.29,21.11-.29,21.1.13,21.1.29Z"/>
    <path class="cls-2" d="M125.84,366.28h-7.14v15.07h7.14v-15.07Z"/>
    <path class="cls-2" d="M144.25,387.26c0,.16-9.45.29-21.1.29s-21.11-.13-21.11-.29,9.45-.29,21.11-.29,21.1.13,21.1.29Z"/>
    <path class="cls-2" d="M125.84,397.1h-7.14v15.07h7.14v-15.07Z"/>
    <path class="cls-2" d="M144.25,418.07c0,.16-9.45.29-21.1.29s-21.11-.13-21.11-.29,9.45-.29,21.11-.29,21.1.13,21.1.29Z"/>
    <path class="cls-2" d="M125.84,427.03h-7.14v15.07h7.14v-15.07Z"/>
    <path class="cls-2" d="M144.25,448.01c0,.16-9.45.29-21.1.29s-21.11-.13-21.11-.29,9.45-.29,21.11-.29,21.1.13,21.1.29Z"/>
    <path class="cls-2" d="M125.84,457.09h-7.14v15.07h7.14v-15.07Z"/>
    <path class="cls-2" d="M125.84,487.54h-7.14v15.07h7.14v-15.07Z"/>
    <path class="cls-2" d="M144.25,478.06c0,.16-9.45.29-21.1.29s-21.11-.13-21.11-.29,9.45-.27,21.11-.27,21.1.13,21.1.27Z"/>
    <path class="cls-8" d="M83.27,335.92h-7.14v15.07h7.14v-15.07Z"/>
    <path class="cls-2" d="M101.68,356.9c0,.16-9.45.29-21.1.29s-21.11-.13-21.11-.29,9.45-.29,21.11-.29,21.1.13,21.1.29Z"/>
    <path class="cls-8" d="M83.27,366.3h-7.14v15.07h7.14v-15.07Z"/>
    <path class="cls-2" d="M101.68,387.28c0,.16-9.45.29-21.1.29s-21.11-.13-21.11-.29,9.45-.29,21.11-.29,21.1.13,21.1.29Z"/>
    <path class="cls-8" d="M83.27,396.67h-7.14v15.07h7.14v-15.07Z"/>
    <path class="cls-2" d="M101.68,417.64c0,.16-9.45.29-21.1.29s-21.11-.13-21.11-.29,9.45-.29,21.11-.29,21.1.13,21.1.29Z"/>
    <path class="cls-8" d="M83.27,427.03h-7.14v15.07h7.14v-15.07Z"/>
    <path class="cls-2" d="M101.68,448.01c0,.16-9.45.29-21.1.29s-21.11-.13-21.11-.29,9.45-.29,21.11-.29,21.1.13,21.1.29Z"/>
    <path class="cls-8" d="M83.27,457.41h-7.14v15.07h7.14v-15.07Z"/>
    <path class="cls-2" d="M101.68,478.37c0,.16-9.45.29-21.1.29s-21.11-.13-21.11-.29,9.45-.29,21.11-.29,21.1.13,21.1.29Z"/>
    <path class="cls-8" d="M83.27,487.77h-7.14v15.07h7.14v-15.07Z"/>
    <path class="cls-4" d="M824.59,214.69h-64.29v203.77h64.29v-203.77Z"/>
    <path class="cls-6" d="M824.6,214.69h-32.15v203.22h32.15v-203.22Z"/>
    <path class="cls-4" d="M790.34,194.68h-22.7v20h22.7v-20Z"/>
    <path class="cls-6" d="M790.34,194.68h-5.4v20h5.4v-20Z"/>
    <path class="cls-2" d="M754.93,214.7v-1.17h71.55v1.17"/>
    <path class="cls-8" d="M778.43,223.41h-5.45v11.47h5.45v-11.47Z"/>
    <path class="cls-2" d="M792.45,239.39c0,.13-7.23.22-16.07.22s-16.08-.09-16.08-.22,7.22-.22,16.08-.22,16.07.1,16.07.22Z"/>
    <path class="cls-2" d="M810.87,223.41h-5.45v11.47h5.45v-11.47Z"/>
    <path class="cls-2" d="M824.87,239.39c0,.13-7.22.22-16.07.22s-16.08-.09-16.08-.22,7.23-.22,16.08-.22,16.07.1,16.07.22Z"/>
    <path class="cls-2" d="M810.87,246.2h-5.45v11.47h5.45v-11.47Z"/>
    <path class="cls-2" d="M824.87,262.18c0,.12-7.22.22-16.07.22s-16.08-.1-16.08-.22,7.23-.22,16.08-.22,16.07.1,16.07.22Z"/>
    <path class="cls-2" d="M810.87,269.67h-5.45v11.47h5.45v-11.47Z"/>
    <path class="cls-2" d="M824.87,285.65c0,.13-7.22.22-16.07.22s-16.08-.09-16.08-.22,7.23-.22,16.08-.22,16.07.1,16.07.22Z"/>
    <path class="cls-2" d="M810.87,293.15h-5.45v11.47h5.45v-11.47Z"/>
    <path class="cls-2" d="M824.87,309.13c0,.12-7.22.22-16.07.22s-16.08-.1-16.08-.22,7.23-.23,16.08-.23,16.07.1,16.07.23Z"/>
    <path class="cls-2" d="M810.87,315.95h-5.45v11.47h5.45v-11.47Z"/>
    <path class="cls-2" d="M824.87,331.92c0,.13-7.22.23-16.07.23s-16.08-.1-16.08-.23,7.23-.22,16.08-.22,16.07.1,16.07.22Z"/>
    <path class="cls-2" d="M810.87,338.84h-5.45v11.47h5.45v-11.47Z"/>
    <path class="cls-2" d="M810.87,362.03h-5.45v11.47h5.45v-11.47Z"/>
    <path class="cls-2" d="M824.87,354.82c0,.12-7.22.22-16.07.22s-16.08-.1-16.08-.22,7.23-.23,16.08-.23,16.07.1,16.07.23Z"/>
    <path class="cls-8" d="M778.43,246.54h-5.45v11.47h5.45v-11.47Z"/>
    <path class="cls-2" d="M792.45,262.53c0,.12-7.23.22-16.07.22s-16.08-.1-16.08-.22,7.22-.22,16.08-.22,16.07.1,16.07.22Z"/>
    <path class="cls-8" d="M778.43,269.68h-5.45v11.47h5.45v-11.47Z"/>
    <path class="cls-2" d="M792.45,285.66c0,.12-7.23.22-16.07.22s-16.08-.1-16.08-.22,7.22-.22,16.08-.22,16.07.1,16.07.22Z"/>
    <path class="cls-8" d="M778.43,292.81h-5.45v11.47h5.45v-11.47Z"/>
    <path class="cls-2" d="M792.45,308.8c0,.12-7.23.22-16.07.22s-16.08-.1-16.08-.22,7.22-.22,16.08-.22,16.07.09,16.07.22Z"/>
    <path class="cls-8" d="M778.43,315.95h-5.45v11.47h5.45v-11.47Z"/>
    <path class="cls-2" d="M792.45,331.92c0,.13-7.23.23-16.07.23s-16.08-.1-16.08-.23,7.22-.22,16.08-.22,16.07.1,16.07.22Z"/>
    <path class="cls-8" d="M778.43,339.07h-5.45v11.47h5.45v-11.47Z"/>
    <path class="cls-2" d="M792.45,355.05c0,.13-7.23.22-16.07.22s-16.08-.09-16.08-.22,7.22-.22,16.08-.22,16.07.1,16.07.22Z"/>
    <path class="cls-8" d="M778.43,362.21h-5.45v11.47h5.45v-11.47Z"/>
    <path class="cls-4" d="M898.86,312.44h-78.48v248.71h78.48v-248.71Z"/>
    <path class="cls-6" d="M898.86,312.44h-39.23v248.01h39.23v-248.01Z"/>
    <path class="cls-4" d="M857.06,288.02h-27.72v24.42h27.72v-24.42Z"/>
    <path class="cls-6" d="M857.06,288.02h-6.6v24.42h6.6v-24.42Z"/>
    <path class="cls-2" d="M813.85,312.44v-1.43h87.31v1.43"/>
    <path class="cls-8" d="M842.52,323.09h-6.65v14h6.65v-14Z"/>
    <path class="cls-2" d="M859.63,342.64c0,.14-8.79.26-19.62.26s-19.62-.12-19.62-.26,8.79-.27,19.62-.27,19.62.07,19.62.27Z"/>
    <path class="cls-2" d="M882.1,323.09h-6.65v14h6.65v-14Z"/>
    <path class="cls-2" d="M899.21,342.64c0,.14-8.79.26-19.62.26s-19.65-.16-19.65-.26,8.79-.27,19.62-.27,19.65.07,19.65.27Z"/>
    <path class="cls-2" d="M882.1,350.89h-6.65v14h6.65v-14Z"/>
    <path class="cls-2" d="M899.21,370.4c0,.14-8.79.26-19.62.26s-19.62-.12-19.62-.26,8.79-.27,19.62-.27,19.62.13,19.62.27Z"/>
    <path class="cls-2" d="M882.1,379.55h-6.65v14h6.65v-14Z"/>
    <path class="cls-2" d="M899.21,399c0,.16-8.79.27-19.62.27s-19.65-.07-19.65-.27,8.79-.26,19.62-.26,19.65.16,19.65.26Z"/>
    <path class="cls-2" d="M882.1,408.19h-6.65v14h6.65v-14Z"/>
    <path class="cls-2" d="M899.21,427.7c0,.14-8.79.26-19.62.26s-19.65-.06-19.65-.26,8.79-.28,19.62-.28,19.65.13,19.65.28Z"/>
    <path class="cls-2" d="M882.1,436.02h-6.65v14h6.65v-14Z"/>
    <path class="cls-2" d="M899.21,455.53c0,.14-8.79.26-19.62.26s-19.62-.12-19.62-.26,8.79-.28,19.62-.28,19.62.1,19.62.28Z"/>
    <path class="cls-2" d="M882.1,463.95h-6.65v14h6.65v-14Z"/>
    <path class="cls-2" d="M882.1,492.26h-6.65v14h6.65v-14Z"/>
    <path class="cls-2" d="M899.21,483.46c0,.14-8.79.28-19.62.28s-19.62-.13-19.62-.28,8.79-.26,19.62-.26,19.62.12,19.62.26Z"/>
    <path class="cls-8" d="M842.52,351.33h-6.65v14h6.65v-14Z"/>
    <path class="cls-2" d="M859.63,370.82c0,.16-8.79.27-19.62.27s-19.62-.12-19.62-.27,8.79-.26,19.62-.26,19.62.12,19.62.26Z"/>
    <path class="cls-8" d="M842.52,379.55h-6.65v14h6.65v-14Z"/>
    <path class="cls-2" d="M859.63,399c0,.14-8.79.27-19.62.27s-19.62-.13-19.62-.27,8.79-.26,19.62-.26,19.62.17,19.62.26Z"/>
    <path class="cls-8" d="M842.52,407.78h-6.65v14h6.65v-14Z"/>
    <path class="cls-2" d="M859.63,427.29c0,.14-8.79.26-19.62.26s-19.62-.12-19.62-.26,8.79-.27,19.62-.27,19.62.13,19.62.27Z"/>
    <path class="cls-8" d="M842.52,436.02h-6.65v14h6.65v-14Z"/>
    <path class="cls-2" d="M859.63,455.53c0,.14-8.79.26-19.62.26s-19.62-.12-19.62-.26,8.79-.28,19.62-.28,19.62.1,19.62.28Z"/>
    <path class="cls-8" d="M842.52,464.26h-6.65v14h6.65v-14Z"/>
    <path class="cls-2" d="M859.63,483.75c0,.16-8.79.27-19.62.27s-19.62-.11-19.62-.27,8.79-.26,19.62-.26,19.62.11,19.62.26Z"/>
    <path class="cls-8" d="M842.52,492.48h-6.65v14h6.65v-14Z"/>
    <path class="cls-6" d="M822.29,383.46h-134.71v177.67h134.71v-177.67Z"/>
    <path class="cls-2" d="M822.29,383.46h-63.16v177.67h63.16v-177.67Z"/>
    <path class="cls-4" d="M727.94,407.51h-12.11v29.42h12.11v-29.42Z"/>
    <path class="cls-4" d="M727.94,522.68h-12.11v29.42h12.11v-29.42Z"/>
    <path class="cls-4" d="M759.13,448.49c0,.33-16.01.59-35.77.59s-35.78-.26-35.78-.59,16.01-.59,35.78-.59,35.77.23,35.77.59Z"/>
    <path class="cls-4" d="M727.94,465.54h-12.11v29.42h12.11v-29.42Z"/>
    <path class="cls-4" d="M759.13,506.51c0,.33-16.01.61-35.77.61s-35.78-.27-35.78-.61,16.01-.59,35.78-.59,35.77.26,35.77.59Z"/>
    <path class="cls-4" d="M784.64,407.51h-12.11v29.42h12.11v-29.42Z"/>
    <path class="cls-4" d="M810.93,407.51h-12.11v29.42h12.11v-29.42Z"/>
    <path class="cls-4" d="M784.64,463.36h-12.11v29.42h12.11v-29.42Z"/>
    <path class="cls-4" d="M810.93,463.36h-12.11v29.42h12.11v-29.42Z"/>
    <path class="cls-4" d="M784.64,519.2h-12.11v29.42h12.11v-29.42Z"/>
    <path class="cls-4" d="M810.93,519.2h-12.11v29.42h12.11v-29.42Z"/>
    <path class="cls-2" d="M832.4,377.28h-154.95v6.4h154.95v-6.4Z"/>
    <path class="cls-6" d="M823.23,384.29c0,.33-30.1.59-67.24.59s-67.24-.26-67.24-.59,30.1-.59,67.24-.59,67.24.26,67.24.59Z"/>
    <path class="cls-6" d="M282.33,560.53h-124.22l-.53-196.3h124.2l.55,196.3Z"/>
    <path class="cls-2" d="M281.78,364.23h-62.11v196.31h62.11v-196.31Z"/>
    <path class="cls-6" d="M215.61,325.57h-43.86v38.64h43.86v-38.64Z"/>
    <path class="cls-2" d="M215.61,325.57h-10.45v38.64h10.45v-38.64Z"/>
    <path class="cls-2" d="M285.41,361.97h-138.19v2.25h138.19v-2.25Z"/>
    <path class="cls-10" d="M192.61,381.08h-10.52v22.17h10.52v-22.17Z"/>
    <path class="cls-2" d="M219.67,412c0,.23-13.9.43-31.04.43s-31-.26-31-.43,13.89-.42,31.05-.42,30.98.13,30.98.42Z"/>
    <path class="cls-4" d="M255.25,381.08h-10.52v22.17h10.52v-22.17Z"/>
    <path class="cls-6" d="M282.33,412c0,.23-13.92.43-31.05.43s-31.05-.2-31.05-.43,13.9-.42,31.05-.42,31.05.13,31.05.42Z"/>
    <path class="cls-4" d="M255.25,425.09h-10.52v22.17h10.52v-22.17Z"/>
    <path class="cls-6" d="M282.33,455.96c0,.23-13.92.43-31.05.43s-31.05-.2-31.05-.43,13.9-.42,31.05-.42,31.05.19,31.05.42Z"/>
    <path class="cls-4" d="M255.25,470.44h-10.52v22.17h10.52v-22.17Z"/>
    <path class="cls-6" d="M282.33,501.31c0,.23-13.92.42-31.05.42s-31.05-.19-31.05-.42,13.9-.42,31.05-.42,31.05.19,31.05.42Z"/>
    <path class="cls-4" d="M255.25,515.79h-10.52v22.17h10.52v-22.17Z"/>
    <path class="cls-6" d="M282.33,546.65c0,.23-13.92.42-31.05.42s-31.05-.19-31.05-.42,13.9-.42,31.05-.42,31.05.16,31.05.42Z"/>
    <path class="cls-10" d="M192.61,425.76h-10.52v22.17h10.52v-22.17Z"/>
    <path class="cls-2" d="M219.67,456.64c0,.23-13.9.42-31.04.42s-31.05-.19-31.05-.42,13.89-.43,31.05-.43,31.04.2,31.04.43Z"/>
    <path class="cls-10" d="M192.61,470.45h-10.52v22.17h10.52v-22.17Z"/>
    <path class="cls-2" d="M219.67,501.32c0,.23-13.9.42-31.04.42s-31-.14-31-.42,13.89-.42,31.05-.42,30.98.19,30.98.42Z"/>
    <path class="cls-10" d="M192.61,515.14h-10.52v22.17h10.52v-22.17Z"/>
    <path class="cls-2" d="M219.67,546.02c0,.23-13.9.42-31.04.42s-31-.19-31-.42,13.89-.43,31.05-.43,30.98.19,30.98.43Z"/>
    <path class="cls-6" d="M406.55,460.53h-104.06l-.46-163.83h104.07l.45,163.83Z"/>
    <path class="cls-2" d="M406.1,296.7h-52.04v163.83h52.04v-163.83Z"/>
    <path class="cls-6" d="M350.67,264.45h-36.75v32.25h36.75v-32.25Z"/>
    <path class="cls-2" d="M350.67,264.45h-8.76v32.25h8.76v-32.25Z"/>
    <path class="cls-2" d="M409.15,294.82h-115.79v1.88h115.79v-1.88Z"/>
    <path class="cls-10" d="M331.39,310.76h-8.81v18.5h8.81v-18.5Z"/>
    <path class="cls-2" d="M354.06,336.53c0,.2-11.65.36-26.01.36s-26.01-.16-26.01-.36,11.65-.35,26.01-.35,26.01.16,26.01.35Z"/>
    <path class="cls-4" d="M383.87,310.76h-8.82v18.5h8.82v-18.5Z"/>
    <path class="cls-6" d="M406.56,336.53c0,.2-11.66.36-26.01.36s-26.01-.16-26.01-.36,11.65-.35,26.01-.35,26.01.16,26.01.35Z"/>
    <path class="cls-4" d="M383.87,347.5h-8.82v18.5h8.82v-18.5Z"/>
    <path class="cls-6" d="M406.56,373.26c0,.2-11.66.36-26.01.36s-26.01-.16-26.01-.36,11.65-.35,26.01-.35,26.01.16,26.01.35Z"/>
    <path class="cls-4" d="M383.87,385.34h-8.82v18.5h8.82v-18.5Z"/>
    <path class="cls-6" d="M406.56,411.11c0,.19-11.66.35-26.01.35s-26.01-.16-26.01-.35,11.65-.35,26.01-.35,26.01.14,26.01.35Z"/>
    <path class="cls-4" d="M383.87,423.19h-8.82v18.5h8.82v-18.5Z"/>
    <path class="cls-6" d="M406.56,448.95c0,.19-11.66.35-26.01.35s-26.01-.16-26.01-.35,11.65-.36,26.01-.36,26.01.16,26.01.36Z"/>
    <path class="cls-10" d="M331.39,348.06h-8.81v18.5h8.81v-18.5Z"/>
    <path class="cls-2" d="M354.06,373.82c0,.2-11.65.36-26.01.36s-26.01-.16-26.01-.36,11.65-.35,26.01-.35,26.01.16,26.01.35Z"/>
    <path class="cls-10" d="M331.39,385.36h-8.81v18.5h8.81v-18.5Z"/>
    <path class="cls-2" d="M354.06,411.12c0,.19-11.65.35-26.01.35s-26.01-.16-26.01-.35,11.65-.36,26.01-.36,26.01.16,26.01.36Z"/>
    <path class="cls-10" d="M331.39,422.65h-8.81v18.5h8.81v-18.5Z"/>
    <path class="cls-2" d="M354.06,448.42c0,.19-11.65.35-26.01.35s-26.01-.16-26.01-.35,11.65-.36,26.01-.36,26.01.16,26.01.36Z"/>
    <path class="cls-6" d="M715.43,533.91h-104.07l-.45-254.32h104.07l.45,254.32Z"/>
    <path class="cls-2" d="M714.98,279.59h-52.04v254.3h52.04v-254.3Z"/>
    <path class="cls-6" d="M659.53,247.34h-36.75v32.25h36.75v-32.25Z"/>
    <path class="cls-2" d="M659.53,247.34h-8.76v32.25h8.76v-32.25Z"/>
    <path class="cls-2" d="M718.03,277.71h-110.23v1.88h110.23v-1.88Z"/>
    <path class="cls-10" d="M640.27,293.67h-8.82v18.5h8.82v-18.5Z"/>
    <path class="cls-2" d="M662.94,319.43c0,.19-11.65.35-26.01.35s-26.01-.16-26.01-.35,11.65-.36,26.01-.36,26.01.16,26.01.36Z"/>
    <path class="cls-4" d="M692.75,293.67h-8.81v18.5h8.81v-18.5Z"/>
    <path class="cls-6" d="M715.43,319.43c0,.19-11.65.35-26.01.35s-26.01-.16-26.01-.35,11.65-.36,26.01-.36,26.01.16,26.01.36Z"/>
    <path class="cls-4" d="M692.75,330.4h-8.81v18.5h8.81v-18.5Z"/>
    <path class="cls-6" d="M715.43,356.17c0,.19-11.65.35-26.01.35s-26.01-.16-26.01-.35,11.65-.36,26.01-.36,26.01.16,26.01.36Z"/>
    <path class="cls-4" d="M692.75,368.23h-8.81v18.5h8.81v-18.5Z"/>
    <path class="cls-6" d="M715.43,394c0,.2-11.65.36-26.01.36s-26.01-.16-26.01-.36,11.65-.35,26.01-.35,26.01.16,26.01.35Z"/>
    <path class="cls-4" d="M692.75,406.08h-8.81v18.5h8.81v-18.5Z"/>
    <path class="cls-6" d="M715.43,431.84c0,.2-11.65.36-26.01.36s-26.01-.16-26.01-.36,11.65-.35,26.01-.35,26.01.16,26.01.35Z"/>
    <path class="cls-10" d="M640.27,330.96h-8.82v18.5h8.82v-18.5Z"/>
    <path class="cls-2" d="M662.94,356.72c0,.2-11.65.36-26.01.36s-26.01-.16-26.01-.36,11.65-.35,26.01-.35,26.01.16,26.01.35Z"/>
    <path class="cls-10" d="M640.27,368.25h-8.82v18.5h8.82v-18.5Z"/>
    <path class="cls-2" d="M662.94,394.01c0,.2-11.65.36-26.01.36s-26.01-.16-26.01-.36,11.65-.35,26.01-.35,26.01.16,26.01.35Z"/>
    <path class="cls-10" d="M640.27,405.54h-8.82v18.5h8.82v-18.5Z"/>
    <path class="cls-2" d="M662.94,431.31c0,.2-11.65.36-26.01.36s-26.01-.16-26.01-.36,11.65-.35,26.01-.35,26.01.16,26.01.35Z"/>
    <path class="cls-6" d="M549.94,284.95c.69-5.53-6.46-10.12-11.82-10.55-2.56-.23-5.22.2-7.64-.72-5.26-2.01-7.36-9.42-12.49-11.78-3.83-1.76-8.25-.2-11.97,1.85-3.71,2.05-7.38,4.61-11.56,4.9-3.61.25-7.53-1.21-10.69.72-2.35,1.44-3.58,4.34-5.78,6.14-2.22,1.5-4.85,2.28-7.53,2.23-2.66-.05-5.3.44-7.76,1.44-1.27.59-2.33,1.56-3.02,2.78-.7,1.22-1,2.62-.86,4.02l91.13-1.03Z"/>
    <path class="cls-6" d="M981.82,233.47c.69-5.52-6.44-10.12-11.82-10.55-2.56-.22-5.22.2-7.64-.72-5.26-1.99-7.36-9.41-12.49-11.78-3.83-1.76-8.25-.19-11.97,1.85s-7.38,4.62-11.56,4.91c-3.61.25-7.54-1.21-10.71.71-2.35,1.44-3.58,4.34-5.78,6.16-2.22,1.5-4.85,2.28-7.53,2.23-2.66-.05-5.3.44-7.76,1.45-1.27.59-2.33,1.56-3.02,2.78-.7,1.22-1,2.62-.86,4.01l91.14-1.04Z"/>
    <path class="cls-4" d="M415.19,215.22c.71-5.52-6.44-10.12-11.81-10.55-2.57-.22-5.23.2-7.64-.72-5.26-1.99-7.36-9.41-12.49-11.78-3.84-1.76-8.25-.19-11.96,1.85-3.71,2.04-7.4,4.62-11.56,4.91-3.61.25-7.53-1.21-10.69.71-2.35,1.44-3.58,4.41-5.78,6.16-2.22,1.51-4.85,2.28-7.53,2.23-2.66-.05-5.3.44-7.76,1.45-1.27.59-2.33,1.56-3.02,2.78-.7,1.22-1,2.62-.86,4.01l91.11-1.04Z"/>
    <path class="cls-4" d="M718.58,213.92c.5-3.99-4.65-7.23-8.53-7.6-1.85-.17-3.77.14-5.52-.52-3.79-1.45-5.3-6.81-9-8.51-2.78-1.27-5.95-.13-8.67,1.34-2.72,1.47-5.33,3.32-8.32,3.54-2.6.17-5.43-.88-7.72.51-1.7,1.04-2.59,3.18-4.16,4.44-1.6,1.1-3.5,1.66-5.43,1.62-1.91-.06-3.82.28-5.59,1-.92.42-1.68,1.12-2.18,2-.5.88-.72,1.89-.62,2.9l65.75-.71Z"/>
    <path class="cls-4" d="M80.44,242.69c.51-3.99-4.65-7.23-8.53-7.62-1.86.08-3.71-.09-5.52-.52-3.79-1.44-5.3-6.79-9-8.5-2.77-1.27-5.95-.13-8.67,1.34-2.72,1.47-5.33,3.32-8.32,3.53-2.62.19-5.43-.87-7.72.52-1.71,1.04-2.59,3.18-4.16,4.44-1.6,1.1-3.5,1.66-5.43,1.6-1.91-.05-3.82.3-5.59,1.01-.92.42-1.68,1.12-2.18,2-.5.88-.72,1.89-.62,2.9l65.75-.71Z"/>
    <path class="cls-2" d="M475.99,638.32l-18.38,60.14h79.32l-24.97-60.14h-35.97Z"/>
    <path class="cls-2" d="M456.44,722.81l-32.82,64.19h149.94l-33.68-64.19h-83.44Z"/>
    <path class="cls-2" d="M69.11,813.99l-33.92.41,201.43-252.77h14.65l-182.16,252.36Z"/>
    <path class="cls-2" d="M931.62,817.56l33.92.4-201.43-252.78h-14.65l182.16,252.38Z"/>
    <path class="cls-7" d="M952.91,561.13c0,.2-204.4.37-456.49.37s-456.54-.17-456.54-.37,204.36-.38,456.54-.38,456.49.17,456.49.38Z"/>
  </g>
  <g>
    <g>
      <path class="cls-7" d="M559.44,549.36s-6.44-6.25-8.24,31.59c-1.74,35.7-4.28,87.18,4.6,109.27.96,2.41,2.68,4.44,4.91,5.77,2.38,1.39,5.01,2.31,7.73,2.69,7.73,1.16,38.25.5,38.25.5,0,0,17.33,0,17.59-13.79.22-11.34,0-36.02,0-36.02l-64.85-100.02Z"/>
      <g class="cls-12">
        <path class="cls-1" d="M559.44,549.36s-6.44-6.25-8.24,31.59c-1.74,35.7-4.28,87.18,4.6,109.27.96,2.41,2.68,4.44,4.91,5.77,2.38,1.39,5.01,2.31,7.73,2.69,7.73,1.16,38.25.5,38.25.5,0,0,17.33,0,17.59-13.79.22-11.34,0-36.02,0-36.02l-64.85-100.02Z"/>
      </g>
      <path class="cls-7" d="M632.31,557.67s6.44-6.25,8.25,31.57c1.73,35.71,4.27,87.18-4.6,109.27-.97,2.41-2.7,4.45-4.92,5.79-2.37,1.4-5,2.31-7.73,2.68-7.73,1.16-38.25.52-38.25.52,0,0-17.32,0-17.59-13.79-.21-11.35,1.35-51.11,1.35-51.11l63.5-84.93Z"/>
      <path class="cls-3" d="M632.31,557.67l-.28.41c-.19.28-.49.68-.86,1.2l-3.39,4.61c-3,4.05-7.37,9.94-12.89,17.41l-45.78,61.46v-.16c-.45,12.49-.94,25.89-1.29,39.95-.07,3.52-.13,7.09-.08,10.67,0,.9.15,1.77.22,2.65.08.44.19.87.32,1.29.1.44.23.87.41,1.29.72,1.66,1.79,3.13,3.15,4.33,2.99,2.31,6.56,3.74,10.31,4.14,1.91.23,3.84.34,5.76.31l5.86.08c6.74.07,13.4.09,19.96,0,3.24-.03,6.47-.23,9.69-.6,3.12-.44,6.08-1.63,8.64-3.48,1.17-.95,2.16-2.12,2.9-3.44.65-1.36,1.18-2.76,1.61-4.2.5-1.41.91-2.85,1.22-4.32l.55-2.15c.15-.74.27-1.46.41-2.18,1.06-5.68,1.8-11.41,2.22-17.18.85-11.25.98-21.99.91-32.01-.06-10.03-.37-19.4-.71-27.93-.76-17.05-1.09-30.93-2.73-40.32-.79-4.69-1.7-8.36-3.09-10.49-.63-1.07-1.53-1.69-2.2-1.6-.33.02-.65.14-.92.34.05-.07.12-.12.19-.17.22-.14.46-.22.72-.23.71-.12,1.66.52,2.32,1.6,1.44,2.14,2.4,5.81,3.23,10.52,1.71,9.43,2.13,23.29,2.95,40.35.36,8.53.68,17.89.79,27.93.1,10.04,0,20.8-.85,32.08-.39,5.75-1.1,11.48-2.13,17.15-.14.74-.26,1.47-.41,2.2l-.55,2.18c-.34,1.48-.77,2.93-1.29,4.36-.43,1.48-.99,2.92-1.66,4.3-.77,1.4-1.81,2.64-3.05,3.63-2.64,1.92-5.7,3.16-8.93,3.62-3.25.38-6.52.59-9.79.62-6.57.15-13.23.13-19.97,0l-5.88-.08c-1.95.02-3.9-.08-5.84-.31-3.88-.42-7.56-1.91-10.64-4.3-1.43-1.26-2.56-2.82-3.31-4.57-.18-.41-.33-.85-.43-1.29-.14-.44-.26-.89-.35-1.35-.06-.91-.22-1.84-.23-2.75,0-3.61,0-7.16.1-10.7.31-14.07.8-27.49,1.29-39.95v-.15c18.91-25.21,34.79-46.39,45.98-61.34l13.04-17.31,3.47-4.56.89-1.16c.13-.14.27-.27.41-.39Z"/>
      <path class="cls-7" d="M310.16,549.68s6.44-6.25,8.25,31.59c1.74,35.7,4.28,87.18-4.6,109.27-.97,2.41-2.7,4.44-4.92,5.77-2.38,1.4-5,2.31-7.73,2.69-7.73,1.16-38.25.5-38.25.5,0,0-17.32,0-17.59-13.79-.21-11.34,0-36.02,0-36.02l64.85-100.02Z"/>
      <g class="cls-12">
        <path class="cls-1" d="M310.16,549.68s6.44-6.25,8.25,31.59c1.74,35.7,4.28,87.18-4.6,109.27-.97,2.41-2.7,4.44-4.92,5.77-2.38,1.4-5,2.31-7.73,2.69-7.73,1.16-38.25.5-38.25.5,0,0-17.32,0-17.59-13.79-.21-11.34,0-36.02,0-36.02l64.85-100.02Z"/>
      </g>
      <path class="cls-7" d="M240.38,557.52s-6.44-6.25-8.23,31.57c-1.74,35.71-4.28,87.2,4.6,109.27.96,2.42,2.69,4.45,4.92,5.79,2.38,1.4,5,2.31,7.73,2.69,7.73,1.16,38.25.5,38.25.5,0,0,17.33,0,17.59-13.79.22-11.34-1.29-51.11-1.29-51.11l-63.57-84.93Z"/>
      <path class="cls-3" d="M240.38,557.52l.32.39.9,1.16,3.52,4.56,13.03,17.31,45.98,61.34v.16c.48,12.49.98,25.9,1.29,39.95,0,3.52.13,7.07.09,10.68,0,.9-.15,1.83-.23,2.74,0,.46-.23.9-.34,1.35-.1.44-.25.87-.44,1.29-.75,1.75-1.88,3.32-3.31,4.58-3.08,2.39-6.76,3.88-10.63,4.3-1.94.24-3.9.34-5.85.31l-5.86.08c-6.74.08-13.42.09-19.98,0-3.27-.03-6.54-.24-9.79-.6-3.23-.47-6.3-1.72-8.94-3.63-1.24-1-2.28-2.24-3.05-3.63-.67-1.39-1.22-2.83-1.66-4.3-.51-1.43-.94-2.88-1.29-4.35l-.54-2.18c-.15-.73-.28-1.47-.43-2.19-1.06-5.7-1.79-11.46-2.2-17.24-.82-11.28-.93-22.02-.84-32.08.09-10.05.43-19.4.77-27.93.82-17.05,1.29-30.93,2.95-40.35.84-4.7,1.79-8.38,3.23-10.52.21-.45.53-.84.94-1.12.41-.28.89-.45,1.39-.48.25.02.5.1.71.25.07.04.14.09.19.15-.27-.2-.58-.31-.92-.33-.67-.09-1.57.53-2.2,1.61-1.38,2.13-2.29,5.79-3.09,10.48-1.62,9.42-1.97,23.28-2.73,40.33-.32,8.53-.62,17.89-.7,27.93-.08,10.04,0,20.77.9,32.03.42,5.76,1.16,11.49,2.22,17.17.14.72.27,1.46.43,2.18l.59,2.18c.35,1.46.78,2.89,1.29,4.3.43,1.44.97,2.84,1.62,4.2.73,1.33,1.71,2.5,2.9,3.44,2.55,1.84,5.51,3.04,8.62,3.48,3.22.37,6.46.57,9.7.61,6.56.15,13.21.13,19.95,0l5.86-.08c1.92.03,3.85-.07,5.76-.3,3.75-.41,7.32-1.85,10.31-4.15,1.35-1.2,2.42-2.67,3.13-4.33.18-.41.32-.85.41-1.29.13-.42.24-.85.32-1.29.08-.89.22-1.75.23-2.64,0-3.6,0-7.15-.09-10.67-.3-14.09-.77-27.49-1.29-39.95v.15l-45.72-61.39-12.89-17.41c-1.47-2.01-2.58-3.56-3.39-4.61l-.86-1.2-.31-.41Z"/>
      <path class="cls-7" d="M650.94,453.94s-1.93,6.44-5.93,7.06c-3.99.62-35.5,1.6-35.5,1.6l-3.08,6.14h-5.93l-4.32-24.58,3.67.74c.61.12,1.19.38,1.68.76.49.39.88.89,1.13,1.45.28.63.73,1.17,1.29,1.57.56.4,1.22.64,1.91.7l45.08,4.56Z"/>
      <path class="cls-5" d="M649.63,454.89c.55-.03,1.08-.17,1.57-.41.49-.24.92-.59,1.27-1.01.35-.42.61-.91.76-1.43.15-.52.19-1.07.12-1.62-1.03-7.02-4.83-20.62-18.85-22.68-8.66-1.37-17.47-1.58-26.19-.64-2.18.27-3.25,2.18-3.52,4.29-1.19,9.65-.22,21.61,2.66,23.08,2.87,1.47,31.96,1.21,42.19.42Z"/>
      <path class="cls-7" d="M630.84,427.81c.32.28.59.6.83.95.49.63,1.17,1.59,1.96,2.78,4.11,6.26,7.19,13.14,9.11,20.38.36,1.38.62,2.51.76,3.3.11.4.16.81.15,1.22-.1,0-.53-1.69-1.37-4.41-1.08-3.54-2.37-7-3.87-10.39-1.52-3.39-3.24-6.68-5.16-9.86-1.52-2.47-2.51-3.93-2.42-3.98Z"/>
      <path class="cls-7" d="M223.21,455.45s1.95,6.44,5.94,7.06c3.99.62,35.48,1.6,35.48,1.6l3.08,6.12h5.93l4.32-24.58-3.67.73c-.62.12-1.19.39-1.68.79-.49.39-.88.9-1.14,1.47-.28.62-.72,1.15-1.27,1.54-.55.39-1.2.64-1.87.7l-45.11,4.56Z"/>
      <path class="cls-5" d="M224.5,456.38c-.54-.03-1.08-.17-1.56-.42-.49-.24-.92-.59-1.27-1.01-.35-.42-.61-.91-.76-1.43-.15-.52-.19-1.07-.12-1.61,1.03-7.02,4.83-20.62,18.85-22.68,8.66-1.37,17.46-1.59,26.17-.64,2.19.27,3.26,2.18,3.52,4.29,1.2,9.65.23,21.61-2.58,23.08-2.81,1.47-31.95,1.22-42.26.43Z"/>
      <path class="cls-7" d="M243.3,429.31c-.73,1.37-1.52,2.7-2.38,3.98-1.91,3.18-3.63,6.47-5.15,9.86-1.5,3.38-2.79,6.86-3.87,10.4-.84,2.72-1.29,4.42-1.37,4.41-.02-.43.04-.87.15-1.29.14-.79.39-1.91.75-3.29,1.93-7.24,5.01-14.12,9.12-20.37.79-1.2,1.47-2.15,1.96-2.8.23-.33.49-.63.79-.9Z"/>
      <path class="cls-5" d="M653.89,541.76c-1.1-9.52-22.53-34.47-22.53-34.47-5.95-14.18-17.41-34.67-30.48-54.73-10.4-36.5-28.35-80.62-36.57-90.15-8.22-9.52-14.4-13.2-31.36-12.67-16.96.53-75.73.26-90,0h-5.81c-14.27.26-71.58.53-88.55,0-16.97-.53-23.2,3.15-31.35,12.67-8.16,9.52-26.16,53.65-36.56,90.11-13.05,20.1-24.52,40.58-30.4,54.77,0,0-21.44,24.95-22.54,34.47-1.1,9.52-2.01,68.59,3.47,84.99,3.87,11.72,8.56,16.75,18.67,20.83,8.1,3.17,16.74,4.76,25.44,4.69h332.8c7.41.05,14.75-1.41,21.59-4.28,10.31-4.42,13.52-9.87,17.63-22.17,5.46-16.35,7.6-74.54,6.56-84.06Z"/>
      <path class="cls-2" d="M548.15,355.34c0-.89-5.5-8.25-8.53-11.68-3.03-3.43-4.2-3.31-6.82-3.04-3.27.32-11.06,4.3-11.46,5.83-.33,2.13-.53,4.29-.62,6.44l5.25-.13s-1.16-4.66.39-5.59c2.29-1.38,3.16-1.77,5-1,1.84.76,4.2,6.84,4.2,6.84l12.59,2.33Z"/>
      <path class="cls-7" d="M334.54,349.91c-.08.07-.17.14-.26.19l-.76.52c-.66.48-1.64,1.16-2.8,2.17-3.23,2.86-6,6.2-8.22,9.9-.72,1.15-1.46,2.37-2.17,3.67l-2.11,4.1c-1.47,2.84-2.98,5.9-4.54,9.14-3.13,6.44-6.56,13.57-9.95,21.12-5.92,12.82-10.9,26.05-14.91,39.59-1.47,5.16-2.47,9.46-3.12,12.41-.31,1.44-.54,2.58-.72,3.4l-.21.89c-.02.1-.05.2-.09.3-.01-.1-.01-.21,0-.31,0-.23.08-.53.14-.89.14-.84.35-1.98.59-3.44.57-2.96,1.51-7.24,2.93-12.47,3.88-13.61,8.82-26.89,14.76-39.73,3.4-7.55,6.84-14.68,10.01-21.12,1.57-3.23,3.09-6.29,4.6-9.11.73-1.42,1.46-2.8,2.15-4.11.7-1.31,1.47-2.58,2.2-3.67,2.28-3.7,5.14-7.02,8.47-9.83,1.22-1.05,2.56-1.96,3.99-2.69Z"/>
      <path class="cls-7" d="M438.34,369.46s-44.38,0-67.52.15c-15.88.12-51.94-1.29-53.86,2.58-.86,1.77-8.88,17.24-16.51,35.12-9.21,21.57-18.04,46.4-15.76,52.12l148.5-2.17h157.02s1.75-5.08-1.5-14.27c-3.25-9.19-24.9-65.58-28.65-69.45-3.75-3.87-67.08-3.39-121.73-4.09Z"/>
      <path class="cls-3" d="M438.3,372.93s-42.61,0-64.82.14c-15.25.1-47.46-.14-51.92,4.42-2.04,2.07-20.98,38.04-28.35,59.8-3.16,9.37,6.2,16.89,16.39,17.06h274.5s1.67-4.7-1.44-13.22c-3.12-8.52-23.8-58.46-27.79-61.64-6.71-5.43-64.09-5.92-116.57-6.56Z"/>
      <g class="cls-12">
        <path class="cls-1" d="M300.78,452.33s12.72-18.56,20.46-19.45c3.35-.37,31.54-.75,67.01-1.07.74,0,1.46.15,2.13.46.67.31,1.26.76,1.73,1.32.49-.57,1.1-1.03,1.79-1.34.68-.32,1.43-.48,2.18-.49,25.69-.22,54.35-.4,79.9-.54,1.07,0,2.11.39,2.9,1.12.78-.72,1.81-1.13,2.87-1.13,37.19-.21,66.42-.31,67.61-.27,6.51.21,34.79,23.76,34.79,23.76l-275.54-.31c-2.72-.19-5.39-.89-7.85-2.06Z"/>
      </g>
      <path class="cls-2" d="M340.77,515.56s-10.21,0-9.56,12.04c.35,6.6-2.36,39.29,21.47,43.89,23.83,4.6,177.84,1.6,177.84,1.6,0,0,11.6-.5,14.63-17.17l1.92-28.85s-.82-7.73-7.29-8.67c-6.47-.94-199.01-2.84-199.01-2.84Z"/>
      <path class="cls-7" d="M340.77,515.56h4.14l11.93.06,44.41.37,67.01.74,40.2.57,21.46.41,5.49.17c.91,0,1.84.08,2.78.13l1.39.09c.48.06.95.16,1.42.28,1.83.61,3.39,1.83,4.42,3.45,1.02,1.58,1.68,3.37,1.93,5.23-.62,9.2-1.29,18.94-1.92,28.85-.49,2.67-1.31,5.26-2.44,7.73-1.22,2.6-3.02,4.88-5.27,6.66-1.78,1.41-3.85,2.4-6.07,2.89-1.11.17-2.24.24-3.36.21h-3.31l-13.11.22-25.65.32c-16.82.18-33.03.3-48.48.3s-30.13-.07-43.82-.35c-3.44,0-6.8-.15-10.13-.23-3.32-.08-6.56-.18-9.74-.34-3.18-.15-6.31-.23-9.37-.49-3.05-.26-6.04-.36-8.94-.83-2.86-.24-5.66-.93-8.3-2.06-2.48-1.09-4.73-2.64-6.64-4.56-3.35-3.55-5.78-7.87-7.08-12.58-1.18-4.02-1.93-8.15-2.23-12.32-.32-3.87-.35-7.36-.34-10.52v-4.49c0-.7.15-1.37.23-2.02.08-.66.3-1.29.53-1.84.7-1.98,2.07-3.66,3.87-4.76,1.14-.65,2.38-1.08,3.67-1.29.43-.07.86-.11,1.29-.1-.43.03-.86.09-1.29.18-1.27.22-2.49.65-3.61,1.29-1.76,1.09-3.1,2.76-3.79,4.72-.22.57-.32,1.19-.5,1.82-.18.63-.17,1.29-.22,2v4.47c0,3.16,0,6.66.4,10.49.32,4.15,1.08,8.26,2.27,12.24,1.29,4.65,3.7,8.9,7.02,12.4,1.87,1.88,4.09,3.4,6.52,4.46,2.6,1.1,5.37,1.78,8.18,2,2.86.45,5.86.55,8.9.8,3.04.24,6.16.31,9.34.46,3.18.15,6.44.23,9.76.31s6.68.19,10.12.23c13.73.26,28.35.27,43.82.27s31.66-.14,48.47-.32l25.65-.35,13.11-.21,3.31-.06c1.08.03,2.17-.03,3.23-.19,2.11-.46,4.09-1.4,5.79-2.75,2.17-1.73,3.91-3.93,5.09-6.44,1.11-2.41,1.91-4.94,2.38-7.55.66-9.91,1.29-19.67,1.93-28.85-.25-1.7-.85-3.33-1.76-4.78-.94-1.51-2.38-2.65-4.07-3.2-.42-.12-.85-.21-1.29-.27l-1.37-.08c-.91,0-1.82-.12-2.74-.13l-5.48-.17-21.46-.44-40.19-.62-67.01-.86-44.41-.57-11.93-.18h-3.09l-1.06-.04Z"/>
      <path class="cls-7" d="M347.24,522.75s-9.56,0-8.67,8.88c.48,4.81-2.35,28.52,19.69,31.88,22.04,3.36,157.22,2.04,157.22,2.04,0,0,16.93-.77,20.54-12.11l1.88-22.29s.63-4.8-5.35-5.52c-5.98-.72-185.32-2.87-185.32-2.87Z"/>
      <path class="cls-2" d="M518.4,522.75c-.27.64-4.92,45.62-4.92,45.62h7.73l5.89-45.62h-8.7Z"/>
      <path class="cls-2" d="M492.42,522.71c-.23.67-1.72,45.84-1.72,45.84l7.73-.52,2.72-45.93-8.74.61Z"/>
      <path class="cls-2" d="M468.59,522.93c-.22.67-1.7,45.84-1.7,45.84l9.15-.61,1.29-45.8-8.74.57Z"/>
      <path class="cls-2" d="M359.13,520.92c.27.66,4.92,45.62,4.92,45.62h-7.73l-5.89-45.62h8.7Z"/>
      <path class="cls-2" d="M385.11,520.88c.23.67,1.71,45.84,1.71,45.84l-7.73-.52-2.67-45.89,8.69.57Z"/>
      <path class="cls-2" d="M408.94,521.11c.22.67,1.7,45.83,1.7,45.83l-9.15-.59-1.29-45.82,8.74.58Z"/>
      <path class="cls-2" d="M411.96,522.1c.89,1.44,17.46,12.39,17.46,12.39h20.14l15.93-12.39h-53.53Z"/>
      <path class="cls-2" d="M427.18,528.33l4.25,38.64h15l4.25-38.64h-23.51Z"/>
      <path class="cls-7" d="M340.07,565.11c-.36.02-.71.02-1.07,0h-3.07c-2.67,0-6.52-.19-11.28-.46-4.76-.27-10.43-.73-16.75-1.4-6.33-.67-13.07-1.62-20.26-2.81-7.19-1.19-13.96-2.58-20.09-3.97-6.13-1.39-11.6-2.82-16.2-4.11-4.6-1.29-8.26-2.4-10.79-3.23l-2.9-.95c-.34-.1-.68-.23-1.01-.39.35.06.7.14,1.04.26l2.94.84c2.58.76,6.25,1.8,10.84,3.04,4.59,1.24,10.08,2.58,16.21,3.97,6.13,1.39,12.89,2.71,20.07,3.87,7.18,1.16,14.02,2.11,20.26,2.84,6.24.72,11.91,1.21,16.65,1.53,4.74.32,8.6.55,11.26.67l3.05.17c.37.01.73.07,1.08.15Z"/>
      <path class="cls-4" d="M264.45,494.5c-.7-.26-1.48-.27-2.18-.02-.71.25-1.3.74-1.68,1.39-2.23,3.87-6.44,12.27-7.09,21.44-.92,12.57,0,35.4,0,35.4,0,0,46.12,10.39,65.21,10.67,0,0-5.92-31.74-10.76-43.74-4.06-10.21-34.47-21.88-43.49-25.14Z"/>
      <path class="cls-7" d="M264.45,494.5c.16.03.32.08.48.14l1.35.46c1.2.43,2.96,1.07,5.22,1.95,6.43,2.43,12.73,5.2,18.87,8.3,4.29,2.12,8.37,4.64,12.18,7.53,2.17,1.58,4,3.59,5.37,5.9,1.1,2.57,2.02,5.22,2.77,7.91,1.62,5.49,3.04,11.35,4.42,17.48,1.38,6.12,2.71,12.5,3.97,19.11l.08.39h-.41c-5.46-.19-10.91-.7-16.32-1.52-8.91-1.29-17.5-2.78-25.7-4.36-8.2-1.57-15.99-3.17-23.26-4.76h-.22v-.22c-.31-9.27-.44-17.81-.31-25.4,0-3.8.17-7.36.45-10.66.3-3.03.92-6.02,1.86-8.92,1.28-4.09,3.01-8.04,5.15-11.75.27-.53.69-.96,1.19-1.27.51-.31,1.09-.47,1.68-.47.41-.02.81.06,1.17.24-.38-.11-.78-.16-1.17-.15-.57.02-1.12.19-1.59.5-.48.31-.86.73-1.11,1.24-2.09,3.73-3.78,7.68-5.04,11.77-.9,2.88-1.5,5.85-1.77,8.85-.26,3.27-.35,6.83-.4,10.62-.08,7.59.08,16.12.43,25.38l-.23-.27c7.26,1.6,15.05,3.21,23.2,4.78,8.14,1.57,16.75,3.11,25.66,4.33,5.38.82,10.8,1.32,16.24,1.52l-.34.39c-1.29-6.6-2.58-12.98-3.87-19.1-1.29-6.12-2.77-11.97-4.37-17.45-.73-2.67-1.64-5.28-2.71-7.84-1.32-2.24-3.07-4.19-5.15-5.75-3.76-2.91-7.77-5.46-12-7.63-7.73-4.02-14.18-6.68-18.7-8.52l-5.15-2.04-1.29-.53-.63-.19Z"/>
      <path class="cls-7" d="M285.47,456.37c-.28.55-.62,1.07-1.01,1.55l-2.87,4.1c-2.4,3.48-5.59,8.36-9.02,13.85-3.43,5.49-6.31,10.52-8.44,14.18l-2.58,4.3c-.28.54-.62,1.06-1.01,1.53.2-.58.46-1.13.77-1.65.54-1.06,1.29-2.58,2.36-4.41,2.04-3.7,4.91-8.78,8.29-14.28,3.38-5.5,6.64-10.31,9.15-13.78,1.29-1.71,2.29-3.08,3.05-3.99.4-.5.83-.97,1.3-1.41Z"/>
      <path class="cls-7" d="M333.85,517.54s-.14-.17-.36-.52c-.22-.35-.53-.94-.89-1.56-.47-.84-.9-1.7-1.29-2.58-.48-.99-1.03-2.13-1.53-3.43-1.25-3-2.33-6.07-3.23-9.2-1.05-3.82-1.91-7.69-2.58-11.6-.71-4.18-1.15-8.17-1.44-11.82-.3-3.65-.37-6.95-.32-9.7,0-1.39,0-2.64.08-3.74.08-1.1.08-2.04.14-2.81.06-.77.12-1.29.15-1.78,0-.21.03-.41.1-.6.02.21.02.41,0,.62v8.3c0,2.76.21,6.04.48,9.67.27,3.62.79,7.62,1.48,11.77.7,4.15,1.62,8.05,2.58,11.6.83,3.11,1.82,6.18,2.96,9.19.48,1.29.99,2.45,1.44,3.45.45,1.01.82,1.87,1.19,2.58l.79,1.61c.1.18.19.36.26.55Z"/>
      <g class="cls-12">
        <path class="cls-1" d="M248.35,547.98s-5.23,11.6,27.27,18.62c32.9,7.09,63.38-1.47,63.38-1.47l-18.04-.79s-67.01-9.58-67.28-12.42c-1.06-11.15-.5-29-.5-29l-4.82,25.05Z"/>
      </g>
      <path class="cls-4" d="M271.35,528.49c6.06,0,10.97-4.75,10.97-10.61s-4.91-10.61-10.97-10.61-10.97,4.75-10.97,10.61,4.91,10.61,10.97,10.61Z"/>
      <path class="cls-7" d="M282.31,517.89c-.08,0,0-.94-.46-2.58-.66-2.3-2.07-4.3-4.01-5.7-1.34-.97-2.89-1.62-4.52-1.91-1.88-.33-3.81-.16-5.61.48-1.96.69-3.68,1.94-4.94,3.61-1.34,1.75-2.06,3.88-2.06,6.08s.72,4.34,2.06,6.08c.62.85,1.38,1.59,2.24,2.19.82.6,1.73,1.08,2.69,1.41,1.8.64,3.73.8,5.61.48,1.63-.28,3.18-.94,4.52-1.91,1.94-1.39,3.35-3.39,4.01-5.68.2-.85.35-1.71.46-2.58.03.23.03.46,0,.68,0,.66-.09,1.31-.26,1.95-.57,2.4-1.98,4.53-3.97,5.99-1.36,1.03-2.94,1.73-4.61,2.06-1.98.37-4.01.22-5.92-.44-1.02-.35-1.98-.84-2.86-1.47-.92-.64-1.73-1.42-2.4-2.32-1.43-1.85-2.2-4.11-2.2-6.44.01-2.33.78-4.59,2.2-6.44.67-.89,1.48-1.67,2.4-2.31.87-.64,1.84-1.14,2.86-1.48,1.9-.65,3.94-.8,5.92-.44,1.71.32,3.32,1.03,4.7,2.08,1.99,1.47,3.4,3.59,3.97,5.99.16.63.25,1.28.26,1.93,0,.23-.03.46-.09.68Z"/>
      <path class="cls-2" d="M271.35,517.44c1.89-.01,3.75.47,5.39,1.41,1.64.94,3,2.3,3.95,3.94.85-1.52,1.3-3.23,1.29-4.97,0-2.83-1.12-5.54-3.13-7.55-2-2-4.72-3.12-7.55-3.12s-5.54,1.12-7.55,3.12c-2,2-3.13,4.72-3.13,7.55-.01,1.74.43,3.46,1.29,4.97.95-1.65,2.32-3.02,3.98-3.96,1.66-.94,3.53-1.42,5.44-1.39Z"/>
      <path class="cls-10" d="M276.05,517.54c.03.94-.22,1.87-.71,2.67-.5.8-1.23,1.43-2.09,1.81-.86.38-1.82.5-2.74.34-.93-.16-1.79-.6-2.46-1.25-.68-.65-1.15-1.5-1.34-2.42-.2-.92-.11-1.88.24-2.75.35-.87.96-1.62,1.74-2.15s1.7-.81,2.64-.81c1.23-.02,2.42.45,3.31,1.3.89.85,1.4,2.03,1.42,3.26Z"/>
      <path class="cls-7" d="M276.05,517.54s0-.4-.27-1.08c-.19-.59-.49-1.14-.9-1.61-.41-.47-.9-.85-1.46-1.13-.56-.27-1.16-.43-1.78-.46-.62-.03-1.24.06-1.82.28-.84.29-1.57.83-2.08,1.55-.52.72-.79,1.58-.79,2.47s.28,1.75.79,2.47c.52.72,1.24,1.26,2.08,1.55.58.21,1.2.3,1.82.27.62-.03,1.23-.19,1.78-.47.56-.28,1.05-.66,1.46-1.13.41-.47.71-1.02.9-1.61.21-.67.21-1.08.27-1.08.1.38.1.77,0,1.15-.23,1.06-.83,2.01-1.7,2.67-.67.51-1.45.84-2.28.97-.83.13-1.68.05-2.47-.23-.97-.31-1.83-.91-2.43-1.74-.6-.82-.93-1.82-.93-2.84s.33-2.01.93-2.84c.6-.82,1.46-1.43,2.43-1.74.79-.26,1.63-.33,2.45-.2.82.13,1.6.46,2.26.96.88.66,1.49,1.61,1.73,2.68.1.38.1.77,0,1.15Z"/>
      <path class="cls-10" d="M275.48,510.36c-.24.4-1.29.21-2.74.19-1.8-.07-3.59.3-5.22,1.08-1.57.85-2.9,2.09-3.87,3.58-.8,1.19-1.21,2.13-1.69,2.1-.48-.03-.9-1.12-.53-2.93.3-1.2.85-2.33,1.63-3.3.77-.97,1.75-1.76,2.86-2.32,1.12-.58,2.35-.92,3.61-1,1.26-.08,2.52.1,3.71.53,1.79.71,2.47,1.7,2.24,2.05Z"/>
      <path class="cls-2" d="M293.23,541.05c2.87-.03,5.69.7,8.18,2.12,2.49,1.42,4.56,3.48,6,5.96,1.31-2.29,2-4.88,2-7.51-.23-4.11-2.03-7.98-5.03-10.81-3-2.83-6.96-4.41-11.08-4.41s-8.09,1.58-11.08,4.41c-3,2.83-4.79,6.7-5.03,10.81-.03,2.64.62,5.24,1.91,7.55,1.43-2.48,3.49-4.54,5.97-5.97,2.48-1.43,5.3-2.17,8.16-2.15Z"/>
      <path class="cls-10" d="M300.17,541.11c.04,1.38-.33,2.75-1.06,3.92-.74,1.17-1.81,2.1-3.07,2.65-1.26.56-2.67.73-4.03.49-1.36-.24-2.62-.89-3.61-1.85-.99-.96-1.68-2.2-1.96-3.55-.29-1.35-.16-2.76.36-4.04.52-1.28,1.41-2.38,2.55-3.15s2.5-1.19,3.88-1.19c.9-.02,1.79.15,2.63.48.84.33,1.6.82,2.24,1.45.65.63,1.16,1.37,1.52,2.2.36.83.55,1.71.56,2.61Z"/>
      <path class="cls-7" d="M300.17,541.11s0-.6-.35-1.61c-.43-1.44-1.34-2.69-2.58-3.54-.91-.65-1.95-1.07-3.06-1.22-1.1-.15-2.22-.04-3.27.34-1.26.42-2.36,1.23-3.14,2.31-.78,1.08-1.2,2.38-1.2,3.71s.42,2.63,1.2,3.71c.78,1.08,1.88,1.89,3.14,2.31,1.05.38,2.17.49,3.27.34,1.1-.15,2.15-.56,3.06-1.2,1.23-.86,2.14-2.11,2.58-3.54.3-1.02.28-1.62.35-1.61.06.01,0,.14,0,.43,0,.43-.04.87-.14,1.29-.36,1.56-1.28,2.93-2.58,3.87-.96.72-2.09,1.19-3.28,1.38-1.19.19-2.4.08-3.54-.31-1.31-.48-2.45-1.34-3.27-2.46-.92-1.19-1.42-2.65-1.42-4.16s.5-2.96,1.42-4.16c.87-1.13,2.05-1.97,3.39-2.44,1.14-.39,2.35-.5,3.54-.31,1.19.19,2.31.66,3.28,1.38,1.3.94,2.21,2.31,2.58,3.87.1.42.15.86.14,1.29-.08.18-.09.33-.12.33Z"/>
      <path class="cls-7" d="M309.35,541.61c-.12-1.27-.33-2.53-.63-3.78-.94-3.4-3.01-6.37-5.88-8.43-1.98-1.45-4.27-2.41-6.69-2.84-2.78-.49-5.65-.26-8.31.68-1.43.49-2.78,1.19-4,2.09-1.28.9-2.4,2-3.34,3.25-1.99,2.59-3.06,5.76-3.06,9.02s1.08,6.43,3.06,9.02c.93,1.25,2.06,2.35,3.34,3.25,1.22.89,2.57,1.59,4,2.09,2.67.93,5.53,1.17,8.31.68,2.42-.43,4.7-1.39,6.69-2.84,2.86-2.06,4.94-5.04,5.88-8.44.3-1.24.51-2.5.63-3.78.03.33.03.67,0,1,0,.4-.03.8-.09,1.2-.06.55-.16,1.1-.3,1.64-.87,3.51-2.94,6.61-5.85,8.75-2.03,1.52-4.38,2.55-6.87,3-2.88.53-5.85.31-8.62-.66-1.5-.5-2.9-1.22-4.18-2.15-1.33-.93-2.5-2.06-3.48-3.36-1.48-2-2.46-4.32-2.87-6.78-.41-2.45-.23-4.97.52-7.34s2.05-4.53,3.79-6.31c1.74-1.77,3.88-3.11,6.24-3.9,2.77-.96,5.74-1.19,8.62-.66,2.48.46,4.83,1.48,6.84,3,2.91,2.14,4.98,5.23,5.85,8.74.14.53.24,1.08.3,1.62.06.4.09.81.09,1.21.03.33.03.66,0,.99Z"/>
      <path class="cls-10" d="M299.31,530.56c-.24.41-1.69-.06-3.87-.24-2.8-.28-5.63.22-8.17,1.44-2.44,1.32-4.45,3.32-5.8,5.75-1.07,1.88-1.47,3.3-1.96,3.27s-.92-1.58-.24-4.11c.49-1.66,1.31-3.2,2.42-4.53,1.11-1.33,2.48-2.42,4.02-3.2,1.58-.81,3.3-1.3,5.07-1.44,1.77-.14,3.55.07,5.24.62,2.44.84,3.52,2.11,3.29,2.45Z"/>
      <path class="cls-10" d="M303.34,533.03c-.76.5-1.48.77-1.65.62-.17-.15.09-.86.59-1.62.5-.76,1.29-1.1,1.74-.7.45.4.09,1.2-.68,1.7Z"/>
      <g class="cls-12">
        <path class="cls-10" d="M278.51,495.24c-.99,0,30.93,10.61,35.09,13.96l6.53-1.38-22.81-36.56-2.58-.59s-7.87,24.61-16.24,24.58Z"/>
      </g>
      <path class="cls-7" d="M541.27,566.04c.34-.05.68-.08,1.02-.09l2.9-.15c2.58-.1,6.17-.28,10.67-.55,9.02-.54,21.44-1.56,35.04-3.65,11.58-1.82,23.07-4.24,34.4-7.27,4.34-1.16,7.85-2.15,10.31-2.87l2.78-.79c.33-.1.66-.19.99-.24-.3.16-.62.28-.94.36l-2.84.97c-2.38.8-5.88,1.84-10.21,3.07-11.33,3.17-22.83,5.66-34.45,7.46-11.64,1.75-23.36,2.91-35.12,3.47-4.51.21-8.16.32-10.68.35h-2.91c-.32.01-.65,0-.97-.05Z"/>
      <path class="cls-4" d="M611.53,497.15c.7-.26,1.47-.27,2.18-.02.71.25,1.3.74,1.69,1.38,2.23,3.87,6.44,12.27,7.09,21.44.9,12.57,0,35.4,0,35.4,0,0-46.14,10.4-65.21,10.67,0,0,5.9-31.74,10.75-43.74,4.14-10.21,34.53-21.88,43.51-25.14Z"/>
      <path class="cls-7" d="M611.53,497.15c-.14.08-.29.15-.45.19l-1.29.53-5.16,2.04c-4.47,1.84-10.98,4.5-18.71,8.52-4.24,2.14-8.27,4.66-12.05,7.54-2.08,1.56-3.83,3.52-5.16,5.76-1.07,2.55-1.96,5.16-2.69,7.82-1.61,5.48-3,11.34-4.38,17.45-1.38,6.11-2.68,12.5-3.87,19.1l-.33-.39c5.44-.19,10.86-.7,16.24-1.52,8.88-1.29,17.47-2.77,25.66-4.33,8.18-1.56,15.99-3.18,23.2-4.78l-.23.27c.35-9.25.5-17.78.43-25.38,0-3.79-.14-7.35-.4-10.62-.27-3-.86-5.97-1.75-8.85-1.27-4.09-2.96-8.03-5.04-11.77-.26-.51-.64-.93-1.12-1.24-.48-.31-1.03-.48-1.6-.5-.4,0-.79.05-1.17.15.37-.18.78-.26,1.19-.24.59,0,1.17.16,1.68.47.51.31.92.74,1.2,1.27,2.13,3.72,3.86,7.66,5.15,11.75.92,2.9,1.54,5.89,1.84,8.92.28,3.3.4,6.86.46,10.66.12,7.59,0,16.14-.32,25.4v.23h-.23c-7.27,1.62-15.07,3.25-23.26,4.83-8.2,1.59-16.75,3.13-25.7,4.36-5.4.82-10.85,1.33-16.32,1.52h-.4l.07-.39c1.26-6.61,2.58-12.98,3.97-19.11,1.39-6.12,2.8-11.98,4.43-17.47.75-2.69,1.67-5.34,2.76-7.91,1.38-2.31,3.21-4.32,5.39-5.9,3.81-2.89,7.88-5.41,12.16-7.53,6.13-3.11,12.41-5.9,18.83-8.35,2.25-.88,4.01-1.52,5.15-1.94l1.37-.46.46-.09Z"/>
      <path class="cls-7" d="M589.88,456.5c.47.46.9.95,1.29,1.48.77.97,1.88,2.41,3.16,4.24,2.58,3.65,5.9,8.85,9.33,14.72,3.43,5.86,6.38,11.26,8.48,15.18l2.46,4.65c.32.56.6,1.14.83,1.74-.4-.51-.75-1.05-1.06-1.62l-2.65-4.56c-2.2-3.87-5.15-9.21-8.63-15.08-3.48-5.87-6.66-11.07-9.15-14.77-1.22-1.86-2.25-3.34-2.98-4.36-.41-.51-.77-1.05-1.07-1.62Z"/>
      <path class="cls-7" d="M542.2,520.19c.05-.22.13-.43.25-.62.22-.46.49-1.03.82-1.71.34-.68.79-1.66,1.29-2.75l.75-1.71c.23-.63.48-1.29.75-1.97,1.07-2.74,2.1-6.09,3.16-9.84,1.06-3.75,1.91-7.94,2.69-12.36,1.29-7.55,2.06-15.18,2.28-22.84v-8.85c-.03-.22-.03-.44,0-.66.05.22.09.44.09.66,0,.5.09,1.12.15,1.88.07.76.1,1.83.13,3,.03,1.17.06,2.5,0,3.98-.08,7.69-.77,15.36-2.09,22.94-.77,4.43-1.73,8.62-2.76,12.4-.92,3.35-2.03,6.64-3.31,9.86-.27.68-.54,1.29-.8,1.96-.26.67-.54,1.17-.8,1.71-.49,1.07-.93,1.98-1.35,2.71l-.94,1.66c-.08.2-.19.38-.31.55Z"/>
      <g class="cls-12">
        <path class="cls-1" d="M627.68,552.04s5.23,11.6-27.27,18.62c-19.75,4.22-40.29,2.61-59.14-4.63l16.01-.32s64.99-6.14,65.22-11.72c.48-11.2.4-27.06.4-27.06l4.78,25.1Z"/>
      </g>
      <path class="cls-4" d="M604.69,531.15c6.06,0,10.97-4.75,10.97-10.61s-4.91-10.61-10.97-10.61-10.97,4.75-10.97,10.61,4.91,10.61,10.97,10.61Z"/>
      <path class="cls-7" d="M593.72,520.54c-.04-.23-.04-.46,0-.68,0-.65.09-1.3.24-1.93.57-2.4,1.98-4.53,3.97-5.99,1.39-1.04,3-1.75,4.7-2.08,1.98-.36,4.02-.21,5.93.44,1.02.35,1.99.85,2.86,1.48.92.64,1.73,1.41,2.4,2.31,1.42,1.85,2.2,4.11,2.2,6.44s-.77,4.6-2.2,6.44c-.67.9-1.48,1.68-2.4,2.32-.88.63-1.84,1.12-2.86,1.47-1.9.66-3.95.81-5.93.44-1.7-.32-3.31-1.03-4.7-2.06-1.99-1.47-3.4-3.59-3.97-5.99-.16-.64-.24-1.29-.24-1.94-.04-.23-.04-.46,0-.68.11.87.27,1.73.48,2.58.64,2.29,2.05,4.3,3.99,5.68,1.34.97,2.89,1.62,4.52,1.91,1.88.33,3.81.16,5.61-.48.96-.33,1.87-.8,2.69-1.4.86-.61,1.62-1.35,2.26-2.19,1.34-1.74,2.07-3.88,2.07-6.08s-.73-4.34-2.07-6.08c-1.26-1.66-2.97-2.91-4.94-3.6-1.8-.64-3.73-.8-5.61-.48-1.63.29-3.17.94-4.51,1.91-1.95,1.38-3.36,3.39-4.01,5.69-.21.85-.37,1.7-.49,2.56Z"/>
      <path class="cls-2" d="M604.68,520.09c-1.89-.01-3.75.47-5.39,1.41-1.64.94-3.01,2.3-3.95,3.93-.85-1.52-1.3-3.23-1.29-4.97.1-2.76,1.26-5.38,3.25-7.3,1.99-1.92,4.65-2.99,7.41-2.99s5.42,1.07,7.41,2.99c1.99,1.92,3.16,4.54,3.25,7.3,0,1.74-.43,3.46-1.29,4.97-.95-1.65-2.32-3.01-3.98-3.95-1.65-.94-3.53-1.42-5.43-1.4Z"/>
      <path class="cls-10" d="M599.97,520.19c-.04.94.21,1.88.7,2.68.5.8,1.22,1.44,2.08,1.83.86.39,1.82.51,2.75.34.93-.16,1.79-.6,2.47-1.26.68-.65,1.15-1.5,1.34-2.42s.11-1.89-.24-2.76c-.36-.88-.97-1.62-1.75-2.15-.79-.53-1.71-.81-2.65-.8-1.22-.01-2.4.45-3.28,1.3-.88.85-1.39,2.01-1.42,3.23Z"/>
      <path class="cls-7" d="M599.97,520.19c-.11-.37-.11-.77,0-1.15.23-1.06.83-2.01,1.7-2.67.67-.5,1.45-.83,2.27-.96.82-.13,1.67-.06,2.46.2.97.31,1.81.92,2.41,1.75.6.82.92,1.81.92,2.83s-.32,2.01-.92,2.83c-.6.82-1.44,1.43-2.41,1.74-.79.27-1.63.34-2.46.21-.83-.13-1.6-.47-2.27-.97-.87-.66-1.47-1.6-1.7-2.67-.11-.37-.11-.77,0-1.15,0,0,0,.41.27,1.08.3.96.91,1.79,1.74,2.37.61.42,1.31.69,2.04.79.73.1,1.48.02,2.18-.23.84-.28,1.57-.83,2.08-1.55.52-.72.79-1.58.79-2.47s-.28-1.75-.79-2.47c-.52-.72-1.24-1.26-2.08-1.55-.69-.25-1.44-.33-2.17-.24-.73.1-1.43.37-2.04.79-.83.58-1.44,1.41-1.74,2.37-.21.68-.22,1.08-.27,1.08Z"/>
      <path class="cls-10" d="M600.55,513.08c-.23-.35.45-1.29,2.23-2.05,1.18-.43,2.44-.62,3.7-.53,1.26.08,2.49.42,3.61,1,1.11.56,2.08,1.35,2.86,2.32.77.97,1.33,2.1,1.63,3.3.39,1.8-.09,2.91-.52,2.92-.43.01-.89-.91-1.7-2.1-.96-1.5-2.29-2.74-3.87-3.58-1.63-.78-3.42-1.15-5.22-1.08-1.44-.05-2.46.14-2.72-.19Z"/>
      <path class="cls-2" d="M582.77,543.7c-2.87-.03-5.69.71-8.18,2.13-2.49,1.42-4.56,3.48-6,5.95-1.31-2.29-2-4.88-2-7.51.23-4.11,2.03-7.98,5.03-10.81,3-2.83,6.96-4.41,11.08-4.41s8.09,1.58,11.08,4.41c2.99,2.83,4.79,6.7,5.03,10.81.03,2.61-.61,5.19-1.87,7.48-1.44-2.47-3.51-4.52-6-5.93-2.49-1.41-5.31-2.14-8.17-2.11Z"/>
      <path class="cls-10" d="M575.86,543.76c-.05,1.39.32,2.75,1.06,3.93.74,1.17,1.81,2.1,3.08,2.67s2.67.73,4.04.49c1.37-.24,2.63-.89,3.62-1.85,1-.96,1.68-2.2,1.97-3.56.29-1.36.16-2.77-.36-4.05-.52-1.29-1.41-2.39-2.56-3.16-1.15-.77-2.51-1.19-3.89-1.19-.9-.02-1.79.15-2.63.48-.83.33-1.6.82-2.24,1.44-.64.63-1.16,1.37-1.52,2.2-.36.83-.55,1.71-.56,2.61Z"/>
      <path class="cls-7" d="M575.86,543.77v-.44c-.01-.43.03-.87.13-1.29.37-1.56,1.28-2.93,2.58-3.87.96-.72,2.09-1.2,3.28-1.38,1.19-.19,2.4-.08,3.54.31,1.35.46,2.53,1.31,3.39,2.44.93,1.19,1.43,2.65,1.43,4.16s-.5,2.97-1.43,4.16c-.86,1.13-2.04,1.98-3.39,2.44-1.14.39-2.35.5-3.54.31-1.19-.19-2.31-.66-3.28-1.38-1.3-.93-2.21-2.31-2.58-3.87-.1-.42-.14-.86-.13-1.29v-.43c.06,0,0,.59.35,1.61.43,1.44,1.34,2.69,2.58,3.54.91.64,1.96,1.06,3.06,1.21,1.1.15,2.22.03,3.27-.34,1.27-.42,2.37-1.22,3.16-2.31.78-1.08,1.2-2.38,1.2-3.72s-.42-2.64-1.2-3.72c-.78-1.08-1.89-1.89-3.16-2.31-1.05-.38-2.17-.49-3.27-.34-1.1.15-2.15.57-3.06,1.22-1.23.86-2.14,2.11-2.58,3.54-.3,1.13-.28,1.74-.35,1.74Z"/>
      <path class="cls-7" d="M566.68,544.27c-.03-.33-.03-.66,0-.99,0-.41.03-.81.09-1.21.06-.55.16-1.09.31-1.62.87-3.5,2.93-6.59,5.84-8.74,2.03-1.52,4.39-2.55,6.88-3,2.88-.53,5.85-.31,8.62.66,1.49.5,2.89,1.22,4.16,2.15,1.34.92,2.51,2.06,3.48,3.36,2.08,2.69,3.22,6,3.22,9.4s-1.13,6.71-3.22,9.4c-.98,1.3-2.16,2.43-3.49,3.36-1.27.93-2.67,1.66-4.16,2.15-2.77.96-5.75,1.19-8.64.66-2.49-.46-4.84-1.49-6.87-3-2.91-2.14-4.97-5.23-5.84-8.74-.15-.53-.25-1.08-.31-1.62-.06-.4-.09-.81-.09-1.21-.03-.33-.03-.67,0-1.01.13,1.27.34,2.53.63,3.78.95,3.4,3.03,6.38,5.89,8.44,1.98,1.44,4.26,2.41,6.68,2.84,2.78.48,5.64.25,8.31-.68,1.43-.5,2.78-1.2,4.01-2.09,1.27-.9,2.4-2,3.32-3.25,1.99-2.59,3.06-5.76,3.06-9.02s-1.08-6.43-3.06-9.02c-.93-1.25-2.06-2.35-3.34-3.25-1.22-.89-2.56-1.6-3.99-2.09-2.67-.94-5.53-1.18-8.31-.68-2.41.42-4.7,1.39-6.68,2.84-2.87,2.06-4.94,5.03-5.89,8.43-.28,1.24-.49,2.5-.62,3.76Z"/>
      <path class="cls-10" d="M576.72,533.21c-.23-.33.86-1.61,3.39-2.49,1.69-.55,3.47-.76,5.24-.62,1.77.14,3.49.63,5.07,1.44,1.54.78,2.91,1.87,4.02,3.2,1.11,1.33,1.93,2.87,2.43,4.53.66,2.58.17,4.11-.26,4.11s-.88-1.39-1.96-3.27c-1.34-2.43-3.35-4.43-5.8-5.75-2.53-1.23-5.36-1.73-8.16-1.44-2.28.22-3.71.7-3.97.28Z"/>
      <path class="cls-10" d="M572.69,535.69c-.76-.5-1.11-1.29-.68-1.7.43-.41,1.29,0,1.74.7.45.7.76,1.47.61,1.62-.15.15-.9-.12-1.66-.62Z"/>
      <g class="cls-12">
        <path class="cls-10" d="M597.52,497.9c.99,0-30.93,10.61-35.09,13.96l-6.52-1.35,22.81-36.56,2.58-.59s7.91,24.59,16.22,24.55Z"/>
      </g>
      <g class="cls-12">
        <path class="cls-10" d="M333.85,487.38s4.96-1.64,3.98-5.23c10.52,5.33,22.18,8.03,33.97,7.87,19.58-.28,91.29,3.96,91.29,3.96l8.22,10.97s-129.66-.5-134.16,2.33l-3.31-19.9Z"/>
      </g>
      <g class="cls-12">
        <path class="cls-1" d="M565.31,625.52v-24.18l66.68-7.09s-3.34,19.67-11.01,22.89c-7.67,3.22-55.67,8.38-55.67,8.38Z"/>
      </g>
      <path class="cls-10" d="M628.35,594.64s-3.39,12.51-6,16.1c-2.37,3.26-4.82,4.3-12.3,5.71-6.08,1.13-11.41,1.62-11.41,1.62l1.65-20.44,28.06-2.99Z"/>
      <path class="cls-7" d="M624.78,606.2c-.01.21-.06.42-.13.62-.17.58-.4,1.15-.67,1.69-1.03,2.03-2.55,3.77-4.43,5.05-2.38,1.71-5.85,2.58-9.6,3.2-3.75.62-7.94,1.06-12.31,1.62-8.72,1.1-16.64,2.05-22.36,2.71l-6.79.75-1.84.17c-.22.04-.44.04-.66,0,.21-.06.42-.11.63-.14l1.83-.28,6.77-.95c5.71-.77,13.61-1.81,22.33-2.9,4.36-.57,8.54-1.03,12.3-1.57,3.75-.54,7.11-1.38,9.43-2.98,1.85-1.2,3.38-2.82,4.47-4.73.76-1.41.97-2.25,1.03-2.24Z"/>
      <g class="cls-12">
        <path class="cls-1" d="M316,629.07v-24.18l-66.67-7.09s3.32,19.65,10.99,22.87c7.67,3.22,55.67,8.39,55.67,8.39Z"/>
      </g>
      <path class="cls-10" d="M252.99,598.14s3.39,12.51,6.01,16.08c2.37,3.26,4.82,4.32,12.29,5.71,6.07,1.15,11.41,1.64,11.41,1.64l-1.65-20.45-28.06-2.98Z"/>
      <path class="cls-7" d="M256.56,609.74s.27.83,1.03,2.19c1.09,1.93,2.62,3.58,4.47,4.79,2.32,1.6,5.7,2.41,9.43,2.98,3.74.57,7.93,1.01,12.29,1.56,8.72,1.09,16.62,2.13,22.33,2.9l6.75.95,1.84.3c.22.01.43.06.63.14-.22.03-.44.03-.66,0l-1.84-.18-6.79-.75c-5.73-.66-13.63-1.61-22.36-2.71-4.37-.55-8.52-1.03-12.31-1.62-3.79-.59-7.22-1.47-9.6-3.18-1.88-1.28-3.41-3.02-4.43-5.05-.27-.54-.49-1.11-.67-1.69-.07-.2-.12-.42-.13-.63Z"/>
      <path class="cls-3" d="M354.13,593.58c-.72-.02-1.45.11-2.12.38-.67.27-1.28.68-1.78,1.2-.51.52-.9,1.14-1.15,1.82-.25.68-.36,1.4-.32,2.13.67,8.88,2.44,25.53,6.31,28.57,5.34,4.19,158.51,8.56,172.99.21,6.6-3.87,8.38-19.33,8.85-27.46.03-.65-.08-1.3-.31-1.91-.23-.61-.59-1.17-1.04-1.63-.45-.47-1-.84-1.6-1.09-.6-.25-1.25-.38-1.9-.37l-177.92-1.83Z"/>
      <path class="cls-7" d="M354.13,593.58c.37-.08.75-.11,1.12-.09l3.25-.06h12.51l46.03.17,68.3.49,40.31.35h6.62c.53.02,1.05.11,1.56.27,1.02.31,1.93.89,2.64,1.68.71.77,1.18,1.74,1.37,2.77.09.5.11,1,.07,1.51l-.08,1.29c-.14,1.75-.3,3.49-.5,5.25-.41,3.55-1.08,7.06-2.02,10.5-.49,1.77-1.14,3.49-1.92,5.16-.78,1.77-1.9,3.37-3.3,4.72-.76.68-1.63,1.24-2.58,1.64-.9.35-1.83.64-2.77.85-1.84.44-3.68.75-5.52,1.01-3.66.52-7.31.84-10.91,1.12-7.23.53-14.36.81-21.35,1-14,.37-27.49.39-40.35.26-25.77-.3-48.86-1.11-68.3-2.37-4.86-.33-9.47-.68-13.84-1.15-2.19-.23-4.3-.49-6.37-.85-.52-.08-1.02-.19-1.53-.31-.82-.1-1.59-.44-2.22-.98-.63-.54-1.08-1.25-1.31-2.05-.77-1.68-1.37-3.43-1.77-5.23-.43-1.7-.73-3.35-1.02-4.94-.53-3.17-.86-6.08-1.13-8.7-.27-2.62-.44-4.95-.57-6.97-.14-.96-.06-1.94.24-2.86.26-.77.7-1.47,1.29-2.04.49-.5,1.08-.89,1.73-1.15.65-.26,1.35-.38,2.05-.35h.27s-.37,0-1.08.19c-1.02.24-1.95.78-2.68,1.53-.57.6-.98,1.34-1.21,2.14-.22.8-.25,1.64-.08,2.45.19,2.01.44,4.33.75,6.93.31,2.6.73,5.49,1.29,8.62.31,1.56.63,3.18,1.07,4.85.42,1.72,1.01,3.4,1.78,5,.35.78.87,1.47,1.53,2.01.88.33,1.8.55,2.73.67,2,.32,4.11.54,6.28.75,4.34.41,8.96.72,13.8,1,19.33,1.08,42.53,1.75,68.19,1.96,12.89.08,26.33,0,40.29-.37,6.97-.21,14.07-.5,21.25-1.03,3.58-.27,7.19-.61,10.77-1.11,1.79-.26,3.58-.55,5.32-.97.84-.2,1.68-.45,2.49-.76.74-.32,1.42-.75,2.01-1.29,1.21-1.18,2.18-2.57,2.86-4.11.74-1.57,1.34-3.19,1.81-4.86.91-3.35,1.56-6.76,1.96-10.21.22-1.71.37-3.43.5-5.15l.09-1.29c.04-.36.04-.71,0-1.07-.13-.68-.45-1.32-.91-1.83-.47-.52-1.07-.91-1.74-1.12-.34-.1-.69-.16-1.04-.17h-1.29l-5.27-.06-40.31-.46-68.3-.9-46.02-.79-12.51-.31-3.26-.13c-.35.03-.7.02-1.04-.04Z"/>
      <path class="cls-7" d="M530.94,624.17c0,.18-39.85.32-89,.32s-89.03-.14-89.03-.32,39.85-.32,89.03-.32,89,.14,89,.32Z"/>
      <path class="cls-7" d="M521.18,628.95c0,.18-33.74.33-75.35.33s-75.35-.15-75.35-.33,33.74-.32,75.35-.32,75.35.15,75.35.32Z"/>
      <path class="cls-7" d="M533.87,618.94c0,.18-40.52.32-90.48.32s-90.48-.14-90.48-.32,40.5-.32,90.48-.32,90.48.14,90.48.32Z"/>
      <path class="cls-7" d="M535.25,613.69c0,.18-40.83.32-91.17.32s-91.18-.14-91.18-.32,40.81-.32,91.18-.32,91.17.14,91.17.32Z"/>
      <path class="cls-7" d="M535.25,608.45c0,.18-40.83.32-91.17.32s-91.18-.14-91.18-.32,40.81-.33,91.18-.33,91.17.17,91.17.33Z"/>
      <path class="cls-7" d="M536.72,603.21c0,.18-41.15.32-91.9.32s-91.91-.14-91.91-.32,41.15-.32,91.91-.32,91.9.14,91.9.32Z"/>
      <path class="cls-7" d="M536.72,597.98c0,.17-41.15.32-91.9.32s-91.91-.15-91.91-.32,41.15-.34,91.91-.34,91.9.16,91.9.34Z"/>
      <path class="cls-10" d="M419.77,523.98l13.16,8.54h11.51l13.09-8.54h-37.76Z"/>
      <path class="cls-7" d="M419.43,372.98c.54,0,2.18,9.2,9.87,9.02,7.69-.18,26.44,0,26.44,0v-11.49l-36.32,2.47Z"/>
      <path class="cls-7" d="M464.35,372.98c-.55,0-.1,9.2-7.8,9.02-7.69-.18-22.17,0-22.17,0l-6.37-11.49,36.33,2.47Z"/>
      <path class="cls-7" d="M460.93,385.2c.52,0,1.03.11,1.5.33s.88.55,1.2.96c1.83,2.42,5.5,7.42,5.59,9.02.06.48.02.98-.11,1.45-.14.47-.36.91-.67,1.28-.31.38-.69.69-1.12.92-.43.23-.91.36-1.39.4-2.11.24-42.66,0-46.86,0-.26,0-.52-.03-.77-.09-1.11-.27-3.98-1.15-3.76-3.04.22-1.89,3.31-7,4.96-9.65.3-.49.73-.89,1.23-1.17.5-.28,1.07-.42,1.64-.42h38.56Z"/>
      <path class="cls-7" d="M443.2,381.23h-2.76v4.79h2.76v-4.79Z"/>
      <path class="cls-2" d="M326.01,355.34c0-.89,5.52-8.25,8.53-11.68,3.02-3.43,4.2-3.31,6.83-3.04,3.26.32,11.06,4.3,11.44,5.83.34,2.13.55,4.28.63,6.44l-5.26-.13s1.17-4.66-.39-5.59c-2.29-1.38-3.16-1.77-4.99-1-1.83.76-4.2,6.84-4.2,6.84l-12.6,2.33Z"/>
      <path class="cls-7" d="M553.67,355.49c0,.17-51.55.32-115.01.32s-115.02-.15-115.02-.32,51.49-.34,115.02-.34,115.01.15,115.01.34Z"/>
      <g class="cls-12">
        <path class="cls-1" d="M456.83,424.34c0-3.87-1.37-14.73-4.66-17.63-2.58-2.24-8.56-2.91-11.52-3.09h-.28c-1.57,0-12.09.33-15.23,3.11-3.15,2.77-4.67,13.79-4.67,17.63v.12c-.04,1.1.36,2.18,1.1,2.99.75.81,1.79,1.29,2.89,1.34h28.35c1.1-.05,2.14-.53,2.89-1.34.75-.81,1.15-1.89,1.1-2.99l.03-.13Z"/>
      </g>
      <g class="cls-12">
        <path class="cls-1" d="M527.25,424.34c0-3.87-1.37-14.73-4.65-17.63-2.58-2.24-8.56-2.91-11.53-3.09h-.28c-1.57,0-12.09.33-15.23,3.11-3.14,2.77-4.66,13.79-4.66,17.63v.12c-.04,1.1.36,2.18,1.11,2.99.75.81,1.79,1.29,2.9,1.34h28.35c1.1-.05,2.14-.53,2.89-1.34.75-.81,1.15-1.89,1.1-2.99v-.13Z"/>
      </g>
      <g class="cls-12">
        <path class="cls-1" d="M380.36,424.34c0-3.87-1.37-14.73-4.66-17.63-2.58-2.24-8.56-2.91-11.52-3.09h-.28c-1.57,0-12.09.33-15.23,3.11-3.14,2.77-4.67,13.79-4.67,17.63v.12c-.04,1.1.35,2.18,1.1,2.99.75.81,1.79,1.29,2.89,1.34h28.35c1.1-.05,2.14-.53,2.89-1.34.75-.81,1.15-1.89,1.1-2.99l.03-.13Z"/>
      </g>
      <path class="cls-7" d="M389.54,423.64c0-5.79-2.06-22.17-7.01-26.53-3.87-3.36-12.89-4.37-17.35-4.65h-.43c-2.37,0-18.18.49-22.93,4.66-4.95,4.37-7.01,20.75-7.01,26.54v.18c-.05,1.65.56,3.25,1.69,4.46,1.13,1.21,2.68,1.92,4.33,1.99h42.68c1.65-.07,3.2-.78,4.33-1.99,1.13-1.2,1.73-2.81,1.69-4.46v-.19Z"/>
      <path class="cls-7" d="M313.42,457.77s2.23-15.47,6.06-20.27c6.74-8.43,42.72-5.4,42.72-5.4,0,0,34.34-2.19,39.29,3.43s7.87,21.66,7.87,21.66l-95.95.58Z"/>
      <path class="cls-7" d="M543,422.1c0-5.79-2.06-22.17-7.02-26.54-3.87-3.36-12.89-4.37-17.35-4.65h-.41c-2.37,0-18.2.49-22.94,4.67-4.95,4.37-7.01,20.75-7.01,26.53v.18c-.06,1.66.54,3.28,1.66,4.5,1.13,1.22,2.7,1.94,4.35,2.01h42.7c1.66-.07,3.22-.79,4.35-2.01,1.13-1.22,1.73-2.84,1.67-4.49v-.19Z"/>
      <path class="cls-7" d="M468.07,455.33s2.24-15.34,6.07-20.08c6.74-8.35,42.71-5.35,42.71-5.35,0,0,34.36-2.18,39.29,3.39,4.94,5.57,7.88,21.47,7.88,21.47l-95.95.57Z"/>
      <g class="cls-12">
        <path class="cls-10" d="M319.67,381.89c-6.44,9.95-22.72,51.55-22.72,51.55,0,0,56.7,2.31,58.68-2.31,1.97-4.61,31.5-54.66,31.5-54.66,0,0-62.7-1.91-67.45,5.41Z"/>
      </g>
      <path class="cls-7" d="M636.7,568.37s-.21.28-.63.83c-.25.35-.54.68-.85.98-.4.44-.83.85-1.29,1.22-3.05,2.53-6.55,4.46-10.31,5.71-5.9,2.03-12,3.4-18.2,4.08-3.61.45-7.49.76-11.6.91-4.11.15-8.49,0-13.07.08l-143.05.1c-55.85,0-106.41,0-143.05-.17-4.59-.08-8.93-.08-13.07-.21-3.89-.27-7.76-.75-11.6-1.43-6.14-1.04-12.17-2.6-18.04-4.66-3.73-1.26-7.28-2.99-10.57-5.16-.86-.56-1.67-1.19-2.42-1.88l-.77-.71.82.66c.77.67,1.59,1.28,2.45,1.82,3.3,2.12,6.86,3.82,10.58,5.05,5.88,2.01,11.91,3.53,18.04,4.54,3.84.67,7.71,1.13,11.6,1.38,4.1.12,8.47.09,13.04.15h143.05l143.05.09c4.58,0,8.94.08,13.06,0,4.11-.08,7.98-.44,11.6-.86,6.18-.65,12.26-1.98,18.15-3.96,3.74-1.22,7.24-3.11,10.31-5.57.46-.37.89-.77,1.29-1.2.31-.29.6-.61.86-.94.37-.61.62-.86.62-.86Z"/>
    </g>
    <g>
      <path class="cls-11" d="M767.07,322.88c-.4-.93-1.65-9.76-2.07-12.45-.43-2.69.66-3.22,1.61-4.72.95-1.49,2.95-3.63,2.98.32.77-1.24,1.76-2.33,2.94-3.2,1.91-1.4,3.94-1.15,4.56,1.62.78.39,1.48.93,2.05,1.59.57.66.99,1.44,1.25,2.27,1.52.5,2.79,1.55,3.58,2.94l.12.98c.65.19,1.22.57,1.64,1.1.42.53.67,1.18.7,1.85.42.43.73.96.92,1.53.19.57.24,1.18.15,1.78-.46,1.71-4.42,16.08-4.42,16.08l-11.6.72-4.41-12.44Z"/>
      <path class="cls-9" d="M772.58,316.12s0,.34-.49.62c-.27.16-.58.27-.89.31-.23.03-.47-.02-.67-.13-.2-.13-.37-.3-.5-.49-1.02-1.64-.88-4.37.39-6.79.59-1.12,1.31-2.17,2.13-3.13.59-.87,1.35-1.61,2.23-2.19.32-.19.68-.3,1.06-.32.37-.02.75.06,1.08.23.46.26.55.57.53.58-.03.01-.21-.19-.63-.35-.3-.09-.62-.12-.93-.07-.31.04-.61.16-.87.33-.77.61-1.44,1.34-1.98,2.17-.76.96-1.43,1.99-2.01,3.07-.56.93-.9,1.97-1,3.05-.1,1.08.04,2.16.42,3.18.09.15.21.29.35.4.12.08.26.11.4.1.27,0,.54-.07.8-.17.22-.1.42-.24.6-.39Z"/>
      <path class="cls-9" d="M775.57,318.76s0,.28-.08.8c-.03.18-.11.34-.23.48-.12.14-.27.24-.44.29-.22.05-.45.06-.67.02-.22-.04-.43-.12-.62-.24-.43-.36-.78-.83-1-1.35-.22-.52-.32-1.09-.29-1.65.01-1.35.35-2.68.99-3.87.6-1.15,1.3-2.25,2.09-3.29.65-.9,1.59-1.55,2.65-1.86.72-.19,1.47-.19,2.19,0,.49.14.73.31.72.35-.92-.16-1.87-.12-2.77.14-.94.34-1.74.96-2.31,1.78-.73,1.02-1.39,2.1-1.97,3.22-.59,1.08-.93,2.29-.98,3.52-.04.47.02.95.18,1.4.17.45.43.85.77,1.18.14.1.29.18.46.22.17.04.34.05.51.02.12-.03.23-.09.32-.17.09-.09.16-.19.19-.31.14-.41.22-.7.27-.68Z"/>
      <path class="cls-9" d="M784.78,317.94c-.36.3-.82.46-1.29.44-.62.04-1.25-.08-1.81-.37-.56-.28-1.03-.71-1.36-1.24h.45c-.2.68-.67,1.26-1.29,1.6l.13-.4c.31.56.45,1.19.43,1.83s-.23,1.26-.58,1.79c-.2.31-.45.57-.75.77-.3.2-.64.34-1,.41-.4.05-.81-.02-1.16-.22-.36-.19-.64-.49-.82-.85-.46-.92-.62-1.96-.45-2.98.13-.9.41-1.78.85-2.58.75-1.39,1.97-2.46,3.44-3.03.98-.37,2.03-.5,3.07-.36.38.01.75.12,1.08.31-1.34-.16-2.71,0-3.97.49-1.33.58-2.42,1.6-3.08,2.89-.39.75-.64,1.57-.73,2.41-.14.88-.01,1.78.37,2.58.11.24.29.45.53.58.23.13.5.19.76.17.53-.12.99-.43,1.29-.89.3-.44.47-.94.5-1.47.03-.53-.08-1.05-.32-1.52l-.14-.27.27-.12c.26-.13.5-.31.69-.53.19-.22.34-.48.43-.76l.19-.52.27.46c.28.48.68.87,1.15,1.15.48.28,1.02.43,1.57.44.43-.04.87-.12,1.29-.22Z"/>
      <path class="cls-9" d="M784.83,320.16c.06.18-.98.53-2.18,0s-1.74-1.41-1.58-1.5.83.49,1.83.88c1.01.39,1.91.43,1.93.62Z"/>
      <path class="cls-9" d="M777.79,327.5c-.56-1.53-1.43-2.93-2.55-4.11-1.12-1.18-2.47-2.13-3.97-2.77,0-.08.59,0,1.47.28,1.14.44,2.16,1.14,2.99,2.02.84.88,1.48,1.94,1.87,3.09.27.84.28,1.48.19,1.48Z"/>
      <path class="cls-2" d="M768.4,309.94c.11.48.38.9.76,1.21.03.03.07.05.12.06.04.01.09.01.13,0,.09-.03.16-.08.22-.14.03-.08.03-.17,0-.25,0-.04-.02-.09-.04-.12-.02-.04-.05-.07-.09-.1v.07c-.12-.12-.23-.25-.32-.39v.07c-.09-.14-.17-.29-.22-.45v.09c-.01-.12-.07-.24-.17-.32-.07-.05-.16-.08-.24-.06-.09.02-.16.07-.21.14-.05.07-.07.16-.06.25l.13-.05Z"/>
      <path class="cls-7" d="M768.4,309.94v-.06c0-.07.02-.14.07-.2.05-.06.11-.1.18-.11.07-.02.14-.02.21,0,.07.03.14.08.19.14.03.08.06.16.08.24v-.08c.05.16.13.31.22.45v-.08c.09.14.2.27.32.39.08.06.13.14.15.23.03.08.03.17,0,.26-.05.07-.12.12-.2.15s-.17.02-.25,0l-.1-.06-.08-.08-.14-.14c-.09-.09-.16-.2-.22-.31-.1-.15-.18-.32-.23-.49,0-.05,0-.1,0-.14.07.23.18.45.31.66.1.16.22.31.36.44l.08.08h.09c.07.03.14.03.21,0,.03,0,.07-.02.09-.05.03-.02.05-.05.06-.08.02-.07.02-.14,0-.21-.02-.08-.07-.14-.13-.19h.06c-.12-.11-.23-.24-.32-.39v.08c-.09-.15-.16-.3-.22-.46v.09c-.02-.08-.04-.16-.08-.23-.03-.06-.09-.1-.15-.12-.05-.02-.11-.02-.17,0-.06.01-.11.04-.15.09-.03.02-.05.05-.07.09-.02.03-.03.07-.03.11h-.13Z"/>
      <path class="cls-10" d="M766.58,324.47c.21-.43.32-.91.3-1.39s-.16-.95-.41-1.36l1.65-3.38c.48-.06.93-.23,1.32-.51.39-.28.71-.65.92-1.08.21-.43.31-.91.29-1.39-.02-.48-.16-.95-.41-1.36l.15-.33c.17-.33.24-.69.22-1.06-.02-.37-.14-.72-.34-1.03.05-.06.09-.13.13-.21.2-.4.23-.87.08-1.29-.15-.43-.45-.77-.86-.97-.4-.2-.87-.23-1.29-.08-.43.14-.77.45-.97.86-.05.11-.1.23-.13.35-.55.04-1.07.23-1.53.54-.45.31-.81.74-1.05,1.24l-.55,1.13-2.58,1.02c-.63.24-1.15.7-1.46,1.29l-2.35,4.78c-.27.56-.33,1.2-.17,1.8l.84,2.84c-.12.23-.2.48-.23.74-.03.26,0,.52.07.77.07.25.2.48.36.69.16.2.37.37.6.5l1.83.9c.48.2,1.02.21,1.5.02.48-.19.87-.56,1.08-1.03l.73-1.48c.47-.04.92-.2,1.32-.46.39-.26.71-.62.93-1.04ZM768.63,311.13c-.13-.06-.23-.16-.3-.28-.07-.12-.1-.26-.1-.4,0-.14.06-.28.14-.39.09-.11.2-.2.33-.24.13-.05.28-.05.41-.02.14.04.26.11.35.22.09.1.15.24.17.38.02.14,0,.28-.07.41-.04.08-.1.16-.17.22-.07.06-.15.11-.24.14-.09.03-.18.04-.27.03s-.18-.03-.27-.07Z"/>
      <path class="cls-7" d="M768.63,311.14h.17c.15.02.31,0,.45-.07.1-.05.18-.13.25-.23.06-.09.1-.2.11-.31.04-.1.05-.21.03-.32-.02-.11-.06-.21-.12-.3-.06-.09-.15-.16-.24-.21-.1-.05-.2-.08-.31-.08s-.22.03-.31.08c-.1.05-.18.12-.24.21-.06.09-.1.19-.12.3-.02.11,0,.22.03.32.03.15.11.28.22.39l.14.1h-.12c-.13-.1-.21-.25-.24-.41-.03-.12-.02-.24.01-.36.03-.12.1-.22.18-.31.11-.1.24-.17.39-.19.15-.03.31,0,.45.06.14.07.26.18.34.32.06.13.09.27.08.41-.02.12-.06.24-.13.34-.07.1-.17.18-.28.24-.15.05-.32.05-.48,0h-.24Z"/>
      <path class="cls-7" d="M766.58,324.47l-.09.17c-.09.16-.19.31-.31.45-.19.23-.42.43-.68.59-.35.21-.75.35-1.16.39-.13.24-.26.52-.39.8l-.22.43c-.07.16-.14.31-.23.46-.21.32-.48.58-.81.76-.36.19-.77.27-1.17.22-.22-.03-.43-.1-.62-.21l-.59-.28-1.29-.62c-.22-.13-.41-.3-.56-.5-.15-.2-.26-.43-.33-.67-.13-.52-.06-1.06.18-1.53-.28-.95-.58-1.94-.88-2.99-.12-.55-.05-1.12.19-1.62.24-.5.49-1.02.75-1.53.5-1.04,1.03-2.11,1.56-3.2.27-.56.73-1.02,1.29-1.29.14-.07.28-.13.42-.18l.44-.17.89-.33,1.15-.44.5-1.03c.09-.17.18-.34.28-.5s.23-.3.36-.44c.51-.55,1.22-.89,1.97-.95.09-.37.31-.71.61-.94.3-.24.68-.37,1.06-.37s.76.13,1.06.37c.3.24.52.57.61.94.05.23.06.48.02.71-.04.23-.14.46-.27.65.13.19.22.39.28.61.03.21.03.43,0,.64-.02.21-.06.43-.13.63-.08.19-.17.37-.26.55.28.46.43.98.43,1.52-.02.5-.15.99-.4,1.43-.23.41-.56.75-.95,1.01-.37.24-.79.38-1.22.43l-1.65,3.36c.22.35.36.76.4,1.17.05.29.05.6,0,.89-.04.18-.09.36-.17.53.06-.17.11-.35.15-.53.05-.29.05-.6,0-.89-.04-.41-.18-.81-.4-1.16l1.64-3.36c.43-.04.84-.19,1.2-.43.39-.27.71-.62.94-1.04.22-.42.34-.88.35-1.36,0-.52-.13-1.04-.41-1.48.09-.19.18-.37.26-.57.06-.2.1-.4.12-.6.03-.21.03-.42,0-.63-.05-.21-.14-.41-.27-.59.21-.3.32-.66.31-1.02s-.15-.72-.38-1c-.23-.28-.55-.47-.91-.55-.36-.08-.73-.03-1.06.12-.23.1-.43.26-.6.45-.16.19-.28.42-.33.67-.74.07-1.43.4-1.93.94-.13.13-.24.28-.35.42-.1.16-.19.33-.27.5l-.5,1.03-1.14.44-.89.34-.44.17c-.15.05-.29.11-.43.18-.54.28-.98.73-1.22,1.29l-1.57,3.2c-.24.52-.5,1.03-.75,1.53-.23.5-.3,1.05-.19,1.59.3,1.04.61,2.04.88,2.99-.24.46-.3.99-.17,1.5.06.24.16.46.31.66.15.19.33.36.54.48.41.22.84.42,1.29.62l.59.3c.19.1.39.17.59.21.4.05.81-.03,1.16-.22.32-.17.6-.43.79-.75.09-.15.17-.3.24-.45l.21-.44.4-.79c.41-.04.8-.16,1.15-.37.26-.16.49-.35.68-.58.12-.14.23-.29.32-.45l.03-.26Z"/>
      <path class="cls-5" d="M765.66,312.49l-.81,1.64-3.3,1.12c-.16.05-.31.13-.43.24-.13.11-.23.25-.3.4l-2.35,4.78c-.05.13-.08.27-.08.41s.03.28.08.41l1.16,3.43-.26.53c-.09.17-.1.37-.04.55.06.18.19.33.36.42l1.97.97c.17.08.37.09.55.03.18-.06.33-.19.42-.36l.9-1.86c-.46-.24-.81-.65-.98-1.15-.16-.5-.12-1.04.11-1.51.23-.47.64-.83,1.13-1,.49-.17,1.03-.15,1.51.07l2.04-4.16c-.25-.1-.48-.26-.67-.46-.19-.2-.34-.43-.43-.68-.1-.25-.14-.53-.12-.8.01-.27.08-.54.2-.78.12-.24.29-.46.49-.64.21-.18.45-.31.71-.39.26-.08.53-.11.8-.08.27.03.53.11.77.24l.33-.67c.04-.09.07-.18.07-.27,0-.1,0-.19-.04-.28-.03-.09-.08-.17-.14-.24-.06-.07-.14-.13-.22-.17l-1.07-.53c-.21-.11-.43-.17-.66-.19-.23-.02-.46.01-.69.09-.22.07-.42.19-.6.35-.17.15-.31.34-.41.55Z"/>
      <path class="cls-5" d="M765.11,322.17c.26.12.47.32.61.56s.21.53.19.81c-.02.28-.12.55-.29.78-.17.23-.41.4-.67.49-.27.09-.56.1-.83.03-.27-.07-.52-.22-.71-.44-.19-.21-.31-.48-.34-.76-.04-.28,0-.57.13-.82.17-.34.46-.6.82-.72.36-.12.75-.1,1.09.07Z"/>
      <path class="cls-5" d="M768.89,314.46c.17.09.32.2.44.34.12.14.22.31.28.49.06.18.08.37.07.56-.01.19-.06.37-.15.54-.09.17-.2.32-.34.44s-.31.22-.49.28c-.18.06-.37.08-.56.07-.19-.01-.37-.06-.54-.15-.17-.08-.32-.19-.45-.33-.12-.14-.22-.3-.28-.48s-.09-.36-.07-.55c.01-.19.06-.37.14-.53.08-.17.19-.33.34-.46.14-.13.31-.23.49-.29.18-.06.37-.09.57-.08.19.01.38.06.55.15Z"/>
      <path class="cls-10" d="M760.43,323.25c-.03.06-.07.12-.13.15-.06.04-.13.06-.2.06s-.14-.02-.2-.06c-.06-.04-.1-.09-.13-.15l-.3-.9-.39-1.29c-.02-.05-.02-.1,0-.15l.85-1.75s.03-.05.05-.07c.02-.02.05-.03.07-.04.03,0,.05-.01.08,0,.03,0,.05.01.08.02l1.58.77s.05.03.07.05c.02.02.03.05.04.07,0,.03.01.05,0,.08,0,.03-.01.05-.02.08l-1.47,3.13Z"/>
      <path class="cls-10" d="M760.56,318.55l1.56.76s.05.02.08.02c.03,0,.06,0,.09-.01.03-.01.05-.02.07-.04.02-.02.04-.04.05-.07l1.64-3.34s.02-.05.02-.08c0-.03,0-.06-.01-.09-.01-.03-.03-.05-.04-.07-.02-.02-.04-.04-.07-.05l-.35-.17c-.05-.02-.1-.02-.15,0l-1.78.57s-.06.02-.08.03c-.03.02-.05.04-.06.07l-1.07,2.19c-.02.05-.02.11,0,.16.02.05.05.1.1.12Z"/>
      <path class="cls-7" d="M775.15,309.9l-6.28,1.08c-.65.11-1.23.48-1.62,1.02-.38.54-.53,1.21-.42,1.86l2.4,13.87c.13.64.5,1.21,1.04,1.59.54.38,1.2.54,1.85.45l6.28-1.1c.32-.05.63-.17.91-.35.28-.17.52-.4.71-.67.19-.27.32-.57.4-.89.07-.32.08-.65.02-.97l-2.4-13.87c-.11-.65-.48-1.23-1.02-1.62-.54-.38-1.21-.53-1.86-.42ZM774.09,312.84l-3.16.55c-.2.03-.41-.01-.57-.13-.17-.12-.28-.3-.31-.5-.03-.2.01-.41.13-.57.12-.17.29-.28.5-.31l3.16-.54c.1-.02.21-.03.31-.01.1.02.2.06.29.11.09.06.16.13.22.22.06.09.1.19.11.29.02.1.02.21-.01.31-.02.1-.07.2-.13.28-.06.08-.14.15-.23.2-.09.05-.19.08-.29.09Z"/>
      <path class="cls-3" d="M774.58,314.39l-3.66.63c-1.15.2-1.92,1.29-1.72,2.44l1.12,6.46c.2,1.15,1.29,1.92,2.44,1.72l3.66-.63c1.15-.2,1.92-1.29,1.72-2.44l-1.12-6.46c-.2-1.15-1.29-1.92-2.44-1.72Z"/>
      <path class="cls-3" d="M778.46,317.1s-2.35.44-5.26.94c-2.91.5-5.26.9-5.26.88s2.35-.44,5.26-.94c2.91-.5,5.26-.89,5.26-.88Z"/>
      <path class="cls-3" d="M779.12,320.93s-2.31.43-5.15.91c-2.85.49-5.16.89-5.16.86l5.16-.93c2.85-.49,5.15-.88,5.15-.85Z"/>
      <path class="cls-2" d="M778.91,326.21c.02.13.02.26-.01.39-.03.13-.08.25-.16.35-.08.11-.17.2-.28.27-.11.07-.23.12-.36.14-.26.04-.53-.02-.74-.17-.22-.15-.37-.38-.42-.64-.02-.13-.02-.26.01-.39.03-.13.08-.25.16-.35.08-.11.17-.2.28-.27s.23-.12.36-.14c.26-.04.53.02.74.17.22.15.37.38.42.64Z"/>
      <path class="cls-3" d="M778.42,328.04h.3l.22-.09c.19-.11.37-.24.53-.4.21-.21.36-.47.44-.76.05-.17.08-.35.08-.53.02-.19.02-.39,0-.58-.08-.41-.15-.85-.23-1.29-.17-.95-.36-2.04-.57-3.23-.41-2.38-.91-5.23-1.46-8.4,0-.19-.08-.4-.1-.59-.03-.2-.08-.4-.15-.59-.16-.38-.44-.69-.8-.89-.37-.21-.79-.29-1.21-.22l-1.29.22-5.33.91c-.45.08-.86.32-1.13.68-.3.36-.45.82-.41,1.29.02.23.06.45.1.67l.12.66c0,.44.14.88.22,1.29.3,1.73.58,3.39.86,4.96.28,1.57.53,3.09.77,4.5.12.71.23,1.38.35,2.04.04.31.15.61.34.87.18.26.43.46.71.6.26.13.55.2.85.19h.42l.4-.07,1.53-.27,2.44-.41,1.53-.26.41-.06-.4.08-1.55.27-2.44.43-1.52.27-.41.06h-.42c-.3.01-.6-.05-.86-.19-.29-.14-.55-.34-.74-.61-.19-.26-.31-.57-.35-.89-.12-.66-.23-1.29-.36-2.04l-.8-4.6c-.27-1.58-.57-3.23-.86-4.96-.08-.43-.15-.86-.22-1.29l-.12-.66c-.05-.22-.08-.45-.1-.67-.02-.47.13-.93.43-1.29.29-.37.71-.62,1.17-.71l5.33-.91,1.29-.22c.44-.08.9,0,1.29.22.37.21.66.55.83.94.08.19.14.39.16.59l.1.59c.55,3.17,1.04,6.02,1.46,8.41.21,1.19.39,2.27.55,3.22.08.48.15.92.22,1.29.04.19.07.39.08.59,0,.18-.04.36-.09.53-.08.29-.24.56-.45.77-.15.16-.33.29-.53.4l-.22.08h-.17l-.22.05Z"/>
      <path class="cls-7" d="M777.07,317.37s-1.73.34-3.87.71c-2.14.37-3.87.66-3.87.63s1.73-.32,3.87-.7c2.14-.37,3.87-.66,3.87-.64Z"/>
      <path class="cls-7" d="M777.7,321.15s-1.71.32-3.87.7c-2.15.37-3.87.66-3.87.63l3.87-.7c2.14-.37,3.87-.66,3.87-.63Z"/>
      <path class="cls-7" d="M770.84,325.04s-.35-1.8-.72-4.03c-.37-2.23-.7-4.05-.67-4.05s.35,1.79.74,4.03c.39,2.24.68,4.03.66,4.05Z"/>
      <path class="cls-7" d="M777.87,323.79s-.34-1.79-.72-4.01c-.39-2.22-.68-4.01-.66-4.01s.34,1.78.72,3.99c.39,2.22.68,4.02.66,4.02Z"/>
      <path class="cls-2" d="M768.91,308.92c0-.07,0-.13,0-.19-.01-.13-.01-.26,0-.39,0-.03,0-.07,0-.1,0,.08,0,0,0,0,.02-.07.04-.14.06-.21,0-.12.09-.25.14-.36v-.08l.12-.17c.06-.11.14-.22.23-.31l.14-.13.31-.26h.09l.18-.1.39-.18.18-.06h.12l.41-.09h.35c.14-.01.27-.01.41,0h.33l.39.12.37.17h.09l.18.12.31.24h.06l.13.14c.1.09.18.2.26.31,0,.03,0,.06,0,.09.03.07.06.13.1.19.06.12.12.24.17.36v.18s0,.08,0,.12c.04.13.07.27.08.41,0,.06,0,.13,0,.19v.49c0,.07,0,.14,0,.21v.09c0,.13-.08.26-.12.39l-.08.17s0,.06,0,.09c-.07.12-.14.23-.22.33l-.12.15v.08s0,.06-.08.08c0-.07-.08.01,0,0l-.08.08-.15.14c-.1.09-.2.16-.31.23h-.09l-.18.09c-.12.07-.25.12-.39.17h-.32l-.49.07h-.81c-.16-.04-.32-.1-.48-.17-.08-.03-.18-.03-.26.01-.08.04-.14.11-.17.19-.03.08-.03.18.01.26.04.08.11.14.19.17.64.26,1.34.35,2.02.24.68-.11,1.32-.41,1.84-.86.46-.4.83-.91,1.05-1.48.22-.57.31-1.19.24-1.8-.09-.53-.29-1.03-.59-1.47-.33-.48-.77-.87-1.29-1.15-.55-.27-1.16-.4-1.78-.38-.61.02-1.22.18-1.75.47-.53.29-.97.7-1.3,1.2-.32.5-.52,1.08-.56,1.68-.02.12-.02.23,0,.35.21-.08.42-.13.64-.14Z"/>
      <path class="cls-7" d="M768.91,308.92h-.17l-.49.12c-.02-.11-.02-.23,0-.35.02-.37.1-.74.25-1.08.17-.49.46-.93.84-1.29.46-.44,1.02-.75,1.64-.91.71-.21,1.47-.21,2.18,0,.39.13.75.31,1.08.55.34.25.64.57.88.93.26.39.45.83.54,1.29.1.45.13.92.06,1.38-.07.5-.24.99-.5,1.42-.26.43-.61.81-1.02,1.11-.41.3-.88.51-1.37.62-.49.11-1.01.12-1.51.03l-.31-.07-.3-.1h-.14c-.05-.01-.1-.04-.14-.08-.04-.04-.07-.09-.09-.14-.02-.05-.03-.11-.02-.17,0-.05.02-.11.04-.15.03-.05.07-.09.11-.12.05-.03.1-.04.16-.04s.11.01.16.04l.28.1h.14v.06-.04l.41.06h.4v.06h.8s0,.08,0,.07l.21-.09.21-.09.19-.09h.09l.35-.27.16-.14.08-.08.06-.08v-.08l.13-.18.12-.18v-.19c.04-.06.06-.12.08-.19,0-.13.09-.26.13-.39,0-.03,0-.06,0-.09v-.71s.08,0,.07,0h-.07v-.95l-.09-.21-.1-.19v-.09c-.08-.12-.16-.24-.26-.35l-.08-.08v-.08l-.08-.08-.08-.07h-.08l-.17-.13-.17-.1h-.17l-.13-.08h.14-.1l-.22-.09-.37-.12h-.8.18-.19c-.17-.01-.33-.01-.5,0h-.36l-.22.09-.21.09-.19.09-.09.07h.1-.09l-.35.27-.17-.5-.07.06-.06.09-.13.17s-.07.1-.1.15v.19l-.08.19c0,.06,0,.12,0,.18,0,.03,0,.05,0,.08-.01.05-.01.1,0,.15v.14c0,.07,0,.14,0,.21v.17-.17c0-.07,0-.15,0-.22v-.57l.09-.19v-.24l.1-.15.13-.17.07-.09h.05s.15-.13.15-.13l.17-.13.19-.14h.1l.19-.1.21-.09.22-.09h.36c.09,0,.17,0,.26,0h.64c.14-.01.28-.01.43,0l.37.12.22.1h.12c.25.14.48.3.7.49l.08.08.08.08v.09c.1.11.19.23.27.36v.09l.1.21.09.19v1.79s.02.08,0,.12l-.1.19v-.22c0,.13-.08.27-.12.4l-.08.19s0,.07,0,.1c0,.02,0,.04,0,.06v.1l-.12.18-.13.18-.08.08s-.04.07-.08.09l-.07.08-.17.14-.35.27h-.1l-.19.1-.21.09-.21.08s0,.13,0,.06h-.86v.07h-.41l-.41-.07v-.05h-.26l-.28-.12s-.09-.01-.13,0c-.05,0-.09.02-.12.05-.04.03-.07.06-.09.1-.02.04-.04.08-.04.13,0,.05,0,.09.02.13.02.04.04.08.07.11.09.05.18.09.27.13l.28.09h.31c.5.08,1.02.06,1.51-.05s.96-.33,1.38-.63c.57-.43,1.01-1.02,1.25-1.7.24-.68.28-1.41.12-2.1-.1-.43-.28-.84-.53-1.21-.23-.35-.52-.66-.86-.9-.32-.24-.68-.43-1.06-.55-.7-.2-1.45-.2-2.15,0-.61.17-1.16.47-1.62.9-.37.36-.66.8-.84,1.29-.14.34-.23.7-.24,1.07-.03.12-.03.23,0,.35.16-.06.32-.1.49-.12h.17l.22-.08Z"/>
      <path class="cls-5" d="M779.55,323.73l-2.51.43.43,2.51,2.51-.43-.43-2.51Z"/>
      <path class="cls-5" d="M774.28,314.99l-2.5.43.43,2.5,2.5-.43-.43-2.5Z"/>
      <path class="cls-5" d="M773.78,321.2c-.27,0-.54-.08-.76-.23-.14-.1-.26-.23-.35-.37s-.15-.31-.18-.48c-.03-.17-.03-.34.01-.51.04-.17.11-.33.21-.47.1-.14.22-.26.37-.36.15-.09.31-.15.48-.18.17-.03.34-.03.51,0,.17.04.33.11.47.21.14.1.26.23.35.37.09.15.15.31.18.48.03.17.03.34-.01.51-.04.17-.11.33-.21.47-.1.14-.22.26-.37.36-.15.09-.31.15-.48.18h-.22Z"/>
      <path class="cls-11" d="M767.11,310.26c1.12-.45,1.42-1.48,1.93-2.58.29-.48.48-1.02.56-1.57.08-.55.05-1.12-.09-1.66-.04-.17-.11-.33-.21-.47-.1-.14-.23-.26-.38-.35-.5-.23-1.07.15-1.46.55-1.42,1.13-2.34,2.76-2.58,4.55"/>
      <path class="cls-9" d="M764.88,308.73c-.15-.74-.02-1.52.37-2.17.37-.72.83-1.39,1.38-1.98.31-.37.66-.7,1.03-1.01.24-.18.53-.3.83-.35.18-.01.36.01.52.08.17.07.31.17.43.31.29.45.48.96.53,1.49.06.53-.01,1.07-.2,1.57-.29.74-.63,1.46-1,2.17-.24.52-.61.96-1.08,1.29-.35.19-.57.21-.58.17.56-.42,1.01-.98,1.29-1.62.23-.61.59-1.35.84-2.14.13-.42.18-.85.14-1.29-.02-.42-.16-.83-.39-1.19-.21-.26-.54-.21-.9,0-.34.28-.65.58-.95.9-.54.53-1.01,1.13-1.41,1.78-.33.64-.61,1.31-.85,1.99Z"/>
      <path class="cls-7" d="M735.15,322.19c0-5.84.99-11.6.76-17.5-.23-5.9-1.75-11.92-5.83-16.11-4.07-4.19-11.16-5.79-15.93-2.41l-.97,4.97c1.87,22.53,1.61,45.43,3.49,67.97.24,2.95,2.64,5.63,3.99,8.29,1.35,2.65,4.05,4.83,7.01,4.65,3.87-.25,6.44-4.18,7.63-7.88,4.37-13.39-.32-27.89-.17-41.99Z"/>
      <path class="cls-3" d="M721.09,291.9c-.77-1.48-1.77-2.84-2.96-4.02-.6-.59-1.32-1.03-2.12-1.3-.8-.27-1.64-.35-2.48-.23-.39.04-.76.18-1.08.41-.32.23-.58.53-.75.88-.26.75.3,1.74,1.08,1.68l.17.14c1.72,1.55,3.5,3.06,5.35,4.54.43.4.93.71,1.48.93.28.1.58.12.87.06.29-.06.55-.2.77-.41.7-.7.18-1.86-.32-2.67Z"/>
      <path class="cls-7" d="M724.4,297.63c-2.72-3.48-6.18-6.31-10.13-8.28-3.96-1.97-8.3-3.02-12.72-3.09-5.15-.08-7.33.99-11.07,2.01-3.74.89-7.05,3.08-9.33,6.17-2.82,3.66-4.67,7.97-5.37,12.53-.66,4.69-.89,9.44-.67,14.18.21,4.74,1.73,9.33,4.4,13.26l11.98,2.09c6.61.22,13.33.44,19.77-1.07,6.44-1.51,12.71-4.97,16.16-10.62,4.79-7.89,2.8-20.05-3.02-27.18Z"/>
      <path class="cls-11" d="M713.73,297.55l-15.97-6.34-4.18.48c-9.38,0-15.85,10.39-15.92,18.04,0,8.45.18,18.76,1.52,24.99,2.71,12.53,13.39,13.57,13.39,13.57,0,0-.22,6.66-.31,10.88l9.21,14.36,15.22-16.17,1.22-55.51c-.04-1.11-.49-2.17-1.27-2.96-.78-.79-1.82-1.27-2.93-1.33Z"/>
      <path class="cls-9" d="M697.97,331.74c-.1-.64-.42-1.23-.92-1.65-.46-.39-1.03-.62-1.62-.65-.6-.03-1.19.13-1.69.47-.52.4-.91.92-1.16,1.53-.24.6-.32,1.26-.22,1.9.27.38.63.71,1.04.94s.86.38,1.33.43c.15.01.3.01.45,0,.74,0,1.46-.28,2-.79.29-.28.52-.62.65-1,.14-.38.18-.78.14-1.18Z"/>
      <path class="cls-7" d="M683.52,319.45c.02.42.2.82.51,1.11.31.29.72.45,1.14.44.21,0,.41-.03.61-.11.19-.08.37-.19.52-.33.15-.15.27-.32.35-.51.08-.19.12-.4.12-.61-.02-.42-.21-.82-.52-1.1-.31-.29-.71-.45-1.14-.44-.21,0-.41.03-.61.11-.19.08-.37.19-.52.34-.15.14-.27.32-.35.51-.08.19-.12.4-.12.6Z"/>
      <path class="cls-7" d="M680.53,313.91c.21.21,1.39-.77,3.13-.86,1.74-.09,3.07.71,3.25.49.18-.22-.14-.48-.72-.85-.77-.47-1.67-.7-2.58-.66-.91.06-1.77.39-2.49.95-.54.45-.7.84-.59.93Z"/>
      <path class="cls-7" d="M691.73,327.58c-.93-.24-1.89-.36-2.86-.36-.44,0-.88-.09-.97-.39-.05-.44.03-.89.23-1.29.36-1.11.74-2.26,1.12-3.47,1.57-4.92,2.68-9.02,2.47-9.02-1.29,2.85-2.36,5.79-3.18,8.8-.39,1.21-.74,2.37-1.08,3.48-.25.55-.29,1.17-.13,1.75.07.16.18.29.31.4.13.11.29.18.45.22.25.05.5.07.76.06.96.05,1.93-.02,2.87-.19Z"/>
      <path class="cls-9" d="M692.55,348.23c5.95-.24,11.72-2.13,16.66-5.45,0,0-4.02,9.02-16.75,8.52l.09-3.07Z"/>
      <path class="cls-7" d="M696.92,328.49c-.28,0-.18,1.89-1.73,3.33-1.55,1.43-3.57,1.29-3.57,1.6s.46.35,1.29.32c1.12-.06,2.18-.52,2.99-1.29.78-.72,1.24-1.72,1.29-2.78.1-.72-.14-1.19-.27-1.17Z"/>
      <path class="cls-7" d="M681.12,307.8c.32.41,1.64,0,3.2.1,1.56.1,2.89.39,3.21,0,.14-.19,0-.59-.62-.99-.77-.5-1.66-.77-2.58-.76-.91-.03-1.81.21-2.58.7-.57.36-.77.76-.63.95Z"/>
      <path class="cls-7" d="M702.99,318.7c.02.42-.14.83-.43,1.14-.29.31-.69.5-1.11.52-.21.02-.41,0-.61-.06-.2-.06-.38-.16-.54-.29-.16-.13-.29-.3-.38-.48-.09-.19-.15-.39-.17-.59,0-.42.15-.83.43-1.14s.68-.5,1.1-.52c.21-.02.41,0,.61.06.2.06.38.16.54.29.16.13.29.3.38.48s.15.39.16.59Z"/>
      <path class="cls-7" d="M704.06,313.24c-.19.21-1.44-.68-3.18-.64-1.74.04-3.01.93-3.21.72-.19-.21.12-.48.66-.89.75-.54,1.65-.83,2.58-.84.92-.03,1.83.24,2.58.77.58.4.73.77.58.88Z"/>
      <path class="cls-7" d="M703.07,307.64c-.33.41-1.69,0-3.31,0s-2.99.32-3.31-.09c-.14-.19.08-.59.67-.98.81-.47,1.73-.72,2.66-.72s1.85.25,2.66.72c.58.48.77.88.63,1.07Z"/>
      <path class="cls-11" d="M715.79,323.07c0-.94.92-3.22,1.83-3.42,2.46-.53,6.95-.57,7.33,5.74.53,8.6-8.22,7.36-8.25,7.11-.03-.24-.75-6.19-.92-9.43Z"/>
      <path class="cls-9" d="M718.88,329.22s.16.09.41.19c.36.14.76.14,1.12,0,.53-.39.96-.91,1.23-1.51.27-.6.37-1.26.29-1.92-.03-.74-.22-1.47-.55-2.13-.1-.26-.26-.5-.46-.69-.21-.19-.46-.32-.73-.39-.18-.03-.36,0-.52.08-.16.08-.28.22-.35.39-.1.24,0,.43-.08.44-.08.01-.19-.13-.15-.49.03-.22.14-.42.31-.57.23-.19.52-.29.81-.27.36.05.71.2.99.43s.52.52.65.86c.41.72.64,1.54.67,2.37.1.77-.04,1.54-.39,2.23-.35.69-.9,1.26-1.57,1.63-.23.08-.47.11-.71.08-.24-.02-.47-.1-.67-.22-.28-.31-.33-.5-.31-.52Z"/>
      <path class="cls-7" d="M717.97,319.68l-2.18,2.27c-9.45-9.02-27.9-31.68-26.87-30.32,4.3-1.62,8.94-2.13,13.49-1.5,7.02,1.2,20.34,4.72,20.13,12.99-.21,8.27-4.58,16.56-4.58,16.56Z"/>
      <path class="cls-3" d="M730.48,317.77c-.02-.17-.07-.33-.13-.49-.16-.45-.36-.88-.59-1.29-.89-1.6-2.12-2.98-3.6-4.06-2.2-1.57-4.65-2.74-7.24-3.48-2.87-.94-6.12-1.66-9.3-3.03-3.01-1.26-5.86-2.86-8.51-4.77-2.16-1.56-4.17-3.32-6-5.25-1.24-1.3-2.4-2.68-3.47-4.12-.36-.48-.64-.88-.86-1.19-.09-.15-.21-.28-.34-.4.07.16.15.31.26.45.18.28.43.71.8,1.29,1.02,1.49,2.15,2.9,3.38,4.23,1.82,1.98,3.83,3.78,5.99,5.37,2.65,1.94,5.53,3.57,8.57,4.83,3.07,1.17,6.19,2.18,9.37,3.02,2.56.71,4.99,1.84,7.18,3.35,1.46,1.03,2.7,2.34,3.63,3.87.63.99.83,1.69.86,1.66Z"/>
      <path class="cls-3" d="M727.98,319.14c.02-.64-.1-1.28-.34-1.88-.65-1.65-1.77-3.06-3.23-4.06-2.19-1.4-4.63-2.36-7.19-2.81-3.07-.62-6.06-1.57-8.92-2.84-2.84-1.31-5.52-2.96-7.97-4.91-1.99-1.61-3.81-3.4-5.45-5.36-1.1-1.33-2.11-2.73-3.04-4.19l-.74-1.2c-.17-.28-.26-.41-.28-.41.05.16.12.31.21.45l.66,1.29c.88,1.5,1.87,2.93,2.95,4.29,1.62,2.01,3.44,3.84,5.44,5.48,2.46,2,5.16,3.67,8.03,5,2.89,1.29,5.92,2.23,9.02,2.82,2.52.43,4.93,1.34,7.1,2.68,1.43.95,2.55,2.29,3.25,3.87.22.58.39,1.17.5,1.78Z"/>
      <path class="cls-3" d="M717.68,334.26c0-.07.74-.15,2.01-.49,1.79-.52,3.44-1.44,4.82-2.69,2.02-1.89,3.55-4.24,4.47-6.84,1.17-3.18,1.81-6.54,1.87-9.94.04-1.75-.1-3.5-.41-5.22-.33-1.6-.81-3.16-1.43-4.66-1.1-2.54-2.61-4.89-4.46-6.95-1.77-1.86-3.7-3.54-5.79-5.04.17.07.33.15.48.26.45.25.88.53,1.29.82,1.56,1.07,3.01,2.31,4.3,3.69,1.94,2.06,3.51,4.43,4.64,7.01.65,1.54,1.15,3.13,1.5,4.77.33,1.76.48,3.55.44,5.34-.06,3.46-.72,6.88-1.95,10.12-.98,2.67-2.6,5.05-4.7,6.96-1.44,1.25-3.17,2.13-5.02,2.58-.5.12-1.01.2-1.52.23-.17.04-.35.06-.53.07Z"/>
      <path class="cls-11" d="M647.28,344.05s-.83-5.27-2.65-4.73c-1.83.54-2,2.46-2.1,3.74,0,0-6.74,4.82-7.29,6.1-.55,1.28-.91,3.98.08,5.35.99,1.37,4.78,11.39,5.15,13.04l-1.13,5.98,12.5-.39s1.1-7.73,1.1-10.06c-.18-2.3-.55-4.58-1.11-6.82,0,0,1.73.09,2.28-.91.6-1.5.82-3.12.64-4.73-.28-.82-1.83-1.37-1.83-1.37-.16-.49-.46-.93-.87-1.25-.41-.32-.9-.52-1.41-.57,0,0-.06-3.83-3.35-3.38Z"/>
      <path class="cls-9" d="M647.26,344.17c-.09,0-.37-.44-1.1-.83-.47-.24-.98-.37-1.5-.4-.52-.03-1.05.06-1.54.24-1.02.4-1.97.98-2.79,1.71-.67.55-1.09.89-1.16.83s.23-.52.84-1.17c.78-.89,1.77-1.58,2.89-2,.58-.22,1.19-.3,1.81-.23.61.07,1.2.28,1.71.62.77.58.94,1.2.84,1.22Z"/>
      <path class="cls-9" d="M647.42,344.12c-.83.76-1.71,1.45-2.64,2.07-.86.75-1.76,1.44-2.71,2.06-.17-.12.75-1.46,2.29-2.58s2.99-1.75,3.05-1.56Z"/>
      <path class="cls-9" d="M650.71,347.3c-.69.68-1.47,1.26-2.33,1.7-.78.57-1.65,1-2.58,1.29-.14-.15.82-1.08,2.19-1.92,1.37-.84,2.63-1.26,2.72-1.07Z"/>
      <path class="cls-9" d="M653.29,349.48c0,.09-.35,0-.79.21-.6.3-1.16.67-1.69,1.08-1.29.93-2.42,1.66-2.58,1.52-.16-.14.81-1.12,2.15-2.08.57-.46,1.24-.79,1.95-.98.66-.13,1.02.18.95.24Z"/>
      <path class="cls-9" d="M652.38,353.2c.14.13-.21.76-.36,1.57-.07.35-.11.71-.13,1.07v.46c0,.09-.33,0-.45-.39-.11-.42-.11-.87,0-1.29.13-1.01.81-1.56.94-1.43Z"/>
      <path class="cls-2" d="M639.74,369.81s-6.56,30.65-6.56,49.89c0,6.17,2.17,17.57,11.88,15.93,9.72-1.64,22.53-23.57,22.53-23.57l13.78-52.61s-14.18,1.02-18.8,10.31c-3.3,6.75-10.31,23.97-10.31,23.97l.53-25.22-13.04,1.3Z"/>
      <path class="cls-7" d="M654.64,418.41c.28-1.24.47-2.51.57-3.78,0-3.06-.47-6.1-1.39-9.02-.96-2.98-1.54-6.07-1.74-9.19-.02-.95.05-1.91.23-2.85.04-.35.14-.68.31-.99.12,0-.23,1.47-.06,3.87.33,3.06.97,6.09,1.91,9.02.98,2.99,1.42,6.13,1.29,9.28-.07.95-.28,1.89-.59,2.8-.12.32-.29.61-.52.86Z"/>
      <path class="cls-2" d="M731.63,354.57s6.59-2.45,17.42,3.44c3.97,2.17,20.88,9.77,20.88,9.77,0,0-.44-19.83,1.03-26.82l-.27-5.61,14.56-2.31s4.72,31.11,4.92,40.75c.27,13.02-10.49,18.69-18.62,19.49-8.13.8-36.78-3.87-36.78-3.87l-3.15-34.85Z"/>
      <path class="cls-7" d="M773.82,377.56c-1.49-1.37-2.61-3.1-3.25-5.02-.64-1.92-.77-3.98-.39-5.97.18,1.94.53,3.87,1.03,5.76.72,1.81,1.59,3.56,2.6,5.23Z"/>
      <path class="cls-2" d="M738.72,390.65l.19-31.17-5.3-5.15-13.18.59-3.48-6.1-17.72,12.98-6.77-9.58-4.03,5.16-11.92,3.09c-4.6,1.91-10.7,28.7-11.37,38.09-.67,9.39,6.03,30.93,6.03,30.93l-7.53,24.71s11.97,16.34,28.35,16.08c25.3-.39,43.38-28.16,43.38-28.16l-2.24-20.62,5.58-30.85Z"/>
      <path class="cls-7" d="M708.7,462.06c-.41.24-.84.44-1.29.61-.53.23-1.07.43-1.62.58-.72.24-1.46.45-2.2.61-.9.22-1.81.39-2.73.5-1.05.15-2.12.24-3.18.27-2.44.06-4.87-.14-7.27-.58-2.39-.48-4.73-1.21-6.97-2.18-1.02-.49-1.98-.93-2.85-1.44-.81-.45-1.59-.94-2.35-1.48-.63-.43-1.24-.9-1.82-1.39-.46-.35-.89-.74-1.29-1.15-.37-.32-.71-.67-1.02-1.06.09-.09,1.55,1.42,4.34,3.27.71.45,1.48.95,2.36,1.4.88.45,1.82.9,2.82,1.37,2.22.93,4.52,1.64,6.87,2.11,2.35.43,4.73.63,7.11.61,1.05-.02,2.09-.09,3.13-.22.91-.09,1.81-.23,2.71-.42,3.27-.64,5.19-1.52,5.25-1.41Z"/>
      <path class="cls-7" d="M741.62,379.05c.23,0-.73,4.99-2.38,10.93-.79,2.86-1.5,5.45-2.1,7.63-.23,1.07-.54,2.12-.94,3.15-.23,0,.74-4.99,2.39-10.94l2.1-7.63c.22-1.07.54-2.12.94-3.13Z"/>
      <path class="cls-7" d="M671.69,373.52c.12,0-1.29,2.13-2.8,5.73-.91,2.09-1.67,4.25-2.28,6.44-.73,2.72-1.25,5.5-1.55,8.3-.25,2.8-.29,5.62-.1,8.43.17,2.3.5,4.58.98,6.83.84,3.87,1.75,6.12,1.62,6.16-.28-.5-.52-1.03-.7-1.57-.26-.62-.48-1.26-.66-1.91-.23-.76-.53-1.61-.73-2.58-.55-2.26-.93-4.56-1.14-6.88-.49-5.7.07-11.45,1.66-16.95.65-2.23,1.48-4.41,2.46-6.52.39-.91.84-1.7,1.21-2.4.37-.7.72-1.29,1.02-1.74.29-.48.62-.94.99-1.35Z"/>
      <path class="cls-7" d="M715.93,429.4c0,.19-8.15.64-18.2,1.02-10.05.37-18.21.54-18.22.35-.01-.19,8.14-.63,18.2-1.02,10.05-.39,18.21-.53,18.22-.35Z"/>
      <path class="cls-7" d="M699.1,361.72c-.15.85-.45,1.66-.88,2.41-.93,1.94-2.16,3.72-3.65,5.27l-.32.35-.22-.43-.98-2.01c-1.35-2.76-2.58-5.27-3.38-7.11-.51-.96-.92-1.98-1.21-3.03.63.89,1.18,1.83,1.64,2.82.94,1.78,2.2,4.27,3.56,7.04l.97,2-.53-.08c1.97-2.18,3.65-4.61,5-7.23Z"/>
      <path class="cls-7" d="M720.61,355.03c-.21.36-.47.7-.77.99-.53.61-1.29,1.46-2.31,2.49-2.64,2.69-5.41,5.25-8.31,7.66-2.1,1.71-4.14,3.26-5.92,4.54l-.28.21-.15-.31c-.94-1.81-1.74-3.69-2.39-5.62-.28-.73-.47-1.48-.58-2.25.37.68.67,1.4.91,2.14.75,1.87,1.61,3.69,2.58,5.46l-.43-.1c1.74-1.29,3.75-2.87,5.84-4.59,3.36-2.77,6.28-5.44,8.36-7.4,1.09-1.13,2.24-2.2,3.44-3.21Z"/>
      <path class="cls-7" d="M705.43,682.9v1.39s-23.52,9.72-23.73,14.18l46.87-.68-.86-15.59c-3.45,1.71-7.22,2.66-11.06,2.78-3.84.12-7.67-.59-11.22-2.07Z"/>
      <path class="cls-3" d="M728.55,697.79l-.21-3.75-44.81,2.04s-2.07.94-1.82,2.4l46.83-.68Z"/>
      <path class="cls-10" d="M705.27,684.48c0,.22,1.16.31,2.29,1.03,1.14.72,1.75,1.67,1.96,1.57.21-.1-.14-1.41-1.53-2.26-1.39-.85-2.77-.62-2.72-.35Z"/>
      <path class="cls-10" d="M700.39,686.53c0,.22.94.59,1.74,1.56.8.97,1.03,1.97,1.29,1.96.26-.01.35-1.29-.66-2.48-1.01-1.19-2.37-1.26-2.37-1.04Z"/>
      <path class="cls-10" d="M697.68,692.46c.21,0,.52-1.11-.09-2.35-.61-1.24-1.69-1.73-1.78-1.55-.09.18.57.86,1.06,1.89.49,1.03.58,1.97.81,2Z"/>
      <path class="cls-11" d="M659.29,471.43s-8.33,29.11,5.8,66.31c14.13,37.19,22.02,67.01,22.58,74.98.55,7.96,2.28,12.89,9.7,38.3,5.43,18.52,8.94,32.1,8.94,32.1,2.44,1.31,5.13,2.08,7.89,2.27,2.76.19,5.53-.22,8.12-1.2,0,0,.13-43.43-8.03-73.19-8.16-29.76-13.74-76.28-10.94-93.09,2.8-16.81-3.25-26.38-3.25-26.38l-40.81-20.1Z"/>
      <path class="cls-11" d="M746.77,507.11c5.42-26.17-9.18-46.59-9.18-46.59l-43.46,35.39s-9.19,105.92-3.76,119.66c5.43,13.74,31.95,70.45,31.95,70.45l15.54-5.26s-3.38-45.93-9.32-57.53c-4.28-8.34-11.26-12.31-8-23.2,3.26-10.89,21.79-71.5,26.23-92.93Z"/>
      <path class="cls-3" d="M659.1,472.01c-.15-.06,34.65,25.52,34.65,25.52l46.68-31.78-4.81-9.37s-28.35,10.22-40.7,7.66c-12.35-2.56-29.19-7.66-29.19-7.66l-6.64,15.63Z"/>
      <path class="cls-7" d="M667.5,441.5s-18.25,40.83-12.36,67.92c5.89,27.09,26.79,84.41,26.79,84.41l41.05,2.08s18.04-58.78,21.68-75.84c4.87-22.54,6.11-43.22-8.31-72.55l-1.04-6.01h-67.8Z"/>
      <path class="cls-7" d="M738.29,677.02s-11.6,11.78-18.04,5.28l-1.16,3.56-4.37,24.91c-.15.79,0,1.6.41,2.29.42.69,1.07,1.19,1.84,1.42.59.17,1.22.17,1.82,0s1.13-.5,1.55-.96c4.41-4.95,20.52-23.2,20.13-25.43l-.63-5.95c-.14-1.29-1.29-4.18-1.29-4.43l-.26-.7Z"/>
      <path class="cls-3" d="M717.62,714.6l22.72-28.57.12,1.29c.08.54.04,1.08-.12,1.6-.16.52-.44.99-.81,1.39-1.78,2.87-6.86,9.41-19.05,23.2-.36.4-.8.7-1.3.89-.5.19-1.03.25-1.56.19h0Z"/>
      <path class="cls-10" d="M723.61,700.5c-.85-.89-1.87-1.62-2.99-2.14-1.2-.34-2.46-.46-3.7-.33,0-.08.35-.35,1.08-.53.96-.2,1.96-.12,2.87.23.91.33,1.7.92,2.29,1.69.43.61.52,1.06.44,1.08Z"/>
      <path class="cls-10" d="M721.74,704.83c-.95-.41-1.93-.77-2.93-1.07-1.04-.1-2.08-.14-3.12-.1.46-.34,1-.57,1.56-.67.57-.1,1.15-.06,1.7.1,1.86.36,2.94,1.64,2.78,1.74Z"/>
      <path class="cls-10" d="M727.26,694.79c-1.41-.75-2.88-1.4-4.38-1.94-1.58-.33-3.17-.54-4.78-.63,1.61-.57,3.37-.57,4.97,0,1.66.34,3.14,1.25,4.19,2.58Z"/>
      <path class="cls-3" d="M688.77,593.54c-.02-.1-.02-.21,0-.31v-.9c0-.85.08-2.01.13-3.48.14-3.07.33-7.41.57-12.76.55-10.82,1.29-25.67,2.17-42.09.8-14.56,1.55-27.9,2.11-38.11v.15l-8.7-13.02c-1.01-1.51-1.79-2.71-2.36-3.58-.25-.37-.44-.68-.59-.94-.15-.26-.19-.32-.18-.34.09.09.17.19.24.3l.66.9,2.46,3.51,8.89,12.89v.15c-.53,10.21-1.21,23.56-1.96,38.12-.93,16.41-1.75,31.26-2.36,42.08-.32,5.34-.59,9.68-.79,12.76-.1,1.46-.18,2.58-.24,3.45,0,.36-.07.66-.09.9.02.1.03.21.04.31Z"/>
      <path class="cls-9" d="M689.59,594.27c.03.33.03.65,0,.98v2.78c-.09,3.41.02,6.83.31,10.23.45,5.03,1.81,9.94,4.01,14.49,1.21,2.58,2.58,5.25,3.99,8.04,1.42,2.8,2.69,5.77,3.98,8.8,2.58,6.06,5.32,11.75,7.73,16.95s4.55,9.9,6.24,13.89c1.69,3.99,2.94,7.27,3.75,9.55.43,1.13.71,2.04.9,2.58.13.3.22.62.27.94-.16-.28-.3-.58-.4-.89-.24-.66-.59-1.52-1.01-2.58-.89-2.25-2.22-5.49-3.96-9.46s-3.87-8.63-6.35-13.81c-2.49-5.18-5.16-10.86-7.8-16.93-1.29-3.05-2.58-5.98-3.96-8.78-1.38-2.8-2.76-5.46-3.97-8.08-2.19-4.62-3.5-9.61-3.87-14.71-.26-3.43-.3-6.87-.1-10.31.08-1.16.14-2.09.18-2.8-.01-.3,0-.6.04-.89Z"/>
    </g>
  </g>
</svg>
