<?xml version="1.0" encoding="UTF-8"?>
<svg id="Layer_1" data-name="Layer 1" xmlns="http://www.w3.org/2000/svg" viewBox="0 0 1000 1000">
  <defs>
    <style>
      .cls-1 {
        fill: #000;
      }

      .cls-1, .cls-2, .cls-3, .cls-4, .cls-5, .cls-6, .cls-7, .cls-8, .cls-9, .cls-10 {
        stroke-width: 0px;
      }

      .cls-2 {
        fill: #e0e0e0;
      }

      .cls-3 {
        fill: #455a64;
      }

      .cls-4 {
        fill: #f5f5f5;
      }

      .cls-5 {
        fill: #09f;
      }

      .cls-6 {
        fill: #ebebeb;
      }

      .cls-7 {
        fill: #936760;
      }

      .cls-8 {
        fill: #6f4c47;
      }

      .cls-9 {
        fill: #263238;
      }

      .cls-11 {
        opacity: .3;
      }

      .cls-12 {
        opacity: .6;
      }

      .cls-10 {
        fill: #fff;
      }
    </style>
  </defs>
  <path class="cls-2" d="M898.16,271.49c-27.26,14.12-48.15,38.4-63.17,65.13-15.02,26.73-24.71,56.11-34.29,85.22l-8.44,150.25c31.65-53.91,57.14-117.29,64.02-179.35l-21.1-1.88c14.16-2.11,26.04-12.41,33.59-24.56,7.55-12.15,11.44-26.14,15.23-39.94l-25.61,3.76c20.29-13.72,34.53-34.71,39.77-58.64Z"/>
  <path class="cls-6" d="M787.62,607.29s-68.83-82.29-68.03-160.91h27.79s-30.19-19.83-27.79-30.95c2.41-11.12,3.16-53.19,3.16-53.19l25.32,6.33s-18.99-9.52-21.44-24.6c-2.45-15.09,5.55-84.95,5.55-84.95,0,0,30.98,32.56,40.51,65.9,9.54,33.34,34.54,72.25,27.2,173.84-7.34,101.6-12.28,108.54-12.28,108.54Z"/>
  <path class="cls-6" d="M822.52,615.08s74.55-49.65,91.11-113.01l-22.34-6.08s28.61-9.35,29.14-18.8c.53-9.45,9.07-43.47,9.07-43.47l-21.82-.44s17.41-3.5,22.62-15.11c5.21-11.6,14.14-69.5,14.14-69.5,0,0-32.05,19.39-47.01,44.06-14.96,24.67-43.59,50.64-59.92,133.88-16.33,83.24-14.98,88.47-14.98,88.47Z"/>
  <path class="cls-2" d="M751.1,330.82c.11.28.18.57.23.87l.59,2.53c.51,2.28,1.24,5.57,2.11,9.77.86,4.2,2.11,9.45,3.25,15.51,1.14,6.05,2.64,12.93,4.03,20.57,2.93,15.28,6.03,33.53,9.24,53.83,3.21,20.3,6.18,42.71,8.95,66.25,2.76,23.55,4.79,46.08,6.33,66.57,1.54,20.49,2.66,38.97,3.29,54.5.4,7.77.57,14.77.78,20.97.21,6.2.32,11.48.36,15.82.04,4.35.1,7.66.13,10v3.5c-.03-.29-.03-.59,0-.89,0-.66,0-1.5-.1-2.62,0-2.34-.19-5.7-.34-10-.15-4.3-.29-9.64-.57-15.8-.28-6.16-.49-13.21-.93-20.95-.72-15.53-1.94-33.99-3.52-54.46-1.58-20.47-3.8-42.98-6.5-66.53-2.7-23.55-5.8-45.91-8.86-66.23-3.06-20.32-6.16-38.55-8.99-53.82-1.35-7.66-2.72-14.54-3.88-20.62-1.16-6.08-2.11-11.27-3.06-15.53-.95-4.26-1.5-7.51-1.96-9.81-.21-1.08-.36-1.92-.49-2.55-.06-.29-.08-.59-.08-.89Z"/>
  <path class="cls-6" d="M778.06,657.7s-62.96-71.4-82.52-114.57l14.77-6.33c-10.72,1.77-21.67-2.83-29.96-9.81s-14.39-16.1-20.3-25.19l19.43-3.27c-17.86-5.1-33.07-16.88-42.47-32.89,22.93,3.78,43.7,16.37,60.81,32.11,13.84,12.66,25.57,27.56,36.84,42.66,5.51,7.37,10.3,15.25,14.33,23.53,10.51,21.86,29.22,67.54,29.08,93.77Z"/>
  <path class="cls-2" d="M914.6,390.24c-.07.26-.17.5-.3.74-.25.51-.57,1.2-.97,2.11-.91,1.86-2.22,4.52-3.86,7.91-1.65,3.4-3.73,7.62-6.08,12.53-2.34,4.92-5.04,10.45-7.89,16.65-5.82,12.36-12.49,27.2-19.69,43.78-7.2,16.59-14.77,34.96-22.24,54.4-7.47,19.43-14.26,38.13-20.15,55.22-5.89,17.09-10.89,32.56-14.9,45.62-2.11,6.5-3.8,12.45-5.38,17.64-1.58,5.19-2.89,9.68-3.95,13.36-1.06,3.67-1.9,6.46-2.47,8.44l-.68,2.11c-.07.25-.16.5-.27.74.03-.26.09-.53.17-.78.13-.55.32-1.29.57-2.22.53-2,1.29-4.85,2.28-8.44.99-3.59,2.24-8.19,3.76-13.4,1.52-5.21,3.19-11.18,5.21-17.7,3.92-13.08,8.9-28.59,14.77-45.72,5.86-17.13,12.66-35.87,20.09-55.28,7.43-19.41,15.17-37.81,22.34-54.4,7.17-16.58,14.01-31.38,19.92-43.7,2.89-6.2,5.65-11.73,8.04-16.6,2.38-4.87,4.49-9.05,6.33-12.45l4.03-7.83c.46-.84.82-1.55,1.08-2.11.07-.21.14-.41.23-.61Z"/>
  <path class="cls-2" d="M783.4,688.31c-.12-.44-.21-.88-.27-1.33-.15-.97-.36-2.24-.59-3.78-.23-1.54-.55-3.67-.97-5.99-.42-2.32-.82-5-1.46-7.91-1.12-5.84-2.74-12.77-4.79-20.36-2.05-7.59-4.75-15.82-7.93-24.33-3.19-8.5-6.73-16.41-10.15-23.51-3.42-7.09-6.84-13.31-9.85-18.44-1.46-2.6-2.91-4.85-4.22-6.88-1.31-2.02-2.32-3.76-3.25-5.15l-2.11-3.23c-.27-.36-.49-.76-.65-1.18.31.32.6.68.84,1.05l2.21,3.12c.97,1.35,2.11,3.04,3.4,5.04,1.29,2,2.78,4.22,4.22,6.82,3.12,5.11,6.56,11.33,10.11,18.4,3.54,7.07,7.03,15.04,10.28,23.57,3.25,8.52,5.78,16.88,7.87,24.45s3.54,14.58,4.58,20.47c.59,2.93.93,5.61,1.29,7.96.36,2.34.63,4.37.8,6.03.17,1.67.3,2.83.38,3.82.15.44.24.89.27,1.35Z"/>
  <path class="cls-2" d="M866.49,671.52h-137.82v28.1h137.82v-28.1Z"/>
  <path class="cls-2" d="M741.81,699.6l14.9,94.53h83.28l13.9-94.53h-112.08Z"/>
  <path class="cls-6" d="M858.05,699.6c0,.32-26.08.55-58.24.55s-58.23-.23-58.23-.55,26.08-.55,58.23-.55,58.24.25,58.24.55Z"/>
  <path class="cls-4" d="M641.82,158.86c-1.86,7.06-4.97,13.72-9.2,19.67l9.05,8.44,38.61,34.86-.91.42s33.42-23.34,42.66-30.95c7.62-6.33,28-19.24,29.67-31.82.28-2.23-.15-4.5-1.22-6.48-1.08-1.98-2.74-3.57-4.77-4.56-1.39-.71-2.95-1.02-4.5-.89-1.55.12-3.04.67-4.3,1.59,0,0,8.99-10.55,1.88-17.47-7.11-6.92-12.66-1.5-12.66-1.5,0,0,8.8-13.4.63-20.83-1.69-1.3-3.73-2.05-5.86-2.16s-4.24.42-6.06,1.53l3.31-3.54,17.07-18.38c2.04-2.13,3.17-4.97,3.17-7.91s-1.14-5.78-3.17-7.91c-1.05-1.06-2.3-1.9-3.67-2.47-1.38-.57-2.85-.86-4.34-.84-1.49.01-2.96.32-4.33.91-1.37.59-2.6,1.45-3.63,2.52l-48.02,50.26,2.45-27.43c.61-7.11-8.99-12.26-13.25-9.64,0,0-6.56,2.55-8.44,13.67-1.24,8.4-10.17,60.92-10.17,60.92Z"/>
  <path class="cls-2" d="M641.82,158.86s0-.46.17-1.37c.17-.91.34-2.26.61-3.99.57-3.54,1.39-8.69,2.47-15.34l4.01-24.31c.79-4.74,1.62-9.81,2.51-15.21.37-2.83,1.21-5.58,2.47-8.14,1.31-2.8,3.5-5.09,6.22-6.54,1.71-.84,3.68-.99,5.49-.4,1.79.56,3.43,1.5,4.83,2.74,1.51,1.27,2.63,2.93,3.23,4.81.15.49.19.99.3,1.48.1.49,0,1.03,0,1.52l-.25,2.89c-.67,7.76-1.38,15.9-2.11,24.39l-.89-.4,43.74-45.7c.99-1.01,1.96-2.11,2.95-3.08.97-1.1,2.04-2.11,3.21-3,2.55-1.73,5.66-2.4,8.69-1.88,1.53.26,3,.84,4.31,1.68,1.31.84,2.43,1.94,3.31,3.23.87,1.29,1.48,2.74,1.78,4.27.3,1.53.29,3.1-.03,4.62-.31,1.55-.9,3.02-1.75,4.35-.9,1.23-1.9,2.37-3,3.42l-6.2,6.65-12.66,13.48-.74-.95c2.49-1.45,5.43-1.92,8.25-1.33,1.18.26,2.32.71,3.36,1.33.54.3,1.03.69,1.43,1.16.43.43.83.9,1.18,1.39,1.4,1.97,2.14,4.34,2.11,6.75-.24,4.64-1.69,9.13-4.22,13.02l-.93-.76c1.15-1.02,2.56-1.71,4.07-2.01,1.51-.3,3.07-.19,4.52.32,1.42.53,2.73,1.32,3.86,2.32.57.45,1.09.96,1.56,1.52l.74.84.57.97c.64,1.3,1.01,2.72,1.09,4.17.08,1.45-.14,2.9-.65,4.27-.91,2.67-2.29,5.17-4.07,7.36l-.78-.87c1.24-.89,2.68-1.45,4.19-1.63,1.51-.18,3.05.01,4.46.58,2.07.82,3.85,2.24,5.12,4.06,1.27,1.83,1.97,3.99,2.02,6.21-.03,1.43-.26,2.85-.68,4.22-.94,2.63-2.28,5.1-3.97,7.32-6.77,8.67-15.57,14.77-23.48,20.78-7.91,6.01-15.74,11.92-23.21,17.3l-21.42,15.09-.44-.76.91-.42-.11.74-38.49-34.84h.4l-.21.21-.21-.19-9.01-8.44-.15-.15.13-.17c3.14-4.38,5.69-9.16,7.6-14.2.65-1.71,1.08-3.06,1.35-3.97.27-.91.44-1.35.44-1.35-.39,1.84-.91,3.64-1.56,5.4-1.82,5.12-4.32,9.97-7.45,14.41v-.32c2.62,2.43,5.53,5.11,9.07,8.44h-.4l.19-.21.23.19,38.7,34.73.51.44-.61.27-.91.42-.55-.91,21.35-15.17c7.43-5.4,15.3-10.99,23.1-17.32,7.81-6.33,16.67-12.15,23.21-20.64,1.61-2.12,2.88-4.48,3.78-6.98.38-1.26.59-2.57.63-3.88-.04-1.31-.33-2.61-.84-3.82-1.07-2.46-3.07-4.41-5.57-5.4-1.24-.49-2.59-.66-3.91-.49-1.32.17-2.59.66-3.67,1.44l-3.23,2.38,2.57-3.21c1.68-2.07,2.97-4.43,3.82-6.96.47-1.22.68-2.54.62-3.85-.06-1.31-.4-2.6-.98-3.77-1.4-2.29-3.52-4.04-6.04-4.98-1.24-.44-2.58-.54-3.87-.29-1.29.24-2.5.83-3.49,1.69l-2.91,2.64,2-3.36c2.41-3.7,3.79-7.96,4.01-12.36.12-2.16-.52-4.3-1.82-6.04-1.3-1.73-3.17-2.95-5.29-3.44-2.53-.52-5.16-.09-7.38,1.22l-3.36,1.86,2.62-2.79,12.66-13.48c2.1-2.22,4.16-4.44,6.2-6.65,1.02-1.03,1.94-2.15,2.74-3.35.76-1.2,1.3-2.53,1.58-3.92.28-1.38.29-2.8.02-4.18-.27-1.38-.82-2.69-1.6-3.86-.79-1.14-1.8-2.11-2.97-2.86-1.17-.75-2.47-1.26-3.84-1.5-2.73-.48-5.53.12-7.83,1.67-1.1.85-2.12,1.8-3.04,2.85l-2.95,3.08-43.78,45.6-.99.97.15-1.43c.76-8.44,1.5-16.63,2.22-24.37.35-1.84.35-3.73,0-5.57-.55-1.71-1.56-3.23-2.93-4.39-1.32-1.17-2.87-2.03-4.56-2.53-1.58-.53-3.3-.43-4.81.27-2.53,1.37-4.57,3.51-5.8,6.12-1.24,2.48-2.06,5.14-2.43,7.89-.93,5.38-1.81,10.55-2.62,15.21-1.65,9.45-3.06,17.6-4.22,24.26-1.16,6.67-2.11,11.77-2.7,15.3-.32,1.73-.55,3.04-.74,3.97-.19.93-.34,1.48-.34,1.48Z"/>
  <path class="cls-4" d="M620.05,178.88l.43-.46c1.62-1.74,3.87-2.76,6.25-2.84,2.38-.08,4.69.79,6.43,2.41l47.57,44.47c1.73,1.62,2.75,3.86,2.83,6.23.08,2.37-.78,4.68-2.41,6.41l-.43.46c-1.62,1.74-3.87,2.76-6.25,2.84-2.38.08-4.69-.79-6.43-2.41l-47.55-44.45c-1.73-1.62-2.75-3.86-2.83-6.24-.08-2.37.79-4.68,2.41-6.41h-.02Z"/>
  <path class="cls-2" d="M668.03,235.94s.51.42,1.58,1.03c1.34.76,2.86,1.16,4.4,1.16s3.06-.4,4.4-1.16c1.29-.81,2.41-1.88,3.27-3.14,1.03-1.53,1.54-3.34,1.45-5.18s-.76-3.6-1.92-5.03l-48.53-45.22c-1.11-1.04-2.48-1.76-3.97-2.08-1.49-.32-3.03-.24-4.47.24-1.37.5-2.6,1.31-3.61,2.37-1.01,1.05-1.77,2.32-2.21,3.71-.39,1.35-.43,2.78-.12,4.16.31,1.38.95,2.65,1.88,3.71,2.01,2,4.22,3.99,6.22,5.89l21.71,20.49,14.56,13.86,3.92,3.82c.48.43.91.89,1.31,1.39-.52-.37-1.02-.78-1.48-1.22l-4.07-3.65-14.77-13.59-21.88-20.28c-2.11-1.94-4.22-3.8-6.33-5.95-1.08-1.19-1.83-2.64-2.2-4.2-.37-1.56-.34-3.2.09-4.74.5-1.58,1.36-3.02,2.5-4.21,1.14-1.2,2.55-2.12,4.1-2.69,1.63-.52,3.37-.61,5.04-.24,1.67.37,3.22,1.18,4.47,2.35,18.99,17.74,36.08,33.76,48.34,45.58,1.25,1.57,1.96,3.5,2.02,5.5.07,2-.52,3.97-1.66,5.62-.93,1.33-2.14,2.44-3.54,3.25-1.19.66-2.52,1.04-3.88,1.12-1.87.11-3.73-.37-5.32-1.37-.5-.36-.94-.79-1.31-1.29Z"/>
  <path class="cls-2" d="M697.02,126.87c2.62-3.66,5.55-7.08,8.76-10.23,2.92-3.42,6.14-6.57,9.62-9.41-2.61,3.66-5.53,7.08-8.74,10.23-2.92,3.42-6.15,6.57-9.64,9.41Z"/>
  <path class="cls-2" d="M715.21,141.41c1.35-2.35,3.04-4.48,5.02-6.33,1.69-2.08,3.68-3.92,5.89-5.44-1.34,2.35-3.03,4.49-5.02,6.33-1.68,2.1-3.67,3.93-5.89,5.44Z"/>
  <path class="cls-2" d="M726.03,160.76c1.35-2.35,3.04-4.48,5.02-6.33,1.68-2.1,3.67-3.93,5.91-5.42-1.35,2.35-3.04,4.48-5.02,6.33-1.69,2.09-3.68,3.92-5.91,5.42Z"/>
  <path class="cls-2" d="M724.09,59.1c-2.15-4.14-3.93-8.46-5.32-12.91-1.79-4.31-3.2-8.76-4.22-13.31,2.14,4.14,3.92,8.46,5.32,12.91,1.79,4.31,3.2,8.76,4.22,13.31Z"/>
  <path class="cls-2" d="M736.64,62.16c2.85-5.26,6.04-10.32,9.56-15.15,3.19-5.05,6.72-9.89,10.55-14.47-2.85,5.26-6.05,10.32-9.58,15.15-3.18,5.06-6.7,9.89-10.53,14.47Z"/>
  <path class="cls-2" d="M745.78,72.9c4.6-1.57,9.31-2.77,14.09-3.59,4.7-1.2,9.49-2.01,14.33-2.43-4.58,1.6-9.29,2.81-14.07,3.61-4.71,1.2-9.51,2-14.35,2.41Z"/>
  <path class="cls-4" d="M140.85,520.17l-67.75,273.94h17.83l69.42-273.94h-19.5Z"/>
  <path class="cls-4" d="M268.46,520.17l63.38,273.94h-17.83l-65.07-273.94h19.52Z"/>
  <path class="cls-4" d="M215.5,790.08h-20.76l-3.1-314.41h20.76l3.1,314.41Z"/>
  <path class="cls-6" d="M348.49,291.03H55.56v187.66h292.93v-187.66Z"/>
  <path class="cls-4" d="M275.61,517.3h-147.02v18.12h147.02v-18.12Z"/>
  <path class="cls-4" d="M75.02,454.21c.18,1.14.25,2.29.21,3.44h-.4c-.3-9.18-.53-39.58-.53-75.62,0-21.73.17-41.42.21-55.89,0-7.01.17-12.66.23-16.88,0-1.88,0-3.4.13-4.62,0-.54.05-1.08.15-1.6.13.52.18,1.07.15,1.6,0,1.22,0,2.74.15,4.62,0,4.22.13,9.94.23,16.88,0,14.48.13,34.16.21,55.89,0,36.04-.23,66.44-.53,75.62h-.4c-.02-1.15.04-2.3.19-3.44Z"/>
  <path class="cls-4" d="M96.84,454.21c.15,1.14.21,2.29.19,3.44h-.34c-.3-9.18-.53-39.58-.53-75.62,0-21.73.17-41.42.21-55.89.11-7.01.19-12.66.23-16.88,0-1.88,0-3.4.15-4.62-.03-.54.02-1.08.15-1.6.1.53.14,1.07.13,1.6,0,1.22,0,2.74.15,4.62,0,4.22.13,9.94.23,16.88,0,14.48.13,34.16.21,55.89,0,36.04-.23,66.44-.53,75.62h-.4c-.06-1.15-.01-2.3.15-3.44Z"/>
  <path class="cls-4" d="M118.63,454.21c.15,1.14.21,2.29.19,3.44h-.4c-.3-9.18-.51-39.58-.51-75.62,0-21.73.15-41.42.21-55.89,0-7.01.17-12.66.23-16.88,0-1.88,0-3.4.13-4.62-.01-.54.04-1.08.15-1.6.11.53.16,1.07.15,1.6,0,1.22,0,2.74.13,4.62,0,4.22.15,9.94.23,16.88,0,14.48.13,34.16.21,55.89,0,36.04-.21,66.44-.53,75.62h-.4c-.03-1.15.04-2.3.21-3.44Z"/>
  <path class="cls-4" d="M140.43,454.21c.17,1.14.24,2.29.21,3.44h-.4c-.32-9.18-.53-39.58-.53-75.62,0-21.73.15-41.42.21-55.89,0-7.01.17-12.66.23-16.88,0-1.88.11-3.4.13-4.62-.01-.54.04-1.08.15-1.6.11.53.16,1.07.15,1.6,0,1.22,0,2.74.13,4.62,0,4.22.15,9.94.23,16.88,0,14.48.13,34.16.21,55.89,0,36.04-.21,66.44-.51,75.62h-.4c-.02-1.15.04-2.3.19-3.44Z"/>
  <path class="cls-4" d="M162.22,454.21c.18,1.14.25,2.29.21,3.44h-.34c-.29-9.18-.53-39.58-.53-75.62,0-21.73.17-41.42.21-55.89.1-7.01.17-12.66.23-16.88,0-1.88,0-3.4.13-4.62,0-.54.05-1.08.15-1.6.13.52.18,1.07.15,1.6,0,1.22,0,2.74.15,4.62,0,4.22.13,9.94.23,16.88,0,14.48.13,34.16.21,55.89,0,36.04-.23,66.44-.53,75.62h-.4c-.04-1.15,0-2.3.13-3.44Z"/>
  <path class="cls-4" d="M184.04,454.21c.15,1.14.21,2.29.19,3.44h-.4c-.29-9.18-.53-39.58-.53-75.62,0-21.73.17-41.42.21-55.89,0-7.01.19-12.66.23-16.88,0-1.88,0-3.4.15-4.62-.03-.54.02-1.08.15-1.6.1.53.14,1.07.13,1.6,0,1.22,0,2.74.15,4.62,0,4.22.13,9.94.23,16.88,0,14.48.13,34.16.21,55.89,0,36.04-.23,66.44-.53,75.62h-.4c-.04-1.15.03-2.3.21-3.44Z"/>
  <path class="cls-4" d="M205.84,454.21c.15,1.14.21,2.29.19,3.44h-.4c-.29-9.18-.51-39.58-.51-75.62,0-21.73.15-41.42.21-55.89,0-7.01.17-12.66.23-16.88,0-1.88,0-3.4.13-4.62-.01-.54.04-1.08.15-1.6.11.53.16,1.07.15,1.6,0,1.22,0,2.74.13,4.62,0,4.22.15,9.94.23,16.88,0,14.48.13,34.16.21,55.89,0,36.04-.21,66.44-.53,75.62h-.4c-.03-1.15.04-2.3.21-3.44Z"/>
  <path class="cls-4" d="M227.63,454.21c.17,1.14.24,2.29.21,3.44h-.34c-.32-9.18-.53-39.58-.53-75.62,0-21.73.15-41.42.21-55.89,0-7.01.17-12.66.23-16.88,0-1.88,0-3.4.13-4.62-.01-.54.04-1.08.15-1.6.11.53.16,1.07.15,1.6,0,1.22,0,2.74.13,4.62,0,4.22.15,9.94.23,16.88,0,14.48.13,34.16.21,55.89,0,36.04-.21,66.44-.51,75.62h-.4c-.04-1.15,0-2.3.13-3.44Z"/>
  <path class="cls-4" d="M249.43,454.21c.18,1.14.25,2.29.21,3.44h-.4c-.29-9.18-.53-39.58-.53-75.62,0-21.73.17-41.42.21-55.89,0-7.01.17-12.66.23-16.88,0-1.88.11-3.4.13-4.62,0-.54.05-1.08.15-1.6.13.52.18,1.07.15,1.6,0,1.22,0,2.74.15,4.62,0,4.22.13,9.94.23,16.88,0,14.48.13,34.16.21,55.89,0,36.04-.23,66.44-.53,75.62h-.4c-.02-1.15.04-2.3.19-3.44Z"/>
  <path class="cls-4" d="M271.25,454.21c.15,1.14.21,2.29.19,3.44h-.4c-.3-9.18-.53-39.58-.53-75.62,0-21.73.17-41.42.21-55.89.11-7.01.19-12.66.23-16.88,0-1.88,0-3.4.15-4.62-.03-.54.02-1.08.15-1.6.1.53.15,1.07.15,1.6,0,1.22,0,2.74.13,4.62,0,4.22.13,9.94.23,16.88,0,14.48.13,34.16.21,55.89,0,36.04-.23,66.44-.53,75.62h-.4c-.04-1.15.03-2.3.21-3.44Z"/>
  <path class="cls-4" d="M293.04,454.21c.15,1.14.21,2.29.19,3.44h-.32c-.3-9.18-.51-39.58-.51-75.62,0-21.73.15-41.42.21-55.89,0-7.01.17-12.66.23-16.88,0-1.88,0-3.4.13-4.62-.01-.54.04-1.08.15-1.6.11.53.16,1.07.15,1.6,0,1.22,0,2.74.13,4.62,0,4.22.15,9.94.23,16.88,0,14.48.13,34.16.21,55.89,0,36.04-.21,66.44-.53,75.62h-.4c-.05-1.15-.01-2.3.13-3.44Z"/>
  <path class="cls-4" d="M314.84,454.21c.17,1.14.24,2.29.21,3.44h-.4c-.32-9.18-.53-39.58-.53-75.62,0-21.73.15-41.42.21-55.89,0-7.01.17-12.66.23-16.88,0-1.88.11-3.4.13-4.62-.01-.54.04-1.08.15-1.6.11.53.16,1.07.15,1.6,0,1.22,0,2.74.13,4.62,0,4.22.15,9.94.23,16.88,0,14.48.13,34.16.21,55.89,0,36.04-.21,66.44-.51,75.62h-.4c-.02-1.15.04-2.3.19-3.44Z"/>
  <path class="cls-4" d="M336.63,454.21c.18,1.14.25,2.29.21,3.44h-.4c-.3-9.18-.53-39.58-.53-75.62,0-21.73.17-41.42.21-55.89.11-7.01.17-12.66.23-16.88,0-1.88,0-3.4.13-4.62,0-.54.05-1.08.15-1.6.13.52.17,1.07.15,1.6,0,1.22,0,2.74.15,4.62,0,4.22.13,9.94.23,16.88,0,14.48.13,34.16.21,55.89,0,36.04-.23,66.44-.53,75.62h-.4c-.02-1.15.04-2.3.19-3.44Z"/>
  <path class="cls-7" d="M558.12,156.98l-16.44,148.1c-2.81,25.19-12.07,61.61-51.67,55.39-33.97-8.02-39.08-41.74-36.44-65.24,1.24-11.14,2.26-20.45,2.32-21.58,0,0-37.3-7.74-35.87-45.36.7-18.17,5.15-55.51,9.58-89.23,2.3-17.47,11.09-33.43,24.63-44.7,13.54-11.28,30.82-17.04,48.42-16.15l3.63.17c38.99,4.2,57.16,39.75,51.84,78.62Z"/>
  <path class="cls-8" d="M455.89,273.64c17.37.82,34.6-3.35,49.67-12.03,0,0-13.31,26.86-50.64,21.59l.97-9.56Z"/>
  <path class="cls-9" d="M491.25,162.17c.65.84,5.38-2.11,11.63-1.48,6.24.63,10.55,4.22,11.29,3.52.38-.34-.23-1.79-2.11-3.48-2.51-2.17-5.64-3.49-8.95-3.78-3.26-.32-6.54.42-9.35,2.11-1.96,1.37-2.74,2.72-2.51,3.1Z"/>
  <path class="cls-9" d="M489.92,175.08c-.08,1.32.37,2.63,1.23,3.63.87,1,2.09,1.63,3.41,1.75.64.08,1.3.04,1.92-.14.62-.17,1.21-.47,1.72-.87.51-.4.93-.9,1.25-1.47.31-.57.51-1.19.58-1.84.08-1.32-.37-2.62-1.23-3.62-.87-1-2.09-1.62-3.41-1.74-.64-.08-1.3-.04-1.92.14-.62.17-1.21.47-1.72.87-.51.4-.93.9-1.25,1.46-.31.57-.51,1.19-.58,1.83Z"/>
  <path class="cls-9" d="M470.34,203.63c0-.34-3.5-1.14-9.28-2.11-1.48-.23-2.85-.59-3.06-1.6-.03-1.49.39-2.96,1.2-4.22l4.94-11.01c6.86-15.7,11.9-28.63,11.27-28.89-.63-.25-6.71,12.22-13.57,27.92-1.67,3.85-3.26,7.55-4.75,11.08-1.03,1.73-1.4,3.78-1.05,5.76.18.53.49,1.02.89,1.41.4.4.89.69,1.43.87.8.27,1.64.43,2.49.46,5.82.44,9.45.65,9.49.34Z"/>
  <path class="cls-9" d="M496.89,139.04c.44,1.46,5.55,1.03,11.5,2.11,5.95,1.08,10.7,2.97,11.54,1.73.4-.61-.38-2.11-2.26-3.48-2.48-1.85-5.38-3.07-8.44-3.55-3.04-.54-6.16-.32-9.09.65-2.26.78-3.42,1.84-3.25,2.53Z"/>
  <path class="cls-9" d="M438.25,139.05c.53,1.2,5.55.55,11.46,1.1,5.91.55,10.74,1.92,11.5.8.34-.53-.51-1.65-2.45-2.81-2.6-1.43-5.48-2.28-8.44-2.51-3.02-.28-6.07.08-8.95,1.06-2.26.74-3.33,1.77-3.12,2.36Z"/>
  <path class="cls-7" d="M553.65,184.66c.65-.25,26.23-6.33,24.12,19.33-2.11,25.66-27.43,18.23-27.43,17.49s3.31-36.82,3.31-36.82Z"/>
  <path class="cls-8" d="M558.96,212.41c.13,0,.42.36,1.16.76,1.02.54,2.22.67,3.33.34,2.78-.76,5.42-4.87,5.93-9.5.25-2.19,0-4.41-.72-6.5-.17-.82-.55-1.59-1.08-2.24-.54-.65-1.22-1.15-2-1.48-.5-.18-1.05-.17-1.55.01-.5.18-.92.54-1.19,1-.4.67-.27,1.2-.42,1.24-.15.04-.51-.49-.21-1.52.19-.62.59-1.16,1.14-1.52.74-.48,1.65-.65,2.51-.46,1.04.3,1.98.86,2.74,1.62.76.76,1.31,1.71,1.61,2.75.92,2.31,1.26,4.81.97,7.28-.59,5.17-3.63,9.79-7.43,10.55-.71.14-1.44.13-2.14-.05-.7-.18-1.35-.51-1.91-.96-.74-.7-.82-1.29-.74-1.33Z"/>
  <path class="cls-9" d="M474.18,222.05c-.19-.68,5-1.56,9.09-5.82,1.71-1.88,3.18-3.97,4.35-6.22.97-1.77,1.69-2.87,1.96-2.74.27.13,0,1.37-.63,3.33-.87,2.63-2.31,5.04-4.22,7.05-1.94,2.04-4.41,3.5-7.13,4.22-2.05.53-3.38.42-3.42.19Z"/>
  <path class="cls-9" d="M436.39,154.09c.65.84,5.38-2.11,11.63-1.48,6.24.63,10.55,4.22,11.29,3.5.38-.32-.23-1.77-2.11-3.46-2.51-2.18-5.64-3.5-8.95-3.78-3.26-.32-6.54.42-9.35,2.11-2.03,1.37-2.81,2.72-2.51,3.1Z"/>
  <path class="cls-9" d="M435.97,168.42c-.08,1.32.37,2.63,1.23,3.63.87,1.01,2.09,1.63,3.41,1.75.64.08,1.28.04,1.9-.13.62-.17,1.2-.46,1.71-.85.51-.39.93-.88,1.25-1.44.32-.56.52-1.17.61-1.81.09-1.32-.35-2.62-1.21-3.63-.86-1-2.09-1.62-3.41-1.73-.64-.09-1.29-.05-1.91.11-.62.16-1.2.45-1.71.84-.51.39-.94.88-1.26,1.44-.32.56-.53,1.17-.61,1.81Z"/>
  <path class="cls-9" d="M573.92,161.71c-1.88,7.15-6.33,23.46-12.66,22.01-12.66-2.87-11.92,17.43-18.04,15.04-6.12-2.38-7.55-18.53-6.86-24.96,2.11-20.11,9.83-34.54,1.33-57.5-2.64-4.56-6.41-8.35-10.94-11.03-4.54-2.67-9.68-4.13-14.95-4.23-5.3,0-10.52,1.36-15.15,3.95-4.63,2.58-8.52,6.31-11.31,10.82-1.31-7.03-4.98-17.58-11.33-20.83-3.18-1.66-6.77-2.34-10.34-1.97-3.56.38-6.94,1.79-9.7,4.08-2.64,2.42-4.3,5.72-4.69,9.28-.39,3.56.53,7.14,2.58,10.07-1.44.47-3,.46-4.44-.03-1.44-.48-2.69-1.41-3.56-2.65-.09,1.65.17,3.3.74,4.85.58,1.55,1.47,2.96,2.61,4.16-2.6-.58-4.91-2.08-6.5-4.22l2.11,8.69c-10.55.53-21.29-9.52-24.45-18.61-4.79-13.8-1.67-27.89,5.8-40.43,7.47-12.53,21.1-21.56,35.87-21.78,14.77-.21,26.99,6.44,32.92,19.77,9.33-6.92,28.46-9.68,39.12-5.13,5.33,2.35,9.97,6.02,13.48,10.66,3.51,4.65,5.77,10.11,6.57,15.88,6.54-2.93,14.52-.95,20.19,3.44l1.37,1.14c3.8,3.45,6.66,7.82,8.31,12.68s2.05,10.06,1.14,15.11c-.67,4.05-1.98,8.27-2.72,11.54-2.49,9.69-6.5,30.17-6.5,30.17Z"/>
  <path class="cls-3" d="M442.05,113.22s-.34-.19-.86-.65c-.78-.67-1.49-1.42-2.11-2.24-2.41-3.04-3.94-6.69-4.41-10.55-.43-2.84-.24-5.75.55-8.51.79-2.77,2.16-5.33,4.03-7.52,2.29-2.7,5.19-4.8,8.47-6.12,3.28-1.32,6.83-1.83,10.35-1.47,3.62.45,7.09,1.72,10.15,3.71,2.85,1.8,5.41,4.02,7.57,6.6,3.68,4.3,6.39,9.33,7.96,14.77,1.05,3.67,1.56,7.47,1.5,11.29,0,1.35-.13,2.38-.23,3.08-.02.36-.08.71-.19,1.05.23-5.14-.38-10.28-1.82-15.21-1.63-5.32-4.35-10.23-8-14.43-4.29-5.27-10.36-8.79-17.07-9.9-3.34-.33-6.71.16-9.83,1.4-3.12,1.25-5.89,3.23-8.08,5.77-1.8,2.08-3.13,4.52-3.92,7.15-.79,2.63-1.01,5.4-.66,8.13.38,3.76,1.73,7.35,3.92,10.42,1.58,2.22,2.74,3.14,2.68,3.23Z"/>
  <path class="cls-3" d="M437.43,124.44c-.31-.36-.57-.76-.78-1.18-.49-.8-1.18-2.11-2.11-3.54-2.49-4.36-4.56-8.95-6.16-13.71-1.08-3.33-1.71-6.78-1.88-10.28-.21-4.04.43-8.08,1.88-11.86,1.68-4.19,4.57-7.78,8.29-10.34,3.98-2.73,8.59-4.37,13.4-4.77,4.78-.37,9.59.29,14.09,1.92,4.19,1.51,8.12,3.64,11.67,6.33,6.19,4.37,10.76,10.67,13,17.91,1.39,4.91,1.25,10.13-.4,14.96-.46,1.29-1.06,2.52-1.77,3.69-.25.41-.53.8-.84,1.16.84-1.61,1.54-3.28,2.11-5,1.45-4.76,1.45-9.84,0-14.6-2.28-7.02-6.8-13.1-12.85-17.32-7.08-5.48-15.87-8.28-24.81-7.91-4.62.4-9.06,1.97-12.89,4.58-3.55,2.43-6.32,5.85-7.95,9.83-1.42,3.64-2.08,7.53-1.92,11.44.13,3.42.71,6.81,1.71,10.09,1.53,4.74,3.47,9.34,5.8,13.74l1.84,3.65c.23.39.43.8.59,1.22Z"/>
  <path class="cls-3" d="M564.79,145.86c-.13-.17,2.26-1.92,5.19-5.59,3.86-4.74,6.46-10.38,7.56-16.39,1.11-6.01.68-12.2-1.23-18.01-1.46-4.47-3.06-6.96-2.87-7.05.19-.08.51.53,1.2,1.69.96,1.62,1.76,3.33,2.41,5.11,2.17,5.9,2.72,12.28,1.58,18.46-1.14,6.18-3.91,11.95-8.04,16.69-1.23,1.43-2.59,2.74-4.05,3.93-.53.47-1.11.86-1.75,1.16Z"/>
  <path class="cls-3" d="M542.15,145.65c0-.1,1.22-.59,3.17-1.98,2.7-1.95,4.81-4.61,6.1-7.68l.97-2.41-.17,2.6c-.23,3.5-.51,7.53-.78,11.92l-.82-.46c3.5-2.52,6.46-5.7,8.72-9.36,2.26-3.67,3.78-7.74,4.46-11.99.57-3.89.46-7.84-.34-11.69-.85-3.53-2.11-6.95-3.76-10.19.19.18.35.39.49.61.41.6.79,1.22,1.14,1.86,1.29,2.38,2.25,4.92,2.87,7.55,1.48,6.33,1.04,12.95-1.28,19.02-2.32,6.07-6.4,11.31-11.72,15.04l-.91.63v-1.1l.99-11.9.82.19c-1.39,3.18-3.69,5.88-6.6,7.76-.79.51-1.62.94-2.49,1.29-.28.13-.57.23-.87.29Z"/>
  <path class="cls-3" d="M534.04,93.47c-1.5-2.7-3.52-5.09-5.93-7.03-2.66-1.99-5.76-3.32-9.03-3.88-4.03-.65-8.16-.19-11.94,1.35-3.8,1.52-7.17,3.92-9.85,7.01-2.18,2.51-3.93,5.36-5.19,8.44-1.07,2.92-1.9,5.92-2.51,8.97-.08-.85-.04-1.7.13-2.53.3-2.29.85-4.54,1.65-6.71,1.2-3.24,2.95-6.25,5.17-8.9,2.76-3.25,6.26-5.78,10.21-7.36,3.97-1.61,8.31-2.07,12.53-1.33,3.42.66,6.62,2.15,9.33,4.35,1.81,1.47,3.33,3.26,4.47,5.3.3.55.57,1.12.8,1.71.09.2.15.41.17.63Z"/>
  <path class="cls-3" d="M527.8,74.65c-2.24-1.07-4.59-1.9-7.01-2.49-5.78-1.09-11.76-.09-16.88,2.81-5.08,3.07-9.17,7.53-11.8,12.85-2.11,4.05-2.68,6.86-2.87,6.79,0-.67.1-1.35.32-1.98.47-1.77,1.09-3.5,1.86-5.17,2.52-5.55,6.67-10.21,11.9-13.34,5.37-3.08,11.7-4.01,17.72-2.62,1.8.45,3.53,1.16,5.13,2.11.59.27,1.13.61,1.62,1.03Z"/>
  <path class="cls-9" d="M375.75,659.07l235.77,3.21s65.94-27.6,84.06-28.34c18.12-.74,54.08,1.56,70.7,28.34,17.2,27.68,19.6,76.51-33.38,111.98-51.61,34.56-287.57,66.48-319.91,63.55l-59.59-80.05s-.61-65.6,0-68.72c.61-3.12,10.55-31.23,10.55-31.23l11.79,1.27Z"/>
  <path class="cls-5" d="M516.91,769.8l122.19,45.39-55.68,152.28c-14.22-6.2-14.62-95.67-14.62-95.67l-79.48-25.87,27.6-76.13Z"/>
  <g class="cls-12">
    <path class="cls-10" d="M579.41,822.3c.98-1.3,2.41-2.2,4.01-2.51,1.6-.32,3.26-.03,4.66.8,1.34.92,2.27,2.33,2.6,3.93.33,1.6.03,3.26-.83,4.64-1.84,2.7-6.69,3.84-9.2,1.77-2.51-2.07-3.27-6.96-.84-9.14"/>
  </g>
  <path class="cls-9" d="M639.1,815.19l-12.34-4.68-48.87,148.12s.46,7.87,5.53,8.84l55.68-152.28Z"/>
  <path class="cls-9" d="M567.21,873.97c.76.25,2.45-3.33,6.18-6.12,3.73-2.78,7.58-3.59,7.53-4.39-.04-.8-4.75-1.24-9.2,2.11-4.45,3.35-5.36,8.23-4.52,8.4Z"/>
  <path class="cls-9" d="M567.89,892.37c.65.42,3.08-2.32,7.15-3.69,4.07-1.37,7.66-.91,7.91-1.65.25-.74-3.8-2.76-8.82-.97-5.02,1.79-6.92,6.03-6.25,6.31Z"/>
  <path class="cls-9" d="M583.67,908.43c.42-.61-2.93-3.02-7.7-2.6-4.77.42-7.66,3.31-7.15,3.86.51.55,3.46-.82,7.39-1.12,3.92-.3,7.13.57,7.47-.15Z"/>
  <path class="cls-9" d="M549.66,866.08c.78,0,1.01-3.86,2.83-7.96,1.82-4.09,4.35-6.9,3.86-7.51-.48-.61-4.22,1.56-6.33,6.33-2.11,4.77-1.08,9.28-.36,9.14Z"/>
  <path class="cls-9" d="M532.9,855.85c.32.1,1.84-2.66,2.77-7.64.5-2.93.66-5.91.46-8.88-.13-1.76-.37-3.51-.72-5.23-.18-1.03-.5-2.02-.97-2.95-.34-.68-.91-1.23-1.6-1.56-.69-.33-1.47-.41-2.22-.24-.66.18-1.26.51-1.76.97-.5.46-.89,1.03-1.13,1.66-.35.96-.57,1.97-.65,3-.2,1.77-.24,3.56-.11,5.34.23,3.01.94,5.96,2.11,8.74,1.98,4.73,4.22,6.94,4.56,6.75.34-.19-1.35-2.83-2.72-7.41-.8-2.67-1.26-5.42-1.35-8.21-.05-1.63.03-3.26.25-4.87.17-1.77.65-3.14,1.52-3.29.34,0,.44,0,.8.49.32.67.55,1.38.7,2.11.37,1.6.64,3.22.82,4.85.3,2.8.35,5.63.13,8.44-.34,4.79-1.29,7.79-.89,7.93Z"/>
  <path class="cls-9" d="M534.34,855.26c.21-.21-1.92-2.66-6.65-4.71-2.76-1.2-5.71-1.91-8.71-2.11-1.79-.09-3.59,0-5.36.25-1.15.04-2.28.38-3.26.99-.98.61-1.79,1.46-2.35,2.47-.24.68-.27,1.41-.1,2.11.17.7.53,1.34,1.05,1.83.75.72,1.59,1.33,2.51,1.81,1.61.89,3.35,1.52,5.15,1.88,3,.64,6.11.51,9.05-.38,5.04-1.52,7.07-4.22,6.84-4.45-.23-.23-2.66,1.67-7.28,2.57-2.67.51-5.42.44-8.06-.21-1.52-.39-2.98-.98-4.35-1.75-1.54-.84-2.62-1.92-2.24-2.47.38-.55,1.96-1.6,3.48-1.75,1.59-.27,3.2-.4,4.81-.38,2.77.06,5.52.5,8.17,1.31,4.54,1.54,7.03,3.35,7.3,2.98Z"/>
  <path class="cls-5" d="M416.14,750.98l-118.16,54.86,67.52,147.45c13.67-7.3,7.05-96.53,7.05-96.53l77.2-32.03-33.61-73.74Z"/>
  <g class="cls-12">
    <path class="cls-10" d="M357.97,808.23c-1.08-1.22-2.57-2-4.19-2.19-1.62-.19-3.25.22-4.59,1.16-1.26,1.03-2.08,2.51-2.28,4.13-.2,1.62.23,3.25,1.21,4.56,2.11,2.53,6.94,3.29,9.28,1.03,2.34-2.26,2.72-7.2.13-9.16"/>
  </g>
  <path class="cls-9" d="M297.92,805.82l11.92-5.53,60.37,143.73s.15,7.87-4.81,9.24l-67.48-147.44Z"/>
  <path class="cls-9" d="M374.3,858.78c-.74.32-2.72-3.14-6.65-5.63-3.93-2.49-7.83-2.98-7.85-3.78-.02-.8,4.64-1.62,9.35,1.48,4.71,3.1,5.87,7.79,5.15,7.93Z"/>
  <path class="cls-9" d="M374.97,877.18c-.63.48-3.27-2.11-7.45-3.12-4.18-1.01-7.7-.3-8-1.01-.3-.72,3.57-3.06,8.71-1.67,5.15,1.39,7.41,5.47,6.73,5.8Z"/>
  <path class="cls-9" d="M360.44,894.44c-.44-.59,2.68-3.25,7.47-3.21s7.91,2.7,7.45,3.29c-.46.59-3.52-.55-7.45-.53-3.92.02-7.03,1.12-7.47.44Z"/>
  <path class="cls-9" d="M391.07,849.54c-.8,0-1.31-3.78-3.46-7.7-2.15-3.92-4.87-6.54-4.41-7.2.46-.65,4.39,1.22,6.86,5.91,2.47,4.68,1.73,9.07,1.01,8.99Z"/>
  <path class="cls-9" d="M406.96,837.93c-.3.15-2.11-2.51-3.33-7.41-.76-2.88-1.15-5.84-1.18-8.82,0-1.76.1-3.51.32-5.25.08-1.04.32-2.07.72-3.04.29-.71.8-1.31,1.47-1.69.67-.38,1.44-.53,2.2-.42.67.12,1.3.4,1.84.81.54.41.97.95,1.26,1.57.43,1,.71,2.06.82,3.14.34,1.75.51,3.53.53,5.32.01,3-.45,5.98-1.35,8.84-1.6,4.87-3.76,7.28-4.01,7.09-.25-.19,1.1-2.91,2.11-7.6.59-2.71.83-5.5.7-8.27-.07-1.63-.28-3.26-.63-4.85-.3-1.73-.89-3.08-1.77-3.16-.34,0-.44,0-.76.55-.26.68-.43,1.39-.51,2.11-.25,1.63-.39,3.27-.44,4.92-.09,2.82.08,5.65.53,8.44.82,4.77,1.9,7.72,1.5,7.72Z"/>
  <path class="cls-9" d="M405.5,837.55c-.23-.21,1.69-2.83,6.22-5.21,4.29-2.21,9.1-3.2,13.9-2.85,1.16-.05,2.31.2,3.34.72,1.03.53,1.91,1.31,2.55,2.27.28.67.37,1.4.26,2.11-.12.71-.43,1.38-.91,1.92-.69.78-1.49,1.45-2.36,2.01-1.54,1.01-3.21,1.78-4.98,2.28-2.94.86-6.05.97-9.05.34-5.15-1.14-7.39-3.73-7.17-3.92s2.79,1.48,7.47,2.11c2.7.3,5.44.01,8.02-.84,1.5-.5,2.92-1.21,4.22-2.11,1.45-.95,2.47-2.11,2.11-2.62-.45-.49-1.01-.88-1.63-1.14s-1.29-.37-1.96-.34c-1.61-.16-3.24-.16-4.85,0-2.75.26-5.45.92-8.02,1.94-4.54,1.6-6.88,3.71-7.15,3.33Z"/>
  <path class="cls-9" d="M364.02,657.83s-101.83-37.98-139.26-33.13c-20.95,2.76-53.72,18.76-56.23,45.62-2.51,26.86,4.07,62.79,40.3,80.28,36.23,17.49,180.85,82.4,215.22,92.38,34.37,9.98,119.95,33.4,119.95,33.4l32.54-92.84s-177.55-61.48-186.92-68.36c-9.37-6.88-33.11-16.23-33.11-16.23l7.51-41.12Z"/>
  <path class="cls-3" d="M718.01,670.42l-.72-.17-2.11-.63c-1.79-.53-4.45-1.31-7.91-2.11-9.76-2.48-19.88-3.23-29.9-2.22-6.91.59-13.74,1.89-20.38,3.88-3.69,1.12-7.28,2.53-10.74,4.22l-11.08,5.42c-15.23,7.28-32.26,14.77-50.37,21.88-36.29,14.54-71.13,21.44-95.96,27.09-12.45,2.74-22.53,5.02-29.54,6.67l-8,1.9-2.11.46-.72.13c.21-.11.44-.19.67-.23l2.11-.57c1.82-.49,4.47-1.25,7.96-2.11,6.9-1.77,16.88-4.22,29.39-7.01,24.81-5.84,59.54-12.85,95.71-27.43,18.1-7.15,35.11-14.56,50.34-21.8l11.1-5.36c3.52-1.7,7.16-3.11,10.91-4.22,6.7-1.99,13.6-3.25,20.57-3.78,10.14-.97,20.37-.1,30.19,2.57,3.46.89,6.1,1.73,7.89,2.34l2,.74.67.32Z"/>
  <path class="cls-3" d="M712.65,657c0,.19-3.1-.38-8.08-.91-13-1.43-26.15-.76-38.93,2.01-4.92,1.03-7.91,1.9-7.95,1.73.67-.36,1.38-.64,2.11-.82,1.33-.46,3.29-1.05,5.74-1.67,6.4-1.6,12.93-2.58,19.52-2.91,6.58-.33,13.17-.03,19.69.89,2.51.38,4.52.76,5.89,1.08.69.13,1.37.34,2.03.61Z"/>
  <path class="cls-3" d="M321.19,684.75c-.11.15-2.93-2.11-7.81-5.04-12.73-7.92-27.04-12.96-41.92-14.77-5.7-.72-9.26-.78-9.26-.97.83-.15,1.67-.2,2.51-.15,1.62,0,3.97,0,6.84.34,15.08,1.43,29.57,6.56,42.2,14.92,1.91,1.24,3.76,2.59,5.53,4.03.71.46,1.36,1.02,1.92,1.65Z"/>
  <path class="cls-3" d="M372.29,823.17l.8.29,2.3.97c2.11.84,5.02,2.24,9.01,3.78,7.93,3.14,19.64,7.45,34.69,12.41,30.07,9.81,73.3,22.34,125.04,35.36l-.57.32,31.48-87.37.29.7-38.99-16.01-215.7-88.85c-8.78-9.28-16.88-17.47-24.43-24.1-6.42-5.66-13.27-10.82-20.49-15.42-4.54-2.86-9.23-5.47-14.05-7.83l-3.78-1.77-1.27-.63,1.31.55,3.82,1.67c4.87,2.28,9.61,4.84,14.18,7.68,7.28,4.56,14.19,9.68,20.66,15.34,7.64,6.58,15.76,14.77,24.58,24.01h-.13l215.73,88.28,38.99,16.02.46.19-.17.51-31.65,87.33-.15.42-.44-.11c-51.74-13.12-94.95-25.78-125-35.87-15.02-5.02-26.71-9.43-34.62-12.66-3.97-1.56-6.92-3.02-8.95-3.9l-2.28-1.03-.67-.25Z"/>
  <path class="cls-5" d="M623.97,333.29s29.33,16.88,35.28,36.74c3.61,12.05,30.95,166.2,35.28,196.59,4.33,30.38-4.81,52.92-17.77,63-12.95,10.09-52.26,23.51-52.26,23.51l-55.18,17.91-15.85-40.34,52.54-75.49-5.04-51,23-170.91Z"/>
  <path class="cls-5" d="M566.35,306.66l-22.03-12.66s-20.07,23.46-47.43,20.59c-27.37-2.87-43.61-23.74-43.61-23.74l-81.61,16.61c-5.46,1.1-15.45,4.56-25,18.21-10.65,15.21-61.19,82.71-61.19,82.71h-35.28c-4.78,0-9.46,1.3-13.56,3.77-4.09,2.47-7.43,6.01-9.65,10.24-6.03,11.5-13.27,26.86-12.66,33.23,1.2,10.78-.89,40.34,13.57,49.56,4.58,2.93,20.95,11.71,33.76,11.12,18.76-.89,40.55-10.66,53.11-19.43,10.55-7.45,35.34-33.15,44.86-43.17v.21l6.12,214.06,213.95-6.08,44.31-328.57s-55.49-26.67-57.64-26.67Z"/>
  <path class="cls-9" d="M358.83,364.03c.3,0,.86,26.52,1.24,59.25.38,32.73.46,59.27.15,59.27s-.86-26.52-1.24-59.25c-.38-32.73-.44-59.27-.15-59.27Z"/>
  <path class="cls-9" d="M649.88,537.07s-1.82.3-5.04.91c-4.56.91-9.01,2.32-13.25,4.22-6.28,2.83-12.21,6.41-17.64,10.65-6.66,5.21-12.88,10.96-18.59,17.2-6.12,6.6-11.69,13.12-16.88,18.99-4.61,5.16-9.48,10.09-14.58,14.77-3.45,3.16-7.11,6.1-10.95,8.78-1.35.95-2.47,1.58-3.21,2.11-.36.26-.75.47-1.16.63.32-.31.66-.58,1.03-.82.7-.53,1.77-1.22,3.08-2.24,3.73-2.78,7.3-5.78,10.68-8.99,4.32-4.01,9.16-9.11,14.35-14.96,5.19-5.84,10.76-12.38,16.88-18.99,5.76-6.27,12.04-12.03,18.78-17.24,5.52-4.25,11.54-7.79,17.93-10.55,4.32-1.85,8.85-3.17,13.48-3.92,1.65-.32,2.93-.32,3.8-.42.42-.1.85-.14,1.29-.13Z"/>
  <path class="cls-9" d="M654.74,522.58c0,.19-3.25.65-8.44,2.11-13.34,3.69-25.44,10.9-35.05,20.87-3.67,3.82-5.63,6.48-5.78,6.33.33-.7.74-1.36,1.22-1.96,1.22-1.72,2.55-3.37,3.99-4.92,9.42-10.42,21.76-17.77,35.41-21.1,2.05-.5,4.13-.89,6.22-1.16.8-.17,1.61-.23,2.43-.17Z"/>
  <g class="cls-11">
    <path class="cls-1" d="M256.52,485c11.33,3.08,24.92-13.21,35.22-23.4,5.34-5.32,10.91-10.97,12.89-18.25,1.39-6.12.76-12.52-1.79-18.25-1.9-5.17-4.43-10.08-7.53-14.62.95,8.8,3.12,22.26.17,33.32-2.47,9.22-8.31,16.54-14.52,23.51-6.54,7.36-14.31,15.09-24.43,17.7Z"/>
  </g>
  <path class="cls-9" d="M304.94,475.67c-.21,0,1.1-3.73,2.11-9.87.61-3.59.96-7.22,1.03-10.87.07-4.46-.22-8.91-.89-13.31-.73-4.4-1.81-8.73-3.25-12.96-1.2-3.44-2.65-6.79-4.35-10.02-2.89-5.53-5.27-8.61-5.11-8.73.67.63,1.25,1.34,1.75,2.11.67.83,1.28,1.71,1.84,2.62.68,1.06,1.48,2.24,2.21,3.63,1.8,3.22,3.34,6.58,4.6,10.04,1.52,4.27,2.65,8.66,3.38,13.12.69,4.47.96,9,.82,13.52-.11,3.7-.54,7.37-1.29,10.99-.25,1.56-.65,2.91-.97,4.22-.26,1.04-.57,2.06-.93,3.06-.24.84-.57,1.66-.97,2.45Z"/>
  <path class="cls-9" d="M462.22,299.13c.15.27-2.36,1.73-4.98,4.09-2.62,2.36-4.39,4.66-4.64,4.47.92-2.02,2.25-3.82,3.91-5.3,1.66-1.48,3.6-2.59,5.71-3.27Z"/>
  <path class="cls-9" d="M484.48,312.06c.23.23-1.92,2.53-3.65,5.95-1.73,3.42-2.38,6.5-2.7,6.33-.15-2.44.45-4.86,1.73-6.94.97-2.2,2.58-4.06,4.62-5.34Z"/>
  <path class="cls-9" d="M522.61,325.48c-1.02-2.03-1.84-4.15-2.45-6.33-.93-2.08-1.64-4.25-2.11-6.48,1.49,1.79,2.59,3.87,3.21,6.12.93,2.1,1.39,4.39,1.35,6.69Z"/>
  <path class="cls-9" d="M547.15,313.88c-.34,0-1.16-3.65-3.59-7.6-2.43-3.95-5.3-6.43-5.06-6.69,2.57,1.4,4.66,3.53,6.01,6.12,1.67,2.4,2.59,5.24,2.64,8.17Z"/>
  <path class="cls-9" d="M617.58,383.21c.32,0-3.31,29.29-8.08,65.3-4.77,36.02-8.88,65.2-9.18,65.16-.3-.04,3.31-29.27,8.08-65.3,4.77-36.04,8.88-65.2,9.18-65.16Z"/>
  <path class="cls-9" d="M296.97,430.56c.08,1,.08,2.01,0,3.02-.06,1.18-.21,2.36-.44,3.52-.13.7-.23,1.41-.38,2.11-.15.7-.38,1.56-.61,2.41-1.04,3.96-2.45,7.81-4.22,11.5-2.22,4.49-4.85,8.77-7.87,12.76-3.1,3.97-6.64,7.58-10.55,10.76-3.21,2.58-6.76,4.7-10.55,6.33-.82.32-1.58.68-2.32.95l-2.11.59-1.86.51c-.57.13-1.12.15-1.6.23-1,.16-2.01.24-3.02.23,3.62-.72,7.15-1.8,10.55-3.23,3.64-1.68,7.06-3.8,10.17-6.33,3.76-3.15,7.18-6.69,10.21-10.55,2.98-3.93,5.59-8.13,7.81-12.53,1.78-3.62,3.25-7.39,4.39-11.27.99-3.63,1.79-7.3,2.4-11.01Z"/>
  <g class="cls-11">
    <path class="cls-1" d="M610.7,675.25c9.07-4.39,11.14-16.14,12.07-26.18,2.7-29.39,5.41-58.79,8.12-88.22,1.29-13.82,1.9-29.54-7.85-39.5-8.9-9.03-23.06-9.56-35.74-9.52-78.28.21-147.43,2.51-225.77,2.72l3.99,136.96,245.18,23.74Z"/>
  </g>
  <path class="cls-2" d="M327.84,535.79l8.33,158.84c.17,2.97,1.48,5.75,3.64,7.79,2.17,2.03,5.03,3.16,8,3.14l253.03.44c2.98,0,5.84-1.12,8.01-3.16,2.17-2.04,3.47-4.84,3.64-7.81l9.64-156.14c.34-6.5-4.22-15.13-10.84-15.26h-271.58c-1.6-.04-3.18.24-4.66.84s-2.82,1.5-3.93,2.64c-1.12,1.14-1.98,2.5-2.55,3.99-.57,1.49-.82,3.08-.74,4.68Z"/>
  <path class="cls-9" d="M327.84,535.79v-.59c-.05-.59-.05-1.18,0-1.77.35-2.32,1.39-4.48,3-6.18,1.18-1.26,2.62-2.25,4.22-2.89,1.96-.7,4.04-.99,6.12-.84h15.38l98.03-.17,145.4-.15h10.34c1.83-.1,3.65.37,5.21,1.33,1.54.98,2.86,2.28,3.86,3.8,2.07,3.02,3.18,6.59,3.19,10.25-.21,3.52-.42,7.09-.63,10.68-.89,14.29-1.79,28.87-2.7,43.74-1.82,29.73-3.71,60.49-5.68,92.02l-.36,5.91c-.17,1.96-.13,3.86-.48,5.93-.41,2.02-1.32,3.9-2.66,5.47-1.34,1.57-3.05,2.77-4.98,3.49-1.9.67-3.92.94-5.93.78h-62.83l-85.88-.19-77.71-.19h-22.22c-1.46,0-2.89,0-4.41-.15-2.96-.42-5.66-1.92-7.58-4.22-1.87-2.24-2.87-5.08-2.83-8-.15-2.76-.27-5.49-.42-8.19-.27-5.42-.55-10.7-.82-15.87-2.11-41.34-3.78-74.78-4.96-97.9-.55-11.54-.99-20.51-1.29-26.63-.13-3.04-.23-5.34-.32-6.92-.08-1.58,0-2.36,0-2.36,0,0,0,.8.19,2.36.19,1.56.23,3.88.4,6.9.36,6.12.87,15.09,1.52,26.63,1.24,23.21,3.06,56.57,5.3,97.88.27,5.17.57,10.44.86,15.87.13,2.7.27,5.42.42,8.19-.04,2.74.9,5.39,2.66,7.49,1.78,2.13,4.3,3.51,7.05,3.88,1.4.13,2.81.17,4.22.13h100.01l85.88.13h62.83c1.88.15,3.77-.1,5.55-.72,1.75-.66,3.31-1.75,4.53-3.17,1.21-1.42,2.05-3.14,2.41-4.97.32-1.79.32-3.86.46-5.78l.36-5.91c1.96-31.52,3.86-62.29,5.72-91.99.91-14.88,1.82-29.47,2.7-43.76.23-3.57.44-7.11.65-10.65-.01-3.43-1.06-6.79-3-9.62-.83-1.44-2.04-2.64-3.49-3.46-1.45-.82-3.09-1.24-4.76-1.22h-155.72l-98.03-.15h-15.38c-2.04-.16-4.09.11-6.01.78-1.87.72-3.51,1.91-4.78,3.46-1.27,1.55-2.11,3.4-2.44,5.38-.1.71-.16,1.43-.19,2.15Z"/>
  <path class="cls-10" d="M476.86,628.16c8.23,0,14.9-6.67,14.9-14.9s-6.67-14.9-14.9-14.9-14.9,6.67-14.9,14.9,6.67,14.9,14.9,14.9Z"/>
  <path class="cls-9" d="M491.76,613.26c-.11,0,0-1.33-.68-3.59-.87-3.19-2.79-5.99-5.44-7.95-1.8-1.36-3.9-2.27-6.12-2.66-2.53-.44-5.14-.21-7.55.67-2.68.97-5,2.72-6.67,5.02-1.7,2.33-2.67,5.11-2.77,7.99-.1,2.88.66,5.73,2.19,8.17,1.53,2.44,3.76,4.37,6.4,5.53,2.64,1.16,5.56,1.51,8.4.99,2.22-.39,4.32-1.3,6.12-2.66,2.65-1.96,4.57-4.76,5.44-7.93.61-2.26.57-3.61.68-3.59.05.31.05.64,0,.95.01.92-.09,1.85-.32,2.74-.77,3.35-2.67,6.33-5.38,8.44-2.03,1.58-4.42,2.62-6.96,3.03s-5.14.16-7.56-.71c-2.26-.81-4.3-2.13-5.95-3.87-1.65-1.74-2.88-3.84-3.58-6.13-.7-2.3-.85-4.72-.44-7.09.41-2.36,1.37-4.6,2.79-6.53,1.8-2.46,4.3-4.32,7.17-5.34,2.59-.93,5.38-1.14,8.08-.61,2.31.47,4.48,1.47,6.33,2.93,2.72,2.1,4.62,5.09,5.38,8.44.22.89.33,1.81.32,2.72.1.33.13.67.11,1.01Z"/>
  <path class="cls-9" d="M336.36,553.36c.3,0,1.56,26.69,2.79,59.63,1.22,32.94,1.98,59.65,1.69,59.65s-1.5-26.71-2.79-59.63c-1.29-32.91-1.98-59.63-1.69-59.65Z"/>
  <path class="cls-7" d="M260.32,346.12c-1.5-1.27,5-26.21,5-26.21,0,0-17.18-28-17.62-37.03-.44-9.03,6.77-27.56,6.77-27.56l49.23-12.66s15.83,29.37,18.99,39.75c3.17,10.38-5.42,45.62-5.42,45.62l-8.44,18.08s-25.07,19.88-48.51,0Z"/>
  <path class="cls-7" d="M247.78,288.28c-1.93-3.55-3.66-7.21-5.19-10.95-3.1-7.39-6.94-14.64,0-18.78,1.08-.71,2.31-1.18,3.59-1.38,1.28-.2,2.59-.12,3.84.22,0,0-1.06-6.33,2.66-8.57,1.08-.67,2.31-1.08,3.57-1.19s2.55.08,3.73.56c0,0-1.18-8.78,4.22-12.49,2.01-1.33,4.35-2.07,6.76-2.14,2.41-.07,4.79.53,6.87,1.74,0,0-4.22-38.42-4.6-40.45-1.35-7.47,1.41-14.1,8.84-12.24,2.72.68,4.22,3.55,7.43,16.06,3.21,12.51,8.33,33.87,8.33,33.87,0,0,8.65,15.02,12.66,23.21,4.01,8.19,12.17,26.71,12.85,31.65,1.73,12.66-5.72,29.54-5.72,29.54l-52.33,3.04-17.51-31.69Z"/>
  <path class="cls-8" d="M251.05,259.04c1.49,1.78,2.85,3.67,4.05,5.65l4.22,6.33c.86,1.25,1.61,2.56,2.26,3.92.74,1.56.95,3.31.61,5-.16.88-.55,1.71-1.13,2.39s-1.33,1.2-2.18,1.49c-1.58.4-3.25.18-4.68-.59-1.23-.59-2.4-1.3-3.5-2.11-1.01-.74-1.96-1.46-2.81-2.11-1.71-1.33-3.02-2.47-3.9-3.29-.89-.82-1.35-1.29-1.31-1.35.04-.06,2.11,1.54,5.67,4.01,1.99,1.5,4.11,2.83,6.33,3.97,1.21.64,2.62.81,3.95.49.66-.24,1.25-.66,1.7-1.2.45-.55.74-1.2.85-1.9.27-1.43.08-2.9-.53-4.22-.61-1.32-1.31-2.59-2.11-3.8l-3.95-6.33c-1.36-2.01-2.54-4.14-3.54-6.35Z"/>
  <path class="cls-8" d="M293.97,263.62c-.45-2.75-.26-5.56.55-8.23.47-2.75,1.59-5.35,3.27-7.57.3.15-1.16,3.5-2.11,7.83-.95,4.33-1.37,7.98-1.71,7.98Z"/>
  <path class="cls-7" d="M314.73,274.84c-4.83-4.68-10.91-7.85-17.51-9.14-6.57-1.26-13.29-1.52-19.94-.76-5.32.49-11.42,1.86-13.82,6.62-2.41,4.77.51,11.23,5.21,14.03,4.71,2.81,10.55,2.93,16.06,2.45,5.51-.49,10.99-1.52,16.44-.68"/>
  <path class="cls-8" d="M301.17,287.38s-1.48-.15-4.22,0c-3.75.16-7.49.51-11.2,1.06-2.61.33-5.24.45-7.87.34-3.06-.1-6.07-.86-8.82-2.21-3.07-1.62-5.41-4.34-6.54-7.62-.6-1.75-.73-3.63-.38-5.44.45-1.87,1.46-3.57,2.89-4.85,2.91-2.25,6.4-3.6,10.07-3.9,3.3-.39,6.62-.58,9.94-.59,5.65-.1,11.28.75,16.65,2.51,3.61,1.21,6.99,3.04,9.98,5.4.82.65,1.58,1.35,2.3,2.11.27.24.5.52.7.82,0,0-1.1-.99-3.25-2.55-3.04-2.19-6.41-3.87-9.98-5-5.3-1.63-10.83-2.39-16.37-2.24-3.28.04-6.56.25-9.81.65-3.44.27-6.74,1.54-9.47,3.65-1.26,1.12-2.15,2.59-2.55,4.22-.33,1.62-.22,3.31.32,4.87,1.04,3.03,3.19,5.56,6.01,7.07,2.63,1.3,5.51,2.02,8.44,2.11,2.58.14,5.16.08,7.72-.19,3.75-.49,7.53-.74,11.31-.74,1.02.05,2.04.15,3.06.3.38.02.74.1,1.1.23Z"/>
  <path class="cls-7" d="M251.43,259.65c5.51,8.44,10.36,17.55,15,26.42,1.11,2.71,2.93,5.08,5.27,6.84,1.98,1.22,6.9-.99,9.12-1.75l-15.13-34.39"/>
  <path class="cls-8" d="M265.7,256.76c.53.81.98,1.66,1.35,2.55l3.33,7.22c2.81,6.12,6.65,14.77,10.93,24.41l.25.53-.57.21c-1.62.57-3.38,1.31-5.27,1.79-.76.19-1.54.3-2.32.34-.41.02-.82-.02-1.22-.13-.42-.1-.81-.3-1.14-.57-1.22-.88-2.26-1.98-3.06-3.25-1.54-2.45-2.64-4.9-3.88-7.15-2.36-4.58-4.54-8.67-6.44-12.09-1.9-3.42-3.46-6.14-4.58-8.02-.62-.94-1.17-1.93-1.65-2.95.76.85,1.43,1.76,2,2.74,1.22,1.79,2.93,4.47,4.9,7.85,1.96,3.38,4.22,7.43,6.67,11.99,1.24,2.26,2.4,4.75,3.88,7.05.73,1.14,1.67,2.15,2.76,2.95.58.3,1.22.48,1.88.5.66.03,1.31-.08,1.92-.33,1.79-.44,3.5-1.16,5.19-1.75l-.38.8c-4.22-9.73-7.97-18.36-10.55-24.56l-3.04-7.34c-.4-.9-.73-1.83-.97-2.79Z"/>
  <path class="cls-7" d="M261.62,246.53c4.85,12.2,9.71,24.38,14.58,36.57.89,2.65,2.21,5.13,3.93,7.34.86,1.1,1.99,1.96,3.27,2.52,1.28.56,2.68.79,4.07.67,3.8-.55,6.33-4.58,6.48-8.44-.12-3.85-1.05-7.64-2.74-11.1-4.36-11.12-7.85-22.56-10.44-34.22"/>
  <path class="cls-8" d="M280.76,239.88c.15.36.27.74.36,1.12.23.84.51,1.92.87,3.23.76,2.81,1.86,6.86,3.4,11.82,1.54,4.96,3.52,10.8,6.04,17.18,1.55,3.34,2.59,6.9,3.06,10.55.14,2.01-.25,4.01-1.12,5.82-.89,1.89-2.45,3.39-4.37,4.22-1,.36-2.07.51-3.13.42-1.06-.09-2.09-.4-3.01-.93-1.73-.96-3.19-2.36-4.22-4.05-1.74-3.18-3.22-6.51-4.41-9.94-2.49-6.33-4.73-12.11-6.65-16.99-1.92-4.87-3.29-8.65-4.39-11.5l-1.16-3.14c-.15-.37-.26-.75-.32-1.14.21.33.39.69.53,1.05l1.35,3.06c1.16,2.83,2.76,6.69,4.71,11.37,1.94,4.68,4.22,10.55,6.88,16.88,1.19,3.35,2.65,6.6,4.37,9.71.96,1.55,2.3,2.81,3.9,3.67.79.44,1.67.71,2.57.79.9.08,1.81-.04,2.66-.35,1.68-.74,3.04-2.07,3.8-3.74.79-1.64,1.14-3.46,1.01-5.27-.47-3.51-1.46-6.93-2.93-10.15-2.47-6.33-4.39-12.34-5.82-17.32-1.43-4.98-2.45-9.12-3.08-11.94-.3-1.43-.53-2.53-.65-3.29-.14-.37-.21-.75-.23-1.14Z"/>
  <path class="cls-7" d="M262.79,332.26s-33.38,98.45-34.71,103.26c-1.33,4.81,6.6,39.98,21.1,48.32,14.5,8.33,42.62-26.35,46.12-39.1,3.5-12.74,0-34.27,0-34.27l22.51-84.8"/>
  <path class="cls-8" d="M295.3,316.96c-1.06.14-2.15,0-3.14-.4-2.46-.77-4.73-2.07-6.63-3.82-1.92-1.75-3.42-3.92-4.39-6.33-.49-.96-.73-2.03-.68-3.1,1.39,3.2,3.36,6.11,5.8,8.59,2.67,2.24,5.73,3.95,9.03,5.06Z"/>
  <path class="cls-9" d="M894.94,794.09c0,.32-185.91.57-415.2.57s-415.24-.25-415.24-.57,185.89-.55,415.24-.55,415.2.25,415.2.55Z"/>
  <path class="cls-5" d="M350.79,88.32H113.99c-6.16,0-11.16,5-11.16,11.16v65.66c0,6.16,5,11.16,11.16,11.16h236.8c6.16,0,11.16-5,11.16-11.16v-65.66c0-6.16-5-11.16-11.16-11.16Z"/>
  <path class="cls-5" d="M363.64,176.31h-227.73c-3.14-.03-6.13-1.3-8.34-3.53-2.21-2.23-3.45-5.24-3.45-8.37v-64.48c0-3.15,1.26-6.18,3.49-8.41,2.23-2.23,5.25-3.49,8.41-3.49h227.62c3.15,0,6.18,1.26,8.41,3.49,2.23,2.23,3.49,5.25,3.49,8.41v64.48c0,3.16-1.26,6.18-3.49,8.41-2.23,2.23-5.25,3.49-8.41,3.49ZM135.91,90.14c-2.58.03-5.04,1.08-6.85,2.91-1.81,1.83-2.83,4.3-2.84,6.88v64.48c0,2.6,1.03,5.09,2.87,6.92,1.84,1.84,4.33,2.87,6.92,2.87h227.62c2.6,0,5.09-1.03,6.92-2.87s2.87-4.33,2.87-6.92v-64.48c0-2.59-1.04-5.08-2.87-6.92-1.83-1.83-4.32-2.87-6.92-2.87h-227.73Z"/>
  <path class="cls-5" d="M365.94,174.37c-1.75-1.6-3.25-3.47-4.43-5.53-1.49-1.85-2.69-3.92-3.54-6.14,1.76,1.61,3.26,3.47,4.45,5.53,1.49,1.85,2.68,3.92,3.52,6.14Z"/>
  <path class="cls-5" d="M374.49,106.36c-2.61-2.66-4.95-5.57-6.98-8.69-2.32-2.91-4.36-6.03-6.1-9.33,2.61,2.66,4.95,5.57,6.98,8.69,2.33,2.9,4.37,6.03,6.1,9.33Z"/>
  <path class="cls-5" d="M373.58,162.74c-.32.23-3.48-4.22-6.94-10.17-1.75-2.91-3.29-5.57-4.37-7.51-.67-1.01-1.22-2.09-1.65-3.23.32-.21,3.48,4.35,6.94,10.17,1.75,2.91,3.29,5.57,4.39,7.51.67,1.01,1.21,2.09,1.62,3.23Z"/>
  <path class="cls-5" d="M374.55,144.3c-.32.23-3.69-4.68-7.43-10.95-1.88-3.14-3.54-5.99-4.73-8.08-.71-1.09-1.3-2.25-1.77-3.46.32-.21,3.69,4.71,7.45,10.97,1.88,3.12,3.52,5.99,4.7,8.06.71,1.09,1.31,2.25,1.77,3.46Z"/>
  <path class="cls-5" d="M374.53,126.09c-.32.23-3.71-4.73-7.47-11.01-1.9-3.14-3.57-6.03-4.75-8.12-.72-1.09-1.32-2.26-1.79-3.48.32-.21,3.71,4.73,7.47,11.04,1.9,3.14,3.57,6.01,4.75,8.12.73,1.08,1.33,2.24,1.79,3.46Z"/>
  <path class="cls-9" d="M96.46,101.97c-4.54-.61-9.02-1.59-13.4-2.93-4.47-.99-8.86-2.33-13.12-4.01,4.54.61,9.02,1.59,13.4,2.93,4.48.98,8.86,2.32,13.12,4.01Z"/>
  <path class="cls-9" d="M99.01,86.13c-4.95-5.16-9.64-10.58-14.03-16.23-4.68-5.39-9.08-11.03-13.17-16.88,4.95,5.18,9.63,10.6,14.03,16.25,4.67,5.39,9.06,11.02,13.17,16.86Z"/>
  <path class="cls-9" d="M118.57,78.49c-1.52-3.54-2.5-7.29-2.89-11.12-.76-3.78-.92-7.65-.46-11.48.32,0,.61,5.11,1.54,11.33.93,6.22,2.13,11.12,1.81,11.27Z"/>
  <g>
    <path class="cls-10" d="M179,121.18c1.86-.3,4.19-.49,6.66-.49,4.29,0,7.21.89,9.32,2.64,2.23,1.81,3.58,4.53,3.58,8.41,0,4.1-1.4,7.13-3.56,9.1-2.29,2.06-5.91,3.11-10.35,3.11-2.43,0-4.27-.13-5.65-.3v-22.47ZM183.17,140.54c.59.1,1.47.11,2.33.11,5.42.03,8.65-2.98,8.65-8.77.02-5.04-2.88-7.95-8.13-7.95-1.31,0-2.24.12-2.85.24v16.36Z"/>
    <path class="cls-10" d="M214.96,133.58h-8.62v6.71h9.63v3.44h-13.81v-22.86h13.31v3.44h-9.13v5.88h8.62v3.41Z"/>
    <path class="cls-10" d="M219.63,120.86h4.18v19.36h9.4v3.5h-13.58v-22.86Z"/>
    <path class="cls-10" d="M249.15,133.58h-8.62v6.71h9.63v3.44h-13.81v-22.86h13.31v3.44h-9.13v5.88h8.62v3.41Z"/>
    <path class="cls-10" d="M258.55,124.37h-6.53v-3.51h17.3v3.51h-6.59v19.35h-4.18v-19.35Z"/>
    <path class="cls-10" d="M284.76,133.58h-8.62v6.71h9.63v3.44h-13.81v-22.86h13.31v3.44h-9.13v5.88h8.62v3.41Z"/>
  </g>
</svg>
