<?xml version="1.0" encoding="UTF-8"?>
<svg id="Layer_1" data-name="Layer 1" xmlns="http://www.w3.org/2000/svg" viewBox="0 0 1000 1000">
  <defs>
    <style>
      .cls-1 {
        fill: #000;
      }

      .cls-1, .cls-2, .cls-3, .cls-4, .cls-5, .cls-6, .cls-7, .cls-8, .cls-9, .cls-10, .cls-11 {
        stroke-width: 0px;
      }

      .cls-2 {
        fill: #e0e0e0;
      }

      .cls-12 {
        opacity: .2;
      }

      .cls-3 {
        fill: #eb996e;
      }

      .cls-4 {
        fill: #455a64;
      }

      .cls-5 {
        fill: #f5f5f5;
      }

      .cls-6 {
        fill: #09f;
      }

      .cls-7 {
        fill: #ffbe9d;
      }

      .cls-8 {
        fill: #ebebeb;
      }

      .cls-9 {
        fill: #263238;
      }

      .cls-10 {
        fill: #fafafa;
      }

      .cls-13 {
        opacity: .6;
      }

      .cls-11 {
        fill: #fff;
      }

      .cls-14 {
        opacity: .4;
      }
    </style>
  </defs>
  <path class="cls-8" d="M923.35,773.77c8.38-4.32,18.25-4.89,27.54-3.35,4.99.81,10.14,2.31,13.59,6.09,3.45,3.77,4.06,10.36.14,13.57-2.52,1.7-5.55,2.48-8.58,2.19-7.26,0-15.35-1.38-21.15,3-3.33,2.49-5.54,6.65-9.49,7.89-1.98.46-4.06.26-5.93-.57-1.86-.83-3.41-2.24-4.4-4.01-1.89-3.65-2.3-7.89-1.16-11.84.46-2.74,1.55-5.34,3.19-7.59,1.64-2.25,3.77-4.09,6.24-5.37Z"/>
  <path class="cls-8" d="M904.16,736.67c5.13,7.3,15.09,4.89,19.69.43,4.61-4.46,6.57-10.93,8.34-17.12,4.06-14.09,8.11-28.88,5.13-43.22-.71-4.35-2.63-8.43-5.52-11.76-1.46-1.64-3.33-2.87-5.41-3.57-2.09-.69-4.32-.83-6.47-.39-5.03,1.32-8.11,6.25-10.4,10.91-6.61,13.81-10.08,28.92-10.14,44.23,0,7.12.81,14.6,4.83,20.48"/>
  <path class="cls-8" d="M890.11,747.22c5.56-6.59,6.61-16.22,4.06-24.48-2.8-8.22-7.82-15.5-14.5-21.05-7.57-6.75-16.39-11.95-25.96-15.31-3.7-1.51-7.69-2.2-11.68-2.03-1.99.11-3.93.71-5.64,1.75-1.71,1.03-3.14,2.47-4.17,4.17-2.72,5.21,0,11.54,2.74,16.69,4.98,9.1,10.69,17.79,17.06,25.98,5.11,6.59,10.97,13.1,18.76,16.08,7.79,2.98,15.88,2.62,20.02-2.78"/>
  <path class="cls-2" d="M903.82,847.04c.28-1.09.44-2.2.47-3.33.24-2.41.53-5.46.89-9.06.45-4.47,1.13-8.91,2.03-13.3,1.19-5.35,2.81-10.6,4.85-15.7,1.98-5.09,4.67-9.87,8.01-14.2,2.7-3.54,6.17-6.42,10.14-8.44,2.69-1.34,5.57-2.23,8.54-2.66,1.12-.04,2.22-.21,3.3-.49-1.12-.11-2.25-.11-3.37,0-3.08.23-6.1,1.01-8.9,2.31-4.17,1.97-7.83,4.88-10.69,8.5-3.48,4.39-6.29,9.28-8.31,14.5-2.06,5.16-3.67,10.5-4.81,15.94-.85,4.46-1.44,8.96-1.76,13.49-.28,3.83-.38,6.96-.45,9.11-.08,1.11-.06,2.22.06,3.33Z"/>
  <path class="cls-2" d="M904.45,840.1c.09-.51.12-1.03.1-1.54v-4.42c0-3.81,0-9.35.2-16.22.32-13.69,1.5-28.39,3.79-49.16,2.15-19.51,5.03-42.2,8.11-56.97.65-3.37,1.3-6.39,1.93-9.03.63-2.64,1.1-4.95,1.58-6.79.49-1.85.77-3.16,1.03-4.28.15-.49.23-1.01.27-1.52-.23.46-.41.94-.53,1.44-.34,1.11-.77,2.51-1.28,4.22-.51,1.7-1.16,4.06-1.83,6.75-.67,2.7-1.42,5.64-2.13,9.01-3.78,17.46-6.62,35.11-8.52,52.87-2.27,20.79-3.31,39.73-3.39,53.44,0,6.85,0,12.39.24,16.22.1,1.78.18,3.24.26,4.4,0,.53.04,1.06.14,1.58Z"/>
  <path class="cls-2" d="M904.55,803.6c.11-1.53.11-3.07,0-4.6-.26-4.18-.72-8.34-1.4-12.47-1.01-6.16-2.36-12.25-4.06-18.25-2-7.34-4.56-14.51-7.67-21.46-5.27-12.85-12.83-24.63-22.31-34.78-1.65-1.72-3.41-3.35-5.25-4.87-.81-.69-1.52-1.36-2.25-1.91l-2.03-1.4c-1.23-.93-2.53-1.77-3.9-2.49,4.47,3.52,8.72,7.31,12.72,11.36,9.18,10.22,16.54,21.93,21.76,34.64,3.02,6.92,5.58,14.05,7.64,21.31,1.75,5.92,3.19,11.92,4.32,17.99.95,5.19,1.5,9.43,1.85,12.35.06,1.54.25,3.08.57,4.58Z"/>
  <path class="cls-2" d="M869.24,867.97l3.67,50.11h64.39l3.67-50.11h-71.73Z"/>
  <path class="cls-2" d="M948.66,848.19h-85.62v19.75h85.62v-19.75Z"/>
  <path class="cls-8" d="M863.03,916.18v5.48h84.2v-5.48h-84.2Z"/>
  <path class="cls-2" d="M871,931.29l-3.95-9.63h77.11l-4.58,9.63h-68.57Z"/>
  <path class="cls-5" d="M939.77,884.33c-.09.16-.19.32-.3.47l-.97,1.28-3.75,4.72-.16.2-.16-.22-9.21-12.74h.53l-9.09,12.84-.28.41-.31-.39-10.77-12.8h.63c-.2.22-.39.49-.59.73l-9.63,12.07-.33.41-.28-.43-9.09-12.84h.53l-11.17,12.76-.2.22-.16-.24-3.49-5.88-.89-1.56c-.12-.17-.22-.37-.28-.57.14.16.26.33.36.51.27.39.61.89.99,1.5.91,1.4,2.13,3.35,3.69,5.78h-.37c2.88-3.35,6.61-7.73,11.01-12.9l.28-.33.24.37,9.17,12.78h-.63c3.06-3.83,6.26-7.89,9.61-12.17l.59-.75.3-.39.3.39,10.75,12.82h-.61l9.17-12.78.26-.37.26.37,9.02,12.88h-.32l3.89-4.68,1.05-1.2c.12-.11.25-.19.39-.27Z"/>
  <path class="cls-5" d="M941.86,867.62c0,.22-16.22.41-36.04.41s-36.04-.18-36.04-.41,16.12-.41,36.04-.41,36.04.18,36.04.41Z"/>
  <path class="cls-5" d="M945.11,922.18c0,.22-17.52.4-39.16.4s-39.16-.18-39.16-.4,17.52-.38,39.16-.38,39.16.16,39.16.38Z"/>
  <path class="cls-5" d="M31.53,826.56v56.13h-9.39v6.09h9.39v37.56h175.16v-34.17h-12.92v-7.44h12.98v-11.17h5.78v-5.05h-6.85v-41.94H31.53Z"/>
  <path class="cls-2" d="M160.17,826.72v99.01h46.5v-34.19h-12.96v-6.81l12.96.22v-11.15h5.88l-.1-5.78-6.85-.16v-41.29l-45.43.16Z"/>
  <path class="cls-2" d="M163.48,887.97c0,.34-31.7.63-70.78.63s-70.8-.28-70.8-.63,31.7-.61,70.8-.61,70.78.28,70.78.61Z"/>
  <path class="cls-2" d="M163.48,882.27c0,.34-31.7.63-70.78.63s-70.8-.28-70.8-.63,31.7-.61,70.8-.61,70.78.27,70.78.61Z"/>
  <path class="cls-2" d="M172.56,866.94c0,.34-31.68.61-70.78.61s-70.8-.26-70.8-.61,31.7-.63,70.8-.63,70.78.28,70.78.63Z"/>
  <path class="cls-2" d="M173.49,908.73c0,.34-31.7.63-70.8.63s-70.78-.28-70.78-.63,31.68-.61,70.78-.61,70.8.28,70.8.61Z"/>
  <path class="cls-5" d="M59.48,728.95v56.12h-9.39v6.09h9.39v37.56h175.14v-34.17h-12.96v-7.44h12.96v-11.15h5.8v-5.09h-6.85v-41.9H59.48Z"/>
  <path class="cls-2" d="M188.12,729.11v98.99h46.5v-34.17h-12.96v-6.83l12.96.24v-11.17h5.88l-.1-5.76-6.85-.16v-41.29l-45.43.16Z"/>
  <path class="cls-2" d="M191.42,790.36c0,.34-31.7.61-70.78.61s-70.86-.27-70.86-.61,31.7-.63,70.8-.63,70.84.28,70.84.63Z"/>
  <path class="cls-2" d="M191.42,784.66c0,.35-31.7.61-70.78.61s-70.86-.26-70.86-.61,31.7-.63,70.8-.63,70.84.28,70.84.63Z"/>
  <path class="cls-2" d="M200.53,769.3c0,.35-31.7.63-70.8.63s-70.78-.28-70.78-.63,31.68-.63,70.78-.63,70.8.28,70.8.63Z"/>
  <path class="cls-2" d="M201.4,811.12c0,.34-31.7.61-70.8.61s-70.78-.26-70.78-.61,31.68-.63,70.78-.63,70.8.28,70.8.63Z"/>
  <path class="cls-2" d="M341.19,105.54l-.45-.14-1.24-.49-4.75-2.03-17.28-7.4-57.31-24.9-2.03-.87h.41l-55.97,24.07-16.91,7.02-4.62,1.89c-.53.25-1.08.45-1.64.59.5-.3,1.02-.55,1.56-.77l4.54-2.03,16.83-7.42,55.91-24.34h.41l2.03.87,57.07,25.19,17.26,7.75,4.67,2.15,1.2.59c.12.08.23.17.33.28Z"/>
  <path class="cls-2" d="M430.41,97.33H63.09v275.02h367.32V97.33Z"/>
  <path class="cls-10" d="M418.95,110.11H75.92v250.95h343.02V110.11Z"/>
  <path class="cls-2" d="M151.69,219.74s.34,42.14,2.49,54.98l52.83-2.47s-4.64-41.41-2.84-52.49l-52.49-.02Z"/>
  <path class="cls-11" d="M177.71,225.71h.77c.73-.06,1.46-.06,2.19,0,1.17.17,2.3.51,3.37,1.01,1.42.7,2.66,1.71,3.65,2.94,1.21,1.49,2.08,3.23,2.54,5.09.41,2.19.22,4.44-.55,6.53-.4,1.13-.9,2.22-1.5,3.27-.59,1.05-1.18,2.03-1.68,3.29-1.02,2.4-1.7,4.92-2.03,7.5v.18h-11.17v-.18c-.23-2.58-1.1-5.06-2.54-7.22-.63-1.1-1.32-2.03-2.03-3.12-.68-.98-1.31-1.99-1.87-3.04-.96-2-1.25-4.25-.83-6.43.31-1.88,1-3.67,2.03-5.27.9-1.22,2.07-2.21,3.41-2.92,1.02-.56,2.11-.99,3.25-1.26.71-.18,1.44-.3,2.17-.34-.68.1-1.36.24-2.03.43-1.12.28-2.19.72-3.18,1.3-1.33.75-2.47,1.8-3.33,3.06-1.02,1.57-1.71,3.33-2.03,5.17-.41,2.11-.11,4.3.85,6.23.55,1.03,1.17,2.03,1.85,2.98.65,1.01,1.34,2.03,2.03,3.12,1.48,2.21,2.38,4.76,2.62,7.4l-.2-.18h10.69l-.2.18c.38-2.62,1.11-5.18,2.19-7.61.51-1.14,1.08-2.25,1.72-3.33.59-1.02,1.07-2.09,1.46-3.2.77-2.02.97-4.22.59-6.35-.43-1.82-1.26-3.52-2.43-4.97-.96-1.21-2.17-2.19-3.55-2.88-1.04-.5-2.15-.86-3.29-1.05-.72-.11-1.44-.16-2.17-.16h-.77l.02-.16Z"/>
  <path class="cls-11" d="M180.43,255.05c0-.05,0-.11,0-.16v-.49c0-.45-.16-1.07-.28-1.89-.24-1.64-.59-4.06-.83-6.98,0-.73,0-1.5-.14-2.31-.14-.81,0-1.66,0-2.53.02-.91.22-1.81.59-2.64.41-.9,1.13-1.62,2.03-2.03.48-.19,1.01-.24,1.52-.14.51.1.98.34,1.36.69.2.19.36.42.46.67.11.25.16.52.17.79-.01.55-.21,1.07-.55,1.5-.33.45-.77.8-1.28,1.03-.5.24-1.02.42-1.56.53-1.1.22-2.21.35-3.33.39-1.12.04-2.25-.02-3.37-.16-.54-.09-1.08-.25-1.58-.47-.51-.22-.96-.54-1.34-.95-.38-.39-.64-.87-.77-1.4-.12-.53-.05-1.08.18-1.56.22-.49.62-.87,1.12-1.07.24-.11.49-.16.75-.16s.51.05.75.16c.46.2.84.53,1.12.95.28.4.47.85.57,1.32.17.89.25,1.79.26,2.7,0,1.74.18,3.35.26,4.83.14,2.96.26,5.35.34,7.02v2.39c.01.06.01.12,0,.18v-.67c0-.45,0-1.07-.12-1.91,0-1.66-.24-4.06-.41-7,0-1.48-.18-3.1-.26-4.85-.02-.89-.11-1.78-.28-2.66-.09-.46-.28-.89-.55-1.28-.26-.39-.63-.7-1.05-.89-.22-.09-.45-.14-.69-.14s-.47.05-.69.14c-.45.19-.82.55-1.03.99-.21.46-.27.97-.16,1.46.12.5.37.97.73,1.34.76.75,1.75,1.23,2.82,1.36,1.1.15,2.21.2,3.33.16,1.11-.03,2.22-.16,3.31-.39.53-.11,1.05-.28,1.54-.51.47-.24.88-.57,1.22-.97.31-.41.49-.91.51-1.42-.02-.5-.22-.98-.57-1.34-.36-.34-.8-.56-1.28-.66-.48-.09-.98-.05-1.43.13-.91.39-1.64,1.11-2.03,2.03-.37.82-.58,1.7-.61,2.6v2.49c0,.79,0,1.58.12,2.33.22,2.94.55,5.31.77,6.96.12.83.2,1.46.26,1.91v.49s.08.05.12.08Z"/>
  <path class="cls-11" d="M173.49,255.34s0,.65.12,1.76c.12,1.12.16,2.8.24,4.56v-.1l3.55,4.06h-.18l4.06-.22h-.16l2.03-2.49,1.03-1.26v.16c0-2.41,0-4.71-.14-6.77l.22.2-7.69.1h-3.08c.24-.03.49-.03.73,0l2.17-.1,7.81-.3h.22v.22c0,2.03.14,4.36.2,6.77l-1.03,1.26c-.71.85-1.4,1.68-2.03,2.49h-.1l-4.06.2-3.49-4.06v-4.71c-.2-.58-.34-1.18-.43-1.78Z"/>
  <path class="cls-11" d="M184.08,261.28l-.39-.16c-.24,0-.61-.26-1.07-.43-1.2-.4-2.45-.59-3.71-.57-1.26.05-2.5.32-3.67.79l-1.03.49-.39.2.34-.24c.33-.2.68-.38,1.03-.55,1.17-.52,2.43-.8,3.71-.85,1.28-.03,2.55.18,3.75.63.47.18.81.34,1.05.47l.36.22Z"/>
  <path class="cls-11" d="M184.08,259.63l-.45-.16c-.24,0-.61-.26-1.07-.43-1.2-.4-2.45-.59-3.71-.57-1.26.05-2.5.32-3.67.79-.35.14-.7.31-1.03.49l-.39.2.34-.24c.33-.21.67-.4,1.03-.55,1.17-.53,2.43-.82,3.71-.85,1.28-.03,2.55.18,3.75.63.36.13.71.29,1.05.47l.43.22Z"/>
  <path class="cls-11" d="M183.98,258.05c-.13-.04-.26-.1-.39-.16-.35-.16-.71-.31-1.08-.43-1.2-.4-2.45-.59-3.71-.57-1.26.04-2.5.31-3.67.79-.45.18-.79.36-1.03.49l-.39.18.34-.24c.24-.14.59-.32,1.03-.53,1.17-.52,2.43-.81,3.71-.85,1.28-.03,2.55.18,3.75.63.36.13.71.29,1.05.47l.37.22Z"/>
  <path class="cls-8" d="M92.84,150.89s.36,42.12,2.51,54.98l52.83-2.58s-4.64-41.41-2.86-52.47l-52.49.06Z"/>
  <path class="cls-11" d="M137.35,168.58c-5.86.87-11.76,1.4-17.68,1.58-5.91.53-11.84.71-17.77.55,5.87-.87,11.78-1.4,17.7-1.58,5.9-.53,11.82-.71,17.75-.55Z"/>
  <path class="cls-11" d="M137.37,177.5c-5.87.87-11.78,1.4-17.7,1.58-5.9.53-11.82.71-17.75.55,5.86-.87,11.76-1.4,17.68-1.58,5.91-.53,11.84-.71,17.77-.55Z"/>
  <path class="cls-11" d="M128.39,186.26c-3.33.72-6.73,1.1-10.14,1.14-3.37.34-6.77.34-10.14,0,3.33-.72,6.73-1.09,10.14-1.12,3.37-.35,6.77-.36,10.14-.02Z"/>
  <path class="cls-8" d="M90.34,274.83s.37,42.12,2.49,54.98l52.83-2.51s-4.62-41.41-2.84-52.47h-52.49Z"/>
  <path class="cls-11" d="M134.96,292.53c-5.87.87-11.78,1.4-17.7,1.58-5.9.54-11.82.72-17.75.55,5.86-.87,11.76-1.4,17.68-1.58,5.91-.53,11.84-.71,17.77-.55Z"/>
  <path class="cls-11" d="M134.96,301.43c-5.87.87-11.78,1.4-17.7,1.58-5.91.53-11.84.71-17.77.55,5.87-.87,11.78-1.4,17.7-1.58,5.91-.53,11.84-.71,17.77-.55Z"/>
  <path class="cls-11" d="M125.9,310.19c-3.33.72-6.73,1.1-10.14,1.14-3.37.34-6.77.34-10.14,0,3.33-.72,6.73-1.1,10.14-1.12,3.37-.35,6.77-.36,10.14-.02Z"/>
  <path class="cls-8" d="M234.74,162.04l5.23,121.5,151.68,1.83-6.81-121.72-150.1-1.6Z"/>
  <path class="cls-5" d="M383.64,161.17h-150.66v113.77h150.66v-113.77Z"/>
  <path class="cls-2" d="M383.64,274.95v-8.11c0-5.33,0-13.1-.12-23.02,0-19.85-.12-48.23-.22-82.58l.43.43h-150.64l.53-.53v113.77l-.47-.47,108.68.24,30.91.12h11.07-10.81l-30.81.12-108.99.22h-.47v-114.44h151.62v.43c0,34.48-.16,62.87-.22,82.85,0,9.88,0,17.6-.1,22.92v6.08c0,1.48-.39,1.97-.39,1.97Z"/>
  <path class="cls-5" d="M312.23,185.29h-61.09v76.86h61.09v-76.86Z"/>
  <path class="cls-2" d="M312.23,262.11c-.02-.13-.02-.26,0-.39v-5.29c0-3.71,0-9.05-.14-15.78,0-13.53-.12-32.67-.22-55.41l.47.47h-61.06l.51-.51v76.84l-.43-.43,44.23.22,12.41.1h4.44c-.36.03-.72.03-1.07,0h-3.2l-12.31.1-44.5.22h-.43v-76.96l.53-.53h61.53v.47c0,22.86-.18,42.1-.24,55.71,0,6.67,0,11.97-.12,15.66v5.09c-.11.15-.24.29-.38.41Z"/>
  <path class="cls-5" d="M370.56,167.68h-117.06v11.07h117.06v-11.07Z"/>
  <path class="cls-2" d="M370.54,178.78v-2.92c0-2.03,0-4.64-.12-8.11l.2.22c-19.73.18-64.74.3-117.04.3l.51-.51v11.05l-.51-.53,82.97.22,24.9.16h8.54c.21-.03.42-.03.63,0h-8.92l-24.78.14-83.33.22h-.53v-11.56c.22-.24-.51.51.53-.53,52.3,0,97.35.12,117.04.3h.22v.2c0,3.57-.1,6.35-.12,8.29v2.03c0,.34-.05.68-.18.99Z"/>
  <path class="cls-5" d="M370.56,185.29h-50.84v46.32h50.84v-46.32Z"/>
  <path class="cls-2" d="M370.54,231.69c-.02-.3-.02-.59,0-.89v-2.51c0-2.27,0-5.44-.1-9.45,0-8.11-.14-19.65-.22-33.46l.43.43h-50.82l.51-.51v46.28l-.45-.45,36.67.22,10.4.12h2.78c.33-.03.65-.03.98,0-.29.03-.58.03-.87,0h-2.7l-10.3.12-36.95.24h-.47v-46.42l.53-.53h51.27v.45c0,13.93-.16,25.53-.22,33.75,0,3.95,0,7.1-.12,9.35v2.43c-.07.29-.18.57-.32.83Z"/>
  <path class="cls-5" d="M370.56,238.87h-50.84v23.28h50.84v-23.28Z"/>
  <path class="cls-2" d="M370.54,262.11v-6.37c0-4.06-.12-9.86-.2-16.91l.37.39-50.82.14c-.47.47.63-.63.51-.53v23.24l-.49-.49,36.34.22,10.59.14h3.89c-.3.03-.61.03-.91,0h-2.76l-10.49.14-36.67.22h-.51v-23.44l.53-.51,50.82.14h.38v.37c0,7.16-.16,12.98-.2,17.16,0,1.91,0,3.43-.1,4.58-.04.51-.14,1.01-.28,1.5Z"/>
  <path class="cls-11" d="M310.71,185.41c-18.9,26.12-40.56,50.7-59.56,76.74l59.56-76.74Z"/>
  <path class="cls-2" d="M251.15,262.11c.13-.31.3-.59.51-.85.43-.65.95-1.42,1.6-2.35,1.38-2.03,3.49-4.91,6.08-8.44,5.25-7.06,12.76-16.61,21.17-27.05,8.41-10.44,16-19.92,21.39-26.85l6.37-8.23,1.74-2.21c.2-.27.42-.52.67-.75,0,0-.14.32-.49.87-.34.55-.95,1.4-1.6,2.33-1.4,2.03-3.49,4.91-6.08,8.44-5.25,7.06-12.78,16.61-21.17,27.05-8.4,10.44-16,19.92-21.4,26.85l-6.37,8.23-1.76,2.23c-.41.49-.63.73-.67.73Z"/>
  <path class="cls-2" d="M312.23,262.11c-.22.18-14.08-16.89-30.95-38.11-16.87-21.21-30.42-38.53-30.14-38.76.28-.22,14.08,16.87,30.95,38.11,16.87,21.23,30.36,38.61,30.14,38.76Z"/>
  <path class="cls-2" d="M239.97,185.45c0,1.89-.55,3.75-1.6,5.33-1.05,1.58-2.55,2.81-4.29,3.53-1.75.73-3.68.92-5.54.55-1.86-.37-3.57-1.28-4.91-2.62-1.34-1.34-2.25-3.05-2.62-4.91-.37-1.86-.18-3.79.55-5.54.73-1.75,1.96-3.24,3.53-4.29,1.58-1.05,3.43-1.61,5.33-1.6,2.53,0,4.96,1.01,6.75,2.8,1.79,1.79,2.8,4.22,2.8,6.75Z"/>
  <path class="cls-2" d="M396.24,162.25c0,1.89-.56,3.74-1.61,5.31-1.05,1.57-2.54,2.8-4.29,3.52-1.75.72-3.67.91-5.52.54-1.85-.37-3.56-1.28-4.89-2.61-1.33-1.34-2.25-3.04-2.61-4.89-.37-1.85-.18-3.77.54-5.52.72-1.75,1.95-3.24,3.52-4.29,1.57-1.05,3.42-1.61,5.31-1.61,2.53,0,4.96,1.01,6.76,2.8,1.79,1.79,2.8,4.22,2.8,6.75Z"/>
  <path class="cls-10" d="M579.79,99.18l.37,6.73c.69-.61,1.52-1.04,2.41-1.27.89-.23,1.82-.24,2.72-.03.9.21,1.73.62,2.43,1.21.7.59,1.26,1.34,1.61,2.19.36.85.51,1.77.44,2.68-.07.92-.35,1.8-.83,2.59-.48.78-1.14,1.44-1.92,1.93-.78.48-1.67.77-2.58.84-1.37.06-2.72-.36-3.81-1.2l.37,6.75c.99-.96,2.29-1.53,3.67-1.6,1.54-.08,3.06.46,4.2,1.49,1.15,1.03,1.84,2.48,1.92,4.03.08,1.54-.45,3.06-1.49,4.2-1.03,1.15-2.48,1.84-4.03,1.92-1.37.07-2.73-.35-3.81-1.2l.37,6.75c.99-.96,2.29-1.52,3.67-1.6.94-.06,1.88.12,2.74.5.86.39,1.61.97,2.2,1.72.58.74.98,1.61,1.15,2.54.17.93.12,1.88-.16,2.78-.28.9-.77,1.72-1.43,2.39-.66.67-1.48,1.17-2.37,1.46-.9.29-1.85.35-2.78.19-.93-.16-1.8-.55-2.55-1.12l.36,6.73c.69-.62,1.52-1.06,2.41-1.3.9-.23,1.84-.25,2.74-.05.9.2,1.75.62,2.46,1.21.71.59,1.27,1.35,1.63,2.2.36.85.51,1.78.44,2.7-.07.92-.36,1.82-.84,2.61-.48.79-1.15,1.45-1.94,1.93-.79.48-1.69.77-2.61.83-1.37.08-2.73-.35-3.81-1.2l.34,6.75c.69-.62,1.52-1.06,2.41-1.3s1.84-.25,2.74-.05c.9.2,1.75.62,2.46,1.21.71.59,1.27,1.35,1.63,2.2.36.85.51,1.78.44,2.7-.07.92-.36,1.82-.84,2.61-.48.79-1.15,1.45-1.94,1.93-.79.48-1.69.77-2.61.83-1.37.07-2.72-.36-3.81-1.2l.36,6.73c.81-.77,1.82-1.29,2.92-1.5,1.1-.21,2.23-.1,3.27.31,1.04.41,1.94,1.11,2.59,2.02.65.91,1.03,1.98,1.09,3.1.06,1.11-.2,2.22-.76,3.19-.55.97-1.37,1.76-2.36,2.28-.99.52-2.11.75-3.22.65-1.11-.1-2.17-.51-3.06-1.19l.22,4.2,179.75-4.32-9.11-104.69-175.87,10.95Z"/>
  <path class="cls-5" d="M575.82,94.88l.37,6.71c.81-.77,1.82-1.29,2.92-1.5,1.1-.21,2.23-.1,3.27.31,1.04.41,1.93,1.11,2.58,2.02.65.91,1.03,1.98,1.09,3.1.06,1.12-.2,2.22-.76,3.19-.55.97-1.37,1.76-2.36,2.28-.99.52-2.1.74-3.22.65-1.11-.1-2.17-.51-3.06-1.19l.36,6.75c.69-.61,1.52-1.04,2.41-1.27.89-.23,1.82-.24,2.72-.03.9.21,1.73.62,2.43,1.21.7.59,1.26,1.34,1.61,2.19.36.85.51,1.77.44,2.68-.07.92-.35,1.8-.83,2.59-.48.79-1.13,1.45-1.92,1.93-.78.48-1.67.77-2.58.84-1.37.06-2.72-.36-3.81-1.2l.36,6.73c.8-.76,1.81-1.28,2.9-1.49,1.09-.21,2.21-.1,3.24.32,1.03.41,1.92,1.12,2.56,2.02.64.9,1.01,1.98,1.06,3.08.08,1.53-.45,3.03-1.48,4.17-1.02,1.14-2.45,1.83-3.98,1.92-1.38.08-2.74-.35-3.83-1.2l.37,6.75c.99-.96,2.3-1.52,3.67-1.6.94-.06,1.89.11,2.75.5.86.39,1.62.98,2.2,1.72.58.74.98,1.62,1.15,2.55.17.93.11,1.89-.17,2.79-.28.9-.78,1.72-1.45,2.39-.67.67-1.49,1.17-2.39,1.45-.9.28-1.86.34-2.79.17-.93-.17-1.81-.57-2.55-1.15l.34,6.73c.69-.62,1.52-1.06,2.41-1.3.9-.23,1.84-.25,2.74-.05.9.2,1.75.62,2.46,1.21.71.59,1.27,1.35,1.63,2.2s.51,1.78.44,2.7c-.07.92-.36,1.82-.84,2.61-.48.79-1.15,1.45-1.94,1.93-.79.48-1.69.77-2.61.83-1.37.08-2.73-.35-3.81-1.2l.36,6.75c.98-.96,2.28-1.53,3.65-1.6.94-.06,1.88.11,2.75.49.86.38,1.62.97,2.2,1.71s.98,1.61,1.16,2.54c.17.93.12,1.88-.15,2.79-.27.9-.76,1.73-1.43,2.4-.66.67-1.48,1.17-2.38,1.46-.9.29-1.85.36-2.78.19-.93-.16-1.81-.55-2.55-1.12l.22,4.18,179.76-9.73-5.21-97.75-179.73,9.61Z"/>
  <path class="cls-2" d="M756.56,104.61c0,.28-40.22,2.68-89.82,5.33-49.6,2.66-89.86,4.56-89.88,4.28-.02-.28,40.2-2.68,89.82-5.33,49.63-2.66,89.86-4.58,89.88-4.28Z"/>
  <path class="cls-2" d="M757.39,120.25c0,.3-40.2,2.68-89.82,5.33-49.63,2.66-89.86,4.58-89.88,4.28-.02-.3,40.2-2.68,89.82-5.33,49.63-2.66,89.86-4.56,89.88-4.28Z"/>
  <path class="cls-2" d="M758.22,135.9c0,.28-40.2,2.68-89.8,5.33-49.6,2.66-89.88,4.56-89.88,4.28s40.17-2.68,89.82-5.33c49.65-2.66,89.84-4.56,89.86-4.28Z"/>
  <path class="cls-2" d="M759.05,151.54c0,.3-40.2,2.7-89.8,5.33-49.61,2.64-89.86,4.58-89.88,4.28-.02-.3,40.3-2.68,89.82-5.33,49.52-2.66,89.86-4.56,89.86-4.28Z"/>
  <path class="cls-2" d="M759.9,167.19c0,.28-40.21,2.68-89.82,5.33-49.61,2.66-89.86,4.56-89.88,4.28-.02-.28,40.2-2.68,89.82-5.33,49.63-2.66,89.86-4.56,89.88-4.28Z"/>
  <path class="cls-2" d="M601.31,93.53l-1.01.05,5.23,97.8,1.01-.05-5.23-97.79Z"/>
  <path class="cls-2" d="M622.32,190.46c-.3,0-1.7-21.86-3.14-48.86-1.44-26.99-2.39-48.92-2.03-48.94.37-.02,1.68,21.86,3.14,48.88,1.46,27.01,2.31,48.9,2.03,48.92Z"/>
  <path class="cls-2" d="M590.32,192.18c-.28,0-1.7-21.88-3.14-48.88-1.44-26.99-2.37-48.92-2.03-48.94.34-.02,1.7,21.86,3.14,48.88,1.44,27.01,2.33,48.92,2.03,48.94Z"/>
  <path class="cls-2" d="M639.94,189.52c-.3,0-1.7-21.86-3.14-48.88-1.44-27.01-2.49-48.9-2.19-48.9s1.68,21.86,3.14,48.86c1.46,26.99,2.37,48.9,2.19,48.92Z"/>
  <path class="cls-2" d="M657.35,188.59c-.28,0-1.68-21.86-3.14-48.88s-2.37-48.92-2.03-48.94c.34-.02,1.7,21.86,3.14,48.88,1.44,27.01,2.33,48.92,2.03,48.94Z"/>
  <path class="cls-2" d="M674.87,187.66c-.28,0-1.68-21.88-3.14-48.88-1.46-26.99-2.37-48.92-2.03-48.94.34-.02,1.7,21.86,3.14,48.88,1.44,27.01,2.33,48.92,2.03,48.94Z"/>
  <path class="cls-2" d="M692.39,186.71c-.28,0-1.7-21.86-3.14-48.86-1.44-26.99-2.37-48.92-2.03-48.94.34-.02,1.7,21.86,3.14,48.88,1.44,27.01,2.31,48.92,2.03,48.92Z"/>
  <path class="cls-2" d="M709.91,185.77c-.28,0-1.7-21.86-3.14-48.88-1.44-27.01-2.37-48.92-2.03-48.92s1.7,21.86,3.14,48.88c1.44,27.01,2.31,48.9,2.03,48.92Z"/>
  <path class="cls-2" d="M727.44,184.84c-.28,0-1.7-21.86-3.14-48.88-1.44-27.01-2.37-48.92-2.03-48.94.34-.02,1.7,21.86,3.14,48.88,1.44,27.01,2.31,48.92,2.03,48.94Z"/>
  <path class="cls-2" d="M744.96,183.91c-.3,0-1.7-21.88-3.14-48.88-1.44-26.99-2.39-48.92-2.03-48.94.36-.02,1.56,21.88,3.08,48.88,1.52,26.99,2.37,48.92,2.09,48.94Z"/>
  <path class="cls-8" d="M595.94,105.14c.54,3.99,2.59,7.62,5.74,10.14,1.4.94,3.01,1.52,4.68,1.69,1.68.17,3.37-.08,4.93-.71,1.56-.64,2.94-1.65,4.01-2.95,1.07-1.3,1.81-2.84,2.15-4.49.34-1.65.26-3.36-.22-4.98-.48-1.62-1.35-3.09-2.53-4.29-1.19-1.2-2.65-2.09-4.26-2.59-1.61-.5-3.32-.6-4.97-.28"/>
  <path class="cls-2" d="M595.49,105.1c.1,1.6.66,3.13,1.63,4.4.97,1.27,2.29,2.24,3.79,2.76,1.51.53,3.14.59,4.69.2s2.95-1.25,4.01-2.43c1.07-1.19,1.76-2.67,1.99-4.25.23-1.58,0-3.2-.69-4.64-.69-1.45-1.78-2.66-3.15-3.48-1.37-.82-2.95-1.22-4.55-1.15-1.08.05-2.13.31-3.1.77-.97.46-1.84,1.11-2.56,1.91-.72.8-1.27,1.74-1.63,2.75-.35,1.02-.5,2.09-.44,3.17Z"/>
  <path class="cls-2" d="M590.81,102.07c.05.97.39,1.9.98,2.68.58.78,1.38,1.36,2.3,1.68.92.32,1.91.37,2.85.13.94-.24,1.79-.75,2.43-1.48.65-.72,1.07-1.62,1.21-2.58.14-.96-.01-1.94-.43-2.82-.42-.88-1.09-1.61-1.92-2.1-.83-.5-1.8-.73-2.76-.68-.65.03-1.28.19-1.86.47-.58.28-1.1.67-1.54,1.15-.43.48-.76,1.04-.98,1.65-.22.61-.31,1.25-.27,1.9Z"/>
  <path class="cls-8" d="M595.33,106.62c0-.18.77,0,1.81-.43.65-.22,1.25-.58,1.75-1.06.5-.48.88-1.06,1.13-1.7.22-.67.29-1.37.22-2.07-.07-.7-.29-1.37-.64-1.98-.53-.95-1.11-1.4-1.03-1.54.08-.14.85.12,1.66,1.12.51.67.85,1.46.99,2.3.14.83.07,1.69-.2,2.49-.28.8-.77,1.51-1.41,2.07-.64.56-1.41.94-2.24,1.11-1.28.2-2.03-.2-2.03-.3Z"/>
  <path class="cls-8" d="M599.49,98.81c.14-.26,1.38.18,2.8-.16,1.42-.34,2.35-1.26,2.6-1.07.24.18-.47,1.64-2.35,2.03-1.89.39-3.14-.57-3.04-.79Z"/>
  <path class="cls-8" d="M600.74,111.22c-.28,0-.59-1.56-1.91-2.8-1.32-1.24-2.92-1.44-2.9-1.74.02-.3.43-.28,1.14-.2.94.12,1.81.54,2.49,1.2.69.64,1.15,1.49,1.32,2.41.12.71,0,1.14-.14,1.14Z"/>
  <path class="cls-5" d="M734.07,99.36c.54,3.99,2.6,7.62,5.74,10.14,1.4.96,3.01,1.56,4.69,1.74,1.69.18,3.39-.05,4.96-.69,1.57-.63,2.96-1.65,4.04-2.95,1.08-1.3,1.83-2.85,2.17-4.51.34-1.66.26-3.38-.23-5-.49-1.62-1.37-3.1-2.57-4.3-1.2-1.2-2.67-2.08-4.3-2.57-1.62-.49-3.34-.57-5-.23"/>
  <path class="cls-2" d="M749.85,97.15c.09,1.56-.28,3.12-1.07,4.47-.79,1.35-1.97,2.44-3.38,3.12s-2.99.93-4.55.71c-1.55-.22-3-.89-4.17-1.94-1.17-1.05-2-2.41-2.39-3.93-.39-1.52-.32-3.12.21-4.6.52-1.48,1.47-2.77,2.73-3.7,1.26-.94,2.76-1.48,4.33-1.56,2.08-.11,4.12.61,5.68,2,1.55,1.39,2.49,3.34,2.62,5.42Z"/>
  <path class="cls-2" d="M754.07,93.78c.05.94-.18,1.87-.66,2.68-.48.81-1.19,1.46-2.03,1.86-.85.41-1.8.55-2.72.42-.93-.13-1.8-.54-2.5-1.17-.7-.63-1.2-1.45-1.43-2.36-.23-.91-.19-1.87.12-2.75.31-.89.88-1.66,1.63-2.22.75-.56,1.65-.89,2.59-.94,1.26-.07,2.49.37,3.42,1.21.93.84,1.5,2.02,1.57,3.27Z"/>
  <path class="cls-8" d="M750.13,98.59c0,.1-.61.57-1.87.51-.82-.07-1.61-.34-2.29-.8-.68-.46-1.23-1.08-1.6-1.82-.34-.75-.49-1.56-.44-2.38.05-.82.3-1.61.72-2.31.67-1.05,1.42-1.34,1.48-1.24.06.1-.43.61-.81,1.58-.27.61-.41,1.27-.41,1.94s.14,1.33.41,1.94c.31.59.74,1.1,1.26,1.51.52.41,1.13.69,1.78.84,1.1.22,1.72.06,1.76.22Z"/>
  <path class="cls-8" d="M745.4,91.51c.2.2-.95,1.38-2.84,1.18-1.89-.2-2.74-1.66-2.47-1.81.26-.14,1.2.59,2.59.75,1.4.16,2.54-.37,2.72-.12Z"/>
  <path class="cls-8" d="M745.4,103.58c-.28.1-.69-1.83.75-3.57,1.44-1.74,3.45-1.58,3.41-1.3-.04.28-1.48.67-2.6,2.03-1.11,1.36-1.22,2.84-1.56,2.84Z"/>
  <path class="cls-2" d="M735.95,157.26l-1.08.22c-.71.14-1.76.34-3.12.73-2.76.69-6.63,2.25-11.72,4.06-2.84.99-5.78,1.67-8.76,2.03-3.57.51-7.22-.03-10.49-1.56-1.81-.92-3.41-2.21-4.68-3.79-1.37-1.71-2.19-3.78-2.35-5.96-.28-4.56,2.03-8.94,4.95-12.8,1.48-2,3.13-3.88,4.93-5.6,1.82-1.88,3.93-3.47,6.25-4.71,1.29-.63,2.75-.82,4.16-.53.71.19,1.37.53,1.94.99.57.47,1.04,1.05,1.36,1.71.69,1.31.96,2.79.77,4.26-.19,1.42-.62,2.79-1.28,4.06-2.81,5.46-6.92,10.13-11.98,13.61-5.06,3.48-10.9,5.64-17,6.31-3.26.38-6.56.23-9.78-.45-3.31-.63-6.44-2.02-9.13-4.06-2.74-2.19-4.73-5.17-5.7-8.54-.96-3.39-1.14-6.95-.53-10.42,1.16-7.08,5.23-13.26,9.65-18.84,1.12-1.42,2.27-2.8,3.43-4.2,1.08-1.59,2.6-2.82,4.38-3.55,1.02-.29,2.11-.18,3.04.32.86.51,1.56,1.25,2.03,2.13.87,1.77,1.09,3.78.63,5.7-1.63,7.17-4.61,13.96-8.78,20.02-4.01,5.84-8.47,11.35-13.34,16.49-2.37,2.53-4.65,5.11-7.14,7.48-2.39,2.46-5.32,4.34-8.56,5.5-1.66.5-3.41.61-5.12.31-1.71-.3-3.32-1-4.71-2.03-2.66-2.03-4.75-4.7-6.08-7.77-2.49-5.8-3.6-12.09-3.24-18.39.31-5.92,1.78-11.73,4.34-17.08,2.38-5.01,5.76-9.49,9.94-13.14,1.04-.87,2.22-1.56,3.49-2.03,1.31-.46,2.74-.46,4.06,0,1.21.51,2.26,1.31,3.06,2.35.8,1.03,1.32,2.26,1.5,3.55.33,2.38.21,4.8-.36,7.14-.44,2.21-1.05,4.38-1.83,6.49-1.41,3.86-3.26,7.55-5.52,10.99-3.64,5.47-7.9,10.51-12.68,15.03-7.85,7.4-12.55,11.05-12.55,11.05,0,0,.24-.26.79-.75l2.39-2.17c2.03-1.89,5.25-4.66,9.09-8.44,4.7-4.54,8.88-9.58,12.45-15.05,2.21-3.42,4.02-7.08,5.39-10.91.76-2.08,1.35-4.22,1.76-6.39.53-2.25.64-4.57.33-6.85-.17-1.16-.63-2.25-1.34-3.18s-1.65-1.66-2.72-2.13c-1.2-.27-2.45-.22-3.62.13-1.18.36-2.24,1.01-3.09,1.89-4.06,3.59-7.34,7.96-9.65,12.86-2.53,5.22-3.99,10.88-4.32,16.67-.34,6.15.76,12.3,3.2,17.95,1.25,2.89,3.2,5.43,5.68,7.38,1.27.94,2.74,1.56,4.3,1.83,1.55.27,3.15.17,4.66-.29,3.11-1.13,5.92-2.95,8.21-5.33,2.42-2.33,4.71-4.93,7.06-7.44,4.83-5.11,9.25-10.58,13.24-16.37,4.12-5.93,7.06-12.6,8.68-19.63.42-1.67.25-3.43-.49-4.99-.33-.74-.9-1.35-1.62-1.71s-1.54-.48-2.34-.31c-1.57.68-2.91,1.8-3.85,3.22-1.15,1.38-2.31,2.76-3.41,4.06-4.4,5.54-8.36,11.58-9.47,18.35-.58,3.32-.42,6.73.49,9.98.9,3.2,2.77,6.03,5.35,8.11,5.29,3.77,11.82,5.36,18.25,4.44,5.94-.65,11.64-2.75,16.57-6.12,4.94-3.38,8.96-7.92,11.72-13.22.7-1.13,1.11-2.41,1.21-3.73.1-1.32-.13-2.65-.66-3.87-.27-.56-.66-1.05-1.13-1.45-.47-.4-1.03-.69-1.63-.86-1.23-.24-2.51-.07-3.63.49-2.25,1.19-4.3,2.71-6.09,4.52-1.76,1.69-3.39,3.52-4.85,5.48-2.84,3.77-5.13,8.11-4.89,12.29.21,1.99.93,3.89,2.09,5.52,1.16,1.63,2.73,2.93,4.54,3.77,3.14,1.53,6.67,2.11,10.14,1.68,2.96-.36,5.87-1.04,8.68-2.03,5.09-1.72,9.03-3.22,11.81-3.85,1.41-.33,2.85-.54,4.3-.61Z"/>
  <path class="cls-4" d="M871.55,469.78H96.55v45.06h775v-45.06Z"/>
  <path class="cls-9" d="M96.55,454.17h-28.41v75h28.41v-75Z"/>
  <path class="cls-4" d="M96.55,512.47c-4.65.53-9.34.71-14.01.53-4.68.18-9.36,0-14.01-.53,4.65-.52,9.34-.7,14.01-.53,4.68-.17,9.36,0,14.01.53Z"/>
  <path class="cls-4" d="M96.55,504.36c-4.65.53-9.34.71-14.01.53-4.68.18-9.36,0-14.01-.53,4.65-.52,9.34-.7,14.01-.53,4.68-.17,9.36,0,14.01.53Z"/>
  <path class="cls-4" d="M96.55,496.25c-4.65.53-9.34.71-14.01.53-4.68.18-9.36,0-14.01-.53,4.65-.52,9.34-.7,14.01-.53,4.68-.17,9.36,0,14.01.53Z"/>
  <path class="cls-4" d="M96.55,488.14c-4.65.52-9.34.7-14.01.53-4.68.17-9.36,0-14.01-.53,4.65-.52,9.34-.7,14.01-.53,4.68-.17,9.36,0,14.01.53Z"/>
  <path class="cls-4" d="M96.55,480.02c-4.65.52-9.34.7-14.01.53-4.68.17-9.36,0-14.01-.53,4.65-.52,9.34-.7,14.01-.53,4.68-.17,9.36,0,14.01.53Z"/>
  <path class="cls-4" d="M96.55,471.91c-4.65.52-9.34.7-14.01.53-4.68.17-9.36,0-14.01-.53,4.65-.53,9.34-.71,14.01-.53,4.68-.18,9.36,0,14.01.53Z"/>
  <path class="cls-4" d="M96.55,463.8c-4.65.52-9.34.7-14.01.53-4.68.17-9.36,0-14.01-.53,4.65-.53,9.34-.71,14.01-.53,4.68-.18,9.36,0,14.01.53Z"/>
  <path class="cls-4" d="M96.55,520.95c-4.65.52-9.34.7-14.01.53-4.68.17-9.36,0-14.01-.53,4.65-.54,9.34-.71,14.01-.53,4.68-.18,9.36,0,14.01.53Z"/>
  <path class="cls-9" d="M893.92,454.17h-28.41v75h28.41v-75Z"/>
  <path class="cls-4" d="M893.92,512.47c-9.33.7-18.7.7-28.03,0,9.33-.7,18.7-.7,28.03,0Z"/>
  <path class="cls-4" d="M893.92,504.36c-9.33.7-18.7.7-28.03,0,9.33-.7,18.7-.7,28.03,0Z"/>
  <path class="cls-4" d="M893.92,496.25c-9.33.7-18.7.7-28.03,0,9.33-.7,18.7-.7,28.03,0Z"/>
  <path class="cls-4" d="M893.92,488.14c-9.33.7-18.7.7-28.03,0,9.33-.7,18.7-.7,28.03,0Z"/>
  <path class="cls-4" d="M893.92,480.02c-9.33.7-18.7.7-28.03,0,9.33-.7,18.7-.7,28.03,0Z"/>
  <path class="cls-4" d="M893.92,471.91c-9.33.7-18.7.7-28.03,0,9.33-.7,18.7-.7,28.03,0Z"/>
  <path class="cls-4" d="M893.92,463.8c-9.33.7-18.7.7-28.03,0,9.33-.7,18.7-.7,28.03,0Z"/>
  <path class="cls-4" d="M893.92,520.95c-9.33.7-18.7.7-28.03,0,9.33-.7,18.7-.7,28.03,0Z"/>
  <path class="cls-2" d="M802.94,423.72H159.1v17.6h643.85v-17.6Z"/>
  <path class="cls-11" d="M736.7,228.16H225.33v311.37h511.37V228.16Z"/>
  <path class="cls-9" d="M736.7,539.53c0-3.33-.14-120.77-.4-311.37l.4.41-511.33.12.53-.53v311.37l-.51-.49,511.37.49-511.43.43h-.49V227.63h.57l511.33.12h.43v.41c-.31,190.6-.45,308.04-.47,311.37Z"/>
  <path class="cls-9" d="M145.81,476.62v-33.79h65.24v16.89h197.82c2.23,0,4.43.44,6.48,1.3,2.06.85,3.92,2.1,5.5,3.68,1.57,1.58,2.82,3.45,3.67,5.51.85,2.06,1.29,4.26,1.28,6.49v42.59h37.38v-42.59c0-3.5,1.39-6.86,3.87-9.34,2.47-2.48,5.83-3.87,9.34-3.88,1.74,0,3.45.35,5.05,1.01,1.6.67,3.05,1.64,4.28,2.87,1.22,1.23,2.2,2.69,2.86,4.29.66,1.6,1,3.32,1,5.05v44.62h38.84v-42.47c0-2.8.55-5.57,1.61-8.15,1.07-2.58,2.64-4.93,4.61-6.91,1.98-1.98,4.32-3.55,6.9-4.62,2.58-1.07,5.35-1.63,8.15-1.63h192.02v-19.11h73.29v106.47H145.73l.08-68.28Z"/>
  <path class="cls-6" d="M113.38,879.77l.85,49.34h732.45l1.24-49.34-31.72-208.75-1.12-162.91-670.15-1.99v172.38l-31.56,201.26Z"/>
  <g class="cls-14">
    <path class="cls-1" d="M175.36,685.42l-21.29,163.78h642.18l-18.96-163.78H175.36Z"/>
  </g>
  <path class="cls-2" d="M820.06,603.17H136.58c-4.5,0-8.15,3.65-8.15,8.15v.81c0,4.5,3.65,8.15,8.15,8.15h683.47c4.5,0,8.15-3.65,8.15-8.15v-.81c0-4.5-3.65-8.15-8.15-8.15Z"/>
  <path class="cls-2" d="M615.2,740.08h-7.28v109.13h7.28v-109.13Z"/>
  <path class="cls-9" d="M631.83,741.32c-6.17,3.45-13.13,5.26-20.2,5.26s-14.03-1.81-20.2-5.26v-16.04h40.4v16.04Z"/>
  <path class="cls-4" d="M632.3,726.35c0,3.53-9.29,6.41-20.75,6.41s-20.75-2.88-20.75-6.41,9.29-6.39,20.75-6.39,20.75,2.86,20.75,6.39Z"/>
  <path class="cls-2" d="M212.74,706.51h-7.28v142.15h7.28v-142.15Z"/>
  <path class="cls-9" d="M229.31,707.75c-6.17,3.45-13.13,5.26-20.2,5.26s-14.03-1.81-20.2-5.26v-16.04h40.4v16.04Z"/>
  <path class="cls-4" d="M229.85,692.79c0,3.53-9.29,6.41-20.75,6.41s-20.75-2.88-20.75-6.41,9.29-6.39,20.75-6.39,20.75,2.86,20.75,6.39Z"/>
  <path class="cls-2" d="M239.99,741.03h-7.28v109.13h7.28v-109.13Z"/>
  <path class="cls-9" d="M256.64,742.29c-6.17,3.45-13.13,5.26-20.2,5.26s-14.03-1.81-20.2-5.26v-16.04h40.4v16.04Z"/>
  <path class="cls-4" d="M236.36,733.71c11.46,0,20.75-2.86,20.75-6.39s-9.29-6.39-20.75-6.39-20.75,2.86-20.75,6.39,9.29,6.39,20.75,6.39Z"/>
  <path class="cls-9" d="M229.31,774.34c-6.18,3.44-13.13,5.25-20.2,5.25s-14.02-1.81-20.2-5.25v-16.04h40.4v16.04Z"/>
  <path class="cls-4" d="M229.85,759.37c0,3.53-9.29,6.39-20.75,6.39s-20.75-2.86-20.75-6.39,9.29-6.47,20.75-6.47,20.75,2.92,20.75,6.47Z"/>
  <path class="cls-2" d="M291.99,741.03h-7.28v109.13h7.28v-109.13Z"/>
  <path class="cls-9" d="M308.54,742.29c-6.17,3.45-13.12,5.26-20.19,5.26s-14.02-1.81-20.19-5.26v-16.04h40.38v16.04Z"/>
  <path class="cls-4" d="M288.34,733.71c11.46,0,20.75-2.86,20.75-6.39s-9.29-6.39-20.75-6.39-20.75,2.86-20.75,6.39,9.29,6.39,20.75,6.39Z"/>
  <path class="cls-2" d="M346.45,741.03h-7.28v109.13h7.28v-109.13Z"/>
  <path class="cls-9" d="M363,742.29c-6.17,3.45-13.13,5.26-20.2,5.26s-14.03-1.81-20.2-5.26v-16.04h40.4v16.04Z"/>
  <path class="cls-4" d="M342.8,733.71c11.46,0,20.75-2.86,20.75-6.39s-9.29-6.39-20.75-6.39-20.75,2.86-20.75,6.39,9.29,6.39,20.75,6.39Z"/>
  <path class="cls-2" d="M400.11,741.03h-7.28v109.13h7.28v-109.13Z"/>
  <path class="cls-9" d="M416.66,742.29c-6.17,3.45-13.12,5.26-20.19,5.26s-14.02-1.81-20.19-5.26v-16.04h40.38v16.04Z"/>
  <path class="cls-4" d="M396.48,733.71c11.46,0,20.75-2.86,20.75-6.39s-9.29-6.39-20.75-6.39-20.75,2.86-20.75,6.39,9.29,6.39,20.75,6.39Z"/>
  <path class="cls-2" d="M453.16,741.03h-7.28v109.13h7.28v-109.13Z"/>
  <path class="cls-9" d="M469.71,742.29c-6.17,3.45-13.12,5.26-20.19,5.26s-14.02-1.81-20.19-5.26v-16.04h40.38v16.04Z"/>
  <path class="cls-4" d="M449.51,733.71c11.46,0,20.75-2.86,20.75-6.39s-9.29-6.39-20.75-6.39-20.75,2.86-20.75,6.39,9.29,6.39,20.75,6.39Z"/>
  <path class="cls-2" d="M507.07,741.03h-7.28v109.13h7.28v-109.13Z"/>
  <path class="cls-9" d="M523.62,742.29c-6.17,3.45-13.12,5.26-20.19,5.26s-14.02-1.81-20.19-5.26v-16.04h40.38v16.04Z"/>
  <path class="cls-4" d="M503.44,733.71c11.46,0,20.75-2.86,20.75-6.39s-9.29-6.39-20.75-6.39-20.75,2.86-20.75,6.39,9.29,6.39,20.75,6.39Z"/>
  <path class="cls-2" d="M561.28,741.03h-7.28v109.13h7.28v-109.13Z"/>
  <path class="cls-9" d="M577.85,742.29c-6.17,3.45-13.13,5.26-20.2,5.26s-14.03-1.81-20.2-5.26v-16.04h40.4v16.04Z"/>
  <path class="cls-4" d="M557.65,733.71c11.46,0,20.75-2.86,20.75-6.39s-9.29-6.39-20.75-6.39-20.75,2.86-20.75,6.39,9.29,6.39,20.75,6.39Z"/>
  <path class="cls-2" d="M669.72,741.03h-7.28v109.13h7.28v-109.13Z"/>
  <path class="cls-9" d="M686.27,742.29c-6.17,3.45-13.12,5.26-20.19,5.26s-14.02-1.81-20.19-5.26v-16.04h40.38v16.04Z"/>
  <path class="cls-4" d="M666.07,733.71c11.46,0,20.75-2.86,20.75-6.39s-9.29-6.39-20.75-6.39-20.75,2.86-20.75,6.39,9.29,6.39,20.75,6.39Z"/>
  <path class="cls-2" d="M724.54,741.03h-7.28v109.13h7.28v-109.13Z"/>
  <path class="cls-9" d="M741.08,742.29c-6.17,3.45-13.12,5.26-20.19,5.26s-14.02-1.81-20.19-5.26v-16.04h40.38v16.04Z"/>
  <path class="cls-4" d="M720.89,733.71c11.46,0,20.75-2.86,20.75-6.39s-9.29-6.39-20.75-6.39-20.75,2.86-20.75,6.39,9.29,6.39,20.75,6.39Z"/>
  <path class="cls-2" d="M266.48,706.51h-7.28v142.15h7.28v-142.15Z"/>
  <path class="cls-9" d="M283.01,707.75c-6.17,3.45-13.12,5.26-20.19,5.26s-14.02-1.81-20.19-5.26v-16.04h40.38v16.04Z"/>
  <path class="cls-4" d="M283.6,692.79c0,3.53-9.29,6.41-20.75,6.41s-20.75-2.88-20.75-6.41,9.29-6.39,20.75-6.39,20.75,2.86,20.75,6.39Z"/>
  <path class="cls-2" d="M320.22,706.51h-7.28v142.15h7.28v-142.15Z"/>
  <path class="cls-9" d="M336.77,707.75c-6.17,3.45-13.12,5.26-20.19,5.26s-14.02-1.81-20.19-5.26v-16.04h40.38v16.04Z"/>
  <path class="cls-4" d="M337.32,692.79c0,3.53-9.29,6.41-20.75,6.41s-20.75-2.88-20.75-6.41,9.29-6.39,20.75-6.39,20.75,2.86,20.75,6.39Z"/>
  <path class="cls-2" d="M373.97,706.51h-7.28v142.15h7.28v-142.15Z"/>
  <path class="cls-9" d="M390.5,707.75c-6.17,3.45-13.12,5.26-20.19,5.26s-14.02-1.81-20.19-5.26v-16.04h40.38v16.04Z"/>
  <path class="cls-4" d="M391.06,692.79c0,3.53-9.29,6.41-20.75,6.41s-20.75-2.88-20.75-6.41,9.29-6.39,20.75-6.39,20.75,2.86,20.75,6.39Z"/>
  <path class="cls-2" d="M427.71,706.51h-7.28v142.15h7.28v-142.15Z"/>
  <path class="cls-9" d="M444.26,707.75c-6.17,3.45-13.13,5.26-20.2,5.26s-14.03-1.81-20.2-5.26v-16.04h40.4v16.04Z"/>
  <path class="cls-4" d="M444.81,692.79c0,3.53-9.29,6.41-20.75,6.41s-20.75-2.88-20.75-6.41,9.29-6.39,20.75-6.39,20.75,2.86,20.75,6.39Z"/>
  <path class="cls-2" d="M481.43,706.51h-7.28v142.15h7.28v-142.15Z"/>
  <path class="cls-9" d="M497.98,707.75c-6.17,3.45-13.13,5.26-20.2,5.26s-14.03-1.81-20.2-5.26v-16.04h40.4v16.04Z"/>
  <path class="cls-4" d="M498.55,692.79c0,3.53-9.29,6.41-20.75,6.41s-20.75-2.88-20.75-6.41,9.29-6.39,20.75-6.39,20.75,2.86,20.75,6.39Z"/>
  <path class="cls-2" d="M535.18,706.51h-7.28v142.15h7.28v-142.15Z"/>
  <path class="cls-9" d="M551.73,707.75c-6.17,3.45-13.12,5.26-20.19,5.26s-14.02-1.81-20.19-5.26v-16.04h40.38v16.04Z"/>
  <path class="cls-4" d="M552.29,692.79c0,3.53-9.29,6.41-20.75,6.41s-20.75-2.88-20.75-6.41,9.29-6.39,20.75-6.39,20.75,2.86,20.75,6.39Z"/>
  <path class="cls-2" d="M588.92,706.51h-7.28v142.15h7.28v-142.15Z"/>
  <path class="cls-9" d="M605.47,707.75c-6.17,3.45-13.12,5.26-20.19,5.26s-14.02-1.81-20.19-5.26v-16.04h40.38v16.04Z"/>
  <path class="cls-4" d="M606.02,692.79c0,3.53-9.29,6.41-20.75,6.41s-20.75-2.88-20.75-6.41,9.29-6.39,20.75-6.39,20.75,2.86,20.75,6.39Z"/>
  <path class="cls-2" d="M642.66,706.51h-7.28v142.15h7.28v-142.15Z"/>
  <path class="cls-9" d="M659.21,707.75c-6.17,3.45-13.12,5.26-20.19,5.26s-14.02-1.81-20.19-5.26v-16.04h40.38v16.04Z"/>
  <path class="cls-4" d="M659.76,692.79c0,3.53-9.29,6.41-20.75,6.41s-20.75-2.88-20.75-6.41,9.29-6.39,20.75-6.39,20.75,2.86,20.75,6.39Z"/>
  <path class="cls-2" d="M696.41,706.51h-7.28v142.15h7.28v-142.15Z"/>
  <path class="cls-9" d="M712.96,707.75c-6.17,3.45-13.13,5.26-20.2,5.26s-14.03-1.81-20.2-5.26v-16.04h40.4v16.04Z"/>
  <path class="cls-4" d="M713.5,692.79c0,3.53-9.29,6.41-20.75,6.41s-20.75-2.88-20.75-6.41,9.29-6.39,20.75-6.39,20.75,2.86,20.75,6.39Z"/>
  <path class="cls-2" d="M750.13,706.51h-7.28v142.15h7.28v-142.15Z"/>
  <path class="cls-9" d="M766.7,707.75c-6.17,3.45-13.13,5.26-20.2,5.26s-14.03-1.81-20.2-5.26v-16.04h40.4v16.04Z"/>
  <path class="cls-4" d="M767.25,692.79c0,3.53-9.29,6.41-20.75,6.41s-20.75-2.88-20.75-6.41,9.29-6.39,20.75-6.39,20.75,2.86,20.75,6.39Z"/>
  <path class="cls-9" d="M283.27,805.43c-6.17,3.45-13.13,5.26-20.2,5.26s-14.03-1.81-20.2-5.26v-16.02h40.4v16.02Z"/>
  <path class="cls-4" d="M283.82,790.46c0,3.53-9.29,6.39-20.75,6.39s-20.75-2.86-20.75-6.39,9.29-6.41,20.75-6.41,20.75,2.88,20.75,6.41Z"/>
  <path class="cls-9" d="M256,833.09c-6.17,3.45-13.12,5.26-20.19,5.26s-14.02-1.81-20.19-5.26v-16.04h40.38v16.04Z"/>
  <path class="cls-4" d="M235.82,824.51c11.46,0,20.75-2.86,20.75-6.39s-9.29-6.39-20.75-6.39-20.75,2.86-20.75,6.39,9.29,6.39,20.75,6.39Z"/>
  <path class="cls-9" d="M308.7,832.58c-6.18,3.44-13.13,5.25-20.2,5.25s-14.02-1.81-20.2-5.25v-16.06h40.4v16.06Z"/>
  <path class="cls-4" d="M309.25,817.59c0,3.53-9.29,6.41-20.75,6.41s-20.75-2.88-20.75-6.41,9.29-6.39,20.75-6.39,20.75,2.86,20.75,6.39Z"/>
  <path class="cls-9" d="M361.39,806.46c-6.17,3.45-13.12,5.26-20.19,5.26s-14.02-1.81-20.19-5.26v-16.04h40.38v16.04Z"/>
  <path class="cls-4" d="M361.96,791.43c0,3.53-9.29,6.39-20.75,6.39s-20.75-2.86-20.75-6.39,9.29-6.39,20.75-6.39,20.75,2.92,20.75,6.39Z"/>
  <path class="cls-9" d="M416.66,805.95c-6.17,3.44-13.12,5.25-20.19,5.25s-14.02-1.81-20.19-5.25v-16.04h40.38v16.04Z"/>
  <path class="cls-4" d="M417.23,790.97c0,3.55-9.29,6.41-20.75,6.41s-20.75-2.86-20.75-6.41,9.29-6.39,20.75-6.39,20.75,2.8,20.75,6.39Z"/>
  <path class="cls-9" d="M469.71,805.95c-6.17,3.44-13.12,5.25-20.19,5.25s-14.02-1.81-20.19-5.25v-16.04h40.38v16.04Z"/>
  <path class="cls-4" d="M470.26,790.97c0,3.55-9.29,6.41-20.75,6.41s-20.75-2.86-20.75-6.41,9.29-6.39,20.75-6.39,20.75,2.8,20.75,6.39Z"/>
  <path class="cls-9" d="M524.53,805.95c-6.17,3.44-13.12,5.25-20.19,5.25s-14.02-1.81-20.19-5.25v-16.04h40.38v16.04Z"/>
  <path class="cls-4" d="M525.08,790.97c0,3.55-9.29,6.41-20.75,6.41s-20.75-2.86-20.75-6.41,9.29-6.39,20.75-6.39,20.75,2.8,20.75,6.39Z"/>
  <path class="cls-9" d="M578.15,833.09c-6.17,3.45-13.13,5.26-20.2,5.26s-14.03-1.81-20.2-5.26v-16.04h40.4v16.04Z"/>
  <path class="cls-4" d="M557.95,824.51c11.46,0,20.75-2.86,20.75-6.39s-9.29-6.39-20.75-6.39-20.75,2.86-20.75,6.39,9.29,6.39,20.75,6.39Z"/>
  <path class="cls-9" d="M631.83,805.95c-6.18,3.44-13.13,5.25-20.2,5.25s-14.02-1.81-20.2-5.25v-16.04h40.4v16.04Z"/>
  <path class="cls-4" d="M632.3,790.97c0,3.55-9.29,6.41-20.75,6.41s-20.75-2.86-20.75-6.41,9.29-6.39,20.75-6.39,20.75,2.8,20.75,6.39Z"/>
  <path class="cls-9" d="M686.27,826.17c-6.17,3.45-13.12,5.26-20.19,5.26s-14.02-1.81-20.19-5.26v-16.04h40.38v16.04Z"/>
  <path class="cls-4" d="M686.81,811.2c0,3.53-9.29,6.39-20.75,6.39s-20.75-2.86-20.75-6.39,9.29-6.41,20.75-6.41,20.75,2.86,20.75,6.41Z"/>
  <path class="cls-9" d="M744.74,839.49c-6.18,3.44-13.13,5.25-20.2,5.25s-14.02-1.81-20.2-5.25v-16.06h40.4v16.06Z"/>
  <path class="cls-4" d="M745.28,824.51c0,3.53-9.29,6.41-20.75,6.41s-20.75-2.88-20.75-6.41,9.29-6.39,20.75-6.39,20.75,2.86,20.75,6.39Z"/>
  <path class="cls-9" d="M337.24,774.34c-6.17,3.44-13.12,5.25-20.19,5.25s-14.02-1.81-20.19-5.25v-16.04h40.38v16.04Z"/>
  <path class="cls-4" d="M337.77,759.37c0,3.53-9.29,6.39-20.75,6.39s-20.75-2.86-20.75-6.39,9.29-6.41,20.75-6.41,20.75,2.86,20.75,6.41Z"/>
  <path class="cls-9" d="M391.2,774.34c-6.17,3.44-13.12,5.25-20.19,5.25s-14.02-1.81-20.19-5.25v-16.04h40.38v16.04Z"/>
  <path class="cls-4" d="M391.75,759.37c0,3.53-9.29,6.39-20.75,6.39s-20.75-2.86-20.75-6.39,9.29-6.41,20.75-6.41,20.75,2.86,20.75,6.41Z"/>
  <path class="cls-9" d="M444.26,774.34c-6.18,3.44-13.13,5.25-20.2,5.25s-14.02-1.81-20.2-5.25v-16.04h40.4v16.04Z"/>
  <path class="cls-4" d="M444.81,759.37c0,3.53-9.29,6.39-20.75,6.39s-20.75-2.86-20.75-6.39,9.29-6.47,20.75-6.47,20.75,2.92,20.75,6.47Z"/>
  <path class="cls-9" d="M496.05,774.34c-6.17,3.44-13.13,5.25-20.2,5.25s-14.02-1.81-20.2-5.25v-16.04h40.4v16.04Z"/>
  <path class="cls-4" d="M496.6,759.37c0,3.53-9.29,6.39-20.75,6.39s-20.75-2.86-20.75-6.39,9.29-6.41,20.75-6.41,20.75,2.86,20.75,6.41Z"/>
  <path class="cls-9" d="M549.96,774.34c-6.18,3.44-13.13,5.25-20.2,5.25s-14.02-1.81-20.2-5.25v-16.04h40.4v16.04Z"/>
  <path class="cls-4" d="M550.51,759.37c0,3.53-9.29,6.39-20.75,6.39s-20.75-2.86-20.75-6.39,9.25-6.47,20.75-6.47,20.75,2.92,20.75,6.47Z"/>
  <path class="cls-9" d="M604.58,774.34c-6.17,3.44-13.12,5.25-20.19,5.25s-14.02-1.81-20.19-5.25v-16.04h40.38v16.04Z"/>
  <path class="cls-4" d="M605.14,759.37c0,3.53-9.29,6.39-20.75,6.39s-20.75-2.86-20.75-6.39,9.37-6.47,20.75-6.47,20.75,2.92,20.75,6.47Z"/>
  <path class="cls-9" d="M659.64,774.34c-6.17,3.44-13.12,5.25-20.19,5.25s-14.02-1.81-20.19-5.25v-16.04h40.38v16.04Z"/>
  <path class="cls-4" d="M660.23,759.37c0,3.53-9.29,6.39-20.75,6.39s-20.75-2.86-20.75-6.39,9.29-6.41,20.75-6.41,20.75,2.86,20.75,6.41Z"/>
  <path class="cls-9" d="M712.96,793.16c-6.18,3.44-13.13,5.25-20.2,5.25s-14.02-1.81-20.2-5.25v-16.04h40.4v16.04Z"/>
  <path class="cls-4" d="M713.5,778.19c0,3.53-9.29,6.39-20.75,6.39s-20.75-2.86-20.75-6.39,9.29-6.41,20.75-6.41,20.75,2.86,20.75,6.41Z"/>
  <path class="cls-9" d="M766.78,774.34c-6.17,3.44-13.13,5.25-20.2,5.25s-14.02-1.81-20.2-5.25v-16.04h40.4v16.04Z"/>
  <path class="cls-4" d="M767.33,759.37c0,3.53-9.29,6.39-20.75,6.39s-20.75-2.86-20.75-6.39,9.29-6.41,20.75-6.41,20.75,2.86,20.75,6.41Z"/>
  <path class="cls-11" d="M531.42,552.34h-99.88v14.64h99.88v-14.64Z"/>
  <g class="cls-14">
    <path class="cls-1" d="M144.68,620.28l671.3,17.95-.12-17.95H144.68Z"/>
  </g>
  <path class="cls-9" d="M845.31,879.77c0,.28-163.28.53-364.64.53s-364.66-.24-364.66-.53,163.24-.53,364.66-.53,364.64.24,364.64.53Z"/>
  <path class="cls-9" d="M175.36,685.42s0,1.01-.32,2.96c-.32,1.95-.59,4.87-1.05,8.64-.97,7.59-2.37,18.72-4.18,32.96-3.65,28.51-8.92,69.46-15.31,119.27l-.43-.47h238.5l285.45.14,86.52.18h31.64-31.64l-86.52.16-285.49.47-238.5-.1h-.49v-.49c6.55-49.79,11.95-90.72,15.7-119.23,1.89-14.2,3.37-25.35,4.38-32.93.53-3.75.91-6.65,1.2-8.62.28-1.97.55-2.94.55-2.94Z"/>
  <path class="cls-9" d="M551.79,321.73c0,.3-31.98.53-71.45.53s-71.47-.22-71.47-.53,32-.53,71.47-.53,71.45.24,71.45.53Z"/>
  <path class="cls-9" d="M685.13,369.86c0,.28-91.38.53-204.1.53s-204.1-.24-204.1-.53,91.36-.53,204.1-.53,204.1.26,204.1.53Z"/>
  <path class="cls-9" d="M685.13,399.27c0,.3-91.38.53-204.1.53s-204.1-.22-204.1-.53,91.36-.53,204.1-.53,204.1.24,204.1.53Z"/>
  <path class="cls-9" d="M685.13,428.69c0,.3-91.38.53-204.1.53s-204.1-.22-204.1-.53,91.36-.53,204.1-.53,204.1.24,204.1.53Z"/>
  <path class="cls-9" d="M815.07,668.55c0,.28-149.87.53-334.63.53s-334.75-.24-334.75-.53,149.83-.53,334.75-.53,334.63.22,334.63.53Z"/>
  <path class="cls-9" d="M503.76,452.75c0,.28-20.83.53-46.5.53s-46.48-.2-46.48-.53,20.83-.53,46.5-.53,46.48.28,46.48.53Z"/>
  <path class="cls-9" d="M706.49,168.68c-.5-2.23-1.63-4.26-3.26-5.86-1.63-1.6-3.68-2.7-5.91-3.16-4.5-.87-9.15-.4-13.38,1.34-4.88,1.64-9.29,4.42-12.88,8.11-1.78,1.84-3.18,4.02-4.11,6.4-.93,2.38-1.38,4.93-1.32,7.49.24,4.79,2.64,9.57,1.3,14.2-1.35,3.4-3.79,6.25-6.94,8.11-3.12,1.85-5.87,4.26-8.11,7.12-2.03,3.04-2.33,7.56.37,10.02,2.39,2.17,6.69,2.41,7.71,5.5.63,1.91-.43,3.89-1.01,5.8-.53,2.06-.63,4.2-.28,6.3.35,2.1,1.14,4.1,2.31,5.87,2.37,3.55,5.58,6.46,9.35,8.46,6.47,3.67,14.56,5.37,21.4,2.45,3.38-1.51,6.3-3.91,8.44-6.94,3.46-5.11,5.39-11.09,5.58-17.26.18-6.11-.21-12.22-1.18-18.25"/>
  <path class="cls-9" d="M708.9,241.46c-2.83.78-5.81.88-8.69.31-2.88-.58-5.59-1.82-7.9-3.62-2.32-1.81-4.18-4.13-5.44-6.78-1.26-2.65-1.88-5.56-1.82-8.5.12-5.46,2.6-11.01.91-16.22-1.18-3.57-4.16-6.35-5.17-9.96-1.48-5.39,1.76-10.85,4.89-15.51,1.84-3.08,4.12-5.87,6.77-8.29,1.35-1.19,2.94-2.08,4.67-2.59,1.73-.51,3.55-.64,5.33-.37"/>
  <path class="cls-9" d="M759.22,170.44c-.3,4.06,2.41,7.81,5.17,10.89,2.76,3.08,5.78,6.33,6.39,10.4,1.04,7.26-6.08,13.99-4.58,21.17.77,3.83,3.93,6.94,4.48,10.81.11,1.9-.19,3.8-.87,5.58-.68,1.78-1.73,3.39-3.09,4.73-2.49,2.86-5.54,5.25-7.75,8.34,0,0-4.6,7.54-18.76,2.72"/>
  <path class="cls-9" d="M695.86,176.75c-.1-3.73,3.37-6.63,6.83-7.99,3.47-1.36,7.34-1.89,10.44-4.06,2.54-2.14,4.86-4.51,6.94-7.1,2.87-2.91,6.46-5,10.4-6.06,3.95-1.06,8.1-1.05,12.04.02,3.94,1.08,7.52,3.18,10.38,6.1,2.86,2.92,4.89,6.55,5.88,10.51,1.32,5.31.4,11.62-3.77,15.15-4.89,4.06-12.17,3.2-18.25,2.03-6.09-1.18-13.3-2.54-18.52,1.12-3.14,2.21-4.95,5.82-6.87,9.15-1.93,3.33-4.32,6.71-7.97,7.97-3.65,1.26-8.56-.91-8.7-4.75"/>
  <path class="cls-7" d="M710.6,177.52c-1.56.17-2.99.91-4.02,2.09-1.03,1.18-1.59,2.7-1.55,4.26l3.73,84.49c.16,9.98,14.74,15.58,25.43,15.33,10.77-.24,11.13-5.54,11.26-15.03.22-15.86.2-21.82.22-21.72.02.1,13.63-2.29,16.41-20.1,1.38-8.84.91-23.34.14-35.19-.71-10.69-7.81-23.75-18.44-22.61l-33.18,8.48Z"/>
  <path class="cls-9" d="M757.82,203.17c0,.59-.22,1.16-.63,1.59-.41.43-.97.68-1.56.7-.29.03-.58,0-.86-.09s-.53-.23-.75-.42c-.22-.19-.4-.42-.53-.68-.13-.26-.2-.54-.22-.83,0-.59.22-1.17.63-1.6s.97-.69,1.56-.71c.29-.02.58.01.86.1.28.09.53.24.75.43.22.19.4.42.53.68.13.26.2.54.22.83Z"/>
  <path class="cls-9" d="M759.07,198.04c-.28.3-2.03-.97-4.46-.97s-4.26,1.26-4.52.95c-.26-.3.16-.67.95-1.24,1.06-.74,2.32-1.14,3.61-1.14,1.27,0,2.51.4,3.55,1.14.77.59,1.01,1.12.87,1.26Z"/>
  <path class="cls-9" d="M735,203.78c.01.6-.21,1.17-.62,1.6-.41.43-.97.69-1.57.71-.29.02-.58-.01-.85-.1s-.53-.23-.75-.42c-.22-.19-.4-.42-.53-.68-.13-.26-.21-.54-.23-.83,0-.6.21-1.17.62-1.6.41-.43.97-.69,1.57-.71.29-.02.58,0,.85.1.28.09.53.23.75.42.22.19.4.42.53.68.13.26.2.54.22.83Z"/>
  <path class="cls-9" d="M734.96,199.71c-.28.3-2.03-.97-4.48-.97s-4.24,1.26-4.5.95c-.26-.3.14-.67.93-1.24,1.06-.74,2.32-1.14,3.61-1.14,1.28,0,2.53.4,3.57,1.16.75.57,1.01,1.1.87,1.24Z"/>
  <path class="cls-9" d="M743.9,217.9c1.32-.41,2.68-.66,4.06-.73.63,0,1.24-.2,1.34-.63.05-.64-.1-1.29-.43-1.85l-1.87-4.79c-1.73-4.04-3.13-8.21-4.2-12.47,2.05,3.91,3.79,7.98,5.19,12.17l1.78,4.81c.4.75.51,1.62.33,2.45-.09.22-.23.42-.4.58-.18.16-.39.28-.61.35-.35.09-.71.14-1.08.14-1.37.17-2.75.15-4.12-.04Z"/>
  <path class="cls-3" d="M745.67,246.94c-8.37.14-16.62-2.04-23.83-6.31,0,0,6.08,12.17,23.83,10.51v-4.2Z"/>
  <path class="cls-9" d="M736.06,195.41c-.24.67-2.7.37-5.58.71-2.88.34-5.21,1.14-5.6.55-.39-.59.24-.91,1.18-1.56,1.22-.79,2.61-1.29,4.06-1.46,1.47-.19,2.97-.01,4.36.51,1.16.43,1.68,1.03,1.58,1.26Z"/>
  <path class="cls-9" d="M758.16,192.1c-.43.55-2.13,0-4.16,0s-3.75.39-4.16-.2c-.16-.28.1-.85.85-1.38,1.01-.65,2.19-.97,3.39-.91,1.19.02,2.35.41,3.31,1.12.73.53.95,1.1.77,1.38Z"/>
  <path class="cls-9" d="M698.19,236.03c2.46.5,5,.4,7.41-.28,2.41-.68,4.63-1.92,6.46-3.63,1.83-1.71,3.24-3.83,4.09-6.18.85-2.36,1.13-4.88.82-7.37-.55-4.38-2.9-8.82-1.38-12.96,2.03-5.46,9.65-7.14,11.68-12.59,1.2-3.16.12-6.88,1.46-9.98.78-1.39,1.83-2.62,3.09-3.59,1.26-.98,2.7-1.69,4.25-2.1,3.08-.8,6.01-2.07,8.7-3.77,2.52-2.03,4.06-5.64,2.45-8.38-13.28,1.59-26.32,4.76-38.86,9.43-2.98.84-5.62,2.58-7.58,4.97-1.83,2.74-1.72,6.27-1.58,9.53.76,15.98,1.5,31.96,2.23,47.92"/>
  <path class="cls-4" d="M688.78,178.25c-.16.2-.26.45-.28.71-.05.39,0,.78.11,1.15.12.37.32.71.58,1,.39.47.88.86,1.43,1.13.55.28,1.15.44,1.76.47,1.58-.1,3.12-.55,4.5-1.34,1.6-.89,3.37-1.41,5.19-1.54,2.1-.05,4.21.14,6.27.57,2.34.5,4.71.81,7.1.91,1.33.06,2.66-.15,3.92-.6,1.25-.46,2.4-1.15,3.39-2.06,1.78-1.89,3.19-4.09,4.18-6.49.91-2.15,2.05-4.19,3.41-6.08,1.16-1.56,2.75-2.74,4.57-3.41,1.82-.67,3.8-.79,5.69-.34,2.57.68,4.79,2.32,6.19,4.58.99,1.6,1.22,2.66,1.32,2.64-.01-.26-.06-.52-.14-.77-.21-.71-.5-1.39-.87-2.03-1.11-2.1-2.92-3.75-5.13-4.65-2.2-.9-4.65-1-6.92-.28-2.14.66-4.02,1.97-5.38,3.75-1.4,1.94-2.59,4.03-3.55,6.23-.96,2.3-2.34,4.41-4.06,6.23-1.82,1.65-4.22,2.52-6.67,2.43-2.34-.09-4.67-.38-6.96-.85-2.13-.42-4.3-.59-6.47-.51-1.91.17-3.76.76-5.41,1.72-1.29.77-2.73,1.26-4.22,1.42-.55-.01-1.1-.14-1.6-.37-.5-.23-.95-.56-1.32-.97-.26-.25-.46-.56-.59-.89-.13-.34-.19-.7-.18-1.06,0-.47.22-.71.16-.71Z"/>
  <path class="cls-6" d="M686.79,179.93c2.39-2.91,5.23-5.42,8.41-7.42,3.35-1.73,6.95-2.93,10.67-3.53-1.12-.23-2.27-.23-3.39,0-2.75.41-5.39,1.34-7.79,2.74-2.35,1.37-4.41,3.17-6.08,5.31-.81.83-1.43,1.81-1.82,2.9Z"/>
  <path class="cls-4" d="M706.75,168.07c.06.18.14.35.24.51.32.46.71.87,1.16,1.22.84.6,1.8,1.02,2.81,1.25,1.01.23,2.05.25,3.07.07,2.98-.7,5.67-2.31,7.71-4.6,2.31-2.75,4.97-5.17,7.91-7.22,3.1-1.69,6.72-2.16,10.14-1.3,2.81.73,5.31,2.35,7.12,4.62,1.25,1.52,2.17,3.28,2.72,5.17.39,1.34.47,2.13.55,2.03.04-.19.04-.38,0-.57-.02-.55-.1-1.09-.22-1.62-.43-1.97-1.29-3.82-2.52-5.41-1.85-2.45-4.46-4.22-7.42-5.03-3.65-.99-7.54-.51-10.85,1.32-3.04,2.08-5.77,4.58-8.11,7.42-1.89,2.21-4.4,3.79-7.2,4.54-1.91.41-3.91.07-5.58-.95-.55-.43-1.06-.92-1.52-1.44Z"/>
  <path class="cls-4" d="M707.56,243.65s-.27.12-.79.22c-.77.15-1.55.23-2.33.24-2.92.05-5.8-.61-8.41-1.91-3.92-1.93-7.08-5.12-8.96-9.07-2.35-4.81-2.89-10.31-1.52-15.49.76-2.54,1.29-5.15,1.58-7.79.1-2.43-.52-4.83-1.76-6.92-1.2-1.96-2.13-4.08-2.76-6.29-.48-1.99-.54-4.06-.18-6.08.49-2.89,1.76-5.58,3.69-7.79.51-.6,1.08-1.14,1.7-1.62.2-.19.44-.34.69-.45,0,0-.85.75-2.03,2.33-1.72,2.23-2.84,4.86-3.24,7.65-.3,1.9-.2,3.84.28,5.7.64,2.14,1.57,4.19,2.76,6.08.62,1.09,1.12,2.25,1.5,3.45.38,1.32.52,2.69.43,4.06-.26,2.71-.78,5.38-1.56,7.99-1.31,4.96-.82,10.21,1.38,14.85,1.48,3.16,3.8,5.85,6.71,7.79,2.91,1.93,6.29,3.03,9.78,3.18,1.95.06,3.06-.22,3.06-.14Z"/>
  <path class="cls-4" d="M676.07,164.9c.83-.82,1.89-1.37,3.04-1.58,2.73-.77,5.65-.55,8.23.64,2.58,1.19,4.65,3.25,5.84,5.83.58,1.01.85,2.16.79,3.33-.18,0-.45-1.24-1.46-2.98-1.27-2.29-3.24-4.12-5.62-5.22-2.38-1.09-5.05-1.4-7.62-.87-1.99.39-3.12.99-3.2.85Z"/>
  <path class="cls-4" d="M689.21,176.12v-1.16c.03-1.09-.24-2.18-.79-3.12-.85-1.5-2.13-2.7-3.67-3.47-1.01-.5-2.11-.77-3.24-.8s-2.24.19-3.27.63c-2.53,1.13-4.58,3.1-5.82,5.58-1.42,2.85-2.04,6.03-1.81,9.21.25,3.56.8,7.09,1.66,10.55.96,3.78,1.42,7.68,1.36,11.58-.35,3.91-1.37,7.73-3,11.3-1.48,3.26-2.77,6.6-3.87,10-.95,3.05-1.23,6.28-.81,9.45.42,2.76,1.26,5.44,2.47,7.95,1.85,3.65,4.03,7.11,6.53,10.34l2.03,2.66c.25.3.48.63.67.97,0,0-.32-.26-.83-.83-.51-.57-1.24-1.42-2.15-2.56-2.66-3.16-4.97-6.6-6.88-10.26-1.3-2.55-2.2-5.29-2.66-8.11-.49-3.29-.24-6.65.73-9.84,1.09-3.45,2.38-6.84,3.85-10.14,1.56-3.47,2.54-7.17,2.9-10.95.33-7.81-2.84-15.03-2.94-22.04-.21-3.35.49-6.69,2.03-9.67,1.37-2.62,3.59-4.68,6.31-5.84,1.13-.46,2.35-.67,3.57-.62,1.22.06,2.41.38,3.49.94,1.62.85,2.94,2.18,3.77,3.81.54,1.02.76,2.18.65,3.33-.03.39-.13.76-.28,1.12Z"/>
  <path class="cls-3" d="M745.04,225.6c-.36,1.07-.88,2.08-1.52,3-.33.46-.76.84-1.25,1.12-.49.28-1.03.46-1.59.52-.6,0-1.19-.16-1.71-.45s-.97-.71-1.29-1.21c-.65-1.02-.94-2.22-.85-3.43,0-1.07.55-2.37,1.62-2.49.45-.03.9.07,1.3.28l5.66,2.29"/>
  <path class="cls-9" d="M742.79,230.17c-1.02.07-2.05-.05-3.02-.36-.98-.37-1.79-1.1-2.27-2.03-.26-.59-.39-1.22-.39-1.86s.13-1.27.39-1.86c.13-.3.29-.58.49-.83.22-.24.18-.22.43-.2.31.11.61.23.91.36l.93.39,3.22,1.26c.98.46,2.02.77,3.08.93-.84-.69-1.78-1.23-2.8-1.6l-3.14-1.46-.91-.41c-.34-.16-.68-.3-1.04-.43-.28-.09-.57-.09-.85,0-.24.11-.45.29-.61.51-.27.32-.49.69-.65,1.07-.3.72-.44,1.5-.41,2.28s.23,1.55.6,2.24c.61,1.12,1.64,1.95,2.86,2.31.8.23,1.65.23,2.46,0,.49-.06.75-.26.73-.32Z"/>
  <path class="cls-7" d="M808.11,595.42l-.51,73.07-32.81-2.35-7.34-71.16,40.66.45Z"/>
  <path class="cls-4" d="M773.63,651.8s23.1,16.39,34.29,2.19l2.92,6.87,13.12,49c.45,1.54.32,3.18-.36,4.63-.68,1.45-1.87,2.6-3.33,3.24-1.13.45-2.36.56-3.55.33-1.19-.23-2.29-.8-3.17-1.63-9.51-9.02-44.29-42.45-43.95-46.99l.12-12.03c.01-1.22.39-2.41,1.08-3.41.69-1,1.67-1.77,2.81-2.21Z"/>
  <g class="cls-13">
    <path class="cls-11" d="M819.15,718.06l-49.55-52.73v2.64c-.26,2.84.99,4.06,2.33,5.78,4.06,5.41,15.11,17.5,41.41,42.75.75.73,1.68,1.26,2.69,1.54,1.01.28,2.07.31,3.09.08l.02-.06Z"/>
  </g>
  <g class="cls-13">
    <path class="cls-11" d="M776.86,657.44c.76.56,1.29,1.38,1.49,2.3s.05,1.89-.42,2.71c-.53.78-1.34,1.34-2.26,1.54-.92.21-1.89.05-2.71-.43-.81-.59-1.37-1.46-1.58-2.44-.21-.98-.04-2,.46-2.87.64-.76,1.54-1.25,2.53-1.36.99-.11,1.98.16,2.76.77"/>
  </g>
  <path class="cls-9" d="M804.87,691.02c.34.16,1.72-3.08,5.41-4.85,3.69-1.76,7.06-1.01,7.14-1.4.08-.38-.73-.63-2.19-.83-1.91-.2-3.84.15-5.56,1.01-1.73.84-3.17,2.16-4.16,3.81-.71,1.26-.81,2.19-.65,2.25Z"/>
  <path class="cls-9" d="M809.31,699.3c.3.28,2.29-1.75,5.5-2.68,3.2-.93,5.94-.43,6.08-.81.14-.39-2.82-1.62-6.45-.49-3.63,1.14-5.46,3.81-5.13,3.98Z"/>
  <path class="cls-9" d="M796.59,680.42c.3.28,3.33-2.84,8.11-4.72,4.78-1.89,9.17-1.76,9.19-2.19.02-.43-4.52-1.18-9.69.93-5.17,2.11-7.89,5.8-7.61,5.98Z"/>
  <path class="cls-9" d="M795.5,665.49c.16.39,3.59-1.07,8.11-1.24,4.52-.16,7.99.87,8.11.49.12-.39-3.39-2.03-8.11-1.87-4.72.16-8.32,2.33-8.11,2.62Z"/>
  <path class="cls-9" d="M806.09,664.11c.06-.79-.06-1.58-.35-2.31-.61-2.07-1.61-4.01-2.96-5.7-.88-1.32-2.18-2.32-3.69-2.82-.51-.12-1.04-.09-1.53.11-.49.19-.9.53-1.19.97-.5.89-.66,1.94-.45,2.94.52,2.02,1.72,3.8,3.41,5.03,1.69,1.23,3.75,1.82,5.84,1.69,2.06-.17,4.02-.96,5.63-2.25,1.61-1.29,2.81-3.02,3.43-4.99.16-.49.2-1.02.14-1.54-.07-.51-.24-1.01-.52-1.45-.33-.41-.77-.72-1.28-.87-.5-.15-1.04-.14-1.54.03-1.44.61-2.69,1.59-3.63,2.84-1.41,1.63-2.52,3.5-3.27,5.52-.34.72-.53,1.5-.55,2.29,1.15-2.6,2.67-5.01,4.52-7.16.86-1.05,1.97-1.87,3.22-2.39.27-.11.57-.12.85-.04.28.08.52.25.7.49.17.31.27.65.29,1,.03.35-.03.7-.15,1.03-.59,1.68-1.65,3.16-3.06,4.26-1.4,1.1-3.1,1.76-4.87,1.93-1.76.1-3.5-.39-4.95-1.4-1.44-1.01-2.5-2.48-3-4.17-.16-.68-.07-1.4.24-2.03.15-.25.37-.44.64-.56.27-.11.56-.14.84-.07,1.26.44,2.37,1.26,3.16,2.33,1.77,2.18,3.14,4.65,4.06,7.3Z"/>
  <path class="cls-7" d="M885.38,532.55l40.15,76.22-32.06,19.21-51.84-73.03,43.74-22.39Z"/>
  <path class="cls-4" d="M920.51,598.56l1.32,2.03s44.76-7.63,49.32-1.04l-71.51,43.4-13.49-24.33c6.83-.68,13.43-2.83,19.36-6.29,5.93-3.46,11.04-8.16,14.99-13.77Z"/>
  <g class="cls-13">
    <path class="cls-11" d="M898.02,621.87c-.56.63-.87,1.44-.87,2.28s.31,1.65.87,2.28c.61.57,1.42.89,2.26.89s1.65-.32,2.26-.89c.6-.66.93-1.52.93-2.41s-.33-1.75-.93-2.42c-.69-.55-1.57-.8-2.45-.71s-1.69.51-2.26,1.18"/>
  </g>
  <g class="cls-13">
    <path class="cls-11" d="M899.64,643.04l-3.24-5.86,69.73-39.46s4.06-.55,5.03,1.92l-71.51,43.4Z"/>
  </g>
  <path class="cls-9" d="M922.19,600.79c.2.34-1.44,1.56-2.47,3.73-1.03,2.17-1.07,4.2-1.48,4.26-.41.06-1.1-2.29.2-4.89,1.3-2.6,3.63-3.53,3.75-3.1Z"/>
  <path class="cls-9" d="M931.58,599.27c.28.3-.87,1.81-1.16,4.06-.28,2.25.3,4.06,0,4.18-.3.12-1.78-1.64-1.38-4.38.4-2.74,2.31-4.18,2.53-3.85Z"/>
  <path class="cls-9" d="M941.29,605.66c-.28.28-1.82-1.18-2.03-3.63-.2-2.46.91-4.22,1.24-4.06.32.16,0,1.85.18,3.85.18,2.01.93,3.59.61,3.83Z"/>
  <path class="cls-9" d="M899.35,551.13l-69.93-134.58s-9.82-13.89-23.22-13.04c-6.08.4-26.65,6.45-47.23,12.94l-.67-9.05-70.25,6.37s-20.97,38.74-17.34,65.51c3.63,26.77,9.55,26.69,9.55,26.69l56.79-.95,24.33.89,3.24,98.32,50.7-5.96,2.52-84.91,34.96,64.9,46.54-27.12Z"/>
  <path class="cls-4" d="M737.01,499.15s.2-.18.55-.59l1.52-1.81,5.7-6.96,20.59-25.43c4.97-8.01,16.37-12.76,27.76-10.81,5.93.97,11.44,3.66,15.86,7.73,2.27,2.12,4.11,4.67,5.39,7.5,1.25,2.95,2.02,6.08,2.27,9.27.37,3.89.27,7.79.24,11.62-.02,3.83,0,7.63-.1,11.34-.14,7.44-.26,14.6-.39,21.44-.28,13.67-.69,25.96-1.08,36.28-.39,10.32-.77,18.62-1.01,24.44-.12,2.86-.22,5.07-.28,6.65v1.75c-.02.19-.02.39,0,.59.02-.2.02-.39,0-.59,0-.45,0-1.01.14-1.72.1-1.58.26-3.81.44-6.65.37-5.76.83-14.2,1.3-24.44.47-10.24.95-22.61,1.3-36.28.12-6.83.26-13.99.43-21.44,0-3.71,0-7.5.12-11.34.11-3.91.02-7.82-.26-11.72-.25-3.29-1.04-6.52-2.33-9.55-1.34-2.94-3.25-5.59-5.62-7.79-4.55-4.18-10.22-6.94-16.33-7.91-11.7-2.03-23.4,2.94-28.51,11.26l-20.28,25.61-5.56,7.1-1.42,1.87c-.16.18-.31.38-.44.59Z"/>
  <path class="cls-4" d="M762.08,547.01c.24,0,.44-14.2.44-31.76s-.2-31.74-.44-31.74-.47,14.2-.47,31.74.2,31.76.47,31.76Z"/>
  <path class="cls-4" d="M694.7,440.58c.33-.06.65-.16.95-.3l2.66-1.08,9.78-4.06c8.25-3.35,19.73-7.79,32.57-12.17,12.84-4.38,24.58-8.11,33.14-10.61l10.14-2.94,2.76-.81c.33-.09.65-.2.95-.34-.34,0-.67.05-.99.16l-2.8.65c-2.43.59-5.92,1.48-10.14,2.68-8.6,2.35-20.4,5.9-33.26,10.36-12.86,4.46-24.33,9.04-32.45,12.53-4.06,1.75-7.4,3.2-9.67,4.26l-2.6,1.22c-.36.11-.71.26-1.04.45Z"/>
  <path class="cls-4" d="M692.67,425.91c2.08.05,4.16-.03,6.23-.24,3.83-.24,9.15-.49,15.01-.65l15.03-.3c2.12.05,4.23-.07,6.33-.37-.55-.14-1.12-.19-1.68-.16-1.07,0-2.62-.1-4.54-.14-3.85,0-9.17-.12-15.05,0-5.88.12-11.2.51-15.03.89-1.92.2-3.47.38-4.54.55-.6.06-1.19.2-1.75.43Z"/>
  <path class="cls-4" d="M843.2,562.14c.14.1,1.92-2.45,5.33-6.08,1.99-2.16,4.12-4.19,6.37-6.09,2.76-2.26,5.68-4.34,8.72-6.21,5.57-3.35,11.58-5.91,17.85-7.63,4.83-1.3,7.91-1.68,7.89-1.85-.73-.02-1.47.03-2.19.16-.85.08-1.7.21-2.53.38-1.11.17-2.22.4-3.3.69-2.87.69-5.69,1.58-8.44,2.66-3.36,1.35-6.61,2.96-9.73,4.81-3.08,1.89-6.02,4-8.78,6.33-2.25,1.92-4.36,3.99-6.31,6.21-.87.93-1.56,1.85-2.19,2.62-.54.65-1.05,1.32-1.52,2.03-.46.6-.85,1.26-1.15,1.97Z"/>
  <path class="cls-4" d="M760.53,587.79c0,.14,2.82-1.36,7.48-3.29,6.07-2.48,12.39-4.27,18.86-5.33,6.48-1.05,13.06-1.36,19.61-.91,5.03.33,8.11.89,8.11.73-.69-.25-1.4-.43-2.13-.53-1.4-.28-3.43-.59-5.94-.85-13.27-1.25-26.63.92-38.82,6.31-1.84.8-3.63,1.7-5.38,2.7-.64.33-1.24.73-1.81,1.18Z"/>
  <path class="cls-4" d="M689.57,412.18c-.06.32-.17.63-.34.91l-1.2,2.53-2.03,3.95c-.75,1.58-1.56,3.35-2.47,5.29-4.89,10.14-8.56,20.82-10.93,31.82-2.04,11.07-1.72,22.45.95,33.38.45,2.03.99,4.06,1.44,5.64.45,1.58.87,3.08,1.24,4.24l.81,2.68c.12.02.22.09.29.19.07.1.1.22.09.34-.01.12-.07.23-.16.31-.09.08-.21.13-.33.13s-.24-.05-.33-.13c-.09-.08-.15-.19-.16-.31-.01-.12.02-.24.09-.34.07-.1.17-.16.29-.19-.28-.71-.61-1.58-.99-2.62-.39-1.04-.91-2.53-1.4-4.2-.49-1.66-1.11-3.51-1.6-5.64-2.93-11.01-3.36-22.54-1.28-33.75,2.36-11.09,6.16-21.83,11.3-31.94l2.62-5.23c.79-1.48,1.5-2.78,2.03-3.87l1.36-2.43c.19-.29.44-.55.71-.77Z"/>
  <path class="cls-9" d="M712.67,264.85c-1.6,1.48-3.08,3.09-4.42,4.81-1.05,1.92-1.94,3.92-2.66,5.98-.12-2.32.49-4.61,1.77-6.56,1.27-1.94,3.13-3.42,5.31-4.23Z"/>
  <path class="cls-9" d="M744.74,268.07c1.24,1.37,2.16,3.01,2.7,4.78.53,1.77.66,3.65.38,5.48-.58-1.69-1.04-3.42-1.4-5.17-.68-1.66-1.24-3.36-1.68-5.09Z"/>
  <path class="cls-6" d="M774.67,280.56s12.51,7.87,13.99,27.46c1.45,14.6,3.94,29.07,7.44,43.32l50.25,6.55-3.16,25.58-85.18,3.35,16.65-106.25Z"/>
  <path class="cls-6" d="M707.03,257.83l-7.81,8.88s-20.28,4.83-24.74,6.71c-4.46,1.89,6.94,43.44,6.94,43.44l-1.68,85.46c-.03,1.51.26,3.02.84,4.41.59,1.39,1.47,2.65,2.57,3.68,1.11,1.03,2.42,1.82,3.85,2.31,1.43.49,2.95.68,4.46.54l77.23-6.87,6.65-96.41-.67-29.47-18.41-6.25-10.65-10.55c-3.09,3.53-7.36,5.8-12.01,6.4-4.65.59-9.36-.53-13.24-3.17l-13.32-9.13Z"/>
  <path class="cls-6" d="M674.42,273.42s-15.74,6.08-17.08,29.77c-.87,15.62-6.37,42.3-10.02,58.69-1.01,4.56-1.11,9.28-.29,13.89.82,4.6,2.55,9,5.08,12.93,3.07,4.77,7.23,8.73,12.15,11.56,4.92,2.82,10.44,4.42,16.1,4.67l66.07-8.78-1.04-24.88-61.04-7.75-2.76-44.62-7.18-45.47Z"/>
  <path class="cls-9" d="M672.76,385.15c.06-.88.06-1.76,0-2.64.03-2.38.33-4.75.89-7.06.8-3.42,2.56-6.55,5.07-9.01,1.46-1.43,3.23-2.5,5.17-3.14,2.12-.61,4.33-.85,6.53-.71,7.89.43,15.74,1.32,23.52,2.66,2.86.51,26.95,4.06,28.78,4.3.87.2,1.75.31,2.64.32-.83-.29-1.69-.51-2.56-.67-1.82-.38-25.9-4.06-28.74-4.58-7.73-1.52-15.56-2.5-23.42-2.92-2.31-.16-4.63.11-6.86.77-2.06.7-3.93,1.86-5.48,3.39-2.59,2.58-4.36,5.87-5.11,9.45-.51,2.36-.72,4.78-.63,7.2-.03.88.03,1.77.18,2.64Z"/>
  <path class="cls-9" d="M688.86,319.04c-.17.56-.26,1.15-.27,1.74-.12,1.14-.24,2.78-.34,4.81-.2,4.28-.44,9.78-.71,15.84-.24,5.27-.83,10.51-1.76,15.7-.77,4.06-1.56,6.35-1.42,6.41.31-.52.54-1.07.71-1.64.2-.53.4-1.2.63-2.03.22-.83.49-1.66.71-2.66,1.12-5.19,1.8-10.47,2.03-15.78.34-6.21.38-11.82.44-15.88v-4.81c.06-.57.06-1.14-.02-1.7Z"/>
  <path class="cls-9" d="M655.5,394.3c.53.65,1.13,1.25,1.78,1.79,1.74,1.49,3.59,2.85,5.54,4.06,6.51,3.94,13.88,6.26,21.48,6.73,4.17.27,8.37-.04,12.45-.93,3.79-.81,6.98-2.15,9.76-2.8,2.21-.48,4.45-.8,6.71-.93.84-.05,1.68-.22,2.47-.51,0,0-.89,0-2.52.14-2.29.02-4.58.24-6.83.67-2.86.59-6.09,1.87-9.78,2.62-4,.82-8.09,1.1-12.17.83-7.46-.49-14.72-2.67-21.21-6.37-2.65-1.63-5.22-3.4-7.69-5.29Z"/>
  <g class="cls-12">
    <path class="cls-1" d="M717.5,408.43c.23-.82.29-1.69.18-2.54-.11-.85-.39-1.67-.83-2.41-.51-.5-1.12-.88-1.8-1.13-.67-.25-1.38-.35-2.1-.31-3.3.17-6.55.86-9.63,2.03-7.16,2.11-14.62,3.04-22.08,2.74,3.3,2.62,7.35,4.13,11.56,4.3,4.17.15,8.36-.13,12.47-.85l12.92-1.82"/>
  </g>
  <path class="cls-9" d="M769.01,369.01c-.18-.14,2.43-2.86,5.42-8.11,3.92-6.78,6.2-14.38,6.63-22.2.44-7.82-.97-15.63-4.12-22.8-2.37-5.52-4.67-8.5-4.5-8.62.63.6,1.19,1.28,1.64,2.03,1.36,1.98,2.54,4.07,3.55,6.25,3.39,7.23,4.93,15.19,4.48,23.17-.44,7.97-2.86,15.71-7.04,22.52-1.24,2.05-2.65,4-4.22,5.82-.53.72-1.15,1.38-1.85,1.95Z"/>
  <path class="cls-9" d="M752.75,275.27c-.43.7-.96,1.33-1.58,1.87-1.59,1.55-3.35,2.91-5.25,4.06-2.84,1.75-5.93,3.05-9.17,3.85-3.97,1.04-8.12,1.21-12.17.49-3.98-.9-7.79-2.43-11.3-4.52-2.88-1.66-5.6-3.59-8.11-5.76-1.7-1.44-3.25-3.03-4.64-4.77-.55-.61-1.01-1.29-1.36-2.03,2.03,2.21,4.2,4.29,6.49,6.23,2.55,2.04,5.26,3.88,8.11,5.48,3.43,2,7.14,3.46,11.01,4.34,3.89.69,7.89.55,11.72-.41,3.16-.73,6.19-1.92,9-3.53,2.56-1.56,4.98-3.33,7.24-5.29Z"/>
  <path class="cls-9" d="M720.85,269.39c-.51,2.08-1.19,4.11-2.03,6.08-.51,2.08-1.19,4.12-2.03,6.08-.17-2.21.17-4.42,1.01-6.47.55-2.11,1.59-4.07,3.04-5.7Z"/>
  <path class="cls-9" d="M733.24,271.64c.52,2.19.7,4.45.53,6.69.18,2.25,0,4.51-.55,6.69-.51-2.19-.68-4.45-.51-6.69-.17-2.24,0-4.5.53-6.69Z"/>
  <path class="cls-9" d="M691.42,307.31c-.18,0-.34-1.87-1.05-4.77-.95-3.77-2.48-7.38-4.52-10.69-2.07-3.3-4.63-6.25-7.61-8.76-2.29-1.93-3.89-2.9-3.81-3.06,1.56.57,3.01,1.4,4.28,2.47,6.43,4.88,10.84,11.95,12.39,19.87.4,1.61.51,3.28.32,4.93Z"/>
  <path class="cls-9" d="M745.73,393.93c-1.75.86-3.59,1.54-5.48,2.03-3.45,1.01-8.25,2.21-13.61,3.33-5.36,1.11-10.24,2.03-13.77,2.6-1.88.45-3.8.72-5.74.81,1.82-.68,3.69-1.2,5.6-1.54,3.49-.81,8.34-1.81,13.69-2.9,5.35-1.1,10.14-2.19,13.65-3.02,1.85-.58,3.74-1.01,5.66-1.3Z"/>
  <path class="cls-2" d="M757.86,407.8c.36-1.28,19.2-76.09,22.75-90.96l71.51-3.61-25,87.93-69.26,6.63Z"/>
  <path class="cls-8" d="M757.86,411.94c.36-1.28,19.2-76.09,22.75-90.96l71.51-3.61-25,87.94-69.26,6.63Z"/>
  <path class="cls-5" d="M760.6,413.83c.36-1.3,19.22-76.09,22.75-90.98l71.57-3.61-25.01,87.94-69.32,6.65Z"/>
  <path class="cls-2" d="M757.86,407.8c.36-1.28,19.2-76.09,22.75-90.96l71.51-3.61-25,87.93-69.26,6.63Z"/>
  <path class="cls-9" d="M757.86,407.8l1.3-.16,3.71-.39,14.04-1.46,50.17-5.05-.38.3c7.06-24.9,15.64-55.22,24.9-87.96l.55.67-2.17.1-69.34,3.45.45-.36c-6.81,26.81-12.58,49.46-16.65,65.47-2.03,7.97-3.67,14.3-4.81,18.68-.55,2.13-.97,3.79-1.3,4.97-.14.55-.24.97-.35,1.3l-.12.45v-.39c0-.26.18-.73.28-1.26.28-1.16.69-2.8,1.18-4.89,1.08-4.38,2.6-10.67,4.54-18.62,3.95-16.12,9.57-38.92,16.22-65.93v-.34h.37l69.46-3.57,2.17-.1h.75l-.2.71c-9.35,32.71-17.99,63.03-25.11,87.92v.28h-.28l-50.54,4.6-13.93,1.24-3.63.31-1.28.04Z"/>
  <path class="cls-8" d="M757.86,411.94c.36-1.28,19.2-76.09,22.75-90.96l71.51-3.61-25,87.94-69.26,6.63Z"/>
  <path class="cls-9" d="M757.86,411.94l1.3-.16,3.71-.39,14.04-1.46,50.17-5.05-.38.3c7.06-24.9,15.64-55.22,24.9-87.98l.55.69-2.17.1-69.34,3.45.45-.37c-6.81,26.81-12.58,49.47-16.65,65.47-2.03,7.97-3.67,14.2-4.81,18.68-.55,2.13-.97,3.79-1.3,4.97-.14.55-.24.97-.35,1.3l-.12.44v-.4c0-.28.18-.71.28-1.24.28-1.15.69-2.8,1.18-4.89,1.08-4.38,2.6-10.67,4.54-18.62,3.95-16.12,9.57-38.92,16.22-65.93v-.34h.37l69.46-3.65h2.92l-.2.71c-9.35,32.71-17.99,63.03-25.11,87.92v.28h-.28l-50.54,4.6-13.93,1.24-3.63.3-1.28.02Z"/>
  <path class="cls-5" d="M760.6,413.83c.36-1.3,19.22-76.09,22.75-90.98l71.57-3.61-25.01,87.94-69.32,6.65Z"/>
  <path class="cls-9" d="M760.6,413.83s.47,0,1.3-.16l3.71-.4,14.04-1.44,50.17-5.07-.37.33c7.04-24.9,15.64-55.25,24.9-87.98l.53.67h-2.17l-69.34,3.47.45-.38c-6.81,26.81-12.58,49.47-16.65,65.47-2.03,7.97-3.67,14.3-4.79,18.68-.57,2.03-.99,3.79-1.3,4.99-.14.53-.26.95-.34,1.28-.08.32-.14.44-.14.47-.02-.14-.02-.27,0-.41,0-.33.16-.73.28-1.26.28-1.15.67-2.78,1.18-4.89l4.52-18.62c4.06-16.1,9.57-38.92,16.22-65.91v-.36h.36l69.5-3.39,2.17-.1h.73l-.2.71c-9.35,32.73-17.99,63.03-25.09,87.92v.28h-.3l-50.62,4.48-13.93,1.24-3.63.31-1.2.1Z"/>
  <path class="cls-7" d="M745.4,369.92h9.82c2-1.99,4.14-3.84,6.39-5.54,1.36-.69,8.11-2.72,8.11-2.72l-2.03,6.96s-.89.3-1.78.65c-1.7.67-1.24,2.19.12,2.19h9.9s10.14-4.87,11.62-4.06c1.48.81,1.7,2.03.43,4.06-1.28,2.03-10.14,6.31-11.19,6.65l-2.9.85,2.74.85,12.9-4.5c.83-.16,2.03-.31,2.37.18.17.16.3.35.4.57.09.22.14.44.14.68s-.05.46-.14.68c-.09.22-.23.41-.4.57-1.83,1.67-3.78,3.2-5.82,4.61,0,0,2.03,3.02.34,4.56-1.68,1.54-6.65,6.08-6.65,6.08-.28,1.43-.99,2.74-2.03,3.75-1.54,1.2-18.41,1.2-19.61,1.2-2.78-1.06-5.46-2.37-8.01-3.91l-4.48-.47-.22-23.89Z"/>
  <path class="cls-3" d="M774.71,387.46c1.27.39,2.63.35,3.87-.1.77-.3,1.51-.7,2.19-1.18,1.46-.93,2.78-1.82,3.71-2.47.54-.31,1.03-.69,1.46-1.14-.57.25-1.11.55-1.62.89-.97.61-2.31,1.44-3.77,2.39-.63.45-1.31.84-2.03,1.15-.6.24-1.24.39-1.89.43-1.21.04-1.92-.04-1.92.02Z"/>
  <path class="cls-3" d="M773.94,393.79s.37.49,1.28.71c1.2.26,2.44.05,3.49-.59,1.02-.56,1.97-1.24,2.82-2.03.38-.31.7-.68.95-1.1-1.29,1.03-2.65,1.98-4.06,2.84-.97.59-2.1.83-3.23.67-.43-.14-.85-.31-1.26-.51Z"/>
  <path class="cls-3" d="M769.15,379.74c.9.1,1.81.02,2.68-.22.9-.11,1.76-.4,2.54-.85-.89.06-1.76.22-2.62.47-.88.11-1.75.32-2.59.61Z"/>
  <path class="cls-7" d="M854.31,366.59c.45-.26.84-.6,1.15-1.02.31-.41.54-.88.66-1.38.13-.5.15-1.02.07-1.53-.08-.51-.26-1-.53-1.44-.34-.61-.81-1.14-1.38-1.54-5.49-1.47-11.04-2.66-16.65-3.57-1.54-.22-1.72,2.62.18,4.06,1.91,1.44,16.49,6.49,16.49,6.49v-.06Z"/>
  <path class="cls-7" d="M851.13,376.47c.44-.26.84-.6,1.15-1.01.31-.41.54-.88.66-1.38s.15-1.02.07-1.53c-.08-.51-.26-1-.53-1.43-.32-.63-.79-1.16-1.38-1.54-1.54-.81-15.45-4.48-16.65-3.59-1.2.89-1.72,2.62.18,4.06,1.91,1.44,16.49,6.49,16.49,6.49v-.06Z"/>
  <path class="cls-7" d="M848.37,374.44c.65.14,1.25.43,1.77.84.52.41.94.93,1.23,1.52.32.63.42,1.34.28,2.03-.22,1.05-.73,2.01-1.46,2.8-.73.78-1.66,1.35-2.69,1.65-2.5.77-10.61-1.06-10.61-1.06l1.87-5.23-5.68-1.87c-.51-.21-.91-.62-1.12-1.13-.21-.51-.21-1.08,0-1.59.21-.51.62-.91,1.13-1.12.51-.21,1.08-.21,1.59,0,.91.34,10.43,2.37,13.69,3.16Z"/>
  <path class="cls-7" d="M852.61,371.26c.44-.26.84-.6,1.15-1.01.31-.41.54-.88.66-1.38.13-.5.15-1.02.07-1.53-.08-.51-.26-1-.53-1.43-.32-.62-.79-1.15-1.38-1.54-1.54-.83-13.93-3.02-15.39-3.35-1.46-.33-2.98,2.37-1.07,3.75,1.91,1.38,16.49,6.49,16.49,6.49Z"/>
  <path class="cls-3" d="M838.7,366.27c.71.25,1.43.44,2.17.57,1.36.3,3.23.69,5.29,1.1,1.76.28,3.45.9,4.97,1.82.58.45,1.11.96,1.56,1.54-.06-.2-.16-.38-.28-.55-.3-.47-.68-.88-1.11-1.22-.66-.49-1.39-.88-2.17-1.15-.94-.34-1.92-.61-2.9-.81l-5.31-.99c-.73-.15-1.47-.25-2.21-.31Z"/>
  <path class="cls-3" d="M841.01,361.75c.66.23,1.34.4,2.03.51l5.05.97c1.68.28,3.28.91,4.7,1.85.54.45,1.03.96,1.46,1.52,0,0,0-.2-.24-.53-.28-.45-.64-.86-1.05-1.2-1.41-1.05-3.05-1.74-4.78-2.03-2.03-.41-3.79-.67-5.09-.89-.68-.11-1.37-.18-2.07-.2Z"/>
  <path class="cls-3" d="M838.43,372.09c.66.24,1.34.44,2.03.59,1.58.44,3.19.8,4.81,1.08,1.61.21,3.17.73,4.58,1.54.54.39,1.03.84,1.46,1.34-.06-.18-.15-.34-.26-.49-.28-.42-.64-.78-1.05-1.07-1.41-.89-2.99-1.47-4.64-1.68-1.91-.3-3.59-.71-4.83-.95-.68-.19-1.38-.31-2.09-.34Z"/>
  <path class="cls-3" d="M837.66,376.63c.94.51,1.93.92,2.96,1.2.99.39,2.03.67,3.08.83-.93-.52-1.93-.91-2.96-1.18-.99-.39-2.03-.68-3.08-.85Z"/>
  <path class="cls-9" d="M978.1,929.11c0,.28-212.94.53-475.52.53s-475.56-.3-475.56-.53,212.95-.53,475.56-.53,475.52.22,475.52.53Z"/>
  <path class="cls-11" d="M809.09,240.11l5.72-21.34c-6.67-7.38-10.74-16.74-11.58-26.65-3.06-31.88,16.57-59.81,48.02-64.47,7.45-1.17,15.06-.86,22.39.91,7.33,1.77,14.24,4.98,20.32,9.43,6.09,4.45,11.24,10.06,15.15,16.51,3.91,6.45,6.52,13.6,7.66,21.06,4.62,31.48-18.05,60.27-49.5,64.9-13.14,2.03-27.7-2.72-38.53-8.78l-19.65,8.44Z"/>
  <path class="cls-9" d="M840.19,188.85c2.71,0,4.91-2.2,4.91-4.91s-2.2-4.91-4.91-4.91-4.91,2.2-4.91,4.91,2.2,4.91,4.91,4.91Z"/>
  <path class="cls-9" d="M864.78,183.95c-.01.97-.31,1.92-.86,2.72-.55.8-1.32,1.42-2.22,1.79-.9.36-1.89.45-2.84.26-.95-.2-1.82-.67-2.51-1.36-.68-.69-1.15-1.57-1.33-2.52-.19-.95-.08-1.94.29-2.84.38-.9,1.01-1.66,1.81-2.2.81-.54,1.76-.83,2.73-.83.65,0,1.3.12,1.9.38.6.25,1.15.62,1.61,1.08.46.46.82,1.02,1.06,1.62.24.61.36,1.25.35,1.91Z"/>
  <path class="cls-9" d="M884.37,181.49c.49.84.71,1.81.65,2.78s-.41,1.9-1.01,2.67c-.59.77-1.4,1.35-2.32,1.66-.92.31-1.91.34-2.85.09-.94-.25-1.78-.78-2.42-1.51-.64-.73-1.04-1.64-1.17-2.6-.13-.96.04-1.94.47-2.81.43-.87,1.11-1.59,1.95-2.08,1.13-.65,2.47-.82,3.72-.48,1.25.34,2.32,1.16,2.97,2.29Z"/>
  <path class="cls-9" d="M860.15,126.57c.33-.04.66-.04.99,0h5.07l2.58.34,3,.45,3.37.83c5.76,1.46,11.24,3.86,16.23,7.1,6.67,4.26,12.4,9.83,16.83,16.39,5.36,8.05,8.65,17.3,9.57,26.93.23,2.62.28,5.25.16,7.87,0,1.34,0,2.68-.26,4.06l-.61,4.06c-1.03,5.58-2.87,10.98-5.48,16.02-2.77,5.28-6.29,10.13-10.44,14.4-4.44,4.35-9.52,8-15.07,10.81-5.74,2.95-11.97,4.86-18.37,5.64-1.63.25-3.26.4-4.91.43-1.65.09-3.3.09-4.95,0-3.34-.13-6.65-.54-9.92-1.24-7.04-1.53-13.74-4.35-19.75-8.32h.61l-20.12,8.11-1.2.47.34-1.24c2.03-7.35,4-14.52,5.9-21.5l.1.53c-5.45-7.24-9.12-15.65-10.73-24.56-.77-4.15-1.03-8.38-.77-12.59.03-2.04.22-4.07.57-6.08.14-.99.3-2.03.45-2.94.14-.91.49-1.91.71-2.86,3.39-13.19,11.36-24.75,22.47-32.61,4.1-2.96,8.59-5.33,13.35-7.06l3.02-1.07,2.84-.71,2.62-.65c.85-.16,1.64-.26,2.41-.36,1.52-.2,2.86-.47,4.06-.53h4.77c.2-.04.41-.04.61,0h-.61l-1.79.14-2.94.2c-1.17,0-2.49.37-4.06.59-10.91,1.89-21.04,6.9-29.15,14.43-8.12,7.53-13.87,17.26-16.56,28-.22.91-.51,1.85-.69,2.8l-.43,2.88c-.33,1.96-.5,3.95-.53,5.94-.23,4.13.04,8.28.81,12.35,1.59,8.73,5.22,16.96,10.59,24.03l.18.24v.28c-1.91,6.95-3.87,14.12-5.88,21.52l-.85-.75,20.12-8.11.3-.12.28.18c8.63,5.72,18.67,8.96,29.02,9.35,1.61.09,3.22.09,4.83,0,1.61-.03,3.22-.17,4.81-.41,6.26-.76,12.34-2.62,17.95-5.5,5.44-2.74,10.42-6.3,14.77-10.57,4.08-4.17,7.54-8.9,10.28-14.05,2.55-4.94,4.37-10.22,5.39-15.68.2-1.34.43-2.66.63-4.06.2-1.4.16-2.64.26-3.93.48-9.92-1.65-19.79-6.18-28.63-4.53-8.84-11.3-16.34-19.63-21.74-4.91-3.26-10.33-5.7-16.02-7.22l-3.31-.89-2.98-.49-2.53-.41c-.79,0-1.5-.12-2.15-.16l-2.9-.22c-.36,0-.72-.03-1.08-.1Z"/>
</svg>
