<?xml version="1.0" encoding="utf-8"?>
<!-- Generator: Adobe Illustrator 28.3.0, SVG Export Plug-In . SVG Version: 6.00 Build 0)  -->
<svg version="1.1" id="Layer_1" xmlns="http://www.w3.org/2000/svg" xmlns:xlink="http://www.w3.org/1999/xlink" x="0px" y="0px"
	 viewBox="0 0 2000 2000" style="enable-background:new 0 0 2000 2000;" xml:space="preserve">
<style type="text/css">
	.st0{fill:#EBEBEB;}
	.st1{fill:#F5F5F5;}
	.st2{fill:#FAFAFA;}
	.st3{fill:#263238;}
	.st4{fill:#E30613;}
	.st5{fill:#E0E0E0;}
	.st6{opacity:0.3;}
	.st7{fill:#0099FF;}
	.st8{fill:#FFFFFF;}
	.st9{opacity:0.2;}
	.st10{fill:#455A64;}
</style>
<g>
	<path class="st0" d="M1260.24,1002.59l-461.72-4.32l-140.09-0.56h-38.06h-9.91c-2.22,0-3.38,0-3.38,0.19
		c1.12,0.17,2.25,0.25,3.38,0.22l9.91,0.23l38.03,0.45l139.98,0.75l461.72,0.3c180.18,0,343.51,0.19,461.72,1.05
		c59.08,0.41,106.91,0.98,139.94,1.58c16.52,0.3,29.36,0.64,38.06,0.98c4.44-0.12,8.88,0.21,13.25,0.97
		c-4.38,0.68-8.82,0.95-13.25,0.83c-8.71,0.26-21.55,0.45-38.06,0.6c-33.07,0.26-80.9,0.34-139.98,0.19
		C1603.71,1005.82,1440.49,1004.43,1260.24,1002.59z"/>
	<path class="st0" d="M1256.63,1042.16l-455.57-74.06l-138.14-21.77l-37.54-5.63l-9.8-1.39c-1.1-0.19-2.22-0.29-3.34-0.3
		c1.07,0.33,2.16,0.57,3.27,0.71l9.76,1.73l37.54,6.23l138.26,21.89l456.2,69.97c177.89,27.18,339.12,52.03,455.72,70.8
		c58.3,9.31,105.44,17.08,137.99,22.52c16.25,2.82,28.9,5.07,37.54,6.72c4.4,0.57,8.74,1.58,12.95,3c-4.44,0-8.88-0.39-13.25-1.16
		c-8.63-1.09-21.36-2.82-37.54-5.18c-32.7-4.69-79.96-11.82-138.29-20.95C1595.45,1097.22,1434.41,1071.17,1256.63,1042.16z"/>
	<path class="st0" d="M1246.72,1080.67L808.87,937.65l-132.88-42.64l-36.22-11.26l-9.46-2.85c-1.07-0.36-2.16-0.63-3.27-0.83
		c1,0.51,2.04,0.93,3.12,1.24l9.35,3.19l36.04,11.9l133.04,42.79l439.2,138.89c171.44,54.05,326.58,103.3,438.75,139.6
		c56.04,18.13,101.35,33.03,132.59,43.55c15.62,5.25,27.7,9.42,35.89,12.35c4.24,1.25,8.35,2.91,12.27,4.95
		c-4.38-0.65-8.69-1.7-12.87-3.15c-8.37-2.4-20.65-6.04-36.41-10.89c-31.53-9.61-77.03-23.91-133.15-41.82
		C1572.37,1186.94,1417.56,1136.6,1246.72,1080.67z"/>
	<path class="st0" d="M1230.69,1117.16L821.53,909.12l-124.44-62.43l-33.79-16.74l-8.89-4.24c-1-0.51-2.03-0.97-3.08-1.35
		c0.91,0.65,1.88,1.22,2.89,1.69l8.71,4.58l33.78,17.27L821,910.4l411.2,204.39c160.55,79.66,305.82,152.03,410.67,205
		c52.55,26.5,94.75,48.12,123.88,63.29c14.57,7.51,25.83,13.55,33.41,17.68c3.96,1.88,7.73,4.15,11.26,6.76
		c-4.22-1.34-8.31-3.05-12.24-5.11c-7.84-3.75-19.37-9.16-34.16-16.33c-29.58-14.34-72.19-35.4-124.74-61.68
		C1535.09,1271.74,1390.42,1198.47,1230.69,1117.16z"/>
	<path class="st0" d="M1208.96,1150.76L838.19,883.1l-112.62-80.59l-30.82-21.66l-8.11-5.56c-0.88-0.68-1.82-1.27-2.82-1.76
		c0.8,0.77,1.67,1.47,2.59,2.1l7.85,5.82c7.06,5.14,17.31,12.61,30.48,22.15l112.62,80.67c95.65,67.57,227.52,161.12,373.28,264.35
		c145.76,103.23,277.79,196.59,372.64,264.87c47.52,34.12,85.89,61.9,112.2,81.31c13.18,9.68,23.35,17.31,30.03,22.52
		c3.64,2.45,7.04,5.26,10.14,8.37c-3.96-1.95-7.73-4.26-11.26-6.91c-7.17-4.77-17.68-11.94-31.12-21.28
		c-26.91-18.77-65.61-45.95-113.29-79.88C1484.71,1349.78,1353.59,1255.3,1208.96,1150.76z"/>
	<path class="st0" d="M1182.12,1180.63L858.69,860.21l-98.5-96.66l-26.99-26.05l-7.21-6.72c-0.77-0.8-1.61-1.53-2.51-2.18
		c0.68,0.86,1.42,1.67,2.21,2.44l6.83,6.98l26.57,26.47l98.43,96.74l326.59,317.54c127.63,123.88,242.76,236.19,325.72,317.99
		c41.48,40.88,74.89,74.14,97.82,97.3c11.45,11.56,20.27,20.61,26.28,26.8c3.19,3.01,6.09,6.3,8.67,9.84
		c-3.6-2.52-6.96-5.37-10.02-8.52c-6.34-5.82-15.54-14.49-27.33-25.75c-23.61-22.52-57.47-55.29-99.14-96.02
		C1422.66,1418.93,1308.29,1305.79,1182.12,1180.63z"/>
	<path class="st0" d="M1150.85,1206.09L882.64,840.65l-81.87-110.32c-9.68-12.91-17.27-22.94-22.52-30.03l-5.97-7.51
		c-0.63-0.91-1.35-1.77-2.14-2.55c0.54,0.97,1.14,1.89,1.8,2.78l5.63,7.92l22,30.03l81.8,110.4l271.63,363.03
		c106.05,141.74,202.1,270.05,270.95,363.48c34.42,46.66,62.13,84.57,81.05,110.89c9.46,13.18,16.74,23.46,21.58,30.48
		c2.68,3.43,5.02,7.11,6.98,11c-3.15-3.02-6-6.34-8.52-9.91c-5.33-6.72-13.03-16.67-22.9-29.58
		c-19.71-25.79-47.9-63.32-82.59-109.84C1350.33,1477.86,1255.28,1348.81,1150.85,1206.09z"/>
	<path class="st0" d="M1115.86,1226.7c-80.52-156.87-153.35-298.81-206.12-401.66c-26.61-51.2-48.16-92.65-63.1-121.44l-17.38-32.88
		l-4.65-8.52c-0.5-0.98-1.06-1.92-1.69-2.82c0.34,1.04,0.78,2.05,1.31,3.01l4.28,8.67c3.94,7.69,9.61,18.77,16.89,33.14
		c15.01,28.79,36.41,70.27,62.99,121.48l209.88,399.63c82.06,156.01,156.12,297.38,209.13,400.05
		c26.5,51.32,47.75,92.94,62.2,121.85c7.25,14.42,12.76,25.68,16.44,33.37c2.1,3.8,3.82,7.8,5.11,11.94
		c-2.63-3.53-4.92-7.3-6.83-11.26c-4.17-7.51-10.21-18.43-17.87-32.66c-15.28-28.49-37.13-69.86-63.82-121.06
		C1269.13,1525.24,1196.16,1383.34,1115.86,1226.7z"/>
	<path class="st0" d="M1077.99,1241.34L939.47,813.1l-42.64-129.55c-5.11-15.01-9.12-26.99-11.86-35.14l-3.19-9.12
		c-0.32-1.05-0.73-2.07-1.24-3.04c0.19,1.08,0.47,2.15,0.82,3.19c0.68,2.18,1.61,5.22,2.82,9.2l11.26,35.32
		c10.1,30.71,24.63,75.08,42.53,129.58l142.65,426.96c55.78,166.6,106.05,317.54,141.74,427.04c17.91,54.65,32.1,99.1,41.71,129.73
		c4.8,15.35,8.45,27.33,10.81,35.47c1.45,4.07,2.49,8.27,3.11,12.54c-2.07-3.81-3.73-7.82-4.95-11.97
		c-2.93-7.96-7.1-19.78-12.35-34.99c-10.51-30.48-25.38-74.66-43.47-129.32C1180.99,1559.81,1131.93,1408.49,1077.99,1241.34z"/>
	<path class="st0" d="M1038.2,1250.16c-26.28-173.39-50.19-330.34-67.57-444.04c-8.9-56.72-16.11-102.6-21.14-134.46l-6-36.52
		c-0.71-4.09-1.28-7.25-1.69-9.5c-0.16-1.08-0.39-2.15-0.71-3.19c0.01,1.1,0.11,2.19,0.3,3.27c0.3,2.25,0.75,5.44,1.32,9.54
		c1.24,8.48,3.08,20.8,5.44,36.6c4.96,31.87,12.16,77.78,21.02,134.5c18.36,113.55,43.66,270.28,71.66,443.44
		c28,173.16,53.3,329.77,70.83,443.36c8.78,56.8,15.65,102.78,20.16,134.61c2.25,15.92,3.94,28.27,4.96,36.68
		c0.78,4.24,1.14,8.56,1.05,12.87c-1.3-4.06-2.19-8.23-2.67-12.46c-1.61-8.29-3.75-20.57-6.53-36.41
		c-5.44-31.68-12.99-77.59-22-134.35C1088.39,1580.42,1064.4,1423.51,1038.2,1250.16z"/>
	<path class="st0" d="M997.47,1252.97c1.61-175.27,3.08-334.09,4.17-448.85c0.22-57.36,0.45-103.79,0.56-136.04
		c0-15.99,0-28.42,0-36.97c0-4.17,0-7.51,0-9.61c-0.01-1.11-0.07-2.21-0.19-3.3c-0.17,1.08-0.25,2.17-0.22,3.27
		c0,2.29,0,5.48-0.23,9.65c0,8.56-0.26,20.98-0.45,36.97c0,32.25-0.41,78.83-0.68,136.04c0,114.94,0,273.58,0,448.85
		c0,175.27,0,333.87-0.79,448.7c-0.38,57.44-0.94,103.91-1.54,136.04c-0.3,16.03-0.64,28.53-0.97,36.98
		c0.07,4.31-0.26,8.62-0.98,12.87c-0.74-4.25-1.04-8.56-0.9-12.87c-0.22-8.48-0.45-20.95-0.6-37.01c-0.34-32.09-0.41-78.61-0.3-136
		C994.35,1586.69,995.7,1428.05,997.47,1252.97z"/>
	<path class="st0" d="M956.77,1249.41c29.62-172.9,56.31-329.36,75.9-442.95c9.42-56.61,17-102.44,22.3-134.27
		c2.51-15.77,4.47-28.08,5.82-36.56c0.6-4.09,1.05-7.24,1.39-9.5c0.34-2.25,0.38-3.27,0.34-3.27c-0.36,1.03-0.61,2.1-0.75,3.19
		c-0.45,2.25-1.01,5.37-1.8,9.46l-6.34,36.45c-5.33,31.83-12.99,77.67-22.52,134.27c-18.36,113.59-43.7,270.28-71.74,443.44
		c-28.04,173.17-53.19,329.89-72.41,443.29c-9.57,56.65-17.53,102.48-23.27,134.12c-2.85,15.8-5.18,28.08-6.87,36.38
		c-0.62,4.32-1.69,8.56-3.19,12.65c0-4.32,0.41-8.63,1.2-12.88c1.09-8.37,2.85-20.76,5.29-36.64c4.8-31.76,12.12-77.71,21.43-134.43
		C900.32,1578.69,927.01,1422.2,956.77,1249.41z"/>
	<path class="st0" d="M917.13,1239.76l146.7-425.61c18.47-54.47,33.45-98.58,43.81-129.21l11.64-35.21c1.28-3.94,2.21-7.02,2.93-9.2
		c0.36-1.03,0.65-2.09,0.86-3.15c-0.53,0.97-0.96,1.98-1.28,3.04c-0.79,2.14-1.88,5.14-3.27,9.08c-2.85,8.11-6.94,19.9-12.24,35.02
		l-43.88,129.24c-36.56,109.35-86.98,260.22-142.65,426.92c-55.67,166.71-106.08,317.5-143.36,426.47
		c-18.77,54.51-33.79,98.54-44.75,128.91c-5.41,15.01-9.68,26.95-12.69,34.87c-1.3,4.15-3,8.16-5.07,11.97
		c0.63-4.28,1.71-8.48,3.23-12.54c2.44-8.14,6.19-20.08,11.26-35.4c9.91-30.63,24.59-74.89,42.98-129.43
		C807.97,1556.32,859.74,1405.83,917.13,1239.76z"/>
	<path class="st0" d="M879.6,1224.22c83.45-155.37,159.01-295.99,213.97-397.91c27.03-50.98,48.8-92.23,64.15-120.87l17.19-33
		l4.39-8.63c0.53-0.96,0.99-1.97,1.35-3c-0.66,0.88-1.24,1.82-1.73,2.82l-4.73,8.45c-4.09,7.51-10.06,18.77-17.72,32.73
		l-64.27,120.84l-210.03,399.78c-81.87,156.09-156.24,297.34-210.67,399.26c-27.22,50.98-49.44,92.12-65.05,120.46
		c-7.77,14.15-13.89,25.11-18.17,32.51c-1.94,3.89-4.25,7.59-6.91,11.04c1.34-4.14,3.1-8.12,5.25-11.9
		c3.75-7.51,9.35-18.77,16.74-33.22c14.75-28.76,36.41-70.2,63.4-121.25C720.58,1520.13,796.04,1379.44,879.6,1224.22z"/>
	<path class="st0" d="M845.02,1203.12l275.12-360.37l82.85-109.65l22.3-30.03l5.71-7.84c0.68-0.87,1.28-1.8,1.8-2.78
		c-0.78,0.8-1.49,1.65-2.14,2.55l-6.01,7.51l-22.79,29.66l-82.88,109.57L847.2,1204.7c-105.97,141.74-202.11,269.94-272.3,362.32
		c-35.06,46.21-63.81,83.49-83.6,109.09c-9.99,12.84-17.79,22.52-23.16,29.36c-2.56,3.55-5.45,6.86-8.63,9.87
		c1.99-3.88,4.36-7.56,7.09-10.96c4.92-6.98,12.28-17.19,21.89-30.26c19.18-26.28,47.26-63.81,82.13-110.14
		C640.36,1471.26,737.51,1343.74,845.02,1203.12z"/>
	<path class="st0" d="M814.24,1177.07l329.47-314.5l99.4-95.8l26.8-26.28l6.91-6.91c0.83-0.74,1.58-1.55,2.25-2.44
		c-0.92,0.64-1.78,1.37-2.55,2.18l-7.17,6.64l-27.22,25.83l-99.48,95.69l-326.58,317.46c-127.33,123.88-242.84,236.08-326.96,316.75
		c-42.04,40.36-76.24,72.86-100.04,95.12c-11.9,11.26-21.21,19.75-27.59,25.49c-3.09,3.06-6.44,5.83-10.02,8.3
		c2.6-3.52,5.53-6.79,8.75-9.76c5.97-6.16,15.02-15.02,26.28-26.58c23.16-22.94,56.87-55.86,98.76-96.4
		C569.19,1411.01,685.56,1299.75,814.24,1177.07z"/>
	<path class="st0" d="M788,1146.66l375.84-260.93l113.52-79.47l30.67-21.89l7.92-5.78c0.92-0.63,1.8-1.32,2.63-2.07
		c-1,0.51-1.95,1.1-2.85,1.76l-8.14,5.44l-31.04,21.4l-113.56,79.51L789.81,1148.8c-145.65,103.23-277.79,196.51-373.7,263.48
		c-47.97,33.52-86.98,60.44-114.04,78.83c-13.55,9.2-24.1,16.29-31.34,20.98c-3.52,2.63-7.29,4.91-11.26,6.79
		c3.12-3.09,6.54-5.87,10.21-8.29c6.87-5.18,17.12-12.69,30.37-22.26c26.54-19.14,65.13-46.58,112.99-80.29
		C508.49,1340.7,641.26,1248.39,788,1146.66z"/>
	<path class="st0" d="M766.98,1112.65l413.22-200.57l124.93-61.37l33.79-16.93l8.75-4.5c1.02-0.47,1.99-1.03,2.89-1.69
		c-1.05,0.38-2.08,0.81-3.08,1.32l-8.93,4.17l-34.08,16.4l-124.97,61.3l-411.27,204.25c-160.44,79.84-305.86,151.92-411.46,203.49
		c-52.78,25.79-95.61,46.47-125.34,60.55c-15.02,7.02-26.28,12.43-34.31,15.95c-3.92,2.06-8.03,3.73-12.27,4.99
		c3.54-2.56,7.31-4.78,11.26-6.65c7.51-4.05,18.77-9.91,33.6-17.38c29.28-15.01,71.81-36.11,124.51-62.12
		C459.69,1261.83,605.87,1190.84,766.98,1112.65z"/>
	<path class="st0" d="M751.7,1075.9l440.51-134.92l133.3-41.52l36.15-11.56l9.35-3.12c1.09-0.3,2.15-0.7,3.15-1.2
		c-1.11,0.19-2.2,0.47-3.27,0.83l-9.49,2.74l-36.34,11l-133.3,41.29l-439.2,138.89c-171.4,54.32-326.59,103.27-439.2,138.03
		c-56.31,17.38-101.92,31.27-133.56,40.61c-15.8,4.69-28.12,8.22-36.49,10.51c-4.2,1.43-8.52,2.46-12.91,3.08
		c3.94-2.04,8.08-3.66,12.35-4.84c8.18-2.85,20.31-6.91,35.96-12.01c31.34-10.25,76.8-24.7,133.04-42.34
		C424.1,1176.21,579.59,1128.42,751.7,1075.9z"/>
	<path class="st0" d="M742.58,1037.2l456.88-65.77l138.33-20.64l37.54-5.86l9.76-1.65c1.12-0.13,2.23-0.37,3.3-0.72
		c-1.13,0.03-2.26,0.13-3.38,0.3l-9.8,1.28l-37.54,5.33l-138.37,20.5l-456.32,69.86c-178.04,27.44-339.31,52.03-456.2,69.15
		c-58.45,8.56-105.75,15.28-138.52,19.67c-16.37,2.22-29.09,3.75-37.54,4.84c-4.37,0.77-8.81,1.11-13.25,1.01
		c4.22-1.34,8.56-2.3,12.95-2.85c8.56-1.58,21.21-3.75,37.54-6.38c32.62-5.29,79.84-12.65,138.22-21.43
		C402.82,1086.19,564.27,1062.8,742.58,1037.2z"/>
	<path class="st0" d="M739.8,997.71l461.72,3.75l139.98,0.49h38.03h9.91c1.12,0.08,2.26,0.08,3.38,0c-1.12-0.17-2.25-0.25-3.38-0.22
		l-9.91-0.23l-37.91-0.94l-139.98-0.56l-461.72,0.26c-180.18,0.26-343.52,0.22-461.72-0.49c-59.09-0.34-106.91-0.82-139.94-1.42
		c-16.52-0.26-29.36-0.6-38.06-0.9c-4.44,0.09-8.87-0.23-13.25-0.98c4.38-0.68,8.82-0.97,13.25-0.86c8.71-0.23,21.55-0.45,38.06-0.6
		c33.07-0.34,80.9-0.49,139.98-0.38C396.33,994.82,559.54,996.02,739.8,997.71z"/>
	<path class="st0" d="M743.33,958.07l455.64,73.42l138.18,21.58l37.54,5.63l9.8,1.31c1.11,0.22,2.24,0.33,3.38,0.34
		c-1.08-0.32-2.19-0.56-3.3-0.71l-9.76-1.73l-37.54-6.16l-138.18-21.73L742.92,960.7c-178.12-26.8-339.38-51.65-456.13-70.2
		c-58.3-9.23-105.45-16.97-137.99-22.52c-16.29-2.78-28.9-5.03-37.54-6.68c-4.4-0.56-8.74-1.55-12.95-2.97
		c4.44-0.03,8.88,0.36,13.25,1.17c8.63,1.05,21.36,2.78,37.54,5.11c32.73,4.65,79.99,11.75,138.33,20.76
		C404.47,903.41,565.55,929.24,743.33,958.07z"/>
	<path class="st0" d="M753.2,919.55l438.04,142.31l132.96,42.49l36.26,11.26l9.46,2.81c1.06,0.36,2.15,0.64,3.26,0.83
		c-1.01-0.5-2.07-0.91-3.15-1.24l-9.35-3.15l-36.04-11.86l-132.92-42.57L752.26,922.07C580.72,868.2,425.68,819.18,313.33,783.18
		c-56.08-18.06-101.35-32.88-132.66-43.4c-15.62-5.22-27.74-9.38-35.89-12.31c-4.25-1.24-8.37-2.89-12.31-4.92
		c4.39,0.65,8.72,1.7,12.91,3.15c8.33,2.36,20.61,6.01,36.41,10.81c31.53,9.61,77.07,23.84,133.22,41.67
		C427.45,813.77,582.29,863.85,753.2,919.55z"/>
	<path class="st0" d="M769.19,883.03l409.54,207.51l124.44,62.31l33.78,16.71l8.9,4.24c1,0.5,2.03,0.94,3.08,1.32
		c-0.91-0.66-1.88-1.22-2.89-1.69l-8.71-4.58l-33.79-17.19l-124.4-62.39l-411.2-203.87c-160.67-79.47-306.01-151.65-410.93-204.51
		c-52.55-26.28-94.82-47.97-123.88-63.1c-14.56-7.51-25.86-13.51-33.45-17.64c-3.96-1.88-7.74-4.15-11.26-6.76
		c4.14,1.35,8.16,3.06,12.01,5.11c7.88,3.75,19.41,9.12,34.2,16.25c29.58,14.3,72.22,35.36,124.82,61.56
		C464.61,728.71,609.62,801.95,769.19,883.03z"/>
	<path class="st0" d="M790.89,849.43l371.1,267.16l112.88,80.44l30.86,21.66l8.11,5.52c0.9,0.66,1.84,1.26,2.82,1.8
		c-0.79-0.79-1.66-1.49-2.59-2.1l-7.85-5.86l-30.52-22.11l-112.8-80.48L789.28,851.57C643.37,748.68,511.49,655.28,416.26,587.15
		c-47.56-34.08-85.92-61.83-112.28-81.19c-13.18-9.69-23.39-17.27-30.03-22.52c-3.62-2.49-7.01-5.29-10.14-8.37
		c3.96,1.92,7.74,4.23,11.26,6.87c7.21,4.77,17.68,11.94,31.16,21.25c26.92,18.77,65.65,45.87,113.37,79.77
		C514.87,650.71,646.11,745.04,790.89,849.43z"/>
	<path class="st0" d="M817.7,819.52l323.84,320.02l98.73,96.51l27.03,26.05l7.1,6.72c0.79,0.78,1.63,1.5,2.51,2.18
		c-0.65-0.9-1.39-1.73-2.22-2.48l-6.83-6.95l-26.61-26.46l-98.58-96.59L815.74,821.28C688.11,697.4,572.68,585.43,489.61,503.71
		c-41.4-40.77-75-73.95-97.94-97.08c-11.49-11.56-20.31-20.61-26.28-26.8c-3.19-2.98-6.1-6.26-8.67-9.8
		c3.6,2.51,6.96,5.35,10.02,8.48c6.38,5.82,15.61,14.49,27.4,25.71c23.61,22.52,57.55,55.26,99.25,95.91
		C576.81,581.49,691.38,694.51,817.7,819.52z"/>
	<path class="st0" d="M848.93,793.99l268.7,365.14l81.98,110.25l22.52,29.84l5.93,7.51c0.65,0.91,1.36,1.76,2.14,2.55
		c-0.5-0.99-1.11-1.92-1.8-2.78c-1.3-1.88-3.18-4.5-5.63-7.88l-22.04-30.03l-81.91-110.29L846.71,795.6
		C740.4,654.12,644.34,525.85,575.38,432.57c-34.5-46.74-62.24-84.5-81.19-110.81c-9.5-13.18-16.78-23.42-21.62-30.44
		c-2.7-3.42-5.05-7.11-7.02-11c3.16,3.03,6.02,6.35,8.56,9.91c5.33,6.68,13.06,16.63,22.9,29.54
		c19.75,25.75,48.01,63.25,82.59,109.73C649.11,522.48,744.19,651.42,848.93,793.99z"/>
	<path class="st0" d="M883.91,773.53l206.65,401.66l63.36,121.14l17.46,32.88l4.65,8.48c0.49,0.99,1.06,1.94,1.69,2.85
		c-0.34-1.05-0.78-2.07-1.31-3.04c-1.05-2.03-2.44-4.92-4.32-8.63l-16.89-33.14l-63.18-121.4
		c-53.87-102.37-128.23-243.55-210.4-399.6s-156.5-297.15-209.61-399.75c-26.73-51.32-48.05-92.91-62.39-121.77
		c-7.25-14.45-12.8-25.68-16.44-33.37c-2.12-3.79-3.85-7.79-5.15-11.94c2.61,3.54,4.9,7.31,6.83,11.26
		c4.17,7.51,10.21,18.43,17.9,32.66c15.35,28.45,37.2,69.75,63.82,120.95C730.23,474.99,803.36,616.81,883.91,773.53z"/>
	<path class="st0" d="M921.75,758.67c54.28,167.16,103.45,318.4,138.89,427.94l42.79,129.51c5.14,15.01,9.16,26.99,11.9,35.13
		l3.23,9.09c0.32,1.06,0.74,2.09,1.24,3.08c-0.18-1.09-0.46-2.15-0.82-3.19l-2.85-9.23c-2.63-8.18-6.46-20.04-11.26-35.29
		l-42.72-129.55c-36.64-109.31-87.24-260.14-143.13-426.77c-55.9-166.63-106.31-317.24-142.16-426.74
		c-17.94-54.73-32.25-99.06-41.89-129.81c-4.84-15.35-8.48-27.29-10.85-35.44c-1.5-4.07-2.55-8.28-3.15-12.58
		c2.03,3.84,3.69,7.86,4.96,12.01c2.93,7.96,7.13,19.75,12.39,34.99c10.55,30.41,25.49,74.59,43.66,129.24
		C818.3,440.34,867.58,591.58,921.75,758.67z"/>
	<path class="st0" d="M961.51,749.96c26.58,173.39,50.64,330.34,68.06,444c9.01,56.68,16.29,102.55,21.32,134.42
		c2.63,15.77,4.66,28.04,6.08,36.53c0.73,4.05,1.29,7.21,1.69,9.46c0.15,1.09,0.39,2.17,0.71,3.23c-0.01-1.09-0.11-2.19-0.3-3.27
		c-0.3-2.29-0.75-5.44-1.31-9.54l-5.48-36.75c-5.03-31.87-12.28-77.78-21.21-134.46c-18.5-113.55-44.03-270.28-72.22-443.36
		C930.65,577.13,905.08,420.45,887.4,307c-8.86-56.76-15.8-102.74-20.35-134.58c-2.29-15.92-3.94-28.27-4.99-36.68
		c-0.78-4.25-1.14-8.56-1.05-12.88c1.37,4.09,2.35,8.3,2.93,12.58c1.61,8.33,3.75,20.61,6.61,36.45
		c5.48,31.68,13.06,77.55,22.15,134.31C910.9,419.62,935.08,576.49,961.51,749.96z"/>
	<path class="st0" d="M1002.24,747.03c-1.39,175.31-2.67,334.09-3.75,448.88c0,57.36-0.3,103.8-0.41,136.04c0,15.95,0,28.38,0,36.97
		c0,4.13,0,7.32,0,9.61c-0.06,1.09-0.06,2.18,0,3.27c0.18-1.08,0.25-2.17,0.23-3.27c0-2.29,0-5.48,0.22-9.61
		c0-8.6,0.22-21.02,0.41-36.97c0-32.25,0.26-78.83,0.49-136.04c0-114.98-0.34-273.58-0.56-448.88
		c-0.23-175.3-0.41-333.83,0.22-448.7c0.3-57.43,0.79-103.91,1.35-136c0.3-16.07,0.6-28.53,0.94-36.98
		c-0.12-4.33,0.21-8.65,0.98-12.91c0.69,4.27,0.99,8.59,0.9,12.91c0.26,8.45,0.49,20.91,0.64,36.98
		c0.37,32.13,0.52,78.61,0.45,136.04C1004.9,413.2,1003.77,571.88,1002.24,747.03z"/>
	<path class="st0" d="M1042.96,750.44c-29.43,172.94-56.04,329.44-75.34,442.95c-9.35,56.65-16.89,102.48-22.15,134.31
		c-2.48,15.8-4.39,28.08-5.74,36.56c-0.6,4.09-1.05,7.28-1.35,9.53c-0.21,1.08-0.33,2.17-0.34,3.27c0.32-1.04,0.57-2.11,0.75-3.19
		c0.41-2.25,0.97-5.41,1.73-9.5c1.5-8.45,3.75-20.69,6.34-36.45c5.25-31.83,12.88-77.67,22.26-134.31
		c18.21-113.59,43.36-270.28,71.32-443.51c27.97-173.24,52.7-329.93,71.74-443.1c9.46-56.68,17.38-102.52,23.08-134.16
		c2.85-15.8,5.14-28.08,6.83-36.37c0.61-4.29,1.62-8.52,3.04-12.61c0.05,4.33-0.34,8.66-1.16,12.91
		c-1.09,8.37-2.85,20.72-5.25,36.64c-4.77,31.76-12.01,77.7-21.29,134.43C1098.97,421.08,1072.51,577.62,1042.96,750.44z"/>
	<path class="st0" d="M1082.6,760.02c-57.09,166.3-108.86,316.75-146.17,425.84c-18.39,54.47-33.26,98.61-43.62,129.24
		c-4.99,15.2-8.89,27.07-11.6,35.21c-1.24,3.98-2.21,7.02-2.89,9.2c-0.36,1.04-0.65,2.11-0.86,3.19c0.53-0.97,0.96-1.99,1.28-3.04
		c0.79-2.18,1.84-5.18,3.26-9.08l12.16-35.06l43.73-129.21c36.41-109.39,86.6-260.33,142.12-427.11
		c55.52-166.78,105.67-317.65,142.65-426.66c18.54-54.54,33.78-98.58,44.56-128.94c5.37-15.2,9.65-26.95,12.65-34.91
		c1.35-4.09,3.09-8.05,5.18-11.82c-0.63,4.29-1.7,8.5-3.19,12.58c-2.44,8.11-6.19,20.05-11.26,35.36
		c-9.87,30.67-24.47,75.08-42.79,129.51C1191.47,443.34,1139.77,593.87,1082.6,760.02z"/>
	<path class="st0" d="M1120.14,775.56c-83.3,155.45-158.64,296.18-213.26,398.13c-26.99,51.01-48.8,92.31-64.04,120.99
		c-7.51,14.26-13.18,25.34-17.15,33c-1.88,3.75-3.3,6.61-4.36,8.63c-0.53,0.98-0.98,1.99-1.35,3.04c0.64-0.91,1.22-1.86,1.73-2.85
		c1.13-1.99,2.67-4.81,4.69-8.45l17.68-32.77l64.12-120.91l209.58-400.01c81.65-156.2,155.78-297.53,210.21-399.52
		c27.14-51.01,49.29-92.19,64.86-120.54c7.77-14.19,13.85-25.15,18.13-32.55c1.93-3.9,4.24-7.6,6.91-11.04
		c-1.38,4.12-3.14,8.1-5.25,11.9c-3.75,7.51-9.35,18.77-16.7,33.22c-14.79,28.64-36.38,70.23-63.33,121.36
		C1278.78,479.42,1203.52,620.19,1120.14,775.56z"/>
	<path class="st0" d="M1154.75,796.58l-274.67,360.89c-34.87,46.25-63.06,83.71-82.59,109.72c-9.61,12.99-17.12,23.05-22.26,30.03
		l-5.71,7.85c-0.68,0.88-1.3,1.81-1.84,2.78c0.8-0.79,1.53-1.64,2.17-2.55l6.01-7.51c5.25-6.91,12.91-16.85,22.52-29.65
		l82.77-109.73L1152.58,795c105.78-141.9,201.77-270.28,271.82-362.7c35.02-46.21,63.63-83.52,83.45-109.16
		c9.99-12.8,17.75-22.52,23.16-29.35c2.55-3.56,5.42-6.86,8.6-9.87c-2,3.87-4.36,7.54-7.06,10.96
		c-4.92,6.98-12.28,17.19-21.85,30.29c-19.18,26.28-47.18,63.82-81.98,110.25C1359.07,528.22,1262.07,655.81,1154.75,796.58z"/>
	<path class="st0" d="M1185.57,822.63l-329.1,314.95l-99.21,95.91l-26.8,26.28l-6.87,6.91c-0.82,0.75-1.57,1.57-2.25,2.44
		c0.9-0.64,1.74-1.35,2.51-2.14l7.17-6.65l27.18-25.9c23.57-22.71,57.47-55.4,99.33-95.84l326.13-317.84
		c127.18-124.18,242.54-236.49,326.58-317.2c41.97-40.39,76.09-72.9,99.89-95.2c11.86-11.26,21.17-19.74,27.55-25.53
		c3.09-3.12,6.46-5.94,10.06-8.45c-2.57,3.54-5.5,6.82-8.75,9.76c-5.93,6.16-15.02,15.02-26.28,26.61
		c-23.09,22.97-56.79,55.97-98.61,96.51C1430.32,588.54,1314.1,699.81,1185.57,822.63z"/>
	<path class="st0" d="M1211.85,852.96l-375.39,261.38l-113.4,79.77L692.2,1216l-7.88,5.78c-0.93,0.63-1.8,1.34-2.63,2.1
		c1-0.51,1.95-1.1,2.85-1.76l8.14-5.48l31.01-21.43l113.44-79.69l373.1-264.69c145.5-103.42,277.41-196.85,373.32-263.93
		c47.97-33.56,86.9-60.55,113.97-78.83c13.51-9.23,24.1-16.33,31.31-21.06c3.52-2.63,7.29-4.9,11.26-6.79
		c-3.11,3.09-6.52,5.87-10.17,8.3c-6.91,5.18-17.12,12.72-30.37,22.3c-26.5,19.18-65.09,46.7-112.88,80.44
		C1491.1,658.59,1358.47,751.08,1211.85,852.96z"/>
	<path class="st0" d="M1232.76,886.93l-412.92,201.13l-124.82,61.53l-33.78,16.97l-8.75,4.54c-1.02,0.45-1.99,1-2.89,1.65
		c1.06-0.36,2.09-0.8,3.08-1.31l8.93-4.17l34.09-16.48l124.85-61.45c105.11-52.55,250.53-124.78,411.01-204.77
		c160.48-79.99,305.68-152.29,411.2-203.98c52.78-25.83,95.57-46.58,125.27-60.7c14.83-7.06,26.28-12.43,34.31-15.99
		c3.92-2.03,8.02-3.71,12.24-5.03c-3.52,2.59-7.29,4.83-11.26,6.68c-7.51,4.05-18.96,9.95-33.6,17.42
		c-29.28,15.02-71.77,36.22-124.4,62.28C1540.01,737.38,1394.17,808.59,1232.76,886.93z"/>
	<path class="st0" d="M1248.22,923.72L807.9,1059.16l-133.23,41.71l-36.15,11.6l-9.35,3.12c-1.09,0.3-2.14,0.7-3.15,1.2
		c1.11-0.19,2.2-0.46,3.26-0.83l9.5-2.74l36.3-11.04l133.26-41.59l439.2-139.38c171.29-54.55,326.58-103.68,439.2-138.59
		c56.31-17.46,101.92-31.42,133.53-40.8c15.8-4.69,28.11-8.26,36.49-10.55c4.2-1.43,8.52-2.46,12.91-3.08
		c-3.96,1.99-8.1,3.61-12.35,4.84c-8.18,2.86-20.31,6.91-35.96,12.05c-31.34,10.29-76.76,24.81-132.96,42.49
		C1575.71,822.97,1420.11,870.98,1248.22,923.72z"/>
	<path class="st0" d="M1257.38,962.39l-456.77,66.4l-138.44,20.8l-37.54,5.93l-9.76,1.65c-1.12,0.15-2.22,0.39-3.3,0.71
		c1.13-0.01,2.26-0.11,3.38-0.3l9.8-1.28l37.54-5.37l138.33-20.68l456.13-70.5c178.01-27.67,339.23-52.55,456.09-69.71
		c58.41-8.64,105.71-15.43,138.44-19.86c16.37-2.21,29.09-3.75,37.73-4.84c4.39-0.76,8.83-1.12,13.29-1.09
		c-4.23,1.38-8.58,2.35-12.99,2.89c-8.56,1.58-21.17,3.75-37.54,6.42c-32.58,5.37-79.77,12.76-138.18,21.62
		C1597.11,912.99,1435.69,936.6,1257.38,962.39z"/>
	<path class="st1" d="M1190.3,1592.88c-2.69-8.17-6.48-15.94-11.26-23.09c-2.4-3.56-5.48-6.61-9.08-8.95
		c-3.6-2.34-7.63-3.93-11.86-4.68c-4.26-0.61-8.6,0.2-12.35,2.31c-3.75,2.11-6.69,5.4-8.37,9.37c-1.2-18.28-3.75-37.05-12.95-52.93
		c-9.2-15.88-26.28-28.34-44.52-27.22c-17.23,1.05-32.02,13.85-40.2,29.05c-8.18,15.2-11.04,32.66-13.7,49.74
		c-6.53-8.04-20.35-5.52-27.18,2.25c-6.83,7.77-8.56,18.77-9.99,28.9h205.64L1190.3,1592.88z"/>
	<path class="st0" d="M928.32,475.93c-5.4-14.41-10.92-29.02-20.01-41.29c-9.08-12.28-22.34-22.52-37.54-24.48
		c-15.2-1.95-32.17,6.08-37.28,20.72c-2.18-32.85-6.83-66.52-23.27-95.01s-47.07-50.9-79.92-48.8
		c-30.93,1.88-57.44,24.89-72.19,52.18c-14.75,27.29-19.78,58.6-24.62,89.23c-11.71-14.38-36.49-9.87-48.8,4.09
		c-12.31,13.97-15.35,33.52-17.94,51.92H936.2L928.32,475.93z"/>
	<path class="st1" d="M1558.14,416.39c-3.3-10.05-7.94-19.61-13.82-28.42c-2.95-4.39-6.77-8.15-11.2-11.03
		c-4.44-2.89-9.41-4.86-14.62-5.78c-10.47-1.28-22.07,4.39-25.49,14.38c-1.5-22.52-4.69-45.61-15.95-65.13
		c-11.26-19.52-32.28-34.91-54.81-33.52c-21.21,1.28-39.42,17.08-49.51,35.77c-10.1,18.69-13.55,40.2-16.86,61.19
		c-8.07-9.87-25.04-6.76-33.45,2.82s-10.51,22.97-12.31,35.59h253.16L1558.14,416.39z"/>
	<path class="st1" d="M1163.76,259.93c-2.14-6.64-5.19-12.96-9.05-18.77c-1.92-2.94-4.43-5.45-7.36-7.39
		c-2.93-1.94-6.23-3.25-9.68-3.87c-3.47-0.49-7,0.18-10.05,1.9c-3.05,1.72-5.44,4.41-6.81,7.63c-0.98-15.02-3.08-30.03-10.51-43.02
		c-7.43-12.99-21.36-23.05-36.22-22.15c-14,0.86-26.01,11.26-32.69,23.65c-6.68,12.39-8.97,26.54-11.26,40.43
		c-5.33-6.53-16.55-4.47-22.07,1.84c-5.52,6.31-6.98,15.02-8.15,23.5h167.24L1163.76,259.93z"/>
	<path class="st2" d="M536.68,284.18c-2.16-6.63-5.21-12.95-9.05-18.77c-1.93-2.94-4.43-5.45-7.36-7.38
		c-2.93-1.94-6.22-3.26-9.68-3.88c-3.46-0.51-7,0.15-10.05,1.87c-3.05,1.72-5.44,4.4-6.8,7.63c-1.01-15.02-3.11-30.03-10.55-43.06
		c-7.43-13.03-21.32-23.05-36.18-22.15c-14.04,0.86-26.05,11.26-32.7,23.65c-6.65,12.39-8.97,26.73-11.15,40.62
		c-5.29-6.53-16.52-4.47-22.07,1.84c-5.56,6.31-6.98,15.2-8.18,23.69h167.27L536.68,284.18z"/>
	<path class="st2" d="M1204.9,554.42c-2.15-6.64-5.2-12.95-9.05-18.77c-1.93-2.93-4.44-5.44-7.37-7.37
		c-2.93-1.94-6.22-3.26-9.67-3.89c-3.46-0.5-7,0.16-10.04,1.88c-3.05,1.72-5.44,4.4-6.81,7.62c-0.98-15.02-3.12-30.03-10.55-43.02
		c-7.43-12.99-21.32-23.05-36.19-22.15c-14.04,0.86-26.05,11.26-32.7,23.65c-6.64,12.39-8.97,26.54-11.26,40.39
		c-5.33-6.49-16.55-4.47-22.11,1.88c-5.55,6.35-6.94,15.02-8.11,23.5h167.23L1204.9,554.42z"/>
	<path class="st2" d="M1814.6,293c-2.16-6.64-5.2-12.95-9.05-18.77c-1.94-2.93-4.45-5.44-7.39-7.38c-2.94-1.94-6.23-3.26-9.69-3.88
		c-3.46-0.49-6.98,0.17-10.02,1.89c-3.04,1.72-5.43,4.39-6.79,7.61c-1.01-15.02-3.12-30.03-10.55-43.02
		c-7.43-12.99-21.32-23.05-36.19-22.15c-14.04,0.86-26.05,11.26-32.73,23.65c-6.68,12.39-8.93,26.54-11.26,40.43
		c-5.29-6.53-16.52-4.5-22.07,1.84c-5.56,6.34-6.95,15.02-8.15,23.5h167.27L1814.6,293z"/>
	<path class="st2" d="M1590.23,1797.28c-3.08-9.56-7.46-18.66-13.03-27.03c-2.8-4.17-6.42-7.73-10.63-10.46
		c-4.21-2.74-8.94-4.59-13.88-5.45c-9.95-1.24-20.98,4.13-24.21,13.63c-1.42-21.4-4.46-43.32-15.01-61.9
		c-10.55-18.58-30.71-33.15-52.1-31.87c-20.16,1.24-37.54,16.21-47.04,34.01c-9.5,17.79-12.91,38.21-16.07,58.18
		c-7.51-9.38-23.76-6.46-31.76,2.67c-8,9.12-10.02,21.81-11.71,33.79h240.62L1590.23,1797.28z"/>
	<path class="st2" d="M357.21,1579.22c-2.68-8.27-6.47-16.14-11.26-23.39c-2.43-3.61-5.56-6.69-9.2-9.06
		c-3.64-2.37-7.73-3.99-12.01-4.75c-4.31-0.62-8.71,0.2-12.5,2.34c-3.8,2.14-6.78,5.47-8.48,9.48c-1.24-18.51-3.75-37.54-13.1-53.57
		c-9.35-16.03-26.54-28.68-45.05-27.55c-17.46,1.09-32.4,14.04-40.73,29.43s-11.26,33.03-13.85,50.3
		c-6.61-8.11-20.61-5.56-27.52,2.33c-6.91,7.88-8.63,18.77-10.1,29.24h208.11L357.21,1579.22z"/>
	<path class="st0" d="M1803.34,767.64c-4.24-13.12-10.25-25.6-17.87-37.09c-8.14-11.26-20.01-20.27-33.79-21.92
		c-13.78-1.65-28.83,5.71-33.29,18.77c-1.95-29.35-6.12-59.5-20.83-85.02c-14.72-25.53-42.16-45.53-71.55-43.73
		c-27.7,1.69-51.43,22.26-64.6,46.7c-13.18,24.44-17.72,52.55-22.04,79.88c-10.51-12.88-32.7-8.82-43.66,3.75
		c-10.96,12.57-13.74,30.03-16.07,46.44h330.34L1803.34,767.64z"/>
	<path class="st0" d="M900.13,1729.26c-5.71-15.32-11.56-30.82-21.17-44c-9.61-13.18-23.72-23.95-39.9-25.94
		c-16.18-1.99-34.16,6.76-39.45,22.19c-2.33-34.8-7.25-70.5-24.66-100.72c-17.42-30.22-49.96-53.79-84.76-51.84
		c-32.85,1.99-60.96,26.28-76.58,55.33c-15.62,29.05-20.98,62.16-26.28,94.63c-12.43-15.24-38.7-10.47-51.69,4.36
		c-12.99,14.83-16.29,35.51-19.03,55.03h391.71L900.13,1729.26z"/>
	<path class="st0" d="M456.35,1175.23c-3.37-10.35-8.13-20.21-14.15-29.28c-3.03-4.53-6.94-8.4-11.51-11.38
		c-4.57-2.98-9.69-4.99-15.06-5.93c-10.81-1.32-22.75,4.5-26.28,14.79c-1.54-23.2-4.84-47-16.44-67.12
		c-11.6-20.12-33.3-35.96-56.31-34.54c-21.89,1.32-40.62,17.57-51.01,36.86c-10.4,19.29-14,41.29-17.42,63.07
		c-8.3-10.17-25.79-6.98-34.46,2.89c-8.67,9.87-10.85,23.69-12.69,36.68h260.97L456.35,1175.23z"/>
	<path class="st0" d="M1665.13,1499.64c-4.13-12.78-9.99-24.93-17.42-36.11c-7.92-10.85-19.48-19.71-32.77-21.32
		c-13.29-1.61-28.08,5.56-32.4,18.24c-1.92-28.6-5.97-57.96-20.31-82.58c-14.34-24.63-41.03-44.37-69.63-42.61
		c-26.95,1.65-50.08,21.7-62.91,45.46s-17.23,51.09-21.43,77.78c-10.25-12.54-31.83-8.6-42.49,3.57
		c-10.66,12.16-13.36,29.17-15.65,45.05h321.85L1665.13,1499.64z"/>
	<path class="st3" d="M1592.56,440.75c0.3,0.45-60.33,41.29-135.36,91.48c-75.04,50.19-136.19,90.35-136.49,90.09
		c-0.3-0.26,60.32-41.29,135.4-91.52C1531.19,480.58,1592.26,440.3,1592.56,440.75z"/>
	<path class="st3" d="M1570.34,526.75c0.3,0.45-22.18,16.14-50.22,35.02c-28.04,18.88-50.98,33.79-51.28,33.41
		c-0.3-0.37,22.15-16.14,50.19-35.02C1547.07,541.28,1570.04,526.3,1570.34,526.75z"/>
	<path class="st3" d="M380.3,1300.08c-0.3-0.41,43.51-30.33,97.82-66.74c54.32-36.41,98.65-65.58,98.95-65.13
		c0.3,0.45-43.51,30.33-97.86,66.74C424.85,1271.37,380.63,1300.53,380.3,1300.08z"/>
	<path class="st3" d="M617.13,1234.84c0.3,0.45-78.46,55.41-175.91,122.71c-97.45,67.31-176.95,121.59-177.18,121.14
		c-0.23-0.45,78.42-55.37,175.9-122.75S616.64,1234.39,617.13,1234.84z"/>
	<path class="st3" d="M588.11,1350.57c0.3,0.45-28.94,21.4-65.36,46.81s-66.14,45.65-66.44,45.04c-0.3-0.6,28.94-21.39,65.35-46.81
		C558.08,1370.2,587.81,1350.01,588.11,1350.57z"/>
	<path class="st4" d="M1195.22,1401.55c-26.67-13.4-50.3-32.14-69.41-55.07c-4.96-6.01-9.62-12.27-13.93-18.77
		c-3.19-4.8-10.43-13.06-11.26-18.77c-1.5-11.26,17-23.42,25.98-26.61c8.97-3.19,27.67-5.41,34.65,2.48
		c5.52,6.23,6.19,22.11,9.01,30.03c8.04,22.77,20.06,43.92,35.51,62.47c3.56,3.63,6.34,7.95,8.18,12.69c0.87,2.39,0.92,5,0.14,7.43
		c-0.78,2.42-2.33,4.52-4.42,5.97C1205.32,1405.94,1199.83,1403.84,1195.22,1401.55z"/>
	<path class="st5" d="M1901.35,913.02c-106.55,20.89-216.31,18.94-322.04-5.71c-26.99-6.34-94.03-21.55-121.29-10.66
		c-13.92,5.59-26.91,15.8-40.2,24.55c-47.71,31.38-61.56,51.54-111.86,43.69l-87.69,294.6c25.9-32.77,52.33-66.03,83.26-87.62
		c30.93-21.58,67.57-30.03,97.37-11.71c36.04,22.52,83.52,105.93,117.04,87.62c24.51-12.39-4.39-82.4-6.53-85.89
		c24.55,39.94,75.49,118.28,116.89,75.34c11.45-18.99-11.97-68.06-11.97-68.06c20.35,32.02,49.29,47.75,74.78,45.23
		c21.66-2.1,33.26-29.28,21.36-49.21c-5.06-8.55-11.11-16.48-18.02-23.61c26.28,25.04,60.92,35.06,97.26,19.74
		c29.13-12.27,28.6-52.14,9.8-75.08l-30.03-33.3C1828.91,1044.63,1881.83,991.22,1901.35,913.02z"/>
	<g class="st6">
		<path d="M1357.8,960.73l-27.44,5.74l-28.76,205.41c0,0,21.62-14.49,32.58-16.93c14.6-25.84,24.25-54.18,28.46-83.56
			C1367.9,1034.42,1371.87,995.34,1357.8,960.73z"/>
	</g>
	<g class="st6">
		<path d="M1654.5,1096.51c-19.2-3.07-36.88-12.29-50.38-26.28c1.86,9.24,2.64,18.66,2.33,28.08c-0.27,9.36-3.83,18.32-10.06,25.3
			c-9.95,9.98-24.44,8.45-36.6,1.99c-12.38-6.91-23.05-16.5-31.23-28.08c-8.45-11.53-18.51-25-26.88-35.7
			c1.43,14.11,7.51,34.46,9.39,48.46c1.99,15.88,3.53,28.27-5.11,38.93c-8.07,9.99-14.38,9.8-26.05,5.82
			c-11.68-3.98-32.85-24.4-42.31-32.88l-16.48-20.42c10.93,30.45,32.84,55.72,61.45,70.83c11.56,5.86,26.09,9.39,36.34,1.13
			c11.03-8.86,11.49-26.28,10.89-41.29c12.12,7.51,24.44,15.02,37.95,18.28c13.51,3.26,28.64,2.33,39.94-6.42
			c11.3-8.75,17.38-26.28,11.26-39.9c15.24,7.17,31.91,11.86,48.43,9.98c8.52-0.84,16.71-3.71,23.89-8.37
			c7.19-4.66,13.15-10.97,17.4-18.4C1691.76,1095.43,1673.03,1098.52,1654.5,1096.51z"/>
	</g>
	<path class="st3" d="M1728.26,1073.28l-0.45,0.45l-1.39,1.28c-1.28,1.09-3,2.85-5.59,4.8c-7.46,5.65-15.79,10.06-24.66,13.03
		l-4.43,1.47c-1.54,0.45-3.15,0.71-4.77,1.09c-1.61,0.38-3.3,0.79-5.03,1.05l-5.33,0.64c-1.84,0.27-3.7,0.41-5.56,0.41
		c-1.88,0-3.75,0-5.78,0c-4.09-0.13-8.16-0.5-12.2-1.13c-4.31-0.67-8.57-1.61-12.76-2.82c-4.38-1.44-8.67-3.16-12.84-5.14
		c-8.98-4.36-17.15-10.21-24.17-17.31l1.42-0.75c2.63,10.46,3.66,21.25,3.04,32.02c-0.57,5.76-2.32,11.35-5.14,16.4
		c-2.88,5.39-7.62,9.56-13.32,11.75c-5.95,1.86-12.33,1.86-18.28,0c-6.05-1.6-11.81-4.13-17.08-7.51
		c-10.48-7.35-19.81-16.2-27.7-26.28c-10.32-12.79-19.28-26.63-26.73-41.29l1.8-0.64c3.45,15.95,6.64,31.46,9.35,46.47
		c1.53,7.34,2.39,14.8,2.59,22.3c-0.05,7.26-1.76,14.41-4.99,20.91c-1.48,3.17-3.68,5.94-6.43,8.12c-2.74,2.17-5.95,3.67-9.38,4.38
		c-6.53,0.74-13.13-0.69-18.77-4.05c-9.76-5.69-18.61-12.8-26.28-21.1c-11.06-11.72-21.21-24.27-30.37-37.54
		c-3.27-4.65-5.67-8.3-7.28-10.77l-1.8-2.85c-0.43-0.63-0.61-0.96-0.56-1.01l0.71,0.9l1.91,2.74l7.51,10.58
		c9.33,13.09,19.6,25.5,30.71,37.13c7.71,8.12,16.56,15.08,26.28,20.64c5.34,3.11,11.54,4.43,17.68,3.75
		c3.18-0.67,6.16-2.07,8.69-4.1c2.54-2.03,4.56-4.62,5.91-7.58c3.09-6.27,4.71-13.17,4.73-20.16c-0.25-7.38-1.13-14.73-2.63-21.96
		c-2.74-15.02-5.97-30.41-9.42-46.36c-0.06-0.25-0.01-0.51,0.12-0.73c0.13-0.22,0.34-0.37,0.59-0.44c0.21-0.03,0.43,0,0.63,0.09
		c0.2,0.09,0.36,0.24,0.46,0.43c7.37,14.43,16.2,28.06,26.35,40.69c7.77,9.95,16.96,18.71,27.25,26.01
		c5.08,3.34,10.66,5.88,16.52,7.51c5.58,1.75,11.57,1.75,17.15,0c5.3-2.04,9.68-5.92,12.35-10.92c2.73-4.82,4.43-10.15,4.99-15.65
		c0.6-10.58-0.39-21.2-2.93-31.5c-0.04-0.22,0-0.45,0.13-0.64c0.13-0.19,0.32-0.32,0.55-0.37c0.14-0.01,0.28,0,0.41,0.05
		c0.13,0.05,0.25,0.12,0.34,0.22c6.88,6.97,14.87,12.74,23.65,17.08c4.08,2,8.29,3.7,12.61,5.11c4.11,1.22,8.3,2.18,12.54,2.85
		c3.96,0.66,7.96,1.07,11.97,1.24h5.74c1.83,0,3.66-0.11,5.48-0.34l5.25-0.6c1.73-0.23,3.38-0.68,4.99-0.98
		c1.61-0.3,3.19-0.6,4.73-1.05l4.39-1.35c8.82-2.88,17.14-7.1,24.66-12.54c2.59-1.88,4.39-3.57,5.74-4.58l1.47-1.16
		C1727.96,1073.39,1728.26,1073.24,1728.26,1073.28z"/>
	<g class="st6">
		<path d="M1484.49,974.51c-6.38,8.41-13.82,10.29-22.15,17.34l-69.56,48.5c21.32-11.6,45.38-21.17,66.71-32.77
			c5.68-4.23,12.43-6.79,19.48-7.39c7.06-0.6,14.14,0.77,20.46,3.98c35.74,12.01,72.23,22.52,109.58,24.47
			c37.35,1.95,75.79-4.65,108-25.34C1637.87,1023.69,1556.79,1015.35,1484.49,974.51z"/>
	</g>
	<path class="st3" d="M1786.6,976.65l-1.01,0.56l-3.08,1.58l-11.94,5.82c-5.22,2.4-11.82,4.88-19.37,8.03
		c-3.76,1.35-8.04,2.7-12.43,4.2l-6.79,2.25l-7.28,1.99c-23.32,6.56-47.31,10.46-71.51,11.64c-29.59,1.4-59.22-1.12-88.14-7.51
		c-28.15-6.36-55.32-16.46-80.78-30.03h0.98c-26.38,21.23-53.88,41.06-82.36,59.39c-10.47,6.76-18.77,11.86-24.7,15.32l-6.68,3.75
		l-1.73,0.98c-0.41,0.23-0.6,0.3-0.64,0.26l0.56-0.41l1.65-1.09l6.53-4.09c5.71-3.75,14.04-8.9,24.4-15.73
		c20.76-13.7,49.7-33.79,81.83-60.06l0.45-0.38l0.53,0.3c25.5,13.31,52.65,23.18,80.74,29.36c28.65,6.46,58.01,9.16,87.35,8.03
		c24.03-1.12,47.86-4.9,71.06-11.26l7.28-1.88l6.79-2.21l12.43-4.05c7.51-3.01,14.19-5.41,19.44-7.7l12.05-5.48l3.15-1.35
		C1785.79,976.75,1786.19,976.67,1786.6,976.65z"/>
	<path class="st5" d="M669.08,691.51c-8.97-13.44-17.05-28.12-28.12-38.97c-21.55-21.17-92.98-35.02-121.85-40.39
		c-112.16-20.82-218.9-64.24-313.75-127.63c-15.43,79.24,12.35,149.74,66.11,181.8l-43.58,17.94
		c-28.27,13.14-46.21,49.06-23.46,72.3c28.38,28.98,66.22,34.12,102.63,22.22c-9.77,3.6-19.09,8.31-27.78,14.04
		c-20.2,13.21-20.95,42.75-0.9,53.64c23.42,12.8,58.37,10.47,92.08-10.17c0,0-44.15,35.02-41.29,57.06
		c21.21,56.31,104.81,5.93,146.02-20.35c-3.75,2.29-62.2,54.13-43.99,75.57c24.36,30.48,106.83-25.86,151.54-31.46
		c36.83-4.58,68.55,18.43,88.97,50.9c20.42,32.47,31.38,73.61,42.08,114.19l75.79-298.88C737.25,769.59,701.44,739.82,669.08,691.51
		z"/>
	<g class="st6">
		<path d="M363.52,753.37c19.88,5.06,40.84,3.94,60.06-3.23c-5.8,7.6-10.69,15.85-14.57,24.59c-3.84,8.58-4.32,18.29-1.35,27.22
			c5.22,13.18,19.9,17.76,34.46,16.93c14.97-1.11,29.52-5.41,42.68-12.61c13.22-6.98,28.87-15.02,41.67-21.4
			c-7.51,12.28-22.52,28.23-30.33,40.24c-8.86,13.66-15.8,24.33-12.16,37.54c3.45,12.43,9.65,15.02,22.52,16.07
			c12.87,1.05,42.61-8.64,55.44-12.39l24.89-11.79c-24.49,23.47-56.6,37.35-90.47,39.11c-13.74,0.56-29.32-2.25-35.62-13.97
			c-6.76-12.65,0.45-28.75,7.51-42.12c-15.01,1.73-30.03,3.45-44.67,0.98c-14.64-2.48-28.68-9.72-35.81-22.52
			c-7.13-12.8-5.25-31.08,6.57-40.99c-17.87,0.22-36.04-2.4-51.17-10.93c-15.13-8.52-26.88-23.72-28.15-41.29
			C328.16,737.15,344.91,747.7,363.52,753.37z"/>
	</g>
	<path class="st3" d="M302.52,701.79c0,0,0,0.19,0.38,0.56l0.9,1.73c0.9,1.54,1.88,3.75,3.75,6.76
		c5.02,8.27,11.36,15.67,18.77,21.89c13.33,11.05,29.3,18.45,46.35,21.47c17.05,3.02,34.59,1.56,50.91-4.24
		c0.1-0.04,0.22-0.06,0.32-0.06c0.11,0,0.22,0.03,0.32,0.07s0.19,0.11,0.27,0.19c0.08,0.08,0.14,0.18,0.17,0.28
		c0.05,0.12,0.08,0.26,0.08,0.39s-0.03,0.27-0.08,0.39c-7.06,8.37-12.74,17.81-16.82,27.97c-1.86,5.38-2.46,11.12-1.76,16.78
		c0.6,5.86,3.47,11.25,8,15.02c4.9,3.56,10.65,5.75,16.67,6.34c6.22,0.89,12.54,0.89,18.77,0c12.81-2.34,25.24-6.44,36.94-12.16
		c15.48-7.27,30.2-16.07,43.92-26.28c0.1-0.08,0.21-0.14,0.34-0.17c0.12-0.03,0.25-0.04,0.38-0.02c0.13,0.02,0.25,0.06,0.36,0.13
		s0.2,0.15,0.28,0.26c0.14,0.16,0.21,0.37,0.21,0.58c0,0.21-0.07,0.42-0.21,0.58c-10.47,13.25-20.53,26.28-29.81,38.85
		c-4.7,6.02-8.79,12.49-12.2,19.33c-3.07,6.55-4.36,13.78-3.75,20.98c0.35,3.4,1.48,6.68,3.3,9.57c1.82,2.76,4.33,4.98,7.28,6.46
		c5.9,2.58,12.38,3.54,18.77,2.78c6-0.52,11.95-1.58,17.75-3.19c5.59-1.43,10.85-3.27,15.84-5.03
		c15.54-5.94,30.67-12.91,45.27-20.87l11.82-6.42l3.04-1.69l1.05-0.53c0,0-0.3,0.26-0.97,0.68l-2.97,1.84
		c-2.63,1.58-6.53,3.75-11.64,6.72c-14.49,8.21-29.55,15.38-45.05,21.47c-4.99,1.8-10.29,3.75-15.95,5.18
		c-5.88,1.65-11.9,2.76-17.98,3.3c-6.65,0.82-13.41-0.15-19.56-2.82c-3.19-1.62-5.92-4.02-7.92-6.98c-2.02-3.09-3.3-6.59-3.75-10.25
		c-0.65-7.51,0.64-15.06,3.75-21.92c3.44-6.96,7.59-13.56,12.39-19.67c9.27-12.76,19.29-25.71,29.77-39l1.32,1.39
		c-13.82,10.35-28.65,19.28-44.26,26.65c-11.88,5.82-24.52,9.97-37.54,12.31c-6.39,0.9-12.87,0.9-19.26,0
		c-6.35-0.68-12.41-3.02-17.57-6.79c-4.85-4.07-7.95-9.85-8.63-16.14c-0.73-5.95-0.08-11.98,1.88-17.64
		c4.17-10.32,9.98-19.9,17.19-28.38l0.94,1.31c-18.73,6.69-39.04,7.61-58.3,2.63c-14.83-3.67-28.58-10.77-40.17-20.72
		c-7.49-6.38-13.84-14-18.77-22.52C305.38,708.11,303.86,704.99,302.52,701.79z"/>
	<g class="st6">
		<path d="M581.28,712.42c2.51,10.29,8.86,15.02,13.78,24.93l45.98,72.94c-15.54-19.41-34.57-38.03-50.11-57.44
			c-4.13-6.02-9.44-11.13-15.62-15.01c-6.79-2.96-14.07-4.59-21.47-4.81c-39.79-3.75-79.66-9.38-116.59-22.93
			s-71.32-35.7-93.36-67.76C411.45,694.59,496.16,719.6,581.28,712.42z"/>
	</g>
	<path class="st3" d="M288.4,589.67c0,0,0.34,0.26,0.9,0.82l2.48,2.59c2.21,2.4,5.33,5.78,9.35,10.06c4.02,4.28,9.5,9.27,15.54,15.2
		l10.29,8.82l5.63,4.8l6.23,4.73c19.74,15.3,41.06,28.45,63.59,39.23c27.6,13.2,56.72,22.93,86.71,28.98
		c30.3,6.15,61.25,8.46,92.12,6.87h0.56l0.26,0.53c19.78,37.16,38.89,67.57,52.93,88.48c7.02,10.51,12.73,18.77,16.67,24.33
		l4.5,6.42l1.13,1.65l0.34,0.6c0,0,0,0-0.49-0.49c-0.49-0.49-0.71-0.94-1.24-1.61l-4.73-6.23c-4.05-5.52-9.91-13.63-17.08-24.06
		c-19.45-28.43-37.34-57.89-53.61-88.25l0.83,0.49c-31.02,1.71-62.13-0.56-92.57-6.76c-30.14-6.03-59.41-15.82-87.13-29.13
		c-22.65-10.89-44.05-24.22-63.81-39.75l-5.97-4.96l-5.59-4.88l-10.25-9.01c-5.97-6.01-11.26-11.26-15.35-15.47l-9.08-10.32
		l-2.33-2.74C288.92,590.33,288.64,590.01,288.4,589.67z"/>
	<g class="st6">
		<path d="M652.9,943.99c0,0,53.12-125.94,99.14-174.1c0,0,32.47,14.56,46.77,16.4c14.3,1.84-1.24,4.13-4.95,4.13
			c-3.72,0-116.67,192.27-116.67,192.27S663.11,954.58,652.9,943.99z"/>
	</g>
	<path class="st7" d="M1409.82,904.24c17.6-12.82-8.99-79.3-59.38-148.48c-50.39-69.19-105.51-114.88-123.11-102.06
		c-17.6,12.82,8.99,79.3,59.38,148.48C1337.1,871.37,1392.22,917.06,1409.82,904.24z"/>
	<path class="st7" d="M842.66,728.11c0,0-53.83,23.76-151.28,185.82l403.2,464.39c0,0,143.77-84.61,185.55-184.46L842.66,728.11z"/>
	<path class="st7" d="M1257.27,1102.25c0,171.21-127.11,308.34-293.81,308.34c-166.71,0-320.05-157.62-320.05-328.98
		c-0.04-52.17,12.85-103.53,37.54-149.48c51.39-95.69,150.6-160.52,264.53-160.52C1112.07,771.62,1257.27,931.04,1257.27,1102.25z"
		/>
	<path class="st7" d="M1348.49,1007.06c0,175.08-131.87,315.32-304.85,315.32c-172.98,0-332.03-161.42-332.03-336.38
		c-0.1-53.38,13.22-105.93,38.74-152.82c26.73-49.54,66.35-90.94,114.66-119.84c48.31-28.89,103.53-44.21,159.82-44.32
		C1197.85,668.99,1348.49,831.98,1348.49,1007.06z"/>
	<path class="st8" d="M1330.36,1019.26c0,171.25-127.07,308.34-293.81,308.34s-320.02-157.66-320.02-328.95
		c0-171.29,135.14-310.03,301.88-310.03S1330.36,848.04,1330.36,1019.26z"/>
	<path class="st3" d="M1330.36,1019.26c0,0,0-1.69-0.23-5.03c-0.22-3.34,0-8.33-0.71-15.02c-1.31-19-4.33-37.85-9.01-56.31
		c-1.5-6.01-3.38-12.28-5.33-18.77c-1.95-6.5-4.36-13.4-7.25-20.38c-5.86-15.27-12.83-30.09-20.87-44.34
		c-19.45-34.88-44.69-66.21-74.63-92.64c-17.39-15.34-36.34-28.81-56.53-40.2c-10.74-6.02-21.82-11.41-33.19-16.14
		c-11.85-4.84-24-8.89-36.37-12.12c-50.19-13.55-108.15-11.75-163.48,7.21c-58.19,20.3-108.82,57.85-145.12,107.66
		c-19.09,26.23-33.98,55.27-44.15,86.08c-15.97,47.73-20.03,98.65-11.83,148.31c2.84,16.32,6.91,32.4,12.2,48.09
		c10.48,30.71,25.25,59.77,43.88,86.34c35.1,50.57,82.85,91.05,138.48,117.42c25.87,12.06,53.34,20.31,81.57,24.51
		c26.63,3.89,53.69,3.89,80.33,0c48.04-6.74,93.53-25.75,132.1-55.18c31.78-24.23,58.34-54.63,78.08-89.38
		c14.82-26.25,25.88-54.46,32.85-83.79c4.36-18.5,7.14-37.34,8.3-56.31c0.56-6.53,0.45-11.53,0.64-15.02
		c0.19-3.49,0.23-5.07,0.23-5.07s0,1.73,0,5.07s0,8.37-0.41,15.02c-1.01,19.05-3.67,37.98-7.96,56.57
		c-6.87,29.44-17.87,57.76-32.66,84.12c-19.69,35.02-46.29,65.68-78.19,90.09c-30.15,22.94-64.54,39.67-101.2,49.23
		c-36.66,9.56-74.85,11.76-112.36,6.48c-28.4-4.21-56.05-12.49-82.1-24.59c-55.91-26.48-103.92-67.15-139.23-117.95
		c-18.77-26.68-33.64-55.89-44.18-86.75c-5.34-15.79-9.44-31.97-12.28-48.39c-8.27-49.96-4.19-101.19,11.9-149.21
		c10.22-30.98,25.21-60.18,44.44-86.53c36.54-50.11,87.49-87.87,146.06-108.26c55.67-18.99,114-20.76,164.5-7.02
		c12.44,3.26,24.66,7.33,36.56,12.2c11.42,4.77,22.55,10.21,33.33,16.29c20.26,11.47,39.26,25.03,56.68,40.47
		c29.92,26.49,55.15,57.87,74.59,92.79c8.04,14.3,14.99,29.18,20.79,44.52c2.89,7.02,4.96,13.97,7.21,20.46
		c2.25,6.49,3.76,12.91,5.25,18.96c4.58,18.47,7.48,37.32,8.67,56.31c0.53,6.49,0.34,11.52,0.49,15.01
		C1330.4,1017.57,1330.36,1019.26,1330.36,1019.26z"/>
	<path class="st3" d="M1098.67,761.97l-14.15,51.99l-12.05-3.27l11.52-42.34l-10.4-2.82l2.63-9.65L1098.67,761.97z"/>
	<path class="st3" d="M1135.16,817.19l-2.66,9.8l-39.3-10.7l2.14-7.77l25.19-13.48c2.11-1.05,4.05-2.42,5.75-4.05
		c1.07-1.15,1.85-2.54,2.29-4.06c0.3-0.89,0.39-1.85,0.24-2.78c-0.14-0.93-0.51-1.82-1.07-2.58c-1.48-1.74-3.5-2.93-5.74-3.38
		c-2.11-0.59-4.33-0.72-6.49-0.38c-2.09,0.39-4.04,1.3-5.67,2.67l-7.32-8c2.94-2.51,6.51-4.17,10.32-4.81
		c4.32-0.73,8.75-0.47,12.95,0.79c3.5,0.86,6.79,2.45,9.65,4.65c2.4,1.85,4.23,4.33,5.29,7.17c0.93,2.86,0.93,5.93,0,8.78
		c-0.67,2.76-1.95,5.32-3.75,7.51c-2.64,2.73-5.76,4.95-9.2,6.57l-15.01,8.03L1135.16,817.19z"/>
	<path class="st3" d="M1225.7,840.65l-9.57,53.04l-12.24-2.22l7.77-43.17l-10.62-1.92l1.77-9.83L1225.7,840.65z"/>
	<path class="st3" d="M1282.01,985.81l-1.76,10.02l-39.98-7.25l1.43-7.96l23.95-15.61c2-1.23,3.8-2.76,5.33-4.54
		c0.99-1.23,1.66-2.69,1.95-4.24c0.22-0.91,0.22-1.87,0-2.78c-0.22-0.91-0.66-1.76-1.27-2.47c-1.63-1.59-3.74-2.59-6-2.85
		c-2.17-0.42-4.4-0.35-6.53,0.19c-2.04,0.57-3.9,1.66-5.41,3.15l-7.92-7.51c2.71-2.77,6.12-4.75,9.87-5.71
		c4.23-1.09,8.66-1.22,12.95-0.37c3.56,0.56,6.97,1.84,10.02,3.75c2.55,1.65,4.59,3.98,5.9,6.72c1.22,2.73,1.56,5.77,0.98,8.71
		c-0.49,2.82-1.62,5.49-3.3,7.81c-2.39,3-5.3,5.54-8.6,7.51l-14.27,9.31L1282.01,985.81z"/>
	<path class="st3" d="M1273.34,1091.03c1.99,3.19,2.68,7.02,1.91,10.7c-0.53,3.03-1.91,5.84-3.98,8.11
		c-2.29,2.42-5.24,4.13-8.48,4.92c-4.14,0.91-8.43,0.91-12.57,0c-3.73-0.67-7.35-1.83-10.77-3.45c-3.14-1.45-6-3.45-8.45-5.89
		l6.46-8.52c1.84,1.95,4,3.57,6.38,4.8c2.49,1.3,5.16,2.22,7.92,2.7c2.49,0.6,5.11,0.43,7.51-0.49c0.94-0.38,1.76-1,2.39-1.8
		c0.63-0.8,1.03-1.74,1.18-2.74c0.79-4.36-2.14-7.1-8.75-8.3l-5.59-1.01l1.43-8.11l13.14-10.36l-22.52-4.09l1.76-9.84l37.13,6.68
		l-1.43,7.96l-14.41,11.75C1267.54,1085.18,1270.98,1087.65,1273.34,1091.03z"/>
	<path class="st3" d="M1220.41,1199.07l-8.64-1.58l-2.03,11.26l-11.97-2.14l2.03-11.26l-28.57-5.14l1.5-8.26l31.04-29.13l12.88,2.33
		l-28.9,27.7l14.23,2.59l1.8-9.95l11.56,2.1l-1.76,9.91l8.63,1.54L1220.41,1199.07z"/>
	<path class="st3" d="M1120.14,1241.03c1.48,1.77,2.54,3.85,3.08,6.09c0.55,2.24,0.57,4.58,0.07,6.83
		c-0.51,3.12-1.89,6.03-3.98,8.41c-2.29,2.48-5.27,4.23-8.56,5.03c-4.15,1-8.47,1.06-12.65,0.19c-3.71-0.68-7.32-1.84-10.74-3.45
		c-3.18-1.42-6.07-3.42-8.52-5.9l6.53-8.48c1.83,1.94,3.98,3.55,6.35,4.77c2.45,1.31,5.1,2.22,7.84,2.7c2.5,0.58,5.11,0.4,7.51-0.52
		c0.93-0.43,1.75-1.07,2.37-1.89c0.63-0.81,1.04-1.77,1.21-2.78c0.17-1.01,0.09-2.05-0.23-3.03c-0.32-0.97-0.88-1.85-1.63-2.56
		c-2.75-1.91-5.94-3.1-9.27-3.45l-13.55-2.44l8.11-29.36l32.32,5.82l-1.76,9.87l-21.92-3.94l-2.67,9.91l4.32,0.79
		C1110.32,1234.24,1115.88,1236.85,1120.14,1241.03z"/>
	<path class="st3" d="M994.5,1238.48c2.44,1.78,4.35,4.19,5.52,6.98c1.16,2.88,1.46,6.04,0.86,9.08c-0.53,3.32-2.05,6.41-4.36,8.86
		c-2.27,2.37-5.15,4.06-8.33,4.88c-3.46,0.88-7.08,0.98-10.59,0.3c-3.25-0.4-6.38-1.49-9.18-3.21c-2.79-1.72-5.18-4.02-7-6.74
		c-3.53-6.29-4.5-13.7-2.7-20.68c0.82-5.38,2.95-10.47,6.19-14.83c2.87-3.75,6.79-6.56,11.26-8.07c4.76-1.48,9.82-1.75,14.72-0.79
		c2.74,0.48,5.42,1.3,7.96,2.44c2.24,0.91,4.32,2.17,6.15,3.75l-6.15,8.18c-2.65-2.38-5.94-3.92-9.46-4.43
		c-1.92-0.43-3.9-0.47-5.83-0.12c-1.93,0.35-3.78,1.08-5.43,2.15c-3.4,2.61-5.66,6.43-6.31,10.66c2.05-1.31,4.34-2.19,6.74-2.59
		c2.4-0.4,4.86-0.31,7.22,0.26C988.96,1235.19,991.94,1236.52,994.5,1238.48z M985.42,1258.34c0.91-0.61,1.69-1.4,2.29-2.32
		c0.6-0.92,1.01-1.95,1.2-3.03c0.19-1.08,0.17-2.19-0.08-3.26c-0.24-1.07-0.7-2.08-1.35-2.96c-1.58-1.82-3.77-3.01-6.16-3.34
		c-2.38-0.5-4.86-0.13-6.98,1.05c-0.98,0.54-1.82,1.3-2.47,2.2c-0.65,0.91-1.09,1.95-1.28,3.05c-0.22,1.07-0.2,2.18,0.05,3.24
		c0.25,1.06,0.73,2.06,1.41,2.92c1.64,1.9,3.93,3.11,6.42,3.42C980.83,1259.87,983.3,1259.52,985.42,1258.34z"/>
	<path class="st3" d="M905.91,1160.93l-1.43,7.96l-27.82,41.52l-13.33-2.4l26.77-39.57l-17.57-3.19l-1.54,8.64l-10.92-1.95
		l3.34-18.77L905.91,1160.93z"/>
	<path class="st3" d="M835.04,1091.07c1.03,2.43,1.29,5.11,0.75,7.7c-0.47,3.12-2.01,5.99-4.36,8.11c-2.51,2.22-5.59,3.69-8.9,4.24
		c-3.99,0.77-8.09,0.77-12.09,0c-3.98-0.66-7.8-2.06-11.26-4.13c-2.87-1.7-5.22-4.15-6.79-7.09c-1.4-2.81-1.82-6.01-1.2-9.08
		c0.42-2.61,1.61-5.05,3.42-6.98c1.88-1.95,4.26-3.35,6.87-4.06c-1.7-1.45-2.99-3.31-3.75-5.4c-0.76-2.12-0.91-4.4-0.45-6.61
		c0.46-2.88,1.87-5.52,4.02-7.51c2.3-2.04,5.12-3.42,8.14-3.98c7.33-1.24,14.86,0.08,21.32,3.76c2.67,1.55,4.84,3.83,6.27,6.57
		c1.32,2.62,1.72,5.61,1.13,8.48c-0.34,2.22-1.28,4.31-2.7,6.04c-1.48,1.69-3.37,2.98-5.48,3.75
		C832.19,1086.44,833.94,1088.58,835.04,1091.07z M819.84,1101.24c0.99-0.47,1.85-1.19,2.5-2.07c0.65-0.88,1.08-1.91,1.25-3
		c0.24-1.06,0.21-2.17-0.09-3.21c-0.29-1.05-0.84-2.01-1.6-2.79c-1.88-1.86-4.32-3.05-6.94-3.38c-2.52-0.6-5.16-0.34-7.51,0.75
		c-0.97,0.52-1.82,1.25-2.46,2.14c-0.65,0.89-1.09,1.91-1.28,3c-0.2,1.08-0.14,2.2,0.16,3.26c0.3,1.06,0.83,2.04,1.56,2.86
		c1.84,1.84,4.25,3.02,6.83,3.34C814.81,1102.68,817.47,1102.37,819.84,1101.24z M812.33,1065.92c-0.83,0.45-1.55,1.08-2.09,1.86
		c-0.54,0.78-0.89,1.67-1.02,2.61c-0.21,0.91-0.2,1.85,0.04,2.76s0.68,1.74,1.31,2.42c1.51,1.56,3.51,2.55,5.67,2.82
		c2.13,0.49,4.36,0.26,6.34-0.64c0.84-0.43,1.56-1.05,2.11-1.81c0.55-0.76,0.91-1.65,1.04-2.58c0.2-0.93,0.18-1.89-0.06-2.81
		c-0.24-0.92-0.7-1.77-1.33-2.48c-1.55-1.56-3.57-2.56-5.75-2.85C816.49,1064.7,814.27,1064.96,812.33,1065.92z"/>
	<path class="st3" d="M827.34,954.8c3.54,6.26,4.53,13.64,2.78,20.61c-0.78,5.44-2.9,10.6-6.16,15.02
		c-2.85,3.77-6.78,6.58-11.26,8.07c-4.77,1.49-9.85,1.75-14.75,0.75c-2.73-0.47-5.39-1.28-7.92-2.4c-2.24-0.9-4.3-2.17-6.12-3.75
		l6.16-8.18c2.63,2.41,5.93,3.95,9.46,4.43c1.92,0.44,3.91,0.49,5.84,0.13c1.94-0.35,3.78-1.1,5.42-2.19
		c3.39-2.63,5.66-6.46,6.34-10.7c-2.06,1.32-4.36,2.22-6.77,2.63c-2.41,0.41-4.88,0.34-7.27-0.23c-3.22-0.54-6.27-1.82-8.9-3.75
		c-2.44-1.78-4.35-4.19-5.52-6.98c-1.2-2.88-1.5-6.06-0.86-9.12c0.51-3.31,2.01-6.39,4.32-8.82c2.27-2.37,5.15-4.06,8.33-4.88
		c3.46-0.87,7.08-0.97,10.59-0.3c3.26,0.33,6.4,1.37,9.21,3.05C823.08,949.84,825.49,952.1,827.34,954.8z M814.5,968.99
		c0.94-0.56,1.75-1.32,2.37-2.23c0.61-0.91,1.03-1.94,1.2-3.02c0.24-1.07,0.24-2.17-0.01-3.24c-0.25-1.07-0.73-2.06-1.42-2.92
		c-1.64-1.88-3.91-3.1-6.38-3.42c-2.31-0.51-4.72-0.16-6.79,0.98c-0.91,0.61-1.69,1.4-2.29,2.31c-0.6,0.92-1.01,1.95-1.2,3.03
		s-0.17,2.19,0.08,3.26c0.25,1.07,0.71,2.08,1.35,2.96c1.64,1.76,3.8,2.93,6.17,3.34C809.93,970.46,812.37,970.09,814.5,968.99z"/>
	<path class="st3" d="M848.29,834.83l-12.95,52.29l-12.09-3l10.55-42.57l-10.47-2.59l2.4-9.72L848.29,834.83z"/>
	<path class="st3" d="M855.87,889.75c-2.92-3.14-4.89-7.04-5.67-11.26c-1.55-10.25,1.02-20.7,7.17-29.05c2-2.44,4.48-4.44,7.3-5.85
		c2.82-1.42,5.9-2.23,9.05-2.38c3.15-0.15,6.3,0.36,9.24,1.5c2.94,1.14,5.61,2.89,7.83,5.12c2.92,3.14,4.89,7.04,5.67,11.26
		c1.49,10.26-1.09,20.69-7.21,29.05c-2,2.44-4.48,4.44-7.3,5.86c-2.82,1.42-5.9,2.23-9.05,2.38c-3.15,0.15-6.3-0.36-9.24-1.5
		c-2.94-1.14-5.61-2.88-7.83-5.12H855.87z M877.72,883.33c3.04-3.38,5.07-7.54,5.85-12.01c1.42-4.32,1.56-8.96,0.41-13.36
		c-0.48-1.47-1.32-2.8-2.45-3.86c-1.13-1.06-2.51-1.81-4.02-2.18s-3.07-0.36-4.57,0.04c-1.49,0.4-2.86,1.18-3.98,2.25
		c-3.03,3.38-5.06,7.54-5.86,12.01c-1.42,4.34-1.56,8.99-0.41,13.4c0.45,1.47,1.28,2.8,2.4,3.84c1.13,1.04,2.51,1.76,4.02,2.09
		c1.5,0.42,3.09,0.44,4.6,0.05C875.23,885.21,876.61,884.43,877.72,883.33z"/>
	<path class="st3" d="M965.48,761.22l-12.99,52.29l-12.09-3l10.55-42.57l-10.43-2.59l2.4-9.72L965.48,761.22z"/>
	<path class="st3" d="M994.76,768.31l-12.99,52.29l-12.09-3l10.55-42.57l-10.47-2.59l2.44-9.72L994.76,768.31z"/>
	<g class="st6">
		<path d="M725.01,1018.81c0-171.21,135.14-309.99,301.92-309.99c122.94,0,234.13,86.75,284.05,200.94
			c-45.05-123.87-162.09-221.14-292.24-221.14c-166.71,0-301.88,138.89-301.88,310.03c0.27,43.3,9.62,86.06,27.44,125.53
			C731.71,1090.47,725.18,1054.79,725.01,1018.81z"/>
	</g>
	<path class="st7" d="M1049.91,620.49c-1.13-6.04-68.88,1.28-151.39,16.4c-82.51,15.13-148.47,32.28-147.38,38.32
		c1.09,6.04,68.88-1.31,151.39-16.4C985.04,643.72,1051,626.53,1049.91,620.49z"/>
	<path class="st4" d="M847.39,556.71c-1.15-8.29,0.94-16.7,5.84-23.49c4.9-6.79,12.23-11.42,20.46-12.93
		c8.23-1.51,16.73,0.22,23.72,4.82c6.99,4.6,11.93,11.73,13.8,19.89"/>
	<path class="st4" d="M1375.4,699.39c3.44-2.53,7.34-4.36,11.48-5.38c4.14-1.02,8.44-1.22,12.66-0.57
		c4.22,0.64,8.27,2.11,11.92,4.31c3.65,2.21,6.83,5.11,9.36,8.55c2.53,3.44,4.36,7.34,5.38,11.48c1.02,4.14,1.22,8.45,0.58,12.66
		c-0.64,4.22-2.11,8.27-4.32,11.92c-2.21,3.65-5.11,6.83-8.55,9.36"/>
	<g class="st9">
		<path d="M1071.12,1049.7l1.28-14.45l-30.48,0.71c0-0.26,0-0.49,0-0.71c0-4.91-1.63-9.68-4.66-13.55l20.05-107.25
			c0.34-1.75,0.22-3.56-0.34-5.26c-0.64-1.75-1.7-3.33-3.07-4.59s-3.04-2.18-4.84-2.68c-1.8-0.5-3.7-0.55-5.53-0.17
			c-1.83,0.39-3.54,1.2-4.99,2.38h-0.23c-1.95,1.62-3.28,3.86-3.75,6.35l-17.12,84.42l-53.87-149.78l-2.96-4.13
			c-5.89-8.14-19.44-2.74-17.19,6.91c-0.02,0.18-0.02,0.35,0,0.53c2.48,9.95,32.69,96.85,58.22,169.71c-2.45,2.1-4.42,4.7-5.79,7.62
			c-1.36,2.93-2.07,6.11-2.09,9.34c0,0.6,0,1.2,0,1.84l-239.69,5.82l244,5.37c2.05,2.85,4.69,5.23,7.75,6.95
			c3.06,1.72,6.46,2.76,9.96,3.03c12.61,35.96,21.81,61.98,21.81,61.98l21.81-8.3l-22.52-62.39l0.3-0.41L1071.12,1049.7z"/>
	</g>
	<path class="st10" d="M1023.37,1030.89l25.9-133.94c0.47-2.57,1.79-4.92,3.75-6.65h0.23c1.45-1.23,3.18-2.07,5.04-2.47
		c1.86-0.4,3.78-0.33,5.6,0.2c1.82,0.53,3.49,1.5,4.85,2.82c1.36,1.33,2.37,2.97,2.94,4.78c0.57,1.78,0.7,3.68,0.38,5.52
		l-24.18,135.48L1023.37,1030.89z"/>
	<path class="st10" d="M975.32,824.06c-1.24-1.81-3.06-3.14-5.17-3.76c-2.1-0.62-4.36-0.49-6.38,0.36
		c-2.02,0.85-3.69,2.38-4.71,4.32c-1.02,1.94-1.34,4.17-0.9,6.33v0.56c4.35,18.28,93.84,284.76,93.84,284.76l21.81-8.71
		l-95.76-279.55L975.32,824.06z"/>
	<path class="st3" d="M1085.94,1042.83l1.28-15.17l-318.29,7.85L1085.94,1042.83z"/>
	<path class="st7" d="M1032.71,1051.77c13.31,0,24.1-10.79,24.1-24.1c0-13.31-10.79-24.1-24.1-24.1c-13.31,0-24.1,10.79-24.1,24.1
		C1008.62,1040.98,1019.4,1051.77,1032.71,1051.77z"/>
	<g class="st6">
		<path d="M1049.91,620.49c-1.13-6.04-68.88,1.28-151.39,16.4c-82.51,15.13-148.47,32.28-147.38,38.32
			c1.09,6.04,68.88-1.31,151.39-16.4C985.04,643.72,1051,626.53,1049.91,620.49z"/>
	</g>
	<path class="st7" d="M880.83,639.97c0.26,3.98,12.01,61.71,12.01,61.71l34.23-8.67l-14.23-61.53L880.83,639.97z"/>
	<path class="st3" d="M969.99,623.94c-0.55,0.24-1.13,0.39-1.73,0.45l-5.07,0.98l-18.77,3.26c-15.77,2.78-37.54,6.68-61.49,11.26
		c-23.95,4.58-45.57,9.31-61.22,12.69l-18.51,4.02l-5.07,1.05c-0.59,0.13-1.2,0.2-1.8,0.23c0.54-0.3,1.12-0.51,1.73-0.64l4.96-1.35
		c4.32-1.16,10.62-2.78,18.39-4.62c15.58-3.75,37.16-8.6,61.15-13.29c23.99-4.69,45.83-8.41,61.64-10.81
		c7.92-1.2,14.34-2.1,18.77-2.67l5.11-0.6C968.71,623.81,969.36,623.83,969.99,623.94z"/>
	<path class="st3" d="M996.87,670.56c-2.07,0.43-4.16,0.72-6.27,0.86c-4.05,0.37-9.91,1.09-17.08,2.21
		c-7.17,1.13-15.69,2.74-25,4.99c-9.31,2.25-19.48,5.29-30.03,9.01c-10.55,3.72-20.12,8.03-28.76,12.2
		c-8.63,4.17-16.22,8.41-22.52,12.16c-6.31,3.75-11.26,6.94-14.56,9.23c-1.7,1.26-3.49,2.38-5.37,3.34
		c1.55-1.45,3.21-2.78,4.96-3.98c3.23-2.48,8.07-5.86,14.23-9.76c6.16-3.9,13.74-8.22,22.52-12.61c9.39-4.65,19.03-8.8,28.87-12.43
		c9.84-3.51,19.87-6.49,30.03-8.93c9.42-2.14,18.02-3.75,25.26-4.58c7.25-0.82,13.14-1.5,17.19-1.65
		C992.5,670.41,994.69,670.39,996.87,670.56z"/>
	<path class="st3" d="M1282.12,809.27c-1.3-1.26-2.46-2.64-3.49-4.13c-2.14-2.7-5.25-6.65-9.27-11.26
		c-10.34-12.37-21.42-24.11-33.18-35.14c-11.76-11.05-24.17-21.39-37.16-30.97c-4.99-3.75-9.08-6.57-11.94-8.56
		c-1.55-0.93-2.99-2.01-4.32-3.23c1.65,0.72,3.24,1.58,4.73,2.59c3,1.76,7.21,4.54,12.35,8.07c13.24,9.3,25.78,19.55,37.54,30.67
		c11.85,11.08,22.86,23.01,32.96,35.7c3.75,4.84,6.83,8.93,8.78,11.79C1280.25,806.2,1281.25,807.69,1282.12,809.27z"/>
	<path class="st3" d="M695.96,908.93c0,0-0.26,0.71-0.82,2.03l-2.59,5.78c-2.22,5.11-5.56,12.61-9.39,22.52
		c-28.9,69.24-30.13,146.93-3.42,217.05c8.66,24.65,20.05,48.26,33.93,70.39c14.88,23.79,32.4,45.82,52.22,65.69
		c10.04,10.08,20.63,19.61,31.72,28.53c10.81,8.56,22.09,16.52,33.79,23.84c11.33,7.02,23.03,13.42,35.06,19.15
		c11.61,5.36,23.52,10.06,35.66,14.08c22.49,7.45,45.82,12.12,69.44,13.89c20.55,1.42,41.19,0.72,61.6-2.1
		c29.62-4.11,58.43-12.72,85.44-25.56c9.57-4.5,16.74-8.52,21.58-11.26l5.48-3.19l1.88-1.05c-0.58,0.43-1.18,0.84-1.8,1.2
		l-5.37,3.38c-4.77,2.85-11.9,6.98-21.43,11.64c-26.98,13.14-55.84,22-85.55,26.28c-20.51,2.94-41.27,3.72-61.94,2.33
		c-23.74-1.69-47.18-6.31-69.78-13.74c-12.22-4-24.21-8.7-35.89-14.08c-12.12-5.74-23.89-12.16-35.29-19.22
		c-11.81-7.33-23.19-15.32-34.08-23.95c-11.16-8.95-21.81-18.51-31.91-28.64c-19.96-19.97-37.59-42.13-52.55-66.07
		c-13.98-22.25-25.45-45.98-34.2-70.76c-15.12-41.97-21.13-86.68-17.64-131.16c3.13-29.83,10.58-59.06,22.11-86.75
		C690.29,919.29,695.96,908.93,695.96,908.93z"/>
	<path class="st4" d="M672.31,1317.12c34.17-5.47,66.3-19.83,93.17-41.63c4.13-3.38,12.76-8.67,15.01-13.63
		c4.43-9.65-8.18-25.98-15.01-31.46c-6.83-5.48-22.52-12.91-30.82-7.85c-6.53,3.98-11.56,18.02-16.29,24.36
		c-13.33,17.97-29.76,33.43-48.5,45.65c-4.12,2.25-7.74,5.3-10.66,8.97c-1.4,1.92-2.15,4.24-2.15,6.62c0,2.38,0.76,4.7,2.15,6.62
		C662.36,1318.1,667.73,1317.84,672.31,1317.12z"/>
	<path class="st3" d="M666.57,1295.43c0-0.23,4.05-3.45,10.59-8.93c8.53-7.08,16.69-14.6,24.44-22.52
		c7.73-7.99,15.05-16.37,21.92-25.11c2.67-3.76,5.55-7.37,8.63-10.81c-0.45,1.16-1.06,2.26-1.8,3.27c-1.28,2.03-3.23,4.92-5.74,8.37
		c-13.16,18.14-28.85,34.31-46.59,48.01c-3.38,2.63-6.19,4.65-8.22,5.97C668.81,1294.41,667.73,1295,666.57,1295.43z"/>
	<path class="st3" d="M774.15,1267.5c-2.37,2.99-5.08,5.7-8.07,8.07c-6.95,6.01-14.39,11.41-22.26,16.14
		c-7.85,4.73-16.06,8.86-24.55,12.35c-3.43,1.64-7.03,2.9-10.74,3.76c3.28-1.87,6.68-3.52,10.17-4.96
		c8.25-3.84,16.29-8.1,24.1-12.76c7.82-4.71,15.34-9.9,22.52-15.54C768.12,1272.03,771.07,1269.67,774.15,1267.5z"/>
	<path class="st3" d="M777.45,1264.23c0.39-3.49,0.51-7,0.37-10.51c-0.66-8.39-4.32-16.27-10.32-22.18
		c-6.19-5.7-14.34-8.78-22.75-8.6c-3.49,0.26-6.95,0.77-10.36,1.54c0.77-0.59,1.65-1.02,2.59-1.28c2.48-0.94,5.09-1.5,7.73-1.65
		c4.4-0.3,8.82,0.3,12.98,1.78c4.16,1.48,7.97,3.8,11.19,6.81c6.35,6.21,10.06,14.65,10.32,23.53c0.13,2.64-0.12,5.28-0.75,7.85
		C778.32,1262.49,777.97,1263.41,777.45,1264.23z"/>
	<path class="st3" d="M1204.53,972.52c0.27,0.96,0.49,1.94,0.64,2.93c0.34,1.95,1.01,4.81,1.42,8.52c1.4,10.55,1.8,21.21,1.2,31.83
		c-1.25,27.34-8.79,54.02-22.04,77.97c-13.25,23.95-31.85,44.51-54.34,60.1c-12.92,9.08-26.98,16.43-41.82,21.85
		c-9.96,3.71-20.26,6.46-30.74,8.22c-3.76,0.71-6.61,0.9-8.56,1.16c-0.99,0.18-2,0.25-3,0.23c0.96-0.26,1.94-0.47,2.93-0.6
		c1.95-0.41,4.84-0.72,8.48-1.54c10.37-2.03,20.54-4.96,30.41-8.75c14.63-5.58,28.51-12.98,41.29-22.03
		c31.69-22.16,55.26-54.08,67.12-90.88c8.17-24.98,11.01-51.41,8.33-77.55c-0.3-3.75-0.86-6.6-1.05-8.56
		C1204.6,974.46,1204.52,973.49,1204.53,972.52z"/>
	<path class="st3" d="M1179.54,1030.98c0.25,1.55,0.32,3.13,0.2,4.7c0.04,1.84-0.04,3.69-0.26,5.52c-0.12,2.5-0.37,4.99-0.76,7.47
		c-1.01,6.26-2.59,12.41-4.71,18.39c-2.66,7.35-6.04,14.43-10.08,21.12c-4.13,6.62-8.91,12.82-14.26,18.5
		c-4.41,4.61-9.23,8.8-14.41,12.53c-2.13,1.67-4.07,2.91-6.07,4.06c-1.55,1-3.15,1.91-4.81,2.71c-1.36,0.81-2.81,1.48-4.32,1.98
		c-0.19-0.36,5.83-3.18,14.37-9.85c4.97-3.84,9.63-8.07,13.93-12.65c10.48-11.32,18.63-24.59,23.99-39.06
		c2.16-5.9,3.83-11.96,5.02-18.13C1179.23,1037.7,1179.16,1030.98,1179.54,1030.98z"/>
	<path class="st3" d="M1626.91,1025.52c0.09,1.65-0.01,3.3-0.3,4.92c-0.51,4.5-1.34,8.95-2.48,13.33
		c-1.64,6.61-4.93,12.7-9.57,17.68c-2.82,2.96-6.27,5.24-10.1,6.68c-4.18,1.43-8.66,1.73-12.99,0.86
		c-7.94-2.09-15.53-5.35-22.52-9.65c-6.61-3.75-12.31-7.51-17-10.62c-4.69-3.11-8.3-6.12-10.74-8.14c-1.36-0.98-2.62-2.1-3.76-3.34
		c1.44,0.79,2.81,1.71,4.09,2.74c2.59,1.84,6.34,4.5,11.26,7.51c4.92,3.01,10.47,6.61,17.08,10.17c6.9,4.14,14.36,7.26,22.15,9.27
		c4,0.82,8.14,0.58,12.01-0.72c3.56-1.31,6.78-3.4,9.42-6.12c4.52-4.75,7.81-10.54,9.57-16.85c1.25-4.28,2.26-8.63,3.04-13.03
		C1626.22,1028.63,1626.49,1027.06,1626.91,1025.52z"/>
	<path class="st3" d="M1513.73,998.95c0.2,1.73,0.3,3.47,0.3,5.22c0.19,3.34,0.82,8.14,1.5,14.15c1.06,7.12,0.52,14.4-1.58,21.29
		c-1.37,4.14-3.85,7.83-7.17,10.66c-3.71,2.94-8.33,4.52-13.06,4.47c-4.58-0.03-9.13-0.71-13.51-2.03
		c-10.93-2.98-21.15-8.16-30.03-15.2c-3.76-2.97-7.24-6.27-10.4-9.87c-1.13-1.28-1.91-2.33-2.44-3.04
		c-0.31-0.35-0.56-0.74-0.75-1.16c4.53,4.64,9.36,8.98,14.45,12.99c5.62,4.21,11.74,7.73,18.21,10.47
		c3.79,1.63,7.69,2.97,11.67,4.02c4.21,1.25,8.57,1.89,12.95,1.92c4.3,0.03,8.48-1.37,11.9-3.98c3.04-2.63,5.32-6.03,6.61-9.84
		c2.11-6.63,2.75-13.63,1.88-20.53c-0.49-6-0.9-10.89-0.86-14.3C1513.27,1002.42,1513.38,1000.67,1513.73,998.95z"/>
	<path class="st3" d="M511.68,734.94c-0.38,0.34-0.81,0.62-1.28,0.82c-0.86,0.49-2.14,1.2-3.75,2.03c-4.75,2.32-9.61,4.4-14.57,6.23
		c-7.35,2.71-14.87,4.9-22.52,6.57c-4.32,0.94-8.93,1.73-13.7,2.36c-4.97,0.75-9.99,1.04-15.01,0.86
		c-4.98-0.02-9.84-1.45-14.04-4.13c-4.19-2.68-7.54-6.49-9.65-11c-3.41-7.25-4.71-15.32-3.75-23.27c0.57-5.27,1.58-10.47,3.01-15.58
		c0.42-1.9,1-3.75,1.73-5.56c-0.18,1.94-0.51,3.86-1.01,5.74c-1.11,5.11-1.88,10.29-2.33,15.5c-0.84,7.71,0.46,15.5,3.75,22.52
		c2.01,4,4.96,7.46,8.6,10.06c4.04,2.61,8.71,4.08,13.51,4.24c4.88,0.18,9.77-0.09,14.6-0.82c4.77-0.56,9.31-1.35,13.59-2.22
		c7.63-1.56,15.15-3.61,22.52-6.12c6.31-2.1,11.26-4.17,14.72-5.63C507.88,736.55,509.75,735.67,511.68,734.94z"/>
	<path class="st3" d="M613.37,773.16c-1.76,0.8-3.6,1.42-5.48,1.88c-3.57,1.01-8.75,2.4-15.24,3.75c-6.5,1.35-14.27,2.85-22.97,4.02
		c-4.36,0.56-8.93,1.05-13.7,1.47c-5,0.59-10.05,0.49-15.02-0.3c-5.1-0.86-9.72-3.52-13.03-7.51c-2.93-3.75-4.88-8.18-5.67-12.87
		c-1.17-7.83-0.5-15.82,1.95-23.35c1.8-6.38,3.53-11.45,4.54-15.01c0.42-1.87,0.96-3.71,1.61-5.52c-0.09,1.93-0.39,3.84-0.9,5.71
		c-0.75,3.75-2.29,8.82-3.75,15.2c-2.19,7.3-2.72,14.99-1.54,22.52c0.79,4.38,2.63,8.5,5.37,12.01c3.03,3.65,7.26,6.1,11.94,6.91
		c4.78,0.76,9.64,0.86,14.45,0.3c4.73-0.38,9.27-0.83,13.63-1.35c8.67-1.05,16.44-2.33,22.93-3.57c6.5-1.24,11.71-2.4,15.32-3.23
		C609.64,773.7,611.49,773.34,613.37,773.16z"/>
	<path class="st8" d="M870.32,529.49c0.26,0.53-3.42,2.67-6.98,6.34c-3.57,3.68-5.67,7.51-6.15,7.17c0.8-3.21,2.44-6.15,4.75-8.53
		C864.24,532.11,867.14,530.39,870.32,529.49z"/>
	<path class="st8" d="M1134.56,695.53l-0.9-0.19l-2.59-0.72c-2.29-0.6-5.59-1.73-9.91-2.82c-12.19-3.34-24.56-6.01-37.05-8
		c-83.23-13.53-168.49,5.36-238.22,52.78c-10.42,7.07-20.45,14.7-30.03,22.86c-3.45,2.85-5.97,5.25-7.77,6.76l-2.07,1.76
		c-0.45,0.38-0.71,0.56-0.75,0.53c0.18-0.24,0.38-0.47,0.6-0.68l1.91-1.88c1.73-1.61,4.17-4.13,7.51-7.06
		c9.5-8.45,19.53-16.28,30.03-23.46c69.65-48.29,155.47-67.33,239-53.04c12.51,2.11,24.87,4.99,37.01,8.63
		c4.32,1.24,7.51,2.48,9.83,3.19l2.55,0.9L1134.56,695.53z"/>
	<path class="st8" d="M1417.6,710.65c-0.34,0-0.86-1.69-2.63-3.75c-2.36-2.89-5.48-5.06-9.01-6.27c-3.65-1.18-7.43-1.87-11.26-2.06
		c-2.93-0.23-4.77-0.41-4.77-0.72c1.54-0.55,3.17-0.78,4.8-0.68c3.98-0.19,7.97,0.36,11.75,1.61c3.87,1.31,7.2,3.87,9.46,7.28
		C1417.75,708.66,1417.78,710.65,1417.6,710.65z"/>
	<path class="st8" d="M708.8,1076.54c-0.78-2.04-1.41-4.14-1.88-6.27c-0.56-2.03-1.2-4.5-1.8-7.51c-0.6-3-1.39-6.27-1.95-9.98
		c-1.35-7.51-2.48-16.33-3.27-26.28c-1.57-21.61-0.5-43.33,3.19-64.68c1.76-9.8,3.75-18.77,5.82-25.82
		c0.94-3.75,2.06-6.87,2.96-9.72c0.9-2.85,1.76-5.25,2.51-7.24c0.67-2.08,1.5-4.1,2.48-6.04c-0.45,2.14-1.03,4.25-1.76,6.31
		c-0.64,1.99-1.43,4.43-2.18,7.51c-0.75,3.08-1.84,6.12-2.67,9.76c-1.91,7.24-3.75,15.99-5.4,25.75s-2.78,20.64-3.38,32.06
		c-0.48,10.73-0.4,21.48,0.22,32.21c0.68,9.87,1.65,18.77,2.82,26.28c0.49,3.75,1.16,7.06,1.69,9.98c0.53,2.93,1.01,5.44,1.47,7.51
		C708.22,1072.38,708.6,1074.45,708.8,1076.54z"/>
	<g class="st6">
		<path d="M730.76,1299.41c0,0,36.56,2.96,47.83-3.98c11.26-6.94-4.43-27.93-4.43-27.93L730.76,1299.41z"/>
	</g>
	<path class="st8" d="M303.76,666.7c-0.59-0.23-1.15-0.52-1.69-0.86l-4.69-2.82c-2.47-1.46-4.85-3.07-7.13-4.81
		c-3.14-2.16-6.17-4.48-9.08-6.94l-5.11-4.28c-1.76-1.5-3.42-3.27-5.26-4.96c-3.75-3.38-7.21-7.51-10.96-11.52
		c-16.04-18.43-28.26-39.87-35.92-63.07c-1.65-5.37-3.3-10.43-4.32-15.32c-0.53-2.44-1.2-4.77-1.58-7.06
		c-0.38-2.29-0.75-4.47-1.09-6.57c-0.64-3.73-1.09-7.49-1.35-11.26c-0.32-2.85-0.49-5.72-0.49-8.6c0-2.18,0-3.98,0-5.48
		c-0.09-0.62-0.09-1.25,0-1.88c0.15,0.61,0.24,1.24,0.26,1.88c0,1.47,0.23,3.27,0.41,5.44c0.12,2.85,0.38,5.7,0.79,8.52
		c0.45,3.3,0.75,7.13,1.61,11.26c0.38,2.1,0.79,4.24,1.2,6.49c0.41,2.25,1.13,4.58,1.69,6.98c1.05,4.8,2.78,9.83,4.43,15.01
		c4.04,11.38,9.04,22.39,14.94,32.92c6.06,10.43,13,20.31,20.76,29.54c3.75,4.13,7.13,8.15,10.77,11.53
		c1.76,1.73,3.38,3.45,5.11,4.99l4.95,4.35c3.12,2.85,6.23,5.03,8.86,7.13c2.23,1.79,4.55,3.47,6.94,5.03l4.43,3.11
		C303.27,666.21,303.79,666.62,303.76,666.7z"/>
	<path class="st8" d="M244.26,755.25c-1.08-0.31-2.1-0.8-3-1.47c-2.58-1.6-5.02-3.42-7.28-5.44c-3.39-3.03-6.29-6.56-8.6-10.47
		c-2.86-4.85-4.5-10.33-4.77-15.95c-0.31-5.69,1.13-11.33,4.13-16.18c2.55-3.88,6.14-6.96,10.36-8.89c2.81-1.29,5.88-1.92,8.97-1.84
		c1.13-0.03,2.26,0.17,3.3,0.6c-4.03-0.05-8.02,0.8-11.67,2.52c-3.87,1.94-7.13,4.92-9.42,8.6c-2.71,4.52-4.02,9.75-3.75,15.01
		c0.29,5.27,1.78,10.41,4.35,15.02c2.17,3.8,4.86,7.27,8,10.32C240.32,752.59,244.45,754.95,244.26,755.25z"/>
	<path class="st8" d="M290.32,828.79c-0.34-2.33-0.08-4.71,0.75-6.91c1.7-5.44,4.84-10.32,9.09-14.12c4.25-3.8,9.45-6.38,15.05-7.46
		c2.29-0.59,4.69-0.59,6.98,0c0,0.34-2.67,0.3-6.68,1.31c-5.2,1.37-10.01,3.94-14.04,7.51c-4.02,3.59-7.13,8.08-9.08,13.1
		C290.92,826.16,290.54,828.79,290.32,828.79z"/>
	<path class="st8" d="M384.39,743.95c-1.14-0.04-2.27-0.25-3.34-0.64c-2.97-0.8-5.89-1.77-8.75-2.89
		c-9.48-3.71-18.42-8.67-26.58-14.75c-8.15-6.11-15.44-13.28-21.7-21.32c-1.89-2.39-3.63-4.9-5.22-7.51
		c-0.66-0.92-1.19-1.93-1.58-3.01c0.26,0,2.93,3.75,7.88,9.68c6.44,7.69,13.75,14.6,21.77,20.61c8.05,5.97,16.75,11.01,25.94,15.01
		C379.77,742.23,384.39,743.65,384.39,743.95z"/>
	<path class="st8" d="M505.3,630.06c-0.99-0.05-1.97-0.18-2.93-0.41l-8.33-1.54c-3.75-0.68-8.04-1.58-13.14-2.78
		c-5.11-1.2-10.92-2.36-17.3-4.05c-12.8-3.15-27.89-7.51-44.48-12.69c-16.59-5.18-34.65-11.83-53.27-19.37
		c-18.62-7.55-36-15.73-51.58-23.5c-15.58-7.77-29.32-15.39-40.65-22.11c-5.71-3.27-10.74-6.46-15.2-9.2
		c-4.47-2.74-8.22-5.18-11.26-7.25l-7.02-4.73c-0.84-0.52-1.65-1.09-2.4-1.73c0.92,0.37,1.79,0.85,2.59,1.42l7.24,4.39
		c3.12,1.95,6.94,4.32,11.45,6.94c4.5,2.63,9.57,5.78,15.35,8.93c11.26,6.57,25.19,13.93,40.73,21.7
		c15.54,7.77,33,15.65,51.54,23.31c18.54,7.66,36.56,14,53.08,19.45c16.52,5.44,31.53,9.76,44.26,13.06
		c6.35,1.76,12.16,3.08,17.23,4.35c5.07,1.28,9.42,2.29,13.03,3.08l8.26,1.91C503.44,629.47,504.38,629.73,505.3,630.06z"/>
	<path class="st8" d="M422.3,794.52c-0.41-5,0.63-10.01,2.97-14.44c2.35-4.43,5.91-8.1,10.28-10.56c-3.18,3.57-6.05,7.42-8.56,11.49
		C425.05,785.36,423.48,789.88,422.3,794.52z"/>
	<path class="st8" d="M497.01,860.28c0.55-3.22,1.53-6.35,2.93-9.31c3.04-7.29,6.81-14.24,11.26-20.76
		c4.37-6.53,9.4-12.59,15.01-18.09c2.21-2.41,4.73-4.5,7.51-6.23c-2.01,2.54-4.19,4.93-6.53,7.17
		c-10.58,11.41-19.31,24.39-25.9,38.48C500.05,854.54,498.62,857.46,497.01,860.28z"/>
	<path class="st8" d="M335.59,892.04c-0.37-2.76-0.16-5.56,0.64-8.22c1.59-6.57,4.72-12.67,9.12-17.79
		c4.38-5.14,9.93-9.16,16.18-11.71c2.51-1.19,5.25-1.83,8.03-1.88c0,0.34-2.97,1.01-7.51,3.15c-5.84,2.81-11.03,6.8-15.25,11.72
		c-4.22,4.92-7.37,10.66-9.27,16.85C336.19,888.85,335.97,892.08,335.59,892.04z"/>
	<path class="st8" d="M445.09,942.08c-0.61-2.24-0.74-4.58-0.37-6.87c0.54-5.61,2.27-11.03,5.06-15.92
		c2.8-4.92,6.65-9.18,11.26-12.46c1.77-1.52,3.86-2.61,6.12-3.19c-1.67,1.54-3.44,2.97-5.29,4.28c-4.09,3.49-7.56,7.66-10.25,12.31
		c-2.65,4.65-4.46,9.74-5.37,15.01C446.02,937.55,445.63,939.83,445.09,942.08z"/>
	<path class="st8" d="M1513.51,915.13c-6.13-2.74-12.71-4.34-19.41-4.73c-7.23-0.24-14.46,0.76-21.36,2.93
		c-8.46,2.74-16.52,6.6-23.95,11.49c-8.03,5.11-15.28,10.59-21.92,15.46c-6.65,4.88-12.8,9.2-18.17,12.46
		c-4.22,2.62-8.62,4.93-13.18,6.91c-1.61,0.68-2.89,1.17-3.75,1.47c-0.86,0.3-1.35,0.41-1.35,0.34c1.53-0.96,3.14-1.79,4.8-2.48
		c4.38-2.28,8.64-4.78,12.76-7.51c5.22-3.38,11.26-7.73,17.83-12.72c6.57-4.99,13.85-10.55,21.96-15.69
		c7.58-4.96,15.82-8.86,24.47-11.56c7.12-2.18,14.57-3.04,22-2.55c4.99,0.32,9.89,1.48,14.49,3.42c1.29,0.53,2.54,1.14,3.75,1.84
		C1513.13,914.6,1513.54,914.86,1513.51,915.13z"/>
	<path class="st8" d="M1468.65,1117.83c-8.39-6.33-16.38-13.17-23.91-20.5c-7.94-6.85-15.46-14.17-22.52-21.92
		c8.41,6.31,16.41,13.16,23.95,20.5C1454.11,1102.74,1461.62,1110.06,1468.65,1117.83z"/>
	<path class="st8" d="M1572.59,1108.3c-2.8-0.89-5.46-2.15-7.92-3.75c-6.12-3.55-11.95-7.57-17.45-12.01
		c-5.5-4.46-10.66-9.33-15.43-14.57c-2.11-2.06-3.92-4.4-5.4-6.94c0.45-0.41,9.23,9.68,22.04,19.97
		C1561.22,1101.28,1572.89,1107.77,1572.59,1108.3z"/>
	<path class="st8" d="M1690.46,1084.91c-2.96,0.15-5.93-0.12-8.82-0.79c-7.05-1.22-13.97-3.08-20.69-5.56
		c-6.72-2.49-13.19-5.59-19.33-9.27c-2.65-1.36-5.07-3.11-7.21-5.18c0.34-0.53,11.64,6.91,27.22,12.61
		C1677.21,1082.43,1690.73,1084.27,1690.46,1084.91z"/>
	<path class="st8" d="M1809.65,967.34c-0.67,0.31-1.38,0.54-2.1,0.68l-6.08,1.47c-5.29,1.31-12.99,2.93-22.52,4.77
		c-24.94,4.67-50.12,7.96-75.42,9.87c-25.29,1.86-50.67,2.33-76.01,1.39c-9.72-0.38-17.61-0.86-23.01-1.35l-6.27-0.6
		c-0.72-0.04-1.44-0.14-2.14-0.3c0.72-0.11,1.45-0.11,2.18,0l6.27,0.23c5.44,0.22,13.29,0.52,23.01,0.71
		c19.41,0.45,46.29,0.22,75.87-1.95c29.58-2.17,56.31-6,75.3-9.31c9.57-1.61,17.31-3.04,22.52-4.09l6.16-1.16
		C1808.13,967.48,1808.89,967.36,1809.65,967.34z"/>
	<path class="st7" d="M1049.91,620.49c0,0-15.02-97.23-149.44-79.09c-3.98,0.56-21.4,4.65-21.4,4.65l17.64,90.99L1049.91,620.49z"/>
	<path class="st7" d="M900.47,636.48l-149.33,38.66c0,0-16.4-100.23,127.93-129.09"/>
	<path class="st3" d="M927.57,538.99c0,0.34-5.71,0.41-15.02,1.24c-11.91,1.07-23.73,2.92-35.4,5.52
		c-11.66,2.65-23.13,6.05-34.35,10.17c-8.6,3.19-13.78,5.56-13.92,5.25c1.07-0.82,2.24-1.49,3.49-1.99c2.25-1.2,5.67-2.78,9.95-4.54
		c11.15-4.57,22.67-8.18,34.42-10.81c11.75-2.65,23.71-4.32,35.74-4.99c4.58-0.23,8.33-0.26,10.92,0
		C924.79,538.72,926.19,538.76,927.57,538.99z"/>
	<g class="st6">
		<path class="st8" d="M880.31,551.3c-25.53,9.53-51.39,19.29-73.12,35.7c-21.73,16.4-39.11,40.69-40.69,67.87l98.2-22.52
			c-2.85-13.87-2.94-28.17-0.26-42.08C867.12,576.37,872.51,563.12,880.31,551.3z"/>
	</g>
	<path class="st8" d="M824.9,577.77c0,0.38-5.41,2.22-13.48,6.95c-4.7,2.75-9.16,5.91-13.33,9.42c-5.05,4.37-9.69,9.19-13.85,14.42
		c-4.07,5.29-7.62,10.96-10.62,16.93c-2.42,4.9-4.4,10-5.93,15.24c-2.63,8.97-3.08,14.79-3.46,14.75c-0.18-1.36-0.18-2.74,0-4.09
		c0.1-1.6,0.31-3.19,0.64-4.77c0.32-2.11,0.76-4.21,1.31-6.27c1.39-5.38,3.29-10.63,5.67-15.65c2.97-6.13,6.55-11.94,10.7-17.34
		c4.22-5.34,8.99-10.22,14.23-14.57c4.29-3.54,8.91-6.64,13.81-9.27c1.85-1.06,3.77-2,5.74-2.82c1.44-0.71,2.93-1.3,4.47-1.76
		C822.12,578.38,823.5,577.99,824.9,577.77z"/>
	<path class="st7" d="M1402.65,720.19c50.68,68.77,54.99,140.84,18.77,177.97c-25,25.71-72.56-32.28-123.24-101.06
		c-50.68-68.77-97-130.93-66.22-149.29C1281.11,618.57,1351.98,651.42,1402.65,720.19z"/>
	<path class="st3" d="M1431.26,772.48c-0.3,0-2.59-5.63-6.94-14.57c-5.68-11.62-12.23-22.81-19.6-33.45
		c-7.39-10.62-15.59-20.66-24.51-30.03c-6.87-7.17-11.26-11.26-11.26-11.6c1.23,0.76,2.39,1.64,3.45,2.63
		c2.14,1.8,5.14,4.5,8.71,8.04c9.31,9.2,17.73,19.25,25.15,30.03c7.44,10.72,13.87,22.11,19.22,34.01
		c2.03,4.54,3.53,8.29,4.47,10.96C1430.52,769.78,1430.96,771.11,1431.26,772.48z"/>
	<g class="st6">
		<path class="st8" d="M1248.58,650.1L1248.58,650.1c29.73,16.98,56.84,37.66,76.23,65.88c12.15-10.11,26.22-17.65,41.36-22.16
			c-13.25-17.89-31.18-31.78-51.82-40.14C1293.72,645.32,1270.55,646.48,1248.58,650.1z"/>
	</g>
	<path class="st8" d="M1366.92,694.59c-1.18-1.31-2.28-2.7-3.28-4.15c-2.91-3.8-6.03-7.43-9.36-10.86
		c-11.11-11.38-24.58-20.18-39.47-25.78c-14.89-5.59-30.83-7.84-46.68-6.59c-4.8,0.35-9.58,0.99-14.3,1.94
		c-1.73,0.43-3.48,0.75-5.24,0.97c0.4-0.23,0.83-0.39,1.28-0.5c0.87-0.25,2.12-0.69,3.81-1.09c4.71-1.18,9.5-2.01,14.33-2.47
		c16.05-1.58,32.26,0.54,47.36,6.21c15.1,5.67,28.69,14.74,39.73,26.5c3.34,3.53,6.41,7.31,9.18,11.3c1,1.37,1.65,2.56,2.15,3.31
		C1366.92,694.12,1366.98,694.55,1366.92,694.59z"/>
	<g class="st6">
		<path d="M1409.82,904.24c17.6-12.82-8.99-79.3-59.38-148.48c-50.39-69.19-105.51-114.88-123.11-102.06
			c-17.6,12.82,8.99,79.3,59.38,148.48C1337.1,871.37,1392.22,917.06,1409.82,904.24z"/>
	</g>
	<path class="st7" d="M1264.12,787.83l72.64-49.4l21.1,27.7l-77.25,48.5L1264.12,787.83z"/>
	<path class="st3" d="M1383.45,803.11c-1.13-1.23-2.13-2.56-3-3.98c-2.07-2.96-4.62-6.68-7.73-11.26
		c-6.5-9.42-15.62-22.3-26.05-36.26c-10.43-13.97-20.31-26.28-27.74-34.95c-3.75-4.36-6.72-7.81-8.86-10.21
		c-1.17-1.15-2.23-2.4-3.15-3.75c1.37,0.95,2.63,2.06,3.75,3.3c2.29,2.25,5.52,5.56,9.35,9.83c7.69,8.48,17.75,20.72,28.27,34.69
		c10.51,13.96,19.41,27.03,25.64,36.64c3.12,4.81,5.56,8.75,7.21,11.49C1382.04,800.05,1382.82,801.55,1383.45,803.11z"/>
</g>
</svg>
