<?xml version="1.0" encoding="UTF-8"?>
<svg id="Layer_1" data-name="Layer 1" xmlns="http://www.w3.org/2000/svg" viewBox="0 0 1963.44 1890.49">
  <defs>
    <style>
      .cls-1, .cls-2, .cls-3, .cls-4, .cls-5, .cls-6, .cls-7, .cls-8, .cls-9, .cls-10 {
        stroke-width: 0px;
      }

      .cls-1, .cls-9 {
        fill: #000;
      }

      .cls-2 {
        fill: #e0e0e0;
      }

      .cls-3 {
        fill: #eb996e;
      }

      .cls-4 {
        fill: #455a64;
      }

      .cls-5 {
        fill: #f5f5f5;
      }

      .cls-6 {
        fill: #09f;
      }

      .cls-7 {
        fill: #d1734a;
      }

      .cls-8 {
        fill: #263238;
      }

      .cls-11, .cls-9 {
        opacity: .3;
      }

      .cls-9 {
        isolation: isolate;
      }

      .cls-10 {
        fill: #fff;
      }
    </style>
  </defs>
  <path class="cls-2" d="M.38,755.98l31.71-2.49s-2.13-26.61,25.53-29.32c5.32-.62,10.69.44,15.38,3.03,4.68,2.59,8.45,6.57,10.76,11.4,2.04,4.01,3.1,8.44,3.1,12.94s-1.06,8.93-3.1,12.94c-4.66,9.28-15.81,18.25-37.46,16.2l5.66,71.43,31.32-2.48-3.31-41.86s43.08-14.81,39.2-63.29c-3.7-46.35-46.09-53.8-63.9-52.27-13.81.96-59.89,8.01-54.89,63.77Z"/>
  <path class="cls-2" d="M84.48,864.33l-31.79,2.51,2.35,29.7,31.79-2.51-2.35-29.7Z"/>
  <path class="cls-2" d="M1533.64,1020.95h17.16c-.01-1.96.37-3.9,1.12-5.7.75-1.81,1.86-3.45,3.26-4.81,1.4-1.37,3.06-2.44,4.88-3.16,1.82-.71,3.77-1.05,5.73-1,2.88-.12,5.72.65,8.14,2.21,2.42,1.56,4.29,3.83,5.37,6.5.9,2.25,1.26,4.68,1.04,7.1-.22,2.41-1.01,4.74-2.3,6.79-2.87,4.79-9.28,9.19-20.86,7.14v38.81h16.99v-22.7c6.97-2.04,13.08-6.32,17.39-12.18,4.3-5.85,6.56-12.96,6.44-20.23,0-25.14-22.52-30.97-32.19-30.97-7.36.09-32.49,1.87-32.15,32.19Z"/>
  <path class="cls-2" d="M1574.37,1082.94h-17.25v16.12h17.25v-16.12Z"/>
  <path class="cls-5" d="M5.48,1559.65l21.78,3.14c.35-2.5,1.2-4.89,2.49-7.06,1.29-2.17,3-4.05,5.03-5.54,2.03-1.49,4.34-2.57,6.79-3.16,2.45-.59,4.99-.68,7.48-.27,3.71.4,7.2,1.94,9.99,4.41,2.79,2.48,4.73,5.76,5.56,9.39.74,3.02.75,6.17.04,9.2-.71,3.02-2.13,5.84-4.13,8.22-4.57,5.58-13.55,10.02-27.97,5.32l-6.8,49.61,21.78,3.09,4.36-29.01c9.25-1.39,17.79-5.76,24.32-12.45,6.53-6.69,10.69-15.34,11.84-24.62,4.57-32.1-23.17-43.56-35.5-45.39-9.5-1.35-41.9-3.66-47.04,35.11Z"/>
  <path class="cls-5" d="M46.23,1646.22l-22.04-3.14-2.93,20.57,22.04,3.14,2.93-20.57Z"/>
  <path class="cls-5" d="M579.03,66.77l28.83-6.23s-5.27-24.22,19.82-30.1c4.81-1.24,9.89-.94,14.51.85,4.63,1.79,8.59,4.98,11.32,9.13,2.34,3.45,3.83,7.41,4.36,11.55.52,4.14.06,8.35-1.35,12.27-3.13,9.1-12.29,18.77-32.45,19.56l14.11,65.03,28.53-6.19-8.06-38.07s37.76-19.04,28.18-63.12C677.73-.7,637.75-2.31,621.5,1.22c-12.55,2.66-54.06,14.81-42.47,65.56Z"/>
  <path class="cls-5" d="M669.91,156.01l-28.95,6.27,5.86,27.03,28.95-6.27-5.86-27.03Z"/>
  <path class="cls-2" d="M1776.57,1738.51l16.77,3.7c.41-1.92,1.2-3.73,2.33-5.33,1.12-1.6,2.56-2.96,4.23-4,1.66-1.04,3.51-1.73,5.45-2.03,1.94-.3,3.91-.22,5.81.26,2.84.53,5.45,1.93,7.46,4.01s3.33,4.73,3.77,7.58c.38,2.41.18,4.87-.58,7.19-.75,2.32-2.05,4.42-3.77,6.14-3.88,4.05-11.06,6.93-21.78,2.44l-8.37,37.85,16.6,3.66,4.87-22.17c7.26-.5,14.15-3.36,19.62-8.15,5.47-4.79,9.21-11.25,10.66-18.38,5.44-24.52-15.33-35.07-24.74-37.16-7.19-1.61-32.1-5.27-38.33,24.4Z"/>
  <path class="cls-2" d="M1803.08,1807.75l-16.84-3.72-3.48,15.74,16.84,3.72,3.48-15.74Z"/>
  <path class="cls-5" d="M1827.36,509.08h31.63s0-26.57,27.62-27.05c5.33-.2,10.57,1.27,15.03,4.2,4.45,2.93,7.87,7.17,9.8,12.14,1.66,4.15,2.33,8.64,1.94,13.1-.4,4.46-1.83,8.76-4.2,12.56-5.36,8.71-17.12,16.9-38.46,13.07v71.66h31.32v-41.82s43.87-11.37,43.87-59.72-41.51-57.02-59.24-57.02c-13.59-.22-59.89,3.05-59.29,58.89Z"/>
  <path class="cls-5" d="M1902.37,623.21h-31.76v29.66h31.76v-29.66Z"/>
  <path class="cls-2" d="M1038.76,112.16l34.15,7.54s6.36-28.66,36.24-22.56c5.79,1.05,11.1,3.88,15.2,8.1,4.1,4.22,6.78,9.61,7.67,15.42.79,4.89.41,9.9-1.1,14.61-1.52,4.72-4.12,9.01-7.62,12.52-7.92,8.23-22.52,14.11-44.65,4.97l-16.81,77.01,33.76,7.45,9.98-45.08s50.05-1.79,61.59-53.97c11.02-49.92-31.19-71.39-50.35-75.66-14.68-3.35-65.38-10.85-78.06,49.66Z"/>
  <path class="cls-2" d="M1092.55,253.02l-34.28-7.58-7.07,31.99,34.28,7.57,7.07-31.99Z"/>
  <path class="cls-8" d="M1844.56,1889.4c0,.61-388.46,1.09-867.53,1.09s-867.58-.61-867.58-1.09,388.34-1.09,867.58-1.09,867.53.35,867.53,1.09Z"/>
  <path class="cls-4" d="M851.84,165.83l-105.55,34.98,37.33,104.5,68.21-139.48Z"/>
  <path class="cls-4" d="M863.73,618.55l-34.41-65.08c67.34-35.59,101.76-87.77,96.88-146.93-5.23-63.6-56.02-121.97-126.32-145.58l23.3-69.7c99.49,33.19,168.75,115.39,176.5,209.39,7.45,88.91-42.29,168.4-135.95,217.89Z"/>
  <g class="cls-11">
    <path class="cls-1" d="M922.89,452.76s32.72,10.63,75.18-12.76l-4.36,31.88-78.41,29.75-1.69-23.91,9.28-24.96Z"/>
  </g>
  <path class="cls-6" d="M846.83,1081.94c-219.67-30.01-397.18-95.22-527.6-193.84-110.51-83.33-154.72-167.44-169.23-195.01-37.98-72.09-54.32-150.07-47.31-225.6,13.07-138.74,113.95-222.46,178.59-244.85,54.75-18.99,127.67-18.99,175.68-10.85,53.11,9.19,104.35,27.04,151.67,52.84l-44.17,81.28c-38.42-20.97-80.02-35.51-123.14-43.04-41.64-7.14-97.36-4.09-129.68,7.1-34.19,11.8-107.68,67.95-116.83,166-5.36,57.59,7.45,117.61,37.03,173.89,12.15,23.04,49.14,93.26,143.14,164.35,117.61,88.9,280.61,148.1,484.38,175.98l-12.54,91.74Z"/>
  <g class="cls-11">
    <path class="cls-1" d="M362.53,804.38l-87.55,47.31,38.25,32.02,85.42-52.14-36.11-27.18Z"/>
  </g>
  <g class="cls-11">
    <path class="cls-1" d="M659.26,949.87s0,86.55,14.51,99.53l30.49,7.23-23.35-101.58-21.65-5.18Z"/>
  </g>
  <path class="cls-6" d="M540.17,373.83l115.56-31.41-34.02-114.61-81.54,146.01Z"/>
  <path class="cls-6" d="M1429.66,1829.34l-13.07-88.56c267.33-39.21,407.33-255.26,455.07-346.34l79.28,41.55c-54.28,103.24-213.44,348.22-521.28,393.35Z"/>
  <path class="cls-6" d="M1963.44,1495.8l-17.77-139.08-135.86,62.51,153.63,76.58Z"/>
  <g class="cls-11">
    <path class="cls-1" d="M1602.81,1678.01l-21.69,11.37,13.76,92.48,36.68-17.64-28.75-86.2Z"/>
  </g>
  <path class="cls-4" d="M627.29,1774.5c-121.09-20.13-292.98-72.05-424.66-202.86-123.06-122.18-181.69-293.37-153.07-446.62,14.77-79.06,53.1-155.95,110.86-222.15,55.29-62.83,123-113.52,198.85-148.89,127.02-59.63,282.01-84.94,473.84-77.5l-2.83,73.58c-179.82-7.02-323.65,16.07-439.74,70.57-141.39,66.38-244.33,188.26-268.59,317.98-24.26,129.72,26.57,275.6,132.55,380.89,117.96,117.18,274.43,163.92,384.98,182.47l-12.2,72.53Z"/>
  <g class="cls-11">
    <path class="cls-1" d="M568.87,1687.16l-21.74,70.43,53.75,13.76-2-77.23-30.01-6.97Z"/>
  </g>
  <path class="cls-3" d="M628.16,773.75c-10.48-55.99.51-113.87,30.79-162.11,30.28-48.24,77.62-83.3,132.6-98.2l11.32-3.05c124.06-26.14,215.49,64.77,238.09,189.53l83.25,475.1-163.83,144.75-91.48-52.27c-7.88-34.85-24.79-106.81-25.05-106.76-.26.05-122.36,13.64-155.68-103.36-15.99-56.59-39.68-175.59-60.02-283.62Z"/>
  <path class="cls-7" d="M844,1160.74s75.18-15.77,140.57-86.68c0,0-12.81,98.22-132.81,119.48l-7.76-32.8Z"/>
  <path class="cls-8" d="M696.29,870.11c1.15,4.37,3.96,8.12,7.83,10.47,3.87,2.34,8.5,3.09,12.91,2.08,2.17-.43,4.23-1.28,6.07-2.51,1.83-1.23,3.41-2.81,4.62-4.66,1.22-1.85,2.05-3.91,2.47-6.09.41-2.17.38-4.41-.09-6.56-1.15-4.39-3.96-8.15-7.84-10.49-3.88-2.34-8.52-3.08-12.93-2.06-2.17.43-4.23,1.28-6.07,2.51-1.83,1.23-3.4,2.82-4.61,4.66-1.22,1.85-2.05,3.92-2.45,6.09-.41,2.17-.37,4.4.1,6.56Z"/>
  <path class="cls-8" d="M667.36,818.84c2.66,1.61,12.81-11.24,30.88-16.08,18.08-4.83,33.72.56,34.85-2.18.69-1.22-2.49-4.62-9.41-7.23-9.27-3.31-19.33-3.66-28.8-1-9.39,2.52-17.73,7.97-23.83,15.55-4.18,5.57-5.01,10.24-3.7,10.93Z"/>
  <path class="cls-8" d="M850.79,830.64c1.17,4.38,3.98,8.12,7.86,10.46,3.88,2.34,8.52,3.07,12.92,2.04,2.17-.42,4.24-1.26,6.09-2.49,1.84-1.23,3.42-2.81,4.64-4.66,1.22-1.85,2.05-3.92,2.46-6.1.41-2.18.36-4.41-.11-6.57-1.17-4.37-3.98-8.11-7.84-10.44-3.87-2.33-8.49-3.07-12.9-2.06-2.17.42-4.24,1.27-6.08,2.5-1.84,1.23-3.42,2.81-4.64,4.66-1.22,1.85-2.06,3.92-2.47,6.09-.41,2.18-.39,4.41.08,6.57Z"/>
  <path class="cls-8" d="M845.31,774.97c2.7,1.61,13.07-11.24,30.88-16.08,17.82-4.83,33.76.57,35.11-2.18.7-1.22-2.48-4.62-9.41-7.23-9.29-3.27-19.35-3.61-28.84-.96-9.38,2.51-17.72,7.95-23.83,15.51-4.36,5.88-5.18,10.24-3.92,10.93Z"/>
  <path class="cls-8" d="M818.26,931.09c0-1.04-11.94,0-30.49,2.66-4.75.78-9.37,1.04-10.98-1.87-1.61-2.92-1.43-8.71-.65-14.5,1.31-12.33,2.66-25.22,4.09-38.77,5.36-55.06,7.89-99.88,5.66-100.19-2.22-.31-8.36,44.3-13.68,99.36-1.22,13.53-2.38,26.49-3.49,38.85-.3,5.71-1.69,12.46,2.53,18.73,1.09,1.47,2.5,2.68,4.12,3.52,1.62.85,3.42,1.31,5.25,1.36,2.73-.01,5.45-.36,8.1-1.04,18.39-3.75,29.75-6.97,29.54-8.1Z"/>
  <path class="cls-8" d="M916.35,714.64c-2.39-4.83-20.69-.39-42.78-.65-22.08-.26-40.38-4.36-42.78.61-1.04,2.31,2.53,6.71,10.19,10.85,10.17,4.97,21.35,7.55,32.67,7.55s22.5-2.58,32.67-7.55c7.45-4.05,11.07-8.49,10.02-10.81Z"/>
  <path class="cls-8" d="M652.12,766c4.83,3.18,18.47-4.88,36.15-9.63,17.69-4.75,33.46-5.57,35.81-10.76,1-2.48-2.44-6.01-9.97-8.23-10.28-2.53-21.05-2.26-31.19.79-10.19,2.69-19.45,8.11-26.79,15.68-5.18,5.84-6.19,10.59-4.01,12.16Z"/>
  <path class="cls-3" d="M1055.05,786.73c1.74-1.39,74.49-43.08,93.74,37.9,19.25,80.98-73.22,86.25-74.05,83.94-.83-2.31-19.69-121.84-19.69-121.84Z"/>
  <path class="cls-7" d="M1099.35,869.37c.3-.35,1.65.66,4.36,1.18,3.69.61,7.48-.22,10.59-2.31,7.84-5.19,11.8-20.48,8.71-35.16-1.43-6.98-4.41-13.56-8.71-19.25-1.36-2.32-3.26-4.28-5.53-5.72-2.27-1.44-4.86-2.32-7.54-2.55-1.72-.06-3.41.5-4.77,1.57-1.36,1.07-2.29,2.58-2.64,4.27-.56,2.53.35,4.01,0,4.36-.34.34-2.04-.96-2.22-4.36-.01-2.12.69-4.17,2-5.83,1.83-2.22,4.46-3.63,7.32-3.92,6.32-1.05,13.33,3.35,17.68,9.06,5.13,6.18,8.66,13.52,10.28,21.39,3.35,16.42-1.39,33.67-12.29,39.86-2.02,1.14-4.28,1.81-6.6,1.97-2.32.16-4.65-.21-6.81-1.06-3.23-1.57-4.09-3.27-3.83-3.49Z"/>
  <path class="cls-8" d="M435.32,704.32c.29-5.09,2.56-9.88,6.32-13.33,7.93-7.71,18.77-9.54,29.05-12.2,25.69-6.66,49.53-19.08,69.7-36.33-8.96-1.99-17.54-5.39-25.44-10.06-16.2-9.89-28.53-28.1-26.7-47-.04-1.77.33-3.53,1.08-5.13.75-1.6,1.88-3.01,3.27-4.1,4.84-2.87,10.67,1.18,15.34,4.36,15.29,10.54,27.79,13.68,45.34,7.53,10.65-3.26,20.42-8.89,28.58-16.47l.74-1.35c3.18-5.36,6.27-10.5,9.37-15.46,23.21-37.5,44.38-64.69,68.73-81.98,35.68-25.4,100.19-47.65,143.97-46.74,43.77.91,88.81,25.48,104.54,66.3,18.43-25.05,53.14-33.19,83.98-28.66l.66-.48c33.97,3.66,59.72,32.49,76.62,62.25.96,1.61,1.79,3.27,2.7,4.92,14.61,14.38,32.46,25.03,52.06,31.06,3.44,1.04,7.4,2.39,8.71,5.79.31,1.76.17,3.56-.42,5.25-.59,1.69-1.6,3.19-2.94,4.38-6.29,7.15-14.08,12.82-22.82,16.6,4.63,7,9.88,13.58,15.68,19.64,4.97,5.18,10.89,11.32,9.32,18.29-.87,2.63-2.53,4.95-4.75,6.62-2.22,1.67-4.89,2.63-7.67,2.74-5.55.08-11.05-.99-16.16-3.13l16.51,22.61c-10.93,4.64-22.79,6.65-34.63,5.88.52,31.49,8.71,88.03,5.92,110.12-21.39,5.53-27.14,4.36-37.11,10.63-13.07,8.02-1.61,31.54-21.56,28.84-10.11-1.35-32.8-33.11-38.2-41.82-35.71-58.06-58.51-123.11-66.87-190.75-16.33-10.83-34.6-18.4-53.79-22.3l1.7.91c-35.85-3.53-75.97-5.88-103.63,17.21-21.47,17.86-29.71,46.57-43.08,71.09-25.35,46.48-59.5,76.23-110.42,90.78,3.92,36.86,16.55,95.57,22.82,129.33l-44.48-59.89v.3c-3.22-3.39-6.1-6.88-8.71-10.36l-.91-1.05c-4.36-5.79-9.01-11.36-13.94-16.68l-.26.34c-14.24,20.26-46.7,2.27-37.11-20.56,1.92-4.54,4.5-8.77,7.67-12.54-3.14,4.93-7.5,8.97-12.66,11.72-5.16,2.75-10.94,4.11-16.79,3.96-5.83-.35-11.38-2.62-15.79-6.45-4.41-3.83-7.44-9-8.61-14.72-.49-3.92.06-7.9,1.59-11.55,1.53-3.65,3.99-6.83,7.13-9.23-14.4,4.67-29.87,4.96-44.43.83-9.32-2.92-19.56-8.75-19.21-19.95Z"/>
  <path class="cls-4" d="M880.33,514.88c5.01,2.31,9.85,4.99,14.46,8.01,12.05,9.05,21.56,21.05,27.62,34.85,4.38,9.42,7.81,19.25,10.24,29.36,2.66,10.89,4.36,22.78,6.71,35.28,1.99,13.23,4.79,26.33,8.41,39.2,2.03,6.79,4.56,13.41,7.58,19.82,2.76,6.97,7.26,13.12,13.07,17.86,2.61,1.81,5.66,2.92,8.83,3.2,3.17.28,6.36-.27,9.25-1.59,5.6-2.43,10.2-6.68,13.07-12.07,5.49-10.71,4.7-22.47,4.36-32.84l-2.44.87c5.72,8.07,12.58,15.26,20.38,21.34,7.47,5.64,16.84,8.17,26.14,7.06,4.3-.58,8.36-2.35,11.72-5.09,3.1-2.66,5.3-6.2,6.31-10.15,1.03-3.63,1.03-7.47,0-11.1-.97-3.38-3.1-6.31-6.01-8.28l-.96,1.39c8.97,6.44,19.2,10.89,30.01,13.07,2.87.61,5.78,1,8.71,1.18.99.12,1.98.12,2.96,0-.95-.28-1.93-.46-2.92-.52-2.93-.37-5.84-.89-8.71-1.57-10.53-2.53-20.45-7.11-29.19-13.5l-1,1.43c2.55,2.02,4.41,4.78,5.31,7.91.9,3.12.8,6.46-.3,9.52-.96,3.53-2.96,6.69-5.75,9.06-3.08,2.39-6.76,3.9-10.63,4.36-8.66.93-17.34-1.5-24.26-6.79-7.53-6.01-14.16-13.07-19.69-20.95l-2.61-3.4v4.36c.48,10.37,1.04,21.78-3.96,31.36-2.59,4.78-6.68,8.57-11.63,10.8-2.45,1.15-5.17,1.62-7.87,1.38-2.7-.24-5.29-1.18-7.51-2.73-5.42-4.44-9.61-10.19-12.15-16.73-2.98-6.28-5.49-12.77-7.49-19.42-3.61-12.71-6.45-25.63-8.49-38.68-2.18-12.5-4.36-24.39-7.01-35.41-2.53-10.24-6.12-20.18-10.72-29.66-6.33-13.95-16.25-25.98-28.75-34.85-4.58-3.27-9.67-5.74-15.07-7.32Z"/>
  <path class="cls-4" d="M541.61,717.95s.35.22,1.13.57l3.48,1.43c1.87.84,3.81,1.52,5.79,2.05,2.66.84,5.37,1.52,8.1,2.05,17.61,3.42,35.78,2.37,52.88-3.05,25.46-7.91,48.09-23.04,65.12-43.56,19.6-22.7,34.32-52.71,44.43-85.47,5.18-16.42,8.71-32.8,13.07-48.22,3.91-14.91,9.91-29.2,17.82-42.43,7.18-11.9,17.21-21.83,29.19-28.88,5.44-3.03,11.32-5.17,17.43-6.36,5.74-1.07,11.61-1.34,17.42-.79,17.67,1.64,34.06,9.88,45.91,23.09,4.05,5.03,7.53,10.49,10.36,16.29-.07-.42-.2-.83-.39-1.22l-1.44-3.49c-2.07-4.39-4.66-8.51-7.71-12.29-4.96-5.86-10.84-10.86-17.43-14.81-8.83-5.22-18.68-8.48-28.88-9.58-5.94-.58-11.94-.36-17.82.65-6.38,1.2-12.55,3.38-18.25,6.49-12.4,7.13-22.78,17.29-30.18,29.53-8.16,13.38-14.32,27.88-18.3,43.04-4.57,15.55-8.06,31.88-13.07,48.13-10.02,32.54-24.57,62.2-43.56,84.63-16.69,20.24-38.82,35.26-63.77,43.3-16.78,5.47-34.65,6.81-52.06,3.88-6.52-1.29-12.97-2.96-19.3-5.01Z"/>
  <path class="cls-4" d="M518.35,668.51c1.56.86,3.23,1.51,4.97,1.92,4.61,1.48,9.33,2.62,14.11,3.4,7.1,1.19,14.28,1.77,21.47,1.74,17.7-.08,35.21-3.7,51.49-10.63,6.63-2.81,12.99-6.19,19.04-10.1,4.07-2.61,7.95-5.53,11.59-8.72,2.57-2.26,3.92-3.57,3.79-3.74-.13-.17-6.06,4.36-16.47,10.71-6.07,3.62-12.4,6.76-18.95,9.41-16.08,6.49-33.19,10.02-50.53,10.42-7.08.13-14.15-.25-21.17-1.13-11.98-1.53-19.21-3.79-19.34-3.27Z"/>
  <path class="cls-8" d="M885.16,972.29c.31,1.79-13.37,5.71-29.97,10.93-16.59,5.23-30.14,9.8-30.88,8.15-.74-1.65,11.89-8.71,28.97-14.24,17.08-5.53,31.88-6.53,31.88-4.84Z"/>
  <path class="cls-7" d="M824.18,721.74c-1.86,1.04-3.98,1.52-6.1,1.39-5.14.08-10.18-1.36-14.5-4.13-4.38-2.7-7.87-6.6-10.07-11.24-1.04-1.85-1.52-3.97-1.39-6.1,1.01,1.75,1.93,3.55,2.74,5.4,2.42,4.12,5.8,7.61,9.85,10.15,4.05,2.52,8.66,4.01,13.41,4.36,2.02-.05,4.04.02,6.06.17Z"/>
  <path class="cls-7" d="M900.19,985.15c.55-3.94.55-7.95,0-11.89-1.14-3.81-2.77-7.45-4.83-10.84,0,0,1.44.52,3,2.26,1.99,2.38,3.36,5.22,3.98,8.26.63,3.04.48,6.19-.41,9.16-.61,2-1.48,3.18-1.75,3.05Z"/>
  <path class="cls-3" d="M449.57,993.77s95.39-193.49,101.93-201.29c6.54-7.8,41.3-88.69,41.3-88.69l48.44-58.11s22.82,3.44,8.32,32.93l-20.61,39.2,75.75-76.1s22.47,2.61,13.72,26.44c-6.49,17.73-29.62,45.13-29.62,45.13l67.99-59.02s28.31,4.36,14.72,34.06c-8.71,19.3-88.12,106.9-88.12,106.9,0,0,39.55-24.44,52.27-32.54,12.72-8.1,25.4-25.74,34.63-24.09,9.23,1.65,25.35,15.99,1.3,43.25-24.05,27.27-91.48,70.74-101.45,76.14l-9.89,5.4s-11.67,30.49-28.19,44.95c0,0-27.14,85.98-40.81,109.64-9.78,15.99-23.22,29.42-39.2,39.2l-41.73,112.73-119.57-82.02,58.81-94.14Z"/>
  <path class="cls-7" d="M449.57,993.77s-1.26,2.18-3.79,6.27c-2.53,4.1-6.27,10.28-11.2,18.3l-43.21,69.69v-.61l119.18,82.29-1.05.3c12.5-33.8,26.57-71.87,41.65-112.77.07-.17.19-.31.34-.4,11.43-7.06,21.6-15.96,30.1-26.35,4.41-5.36,8.2-11.21,11.28-17.43,3.05-6.31,5.88-13.07,8.71-19.64,10.59-26.92,20.17-55.58,29.66-85.16.06-.14.15-.28.26-.39,6.22-5.95,11.56-12.75,15.85-20.21,4.64-7.83,8.69-16,12.11-24.44.08-.2.22-.36.39-.48,5.01-2.79,10.15-5.4,14.99-8.45,4.83-3.05,9.8-6.14,14.68-9.37,9.76-6.45,19.52-13.07,29.19-20.04,9.67-6.97,19.38-14.2,28.79-21.78,9.62-7.52,18.46-15.98,26.4-25.26,3.94-4.69,6.9-10.13,8.71-15.99.91-2.85,1.08-5.89.49-8.82-.59-2.93-1.91-5.67-3.85-7.96-1.99-2.22-4.53-3.89-7.36-4.83-1.4-.41-2.87-.5-4.31-.28s-2.81.77-4.01,1.58c-5.24,3.47-10.12,7.45-14.55,11.89-4.63,4.5-9.73,8.5-15.2,11.94l-16.42,10.28-33.58,20.39c-.11.07-.23.12-.35.14-.13.02-.26.02-.39-.01-.13-.03-.25-.08-.35-.16-.11-.07-.2-.17-.26-.28-.12-.17-.19-.37-.19-.59s.07-.42.19-.59l18.29-20.51c17.43-19.87,34.85-39.68,50.97-59.89,4.05-5.05,8.01-10.15,11.76-15.38,3.93-4.97,7-10.56,9.06-16.55,1.1-2.86,1.58-5.91,1.39-8.96-.18-3.06-1.03-6.03-2.48-8.73-1.77-2.47-4.01-4.56-6.58-6.16-2.58-1.6-5.45-2.67-8.44-3.16h.78l-68.08,58.94c-.18.17-.42.28-.68.28s-.49-.1-.67-.28c-.14-.18-.22-.41-.22-.63s.08-.45.22-.63c9.74-11.45,18.39-23.79,25.83-36.86,1.8-3.19,3.26-6.56,4.36-10.06,1.2-3.34,1.57-6.93,1.09-10.45-.54-3.46-2.38-6.57-5.14-8.72-2.78-2.12-6.04-3.49-9.5-4.01l.74-.26-75.71,75.97c-.16.16-.38.25-.61.25s-.45-.09-.61-.25c-.11-.15-.17-.33-.17-.52s.06-.37.17-.52l20.17-38.29c1.56-3.1,2.85-6.32,3.87-9.62.49-1.63.86-3.29,1.14-4.97.15-1.65.15-3.32,0-4.97-.24-3.27-1.61-6.35-3.88-8.71-2.31-2.25-5.23-3.77-8.41-4.36l.7-.3-48.52,58.02c-9.89,22.83-19.48,44.56-29.01,64.91-2.4,5.09-4.79,10.1-7.28,14.98-1.26,2.44-2.52,4.79-3.96,7.14-1.44,2.35-2.92,4.36-4.36,6.75-5.14,9.23-9.8,18.38-14.38,27.18-18.12,35.28-33.41,65.86-46,90.91l-28.88,57.72c-3.27,6.58-5.79,11.59-7.54,14.99-1.74,3.39-2.61,5.09-2.61,5.09,0,0,.78-1.74,2.44-5.18l7.36-15.11,28.49-57.89c12.46-25.09,27.66-55.71,45.69-91.08,4.58-8.71,9.19-17.94,14.33-27.23,1.33-2.36,2.78-4.64,4.36-6.84,1.39-2.22,2.66-4.66,3.87-7.06,2.49-4.84,4.84-9.85,7.23-14.95,9.5-20.34,19.04-42.08,28.88-64.94l48.56-58.11c.09-.1.2-.17.31-.22.12-.05.26-.06.39-.04,3.54.64,6.8,2.36,9.32,4.93,2.54,2.61,4.09,6.03,4.36,9.67.2,1.78.2,3.57,0,5.36-.27,1.76-.65,3.51-1.13,5.23-1.07,3.39-2.41,6.7-4.01,9.89l-20.13,38.38-1.35-1c24.22-24.39,49.47-49.76,75.75-76.1.12-.06.24-.09.37-.09s.25.03.37.09c3.78.55,7.36,2.05,10.41,4.36,3.11,2.41,5.18,5.92,5.79,9.8.56,3.81.18,7.69-1.09,11.32-1.07,3.62-2.53,7.11-4.36,10.41-7.5,13.21-16.26,25.66-26.14,37.2l-1.35-1.31,67.99-59.06c.1-.09.22-.15.35-.19.13-.04.26-.05.39-.03,3.24.61,6.35,1.77,9.19,3.44,2.93,1.63,5.4,3.96,7.19,6.79,1.6,2.93,2.55,6.17,2.78,9.5.23,3.33-.26,6.67-1.43,9.8-1,3.12-2.33,6.13-3.96,8.97-1.61,2.83-3.53,5.44-5.36,8.1-3.83,5.27-7.8,10.37-11.85,15.46-16.24,20.26-33.5,40.08-51.05,59.98l-18.29,20.52-1.22-1.48,33.02-20.65c10.89-7.06,22.35-13.07,31.36-21.78,4.57-4.54,9.57-8.61,14.94-12.16,1.46-.82,3.03-1.43,4.66-1.83,1.71-.34,3.49-.23,5.14.35,3.1.81,5.95,2.4,8.27,4.62,2.15,2.51,3.63,5.53,4.29,8.77.66,3.24.49,6.59-.5,9.75-1.83,6.1-4.86,11.78-8.93,16.68-8,9.41-16.95,17.99-26.7,25.57-9.45,7.71-19.12,14.94-28.84,21.78-9.71,6.84-19.51,13.64-29.32,20.04-4.88,3.23-9.76,6.36-14.72,9.41-4.97,3.05-10.07,5.71-15.03,8.49l.4-.48c-3.44,8.55-7.54,16.8-12.29,24.7-4.32,7.67-9.72,14.69-16.03,20.83l.26-.44c-9.54,29.66-19.13,58.28-29.8,85.29-2.66,6.71-5.49,13.33-8.71,19.74-3.16,6.33-7.02,12.29-11.5,17.77-8.61,10.52-18.92,19.53-30.49,26.66l.35-.4-42.08,112.73c-.03.09-.07.16-.12.23-.06.07-.12.12-.21.16-.08.04-.16.06-.25.06-.09,0-.17-.02-.25-.05l-119.09-82.5c-.07-.09-.11-.2-.11-.31s.04-.22.11-.3c18.86-30.14,33.58-53.62,43.56-69.69l11.41-18.12c2.35-4.27,3.96-6.36,3.96-6.36Z"/>
  <path class="cls-7" d="M699.64,701.05c-1.22,1.87-2.6,3.64-4.14,5.27-2.79,3.31-6.92,8.06-12.06,13.81-10.41,11.5-25.05,27.14-42.3,43.3-12.13,11.48-24.87,22.3-38.16,32.41-8.25,2.34-16.07,6.02-23.13,10.89-5.05,3.48-7.58,5.88-7.71,5.75-.13-.13.52-.74,1.69-1.87,1.75-1.64,3.58-3.18,5.49-4.62,6.99-5.2,14.83-9.14,23.17-11.63h-.26c11.02-8.71,24.17-19.82,37.81-32.62,17.43-16.12,31.98-31.54,42.6-42.78l12.55-13.37c1.37-1.62,2.85-3.13,4.44-4.53Z"/>
  <path class="cls-7" d="M632.52,713.29c-2.09,3.22-4.47,6.22-7.14,8.97-4.62,5.36-11.2,12.59-18.69,20.38l-19.16,19.87c-2.54,2.88-5.29,5.56-8.23,8.01,2.1-3.2,4.51-6.19,7.19-8.93,4.7-5.32,11.37-12.51,18.82-20.3l19.08-19.95c2.5-2.9,5.22-5.59,8.15-8.06Z"/>
  <path class="cls-7" d="M685.14,794.27c-.83.87-1.77,1.63-2.78,2.26-1.87,1.35-4.62,3.23-8.1,5.49-9.09,5.76-18.48,11.01-28.14,15.73-9.68,4.69-19.61,8.84-29.75,12.41-3.92,1.35-7.1,2.39-9.32,3-1.12.42-2.29.68-3.48.79,4.01-1.92,8.12-3.61,12.33-5.05,7.62-3.05,18.08-7.45,29.36-13.07,11.28-5.62,21.17-10.98,28.27-15.11,3.74-2.38,7.63-4.53,11.63-6.45Z"/>
  <path class="cls-2" d="M434.63,1008.89c-4.36,5.53-127.8,191.67-127.8,191.67,0,0-116.74,181.9-133.82,233.09-24.92,74.71-30.49,204.25,50.09,238.97,80.59,34.72,108.33,35.85,205.56-1.65,60.37-23.77,116.99-56.14,168.1-96.09l-19.08-338.55-78.41,40.25,67.48-181.16-132.12-86.51Z"/>
  <path class="cls-2" d="M1473.22,1296.99s62.77,50.22,85.51,221.37c14.33,108.07,55.06,369.91,55.06,369.91l-237.31.52s-47.7-337.85-42.82-342.94c4.88-5.1,139.57-248.86,139.57-248.86Z"/>
  <path class="cls-2" d="M577.68,1236.31l267.15-34.28s50.4,80.72,149.06,64.95c138.52-22.13,135.04-119.84,135.04-119.84,0,0,230.51,79.15,275.12,99.14,26.48,11.66,50.09,28.96,69.18,50.7,0,0-81.89,317.99-84.46,321.82-2.57,3.84-18.07,272.99-12.28,270.08,2.48-1.31-751.89,0-764.39,0l-22.7-320.95-78.84-273.73,67.13-57.89Z"/>
  <path class="cls-8" d="M534.29,1186.61c-.28,1.07-.64,2.12-1.09,3.13-.83,2.22-1.96,5.14-3.39,8.72-2.92,7.71-7.23,18.82-12.29,32.71-10.19,27.66-23.26,66.26-37.33,108.9-6.97,21.47-14.42,41.55-18.56,60.59-2.31,9.5-4.36,18.51-6.75,26.88-2.16,7.78-4.77,15.43-7.8,22.91-2.7,6.88-4.92,13.07-6.8,18.69-1.63,4.76-3.55,9.41-5.75,13.94-1.79,3.7-3.22,6.57-4.36,8.71-.47,1.01-1,1.99-1.61,2.92.36-1.05.78-2.09,1.26-3.09l3.92-8.71c2.07-4.54,3.87-9.19,5.4-13.94,1.74-5.58,3.92-11.94,6.58-18.82,5.94-16.2,10.63-32.83,14.03-49.75,4.09-19.13,11.54-39.2,18.47-60.77,14.07-42.73,27.36-81.28,37.89-108.9,5.23-13.77,9.72-24.87,13.07-32.5l3.74-8.71c.36-1.01.82-1.99,1.35-2.92Z"/>
  <path class="cls-8" d="M598.85,1698.87c-.14-.73-.25-1.47-.31-2.22,0-1.61-.3-3.74-.56-6.4-.44-5.79-1.09-13.94-1.92-24.18-1.53-20.86-3.62-50.14-6.14-84.42-4.7-21.3-10.24-44.65-16.73-68.91-13.41-50.27-29.23-94.79-44.3-125.37-5.83-12.08-12.53-23.73-20.04-34.85-2.74-3.92-5.09-6.75-6.58-8.71l-1.69-2.31-.52-.83s.26.22.69.7l1.83,2.18c1.57,1.96,4.05,4.75,6.88,8.71,7.8,11.05,14.7,22.7,20.65,34.85,15.46,30.49,31.54,75.14,44.95,125.45,6.53,24.3,11.98,47.7,16.64,69.04,2.22,34.32,4.09,63.6,5.44,84.46.56,10.24,1.04,18.43,1.39,24.22,0,2.7,0,4.83.26,6.4.12.72.13,1.45.05,2.18Z"/>
  <path class="cls-8" d="M1376.39,1888.92v-17.64c0-12.29,0-29.84.22-51.45.35-43.56.83-103.59,1.35-169.88v-1.04c8.71-65.99,16.94-125.72,22.78-169.1l7.14-51.31c.87-5.97,1.57-10.63,2.04-13.94.22-1.48.44-2.7.57-3.62.04-.42.12-.83.26-1.22.04.42.04.84,0,1.26l-.4,3.66c-.39,3.31-.96,7.97-1.7,13.94-1.52,12.24-3.74,29.71-6.49,51.31-5.71,43.56-13.59,103.1-22.26,169.14v1.05c-.74,66.34-1.44,126.32-1.96,169.88-.35,21.78-.61,39.2-.83,51.44,0,5.97-.22,10.67-.3,13.98v3.66c-.48.7-.4-.13-.44-.13Z"/>
  <path class="cls-6" d="M958.61,1365.16l-61.59,522.37,180.17.87-77.76-523.24h-40.81Z"/>
  <g class="cls-11">
    <path class="cls-1" d="M164.08,1466.87s109.29,189.09,290.67,193.23l41.38-24.52-308.18-244.68s-18.25,46.96-23.87,75.97Z"/>
  </g>
  <path class="cls-2" d="M818.26,1203.3l23.56-42.12s135.86,103.33,133.99,105.46c0,0,142.75-154.9,145.01-157.2l31.58,46.91s-126.11,162.43-127.85,163.83c-1.74,1.39-79.41-14.03-79.41-14.03l-65.69-30.93-61.2-71.92Z"/>
  <path class="cls-6" d="M938,1330.01l22.74,44.87h40.86l16.08-51.8-30.19-35.55h-17.86l-31.63,42.47Z"/>
  <path class="cls-8" d="M977.81,1276.34c-.18.47-.43.91-.74,1.31l-2.39,3.48-9.28,13.07-32.93,44.82-.74,1-.79-.91-30.49-33.23c-22.78-25-43.21-47.92-57.58-64.73-7.23-8.4-13.07-15.33-16.77-20.21-1.96-2.44-3.31-4.36-4.36-5.71-.52-.65-.98-1.35-1.35-2.09.64.54,1.21,1.15,1.7,1.83,1.09,1.22,2.57,3.09,4.62,5.44,4.01,4.7,9.89,11.46,17.43,19.73,14.68,16.6,35.24,39.21,58.02,64.3l30.49,33.32h-1.53l33.54-44.34,9.76-12.63c1.04-1.31,1.96-2.4,2.66-3.31.21-.4.46-.78.74-1.13Z"/>
  <path class="cls-8" d="M1154.41,1166.05c1.57.61-7.36,14.33-22.78,35.06-15.42,20.74-37.33,49.18-61.85,80.15-15.34,19.43-29.89,37.55-42.47,53.06l-.69.87-.74-.87-34.85-41.78-10.01-11.85-2.53-3.18c-.31-.36-.57-.75-.79-1.18.39.29.73.63,1.04,1l2.7,2.96,10.15,11.54,35.59,41.3h-1.44l42.25-53.19c24.52-31.02,46.61-59.15,62.33-79.76,15.73-20.6,24.91-33.89,24.09-34.15Z"/>
  <path class="cls-8" d="M957.64,1371.74c1.08-4.01,2.54-7.9,4.36-11.63,2.92-7.06,7.19-16.68,12.45-27.09,5.27-10.41,10.5-19.56,14.51-26.14,1.98-3.62,4.28-7.04,6.88-10.24-1.54,3.81-3.41,7.48-5.58,10.98-3.66,6.71-8.71,15.94-13.89,26.14-5.19,10.19-9.76,19.86-13.07,26.74-1.59,3.89-3.48,7.65-5.66,11.24Z"/>
  <path class="cls-8" d="M1000.6,1374.18c-14.11,1.4-28.32,1.4-42.43,0,14.11-1.45,28.32-1.45,42.43,0Z"/>
  <g class="cls-11">
    <path class="cls-1" d="M833.98,1229.78l103.84,126.32,49.53-69.39-9.54-10.36-46.17,61.98-97.66-108.55Z"/>
  </g>
  <g class="cls-11">
    <path class="cls-1" d="M987.36,1286.71c5.32,7.1,30.18,75.96,39.64,76.88,9.45.91,118.87-183.17,118.87-183.17l-119.27,153.29-39.25-47Z"/>
  </g>
  <g class="cls-11">
    <path class="cls-1" d="M429.92,1491.66l-10.85,27.18s42.04,4.36,56.63-77.54c14.59-81.89,14.77-131.64,14.77-131.64l-60.55,181.99Z"/>
  </g>
  <g class="cls-11">
    <path class="cls-1" d="M1393.38,1888.97l-7.8-284.22-5.97,45.08-3.35,238.8,17.12.34Z"/>
  </g>
  <g class="cls-11">
    <path class="cls-1" d="M739.46,1225.51s71,62.42,193.1,62.03c122.1-.39,197.37-35.59,276.08-103.71l-44.69-15.51s-71.79,48.92-184.65,51.06c-112.87,2.13-182.04-3.84-182.04-3.84l-57.8,9.97Z"/>
  </g>
  <path class="cls-9" d="M899.97,1889.4s31.14-49.18,81.76-74.92c52.97-26.92,81.11-26.14,81.11-26.14l-6.1-41.03-75.01,2-66.82,52.27-9.15,33.97-5.79,53.84Z"/>
  <g class="cls-11">
    <path class="cls-1" d="M612.13,1878.78s28.23-41.86,84.9-90.25c56.67-48.4,361.33-227.9,361.33-227.9l442.35-232.43-25.4-31.5-703.4,341.42-170.84,149.28,11.07,91.39Z"/>
  </g>
  <path class="cls-4" d="M604.99,1887.62h-73.75c5.19-103.71,57.24-178.6,174.68-259.88,107.9-74.7,275.17-158.08,506.69-273.51,84.81-42.29,180.91-90.21,286.19-143.74,61.77-31.15,115.97-75.46,158.78-129.81l58.11,45.22c-49.47,62.88-112.11,114.16-183.52,150.23-105.54,53.62-201.77,101.62-286.71,143.96-447.66,223.2-632.75,312.02-640.45,467.53Z"/>
  <path class="cls-6" d="M584.6,1665.99c-187.04,0-360.5-126.11-415.95-246.2-16.12-34.85-42.95-102.63-41.73-164.35.96-49.09,19.73-119.44,69.39-156.21,23.57-17.42,56.63-29.83,90.74-34.15,38.51-4.79,73.75,1.35,99.14,17.42l-45.78,72.7c-18.6-11.71-69-4.58-93,13.07-18.99,14.03-33.89,52.27-34.59,88.82-.65,32.54,11.67,78.67,33.8,126.63,21.78,47.31,71.05,97.66,131.55,134.68,68.17,41.73,144.88,63.64,215.92,61.51l2.49,85.86c-4.19.13-8.19.22-11.98.22Z"/>
  <g class="cls-11">
    <path class="cls-1" d="M322.55,1149.85l25-82.76s28.36,7.45,37.33,15.46l-45.3,71.44"/>
  </g>
  <g class="cls-11">
    <path class="cls-1" d="M531.98,1260.45c1.74-.87,270.07,217.06,466.57,267.24,196.49,50.18,358.88,58.85,422.09,45.78,63.2-13.07,142.83-35.54,142.83-35.54l-9.23-60.77s-230.61,17.82-381.06,8.02c-150.46-9.8-513.53-224.73-513.53-224.73l-72.09-34.59-55.58,34.59Z"/>
  </g>
  <path class="cls-6" d="M1305.47,1554c-63.34-.37-126.46-7.32-188.35-20.74-116.52-24.79-245.81-93.04-332.93-142.22-21.78-12.33-45.47-26.13-72.22-41.86-18.08-10.67-35.59-21.13-52.27-31.1-60.76-36.33-114.47-67.21-144.79-79.28,9.32-28.8,19.03-56.28,29.19-82.2,36.72,14.59,93.08,47.92,159.64,87.73,16.64,9.93,34.02,20.3,51.96,30.93,26.14,15.51,49.44,28.92,70.79,40.99,82.19,46.39,203.56,110.68,308.53,132.99,117.61,25,286.93,37.68,425.88-43.56,64.77-38.42,117.26-91.25,147.54-149.32,34.54-66.26,40.94-137.56,19.03-211.96-32.45-110.12-144.75-171.19-279.48-151.85-84.03,12.02-156.81,45.82-221.24,75.62-48.52,22.48-90.43,41.91-130.07,48.92l-14.94-84.59c28.62-5.05,65.82-22.3,108.9-42.25,66.21-30.71,148.67-68.91,245.15-82.76,87.12-12.5,169.32,1.44,237.19,40.38,66.21,37.51,115.28,99.26,136.87,172.23,28.01,95.09,19.3,190.53-25.27,275.95-38.15,73.18-100.49,136.56-180.29,183.35-95.49,55.97-201.12,74.62-298.82,74.62Z"/>
  <g class="cls-11">
    <path class="cls-1" d="M1443.9,807.03c10.85,32.36,4.36,86.81,4.36,86.81l-19.34,1.87c1.76-28.79-.87-57.68-7.8-85.68l22.78-3Z"/>
  </g>
  <g class="cls-11">
    <path class="cls-1" d="M1545,806.03c4,28.9,4,58.22,0,87.11l-19.16-3.48v-85.82l19.16,2.18Z"/>
  </g>
  <g class="cls-11">
    <path class="cls-1" d="M1738.93,1098.58l1.18,26.92s53.88-49.92,63.03-124.14c-4.44-13.52-10.2-26.56-17.21-38.94l-47,136.17Z"/>
  </g>
  <g class="cls-11">
    <path class="cls-1" d="M1112.8,923.55c0,1.44,13.46,85.51,13.46,85.51-10.2,3.75-20.69,6.67-31.36,8.71l-13.46-85.72c10.82-1.25,21.39-4.11,31.36-8.49Z"/>
  </g>
  <path class="cls-4" d="M936.96,1265.46c-42.48.45-84.69-6.94-124.49-21.78-15.55-6.06-37.29-15.64-60.33-25.75-19.47-8.71-39.6-17.42-58.81-25.48-27.14-11.32-62.68-9.85-70.13,4.36l-65.34-34.37c28.79-55.23,106.85-61.81,163.7-38.07,19.82,8.32,40.29,17.43,60.07,26.14,22.3,9.8,43.34,19.08,57.41,24.57,48.13,18.73,111.82,22.04,170.36,8.71,74.97-16.94,169.14-75.92,219.15-137.26,53.05-65.08,70.52-140.78,47.91-207.74-21.34-63.21-127.76-105.46-185.83-99.58l-7.45-73.27c83.89-8.71,227.95,45.44,263.01,149.33,30.88,91.48,8.71,192.66-60.59,277.78-60.11,73.75-169.45,142.09-260,162.52-29.09,6.57-58.82,9.89-88.65,9.89Z"/>
  <path class="cls-4" d="M825.97,1887.57c0-50.1,30.1-104.28,80.72-144.92,124.76-100.19,307.18-78.63,404.85-56.84l-16.03,71.87c-197.46-43.99-299.47,7.67-342.73,42.38-39.21,31.54-53.19,66.82-53.19,87.43l-73.62.09Z"/>
  <path class="cls-4" d="M1257.25,1777.54l108.51-40.42-76.71-87.16-31.8,127.59Z"/>
  <g class="cls-11">
    <path class="cls-1" d="M1121.61,665.68l-6.23,73.27h-23.96l-6.93-73.57c12.33-1.66,24.82-1.56,37.12.3Z"/>
  </g>
  <g class="cls-11">
    <path class="cls-1" d="M568.87,1146.24s62.29,43.56,61.47,43.56c-3.08,1.41-5.6,3.82-7.14,6.84l-65.34-34.37c3.22-5.64,6.9-11.01,11.02-16.03Z"/>
  </g>
  <path class="cls-4" d="M1175.36,356.71l-87.77,121.84,140.39,44.78-52.62-166.62Z"/>
  <path class="cls-4" d="M1601.72,1234.96l-29.44-67.48h-.48c.52-.22,51.75-25,102.67-112.86,51.36-88.6,50.92-223.29,50.83-232.26-8.71-166.53-82.37-282.09-219.36-343.51l-2.22-.79c-46.48-20.46-96.62-31.32-147.39-31.92-50.78-.61-101.16,9.05-148.11,28.39l-32.1,13.29-28.1-68.08,32.15-13.07c56.17-23.12,116.43-34.66,177.17-33.91,60.74.75,120.69,13.76,176.27,38.26l2.53,1.09c162.18,72.74,253.04,213.7,262.84,407.67v1.09c0,6.58,2.66,161.91-60.68,271.16-63.34,109.25-129.24,139.61-136.56,142.92Z"/>
  <path class="cls-6" d="M1408.18,1248.69l-79.28-31.14c9.72-26.01,21.05-51.38,33.93-75.97,16.34-32.28,33.19-65.65,46.57-107.73,48.48-152.46,41.94-236.39,11.63-346.91l82.76-22.78c34.06,124.02,42.12,223.77-12.59,395.74-15.46,48.66-34.85,86.77-51.75,120.4-11.76,22.16-22.2,45-31.28,68.39Z"/>
  <path class="cls-6" d="M1538.26,667.77l-108.68-104.41-58.85,139.18,167.53-34.76Z"/>
  <g class="cls-11">
    <path class="cls-1" d="M1328.91,1217.45l7.32-18.03,79.67,28.44-7.71,20.83-79.28-31.24Z"/>
  </g>
  <path class="cls-10" d="M1548.24,493.19c118.13-13.12,203.26-119.53,190.13-237.66-13.13-118.13-119.53-203.26-237.66-190.13-118.13,13.13-203.26,119.53-190.13,237.66,13.13,118.13,119.53,203.25,237.66,190.13Z"/>
  <path class="cls-8" d="M1315.75,274.6c.24-1.15.37-2.31.39-3.49,0-2.48.44-5.88.74-10.24,0-2.26.3-4.79.48-7.54.17-2.74.91-5.75,1.4-9.02.9-7.52,2.36-14.96,4.36-22.26,5.07-20.15,13.16-39.42,24-57.15,28.56-47.08,74.03-81.46,127.11-96.13,53.07-14.66,109.75-8.5,158.43,17.24,9.1,5,17.83,10.63,26.14,16.86,8.54,6.34,16.64,13.24,24.26,20.65,7.55,7.73,14.58,15.95,21.04,24.61,13.28,17.87,23.58,37.77,30.49,58.94,7.03,21.83,10.76,44.59,11.06,67.52-.27,22.93-3.99,45.69-11.02,67.52-6.95,21.15-17.24,41.05-30.49,58.94-6.43,8.74-13.45,17.04-21,24.83-7.61,7.42-15.72,14.32-24.26,20.65-8.3,6.23-17.04,11.86-26.14,16.86-9.02,4.71-18.35,8.81-27.92,12.29-46.85,16.98-98.15,17.14-145.11.45-46.96-16.69-86.65-49.18-112.28-91.92-10.84-17.73-18.93-37-24-57.15-1.99-7.3-3.45-14.74-4.36-22.26-.48-3.27-1.09-6.27-1.39-9.02-.31-2.74-.35-5.27-.48-7.54-.3-4.36-.56-7.75-.74-10.24-.02-1.19-.15-2.37-.39-3.53-.08,1.18-.08,2.35,0,3.53,0,2.53,0,5.92.3,10.28,0,2.31,0,4.84.31,7.58.3,2.74.78,5.79,1.18,9.1.91,7.59,2.37,15.1,4.36,22.48,4.82,20.42,12.77,39.98,23.56,57.98,15.68,26.57,36.84,49.5,62.07,67.26,25.23,17.76,53.95,29.95,84.25,35.76,38.3,7.23,77.83,4.06,114.48-9.19,9.76-3.48,19.26-7.64,28.44-12.46,9.32-5.06,18.28-10.78,26.79-17.12,8.72-6.44,17-13.45,24.79-21,7.69-7.93,14.84-16.37,21.39-25.26,13.58-18.22,24.12-38.52,31.23-60.11,7.21-22.24,11.02-45.44,11.28-68.82-.36-23.35-4.25-46.51-11.54-68.69-7.12-21.58-17.67-41.88-31.23-60.11-6.58-8.87-13.74-17.3-21.43-25.22-7.76-7.55-16.03-14.57-24.74-21-16.73-12.72-35.37-22.7-55.23-29.58-36.65-13.25-76.18-16.42-114.47-9.19-30.31,5.8-59.03,17.99-84.25,35.75-25.23,17.76-46.39,40.69-62.07,67.27-10.8,18-18.75,37.55-23.56,57.98-1.99,7.38-3.45,14.89-4.36,22.48-.4,3.27-.96,6.32-1.18,9.06-.22,2.74-.22,5.31-.31,7.62,0,4.36-.22,7.75-.3,10.28-.09,1.16-.11,2.32-.04,3.49Z"/>
  <path class="cls-8" d="M1477.58,221.33h28.93s0-24.31,25.26-24.74c4.86-.17,9.66,1.18,13.73,3.85,4.07,2.68,7.2,6.55,8.97,11.09,1.51,3.8,2.11,7.9,1.74,11.97-.36,4.07-1.67,8-3.83,11.47-4.88,8.1-15.64,15.46-35.16,12.02v65.34h28.62v-38.29s40.12-10.41,40.12-54.62-37.94-52.27-54.19-52.27c-12.5.13-54.8,3.14-54.19,54.19Z"/>
  <path class="cls-8" d="M1546.1,325.7h-29.06v27.14h29.06v-27.14Z"/>
  <path class="cls-10" d="M1383.32,527.87c12.08-13.39,11.03-34.05-2.37-46.14-13.39-12.08-34.05-11.03-46.14,2.37-12.08,13.39-11.03,34.05,2.37,46.14,13.4,12.08,34.06,11.03,46.15-2.37Z"/>
  <path class="cls-8" d="M1326.38,505.9c.44,0,.48-2.92,1.92-7.75,2.05-6.78,6.26-12.72,11.98-16.9,4.55-3.31,9.92-5.3,15.53-5.74,5.61-.45,11.23.67,16.24,3.22,5.01,2.55,9.22,6.45,12.16,11.24,2.94,4.8,4.5,10.31,4.5,15.94s-1.56,11.14-4.5,15.94c-2.94,4.8-7.15,8.68-12.16,11.24-5.01,2.55-10.63,3.67-16.24,3.23-5.61-.45-10.99-2.43-15.53-5.74-5.72-4.19-9.93-10.12-11.98-16.9-1.44-4.83-1.48-7.76-1.92-7.76-.72,2.69-.72,5.51,0,8.19,1.51,7.56,5.69,14.33,11.76,19.08,4.52,3.6,9.89,5.98,15.59,6.92,5.7.94,11.55.42,16.99-1.52,6.67-2.48,12.42-6.93,16.48-12.77,4.06-5.84,6.24-12.78,6.24-19.9s-2.18-14.06-6.24-19.9c-4.06-5.84-9.81-10.3-16.48-12.77-5.44-1.93-11.29-2.45-16.99-1.5-5.7.94-11.06,3.32-15.59,6.91-6.06,4.77-10.23,11.52-11.76,19.08-.72,2.68-.72,5.51,0,8.19Z"/>
  <path class="cls-10" d="M489.37,496.06c10.13-61.94-31.87-120.37-93.81-130.51-61.94-10.13-120.37,31.87-130.5,93.81-10.13,61.94,31.87,120.37,93.81,130.5,61.94,10.13,120.37-31.87,130.5-93.81Z"/>
  <path class="cls-8" d="M490.91,477.77c-.14-.6-.21-1.21-.22-1.83,0-1.31-.22-3.09-.39-5.4,0-1.18,0-2.53-.26-3.96-.26-1.44-.48-3-.74-4.75-.49-3.95-1.29-7.85-2.4-11.68-2.67-10.61-6.91-20.75-12.59-30.1-7.47-12.4-17.24-23.25-28.79-31.97-13.96-10.63-30.23-17.82-47.48-21-19.8-3.65-40.22-1.95-59.15,4.92-10.22,3.61-19.81,8.78-28.44,15.33-4.49,3.34-8.76,6.98-12.76,10.89-3.98,4.1-7.67,8.47-11.06,13.07-6.98,9.41-12.4,19.89-16.07,31.01-7.72,23.04-7.72,47.96,0,71,3.67,11.13,9.1,21.6,16.07,31.02,3.39,4.59,7.07,8.95,11.02,13.07,4.03,3.88,8.29,7.5,12.76,10.85,4.41,3.2,9.02,6.11,13.81,8.71,4.75,2.47,9.65,4.63,14.68,6.45,18.94,6.87,39.37,8.59,59.2,4.97,15.72-2.98,30.63-9.24,43.77-18.38,13.13-9.13,24.2-20.93,32.46-34.64,5.68-9.33,9.92-19.46,12.59-30.06,1.11-3.84,1.91-7.76,2.4-11.71.26-1.7.61-3.31.74-4.75.13-1.44,0-2.79.26-3.96,0-2.26.3-4.05.39-5.4.01-.62.08-1.23.22-1.83.06.61.06,1.22,0,1.83v9.41c0,1.48-.4,3.05-.61,4.79-.46,3.98-1.21,7.92-2.22,11.8-2.56,10.74-6.74,21.02-12.41,30.49-13.5,22.95-34.61,40.46-59.66,49.47-25.06,9.01-52.48,8.97-77.51-.11-5.14-1.86-10.14-4.05-14.98-6.58-4.9-2.67-9.6-5.69-14.07-9.02-4.59-3.38-8.96-7.06-13.07-11.02-4.05-4.17-7.8-8.61-11.24-13.29-7.17-9.58-12.73-20.26-16.47-31.63-3.78-11.7-5.78-23.9-5.92-36.2.14-12.3,2.15-24.5,5.97-36.2,3.74-11.35,9.29-22.03,16.42-31.62,3.44-4.61,7.2-8.97,11.24-13.07,4.11-3.96,8.47-7.64,13.07-11.02,4.47-3.33,9.17-6.35,14.07-9.02,23.1-12.06,49.56-16.06,75.18-11.37,15.94,3.04,31.06,9.45,44.33,18.8,13.27,9.34,24.4,21.41,32.64,35.39,5.68,9.47,9.87,19.75,12.41,30.49,1.01,3.88,1.76,7.82,2.22,11.8.22,1.75.48,3.31.61,4.79v9.41c.05.6.05,1.19,0,1.79Z"/>
  <path class="cls-8" d="M342.54,455.98h18.56c-.01-2.11.4-4.21,1.22-6.16.81-1.95,2.01-3.72,3.53-5.2,1.51-1.48,3.31-2.64,5.28-3.41,1.97-.77,4.07-1.14,6.19-1.08,3.12-.13,6.21.72,8.82,2.44s4.62,4.22,5.73,7.14c.99,2.43,1.39,5.06,1.16,7.67-.23,2.61-1.07,5.14-2.46,7.36-3.14,5.18-10.06,9.93-22.56,7.71v41.86h18.38v-24.52c7.51-2.2,14.09-6.79,18.74-13.09,4.65-6.29,7.11-13.94,7-21.76,0-27.14-24.35-33.45-34.85-33.45-7.93-.04-35.07,1.74-34.72,34.5Z"/>
  <path class="cls-8" d="M386.58,522.94h-18.64v17.43h18.64v-17.43Z"/>
  <path class="cls-10" d="M541.39,531.65c0,3.78-1.11,7.48-3.2,10.63-2.1,3.15-5.08,5.61-8.57,7.06-3.49,1.46-7.34,1.84-11.05,1.11-3.71-.73-7.12-2.55-9.8-5.22-2.68-2.68-4.51-6.08-5.25-9.79-.74-3.71-.36-7.56,1.08-11.06,1.44-3.5,3.89-6.49,7.04-8.59,3.14-2.11,6.85-3.23,10.63-3.23,5.06,0,9.92,2.01,13.51,5.58,3.58,3.58,5.6,8.43,5.62,13.5Z"/>
  <path class="cls-8" d="M541.39,531.65c-.26,0-.26-1.69-1.14-4.36-1.2-3.97-3.66-7.44-7.01-9.89-2.68-1.98-5.85-3.18-9.17-3.47-3.32-.29-6.65.35-9.62,1.84-2.97,1.49-5.48,3.79-7.23,6.62-1.75,2.84-2.68,6.1-2.69,9.42.01,3.33.94,6.59,2.69,9.43,1.75,2.83,4.26,5.12,7.23,6.62s6.31,2.14,9.62,1.85c3.32-.29,6.49-1.49,9.17-3.47,3.36-2.43,5.82-5.91,7.01-9.89.87-2.83.87-4.36,1.14-4.36.42,1.57.42,3.22,0,4.79-.89,4.42-3.33,8.38-6.88,11.15-2.65,2.11-5.79,3.5-9.13,4.06-3.34.56-6.76.26-9.95-.87-3.97-1.39-7.41-3.97-9.84-7.4-2.43-3.43-3.74-7.52-3.74-11.73s1.31-8.3,3.74-11.73c2.43-3.43,5.87-6.01,9.84-7.4,3.19-1.12,6.61-1.42,9.95-.86,3.33.55,6.48,1.94,9.13,4.04,3.53,2.79,5.97,6.74,6.88,11.15.36,1.46.36,2.98,0,4.44Z"/>
  <path class="cls-10" d="M1716.41,1637.41c84.66,0,153.29-68.63,153.29-153.29s-68.63-153.29-153.29-153.29-153.29,68.63-153.29,153.29,68.63,153.29,153.29,153.29Z"/>
  <path class="cls-8" d="M1869.61,1484.3c-.17-.82-.28-1.65-.3-2.49,0-1.79-.26-4.36-.52-7.27,0-1.61-.22-3.4-.3-5.32-.09-1.92-.65-4.09-1-6.4-.71-5.34-1.79-10.62-3.23-15.81-3.63-14.29-9.37-27.95-17.03-40.55-20.26-33.37-52.48-57.75-90.1-68.16-37.62-10.42-77.79-6.09-112.33,12.11-6.47,3.53-12.69,7.52-18.6,11.93-6.13,4.5-11.95,9.4-17.43,14.68-5.35,5.46-10.31,11.28-14.85,17.42-9.44,12.68-16.79,26.78-21.78,41.78-4.99,15.49-7.63,31.64-7.84,47.92.18,16.28,2.82,32.43,7.84,47.91,4.97,15.03,12.33,29.17,21.78,41.86,4.57,6.13,9.53,11.95,14.85,17.42,5.47,5.26,11.3,10.15,17.43,14.64,5.92,4.41,12.14,8.41,18.6,11.98,6.4,3.35,13.02,6.26,19.82,8.71,25.52,9.27,53.05,11.57,79.75,6.67,21.21-4,41.34-12.43,59.06-24.75,17.72-12.32,32.64-28.24,43.78-46.73,7.68-12.58,13.42-26.25,17.03-40.55,1.43-5.18,2.51-10.45,3.23-15.77.35-2.35.78-4.36,1-6.4.22-2.04.22-3.74.3-5.36.26-3.09.39-5.49.52-7.27.04-.73.14-1.46.3-2.18.06.82.06,1.65,0,2.48v12.68c0,1.96-.57,4.14-.87,6.45-.59,5.38-1.58,10.71-2.96,15.95-3.42,14.5-9.06,28.39-16.73,41.16-11.13,18.84-26.15,35.1-44.05,47.7-17.89,12.6-38.26,21.26-59.76,25.39-27.16,5.11-55.2,2.85-81.2-6.53-14.09-4.9-27.31-11.99-39.2-21-6.14-4.56-11.97-9.54-17.43-14.9-5.47-5.61-10.55-11.59-15.2-17.9-9.63-12.93-17.12-27.33-22.17-42.65-10.63-31.68-10.63-65.98,0-97.66,5.06-15.31,12.55-29.71,22.17-42.65,4.65-6.31,9.73-12.29,15.2-17.9,5.48-5.34,11.3-10.32,17.43-14.9,6.04-4.48,12.39-8.55,18.99-12.15,6.53-3.37,13.28-6.28,20.21-8.72,26-9.39,54.04-11.63,81.2-6.49,21.49,4.11,41.87,12.76,59.76,25.35,17.9,12.59,32.91,28.85,44.04,47.7,7.66,12.78,13.3,26.67,16.73,41.16,1.38,5.23,2.37,10.56,2.96,15.94.3,2.31.69,4.36.87,6.45.17,2.1,0,3.75,0,5.36v7.32c.05.78.05,1.57,0,2.35Z"/>
  <path class="cls-8" d="M1675.03,1449.45h22.13c-.01-2.53.48-5.03,1.45-7.36.98-2.33,2.4-4.44,4.21-6.21,1.8-1.77,3.94-3.15,6.29-4.08,2.35-.92,4.86-1.37,7.39-1.3,3.73-.14,7.42.88,10.54,2.94,3.13,2.05,5.53,5.03,6.88,8.52,1.16,2.9,1.62,6.03,1.35,9.15-.28,3.11-1.29,6.11-2.96,8.76-3.75,6.23-11.98,11.85-26.92,9.23v50.05h21.78v-29.23c8.99-2.65,16.86-8.18,22.41-15.73,5.55-7.55,8.46-16.72,8.3-26.09,0-32.41-29.01-39.9-41.47-39.9-9.41-.22-41.82,2.04-41.38,41.25Z"/>
  <path class="cls-8" d="M1727.52,1529.21h-22.22v20.78h22.22v-20.78Z"/>
  <path class="cls-10" d="M1553.94,1314.42c-.01,5.03,1.48,9.95,4.27,14.14,2.79,4.19,6.76,7.46,11.41,9.39,4.65,1.93,9.76,2.44,14.7,1.46,4.94-.98,9.48-3.39,13.04-6.95,3.56-3.56,5.99-8.09,6.97-13.02.99-4.94.48-10.06-1.44-14.7-1.92-4.65-5.18-8.63-9.37-11.42-4.19-2.8-9.11-4.29-14.14-4.29-6.74,0-13.2,2.68-17.97,7.44-4.77,4.76-7.46,11.22-7.47,17.96Z"/>
  <path class="cls-8" d="M1553.94,1314.42c.35,0,.35-2.26,1.48-6.01,1.62-5.25,4.91-9.84,9.36-13.07,3.55-2.62,7.77-4.22,12.17-4.59,4.4-.38,8.82.48,12.77,2.47,3.94,1.99,7.26,5.04,9.58,8.8,2.32,3.76,3.55,8.1,3.55,12.52s-1.23,8.75-3.55,12.52c-2.32,3.76-5.63,6.81-9.58,8.8-3.95,1.99-8.37,2.85-12.77,2.47-4.41-.38-8.62-1.97-12.17-4.6-4.45-3.24-7.73-7.82-9.36-13.07-1.14-3.79-1.14-6.06-1.48-6.06-.51,2.11-.51,4.3,0,6.4,1.2,5.87,4.44,11.11,9.15,14.81,3.51,2.82,7.69,4.71,12.14,5.47,4.44.76,9.01.37,13.26-1.12,5.27-1.85,9.84-5.3,13.06-9.85,3.23-4.56,4.97-10,4.97-15.59s-1.74-11.03-4.97-15.59c-3.23-4.56-7.79-8-13.06-9.85-4.26-1.48-8.82-1.85-13.26-1.09-4.44.76-8.62,2.63-12.14,5.44-4.71,3.71-7.95,8.97-9.15,14.85-.45,1.95-.45,3.98,0,5.92Z"/>
  <path class="cls-10" d="M329.19,1753.13c17.07-56.01-14.5-115.25-70.51-132.33-56.01-17.07-115.26,14.49-132.33,70.51-17.07,56.01,14.5,115.26,70.51,132.33,56.01,17.07,115.26-14.5,132.33-70.51Z"/>
  <path class="cls-8" d="M333.79,1722.35c-.05-.58-.05-1.17,0-1.74,0-1.22,0-2.88-.39-5.01,0-1.13,0-2.35-.22-3.7-.22-1.35-.44-2.83-.7-4.36-.48-3.68-1.23-7.31-2.22-10.89-2.48-9.9-6.46-19.36-11.8-28.05-12.55-21.01-32.03-36.98-55.09-45.18-23.06-8.19-48.25-8.08-71.24.31-4.69,1.71-9.26,3.73-13.68,6.06-4.55,2.44-8.91,5.21-13.07,8.27-4.23,3.06-8.25,6.4-12.02,10.02-3.7,3.82-7.14,7.9-10.28,12.2-6.47,8.72-11.5,18.43-14.9,28.75-7.2,21.5-7.2,44.76,0,66.26,3.41,10.38,8.47,20.15,14.98,28.92,3.16,4.3,6.61,8.38,10.32,12.2,3.73,3.67,7.71,7.09,11.89,10.24,4.16,3.07,8.52,5.83,13.07,8.28,17.76,9.5,37.87,13.71,57.94,12.12,20.08-1.59,39.27-8.91,55.31-21.09,10.7-8.12,19.72-18.24,26.57-29.8,5.33-8.7,9.31-18.16,11.8-28.05.99-3.59,1.73-7.24,2.22-10.93.26-1.61.57-3.05.7-4.36.13-1.3,0-2.61.22-3.7,0-2.13.31-3.83.39-5.05-.05-.56-.05-1.13,0-1.7.05.57.05,1.14,0,1.7v8.8c0,1.39-.39,2.83-.61,4.36-.4,3.72-1.08,7.41-2.05,11.02-2.37,10.03-6.26,19.63-11.54,28.49-12.6,21.42-32.3,37.75-55.69,46.16-23.39,8.41-48.98,8.37-72.33-.12-9.74-3.37-18.89-8.26-27.09-14.51-4.31-3.16-8.4-6.61-12.24-10.32-3.79-3.9-7.31-8.04-10.54-12.41-6.65-8.95-11.83-18.91-15.33-29.49-3.52-10.93-5.37-22.32-5.49-33.8.11-11.47,1.98-22.85,5.53-33.76,3.48-10.6,8.65-20.56,15.33-29.49,3.21-4.37,6.72-8.52,10.5-12.41,3.81-3.7,7.87-7.13,12.15-10.28,8.2-6.24,17.35-11.13,27.09-14.5,23.37-8.45,48.96-8.47,72.34-.05,23.38,8.42,43.08,24.76,55.68,46.18,5.28,8.83,9.17,18.43,11.54,28.44.96,3.62,1.64,7.3,2.05,11.02,0,1.61.48,3.09.61,4.36.13,1.26,0,2.61,0,3.7v5.05c.14.62.23,1.24.26,1.87Z"/>
  <path class="cls-8" d="M199.1,1698.27h15.25c0-1.74.35-3.47,1.02-5.07.68-1.6,1.67-3.06,2.91-4.28,1.25-1.22,2.72-2.17,4.34-2.81,1.62-.64,3.35-.95,5.09-.91,2.58-.1,5.12.61,7.27,2.02,2.16,1.41,3.82,3.47,4.75,5.87.81,2.01,1.13,4.18.94,6.34-.19,2.16-.88,4.24-2.03,6.08-2.61,4.36-8.32,8.19-18.64,6.36v34.59h15.25v-20.25c6.22-1.82,11.68-5.64,15.52-10.87,3.84-5.22,5.86-11.57,5.74-18.05,0-22.39-20.08-27.62-28.71-27.62-6.58,0-28.97,1.61-28.71,28.62Z"/>
  <path class="cls-8" d="M235.43,1753.54h-15.38v14.37h15.38v-14.37Z"/>
  <path class="cls-10" d="M297.33,1587.53c0,4.85,1.42,9.6,4.11,13.64,2.69,4.04,6.52,7.19,11,9.05,4.48,1.86,9.41,2.35,14.17,1.41,4.76-.94,9.13-3.27,12.57-6.7,3.43-3.43,5.77-7.8,6.72-12.56.95-4.76.47-9.69-1.39-14.18-1.85-4.48-5-8.31-9.03-11.01-4.03-2.7-8.78-4.13-13.63-4.13-6.5,0-12.73,2.58-17.33,7.16-4.6,4.59-7.19,10.82-7.2,17.31Z"/>
  <path class="cls-8" d="M297.33,1587.54c.3,0,.35-2.18,1.44-5.79,1.52-5.09,4.67-9.55,8.97-12.68,3.1-2.25,6.72-3.7,10.51-4.23,3.8-.52,7.67-.1,11.27,1.22,4.38,1.64,8.15,4.58,10.81,8.42,2.66,3.84,4.09,8.4,4.09,13.08s-1.43,9.24-4.09,13.08c-2.66,3.84-6.44,6.78-10.81,8.42-3.6,1.33-7.47,1.75-11.27,1.22-3.8-.52-7.41-1.98-10.51-4.23-4.33-3.17-7.49-7.69-8.97-12.85-1.09-3.62-1.13-5.84-1.44-5.84-.53,2.03-.53,4.16,0,6.19,1.15,5.63,4.23,10.68,8.71,14.28,3.4,2.69,7.44,4.47,11.72,5.18,4.28.71,8.67.32,12.76-1.13,5-1.85,9.32-5.2,12.36-9.58,3.05-4.38,4.68-9.59,4.68-14.92s-1.63-10.54-4.68-14.92c-3.05-4.38-7.36-7.72-12.36-9.58-4.09-1.45-8.48-1.84-12.76-1.14-4.28.71-8.31,2.5-11.72,5.18-4.48,3.61-7.56,8.66-8.71,14.29-.57,2.07-.57,4.25,0,6.32Z"/>
</svg>
