<?xml version="1.0" encoding="UTF-8"?>
<svg id="Layer_1" data-name="Layer 1" xmlns="http://www.w3.org/2000/svg" viewBox="0 0 1809.02 1910">
  <defs>
    <style>
      .cls-1 {
        fill: #000;
      }

      .cls-1, .cls-2, .cls-3, .cls-4, .cls-5, .cls-6, .cls-7, .cls-8, .cls-9, .cls-10, .cls-11, .cls-12, .cls-13 {
        stroke-width: 0px;
      }

      .cls-2 {
        fill: #e0e0e0;
      }

      .cls-3 {
        fill: #eb996e;
      }

      .cls-4 {
        fill: #455a64;
      }

      .cls-5 {
        fill: #f5f5f5;
      }

      .cls-6 {
        fill: #09f;
      }

      .cls-7 {
        fill: #ebebeb;
      }

      .cls-8 {
        fill: none;
      }

      .cls-9 {
        fill: #d1734a;
      }

      .cls-10 {
        fill: #e2323d;
      }

      .cls-11 {
        fill: #263238;
      }

      .cls-12 {
        fill: #fafafa;
      }

      .cls-14 {
        opacity: .3;
      }

      .cls-15 {
        opacity: .6;
      }

      .cls-13 {
        fill: #fff;
      }
    </style>
  </defs>
  <g id="freepik--background-complete--inject-356">
    <rect class="cls-2" x="1533.36" y="44.53" width="275.66" height="287.36"/>
    <rect class="cls-12" x="1514.68" y="44.53" width="275.66" height="287.36"/>
    <path class="cls-2" d="M1790.43,331.97h-275.78V44.44h275.78v287.53ZM1514.64,331.97h275.49V44.65h-275.37l-.13,287.32Z"/>
    <rect class="cls-13" x="1551.75" y="83.18" width="201.53" height="210.1"/>
    <path class="cls-2" d="M1551.75,294.66c-1.42,2.13-3.09,4.08-4.97,5.81-3.22,3.38-7.73,7.98-12.79,12.95s-9.74,9.44-13.16,12.54c-1.75,1.84-3.72,3.47-5.85,4.85,1.42-2.1,3.07-4.04,4.93-5.77,3.26-3.38,7.77-7.98,12.87-13,5.1-5.01,9.74-9.49,13.16-12.54,1.75-1.83,3.69-3.46,5.81-4.85Z"/>
    <path class="cls-2" d="M1753.28,294.15c2.14,1.41,4.09,3.08,5.81,4.97,3.38,3.22,7.98,7.73,13,12.79,5.01,5.06,9.44,9.74,12.54,13.2,1.86,1.72,3.49,3.67,4.85,5.81-2.08-1.43-3.99-3.1-5.68-4.97-3.43-3.22-8.02-7.77-13.04-12.87-5.01-5.1-9.44-9.74-12.54-13.16-1.86-1.73-3.51-3.66-4.93-5.77Z"/>
    <path class="cls-2" d="M1752.74,83.6c1.43-2.11,3.1-4.04,4.97-5.77,3.22-3.38,7.77-7.98,12.83-13s9.74-9.44,13.16-12.54c1.75-1.82,3.7-3.43,5.81-4.81-1.38,2.14-3.03,4.08-4.93,5.77-3.22,3.38-7.77,8.02-12.83,13.04-5.06,5.01-9.78,9.44-13.2,12.54-1.73,1.82-3.68,3.42-5.81,4.76Z"/>
    <path class="cls-2" d="M1551.33,84.27c-2.13-1.4-4.11-3.03-5.89-4.85-3.43-3.22-8.02-7.77-13-12.83s-9.44-9.74-12.54-13.16c-1.83-1.75-3.45-3.7-4.85-5.81,2.13,1.39,4.06,3.05,5.77,4.93,3.38,3.22,7.98,7.77,13,12.83,5.01,5.06,9.49,9.78,12.54,13.2,1.89,1.67,3.57,3.58,4.97,5.68Z"/>
    <path class="cls-2" d="M1752.74,293.28v-15.29c0-9.94,0-24.44-.21-42.83,0-36.81-.21-89.21-.38-151.97l.75.79h-200.95l.92-.88v210.1l-1.13-.67,145.54.42h54.61c.32-.05.64-.05.96,0h-54.95l-146.04.38h-.75V81.59h202.66v.79c0,62.97-.29,115.54-.42,152.48v56.66c-.03.63-.25,1.24-.63,1.76Z"/>
    <rect class="cls-7" x="1618.9" y="154.59" width="67.23" height="67.23"/>
    <rect class="cls-2" x="43.87" y="106.95" width="309.13" height="322.25"/>
    <rect class="cls-12" x="22.94" y="106.95" width="309.13" height="322.25"/>
    <path class="cls-2" d="M332.15,429.29H22.94V106.83h309.21v322.46ZM22.94,429.29h308.92V107.04H23.07l-.13,322.25Z"/>
    <rect class="cls-13" x="64.52" y="150.24" width="226.02" height="235.59"/>
    <path class="cls-2" d="M64.52,387.42c-1.61,2.37-3.49,4.54-5.6,6.48-3.59,3.84-8.69,8.98-14.37,14.58s-10.91,10.57-14.75,14.12c-1.95,2.07-4.14,3.89-6.52,5.43,1.58-2.35,3.43-4.51,5.52-6.43,3.64-3.8,8.73-8.98,14.42-14.58,5.68-5.6,10.95-10.61,14.79-14.17,1.94-2.08,4.13-3.9,6.52-5.43Z"/>
    <path class="cls-2" d="M290.53,386.83c2.36,1.63,4.53,3.5,6.48,5.6,3.8,3.59,8.94,8.69,14.54,14.37s10.61,10.91,14.17,14.75c2.05,1.96,3.87,4.15,5.43,6.52-2.38-1.56-4.56-3.41-6.48-5.52-3.8-3.64-8.98-8.69-14.58-14.42-5.6-5.72-10.61-10.95-14.17-14.79-2.07-1.93-3.89-4.12-5.39-6.52Z"/>
    <path class="cls-2" d="M289.91,150.87c1.6-2.36,3.47-4.54,5.56-6.48,3.64-3.8,8.69-8.94,14.37-14.54s10.91-10.61,14.79-14.17c1.97-2.05,4.15-3.87,6.52-5.43-1.58,2.38-3.45,4.55-5.56,6.48-3.59,3.8-8.69,8.98-14.42,14.58s-10.91,10.78-14.79,14.17c-1.92,2.07-4.09,3.88-6.48,5.39Z"/>
    <path class="cls-2" d="M63.76,151.46c-2.38-1.58-4.55-3.45-6.48-5.56-3.8-3.64-8.98-8.69-14.58-14.37-5.6-5.68-10.57-10.91-14.12-14.75-2.07-1.96-3.9-4.16-5.43-6.56,2.33,1.62,4.49,3.48,6.43,5.56,3.8,3.59,8.98,8.69,14.62,14.42s10.61,10.91,14.12,14.79c2.06,1.94,3.88,4.11,5.43,6.48Z"/>
    <path class="cls-2" d="M289.91,385.87c-.04-.39-.04-.78,0-1.17v-63.81c-.5-41.45-.5-100.24-.88-170.44l.88.88H64.52l1-1v235.63l-.84-.88,163.17.46,45.96.21h15.29-14.92l-45.63.25-163.76.42h-1.04v-.84c0-67.99,0-148.84-.25-235.13v-1h227.27v1c0,70.62-.33,129.54-.46,171.03v63.56c-.13.29-.26.56-.42.84Z"/>
    <rect class="cls-7" x="139.81" y="230.35" width="75.42" height="75.42"/>
    <path class="cls-2" d="M118.09,1476.6c-20.03-12.53-42.65-20.32-66.15-22.77-10.82-1.09-22.61-.79-31.3,5.77-2.05,1.17-3.28,3.37-3.22,5.72.52,1.62,1.6,3,3.05,3.89,26.91,20.52,67.65,23.11,97.61,7.4"/>
    <path class="cls-2" d="M116.25,1474.72c-15.32-11.25-29.61-23.83-42.7-37.61-13.15-13.86-22.39-30.96-26.78-49.56-1.81-5.61-1.04-11.73,2.09-16.71,34.06,26.58,60.84,60.97,67.4,103.67"/>
    <path class="cls-2" d="M117.58,1476.35c-3.14-18.59-2.88-37.59.79-56.08,3.81-18.63,14.47-35.15,29.88-46.3,5.89,13.75,3.38,29.58-.79,43.96-6.41,22.27-16.41,43.35-29.63,62.39"/>
    <path class="cls-2" d="M150.97,1536.14c-20.27,2.47-37.9,13.16-53.03,26.87-15.21,13.83-25.8,32.01-30.34,52.06,19.85-1.21,36.73-15.21,48.97-30.96s20.89-32.93,34.14-47.64"/>
    <path class="cls-2" d="M158.24,1545.71c-16.21-41.14-10.54-87.69,15.08-123.73,11.57,41.08,7.31,87.46-15.08,123.73"/>
    <path class="cls-2" d="M202.33,1598.24c-37.85-2.32-73.43,18.17-90.42,52.06-1.13,2.26-2.13,5.1-.63,7.1,1.59,1.55,3.84,2.21,6.02,1.76,17.8-1.13,33.43-11.87,46.63-24.07,13.2-12.2,24.4-26.32,38.82-36.9"/>
    <path class="cls-2" d="M200.95,1595.4c-9.49-30.57-10.07-63.21-1.67-94.1,3.3-12.12,8.86-24.86,20.06-30.55.91-.6,2.03-.8,3.09-.54.89.49,1.58,1.29,1.92,2.26,3.78,8.47,5.4,17.74,4.72,26.99-.62,9.21-2.02,18.35-4.18,27.33-3.51,16.71-5.39,34.64-14.54,49.06-2.16,3.47-4.12,7.07-5.85,10.78-1.71,3.68-1.75,4.93-3.34,7.86"/>
    <path class="cls-2" d="M317.7,1612.95c-8.65-32.89.54-72.79,21.27-99.74,1.5-2.01,3.55-4.18,6.06-3.89,3.8.33,4.81,5.43,4.64,9.23-1.58,33.84-12.66,66.55-31.97,94.39"/>
    <path class="cls-2" d="M328.23,1619.97c39.99,10.4,85.83.29,119.09-24.19-19.93-10-42.71-12.81-64.48-7.94-21.52,4.93-41.2,14.58-54.61,32.13"/>
    <path class="cls-2" d="M337.08,1598.07c22.4-36.52,65.31-60.34,108.1-62.68-4.93,17.42-19.22,30.92-35.35,39.11-16.13,8.19-34.14,11.7-51.9,15.17-6.89,1.34-16.38,2.8-20.89,8.36"/>
    <path class="cls-2" d="M319.91,1491.77c6.06-20.89,12.16-41.79,13.83-63.31s-1.42-44.08-12.54-62.68c-20.89,40.45-23.02,87.75-1.84,128.07"/>
    <path class="cls-2" d="M390.32,1456.17c24.44-44.46,74.59-79.94,124.73-84.91-19.47,48.47-72.58,85.95-124.86,84.91"/>
    <path class="cls-2" d="M374.94,1464.9c36.48,5.56,67.57,28.83,101.62,42.96,7.17,3.37,15.09,4.81,22.98,4.18,9.92-.1,17.88-8.23,17.78-18.15-.05-5.28-2.43-10.27-6.5-13.65-4.84-4.46-10.52-7.89-16.71-10.11-37.11-15.46-76.93-15.88-116.04-6.48"/>
    <path class="cls-2" d="M353.84,1490.47c8.36,2.34,11.07,6.64,17.63,12.2,22.3,18.95,48.67,32.5,77.05,39.61,2.97.71,6.81,1,8.36-1.67,1.55-2.67-.33-5.14-2.01-7.19-12.37-14.53-28.44-25.45-46.51-31.59-17.8-6.64-33.43-14.62-54.32-12.91"/>
    <path class="cls-2" d="M330.02,1335.95c30.24,27.89,70.85,41.71,111.82,38.07,1.86,0,3.66-.65,5.1-1.84,2.8-3.05-.54-7.77-3.84-10.36-32.89-25.61-72.71-36.23-113.07-25.87"/>
    <path class="cls-2" d="M358.27,1325.63c40.14-29.56,92.01-38.12,139.52-23.02-17.55,17.3-41.79,26.62-66.48,29.25-24.52,2.25-49.24.17-73.04-6.14"/>
    <path class="cls-2" d="M347.03,1254.64c-3.22-32.84-1.13-58.75-3.38-91.72,0-2.63-.75-5.81-3.22-6.73-3.43-1.34-6.31,2.88-7.44,6.39-9.69,30.96-4.52,64.66,14,91.3"/>
    <path class="cls-2" d="M344.69,1258.23c22.23-13.75,38.9-31.72,54.32-52.82,10.74-14.71,19.76-32.3,17.34-50.14-15.3.42-29.65,7.54-39.24,19.47-9.36,11.88-16.16,25.57-19.97,40.2-4.18,14.46-7.4,29.25-12.54,43.46"/>
    <path class="cls-2" d="M398.05,1243.4c48.91-18.11,94.19-44.82,133.71-78.85-15.96-6.44-34.26-2.59-50.14,3.84-36.52,14.75-66.36,39.61-84.24,74.67"/>
    <path class="cls-2" d="M359.69,1276.2c24.7,2.72,49.77,4.47,74.29.38,24.53-4.1,46.84-13.58,69.32-23.07,1.97-.53,3.66-1.8,4.72-3.55.73-2.13.06-4.49-1.67-5.93-1.74-1.38-3.77-2.33-5.93-2.8-24.44-6.81-50.85-3.64-74.92,4.51-22.94,7.84-45,18.04-65.81,30.46"/>
    <path class="cls-2" d="M218.66,1337.16c-16.71-34.01-15.75-73.71-1.17-108.64,10.24,15.63,11.49,35.52,9.61,54.07s-7.52,37.61-7.9,56.37"/>
    <path class="cls-2" d="M151.51,1303.15c-42.69-.61-83.66,16.83-112.82,48.01,20.89,3.3,42.62-2.13,61.72-11.45,19.1-9.32,36.06-22.4,52.9-35.39"/>
    <path class="cls-2" d="M106.14,1287.98c-20.6-1.67-40.41-4.18-60.17,1.88-19.76,6.06-37.61,19.81-45.96,38.86,19.42,1.58,38.91-2.1,56.41-10.66,17.41-8.52,34.03-18.59,49.64-30.09"/>
    <path class="cls-2" d="M173.12,1288.69c-18.51-12.12-37.61-24.49-59.08-29.5-21.48-5.01-46.55-1.42-61.55,14.92,17.42,10.24,38.61,11.45,58.83,11.45s45.04-.25,64.1,6.52"/>
    <path class="cls-2" d="M173.24,1289.65c-31.67-31.05-43.67-86.91-30.92-129.54,25.02,38.29,35.95,84.08,30.92,129.54"/>
    <path class="cls-2" d="M260.16,1201.61c5.98-13.87,10.2-28.46,15.54-42.58,4.86-14.31,12.34-27.58,22.06-39.15,9.91-11.63,23.98-18.92,39.19-20.31-9.85,43.29-37.47,80.44-76.09,102.33"/>
    <path class="cls-2" d="M244.53,1220.16c-9.9-13.58-21.31-32.05-34.72-42.2s-30.84-16.3-47.18-12.54c17.14,30.14,47.5,50.43,81.9,54.74"/>
    <path class="cls-2" d="M247.62,1202.74c-7.09-16.21-12.33-33.17-15.63-50.56-2.59-17.47-1-36.14,7.94-51.4,17.38,32.84,22.94,68.07,8.36,102.33"/>
    <path class="cls-2" d="M260.41,1100.78c9.86-32.59,39.65-56.54,71.83-67.53,3.97-1.63,8.26-2.29,12.54-1.92,4.37.49,8.03,3.55,9.28,7.77,1.17,5.52-3.38,10.49-7.69,14.17-25.17,21.49-54.44,37.65-86.04,47.51"/>
    <path class="cls-2" d="M260.78,1074.12c1.25-20.89,2.55-42.29,9.36-62.18,6.81-19.89,20.02-38.53,39.15-47.22,3.26,21.19-6.1,42.29-17.38,60.51-11.28,18.22-24.86,35.48-31.67,55.83"/>
    <path class="cls-2" d="M260.16,1088.58c-8.11-23.73-8.94-53.86-23.15-74.55-9.94-14.42-25.87-24.28-34.39-39.57-5.19,14.74-4.45,30.92,2.05,45.13,6.48,13.97,15.36,26.7,26.24,37.61,10.53,11.24,19.56,19.68,29.25,31.55"/>
    <path class="cls-2" d="M260.41,1787.32c-.63,0-1.17-158.28-1.21-353.46-.04-195.18.42-353.55,1.04-353.55s1.21,158.24,1.25,353.55-.46,353.46-1.09,353.46Z"/>
    <path class="cls-2" d="M398.72,1313.18c-1.89.96-3.88,1.71-5.93,2.26l-16.38,5.52c-13.79,4.72-32.76,11.53-53.36,19.97-20.6,8.44-39.61,15.84-50.35,25.49-4.38,3.64-7.86,8.25-10.15,13.45-1.59,3.72-1.88,5.98-2.09,5.93-.07-.55-.07-1.12,0-1.67.24-1.57.63-3.11,1.17-4.6,2.07-5.52,5.47-10.45,9.9-14.33,6.61-5.58,14-10.17,21.94-13.62,8.77-4.18,18.51-8.36,28.83-12.54,20.64-8.36,39.78-15.04,53.74-19.39,6.98-2.17,12.54-3.76,16.71-4.81,1.94-.71,3.94-1.27,5.98-1.67Z"/>
    <path class="cls-2" d="M444.01,1201.82s-.5.67-1.63,1.8l-5.1,4.76-18.97,17.22-63.1,56.2c-24.65,21.94-45.96,42.87-60.67,58.5-7.4,7.86-13.2,14.42-17.17,18.97-1.88,2.09-3.38,3.84-4.6,5.22s-1.63,1.8-1.71,1.71c.39-.71.84-1.38,1.34-2.01.96-1.25,2.38-3.18,4.18-5.52,3.8-4.76,9.44-11.45,16.71-19.47,19.06-20.81,39.2-40.6,60.34-59.29,24.74-21.85,47.22-41.53,63.6-55.7l19.43-16.71,5.35-4.43c.63-.48,1.3-.9,2.01-1.25Z"/>
    <path class="cls-2" d="M328.68,1304.11c-.67-.29,4.47-12.2,9.61-27.2,5.14-15,7.6-27.7,8.36-27.62-.55,9.7-2.61,19.26-6.1,28.33-2.21,6.49-4.77,12.85-7.69,19.05-1.04,2.66-2.45,5.16-4.18,7.44Z"/>
    <path class="cls-2" d="M260.57,1399.84c-1.44-1.31-2.71-2.78-3.8-4.39l-9.74-12.54c-8.36-10.53-19.47-25.07-32.13-41.08-12.66-16-24.28-30.25-32.72-40.62l-9.78-12.2c-1.29-1.45-2.43-3.02-3.43-4.68,1.55,1.22,2.96,2.63,4.18,4.18,2.51,2.76,6.1,6.81,10.49,11.83,8.73,10.11,20.6,24.28,33.43,40.24,12.83,15.96,23.78,30.71,31.63,41.53,3.93,5.43,7.06,9.82,9.15,12.91,1.04,1.52,1.95,3.13,2.72,4.81Z"/>
    <path class="cls-2" d="M230.24,1360.98c-6.05-6.8-10.36-14.98-12.54-23.82-2.38-7.76-3.36-15.88-2.88-23.98h1c-.46,1.84-.79,2.8-.96,2.8s-.21-1.04,0-2.93h1c.56,7.91,1.96,15.74,4.18,23.36,3.76,14.25,10.86,24.15,10.2,24.57Z"/>
    <path class="cls-2" d="M191.09,1311.71c-2.71-2.1-5.69-3.82-8.86-5.14-7.99-2.38-16.39-3.05-24.65-1.96-8.36.72-16.65,2.12-24.78,4.18-3.34,1.09-6.77,1.91-10.24,2.47,3.04-1.86,6.33-3.27,9.78-4.18,8.15-2.51,16.56-4.09,25.07-4.72,8.57-1.14,17.28-.19,25.41,2.76,3.44,1.18,6.36,3.51,8.27,6.6Z"/>
    <path class="cls-2" d="M181.81,1299.76c0,.38-5.18-2.05-13.58-4.93-22.01-7.53-45.58-9.33-68.49-5.22-8.77,1.55-14.08,3.22-14.21,2.84,1.11-.7,2.32-1.23,3.59-1.55,3.37-1.17,6.8-2.13,10.28-2.88,23.14-5.08,47.26-3.25,69.36,5.27,3.32,1.26,6.56,2.74,9.69,4.43,1.2.53,2.33,1.22,3.34,2.05Z"/>
    <path class="cls-2" d="M260.16,1249.41c-4-11.26-7.31-22.76-9.9-34.43-3.31-11.48-5.88-23.16-7.69-34.97,4.05,11.25,7.35,22.75,9.9,34.43,3.32,11.48,5.89,23.16,7.69,34.97Z"/>
    <path class="cls-2" d="M260.91,1249.41c-.71.25-3.55-10.07-10.99-20.6-4.65-6.25-10.08-11.86-16.17-16.71,2.31.54,4.45,1.65,6.23,3.22,4.61,3.31,8.61,7.4,11.83,12.08,4.94,6.4,8.08,14,9.11,22.02Z"/>
    <path class="cls-2" d="M260.41,1702.95c-.25,0-.71-3.8-2.47-10.53-2.64-9.46-6.2-18.64-10.61-27.41-10.91-22.36-30.8-50.69-56.12-79.06-12.54-14.33-24.65-27.83-34.97-40.74-9.28-11.37-17.66-23.44-25.07-36.1-4.92-8.56-9.12-17.52-12.54-26.78-1.13-3.3-2.01-5.89-2.47-7.69-.3-.89-.52-1.79-.67-2.72,0,0,1.38,3.64,4.18,10.07,3.64,9.14,7.96,17.99,12.91,26.49,7.5,12.45,15.88,24.34,25.07,35.6,10.36,12.79,22.52,26.24,35.1,40.57,25.61,28.29,45.38,56.95,56.03,79.64,4.34,8.95,7.69,18.36,9.99,28.04.62,2.62,1.1,5.27,1.42,7.94.17.88.24,1.78.21,2.67Z"/>
    <path class="cls-2" d="M385.51,1561.76c-2.09,1.37-4.27,2.6-6.52,3.68-5.93,3.34-11.61,7.1-17.01,11.24-7.95,6.2-15.41,13-22.31,20.35-7.81,8.36-15.88,17.88-24.15,28.16-16.42,20.68-31.84,38.94-41.08,53.53-4.68,7.23-8.06,13.33-10.28,17.63-1.06,2.28-2.27,4.49-3.64,6.6.14-.65.35-1.28.63-1.88.46-1.17,1.13-2.93,2.17-5.14,2.89-6.21,6.16-12.24,9.78-18.05,8.94-14.96,24.19-33.43,40.66-54.32,8.36-10.32,16.42-19.93,24.4-28.21,7.05-7.35,14.69-14.1,22.86-20.18,5.52-4.09,11.39-7.68,17.55-10.74,2.17-1.09,3.93-1.76,5.1-2.26.59-.22,1.21-.36,1.84-.42Z"/>
    <path class="cls-2" d="M387.85,1607.56c-4.55,1.02-9.18,1.69-13.83,2.01-11.12,1.17-22.11,3.33-32.84,6.48-10.54,3.48-20.43,8.69-29.25,15.42-6.77,5.27-9.94,9.57-10.28,9.32s.54-1.25,2.05-3.18c2.18-2.68,4.6-5.15,7.23-7.4,8.77-7.3,18.85-12.84,29.71-16.34,10.88-3.22,22.1-5.2,33.43-5.89,4.57-.55,9.19-.69,13.79-.42Z"/>
    <path class="cls-2" d="M305.54,1635.76c-.75-.42,5.52-9.94,10.36-22.77,4.85-12.83,5.6-24.28,6.39-24.15.35,2.47.28,4.99-.21,7.44-.72,5.98-2.12,11.85-4.18,17.51-2.1,5.62-4.79,11-8.02,16.05-1.12,2.2-2.58,4.2-4.35,5.93Z"/>
    <path class="cls-2" d="M425.88,1438.83c-.7.47-1.44.86-2.21,1.17l-6.52,2.97c-2.84,1.21-6.31,2.76-10.2,4.81-3.89,2.05-8.36,4.18-13.2,6.98l-7.56,4.18c-2.63,1.5-5.22,3.3-7.98,5.01-5.56,3.38-11.16,7.56-17.09,11.78-12.65,9.58-24.58,20.09-35.68,31.42-10.96,11.48-21.04,23.75-30.17,36.73-4.18,6.1-8.02,11.83-11.2,17.51-1.63,2.8-3.34,5.47-4.76,8.15l-4.18,7.69c-2.72,4.85-4.64,9.49-6.52,13.45s-3.34,7.48-4.47,10.36l-2.72,6.6c-.3.78-.66,1.54-1.09,2.26.09-.83.3-1.65.63-2.42.63-1.76,1.42-4.18,2.34-6.77s2.34-6.52,4.18-10.53c1.84-4.01,3.64-8.77,6.23-13.66l3.93-7.81c1.38-2.72,3.05-5.43,4.68-8.36,3.13-5.77,7.06-11.53,11.07-17.72,18.06-26.48,40.5-49.7,66.36-68.65,6.02-4.18,11.7-8.36,17.34-11.7,2.8-1.71,5.43-3.47,8.06-4.93l7.69-4.18c4.85-2.8,9.49-4.81,13.45-6.69,3.39-1.68,6.86-3.19,10.4-4.51l6.69-2.55c.8-.31,1.65-.51,2.51-.59Z"/>
    <path class="cls-2" d="M327.01,1505.1c.9-3.21,2.8-6.05,5.43-8.11,6.09-5.29,13.87-8.25,21.94-8.36,7.9-.04,15.72,1.5,23.02,4.51,3.1.95,6.05,2.36,8.73,4.18-3.16-.61-6.25-1.52-9.23-2.72-7.24-2.46-14.83-3.73-22.48-3.76-7.56.2-14.87,2.77-20.89,7.35-2.33,2.14-4.51,4.45-6.52,6.89Z"/>
    <path class="cls-2" d="M312.18,1520.35c2.95-6.46,5.04-13.27,6.23-20.27.44-7.06-.02-14.16-1.38-21.1.25,0,1.46,2.01,2.55,5.89,2.69,10.2,1.42,21.03-3.55,30.34-1.92,3.47-3.64,5.31-3.84,5.14Z"/>
    <path class="cls-2" d="M151.1,1725.77c3.43,60.51,21.64,122.01,49.68,184.23h122.06c26.74-61.59,43.71-123.02,46.72-184.23h-218.45Z"/>
    <path class="cls-12" d="M349.66,1823.5c0,.63-40.16,1.13-89.67,1.13s-89.63-.5-89.63-1.13,40.11-1.13,89.63-1.13,89.67.5,89.67,1.13Z"/>
    <path class="cls-12" d="M346.95,1845.4c0,.63-37.61,1.17-84.07,1.17s-84.03-.54-84.03-1.17,37.61-1.13,84.03-1.13,84.07.5,84.07,1.13Z"/>
    <path class="cls-12" d="M202.74,1765.34c1.5,18.69,1.5,37.47,0,56.16-1.5-18.69-1.5-37.47,0-56.16Z"/>
    <path class="cls-12" d="M268.05,1765.34c1.56,19.36,1.56,38.81,0,58.17-1.5-19.36-1.5-38.81,0-58.17Z"/>
    <path class="cls-12" d="M329.4,1764.84c1.5,19.75,1.5,39.59,0,59.34-1.5-19.75-1.5-39.59,0-59.34Z"/>
    <path class="cls-12" d="M365.54,1765.34c0,.63-47.09,1.13-105.13,1.13s-105.17-.5-105.17-1.13,47.09-1.13,105.17-1.13,105.13.5,105.13,1.13Z"/>
    <path class="cls-2" d="M267.34,675.36c-.07,10.98-9.03,19.83-20.02,19.76-10.98-.07-19.83-9.03-19.76-20.02.07-10.98,9.03-19.83,20.02-19.76.01,0,.03,0,.04,0,10.97.09,19.79,9.05,19.72,20.02Z"/>
    <path class="cls-2" d="M207.67,649.75c20.77-22.31,55.7-23.57,78.01-2.8.61.57,1.21,1.15,1.8,1.75,10.15,10.24,26.07-5.52,15.88-15.75-30.21-30.53-79.45-30.78-109.97-.58-.5.49-.99.99-1.47,1.49-9.9,10.4,5.81,26.37,15.75,15.88Z"/>
    <path class="cls-2" d="M166.77,608.46c40.39-45.02,109.64-48.77,154.66-8.38,2.17,1.94,4.25,3.97,6.26,6.08,10.03,10.36,25.95-5.43,15.88-15.75-50.27-52.61-133.66-54.51-186.27-4.24-2.16,2.07-4.26,4.21-6.27,6.42-9.78,10.53,5.93,26.49,15.75,15.88Z"/>
    <rect class="cls-5" x="844.86" y="1390.98" width="687.37" height="317.03"/>
    <path class="cls-2" d="M1515.85,1693.05h-655.28v-285.4h655.28v285.4ZM864.88,1688.87h646.71v-276.91h-646.71v276.91Z"/>
    <rect class="cls-2" x="1532.23" y="1390.98" width="167.94" height="317.03"/>
    <path class="cls-2" d="M862.7,1495.95h651.02c.47-.11.77-.57.67-1.05-.07-.33-.33-.59-.67-.67h-651.02c-.47.11-.77.57-.67,1.05.07.33.33.59.67.67Z"/>
    <path class="cls-2" d="M1190.34,1495.11c1.82-28.68,1.89-57.44.21-86.12-.11-.47-.57-.77-1.05-.67-.33.07-.59.33-.67.67-1.69,28.68-1.62,57.44.21,86.12.09.36.46.57.81.48.24-.06.42-.25.48-.48h0Z"/>
    <path class="cls-2" d="M1365.59,1452.07c.02,4.92-3.94,8.92-8.86,8.94-4.92.02-8.92-3.94-8.94-8.86-.02-4.92,3.94-8.92,8.86-8.94.01,0,.03,0,.04,0,4.89-.02,8.88,3.92,8.9,8.82,0,.01,0,.03,0,.04Z"/>
    <path class="cls-2" d="M1023.91,1452.07c0,4.89-3.97,8.86-8.86,8.86s-8.86-3.97-8.86-8.86,3.97-8.86,8.86-8.86h0c4.89,0,8.86,3.97,8.86,8.86Z"/>
    <path class="cls-2" d="M1197.11,1550.27c.02,4.92-3.94,8.92-8.86,8.94-4.92.02-8.92-3.94-8.94-8.86-.02-4.92,3.94-8.92,8.86-8.94.01,0,.03,0,.04,0,4.89-.02,8.88,3.92,8.9,8.82,0,.01,0,.03,0,.04Z"/>
    <polygon class="cls-2" points="927.01 1708.01 891.66 1907.03 911.55 1907.03 976.78 1708.01 927.01 1708.01"/>
    <polygon class="cls-2" points="1483.6 1708.01 1513.18 1907.37 1493.29 1907.37 1433.83 1708.01 1483.6 1708.01"/>
    <polygon class="cls-2" points="1616.47 1708.01 1650.03 1907.37 1630.1 1907.37 1566.71 1708.01 1616.47 1708.01"/>
    <path class="cls-2" d="M1196.49,1640.07c0,4.89-3.97,8.86-8.86,8.86s-8.86-3.97-8.86-8.86,3.97-8.86,8.86-8.86h0c4.89,0,8.86,3.97,8.86,8.86Z"/>
    <path class="cls-2" d="M862.7,1594.14h651.02c.47-.11.77-.57.67-1.05-.07-.33-.33-.59-.67-.67h-651.02c-.47.11-.77.57-.67,1.05.07.33.33.59.67.67Z"/>
    <rect class="cls-2" x="1116.78" y="1241.59" width="207.84" height="42.33" transform="translate(-6.6 6.41) rotate(-.3)"/>
    <rect class="cls-5" x="1117.85" y="1324.91" width="231.66" height="65.73" transform="translate(-7.09 6.48) rotate(-.3)"/>
    <path class="cls-2" d="M1305.13,1389.64c-1.13-10.92-1.51-21.91-1.13-32.89-.38-10.96,0-21.93,1.13-32.84,1.1,10.91,1.48,21.88,1.13,32.84.35,10.97-.02,21.96-1.13,32.89Z"/>
    <path class="cls-2" d="M1314.82,1389.64c-1.08-10.93-1.44-21.91-1.09-32.89-.35-10.96.01-21.93,1.09-32.84,1.13,10.91,1.5,21.88,1.13,32.84.38,10.97,0,21.96-1.13,32.89Z"/>
    <path class="cls-2" d="M1152.95,1389.64c-1.13-10.92-1.51-21.91-1.13-32.89-.38-10.96,0-21.93,1.13-32.84,1.13,10.91,1.5,21.88,1.13,32.84.38,10.97,0,21.96-1.13,32.89Z"/>
    <path class="cls-2" d="M1162.72,1389.64c-1.13-10.92-1.51-21.91-1.13-32.89-.38-10.96,0-21.93,1.13-32.84,1.13,10.91,1.5,21.88,1.13,32.84.38,10.97,0,21.96-1.13,32.89Z"/>
    <path class="cls-2" d="M1183.91,1358.06c0-.63,23.36-1.17,52.19-1.17s52.19.54,52.19,1.17-23.36,1.13-52.19,1.13-52.19-.71-52.19-1.13Z"/>
    <rect class="cls-7" x="1150.71" y="1282.38" width="285.85" height="42.33" transform="translate(-6.81 6.79) rotate(-.3)"/>
    <path class="cls-2" d="M1395.8,1318.73c-7.57.12-13.8-5.93-13.91-13.5-.12-7.57,5.93-13.8,13.5-13.91,7.57-.12,13.8,5.93,13.91,13.5,0,.08,0,.17,0,.25.05,7.5-6,13.62-13.5,13.66h0Z"/>
    <rect class="cls-2" x="1167.32" y="1300.81" width="191.34" height="8.44"/>
  </g>
  <g id="freepik--Plant--inject-356">
    <path class="cls-4" d="M1376.42,1195.09c-37.15,19.22-65.6,52.32-86.04,88.75-20.43,36.44-33.68,76.43-46.72,116.16l-11.45,204.75c43.16-73.46,77.85-159.83,87.21-244.53l-28.75-2.59c19.26-2.93,35.48-16.71,45.76-33.43,10.28-16.71,15.59-35.64,20.89-54.32l-35.06,5.22c27.66-18.73,47.05-47.38,54.15-80.02Z"/>
    <g class="cls-14">
      <path class="cls-1" d="M1376.42,1195.09c-37.15,19.22-65.6,52.32-86.04,88.75-20.43,36.44-33.68,76.43-46.72,116.16l-11.45,204.75c43.16-73.46,77.85-159.83,87.21-244.53l-28.75-2.59c19.26-2.93,35.48-16.71,45.76-33.43,10.28-16.71,15.59-35.64,20.89-54.32l-35.06,5.22c27.66-18.73,47.05-47.38,54.15-80.02Z"/>
    </g>
    <path class="cls-4" d="M1225.82,1652.73s-93.72-112.19-92.64-219.46h37.9s-41.16-27.04-37.9-42.2c3.26-15.17,4.18-72.46,4.18-72.46l34.64,8.65s-25.99-13-29.25-33.43c-3.26-20.43,7.56-115.75,7.56-115.75,0,0,42.2,44.33,55.16,89.8,12.95,45.46,47.05,98.45,37.06,236.92-9.99,138.48-16.71,147.92-16.71,147.92Z"/>
    <path class="cls-4" d="M1273.33,1663.34s101.58-67.65,124.14-154.02l-30.46-8.36s38.99-12.74,39.7-25.61c.71-12.87,12.54-59.25,12.54-59.25l-29.75-.63s23.73-4.72,30.84-20.56c7.1-15.84,19.22-94.73,19.22-94.73,0,0-43.62,26.45-63.97,60.13-20.35,33.68-59.54,68.78-81.82,182.48s-20.43,120.55-20.43,120.55Z"/>
    <path class="cls-11" d="M1176.1,1275.95c.15.38.26.77.33,1.17.21.88.5,2.01.84,3.43.75,3.22,1.76,7.65,3.01,13.33,1.25,5.68,2.84,12.83,4.51,21.1,1.67,8.27,3.64,17.63,5.52,28.04,4.18,20.89,8.36,45.67,12.54,73.33,4.18,27.66,8.36,58.21,12.24,90.34,3.89,32.13,6.52,62.68,8.69,90.72,2.17,28.04,3.59,53.15,4.43,74.29.5,10.57.75,20.18,1,28.58s.38,15.67.42,21.56c.04,5.89,0,10.36,0,13.66v3.55c.06.4.06.81,0,1.21-.05-.4-.05-.81,0-1.21,0-.92,0-2.09-.21-3.55,0-3.26-.29-7.81-.5-13.62s-.42-13.16-.79-21.56c-.38-8.4-.71-17.97-1.34-28.54-1-21.14-2.72-46.3-4.89-74.21-2.17-27.91-5.18-58.5-8.86-90.63-3.68-32.13-7.94-62.68-12.03-90.26-4.1-27.58-8.36-52.57-12.2-73.38-1.8-10.45-3.64-19.85-5.22-28.08-1.59-8.23-2.93-15.38-4.18-21.19-1.25-5.81-1.96-10.2-2.59-13.41l-.63-3.47c-.08-.4-.11-.81-.08-1.21Z"/>
    <path class="cls-4" d="M1212.87,1721.59s-85.79-97.32-112.4-156.15l20.1-8.36c-14.58,2.38-29.5-3.89-40.82-13.37-10.84-10.08-20.19-21.66-27.75-34.39l26.49-4.47c-24.38-7.05-45.09-23.23-57.83-45.17,31.26,5.14,59.54,22.27,82.86,43.75,18.48,17.79,35.27,37.27,50.14,58.17,7.5,10.04,14.02,20.77,19.47,32.05,14.37,29.79,39.74,92.05,39.74,127.95Z"/>
    <path class="cls-11" d="M1398.81,1356.93c-.07.35-.2.69-.38,1-.33.75-.79,1.67-1.3,2.84-1.25,2.63-3.01,6.23-5.18,10.82-4.6,9.36-11.07,22.94-18.97,39.82-15.75,33.72-36.48,80.81-57,133.71-20.52,52.9-36.81,101.83-47.84,137.39-5.52,17.76-9.86,32.17-12.79,42.2-1.46,4.85-2.59,8.69-3.43,11.49-.38,1.21-.71,2.17-.96,2.97-.08.35-.2.69-.38,1-.07-.35-.07-.7,0-1.04l.75-3.05c.71-2.84,1.76-6.69,3.05-11.62,2.63-10.07,6.77-24.57,12.12-42.41,10.66-35.68,26.78-84.66,47.26-137.89,20.47-53.23,41.53-100.29,57.66-133.71,8.06-16.71,14.75-30.29,19.56-39.53,2.38-4.51,4.18-8.06,5.56-10.66.61-1.09,1.11-2.01,1.5-2.76.22-.23.48-.42.75-.58Z"/>
    <path class="cls-11" d="M1220.1,1763.37c-.65-2.28-1.09-4.62-1.34-6.98-.67-4.47-1.8-10.95-3.38-18.89-4.17-20.71-10-41.06-17.42-60.84-7.52-19.74-16.59-38.85-27.12-57.16-4.18-7.02-7.52-12.54-9.94-16.42-1.38-1.92-2.58-3.96-3.59-6.1,1.54,1.76,2.93,3.63,4.18,5.6,2.72,3.68,6.31,9.19,10.57,16.13,22.17,36.32,37.43,76.43,45,118.29,1.38,8.02,2.3,14.54,2.72,19.1.32,2.41.43,4.84.33,7.27Z"/>
    <rect class="cls-6" x="1145.55" y="1740.27" width="187.74" height="38.32"/>
    <polygon class="cls-6" points="1163.43 1778.54 1183.74 1907.37 1297.19 1907.37 1316.12 1778.54 1163.43 1778.54"/>
    <path class="cls-11" d="M1321.76,1778.54c0,.63-35.52,1.09-79.39,1.09s-79.39-.46-79.39-1.09,35.48-1.09,79.39-1.09,79.39.5,79.39,1.09Z"/>
  </g>
  <g id="freepik--Earth--inject-356">
    <ellipse class="cls-6" cx="1103.76" cy="662.16" rx="421.07" ry="423.91"/>
    <g class="cls-14">
      <path class="cls-1" d="M947.82,851.11c2.21-18.43,16.71-37.15,8.36-53.82-9.28-18.59-36.27-15.59-55.24-23.9-26.49-11.66-34.72-44.59-52.02-67.82-15.54-20.89-51.77-43.67-79.39-37.4-19.97,4.55-26.83,16.46-28.92,31.13l-2.51-.42c-7.4-.79-16.09-1.17-20.14-7.31-4.72-7.15,0-17.72-4.93-24.74-3.04-3.2-6.6-5.85-10.53-7.86-3.59-2.51-6.64-7.31-4.47-11.2s6.48-3.93,8.82-6.89c1.9-2.46,1.9-5.89,0-8.36-7.6-8.98-16.05,9.36-20.27,13.66-1.07,1.13-2.2,2.2-3.38,3.22h0c-.04.78-.04,1.56,0,2.34v27.54c4.54,1.68,8.89,3.82,13,6.39,8.36,4.72,17.3,10.99,17.84,20.43-.14,1.54.16,3.1.88,4.47,1.03,1.11,2.42,1.82,3.93,2.01,7.02,1.66,14.19,2.65,21.39,2.97,0,8.36.71,17.34.58,25.74-.21,12.2-4.18,24.24-2.88,36.31,1.96,17.05,13.83,31.05,24.15,44.75,39.28,52.48,60.46,112.82,83.57,174.41h0c4.18,3.38,10.36,7.9,14.75,11.03,3.47,2.51,6.64,4.68,10.2,7.06s6.73,4.43,10.36,6.69c2.51,1.63,3.05,2.05,5.68,3.59-.33-.75.29.5,0,0-9.28-20.31-9.28-48.47,10.61-58.5,4.02-1.44,7.82-3.44,11.28-5.93,8.86-8.36,1.59-25.7,10.45-34.1,5.01-4.68,12.79-4.18,18.97-7.15,11.16-5.14,14.75-19.39,13.87-31.63-.88-12.24-5.39-24.53-4.01-36.73Z"/>
    </g>
    <g class="cls-14">
      <path class="cls-1" d="M708.85,540.81c7.86-6.73,21.44-7.52,27.49.88,4.18,5.98,3.34,14.21,2.21,21.52-1.55,9.86-3.05,19.72-4.68,29.58-.72,2.93-.58,6.01.42,8.86,2.92,6.27,13.2,5.06,17.13-.54s3.51-13.25,2.47-20.06c-1.04-6.81-2.47-14.04,0-20.43,6.69-15.88,30.34-13.45,44.04-23.78,8.36-6.39,12.33-17.13,17.38-26.53s13.54-18.8,24.19-18.3c3.59,0,7.15,1.46,10.74,1.34,10.53-.33,16.71-15.75,9.19-23.19-1.75-1.41-3.32-3.02-4.68-4.81-1.52-3.83-.12-8.21,3.34-10.45,3.39-2.09,7.23-3.32,11.2-3.59,8.98-1.5,17.97-2.88,26.95-4.18,9.94-1.55,22.65-6.69,21.27-16.71-1.21-8.61-12.87-12.54-14.58-20.89-.15-2.12-.53-4.23-1.13-6.27-2.76-5.43-10.95-3.26-16.21-.33-2.41-6.78-9.87-10.33-16.65-7.92-1.11.39-2.15.93-3.11,1.61-5.35,4.18-6.02,12.12-7.86,18.72-4.43,16-17.13,28.12-29.25,39.36-3.68,4.22-8.69,7.05-14.21,8.02-5.52.25-11.32-5.68-8.77-10.53,1.71-3.34,6.52-5.26,6.06-9.03-.67-4.64-8.82-4.18-10.4-8.77,3.22-13.2,18.34-18.64,29.92-25.7,14.2-8.66,25-21.94,30.59-37.61,1.22-2.4,1.36-5.22.38-7.73-1.71-3.3-6.18-3.84-9.99-3.84-8.94,0-20.06,1.09-23.32,9.4-1.71,4.47-.46,9.53-1.55,14.17-3.09,13.87-22.1,15.42-33.68,23.65-4.08,3.73-8.46,7.12-13.08,10.15-5.68,2.03-11.69,2.99-17.72,2.84h-4.85c-3.68,5.1-6.56,9.74-9.94,15s-6.81,11.2-9.99,16.71c-14.81,25.87-26.8,53.26-35.77,81.69-3.26,9.99-6.1,20.89-8.61,30.96s-4.18,20.06-5.98,30.59c3.54-8.51,6.09-17.4,7.6-26.49,2.34-10.11,5.6-20.77,13.41-27.37Z"/>
    </g>
    <g class="cls-14">
      <path class="cls-1" d="M1062.69,350.36c3.97-5.22,2.8-12.54,5.39-18.76,4.18-10.03,17.59-13.62,22.23-23.48,1.76-3.8,2.21-8.36,5.31-11.28,3.09-2.92,6.44-2.8,9.19-4.93,6.23-4.76,3.64-15.59-2.97-19.76-16.51-10.57-46.88,1.63-61.13,11.95-18.34,13.29-36.31,29.25-60.71,27.7-6.73-.46-13.71-2.3-20.02,0-6.31,2.3-10.2,11.87-4.76,15.84,3.01,2.21,7.31,1.63,10.7,3.18,6.31,2.92,6.94,12.03,3.84,18.26s-8.61,10.86-12.24,16.71c-3.51,5.79-5.1,12.55-4.51,19.3.11,4.79,2.18,9.32,5.72,12.54,7.56,6.06,19.14.88,25.57-6.39,6.44-7.27,10.86-16.71,19.18-21.69,4.3-2.28,8.92-3.88,13.71-4.76l31.8-7.56c5.21-.67,10.04-3.08,13.71-6.85Z"/>
    </g>
    <g class="cls-14">
      <path class="cls-1" d="M1524.8,658.94c0-6.06-.25-12.08-.54-18.05-.29-5.98-.59-12.03-1.17-17.97-.46-4.81-.88-9.61-1.55-14.33s-1.34-10.74-2.13-15.67c-2.3-14.29-5.39-28.43-9.28-42.37-1.59-5.47-4.18-11.32-6.02-16.71-1.84-5.39-3.64-10.74-5.64-16.09h0c-2.13-4.18-4.39-7.9-6.85-11.78-23.4-37.02-57.37-66.06-83.11-101.5-8.36-11.53-14.92-20.89-29.75-23.32-21.98-3.43-33.14,9.11-48.72-11.74-4.18-5.6-11.49-10.78-17.72-7.48l5.01,13.33c.41.93.58,1.95.5,2.97-.33,3.13-4.97,3.97-7.65,2.26-2.39-2.13-4.37-4.68-5.85-7.52-7.29-9.39-20.8-11.1-30.19-3.81-.5.39-.98.79-1.44,1.22-.4-4.31-3.08-8.08-7.02-9.86-1.26,7.89-8.67,13.26-16.55,12-.53-.08-1.06-.2-1.58-.34-1.25-4.18,6.02-4.81,8.57-8.36,2.55-3.55-.5-7.81-3.47-10.53-8.07-7-18.32-10.98-29-11.24-6.73,0-14,1.13-19.85-2.34-3.38-2.01-5.81-5.35-9.28-7.27-7.4-4.18-16.71-.33-24.11,3.8-10.2,5.64-20.89,12.79-24.32,23.9-3.43,11.11,4.43,26.07,16,24.65,2.86-.91,5.87-1.25,8.86-1,4,1.78,6.5,5.82,6.31,10.2-.26,4.27.41,8.55,1.96,12.54,2.01,3.76,8.06,5.6,10.36,2.09,5.47-5.22,4.81-13.96,3.43-21.35-1.38-7.4-2.88-15.71,1.5-21.77s17.13-4.18,16.25,3.34c-.5,4.18-5.52,7.6-5.31,12.03s5.72,6.94,10.24,6.73,9.15-1.8,13.54-.63,7.98,6.85,4.81,10.11c-5.56,6.27-19.93-4.47-22.77,3.34-.84,1.96,0,4.18,0,6.39-.54,6.52-8.73,8.9-15.25,9.69-6.47,1.34-13.18.86-19.39-1.38-5.93-2.8-9.99-10.61-6.6-16.17-3.63-1.86-8.09-.43-9.96,3.2-.09.17-.17.34-.24.51-1.4,3.88-1.66,8.09-.75,12.12-6.89-1.55-13.12,4.18-17.05,10.11-3.93,5.93-7.77,12.54-14.5,14.75-6.73,2.21-16.13-.75-19.68,5.39-4.6,7.98,8.73,18.09,4.18,26.03-2.67,4.47-9.07,4.18-14.12,5.72-13.41,3.8-18.05,23.4-8.94,33.85s27.37,9.86,37.02,0c6.77-6.85,9.49-16.51,14.33-24.78,4.85-8.27,14.08-15.67,23.27-13,3.54,1.33,6.78,3.36,9.53,5.98l13.37,11.28c2.88,2.38,6.02,5.39,5.72,9.11-.25,3.01-2.59,5.35-3.59,8.15-2.8,8.06,8.86,15.71,16.21,11.32s8.11-15.67,3.09-22.61c-6.89-9.57-22.56-14.37-22.15-26.24,7.98-6.52,20.56.33,25.07,9.61,4.51,9.28,4.81,20.1,8.73,29.63,3.93,9.53,14.92,18.05,24.11,13.41-2.42-8.36-4.72-16.46-7.15-24.65,5.89-4.39,12.54,8.36,19.6,6.27,4.18-1.34,4.81-7.48,2.93-11.62-1.88-4.14-5.14-7.56-5.93-12.03-1.34-8.15,7.73-15.42,15.92-14.08,8.2,2.06,14.35,8.85,15.59,17.22.33,3.25,1.04,6.45,2.13,9.53,3.09,6.39,10.99,8.36,17.55,10.99,6.56,2.63,13.37,9.23,10.66,15.79-1.3,2.84-4.18,5.56-3.22,8.36.96,2.8,4.89,3.72,4.89,6.52,0,1.84-2.01,3.13-3.76,3.84-4.39,1.8-9.19,2.42-13.45,4.47-4.5,1.73-7.55,5.96-7.77,10.78.5,6.69,8.36,9.86,12.16,15.42s3.09,12.24,5.35,18.26c2.68,5.29,6.07,10.2,10.07,14.58,11.03,15.04,13.66,34.43,19.05,52.27,2.38,8.06,6.77,17.05,15.04,18.59,4.6.36,9.2-.53,13.33-2.59,11.91-4.72,24.32-9.82,32.63-19.47,8.32-9.65,11.2-25.49,2.59-35.02-1-1.38-2.5-2.31-4.18-2.59-2.25.13-4.42.88-6.27,2.17-6.49,2.31-13.72.69-18.59-4.18-4.73-4.8-8.47-10.48-11.03-16.71l-9.86-19.89c4.49-2.88,10.37-2.33,14.25,1.34,3.65,3.65,6.91,7.67,9.74,11.99,9.9,12.54,26.24,17.84,42.04,19.72,4.04.21,8.03,1.04,11.83,2.47,11.83,5.39,15.21,22.77,27.66,26.49,3.58.58,7.13,1.37,10.61,2.38,4.69,2.94,7.91,7.74,8.86,13.2,2.72,9.82,3.64,20.14,7.77,29.46,4.14,9.32,12.54,17.76,22.52,17.93,6.32-.09,12.34-2.71,16.71-7.27.5-9.19,1.13-18.72,1.13-28.04-.17-1.63-.17-3.55-.29-5.47Z"/>
    </g>
    <g class="cls-14">
      <path class="cls-1" d="M1354.39,833.69c-6.27,1.21-7.52,4.93-10.95,9.57-4.43,6.02-10.78,12.08-14.83,18.05-6.81,10.11-.67,25.91-9.65,34.43-2.02,1.49-3.96,3.08-5.81,4.76-3.38,4.68-2.42,11.2,2.17,14.71,4.73,3.16,10.87,3.28,15.71.29,4.69-3.08,8.11-7.76,9.61-13.16.6-3.96,2.28-7.67,4.85-10.74,5.18-4.51,13.16-1.17,19.97-2.13,28.75-4.05,16.38-61.22-11.07-55.78Z"/>
    </g>
    <g class="cls-14">
      <path class="cls-1" d="M1364.17,754.17c16.71-14.37,23.32-46.84,2.67-54.32-7.81-2.84-16.71-.54-24.57-3.55-10.11-3.93-14.83-15.25-18.47-25.49-9.61-26.77-19.21-53.57-28.79-80.4-5.77-16.13-14.54-34.85-31.51-37.23-9.65-1.34-18.97,3.26-28.54,4.97-32.89,6.02-88.21-73.63-113.24-20.02-3.51-14.58-27.16-9.11-34.72,3.84-7.56,12.95-9.19,30.04-21.19,39.03-9.15,6.85-22.56,7.27-30,15.92-5.27,6.1-6.18,14.67-6.85,22.69-1.25,15.34-2.51,30.63-3.8,45.96-1,12.33-1.84,25.53,4.18,36.31s22.1,16.71,31.26,8.36c4.18-3.84,5.98-9.65,9.4-14.21,5.82-7.39,15.45-10.67,24.57-8.36,7.36,2.53,13.85,7.1,18.72,13.16,42.83,45.96,58.17,111.78,60.05,174.66.38,11.53.38,23.36,4.6,34.06,4.97,12.54,15.42,22.73,18.51,35.85,2.38,10.11,0,21.19,4.47,30.63,7.98,17.34,34.6,18.05,49.1,5.64,14.5-12.41,19.51-32.47,22.48-51.35,2.97-18.89,4.81-38.74,15.38-54.61,6.56-9.9,16.17-17.8,20.89-28.71,6.39-15.25,1.67-33.43,7.6-48.81,7.86-20.56,31.17-29.67,47.8-44.04Z"/>
    </g>
  </g>
  <g id="freepik--Connection--inject-356">
    <path class="cls-12" d="M831.82,1474.47c-61.83,5.03-116.03-41.01-121.06-102.84-5.03-61.83,41.01-116.03,102.84-121.06,61.83-5.03,116.03,41.01,121.06,102.84.49,6.08.49,12.19,0,18.27-4.53,54.8-48.03,98.28-102.83,102.79Z"/>
    <path class="cls-8" d="M831.82,1474.47c-61.83,5.03-116.03-41.01-121.06-102.84-5.03-61.83,41.01-116.03,102.84-121.06,61.83-5.03,116.03,41.01,121.06,102.84.49,6.08.49,12.19,0,18.27-4.53,54.8-48.03,98.28-102.83,102.79Z"/>
    <path class="cls-11" d="M831.82,1474.47l1.8-.33,5.31-.75c2.82-.41,5.61-.99,8.36-1.71,3.84-.86,7.62-1.97,11.32-3.3,23.87-8.41,44.23-24.59,57.79-45.96,4.48-6.97,8.18-14.41,11.03-22.19,1.43-4.11,2.64-8.3,3.64-12.54.46-2.21,1-4.39,1.38-6.64.38-2.26.58-4.55.88-6.89.29-2.33.42-4.67.38-7.02v-7.15c-.25-4.76-.67-9.65-1.34-14.54-.5-2.47-.96-4.89-1.46-7.35-.29-1.21-.46-2.47-.79-3.68l-1.17-3.64c-.75-2.42-1.55-4.89-2.34-7.35l-3.13-7.1-1.59-3.59c-.58-1.17-1.3-2.3-1.96-3.47l-4.18-6.89-4.76-6.52-2.38-3.3-2.76-3.05c-7.32-8.43-15.89-15.69-25.41-21.52l-7.44-4.18c-2.55-1.3-5.22-2.34-7.86-3.55-1.34-.54-2.63-1.21-4.18-1.71l-4.18-1.3c-2.74-.98-5.53-1.82-8.36-2.51-11.62-2.68-23.57-3.65-35.48-2.88-46.57,4.08-85.73,36.59-98.32,81.61-2.62,9.85-3.91,20.01-3.84,30.21-.1,2.46.01,4.92.33,7.35l.63,7.27c.88,4.68,1.67,9.4,2.88,13.87,4.64,16.7,13.04,32.11,24.57,45.04,9.55,10.63,21,19.39,33.76,25.82l8.36,3.72c2.67,1.17,5.43,1.84,7.98,2.76,4.68,1.52,9.48,2.69,14.33,3.51,6.73,1.18,13.56,1.73,20.39,1.63h7.15-1.8l-5.35.25c-6.86.26-13.74-.16-20.52-1.25-4.91-.75-9.76-1.88-14.5-3.38-2.59-.84-5.39-1.5-8.11-2.67l-8.36-3.68c-29.12-14.28-50.79-40.28-59.59-71.49-1.25-4.55-2.05-9.32-3.01-14.08l-.63-7.35c-.31-2.48-.44-4.98-.38-7.48-.5-33.19,13.78-64.89,38.99-86.5,18.34-15.94,41.3-25.6,65.52-27.58,12.13-.81,24.31.19,36.14,2.97,2.9.7,5.76,1.55,8.57,2.55l4.18,1.34c1.42.5,2.72,1.17,4.18,1.76,2.67,1.21,5.39,2.3,8.02,3.64l7.52,4.18c9.71,5.98,18.44,13.4,25.91,22.02l2.76,3.09,2.47,3.34,4.81,6.64c1.34,2.38,2.72,4.72,4.18,7.06.63,1.17,1.38,2.3,1.96,3.51l1.63,3.68c1.04,2.42,2.09,4.85,3.18,7.27,1.09,2.42,1.55,4.97,2.34,7.44l1.17,3.72c.33,1.21.54,2.51.79,3.76l1.5,7.48c.63,4.97,1.04,9.94,1.3,14.79,0,2.47,0,4.89-.21,7.27,0,2.39-.13,4.77-.42,7.15-.33,2.34-.63,4.68-.92,6.98s-.96,4.51-1.42,6.73c-1.03,4.35-2.29,8.65-3.76,12.87-2.96,7.88-6.76,15.41-11.32,22.48-7.88,12.17-17.99,22.73-29.79,31.13-8.91,6.27-18.68,11.22-29,14.71-3.76,1.28-7.6,2.33-11.49,3.13-2.75.67-5.54,1.17-8.36,1.5l-5.31.54c-.72.19-1.47.31-2.21.33Z"/>
    <path class="cls-11" d="M1557.97,712.13c-.17-8.26.14-16.52.92-24.74.06-8.26.64-16.51,1.76-24.7,1.06,8.23,1.2,16.56.42,24.82-.07,8.3-1.11,16.56-3.09,24.61Z"/>
    <path class="cls-11" d="M1536.83,808.66c1.58-8.1,3.65-16.09,6.18-23.94,1.87-8.04,4.22-15.97,7.02-23.73-.68,8.27-2.32,16.43-4.89,24.32-1.89,8.07-4.68,15.91-8.32,23.36Z"/>
    <path class="cls-11" d="M1495.29,898.41c3.28-7.57,7.04-14.92,11.24-22.02,3.55-7.45,7.54-14.67,11.95-21.64-5.61,15.59-13.42,30.29-23.19,43.67Z"/>
    <path class="cls-11" d="M1435.46,976.89c4.84-6.68,10.09-13.06,15.71-19.1,5.05-6.54,10.5-12.75,16.34-18.59-4.12,7.2-9.05,13.91-14.71,19.97-5.09,6.55-10.9,12.49-17.34,17.72Z"/>
    <path class="cls-11" d="M1360.2,1040.9c6.13-5.52,12.6-10.65,19.39-15.34,6.36-5.28,13.03-10.18,19.97-14.67-5.56,6.16-11.82,11.65-18.64,16.38-6.39,5.28-13.34,9.85-20.73,13.62Z"/>
    <path class="cls-11" d="M1272.91,1087.24c7.19-4.05,14.63-7.65,22.27-10.78,7.34-3.8,14.9-7.15,22.65-10.03-6.78,4.79-14.06,8.81-21.73,11.99-7.37,3.81-15.15,6.77-23.19,8.82Z"/>
    <path class="cls-11" d="M1177.72,1113.61c7.9-2.38,15.94-4.28,24.07-5.68,7.98-2.15,16.09-3.78,24.28-4.89-15.53,5.82-31.81,9.38-48.35,10.57Z"/>
    <path class="cls-11" d="M1079.15,1118.92c8.22-.86,16.49-.99,24.74-.42,8.24-.58,16.52-.44,24.74.42-16.41,2.34-33.07,2.34-49.47,0h0Z"/>
    <path class="cls-11" d="M981.5,1103.16c8.19,1.13,16.29,2.76,24.28,4.89,8.13,1.42,16.16,3.32,24.07,5.68-8.28-.24-16.51-1.44-24.53-3.55-8.18-1.44-16.17-3.8-23.82-7.02Z"/>
    <path class="cls-11" d="M889.74,1066.43c7.73,2.88,15.28,6.23,22.61,10.03,7.65,3.12,15.08,6.72,22.27,10.78-15.87-4.82-30.97-11.86-44.88-20.89v.08Z"/>
    <path class="cls-11" d="M808.05,1010.94c6.92,4.48,13.58,9.36,19.93,14.62,6.79,4.69,13.26,9.81,19.39,15.34-7.45-3.73-14.46-8.29-20.89-13.58-6.74-4.75-12.92-10.24-18.43-16.38Z"/>
    <path class="cls-11" d="M740.06,939.2c5.81,5.87,11.26,12.08,16.34,18.59,5.61,6.05,10.86,12.42,15.71,19.1-6.44-5.2-12.26-11.13-17.34-17.68-5.65-6.09-10.59-12.8-14.71-20.02Z"/>
    <path class="cls-11" d="M689.04,854.58c4.45,6.97,8.45,14.21,11.99,21.69,4.19,7.15,7.94,14.55,11.24,22.15-5.16-6.45-9.58-13.45-13.16-20.89-4.2-7.25-7.58-14.94-10.07-22.94Z"/>
    <path class="cls-11" d="M657.54,760.98c2.8,7.76,5.13,15.69,6.98,23.73,2.56,7.85,4.64,15.84,6.23,23.94-3.67-7.44-6.47-15.28-8.36-23.36-2.56-7.89-4.18-16.05-4.85-24.32Z"/>
    <path class="cls-11" d="M646.92,662.74c1.09,8.19,1.68,16.44,1.75,24.7.81,8.22,1.1,16.48.88,24.74-1.92-8.07-2.94-16.32-3.05-24.61-.81-8.26-.67-16.59.42-24.82Z"/>
    <path class="cls-11" d="M657.5,564.51c-.67,8.23-1.86,16.41-3.55,24.49-.95,8.2-2.41,16.34-4.39,24.36-.19-8.29.57-16.58,2.26-24.7.98-8.24,2.89-16.34,5.68-24.15Z"/>
    <path class="cls-11" d="M689.04,470.86c-2.44,7.89-5.37,15.62-8.77,23.15-2.71,7.79-5.89,15.41-9.53,22.81,1.58-8.15,4.1-16.09,7.52-23.65,2.74-7.82,6.36-15.31,10.78-22.31Z"/>
    <path class="cls-11" d="M740.06,386.25c-4.13,7.15-8.66,14.06-13.58,20.68-4.32,7.02-9.07,13.78-14.21,20.22,3.35-7.6,7.55-14.79,12.54-21.44,4.34-7.04,9.45-13.57,15.25-19.47Z"/>
    <path class="cls-11" d="M808.01,314.55c-5.54,6.13-11.44,11.92-17.68,17.34-5.72,5.96-11.82,11.54-18.26,16.71,4.87-6.69,10.48-12.81,16.71-18.26,5.78-5.99,12.23-11.29,19.22-15.79Z"/>
    <path class="cls-11" d="M889.74,259.1c-6.7,4.79-13.68,9.19-20.89,13.16-6.88,4.59-14.02,8.78-21.39,12.54,6.18-5.53,12.98-10.33,20.27-14.29,6.88-4.63,14.27-8.46,22.02-11.41Z"/>
    <path class="cls-11" d="M981.46,222.45c-7.59,3.24-15.36,6.03-23.27,8.36-7.69,2.95-15.56,5.42-23.57,7.4,7.23-4.03,14.9-7.22,22.86-9.53,7.73-2.99,15.78-5.08,23.98-6.23Z"/>
    <path class="cls-11" d="M1079.15,206.53c-8.12,1.53-16.33,2.56-24.57,3.09-8.15,1.24-16.37,1.98-24.61,2.21,16.06-4.07,32.62-5.86,49.18-5.31Z"/>
    <path class="cls-11" d="M1177.68,211.84c-8.26-.26-16.49-1.02-24.65-2.26-8.24-.51-16.45-1.53-24.57-3.05,8.28-.65,16.61-.34,24.82.92,8.28.51,16.47,1.98,24.4,4.39Z"/>
    <path class="cls-11" d="M1272.91,238.2c-8-2.02-15.87-4.53-23.57-7.52-7.94-2.3-15.72-5.09-23.32-8.36,8.2,1.17,16.25,3.26,23.98,6.23,7.98,2.33,15.66,5.57,22.9,9.65Z"/>
    <path class="cls-11" d="M1360.16,284.54c-7.38-3.73-14.53-7.92-21.39-12.54-7.22-3.95-14.2-8.33-20.89-13.12,7.77,2.89,15.19,6.66,22.1,11.24,7.26,4.01,14.04,8.84,20.18,14.42Z"/>
    <path class="cls-11" d="M1435.42,348.52c-6.42-5.2-12.52-10.78-18.26-16.71-6.23-5.4-12.12-11.18-17.63-17.3,6.95,4.5,13.37,9.77,19.14,15.71,6.26,5.45,11.88,11.59,16.76,18.3Z"/>
    <path class="cls-11" d="M1495.29,427.12c-5.18-6.43-9.94-13.18-14.25-20.22-4.96-6.67-9.5-13.65-13.58-20.89,5.85,5.88,11.01,12.42,15.38,19.47,4.95,6.72,9.13,13.98,12.45,21.64Z"/>
    <path class="cls-11" d="M1536.83,516.79c-3.65-7.42-6.84-15.05-9.57-22.86-3.37-7.53-6.3-15.24-8.77-23.11,4.45,7,8.08,14.49,10.82,22.31,3.38,7.58,5.9,15.51,7.52,23.65Z"/>
    <path class="cls-11" d="M1557.97,613.27c-1.88-8.03-3.28-16.16-4.18-24.36-1.7-8.08-2.88-16.26-3.55-24.49,2.8,7.81,4.72,15.91,5.72,24.15,1.62,8.13,2.29,16.41,2.01,24.7Z"/>
    <path class="cls-11" d="M863.92,1257.77c-.54-.25,16.13-38.11,37.27-84.57,21.14-46.47,38.69-83.95,39.24-83.57s-16.13,38.11-37.27,84.57c-21.14,46.47-38.69,83.82-39.24,83.57Z"/>
    <path class="cls-10" d="M833.12,1364.41c10.84-4.76,17.78-15.54,17.63-27.37.91-15.32-10.78-28.47-26.1-29.38-15.32-.91-28.47,10.78-29.38,26.1-.06,1.01-.06,2.02-.01,3.04-.22,11.93,6.75,22.82,17.68,27.62-42.7,6.44-40.78,52.86-40.78,52.86l101.04.46s2.3-46.93-40.07-53.32Z"/>
    <path class="cls-12" d="M1667.58,1192.79c-56.36,25.96-123.1,1.31-149.06-55.05-25.96-56.36-1.31-123.1,55.05-149.06,56.36-25.96,123.1-1.31,149.06,55.05,2.56,5.56,4.66,11.32,6.29,17.23,14.52,53.03-11.42,108.79-61.34,131.83Z"/>
    <path class="cls-8" d="M1667.58,1192.79c-56.36,25.96-123.1,1.31-149.06-55.05-25.96-56.36-1.31-123.1,55.05-149.06,56.36-25.96,123.1-1.31,149.06,55.05,2.56,5.56,4.66,11.32,6.29,17.23,14.52,53.03-11.42,108.79-61.34,131.83Z"/>
    <path class="cls-11" d="M1667.58,1192.79c.47-.38.99-.71,1.55-.96l4.72-2.51c2.54-1.37,5.01-2.88,7.4-4.51,3.32-2.14,6.5-4.48,9.53-7.02,8.31-6.88,15.62-14.88,21.73-23.78,12.67-18.84,19.47-41.02,19.56-63.72-.06-4.42-.37-8.82-.92-13.2-.33-2.21-.54-4.47-.96-6.73s-1.04-4.47-1.59-6.73c-.51-2.29-1.18-4.54-2.01-6.73l-2.3-6.77c-1.88-4.43-3.97-8.86-6.27-13.25l-3.89-6.39c-.67-1.04-1.3-2.13-2.01-3.18l-2.34-3.01c-1.55-2.05-3.13-4.18-4.72-6.1l-5.39-5.6-2.72-2.84c-.96-.92-2.01-1.71-3.01-2.59l-6.1-5.1-6.69-4.51-3.43-2.26-3.59-1.92c-9.79-5.38-20.34-9.23-31.3-11.41l-8.36-1.46c-2.84-.33-5.77-.42-8.61-.67l-4.18-.25h-4.18c-2.93.21-5.85,0-8.77.54-11.83,1.44-23.37,4.62-34.26,9.44-42.6,19.62-68.5,63.67-64.93,110.44.92,10.16,3.18,20.15,6.73,29.71.77,2.34,1.72,4.62,2.84,6.81l3.05,6.56c2.51,4.18,4.81,8.36,7.48,12.08,10.09,14.09,23.28,25.68,38.57,33.85,12.61,6.75,26.37,11.07,40.57,12.74l9.07.63h8.36c4.93-.19,9.85-.72,14.71-1.59,6.8-1.27,13.46-3.19,19.89-5.72l5.01-1.84c.56-.25,1.15-.44,1.76-.54,0,0-.54.29-1.67.75l-4.93,2.05c-6.36,2.63-12.97,4.6-19.72,5.89-4.85,1.03-9.76,1.72-14.71,2.05-2.76,0-5.6.42-8.36.25l-9.23-.59c-32.24-3.42-61.49-20.41-80.44-46.72-2.76-3.84-5.1-8.06-7.65-12.24l-3.13-6.69c-1.15-2.22-2.12-4.53-2.93-6.89-3.64-9.72-5.97-19.88-6.94-30.21-3.78-47.51,22.34-92.36,65.52-112.53,11.13-4.88,22.91-8.12,34.97-9.61,2.93-.46,5.93-.33,8.9-.54h4.43c1.5,0,2.97,0,4.43.25,2.93.21,5.89.29,8.77.67l8.61,1.5c11.15,2.29,21.89,6.26,31.84,11.78l3.68,1.96,3.43,2.3,6.81,4.64,6.23,5.22c1,.88,2.09,1.71,3.05,2.63l2.76,2.88,5.47,5.72,4.81,6.23,2.34,3.05c.75,1.04,1.38,2.17,2.05,3.26l3.97,6.52c2.3,4.47,4.39,8.98,6.27,13.45.79,2.34,1.55,4.64,2.34,6.89.82,2.24,1.49,4.53,2.01,6.85.54,2.34,1.04,4.6,1.55,6.89s.67,4.55.96,6.81c.56,4.44.85,8.9.88,13.37-.07,8.44-1.05,16.84-2.93,25.07-5.75,24.81-19.76,46.92-39.74,62.72-3.07,2.51-6.31,4.82-9.69,6.89-2.42,1.55-4.93,2.94-7.52,4.18l-4.81,2.34-1.67,1Z"/>
    <path class="cls-6" d="M1631.06,1088c10.81-4.79,17.74-15.54,17.63-27.37.92-15.32-10.76-28.48-26.08-29.4-15.32-.92-28.48,10.76-29.4,26.08-.06,1.01-.07,2.02-.02,3.03-.26,11.95,6.72,22.87,17.68,27.66-42.83,6.44-40.78,52.78-40.78,52.78l101,.46s2.3-46.84-40.03-53.23Z"/>
    <path class="cls-11" d="M1531.77,1022.14c-.38.46-18.59-13.33-40.7-30.84-22.1-17.51-39.7-32.09-39.32-32.55s18.59,13.33,40.66,30.84c22.06,17.51,39.74,32.09,39.36,32.55Z"/>
    <path class="cls-12" d="M588.26,300.51c-61.83,5.03-116.03-41.01-121.06-102.83-5.03-61.83,41.01-116.03,102.83-121.06s116.03,41.01,121.06,102.83c.49,6.07.49,12.16,0,18.23-4.53,54.81-48.03,98.3-102.83,102.83Z"/>
    <path class="cls-8" d="M588.26,300.51c-61.83,5.03-116.03-41.01-121.06-102.83-5.03-61.83,41.01-116.03,102.83-121.06s116.03,41.01,121.06,102.83c.49,6.07.49,12.16,0,18.23-4.53,54.81-48.03,98.3-102.83,102.83Z"/>
    <path class="cls-11" d="M588.26,300.51c.59-.17,1.19-.28,1.8-.33l5.31-.79c2.82-.39,5.61-.96,8.36-1.71,3.84-.84,7.63-1.95,11.32-3.3,31.93-11.31,57.16-36.26,68.82-68.07,1.46-4.1,2.67-8.29,3.64-12.54.46-2.17,1.04-4.18,1.38-6.64l.88-6.85c.29-2.33.43-4.67.42-7.02v-7.15c-.25-4.81-.67-9.69-1.3-14.58l-1.5-7.35c-.25-1.21-.46-2.47-.79-3.68l-1.17-3.64c-.75-2.42-1.55-4.85-2.34-7.31l-2.88-7.44-1.59-3.59c-.58-1.17-1.3-2.3-1.92-3.43l-4.18-6.94c-1.59-2.13-3.13-4.18-4.72-6.52l-2.42-3.3-2.76-3.01c-7.32-8.44-15.89-15.71-25.41-21.56l-7.44-4.18c-2.55-1.3-5.22-2.38-7.86-3.55-1.34-.58-2.63-1.21-4.18-1.71l-4.18-1.34c-2.8-.79-5.52-1.92-8.36-2.51-11.61-2.67-23.55-3.63-35.43-2.84-23.44,2.08-45.63,11.48-63.43,26.87-16.59,14.46-28.61,33.44-34.6,54.61-2.62,9.87-3.91,20.04-3.84,30.25-.08,2.46.04,4.91.33,7.35l.63,7.23c.92,4.72,1.67,9.4,2.88,13.87,4.63,16.71,13.06,32.12,24.61,45.04,9.55,10.64,21,19.4,33.76,25.82l8.36,3.76c2.67,1.17,5.43,1.84,7.98,2.72,4.69,1.52,9.48,2.71,14.33,3.55,6.73,1.16,13.56,1.71,20.39,1.63h5.35c.6-.06,1.2-.06,1.8,0-.6.06-1.2.06-1.8,0l-5.35.25c-11.85.47-23.69-1.08-35.02-4.6-2.59-.88-5.39-1.55-8.11-2.67l-8.36-3.72c-29.13-14.24-50.81-40.23-59.59-71.45-1.25-4.55-2.05-9.32-2.97-14.12l-.67-7.35c-.31-2.48-.44-4.98-.38-7.48-.09-10.38,1.2-20.72,3.84-30.75,12.74-45.98,52.74-79.19,100.29-83.24,12.11-.8,24.28.19,36.1,2.92,2.97.58,5.72,1.71,8.36,2.55l4.18,1.34c1.38.54,2.72,1.17,4.18,1.75,2.67,1.21,5.43,2.34,8.02,3.64l7.44,4.55c9.69,5.96,18.42,13.38,25.87,21.98l2.8,3.09,2.42,3.34,4.81,6.69c1.38,2.34,2.72,4.72,4.18,7.02.67,1.21,1.38,2.34,1.96,3.51l1.63,3.68,3.18,7.27c.79,2.51,1.59,5.01,2.34,7.48l1.17,3.68c.33,1.25.54,2.51.79,3.76l1.5,7.48c.63,4.97,1.04,9.94,1.3,14.83v7.27c.03,2.37-.11,4.75-.42,7.1-.29,2.34-.63,4.68-.92,6.98s-.96,4.51-1.42,6.77c-1.03,4.35-2.28,8.65-3.76,12.87-2.94,7.88-6.74,15.42-11.32,22.48-7.9,12.24-18.09,22.84-30,31.21-8.99,6.29-18.84,11.26-29.25,14.75-3.75,1.3-7.59,2.33-11.49,3.09-2.81.72-5.68,1.23-8.57,1.5l-5.31.58c-.57.09-1.14.13-1.71.13Z"/>
    <path class="cls-6" d="M589.59,190.11c10.81-4.79,17.73-15.55,17.63-27.37,1.1-15.33-10.44-28.65-25.77-29.75-15.33-1.1-28.65,10.44-29.75,25.77-.09,1.24-.09,2.48-.02,3.73-.22,11.93,6.75,22.82,17.68,27.62-42.7,6.43-40.74,52.86-40.74,52.86l101,.46s2.42-47.01-40.03-53.32Z"/>
    <path class="cls-11" d="M762.17,359.38c-.42.46-25.07-19.1-54.74-43.67s-53.74-44.88-53.36-45.34,24.86,19.1,54.74,43.67c29.88,24.57,53.74,44.92,53.36,45.34Z"/>
    <path class="cls-12" d="M1317.62,162.99c-44.6,3.66-83.72-29.53-87.37-74.13-3.66-44.6,29.53-83.72,74.13-87.37,44.6-3.66,83.72,29.53,87.37,74.13.36,4.41.36,8.84,0,13.25-3.27,39.5-34.62,70.85-74.13,74.13Z"/>
    <path class="cls-8" d="M1317.62,162.99c-44.6,3.66-83.72-29.53-87.37-74.13-3.66-44.6,29.53-83.72,74.13-87.37,44.6-3.66,83.72,29.53,87.37,74.13.36,4.41.36,8.84,0,13.25-3.27,39.5-34.62,70.85-74.13,74.13Z"/>
    <path class="cls-11" d="M1317.62,162.99c.42-.14.85-.22,1.3-.25l3.8-.63c2.06-.29,4.1-.7,6.1-1.25,2.76-.51,5.48-1.19,8.15-2.05,22.93-8.23,41.05-26.19,49.47-49.06,2.12-6.11,3.53-12.45,4.18-18.89,1.46-14.23-.95-28.6-6.98-41.58-1.59-3.45-3.39-6.8-5.39-10.03l-3.43-4.68-1.71-2.38-1.96-2.17c-5.28-6.05-11.45-11.27-18.3-15.46-7.09-4.34-14.8-7.58-22.86-9.61-8.35-1.94-16.94-2.63-25.49-2.05-44.05,3.58-76.86,42.19-73.28,86.23,1.42,17.45,8.52,33.95,20.21,46.98,6.83,7.61,15,13.88,24.11,18.51l5.98,2.72c1.96.84,3.93,1.3,5.77,1.96,3.37,1.11,6.82,1.96,10.32,2.55,4.84.86,9.75,1.28,14.67,1.25h5.18-5.18c-8.55.35-17.09-.73-25.28-3.22-1.88-.63-3.89-1.09-5.89-1.92l-6.1-2.67c-9.46-4.59-17.97-10.93-25.07-18.68-8.56-9.43-14.81-20.71-18.26-32.97-11.95-43.74,13.82-88.89,57.56-100.85,4.82-1.32,9.75-2.19,14.73-2.61,8.78-.58,17.59.14,26.16,2.13,8.44,2.14,16.49,5.59,23.86,10.24,7.01,4.33,13.32,9.7,18.72,15.92l2.01,2.26,1.8,2.42,3.47,4.85c2.04,3.31,3.88,6.75,5.52,10.28,8.9,19.49,9.8,41.7,2.51,61.84-8.52,23.3-27.19,41.45-50.73,49.31-2.74.93-5.53,1.68-8.36,2.26-2.04.47-4.1.82-6.18,1.04l-3.84.38c-.42.02-.84-.02-1.25-.13Z"/>
    <path class="cls-10" d="M1318.54,83.6c7.74-3.48,12.67-11.24,12.54-19.72.77-11.05-7.56-20.63-18.61-21.4-11.05-.77-20.63,7.56-21.4,18.61-.06.86-.06,1.72-.01,2.58-.14,8.66,4.98,16.55,12.95,19.93-30.8,4.64-29.25,38.11-29.25,38.11l72.83.38s1.5-33.72-29.04-38.48Z"/>
    <path class="cls-11" d="M1289.75,160.52c-4.05,12.13-8.79,24.02-14.21,35.6-4.77,11.88-10.21,23.47-16.3,34.72,4.1-12.12,8.87-24.01,14.29-35.6,4.77-11.86,10.18-23.45,16.21-34.72Z"/>
    <path class="cls-12" d="M1709.78,629.52c-57.27,4.68-107.49-37.96-112.17-95.23-4.68-57.27,37.96-107.49,95.23-112.17,57.27-4.68,107.49,37.96,112.17,95.23.46,5.64.46,11.3,0,16.94-4.2,50.75-44.48,91.03-95.23,95.23Z"/>
    <path class="cls-8" d="M1709.78,629.52c-57.27,4.68-107.49-37.96-112.17-95.23-4.68-57.27,37.96-107.49,95.23-112.17,57.27-4.68,107.49,37.96,112.17,95.23.46,5.64.46,11.3,0,16.94-4.2,50.75-44.48,91.03-95.23,95.23Z"/>
    <path class="cls-11" d="M1709.78,629.52c.53-.15,1.08-.26,1.63-.33l4.89-.71c2.66-.35,5.3-.89,7.9-1.59,3.56-.8,7.06-1.82,10.49-3.05,9.42-3.36,18.32-8.01,26.45-13.83,24.19-17.17,39.75-43.98,42.66-73.5,1.9-18.32-1.19-36.82-8.94-53.53l-1.5-3.34c-.54-1.09-1.17-2.13-1.8-3.18l-3.68-6.39-4.39-6.23-2.21-3.05-2.55-2.8c-6.78-7.82-14.73-14.55-23.57-19.93-9.04-5.67-18.91-9.9-29.25-12.54-10.74-2.49-21.8-3.39-32.8-2.67-43.11,3.77-79.37,33.87-91.01,75.55-2.44,9.12-3.64,18.52-3.59,27.95-.08,2.28.03,4.55.33,6.81,0,2.26.38,4.47.54,6.69.88,4.18,1.55,8.73,2.67,12.87,4.28,15.5,12.07,29.79,22.77,41.79,8.84,9.85,19.44,17.95,31.26,23.9l7.69,3.47c2.51,1.09,5.06,1.71,7.4,2.55,4.35,1.4,8.79,2.49,13.29,3.26,6.23,1.1,12.56,1.62,18.89,1.55h6.64-1.71l-4.93.21c-6.36.28-12.73-.1-19.01-1.13-4.55-.71-9.05-1.74-13.45-3.09-2.38-.84-4.97-1.42-7.48-2.51l-7.86-3.38c-12.03-5.94-22.83-14.09-31.84-24.03-10.96-12.09-18.97-26.55-23.4-42.25-1.13-4.18-1.88-8.61-2.76-13.08-.21-2.21-.42-4.51-.63-6.81-.26-2.3-.37-4.62-.33-6.94-.06-9.61,1.13-19.19,3.55-28.5,11.8-42.57,48.8-73.34,92.81-77.18,11.22-.73,22.48.18,33.43,2.72,10.6,2.62,20.73,6.85,30.04,12.54,8.99,5.53,17.08,12.41,23.98,20.39l2.59,2.88,2.26,3.09,4.47,6.18c1.25,2.17,2.51,4.39,3.76,6.52.59,1.09,1.25,2.17,1.8,3.26l1.5,3.43c7.87,17.04,10.97,35.91,8.94,54.57-4.41,40.53-32,74.8-70.66,87.75-3.46,1.22-7.01,2.18-10.61,2.88-2.61.64-5.26,1.1-7.94,1.38l-4.93.54-1.8.84Z"/>
    <path class="cls-6" d="M1710.95,527.57c10.04-4.41,16.48-14.4,16.34-25.36.88-14.19-9.92-26.4-24.1-27.28-14.19-.88-26.4,9.92-27.28,24.1-.06.97-.06,1.95-.01,2.92-.22,11.06,6.24,21.17,16.38,25.61-39.57,5.98-37.61,48.97-37.61,48.97l93.56.42s1.96-43.46-37.27-49.39Z"/>
    <path class="cls-11" d="M1600.39,551.34c-8.13,3.23-16.52,5.76-25.07,7.56-8.32,2.52-16.83,4.35-25.45,5.47,8.13-3.23,16.52-5.76,25.07-7.56,8.32-2.52,16.83-4.35,25.45-5.47Z"/>
  </g>
  <g id="freepik--Character--inject-356">
    <path class="cls-6" d="M367.8,1722.84l-65.85,86.5-32.26,83.28c-2.21,5.73-8.65,8.57-14.37,6.36-.24-.09-.48-.19-.71-.3h0c-3.27-1.49-5.59-4.49-6.23-8.02-4.18-22.61-18.72-105.76-13.54-111.78,5.98-7.02,63.26-95.73,63.26-95.73l69.7,39.7Z"/>
    <g class="cls-15">
      <path class="cls-13" d="M254.77,1898.59l-15.5-125.73-2.72,3.72c-2.33,3.22-3.44,7.16-3.13,11.11.79,10.57,3.72,39.82,14.79,102.67.61,3.71,3.07,6.86,6.52,8.36l.04-.13Z"/>
    </g>
    <g class="cls-15">
      <path class="cls-13" d="M277.87,1757.57c1.16,3.32-.44,6.97-3.68,8.36-3.29,1.32-7.02-.27-8.36-3.55-1.07-3.46.61-7.18,3.93-8.65,3.5-.88,7.07,1.17,8.06,4.64"/>
    </g>
    <path class="cls-11" d="M262.5,1845.65c4.07-1.17,8.32-1.6,12.54-1.25,4.15,1.07,8.06,2.91,11.53,5.43.21,0-.38-1.67-2.21-3.47-2.51-2.21-5.6-3.66-8.9-4.18-3.31-.6-6.73-.21-9.82,1.13-2.21.92-3.3,2.13-3.13,2.34Z"/>
    <path class="cls-11" d="M260.16,1861.95c3.54.44,7.06,1.06,10.53,1.88,5.52,1.88,8.82,5.56,9.36,5.1s-2.3-5.18-8.36-7.35c-3.68-1.76-7.98-1.62-11.53.38Z"/>
    <path class="cls-11" d="M261.79,1822.13c5.51.17,11,.77,16.42,1.8,5.27,1.73,10.41,3.84,15.38,6.31-3.67-4.56-8.86-7.65-14.62-8.69-5.61-1.86-11.7-1.65-17.17.58Z"/>
    <path class="cls-11" d="M279.59,1794.21c0,.67,6.14,2.17,12.54,6.52s10.36,9.53,10.95,9.11c-1.78-4.68-5.13-8.6-9.49-11.07-3.98-3.14-8.94-4.75-14-4.55Z"/>
    <path class="cls-11" d="M298.22,1768.35c4.73,1.55,9.23,3.73,13.37,6.48,3.69,3.33,6.89,7.15,9.53,11.37.25,0,0-1.88-1.09-4.51-1.61-3.42-4-6.41-6.98-8.73-2.99-2.33-6.48-3.94-10.2-4.68-2.84-.46-4.64-.21-4.64.08Z"/>
    <path class="cls-11" d="M314.98,1769.81s1.17-.96,2.55-3.26c1.9-3.26,3.13-6.87,3.64-10.61.62-2.71.33-5.54-.84-8.06-.95-1.62-2.79-2.48-4.64-2.17-1.71.45-3.19,1.5-4.18,2.97-3.98,6.39-2.88,14.71,2.63,19.85,5.51,4.92,13.45,6.03,20.1,2.8,1.68-.83,2.9-2.36,3.34-4.18.27-1.87-.69-3.71-2.38-4.55-2.5-1.08-5.24-1.49-7.94-1.17-3.77.15-7.48.98-10.95,2.47-2.47,1.04-3.64,1.92-3.55,2.05,4.6-1.53,9.4-2.39,14.25-2.55,2.36-.19,4.74.23,6.89,1.21.94.44,1.47,1.45,1.3,2.47-.38,1.15-1.23,2.08-2.34,2.55-5.8,2.61-12.6,1.6-17.38-2.59-4.58-4.33-5.6-11.24-2.47-16.71.66-1.05,1.69-1.82,2.88-2.17,1.02-.25,2.08.21,2.59,1.13.99,2.13,1.28,4.51.84,6.81-.65,4.8-2.12,9.45-4.35,13.75Z"/>
    <path class="cls-6" d="M436.2,1768.93l6.69,88.21s-87.75,30-87.75,46.42l171.7-.38-4.76-137.89-85.87,3.64Z"/>
    <g class="cls-15">
      <path class="cls-13" d="M495.62,1847.61c3.46.92,5.68,4.27,5.18,7.81-.79,3.49-4.16,5.76-7.69,5.18-3.7-.96-6.05-4.59-5.43-8.36,1.16-3.58,4.96-5.58,8.57-4.51"/>
    </g>
    <g class="cls-15">
      <path class="cls-13" d="M526.62,1903.19l-.5-13.91-165.68,6.14c-3.54,1.88-5.89,5.41-6.27,9.4l172.45-1.63Z"/>
    </g>
    <path class="cls-11" d="M440.04,1856.39c0,.84,4.18,1.04,8.36,3.59,4.18,2.55,6.56,5.93,7.31,5.6s-.67-5.18-5.85-8.15c-5.18-2.97-10.03-1.8-9.82-1.04Z"/>
    <path class="cls-11" d="M422.37,1864.54c0,.84,3.51,2.09,6.52,5.56,3.01,3.47,3.93,7.15,4.76,7.06s1.21-4.85-2.59-9.03c-3.8-4.18-8.69-4.47-8.69-3.59Z"/>
    <path class="cls-11" d="M413.01,1886.47c.75,0,1.75-4.18-.58-8.36-2.34-4.18-6.31-6.18-6.64-5.47s2.21,3.09,4.18,6.81c1.96,3.72,2.21,6.98,3.05,7.02Z"/>
    <path class="cls-11" d="M440.75,1836.12c.38.75,4.18-.59,8.94-.42,4.76.17,8.36,1.46,8.9.71s-3.26-3.55-8.86-3.64c-5.6-.08-9.4,2.67-8.98,3.34Z"/>
    <g class="cls-14">
      <polygon class="cls-1" points="437.54 1786.4 438.71 1802.11 522.99 1798.01 522.53 1783.81 437.54 1786.4"/>
    </g>
    <path class="cls-11" d="M439.83,1818.28c2.83.68,5.8.55,8.57-.38,3.09-.67,6.08-1.72,8.9-3.13,1.67-.81,3.28-1.74,4.81-2.8.96-.57,1.82-1.29,2.55-2.13,1.07-1.27,1.16-3.11.21-4.47-.91-1.14-2.3-1.79-3.76-1.76-1.1.02-2.18.22-3.22.59-1.82.51-3.58,1.2-5.26,2.05-2.85,1.4-5.45,3.26-7.69,5.52-3.84,3.8-5.1,7.02-4.81,7.15s2.21-2.42,6.18-5.64c2.28-1.86,4.79-3.41,7.48-4.6,1.56-.71,3.18-1.29,4.85-1.71,1.8-.59,3.34-.63,3.84,0s0,.42,0,.96c-.55.6-1.18,1.13-1.88,1.55-1.42,1.01-2.9,1.93-4.43,2.76-2.65,1.46-5.46,2.64-8.36,3.51-2.72.66-5.38,1.51-7.98,2.55Z"/>
    <path class="cls-11" d="M440.88,1819.45c1.51-2.51,2.18-5.44,1.92-8.36.04-3.19-.48-6.36-1.55-9.36-.62-1.78-1.42-3.48-2.38-5.1-1.01-2.29-3.16-3.88-5.64-4.18-1.55.13-2.91,1.11-3.51,2.55-.39,1.02-.64,2.09-.75,3.18-.21,1.92-.13,3.87.25,5.77.64,3.22,2.07,6.22,4.18,8.73,3.51,4.18,7.06,5.18,7.1,4.89s-2.72-1.92-5.43-6.1c-1.6-2.39-2.64-5.1-3.05-7.94-.25-1.65-.25-3.32,0-4.97,0-1.84.84-3.34,1.5-3.18s2.38,1.25,3.13,2.67c.91,1.46,1.68,3,2.3,4.6,1.07,2.67,1.74,5.49,2.01,8.36.25,5.14-.54,8.32-.08,8.44Z"/>
    <path class="cls-11" d="M380.67,1014.2s-40.41,77.47-40.41,140.19c0,13.25,81.98,670.99,81.98,670.99l116.04-9.74-56.29-607.73,18.22-123.52-119.55-70.2Z"/>
    <path class="cls-11" d="M639.03,1082.86s-27.12,226.44-39.82,313.73c-13.33,91.34-39.53,108.64-39.53,108.64l-231.2,292.5-75.97-67.48,199.07-299.14s42.2-357.1,40.49-348.24,146.96,0,146.96,0Z"/>
    <path class="cls-4" d="M555.58,1508.98c-.54,1-1.19,1.94-1.92,2.8l-5.98,7.69-22.06,28.37-71.87,94.1c-28.04,36.85-53.61,70.03-72.5,93.77-9.44,11.87-17.17,21.39-22.61,27.87l-6.35,7.48c-.69.89-1.46,1.72-2.3,2.47.55-1,1.21-1.94,1.96-2.8l5.98-7.69,22.02-28.37,71.91-94.14c28-36.81,53.57-69.99,72.46-93.72,9.44-11.87,17.17-21.39,22.61-27.87l6.35-7.48c.69-.89,1.46-1.72,2.3-2.47Z"/>
    <path class="cls-4" d="M513.38,1161.66c.33.59-10.28,7.19-22.02,17.09-11.74,9.9-20.1,19.18-20.6,18.72,1.31-2.43,2.99-4.64,4.97-6.56,4.41-4.94,9.18-9.57,14.25-13.83,5.07-4.25,10.44-8.15,16.05-11.66,2.26-1.6,4.74-2.87,7.35-3.76Z"/>
    <path class="cls-4" d="M471.67,1196.05c-9.52-1.09-18.09-6.3-23.44-14.25.46-.42,4.85,3.97,11.28,7.86,6.43,3.89,12.33,5.77,12.16,6.39Z"/>
    <path class="cls-4" d="M629.87,1143.11c0,.63-11.45-.79-25.53-1.55s-25.49-.71-25.53-1.34c8.48-1.41,17.1-1.69,25.66-.84,8.6.09,17.14,1.34,25.41,3.72Z"/>
    <path class="cls-4" d="M476.94,1215.44c.06.33.06.67,0,1l-.25,3.05c-.29,2.8-.67,6.69-1.17,11.53-1.09,10.24-2.67,24.7-4.64,42.54-4.18,36.02-9.86,85.45-16.13,140.11-.71,6.02-1.42,11.95-2.09,17.55v.46l-71.62,107.51-21.77,31.97-5.89,8.57c-.67.88-1.17,1.63-1.59,2.21-.18.26-.39.5-.63.71.12-.29.28-.57.46-.84l1.38-2.3,5.6-8.82,20.89-32.34,71.04-107.89v.46c.63-5.6,1.34-11.53,2.05-17.55,6.56-54.61,12.54-104.05,16.71-140.07,2.21-17.76,4.18-32.22,5.31-42.41.67-4.85,1.17-8.69,1.59-11.53,0-1.17.33-2.17.46-2.97.04-.34.14-.66.29-.96Z"/>
    <path class="cls-4" d="M425.21,650.75s-40.57,24.36-52.73,45.96-77.18,167.52-74.46,193.34c2.72,25.82,63.6,54.32,63.6,54.32l63.6-82.48-37.86-25.7,37.86-47.34v-138.1Z"/>
    <path class="cls-4" d="M490.73,629.73l-65.52,20.89s-29.75,282.64-44.63,323.21c-14.88,40.57-32.68,97.36-32.68,97.36,0,0,21.98,69.7,113.95,80.52,91.97,10.82,183.27-45.42,183.27-45.42,0,0,30-130.87,46.21-249.88,16.21-119.01,4.18-189.87,4.18-189.87l-103.13-39.74-101.66,2.92Z"/>
    <path class="cls-4" d="M361.61,944.38s147.34,29.25,200.82-33.97l-15.5-53.78s-97.32,23.02-127.74,13.12l-57.58,74.63Z"/>
    <path class="cls-3" d="M559.97,848.61s27.45-54.32,30.42-54.82,46.21-15.84,46.21-15.84c1.29,3.52,1.29,7.39,0,10.91l15.5,1.96s-2.3,9.57-7.6,10.91l5.64,4.93c-2.8,3.74-6.42,6.8-10.57,8.94-3.23,1.58-7.01,1.58-10.24,0,0,0,1.96,3.59-6.94,9.19s-26.87,31.63-26.87,31.63l-35.56-7.81Z"/>
    <path class="cls-9" d="M635.22,789.02c-9.13,4.41-18.59,8.1-28.29,11.03-3.93,1.42-7.9,2.47-10.99,3.97-2.73,1.33-4.98,3.47-6.43,6.14-2.59,4.64-3.55,8.02-3.93,7.9.16-3.05,1-6.02,2.47-8.69,1.46-3.12,3.89-5.67,6.94-7.27,3.62-1.64,7.35-3.03,11.16-4.18,9.45-3.72,19.17-6.69,29.08-8.9Z"/>
    <path class="cls-9" d="M645.29,801.72c-2.4,1.44-5.05,2.4-7.81,2.84-4.97,1.34-11.95,2.47-19.35,4.47-6.32,1.62-12.27,4.46-17.51,8.36-3.93,3.05-5.68,5.72-6.02,5.52.95-2.69,2.66-5.04,4.93-6.77,5.17-4.46,11.33-7.62,17.97-9.23,7.65-2.05,14.62-2.92,19.64-3.84,2.67-.69,5.4-1.14,8.15-1.34Z"/>
    <path class="cls-3" d="M605.68,824.54c2.56-3.45,6.21-5.93,10.36-7.02,3.91-1.85,8.36-2.25,12.54-1.13,0,.67-5.43,1.09-11.66,3.34s-10.82,5.35-11.24,4.81Z"/>
    <path class="cls-4" d="M671.66,664.83c-3.89,1.13-30.09,35.98-43.58,81.94-13.5,45.96-28.41,93.31-28.41,93.31l-4.18,16.34-167.14-40.82-37.23,49.85s108.22,94.1,188.03,97.61c39.64-3.47,75.29-25.51,96.11-59.42,35.18-58.12,56.83-129.83,56.83-129.83,0,0-2.3-126.11-60.42-108.98Z"/>
    <path class="cls-11" d="M420.36,776.19c.45-7.75,1.67-15.43,3.64-22.94,1.21-7.67,3.2-15.21,5.93-22.48-.45,7.75-1.67,15.43-3.64,22.94-1.21,7.67-3.2,15.21-5.93,22.48Z"/>
    <g class="cls-14">
      <path class="cls-1" d="M536.28,955.12c-8.73-3.68-17.09-8.65-26.45-10.07-11.37-1.71-20.89,1.67-32.22,3.43-33.89,5.31-59.13,1.25-91.09,0l-1.71,9.82c14.04,10.95,31.72,14.46,49.52,14.12,16.21-.29,32.05-5.56,48.22-5.1,12.79,1.02,25.41,3.54,37.61,7.52,20.6,5.43,42.12,8.82,63.18,5.64,52.98-7.98,81.36-57.2,90.17-76.63-7.04,9.6-14.58,18.82-22.61,27.62-33.85,34.97-86.66,35.43-114.62,23.65Z"/>
    </g>
    <path class="cls-13" d="M571.83,807.66c-7.13-1.24-14.12-3.14-20.89-5.68-7-1.91-13.79-4.51-20.27-7.77,7.14,1.18,14.14,3.08,20.89,5.68,7,1.89,13.79,4.49,20.27,7.77Z"/>
    <path class="cls-11" d="M699.16,858.68c-.02.33-.09.65-.21.96-.25.75-.54,1.67-.92,2.76-1.31,3.49-2.82,6.91-4.51,10.24-6.35,12.12-13.66,23.72-21.85,34.68-5.14,6.98-11.03,14.46-17.84,22.02-3.43,3.8-7.1,7.56-11.16,11.28-4.33,3.66-9.13,6.71-14.29,9.07-10.9,5.14-22.42,8.88-34.26,11.11-12.81,2.28-25.94,2.14-38.69-.42-12.64-2.66-24.97-6.59-36.81-11.74-5.85-2.17-11.32-5.01-16.71-7.44s-10.66-5.26-15.67-7.98c-17.83-9.73-35.02-20.57-51.48-32.47-14.04-10.07-25.07-18.93-32.3-25.07-3.68-3.13-6.48-5.64-8.36-7.35-1-.84-1.92-1.76-2.76-2.76.29.16.55.36.79.58l2.26,1.84,8.61,7.06c7.52,6.06,18.55,14.67,32.68,24.57,16.51,11.66,33.7,22.32,51.48,31.92,5.06,2.72,10.28,5.26,15.63,7.9s10.91,5.18,16.71,7.35c11.73,5.05,23.94,8.93,36.44,11.57,12.5,2.52,25.35,2.66,37.9.42,11.68-2.14,23.04-5.77,33.8-10.78,4.99-2.26,9.66-5.19,13.87-8.69,3.97-3.59,7.65-7.31,11.07-11.07,6.81-7.48,12.74-14.83,17.93-21.73,8.29-10.83,15.76-22.25,22.36-34.18,2.26-4.18,3.84-7.65,4.85-9.99.46-1.04.79-1.92,1.13-2.63.09-.36.2-.7.33-1.04Z"/>
    <path class="cls-11" d="M636.23,720.62c-.15.93-.36,1.85-.63,2.76l-2.13,7.86c-2.01,7.02-4.85,16.71-8.36,28.92-7.27,24.65-17.26,58.5-28.5,96.57l-.29,1-1.13-.29c-3.97-1-8.69-1.96-13.25-2.97-41.99-8.98-79.89-17.76-107.14-25.07-13.62-3.55-24.57-6.73-32.13-8.98l-8.61-2.76c-1.03-.27-2.02-.65-2.97-1.13,1.05.13,2.09.37,3.09.71l8.73,2.38c7.6,2.01,18.59,4.93,32.26,8.36,27.29,6.81,65.23,15.34,107.22,24.32,4.64,1.04,9.03,1.92,13.54,3.09l-1.42.71c11.49-37.98,21.73-71.79,29.25-96.4l8.9-28.75c1.04-3.22,1.88-5.77,2.55-7.73.23-.9.57-1.77,1-2.59Z"/>
    <path class="cls-11" d="M396.5,864.48l-47.64,1.75c-4.76,0-9.19-4.18-11.2-10.99l-37.31-130.66c-2.34-9.03,2.67-16.3,10.78-16.71l62.97-3.93c10.11,0,15.5,4.18,17.34,11.99l24.53,103.42c5.18,21.81-4.6,44.59-19.47,45.13Z"/>
    <path class="cls-3" d="M437.24,802.81l-12.54-26.83-20.89-6.94,6.35,25.61c-8.36,3.93-20.43,5.98-27.49,2.09-7.06-3.89-34.68-31.38-39.91-28.75s-9.86,8.94-5.1,14.96,30.67,24.74,25.32,30.29-35.18-18.72-43.96-16.92c-8.77,1.8-14.12,6.89-9.23,10.66s16.71,15.75,19.01,20.89c-.5,6.6-3.64,15.96-.75,17.55,7.02,3.36,14.39,5.93,21.98,7.65,7.78,2.4,15.44,5.19,22.94,8.36,11.5,4.66,24.31,4.95,36.02.84l5.98-2.09c9.3-3.26,15.48-12.08,15.38-21.94l-.21-19.76,7.1-15.67Z"/>
    <path class="cls-4" d="M405.28,796.62c-.88-2.03-1.55-4.15-2.01-6.31l-4.72-17.26c-1.96-7.48-4.18-16.25-6.73-25.91-1.25-4.87-2.55-9.97-3.89-15.29-1.5-5.18-2.09-11.24-5.68-15.17s-9.82-4.18-15.08-3.89l-15.71,1.21-26.7,1.88-17.97,1.13c-2.21.21-4.43.21-6.64,0,2.16-.47,4.35-.79,6.56-.96l17.97-1.75,26.66-2.38,15.75-1.34c2.79-.19,5.59-.06,8.36.38,3.17.44,6.11,1.9,8.36,4.18,2.03,2.29,3.46,5.05,4.18,8.02.79,2.8,1.38,5.47,2.09,8.15l3.76,15.34c2.34,9.69,4.43,18.47,6.27,25.99l4.18,17.59c.5,2.1.84,4.24,1,6.39Z"/>
    <path class="cls-13" d="M347.91,733.45c0,2.58-2.1,4.68-4.68,4.68-2.58,0-4.68-2.1-4.68-4.68,0-2.58,2.1-4.68,4.68-4.68h0c2.58,0,4.68,2.1,4.68,4.68Z"/>
    <path class="cls-3" d="M591.43,481.81c1.8-43.71-22.15-81.23-65.94-81.77h-4.18c-40.65,1.84-73.11,34.55-74.63,75.21-1.34,37.94-2.34,79.81-1.17,100.08,2.42,41.79,44.67,46.55,44.67,46.55l.46,14.37c.86,28.07,24.32,50.13,52.39,49.27,1.37-.04,2.74-.14,4.1-.29h0c25.86-2.91,45.35-24.87,45.17-50.89l-.88-152.52Z"/>
    <path class="cls-9" d="M490.23,622.17c19.41-.49,38.24-6.76,54.07-18.01,0,0-11.53,30.8-53.57,28.87l-.5-10.86Z"/>
    <path class="cls-11" d="M462.44,508.01c.09,3.24,2.77,5.81,6.02,5.77,3.14.14,5.79-2.29,5.93-5.43,0-.07,0-.14,0-.21-.09-3.25-2.77-5.83-6.02-5.81-3.16-.12-5.81,2.35-5.93,5.51,0,.06,0,.11,0,.17Z"/>
    <path class="cls-11" d="M456.01,493.55c.79.75,5.18-2.8,11.62-3.09s11.32,2.72,11.99,1.92-.5-1.75-2.63-3.18c-2.87-1.79-6.23-2.65-9.61-2.47-3.36.14-6.59,1.34-9.23,3.43-1.88,1.59-2.51,2.92-2.13,3.38Z"/>
    <path class="cls-11" d="M520.1,505.38c.09,3.24,2.77,5.81,6.02,5.77,3.16.12,5.81-2.35,5.93-5.51,0-.06,0-.11,0-.17-.11-3.23-2.78-5.79-6.02-5.77-3.16-.12-5.81,2.35-5.93,5.51,0,.06,0,.11,0,.17Z"/>
    <path class="cls-11" d="M520.19,488.92c.67.84,5.43-2.26,11.87-1.8s10.95,3.93,11.7,3.18-.29-1.75-2.26-3.38c-2.67-2.1-5.92-3.34-9.32-3.55-3.35-.21-6.68.64-9.53,2.42-2.05,1.3-2.84,2.67-2.47,3.13Z"/>
    <path class="cls-11" d="M498.92,542.94c-3.44-.91-6.97-1.39-10.53-1.42-1.67,0-3.26-.38-3.55-1.46-.25-1.7.06-3.42.88-4.93,1.34-4.18,2.76-8.36,4.18-12.74,5.98-18.18,10.2-33.05,9.49-33.43s-6.18,14.29-12.12,32.43c-1.42,4.51-2.8,8.77-4.18,12.83-.94,2.04-1.14,4.34-.58,6.52.55,1.15,1.6,1.98,2.84,2.26.92.21,1.86.31,2.8.29,3.59.32,7.21.21,10.78-.33Z"/>
    <path class="cls-11" d="M518.02,461.05c.71,1.75,7.1.63,14.71,1.17s13.83,2.38,14.75.75c.42-.75-.71-2.38-3.26-3.97-6.86-3.91-15.14-4.43-22.44-1.42-2.55,1.21-4.05,2.67-3.76,3.47Z"/>
    <path class="cls-11" d="M456.84,480.81c1.21,1.42,5.6-.29,10.91-.63s9.9.54,10.91-1.04c.42-.75-.38-2.17-2.42-3.47-2.71-1.6-5.85-2.3-8.98-2.01-3.13.21-6.12,1.37-8.57,3.34-1.8,1.59-2.38,3.13-1.84,3.8Z"/>
    <path class="cls-13" d="M518.1,546.54c-1.04,0-.75,6.98-6.52,12.2s-13.25,4.81-13.25,5.81,1.71,1.25,4.89,1.21c4.1-.13,8.02-1.7,11.07-4.43,2.92-2.64,4.72-6.31,5.01-10.24.13-2.93-.75-4.64-1.21-4.55Z"/>
    <path class="cls-11" d="M440.36,391.68c14.88-5.02,31.23,7.81,46.68,4.32,9.41-2.1,16.35-9.78,24.63-14.63,6.48-3.75,13.75-5.97,21.24-6.49,7.49-.52,14.99.67,21.91,3.49,12.99,5.83,21.27,12.63,23.6,26.63,11.48-6.99,31.41,6.86,38.42,20.63,7.01,13.76,5.75,28.23,2.23,43.37-5.78,26.01-16.67,50.68-32.06,72.62-1.36,1.96-3.55,4.1-5.75,3.19-.7-.44-1.28-1.04-1.69-1.75-.41-.71-.65-1.5-.68-2.32-2.63-13.62-1.21-27.61-.41-41.48.81-13.87,1.02-28.08-3.78-41.12-4.8-13.04-15.56-24.62-29.49-26.91-10.44-1.11-20.96,1.45-29.69,7.22-8.96,5.29-16.74,12.25-25.22,18.2-8.21,6.44-18.05,10.54-28.45,11.88-10.38.78-21.65-3.72-26.33-12.83-4.68-9.11-.09-22.44,10.05-24.87-4.72-.3-9.18-2.19-12.63-5.36-3.45-3.17-5.67-7.42-6.28-12.03-.62-4.61.41-9.3,2.9-13.26,2.5-3.97,6.3-6.97,10.78-8.49Z"/>
    <path class="cls-11" d="M460.34,424.87c3.93-7.58,9.7-14.08,16.81-18.93,14.91-11.19,33.01-17.48,51.72-17.96,18.78-.37,36.93,6.44,50.63,19.02,10.54,10.4,17.74,23.62,20.69,38.04,3.53,15.7,4.11,31.91,1.74,47.84-1.18,6.3-4.83,8.58-9.36,13.2-2.83,2.89-7.68,4.92-10.9,2.31-1.72-1.66-2.82-3.83-3.13-6.19-5.08-20.74-9.98-43.04-2.19-62.95-4.94-6.91-11.3-12.72-18.67-17.06-3.68-2.16-7.77-3.58-12.02-4.17-4.25-.59-8.59-.34-12.75.73-12.23,3.64-19.79,15.25-29.56,23.34-7.07,5.71-15.41,9.69-24.34,11.62-8.92,1.93-18.17,1.75-26.99-.53l8.32-28.31Z"/>
    <path class="cls-2" d="M621.21,459.5c-.04-.3-2.96.03-7.56-.27-12.09-.86-23.41-6.08-31.78-14.67-3.17-3.38-4.7-5.7-4.99-5.54.93,2.36,2.32,4.52,4.09,6.36,4.04,4.64,9.03,8.39,14.65,11,5.62,2.61,11.74,4.01,17.97,4.13,2.58.16,5.17-.18,7.61-1Z"/>
    <path class="cls-2" d="M619.14,467.42c-.04-.3-2.92.03-7.52-.28-12.09-.83-23.42-6.06-31.77-14.67-3.21-3.38-4.7-5.7-4.99-5.54.91,2.37,2.3,4.54,4.09,6.36,4.04,4.64,9.03,8.39,14.65,11,5.62,2.61,11.74,4.01,17.97,4.13,2.56.14,5.13-.2,7.58-.99Z"/>
    <path class="cls-3" d="M589.43,513.03c.71-.33,28.41-9.82,28.79,18.89.38,28.71-28.5,23.19-28.58,22.36s-.21-41.24-.21-41.24Z"/>
    <path class="cls-9" d="M598.29,543.24s.5.33,1.34.71c1.21.49,2.56.49,3.76,0,3.71-2.48,5.83-6.74,5.56-11.2.04-2.46-.47-4.91-1.5-7.15-.55-1.81-1.98-3.23-3.8-3.76-1.18-.3-2.4.28-2.92,1.38-.38.84,0,1.38-.33,1.46s-.63-.5-.42-1.67c.17-.72.56-1.36,1.13-1.84.79-.59,1.78-.86,2.76-.75,2.4.44,4.4,2.1,5.26,4.39,1.25,2.47,1.88,5.21,1.84,7.98.38,5.24-2.44,10.19-7.15,12.54-1.55.47-3.22.21-4.55-.71-.92-.63-1.09-1.38-.96-1.38Z"/>
  </g>
  <g id="freepik--Floor--inject-356">
    <path class="cls-11" d="M1759.05,1907.37c0,.59-369.93,1.09-826.1,1.09s-826.18-.5-826.18-1.09,369.84-1.09,826.18-1.09,826.1.5,826.1,1.09Z"/>
  </g>
</svg>
