<?xml version="1.0" encoding="UTF-8"?>
<svg id="Layer_1" data-name="Layer 1" xmlns="http://www.w3.org/2000/svg" viewBox="0 0 1956.82 1282">
  <defs>
    <style>
      .cls-1 {
        fill: #000;
      }

      .cls-1, .cls-2, .cls-3, .cls-4, .cls-5, .cls-6, .cls-7, .cls-8, .cls-9, .cls-10 {
        stroke-width: 0px;
      }

      .cls-2 {
        fill: #e0e0e0;
      }

      .cls-3 {
        fill: #455a64;
      }

      .cls-4 {
        fill: #f5f5f5;
      }

      .cls-5 {
        fill: #09f;
      }

      .cls-6 {
        fill: #ebebeb;
      }

      .cls-7 {
        fill: #e2323d;
      }

      .cls-8 {
        fill: #263238;
      }

      .cls-9 {
        fill: #fafafa;
      }

      .cls-11 {
        opacity: .3;
      }

      .cls-10 {
        fill: #fff;
      }
    </style>
  </defs>
  <g>
    <path class="cls-6" d="M1953.01,764.24h-152.97l-.67-277.39h153l.64,277.39Z"/>
    <path class="cls-2" d="M1952.37,486.85h-76.5v277.39h76.5v-277.39Z"/>
    <path class="cls-6" d="M1870.86,439.45h-54.01v47.4h54.01v-47.4Z"/>
    <path class="cls-2" d="M1870.86,439.45h-12.88v47.4h12.88v-47.4Z"/>
    <path class="cls-2" d="M1956.82,484.08h-162.03v2.77h162.03v-2.77Z"/>
    <path class="cls-10" d="M1842.54,507.53h-12.97v27.21h12.97v-27.21Z"/>
    <path class="cls-2" d="M1875.9,545.4c0,.29-17.13.53-38.25.53s-38.25-.23-38.25-.53,17.13-.52,38.25-.52,38.25.29,38.25.52Z"/>
    <path class="cls-4" d="M1919.65,507.53h-12.94v27.21h12.94v-27.21Z"/>
    <path class="cls-6" d="M1953.01,545.4c0,.29-17.1.53-38.22.53s-38.25-.23-38.25-.53,17.1-.52,38.25-.52,38.22.29,38.22.52Z"/>
    <path class="cls-4" d="M1919.65,561.54h-12.94v27.21h12.94v-27.21Z"/>
    <path class="cls-6" d="M1953.01,599.41c0,.26-17.1.49-38.22.49s-38.25-.23-38.25-.49,17.1-.53,38.25-.53,38.22.23,38.22.53Z"/>
    <path class="cls-4" d="M1919.65,617.16h-12.94v27.21h12.94v-27.21Z"/>
    <path class="cls-6" d="M1953.01,655.02c0,.29-17.1.53-38.22.53s-38.25-.23-38.25-.53,17.1-.52,38.25-.52,38.22.23,38.22.52Z"/>
    <path class="cls-4" d="M1919.65,672.8h-12.94v27.21h12.94v-27.21Z"/>
    <path class="cls-6" d="M1953.01,710.67c0,.26-17.1.49-38.22.49s-38.25-.23-38.25-.49,17.1-.53,38.25-.53,38.22.23,38.22.53Z"/>
    <path class="cls-10" d="M1842.54,562.36h-12.97v27.21h12.97v-27.21Z"/>
    <path class="cls-2" d="M1875.9,600.23c0,.29-17.13.53-38.25.53s-38.25-.23-38.25-.53,17.13-.52,38.25-.52,38.25.23,38.25.52Z"/>
    <path class="cls-10" d="M1842.54,617.18h-12.97v27.21h12.97v-27.21Z"/>
    <path class="cls-2" d="M1875.9,655.06c0,.29-17.13.53-38.25.53s-38.25-.23-38.25-.53,17.13-.52,38.25-.52,38.25.23,38.25.52Z"/>
    <path class="cls-10" d="M1842.54,672.01h-12.97v27.21h12.97v-27.21Z"/>
    <path class="cls-2" d="M1875.9,709.88c0,.26-17.13.49-38.25.49s-38.25-.23-38.25-.49,17.13-.53,38.25-.53,38.25.23,38.25.53Z"/>
    <path class="cls-4" d="M582.19,52.93h-170.16v710.78h170.16V52.93Z"/>
    <path class="cls-6" d="M582.19,52.93h-85.1v709.04h85.1V52.93Z"/>
    <path class="cls-4" d="M491.56,0h-60.1v52.93h60.1V0Z"/>
    <path class="cls-6" d="M491.56,0h-14.33v52.93h14.33V0Z"/>
    <path class="cls-2" d="M397.84,52.93v-3.09h189.33v3.09"/>
    <path class="cls-9" d="M460.01,76.03h-14.39v30.38h14.39v-30.38Z"/>
    <path class="cls-2" d="M497.09,118.33c0,.32-19.02.58-42.53.58s-42.53-.26-42.53-.58,19.05-.58,42.53-.58,42.53.26,42.53.58Z"/>
    <path class="cls-2" d="M545.83,76.03h-14.39v30.38h14.39v-30.38Z"/>
    <path class="cls-2" d="M582.94,118.33c0,.32-19.05.58-42.56.58s-42.53-.26-42.53-.58,19.05-.58,42.53-.58,42.56.26,42.56.58Z"/>
    <path class="cls-2" d="M545.83,136.34h-14.39v30.38h14.39v-30.38Z"/>
    <path class="cls-2" d="M582.94,178.64c0,.32-19.05.58-42.56.58s-42.53-.26-42.53-.58,19.05-.58,42.53-.58,42.56.26,42.56.58Z"/>
    <path class="cls-2" d="M545.83,198.44h-14.39v30.38h14.39v-30.38Z"/>
    <path class="cls-2" d="M582.94,240.74c0,.32-19.05.58-42.56.58s-42.53-.26-42.53-.58,19.05-.58,42.53-.58,42.56.26,42.56.58Z"/>
    <path class="cls-2" d="M545.83,260.58h-14.39v30.38h14.39v-30.38Z"/>
    <path class="cls-2" d="M582.94,302.85c0,.32-19.05.58-42.56.58s-42.53-.26-42.53-.58,19.05-.58,42.53-.58,42.56.26,42.56.58Z"/>
    <path class="cls-2" d="M545.83,320.91h-14.39v30.39h14.39v-30.39Z"/>
    <path class="cls-2" d="M582.94,363.21c0,.32-19.05.58-42.56.58s-42.53-.26-42.53-.58,19.05-.58,42.53-.58,42.56.26,42.56.58Z"/>
    <path class="cls-2" d="M545.83,381.51h-14.39v30.38h14.39v-30.38Z"/>
    <path class="cls-2" d="M545.83,442.89h-14.39v30.39h14.39v-30.39Z"/>
    <path class="cls-2" d="M582.94,423.78c0,.32-19.05.58-42.56.58s-42.53-.26-42.53-.58,19.05-.55,42.53-.55,42.56.23,42.56.55Z"/>
    <path class="cls-9" d="M460.01,137.24h-14.39v30.38h14.39v-30.38Z"/>
    <path class="cls-2" d="M497.09,179.54c0,.32-19.02.58-42.53.58s-42.53-.26-42.53-.58,19.05-.58,42.53-.58,42.53.26,42.53.58Z"/>
    <path class="cls-9" d="M460.01,198.47h-14.39v30.38h14.39v-30.38Z"/>
    <path class="cls-2" d="M497.09,240.77c0,.32-19.02.58-42.53.58s-42.53-.26-42.53-.58,19.05-.58,42.53-.58,42.53.26,42.53.58Z"/>
    <path class="cls-9" d="M460.01,259.68h-14.39v30.38h14.39v-30.38Z"/>
    <path class="cls-2" d="M497.09,301.98c0,.32-19.02.58-42.53.58s-42.53-.26-42.53-.58,19.05-.58,42.53-.58,42.53.26,42.53.58Z"/>
    <path class="cls-9" d="M460.01,320.91h-14.39v30.39h14.39v-30.39Z"/>
    <path class="cls-2" d="M497.09,363.21c0,.32-19.02.58-42.53.58s-42.53-.26-42.53-.58,19.05-.58,42.53-.58,42.53.26,42.53.58Z"/>
    <path class="cls-9" d="M460.01,382.12h-14.39v30.38h14.39v-30.38Z"/>
    <path class="cls-2" d="M497.09,424.42c0,.32-19.02.58-42.53.58s-42.53-.26-42.53-.58,19.05-.58,42.53-.58,42.53.26,42.53.58Z"/>
    <path class="cls-9" d="M460.01,443.35h-14.39v30.38h14.39v-30.38Z"/>
    <path class="cls-4" d="M260.48,225.92H90.33v539.29h170.16V225.92Z"/>
    <path class="cls-6" d="M260.51,225.92h-85.09v537.8h85.09V225.92Z"/>
    <path class="cls-4" d="M169.86,172.99h-60.1v52.93h60.1v-52.93Z"/>
    <path class="cls-6" d="M169.86,172.99h-14.33v52.93h14.33v-52.93Z"/>
    <path class="cls-2" d="M76.14,225.92v-3.09h189.36v3.09"/>
    <path class="cls-9" d="M138.31,249.02h-14.39v30.38h14.39v-30.38Z"/>
    <path class="cls-2" d="M175.42,291.32c0,.32-19.05.58-42.53.58s-42.56-.26-42.56-.58,19.05-.58,42.56-.58,42.53.26,42.53.58Z"/>
    <path class="cls-2" d="M224.13,249.02h-14.39v30.38h14.39v-30.38Z"/>
    <path class="cls-2" d="M261.24,291.32c0,.32-19.05.58-42.53.58s-42.56-.26-42.56-.58,19.05-.58,42.56-.58,42.53.26,42.53.58Z"/>
    <path class="cls-2" d="M224.13,309.32h-14.39v30.38h14.39v-30.38Z"/>
    <path class="cls-2" d="M261.24,351.62c0,.32-19.05.58-42.53.58s-42.56-.26-42.56-.58,19.05-.58,42.56-.58,42.53.26,42.53.58Z"/>
    <path class="cls-2" d="M224.13,371.43h-14.39v30.38h14.39v-30.38Z"/>
    <path class="cls-2" d="M261.24,413.73c0,.32-19.05.58-42.53.58s-42.56-.26-42.56-.58,19.05-.58,42.56-.58,42.53.26,42.53.58Z"/>
    <path class="cls-2" d="M224.13,433.57h-14.39v30.39h14.39v-30.39Z"/>
    <path class="cls-2" d="M261.24,475.84c0,.32-19.05.58-42.53.58s-42.56-.26-42.56-.58,19.05-.58,42.56-.58,42.53.26,42.53.58Z"/>
    <path class="cls-2" d="M224.13,493.9h-14.39v30.38h14.39v-30.38Z"/>
    <path class="cls-2" d="M261.24,536.2c0,.32-19.05.58-42.53.58s-42.56-.26-42.56-.58,19.05-.58,42.56-.58,42.53.26,42.53.58Z"/>
    <path class="cls-2" d="M224.13,554.5h-14.39v30.38h14.39v-30.38Z"/>
    <path class="cls-2" d="M224.13,615.87h-14.39v30.38h14.39v-30.38Z"/>
    <path class="cls-2" d="M261.24,596.76c0,.32-19.05.58-42.53.58s-42.56-.26-42.56-.58,19.05-.55,42.56-.55,42.53.26,42.53.55Z"/>
    <path class="cls-9" d="M138.31,310.22h-14.39v30.38h14.39v-30.38Z"/>
    <path class="cls-2" d="M175.42,352.52c0,.32-19.05.58-42.53.58s-42.56-.26-42.56-.58,19.05-.58,42.56-.58,42.53.26,42.53.58Z"/>
    <path class="cls-9" d="M138.31,371.46h-14.39v30.39h14.39v-30.39Z"/>
    <path class="cls-2" d="M175.42,413.76c0,.32-19.05.58-42.53.58s-42.56-.26-42.56-.58,19.05-.58,42.56-.58,42.53.26,42.53.58Z"/>
    <path class="cls-9" d="M138.31,432.69h-14.39v30.38h14.39v-30.38Z"/>
    <path class="cls-2" d="M175.42,474.96c0,.32-19.05.58-42.53.58s-42.56-.26-42.56-.58,19.05-.58,42.56-.58,42.53.26,42.53.58Z"/>
    <path class="cls-9" d="M138.31,493.9h-14.39v30.38h14.39v-30.38Z"/>
    <path class="cls-2" d="M175.42,536.2c0,.32-19.05.58-42.53.58s-42.56-.26-42.56-.58,19.05-.58,42.56-.58,42.53.26,42.53.58Z"/>
    <path class="cls-9" d="M138.31,555.13h-14.39v30.38h14.39v-30.38Z"/>
    <path class="cls-2" d="M175.42,597.4c0,.32-19.05.58-42.53.58s-42.56-.26-42.56-.58,19.05-.58,42.56-.58,42.53.26,42.53.58Z"/>
    <path class="cls-9" d="M138.31,616.34h-14.39v30.39h14.39v-30.39Z"/>
    <path class="cls-4" d="M1632.76,65.84h-129.61v410.79h129.61V65.84Z"/>
    <path class="cls-6" d="M1632.79,65.84h-64.82v409.68h64.82V65.84Z"/>
    <path class="cls-4" d="M1563.72,25.49h-45.77v40.32h45.77V25.49Z"/>
    <path class="cls-6" d="M1563.72,25.49h-10.9v40.32h10.9V25.49Z"/>
    <path class="cls-2" d="M1492.35,65.84v-2.36h144.23v2.36"/>
    <path class="cls-9" d="M1539.72,83.4h-10.98v23.13h10.98v-23.13Z"/>
    <path class="cls-2" d="M1567.97,115.63c0,.26-14.57.44-32.4.44s-32.42-.17-32.42-.44,14.56-.44,32.42-.44,32.4.2,32.4.44Z"/>
    <path class="cls-2" d="M1605.12,83.4h-10.98v23.13h10.98v-23.13Z"/>
    <path class="cls-2" d="M1633.34,115.63c0,.26-14.56.44-32.39.44s-32.42-.17-32.42-.44,14.57-.44,32.42-.44,32.39.2,32.39.44Z"/>
    <path class="cls-2" d="M1605.12,129.34h-10.98v23.13h10.98v-23.13Z"/>
    <path class="cls-2" d="M1633.34,161.57c0,.23-14.56.44-32.39.44s-32.42-.2-32.42-.44,14.57-.44,32.42-.44,32.39.2,32.39.44Z"/>
    <path class="cls-2" d="M1605.12,176.65h-10.98v23.13h10.98v-23.13Z"/>
    <path class="cls-2" d="M1633.34,208.87c0,.26-14.56.44-32.39.44s-32.42-.17-32.42-.44,14.57-.44,32.42-.44,32.39.2,32.39.44Z"/>
    <path class="cls-2" d="M1605.12,223.99h-10.98v23.13h10.98v-23.13Z"/>
    <path class="cls-2" d="M1633.34,256.21c0,.23-14.56.44-32.39.44s-32.42-.2-32.42-.44,14.57-.47,32.42-.47,32.39.2,32.39.47Z"/>
    <path class="cls-2" d="M1605.12,269.96h-10.98v23.13h10.98v-23.13Z"/>
    <path class="cls-2" d="M1633.34,302.16c0,.26-14.56.47-32.39.47s-32.42-.2-32.42-.47,14.57-.44,32.42-.44,32.39.2,32.39.44Z"/>
    <path class="cls-2" d="M1605.12,316.11h-10.98v23.13h10.98v-23.13Z"/>
    <path class="cls-2" d="M1605.12,362.87h-10.98v23.13h10.98v-23.13Z"/>
    <path class="cls-2" d="M1633.34,348.33c0,.23-14.56.44-32.39.44s-32.42-.2-32.42-.44,14.57-.47,32.42-.47,32.39.21,32.39.47Z"/>
    <path class="cls-9" d="M1539.72,130.04h-10.98v23.13h10.98v-23.13Z"/>
    <path class="cls-2" d="M1567.97,162.26c0,.23-14.57.44-32.4.44s-32.42-.2-32.42-.44,14.56-.44,32.42-.44,32.4.2,32.4.44Z"/>
    <path class="cls-9" d="M1539.72,176.68h-10.98v23.13h10.98v-23.13Z"/>
    <path class="cls-2" d="M1567.97,208.9c0,.23-14.57.44-32.4.44s-32.42-.2-32.42-.44,14.56-.44,32.42-.44,32.4.2,32.4.44Z"/>
    <path class="cls-9" d="M1539.72,223.32h-10.98v23.13h10.98v-23.13Z"/>
    <path class="cls-2" d="M1567.97,255.54c0,.23-14.57.44-32.4.44s-32.42-.2-32.42-.44,14.56-.44,32.42-.44,32.4.17,32.4.44Z"/>
    <path class="cls-9" d="M1539.72,269.96h-10.98v23.13h10.98v-23.13Z"/>
    <path class="cls-2" d="M1567.97,302.16c0,.26-14.57.47-32.4.47s-32.42-.2-32.42-.47,14.56-.44,32.42-.44,32.4.2,32.4.44Z"/>
    <path class="cls-9" d="M1539.72,316.57h-10.98v23.13h10.98v-23.13Z"/>
    <path class="cls-2" d="M1567.97,348.79c0,.26-14.57.44-32.4.44s-32.42-.18-32.42-.44,14.56-.44,32.42-.44,32.4.2,32.4.44Z"/>
    <path class="cls-9" d="M1539.72,363.21h-10.98v23.13h10.98v-23.13Z"/>
    <path class="cls-4" d="M1782.5,262.89h-158.21v501.38h158.21v-501.38Z"/>
    <path class="cls-6" d="M1782.5,262.89h-79.09v499.99h79.09v-499.99Z"/>
    <path class="cls-4" d="M1698.22,213.65h-55.87v49.23h55.87v-49.23Z"/>
    <path class="cls-6" d="M1698.22,213.65h-13.31v49.23h13.31v-49.23Z"/>
    <path class="cls-2" d="M1611.12,262.89v-2.88h176.01v2.88"/>
    <path class="cls-9" d="M1668.91,284.35h-13.4v28.23h13.4v-28.23Z"/>
    <path class="cls-2" d="M1703.41,323.77c0,.29-17.71.52-39.56.52s-39.56-.23-39.56-.52,17.71-.55,39.56-.55,39.56.15,39.56.55Z"/>
    <path class="cls-2" d="M1748.71,284.35h-13.4v28.23h13.4v-28.23Z"/>
    <path class="cls-2" d="M1783.2,323.77c0,.29-17.71.52-39.56.52s-39.62-.32-39.62-.52,17.71-.55,39.56-.55,39.62.15,39.62.55Z"/>
    <path class="cls-2" d="M1748.71,340.4h-13.4v28.23h13.4v-28.23Z"/>
    <path class="cls-2" d="M1783.2,379.73c0,.29-17.71.52-39.56.52s-39.56-.23-39.56-.52,17.71-.55,39.56-.55,39.56.26,39.56.55Z"/>
    <path class="cls-2" d="M1748.71,398.17h-13.4v28.23h13.4v-28.23Z"/>
    <path class="cls-2" d="M1783.2,437.38c0,.32-17.71.55-39.56.55s-39.62-.14-39.62-.55,17.71-.52,39.56-.52,39.62.32,39.62.52Z"/>
    <path class="cls-2" d="M1748.71,455.91h-13.4v28.23h13.4v-28.23Z"/>
    <path class="cls-2" d="M1783.2,495.24c0,.29-17.71.52-39.56.52s-39.62-.12-39.62-.52,17.71-.56,39.56-.56,39.62.26,39.62.56Z"/>
    <path class="cls-2" d="M1748.71,512.02h-13.4v28.23h13.4v-28.23Z"/>
    <path class="cls-2" d="M1783.2,551.35c0,.29-17.71.52-39.56.52s-39.56-.23-39.56-.52,17.71-.56,39.56-.56,39.56.21,39.56.56Z"/>
    <path class="cls-2" d="M1748.71,568.33h-13.4v28.23h13.4v-28.23Z"/>
    <path class="cls-2" d="M1748.71,625.4h-13.4v28.23h13.4v-28.23Z"/>
    <path class="cls-2" d="M1783.2,607.66c0,.29-17.71.56-39.56.56s-39.56-.26-39.56-.56,17.71-.52,39.56-.52,39.56.23,39.56.52Z"/>
    <path class="cls-9" d="M1668.91,341.28h-13.4v28.23h13.4v-28.23Z"/>
    <path class="cls-2" d="M1703.41,380.58c0,.32-17.71.55-39.56.55s-39.56-.23-39.56-.55,17.71-.53,39.56-.53,39.56.23,39.56.53Z"/>
    <path class="cls-9" d="M1668.91,398.17h-13.4v28.23h13.4v-28.23Z"/>
    <path class="cls-2" d="M1703.41,437.38c0,.29-17.71.55-39.56.55s-39.56-.26-39.56-.55,17.71-.52,39.56-.52,39.56.35,39.56.52Z"/>
    <path class="cls-9" d="M1668.91,455.09h-13.4v28.23h13.4v-28.23Z"/>
    <path class="cls-2" d="M1703.41,494.42c0,.29-17.71.53-39.56.53s-39.56-.23-39.56-.53,17.71-.55,39.56-.55,39.56.26,39.56.55Z"/>
    <path class="cls-9" d="M1668.91,512.02h-13.4v28.23h13.4v-28.23Z"/>
    <path class="cls-2" d="M1703.41,551.35c0,.29-17.71.52-39.56.52s-39.56-.23-39.56-.52,17.71-.56,39.56-.56,39.56.21,39.56.56Z"/>
    <path class="cls-9" d="M1668.91,568.94h-13.4v28.23h13.4v-28.23Z"/>
    <path class="cls-2" d="M1703.41,608.24c0,.32-17.71.55-39.56.55s-39.56-.23-39.56-.55,17.71-.52,39.56-.52,39.56.23,39.56.52Z"/>
    <path class="cls-9" d="M1668.91,625.84h-13.4v28.23h13.4v-28.23Z"/>
    <path class="cls-6" d="M1628.13,406.07h-271.57v358.17h271.57v-358.17Z"/>
    <path class="cls-2" d="M1628.13,406.07h-127.33v358.17h127.33v-358.17Z"/>
    <path class="cls-4" d="M1437.93,454.54h-24.41v59.31h24.41v-59.31Z"/>
    <path class="cls-4" d="M1437.93,686.72h-24.41v59.31h24.41v-59.31Z"/>
    <path class="cls-4" d="M1500.8,537.16c0,.67-32.28,1.19-72.1,1.19s-72.13-.52-72.13-1.19,32.28-1.2,72.13-1.2,72.1.47,72.1,1.2Z"/>
    <path class="cls-4" d="M1437.93,571.53h-24.41v59.31h24.41v-59.31Z"/>
    <path class="cls-4" d="M1500.8,654.12c0,.67-32.28,1.23-72.1,1.23s-72.13-.55-72.13-1.23,32.28-1.19,72.13-1.19,72.1.52,72.1,1.19Z"/>
    <path class="cls-4" d="M1552.24,454.54h-24.41v59.31h24.41v-59.31Z"/>
    <path class="cls-4" d="M1605.23,454.54h-24.41v59.31h24.41v-59.31Z"/>
    <path class="cls-4" d="M1552.24,567.14h-24.41v59.31h24.41v-59.31Z"/>
    <path class="cls-4" d="M1605.23,567.14h-24.41v59.31h24.41v-59.31Z"/>
    <path class="cls-4" d="M1552.24,679.7h-24.41v59.31h24.41v-59.31Z"/>
    <path class="cls-4" d="M1605.23,679.7h-24.41v59.31h24.41v-59.31Z"/>
    <path class="cls-2" d="M1648.52,393.6h-312.38v12.9h312.38v-12.9Z"/>
    <path class="cls-6" d="M1630.02,407.73c0,.67-60.68,1.2-135.55,1.2s-135.55-.53-135.55-1.2,60.68-1.2,135.55-1.2,135.55.53,135.55,1.2Z"/>
    <path class="cls-6" d="M539.6,763.02h-250.42l-1.08-395.72h250.39l1.11,395.72Z"/>
    <path class="cls-2" d="M538.49,367.3h-125.21v395.75h125.21v-395.75Z"/>
    <path class="cls-6" d="M405.09,289.36h-88.41v77.9h88.41v-77.9Z"/>
    <path class="cls-2" d="M405.09,289.36h-21.06v77.9h21.06v-77.9Z"/>
    <path class="cls-2" d="M545.8,362.75h-278.59v4.54h278.59v-4.54Z"/>
    <path class="cls-10" d="M358.72,401.26h-21.21v44.69h21.21v-44.69Z"/>
    <path class="cls-2" d="M413.28,463.6c0,.47-28.02.88-62.57.88s-62.49-.53-62.49-.88,28-.84,62.6-.84,62.46.26,62.46.84Z"/>
    <path class="cls-4" d="M485,401.26h-21.21v44.69h21.21v-44.69Z"/>
    <path class="cls-6" d="M539.6,463.6c0,.47-28.06.88-62.61.88s-62.6-.41-62.6-.88,28.02-.84,62.6-.84,62.61.26,62.61.84Z"/>
    <path class="cls-4" d="M485,489.99h-21.21v44.69h21.21v-44.69Z"/>
    <path class="cls-6" d="M539.6,552.22c0,.47-28.06.88-62.61.88s-62.6-.41-62.6-.88,28.02-.84,62.6-.84,62.61.38,62.61.84Z"/>
    <path class="cls-4" d="M485,581.41h-21.21v44.69h21.21v-44.69Z"/>
    <path class="cls-6" d="M539.6,643.64c0,.46-28.06.84-62.61.84s-62.6-.38-62.6-.84,28.02-.84,62.6-.84,62.61.38,62.61.84Z"/>
    <path class="cls-4" d="M485,672.83h-21.21v44.69h21.21v-44.69Z"/>
    <path class="cls-6" d="M539.6,735.05c0,.46-28.06.84-62.61.84s-62.6-.38-62.6-.84,28.02-.84,62.6-.84,62.61.32,62.61.84Z"/>
    <path class="cls-10" d="M358.72,491.33h-21.21v44.69h21.21v-44.69Z"/>
    <path class="cls-2" d="M413.28,553.59c0,.47-28.02.84-62.57.84s-62.6-.38-62.6-.84,28-.87,62.6-.87,62.57.41,62.57.87Z"/>
    <path class="cls-10" d="M358.72,581.44h-21.21v44.69h21.21v-44.69Z"/>
    <path class="cls-2" d="M413.28,643.67c0,.47-28.02.84-62.57.84s-62.49-.29-62.49-.84,28-.84,62.6-.84,62.46.38,62.46.84Z"/>
    <path class="cls-10" d="M358.72,671.51h-21.21v44.69h21.21v-44.69Z"/>
    <path class="cls-2" d="M413.28,733.77c0,.47-28.02.84-62.57.84s-62.49-.38-62.49-.84,28-.87,62.6-.87,62.46.38,62.46.87Z"/>
    <path class="cls-6" d="M790.01,561.43h-209.78l-.93-330.27h209.81l.9,330.27Z"/>
    <path class="cls-2" d="M789.11,231.16h-104.9v330.27h104.9V231.16Z"/>
    <path class="cls-6" d="M677.36,166.14h-74.08v65.02h74.08v-65.02Z"/>
    <path class="cls-2" d="M677.36,166.14h-17.65v65.02h17.65v-65.02Z"/>
    <path class="cls-2" d="M795.25,227.37h-233.43v3.79h233.43v-3.79Z"/>
    <path class="cls-10" d="M638.5,259.5h-17.77v37.29h17.77v-37.29Z"/>
    <path class="cls-2" d="M684.21,311.45c0,.41-23.48.73-52.44.73s-52.43-.32-52.43-.73,23.48-.7,52.43-.7,52.44.32,52.44.7Z"/>
    <path class="cls-4" d="M744.3,259.5h-17.77v37.29h17.77v-37.29Z"/>
    <path class="cls-6" d="M790.04,311.45c0,.41-23.51.73-52.44.73s-52.43-.32-52.43-.73,23.48-.7,52.43-.7,52.44.32,52.44.7Z"/>
    <path class="cls-4" d="M744.3,333.56h-17.77v37.29h17.77v-37.29Z"/>
    <path class="cls-6" d="M790.04,385.5c0,.41-23.51.73-52.44.73s-52.43-.32-52.43-.73,23.48-.7,52.43-.7,52.44.32,52.44.7Z"/>
    <path class="cls-4" d="M744.3,409.85h-17.77v37.29h17.77v-37.29Z"/>
    <path class="cls-6" d="M790.04,461.8c0,.38-23.51.7-52.44.7s-52.43-.32-52.43-.7,23.48-.7,52.43-.7,52.44.29,52.44.7Z"/>
    <path class="cls-4" d="M744.3,486.15h-17.77v37.29h17.77v-37.29Z"/>
    <path class="cls-6" d="M790.04,538.09c0,.38-23.51.7-52.44.7s-52.43-.32-52.43-.7,23.48-.73,52.43-.73,52.44.32,52.44.73Z"/>
    <path class="cls-10" d="M638.5,334.69h-17.77v37.29h17.77v-37.29Z"/>
    <path class="cls-2" d="M684.21,386.64c0,.41-23.48.73-52.44.73s-52.43-.32-52.43-.73,23.48-.7,52.43-.7,52.44.32,52.44.7Z"/>
    <path class="cls-10" d="M638.5,409.88h-17.77v37.29h17.77v-37.29Z"/>
    <path class="cls-2" d="M684.21,461.82c0,.38-23.48.7-52.44.7s-52.43-.32-52.43-.7,23.48-.73,52.43-.73,52.44.32,52.44.73Z"/>
    <path class="cls-10" d="M638.5,485.07h-17.77v37.29h17.77v-37.29Z"/>
    <path class="cls-2" d="M684.21,537.01c0,.38-23.48.7-52.44.7s-52.43-.32-52.43-.7,23.48-.73,52.43-.73,52.44.32,52.44.73Z"/>
    <path class="cls-6" d="M1412.7,709.36h-209.81l-.9-512.69h209.81l.9,512.69Z"/>
    <path class="cls-2" d="M1411.8,196.67h-104.9v512.66h104.9V196.67Z"/>
    <path class="cls-6" d="M1300.02,131.65h-74.08v65.02h74.08v-65.02Z"/>
    <path class="cls-2" d="M1300.02,131.65h-17.65v65.02h17.65v-65.02Z"/>
    <path class="cls-2" d="M1417.94,192.88h-222.21v3.79h222.21v-3.79Z"/>
    <path class="cls-10" d="M1261.19,225.04h-17.77v37.29h17.77v-37.29Z"/>
    <path class="cls-2" d="M1306.9,276.98c0,.38-23.48.7-52.44.7s-52.43-.32-52.43-.7,23.48-.73,52.43-.73,52.44.32,52.44.73Z"/>
    <path class="cls-4" d="M1366.99,225.04h-17.77v37.29h17.77v-37.29Z"/>
    <path class="cls-6" d="M1412.7,276.98c0,.38-23.48.7-52.44.7s-52.44-.32-52.44-.7,23.48-.73,52.44-.73,52.44.32,52.44.73Z"/>
    <path class="cls-4" d="M1366.99,299.09h-17.77v37.29h17.77v-37.29Z"/>
    <path class="cls-6" d="M1412.7,351.03c0,.38-23.48.7-52.44.7s-52.44-.32-52.44-.7,23.48-.73,52.44-.73,52.44.32,52.44.73Z"/>
    <path class="cls-4" d="M1366.99,375.36h-17.77v37.29h17.77v-37.29Z"/>
    <path class="cls-6" d="M1412.7,427.3c0,.41-23.48.73-52.44.73s-52.44-.32-52.44-.73,23.48-.7,52.44-.7,52.44.32,52.44.7Z"/>
    <path class="cls-4" d="M1366.99,451.66h-17.77v37.29h17.77v-37.29Z"/>
    <path class="cls-6" d="M1412.7,503.6c0,.41-23.48.73-52.44.73s-52.44-.32-52.44-.73,23.48-.7,52.44-.7,52.44.32,52.44.7Z"/>
    <path class="cls-10" d="M1261.19,300.23h-17.77v37.29h17.77v-37.29Z"/>
    <path class="cls-2" d="M1306.9,352.14c0,.41-23.48.73-52.44.73s-52.43-.32-52.43-.73,23.48-.7,52.43-.7,52.44.32,52.44.7Z"/>
    <path class="cls-10" d="M1261.19,375.39h-17.77v37.29h17.77v-37.29Z"/>
    <path class="cls-2" d="M1306.9,427.33c0,.41-23.48.73-52.44.73s-52.43-.32-52.43-.73,23.48-.7,52.43-.7,52.44.32,52.44.7Z"/>
    <path class="cls-10" d="M1261.19,450.58h-17.77v37.29h17.77v-37.29Z"/>
    <path class="cls-2" d="M1306.9,502.52c0,.41-23.48.73-52.44.73s-52.43-.32-52.43-.73,23.48-.7,52.43-.7,52.44.32,52.44.7Z"/>
    <path class="cls-6" d="M1079.09,207.48c1.4-11.16-13.02-20.39-23.83-21.27-5.16-.47-10.52.41-15.41-1.46-10.61-4.05-14.83-18.99-25.17-23.74-7.72-3.55-16.63-.41-24.12,3.73-7.49,4.14-14.89,9.29-23.3,9.88-7.29.5-15.18-2.45-21.56,1.46-4.75,2.91-7.22,8.74-11.65,12.38-4.48,3.02-9.78,4.59-15.18,4.49-5.36-.1-10.68.89-15.65,2.91-2.56,1.19-4.7,3.14-6.1,5.6-1.4,2.45-2.01,5.28-1.74,8.09l183.7-2.07Z"/>
    <path class="cls-6" d="M1949.74,103.68c1.4-11.13-12.99-20.39-23.83-21.27-5.16-.44-10.51.41-15.41-1.46-10.6-4.02-14.83-18.96-25.17-23.74-7.72-3.55-16.63-.38-24.12,3.73s-14.89,9.32-23.3,9.9c-7.28.5-15.21-2.45-21.59,1.43-4.75,2.91-7.22,8.74-11.65,12.41-4.48,3.02-9.78,4.59-15.18,4.49-5.36-.1-10.68.89-15.65,2.91-2.56,1.19-4.69,3.15-6.09,5.6-1.4,2.45-2.01,5.28-1.74,8.09l183.73-2.1Z"/>
    <path class="cls-4" d="M807.43,66.89c1.43-11.13-12.99-20.39-23.8-21.27-5.19-.44-10.54.41-15.41-1.46-10.6-4.02-14.83-18.96-25.17-23.74-7.75-3.55-16.63-.38-24.12,3.73-7.49,4.11-14.92,9.32-23.3,9.9-7.29.5-15.18-2.45-21.56,1.43-4.75,2.91-7.22,8.89-11.65,12.41-4.47,3.04-9.78,4.6-15.18,4.49-5.36-.1-10.68.89-15.65,2.91-2.56,1.19-4.69,3.15-6.09,5.6-1.4,2.45-2.01,5.28-1.74,8.09l183.67-2.1Z"/>
    <path class="cls-4" d="M1419.05,64.27c1.02-8.04-9.38-14.57-17.19-15.32-3.73-.35-7.6.29-11.13-1.05-7.64-2.91-10.69-13.72-18.15-17.16-5.6-2.56-12-.26-17.48,2.71-5.48,2.97-10.75,6.7-16.78,7.14-5.24.35-10.95-1.78-15.56,1.02-3.43,2.1-5.21,6.41-8.39,8.94-3.22,2.21-7.05,3.35-10.95,3.26-3.86-.11-7.69.57-11.28,2.01-1.85.86-3.39,2.27-4.4,4.04-1.01,1.77-1.45,3.81-1.25,5.84l132.55-1.43Z"/>
    <path class="cls-4" d="M132.6,122.27c1.02-8.04-9.38-14.57-17.19-15.35-3.74.17-7.49-.19-11.13-1.05-7.63-2.91-10.69-13.69-18.15-17.13-5.59-2.56-12-.26-17.48,2.71-5.48,2.97-10.75,6.7-16.78,7.11-5.27.38-10.95-1.75-15.56,1.05-3.44,2.1-5.21,6.41-8.39,8.94-3.22,2.21-7.05,3.34-10.95,3.23-3.86-.09-7.69.6-11.27,2.04-1.85.86-3.39,2.27-4.4,4.04-1.01,1.77-1.45,3.81-1.25,5.84l132.55-1.43Z"/>
    <path class="cls-2" d="M930.02,919.84l-37.05,121.25h159.9l-50.34-121.25h-72.51Z"/>
    <path class="cls-2" d="M890.6,1090.17l-66.16,129.4h302.27l-67.9-129.4h-168.21Z"/>
    <path class="cls-2" d="M109.76,1273.99l-68.37.82,406.07-509.57h29.54l-367.23,508.76Z"/>
    <path class="cls-2" d="M1848.54,1281.19l68.37.81-406.07-509.6h-29.54l367.23,508.79Z"/>
    <path class="cls-8" d="M1891.45,764.24c0,.41-412.07.76-920.27.76s-920.36-.35-920.36-.76,411.98-.76,920.36-.76,920.27.35,920.27.76Z"/>
  </g>
  <g>
    <path class="cls-8" d="M1221.24,740.51s-12.99-12.6-16.6,63.68c-3.51,71.96-8.63,175.76,9.28,220.29,1.94,4.86,5.41,8.95,9.9,11.64,4.79,2.81,10.09,4.65,15.59,5.43,15.59,2.34,77.11,1.01,77.11,1.01,0,0,34.94,0,35.46-27.8.44-22.86,0-72.62,0-72.62l-130.73-201.63Z"/>
    <g class="cls-11">
      <path class="cls-1" d="M1221.24,740.51s-12.99-12.6-16.6,63.68c-3.51,71.96-8.63,175.76,9.28,220.29,1.94,4.86,5.41,8.95,9.9,11.64,4.79,2.81,10.09,4.65,15.59,5.43,15.59,2.34,77.11,1.01,77.11,1.01,0,0,34.94,0,35.46-27.8.44-22.86,0-72.62,0-72.62l-130.73-201.63Z"/>
    </g>
    <path class="cls-8" d="M1368.14,757.26s12.99-12.6,16.63,63.65c3.48,71.99,8.6,175.76-9.28,220.29-1.95,4.87-5.43,8.96-9.92,11.66-4.79,2.82-10.09,4.65-15.59,5.41-15.59,2.34-77.11,1.04-77.11,1.04,0,0-34.92,0-35.46-27.8-.42-22.89,2.73-103.04,2.73-103.04l128-171.21Z"/>
    <path class="cls-3" d="M1368.14,757.26l-.57.83c-.39.57-.99,1.38-1.74,2.42l-6.83,9.3c-6.05,8.16-14.86,20.03-25.98,35.1l-92.28,123.9v-.31c-.91,25.18-1.9,52.19-2.6,80.54-.13,7.09-.26,14.29-.16,21.51,0,1.82.31,3.56.44,5.35.17.88.38,1.75.65,2.6.2.89.47,1.76.83,2.6,1.45,3.34,3.61,6.32,6.34,8.73,6.02,4.65,13.22,7.54,20.78,8.34,3.85.47,7.73.68,11.61.62l11.82.15c13.59.13,27.02.18,40.24,0,6.53-.06,13.05-.47,19.54-1.22,6.29-.89,12.26-3.29,17.41-7.01,2.37-1.92,4.35-4.28,5.84-6.94,1.3-2.73,2.39-5.57,3.25-8.47,1-2.85,1.83-5.75,2.47-8.7l1.12-4.34c.31-1.48.55-2.94.83-4.39,2.14-11.45,3.64-23.01,4.47-34.63,1.72-22.68,1.97-44.32,1.84-64.54-.13-20.21-.75-39.1-1.43-56.3-1.53-34.37-2.21-62.35-5.51-81.29-1.58-9.46-3.43-16.86-6.23-21.15-1.27-2.16-3.09-3.4-4.44-3.22-.67.04-1.31.27-1.85.68.11-.14.24-.25.39-.34.43-.28.94-.43,1.45-.47,1.43-.24,3.35,1.04,4.67,3.22,2.91,4.31,4.83,11.72,6.52,21.2,3.46,19.02,4.29,46.95,5.95,81.35.73,17.2,1.38,36.06,1.59,56.3.21,20.24,0,41.93-1.72,64.66-.78,11.6-2.21,23.15-4.29,34.58-.28,1.48-.52,2.96-.83,4.44l-1.12,4.39c-.69,2.98-1.56,5.91-2.6,8.78-.87,2.98-1.99,5.88-3.35,8.67-1.55,2.82-3.64,5.31-6.16,7.33-5.32,3.86-11.5,6.37-18.01,7.3-6.56.77-13.14,1.18-19.75,1.25-13.25.31-26.68.26-40.27,0l-11.85-.16c-3.93.05-7.87-.16-11.77-.62-7.82-.85-15.24-3.86-21.46-8.68-2.88-2.54-5.16-5.69-6.68-9.22-.37-.84-.66-1.71-.86-2.6-.28-.89-.52-1.8-.7-2.73-.13-1.84-.44-3.72-.47-5.54,0-7.28,0-14.44.21-21.56.62-28.37,1.61-55.42,2.6-80.54v-.31c38.11-50.82,70.14-93.53,92.7-123.66l26.29-34.89,6.99-9.2,1.79-2.34c.26-.28.54-.54.83-.78Z"/>
    <path class="cls-8" d="M718.71,741.15s12.99-12.6,16.63,63.68c3.51,71.96,8.63,175.76-9.28,220.29-1.95,4.86-5.43,8.95-9.92,11.64-4.79,2.82-10.09,4.66-15.59,5.43-15.59,2.34-77.11,1.01-77.11,1.01,0,0-34.92,0-35.46-27.8-.42-22.86,0-72.62,0-72.62l130.73-201.63Z"/>
    <g class="cls-11">
      <path class="cls-1" d="M718.71,741.15s12.99-12.6,16.63,63.68c3.51,71.96,8.63,175.76-9.28,220.29-1.95,4.86-5.43,8.95-9.92,11.64-4.79,2.82-10.09,4.66-15.59,5.43-15.59,2.34-77.11,1.01-77.11,1.01,0,0-34.92,0-35.46-27.8-.42-22.86,0-72.62,0-72.62l130.73-201.63Z"/>
    </g>
    <path class="cls-8" d="M578.02,756.95s-12.99-12.6-16.6,63.65c-3.51,71.99-8.63,175.78,9.28,220.29,1.93,4.88,5.42,8.98,9.92,11.66,4.79,2.82,10.09,4.66,15.59,5.43,15.59,2.34,77.11,1.01,77.11,1.01,0,0,34.94,0,35.46-27.8.44-22.86-2.6-103.04-2.6-103.04l-128.16-171.21Z"/>
    <path class="cls-3" d="M578.02,756.95l.65.78,1.82,2.34,7.09,9.2,26.27,34.89,92.7,123.66v.31c.96,25.18,1.97,52.22,2.6,80.54,0,7.09.26,14.26.18,21.54,0,1.82-.31,3.69-.47,5.53,0,.94-.47,1.82-.68,2.73-.21.89-.5,1.76-.88,2.6-1.51,3.53-3.79,6.69-6.68,9.22-6.2,4.82-13.62,7.83-21.43,8.68-3.91.48-7.85.69-11.79.62l-11.82.16c-13.59.16-27.05.18-40.27,0-6.6-.07-13.19-.47-19.74-1.22-6.51-.95-12.7-3.46-18.03-7.33-2.51-2.02-4.6-4.51-6.16-7.33-1.35-2.8-2.47-5.7-3.35-8.68-1.03-2.88-1.9-5.81-2.6-8.78l-1.09-4.39c-.31-1.48-.57-2.96-.86-4.42-2.13-11.49-3.62-23.1-4.44-34.76-1.66-22.73-1.87-44.4-1.69-64.66.18-20.27.86-39.1,1.56-56.3,1.66-34.37,2.6-62.35,5.95-81.34,1.69-9.48,3.61-16.89,6.52-21.2.42-.91,1.08-1.69,1.9-2.26.83-.57,1.8-.9,2.8-.96.51.04,1,.21,1.43.5.14.08.28.19.39.31-.54-.4-1.18-.63-1.84-.67-1.35-.18-3.17,1.07-4.44,3.25-2.78,4.29-4.62,11.66-6.24,21.12-3.27,18.99-3.98,46.92-5.51,81.29-.65,17.2-1.25,36.06-1.4,56.3-.16,20.24,0,41.88,1.82,64.56.85,11.61,2.34,23.16,4.47,34.6.29,1.45.55,2.93.86,4.39l1.19,4.39c.71,2.93,1.58,5.83,2.6,8.68.87,2.9,1.96,5.73,3.27,8.47,1.47,2.68,3.46,5.04,5.85,6.94,5.14,3.72,11.1,6.13,17.38,7.01,6.49.75,13.02,1.16,19.56,1.22,13.22.31,26.63.26,40.22,0l11.82-.16c3.88.05,7.76-.15,11.61-.6,7.57-.83,14.76-3.72,20.78-8.37,2.72-2.41,4.88-5.39,6.31-8.73.37-.83.65-1.71.83-2.6.27-.85.48-1.72.65-2.6.16-1.8.44-3.53.47-5.33,0-7.25,0-14.42-.18-21.51-.6-28.4-1.56-55.42-2.6-80.54v.31l-92.18-123.77-25.98-35.1c-2.96-4.05-5.2-7.17-6.83-9.3l-1.74-2.42-.62-.83Z"/>
    <path class="cls-8" d="M1405.7,548.15s-3.9,12.99-11.95,14.24c-8.05,1.25-71.57,3.22-71.57,3.22l-6.21,12.37h-11.95l-8.7-49.55,7.4,1.48c1.23.23,2.4.76,3.38,1.54.99.78,1.77,1.79,2.28,2.93.57,1.27,1.47,2.36,2.6,3.16,1.13.81,2.46,1.29,3.84,1.41l90.88,9.2Z"/>
    <path class="cls-5" d="M1403.05,550.07c1.1-.06,2.17-.34,3.16-.84.98-.49,1.86-1.19,2.56-2.03.7-.85,1.22-1.83,1.53-2.89.3-1.06.39-2.17.24-3.26-2.08-14.16-9.74-41.57-38.01-45.72-17.46-2.76-35.21-3.19-52.79-1.3-4.39.55-6.55,4.39-7.09,8.65-2.39,19.46-.44,43.57,5.35,46.53,5.79,2.96,64.43,2.44,85.06.85Z"/>
    <path class="cls-8" d="M1365.17,495.46c.64.56,1.2,1.21,1.66,1.92.99,1.27,2.36,3.2,3.95,5.61,8.29,12.62,14.49,26.49,18.37,41.08.73,2.78,1.25,5.06,1.53,6.65.23.8.33,1.63.31,2.47-.21,0-1.06-3.4-2.75-8.88-2.18-7.13-4.78-14.12-7.79-20.94-3.06-6.83-6.53-13.47-10.39-19.88-3.06-4.99-5.07-7.92-4.88-8.03Z"/>
    <path class="cls-8" d="M543.42,551.19s3.92,12.99,11.98,14.24c8.05,1.25,71.52,3.22,71.52,3.22l6.21,12.34h11.95l8.7-49.54-7.4,1.48c-1.24.25-2.41.79-3.4,1.58-.99.79-1.78,1.81-2.29,2.96-.57,1.24-1.45,2.32-2.56,3.11-1.11.79-2.41,1.28-3.77,1.41l-90.93,9.2Z"/>
    <path class="cls-5" d="M546.02,553.06c-1.1-.06-2.17-.35-3.15-.85-.98-.49-1.85-1.19-2.55-2.03-.7-.85-1.22-1.83-1.53-2.89-.31-1.05-.39-2.16-.25-3.25,2.08-14.16,9.74-41.57,38.01-45.72,17.45-2.77,35.2-3.21,52.77-1.3,4.42.55,6.57,4.39,7.09,8.65,2.42,19.46.47,43.57-5.2,46.53-5.66,2.96-64.41,2.47-85.19.86Z"/>
    <path class="cls-8" d="M583.92,498.5c-1.46,2.76-3.07,5.43-4.81,8.03-3.86,6.41-7.33,13.05-10.39,19.87-3.03,6.82-5.63,13.82-7.79,20.97-1.69,5.48-2.6,8.91-2.75,8.88-.03-.88.07-1.75.31-2.6.29-1.58.78-3.84,1.51-6.63,3.89-14.59,10.1-28.46,18.39-41.07,1.58-2.42,2.96-4.34,3.95-5.64.46-.67.99-1.28,1.58-1.82Z"/>
    <path class="cls-5" d="M1411.65,725.18c-2.21-19.2-45.41-69.5-45.41-69.5-12-28.58-35.1-69.89-61.44-110.34-20.97-73.57-57.16-162.53-73.73-181.73-16.58-19.2-29.02-26.6-63.21-25.54-34.19,1.07-152.66.52-181.44,0h-11.72c-28.76.52-144.29,1.07-178.51,0-34.22-1.07-46.76,6.34-63.21,25.54-16.45,19.2-52.74,108.16-73.71,181.66-26.32,40.53-49.44,81.81-61.29,110.42,0,0-43.23,50.3-45.44,69.5-2.21,19.2-4.05,138.27,6.99,171.34,7.79,23.62,17.25,33.77,37.65,41.98,16.34,6.38,33.74,9.59,51.29,9.46h670.91c14.94.1,29.74-2.84,43.52-8.62,20.79-8.91,27.26-19.9,35.54-44.69,11.02-32.97,15.33-150.27,13.22-169.47Z"/>
    <path class="cls-7" d="M1198.48,349.37c0-1.79-11.09-16.63-17.2-23.54-6.1-6.91-8.47-6.68-13.74-6.13-6.6.65-22.29,8.68-23.1,11.74-.66,4.3-1.08,8.64-1.25,12.99l10.57-.26s-2.34-9.4.78-11.28c4.62-2.78,6.37-3.56,10.08-2.02,3.72,1.53,8.47,13.79,8.47,13.79l25.38,4.7Z"/>
    <path class="cls-8" d="M767.86,338.43c-.16.15-.33.28-.52.39l-1.53,1.04c-1.33.96-3.3,2.34-5.64,4.37-6.5,5.77-12.09,12.5-16.58,19.95-1.45,2.31-2.94,4.78-4.36,7.4l-4.26,8.26c-2.96,5.72-6,11.9-9.15,18.42-6.31,12.99-13.22,27.36-20.06,42.58-11.93,25.84-21.98,52.52-30.06,79.81-2.96,10.39-4.99,19.07-6.29,25.02-.62,2.91-1.09,5.2-1.46,6.86l-.42,1.79c-.04.21-.1.41-.18.6-.03-.21-.03-.42,0-.62,0-.47.16-1.06.29-1.79.29-1.69.7-4,1.2-6.94,1.14-5.98,3.04-14.6,5.9-25.15,7.83-27.43,17.78-54.21,29.75-80.1,6.86-15.22,13.8-29.59,20.19-42.58,3.17-6.52,6.24-12.68,9.28-18.37,1.48-2.86,2.94-5.64,4.34-8.29,1.4-2.65,2.96-5.2,4.44-7.4,4.6-7.47,10.37-14.16,17.07-19.82,2.46-2.12,5.16-3.95,8.05-5.43Z"/>
    <path class="cls-8" d="M977.11,377.85s-89.48,0-136.11.31c-32.01.23-104.7-2.6-108.57,5.2-1.74,3.56-17.9,34.76-33.28,70.8-18.58,43.49-36.37,93.53-31.77,105.06l299.37-4.37h316.54s3.53-10.23-3.01-28.76c-6.55-18.52-50.19-132.21-57.75-140.01-7.56-7.8-135.23-6.83-245.41-8.24Z"/>
    <path class="cls-3" d="M977.03,384.83s-85.89,0-130.68.29c-30.73.21-95.69-.29-104.67,8.91-4.1,4.18-42.3,76.69-57.16,120.55-6.36,18.89,12.5,34.06,33.05,34.4h553.38s3.38-9.48-2.91-26.66c-6.29-17.17-47.99-117.85-56.01-124.26-13.54-10.94-129.2-11.92-234.99-13.23Z"/>
    <g class="cls-11">
      <path class="cls-1" d="M699.79,544.9s25.64-37.41,41.26-39.21c6.75-.75,63.57-1.51,135.1-2.16,1.49-.02,2.95.3,4.3.92,1.35.62,2.54,1.53,3.5,2.67.99-1.15,2.22-2.07,3.6-2.71,1.38-.64,2.88-.97,4.4-.98,51.78-.44,109.56-.8,161.08-1.09,2.17-.02,4.26.79,5.84,2.26,1.58-1.45,3.65-2.27,5.8-2.29,74.98-.42,133.9-.62,136.29-.55,13.12.41,70.14,47.91,70.14,47.91l-555.48-.62c-5.49-.38-10.86-1.79-15.82-4.16Z"/>
    </g>
    <path class="cls-2" d="M780.41,672.36s-20.58,0-19.28,24.26c.7,13.3-4.75,79.21,43.28,88.49,48.04,9.28,358.53,3.22,358.53,3.22,0,0,23.38-1.01,29.49-34.6l3.87-58.17s-1.66-15.59-14.7-17.48c-13.04-1.9-401.19-5.72-401.19-5.72Z"/>
    <path class="cls-8" d="M780.41,672.36h8.34l24.06.13,89.53.75,135.1,1.48,81.03,1.14,43.26.83,11.07.34c1.84,0,3.71.16,5.61.26l2.81.18c.96.13,1.92.32,2.86.57,3.69,1.22,6.83,3.68,8.91,6.96,2.05,3.19,3.38,6.79,3.9,10.55-1.25,18.55-2.6,38.19-3.87,58.17-.99,5.38-2.64,10.61-4.91,15.59-2.46,5.24-6.1,9.83-10.63,13.43-3.58,2.84-7.77,4.83-12.23,5.82-2.25.34-4.52.48-6.78.41h-6.68l-26.42.44-51.7.65c-33.9.36-66.59.6-97.74.6s-60.74-.13-88.33-.7c-6.94,0-13.72-.31-20.42-.47-6.7-.16-13.22-.36-19.64-.68-6.42-.31-12.73-.47-18.89-.99-6.16-.52-12.19-.73-18.03-1.66-5.76-.47-11.41-1.88-16.73-4.16-5-2.2-9.54-5.31-13.38-9.2-6.76-7.16-11.65-15.87-14.26-25.36-2.38-8.1-3.88-16.42-4.49-24.84-.65-7.8-.7-14.83-.68-21.2v-9.04c0-1.4.31-2.75.47-4.08.16-1.33.6-2.6,1.07-3.72,1.42-4,4.17-7.38,7.79-9.59,2.29-1.3,4.8-2.18,7.4-2.6.86-.15,1.73-.21,2.6-.21-.87.06-1.74.18-2.6.36-2.56.44-5.02,1.32-7.27,2.6-3.56,2.21-6.25,5.56-7.64,9.51-.44,1.14-.65,2.39-1.01,3.66-.36,1.27-.34,2.6-.44,4.03v9.01c0,6.37,0,13.43.81,21.15.64,8.37,2.17,16.64,4.57,24.68,2.6,9.36,7.47,17.95,14.16,24.99,3.78,3.8,8.24,6.85,13.15,8.99,5.25,2.22,10.82,3.58,16.5,4.03,5.77.91,11.82,1.12,17.95,1.61,6.13.49,12.42.62,18.84.94,6.42.31,12.99.47,19.67.62s13.46.39,20.39.47c27.67.52,57.16.55,88.33.55s63.83-.28,97.71-.65l51.7-.7,26.42-.42,6.68-.13c2.18.07,4.37-.06,6.52-.39,4.26-.93,8.25-2.82,11.66-5.54,4.37-3.48,7.88-7.93,10.26-12.99,2.23-4.85,3.85-9.97,4.81-15.22,1.33-19.98,2.6-39.65,3.9-58.17-.5-3.43-1.71-6.71-3.56-9.64-1.89-3.05-4.8-5.33-8.21-6.44-.85-.23-1.72-.41-2.6-.55l-2.75-.16c-1.84,0-3.66-.23-5.53-.26l-11.04-.34-43.26-.88-81.03-1.25-135.1-1.74-89.53-1.14-24.06-.36h-6.24l-2.13-.08Z"/>
    <path class="cls-8" d="M793.45,686.85s-19.28,0-17.48,17.9c.96,9.69-4.73,57.49,39.7,64.27,44.43,6.78,316.96,4.1,316.96,4.1,0,0,34.14-1.56,41.41-24.42l3.79-44.94s1.27-9.67-10.78-11.12c-12.05-1.45-373.6-5.79-373.6-5.79Z"/>
    <path class="cls-2" d="M1138.5,686.85c-.55,1.3-9.92,91.97-9.92,91.97h15.59l11.87-91.97h-17.54Z"/>
    <path class="cls-2" d="M1086.12,686.78c-.47,1.35-3.46,92.41-3.46,92.41l15.59-1.04,5.48-92.59-17.61,1.22Z"/>
    <path class="cls-2" d="M1038.08,687.22c-.44,1.35-3.43,92.41-3.43,92.41l18.45-1.22,2.6-92.33-17.62,1.14Z"/>
    <path class="cls-2" d="M817.43,683.17c.55,1.33,9.92,91.97,9.92,91.97h-15.59l-11.87-91.97h17.54Z"/>
    <path class="cls-2" d="M869.81,683.09c.47,1.35,3.46,92.41,3.46,92.41l-15.59-1.04-5.38-92.51,17.51,1.14Z"/>
    <path class="cls-2" d="M917.84,683.56c.44,1.35,3.43,92.39,3.43,92.39l-18.45-1.19-2.6-92.36,17.61,1.17Z"/>
    <path class="cls-2" d="M923.93,685.56c1.79,2.91,35.2,24.97,35.2,24.97h40.61l32.11-24.97h-107.92Z"/>
    <path class="cls-2" d="M954.61,698.1l8.57,77.89h30.24l8.57-77.89h-47.39Z"/>
    <path class="cls-8" d="M779.01,772.25c-.72.04-1.44.04-2.16,0h-6.18c-5.38,0-13.15-.39-22.73-.93-9.59-.55-21.02-1.48-33.77-2.83-12.76-1.35-26.34-3.27-40.84-5.66-14.5-2.39-28.14-5.2-40.5-8-12.37-2.81-23.38-5.69-32.66-8.29-9.28-2.6-16.65-4.83-21.75-6.52l-5.85-1.92c-.69-.21-1.37-.47-2.03-.78.71.12,1.42.29,2.1.52l5.92,1.69c5.2,1.53,12.6,3.64,21.85,6.13,9.25,2.5,20.32,5.2,32.68,8,12.37,2.81,25.98,5.46,40.45,7.79,14.47,2.34,28.27,4.26,40.84,5.72,12.57,1.45,24.01,2.44,33.57,3.09,9.56.65,17.33,1.12,22.71,1.35l6.16.34c.74.03,1.47.13,2.18.31Z"/>
    <path class="cls-4" d="M626.55,629.91c-1.42-.53-2.97-.55-4.4-.05-1.43.51-2.63,1.49-3.39,2.8-4.49,7.79-12.99,24.73-14.29,43.23-1.84,25.33,0,71.37,0,71.37,0,0,92.98,20.94,131.46,21.51,0,0-11.93-63.99-21.69-88.18-8.18-20.58-69.5-44.11-87.68-50.69Z"/>
    <path class="cls-8" d="M626.55,629.91c.33.06.65.16.96.29l2.73.93c2.42.86,5.98,2.16,10.52,3.92,12.96,4.91,25.66,10.49,38.04,16.73,8.64,4.27,16.86,9.35,24.55,15.17,4.38,3.19,8.06,7.24,10.83,11.9,2.21,5.19,4.08,10.52,5.59,15.95,3.27,11.07,6.13,22.89,8.91,35.23,2.78,12.34,5.46,25.2,8,38.53l.16.78h-.83c-11.01-.39-22-1.41-32.89-3.06-17.95-2.6-35.28-5.61-51.8-8.78-16.52-3.17-32.24-6.39-46.89-9.59h-.44v-.44c-.62-18.68-.88-35.9-.62-51.21,0-7.66.34-14.83.91-21.49.61-6.11,1.86-12.13,3.74-17.98,2.59-8.26,6.07-16.2,10.39-23.69.55-1.06,1.39-1.95,2.41-2.56,1.02-.62,2.19-.95,3.39-.95.82-.04,1.63.13,2.36.49-.77-.22-1.56-.33-2.36-.31-1.14.04-2.25.39-3.21,1.01-.96.62-1.74,1.48-2.25,2.5-4.22,7.52-7.63,15.48-10.16,23.72-1.82,5.8-3.02,11.79-3.56,17.85-.52,6.6-.7,13.77-.81,21.41-.16,15.3.16,32.5.86,51.16l-.47-.55c14.63,3.22,30.35,6.47,46.76,9.64,16.42,3.17,33.77,6.26,51.73,8.73,10.84,1.65,21.77,2.67,32.74,3.07l-.68.78c-2.6-13.3-5.2-26.16-7.79-38.5-2.6-12.34-5.59-24.13-8.81-35.18-1.48-5.38-3.3-10.65-5.46-15.8-2.67-4.51-6.2-8.45-10.39-11.59-7.57-5.86-15.67-11.01-24.19-15.38-15.59-8.11-28.58-13.46-37.7-17.18l-10.39-4.1-2.6-1.06-1.27-.39Z"/>
    <path class="cls-8" d="M668.93,553.05c-.57,1.1-1.25,2.15-2.03,3.12l-5.79,8.26c-4.83,7.01-11.28,16.86-18.19,27.93-6.91,11.07-12.73,21.2-17.02,28.58l-5.2,8.68c-.57,1.09-1.25,2.13-2.03,3.09.4-1.16.92-2.28,1.56-3.33,1.09-2.13,2.6-5.2,4.75-8.89,4.1-7.46,9.9-17.69,16.71-28.78,6.81-11.09,13.38-20.78,18.45-27.77,2.6-3.46,4.62-6.21,6.16-8.05.8-1.01,1.67-1.96,2.62-2.83Z"/>
    <path class="cls-8" d="M766.46,676.36s-.29-.34-.73-1.04c-.44-.7-1.07-1.9-1.79-3.14-.96-1.69-1.82-3.42-2.6-5.2-.96-2-2.08-4.29-3.09-6.91-2.53-6.05-4.71-12.25-6.52-18.55-2.13-7.7-3.86-15.5-5.2-23.38-1.43-8.42-2.31-16.47-2.91-23.82-.6-7.35-.75-14-.65-19.56,0-2.81,0-5.33.16-7.53.16-2.21.16-4.11.29-5.66.13-1.56.23-2.6.31-3.59,0-.42.06-.83.21-1.22.04.41.04.83,0,1.25v16.73c0,5.56.42,12.18.96,19.48.55,7.3,1.58,15.35,2.99,23.72,1.4,8.37,3.27,16.24,5.2,23.38,1.68,6.27,3.68,12.45,5.98,18.52.96,2.6,2,4.93,2.91,6.96.91,2.03,1.66,3.77,2.39,5.2l1.58,3.25c.21.36.39.73.52,1.12Z"/>
    <g class="cls-11">
      <path class="cls-1" d="M594.1,737.72s-10.55,23.38,54.97,37.54c66.33,14.29,127.77-2.96,127.77-2.96l-36.37-1.58s-135.1-19.3-135.64-25.04c-2.13-22.47-1.01-58.46-1.01-58.46l-9.72,50.51Z"/>
    </g>
    <path class="cls-4" d="M640.45,698.44c12.21,0,22.11-9.57,22.11-21.38s-9.9-21.38-22.11-21.38-22.11,9.58-22.11,21.38,9.9,21.38,22.11,21.38Z"/>
    <path class="cls-8" d="M662.56,677.06c-.16,0,0-1.9-.94-5.2-1.32-4.63-4.17-8.67-8.08-11.48-2.71-1.96-5.83-3.27-9.12-3.84-3.79-.66-7.68-.32-11.3.96-3.96,1.39-7.42,3.92-9.95,7.28-2.7,3.52-4.16,7.83-4.16,12.26s1.46,8.74,4.16,12.26c1.26,1.71,2.79,3.2,4.52,4.42,1.65,1.22,3.49,2.17,5.43,2.83,3.62,1.28,7.51,1.61,11.3.96,3.29-.57,6.41-1.89,9.12-3.84,3.91-2.79,6.76-6.83,8.08-11.46.4-1.72.71-3.45.94-5.2.07.46.07.92,0,1.38-.02,1.32-.19,2.64-.52,3.92-1.16,4.84-3.99,9.13-8,12.08-2.75,2.07-5.93,3.49-9.3,4.16-3.98.74-8.09.44-11.92-.89-2.06-.7-4-1.69-5.77-2.96-1.86-1.28-3.49-2.86-4.83-4.67-2.87-3.72-4.44-8.29-4.44-12.99.02-4.7,1.58-9.26,4.44-12.99,1.34-1.8,2.98-3.38,4.83-4.65,1.76-1.28,3.7-2.29,5.77-2.99,3.83-1.31,7.94-1.62,11.92-.89,3.44.64,6.69,2.07,9.48,4.18,4.01,2.96,6.84,7.24,8,12.08.33,1.27.5,2.58.52,3.9,0,.47-.05.93-.18,1.38Z"/>
    <path class="cls-2" d="M640.45,676.15c3.81-.03,7.56.96,10.87,2.85,3.31,1.9,6.06,4.63,7.96,7.93,1.72-3.06,2.61-6.52,2.6-10.03,0-5.7-2.27-11.18-6.3-15.21-4.03-4.03-9.51-6.3-15.21-6.3s-11.18,2.26-15.21,6.3-6.3,9.51-6.3,15.21c-.03,3.51.87,6.97,2.6,10.03,1.92-3.33,4.69-6.08,8.03-7.98,3.34-1.9,7.13-2.86,10.97-2.8Z"/>
    <path class="cls-10" d="M649.94,676.36c.07,1.9-.43,3.77-1.44,5.39-1.01,1.61-2.47,2.89-4.21,3.66-1.74.78-3.66,1.01-5.53.68-1.87-.33-3.6-1.21-4.97-2.53-1.37-1.32-2.31-3.02-2.71-4.88-.4-1.86-.23-3.79.48-5.55.71-1.76,1.93-3.27,3.51-4.33s3.43-1.63,5.33-1.63c2.48-.04,4.88.9,6.67,2.63,1.79,1.72,2.82,4.09,2.87,6.57Z"/>
    <path class="cls-8" d="M649.94,676.36s0-.81-.55-2.18c-.38-1.19-1-2.29-1.81-3.24-.82-.95-1.82-1.72-2.94-2.27-1.12-.55-2.35-.87-3.6-.93-1.25-.06-2.5.12-3.68.55-1.69.58-3.16,1.66-4.2,3.12-1.04,1.45-1.6,3.19-1.6,4.98s.56,3.53,1.6,4.98c1.04,1.45,2.51,2.54,4.2,3.12,1.18.43,2.43.61,3.68.54,1.25-.07,2.47-.39,3.6-.94,1.12-.55,2.12-1.33,2.94-2.28.82-.95,1.43-2.05,1.81-3.25.42-1.35.42-2.18.55-2.18.2.76.2,1.55,0,2.31-.46,2.14-1.68,4.05-3.43,5.38-1.34,1.03-2.92,1.7-4.59,1.96-1.67.26-3.38.11-4.97-.46-1.96-.62-3.68-1.84-4.9-3.5-1.22-1.66-1.88-3.66-1.88-5.72s.66-4.06,1.88-5.72c1.22-1.66,2.94-2.89,4.9-3.5,1.59-.53,3.29-.67,4.94-.4,1.66.27,3.22.93,4.57,1.94,1.77,1.32,3.01,3.24,3.48,5.4.2.76.2,1.55,0,2.31Z"/>
    <path class="cls-10" d="M648.79,661.89c-.49.81-2.6.41-5.53.39-3.63-.14-7.25.61-10.52,2.18-3.16,1.72-5.84,4.21-7.79,7.22-1.61,2.39-2.44,4.29-3.4,4.24-.96-.05-1.82-2.26-1.07-5.9.6-2.43,1.72-4.7,3.28-6.65,1.56-1.95,3.53-3.55,5.76-4.67,2.26-1.16,4.74-1.85,7.28-2.01,2.54-.16,5.08.21,7.48,1.08,3.61,1.43,4.99,3.43,4.52,4.13Z"/>
    <path class="cls-2" d="M684.57,723.75c5.78-.06,11.47,1.42,16.49,4.28,5.02,2.86,9.19,7.01,12.09,12.01,2.65-4.61,4.04-9.83,4.03-15.15-.47-8.3-4.1-16.09-10.13-21.8-6.04-5.71-14.03-8.89-22.34-8.89s-16.3,3.18-22.34,8.89c-6.04,5.71-9.66,13.51-10.13,21.8-.07,5.32,1.26,10.57,3.84,15.23,2.88-5.01,7.03-9.16,12.04-12.03,5.01-2.88,10.69-4.37,16.46-4.34Z"/>
    <path class="cls-10" d="M698.57,723.88c.09,2.79-.66,5.54-2.14,7.9-1.48,2.36-3.64,4.22-6.19,5.35-2.55,1.13-5.38,1.47-8.12.98-2.74-.49-5.28-1.79-7.28-3.73-2-1.94-3.38-4.43-3.96-7.16-.58-2.73-.33-5.57.72-8.15,1.05-2.59,2.84-4.8,5.15-6.36,2.31-1.56,5.04-2.4,7.82-2.4,1.81-.03,3.61.29,5.29.96,1.68.66,3.22,1.65,4.52,2.91,1.3,1.26,2.34,2.77,3.06,4.43.72,1.66,1.1,3.45,1.13,5.26Z"/>
    <path class="cls-8" d="M698.57,723.88s0-1.22-.7-3.25c-.87-2.9-2.7-5.42-5.2-7.14-1.83-1.3-3.94-2.15-6.16-2.45-2.22-.31-4.48-.07-6.6.69-2.55.85-4.76,2.48-6.33,4.66-1.57,2.18-2.41,4.8-2.41,7.48s.84,5.3,2.41,7.48c1.57,2.18,3.78,3.81,6.33,4.66,2.11.76,4.37.99,6.59.69,2.22-.3,4.34-1.14,6.17-2.43,2.49-1.73,4.32-4.25,5.2-7.15.6-2.05.57-3.27.7-3.25.13.03,0,.28,0,.86.02.88-.08,1.75-.29,2.6-.73,3.14-2.58,5.91-5.2,7.8-1.94,1.45-4.21,2.41-6.6,2.78-2.4.38-4.85.16-7.14-.63-2.64-.97-4.94-2.7-6.6-4.96-1.85-2.4-2.86-5.35-2.86-8.38s1-5.98,2.86-8.38c1.75-2.27,4.12-3.98,6.83-4.91,2.29-.79,4.74-1,7.14-.63,2.4.37,4.66,1.33,6.6,2.78,2.61,1.89,4.46,4.66,5.2,7.79.21.85.3,1.72.29,2.6-.16.36-.18.67-.23.67Z"/>
    <path class="cls-8" d="M717.07,724.89c-.25-2.56-.67-5.11-1.27-7.61-1.9-6.85-6.08-12.84-11.85-16.99-4-2.91-8.61-4.87-13.48-5.72-5.61-.99-11.38-.52-16.76,1.38-2.88.99-5.6,2.41-8.05,4.21-2.57,1.81-4.85,4.02-6.73,6.55-4,5.22-6.17,11.61-6.17,18.19s2.17,12.97,6.17,18.19c1.88,2.53,4.15,4.74,6.73,6.55,2.46,1.79,5.18,3.21,8.05,4.21,5.38,1.88,11.15,2.36,16.76,1.38,4.87-.86,9.48-2.81,13.48-5.72,5.77-4.15,9.96-10.16,11.85-17.02.6-2.5,1.03-5.05,1.27-7.61.06.67.06,1.35,0,2.02,0,.81-.05,1.62-.18,2.42-.12,1.11-.32,2.21-.6,3.3-1.75,7.08-5.92,13.32-11.8,17.64-4.09,3.06-8.83,5.13-13.85,6.05-5.81,1.08-11.8.62-17.38-1.32-3.01-1-5.85-2.46-8.42-4.34-2.68-1.87-5.05-4.16-7.01-6.78-2.98-4.03-4.96-8.71-5.79-13.66-.83-4.95-.47-10.02,1.04-14.8,1.51-4.78,4.13-9.14,7.65-12.71,3.52-3.57,7.83-6.27,12.58-7.86,5.58-1.94,11.57-2.4,17.38-1.32,5.01.92,9.73,2.99,13.8,6.05,5.87,4.31,10.04,10.55,11.8,17.61.28,1.08.48,2.17.6,3.27.13.81.19,1.62.18,2.44.06.66.06,1.34,0,2Z"/>
    <path class="cls-10" d="M696.83,702.6c-.49.83-3.4-.13-7.79-.49-5.65-.57-11.36.43-16.47,2.91-4.92,2.67-8.98,6.69-11.69,11.59-2.16,3.79-2.96,6.65-3.95,6.6s-1.84-3.19-.49-8.29c.99-3.35,2.65-6.46,4.88-9.14,2.23-2.68,4.99-4.88,8.11-6.45,3.18-1.64,6.66-2.63,10.23-2.91,3.57-.28,7.16.14,10.56,1.25,4.91,1.69,7.09,4.26,6.62,4.93Z"/>
    <path class="cls-10" d="M704.96,707.59c-1.53,1.01-2.99,1.56-3.33,1.25-.34-.31.18-1.74,1.2-3.27,1.01-1.53,2.6-2.21,3.51-1.4.91.81.18,2.42-1.38,3.43Z"/>
    <g class="cls-11">
      <path class="cls-10" d="M654.9,631.41c-2,0,62.35,21.38,70.74,28.14l13.17-2.78-45.99-73.71-5.2-1.19s-15.87,49.62-32.74,49.54Z"/>
    </g>
    <path class="cls-8" d="M1184.61,774.12c.68-.11,1.36-.17,2.05-.18l5.84-.31c5.2-.21,12.45-.57,21.51-1.12,18.19-1.09,43.23-3.14,70.64-7.35,23.35-3.66,46.5-8.56,69.34-14.65,8.75-2.34,15.82-4.34,20.78-5.79l5.61-1.59c.66-.21,1.32-.37,2-.49-.6.31-1.24.56-1.9.73l-5.72,1.95c-4.81,1.61-11.85,3.72-20.58,6.18-22.83,6.38-46.02,11.4-69.45,15.04-23.46,3.53-47.09,5.87-70.8,6.99-9.09.41-16.45.65-21.54.7h-5.87c-.65.02-1.3-.01-1.95-.1Z"/>
    <path class="cls-4" d="M1326.26,635.26c1.42-.53,2.97-.54,4.4-.04,1.42.5,2.63,1.49,3.4,2.79,4.49,7.8,12.99,24.73,14.29,43.23,1.82,25.33,0,71.37,0,71.37,0,0-93.01,20.96-131.46,21.51,0,0,11.9-63.99,21.67-88.18,8.34-20.58,69.6-44.11,87.71-50.69Z"/>
    <path class="cls-8" d="M1326.26,635.26c-.29.16-.59.29-.91.39l-2.6,1.07-10.39,4.1c-9.01,3.72-22.13,9.07-37.72,17.17-8.54,4.32-16.68,9.4-24.29,15.2-4.2,3.15-7.73,7.09-10.39,11.61-2.15,5.13-3.96,10.4-5.43,15.77-3.25,11.04-6.06,22.86-8.83,35.18-2.78,12.31-5.4,25.2-7.8,38.5l-.67-.78c10.96-.39,21.89-1.42,32.74-3.07,17.9-2.6,35.23-5.58,51.72-8.73,16.5-3.15,32.24-6.42,46.77-9.64l-.47.55c.7-18.65,1.01-35.85.86-51.16,0-7.64-.28-14.81-.81-21.41-.55-6.06-1.73-12.04-3.53-17.85-2.56-8.24-5.96-16.19-10.16-23.72-.52-1.02-1.3-1.88-2.26-2.5-.96-.62-2.07-.96-3.22-1.01-.8-.01-1.6.09-2.36.31.74-.36,1.57-.53,2.39-.49,1.19,0,2.36.33,3.38.95,1.02.62,1.85,1.5,2.41,2.56,4.3,7.5,7.78,15.45,10.39,23.69,1.86,5.85,3.1,11.87,3.72,17.98.57,6.65.81,13.82.93,21.49.24,15.3,0,32.53-.65,51.21v.47h-.47c-14.65,3.27-30.37,6.55-46.89,9.74-16.53,3.2-33.77,6.31-51.8,8.78-10.9,1.65-21.88,2.68-32.89,3.07h-.81l.13-.78c2.55-13.32,5.21-26.16,8-38.53,2.81-12.34,5.64-24.16,8.94-35.23,1.52-5.43,3.38-10.76,5.56-15.95,2.78-4.66,6.47-8.71,10.86-11.9,7.68-5.82,15.89-10.9,24.52-15.17,12.35-6.27,25.02-11.89,37.96-16.84,4.55-1.76,8.08-3.07,10.39-3.92l2.75-.94.94-.18Z"/>
    <path class="cls-8" d="M1282.61,553.31c.95.92,1.82,1.92,2.6,2.99,1.56,1.95,3.79,4.86,6.37,8.55,5.2,7.35,11.9,17.85,18.81,29.67,6.91,11.82,12.86,22.71,17.1,30.6l4.96,9.38c.65,1.12,1.21,2.29,1.66,3.51-.81-1.02-1.52-2.12-2.13-3.27l-5.35-9.2c-4.44-7.8-10.39-18.58-17.41-30.4-7.01-11.82-13.43-22.32-18.45-29.77-2.47-3.74-4.55-6.73-6-8.78-.82-1.02-1.55-2.11-2.16-3.27Z"/>
    <path class="cls-8" d="M1186.48,681.71c.1-.44.27-.86.5-1.25.44-.94.99-2.08,1.66-3.46.68-1.38,1.59-3.35,2.6-5.54l1.51-3.46c.47-1.27.96-2.6,1.51-3.98,2.16-5.53,4.24-12.29,6.37-19.85,2.13-7.56,3.85-16.01,5.43-24.92,2.61-15.22,4.15-30.6,4.6-46.04v-17.85c-.07-.44-.07-.89,0-1.33.11.43.17.88.18,1.33,0,1.01.18,2.26.31,3.79.13,1.53.21,3.69.26,6.06.05,2.36.13,5.04,0,8.03-.15,15.5-1.56,30.97-4.21,46.24-1.56,8.94-3.48,17.38-5.56,24.99-1.86,6.75-4.09,13.38-6.68,19.88-.55,1.38-1.09,2.6-1.61,3.95-.52,1.35-1.09,2.36-1.61,3.46-.99,2.16-1.87,4-2.73,5.46l-1.9,3.35c-.17.4-.38.77-.62,1.12Z"/>
    <g class="cls-11">
      <path class="cls-1" d="M1358.81,745.91s10.55,23.38-54.97,37.54c-39.81,8.51-81.23,5.27-119.22-9.33l32.27-.65s131.02-12.37,131.48-23.62c.96-22.58.81-54.56.81-54.56l9.64,50.61Z"/>
    </g>
    <path class="cls-4" d="M1312.46,703.79c12.21,0,22.11-9.57,22.11-21.38s-9.9-21.38-22.11-21.38-22.11,9.58-22.11,21.38,9.9,21.38,22.11,21.38Z"/>
    <path class="cls-8" d="M1290.35,682.41c-.07-.46-.07-.92,0-1.38,0-1.31.17-2.63.49-3.9,1.16-4.84,3.99-9.12,8-12.08,2.8-2.1,6.04-3.54,9.48-4.18,3.99-.73,8.11-.43,11.95.88,2.06.7,4,1.71,5.77,2.99,1.85,1.28,3.48,2.85,4.83,4.65,2.87,3.72,4.43,8.29,4.43,12.99s-1.56,9.27-4.43,12.99c-1.35,1.81-2.98,3.39-4.83,4.68-1.77,1.26-3.71,2.26-5.77,2.96-3.84,1.33-7.96,1.63-11.95.88-3.43-.65-6.67-2.07-9.48-4.16-4.01-2.96-6.85-7.24-8-12.08-.32-1.28-.49-2.6-.49-3.92-.07-.46-.07-.92,0-1.38.23,1.75.55,3.48.96,5.2,1.3,4.63,4.14,8.67,8.05,11.46,2.71,1.96,5.83,3.27,9.12,3.84,3.79.66,7.68.32,11.3-.96,1.95-.66,3.78-1.61,5.43-2.83,1.74-1.23,3.27-2.72,4.55-4.42,2.7-3.52,4.17-7.83,4.17-12.26s-1.46-8.75-4.17-12.26c-2.53-3.34-5.99-5.86-9.95-7.25-3.62-1.29-7.51-1.62-11.3-.96-3.28.58-6.39,1.89-9.09,3.85-3.92,2.79-6.78,6.84-8.08,11.48-.42,1.71-.75,3.43-.99,5.17Z"/>
    <path class="cls-2" d="M1312.44,681.51c-3.81-.03-7.56.96-10.87,2.85-3.31,1.89-6.06,4.63-7.97,7.93-1.72-3.06-2.61-6.52-2.6-10.03.2-5.57,2.55-10.85,6.56-14.72,4.01-3.87,9.37-6.04,14.95-6.04s10.93,2.17,14.94,6.04c4.01,3.87,6.36,9.15,6.56,14.72.02,3.51-.88,6.97-2.6,10.03-1.92-3.32-4.69-6.07-8.02-7.96-3.34-1.9-7.11-2.87-10.94-2.82Z"/>
    <path class="cls-10" d="M1302.95,681.71c-.08,1.9.42,3.78,1.42,5.4,1,1.62,2.47,2.9,4.2,3.68,1.74.78,3.67,1.02,5.54.7,1.88-.32,3.61-1.21,4.98-2.53,1.37-1.32,2.31-3.02,2.71-4.89.4-1.86.22-3.8-.49-5.57-.72-1.76-1.95-3.27-3.53-4.33-1.58-1.06-3.45-1.62-5.35-1.61-2.46-.03-4.84.92-6.62,2.63-1.77,1.71-2.8,4.05-2.86,6.52Z"/>
    <path class="cls-8" d="M1302.95,681.71c-.23-.75-.23-1.56,0-2.31.47-2.14,1.68-4.05,3.43-5.38,1.35-1.01,2.92-1.68,4.58-1.94,1.66-.27,3.36-.13,4.96.41,1.95.63,3.65,1.86,4.86,3.52,1.21,1.66,1.86,3.65,1.86,5.7s-.65,4.05-1.86,5.71c-1.21,1.66-2.91,2.89-4.86,3.52-1.59.55-3.3.7-4.96.43-1.66-.27-3.23-.94-4.58-1.96-1.75-1.33-2.96-3.23-3.43-5.38-.23-.75-.23-1.56,0-2.31,0,0,0,.83.55,2.18.61,1.94,1.84,3.62,3.51,4.78,1.22.85,2.63,1.4,4.11,1.6,1.48.2,2.98.04,4.39-.46,1.69-.57,3.16-1.66,4.2-3.12,1.04-1.45,1.6-3.19,1.6-4.98s-.56-3.53-1.6-4.98c-1.04-1.45-2.51-2.54-4.2-3.12-1.4-.51-2.9-.67-4.38-.48-1.48.2-2.89.74-4.11,1.6-1.67,1.16-2.9,2.84-3.51,4.78-.42,1.38-.44,2.18-.55,2.18Z"/>
    <path class="cls-10" d="M1304.12,667.37c-.47-.7.91-2.6,4.5-4.13,2.39-.87,4.93-1.24,7.46-1.08,2.54.16,5.01.85,7.27,2.01,2.23,1.12,4.2,2.72,5.76,4.67,1.56,1.95,2.68,4.22,3.28,6.65.78,3.64-.18,5.87-1.04,5.9-.86.03-1.79-1.84-3.43-4.23-1.94-3.03-4.62-5.52-7.79-7.22-3.28-1.58-6.89-2.32-10.52-2.18-2.91-.1-4.96.29-5.48-.39Z"/>
    <path class="cls-2" d="M1268.27,729.1c-5.78-.06-11.47,1.42-16.49,4.29-5.02,2.86-9.19,7.01-12.09,12-2.63-4.61-4.02-9.83-4.03-15.15.47-8.3,4.1-16.09,10.13-21.8,6.04-5.71,14.03-8.89,22.34-8.89s16.3,3.18,22.34,8.89c6.04,5.71,9.66,13.51,10.13,21.8.06,5.27-1.23,10.45-3.76,15.07-2.91-4.99-7.08-9.12-12.1-11.96-5.02-2.85-10.71-4.32-16.48-4.25Z"/>
    <path class="cls-10" d="M1254.34,729.23c-.09,2.79.65,5.55,2.14,7.92,1.49,2.37,3.65,4.24,6.2,5.37,2.55,1.13,5.39,1.48,8.14.99,2.75-.49,5.3-1.79,7.31-3.73,2.01-1.95,3.39-4.44,3.97-7.18.58-2.74.32-5.58-.73-8.17-1.05-2.59-2.85-4.81-5.17-6.37-2.32-1.56-5.05-2.39-7.85-2.39-1.81-.03-3.61.3-5.29.96-1.68.66-3.22,1.65-4.52,2.91-1.3,1.26-2.34,2.77-3.06,4.43-.72,1.66-1.1,3.45-1.13,5.26Z"/>
    <path class="cls-8" d="M1254.34,729.23v-.89c-.03-.87.06-1.75.26-2.6.74-3.14,2.58-5.91,5.2-7.79,1.94-1.45,4.21-2.41,6.6-2.79,2.4-.37,4.85-.16,7.14.63,2.71.92,5.09,2.63,6.83,4.91,1.87,2.39,2.89,5.34,2.89,8.38s-1.02,5.99-2.89,8.38c-1.73,2.29-4.11,4-6.83,4.91-2.29.79-4.74,1-7.14.63-2.4-.38-4.66-1.33-6.6-2.79-2.62-1.88-4.46-4.65-5.2-7.79-.2-.85-.29-1.72-.26-2.6v-.86c.13,0,0,1.19.7,3.25.88,2.9,2.71,5.42,5.2,7.14,1.83,1.3,3.95,2.13,6.17,2.43,2.22.3,4.48.06,6.59-.69,2.56-.84,4.79-2.47,6.37-4.65,1.58-2.18,2.43-4.81,2.43-7.5s-.85-5.32-2.43-7.5c-1.58-2.18-3.81-3.81-6.37-4.65-2.11-.76-4.37-1-6.6-.69-2.22.31-4.33,1.15-6.16,2.45-2.49,1.73-4.32,4.25-5.2,7.15-.6,2.29-.57,3.51-.7,3.51Z"/>
    <path class="cls-8" d="M1235.84,730.24c-.06-.66-.06-1.33,0-2,0-.82.06-1.63.18-2.44.12-1.11.32-2.2.62-3.27,1.75-7.06,5.91-13.29,11.77-17.61,4.09-3.07,8.84-5.14,13.87-6.05,5.81-1.08,11.8-.62,17.38,1.32,3,1,5.84,2.47,8.39,4.34,2.69,1.86,5.06,4.15,7.01,6.78,4.2,5.42,6.48,12.09,6.48,18.96s-2.28,13.53-6.48,18.95c-1.98,2.62-4.35,4.9-7.04,6.78-2.55,1.87-5.39,3.34-8.39,4.34-5.59,1.94-11.59,2.4-17.41,1.33-5.02-.93-9.75-3.01-13.85-6.06-5.86-4.32-10.02-10.55-11.77-17.61-.3-1.07-.51-2.17-.62-3.27-.13-.81-.19-1.62-.18-2.44-.06-.67-.06-1.35,0-2.03.26,2.56.68,5.11,1.27,7.61,1.91,6.86,6.1,12.86,11.87,17.02,3.99,2.91,8.6,4.86,13.46,5.72,5.61.98,11.38.51,16.76-1.38,2.88-1,5.61-2.42,8.08-4.21,2.57-1.81,4.83-4.02,6.7-6.55,4-5.22,6.17-11.61,6.17-18.19s-2.17-12.97-6.17-18.19c-1.88-2.52-4.15-4.74-6.73-6.55-2.46-1.8-5.17-3.22-8.05-4.21-5.37-1.9-11.15-2.37-16.76-1.38-4.87.85-9.47,2.8-13.46,5.72-5.78,4.14-9.97,10.14-11.87,16.99-.57,2.5-.99,5.03-1.25,7.58Z"/>
    <path class="cls-10" d="M1256.08,707.95c-.47-.67,1.74-3.25,6.83-5.01,3.4-1.11,6.99-1.53,10.56-1.24,3.57.28,7.04,1.27,10.22,2.91,3.11,1.58,5.87,3.78,8.1,6.46,2.23,2.68,3.9,5.79,4.89,9.13,1.32,5.2.34,8.29-.52,8.29s-1.77-2.81-3.95-6.6c-2.7-4.9-6.76-8.93-11.69-11.58-5.11-2.48-10.8-3.48-16.45-2.91-4.6.44-7.48,1.4-8,.57Z"/>
    <path class="cls-10" d="M1247.95,712.94c-1.53-1.01-2.23-2.6-1.38-3.43.86-.83,2.6,0,3.51,1.4.91,1.4,1.53,2.96,1.22,3.27-.31.31-1.82-.23-3.35-1.25Z"/>
    <g class="cls-11">
      <path class="cls-10" d="M1298.01,636.77c2,0-62.35,21.38-70.74,28.14l-13.14-2.73,45.98-73.71,5.2-1.19s15.95,49.57,32.71,49.49Z"/>
    </g>
    <g class="cls-11">
      <path class="cls-10" d="M766.46,615.57s10-3.3,8.03-10.55c21.21,10.74,44.71,16.19,68.49,15.87,39.46-.57,184.04,7.98,184.04,7.98l16.57,22.11s-261.39-1.01-270.45,4.7l-6.68-40.11Z"/>
    </g>
    <g class="cls-11">
      <path class="cls-1" d="M1233.06,894.05v-48.74l134.42-14.29s-6.73,39.64-22.19,46.14c-15.46,6.49-112.24,16.89-112.24,16.89Z"/>
    </g>
    <path class="cls-10" d="M1360.16,831.8s-6.83,25.23-12.11,32.45c-4.78,6.57-9.72,8.68-24.79,11.51-12.26,2.29-22.99,3.27-22.99,3.27l3.33-41.21,56.56-6.03Z"/>
    <path class="cls-8" d="M1352.96,855.1c-.03.43-.11.85-.26,1.25-.35,1.17-.81,2.31-1.35,3.4-2.07,4.1-5.14,7.6-8.94,10.19-4.81,3.46-11.8,5.2-19.36,6.44-7.56,1.25-16,2.13-24.81,3.27-17.59,2.21-33.54,4.13-45.08,5.46l-13.69,1.51-3.72.34c-.44.07-.89.07-1.33,0,.42-.13.84-.23,1.27-.28l3.69-.57,13.64-1.92c11.51-1.56,27.43-3.64,45.02-5.85,8.78-1.14,17.22-2.08,24.79-3.17,7.56-1.09,14.34-2.78,19.02-6,3.72-2.41,6.82-5.68,9.01-9.53,1.53-2.83,1.95-4.55,2.08-4.52Z"/>
    <g class="cls-11">
      <path class="cls-1" d="M730.48,901.19v-48.74l-134.4-14.29s6.7,39.62,22.16,46.11c15.46,6.5,112.23,16.91,112.23,16.91Z"/>
    </g>
    <path class="cls-10" d="M603.46,838.84s6.83,25.23,12.11,32.42c4.78,6.57,9.72,8.7,24.79,11.51,12.24,2.31,22.99,3.3,22.99,3.3l-3.33-41.23-56.56-6Z"/>
    <path class="cls-8" d="M610.65,862.22s.55,1.66,2.08,4.42c2.19,3.9,5.28,7.21,9.01,9.66,4.68,3.22,11.48,4.86,19.02,6,7.53,1.14,15.98,2.03,24.79,3.15,17.59,2.21,33.51,4.29,45.02,5.84l13.61,1.92,3.72.6c.44.03.87.12,1.27.28-.44.06-.89.06-1.33,0l-3.72-.36-13.69-1.51c-11.56-1.32-27.49-3.25-45.08-5.46-8.81-1.12-17.17-2.08-24.81-3.27-7.64-1.19-14.55-2.96-19.36-6.41-3.8-2.58-6.87-6.09-8.94-10.19-.54-1.1-.99-2.24-1.35-3.4-.15-.41-.23-.84-.26-1.27Z"/>
    <path class="cls-3" d="M807.35,829.64c-1.46-.04-2.91.22-4.27.77-1.35.55-2.58,1.38-3.6,2.42-1.02,1.05-1.81,2.29-2.32,3.66-.51,1.37-.73,2.83-.65,4.29,1.35,17.9,4.91,51.47,12.73,57.6,10.76,8.44,319.56,17.25,348.73.41,13.3-7.79,16.89-38.97,17.85-55.36.05-1.31-.16-2.63-.63-3.85-.47-1.23-1.19-2.35-2.1-3.3-.92-.95-2.01-1.7-3.23-2.2-1.21-.51-2.52-.77-3.84-.75l-358.68-3.69Z"/>
    <path class="cls-8" d="M807.35,829.64c.74-.16,1.5-.22,2.26-.18l6.55-.13h25.23l92.8.34,137.7.99,81.27.7h13.35c1.07.04,2.13.22,3.14.55,2.05.63,3.88,1.8,5.33,3.38,1.43,1.56,2.39,3.5,2.75,5.59.17,1,.21,2.02.13,3.04l-.16,2.6c-.29,3.53-.6,7.04-1.01,10.57-.82,7.15-2.18,14.23-4.08,21.17-1,3.57-2.29,7.04-3.87,10.39-1.58,3.57-3.84,6.8-6.65,9.51-1.54,1.38-3.29,2.49-5.2,3.3-1.82.71-3.69,1.28-5.59,1.72-3.71.89-7.43,1.51-11.12,2.03-7.38,1.04-14.73,1.69-22,2.26-14.57,1.06-28.94,1.64-43.05,2.02-28.22.75-55.42.78-81.35.52-51.96-.6-98.49-2.24-137.69-4.78-9.8-.67-19.1-1.38-27.9-2.31-4.42-.47-8.68-.99-12.84-1.71-1.04-.16-2.05-.39-3.09-.62-1.66-.2-3.21-.89-4.48-1.98-1.27-1.08-2.18-2.52-2.64-4.13-1.56-3.38-2.75-6.92-3.56-10.55-.86-3.43-1.48-6.75-2.05-9.95-1.07-6.39-1.74-12.26-2.29-17.54-.55-5.27-.88-9.98-1.14-14.05-.29-1.94-.12-3.91.49-5.77.53-1.56,1.42-2.96,2.6-4.1.99-1,2.18-1.79,3.49-2.31,1.31-.52,2.72-.76,4.12-.7h.55s-.75,0-2.18.39c-2.06.49-3.93,1.57-5.4,3.09-1.15,1.22-1.98,2.7-2.43,4.31-.45,1.61-.51,3.31-.17,4.94.39,4.05.88,8.73,1.51,13.98.62,5.25,1.48,11.07,2.6,17.38.62,3.14,1.27,6.42,2.16,9.77.84,3.47,2.04,6.85,3.59,10.08.7,1.57,1.76,2.96,3.09,4.05,1.78.66,3.63,1.11,5.51,1.35,4.03.65,8.29,1.09,12.65,1.51,8.75.83,18.06,1.46,27.83,2.02,38.97,2.18,85.73,3.53,137.46,3.95,25.98.16,53.08,0,81.21-.75,14.06-.41,28.37-1.01,42.84-2.08,7.22-.55,14.5-1.22,21.72-2.24,3.61-.52,7.22-1.11,10.73-1.95,1.7-.4,3.38-.91,5.01-1.53,1.49-.64,2.85-1.52,4.05-2.6,2.44-2.37,4.39-5.18,5.77-8.29,1.48-3.16,2.7-6.43,3.64-9.79,1.83-6.75,3.15-13.63,3.95-20.58.44-3.46.75-6.91,1.01-10.39l.18-2.6c.08-.72.08-1.44,0-2.16-.26-1.38-.9-2.66-1.84-3.69-.95-1.04-2.16-1.83-3.51-2.26-.68-.2-1.39-.32-2.1-.34h-2.6l-10.63-.13-81.27-.94-137.7-1.82-92.77-1.59-25.23-.62-6.57-.26c-.7.06-1.41.04-2.1-.08Z"/>
    <path class="cls-8" d="M1163.78,891.32c0,.36-80.33.65-179.42.65s-179.47-.28-179.47-.65,80.33-.65,179.47-.65,179.42.29,179.42.65Z"/>
    <path class="cls-8" d="M1144.11,900.96c0,.36-68.01.67-151.91.67s-151.91-.31-151.91-.67,68.01-.65,151.91-.65,151.91.31,151.91.65Z"/>
    <path class="cls-8" d="M1169.7,880.77c0,.36-81.68.65-182.41.65s-182.41-.28-182.41-.65,81.66-.65,182.41-.65,182.41.28,182.41.65Z"/>
    <path class="cls-8" d="M1172.48,870.2c0,.36-82.3.65-183.79.65s-183.81-.28-183.81-.65,82.28-.65,183.81-.65,183.79.28,183.79.65Z"/>
    <path class="cls-8" d="M1172.48,859.62c0,.36-82.3.65-183.79.65s-183.81-.28-183.81-.65,82.28-.67,183.81-.67,183.79.34,183.79.67Z"/>
    <path class="cls-8" d="M1175.44,849.07c0,.36-82.96.65-185.27.65s-185.29-.28-185.29-.65,82.96-.65,185.29-.65,185.27.29,185.27.65Z"/>
    <path class="cls-8" d="M1175.44,838.53c0,.34-82.96.65-185.27.65s-185.29-.31-185.29-.65,82.96-.68,185.29-.68,185.27.31,185.27.68Z"/>
    <path class="cls-10" d="M939.67,689.35l26.52,17.22h23.2l26.4-17.22h-76.12Z"/>
    <path class="cls-8" d="M938.99,384.94c1.09,0,4.39,18.55,19.9,18.19,15.51-.36,53.31,0,53.31,0v-23.17l-73.21,4.99Z"/>
    <path class="cls-8" d="M1029.53,384.94c-1.12,0-.21,18.55-15.72,18.19-15.51-.36-44.69,0-44.69,0l-12.83-23.17,73.24,4.99Z"/>
    <path class="cls-8" d="M1022.65,409.56c1.05,0,2.08.22,3.03.67s1.78,1.11,2.43,1.93c3.69,4.88,11.09,14.96,11.28,18.19.12.97.05,1.97-.22,2.91-.27.94-.73,1.83-1.35,2.59-.62.76-1.39,1.39-2.26,1.85-.87.46-1.83.73-2.81.81-4.26.49-86,0-94.46,0-.53,0-1.05-.07-1.56-.18-2.24-.55-8.03-2.31-7.59-6.13.44-3.82,6.68-14.11,10-19.46.61-.98,1.46-1.8,2.48-2.36,1.01-.56,2.15-.85,3.31-.84l77.73.02Z"/>
    <path class="cls-8" d="M986.9,401.56h-5.56v9.66h5.56v-9.66Z"/>
    <path class="cls-7" d="M750.66,349.37c0-1.79,11.12-16.63,17.2-23.54,6.08-6.91,8.47-6.68,13.77-6.13,6.57.65,22.29,8.68,23.07,11.74.68,4.3,1.1,8.64,1.27,12.99l-10.6-.26s2.36-9.4-.78-11.28c-4.62-2.78-6.37-3.56-10.05-2.02-3.69,1.53-8.47,13.79-8.47,13.79l-25.41,4.7Z"/>
    <path class="cls-8" d="M1209.6,349.68c0,.34-103.92.65-231.85.65s-231.87-.31-231.87-.65,103.79-.68,231.87-.68,231.85.31,231.85.68Z"/>
    <g class="cls-11">
      <path class="cls-1" d="M1014.39,488.47c0-7.79-2.75-29.69-9.4-35.54-5.2-4.52-17.25-5.87-23.23-6.23h-.57c-3.17,0-24.37.67-30.71,6.26-6.34,5.58-9.41,27.8-9.41,35.54v.24c-.08,2.22.72,4.39,2.23,6.03,1.51,1.64,3.61,2.61,5.83,2.7h57.16c2.22-.09,4.32-1.07,5.83-2.7,1.51-1.64,2.31-3.8,2.22-6.03l.05-.26Z"/>
    </g>
    <g class="cls-11">
      <path class="cls-1" d="M1156.34,488.47c0-7.79-2.75-29.69-9.38-35.54-5.2-4.52-17.25-5.87-23.25-6.23h-.57c-3.17,0-24.37.67-30.71,6.26-6.34,5.58-9.4,27.8-9.4,35.54v.24c-.08,2.23.72,4.4,2.24,6.03,1.51,1.64,3.61,2.61,5.84,2.7h57.16c2.22-.09,4.32-1.07,5.83-2.7,1.51-1.64,2.31-3.8,2.22-6.03l.03-.26Z"/>
    </g>
    <g class="cls-11">
      <path class="cls-1" d="M860.22,488.47c0-7.79-2.75-29.69-9.4-35.54-5.2-4.52-17.25-5.87-23.23-6.23h-.57c-3.17,0-24.37.67-30.71,6.26-6.34,5.58-9.4,27.8-9.4,35.54v.24c-.08,2.22.72,4.39,2.22,6.03,1.51,1.64,3.61,2.61,5.83,2.7h57.16c2.22-.09,4.32-1.07,5.83-2.7,1.51-1.64,2.31-3.8,2.22-6.03l.05-.26Z"/>
    </g>
    <path class="cls-8" d="M878.72,487.07c0-11.66-4.16-44.69-14.13-53.49-7.79-6.78-25.98-8.81-34.97-9.38h-.86c-4.78,0-36.66.99-46.22,9.4-9.98,8.81-14.13,41.83-14.13,53.5v.36c-.09,3.33,1.13,6.56,3.4,8.98,2.27,2.43,5.41,3.87,8.73,4.01h86.05c3.32-.13,6.46-1.57,8.73-4.01,2.27-2.43,3.49-5.66,3.4-8.98v-.39Z"/>
    <path class="cls-8" d="M725.28,555.86s4.49-31.18,12.21-40.87c13.59-16.99,86.12-10.89,86.12-10.89,0,0,69.24-4.42,79.21,6.91,9.98,11.33,15.87,43.67,15.87,43.67l-193.42,1.17Z"/>
    <path class="cls-8" d="M1188.09,483.95c0-11.67-4.16-44.69-14.16-53.5-7.8-6.78-25.98-8.81-34.97-9.38h-.83c-4.78,0-36.68.99-46.24,9.41-9.98,8.81-14.13,41.83-14.13,53.49v.36c-.13,3.35,1.08,6.61,3.35,9.07,2.28,2.46,5.43,3.92,8.78,4.05h86.07c3.35-.14,6.5-1.6,8.77-4.06,2.27-2.46,3.48-5.72,3.36-9.06v-.39Z"/>
    <path class="cls-8" d="M1037.04,550.95s4.52-30.92,12.24-40.48c13.59-16.84,86.1-10.78,86.1-10.78,0,0,69.26-4.39,79.21,6.83,9.95,11.22,15.88,43.28,15.88,43.28l-193.42,1.15Z"/>
    <g class="cls-11">
      <path class="cls-10" d="M737.88,402.89c-12.99,20.05-45.8,103.92-45.8,103.92,0,0,114.31,4.65,118.29-4.65,3.98-9.3,63.5-110.18,63.5-110.18,0,0-126.39-3.84-135.98,10.91Z"/>
    </g>
    <path class="cls-8" d="M1376.99,778.83s-.42.57-1.27,1.66c-.51.71-1.08,1.37-1.71,1.98-.81.89-1.67,1.71-2.6,2.47-6.15,5.09-13.2,8.99-20.78,11.51-11.89,4.09-24.19,6.86-36.68,8.23-7.27.91-15.09,1.53-23.38,1.84-8.29.31-17.12,0-26.34.16l-288.38.21c-112.6,0-214.52,0-288.38-.34-9.25-.16-18-.16-26.34-.42-7.84-.55-15.64-1.51-23.38-2.88-12.37-2.09-24.54-5.23-36.37-9.4-7.52-2.53-14.68-6.03-21.3-10.39-1.73-1.13-3.36-2.4-4.88-3.79l-1.56-1.43,1.66,1.33c1.54,1.35,3.2,2.58,4.94,3.66,6.66,4.27,13.82,7.69,21.33,10.18,11.85,4.06,24.01,7.12,36.37,9.15,7.74,1.35,15.54,2.28,23.38,2.78,8.26.24,17.07.18,26.29.31h288.38l288.38.18c9.22,0,18.03.15,26.32,0,8.29-.16,16.08-.89,23.38-1.74,12.45-1.3,24.72-3.98,36.58-7.98,7.55-2.46,14.59-6.26,20.78-11.22.92-.75,1.79-1.55,2.6-2.41.62-.59,1.21-1.23,1.74-1.9.75-1.22,1.25-1.74,1.25-1.74Z"/>
  </g>
</svg>
