<?xml version="1.0" encoding="UTF-8"?>
<svg id="Layer_1" data-name="Layer 1" xmlns="http://www.w3.org/2000/svg" viewBox="0 0 1898.97 1783.74">
  <defs>
    <style>
      .cls-1, .cls-2, .cls-3, .cls-4, .cls-5, .cls-6, .cls-7, .cls-8, .cls-9, .cls-10, .cls-11 {
        stroke-width: 0px;
      }

      .cls-1, .cls-9, .cls-10 {
        fill: #000;
      }

      .cls-2 {
        fill: #e0e0e0;
      }

      .cls-3 {
        fill: #455a64;
      }

      .cls-4 {
        fill: #f5f5f5;
      }

      .cls-5 {
        fill: #09f;
      }

      .cls-6 {
        fill: #ebebeb;
      }

      .cls-7 {
        fill: #e2323d;
      }

      .cls-8 {
        fill: #263238;
      }

      .cls-12, .cls-9 {
        opacity: .3;
      }

      .cls-9, .cls-10 {
        isolation: isolate;
      }

      .cls-10 {
        opacity: .4;
      }

      .cls-13 {
        opacity: .6;
      }

      .cls-11 {
        fill: #fff;
      }
    </style>
  </defs>
  <path class="cls-6" d="M10.62,628.85s-26.51,10.72,4.26,67.06c30.76,56.34,51.53,84.04,51.53,84.04,0,0,5.49,13.11-5.62,15.45-11.11,2.34-35.74-.94-40.34,12.76-4.6,13.7,5.83,27.36,26.98,38.56,21.15,11.19,66.55,37.32,70.68,39.7,4.13,2.38,8.13,8.51.85,11.23-7.28,2.72-62.38,10-57.4,35.91,4.98,25.92,68.98,47.41,75.95,49.87,6.98,2.46,8.51,5.36,8.21,9.15-.3,3.79-19.23,4.47-34.81,7.15-15.57,2.68-33.19,8.51-29.06,23.27,4.13,14.77,42.55,44.89,133.99,51.44l42.55.3,22.25-36.55c42.55-81.1,37.49-129.65,27.15-140.93-10.34-11.28-24.55.55-35.1,12.38-10.55,11.83-20.98,27.32-24.47,25.53-3.49-1.79-4.98-4.6-3.4-11.83,1.57-7.23,17.02-72.89-2.13-90.85-19.15-17.96-54.64,25.02-60.89,29.79-6.25,4.77-9.19-2-9.06-6.68.13-4.68,1.96-57.14,3.66-80.84,1.7-23.71-3.79-39.79-18.42-43.28-14.64-3.49-24.38,19.28-32.25,27.44-7.87,8.17-16.08-3.45-16.08-3.45,0,0-12.64-32.25-44.25-87.99-31.62-55.74-55.32-38.3-55.32-38.3"/>
  <path class="cls-2" d="M260.69,1084.75c-23.02-41.02-62.81-114.63-97.23-177.65-34.42-63.02-65.7-120-88.55-161.14-11.4-20.55-20.68-37.15-27.11-48.72l-7.4-13.23-1.87-3.45c-.43-.81-.6-1.23-.6-1.23l.72,1.15,2,3.4,7.57,13.11c6.55,11.4,15.96,28,27.45,48.51,23.06,41.02,54.42,97.87,88.89,160.97,34.47,63.1,74.12,136.72,97.1,178.03"/>
  <path class="cls-2" d="M54.57,814.21c1.02.15,2.01.41,2.98.76,1.91.56,4.64,1.45,8,2.55,6.68,2.3,15.87,5.66,25.91,9.53l25.53,10.08,7.79,2.98c.99.32,1.94.73,2.85,1.23-1.03-.13-2.05-.37-3.02-.72-1.87-.6-4.6-1.45-7.96-2.64-6.68-2.34-15.83-5.79-25.87-9.7l-25.79-9.87-7.83-2.98c-.91-.31-1.78-.72-2.6-1.23Z"/>
  <path class="cls-2" d="M130.65,838.54c-.34,0,5.79-19.36,13.66-42.93,7.87-23.57,14.51-42.55,14.85-42.55s-5.74,19.36-13.62,42.98c-7.87,23.62-14.51,42.64-14.89,42.51Z"/>
  <path class="cls-2" d="M179.2,937.69c.45-.95,1.01-1.85,1.66-2.68l4.85-7.02c4.26-5.91,9.74-14.17,15.62-23.44,5.87-9.28,10.94-17.88,14.51-24.13l4.26-7.41c.47-.94,1.04-1.83,1.7-2.64-.34.98-.77,1.94-1.28,2.85-.85,1.83-2.21,4.25-3.91,7.62-3.36,6.39-8.51,15.07-14.21,24.38-5.7,9.32-11.66,17.53-15.96,23.32-2.13,2.89-3.91,5.23-5.19,6.81-.59.86-1.27,1.64-2.04,2.34Z"/>
  <path class="cls-2" d="M105.55,930.84c.96-.11,1.93-.11,2.89,0l7.87.43c6.68.39,15.87,1.06,26,1.87,10.13.81,19.32,1.62,25.96,2.26l7.87.85c.97.05,1.92.2,2.85.47-.96.16-1.94.16-2.89,0l-7.87-.43c-6.68-.43-15.87-1.06-26-1.87-10.13-.81-19.32-1.62-25.96-2.3l-7.79-.81c-.99-.04-1.98-.2-2.94-.47Z"/>
  <path class="cls-2" d="M137.25,1023.82c1.25-.11,2.5-.11,3.74,0l10.08.51c8.51.51,20.34,1.23,33.36,2.17,13.02.94,24.76,1.83,33.28,2.51l10.08.93c1.25.07,2.48.24,3.7.51-1.23.11-2.47.11-3.7,0l-10.13-.51c-8.51-.47-20.34-1.23-33.32-2.13-12.98-.89-24.81-1.83-33.32-2.55l-10.08-.89c-1.25-.07-2.49-.25-3.7-.55Z"/>
  <path class="cls-2" d="M229.29,1029.69c.55-1.21,1.22-2.37,2-3.45,1.53-2.34,3.49-5.44,5.87-9.15,4.94-7.7,11.66-18.38,18.81-30.38,7.15-12,13.32-23.02,17.74-31.02,2.13-3.87,3.91-7.06,5.28-9.49.58-1.21,1.26-2.36,2.04-3.45-.43,1.26-.97,2.49-1.62,3.66-1.11,2.3-2.77,5.62-4.85,9.7-4.25,8.13-10.3,19.23-17.45,31.28-7.15,12.04-14.04,22.64-19.19,30.21-2.55,3.78-4.68,6.85-6.17,8.94-.75,1.1-1.57,2.16-2.47,3.15Z"/>
  <path class="cls-4" d="M1156.66,553.11c-67.15-58.59-73.48-154.55-61.49-238.93,2-14.08,2.04-29.15,10.13-40.85,8.08-11.7,24.64-18.47,36.68-11.15,9.96,6.08,13.19,18.81,18,29.53,6.41,14.32,16.73,26.53,29.79,35.23,8.51,5.62,19.32,9.7,28.72,5.74,12.76-5.4,16.17-22.08,17.61-36.17,2.64-26.21,5.29-52.42,7.96-78.63,1.44-14.08,2.93-28.42,8.76-41.32,5.83-12.89,16.81-24.21,30.55-26.51,13.74-2.3,29.48,7.19,30.85,21.28-.12,5.87-.61,11.73-1.49,17.53-.26,5.91,1.79,12.77,7.15,14.85,5.36,2.09,11.49-1.11,16.12-4.77,16.04-12.77,27.87-29.79,39.02-47.06,11.15-17.28,22.08-34.85,36.94-48.89,14.85-14.04,34.38-24.38,54.64-23.36,20.25,1.02,40.34,15.79,43.32,36.08,2.98,20.3-10.77,39.23-25.06,53.91-21.24,21.82-45.51,40.45-72.08,55.32-5.08,2.13-9.35,5.82-12.17,10.55-4.25,9.06,3.79,19.32,12.77,23.4,10.12,4.6,21.61,4.77,32.42,7.23,10.81,2.47,22.17,8.51,25.19,19.36,4.25,15.02-9.41,28.76-22.3,37.36-25.82,17.2-54.4,29.84-84.51,37.36-10.77,2.68-22,4.81-31.11,11.19-9.11,6.38-15.53,18.42-11.57,28.89,3.96,10.47,16.55,15.02,27.62,14.17,11.06-.85,21.27-5.66,32.12-8.51,20.08-5.19,44.89-1.19,55.32,17.02,6.94,11.87,6,27.23.51,39.87-6.12,12.37-14.63,23.39-25.06,32.43-34.59,33.46-77.43,57.16-124.17,68.68-46.51,10.72-88.46,10.43-131.27-10.64"/>
  <path class="cls-2" d="M1184.23,502.39c19.03-44.62,40.62-88.11,64.63-130.25l18.68-33.28c6.17-10.89,12.3-21.7,18.89-31.91,12.78-19.56,26.62-38.41,41.45-56.47,14.09-17.36,28.05-33.28,41.19-48.08,13.15-14.81,25.79-28.3,37.79-40.17,18.81-18.8,39.08-36.08,60.64-51.66,7.62-5.53,13.66-9.62,17.79-12.34l4.73-3.06c.52-.36,1.08-.68,1.66-.94l-1.54,1.19-4.55,3.28c-4.04,2.85-10,7.06-17.49,12.77-21.26,15.87-41.3,33.31-59.96,52.17-11.87,11.91-24.34,25.53-37.44,40.34-13.11,14.81-26.98,30.81-40.93,48.13-14.73,18.02-28.47,36.83-41.15,56.34-6.6,10.17-12.76,20.89-18.81,31.83l-18.68,33.23c-23.97,42.06-45.56,85.43-64.68,129.91"/>
  <path class="cls-2" d="M1287.16,306.91c-.46-2.01-.71-4.06-.73-6.13-.34-3.96-.59-9.7-.85-16.81-.47-14.21-.47-34.04-.34-55.53.13-21.49-.21-41.27-.89-55.32-.34-7.06-.64-12.77-.94-16.77-.22-2.05-.22-4.12,0-6.17.64,1.97,1.03,4.02,1.15,6.09.6,3.91,1.19,9.66,1.75,16.72,1.19,14.21,1.75,34.04,1.66,55.57-.09,21.53-.3,40.72-.38,55.32v17.02c.05,2.01-.09,4.02-.43,6Z"/>
  <path class="cls-2" d="M1471.58,292.61c-2.42.26-4.86.26-7.27,0-4.68,0-11.49-.26-19.83,0-16.77,0-39.92.81-65.4,2.85-25.49,2.04-48.47,4.89-65.02,7.45-8.3,1.19-14.98,2.34-19.62,3.15-2.37.56-4.8.87-7.23.94,2.29-.86,4.66-1.52,7.06-1.96,4.56-1.06,11.23-2.51,19.49-4,16.55-2.98,39.57-6.13,65.15-8.21,21.81-1.8,43.69-2.5,65.57-2.09,8.51,0,15.19.64,19.87,1.02,2.43.06,4.86.34,7.23.85Z"/>
  <path class="cls-2" d="M1186.82,499.28c-.45-.73-.79-1.52-1.02-2.34-.64-1.83-1.4-4.25-2.38-6.85-2.04-6-4.77-14.72-8-25.53-6.51-21.66-14.51-51.83-22.89-85.1-8.38-33.28-16.17-63.83-22.17-85.4-2.98-10.55-5.41-19.28-7.23-25.53l-1.92-7.4c-.29-.79-.46-1.63-.51-2.47.45.73.79,1.52,1.02,2.34.64,1.83,1.4,4.26,2.38,6.85,2.04,5.96,4.77,14.72,8,25.53,6.51,21.66,14.51,51.83,22.94,85.1,8.42,33.28,16.12,63.61,22.12,85.4,2.98,10.55,5.4,19.28,7.23,25.53l1.92,7.02c.32.91.49,1.88.51,2.85Z"/>
  <path class="cls-2" d="M1435.37,447.75c-.8.35-1.65.59-2.51.72l-7.23,1.62-26.6,5.53c-22.51,4.72-53.44,11.57-87.65,19.19-34.21,7.62-65.28,14.17-87.87,18.42-11.27,2.13-20.42,3.74-26.76,4.73l-7.32,1.1c-.85.21-1.73.28-2.6.21.8-.35,1.65-.59,2.51-.72l7.19-1.58,26.64-5.57c22.47-4.68,53.44-11.53,87.65-19.19,34.21-7.66,65.28-14.17,87.83-18.42,11.32-2.13,20.47-3.74,26.81-4.72l7.32-1.11c.85-.18,1.73-.25,2.6-.21Z"/>
  <path class="cls-4" d="M1624.96,560.74h243.61s-21.57-39.19-84.25-33.49c-59.87,5.45-62.93-19.28-93.36-22.34-30.42-3.07-55.83,20.29-66,55.82Z"/>
  <path class="cls-4" d="M424.96,1783.74h243.61s-21.57-39.19-84.25-33.49c-59.87,5.45-62.93-19.28-93.36-22.34-30.42-3.07-55.83,20.29-66,55.82Z"/>
  <path class="cls-6" d="M127.97,86.12h373.81s-33.06-60.21-129.48-51.44C280.43,43.19,275.75,4.89,229.03.38c-46.72-4.51-85.49,31.15-101.06,85.74Z"/>
  <path class="cls-6" d="M1595.28,1605.58h303.69s-26.85-50.08-105.02-42.55c-74.68,6.93-78.47-24.64-116.42-28.51-37.96-3.87-69.62,25.7-82.25,71.06Z"/>
  <path class="cls-4" d="M324.18,212.54h191.78s-17.02-30.85-66.34-26.34c-47.15,4.26-49.53-15.19-73.49-17.57-23.96-2.38-43.96,15.96-51.96,43.91Z"/>
  <path class="cls-4" d="M1499.41,1688h191.74s-17.02-30.85-66.34-26.38c-47.1,4.25-49.53-15.19-73.48-17.57-23.96-2.38-43.96,16-51.92,43.96Z"/>
  <g>
    <path class="cls-5" d="M1660.74,951.07c-1.01-3.47-1.33-7.09-.94-10.68-.3-3.58.12-7.18,1.23-10.6,1.07,3.44,1.4,7.06.98,10.64.32,3.6-.12,7.22-1.27,10.64Z"/>
    <path class="cls-5" d="M1658.39,993.54c-.97-7.12-.45-14.37,1.53-21.28.98,7.12.46,14.37-1.53,21.28Z"/>
    <path class="cls-5" d="M1653.33,1035.8c-.62-3.55-.52-7.18.3-10.68.13-3.6.97-7.15,2.47-10.43.67,3.55.57,7.21-.3,10.72-.12,3.59-.95,7.12-2.47,10.39Z"/>
    <path class="cls-5" d="M1645.88,1077.83c-.4-3.59-.09-7.22.94-10.68.33-3.58,1.38-7.05,3.11-10.21.41,3.57.09,7.19-.93,10.64-.33,3.6-1.38,7.08-3.11,10.25Z"/>
    <path class="cls-5" d="M1636.01,1119.07c.28-7.15,2.06-14.17,5.23-20.59-.28,7.15-2.06,14.17-5.23,20.59Z"/>
    <path class="cls-5" d="M1623.67,1159.79c0-3.6.73-7.16,2.17-10.47.74-3.52,2.19-6.84,4.25-9.78,0,3.6-.73,7.16-2.17,10.47-.71,3.53-2.16,6.86-4.25,9.79Z"/>
    <path class="cls-5" d="M1608.95,1199.7c.23-3.59,1.18-7.09,2.8-10.29.93-3.49,2.58-6.73,4.85-9.53-.24,3.6-1.19,7.11-2.81,10.34-.95,3.46-2.6,6.69-4.85,9.49Z"/>
    <path class="cls-5" d="M1591.89,1238.68c.44-3.57,1.6-7.01,3.4-10.12,1.18-3.41,3.02-6.54,5.4-9.24-.42,3.59-1.58,7.05-3.4,10.17-1.16,3.4-3,6.53-5.4,9.19Z"/>
    <path class="cls-5" d="M1572.52,1276.59c.68-3.53,2.04-6.9,4-9.91,2.76-5.19,5.4-9.19,5.96-8.9-.64,3.55-2,6.92-4,9.91-2.72,5.19-5.19,9.19-5.96,8.9Z"/>
    <path class="cls-5" d="M1550.99,1313.27c.86-3.5,2.42-6.78,4.6-9.66,3.02-5.02,5.92-8.85,6.47-8.51-.87,3.49-2.43,6.78-4.6,9.66-3.07,5.02-5.96,8.85-6.47,8.51Z"/>
    <path class="cls-5" d="M1527.33,1348.63c1.1-3.44,2.84-6.63,5.15-9.41,3.32-4.81,6.43-8.51,6.94-8.08-1.05,3.43-2.79,6.62-5.11,9.36-3.36,4.85-6.47,8.47-6.98,8.13Z"/>
    <path class="cls-5" d="M1501.68,1382.55c1.24-3.38,3.17-6.46,5.66-9.07,3.62-4.64,6.93-8.08,7.41-7.7.47.39-2.04,4.25-5.66,9.07-3.62,4.81-6.94,8.08-7.41,7.7Z"/>
    <path class="cls-5" d="M1474.06,1414.89c-.47-.43,2.3-4.26,6.17-8.51s7.41-7.66,7.87-7.27c.47.38-2.3,4.25-6.21,8.72-3.91,4.47-7.41,7.45-7.83,7.06Z"/>
    <path class="cls-5" d="M1444.57,1445.52c-.43-.43,2.55-4.25,6.68-8.51,4.13-4.25,7.83-7.19,8.3-6.77.47.43-2.55,4.26-6.72,8.51-4.17,4.25-7.83,7.19-8.25,6.76Z"/>
    <path class="cls-5" d="M1413.38,1474.41c-.43-.47,2.81-4,7.15-7.92,4.34-3.91,8.25-6.76,8.51-6.3.26.47-2.76,4-7.15,7.92-4.38,3.91-8.13,6.76-8.51,6.3Z"/>
    <path class="cls-5" d="M1380.53,1501.43c-.38-.51,3.02-3.83,7.62-7.49,2.58-2.5,5.63-4.47,8.98-5.78.43.47-3.02,3.83-7.62,7.49-2.56,2.52-5.62,4.49-8.98,5.78Z"/>
    <path class="cls-5" d="M1346.15,1526.45c-.34-.51,3.28-3.66,8.04-7.02,2.71-2.37,5.88-4.15,9.32-5.24.38.51-3.24,3.66-8.04,7.02-2.71,2.36-5.89,4.15-9.32,5.23Z"/>
    <path class="cls-5" d="M1310.41,1549.43c-.34-.51,3.45-3.45,8.51-6.55,2.86-2.18,6.14-3.77,9.62-4.68.34.55-3.45,3.45-8.51,6.55-2.85,2.21-6.12,3.8-9.62,4.68Z"/>
    <path class="cls-5" d="M1273.34,1570.28c-.3-.55,3.66-3.24,8.81-6.04,2.96-2.1,6.32-3.55,9.87-4.26-2.51,2.58-5.5,4.64-8.81,6.05-2.96,2.08-6.32,3.53-9.87,4.25Z"/>
    <path class="cls-5" d="M1235.09,1588.87c2.65-2.42,5.76-4.29,9.15-5.49,3.1-1.86,6.54-3.06,10.13-3.53-2.66,2.45-5.78,4.33-9.19,5.53-3.09,1.85-6.52,3.04-10.08,3.49Z"/>
    <path class="cls-5" d="M1195.81,1605.22c2.79-2.29,6.02-3.99,9.49-4.98,3.21-1.65,6.71-2.63,10.3-2.89-2.8,2.27-6.03,3.96-9.49,4.98-3.21,1.65-6.71,2.63-10.3,2.89Z"/>
    <path class="cls-5" d="M1155.65,1619.17c2.92-2.06,6.24-3.51,9.74-4.25,3.29-1.5,6.85-2.28,10.47-2.3-6.2,3.6-13.08,5.88-20.21,6.68v-.13Z"/>
    <path class="cls-5" d="M1114.75,1630.75c3.02-1.94,6.41-3.25,9.96-3.83,3.38-1.26,6.98-1.83,10.6-1.66-3.05,1.93-6.45,3.23-10,3.83-3.37,1.25-6.96,1.82-10.55,1.66Z"/>
    <path class="cls-5" d="M1073.18,1639.85c3.15-1.74,6.63-2.82,10.21-3.19,3.44-1.07,7.06-1.44,10.64-1.06-3.15,1.76-6.62,2.86-10.21,3.23-3.44,1.05-7.06,1.4-10.64,1.02Z"/>
    <path class="cls-5" d="M1031.18,1646.49c3.2-1.57,6.66-2.49,10.21-2.72,3.5-.84,7.12-.99,10.68-.43-6.73,2.49-13.91,3.53-21.07,3.02l.17.13Z"/>
    <path class="cls-5" d="M988.84,1650.66c3.34-1.36,6.91-2.04,10.51-2,3.54-.66,7.18-.57,10.68.26-3.34,1.35-6.91,2.02-10.51,1.96-3.54.68-7.17.61-10.68-.21Z"/>
    <path class="cls-5" d="M946.33,1652.27c3.4-1.19,7.01-1.66,10.6-1.36,3.58-.45,7.21-.18,10.68.81-3.41,1.2-7.03,1.68-10.64,1.4-3.57.43-7.18.14-10.64-.85Z"/>
    <path class="cls-5" d="M903.78,1651.6c3.47-1.01,7.1-1.27,10.68-.76,3.59-.24,7.19.25,10.6,1.44-7.06,1.25-14.31,1.02-21.28-.68Z"/>
    <path class="cls-5" d="M861.36,1648.32c3.53-.7,7.15-.7,10.68,0,3.61-.03,7.18.68,10.51,2.09-3.54.73-7.19.73-10.73,0-3.59.04-7.16-.67-10.47-2.09Z"/>
    <path class="cls-5" d="M819.19,1642.62c7.15-.44,14.31.64,21.02,3.15-3.56.59-7.19.43-10.68-.47-3.59-.19-7.11-1.1-10.34-2.68Z"/>
    <path class="cls-5" d="M777.58,1634.41c3.58-.35,7.2.03,10.64,1.1,3.59.38,7.05,1.51,10.17,3.32-7.15.02-14.23-1.43-20.81-4.25v-.17Z"/>
    <path class="cls-5" d="M736.26,1623.72c7.16.43,14.15,2.36,20.51,5.66-3.6.14-7.18-.46-10.55-1.74-3.55-.61-6.94-1.95-9.96-3.92Z"/>
    <path class="cls-5" d="M695.75,1610.66c3.6.05,7.15.85,10.43,2.34,3.51.85,6.81,2.37,9.74,4.47-3.6-.05-7.15-.85-10.43-2.34-3.51-.83-6.82-2.35-9.74-4.47Z"/>
    <path class="cls-5" d="M656.14,1595.18c3.58.29,7.07,1.3,10.25,2.98,3.47,1.01,6.68,2.74,9.45,5.06-7.06-1.27-13.77-4.01-19.7-8.04Z"/>
    <path class="cls-5" d="M617.5,1577.39c6.96,1.72,13.49,4.85,19.19,9.19-3.57-.51-7-1.72-10.08-3.57-5.32-2.55-9.41-5.07-9.11-5.62Z"/>
    <path class="cls-5" d="M579.97,1557.35c3.53.75,6.87,2.2,9.83,4.25,3.31,1.41,6.29,3.48,8.76,6.09-3.53-.73-6.88-2.17-9.83-4.25-5.15-2.81-9.06-5.53-8.76-6.09Z"/>
    <path class="cls-5" d="M543.54,1535.13c3.48.92,6.74,2.54,9.57,4.77,4.98,3.15,8.72,6.09,8.51,6.64-3.49-.95-6.75-2.62-9.57-4.89-4.94-3.02-8.51-6-8.51-6.51Z"/>
    <path class="cls-5" d="M508.78,1510.84c3.4,1.13,6.54,2.92,9.23,5.28,4.77,3.41,8.51,6.6,8,7.11-3.43-1.12-6.58-2.93-9.28-5.32-4.77-3.4-8.34-6.55-7.96-7.06Z"/>
    <path class="cls-5" d="M475.46,1484.54c3.37,1.3,6.42,3.29,8.98,5.83,4.55,3.7,7.91,7.11,7.57,7.58-3.36-1.31-6.42-3.29-8.98-5.83-4.68-3.7-8.08-7.1-7.57-7.58Z"/>
    <path class="cls-5" d="M443.5,1456.54c3.23,1.53,6.13,3.68,8.51,6.34,4.26,3.96,7.49,7.53,7.11,8-.38.47-4.26-2.38-8.51-6.34-4.26-3.96-7.49-7.79-7.11-8Z"/>
    <path class="cls-5" d="M413.42,1426.29c3.15,1.74,5.94,4.06,8.21,6.85,4.25,4.26,7.06,7.96,6.6,8.51-.47.55-4.25-2.6-8.21-6.81-3.96-4.21-7.06-8.09-6.6-8.55Z"/>
    <path class="cls-5" d="M385.08,1394.59c.51-.43,4,2.85,7.83,7.28,2.59,2.5,4.67,5.47,6.13,8.76-.47.42-3.96-2.85-7.83-7.28-3.87-4.42-6.6-8.38-6.13-8.76Z"/>
    <path class="cls-5" d="M358.7,1361.23c.51-.34,3.79,3.11,7.36,7.79,2.47,2.63,4.38,5.72,5.62,9.11-.51.34-3.79-3.11-7.36-7.79-3.57-4.68-6.13-8.72-5.62-9.11Z"/>
    <path class="cls-5" d="M334.32,1326.42c.51-.34,3.57,3.32,6.85,8.17,2.32,2.75,4.04,5.95,5.06,9.4-.47.38-3.57-3.28-6.89-8.17-2.3-2.76-4.01-5.96-5.02-9.41Z"/>
    <path class="cls-5" d="M311.98,1290.21c.55-.3,3.4,3.53,6.43,8.51,2.05,2.91,3.5,6.21,4.25,9.7-.51.3-3.36-3.53-6.38-8.51-2.08-2.91-3.54-6.21-4.3-9.7Z"/>
    <path class="cls-5" d="M291.85,1252.81c.55-.3,3.19,3.7,5.87,8.9,1.96,3.02,3.29,6.41,3.91,9.95-.55.3-3.19-3.7-5.87-8.94-1.98-3-3.31-6.37-3.91-9.91Z"/>
    <path class="cls-5" d="M273.94,1214.21c4.15,5.81,7.05,12.42,8.51,19.41-.55.3-2.98-3.87-5.36-9.23-1.72-3.15-2.79-6.61-3.15-10.17Z"/>
    <path class="cls-5" d="M258.45,1174.64c2.18,2.85,3.77,6.11,4.68,9.57,1.59,3.23,2.52,6.75,2.72,10.34-2.23-2.83-3.85-6.09-4.77-9.57-1.59-3.23-2.49-6.75-2.64-10.34Z"/>
    <path class="cls-5" d="M245.13,1134.21c2.06,2.96,3.51,6.3,4.25,9.83,1.42,3.32,2.13,6.9,2.09,10.51-2.06-2.96-3.5-6.3-4.25-9.83-1.41-3.32-2.12-6.9-2.09-10.51Z"/>
    <path class="cls-5" d="M234.32,1093.11c1.91,3.05,3.16,6.47,3.66,10.04,1.21,3.4,1.7,7,1.45,10.6-1.88-3.06-3.12-6.48-3.62-10.04-1.2-3.4-1.71-7-1.49-10.6Z"/>
    <path class="cls-5" d="M225.98,1051.36c1.71,3.19,2.74,6.7,3.02,10.3,1,3.45,1.29,7.07.85,10.64-1.7-3.18-2.73-6.66-3.02-10.25-1-3.47-1.29-7.1-.85-10.68Z"/>
    <path class="cls-5" d="M220.15,1009.24c1.52,3.27,2.35,6.82,2.43,10.43.72,3.52.72,7.15,0,10.68-2.38-6.83-3.27-14.08-2.64-21.28l.21.17Z"/>
    <path class="cls-5" d="M216.75,966.86c1.29,3.35,1.9,6.92,1.79,10.51.6,3.56.46,7.21-.43,10.72-1.3-3.36-1.9-6.95-1.79-10.55-.58-3.55-.44-7.19.43-10.68Z"/>
    <path class="cls-5" d="M215.9,924.31c1.08,3.44,1.47,7.05,1.15,10.64.4,3.57.07,7.19-.98,10.64-1.11-3.43-1.53-7.04-1.23-10.64-.4-3.58-.04-7.21,1.06-10.64Z"/>
    <path class="cls-5" d="M217.39,881.8c.9,3.49,1.09,7.12.55,10.68.18,3.59-.38,7.18-1.66,10.55-.89-3.49-1.08-7.12-.55-10.68-.2-3.6.37-7.19,1.66-10.55Z"/>
    <path class="cls-5" d="M221.39,839.55c.75,3.52.75,7.16,0,10.68-.05,3.6-.81,7.16-2.26,10.47-.73-7.17.05-14.42,2.3-21.28l-.04.13Z"/>
    <path class="cls-5" d="M227.9,797.37c.52,3.57.29,7.21-.68,10.68-.25,3.56-1.2,7.03-2.81,10.21-.52-3.57-.29-7.21.68-10.68.24-3.56,1.2-7.03,2.81-10.21Z"/>
    <path class="cls-5" d="M236.92,755.76c-.14,7.18-1.78,14.25-4.81,20.77-.28-3.6.17-7.22,1.32-10.64.46-3.58,1.64-7.02,3.49-10.12Z"/>
    <path class="cls-5" d="M248.32,714.79c-.59,7.14-2.63,14.09-6,20.42-.1-3.6.55-7.18,1.91-10.51.69-3.55,2.07-6.92,4.08-9.91Z"/>
    <path class="cls-5" d="M262.15,674.57c-.12,3.6-.99,7.14-2.55,10.38-.9,3.48-2.48,6.75-4.64,9.62.12-3.6.99-7.14,2.55-10.38.89-3.49,2.46-6.75,4.64-9.62Z"/>
    <path class="cls-5" d="M278.36,635.3c-.35,3.58-1.42,7.05-3.15,10.21-1.11,3.44-2.89,6.62-5.23,9.36.35-3.59,1.44-7.06,3.19-10.21,1.06-3.45,2.83-6.64,5.19-9.36Z"/>
    <path class="cls-5" d="M296.74,597c-1.84,6.93-5.08,13.4-9.53,19.02.56-3.56,1.85-6.96,3.79-10,2.77-5.36,5.32-9.4,5.74-9.02Z"/>
    <path class="cls-5" d="M317.59,559.77c-.72,3.51-2.17,6.83-4.25,9.75-2.94,5.06-5.74,8.98-6.3,8.51.76-3.51,2.21-6.83,4.26-9.79,2.98-4.94,5.79-8.8,6.3-8.47Z"/>
    <path class="cls-5" d="M340.49,523.9c-.98,3.47-2.66,6.7-4.94,9.49-3.23,4.89-6.26,8.51-6.77,8.25,1-3.46,2.68-6.68,4.94-9.49,3.23-4.9,6.26-8.6,6.77-8.26Z"/>
    <path class="cls-5" d="M365.42,489.43c-1.16,3.41-3.01,6.54-5.45,9.19-3.53,4.68-6.77,8.21-7.28,7.87-.51-.34,1.96-4.25,5.49-9.19,3.53-4.94,6.64-8.26,7.23-7.87Z"/>
    <path class="cls-5" d="M392.36,456.58c.47.43-2.26,4.25-6,8.85-3.74,4.6-7.23,7.83-7.7,7.45-.47-.38,2.21-4.25,6-8.85,3.79-4.6,7.23-7.92,7.7-7.45Z"/>
    <path class="cls-5" d="M421.12,425.22c.47.42-2.47,4.25-6.51,8.51-4.04,4.25-7.66,7.36-8.08,6.98-.43-.38,2.47-4.25,6.51-8.51,4.04-4.26,7.66-7.41,8.08-6.98Z"/>
    <path class="cls-5" d="M451.72,395.65c.43.47-2.72,4.26-6.98,8.09-4.25,3.83-8.08,6.89-8.51,6.47-.43-.43,2.68-4.04,6.98-8.08,4.3-4.04,8.08-6.94,8.51-6.47Z"/>
    <path class="cls-5" d="M483.97,367.95c.38.47-2.98,3.91-7.45,7.66-2.53,2.56-5.56,4.59-8.89,5.96-.38-.47,2.94-3.91,7.45-7.66,2.52-2.58,5.55-4.61,8.89-5.96Z"/>
    <path class="cls-5" d="M517.76,342.16c.38.51-3.15,3.7-7.87,7.19-2.68,2.4-5.8,4.25-9.19,5.45-.38-.47,3.15-3.7,7.87-7.23,2.66-2.41,5.79-4.25,9.19-5.4Z"/>
    <path class="cls-5" d="M553.03,318.42c.34.51-3.4,3.53-8.3,6.72-2.8,2.25-6.03,3.91-9.49,4.89-.34-.51,3.36-3.53,8.3-6.76,2.78-2.27,6.02-3.92,9.49-4.85Z"/>
    <path class="cls-5" d="M589.62,296.76c.3.56-3.57,3.32-8.51,6.26-2.94,2.07-6.27,3.51-9.79,4.25,2.4-2.62,5.29-4.75,8.51-6.26,2.93-2.07,6.27-3.52,9.78-4.25Z"/>
    <path class="cls-5" d="M627.45,277.31c-2.59,2.49-5.66,4.43-9.02,5.7-3.05,1.93-6.47,3.21-10.04,3.74,2.59-2.49,5.66-4.43,9.02-5.7,3.05-1.93,6.47-3.21,10.04-3.75Z"/>
    <path class="cls-5" d="M666.34,260.12c-2.73,2.35-5.92,4.12-9.36,5.19-3.15,1.74-6.63,2.8-10.21,3.11,2.73-2.34,5.92-4.09,9.36-5.15,3.16-1.72,6.63-2.79,10.21-3.15Z"/>
    <path class="cls-5" d="M706.17,245.27c-2.84,2.2-6.12,3.78-9.62,4.64-3.26,1.52-6.79,2.37-10.38,2.51,2.85-2.18,6.13-3.75,9.62-4.6,3.25-1.54,6.78-2.41,10.38-2.55Z"/>
    <path class="cls-5" d="M746.85,232.84c-3,1.99-6.37,3.35-9.91,4-3.33,1.36-6.91,2.01-10.51,1.91,6.32-3.39,13.28-5.41,20.42-5.91Z"/>
    <path class="cls-5" d="M788.17,222.8c-6.51,3-13.56,4.61-20.73,4.72,3.1-1.85,6.55-3.03,10.13-3.45,3.41-1.15,7.01-1.59,10.6-1.28Z"/>
    <path class="cls-5" d="M830.04,215.23c-6.67,2.62-13.82,3.81-20.98,3.49,3.21-1.64,6.71-2.61,10.3-2.85,3.48-.92,7.11-1.14,10.68-.64Z"/>
    <path class="cls-5" d="M872.3,210.17c-6.86,2.22-14.11,2.97-21.28,2.21,3.3-1.44,6.86-2.19,10.47-2.21,3.56-.77,7.25-.77,10.81,0Z"/>
    <path class="cls-5" d="M914.76,207.53c-3.38,1.28-6.99,1.83-10.6,1.62-3.56.5-7.19.3-10.68-.6,3.38-1.28,6.99-1.83,10.6-1.62,3.57-.5,7.19-.3,10.68.6Z"/>
    <path class="cls-5" d="M957.27,207.4c-3.44,1.05-7.06,1.38-10.64.98-3.59.29-7.21-.12-10.64-1.23,7.03-1.39,14.28-1.3,21.28.26Z"/>
    <path class="cls-5" d="M999.78,209.78c-7.12.96-14.36.45-21.28-1.49,3.5-.83,7.13-.97,10.68-.38,3.62-.12,7.23.52,10.6,1.87Z"/>
    <path class="cls-5" d="M1042.08,214.55c-3.56.62-7.2.53-10.73-.26-3.59-.11-7.12-.95-10.38-2.47,7.2-.6,14.45.33,21.28,2.72h-.17Z"/>
    <path class="cls-5" d="M1083.95,221.82c-7.17.14-14.3-1.2-20.94-3.96,3.59-.43,7.22-.13,10.68.89,3.59.32,7.08,1.36,10.25,3.06Z"/>
    <path class="cls-5" d="M1125.39,231.57c-7.17-.24-14.21-2.01-20.63-5.19,7.16.29,14.19,2.06,20.63,5.19Z"/>
    <path class="cls-5" d="M1166.16,243.83c-7.14-.68-14.06-2.87-20.3-6.43,3.58.03,7.13.76,10.43,2.17,3.55.72,6.91,2.17,9.87,4.26Z"/>
    <path class="cls-5" d="M1206.11,258.38c-3.6-.23-7.11-1.17-10.34-2.77-3.48-.94-6.72-2.59-9.53-4.85,3.6.23,7.11,1.17,10.34,2.77,3.48.94,6.72,2.59,9.53,4.85Z"/>
    <path class="cls-5" d="M1245.13,275.31c-3.56-.44-7-1.59-10.12-3.36-3.42-1.15-6.56-2.99-9.24-5.4,3.57.42,7.01,1.57,10.13,3.36,5.49,2.42,9.74,4.85,9.23,5.4Z"/>
    <path class="cls-5" d="M1283.13,294.5c-3.56-.62-6.94-1.97-9.96-3.96-5.19-2.72-9.19-5.36-8.89-5.92,3.54.63,6.91,1.98,9.91,3.96,3.34,1.36,6.38,3.37,8.94,5.92Z"/>
    <path class="cls-5" d="M1319.85,315.91c-3.5-.81-6.79-2.35-9.66-4.51-5.02-3.02-8.85-5.92-8.51-6.47,3.5.87,6.8,2.41,9.7,4.56,4.98,3.02,8.8,5.92,8.47,6.42Z"/>
    <path class="cls-5" d="M1355.3,339.48c-3.44-1.07-6.64-2.8-9.41-5.11-4.81-3.32-8.51-6.43-8.13-6.93,3.45,1.04,6.65,2.78,9.41,5.1,4.85,3.32,8.46,6.43,8.13,6.94Z"/>
    <path class="cls-5" d="M1389.3,365.05c-3.38-1.27-6.47-3.19-9.11-5.66-4.6-3.62-8.08-6.89-7.7-7.41,3.37,1.25,6.46,3.18,9.07,5.66,4.51,3.62,8.13,6.89,7.74,7.41Z"/>
    <path class="cls-5" d="M1421.72,392.76c-.43.47-4.25-2.3-8.72-6.17-4.47-3.87-7.7-7.36-7.27-7.83.43-.47,4.25,2.3,8.72,6.17,4.47,3.87,7.7,7.19,7.27,7.83Z"/>
    <path class="cls-5" d="M1452.48,421.9c-.43.42-4.25-2.55-8.51-6.64-2.78-2.29-5.09-5.09-6.81-8.26.43-.43,4.25,2.55,8.51,6.68,4.25,4.12,7.23,7.79,6.81,8.21Z"/>
    <path class="cls-5" d="M1481.46,453.01c-.47.43-4-2.76-7.96-7.1-3.96-4.34-6.76-8.21-6.3-8.51.47-.3,4,2.76,7.96,7.15,3.96,4.38,6.76,8.08,6.3,8.46Z"/>
    <path class="cls-5" d="M1508.61,485.77c-.51.38-3.87-3.02-7.53-7.58-2.53-2.57-4.51-5.62-5.83-8.98.51-.43,3.87,2.98,7.53,7.57,2.53,2.57,4.51,5.62,5.83,8.98Z"/>
    <path class="cls-5" d="M1533.76,520.07c-.51.34-3.7-3.28-7.06-8.04-2.37-2.7-4.17-5.86-5.28-9.28.51-.39,3.66,3.19,7.06,8,2.35,2.73,4.14,5.9,5.28,9.32Z"/>
    <path class="cls-5" d="M1556.82,555.77c-.51.3-3.45-3.49-6.55-8.51-2.2-2.85-3.81-6.13-4.73-9.62.51-.34,3.49,3.45,6.6,8.51,2.22,2.84,3.82,6.12,4.68,9.61Z"/>
    <path class="cls-5" d="M1577.8,592.75c-.55.3-3.28-3.66-6.09-8.81-2.06-2.96-3.51-6.3-4.25-9.83.55-.3,3.28,3.62,6.09,8.76,2.08,2.97,3.53,6.33,4.25,9.87Z"/>
    <path class="cls-5" d="M1596.52,631.04c-2.44-2.64-4.32-5.76-5.53-9.15-1.86-3.08-3.07-6.51-3.53-10.08,2.44,2.64,4.33,5.76,5.53,9.15,1.88,3.08,3.08,6.51,3.53,10.08Z"/>
    <path class="cls-5" d="M1612.99,670.1c-2.29-2.77-3.98-5.99-4.98-9.44-1.7-3.17-2.7-6.67-2.93-10.25,2.27,2.78,3.97,6,4.98,9.44,1.69,3.18,2.69,6.67,2.94,10.25Z"/>
    <path class="cls-5" d="M1627.08,710.23c-2.05-2.92-3.49-6.22-4.25-9.7-1.47-3.3-2.25-6.86-2.3-10.47,2.04,2.94,3.48,6.25,4.25,9.74,1.49,3.28,2.27,6.83,2.3,10.43Z"/>
    <path class="cls-5" d="M1638.78,751.13c-3.25-6.38-5.13-13.37-5.53-20.51,3.25,6.38,5.13,13.37,5.53,20.51Z"/>
    <path class="cls-5" d="M1648.05,792.74c-2.82-6.59-4.26-13.68-4.25-20.85,1.79,3.14,2.9,6.62,3.28,10.21,1.04,3.44,1.38,7.06.98,10.64Z"/>
    <path class="cls-5" d="M1654.86,834.65c-1.61-3.24-2.5-6.77-2.64-10.38-.87-3.49-1.02-7.12-.47-10.68,2.5,6.8,3.56,14.04,3.11,21.28v-.22Z"/>
    <path class="cls-5" d="M1659.16,876.95c-1.41-3.31-2.11-6.87-2.04-10.47-.72-3.54-.72-7.18,0-10.73,1.4,3.32,2.1,6.9,2.04,10.51.72,3.53.72,7.16,0,10.68Z"/>
    <path class="cls-5" d="M1660.99,919.46c-1.21-3.39-1.7-7-1.4-10.6-.46-3.56-.2-7.17.76-10.64,1.22,3.39,1.72,7,1.45,10.6.45,3.56.18,7.18-.81,10.64Z"/>
    <path class="cls-8" d="M1603.63,959.33c.39-7.62.6-15.15.64-22.72.04-7.58,0-15.91,0-23.83,0,7.92.21,15.87,0,23.83-.22,7.96-.26,15.11-.64,22.72Z"/>
    <path class="cls-5" d="M1530.4,1043.2c-4.25-15.57-3.49-31.91-5.53-47.87-1.1-8.51-3.7-17.91-10.89-22.68-4.77-3.15-10.85-3.7-16.04-6.13-18.68-8.51-20.04-36.68-37.27-47.78-5.63-3.09-11.7-5.29-18-6.55-24.3-6.51-48.63-18.72-61.36-40.38-4.25-7.02-6.98-14.98-12.51-20.98-5.53-6-15.11-9.66-22.04-5.32,3.74,11.19,7.32,22.34,10.94,33.4,3.36,10.08,6.72,20.47,13.57,28.47,6.85,8,18.04,13.49,28.17,10.47,3.2-1.59,6.78-2.28,10.34-2,2.46.9,4.5,2.67,5.74,4.98,11.32,17.02,3.36,40.93-12,54.3-15.36,13.36-35.79,18.34-55.32,23.06-6.94,2.28-14.36,2.63-21.49,1.02-12.55-4.25-17.4-19.32-19.36-32.51-4.25-29.14-4.25-60.08-17.96-86.17-4.47-8.21-10.39-16-12.47-25.15-2.17-9.87.26-20.73-4.25-29.79-4.51-9.07-16.26-16.3-15.58-26.85.51-7.36,7.49-12.76,14.64-15.11,7.15-2.34,14.77-2.13,22.08-3.96,2.85-.76,6.17-2.3,6.72-5.19.6-4.26-5.19-7.02-6.17-11.32-.98-4.3,4.25-8.51,6.94-12.77,5.78-9.62-3.36-21.49-13.11-27.15-9.74-5.66-21.57-10.47-24.93-21.28-1.06-5.06-1.46-10.24-1.19-15.4-.55-12.98-8.09-26.51-20.51-30.47-12.43-3.96-28.34,5.4-28.09,18.43,0,7.15,4.64,13.36,6.55,20.21,1.92,6.85-.26,16.39-7.23,17.49-11.44,1.75-19.06-19.79-29.23-14.25,1.88,13.41,3.7,26.77,5.58,40.21-15.45,5.23-30.77-10.51-34.72-26.42-3.96-15.91-1.75-32.94-6.98-48.38-5.23-15.45-23.36-29.15-37.36-20.73-3.28,18.47,20.13,29.53,28.81,46.08,6.26,12,2.55,29.45-10,34.68-12.55,5.23-29.02-9.41-22.81-21.28,2.21-4.25,6.38-7.27,7.49-11.92,1.28-5.78-2.98-11.19-6.89-15.57-6.13-6.98-12.3-13.83-18.42-20.68-3.7-4.72-8.32-8.64-13.58-11.53-13.79-6.26-29.79,3.32-39.31,15.06-9.53,11.74-15.96,26.34-28.05,35.58-17.4,13.45-46.21,10.25-58.04-8.21-11.83-18.47,0-48.04,21.66-51.06,8.25-1.06,18.21.6,23.4-5.79,9.11-11.36-9.49-30.21-.47-41.7,6.94-8.81,20.9-2.3,32-4,11.11-1.7,18.47-11.49,26.08-19.74,7.62-8.25,18.47-15.96,28.98-12-.54-6.51.8-13.04,3.87-18.81,3.66-5.44,12.17-8.04,16.81-3.53-6.55,8-1.96,21.28,6.68,26.81,8.64,5.53,19.66,6.26,30.04,6.59,10.38.34,23.74-1.66,26.08-11.78.76-3.28,0-7.02,1.75-9.96,6.25-11.53,26.34,8.51,36.42,0,5.74-4.25,1.53-14.25-5.19-17.02-6.72-2.77-14.21-1.23-21.28-2.04-7.06-.81-15.23-5.7-14.51-12.77.72-7.06,9.24-10.89,11.06-17.66,3.07-11.49-16.34-17.4-24.68-8.89-8.34,8.51-7.75,21.87-7.36,33.74.38,11.87-.39,25.53-10.13,32.59-4.47,5.02-13.53.73-15.79-5.57-2.25-6.3-.64-13.27-.21-19.96.43-6.68-1.4-14.68-7.62-17.36-4.25-1.92-9.41-.43-14.08-.47-18.47-.43-27.7-25.53-19.45-42.21,8.25-16.68,26.21-25.53,43.49-31.91,12.76-4.77,27.95-8.51,38.59-.51,4.98,3.83,8,9.58,12.77,13.49,8.51,6.76,20.04,6.43,30.55,8.13,16.61,2.99,31.67,11.61,42.64,24.42,4.25,4.94,7.41,12.77,3.02,17.28-4.38,4.51-16.3,4.25-15.23,10.98,2.95,1.29,6.13,1.96,9.35,1.93,3.22-.02,6.4-.72,9.32-2.05,2.93-1.33,5.54-3.27,7.67-5.68,2.13-2.41,3.72-5.25,4.68-8.32,2.81,1.83,5.11,4.35,6.64,7.34,1.53,2.99,2.25,6.32,2.08,9.68,3.89-2.7,8.3-4.57,12.96-5.46,4.65-.9,9.44-.82,14.05.24,4.62,1.06,8.97,3.07,12.76,5.9,3.8,2.83,6.96,6.43,9.29,10.56,1.7,4.77,4.22,9.21,7.45,13.1,3.79,3.32,11.27,3.02,12.51-1.83.36-1.55.36-3.17,0-4.72-1.49-7.45-3.06-14.81-4.55-22.17,10.43-3.79,20.72,6,26.04,15.7,19.7,36.17,39.96,19.1,73.57,29.4,22.76,6.89,30.85,23.32,41.36,43.24,32.25,61.31,78.85,114.5,107.06,177.78,2.84,6.61,5.53,13.27,8.09,20-.39-1.66-.68-3.28-1.11-4.93-8.83-39.72-21.4-78.52-37.53-115.87-3.43-7.92-6.98-15.77-10.64-23.57-2.3-4.81-4.68-9.7-7.06-14.42-3.07-6.22-6.34-12.22-9.62-18.21-2.59-4.85-5.23-9.62-7.96-14.26-1.87-3.28-3.83-6.51-5.83-9.79-2-3.28-4.25-7.31-6.72-10.98l-7.27-11.4c-.73-1.22-1.53-2.4-2.38-3.53-2.51-3.95-5.23-7.87-7.96-11.78-.17-.46-.45-.86-.81-1.19-.68-1.06-1.49-2.13-2.3-3.19-2.17-3.32-4.6-6.55-6.89-9.74-3.83-5.23-7.75-10.47-11.83-15.53-3.28-4.25-6.72-8.51-10.25-12.76-3.53-4.25-6.17-7.49-9.36-11.15-3.19-3.66-6.21-7.19-9.4-10.73-3.87-4.25-7.79-8.51-11.88-13.02-11.19-11.96-22.81-23.44-34.89-34.34-2.98-2.77-5.91-5.45-8.94-8.09-3.02-2.64-6.13-5.36-9.19-7.96-3.06-2.59-6.13-5.23-9.32-7.75-3.19-2.51-6.26-5.15-9.4-7.62-3.15-2.47-5.07-4.04-7.66-5.92-1.27-1.07-2.59-2.08-3.96-3.02-5.45-4.25-11.02-8.51-16.64-12.21-2.81-2-5.62-4-8.51-5.92-3.58-2.55-7.28-4.98-10.98-7.32-.51-.43-1.07-.8-1.66-1.1-3.32-2.17-6.6-4.25-10.04-6.47-4.77-2.89-9.57-5.83-14.38-8.51-5.49-3.23-10.98-6.47-16.64-9.53-5.66-3.06-12.43-6.81-18.76-9.95-6.34-3.15-12.77-6.43-19.28-9.49-6.51-3.06-13.02-5.92-19.62-8.8-13.02-5.62-26.34-10.85-39.79-15.66l-.72-.3c-5.15-1.83-10.34-3.62-15.53-5.23-.32-.18-.66-.31-1.02-.38-2.21-.73-4.56-1.49-6.89-2.17-9.7-3.11-19.49-5.87-29.44-8.51-1.19-.37-2.4-.69-3.62-.94-2.85-.85-5.74-1.49-8.72-2.21-6.55-1.62-13.19-3.11-19.87-4.47-6.68-1.36-14-2.89-21.02-4.26-7.02-1.36-14.77-2.55-22.17-3.61-19.6-2.84-39.13-4.78-58.59-5.83-4.64-.34-9.15-.55-13.75-.68-4.6-.13-9.53-.34-14.3-.38-4.77-.04-9.57,0-14.25,0s-9.53,0-14.34.26c-4.04,0-8.21,0-12.3.47-10.1.48-20.1,1.16-30,2.04-4.64.38-9.28.89-13.96,1.49-4.68.6-9.32,1.11-13.87,1.74-7.7,1.02-15.23,2.26-22.76,3.53l-18.38,3.41h-.43c-6.26,1.23-12.3,2.59-18.47,4.04h-.98c-5.66,1.32-11.28,2.72-16.81,4.25-6.98,1.75-13.87,3.74-20.64,5.74-5.78,1.7-11.49,3.45-17.02,5.32-5.53,1.87-12.09,4-18.04,6.13l-.64.22c-5.74,2.04-11.49,4.25-17.02,6.47-5.53,2.21-11.62,4.6-17.45,7.15-5.44,2.3-10.76,4.6-16.12,7.02-2.04.89-4,1.87-6.09,2.85-5.66,2.6-11.19,5.32-17.02,8.13-6.89,3.36-13.57,6.98-20.25,10.6-5.92,3.19-11.7,6.51-17.4,9.83-33.05,19.21-64.38,41.23-93.65,65.82-10.3,8.51-20.08,17.36-29.79,26.38-8.13,7.79-16.08,15.66-23.79,23.91h5.06c9.49.64,19.36,2.38,28.42-.47,8.51-2.72,14.89-8.94,22.72-12.76,20-10.3,50.08-8.51,58.12-29.4,2.72-7.06,1.92-15.28,5.62-21.87,6.98-12.3,24.68-11.66,38.64-9.41,5.96.85,12.76,2.68,14.77,8.51.47,2.06.51,4.19.1,6.26-.41,2.07-1.25,4.03-2.48,5.74-12.25,23.24-32.13,41.56-56.3,51.87-19.74,8.51-44.64,13.58-52.64,33.49,1.49,7.36,14.3,8.51,14.25,16.12,0,5.96-8.04,7.88-11.53,12.77-5.06,7.02,2.68,17.61,11.4,18.47,8.72.85,16.81-4.25,24.04-9.32,21.53-14.89,44.17-30.98,54.68-55.02,4.25-9.91,7.23-21.87,16.55-27.53,2.84-1.44,5.97-2.2,9.16-2.23,3.18-.03,6.33.68,9.19,2.08,2.86,1.39,5.36,3.43,7.3,5.96,1.94,2.52,3.27,5.46,3.88,8.58,8.94-3.4,22.26-4.98,25.28,4.25.49,3.33.62,6.69.39,10.04.76,13.74,18.13,22.43,18.08,36.17,0,15.83-21.27,20.98-37.06,21.28-14.38,0-28.76.3-43.19.55-6.27-.45-12.56.62-18.34,3.11-2.85,1.35-5.16,3.63-6.54,6.47-1.38,2.84-1.74,6.07-1.03,9.15,1.7,3.09,3.79,5.95,6.21,8.51,10,13.36-3.11,36.04-19.66,34.04-5.66-.64-10.89-3.49-16.47-4.51-16.6-3.15-31.96,9.62-42.04,23.19-10.08,13.57-18.42,29.48-33.19,37.57-23.83,13.06-60.34,3.96-74.34,27.28-5.62,9.4-5.06,20.98-4.94,31.95.13,10.98-.89,22.89-8.51,30.85-7.62,7.96-23.74,7.41-26.94-3.07-.92-4.69-.43-9.54,1.4-13.95,4.71-15.07,9.38-30.14,14-45.23,3.45-11.23,6.85-23.83,1.45-34.04-7.62-14.51-29.06-16.34-42.89-7.58-13.83,8.76-21.28,24.51-26.93,39.74-4.26,11.32-9.53,27.4-17.91,39.78-4.26,12.76-7.74,25.53-11.02,38.55-3.28,13.02-6.17,26.72-8.51,40.38,2.1-1.29,4.12-2.72,6.04-4.25,7.53-5.83,24.94-32.6,34.81-16.81,1.19,2.06,1.67,4.46,1.36,6.82-.31,2.36-1.38,4.56-3.06,6.24-4.25,4.25-11.79,4.25-15.32,8.85-4.25,5.58-.64,13.79,4.26,18.55,4.89,4.77,11.57,8.51,14.72,14.68,6,12.05-3.66,27.57,2.13,39.83,4.98,10.51,18.42,13.1,29.79,16l3.87,1.23c6.55-22.51,20-39.61,52.3-42.17,44.59-3.57,96.17,40.42,115.78,76.59,21.83,40.34,27.24,93.61,66.08,117.95,27.83,17.36,70.76,18.77,80.85,49.95,9.15,27.96-17.61,54-25.24,82.38-4.93,18.8-1.44,38.68-2.72,57.95-1.28,19.28-10.3,40.93-28.89,46.43-10.3,2.98-22.43.68-31.32,6.85-15.78,11.15-8.51,39.92-24.08,51.06-5.57,3.87-12.77,4.55-18.98,6.72-33.49,11.23-39.27,57.23-29.4,91.14.38,1.23.77,2.34,1.11,3.58,93.34,75.87,205.5,125.02,324.54,142.25,107.82,15.75,217.86,4.68,320.37-32.25,21.57-7.79,42.71-16.7,63.36-26.68,31.82-15.27,62.36-33.08,91.31-53.27,20.04-13.9,39.27-28.91,57.62-44.98,12.76-11.15,25.23-22.89,37.23-34.98,6.09-6.26,12.13-12.51,17.87-19.06,42.86-46.85,78.69-99.67,106.38-156.8,16.94-34.72,30.75-70.87,41.27-108.04,4.25-14.55,7.87-29.32,11.11-44.3-3.95,3.12-8.47,5.42-13.32,6.79-4.84,1.36-9.9,1.76-14.9,1.17-15.36-2.8-26.46-17.96-30.72-33.44Z"/>
    <path class="cls-8" d="M1179.47,1296.16c-20.12,22.51-27.61,53.23-36.46,82.08-8.85,28.85-21.28,59.15-46.81,75.32-25.53,16.17-67.02,8.98-75.57-20-4.68-15.7,1.32-32.6,0-48.94-1.83-21.28-15.91-39.53-20.85-60.29-4.25-17.75-1.53-36.25.51-54.38,11.32-98.89,2.17-205.19-54.46-287.05-6.94-10.08-15.07-20.09-26.3-24.85-6.76-2.76-14.18-3.5-21.35-2.13-7.17,1.36-13.8,4.78-19.07,9.84-6.39,6.34-10.51,15.02-17.96,20.08-16.21,11.02-39.87-1.96-47.02-20.21-7.14-18.25-2.8-38.76,1.58-57.87,5.5-23.72,10.97-47.42,16.39-71.1,2.85-12.38,6.21-25.53,15.83-34.04,13.66-11.88,34.72-9.45,50.59-18.13,20.81-11.32,27.19-37.79,41.96-56.34,14.77-18.55,53.11-21.74,55.32,1.83,51.31-78.21,119.91,58.97,172.8,57.06,15.36-.6,30.98-5.66,45.75-1.36,26.04,7.58,35.53,38.85,40.93,65.45,8.94,44.14,17.89,88.26,26.85,132.37,3.4,16.81,8.21,35.66,23.19,44.08,11.44,6.47,26.04,4.9,37.62,11.11,30.63,16.47,12.76,65.78-16.51,84.55-29.28,18.76-68,27.74-85.02,58.04-12.77,22.85-9.49,52.25-22.98,74.72-9.58,16.04-26.42,26.08-38.94,40.17Z"/>
    <path class="cls-8" d="M1298.24,1341.27c-10.85,0-22.64-7.1-31.7-1.19-5.32,3.45-7.36,10.04-10.08,15.74-3.56,8.11-9.96,14.64-18,18.38-4.04,1.77-8.5,2.34-12.85,1.63-4.35-.71-8.4-2.66-11.66-5.63-3.08-3.13-4.8-7.35-4.8-11.74s1.73-8.61,4.8-11.74c3.31-2.24,6.73-4.3,10.25-6.17,16-11.28,9.91-37.4,22.94-51.7,7.7-8.51,19.02-16.47,27.32-24.89,6.38-6.51,9.19-12,19.28-12.51,44.12-2.26,50.64,90.21,4.51,89.82Z"/>
    <path class="cls-5" d="M340.49,1020.13c.64-19.19,9.62-37.15,12.77-56.17,2.13-13.14,3.19-27.15,4.89-40.42-11.21-2.13-22.2-5.32-32.81-9.53-2.31-.63-4.32-2.05-5.7-4-.82-2.31-.93-4.81-.34-7.19,1.32-14.94-11.57-26.81-23.32-36.08-5.84-4.9-12.17-9.18-18.89-12.76,0,1.58-.43,3.02-.55,4.6-7.82,71.83-3.87,144.45,11.7,215.01,6.94,31.39,16.23,62.21,27.79,92.21,4.72,12.76,10.13,25.74,15.87,38.29,7.11,15.62,14.68,30.98,23.06,45.92,7.7,14.34,16.08,28.42,25.11,42.08,12.27,18.91,25.51,37.18,39.66,54.72,12.54,15.66,25.8,30.71,39.79,45.15-22-101.78-41.62-205.27-91.27-296.33-13.19-23.75-28.59-48.34-27.74-75.49Z"/>
    <path class="cls-8" d="M281.43,822.52c-.64,3.96-1.36,7.87-1.96,11.83.6-3.87,1.32-7.58,1.96-11.83Z"/>
    <g class="cls-13">
      <path class="cls-8" d="M492.48,1424.08c5.02,4.55,10.08,9.02,15.28,13.4-5.28-4.38-10.34-8.85-15.28-13.4Z"/>
    </g>
    <path class="cls-5" d="M1326.49,1123.32c29.27-18.76,47.14-68.08,16.51-84.55-11.57-6.21-26.17-4.64-37.61-11.1-14.98-8.51-19.79-27.28-23.19-44.08-8.94-44.14-17.89-88.26-26.85-132.38-5.4-26.6-14.9-57.87-40.93-65.44-14.77-4.25-30.38.76-45.75,1.36-52.89,1.92-121.49-135.27-172.8-57.06-2.17-23.57-40.47-20.38-55.32-1.83-14.85,18.55-21.28,45.02-41.96,56.34-15.87,8.51-36.94,6.26-50.59,18.13-9.62,8.51-12.77,21.57-15.83,34.04-5.45,23.69-10.91,47.39-16.39,71.11-4.25,19.1-8.51,39.57-1.58,57.87,6.94,18.3,30.81,31.23,47.02,20.21,7.45-5.06,11.57-13.74,17.96-20.08,5.27-5.05,11.9-8.47,19.07-9.83,7.17-1.37,14.59-.63,21.35,2.13,11.23,4.77,19.36,14.77,26.3,24.85,56.63,81.87,65.78,188.16,54.46,287.05-2.04,18.13-4.73,36.64-.51,54.38,4.94,20.77,19.02,39.02,20.85,60.3,1.4,16.34-4.6,33.23,0,48.93,8.51,28.98,50.08,36.17,75.57,20,25.49-16.17,37.91-46.43,46.81-75.32,8.89-28.89,16.34-59.57,36.46-82.08,12.51-13.96,29.36-24.13,39.02-40.17,13.49-22.47,10.12-51.87,22.98-74.72,16.85-30.38,55.44-39.32,84.93-58.04Z"/>
    <g class="cls-13">
      <path class="cls-8" d="M283.98,807.12c-.26,1.23-.55,2.34-.72,3.62.26-1.28.72-2.38.72-3.62Z"/>
    </g>
    <path class="cls-5" d="M362.91,898.18l-3.87-1.23c-11.4-2.89-24.85-5.49-29.79-16-5.79-12.25,3.87-27.78-2.13-39.82-3.15-6.3-9.66-9.79-14.72-14.68-5.06-4.9-8.77-12.98-4.26-18.55,3.53-4.68,10.98-4.68,15.32-8.86,1.68-1.69,2.76-3.88,3.06-6.25.3-2.36-.19-4.76-1.4-6.81-9.83-15.79-27.23,10.98-34.76,16.81-1.93,1.54-3.94,2.96-6.04,4.25-.26,1.23-.55,2.34-.72,3.62-.72,3.87-1.28,7.87-1.91,11.87-.64,4-1.36,7.87-1.96,11.83-.47,3.24-.81,6.47-1.23,9.7-.43,3.23-.89,6.47-1.23,9.66,6.72,3.59,13.05,7.87,18.89,12.77,11.74,9.28,24.64,21.27,23.32,36.08-.59,2.38-.48,4.88.34,7.19,1.38,1.95,3.4,3.37,5.7,4,10.61,4.21,21.59,7.41,32.81,9.53"/>
    <path class="cls-5" d="M358.06,923.54c-1.7,13.27-2.77,27.28-4.89,40.42-3.06,19.02-12.04,36.98-12.77,56.17-.85,27.15,14.55,51.74,27.62,75.57,49.66,91.06,69.27,194.54,91.27,296.33,5.91,6.3,11.96,12.3,18.13,18.17,4.85,4.74,9.77,9.36,14.77,13.87,5.02,4.56,10.09,9.02,15.28,13.41,3.57,3.07,7.19,6.04,10.94,9.02-.34-1.23-.72-2.34-1.11-3.57-9.87-34.04-4.25-79.91,29.41-91.15,6.38-2.17,13.4-2.85,18.97-6.72,15.74-11.15,8.3-39.91,24.09-51.06,8.89-6.17,21.02-3.87,31.32-6.85,18.59-5.49,27.45-27.02,28.89-46.42,1.44-19.41-2.21-39.15,2.72-57.96,7.62-28.38,34.38-54.42,25.23-82.38-10.29-31.19-53.23-32.6-80.84-49.95-38.85-24.26-44.25-77.61-66.08-117.95-19.62-36.04-71.19-80.04-115.78-76.59-32.3,2.55-45.74,19.66-52.3,42.17"/>
    <path class="cls-5" d="M348.66,648.53c13.83-8.76,35.28-6.93,42.89,7.58,5.4,10.39,2,22.98-1.45,34.04-4.65,15.07-9.32,30.14-14,45.23-1.83,4.41-2.32,9.27-1.4,13.96,3.19,10.47,19.53,10.94,26.93,3.07,7.4-7.87,8.51-19.96,8.51-30.85s-.68-22.56,4.94-31.96c14-23.32,50.51-14.21,74.34-27.28,14.77-8.08,23.15-24,33.19-37.57,10.04-13.57,25.53-26.34,42.04-23.19,5.57,1.02,10.81,3.87,16.47,4.51,16.55,1.83,29.79-20.85,19.66-34.04-2.42-2.56-4.51-5.42-6.21-8.51-.71-3.08-.35-6.3,1.03-9.14,1.38-2.84,3.69-5.13,6.54-6.47,5.77-2.49,12.07-3.56,18.34-3.11,14.43-.26,28.81-.39,43.19-.56,15.91,0,36.98-5.32,37.06-21.27,0-13.75-17.32-22.43-18.08-36.17.24-3.35.11-6.72-.39-10.04-3.02-9.19-16.34-7.62-25.28-4.25-.61-3.13-1.94-6.06-3.88-8.58-1.94-2.52-4.44-4.56-7.3-5.96-2.86-1.39-6.01-2.1-9.19-2.08-3.19.03-6.32.79-9.16,2.23-9.32,5.66-12.13,17.61-16.55,27.53-10.51,24.04-33.15,40.13-54.68,55.02-7.23,4.94-15.32,10.12-24.04,9.32-8.72-.81-16.47-11.44-11.4-18.47,3.49-4.85,11.45-6.76,11.53-12.76,0-7.45-12.77-8.76-14.25-16.13,8-19.91,32.89-25.06,52.64-33.48,24.2-10.31,44.11-28.64,56.38-51.92,1.22-1.72,2.07-3.68,2.48-5.74.41-2.07.38-4.2-.1-6.26-1.96-5.61-8.81-7.45-14.77-8.51-13.96-2.25-31.66-2.89-38.64,9.4-3.7,6.6-2.89,14.81-5.62,21.87-8.04,20.98-38.3,19.1-58.12,29.4-7.83,3.95-14.34,10.17-22.72,12.76-9.06,2.85-18.94,1.11-28.42.47h-5.06c-6.89,7.15-13.62,14.51-20.13,22-6.51,7.49-12.77,15.15-19.06,22.94-29.39,36.89-54.73,76.83-75.57,119.14-7.4,14.85-14.17,30.04-20.42,45.57-6.26,15.53-11.91,31.36-17.02,47.49,8.51-12.38,13.7-28.47,17.91-39.78,5.62-14.94,13.23-30.68,26.85-39.45Z"/>
    <g class="cls-13">
      <path class="cls-8" d="M1589.33,788.91c1.93,8.82,3.66,17.64,5.19,26.46-1.53-8.85-3.26-17.67-5.19-26.46Z"/>
    </g>
    <path class="cls-5" d="M1598.52,1015.96c1.32-9.49,2.42-18.93,3.23-28.38.81-9.45,1.49-18.85,1.87-28.26.39-7.62.6-15.15.64-22.72.04-7.58,0-15.91,0-23.83-.53-23.65-2.35-47.24-5.45-70.68-1.19-8.94-2.55-17.87-4.25-26.72-1.7-8.86-3.28-17.66-5.19-26.47-2.44-6.72-5.13-13.39-8.08-20-28.22-63.27-74.81-116.46-107.06-177.78-10.51-19.91-18.59-36.34-41.36-43.23-33.61-10.29-53.87,6.77-73.57-29.4-5.32-9.7-15.62-19.49-26.04-15.7,1.49,7.36,3.07,14.72,4.56,22.17.36,1.55.36,3.17,0,4.72-1.23,4.85-8.72,5.15-12.51,1.83-3.2-3.95-5.67-8.43-7.32-13.23-2.33-4.11-5.49-7.7-9.28-10.52-3.79-2.82-8.13-4.83-12.73-5.89-4.61-1.05-9.39-1.14-14.03-.25-4.64.89-9.05,2.74-12.94,5.43.17-3.35-.55-6.69-2.08-9.68-1.53-2.99-3.82-5.52-6.64-7.34-.96,3.08-2.55,5.91-4.68,8.32-2.13,2.41-4.74,4.35-7.67,5.68-2.92,1.33-6.11,2.04-9.32,2.06-3.22.02-6.4-.64-9.35-1.94-1.06-6.64,10.51-6.13,15.23-10.98,4.72-4.85,1.02-12.34-3.02-17.28-11.01-12.73-26.06-21.28-42.64-24.21-10.51-1.7-22.17-1.36-30.55-8.12-4.85-3.92-7.87-9.66-12.77-13.49-10.64-8.21-26-4.25-38.59.51-17.28,6.55-35.36,15.32-43.49,31.91-8.13,16.6.98,41.79,19.45,42.21,4.68,0,9.79-1.44,14.09.47,6.21,2.68,8.04,10.64,7.62,17.36-.43,6.72-2.21,13.66.21,19.96,2.43,6.3,11.32,10.6,15.79,5.57,9.74-6.89,10.64-20.68,10.13-32.6-.51-11.92-.89-25.28,7.36-33.74,8.25-8.46,27.74-2.59,24.68,8.9-1.83,6.77-10.38,10.64-11.06,17.66-.68,7.02,7.41,12.13,14.51,12.76,7.11.64,14.72-.72,21.28,2.04,6.55,2.77,10.94,12.55,5.19,17.02-10.08,8.51-30.17-11.49-36.42,0-1.71,2.93-.98,6.68-1.75,9.96-2.34,10.12-15.7,12-26.08,11.78-10.39-.21-21.28-.85-30.04-6.6-8.76-5.74-13.23-18.8-6.68-26.81-4.64-4.51-13.15-1.92-16.81,3.53-3.07,5.77-4.41,12.3-3.87,18.81-10.51-3.96-21.53,3.79-28.98,12-7.45,8.21-15.11,18.04-26.08,19.74-10.98,1.7-25.06-4.81-32,4-9.02,11.49,9.57,30.34.47,41.7-5.19,6.38-15.15,4.73-23.4,5.79-21.83,2.89-33.57,32.51-21.66,51.06,11.91,18.55,40.63,21.66,58.04,8.21,12.09-9.23,18.55-23.74,28.05-35.57,9.49-11.83,25.53-21.28,39.31-15.07,5.26,2.89,9.87,6.81,13.58,11.53,6.13,6.85,12.3,13.7,18.42,20.68,3.92,4.25,8.17,9.78,6.89,15.57-1.1,4.64-5.27,7.75-7.49,11.92-6.22,12,10.34,26.6,22.81,21.27,12.47-5.32,16.26-22.68,10-34.68-8.51-16.55-32.08-27.61-28.81-46.08,14-8.51,32.17,5.15,37.36,20.72,5.19,15.57,2.98,32.6,6.98,48.38,4,15.78,19.28,31.66,34.72,26.42-1.87-13.45-3.7-26.81-5.57-40.21,10.17-5.53,17.79,16,29.23,14.25,6.98-1.11,9.19-10.6,7.23-17.49-1.96-6.89-6.34-13.06-6.55-20.21-.26-13.02,15.57-22.34,28.09-18.42,12.51,3.91,19.95,17.49,20.51,30.47-.27,5.16.13,10.34,1.19,15.4,3.36,10.68,15.32,15.53,24.93,21.28,9.62,5.74,18.89,17.53,13.11,27.15-2.6,4.25-7.92,7.79-6.94,12.76.98,4.98,6.77,6.94,6.17,11.32-.55,2.89-3.87,4.25-6.72,5.19-7.32,1.83-14.94,1.66-22.08,3.96-7.15,2.3-14.13,7.74-14.64,15.11-.68,10.55,10.98,17.36,15.58,26.85,4.6,9.49,2.04,19.92,4.25,29.79,2.08,9.15,8,17.02,12.47,25.15,13.87,26.08,13.57,57.02,17.96,86.17,1.96,13.19,6.81,28.26,19.36,32.51,7.12,1.62,14.55,1.26,21.49-1.02,19.7-4.72,40.26-9.83,55.32-23.06,15.07-13.23,23.32-37.44,12-54.29-1.24-2.31-3.29-4.07-5.74-4.98-3.57-.28-7.14.41-10.34,2-10.13,3.02-21.28-2.3-28.17-10.47-6.89-8.17-10.21-18.38-13.57-28.47-3.62-11.06-7.19-22.22-10.94-33.4,6.93-4.25,16.43-.72,22.04,5.32,5.62,6.04,8.3,13.96,12.51,20.98,12.76,21.66,37.06,34.04,61.36,40.38,6.3,1.26,12.37,3.47,18,6.55,17.23,11.11,18.59,39.11,37.27,47.79,5.19,2.43,11.28,2.98,16.04,6.13,7.19,4.77,9.79,14.09,10.89,22.68,2.04,15.96,1.19,32.29,5.53,47.87,4.34,15.57,15.36,30.63,31.19,33.15,4.99.59,10.05.19,14.9-1.17,4.84-1.36,9.37-3.67,13.32-6.78,2.93-14.26,5.53-28.6,7.62-43.19.38-3.36.81-6.38,1.02-9.45Z"/>
    <path class="cls-5" d="M1293.68,1251.45c-10.08.51-12.76,6-19.28,12.51-8.29,8.51-19.62,16.47-27.32,24.89-13.02,14.3-6.93,40.42-22.93,51.7-3.53,1.87-6.95,3.93-10.25,6.17-3.08,3.13-4.8,7.35-4.8,11.74s1.72,8.61,4.8,11.74c3.26,2.97,7.31,4.92,11.66,5.63,4.35.71,8.81.15,12.85-1.63,8.04-3.74,14.43-10.27,18-18.38,2.72-5.7,4.77-12.3,10.08-15.74,9.06-5.91,20.85,1.15,31.7,1.19,46.17.38,39.65-92.08-4.52-89.82Z"/>
    <g class="cls-12">
      <path class="cls-1" d="M1326.49,1123.32c29.27-18.76,47.14-68.08,16.51-84.55-11.57-6.21-26.17-4.64-37.61-11.1-14.98-8.51-19.79-27.28-23.19-44.08-8.94-44.14-17.89-88.26-26.85-132.38-5.4-26.6-14.9-57.87-40.93-65.44-14.77-4.25-30.38.76-45.75,1.36-52.89,1.92-121.49-135.27-172.8-57.06-2.17-23.57-40.47-20.38-55.32-1.83-14.85,18.55-21.28,45.02-41.96,56.34-15.87,8.51-36.94,6.26-50.59,18.13-9.62,8.51-12.77,21.57-15.83,34.04-5.45,23.69-10.91,47.39-16.39,71.11-4.25,19.1-8.51,39.57-1.58,57.87,6.94,18.3,30.81,31.23,47.02,20.21,7.45-5.06,11.57-13.74,17.96-20.08,5.27-5.05,11.9-8.47,19.07-9.83,7.17-1.37,14.59-.63,21.35,2.13,11.23,4.77,19.36,14.77,26.3,24.85,56.63,81.87,65.78,188.16,54.46,287.05-2.04,18.13-4.73,36.64-.51,54.38,4.94,20.77,19.02,39.02,20.85,60.3,1.4,16.34-4.6,33.23,0,48.93,8.51,28.98,50.08,36.17,75.57,20,25.49-16.17,37.91-46.43,46.81-75.32,8.89-28.89,16.34-59.57,36.46-82.08,12.51-13.96,29.36-24.13,39.02-40.17,13.49-22.47,10.12-51.87,22.98-74.72,16.85-30.38,55.44-39.32,84.93-58.04Z"/>
    </g>
    <path class="cls-9" d="M459.38,1392.03c5.91,6.3,11.96,12.3,18.13,18.17,4.85,4.74,9.77,9.36,14.77,13.87,5.02,4.55,10.08,9.02,15.28,13.4,3.57,3.07,7.19,6.05,10.94,9.02-.34-1.23-.72-2.34-1.11-3.57-9.87-34.04-4.26-79.91,29.4-91.14,6.39-2.17,13.41-2.85,18.98-6.72,15.74-11.15,8.3-39.92,24.09-51.06,8.89-6.17,21.02-3.87,31.32-6.85,18.59-5.49,27.45-27.02,28.89-46.42,1.44-19.4-2.21-39.15,2.72-57.96,7.62-28.38,34.38-54.42,25.23-82.38-10.29-31.19-53.23-32.6-80.84-49.95-38.85-24.25-44.26-77.61-66.08-117.95-19.62-36.04-71.19-80.04-115.78-76.59-32.3,2.55-45.74,19.66-52.3,42.17l-3.87-1.23c-11.4-2.89-24.85-5.49-29.79-16-5.79-12.26,3.87-27.79-2.13-39.83-3.15-6.3-9.66-9.78-14.72-14.68-5.06-4.89-8.77-12.98-4.26-18.55,3.53-4.68,10.98-4.68,15.32-8.85,1.68-1.69,2.76-3.88,3.06-6.25.3-2.37-.19-4.76-1.4-6.82-9.83-15.78-27.23,10.98-34.76,16.81-1.93,1.54-3.94,2.96-6.04,4.26-.26,1.23-.55,2.34-.72,3.62-.72,3.87-1.28,7.87-1.92,11.87-.64,4-1.36,7.87-1.96,11.83-.47,3.23-.81,6.47-1.23,9.7-.43,3.24-.89,6.47-1.23,9.66,0,1.58-.43,3.02-.55,4.6-7.94,71.94-4.08,144.7,11.45,215.39,6.94,31.39,16.23,62.21,27.79,92.21,4.72,12.77,10.13,25.75,15.87,38.3,7.11,15.61,14.68,30.98,23.06,45.91,7.7,14.34,16.08,28.43,25.11,42.08,12.27,18.91,25.51,37.18,39.66,54.72,12.54,15.66,25.8,30.71,39.79,45.15"/>
    <g class="cls-12">
      <path class="cls-1" d="M348.66,648.53c13.83-8.76,35.28-6.93,42.89,7.58,5.4,10.39,2,22.98-1.45,34.04-4.65,15.07-9.32,30.14-14,45.23-1.83,4.41-2.32,9.27-1.4,13.96,3.19,10.47,19.53,10.94,26.93,3.07,7.4-7.87,8.51-19.96,8.51-30.85s-.68-22.56,4.94-31.96c14-23.32,50.51-14.21,74.34-27.28,14.77-8.08,23.15-24,33.19-37.57,10.04-13.57,25.53-26.34,42.04-23.19,5.57,1.02,10.81,3.87,16.47,4.51,16.55,1.83,29.79-20.85,19.66-34.04-2.42-2.56-4.51-5.42-6.21-8.51-.71-3.08-.35-6.3,1.03-9.14,1.38-2.84,3.69-5.13,6.54-6.47,5.77-2.49,12.07-3.56,18.34-3.11,14.43-.26,28.81-.39,43.19-.56,15.91,0,36.98-5.32,37.06-21.27,0-13.75-17.32-22.43-18.08-36.17.24-3.35.11-6.72-.39-10.04-3.02-9.19-16.34-7.62-25.28-4.25-.61-3.13-1.94-6.06-3.88-8.58-1.94-2.52-4.44-4.56-7.3-5.96-2.86-1.39-6.01-2.1-9.19-2.08-3.19.03-6.32.79-9.16,2.23-9.32,5.66-12.13,17.61-16.55,27.53-10.51,24.04-33.15,40.13-54.68,55.02-7.23,4.94-15.32,10.12-24.04,9.32-8.72-.81-16.47-11.44-11.4-18.47,3.49-4.85,11.45-6.76,11.53-12.76,0-7.45-12.77-8.76-14.25-16.13,8-19.91,32.89-25.06,52.64-33.48,24.2-10.31,44.11-28.64,56.38-51.92,1.22-1.72,2.07-3.68,2.48-5.74.41-2.07.38-4.2-.1-6.26-1.96-5.61-8.81-7.45-14.77-8.51-13.96-2.25-31.66-2.89-38.64,9.4-3.7,6.6-2.89,14.81-5.62,21.87-8.04,20.98-38.3,19.1-58.12,29.4-7.83,3.95-14.34,10.17-22.72,12.76-9.06,2.85-18.94,1.11-28.42.47h-5.06c-6.89,7.15-13.62,14.51-20.13,22-6.51,7.49-12.77,15.15-19.06,22.94-29.39,36.89-54.73,76.83-75.57,119.14-7.4,14.85-14.17,30.04-20.42,45.57-6.26,15.53-11.91,31.36-17.02,47.49,8.51-12.38,13.7-28.47,17.91-39.78,5.62-14.94,13.23-30.68,26.85-39.45Z"/>
    </g>
    <g class="cls-12">
      <path class="cls-1" d="M1598.52,1015.96c1.32-9.49,2.42-18.94,3.23-28.38.81-9.45,1.49-18.85,1.87-28.26.39-7.62.6-15.15.64-22.72.04-7.58,0-15.91,0-23.83-.53-23.64-2.35-47.24-5.45-70.68-1.19-8.94-2.55-17.87-4.25-26.72-1.7-8.85-3.28-17.66-5.19-26.46-2.44-6.72-5.13-13.39-8.08-20-28.22-63.27-74.81-116.46-107.06-177.78-10.51-19.92-18.59-36.34-41.36-43.23-33.61-10.3-53.87,6.76-73.57-29.4-5.32-9.7-15.62-19.49-26.04-15.7,1.49,7.36,3.07,14.72,4.56,22.17.36,1.56.36,3.17,0,4.73-1.23,4.85-8.72,5.15-12.51,1.83-3.2-3.95-5.67-8.43-7.32-13.23-2.33-4.11-5.49-7.7-9.28-10.53-3.79-2.82-8.13-4.83-12.73-5.88-4.61-1.06-9.39-1.14-14.03-.25-4.64.89-9.05,2.74-12.94,5.42.17-3.35-.55-6.69-2.08-9.68-1.53-2.99-3.82-5.52-6.64-7.34-.96,3.07-2.55,5.91-4.68,8.32-2.13,2.41-4.74,4.35-7.67,5.68-2.92,1.33-6.11,2.03-9.32,2.05-3.22.02-6.4-.64-9.35-1.93-1.06-6.64,10.51-6.13,15.23-10.98,4.72-4.85,1.02-12.34-3.02-17.27-11.01-12.73-26.06-21.28-42.64-24.21-10.51-1.7-22.17-1.36-30.55-8.13-4.85-3.91-7.87-9.66-12.77-13.49-10.64-8.21-6.55,9.19-19.14,14-17.28,6.55-26.64,8.51-34.81,25.11-1.64,3.33-3.06,6.75-4.25,10.25-1.67,4.52-1.74,9.48-.19,14.04,1.55,4.57,4.62,8.45,8.69,11.03l1.27.68c6.22,2.68,8.04,10.64,7.62,17.36-.42,6.72-2.21,13.66.22,19.95,2.42,6.3,11.32,10.6,15.78,5.58,9.75-6.89,10.64-20.68,10.13-32.6-.51-11.92-.89-25.28,7.36-33.74,8.26-8.47,27.74-2.59,24.68,8.9-1.83,6.76-10.39,10.64-11.07,17.65-.68,7.02,7.41,12.13,14.51,12.77,7.1.64,14.72-.72,21.27,2.04,6.55,2.76,10.94,12.55,5.19,17.02-10.08,8.51-30.17-11.49-36.42,0-1.7,2.93-.98,6.68-1.75,9.95-2.34,10.13-15.7,12-26.08,11.79-10.38-.22-21.28-.85-30.04-6.6-8.76-5.74-13.23-18.81-6.68-26.81-4.64-4.51-13.15-1.92-16.81,3.53-3.07,5.76-4.41,12.3-3.87,18.8-10.51-3.95-21.53,3.79-28.98,12-7.45,8.21-15.11,18.04-26.08,19.75-10.98,1.7-25.06-4.81-32,4-9.03,11.49,9.57,30.34.47,41.7-5.19,6.38-15.15,4.72-23.4,5.78-21.83,2.89-33.57,32.51-21.66,51.06,11.92,18.55,40.64,21.66,58.04,8.21,12.08-9.24,18.55-23.75,28.04-35.58,9.49-11.83,25.53-21.27,39.32-15.06,5.25,2.89,9.87,6.81,13.57,11.53,6.13,6.85,12.3,13.7,18.43,20.68,3.91,4.25,8.17,9.79,6.89,15.58-1.11,4.64-5.28,7.74-7.49,11.91-6.21,12,10.34,26.6,22.81,21.28,12.47-5.32,16.26-22.68,10-34.68-8.51-16.56-32.08-27.62-28.81-46.09,14-8.51,32.17,5.15,37.36,20.73,5.19,15.57,2.98,32.6,6.98,48.38,4,15.79,19.28,31.66,34.72,26.42-1.87-13.45-3.7-26.81-5.57-40.21,10.17-5.53,17.79,16,29.23,14.25,6.98-1.1,9.19-10.59,7.23-17.48-1.96-6.89-6.34-13.06-6.55-20.21-.26-13.02,15.58-22.34,28.09-18.43,12.51,3.92,19.96,17.49,20.51,30.47-.27,5.16.14,10.34,1.19,15.4,3.36,10.68,15.32,15.53,24.93,21.28,9.62,5.74,18.89,17.53,13.1,27.15-2.59,4.25-7.91,7.79-6.93,12.77.98,4.98,6.76,6.93,6.17,11.32-.55,2.89-3.87,4.25-6.72,5.19-7.31,1.83-14.94,1.66-22.08,3.95-7.14,2.3-14.12,7.75-14.63,15.11-.68,10.56,10.98,17.36,15.57,26.85,4.6,9.49,2.04,19.91,4.25,29.79,2.09,9.15,8,17.02,12.47,25.15,13.87,26.08,13.58,57.02,17.96,86.17,1.96,13.19,6.81,28.25,19.37,32.51,7.12,1.62,14.55,1.26,21.49-1.02,19.7-4.73,40.25-9.83,55.32-23.06,15.06-13.23,23.31-37.45,12-54.29-1.24-2.31-3.29-4.08-5.74-4.98-3.56-.28-7.13.41-10.34,2-10.12,3.02-21.27-2.3-28.17-10.47-6.89-8.17-10.21-18.38-13.58-28.47-3.62-11.06-7.19-22.21-10.94-33.4,6.94-4.25,16.43-.72,22.04,5.32,5.61,6.04,8.3,13.95,12.51,20.98,12.77,21.66,37.07,34.04,61.36,40.38,6.3,1.26,12.37,3.47,18,6.55,17.23,11.11,18.6,39.1,37.28,47.79,5.19,2.42,11.27,2.98,16.04,6.13,7.19,4.77,9.79,14.08,10.9,22.68,2.04,15.95,1.19,32.29,5.53,47.87,4.34,15.57,15.36,30.64,31.19,33.15,5,.59,10.06.2,14.9-1.17,4.84-1.37,9.36-3.67,13.31-6.79,2.94-14.25,5.53-28.59,7.62-43.19.25-3.37.68-6.39.89-9.45Z"/>
    </g>
    <g class="cls-12">
      <path class="cls-1" d="M1293.68,1251.45c-10.08.51-12.76,6-19.28,12.51-8.29,8.51-19.62,16.47-27.32,24.89-13.02,14.3-6.93,40.42-22.93,51.7-3.53,1.87-6.95,3.93-10.25,6.17-3.08,3.13-4.8,7.35-4.8,11.74s1.72,8.61,4.8,11.74c3.26,2.97,7.31,4.92,11.66,5.63,4.35.71,8.81.15,12.85-1.63,8.04-3.74,14.43-10.27,18-18.38,2.72-5.7,4.77-12.3,10.08-15.74,9.06-5.91,20.85,1.15,31.7,1.19,46.17.38,39.65-92.08-4.52-89.82Z"/>
    </g>
    <path class="cls-7" d="M370.7,291.61c-8.79-2.71-18.11-3.25-27.16-1.58-9.05,1.68-17.56,5.51-24.8,11.19,0,0-35.02,26.77-21.28,66.04,5.19,14.41,15.36,26.48,28.68,34.05,5.02,2.91,10.32,5.31,15.83,7.14,19.06,6.17,74.47,20.3,74.47,20.3l6.08-4.68c-.47-17.02-8.51-68.08-11.36-84.42-3.79-20.21-18.25-41.45-40.47-48.04ZM383.46,373.74c-5.91,4.53-13.04,7.2-20.47,7.68-7.43.48-14.84-1.25-21.29-4.99-6.45-3.73-11.64-9.29-14.93-15.98-3.29-6.69-4.52-14.2-3.53-21.58.98-7.39,4.13-14.31,9.05-19.91,4.92-5.59,11.39-9.6,18.59-11.52,7.2-1.92,14.8-1.66,21.86.75,7.05,2.41,13.23,6.85,17.75,12.77,3.01,3.92,5.21,8.4,6.48,13.17,1.27,4.78,1.59,9.76.94,14.66-.65,4.9-2.26,9.62-4.74,13.9-2.48,4.28-5.78,8.02-9.7,11.03Z"/>
    <path class="cls-10" d="M370.7,291.61c-8.79-2.71-18.11-3.25-27.16-1.58-9.05,1.68-17.56,5.51-24.8,11.19,0,0-35.02,26.77-21.28,66.04,5.19,14.41,15.36,26.48,28.68,34.05,5.02,2.91,10.32,5.31,15.83,7.14,19.06,6.17,74.47,20.3,74.47,20.3l6.08-4.68c-.47-17.02-8.51-68.08-11.36-84.42-3.79-20.21-18.25-41.45-40.47-48.04ZM383.46,373.74c-5.91,4.53-13.04,7.2-20.47,7.68-7.43.48-14.84-1.25-21.29-4.99-6.45-3.73-11.64-9.29-14.93-15.98-3.29-6.69-4.52-14.2-3.53-21.58.98-7.39,4.13-14.31,9.05-19.91,4.92-5.59,11.39-9.6,18.59-11.52,7.2-1.92,14.8-1.66,21.86.75,7.05,2.41,13.23,6.85,17.75,12.77,3.01,3.92,5.21,8.4,6.48,13.17,1.27,4.78,1.59,9.76.94,14.66-.65,4.9-2.26,9.62-4.74,13.9-2.48,4.28-5.78,8.02-9.7,11.03Z"/>
    <path class="cls-7" d="M377.04,287.14c-8.79-2.71-18.1-3.26-27.14-1.58-9.04,1.68-17.54,5.52-24.77,11.2,0,0-35.02,26.76-21.28,66.04,5.19,14.4,15.36,26.48,28.68,34.04,5.02,2.94,10.34,5.34,15.87,7.15,19.02,6.17,74.42,20.29,74.42,20.29,0,0-1.7-69.57-5.28-89.1-3.87-20.21-18.3-41.4-40.51-48.04ZM383.68,373.95c-3.91,3.06-8.4,5.31-13.19,6.61-4.79,1.3-9.8,1.64-14.73.98-4.93-.65-9.67-2.28-13.96-4.79-4.29-2.51-8.03-5.85-11.01-9.83-4.53-5.91-7.2-13.04-7.68-20.47-.48-7.44,1.26-14.85,4.99-21.29,3.73-6.45,9.29-11.64,15.98-14.93,6.69-3.29,14.2-4.52,21.58-3.53,7.38.98,14.31,4.13,19.91,9.05,5.59,4.92,9.6,11.39,11.52,18.59,1.92,7.2,1.65,14.81-.75,21.86-2.41,7.05-6.85,13.22-12.77,17.75h.13Z"/>
    <path class="cls-7" d="M337.72,313.91c-6.14,4.76-10.66,11.3-12.94,18.72-2.28,7.43-2.22,15.38.18,22.76-1.59-6.86-.9-14.06,1.98-20.48,2.88-6.43,7.79-11.73,13.97-15.12,6.18-3.38,13.3-4.64,20.27-3.59,6.97,1.05,13.4,4.35,18.31,9.4,4.91,5.05,8.04,11.57,8.9,18.56.86,6.99-.59,14.07-4.14,20.16-3.54,6.09-8.98,10.85-15.49,13.56-6.5,2.7-13.72,3.21-20.53,1.43,6.15,2.18,12.76,2.72,19.19,1.58,6.42-1.14,12.44-3.93,17.46-8.1,5.02-4.17,8.87-9.57,11.17-15.68,2.3-6.11,2.98-12.7,1.97-19.15-1.01-6.45-3.69-12.52-7.76-17.62-4.07-5.1-9.39-9.06-15.45-11.48-6.06-2.42-12.64-3.24-19.11-2.35-6.46.88-12.59,3.44-17.77,7.4h-.21Z"/>
    <path class="cls-10" d="M337.72,313.74c-6.14,4.76-10.66,11.3-12.94,18.72-2.28,7.43-2.22,15.38.18,22.76-1.59-6.86-.9-14.06,1.98-20.48,2.88-6.43,7.79-11.73,13.97-15.12,6.18-3.38,13.3-4.64,20.27-3.59,6.97,1.05,13.4,4.35,18.31,9.4,4.91,5.05,8.04,11.57,8.9,18.56.86,6.99-.59,14.07-4.14,20.16-3.54,6.09-8.98,10.85-15.49,13.56-6.5,2.7-13.72,3.21-20.53,1.43,6.15,2.18,12.76,2.72,19.19,1.58,6.42-1.14,12.44-3.93,17.46-8.1,5.02-4.17,8.87-9.57,11.17-15.68,2.3-6.11,2.98-12.7,1.97-19.15-1.01-6.45-3.69-12.52-7.76-17.62-4.07-5.1-9.39-9.06-15.45-11.48-6.06-2.42-12.64-3.24-19.11-2.35-6.46.88-12.59,3.44-17.77,7.4h-.21Z"/>
    <path class="cls-7" d="M1790.77,807.93c6.46-6.55,11.24-14.57,13.92-23.38,2.68-8.8,3.19-18.13,1.48-27.17,0,0-7.62-43.4-48.77-49.44-15.19-2.06-30.6,1.41-43.44,9.78-4.92,3.08-9.5,6.68-13.66,10.73-14.21,14.08-52.29,56.72-52.29,56.72l1.31,7.62c15.24,7.36,64.51,23.96,80.17,28.76,19.74,6.04,45.19,3.02,61.27-13.62ZM1712.01,781.38c-1.28-7.34-.37-14.89,2.64-21.7,3.01-6.81,7.97-12.58,14.25-16.58,6.28-3.99,13.61-6.04,21.06-5.86,7.45.17,14.67,2.54,20.77,6.82,6.1,4.27,10.79,10.26,13.48,17.21,2.69,6.94,3.27,14.53,1.65,21.79-1.62,7.27-5.35,13.9-10.73,19.04-5.38,5.15-12.17,8.58-19.51,9.87-4.87.86-9.87.75-14.7-.32-4.83-1.07-9.41-3.09-13.46-5.93-4.05-2.84-7.51-6.46-10.15-10.64-2.65-4.18-4.46-8.84-5.3-13.71Z"/>
    <path class="cls-10" d="M1790.77,807.93c6.46-6.55,11.24-14.57,13.92-23.38,2.68-8.8,3.19-18.13,1.48-27.17,0,0-7.62-43.4-48.77-49.44-15.19-2.06-30.6,1.41-43.44,9.78-4.92,3.08-9.5,6.68-13.66,10.73-14.21,14.08-52.29,56.72-52.29,56.72l1.31,7.62c15.24,7.36,64.51,23.96,80.17,28.76,19.74,6.04,45.19,3.02,61.27-13.62ZM1712.01,781.38c-1.28-7.34-.37-14.89,2.64-21.7,3.01-6.81,7.97-12.58,14.25-16.58,6.28-3.99,13.61-6.04,21.06-5.86,7.45.17,14.67,2.54,20.77,6.82,6.1,4.27,10.79,10.26,13.48,17.21,2.69,6.94,3.27,14.53,1.65,21.79-1.62,7.27-5.35,13.9-10.73,19.04-5.38,5.15-12.17,8.58-19.51,9.87-4.87.86-9.87.75-14.7-.32-4.83-1.07-9.41-3.09-13.46-5.93-4.05-2.84-7.51-6.46-10.15-10.64-2.65-4.18-4.46-8.84-5.3-13.71Z"/>
    <path class="cls-7" d="M1791.83,815.59c6.47-6.54,11.25-14.55,13.95-23.35,2.7-8.8,3.23-18.12,1.54-27.16,0,0-7.66-43.44-48.77-49.44-15.19-2.04-30.61,1.42-43.49,9.74-4.9,3.1-9.47,6.71-13.62,10.77-14.34,14.04-52.42,56.59-52.42,56.59,0,0,62.55,30.55,81.53,36.38,19.7,6.17,45.14,3.15,61.27-13.53ZM1711.71,781.55c-1.29-7.33-.38-14.89,2.62-21.71,3.01-6.82,7.96-12.59,14.24-16.59,6.29-4,13.61-6.05,21.06-5.88,7.45.16,14.68,2.53,20.78,6.8,6.1,4.27,10.8,10.26,13.5,17.2,2.7,6.94,3.28,14.53,1.66,21.8-1.61,7.27-5.35,13.9-10.73,19.05-5.38,5.15-12.17,8.59-19.51,9.88-4.88.89-9.88.81-14.72-.25-4.84-1.06-9.43-3.07-13.49-5.92-4.06-2.84-7.51-6.47-10.15-10.66-2.64-4.19-4.43-8.87-5.25-13.76v.05Z"/>
    <path class="cls-7" d="M1786.04,768.36c-1.35-7.66-5.04-14.72-10.57-20.19-5.52-5.48-12.61-9.12-20.28-10.4,6.83,1.75,12.89,5.69,17.27,11.21,4.37,5.53,6.82,12.33,6.96,19.38.15,7.04-2.03,13.94-6.18,19.64-4.15,5.7-10.05,9.88-16.8,11.9-6.75,2.03-13.98,1.79-20.58-.69-6.6-2.47-12.21-7.03-15.97-12.99-3.76-5.96-5.46-12.99-4.85-20.01.61-7.02,3.51-13.65,8.24-18.87-4.77,4.45-8.31,10.06-10.26,16.3-1.95,6.23-2.25,12.85-.87,19.24,1.38,6.38,4.4,12.29,8.75,17.15,4.36,4.86,9.9,8.5,16.09,10.58,6.19,2.08,12.81,2.5,19.22,1.24,6.41-1.25,12.37-4.15,17.32-8.41,4.95-4.26,8.7-9.73,10.89-15.88,2.2-6.15,2.75-12.76,1.62-19.18Z"/>
    <path class="cls-10" d="M1786.04,768.36c-1.35-7.66-5.04-14.72-10.57-20.19-5.52-5.48-12.61-9.12-20.28-10.4,6.83,1.75,12.89,5.69,17.27,11.21,4.37,5.53,6.82,12.33,6.96,19.38.15,7.04-2.03,13.94-6.18,19.64-4.15,5.7-10.05,9.88-16.8,11.9-6.75,2.03-13.98,1.79-20.58-.69-6.6-2.47-12.21-7.03-15.97-12.99-3.76-5.96-5.46-12.99-4.85-20.01.61-7.02,3.51-13.65,8.24-18.87-4.77,4.45-8.31,10.06-10.26,16.3-1.95,6.23-2.25,12.85-.87,19.24,1.38,6.38,4.4,12.29,8.75,17.15,4.36,4.86,9.9,8.5,16.09,10.58,6.19,2.08,12.81,2.5,19.22,1.24,6.41-1.25,12.37-4.15,17.32-8.41,4.95-4.26,8.7-9.73,10.89-15.88,2.2-6.15,2.75-12.76,1.62-19.18Z"/>
    <path class="cls-8" d="M253.68,1465.06c-1.24,9.13-.24,18.41,2.9,27.07,3.14,8.65,8.34,16.42,15.14,22.63,0,0,32.17,30.13,68.64,10.21,13.4-7.51,23.66-19.59,28.89-34.04,2.01-5.43,3.44-11.07,4.25-16.81,2.94-19.79,7.74-76.59,7.74-76.59l-5.62-5.27c-16.59,3.28-65.95,19.57-81.36,25.15-19.19,7.11-37.74,24.81-40.59,47.66ZM332.57,1438.97c5.44,5.09,9.25,11.68,10.95,18.93,1.7,7.25,1.2,14.85-1.42,21.82-2.62,6.97-7.25,13.01-13.31,17.35-6.06,4.34-13.26,6.79-20.71,7.03-7.45.25-14.8-1.73-21.12-5.66-6.33-3.94-11.34-9.66-14.42-16.45-3.07-6.79-4.06-14.33-2.85-21.68,1.22-7.35,4.59-14.18,9.68-19.61,6.84-7.26,16.29-11.51,26.26-11.81,9.97-.31,19.66,3.36,26.93,10.19v-.13Z"/>
    <path class="cls-3" d="M248.24,1459.69c-1.24,9.12-.24,18.4,2.9,27.05,3.14,8.65,8.34,16.41,15.14,22.61,0,0,32.17,30.12,68.64,10.25,13.41-7.5,23.67-19.59,28.89-34.05,2.03-5.5,3.45-11.21,4.25-17.02,2.94-19.79,7.74-76.59,7.74-76.59,0,0-68.34,13.1-86.98,19.87-19.19,7.15-37.74,24.85-40.59,47.87ZM332.74,1438.84c5.44,5.09,9.25,11.67,10.95,18.93,1.7,7.25,1.2,14.85-1.42,21.82-2.62,6.97-7.25,13.01-13.31,17.35-6.06,4.34-13.26,6.79-20.71,7.03-7.45.25-14.8-1.73-21.12-5.66-6.33-3.93-11.34-9.66-14.42-16.45-3.07-6.79-4.06-14.33-2.85-21.68,1.22-7.35,4.59-14.17,9.68-19.61,3.36-3.64,7.41-6.57,11.91-8.62,4.5-2.06,9.37-3.2,14.32-3.36,4.95-.16,9.88.66,14.51,2.42,4.63,1.76,8.86,4.41,12.45,7.82Z"/>
    <path class="cls-8" d="M281.13,1494.07c5.68,5.31,12.86,8.74,20.56,9.8,7.7,1.07,15.55-.28,22.46-3.85-6.51,2.69-13.72,3.19-20.54,1.39-6.81-1.79-12.85-5.76-17.2-11.31-4.34-5.55-6.75-12.37-6.85-19.41-.1-7.04,2.11-13.93,6.29-19.6,4.18-5.67,10.1-9.82,16.86-11.81,6.76-1.99,13.98-1.71,20.57.8,6.59,2.5,12.17,7.09,15.9,13.07,3.73,5.98,5.4,13.01,4.75,20.03,1.14-6.43.6-13.04-1.58-19.19-2.18-6.15-5.92-11.63-10.86-15.9-4.94-4.27-10.9-7.18-17.3-8.45-6.4-1.27-13.02-.86-19.22,1.2-6.19,2.06-11.74,5.69-16.11,10.55-4.37,4.85-7.39,10.76-8.79,17.13-1.4,6.38-1.11,13,.83,19.24,1.94,6.24,5.46,11.86,10.23,16.32Z"/>
    <path class="cls-8" d="M1554.44,390.2c.88-6.47.19-13.05-2.04-19.19-2.23-6.14-5.91-11.64-10.73-16.04,0,0-22.85-21.27-48.76-7.27-9.49,5.31-16.76,13.84-20.51,24.04-1.47,3.86-2.53,7.87-3.15,11.96-2.09,14.04-5.53,54.47-5.53,54.47l4,3.74c11.78-2.34,46.8-13.87,57.78-17.83,13.75-4.98,26.94-17.53,28.94-33.87ZM1498.44,408.76c-3.86-3.61-6.56-8.28-7.76-13.43-1.2-5.15-.86-10.54,1-15.48,1.86-4.95,5.14-9.23,9.43-12.31,4.29-3.09,9.4-4.82,14.68-5,5.28-.18,10.5,1.21,14.99,4,4.49,2.78,8.06,6.84,10.24,11.65,2.19,4.81,2.89,10.16,2.04,15.38-.85,5.21-3.23,10.06-6.84,13.92-4.85,5.17-11.54,8.21-18.63,8.45-7.08.24-13.98-2.34-19.16-7.17Z"/>
    <path class="cls-3" d="M1558.31,394.12c.88-6.47.19-13.05-2.04-19.19-2.22-6.14-5.9-11.64-10.73-16.04,0,0-22.85-21.28-48.77-7.28-9.51,5.32-16.79,13.89-20.51,24.13-1.47,3.86-2.52,7.87-3.15,11.96-2.09,14.04-5.53,54.46-5.53,54.46,0,0,48.55-9.32,61.78-14.08,13.23-4.77,26.9-17.62,28.94-33.96ZM1498.31,408.93c-2.59-2.38-4.68-5.26-6.14-8.46-1.47-3.2-2.28-6.66-2.4-10.17-.12-3.52.47-7.02,1.73-10.31,1.25-3.29,3.15-6.3,5.58-8.84,3.61-3.85,8.29-6.55,13.44-7.75,5.15-1.2,10.54-.84,15.48,1.02,4.95,1.86,9.23,5.15,12.31,9.45,3.08,4.29,4.81,9.41,4.98,14.68.18,5.28-1.22,10.5-4.01,14.99-2.79,4.49-6.85,8.05-11.66,10.23-4.81,2.18-10.16,2.88-15.38,2.03-5.21-.86-10.05-3.25-13.91-6.86Z"/>
    <path class="cls-8" d="M1534.99,369.73c-4.03-3.78-9.13-6.22-14.6-6.98-5.47-.76-11.05.19-15.95,2.72,4.62-1.91,9.74-2.26,14.57-.99,4.84,1.27,9.13,4.09,12.21,8.03,3.09,3.93,4.79,8.77,4.87,13.77.07,5-1.5,9.89-4.46,13.91-2.97,4.03-7.17,6.97-11.97,8.38-4.8,1.41-9.92,1.22-14.6-.56-4.67-1.78-8.63-5.04-11.28-9.28-2.65-4.24-3.84-9.24-3.38-14.21-.81,4.56-.42,9.25,1.12,13.61,1.55,4.36,4.2,8.25,7.71,11.28,3.5,3.03,7.73,5.1,12.27,6,4.54.9,9.24.61,13.63-.85,4.39-1.45,8.33-4.03,11.43-7.47,3.1-3.44,5.25-7.63,6.25-12.15,1-4.53.8-9.23-.57-13.65-1.37-4.43-3.86-8.41-7.24-11.58Z"/>
    <path class="cls-11" d="M749.37,1218.64h157.82s-13.96-25.53-54.59-21.7c-38.81,3.53-40.77-12.51-60.51-14.47-19.74-1.96-36.13,13.15-42.72,36.17Z"/>
    <path class="cls-11" d="M857.87,1081.71h233.57s-20.63-37.57-80.85-32.13c-57.44,5.24-60.33-18.47-89.36-21.27-29.02-2.81-53.61,19.36-63.36,53.4Z"/>
    <path class="cls-11" d="M554.95,732.57h152.8s-13.53-24.55-52.85-20.98c-37.57,3.41-39.49-12.13-58.55-14-19.06-1.87-35.02,12.72-41.4,34.97Z"/>
  </g>
</svg>
