<?xml version="1.0" encoding="UTF-8"?>
<svg id="Layer_1" data-name="Layer 1" xmlns="http://www.w3.org/2000/svg" viewBox="0 0 1907.54 1786">
  <defs>
    <style>
      .cls-1 {
        fill: #e0e0e0;
      }

      .cls-1, .cls-2, .cls-3, .cls-4, .cls-5, .cls-6, .cls-7, .cls-8, .cls-9, .cls-10, .cls-11, .cls-12 {
        stroke-width: 0px;
      }

      .cls-13 {
        opacity: .2;
      }

      .cls-2 {
        fill: #455a64;
      }

      .cls-3 {
        fill: #f5f5f5;
      }

      .cls-4 {
        fill: #09f;
      }

      .cls-5 {
        fill: #ebebeb;
      }

      .cls-6 {
        fill: #e2323d;
      }

      .cls-7 {
        fill: #263238;
      }

      .cls-8 {
        fill: #fafafa;
      }

      .cls-9 {
        fill: #6f4439;
      }

      .cls-10 {
        fill: #000;
        isolation: isolate;
        opacity: .3;
      }

      .cls-11 {
        fill: #fff;
      }

      .cls-12 {
        fill: #ae7461;
      }
    </style>
  </defs>
  <path class="cls-1" d="M444.08,333.87c33.56,51.51,11.33,130.08-49.92,169.86-61.26,39.78-136.93,26.07-170.37-25.6-33.44-51.67.28-103.93,61.49-143.75,51.03-33.16,100-49.65,135.74-22.54,8.8,6.08,16.59,13.51,23.06,22.03Z"/>
  <path class="cls-5" d="M368.35,459.02c59.23-38.49,88.28-98.88,64.88-134.88-23.4-36-90.37-33.98-149.6,4.51-59.23,38.49-88.27,98.88-64.88,134.88,23.4,36,90.37,33.98,149.6-4.51Z"/>
  <path class="cls-1" d="M430.77,320.28c-.87,3.25-15.85.36-37.48,8.99-12.43,4.83-23.89,11.84-33.84,20.72-5.67,5.1-10.61,10.96-14.7,17.39-4.48,6.9-8.72,14.78-13.47,23.14-2.38,4.2-4.87,8.4-7.57,12.52-2.69,4.12-5.71,7.92-8.6,11.89-5.77,7.14-12.14,13.77-19.06,19.81-6.14,5.42-12.78,10.26-19.81,14.46-3.29,2.1-6.74,3.73-9.95,5.39-3.14,1.48-6.35,2.81-9.63,3.96-9.81,3.84-20.3,5.66-30.83,5.35-2.87-.07-5.71-.55-8.44-1.43-1.86-.67-2.85-1.38-2.81-2.14,0-3.45,15.37-4.48,35.66-15.85,26.25-15.46,47.71-37.88,62.01-64.78,4.6-7.93,9.23-16.48,14.78-24.37,5.42-7.89,11.99-14.93,19.49-20.88,12.49-9.82,27.04-16.68,42.55-20.09,10.42-2.49,21.28-2.49,31.7,0,1.82.53,3.41,1.04,4.76,1.55,1.13.5,2.22,1.1,3.25,1.78,1.58.91,2.34,1.82,1.98,2.58Z"/>
  <path class="cls-5" d="M353.58,329.95c-1.92,1.61-3.93,3.12-6.02,4.52-5.38,4.25-10.29,9.06-14.66,14.34-6.35,7.96-12.05,16.43-17.04,25.32-5.82,9.91-11.89,21.16-19.34,32.25-7.1,10.51-16.14,19.57-26.63,26.7-8.47,5.81-17.45,10.85-26.82,15.06-7.92,3.65-14.54,6.26-19.1,7.92l-5.27,1.94c-.6.28-1.24.47-1.9.55,0,0,.55-.4,1.74-.95l5.11-2.3c4.44-2.02,10.94-4.79,18.78-8.6,9.21-4.35,18.03-9.47,26.39-15.29,4.89-3.45,9.49-7.29,13.75-11.49,4.51-4.56,8.61-9.52,12.24-14.82,7.45-10.94,13.43-22.15,19.41-32.1,5.12-8.8,10.96-17.17,17.47-25,4.54-5.26,9.67-9.98,15.29-14.07,2.02-1.35,3.73-2.26,4.83-2.93.54-.42,1.13-.77,1.74-1.07Z"/>
  <path class="cls-5" d="M422.84,322.42c-1.73.59-3.5,1.02-5.31,1.27-3.45.71-8.4,1.9-14.38,3.96-15.61,4.91-30.04,13-42.36,23.77-14.3,12.72-21.71,29-28.29,39.62-2.52,4.35-5.35,8.51-8.48,12.44-.83,1.08-1.72,2.11-2.65,3.09-.63.67-1.03.99-1.07.95.94-1.57,1.97-3.07,3.09-4.51,2.79-4.11,5.37-8.35,7.73-12.72,3.09-5.47,6.54-12.17,10.9-19.33,4.73-7.91,10.61-15.08,17.43-21.28,12.48-11.03,27.26-19.16,43.26-23.77,4.81-1.4,9.71-2.46,14.66-3.17,1.81-.29,3.64-.4,5.47-.32Z"/>
  <path class="cls-8" d="M440.95,345.92c.19.83.31,1.68.36,2.54.16,2.47.16,4.94,0,7.41-.5,9.09-2.33,18.06-5.43,26.63-4.64,12.67-11.14,24.58-19.3,35.34-4.76,6.43-10.06,12.43-15.85,17.95-6.27,5.69-12.89,10.98-19.81,15.85-24.41,17.49-52.19,29.7-81.58,35.86-8.92,1.75-18.02,2.41-27.1,1.94-2.46-.1-4.91-.36-7.33-.79-.86-.08-1.71-.26-2.54-.51,0,0,3.57.32,9.91.51,9,.15,17.98-.71,26.78-2.57,29.04-6.52,56.47-18.81,80.67-36.14,24.82-16.53,44-40.23,55-67.95,3.15-8.41,5.17-17.21,5.98-26.15.44-6.38,0-9.91.24-9.91Z"/>
  <g class="cls-13">
    <path class="cls-11" d="M355.68,313.78c-1.19-.71-2.6-.97-3.96-.71-35.27,2.33-68.44,17.6-93.15,42.87-20.37,20.96-38.55,48.42-40.89,75.99-.79,9.39,7.01,14.46,15.85,10.74,17.47-7.53,42.16-20.53,54.4-36.41,13.63-17.67,19.37-40.42,32.73-58.28,8.04-10.73,18.49-19.41,30.51-25.36,1.88-.72,3.56-1.88,4.91-3.37.65-.79.97-1.79.9-2.81-.07-1.02-.54-1.97-1.3-2.65Z"/>
  </g>
  <path class="cls-1" d="M1532.56,373.38c-32.53,46.28-106.98,54.12-161.7,15.57-54.72-38.55-69.02-107.69-36.49-154.01,32.53-46.32,88.59-35.3,143.39,3.25,45.68,32.13,76.51,68.19,65.65,107.89-2.17,9.61-5.84,18.82-10.86,27.3Z"/>
  <path class="cls-5" d="M1537.23,360.9c22.67-32.24-1.94-88.59-54.96-125.87-53.02-37.28-114.38-41.36-137.05-9.12-22.67,32.24,1.94,88.59,54.96,125.87,53.02,37.28,114.38,41.36,137.05,9.12Z"/>
  <path class="cls-1" d="M1539.65,357.53c-3.09.36-5.74-13.47-20.48-28.8-8.33-8.96-18.23-16.33-29.2-21.75-6.28-3.08-12.94-5.29-19.81-6.58-7.41-1.47-15.57-2.38-24.33-3.57-4.4-.59-8.8-1.27-13.23-2.14-4.4-.88-8.75-2-13.03-3.33-8.03-2.48-15.82-5.65-23.3-9.47-6.78-3.37-13.23-7.35-19.29-11.89-2.89-2.1-5.47-4.48-7.93-6.62-2.46-2.14-4.76-4.44-6.74-6.81-6.61-7.04-11.75-15.34-15.09-24.41-.91-2.47-1.47-5.06-1.66-7.69,0-1.82.2-2.89.87-3.13,2.89-1.19,9.03,11.53,25.75,24.88,22.16,16.99,48.58,27.53,76.35,30.47,8.48,1.19,17.2,2.26,25.83,4.28,8.57,1.92,16.79,5.11,24.41,9.47,12.65,7.27,23.48,17.3,31.7,29.36,5.7,7.97,9.45,17.18,10.94,26.86,0,1.74.24,3.25.28,4.56-.03,1.15-.16,2.29-.4,3.41-.4,1.86-.91,2.81-1.62,2.89Z"/>
  <path class="cls-5" d="M1504.94,294.96c-2.05-1.06-4.02-2.27-5.9-3.61-5.46-3.11-11.24-5.64-17.24-7.53-8.95-2.69-18.11-4.64-27.38-5.82-10.42-1.59-22.07-2.77-34.07-5.43-11.31-2.52-22.06-7.11-31.7-13.55-7.85-5.26-15.22-11.19-22.03-17.75-5.83-5.55-10.26-10.26-13.31-13.55l-3.48-3.96c-.75-.91-1.15-1.39-1.11-1.47,1.84,1.44,3.56,3.01,5.15,4.71,3.25,3.09,7.92,7.65,13.75,13.04,6.84,6.39,14.19,12.19,21.99,17.35,9.53,6.26,20.12,10.72,31.26,13.15,11.89,2.61,23.46,3.96,33.96,5.55,9.33,1.32,18.53,3.44,27.5,6.34,6.04,2.04,11.82,4.81,17.19,8.24,1.37.96,2.7,1.99,3.96,3.09.54.32,1.04.72,1.46,1.19Z"/>
  <path class="cls-5" d="M1535.02,351.31c-.32,0-3.76-6.14-11.09-15.06-9.53-11.53-21.33-20.97-34.67-27.73-15.85-7.92-32.09-8.56-43.58-10.54-4.56-.63-9.06-1.59-13.47-2.89-1.65-.38-3.24-1-4.71-1.82,1.66.23,3.3.59,4.91,1.07,4.45.97,8.94,1.71,13.47,2.22,5.71.71,12.6,1.35,20.21,2.65,8.25,1.3,16.27,3.82,23.78,7.49,13.63,6.9,25.55,16.73,34.9,28.8,2.84,3.63,5.4,7.45,7.69,11.45,1.04,1.33,1.91,2.8,2.58,4.36Z"/>
  <path class="cls-8" d="M1521.23,374.8c-.61.5-1.29.91-2.02,1.23-2.02,1.02-4.09,1.92-6.22,2.7-7.91,2.7-16.17,4.22-24.52,4.51-12.39.4-24.77-1.05-36.73-4.32-7.09-1.83-14.01-4.27-20.68-7.29-7.06-3.39-13.91-7.23-20.48-11.49-23.27-14.8-43.18-34.32-58.44-57.29-4.54-6.92-8.21-14.37-10.94-22.19-.72-2.14-1.32-4.32-1.78-6.54-.24-.76-.39-1.54-.43-2.34.23,0,.99,3.13,3.01,8.6,2.94,7.7,6.76,15.04,11.37,21.87,15.47,22.5,35.3,41.66,58.33,56.34,22.58,15.44,49.35,23.6,76.7,23.38,8.25-.2,16.44-1.53,24.33-3.96,5.59-1.82,8.44-3.37,8.52-3.21Z"/>
  <g class="cls-13">
    <path class="cls-11" d="M1519.44,291.24c.2-1.22-.06-2.48-.71-3.53-14.01-29.29-38.35-52.36-68.35-64.78-24.8-10.18-54.4-16.24-78.69-8.84-8.28,2.54-9.91,10.9-3.96,17,12.36,12.32,31.7,28.92,49.57,33.92,19.81,5.59,41.05,2.69,60.86,7.92,11.87,3.16,22.83,9.08,31.98,17.27,1.27,1.36,2.85,2.4,4.59,3.05.89.35,1.89.34,2.77-.04.88-.38,1.58-1.09,1.94-1.98Z"/>
  </g>
  <path class="cls-1" d="M1297.76,59.81c.67,41.17-39.62,77.62-88.44,78.45-48.81.83-86.73-33.76-87.4-74.92-.67-41.17,36.97-58.72,85.7-59.43,40.61-.59,74.21,7.33,84.83,35.07,2.86,6.62,4.65,13.66,5.31,20.84Z"/>
  <path class="cls-5" d="M1295.07,50.46c.47,28.69-37.32,52.58-84.47,53.37-47.15.79-85.78-21.79-86.26-50.48-.48-28.69,37.32-52.54,84.47-53.33,47.15-.79,85.7,21.79,86.26,50.44Z"/>
  <path class="cls-1" d="M1295.15,47.45c-1.66,1.55-9.15-5.43-24.41-8.16-8.75-1.68-17.73-1.77-26.51-.28-5,.9-9.87,2.45-14.46,4.64-4.99,2.3-10.18,5.27-15.85,8.32-2.81,1.55-5.7,3.05-8.68,4.44-2.97,1.39-6.1,2.54-9.07,3.61-5.79,1.99-11.74,3.47-17.79,4.44-5.46.88-10.99,1.26-16.52,1.15-2.57,0-5.11-.28-7.53-.48-2.42-.2-4.72-.59-6.85-1.11-6.92-1.3-13.5-4-19.34-7.92-1.64-1.08-3.08-2.41-4.28-3.96-.83-1.03-1.11-1.78-.83-2.22,1.19-1.9,10.26,2.93,25.79,3.61,20.35.62,40.47-4.41,58.13-14.54,5.52-3.14,11.19-5.99,17-8.56,5.86-2.55,12.07-4.21,18.42-4.91,10.56-1.13,21.23.15,31.22,3.72,6.75,2.25,12.88,6.05,17.91,11.09.83.95,1.55,1.82,2.14,2.58.6.75.91,1.55,1.23,2.18.56,1.27.63,2.06.28,2.38Z"/>
  <path class="cls-5" d="M1247.92,25.54c-6.22.46-12.37,1.66-18.31,3.57-6.39,2.28-12.59,5.06-18.54,8.32-6.81,3.57-14.14,7.92-22.38,11.45-7.79,3.42-16.15,5.34-24.64,5.67-6.87.29-13.76-.07-20.56-1.07-5.79-.75-10.46-1.66-13.63-2.34-1.69-.24-3.35-.65-4.95-1.23,1.7-.03,3.4.11,5.07.44,3.25.44,7.93,1.11,13.67,1.7,6.75.74,13.55.95,20.33.63,8.21-.45,16.26-2.38,23.77-5.71,7.93-3.53,15.45-7.92,22.35-11.21,6.08-3.18,12.41-5.83,18.94-7.92,4.45-1.36,9.06-2.17,13.71-2.42,1.73-.17,3.47-.13,5.19.12Z"/>
  <path class="cls-5" d="M1289.76,45.78c0,.32-4.91-1.86-13.04-3.96-10.54-2.67-21.52-3.15-32.25-1.43-12.52,2.1-22.47,8.64-29.99,12.28-2.96,1.57-6.05,2.9-9.23,3.96-1.14.46-2.34.76-3.57.87,0-.32,4.83-1.94,12.09-6.14,7.25-4.2,17.28-10.82,30.39-13.07,11.01-1.8,22.28-1.08,32.97,2.1,3.21.94,6.35,2.12,9.39,3.53,1.17.45,2.27,1.07,3.25,1.86Z"/>
  <path class="cls-8" d="M1291.7,65.51s0,.59-.6,1.62c-.73,1.47-1.55,2.9-2.45,4.28-3.49,5.01-7.7,9.48-12.48,13.27-11.44,8.77-24.69,14.87-38.79,17.87-5.63,1.03-11.32,1.7-17.04,2.02-20.06,1.27-40.17-1.71-59-8.76-5.62-2.2-10.94-5.09-15.85-8.6-1.4-.93-2.72-1.96-3.96-3.09-.87-.75-1.27-1.19-1.23-1.23.04-.04,1.94,1.35,5.51,3.68,5.06,3.22,10.45,5.88,16.09,7.92,18.72,6.49,38.55,9.18,58.32,7.92,19.85-.6,39.04-7.22,55.03-18.98,4.77-3.63,9.04-7.86,12.72-12.6,2.57-3.33,3.57-5.43,3.72-5.35Z"/>
  <g class="cls-13">
    <path class="cls-11" d="M1254.89,17.14c-.41-.81-1.1-1.45-1.94-1.78-20.78-11.21-44.96-14.34-67.91-8.8-18.94,4.64-38.99,13.75-50.08,28.53-.95.99-1.58,2.23-1.83,3.57-.25,1.35-.09,2.73.44,3.99.54,1.26,1.43,2.33,2.57,3.09,1.14.75,2.48,1.16,3.85,1.15,12.56,1.94,31.14,3.33,43.58-1.31,13.99-5.19,25.28-15.85,39.19-21.4,8.33-3.22,17.3-4.43,26.19-3.53,1.3.31,2.66.31,3.96,0,.38-.07.74-.23,1.05-.45.31-.23.57-.52.76-.85.19-.34.3-.71.33-1.09.03-.38-.02-.77-.16-1.13Z"/>
  </g>
  <path class="cls-1" d="M648.88,65.56c23.1,17.31,25.99,55.47,5.51,82.73-20.48,27.26-55.98,33.56-79.24,16.24-23.26-17.31-16.64-45.72,3.96-73.1,17.08-22.78,35.93-37.96,56.03-31.7,4.85,1.22,9.49,3.18,13.75,5.82Z"/>
  <path class="cls-5" d="M635.81,132.77c19.81-26.47,22.82-57.7,6.72-69.75-16.1-12.05-45.21-.36-65.03,26.12-19.81,26.47-22.82,57.7-6.72,69.75,16.1,12.05,45.21.36,65.02-26.12Z"/>
  <path class="cls-1" d="M640.76,61.71c0,1.55-6.97,2.73-15.02,9.98-4.69,4.13-8.59,9.07-11.53,14.58-1.67,3.16-2.9,6.53-3.65,10.02-.87,3.96-1.47,7.92-2.22,12.36-.35,2.22-.75,4.48-1.27,6.7-.52,2.24-1.16,4.45-1.9,6.62-1.38,4.11-3.11,8.09-5.19,11.89-1.84,3.42-4,6.66-6.46,9.67-1.11,1.43-2.34,2.69-3.49,3.96-1.15,1.27-2.34,2.34-3.57,3.33-3.7,3.26-8.01,5.75-12.68,7.33-1.28.43-2.62.67-3.96.71-.95,0-1.46,0-1.58-.48-.56-1.51,6.02-4.44,13.07-12.76,9.07-11.03,14.9-24.36,16.84-38.51.71-4.32,1.43-8.76,2.57-13.11,1.11-4.34,2.85-8.5,5.19-12.32,3.89-6.38,9.17-11.8,15.45-15.85,4.16-2.78,8.91-4.54,13.87-5.15h2.34c.58.05,1.17.13,1.74.24,1.07.12,1.43.44,1.43.79Z"/>
  <path class="cls-5" d="M608.47,78.59c-2.27,3.77-4.18,7.75-5.7,11.89-1.43,4.52-2.51,9.14-3.25,13.83-.95,5.31-1.7,11.21-3.25,17.35-1.45,5.83-3.99,11.32-7.49,16.21-2.84,3.93-6.03,7.59-9.55,10.94-2.93,2.85-5.47,4.99-7.21,6.46-.88.83-1.85,1.55-2.89,2.14,2.83-3.38,5.86-6.6,9.07-9.63,7.52-7.34,12.98-16.52,15.85-26.63,1.51-5.94,2.34-11.89,3.41-17.16.82-4.77,2.08-9.45,3.76-13.99,1.17-3.06,2.73-5.97,4.64-8.64.71-1.06,1.6-2,2.61-2.77Z"/>
  <path class="cls-5" d="M637.67,63.97c0,.28-3.05,2.06-7.65,5.71-5.93,4.73-10.85,10.59-14.5,17.24-3.12,6.92-5.19,14.26-6.14,21.79-.37,3.22-1.39,6.34-3.01,9.15-.32,0,.87-3.57,1.58-9.39.54-7.8,2.48-15.44,5.75-22.54,3.76-6.9,9.04-12.85,15.45-17.39,2.53-2.04,5.42-3.58,8.52-4.56Z"/>
  <path class="cls-8" d="M649.44,71.34c.97,1.26,1.67,2.7,2.06,4.24,1.34,4.08,2.05,8.34,2.1,12.64,0,10.15-2.28,20.18-6.7,29.32-1.82,3.57-3.88,7.03-6.14,10.34-7.93,11.7-18.26,21.57-30.31,28.96-3.73,2.2-7.72,3.9-11.89,5.07-1.48.52-3.03.8-4.6.83,5.45-1.78,10.68-4.19,15.57-7.17,11.59-7.6,21.57-17.42,29.36-28.88,8.17-11.21,12.76-24.61,13.2-38.47.05-4.18-.43-8.34-1.43-12.4-.68-2.89-1.39-4.4-1.23-4.48Z"/>
  <g class="cls-13">
    <path class="cls-11" d="M606.8,70.98c-.63-.09-1.26.02-1.82.32-15.14,6.72-27.27,18.78-34.07,33.88-5.55,12.48-9.11,27.5-5.7,40.02.18.92.61,1.77,1.25,2.45.64.68,1.46,1.16,2.37,1.39.91.23,1.86.19,2.75-.1.89-.29,1.67-.84,2.26-1.56,6.46-6.14,15.22-15.85,18.03-24.8,3.13-9.95,2.02-20.88,4.99-30.9,1.82-5.94,5.01-11.37,9.31-15.85.7-.62,1.24-1.39,1.59-2.26.11-.23.18-.48.19-.74.01-.26-.03-.51-.12-.75-.09-.24-.23-.46-.4-.65-.18-.19-.39-.34-.62-.44Z"/>
  </g>
  <path class="cls-1" d="M774.2,962.54c4.68,28.45-19.81,57.85-53.37,63.39-33.56,5.55-63.64-14.62-68.27-43.11-4.64-28.49,19.81-44.5,53.41-50.04,28.13-4.59,52.26-2.42,62.44,15.85,2.68,4.29,4.63,8.99,5.78,13.91Z"/>
  <path class="cls-5" d="M718.28,1001.86c32.63-5.34,56.45-25.76,53.2-45.61-3.25-19.85-32.33-31.6-64.97-26.26-32.63,5.34-56.45,25.76-53.2,45.61,3.25,19.84,32.33,31.6,64.97,26.26Z"/>
  <path class="cls-1" d="M771.15,954.22c-.99,1.23-6.89-2.85-17.75-3.21-6.24-.28-12.48.56-18.42,2.5-3.4,1.12-6.63,2.71-9.59,4.71-3.21,2.1-6.5,4.68-10.15,7.37-1.78,1.35-3.65,2.7-5.59,3.96-1.94,1.27-3.96,2.38-5.9,3.41-3.82,1.96-7.79,3.59-11.89,4.87-3.71,1.18-7.51,2.02-11.37,2.5-1.78.28-3.57.32-5.27.44-1.7.12-3.33,0-4.87,0-4.93-.22-9.76-1.42-14.23-3.53-1.22-.56-2.34-1.31-3.33-2.22-.71-.63-.99-1.11-.83-1.43.67-1.47,7.45.99,18.31,0,14.18-1.65,27.62-7.21,38.83-16.05,3.51-2.75,7.16-5.31,10.93-7.69,3.81-2.36,7.95-4.14,12.29-5.27,7.2-1.86,14.73-2.06,22.03-.6,4.91.89,9.55,2.91,13.55,5.9.68.55,1.27,1.11,1.74,1.54.48.44.79.99,1.07,1.39.28.4.79,1.11.43,1.39Z"/>
  <path class="cls-5" d="M736.17,943.8c-4.23,1.12-8.34,2.63-12.28,4.52-4.15,2.26-8.13,4.83-11.89,7.69-4.36,3.17-9,6.9-14.38,10.26-5.08,3.19-10.71,5.38-16.6,6.46-4.77.87-9.61,1.31-14.46,1.31-3.96,0-7.41-.2-9.71-.36-1.19.01-2.38-.15-3.53-.48,4.38-.43,8.79-.64,13.19-.63,10.53,0,20.88-2.72,30.03-7.93,5.23-3.29,9.91-6.93,14.34-10.06,3.9-2.86,8.05-5.35,12.4-7.45,2.97-1.38,6.1-2.39,9.31-3.01,1.16-.3,2.37-.41,3.57-.32Z"/>
  <path class="cls-5" d="M767.23,953.59c0,.32-3.65-.63-9.43-1.15-7.55-.73-15.18.06-22.42,2.34-6.98,2.78-13.5,6.6-19.33,11.33-2.48,2.1-5.39,3.62-8.52,4.48,0-.28,3.09-1.94,7.65-5.63,5.8-5.27,12.51-9.43,19.81-12.28,7.5-2.37,15.44-2.99,23.22-1.82,3.14.38,6.2,1.3,9.03,2.73Z"/>
  <path class="cls-8" d="M770.6,967.1c-.2,1.57-.68,3.09-1.43,4.48-1.87,3.86-4.31,7.41-7.25,10.54-4.36,4.65-9.41,8.61-14.98,11.73-3.25,1.89-6.65,3.49-10.18,4.79-3.81,1.31-7.7,2.35-11.65,3.13-13.81,3.01-28.11,3.01-41.92,0-4.14-.96-8.13-2.45-11.89-4.44-1.44-.67-2.78-1.55-3.96-2.62,5.17,2.5,10.6,4.4,16.2,5.67,13.64,2.53,27.63,2.37,41.21-.48,13.64-2.41,26.24-8.89,36.13-18.58,2.95-2.98,5.51-6.32,7.61-9.95,1.39-2.77,1.94-4.36,2.1-4.28Z"/>
  <g class="cls-13">
    <path class="cls-11" d="M740.13,937.27c-.37-.52-.92-.89-1.54-1.03-15.56-5.67-32.66-5.39-48.02.79-12.68,5.15-25.63,13.47-31.7,24.88-.5.78-.77,1.7-.78,2.62,0,.93.26,1.85.75,2.63.49.79,1.2,1.42,2.04,1.82.84.4,1.78.56,2.7.45,8.92,0,21.91-.83,30.19-5.35,9.15-4.99,15.85-13.67,25-18.82,5.46-3.09,11.57-4.84,17.83-5.11.94.03,1.87-.14,2.74-.51.4-.23.7-.6.84-1.04.15-.44.13-.91-.05-1.34Z"/>
  </g>
  <path class="cls-3" d="M482.55,634.72c8.84,27.5-10.89,60.14-43.58,70.6-32.69,10.46-65.06-5.11-73.86-32.61-8.79-27.5,12.92-46.91,45.49-57.33,27.14-8.68,51.51-10.1,64.11,6.54,3.26,3.83,5.91,8.15,7.84,12.8Z"/>
  <path class="cls-8" d="M433.72,684.43c31.49-10.09,52.04-33.79,45.91-52.94-6.13-19.15-36.63-26.5-68.12-16.41-31.49,10.09-52.04,33.79-45.91,52.94,6.14,19.15,36.63,26.5,68.12,16.41Z"/>
  <path class="cls-3" d="M478.31,626.95c-.79,1.39-7.25-1.78-18.03-.51-6.2.64-12.24,2.38-17.83,5.15-3.19,1.62-6.15,3.66-8.8,6.06-2.89,2.57-5.78,5.59-8.95,8.79-1.59,1.62-3.21,3.21-4.96,4.72-1.7,1.53-3.48,2.96-5.35,4.28-3.48,2.5-7.16,4.7-11.01,6.58-3.5,1.65-7.15,2.98-10.9,3.96-1.74.56-3.48.83-5.11,1.23-1.62.4-3.29.55-4.87.63-4.9.5-9.86.03-14.58-1.39-1.28-.39-2.5-.96-3.61-1.71-.79-.51-1.15-.95-1.03-1.31.43-1.54,7.49,0,18.07-2.81,13.77-3.75,26.24-11.24,36.01-21.64,3.09-3.09,6.22-6.3,9.71-9.19,3.42-2.89,7.26-5.26,11.37-7.01,6.85-2.93,14.27-4.28,21.71-3.96,5,.18,9.89,1.53,14.26,3.96.75.48,1.43.91,1.94,1.31.47.35.89.75,1.27,1.19.67.87.87,1.39.67,1.66Z"/>
  <path class="cls-3" d="M442.18,621.8c-4.01,1.74-7.84,3.85-11.45,6.3-3.8,2.84-7.37,5.97-10.7,9.35-3.96,3.96-7.92,8.16-12.72,12.28-4.57,3.89-9.82,6.88-15.49,8.84-4.57,1.56-9.28,2.69-14.06,3.37-3.96.63-7.37.95-9.67,1.11-1.18.19-2.38.19-3.57,0,4.27-1.08,8.59-1.94,12.95-2.57,10.43-1.55,20.27-5.82,28.53-12.36,4.68-3.96,8.76-8.32,12.72-11.89,3.45-3.4,7.18-6.49,11.17-9.23,2.73-1.8,5.67-3.25,8.76-4.32,1.12-.47,2.31-.76,3.53-.87Z"/>
  <path class="cls-3" d="M474.35,626.95c0,.32-3.68,0-9.51,0-7.58.41-15,2.33-21.83,5.63-6.56,3.83-12.5,8.63-17.63,14.22-2.21,2.44-4.91,4.39-7.93,5.71,0-.28,2.77-2.38,6.73-6.74,4.96-6.05,10.97-11.15,17.75-15.06,7.07-3.45,14.84-5.23,22.7-5.19,3.3-.16,6.59.33,9.71,1.43Z"/>
  <path class="cls-8" d="M479.66,639.79c.05,1.58-.2,3.15-.75,4.63-1.27,4.09-3.16,7.97-5.59,11.49-3.65,5.24-8.07,9.89-13.12,13.79-2.93,2.34-6.06,4.42-9.35,6.22-3.58,1.84-7.27,3.46-11.06,4.83-13.26,4.93-27.41,6.99-41.52,6.02-4.27-.33-8.48-1.22-12.52-2.65-1.5-.43-2.91-1.1-4.2-1.98,5.47,1.69,11.12,2.75,16.84,3.17,13.86.53,27.69-1.67,40.69-6.5,13.16-4.4,24.67-12.69,33.01-23.77,2.49-3.37,4.53-7.04,6.06-10.94,1.03-2.89,1.35-4.36,1.51-4.32Z"/>
  <g class="cls-13">
    <path class="cls-11" d="M445.11,614.75c-.43-.44-1.01-.72-1.62-.79-16.28-3.31-33.22-.49-47.54,7.93-11.89,6.97-23.38,17.16-27.74,29.32-.39.85-.52,1.79-.39,2.71.13.92.52,1.79,1.12,2.5.6.71,1.39,1.23,2.28,1.51.89.28,1.84.3,2.74.06,8.84-1.23,21.6-3.96,29.08-9.75,8.32-6.3,13.71-15.85,21.95-22.31,4.96-3.86,10.75-6.49,16.92-7.69.94-.07,1.84-.39,2.61-.91.21-.13.39-.3.54-.5.14-.2.25-.42.3-.67.06-.24.06-.49.02-.73-.04-.24-.13-.47-.26-.68Z"/>
  </g>
  <path class="cls-3" d="M349.58,169.48c-6.89,37.84-50.56,63.83-95.37,55.47-44.81-8.36-73.3-46.59-66.41-84.43,6.89-37.84,44.85-47.03,89.47-38.87,37.32,6.78,66.64,20.29,71.32,47.9,1.38,6.55,1.71,13.28.99,19.93Z"/>
  <path class="cls-8" d="M348.23,163.82c-4.79,26.35-43.82,41.33-87.17,33.4-43.35-7.92-74.61-35.66-69.81-62.01,4.79-26.35,43.82-41.33,87.17-33.4,43.35,7.92,74.61,35.66,69.81,62.01Z"/>
  <path class="cls-3" d="M349.46,157.83c-1.78,1.11-7.37-6.7-20.84-11.89-7.71-3.14-15.93-4.87-24.25-5.11-4.75-.08-9.5.46-14.11,1.62-4.99,1.19-10.3,2.97-16.05,4.72-2.85.87-5.78,1.74-8.8,2.46-3.01.71-6.06,1.23-8.95,1.66-5.66.77-11.37,1.03-17.08.79-5.18-.16-10.32-.83-15.37-1.98-2.38-.44-4.64-1.19-6.81-1.78-2.18-.59-4.36-1.62-6.1-2.38-6.09-2.45-11.62-6.12-16.24-10.78-1.28-1.24-2.37-2.67-3.21-4.24-.59-1.11-.71-1.86-.4-2.22,1.47-1.55,8.92,4.56,23.02,7.92,18.55,4.25,37.91,3.27,55.95-2.81,5.55-1.7,11.21-3.53,17.12-4.75,5.84-1.26,11.84-1.62,17.79-1.07,9.81.89,19.3,3.99,27.74,9.07,5.89,3.25,10.93,7.86,14.7,13.43.59,1.03,1.11,1.94,1.51,2.73.3.72.54,1.46.71,2.22.16,1.23.08,1.98-.32,2.38Z"/>
  <path class="cls-3" d="M310.2,128.95c-5.79-.66-11.64-.66-17.43,0-6.27.95-12.45,2.38-18.5,4.28-6.85,2.02-14.38,4.6-22.58,6.38-7.81,1.76-15.88,2-23.77.71-6.35-1-12.6-2.59-18.66-4.75-5.15-1.78-9.23-3.49-11.89-4.68-1.52-.55-2.97-1.26-4.32-2.14,1.56.28,3.09.72,4.56,1.31,2.89.99,7.05,2.46,12.24,3.96,10.22,3.05,25.24,7.17,41.4,3.45,7.92-1.78,15.57-4.28,22.5-6.22,6.16-1.88,12.47-3.21,18.86-3.96,4.33-.44,8.69-.35,13,.28,1.59.25,3.13.72,4.6,1.39Z"/>
  <path class="cls-3" d="M344.83,155.14c0,.28-4.2-2.58-11.25-5.9-9.15-4.4-19.1-6.87-29.24-7.25-11.89-.36-22.15,3.96-29.76,5.75-2.99.9-6.05,1.56-9.15,1.98-1.14.2-2.31.2-3.45,0,0-.32,4.75-.91,12.2-3.45,7.45-2.54,17.91-6.66,30.19-6.3,10.43.33,20.65,3.04,29.87,7.92,2.75,1.47,5.4,3.12,7.92,4.95,1.82,1.35,2.73,2.18,2.65,2.3Z"/>
  <path class="cls-8" d="M343,173.68s-.24.51-.83,1.39c-.93,1.24-1.95,2.4-3.05,3.49-4.09,3.97-8.75,7.31-13.83,9.91-7.49,3.81-15.5,6.48-23.77,7.92-4.9.89-9.87,1.37-14.86,1.43-5.3-.08-10.6-.51-15.85-1.27-18.74-2.49-36.75-8.93-52.82-18.9-4.8-3.07-9.19-6.73-13.08-10.9-1.06-1.13-2.04-2.34-2.93-3.61-.63-.83-1.03-1.35-1.03-1.35,5.24,5.59,11.18,10.48,17.67,14.54,15.96,9.39,33.63,15.51,51.98,17.99,18.27,3.1,37.06.56,53.85-7.29,5.04-2.41,9.73-5.49,13.95-9.15,3.09-2.65,4.48-4.2,4.6-4.2Z"/>
  <g class="cls-13">
    <path class="cls-11" d="M318.08,122.49c-.22-.81-.73-1.51-1.43-1.98-17.01-14.07-38.61-21.36-60.66-20.48-18.19.79-38.19,5.47-51.07,16.96-1,.75-1.76,1.77-2.2,2.94-.44,1.17-.53,2.44-.27,3.66s.87,2.34,1.75,3.23c.88.89,2,1.5,3.21,1.78,11.17,3.96,27.93,8.76,40.29,6.78,13.75-2.18,26.07-10.02,39.62-12.44,8.24-1.42,16.7-.88,24.68,1.58,1.16.46,2.4.65,3.65.55,1.47-.24,2.65-1.35,2.42-2.58Z"/>
  </g>
  <path class="cls-3" d="M1787.64,101.41c26.98,27.42,23.18,78.09-9.27,110.07-32.45,31.97-80.47,33-107.46,5.78-26.98-27.22-12.8-63.39,19.81-95.53,27.02-26.63,54.92-42.83,80.15-30.75,6.1,2.58,11.75,6.09,16.76,10.42Z"/>
  <path class="cls-8" d="M1759.43,189.81c31.4-30.93,41.61-71.47,22.81-90.55-18.8-19.08-59.49-9.48-90.88,21.45-31.4,30.93-41.61,71.47-22.81,90.55,18.8,19.08,59.49,9.48,90.88-21.45Z"/>
  <path class="cls-3" d="M1777.9,94.75c0,2.1-9.67,2.18-21.75,10.18-7,4.49-13.13,10.21-18.11,16.88-2.82,3.84-5.11,8.04-6.81,12.48-1.9,4.75-3.49,10.1-5.35,15.85-.91,2.85-1.9,5.75-3.05,8.6-1.17,2.84-2.5,5.62-3.96,8.32-2.57,5.1-5.59,9.96-8.99,14.54-3.15,4.11-6.65,7.94-10.46,11.45-1.74,1.66-3.65,3.09-5.39,4.52-1.74,1.43-3.57,2.65-5.39,3.68-5.51,3.56-11.69,5.97-18.15,7.09-1.77.33-3.57.4-5.35.2-1.23-.2-1.9-.48-1.98-.95-.44-2.1,8.84-4.68,19.81-14.22,14.17-12.78,24.51-29.24,29.87-47.55,1.71-5.67,3.71-11.25,5.99-16.72,2.31-5.5,5.45-10.62,9.31-15.17,6.4-7.57,14.43-13.6,23.5-17.63,6.04-2.8,12.64-4.16,19.3-3.96,1.03.06,2.07.18,3.09.36.76.16,1.5.39,2.22.67,1.15.44,1.66,1.07,1.66,1.39Z"/>
  <path class="cls-3" d="M1731.86,110.29c-3.89,4.35-7.28,9.12-10.1,14.22-2.85,5.64-5.27,11.48-7.25,17.47-2.3,6.78-4.52,14.42-7.93,22.19-3.06,7.37-7.48,14.09-13.04,19.81-4.48,4.61-9.37,8.81-14.62,12.52-4.44,3.21-8.16,5.59-10.74,7.21-1.3.91-2.7,1.69-4.16,2.3,1.11-1.12,2.35-2.12,3.68-2.97,2.45-1.82,6.06-4.36,10.34-7.69,8.4-6.62,20.4-16.56,26.63-31.93,3.17-7.57,5.47-15.17,7.92-21.99,2.02-6.09,4.58-12,7.65-17.63,2.14-3.8,4.73-7.33,7.73-10.5,1.16-1.16,2.47-2.17,3.88-3.01Z"/>
  <path class="cls-3" d="M1773.18,97.09c0,.32-4.51,1.94-11.29,5.78-8.85,4.99-16.58,11.73-22.74,19.81-7.09,9.51-9.63,20.33-12.36,27.73-1.02,2.96-2.25,5.85-3.68,8.64-.47,1.05-1.11,2.02-1.9,2.85-.28,0,2.02-4.4,4.2-11.89,2.18-7.49,4.68-18.42,12.12-28.41,6.34-8.31,14.46-15.08,23.77-19.81,2.79-1.43,5.7-2.65,8.68-3.65,1-.54,2.09-.9,3.21-1.07Z"/>
  <path class="cls-8" d="M1787.25,109.18c.28.45.49.95.63,1.47.45,1.49.82,2.99,1.11,4.52.84,5.63.84,11.36,0,17-1.15,8.36-3.55,16.49-7.13,24.13-2.08,4.53-4.55,8.88-7.37,13-3.17,4.33-6.63,8.45-10.34,12.32-12.78,13.83-28.35,24.78-45.68,32.13-5.25,2.15-10.75,3.66-16.36,4.48-1.53.22-3.09.32-4.63.32h-1.59c7.57-1.08,14.98-3.14,22.03-6.1,16.87-7.67,32.04-18.6,44.65-32.17,13.02-13.19,21.73-30.02,25-48.26.91-5.51,1.09-11.12.51-16.68-.35-4-1.03-6.1-.83-6.14Z"/>
  <g class="cls-13">
    <path class="cls-11" d="M1731.1,100.18c-.79-.32-1.67-.32-2.45,0-21.23,5.84-39.57,19.29-51.51,37.8-9.83,15.37-17.51,34.43-15.49,51.51.04,1.25.43,2.46,1.13,3.48.7,1.03,1.69,1.83,2.84,2.32,1.15.48,2.41.63,3.64.41,1.23-.21,2.37-.78,3.28-1.62,9.75-6.78,23.22-17.79,28.73-29.04,6.14-12.52,6.81-27.14,12.72-39.62,3.58-7.47,8.84-14.01,15.37-19.1,1.06-.67,1.94-1.58,2.58-2.65.18-.28.3-.6.35-.93.06-.33.05-.67-.03-.99-.08-.32-.22-.63-.42-.9-.2-.27-.45-.5-.74-.67Z"/>
  </g>
  <path class="cls-1" d="M1219.87,908.78c27.42,30.71,20.68,84.67-15.85,117.12-36.53,32.45-87.72,31.1-115.14.4-27.42-30.71-10.38-68.63,25.99-101.08,30.31-27.06,60.98-42.91,87.17-28.65,6.55,3.1,12.57,7.21,17.83,12.2Z"/>
  <path class="cls-5" d="M1182.61,998.97c35.18-31.41,48.22-74.2,29.12-95.58-19.09-21.38-63.08-13.26-98.26,18.15-35.17,31.41-48.22,74.2-29.12,95.58,19.09,21.38,63.09,13.26,98.26-18.15Z"/>
  <path class="cls-1" d="M1209.84,901.09c-.28,2.26-10.5,1.86-23.78,9.75-7.73,4.44-14.59,10.24-20.25,17.12-3.22,3.95-5.89,8.32-7.93,13-2.3,4.99-4.28,10.62-6.58,16.64-1.15,2.97-2.34,6.02-3.68,8.99-1.35,2.97-2.97,5.94-4.52,8.67-3.09,5.29-6.63,10.3-10.58,14.98-3.6,4.23-7.58,8.13-11.89,11.65-1.98,1.71-3.96,3.13-6.02,4.56-1.91,1.32-3.9,2.54-5.94,3.64-6.08,3.54-12.82,5.81-19.81,6.66-1.9.29-3.84.29-5.74,0-1.31-.24-2.02-.63-2.06-1.11-.35-2.3,9.67-4.51,21.87-14.18,15.79-12.85,27.71-29.83,34.43-49.05,2.22-5.82,4.44-11.89,7.29-17.59,2.75-5.8,6.37-11.14,10.74-15.85,7.25-7.74,16.15-13.75,26.03-17.59,6.59-2.7,13.73-3.83,20.84-3.29,1.27,0,2.37.36,3.29.55.8.22,1.58.5,2.34.83,1.39.6,1.98,1.15,1.94,1.62Z"/>
  <path class="cls-5" d="M1159.8,915.36c-4.42,4.42-8.3,9.34-11.57,14.66-3.34,5.9-6.2,12.06-8.56,18.42-2.85,7.13-5.59,15.18-9.47,23.3-3.68,7.67-8.76,14.58-14.98,20.36-5.01,4.7-10.45,8.93-16.25,12.64-4.91,3.21-9.03,5.54-11.89,7.13-1.44.92-2.96,1.69-4.56,2.3,1.21-1.13,2.54-2.13,3.96-2.97,2.74-1.78,6.7-4.32,11.45-7.65,5.62-3.83,10.92-8.11,15.85-12.8,5.97-5.68,10.86-12.39,14.42-19.81,3.96-7.93,6.62-15.85,9.55-23.1,2.49-6.41,5.54-12.59,9.11-18.46,2.53-3.96,5.54-7.59,8.95-10.82,1.18-1.23,2.51-2.31,3.96-3.21Z"/>
  <path class="cls-5" d="M1204.65,903.35c0,.36-4.95,1.82-12.4,5.55-9.71,4.81-18.34,11.55-25.36,19.81-8.12,9.79-11.37,21.24-14.7,28.92-1.24,3.11-2.69,6.13-4.36,9.04-.55,1.12-1.28,2.14-2.18,3.01-.28-.2,2.42-4.64,5.19-12.56,2.77-7.93,5.99-19.49,14.42-29.71,7.19-8.5,16.19-15.27,26.35-19.81,3.05-1.4,6.21-2.56,9.43-3.49,1.16-.43,2.37-.68,3.6-.75Z"/>
  <path class="cls-8" d="M1219.23,917.02s.28.51.6,1.62c.4,1.6.71,3.23.91,4.87.65,6.05.4,12.17-.75,18.15-2.94,14.13-8.99,27.42-17.71,38.91-3.58,4.46-7.45,8.68-11.57,12.64-14.47,14.1-31.75,24.98-50.72,31.94-5.73,2.06-11.69,3.39-17.75,3.96-1.64.13-3.28.13-4.91,0-.58.05-1.17.05-1.74,0,2.17-.41,4.37-.69,6.58-.83,5.93-.86,11.75-2.37,17.35-4.51,18.44-7.29,35.24-18.19,49.41-32.05,14.64-13.41,24.85-30.96,29.28-50.32,1.26-5.84,1.72-11.82,1.39-17.79-.16-4.24-.75-6.54-.36-6.58Z"/>
  <g class="cls-13">
    <path class="cls-11" d="M1159.52,904.46c-.86-.3-1.8-.3-2.65,0-23.05,5.1-43.41,18.53-57.17,37.72-11.29,15.85-20.53,35.86-19.26,54.32-.01,1.33.35,2.64,1.05,3.77.7,1.13,1.71,2.03,2.91,2.61,1.2.57,2.54.79,3.86.63,1.32-.16,2.57-.7,3.59-1.54,10.78-6.73,25.75-17.79,32.25-29.56,7.17-13.03,8.68-28.6,15.65-41.76,4.21-7.89,10.22-14.68,17.55-19.81,1.18-.68,2.18-1.61,2.93-2.74.35-.59.47-1.29.34-1.96-.13-.67-.51-1.27-1.06-1.68Z"/>
  </g>
  <path class="cls-7" d="M1907.54,1493.08c0,.55-427.04,1.03-953.73,1.03s-953.81-.67-953.81-1.03,426.8-1.23,953.77-1.23,953.77.44,953.77,1.23Z"/>
  <path class="cls-4" d="M1839.59,385.92c-2.91,25.99-8.06,51.68-15.38,76.78-7.97,24.92-20.22,48.89-38.64,67.45-31.32,31.57-76.05,44.23-118.91,55.69-3.62-25.32-1.67-51.12,5.73-75.61,7.39-24.49,20.06-47.06,37.09-66.13,34.26-37.79,79.19-60.92,130.07-58.39"/>
  <path class="cls-2" d="M1570.59,832.89c-29.75-18.94-58.76-39.62-82.41-65.85-23.65-26.23-41.84-58.24-46.71-93.19-5.94-42.36,7.1-88.79-13.35-126.35,40.26,21.32,81.94,43.82,108.84,80.59,20.52,28.09,30.74,62.64,34.67,97.19,3.92,34.55,1.74,69.5-.36,104.24"/>
  <path class="cls-4" d="M1570.59,832.89c-29.75-18.94-58.76-39.62-82.41-65.85-23.65-26.23-41.84-58.24-46.71-93.19-5.94-42.36,7.1-88.79-13.35-126.35,40.26,21.32,81.94,43.82,108.84,80.59,20.52,28.09,30.74,62.64,34.67,97.19,3.92,34.55,1.74,69.5-.36,104.24"/>
  <path class="cls-4" d="M1248.59,1445.53c1.78-4.36,77.34-102.62,87.68-123.86,10.34-21.24,108.8-242.52,108.8-242.52,0,0-6.26,27.97,7.73-18.94,13.99-46.91,51.23-130.19,79.44-166.21,28.21-36.01,54.83-147.43,69.42-195.81,14.58-48.38,64.42-121.44,64.42-121.44l13.31,5.43s-48.81,61.61-61.1,112.6c-12.28,50.99-43.19,152.15-63.39,193.2-20.21,41.05-30.71,58.8-49.29,91.96-18.58,33.16-76.04,182.89-77.82,187.29-1.78,4.4-38.04,118.59-63.39,164.27-25.36,45.68-83.68,133.84-83.68,133.84l-32.13-19.81Z"/>
  <path class="cls-6" d="M1559.98,966.63c-10.34-19.46-26.86-34.16-45.09-46.6-9.63-32.96-46.59-57.09-80.91-56.38-34.31.71-66.44,19.81-89.74,45.17-23.3,25.35-39.11,56.46-53.89,87.56-26.15,55.15-49.92,111.39-71.32,168.71,26.74-2.14,51.51-14.66,77.18-22.07,33.48-9.63,68.7-10.66,103.45-12.84,34.75-2.18,70.21-5.67,102.03-19.81,31.82-14.14,59.99-40.65,67.71-74.61,5-23.44,1.66-47.89-9.43-69.14Z"/>
  <path class="cls-4" d="M1551.2,855.48c13.15,33.76,16.56,70.41,22.74,106.15,6.18,35.74,15.85,72.27,39.03,100.16,13.55,16.32,31.02,28.88,46.48,43.58,18.74,17.67,34.43,38.2,50.04,58.68,10.84,13.42,20.57,27.7,29.08,42.71,14.74,27.74,21,58.8,27.1,89.47,12.76-48.1,25.5-96.21,38.23-144.34,8.64-32.53,17.31-65.73,15.25-99.33-1.79-28.77-11.45-56.54-23.58-82.69-11.01-23.57-24.37-46.55-43.39-64.34-23.77-22.19-54.88-35.03-86.65-41.6-31.78-6.58-64.47-7.29-96.91-7.93"/>
  <path class="cls-6" d="M1727.83,718.99c-28.69,2.97-55.87,14.86-80.07,30.55-24.21,15.69-44.77,34.31-65.49,53.49,21.13,17.73,45.86,30.65,72.48,37.87,26.62,7.22,54.49,8.56,81.69,3.93,27.19-4.63,53.05-15.11,75.78-30.74,22.74-15.62,41.8-36,55.87-59.72-44.54-20.13-91.72-40.57-140.26-35.38Z"/>
  <path class="cls-6" d="M1582.05,783.68c-38.83-15.85-68.9-53.77-70.92-95.61-2.3-48.22,29.68-90.65,43.58-136.89,21.13,34.75,36.83,72.52,46.56,112.01,5.58,20.25,7.76,41.28,6.46,62.24-1.38,21.12-9.87,41.15-24.09,56.82"/>
  <path class="cls-4" d="M1515.56,760.92c-22.07-37.4-54.4-69.81-94.61-86.1-54.32-22.03-115.65-12.72-173.46-3.09,6.89,29.36,13.87,58.91,26.11,86.45,12.24,27.54,30.11,53.33,55.07,70.25,31.7,21.47,71.32,26.74,109.55,29.95,38.24,3.21,77.74,5.23,112.17,21.4l9.55,2.73c-8.76-42.35-22.35-84.15-44.38-121.6Z"/>
  <path class="cls-7" d="M1229.61,1158.43s0-.32.51-.83,1.07-1.31,1.74-2.22l6.9-8.48c2.97-3.69,6.7-8.12,11.17-13.16,4.48-5.03,9.43-10.89,15.25-17.04,5.82-6.14,11.89-13.03,19.1-20.09,7.21-7.05,14.58-14.54,22.63-22.39,16.28-15.41,34.63-31.7,54.6-48.3,19.97-16.6,39.62-31.26,57.85-44.37,18.23-13.12,35.03-24.21,49.37-33.24,7.09-4.63,13.67-8.56,19.41-12.08,5.75-3.53,10.74-6.46,14.86-8.8l9.47-5.39,2.5-1.34c.28-.17.57-.31.87-.44-.23.24-.5.44-.79.6l-2.37,1.54-9.27,5.75c-3.96,2.42-8.99,5.47-14.66,9.07-5.67,3.6-12.2,7.61-19.22,12.32-14.23,9.15-30.87,20.56-49.05,33.56-18.19,13-37.68,28.05-57.65,44.42-19.97,16.36-38.27,32.81-54.6,48.1-7.93,7.93-15.85,15.06-22.74,22.19-6.9,7.13-13.43,13.71-19.22,19.81-5.79,6.1-10.94,11.89-15.45,16.8-4.52,4.91-8.36,9.31-11.41,12.92l-7.17,8.2-1.94,2.14-.68.75Z"/>
  <path class="cls-7" d="M1769.71,1288.86c.02-.48.09-.95.2-1.41.17-1.03.43-2.4.72-4.12.69-3.63,1.68-8.93,2.7-15.84,2.97-19.5,4.62-39.23,4.94-59.03.13-13.65-.33-27.31-1.38-40.91-1.36-15.6-3.56-31.08-6.59-46.36-6.84-35.06-18.23-68.72-33.78-99.82-15.52-31.1-34.9-59.39-57.52-83.95-18.29-20.36-38.99-37.6-61.47-51.21-8.64-5.04-17.68-9.1-27-12.13-7.08-2.19-14.32-3.6-21.63-4.2-4.64-.23-9.3-.1-13.93.38l-3.59.42h-1.25c.39-.16.8-.24,1.22-.27l3.59-.61c4.63-.6,9.3-.79,13.96-.57,7.38.44,14.7,1.72,21.86,3.82,9.45,2.9,18.64,6.88,27.43,11.87,22.64,13.48,43.49,30.68,61.9,51.06,22.82,24.65,42.35,53.1,57.94,84.41,15.65,31.27,27.07,65.14,33.85,100.43,2.95,15.36,5.07,30.92,6.35,46.59.99,13.67,1.39,27.38,1.19,41.1-.44,19.86-2.28,39.64-5.5,59.15-1.12,6.9-2.24,12.17-3.03,15.76-.36,1.72-.66,3.09-.89,4.08-.07.47-.17.92-.3,1.37Z"/>
  <path class="cls-7" d="M1848.72,760.59c-.93.11-1.88.15-2.83.13h-8.1l-29.76.23c-32.69.02-65.35,1.71-97.72,5.07-32.37,3.49-63.83,10.58-93.31,21.03-8.87,3.22-17.47,6.85-25.73,10.85-3,1.37-5.17,2.54-6.72,3.32-.74.43-1.53.79-2.37,1.09.66-.49,1.39-.93,2.17-1.32,1.48-.81,3.44-2.08,6.51-3.52,8.18-4.17,16.73-7.94,25.59-11.26,29.46-10.75,61.05-18,93.59-21.48,32.45-3.43,65.21-5.04,98-4.82,12.57,0,22.73,0,29.76.2l8.1.15c.95.06,1.9.17,2.83.33Z"/>
  <path class="cls-7" d="M1581.99,784.75c-.29-.73-.49-1.5-.61-2.28l-1.22-6.61c-.97-5.75-2.31-14.09-3.86-24.39-3.04-20.63-6.88-49.2-10.62-80.83-3.74-31.63-6.63-60.29-8.4-81.08-.91-10.4-1.52-18.96-1.89-24.65-.18-2.78-.3-5.02-.4-6.73-.08-.78-.08-1.56,0-2.34.16.77.27,1.55.33,2.34,0,1.68.4,3.89.67,6.67.58,6,1.4,14.35,2.4,24.58,2.04,20.76,5.14,49.42,8.85,81.02,3.71,31.6,7.36,60.04,10.16,80.83,1.4,10.21,2.53,18.52,3.35,24.46.4,2.78.67,4.99.91,6.67.15.77.25,1.55.3,2.34Z"/>
  <path class="cls-7" d="M1282.19,690.2c.29.02.58.09.85.2l2.4.83,9.17,3.45c7.95,2.93,19.44,7.24,33.52,12.83,37.05,14.06,72.43,31.68,105.58,52.57,32.83,21.31,62.64,46.43,88.69,74.75,10.01,10.8,17.37,20.11,22.47,26.52l5.61,7.59,1.4,1.97c.17.23.32.47.44.73-.23-.18-.43-.39-.59-.62-.44-.48-.96-1.1-1.59-1.86l-5.92-7.38c-5.25-6.24-12.75-15.45-22.87-26.11-11.8-12.54-24.31-24.49-37.47-35.8-16.13-13.81-33.23-26.6-51.18-38.29-32.96-20.83-68.04-38.58-104.73-52.98l-33.26-13.35-9.02-3.66-2.33-1c-.81-.24-1.18-.34-1.18-.38Z"/>
  <path class="cls-7" d="M1468.85,871.02c1.67.51,3.28,1.18,4.84,1.98,4.39,2.06,8.57,4.55,12.48,7.41,13.53,10.04,23.84,23.81,29.68,39.62l-.48-.55c6.78,3.89,13.16,8.43,19.06,13.55,9.11,8,16.93,17.35,23.18,27.74,5.07,8.49,8.99,17.61,11.65,27.14,1.75,6.41,2.83,12.98,3.21,19.61v5.43c.08.62.08,1.24,0,1.86-.4-2.38-.63-4.79-.67-7.21-.7-6.55-2.03-13.01-3.96-19.3-2.79-9.33-6.79-18.25-11.89-26.55-6.24-10.16-13.96-19.33-22.9-27.22-5.81-5.02-12.06-9.49-18.7-13.35h-.32v-.4c-3.09-8.58-7.54-16.61-13.19-23.77-4.48-5.71-9.62-10.86-15.34-15.34-5.32-3.89-10.88-7.45-16.64-10.66Z"/>
  <path class="cls-7" d="M1647.32,1091.67c-.52-.38-1-.82-1.43-1.31-1.27-1.35-2.43-2.81-3.45-4.36-3.72-5.75-6.17-12.24-7.17-19.02-1.45-10.05-.99-20.28,1.35-30.15,2.26-11.17,6.3-23.02,9.23-35.66,4.88-21.68,5.58-44.1,2.06-66.05-1.05-6.67-2.47-13.29-4.24-19.81-.76-2.35-1.4-4.75-1.9-7.17,0,0,.36.56.8,1.74.43,1.19,1.15,2.89,1.86,5.19,2.08,6.49,3.73,13.1,4.91,19.81,4.02,22.13,3.52,44.84-1.46,66.76-3.01,12.8-7.05,24.57-9.39,35.66-2.38,9.65-2.98,19.65-1.74,29.52.84,6.64,3.02,13.05,6.42,18.82,2.46,3.96,4.32,5.86,4.16,6.02Z"/>
  <path class="cls-7" d="M1815.55,1086.95c-.2,0,0-1.39-.6-3.76-.86-3.3-2.47-6.35-4.71-8.92-3.39-3.84-7.13-7.36-11.17-10.5-4.88-3.99-9.97-7.7-15.25-11.13-9.65-6.18-19.88-11.41-30.55-15.61-8.2-3.17-13.47-4.68-13.35-4.99,1.35,0,2.69.22,3.96.67,2.42.56,5.87,1.54,10.06,2.97,17.01,5.94,32.78,14.96,46.51,26.63,4.09,3.27,7.81,6.98,11.09,11.05,2.27,2.81,3.77,6.15,4.36,9.71.23,1.3.1,2.64-.36,3.88Z"/>
  <path class="cls-7" d="M1711.07,722.95c-3.45.92-6.64,2.62-9.35,4.95-6.33,6.03-12.32,12.4-17.95,19.1-6.73,7.73-12.48,15.06-16.56,20.41-2.06,3.02-4.35,5.87-6.86,8.52,1.55-3.32,3.45-6.47,5.67-9.39,4.99-7.26,10.39-14.23,16.17-20.88,5.68-6.78,11.91-13.09,18.62-18.86,2.13-1.73,4.6-2.99,7.25-3.68.97-.35,2.01-.4,3.01-.16Z"/>
  <path class="cls-7" d="M1793.25,824.5c-1.59-.14-3.16-.47-4.68-.95-2.97-.67-7.21-1.9-12.4-3.6-13.47-4.58-26.53-10.26-39.07-17-14.74-7.93-27.42-15.85-36.49-22.03-4.51-3.01-8.16-5.51-10.62-7.29-1.35-.83-2.6-1.81-3.72-2.93,1.47.58,2.87,1.34,4.16,2.26l10.98,6.74c9.27,5.74,22.03,13.63,36.65,21.44,12.46,6.68,25.37,12.51,38.63,17.43,5.07,1.86,9.23,3.29,12.12,4.24,1.54.38,3.04.95,4.44,1.71Z"/>
  <path class="cls-4" d="M1702.22,1250.04c-26.66,17.63-53.69,35.02-82.97,47.82-29.28,12.8-61.18,20.88-93.07,18.98-54-3.25-101.95-34.11-147.04-63.99,20.3-23.74,45.55-42.76,73.97-55.72,28.42-12.96,59.33-19.56,90.57-19.32,62.29.87,119.78,23.41,158.49,72.23"/>
  <path class="cls-7" d="M1602.81,675.32s.47.79.71,2.42c.27,2.3.14,4.64-.4,6.89-2.21,7.25-5.85,13.99-10.7,19.81-5.07,7.05-9.75,13.35-13.19,17.87-1.72,2.57-3.73,4.93-5.98,7.05,1.3-2.81,2.91-5.47,4.79-7.93,3.17-4.71,7.65-11.13,12.72-18.19,4.67-5.63,8.36-12.01,10.94-18.86.73-2.97,1.11-6.01,1.11-9.07Z"/>
  <path class="cls-7" d="M1523.29,626.98c.4,0,1.03,3.96,4.16,9.23,4.34,6.91,9.77,13.06,16.08,18.23,6.46,5.18,12.41,10.98,17.75,17.31,2.31,2.59,4.06,5.65,5.11,8.95-.32,0-2.1-3.33-6.22-7.93-5.63-5.94-11.64-11.51-17.99-16.68-6.43-5.3-11.81-11.77-15.85-19.06-1.16-2.26-2.04-4.66-2.62-7.13-.35-.94-.5-1.94-.43-2.93Z"/>
  <path class="cls-7" d="M1490.87,808.46c-1.95.71-3.95,1.27-5.98,1.67l-16.4,3.76c-13.91,3.13-33.13,7.29-54.36,11.89l-29.99,6.22c-9.19,1.82-17.47,3.72-24.61,4.56-5.63.85-11.37.7-16.96-.43-1.5-.35-2.97-.83-4.4-1.43-.51-.18-.99-.43-1.43-.75,0,0,2.1.71,5.98,1.39,5.5.89,11.1.89,16.6,0,6.97-1.03,15.25-3.05,24.44-4.99l29.96-6.38c21.24-4.48,40.49-8.4,54.44-11.17l16.56-3.13c2-.6,4.06-1,6.14-1.19Z"/>
  <path class="cls-7" d="M1389.64,666.18c.51-.28,11.89,21.67,25.12,48.93,13.23,27.26,23.77,49.61,23.26,49.89-.51.28-11.89-21.67-25.12-48.97-13.23-27.3-23.73-49.61-23.26-49.84Z"/>
  <path class="cls-7" d="M1473.29,948c-2.3-.11-4.59-.37-6.86-.79-2.14-.32-4.83-.71-7.92-1.03-3.09-.32-6.66-.83-10.58-1.07-7.93-.67-17.2-1.07-27.74-.99-11.26.21-22.5,1.02-33.68,2.42-11.17,1.54-22.26,3.7-33.2,6.46-10.02,2.61-18.98,5.43-26.35,8.16-3.72,1.23-7.01,2.65-9.94,3.76-2.93,1.11-5.39,2.18-7.41,3.05-2.06,1.01-4.19,1.85-6.38,2.54,1.94-1.22,3.97-2.31,6.06-3.25,1.98-.99,4.4-2.18,7.29-3.41,2.89-1.23,6.14-2.74,9.87-3.96,8.64-3.34,17.45-6.23,26.39-8.64,11-2.86,22.15-5.07,33.4-6.62,11.25-1.44,22.57-2.21,33.92-2.3,9.26-.02,18.52.47,27.73,1.47,3.96.32,7.45.91,10.58,1.34,3.13.44,5.75.95,7.93,1.39,2.34.29,4.64.78,6.9,1.47Z"/>
  <path class="cls-7" d="M1366.27,1131.97c6.03-4.99,11.42-10.71,16.05-17.04,4.9-6.97,8.89-14.53,11.89-22.5,3.62-9.76,6.37-19.82,8.2-30.07,3.96-21.87,5.82-42.08,9.39-56.34,1.3-5.65,2.96-11.2,4.96-16.64.67-1.9,1.34-3.37,1.74-4.36.4-.99.71-1.51.79-1.47-.46,2.07-1.05,4.11-1.78,6.1-1.23,3.96-2.77,9.59-4.28,16.68-3.21,14.22-4.96,34.35-8.8,56.38-1.86,10.39-4.68,20.57-8.44,30.43-3.1,8.07-7.26,15.69-12.36,22.67-3.4,4.68-7.4,8.9-11.89,12.56-1.25,1.03-2.58,1.97-3.96,2.82-.99.59-1.47.87-1.51.79Z"/>
  <path class="cls-7" d="M1480.74,1117.9c-3.74,1.71-7.64,3.04-11.65,3.96-9.52,2.57-19.18,4.62-28.92,6.14-9.74,1.53-19.55,2.55-29.4,3.05-4.07.4-8.17.4-12.24,0,4.01-.78,8.08-1.26,12.17-1.43,7.49-.75,17.83-1.86,29.16-3.68,11.33-1.82,21.55-3.96,28.92-5.51,3.92-1.15,7.92-2,11.97-2.54Z"/>
  <path class="cls-7" d="M1837.25,390.82c-.69.54-1.41,1.03-2.17,1.45-1.45.97-3.56,2.38-6.29,4.21-7.64,5.31-14.83,11.24-21.51,17.72-9.79,9.59-18.81,19.93-26.99,30.92-9.37,12.36-18.86,26.53-29.16,41.28-17.56,25.17-37.3,48.74-59,70.44-8.24,8.42-15.02,15.1-19.73,19.68-2.25,2.13-4.08,3.87-5.47,5.23-.62.63-1.29,1.2-2,1.72.48-.74,1.05-1.43,1.69-2.04l5.2-5.48c4.72-4.92,11.22-11.74,19.25-20.12,21.33-21.94,40.85-45.56,58.38-70.64,10.25-14.68,19.82-28.89,29.35-41.22,8.31-11.03,17.52-21.37,27.53-30.9,6.77-6.36,14.1-12.11,21.89-17.16,2.73-1.83,5-3.06,6.53-3.85.78-.51,1.62-.93,2.5-1.24Z"/>
  <path class="cls-7" d="M1823.19,463.95c-3.66,2.58-7.55,4.84-11.59,6.75-7.32,3.89-17.72,9.14-29.09,14.31-11.37,5.17-22.09,9.72-29.7,12.61-4.1,1.82-8.35,3.29-12.7,4.39,3.91-2.19,7.96-4.1,12.13-5.73,7.58-3.35,18.03-7.96,29.53-13.22,11.5-5.26,21.79-10.18,29.26-13.7,3.92-2.08,7.99-3.89,12.16-5.42Z"/>
  <path class="cls-7" d="M1774.94,452.89c-.9-2.76-1.4-5.64-1.47-8.55-.66-6.95-.81-13.94-.45-20.91.32-6.97,1.16-13.91,2.52-20.75.37-2.87,1.13-5.68,2.28-8.34.6.12-2.02,13.03-2.77,29.21-.76,16.19.5,29.26-.11,29.34Z"/>
  <path class="cls-7" d="M1702.22,1250.04c-1.11-.11-2.21-.29-3.29-.55l-9.31-1.98c-3.96-.91-8.95-1.98-14.74-3.01-5.79-1.03-12.32-2.45-19.61-3.53l-11.45-1.82-12.44-1.66c-8.6-1.23-17.83-1.98-27.54-3.01-19.45-1.54-40.89-2.5-63.39-2.26-22.51.24-43.94,1.86-63.4,3.96-9.67,1.15-18.9,2.26-27.46,3.69-8.56,1.43-16.52,2.73-23.77,3.96-7.25,1.23-13.79,2.81-19.53,3.96-5.75,1.15-10.62,2.38-14.66,3.37l-9.23,2.22c-1.08.28-2.18.49-3.29.63,1.02-.44,2.08-.79,3.17-1.03l9.15-2.58c3.96-1.11,8.87-2.45,14.62-3.72,5.74-1.27,12.2-3.01,19.49-4.36,7.29-1.35,15.18-3.05,23.78-4.32,8.6-1.27,17.79-2.65,27.5-3.96,19.45-2.18,40.93-3.96,63.39-3.96s44.1.83,63.59,2.5c9.75,1.03,19.02,1.86,27.73,3.17l12.44,1.78,11.45,1.98c7.33,1.19,13.86,2.62,19.61,3.96,5.74,1.35,10.7,2.3,14.7,3.33l9.23,2.37c1.11.2,2.2.49,3.25.87Z"/>
  <path class="cls-7" d="M1559.38,1177.85c0,.32-5.31,2.74-13.83,7.1-11.09,5.71-21.82,12.09-32.13,19.1-10.27,7.06-20.09,14.74-29.4,23.02-7.17,6.38-11.41,10.54-11.65,10.3.78-1.17,1.67-2.26,2.65-3.25,1.79-1.98,4.52-4.79,7.93-8.12,18.26-17.34,39.18-31.64,61.97-42.36,4.36-2.02,7.93-3.53,10.46-4.48,1.27-.6,2.62-1.04,4-1.31Z"/>
  <path class="cls-7" d="M1630.31,1293.35c-1.53,0-3.04-.2-4.52-.59-4.08-.78-8.11-1.79-12.09-3.01-13.1-4-25.62-9.73-37.21-17.04-11.61-7.32-22.16-16.18-31.38-26.35-2.83-3.04-5.47-6.24-7.93-9.59-.98-1.22-1.82-2.55-2.5-3.96.32-.24,4.2,4.91,11.45,12.4,18.87,19.6,42.19,34.35,67.99,42.99,9.87,3.49,16.25,4.79,16.17,5.15Z"/>
  <path class="cls-7" d="M1422.45,1214.22c.28.51-10.62,7.45-21.95,18.7-5.7,5.51-10.78,10.7-14.62,14.26-1.94,2.1-4.15,3.94-6.58,5.47,1.59-2.37,3.43-4.55,5.51-6.5,3.57-3.96,8.48-9.15,14.26-14.74,4.89-4.82,10.19-9.19,15.85-13.08,2.29-1.73,4.83-3.12,7.53-4.12Z"/>
  <path class="cls-6" d="M324.5,933.11c-19.06-18.02-36.53-37.66-52.22-58.68-15.17-21.39-27.02-45.68-30.83-71.63-6.46-43.98,10.3-87.68,26.78-128.93,22.49,12.34,42.01,29.45,57.2,50.12,15.19,20.68,25.67,44.42,30.72,69.57,9.7,50.24,1.23,100.2-31.5,139.55"/>
  <path class="cls-4" d="M255.52,1236.53c-32.65,8.68-64.31,22.94-89.43,45.45-42.55,38.2-61.89,95.09-79.52,149.53,32.39,6.29,65.76,5.42,97.77-2.54,32.02-7.96,61.91-22.82,87.58-43.55,50.91-41.92,83.64-98.14,83.6-163.95-33.64,2.93-67.4,6.3-100,15.06Z"/>
  <path class="cls-4" d="M297.48,956.01c-59.43-51.95-146.6-53.93-220.02-83.2,23.13,62.49,55.73,121.06,96.64,173.66,21.08,27.1,44.69,52.82,73.46,71.6,28.77,18.78,63.39,30.15,97.47,26.71l3.33-.4c19.22-65.97.91-143.27-50.87-188.36Z"/>
  <path class="cls-4" d="M605.99,830.53c-8.56-37.95-24.05-73.93-39.62-109.67-67.35,34.51-138,72.03-177.35,136.65-29.16,47.82-37.68,106.3-31.7,162.01,5.98,55.71,24.09,105.31,47.74,156.11,23.3-43.58,70.33-81.94,107.38-114.62,37.05-32.69,74.13-68.7,90.46-115.34,12.92-36.73,11.65-77.18,3.09-115.14Z"/>
  <path class="cls-7" d="M107.69,1419.93s0-.32.55-.79l1.82-2.18,7.13-8.24c6.22-7.13,15.29-17.39,26.71-29.91,29.33-32.97,61.12-63.67,95.09-91.84,18.93-15.28,38.98-29.11,59.99-41.37,17.17-10.01,35.12-18.6,53.69-25.68,12.5-4.83,25.31-8.8,38.36-11.89,4.59-1.15,8.24-1.7,10.7-2.18l2.77-.51c.33-.05.66-.05.99,0l-.95.28-2.74.71c-2.42.63-6.02,1.31-10.58,2.57-12.92,3.34-25.62,7.45-38.04,12.32-18.4,7.25-36.2,15.93-53.25,25.95-20.8,12.32-40.66,26.14-59.43,41.37-33.87,28.11-65.72,58.56-95.33,91.13l-27.18,29.44-7.41,7.93-1.98,2.02c-.25.35-.56.64-.91.87Z"/>
  <path class="cls-7" d="M405.49,1205.31s-.36-.24-.91-.79l-2.5-2.54c-2.22-2.37-5.39-5.66-9.39-9.87-8.16-8.56-20.05-20.8-34.99-35.66-29.8-29.96-71.79-70.53-117.99-115.58-46.2-45.05-87.6-86.37-116.61-117.16-7.29-7.65-13.83-14.62-19.41-20.88-5.59-6.26-10.58-11.53-14.38-16.05l-8.88-10.34c-.95-1.11-1.7-2.02-2.26-2.73-.28-.28-.52-.6-.71-.95.33.24.62.52.87.83l2.42,2.57,9.27,10.06c3.96,4.44,8.91,9.67,14.62,15.85,5.71,6.18,12.28,13.07,19.81,20.68,29.24,30.51,70.76,71.56,117,116.57,46.24,45.01,88,85.78,117.56,116.01,14.82,15.1,26.55,27.54,34.55,36.25l9.11,10.15,2.34,2.65c.17.29.33.6.47.91Z"/>
  <path class="cls-7" d="M566.48,720.86c-.13.42-.34.82-.6,1.19l-1.9,3.45-7.53,13.12c-6.5,11.37-15.85,27.74-27.06,48.5-11.21,20.76-24.44,45.17-38.51,72.82-15.6,29.76-29.54,60.35-41.76,91.64-6.3,16.72-11.89,33.28-16.56,49.45-4.68,16.17-8.67,31.97-11.89,47.11-5.77,26.83-9.91,53.98-12.4,81.3-2.1,23.34-2.58,42.32-2.81,55.47v19.06c.06.44.06.9,0,1.35-1.27-25.31-.76-50.68,1.54-75.92,2.26-27.41,6.23-54.66,11.89-81.58,3.21-15.17,7.09-31.06,11.89-47.27,4.79-16.2,10.22-32.85,16.56-49.61,12.25-31.37,26.27-62.02,42-91.8,14.18-27.74,27.5-52.18,38.91-72.67,11.41-20.48,20.96-36.93,27.74-48.18,3.33-5.67,5.98-10.03,7.93-12.92.87-1.39,1.54-2.49,2.1-3.33.13-.41.28-.81.48-1.19Z"/>
  <path class="cls-7" d="M607.93,921.9s-.52.43-1.62,1.11c-1.11.67-2.74,1.7-4.87,2.81-6.12,3.28-12.41,6.22-18.86,8.8-16.21,6.77-39.62,13.19-65.26,20.4-22,5.67-43.21,14.04-63.16,24.92-5.95,3.44-11.67,7.28-17.11,11.49-1.92,1.66-3.91,3.22-5.98,4.68,0,0,.4-.56,1.35-1.47.95-.91,2.26-2.26,4.16-3.96,5.26-4.52,10.9-8.59,16.84-12.17,14.9-9.39,37.64-18.5,63.4-25.75,25.75-7.25,49.05-13.39,65.3-19.81,8.16-3.09,14.62-5.98,18.98-8.12,2.23-1.11,4.52-2.08,6.86-2.93Z"/>
  <path class="cls-7" d="M461.84,788.57c-3.71,5.38-6.59,11.28-8.56,17.51-1.92,6.82-2.86,13.87-2.81,20.96.06,8.69.95,17.35,2.65,25.87,1.74,9.11,3.96,17.75,5.27,25.72,1.41,7.06,2.31,14.21,2.69,21.4.23,4.84.02,9.7-.63,14.5-.16,1.79-.55,3.54-1.15,5.23.54-6.59.64-13.21.32-19.81-.58-7.1-1.61-14.15-3.09-21.12-1.58-7.93-3.68-16.52-5.43-25.68-1.73-8.66-2.58-17.48-2.54-26.31.02-7.24,1.13-14.44,3.29-21.36,1.48-4.65,3.68-9.05,6.5-13.04.74-1.1,1.58-2.13,2.49-3.09.68-.51.99-.83.99-.79Z"/>
  <path class="cls-7" d="M268.32,675.88c.37.84.65,1.72.83,2.62.52,1.94,1.19,4.48,2.06,7.61,1.74,6.85,3.96,16.4,7.09,28.05l22.7,92.72c8.84,36.25,16.56,69.14,20.56,93.31,2.06,11.89,3.37,21.87,3.96,28.65.4,3.41.59,6.06.75,7.93.1.91.1,1.82,0,2.73-.24-.88-.41-1.78-.52-2.69-.28-1.98-.63-4.56-1.11-7.93-.99-6.77-2.5-16.52-4.75-28.53-4.32-24.01-12.28-56.82-21.12-93.03-8.84-36.21-16.4-68.9-22.11-92.87-2.69-11.89-4.87-21.31-6.46-28.21-.67-3.17-1.23-5.75-1.66-7.69-.17-.88-.25-1.77-.24-2.65Z"/>
  <path class="cls-7" d="M342.69,760.08c-1.56,4.16-3.37,8.22-5.43,12.16-3.45,7.41-7.92,17.79-12.32,29.48-4.4,11.69-7.65,22.55-9.87,30.43-1.04,4.32-2.36,8.57-3.96,12.72-.01-1.2.12-2.4.4-3.57.4-2.26,1.07-5.51,1.98-9.51,5-20.89,12.49-41.11,22.31-60.22,1.9-3.65,3.53-6.54,4.71-8.52.59-1.09,1.32-2.09,2.18-2.97Z"/>
  <path class="cls-7" d="M244.54,738.25c3.49,1.2,6.81,2.85,9.87,4.91,15.4,9.29,28.32,22.16,37.68,37.52,2.04,3.08,3.68,6.41,4.87,9.9-2.21-2.92-4.24-5.96-6.1-9.11-4.91-7.27-10.49-14.07-16.64-20.33-6.27-6.27-13.11-11.93-20.44-16.92-3.18-1.83-6.26-3.83-9.23-5.98Z"/>
  <path class="cls-7" d="M232.66,925.58c.8,1.79,1.41,3.67,1.82,5.59,1.15,3.96,2.58,9.15,4.32,15.37,3.61,13.03,8.64,30.98,14.46,50.75,5.82,19.77,11.33,37.56,15.37,50.44l4.72,15.29c.66,1.86,1.16,3.76,1.51,5.7-.94-1.74-1.7-3.57-2.26-5.47-1.35-3.53-3.17-8.68-5.35-15.06-4.4-12.8-10.14-30.55-15.85-50.36-5.71-19.81-10.62-37.8-13.87-50.91-1.62-6.58-2.89-11.89-3.68-15.57-.57-1.89-.96-3.83-1.19-5.79Z"/>
  <path class="cls-7" d="M133.6,990.88c-.79-.14-1.55-.39-2.26-.75l.28-.55c5.59,2.1,22.86,9.55,43.58,17.31,12.76,4.79,24.41,8.8,32.89,11.65,4.64,1.35,9.19,2.98,13.63,4.87-1.35-.04-2.69-.27-3.96-.71-2.42-.6-5.9-1.51-10.22-2.77-8.6-2.5-20.37-6.3-33.2-11.09-14.76-5.39-29.19-11.63-43.23-18.7l.24-.51c1.66.75,2.26,1.15,2.26,1.27Z"/>
  <path class="cls-7" d="M188.16,1430.32c.44-1.95,1.08-3.85,1.9-5.67,1.39-3.57,3.21-8.84,5.39-15.34,4.36-12.96,9.23-31.26,15.21-51.51,3.01-10.06,6.22-19.53,9.55-28.01,2.96-7.51,6.39-14.83,10.26-21.91,1.58-3.05,3.33-5.67,4.75-7.93,1.21-2.01,2.53-3.94,3.96-5.79,1.1-1.66,2.35-3.23,3.72-4.68-.87,1.79-1.91,3.51-3.09,5.11-1.07,1.59-2.34,3.57-3.65,5.95-1.31,2.37-2.97,4.99-4.44,7.92-3.7,7.09-6.96,14.39-9.79,21.87-3.21,8.48-6.34,17.91-9.39,27.93-5.94,20.05-11.05,38.31-15.85,51.23-2.34,6.5-4.36,11.65-5.98,15.14-.69,1.96-1.55,3.86-2.58,5.67Z"/>
  <path class="cls-7" d="M206.31,1311.81c-3.82.4-7.65.58-11.49.55-18.4.79-36.6,4.19-54.04,10.1-3.56,1.41-7.2,2.6-10.9,3.57,3.25-2.06,6.74-3.72,10.38-4.96,8.68-3.36,17.64-5.92,26.78-7.64,9.15-1.7,18.43-2.54,27.74-2.5,3.86-.18,7.74.12,11.53.87Z"/>
  <path class="cls-6" d="M923.5,1786c243.4,0,440.71-48.59,440.71-108.52s-197.31-108.52-440.71-108.52-440.71,48.59-440.71,108.52,197.31,108.52,440.71,108.52Z"/>
  <path class="cls-10" d="M930.79,1742.66c112.26,0,203.26-20.95,203.26-46.79s-91-46.79-203.26-46.79-203.26,20.95-203.26,46.79,91,46.79,203.26,46.79Z"/>
  <path class="cls-7" d="M1328.94,1677.48s-.4.6-1.23,1.7c-1.22,1.65-2.55,3.23-3.96,4.72-5.45,5.8-11.61,10.89-18.34,15.14-10.64,6.71-21.89,12.38-33.6,16.96-15.52,6.09-31.4,11.22-47.54,15.37-35.66,9.59-79.24,16.68-127.34,24.25-52.35,8.21-105.23,12.58-158.21,13.08-52.91.75-105.82-1.44-158.49-6.54-43.1-3.9-85.93-10.4-128.25-19.45-28.61-5.81-56.58-14.39-83.52-25.63-4.75-2.02-8.79-4.2-12.36-5.95-3.57-1.74-6.42-3.64-8.72-5.07l-5.07-3.53c-1.15-.79-1.7-1.27-1.7-1.27l1.82,1.11,5.19,3.33c2.34,1.39,5.31,2.97,8.76,4.87,3.45,1.9,7.64,3.96,12.4,5.79,27,10.91,54.96,19.25,83.52,24.92,42.27,8.88,85.03,15.25,128.05,19.1,52.67,4.99,105.58,7.12,158.49,6.38,52.87-.51,105.64-4.81,157.89-12.88,48.22-7.49,91.64-14.42,127.31-23.77,16.14-4.04,32.01-9.06,47.55-15.02,11.67-4.48,22.9-10.02,33.56-16.56,6.73-4.17,12.94-9.12,18.5-14.74,1.4-1.46,2.72-3,3.96-4.6l1.35-1.7Z"/>
  <path class="cls-4" d="M483.46,1208.28s-3.33,509.5,432.51,519.83h2.77c435.84-10.34,444.79-525.78,444.79-525.78l-880.07,5.94Z"/>
  <path class="cls-11" d="M499.07,1343.03s0,.79.32,2.38c.1,2.34.48,4.65,1.15,6.9,2.33,8.7,6.83,16.66,13.08,23.14,15.61,17.51,45.76,34.87,85.26,48.62,79.24,27.74,195.14,44.65,323,44.77,127.86.12,243.91-16.88,323.03-44.77,39.62-13.75,69.62-31.1,85.27-48.62,6.22-6.5,10.72-14.45,13.07-23.14.63-2.25,1.01-4.56,1.15-6.9,0-1.58.32-2.38.32-2.38v2.38c-.03,2.36-.35,4.7-.95,6.98-2.18,8.84-6.62,16.96-12.88,23.57-15.61,17.87-45.84,35.66-85.38,49.49-79.24,28.33-195.45,45.37-323.51,45.45-128.05.08-244.23-17.11-323.51-45.45-39.62-13.95-69.73-31.7-85.38-49.49-6.24-6.62-10.68-14.74-12.88-23.57-.6-2.28-.92-4.62-.95-6.98-.2-1.58-.2-2.38-.2-2.38Z"/>
  <path class="cls-10" d="M903.09,1696.18c-63.67-11.49-109.95-18.7-187.57-66.21-51.98-31.7-89.98-77.26-126.79-125.76-36.81-48.5-59.71-108.68-89.42-161.18,31.7,151.71,127.62,378.23,416.74,385.08h2.77c65.18-1.54,120.77-14.46,168.27-35.18-58.05,1.86-126.87,13.59-184,3.25Z"/>
  <path class="cls-4" d="M923.5,1335.11c243.03,0,440.04-56.79,440.04-126.83s-197.01-126.83-440.04-126.83-440.04,56.78-440.04,126.83,197.01,126.83,440.04,126.83Z"/>
  <path class="cls-10" d="M545.67,1238.95c50.99-40.45,200.17-69.77,376.4-69.77s325.25,29.32,376.4,69.77c12.2-9.67,18.82-19.81,18.82-30.67,0-55.47-176.87-100.48-395.07-100.48s-395.02,44.97-395.02,100.48c-.36,10.7,6.22,21,18.46,30.67Z"/>
  <path class="cls-7" d="M1363.53,1208.28c-.38-6.48-2.08-12.82-4.99-18.62-3.86-6.86-8.76-13.08-14.54-18.42-8.02-7.2-16.77-13.54-26.11-18.9-42.12-24.33-110.59-44.34-196.37-56.74-46.85-6.65-94.03-10.78-141.33-12.36-54.29-2.01-108.65-1.1-162.84,2.73-59.89,3.92-119.36,12.73-177.82,26.35-15.17,3.6-30.31,7.93-45.4,12.84-15.18,4.87-30.04,10.69-44.5,17.43-14.8,6.56-28.69,15-41.32,25.12-6.33,5.06-11.84,11.08-16.32,17.83-4.78,6.6-7.35,14.55-7.35,22.7s2.57,16.1,7.35,22.7c4.48,6.76,9.99,12.79,16.32,17.87,12.64,10.11,26.53,18.56,41.32,25.12,14.51,6.7,29.42,12.48,44.65,17.31,15.1,4.84,30.23,9.19,45.41,12.84,58.47,13.62,117.95,22.42,177.86,26.31,54.19,3.86,108.55,4.79,162.84,2.77,47.31-1.6,94.5-5.74,141.37-12.4,85.78-12.36,154.2-32.41,196.32-56.74,9.34-5.31,18.09-11.59,26.11-18.74,5.79-5.32,10.7-11.53,14.54-18.38,2.91-5.81,4.61-12.14,4.99-18.62,0,0,0,1.66-.36,4.95-.64,4.83-2.08,9.52-4.28,13.87-3.8,6.95-8.7,13.23-14.5,18.62-7.98,7.26-16.72,13.64-26.07,19.02-42.16,24.65-110.7,44.89-196.57,57.49-46.9,6.75-94.13,10.97-141.49,12.64-54.35,2.1-108.78,1.25-163.04-2.57-60.06-3.83-119.69-12.62-178.3-26.27-15.21-3.61-30.43-7.93-45.56-12.84-15.3-4.87-30.3-10.68-44.89-17.39-14.95-6.63-28.98-15.18-41.72-25.44-6.51-5.18-12.17-11.36-16.76-18.31-4.97-6.93-7.64-15.24-7.64-23.77s2.67-16.84,7.64-23.77c4.62-6.93,10.27-13.1,16.76-18.31,12.77-10.23,26.8-18.77,41.76-25.4,14.58-6.71,29.56-12.5,44.85-17.36,15.18-4.87,30.35-9.23,45.56-12.88,58.61-13.62,118.25-22.4,178.3-26.23,54.25-3.82,108.66-4.68,163-2.57,47.36,1.65,94.59,5.87,141.49,12.64,85.9,12.56,154.52,32.85,196.56,57.49,9.36,5.37,18.11,11.73,26.11,18.98,5.81,5.4,10.7,11.7,14.5,18.66,2.2,4.35,3.65,9.04,4.28,13.87.08,3.21.16,4.87.16,4.87Z"/>
  <path class="cls-9" d="M921.87,1308.76c207.8,0,376.25-31.26,376.25-69.81s-168.45-69.81-376.25-69.81-376.24,31.26-376.24,69.81,168.45,69.81,376.24,69.81Z"/>
  <path class="cls-12" d="M1156.23,1188.75c-1.16.09-2.28.41-3.31.95-1.03.54-1.94,1.28-2.67,2.18-3.96,5.51,1.62,13.19,7.93,15.85,10.74,4.79,23.1,3.41,34.71,1.82,11.61-1.59,23.78-3.21,34.79,1.27,11.01,4.48,19.14,17.51,14.14,28.17-3.09,6.66-10.26,10.42-17.24,12.92-45.4,16.28-96.56-1.94-143.67,8.48-33.24,7.33-39.15,45.17-73.18,44.57-21.67-.4-67.04-26.23-88.67-25.4-18.15.68-35.14,8.48-52.62,13.55-48.18,14.06-99.69,7.33-149.41.47-13.96-1.27-27.68-4.47-40.77-9.51-12.8-5.63-24.41-15.49-28.92-28.77-1.86-5.55-2.54-11.69-5.98-16.44-6.38-8.64-19.42-8.92-29.56-5.31-10.15,3.6-19.1,10.14-29.56,12.6-10.46,2.45-36.49,5.27-23.78-16.13l-.28.2-12.36,8.8c51.35,40.53,200.25,69.74,376.25,69.74s325.25-29.32,376.4-69.82c-25.91-20.28-76.23-37.8-142.24-50.2ZM902.06,1303.65c-2.3.51-4.7.28-6.85-.67-.83-.36-1.74-1.15-1.47-2.02.13-.23.29-.42.5-.58.2-.16.44-.27.69-.33,1.55-.67,3.23-.95,4.91-.83,1.2.14,2.33.61,3.29,1.35.24.15.45.35.6.6.16.24.26.51.31.79,0,.95-1.07,1.66-1.78,1.86l-.2-.16ZM927.1,1299.69c-5.67,1.23-11.57.63-16.88-1.71-2.06-.91-4.28-2.81-3.53-4.91.28-.57.68-1.07,1.17-1.46.49-.4,1.07-.68,1.68-.83,3.83-1.65,8-2.36,12.16-2.06,2.89.37,5.62,1.51,7.93,3.29.62.38,1.14.89,1.53,1.5.39.61.64,1.3.72,2.02.12,2.42-2.54,3.76-4.79,4.24v-.08ZM1072.08,1287.28c-2.3.51-4.7.28-6.85-.67-.83-.36-1.74-1.15-1.43-1.98.11-.23.27-.44.47-.6.2-.16.43-.28.68-.35,1.56-.66,3.26-.95,4.95-.83,1.18.15,2.31.61,3.25,1.35.25.15.46.36.62.61.16.25.26.53.29.82.04.99-1.07,1.43-1.98,1.74v-.08ZM1107.74,1285.54c-9.68,2.09-19.77,1.08-28.85-2.89-3.48-1.55-7.33-4.84-6.06-8.44.49-.97,1.18-1.82,2.03-2.51.85-.69,1.83-1.18,2.88-1.46,5.9-2.18,14.62-4.75,20.76-3.52,5,.62,9.74,2.57,13.75,5.62,1.07.64,1.98,1.51,2.67,2.54.69,1.04,1.13,2.21,1.3,3.44,0,4.12-4.68,6.46-8.56,7.29l.08-.08ZM1144.19,1276.03c-5.84,1.03-11.85.53-17.43-1.46-2.1-.79-4.39-2.42-3.65-4.2.34-.51.77-.95,1.29-1.29.51-.34,1.09-.57,1.69-.69,4.02-1.4,8.27-2,12.52-1.74,2.94.28,5.78,1.24,8.28,2.81,1.19.75,2.3,1.74,2.34,2.97-.04,2.1-2.77,3.25-5.27,3.68l.23-.08Z"/>
  <path class="cls-11" d="M1119.59,1197.98h-1.23l-3.53-.32-13.59-1.46c-5.9-.68-13.07-1.43-21.47-2.18-8.4-.75-17.91-1.74-28.49-2.45-10.58-.71-22.15-1.71-34.59-2.3-12.44-.6-25.75-1.23-39.62-1.74-28.01-.79-58.8-1.03-91.13-.24-32.33.79-63.08,2.69-91.13,4.83-28.05,2.14-53.01,4.87-74.05,7.53-10.54,1.19-20.01,2.57-28.37,3.68-8.36,1.11-15.49,2.18-21.36,3.05l-13.51,1.98-3.53.43c-.41.03-.82.03-1.23,0,.38-.16.78-.27,1.19-.32l3.48-.67,13.47-2.34c5.82-1.03,13-2.18,21.32-3.37,8.32-1.19,17.83-2.73,28.37-3.96,21-2.85,46.12-5.59,74.05-7.93,27.94-2.34,58.76-3.96,91.13-4.99,32.37-1.03,63.2-.51,91.13.4,13.99.6,27.34,1.03,39.62,1.94,12.28.91,24.01,1.63,34.59,2.54,10.58.91,20.09,1.9,28.49,2.77,8.4.87,15.57,1.74,21.44,2.54l13.55,1.82,3.53.55,1.47.2Z"/>
  <path class="cls-4" d="M1352.08,1343.99c1.98-.71,3.96-1.39,6.06-1.94l-8.6,2.34c5.57-1.5,11.31-2.27,17.08-2.3h-9.23c6.84.01,13.65.94,20.25,2.73l-8.87-2.42c7.47,2.09,14.63,5.14,21.31,9.07l-7.68-4.52c6.72,4.01,12.9,8.84,18.42,14.38l-6.18-6.22c5.1,5.17,9.54,10.94,13.23,17.19-1.51-2.54-2.97-5.07-4.44-7.61,4.33,7.62,7.71,15.73,10.06,24.17-.79-2.85-1.59-5.74-2.34-8.6,2.8,10.54,4.21,21.39,4.2,32.29v-9.23c-.08,13.51-1.94,26.96-5.55,39.98.83-2.97,1.62-5.94,2.42-8.92-4.17,14.87-10.24,29.13-18.07,42.43l4.52-7.69c-8.42,14.28-18.65,27.41-30.43,39.07l6.22-6.18c-11.17,10.98-23.67,20.53-37.21,28.41l7.61-4.4c-13.63,7.79-28.17,13.85-43.31,18.03l8.6-2.38c-16.21,4.39-32.93,6.66-49.73,6.73h9.23c-14.22-.02-28.38-1.64-42.24-4.83-6.75-.92-13.62.19-19.73,3.17-6.12,2.99-11.21,7.72-14.64,13.61-3.42,5.88-5.03,12.66-4.6,19.45.43,6.8,2.86,13.31,7,18.73l6.18,6.26c4.81,3.76,10.54,6.16,16.6,6.93,39.51,8.66,80.64,6.26,118.87-6.94,38.23-13.21,72.08-36.7,97.82-67.9,12.25-14.86,22.54-31.22,30.63-48.7,3.58-7.69,6.6-15.64,9.04-23.77,3.35-10.7,5.88-21.64,7.57-32.73,1.34-11.09,1.74-22.28,1.19-33.44-.28-8.32-1.42-16.6-3.41-24.69-5.15-20.68-13.23-40.85-27.73-56.97-6.57-7.67-14.03-14.52-22.23-20.41-8.32-5.94-17.33-10.86-26.83-14.66-9.4-3.69-19.24-6.13-29.28-7.25-6.45-.56-12.94-.67-19.42-.32-3.53.16-7.04.6-10.5,1.31-6.29,1.27-12.48,3.04-18.5,5.27-4.17,1.74-7.95,4.28-11.14,7.48-3.18,3.2-5.7,7-7.42,11.17-1.71,4.18-2.59,8.65-2.57,13.16.02,4.52.92,8.98,2.66,13.15,3.46,8.27,10.02,14.87,18.27,18.38,8.59,3.35,18.12,3.35,26.71,0l.12.08Z"/>
  <path class="cls-7" d="M1340.99,1346.84c-1.44.59-2.97.94-4.52,1.03-4.2.56-8.45.42-12.6-.4-6.28-1.2-12.01-4.4-16.32-9.11-2.57-2.81-4.41-6.21-5.35-9.91-.92-3.89-1.1-7.93-.51-11.89,1.15-7.6,3.57-14.96,7.17-21.75,2.96-5.62,7.33-10.37,12.68-13.79,3.6-2.23,7.67-3.59,11.89-3.96,1.54-.21,3.11-.09,4.59.36,0,0-1.66,0-4.52.43-4.03.7-7.86,2.24-11.25,4.52-5.04,3.41-9.13,8.05-11.89,13.47-3.41,6.62-5.71,13.75-6.81,21.12-.57,3.74-.43,7.56.4,11.25.87,3.4,2.53,6.55,4.83,9.19,4.01,4.49,9.34,7.61,15.22,8.92,4.01.91,8.14,1.26,12.24,1.03,1.57-.29,3.16-.46,4.76-.51Z"/>
  <path class="cls-7" d="M1275.5,1548.31s-.4.32-1.31.75c-1.26.63-2.59,1.12-3.96,1.47-5.19,1.24-10.57,1.47-15.85.67-6.73-.75-14.5-3.05-23.1-4.68-4.48-.85-9.04-1.19-13.59-1.03-4.84.07-9.58,1.35-13.79,3.72-4.12,2.44-7.35,6.16-9.19,10.58-1.74,4.19-2.79,8.63-3.09,13.15-.99,7.7-.2,15.52,2.3,22.86,1.8,4.88,5.03,9.11,9.27,12.12,1.64,1,3.33,1.91,5.07,2.73,0,0-.55,0-1.51-.28-1.39-.43-2.72-1.03-3.96-1.78-4.61-2.91-8.18-7.21-10.18-12.28-2.78-7.52-3.76-15.58-2.85-23.54.28-4.73,1.34-9.4,3.13-13.79,1.96-4.85,5.47-8.92,9.98-11.57,4.51-2.51,9.57-3.87,14.74-3.96,4.72-.12,9.43.28,14.07,1.19,8.76,1.78,16.32,4.16,22.94,5.07,5.15.93,10.42.93,15.57,0,3.37-.71,5.23-1.62,5.31-1.43Z"/>
  <path class="cls-9" d="M785.93,579.4c-22.07,47.55-88.51,66.72-144.74,40.57-56.23-26.15-80.47-86.85-58.4-134.32,22.07-47.47,74.96-46.64,131.19-20.49,46.87,21.79,80.83,49.65,77.42,87.6-.42,9.11-2.27,18.09-5.47,26.63Z"/>
  <path class="cls-12" d="M788.03,567.15c15.38-33.08-16.24-80.4-70.63-105.69-54.39-25.29-110.94-18.98-126.33,14.1-15.38,33.08,16.24,80.4,70.63,105.69,54.39,25.29,110.94,18.98,126.33-14.1Z"/>
  <path class="cls-9" d="M789.85,563.79c-3.01.91-7.92-11.05-23.77-22.42-9.06-6.62-19.21-11.6-29.99-14.7-6.17-1.71-12.54-2.59-18.94-2.62-6.93,0-14.46.36-22.66.71-8.32.51-16.68.28-24.96-.71-7.76-.95-15.43-2.59-22.9-4.91-6.84-2.02-13.47-4.67-19.81-7.92-5.51-2.82-10.74-6.16-15.61-9.98-7.21-5.42-13.23-12.27-17.67-20.13-1.24-2.13-2.12-4.44-2.62-6.85-.36-1.71,0-2.74.4-3.09,2.7-1.66,10.54,8.72,27.74,17.91,22.91,11.71,48.58,16.95,74.25,15.14,7.93-.36,15.85-.75,24.25-.32,8.21.34,16.32,1.95,24.05,4.75,12.79,4.61,24.36,12.09,33.8,21.87,6.5,6.44,11.37,14.33,14.22,23.02.4,1.58.71,2.97.95,4.2.09,1.07.09,2.14,0,3.21.36,1.7-.04,2.65-.71,2.85Z"/>
  <path class="cls-10" d="M790.13,563.79c0-.75-.44-.48-.71-1.35-2.93-8.57-7.83-16.33-14.3-22.66-4.33-4.5-9.15-8.49-14.38-11.89-6.01-4-12.47-7.26-19.26-9.71-7.64-2.73-15.66-4.29-23.77-4.64-8.2-.43-16.33,0-24.21.32-25.83,1.92-51.69-3.38-74.69-15.29-8.83-5.19-17.18-11.14-24.96-17.79l.75,1.34c4.5,7.73,10.53,14.47,17.71,19.81,2.18,1.82,4.71,3.33,7.25,5.11,2.54,1.78,5.35,3.25,8.36,4.68,6.25,3.24,12.79,5.89,19.53,7.93,7.43,2.27,15.04,3.88,22.74,4.83l6.14.6c2.1,0,4.16.23,6.26.32,4.2,0,8.32,0,12.4-.24,8.2-.32,15.85-.83,22.74-.71,6.5.06,12.96.98,19.22,2.74,5.76,1.69,11.35,3.94,16.68,6.7,4.73,2.4,9.24,5.21,13.47,8.4,6.27,4.59,11.86,10.04,16.64,16.17.83,1.11,1.74,1.86,2.45,2.73.71.87,1.31,1.67,1.86,2.26.56.6,1.47.28,2.06.36Z"/>
  <path class="cls-7" d="M748.01,512.49c-2.06-.61-4.08-1.38-6.02-2.3-5.48-1.91-11.16-3.24-16.92-3.96-8.59-.98-17.24-1.24-25.87-.79-9.75.24-20.52,1.07-31.93.6-10.78-.4-21.38-2.82-31.26-7.13-8.01-3.5-15.69-7.72-22.94-12.6-6.22-3.96-11.06-7.69-14.34-10.18-1.79-1.17-3.47-2.5-5.03-3.96,1.91,1,3.74,2.15,5.47,3.45,3.48,2.3,8.4,5.66,14.7,9.59,7.27,4.65,14.92,8.69,22.86,12.08,9.71,4.12,20.09,6.43,30.63,6.81,11.21.48,21.99-.28,31.7-.43,8.74-.35,17.49.07,26.15,1.27,5.83.88,11.54,2.46,17,4.71,1.9.83,3.33,1.66,4.28,2.18.54.16,1.06.39,1.54.68Z"/>
  <path class="cls-7" d="M784.59,558.88c-.28.28-4.48-4.95-12.56-11.89-10.55-9.04-22.87-15.79-36.17-19.81-15.57-4.59-30.59-2.62-41.25-2.54-4.26.15-8.52-.01-12.76-.48-1.57-.08-3.12-.39-4.6-.91,1.55-.16,3.12-.16,4.68,0,4.2.16,8.41.09,12.6-.2,5.35-.28,11.89-.83,18.86-.91,7.79-.16,15.56.83,23.06,2.93,13.56,4.05,26.04,11.08,36.53,20.56,3.16,2.85,6.12,5.92,8.84,9.19,1.12,1.2,2.06,2.56,2.77,4.04Z"/>
  <path class="cls-7" d="M775.87,582.58s-.52.55-1.62,1.43c-1.67,1.27-3.42,2.45-5.23,3.53-6.77,3.73-14.04,6.46-21.59,8.12-11.23,2.39-22.76,3.09-34.19,2.06-6.77-.48-13.48-1.57-20.05-3.25-7-1.93-13.87-4.31-20.56-7.13-23.62-9.69-44.95-24.22-62.6-42.67-5.28-5.63-9.85-11.9-13.59-18.66-1.02-1.83-1.92-3.72-2.69-5.66-.35-.65-.6-1.34-.75-2.06.2,0,1.43,2.7,4.16,7.33,3.96,6.53,8.64,12.59,13.95,18.07,17.77,17.95,38.96,32.16,62.33,41.76,23.1,10.37,48.81,13.43,73.7,8.8,7.47-1.5,14.7-3.99,21.51-7.41,4.79-2.54,7.17-4.4,7.25-4.24Z"/>
  <g class="cls-13">
    <path class="cls-11" d="M760.61,506.7c-.01-1.15-.45-2.25-1.23-3.09-17.55-24.38-43.48-41.42-72.82-47.86-24.29-5.19-52.22-5.9-73.18,4.79-7.13,3.68-7.21,11.57-.63,16.13,13.27,9.23,33.76,21.16,50.72,22.82,18.86,1.82,37.84-4.28,56.7-2.74,11.34.97,22.29,4.58,31.98,10.54,1.37,1.04,2.97,1.73,4.68,2.02.84.12,1.71-.08,2.41-.57.71-.48,1.2-1.22,1.39-2.05Z"/>
  </g>
  <g class="cls-13">
    <path class="cls-11" d="M614.29,524.69c.03,1.2.48,2.35,1.27,3.25,18.29,25.48,45.33,43.34,75.95,50.16,25.36,5.51,54.56,6.34,76.43-4.83,7.45-3.96,7.61-11.89.75-16.84-13.87-9.63-35.22-22.15-52.94-23.78-19.81-1.98-39.62,4.32-59.43,2.65-11.84-1.01-23.27-4.82-33.36-11.09-1.43-1.05-3.09-1.77-4.83-2.1-.84-.09-1.69.12-2.39.59-.7.47-1.22,1.17-1.45,1.99Z"/>
  </g>
  <path class="cls-11" d="M773.57,510.82c-1.92-1.68-3.76-3.45-5.51-5.31-3.49-3.45-8.6-8.36-15.29-14.03-17.19-15.02-37.21-26.46-58.88-33.64-21.84-6.94-45.2-7.52-67.35-1.66-6.66,1.81-13.12,4.31-19.26,7.45-4.36,2.26-6.66,3.68-6.78,3.53-.12-.16.51-.48,1.59-1.23,1.07-.75,2.62-1.86,4.79-3.01,6.09-3.45,12.55-6.18,19.25-8.16,22.35-6.3,46.06-5.91,68.19,1.11,21.94,7.24,42.12,19,59.23,34.51,5.23,4.58,10.2,9.45,14.9,14.58,1.7,1.78,2.93,3.29,3.76,4.28.53.46.98.99,1.34,1.59Z"/>
  <path class="cls-9" d="M1289.01,437.48c26.55,66.49-16.56,150.56-95.29,182.26-78.73,31.7-161.85-1.31-188.4-67.79-26.55-66.49,23.78-118.27,102.58-149.73,65.61-26.19,125.16-33.88,159.71,5.07,7.09,7.61,16.96,19.14,21.4,30.19Z"/>
  <path class="cls-12" d="M1174.49,562.86c76.14-30.41,122.89-92.59,104.4-138.88-18.49-46.29-95.2-59.17-171.35-28.76-76.15,30.41-122.89,92.59-104.4,138.88,18.49,46.29,95.2,59.17,171.35,28.76Z"/>
  <path class="cls-9" d="M1277.12,419.02c-.48.95-1.94,1.43-4.2,1.54-1.32.07-2.64.07-3.96,0h-5.19c-10.45-.53-20.93.26-31.18,2.34-14.91,2.9-29.2,8.37-42.24,16.17-7.3,4.51-13.96,9.97-19.81,16.25-6.54,6.7-13.07,14.66-20.4,23.18-3.69,4.24-7.49,8.48-11.53,12.64-2.06,2.06-3.96,3.96-6.3,6.06l-6.62,5.35c-8.3,6.85-17.2,12.95-26.59,18.23-8.46,4.8-17.36,8.78-26.58,11.89-4.28,1.62-8.64,2.65-12.72,3.96-3.99.97-8.02,1.74-12.09,2.3-12.25,2.05-24.8,1.47-36.81-1.7-3.3-.81-6.44-2.14-9.31-3.96-1.98-1.34-2.85-2.54-2.65-3.6.99-4.6,18.66-3.05,43.78-11.89,32.77-12.03,61.72-32.62,83.84-59.63,7.01-8.12,14.26-16.68,22.5-24.52,8.18-7.98,17.53-14.67,27.74-19.81,8.99-4.46,18.47-7.84,28.25-10.06,8.44-1.95,17.09-2.93,25.75-2.93,12.61-.35,25.12,2.37,36.45,7.93,1.94,1.11,3.61,2.14,5.03,3.09,1.17.91,2.26,1.92,3.25,3.01,1.51,1.86,2.06,3.21,1.59,4.2Z"/>
  <path class="cls-10" d="M1277.4,418.7c-.91-.51-.87,0-2.02-.6-11.29-5.08-23.61-7.47-35.98-6.97-8.51.1-16.98,1.18-25.24,3.21-9.61,2.24-18.92,5.62-27.74,10.06-9.9,5.04-18.97,11.56-26.9,19.33-7.86,7.76-15.31,15.9-22.35,24.41-22.42,27.44-52.02,48.11-85.51,59.71-19.81,6.58-34.87,6.7-41.09,8.16l2.02.56c11.92,2.71,24.26,3.01,36.3.87,3.96-.48,7.92-1.55,11.89-2.42,3.96-.87,8.28-2.26,12.48-3.96,9.07-3.23,17.82-7.29,26.15-12.12,9.22-5.28,17.97-11.33,26.15-18.11l6.3-5.55c2.1-1.94,4.16-3.96,6.18-5.98,3.96-3.96,7.93-8.28,11.41-12.52,7.33-8.48,13.91-16.48,20.6-23.3,6.13-6.42,13.1-11.98,20.73-16.52,13.36-7.82,28.02-13.18,43.26-15.85,10.46-1.89,21.12-2.36,31.7-1.39,1.9.2,3.53,0,5.07,0s2.85.24,3.96.28c1.82.16,2.02-.67,2.62-1.31Z"/>
  <path class="cls-7" d="M1186.86,412.52c-.63.45-1.32.79-2.06,1.03-1.35.63-3.37,1.43-5.94,2.65-7.04,3.63-13.68,7.98-19.81,13-9.04,7.62-17.44,15.97-25.12,24.96-8.91,9.95-18.22,21.44-29.36,32.33-5.41,5.33-11.32,10.13-17.63,14.34-5.93,3.87-12.17,7.22-18.66,10.03-10.97,4.69-22.33,8.4-33.96,11.09-9.87,2.34-17.95,3.96-23.53,4.84l-6.42,1.07c-.75.19-1.53.27-2.3.24.71-.29,1.46-.51,2.22-.63l6.34-1.47c5.55-1.23,13.55-2.93,23.34-5.47,11.49-2.86,22.71-6.67,33.56-11.41,6.37-2.81,12.5-6.15,18.31-9.98,6.19-4.16,11.99-8.88,17.31-14.11,10.98-10.78,20.33-22.19,29.36-32.13,7.82-9,16.39-17.31,25.63-24.84,6.35-4.97,13.25-9.19,20.56-12.6,2.62-1.11,4.71-1.74,6.14-2.26.65-.28,1.33-.51,2.02-.68Z"/>
  <path class="cls-7" d="M1267.33,419.61c-2.12.14-4.25.14-6.38,0-5.76.04-11.51.37-17.23.99-18.9,2-37.18,7.94-53.65,17.43-8.94,5.43-17.06,12.1-24.13,19.81-6.62,7.01-12.17,13.75-17.08,19.22-3.82,4.37-7.93,8.48-12.32,12.28-1.18,1.06-2.42,2.03-3.73,2.93-.42.36-.89.67-1.39.91,1.43-1.59,2.96-3.07,4.6-4.44,4.2-4,8.16-8.23,11.89-12.68,4.76-5.55,10.18-12.36,16.8-19.53,7.12-7.87,15.36-14.65,24.45-20.13,16.66-9.62,35.23-15.45,54.4-17.08,5.78-.5,11.6-.61,17.39-.32,2.06,0,3.65.24,4.76.36.55-.01,1.1.07,1.62.23Z"/>
  <path class="cls-7" d="M1282.63,450.48c.12.99.12,1.99,0,2.97-.32,2.84-.82,5.66-1.51,8.44-2.62,10.23-6.73,20.01-12.2,29.04-8.17,13.37-18.28,25.45-29.99,35.86-6.84,6.23-14.19,11.86-21.99,16.84-8.47,5.12-17.26,9.7-26.31,13.71-37.32,16.48-74.37,22.86-100.99,22.38-10.54-.04-21.04-1.37-31.26-3.96-2.79-.67-5.53-1.51-8.2-2.54-.96-.29-1.88-.67-2.77-1.11,0-.24,3.96,1.19,11.17,2.89,10.2,2.21,20.62,3.26,31.06,3.13,34.57-.78,68.63-8.52,100.12-22.78,8.98-3.96,17.7-8.49,26.11-13.55,7.71-4.9,15.01-10.44,21.79-16.56,11.65-10.21,21.76-22.06,29.99-35.18,5.52-8.87,9.8-18.46,12.72-28.49.95-3.57,1.51-6.38,1.86-8.28.05-.95.19-1.89.4-2.82Z"/>
  <g class="cls-13">
    <path class="cls-11" d="M1192.92,394.57c-1.17-1.05-2.67-1.65-4.24-1.7-40.73-5.34-81.99,4.54-115.89,27.73-27.89,19.18-54.84,46.28-63.55,77.22-3.05,10.5,4.68,18.03,15.41,15.85,21.6-4.6,52.66-13.79,70.21-29.12,19.53-17.04,31.22-41.64,50.48-58.96,11.49-10.44,25.28-18.01,40.25-22.11,2.31-.42,4.5-1.37,6.38-2.77.88-.73,1.47-1.76,1.64-2.89.18-1.13-.07-2.29-.69-3.25Z"/>
  </g>
  <g class="cls-13">
    <path class="cls-11" d="M1073.66,557.02c1.22,1.1,2.79,1.72,4.44,1.74,42.57,5.82,85.79-4.33,121.32-28.49,29.2-20.05,57.41-48.33,66.8-80.59,3.21-10.98-4.87-18.86-16.05-16.48-22.58,4.72-55.07,14.23-73.46,30.19-20.41,17.75-32.69,43.58-52.86,61.49-12.12,10.82-26.62,18.63-42.31,22.82-2.41.39-4.69,1.36-6.66,2.81-.97.74-1.64,1.81-1.87,3.01-.23,1.2,0,2.44.64,3.48Z"/>
  </g>
  <path class="cls-11" d="M1260.91,460.78c-.31.67-.67,1.32-1.07,1.94l-3.33,5.39c-1.7,2.87-3.56,5.63-5.59,8.28-2.34,3.13-4.87,6.81-8.16,10.5l-5.03,5.86c-1.79,2.02-3.96,3.96-5.83,6.06-3.96,4.28-8.64,8.32-13.47,12.72-10.82,9.14-22.44,17.29-34.71,24.37-12.37,6.89-25.34,12.65-38.75,17.19-6.26,1.9-12.12,3.96-17.83,5.03-2.85.63-5.54,1.39-8.2,1.86l-7.61,1.31c-4.87.91-9.31,1.19-13.23,1.59-3.31.4-6.65.6-9.98.59h-6.34c-.74.11-1.48.11-2.22,0,.7-.21,1.44-.32,2.18-.32l6.34-.48c3.32-.13,6.62-.45,9.9-.95,3.96-.52,8.32-.87,13.12-1.91l7.53-1.39c2.62-.51,5.31-1.31,8.12-1.98,5.63-1.23,11.45-3.21,17.63-5.15,26.65-9.06,51.35-23.05,72.82-41.25,4.83-4.28,9.55-8.28,13.51-12.44,1.98-2.06,3.96-3.96,5.82-5.94l5.11-5.75c3.33-3.61,5.9-7.21,8.36-10.26,2.45-3.05,4.4-5.75,5.9-7.93l3.68-5.19c.75-1.23,1.23-1.82,1.31-1.78Z"/>
  <path class="cls-9" d="M1011.93,204.47c32.45,54.6,6.3,134.4-58.36,172.87-64.66,38.47-142.08,21.2-174.57-33.4-32.49-54.6,4.4-106.86,69.22-145.45,53.92-32.05,105.04-47.03,140.74-17.67,7.13,5.86,17.55,14.58,22.98,23.65Z"/>
  <path class="cls-12" d="M928.82,330.16c62.55-37.2,94.93-98.19,72.32-136.22-22.62-38.03-91.66-38.7-154.22-1.5-62.55,37.2-94.93,98.19-72.31,136.22,22.62,38.03,91.66,38.7,154.22,1.5Z"/>
  <path class="cls-9" d="M998.94,189.93c-1.47,4.32-16.68,1.94-38.24,10.54-12.43,4.73-23.97,11.53-34.11,20.13-5.68,4.9-10.69,10.52-14.9,16.72-4.76,6.74-9.35,14.58-14.62,23.06-2.74,4.44-5.39,8.4-8.4,12.76-3.02,4.13-6.24,8.09-9.67,11.89-6.39,7.23-13.44,13.86-21.04,19.81-6.84,5.43-14.18,10.21-21.91,14.26-3.6,1.98-7.33,3.49-10.78,5.07-3.45,1.58-6.97,2.73-10.42,3.61-10.62,3.42-21.85,4.49-32.92,3.13-3.06-.36-6.03-1.23-8.8-2.58-1.94-1.03-2.85-2.1-2.81-3.13.28-4.68,15.85-6.22,36.25-17.67,26.6-15.27,48.75-37.22,64.27-63.67,5.06-8.52,10.54-16.77,16.44-24.72,6.17-8.16,13.55-15.33,21.87-21.28,13.75-9.77,29.58-16.2,46.24-18.78,11.17-2,22.67-1.17,33.44,2.42,1.9.75,3.48,1.47,4.87,2.18,1.15.68,2.24,1.46,3.25,2.34,1.66,1.66,2.3,2.89,1.98,3.92Z"/>
  <path class="cls-10" d="M999.13,189.53c-.87-.32-.75,0-1.82-.24-10.61-2.9-21.75-3.28-32.53-1.11-7.45,1.26-14.73,3.36-21.71,6.26-8.09,3.31-15.77,7.57-22.86,12.68-7.98,5.78-15.03,12.74-20.92,20.64-6.06,7.92-11.17,16.36-16.24,24.49-15.84,27.18-38.93,49.42-66.69,64.23-16.48,8.48-29.63,10.66-34.9,12.84h1.86c10.82.74,21.68-.71,31.93-4.28,3.33-.91,6.58-2.42,10.06-3.72,3.49-1.31,6.98-3.17,10.42-5.15,7.5-4.1,14.62-8.86,21.27-14.22,7.34-5.93,14.17-12.46,20.41-19.53,1.54-1.9,3.17-3.96,4.76-5.71,1.58-1.74,3.13-3.96,4.59-6.1,2.93-3.96,5.67-8.36,8.28-12.56,5.23-8.44,9.9-16.4,14.86-23.3,4.48-6.47,9.81-12.31,15.85-17.35,5.63-4.58,11.7-8.6,18.11-12.01,5.64-3.15,11.54-5.8,17.63-7.92,8.95-3.12,18.28-5.02,27.74-5.63,1.7,0,3.09-.44,4.44-.59,1.35-.16,2.57,0,3.53-.28,1.43.04,1.51-.79,1.94-1.43Z"/>
  <path class="cls-7" d="M918.9,196.74s-2.3,1.59-6.46,4.36c-5.76,4.15-11.07,8.89-15.85,14.15-6.86,7.96-13.08,16.45-18.58,25.4-6.42,9.95-13,21.32-21.24,32.41-4.01,5.43-8.54,10.46-13.51,15.02-4.65,4.22-9.66,8.03-14.97,11.37-8.96,5.65-18.42,10.48-28.25,14.42-8.36,3.41-15.22,5.82-19.81,7.49l-5.51,1.78c-.64.24-1.3.41-1.98.52,0,0,.59-.4,1.82-.91l5.39-2.14c4.64-1.9,11.45-4.52,19.81-7.92,9.63-4.11,18.91-9.02,27.74-14.66,10.75-6.91,20.15-15.74,27.73-26.03,7.93-10.98,14.74-22.27,21.28-32.25,5.63-8.97,12.02-17.44,19.1-25.32,4.86-5.23,10.33-9.87,16.28-13.83,2.18-1.35,3.96-2.22,5.11-2.85,1.15-.63,1.86-1.07,1.9-.99Z"/>
  <path class="cls-7" d="M990.42,191.79c-1.81.52-3.67.88-5.55,1.07-3.57.59-8.72,1.62-14.97,3.29-16.28,4.41-31.46,12.15-44.57,22.74-15.25,12.52-23.58,28.96-30.75,39.62-2.75,4.36-5.8,8.53-9.11,12.48-.91,1.08-1.88,2.11-2.89,3.09-.67.67-1.07.99-1.11.95,1.02-1.59,2.14-3.12,3.37-4.56,3.06-4.09,5.9-8.33,8.52-12.72,3.37-5.55,7.21-12.28,11.89-19.49,5.19-7.89,11.52-14.97,18.78-21,13.36-10.77,28.93-18.46,45.6-22.51,5.01-1.24,10.09-2.14,15.22-2.69,1.85-.28,3.72-.37,5.59-.28Z"/>
  <path class="cls-7" d="M1008.21,216.71c.16.88.25,1.76.28,2.65.17,2.53.17,5.07,0,7.61-.89,9.33-3.14,18.49-6.65,27.18-5.31,12.88-12.51,24.9-21.36,35.66-5.12,6.41-10.78,12.38-16.92,17.83-6.72,5.74-13.82,11.03-21.24,15.85-25.83,17.02-54.95,28.45-85.46,33.56-9.25,1.48-18.64,1.8-27.97.95-2.53-.22-5.05-.6-7.53-1.15-.88-.09-1.74-.29-2.58-.6,0-.24,3.61.48,10.18.91,9.27.54,18.58.02,27.74-1.54,30.19-5.48,58.96-17.01,84.59-33.88,7.31-4.71,14.33-9.87,21-15.45,6.01-5.44,11.56-11.36,16.6-17.71,8.79-10.55,16.01-22.32,21.44-34.95,3.61-8.53,6.05-17.52,7.25-26.71.71-6.54.44-10.18.63-10.22Z"/>
  <g class="cls-13">
    <path class="cls-11" d="M921.71,180.14c-1.17-.76-2.58-1.07-3.96-.87-36.45.87-71.29,15.21-97.79,40.26-21.83,20.72-41.68,48.26-45.25,76.59-1.19,9.63,6.66,15.14,15.85,11.69,18.22-7.01,44.34-19.22,57.45-35.07,14.78-17.63,21.59-40.81,36.1-58.68,8.72-10.71,19.84-19.22,32.45-24.84,1.96-.67,3.74-1.8,5.19-3.29.4-.37.71-.82.92-1.32.21-.5.32-1.04.32-1.58,0-.54-.12-1.08-.34-1.57-.22-.5-.54-.94-.94-1.31Z"/>
  </g>
  <g class="cls-13">
    <path class="cls-11" d="M839.66,339.06c1.18.74,2.57,1.08,3.96.95,38.06-.87,74.46-15.75,102.22-41.8,22.86-21.63,43.58-50.32,47.55-79.92,1.27-10.06-6.9-15.85-16.36-12.2-19.18,7.25-46.32,20.09-60.22,36.65-15.45,18.38-22.66,42.55-37.88,61.18-9.11,11.18-20.73,20.04-33.92,25.87-2.06.7-3.93,1.87-5.47,3.41-.71.82-1.1,1.87-1.08,2.95.02,1.08.45,2.12,1.19,2.91Z"/>
  </g>
  <path class="cls-11" d="M990.5,228.75c-.12.65-.33,1.28-.63,1.86-.6,1.43-1.31,3.13-2.14,5.23-1.18,2.71-2.51,5.35-3.96,7.92-1.67,3.05-3.33,6.66-5.71,10.34l-3.6,5.86c-1.27,2.02-2.77,3.96-4.24,6.14-2.89,4.28-6.42,8.48-10.06,13-8.23,9.51-17.29,18.27-27.06,26.19-9.93,7.76-20.54,14.62-31.7,20.48-5.19,2.5-10.1,5.03-14.94,6.85-2.38.95-4.68,1.98-6.93,2.73l-6.5,2.18c-3.96,1.51-7.93,2.34-11.37,3.25-2.87.78-5.78,1.42-8.72,1.9l-5.55.91c-.64.07-1.3.07-1.94,0,.58-.3,1.21-.5,1.86-.59l5.47-1.31c2.38-.52,5.27-1.19,8.56-2.22,3.29-1.03,7.17-1.94,11.21-3.53l6.42-2.26c2.22-.83,4.48-1.86,6.81-2.85,4.76-1.86,9.59-4.44,14.74-6.97,10.97-5.9,21.41-12.73,31.22-20.41,9.7-7.81,18.7-16.44,26.91-25.79,3.64-4.44,7.25-8.56,10.14-12.8,1.46-2.06,3.01-3.96,4.28-5.98,1.27-2.02,2.5-3.96,3.68-5.75,2.45-3.61,4.2-7.13,5.94-10.14,1.74-3.01,3.05-5.63,3.96-7.92.91-2.3,1.82-3.64,2.54-5.03.39-.48.83-.92,1.31-1.31Z"/>
  <path class="cls-9" d="M1073.27,812.7c-7.1,72.82-85.74,129.01-172,120.61-86.25-8.4-146.32-77.22-139.23-150.05,7.09-72.82,77.18-96.16,163.44-87.76,71.87,7.01,129.56,27.97,142.64,79.6,2.61,10.3,6.34,25.48,5.15,37.6Z"/>
  <path class="cls-12" d="M1070.53,795.71c4.96-50.72-58.65-98.45-142.06-106.59-83.41-8.15-155.05,26.36-160,77.09-4.96,50.72,58.65,98.45,142.06,106.59,83.41,8.15,155.05-26.36,160-77.09Z"/>
  <path class="cls-9" d="M1071.17,790.35c-.83.63-2.42.36-4.52-.63-1.03-.48-2.18-1.15-3.53-1.94-1.34-.79-2.93-1.59-4.59-2.62-9.24-5.41-19.12-9.65-29.4-12.64-14.93-4.41-30.51-6.18-46.04-5.23-8.83.62-17.55,2.41-25.91,5.31-9.11,3.05-18.78,7.21-29.44,11.49-5.31,2.1-10.78,4.2-16.4,6.07-2.82.91-5.63,1.74-8.52,2.54l-8.44,2.06c-10.74,2.29-21.67,3.61-32.65,3.96-9.95.44-19.91-.06-29.76-1.51-4.64-.55-9.07-1.62-13.31-2.49-4.24-.87-8.28-2.1-11.89-3.57-12.07-3.89-23.19-10.26-32.65-18.7-2.58-2.28-4.79-4.95-6.54-7.93-1.19-2.14-1.47-3.64-.79-4.44,3.01-3.65,18.26,6.14,45.28,9.91,35.46,4.58,71.51-.49,104.33-14.7,10.22-3.96,20.8-8.44,31.94-11.89,11.07-3.34,22.59-4.97,34.15-4.83,10.24.09,20.43,1.42,30.35,3.96,8.56,2.16,16.84,5.3,24.68,9.35,11.62,5.55,21.71,13.84,29.4,24.17,1.27,1.9,2.3,3.6,3.13,5.15.65,1.36,1.19,2.78,1.59,4.24.66,2.64.5,4.28-.48,4.91Z"/>
  <path class="cls-10" d="M1071.56,790.19c-.6-.91-.79-.4-1.54-1.47-7.86-9.92-17.93-17.87-29.4-23.22-7.79-3.9-15.99-6.92-24.45-8.99-9.77-2.5-19.79-3.83-29.87-3.96-11.34-.05-22.63,1.61-33.48,4.91-10.98,3.21-21.51,7.57-31.7,11.65-33.23,14.42-69.82,19.31-105.67,14.1-21.08-3.37-34.79-10.3-41.13-11.89l1.55,1.47c9.56,8.05,20.63,14.11,32.57,17.83,3.72,1.39,7.73,2.22,11.89,3.37,4.16,1.15,8.6,1.82,13.19,2.34,9.74,1.34,19.58,1.76,29.4,1.27,10.85-.45,21.64-1.84,32.25-4.16l8.32-2.06c2.85-.75,5.62-1.62,8.44-2.54,5.55-1.82,10.94-3.96,16.25-6.02,10.62-4.24,20.36-8.44,29.64-11.45,8.58-2.97,17.52-4.75,26.59-5.31,8.37-.45,16.77-.09,25.08,1.07,7.35.96,14.61,2.58,21.67,4.83,10.37,3.17,20.26,7.75,29.4,13.59,1.63,1.07,3.17,1.66,4.52,2.45,1.34.79,2.49,1.59,3.48,2.14,1.59.99,2.22.24,3.01.04Z"/>
  <path class="cls-7" d="M992.28,742.09c-.79.09-1.59.09-2.38,0-1.51,0-3.72-.32-6.62-.4-8.15-.06-16.27.75-24.25,2.42-11.79,2.67-23.35,6.3-34.55,10.86-12.76,4.87-26.63,10.9-41.8,15.57-7.43,2.29-15.06,3.87-22.78,4.71-7.19.75-14.42.87-21.63.36-12.16-.88-24.21-2.84-36.01-5.87-10.1-2.49-18.11-4.91-23.78-6.65l-6.34-2.02c-.76-.2-1.5-.49-2.18-.87.76.1,1.52.26,2.26.47l6.5,1.67c5.59,1.46,13.67,3.68,23.77,5.98,11.72,2.78,23.65,4.58,35.66,5.39,14.72,1.03,29.5-.72,43.58-5.15,15.06-4.6,28.92-10.58,41.76-15.37,11.32-4.51,23.02-8.02,34.95-10.5,8.09-1.58,16.33-2.17,24.57-1.78,2.89,0,5.11.59,6.65.79.89,0,1.77.13,2.62.4Z"/>
  <path class="cls-7" d="M1061.97,786.31c-2-.83-3.94-1.78-5.82-2.85-5.25-2.68-10.63-5.08-16.13-7.21-18.11-7.07-37.51-10.27-56.94-9.39-10.63.69-21.1,2.89-31.1,6.54-9.31,3.25-17.51,6.73-24.53,9.39-5.52,2.2-11.19,4.02-16.96,5.43-2.02.51-3.68.71-4.76.91-.56.06-1.13.06-1.7,0,2.05-.74,4.14-1.36,6.26-1.86,5.64-1.67,11.19-3.67,16.6-5.98,6.93-2.81,15.06-6.46,24.45-9.83,10.17-3.82,20.85-6.11,31.7-6.81,19.68-.91,39.33,2.54,57.53,10.1,5.46,2.27,10.75,4.92,15.85,7.93,1.86,1.03,3.21,1.94,3.96,2.54s1.62,1.03,1.58,1.11Z"/>
  <path class="cls-7" d="M1061.46,821.53c-.42.94-.94,1.82-1.54,2.65-1.64,2.41-3.41,4.72-5.31,6.93-7.21,8.04-15.56,15-24.76,20.64-13.7,8.29-28.54,14.52-44.06,18.46-9.09,2.43-18.37,4.08-27.74,4.95-10.11.65-20.25.65-30.35,0-41.56-2.54-78.21-14.14-102.18-27.06-9.57-4.96-18.5-11.06-26.59-18.19-2.21-1.91-4.29-3.96-6.22-6.14-.74-.71-1.41-1.48-2.02-2.3.2-.2,3.01,2.93,8.76,7.93,8.23,6.81,17.2,12.67,26.74,17.47,31.76,15.52,66.33,24.47,101.63,26.31,10.02.64,20.06.64,30.08,0,9.29-.83,18.5-2.44,27.54-4.79,15.32-3.84,30.02-9.87,43.62-17.91,9.17-5.44,17.56-12.1,24.92-19.81,2.54-2.82,4.36-5.07,5.59-6.7.56-.87,1.2-1.69,1.9-2.46Z"/>
  <g class="cls-13">
    <path class="cls-11" d="M1006.19,728.62c-.57-1.5-1.65-2.75-3.05-3.53-34.44-24-76.53-34.44-118.19-29.32-34.39,4.4-71.6,16.4-94.22,40.26-7.69,7.93-3.96,18.58,6.62,21.51,21.79,5.98,54.28,12.24,77.42,6.58,25.75-6.34,47.9-23.14,73.54-29.87,15.38-4.01,31.5-4.32,47.03-.91,2.28.72,4.69.9,7.05.52,1.17-.25,2.2-.92,2.91-1.89.7-.97,1.02-2.16.9-3.34Z"/>
  </g>
  <g class="cls-13">
    <path class="cls-11" d="M821.63,820.11c.6,1.57,1.74,2.88,3.21,3.68,35.91,25.16,79.85,36.18,123.38,30.94,35.9-4.48,74.81-16.92,98.5-41.76,7.93-8.48,4.44-19.41-6.85-22.54-22.74-6.3-56.66-12.92-80.87-7.05-26.86,6.54-50.08,24.05-76.87,30.98-16.08,4.15-32.91,4.45-49.13.87-2.37-.77-4.9-.96-7.37-.55-1.23.24-2.31.93-3.06,1.94-.74,1.01-1.08,2.25-.95,3.49Z"/>
  </g>
  <path class="cls-11" d="M1036.97,820.66c-.58.47-1.21.9-1.86,1.27l-5.59,3.33-3.96,2.34c-1.51.83-3.21,1.62-4.99,2.5-3.6,1.74-7.64,3.96-12.36,5.7l-7.33,2.97c-2.54.99-5.31,1.82-7.93,2.77-5.59,2.02-11.89,3.49-18.19,5.19-28.25,6.67-57.54,7.78-86.22,3.25-6.58-1.19-12.83-2.18-18.54-3.96-2.89-.75-5.7-1.31-8.32-2.14l-7.53-2.42c-4.84-1.43-9.04-3.29-12.76-4.72-1.86-.79-3.61-1.43-5.15-2.14l-4.2-2.02-5.83-2.89c-.69-.3-1.34-.69-1.94-1.15.74.16,1.46.41,2.14.75l5.94,2.54,4.28,1.9c1.54.63,3.33,1.23,5.19,1.91,3.73,1.34,7.93,3.13,12.76,4.44l7.53,2.26c2.62.79,5.43,1.31,8.28,2.02,5.67,1.54,11.89,2.45,18.42,3.6,28.45,4.26,57.46,3.16,85.51-3.25,6.42-1.62,12.56-3.01,18.11-4.95,2.82-.95,5.55-1.7,7.93-2.65l7.33-2.85c4.76-1.67,8.8-3.73,12.4-5.35,1.82-.83,3.53-1.54,5.03-2.34l3.96-2.18,5.74-2.97c.67-.35,1.39-.61,2.14-.75Z"/>
</svg>
