<?xml version="1.0" encoding="UTF-8"?>
<svg id="Layer_1" data-name="Layer 1" xmlns="http://www.w3.org/2000/svg" viewBox="0 0 1868.88 1764">
  <defs>
    <style>
      .cls-1, .cls-2, .cls-3, .cls-4, .cls-5, .cls-6, .cls-7, .cls-8, .cls-9, .cls-10, .cls-11 {
        stroke-width: 0px;
      }

      .cls-1, .cls-6, .cls-10 {
        fill: #000;
      }

      .cls-2 {
        fill: #e0e0e0;
      }

      .cls-12, .cls-6 {
        opacity: .2;
      }

      .cls-3 {
        fill: #455a64;
      }

      .cls-4 {
        fill: #f5f5f5;
      }

      .cls-5 {
        fill: #09f;
      }

      .cls-6, .cls-10 {
        isolation: isolate;
      }

      .cls-7 {
        fill: #ebebeb;
      }

      .cls-8 {
        fill: #e30613;
      }

      .cls-9 {
        fill: #263238;
      }

      .cls-13, .cls-10 {
        opacity: .3;
      }

      .cls-11 {
        fill: #fff;
      }
    </style>
  </defs>
  <path class="cls-7" d="M848.75,187.01c-6.48-5.61-14.25-9.53-22.61-11.41-82.99-20.75-171.66,8.3-237.64,61.58-5.23,4.23-10.32,8.59-15.27,13.07-124.28,112.24-286.68,172.82-453.9,163.11h-1.58c-26.1,28.67-33.2,71.37-24.52,109.13,8.67,37.76,31.91,70.99,59.59,98.13,16.89,16.6,36.64,32.94,41.95,56.01,6.76,29.34-12.78,58.63-36.1,77.68-23.32,19.05-51.25,32.11-72.37,53.9-40.17,41.49-44.9,112.49-10.54,158.92,34.36,46.43,103.74,62.74,155.02,36.47,34.48-17.55,67.1-52.58,105.23-37.34,9.2,3.87,17.24,10.04,23.36,17.92,18.63,23.16,22.82,52.28,34.73,78.22,25.27,55.23,86.93,90.87,147.51,87.14,60.58-3.73,116.8-45.23,139.87-101.41,23.07-56.19,12.91-124.11-23.9-172.41-15.81-20.75-36.43-38.67-39.5-66.77-.79-6.11-.04-12.32,2.18-18.07,2.22-5.75,5.85-10.85,10.56-14.83,18.84-15.19,43.44-2.99,66.02.46,17.44,2.67,35.27-.21,50.98-8.23,15.71-8.02,28.5-20.77,36.57-36.46,8.07-15.69,11-33.51,8.39-50.96-2.62-17.44-10.65-33.62-22.95-46.26-23.69-24.32-65.4-41-46.64-82.74,3.33-7.33,7.84-14.06,13.36-19.92,57.59-62.04-22.24-162.32,25.93-222.99,16.6-20.75,43.86-29.54,66.39-44.19,25.85-16.72,47.35-52.95,19.88-77.76Z"/>
  <path class="cls-7" d="M1407.34,1393.28c-23.61-17.01-51.12-35.23-55.81-63.94-5.06-30.83,18.84-58.55,43.07-78.26,24.23-19.71,52.37-38.92,61.2-68.88,12.45-42.57-22.61-87.43-64.65-101.62-42.03-14.19-88.01-5.93-131.45,3.11-121.29,25.27-241.37,55.73-361.45,86.18l-214.69,44.82c-23.4,33.44-14.98,81.86,10.71,113.57,25.68,31.7,64.81,49.5,103.73,61.12,22.57,6.72,48.8,14.4,57.8,36.14,11.24,27.26-11.91,55.15-27.92,79.92-41.91,64.85-35.85,158.55,18.26,213.65,54.11,55.11,152.37,61.12,209.3,9,22.28-20.41,37.34-47.26,57.3-70.04,19.96-22.78,47.43-42.36,77.51-40,29.05,2.28,52.12,23.86,76.97,38.96,45.64,27.8,104.69,34.4,153.53,12.86,48.84-21.53,85.02-72.61,84.19-126.02-.91-62.16-47.1-114.56-97.59-150.58Z"/>
  <path class="cls-7" d="M1628.92,448.05c-1.04-37.35-7.47-82.53-42.08-96.06-15.93-6.22-36.39-4.69-46.97-18.13-9.75-12.45-4.9-31.2,4.69-43.73,9.58-12.53,23.03-21.74,32.49-34.4,8.04-10.61,12.92-23.28,14.06-36.55,1.14-13.26-1.49-26.58-7.6-38.41-6.11-11.83-15.44-21.69-26.91-28.44-11.47-6.75-24.63-10.12-37.93-9.71-41.5,1.08-76.43,37.68-117.76,35.52-74.03-3.86-100.08-121.91-174.27-126.72l-141.91,37.34c-15.25,29.12-21.66,62.06-18.46,94.78,3.2,32.72,15.87,63.79,36.47,89.41,9.17,11.04,20.29,21.83,22.57,35.98,3.69,22.82-17.51,42.49-39.17,50.58-21.66,8.09-45.85,9.54-65.98,21-40.08,22.74-50.12,81.03-28.17,121.62,21.95,40.58,67.97,63.65,113.77,68.96,24.9,2.9,52.49,2.28,71.04,19,19.67,17.8,20.75,47.68,22.45,74.19,4.15,66.02,25.39,136.93,80.62,173.57,18.48,12.17,39.64,19.63,61.67,21.75,22.02,2.11,44.22-1.18,64.67-9.61,20.45-8.42,38.54-21.72,52.68-38.74,14.14-17.01,23.91-37.22,28.45-58.87,8.84-42.2-1.99-89.46,19.96-126.56,25.56-43.28,86.68-56.19,110.21-100.58,12.74-23.16,12.12-50.83,11.41-77.18Z"/>
  <path class="cls-7" d="M51.31,1034.32l-28.71,74.9c-1.08,4.2-1.03,8.62.15,12.79,1.18,4.17,3.45,7.97,6.57,10.98l54.65,52.82s105.85-9.92,113.78-60.66c.79-5.31,4.52-22.33-1.25-27.26-38.05-32.95-145.19-63.57-145.19-63.57Z"/>
  <path class="cls-4" d="M53.22,1032.28l-21.49,60.87c-1.24,3.54-1.36,7.37-.35,10.98,1.02,3.61,3.12,6.82,6.03,9.18l52.78,42.66s130.04-24.89,106.31-58.09c-18.01-25.19-87.72-57.8-120.33-74.69-2.08-1.04-4.36-1.62-6.69-1.72-2.33-.1-4.65.3-6.81,1.15s-4.12,2.16-5.75,3.82c-1.63,1.66-2.89,3.65-3.7,5.83Z"/>
  <path class="cls-7" d="M1580.66,1252.7l-20.95,54.53c-.77,3.06-.72,6.28.15,9.31.87,3.04,2.52,5.79,4.79,7.99l39.75,38.3s77.1-7.22,82.99-44.15c.62-3.86,3.32-16.23-.87-19.84-27.88-23.86-105.85-46.14-105.85-46.14Z"/>
  <path class="cls-4" d="M1582.03,1251.12l-15.64,44.31c-.92,2.58-1.01,5.37-.27,8.01.74,2.63,2.29,4.96,4.41,6.68l38.42,31.08s94.69-18.26,77.39-42.37c-13.11-18.34-63.9-42.08-87.55-54.36-1.51-.79-3.18-1.25-4.89-1.34-1.71-.09-3.42.19-5.01.82-1.59.63-3.03,1.6-4.21,2.83-1.18,1.23-2.09,2.71-2.65,4.33Z"/>
  <path class="cls-7" d="M13.47,1349.8s-18.46,43.11-12.16,61.37c6.56,18.96,69.21,8.05,69.21,8.05,0,0,18.84-66.81-57.05-69.42Z"/>
  <path class="cls-4" d="M33.14,1343.86c-11.83-5.89-25.93,4.69-28.76,17.63-3.49,15.77-8.3,33.19,1.29,38.84,16.6,9.59,57.43,4.69,57.43,4.69,0,0,23.98-34.15-29.96-61.16Z"/>
  <path class="cls-7" d="M1738.13,612.49s-15.73,36.64-10.38,52.2c5.35,15.56,58.92,6.84,58.92,6.84,0,0,15.98-56.8-48.55-59.05Z"/>
  <path class="cls-4" d="M1754.73,607.47c-10.04-5.06-22.08,4.15-24.48,14.94-2.95,13.44-7.14,28.34,1.08,33.2,14.27,8.3,48.88,4.15,48.88,4.15,0,0,20.5-29.33-25.48-52.28Z"/>
  <path class="cls-7" d="M252.64,90.95s-15.64,36.76-10.29,52.16c5.56,16.18,58.88,6.89,58.88,6.89,0,0,16.02-56.81-48.59-59.05Z"/>
  <path class="cls-4" d="M269.45,85.89c-10.08-5.02-22.07,4.15-24.48,14.98-2.99,13.44-7.18,28.34,1.08,33.2,14.27,8.3,48.88,4.15,48.88,4.15,0,0,20.37-29.34-25.48-52.32Z"/>
  <path class="cls-4" d="M474.47,1387.26s-44.73,87.14-23.03,152.53c0,0-84.94-13.36-106.72,66.8,0,0-89.05.62-95.44,67.84,0,0-93.61-11.37-120.79,41.24,0,0,43.82-74.69,35.23-101.95,0,0,80.62-26.77,75.15-108.51,0,0,76.64-21.83,76.6-95.15.12,0,125.85,4.48,159.01-22.82Z"/>
  <path class="cls-2" d="M146.42,1698.76c.33-.19.64-.43.91-.7l2.57-2.24,9.71-8.71,35.44-32.41c29.83-27.47,70.95-65.56,116.18-107.89,45.23-42.32,86.31-80.46,115.85-108.26l34.94-32.99,9.42-9.05,2.41-2.41c.54-.54.83-.83.79-.87-.04-.04-.33.21-.91.71l-2.57,2.24-9.71,8.76-35.44,32.45c-29.83,27.47-70.95,65.56-116.18,107.89-45.23,42.32-86.22,80.37-115.89,108.17l-34.94,32.99-9.42,9.05-2.41,2.41c-.29.25-.55.55-.75.87Z"/>
  <path class="cls-2" d="M327.33,1589.51c1.71-4.16,3.1-8.45,4.15-12.82,2.37-7.97,5.73-18.97,9.63-31.04,3.9-12.08,7.72-22.91,10.5-30.79,1.73-4.16,3.11-8.44,4.15-12.82-2.23,3.98-4.1,8.14-5.6,12.45-3.15,7.72-7.18,18.51-11.12,30.62-3.94,12.11-7.05,23.23-9.05,31.33-1.29,4.26-2.18,8.64-2.66,13.07Z"/>
  <path class="cls-2" d="M299.07,1506.23c1.44-.28,2.83-.74,4.15-1.37,2.57-1,6.22-2.49,10.75-4.4,9.05-3.82,21.45-9.21,35.15-15.31,13.69-6.1,25.98-11.7,34.86-15.89,4.44-2.07,12.03-1.08,14.52-2.32,2.49-1.24-.29-4.73-.37-4.86-1.44.24-2.84.68-4.15,1.33-2.53,1-6.22,2.49-10.75,4.4-9.05,3.82-21.45,9.21-35.1,15.31-13.65,6.1-25.98,11.74-34.85,15.89-4.44,2.12-8.01,3.82-10.46,5.06-1.34.54-2.6,1.27-3.73,2.16Z"/>
  <path class="cls-2" d="M237.21,1664.28s.54-1.08,1.12-3.07c.58-1.99,1.37-5.1,2.28-8.59,1.99-7.18,4.9-17.1,8.84-27.8,3.94-10.7,8.05-20.17,11.2-26.93,1.91-3.59,3.56-7.3,4.94-11.12-2.5,3.23-4.63,6.72-6.35,10.42-4.58,8.66-8.56,17.63-11.91,26.84-3.39,9.21-6.16,18.64-8.3,28.22-.79,3.69-1.33,6.68-1.62,8.76-.23,1.08-.3,2.18-.21,3.28Z"/>
  <path class="cls-4" d="M527.87,1391.58s33.53,62.24,81.29,76.1c0,0-42.7,45.02-3.94,90.79,0,0-36.06,53.2,1.33,84.44,0,0-45.06,51-24.89,88.72,0,0-26.47-56.64-46.22-62.7,0,0,17.05-58.88-33.78-89.09,0,0,18.38-54.48-25.27-84.44.04,0,54.28-73.07,51.5-103.82Z"/>
  <path class="cls-2" d="M578.91,1714.12v-.83c0-.54,0-1.41-.29-2.45l-1.24-9.38c-1.12-8.3-2.78-19.84-4.81-34.32-4.15-29.05-9.96-69.05-16.6-113.24-6.64-44.19-12.45-84.23-16.97-113.2-2.24-14.44-4.15-26.14-5.31-34.28-.66-4.15-1.2-7.14-1.53-9.29,0-1.04-.33-1.87-.46-2.45-.13-.58,0-.79-.21-.79s0,.29,0,.83,0,1.41.29,2.45l1.24,9.34c1.12,8.3,2.78,19.87,4.81,34.35,4.15,29.05,9.96,69.05,16.6,113.24,6.64,44.19,12.45,84.23,16.97,113.19,2.24,14.44,4.15,26.14,5.31,34.28.67,4.15,1.16,7.14,1.54,9.3.21,1.04.33,1.82.46,2.41.01.29.08.57.21.83Z"/>
  <path class="cls-2" d="M587.92,1561.83c-1.74-2.75-3.71-5.34-5.89-7.76-3.78-4.69-8.92-11.16-14.52-18.42-5.6-7.26-10.46-13.98-13.98-18.84-1.79-2.72-3.79-5.3-5.98-7.72,1.42,2.92,3.1,5.69,5.02,8.3,3.32,5.02,8.09,11.87,13.65,19.17,5.56,7.3,10.96,13.65,14.94,18.18,2.01,2.58,4.28,4.96,6.77,7.09Z"/>
  <path class="cls-2" d="M526.84,1544.53c.43-.95.72-1.96.87-2.99.46-1.91,1.08-4.69,1.78-8.3,1.45-6.93,3.32-16.6,5.27-27.14,1.95-10.54,3.65-20.25,4.81-27.26.58-3.48.99-6.31,1.29-8.3.19-1.01.28-2.04.25-3.07-.44.93-.74,1.92-.87,2.95-.46,1.91-1.08,4.73-1.78,8.3-1.45,6.93-3.32,16.6-5.27,27.18-1.95,10.58-3.65,20.25-4.81,27.22-.58,3.48-.99,6.31-1.29,8.3-.2,1.02-.28,2.07-.25,3.11Z"/>
  <path class="cls-2" d="M595.55,1645.98s-.41-.75-1.41-1.91l-4.15-4.85c-3.49-4.15-8.3-9.92-12.91-16.6-4.6-6.68-8.71-13.03-11.45-17.68-1.34-2.59-2.87-5.09-4.56-7.47.87,2.8,2.07,5.49,3.57,8.01,6.6,12.55,14.85,24.16,24.52,34.53,1.87,1.99,3.4,3.52,4.52,4.56,1.12,1.04,1.78,1.49,1.87,1.41Z"/>
  <path class="cls-4" d="M399.16,1324.32s-48.96-8.96-77.55,11.16c0,0-5.93-43.23-48.13-42.07,0,0-13.36-43.24-46.97-36.39,0,0-8.3-47.18-37.76-52.7,0,0,42.74,10.37,54.73,2.2,0,0,24.9,35.27,63.78,20.75,0,0,21.87,34.02,57.51,23.28-.08-.12,16.27,61.66,34.4,73.78Z"/>
  <path class="cls-2" d="M199.57,1210.71l.5.33,1.45.92,5.68,3.44,20.75,12.45c17.76,10.46,42.32,24.9,69.46,40.71,27.14,15.81,51.78,30.17,69.63,40.46l21.16,12.16,5.77,3.24,1.54.83c.33.21.54.29.54.25l-.5-.33-1.45-.91-5.68-3.45-20.75-12.45c-17.76-10.5-42.32-24.9-69.46-40.75-27.14-15.85-51.78-30.33-69.63-40.63l-21.16-12.11-5.77-3.24-1.54-.83c-.33-.08-.54-.33-.54-.08Z"/>
  <path class="cls-2" d="M279.24,1282.41c2.28.17,4.57.17,6.85,0h16.6c6.51,0,12.45.37,16.6.58,2.29.16,4.59.16,6.89,0-2.23-.53-4.51-.84-6.8-.95-4.15-.37-10.08-.75-16.6-.91-6.51-.17-12.45,0-16.6.21-2.34.16-4.65.52-6.93,1.08Z"/>
  <path class="cls-2" d="M315.59,1256.35c.35.64.77,1.23,1.25,1.78.87,1.12,2.16,2.66,3.73,4.61,3.15,3.82,7.63,9.05,12.45,14.81,4.81,5.77,9.54,10.91,12.86,14.6,1.66,1.87,3.03,3.36,4.15,4.15.47.55,1,1.05,1.58,1.49,0,0-.37-.7-1.24-1.78-.87-1.08-2.12-2.66-3.69-4.6-3.2-3.82-7.63-9.05-12.45-14.82-4.81-5.77-9.5-10.91-12.82-14.6l-4.15-4.36c-1.04-.66-1.58-1.29-1.66-1.29Z"/>
  <path class="cls-2" d="M229.65,1249.59c.55.11,1.11.11,1.66,0h4.52c3.78,0,9.05,0,14.81.21,5.77.21,11,.95,14.73,1.49,2.03.41,4.08.66,6.14.75-1.95-.71-3.96-1.23-6.02-1.54-4.89-.96-9.84-1.58-14.81-1.87-4.96-.32-9.94-.32-14.9,0-1.91,0-3.44.33-4.52.5-.56.06-1.11.21-1.62.46Z"/>
  <path class="cls-4" d="M345.22,1378.31s-23.4,8.3-30.75,24.27c0,0-13.4-17.22-31.37-6.14,0,0-16.6-15.35-29.42-4.15,0,0-15.39-18.34-29.54-13.32,0,0,21.08-6.22,24.23-12.78,0,0,19.59,9.05,32.74-7.05,0,0,18.01,9.25,30.75-4.36,0,.16,22.49,22.82,33.36,23.53Z"/>
  <path class="cls-2" d="M230.36,1379.09h16.68l40.25.21h55.77-15.52l-40.25-.21h-56.93Z"/>
  <path class="cls-2" d="M282.85,1390.25c1.03-.49,2.03-1.04,2.99-1.66,1.87-1.08,4.15-2.53,7.18-4.15,3.03-1.62,5.44-2.9,7.3-3.9,1.04-.46,2.04-1.02,2.99-1.66-1.09.35-2.14.8-3.15,1.33-1.95.87-4.56,2.16-7.39,3.73-2.82,1.57-5.35,3.07-7.14,4.15-.99.63-1.92,1.35-2.78,2.16Z"/>
  <path class="cls-2" d="M292.1,1369.92s.33,0,.95.46l2.78,1.04c2.32.87,5.56,2.03,9.17,3.28l9.21,3.11,2.82.87,1.04.25c-.31-.2-.64-.36-1-.46-.62-.29-1.58-.62-2.74-1.08l-9.17-3.24c-3.57-1.24-6.85-2.37-9.21-3.11l-2.82-.87c-.33-.14-.68-.22-1.04-.25Z"/>
  <path class="cls-2" d="M253.18,1388.47c.27-.1.52-.24.75-.41l1.91-1.16c1.62-1,3.86-2.32,6.47-3.61,2.61-1.29,4.98-2.37,6.72-3.07.98-.33,1.94-.73,2.86-1.2-1.02.18-2.02.46-2.99.83-2.35.83-4.65,1.8-6.89,2.91-2.21,1.13-4.34,2.41-6.39,3.82l-1.83,1.33c-.41.33-.66.54-.62.58Z"/>
  <path class="cls-2" d="M543.1,1347.02c-.49-6.97-3.04-13.63-7.32-19.15-4.28-5.52-10.1-9.64-16.73-11.86-6.62-2.21-13.75-2.41-20.49-.56-6.74,1.84-12.78,5.64-17.35,10.91-4.58,5.27-7.49,11.79-8.37,18.71-.87,6.93.32,13.96,3.44,20.21,3.12,6.25,8.02,11.43,14.09,14.89,6.07,3.46,13.02,5.05,19.99,4.56,9.34-.67,18.03-5.02,24.17-12.09,6.14-7.07,9.22-16.29,8.57-25.63Z"/>
  <path class="cls-2" d="M456.17,1351.79c-.36-5.07-2.21-9.92-5.33-13.93-3.11-4.02-7.35-7.02-12.17-8.63-4.82-1.61-10.01-1.75-14.91-.4-4.9,1.34-9.3,4.11-12.62,7.95-3.33,3.84-5.44,8.58-6.08,13.62-.63,5.04.24,10.16,2.52,14.7,2.28,4.55,5.85,8.31,10.26,10.82,4.41,2.51,9.48,3.66,14.55,3.29,6.78-.5,13.09-3.66,17.55-8.81,4.46-5.14,6.69-11.83,6.23-18.62Z"/>
  <path class="cls-2" d="M510.9,1414.78c-.24-3.4-1.48-6.65-3.57-9.34-2.09-2.69-4.93-4.71-8.16-5.79-3.23-1.08-6.71-1.17-10-.27-3.29.9-6.23,2.75-8.46,5.33-2.23,2.58-3.65,5.75-4.07,9.14-.43,3.38.16,6.81,1.69,9.86,1.53,3.05,3.92,5.57,6.88,7.26,2.96,1.68,6.36,2.45,9.76,2.21,2.25-.16,4.46-.76,6.48-1.77,2.02-1.01,3.82-2.41,5.3-4.12,1.48-1.71,2.61-3.69,3.32-5.83.71-2.15.99-4.41.83-6.66Z"/>
  <path class="cls-4" d="M1651.45,1015.19s24.9-64.4,4.65-108.51c0,0,60.46,2.99,69.67-54.77,0,0,62.24-7.14,61.66-54.69,0,0,66.39.95,81.45-37.97,0,0-24.9,55.6-17.01,74.03,0,0-54.4,24.89-44.44,81.66,0,0-51.99,21.04-46.48,72.37,0,0-88.34,6.31-109.5,27.88Z"/>
  <path class="cls-2" d="M1857.68,772.45c-.21.18-.4.37-.58.58l-1.62,1.74c-1.45,1.58-3.48,3.9-6.14,6.85l-22.36,25.39c-18.84,21.49-44.73,51.24-73.32,84.19-28.59,32.95-54.36,62.82-72.95,84.48-9.25,10.87-16.6,19.63-21.99,25.73l-5.89,7.06-1.53,1.87c-.33.41-.5.62-.46.67l.58-.58,1.62-1.74c1.45-1.58,3.53-3.9,6.14-6.85l22.37-25.39c18.84-21.49,44.77-51.24,73.32-84.19,28.55-32.95,54.35-62.82,72.95-84.48,9.29-10.83,16.6-19.63,21.99-25.72l5.89-7.06,1.54-1.87c.33-.41.5-.62.46-.67Z"/>
  <path class="cls-2" d="M1739.29,862.57c-.91,3.04-1.58,6.15-1.99,9.3-1.08,5.73-2.62,13.7-4.44,22.45-1.83,8.75-3.69,16.6-5.02,22.32-.89,3.04-1.53,6.15-1.91,9.3,1.25-2.91,2.25-5.92,2.99-9,1.62-5.64,3.65-13.53,5.48-22.28,1.82-8.76,3.19-16.6,4.15-22.61.5-3.13.74-6.29.74-9.46Z"/>
  <path class="cls-2" d="M1765.27,918.76c-.96.29-1.88.71-2.74,1.24-1.7.87-4.15,2.2-7.18,3.9-6.06,3.32-14.32,8.05-23.45,13.32-9.13,5.27-17.3,10.17-23.19,13.77-2.95,1.79-5.31,3.28-6.93,4.15-.88.5-1.7,1.1-2.45,1.78.96-.31,1.88-.73,2.74-1.24,1.7-.87,4.15-2.2,7.18-3.9,6.06-3.32,14.36-8.05,23.44-13.36,9.09-5.31,17.31-10.17,23.2-13.74l6.97-4.15c.88-.48,1.69-1.08,2.41-1.78Z"/>
  <path class="cls-2" d="M1796.72,803.4c-.31.73-.49,1.5-.54,2.28-.25,1.58-.58,3.65-1,6.14-.83,5.23-2.12,12.45-4.15,20.17-2.03,7.72-4.15,14.69-5.81,19.67-1.07,2.7-1.95,5.47-2.62,8.3,1.48-2.46,2.71-5.06,3.65-7.76,5.08-12.87,8.42-26.34,9.96-40.08.29-2.66.46-4.77.5-6.27.12-.81.12-1.64,0-2.45Z"/>
  <path class="cls-4" d="M1602.53,1001.16s-13.24-31.82-35.73-40.87c0,0,22.9-19.75,6.31-43.86,0,0,20.12-24.06,3.48-41.04,0,0,24.32-22.57,16.39-41.87,0,0,10.08,28.8,19.38,32.66,0,0-11.16,27.76,12.03,44.89,0,0-11.53,25.56,8.3,42.2-.12.17-29.92,32.78-30.16,47.88Z"/>
  <path class="cls-2" d="M1593.48,842.16v6.22c0,4.15.37,9.79.67,16.89.58,14.27,1.5,33.98,2.49,55.77,1,21.78,1.99,41.5,2.74,55.77.37,7.1.71,12.87.91,16.89,0,1.95.25,3.52.29,4.56v1.2c-.01.14-.01.28,0,.41v-6.22c0-4.15-.41-9.75-.67-16.89-.62-14.27-1.5-33.98-2.53-55.77-1.04-21.78-1.99-41.49-2.7-55.73-.41-7.14-.7-12.91-.95-16.89,0-1.99-.21-3.53-.29-4.6v-1.2c.03-.14.04-.28.04-.41Z"/>
  <path class="cls-2" d="M1581.7,915.65c.7,1.45,1.54,2.84,2.49,4.15,1.58,2.45,3.78,5.85,6.14,9.67,2.37,3.82,4.4,7.3,5.85,9.79.75,1.44,1.6,2.82,2.53,4.15-.55-1.44-1.23-2.83-2.03-4.15-1.37-2.61-3.32-6.14-5.69-9.96-2.36-3.82-4.65-7.18-6.35-9.54-.84-1.47-1.83-2.84-2.95-4.11Z"/>
  <path class="cls-2" d="M1610.49,927.02s-.25.46-.58,1.37c-.33.91-.75,2.24-1.24,3.9-1.04,3.28-2.41,7.88-3.9,12.9-1.5,5.02-2.74,9.67-3.65,12.99-.46,1.66-.79,3.03-.99,4.15-.16.47-.26.96-.29,1.45.26-.43.45-.89.58-1.37.29-.91.75-2.24,1.24-3.9,1.04-3.28,2.41-7.85,3.86-12.91,1.45-5.06,2.78-9.67,3.69-12.99.41-1.66.79-3.03.99-4.15.16-.47.26-.96.29-1.45Z"/>
  <path class="cls-2" d="M1582.07,874.61s0,.41.58,1l1.78,2.57c1.5,2.2,3.49,5.23,5.48,8.71,1.99,3.49,3.57,6.77,4.69,9.13.5,1.34,1.13,2.64,1.87,3.86-.3-1.43-.76-2.82-1.37-4.15-1.28-3.22-2.79-6.34-4.52-9.34-1.7-3-3.6-5.88-5.69-8.63-.83-1.04-1.49-1.87-1.99-2.41-.25-.27-.53-.52-.83-.75Z"/>
  <path class="cls-2" d="M1624.02,1080.37c6.39-2.38,11.93-6.61,15.92-12.14,3.99-5.53,6.25-12.12,6.49-18.94.24-6.81-1.54-13.55-5.13-19.35-3.58-5.8-8.81-10.41-15.01-13.24-6.2-2.83-13.11-3.76-19.84-2.67-6.73,1.09-12.99,4.16-17.98,8.8-4.99,4.65-8.49,10.68-10.06,17.31-1.57,6.64-1.13,13.59,1.26,19.98,3.21,8.56,9.68,15.5,17.99,19.29,8.32,3.8,17.8,4.14,26.37.95Z"/>
  <path class="cls-2" d="M1694.31,1043.86c.39,2.53.03,5.13-1.05,7.46-1.08,2.33-2.82,4.28-5.01,5.62-2.19,1.34-4.73,2-7.29,1.89-2.56-.1-5.04-.96-7.11-2.47-2.07-1.51-3.66-3.6-4.55-6-.89-2.41-1.05-5.02-.45-7.52.59-2.5,1.92-4.76,3.8-6.5,1.88-1.75,4.24-2.89,6.77-3.3,1.69-.27,3.42-.21,5.08.19,1.66.4,3.23,1.12,4.62,2.13,1.39,1.01,2.56,2.28,3.45,3.74.89,1.46,1.48,3.08,1.75,4.78Z"/>
  <path class="cls-5" d="M989.91,1121.83s-102.99-49.42-89.38-165.06c13.61-115.64,120.33-172.49,179.59-178.84,64.65-7.06,184.98,60.25,183.49,195.27,0,0,6.85,56.97-41.91,120.66,0,0,233.61-114.65,269.71,5.31,36.6,121.29-123.24,142.57-199.75,181.29-76.52,38.71,73.9,98.38,142.53,138.38,74.19,43.23,103.11,151.87,28.8,225.23-86.72,85.64-222.95-70.17-257.68-105.94-34.73-35.77-50.16-63.53-72.12-5.23-21.95,58.3-74.98,291.33-250.5,184.23-134.53-82.07,30.75-206.26,49.79-297.14,19.05-90.87-1.37-86.89-93.86-90.12-92.49-3.24-197.6-45.27-176.64-142.49,19.87-92.24,145.72-52.28,214.44-53.45,68.71-1.16,113.49-12.12,113.49-12.12Z"/>
  <path class="cls-10" d="M989.91,1121.83s-102.99-49.42-89.38-165.06c13.61-115.64,120.33-172.49,179.59-178.84,64.65-7.06,184.98,60.25,183.49,195.27,0,0,6.85,56.97-41.91,120.66,0,0,233.61-114.65,269.71,5.31,36.6,121.29-123.24,142.57-199.75,181.29-76.52,38.71,73.9,98.38,142.53,138.38,74.19,43.23,103.11,151.87,28.8,225.23-86.72,85.64-222.95-70.17-257.68-105.94-34.73-35.77-50.16-63.53-72.12-5.23-21.95,58.3-74.98,291.33-250.5,184.23-134.53-82.07,30.75-206.26,49.79-297.14,19.05-90.87-1.37-86.89-93.86-90.12-92.49-3.24-197.6-45.27-176.64-142.49,19.87-92.24,145.72-52.28,214.44-53.45,68.71-1.16,113.49-12.12,113.49-12.12Z"/>
  <path class="cls-5" d="M943.1,1088.88s-81-54.77-61.7-169.63c16.27-96.89,111.66-138.34,170.75-144.73,64.73-7.01,193.74,26.14,192.33,161.16,0,0,6.85,56.97-41.91,120.7,0,0,240.42-89.21,276.64,30.75,36.64,121.29-130.04,117.1-206.56,155.81-76.52,38.72,64.69,115.44,133.28,155.44,74.19,43.23,112.37,134.81,38.05,208.22-86.72,85.6-222.95-70.21-257.68-105.98-34.73-35.77-50.16-63.53-72.12-5.18-21.95,58.34-65.93,284.94-232.37,204.69-141.95-68.47,12.45-226.72,31.82-317.64,19.38-90.91-1.37-86.89-93.86-90.08-92.49-3.2-181.91-27.88-161-125.11,19.91-92.24,130.09-69.67,198.8-70.87,68.71-1.2,85.52-7.55,85.52-7.55Z"/>
  <path class="cls-11" d="M910.24,1111.12c-48.38,0-96.8-3.36-144.61,6.43-40.83,8.3-87.43,37.34-85.1,84.65,2.32,47.31,47.47,56.85,86.39,58.09,24.9.71,49.42-.58,74.15-.87,26.1-.29,56.35-1.62,79.67,11.95,48.3,28.09,26.64,81.87,8.3,120.33-21.2,44.03-43.07,88.01-60,133.94-15.52,42.2-24.02,88.05,0,129.51,24.36,42.36,72.49,48.17,111.7,23.07,23.07-15.37,42.29-35.86,56.14-59.88,11.16-18.76,15.06-38.72,21.74-59.13,7.75-23.84,17.32-47.05,28.63-69.42,7.97-15.69,21.5-46.52,39.92-53.2,13.9-5.02,31.58,15.52,40.87,23.9,18.71,16.89,36.51,34.81,54.69,52.37,35.56,34.32,74.27,75.69,124.48,86.31,45.65,9.58,91.29-15.68,101.62-62.24,9.96-43.86-7.88-95.44-47.01-119.38-21.04-12.82-46.39-18.51-68.38-30.04-25.67-13.32-49.69-29.63-71.53-48.59-18.34-16.18-40.38-38.17-43.94-63.65-3.57-25.48,17.55-43.03,37.97-53.69,38.38-20,81.66-23.03,121.87-37.34,34.69-12.45,88.92-37.14,85.89-81.79-3.19-47.31-58.67-58.09-96.85-58.34-53.94,0-106.06,21.54-158.26,32.66-14.65,3.11-29.34,6.1-44.07,8.84l6.18,8.3c48.09-87.89,74.69-222.62-29.46-280.42-95.44-52.99-221.45,10.79-239.92,116.85-7.8,44.98,9.71,85.85,32.28,123.9,13.88,24.57,31.33,46.95,51.78,66.39.96-3.57,1.95-7.14,2.91-10.7l-78.26,1.08c-7.71,0-6.22,11.99,1.37,11.87l78.3-1.08c5.73,0,6.39-7.55,2.95-10.66-14.05-13.34-26.49-28.28-37.05-44.52-22.37-32.61-44.61-72.12-44.4-112.74.33-23.22,6.28-46,17.32-66.42,11.05-20.42,26.87-37.86,46.12-50.84,43.69-29.05,97.51-40.75,147.14-19.42,65.6,28.26,87.39,89.09,77.26,156.35-6.31,40.58-19.59,79.76-39.25,115.81-.4.96-.55,2.01-.41,3.05.13,1.04.52,2.02,1.14,2.86.62.84,1.45,1.5,2.41,1.92s2.01.58,3.04.47c38.55-7.14,77.02-15.35,114.82-25.69,46.06-12.45,103.2-28.75,148.13-2.74,24.06,13.9,30.08,42.7,11.78,64.32-16.35,19.29-41.99,30.5-65.23,39-36.47,13.4-75.69,16.89-111.7,32.28-30.08,12.9-63.57,36.43-57.34,73.65,6.93,41.49,49.79,74.11,82.16,95.97,19.84,13.54,40.86,25.25,62.82,34.98,24.36,10.7,48.92,16.06,66.39,38.05,31.54,39.84,32.2,113.28-20.41,136.27-52.62,22.99-104.57-21.87-140.83-55.14-33.2-30.66-63.82-65.85-99.96-93.32-8.63-6.6-18.22-13.86-29.63-11.21-13.32,3.15-23.48,16.6-30.87,27.14-24.61,34.81-41.5,77.34-53.07,118.21-13.11,46.89-47.97,102.16-100.25,111.79-63.57,11.62-85.31-68.01-74.02-115.85,10.5-44.52,31.95-87.14,51.41-128.3,13.53-28.47,33.2-58.09,40-89.34,9.58-43.03-11.83-84.69-55.56-95.85-43.74-11.16-91.66-2.45-135.98-3.65-18.46-.5-42.86-.37-58.38-11.99-24.69-18.42-20.75-53.11-3.03-74.69,33.86-40.87,100.13-39.42,148.43-39.79,18.67,0,37.34.99,55.97.99,7.72.17,6.22-11.62-1.37-11.62Z"/>
  <path class="cls-6" d="M917.42,1114.23c-48.34,0-96.76-3.36-144.57,6.43-40.83,8.3-87.43,37.34-85.1,84.65,2.32,47.3,47.47,56.85,86.39,58.09,24.69.7,49.42-.58,74.15-.87,26.06-.29,56.35-1.61,79.67,11.95,48.3,28.09,26.64,81.87,8.3,120.33-21.2,44.02-43.11,88.01-60,133.94-15.52,42.2-24.03,88.05-.21,129.5,24.36,42.36,72.49,48.18,111.7,23.07,23.15-15.34,42.45-35.82,56.39-59.83,11.16-18.76,15.06-38.71,21.74-59.13,7.74-23.84,17.31-47.05,28.63-69.42,7.97-15.68,21.49-46.56,39.92-53.2,13.9-5.02,31.58,15.52,40.83,23.9,18.76,16.89,36.56,34.81,54.73,52.36,35.56,34.32,74.27,75.69,124.48,86.31,45.64,9.59,91.08-15.68,101.62-62.24,9.96-43.9-7.88-95.44-47.01-119.38-21.04-12.82-46.39-18.51-68.38-30.04-25.65-13.3-49.63-29.6-71.45-48.55-18.34-16.18-40.38-38.17-43.94-63.65-3.57-25.48,17.55-43.03,37.97-53.69,38.38-20.04,81.66-23.03,121.87-37.34,34.69-12.45,88.92-37.34,85.89-81.79-3.19-47.3-58.71-58.09-96.85-58.34-53.94,0-106.1,21.53-158.26,32.66-14.69,3.11-29.37,6.1-44.11,8.84l6.22,8.3c48.09-87.88,74.69-222.61-29.46-280.41-95.44-52.99-221.45,10.79-239.92,116.85-7.8,44.98,9.71,85.85,32.28,123.9,13.85,24.58,31.29,46.95,51.74,66.39,1-3.53,1.99-7.1,2.95-10.66l-78.3,1.08c-7.67,0-6.18,11.99,1.41,11.87l78.3-1.08c5.73,0,6.39-7.55,2.95-10.66-14.04-13.35-26.48-28.29-37.05-44.52-22.37-32.62-44.61-72.12-44.4-112.74.32-23.22,6.25-46.01,17.28-66.43,11.03-20.43,26.84-37.88,46.09-50.87,43.69-29.05,97.51-40.79,147.14-19.42,65.6,28.26,87.39,89.09,77.26,156.35-6.31,40.58-19.59,79.76-39.25,115.81-.41.96-.57,2.02-.45,3.06.12,1.04.52,2.03,1.14,2.87.63.84,1.47,1.5,2.43,1.92.96.41,2.02.57,3.06.45,38.55-7.14,77.01-15.35,114.77-25.69,46.1-12.45,103.24-28.75,148.18-2.74,24.07,13.9,30.09,42.7,11.79,64.32-16.35,19.29-41.99,30.5-65.23,39-36.47,13.4-75.69,16.89-111.7,32.28-30.08,12.91-63.57,36.43-57.34,73.65,6.89,41.5,49.79,74.11,82.16,95.98,19.83,13.54,40.86,25.25,62.82,34.98,24.36,10.7,48.92,16.06,66.39,38.05,31.58,39.79,32.24,113.28-20.42,136.27-52.65,22.99-104.52-21.87-140.79-55.15-33.2-30.66-63.82-65.85-99.96-93.32-8.63-6.6-18.26-13.9-29.67-11.2-13.28,3.15-23.44,16.6-30.83,27.14-24.61,34.81-41.5,77.35-53.07,118.22-13.11,46.85-47.97,102.16-100.25,111.74-63.53,11.7-85.43-67.97-74.15-115.77,10.5-44.57,31.91-87.14,51.41-128.3,13.49-28.47,33.19-58.3,39.96-89.34,9.59-43.03-11.78-84.69-55.52-95.89-43.74-11.2-91.66-2.41-136.02-3.61-18.42-.5-42.82-.41-58.34-11.99-24.9-18.42-20.75-53.11-3.07-74.69,33.9-40.87,100.12-39.42,148.46-39.79,18.67,0,37.34.99,55.98.99,7.72.12,6.26-11.74-1.37-11.74Z"/>
  <path class="cls-11" d="M910.24,1111.12c-48.38,0-96.8-3.36-144.61,6.43-40.83,8.3-87.43,37.34-85.1,84.65,2.32,47.31,47.47,56.85,86.39,58.09,24.9.71,49.42-.58,74.15-.87,26.1-.29,56.35-1.62,79.67,11.95,48.3,28.09,26.64,81.87,8.3,120.33-21.2,44.03-43.07,88.01-60,133.94-15.52,42.2-24.02,88.05,0,129.51,24.36,42.36,72.49,48.17,111.7,23.07,23.07-15.37,42.29-35.86,56.14-59.88,11.16-18.76,15.06-38.72,21.74-59.13,7.75-23.84,17.32-47.05,28.63-69.42,7.97-15.69,21.5-46.52,39.92-53.2,13.9-5.02,31.58,15.52,40.87,23.9,18.71,16.89,36.51,34.81,54.69,52.37,35.56,34.32,74.27,75.69,124.48,86.31,45.65,9.58,91.29-15.68,101.62-62.24,9.96-43.86-7.88-95.44-47.01-119.38-21.04-12.82-46.39-18.51-68.38-30.04-25.67-13.32-49.69-29.63-71.53-48.59-18.34-16.18-40.38-38.17-43.94-63.65-3.57-25.48,17.55-43.03,37.97-53.69,38.38-20,81.66-23.03,121.87-37.34,34.69-12.45,88.92-37.14,85.89-81.79-3.19-47.31-58.67-58.09-96.85-58.34-53.94,0-106.06,21.54-158.26,32.66-14.65,3.11-29.34,6.1-44.07,8.84l6.18,8.3c48.09-87.89,74.69-222.62-29.46-280.42-95.44-52.99-221.45,10.79-239.92,116.85-7.8,44.98,9.71,85.85,32.28,123.9,13.88,24.57,31.33,46.95,51.78,66.39.96-3.57,1.95-7.14,2.91-10.7l-78.26,1.08c-7.71,0-6.22,11.99,1.37,11.87l78.3-1.08c5.73,0,6.39-7.55,2.95-10.66-14.05-13.34-26.49-28.28-37.05-44.52-22.37-32.61-44.61-72.12-44.4-112.74.33-23.22,6.28-46,17.32-66.42,11.05-20.42,26.87-37.86,46.12-50.84,43.69-29.05,97.51-40.75,147.14-19.42,65.6,28.26,87.39,89.09,77.26,156.35-6.31,40.58-19.59,79.76-39.25,115.81-.4.96-.55,2.01-.41,3.05.13,1.04.52,2.02,1.14,2.86.62.84,1.45,1.5,2.41,1.92s2.01.58,3.04.47c38.55-7.14,77.02-15.35,114.82-25.69,46.06-12.45,103.2-28.75,148.13-2.74,24.06,13.9,30.08,42.7,11.78,64.32-16.35,19.29-41.99,30.5-65.23,39-36.47,13.4-75.69,16.89-111.7,32.28-30.08,12.9-63.57,36.43-57.34,73.65,6.93,41.49,49.79,74.11,82.16,95.97,19.84,13.54,40.86,25.25,62.82,34.98,24.36,10.7,48.92,16.06,66.39,38.05,31.54,39.84,32.2,113.28-20.41,136.27-52.62,22.99-104.57-21.87-140.83-55.14-33.2-30.66-63.82-65.85-99.96-93.32-8.63-6.6-18.22-13.86-29.63-11.21-13.32,3.15-23.48,16.6-30.87,27.14-24.61,34.81-41.5,77.34-53.07,118.21-13.11,46.89-47.97,102.16-100.25,111.79-63.57,11.62-85.31-68.01-74.02-115.85,10.5-44.52,31.95-87.14,51.41-128.3,13.53-28.47,33.2-58.09,40-89.34,9.58-43.03-11.83-84.69-55.56-95.85-43.74-11.16-91.66-2.45-135.98-3.65-18.46-.5-42.86-.37-58.38-11.99-24.69-18.42-20.75-53.11-3.03-74.69,33.86-40.87,100.13-39.42,148.43-39.79,18.67,0,37.34.99,55.97.99,7.72.17,6.22-11.62-1.37-11.62Z"/>
  <path class="cls-10" d="M1073.89,1243.2c-15.69,8.3-19.54,26.22-12.87,41.95,1.84,3.8,4.43,7.2,7.61,9.99,3.18,2.78,6.89,4.9,10.9,6.22,4.01,1.32,8.26,1.82,12.47,1.47,4.21-.36,8.31-1.55,12.05-3.52,7.21-4.6,12.33-11.85,14.25-20.18,1.92-8.33.5-17.09-3.96-24.39-5.01-6.93-12.45-11.71-20.84-13.38-8.38-1.68-17.09-.13-24.39,4.34"/>
  <path class="cls-10" d="M1084.64,1340.05c-15.64,8.3-19.5,26.22-12.87,41.95,1.85,3.8,4.44,7.19,7.62,9.98,3.18,2.78,6.88,4.9,10.9,6.22,4.01,1.32,8.25,1.83,12.46,1.48,4.21-.34,8.31-1.53,12.05-3.49,7.16-4.61,12.24-11.82,14.17-20.11,1.93-8.29.55-17-3.83-24.29-5.01-6.95-12.46-11.74-20.86-13.42-8.4-1.67-17.12-.11-24.42,4.38"/>
  <path class="cls-3" d="M1073.89,1233.32c-15.69,8.51-19.54,26.22-12.87,41.95,1.84,3.81,4.42,7.21,7.59,10.01,3.18,2.8,6.88,4.92,10.9,6.25,4.01,1.33,8.25,1.84,12.47,1.5,4.22-.34,8.32-1.52,12.07-3.48,7.21-4.6,12.33-11.85,14.25-20.18,1.92-8.34.5-17.09-3.96-24.39-5.01-6.93-12.45-11.71-20.84-13.38-8.38-1.68-17.09-.13-24.39,4.34"/>
  <path class="cls-9" d="M1084.64,1330.21c-15.64,8.3-19.5,26.22-12.87,41.95,1.85,3.8,4.44,7.19,7.62,9.97,3.18,2.78,6.89,4.89,10.9,6.21,4.01,1.32,8.25,1.82,12.46,1.47,4.21-.35,8.31-1.54,12.05-3.51,7.21-4.6,12.33-11.84,14.26-20.17,1.93-8.33.52-17.09-3.92-24.39-5.02-6.93-12.47-11.71-20.86-13.39-8.39-1.67-17.11-.12-24.41,4.34"/>
  <g class="cls-13">
    <path class="cls-1" d="M1015.35,971.25c-.3,2.92-1.45,5.69-3.32,7.96-1.87,2.27-4.36,3.93-7.18,4.78-2.81.85-5.81.84-8.62-.01-2.81-.86-5.3-2.53-7.17-4.8-1.86-2.27-3.01-5.05-3.29-7.97-.29-2.92.3-5.86,1.69-8.45,1.38-2.59,3.51-4.71,6.1-6.09,2.59-1.38,5.53-1.97,8.45-1.68,1.95.19,3.83.76,5.56,1.67,1.72.92,3.25,2.17,4.49,3.69,1.24,1.51,2.16,3.26,2.72,5.12.56,1.87.75,3.84.55,5.78Z"/>
    <path class="cls-1" d="M1143.19,943.74c-.3,2.93-1.45,5.7-3.32,7.97-1.87,2.27-4.37,3.93-7.18,4.77-2.81.85-5.82.84-8.63-.02-2.81-.86-5.3-2.53-7.16-4.81-1.86-2.28-3-5.05-3.28-7.98-.28-2.92.31-5.87,1.71-8.45,1.39-2.59,3.52-4.71,6.12-6.08,2.6-1.38,5.54-1.95,8.47-1.66,3.91.41,7.51,2.35,9.99,5.39,2.49,3.05,3.67,6.96,3.29,10.87Z"/>
    <path class="cls-1" d="M1105.18,962.08c1.85.28,3.61.99,5.14,2.07,1.53,1.08,2.78,2.5,3.66,4.16,2.57,4.92,3.41,10.56,2.41,16.02-1.26,7.86-4.66,15.23-9.83,21.29-6.63,7.85-15.43,13.57-25.3,16.43-9.87,2.87-20.37,2.75-30.17-.33-7.64-2.31-14.48-6.71-19.75-12.7-3.77-4.06-6.07-9.26-6.56-14.78-.13-1.87.18-3.75.9-5.49.72-1.73,1.84-3.28,3.25-4.51,5.48-4.48,13.24-4.98,20.08-6.51,6.09-1.18,12.12-2.69,18.05-4.52,5.99-1.6,11.87-3.55,17.63-5.85,6.64-2.37,13.44-6.1,20.5-5.27Z"/>
  </g>
  <path class="cls-11" d="M1010.08,965.9c-.3,2.92-1.45,5.69-3.32,7.96-1.87,2.27-4.36,3.93-7.18,4.78-2.81.85-5.81.84-8.62-.01-2.81-.86-5.3-2.53-7.17-4.8-1.86-2.27-3.01-5.05-3.29-7.97-.29-2.92.3-5.86,1.69-8.45,1.39-2.59,3.51-4.71,6.1-6.09,2.59-1.38,5.53-1.97,8.45-1.68,3.92.4,7.52,2.34,10.02,5.38,2.49,3.05,3.68,6.96,3.3,10.88Z"/>
  <path class="cls-11" d="M1137.92,938.46c-.3,2.92-1.45,5.7-3.32,7.96-1.87,2.27-4.37,3.93-7.18,4.78-2.81.85-5.82.84-8.62-.02-2.81-.86-5.3-2.53-7.16-4.81-1.86-2.28-3-5.05-3.28-7.98-.28-2.93.31-5.87,1.71-8.45,1.39-2.59,3.52-4.71,6.12-6.08,2.59-1.38,5.54-1.95,8.47-1.66,3.91.41,7.5,2.35,9.99,5.4,2.49,3.05,3.67,6.96,3.29,10.87Z"/>
  <path class="cls-11" d="M1099.91,956.85c1.85.27,3.62.96,5.16,2.04,1.53,1.07,2.8,2.49,3.68,4.15,2.54,4.93,3.38,10.56,2.41,16.02-1.26,7.87-4.68,15.24-9.88,21.29-6.61,7.87-15.42,13.61-25.29,16.47-9.88,2.86-20.38,2.74-30.18-.37-7.62-2.32-14.45-6.7-19.75-12.66-3.78-4.07-6.09-9.28-6.56-14.81-.13-1.87.18-3.75.9-5.49.72-1.73,1.83-3.28,3.25-4.51,5.48-4.48,13.24-4.98,20.08-6.51,6.1-1.18,12.12-2.69,18.05-4.52,6-1.61,11.9-3.56,17.68-5.85,6.6-2.37,13.4-6.1,20.46-5.23Z"/>
  <g class="cls-13">
    <path class="cls-1" d="M1200.91,1109c-3.82-5.6-11.79-5.89-18.55-5.48-50.79,3.11-100.62,14.73-150.16,26.31-11.25,2.65-22.99,5.52-31.7,13.15-14.6,12.78-16.26,34.56-16.85,53.94l-11.79,47.76c.76,6.78,3.61,13.15,8.16,18.23,4.55,5.08,10.57,8.62,17.22,10.11,6.65,1.5,13.61.88,19.9-1.76,6.29-2.64,11.59-7.18,15.18-12.98,7.51-12.16,9.25-39.17,19.34-49.3,6.81-6.93,11.08-8.01,20.54-10.25,48.63-11.53,100.5-27.05,126.06-70,3.61-5.97,6.68-13.94,2.66-19.75Z"/>
  </g>
  <path class="cls-11" d="M1125.18,808.8c.71,0,2.41,5.39,4.15,15.72,1.14,6.32,1.8,12.71,1.99,19.13.36,8.74-.75,17.48-3.28,25.85-3.28,10.41-9.34,19.74-17.51,26.97-9.46,8.46-21.32,13.77-33.94,15.19-14.03,1.42-28.12-1.94-40-9.54-6.35-3.94-11.89-9.05-16.31-15.06-5.2-6.72-7.52-15.22-6.47-23.65.71-4.49,2.67-8.68,5.64-12.11,3.18-3.67,7.62-6.02,12.45-6.6,4.55-.48,9.14.48,13.11,2.74,3.77,2.1,6.93,5.15,9.17,8.84,1.91,3.5,3.1,7.35,3.51,11.31.41,3.97.04,7.98-1.11,11.8-1.94,6.89-5.58,13.18-10.58,18.3-9.07,9.28-21.35,14.73-34.32,15.23-11.01.26-21.85-2.7-31.2-8.51-7.54-4.66-13.99-10.89-18.92-18.26-3.6-5.46-6.39-11.42-8.3-17.68-3.07-10.25-2.74-16.22-2.12-16.26.62-.04,1.95,5.52,6.06,14.81,2.47,5.55,5.62,10.78,9.38,15.56,4.87,6.23,10.95,11.39,17.88,15.19,8.2,4.55,17.52,6.69,26.89,6.18,10.49-.77,20.32-5.43,27.55-13.07,3.72-3.99,6.4-8.84,7.8-14.11,1.49-5.01.95-10.4-1.49-15.02-1.22-2.04-2.98-3.72-5.07-4.84-2.1-1.13-4.46-1.66-6.84-1.55-2.32.46-4.44,1.65-6.04,3.39-1.6,1.75-2.59,3.96-2.84,6.32-.52,5.62,1.15,11.22,4.65,15.64,3.61,4.93,8.1,9.15,13.24,12.45,6.68,4.3,14.24,7.05,22.12,8.03,7.88.99,15.89.2,23.42-2.32,7.54-2.52,14.41-6.69,20.11-12.22,5.7-5.53,10.1-12.27,12.85-19.72,2.68-7.54,4.19-15.45,4.48-23.45.37-7.14,0-13.44,0-18.59-.62-10.21-.91-16.02-.12-16.1Z"/>
  <path class="cls-11" d="M796.46,1117.02c.33.74-1.5,1.99-2.7,5.1-.71,1.88-1.02,3.89-.91,5.89.18,2.7.89,5.33,2.07,7.76,1.24,2.95,3.11,6.14,4.98,10.21,2.34,4.7,3.36,9.95,2.95,15.19-.42,3.14-1.57,6.14-3.36,8.76-1.59,2.28-3.38,4.42-5.35,6.39-3.65,3.61-6.97,7.26-6.88,9.42-.04,1.44.44,2.84,1.37,3.94,1.12,1.7,2.95,3.69,4.6,6.35,1.87,2.92,2.87,6.29,2.9,9.75-.02,3.02-.63,6.01-1.78,8.8-1.93,4.4-4.49,8.49-7.6,12.16-2.19,2.69-4.06,5.61-5.6,8.72-.97,1.98-1.37,4.19-1.16,6.38.2,2.2,1.01,4.29,2.32,6.06,1.91,2.53,4.15,2.78,4.15,3.61s-.5.79-1.75.95c-1.85.19-3.71-.29-5.23-1.37-2.4-1.64-4.23-3.97-5.27-6.68-.67-1.71-1.06-3.52-1.16-5.35-.05-2.05.21-4.09.79-6.06,2.12-8.3,8.79-14.77,11.08-21.87.58-1.65.86-3.39.83-5.14-.13-1.5-.66-2.93-1.54-4.15-.99-1.58-2.74-3.36-4.56-5.98-2.34-3.12-3.49-6.98-3.24-10.87.41-3.72,1.95-7.22,4.4-10.04,1.79-2.09,3.71-4.07,5.73-5.94,2.99-2.34,5.21-5.52,6.39-9.13.37-3.57-.13-7.17-1.45-10.5-1.24-3.61-2.86-7.26-3.86-10.96-1.1-3.5-1.39-7.2-.87-10.83.43-2.78,1.59-5.4,3.36-7.59,3.28-3.73,6.1-3.61,6.35-2.99Z"/>
  <path class="cls-11" d="M823.85,1120.13c.71-.29,2.12,1.2,4.15,4.15,2.79,4.29,5.1,8.89,6.89,13.69,2.96,7.48,4.1,15.56,3.32,23.57-.55,4.99-2.12,9.82-4.6,14.19-2.62,4.48-5.77,8.3-8.3,11.7-2.13,2.6-3.24,5.89-3.11,9.25.25,2.74,2.82,6.6,4.15,12.04.74,4.75.1,9.62-1.82,14.02-1.41,3.65-2.95,6.72-3.9,9.3-1.65,3.95-1.87,8.35-.62,12.45.99,2.66,2.69,3.82,2.36,4.56-.33.75-2.82,1-5.85-2.24-1.76-2.34-2.96-5.05-3.53-7.92-.57-2.87-.48-5.84.25-8.68.75-3.48,1.91-6.76,2.78-10.12,1.01-2.92,1.23-6.06.62-9.09-.54-1.7-1.23-3.36-2.07-4.94-1.21-2.39-2.1-4.93-2.65-7.55-.5-3.11-.25-6.3.75-9.3.92-2.69,2.21-5.24,3.82-7.59,2.95-4.4,6.02-7.85,8.01-11.12,1.92-3.14,3.23-6.62,3.86-10.25,1.05-6.65.78-13.45-.79-20-1.2-5.85-2.65-10.71-3.4-14.15-.75-3.44-.96-5.69-.29-5.98Z"/>
  <path class="cls-11" d="M1333.85,1193.16c0,.33-.79.5-1.95,0-1.69-.58-3.14-1.68-4.15-3.15-1.57-2.23-2.58-4.81-2.95-7.51-.41-3.3-.41-6.65,0-9.96.4-3.1.16-6.25-.7-9.25-.96-2.41-2.9-3.9-6.81-5.52-5.27-1.63-10.09-4.47-14.07-8.3-1.38-1.47-2.42-3.22-3.06-5.14-.64-1.91-.85-3.94-.64-5.94.64-3.36,2.06-6.53,4.15-9.25,1.17-1.42,2.06-3.06,2.61-4.81.09-.57.06-1.15-.09-1.71-.15-.56-.41-1.08-.78-1.53-1.78-2.86-6.02-6.18-9.09-10.45-5.22-7.27-8.11-15.95-8.3-24.9-.19-5.87,1.02-11.7,3.52-17.01,1.87-3.69,3.65-5.23,4.15-4.9,1.58.67-2.12,8.67,0,21.25,1.13,7.14,4.1,13.87,8.63,19.5,1.35,1.6,2.8,3.09,4.36,4.48,2.1,1.85,3.99,3.92,5.64,6.18,1.15,1.57,1.97,3.35,2.43,5.23.46,1.89.53,3.85.22,5.76-.73,3.25-2.15,6.3-4.15,8.96-1.11,1.36-1.94,2.92-2.45,4.6-.05.5.01,1.01.19,1.48.17.47.45.9.81,1.26,2.98,2.71,6.48,4.78,10.29,6.1,2.46,1.14,4.72,2.65,6.72,4.48,2.09,2.04,3.61,4.59,4.44,7.39.91,4.29.81,8.74-.29,12.99-.72,2.79-1.2,5.64-1.45,8.51-.15,1.98.06,3.98.62,5.89.58,3.32,2.45,4.48,2.12,5.27Z"/>
  <path class="cls-11" d="M1370.08,1179.59c-.33.46-2.82,0-5.11-3.73-1.24-2.15-2.07-4.52-2.45-6.97-.41-3-.62-6.02-.62-9.05.04-3.23-.2-6.44-.71-9.63-.24-1.47-.74-2.87-1.5-4.15-.3-.55-.7-1.04-1.16-1.45-.48-.52-1.02-.99-1.62-1.37-1.37-.91-3.24-1.87-5.39-3.24-2.96-1.69-5.29-4.32-6.6-7.47-.67-1.89-.88-3.91-.62-5.89.2-1.4.5-2.79.91-4.15.22-.81.39-1.65.5-2.49.1-.74.1-1.5,0-2.24-.94-3.63-2.86-6.94-5.56-9.55-2.86-3.07-6.31-6.06-9.38-9.71-5.42-6.64-8.35-14.96-8.3-23.53-.09-5.56,1.27-11.05,3.94-15.93,1.99-3.32,3.78-4.65,4.36-4.15,1.5.75-2.41,8.09-.71,19.67.94,6.53,3.83,12.62,8.3,17.47,2.58,2.74,5.98,5.39,9.55,9,4.28,3.98,7.26,9.16,8.55,14.85.3,1.66.4,3.34.29,5.02-.13,1.54-.43,3.05-.87,4.53-.79,2.53-.83,3.44-.71,3.73.53,1.03,1.36,1.88,2.37,2.45,1.54,1.08,3.49,2.2,5.56,3.78,2.24,1.68,4.05,3.87,5.27,6.39,1.09,2.24,1.75,4.65,1.95,7.14.27,3.78.09,7.59-.54,11.33-.95,4.6-1.17,9.31-.66,13.98.33,3.03,1.53,4.69.95,5.35Z"/>
  <path class="cls-11" d="M1037.55,1608.64c-.46.7-2.95-.46-7.47-.37-2.81.08-5.59.5-8.3,1.24-3.15.83-6.68,2.24-10.95,3.73-4.9,2-10.14,3.06-15.44,3.11-6.42-.2-12.65-2.21-17.97-5.81-10.91-7.01-18.76-17.88-29.05-24.11-4.71-2.98-10.2-4.5-15.77-4.35-5.69,0-11.66,1.12-17.8,1.62-6.09.71-12.26.18-18.13-1.58-5.11-1.6-9.85-4.19-13.94-7.64-5.98-4.81-10.16-11.51-11.83-19-1-5.27,0-8.3.58-8.3s1.41,2.69,3.41,6.84c2.81,5.77,7.11,10.68,12.45,14.23,3.58,2.38,7.56,4.11,11.74,5.11,4.83,1.05,9.82,1.17,14.69.33,6.16-1.09,12.38-1.87,18.63-2.32,7.61-.31,15.13,1.68,21.58,5.73,5.83,3.8,11.19,8.3,15.93,13.4,3.96,4.22,8.26,8.1,12.86,11.62,3.74,2.86,8.19,4.65,12.86,5.18,4.34.19,8.68-.32,12.87-1.49,3.97-1.07,8-1.86,12.07-2.37,3.26-.37,6.56-.19,9.75.54,5.64,1.5,7.64,4.15,7.22,4.65Z"/>
  <path class="cls-11" d="M1048.13,1564.9c-.54.67-2.82-.74-7.1-1.33-6.21-.51-12.47.37-18.3,2.58-4.5,1.57-9.09,2.89-13.74,3.94-6.09,1.48-12.48,1.09-18.34-1.12-6-2.9-11.24-7.16-15.31-12.45-3.41-4.53-7.55-8.47-12.24-11.66-4.67-2.22-9.95-2.78-14.98-1.62-5.98,1.2-12.04,1.95-18.13,2.24-10.97-.14-21.59-3.91-30.21-10.7-5.72-4.36-10.28-10.06-13.28-16.6-1.95-4.65-2.03-7.47-1.45-7.71.58-.25,2.24,1.99,5.06,5.56,3.92,4.93,8.66,9.14,14.02,12.45,7.68,4.82,16.62,7.26,25.69,7.01,5.58-.59,11.12-1.51,16.6-2.74,3.46-.64,6.99-.86,10.5-.67,3.97.23,7.85,1.35,11.33,3.28,5.84,3.76,10.94,8.57,15.02,14.19,2.99,4.16,6.84,7.62,11.29,10.17,4.07,1.73,8.56,2.22,12.9,1.41,4.56-.54,9-1.66,13.28-2.49,7.04-1.87,14.48-1.61,21.37.75,4.98,2.28,6.47,5.1,6.02,5.52Z"/>
  <path class="cls-11" d="M1396.59,1430.34c.46.67-1.58,2.53-3.32,6.72-.99,2.58-1.69,5.27-2.07,8.01-.5,3.2-.58,6.97-.87,11.49-.14,5.3-1.25,10.53-3.28,15.44-2.73,5.81-7.05,10.73-12.45,14.19-10.75,7.22-23.86,10.13-33.57,17.01-4.6,3.14-8.17,7.57-10.25,12.74-2.2,5.23-3.57,11.16-5.52,16.97-1.77,5.88-4.7,11.34-8.63,16.06-3.46,4.04-7.7,7.35-12.45,9.75-6.78,3.59-14.58,4.77-22.12,3.36-5.23-1.2-7.51-3.2-7.26-3.78.25-.58,3.03,0,7.64-.41,5.35-.26,10.58-1.7,15.31-4.22,4.73-2.52,8.84-6.06,12.04-10.35,2.86-4.03,4.93-8.56,6.1-13.36,1.43-6.09,3.18-12.1,5.23-18.01,2.73-7.12,7.55-13.25,13.82-17.59,5.8-3.83,12.04-6.95,18.59-9.29,5.44-1.99,10.71-4.4,15.77-7.22,4.12-2.3,7.52-5.69,9.83-9.79,1.91-3.92,3.17-8.13,3.73-12.45.59-4.07,1.46-8.09,2.61-12.04.89-3.11,2.29-6.06,4.15-8.71,3.44-4.23,6.68-5.1,6.97-4.52Z"/>
  <path class="cls-11" d="M1360.54,1403.32c.37.75-1.83,2.28-4.15,5.98-2.91,5.52-4.56,11.61-4.85,17.84-.34,4.74-.94,9.47-1.79,14.15-1.05,6.17-3.95,11.89-8.3,16.39-5.01,4.38-10.98,7.52-17.43,9.17-5.51,1.34-10.77,3.58-15.56,6.64-3.88,3.42-6.48,8.06-7.39,13.15-1.29,5.95-3.01,11.81-5.14,17.51-4.46,10.04-12.12,18.31-21.78,23.53-6.26,3.52-13.28,5.46-20.46,5.64-5.02,0-7.68-1.08-7.64-1.74.04-.67,2.66-1.24,7.09-2.45,6.09-1.67,11.84-4.36,17.01-7.97,7.47-5.12,13.24-12.34,16.6-20.74,1.71-5.38,3.1-10.85,4.15-16.39.78-3.42,1.96-6.73,3.52-9.88,1.79-3.57,4.36-6.68,7.51-9.13,5.76-3.9,12.19-6.72,18.96-8.3,5.01-1.1,9.72-3.27,13.82-6.35,3.17-3.07,5.39-6.99,6.39-11.28,1.33-4.4,2.03-8.92,2.95-13.2,1.11-7.2,4.29-13.92,9.17-19.34,4.03-3.57,7.3-3.82,7.3-3.24Z"/>
  <path class="cls-11" d="M946.09,997.85c-.86-.93-1.59-1.98-2.16-3.11-1.74-2.95-3.27-6.01-4.6-9.17-4.52-10.44-7.32-21.53-8.3-32.87-.91-11.33,0-22.73,2.69-33.77.78-3.34,1.81-6.61,3.07-9.79.36-1.21.89-2.37,1.58-3.44.37,0-1.45,5.18-3.15,13.57-4.55,21.97-2.67,44.79,5.39,65.72,3.2,8.01,5.81,12.66,5.48,12.87Z"/>
  <path class="cls-11" d="M963.4,1029.71c-.58,0-1.58-2.53-3.53-5.19-1.95-2.65-4.15-4.44-3.82-4.98.33-.54,3.28.58,5.56,3.69,2.28,3.11,2.37,6.39,1.79,6.47Z"/>
  <path class="cls-11" d="M669.95,1213.99c-.58-1.18-1-2.44-1.24-3.73-.96-3.45-1.64-6.98-2.03-10.54-.65-5.27-.86-10.59-.62-15.89.37-6.5,1.33-12.96,2.86-19.29,1.65-6.3,3.87-12.44,6.64-18.34,2.27-4.81,4.96-9.41,8.05-13.74,2.02-2.94,4.26-5.72,6.72-8.3.84-1.02,1.82-1.93,2.9-2.7.29.29-3.53,4.36-8.3,11.83-2.83,4.4-5.34,8.99-7.51,13.74-5.29,11.65-8.43,24.16-9.29,36.93-.36,5.21-.36,10.44,0,15.64.83,8.88,2.24,14.27,1.82,14.4Z"/>
  <path class="cls-11" d="M693.81,1248.06c-3.88-1.84-7.3-4.52-10.02-7.84-2.72-3.32-4.67-7.2-5.71-11.37.58-.25,3.07,4.73,7.39,10,4.32,5.27,8.71,8.54,8.34,9.21Z"/>
  <path class="cls-11" d="M907.92,1501.71c1.9-4.26,4.04-8.42,6.39-12.45,4.15-7.59,9.25-18.21,14.94-30,5.69-11.79,10.91-22.45,14.98-30.04,1.99-4.21,4.35-8.24,7.05-12.04-1.61,4.36-3.52,8.6-5.73,12.7l-14.36,30.33c-5.69,11.79-11.16,22.37-15.56,29.79-2.16,3.69-4.15,6.64-5.39,8.63-1.24,1.99-1.99,3.15-2.32,3.07Z"/>
  <path class="cls-11" d="M901.69,1649.72c-2.3-1.63-4.28-3.67-5.85-6.02-8.27-10.94-12.73-24.29-12.7-38.01-.17-2.8.18-5.62,1.04-8.3-.37,18.94,5.82,37.42,17.51,52.32Z"/>
  <path class="cls-11" d="M1062.57,1387.39c-2.25-2.3-3.97-5.06-5.06-8.09-1.35-3.21-2.33-6.56-2.91-10-1.35-8.5-.42-17.21,2.7-25.23,1.3-3.24,2.97-6.32,4.98-9.17,1.72-2.72,4-5.03,6.68-6.81.25.29-2.37,2.78-5.4,7.68-3.92,6.37-6.37,13.53-7.18,20.97-.81,7.44.06,14.96,2.53,22.02,1.95,5.39,3.98,8.42,3.65,8.63Z"/>
  <path class="cls-11" d="M1055.84,1282.58c-1.79-1.86-3.14-4.1-3.94-6.56-2.28-5.83-3.16-12.11-2.57-18.34.54-6.23,2.56-12.25,5.89-17.55,1.23-2.27,2.96-4.23,5.06-5.73-1.11,2.25-2.35,4.42-3.73,6.51-2.82,5.26-4.55,11.02-5.1,16.96-.55,5.94.1,11.92,1.91,17.6.98,2.31,1.81,4.68,2.49,7.1Z"/>
  <path class="cls-3" d="M1187.96,1065.48c-5.39-6.43-11.33-13.24-19.46-15.43-10.71-2.86-21.5,2.99-31.33,8.01-42.03,21.38-89.11,30.86-136.14,27.43-14.94-3.53-16.02-7.68-27.47-1.7-5.61,3.28-10.48,7.68-14.3,12.94-3.82,5.26-6.51,11.25-7.9,17.6-2.67,8.52-2.16,17.72,1.45,25.9,4.61,7.48,11.36,13.4,19.38,17.01,3.11,1.7,6.31,3.28,9.5,4.77-5.48,19.34-10.79,41.99-16.6,56.72-2.73,5.35-3.81,11.39-3.11,17.35,1.66,7.72,8.8,12.82,15.35,17.14,9.21,6.1,20.37,12.45,30.66,8.3,8.88-3.49,13.24-13.28,16.6-22.16,7.94-20.17,15.84-40.33,23.69-60.5,12.75.81,25.54.27,38.17-1.62,39.29-6.05,75.57-24.65,103.41-53.03,6.51-6.64,12.74-14.36,13.9-23.61,1.82-13.15-7.26-25.02-15.81-35.11Z"/>
  <path class="cls-11" d="M1019.91,1246.1c-2.97-.07-5.91-.53-8.76-1.37-6.96-1.6-13.77-3.76-20.37-6.47-6.64-2.72-12.94-6.22-18.76-10.41-2.52-1.6-4.73-3.62-6.56-5.98,8.29,5.53,17.04,10.35,26.14,14.4,15.27,6.26,28.67,9.13,28.3,9.83Z"/>
  <path class="cls-11" d="M1032.94,1219.3c-3.19-.04-6.35-.5-9.42-1.37-14.95-3.23-29.49-8.1-43.36-14.52-2.95-1.16-5.74-2.69-8.3-4.56,3.09.75,6.09,1.8,8.96,3.15,5.39,2.12,12.95,4.98,21.37,7.8,8.42,2.82,16.14,5.06,21.75,6.64,3.09.65,6.1,1.61,9,2.86Z"/>
  <path class="cls-11" d="M1041.4,1194.49c-3.28.13-6.56-.19-9.75-.95-15.52-2.88-30.59-7.76-44.85-14.52-2.97-1.27-5.76-2.93-8.3-4.94,3.13.9,6.17,2.08,9.09,3.53,5.56,2.32,13.32,5.23,21.99,8.05,8.67,2.82,16.6,4.98,22.53,6.39,3.16.56,6.27,1.38,9.29,2.45Z"/>
  <path class="cls-11" d="M981.07,1157.14c-.53-.85-.9-1.79-1.08-2.78-.8-2.61-1.4-5.27-1.78-7.97-1.3-8.96-1.03-18.06.79-26.93,1.8-8.81,5.15-17.24,9.88-24.9,1.4-2.33,2.98-4.55,4.73-6.64,1.24-1.49,1.99-2.24,2.12-2.16.12.08-2.28,3.61-5.56,9.54-4.23,7.8-7.28,16.2-9.05,24.9-1.76,8.64-2.23,17.49-1.37,26.27.66,6.47,1.7,10.58,1.33,10.66Z"/>
  <path class="cls-11" d="M1028.21,1168.05c-.58-.91-1.02-1.9-1.29-2.95-.93-2.72-1.69-5.49-2.28-8.3-4.1-18.95-2.74-38.68,3.94-56.89.96-2.75,2.11-5.42,3.44-8.01.92-1.87,1.5-2.82,1.66-2.78.17.04-1.49,4.15-3.65,11.25-5.72,18.11-7.04,37.33-3.86,56.06,1.16,7.14,2.41,11.5,2.03,11.62Z"/>
  <path class="cls-11" d="M1074.85,1172.95c-1.79-3.98-3.11-8.16-3.94-12.45-5.11-20.54-7.15-41.72-6.06-62.86.02-4.38.52-8.75,1.49-13.03.25,4.35.25,8.72,0,13.07-.1,10.48.35,20.97,1.33,31.41,1.04,10.43,2.6,20.81,4.69,31.08,1.06,4.21,1.89,8.48,2.49,12.78Z"/>
  <path class="cls-11" d="M1129.12,1156.77c-1.89-3.72-3.46-7.59-4.69-11.58-2.95-7.8-6.56-17.47-10.54-28.13-3.98-10.66-7.97-20.17-11-27.97-1.71-3.78-3.1-7.69-4.15-11.7,2.22,3.53,4.13,7.25,5.69,11.12,3.2,7.01,7.34,16.8,11.58,27.8,4.23,11,7.68,21.04,10,28.38,1.38,3.93,2.41,7.97,3.11,12.08Z"/>
  <path class="cls-11" d="M1171.69,1140.75c-.33,0-1.45-4.9-3.82-12.7-3.05-10.17-6.9-20.09-11.49-29.67-4.67-9.53-10.05-18.7-16.1-27.43-2.72-3.49-5.26-7.12-7.6-10.87,0,0,1.04.79,2.57,2.49,1.54,1.7,3.74,4.15,6.23,7.47,13.06,17.16,22.55,36.78,27.88,57.67.99,4.15,1.66,7.26,1.99,9.55.31,1.13.42,2.31.33,3.48Z"/>
  <path class="cls-9" d="M1072.19,1177.52c-1.35.44-2.74.71-4.15.83-2.61.41-6.47.79-11.2,1.04-12.43.55-24.88-.35-37.1-2.69-12.22-2.37-24.12-6.19-35.43-11.37-3.42-1.54-6.76-3.26-10-5.15-2.28-1.37-3.52-2.16-3.44-2.32.08-.17,5.35,2.45,14.07,6.1,11.37,4.68,23.17,8.23,35.23,10.62,12.08,2.3,24.35,3.39,36.64,3.28,9.5-.33,15.35-.87,15.39-.33Z"/>
  <path class="cls-5" d="M1681.03,521.25c1.87,5.39-4.73,12.45-10.08,14.4-1.91.74-3.97.99-5.99.74-2.03-.25-3.97-.99-5.64-2.16-1.67-1.17-3.03-2.74-3.95-4.56-.92-1.82-1.39-3.85-1.35-5.89,0-5.69,8.01-19.25,13.36-21.08,5.35-1.82,11.79,13.15,13.65,18.55Z"/>
  <path class="cls-6" d="M1681.03,521.25c1.87,5.39-4.73,12.45-10.08,14.4-1.91.74-3.97.99-5.99.74-2.03-.25-3.97-.99-5.64-2.16-1.67-1.17-3.03-2.74-3.95-4.56-.92-1.82-1.39-3.85-1.35-5.89,0-5.69,8.01-19.25,13.36-21.08,5.35-1.82,11.79,13.15,13.65,18.55Z"/>
  <path class="cls-5" d="M1460.37,298.67c-18.88,23.61-6.18,38.96,19.84,49.38-2.7-7.64-.67-16.6,7.88-27.3,45.14-56.35,174.28-111.2,103.94-191.37-6.54-7.61-14.77-13.59-24.03-17.47,61.58,77.68-63.36,131.54-107.64,186.76Z"/>
  <path class="cls-5" d="M1130.66,494.36c-44.81,18.55-91.62,30.25-124.86,16.6,30.13,42.49,93.07,29.88,152.58,5.31,30.46-12.45,50.62-21.7,64.98-22.2-14.65-34.65-35.44-23.4-92.7.29Z"/>
  <path class="cls-5" d="M1574.81,557.84c-39.21-9.83-74.9-25.44-90.79-31.66-39.09-15.27-60.58-31.2-57.09,21.16,3.48,52.37,48.8,241.29-106.68,237.8-13.35-.02-26.58-2.65-38.92-7.76,12.99,17.76,33.82,29.05,66.64,29.79,155.48,3.53,110.17-185.44,106.68-237.8-3.48-52.37,18.01-36.43,57.1-21.12,11.2,4.4,32.32,13.44,57.55,21.87,1.24-3.85,2.86-7.58,4.81-11.12.21-.41.5-.75.71-1.16Z"/>
  <path class="cls-5" d="M1341.7,180.12s12.45-12.45,32.24-28.51c-1.91-35.6-14.48-56.47-14.48-56.47-13.28-30-31.87-49.34-52.74-61.08,10.37,11.57,18.78,24.76,24.9,39.05,0,0,25.23,41.25,10.08,107.01Z"/>
  <path class="cls-6" d="M1460.37,298.67c-18.88,23.61-6.18,38.96,19.84,49.38-2.7-7.64-.67-16.6,7.88-27.3,45.14-56.35,174.28-111.2,103.94-191.37-6.54-7.61-14.77-13.59-24.03-17.47,61.58,77.68-63.36,131.54-107.64,186.76Z"/>
  <path class="cls-6" d="M1130.66,494.36c-44.81,18.55-91.62,30.25-124.86,16.6,30.13,42.49,93.07,29.88,152.58,5.31,30.46-12.45,50.62-21.7,64.98-22.2-14.65-34.65-35.44-23.4-92.7.29Z"/>
  <path class="cls-6" d="M1574.81,557.84c-39.21-9.83-74.9-25.44-90.79-31.66-39.09-15.27-60.58-31.2-57.09,21.16,3.48,52.37,48.8,241.29-106.68,237.8-13.35-.02-26.58-2.65-38.92-7.76,12.99,17.76,33.82,29.05,66.64,29.79,155.48,3.53,110.17-185.44,106.68-237.8-3.48-52.37,18.01-36.43,57.1-21.12,11.2,4.4,32.32,13.44,57.55,21.87,1.24-3.85,2.86-7.58,4.81-11.12.21-.41.5-.75.71-1.16Z"/>
  <path class="cls-6" d="M1341.7,180.12s12.45-12.45,32.24-28.51c-1.91-35.6-14.48-56.47-14.48-56.47-13.28-30-31.87-49.34-52.74-61.08,10.37,11.57,18.78,24.76,24.9,39.05,0,0,25.23,41.25,10.08,107.01Z"/>
  <path class="cls-5" d="M1426.93,547.34c-3.49-52.37,18.01-36.43,57.09-21.16,15.89,6.22,51.58,21.83,90.79,31.66,2.94-4.97,6.7-9.4,11.12-13.11-23.98-4.86-47.63-14.07-69.71-21.91-20-7.09-39.92-14.61-60.17-21.04-10.04-3.2-30.75-12.78-39.63-4.15-11.79,11.53-11.41,39.87-12.03,54.69-.87,21.07-.12,42.17,2.24,63.11,2.03,18.01,5.98,34.65,3.94,52.9-2.38,23.22-10.11,45.58-22.57,65.31-21.29,32.9-60.21,45.23-93.61,21.25-32.7-23.44-42.16-61.53-44.98-99.3-3.03-41.08-1.62-82.37-.7-123.48.83-35.89-1.33-84.61-48.13-89.34-22.57-2.24-45.31,9.29-65.19,18.63-18.84,8.84-37.34,18.42-56.51,26.52-30.17,12.74-67.89,21.58-86.35-14.27-18.46-35.85,7.3-73.9,35.68-94.52,33.19-24.15,71.5-38.46,108.55-55.31l49.21-23.2c-17.97-7.57-35.05-17.12-50.91-28.46-30.58-21.33-58.09-46.51-67.93-83.69-22.82-87.68,51.5-180.46,143.11-173.15,88.55,7.1,119.46,96.22,121.04,174.94.46.44.83.98,1.07,1.57.24.59.36,1.23.34,1.87-.09,3.76-.4,7.52-.92,11.25,1.2.62,2.45,1.24,3.61,1.91,6.12-4.34,12.17-8.76,18.18-13.24,36.14-26.68,68.59-61.54,109.92-80.17,29.26-13.2,75.56-24.19,94.52,10.95,17.84,33.2-15.02,71.12-37.34,92.57-25.85,24.9-58.09,42.28-80.38,71-11.91,15.31-22.03,36.02-10.37,54.36,11.66,18.34,36.14,27.47,55.85,33.44,21.9,6.5,44.46,10.51,67.26,11.95-.56-7.79.47-15.61,3.03-22.99-27.63-3.61-55.73-8.71-75.85-16.6-26.02-10.41-38.72-25.77-19.84-49.38,44.28-55.23,169.22-109.09,107.68-186.72-1.2-1.54-2.36-3.07-3.73-4.61-49.59-56.51-141.57,4.56-190.38,44.32-19.63,15.98-32.24,28.51-32.24,28.51,15.15-65.77-9.96-107.01-9.96-107.01-7.01-15.85-13.98-30.33-24.89-39.05-62.24-49.25-138.01-37.34-178.01-13.65-43.07,25.48-99.26,77.76-74.69,172.62,8.72,36.03,31.4,67.11,63.03,86.43,20.75,12.74,32.41,19.67,32.41,19.67,0,0,2.57-1.62-4.15,2.78-17.4,10.86-35.5,20.57-54.19,29.05-52.24,24.9-144.52,45.93-127.6,123.53,6.72,30.87,21.91,48.34,42.08,56.51,33.19,13.49,80.04,1.79,124.86-16.6,57.26-23.69,78.05-34.94,92.7,0,4.58,11.83,8.13,24.03,10.62,36.47,14.98,67.39-32.61,211.62,47.35,246.68,12.34,5.11,25.57,7.74,38.92,7.76,155.56,3.2,110.25-185.77,106.77-238.09Z"/>
  <path class="cls-5" d="M1343.52,280.12c14.73-20.75,8.63-45.64-9.21-60.08-2.08,1.45-4.15,2.95-6.23,4.4-.28.2-.58.35-.91.46-9.01,25.66-26.73,47.35-50.08,61.29,19.83,17.51,50.25,16.85,66.43-6.06Z"/>
  <path class="cls-5" d="M1197.17,306.47c6.39,20.75,13.65,51.25,41.04,42.57,21.37-6.81,21.99-35.52,25.73-55.93-18.95,8.74-39.93,12.13-60.66,9.79-.42.65-1.01,1.16-1.7,1.49l-4.4,2.07Z"/>
  <path class="cls-6" d="M1439.75,340.29c-11.66-18.34-1.54-39.09,10.37-54.36,22.45-28.71,54.53-46.18,80.54-71.08,22.33-21.49,55.23-59.46,37.34-92.61-18.96-35.1-65.27-24.11-94.52-10.91-41.49,18.63-73.78,53.44-109.92,80.17-6.02,4.44-12.07,8.88-18.17,13.24,3.02,1.84,5.86,3.95,8.5,6.31,21.58-15.48,42.82-31.54,63.2-48.51,30.91-25.73,69.09-58.09,112.57-53.69,23.28,2.24,37.92,22.2,31.41,45.19-5.77,20.46-21.53,37.97-36.35,52.57-23.28,22.99-52.12,39.3-74.36,63.69-18.55,20.33-36.02,50.04-18.26,76.39,19.71,29.3,64.03,39.38,96.39,44.9,8.63,1.76,17.38,2.89,26.18,3.4-.87-3.34-1.41-6.76-1.62-10.21-19.51-1.16-38.78-4.9-57.3-11.12-19.88-5.89-44.4-15.06-56.02-33.36Z"/>
  <path class="cls-11" d="M1429.91,342.4c-11.66-18.34-1.54-39.05,10.37-54.36,22.45-28.71,54.53-46.1,80.38-71,22.32-21.45,55.18-59.42,37.34-92.57-18.96-35.15-65.27-24.15-94.52-10.95-41.49,18.63-73.78,53.49-109.92,80.17-6.03,4.48-12.09,8.89-18.18,13.24,3.04,1.84,5.89,3.95,8.55,6.31,21.58-15.48,42.78-31.49,63.19-48.46,30.91-25.73,69.05-58.09,112.53-53.94,23.32,2.28,37.97,22.24,31.45,45.19-5.77,20.46-21.53,37.97-36.35,52.61-23.28,22.95-52.12,39.29-74.36,63.65-18.55,20.37-36.02,50.04-18.26,76.39,19.71,29.3,64.02,39.42,96.39,44.9,11.99,2.03,24.08,3.41,36.22,4.15-.88-3.33-1.45-6.73-1.7-10.17-22.8-1.44-45.36-5.45-67.26-11.95-19.75-5.73-44.28-14.9-55.89-33.2Z"/>
  <path class="cls-10" d="M1445.64,494.69c-8.92-2.03-18.79-4.15-26.59,1.78-9.13,7.01-12.16,20.75-14.19,31.54-6.72,35.23-4.94,73.73.54,109.05,6.26,40.46-1.16,94.98-37.88,120.58-44.61,31.08-89.13-22.33-97.14-62.91-7.51-37.76-5.93-77.92-5.31-116.18.41-26.56,5.02-56.18-.5-82.41-7.68-36.31-38.59-60.75-75.97-53.94-37.39,6.81-71.08,30.04-105.44,44.61-14.36,6.02-32.99,14.61-48.92,11.12-25.31-5.48-34.44-33.44-28.3-56.01,11.74-43.12,62.98-65.1,99.88-82.24,14.27-6.6,29.04-12.45,43.23-18.71l48.38-22.82c-.31-3.06-.42-6.14-.33-9.21-1.66-.41-3.28-.83-4.94-1.33-.63-.22-1.16-.66-1.48-1.24-.33-.58-.42-1.26-.27-1.91.15-.65.53-1.22,1.08-1.6.55-.38,1.21-.55,1.88-.47,4.61.66,9.21,1.08,13.86,1.29-15.41-5.34-30.14-12.46-43.9-21.2-28.51-17.22-59.3-39.71-73.28-70.91-7.87-17.9-11.28-37.45-9.95-56.96,1.34-19.51,7.39-38.41,17.62-55.07,23.36-37.34,60.5-65.23,105.93-66.14,60.13-1.24,98.01,37.8,113.65,92.86,7.3,26.05,11.02,52.98,11.04,80.04.33-1.7.71-3.44.99-5.19.24-.93.73-1.77,1.4-2.45.68-.68,1.52-1.16,2.44-1.41.92-.24,1.9-.24,2.82.02.92.26,1.76.75,2.43,1.44-1.58-78.84-32.49-167.84-121.04-174.9-91.62-7.34-165.98,85.44-143.11,173.11,9.67,37.34,37.34,62.24,67.92,83.69,15.86,11.36,32.93,20.91,50.92,28.46l-49.26,23.2c-37.05,16.85-75.31,31.16-108.51,55.31-28.38,20.75-53.94,58.96-35.73,94.52,18.22,35.56,56.18,27.01,86.39,14.27,19.17-8.3,37.64-17.68,56.51-26.52,19.88-9.3,42.57-20.75,65.19-18.59,46.77,4.69,48.92,53.41,48.13,89.3-.91,41.12-2.37,82.45.71,123.48,2.82,37.76,12.45,75.85,44.98,99.34,33.4,23.94,72.32,11.62,93.61-21.25,12.47-19.75,20.2-42.12,22.57-65.35,2.03-18.26-1.95-34.9-3.94-52.86-2.37-20.96-3.11-42.08-2.24-63.15.62-14.81.25-43.16,12.04-54.69,8.88-8.67,29.58.87,39.62,4.15,20.25,6.43,40.12,13.99,60.17,21.08,22.08,7.8,33.2,14.07,57.1,18.92,4.15-3.57,5.1-7.09,10.25-8.84-18.42-2.7-20.12-4.73-35.93-9.88-36.27-11.99-71.87-28.34-109.13-36.8Z"/>
  <path class="cls-11" d="M1438.58,486.39c-8.92-2.03-18.84-4.15-26.64,1.75-9.09,7.05-12.16,20.74-14.19,31.54-6.68,35.27-4.94,73.78.54,109.09,6.31,40.46-1.16,94.98-37.89,120.54-44.61,31.08-89.09-22.28-97.14-62.86-7.47-37.8-5.89-77.92-5.31-116.18.41-26.52,5.02-56.14-.5-82.37-7.64-36.31-38.55-60.79-75.98-53.94-37.43,6.85-71.04,29.88-105.43,44.4-14.32,6.06-32.99,14.64-48.92,11.16-25.31-5.52-34.44-33.45-28.3-56.02,11.74-43.11,62.95-65.1,99.88-82.24,14.27-6.6,29.05-12.45,43.24-18.71l48.42-22.82c-.33-3.07-.45-6.16-.37-9.25-1.62-.41-3.28-.83-4.94-1.33-.69-.16-1.28-.6-1.65-1.2-.37-.6-.48-1.33-.32-2.02.16-.69.59-1.28,1.2-1.65.6-.37,1.33-.48,2.01-.32,4.56.66,9.21,1.08,13.86,1.29-15.41-5.32-30.14-12.43-43.9-21.16-28.47-17.22-59.3-39.71-73.28-70.91-7.86-17.91-11.27-37.45-9.93-56.96,1.34-19.51,7.38-38.41,17.61-55.07,23.36-37.34,60.5-65.19,105.93-66.1,60.13-1.24,98.01,37.76,113.7,92.82,7.27,26.08,10.97,53.01,11,80.08.37-1.7.71-3.44.99-5.19.24-.93.73-1.77,1.4-2.45.68-.68,1.52-1.16,2.44-1.41.92-.24,1.89-.24,2.82.02.92.26,1.76.75,2.43,1.44-1.57-78.84-32.49-167.84-121.04-174.94-91.62-7.3-165.98,85.48-143.11,173.15,9.71,37.34,37.35,62.24,67.93,83.69,15.87,11.34,32.94,20.89,50.92,28.46l-49.22,23.2c-37.05,16.85-75.35,31.16-108.55,55.31-28.38,20.74-53.94,58.96-35.68,94.52,18.26,35.56,56.18,27.01,86.35,14.27,19.17-8.3,37.68-17.68,56.51-26.51,19.88-9.34,42.61-20.75,65.19-18.63,46.81,4.73,48.96,53.45,48.13,89.34-.91,41.12-2.32,82.41.7,123.49,2.82,37.76,12.45,75.85,44.98,99.29,33.4,23.99,72.33,11.66,93.61-21.25,12.47-19.74,20.19-42.09,22.57-65.31,2.03-18.26-1.91-34.9-3.94-52.9-2.36-20.95-3.11-42.05-2.24-63.11.62-14.82.25-43.16,12.03-54.69,8.88-8.71,29.59.87,39.63,4.15,20.25,6.43,40.17,13.94,60.17,21.04,22.08,7.84,45.65,17.05,69.71,21.91,4.22-3.58,9.08-6.32,14.32-8.09-17.88-3.04-35.46-7.6-52.57-13.61-36.35-11.91-71.91-28.26-109.17-36.72Z"/>
  <path class="cls-11" d="M1322.19,192.73c-.29,1.74-.62,3.49-.99,5.19-6.27,30.79-19.09,58.09-45.65,76.85-22.13,14.93-48.58,22.13-75.23,20.46-4.65-.21-9.29-.62-13.86-1.29-.69-.16-1.41-.05-2.02.32-.6.37-1.04.96-1.2,1.65-.16.69-.05,1.41.32,2.02.37.6.96,1.03,1.65,1.2,1.66.5,3.32.91,4.94,1.33v-.25c0-.59.21-1.17.59-1.62.38-.45.92-.75,1.5-.85.58-.09,1.18.02,1.69.33.5.31.89.79,1.07,1.35l.79,2.28c2.53.5,5.06.91,7.64,1.2,20.74,2.34,41.72-1.05,60.66-9.79.41-2.49.95-4.96,1.62-7.39.22-.84.65-1.61,1.26-2.23.6-.63,1.35-1.09,2.19-1.34.83-.25,1.71-.29,2.56-.11.85.18,1.64.58,2.29,1.15,1,1.05,2.03,2.05,3.11,2.99,23.4-13.92,41.17-35.61,50.21-61.29.91-2.74,1.7-5.52,2.4-8.3-1.7-1.14-3.48-2.16-5.31-3.07-6.43-3.15-1.24-12.45,5.15-9.71.83.37,1.58.83,2.37,1.2.52-3.73.82-7.48.91-11.25.02-.64-.1-1.28-.34-1.87-.24-.59-.61-1.13-1.07-1.57-.66-.73-1.51-1.27-2.46-1.55-.95-.28-1.95-.3-2.9-.05-.95.25-1.82.75-2.51,1.46s-1.17,1.59-1.39,2.55Z"/>
  <path class="cls-11" d="M1329.42,203.81c-6.39-2.86-11.58,6.56-5.15,9.71,1.84.91,3.61,1.93,5.31,3.07,1.65,1.04,3.23,2.19,4.73,3.44,17.84,14.52,23.94,39.42,9.21,60.08-16.27,22.9-46.6,23.57-66.39,6.06-1.08-.94-2.12-1.94-3.11-2.99-.65-.57-1.44-.97-2.29-1.15-.85-.18-1.73-.15-2.56.11-.83.25-1.58.72-2.19,1.34-.61.63-1.04,1.39-1.26,2.23-.67,2.43-1.21,4.9-1.62,7.39-3.73,20.41-4.35,49.13-25.73,55.93-27.39,8.67-34.65-21.87-41.04-42.57-.5-1.66-1.04-3.24-1.54-4.77l-.79-2.28c-.18-.56-.56-1.04-1.07-1.35-.51-.31-1.11-.43-1.69-.33-.59.09-1.12.4-1.5.85-.38.45-.59,1.03-.59,1.62v.25c-.08,3.09.04,6.18.37,9.25,2.44,23.4,16.6,51.33,42.57,50.46,32.04-1.12,35.23-38.42,40.5-63.82,11.06,8.86,25.14,13.06,39.25,11.71,14.11-1.35,27.14-8.15,36.32-18.95,9.18-10.8,13.79-24.75,12.85-38.89-.94-14.14-7.35-27.36-17.88-36.85-2.64-2.35-5.49-4.47-8.51-6.31-1.16-.66-2.41-1.29-3.61-1.91-1.2-.62-1.78-.95-2.61-1.33Z"/>
  <path class="cls-5" d="M1310.2,117.84c-15.69-55.06-53.41-93.86-113.7-92.82-45.64.91-82.57,28.71-105.94,66.1-10.23,16.67-16.27,35.56-17.6,55.07-1.34,19.51,2.07,39.05,9.93,56.96,13.98,31.2,44.81,53.69,73.28,70.91,13.76,8.74,28.49,15.84,43.9,21.16,26.65,1.67,53.09-5.52,75.23-20.46,26.72-18.8,39.55-46.06,45.65-76.85.05-27.06-3.57-54-10.75-80.08ZM1154.85,193.81c-2.33.78-4.84.84-7.21.2-2.37-.65-4.5-1.98-6.11-3.83-1.61-1.85-2.64-4.14-2.96-6.58-.31-2.44.1-4.91,1.19-7.11,1.09-2.2,2.81-4.03,4.94-5.26,2.13-1.23,4.57-1.8,7.02-1.64,2.45.16,4.8,1.04,6.75,2.53,1.95,1.49,3.42,3.53,4.22,5.85.53,1.56.76,3.2.65,4.84-.11,1.64-.54,3.24-1.27,4.72-.73,1.47-1.74,2.79-2.98,3.87-1.24,1.08-2.68,1.9-4.24,2.42ZM1243.23,128.21c-2.33.78-4.84.84-7.21.2-2.37-.65-4.5-1.98-6.11-3.83-1.61-1.85-2.64-4.14-2.96-6.58-.31-2.44.1-4.91,1.19-7.11,1.09-2.2,2.81-4.03,4.93-5.26,2.13-1.23,4.58-1.8,7.03-1.64,2.45.16,4.8,1.04,6.75,2.53,1.95,1.49,3.42,3.53,4.22,5.85.53,1.56.76,3.2.65,4.84-.11,1.64-.54,3.24-1.27,4.72-.73,1.47-1.74,2.79-2.98,3.87-1.24,1.08-2.68,1.9-4.24,2.42Z"/>
  <path class="cls-5" d="M1623.86,443.07c-25.85,1.2-52.9-11.58-64.98-34.48-1.78-3.44-3.17-7.05-4.15-10.79-12.14-.74-24.23-2.12-36.23-4.15-32.37-5.48-76.68-15.6-96.39-44.9-17.76-26.35-.29-56.02,18.26-76.39,22.24-24.36,51.08-40.71,74.36-63.65,14.81-14.65,30.58-32.16,36.35-52.61,6.51-22.95-8.3-42.9-31.45-45.19-43.49-4.15-81.62,28.01-112.53,53.94-20.41,16.97-41.49,32.99-63.19,48.47,10.53,9.49,16.94,22.71,17.88,36.85.94,14.14-3.67,28.09-12.85,38.89-9.18,10.8-22.21,17.6-36.32,18.95-14.11,1.35-28.19-2.85-39.25-11.71-5.27,25.39-8.3,62.7-40.5,63.82-26.02.87-40.12-27.05-42.57-50.46l-48.42,22.82c-14.32,6.47-29.05,12.12-43.24,18.71-36.89,17.14-88.13,39.13-99.88,82.24-6.14,22.57,2.99,50.5,28.3,56.02,15.93,3.49,34.61-5.1,48.92-11.16,34.4-14.52,68.21-37.97,105.43-44.61,37.22-6.64,68.34,17.8,75.98,53.94,5.52,26.22.91,55.85.5,82.37-.58,38.3-2.16,78.42,5.31,116.18,8.05,40.58,52.53,93.94,97.14,62.87,36.72-25.56,44.19-80.09,37.89-120.54-5.48-35.31-7.26-73.82-.54-109.09,2.03-10.58,5.11-24.48,14.19-31.54,7.8-6.02,17.72-3.78,26.64-1.74,37.34,8.3,72.82,24.9,109.09,36.64,17.11,6.01,34.7,10.57,52.58,13.61,5.14-1.83,10.65-2.41,16.06-1.7-24.61-24.4-20.79-71.2,7.64-91.62ZM1347.42,393.28c-2.18,2.81-4.91,5.15-8.02,6.89-3.11,1.74-6.53,2.83-10.07,3.22-3.54.39-7.12.06-10.53-.96-3.41-1.02-6.57-2.72-9.31-4.99-10.45-9.62-13.69-24.36-4.98-36.22l.21-.25c4.36-4.75,10.21-7.88,16.58-8.86,6.38-.98,12.9.24,18.48,3.47,5.94,4.05,10.07,10.26,11.49,17.31,1.43,7.05.04,14.37-3.86,20.41Z"/>
  <path class="cls-5" d="M1664.52,383.86s-8.96,20.75-5.89,29.71c3.07,8.96,33.48,3.9,33.48,3.9,0,0,9.13-32.49-27.59-33.61Z"/>
  <g class="cls-12">
    <path class="cls-1" d="M1664.52,383.85s-8.96,20.75-5.89,29.71c3.07,8.96,33.48,3.9,33.48,3.9,0,0,9.13-32.49-27.59-33.61Z"/>
  </g>
  <path class="cls-5" d="M1674.02,380.83c-5.73-2.86-12.45,2.28-13.94,8.55-1.66,7.64-4.15,16.1.62,18.8,8.3,4.65,27.84,2.28,27.84,2.28,0,0,11.62-16.39-14.52-29.63Z"/>
  <path class="cls-5" d="M1678.05,516.68c1.87,5.39-4.69,12.45-10.08,14.4-1.28.44-2.64.63-3.99.55-1.35-.08-2.68-.43-3.89-1.02-1.22-.59-2.31-1.42-3.2-2.44-.9-1.02-1.58-2.2-2.03-3.48-1.87-5.35,5.27-20,10.62-21.82,5.35-1.83,10.75,8.47,12.57,13.82Z"/>
  <g class="cls-12">
    <path class="cls-1" d="M1379.33,235.89c-4.77-2.55-9.1-5.84-12.82-9.75-7.26-9.5-3.61-24.9-12.2-33.2-3.12-2.54-6.92-4.1-10.93-4.46-4.01-.36-8.03.48-11.56,2.43-8.72,4.45-16.45,10.62-22.74,18.13-14.73,19.85-25.7,42.22-32.37,66.02-26.14-5.27-54.81-2.49-79.21,2.95-9.37,2.84-18.06,7.56-25.56,13.86-3.17,2.48-5.52,5.86-6.75,9.69-1.23,3.83-1.27,7.95-.14,11.81,4.15,11.16,19.84,13.78,25.73,24.19,2.23,4.94,3.63,10.21,4.15,15.6,2.55,12.95,9.6,24.58,19.92,32.82,8.59,6.76,20.12,10.96,30.62,7.88,12.45-3.57,19.96-15.77,26.35-26.97,8.29-13.28,15-27.49,20-42.32,1.51-5.16,2.52-10.46,3.03-15.81,6.6,2.57,13.5,4.27,20.54,5.06,15.62,1.22,31.33.6,46.81-1.83,12.82-1.54,26.97-3.73,35.1-13.73,6.93-8.3,7.6-20.75,4.69-31.29-3.59-12.74-11.63-23.76-22.65-31.08Z"/>
  </g>
  <path class="cls-3" d="M1372.73,230.29c-4.78-2.52-9.12-5.81-12.82-9.75-7.3-9.46-3.65-24.9-12.2-33.2-3.11-2.56-6.91-4.13-10.93-4.5-4.01-.37-8.04.47-11.56,2.42-8.72,4.5-16.46,10.7-22.78,18.22-14.7,19.88-25.67,42.26-32.37,66.06-26.1-5.31-54.77-2.53-79.17,2.9-9.37,2.88-18.08,7.6-25.6,13.9-3.17,2.48-5.53,5.85-6.76,9.69-1.23,3.83-1.27,7.95-.13,11.81,4.15,11.12,19.88,13.78,25.77,24.15,2.16,4.97,3.49,10.25,3.94,15.64,2.53,12.95,9.59,24.57,19.91,32.78,8.59,6.81,20.08,11,30.58,7.93,12.45-3.61,20-15.77,26.39-26.97,8.28-13.3,14.98-27.52,19.96-42.37,1.51-5.16,2.52-10.46,3.03-15.81,6.66,2.6,13.64,4.31,20.74,5.1,15.61,1.22,31.3.6,46.76-1.87,12.82-1.49,26.97-3.69,35.15-13.73,6.93-8.3,7.55-20.75,4.69-31.25-3.59-12.75-11.61-23.8-22.62-31.16Z"/>
  <path class="cls-11" d="M1269.25,268.17s.33-.25,1.08-.58c1.07-.43,2.18-.72,3.32-.87,3.65-.44,7.36.09,10.73,1.55,3.38,1.46,6.3,3.79,8.48,6.75,2.06,2.84,3.24,6.21,3.41,9.71.34,3.99-.52,7.98-2.47,11.47-1.95,3.49-4.91,6.31-8.49,8.1-3.58,1.79-7.61,2.46-11.58,1.93-3.97-.53-7.68-2.24-10.66-4.91-2.71-2.23-4.71-5.2-5.77-8.55-.84-2.88-1.06-5.91-.62-8.88.59-4.29,2.56-8.28,5.6-11.37.79-.84,1.7-1.57,2.69-2.16.71-.37,1.04-.54,1.08-.5s-1.29,1.04-3.15,3.24c-2.62,3.1-4.25,6.92-4.69,10.95-.41,2.92-.06,5.9,1.01,8.65,1.07,2.75,2.82,5.19,5.09,7.07,2.71,2.41,6.08,3.96,9.68,4.44,3.6.48,7.26-.14,10.5-1.77,3.24-1.63,5.93-4.19,7.7-7.36,1.77-3.17,2.55-6.8,2.24-10.41-.16-2.94-1.07-5.8-2.64-8.3-1.57-2.5-3.75-4.55-6.33-5.98-3.51-2.06-7.55-3.04-11.62-2.82-3.2.17-4.6.79-4.6.58Z"/>
  <path class="cls-11" d="M1263.69,298.59c.25.66-11.91,5.06-24.9,14.07-12.98,9-21.49,18.67-21.99,18.22,1.35-2.51,3.12-4.77,5.23-6.68,4.69-4.98,9.89-9.44,15.52-13.32,5.65-3.87,11.68-7.14,18.01-9.75,2.56-1.28,5.3-2.13,8.13-2.53Z"/>
  <path class="cls-11" d="M1256.3,295.84c-4.58,1.59-9.27,2.86-14.02,3.82-4.58,1.65-9.25,3.03-13.98,4.15,8.27-5.53,18.07-8.3,28.01-7.93v-.04Z"/>
  <path class="cls-11" d="M1323.4,234.15c-6.81,5.19-13.09,11.04-18.76,17.47-5.1,6.87-9.47,14.25-13.03,22.03.17-2.58.85-5.11,1.99-7.43,2.3-5.77,5.46-11.16,9.38-15.98,3.89-4.8,8.48-9,13.61-12.45,2.03-1.62,4.34-2.86,6.81-3.65Z"/>
  <path class="cls-11" d="M1334.06,265.06c0,.66-9.54,2.24-21.04,5.56-11.49,3.32-20.54,7.01-20.75,6.43,12.79-7.29,27.15-11.4,41.87-11.99h-.08Z"/>
  <path class="cls-6" d="M1348.09,363.19c-5.64-3.19-12.21-4.38-18.61-3.36-6.4,1.02-12.27,4.18-16.66,8.96-8.71,11.91-5.48,26.64,4.98,36.27,2.74,2.27,5.91,3.97,9.32,4.99,3.41,1.02,6.99,1.35,10.53.96,3.54-.38,6.96-1.48,10.07-3.22,3.11-1.73,5.83-4.08,8.02-6.89,3.91-6.04,5.3-13.37,3.88-20.42-1.43-7.05-5.56-13.26-11.51-17.3Z"/>
  <path class="cls-6" d="M1389.87,433.65c-5.65-3.2-12.22-4.38-18.62-3.35-6.41,1.02-12.28,4.2-16.65,8.99-8.71,11.87-5.48,26.6,4.98,36.23,2.74,2.27,5.91,3.97,9.32,4.99,3.41,1.02,6.99,1.35,10.53.96,3.54-.39,6.96-1.48,10.07-3.22,3.11-1.73,5.83-4.08,8.02-6.89,3.91-6.04,5.3-13.37,3.88-20.42-1.43-7.05-5.56-13.26-11.51-17.3Z"/>
  <path class="cls-3" d="M1339.79,355.31c-5.64-3.22-12.21-4.41-18.62-3.4-6.41,1.02-12.29,4.19-16.65,9-8.71,11.87-5.48,26.6,4.98,36.23,2.74,2.27,5.91,3.97,9.31,4.99,3.41,1.02,6.99,1.35,10.53.96,3.54-.39,6.96-1.48,10.07-3.22,3.11-1.74,5.83-4.08,8.02-6.89,3.9-6.04,5.28-13.35,3.85-20.39-1.43-7.04-5.55-13.24-11.49-17.28Z"/>
  <path class="cls-7" d="M1381.78,425.76c-5.65-3.2-12.22-4.38-18.63-3.35-6.41,1.03-12.28,4.2-16.65,9-8.71,11.87-5.48,26.6,4.98,36.22,2.74,2.27,5.91,3.97,9.31,4.99,3.41,1.02,6.99,1.35,10.53.97,3.54-.39,6.96-1.48,10.07-3.22,3.11-1.74,5.83-4.08,8.01-6.89,3.9-6.04,5.29-13.37,3.86-20.41-1.43-7.05-5.55-13.26-11.49-17.31Z"/>
  <g class="cls-13">
    <path class="cls-1" d="M1228.91,145.6c1.45-.95,5.48,2.61,8.59,9.96,1.96,4.48,3,9.3,3.07,14.19.12,3.25-.38,6.49-1.5,9.54-1.45,4.07-4.42,7.42-8.3,9.34-3.55,1.67-7.52,2.27-11.41,1.7-3.14-.42-6.18-1.36-9-2.78-4.44-2.13-8.4-5.15-11.62-8.88-5.39-6.43-6.06-11.74-4.61-12.45,1.45-.71,4.94,2.32,10.58,5.81,3.18,2,6.6,3.62,10.17,4.81,3.28,1.37,6.94,1.54,10.33.46,1.07-.55,1.91-1.46,2.37-2.57.73-1.72,1.18-3.54,1.33-5.39.44-3.79.44-7.62,0-11.41-.71-7.01-1.49-11.37,0-12.32Z"/>
    <path class="cls-1" d="M1157.67,174.64c-2.6.35-5.03,1.51-6.93,3.32-1.9,1.81-3.18,4.18-3.66,6.76-.47,2.58-.12,5.25,1.01,7.62,1.13,2.37,2.98,4.32,5.29,5.57,2.31,1.25,4.95,1.75,7.56,1.41,2.6-.34,5.03-1.5,6.94-3.3,1.91-1.8,3.2-4.17,3.68-6.75.48-2.58.14-5.25-.98-7.62-1.13-2.39-2.99-4.35-5.31-5.61-2.32-1.26-4.98-1.75-7.6-1.4Z"/>
    <path class="cls-1" d="M1235.8,125.47c.8,2.32,2.28,4.35,4.23,5.84,1.95,1.49,4.31,2.36,6.75,2.51,2.45.15,4.89-.42,7.02-1.65,2.12-1.23,3.84-3.06,4.92-5.26,1.09-2.2,1.5-4.68,1.18-7.11-.31-2.43-1.34-4.72-2.95-6.57-1.61-1.85-3.74-3.18-6.1-3.83-2.37-.65-4.87-.58-7.21.19-1.56.52-3.01,1.34-4.25,2.43-1.24,1.08-2.26,2.4-2.99,3.88-.73,1.48-1.16,3.09-1.26,4.73-.1,1.65.12,3.3.66,4.85Z"/>
  </g>
  <path class="cls-11" d="M1220.45,140.53c1.49-1,5.52,2.61,8.63,9.96,1.95,4.48,3,9.3,3.07,14.19.1,3.25-.4,6.48-1.5,9.54-1.47,4.06-4.44,7.4-8.3,9.34-3.57,1.66-7.55,2.24-11.45,1.66-3.11-.43-6.14-1.35-8.96-2.74-4.44-2.15-8.4-5.18-11.62-8.92-5.39-6.43-6.06-11.74-4.6-12.45,1.45-.71,4.94,2.28,10.58,5.77,3.18,2,6.6,3.62,10.16,4.81,3.26,1.39,6.92,1.56,10.29.46,1.1-.5,1.96-1.41,2.4-2.53.71-1.74,1.16-3.57,1.33-5.44.44-3.78.44-7.59,0-11.37-.71-7.01-1.5-11.37-.04-12.28Z"/>
  <path class="cls-11" d="M1149.25,169.58c-2.6.34-5.03,1.5-6.93,3.31-1.91,1.81-3.19,4.17-3.67,6.75-.48,2.58-.13,5.25.99,7.62,1.13,2.37,2.97,4.33,5.28,5.59,2.3,1.26,4.95,1.76,7.55,1.42,2.61-.33,5.04-1.48,6.95-3.28,1.91-1.8,3.21-4.15,3.7-6.73.49-2.58.16-5.25-.96-7.62-1.12-2.39-2.98-4.37-5.3-5.64-2.32-1.27-4.98-1.76-7.6-1.42Z"/>
  <path class="cls-11" d="M1227.38,120.37c.8,2.32,2.26,4.36,4.22,5.85,1.95,1.49,4.3,2.37,6.75,2.53,2.45.16,4.9-.41,7.02-1.64,2.13-1.23,3.85-3.06,4.94-5.26,1.09-2.2,1.5-4.68,1.19-7.11-.32-2.44-1.35-4.73-2.96-6.58-1.61-1.85-3.74-3.19-6.11-3.83-2.37-.65-4.88-.58-7.21.2-1.56.52-3,1.34-4.24,2.42s-2.25,2.39-2.98,3.87c-.73,1.47-1.16,3.08-1.27,4.72-.1,1.64.12,3.29.65,4.84Z"/>
  <path class="cls-8" d="M407.08,462.74s-57.76-92.45,12.45-179.96c70.21-87.51,192.45-67.1,243.9-42.07,56.43,27.43,114.52,131.79,44.23,241.37,0,0-23.53,50.04-95.97,77.14,0,0,232.62,6.97,213.78,126.31-22.95,145.23-169.75,69.5-252.08,61.95-82.32-7.55,8.05,112.04,43.61,179.75,38.47,73.28,8.3,183.07-89.84,204.98-114.65,25.52-146.14-171.45-156.22-218.47-10.08-47.01-8.3-77.59-56.22-41.16-47.93,36.43-199.75,199.17-294.61,48.21C1.23,890.83.03,830.87,7,808.22c22.99-74.4,154.03-81.16,201.7-130.54,62.24-64.4,43.36-71.7-30.5-121.66-73.86-49.96-129.09-125.02-72.61-211.62,49.79-76.18,147.05,36.6,203.78,70.83,56.72,34.23,97.72,47.51,97.72,47.51Z"/>
  <path class="cls-10" d="M408.08,462.74s-57.76-92.45,12.45-179.96c70.21-87.51,192.45-67.1,243.9-42.07,56.43,27.43,114.52,131.79,44.23,241.37,0,0-23.53,50.04-95.97,77.14,0,0,232.62,6.97,213.78,126.31-22.95,145.23-169.75,69.5-252.08,61.95-82.32-7.55,8.05,112.04,43.61,179.75,38.47,73.28,8.3,183.07-89.84,204.98-114.65,25.52-146.14-171.45-156.22-218.47-10.08-47.01-8.3-77.59-56.22-41.16-47.93,36.43-199.75,199.17-294.61,48.21-18.88-29.96-20.08-89.92-13.11-112.57,22.99-74.4,154.03-81.16,201.7-130.54,62.24-64.4,43.36-71.7-30.5-121.66-73.86-49.96-129.09-125.02-72.61-211.62,49.79-76.18,147.05,36.6,203.78,70.83,56.72,34.23,97.72,47.51,97.72,47.51Z"/>
  <path class="cls-8" d="M386.79,412.49s-33.9-82.62,36.43-170.13c70.33-87.51,158.71-52.99,210.25-27.93,56.47,27.43,148.18,117.64,77.88,227.22,0,0-23.53,50.04-95.97,77.14,0,0,242.03,50.21,210.21,166.72-32.2,117.84-166.18,29.05-248.51,21.54-82.32-7.51-6.26,127.39,29.34,195.02,38.47,73.32,22.74,167.64-75.56,189.55-114.65,25.52-146.14-171.45-156.22-218.46-10.08-47.01-8.3-77.6-56.22-41.21-47.93,36.39-199.75,199.17-294.61,48.26-80.91-128.63,126.39-178.72,188.59-243.11,62.2-64.4,43.36-71.54-30.29-121.5-73.65-49.96-134.57-115.89-67.68-184.56,63.49-65.15,141.91,9.67,198.63,43.9,56.72,34.23,73.74,37.55,73.74,37.55Z"/>
  <path class="cls-6" d="M760.9,589.09c-43.4-27.01-95.89-36.02-143.53-53.32-10.62-3.9-21.25-7.88-31.79-11.95,66.8-40.37,143.65-114.48,125.48-197.84-26.64-122.08-190.17-157.68-271.29-68.26-31.83,35.1-37.76,82.45-37.34,128.17-.13,19,1.56,37.97,5.06,56.64l-52.24-31.79c-37.64-23.61-73.65-49.42-115.02-66.39-38.88-16.06-94.81-20.5-119.63,21.62-23.15,39.34,7.1,70.17,38.05,91.29,21.7,14.73,44.77,27.26,67.05,41.08,21.25,13.15,46.72,28.05,57.14,51.95,18.59,42.7-17.64,73.78-49.54,93.98-39.88,25.27-80.29,49.79-118.09,78.09-34.4,25.81-65.19,55.11-72.24,99.59-7.05,44.48,21.49,82.99,67.22,86.81,50.12,4.15,92.53-18.46,128.63-50.37,17.67-15.47,36.51-29.55,56.35-42.12,17.84-11.45,40.42-26.64,62.24-28.8,18.84-1.91,21.87,17.97,26.35,32.74,7.43,24.52,12.95,49.59,19.13,74.44,11.53,46.64,21.54,100.83,56.72,136.22,30.96,31.12,79.59,36.81,113.24,6.35,29.25-26.47,43.07-71.5,32.11-109.55-6.56-22.86-23.53-39.13-36.3-58.5-15.62-23.76-28.42-49.26-38.13-75.98-14.98-41.08-29.63-111.37,32.86-115.85,43.53-3.07,84.73,17.93,125.48,29.67,35.77,10.29,98.34,19.91,121.12-18.92,23.57-40.5-17.55-79.42-49.09-99ZM764.8,702.57c-23.9,4.15-51.12,0-74.24-7.06-36.26-10.79-71.33-26.55-109.54-29.46-31.62-2.41-64.65,6.72-73.32,40.87-10.7,42.16,10.04,91.74,28.46,128.63,9.76,20,21.4,39.03,34.77,56.81,16.23,21.12,27.93,41.25,25.85,68.97-3.36,44.94-39.75,93.65-89.71,83.69-53.94-10.79-72.08-73.36-84.48-119.17-11.45-42.12-17.89-87.14-34.32-127.84-11.99-29.67-36.56-24.23-62.24-12.45-37.55,17.93-72,41.74-102.03,70.54-33.44,31.41-102.16,59.88-145.23,31.24-47.3-31.33-21.54-98.88,11.62-130.09,31.78-30,70.13-53.61,106.85-77.01,25.81-16.6,58.09-31.04,78.84-53.94,25.23-27.92,30.58-68.34,5.85-98.38-27.55-33.49-73.11-51.62-108.84-74.69-16.18-10.42-38.3-23.28-46.31-41.78-11.66-27.01,8.3-53.69,32.99-62.91,48.13-17.97,102.7,17.39,142.12,41.49,15.56,9.55,30.42,20.17,45.64,29.88l64.52,39.17c1.01.71,2.22,1.09,3.45,1.07,1.24-.02,2.43-.43,3.42-1.17.98-.74,1.7-1.78,2.06-2.97.36-1.18.33-2.45-.09-3.61-3.78-15.53-5.94-31.41-6.43-47.39-2.45-37.8-1.24-82.37,17.3-116.18,25.69-46.85,77.1-71.91,129.13-69.75,64.98,2.7,123.86,42.28,138.8,108.38,11.33,49.79-17.26,96.39-50.67,130.87-23.51,23.76-50.01,44.36-78.84,61.29-1.03.46-1.9,1.21-2.51,2.16-.61.95-.93,2.05-.93,3.17s.32,2.23.93,3.17c.61.95,1.48,1.7,2.51,2.16,36.22,14.32,72.99,27.84,110.37,38.76,43.07,12.45,98.71,30.41,119.8,74.69,13.94,28.88-6.06,53.98-35.56,58.84Z"/>
  <path class="cls-11" d="M349.66,414.44c-37.64-23.65-73.65-49.46-115.02-66.39-38.92-16.06-94.81-20.5-119.63,21.62-23.15,39.33,7.1,70.21,38.01,91.29,21.74,14.69,44.81,27.22,67.1,41.04,21.2,13.15,46.68,28.09,57.1,51.95,18.59,42.7-17.59,73.82-49.5,94.03-39.88,25.23-80.29,49.79-118.09,78.09-34.4,25.77-65.23,55.06-72.24,99.59-7.01,44.52,21.49,83.19,67.22,86.85,50.12,3.94,92.49-18.51,128.63-50.41,17.68-15.5,36.52-29.62,56.35-42.24,17.88-11.41,40.46-26.64,62.24-28.8,18.84-1.87,21.87,17.97,26.35,32.74,7.43,24.52,12.94,49.59,19.08,74.44,11.58,46.68,21.58,100.83,56.77,136.23,30.95,31.12,79.54,36.81,113.24,6.35,29.26-26.43,43.07-71.49,32.12-109.5-6.6-22.86-23.53-39.13-36.31-58.55-15.63-23.76-28.44-49.25-38.17-75.98-14.98-41.08-29.58-111.37,32.9-115.81,43.53-3.11,84.73,17.88,125.48,29.63,35.77,10.33,98.3,19.92,121.12-18.92,23.65-40.42-17.43-79.3-48.92-98.92-43.4-27.01-95.93-36.02-143.53-53.32-14.32-5.23-28.63-10.58-42.78-16.18v10.71c69-38.63,155.69-116.18,136.51-204.32-26.64-122.08-190.17-157.68-271.29-68.26-31.83,35.15-37.8,82.49-37.34,128.18-.44,23.86,2.35,47.68,8.3,70.79l8.84-6.72-64.48-39.17c-6.27-3.82-13.4,5.23-7.05,9.09l64.48,39.21c1.01.74,2.23,1.14,3.48,1.13,1.25-.01,2.47-.42,3.46-1.18,1-.76,1.73-1.82,2.07-3.02.35-1.2.3-2.49-.14-3.66-3.99-15.49-6.34-31.36-7.01-47.34-2.49-37.8-1.24-82.37,17.3-116.18,25.52-46.89,77.05-71.91,129.26-69.75,65.02,2.66,123.86,42.28,138.84,108.34,11.33,49.79-17.3,96.43-50.71,130.91-23.53,23.73-50.02,44.32-78.84,61.24-1.02.46-1.9,1.21-2.5,2.16-.61.95-.94,2.05-.94,3.17s.33,2.23.94,3.17c.61.95,1.48,1.69,2.5,2.16,36.23,14.32,72.99,27.84,110.38,38.76,43.03,12.45,98.71,30.41,119.79,74.69,13.9,29.05-6.06,54.15-35.56,59.05-23.9,3.94-51.12-.21-74.24-7.1-36.26-10.79-71.37-26.51-109.54-29.46-31.62-2.4-64.65,6.72-73.32,40.87-10.75,42.16,10.04,91.78,28.46,128.63,9.74,20,21.38,39.01,34.77,56.77,16.23,21.16,27.88,41.29,25.85,69-3.44,44.9-40.04,93.61-89.83,83.78-53.94-10.75-72.08-73.36-84.52-119.17-11.45-42.12-17.89-87.14-34.28-127.8-12.03-29.71-36.56-24.27-62.03-12.45-37.54,17.94-71.99,41.75-102.03,70.54-33.44,31.45-102.2,59.88-145.23,31.29-47.3-31.37-21.54-98.88,11.58-130.13,31.83-29.96,70.17-53.61,106.85-77.01,25.81-16.6,58.09-30.99,79.09-53.94,25.23-27.88,30.54-68.3,5.85-98.34-27.59-33.52-73.11-51.62-108.88-74.69-16.14-10.45-38.26-23.32-46.27-41.83-11.66-26.97,8.3-53.69,33.2-62.91,48.09-17.93,102.7,17.43,142.12,41.5,15.56,9.58,30.42,20.17,45.85,29.88,5.93,3.61,13.03-5.44,6.76-9.38Z"/>
  <g class="cls-13">
    <path class="cls-1" d="M494.64,189c-11.66,20.33-3.73,47.8,13.53,63.69,17.26,15.89,41.49,21.91,64.94,22.9,1.54,9.4,5.11,18.35,10.43,26.24,5.33,7.89,12.3,14.54,20.44,19.49,8.14,4.95,17.25,8.08,26.71,9.18,9.46,1.1,19.05.14,28.1-2.8,7.72,9.71,16.97,18.84,28.75,22.78,11.79,3.94,26.47,1.16,33.45-9.05,6.18-9.05,4.94-21.62-.29-31.25-5.81-9.31-13.31-17.46-22.12-24.03-27.92-23.53-56.64-46.47-88.76-63.82-32.11-17.34-78.84-34.19-115.19-33.2"/>
  </g>
  <path class="cls-8" d="M881.49,170.7c-5.72-3.51-12.01-5.98-18.59-7.3-57.84-15.19-118.34-29.05-176.68-18.67-38.14,6.6-73.69,23.7-102.66,49.38l146.64,112.03c12.91-24.61,26.06-49.79,45.65-69.88,19.59-20.08,46.76-35.64,76.27-35.73,7.39.54,14.81.37,22.16-.5,7.18-1.45,14.27-6.02,15.52-12.86.3-3.25-.32-6.51-1.79-9.43-1.47-2.91-3.72-5.35-6.51-7.05Z"/>
  <g class="cls-13">
    <path class="cls-1" d="M881.49,170.7c-5.72-3.51-12.01-5.98-18.59-7.3-57.84-15.19-118.34-29.05-176.68-18.67-38.14,6.6-73.69,23.7-102.66,49.38l146.64,112.03c12.91-24.61,26.06-49.79,45.65-69.88,19.59-20.08,46.76-35.64,76.27-35.73,7.39.54,14.81.37,22.16-.5,7.18-1.45,14.27-6.02,15.52-12.86.3-3.25-.32-6.51-1.79-9.43-1.47-2.91-3.72-5.35-6.51-7.05Z"/>
  </g>
  <path class="cls-8" d="M868.12,150.87c-5.64-3.69-11.94-6.25-18.55-7.55-57.8-15.39-118.26-29.05-176.89-17.51-38.97,7.85-74.93,26.55-103.74,53.94l145.52,117.51c13.28-26.47,26.84-53.28,46.76-75.19,19.92-21.91,47.35-38.67,76.93-39.13,7.42.48,14.88.19,22.24-.87,7.22-1.62,14.4-6.6,15.77-13.9.36-3.34-.21-6.72-1.62-9.77-1.42-3.05-3.64-5.65-6.43-7.53Z"/>
  <path class="cls-7" d="M507.5,229.87c-5.46-2.7-9.87-7.15-12.51-12.64-2.64-5.49-3.36-11.71-2.05-17.66,1.31-5.95,4.58-11.29,9.27-15.17,4.7-3.88,10.57-6.07,16.66-6.22,1.82.1,3.66-.05,5.43-.46,2.8-1.27,5.23-3.25,7.06-5.73,5.16-5.53,11.75-9.53,19.03-11.57,7.28-2.04,14.99-2.03,22.27.02,7.28,2.05,13.86,6.06,19.02,11.59,5.15,5.54,8.69,12.38,10.22,19.79,7.53-3.34,15.66-5.1,23.9-5.17,8.23-.08,16.4,1.53,23.99,4.72,7.52,3.36,13.94,8.8,18.49,15.67,4.56,6.87,7.06,14.89,7.24,23.13,6.25-2.25,13.03-2.64,19.5-1.13,6.47,1.51,12.37,4.85,16.99,9.63,4.62,4.78,7.76,10.79,9.04,17.31,1.29,6.52.66,13.28-1.8,19.45,6.47.62,10.62,7.01,13.61,12.78,5.35,10.29,10.33,21.74,8.3,33.2-2.78,15.81-19.34,26.97-35.35,26.31-16.02-.66-30.54-11.41-38.67-25.27-3.46-5.91-5.92-12.36-7.26-19.09-6.67,3.64-14.11,5.63-21.71,5.8s-15.12-1.47-21.95-4.79c-6.83-3.33-12.77-8.24-17.31-14.32-4.55-6.09-7.57-13.17-8.82-20.67-.46-2.57-.87-5.6-3.11-6.97-1.65-.78-3.51-1.02-5.31-.66-14.07,1.12-28.59,1.33-41.87-3.44-13.28-4.77-25.18-15.48-27.92-29.3"/>
  <path class="cls-7" d="M927.38,175.39c-1.58,7.67-5.41,14.7-10.99,20.19-5.58,5.5-12.66,9.21-20.36,10.68-7.69,1.47-15.65.62-22.86-2.43-7.21-3.05-13.35-8.18-17.65-14.72-4.3-6.55-6.56-14.22-6.49-22.05.06-7.83,2.45-15.47,6.86-21.94,4.41-6.47,10.63-11.5,17.89-14.43,7.26-2.93,15.23-3.65,22.9-2.06,5.09,1.05,9.92,3.1,14.21,6.02,4.29,2.92,7.98,6.66,10.83,11,2.85,4.34,4.82,9.2,5.79,14.31.97,5.1.93,10.35-.13,15.44Z"/>
  <path class="cls-11" d="M224.34,852.9c0,.58-6.39,1.24-17.51-1.49-6.82-1.72-13.32-4.52-19.25-8.3-8.22-5.09-14.8-12.45-18.92-21.2-2.39-5.51-3.65-11.43-3.72-17.43-.07-6,1.05-11.95,3.31-17.51,2.62-6.49,7.17-12.02,13.03-15.85,3.21-2.18,6.83-3.67,10.65-4.38,3.81-.71,7.73-.64,11.51.23,4.29.99,8.16,3.31,11.04,6.64,2.91,3.52,4.61,7.88,4.85,12.45.24,4.39-.66,8.76-2.61,12.7-1.99,3.89-4.82,7.28-8.3,9.92-6.73,4.87-14.7,7.75-22.99,8.3-8.32.74-16.7-.47-24.48-3.52-7.85-2.98-14.83-7.86-20.33-14.19-5.26-6.17-9.04-13.47-11.04-21.33-1.99-7.61-2.2-15.57-.62-23.28,1.47-7.83,5.58-14.92,11.66-20.08,3.12-2.53,6.8-4.28,10.74-5.08,3.94-.8,8.01-.64,11.87.47,3.89,1.24,7.29,3.68,9.71,6.97,2.22,3.08,3.56,6.71,3.86,10.5.38,3.46-.05,6.97-1.26,10.25-1.2,3.27-3.14,6.23-5.67,8.63-4.57,4.15-10.43,6.6-16.6,6.93-5.38.39-10.76-.7-15.56-3.15-4.13-2.07-7.84-4.89-10.95-8.3-4.79-5.3-8.42-11.53-10.66-18.3-3.57-10.87-3.78-17.1-3.2-17.26.58-.17,2.53,5.81,7.1,15.64,2.67,5.86,6.41,11.16,11.04,15.64,2.77,2.87,6.13,5.11,9.85,6.54,3.72,1.44,7.71,2.04,11.69,1.76,4.32-.44,8.36-2.31,11.49-5.31,1.5-1.57,2.63-3.45,3.3-5.51.67-2.06.86-4.25.56-6.4-.16-2.14-.96-4.18-2.3-5.85-1.34-1.67-3.16-2.9-5.21-3.52-2.34-.57-4.78-.58-7.13-.02-2.34.56-4.52,1.66-6.36,3.21-4.13,3.84-6.86,8.96-7.76,14.52-1.12,6.13-.86,12.44.75,18.46,1.62,6.35,4.71,12.24,9.04,17.16,4.33,4.93,9.76,8.76,15.86,11.18,6.22,2.44,12.92,3.42,19.59,2.86,6.28-.39,12.33-2.52,17.47-6.14,2.2-1.52,4-3.56,5.22-5.94,1.22-2.38,1.84-5.03,1.79-7.71-.01-2.32-.82-4.57-2.28-6.37-1.46-1.81-3.5-3.05-5.77-3.54-2.46-.62-5.01-.73-7.51-.34-2.5.39-4.9,1.28-7.05,2.62-4.38,2.73-7.82,6.72-9.88,11.45-3.96,9-4.22,19.2-.71,28.38,3.21,7.68,8.48,14.33,15.23,19.21,5.27,3.83,11.03,6.94,17.14,9.21,10.25,3.78,16.43,4.6,16.31,5.48Z"/>
  <path class="cls-3" d="M156.42,869.71c-.62,1.2-7.59-.5-17.55-6.31-5.8-3.45-11.25-7.47-16.27-11.99-12.38-11.13-22.2-24.8-28.8-40.08-2.71-6.18-4.78-12.61-6.18-19.21-2.32-11.29-1.7-18.46-.33-18.63,1.37-.16,3.65,6.35,7.63,16.6,1.99,5.06,4.65,10.87,7.88,17.18,3.58,6.78,7.6,13.33,12.03,19.59,4.51,6.19,9.42,12.08,14.69,17.63,4.37,4.53,8.97,8.84,13.78,12.9,8.22,6.81,13.9,10.87,13.11,12.32Z"/>
  <path class="cls-11" d="M557.67,870.46c.29,0,0,1.7-1.45,4.15-2.09,3.87-4.91,7.31-8.3,10.13-5.38,4.64-11.8,7.93-18.71,9.58-9.39,2.29-19.29,1.32-28.05-2.78-10.81-4.99-19.34-13.88-23.86-24.89-1.29-3.07-2.19-6.29-2.66-9.59-.6-3.85-.14-7.8,1.33-11.41,1.83-4,5.15-7.13,9.25-8.71,3.96-1.57,8.3-1.91,12.45-.95,3.93,1.14,7.56,3.14,10.62,5.85,3.06,2.71,5.49,6.07,7.1,9.83,3.3,7.15,4.73,15.01,4.15,22.86-.56,8.07-3.1,15.88-7.39,22.74-4.51,7.12-10.88,12.86-18.42,16.6-7.36,3.72-15.57,5.46-23.81,5.06-8.24-.4-16.24-2.93-23.2-7.35-6.41-4.17-11.73-9.8-15.53-16.43-3.81-6.63-5.98-14.07-6.34-21.71-.18-3.87.43-7.74,1.78-11.37,1.55-4.04,4.49-7.4,8.3-9.46,3.58-1.88,7.66-2.58,11.66-1.99,3.71.46,7.23,1.9,10.21,4.15,2.6,2.15,4.74,4.81,6.28,7.81,1.54,3,2.45,6.29,2.68,9.65.53,5.81-.41,11.66-2.74,17.01-3.91,8.77-10.39,16.13-18.59,21.12-5.9,3.63-12.32,6.34-19.04,8.01-10.96,2.65-17.1,2.61-17.22,1.99-.12-.62,5.85-2.24,15.93-6.02,6.02-2.24,11.73-5.25,16.97-8.96,6.67-4.76,11.83-11.34,14.85-18.96,1.58-4.21,2.13-8.74,1.58-13.19-.47-4.43-2.67-8.5-6.1-11.33-1.69-1.23-3.69-1.99-5.78-2.18-2.09-.19-4.19.19-6.09,1.1-1.78,1.43-3.15,3.31-3.95,5.45-.8,2.14-1.02,4.46-.61,6.71.46,5.97,2.29,11.75,5.36,16.89,3.07,5.14,7.28,9.5,12.32,12.73,5.45,3.35,11.66,5.23,18.05,5.49,6.38.25,12.73-1.13,18.43-4.03,5.76-2.78,10.66-7.08,14.15-12.45,3.38-5.37,5.4-11.48,5.89-17.8.53-6.03-.46-12.1-2.9-17.63-.91-2.41-2.34-4.59-4.18-6.38-1.84-1.8-4.05-3.17-6.48-4.03-2.15-.57-4.42-.47-6.51.29-.9.3-1.72.77-2.44,1.39-.71.62-1.29,1.38-1.71,2.22-1.38,4.56-1.02,9.46,1,13.78,3.47,9.14,10.19,16.67,18.88,21.16,7.2,3.82,15.46,5.15,23.48,3.78,6.22-1.06,12.14-3.45,17.35-7.01,8.38-5.6,11.2-11.33,12.03-10.91Z"/>
  <path class="cls-3" d="M583.64,921.79c.62,2.9-30.99,12.03-70.54,20.33-39.55,8.3-72.24,12.66-72.82,9.71-.58-2.95,31-11.99,70.54-20.29,39.55-8.3,72.2-12.66,72.82-9.75Z"/>
  <path class="cls-3" d="M719.62,701.95c-1.41,0-3.28-6.02-4.15-16.18-1.09-13.29-.49-26.66,1.79-39.8,2.13-13.16,5.9-26.02,11.2-38.26,4.15-9.3,7.97-14.48,9.3-13.94,2.86,1.24-5.06,24.48-9.83,53.94-4.77,29.46-5.15,53.98-8.3,54.23Z"/>
  <path class="cls-11" d="M721.98,582.9c.33,0,.75,1.45.67,4.15-.14,4.16-1.14,8.24-2.95,11.99-2.76,6.09-7.05,11.37-12.45,15.31-7.42,5.47-16.65,7.92-25.81,6.85-5.3-.59-10.43-2.21-15.1-4.77-5.15-2.77-9.64-6.62-13.15-11.29-1.94-2.54-3.53-5.33-4.73-8.3-1.6-3.57-1.97-7.57-1.04-11.37.69-2.31,2.06-4.37,3.94-5.89,1.77-1.44,3.89-2.4,6.14-2.78,3.79-.61,7.67-.27,11.28,1,13.22,4.9,24.31,14.27,31.37,26.47,3.77,6.46,6.22,13.59,7.22,21,1.23,8.16-.46,16.49-4.77,23.53-4.74,6.83-11.83,11.65-19.92,13.57-7.12,1.83-14.5,2.45-21.82,1.83-3.79-.22-7.52-1.01-11.08-2.32-3.85-1.47-7.27-3.89-9.92-7.05-2.9-3.24-4.5-7.44-4.5-11.79s1.6-8.54,4.5-11.79c2.58-2.96,5.94-5.14,9.71-6.26,3.42-1.04,7.02-1.38,10.58-1,6.47.7,12.6,3.27,17.63,7.39,4.39,3.57,7.93,8.07,10.37,13.17,2.44,5.1,3.72,10.68,3.74,16.33-.01,4.94-1.19,9.8-3.45,14.19-1.98,3.84-4.67,7.28-7.92,10.13-5.14,4.37-11.39,7.24-18.05,8.3-4.15.71-8.41.47-12.45-.71-2.69-.87-3.94-1.74-3.82-2.03,0-.99,5.89,1.16,15.31-1.37,5.58-1.63,10.68-4.62,14.82-8.71,2.61-2.57,4.66-5.66,6.01-9.07,1.35-3.41,1.98-7.06,1.84-10.72-.26-4.4-1.47-8.69-3.53-12.57-2.07-3.89-4.96-7.28-8.46-9.96-3.81-2.64-8.28-4.16-12.91-4.4-2.16-.32-4.38-.1-6.44.62-2.07.72-3.93,1.93-5.42,3.53-1.36,1.41-2.12,3.29-2.12,5.25s.76,3.84,2.12,5.25c1.83,1.79,4,3.19,6.38,4.13,2.38.93,4.93,1.38,7.48,1.31,6.1.44,12.24-.1,18.17-1.62,5.54-1.27,10.42-4.52,13.74-9.13,2.92-4.93,4.02-10.73,3.11-16.39-.78-5.98-2.72-11.74-5.73-16.97-5.68-10.07-14.6-17.93-25.31-22.28-2.03-.8-4.22-1.1-6.39-.87-.59,0-1.17.18-1.65.52s-.86.8-1.09,1.35c-.95,2.28,1.2,7.84,3.9,11.45,2.59,3.63,5.88,6.72,9.67,9.08,3.79,2.37,8,3.96,12.41,4.69,7.39,1.25,14.98-.22,21.37-4.15,5-3.14,9.19-7.4,12.24-12.45,1.99-3.22,3.5-6.72,4.48-10.37,1.04-2.74,1.33-3.98,1.78-3.98Z"/>
  <path class="cls-11" d="M258.33,373.11c0,.41-1.37.41-3.61.75-3.98.69-7.66,2.53-10.61,5.29-2.95,2.75-5.03,6.31-5.99,10.23-1.34,6.37-.46,13,2.49,18.8,3.89,7.28,9.43,13.55,16.18,18.3,1.28,1.05,2.79,1.81,4.4,2.2,1.04,0,.87,0,1.2-.58.45-1.35.45-2.8,0-4.15-.57-1.93-1.52-3.74-2.78-5.31-2.87-3.63-6.73-6.34-11.12-7.8-4.83-1.61-9.9-2.35-14.98-2.2-5.4-.09-10.8.49-16.06,1.74-2.11.33-4.09,1.23-5.72,2.61-1.63,1.38-2.85,3.17-3.54,5.2-.58,4.77.47,9.6,2.99,13.69,1.24,2.41,2.7,4.98,4.15,7.39,1.24,2.22,2.73,4.29,4.44,6.18,1.35,1.57,3.06,2.8,4.98,3.57,1.59.68,3.35.82,5.02.41.66-.19,1.27-.52,1.79-.96.52-.44.94-.99,1.24-1.61.76-1.54,1.06-3.27.87-4.98-.33-1.87-1.06-3.65-2.14-5.21-1.08-1.56-2.49-2.87-4.13-3.83-3.59-2.36-7.61-3.98-11.83-4.77-7.72-1.71-15.78-.78-22.9,2.66-5.84,2.78-10.38,7.7-12.7,13.73-1.84,4.68-2.37,9.77-1.54,14.73.51,3.21,1.64,6.3,3.32,9.09,1.12,1.95,1.91,2.99,1.62,3.32-.29.33-1.49-.25-3.32-1.95-2.7-2.59-4.68-5.83-5.73-9.42-1.39-4.71-1.67-9.68-.81-14.51.86-4.83,2.85-9.4,5.79-13.33,2.67-3.35,5.95-6.17,9.67-8.3,8.57-4.8,18.54-6.49,28.22-4.77,5.47.84,10.72,2.78,15.44,5.69,2.86,1.66,5.33,3.94,7.21,6.66,1.89,2.73,3.15,5.83,3.7,9.1.53,3.67-.05,7.41-1.66,10.75-.9,1.87-2.18,3.53-3.75,4.89-1.57,1.36-3.4,2.38-5.38,3-3.73.93-7.64.81-11.3-.34-3.66-1.16-6.93-3.31-9.44-6.22-2.25-2.41-4.23-5.07-5.89-7.93-1.62-2.65-3.11-5.23-4.61-8.3-1.58-3.03-2.82-6.23-3.69-9.54-.96-3.86-.96-7.89,0-11.74,1.13-4.1,3.52-7.73,6.85-10.37,2.98-2.26,6.38-3.91,10-4.86,3.19-.85,6.46-1.39,9.75-1.62,3.15-.25,6.14-.37,9.25-.33,6.31-.06,12.59.98,18.55,3.07,6.05,2.27,11.34,6.21,15.23,11.37,1.91,2.64,3.32,5.61,4.15,8.76,1.02,3.63.71,7.49-.87,10.91-1.04,2.07-2.75,3.72-4.85,4.69-2.01.89-4.23,1.14-6.39.75-3.05-.71-5.9-2.13-8.3-4.15-7.48-5.85-13.46-13.41-17.43-22.03-3.25-7.48-3.72-15.86-1.33-23.65,1.91-5.89,6.03-10.82,11.49-13.74,3.32-1.85,7.13-2.63,10.91-2.24,2.41.17,3.53.91,3.49,1.25Z"/>
  <path class="cls-3" d="M144.51,445.93c-2.61-1.12,6.06-26.27,24.9-52.74,18.84-26.47,39.75-42.95,41.49-40.83,1.74,2.12-14.73,21.54-32.86,47.09-18.13,25.56-30.71,47.76-33.53,46.48Z"/>
  <g class="cls-13">
    <path class="cls-1" d="M430.2,551.28c-4.35,2.4-7.93,5.99-10.31,10.35-2.38,4.36-3.47,9.31-3.14,14.26.47,4.96,2.41,9.65,5.58,13.49,3.17,3.84,7.41,6.64,12.18,8.04,4.81,1.24,9.9.96,14.55-.8,4.65-1.76,8.64-4.92,11.43-9.03,2.59-4.24,3.76-9.2,3.33-14.15-.43-4.95-2.44-9.64-5.73-13.36"/>
  </g>
  <path class="cls-7" d="M462.35,569.75c-.95,4.6-3.24,8.81-6.58,12.1-3.34,3.3-7.59,5.52-12.2,6.41-4.61.89-9.38.38-13.7-1.45-4.32-1.82-8.01-4.89-10.59-8.81-2.58-3.92-3.94-8.51-3.91-13.21.03-4.69,1.45-9.27,4.09-13.16,2.64-3.88,6.36-6.9,10.71-8.67,4.35-1.77,9.12-2.21,13.72-1.26,3.05.63,5.96,1.85,8.54,3.6,2.58,1.75,4.8,3.99,6.51,6.59,1.72,2.61,2.9,5.52,3.49,8.59.59,3.06.56,6.21-.07,9.27Z"/>
  <g class="cls-13">
    <path class="cls-1" d="M382.44,649.58c-4.35,2.4-7.93,6-10.31,10.36-2.38,4.37-3.47,9.32-3.13,14.28.47,4.95,2.41,9.65,5.58,13.49,3.17,3.84,7.41,6.64,12.19,8.04,4.81,1.24,9.89.96,14.54-.8,4.65-1.76,8.64-4.92,11.43-9.03,2.59-4.24,3.76-9.21,3.32-14.16-.44-4.96-2.46-9.64-5.76-13.35"/>
  </g>
  <path class="cls-3" d="M414.14,670.25c-.95,4.6-3.24,8.81-6.59,12.1-3.35,3.3-7.59,5.52-12.2,6.4-4.61.88-9.38.37-13.7-1.46-4.32-1.83-8.01-4.9-10.58-8.82-2.58-3.92-3.93-8.53-3.9-13.22s1.47-9.27,4.11-13.15c2.64-3.88,6.37-6.9,10.72-8.66,4.35-1.76,9.13-2.19,13.73-1.24,6.16,1.28,11.56,4.95,15.02,10.21,3.45,5.26,4.68,11.68,3.4,17.84Z"/>
  <path class="cls-11" d="M423.14,568.59c-.7-1.49-1.07-3.12-1.07-4.77s.36-3.28,1.07-4.77c1.58-5.27,5.19-8.3,5.52-7.76.33.54-2.03,3.69-3.49,8.3-1.45,4.61-1.41,8.92-2.03,9Z"/>
  <path class="cls-11" d="M427.71,577.55c-.29.5-1.5.25-2.16-.91-.66-1.16,0-2.32.46-2.28.46.04,1.08.62,1.45,1.24.19.28.32.61.37.95.04.34,0,.68-.12,1.01Z"/>
  <path class="cls-11" d="M375.21,667.51c-.98-1.47-1.59-3.15-1.77-4.91-.18-1.76.07-3.53.73-5.17,1.58-5.77,5.85-8.59,6.14-8.09-1.57,2.8-2.96,5.69-4.15,8.67-.49,3.15-.81,6.32-.96,9.5Z"/>
  <path class="cls-11" d="M381.27,680.75c-.46.37-1.66-.33-2.74-1.62-1.08-1.29-1.49-2.57-1.04-2.95.46-.37,1.66.33,2.74,1.58,1.08,1.24,1.45,2.61,1.04,2.99Z"/>
  <path class="cls-11" d="M197.12,323.98c-9.8-2.8-19.87-4.53-30.04-5.15-10.18.11-20.32,1.31-30.25,3.57,2.57-1.52,5.37-2.62,8.3-3.24,14.31-3.7,29.38-3.31,43.49,1.12,3.03.72,5.91,1.97,8.51,3.69Z"/>
  <path class="cls-11" d="M537.21,186.59c-.25,0-.21-2.03.95-4.94,1.6-3.79,4.17-7.09,7.45-9.57,3.28-2.48,7.15-4.06,11.23-4.58,3.15-.33,5.06,0,5.02.41-.04.41-1.91.41-4.73,1.08-3.7.88-7.17,2.51-10.2,4.81-3.03,2.29-5.55,5.19-7.39,8.51-1.41,2.53-1.99,4.32-2.32,4.27Z"/>
  <path class="cls-11" d="M508.54,209.87s-1.2-1.37-1.66-4.15c-.46-3.61.16-7.28,1.78-10.54,1.63-3.26,4.18-5.96,7.34-7.76,2.45-1.29,4.15-1.37,4.15-1.16s-1.41.95-3.44,2.45c-2.64,1.96-4.78,4.5-6.26,7.43-1.43,2.95-2.17,6.18-2.16,9.46.17,2.57.58,4.15.25,4.27Z"/>
  <path class="cls-11" d="M723.85,131.41c0,.37-6.18,0-16.06.5-12.88.71-25.65,2.86-38.05,6.43-12.32,3.67-24.19,8.73-35.36,15.1-8.63,4.9-13.61,8.55-13.82,8.3.97-1.08,2.07-2.03,3.28-2.82,3.12-2.42,6.38-4.67,9.75-6.72,22.37-13.75,48.02-21.26,74.28-21.74,3.95-.09,7.89.05,11.83.42,1.4-.01,2.8.17,4.15.54Z"/>
  <g class="cls-13">
    <path class="cls-1" d="M573.52,386.3c1.49.58,1.62,6.22-2.78,14.44-2.73,5.03-6.77,9.22-11.7,12.12-3.27,1.92-6.89,3.16-10.65,3.64-3.76.49-7.57.21-11.22-.82-4-1.22-7.6-3.5-10.42-6.6-2.42-2.71-4.28-5.87-5.48-9.3-1.76-5.23-2.41-10.77-1.91-16.27.87-9.09,3.94-13.94,5.56-13.57,1.62.37,1.99,5.6,3.44,13.19.7,4.2,1.95,8.29,3.73,12.16.8,1.92,1.98,3.65,3.49,5.08,1.51,1.43,3.3,2.53,5.26,3.21,4.26,1.1,8.76.73,12.78-1.04,3.71-1.71,7.06-4.1,9.88-7.06,5.27-5.48,8.3-9.96,10-9.21Z"/>
  </g>
  <path class="cls-10" d="M521.23,350.45c-1.74,2.24-4.1,3.91-6.78,4.8-2.68.9-5.58.97-8.31.23-2.73-.75-5.18-2.29-7.03-4.43-1.86-2.14-3.04-4.78-3.39-7.59s.13-5.66,1.4-8.19c1.27-2.53,3.26-4.63,5.72-6.03,2.46-1.4,5.28-2.04,8.1-1.84,2.83.2,5.52,1.24,7.76,2.97,3,2.33,4.95,5.75,5.42,9.52.47,3.77-.57,7.57-2.89,10.57Z"/>
  <path class="cls-10" d="M618.29,390.08c-1.73,2.24-4.1,3.91-6.78,4.81-2.68.89-5.58.98-8.31.23-2.73-.75-5.18-2.29-7.03-4.43-1.86-2.14-3.04-4.78-3.39-7.59-.36-2.81.13-5.66,1.4-8.19,1.26-2.53,3.25-4.63,5.71-6.03,2.46-1.4,5.28-2.04,8.1-1.84,2.83.2,5.52,1.24,7.76,2.97,2.99,2.33,4.93,5.76,5.4,9.52.47,3.76-.56,7.56-2.87,10.56Z"/>
  <path class="cls-11" d="M569.91,380.83c1.24.46,1.16,6.02-3.32,14.02-2.77,4.86-6.76,8.91-11.58,11.74-3.17,1.84-6.67,3.03-10.31,3.49-3.64.46-7.33.19-10.85-.8-3.86-1.17-7.33-3.37-10.04-6.35-2.35-2.62-4.16-5.68-5.31-9-1.78-5.11-2.47-10.54-2.03-15.93.67-8.96,3.49-13.86,4.86-13.53,1.37.33,1.5,5.52,2.78,13.19.63,4.29,1.85,8.48,3.61,12.45.82,2.04,2.08,3.89,3.69,5.4,1.6,1.51,3.52,2.66,5.61,3.36,4.48,1.18,9.24.77,13.44-1.16,3.77-1.82,7.17-4.34,10-7.43,5.18-5.56,8.01-10.08,9.46-9.46Z"/>
  <path class="cls-11" d="M517.62,344.94c-1.73,2.24-4.1,3.91-6.78,4.8-2.69.9-5.58.97-8.31.23-2.73-.75-5.18-2.29-7.03-4.43-1.86-2.14-3.04-4.78-3.39-7.59-.36-2.81.13-5.66,1.4-8.19,1.26-2.53,3.26-4.63,5.72-6.03,2.46-1.4,5.28-2.04,8.1-1.84,2.83.2,5.52,1.24,7.76,2.97,3,2.33,4.95,5.75,5.42,9.52.47,3.77-.56,7.57-2.89,10.57Z"/>
  <path class="cls-11" d="M614.68,384.6c-1.74,2.23-4.1,3.89-6.78,4.78-2.69.89-5.58.96-8.31.22-2.72-.75-5.17-2.29-7.02-4.43-1.85-2.14-3.03-4.78-3.38-7.58-.36-2.81.13-5.66,1.4-8.19,1.26-2.53,3.25-4.63,5.71-6.03,2.46-1.4,5.27-2.05,8.1-1.85,2.82.2,5.52,1.23,7.76,2.96,1.49,1.15,2.74,2.59,3.67,4.23.93,1.64,1.54,3.44,1.77,5.31.23,1.87.1,3.77-.4,5.58-.5,1.82-1.35,3.52-2.51,5Z"/>
</svg>
