<?xml version="1.0" encoding="UTF-8"?>
<svg id="Layer_1" data-name="Layer 1" xmlns="http://www.w3.org/2000/svg" viewBox="0 0 1865.47 1812">
  <defs>
    <style>
      .cls-1 {
        fill: #000;
      }

      .cls-1, .cls-2, .cls-3, .cls-4, .cls-5, .cls-6, .cls-7, .cls-8, .cls-9, .cls-10, .cls-11, .cls-12, .cls-13, .cls-14, .cls-15 {
        stroke-width: 0px;
      }

      .cls-2 {
        fill: #e0e0e0;
      }

      .cls-3 {
        fill: #eb996e;
      }

      .cls-4 {
        fill: #455a64;
      }

      .cls-5 {
        fill: #004d80;
      }

      .cls-6 {
        fill: #f5f5f5;
      }

      .cls-7 {
        fill: #09f;
      }

      .cls-8 {
        fill: #ebebeb;
      }

      .cls-9 {
        fill: #e2323d;
      }

      .cls-10 {
        fill: #263238;
      }

      .cls-11 {
        fill: #8f3216;
      }

      .cls-12 {
        fill: #fafafa;
      }

      .cls-16 {
        opacity: .3;
      }

      .cls-13 {
        fill: #b78876;
      }

      .cls-17, .cls-15 {
        opacity: .6;
      }

      .cls-14, .cls-15 {
        fill: #fff;
      }

      .cls-18 {
        opacity: .4;
      }

      .cls-15 {
        isolation: isolate;
      }
    </style>
  </defs>
  <path class="cls-10" d="M970.39,550.59c-.89-.52-1.89-.8-2.92-.8-1.03,0-2.04.27-2.93.78-.89.51-1.63,1.26-2.14,2.15-.51.89-.77,1.9-.77,2.93-2.13.59-4.05,1.75-5.56,3.36-1.51,1.6-2.56,3.59-3.03,5.75-.47,2.16-.34,4.4.37,6.49.71,2.09,1.98,3.94,3.66,5.36,2.69,2.26,8,2.33,8.58-1.11.54,1.45,1.44,2.73,2.6,3.75,1.17,1.01,2.56,1.72,4.07,2.06-.67,1.07-1.1,2.27-1.28,3.52-.18,1.25-.1,2.52.24,3.74.34,1.22.92,2.35,1.72,3.33.8.98,1.79,1.78,2.91,2.36-1.24,1.02-2.21,2.33-2.83,3.82-.61,1.49-.84,3.11-.68,4.71.17,1.6.73,3.13,1.63,4.46.91,1.33,2.13,2.41,3.56,3.16-.4.9-.62,1.86-.65,2.84-.03.98.14,1.96.49,2.87.35.92.88,1.75,1.55,2.47.67.71,1.48,1.29,2.38,1.69.89.4,1.86.62,2.84.65s1.96-.14,2.87-.49c.92-.35,1.75-.88,2.47-1.55.71-.67,1.29-1.48,1.69-2.38.92,2.9,2.64,5.49,4.95,7.46.6.45,1.29.77,2.02.94.73.17,1.49.2,2.22.07.74-.13,1.44-.4,2.07-.81.63-.41,1.17-.94,1.58-1.56.43,1.45,1.18,2.79,2.19,3.92,1.01,1.13,2.26,2.02,3.65,2.61,1.4.59,2.91.86,4.42.8,1.51-.06,3-.46,4.34-1.16-.15,1.65.34,3.3,1.35,4.62,1.01,1.32,2.48,2.21,4.11,2.5,1.64.29,3.32-.05,4.72-.94s2.42-2.28,2.85-3.88l17.08,1.29c3.77.36,7.57.36,11.34,0,4.83-.53,9.47-2.2,13.53-4.88,1.2-1,2.61-1.7,4.13-2.05,1.8-.04,3.58.39,5.17,1.26,4.42,1.67,9.2,2.19,13.88,1.5,4.68-.69,9.1-2.56,12.85-5.44,1.06-1.01,2.27-1.84,3.59-2.48,1.66-.44,3.4-.53,5.1-.25,4.2.28,8.42.04,12.56-.72,1.8-.16,3.55-.69,5.14-1.55,1.59-.86,2.99-2.03,4.12-3.44,1.9-3.09.39-8.18-3.19-8.43-.09-1.17.08-2.35.51-3.44.43-1.09,1.1-2.08,1.97-2.87.89-.76,2.04-1.16,3.21-1.1,1.17.05,2.28.55,3.1,1.39.34.45.55.99.63,1.55.08.56.01,1.13-.19,1.66s-.53,1-.96,1.37c-.43.37-.94.62-1.5.74.98.59,2.09.93,3.23.99,1.14.06,2.28-.16,3.31-.65,1.03-.49,1.93-1.22,2.61-2.14.68-.92,1.12-1.99,1.29-3.12.04-2.35-.81-4.64-2.39-6.38-1.58-1.75-3.77-2.83-6.11-3.02,1.22-3.29,1.61-6.82,1.15-10.3,1.12,1.59,2.81,2.69,4.72,3.07,1.91.39,3.89.03,5.54-.99.79,1.62,1.9,3.06,3.26,4.23,1.36,1.17,2.95,2.05,4.67,2.59,1.74.47,3.58.33,5.23-.39,1.65-.72,2.99-1.99,3.82-3.59.32-.82.45-1.7.37-2.58-.08-.88-.36-1.72-.81-2.47-.46-.75-1.08-1.38-1.83-1.85-.74-.47-1.59-.76-2.46-.85.6-.98.95-2.09,1-3.24.05-1.15-.19-2.29-.71-3.32-.51-1.03-1.28-1.91-2.23-2.56-.95-.65-2.05-1.04-3.19-1.15.51-2.27.25-4.65-.73-6.76-.99-2.11-2.65-3.83-4.72-4.9.67.44,1.43.73,2.23.84.79.12,1.6.06,2.37-.16.77-.22,1.48-.61,2.09-1.14.61-.53,1.09-1.18,1.42-1.91,1.87,3.59,7.18,3.23,10.77,1.47,1.64-.44,3.06-1.45,4.03-2.84.97-1.39,1.41-3.08,1.25-4.77-.24-1.97-1.17-3.79-2.62-5.13-3.6-2.75-7.99-4.25-12.52-4.27-2.23-5.57-3.51-11.48-3.8-17.47,2.49.32,5.02-.27,7.11-1.66,2.09-1.39,3.62-3.49,4.3-5.91l-24.72-15.36s-57.41-8.86-59.28-8.86-121.68,61.61-121.68,61.61c-.76.63-1.65,1.08-2.61,1.33-.96.25-1.95.28-2.92.11-.97-.18-1.89-.56-2.7-1.13-.81-.57-1.48-1.31-1.97-2.16-.88-1.8-1.26-3.8-1.1-5.8.16-2,.87-3.91,2.03-5.54,2.4-3.22,5.37-5.98,8.76-8.15-3.88.21-7.7-.99-10.77-3.37-.91-.81-1.56-1.88-1.85-3.06-.29-1.18-.22-2.43.2-3.57,1.36-3.3,5.2-3.05,7.64-4.95,1.32-1.24,2.39-2.71,3.16-4.34"/>
  <path class="cls-8" d="M307.84,1800.54c69.92-25.58,102.93-98.24,118.34-167.16,2.57-11.5,6.94-23.21,4.15-34.59-2.78-11.38-13.99-21.55-25.58-19.43-9.59,1.78-15.86,10.67-22.76,17.6-9.25,9.25-20.92,15.7-33.67,18.6-8.3,1.87-18.02,1.83-24.29-4.15-8.55-7.97-6.27-21.88-3.24-33.22l16.61-63.28c3.61-11.17,5.36-22.85,5.19-34.59-.79-11.67-6.1-23.71-16.28-29.56-10.17-5.86-25.29-3.07-30.44,7.43-1.71,4.59-3.09,9.29-4.15,14.07-1.54,4.61-5.11,9.26-9.97,9.38-4.86.13-8.72-4.15-11.29-8.3-8.93-14.49-13.16-31.31-16.9-47.92-3.74-16.61-7.22-33.51-14.74-48.74-7.52-15.24-19.89-29.07-36.12-34.13-16.23-5.07-36.33.37-44.59,15.28-8.26,14.91-3.03,33.55,3.94,49.12,10.33,23.17,23.97,44.72,40.48,63.98,3.35,3.13,5.62,7.25,6.48,11.75.54,8.3-8.64,13.87-16.86,14.41-9.26.62-18.35-2.66-27.57-3.9-9.22-1.25-19.93,0-25.49,7.64-7.68,10.38-1,24.91,6.64,35.5,15.31,20.95,34.08,39.12,55.51,53.73,7.64,5.23,15.86,10.17,21.18,17.81,5.31,7.64,6.81,18.85.62,25.78-6.19,6.94-17.4,6.77-25.83,2.87-8.43-3.9-15.16-10.67-22.8-15.98-14.28-9.92-34.96-14.08-48.54-3.2-4.27,3.82-7.59,8.59-9.68,13.93-2.09,5.34-2.9,11.09-2.36,16.8,1.18,11.42,4.66,22.47,10.21,32.51,17.46,36.21,44.19,67.15,77.48,89.69,33.22,21.96,66.43,34.04,106.29,30.27Z"/>
  <path class="cls-2" d="M302.77,1800.75c-1.33-37.08-8.3-125.23-14.7-167.5-1.69-10.55-3.35-20.97-4.98-31.27-1.66-10.26-3.28-20.43-5.52-30.27-4.32-18.92-9.67-37.59-16.03-55.93-5.98-17.56-12.46-34-18.31-49.33-5.85-15.32-12-29.52-17.94-42.23-9.29-20.1-20.14-39.44-32.47-57.84-4.15-6.52-7.93-11.5-10.34-14.82l-2.82-3.73c-.3-.44-.63-.86-1-1.25.27.46.56.9.87,1.33.62.96,1.49,2.24,2.66,3.86,2.33,3.41,5.77,8.31,10.05,14.99,12.11,18.54,22.78,37.97,31.93,58.13,5.85,12.7,11.67,26.86,17.69,42.23,6.02,15.36,12.21,31.77,18.1,49.33,6.33,18.28,11.64,36.9,15.9,55.76,2.2,9.8,3.82,19.89,5.48,30.19,1.66,10.3,3.28,20.76,4.94,31.27,6.56,42.23,13.45,130.25,14.86,167.25"/>
  <path class="cls-2" d="M277.2,1571.51c.88-1.46,1.64-2.99,2.28-4.57,1.37-2.99,3.28-7.39,5.52-12.83,4.48-10.88,10.21-26.12,16.61-42.93,6.39-16.82,12.46-31.93,16.98-42.73,2.33-5.4,4.15-9.72,5.69-12.7.81-1.51,1.47-3.09,1.95-4.73-.96,1.42-1.82,2.9-2.57,4.44-1.58,2.87-3.74,7.14-6.23,12.46-5.02,10.67-11.21,25.74-17.48,42.6-6.27,16.86-11.75,31.76-15.94,43.1l-4.98,12.99c-.78,1.56-1.39,3.2-1.83,4.9Z"/>
  <path class="cls-2" d="M136.44,1506.23s.5.29,1.45.66l4.15,1.5c3.7,1.24,9.09,3.11,15.65,5.6,13.2,4.86,31.14,12.46,50.61,21.3,19.47,8.85,36.66,18.06,48.91,24.91,6.15,3.41,11.09,6.27,14.49,8.31l3.9,2.24c.45.29.94.53,1.45.71-.38-.38-.79-.71-1.25-1l-3.78-2.53c-3.28-2.16-8.3-5.23-14.2-8.76-12.12-7.14-29.31-16.32-48.79-25.41-16.61-7.77-33.6-14.7-50.91-20.76-6.64-2.37-12.12-4.15-15.9-5.11l-4.4-1.21c-.45-.21-.92-.36-1.41-.46Z"/>
  <path class="cls-2" d="M299.87,1750.04c.53-.46,1-.97,1.41-1.53l3.86-4.65c3.36-4.15,8.01-10.01,13.7-17.48,11.42-14.86,26.53-35.92,42.89-59.37,16.36-23.46,31.31-44.6,42.43-59.67,5.52-7.39,10.01-13.41,13.24-17.81l3.61-4.82c.45-.56.84-1.15,1.16-1.78-.53.46-1.02.97-1.45,1.53l-3.86,4.65c-3.32,4.15-8.01,10.01-13.7,17.48-11.38,14.91-26.49,35.96-42.89,59.42-16.4,23.46-31.31,44.55-42.44,59.62l-13.25,17.81c-1.45,1.99-2.66,3.57-3.57,4.86-.46.53-.85,1.12-1.16,1.74Z"/>
  <path class="cls-2" d="M119.58,1637.11s.58.5,1.74,1.29l5.23,3.32,19.35,12.04c16.32,10.21,38.66,24.58,63.32,40.53,24.66,15.94,47.17,30.18,63.65,40.11,8.3,4.98,14.95,8.97,19.64,11.58,2.2,1.25,4.15,2.28,5.4,3.03,1.25.75,1.91,1.04,1.95.96-.57-.46-1.16-.87-1.79-1.25l-5.23-3.32-19.35-11.96c-16.28-10.22-38.66-24.62-63.32-40.57-24.66-15.94-47.13-30.02-63.61-40.15-8.3-4.98-14.95-8.97-19.64-11.63-2.24-1.2-4.15-2.24-5.4-3.03l-1.95-.96Z"/>
  <path class="cls-6" d="M1346.04,461.72c-.29,4.88-.04,9.79.75,14.61-5.2-7.21-11.71-13.38-19.18-18.18-12.47-7.13-25.89-12.45-39.86-15.78l-1.25-.33c3.07,17.81,8.97,34.09,19.18,46.21,2.13,2.51,4.45,4.86,6.93,7.02-3.07.37-6.19.79-9.26,1.33-20.76,3.53-51.11,17.65-65.98,24.33,22.96,12.13,48.3,19.09,74.24,20.39h4.73c-2.93,3.08-5.54,6.45-7.81,10.05-7.14,12.45-12.47,25.86-15.82,39.82,0,.41-.21.83-.33,1.29,16.81-2.23,32.74-8.86,46.17-19.23,5.57-4.74,10.34-10.35,14.12-16.61.16,3.65.63,7.27,1.41,10.84,3.54,13.87,10.36,26.69,19.89,37.37,0-.33.21-.71.33-1.04,4.11-11.6,6.75-23.66,7.85-35.92.43-11.8-1.9-23.55-6.81-34.29-3.37-6.94-7.11-13.69-11.21-20.22,3.06-7.07,5.75-14.29,8.06-21.63,3.22-11.38,3.75-23.35,1.54-34.96-2.92-11.94-7.34-23.47-13.16-34.29l-.5-1c-7.86,12.08-12.68,25.89-14.04,40.23Z"/>
  <path class="cls-2" d="M1411.35,505.9c0,.58-26.16,4.61-58.63,9.01-32.47,4.4-58.88,7.48-58.96,6.89-.08-.58,26.2-4.61,58.67-9.01,32.47-4.4,58.84-7.51,58.92-6.89Z"/>
  <path class="cls-2" d="M1349.15,514.49c-3.16,7.75-7.62,14.9-13.2,21.14,3.16-7.75,7.62-14.9,13.2-21.14Z"/>
  <path class="cls-2" d="M1336.78,517.24c-.5.38-3.2-2.74-6.68-6.31-3.49-3.57-6.52-6.35-6.14-6.85.37-.5,4.15,1.57,7.68,5.31,3.53,3.74,5.61,7.47,5.15,7.85Z"/>
  <path class="cls-6" d="M156.83,859.62c.98,3.84,2.37,7.56,4.15,11.09-5.83-4.24-12.41-7.34-19.39-9.14-11.39-2.33-23.05-3.03-34.63-2.07h-.91c5.95,12.4,15.08,23,26.45,30.72,2.27,1.4,4.64,2.62,7.1,3.66-2.28,1.04-4.57,2.16-6.81,3.36-15.03,8.01-34.63,26.53-44.59,35.46,20.74,3.53,42,2.46,62.28-3.11l3.65-1.08c-1.44,3.13-2.59,6.38-3.45,9.72-2.33,11.39-3.03,23.05-2.08,34.63v1.08c12.38-5.98,22.96-15.11,30.68-26.49,3.11-5.03,5.36-10.55,6.64-16.32,1.07,2.76,2.36,5.42,3.86,7.97,6.26,9.83,14.81,17.99,24.91,23.79v-.91c.26-9.96-.76-19.9-3.03-29.61-2.67-9.17-7.41-17.61-13.87-24.66-4.36-4.47-8.94-8.72-13.74-12.71.37-10.01,1.08-12.45.71-18.73-.46-9.55-3.1-18.87-7.72-27.24-5.27-8.46-11.61-16.2-18.85-23.05l-.62-.66c-2.99,11.21-3.25,22.97-.75,34.29Z"/>
  <path class="cls-2" d="M218.28,877.1c.25.54-18.89,10.38-42.77,21.96-23.87,11.58-43.43,20.76-43.68,20.06-.25-.71,18.85-10.38,42.73-22.01,23.88-11.63,43.43-20.55,43.72-20.01Z"/>
  <path class="cls-2" d="M172.56,899.44c.27,3.42-.18,6.86-1.33,10.09-.48,3.38-1.65,6.63-3.45,9.55-.27-3.42.18-6.86,1.33-10.09.48-3.39,1.65-6.64,3.45-9.55Z"/>
  <path class="cls-2" d="M163.76,904.71c-.37.5-3.28-1.16-6.85-2.99-3.57-1.83-6.56-3.32-6.39-3.9.17-.58,3.61,0,7.39,1.95,3.78,1.95,6.19,4.48,5.85,4.94Z"/>
  <path class="cls-6" d="M459.72,1046.09s61.25,6.19,64.73-59.17c0,0-64.36-.08-64.73,59.17Z"/>
  <path class="cls-2" d="M538.28,973.14c-8.91,9.7-18.35,18.9-28.27,27.57-9.42,9.21-19.34,17.89-29.73,25.99,8.93-9.69,18.37-18.89,28.28-27.57,9.41-9.22,19.34-17.89,29.73-25.99Z"/>
  <path class="cls-2" d="M480.44,1012.79c0-.58,3.4-1.37,7.76-1.75,4.36-.37,7.89,0,7.93.42.04.41-3.4,1.37-7.76,1.74-4.36.37-7.89.21-7.93-.41Z"/>
  <path class="cls-2" d="M511.38,997.39c.57,2.75.47,5.6-.29,8.31-.75,4.65-1.83,8.31-2.41,8.31-.6-2.84-.5-5.77.29-8.56.75-4.48,1.83-8.18,2.41-8.06Z"/>
  <path class="cls-6" d="M414.26,1512.13s102.93,10.34,108.75-99.44c0,0-108.12-.09-108.75,99.44Z"/>
  <path class="cls-2" d="M545.88,1389.52c.41.46-21.05,20.97-47.96,45.67-26.91,24.7-49.04,44.97-49.45,44.34-.41-.62,21.09-20.76,48-45.67,26.9-24.91,49.04-44.8,49.41-44.34Z"/>
  <path class="cls-2" d="M449.05,1456.2c4.21-1.45,8.63-2.19,13.08-2.2,4.41-.71,8.91-.71,13.33,0-4.23,1.42-8.66,2.16-13.12,2.2-4.4.71-8.89.71-13.29,0Z"/>
  <path class="cls-2" d="M500.91,1430.33c-.13,9.54-1.66,19.02-4.57,28.11-.3-4.76.1-9.55,1.21-14.2.39-4.78,1.53-9.47,3.36-13.91Z"/>
  <path class="cls-2" d="M78.19,1620.13c-.46-.37,17.85-23.13,40.9-50.78,23.04-27.65,42.1-49.83,42.56-49.37.46.46-17.85,23.09-40.9,50.78-23.04,27.69-42.1,49.74-42.56,49.37Z"/>
  <path class="cls-2" d="M1741.62,945.32c-.46-.41,17.85-23.13,40.9-50.78,23.04-27.65,42.1-49.83,42.56-49.41.46.41-17.86,23.13-40.9,50.78-23.05,27.65-42.1,49.78-42.56,49.41Z"/>
  <path class="cls-2" d="M1016.28,1734.44c-.46-.38,17.86-23.09,40.9-50.74,23.05-27.65,42.1-49.83,42.56-49.41.46.41-17.86,23.13-40.9,50.78-23.05,27.65-42.1,49.79-42.56,49.37Z"/>
  <path class="cls-2" d="M1506.69,763.66c-.5-.37,17.86-23.08,40.9-50.74,23.05-27.65,42.1-49.83,42.56-49.41.46.42-17.85,23.13-40.9,50.78-23.04,27.65-42.1,49.79-42.56,49.37Z"/>
  <path class="cls-2" d="M1604.05,1388.81c-.46-.37,17.86-23.13,40.94-50.78,23.08-27.65,42.1-49.83,42.56-49.37.46.46-17.86,23.09-40.9,50.78-23.05,27.69-42.14,49.87-42.6,49.37Z"/>
  <path class="cls-2" d="M198.97,373.07c-.46-.37,17.85-23.09,40.94-50.78,23.09-27.69,42.1-49.83,42.56-49.37.46.46-17.85,23.13-40.9,50.78-23.04,27.65-42.14,49.74-42.6,49.37Z"/>
  <path class="cls-2" d="M595.71,373.07c-.46-.37,17.85-23.09,40.9-50.78,23.04-27.69,42.1-49.83,42.56-49.37.46.46-17.86,23.13-40.9,50.78-23.05,27.65-42.1,49.74-42.56,49.37Z"/>
  <path class="cls-2" d="M184.85,741.33c-.46-.37,17.85-23.12,40.9-50.78,23.04-27.65,42.1-49.83,42.56-49.37.46.46-17.85,23.09-40.9,50.74-23.04,27.65-42.06,49.78-42.56,49.41Z"/>
  <path class="cls-2" d="M186.93,1196.23c-.46-.37,17.85-23.13,40.9-50.78,23.04-27.65,42.1-49.82,42.56-49.37.46.46-17.85,23.09-40.9,50.78-23.04,27.69-42.1,49.74-42.56,49.37Z"/>
  <path class="cls-2" d="M584.91,1759.31c-.46-.37,17.85-23.09,40.9-50.74,23.05-27.65,42.1-49.83,42.56-49.41.46.41-17.85,23.13-40.9,50.78-23.04,27.65-42.1,49.79-42.56,49.37Z"/>
  <path class="cls-2" d="M529.98,100.16c-.46-.37,17.86-23.09,40.9-50.74C593.92,21.76,612.98-.41,613.43,0c.46.42-17.85,23.13-40.89,50.78-23.05,27.65-42.1,49.78-42.56,49.37Z"/>
  <path class="cls-2" d="M1756.48,231.12c-.46-.42,17.85-23.13,40.9-50.78,23.04-27.65,42.1-49.83,42.56-49.41.46.42-17.86,23.13-40.9,50.78-23.05,27.65-42.1,49.78-42.56,49.41Z"/>
  <path class="cls-2" d="M1390.72,290.57c-.46-.42,17.85-23.13,40.9-50.78,23.05-27.65,42.1-49.83,42.6-49.41.5.42-17.85,23.13-40.94,50.78-23.09,27.65-42.1,49.78-42.56,49.41Z"/>
  <path class="cls-2" d="M1062.32,100.16c-.46-.37,17.86-23.09,40.9-50.74C1126.27,21.76,1145.33-.41,1145.78,0c.46.42-17.85,23.13-40.9,50.78-23.04,27.65-42.1,49.78-42.56,49.37Z"/>
  <path class="cls-10" d="M1865.47,1805.97c0,.58-417.62,1.08-932.69,1.08s-932.78-.5-932.78-1.08,417.54-1.08,932.78-1.08,932.69.46,932.69,1.08Z"/>
  <path class="cls-7" d="M1212.3,377.1s-206.11-164.67-444.28-56.89c-238.17,107.79-222.6,402.09-222.6,402.09,0,0,40.48-31.68,103.47-10.38,0,0,11.67-88.52,106.04-66.43,0,0,64.24-104.43,163.47-58.8,0,0,33.84-96.83,157.36-65.93-.21-.04,44.01-109.57,136.52-143.66Z"/>
  <g class="cls-18">
    <path class="cls-1" d="M1212.3,377.1s-206.11-164.67-444.28-56.89c-238.17,107.79-222.6,402.09-222.6,402.09,0,0,40.48-31.68,103.47-10.38,0,0,11.67-88.52,106.04-66.43,0,0,64.24-104.43,163.47-58.8,0,0,33.84-96.83,157.36-65.93-.21-.04,44.01-109.57,136.52-143.66Z"/>
  </g>
  <path class="cls-13" d="M1322.79,1038.99l1.29,1.29c2.16.29,4.48.54,7.06.75,3.85.29,7.73-.08,11.46-1.08,4.68-1.07,9.19-2.78,13.41-5.07.72-.58,1.61-.91,2.53-.97.92-.05,1.84.19,2.62.68.78.49,1.39,1.22,1.74,2.07.35.85.43,1.8.21,2.7-1.33,3.78-11.17,10.92-25.2,13.33-14.03,2.41,5.52,13.37,12.46,17.48,6.93,4.11,28.23,17.85,28.69,21.01.62,4.65-4.15,6.23-11.13,1.95-6.97-4.28-28.65-15.61-30.64-11.79-1.99,3.82,34.17,24.21,34.17,24.21,0,0,8.31,3.12,6.27,7.6-3.9,8.1-40.69-16.61-44.14-18.89-2.41-1.66-4.69,2.41-2.04,4.15,2.66,1.75,36.5,19.56,32.6,27.82-2.99,6.35-30.44-19.89-39.49-19.73-9.05.17,22.84,17.82,19.76,23.75-1.16,2.24-2.32,3.74-19.18-9.05-13.7-11.42-26.77-23.58-39.16-36.41l36.71-45.8Z"/>
  <path class="cls-7" d="M1122.49,679.04l77.15,266.98,128.47,89.19-41.73,60.62-175.26-116.42-56.97-268.44,68.34-31.93Z"/>
  <path class="cls-7" d="M1155.42,885.32c-20.18,92.63,8.3,188.26,38.7,278.19,30.39,89.93,62.74,183.23,50.32,277.2l-107.95,26.37-87.49-416.79,74.32-178.54,32.1,13.58Z"/>
  <path class="cls-10" d="M1161.56,869.25c-.06.71-.19,1.4-.37,2.08-.42,1.58-.87,3.49-1.46,5.77-.58,2.28-1.45,5.6-2.2,9.17-.75,3.57-1.78,7.68-2.49,12.25-1.97,10.66-3.35,21.42-4.15,32.22-.87,13.23-.98,26.5-.33,39.74,1.3,24.08,4.4,48.04,9.26,71.66,1.83,9.05,3.41,16.4,4.57,21.47l1.25,5.81c.16.68.26,1.38.29,2.07-.34-.6-.58-1.26-.71-1.95l-1.66-5.73c-1.41-5.03-3.2-12.46-5.23-21.39-5.24-23.64-8.48-47.69-9.67-71.87-.66-13.33-.49-26.68.5-39.98.84-10.86,2.35-21.67,4.53-32.35.83-4.57,1.87-8.63,2.78-12.21.91-3.57,1.74-6.68,2.57-9.13l1.87-5.69c.14-.68.36-1.33.66-1.95Z"/>
  <path class="cls-10" d="M1174.6,963.96c1.93-5.04,5.35-9.38,9.79-12.44,4.45-3.06,9.72-4.7,15.12-4.71-4.82,1.71-9.45,3.89-13.83,6.52-4.03,3.18-7.75,6.73-11.09,10.63Z"/>
  <path class="cls-4" d="M777.24,1630.5c0-4.15,183.94-265.74,183.94-265.74l101.6,38.95-231.77,266.73-53.77-39.94Z"/>
  <path class="cls-7" d="M777.24,1630.5l-1.66,2.12-31.56,41.19-39.07,26.78,52.32,100.77h57.68s-4.15-13.83-31.89-21.01l-1.83-55.23,49.83-54.64"/>
  <path class="cls-15" d="M704.95,1700.59l52.32,100.77,57.68.04-6.48-8.64-46.88-2.66-48.33-95.21-8.31,5.69Z"/>
  <path class="cls-10" d="M782.68,1755.07c-.41.58-3.73-1.29-8.3-1.16-4.57.12-7.72,1.95-8.31,1.37-.58-.58,2.7-3.86,8.31-3.9,5.6-.04,8.88,3.24,8.3,3.7Z"/>
  <path class="cls-10" d="M781.76,1741.37c-.58.37-3.15-3.03-7.72-3.9-4.57-.87-8.3,1.21-8.68.58-.37-.62.5-1.21,2.12-2.08,2.16-1.15,4.66-1.51,7.06-1,2.38.48,4.53,1.76,6.1,3.61,1.16,1.46,1.41,2.62,1.12,2.78Z"/>
  <path class="cls-10" d="M782.14,1723.72c-.62.33-2.57-2.99-6.6-4.4-4.03-1.41-7.6,0-7.89-.71s.54-1.12,2.16-1.7c2.14-.72,4.45-.71,6.57.05,2.12.75,3.93,2.2,5.14,4.1.87,1.45.91,2.53.62,2.66Z"/>
  <path class="cls-10" d="M797.59,1710.06c-.66.25-2.28-3.03-5.9-5.31-3.61-2.28-7.14-2.7-7.18-3.41-.04-.71,4.15-1.66,8.6,1.29,4.44,2.95,5.19,7.39,4.48,7.43Z"/>
  <path class="cls-10" d="M805.1,1698.27c-.29,0-2.16-2.12-5.03-6.02-1.58-2.28-3.2-4.61-4.86-6.94-1.1-1.41-2-2.98-2.66-4.65-.18-.58-.24-1.19-.19-1.8.06-.6.24-1.19.52-1.73.34-.61.85-1.1,1.47-1.42.62-.32,1.32-.44,2.01-.37,2.03.38,3.91,1.35,5.4,2.78,1.35,1.22,2.52,2.61,3.48,4.15,1.6,2.52,2.63,5.35,3.03,8.31.58,2.7.11,5.53-1.33,7.89-.01-2.54-.16-5.07-.46-7.6-.57-2.61-1.66-5.08-3.2-7.27-.89-1.27-1.96-2.42-3.15-3.4-1.17-1.09-2.6-1.84-4.15-2.2-.21-.03-.43,0-.62.1s-.35.25-.46.43c-.19.52-.19,1.1,0,1.62.59,1.47,1.34,2.86,2.24,4.15l4.4,7.23c1.52,2.04,2.71,4.31,3.53,6.73Z"/>
  <path class="cls-10" d="M807.17,1699.97c-.29,0,0-3.03,3.07-6.52,2.13-2.3,4.95-3.84,8.04-4.4,3.09-.55,6.27-.09,9.07,1.32.28.27.5.59.65.95.15.36.22.74.22,1.13-.05.67-.29,1.31-.71,1.83-.59.7-1.28,1.31-2.04,1.83-1.31.89-2.7,1.65-4.15,2.28-2.39,1.1-4.94,1.81-7.56,2.12-2.39.55-4.89.31-7.14-.66,0-.41,2.74-.21,6.85-1.08,2.38-.53,4.68-1.35,6.85-2.45,1.27-.65,2.49-1.4,3.66-2.24.54-.37,1.05-.8,1.49-1.29.25-.5,0-.37,0-.54-.5-.32-1.07-.53-1.66-.62-.7-.15-1.41-.26-2.12-.33-1.39-.08-2.78.02-4.15.29-2.31.53-4.44,1.61-6.23,3.16-2.91,2.74-3.78,5.48-4.15,5.23Z"/>
  <path class="cls-15" d="M750.92,1698.89c0,1.35-.4,2.68-1.16,3.81-.75,1.13-1.82,2-3.07,2.52-1.25.52-2.63.66-3.96.39-1.33-.26-2.55-.92-3.51-1.88-.96-.96-1.61-2.18-1.87-3.51-.26-1.33-.13-2.7.39-3.96.52-1.25,1.4-2.32,2.52-3.07,1.13-.75,2.45-1.15,3.81-1.15,1.82,0,3.56.72,4.84,2,1.28,1.29,2.01,3.03,2.01,4.85Z"/>
  <path class="cls-12" d="M809.13,1629.92c-1.51-3.71-2.34-7.66-2.45-11.67-.8-3.94-.9-7.98-.29-11.96,2.34,7.64,3.27,15.65,2.74,23.63Z"/>
  <path class="cls-12" d="M864.39,1600.19c-4.13,2.82-8.65,5.01-13.41,6.52-4.49,2.21-9.29,3.73-14.24,4.53,4.15-2.8,8.68-5,13.45-6.52,4.48-2.21,9.27-3.73,14.2-4.53Z"/>
  <path class="cls-12" d="M839.73,1648.64c-2.88-5.66-4.39-11.92-4.4-18.27,1.7,2.7,2.81,5.73,3.24,8.89,1.07,3,1.47,6.21,1.16,9.38Z"/>
  <path class="cls-12" d="M843.84,1580.47c-1.93-2.74-2.98-6-3.03-9.34-.73-3.28-.43-6.7.87-9.8.81,3.12,1.24,6.33,1.29,9.55.71,3.15,1,6.37.87,9.59Z"/>
  <path class="cls-12" d="M887.06,1545.72c-3.91,3.38-8.08,6.46-12.45,9.22-3.91,3.34-8.07,6.36-12.46,9.05,3.01-4.31,6.83-7.97,11.25-10.8,4-3.4,8.64-5.94,13.66-7.47Z"/>
  <path class="cls-12" d="M885.73,1589.81c-1.78-3.4-2.69-7.17-2.66-11.01-.62-3.76-.32-7.63.87-11.25,1.12,7.37,1.72,14.8,1.78,22.26Z"/>
  <path class="cls-12" d="M884.36,1514.45c-3.12,2.56-6.66,4.55-10.46,5.89-3.51,1.98-7.35,3.32-11.34,3.95,3.11-2.57,6.65-4.57,10.47-5.9,3.5-2,7.35-3.34,11.33-3.94Z"/>
  <path class="cls-12" d="M915.13,1539.03c-3.39-8.55-5.38-17.6-5.89-26.78,2.07,4.14,3.48,8.58,4.15,13.16,1.27,4.42,1.86,9.02,1.74,13.62Z"/>
  <path class="cls-12" d="M935.1,1528.77c-.58,0,0-3.86.83-8.3.83-4.44,2.37-7.89,2.95-7.72.58.16.21,3.82-.83,8.3-1.04,4.48-2.37,7.85-2.95,7.72Z"/>
  <path class="cls-4" d="M1107.71,1383.49l143.58,312.82h74.28l-100.03-322.7-117.84,9.88Z"/>
  <path class="cls-7" d="M1249.75,1692.37l43.39,111.65,139.31-53.23c-5.9-13-88.19-12.17-88.19-12.17l-24.91-72.66-69.59,26.41Z"/>
  <g class="cls-17">
    <path class="cls-14" d="M1298.87,1749.09c-1.18.92-1.98,2.24-2.25,3.71-.27,1.47.01,2.99.8,4.26.88,1.22,2.19,2.06,3.67,2.33,1.48.28,3-.02,4.26-.84,1.21-.97,2.02-2.35,2.3-3.87s-.01-3.1-.8-4.43c-1.04-1.14-2.48-1.85-4.02-1.97-1.54-.12-3.07.34-4.28,1.31"/>
  </g>
  <path class="cls-15" d="M1293.14,1804.02l-3.94-11.42,135.07-46.71s7.23.33,8.31,4.98l-139.43,53.15Z"/>
  <path class="cls-10" d="M1346.25,1737.09c.25.66-3.03,2.28-5.56,5.73-2.53,3.45-3.2,7.02-3.9,6.98-.71-.04-1.25-4.15,1.87-8.31,3.11-4.15,7.51-5.11,7.6-4.4Z"/>
  <path class="cls-10" d="M1363.19,1737.59c.41.58-2.12,2.87-3.32,6.6-1.2,3.73-.71,7.06-1.41,7.31-.71.25-2.57-3.45-1-8.1,1.58-4.65,5.44-6.52,5.73-5.81Z"/>
  <path class="cls-10" d="M1378.18,1751.83c-.58.37-2.82-2.66-2.49-7.06.33-4.4,2.91-7.06,3.44-6.6.54.46-.71,3.2-.91,6.81-.21,3.61.58,6.52-.04,6.85Z"/>
  <path class="cls-10" d="M1338.73,1720.98c0,.71-3.53.96-7.27,2.7-3.73,1.75-6.27,4.15-6.85,3.66-.58-.5,1.37-4.15,5.81-5.98,4.44-1.82,8.43-.87,8.31-.37Z"/>
  <path class="cls-10" d="M1329.1,1705.91c-2.06,1.47-4.46,2.37-6.98,2.62-2.73.53-5.52.71-8.31.54-1.62-.08-3.22-.27-4.82-.58-.95-.14-1.87-.42-2.74-.83-.63-.32-1.13-.84-1.43-1.48-.3-.64-.38-1.36-.23-2.05.15-.6.45-1.16.86-1.62.41-.46.93-.82,1.51-1.04.88-.36,1.8-.58,2.74-.66,1.64-.15,3.29-.15,4.94,0,2.75.17,5.45.77,8.01,1.78,4.4,1.75,6.48,3.86,6.27,4.15-.21.29-2.57-1.16-6.81-2.41-2.48-.68-5.03-1.05-7.6-1.12-1.49,0-2.97.1-4.44.29-1.66,0-2.91.66-3.03,1.46-.12.79,0,.41.46.75.64.28,1.31.47,1.99.58,1.48.32,2.98.56,4.48.71,2.58.25,5.18.25,7.76,0,2.42-.55,4.88-.91,7.35-1.08Z"/>
  <path class="cls-10" d="M1328.6,1707.19c0,.21-2.49-1.7-4.44-6.02-1.08-2.55-1.74-5.25-1.95-8.01-.18-1.63-.18-3.27,0-4.9.03-1.07.32-2.11.87-3.03.55-.92,1.32-1.68,2.25-2.21.63-.22,1.3-.26,1.95-.11.65.15,1.24.47,1.71.94.65.69,1.21,1.46,1.66,2.29.85,1.46,1.47,3.04,1.82,4.69.62,2.75.53,5.6-.25,8.31-1.33,4.65-3.86,6.56-4.15,6.35.86-2.21,1.61-4.45,2.24-6.73.46-2.45.36-4.98-.29-7.39-.32-1.47-.88-2.87-1.66-4.15-.79-1.41-1.79-2.41-2.29-2.03-.5.37-1.45,1.82-1.57,3.24-.24,1.47-.34,2.95-.29,4.44.07,2.53.51,5.04,1.33,7.43,1.66,4.4,3.4,6.64,3.07,6.89Z"/>
  <path class="cls-12" d="M1226.59,1589.4c-3.51-.59-6.83-2.02-9.67-4.15-4.98-2.99-8.51-6.19-8.31-6.64,3.31,1.08,6.42,2.7,9.22,4.78,5.07,3.03,9.01,5.44,8.76,6.02Z"/>
  <path class="cls-12" d="M1243.07,1579.14c-.61-3.21-.24-6.52,1.08-9.51,1.62-5.07,4.15-8.64,4.69-8.31-.46,3.11-1.34,6.14-2.62,9.01-.63,3.07-1.69,6.04-3.16,8.81Z"/>
  <path class="cls-12" d="M1275.12,1579.14c-2.74-2.56-4.96-5.64-6.52-9.05-2.18-3.05-3.74-6.49-4.61-10.13,2.72,2.57,4.92,5.64,6.48,9.05,2.16,3.06,3.74,6.5,4.65,10.13Z"/>
  <path class="cls-12" d="M1262.13,1609.41c-.93-3.12-1.16-6.41-.66-9.63-.21-3.24.28-6.48,1.45-9.51.96,3.12,1.2,6.41.71,9.63.19,3.24-.32,6.48-1.5,9.51Z"/>
  <path class="cls-12" d="M1244.81,1610.82c-3.32.07-6.61-.65-9.59-2.12-5.06-1.87-8.84-4.15-8.59-4.73,3.25.35,6.42,1.28,9.34,2.74,3.18.81,6.18,2.2,8.84,4.11Z"/>
  <path class="cls-12" d="M1259.8,1623.03c.41.41-2.74,4.15-7.06,8.3-4.32,4.15-8.1,7.27-8.51,6.81-.41-.46,2.7-4.15,7.02-8.3,2.39-2.8,5.29-5.11,8.56-6.81Z"/>
  <path class="cls-12" d="M1281.52,1623.23c-.4-3.27.06-6.59,1.33-9.63,1.54-5.11,3.7-8.97,4.15-8.72-.19,3.23-.92,6.4-2.16,9.39-.59,3.16-1.71,6.19-3.32,8.97Z"/>
  <path class="cls-12" d="M1273.75,1658.03c-.41.41-3.86-2.45-7.68-6.39-3.82-3.94-6.56-7.47-6.1-7.89.46-.41,3.86,2.45,7.68,6.39,3.82,3.94,6.56,7.47,6.1,7.89Z"/>
  <path class="cls-12" d="M1291.56,1663.35c-.55-4.12-.14-8.31,1.21-12.25.68-4.1,2.32-7.98,4.78-11.33-.45,4.04-1.34,8.03-2.66,11.88-.66,4.01-1.78,7.94-3.32,11.71Z"/>
  <path class="cls-12" d="M1260.34,1676.34c-.41.41-3.65-2.41-7.14-6.27-3.49-3.86-6.02-7.31-5.6-7.72.41-.42,3.65,2.41,7.18,6.27,3.53,3.86,5.98,7.31,5.56,7.72Z"/>
  <path class="cls-2" d="M1132.87,983.56c2.2-28.4,6.39-60.33,20.3-81.3,11.71-17.61,12.7-30.81,11.71-38.91,2.95-30.73-21.72-49.83-25.2-81.01-3.86-45.01-3.7-69.92-23.3-74.99l-105.79-4.4s-87.61-3.12-62.49,130.92l40.4,127.26,15.95,10.3c-22.05,16.36-71.46,62.78-86.53,159.07-19.6,125.15-83.04,400.18-83.04,400.18,0,0,92.68-43.1,174.97,0,82.29,43.1,173.06,60.7,227.66,35.25,54.6-25.45,54.73-35.25,54.73-35.25l-159.36-547.13Z"/>
  <path class="cls-10" d="M977.66,1006.23s-.21.42-.71,1.12l-2.37,3.03c-2.16,2.62-5.03,6.69-8.6,12-9.63,15.32-16.89,32.01-21.55,49.49-6.73,26-10.03,52.78-9.8,79.64-.37,30.31,2.28,63.65,2.24,98.78.08,17.12-1.01,34.23-3.28,51.2-2.24,15.8-5.53,31.43-9.84,46.79-7.48,25.91-16.85,51.24-28.03,75.78-9.38,21.01-17.69,37.66-23.42,49.16l-6.72,13.2-1.83,3.41c-.19.4-.43.78-.71,1.12.1-.44.26-.86.5-1.25l1.58-3.53c1.5-3.24,3.61-7.68,6.27-13.37,5.48-11.63,13.54-28.4,22.71-49.45,10.88-24.56,20.04-49.86,27.4-75.69,8.78-31.7,13.1-64.47,12.83-97.37,0-35-2.53-68.34-2.03-98.82-.12-27.03,3.37-53.95,10.38-80.05,4.84-17.6,12.42-34.33,22.46-49.58,3.69-5.56,7.88-10.79,12.5-15.61Z"/>
  <path class="cls-4" d="M1098.07,1230.23c.24.84.37,1.71.42,2.57.21,1.91.46,4.15.79,7.35.33,3.2.71,7.1.83,11.67.12,4.57.54,9.76.46,15.53-.08,5.77,0,12.04-.46,18.81-.46,6.77-.96,13.95-1.66,21.51-1.9,16.4-4.82,32.67-8.76,48.7-4.09,16.01-9.21,31.74-15.32,47.08-2.95,7.02-5.65,13.7-8.68,19.76-3.03,6.06-5.77,11.71-8.31,16.61-2.53,4.9-5.44,9.55-7.72,13.45-2.28,3.9-4.82,7.43-6.48,10.26l-4.15,6.1c-.46.74-.99,1.43-1.58,2.07.34-.81.74-1.58,1.21-2.32l3.82-6.31c1.7-2.7,3.73-6.06,5.94-10.05,2.2-3.98,4.86-8.31,7.39-13.58,2.53-5.27,5.52-10.67,8.31-16.82,2.78-6.14,5.56-12.75,8.31-19.77,12.09-30.57,20.13-62.59,23.92-95.25.75-7.52,1.62-14.66,1.87-21.43.25-6.77.62-12.95.71-18.68.08-5.73,0-10.92,0-15.49s-.25-8.31-.46-11.67c-.21-3.37-.29-5.44-.38-7.39-.12-.91-.12-1.83,0-2.74Z"/>
  <path class="cls-4" d="M1146.57,1284.63c-1.7,3.39-3.64,6.65-5.81,9.76-3.69,5.94-8.68,14.2-13.74,23.58-5.07,9.38-9.1,18.14-11.96,24.5-1.37,3.54-3.01,6.97-4.9,10.26.76-3.73,1.93-7.36,3.49-10.84,3.32-8.53,7.16-16.85,11.5-24.91,4.31-8.07,9.09-15.88,14.32-23.38,2.01-3.26,4.39-6.27,7.1-8.97Z"/>
  <path class="cls-4" d="M1098.41,994.68c-19.65,11.29-35.8,27.78-46.67,47.67.9-3.25,2.3-6.35,4.15-9.17,3.97-7.07,8.86-13.59,14.53-19.39,5.66-5.79,12.07-10.8,19.06-14.91,2.74-1.85,5.75-3.27,8.93-4.2Z"/>
  <path class="cls-4" d="M990.87,660.94c-17.98-6.31-37.66,2.62-53.15,13.7-15.49,11.09-29.86,24.91-48.21,30.02-22.51,6.31-46.3-1.62-68.09-10.13-21.8-8.51-44.6-17.9-67.72-14.45-25.49,3.82-48.66,22.96-74.16,19.1v94c20.76-5.98,41.52-24.91,63.03-27.28,21.46-3.1,43.35-.86,63.74,6.52,13.66,5.35,25.99,13.74,39.69,18.93,12.83,4.74,26.53,6.62,40.16,5.5,13.63-1.12,26.85-5.21,38.73-11.98,9.92-5.73,22.51-23.58,32.8-28.56,10.3-4.98,30.47-9.76,40.44-4.15"/>
  <path class="cls-4" d="M685.14,739.66c-2.71-.67-5.51-.92-8.3-.75-2.99.32-5.94.95-8.81,1.87-3.62,1.18-7.37,1.94-11.17,2.24-7.04.35-14.01-1.48-19.97-5.23-2.56-1.37-4.72-3.37-6.27-5.81.25-.29,2.53,2.04,7.06,4.48,5.84,3.16,12.42,4.68,19.06,4.4,3.66-.29,7.28-.96,10.8-1.99,3-.87,6.1-1.37,9.22-1.5,1.48-.2,2.98-.1,4.42.29,1.44.39,2.79,1.07,3.96,1.99Z"/>
  <path class="cls-4" d="M685.14,778.11c-2.71-.67-5.51-.92-8.3-.75-2.99.32-5.94.95-8.81,1.87-3.62,1.19-7.37,1.94-11.17,2.24-7.04.35-14.01-1.48-19.97-5.23-2.56-1.37-4.72-3.37-6.27-5.81.25-.29,2.53,2.03,7.06,4.48,5.84,3.16,12.42,4.68,19.06,4.4,3.66-.29,7.28-.96,10.8-1.99,3-.87,6.1-1.37,9.22-1.49,1.48-.2,2.98-.1,4.42.29,1.44.39,2.79,1.07,3.96,1.99Z"/>
  <path class="cls-4" d="M679.46,792.27c-2.48.18-4.94.59-7.35,1.21-2.24.58-4.9,1.37-7.89,2.24-3.34,1.02-6.82,1.47-10.3,1.33-6.32-.23-12.44-2.21-17.69-5.73-4.15-2.74-5.73-5.19-5.52-5.36.21-.17,2.32,1.78,6.31,4.15,5.2,2.94,11.02,4.61,16.98,4.86,6.01-.31,11.97-1.28,17.77-2.91,1.87-.38,3.78-.51,5.69-.37,1.41.04,1.99.46,1.99.58Z"/>
  <path class="cls-4" d="M685.14,702.42c-2.72-.64-5.51-.89-8.3-.75-2.99.34-5.94.97-8.81,1.87-3.62,1.21-7.36,1.96-11.17,2.24-7.04.34-14.01-1.48-19.97-5.23-4.53-2.95-6.48-5.64-6.27-5.81.21-.16,2.53,2.04,7.06,4.48,5.83,3.18,12.42,4.7,19.06,4.4,3.66-.29,7.28-.96,10.8-1.99,3-.87,6.1-1.37,9.22-1.5,2.99-.37,6,.45,8.39,2.28Z"/>
  <path class="cls-4" d="M685.14,720.31c-2.72-.62-5.51-.87-8.3-.75-2.99.34-5.94.98-8.81,1.91-3.63,1.16-7.37,1.92-11.17,2.24-7.04.34-14.02-1.51-19.97-5.28-2.56-1.34-4.72-3.34-6.27-5.77.25-.29,2.53,2,7.06,4.48,5.84,3.16,12.42,4.69,19.06,4.4,3.66-.31,7.28-.99,10.8-2.03,3.01-.84,6.1-1.33,9.22-1.46,1.48-.19,2.98-.1,4.42.29,1.44.38,2.79,1.05,3.97,1.96Z"/>
  <path class="cls-4" d="M685.14,759.05c-2.72-.62-5.51-.87-8.3-.75-2.99.34-5.94.98-8.81,1.91-3.63,1.16-7.37,1.91-11.17,2.24-7.04.34-14.02-1.51-19.97-5.28-4.53-2.91-6.48-5.64-6.27-5.81.21-.16,2.53,2.03,7.06,4.48,5.83,3.2,12.42,4.73,19.06,4.44,3.66-.31,7.28-.99,10.8-2.04,3-.86,6.1-1.34,9.22-1.45,1.48-.19,2.98-.1,4.42.29,1.44.38,2.79,1.05,3.97,1.96Z"/>
  <path class="cls-12" d="M719.9,774.66c-.37,0,.33-4.57-.71-11.75-1.78-9.32-4.44-18.44-7.97-27.24-3.59-9.02-5.38-18.65-5.27-28.36.15-2.94.69-5.84,1.62-8.64.26-1.06.74-2.04,1.41-2.91-.81,3.83-1.31,7.72-1.49,11.63.35,9.45,2.3,18.77,5.77,27.57,3.6,8.92,6.09,18.25,7.43,27.78.32,2.91.32,5.85,0,8.76-.06,1.09-.33,2.16-.79,3.16Z"/>
  <path class="cls-12" d="M776.08,680.66c.55,1,.94,2.07,1.16,3.19.62,2.08,1.37,5.15,2.12,9.01,3.77,20.11,3.09,40.81-1.99,60.62-.75,2.99-1.65,5.94-2.7,8.84-.29,1.1-.76,2.15-1.37,3.12.64-4.19,1.5-8.35,2.57-12.46,2.07-9.86,3.29-19.87,3.65-29.94.28-10.05-.28-20.11-1.7-30.06-.82-4.07-1.4-8.19-1.74-12.33Z"/>
  <path class="cls-12" d="M862.15,796.58c-.85-.93-1.57-1.97-2.12-3.11-1.74-2.93-3.28-5.96-4.61-9.1-9.13-20.77-12.02-43.76-8.3-66.14.54-3.35,1.3-6.67,2.28-9.92.26-1.23.7-2.42,1.29-3.53.37,0-.96,5.23-2.08,13.7-1.34,11.03-1.34,22.18,0,33.22,1.43,11.03,4.22,21.84,8.31,32.18,3.12,7.85,5.64,12.5,5.23,12.7Z"/>
  <path class="cls-12" d="M928.05,680.58c-1.63,4.58-2.35,9.43-2.12,14.28.43,5.25,1.46,10.44,3.07,15.45,2.01,6.26,3.68,12.62,4.98,19.06,2.28,11.74,3.02,23.73,2.2,35.66-.33,4.57-.87,8.31-1.29,10.76-.15,1.32-.47,2.62-.96,3.86-.37,0,.41-5.65.71-14.7.38-11.8-.56-23.61-2.78-35.21-1.29-6.77-3.12-13.08-4.78-18.89-1.57-5.18-2.48-10.54-2.7-15.94-.1-3.68.49-7.34,1.75-10.8.35-1.31,1.01-2.52,1.91-3.53Z"/>
  <path class="cls-10" d="M963.86,553.39c-.86-.27-1.64-.76-2.26-1.42-.62-.66-1.06-1.47-1.28-2.35-.22-.88-.2-1.8.04-2.67.24-.87.71-1.67,1.35-2.31-2.66-1.47-1.9-5.71,0-7.93,1.9-2.22,5.1-3.59,6.75-6.17-.85.18-1.73.18-2.59,0-.85-.18-1.66-.54-2.36-1.05-.71-.51-1.3-1.16-1.74-1.92-.44-.75-.72-1.59-.81-2.46-1.14.09-2.27-.2-3.22-.82-.95-.62-1.67-1.55-2.04-2.62-.37-1.08-.37-2.25,0-3.32.37-1.08,1.08-2,2.04-2.63-2.87-.22-2.62-4.95-.25-6.57,2.65-1.08,5.37-1.98,8.15-2.69,4.73-5.3,11.01-8.99,17.94-10.55l-11.73-8.72c-.99-.6-1.79-1.46-2.33-2.48-1.04-2.33.79-4.92,2.73-6.57,4.12-3.52,9.19-5.74,14.57-6.39,1.72,0,3.91,0,4.45,1.72,3.79-1.41,7.87-1.87,11.88-1.33,2.27-.16,4.51.52,6.32,1.9-1.06-1.98-2.47-3.76-4.16-5.24-.85-.74-1.52-1.65-1.99-2.67-.47-1.02-.72-2.13-.73-3.25.22-2.26,2.94-4.2,4.81-2.91-2.12-1-1.83-4.34,0-5.81,1.95-1.24,4.26-1.82,6.57-1.65,1.62,0,3.59.25,4.09,1.79.3-.81.82-1.52,1.5-2.05s1.51-.84,2.37-.91c.86-.07,1.72.1,2.49.51.76.4,1.4,1.02,1.82,1.77.56-.5,1.22-.88,1.93-1.11.71-.24,1.46-.33,2.21-.27.75.06,1.47.27,2.14.62.66.35,1.25.83,1.72,1.41.89-.48,1.87-.78,2.87-.85,1.01-.08,2.02.05,2.97.39.95.34,1.82.87,2.55,1.57.73.7,1.31,1.54,1.69,2.48-2.05-3.59-4.13-7.18-6.21-10.48-1.18-1.97-1.4-5.67.9-5.42-.77-.13-1.5-.45-2.12-.91-.63-.47-1.13-1.07-1.48-1.77-.35-.7-.53-1.47-.53-2.25,0-.78.19-1.55.54-2.24.93-1.37,2.23-2.43,3.75-3.07,1.52-.64,3.2-.82,4.82-.52l2.83,4.09c1.1-.76,2.42-1.15,3.76-1.13,1.34.02,2.64.45,3.72,1.24,1.08.79,1.9,1.89,2.33,3.15.43,1.27.47,2.64.09,3.92.38-.29.82-.49,1.28-.6.46-.11.95-.12,1.41-.03.47.09.91.28,1.3.56s.72.63.96,1.04c.87,1.74,1.19,3.7.93,5.63.83-.55,1.8-.86,2.8-.91,1-.05,1.99.18,2.87.65.88.47,1.62,1.17,2.14,2.02.52.85.8,1.83.81,2.83,2.9-1.5,6.15-2.18,9.4-1.97-.73-1.18-1.05-2.58-.91-3.96.13-1.38.72-2.69,1.66-3.71.94-1.02,2.19-1.71,3.56-1.96,1.37-.25,2.78-.04,4.02.58.12-.91.45-1.77.94-2.54.49-.77,1.15-1.42,1.92-1.91.77-.49,1.64-.8,2.55-.92.91-.12,1.83-.04,2.7.24,1.01-3.8,6.03-6.6,9.04-4.09,3.01,2.51,1.47,7.61-.47,11.2l-6.24,11.7,20.35-10.77c.61-.39,1.32-.6,2.05-.61,1.01,0,1.69,1.04,2.55,1.47.86.43,2.73.29,4.05.72,3.59,1.08,3.59,6.57,1.08,9.44-2.87,2.41-5.88,4.65-9.01,6.71l9.04,1.72c.34-1.22.92-2.36,1.72-3.34.79-.98,1.78-1.8,2.9-2.38,1.12-.59,2.35-.94,3.61-1.04,1.26-.1,2.53.07,3.72.48,1.22-3.34,5.71-3.59,9.26-3.59,3.21-.25,6.41.7,8.97,2.66,1.29,1.59,2,3.57,2,5.62,0,2.05-.7,4.03-2,5.62-2.69,3.08-6.07,5.48-9.87,7,.61,2.73,4.13,3.59,6.85,3.16,2.65-.88,5.48-1.05,8.22-.5,3.59,1.33,5.02,5.88,8.58,7.18,1.12.23,2.2.59,3.23,1.08,1.24,1.07,2.02,2.57,2.19,4.2.43,1.97.86,3.91,1.33,5.88.28.95.36,1.96.22,2.94-.65,3.19-5.1,3.91-8.11,2.66-2.78-1.7-5.74-3.07-8.83-4.09,4.45,1.74,8.31,4.72,11.12,8.58,2.37,4.13,1.4,10.51-3.09,12.13-4.49,1.61-8.97-2.3-12.27-5.81-3.3-3.52-8.04-7.18-12.42-5.2"/>
  <path class="cls-10" d="M979.62,693.16c-.54,12.13-10.8,21.92-21.96,26.66-11.17,4.73-23.54,5.85-35.34,8.88-24.74,6.54-46.39,21.59-61.12,42.52-3.17,5.38-7.04,10.33-11.5,14.7-2.28,2.14-5.11,3.61-8.17,4.25-3.06.63-6.24.42-9.18-.63,7.72,17.16,20.23,31.72,36.04,41.94,4.64-5.74,11.1-9.71,18.31-11.25-1.82,7.1-3.53,15.2.42,21.38,2.53,3.28,5.78,5.92,9.51,7.72,6.04,3.49,12.1,6.88,18.19,10.17,2.93,1.94,6.33,3.03,9.84,3.15,7.72-.41,11.71-9.05,16.61-15.07,7.07-7.56,16.26-12.81,26.37-15.07,10.04-2.26,19.85-5.42,29.31-9.47,9.17-4.61,17.4-12.74,18.77-22.96"/>
  <path class="cls-10" d="M980.49,707.28s-.33.54-1.04,1.45c-1.09,1.3-2.32,2.48-3.65,3.53-4.99,3.83-10.78,6.48-16.94,7.76-9.04,1.85-18.27,2.54-27.49,2.08-11.08-.73-22.2.52-32.84,3.69-11.04,4.15-19.02,12.46-26.16,19.89-6.06,7.01-13.05,13.17-20.76,18.31-5.25,3.47-11.29,5.58-17.56,6.14-1.7.19-3.41.19-5.11,0-1.12-.21-1.74-.33-1.7-.41s2.41.25,6.73-.25c5.96-.91,11.64-3.17,16.61-6.6,7.43-5.27,14.17-11.45,20.05-18.4,7.02-7.39,15.16-16.19,26.83-20.55,10.88-3.26,22.26-4.5,33.59-3.66,9.08.56,18.2.03,27.15-1.58,5.96-1.12,11.62-3.48,16.61-6.93,3.98-2.7,5.52-4.61,5.69-4.48Z"/>
  <path class="cls-2" d="M1119.13,981.9c-8.99-1.31-17.49-4.92-24.67-10.48-7.19-5.56-12.82-12.88-16.35-21.24l-208.31-486.67c-.51-1.18-.53-2.52-.06-3.72.47-1.2,1.41-2.16,2.59-2.68,1.19-.51,2.53-.53,3.72-.06,1.2.47,2.16,1.41,2.67,2.59l208.35,486.84c2.2,5.35,5.45,10.2,9.55,14.27,4.1,4.07,8.98,7.28,14.35,9.44,5.37,2.16,11.11,3.22,16.89,3.13,5.78-.09,11.49-1.34,16.78-3.68,5.29-2.33,10.06-5.7,14.04-9.91,3.97-4.2,7.06-9.16,9.08-14.58,2.03-5.42,2.95-11.19,2.71-16.96-.24-5.78-1.63-11.45-4.09-16.68l-6.44-14.16c-.27-.58-.43-1.21-.46-1.85-.03-.64.07-1.28.28-1.88.22-.6.55-1.16.98-1.63s.96-.86,1.53-1.13c.58-.27,1.21-.43,1.85-.46s1.28.07,1.88.28c.6.22,1.16.55,1.63.98.47.43.86.96,1.13,1.53l6.44,14.16c2.97,6.54,4.59,13.62,4.75,20.8.16,7.18-1.15,14.32-3.84,20.99-2.69,6.66-6.7,12.71-11.8,17.78-5.09,5.06-11.17,9.04-17.85,11.69-8.68,3.46-18.11,4.59-27.36,3.28Z"/>
  <path class="cls-7" d="M1212.3,377.14c-30.85-.95-61.45,5.89-88.96,19.89-27.51,14-51.05,34.7-68.45,60.2,0,0-104.51-24.12-149.48,57.67,0,0-120.41-31.72-163.14,77.35,0,0-97.49-17.85-116.26,70.59,0,0-66.43-7.06-80.72,59.5,0,0-15.65-282.01,209.93-396.07,238.41-120.58,457.07,50.86,457.07,50.86Z"/>
  <path class="cls-10" d="M752.2,327.81c-.98.83-2.04,1.57-3.16,2.2-2.08,1.41-5.28,3.32-9.05,6.23-10.9,7.89-21.06,16.76-30.35,26.49-13.8,14.39-26.17,30.09-36.91,46.88-6.26,9.97-11.94,20.28-17.02,30.89-5.32,11.44-9.76,23.27-13.29,35.38-13.91,50.2-16.94,97.62-18.35,131.62-.62,17.07-.83,30.89-.96,40.44,0,4.57,0,8.31-.21,11,.02,1.28-.06,2.56-.25,3.82-.19-1.26-.27-2.54-.25-3.82,0-2.78,0-6.44-.29-11,0-9.55-.25-23.37,0-40.48.96-34.09,3.69-81.76,17.69-132.29,3.57-12.24,8.08-24.2,13.49-35.75,5.15-10.69,10.94-21.06,17.31-31.06,10.91-16.87,23.49-32.59,37.58-46.92,9.48-9.67,19.88-18.39,31.06-26.03,3.02-2.11,6.15-4.06,9.39-5.81,1.12-.72,2.32-1.31,3.57-1.79Z"/>
  <path class="cls-10" d="M752.2,327.81s-2.78,2.7-6.89,8.3c-5.66,7.92-9.88,16.77-12.45,26.16-3.71,13.89-5.97,28.12-6.73,42.48-1.33,16.28-2.28,34.26-2.45,53.11-.26,32.28,2.25,64.52,7.52,96.37,2.03,12.21,4.15,22.01,5.52,28.78.66,3.15,1.2,5.73,1.66,7.81.23.9.37,1.81.41,2.74-.43-.82-.73-1.71-.91-2.62-.58-2.03-1.29-4.61-2.16-7.72-1.71-6.68-4.15-16.61-6.31-28.65-5.82-31.83-8.6-64.14-8.31-96.49,0-18.98,1.21-37,2.66-53.32.88-14.55,3.37-28.97,7.44-42.97,2.75-9.5,7.26-18.4,13.29-26.24,1.65-2.11,3.48-4.07,5.48-5.85,1.41-1.33,2.16-1.95,2.24-1.87Z"/>
  <path class="cls-10" d="M761.75,323c.78.27,1.52.65,2.2,1.12,1.41.79,3.49,1.95,6.02,3.61,7.33,4.57,14.39,9.56,21.14,14.95,10.03,7.99,19.33,16.84,27.82,26.45,10.34,11.78,19.84,24.26,28.44,37.37,15.55,23.81,29.63,48.55,42.19,74.07,4.86,9.72,8.72,17.69,11.29,23.17l2.95,6.39c.4.72.7,1.48.87,2.28-.54-.61-.99-1.29-1.33-2.03l-3.36-6.19-12.04-22.8c-12.95-25.22-27.2-49.74-42.68-73.49-8.54-13.05-17.92-25.53-28.07-37.37-8.34-9.6-17.45-18.5-27.24-26.62-8.31-6.89-15.49-12.04-20.51-15.49-2.66-1.67-5.23-3.48-7.68-5.44Z"/>
  <path class="cls-10" d="M761.75,322.99c1.07-.54,2.18-.98,3.32-1.33,2.2-.79,5.39-2.03,9.63-3.36,11.97-3.82,24.25-6.6,36.71-8.3,18.53-2.62,37.37-2.08,55.72,1.58,22.38,4.85,43.96,12.83,64.11,23.71,47.64,25.86,88.27,62.91,118.42,107.96,2.53,3.65,4.15,6.64,5.52,8.59.66,1,1.24,2.04,1.75,3.12-.83-.87-1.56-1.81-2.2-2.82-1.37-1.87-3.24-4.78-5.85-8.31-5.15-7.18-12.83-17.48-23.17-29.44-26.78-31.35-59.17-57.44-95.5-76.94-19.92-10.78-41.25-18.75-63.36-23.67-18.11-3.71-36.71-4.43-55.06-2.12-12.45,1.58-24.76,4.11-36.83,7.56-4.15,1.2-7.51,2.28-9.76,2.91-1.12.41-2.27.7-3.45.87Z"/>
  <path class="cls-10" d="M1180.58,377.72s-.37,0-1-.5l-2.82-1.79-10.71-6.98-7.72-5.23-9.67-5.4c-6.81-4.15-14.49-8.59-23.46-12.87l-13.87-7.02c-4.94-2.24-10.13-4.4-15.49-6.73-10.55-4.94-22.42-8.84-34.67-13.45-27-8.91-54.67-15.63-82.75-20.1-28.16-4-56.61-5.5-85.04-4.48-13.04,1.08-25.49,1.54-37,3.61-5.77.87-11.38,1.54-16.61,2.53l-15.16,3.36c-8.72,1.9-17.34,4.25-25.83,7.02-3.73,1.16-7.26,2.16-10.46,3.24l-8.6,3.36-11.96,4.61-3.12,1.12c-.35.16-.73.27-1.12.33.3-.23.64-.42,1-.54l3.03-1.37,11.79-5.07,8.56-3.57c3.19-1.16,6.68-2.2,10.46-3.45,8.47-2.95,17.09-5.43,25.83-7.43l15.24-3.53c5.31-1.04,10.92-1.79,16.61-2.7,11.54-2.16,24.04-2.74,37.16-3.86,28.58-1.22,57.21.17,85.53,4.15,28.2,4.51,55.97,11.34,83.04,20.43,12.46,4.69,24.17,8.68,34.75,13.7,5.35,2.41,10.55,4.61,15.49,6.93l13.87,7.18c8.97,4.15,16.61,9.18,23.38,13.25l9.42,5.69,7.6,5.31,10.47,7.39,2.66,2c.43.22.82.5,1.16.83Z"/>
  <path class="cls-2" d="M609.62,484.77c-.67,1.91-1.56,3.74-2.66,5.44-1.87,3.4-4.44,8.3-7.52,14.66-16.01,32.55-26.05,67.71-29.65,103.8-.71,6.94-1.16,12.46-1.33,16.61,0,2.03-.22,4.04-.66,6.02-.4-2.13-.56-4.31-.46-6.48,0-3.9,0-9.55.54-16.61,2.62-36.5,12.78-72.06,29.86-104.43,3.28-6.14,6.1-11.05,8.31-14.33,1.02-1.69,2.22-3.26,3.57-4.69Z"/>
  <path class="cls-2" d="M631.38,446.65c.58.42-1.71,4.15-5.03,8.31-3.32,4.15-6.48,7.27-7.02,6.81-.54-.46,1.71-4.15,5.03-8.3,3.32-4.15,6.48-7.19,7.02-6.81Z"/>
  <path class="cls-7" d="M996.8,702.96c-27.61,8.31-45.92,35.21-53.98,62.82-8.06,27.61-8.31,56.93-13.2,85.37-12.46,77.11-56.64,145.53-106.88,205.37-50.24,59.83-107.71,113.56-154.71,175.97-47,62.41-84.08,136.23-84.37,214.46l363.02,26.74s17.07-340.47,49.12-403.67c32.06-63.2,66.85-156.83,67.76-188.51.91-31.68-16.02-164.38-16.02-164.38l-50.74-14.16Z"/>
  <path class="cls-7" d="M986.72,712.84s-58.13,2.78-90.35,80.8c-11.13,26.99-32.3,90.14-46.05,137.6-8.97,31.06-1.78,51.65,15.53,63.03,9.22,5.79,20.03,8.52,30.89,7.81l166.87-21.59-14.86-81.63-97.58,12.99,17.98-56.59,17.57-142.42Z"/>
  <path class="cls-10" d="M954.87,912.23c-6.87,2.49-13.26,6.14-18.89,10.79-5.18,5.18-9.39,11.24-12.45,17.9,0-2.25.58-4.46,1.66-6.44,2.12-4.97,5.29-9.42,9.3-13.04,3.97-3.71,8.68-6.54,13.83-8.31,2.09-.8,4.33-1.12,6.56-.91Z"/>
  <path class="cls-10" d="M1047.21,902.72c-.63.23-1.29.37-1.95.42l-5.65.75-20.76,2.41-70.01,7.39h-1.66l.54-1.57c.87-2.62,1.78-5.44,2.74-8.31,9.34-28.24,17.94-53.98,24.25-72.25,3.15-8.97,5.73-16.36,7.6-21.8l2.16-5.9c.22-.71.52-1.4.91-2.03-.05.74-.22,1.47-.5,2.16-.46,1.62-1.04,3.61-1.74,6.02l-7.14,22.42c-5.94,18.56-14.29,44.18-23.67,72.45l-2.74,8.31-1.12-1.41,70.09-6.68,20.97-1.75,5.69-.37c.65-.19,1.32-.28,2-.25Z"/>
  <path class="cls-10" d="M1047.21,902.72c.21.46.36.95.46,1.45.25,1.16.58,2.57,1,4.15.87,4.15,2.07,9.47,3.53,16.28l11.92,57.63.21,1h-1.04c-18.39,2.32-39.36,4.65-61.49,6.89l-55.47,5.6-24.21,2.66c-7.56.87-14.61,1.78-21.14,2.16-10.32,1.08-20.74-.23-30.47-3.82-2.59-1.12-5.06-2.51-7.35-4.15-.82-.55-1.57-1.19-2.24-1.91,3.13,2.04,6.45,3.76,9.92,5.15,9.66,3.2,19.91,4.25,30.02,3.07,6.44-.46,13.45-1.45,21.05-2.41l24.17-2.87c17.07-1.91,35.84-3.78,55.52-5.77,22.13-2.24,43.06-4.44,61.45-6.69l-.83,1.16c-4.53-23.54-8.31-43.47-11.13-57.76-1.29-6.89-2.29-12.45-3.03-16.61-.29-1.75-.5-3.16-.71-4.36-.21-1.2-.21-.87-.12-.87Z"/>
  <path class="cls-10" d="M895.82,1090.97c-3.06,2.46-6.37,4.59-9.88,6.35-8.22,4.82-17.06,8.47-26.28,10.83-9.36,2.32-19.2,1.95-28.36-1.08-2.75-.94-5.37-2.25-7.76-3.9-1.7-1.16-2.49-1.99-2.41-2.07,3.44,1.74,6.99,3.25,10.63,4.53,8.96,2.47,18.41,2.62,27.44.41,9.03-2.36,17.77-5.75,26.03-10.09,3.39-1.94,6.93-3.6,10.58-4.98Z"/>
  <path class="cls-10" d="M967.37,1084.95c-2.22-.31-4.47.05-6.48,1.04-1,.57-1.87,1.34-2.54,2.27-.67.93-1.14,2-1.36,3.12-.04,1.35.29,2.68.96,3.85.67,1.17,1.65,2.13,2.84,2.77,1.19.64,2.53.94,3.87.87,1.34-.07,2.64-.52,3.75-1.29.82-.8,1.45-1.76,1.86-2.83.41-1.07.58-2.21.5-3.35-.24-2.23-1.16-4.34-2.66-6.02,0,0,.79,0,1.79.96,1.33,1.31,2.18,3.04,2.41,4.9.22,1.41.09,2.85-.35,4.21-.45,1.36-1.21,2.59-2.22,3.6-1.4,1.1-3.09,1.78-4.86,1.93-1.78.15-3.56-.22-5.12-1.06-1.56-.85-2.85-2.14-3.69-3.71-.84-1.57-1.2-3.35-1.03-5.13.29-1.39.9-2.69,1.79-3.81s2.03-2,3.32-2.59c1.69-.83,3.6-1.06,5.44-.66,1.29.37,1.83.87,1.79.96Z"/>
  <path class="cls-10" d="M938.84,1218.19c-2.21-.34-4.48.02-6.48,1.04-1,.57-1.87,1.34-2.54,2.28-.67.93-1.14,2-1.36,3.12-.04,1.35.29,2.68.96,3.85.67,1.17,1.65,2.13,2.84,2.77,1.18.64,2.52.94,3.87.87,1.34-.07,2.64-.52,3.75-1.29.82-.8,1.45-1.76,1.86-2.83.41-1.07.58-2.21.51-3.35-.23-2.24-1.16-4.35-2.66-6.02,0,0,.79,0,1.79.96,1.33,1.32,2.18,3.04,2.41,4.9.22,1.41.09,2.85-.35,4.21-.45,1.36-1.21,2.59-2.22,3.6-1.4,1.1-3.09,1.78-4.86,1.93-1.78.15-3.56-.22-5.12-1.07-1.57-.85-2.85-2.14-3.69-3.71-.84-1.57-1.2-3.35-1.03-5.13.29-1.4.91-2.7,1.8-3.82.9-1.11,2.04-2,3.35-2.58,1.69-.83,3.6-1.06,5.44-.66,1.25.33,1.78.87,1.74.96Z"/>
  <path class="cls-10" d="M923.31,1358.82c-2.22-.36-4.49,0-6.48,1.04-1,.55-1.86,1.32-2.53,2.25-.67.93-1.12,1.99-1.33,3.11-.05,1.35.27,2.68.94,3.85.67,1.17,1.65,2.13,2.83,2.78,1.18.64,2.52.94,3.87.87,1.34-.08,2.64-.53,3.74-1.3.84-.79,1.48-1.75,1.9-2.82.42-1.07.59-2.22.5-3.37-.24-2.22-1.17-4.31-2.66-5.98,0,0,.75,0,1.75.96,1.36,1.29,2.21,3.03,2.41,4.9.22,1.41.1,2.85-.34,4.2-.44,1.35-1.19,2.59-2.19,3.6-1.4,1.1-3.09,1.76-4.87,1.92-1.77.15-3.55-.22-5.12-1.07-1.57-.85-2.85-2.13-3.69-3.7-.85-1.57-1.22-3.35-1.06-5.12.31-1.39.94-2.7,1.83-3.81.89-1.12,2.03-2.01,3.32-2.62,1.69-.84,3.61-1.06,5.44-.62,1.29.34,1.79.87,1.75.96Z"/>
  <path class="cls-12" d="M948.06,1425.3s-.25,0-.79.54l-2.45,1.46c-3.23,1.75-6.64,3.14-10.17,4.15-5.65,1.45-11.48,2.11-17.32,1.95-7.69-.29-15.32-1.53-22.71-3.69-8.94-2.63-17.6-6.1-25.87-10.38-8.97-4.53-18.19-9.88-28.15-15.03-10.23-5.62-21.11-9.98-32.38-12.99-12.14-2.95-24.78-3.12-37-.5-12.26,2.71-24.25,6.52-35.83,11.38-11.38,4.44-22.34,8.88-33.22,12.16-10.22,3.25-20.84,5.1-31.56,5.48-9.33.22-18.66-.69-27.78-2.74-13.17-3.03-25.67-8.46-36.87-16.03-3.05-2.02-5.96-4.24-8.72-6.64l-2.12-1.91c-.46-.46-.71-.67-.66-.71l.83.54,2.24,1.74c2.85,2.24,5.82,4.33,8.88,6.27,11.27,7.21,23.72,12.37,36.79,15.24,8.99,1.94,18.18,2.76,27.36,2.45,10.55-.45,20.98-2.34,31.02-5.61,10.71-3.28,21.59-7.72,32.97-12.21,11.71-4.9,23.84-8.72,36.25-11.42,12.53-2.67,25.5-2.49,37.95.54,11.42,3.09,22.42,7.55,32.76,13.29,10.01,5.23,19.18,10.63,28.03,15.2,8.15,4.31,16.68,7.84,25.49,10.55,7.26,2.23,14.76,3.54,22.34,3.9,5.73.27,11.47-.25,17.07-1.54,4.7-1.36,9.27-3.18,13.62-5.44Z"/>
  <path class="cls-12" d="M950.92,1406.33c-.26.2-.56.35-.87.46l-2.62,1.21c-3.44,1.36-7.02,2.35-10.67,2.95-13.56,1.78-27.35.08-40.07-4.94-8.82-3.17-17.35-7.1-25.49-11.75-8.84-4.82-18.06-10.34-28.03-15.53-10.31-5.67-21.36-9.87-32.84-12.46-12.36-2.27-25.05-2.14-37.37.37-25.53,4.78-48.21,15.66-69.84,22.42-10.22,3.41-20.75,5.83-31.43,7.22-9.36,1.17-18.85.88-28.11-.87-13.54-2.29-26.03-8.7-35.79-18.35-2.54-2.68-4.79-5.63-6.69-8.81l-1.33-2.57-.41-.87c2.61,4.17,5.64,8.07,9.05,11.63,9.77,9.29,22.14,15.39,35.46,17.48,9.12,1.6,18.43,1.8,27.61.58,10.55-1.45,20.93-3.9,31.02-7.31,21.47-6.85,44.14-17.81,70.09-22.71,12.61-2.57,25.59-2.66,38.24-.29,11.6,2.56,22.78,6.76,33.22,12.45,10.05,5.28,19.22,10.88,27.99,15.78,8.06,4.63,16.47,8.6,25.16,11.88,12.48,5.05,26.01,6.95,39.4,5.52,4.88-.7,9.67-1.87,14.33-3.48Z"/>
  <path class="cls-13" d="M1061.45,968.78l-10.76-51.9,12.79-4.61c6.27-4.32,12.13-9.2,17.52-14.58,2.82-2.74,5.15-5.94,6.89-9.47,2.3-4.28,4.01-8.85,5.11-13.58-.01-.98.29-1.94.88-2.73.58-.79,1.41-1.36,2.35-1.64.94-.27,1.95-.23,2.87.13.91.35,1.69,1,2.21,1.83,1.99,3.53.83,15.82-6.73,28.15-5.07,8.31,3.03,7.56,11.25,5.4,2.95-.74,6.07-.38,8.77,1.02,2.7,1.4,4.79,3.74,5.89,6.57l6.64,17.32c1,2.61,1.46,5.39,1.34,8.19-.12,2.79-.8,5.53-2.01,8.05-1.21,2.51-2.93,4.76-5.04,6.59-2.12,1.83-4.58,3.2-7.24,4.04l-6.35,2-47.75,9.47"/>
  <path class="cls-13" d="M1012.54,510.05v13.08l-3.7,196.02c-.33,22.76,21.43,42.1,45.67,42.23,24.58,0,34.59-18.27,35.29-41.23.75-24.08,1.95-49.45,1.95-49.45,0,0,31.18-4.15,38.74-44.6,3.74-20.05,3.66-53.11,2.7-80.13-.87-24.33-21.39-55.85-45.67-53.98l-74.99,18.06Z"/>
  <path class="cls-10" d="M1124.65,569.76c0,1.36-.53,2.66-1.47,3.64-.94.97-2.23,1.54-3.59,1.59-.66.04-1.32-.06-1.95-.28-.62-.22-1.2-.57-1.69-1.02-.49-.45-.88-.99-1.15-1.6-.28-.6-.43-1.26-.44-1.92.02-1.35.57-2.65,1.53-3.6.96-.95,2.26-1.49,3.62-1.5,1.3-.04,2.57.42,3.53,1.3.96.88,1.54,2.09,1.62,3.4Z"/>
  <path class="cls-10" d="M1125.52,562.95c-.66.66-4.53-2.37-10.09-2.49-5.56-.12-9.76,2.53-10.38,1.83-.62-.71.41-1.5,2.24-2.74,2.46-1.62,5.36-2.44,8.31-2.33,2.9.09,5.7,1.07,8.01,2.82,1.7,1.37,2.24,2.49,1.91,2.91Z"/>
  <path class="cls-10" d="M1069.14,568.51c-.02,1.35-.57,2.65-1.54,3.6-.96.95-2.26,1.49-3.61,1.5-.66.03-1.32-.06-1.95-.29-.62-.22-1.19-.57-1.68-1.02-.49-.45-.88-.99-1.16-1.59-.28-.6-.43-1.25-.45-1.91.03-1.35.59-2.64,1.55-3.59.96-.95,2.25-1.5,3.6-1.52.66-.04,1.33.06,1.95.28.63.22,1.2.57,1.69,1.02.49.45.88.99,1.15,1.6.27.6.42,1.26.44,1.92Z"/>
  <path class="cls-10" d="M1070.59,562.53c-.66.66-4.53-2.37-10.13-2.49-5.61-.12-9.76,2.53-10.34,1.83-.58-.71.37-1.5,2.2-2.78,2.47-1.59,5.37-2.39,8.31-2.28,2.92.07,5.73,1.06,8.06,2.82,1.66,1.33,2.2,2.57,1.91,2.91Z"/>
  <path class="cls-10" d="M1089.69,604.47c2.98-.8,6.05-1.26,9.14-1.37,1.41,0,2.78-.37,3.07-1.33.12-1.43-.17-2.87-.83-4.15-1.29-3.49-2.57-7.18-4.15-11-3.67-9.31-6.57-18.91-8.68-28.69,4.38,9.01,8.05,18.36,10.96,27.94,1.33,3.86,2.57,7.51,3.74,11.04.84,1.74,1.04,3.73.58,5.61-.22.49-.55.93-.96,1.28-.41.35-.89.61-1.41.76-.8.19-1.63.28-2.45.25-3,.28-6.03.17-9.01-.33Z"/>
  <path class="cls-3" d="M1091.72,670.7c-19.13-.19-37.82-5.71-53.98-15.95,0,0,12.46,28.19,53.02,25.49l.96-9.55Z"/>
  <path class="cls-11" d="M1086.99,617.88c-1.01-1.39-2.36-2.51-3.92-3.23-1.56-.73-3.28-1.04-5-.92-1.24.08-2.45.4-3.57.96-1.11.56-2.1,1.33-2.91,2.28-.77.91-1.24,2.04-1.35,3.23-.11,1.19.15,2.38.73,3.42.88,1.03,2.04,1.78,3.34,2.14,1.3.36,2.68.32,3.97-.1,2.66-.89,5.12-2.3,7.22-4.15.63-.45,1.19-1,1.66-1.62.21-.31.31-.67.31-1.04s-.11-.73-.31-1.04"/>
  <path class="cls-10" d="M1073.16,607.91c.91,0,.75,6.02,5.81,10.47,5.07,4.44,11.54,4.15,11.58,4.82.04.66-1.49,1.12-4.15,1.12-3.56-.03-6.98-1.32-9.67-3.65-2.58-2.25-4.2-5.39-4.53-8.8-.21-2.53.54-4.03.96-3.95Z"/>
  <path class="cls-10" d="M1072.33,546.21c-.58,1.54-6.15.66-12.71,1.25-6.56.58-11.96,2.24-12.79.87-.37-.66.62-2.08,2.78-3.49,2.91-1.72,6.17-2.76,9.53-3.03,3.37-.28,6.75.22,9.9,1.46,2.37,1.04,3.53,2.24,3.28,2.95Z"/>
  <path class="cls-10" d="M1125.73,551.65c-1.25,1.25-5.9,0-11.5-.41-5.61-.42-10.42.58-11.5-.79-.46-.66.33-1.91,2.45-3.03,2.93-1.37,6.15-2,9.38-1.83,3.23.16,6.37,1.12,9.14,2.78,1.95,1.37,2.57,2.7,2.04,3.28Z"/>
  <path class="cls-4" d="M1028.24,756.89c-3.9,29.81-9.22,62.28-31.89,82.25-12.04,10.51-27.57,16.03-40.86,24.92-11.4,7.77-20.98,17.93-28.05,29.78-7.07,11.85-11.47,25.09-12.89,38.82,26.51,15.94,55.28,27.8,85.33,35.17,4.48-26.91,24.91-48.04,45.67-65.9,20.76-17.85,43.14-35.29,54.56-60.04,15.2-33.01,7.47-71.58-1.58-106.79"/>
  <path class="cls-4" d="M918.79,920.28c-.51,3.35-.75,6.74-.71,10.13,0,3.15.54,6.89.5,11.21.17,4.82-1.13,9.57-3.73,13.62-3.03,3.72-6.98,6.58-11.46,8.3-3.42,1.33-6.66,3.06-9.67,5.15-2.7,1.99-4.78,4.71-5.98,7.85-.12-.96.02-1.94.41-2.82.97-2.44,2.56-4.59,4.61-6.23,2.98-2.35,6.26-4.29,9.76-5.77,4.11-1.61,7.75-4.22,10.59-7.6,2.34-3.73,3.55-8.06,3.49-12.45v-11.17c-.29-3.55.48-7.1,2.2-10.22Z"/>
  <path class="cls-4" d="M942.08,933.73c-.45,3.37-.67,6.77-.66,10.17,0,3.12.5,6.89.46,11.21.16,4.79-1.13,9.53-3.69,13.58-3.03,3.74-7,6.61-11.5,8.31-3.41,1.35-6.65,3.08-9.67,5.15-2.67,2.01-4.73,4.73-5.94,7.85,0,0-.21-1.04.37-2.78.96-2.45,2.55-4.59,4.61-6.23,2.98-2.37,6.28-4.31,9.8-5.77,4.08-1.63,7.7-4.25,10.54-7.6,2.35-3.72,3.56-8.06,3.49-12.46v-11.13c-.28-3.57.49-7.15,2.2-10.3Z"/>
  <path class="cls-4" d="M965.95,948.31c-.5,3.37-.74,6.77-.71,10.17,0,3.16.5,6.89.46,11.21.19,4.8-1.1,9.54-3.7,13.58-3.03,3.75-7,6.61-11.5,8.31-3.4,1.35-6.63,3.09-9.63,5.19-2.7,1.99-4.78,4.71-5.98,7.85-.15-.96,0-1.95.41-2.82.94-2.45,2.54-4.61,4.61-6.23,2.97-2.36,6.26-4.31,9.76-5.77,4.1-1.62,7.74-4.23,10.59-7.6,2.32-3.73,3.52-8.06,3.44-12.46v-11.13c-.25-3.58.53-7.15,2.24-10.3Z"/>
  <path class="cls-4" d="M991.2,961.8c-.51,3.35-.73,6.74-.66,10.13,0,3.16.5,6.94.46,11.21.17,4.82-1.14,9.57-3.74,13.62-3.02,3.73-6.97,6.59-11.46,8.3-3.42,1.33-6.67,3.06-9.67,5.15-2.7,1.99-4.76,4.72-5.94,7.85,0,0-.21-1.04.38-2.82.97-2.44,2.56-4.59,4.61-6.23,2.98-2.35,6.26-4.29,9.76-5.77,4.1-1.61,7.74-4.2,10.59-7.56,2.32-3.73,3.54-8.06,3.49-12.45v-11.17c-.29-3.56.47-7.13,2.2-10.26Z"/>
  <path class="cls-12" d="M1070.42,879.22c-3.07-2.59-5.98-5.37-8.72-8.31-6.97-6.68-14.41-12.85-22.26-18.48-7.93-5.59-16.26-10.6-24.92-14.99-3.65-1.67-7.21-3.53-10.67-5.56,3.94.91,7.74,2.31,11.33,4.15,8.9,4.03,17.38,8.93,25.33,14.61,7.95,5.67,15.34,12.08,22.09,19.14,2.98,2.81,5.6,5.97,7.81,9.43Z"/>
  <path class="cls-12" d="M1029.94,915.13c-.37,0-2.07-4.44-6.52-10.83-5.95-8.23-13.2-15.44-21.47-21.34-9.59-7.06-19.02-12.45-25.66-16.61-3.72-2.06-7.22-4.51-10.42-7.31,3.87,1.75,7.61,3.76,11.21,6.02,9.03,4.91,17.76,10.34,26.16,16.27,8.47,6.03,15.74,13.58,21.47,22.26,1.65,2.63,3.04,5.41,4.15,8.31.54,1.01.91,2.1,1.08,3.24Z"/>
  <path class="cls-12" d="M1008.64,943.24c-1.28.1-2.57-.01-3.82-.33-3.44-.54-6.85-1.26-10.22-2.16-11.14-2.97-21.86-7.35-31.89-13.04-10.04-5.73-19.32-12.71-27.61-20.76-2.5-2.42-4.87-4.97-7.1-7.64-.9-.93-1.67-1.97-2.28-3.12.29-.25,3.95,3.82,10.47,9.63,16.95,15.24,37.03,26.58,58.84,33.22,8.3,2.78,13.7,3.86,13.62,4.19Z"/>
  <path class="cls-12" d="M1106.46,815.4c-1.06.57-2.22.97-3.41,1.16-3.13.86-6.32,1.5-9.55,1.91-10.7,1.44-21.55,1.2-32.18-.71-10.63-1.95-20.9-5.52-30.44-10.59-2.87-1.55-5.64-3.26-8.31-5.15-1.87-1.37-2.82-2.16-2.74-2.28.08-.13,4.44,2.49,11.75,6.06,19.16,9.29,40.5,13.14,61.7,11.13,8.14-.75,13.08-1.91,13.16-1.54Z"/>
  <path class="cls-4" d="M988.21,654.58c2.33-9.76,8.93-14.12,17.9-18.64,15.11-7.6,33.22-3.24,49.49,1.25,16.27,4.48,34.38,8.76,49.45,1.08,6.35-3.24,11.58-8.31,17.73-12.08,6.14-3.78,14.16-5.65,20.39-2.08,7.64,4.4,8.97,15.11,6.93,23.71-2.03,8.59-6.56,16.61-7.35,25.45-.79,8.84,2.57,18.39,3.49,27.65,2.16,21.42-9.67,42.89-27.32,55.18-18.23,11.84-40.13,16.7-61.66,13.7-17.31-1.72-33.84-8.07-47.83-18.4-14.01-10.43-23.71-25.65-27.24-42.76-3.45-18.39,1.45-37.37,6.35-55.27"/>
  <path class="cls-10" d="M1116.68,756.35s-.96.91-2.87,2.24c-2.73,1.87-5.61,3.54-8.59,4.98-19.94,9.7-42.78,11.64-64.07,5.44-3.19-.9-6.3-2.06-9.3-3.44-1.14-.43-2.22-1.01-3.2-1.75,0-.37,4.9,1.7,12.91,3.74,21.01,5.21,43.16,3.32,62.99-5.36,7.6-3.36,11.88-6.19,12.12-5.85Z"/>
  <path class="cls-10" d="M1143.54,692.78s-.41.46-1.33,1.12c-1.32.94-2.71,1.79-4.15,2.53-5.37,2.8-11.14,4.76-17.11,5.81-19.8,3.07-40.04,1.58-59.17-4.36-19.16-5.7-36.97-15.19-52.4-27.9-4.63-3.85-9-8.01-13.08-12.46-1.53-1.58-2.92-3.29-4.15-5.11,1.72,1.37,3.32,2.88,4.78,4.53,3.03,2.95,7.51,7.14,13.41,11.88,15.5,12.2,33.17,21.36,52.07,26.99,18.8,5.8,38.62,7.48,58.13,4.94,5.88-.93,11.6-2.63,17.02-5.07,3.9-1.74,5.85-3.03,5.98-2.91Z"/>
  <path class="cls-12" d="M1016.03,674.64c.33,0-1.16,4.15-2.87,11.25-4.56,18.06-5.08,36.9-1.54,55.18.96,3.75,1.72,7.54,2.28,11.38-1.74-3.5-3.01-7.21-3.78-11.04-2.21-9.19-3.21-18.62-2.99-28.07.25-9.43,1.74-18.78,4.44-27.82.96-3.82,2.45-7.48,4.44-10.88Z"/>
  <path class="cls-12" d="M1048.04,635.36c-2,1.83-3.92,3.75-5.73,5.77-3.88,5.21-6.14,11.45-6.52,17.94-.24,6.56.37,13.11,1.83,19.51.75,2.71,1.19,5.5,1.33,8.31-1.33-2.45-2.28-5.08-2.82-7.81-1.93-6.5-2.77-13.28-2.49-20.06.38-6.91,3.02-13.51,7.52-18.77,1.71-2.33,4.13-4.05,6.89-4.9Z"/>
  <path class="cls-12" d="M1068.59,769.81s-1.25,0-3.16-.71c-2.66-1.35-4.82-3.51-6.14-6.19-1.82-3.92-2.87-8.14-3.11-12.46-.58-4.73-1.08-9.92-1.5-15.41-.87-11-1.16-20.76-1.12-28.15-.22-3.9-.01-7.81.62-11.67.61,3.85.91,7.73.91,11.63.33,7.18.87,17.11,1.75,28.03.46,5.4.87,10.55,1.29,15.36.15,4.12,1.01,8.17,2.53,12,1.11,2.51,2.91,4.65,5.19,6.19,1.66.96,2.78,1.21,2.74,1.37Z"/>
  <path class="cls-12" d="M1112.28,700.63c1.15,3.03,1.82,6.23,1.99,9.47.8,7.79.58,15.65-.66,23.38-1.23,7.72-3.51,15.23-6.77,22.34-1.18,3.01-2.84,5.82-4.9,8.31,4.24-9.98,7.44-20.37,9.55-31.02,1.35-10.77,1.61-21.65.79-32.47Z"/>
  <path class="cls-12" d="M1089.4,643.83s.83.33,1.7,1.58c1.18,1.82,1.84,3.93,1.91,6.1.09,3.1-.15,6.21-.71,9.26-.46,3.36-.83,7.1-1.08,11.04-1.04,15.74,1.21,28.44.54,28.57-1.06-2.65-1.71-5.45-1.91-8.31-.97-6.76-1.23-13.61-.79-20.43.23-3.76.66-7.5,1.29-11.21.63-2.94,1-5.92,1.12-8.93,0-2.7-.71-5.35-2.07-7.68Z"/>
  <path class="cls-12" d="M1127.47,624.19s1.25,0,3.11.96c2.57,1.62,4.52,4.06,5.52,6.93,1.37,4.27,1.37,8.85,0,13.12-1.16,4.78-3.44,9.63-5.02,14.86-3.7,10.47,1.58,20.22,1.29,27.74.12,2.98-.5,5.95-1.79,8.64-1,1.87-1.91,2.66-1.99,2.57,1.75-3.44,2.53-7.28,2.24-11.13-.46-4.21-1.23-8.37-2.32-12.46-.53-2.54-.83-5.13-.87-7.72.09-2.82.54-5.61,1.37-8.31,1.66-5.44,4.15-10.22,5.19-14.78,1.27-3.91,1.37-8.11.29-12.08-.8-2.66-2.4-5-4.57-6.73-1.37-1-2.49-1.46-2.45-1.62Z"/>
  <path class="cls-12" d="M998.55,661.31c-.5-1.82-.5-3.74,0-5.56.9-4.48,2.73-8.72,5.36-12.46,2.6-3.74,5.94-6.92,9.8-9.34,2.99-1.78,5.11-2.37,5.19-2.12-4.96,3.59-9.41,7.86-13.2,12.66-3.15,5.25-5.56,10.91-7.14,16.82Z"/>
  <path class="cls-7" d="M1674.06,1732.49c-2.62-10.34,4.15-20.76,11.88-28.15,7.72-7.39,16.61-14.12,20.76-24,6.48-16.07-1.99-36.91,9.01-50.24,6.48-7.89,18.02-10.46,23.75-18.85,2.67-4.64,4.45-9.74,5.23-15.03,6.23-26.67,19.51-51.18,38.45-70.96,1.13,23.8-4.16,47.46-15.32,68.51-4.44,8.31-9.92,16.61-11.46,25.99-2.49,15.28,5.98,31.06,2.12,46.05-4.36,17.15-23.71,28.52-24.92,46.17-.83,14.91,12.08,28.11,11.05,43.02-.82,6.34-3.13,12.4-6.73,17.69-11.67,19.1-28.69,32.22-54.43,31.64l-31.47.96,22.09-72.79Z"/>
  <g class="cls-16">
    <path class="cls-1" d="M1674.06,1732.49c-2.62-10.34,4.15-20.76,11.88-28.15,7.72-7.39,16.61-14.12,20.76-24,6.48-16.07-1.99-36.91,9.01-50.24,6.48-7.89,18.02-10.46,23.75-18.85,2.67-4.64,4.45-9.74,5.23-15.03,6.23-26.67,19.51-51.18,38.45-70.96,1.13,23.8-4.16,47.46-15.32,68.51-4.44,8.31-9.92,16.61-11.46,25.99-2.49,15.28,5.98,31.06,2.12,46.05-4.36,17.15-23.71,28.52-24.92,46.17-.83,14.91,12.08,28.11,11.05,43.02-.82,6.34-3.13,12.4-6.73,17.69-11.67,19.1-28.69,32.22-54.43,31.64l-31.47.96,22.09-72.79Z"/>
  </g>
  <path class="cls-10" d="M1645.78,1806.06c-2.87.41-5.79.33-8.64-.25-3.48-.53-6.91-1.41-10.22-2.62-4.51-1.62-8.73-3.99-12.45-7.02-2.27-1.85-4.04-4.23-5.15-6.93-.94-3.06-1.43-6.23-1.46-9.43-.02-3.41-.24-6.82-.66-10.21-.6-3.59-1.88-7.03-3.78-10.13-3.69-6.56-9.8-12.74-11.75-21.63-1.95-8.89-.5-18.1,1-27.57,1.5-9.47,2.99-19.72-.54-29.6-3.53-9.88-10.17-18.77-13.58-29.9-3.4-11.13-1.7-23.3-2.37-35.17-.24-6.06-1.65-12.01-4.15-17.52-2.53-5.6-6.02-10.88-8.76-16.61-5.52-11.92-6.44-25.37-7.89-38.53-.71-6.64-1.41-13.37-2.16-20.14-.41-6.82-1.54-13.59-3.37-20.18-2.1-6.64-4.58-13.16-7.43-19.52-1.47-3.3-2.66-6.72-3.57-10.22-.52-3.59-.84-7.21-.96-10.83-.32-7.27,0-14.55.96-21.76.87-7.26,2.24-14.49,3.07-21.76v-2.7l1.29.66c6.67,3.43,12.45,8.36,16.9,14.41,4.34,5.88,7.81,12.36,10.3,19.23,4.42,13.45,7.61,27.28,9.55,41.31,1.91,13.38,6.23,26.31,12.74,38.16,3.41,5.6,7.56,10.75,11.17,16.23,3.88,5.35,6.51,11.49,7.72,17.98,1.78,13.33-5.61,24.91-4.15,36.79.69,5.81,2.61,11.4,5.64,16.4,2.82,5.03,6.15,9.72,9.34,14.45,3.21,4.59,5.99,9.47,8.31,14.57,2.2,4.99,3.48,10.33,3.78,15.78.71,10.63-.87,20.76,0,30.23.81,9.05,3.4,17.85,7.6,25.91,3.78,7.76,7.97,14.78,11.5,21.59,1.74,3.28,3.31,6.64,4.69,10.09,1.25,3.22,2.17,6.56,2.74,9.97.85,5.96.85,12.01,0,17.98-.9,8.31-4.06,16.2-9.13,22.84-.79.99-1.65,1.92-2.57,2.78-.63.65-1.33,1.23-2.07,1.74l-1.83,1.25c2.26-1.78,4.32-3.8,6.14-6.02,4.89-6.65,7.89-14.5,8.68-22.71.75-5.88.65-11.83-.29-17.69-.59-3.34-1.51-6.6-2.74-9.76-1.33-3.24-2.95-6.56-4.73-9.92-3.57-6.77-7.81-13.74-11.63-21.59-4.35-8.18-7.03-17.14-7.89-26.37-.79-9.72.75-19.8,0-30.19-.32-5.28-1.59-10.45-3.73-15.28-2.32-5.01-5.1-9.79-8.31-14.28-3.16-4.65-6.52-9.39-9.42-14.54-3.18-5.18-5.2-10.99-5.94-17.02-1.45-12.46,5.89-24.33,4.15-36.71-1.2-6.22-3.75-12.11-7.47-17.23-3.57-5.35-7.72-10.5-11.25-16.27-6.65-12.05-11.05-25.2-12.99-38.82-1.97-13.9-5.15-27.6-9.51-40.94-2.45-6.69-5.83-12.99-10.05-18.73-4.26-5.78-9.79-10.51-16.15-13.83l1.45-.79v1.29c-.83,7.35-2.2,14.58-3.07,21.76-.92,7.1-1.24,14.27-.96,21.43,0,3.53.37,7.22.91,10.54.9,3.36,2.06,6.63,3.48,9.8,2.86,6.44,5.35,13.04,7.48,19.76,1.86,6.68,3,13.55,3.4,20.47.75,6.81,1.46,13.54,2.12,20.18,1.45,13.24,2.37,26.45,7.68,37.95,2.62,5.69,6.1,11,8.72,16.61,2.53,5.73,3.94,11.89,4.15,18.14.62,12.17-1.04,24.04,2.2,34.79,3.24,10.75,10.01,19.72,13.41,29.9,3.41,10.17,2.07,20.76.5,30.31-2.06,8.91-2.36,18.13-.87,27.15,1.78,8.31,7.72,14.62,11.46,21.34,1.98,3.24,3.29,6.84,3.86,10.58.41,3.42.62,6.86.62,10.3-.03,3.11.4,6.2,1.29,9.18,1.04,2.57,2.69,4.86,4.82,6.64,3.74,3,7.95,5.37,12.46,7.01,3.25,1.27,6.61,2.21,10.05,2.78,2.11.4,4.25.63,6.39.66l1.91-.04Z"/>
  <path class="cls-10" d="M1548.42,1434.48c.13.31.23.63.29.96,0,.79.41,1.71.71,2.87.58,2.45,1.29,6.23,2.45,10.92,1.16,4.69,4.15,9.97,6.48,16.61,2.32,6.64,5.02,13.95,7.35,22.38,2.33,8.43,4.4,17.73,6.6,27.74,1.85,10.68,5.18,21.05,9.88,30.81,2.57,5.11,5.44,10.3,7.72,15.99,2.23,5.82,3.7,11.91,4.4,18.1,1.54,12.81,3.74,25.53,6.6,38.12,6.14,25.87,12.04,50.45,17.4,72.87,5.35,22.42,10.38,42.48,14.57,59.42,4.19,16.94,7.35,30.48,9.63,40.11,1.08,4.61,1.95,8.31,2.53,10.92l.62,2.87c.06.33.06.67,0,1l-.33-.96c0-.75-.46-1.66-.79-2.78-.71-2.66-1.66-6.27-2.91-10.84-2.45-9.63-5.98-23.21-10.3-39.98l-14.99-59.29-17.57-72.87c-2.87-12.65-5.06-25.44-6.56-38.32-.64-6.03-2.04-11.96-4.15-17.65-2.16-5.52-5.03-10.67-7.56-15.86-4.73-9.92-8.06-20.46-9.88-31.31-2.08-10.01-4.15-19.31-6.35-27.69-1.96-7.57-4.31-15.04-7.02-22.38-2.28-6.48-5.02-11.83-6.14-16.61-1.12-4.77-1.66-8.3-2.12-11-.21-1.16-.38-2.12-.5-2.91-.1-.39-.12-.8-.08-1.21Z"/>
  <path class="cls-7" d="M1640.22,1806.1c-20.47-12.45-26.16-49.45-17.48-71.75,8.68-22.3,23.87-42.6,26.33-66.44,1.87-18.31-4.15-37.12.33-55.02,5.89-24.08,29.56-42.68,29.44-67.47,0-13.95-7.93-27.11-7.19-41.02.87-17.02,14.04-30.52,22.21-45.67,12.46-22.92,13.54-50.12,17.94-75.9,4.4-25.78,14.36-53.36,37.37-65.89,3.28,21.92,8.97,36.95,6.98,66.43-.71,10.67-13.2,31.02-15.03,54.35-1.08,13.95-1.87,27.94-2.78,41.89-.23,13.64-2.52,27.16-6.81,40.11-3.82,9.72-9.84,18.56-12.66,28.61-5.36,18.89,1.41,39.44-2.91,58.59-3.7,16.23-14.99,30.14-17.4,46.63-3.37,23.12,11.5,47.25,3.69,69.3-3.86,10.92-12.91,19.68-15.57,30.97-2.03,8.76,0,18.06-1.75,26.86-2.99,14.2-30.14,25.99-44.63,24.92"/>
  <path class="cls-10" d="M1743.32,1338.99c.04.41.04.83,0,1.25l-.5,3.57c-.5,3.15-1.04,7.81-2.16,13.83-1.12,6.02-4.15,12.79-6.85,20.97-2.7,8.18-5.35,17.6-7.72,28.15-2.37,10.55-4.44,22.17-6.56,34.75-1.73,13.53-5.35,26.75-10.75,39.28-2.95,6.56-6.19,13.12-8.68,20.14-2.41,7.18-3.9,14.63-4.44,22.17-1.25,16.06-3.36,32.04-6.31,47.88-6.48,32.43-12.66,63.32-18.27,91.35-5.6,28.03-11.25,53.19-15.73,74.45l-10.8,50.16c-1.29,5.77-2.28,10.34-3.03,13.58-.33,1.49-.62,2.66-.83,3.53-.07.41-.19.82-.37,1.2v-1.25c0-.83.37-2.07.66-3.57l2.66-13.66c2.41-12.04,5.85-29.06,10.13-50.28,4.28-21.22,9.55-46.51,15.32-74.74,5.77-28.24,11.67-59,18.11-91.35,2.95-15.78,5.06-31.7,6.31-47.71.57-7.72,2.12-15.34,4.61-22.67,2.57-7.14,5.86-13.74,8.8-20.22,5.38-12.38,9.02-25.45,10.79-38.82,2.2-12.45,4.15-24.25,6.85-34.79,2.19-9.51,4.87-18.91,8.01-28.15,2.66-8.31,5.9-14.95,7.19-20.76,1.29-5.81,1.87-10.54,2.49-13.66.29-1.5.54-2.66.71-3.57.09-.36.21-.71.37-1.04Z"/>
  <path class="cls-7" d="M322.37,1697.98c5.36,7.52,15.61,4.9,20.35.25,4.24-5.1,7.1-11.2,8.3-17.73,4.15-14.61,8.3-29.94,4.86-44.76-.8-4.48-2.81-8.66-5.81-12.08-1.53-1.73-3.48-3.02-5.67-3.75-2.19-.73-4.53-.87-6.79-.4-2.47,1.05-4.7,2.61-6.53,4.58-1.83,1.97-3.23,4.3-4.1,6.84-6.69,14.29-10.14,29.89-10.09,45.67-.41,7.39,1.42,14.74,5.23,21.09"/>
  <path class="cls-7" d="M342.34,1736.05c8.83-4.23,18.78-5.54,28.4-3.73,5.26.43,10.22,2.59,14.12,6.14,1.85,1.85,2.91,4.34,2.97,6.96.05,2.62-.91,5.15-2.68,7.07-2.59,1.78-5.72,2.6-8.85,2.33-7.51,0-15.86-1.25-21.84,3.32-3.4,2.62-5.65,6.93-9.72,8.31-2.05.49-4.2.3-6.13-.54-1.93-.84-3.54-2.28-4.58-4.12-1.99-3.75-2.46-8.12-1.33-12.21.45-2.84,1.56-5.55,3.23-7.89,1.67-2.35,3.86-4.28,6.4-5.64Z"/>
  <path class="cls-7" d="M307.72,1708.98c2.71-3.57,4.5-7.75,5.22-12.17.72-4.42.36-8.95-1.07-13.2-2.98-8.46-8.24-15.93-15.2-21.59-7.89-6.89-17.04-12.18-26.95-15.57-3.85-1.51-7.99-2.17-12.12-1.91-2.06.13-4.06.76-5.81,1.85-1.75,1.09-3.21,2.59-4.24,4.38-2.78,5.39,0,11.92,2.99,17.19,5.24,9.35,11.21,18.28,17.85,26.7,4.91,7.14,11.67,12.8,19.56,16.4,8.1,2.99,16.61,2.57,20.76-3.07"/>
  <path class="cls-10" d="M322.91,1812c.25-1.13.39-2.29.42-3.45.25-2.53.5-5.64.83-9.38.42-4.63,1.09-9.23,1.99-13.79,1.18-5.54,2.79-10.98,4.82-16.27,2.07-5.28,4.86-10.24,8.3-14.74,2.77-3.66,6.31-6.67,10.38-8.8,2.76-1.41,5.74-2.37,8.8-2.82,1.15-.06,2.29-.25,3.4-.54-1.15-.11-2.3-.11-3.45,0-3.18.26-6.29,1.09-9.18,2.45-4.28,2.09-8.03,5.13-10.96,8.89-3.48,4.6-6.28,9.67-8.3,15.07-2.06,5.39-3.66,10.95-4.77,16.61-.84,4.61-1.41,9.27-1.7,13.95-.25,4.15-.33,7.19-.37,9.43-.22,1.12-.29,2.26-.21,3.4Z"/>
  <path class="cls-10" d="M323.45,1804.77c.09-.54.09-1.08,0-1.62v-21.14c0-14.11,1.25-33.63,3.36-55.1,2.12-21.46,5.15-40.81,7.85-54.68.66-3.44,1.29-6.6,1.91-9.34.62-2.74,1.08-5.1,1.58-7.01.5-1.91.75-3.28,1.04-4.44.14-.51.23-1.04.25-1.58-.24.47-.42.97-.54,1.5-.33,1.16-.75,2.62-1.29,4.4-.54,1.79-1.16,4.15-1.79,6.98-.62,2.82-1.41,5.85-2.12,9.34-3.73,18.08-6.51,36.35-8.3,54.73-2.12,21.51-2.99,41.06-2.95,55.22,0,7.1,0,12.83.42,16.61,0,1.87,0,3.36.29,4.57.06.53.16,1.06.29,1.58Z"/>
  <path class="cls-10" d="M323.2,1767.03c.1-1.59.1-3.19,0-4.78-.21-3.03-.66-7.47-1.58-12.87-1.04-6.31-2.43-12.57-4.15-18.73-2.25-7.58-5.02-14.98-8.3-22.17-5.56-13.23-13.5-25.33-23.42-35.71-1.73-1.76-3.56-3.43-5.48-4.98-.83-.71-1.58-1.37-2.33-1.95l-2.12-1.41c-1.32-.95-2.7-1.79-4.15-2.53,4.68,3.58,9.13,7.45,13.33,11.58,9.59,10.47,17.31,22.5,22.84,35.58,3.26,7.13,6.04,14.46,8.3,21.96,1.88,6.1,3.43,12.29,4.65,18.56,1.04,5.31,1.66,9.72,2.03,12.74,0,1.57.13,3.14.37,4.69Z"/>
  <path class="cls-9" d="M311.04,1254.82c.13,3.97.7,7.91,1.7,11.75-4.73-5.43-10.45-9.91-16.86-13.2-10.55-4.81-21.74-8.08-33.22-9.72h-1.04c3.04,13.4,9.59,25.75,18.98,35.79,1.89,1.88,3.93,3.6,6.1,5.15-2.45.54-4.94,1.12-7.35,1.78-16.61,4.4-39.9,18.11-51.36,24.62,19.37,7.96,40.24,11.59,61.16,10.63,1.29,0,2.57,0,3.82-.25-2.09,2.74-3.94,5.66-5.52,8.72-4.8,10.55-8.07,21.74-9.72,33.22v1.04c13.39-3.06,25.74-9.61,35.79-18.98,4.14-4.23,7.55-9.11,10.09-14.45.43,2.93,1.1,5.82,1.99,8.64,3.88,10.94,10.34,20.79,18.85,28.69v-.87c2.44-9.66,3.66-19.59,3.61-29.56-.62-9.57-3.46-18.87-8.3-27.15-3.25-5.33-6.77-10.48-10.55-15.45,1.92-5.93,3.53-11.96,4.82-18.06,1.74-9.41,1.27-19.08-1.37-28.28-3.27-9.42-7.72-18.39-13.25-26.7-.17-.24-.32-.49-.46-.75-5.3,10.32-8.02,21.78-7.93,33.38Z"/>
  <path class="cls-10" d="M367.05,1285.5c0,.58-20.76,5.94-46.55,11.96-25.78,6.02-46.92,10.38-47.09,9.8-.17-.58,20.76-5.89,46.59-11.92,25.83-6.02,46.92-10.34,47.04-9.84Z"/>
  <path class="cls-10" d="M317.55,1297.17c-1.71,6.59-4.8,12.74-9.05,18.06.51-3.38,1.73-6.62,3.57-9.51,2.49-4.98,4.94-8.84,5.48-8.55Z"/>
  <path class="cls-10" d="M307.76,1300.33c-.46.37-2.91-1.87-5.98-4.44-3.07-2.57-5.65-4.69-5.36-5.23.29-.54,3.53.83,6.77,3.57,3.24,2.74,5.02,5.73,4.57,6.1Z"/>
  <path class="cls-9" d="M1495.97,835.33c.42,2.72,1.13,5.39,2.12,7.97-3.7-3.38-8.01-6.01-12.7-7.76-7.7-2.45-15.71-3.78-23.79-3.94h-.71c3.21,9,8.74,16.99,16.02,23.17,1.48,1.12,3.03,2.13,4.65,3.03-1.66.58-3.32,1.16-4.98,1.83-10.96,4.4-26.03,15.78-33.42,21.18,14.07,3.97,28.84,4.8,43.26,2.45l2.62-.5c-1.22,2.07-2.26,4.23-3.12,6.48-2.51,7.69-3.91,15.7-4.15,23.79v.75c8.99-3.22,16.98-8.75,23.17-16.02,2.5-3.27,4.46-6.91,5.81-10.8.53,1.97,1.21,3.9,2.04,5.77,3.59,7.24,8.88,13.51,15.41,18.27v-.62c.87-6.89.87-13.87,0-20.76-1.17-6.54-3.85-12.72-7.81-18.06-2.68-3.41-5.53-6.69-8.55-9.8.96-4.19,1.69-8.44,2.2-12.71.41-6.63-.72-13.26-3.28-19.39-3.02-6.25-6.83-12.08-11.33-17.36l-.37-.46c-2.87,7.48-3.92,15.54-3.07,23.5Z"/>
  <path class="cls-10" d="M1537.16,851.89c-10.07,4.83-20.44,8.99-31.06,12.46-10.37,4.12-20.99,7.57-31.81,10.34,10.07-4.83,20.45-8.99,31.06-12.46,10.37-4.12,20.99-7.57,31.8-10.34Z"/>
  <path class="cls-10" d="M1503.9,864.02c.58,0,0,3.32-1.33,6.94-1.33,3.61-2.87,6.44-3.41,6.27-.54-.17,0-3.32,1.37-6.98,1.37-3.65,2.82-6.44,3.36-6.23Z"/>
  <path class="cls-10" d="M1497.43,867.01c-.41.41-2.37-.79-4.69-2.32-2.32-1.54-4.15-2.87-3.9-3.45.25-.58,2.62,0,5.11,1.66,2.49,1.66,3.9,3.66,3.49,4.11Z"/>
  <path class="cls-9" d="M691.33,950.59c1.81,1.27,3.74,2.34,5.77,3.2-3.99.26-7.89,1.28-11.5,2.99-5.67,3.08-10.87,6.95-15.45,11.5l-.46.38c6.95,3.15,14.62,4.39,22.21,3.61,1.4-.22,2.79-.54,4.15-.96-.58,1.25-1.16,2.53-1.7,3.82-3.19,10.07-5.31,20.46-6.31,30.97,10.07-5.89,18.73-13.91,25.37-23.5l1.16-1.79c.57,1.81,1.32,3.57,2.24,5.23,3.06,5.67,6.92,10.87,11.46,15.45l.41.46c3.12-6.96,4.35-14.63,3.57-22.21-.48-3.24-1.49-6.38-2.99-9.3,1.44.8,2.94,1.48,4.48,2.03,6.14,1.96,12.67,2.4,19.02,1.29l-.33-.41c-3.46-4.31-7.45-8.18-11.88-11.5-4.41-2.94-9.44-4.83-14.7-5.52-3.36-.5-4.81-.21-10.34-.5-1.98-2.88-4.12-5.65-6.39-8.31-3.58-3.92-8.01-6.96-12.96-8.89-5.26-1.7-10.72-2.73-16.23-3.07h-.5c2.69,5.9,6.76,11.05,11.88,15.03Z"/>
  <path class="cls-10" d="M723.68,936.23c-2.64,8.56-5.95,16.89-9.92,24.91-3.28,8.27-7.24,16.26-11.83,23.87,2.59-8.57,5.89-16.9,9.88-24.91,3.31-8.26,7.28-16.25,11.88-23.87Z"/>
  <path class="cls-10" d="M712.21,961.88c.54-.25,2.07,1.79,3.45,4.57,1.37,2.78,2.03,5.23,1.49,5.48-.54.25-2.07-1.74-3.44-4.53-1.37-2.78-2.04-5.23-1.5-5.52Z"/>
  <path class="cls-10" d="M710.35,967.28c0,.62-1.74,1.16-3.86,1.62-2.12.46-4.15.71-4.15,0s1.41-1.75,3.74-2.28c2.32-.54,4.23.08,4.28.66Z"/>
  <path class="cls-9" d="M473.92,799.21c-1.16,3.32,1.21,5.27,4.15,6.44-1.45,0-2.87.25-4.15.5-3.04.33-5.92,1.53-8.31,3.45-3.9,4.15.25,8.31,4.4,10.38-2.25.82-4.26,2.18-5.85,3.96-1.59,1.78-2.72,3.93-3.28,6.26-.19,1.39.06,2.81.71,4.06.65,1.25,1.66,2.27,2.91,2.92,1.42.56,2.94.84,4.46.8,1.53-.04,3.03-.38,4.42-1.01,1.94-.72,3.73-1.79,5.27-3.16,0,4.65,2.12,10.3,7.43,8.31,2.66-1.18,4.92-3.1,6.52-5.52.92-1.22,1.75-2.49,2.49-3.82-.08.79-.08,1.58,0,2.37.07.74.32,1.44.71,2.07.39.62.91,1.15,1.54,1.54.89.46,1.9.61,2.88.44.98-.18,1.88-.66,2.56-1.4,4.2-3.72,7.22-8.58,8.72-13.99,2.18-5.54,2.95-11.53,2.24-17.44-1.12-6.06-8.31-8.76-13.41-10.17-5-1.4-10.18-1.97-15.36-1.7-3.28.58-9.76,1.25-11.05,4.73Z"/>
  <path class="cls-10" d="M523.71,794.06c-7.86,6.38-16.19,12.17-24.92,17.32-8.25,5.76-16.89,10.94-25.87,15.49,7.8-6.36,16.06-12.15,24.71-17.32,8.31-5.78,17.02-10.95,26.08-15.49Z"/>
  <path class="cls-10" d="M504.4,806.14c.22,3.09-.28,6.19-1.46,9.05-.55,2.99-1.76,5.83-3.53,8.31.24-6.16,1.95-12.16,4.98-17.52v.17Z"/>
  <path class="cls-10" d="M475.42,812.91c0-.58,3.44-.54,7.43,0,3.98.54,7.18,1.66,7.1,2.24-.08.58-3.45.54-7.43,0-3.99-.54-7.19-1.66-7.1-2.24Z"/>
  <path class="cls-10" d="M484.76,819.05c.58,0,.79,1.91.46,4.15-.33,2.24-1.08,3.78-1.66,3.65-.58-.12-.79-1.87-.46-4.15.33-2.29,1.21-3.74,1.66-3.66Z"/>
  <path class="cls-10" d="M491.16,805.51c0-.58,2.32-.79,4.98,0,2.66.79,4.61,1.95,4.36,2.49s-2.37.25-4.9-.37c-2.53-.62-4.53-1.54-4.44-2.12Z"/>
  <path class="cls-9" d="M1546.71,465.21c-1.83,5.23,1.91,8.31,6.69,10.17-2.27.13-4.53.37-6.77.75-4.85.48-9.45,2.35-13.24,5.4-6.19,6.31.37,13.2,6.93,16.61-3.54,1.28-6.72,3.42-9.24,6.22-2.52,2.8-4.31,6.19-5.21,9.85-.28,2.21.12,4.45,1.14,6.42,1.03,1.97,2.63,3.59,4.59,4.63,2.23.88,4.63,1.31,7.03,1.25,2.41-.07,4.77-.62,6.96-1.62,3.07-1.09,5.89-2.77,8.31-4.94,0,7.31,3.37,16.24,11.75,13.41,4.23-1.96,7.81-5.1,10.3-9.05,1.44-1.95,2.75-3.99,3.94-6.1-.15,1.25-.15,2.52,0,3.78.1,1.15.46,2.27,1.07,3.26.6.98,1.43,1.82,2.42,2.43,1.41.72,3.01.96,4.57.69,1.56-.27,2.98-1.03,4.07-2.18,6.59-5.91,11.36-13.57,13.74-22.09,3.41-8.75,4.63-18.2,3.53-27.53-1.78-9.55-12.83-13.83-21.18-16.03-7.87-2.2-16.04-3.11-24.21-2.7-4.94.25-15.16,1.62-17.19,7.39Z"/>
  <path class="cls-10" d="M1625.27,456.82c.29.54-17.32,12.46-39.36,26.78-22.05,14.32-40.19,25.45-40.53,24.91-.33-.54,17.27-12.45,39.36-26.78,22.09-14.32,40.19-25.41,40.53-24.91Z"/>
  <path class="cls-10" d="M1594.83,475.84c-.26,4.82-1.25,9.58-2.91,14.12-.99,4.74-2.68,9.3-5.02,13.54.3-4.82,1.29-9.58,2.95-14.12.97-4.74,2.65-9.3,4.98-13.54Z"/>
  <path class="cls-10" d="M1549.08,486.55c7.81-.18,15.59,1.12,22.92,3.82-3.9.43-7.84.15-11.63-.83-3.91-.32-7.73-1.34-11.29-2.99Z"/>
  <path class="cls-10" d="M1563.86,496.1c.58,0,.62,2.87,0,6.23-.62,3.37-1.41,5.98-2.03,5.89-.62-.08-.62-2.91,0-6.23.62-3.32,1.41-5.89,2.03-5.89Z"/>
  <path class="cls-10" d="M1573.87,474.89c0-.58,3.62-.58,7.77.5,4.15,1.08,7.26,2.78,7.01,3.32-.25.54-3.53-.21-7.56-1.25-4.03-1.04-7.31-2.12-7.23-2.57Z"/>
  <path class="cls-9" d="M364.47,1050.04s33.22,20.09,53.06-16.61c0,.21-36.83-17.23-53.06,16.61Z"/>
  <path class="cls-10" d="M429.04,1029.44c-7.61,3.54-15.51,6.39-23.63,8.51-7.85,2.86-15.93,5.03-24.17,6.48,7.57-3.53,15.43-6.38,23.5-8.51,7.89-2.87,16.02-5.03,24.29-6.48Z"/>
  <path class="cls-10" d="M385.32,1036.54c0-.54,2.45-.21,5.07.75,2.62.96,4.48,2.2,4.15,2.78-.33.58-2.45.21-5.07-.75-2.62-.96-4.36-2.2-4.15-2.78Z"/>
  <path class="cls-10" d="M407.2,1036.08c.5.33-.46,2.62-2.12,5.07-1.66,2.45-3.44,4.15-4.15,3.78-.71-.37.46-2.57,2.16-5.03,1.71-2.45,3.66-4.03,4.11-3.82Z"/>
  <path class="cls-10" d="M1555.56,135.91c-.46-.37,17.89-23.13,40.94-50.78,23.05-27.65,42.1-49.91,42.35-49.37.25.54-17.85,23.09-40.9,50.74-23.04,27.65-42.1,49.78-42.39,49.41Z"/>
  <path class="cls-10" d="M21.3,1162.9c-.46-.37,17.85-23.12,40.9-50.78,23.04-27.65,42.14-49.83,42.6-49.37.46.46-17.85,22.96-40.94,50.78-23.09,27.82-42.1,49.74-42.56,49.37Z"/>
  <path class="cls-10" d="M1714.75,708.95c-.46-.42,17.86-23.13,40.9-50.78,23.05-27.65,42.1-49.83,42.56-49.41.46.41-17.85,23.12-40.9,50.78-23.04,27.65-42.1,49.79-42.56,49.41Z"/>
  <path class="cls-10" d="M1414.92,1632.92c-.46-.37,17.86-23.13,40.9-50.78,23.05-27.65,42.1-49.82,42.56-49.37.46.46-17.81,23.09-40.9,50.78-23.08,27.69-42.1,49.74-42.56,49.37Z"/>
  <path class="cls-10" d="M1311.74,1342.48c-.46-.37,17.85-23.09,40.9-50.74,23.04-27.65,42.1-49.82,42.56-49.41.46.41-17.86,23.13-40.9,50.78-23.05,27.65-42.1,49.78-42.56,49.37Z"/>
  <path class="cls-10" d="M1650.39,1162.48c-.46-.37,17.86-23.13,40.9-50.78,23.05-27.65,42.1-49.83,42.56-49.37.46.46-17.85,23.09-40.9,50.78-23.04,27.69-41.89,49.74-42.56,49.37Z"/>
  <path class="cls-10" d="M1741.62,384.21c-.46-.37,17.85-23.13,40.9-50.78,23.04-27.65,42.1-49.83,42.56-49.41.46.42-17.86,23.13-40.9,50.78-23.05,27.65-42.1,49.78-42.56,49.41Z"/>
  <path class="cls-10" d="M450.43,1246.07c-.46-.37,17.85-23.09,40.9-50.74,23.04-27.65,42.14-49.83,42.6-49.41.46.42-17.86,23.13-40.94,50.78-23.09,27.65-41.89,49.78-42.56,49.37Z"/>
  <path class="cls-10" d="M1239.66,773.14c-.46-.37,17.86-23.13,40.9-50.78,23.05-27.65,42.1-49.83,42.56-49.37.46.46-17.85,23.08-40.9,50.74-23.04,27.65-42.23,49.79-42.56,49.41Z"/>
  <path class="cls-10" d="M311.87,780.19c-.46-.37,17.85-23.12,40.9-50.78,23.04-27.65,42.1-49.83,42.56-49.37.46.46-17.86,23.09-40.9,50.78-23.04,27.69-42.1,49.74-42.56,49.37Z"/>
  <path class="cls-10" d="M553.98,1611.79c-.46-.38,17.86-23.09,40.9-50.74,23.05-27.65,42.1-49.83,42.56-49.41.46.41-17.85,23.12-40.9,50.78-23.04,27.65-42.1,49.79-42.56,49.37Z"/>
  <path class="cls-10" d="M1157.66,240.5c-.46-.42,17.86-23.13,40.94-50.78,23.08-27.65,42.1-49.83,42.56-49.41.46.42-17.86,23.13-40.9,50.78-23.05,27.65-42.14,49.78-42.6,49.41Z"/>
  <path class="cls-10" d="M368.63,401.19c-.46-.37,17.85-23.12,40.9-50.78,23.04-27.65,42.1-49.83,42.56-49.37.46.46-17.86,23.09-40.9,50.78-23.05,27.69-42.1,49.74-42.56,49.37Z"/>
  <path class="cls-10" d="M738.91,135.91c-.46-.37,17.9-23.13,40.94-50.78,23.05-27.65,42.1-49.83,42.56-49.37.46.46-17.86,23.09-40.9,50.74-23.05,27.65-42.1,49.78-42.6,49.41Z"/>
  <path class="cls-10" d="M108.79,631.42c-.46-.37,17.85-23.12,40.9-50.78,23.04-27.65,42.14-49.83,42.6-49.41.46.42-17.85,23.13-40.94,50.78-23.09,27.65-42.1,49.79-42.56,49.41Z"/>
  <path class="cls-10" d="M124.4,240.5c-.46-.42,17.85-23.13,40.9-50.78,23.04-27.65,42.1-49.83,42.56-49.41.46.42-17.85,23.13-40.9,50.78-23.04,27.65-42.1,49.78-42.56,49.41Z"/>
  <path class="cls-10" d="M1020.48,558.01c-.46,1.12-.56,2.36-.27,3.53.29,1.18.95,2.23,1.88,3,.46.29.98.48,1.52.56.54.08,1.09.04,1.62-.1.53-.15,1.02-.4,1.44-.74.42-.34.77-.77,1.02-1.26,1.47,2.01,4.88,0,4.41-2.66,1.87,1.04,4.27-1.44,3.59-3.59,2.12.83,3.59-2.66,4.52-4.95.67-1.24,1.41-2.44,2.22-3.59,2.4-3.85,3.64-8.31,3.59-12.85,2.54-3.72,3.96-8.09,4.09-12.6l1.08-8.5,1.58-1.94c-.01.96.27,1.9.82,2.69.55.79,1.33,1.39,2.23,1.72,1.68.45,3.45.45,5.13,0l5.06-.97,3.16.93c-.62,2.78-.29,5.68.93,8.25.39,1.84,1.42,3.48,2.91,4.63.39.18.83.26,1.26.21.43-.05.84-.21,1.18-.47.34-.26.61-.61.77-1.02.16-.4.2-.84.13-1.27.29.27.65.48,1.03.6.39.12.79.15,1.19.08.4-.06.78-.21,1.11-.44.33-.23.6-.53.8-.88.93-1.57,1.34-3.39,1.15-5.2-.08-4.42-1.48-8.72-4.02-12.34,2.94,2.76,5.89,5.53,8.79,8.33.57.64,1.32,1.1,2.15,1.33-.04.34,0,.68.11,1.01.11.32.29.62.52.86.24.25.52.44.84.56.32.12.66.17,1,.15,1.3-.37,2.44-1.15,3.27-2.22,2.15-2.22,4.45-6.06,2.55-8.61,1-.18,1.51-1.87.86-2.8,3.3,2.58,6.64,5.13,9.98,7.68-1.01-.61-2.12.97-1.9,2.26.32,1.2,1.06,2.24,2.08,2.94-.89,1.41-1.31,3.07-1.18,4.74-1.79-1.61-4.52,1.36-3.95,3.95.32,1.17,1,2.2,1.95,2.95.95.75,2.12,1.17,3.33,1.21.98.17,1.98-.04,2.81-.58.83-.54,1.43-1.37,1.68-2.33,2.19.5,4.31-2.51,3.59-4.99,1.61,1.04,3.01-1.79,3.09-3.95.18-3.95-.39-7.89-1.69-11.63,0,.54.57,1,.97.72.1-.08.18-.18.23-.3.05-.11.08-.24.08-.37,0-.13-.03-.25-.08-.37-.05-.11-.13-.22-.23-.3,1.83,4.59,3.59,9.19,5.56,13.78,1.71,3.59,2.75,7.48,3.05,11.45,0,1.65.22,3.91,1.58,4.05.38.01.75-.09,1.08-.29,4.14-2.33,7.35-6.02,9.08-10.44.71-1.54,1.18-3.17,1.4-4.84-.19-3.51-.65-7-1.36-10.44,0-1.56-.1-3.12-.29-4.66-.65-2.31-1.89-4.41-3.59-6.1-5.38-6.24-11.05-12.7-18.26-15.25-4.41-1.54-9.11-1.51-13.53-3.01-2.71-1.04-5.36-2.24-7.93-3.59-10.91-4.64-22.86-6.33-34.63-4.88-6.66.23-13.22,1.65-19.38,4.2-6.71,3.57-12.77,8.24-17.94,13.82-8.79,8.17-16.08,17.83-21.53,28.53-4.4,8.68-6.18,18.46-5.13,28.13,1.4,9.65,7.18,18.7,15.43,20.74l3.19-3.59"/>
  <path class="cls-5" d="M1095.26,504.19c.68-.66,1.13-1.51,1.29-2.44.09-.51.06-1.04-.09-1.54-.15-.5-.42-.96-.78-1.33-.46-.47-1.03-.8-1.66-.97-.63-.16-1.3-.15-1.92.03l-.79.29.32-.79c.31-.71.38-1.51.2-2.27-.18-.76-.6-1.44-1.2-1.93-.65-.57-1.49-.88-2.35-.88s-1.7.31-2.35.88l-.65-.57c.12-.13.2-.29.25-.47.1-.3.12-.62.07-.93-.05-.31-.17-.61-.36-.86-.17-.26-.4-.48-.67-.65-.27-.17-.56-.28-.88-.32-.62-.16-1.28-.16-1.9,0-.68.3-1.41.46-2.15.47-.9,0-1.29-.83-1.76-1.15-.46-.35-.95-.65-1.47-.9-.96-.43-2-.68-3.05-.72-1.55-.06-3.1.31-4.45,1.08-.93.54-1.4,1-1.44.93.33-.49.76-.91,1.26-1.22,1.16-.77,2.5-1.24,3.89-1.36,1.39-.13,2.79.1,4.07.65.59.25,1.14.58,1.65.97.54.39.97.9,1.44.93.61-.05,1.21-.21,1.76-.47.77-.2,1.57-.2,2.33,0,.84.15,1.59.63,2.08,1.33.25.36.42.78.49,1.21s.04.88-.09,1.3c-.09.28-.22.55-.39.79l-.65-.61c.82-.69,1.85-1.07,2.92-1.07s2.11.38,2.92,1.07c.71.63,1.2,1.47,1.4,2.4.21.93.12,1.89-.25,2.77l-.47-.5c.76-.23,1.57-.24,2.33-.02.76.22,1.45.65,1.97,1.24.41.44.71.98.86,1.56.15.58.15,1.19,0,1.78-.15.74-.52,1.42-1.08,1.94-.39.36-.65.36-.68.36Z"/>
  <path class="cls-5" d="M1116.58,509.79c.74-.64,1.31-1.45,1.65-2.37.35-1.06.27-2.22-.22-3.23-.31-.65-.78-1.21-1.37-1.63-.58-.43-1.26-.7-1.97-.81h-.61s.39-.47.39-.47c.6-.6,1.05-1.34,1.3-2.15.26-.81.31-1.67.17-2.51-.12-.43-.33-.83-.63-1.16-.3-.33-.67-.59-1.09-.75-.4-.2-.86-.27-1.3-.22-.45.06-.87.24-1.21.54l-2.4,2.58,1.76-3.09c.29-.55.46-1.15.51-1.77.04-.62-.04-1.24-.26-1.82-.24-.63-.63-1.19-1.15-1.63-.51-.44-1.13-.74-1.79-.88-.96-.25-1.98-.15-2.87.29l-.97.47.39-1.04c.57-1.44-.9-3.16-2.4-3.34-1.58-.13-3.15.26-4.49,1.11l-.83.43.25-.86c.12-.55.1-1.13-.08-1.66-.18-.54-.5-1.02-.92-1.39-.84-.7-1.86-1.15-2.94-1.29-1.8-.33-3.65-.33-5.45,0-1.58.42-3.11.97-4.59,1.65.32-.31.68-.56,1.08-.75,1.14-.59,2.34-1.04,3.59-1.33,1.85-.48,3.78-.59,5.67-.32,1.21.15,2.35.63,3.3,1.4.54.46.95,1.05,1.18,1.72.23.67.27,1.39.11,2.08l-.57-.47c1.49-.96,3.26-1.4,5.02-1.26,1,.17,1.89.71,2.51,1.51.34.41.57.9.66,1.42.09.52.05,1.06-.13,1.56l-.57-.54c1.12-.54,2.39-.66,3.59-.36.8.18,1.55.55,2.17,1.08.63.53,1.11,1.21,1.41,1.97.27.72.38,1.49.32,2.26-.06.77-.28,1.51-.65,2.19l-.65-.5c.45-.41,1.02-.68,1.63-.77.61-.09,1.23,0,1.78.27.53.21,1,.55,1.38.98.37.43.64.94.78,1.5.16.95.09,1.93-.21,2.85-.3.92-.82,1.75-1.51,2.42l-.22-.54c.79.15,1.52.49,2.15.99.62.5,1.12,1.14,1.44,1.88.24.57.37,1.18.37,1.79,0,.62-.13,1.23-.37,1.79-.27.72-.72,1.36-1.29,1.87-.65.22-.86.32-.86.29Z"/>
  <path class="cls-4" d="M1162.33,513.77c-.01-.45-.11-.88-.31-1.29-.19-.4-.47-.76-.81-1.05-.77-.71-1.79-1.08-2.83-1.04-1.4.09-2.77.42-4.05.97h-.47v-.5c.01-.86-.29-1.7-.84-2.35-.55-.66-1.32-1.1-2.17-1.23-2.07-.27-4.18.06-6.06.97l-2.66.97,2.3-1.69c.28-.3.49-.65.63-1.03.14-.38.2-.79.17-1.19-.02-.41-.13-.8-.31-1.17-.18-.36-.43-.69-.74-.95-.75-.56-1.61-.97-2.52-1.18-.91-.22-1.86-.24-2.79-.07h-.25s-1.69,0-1.69,0l1.4-.97c.37-.33.67-.74.86-1.2.19-.46.27-.96.24-1.46-.04-.5-.18-.98-.44-1.41-.25-.43-.6-.8-1.02-1.07-.86-.47-1.84-.66-2.81-.57-.97.1-1.89.48-2.64,1.11l-1.76,1.4,1.18-1.9c.66-1.14,1.01-2.43,1.01-3.75,0-1.32-.35-2.61-1.01-3.75-.54-.89-1.28-1.64-2.16-2.2-.88-.56-1.87-.91-2.9-1.03-1.36-.17-2.75.02-4.02.54-.86.36-1.29.68-1.33.65-.04-.04,0,0,.29-.29l.93-.61c1.3-.64,2.76-.9,4.2-.75,1.12.1,2.2.45,3.17,1.03.96.58,1.78,1.37,2.4,2.31.75,1.25,1.15,2.67,1.15,4.13,0,1.45-.4,2.88-1.15,4.13l-.57-.5c.88-.74,1.97-1.2,3.12-1.31,1.15-.11,2.3.13,3.31.7.52.34.96.79,1.28,1.33.32.54.51,1.14.55,1.76.12.68.05,1.37-.21,2.01-.26.64-.7,1.18-1.26,1.58l-.25-.79h.25c1.05-.18,2.12-.14,3.16.12,1.03.26,2,.73,2.84,1.39.76.74,1.22,1.74,1.29,2.8.05.53-.04,1.06-.24,1.55-.21.49-.53.92-.94,1.25l-.36-.68c2.02-.98,4.29-1.31,6.5-.93,1.02.18,1.95.72,2.61,1.52.66.8,1.01,1.82.98,2.85l-.43-.32c1.37-.54,2.83-.84,4.31-.86.57,0,1.13.1,1.65.32.52.22,1,.54,1.4.94.52.49.85,1.15.93,1.87.07.31.04.64-.07.93Z"/>
  <path class="cls-4" d="M1138.33,470.14s-.36.25-1.11.43c-1.11.12-2.23.12-3.34,0-1.63-.15-3.26.09-4.77.72-.42.2-.79.49-1.08.85-.29.36-.5.78-.61,1.23-.15.46-.14.95.01,1.4.16.45.45.84.85,1.11l-.57.43c-.18-1.11-1.54-1.79-2.76-2.51-1.24-.78-2.6-1.37-4.02-1.72-.69-.18-1.41-.22-2.11-.12-.7.1-1.38.35-1.98.73-.55.32-1,.79-1.31,1.34-.31.55-.46,1.18-.45,1.82v1.04s-.79-.68-.79-.68c-1.57-1.35-3.53-2.16-5.6-2.3-1.63-.15-3.28.08-4.81.68-1.31.58-2.52,1.37-3.59,2.33.18-.35.42-.67.72-.93.8-.78,1.74-1.41,2.76-1.87,1.58-.7,3.3-1.01,5.02-.9,2.24.09,4.39.93,6.1,2.37l-.68.36c-.06-.8.11-1.59.48-2.3.37-.7.94-1.29,1.63-1.69.69-.44,1.46-.74,2.27-.87.81-.13,1.64-.09,2.43.11,1.51.4,2.94,1.01,4.27,1.83.61.39,1.26.75,1.87,1.22.66.46,1.11,1.15,1.26,1.94v.79s-.68-.39-.68-.39c-.55-.34-.97-.86-1.19-1.48-.22-.61-.23-1.28-.03-1.9.12-.55.38-1.07.74-1.51.36-.44.82-.78,1.34-1.01,1.63-.65,3.4-.86,5.13-.61,1.09.11,2.18.11,3.27,0,.93.11,1.33,0,1.33.04Z"/>
  <path class="cls-4" d="M1095.84,453.67c-.76.05-1.52.16-2.26.32-.81.29-1.54.76-2.15,1.36-.77.77-1.25,1.79-1.36,2.87v.47h-.43c-.64-.11-1.31,0-1.87.32-.57.32-1.01.83-1.25,1.43-.5,1.53-.56,3.17-.18,4.74l.25,1.69-1.04-1.4v-.22c-.37-.42-.83-.75-1.34-.96-.52-.21-1.08-.3-1.63-.26-1.05.04-2.05.48-2.8,1.22-.62.68-1.09,1.48-1.39,2.35s-.41,1.79-.33,2.71c.14,1.24.47,2.45.97,3.59.22.43.4.87.54,1.33,0,0-.39-.36-.86-1.18-.65-1.18-1.08-2.47-1.26-3.8-.14-1.02-.05-2.06.26-3.04.31-.98.83-1.88,1.53-2.63.44-.48.98-.86,1.58-1.13.6-.26,1.25-.4,1.9-.4s1.3.14,1.9.4c.6.26,1.14.65,1.58,1.13l.22.29-.79.32c-.41-1.74-.31-3.56.29-5.24.33-.77.92-1.4,1.67-1.78.75-.38,1.6-.49,2.42-.3l-.47.32c.17-1.25.77-2.4,1.69-3.27.68-.65,1.52-1.11,2.44-1.33.58-.12,1.18-.12,1.76,0,.15.01.29.04.43.07Z"/>
  <path class="cls-5" d="M1047.33,487.25c-.24.04-.48.04-.72,0-.68.07-1.37.07-2.05,0-2.45-.47-4.68-1.73-6.35-3.59h.57c-.61.77-1.38,1.41-2.25,1.87-.87.46-1.83.74-2.81.82-1.08.08-2.17-.05-3.19-.39-1.15-.34-2.13-1.11-2.73-2.15-.16-.39-.27-.8-.32-1.22-.1-.31-.29-.58-.54-.79-.6-.44-1.28-.75-2.01-.9-.78-.16-1.52-.47-2.19-.9-.37-.21-.68-.52-.9-.89-.21-.37-.33-.8-.32-1.23l.54.39c-1.69.61-3.55.61-5.24,0-1.36-.39-2.6-1.13-3.59-2.15-.61-.64-1.09-1.4-1.4-2.22-.22-.57-.25-.9-.22-.9.49,1.03,1.15,1.97,1.94,2.8.94.87,2.07,1.51,3.3,1.87,1.56.47,3.23.39,4.74-.22l.61-.25v.61c0,.29.1.58.25.82.16.25.38.45.64.58.6.38,1.27.65,1.97.79.83.17,1.62.53,2.3,1.04.37.31.65.72.79,1.18,0,.43.18.86.32,1.15.52.81,1.31,1.41,2.22,1.69.91.31,1.88.43,2.83.36,1.76-.15,3.39-.97,4.56-2.3l.29-.36.29.32c1.56,1.76,3.61,3.01,5.88,3.59,1.76.54,2.76.47,2.76.57Z"/>
  <path class="cls-5" d="M979.54,513.63v-.29c-.04-.3-.04-.6,0-.9-.11-1.21.02-2.43.39-3.59.57-1.69,1.36-3.31,2.33-4.81.54-.97,1.18-1.88,1.9-2.73.42-.48.93-.87,1.51-1.15.32-.17.68-.25,1.04-.25s.72.09,1.04.25l-.54.36c-.08-1.06.12-2.13.6-3.08.47-.95,1.2-1.76,2.1-2.34,1.02-.61,2.21-.89,3.39-.81,1.19.08,2.32.53,3.25,1.28l-.72.32c0-.63.14-1.25.42-1.81.28-.56.69-1.05,1.19-1.42.51-.38,1.11-.62,1.74-.7.63-.08,1.27.02,1.85.27.67.26,1.25.69,1.69,1.26l-.79.32c-.02-.39.05-.78.22-1.14.16-.36.41-.67.72-.91.54-.47,1.22-.75,1.94-.79,1.26,0,2.49.33,3.59.93h-.54c.84-1.28,2.11-2.2,3.59-2.58,1.38-.34,2.82-.34,4.2,0,2.33.71,4.52,1.8,6.49,3.23l-.47.4c-.11-.24-.15-.51-.11-.78.03-.26.13-.52.29-.73.28-.34.63-.62,1.04-.79.72-.31,1.51-.43,2.3-.36,1.24.16,2.45.51,3.59,1.04.67.32,1.31.7,1.9,1.15.22.14.43.31.61.5,0,0-.9-.61-2.66-1.33-1.07-.44-2.19-.73-3.34-.86-.69-.06-1.38.07-2.01.36-.65.29-1.22.9-.9,1.54l.47.93-.93-.54c-1.91-1.34-4.04-2.36-6.28-3.01-1.26-.32-2.58-.32-3.84,0-1.33.3-2.49,1.11-3.23,2.26v.29h-.32c-1.02-.54-2.15-.83-3.3-.86-1,0-2.12.93-2.05,1.94v1.51s-.9-1.22-.9-1.22c-.34-.45-.8-.8-1.33-1.01-.46-.18-.96-.25-1.46-.19-.49.06-.97.23-1.38.51-.39.29-.7.67-.92,1.11-.22.44-.33.92-.33,1.4v1.18s-.72-.57-.72-.57c-.79-.63-1.76-1.01-2.77-1.09-1.01-.08-2.02.15-2.9.66-.78.49-1.42,1.18-1.84,2-.42.82-.62,1.74-.57,2.66v.72s-.61-.36-.61-.36c-.9-.54-2.01.22-2.76.97-.7.8-1.32,1.67-1.87,2.58-1,1.43-1.81,2.99-2.4,4.63-.52,1.41-.72,2.92-.61,4.41Z"/>
  <path class="cls-4" d="M984.31,538.78l-.43-.54c-.38-.55-.71-1.12-1.01-1.72-.5-.97-.74-2.06-.68-3.16.07-.69.29-1.35.65-1.94.43-.71,1.11-1.23,1.9-1.47v.47c-.42-.62-.66-1.34-.69-2.09-.03-.75.14-1.49.51-2.14.45-.75,1.12-1.33,1.92-1.67.8-.34,1.69-.42,2.53-.23l-.39.61c-.4-.56-.62-1.23-.62-1.92,0-.69.22-1.36.62-1.92.44-.52.99-.95,1.61-1.24.62-.29,1.29-.44,1.98-.45h1.9c.27-.06.51-.19.72-.37.21-.18.37-.41.46-.67.28-.67.66-1.3,1.11-1.87.55-.57,1.26-.96,2.05-1.11,1.52-.16,3.04-.16,4.56,0,1.29.12,2.58-.27,3.59-1.08.43-.53.82-1.08,1.18-1.65.46-.58,1.05-1.03,1.72-1.33.64-.28,1.34-.4,2.04-.36.7.04,1.38.24,1.98.58l-.5.54c-.35-.62-.49-1.34-.41-2.05.08-.71.39-1.37.88-1.9.83-.93,1.99-1.51,3.23-1.61,1.89-.09,3.79.15,5.6.72,1.17.34,2.3.79,3.37,1.36.39.16.75.37,1.08.65-1.49-.62-3.01-1.14-4.56-1.58-1.76-.48-3.6-.65-5.42-.5-1.07.1-2.05.6-2.76,1.4-.37.41-.61.93-.68,1.48-.07.55.03,1.11.29,1.6l.93,1.36-1.44-.83c-.51-.26-1.08-.4-1.65-.4s-1.14.14-1.65.4c-.56.22-1.04.59-1.4,1.08-.38.6-.8,1.18-1.26,1.72-.54.57-1.24.97-2.01,1.15-.76.16-1.53.23-2.3.22-1.45-.16-2.92-.16-4.38,0-.61.09-1.17.39-1.58.86-.42.5-.75,1.05-1,1.65-.15.37-.4.71-.71.96-.31.26-.69.43-1.08.51-.67.04-1.34.04-2.01,0-.58,0-1.15.11-1.68.34-.53.24-1,.58-1.37,1.02-.3.42-.47.92-.47,1.44s.16,1.02.47,1.44l.68.86-1.08-.25c-.68-.12-1.37-.05-2.01.21-.64.26-1.18.7-1.58,1.26-.31.55-.48,1.16-.48,1.79,0,.63.17,1.25.48,1.79l.22.36h-.39c-.61.2-1.15.59-1.55,1.1-.4.51-.63,1.13-.68,1.77-.09,1.01.1,2.03.54,2.94.61,1.58,1.18,2.37,1.11,2.4Z"/>
  <path class="cls-4" d="M985.78,591.1s-.32,0-.86-.29c-.75-.36-1.42-.89-1.94-1.54-.86-1.01-1.38-2.27-1.47-3.59-.04-.88.1-1.76.41-2.59.31-.83.78-1.58,1.38-2.22v.47c-1.05-1.25-1.82-2.7-2.26-4.27-.2-.92-.12-1.88.21-2.76.17-.48.44-.91.8-1.28.35-.37.78-.65,1.25-.84v.75c-.71-.5-1.29-1.17-1.67-1.96-.38-.79-.55-1.66-.49-2.53.06-.99.36-1.96.9-2.8.54-.81,1.32-1.42,2.22-1.76.83-.39,1.22-.75,1.22-1.58.03-.87.22-1.72.57-2.51.72-1.47,1.84-2.71,3.23-3.59l3.23-2.3c1.55-1.18,3.34-2.03,5.24-2.48.52-.06,1.05-.06,1.58,0h.54c-.69.08-1.37.2-2.05.36-1.81.56-3.5,1.44-4.99,2.62l-3.16,2.4c-1.23.78-2.22,1.89-2.87,3.19-.32.71-.49,1.48-.5,2.26,0,.5-.17.99-.47,1.4-.35.36-.76.66-1.22.86-.77.31-1.42.84-1.89,1.52-.47.68-.72,1.49-.73,2.32-.03.7.11,1.39.42,2.02.31.63.77,1.17,1.34,1.57l.72.47-.79.29c-.7.35-1.26.93-1.58,1.64-.32.71-.38,1.52-.18,2.27.4,1.46,1.1,2.83,2.05,4.02v.25l-.22.22c-.55.56-.98,1.23-1.27,1.97-.29.73-.43,1.52-.42,2.3.02,1.23.43,2.43,1.18,3.41.67.93,1.53,1.71,2.51,2.3Z"/>
  <path class="cls-4" d="M1012.52,568.78c-.41,0-.81-.09-1.18-.25-1.09-.35-2.1-.89-3.01-1.58-1.5-1.02-2.73-2.39-3.59-3.98-.61-1-.83-2.19-.61-3.34.11-.32.28-.61.51-.86.23-.25.51-.44.82-.57.34-.17.72-.23,1.09-.17.37.06.72.23.99.49l-.65.39c-.52-1.02-.72-2.17-.57-3.3.14-.65.51-1.22,1.04-1.62.29-.19.62-.31.96-.36.34-.05.69-.03,1.02.07.47.17.97.25,1.47.22.32,0,.39-.5.36-1.15,0-1.34.52-2.62,1.44-3.59.72-.8,1.65-1.38,2.68-1.68,1.03-.3,2.13-.3,3.17,0l-.57.54c-.27-.8-.33-1.66-.17-2.49s.53-1.6,1.07-2.25c.32-.28.69-.49,1.09-.62.4-.13.83-.17,1.25-.13.42.03.83.18,1.17.42.34.25.61.59.77.98h-.75c-.1-2.18.41-4.34,1.47-6.24.79-1.48,1.89-2.76,3.23-3.77.83-.67,1.76-1.2,2.76-1.58.34-.16.7-.26,1.08-.29-1.27.6-2.47,1.34-3.59,2.19-1.21.99-2.2,2.21-2.94,3.59-.95,1.82-1.39,3.87-1.26,5.92l.22,3.12-.93-2.98c-.32-1.04-2.12-1.18-2.98-.32-.43.55-.72,1.2-.83,1.89-.11.69-.05,1.4.18,2.06l.22.75-.75-.25c-.87-.25-1.8-.25-2.67,0-.87.25-1.65.75-2.25,1.43-.78.82-1.23,1.91-1.26,3.05.05.33.05.67,0,1.01-.04.21-.14.41-.29.58-.15.16-.33.29-.54.36-.63.18-1.3.18-1.94,0-.2-.11-.43-.17-.66-.17s-.46.06-.66.17c-.36.27-.62.67-.72,1.11-.12.99.06,1.98.5,2.87l.83,2.08-1.47-1.69c-.57-.68-1.97,0-2.15.79-.19.97-.02,1.98.47,2.83.74,1.53,1.82,2.86,3.16,3.91,1.2,1.02,2.56,1.83,4.02,2.4Z"/>
  <path class="cls-4" d="M1075.71,506.52c.52-.97.73-2.07.61-3.16-.09-.58-.33-1.13-.69-1.6-.36-.47-.82-.84-1.36-1.09-.67-.29-1.42-.38-2.14-.27-.72.11-1.4.43-1.95.92l-.54.5v-.72c-.17-.9-.5-1.76-.97-2.55-.23-.39-.55-.73-.92-.99-.37-.27-.79-.45-1.24-.55-1.36,0-2.91,1.11-2.55,2.22h-.79c-.21-1.68-1.06-3.22-2.37-4.31-1.03-.82-2.28-1.31-3.59-1.4-1.23-.01-2.44.21-3.59.65,0,0,.25-.29.86-.57.86-.41,1.81-.62,2.76-.61,1.48,0,2.92.49,4.09,1.4,1.51,1.15,2.51,2.85,2.76,4.74h-.83c-.12-.46-.1-.94.05-1.39.15-.45.43-.84.81-1.13.72-.6,1.65-.9,2.58-.83.57.11,1.11.34,1.59.67.48.33.88.76,1.17,1.26.55.87.9,1.85,1.04,2.87l-.68-.25c.67-.59,1.5-.96,2.38-1.08.88-.11,1.78.03,2.57.43.62.3,1.16.75,1.55,1.32.4.57.64,1.22.71,1.91.1.87-.08,1.75-.5,2.51-.17.44-.47.82-.86,1.08Z"/>
</svg>
