<?xml version="1.0" encoding="UTF-8"?>
<svg id="Layer_1" data-name="Layer 1" xmlns="http://www.w3.org/2000/svg" viewBox="0 0 1966.4 1938">
  <defs>
    <style>
      .cls-1 {
        fill: #000;
      }

      .cls-1, .cls-2, .cls-3, .cls-4, .cls-5, .cls-6, .cls-7, .cls-8, .cls-9, .cls-10, .cls-11 {
        stroke-width: 0px;
      }

      .cls-2 {
        fill: #e0e0e0;
      }

      .cls-3 {
        fill: #eb996e;
      }

      .cls-4 {
        fill: #455a64;
      }

      .cls-5 {
        fill: #f5f5f5;
      }

      .cls-6 {
        fill: #09f;
      }

      .cls-7 {
        fill: #ebebeb;
      }

      .cls-8 {
        fill: #d1734a;
      }

      .cls-9 {
        fill: #263238;
      }

      .cls-10 {
        fill: #fafafa;
      }

      .cls-12 {
        opacity: .3;
      }

      .cls-13 {
        opacity: .6;
      }

      .cls-11 {
        fill: #fff;
      }
    </style>
  </defs>
  <path class="cls-2" d="M1799.13,800.24l10.38,3.48c1.77.59,3.63.82,5.49.69,1.85-.13,3.67-.63,5.33-1.46,1.66-.83,3.14-1.99,4.36-3.4,1.21-1.41,2.13-3.05,2.72-4.82l137.72-413.84c1.04-3.13,1.45-6.43,1.22-9.72-.24-3.29-1.12-6.5-2.59-9.44-1.47-2.95-3.52-5.57-6.01-7.73-2.49-2.16-5.38-3.8-8.51-4.84l-150.09,451.09Z"/>
  <path class="cls-5" d="M1393.23,1614.83l115.92,38.6,325.97-979.69c5.11-15.35,3.92-32.1-3.3-46.58-7.22-14.48-19.88-25.5-35.21-30.66-15.37-5.1-32.14-3.89-46.62,3.36-14.48,7.25-25.49,19.96-30.62,35.32l-326.15,979.65Z"/>
  <path class="cls-11" d="M1581.23,1049.93l75.67,159.43-17.32,52.01-76.63-156.52,18.28-54.92Z"/>
  <path class="cls-11" d="M1552.52,1136.12l75.68,159.43-8.25,24.79-76.63-156.51,9.2-27.7Z"/>
  <path class="cls-2" d="M1708.52,640l129.6,43.15,107.16-322.06c2.83-8.52,3.94-17.51,3.29-26.47-.66-8.95-3.07-17.69-7.09-25.71-4.03-8.02-9.61-15.17-16.41-21.03-6.8-5.86-14.68-10.33-23.21-13.14-8.52-2.83-17.51-3.96-26.47-3.31-8.95.65-17.69,3.06-25.72,7.09-8.02,4.03-15.17,9.61-21.03,16.41-5.87,6.8-10.33,14.69-13.14,23.22l-106.98,321.85Z"/>
  <path class="cls-7" d="M1801.22,794c-.56-.22,31.17-96.99,70.82-216.17,39.64-119.18,72.29-215.69,72.85-215.52.57.17-31.17,96.99-70.81,216.21-39.64,119.22-72.29,215.65-72.85,215.48Z"/>
  <path class="cls-2" d="M1457.35,1698l-49.44-16.45c-8.74-2.91-15.97-9.17-20.09-17.4-4.13-8.24-4.81-17.77-1.9-26.52l7.54-22.66,115.51,38.43-7.45,22.41c-1.42,4.37-3.69,8.42-6.69,11.91-2.99,3.49-6.65,6.35-10.77,8.42-4.11,2.06-8.58,3.29-13.17,3.61-4.59.32-9.19-.27-13.54-1.75Z"/>
  <path class="cls-2" d="M1812.46,674.6c.56,0-71.55,218.43-161.07,487.44-89.53,269.01-162.55,487-163.03,486.83-.48-.17,71.55-218.43,161.07-487.52,89.53-269.09,162.47-486.92,163.03-486.74Z"/>
  <path class="cls-2" d="M1774.65,662.01c.56.22-71.55,218.47-161.08,487.44-89.52,268.96-162.51,487-163.07,486.83-.56-.17,71.55-218.39,161.07-487.48,89.53-269.09,162.51-486.96,163.08-486.78Z"/>
  <path class="cls-2" d="M1736.87,649.47c.56,0-71.59,218.43-161.07,487.43-89.48,269.01-162.55,486.96-163.12,486.78-.57-.17,71.55-218.38,161.07-487.48,89.53-269.09,162.55-486.96,163.12-486.74Z"/>
  <path class="cls-2" d="M440.46,105.8H49.02v567.41h391.44V105.8Z"/>
  <path class="cls-5" d="M420.84,105.8H29.39v567.41h391.44V105.8Z"/>
  <path class="cls-11" d="M372.25,167.24H78.06v444.5h294.19V167.24Z"/>
  <path class="cls-2" d="M372.21,611.73v-32.86c0-21.27,0-52.1-.26-91.57,0-78.15-.3-189.34-.48-320.07l.96,1H78.28l1.04-1.09v444.5l-.82-.87,214.09.48h80.06-79.5l-214.65.48h-1.17V165.33h296.23v2c-.22,130.99-.35,242.18-.48,320.72,0,39.08-.22,70.08-.26,91.18v30.39c0,1.47-.61,2.12-.61,2.12Z"/>
  <path class="cls-2" d="M421.96,105.8c-2.03,3.57-4.37,6.96-6.99,10.12-4.34,6.08-10.98,14.37-18.37,23.31-7.38,8.94-14.24,16.85-19.36,22.49-2.6,3.17-5.51,6.08-8.68,8.68,2.24-3.44,4.74-6.71,7.47-9.77l18.84-22.84,18.93-22.58c2.42-3.39,5.16-6.54,8.16-9.42Z"/>
  <path class="cls-11" d="M373.73,610.17c14.63,23.26,31.84,44.79,51.32,64.17l-51.32-64.17Z"/>
  <path class="cls-2" d="M425.05,674.47c-3.27-2.37-6.27-5.09-8.94-8.12-6.82-6.9-13.29-14.14-19.36-21.71-6.09-7.61-11.78-15.52-17.06-23.7-2.33-3.3-4.32-6.82-5.95-10.51,2.65,3.04,5.06,6.27,7.21,9.68,4.34,6.04,10.38,14.33,17.37,23.18,6.99,8.86,13.85,16.59,18.8,22.14,2.86,2.82,5.51,5.84,7.95,9.03Z"/>
  <path class="cls-11" d="M29.57,672.74l51.27-63.26-51.27,63.26Z"/>
  <path class="cls-2" d="M80.62,609.48c-7.69,11.2-15.96,21.98-24.79,32.31-8.28,10.77-17.12,21.11-26.48,30.95,7.69-11.15,15.97-21.89,24.79-32.17,8.28-10.82,17.12-21.19,26.48-31.09Z"/>
  <path class="cls-2" d="M29.57,105.8c8.87,9.43,17.19,19.36,24.92,29.74,8.19,9.92,15.82,20.3,22.84,31.09-8.75-9.46-16.99-19.37-24.7-29.7-8.24-9.96-15.93-20.35-23.05-31.13Z"/>
  <path class="cls-2" d="M280.56,257.5h-98.51v279.69h98.51v-279.69Z"/>
  <path class="cls-2" d="M100.47,1506.02c-17.09-10.68-36.4-17.3-56.44-19.37-9.2-.95-19.28-.69-26.66,4.91-.85.49-1.56,1.19-2.04,2.05-.48.85-.72,1.83-.69,2.81.43,1.38,1.36,2.56,2.6,3.3,11.96,8.54,26.04,13.64,40.69,14.75,14.66,1.11,29.34-1.81,42.45-8.45"/>
  <path class="cls-2" d="M99.03,1504.55c-13.05-9.6-25.24-20.32-36.43-32.04-11.2-11.8-19.06-26.36-22.79-42.2-.75-2.34-.97-4.83-.66-7.27.31-2.45,1.14-4.79,2.44-6.89,29.05,22.67,51.84,52.1,57.44,88.4Z"/>
  <path class="cls-2" d="M100.16,1505.81c-2.68-15.83-2.45-32.01.69-47.75,3.23-15.88,12.31-29.97,25.44-39.47,5.04,11.72,2.87,25.23-.65,37.47-5.48,18.97-14.02,36.91-25.27,53.14"/>
  <path class="cls-2" d="M128.64,1556.65c-17.1,2.79-32.91,10.83-45.24,23.01-12.96,11.8-21.98,27.31-25.83,44.41,16.93-1.04,31.3-13.02,41.72-26.39,10.42-13.38,17.63-28.09,29.09-40.59"/>
  <path class="cls-2" d="M134.81,1564.94c-6.76-17.28-9.12-35.97-6.84-54.38,2.27-18.41,9.1-35.97,19.87-51.08,9.86,34.99,6.25,74.55-13.03,105.46Z"/>
  <path class="cls-2" d="M172.41,1609.7c-15.79-.98-31.52,2.7-45.23,10.59-13.71,7.89-24.8,19.64-31.88,33.78-.96,1.91-1.78,4.34-.52,6.04.66.66,1.48,1.14,2.37,1.41.89.26,1.84.3,2.75.11,15.2-1,28.66-10.12,39.77-20.54,11.11-10.42,20.8-22.45,33.04-31.43"/>
  <path class="cls-2" d="M171.19,1607.28c-8.09-26.05-8.58-53.87-1.43-80.19,2.82-10.33,7.55-21.19,17.11-26.05.39-.25.82-.42,1.28-.49.46-.08.92-.06,1.37.06.76.41,1.35,1.1,1.65,1.91,3.2,7.23,4.59,15.13,4.04,23.01-.57,7.84-1.78,15.62-3.6,23.27-3.04,14.24-4.65,29.57-12.42,41.81-1.86,2.96-3.53,6.03-4.99,9.2-1.48,3.13-1.48,4.34-2.82,6.69"/>
  <path class="cls-2" d="M270.7,1622.12c-3.34-14.64-3.44-29.83-.32-44.52,3.13-14.69,9.41-28.52,18.42-40.53,1.3-1.69,3.04-3.52,5.17-3.3,3.26.3,4.08,4.64,3.95,7.9-1.37,28.84-10.8,56.71-27.22,80.45Z"/>
  <path class="cls-2" d="M279.65,1628.24c17.42,4.1,35.53,4.38,53.06.81,17.54-3.57,34.1-10.9,48.53-21.48-16.99-8.53-36.42-10.91-54.97-6.73-18.32,4.34-35.12,12.41-46.54,27.4"/>
  <path class="cls-2" d="M287.24,1609.58c19.06-31.13,55.66-51.4,92.09-53.27-4.34,14.81-16.37,26.36-30.13,33.3-14.06,6.37-28.93,10.75-44.2,13.02-5.9,1.13-13.98,2.39-17.76,7.03"/>
  <path class="cls-2" d="M272.7,1518.96c5.77-17.52,9.73-35.59,11.81-53.92,2.01-18.47-1.75-37.11-10.77-53.36-17.8,34.48-19.62,74.76-1.56,109.15"/>
  <path class="cls-2" d="M332.57,1488.66c20.84-37.9,63.39-68.16,106.41-72.37-16.58,41.29-61.87,73.24-106.41,72.37Z"/>
  <path class="cls-2" d="M319.46,1496.08c31.09,4.73,57.57,24.57,86.83,36.6,6.09,2.94,12.84,4.23,19.58,3.73,3.14-.02,6.2-1.01,8.76-2.83,2.56-1.82,4.49-4.39,5.54-7.35,1.05-2.96,1.16-6.17.32-9.2-.84-3.03-2.6-5.72-5.02-7.71-4.11-3.8-8.94-6.76-14.2-8.68-31.65-13.03-65.56-13.5-98.9-5.52"/>
  <path class="cls-2" d="M301.48,1517.88c7.03,2,9.47,5.65,15.02,10.38,19,16.16,41.49,27.7,65.69,33.73,2.47.65,5.77.87,7.03-1.39,1.26-2.26-.3-4.34-1.69-6.12-10.56-12.38-24.27-21.68-39.68-26.92-15.15-5.64-28.26-12.46-46.37-10.98"/>
  <path class="cls-2" d="M281.38,1386.2c12.78,11.77,27.88,20.74,44.33,26.33,16.45,5.58,33.89,7.66,51.19,6.11,1.59.03,3.14-.53,4.34-1.57,2.43-2.61-.48-6.64-3.26-8.68-28-21.71-61.96-30.91-96.34-22.06"/>
  <path class="cls-2" d="M305.26,1377.38c16.87-12.41,36.44-20.66,57.11-24.07,20.67-3.41,41.85-1.89,61.81,4.45-15.5,14.37-35.37,23.14-56.44,24.88-20.9,1.9-41.97.13-62.26-5.26"/>
  <path class="cls-2" d="M295.71,1316.9c-2.78-28-1-50.06-2.91-78.15,0-2.26-.65-4.95-2.74-5.77-2.95-1.13-5.38,2.47-6.34,5.47-4.08,13.02-5.12,26.8-3.05,40.29,2.07,13.48,7.2,26.32,14.99,37.52"/>
  <path class="cls-2" d="M293.67,1319.98c18.27-11.79,34.01-27.1,46.33-45.02,9.16-12.55,16.89-27.52,14.81-42.89-6.44.17-12.77,1.74-18.54,4.61-5.77,2.86-10.85,6.95-14.89,11.97-7.99,10.14-13.78,21.81-17.02,34.3-3.73,12.29-6.3,24.92-10.68,37.03Z"/>
  <path class="cls-2" d="M339.21,1307.31c41.69-15.42,80.29-38.19,113.97-67.21-13.59-5.47-29.18-2.21-42.81,3.3-30.9,11.7-56.44,34.33-71.77,63.6"/>
  <path class="cls-2" d="M306.48,1335.23c20.99,3.01,42.29,3.11,63.3.3,20.54-3.43,39.9-11.55,59.09-19.62,1.68-.47,3.12-1.56,4.04-3.04.29-.9.31-1.86.05-2.77-.26-.91-.79-1.71-1.52-2.31-1.47-1.18-3.19-1.98-5.04-2.34-20.84-5.82-43.42-3.13-63.87,3.82-19.54,6.7-38.33,15.43-56.05,26.05"/>
  <path class="cls-2" d="M186.3,1387.33c-6.77-14.49-10.36-30.25-10.53-46.24-.17-15.99,3.08-31.82,9.53-46.45,8.68,13.33,9.77,30.39,8.21,46.11-1.56,15.72-6.43,32.13-6.73,48.02"/>
  <path class="cls-2" d="M128.95,1358.23c-17.97-.23-35.79,3.29-52.33,10.33-16.54,7.04-31.42,17.45-43.71,30.57,18.11,2.18,36.45-1.21,52.58-9.73,16.01-8.58,31.11-18.77,45.07-30.39"/>
  <path class="cls-2" d="M90.35,1345.34c-17.37-1.43-34.43-3.6-51.27,1.57-8.51,2.39-16.41,6.58-23.15,12.3-6.74,5.72-12.17,12.82-15.92,20.83,16.55,1.35,33.15-1.79,48.06-9.08,14.83-7.26,28.98-15.84,42.29-25.62Z"/>
  <path class="cls-2" d="M147.49,1345.91c-15.76-10.34-31.95-20.84-50.36-25.14-18.41-4.3-39.64-1.13-52.45,12.72,14.89,8.68,32.91,9.77,50.15,9.77s38.38-.22,54.62,5.51"/>
  <path class="cls-2" d="M147.57,1346.73c-26.96-26.49-37.16-73.81-26.35-110.23,21.3,32.58,30.62,71.54,26.35,110.23Z"/>
  <path class="cls-2" d="M221.73,1271.71c5.12-11.81,8.68-24.23,13.03-36.25,4.16-12.22,10.55-23.57,18.84-33.47,8.43-9.96,20.44-16.2,33.43-17.37-4.15,18.24-12.06,35.41-23.22,50.42-11.16,15.01-25.33,27.53-41.6,36.76"/>
  <path class="cls-2" d="M208.31,1287.47c-8.42-11.59-18.15-27.31-29.57-35.95-11.42-8.64-26.05-13.89-40.2-10.55,7.22,12.63,17.29,23.41,29.4,31.49,12.11,8.07,25.93,13.21,40.37,15.01Z"/>
  <path class="cls-2" d="M211,1272.67c-6.04-13.81-10.5-28.26-13.29-43.07-2.78-14.94-.41-30.39,6.73-43.8,14.81,27.96,19.58,58,7.34,87.22"/>
  <path class="cls-2" d="M221.9,1185.79c8.38-27.74,33.78-48.19,61.17-57.57,3.41-1.39,7.1-1.94,10.77-1.61,1.82.21,3.53.95,4.94,2.12,1.4,1.17,2.43,2.73,2.96,4.48,1,4.73-2.91,8.94-6.56,12.11-21.46,18.28-46.38,32.05-73.29,40.47Z"/>
  <path class="cls-2" d="M222.21,1163.08c1.04-17.89,2.17-36.03,7.99-52.97,5.82-16.93,17.02-32.86,33.34-40.29,2.78,18.06-5.21,36.04-14.81,51.62-9.6,15.59-21.23,30.39-27.01,47.54"/>
  <path class="cls-2" d="M221.73,1175.41c-6.9-20.24-7.64-45.94-19.75-63.52-8.47-12.33-22.01-20.71-29.31-33.73-4.38,12.51-3.76,26.23,1.74,38.3,5.48,11.95,13.07,22.82,22.4,32.09,8.94,9.59,16.63,16.8,24.92,26.92"/>
  <path class="cls-2" d="M221.9,1770.82c-.56,0-1.04-134.9-1.04-301.23s.35-301.27.87-301.27,1.04,134.85,1.04,301.27-.35,301.23-.87,301.23Z"/>
  <path class="cls-2" d="M339.73,1366.79c-1.61.81-3.29,1.45-5.04,1.91l-13.98,4.74c-11.77,3.99-27.92,9.81-45.46,16.97-17.54,7.16-33.78,13.5-43.11,21.71-3.73,3.1-6.7,7.02-8.68,11.46-1.35,3.17-1.56,5.12-1.78,5.08-.08-.48-.08-.96,0-1.43.19-1.34.53-2.64,1-3.91,1.76-4.7,4.65-8.89,8.42-12.2,5.64-4.77,11.94-8.68,18.71-11.64,7.47-3.47,15.76-7.12,24.57-10.72,17.37-7.2,33.87-13.02,45.76-16.54,5.95-1.82,10.81-3.21,14.2-4.13,1.75-.6,3.55-1.04,5.38-1.3Z"/>
  <path class="cls-2" d="M378.37,1271.88s-.43.61-1.39,1.52l-4.34,4.08-16.15,14.68-53.79,47.75c-21.01,18.67-39.07,36.56-51.71,49.97-6.3,6.73-11.24,12.29-14.63,16.16l-3.91,4.34c-.91,1-1.39,1.52-1.48,1.47.32-.61.72-1.18,1.17-1.69.82-1.09,2-2.73,3.65-4.73,3.17-4.04,7.99-9.73,14.2-16.59,16.24-17.73,33.4-34.6,51.41-50.54,21.06-18.62,40.25-35.38,54.18-47.45l16.54-14.19,4.6-3.78c.51-.39,1.07-.73,1.65-1Z"/>
  <path class="cls-2" d="M280.04,1359.06c-.56-.26,3.82-10.38,8.21-23.18,4.38-12.81,6.47-23.62,7.03-23.53-.47,8.27-2.22,16.42-5.21,24.14-1.89,5.48-4.06,10.86-6.51,16.11-.85,2.31-2.03,4.49-3.52,6.47Z"/>
  <path class="cls-2" d="M221.99,1440.69c-1.2-1.14-2.28-2.41-3.21-3.78-2.21-2.78-4.99-6.34-8.29-10.59-6.95-9.03-16.58-21.45-27.35-35.04-10.77-13.59-20.71-25.79-27.92-34.73l-8.42-10.34c-1.1-1.23-2.08-2.56-2.91-3.99,1.28,1.03,2.45,2.19,3.47,3.48,2.17,2.34,5.25,5.82,8.94,10.12,7.47,8.68,17.37,20.67,28.39,34.26,11.03,13.59,20.23,26.05,26.92,35.43,3.34,4.6,6.03,8.33,7.82,10.98,1,1.31,1.86,2.72,2.56,4.21Z"/>
  <path class="cls-2" d="M196.16,1407.51c-5.19-5.75-8.9-12.68-10.81-20.19-2.04-6.61-2.88-13.54-2.47-20.45h.87c-.39,1.56-.65,2.39-.82,2.34-.17-.05,0-.87,0-2.48h.87c.42,6.74,1.59,13.41,3.47,19.89,2.44,7.17,5.41,14.15,8.9,20.88Z"/>
  <path class="cls-2" d="M162.81,1365.62c-2.26-1.74-4.72-3.19-7.34-4.34-6.81-2.02-13.97-2.6-21.01-1.69-7.13.58-14.2,1.73-21.14,3.43-2.85.88-5.75,1.57-8.68,2.08,2.59-1.55,5.4-2.71,8.34-3.43,6.95-2.13,14.11-3.47,21.36-4,7.32-.99,14.76-.2,21.71,2.3,2.82,1.07,5.21,3.06,6.77,5.64Z"/>
  <path class="cls-2" d="M154.87,1355.37c0,.31-4.34-1.78-11.55-4.34-9.35-3.19-19.07-5.19-28.92-5.95-9.85-.73-19.75-.23-29.48,1.48-7.47,1.35-11.98,2.73-12.07,2.43.95-.61,1.99-1.05,3.08-1.31,2.84-1.01,5.74-1.84,8.68-2.47,19.71-4.38,40.27-2.87,59.13,4.34,2.83,1.06,5.58,2.31,8.25,3.73,1.95,1.35,2.95,1.96,2.87,2.08Z"/>
  <path class="cls-2" d="M221.73,1312.35c-3.43-9.55-6.24-19.31-8.42-29.22-2.83-9.78-5.02-19.72-6.56-29.78,3.44,9.57,6.25,19.37,8.42,29.31,2.82,9.75,5.01,19.67,6.56,29.7Z"/>
  <path class="cls-2" d="M222.29,1312.35c-2.73-5.99-5.86-11.79-9.38-17.37-3.95-5.33-8.57-10.12-13.76-14.24,1.95.49,3.77,1.43,5.3,2.74,3.91,2.87,7.32,6.38,10.07,10.38,4.17,5.37,6.85,11.75,7.77,18.49Z"/>
  <path class="cls-2" d="M221.9,1698.93s-.61-3.26-2.13-8.99c-2.24-8.05-5.26-15.86-9.03-23.32-12.96-24.41-29.02-47.06-47.76-67.38-10.64-12.2-21.01-23.71-29.83-34.73-7.88-9.71-15-19.99-21.32-30.78-4.22-7.28-7.82-14.91-10.77-22.79-1-2.82-1.69-5.04-2.08-6.56-.29-.74-.48-1.51-.56-2.3,0,0,1.13,3.08,3.39,8.68,3.16,7.75,6.92,15.24,11.24,22.4,6.48,10.65,13.74,20.81,21.71,30.39,8.68,10.9,19.19,22.36,29.87,34.74,18.94,20.41,35.01,43.32,47.76,68.07,3.74,7.58,6.65,15.55,8.68,23.75.51,2.23.9,4.49,1.17,6.77-.08.69-.2,1.37-.35,2.04Z"/>
  <path class="cls-2" d="M328.4,1578.62c-1.81,1.15-3.68,2.19-5.6,3.12-5.03,2.88-9.86,6.1-14.46,9.64-6.78,5.28-13.14,11.09-19.02,17.37-6.69,7.07-13.55,15.24-20.58,24.01-14.02,17.63-27.14,33.17-34.99,45.63-3.99,6.17-6.9,11.37-8.68,15.02-.91,1.92-1.93,3.79-3.04,5.6,0,0,0-.56.48-1.57.48-1,1-2.51,1.91-4.34,2.44-5.3,5.21-10.45,8.29-15.41,10.69-16.02,22.28-31.42,34.73-46.11,7.03-8.68,13.98-16.97,20.8-24.01,6-6.32,12.52-12.13,19.49-17.37,4.71-3.46,9.71-6.51,14.94-9.12,1.87-.95,3.34-1.52,4.34-1.95.44-.23.91-.4,1.39-.52Z"/>
  <path class="cls-2" d="M330.49,1617.65c-3.89.86-7.84,1.43-11.81,1.69-9.48,1-18.85,2.84-28,5.51-9.02,2.92-17.48,7.32-25.05,13.02-5.77,4.35-8.68,8.16-8.68,7.94s.43-1.09,1.74-2.69c1.82-2.3,3.88-4.41,6.12-6.3,7.46-6.18,16.04-10.87,25.27-13.81,9.26-2.75,18.8-4.44,28.44-5.04,3.98-.48,7.99-.59,11.98-.35Z"/>
  <path class="cls-2" d="M260.32,1641.66c-.61-.35,4.69-8.47,8.68-19.37,3.99-10.9,4.78-20.71,5.47-20.58.37,2.08.37,4.21,0,6.3-.58,5.09-1.74,10.1-3.47,14.93-1.83,4.8-4.17,9.38-6.99,13.68-.95,1.87-2.19,3.57-3.69,5.04Z"/>
  <path class="cls-2" d="M362.87,1473.85c-.58.4-1.21.74-1.87,1l-5.56,2.52c-2.43,1.04-5.38,2.34-8.68,4.13-3.3,1.78-7.25,3.47-11.29,5.9l-6.43,3.65c-2.26,1.3-4.34,2.82-6.82,4.34-4.73,2.87-9.47,6.42-14.54,10.03-21.75,16.18-40.71,35.8-56.14,58.09-3.43,5.21-6.82,10.07-9.55,14.9-1.39,2.43-2.82,4.69-4.04,6.95l-3.43,6.55c-2.3,4.13-3.91,8.08-5.51,11.46-1.61,3.39-2.87,6.38-3.82,8.69l-2.34,5.6c-.24.67-.54,1.31-.91,1.91.09-.7.28-1.39.56-2.04l2-5.77c1-3.06,2.18-6.06,3.52-8.98,1.52-3.43,3.04-7.47,5.3-11.64l3.34-6.69c1.17-2.3,2.61-4.61,3.95-7.03,2.69-4.91,6.04-9.81,9.46-15.11,7.77-11.21,16.4-21.81,25.79-31.69,9.53-9.74,19.81-18.71,30.74-26.83,5.17-3.6,9.99-7.12,14.8-9.94,2.34-1.48,4.6-2.95,6.86-4.34l6.56-3.6c4.34-2.34,8.08-4.04,11.46-5.69,3.39-1.65,6.38-2.91,8.68-3.82l5.69-2.21c.72-.22,1.46-.32,2.21-.31Z"/>
  <path class="cls-2" d="M278.6,1530.34c.76-2.73,2.37-5.15,4.6-6.9,5.2-4.53,11.83-7.06,18.71-7.17,6.73-.04,13.4,1.26,19.62,3.82,2.64.81,5.15,2.03,7.42,3.6-2.68-.54-5.31-1.31-7.86-2.3-6.17-2.1-12.63-3.18-19.15-3.21-6.47.15-12.72,2.35-17.84,6.3-2,1.8-3.84,3.76-5.51,5.86Z"/>
  <path class="cls-2" d="M266.01,1543.33c2.49-5.54,4.27-11.38,5.3-17.37.38-6.04-.03-12.09-1.22-18.02,1.15,1.47,1.91,3.2,2.21,5.04,2.26,8.69,1.18,17.91-3.04,25.83-1.65,3.13-3.08,4.82-3.26,4.52Z"/>
  <path class="cls-2" d="M128.73,1718.25c2.91,51.54,18.45,103.98,42.33,156.99h103.9c22.79-52.49,37.25-104.85,39.81-156.99h-186.04Z"/>
  <path class="cls-10" d="M297.92,1801.65c0,.56-34.21,1-76.37,1s-76.41-.44-76.41-1,34.17-.95,76.41-.95,76.37.43,76.37.95Z"/>
  <path class="cls-10" d="M295.62,1820.32c0,.56-32.08,1-71.64,1s-71.64-.44-71.64-1,32.08-.96,71.64-.96,71.64.44,71.64.96Z"/>
  <path class="cls-10" d="M172.84,1752.03c1.33,15.89,1.33,31.87,0,47.76-1.27-15.89-1.27-31.86,0-47.76Z"/>
  <path class="cls-10" d="M228.41,1752.03c1.27,16.49,1.27,33.05,0,49.54-1.33-16.48-1.33-33.05,0-49.54Z"/>
  <path class="cls-10" d="M280.64,1751.67c1.33,16.82,1.33,33.72,0,50.54-1.27-16.82-1.27-33.72,0-50.54Z"/>
  <path class="cls-10" d="M311.47,1752.03c0,.52-40.12.95-89.61.95s-89.61-.44-89.61-.95,40.12-1,89.61-1,89.61.52,89.61,1Z"/>
  <path class="cls-9" d="M1938.8,1871.16c0,.61-427.17,1.13-954.03,1.13s-954.12-.52-954.12-1.13,427.09-1.13,954.12-1.13,954.03.52,954.03,1.13Z"/>
  <path class="cls-2" d="M1604.89,1626.81l-997.36,14.93c-5.77.09-11.51-.97-16.88-3.11-5.36-2.13-10.26-5.31-14.39-9.35-4.13-4.03-7.43-8.85-9.7-14.16-2.27-5.31-3.47-11.02-3.52-16.8l-21.71-1452.37c-.17-11.62,4.27-22.84,12.37-31.18,8.09-8.34,19.17-13.13,30.79-13.32l997.41-14.94c5.77-.08,11.5.98,16.87,3.12,5.36,2.14,10.25,5.32,14.38,9.35,4.13,4.03,7.42,8.84,9.69,14.15,2.27,5.31,3.47,11.02,3.52,16.79l21.71,1452.36c.17,11.63-4.27,22.84-12.37,31.18-8.09,8.34-19.17,13.14-30.79,13.32Z"/>
  <path class="cls-9" d="M1604.89,1626.81l3.34-.26c3.32-.35,6.59-1.03,9.77-2.04,5.18-1.79,9.99-4.49,14.2-7.99,5.84-4.89,10.32-11.21,13.02-18.32,1.6-4.27,2.5-8.77,2.65-13.33v-15.15c-.17-10.62-.36-22.2-.57-34.73-.39-25.19-.87-54.27-1.39-86.83l-8.68-554.51c-1.78-117.22-3.74-245.26-5.86-382.89-1.04-68.86-2.11-139.97-3.21-213.35-.55-36.64-1.12-73.82-1.69-111.54-.32-18.84-.63-37.82-.95-56.92-.42-9.44-3.95-18.47-10.03-25.7-6.18-7.24-14.57-12.24-23.88-14.24-4.7-.84-9.48-1.13-14.24-.87h-14.59l-29.31.48-59.09.87-120.61,1.69-247.91,3.73-521.39,7.82c-11,.13-21.53,4.5-29.39,12.2-7.86,7.7-12.45,18.14-12.81,29.14,0,22.06.61,44.28.87,66.3.63,44.11,1.29,87.92,1.96,131.42,1.3,87.01,2.57,172.65,3.82,256.94,2.52,168.46,4.9,330.96,7.21,485.75,2.3,154.78,4.34,301.87,6.51,439.55.23,17.19.48,34.26.74,51.18,0,8.43,0,16.89.48,25.19.44,8.22,3.26,16.15,8.12,22.79,4.8,6.59,11.36,11.69,18.93,14.72,3.76,1.45,7.7,2.4,11.72,2.82,3.95.3,8.07,0,12.15,0l48.37-.7,183.78-2.69,554.6-7.86,150.74-2.08,39.07-.48h13.37l-13.37.3-39.07.7-150.74,2.56-554.47,8.69-183.74,2.82-48.41.74c-4.04,0-8.12.22-12.33,0-4.16-.42-8.25-1.4-12.16-2.91-7.87-3.15-14.69-8.45-19.71-15.29-5.11-6.89-8.13-15.1-8.69-23.66-.3-8.68-.3-16.85-.48-25.31-.26-16.87-.52-33.92-.78-51.14-2.09-137.67-4.35-284.77-6.64-439.55-2.3-154.78-4.78-317.29-7.34-485.74-1.27-84.23-2.56-169.87-3.86-256.94-.67-43.42-1.32-87.22-1.96-131.42-.3-22.1-.78-44.15-.91-66.43.38-11.54,5.19-22.5,13.44-30.58,8.25-8.09,19.3-12.68,30.85-12.83l521.39-7.77,248.03-3.95,120.22-1.78,59.09-.87,29.26-.43h14.59c4.91-.28,9.84.03,14.68.91,9.72,1.97,18.5,7.12,24.96,14.63,6.47,7.52,10.24,16.97,10.73,26.87.32,19.1.62,38.09.91,56.96.55,37.63,1.1,74.82,1.65,111.58,1.1,73.29,2.14,144.39,3.13,213.3,2.04,137.63,3.91,265.88,5.6,382.93,3.38,234.1,6.08,423.57,7.99,554.51.44,32.74.82,61.82,1.17,86.83.17,12.59.33,24.17.48,34.73,0,5.34.26,10.38,0,15.24-.18,4.59-1.11,9.12-2.74,13.42-2.3,6.17-5.96,11.74-10.71,16.3-4.75,4.56-10.47,8-16.72,10.05-3.17,1.03-6.45,1.68-9.77,1.96l-3.39.48Z"/>
  <g class="cls-12">
    <path class="cls-1" d="M666.05,1602.59l909.75-18.58,7.81-175.92-29.48-105.63-898.54,154.21,10.46,145.92Z"/>
  </g>
  <path class="cls-9" d="M1604.89,1626.81l3.34-.26c3.32-.35,6.59-1.03,9.77-2.04,5.18-1.79,9.99-4.49,14.2-7.99,5.84-4.89,10.32-11.21,13.02-18.32,1.6-4.27,2.5-8.77,2.65-13.33v-15.15c-.17-10.62-.36-22.2-.57-34.73-.39-25.19-.87-54.27-1.39-86.83l-8.68-554.51c-1.78-117.22-3.74-245.26-5.86-382.89-1.04-68.86-2.11-139.97-3.21-213.35-.55-36.64-1.12-73.82-1.69-111.54-.32-18.84-.63-37.82-.95-56.92-.42-9.44-3.95-18.47-10.03-25.7-6.18-7.24-14.57-12.24-23.88-14.24-4.7-.84-9.48-1.13-14.24-.87h-14.59l-29.31.48-59.09.87-120.61,1.69-247.91,3.73-521.39,7.82c-11,.13-21.53,4.5-29.39,12.2-7.86,7.7-12.45,18.14-12.81,29.14,0,22.06.61,44.28.87,66.3.63,44.11,1.29,87.92,1.96,131.42,1.3,87.01,2.57,172.65,3.82,256.94,2.52,168.46,4.9,330.96,7.21,485.75,2.3,154.78,4.34,301.87,6.51,439.55.23,17.19.48,34.26.74,51.18,0,8.43,0,16.89.48,25.19.44,8.22,3.26,16.15,8.12,22.79,4.8,6.59,11.36,11.69,18.93,14.72,3.76,1.45,7.7,2.4,11.72,2.82,3.95.3,8.07,0,12.15,0l48.37-.7,183.78-2.69,554.6-7.86,150.74-2.08,39.07-.48h13.37l-13.37.3-39.07.7-150.74,2.56-554.47,8.69-183.74,2.82-48.41.74c-4.04,0-8.12.22-12.33,0-4.16-.42-8.25-1.4-12.16-2.91-7.87-3.15-14.69-8.45-19.71-15.29-5.11-6.89-8.13-15.1-8.69-23.66-.3-8.68-.3-16.85-.48-25.31-.26-16.87-.52-33.92-.78-51.14-2.09-137.67-4.35-284.77-6.64-439.55-2.3-154.78-4.78-317.29-7.34-485.74-1.27-84.23-2.56-169.87-3.86-256.94-.67-43.42-1.32-87.22-1.96-131.42-.3-22.1-.78-44.15-.91-66.43.38-11.54,5.19-22.5,13.44-30.58,8.25-8.09,19.3-12.68,30.85-12.83l521.39-7.77,248.03-3.95,120.22-1.78,59.09-.87,29.26-.43h14.59c4.91-.28,9.84.03,14.68.91,9.72,1.97,18.5,7.12,24.96,14.63,6.47,7.52,10.24,16.97,10.73,26.87.32,19.1.62,38.09.91,56.96.55,37.63,1.1,74.82,1.65,111.58,1.1,73.29,2.14,144.39,3.13,213.3,2.04,137.63,3.91,265.88,5.6,382.93,3.38,234.1,6.08,423.57,7.99,554.51.44,32.74.82,61.82,1.17,86.83.17,12.59.33,24.17.48,34.73,0,5.34.26,10.38,0,15.24-.18,4.59-1.11,9.12-2.74,13.42-2.3,6.17-5.96,11.74-10.71,16.3-4.75,4.56-10.47,8-16.72,10.05-3.17,1.03-6.45,1.68-9.77,1.96l-3.39.48Z"/>
  <g class="cls-12">
    <path class="cls-1" d="M666.05,1602.59l909.75-18.58,7.81-175.92-29.48-105.63-898.54,154.21,10.46,145.92Z"/>
  </g>
  <path class="cls-11" d="M1571.73,148.85l-975.2,14.64,21.1,1405.27,975.2-14.64-21.1-1405.27Z"/>
  <path class="cls-9" d="M1592.56,1554.27c0-8.12-8.98-575.96-21.92-1405.3l.91.91-974.91,14.67,1-1c7.82,527.73,15.07,1015.29,20.84,1405.26l-.82-.78,974.91-13.76-975.04,15.41h-.78v-.78c-5.9-390.01-13.24-877.58-21.23-1405.3v-1.04h1.09l975.09-14.5h.91v.91c11.9,829.34,19.97,1397.18,19.97,1405.3Z"/>
  <path class="cls-2" d="M870.75,503.3l-213.28,3.2.68,45.15,213.28-3.2-.68-45.15Z"/>
  <path class="cls-5" d="M1322.59,398.06l-427.52,6.42.68,45.15,427.52-6.42-.68-45.15Z"/>
  <path class="cls-5" d="M857.28,404.09l-203.38,3.05.68,45.15,203.38-3.05-.68-45.15Z"/>
  <path class="cls-5" d="M1501.71,395.24l-154.72,2.32.68,45.15,154.72-2.32-.68-45.15Z"/>
  <path class="cls-2" d="M1465.59,1158.1l-275.01,4.13.77,51.44,275.01-4.13-.77-51.44Z"/>
  <path class="cls-2" d="M1501.84,607.05l-843.61,12.66.77,51.44,843.61-12.66-.77-51.44Z"/>
  <path class="cls-9" d="M1487.75,724.53c0,.61-181.74,3.86-405.95,7.21-224.2,3.34-406.03,5.56-406.03,4.95s181.74-3.86,405.99-7.21c224.25-3.34,405.99-5.56,405.99-4.95Z"/>
  <path class="cls-9" d="M1311.83,355.02c0,.65-101.94,2.69-227.68,4.34-125.73,1.65-227.67,2.91-227.72,2.26-.04-.65,101.94-2.65,227.68-4.34,125.73-1.69,227.68-2.87,227.72-2.26Z"/>
  <path class="cls-9" d="M1488.36,769.17c0,.65-181.79,3.86-405.95,7.21-224.16,3.34-405.94,5.55-405.94,4.95s181.7-3.86,405.99-7.21c224.29-3.34,405.9-5.56,405.9-4.95Z"/>
  <path class="cls-9" d="M1489.1,813.84c0,.61-181.74,3.86-405.95,7.21-224.2,3.34-406.03,5.56-406.03,4.95s181.74-3.86,405.99-7.21c224.25-3.34,405.99-5.55,405.99-4.95Z"/>
  <path class="cls-9" d="M1039.95,865.2c0,.65-81.06,2.34-181.04,3.86-99.99,1.52-181.09,2.17-181.14,1.56-.04-.6,81.06-2.34,181.09-3.82,100.03-1.47,181.05-2.21,181.09-1.61Z"/>
  <path class="cls-9" d="M1490.44,903.15c0,.61-181.79,3.86-405.95,7.21-224.15,3.34-406.03,5.56-406.03,4.95s181.7-3.86,405.99-7.21c224.29-3.34,405.99-5.6,405.99-4.95Z"/>
  <path class="cls-9" d="M1491.09,947.78c0,.66-181.74,3.86-405.94,7.21-224.21,3.34-406.03,5.56-406.03,4.95s181.74-3.86,405.99-7.21c224.25-3.34,405.99-5.55,405.99-4.95Z"/>
  <path class="cls-9" d="M1330.49,994.84c0,.65-145.66,3.34-325.32,5.99-179.66,2.65-325.36,4.35-325.62,3.78-.26-.56,145.66-3.34,325.36-6.04,179.7-2.69,325.58-4.34,325.58-3.73Z"/>
  <path class="cls-9" d="M1492.44,1037.09c0,.65-181.74,3.86-405.95,7.21-224.2,3.34-406.03,5.55-406.03,4.95s181.74-3.86,405.99-7.21c224.25-3.34,405.99-5.56,405.99-4.95Z"/>
  <path class="cls-9" d="M1493.13,1081.76c0,.6-181.79,3.82-405.99,7.21-224.21,3.38-406.03,5.55-406.03,4.94s181.74-3.86,405.99-7.2c224.25-3.35,405.99-5.61,406.03-4.95Z"/>
  <path class="cls-9" d="M883.8,58.78l445.1-6.68c7.29-.11,14.32,2.68,19.55,7.76,5.23,5.08,8.23,12.02,8.34,19.31l1.77,117.56-500.02,7.51-1.77-117.56c-.11-7.28,2.68-14.31,7.75-19.54,5.06-5.23,12-8.23,19.28-8.36Z"/>
  <path class="cls-9" d="M1169.21,0l-127.25,1.91,16.49,108.89,95.87-1.48,14.89-109.32Z"/>
  <path class="cls-4" d="M1324.28,52.23c0,.61-97.55,2.52-217.9,4.34-120.35,1.82-217.9,2.78-217.9,2.17s97.51-2.47,217.9-4.34c120.39-1.87,217.86-2.74,217.9-2.17Z"/>
  <path class="cls-4" d="M869.37,180.7c-.57,0-1.35-20.49-1.74-45.8-.39-25.31-.13-45.72.35-45.72s1.39,20.49,1.74,45.8c.34,25.31.21,45.72-.35,45.72Z"/>
  <path class="cls-4" d="M1341.87,162.98c-1.28-13.81-1.85-27.68-1.69-41.55-.55-13.88-.41-27.77.43-41.64.57,0,1.35,18.63,1.69,41.59.35,22.97.13,41.59-.44,41.59Z"/>
  <path class="cls-4" d="M1318.03,182.44c0,.56-100.12,2.56-223.64,4.34-123.52,1.78-223.68,2.91-223.68,2.3s99.86-2.52,223.64-4.34c123.78-1.82,223.68-2.87,223.68-2.3Z"/>
  <g class="cls-12">
    <path class="cls-1" d="M1357.02,93.26l21.62,61.09.44,30.04-23.36.35,1.3-91.48Z"/>
  </g>
  <path class="cls-6" d="M896.94,330.96c-4.56-2.2-8.38-5.67-11.03-9.99-2.81-4.4-4.32-9.5-4.34-14.72-.17-5.18,1.11-10.31,3.69-14.81,2.56-4.36,6.27-7.94,10.72-10.33,4.79-2.53,10.13-3.85,15.54-3.86,4.88-.13,9.73.76,14.24,2.61,4.1,1.73,7.69,4.48,10.42,7.99l-11.46,10.51c-1.38-1.91-3.18-3.47-5.27-4.54-2.09-1.08-4.4-1.65-6.76-1.66-1.72-.04-3.42.29-5.01.95-1.59.67-3.02,1.66-4.19,2.91-2.39,2.76-3.61,6.34-3.38,9.99-.11,3.65,1.19,7.19,3.64,9.9,1.23,1.22,2.7,2.16,4.31,2.78,1.62.61,3.34.88,5.07.78,2.34-.09,4.64-.73,6.69-1.87,2.05-1.14,3.8-2.75,5.12-4.69l11.76,10.2c-2.65,3.55-6.14,6.39-10.16,8.25-4.71,2.04-9.8,3.06-14.94,2.99-5.13-.07-10.19-1.22-14.85-3.38h.17Z"/>
  <path class="cls-6" d="M953.95,330.09c-4.57-2.25-8.43-5.73-11.16-10.03-2.08-3.25-3.46-6.9-4.05-10.71-.6-3.81-.4-7.7.57-11.44.98-3.73,2.72-7.22,5.11-10.25,2.4-3.03,5.39-5.52,8.79-7.34,4.89-2.49,10.28-3.83,15.77-3.91,5.49-.08,10.92,1.09,15.88,3.43,4.63,2.24,8.53,5.74,11.24,10.11,2.71,4.37,4.13,9.41,4.08,14.55.18,5.13-1.09,10.21-3.67,14.65-2.58,4.44-6.36,8.06-10.91,10.44-4.89,2.49-10.28,3.83-15.77,3.91s-10.92-1.09-15.88-3.43ZM975.65,317.07c1.85-1.19,3.35-2.85,4.34-4.82,1.09-2.26,1.61-4.75,1.52-7.25,0-2.51-.59-4.98-1.74-7.21-1.02-1.91-2.51-3.53-4.34-4.69-1.9-1.09-4.06-1.63-6.25-1.56-2.18-.03-4.32.56-6.17,1.69-1.86,1.18-3.36,2.85-4.34,4.82-1.04,2.27-1.56,4.74-1.52,7.23.04,2.49.63,4.95,1.74,7.18,1,1.93,2.5,3.55,4.35,4.69,1.9,1.09,4.06,1.64,6.25,1.61,2.24-.04,4.41-.7,6.3-1.91l-.13.22Z"/>
  <path class="cls-6" d="M1060.31,276.3l.82,54.62h-15.15l-21.1-24.49.39,24.79-17.98.26-.87-54.36,15.11-.26,21.1,24.49-.35-24.79,18.02-.26Z"/>
  <path class="cls-6" d="M1077.16,330.4c-3.74-.73-7.33-2.07-10.64-3.95l5.73-13.5c2.73,1.53,5.65,2.71,8.68,3.52,3.05.81,6.18,1.22,9.33,1.22,1.85.08,3.69-.2,5.43-.82.47-.17.87-.47,1.15-.88.29-.4.45-.89.45-1.38,0-1.13-.74-2-2.17-2.52-2.3-.79-4.67-1.39-7.07-1.78-3.59-.66-7.13-1.56-10.6-2.69-2.83-.97-5.37-2.64-7.38-4.86-2.24-2.6-3.41-5.95-3.3-9.38-.08-3.34.9-6.62,2.78-9.38,2.14-3.09,5.17-5.45,8.68-6.77,4.41-1.81,9.13-2.71,13.89-2.65,3.7-.05,7.4.3,11.03,1.04,3.36.67,6.61,1.83,9.64,3.43l-5.34,13.42c-4.72-2.45-9.96-3.76-15.28-3.82-4.74,0-7.08,1.26-7.03,3.52,0,1.09.74,1.91,2.12,2.43,2.28.74,4.62,1.29,6.99,1.65,3.58.58,7.11,1.43,10.55,2.56,2.87.95,5.45,2.61,7.51,4.82,2.26,2.57,3.44,5.91,3.3,9.33.07,3.32-.89,6.58-2.74,9.33-2.18,3.05-5.2,5.4-8.68,6.77-4.41,1.81-9.13,2.71-13.89,2.65-4.42.09-8.84-.35-13.16-1.3Z"/>
  <path class="cls-6" d="M1166.47,315.42v13.89l-45.37.69-.82-54.62,44.37-.65v13.89l-26.05.39v6.38l23.1-.35v13.29l-23.1.35v7.16l27.87-.43Z"/>
  <path class="cls-6" d="M1226.77,273.83l.78,54.57-15.11.22-21.14-24.49.39,24.83-17.93.26-.82-54.62h15.11l21.14,24.49-.39-24.79,17.97-.48Z"/>
  <path class="cls-6" d="M1247.7,287.76l-15.98.26-.22-14.28,50.41-.74v14.28l-15.98.22,1,40.46-18.41.26-.82-40.46Z"/>
  <g class="cls-12">
    <path class="cls-1" d="M777.94,1348.86l3.86,52.62s117.22,1.69,171.06-6.82l-1.31,33.08,117.22-98.56-156.3-6.16-134.55,25.84Z"/>
  </g>
  <path class="cls-6" d="M760.13,1389.93l-7.03-141.32c72.16,16.15,146.18,24.75,231.76,17.37l5.99,119.61c-76.67,7.16-153.74,10.68-230.72,4.34Z"/>
  <path class="cls-6" d="M959.5,1324.89l-.3-91.96,57.79,45.76,57.74,45.76-57.44,46.2-57.44,46.15-.35-91.91Z"/>
  <path class="cls-9" d="M1442.47,1273.41s.78,0,2.3.26l6.69,1c8.58,1.27,17.08,3.07,25.44,5.39,5.97,1.75,11.79,4.01,17.36,6.77,6.78,3.29,12.96,7.69,18.28,13.03,6.25,6.06,10.99,13.49,13.85,21.7,3.16,9.34,2.9,19.49-.74,28.66-4.29,9.85-10.97,18.48-19.45,25.09-9.01,7.17-18.83,13.26-29.27,18.15-22.63,11.39-46.45,20.26-71.03,26.44-56.57,14.14-115.78,13.91-172.23-.65-7.51-1.96-14.81-4.34-22.1-6.56-7.22-2.41-14.24-5.4-20.97-8.94-6.74-3.49-12.98-7.87-18.54-13.03-5.5-5.09-9.86-11.29-12.81-18.19-2.76-6.88-3.82-14.33-3.08-21.71.75-7.16,2.81-14.12,6.08-20.54,6.55-12.29,16.21-22.64,28-30.04,10.96-7.02,22.6-12.92,34.73-17.62,11.68-4.95,23.36-8.69,34.74-12.33,21.16-6.2,42.84-10.49,64.78-12.81,31.8-3.5,63.93-2.69,95.52,2.39,5.6.74,10.51,1.91,14.76,2.69,4.25.78,7.86,1.69,10.72,2.43l6.55,1.65c1.48.35,2.22.61,2.22.61,0,0-.78,0-2.26-.39l-6.6-1.43c-2.91-.65-6.47-1.47-10.77-2.22-4.29-.74-9.16-1.78-14.76-2.47-13.54-1.98-27.18-3.25-40.85-3.78-18.11-.6-36.23.11-54.23,2.13-21.82,2.4-43.39,6.76-64.43,13.02-11.78,3.51-23.37,7.63-34.73,12.33-12.05,4.61-23.6,10.43-34.48,17.36-11.47,7.22-20.85,17.31-27.22,29.27-3.36,6.13-5.35,12.92-5.86,19.89-.5,6.98.51,13.97,2.95,20.53,2.85,6.59,7.05,12.51,12.33,17.37,5.45,4.92,11.5,9.12,18.02,12.5,6.65,3.41,13.57,6.32,20.67,8.69,7.21,2.26,14.5,4.34,21.92,6.51,56.11,14.48,114.95,14.74,171.19.78,24.44-6.04,48.13-14.78,70.64-26.05,10.34-4.77,20.08-10.77,29-17.84,8.3-6.36,14.87-14.71,19.1-24.27,3.53-8.84,3.82-18.63.82-27.66-2.73-8.03-7.29-15.32-13.32-21.27-9.89-9.44-22-16.25-35.21-19.8-8.3-2.42-16.74-4.36-25.27-5.82l-6.64-1.21h-1.82Z"/>
  <path class="cls-9" d="M1712.61,1714.56s-22.67-155.73-20.76-246.39c1.91-90.66,0-192.56,0-192.56h10.46s-7.07,179.88.61,288.37c7.68,108.5,27.96,150.57,27.96,150.57h-18.15"/>
  <path class="cls-4" d="M1780.11,1100.39c-1.63-5.53-4.98-10.41-9.55-13.93-6.6-4.34-15.28-2.48-22.66,0-31.56,11.11-59.52,69.94-72.29,100.9l41.9,141.06c75.59-69.95,88.66-161.9,62.61-228.02Z"/>
  <path class="cls-9" d="M1768.13,1092.1c-.12.64-.32,1.27-.6,1.86l-2.04,5.12c-1.82,4.34-4.34,10.9-7.51,18.93-6.17,16.02-14.03,38.42-21.01,63.65-6.99,25.23-11.81,48.5-14.8,65.43-1.48,8.42-2.61,15.28-3.35,20.06-.34,2.22-.65,3.99-.87,5.47-.08.63-.23,1.26-.44,1.86-.08-.63-.08-1.27,0-1.91,0-1.47.35-3.3.56-5.51.52-4.82,1.48-11.68,2.78-20.19,7.09-44.32,19.13-87.7,35.9-129.34,3.26-7.94,5.99-14.37,8.03-18.72l2.34-5.03c.29-.59.62-1.16,1-1.69Z"/>
  <path class="cls-4" d="M1698.88,1362.45c-39.07-21.71-62.39-62.52-64.51-107.28-1.52-31.35,8.12-62.04,19.02-91.44.61-2.66,2.15-5.02,4.34-6.64,1.78-.65,3.69-.83,5.55-.54,1.86.29,3.63,1.04,5.12,2.19,28.53,16.24,45.8,47.24,55.01,78.71,6.6,20.9,8.8,42.94,6.47,64.73-3.59,22.91-14.5,44.05-31.08,60.26"/>
  <path class="cls-9" d="M1698.88,1362.45c-.06-.64-.06-1.27,0-1.91v-5.43c0-4.69,0-11.5-.56-19.88-1.13-21.84-3.56-43.58-7.29-65.12-4.34-25.27-9.64-47.76-13.54-64.26-1.91-8.03-3.47-14.59-4.64-19.37l-1.17-5.29c-.17-.61-.28-1.24-.35-1.87.31.55.53,1.16.65,1.78.44,1.39.91,3.08,1.52,5.21,1.3,4.35,3.08,11.07,5.21,19.24,4.34,16.28,9.68,39.07,14.02,64.25,3.69,21.63,5.88,43.5,6.56,65.43.21,8.42.21,15.24,0,19.97v5.39c-.04.64-.17,1.26-.39,1.87Z"/>
  <g class="cls-12">
    <path class="cls-1" d="M1698.88,1362.45c-39.07-21.71-62.39-62.52-64.51-107.28-1.52-31.35,8.12-62.04,19.02-91.44.61-2.66,2.15-5.02,4.34-6.64,1.78-.65,3.69-.83,5.55-.54,1.86.29,3.63,1.04,5.12,2.19,28.53,16.24,45.8,47.24,55.01,78.71,6.6,20.9,8.8,42.94,6.47,64.73-3.59,22.91-14.5,44.05-31.08,60.26"/>
  </g>
  <path class="cls-4" d="M1743.17,1600.76c38.64,8.47,70.46,35.73,107.71,48.97,24.66,8.69,52.54,11.86,72.24,29.09-4.73-11.9-15.94-19.84-26.79-26.66-30.68-19.17-63.44-34.79-97.64-46.58-17.36-6.08-36.55-11.12-54.44-6.12"/>
  <path class="cls-4" d="M1687.33,1635.15c-48.36-.74-99.33-41.94-147.62-44.42,50.41-16.28,122.57-2.95,147.62,44.42Z"/>
  <path class="cls-4" d="M1706.22,1519.1c24.57-8.68,51.53-9.25,77.37-5.25,25.69,4.75,50.94,11.62,75.5,20.53-2.47-16.8-16.06-29.43-28.87-40.59-9.38-8.7-19.55-16.51-30.39-23.31-10.9-6.79-23.5-10.34-36.34-10.25-7.71.51-15.24,2.56-22.14,6.04-6.9,3.48-13.03,8.3-18.02,14.2-9.82,10.66-15.91,24.22-17.37,38.64"/>
  <path class="cls-4" d="M1606.93,1465.69c-30.39-26.05-76.59-23.44-116.62-22.57,64.33,30.72,125.01,68.59,180.87,112.88,1.61-28.48-25.79-57.49-64.25-90.31Z"/>
  <g class="cls-12">
    <path class="cls-1" d="M1606.93,1465.69c-30.39-26.05-76.59-23.44-116.62-22.57,64.33,30.72,125.01,68.59,180.87,112.88,1.61-28.48-25.79-57.49-64.25-90.31Z"/>
  </g>
  <path class="cls-4" d="M1719.94,1429.79c14.85-10.31,30.5-19.41,46.8-27.22,16.06-7.25,31-18.89,46.5-27.27,20.06-10.85,37.47-26.05,55.87-39.46,18.41-13.42,38.68-25.62,61.22-29.18-18.56-3.32-37.64-2.22-55.7,3.21-17.98,5.42-35.52,12.24-52.44,20.4-23.75,10.68-47.76,21.71-67.34,39.07-19.58,17.37-36.99,34.52-34.73,60.48"/>
  <path class="cls-9" d="M1850.01,1635.15s-.56,0-1.52-.65l-4.35-2.17c-3.64-1.95-8.68-4.82-15.45-8.12-3.26-1.74-6.86-3.52-10.77-5.39-3.91-1.86-8.12-3.82-12.59-5.73-9.61-4.32-19.58-7.79-29.78-10.38-10.13-2.83-20.79-3.09-31.05-.78-4.43.97-8.79,2.27-13.02,3.91-3.69,1.51-7.23,3.34-10.59,5.47-4.9,3.07-9.39,6.76-13.33,10.99-2.83,3.04-4.34,4.86-4.34,4.78.23-.51.52-.99.87-1.43.91-1.31,1.87-2.57,2.91-3.78,3.79-4.44,8.17-8.34,13.03-11.59,3.39-2.24,6.98-4.16,10.72-5.73,4.31-1.82,8.77-3.28,13.33-4.34,10.48-2.45,21.41-2.22,31.78.65,10.31,2.61,20.37,6.16,30.04,10.6,4.34,2,8.69,3.95,12.55,5.95,3.86,2,7.51,3.77,10.72,5.55,6.56,3.48,11.68,6.51,15.24,8.68l4.08,2.48c.55.28,1.05.63,1.52,1.04Z"/>
  <path class="cls-9" d="M1651.25,1611.18c1.03.17,2.04.48,3,.91,2.71.96,5.35,2.1,7.9,3.43,17.05,8.62,31.12,22.13,40.42,38.82,1.4,2.5,2.65,5.08,3.74,7.72.5.94.84,1.95,1,3-.26,0-2.08-3.95-5.77-10.12-4.85-7.93-10.69-15.23-17.37-21.7-6.76-6.47-14.31-12.04-22.49-16.59-6.38-3.56-10.55-5.17-10.42-5.47Z"/>
  <path class="cls-9" d="M1544.19,1463.27c.71.14,1.41.34,2.08.6l5.77,2.08,9.16,3.35c3.56,1.34,7.47,3.3,11.85,5.25,22.69,10.48,43.87,23.98,62.95,40.12,10.45,8.95,20.27,18.61,29.39,28.91,7.39,8.44,14.35,17.25,20.84,26.4,5.51,7.86,9.73,14.37,12.59,18.88l3.3,5.17c.41.59.77,1.22,1.09,1.86-.52-.49-.97-1.04-1.35-1.65-.87-1.13-2.08-2.82-3.6-5.04-3.04-4.34-7.38-10.81-13.03-18.49-5.64-7.68-12.67-16.63-21.01-26.05-9.16-10.15-18.95-19.72-29.31-28.65-19.02-16.01-39.98-29.56-62.39-40.34-4.34-2-8.16-4.03-11.68-5.43l-9.03-3.64-5.69-2.34c-.68-.27-1.34-.61-1.96-1Z"/>
  <path class="cls-9" d="M1778.81,1491.92c-1.32.02-2.63-.12-3.91-.39l-4.34-.82c-1.74-.35-3.73-.35-5.95-.56-11.48-1.01-23.01,1.26-33.25,6.55-5.6,2.91-10.7,6.7-15.11,11.21-3.68,3.63-6.94,7.67-9.73,12.02-2.53,4.07-4.75,8.32-6.64,12.72.12-1.3.44-2.57.95-3.78,1.23-3.34,2.78-6.56,4.65-9.59,2.69-4.55,5.93-8.74,9.64-12.51,6.31-6.63,14.08-11.71,22.7-14.8,8.62-3.1,17.83-4.14,26.93-3.04,2.21.31,4.34.39,5.99.82l4.34,1.09c1.29.2,2.54.57,3.74,1.09Z"/>
  <path class="cls-9" d="M1827.44,1341.09c-.57.44-1.18.82-1.82,1.13l-5.39,2.91c-4.69,2.52-11.46,6.25-19.67,11.11-8.21,4.86-17.8,10.9-28.05,18.24-11.16,7.76-21.62,16.47-31.26,26.05-4.98,4.92-9.28,10.49-12.81,16.54-3.17,6.08-6.21,11.98-8.98,17.62-5.02,9.96-9.51,20.18-13.46,30.61-2.6,7.1-4.78,14.35-6.51,21.71-1.26,5.17-1.69,8.12-1.86,8.07-.01-.72.07-1.43.21-2.12,0-1.43.44-3.48,1-6.08,1.48-7.37,3.5-14.63,6.04-21.71,3.76-10.52,8.11-20.83,13.02-30.87,2.78-5.69,5.77-11.59,8.9-17.71,3.58-6.2,7.96-11.91,13.02-16.98,9.72-9.71,20.3-18.52,31.61-26.31,10.34-7.29,20.06-13.24,28.35-18.02,8.29-4.78,15.15-8.29,19.97-10.64l5.51-2.65c.68-.4,1.41-.71,2.17-.92Z"/>
  <path class="cls-9" d="M1691.81,1487.58c-.49-1.32-.82-2.69-1-4.08l-2.08-11.2c-2.35-12.27-5.42-24.39-9.16-36.3-3.92-11.84-8.52-23.43-13.81-34.73-1.87-4.13-3.47-7.6-4.73-10.34-.63-1.25-1.16-2.56-1.57-3.91.86,1.12,1.59,2.32,2.17,3.6,1.31,2.34,3.09,5.82,5.21,10.12,11.42,22.44,19.2,46.54,23.06,71.42.78,4.78,1.3,8.68,1.61,11.29.22,1.37.32,2.74.3,4.13Z"/>
  <path class="cls-4" d="M1688.29,1377.47c-1.55-18.27-6.9-36.02-15.72-52.1-11.94-22.18-28.59-41.46-48.79-56.51-20.19-15.05-43.43-25.51-68.09-30.62l108.19,161.25,13.98,28.78c9.51-15.76,11.64-32.52,10.42-50.8Z"/>
  <path class="cls-6" d="M1843.5,1695.28h-251.6v44.59h251.6v-44.59Z"/>
  <path class="cls-6" d="M1610.71,1731.05l21.4,138.37h167.02l25.57-138.37h-214Z"/>
  <path class="cls-9" d="M1843.33,1739.96c0,.48-56.74.86-126.73.86s-126.73-.39-126.73-.86,56.74-.91,126.73-.91,126.73.39,126.73.91Z"/>
  <path class="cls-11" d="M279.86,511.57l-8.68-31.3c13.45-22.37,18.04-48.96,12.86-74.54-5.17-25.58-19.73-48.3-40.81-63.69-21.08-15.39-47.15-22.34-73.1-19.47-25.94,2.86-49.87,15.33-67.09,34.95-17.21,19.62-26.46,44.97-25.93,71.06.54,26.09,10.82,51.04,28.82,69.94,18,18.9,42.43,30.37,68.46,32.17,26.04,1.8,51.81-6.21,72.24-22.46l33.21,3.34Z"/>
  <path class="cls-9" d="M279.86,511.57l-2.26-.3-6.43-.74-24.53-2.74.3.78s.08-.1.11-.16c.03-.06.04-.12.04-.19s-.01-.13-.04-.19c-.03-.06-.06-.11-.11-.16-.09-.06-.19-.1-.3-.1s-.22.03-.3.1c-13.57,10.53-29.53,17.53-46.46,20.4-10.94,1.81-22.1,1.81-33.04,0-18.27-2.78-35.46-10.42-49.77-22.13s-25.19-27.05-31.53-44.41c-6.34-17.36-7.88-36.11-4.48-54.28,3.4-18.17,11.63-35.09,23.82-48.98l4.34-4.69,4.65-4.34c3.12-2.79,6.4-5.39,9.81-7.81,16.12-11.28,35.14-17.69,54.8-18.46,19.66-.77,39.13,4.13,56.08,14.12,11.81,6.93,22.12,16.12,30.35,27.06,8.23,10.94,14.21,23.4,17.6,36.66,3.39,13.26,4.11,27.06,2.13,40.61-1.98,13.54-6.62,26.56-13.66,38.3v.39l6.51,23.05c.74,2.56,1.3,4.56,1.74,5.99.43,1.43.65,2.13.65,2.13,0,0,0-.65-.48-1.95-.48-1.3-.83-3.43-1.48-5.95-1.39-5.47-3.43-13.33-6.03-23.53v.39c9.08-14.8,14.31-31.63,15.2-48.97,1.33-26.98-7.77-53.44-25.4-73.91-17.63-20.47-42.45-33.38-69.34-36.06-16.21-1.46-32.55.8-47.76,6.6-7.88,3-15.37,6.94-22.32,11.72-3.48,2.47-6.81,5.13-9.99,7.99l-4.78,4.34-4.34,4.82c-10.26,11.76-17.78,25.65-22,40.67-4.22,15.02-5.05,30.8-2.42,46.18,2.63,15.38,8.65,29.98,17.63,42.75,8.98,12.76,20.68,23.37,34.27,31.05,18.09,10.24,38.84,14.85,59.57,13.2,20.73-1.64,40.49-9.44,56.75-22.41l-.69-.65s-.08.09-.11.15c-.03.06-.04.12-.04.18s.01.12.04.18c.03.06.06.11.11.15l24.96,2.17,6.3.52,2.3.48Z"/>
  <path class="cls-6" d="M180.26,476.71l-54.75-36.6,12.76-19.1,36.73,24.53,45.67-60.44,18.36,13.85-58.79,77.76Z"/>
  <path class="cls-9" d="M524.51,1737.91l-6.29,86.27s90.48,34.99,90.95,51.06l-177.09-5.55,3.99-134.59,88.44,2.82Z"/>
  <path class="cls-2" d="M463.73,1815.2c-1.68.37-3.15,1.37-4.13,2.79s-1.38,3.15-1.13,4.85c.45,1.68,1.52,3.13,2.99,4.06s3.24,1.28,4.95.97c.94-.09,1.86-.39,2.68-.88.82-.48,1.52-1.14,2.06-1.92.54-.78.9-1.67,1.07-2.61.16-.94.12-1.89-.13-2.82-.25-.92-.69-1.77-1.29-2.5-.61-.73-1.37-1.32-2.22-1.72-.86-.41-1.79-.62-2.74-.63-.95-.02-1.89.18-2.76.57"/>
  <path class="cls-4" d="M432.21,1869.68l1.13-13.46,169.32,10.42s7.77,3.47,6.69,8.68l-177.14-5.65Z"/>
  <path class="cls-11" d="M521.21,1823.4c0,.83-4.34,1.04-8.68,3.56-4.34,2.52-6.73,5.86-7.51,5.51-.78-.35.65-5.04,5.99-7.99,5.34-2.95,10.42-1.82,10.2-1.09Z"/>
  <path class="cls-11" d="M539.54,1831.26c0,.78-3.6,2.08-6.64,5.43-3.04,3.34-4.03,7.03-4.9,6.95-.87-.09-1.26-4.69,2.65-8.68,3.91-3.99,8.95-4.47,8.9-3.69Z"/>
  <path class="cls-11" d="M549.39,1852.62c-.82,0-1.86-3.99.52-8.38,2.39-4.38,6.47-6.08,6.82-5.38.35.69-2.26,2.99-4.13,6.64-1.87,3.65-2.39,7.08-3.21,7.12Z"/>
  <path class="cls-11" d="M520.17,1803.61c-.39.74-4.34-.52-9.2-.35-4.86.17-8.68,1.47-9.16.78-.48-.69,3.34-3.52,9.07-3.64,5.73-.13,9.94,2.56,9.29,3.21Z"/>
  <path class="cls-9" d="M313.29,1736.52l-5.21,104.46,21.06,83.75c.33,1.46.35,2.97.05,4.44-.29,1.46-.88,2.86-1.74,4.08-.86,1.23-1.96,2.26-3.24,3.04-1.28.78-2.71,1.27-4.19,1.47-1.77.29-3.58.17-5.3-.35-1.72-.52-3.29-1.42-4.6-2.65-16.45-15.67-76.72-73.81-75.89-81.32.96-8.68-2.21-110.54-2.21-110.54l81.28-6.38Z"/>
  <path class="cls-4" d="M319.98,1937.8l-85.62-91.39v4.34c-.12,3.87,1.23,7.64,3.78,10.55,6.73,7.94,25.88,29.65,71.64,73.5,1.35,1.27,2.97,2.2,4.74,2.72,1.77.52,3.64.61,5.46.28Z"/>
  <g class="cls-13">
    <path class="cls-11" d="M257.94,1813.24c1.36.94,2.3,2.38,2.6,4,.31,1.62-.03,3.31-.95,4.68-1.03,1.25-2.46,2.09-4.05,2.39-1.59.3-3.23.02-4.63-.78-1.4-.99-2.36-2.49-2.68-4.17-.32-1.69.04-3.43.98-4.86,1.2-1.26,2.84-2.04,4.58-2.17,1.74-.13,3.47.39,4.85,1.47"/>
  </g>
  <path class="cls-11" d="M295.88,1891.52c2.77-3.24,6.13-5.92,9.9-7.9,4.1-1.43,8.42-2.1,12.76-2,0-.26-1.26-1.09-3.82-1.52-3.38-.42-6.82.08-9.94,1.43-3.08,1.31-5.72,3.48-7.6,6.26-1.35,2.12-1.56,3.64-1.3,3.73Z"/>
  <path class="cls-11" d="M303.39,1905.72c3.22-1.63,6.52-3.08,9.9-4.34,3.58-.57,7.19-.93,10.81-1.09-1.7-1.05-3.61-1.7-5.6-1.9-1.99-.19-3.99.07-5.86.77-6.51,1.74-9.81,6.25-9.25,6.55Z"/>
  <path class="cls-11" d="M281.69,1873.24c4.76-2.85,9.7-5.38,14.81-7.56,5.42-1.47,10.93-2.56,16.5-3.26-5.75-1.58-11.86-1.19-17.37,1.09-5.63,1.53-10.56,4.97-13.94,9.73Z"/>
  <path class="cls-11" d="M280.47,1841.37c.3.61,6.47-1.65,14.41-1.74,7.95-.09,14.2,1.87,14.46,1.22-4.45-2.4-9.45-3.61-14.5-3.52-5.06.09-10,1.48-14.37,4.03Z"/>
  <path class="cls-11" d="M281.38,1810.68c4.86-1.38,9.88-2.11,14.94-2.17,5,.61,9.89,1.89,14.54,3.82,0-.21-1-1.56-3.52-3.04-3.37-1.82-7.11-2.87-10.94-3.08-3.83-.22-7.65.42-11.21,1.86-2.82,1.17-4.17,2.34-3.82,2.61Z"/>
  <path class="cls-11" d="M296.1,1802.65c.29-1.3.29-2.65,0-3.95-.26-3.65-1.3-7.2-3.04-10.42-1.03-2.47-2.85-4.53-5.17-5.86-.84-.38-1.77-.51-2.69-.36-.91.15-1.76.56-2.44,1.19-1.22,1.25-1.89,2.94-1.87,4.69.23,3.6,1.72,7.02,4.22,9.63,2.49,2.62,5.83,4.28,9.42,4.69,3.59.47,7.24-.1,10.52-1.64,3.28-1.54,6.05-3.98,7.98-7.04.44-.76.7-1.6.78-2.47.08-.87-.04-1.75-.34-2.57-.42-.84-1.09-1.52-1.93-1.95-.84-.42-1.79-.56-2.71-.4-2.7.48-5.23,1.64-7.34,3.39-3.04,2.17-5.67,4.86-7.77,7.94-.87,1.04-1.48,2.28-1.78,3.6,2.99-3.92,6.54-7.38,10.55-10.25,1.92-1.43,4.15-2.4,6.51-2.82.5-.08,1.01,0,1.46.23.45.23.82.59,1.06,1.03.16.56.2,1.15.11,1.73-.09.57-.3,1.13-.63,1.61-1.77,2.55-4.21,4.57-7.05,5.83-2.84,1.25-5.98,1.7-9.05,1.3-3.03-.38-5.85-1.77-7.99-3.96-2.14-2.19-3.47-5.03-3.78-8.07-.03-1.21.38-2.39,1.17-3.3.37-.35.83-.59,1.33-.69.5-.09,1.02-.04,1.49.16,2.03,1.13,3.65,2.86,4.65,4.95,2.28,4.28,3.75,8.95,4.34,13.76Z"/>
  <path class="cls-9" d="M574.62,1032.49c9.98,35.37,14.37,72.08,13.03,108.8-.92,23.27-56.44,667.97-56.44,667.97l-111.63,4.34,5.95-604.27-9.07,2.21s-50.15,259.46-53.36,301.31c-2.91,37.6-42.85,311.42-42.85,311.42l-102.07,4.95,17.37-360.88,23.44-346.5,10.07-100.99,305.56,11.64Z"/>
  <path class="cls-4" d="M430.04,1175.19s.22.3.74.74c.85.54,1.79.94,2.78,1.17,1.84.28,3.71.17,5.5-.33,1.79-.5,3.45-1.38,4.87-2.57,4.02-3.79,6.38-9.02,6.56-14.55.56-6.03.43-12.5.61-19.36,0-13.68.26-26.05,0-34.99.17-4.84,0-9.69-.52-14.5-.7,4.79-1.03,9.62-1,14.46-.3,8.99-.61,21.36-.83,34.99,0,6.82,0,13.42-.39,19.19-.05,5.08-2.06,9.95-5.6,13.59-1.23,1.15-2.69,2.03-4.28,2.59-1.59.55-3.28.77-4.96.62-1.19-.25-2.35-.59-3.47-1.04Z"/>
  <path class="cls-4" d="M265.01,1116.8c.97.53,2.03.87,3.13,1,2.86.63,5.76,1,8.68,1.13,9.91.41,19.78-1.48,28.82-5.55,9.04-4.07,17.01-10.2,23.28-17.89,1.89-2.32,3.59-4.79,5.08-7.38.6-.94,1.06-1.96,1.35-3.04-.35,0-2.65,3.91-7.6,9.42-6.35,7.19-14.15,12.95-22.9,16.9-8.74,3.95-18.22,6-27.81,6.02-7.42,0-11.98-.95-12.03-.6Z"/>
  <path class="cls-4" d="M540.97,1077.72c.13,3.76.83,7.48,2.08,11.03,5.4,17.53,16.44,32.8,31.39,43.42,2.95,2.31,6.25,4.14,9.77,5.43-21.55-13.7-37.08-35.09-43.42-59.83l.17-.05Z"/>
  <path class="cls-3" d="M424.4,308.65h4.34c21.77-.52,42.93,7.16,59.31,21.52,16.37,14.35,26.76,34.34,29.09,55.98,4.34,41.77,8.68,87.96,8.98,110.41.52,46.5-45.8,54.88-45.8,54.88l5.12,55.75-112.88-.78-14.85-202.32c-5.21-48.19,18.37-91.44,66.69-95.43Z"/>
  <path class="cls-8" d="M480.71,551.34c-21.6.54-42.89-5.14-61.35-16.37,0,0,15.15,33.12,61.43,27.83l-.09-11.46Z"/>
  <path class="cls-9" d="M499.68,432.17c.06,1.73-.56,3.41-1.73,4.69-1.17,1.28-2.79,2.04-4.52,2.13-.84.09-1.7,0-2.51-.24-.81-.25-1.57-.65-2.22-1.19-.65-.54-1.19-1.21-1.58-1.96-.39-.75-.62-1.58-.69-2.42-.04-1.73.59-3.4,1.75-4.68,1.16-1.28,2.77-2.06,4.5-2.18.85-.08,1.7,0,2.51.25.81.25,1.57.66,2.22,1.21.65.55,1.19,1.22,1.58,1.97.39.76.62,1.58.69,2.43Z"/>
  <path class="cls-9" d="M507.71,409.11c-.83.87-5.95-2.69-13.03-2.52-7.08.17-12.29,3.91-13.02,3.04-.74-.87.43-1.95,2.65-3.69,3.06-2.19,6.7-3.42,10.46-3.52,3.72-.1,7.37,1,10.42,3.13,1.95,1.61,2.91,3.17,2.52,3.56Z"/>
  <path class="cls-9" d="M434.42,432.17c.06,1.73-.56,3.42-1.73,4.7-1.17,1.28-2.79,2.06-4.52,2.16-.84.08-1.69,0-2.5-.25-.81-.25-1.56-.65-2.21-1.2-.65-.54-1.19-1.21-1.58-1.96-.39-.75-.63-1.57-.7-2.41-.06-1.73.56-3.42,1.73-4.7,1.17-1.28,2.79-2.06,4.52-2.16.84-.09,1.7,0,2.51.24.81.25,1.57.65,2.22,1.19.65.54,1.19,1.21,1.58,1.96.39.75.62,1.58.69,2.42Z"/>
  <path class="cls-9" d="M437.68,412.15c-.78.87-5.95-2.74-13.03-2.52-7.08.22-12.29,3.86-13.02,3-.74-.87.39-1.95,2.65-3.65,3.02-2.23,6.66-3.46,10.42-3.52,3.73-.1,7.39.98,10.46,3.08,1.95,1.65,2.74,3.21,2.52,3.6Z"/>
  <path class="cls-9" d="M464.73,464.51c3.73-1.31,7.61-2.11,11.55-2.39,1.82-.22,3.52-.65,3.82-1.87.1-1.89-.37-3.76-1.35-5.38l-5.73-13.76c-7.99-19.62-13.81-35.73-13.03-36.08.78-.35,7.9,15.33,15.89,34.95l5.47,13.85c1.2,2.17,1.6,4.69,1.13,7.12-.23.66-.62,1.25-1.12,1.72-.51.48-1.12.82-1.79,1.01-1,.3-2.04.47-3.08.52-3.89.59-7.85.69-11.77.3Z"/>
  <path class="cls-9" d="M443.06,384.41c-.91,1.82-7.08,0-14.63,0s-13.85,1.35-14.59-.52c-.35-.87.96-2.56,3.65-4.08,3.46-1.83,7.33-2.74,11.24-2.65,3.88.06,7.68,1.12,11.03,3.08,2.52,1.69,3.69,3.39,3.3,4.17Z"/>
  <path class="cls-9" d="M507.15,379.63c-1.43,1.69-7.38,0-14.46,0s-13.02,1.43-14.5-.26c-.65-.78.26-2.43,2.87-4.04,3.57-2.02,7.62-3.04,11.72-2.95,4.08-.07,8.1.96,11.64,3,2.74,1.82,3.56,3.47,2.74,4.25Z"/>
  <path class="cls-9" d="M466.64,487.22c0-1.17-7.95.65-15.07-4.69-7.12-5.34-8.21-13.85-9.29-13.68-1.09.17-1.09,2.21-.35,5.73,1.02,4.58,3.62,8.65,7.34,11.51,3.56,2.74,8.05,3.97,12.5,3.43,3.34-.48,5.04-1.78,4.86-2.3Z"/>
  <path class="cls-4" d="M581.91,873.71l-.44-10.51-20.84-256.15c-6.25-1.61-63.52-13.89-63.52-13.89l-13.02-29.48-40.29,26.05-76.72-32.74-10.46,28.78-84.36,36.95-1.95,4.08,15.11,230.85-26.27,146.83,5.86,44.11,201.84,31.17c10.14,1.04,20.37.65,30.39-1.17l91.57-16.89,10.12-26.05-17.02-161.94Z"/>
  <path class="cls-4" d="M289.11,617.99s-64.47,7.38-77.19,87.7c-10.59,66.91-40.12,217.08-25.22,242.13,40.64,68.21,97.43,14.03,97.43,14.03l5.43-94.82,8.25-135.28-8.68-113.75Z"/>
  <path class="cls-4" d="M559.72,607.18s60.78,4.34,74.41,70.77c4.78,23.18,16.06,228.94,16.06,228.94l-16.59,179.09-78.15-6.3-5.95-317.55,10.2-154.96Z"/>
  <path class="cls-9" d="M260.85,994.84c.04-.72.17-1.43.39-2.12.43-1.56.96-3.56,1.61-6.04,1.56-5.51,3.69-13.02,6.3-22.45,5.64-19.32,13.37-45.98,22.27-76.59v.44c-.83-10.77-1.3-22.1-1.74-33.78-1.43-40.12-2.13-76.41-2.87-102.68-.39-13.02-.69-23.49-.91-31.13,0-3.47,0-6.3-.3-8.42-.07-1-.07-2,0-2.99.24.97.39,1.96.43,2.95,0,1.91.43,4.78.69,8.43.52,7.34,1.09,17.97,1.61,31.13,1.17,26.27,2.13,62.56,3.56,102.64.43,11.64.91,23.01,1.65,33.69v.39c-9.2,30.39-17.37,57.05-23.01,76.32l-6.95,22.27c-.78,2.43-1.43,4.35-1.95,5.95-.2.69-.46,1.36-.78,2Z"/>
  <path class="cls-9" d="M586.6,691.88c.61,0,0,29.48-1.56,65.73-1.57,36.25-3.17,65.69-3.78,65.65-.61-.04,0-29.43,1.52-65.73,1.52-36.29,3.17-65.65,3.82-65.65Z"/>
  <path class="cls-9" d="M443.89,589.68c0,.22-2.91,3.65-7.12,10.2-5.69,8.75-10.76,17.89-15.15,27.36l-.52,1.21-1.04-.7-12.46-8.25c-13.59-8.99-25.79-17.37-34.73-23.27l-10.33-7.25c-1.31-.83-2.52-1.8-3.6-2.91,1.46.55,2.85,1.27,4.12,2.17,2.56,1.57,6.21,3.82,10.68,6.69,9.03,5.69,21.36,13.72,34.73,22.71l12.42,8.25-1.61.48c4.5-9.56,9.87-18.68,16.02-27.26,1.78-2.5,3.71-4.9,5.77-7.17.81-.9,1.77-1.66,2.82-2.26Z"/>
  <path class="cls-9" d="M449.19,607.57c.04.42.04.84,0,1.26v3.65c0,3.38.35,8.07.61,14.02.48,12.2.96,29.87,1.43,51.67.91,43.63,1.35,103.94.26,170.5-1.09,66.56-3.56,126.86-5.9,170.45-1.17,21.71-2.26,39.38-3.13,51.58-.43,5.95-.78,10.64-1.04,13.98,0,1.52-.26,2.69-.35,3.65.05.41.05.84,0,1.26-.05-.42-.05-.84,0-1.26v-3.65c0-3.38.35-8.07.61-14.07.56-12.33,1.39-29.92,2.39-51.58,1.95-43.41,4.34-103.81,5.25-170.41.91-66.6.91-126.82.39-170.41-.3-21.71-.56-39.08-.74-51.67v-17.72c.03-.42.11-.84.22-1.26Z"/>
  <path class="cls-9" d="M489.26,731.22c1.61-.1,3.21-.1,4.82,0l14.07-.26,50.84-.52h1.04v1.04c-.91,19.71-1.95,42.85-3.04,67.47v.74l-.74.26-35.82,13.03h-.82l-28.87-13.03-.56-.26v-.6c-.3-20.19-.56-37.08-.74-49.23v-13.59c-.1-1.55-.1-3.1,0-4.65,0,0,0,1.83.35,5.04.35,3.21.35,8.08.61,13.81.43,11.98,1,28.66,1.69,48.58l-.56-.87,29,13.03h-.82l35.82-13.03-.78,1c1.26-24.62,2.39-47.76,3.34-67.43l1,1.04-50.28-1.04-14.28-.26c-3.34-.13-5.17-.17-5.25-.26Z"/>
  <path class="cls-9" d="M495.77,595.63c-1.64,3.01-3.75,5.73-6.25,8.08-2.55,2.7-5.26,5.24-8.12,7.6-1.61,1.35-3.34,2.69-5.21,3.99-.98.75-2.02,1.41-3.13,1.96-.68.32-1.42.49-2.17.49s-1.49-.17-2.17-.49c-2.02-1.35-3.9-2.91-5.6-4.65-1.65-1.56-3.21-3.08-4.65-4.6-2.91-2.99-5.38-5.82-7.38-8.25-2.32-2.53-4.27-5.36-5.82-8.42,2.52,2.27,4.87,4.72,7.03,7.34,2.13,2.3,4.69,4.99,7.64,7.9,1.43,1.43,3.04,2.91,4.69,4.34,1.58,1.57,3.28,3.03,5.08,4.34,1.56.91,3.34-.39,5.21-1.69,1.87-1.3,3.6-2.52,5.21-3.78,3.26-2.52,5.99-4.99,8.29-7.12,2.29-2.5,4.74-4.85,7.34-7.03Z"/>
  <path class="cls-3" d="M230.45,875.27s-6.17-4.64-24.1,2c-17.93,6.64-17.37,56.75-17.37,56.75,0,0-1.3,26.05,37.86,32.65,39.16,6.6,57.22-19.89,57.22-19.89l18.45-39.81-72.07-31.7Z"/>
  <path class="cls-3" d="M293.93,866.99c2.32-1.83,5.08-3.02,8.01-3.46,2.92-.44,5.91-.1,8.66.98,9.46,3.78,4.6,19.58,4.6,19.58l-13.68-6.69-7.6-10.42Z"/>
  <path class="cls-6" d="M236.53,837.02c24.92,21.19,111.06,95.25,111.06,95.25l15.67,4.91-5.9-15.29-109.63-97.69c-1.7-1.47-3.9-2.22-6.14-2.1-2.24.12-4.35,1.11-5.88,2.75-1.49,1.73-2.23,3.97-2.08,6.25.15,2.27,1.2,4.4,2.9,5.91Z"/>
  <path class="cls-3" d="M295.93,881.35c1.05-1.35,1.67-2.98,1.8-4.69.12-1.71-.26-3.41-1.1-4.9-3.08-4.95-7.77-4.99-13.02-5.21-15.45,1.12-30.83,3.08-46.06,5.86-9.2,1.96-21.97,13.03-17.37,24.58l3.95,4.69s-10.03,12.41-3.95,21.1l7.12,5.17s-3.26,16.32,4.34,20.28c5.21,2.27,11.05,2.63,16.5,1,5.94,2.6,12.36,3.92,18.84,3.86,9.73-.39,45.46-29.74,47.76-32.47,1.35-1.66,2.14-3.71,2.25-5.85.12-2.13-.44-4.25-1.6-6.05,1.24-3.21,1.24-6.77,0-9.99-.33-1.48-1.14-2.82-2.32-3.78-1.17-.97-2.63-1.52-4.15-1.56.09-3.13-.89-6.19-2.78-8.69-3.07-1.95-6.58-3.1-10.2-3.34Z"/>
  <path class="cls-8" d="M295.93,881.36c.45-.06.9-.06,1.35,0,1.3.11,2.59.3,3.86.56,2.19.35,4.21,1.38,5.77,2.95,1.66,2.5,2.5,5.46,2.39,8.46l-.61-.56c1.61.05,3.17.61,4.44,1.6,1.27.99,2.2,2.36,2.64,3.91,1.33,3.42,1.33,7.22,0,10.64v-.74c.89,1.36,1.47,2.89,1.7,4.5.23,1.6.11,3.24-.35,4.79-.52,1.66-1.46,3.16-2.74,4.34-1.22,1.17-2.43,2.26-3.73,3.39-5.17,4.34-10.81,8.9-16.93,13.46-6.39,4.87-13.15,9.23-20.23,13.02-.95.53-1.96.97-3,1.31-1.06.46-2.19.75-3.34.87-2.22.16-4.44.09-6.64-.22-4.49-.6-8.88-1.83-13.02-3.64h.78c-4.32,1.27-8.89,1.42-13.29.44-2.39-.49-4.59-1.65-6.34-3.35-1.54-1.89-2.53-4.18-2.87-6.6-.61-4.33-.51-8.73.3-13.02l.43,1.13-7.12-5.17c-1.14-1.77-1.86-3.78-2.1-5.87-.24-2.09,0-4.21.71-6.2,1.14-3.71,2.92-7.19,5.25-10.29v1.39l-3.95-4.69c-.72-1.89-1.05-3.91-.97-5.93.08-2.02.57-4.01,1.45-5.84,1.65-3.39,4.05-6.37,7.03-8.68,2.77-2.28,5.95-3.99,9.38-5.04,3.43-.87,6.64-1.26,9.81-1.78,12.63-1.87,23.79-3.17,33.13-3.91,2.23-.17,4.46-.17,6.69,0,2.02.07,4.02.42,5.95,1.04,1.53.55,2.91,1.45,4.02,2.65,1.1,1.2,1.9,2.64,2.32,4.21.45,1.98.15,4.05-.83,5.82-.65,1.17-1.13,1.65-1.17,1.61-.04-.05.35-.56.87-1.78.73-1.73.88-3.65.43-5.47-.44-1.42-1.21-2.71-2.26-3.77-1.04-1.05-2.32-1.85-3.74-2.31-1.84-.52-3.74-.79-5.64-.82-2.17-.1-4.35-.02-6.51.26-9.25.91-20.41,2.39-33,4.34-3.08.56-6.43,1-9.51,1.82-3.17,1.02-6.12,2.64-8.68,4.78-2.72,2.14-4.91,4.89-6.38,8.03-.74,1.58-1.16,3.3-1.23,5.04-.07,1.75.22,3.49.84,5.12v-.31c1.3,1.57,2.65,3.09,3.95,4.69l.56.66-.52.69c-2.2,2.87-3.87,6.1-4.95,9.55-.6,1.67-.81,3.45-.62,5.21.19,1.76.77,3.46,1.71,4.96l-.26-.26,6.77,4.78.56.44v.69c-.76,4.04-.85,8.18-.26,12.24.24,2.01,1.04,3.9,2.3,5.47,1.42,1.38,3.22,2.31,5.17,2.69,4.01.87,8.17.74,12.11-.39h.78c3.95,1.7,8.11,2.88,12.37,3.48,2.06.28,4.14.37,6.21.26.95-.13,1.89-.38,2.78-.74.96-.33,1.89-.74,2.78-1.22,6.99-3.8,13.67-8.16,19.97-13.02,6.12-4.34,11.81-8.94,16.98-13.03,2.56-2.26,5.25-4.08,6.04-6.86.41-1.32.53-2.71.35-4.08-.18-1.37-.66-2.69-1.39-3.86v-.78c2.52-6.16-.52-14.5-5.73-14.41h-.61v-.57c.18-2.76-.49-5.52-1.91-7.9-1.42-1.47-3.25-2.48-5.25-2.91-3.43-1-5.3-1.13-5.25-1.25Z"/>
  <path class="cls-8" d="M295.93,881.36c0,.61-12.81,2.56-28.31,6.9-9.26,3.03-18.72,5.41-28.31,7.12,2.51-1.41,5.2-2.49,7.99-3.21,4.99-1.69,11.94-3.95,19.75-6.08,9.34-3,19.07-4.6,28.87-4.73Z"/>
  <path class="cls-8" d="M308.73,893.29c-2.67,2.09-5.59,3.86-8.68,5.26-5.51,2.99-13.29,6.95-22.06,10.85-7.5,3.36-15.2,6.26-23.05,8.68-3.2,1.19-6.54,1.96-9.94,2.3,3.02-1.55,6.18-2.83,9.42-3.82,5.86-2.22,13.89-5.43,22.66-9.34,17.32-7.77,31.35-14.54,31.65-13.94Z"/>
  <path class="cls-8" d="M315.2,908.62c-2.18,2.08-4.58,3.92-7.16,5.47-4.34,3.13-10.85,7.51-17.97,12.07-6.05,3.98-12.38,7.54-18.93,10.64-2.72,1.46-5.65,2.49-8.68,3.04,2.45-1.68,5.05-3.14,7.77-4.35,4.82-2.65,11.37-6.55,18.45-11.11,14.41-9.42,26.14-16.41,26.53-15.76Z"/>
  <path class="cls-2" d="M690.71,1120.92h-222.64c-2.41.15-4.79-.64-6.62-2.23-1.83-1.58-2.96-3.82-3.15-6.23v-280.47c.07-1.21.37-2.4.9-3.5.53-1.1,1.27-2.07,2.18-2.88.91-.8,1.97-1.42,3.12-1.82,1.15-.39,2.36-.56,3.58-.48h222.6c1.21-.08,2.43.09,3.58.48,1.15.4,2.21,1.02,3.12,1.82.91.81,1.64,1.79,2.18,2.88.53,1.1.83,2.28.9,3.5v280.47c-.19,2.41-1.31,4.64-3.13,6.22-1.82,1.59-4.18,2.39-6.59,2.25Z"/>
  <path class="cls-9" d="M690.71,1120.92h.74c.73-.07,1.45-.18,2.17-.35,1.14-.34,2.22-.85,3.21-1.52,1.28-.89,2.3-2.1,2.95-3.51.37-.81.58-1.68.61-2.56v-281.38c-.09-1.87-.87-3.65-2.17-5-1.42-1.45-3.26-2.43-5.25-2.82-1.07-.11-2.14-.11-3.21,0h-221.68c-2.4-.04-4.73.76-6.6,2.26-.86.67-1.57,1.51-2.07,2.46-.51.96-.81,2.01-.88,3.1v281.25c.09,1.6.7,3.12,1.74,4.34,1.15,1.35,2.65,2.36,4.34,2.91.84.3,1.72.49,2.61.56h2.69-2.74c-.92-.08-1.82-.27-2.69-.56-1.69-.61-3.19-1.66-4.34-3.04-1.1-1.27-1.74-2.88-1.82-4.56v-280.95c.08-1.14.39-2.25.92-3.26.53-1.01,1.27-1.89,2.16-2.61,1.98-1.56,4.43-2.4,6.95-2.39h221.42c1.11-.06,2.21.02,3.3.22,2.09.39,4.01,1.4,5.51,2.91,1.36,1.43,2.16,3.29,2.26,5.26v281.17c-.07.9-.29,1.78-.66,2.61-.67,1.41-1.7,2.62-2.99,3.52-.99.66-2.07,1.15-3.21,1.47-.72.21-1.46.33-2.22.35l-1.04.13Z"/>
  <g class="cls-12">
    <path class="cls-1" d="M481.31,1113.54l203.06-.95,2.3-33.95-6.21-20.49-201.02,27.18,1.87,28.22Z"/>
  </g>
  <path class="cls-9" d="M690.71,1120.92h.74c.73-.07,1.45-.18,2.17-.35,1.14-.34,2.22-.85,3.21-1.52,1.28-.89,2.3-2.1,2.95-3.51.37-.81.58-1.68.61-2.56v-281.38c-.09-1.87-.87-3.65-2.17-5-1.42-1.45-3.26-2.43-5.25-2.82-1.07-.11-2.14-.11-3.21,0h-221.68c-2.4-.04-4.73.76-6.6,2.26-.86.67-1.57,1.51-2.07,2.46-.51.96-.81,2.01-.88,3.1v281.25c.09,1.6.7,3.12,1.74,4.34,1.15,1.35,2.65,2.36,4.34,2.91.84.3,1.72.49,2.61.56h2.69-2.74c-.92-.08-1.82-.27-2.69-.56-1.69-.61-3.19-1.66-4.34-3.04-1.1-1.27-1.74-2.88-1.82-4.56v-280.95c.08-1.14.39-2.25.92-3.26.53-1.01,1.27-1.89,2.16-2.61,1.98-1.56,4.43-2.4,6.95-2.39h221.42c1.11-.06,2.21.02,3.3.22,2.09.39,4.01,1.4,5.51,2.91,1.36,1.43,2.16,3.29,2.26,5.26v281.17c-.07.9-.29,1.78-.66,2.61-.67,1.41-1.7,2.62-2.99,3.52-.99.66-2.07,1.15-3.21,1.47-.72.21-1.46.33-2.22.35l-1.04.13Z"/>
  <g class="cls-12">
    <path class="cls-1" d="M481.31,1113.54l203.06-.95,2.3-33.95-6.21-20.49-201.02,27.18,1.87,28.22Z"/>
  </g>
  <path class="cls-11" d="M688.24,835.5h-217.65v271.39h217.65v-271.39Z"/>
  <path class="cls-9" d="M688.24,1106.86c0-1.56,0-111.19-.21-271.35h.21-217.65v271.35-271.57h218.04c-.3,160.38-.39,270.05-.39,271.57Z"/>
  <path class="cls-2" d="M530.63,908.88h-47.58v9.51h47.58v-9.51Z"/>
  <path class="cls-5" d="M631.79,888.17h-95.39v9.51h95.39v-9.51Z"/>
  <path class="cls-5" d="M527.95,888h-45.37v9.51h45.37v-9.51Z"/>
  <path class="cls-5" d="M671.78,888.13h-34.52v9.51h34.52v-9.51Z"/>
  <path class="cls-2" d="M544.22,1045.99h-61.39v10.81h61.39v-10.81Z"/>
  <path class="cls-2" d="M671.09,932.67h-188.25v10.81h188.25v-10.81Z"/>
  <path class="cls-9" d="M667.79,957.51c0,.65-40.55,1.13-90.61,1.13s-90.57-.48-90.57-1.13,40.55-1.13,90.57-1.13,90.61.3,90.61,1.13Z"/>
  <path class="cls-9" d="M667.79,966.71c0,.61-40.55,1.13-90.61,1.13s-90.57-.52-90.57-1.13,40.55-1.13,90.57-1.13,90.61.61,90.61,1.13Z"/>
  <path class="cls-9" d="M667.79,976.09c0,.61-40.55,1.13-90.61,1.13s-90.57-.52-90.57-1.13,40.55-1.13,90.57-1.13,90.61.52,90.61,1.13Z"/>
  <path class="cls-9" d="M567.19,985.47c-13.44,1.14-26.94,1.52-40.42,1.13-13.47.39-26.95.02-40.38-1.13,13.43-1.12,26.91-1.49,40.38-1.13,13.48-.36,26.98.01,40.42,1.13Z"/>
  <path class="cls-9" d="M667.79,994.85c0,.65-40.55,1.13-90.61,1.13s-90.57-.48-90.57-1.13,40.55-1.13,90.57-1.13,90.61.52,90.61,1.13Z"/>
  <path class="cls-9" d="M667.79,1004.26c0,.61-40.55,1.13-90.61,1.13s-90.57-.52-90.57-1.13,40.55-1.13,90.57-1.13,90.61.48,90.61,1.13Z"/>
  <path class="cls-9" d="M631.58,1013.64c0,.61-32.52,1.13-72.59,1.13s-72.59-.52-72.59-1.13,32.48-1.13,72.59-1.13,72.59.48,72.59,1.13Z"/>
  <path class="cls-9" d="M667.79,1023.02c0,.66-40.55,1.13-90.61,1.13s-90.57-.48-90.57-1.13,40.55-1.13,90.57-1.13,90.61.74,90.61,1.13Z"/>
  <path class="cls-9" d="M667.79,1032.4c0,.66-40.55,1.13-90.61,1.13s-90.57-.48-90.57-1.13,40.55-1.13,90.57-1.13,90.61.52,90.61,1.13Z"/>
  <path class="cls-9" d="M538.58,815.49h92.26c2.56,0,5.03,1.02,6.84,2.84,1.82,1.81,2.84,4.27,2.84,6.84v20.84h-111.67v-20.84c0-1.27.25-2.54.74-3.72.49-1.18,1.21-2.25,2.11-3.14.9-.9,1.98-1.61,3.15-2.1,1.18-.48,2.44-.73,3.72-.72Z"/>
  <path class="cls-9" d="M598.93,803.99h-28.39l3.3,22.96h21.41l3.69-22.96Z"/>
  <path class="cls-4" d="M633.36,815.49s-21.71.22-48.63.22-48.63,0-48.63-.22,21.71-.26,48.63-.26,48.63.13,48.63.26Z"/>
  <path class="cls-4" d="M531.42,841.06s-.21-4.34-.21-9.64,0-9.64.21-9.64,0,4.34,0,9.64.13,9.64,0,9.64Z"/>
  <path class="cls-4" d="M636.92,838.77c-.34-5.78-.34-11.58,0-17.37.29,5.78.29,11.58,0,17.37Z"/>
  <path class="cls-4" d="M631.53,842.8s-22.36.26-49.93.26-49.93,0-49.93-.26,22.36-.22,49.93-.22,49.93.13,49.93.22Z"/>
  <g class="cls-12">
    <path class="cls-1" d="M640.52,824.18l4.6,12.94v6.3h-5.21l.61-19.23Z"/>
  </g>
  <path class="cls-9" d="M528.51,876.49c-1.26-.62-2.33-1.59-3.08-2.78-.78-1.18-1.19-2.57-1.17-4-.02-1.43.39-2.84,1.17-4.03.75-1.18,1.82-2.13,3.08-2.74,1.35-.67,2.84-1.01,4.34-1,1.35-.03,2.69.21,3.95.7,1.12.48,2.11,1.21,2.91,2.13l-2.87,2.43c-.45-.55-1.02-1-1.67-1.31s-1.35-.47-2.06-.47c-.8-.03-1.6.16-2.3.56-.67.31-1.21.83-1.56,1.47-.39.69-.58,1.47-.56,2.26-.02.78.18,1.54.56,2.22.35.66.9,1.19,1.56,1.52,1,.49,2.13.64,3.22.42,1.1-.22,2.08-.79,2.81-1.64l2.87,2.43c-.79.92-1.79,1.64-2.91,2.08-1.26.51-2.6.76-3.95.74-1.5-.01-2.99-.35-4.34-1Z"/>
  <path class="cls-9" d="M544.96,876.49c-1.28-.63-2.37-1.6-3.17-2.78-.74-1.2-1.13-2.59-1.13-3.99s.39-2.79,1.13-4c.79-1.19,1.88-2.16,3.17-2.77,1.42-.66,2.96-1,4.51-1s3.1.34,4.51,1c1.29.62,2.39,1.58,3.17,2.77.74,1.2,1.13,2.59,1.13,4s-.39,2.79-1.13,3.99c-.8,1.18-1.89,2.14-3.17,2.78-1.41.66-2.95,1-4.51,1s-3.1-.34-4.51-1ZM551.65,873.45c.65-.35,1.19-.88,1.57-1.52.34-.67.53-1.41.53-2.17s-.18-1.5-.53-2.17c-.37-.63-.92-1.14-1.57-1.47-.66-.38-1.41-.58-2.17-.58s-1.51.2-2.17.58c-.64.33-1.19.84-1.56,1.47-.35.67-.53,1.42-.53,2.17s.18,1.5.53,2.17c.37.64.91,1.17,1.56,1.52.68.34,1.42.52,2.17.52s1.5-.18,2.17-.52Z"/>
  <path class="cls-9" d="M575.75,862.25v14.94h-3.48l-6.99-7.99v7.99h-4.35v-14.94h3.74l6.99,7.95v-7.95h4.08Z"/>
  <path class="cls-9" d="M580.95,877.01c-1.04-.21-2.04-.61-2.95-1.17l1.47-3.13c.76.48,1.58.84,2.43,1.09.91.25,1.84.38,2.78.39,1.74,0,2.61-.39,2.61-1.22-.01-.21-.09-.42-.22-.59-.13-.17-.31-.3-.52-.36-.78-.29-1.58-.51-2.39-.65-1.09-.14-2.17-.37-3.21-.7-.79-.25-1.5-.71-2.04-1.35-.6-.68-.91-1.57-.87-2.48-.02-.87.26-1.73.78-2.43.61-.81,1.44-1.42,2.39-1.78,1.31-.47,2.69-.69,4.08-.65,1.03-.01,2.07.09,3.08.3.93.19,1.82.53,2.65,1l-1.39,3.04c-1.34-.73-2.83-1.13-4.34-1.17-.68-.05-1.35.09-1.96.39-.18.09-.33.23-.44.39-.1.17-.16.36-.17.56,0,.21.08.41.21.58.13.17.32.28.52.33.76.28,1.55.48,2.34.6,1.01.21,2.01.47,3,.78.77.29,1.47.75,2.04,1.35.31.33.55.72.71,1.14.16.43.23.88.2,1.34-.02.87-.31,1.72-.82,2.43-.62.79-1.44,1.39-2.39,1.74-1.22.46-2.52.68-3.82.65-1.27.02-2.54-.13-3.78-.44Z"/>
  <path class="cls-9" d="M606.35,873.93v3.26h-12.77v-14.94h12.46v3.26h-8.03v2.51h7.07v3.17h-7.07v2.73h8.33Z"/>
  <path class="cls-9" d="M623.94,862.25v14.94h-3.69l-7.03-7.99v7.99h-4.34v-14.94h3.69l6.99,7.95v-7.95h4.39Z"/>
  <path class="cls-9" d="M630.49,865.59h-4.91v-3.34h14.24v3.34h-4.86v11.59h-4.34l-.13-11.59Z"/>
  <path class="cls-3" d="M619.29,1127.44l-5.08-8.08s-1.95-20.32-11.29-20.71c-9.34-.39-11.03,10.85-11.03,10.85-.28-2.36-1.34-4.56-3.03-6.23-1.69-1.67-3.9-2.72-6.26-2.97-8.47-.91-8.69,10.03-8.69,10.03,0,0-.78-12.5-7.6-11.5-2.12.44-4.12,1.34-5.85,2.64-1.73,1.3-3.16,2.96-4.18,4.87,0,0,0-10.2-3.43-11.33-1.85-.56-3.82-.48-5.63.21-1.8.69-3.32,1.96-4.32,3.61-2.95,3.99-1.65,22.92-1.65,22.92.09,2.01.87,3.92,2.21,5.42,1.34,1.49,3.15,2.48,5.13,2.79l5.77-1s-1.61,18.36,11.33,20.14c12.94,1.78,12.46-3.91,12.46-3.91,1.74,2.31,4.08,4.09,6.77,5.15,2.69,1.06,5.62,1.37,8.47.88,9.51-1.96,8.29-7.73,8.29-7.73,0,0,10.12,4.34,14.63,1.04,4.51-3.3,2.95-17.11,2.95-17.11Z"/>
  <path class="cls-8" d="M554.17,1129.52c-1.22-4.17-1.59-8.53-1.09-12.85.51-4.31,1.88-8.48,4.04-12.24-.33,4.2-.93,8.38-1.78,12.51-.12,4.22-.51,8.42-1.17,12.59Z"/>
  <path class="cls-8" d="M578.7,1145.8c-3.1-5.65-4.87-11.93-5.17-18.36-1-6.36-.64-12.85,1.04-19.06.69,0,0,8.69,1.21,18.84,1.22,10.16,3.56,18.37,2.91,18.58Z"/>
  <path class="cls-8" d="M602.36,1143.76c-.22,0-1.69-1.35-3.3-4.34-1.89-3.85-3.35-7.9-4.34-12.07-1.83-5.78-2.75-11.82-2.73-17.89,2.17,5.63,3.81,11.44,4.9,17.37,1.03,4.06,2.27,8.06,3.73,11.98,1.04,2.99,2.04,4.73,1.74,4.95Z"/>
  <path class="cls-9" d="M518.2,284.91c-17.68-3.3-34.16,13.86-52.24,12.38-11-.87-20.11-8.47-30.27-12.64-7.95-3.21-16.55-4.56-25.13-3.95-8.57.61-16.89,3.17-24.28,7.47-13.79,8.69-22.1,17.73-22.5,33.98-14.14-6.08-34.52,12.82-40.26,29.54-5.75,16.73-1.99,32.93,4.42,49.53,10.72,28.57,27.03,54.8,48,77.21,1.86,2,4.69,4.08,7.03,2.69.72-.61,1.28-1.39,1.64-2.26.35-.87.49-1.81.4-2.74.8-15.86-3.05-31.5-6.19-47.1-3.14-15.6-5.66-31.67-2.3-47.23,3.36-15.55,13.7-30.41,29.12-35.24,11.66-2.93,23.99-1.72,34.82,3.43,11,4.56,20.95,11.21,31.51,16.6,10.34,5.98,22.16,9.06,34.16,8.91,11.89-.78,23.95-7.69,27.8-18.77,3.85-11.08-3.49-25.46-15.38-26.59,5.3-1.09,10.06-3.96,13.46-8.11,3.4-4.15,5.23-9.32,5.19-14.65-.04-5.33-1.96-10.48-5.42-14.57-3.46-4.1-8.26-6.89-13.58-7.9Z"/>
  <path class="cls-9" d="M500.87,325.75c-5.67-7.96-13.26-14.41-22.1-18.77-18.7-10.3-40.23-14.53-61.52-12.08-21.35,2.58-40.84,13.23-54.36,29.67-10.29,13.48-16.33,29.63-17.37,46.45-1.48,18.37.45,36.84,5.7,54.53,2.34,6.95,6.85,8.95,12.73,13.47,3.67,2.82,9.5,4.34,12.73.87,1.68-2.15,2.58-4.8,2.56-7.52,2.43-24.33,4.42-50.4-7.6-71.73,4.49-8.63,10.77-16.23,18.43-22.33,3.83-3.04,8.24-5.3,12.96-6.65,4.73-1.35,9.68-1.76,14.57-1.21,14.45,2.17,24.88,14.12,37.25,21.72,8.93,5.34,19.03,8.52,29.46,9.27,10.42.76,20.89-.93,30.52-4.93l-13.97-30.76Z"/>
  <path class="cls-2" d="M324.01,390.79c0-.35,3.36-.43,8.53-1.52,13.57-2.91,25.56-10.65,33.68-21.72,3.05-4.34,4.42-7.21,4.77-7.08-.68,2.83-1.91,5.5-3.62,7.86-3.83,5.91-8.89,10.96-14.85,14.82-5.95,3.86-12.67,6.43-19.71,7.56-2.9.6-5.89.63-8.79.09Z"/>
  <path class="cls-2" d="M327.63,399.44c0-.35,3.31-.43,8.48-1.52,13.58-2.88,25.59-10.62,33.68-21.72,3.09-4.34,4.42-7.21,4.77-7.08-.65,2.84-1.88,5.51-3.62,7.86-3.83,5.91-8.89,10.96-14.85,14.82-5.95,3.86-12.67,6.43-19.71,7.56-2.88.57-5.85.6-8.75.09Z"/>
  <path class="cls-3" d="M366.39,449.14c-.1-1.71-.55-3.37-1.31-4.9-.76-1.53-1.83-2.89-3.13-4-1.3-1.11-2.81-1.94-4.45-2.45-1.63-.51-3.35-.68-5.05-.51-8.68,1.04-18.15,6.21-17.37,24.1,1.78,31.78,33.3,23.44,33.3,22.53s-1.13-21.36-2-34.78Z"/>
  <path class="cls-8" d="M361.16,472.44s-.53.44-1.45.92c-.67.36-1.4.57-2.16.62-.76.05-1.51-.05-2.23-.31-2.14-1.19-3.93-2.93-5.18-5.04-1.25-2.11-1.91-4.52-1.92-6.97-.24-2.75.14-5.52,1.1-8.11.27-1,.77-1.92,1.46-2.68.69-.76,1.56-1.35,2.53-1.71.63-.2,1.32-.18,1.93.07.62.25,1.13.7,1.44,1.29.48.88.31,1.54.48,1.58.18.04.66-.61.31-1.89-.19-.8-.68-1.51-1.36-1.97-.45-.31-.96-.52-1.49-.62-.53-.11-1.09-.1-1.62,0-1.31.32-2.51.98-3.49,1.91-.98.93-1.69,2.1-2.08,3.39-1.21,2.85-1.71,5.95-1.45,9.03.57,6.45,4.39,12.32,8.77,13.16.87.21,1.78.22,2.65.02.87-.2,1.69-.59,2.39-1.16,1.36-.75,1.49-1.45,1.36-1.54Z"/>
</svg>
