<?xml version="1.0" encoding="UTF-8"?>
<svg id="Layer_1" data-name="Layer 1" xmlns="http://www.w3.org/2000/svg" viewBox="0 0 1000 1000">
  <defs>
    <style>
      .cls-1 {
        fill: #aa6550;
      }

      .cls-1, .cls-2, .cls-3, .cls-4, .cls-5, .cls-6, .cls-7, .cls-8, .cls-9, .cls-10, .cls-11 {
        stroke-width: 0px;
      }

      .cls-2 {
        fill: #000;
      }

      .cls-3 {
        fill: #e0e0e0;
      }

      .cls-4 {
        fill: #455a64;
      }

      .cls-5 {
        fill: #f5f5f5;
      }

      .cls-6 {
        fill: #09f;
      }

      .cls-7 {
        fill: #ebebeb;
      }

      .cls-8 {
        fill: #263238;
      }

      .cls-9 {
        fill: #fafafa;
      }

      .cls-12 {
        opacity: .3;
      }

      .cls-10 {
        fill: #b78876;
      }

      .cls-13 {
        opacity: .6;
      }

      .cls-11 {
        fill: #fff;
      }
    </style>
  </defs>
  <path class="cls-5" d="M181.03,154.13c.05-11.19-2.49-22.23-7.42-32.27-4.92-10.04-12.1-18.81-20.97-25.62-8.87-6.81-19.2-11.48-30.17-13.65-10.97-2.17-22.3-1.77-33.09,1.17-10.79,2.93-20.77,8.32-29.14,15.74-8.37,7.42-14.91,16.67-19.12,27.04-4.21,10.36-5.96,21.56-5.13,32.71.83,11.15,4.23,21.96,9.93,31.59l.22.26c2.78,4.71,6.26,7.95,9.79,12.99l42.16,55.83c1.22,1.62,2.8,2.94,4.62,3.84,1.82.91,3.82,1.38,5.85,1.38s4.03-.47,5.85-1.38c1.82-.91,3.4-2.22,4.62-3.84l41.33-54.92c3.76-4.44,7.28-9.08,10.53-13.91l.16-.2c6.56-11.14,10.02-23.83,9.99-36.76ZM108.41,185.76c-6.32,0-12.5-1.87-17.76-5.39-5.26-3.51-9.35-8.51-11.77-14.35s-3.05-12.27-1.82-18.47c1.23-6.2,4.28-11.9,8.75-16.37,4.47-4.47,10.17-7.52,16.37-8.75,6.2-1.23,12.63-.6,18.47,1.82,5.84,2.42,10.83,6.52,14.35,11.77,3.51,5.26,5.39,11.44,5.39,17.76,0,4.2-.82,8.36-2.43,12.24-1.61,3.88-3.96,7.4-6.93,10.37-2.97,2.97-6.49,5.32-10.37,6.93-3.88,1.61-8.04,2.43-12.24,2.43Z"/>
  <path class="cls-5" d="M964.21,594.53c0-4.92-1.12-9.78-3.3-14.19-2.18-4.41-5.34-8.27-9.25-11.26-3.91-2.99-8.45-5.04-13.28-5.99-4.83-.95-9.81-.77-14.56.52-4.75,1.29-9.14,3.65-12.83,6.92-3.68,3.26-6.57,7.33-8.43,11.89-1.86,4.56-2.64,9.48-2.29,14.39.35,4.91,1.83,9.67,4.33,13.91v.12c1.23,1.99,2.78,3.56,4.33,5.72l18.58,24.62c.54.72,1.23,1.3,2.04,1.7.8.4,1.68.61,2.58.61s1.78-.21,2.58-.61c.8-.4,1.5-.98,2.04-1.7l18.26-24.2c1.66-1.97,3.22-4.02,4.65-6.16v-.1c2.94-4.88,4.52-10.47,4.55-16.17ZM932.2,608.43c-2.79,0-5.51-.82-7.83-2.37-2.32-1.55-4.12-3.75-5.19-6.32-1.07-2.57-1.35-5.41-.8-8.14.54-2.73,1.89-5.24,3.86-7.21s4.48-3.31,7.21-3.86c2.73-.54,5.57-.26,8.14.8,2.57,1.07,4.77,2.87,6.32,5.19,1.55,2.32,2.37,5.04,2.37,7.83,0,1.85-.36,3.69-1.07,5.4-.71,1.71-1.74,3.27-3.05,4.58-1.31,1.31-2.86,2.35-4.57,3.07-1.71.71-3.54,1.08-5.4,1.08v-.04Z"/>
  <path class="cls-5" d="M853.84,846.99c31.3-31.3,31.3-82.05,0-113.35-31.3-31.3-82.05-31.3-113.35,0-31.3,31.3-31.3,82.05,0,113.35,31.3,31.3,82.04,31.3,113.35,0Z"/>
  <path class="cls-11" d="M797.17,857.04c-13.2,0-26.1-3.91-37.07-11.23-10.97-7.33-19.53-17.75-24.58-29.94-5.05-12.19-6.38-25.61-3.8-38.55,2.57-12.94,8.92-24.83,18.26-34.17,9.33-9.33,21.22-15.69,34.16-18.26,12.94-2.58,26.36-1.26,38.55,3.79,12.19,5.05,22.61,13.6,29.94,24.57,7.33,10.97,11.24,23.87,11.24,37.07-.01,17.69-7.05,34.64-19.55,47.15-12.5,12.51-29.46,19.55-47.15,19.57ZM797.17,735.03c-10.93,0-21.63,3.24-30.72,9.32-9.09,6.08-16.18,14.71-20.37,24.81-4.19,10.1-5.28,21.22-3.15,31.95,2.13,10.72,7.4,20.58,15.13,28.31s17.59,13,28.31,15.13c10.73,2.13,21.84,1.04,31.95-3.15,10.1-4.19,18.74-11.27,24.81-20.37,6.08-9.09,9.32-19.78,9.32-30.72-.02-14.66-5.85-28.71-16.21-39.08-10.37-10.37-24.42-16.2-39.08-16.21Z"/>
  <path class="cls-11" d="M796.72,813.14c-4.86,0-9.61-1.44-13.66-4.14-4.04-2.7-7.19-6.54-9.05-11.03-1.86-4.49-2.34-9.44-1.39-14.2.95-4.77,3.29-9.15,6.73-12.58,3.44-3.44,7.82-5.77,12.59-6.72,4.77-.95,9.71-.46,14.2,1.41,4.49,1.86,8.33,5.02,11.03,9.06,2.7,4.05,4.13,8.8,4.13,13.66,0,6.52-2.6,12.76-7.21,17.37-4.61,4.6-10.86,7.19-17.37,7.19ZM796.72,775.39c-2.6,0-5.14.77-7.31,2.22-2.16,1.45-3.85,3.5-4.84,5.9-1,2.4-1.26,5.05-.75,7.6.51,2.55,1.76,4.89,3.6,6.73,1.84,1.84,4.18,3.09,6.73,3.6,2.55.51,5.2.25,7.6-.75,2.4-1,4.46-2.68,5.9-4.84,1.45-2.16,2.22-4.71,2.22-7.31-.02-3.48-1.41-6.81-3.87-9.27-2.46-2.46-5.8-3.84-9.28-3.84v-.04Z"/>
  <path class="cls-3" d="M796.72,788.58h-31.05l5.42,9.58-73.09,33.5,2.46,4.11,73.33-33.12,5.03,9.52,17.9-23.58Z"/>
  <path class="cls-3" d="M697.99,831.65l-.78-.76c-1.88-1.84-4.22-3.14-6.77-3.78-2.55-.63-5.23-.58-7.75.16l-29.15,8.48,16.23,7.13-6.52,17.34,27.36-9.66c3-1.07,5.58-3.09,7.35-5.73,1.77-2.65,2.64-5.8,2.49-8.99l-2.46-4.21Z"/>
  <path class="cls-3" d="M344.3,848.46l.59-.2,1.73-.5,6.64-1.99,24.85-6.97-.24.42c-1.27-4.27-2.7-9.04-4.21-14.17v-.22l.2-.18c6.88-5.77,12.74-12.66,17.33-20.38,2.55-4.35,4.5-9.03,5.8-13.91,1.36-5.18,1.68-10.59.93-15.89-1.8-11.53-7.58-22.08-16.33-29.8-9.46-8.26-21.27-13.35-33.78-14.56-9.39-.8-18.81,1.09-27.16,5.44-8.05,3.92-15.01,9.77-20.25,17.03-4.83,6.84-7.82,14.8-8.7,23.13-.12,1.99-.42,3.97-.38,5.96.04,1.99.1,3.97.16,5.8.32,3.73.98,7.42,1.99,11.03.99,3.38,2.32,6.66,3.98,9.78,1.62,2.9,3.54,5.62,5.72,8.13,3.98,4.47,8.69,8.24,13.91,11.16,7.62,4.32,15.97,7.21,24.64,8.5h.14v.12l1.99,9.02c.2.99.36,1.77.46,2.32.1.56.16.79.16.82-.1-.23-.16-.47-.2-.72l-.56-2.26-2.15-9.1.18.16c-8.76-1.19-17.22-4.01-24.94-8.33-5.29-2.93-10.06-6.72-14.1-11.23-2.27-2.53-4.27-5.3-5.96-8.25-1.73-3.16-3.13-6.49-4.17-9.93-1-3.66-1.66-7.41-1.99-11.19l-.18-5.96c0-1.99.26-3.97.38-5.96.87-8.49,3.9-16.62,8.82-23.6,5.32-7.41,12.4-13.39,20.6-17.4,8.55-4.46,18.2-6.38,27.82-5.54,12.75,1.21,24.8,6.4,34.43,14.84,4.54,3.99,8.32,8.78,11.15,14.13.75,1.27,1.42,2.6,1.99,3.97.62,1.28,1.13,2.61,1.55,3.97.42,1.39.87,2.74,1.25,4.11.38,1.37.5,2.8.76,4.19.74,5.44.39,10.97-1.01,16.27-1.34,4.95-3.34,9.7-5.96,14.11-4.67,7.79-10.63,14.73-17.62,20.52l.14-.4,4.11,14.17.1.32-.32.1-25.13,6.67-6.62,1.73-1.67.42-.86.3Z"/>
  <path class="cls-3" d="M381.36,848.48c-5.64,2.12-11.41,3.89-17.27,5.3-5.76,1.76-11.63,3.18-17.56,4.23,5.65-2.09,11.41-3.86,17.26-5.28,5.76-1.77,11.63-3.19,17.56-4.25Z"/>
  <path class="cls-3" d="M373.59,864.73c-1.77,1.26-3.81,2.08-5.96,2.42-2.07.67-4.26.86-6.42.56,1.99-.75,4.05-1.3,6.16-1.63,2.02-.66,4.11-1.11,6.22-1.35Z"/>
  <path class="cls-3" d="M351.4,846.61c-.09-.18-.16-.36-.2-.56-.12-.44-.26-.99-.46-1.69-.4-1.57-.95-3.74-1.67-6.5-1.43-5.74-3.46-13.91-5.96-23.98-1.25-5.07-2.6-10.61-3.97-16.55-.29-1.47-.88-2.86-1.73-4.09-.36-.61-.92-1.06-1.59-1.29-.67-.22-1.39-.2-2.04.07-.62.41-1.12.98-1.44,1.65-.33.67-.48,1.41-.43,2.15.05,1.59.68,3.11,1.77,4.27,1.17,1.21,2.62,2.12,4.23,2.65,1.6.53,3.31.66,4.97.39,1.75-.26,3.4-.96,4.81-2.03,1.41-1.06,2.53-2.46,3.26-4.07,1.62-3.35,2.03-7.15,1.15-10.77-.34-1.83-1.2-3.52-2.49-4.87-.61-.61-1.41-1.01-2.26-1.12-.86-.12-1.73.04-2.49.47-.65.58-1.09,1.36-1.25,2.22-.16.86-.04,1.75.36,2.53.87,1.62,2.14,2.99,3.69,3.97,2.93,2.33,6.46,3.78,10.17,4.19,1.77.16,3.56-.11,5.21-.78,1.56-.72,2.92-1.81,3.97-3.16,1.06-1.31,1.7-2.92,1.83-4.61.07-.81-.03-1.62-.29-2.39-.26-.77-.67-1.48-1.22-2.08-.47-.58-1.08-1.02-1.79-1.26-.7-.25-1.46-.29-2.19-.12-.71.26-1.35.67-1.87,1.22-.52.55-.92,1.2-1.15,1.92-.97,2.92-.12,6.18.24,9.18.95,5.96,1.99,11.64,3.04,16.75,1.99,10.17,3.72,18.42,4.89,24.2.56,2.8,1.01,5.01,1.33,6.58.12.71.24,1.27.32,1.73.02.2.02.4,0,.59-.08-.19-.14-.38-.18-.58-.12-.44-.26-.99-.44-1.69-.38-1.57-.87-3.76-1.53-6.54-1.29-5.68-3.14-13.91-5.22-24.14-1.03-5.11-2.17-10.71-3.18-16.77-.22-1.53-.48-3.06-.64-4.67-.23-1.66-.1-3.36.4-4.97.28-.86.75-1.65,1.38-2.3.63-.65,1.4-1.15,2.25-1.46.92-.23,1.89-.21,2.79.09.9.29,1.71.83,2.32,1.56.63.7,1.1,1.52,1.41,2.42.3.89.43,1.83.36,2.77-.11,1.9-.81,3.72-1.99,5.21-1.18,1.51-2.72,2.71-4.47,3.5-1.81.73-3.76,1.03-5.7.87-3.92-.44-7.63-1.96-10.73-4.39-1.7-1.12-3.08-2.68-3.98-4.51-.57-.98-.75-2.14-.52-3.25.24-1.11.88-2.09,1.8-2.76.92-.66,2.06-.96,3.19-.83,1.13.13,2.17.68,2.92,1.53,1.42,1.5,2.39,3.37,2.78,5.4.93,3.87.49,7.93-1.25,11.5-.82,1.75-2.05,3.28-3.6,4.44-1.55,1.16-3.35,1.92-5.26,2.22-1.83.3-3.71.14-5.47-.46-1.76-.59-3.35-1.61-4.62-2.96-1.25-1.35-1.96-3.11-1.99-4.95-.05-.92.15-1.83.57-2.65.43-.82,1.07-1.5,1.85-1.98.42-.2.89-.32,1.36-.35.47-.02.94.05,1.38.21.81.34,1.5.91,1.99,1.63.9,1.35,1.55,2.86,1.89,4.45,1.41,5.96,2.72,11.52,3.98,16.61l5.56,24.02c.62,2.78,1.11,4.97,1.47,6.56.14.7.26,1.25.36,1.71.04.22.04.45,0,.68Z"/>
  <path class="cls-3" d="M379.99,855.91c-4.52,1.81-9.17,3.28-13.91,4.39-4.67,1.45-9.44,2.57-14.27,3.34,4.52-1.81,9.17-3.28,13.91-4.39,4.67-1.45,9.44-2.57,14.27-3.34Z"/>
  <path class="cls-8" d="M920.06,947.66c0,.28-189.6.52-423.45.52s-423.49-.24-423.49-.52,189.56-.52,423.49-.52,423.45.22,423.45.52Z"/>
  <path class="cls-3" d="M885.07,148.45H108.53v49.75h776.54v-49.75Z"/>
  <path class="cls-11" d="M884.95,243.9H108.41v435.51h776.54V243.9Z"/>
  <path class="cls-7" d="M108.53,197.82h106.63l10.55-30.76h172.85l10.55,30.76h475.96v47.13H108.53v-47.13Z"/>
  <path class="cls-8" d="M134.16,168.3c0,1.16-.34,2.28-.98,3.25-.64.96-1.55,1.71-2.62,2.15-1.07.44-2.24.56-3.37.33-1.13-.23-2.17-.78-2.99-1.6-.82-.82-1.37-1.86-1.6-2.99-.23-1.13-.11-2.31.33-3.37.44-1.07,1.19-1.98,2.15-2.62.96-.64,2.09-.98,3.25-.98.77,0,1.53.15,2.24.44.71.29,1.35.72,1.9,1.27s.97,1.19,1.27,1.9c.29.71.44,1.47.44,2.24Z"/>
  <path class="cls-8" d="M152.22,168.3c0,1.16-.34,2.28-.98,3.25-.64.96-1.55,1.71-2.62,2.15-1.07.44-2.24.56-3.37.33-1.13-.23-2.17-.78-2.99-1.6-.82-.82-1.37-1.86-1.6-2.99-.23-1.13-.11-2.31.33-3.37.44-1.07,1.19-1.98,2.15-2.62.96-.64,2.09-.98,3.25-.98.77,0,1.53.15,2.24.44.71.29,1.35.72,1.9,1.27.54.54.97,1.19,1.27,1.9.29.71.44,1.47.44,2.24Z"/>
  <path class="cls-8" d="M170.28,168.3c0,1.16-.34,2.28-.98,3.25-.64.96-1.55,1.71-2.62,2.15-1.07.44-2.24.56-3.37.33-1.13-.23-2.17-.78-2.99-1.6-.82-.82-1.37-1.86-1.6-2.99-.23-1.13-.11-2.31.33-3.37.44-1.07,1.19-1.98,2.15-2.62.96-.64,2.09-.98,3.25-.98.77,0,1.53.15,2.24.44.71.29,1.35.72,1.9,1.27s.97,1.19,1.27,1.9c.29.71.44,1.47.44,2.24Z"/>
  <path class="cls-9" d="M799.24,235.57H266.48c-3.92,0-7.68-1.56-10.45-4.33-2.77-2.77-4.33-6.53-4.33-10.45s1.56-7.68,4.33-10.45c2.77-2.77,6.53-4.33,10.45-4.33h532.76c3.92,0,7.68,1.56,10.45,4.33,2.77,2.77,4.33,6.53,4.33,10.45s-1.56,7.68-4.33,10.45c-2.77,2.77-6.53,4.33-10.45,4.33Z"/>
  <path class="cls-3" d="M279.24,222.76v5.01h-2.52v-4.61c0-1.41-.66-1.99-1.77-1.99s-2.11.76-2.11,2.34v4.33h-2.52v-12.12h2.52v4.21c.76-.69,1.76-1.06,2.78-1.03.51-.03,1.01.04,1.48.23.47.19.89.47,1.24.84.34.37.6.81.76,1.29.15.48.2.99.14,1.49Z"/>
  <path class="cls-3" d="M287.14,227.33c-.59.38-1.28.57-1.99.56-.43.06-.87.02-1.29-.12-.41-.13-.79-.36-1.11-.66-.31-.3-.56-.67-.71-1.08-.15-.41-.21-.85-.16-1.28v-3.58h-1.35v-1.99h1.35v-2.13h2.52v2.13h2.16v1.99h-2.16v3.58c-.02.15,0,.31.04.45.05.15.12.28.23.39.11.11.23.2.38.25.14.05.3.08.45.06.37,0,.72-.11,1.01-.34l.62,1.77Z"/>
  <path class="cls-3" d="M293.94,227.33c-.59.37-1.28.57-1.99.56-.43.06-.87.02-1.28-.12-.41-.13-.79-.36-1.11-.66-.31-.3-.56-.67-.71-1.08-.15-.41-.21-.85-.16-1.28v-3.58h-1.35v-1.99h1.35v-2.13h2.52v2.13h2.19v1.99h-2.19v3.58c-.02.15,0,.3.05.45.05.14.13.28.23.39.11.11.23.2.37.25.14.06.29.08.45.07.37,0,.74-.11,1.03-.34l.59,1.77Z"/>
  <path class="cls-3" d="M304.95,223.39c.04.59-.05,1.18-.26,1.73-.2.55-.52,1.06-.93,1.48-.41.42-.9.76-1.45.98-.54.22-1.13.33-1.72.31-.49.02-.97-.06-1.43-.24-.45-.18-.86-.46-1.2-.81v3.97h-2.52v-11.92h2.46v1.01c.34-.38.77-.68,1.24-.88.48-.2.99-.28,1.5-.26.59-.01,1.19.1,1.74.34s1.04.58,1.45,1.02c.41.44.71.95.91,1.52.19.56.26,1.16.2,1.76ZM302.38,223.39c-.04-.43-.2-.84-.47-1.18-.27-.34-.63-.59-1.03-.73-.41-.14-.85-.16-1.27-.05s-.79.33-1.09.65c-.29.32-.48.71-.56,1.14-.07.43-.02.86.15,1.26.17.39.46.73.82.97s.78.36,1.21.37c.31,0,.62-.06.9-.18s.54-.31.75-.53c.21-.23.37-.5.47-.79s.13-.61.1-.92Z"/>
  <path class="cls-3" d="M306.02,220.47c.04-.39.23-.75.52-1.01.29-.26.67-.4,1.06-.4s.77.14,1.06.4c.29.26.48.62.52,1.01.02.22,0,.45-.07.66-.07.21-.18.41-.33.58-.15.17-.33.3-.54.39-.2.09-.42.14-.65.14s-.45-.05-.65-.14c-.2-.09-.39-.22-.54-.39-.15-.17-.26-.36-.33-.58-.07-.21-.09-.44-.07-.66ZM306.02,226.29c.04-.39.23-.75.52-1.01.29-.26.67-.4,1.06-.4s.77.14,1.06.4c.29.26.48.62.52,1.01.02.22,0,.45-.07.66-.07.21-.18.41-.33.58-.15.17-.33.3-.54.39-.2.09-.42.14-.65.14s-.45-.05-.65-.14c-.2-.09-.39-.22-.54-.39-.15-.17-.26-.36-.33-.58-.07-.21-.09-.44-.07-.66Z"/>
  <path class="cls-3" d="M315.4,214.09h2.27l-5.36,15.28h-2.24l5.34-15.28Z"/>
  <path class="cls-3" d="M320.58,214.09h2.24l-5.34,15.28h-2.27l5.36-15.28Z"/>
  <path class="cls-9" d="M798.77,322.22h-464.18c-6.95,0-13.61-2.76-18.53-7.68s-7.68-11.58-7.68-18.53c0-6.95,2.77-13.61,7.68-18.52,4.91-4.91,11.58-7.68,18.52-7.68h464.18c6.95,0,13.61,2.77,18.52,7.68,4.91,4.91,7.68,11.58,7.68,18.52,0,6.95-2.76,13.62-7.68,18.53-4.91,4.91-11.58,7.68-18.53,7.68Z"/>
  <path class="cls-8" d="M798.77,322.21c3.7-.08,7.35-.9,10.73-2.42,3.32-1.53,6.29-3.73,8.72-6.47,2.43-2.74,4.26-5.95,5.39-9.43.94-3.11,1.31-6.36,1.07-9.6-.25-3.62-1.25-7.16-2.94-10.37-1.89-3.52-4.56-6.57-7.81-8.9-3.55-2.55-7.68-4.17-12.02-4.69-2.31-.2-4.62-.26-6.93-.2h-73.97l-386.37.14c-4.64.01-9.19,1.28-13.17,3.66-3.91,2.34-7.14,5.67-9.33,9.66-2.2,3.99-3.3,8.5-3.18,13.05.12,4.56,1.45,9,3.85,12.87,2.4,3.87,5.79,7.04,9.82,9.17,3.98,2.06,8.41,3.09,12.9,2.98h129.5l173.7.12,117.22.16h42.89-42.89l-117.22.18-173.7.1h-129.5c-4.65.12-9.25-.95-13.37-3.1-5.28-2.79-9.46-7.27-11.9-12.71-2.44-5.45-2.98-11.56-1.54-17.35,1.44-5.79,4.77-10.94,9.48-14.61,4.7-3.68,10.5-5.67,16.47-5.67l386.47.66h73.97c2.34-.06,4.68.02,7.01.22,4.42.55,8.62,2.21,12.22,4.83,3.16,2.26,5.77,5.2,7.65,8.59,1.88,3.39,2.99,7.17,3.23,11.04.21,3.29-.18,6.59-1.15,9.74-.9,2.75-2.24,5.33-3.97,7.65-2.7,3.65-6.29,6.55-10.43,8.4-2.53,1.11-5.21,1.83-7.95,2.12-1.97.18-2.92.18-2.92.18Z"/>
  <path class="cls-3" d="M345.24,301.59l.97-2.19c1.23.84,2.68,1.3,4.17,1.31,1.73,0,2.42-.58,2.42-1.35,0-2.36-7.33-.74-7.33-5.42,0-2.15,1.73-3.97,5.32-3.97,1.53-.03,3.04.35,4.37,1.11l-.89,2.23c-1.06-.63-2.27-.97-3.5-.99-1.73,0-2.4.66-2.4,1.45,0,2.33,7.33.72,7.33,5.35,0,2.11-1.75,3.97-5.34,3.97-1.82.04-3.61-.48-5.13-1.49Z"/>
  <path class="cls-3" d="M366.95,298.79h-7.33c.15.61.51,1.15,1.02,1.51.51.37,1.14.53,1.76.47.45.01.89-.06,1.31-.23.42-.16.79-.41,1.11-.73l1.49,1.63c-.76.73-1.7,1.23-2.73,1.45s-2.1.15-3.09-.21c-.99-.36-1.86-.98-2.51-1.8-.65-.82-1.06-1.81-1.18-2.86,0-.67.12-1.34.38-1.96.26-.62.64-1.18,1.13-1.65.48-.47,1.06-.83,1.69-1.07.63-.24,1.3-.34,1.97-.31.67-.04,1.34.07,1.97.31.63.24,1.19.61,1.67,1.08.48.47.85,1.04,1.09,1.67.24.63.35,1.3.32,1.97,0,.18-.04.48-.06.71ZM359.58,297.14h4.77c-.1-.56-.4-1.06-.83-1.42-.44-.36-.98-.56-1.55-.56s-1.12.2-1.55.56c-.44.36-.73.87-.83,1.42Z"/>
  <path class="cls-3" d="M377.19,297.3v5.54h-2.62v-1.21c-.33.47-.78.84-1.3,1.08-.52.24-1.1.33-1.67.27-2.27,0-3.61-1.27-3.61-2.94s1.21-2.9,4.15-2.9h2.25c0-1.19-.74-1.99-2.25-1.99-1,0-1.97.31-2.78.89l-1.01-1.99c1.25-.79,2.7-1.2,4.17-1.17,2.88.12,4.67,1.49,4.67,4.41ZM374.38,299.79v-.99h-1.99c-1.31,0-1.73.48-1.73,1.13s.59,1.17,1.57,1.17c.45.04.9-.06,1.29-.3.39-.24.69-.59.85-1.01Z"/>
  <path class="cls-3" d="M385.75,293.01v2.58h-.63c-.35-.03-.71.02-1.04.15-.33.13-.63.32-.87.58-.25.26-.43.56-.54.9-.11.33-.15.69-.11,1.04v4.59h-2.82v-9.7h2.68v1.27c.41-.48.92-.86,1.5-1.11.58-.25,1.21-.35,1.84-.3Z"/>
  <path class="cls-3" d="M386.62,297.99c0-.69.15-1.37.42-2.01.28-.63.68-1.2,1.19-1.67.51-.47,1.11-.82,1.76-1.05.65-.22,1.34-.31,2.03-.26.89-.07,1.77.12,2.55.56.77.44,1.39,1.1,1.79,1.9l-2.19,1.17c-.2-.4-.51-.74-.89-.98-.38-.23-.82-.36-1.27-.36-.71,0-1.39.28-1.9.79-.5.5-.78,1.19-.78,1.9s.28,1.39.78,1.9c.5.5,1.19.78,1.9.78.45,0,.89-.11,1.28-.35.38-.24.69-.58.89-.98l2.19,1.19c-.4.79-1.02,1.45-1.79,1.88-.77.43-1.65.63-2.54.56-.69.06-1.38-.03-2.03-.26-.65-.23-1.25-.59-1.76-1.05-.51-.47-.91-1.04-1.19-1.67-.28-.63-.42-1.32-.42-2.01Z"/>
  <path class="cls-3" d="M407.82,297.3v5.54h-2.82v-5.13c0-1.57-.72-2.29-1.99-2.29s-2.33.84-2.33,2.62v4.79h-2.82v-13.37h2.82v4.69c.41-.39.89-.69,1.42-.89.53-.2,1.09-.29,1.66-.26.56-.04,1.13.04,1.66.24.53.2,1,.52,1.39.93.39.41.68.91.86,1.45.17.54.22,1.11.15,1.67Z"/>
  <path class="cls-3" d="M414.78,301.21c0-.46.18-.91.51-1.24s.77-.51,1.24-.51.91.18,1.24.51.51.77.51,1.24-.18.91-.51,1.24-.77.51-1.24.51-.91-.18-1.24-.51-.51-.77-.51-1.24Z"/>
  <path class="cls-3" d="M419.5,301.21c0-.34.11-.68.3-.97.19-.29.47-.51.79-.63.32-.13.67-.16,1.01-.09.34.07.65.24.89.48.24.25.41.56.47.89.07.34.03.69-.1,1.01-.13.32-.36.59-.64.78-.29.19-.62.29-.97.29-.23,0-.46-.04-.68-.13-.22-.09-.41-.22-.57-.38-.16-.16-.29-.36-.38-.58-.08-.22-.13-.45-.12-.68Z"/>
  <path class="cls-3" d="M424.21,301.21c0-.46.19-.91.51-1.24s.77-.51,1.24-.51.91.18,1.23.51.51.77.51,1.24c0,.23-.04.46-.13.67-.09.21-.22.4-.38.57-.16.16-.35.29-.57.38-.21.09-.44.13-.67.13s-.46-.04-.67-.13c-.21-.09-.41-.22-.57-.38-.16-.16-.29-.36-.38-.57-.09-.21-.13-.44-.13-.67Z"/>
  <path class="cls-2" d="M254.34,367.79c0,.3-18.64.52-41.6.52s-41.6-.22-41.6-.52,18.62-.52,41.6-.52,41.6.28,41.6.52Z"/>
  <path class="cls-6" d="M257.6,391.61h-86.47v86.47h86.47v-86.47Z"/>
  <path class="cls-2" d="M782.99,412c0,.28-107.29.52-239.69.52s-239.71-.24-239.71-.52,107.29-.52,239.71-.52,239.69.22,239.69.52Z"/>
  <path class="cls-2" d="M434.72,444.54c0,.3-28.29.52-63.16.52s-63.18-.22-63.18-.52,28.27-.52,63.18-.52,63.16.24,63.16.52Z"/>
  <path class="cls-3" d="M706.38,474.74c0,.28-89.11.52-199,.52s-199-.24-199-.52,89.09-.54,199-.54,199,.24,199,.54Z"/>
  <path class="cls-2" d="M254.34,522.76c0,.28-18.64.52-41.6.52s-41.6-.24-41.6-.52,18.62-.52,41.6-.52,41.6.18,41.6.52Z"/>
  <path class="cls-6" d="M257.6,546.49h-86.47v86.46h86.47v-86.46Z"/>
  <path class="cls-2" d="M811.48,566.85c0,.3-113.71.52-253.93.52s-253.95-.22-253.95-.52,113.68-.52,253.95-.52,253.93.24,253.93.52Z"/>
  <path class="cls-2" d="M434.72,599.41c0,.28-28.29.52-63.16.52s-63.18-.24-63.18-.52,28.27-.52,63.18-.52,63.16.24,63.16.52Z"/>
  <path class="cls-3" d="M775.68,629.59c0,.3-104.61.52-233.63.52s-233.67-.22-233.67-.52,104.61-.52,233.67-.52,233.63.24,233.63.52Z"/>
  <path class="cls-8" d="M885.07,680.45c0-3.42-.16-208.22-.42-532.01l.42.42H108.59l.52-.52v532.01l-.48-.48,776.54.48-776.54.46h-.48V147.83h777.48v.42c-.38,323.99-.56,528.79-.56,532.2Z"/>
  <path class="cls-2" d="M377.58,186.99c0,.3-27.42.52-61.23.52s-61.23-.22-61.23-.52,27.42-.52,61.23-.52,61.23.24,61.23.52Z"/>
  <path class="cls-4" d="M267.12,284.78h-108.76v32.76h108.76v-32.76Z"/>
  <path class="cls-6" d="M459.7,370.6c0,.3-33.77.52-75.5.52s-75.5-.22-75.5-.52,33.78-.52,75.5-.52,75.5.24,75.5.52Z"/>
  <path class="cls-6" d="M459.7,522.76c0,.28-33.77.52-75.5.52s-75.5-.24-75.5-.52,33.78-.52,75.5-.52,75.5.18,75.5.52Z"/>
  <path class="cls-6" d="M788.77,304.73c-2.5,0-4.95-.74-7.03-2.12-2.08-1.39-3.7-3.36-4.66-5.67s-1.21-4.85-.72-7.31c.49-2.45,1.69-4.71,3.46-6.47,1.77-1.77,4.02-2.97,6.47-3.46,2.45-.49,4.99-.24,7.3.72,2.31.96,4.28,2.58,5.67,4.66,1.39,2.08,2.12,4.53,2.12,7.03,0,3.35-1.34,6.55-3.7,8.92-2.36,2.37-5.57,3.7-8.91,3.7ZM788.77,281.47c-2.11,0-4.17.62-5.92,1.79-1.75,1.17-3.12,2.83-3.93,4.78-.81,1.94-1.02,4.09-.61,6.15.41,2.07,1.42,3.97,2.91,5.46,1.49,1.49,3.39,2.51,5.45,2.92,2.07.41,4.21.2,6.16-.6s3.61-2.17,4.78-3.92c1.17-1.75,1.8-3.81,1.8-5.92,0-2.82-1.12-5.53-3.11-7.52-1.99-2-4.7-3.12-7.52-3.13Z"/>
  <path class="cls-6" d="M804.29,310.33c-.27,0-.53-.11-.72-.3l-8.22-8.17c-.09-.09-.17-.2-.22-.32-.05-.12-.08-.25-.08-.38s.03-.26.08-.38c.05-.12.12-.23.22-.32.09-.09.2-.17.32-.22.12-.05.25-.08.38-.08s.26.03.38.08c.12.05.23.12.32.22l8.22,8.17c.13.14.22.32.26.51.04.19.02.39-.06.57-.07.18-.2.33-.36.45-.16.11-.35.18-.54.18Z"/>
  <path class="cls-2" d="M595.69,442.32c0,.28-32.52.52-72.66.52s-72.68-.24-72.68-.52,32.54-.52,72.68-.52,72.66.22,72.66.52Z"/>
  <path class="cls-2" d="M689.61,440.07c0,.3-17.03.52-38.01.52s-38.03-.22-38.03-.52,17.03-.52,38.03-.52,38.01.24,38.01.52Z"/>
  <path class="cls-2" d="M595,599.41c0,.28-32.52.52-72.66.52s-72.66-.24-72.66-.52,32.53-.52,72.66-.52,72.66.24,72.66.52Z"/>
  <path class="cls-4" d="M204.97,640.3c-16.13,8.34-28.49,22.73-37.37,38.56-8.88,15.84-14.62,33.18-20.29,50.52l-4.97,88.95c18.76-31.91,33.78-69.42,37.87-106.21l-12.48-1.11c8.36-1.27,15.4-7.33,19.87-14.52,4.47-7.19,6.76-15.48,9-23.64l-15.22,2.27c12.04-8.14,20.49-20.6,23.58-34.81Z"/>
  <g class="cls-12">
    <path class="cls-2" d="M204.97,640.3c-16.13,8.34-28.49,22.73-37.37,38.56-8.88,15.84-14.62,33.18-20.29,50.52l-4.97,88.95c18.76-31.91,33.78-69.42,37.87-106.21l-12.48-1.11c8.36-1.27,15.4-7.33,19.87-14.52,4.47-7.19,6.76-15.48,9-23.64l-15.22,2.27c12.04-8.14,20.49-20.6,23.58-34.81Z"/>
  </g>
  <path class="cls-4" d="M139.56,839.06s-40.71-48.72-40.23-95.23h16.43s-17.88-11.76-16.45-18.34c1.43-6.58,1.99-31.47,1.99-31.47l15.04,3.76s-11.29-5.64-12.7-14.56c-1.41-8.92,3.3-50.29,3.3-50.29,0,0,18.32,19.27,23.96,39,5.64,19.73,20.34,42.76,16.01,102.9-4.33,60.14-7.35,64.23-7.35,64.23Z"/>
  <path class="cls-4" d="M160.21,843.67s44.11-29.38,53.9-66.88l-13.23-3.69s16.95-5.52,17.25-11.13c.3-5.6,5.36-25.73,5.36-25.73l-12.91-.26s10.31-1.99,13.39-8.94c3.08-6.95,8.36-41.13,8.36-41.13,0,0-18.95,11.46-27.82,26.11-8.86,14.64-25.83,29.9-35.46,79.21-9.64,49.31-8.84,52.43-8.84,52.43Z"/>
  <path class="cls-8" d="M117.97,675.43c.07.16.12.33.16.5l.36,1.49c.32,1.41.75,3.34,1.33,5.78,1.13,5.03,2.64,12.32,4.35,21.36,3.48,18.06,7.59,43.17,10.83,71.07,3.24,27.89,4.95,53.29,5.68,71.68.38,9.2.58,16.63.62,21.85v7.51c.03.17.03.35,0,.52-.03-.17-.03-.35,0-.52v-1.53c0-1.45-.12-3.42-.22-5.96-.16-5.15-.48-12.58-.95-21.75-.91-18.38-2.76-43.71-5.96-71.53-3.2-27.82-7.21-52.97-10.51-71.07-1.63-9.04-3.02-16.35-3.97-21.4-.48-2.46-.85-4.41-1.13-5.8-.1-.63-.2-1.13-.26-1.53-.15-.2-.26-.43-.32-.67Z"/>
  <path class="cls-4" d="M133.92,868.9s-37.25-42.16-48.84-67.83l8.74-3.72c-6.34,1.03-12.81-1.69-17.72-5.82-4.71-4.36-8.77-9.39-12.04-14.92l11.5-1.99c-10.56-3.01-19.57-9.96-25.15-19.41,13.59,2.23,25.83,9.68,35.98,18.99,8.06,7.73,15.37,16.19,21.85,25.27,3.24,4.37,6.07,9.02,8.46,13.91,6.22,12.95,17.23,39.99,17.21,55.51Z"/>
  <path class="cls-8" d="M214.69,710.6c-.03.15-.08.3-.16.44l-.56,1.23-2.25,4.71c-1.99,3.97-4.79,9.93-8.21,17.3-6.83,14.64-15.89,35.11-24.76,58.11-8.86,23.01-15.89,44.21-20.78,59.61-2.4,7.73-4.29,13.91-5.56,18.34l-1.53,5.03-.42,1.29c0,.28-.16.44-.18.42-.02-.02,0-.16,0-.46l.32-1.31,1.31-5.05c1.15-4.37,2.94-10.67,5.26-18.42,4.63-15.52,11.6-36.78,20.5-59.82,8.9-23.05,18.06-43.47,25.07-58.05,3.5-7.29,6.42-13.15,8.5-17.17l2.42-4.63.66-1.17c.1-.15.21-.28.34-.4Z"/>
  <path class="cls-8" d="M137.08,887.02c-.29-.99-.49-2-.6-3.02-.3-1.99-.79-4.75-1.49-8.21-1.83-8.99-4.36-17.81-7.57-26.4-3.26-8.58-7.2-16.88-11.78-24.84-1.77-3.04-3.24-5.48-4.31-7.13-.59-.84-1.1-1.73-1.53-2.66.69.75,1.32,1.56,1.87,2.42,1.17,1.61,2.76,3.97,4.61,7.01,4.79,7.88,8.85,16.19,12.12,24.81,3.25,8.64,5.69,17.56,7.31,26.64.6,3.5.99,6.32,1.17,8.3.15,1.01.22,2.04.2,3.06Z"/>
  <path class="cls-6" d="M186.23,877.07h-81.54v16.63h81.54v-16.63Z"/>
  <path class="cls-6" d="M112.46,893.72l8.82,55.93h49.27l8.23-55.93h-66.32Z"/>
  <path class="cls-8" d="M181.23,893.72c0,.28-15.42.52-34.45.52s-34.43-.24-34.43-.52,15.42-.52,34.43-.52,34.45.22,34.45.52Z"/>
  <path class="cls-4" d="M536.33,908.38v41.25l83.21-.4c-.59-8.36-46.27-25.05-46.27-25.05l.91-15.89-37.85.1Z"/>
  <g class="cls-13">
    <path class="cls-11" d="M549.82,920.44c-.81.3-1.49.88-1.9,1.63-.42.75-.55,1.64-.36,2.48.19.83.7,1.55,1.42,2.01.72.46,1.59.61,2.42.44.86-.32,1.57-.94,2.01-1.75.44-.81.57-1.74.37-2.64-.15-.41-.37-.79-.67-1.11-.29-.32-.65-.59-1.04-.77-.4-.19-.82-.29-1.26-.31-.44-.02-.87.05-1.28.2"/>
  </g>
  <path class="cls-8" d="M536.33,949.63v-6.58l79.47.93s4.13,2.49,3.76,5.24l-83.23.4Z"/>
  <path class="cls-8" d="M573.3,924.97c0,.44-1.99.66-3.97,1.99-1.99,1.33-3,3.22-3.38,3.06s.2-2.66,2.6-4.31c2.4-1.65,4.83-1.13,4.75-.74Z"/>
  <path class="cls-8" d="M584.21,928.79c0,.42-1.65,1.17-3,3-1.35,1.83-1.71,3.76-2.11,3.73-.4-.02-.7-2.42,1.01-4.67,1.71-2.24,4.07-2.46,4.09-2.07Z"/>
  <path class="cls-8" d="M589.12,939.29c-.38.1-.97-1.99,0-4.39.97-2.4,2.88-3.32,3.06-2.96.18.36-.97,1.63-1.77,3.58-.8,1.95-.89,3.73-1.29,3.77Z"/>
  <path class="cls-8" d="M572.49,913.23c-.16.4-1.99-.16-4.31,0s-3.97.99-4.25.62c-.28-.38,1.47-1.99,4.15-2.11,2.68-.12,4.61,1.15,4.41,1.49Z"/>
  <path class="cls-8" d="M572.96,926.82c.22-.82.29-1.68.18-2.52-.18-2.32-.94-4.55-2.2-6.5-.87-1.34-1.97-2.5-3.26-3.44-.38-.33-.84-.54-1.33-.63-.49-.09-1-.04-1.47.13-.49.27-.89.67-1.19,1.14-.29.48-.45,1.02-.46,1.58.13,2.15.89,4.22,2.19,5.94,1.3,1.72,3.08,3.01,5.12,3.72,1.99.63,4.13.65,6.14.06,2.01-.59,3.79-1.78,5.11-3.4.65-.75,1.15-1.61,1.49-2.54.17-.54.17-1.11,0-1.65-.09-.27-.24-.51-.44-.72-.19-.21-.43-.37-.7-.47-.86-.26-1.79-.16-2.58.26-.69.31-1.35.68-1.99,1.09-1.87,1.25-3.48,2.85-4.75,4.71-.52.66-.91,1.4-1.15,2.2,1.72-2.42,3.87-4.51,6.34-6.16,1.11-.64,2.58-1.55,3.76-1.13.52.2.72.82.48,1.53-.3.78-.75,1.49-1.31,2.11-1.2,1.43-2.8,2.47-4.59,2.99-1.79.52-3.7.5-5.48-.07-1.78-.63-3.34-1.75-4.51-3.23-1.16-1.49-1.88-3.27-2.07-5.15-.01-.36.07-.71.24-1.03.17-.31.42-.58.73-.76.32-.1.65-.12.98-.06.33.06.63.21.89.42,1.2.83,2.25,1.88,3.08,3.08,1.25,1.78,2.09,3.82,2.44,5.96.26,1.65.22,2.54.32,2.54Z"/>
  <path class="cls-4" d="M505.95,914.34l1.41,10.63-.93,23.94-31.19.76-1.11-24.7,3.53-14.68,28.29,4.05Z"/>
  <path class="cls-8" d="M491.01,947.1c-.2,0,.26-7.31.99-16.35.74-9.04,1.51-16.39,1.69-16.41.18-.02-.26,7.33-.99,16.37-.74,9.04-1.51,16.39-1.69,16.39Z"/>
  <path class="cls-8" d="M506.55,944.92l-31.51.38v4.37l31.53-.02-.02-4.73Z"/>
  <path class="cls-8" d="M475.12,931.15s.22-.5.79-1.25c.83-1.08,1.76-2.08,2.78-2.98,1.51-1.36,3.2-2.5,5.03-3.38,3.2-1.56,6.82-2.06,10.32-1.41,3.5.65,6.7,2.4,9.13,5.01.92,1.02,1.69,2.16,2.28,3.4.25.43.42.91.5,1.41-.97-1.53-2.06-2.99-3.26-4.35-3.12-3.08-7.32-4.8-11.7-4.81-4.39.13-8.6,1.77-11.92,4.65-2.57,2.12-3.83,3.83-3.95,3.72Z"/>
  <path class="cls-10" d="M490.87,246.08l-.24,107.8,46.27,2.2,1.35-26.22s16.43,3.26,20.66-11.92c2.72-9.76,1.99-85.12,1.99-85.12l-70.03,13.25Z"/>
  <path class="cls-8" d="M566.94,240.4c-7.29,2.09-8.88,13.91-8.88,13.91l-11.42,25.25c-5.82-4.55-13.65-4.29-15.12,5.96-1.07,7.39,8.13,8.88,8.13,8.88-5.36,9.12-8.98,16.49-16.79,25.15-8.39,9.44-13.15,10.37-22.29,10.49h-10.09s-4.95-16.03-14.09-56.11c-10.13-44.46,42.44-38.74,52.19-50.09,15.88-18.46,61.39,9.97,38.37,16.55Z"/>
  <path class="cls-8" d="M579.78,230.7c-.4-2.37-1.64-4.52-3.49-6.06-1.85-1.54-4.18-2.37-6.59-2.34.75-1.27,1.03-2.76.79-4.21-.24-1.45-.98-2.78-2.1-3.73-1.16-.91-2.51-1.56-3.94-1.91-1.44-.34-2.93-.37-4.38-.08-2.9.59-5.69,1.59-8.3,2.98-.97-2.88-2.86-5.37-5.36-7.09-2.7-1.58-5.8-2.35-8.92-2.21-14.21,0-21.68,9.72-29.3,19.63-1.11,1.85-2.71,3.36-4.61,4.37-1.38.41-2.83.57-4.27.48-5.43.17-10.71,1.77-15.33,4.64-4.61,2.87-8.38,6.9-10.94,11.69-4.97,9.6-8.68,31.79,4.19,45.7l7.75,17.31,74.17-58.77c.54.28,5.18,2.54,8.76.68,8.88-4.69,5.15-12.48,5.15-12.48.71-.5,7.49-3.81,6.73-8.58Z"/>
  <path class="cls-4" d="M511.14,288.54c.62,2.7.53,5.52-.26,8.18-.42,2.75-1.55,5.34-3.28,7.51-.32-.16,1.17-3.46,2.12-7.77.96-4.31,1.07-7.93,1.41-7.93Z"/>
  <path class="cls-4" d="M516.74,283.24c.39,2.65.24,5.35-.44,7.95-.3,2.64-1.13,5.2-2.44,7.51.19-2.61.63-5.2,1.29-7.73.28-2.62.82-5.21,1.59-7.73Z"/>
  <path class="cls-4" d="M532.75,265.43c.12.16-1.19,1.11-2.86,3.06-2.13,2.58-3.81,5.49-4.99,8.62-1.14,3.17-2.06,6.4-2.76,9.69-.19,1.37-.58,2.71-1.15,3.98-.08-1.42.03-2.84.34-4.23.47-3.39,1.3-6.72,2.48-9.93,1.21-3.26,3.08-6.23,5.48-8.74.94-1.08,2.13-1.91,3.46-2.44Z"/>
  <path class="cls-4" d="M539.23,253.33c.14,0,.62,1.03.92,2.9.33,2.46.19,4.96-.42,7.37-.58,2.41-1.64,4.68-3.12,6.68-1.13,1.53-1.99,2.26-2.17,2.17-.18-.1,2.84-3.72,4.15-9.12,1.31-5.4.28-9.95.63-9.99Z"/>
  <path class="cls-4" d="M484.01,280.25c-.16.3-1.57-.2-3.16-1.09-1.59-.89-2.76-1.83-2.6-2.13.16-.3,1.57.22,3.16,1.11,1.59.89,2.76,1.83,2.6,2.11Z"/>
  <path class="cls-4" d="M506.37,268.75c.18,1.67-.29,3.35-1.31,4.69-1.43,2.36-3.36,3.6-3.56,3.36-.2-.24,1.25-1.79,2.54-3.97,1.29-2.19,1.99-4.15,2.32-4.07Z"/>
  <path class="cls-4" d="M513.24,265.06c-.03,2.04-.72,4.01-1.99,5.6-1.85,2.82-4.17,4.33-4.35,3.97-.18-.36,1.65-1.99,3.38-4.71.89-1.68,1.88-3.3,2.96-4.87Z"/>
  <path class="cls-4" d="M547.41,219.87s-.87-.66-2.54-1.61c-2.39-1.27-5.04-1.95-7.75-1.99-4.01-.11-7.96.95-11.38,3.04-4.11,2.7-7.44,6.43-9.67,10.81-1.71,3.21-3.04,6.6-3.97,10.11l-.2.68-.62-.34c-3.19-1.67-6.72-2.57-10.31-2.64-2.85-.07-5.7.37-8.4,1.27-2.41.89-4.71,2.05-6.87,3.44.45-.53.97-.99,1.55-1.37,1.56-1.14,3.27-2.05,5.09-2.72,2.76-1.05,5.69-1.58,8.64-1.57,3.77,0,7.49.88,10.85,2.6l-.82.36c.92-3.6,2.25-7.08,3.98-10.37,2.32-4.56,5.83-8.42,10.15-11.17,3.59-2.14,7.74-3.17,11.92-2.96,2.82.12,5.55.96,7.95,2.44.64.4,1.23.88,1.77,1.41.5.36.67.56.66.58Z"/>
  <path class="cls-4" d="M571.75,225.76c-.1,0,1.27-.36,2.64,1.19.39.46.69,1,.88,1.58.18.58.25,1.19.19,1.8-.12.81-.43,1.58-.9,2.25-.47.67-1.09,1.22-1.81,1.61-1.71.97-3.72,1.25-5.62.77-2.09-.55-4.06-1.51-5.78-2.82-1.81-1.44-3.71-2.77-5.68-3.97-2.14-1.16-4.44-1.97-6.84-2.4-4.64-.84-9.42-.51-13.91.95-3.68,1.21-7.16,2.98-10.31,5.25-5.4,3.87-8.07,7.13-8.25,6.95.53-.82,1.15-1.59,1.85-2.28,1.82-1.96,3.81-3.75,5.96-5.34,3.17-2.42,6.7-4.31,10.47-5.6,4.66-1.58,9.66-1.95,14.5-1.07,2.51.46,4.93,1.32,7.17,2.54,2,1.2,3.92,2.53,5.74,3.97,1.6,1.26,3.43,2.19,5.39,2.74,1.67.46,3.46.27,5.01-.54.62-.32,1.17-.77,1.59-1.33.42-.56.71-1.2.85-1.89.14-1.06-.14-2.14-.78-3-.61-.72-1.45-1.2-2.38-1.35Z"/>
  <path class="cls-10" d="M787.32,308.51c-1.75-1.55-25.31,8.33-25.31,8.33,0,0-17.58,13.91-24.81,21.95l-4.47,3.72-66.87,51.99-82.25-34.21-17.88,45.87s92.35,36.78,106.41,30.48c15.28-6.84,72.2-66.42,72.34-66.62l8.22-7.95s4.35,0,7.65-.28c3.3-.28,12.95-6.62,12.95-6.62.92-1.76,1.55-3.66,1.87-5.62.2-.78.14-1.61-.19-2.35-.32-.74-.89-1.35-1.6-1.73.34-1.53.39-3.1.16-4.65-.38-2.62-3.97-5.66-3.97-5.66,1.12-1.14,1.89-2.58,2.2-4.15.8-3.04-3.12-5.96-3.12-5.96,0,0,13.69-9.3,17.01-10.95,3.32-1.65,3.42-4.05,1.67-5.6Z"/>
  <path class="cls-8" d="M595.69,778.44c.28-3.02.42-5.34.42-6.79l9.3-148.28s-7.81-43.31-11.5-54.79l-33.2-12.86-44.25,17.23c-.28-3.56-.46-5.76-.46-5.76l-65.11,22.53s-1.69,44.44,0,57.98c.56,4.35,2.24,15.58,4.31,28.81,0,0,2.11,28.75,2.54,30.36,1.57,5.86,1.99,20.23,1.99,34.61,0,18.28.99,40.03,2.15,50.37,1.15,10.33,1.69,124.06,1.69,124.06h48.08l6.18-181.12c1.03-19.41,2.58-49.09,3.58-70.57l11.28,66.87c0,2.45,6.88,40.69,6.88,40.69-1.59,12.04-2.57,24.14-2.94,36.28-.79,33.77-4.75,107.84-4.75,107.84h47.05s14.15-107.05,16.89-137.45h-.12Z"/>
  <path class="cls-4" d="M603.88,614.49c-1.54-.58-3.01-1.37-4.35-2.32-3.34-2.14-6.45-4.61-9.3-7.37-2.84-2.75-5.41-5.78-7.67-9.04-1.01-1.3-1.84-2.74-2.44-4.27,1.09,1.21,2.1,2.49,3.02,3.83,2.4,3.1,5.01,6.02,7.81,8.76,2.8,2.71,5.8,5.21,8.96,7.49,1.39.88,2.72,1.86,3.97,2.92Z"/>
  <path class="cls-4" d="M519.88,641.44c-.38-.44-.68-.94-.91-1.47-.74-1.39-1.4-2.83-1.99-4.29-2.01-4.82-3.49-9.85-4.39-15-.89-5.15-1.2-10.38-.95-15.6.12-1.99.28-3.6.46-4.71.04-.59.16-1.16.38-1.71.16,0,0,2.48-.1,6.44-.06,5.16.35,10.31,1.23,15.4.88,5.08,2.21,10.08,3.98,14.92,1.41,3.72,2.44,5.94,2.3,6.02Z"/>
  <path class="cls-4" d="M526.87,697.26c-.29-.84-.5-1.7-.62-2.58-.34-1.88-.78-4.24-1.31-7.09-1.03-6.22-2.42-14.4-3.97-23.46-2.66-16.63-4.47-27.96-5.31-33.22,1.08,3.11,1.84,6.33,2.27,9.59,1.15,5.96,2.58,14.29,4.09,23.44,1.51,9.16,2.76,17.51,3.64,23.53.38,2.86.71,5.24.97,7.15.18.87.26,1.75.24,2.64Z"/>
  <path class="cls-10" d="M413.4,449.95s-6.34,44.68-7.53,60.34c-.71,9.44,8.86,21.86,16.17,22.87,7.31,1.01,31.95,2.38,31.95,2.38l1.99-28.03-.63-5.58-7.65-1.43,2.31-44.47-36.6-6.08Z"/>
  <path class="cls-1" d="M449.05,457.54c.2.79.3,1.61.3,2.42.12,1.57.2,3.83.26,6.66.14,5.6,0,13.37-.48,21.86-.48,8.48-1.17,16.29-1.71,21.85-.3,2.78-.54,5.05-.74,6.6-.04.82-.19,1.62-.42,2.4-.09-.81-.09-1.63,0-2.44.1-1.79.24-3.97.4-6.64.38-5.82.86-13.43,1.39-21.85.54-8.42.74-16.25.79-21.86v-6.64c-.02-.79.05-1.58.2-2.36Z"/>
  <g class="cls-12">
    <path class="cls-2" d="M451.47,590.53c12.52,4.65,26.22,5.03,39.52,3.87,13.29-1.15,26.44-3.83,39.74-5.09,20.15-1.88,40.46-.54,60.18,3.97,1.38.42,2.82.55,4.25.4.71-.09,1.38-.39,1.91-.87.53-.48.91-1.1,1.09-1.79.36-2.23-2.08-3.77-4.15-4.63-22.74-9.41-47.19-13.98-71.79-13.43-24.6.55-48.82,6.2-71.12,16.61"/>
  </g>
  <path class="cls-6" d="M643.12,380.59l-70.57-35.13c-11.13-1.31-22.34-1.8-33.54-1.47h-46.71s-56.58,16.69-65.94,32.09l-24.26,72.72,47.96,7.23,5.96,52.25s-5.96,60.5-5.96,69.28c-.13,4.07.11,8.14.73,12.16,0,0,95.96-14.58,119.59-6.89,23.62,7.69,30,6.89,30,6.89,0,0-1.99-25.11-3.72-39.74l-5.44-72.92-3.97-55.63,44.4,13.59,11.46-54.44Z"/>
  <path class="cls-8" d="M449.62,456.6c-.18,0-.66-3-1.71-7.85-1.4-6.31-3.26-12.5-5.56-18.54-2.35-6.08-5.1-12-8.23-17.72l-2.9-5.21c-.41-.62-.74-1.28-.97-1.99.52.53.97,1.13,1.35,1.77.82,1.17,1.99,2.9,3.2,5.09,3.35,5.65,6.22,11.57,8.58,17.7,2.32,6.08,4.09,12.36,5.28,18.76.44,2.44.71,4.43.85,5.82.12.71.15,1.44.1,2.16Z"/>
  <path class="cls-8" d="M540.12,477.25c-.04.33-.12.66-.26.97l-.89,2.68c-.4,1.17-.89,2.58-1.55,4.21-.66,1.63-1.35,3.5-2.27,5.48-1.73,3.97-3.98,8.78-6.8,13.91-2.82,5.13-6.16,10.57-9.93,16.09-3.77,5.52-7.95,10.51-11.7,14.92-3.76,4.41-7.51,8.13-10.73,11.15-1.57,1.55-3.1,2.84-4.39,3.98-1.29,1.13-2.46,2.15-3.42,2.92l-2.23,1.75c-.25.22-.52.41-.82.58,0,0,.22-.28.7-.74l2.08-1.99c.91-.79,1.99-1.81,3.3-3.02,1.31-1.21,2.74-2.53,4.27-4.09,3.14-3.06,6.71-6.87,10.51-11.24,3.79-4.37,7.73-9.42,11.58-14.88,3.86-5.46,7.15-10.93,9.93-15.89,2.78-4.97,5.15-9.74,6.95-13.73.95-1.99,1.69-3.83,2.38-5.42.7-1.59,1.27-2.98,1.73-4.13.46-1.15.78-1.99,1.07-2.62.11-.31.27-.6.46-.87Z"/>
  <path class="cls-8" d="M572.73,350.27c-1.86,2.65-3.12,5.68-3.72,8.86-.59,3.45-.59,6.98,0,10.43.77,4.25,1.77,8.45,2.98,12.6,2.45,8.9,5.01,16.83,6.97,22.55.93,2.7,1.71,4.97,2.34,6.77.33.82.58,1.66.75,2.53-.46-.75-.85-1.55-1.15-2.38-.66-1.55-1.59-3.82-2.66-6.66-2.15-5.66-4.85-13.61-7.29-22.53-1.19-4.16-2.14-8.39-2.84-12.66-.58-3.55-.53-7.18.16-10.71.49-2.38,1.42-4.65,2.74-6.69.44-.8,1.01-1.51,1.71-2.11Z"/>
  <path class="cls-11" d="M439.57,426.82c-1.04,1.13-2.34,2.01-3.77,2.56-3.38,1.55-7.13,2.08-10.8,1.52-3.67-.56-7.1-2.19-9.86-4.67-1.2-.95-2.17-2.17-2.82-3.56.14-.12,1.17,1.29,3.3,3,2.76,2.23,6.08,3.7,9.59,4.23,3.52.53,7.11.12,10.42-1.19,2.44-.99,3.85-2.03,3.95-1.89Z"/>
  <path class="cls-11" d="M574.81,394.02c-.14.53-.33,1.04-.58,1.53-.44.99-1.11,2.42-2.09,4.21-2.8,5.07-6.33,9.7-10.49,13.73-6.22,6.03-13.97,10.24-22.41,12.18-4.98,1.14-10.12,1.36-15.18.66-5.41-.86-10.62-2.71-15.36-5.47-9.75-5.44-18-12.34-27.02-15.64-7.98-2.95-16.66-3.43-24.92-1.37-5.57,1.34-10.83,3.75-15.48,7.09-3.26,2.4-4.79,4.09-4.87,3.97,1.39-1.59,2.94-3.04,4.63-4.31,5.77-4.37,12.53-7.24,19.69-8.33,7.15-1.1,14.47-.4,21.28,2.04,9.24,3.34,17.54,10.25,27.18,15.62,4.62,2.72,9.71,4.58,15,5.48,4.94.69,9.97.49,14.84-.6,8.29-1.86,15.93-5.93,22.09-11.78,4.17-3.93,7.76-8.44,10.65-13.39,1.01-1.75,1.77-3.16,2.24-4.11.22-.52.48-1.03.78-1.51Z"/>
  <path class="cls-11" d="M619,368.53c.39.73.7,1.5.92,2.31.65,2.15,1.04,4.37,1.15,6.62.38,7.53-2,14.93-6.7,20.82-2.73,3.02-5.69,5.83-8.86,8.38-2.49,2.08-4.52,4.66-5.96,7.57-.98,1.96-1.43,4.13-1.33,6.32.12,1.55.46,2.38.36,2.41-.1.02-.14-.18-.3-.58-.22-.58-.38-1.18-.46-1.79-.27-2.27.09-4.58,1.05-6.66,1.4-3.04,3.43-5.75,5.96-7.95,3.08-2.57,5.99-5.35,8.68-8.33,4.54-5.72,6.93-12.85,6.77-20.15-.15-3.03-.59-6.03-1.29-8.98Z"/>
  <path class="cls-11" d="M504.22,536.04c-.63.33-1.29.58-1.99.74-1.92.55-3.87.96-5.84,1.23-2.98.49-6.02.32-8.92-.52-1.72-.55-3.31-1.44-4.67-2.62-1.37-1.3-2.64-2.69-3.81-4.17-1.15-1.41-2.49-2.65-3.98-3.69-1.41-.92-2.94-1.66-4.55-2.19-2.75-.88-5.66-1.16-8.52-.82-1.94.21-3.84.75-5.6,1.59-.64.36-1.3.66-1.99.92.52-.52,1.12-.95,1.79-1.27,1.76-1.02,3.69-1.69,5.7-1.99,2.97-.48,6.02-.27,8.9.62,1.71.52,3.33,1.29,4.83,2.26,1.59,1.07,3.01,2.37,4.21,3.86,1.14,1.44,2.38,2.8,3.69,4.07,1.26,1.11,2.73,1.96,4.31,2.5,2.77.82,5.68,1.06,8.54.7,4.83-.58,7.85-1.39,7.89-1.21Z"/>
  <path class="cls-11" d="M595.59,531.8c-.19.2-.4.38-.63.54-.63.48-1.3.91-1.99,1.31-2.47,1.51-5.15,2.64-7.95,3.36-4.21,1.08-8.59,1.34-12.89.75-5.31-.72-10.36-2.77-14.66-5.96-4.09-3.31-8-6.83-11.72-10.55-3.04-2.96-6.56-5.37-10.41-7.15-2.58-1.2-5.4-1.82-8.25-1.83-1.99,0-3.14.34-3.16.22.25-.12.52-.21.79-.26.77-.21,1.55-.33,2.34-.38,2.94-.13,5.86.41,8.56,1.57,3.98,1.73,7.61,4.14,10.75,7.13,3.64,3.22,7.25,7.13,11.7,10.41,4.17,3.07,9.04,5.05,14.17,5.76,4.19.61,8.46.44,12.6-.5,2.77-.66,5.44-1.67,7.95-3,.9-.53,1.84-1.01,2.8-1.43Z"/>
  <path class="cls-8" d="M764.47,248.7c-14.43-6.9-27.03-17.12-36.76-29.81-9.74-12.69-16.33-27.51-19.26-43.23-2.93-15.73-2.1-31.92,2.42-47.27,4.52-15.35,12.6-29.41,23.58-41.04,10.98-11.63,24.55-20.51,39.61-25.9,15.06-5.39,31.18-7.15,47.05-5.13,15.87,2.02,31.04,7.75,44.27,16.74,13.23,8.99,24.15,20.98,31.87,34.99,10.4,18.84,14.54,40.5,11.84,61.84-2.71,21.35-12.13,41.28-26.9,56.93-14.77,15.65-34.13,26.2-55.29,30.13-21.16,3.93-43.02,1.04-62.42-8.26ZM849.15,71.6c-20.38-9.73-43.57-11.86-65.38-6-21.81,5.86-40.81,19.31-53.58,37.94-12.76,18.63-18.45,41.21-16.04,63.66,2.41,22.45,12.77,43.31,29.2,58.8,16.43,15.49,37.86,24.61,60.42,25.7,22.56,1.09,44.76-5.91,62.61-19.75,17.85-13.84,30.17-33.59,34.74-55.71,4.57-22.12,1.08-45.14-9.82-64.91-9.55-17.32-24.29-31.22-42.14-39.74Z"/>
  <path class="cls-8" d="M935.89,359.85c-2.85,1.75-6.28,2.31-9.54,1.53-3.26-.77-6.08-2.8-7.84-5.65l-66.42-107.67c-.3-.49-.4-1.08-.27-1.63.13-.56.48-1.04.97-1.35l14.17-8.74c.48-.29,1.06-.39,1.61-.27.55.12,1.04.45,1.35.92l69.86,104.96c.96,1.41,1.62,3.01,1.95,4.69.33,1.68.3,3.41-.06,5.08-.36,1.67-1.06,3.25-2.05,4.65-.99,1.39-2.26,2.57-3.72,3.46Z"/>
  <path class="cls-4" d="M766.92,243.58c-14.44-6.9-27.04-17.11-36.79-29.81-9.74-12.69-16.35-27.51-19.28-43.24-2.93-15.73-2.11-31.93,2.41-47.29,4.52-15.35,12.6-29.42,23.58-41.06,10.98-11.64,24.56-20.51,39.63-25.91,15.07-5.39,31.19-7.15,47.07-5.13,15.88,2.02,31.05,7.76,44.28,16.76,13.23,9,24.16,20.99,31.87,35.01,10.39,18.84,14.53,40.5,11.82,61.84-2.71,21.35-12.13,41.28-26.9,56.93-14.77,15.65-34.13,26.2-55.28,30.13-21.15,3.94-43.01,1.05-62.42-8.24ZM851.59,66.48c-20.38-9.73-43.57-11.86-65.38-6-21.81,5.86-40.81,19.31-53.58,37.94-12.76,18.63-18.45,41.21-16.04,63.66,2.41,22.45,12.77,43.31,29.2,58.8,16.43,15.49,37.86,24.61,60.41,25.7,22.56,1.09,44.76-5.91,62.61-19.75,17.85-13.84,30.17-33.59,34.74-55.71,4.57-22.12,1.08-45.14-9.82-64.91-9.55-17.32-24.29-31.22-42.14-39.74Z"/>
  <path class="cls-4" d="M853.39,240.96l17.81-10.98,70.63,114.49c1.38,2.24,1.82,4.94,1.21,7.51-.61,2.56-2.21,4.78-4.45,6.16l-1.03.64c-2.24,1.38-4.94,1.82-7.51,1.21-2.56-.61-4.78-2.21-6.16-4.45l-70.63-114.49.13-.08Z"/>
  <path class="cls-3" d="M734.89,127.83c.09-1.06.28-2.11.56-3.14.24-1.22.55-2.43.93-3.62.45-1.6.98-3.17,1.59-4.71l1.01-2.68c.38-.93.87-1.85,1.33-2.84.89-1.99,2.11-3.97,3.32-6.06,2.82-4.47,6.08-8.65,9.74-12.48,3.72-3.75,7.81-7.12,12.2-10.05,1.93-1.26,3.92-2.42,5.96-3.48.95-.5,1.87-1.01,2.78-1.43l2.66-1.13c1.52-.65,3.07-1.22,4.65-1.71,1.18-.42,2.38-.77,3.6-1.03,1.02-.29,2.07-.51,3.12-.66-.98.41-1.99.75-3.02,1.01-1.19.33-2.37.73-3.52,1.19-1.55.53-3.07,1.14-4.55,1.83l-2.6,1.17c-.91.42-1.81.95-2.74,1.45-1.99.97-3.82,2.25-5.86,3.52-4.28,2.92-8.28,6.25-11.92,9.93-3.61,3.77-6.85,7.87-9.68,12.26-1.21,1.99-2.44,3.97-3.36,5.96-.46.95-.97,1.85-1.37,2.76l-1.11,2.64c-.75,1.65-1.21,3.24-1.71,4.61-.43,1.16-.78,2.35-1.07,3.56-.23,1.06-.54,2.11-.93,3.12Z"/>
</svg>
