<?xml version="1.0" encoding="utf-8"?>
<!-- Generator: Adobe Illustrator 28.3.0, SVG Export Plug-In . SVG Version: 6.00 Build 0)  -->
<svg version="1.1" id="Layer_1" xmlns="http://www.w3.org/2000/svg" xmlns:xlink="http://www.w3.org/1999/xlink" x="0px" y="0px"
	 viewBox="0 0 2000 2000" style="enable-background:new 0 0 2000 2000;" xml:space="preserve">
<style type="text/css">
	.st0{fill:#F5F5F5;}
	.st1{fill:#EBEBEB;}
	.st2{fill:#E0E0E0;}
	.st3{fill:#263238;}
	.st4{fill:#FFBE9D;}
	.st5{fill:#EB996E;}
	.st6{fill:#455A64;}
	.st7{fill:#FFFFFF;}
	.st8{opacity:0.6;}
	.st9{fill:#0099FF;}
	.st10{opacity:0.3;}
	.st11{fill:#E2323D;}
	.st12{fill:#FAFAFA;}
	.st13{font-family:'MyriadPro-Regular';}
	.st14{font-size:104.7626px;}
	.st15{fill:#C78976;}
	.st16{fill:#8B5D54;}
	.st17{opacity:0.4;}
	.st18{font-size:58.7904px;}
	.st19{font-size:50.5562px;}
</style>
<g>
	<path class="st0" d="M691.47,460.2c2.05-14.65-18.66-26.72-34.26-27.99c-7.41-0.61-15.1,0.53-22.14-1.92
		c-15.23-5.28-21.33-24.97-36.18-31.23c-11.13-4.71-23.9-0.53-34.67,4.87c-10.77,5.4-21.45,12.28-33.48,13.02
		c-10.48,0.7-21.81-3.19-30.98,1.92c-6.83,3.81-10.4,11.66-16.7,16.37c-6.55,4.03-14.13,6.08-21.81,5.89
		c-7.67-0.19-15.3,1.06-22.51,3.69c-6.96,3.19-12.69,10.52-11.26,18.05L691.47,460.2z"/>
	<path class="st1" d="M1530.82,187.77c2.01-14.69-18.71-26.77-34.26-28c-7.45-0.61-15.14,0.53-22.18-1.92
		c-15.22-5.32-21.32-25.01-36.18-31.27c-11.09-4.67-23.9-0.49-34.67,4.91c-10.77,5.4-21.41,12.28-33.44,13.02
		c-10.48,0.7-21.85-3.19-31.02,1.92c-6.84,3.81-10.4,11.66-16.7,16.37c-6.54,4.05-14.12,6.12-21.82,5.93
		c-7.66-0.19-15.28,1.06-22.47,3.68c-6.96,3.15-12.73,10.52-11.29,18.05L1530.82,187.77z"/>
	<path class="st1" d="M1836.93,386.53c2.5-17.97-22.88-32.74-41.91-34.3c-9.09-0.74-18.54,0.65-27.13-2.33
		c-18.66-6.51-26.11-30.57-44.29-38.27c-13.63-5.73-29.26-0.61-42.48,6.02c-13.22,6.63-26.2,14.98-40.93,15.92
		c-12.85,0.82-26.77-4.09-37.98,2.33c-8.19,4.67-12.73,14.28-20.47,19.97c-7.73,5.69-17.35,6.75-26.72,7.24
		c-9.38,0.49-19.03,0.61-27.55,4.5c-8.51,3.89-15.55,12.89-13.75,22.1L1836.93,386.53z"/>
	<path class="st0" d="M532.21,251.17c2.95-21.45-27.34-39.13-50.1-40.93c-10.85-0.86-22.14,0.82-32.42-2.78
		c-22.27-7.78-31.19-36.55-52.92-45.72c-16.37-6.84-34.95-0.74-50.71,7.16s-31.31,18.05-48.99,18.99
		c-15.31,0.98-31.97-4.67-45.35,2.78c-9.99,5.61-15.19,17.11-24.56,23.86s-20.75,8.19-31.93,8.68c-11.17,0.49-22.72,0.7-32.74,5.36
		c-10.03,4.67-18.58,15.43-16.37,26.4L532.21,251.17z"/>
	<path class="st2" d="M859.32,1863.77h-15.8v-597.57c0-33.4,21.94-60.54,48.83-60.54h888.87c26.93,0,48.83,27.14,48.83,60.54v596.06
		h-15.8v-595.98c0-24.56-14.81-44.78-33.03-44.78H892.35c-18.21,0-33.03,20.1-33.03,44.78V1863.77z"/>
	<path class="st2" d="M948.1,1213.6h-15.76v407.41h15.76V1213.6z"/>
	<path class="st2" d="M1079.61,1213.6h-15.76v407.41h15.76V1213.6z"/>
	<path class="st2" d="M1211.16,1213.6h-15.76v407.41h15.76V1213.6z"/>
	<path class="st2" d="M1342.71,1213.6h-15.76v407.41h15.76V1213.6z"/>
	<path class="st2" d="M1474.26,1213.6h-15.76v407.41h15.76V1213.6z"/>
	<path class="st2" d="M1605.8,1213.6h-15.76v407.41h15.76V1213.6z"/>
	<path class="st2" d="M1737.35,1213.6h-15.76v407.41h15.76V1213.6z"/>
	<path class="st2" d="M1469.06,1213.64h-263.1v138.02h263.1V1213.64z"/>
	<path class="st2" d="M1822.2,1612.25H852.82v15.76h969.38V1612.25z"/>
	<path class="st2" d="M949.78,1854.35H753.07v15.76h196.71V1854.35z"/>
	<path class="st2" d="M1920.51,1854.35H1723.8v15.76h196.71V1854.35z"/>
	<path class="st2" d="M196.67,1860.58h-15.76V1263c0-33.36,21.9-60.53,48.83-60.53h888.83c26.93,0,48.87,27.18,48.87,60.53v596.06
		h-15.8v-595.98c0-24.56-14.81-44.74-33.07-44.74H229.74c-18.21,0-33.07,20.05-33.07,44.74V1860.58z"/>
	<path class="st2" d="M285.45,1210.45h-15.76v407.41h15.76V1210.45z"/>
	<path class="st2" d="M417,1210.45h-15.76v407.41H417V1210.45z"/>
	<path class="st2" d="M548.54,1210.45h-15.76v407.41h15.76V1210.45z"/>
	<path class="st2" d="M680.09,1210.45h-15.76v407.41h15.76V1210.45z"/>
	<path class="st2" d="M811.64,1210.45h-15.76v407.41h15.76V1210.45z"/>
	<path class="st2" d="M943.15,1210.45h-15.76v407.41h15.76V1210.45z"/>
	<path class="st2" d="M1074.7,1210.45h-15.76v407.41h15.76V1210.45z"/>
	<path class="st2" d="M806.4,1210.45H543.3v138.01h263.1V1210.45z"/>
	<path class="st2" d="M1159.55,1609.06H190.16v15.76h969.38V1609.06z"/>
	<path class="st2" d="M287.12,1851.16H90.42v15.76h196.71V1851.16z"/>
	<path class="st2" d="M1257.9,1851.16h-196.71v15.76h196.71V1851.16z"/>
	<path class="st3" d="M1859.77,1869.17c0,0.58-380.89,1.02-850.6,1.02s-850.73-0.53-850.73-1.02c0-0.49,380.65-1.02,850.73-1.02
		C1479.25,1868.15,1859.77,1868.52,1859.77,1869.17z"/>
	<path class="st4" d="M1589.1,533.96c-2.78-17.8-12.15-33.9-26.25-45.11c-14.1-11.21-31.91-16.7-49.88-15.38l-3.68,0.29
		c-39.79,5.24-57.59,41.95-51.24,81.57l13.71,140.55l0.66,29.06l94.75,8.6l-2.05-61.4c0,0,37.98-8.76,35.65-47.19
		C1599.83,606.36,1594.55,568.34,1589.1,533.96z"/>
	<path class="st5" d="M1565.61,672.05c-17.84,1.31-35.68-2.52-51.41-11.05c0,0,13.88,26.77,51.94,20.47L1565.61,672.05z"/>
	<path class="st3" d="M1578.18,565.92c0.12,1.42-0.33,2.84-1.24,3.94c-0.91,1.1-2.21,1.8-3.63,1.96c-0.69,0.11-1.4,0.08-2.08-0.09
		c-0.68-0.17-1.32-0.47-1.88-0.89c-0.56-0.42-1.03-0.95-1.38-1.55c-0.35-0.6-0.58-1.27-0.67-1.97c-0.12-1.43,0.32-2.85,1.22-3.96
		c0.91-1.11,2.22-1.82,3.65-1.97c0.7-0.11,1.41-0.08,2.09,0.09c0.68,0.17,1.33,0.48,1.89,0.9c0.56,0.42,1.03,0.96,1.38,1.57
		C1577.86,564.55,1578.09,565.22,1578.18,565.92z"/>
	<path class="st3" d="M1582.27,553.36c-0.66,0.78-5.03-2-10.93-1.55c-5.89,0.45-9.98,3.68-10.68,3.03c-0.7-0.66,0.25-1.64,2.05-3.15
		c2.41-1.96,5.37-3.11,8.47-3.32c3.07-0.24,6.14,0.5,8.76,2.13C1581.82,551.76,1582.51,552.99,1582.27,553.36z"/>
	<path class="st3" d="M1522.39,569.65c0.12,1.42-0.33,2.84-1.24,3.94c-0.91,1.1-2.21,1.8-3.63,1.96c-0.69,0.11-1.4,0.07-2.08-0.1
		c-0.68-0.17-1.32-0.48-1.88-0.9c-0.56-0.42-1.03-0.95-1.38-1.56c-0.35-0.61-0.58-1.28-0.67-1.97c-0.12-1.42,0.33-2.84,1.24-3.94
		c0.91-1.1,2.21-1.8,3.63-1.96c0.7-0.12,1.41-0.09,2.09,0.08c0.68,0.17,1.33,0.47,1.89,0.9c0.56,0.42,1.03,0.96,1.38,1.57
		C1522.09,568.27,1522.31,568.95,1522.39,569.65z"/>
	<path class="st3" d="M1524.27,558.68c-0.61,0.78-4.99-2.01-10.89-1.56c-5.9,0.45-10.03,3.73-10.72,3.03
		c-0.7-0.7,0.29-1.64,2.05-3.15c2.42-1.96,5.4-3.12,8.51-3.31c3.07-0.22,6.13,0.52,8.76,2.13
		C1523.9,557.08,1524.6,558.35,1524.27,558.68z"/>
	<path class="st3" d="M1548.91,600.88c3.03-1.2,6.21-2.01,9.45-2.42c1.47-0.29,2.87-0.66,3.07-1.72c0.01-1.56-0.46-3.09-1.35-4.38
		l-5.28-11.18c-7.37-15.88-12.85-28.98-12.28-29.26c0.58-0.29,7.16,12.28,14.53,28.24l5.12,11.22c1.08,1.75,1.5,3.82,1.18,5.85
		c-0.17,0.54-0.47,1.04-0.87,1.45c-0.4,0.41-0.88,0.73-1.42,0.92c-0.82,0.28-1.67,0.48-2.53,0.57
		C1555.37,600.81,1552.13,601.05,1548.91,600.88z"/>
	<path class="st3" d="M1524.97,548.04c-0.98,1.43-6.51-0.77-13.43-1.68c-6.92-0.9-12.85-0.45-13.38-2.05
		c-0.24-0.78,1.06-2.01,3.64-2.95c3.39-1.16,7.02-1.48,10.56-0.94c3.54,0.46,6.92,1.75,9.86,3.77
		C1524.35,545.83,1525.25,547.34,1524.97,548.04z"/>
	<path class="st3" d="M1578.87,532.85c-0.37,1.68-4.66,2.05-9.17,4.09c-4.5,2.05-7.94,4.5-9.37,3.6c-0.66-0.45-0.62-1.93,0.53-3.85
		c1.6-2.38,3.88-4.23,6.54-5.32c2.66-1.09,5.58-1.36,8.39-0.78C1578.18,531.05,1579.03,532.07,1578.87,532.85z"/>
	<path class="st4" d="M1466.97,592.16c-0.15-1.41-0.58-2.77-1.27-4.01c-0.69-1.23-1.63-2.32-2.74-3.18
		c-1.12-0.86-2.4-1.49-3.78-1.85c-1.37-0.35-2.8-0.43-4.2-0.21c-7.12,1.23-14.77,5.85-13.26,20.46
		c2.78,26.2,28.65,18.01,28.45,17.27C1469.96,619.91,1468.2,603.09,1466.97,592.16z"/>
	<path class="st5" d="M1463.57,611.56c0,0-0.41,0.37-1.15,0.78c-1.04,0.6-2.28,0.76-3.44,0.45c-1.8-0.9-3.33-2.26-4.43-3.94
		c-1.1-1.68-1.73-3.63-1.84-5.64c-0.32-2.24-0.12-4.52,0.58-6.67c0.17-0.84,0.53-1.64,1.06-2.31c0.54-0.68,1.22-1.22,2-1.58
		c0.51-0.18,1.07-0.19,1.59-0.01c0.51,0.18,0.95,0.53,1.24,0.99c0.45,0.7,0.33,1.23,0.45,1.27c0.12,0.04,0.53-0.49,0.2-1.56
		c-0.21-0.64-0.63-1.19-1.19-1.55c-0.8-0.44-1.73-0.57-2.62-0.37c-1.05,0.32-2.01,0.91-2.77,1.7c-0.76,0.8-1.3,1.77-1.57,2.84
		c-0.87,2.39-1.15,4.96-0.82,7.49c0.12,2.34,0.93,4.6,2.33,6.48c1.4,1.89,3.32,3.32,5.53,4.12c0.72,0.13,1.47,0.09,2.18-0.11
		c0.71-0.2,1.36-0.55,1.92-1.04C1463.57,612.17,1463.57,611.6,1463.57,611.56z"/>
	<path class="st5" d="M1552.55,612.63c-4.44-1.77-8.99-3.24-13.63-4.38c-0.91-0.32-1.88-0.42-2.82-0.29
		c-0.66,0.24-1.26,0.62-1.77,1.11c-0.51,0.49-0.91,1.07-1.18,1.72c-0.91,1.71-1.45,3.6-1.58,5.53c-0.13,1.93,0.16,3.87,0.84,5.69
		c0.71,1.8,1.86,3.4,3.35,4.65c1.49,1.25,3.26,2.1,5.17,2.48c1.9,0.35,3.86,0.15,5.65-0.58c1.79-0.72,3.34-1.94,4.46-3.52
		C1552.94,621.18,1553.47,616.81,1552.55,612.63z"/>
	<path class="st3" d="M1548.75,628.26c-1.05,0.91-2.29,1.56-3.63,1.91s-2.74,0.4-4.1,0.14c-3.1-0.29-6-1.67-8.18-3.89
		c-1.29-1.38-2.28-3.02-2.92-4.8c-0.63-1.78-0.89-3.67-0.77-5.56c0.08-1.99,0.69-3.93,1.76-5.61c0.52-0.88,1.26-1.59,2.16-2.07
		s1.9-0.71,2.92-0.67c1.58,0.26,3.12,0.67,4.62,1.23l3.77,1.27c2.57,0.66,5.03,1.67,7.33,2.99c-2.64-0.16-5.24-0.7-7.74-1.6
		l-3.85-1.02c-1.34-0.43-2.71-0.76-4.1-0.98c-2.62-0.24-4.5,3.32-4.66,6.63c-0.21,3.25,0.88,6.44,3.03,8.88
		c1.79,2.08,4.25,3.45,6.96,3.89C1543.83,629.21,1546.34,628.96,1548.75,628.26z"/>
	<path class="st3" d="M1445.97,565.43c2.17,7.53,1.35,19.97,8.19,18.29c13.3-3.36,10.11,23.94,16.37,21.28
		c6.26-2.66,11.91-10.44,12.28-27.22c0.49-21.33-8.19-36.84,0.33-61.15c2.68-4.88,6.56-8.98,11.29-11.91
		c4.73-2.93,10.13-4.6,15.69-4.83c5.6-0.13,11.14,1.18,16.1,3.8c4.95,2.62,9.15,6.47,12.19,11.18c1.19-7.45,4.83-18.66,11.46-22.27
		c3.32-1.81,7.09-2.61,10.86-2.3c3.77,0.31,7.36,1.72,10.34,4.06c2.86,2.5,4.71,5.95,5.22,9.72c0.5,3.76-0.38,7.58-2.47,10.75
		c1.54,0.46,3.18,0.41,4.69-0.13c1.51-0.55,2.81-1.56,3.7-2.9c0.13,1.75-0.09,3.5-0.66,5.15c-0.57,1.65-1.47,3.18-2.65,4.47
		c2.74-0.72,5.13-2.39,6.75-4.71c-0.66,3.07-1.31,6.14-2.01,9.21c11.26,0.33,22.23-10.56,25.38-20.47
		c4.71-14.65,1.06-29.43-7.12-42.48c-4.02-6.6-9.64-12.09-16.33-15.96c-6.69-3.87-14.25-6-21.98-6.19
		c-15.39,0-28.33,7.45-34.26,21.7c-9.99-7.08-30.25-9.54-41.42-4.46c-5.58,2.62-10.39,6.63-13.97,11.65
		c-3.59,5.02-5.82,10.87-6.49,17c-3.58-1.27-7.45-1.57-11.18-0.85c-3.73,0.72-7.21,2.42-10.06,4.94l-1.43,1.23
		c-3.93,3.73-6.84,8.4-8.46,13.58c-1.63,5.17-1.91,10.66-0.83,15.97c0.82,4.3,2.29,8.72,3.15,12.28
		C1441.22,543.9,1445.97,565.43,1445.97,565.43z"/>
	<path class="st6" d="M1583.99,511.08l0.9-0.74c0.82-0.72,1.56-1.53,2.21-2.41c2.44-3.24,3.96-7.09,4.38-11.14
		c0.39-3.02,0.12-6.08-0.79-8.98c-0.9-2.9-2.42-5.58-4.45-7.84c-2.47-2.79-5.58-4.94-9.07-6.26c-3.49-1.32-7.25-1.77-10.94-1.31
		c-3.81,0.55-7.45,1.95-10.64,4.09c-2.96,1.97-5.59,4.39-7.82,7.16c-3.85,4.64-6.64,10.06-8.18,15.88
		c-1.04,3.9-1.48,7.93-1.31,11.95c0.03,1.08,0.14,2.17,0.33,3.23c0.01,0.39,0.08,0.77,0.21,1.14c-0.36-5.42,0.17-10.87,1.55-16.13
		c1.63-5.66,4.41-10.91,8.19-15.43c4.42-5.66,10.75-9.52,17.8-10.85c3.52-0.42,7.09,0,10.4,1.24c3.32,1.24,6.29,3.26,8.67,5.88
		c1.95,2.15,3.42,4.69,4.32,7.45c0.9,2.76,1.2,5.67,0.88,8.56c-0.38,3.96-1.79,7.76-4.09,11.01
		C1585.13,509.97,1583.9,510.96,1583.99,511.08z"/>
	<path class="st6" d="M1589.14,522.78c0.29-0.4,0.55-0.83,0.78-1.27c0.49-0.86,1.19-2.13,2.05-3.77c2.53-4.67,4.6-9.58,6.18-14.65
		c1.05-3.54,1.63-7.2,1.72-10.89c0.1-4.21-0.68-8.39-2.29-12.28c-1.86-4.39-4.98-8.12-8.96-10.73c-4.27-2.79-9.19-4.41-14.29-4.7
		c-5.05-0.29-10.1,0.52-14.81,2.37c-4.43,1.65-8.58,3.98-12.28,6.92c-6.45,4.75-11.11,11.52-13.26,19.24
		c-1.38,5.2-1.12,10.71,0.74,15.76c0.54,1.34,1.19,2.63,1.96,3.85c0.28,0.44,0.59,0.85,0.94,1.23c-0.96-1.68-1.78-3.43-2.46-5.24
		c-1.65-4.98-1.8-10.33-0.41-15.39c2.25-7.46,6.86-14,13.14-18.62c7.39-6.03,16.7-9.21,26.24-8.96c4.88,0.31,9.6,1.86,13.71,4.5
		c3.83,2.47,6.83,6.01,8.64,10.19c1.61,3.8,2.4,7.9,2.33,12.03c-0.07,3.61-0.59,7.2-1.55,10.68c-1.5,5.04-3.45,9.95-5.81,14.65
		c-0.74,1.6-1.35,2.86-1.84,3.85C1589.41,521.95,1589.26,522.36,1589.14,522.78z"/>
	<path class="st6" d="M1455.39,548.45c0,0-2.42-1.97-5.61-5.73c-4.2-4.91-7.09-10.8-8.4-17.13c-1.31-6.33-1-12.88,0.91-19.06
		c1.39-4.75,3.03-7.41,2.82-7.49c-0.48,0.54-0.88,1.15-1.19,1.8c-0.98,1.73-1.79,3.55-2.42,5.44c-2.13,6.26-2.53,12.99-1.19,19.46
		c1.35,6.48,4.4,12.48,8.85,17.38c1.34,1.48,2.81,2.85,4.38,4.09C1454.53,548.12,1455.39,548.53,1455.39,548.45z"/>
	<path class="st6" d="M1479.13,547.71c0,0-1.31-0.57-3.4-2.01c-2.93-2.05-5.23-4.89-6.63-8.19l-1.1-2.5l0.25,2.74
		c0.37,3.68,0.74,7.94,1.15,12.57l0.86-0.53c-3.32-2.2-6.23-4.97-8.6-8.18c-2.94-4.11-4.93-8.83-5.85-13.79
		c-0.71-4.06-0.71-8.22,0-12.28c0.81-3.75,2.06-7.39,3.73-10.85c-0.21,0.19-0.39,0.41-0.53,0.66c-0.29,0.45-0.66,1.1-1.15,2
		c-1.32,2.59-2.29,5.34-2.86,8.19c-0.86,4.18-0.97,8.47-0.33,12.69c0.87,5.17,2.92,10.07,5.98,14.33c2.44,3.38,5.46,6.3,8.92,8.63
		l0.98,0.66v-1.18c-0.49-4.58-0.94-8.84-1.35-12.53h-0.86c1.52,3.38,4.02,6.22,7.16,8.18c0.83,0.54,1.72,0.98,2.66,1.31
		C1478.76,547.67,1479.08,547.75,1479.13,547.71z"/>
	<path class="st6" d="M1486.41,492.45c1.5-2.9,3.56-5.47,6.06-7.57c2.77-2.18,6-3.68,9.46-4.38c4.23-0.81,8.6-0.41,12.61,1.14
		c4.05,1.5,7.69,3.94,10.6,7.12c2.36,2.64,4.28,5.64,5.69,8.88c1.19,3.05,2.14,6.18,2.86,9.37c0.03-0.89-0.04-1.79-0.21-2.66
		c-0.37-2.41-1.01-4.77-1.92-7.04c-1.33-3.39-3.24-6.52-5.65-9.25c-2.98-3.38-6.75-5.97-10.97-7.53c-4.22-1.6-8.8-1.99-13.22-1.1
		c-3.61,0.78-6.97,2.44-9.78,4.83c-1.87,1.59-3.43,3.52-4.58,5.69c-0.3,0.59-0.56,1.21-0.77,1.84
		C1486.41,492.21,1486.37,492.45,1486.41,492.45z"/>
	<path class="st6" d="M1492.55,472.44c2.29-1.19,4.71-2.13,7.2-2.78c6.13-1.32,12.53-0.42,18.05,2.54
		c5.42,3.11,9.84,7.72,12.73,13.26c2.29,4.1,3.03,7.16,3.23,7.12c-0.04-0.71-0.18-1.42-0.41-2.09c-0.54-1.85-1.24-3.66-2.09-5.4
		c-2.78-5.86-7.29-10.72-12.93-13.92c-5.73-3.11-12.43-3.94-18.75-2.34c-1.89,0.49-3.7,1.26-5.36,2.29
		C1493.6,471.47,1493.03,471.91,1492.55,472.44z"/>
	<path class="st6" d="M1584.52,1753.5l-2.74,74.74c0,0,74.82,27.83,75.64,41.63h-144.69l-0.49-116.28L1584.52,1753.5z"/>
	<path class="st2" d="M1537.24,1821.74c-1.39,0.42-2.59,1.34-3.34,2.59c-0.76,1.25-1.02,2.73-0.75,4.16
		c0.37,1.41,1.26,2.61,2.49,3.38c1.23,0.76,2.72,1.02,4.14,0.72c1.48-0.44,2.74-1.42,3.54-2.74c0.8-1.33,1.06-2.9,0.76-4.42
		c-0.54-1.43-1.6-2.59-2.98-3.24c-1.37-0.66-2.95-0.75-4.39-0.28"/>
	<path class="st3" d="M1512.69,1869.54l0.41-11.71l138.59,4.5c0,0,6.43,2.78,5.69,7.33L1512.69,1869.54z"/>
	<path class="st7" d="M1584.11,1827.3c0,0.7-3.56,1.02-7.04,3.27c-3.48,2.25-5.32,5.24-5.98,4.99c-0.66-0.25,0.41-4.38,4.66-7.04
		C1580.02,1825.87,1584.27,1826.65,1584.11,1827.3z"/>
	<path class="st7" d="M1599.29,1833.6c0,0.66-2.9,1.88-5.32,4.87s-3.11,6.14-3.81,6.1c-0.7-0.04-1.15-4.09,1.92-7.7
		C1595.16,1833.28,1599.25,1832.91,1599.29,1833.6z"/>
	<path class="st7" d="M1607.89,1851.77c-0.66,0-1.64-3.4,0.2-7.24c1.84-3.85,5.12-5.44,5.4-4.83c0.29,0.62-1.76,2.66-3.19,5.85
		C1608.87,1848.75,1608.59,1851.69,1607.89,1851.77z"/>
	<path class="st7" d="M1582.84,1810.23c-0.29,0.65-3.52-0.33-7.53,0c-4.01,0.33-7.08,1.51-7.45,0.9c-0.37-0.61,2.62-3.11,7.33-3.36
		C1579.9,1807.53,1583.21,1809.7,1582.84,1810.23z"/>
	<path class="st6" d="M1413.68,1754.57l-5.77,90.04l15.96,72.53c0.28,1.23,0.3,2.52,0.06,3.76c-0.24,1.25-0.74,2.43-1.45,3.47
		c-0.72,1.05-1.65,1.93-2.72,2.6c-1.08,0.67-2.28,1.11-3.54,1.29c-1.48,0.25-3,0.14-4.43-0.33c-1.43-0.47-2.72-1.29-3.76-2.37
		c-13.18-13.75-61.4-64.63-60.78-71.18c0.94-7.62-0.21-95.37-0.21-95.37L1413.68,1754.57z"/>
	<path class="st3" d="M1416.21,1928.36l-68.55-79.98v3.85c-0.16,3.29,0.87,6.53,2.9,9.13c5.44,6.96,20.92,25.87,57.51,64.3
		c1.05,1.08,2.34,1.89,3.76,2.36c1.42,0.47,2.94,0.59,4.43,0.34H1416.21z"/>
	<g class="st8">
		<path class="st7" d="M1367.35,1820.06c1.08,0.86,1.81,2.08,2.04,3.44c0.23,1.36-0.04,2.76-0.77,3.93
			c-0.82,1.11-2.03,1.86-3.39,2.09c-1.36,0.24-2.75-0.06-3.9-0.82c-1.14-0.91-1.9-2.21-2.14-3.64c-0.24-1.44,0.08-2.91,0.87-4.14
			c0.97-1.07,2.32-1.72,3.77-1.81c1.44-0.09,2.87,0.38,3.97,1.32"/>
	</g>
	<path class="st7" d="M1397.22,1888.12c0.53,0.29,2.74-4.38,8.19-6.67c3.34-1.2,6.89-1.72,10.44-1.56c0-0.24-1.02-0.98-3.11-1.35
		c-2.78-0.46-5.63-0.08-8.19,1.1c-2.57,1.11-4.76,2.94-6.3,5.28C1397.22,1886.73,1397.02,1888.04,1397.22,1888.12z"/>
	<path class="st7" d="M1403.16,1900.48c2.65-1.35,5.39-2.54,8.18-3.56c2.93-0.43,5.88-0.69,8.84-0.78c-1.35-0.92-2.9-1.51-4.53-1.71
		c-1.63-0.2-3.27-0.01-4.81,0.56C1405.45,1896.35,1402.71,1900.19,1403.16,1900.48z"/>
	<path class="st7" d="M1385.81,1872.16c3.93-2.4,8.03-4.51,12.28-6.3c4.44-1.19,8.95-2.05,13.51-2.58
		c-4.65-1.46-9.67-1.22-14.16,0.7C1392.7,1865.22,1388.58,1868.13,1385.81,1872.16z"/>
	<path class="st7" d="M1385.4,1844.61c0.2,0.53,5.28-1.31,11.74-1.31c6.47,0,11.58,1.8,11.79,1.27c-3.56-2.13-7.63-3.25-11.77-3.25
		s-8.21,1.12-11.77,3.25V1844.61z"/>
	<path class="st7" d="M1386.42,1818.17c4-1.12,8.13-1.68,12.28-1.68c4.03,0.64,7.96,1.84,11.66,3.56c0-0.21-0.78-1.39-2.78-2.66
		c-2.7-1.61-5.74-2.58-8.88-2.82c-3.14-0.26-6.3,0.25-9.21,1.47C1387.4,1816.94,1386.3,1817.97,1386.42,1818.17z"/>
	<path class="st7" d="M1398.66,1811.46c0.34-1.1,0.44-2.26,0.29-3.4c-0.18-3.14-0.97-6.21-2.33-9.05c-0.83-2.15-2.34-3.98-4.3-5.2
		c-0.67-0.31-1.42-0.41-2.15-0.29c-0.73,0.12-1.41,0.45-1.95,0.95c-1.05,1.1-1.62,2.57-1.59,4.09c0.07,3.03,1.21,5.95,3.2,8.23
		c2,2.29,4.73,3.81,7.72,4.29c2.97,0.43,6-0.03,8.71-1.33c2.7-1.3,4.96-3.37,6.48-5.96c0.38-0.66,0.61-1.39,0.69-2.14
		c0.08-0.75-0.01-1.52-0.24-2.24c-0.33-0.69-0.86-1.26-1.53-1.64c-0.67-0.37-1.43-0.53-2.19-0.45c-2.24,0.43-4.34,1.42-6.1,2.86
		c-2.52,1.85-4.7,4.14-6.42,6.75c-0.71,0.91-1.22,1.96-1.51,3.07c2.48-3.3,5.43-6.22,8.76-8.68c1.58-1.2,3.42-2,5.36-2.34
		c0.42-0.06,0.84,0.01,1.21,0.21c0.37,0.2,0.66,0.51,0.84,0.9c0.12,0.48,0.14,0.98,0.06,1.48c-0.08,0.49-0.25,0.96-0.51,1.39
		c-1.39,2.18-3.38,3.93-5.73,5.02c-2.35,1.09-4.96,1.5-7.53,1.16c-2.53-0.43-4.85-1.7-6.56-3.61c-1.72-1.91-2.73-4.35-2.89-6.91
		c-0.01-1.04,0.34-2.05,0.98-2.86c0.3-0.31,0.68-0.51,1.1-0.58c0.42-0.07,0.85,0.01,1.23,0.21c1.65,1.02,2.95,2.52,3.73,4.3
		C1397.22,1803.4,1398.3,1807.38,1398.66,1811.46z"/>
	<path class="st3" d="M1643.09,1117.98c7.7,30.75,10.79,62.48,9.17,94.14c-1.06,20.06-65.49,599.46-65.49,599.46l-81.86-7.37
		l14.16-541.71l-3.44,3.07c0,0-48.91,227.78-52.06,263.88c-2.91,32.41-41.87,292.57-41.87,292.57l-79.53-3.77l18.05-328.91
		l24.11-298.58l9.66-86.98L1643.09,1117.98z"/>
	<path class="st6" d="M1503.23,1215.64c1.19,0.86,2.48,1.56,3.85,2.09c3.61,1.73,7.44,2.97,11.38,3.68c2.71,0.46,5.48,0.46,8.19,0
		c3.27-0.62,6.29-2.15,8.72-4.42c2.49-2.66,4.26-5.91,5.12-9.46c0.98-3.56,1.51-7.24,2.17-11.01c2.58-15.1,4.1-28.85,5.16-38.84
		c0.45-4.99,0.74-9.05,0.86-11.83c0.17-1.45,0.17-2.92,0-4.38c-0.45,1.39-0.71,2.84-0.78,4.3c-0.41,3.19-0.9,7.12-1.51,11.75
		c-1.27,9.94-3.11,23.61-5.65,38.68c-1.31,7.41-2.13,14.98-6.67,19.53c-2.11,1.85-4.61,3.22-7.32,3.99
		c-2.7,0.77-5.54,0.93-8.32,0.47c-3.87-0.58-7.66-1.6-11.29-3.03C1505.88,1216.53,1504.57,1216.02,1503.23,1215.64z"/>
	<path class="st6" d="M1529.06,1144.43c0,0-0.62-0.45-1.88-0.49c-1.84,0-3.63,0.62-5.08,1.76c-1.12,0.83-2.02,1.9-2.67,3.14
		c-0.64,1.23-0.98,2.6-1.02,3.99c0.15,1.73,0.8,3.38,1.86,4.75c1.06,1.37,2.51,2.4,4.14,2.97c1.64,0.57,3.41,0.66,5.1,0.25
		c1.69-0.41,3.22-1.3,4.41-2.56c0.85-1.1,1.43-2.38,1.7-3.75c0.27-1.36,0.22-2.77-0.15-4.11c-0.42-1.8-1.43-3.4-2.86-4.54
		c-1.02-0.74-1.76-0.82-1.8-0.74c1.71,1.43,2.89,3.39,3.36,5.57c0.2,1.12,0.16,2.27-0.12,3.38c-0.28,1.1-0.78,2.14-1.48,3.04
		c-0.94,0.99-2.16,1.68-3.5,1.96c-1.34,0.29-2.73,0.16-3.99-0.37c-1.31-0.38-2.48-1.14-3.36-2.19c-0.87-1.05-1.42-2.34-1.55-3.7
		c0-1.14,0.25-2.27,0.74-3.31c0.48-1.04,1.18-1.96,2.05-2.71C1524.69,1145.35,1526.83,1144.53,1529.06,1144.43z"/>
	<path class="st6" d="M1385.4,1185.32c1.01,0.3,2.06,0.44,3.11,0.41c2.85,0.2,5.7,0.2,8.55,0c19.02-1.53,36.93-9.57,50.71-22.76
		c2.07-1.98,4-4.1,5.77-6.34c0.71-0.77,1.3-1.64,1.76-2.58c-0.29-0.25-3.11,3.19-8.47,7.9c-6.96,6.14-14.8,11.2-23.25,15.02
		c-8.47,3.75-17.45,6.25-26.65,7.41C1389.9,1185.11,1385.4,1184.99,1385.4,1185.32z"/>
	<path class="st6" d="M1606.25,1144.34c1.22,3.27,2.89,6.35,4.95,9.17c9.33,14.17,21.97,25.86,36.84,34.05
		c2.98,1.79,6.19,3.17,9.53,4.1c-2.84-1.97-5.79-3.77-8.84-5.4c-7.05-4.38-13.67-9.43-19.77-15.06
		c-6.05-5.66-11.53-11.9-16.38-18.62C1610.64,1149.71,1608.53,1146.96,1606.25,1144.34z"/>
	<path class="st4" d="M1693.84,817.03c12.28,35.52,16.37,36.14,27.34,138.67c2.13,19.93-3.23,50.22-20.87,59.67
		c-17.64,9.46-49.12-0.94-59.55-17.97l-11.79-144.48L1693.84,817.03z"/>
	<path class="st5" d="M1650.33,967.85c0.41,0,2.21-7.2,6.63-15.23c2.88-4.74,5.99-9.33,9.33-13.75c-1.38,0.92-2.6,2.07-3.6,3.4
		c-2.63,2.99-4.92,6.25-6.84,9.74c-1.9,3.5-3.44,7.19-4.58,11.01C1650.73,964.58,1650.41,966.21,1650.33,967.85z"/>
	<path class="st9" d="M1393.99,1009.64l0.49-84.44l-0.33-8.19l-85.7-20.01c0,0,16.82-55.42,32.25-114.97
		c8.92-34.38,38.56-51.69,45.72-55.42l1.56-0.74l83.78-32.13c16.62,17.77,39.54,29.06,62.91,22.23
		c12.68-3.47,24.01-10.73,32.46-20.79l57.02,16.74c16.08,5.53,29.69,16.56,38.43,31.15c11.62,20.46,48.79,114.93,49.44,117.02
		l-68.89,6.3c0,0,12.28,223.27,7.9,263.18c0,0-16.74,11.54-58.9,13.55c-85.54,4.09-212.84-2.05-212.84-2.05
		c2.01-12.9,4.1-34.42,5.28-45.31L1393.99,1009.64z"/>
	<path class="st3" d="M1640.8,783.14c-0.37,0,1.47,53.21,4.09,118.9c2.62,65.69,4.99,118.7,5.32,118.7c0.33,0-1.47-53.21-4.1-118.9
		C1643.5,836.14,1641.12,783.1,1640.8,783.14z"/>
	<path class="st3" d="M1403.24,798c0.61,0-1.11,47.28-3.85,105.52c-2.74,58.24-5.48,105.47-6.1,105.43
		c-0.62-0.04,1.14-47.27,3.89-105.52C1399.93,845.19,1402.63,798,1403.24,798z"/>
	<g class="st10">
		<path d="M1499.06,854.11c-4.42-3.27-10.68-0.41-15.06,2.95c-47.68,36.06-46.95,112.31-92.26,151.44l2.09,4.66
			c15.22,1.88,30.33-6.18,40.52-17.68c10.19-11.5,16.17-25.95,21.53-40.32c5.36-14.37,10.27-29.1,18.74-41.87
			c10.48-15.8,26.77-29.63,28-48.54c0.34-1.93,0.2-3.91-0.43-5.78C1501.57,857.12,1500.49,855.45,1499.06,854.11z"/>
	</g>
	<path class="st4" d="M1308.04,937.07c2.78-20.96,5.11-39.5,5.11-39.5l68.56,15.92l-2.94,11.01l52.96-53.78l8.39,0.74l26.65,27.71
		c0,0-23.21,49.12-36.84,68.19c-17.56,24.89-45.23,62.79-83.09,59.6C1311.76,1024.01,1302.88,974.65,1308.04,937.07z"/>
	<path class="st5" d="M1344.88,949.6c4.16-5.45,9.25-10.13,15.02-13.83c5.37-4.29,11.44-7.64,17.93-9.91
		c0.29,0.58-7.57,5.16-16.62,11.71C1352.16,944.11,1345.45,950.05,1344.88,949.6z"/>
	<path class="st4" d="M1524.03,800.49l-23.62-11.87l-30.53,9.7l-15.14,13.96l-23.25,58.57l-18.62,23.57l32.74,42.85l20.79-37.98
		c0,0,17.68-7.7,24.56-18.87c6.88-11.18,10.27-17.19,10.27-17.19s10.19-4.87,12.07-9.58c1.09-2.6,1.7-5.37,1.8-8.19l-4.79-7.74
		c0.32-3.29-0.21-6.6-1.55-9.62c-1.03-1.44-2.45-2.57-4.1-3.23c0,0,1.52-6.34-0.9-8.64c-4.45-2.65-9.17-4.82-14.08-6.47l10.27-5.81
		C1499.96,803.97,1522.76,810.93,1524.03,800.49z"/>
	<path class="st5" d="M1489.07,821.78c0,0.29,3.64,0.41,7.94,1.31c4.3,0.9,7.65,2.29,7.77,2.01c-2.26-1.56-4.85-2.59-7.57-2.99
		C1494.56,821.39,1491.78,821.28,1489.07,821.78z"/>
	<path class="st5" d="M1496.32,834.91c2.25,0.42,4.52,0.7,6.79,0.86c3.72,0.57,6.67,1.47,6.75,1.23c-1.98-1.27-4.24-2.03-6.59-2.21
		C1500.98,834.3,1498.59,834.34,1496.32,834.91z"/>
	<path class="st5" d="M1506.1,855.5c0.29,0,0.49-1.35,0.45-2.99c-0.04-1.64-0.29-2.99-0.57-2.99c-0.29,0-0.45,1.35-0.41,3.03
		C1505.61,854.23,1505.85,855.54,1506.1,855.5z"/>
	<path class="st5" d="M1501.6,861.89c0.34-1.94,1.08-3.8,2.17-5.45c1.32-1.46,2.94-2.62,4.75-3.4c0,0-0.74-0.2-1.84,0
		c-1.46,0.48-2.74,1.4-3.68,2.62c-0.92,1.18-1.51,2.6-1.68,4.09C1501.23,861.19,1501.47,861.89,1501.6,861.89z"/>
	<path class="st5" d="M1483.18,843.1c0.29,0,1.27-2.5,4.09-4.09c1.75-0.8,3.64-1.26,5.57-1.35c0,0-0.62-0.45-1.76-0.53
		c-1.5-0.06-2.99,0.3-4.3,1.02c-1.31,0.73-2.4,1.8-3.15,3.11C1483.14,842.32,1483.1,843.06,1483.18,843.1z"/>
	<path class="st5" d="M1472.45,830.08c0.29,0,1.23-2.33,3.77-4.09c1.61-0.86,3.35-1.46,5.16-1.76c0,0-0.61-0.37-1.68-0.37
		c-1.45,0.05-2.86,0.49-4.09,1.27c-1.18,0.77-2.15,1.83-2.82,3.07C1472.46,828.77,1472.34,829.44,1472.45,830.08z"/>
	<path class="st5" d="M1465.29,823.7c0,0,0-0.82,0.25-2.05c0.24-1.48,0.83-2.89,1.72-4.09c0.95-1.26,2.21-2.26,3.64-2.9
		c1.1-0.49,1.88-0.66,1.84-0.82c-0.04-0.17-0.82-0.21-2.09,0c-1.63,0.54-3.06,1.57-4.09,2.94c-1.04,1.41-1.6,3.12-1.6,4.87
		C1464.84,822.92,1465.17,823.7,1465.29,823.7z"/>
	<path class="st5" d="M1475.24,808.35c0,0.37,4.95,0.45,10.89,1.35c5.94,0.9,10.44,2.99,10.56,2.7c-3.14-2-6.7-3.26-10.39-3.68
		c-2.59-0.4-5.2-0.59-7.82-0.58C1477.39,808.06,1476.3,808.13,1475.24,808.35z"/>
	<path class="st11" d="M1750.54,677.25l-41.05-5.56l-60.11,443.97l41.05,5.56L1750.54,677.25z"/>
	<path class="st4" d="M1753.48,855.17c1.54-1.53,2.51-3.54,2.76-5.69c0.25-2.15-0.23-4.33-1.37-6.18c-1.18-1.83-2.75-3.37-4.6-4.52
		c-1.85-1.14-3.93-1.87-6.09-2.11c-4.31-0.45-8.67-0.03-12.81,1.23c-5.17,1.36-10.2,3.19-15.02,5.49c-1.78,0.63-3.4,1.62-4.78,2.91
		c-1.38,1.29-2.47,2.85-3.2,4.58c-1.06,3.64,2.49,8.19,5.98,6.79c-2.4,0.71-4.59,1.98-6.41,3.7c-1.81,1.72-3.19,3.85-4.03,6.2
		c-1.19,4.62,1.02,7.41,5.4,9.25c-1.8,0.48-3.33,1.65-4.28,3.24c-0.95,1.6-1.23,3.5-0.8,5.31c0.88,1.73,2.35,3.1,4.14,3.85
		c1.79,0.75,3.79,0.84,5.64,0.25c3.71-1.3,7.03-3.51,9.66-6.42c-2.86,4.95-4.07,10.69-3.44,16.37c10.4-2.29,21.65-11.99,20.1-22.84
		c2.72-1.64,4.81-4.14,5.95-7.11c1.14-2.97,1.25-6.22,0.32-9.26c2.42-0.75,4.59-2.14,6.28-4.03c1.69-1.89,2.83-4.2,3.3-6.69"/>
	<path class="st5" d="M1719.79,899.87c1.28-0.91,2.65-1.67,4.09-2.29c3.47-1.64,6.69-3.77,9.54-6.34c2.78-2.61,4.78-5.94,5.77-9.62
		c0.7-2.86,0.7-4.75,0.94-4.75c0.37,1.62,0.37,3.29,0,4.91c-0.78,3.99-2.8,7.62-5.77,10.4c-2.95,2.68-6.36,4.81-10.07,6.26
		C1722.89,899.17,1721.36,899.65,1719.79,899.87z"/>
	<path class="st5" d="M1709.4,876.91c1.63-0.83,3.2-1.77,4.71-2.82c3.62-2.4,7.73-3.97,12.03-4.58c2.35-0.25,4.73,0.03,6.96,0.82
		c1.79,0.66,3.41,1.71,4.75,3.07c1.2,1.35,2.17,2.88,2.87,4.54c0.03-0.5-0.05-1.01-0.25-1.47c-0.43-1.32-1.12-2.54-2.01-3.6
		c-1.38-1.54-3.08-2.74-4.99-3.52c-2.36-0.89-4.9-1.2-7.41-0.9c-4.44,0.61-8.67,2.33-12.28,4.99
		C1712.16,874.38,1710.69,875.55,1709.4,876.91z"/>
	<path class="st5" d="M1712.63,857.96c1.9-0.3,3.76-0.83,5.53-1.6c1.64-0.57,3.6-1.27,5.85-1.84c2.44-0.53,4.92-0.87,7.41-1.02
		c2.45-0.21,4.92,0.04,7.29,0.74c1.92,0.58,3.68,1.59,5.16,2.95c1.32,1.32,2.36,2.89,3.07,4.62c0.03-0.53-0.06-1.06-0.25-1.55
		c-0.5-1.34-1.26-2.57-2.25-3.6c-1.5-1.55-3.35-2.72-5.4-3.4c-2.48-0.77-5.1-1.06-7.7-0.86c-2.55,0.15-5.09,0.53-7.57,1.15
		c-2.01,0.57-3.97,1.27-5.89,2.09C1716.07,856.29,1714.32,857.07,1712.63,857.96z"/>
	<path class="st12" d="M1647.39,402.75l-36.29,268.06l268.06,36.29l36.29-268.06L1647.39,402.75z"/>
	<path class="st3" d="M1879.17,707.09v-1.31c0-0.9,0.29-2.13,0.45-3.72c0.45-3.32,1.06-8.19,1.88-14.45
		c1.64-12.65,4.09-31.11,7.12-54.6c6.26-46.9,15.19-113.82,25.87-194.09l0.74,0.98l-267.93-36.02l1.19-0.9
		c-13.34,98.23-25.87,190.16-36.47,268.05l-0.74-0.98l193.97,26.73l54.56,7.61l14.41,2.05l3.72,0.57l1.27,0.21h-1.19l-3.64-0.41
		l-14.29-1.84l-54.4-7.12l-194.78-26.16h-0.9v-0.9c10.52-77.77,22.92-169.9,36.18-268.05v-1.02h1.02l268.01,36.43h0.86v0.9
		c-11.09,80.43-20.46,147.35-26.81,194.54c-3.27,23.37-5.85,41.71-7.61,54.31c-0.86,6.22-1.56,10.97-2.01,14.29
		c-0.25,1.55-0.41,2.74-0.57,3.6C1878.93,706.64,1879.17,707.09,1879.17,707.09z"/>
	<path class="st7" d="M1133.14,622.61c-1.34,0.34-2.71,0.53-4.09,0.57c-1.68,0.2-3.38,0.28-5.07,0.25c-2.01,0-4.3,0-6.8,0
		c-5.88-0.36-11.71-1.24-17.43-2.62c-7.03-1.72-13.88-4.1-20.47-7.08c-6.53-3.06-12.75-6.73-18.58-10.97
		c-4.74-3.49-9.17-7.4-13.22-11.66c-1.61-1.58-3.11-3.26-4.5-5.04c-1.31-1.51-2.33-2.9-3.15-4.09c-0.91-1.14-1.69-2.38-2.34-3.68
		c0.33-0.25,4.1,4.83,11.01,11.75c4.15,4.04,8.59,7.76,13.3,11.13c5.81,4.06,11.94,7.63,18.34,10.68
		c6.45,2.92,13.13,5.29,19.97,7.08c5.62,1.45,11.33,2.45,17.11,2.99C1126.97,622.74,1133.14,622.2,1133.14,622.61z"/>
	<path class="st6" d="M1016,1737.66l1.43,98.76l-21.28,78.42c-0.37,1.34-0.46,2.74-0.26,4.11s0.68,2.69,1.41,3.87
		c0.73,1.18,1.7,2.19,2.84,2.98c1.14,0.79,2.43,1.33,3.8,1.6c1.58,0.32,3.2,0.26,4.75-0.18c1.55-0.44,2.97-1.25,4.13-2.36
		c15.18-14.33,69.29-68.11,69.58-73.39c0.62-8.18,5.9-105.43,5.9-105.43L1016,1737.66z"/>
	<path class="st3" d="M1003.97,1927.37l79.16-83.79v4.09c-0.06,3.61-1.36,7.1-3.69,9.86c-6.3,7.33-24.23,27.14-66.26,67.21
		c-1.2,1.15-2.67,1.98-4.27,2.42c-1.6,0.45-3.28,0.49-4.9,0.12L1003.97,1927.37z"/>
	<g class="st8">
		<path class="st7" d="M1063.12,1811.58c-1.22,0.88-2.07,2.19-2.39,3.66c-0.32,1.47-0.08,3.01,0.67,4.32
			c0.82,1.26,2.1,2.15,3.57,2.48c1.46,0.34,3,0.09,4.29-0.68c1.3-0.93,2.21-2.32,2.54-3.89c0.33-1.57,0.07-3.2-0.74-4.58
			c-1.01-1.21-2.44-1.98-4.01-2.16c-1.56-0.17-3.13,0.26-4.39,1.22"/>
	</g>
	<path class="st7" d="M1026.85,1884.4c-0.58,0.29-2.74-4.91-8.6-7.73c-3.62-1.46-7.48-2.22-11.38-2.25c0-0.25,1.19-1.02,3.52-1.31
		c3.05-0.34,6.12,0.23,8.84,1.64c2.74,1.35,5.03,3.47,6.59,6.1C1026.93,1882.88,1027.09,1884.31,1026.85,1884.4z"/>
	<path class="st7" d="M1019.73,1897.58c-2.82-1.61-5.73-3.04-8.72-4.29c-3.19-0.64-6.41-1.1-9.66-1.35c1.54-0.92,3.26-1.47,5.05-1.6
		c1.79-0.13,3.57,0.17,5.23,0.86C1017.44,1892.91,1020.22,1897.29,1019.73,1897.58z"/>
	<path class="st7" d="M1040.07,1867.58c-4.14-2.85-8.49-5.38-13.01-7.57c-4.78-1.54-9.66-2.72-14.61-3.52
		c5.18-0.98,10.54-0.45,15.43,1.51C1032.77,1859.96,1037,1863.29,1040.07,1867.58z"/>
	<path class="st7" d="M1042,1837.49c-0.29,0.62-5.73-1.72-12.81-2.01c-7.08-0.29-12.73,1.35-12.94,0.74
		c4.01-2.13,8.52-3.13,13.05-2.9C1033.83,1833.54,1038.22,1834.99,1042,1837.49z"/>
	<path class="st7" d="M1042.41,1808.51c-4.29-1.41-8.75-2.24-13.26-2.46c-4.5,0.47-8.92,1.53-13.14,3.15c0-0.21,0.94-1.43,3.23-2.7
		c3.01-1.66,6.38-2.56,9.82-2.62c3.45-0.12,6.88,0.59,9.99,2.09C1041.38,1807.12,1042.57,1808.31,1042.41,1808.51z"/>
	<path class="st7" d="M1029.35,1800.53c-0.26-1.23-0.26-2.5,0-3.73c0.37-3.43,1.41-6.75,3.07-9.78c1.01-2.31,2.75-4.22,4.95-5.44
		c0.77-0.33,1.62-0.42,2.44-0.25c0.82,0.17,1.57,0.58,2.14,1.19c1.05,1.25,1.59,2.84,1.51,4.46c-0.24,3.31-1.64,6.44-3.94,8.84
		c-2.3,2.4-5.37,3.92-8.67,4.3c-3.3,0.33-6.61-0.33-9.53-1.9c-2.92-1.57-5.3-3.97-6.84-6.9c-0.37-0.74-0.58-1.55-0.62-2.37
		c-0.03-0.83,0.1-1.65,0.41-2.42c0.39-0.72,1-1.3,1.72-1.67c0.73-0.37,1.55-0.52,2.37-0.42c2.43,0.54,4.66,1.73,6.47,3.44
		c2.68,2.15,4.96,4.78,6.71,7.74c0.72,1.02,1.22,2.18,1.47,3.4c-2.55-3.73-5.62-7.06-9.13-9.91c-1.63-1.41-3.59-2.4-5.69-2.86
		c-0.45-0.09-0.92-0.03-1.33,0.17c-0.41,0.2-0.75,0.53-0.96,0.93c-0.17,0.52-0.23,1.07-0.18,1.61c0.06,0.54,0.23,1.07,0.5,1.54
		c1.39,2.47,3.47,4.49,5.98,5.81c2.51,1.32,5.35,1.89,8.18,1.64c2.8-0.3,5.4-1.56,7.38-3.56c1.98-2,3.22-4.61,3.5-7.41
		c0.07-1.14-0.27-2.27-0.94-3.19c-0.3-0.33-0.7-0.56-1.14-0.66c-0.44-0.1-0.9-0.07-1.32,0.09c-1.87,1.03-3.37,2.62-4.29,4.54
		C1031.44,1791.73,1030,1796.06,1029.35,1800.53z"/>
	<path class="st6" d="M862.6,1740.98l3.77,81.49c0,0-81.57,31.27-82.35,46.37l158.32-1.68l-0.7-127.25L862.6,1740.98z"/>
	<path class="st2" d="M915.11,1815.1c1.52,0.46,2.82,1.46,3.66,2.81c0.84,1.35,1.15,2.95,0.88,4.52c-0.4,1.54-1.37,2.87-2.72,3.73
		c-1.34,0.85-2.97,1.16-4.53,0.86c-1.61-0.48-2.99-1.54-3.87-2.98c-0.88-1.44-1.19-3.15-0.88-4.8c0.26-0.81,0.68-1.56,1.23-2.21
		c0.55-0.65,1.23-1.18,2-1.56c0.76-0.38,1.59-0.61,2.45-0.66c0.85-0.05,1.7,0.06,2.51,0.34"/>
	<path class="st3" d="M942.33,1867.16v-12.69l-152.1,6.26c0,0-7,3.15-6.18,8.18L942.33,1867.16z"/>
	<path class="st7" d="M863.79,1821.69c0,0.78,4.09,1.1,7.74,3.56c3.64,2.46,5.9,5.65,6.63,5.36c0.74-0.29-0.49-4.79-5.2-7.66
		C868.25,1820.09,863.62,1821,863.79,1821.69z"/>
	<path class="st7" d="M847.29,1828.78c-0.21,0.74,3.19,2.01,5.85,5.24c2.66,3.23,3.44,6.71,4.09,6.67c0.66-0.04,1.19-4.42-2.17-8.39
		C851.71,1828.32,847.29,1828.24,847.29,1828.78z"/>
	<path class="st7" d="M838.04,1848.71c0.7,0,1.76-3.73-0.29-7.94c-2.05-4.22-5.65-5.85-5.98-5.24c-0.33,0.62,1.92,2.91,3.56,6.39
		C836.98,1845.39,837.34,1848.71,838.04,1848.71z"/>
	<path class="st7" d="M865.01,1803.03c0.33,0.7,3.85-0.41,8.19,0c4.34,0.41,7.77,1.55,8.18,0.9c0.41-0.66-2.9-3.4-8.18-3.6
		C867.92,1800.12,864.6,1802.41,865.01,1803.03z"/>
	<path class="st3" d="M907.99,595.39c0,0-14.73,63.36-14.73,107.85v14.81c0,0,38.06,29.55,69.21,30.45l23.98-64.91L907.99,595.39z"
		/>
	<path class="st3" d="M1072.57,621.1c-6.18-26.28-12.49-53.58-34.26-69.58c-19.4-14.2-40.93-17.64-65.04-15.84
		c-12.5,1.64-24.47,6.05-35.04,12.93c-13.87,8.43-19.32,24.85-25.66,39.74c-12.65,29.96-9.66,69.83,0,80.63l125.32,61.07
		c21.45-12.03,35.85-17.81,40.93-41.91C1082.1,671.73,1076.42,637.39,1072.57,621.1z"/>
	<path class="st4" d="M1036.43,575.99l-78.26-20.47c-25.13-2.86-42.04,27.96-43.8,53.21c-1.97,28-3.23,62.21,0,83.13
		c6.38,42.08,38.56,47.65,38.56,47.65s0,0.61,0.25,13.09l-0.25,28.12c10.36,34.09,45.02,29.96,88.04,12.28l8.64-202.03
		c0.06-3.69-1.25-7.27-3.69-10.04C1043.48,578.16,1040.09,576.4,1036.43,575.99z"/>
	<path class="st3" d="M929.97,644.47c-0.02,1.4,0.51,2.76,1.47,3.77c0.96,1.02,2.29,1.62,3.69,1.67c0.68,0.06,1.38-0.01,2.03-0.22
		c0.66-0.21,1.26-0.55,1.79-0.99c0.52-0.45,0.95-0.99,1.26-1.61c0.31-0.61,0.49-1.28,0.54-1.97c0.02-1.41-0.5-2.77-1.47-3.79
		c-0.96-1.02-2.29-1.63-3.69-1.7c-0.69-0.06-1.38,0.01-2.04,0.23c-0.66,0.21-1.26,0.55-1.79,1c-0.52,0.45-0.95,1-1.25,1.62
		C930.19,643.11,930.01,643.78,929.97,644.47z"/>
	<path class="st3" d="M921.7,633.91c0.66,0.7,4.75-2.29,10.56-2.25c5.81,0.04,10.03,2.99,10.64,2.29c0.61-0.7-0.33-1.6-2.17-2.95
		c-2.51-1.75-5.49-2.7-8.55-2.7c-2.94,0.01-5.8,0.94-8.19,2.66C921.99,632.31,921.38,633.58,921.7,633.91z"/>
	<path class="st3" d="M983.54,644.47c-0.02,1.4,0.51,2.76,1.47,3.77s2.29,1.62,3.69,1.67c0.68,0.06,1.37-0.01,2.02-0.22
		c0.65-0.21,1.25-0.55,1.77-0.99c0.52-0.45,0.94-0.99,1.25-1.61c0.3-0.61,0.48-1.28,0.53-1.96c0.03-1.41-0.49-2.77-1.46-3.8
		c-0.96-1.02-2.3-1.63-3.7-1.68c-0.69-0.06-1.38,0.02-2.03,0.23s-1.26,0.55-1.78,1c-0.52,0.45-0.94,1-1.24,1.62
		C983.76,643.11,983.58,643.78,983.54,644.47z"/>
	<path class="st3" d="M978.67,632.72c0.66,0.7,4.79-2.29,10.56-2.21c5.77,0.08,10.03,2.99,10.68,2.25c0.66-0.74-0.37-1.56-2.21-2.95
		c-2.51-1.75-5.5-2.68-8.55-2.66c-3.01-0.05-5.95,0.87-8.39,2.62C978.96,631.13,978.35,632.39,978.67,632.72z"/>
	<path class="st3" d="M957.35,670.99c-3.06-0.96-6.22-1.55-9.42-1.76c-1.47,0-2.86-0.45-3.11-1.47c-0.13-1.53,0.23-3.06,1.02-4.38
		l4.42-11.25c4.12-9.52,7.49-19.34,10.07-29.39c-0.66-0.24-6.22,12.53-12.28,28.65l-4.09,11.3c-0.95,1.78-1.23,3.84-0.82,5.81
		c0.23,0.51,0.56,0.97,0.97,1.35c0.42,0.38,0.91,0.67,1.44,0.85c0.83,0.22,1.68,0.33,2.53,0.33
		C951.17,671.4,954.28,671.39,957.35,670.99z"/>
	<path class="st5" d="M952.89,739.51c19.77,0.46,39.28-4.57,56.36-14.53c0,0-14.12,29.31-56.16,25.09L952.89,739.51z"/>
	<path class="st5" d="M976.51,681.96c-0.85-1.26-2.01-2.3-3.35-3.01c-1.35-0.71-2.85-1.08-4.38-1.08c-1.99-0.38-4.05-0.2-5.94,0.53
		c-1.89,0.72-3.55,1.96-4.78,3.57c-0.74,1.05-1.23,2.25-1.42,3.51c-0.19,1.26-0.08,2.56,0.32,3.77c0.53,2.07,1.77,3.89,3.52,5.12
		c2.54,1.65,5.59,2.34,8.59,1.97c1.51-0.05,2.97-0.51,4.24-1.33c1.27-0.81,2.29-1.96,2.97-3.3c0.93-1.44,1.45-3.11,1.49-4.83
		C977.8,685.15,977.37,683.45,976.51,681.96z"/>
	<path class="st3" d="M976.02,613.36c0.66,1.56,6.42,0.53,13.22,1.06c6.8,0.53,12.28,2.13,13.26,0.66c0.37-0.7-0.66-2.13-2.91-3.56
		c-3.04-1.75-6.45-2.77-9.94-2.99c-3.5-0.25-7,0.32-10.23,1.68C976.96,611.32,975.77,612.63,976.02,613.36z"/>
	<path class="st3" d="M921.05,620.81c0.86,1.51,5.53,0.98,10.81,1.88c5.28,0.9,9.58,2.7,10.85,1.56c0.58-0.58,0-2.01-1.59-3.6
		c-2.34-1.97-5.17-3.28-8.19-3.77c-3.06-0.54-6.21-0.2-9.09,0.98C921.54,618.89,920.68,620.11,921.05,620.81z"/>
	<path class="st3" d="M959.07,551.23c0.02,0.31,0.02,0.63,0,0.94V551.23z"/>
	<path class="st3" d="M1019.97,754.37c0.82-11.05-4.1-21.94-3.03-32.99c0.98-11.71,8.19-21.94,10.93-33.36
		c4.38-18.25-3.07-37.33-6.18-55.95c-10.77-1.42-20.64-6.72-27.79-14.9c-8.21-10.01-14.81-21.24-19.57-33.28
		c0.73,11.77,5.09,23.03,12.49,32.21c-2.35,0.45-4.77,0.34-7.07-0.32c-2.3-0.66-4.41-1.85-6.16-3.48
		c-3.51-3.28-6.29-7.25-8.19-11.66c-4.88-10.48-7.77-21.78-8.51-33.32c-0.96,16.61,1.53,33.24,7.33,48.83
		c-3.05-0.47-6.17-0.25-9.13,0.66c-1.48,0.42-3.05,0.49-4.56,0.22c-1.52-0.28-2.96-0.9-4.2-1.81c-1.34-1.56-2.22-3.45-2.53-5.49
		c-3.36-13.97-4.3-28.41-2.78-42.69c-3.73,7.68-6.69,15.72-8.84,23.98c-2.18,8.31-1.96,17.06,0.61,25.25
		c-0.69,0.68-1.63,1.07-2.6,1.07c-0.97,0-1.91-0.39-2.6-1.07c-1.37-1.42-2.23-3.24-2.46-5.2c-0.96-7.1-0.72-14.3,0.7-21.32
		c-3.35,7.87-5.74,16.11-7.12,24.56c-2.05,8.19-5.49,16.82-12.28,21.73c-1.55-10.68-1.55-21.53,0-32.21
		c1.65-8.98,4.56-17.69,8.64-25.87c3.82-9.07,9.38-17.3,16.37-24.23c11.99-11.25,17.31-6.75,25.33-2.9l0.94,0.37c0,0,0-0.37,0-0.57
		l0.29-1.68c20.52-5.29,42.09-5,62.46,0.86c17.11,6.04,31.8,17.45,41.87,32.54l0.49,0.77c18.58,31.11,32.74,75.84,21.94,148.9
		L1019.97,754.37z"/>
	<path class="st3" d="M961.73,695.06c2.21,0.5,4.5,0.5,6.71,0c2.35-0.4,4.56-1.39,6.42-2.86c0.91-1.02,1.54-2.26,1.8-3.6
		c0.27-1.34,0.17-2.72-0.29-4.01c-0.47-1.32-1.24-2.51-2.25-3.49c-1.01-0.97-2.23-1.7-3.56-2.12c-2.26-0.75-4.7-0.75-6.96,0
		c-2.11,0.83-4.13,1.88-6.01,3.15c0,0,1.27-2.74,5.57-4.54c2.54-1.03,5.36-1.14,7.98-0.33c1.65,0.46,3.17,1.32,4.41,2.5
		c1.25,1.17,2.19,2.64,2.75,4.26c0.6,1.65,0.71,3.43,0.33,5.15c-0.38,1.71-1.25,3.28-2.5,4.51c-2.15,1.66-4.74,2.67-7.45,2.9
		c-1.79,0.28-3.62,0.11-5.32-0.49C962.18,695.71,961.69,695.14,961.73,695.06z"/>
	<path class="st3" d="M852.82,1076.2c0,0-24.56,113.91-30.98,176c-6.43,62.09,38.6,550.18,38.6,550.18h86.36l25.62-524.31l6.06-1.27
		c0,0,19.32,116.81,19.32,189.22c0,72.4,6.34,336.48,6.34,336.48h83.54c0,0,28.2-446.95,29.47-479.98
		c1.27-33.03,0-131.71-10.07-178.66c-10.07-46.95-21.37-71.95-21.37-71.95s-35.12,36.02-111.66,34.75
		C897.51,1105.38,852.82,1076.2,852.82,1076.2z"/>
	<path class="st6" d="M968.73,1244.33c-0.64-1.43-1.1-2.95-1.35-4.5c-0.74-2.95-1.68-7.29-2.66-12.61
		c-5.1-27.91-6.47-56.37-4.09-84.64c0.45-5.44,0.94-9.78,1.43-12.81c0.11-1.57,0.41-3.13,0.9-4.62c0.16,1.56,0.16,3.14,0,4.71
		c0,3.48-0.45,7.74-0.78,12.81c-0.57,10.81-0.94,25.78,0,42.28c0.94,16.49,2.62,31.31,4.1,42.04c0.82,5.03,1.47,9.25,2.01,12.69
		C968.59,1241.21,968.74,1242.77,968.73,1244.33z"/>
	<path class="st9" d="M944.91,773.32l100.28-5.28c0,0,51.49,168.1,50.26,216.03c-1.23,47.93-18.62,122.5-18.62,122.5
		s-84.11,16.82-117.43,12.94c-33.32-3.89-125.65-47.6-125.65-47.6l55.83-236.49L944.91,773.32z"/>
	<path class="st9" d="M965.21,875.27c0.86-0.44,1.79-0.74,2.74-0.9l3.27-0.82c1.51-0.42,3.09-0.51,4.62-0.25
		c1.9,0.43,3.6,1.48,4.83,2.99l4.09,4.46l4.67,5.04l2.5,2.66c0.46,0.47,0.89,0.98,1.27,1.51c0.24,0.36,0.41,0.76,0.48,1.18
		c0.08,0.42,0.07,0.86-0.03,1.28c-0.49,1.37-1.48,2.5-2.78,3.15c-1.1,0.63-2.29,1.1-3.52,1.39c-2.3,0.49-4.67,0.49-6.96,0
		c-3.75-0.96-7.32-2.52-10.56-4.62h0.62c-2.57,1.19-5.36,1.85-8.19,1.97c-1.04,0.13-2.09,0.02-3.07-0.33
		c3.69-0.31,7.31-1.25,10.68-2.78h0.29h0.33c3.19,1.85,6.64,3.23,10.23,4.09c2.05,0.43,4.17,0.43,6.22,0
		c1.05-0.25,2.06-0.66,2.99-1.23c0.88-0.4,1.58-1.12,1.96-2.01c0.25-0.66-0.45-1.43-1.35-2.42l-2.42-2.62l-4.58-5.08
		c-2.99-3.03-5.24-6.75-8.18-7.33c-1.35-0.32-2.75-0.32-4.09,0l-3.32,0.49C967.05,875.3,966.13,875.36,965.21,875.27z"/>
	<path class="st9" d="M1008.6,890.7c-0.62,2.15-1.55,4.2-2.74,6.1c-0.49,0.82-0.94,1.96-1.64,3.07c-0.74,1.12-1.59,2.16-2.54,3.11
		c-1.09,1.22-2.51,2.11-4.09,2.53c-0.87,0.21-1.76,0.23-2.64,0.07c-0.87-0.16-1.71-0.5-2.44-1.01c-0.78-0.41-1.46-0.99-1.98-1.7
		c-0.53-0.71-0.88-1.53-1.05-2.39c-0.13-1.58,0.13-3.17,0.78-4.62c1.23-2.1,2.3-4.29,3.19-6.55c0.64-2.16,1.65-4.2,2.99-6.01
		c-0.39,2.22-0.99,4.4-1.8,6.51c-0.72,2.32-1.67,4.57-2.82,6.71c-0.5,1.17-0.69,2.46-0.58,3.72c0.12,0.63,0.38,1.23,0.77,1.75
		c0.38,0.52,0.88,0.94,1.44,1.24c1.1,0.7,2.42,0.96,3.7,0.73c1.28-0.22,2.43-0.92,3.22-1.96c0.91-0.87,1.75-1.81,2.5-2.82
		c0.66-0.9,1.1-1.88,1.72-2.78C1005.63,894.31,1006.99,892.39,1008.6,890.7z"/>
	<path class="st9" d="M1019.77,893.4c0,0-0.41,1.47-1.68,3.48c-1.6,2.69-3.72,5.04-6.22,6.92c-0.38,0.28-0.77,0.52-1.19,0.74
		c-0.48,0.34-1.05,0.51-1.64,0.49c-0.95-0.03-1.87-0.28-2.7-0.74c-0.75-0.35-1.43-0.84-2.01-1.43c-0.5-0.63-0.76-1.41-0.74-2.21
		c0-2.62,1.1-3.81,1.23-3.72c0.12,0.08-0.29,1.51,0,3.6c0.05,0.49,0.25,0.95,0.57,1.31c0.49,0.41,1.04,0.72,1.64,0.94
		c0.6,0.29,1.26,0.46,1.92,0.49c0.29,0.01,0.56-0.09,0.78-0.29l1.06-0.65c2.32-1.81,4.41-3.9,6.22-6.22
		C1018.54,894.34,1019.52,893.24,1019.77,893.4z"/>
	<path class="st9" d="M984.12,873.76c0.45,0,0.37,1.43-0.21,2.82c-0.57,1.39-1.39,2.34-1.84,2.17c-0.45-0.17-0.41-1.47,0-2.87
		C982.48,874.49,983.63,873.55,984.12,873.76z"/>
	<path class="st6" d="M685.41,578.53c0,0,21.98,67.49,25.5,72.77c3.52,5.28,126.64,193.47,126.64,193.47l63.32-76.62l-118.7-141.58
		l-20.22-48.17L685.41,578.53z"/>
	<path class="st6" d="M1073.31,768.16c4.38,3.28,75.6,67.37,75.6,67.37s91.93-110.88,101.83-123.85
		c9.9-12.97,41.58-58.98,45.02-72.08c3.44-13.1,15.31-61.07,15.31-61.07h-73.55c0,0-27.34,65.49-35,73.1
		C1194.87,659.24,1073.31,768.16,1073.31,768.16z"/>
	<g class="st10">
		<path d="M968.32,810.64c-0.57-3.15-4.09-5.98-7.08-4.46c-1.21,0.77-2.19,1.86-2.82,3.15c-47.21,78.37-78.65,165.21-92.55,255.65
			c-0.34-0.37-0.61-0.8-0.79-1.27c-0.17-0.47-0.25-0.97-0.23-1.47l-3.15,19.24c29.51-36.84,46.78-81.86,60.66-126.88
			c13.88-45.02,24.89-91.31,43.92-134.5C967.89,817.22,968.61,813.93,968.32,810.64z"/>
	</g>
	<path class="st6" d="M885.27,765.37c3.27-2.17,25.17-12.03,35-6.55c5.79,3.13,10.97,7.29,15.26,12.28l11.87-22.31
		c0,0,17.89,46.54,17.89,60.78c0,14.24-47.19,95.86-50.47,122.3c-3.27,26.44-74.41,199.12-74.41,199.12l-58-36.1
		c0,0,27.38-83.17,30.66-113.78c3.27-30.61,5.49-17.52,10.93-52.51s13.55-83.62,13.55-83.62L885.27,765.37z"/>
	<path class="st6" d="M1050.51,748.96c-13.25,11.79-22.92,27.07-27.91,44.09c-4.98,17.02-5.09,35.1-0.29,52.18
		c3.98,14.3,9.19,28.23,15.59,41.62c25.13,52.52-3.31,161.92,16.37,196.91c19.69,35,37.2,40.48,37.2,40.48l70.03-8.76
		c0,0-24.02-234.61-22.92-258.68l29.59-45.27l-86.53-38.48c-4.71-12.81-15.06-14.98-28.04-12.28L1050.51,748.96z"/>
	<path class="st3" d="M828.09,788.01c1.69,2.95,2.98,6.12,3.85,9.41c5.09,15.65,7.46,32.05,7,48.5c0.08,3.4-0.26,6.79-1.02,10.11
		c-0.44-3.35-0.63-6.73-0.58-10.11c-0.36-16.21-2.68-32.32-6.92-47.97C829.41,794.7,828.63,791.38,828.09,788.01z"/>
	<path class="st3" d="M1138.26,798.53c0.15,3.1,0.03,6.21-0.37,9.29c-0.37,5.69-0.74,13.55-0.7,22.27
		c0.04,8.72,0.45,16.37,0.86,22.26c0.44,3.06,0.58,6.16,0.41,9.25c-0.99-2.95-1.61-6.02-1.84-9.13c-0.98-7.42-1.48-14.9-1.51-22.39
		c-0.01-7.5,0.43-14.99,1.35-22.43C1136.64,804.55,1137.25,801.48,1138.26,798.53z"/>
	<path class="st3" d="M1013.34,956.44c0,0-1.1,0-3.11-0.49c-2.8-0.69-5.54-1.62-8.19-2.78c-3.91-1.72-7.64-3.81-11.13-6.26
		c-4.27-3.01-8.2-6.48-11.71-10.35c-3.45-3.93-6.49-8.21-9.05-12.77c-2.07-3.73-3.74-7.67-4.99-11.74
		c-0.87-2.67-1.51-5.41-1.93-8.19c-0.17-1.04-0.17-2.11,0-3.15c0.37,0,1.02,4.38,3.44,11.05c1.44,3.91,3.21,7.68,5.28,11.3
		c5.08,8.84,11.97,16.51,20.22,22.51c3.37,2.44,6.93,4.6,10.64,6.47C1009.25,954.96,1013.55,956.07,1013.34,956.44z"/>
	<g class="st10">
		<path d="M964.23,905.64c-4.83,20.71,1.35,36.1,18.46,48.71c7.21,5.13,15.55,8.44,24.31,9.66c6.02-0.01,11.96-1.41,17.35-4.09
			C996.36,956.52,973.31,936.58,964.23,905.64z"/>
	</g>
	<path class="st3" d="M1055.21,763.7c0.33,0-1.68,4.95-4.09,13.01c-3.06,10.48-4.97,21.27-5.69,32.17
		c-0.33,4.79-0.41,9.41-0.29,13.71v2.7l-1.8-2.01c-2.68-3.36-5.86-6.3-9.42-8.72c-2.77-1.85-6.1-2.67-9.42-2.33
		c-2.18,0.2-4.25,1.05-5.94,2.46c-1.18,0.98-1.59,1.76-1.76,1.68c0.23-0.82,0.67-1.57,1.27-2.17c1.68-1.72,3.88-2.82,6.26-3.15
		c3.61-0.57,7.31,0.16,10.44,2.05c3.77,2.43,7.15,5.41,10.03,8.84l-1.72,0.7c0-4.29,0-9,0-13.87c0.71-11.05,2.85-21.96,6.38-32.46
		c1.05-3.19,2.27-6.32,3.64-9.37C1053.67,765.76,1054.38,764.68,1055.21,763.7z"/>
	<path class="st3" d="M965.33,806.43c0,0-0.9-0.45-2.58-1.02c-2.4-0.72-4.96-0.72-7.37,0c-3.65,0.98-6.87,3.14-9.17,6.14
		c-2.89,3.85-5.25,8.08-7,12.57l-1.84-0.74c0.93-2.68,1.71-5.42,2.33-8.19c2.32-10.39,2.52-21.13,0.58-31.6
		c-1.56-8.19-3.56-12.77-3.23-12.9c0.71,0.99,1.27,2.08,1.68,3.23c1.21,3.05,2.19,6.18,2.95,9.37c2.44,10.65,2.44,21.72,0,32.38
		c-0.64,2.77-1.44,5.51-2.42,8.18l-1.88-0.74c1.86-4.64,4.39-8.98,7.49-12.89c2.59-3.2,6.2-5.42,10.23-6.26
		c2.64-0.63,5.42-0.38,7.9,0.74C963.92,805.06,964.73,805.65,965.33,806.43z"/>
	<path class="st3" d="M849.87,1009.64c-1.21,3.12-2.88,6.05-4.95,8.68c-4.63,6.63-10.06,12.67-16.17,17.97
		c-6.1,5.32-12.83,9.86-20.05,13.51c-2.89,1.71-6.02,2.95-9.29,3.68c9.92-5.32,19.3-11.6,28-18.74
		C835.65,1027.09,843.17,1018.69,849.87,1009.64z"/>
	<path class="st3" d="M1147.31,1048.36c0,0-1.1,0-3.07,0c-2.76-0.26-5.5-0.74-8.19-1.43c-18.21-4.67-33.98-16.04-44.16-31.85
		c-1.54-2.36-2.91-4.84-4.09-7.41c-0.49-0.91-0.84-1.89-1.02-2.9c0.33,0,2.21,3.77,6.22,9.49c10.57,14.96,25.84,25.95,43.38,31.23
		C1143.01,1047.46,1147.35,1047.99,1147.31,1048.36z"/>
	<path class="st7" d="M1061.19,732.22c0,0,1.39-2.34,3.6-6.59c7.91-15.08,10.47-32.39,7.29-49.12c-2.43-12.1-8.5-23.17-17.4-31.72
		c-9.18-8.3-19.3-15.5-30.17-21.45c-8.89-5-17.38-10.69-25.37-17.03c-5.41-4.34-10.13-9.48-14-15.23c-1.04-1.56-1.97-3.18-2.78-4.87
		c-0.58-1.14-0.82-1.76-0.74-1.8c0.08-0.04,1.35,2.33,4.09,6.22c4.07,5.46,8.86,10.35,14.25,14.53
		c8.07,6.14,16.58,11.68,25.46,16.58c11.06,5.92,21.35,13.16,30.66,21.57c9.14,8.84,15.36,20.26,17.8,32.75
		c1.89,10.15,1.61,20.58-0.82,30.61c-1.56,6.74-4.14,13.2-7.65,19.16c-0.91,1.64-1.94,3.21-3.07,4.7
		C1062.03,731.15,1061.65,731.72,1061.19,732.22z"/>
	<path class="st12" d="M1348.89,71.9H678.26v506.51h670.63V71.9z"/>
	<text transform="matrix(1 0 0 1 800.8613 355.9023)" class="st13 st14">Syndicate</text>
	<path class="st3" d="M1348.19,578.53c0,0,0-3.19,0-9.29c0-6.1,0-15.14,0-26.89c0-23.62,0-58.2-0.24-102.33
		c0-88.28-0.25-214.8-0.41-367.92l0.82,0.86l-670.64,0.08l1.02-1.02c0,182.18,0,354.66,0,506.51l-0.94-0.9l484.12,0.45l137.44,0.25
		h36.47h12.61h-3.11h-9.29h-36.26l-137.24,0.25l-484.82,0.9h-0.94v-0.94c0-151.85,0-324.33,0-506.51V71h0.94h670.59h0.66v0.82
		c0,153.32-0.33,280.04-0.45,368.37c0,44.12,0,78.62-0.21,102.32c0,11.71,0,20.67,0,26.77
		C1348.31,575.38,1348.19,578.53,1348.19,578.53z"/>
	<path class="st4" d="M665.97,395.7v-14c1.31-1.98,3.17-3.54,5.35-4.48c2.18-0.94,4.58-1.24,6.93-0.84
		c8.19,0.98,20.75,11.13,18.83,15.47c-0.98,1.79-2.58,3.17-4.5,3.88c-1.92,0.71-4.03,0.7-5.94-0.03c-2.74-0.95-5.27-2.43-7.45-4.34
		c0,0,27.55,21.73,24.56,28.98c-0.32,0.94-0.84,1.79-1.54,2.49c-0.7,0.7-1.54,1.23-2.47,1.56c-0.93,0.32-1.93,0.43-2.9,0.31
		c-0.98-0.12-1.92-0.46-2.75-1c0,0,3.36,10.15-0.98,11.13c-2.14,0.62-4.41,0.62-6.55,0l-9.38-14.98l-0.49,49.12
		c0,0-32.33-29.43-31.4-37.65c0.94-8.23,12.57-32.33,19.81-30.9l2.42-0.94L665.97,395.7z"/>
	<path class="st4" d="M1338.2,436.18c0.35-2.31,1.18-4.52,2.42-6.49c1.24-1.98,2.87-3.68,4.79-5.01c1.94-1.38,4.27-2.12,6.65-2.12
		s4.7,0.74,6.65,2.12c2.13,1.8,0,7.57,0,7.57s6.47,2.17,6.84,12.28c3.36,2.47,5.78,6.03,6.83,10.07c2.13,7.16-1.47,29.84-1.47,29.84
		l-22.72,16.9v-29.14c-1.67-1.11-2.9-2.76-3.52-4.66c-0.67-2.83-0.92-5.74-0.74-8.64c0,0-1.76,7.9-5.73,6.84
		c-3.97-1.06-4.67-9.33-4.67-9.33s-5.4,0.33-7.57-2.17c-2.17-2.5-2.17-3.6,0-6.83C1329.71,443.31,1333.81,439.55,1338.2,436.18z"/>
	<path class="st5" d="M1363.25,457.62c0.2,0.29-2.25,2.42-6.3,5.57l-0.33-1.43c1.26,0.3,2.36,1.06,3.08,2.14
		c0.72,1.08,0.99,2.4,0.77,3.67c-0.28,1.42-0.94,2.73-1.91,3.79c-0.98,1.06-2.23,1.83-3.61,2.23c-1.53,0.49-3.16,0.59-4.74,0.27
		c-1.58-0.32-3.05-1.03-4.27-2.07c-1.97-1.65-3.3-3.94-3.77-6.46c-0.32-1.1-0.39-2.26-0.23-3.4c0.16-1.13,0.56-2.22,1.17-3.19
		c-0.04,2.1,0.11,4.19,0.45,6.26c0.56,2.11,1.8,3.98,3.52,5.32c1.01,0.8,2.19,1.34,3.45,1.58c1.26,0.24,2.56,0.16,3.79-0.22
		c1-0.31,1.91-0.88,2.63-1.65c0.72-0.77,1.22-1.71,1.47-2.73c0.23-0.84,0.12-1.74-0.3-2.5s-1.12-1.33-1.95-1.59l-1.84-0.41
		l1.55-1.02C1358.15,460.06,1360.62,458.67,1363.25,457.62z"/>
	<path class="st5" d="M1344.26,456.68c-0.24,0,0-1.6,1.19-3.77c1.56-2.82,3.85-5.17,6.61-6.83c2.77-1.65,5.92-2.55,9.15-2.59
		c2.46,0,3.89,0.49,3.85,0.74c-4.15,0.57-8.19,1.8-11.95,3.64C1349.7,450.32,1346.71,453.29,1344.26,456.68z"/>
	<path class="st5" d="M1358.99,433.11c-1.83,0.5-3.69,0.89-5.57,1.15c-4.35,0.98-8.38,3.09-11.67,6.11
		c-3.3,3.01-5.75,6.83-7.12,11.08c-0.43,1.85-0.98,3.66-1.64,5.44c-0.5-1.93-0.41-3.97,0.25-5.85c1.08-4.7,3.57-8.96,7.13-12.21
		c3.56-3.25,8.02-5.34,12.8-6C1355.11,432.33,1357.13,432.43,1358.99,433.11z"/>
	<path class="st5" d="M695.15,425.33c-0.29,0-1.6-1.96-3.68-5.32c-2.56-4.47-5.69-8.6-9.29-12.28c-3.63-3.5-8.19-5.88-13.14-6.88
		c-3.85-0.66-6.26,0-6.34-0.37c1.98-1.1,4.28-1.48,6.51-1.06c5.42,0.6,10.48,3.01,14.37,6.84c3.77,3.74,6.87,8.1,9.17,12.89
		C693.89,421.06,694.71,423.15,695.15,425.33z"/>
	<path class="st5" d="M682.79,393.94c-0.21,0.25-1.27-0.53-3.03-1.47c-2.19-1.23-4.7-1.76-7.2-1.51c-1.19,0.16-2.32,0.61-3.29,1.33
		c-0.97,0.72-1.73,1.67-2.23,2.76c-0.78,1.72-0.53,3.03-0.86,3.11c-0.33,0.08-1.06-1.27-0.53-3.56c0.35-1.35,1.08-2.56,2.09-3.52
		c1.25-1.15,2.82-1.87,4.5-2.09c2.92-0.34,5.86,0.48,8.18,2.29C682.26,392.59,682.96,393.77,682.79,393.94z"/>
	<path class="st5" d="M665.44,428.44c0,0,0,0.98,0,2.66c-0.23,2.25,0.08,4.52,0.9,6.63c0.55,1.35,1.58,2.45,2.91,3.07
		c0.69,0.32,1.46,0.45,2.22,0.35c0.76-0.09,1.48-0.4,2.07-0.88c1.19-1.41,1.83-3.19,1.8-5.03c0-2.09,0-4.34,0-6.55
		c0.11-2.14-0.08-4.29-0.58-6.39c-0.23-0.84-0.7-1.59-1.36-2.17c-0.65-0.57-1.46-0.95-2.32-1.07c-3.3-0.47-6.66-0.06-9.74,1.19
		c-2.92,1.38-5.66,3.1-8.18,5.12c0,0,0.37-0.9,1.55-2.17c1.69-1.7,3.67-3.09,5.85-4.09c3.31-1.71,7.06-2.41,10.77-2.01
		c1.17,0.17,2.27,0.65,3.19,1.39c0.95,0.81,1.65,1.87,2,3.07c0.63,2.25,0.88,4.59,0.74,6.92c0,2.33,0,4.54,0,6.79
		c-0.03,2.35-0.93,4.6-2.54,6.3c-0.87,0.71-1.92,1.15-3.03,1.26c-1.12,0.12-2.24-0.09-3.23-0.61c-1.68-0.85-2.95-2.32-3.56-4.09
		c-0.8-2.36-0.92-4.9-0.33-7.33C664.7,429.97,665,429.17,665.44,428.44z"/>
	<path class="st9" d="M231.87,1738.52l3.81,81.53c0,0-81.57,31.23-82.35,46.37l158.32-1.68l-0.7-127.25L231.87,1738.52z"/>
	<path class="st2" d="M284.55,1812.69c1.53,0.45,2.85,1.45,3.69,2.81c0.84,1.36,1.14,2.98,0.86,4.56c-0.4,1.54-1.37,2.88-2.71,3.73
		c-1.35,0.85-2.97,1.16-4.53,0.86c-1.62-0.49-3-1.55-3.89-2.99c-0.88-1.44-1.2-3.16-0.9-4.82c0.58-1.59,1.77-2.89,3.3-3.62
		c1.53-0.72,3.29-0.82,4.89-0.27"/>
	<path class="st3" d="M311.6,1864.75v-12.73l-152.1,6.3c0,0-7.04,3.15-6.18,8.18L311.6,1864.75z"/>
	<path class="st7" d="M233.06,1819.28c0,0.78,4.09,1.1,7.74,3.52c3.64,2.41,5.89,5.69,6.59,5.36c0.7-0.33-0.49-4.75-5.16-7.65
		C237.56,1817.6,232.89,1818.58,233.06,1819.28z"/>
	<path class="st7" d="M216.52,1826.32c0,0.78,3.19,2.05,5.85,5.28c2.66,3.23,3.48,6.67,4.09,6.63c0.61-0.04,1.19-4.42-2.17-8.19
		C220.94,1826.28,216.56,1825.58,216.52,1826.32z"/>
	<path class="st7" d="M207.31,1846.29c0.7,0,1.76-3.73-0.29-7.94c-2.05-4.22-5.65-5.85-5.98-5.2c-0.33,0.66,1.92,2.9,3.56,6.38
		C206.25,1843.02,206.53,1846.25,207.31,1846.29z"/>
	<path class="st7" d="M234.28,1800.61c0.33,0.7,3.85-0.41,8.19,0c4.34,0.41,7.78,1.6,8.19,0.94c0.41-0.65-2.91-3.4-8.19-3.64
		C237.19,1797.67,233.88,1800,234.28,1800.61z"/>
	<path class="st9" d="M468.24,1739.1l1.52,98.72l-21.25,78.42c-0.36,1.34-0.45,2.74-0.25,4.11c0.2,1.37,0.68,2.69,1.41,3.87
		c0.73,1.18,1.69,2.19,2.83,2.98c1.14,0.79,2.43,1.34,3.79,1.61c1.58,0.32,3.2,0.25,4.75-0.2c1.55-0.44,2.96-1.24,4.14-2.34
		c15.18-14.37,69.33-68.15,69.58-73.39c0.57-8.19,5.85-105.44,5.85-105.44L468.24,1739.1z"/>
	<path class="st3" d="M456.2,1928.81l79.16-83.78v4.09c-0.11,3.6-1.41,7.07-3.69,9.86c-6.34,7.33-24.23,27.13-66.27,67.21
		c-1.21,1.14-2.68,1.98-4.29,2.42c-1.6,0.44-3.3,0.48-4.92,0.12V1928.81z"/>
	<g class="st8">
		<path class="st7" d="M515.35,1813.02c-1.27,0.89-2.15,2.23-2.47,3.76c-0.32,1.52-0.05,3.1,0.75,4.43
			c0.84,1.25,2.12,2.14,3.59,2.47c1.47,0.34,3.01,0.09,4.31-0.67c1.29-0.95,2.18-2.33,2.52-3.89c0.33-1.56,0.08-3.19-0.71-4.58
			c-1.01-1.21-2.46-1.98-4.03-2.16c-1.57-0.17-3.15,0.26-4.41,1.22"/>
	</g>
	<path class="st7" d="M479.09,1885.83c-2.35-3.1-5.27-5.73-8.6-7.73c-3.61-1.45-7.45-2.22-11.34-2.25c0-0.25,1.15-1.02,3.48-1.31
		c3.04-0.34,6.11,0.21,8.84,1.6c2.74,1.37,5.03,3.5,6.59,6.14C479.21,1884.27,479.33,1885.75,479.09,1885.83z"/>
	<path class="st7" d="M471.96,1899.01c-2.81-1.62-5.73-3.07-8.72-4.34c-3.18-0.62-6.39-1.06-9.62-1.31
		c1.53-0.93,3.26-1.48,5.05-1.61c1.79-0.13,3.58,0.17,5.23,0.87C469.67,1894.34,472.5,1898.72,471.96,1899.01z"/>
	<path class="st7" d="M492.31,1869.17c-4.14-2.81-8.48-5.33-12.98-7.53c-4.79-1.54-9.69-2.72-14.65-3.52
		c5.18-0.97,10.53-0.45,15.42,1.51C484.99,1861.59,489.23,1864.9,492.31,1869.17z"/>
	<path class="st7" d="M494.35,1838.93c-0.24,0.61-5.69-1.72-12.81-2.05c-7.12-0.33-12.73,1.39-12.94,0.78
		c4.01-2.12,8.52-3.13,13.05-2.9C486.19,1834.97,490.57,1836.42,494.35,1838.93z"/>
	<path class="st7" d="M494.64,1809.94c-4.29-1.41-8.75-2.24-13.26-2.46c-4.49,0.45-8.89,1.51-13.09,3.15c0-0.21,0.9-1.43,3.19-2.7
		c3.03-1.63,6.4-2.53,9.84-2.62c3.44-0.09,6.86,0.62,9.97,2.09C493.53,1808.55,494.8,1809.74,494.64,1809.94z"/>
	<path class="st7" d="M481.58,1801.96c-0.27-1.22-0.27-2.49,0-3.72c0.35-3.43,1.38-6.76,3.03-9.78c1.01-2.22,2.71-4.05,4.83-5.24
		c0.76-0.32,1.61-0.41,2.42-0.24c0.81,0.17,1.55,0.58,2.13,1.18c1.05,1.24,1.61,2.83,1.55,4.46c-0.25,3.32-1.65,6.44-3.96,8.84
		c-2.31,2.4-5.38,3.92-8.68,4.3c-3.3,0.37-6.63-0.28-9.56-1.85c-2.93-1.57-5.3-3.99-6.82-6.95c-0.39-0.74-0.61-1.54-0.65-2.37
		c-0.04-0.83,0.09-1.65,0.4-2.42c0.39-0.72,1-1.3,1.72-1.67c0.73-0.37,1.56-0.52,2.37-0.42c2.44,0.55,4.68,1.73,6.51,3.44
		c2.67,2.17,4.92,4.78,6.67,7.74c0.74,1,1.25,2.17,1.47,3.4c-2.52-3.75-5.58-7.1-9.09-9.95c-1.65-1.39-3.62-2.35-5.73-2.82
		c-0.45-0.09-0.92-0.03-1.33,0.17c-0.41,0.2-0.75,0.53-0.96,0.93c-0.16,0.52-0.21,1.06-0.15,1.61c0.05,0.54,0.22,1.06,0.48,1.54
		c1.41,2.46,3.48,4.47,5.99,5.79c2.51,1.32,5.34,1.89,8.17,1.65c2.8-0.3,5.4-1.56,7.39-3.56c1.98-2,3.22-4.61,3.5-7.41
		c0.08-1.14-0.25-2.28-0.94-3.19c-0.31-0.34-0.71-0.58-1.16-0.67c-0.45-0.1-0.92-0.05-1.34,0.14c-1.87,1.03-3.37,2.62-4.3,4.54
		C483.53,1793.36,482.19,1797.6,481.58,1801.96z"/>
	<path class="st15" d="M545.76,786.62c0,0,6.14-122.38,8.76-145.22c3.68-31.93,27.79-230.07,27.79-230.07l49.12,11.91
		c0,0-0.74,156.52,0,177.92c0.74,21.41-20.18,208.29-28.65,239.15c-0.82,1.21-1.92,2.22-3.2,2.92c-1.28,0.71-2.72,1.1-4.18,1.15
		c-1.47,0.05-2.92-0.25-4.25-0.87c-1.33-0.62-2.49-1.55-3.39-2.71L545.76,786.62z"/>
	<path class="st15" d="M634.41,364.43c0,0-1.8-13.79-13.01-5.28c0,0-3.32-17.27-14.53-10.68c0,0-8.18-12.81-17.11-4.75
		c0,0-4.38-7.9-10.07-5.89c-5.69,2.01-16.57,15.06-16.57,15.06l2.74,34.79c0.58,6.29,3.5,12.14,8.19,16.37
		c4.38,4.09,8.8,9.13,7.24,16.66l49.12,10.81c0,0,9.74-31.84,9.01-45.02C639.12,386.41,646.45,363.36,634.41,364.43z"/>
	<path class="st16" d="M612.23,401.67c0.04-4.05-0.61-8.08-1.92-11.91c-1.54-4.07-4.04-7.71-7.29-10.6c-4.03-3.5-9-5.73-14.29-6.43
		c-1.74-0.16-3.49-0.16-5.24,0h-0.86v-0.86c0.3-2.99-0.07-6-1.06-8.83c-1-2.83-2.6-5.4-4.71-7.54l-0.49-0.49l0.57-0.41
		c3.41-2.64,6.06-6.14,7.66-10.15c1.14-2.91,1.39-4.71,1.55-4.67c0.07,0.43,0.07,0.88,0,1.31c-0.18,1.22-0.47,2.43-0.86,3.6
		c-1.42,4.27-4.05,8.04-7.57,10.85v-0.78c2.26,2.24,4.01,4.94,5.11,7.93c1.1,2.98,1.54,6.17,1.27,9.35l-0.53-0.9
		c1.85-0.2,3.72-0.2,5.57,0c5.57,0.73,10.79,3.12,14.98,6.88c3.36,3.09,5.9,6.97,7.37,11.3c0.97,2.89,1.44,5.92,1.39,8.96
		C612.88,399.44,612.65,400.59,612.23,401.67z"/>
	<path class="st16" d="M621.52,358.33c0.24,0-1.02,4.09-1.23,11.26c-0.1,1.91-0.1,3.82,0,5.73c-0.03,1.01,0.14,2.02,0.51,2.96
		s0.92,1.8,1.62,2.53c0.36,0.33,0.8,0.56,1.27,0.67c0.47,0.11,0.97,0.11,1.43-0.02c1.01-0.4,1.85-1.13,2.38-2.09
		c1.23-2.25,2.28-4.59,3.15-7c1.04-2.75,1.88-5.57,2.54-8.43l1.43,0.29c-1.01,3.82-1.68,7.73-2.01,11.67
		c-0.49,3.02,0.05,6.12,1.51,8.8c0.34,0.42,0.77,0.76,1.26,1c0.49,0.24,1.02,0.37,1.56,0.39c0.4,0,0.79-0.1,1.15-0.29
		c0.35-0.19,0.66-0.45,0.89-0.78c0.41-0.58,0.58-1.3,0.49-2.01c0,0,0.74,0.82,0,2.29c-0.26,0.43-0.62,0.79-1.05,1.05
		c-0.43,0.26-0.91,0.42-1.41,0.46c-0.66,0.02-1.31-0.11-1.92-0.38c-0.6-0.27-1.13-0.67-1.56-1.17c-0.98-1.17-1.62-2.58-1.84-4.09
		c-0.26-1.72-0.36-3.46-0.29-5.2c0.25-4.02,0.86-8.01,1.84-11.91l1.43,0.29c-0.67,2.95-1.53,5.84-2.58,8.68
		c-0.92,2.5-2.04,4.93-3.36,7.24c-0.69,1.24-1.81,2.19-3.15,2.66c-0.71,0.2-1.45,0.22-2.17,0.05c-0.72-0.16-1.38-0.51-1.93-0.99
		c-0.84-0.85-1.49-1.86-1.92-2.97c-0.43-1.11-0.63-2.3-0.58-3.49c-0.1-1.95-0.1-3.9,0-5.85c0.17-2.76,0.59-5.5,1.27-8.19
		C620.55,360.37,620.96,359.31,621.52,358.33z"/>
	<path class="st16" d="M607.03,349.45c0.36,2.81,0.46,5.65,0.29,8.47c0,2.62,0,5.73,0,9.17c0,1.72,0,3.52,0.41,5.4
		c0.08,1.82,0.62,3.59,1.55,5.16c0.43,0.65,1.09,1.12,1.84,1.33c0.75,0.21,1.55,0.15,2.26-0.18c1.43-0.87,2.51-2.22,3.03-3.81
		c1.23-3.07,1.84-6.22,2.62-8.72c0.66-2.8,1.55-5.54,2.66-8.19c-0.33,2.77-0.88,5.5-1.64,8.19c-0.6,3.05-1.4,6.06-2.38,9
		c-0.63,1.89-1.91,3.49-3.6,4.54c-1.04,0.53-2.23,0.67-3.36,0.38c-1.13-0.29-2.12-0.98-2.78-1.94c-1.08-1.78-1.68-3.81-1.76-5.89
		c-0.2-1.88-0.29-3.72-0.33-5.44c0-3.52,0-6.63,0.2-9.25C606.15,354.91,606.48,352.16,607.03,349.45z"/>
	<path class="st16" d="M589.84,343.72c0.79,2.98,1.34,6.02,1.64,9.09c0.41,2.95,0.86,6.26,1.35,9.86c0.2,1.91,0.54,3.79,1.02,5.65
		c0.23,0.93,0.66,1.8,1.24,2.56c0.59,0.76,1.32,1.39,2.16,1.86c0.81,0.43,1.75,0.58,2.65,0.42c0.91-0.16,1.73-0.63,2.34-1.32
		c1.27-1.32,2.12-2.99,2.46-4.79c0.78-3.6,1.19-6.96,1.51-9.74c0.58-5.65,0.58-9.17,0.78-9.17c0.27,0.8,0.38,1.65,0.33,2.5
		c0.12,2.25,0.12,4.5,0,6.75c-0.18,3.34-0.59,6.66-1.23,9.95c-0.36,2.09-1.33,4.03-2.78,5.57c-0.85,0.82-1.92,1.4-3.07,1.68
		c-1.21,0.23-2.46,0.06-3.56-0.49c-1.01-0.56-1.89-1.32-2.6-2.24c-0.7-0.92-1.21-1.97-1.49-3.09c-0.49-1.95-0.81-3.93-0.98-5.93
		c-0.37-3.6-0.7-6.96-1.02-9.9C590.08,349.88,589.83,346.8,589.84,343.72z"/>
	<path class="st16" d="M594.35,428.44c2.64-0.84,5.41-1.22,8.18-1.1c2.73-0.38,5.5-0.25,8.19,0.37c-5.27,1.23-10.73,1.48-16.09,0.74
		H594.35z"/>
	<path class="st16" d="M599.54,742.21c0,0.2-3.15,2.46-8.18,6.59c-12.66,10.81-22.77,24.28-29.59,39.46
		c-2.62,5.81-3.85,9.58-4.09,9.54c0.08-0.94,0.29-1.86,0.61-2.74c0.71-2.45,1.55-4.85,2.54-7.2c6.37-15.64,16.66-29.36,29.88-39.87
		c2.54-1.96,4.66-3.48,6.18-4.42C597.71,743,598.6,742.55,599.54,742.21z"/>
	<path class="st3" d="M406.44,552.78c-2.23-1.28-4.14-3.05-5.58-5.18c-1.44-2.13-2.37-4.57-2.73-7.11
		c-0.36-2.55-0.12-5.15,0.68-7.59c0.8-2.44,2.15-4.67,3.95-6.51c2.82-2.86,6.59-4.66,9.17-7.7c1.94-2.69,3.63-5.55,5.03-8.55
		c2.79-4.57,6.62-8.43,11.18-11.24c4.56-2.82,9.72-4.52,15.06-4.96c10.75-0.72,21.38,2.55,29.88,9.17
		c3.11,2.89,6.73,5.16,10.68,6.71c4.07,0.55,8.21,0.55,12.28,0c4.89-0.01,9.7,1.27,13.94,3.7c4.24,2.43,7.76,5.95,10.22,10.18
		c2.46,4.23,3.76,9.03,3.77,13.92c0.01,4.89-1.26,9.7-3.7,13.94c5.31,1.92,9.77,5.65,12.59,10.54c2.82,4.89,3.84,10.61,2.86,16.17
		c-0.98,5.56-3.88,10.6-8.21,14.22c-4.32,3.62-9.79,5.61-15.43,5.61c-6.91-0.55-13.63-2.5-19.77-5.73
		c-25.72-11.11-52.64-19.21-80.22-24.15"/>
	<path class="st9" d="M518.79,723.14c13.3-15.12,20.85-34.43,21.33-54.56c0.41-19.93-3.19-44.73-15.76-60.17
		c8.43-9.45,4.71-19.77-1.64-30.74c-6.34-10.97-17.44-18.42-28.9-23.82c-17.12-8.11-35.74-12.55-54.68-13.06
		c-15.39-0.37-35.85,2.54-37.74,13.67c-0.74,3.02-0.6,6.18,0.39,9.12c0.99,2.94,2.8,5.54,5.22,7.49c-10.62,3.7-20.3,9.72-28.32,17.6
		c-18.91,18.7-26.11,37.45-23.21,58.16c2.91,20.71,7.61,36.84,20.46,49.77"/>
	<path class="st6" d="M388.43,720.93c-2.19-2.15-4.87-3.73-7.82-4.58h0.57c-0.54-0.04-1.09-0.04-1.64,0c-1-0.24-2.04-0.26-3.06-0.08
		c-1.01,0.18-1.98,0.57-2.84,1.14c-3.24,1.36-5.85,3.89-7.33,7.08c-1.13,2.82-1.47,5.91-0.97,8.91s1.81,5.81,3.8,8.12
		c1.46,2.11,3.53,3.73,5.93,4.65c2.4,0.91,5.02,1.08,7.52,0.48c2.5-0.6,4.75-1.94,6.47-3.85c1.72-1.91,2.82-4.29,3.16-6.84
		c0.71-2.62,0.74-5.38,0.07-8.01C391.64,725.31,390.3,722.89,388.43,720.93z"/>
	<path class="st15" d="M509.62,805.77l7.9-174.61c-0.02-3.88-1.49-7.62-4.13-10.47c-2.64-2.85-6.25-4.61-10.12-4.92l-82.72-18.95
		c-26.4-2.17-43.18,30.66-44.25,57.3c-1.19,29.39-1.47,65.49,2.5,87.18c8.19,43.92,41.91,48.75,41.91,48.75s-1.56,33.72-0.98,49.73
		l92.3,18.01L509.62,805.77z"/>
	<path class="st3" d="M390.02,687.08c0.02,1.47,0.61,2.88,1.65,3.91c1.04,1.04,2.44,1.63,3.91,1.65c0.72,0.04,1.44-0.07,2.12-0.31
		c0.68-0.24,1.3-0.62,1.83-1.11c0.53-0.49,0.96-1.08,1.26-1.73c0.3-0.66,0.46-1.36,0.48-2.08c-0.01-1.47-0.6-2.88-1.64-3.93
		c-1.04-1.04-2.45-1.63-3.92-1.64c-0.72-0.05-1.44,0.05-2.12,0.3c-0.68,0.24-1.31,0.62-1.84,1.11c-0.53,0.49-0.96,1.08-1.26,1.74
		C390.2,685.64,390.04,686.36,390.02,687.08z"/>
	<path class="st3" d="M384.54,672.46c0.7,0.74,4.91-2.54,11.01-2.66c6.1-0.12,10.6,2.82,11.26,2.05c0.65-0.77-0.45-1.64-2.42-3.03
		c-2.68-1.76-5.84-2.64-9.05-2.54c-3.16,0.05-6.21,1.11-8.72,3.03C384.78,670.78,384.17,672.13,384.54,672.46z"/>
	<path class="st3" d="M448.1,687.08c0.02,1.47,0.62,2.88,1.65,3.91c1.04,1.04,2.44,1.63,3.91,1.65c0.72,0.04,1.44-0.07,2.12-0.31
		c0.68-0.25,1.31-0.62,1.84-1.11c0.53-0.49,0.96-1.08,1.27-1.73c0.3-0.66,0.47-1.37,0.5-2.09c-0.01-1.47-0.6-2.88-1.64-3.93
		c-1.04-1.04-2.45-1.63-3.92-1.64c-0.72-0.05-1.45,0.05-2.13,0.3c-0.68,0.24-1.31,0.62-1.85,1.11c-0.54,0.49-0.97,1.08-1.27,1.74
		S448.12,686.35,448.1,687.08z"/>
	<path class="st3" d="M444.42,672.26c0.7,0.7,4.91-2.54,11.01-2.66c6.1-0.12,10.6,2.78,11.25,2.05c0.66-0.74-0.45-1.64-2.42-3.03
		c-2.68-1.76-5.84-2.65-9.05-2.58c-3.16,0.08-6.21,1.15-8.72,3.07C444.42,670.58,443.97,671.93,444.42,672.26z"/>
	<path class="st3" d="M423.3,717.86c-3.23-0.96-6.58-1.48-9.95-1.56c-1.56,0-3.03-0.41-3.32-1.47c-0.15-1.6,0.18-3.21,0.94-4.62
		l4.34-11.91c5.98-16.99,10.27-30.94,9.58-31.19c-0.7-0.25-6.1,13.34-12.28,30.33l-4.09,11.99c-0.93,1.89-1.16,4.05-0.65,6.1
		c0.25,0.53,0.6,1,1.05,1.39c0.44,0.38,0.97,0.66,1.53,0.83c0.87,0.21,1.76,0.32,2.66,0.33C416.5,718.42,419.92,718.35,423.3,717.86
		z"/>
	<path class="st16" d="M420.72,789.89c20.75-0.16,41.05-6.07,58.65-17.07c0,0-14.9,30.82-59.1,27.67L420.72,789.89z"/>
	<path class="st16" d="M423.95,731.32c1.53-1.94,3.5-3.48,5.75-4.49c2.25-1.01,4.72-1.46,7.18-1.32c3.15,0,3.48-0.53,5.28,2.17
		c1.06,2.11,1.69,4.43,1.84,6.79c0.16,2.36-0.17,4.73-0.95,6.97c-2.13,3.36-7.78,3.23-11.25,2.5c-3.48-0.74-3.44-0.77-5.65-4.09
		c-0.53-0.82-1.51-3.19-1.96-4.09C423.58,734.35,423.49,732.78,423.95,731.32z"/>
	<path class="st3" d="M441.96,650.77c0.94,1.47,6.71-0.66,13.83-1.39c7.12-0.74,13.22,0,13.79-1.8c0.25-0.82-1.06-2.09-3.68-3.15
		c-3.46-1.23-7.16-1.64-10.81-1.19c-3.66,0.38-7.18,1.63-10.27,3.64C442.53,648.52,441.51,650.08,441.96,650.77z"/>
	<path class="st3" d="M385.32,658.47c0.7,1.64,5.08,1.35,9.99,2.58c4.91,1.23,8.72,3.31,10.07,2.21c0.57-0.57,0.29-2.09-1.15-3.85
		c-2.03-2.21-4.67-3.76-7.59-4.45c-2.92-0.69-5.98-0.48-8.78,0.6C385.97,656.46,385.03,657.65,385.32,658.47z"/>
	<path class="st9" d="M414.95,609.56c0,0,41.34-1.84,74,43.92c21.53,30.17,27.01,68.64,27.01,68.64l13.79-73.96L516.78,615
		l-29.02-15.31l-54.32-1.47l-20.14,10.77"/>
	<path class="st9" d="M496.07,610.99c-66.31-13.91-118.33,9.46-126.47,61.4l-14.37-33.56l33.03-42.28l37.21-10.85l75.84,9.25
		L496.07,610.99z"/>
	<path class="st6" d="M525.87,717.04c-2.38-2.3-5.27-3.99-8.43-4.95h0.62c-0.58-0.11-1.17-0.18-1.76-0.21
		c-1.08-0.25-2.19-0.29-3.29-0.09c-1.09,0.19-2.13,0.6-3.06,1.2c-3.49,1.46-6.32,4.18-7.9,7.61c-1.22,3.04-1.59,6.36-1.05,9.59
		c0.54,3.23,1.95,6.26,4.08,8.75c1.56,2.28,3.78,4.04,6.37,5.04c2.59,1,5.41,1.18,8.11,0.53s5.13-2.1,6.98-4.16
		c1.85-2.06,3.03-4.64,3.38-7.39c0.72-2.78,0.73-5.7,0.02-8.48C529.23,721.69,527.83,719.13,525.87,717.04z"/>
	<path class="st7" d="M509.62,693.99c1.05-0.17,2.04-0.58,2.91-1.18c3.07-1.94,5.44-4.81,6.77-8.18c1.33-3.38,1.55-7.09,0.64-10.6
		c-0.62-2.34-1.56-4.63-2.01-7c-0.3-1.14-0.31-2.34-0.04-3.49c0.27-1.15,0.82-2.21,1.59-3.1c1.89-1.66,4.02-3.04,6.3-4.09
		c2.27-1.21,4.28-2.86,5.89-4.87c2.65-3.41,4.18-7.55,4.38-11.87c0.14-2.81-0.38-5.61-1.51-8.18c-0.35-1-0.92-1.92-1.68-2.66
		c1.47,3.46,2.13,7.21,1.92,10.97c-0.35,4-1.89,7.81-4.42,10.93c-1.51,1.8-3.36,3.27-5.45,4.34c-2.47,1.15-4.75,2.68-6.75,4.54
		c-0.98,1.09-1.67,2.42-2.02,3.84c-0.34,1.43-0.33,2.92,0.05,4.34c0.53,2.62,1.51,4.87,2.13,7.08c1.11,3.85,0.72,7.98-1.1,11.54
		c-1.2,2.44-2.95,4.57-5.12,6.22C510.56,693.38,509.54,693.83,509.62,693.99z"/>
	<path class="st7" d="M518.46,603.99c1.39,3.25,2.15,6.74,2.25,10.27c-0.01,3.77-1.06,7.46-3.03,10.68
		c-2.81,3.73-6.26,6.93-10.19,9.45c-2.08,1.58-3.81,3.57-5.08,5.86c-1.07,2.24-1.47,4.74-1.14,7.2c0.84,3.77,1.44,7.58,1.8,11.42
		c0.08,2.53-0.79,4.99-2.42,6.92c-1.23,1.27-2.38,1.43-2.29,1.64c0.08,0.2,0.29,0,0.78,0c0.72-0.19,1.39-0.54,1.96-1.02
		c1-0.95,1.81-2.09,2.36-3.36c0.56-1.26,0.85-2.63,0.87-4.01c-0.15-3.92-0.63-7.83-1.43-11.67c-0.22-2.14,0.16-4.29,1.1-6.22
		c1.16-2.06,2.73-3.86,4.62-5.28c4.09-2.64,7.64-6.03,10.48-9.98c2.07-3.5,3.06-7.53,2.86-11.58c-0.06-2.7-0.7-5.35-1.88-7.78
		C519.75,605.57,519.19,604.7,518.46,603.99z"/>
	<path class="st7" d="M473.07,636.69c0,0,0.53,0.65,1.84,0.37c0.72-0.23,1.37-0.67,1.84-1.27c0.63-0.82,0.95-1.83,0.9-2.86
		c0-2.21-1.23-4.5-1.39-6.84c-0.17-2.33,1.72-4.38,4.09-5.73c2.73-1.22,5.12-3.07,7-5.4c1.44-2,2.38-4.32,2.74-6.75
		c0.51-2.2,0.22-4.5-0.82-6.51c0.02,2.09-0.12,4.19-0.41,6.26c-0.51,2.17-1.47,4.2-2.82,5.98c-1.81,2.09-4.06,3.75-6.59,4.87
		c-1.41,0.72-2.65,1.75-3.64,2.99c-1.02,1.24-1.52,2.82-1.39,4.42c0.41,2.95,1.76,4.91,1.8,6.75c0.11,0.68,0.01,1.38-0.3,2
		c-0.31,0.62-0.8,1.12-1.42,1.44C473.72,636.81,473.07,636.53,473.07,636.69z"/>
	<path class="st7" d="M459.44,601.25c0,0-0.45,0-0.94,0.33c-0.29,0.36-0.51,0.78-0.63,1.23c-0.12,0.45-0.14,0.92-0.07,1.39
		c0.26,1.16,0.64,2.28,1.15,3.35c0.33,1.22,0.33,2.51,0,3.73c-0.64,2.36-1.84,4.53-3.48,6.34c-1.27,1.51-2.05,2.5-1.88,2.66
		c0.16,0.17,1.27-0.45,2.78-1.8c2.13-1.76,3.65-4.15,4.34-6.83c0.33-1.56,0.21-3.18-0.37-4.67c-0.57-1.35-1.23-2.21-1.47-3.03
		c-0.1-0.47-0.09-0.95,0-1.41C458.97,602.07,459.16,601.63,459.44,601.25z"/>
	<path class="st7" d="M392.85,579.1c0,0,0,0.7,0.78,1.76c0.78,1.06,1.72,2.46,2.7,4.09c1.12,2.1,1.38,4.55,0.74,6.84
		c-1.01,2.99-1.63,6.1-1.84,9.25c0.04,3.3,1.09,6.51,2.99,9.21c1.52,2.18,3.58,3.93,5.98,5.08c2.1,1.26,4.58,1.72,7,1.31
		c-2.2-0.6-4.34-1.41-6.39-2.42c-2.11-1.2-3.9-2.89-5.24-4.91c-1.59-2.44-2.47-5.27-2.54-8.18c0.21-3.03,0.77-6.03,1.68-8.92
		c0.32-1.33,0.37-2.69,0.15-4.04c-0.22-1.34-0.7-2.63-1.42-3.78c-0.98-1.44-2.06-2.81-3.23-4.09
		C393.42,579.55,392.97,579.06,392.85,579.1z"/>
	<path class="st7" d="M362.56,610.83c-0.25,0.33,2.01,1.27,2.91,4.5c0.45,1.68,1.35,3.64,2.01,5.77c0.64,2.47,1.52,4.86,2.62,7.16
		c1.2,2.1,2.92,3.86,4.99,5.11c2.07,1.25,4.42,1.96,6.84,2.05c1.97,0.25,3.96-0.23,5.61-1.35c0-0.33-2.17,0.49-5.53,0
		c-2.12-0.25-4.16-0.99-5.95-2.16c-1.79-1.17-3.28-2.74-4.36-4.59c-1.04-2.22-1.93-4.5-2.66-6.83c-0.82-2.29-1.72-4.09-2.33-5.69
		c-0.51-1.39-1.44-2.6-2.66-3.44C363.01,610.91,362.56,610.74,362.56,610.83z"/>
	<path class="st7" d="M357.77,655.11c0,0,0,1.14,0.94,2.49c1.33,1.76,3.23,3,5.38,3.49c2.15,0.49,4.4,0.21,6.37-0.79
		c1.47-0.74,2.09-1.59,1.96-1.8c-2.55,0.87-5.27,1.15-7.94,0.82C360.18,658.34,358.18,654.82,357.77,655.11z"/>
	<path class="st7" d="M431.81,571.41c1.37,1.26,2.64,2.63,3.81,4.09c1.21,1.78,1.98,3.82,2.24,5.96c0.26,2.14,0.01,4.3-0.73,6.32
		c-1.37,2.3-2.16,4.9-2.29,7.57c0.2,2.25,1.12,4.37,2.62,6.06c1.16,1.62,2.75,2.88,4.59,3.64c0-0.25-1.6-1.6-3.56-4.42
		c-1.19-1.53-1.87-3.39-1.96-5.32c0.23-2.42,1-4.75,2.25-6.84c1.06-2.59,1.3-5.45,0.7-8.18c-0.49-2.14-1.45-4.14-2.82-5.86
		C434.23,571.69,431.85,571.25,431.81,571.41z"/>
	<path class="st7" d="M474.22,601.94c0.49-0.25-0.98-4.1-1.15-9.09c-0.16-4.99,0.94-9,0.45-9.17c-1.87,2.68-2.68,5.96-2.25,9.21
		C471.11,596.17,472.16,599.39,474.22,601.94z"/>
	<path class="st7" d="M504.71,596.83c0,0-0.41-0.49-0.82-1.35c-0.58-1.28-0.74-2.72-0.45-4.09c0.53-3.44,4.09-7.37,6.63-12.28
		c1.33-2.41,2.17-5.05,2.5-7.78c0.25-2.3-0.17-4.61-1.23-6.67c-0.69-1.41-1.83-2.54-3.23-3.23c-1.06-0.45-1.68-0.33-1.68-0.2
		c0,0.12,0.53,0.25,1.31,0.82c1.09,0.82,1.94,1.92,2.46,3.19c0.71,2.17,0.92,4.47,0.62,6.72c-0.3,2.26-1.1,4.42-2.34,6.33
		c-2.58,4.75-5.98,8.96-6.26,13.05c-0.22,1.58,0.18,3.17,1.1,4.46C504.01,596.74,504.67,596.91,504.71,596.83z"/>
	<path class="st7" d="M462.18,578.2c0,0-0.25-0.57-0.94-1.35c-1.03-0.86-1.75-2.04-2.05-3.35c0.36-1.96,1.33-3.76,2.78-5.12
		c1.6-1.76,3.68-3.4,5.81-5.4c2.25-1.81,3.82-4.31,4.46-7.12c0.07-2.34-0.58-4.66-1.84-6.63c-0.91-1.84-2.21-3.46-3.81-4.75
		c0.74,1.86,1.64,3.66,2.7,5.36c0.94,1.8,1.39,3.82,1.31,5.85c-0.72,2.37-2.15,4.47-4.09,6.01c-4.1,3.69-8.6,7.29-8.6,11.95
		c0.43,1.56,1.44,2.89,2.82,3.72C461.61,578,462.1,578.29,462.18,578.2z"/>
	<path class="st7" d="M421.17,572.15c-1.22-1.09-2.09-2.51-2.5-4.1c-0.35-1.64-0.19-3.36,0.45-4.91c0.88-1.98,1.92-3.88,3.11-5.69
		c1.26-1.97,2.12-4.17,2.54-6.47c0.17-1.99-0.33-3.98-1.43-5.65c-1.68-2.9-4.09-3.4-4.09-3.07c1.24,0.99,2.25,2.25,2.95,3.68
		c0.78,1.47,1.09,3.14,0.9,4.79c-0.47,2.06-1.3,4.01-2.46,5.77c-1.26,1.91-2.3,3.95-3.11,6.1c-0.66,1.88-0.66,3.93,0,5.81
		c0.38,1.28,1.21,2.39,2.33,3.11C420.64,572.23,421.17,572.23,421.17,572.15z"/>
	<path class="st3" d="M407.01,571.21c1.67,0.17,3.36,0.17,5.03,0c3.23,0,7.9,0,13.67,0c15.01,0.69,29.83,3.63,43.96,8.72
		c14.06,5.45,27.54,12.29,40.23,20.42l11.62,7.29c1.36,0.99,2.81,1.84,4.34,2.54c-1.27-1.15-2.64-2.19-4.09-3.11
		c-2.58-1.92-6.42-4.62-11.29-7.78c-12.6-8.42-26.11-15.38-40.28-20.75c-14.3-5.14-29.34-7.9-44.53-8.19
		c-4.59-0.1-9.18,0.05-13.75,0.45C410.27,570.79,408.63,570.92,407.01,571.21z"/>
	<path class="st3" d="M512.12,608.82h-0.41l-1.27-0.45l-2-0.82l-2.78-0.98c-5.95-2-12.12-3.28-18.38-3.85
		c-9.28-0.84-18.63-0.52-27.83,0.94c-5.2,0.77-10.6,1.92-16.37,3.23c-5.77,1.31-11.3,2.87-17.03,4.83
		c-23.17,7.45-40.93,22.72-48.46,36.55c-3.1,5.46-5.38,11.35-6.75,17.48c-0.41,1.66-0.74,3.34-0.98,5.03l-0.29,1.31
		c0,0.29,0,0.45,0,0.41c-0.01-0.15-0.01-0.3,0-0.45c0-0.37,0-0.78,0-1.31c0-1.19,0.37-2.91,0.82-5.08
		c1.25-6.22,3.45-12.21,6.51-17.76c7.65-14.12,25.42-29.63,48.79-37.17c5.77-1.97,11.54-3.52,17.15-4.83
		c5.61-1.31,11.01-2.46,16.37-3.19c9.28-1.42,18.7-1.67,28.04-0.74c6.3,0.58,12.5,1.96,18.46,4.09l2.78,1.06l1.96,0.9l1.23,0.57
		C511.99,608.53,512.16,608.78,512.12,608.82z"/>
	<path class="st3" d="M425.96,611.44c0.48-0.05,0.96-0.05,1.43,0c0.94,0,2.33,0,4.09,0.41c5,0.84,9.86,2.31,14.49,4.38
		c15.12,7.19,28.29,17.91,38.39,31.27c5.54,7.3,10.44,15.06,14.65,23.21c3.55,6.63,6.72,13.47,9.49,20.46
		c1.9,4.67,3.46,9.47,4.67,14.37c0.37,1.76,0.65,3.11,0.77,4.1c0.07,0.46,0.07,0.93,0,1.39c-0.18-0.43-0.3-0.89-0.37-1.35
		c-0.21-0.94-0.53-2.25-0.99-4.09c-1.31-4.86-2.95-9.61-4.91-14.25c-2.89-6.86-6.12-13.57-9.7-20.09
		c-4.22-8.08-9.1-15.79-14.61-23.05c-10.01-13.21-22.98-23.91-37.86-31.23c-4.55-2.1-9.33-3.65-14.24-4.63
		c-1.76-0.29-3.11-0.53-4.09-0.61C426.77,611.67,426.36,611.58,425.96,611.44z"/>
	<path class="st3" d="M587.67,1156.99c-10.52-23.94-36.34-53.21-36.34-53.21H363.25c0,0-49.12,64.95-56.69,103.55
		c-4.95,25.58-25.05,209.19-25.66,212.51h-0.25l-66.67,393.13h109.65l127.29-491.16l-2.86,37.29l1.19,453.75h96.02
		c0,0,47.11-417.2,53.95-498.12C606.05,1233.82,611.5,1211.02,587.67,1156.99z"/>
	<path class="st6" d="M437.99,1167.1c-1.34,0.29-2.72,0.43-4.09,0.41l-10.68,0.45l-15.84,0.53h-4.58c-0.89,0.1-1.8,0.01-2.66-0.27
		c-0.86-0.28-1.64-0.75-2.3-1.37c-1.07-1.51-1.57-3.35-1.39-5.2c0-1.68,0-3.4,0.25-5.12c1.19-13.79,3.4-26.11,4.95-35
		c0.78-4.46,1.47-8.18,2.01-10.52c0.19-1.3,0.51-2.57,0.94-3.81c0.03,1.38-0.09,2.75-0.37,4.1c-0.41,2.78-0.94,6.3-1.56,10.56
		c-1.27,8.92-3.32,21.24-4.5,34.91c0,1.72,0,3.4,0,5.03c-0.17,1.43,0.16,2.88,0.94,4.09c0.56,0.48,1.21,0.84,1.92,1.04
		c0.71,0.2,1.45,0.25,2.18,0.14h4.58l15.84-0.2h10.68C435.54,1166.86,436.77,1166.93,437.99,1167.1z"/>
	<path class="st6" d="M428.41,1128.83c0.02,1.76-0.48,3.48-1.44,4.95c-0.96,1.47-2.34,2.61-3.96,3.29
		c-1.62,0.68-3.41,0.85-5.13,0.51c-1.72-0.35-3.3-1.2-4.53-2.45c-1.23-1.25-2.06-2.84-2.38-4.57c-0.32-1.73-0.12-3.51,0.58-5.12
		c0.7-1.61,1.87-2.97,3.35-3.91c1.48-0.94,3.21-1.42,4.97-1.37c2.27,0.05,4.44,0.99,6.03,2.61
		C427.49,1124.38,428.39,1126.56,428.41,1128.83z"/>
	<path class="st6" d="M585.3,1151.83c0.41,0-0.86,1.88-3.73,3.73c-1.76,1.18-3.68,2.13-5.69,2.82l-3.77,1.06l-4.34,0.9
		c-16.02,2.52-32.43,0.12-47.07-6.88c-14.53-6.99-27.43-16.96-37.86-29.26c-3.2-3.65-6.2-7.46-9-11.42
		c-1.02-1.39-1.76-2.54-2.25-3.28c-0.29-0.37-0.51-0.78-0.66-1.23c0,0,1.23,1.47,3.36,4.1c2.13,2.62,5.2,6.59,9.33,11.09
		c10.53,11.96,23.35,21.7,37.7,28.65c14.41,6.83,30.49,9.31,46.29,7.16C579.94,1157.93,585.75,1151.92,585.3,1151.83z"/>
	<path class="st6" d="M374.39,1111.97c0.12,2.41-0.25,4.81-1.06,7.08c-1.7,5.51-4.67,10.55-8.68,14.7c-4,4.15-8.92,7.31-14.37,9.21
		c-2.22,0.9-4.6,1.37-7,1.39c0-0.25,2.62-0.74,6.63-2.37c5.18-2.12,9.88-5.28,13.79-9.29c3.87-4.06,6.86-8.88,8.76-14.16
		C373.77,1114.43,374.14,1111.72,374.39,1111.97z"/>
	<path class="st15" d="M299.24,942.23c0,0-40.93,126.88-34.67,142.4c6.26,15.51,38.02,41.95,54.85,34.17
		c16.82-7.77,59.92-103.22,59.92-103.22v-73.35H299.24z"/>
	<path class="st16" d="M298.87,1013.04c0.33,0.37-4.09,4.09-7.61,9.95c-3.52,5.85-5.61,11.13-6.02,10.97
		C286.91,1025.48,291.79,1017.99,298.87,1013.04z"/>
	<path class="st16" d="M329.57,1031.22c0.17,1.53-0.01,3.08-0.51,4.54c-0.5,1.46-1.32,2.79-2.39,3.89c-0.87,1.27-2,2.34-3.33,3.13
		c-1.32,0.79-2.8,1.29-4.33,1.46c2.43-1.6,4.68-3.45,6.71-5.53C327.28,1036.36,328.57,1033.85,329.57,1031.22z"/>
	<path class="st3" d="M429.44,742.7c0,0.33,2.46,1.72,7,2.25h1.8c0.78,0.03,1.56-0.15,2.25-0.53c1.36-0.76,2.53-1.8,3.44-3.07
		c0.85-1.56,1.16-3.36,0.9-5.12l-0.41-4.91c0.05-1.91-0.57-3.78-1.76-5.28c-0.71-0.57-1.53-0.98-2.42-1.21
		c-0.88-0.23-1.8-0.26-2.7-0.1c-2.72,0.22-5.39,0.92-7.86,2.09c-2.31,0.91-4.3,2.47-5.73,4.5c0,0.29,2.37-1.51,6.47-3.07
		c2.36-0.88,4.85-1.39,7.37-1.51c0.64-0.11,1.29-0.08,1.91,0.07c0.63,0.16,1.21,0.44,1.73,0.83c0.81,1.2,1.21,2.64,1.1,4.09
		c0.21,3.36,1.15,6.88,0,8.88c-0.72,1.02-1.62,1.89-2.66,2.58c-0.42,0.3-0.92,0.45-1.43,0.45c-0.53,0-1.15,0-1.68,0
		C432.14,743.35,429.56,742.54,429.44,742.7z"/>
	<path class="st9" d="M383.92,806.18c-8.01-0.25-15.98,1.23-23.37,4.34c-15.18,6.55-31.64,18.46-36.84,31.72
		c-6.88,17.64-24.56,99.99-24.56,99.99l63.4,9.49c0,0-6.71,32.74,5.2,54.15l16.37,29.35l203.54,4.46l15.76-164.33l4.71-38.56
		l5.98-52.84l-66.96-19.89l-11.14,25.87c-9.41-2.33-17.93,2.5-25.95,10.97c0,0-3.23,36.84-40.24,41.5
		c-17.19,2.13-31.23-5.11-39.78-9.86c-2.86-1.63-5.27-3.95-7.02-6.74c-1.75-2.79-2.78-5.97-3.01-9.26l0.29-9.94L383.92,806.18z"/>
	<path class="st3" d="M349.42,931.39c-1.16-5.57-1.68-11.26-1.56-16.95c-0.39-5.68-0.16-11.39,0.7-17.03
		c0.62,5.64,0.88,11.32,0.78,16.99C349.71,920.06,349.74,925.73,349.42,931.39z"/>
	<path class="st3" d="M506.79,832.21c0,0,0,0.33-0.7,0.86s-1.27,1.31-2.33,2.17c-2.97,2.56-6.17,4.82-9.58,6.75
		c-11.29,6.55-24.27,9.62-37.31,8.8c-13.03-0.81-25.53-5.47-35.92-13.38c-3.13-2.36-6.03-5-8.68-7.9c-0.94-1.02-1.56-1.88-2.05-2.46
		c-0.49-0.57-0.65-0.9-0.61-0.94c3.72,3.77,7.72,7.26,11.95,10.44c10.33,7.51,22.57,11.92,35.32,12.73
		c12.74,0.8,25.45-2.04,36.64-8.18C498.17,838.47,502.6,835.5,506.79,832.21z"/>
	<g class="st17">
		<path d="M411.67,828.28c4.53,7.8,10.78,14.45,18.28,19.45c7.5,5,16.05,8.22,24.98,9.4c16.37,1.96,34.09-1.76,45.6-13.47
			c1.02-1.06,2.01-2.91,0.86-3.89c-1.14-0.98-1.92-0.33-2.86,0c-14.2,5.32-28.32,11.18-43.47,10.36
			c-16.75-1.43-32.29-9.27-43.39-21.9"/>
	</g>
	<path class="st3" d="M538.27,836.3c-2.34-7.13-3.84-14.5-4.46-21.98c0.07-7.51,0.99-15,2.74-22.31
		c-3.75,6.83-5.41,14.62-4.79,22.39C531.73,822.19,533.99,829.81,538.27,836.3z"/>
	<path class="st3" d="M598.72,865.33c0-0.37-3.07-1.27-7.29-4.09c-5.46-3.97-9.94-9.13-13.1-15.1c-3.1-6.05-5.58-12.4-7.41-18.95
		c-0.61-2.82-1.55-5.57-2.78-8.18c0.07,2.87,0.53,5.72,1.35,8.47c1.47,6.79,3.84,13.36,7.04,19.53c3.29,6.24,8.14,11.53,14.08,15.35
		C593.01,864.03,595.81,865.06,598.72,865.33z"/>
	<path class="st12" d="M630.24,932.16h-306.4v178.54h306.4V932.16z"/>
	<path class="st3" d="M630.24,1110.7c0,0,0-1.15,0-3.23c0-2.09,0-5.28,0-9.38c0-8.18,0-20.46,0-35.77c0-30.9,0-75.47-0.33-130.16
		l0.57,0.57H324.13l0.74-0.74c0,63.2,0,123.57,0,178.54l-0.7-0.7l220.36,0.33h63.28h16.9h-16.74h-63.15L324,1110.5h-0.66v-0.66
		c0-54.97,0-115.34,0-178.54v-0.74h0.78h306.36h0.57v0.57c0,54.84,0,99.5-0.29,130.53c0,15.43,0,27.42,0,35.61c0,4.1,0,7.16,0,9.29
		C630.77,1108.7,630.24,1110.7,630.24,1110.7z"/>
	<path class="st15" d="M311.97,986.44c-1.69-1.12-2.94-2.8-3.51-4.75c-0.58-1.95-0.45-4.03,0.36-5.9c1.76-3.66,4.38-6.84,7.65-9.25
		c1.1-1.18,2.52-2,4.09-2.38c1.33-0.07,2.65,0.25,3.81,0.9c7.31,3.34,13.37,8.92,17.31,15.92c0.53,0.83,0.81,1.8,0.78,2.78
		c-0.2,0.71-0.64,1.33-1.25,1.75c-0.6,0.43-1.33,0.63-2.07,0.58c-1.53-0.13-2.98-0.78-4.09-1.84c3.78,0.97,7.21,2.98,9.9,5.81
		c1.17,1.06,2.1,2.36,2.73,3.8c0.63,1.44,0.96,3.01,0.95,4.59c-0.08,1.57-0.78,3.05-1.93,4.13s-2.68,1.67-4.25,1.64
		c0.89,0.61,1.65,1.39,2.23,2.3c0.58,0.91,0.96,1.93,1.13,3c0.17,1.06,0.12,2.15-0.15,3.2s-0.75,2.02-1.41,2.88
		c4.71,0,6.79,6.84,4.09,10.68c-1.57,1.77-3.51,3.17-5.68,4.11c-2.17,0.93-4.52,1.38-6.89,1.3c-2.21-0.08-4.39,0.46-6.3,1.56
		c-2.29,1.76-2.82,5.12-5.08,6.88c-1.66,0.96-3.64,1.22-5.49,0.72c-1.85-0.49-3.44-1.69-4.41-3.35c-1.78-3.42-2.55-7.29-2.21-11.13
		c0.12-1.06-0.1-2.13-0.61-3.07c-0.64-0.7-1.4-1.29-2.25-1.72c-1.12-0.77-1.99-1.84-2.52-3.09c-0.53-1.25-0.69-2.62-0.47-3.95
		c0.27-1.34,0.92-2.56,1.87-3.54c0.95-0.97,2.17-1.65,3.49-1.95c-1.93-1.12-3.44-2.83-4.32-4.88c-0.88-2.05-1.07-4.33-0.55-6.5
		c1.26-4.33,3.48-8.32,6.51-11.66"/>
	<path class="st16" d="M320.4,1045.3c-0.59-0.05-1.18-0.2-1.72-0.45c-1.62-0.61-3.09-1.54-4.34-2.74c-1.94-1.9-3.24-4.36-3.72-7.04
		c-0.55-3.54,0.3-7.15,2.37-10.07l0.29,0.82c-1.52-0.37-2.93-1.12-4.08-2.19c-1.15-1.07-2-2.42-2.47-3.91
		c-0.5-1.67-0.51-3.45-0.04-5.13c0.47-1.68,1.41-3.19,2.7-4.36v0.86c-1.73-1.98-2.94-4.36-3.52-6.92c-0.74-3.02-0.65-6.19,0.26-9.16
		c0.91-2.97,2.6-5.65,4.9-7.74v0.74c-1.25-1.94-2.06-4.14-2.39-6.42s-0.15-4.62,0.5-6.84c1.11-3.39,3.37-6.29,6.39-8.19
		c1.97-1.24,4.19-2.04,6.51-2.33c0.61-0.06,1.23-0.06,1.84,0h0.61c0,0-0.86,0-2.41,0.33c-2.2,0.42-4.29,1.28-6.14,2.53
		c-2.86,1.94-4.94,4.85-5.85,8.19c-0.57,2.06-0.7,4.23-0.38,6.34s1.09,4.14,2.26,5.94l0.29,0.45l-0.41,0.33
		c-2.1,1.98-3.65,4.48-4.48,7.25c-0.83,2.77-0.91,5.7-0.23,8.51c0.53,2.38,1.64,4.58,3.23,6.42l0.37,0.45l-0.45,0.37
		c-1.11,1.02-1.92,2.32-2.34,3.76c-0.42,1.44-0.43,2.97-0.04,4.43c0.42,1.32,1.16,2.51,2.16,3.46c1,0.95,2.23,1.64,3.57,1.98h0.78
		l-0.49,0.62c-1.94,2.7-2.78,6.04-2.33,9.33c0.38,2.53,1.54,4.87,3.32,6.71C316.46,1043.22,318.33,1044.47,320.4,1045.3z"/>
	<path class="st16" d="M314.06,986.72c1-1.05,2.21-1.86,3.56-2.37c3.22-1.48,6.74-2.21,10.28-2.13c3.54,0.08,7.03,0.96,10.18,2.57
		c1.33,0.56,2.52,1.42,3.48,2.5c-1.32-0.51-2.6-1.09-3.85-1.76c-3.1-1.27-6.4-1.96-9.74-2.05c-3.36-0.07-6.7,0.49-9.86,1.64
		C315.53,986.03,314.14,986.89,314.06,986.72z"/>
	<path class="st16" d="M314.43,1006.29c0,0,0-2.01,2.58-3.72c1.42-0.94,3.05-1.51,4.75-1.68c2-0.2,4.02-0.2,6.02,0
		c3.61,0.33,7.19,0.99,10.68,1.97c1.43,0.29,2.81,0.8,4.09,1.51c0,0.37-6.67-1.47-15.02-2.25c-1.91-0.24-3.84-0.32-5.77-0.25
		c-1.55,0.1-3.06,0.55-4.42,1.31C316.16,1004,315.17,1005.06,314.43,1006.29z"/>
	<path class="st16" d="M317.54,1024.83c0.08-1.53,0.71-2.98,1.76-4.1c2.46-2.89,5.9-4.77,9.66-5.28c3.64-0.47,7.31-0.59,10.97-0.37
		c1.53-0.07,3.05,0.07,4.54,0.41c-1.49,0.35-3.02,0.5-4.54,0.45c-3.6,0.03-7.19,0.26-10.76,0.7c-3.51,0.48-6.75,2.12-9.21,4.67
		C319.03,1022.4,318.22,1023.58,317.54,1024.83z"/>
	<path class="st7" d="M205.1,615.94l43.79-56.19l10.72,70.68l57.83-1.96l-42.85,56.28l52.39,42.36l-67.29-12.48l-11.01,57.75
		l-48.79-47.32l-61.44,42.73l13.47-62.09l-69.74-10.97l54.23-32.01l-31.6-54.56l55.05,31.19l5.73-77.23L205.1,615.94z"/>
	<path class="st3" d="M205.1,615.94c0,0-0.9-1.1-2.62-3.4l-7.74-10.31c-6.84-9.17-16.82-22.59-29.59-39.83l0.94-0.24
		c-1.51,21-3.4,47.11-5.57,77.27v1.14l-0.98-0.57l-55.09-31.11l1.15-1.14l31.84,54.47l0.45,0.82l-0.78,0.45l-54.23,32.05l-0.33-1.8
		l69.58,10.93h1.06l-0.2,1.06c-4.09,19.77-8.84,40.93-13.47,62.09l-1.64-1.1l57.92-40.23l3.52-2.46l0.74-0.49l0.61,0.61l48.79,47.28
		l-1.76,0.57c3.74-19.65,7.41-38.88,11.01-57.71v-1.02l1.02,0.2l67.29,12.28l-0.82,1.76c-18.23-14.73-35.69-28.87-52.39-42.4
		l-0.7-0.58l0.57-0.74c15.2-19.89,29.51-38.62,42.94-56.2l0.7,1.31l-57.83,1.84h-0.49v-0.66c-4.15-27.59-7.65-51.15-10.52-70.69
		l0.9,0.25c-14.28,18.13-25.34,32.13-32.74,41.67l-8.68,11.3l-2.86,3.52c0,0,0.94-1.35,2.82-3.81c1.88-2.46,4.75-6.14,8.39-10.93
		l32.17-42l0.74-0.98v1.23c3.03,19.54,6.67,43.09,10.93,70.64l-0.74-0.61l57.79-2.05h1.76l-1.06,1.39l-42.57,56.28v-1.27
		l52.43,42.28l3.07,2.46l-3.85-0.7l-67.33-12.28l1.23-0.82c-3.6,18.83-7.27,38.08-11.01,57.75l-0.37,1.92l-1.39-1.39l-48.95-47.44
		h1.35l-3.52,2.46l-57.92,40.36l-2.21,1.52l0.57-2.62c4.63-21.37,9.17-42.32,13.47-62.09l0.86,1.27l-69.58-11.05l-2.7-0.41
		l2.37-1.39l54.11-32.13l-0.33,1.27l-31.56-54.48l-1.56-2.66l2.7,1.51l55.01,31.31l-1.11,0.58c2.33-30.13,4.34-56.24,5.98-77.23
		v-1.39l0.82,1.11l28.81,39.99c3.32,4.54,5.81,8.19,7.57,10.52S205.1,615.94,205.1,615.94z"/>
	<path class="st11" d="M190.04,643.45l1.84,29.22c0.07,1.16,0.56,2.26,1.38,3.08s1.92,1.31,3.08,1.38c1.19,0.06,2.37-0.32,3.29-1.08
		c0.92-0.76,1.53-1.83,1.7-3.02l3.23-29.39c0.05-0.52-0.01-1.04-0.17-1.54c-0.16-0.5-0.43-0.95-0.78-1.34
		c-0.35-0.38-0.78-0.69-1.26-0.9c-0.48-0.21-0.99-0.32-1.52-0.32h-7.16c-0.5,0-0.99,0.11-1.45,0.31c-0.46,0.2-0.87,0.49-1.21,0.85
		c-0.34,0.36-0.6,0.79-0.77,1.26C190.08,642.45,190.01,642.95,190.04,643.45z"/>
	<path class="st11" d="M204.08,693.54c-0.45,1.34-1.28,2.51-2.39,3.38c-1.11,0.87-2.46,1.38-3.86,1.48
		c-1.41,0.1-2.81-0.22-4.03-0.92c-1.22-0.7-2.21-1.75-2.84-3.01c-0.63-1.26-0.87-2.68-0.7-4.07c0.18-1.4,0.76-2.71,1.69-3.78
		c0.92-1.06,2.14-1.83,3.5-2.2c1.36-0.37,2.8-0.33,4.13,0.11c1.79,0.6,3.27,1.88,4.11,3.57
		C204.54,689.8,204.67,691.75,204.08,693.54z"/>
	<path class="st11" d="M214.64,643.45l1.88,29.22c0.06,1.16,0.54,2.25,1.36,3.07c0.82,0.82,1.91,1.32,3.06,1.39
		c1.2,0.07,2.37-0.31,3.3-1.07c0.93-0.76,1.53-1.84,1.69-3.03l3.27-29.39c0.05-0.52-0.02-1.05-0.19-1.54
		c-0.17-0.49-0.44-0.95-0.79-1.33c-0.35-0.39-0.79-0.69-1.26-0.9c-0.48-0.21-1-0.32-1.52-0.32h-7.12c-0.5,0-0.99,0.11-1.45,0.31
		c-0.46,0.2-0.87,0.49-1.22,0.85c-0.34,0.36-0.61,0.79-0.79,1.26C214.69,642.45,214.62,642.95,214.64,643.45z"/>
	<path class="st11" d="M228.72,693.54c-0.44,1.34-1.27,2.51-2.38,3.38c-1.11,0.87-2.45,1.38-3.86,1.49c-1.4,0.1-2.81-0.21-4.03-0.91
		c-1.23-0.69-2.22-1.73-2.85-2.99c-0.63-1.26-0.88-2.67-0.71-4.07c0.17-1.4,0.75-2.71,1.67-3.78c0.92-1.07,2.13-1.84,3.49-2.22
		c1.36-0.38,2.79-0.35,4.13,0.09c1.79,0.6,3.27,1.88,4.12,3.57C229.15,689.79,229.3,691.75,228.72,693.54z"/>
	<text transform="matrix(1 0 0 1 400.0801 1039.6865)" class="st13 st18">GO !!!</text>
	<text transform="matrix(0.9909 0.1345 -0.1345 0.9909 1650.4447 561.4608)" class="st13 st19">COME ON !</text>
</g>
</svg>
