<?xml version="1.0" encoding="UTF-8"?>
<svg id="Layer_1" data-name="Layer 1" xmlns="http://www.w3.org/2000/svg" viewBox="0 0 1000 1000">
  <defs>
    <style>
      .cls-1, .cls-2, .cls-3, .cls-4, .cls-5, .cls-6, .cls-7, .cls-8, .cls-9, .cls-10 {
        stroke-width: 0px;
      }

      .cls-1, .cls-6, .cls-9 {
        fill: #000;
      }

      .cls-2 {
        fill: #e0e0e0;
      }

      .cls-11, .cls-6 {
        opacity: .2;
      }

      .cls-3 {
        fill: #455a64;
      }

      .cls-4 {
        fill: #f5f5f5;
      }

      .cls-5 {
        fill: #09f;
      }

      .cls-6, .cls-9 {
        isolation: isolate;
      }

      .cls-7 {
        fill: #ebebeb;
      }

      .cls-8 {
        fill: #263238;
      }

      .cls-12, .cls-9 {
        opacity: .3;
      }

      .cls-10 {
        fill: #fff;
      }
    </style>
  </defs>
  <path class="cls-7" d="M457.36,154.18c-3.22-2.79-7.09-4.74-11.25-5.68-41.29-10.32-85.42,4.13-118.25,30.64-2.6,2.11-5.13,4.27-7.6,6.5-61.84,55.85-142.65,85.99-225.86,81.16h-.78c-12.99,14.27-16.52,35.51-12.2,54.3,4.32,18.79,15.88,35.33,29.65,48.83,8.4,8.26,18.23,16.39,20.87,27.87,3.37,14.6-6.36,29.18-17.96,38.65-11.6,9.48-25.5,15.98-36.01,26.82-19.99,20.65-22.34,55.97-5.24,79.08,17.1,23.1,51.62,31.22,77.14,18.15,17.16-8.73,33.39-26.16,52.36-18.58,4.58,1.92,8.58,5,11.62,8.92,9.27,11.52,11.35,26.02,17.28,38.92,12.57,27.48,43.26,45.22,73.4,43.36,30.14-1.86,58.12-22.5,69.6-50.46,11.48-27.96,6.42-61.76-11.89-85.79-7.87-10.32-18.13-19.24-19.66-33.22-.39-3.04-.02-6.13,1.09-8.99,1.11-2.86,2.91-5.4,5.25-7.38,9.37-7.56,21.62-1.49,32.85.23,8.68,1.33,17.55-.11,25.37-4.1s14.18-10.34,18.2-18.14c4.02-7.81,5.48-16.68,4.18-25.36-1.3-8.68-5.3-16.73-11.42-23.02-11.79-12.1-32.54-20.4-23.21-41.17,1.66-3.65,3.9-6.99,6.65-9.91,28.66-30.87-11.07-80.77,12.9-110.96,8.26-10.32,21.82-14.7,33.03-21.99,12.86-8.32,23.56-26.35,9.89-38.69Z"/>
  <path class="cls-7" d="M735.31,754.41c-11.75-8.47-25.44-17.53-27.77-31.82-2.52-15.34,9.37-29.13,21.43-38.94,12.06-9.81,26.06-19.37,30.45-34.27,6.2-21.18-11.25-43.5-32.17-50.56-20.91-7.06-43.79-2.95-65.41,1.55-60.35,12.57-120.1,27.73-179.85,42.88l-106.83,22.3c-11.64,16.64-7.45,40.73,5.33,56.51,12.78,15.77,32.25,24.63,51.62,30.41,11.23,3.35,24.28,7.16,28.76,17.98,5.59,13.57-5.93,27.44-13.89,39.77-20.85,32.27-17.84,78.89,9.08,106.31,26.93,27.42,75.82,30.41,104.14,4.48,11.09-10.16,18.58-23.52,28.51-34.85,9.93-11.33,23.6-21.08,38.57-19.9,14.45,1.13,25.93,11.87,38.3,19.39,22.71,13.83,52.09,17.12,76.39,6.4,24.3-10.71,42.3-36.13,41.89-62.7-.45-30.93-23.43-57-48.56-74.93Z"/>
  <path class="cls-7" d="M845.56,284.07c-.52-18.58-3.72-41.07-20.94-47.8-7.93-3.1-18.11-2.33-23.37-9.02-4.85-6.19-2.44-15.53,2.33-21.76,4.77-6.24,11.46-10.82,16.17-17.12,4-5.28,6.43-11.58,7-18.18.57-6.6-.74-13.23-3.78-19.11-3.04-5.89-7.68-10.79-13.39-14.15-5.71-3.36-12.25-5.03-18.88-4.83-20.65.54-38.03,18.75-58.6,17.67-36.83-1.92-49.8-60.66-86.72-63.06l-70.61,18.58c-7.59,14.49-10.78,30.88-9.19,47.16,1.59,16.28,7.9,31.74,18.15,44.49,4.56,5.49,10.1,10.86,11.23,17.9,1.84,11.36-8.71,21.14-19.49,25.17-10.78,4.03-22.81,4.75-32.83,10.45-19.95,11.31-24.94,40.32-14.02,60.52,10.92,20.19,33.82,31.67,56.61,34.31,12.39,1.45,26.12,1.14,35.35,9.46,9.79,8.86,10.32,23.72,11.17,36.92,2.06,32.85,12.64,68.13,40.12,86.36,9.19,6.05,19.73,9.77,30.68,10.82,10.96,1.05,22-.59,32.18-4.78,10.18-4.19,19.18-10.81,26.21-19.28,7.04-8.46,11.9-18.52,14.16-29.29,4.4-21-.99-44.52,9.93-62.97,12.72-21.54,43.13-27.96,54.84-50.05,6.34-11.52,6.03-25.29,5.68-38.4Z"/>
  <path class="cls-7" d="M60.57,575.79l-14.29,37.27c-.54,2.09-.51,4.29.08,6.37.59,2.08,1.72,3.96,3.27,5.46l27.19,26.28s52.67-4.94,56.61-30.19c.39-2.64,2.25-11.11-.62-13.57-18.93-16.39-72.24-31.63-72.24-31.63Z"/>
  <path class="cls-4" d="M61.52,574.78l-10.7,30.29c-.62,1.76-.68,3.67-.17,5.46.51,1.8,1.55,3.39,3,4.57l26.26,21.22s64.71-12.39,52.9-28.9c-8.96-12.53-43.65-28.76-59.88-37.17-1.04-.52-2.17-.81-3.33-.86-1.16-.05-2.31.15-3.39.57s-2.05,1.07-2.86,1.9c-.81.83-1.44,1.82-1.84,2.9Z"/>
  <path class="cls-7" d="M821.55,684.45l-10.43,27.13c-.38,1.52-.36,3.12.07,4.63.43,1.51,1.25,2.88,2.38,3.97l19.78,19.06s38.36-3.59,41.29-21.97c.31-1.92,1.65-8.07-.43-9.87-13.87-11.87-52.67-22.96-52.67-22.96Z"/>
  <path class="cls-4" d="M822.23,683.67l-7.78,22.05c-.46,1.28-.5,2.67-.13,3.98.37,1.31,1.14,2.47,2.2,3.33l19.12,15.46s47.12-9.09,38.51-21.08c-6.52-9.13-31.8-20.94-43.57-27.05-.75-.39-1.58-.62-2.43-.67-.85-.04-1.7.09-2.49.41-.79.31-1.51.79-2.09,1.41-.59.61-1.04,1.35-1.32,2.15Z"/>
  <path class="cls-7" d="M41.74,732.77s-9.19,21.45-6.05,30.54c3.26,9.44,34.44,4.01,34.44,4.01,0,0,9.37-33.24-28.39-34.54Z"/>
  <path class="cls-4" d="M51.53,729.82c-5.88-2.93-12.9,2.33-14.31,8.77-1.73,7.85-4.13,16.52.64,19.33,8.26,4.77,28.58,2.33,28.58,2.33,0,0,11.93-16.99-14.91-30.43Z"/>
  <path class="cls-7" d="M899.9,365.89s-7.83,18.23-5.16,25.97c2.66,7.74,29.32,3.41,29.32,3.41,0,0,7.95-28.26-24.16-29.38Z"/>
  <path class="cls-4" d="M908.16,363.4c-5-2.52-10.98,2.06-12.18,7.43-1.47,6.69-3.55,14.1.54,16.52,7.1,4.13,24.32,2.06,24.32,2.06,0,0,10.2-14.6-12.68-26.01Z"/>
  <path class="cls-7" d="M160.75,106.38s-7.78,18.29-5.12,25.95c2.77,8.05,29.3,3.43,29.3,3.43,0,0,7.97-28.27-24.18-29.38Z"/>
  <path class="cls-4" d="M169.11,103.87c-5.02-2.5-10.98,2.06-12.18,7.45-1.49,6.69-3.57,14.1.54,16.52,7.1,4.13,24.32,2.06,24.32,2.06,0,0,10.14-14.6-12.68-26.04Z"/>
  <path class="cls-4" d="M271.13,751.41s-22.26,43.36-11.46,75.9c0,0-42.26-6.65-53.1,33.24,0,0-44.31.31-47.49,33.76,0,0-46.58-5.66-60.1,20.52,0,0,21.8-37.16,17.53-50.73,0,0,40.12-13.32,37.39-53.99,0,0,38.13-10.86,38.11-47.34.06,0,62.62,2.23,79.12-11.36Z"/>
  <path class="cls-2" d="M107.89,906.41c.17-.1.32-.21.45-.35l1.28-1.12,4.83-4.34,17.63-16.12c14.84-13.67,35.31-32.62,57.81-53.68,22.5-21.06,42.95-40.03,57.65-53.87l17.38-16.42,4.69-4.5,1.2-1.2c.27-.27.41-.41.39-.43-.02-.02-.17.1-.45.35l-1.28,1.11-4.83,4.36-17.63,16.15c-14.84,13.67-35.31,32.62-57.81,53.68-22.5,21.06-42.9,39.99-57.67,53.83l-17.38,16.41-4.69,4.5-1.2,1.2c-.15.12-.27.27-.37.43Z"/>
  <path class="cls-2" d="M197.91,852.04c.85-2.07,1.54-4.2,2.06-6.38,1.18-3.97,2.85-9.44,4.79-15.44,1.94-6.01,3.84-11.4,5.22-15.32.86-2.07,1.55-4.2,2.06-6.38-1.11,1.98-2.04,4.05-2.79,6.2-1.57,3.84-3.57,9.21-5.53,15.24-1.96,6.03-3.51,11.56-4.5,15.59-.64,2.12-1.09,4.3-1.32,6.5Z"/>
  <path class="cls-2" d="M183.85,810.61c.71-.14,1.41-.37,2.06-.68,1.28-.5,3.1-1.24,5.35-2.19,4.5-1.9,10.67-4.58,17.49-7.62,6.81-3.03,12.92-5.82,17.34-7.91,2.21-1.03,5.99-.54,7.23-1.16,1.24-.62-.15-2.35-.19-2.42-.72.12-1.41.34-2.06.66-1.26.5-3.1,1.24-5.35,2.19-4.5,1.9-10.67,4.58-17.47,7.62-6.79,3.04-12.93,5.84-17.34,7.91-2.21,1.05-3.98,1.9-5.2,2.52-.67.27-1.29.63-1.86,1.07Z"/>
  <path class="cls-2" d="M153.07,889.25s.27-.54.56-1.53c.29-.99.68-2.54,1.14-4.27.99-3.57,2.44-8.51,4.4-13.83,1.96-5.33,4.01-10.03,5.57-13.4.95-1.79,1.77-3.63,2.46-5.53-1.24,1.61-2.3,3.34-3.16,5.18-2.28,4.31-4.26,8.77-5.93,13.36-1.69,4.58-3.07,9.28-4.13,14.04-.39,1.84-.66,3.33-.81,4.36-.12.54-.15,1.08-.1,1.63Z"/>
  <path class="cls-4" d="M297.7,753.56s16.68,30.97,40.45,37.87c0,0-21.25,22.4-1.96,45.17,0,0-17.94,26.47.66,42.02,0,0-22.42,25.38-12.39,44.14,0,0-13.17-28.18-23-31.2,0,0,8.48-29.3-16.81-44.33,0,0,9.15-27.11-12.57-42.02.02,0,27.01-36.36,25.62-51.66Z"/>
  <path class="cls-2" d="M323.09,914.05v-.41c0-.27,0-.7-.15-1.22l-.62-4.67c-.56-4.13-1.38-9.87-2.4-17.08-2.06-14.45-4.95-34.36-8.26-56.34-3.3-21.99-6.2-41.91-8.45-56.33-1.11-7.18-2.06-13.01-2.64-17.05-.33-2.06-.6-3.55-.76-4.62,0-.52-.17-.93-.23-1.22-.06-.29,0-.39-.1-.39s0,.15,0,.41,0,.7.15,1.22l.62,4.65c.56,4.13,1.38,9.89,2.4,17.09,2.06,14.45,4.95,34.36,8.26,56.35,3.3,21.99,6.19,41.91,8.44,56.32,1.12,7.19,2.07,13.01,2.64,17.05.33,2.06.58,3.55.76,4.63.1.52.17.91.23,1.2,0,.14.04.28.1.41Z"/>
  <path class="cls-2" d="M327.58,838.27c-.86-1.37-1.85-2.66-2.93-3.86-1.88-2.33-4.44-5.55-7.23-9.17-2.79-3.61-5.2-6.96-6.96-9.37-.89-1.35-1.89-2.64-2.97-3.84.7,1.45,1.54,2.83,2.5,4.13,1.65,2.5,4.02,5.9,6.79,9.54,2.77,3.63,5.45,6.79,7.43,9.04,1,1.29,2.13,2.47,3.37,3.53Z"/>
  <path class="cls-2" d="M297.18,829.66c.21-.47.36-.97.43-1.49.23-.95.54-2.33.89-4.13.72-3.45,1.65-8.26,2.62-13.5.97-5.24,1.82-10.08,2.4-13.57.29-1.73.49-3.14.64-4.13.1-.5.14-1.02.12-1.53-.22.46-.37.96-.44,1.47-.23.95-.54,2.35-.89,4.13-.72,3.45-1.65,8.26-2.62,13.52-.97,5.27-1.82,10.08-2.4,13.55-.29,1.73-.49,3.14-.64,4.13-.1.51-.14,1.03-.12,1.55Z"/>
  <path class="cls-2" d="M331.37,880.14s-.21-.37-.7-.95l-2.06-2.41c-1.74-2.07-4.13-4.94-6.42-8.26-2.29-3.32-4.34-6.48-5.7-8.8-.67-1.29-1.43-2.53-2.27-3.72.43,1.39,1.03,2.73,1.78,3.98,3.29,6.24,7.39,12.02,12.2,17.18.93.99,1.69,1.75,2.25,2.27.56.52.89.74.93.7Z"/>
  <path class="cls-4" d="M233.65,720.09s-24.36-4.46-38.59,5.55c0,0-2.95-21.51-23.95-20.93,0,0-6.65-21.51-23.37-18.11,0,0-4.13-23.48-18.79-26.22,0,0,21.27,5.16,27.23,1.09,0,0,12.39,17.55,31.73,10.32,0,0,10.88,16.93,28.62,11.58-.04-.06,8.09,30.68,17.12,36.71Z"/>
  <path class="cls-2" d="M134.34,663.56l.25.16.72.46,2.83,1.71,10.32,6.19c8.84,5.2,21.06,12.39,34.56,20.26,13.5,7.87,25.77,15.01,34.65,20.13l10.53,6.05,2.87,1.61.76.41c.17.1.27.15.27.12l-.25-.17-.72-.45-2.83-1.71-10.32-6.19c-8.84-5.22-21.06-12.39-34.56-20.27-13.5-7.89-25.77-15.09-34.65-20.21l-10.53-6.03-2.87-1.61-.76-.41c-.17-.04-.27-.17-.27-.04Z"/>
  <path class="cls-2" d="M173.98,699.24c1.13.08,2.27.08,3.41,0h8.26c3.24,0,6.19.19,8.26.29,1.14.08,2.29.08,3.43,0-1.11-.26-2.25-.42-3.39-.47-2.06-.19-5.02-.37-8.26-.45-3.24-.08-6.19,0-8.26.1-1.16.08-2.32.26-3.45.54Z"/>
  <path class="cls-2" d="M192.07,686.27c.17.32.38.61.62.89.43.56,1.07,1.32,1.86,2.29,1.57,1.9,3.8,4.5,6.19,7.37,2.4,2.87,4.75,5.43,6.4,7.27.83.93,1.51,1.67,2.06,2.07.23.28.5.52.78.74,0,0-.19-.35-.62-.89-.43-.54-1.05-1.32-1.84-2.29-1.59-1.9-3.8-4.5-6.19-7.37-2.39-2.87-4.73-5.43-6.38-7.27l-2.06-2.17c-.52-.33-.78-.64-.83-.64Z"/>
  <path class="cls-2" d="M149.31,682.91c.27.06.55.06.83,0h2.25c1.88,0,4.5,0,7.37.1,2.87.1,5.47.47,7.33.74,1.01.2,2.03.33,3.06.37-.97-.36-1.97-.61-2.99-.76-2.43-.48-4.9-.79-7.37-.93-2.47-.16-4.94-.16-7.41,0-.95,0-1.71.17-2.25.25-.28.03-.55.1-.81.23Z"/>
  <path class="cls-4" d="M206.81,746.95s-11.64,4.13-15.3,12.08c0,0-6.67-8.57-15.61-3.06,0,0-8.26-7.64-14.64-2.06,0,0-7.66-9.13-14.7-6.63,0,0,10.49-3.1,12.06-6.36,0,0,9.75,4.5,16.29-3.51,0,0,8.96,4.6,15.3-2.17,0,.08,11.19,11.36,16.6,11.71Z"/>
  <path class="cls-2" d="M149.66,747.34h8.3l20.03.1h27.75-7.72l-20.03-.1h-28.33Z"/>
  <path class="cls-2" d="M175.78,752.9c.51-.24,1.01-.52,1.49-.83.93-.54,2.06-1.26,3.57-2.06,1.51-.81,2.7-1.45,3.63-1.94.52-.23,1.02-.51,1.49-.83-.54.17-1.07.4-1.57.66-.97.43-2.27,1.07-3.68,1.86-1.4.78-2.66,1.53-3.55,2.06-.49.31-.96.67-1.38,1.07Z"/>
  <path class="cls-2" d="M180.38,742.78s.17,0,.47.23l1.38.52c1.16.44,2.77,1.01,4.56,1.63l4.58,1.55,1.4.43.52.12c-.15-.1-.32-.18-.5-.23-.31-.15-.78-.31-1.36-.54l-4.56-1.61c-1.78-.62-3.41-1.18-4.58-1.55l-1.4-.44c-.16-.07-.34-.11-.52-.12Z"/>
  <path class="cls-2" d="M161.02,752.01c.13-.05.26-.12.37-.21l.95-.58c.81-.5,1.92-1.16,3.22-1.8,1.3-.64,2.48-1.18,3.34-1.53.49-.17.96-.36,1.42-.6-.51.09-1.01.23-1.49.41-1.17.41-2.32.89-3.43,1.45-1.1.56-2.16,1.2-3.18,1.9l-.91.66c-.21.17-.33.27-.31.29Z"/>
  <path class="cls-2" d="M305.28,731.38c-.25-3.47-1.51-6.78-3.64-9.53-2.13-2.75-5.03-4.8-8.32-5.9-3.3-1.1-6.84-1.2-10.2-.28-3.35.92-6.36,2.81-8.64,5.43-2.28,2.62-3.73,5.87-4.16,9.31-.44,3.45.16,6.95,1.71,10.06,1.55,3.11,3.99,5.69,7.01,7.41,3.02,1.72,6.48,2.51,9.94,2.27,4.65-.33,8.97-2.5,12.03-6.02,3.05-3.52,4.59-8.1,4.26-12.75Z"/>
  <path class="cls-2" d="M262.02,733.76c-.18-2.52-1.1-4.93-2.65-6.93-1.55-2-3.66-3.49-6.06-4.29-2.4-.8-4.98-.87-7.42-.2-2.44.67-4.63,2.04-6.28,3.95-1.66,1.91-2.71,4.27-3.02,6.78-.31,2.51.12,5.05,1.25,7.31,1.13,2.26,2.91,4.13,5.11,5.39,2.2,1.25,4.72,1.82,7.24,1.64,3.38-.25,6.52-1.82,8.73-4.38,2.22-2.56,3.33-5.89,3.1-9.27Z"/>
  <path class="cls-2" d="M289.25,765.1c-.12-1.69-.74-3.31-1.78-4.65-1.04-1.34-2.45-2.34-4.06-2.88-1.61-.54-3.34-.58-4.98-.14-1.63.45-3.1,1.37-4.21,2.65-1.11,1.28-1.82,2.86-2.03,4.55-.21,1.68.08,3.39.84,4.9.76,1.52,1.95,2.77,3.43,3.61,1.47.84,3.16,1.22,4.85,1.1,1.12-.08,2.22-.38,3.22-.88,1-.5,1.9-1.2,2.64-2.05.74-.85,1.3-1.84,1.65-2.9.36-1.07.49-2.19.41-3.31Z"/>
  <path class="cls-4" d="M856.77,566.27s12.39-32.04,2.31-53.99c0,0,30.08,1.49,34.67-27.25,0,0,30.97-3.55,30.68-27.21,0,0,33.03.47,40.53-18.89,0,0-12.39,27.67-8.47,36.83,0,0-27.07,12.39-22.11,40.63,0,0-25.87,10.47-23.13,36.01,0,0-43.96,3.14-54.49,13.87Z"/>
  <path class="cls-2" d="M959.39,445.49c-.1.09-.2.19-.29.29l-.81.87c-.72.78-1.73,1.94-3.06,3.41l-11.13,12.64c-9.37,10.69-22.26,25.5-36.48,41.89-14.23,16.39-27.05,31.26-36.3,42.04-4.61,5.41-8.26,9.77-10.94,12.8l-2.93,3.51-.76.93c-.17.21-.25.31-.23.33l.29-.29.81-.87c.72-.78,1.76-1.94,3.06-3.41l11.13-12.64c9.37-10.69,22.28-25.5,36.48-41.89,14.2-16.39,27.05-31.26,36.3-42.04,4.62-5.39,8.26-9.77,10.94-12.8l2.93-3.51.76-.93c.16-.21.25-.31.23-.33Z"/>
  <path class="cls-2" d="M900.48,490.33c-.45,1.51-.79,3.06-.99,4.63-.54,2.85-1.3,6.81-2.21,11.17-.91,4.36-1.84,8.26-2.5,11.11-.44,1.51-.76,3.06-.95,4.63.62-1.45,1.12-2.95,1.49-4.48.81-2.81,1.82-6.73,2.73-11.09.91-4.36,1.59-8.26,2.06-11.25.25-1.56.37-3.13.37-4.71Z"/>
  <path class="cls-2" d="M913.41,518.29c-.48.15-.94.35-1.36.62-.85.43-2.06,1.09-3.57,1.94-3.01,1.65-7.12,4.01-11.67,6.63-4.54,2.62-8.61,5.06-11.54,6.85-1.47.89-2.64,1.63-3.45,2.07-.44.25-.85.55-1.22.89.48-.15.93-.36,1.36-.62.85-.43,2.06-1.09,3.57-1.94,3.01-1.65,7.14-4,11.66-6.65,4.52-2.64,8.61-5.06,11.54-6.83l3.47-2.06c.44-.24.84-.54,1.2-.89Z"/>
  <path class="cls-2" d="M929.06,460.89c-.15.36-.25.75-.27,1.14-.12.78-.29,1.82-.5,3.06-.41,2.6-1.05,6.19-2.06,10.03-1.01,3.84-2.06,7.31-2.89,9.79-.53,1.34-.97,2.72-1.3,4.13.74-1.22,1.35-2.52,1.82-3.86,2.53-6.4,4.19-13.11,4.96-19.95.14-1.32.23-2.38.25-3.12.06-.4.06-.81,0-1.22Z"/>
  <path class="cls-4" d="M832.43,559.29s-6.59-15.83-17.78-20.34c0,0,11.4-9.83,3.14-21.83,0,0,10.01-11.97,1.73-20.42,0,0,12.1-11.23,8.16-20.83,0,0,5.02,14.33,9.64,16.25,0,0-5.56,13.81,5.99,22.34,0,0-5.74,12.72,4.13,21-.06.08-14.89,16.31-15.01,23.83Z"/>
  <path class="cls-2" d="M827.93,480.18v3.1c0,2.06.19,4.87.33,8.4.29,7.1.74,16.91,1.24,27.75.5,10.84.99,20.65,1.36,27.75.19,3.53.35,6.4.45,8.4,0,.97.12,1.75.15,2.27v.6c0,.07,0,.14,0,.21v-3.1c0-2.07-.21-4.85-.33-8.4-.31-7.1-.74-16.91-1.26-27.75-.52-10.84-.99-20.65-1.34-27.73-.21-3.55-.35-6.42-.47-8.4,0-.99-.1-1.76-.15-2.29v-.6c.01-.07.02-.14.02-.21Z"/>
  <path class="cls-2" d="M822.07,516.74c.35.72.76,1.41,1.24,2.06.78,1.22,1.88,2.91,3.06,4.81,1.18,1.9,2.19,3.63,2.91,4.87.37.72.8,1.4,1.26,2.06-.27-.72-.61-1.41-1.01-2.06-.68-1.3-1.65-3.06-2.83-4.95-1.18-1.9-2.31-3.57-3.16-4.75-.42-.73-.91-1.42-1.47-2.04Z"/>
  <path class="cls-2" d="M836.39,522.4s-.12.23-.29.68c-.17.45-.37,1.11-.62,1.94-.52,1.63-1.2,3.92-1.94,6.42-.74,2.5-1.36,4.81-1.82,6.46-.23.83-.39,1.51-.49,2.06-.08.23-.13.48-.15.72.13-.21.23-.44.29-.68.15-.45.37-1.11.62-1.94.52-1.63,1.2-3.9,1.92-6.42.72-2.52,1.38-4.81,1.84-6.46.21-.83.39-1.51.49-2.06.08-.23.13-.48.15-.72Z"/>
  <path class="cls-2" d="M822.25,496.32s0,.21.29.5l.89,1.28c.74,1.09,1.74,2.6,2.73,4.34.99,1.74,1.77,3.37,2.33,4.54.25.67.56,1.31.93,1.92-.15-.71-.38-1.4-.68-2.06-.64-1.6-1.39-3.15-2.25-4.65-.85-1.49-1.79-2.93-2.83-4.29-.41-.52-.74-.93-.99-1.2-.13-.14-.27-.26-.41-.37Z"/>
  <path class="cls-2" d="M843.13,598.71c3.18-1.18,5.94-3.29,7.92-6.04,1.98-2.75,3.11-6.03,3.23-9.42.12-3.39-.77-6.74-2.55-9.63-1.78-2.89-4.38-5.18-7.47-6.59-3.09-1.41-6.52-1.87-9.87-1.33-3.35.54-6.46,2.07-8.95,4.38-2.48,2.31-4.23,5.31-5,8.61-.78,3.3-.56,6.76.62,9.94,1.6,4.26,4.82,7.71,8.95,9.6,4.14,1.89,8.86,2.06,13.12.47Z"/>
  <path class="cls-2" d="M878.1,580.54c.2,1.26.01,2.55-.52,3.71-.54,1.16-1.4,2.13-2.49,2.8-1.09.67-2.35.99-3.63.94-1.28-.05-2.51-.48-3.54-1.23-1.03-.75-1.82-1.79-2.26-2.99-.44-1.2-.52-2.5-.22-3.74.3-1.24.95-2.37,1.89-3.24.94-.87,2.11-1.44,3.37-1.64.84-.14,1.7-.1,2.53.09.83.2,1.61.56,2.3,1.06.69.5,1.27,1.13,1.72,1.86.44.73.74,1.53.87,2.38Z"/>
  <path class="cls-5" d="M527.6,619.33s-51.24-24.59-44.47-82.13c6.77-57.54,59.88-85.83,89.36-88.99,32.17-3.51,92.04,29.98,91.3,97.16,0,0,3.41,28.35-20.85,60.04,0,0,116.24-57.05,134.2,2.64,18.21,60.35-61.32,70.94-99.39,90.21-38.07,19.26,36.77,48.95,70.92,68.86,36.92,21.51,51.31,75.57,14.33,112.07-43.15,42.61-110.94-34.91-128.22-52.71-17.28-17.8-24.96-31.61-35.88-2.6-10.92,29.01-37.31,144.96-124.64,91.67-66.94-40.84,15.3-102.63,24.78-147.85,9.48-45.22-.68-43.24-46.7-44.84-46.02-1.61-98.32-22.53-87.89-70.9,9.89-45.9,72.51-26.02,106.7-26.59,34.19-.58,56.47-6.03,56.47-6.03Z"/>
  <path class="cls-9" d="M527.6,619.33s-51.24-24.59-44.47-82.13c6.77-57.54,59.88-85.83,89.36-88.99,32.17-3.51,92.04,29.98,91.3,97.16,0,0,3.41,28.35-20.85,60.04,0,0,116.24-57.05,134.2,2.64,18.21,60.35-61.32,70.94-99.39,90.21-38.07,19.26,36.77,48.95,70.92,68.86,36.92,21.51,51.31,75.57,14.33,112.07-43.15,42.61-110.94-34.91-128.22-52.71-17.28-17.8-24.96-31.61-35.88-2.6-10.92,29.01-37.31,144.96-124.64,91.67-66.94-40.84,15.3-102.63,24.78-147.85,9.48-45.22-.68-43.24-46.7-44.84-46.02-1.61-98.32-22.53-87.89-70.9,9.89-45.9,72.51-26.02,106.7-26.59,34.19-.58,56.47-6.03,56.47-6.03Z"/>
  <path class="cls-5" d="M504.31,602.94s-40.3-27.25-30.7-84.4c8.09-48.21,55.56-68.84,84.96-72.02,32.21-3.49,96.4,13.01,95.7,80.19,0,0,3.41,28.35-20.85,60.06,0,0,119.63-44.39,137.65,15.3,18.23,60.35-64.71,58.27-102.78,77.53-38.07,19.26,32.19,57.44,66.32,77.34,36.92,21.51,55.91,67.08,18.93,103.6-43.15,42.59-110.93-34.93-128.22-52.73-17.28-17.8-24.96-31.61-35.88-2.58-10.92,29.03-32.81,141.78-115.62,101.85-70.63-34.07,6.19-112.81,15.83-158.05,9.64-45.24-.68-43.23-46.7-44.82-46.02-1.59-90.52-13.87-80.11-62.25,9.91-45.9,64.73-34.67,98.92-35.26,34.19-.6,42.55-3.76,42.55-3.76Z"/>
  <path class="cls-10" d="M487.96,614.01c-24.07,0-48.17-1.67-71.95,3.2-20.32,4.13-43.5,18.58-42.35,42.12,1.16,23.54,23.62,28.29,42.99,28.91,12.39.35,24.59-.29,36.9-.43,12.99-.15,28.04-.81,39.64,5.95,24.03,13.98,13.26,40.74,4.13,59.88-10.55,21.91-21.43,43.79-29.86,66.65-7.72,21-11.95,43.81,0,64.44,12.12,21.08,36.07,23.97,55.58,11.48,11.48-7.65,21.04-17.85,27.93-29.79,5.55-9.33,7.5-19.26,10.82-29.42,3.86-11.86,8.62-23.41,14.25-34.54,3.97-7.81,10.7-23.15,19.86-26.47,6.92-2.5,15.71,7.72,20.34,11.89,9.31,8.4,18.17,17.32,27.21,26.06,17.69,17.08,36.96,37.66,61.94,42.95,22.71,4.77,45.42-7.8,50.56-30.97,4.96-21.82-3.92-47.49-23.39-59.4-10.47-6.38-23.08-9.21-34.03-14.95-12.78-6.63-24.72-14.74-35.59-24.18-9.13-8.05-20.09-18.99-21.87-31.67-1.77-12.68,8.73-21.41,18.89-26.72,19.1-9.95,40.63-11.46,60.64-18.58,17.26-6.2,44.25-18.48,42.74-40.7-1.59-23.54-29.19-28.91-48.19-29.03-26.84,0-52.77,10.72-78.75,16.25-7.29,1.55-14.6,3.04-21.93,4.4l3.08,4.13c23.93-43.73,37.16-110.77-14.66-139.53-47.49-26.37-110.19,5.37-119.38,58.14-3.88,22.38,4.83,42.72,16.06,61.65,6.91,12.23,15.59,23.36,25.77,33.03.48-1.77.97-3.55,1.45-5.33l-38.94.54c-3.84,0-3.1,5.97.68,5.9l38.96-.54c2.85,0,3.18-3.76,1.47-5.31-6.99-6.64-13.18-14.07-18.44-22.15-11.13-16.23-22.2-35.88-22.09-56.1.17-11.55,3.12-22.89,8.62-33.05,5.5-10.16,13.37-18.84,22.95-25.3,21.74-14.45,48.52-20.28,73.21-9.66,32.64,14.06,43.48,44.33,38.44,77.8-3.14,20.19-9.75,39.69-19.53,57.63-.2.48-.27,1-.21,1.52.06.52.26,1.01.57,1.42.31.42.72.75,1.2.95s1,.29,1.51.23c19.18-3.55,38.32-7.64,57.13-12.78,22.92-6.19,51.35-14.31,73.71-1.36,11.97,6.92,14.97,21.25,5.86,32-8.13,9.6-20.89,15.17-32.46,19.41-18.15,6.67-37.66,8.4-55.58,16.06-14.97,6.42-31.63,18.13-28.53,36.65,3.45,20.65,24.78,36.88,40.88,47.76,9.87,6.74,20.33,12.57,31.26,17.41,12.12,5.33,24.34,7.99,33.03,18.93,15.69,19.82,16.02,56.37-10.16,67.8-26.18,11.44-52.03-10.88-70.08-27.44-16.52-15.26-31.76-32.77-49.74-46.43-4.3-3.28-9.06-6.9-14.74-5.58-6.63,1.57-11.69,8.26-15.36,13.5-12.24,17.32-20.65,38.48-26.41,58.82-6.52,23.33-23.87,50.83-49.88,55.62-31.63,5.78-42.45-33.84-36.83-57.65,5.22-22.15,15.9-43.36,25.58-63.84,6.73-14.16,16.52-28.91,19.9-44.45,4.77-21.41-5.88-42.14-27.65-47.69-21.76-5.56-45.61-1.22-67.66-1.82-9.19-.25-21.33-.19-29.05-5.97-12.29-9.17-10.32-26.43-1.51-37.17,16.85-20.34,49.82-19.61,73.85-19.8,9.29,0,18.58.49,27.85.49,3.84.08,3.1-5.78-.68-5.78Z"/>
  <path class="cls-6" d="M491.53,615.56c-24.05,0-48.15-1.67-71.93,3.2-20.32,4.13-43.5,18.58-42.35,42.12,1.15,23.54,23.62,28.29,42.99,28.91,12.28.35,24.59-.29,36.9-.44,12.97-.14,28.04-.8,39.64,5.95,24.03,13.98,13.26,40.74,4.13,59.88-10.55,21.91-21.45,43.79-29.85,66.65-7.72,21-11.96,43.81-.1,64.44,12.12,21.08,36.07,23.97,55.58,11.48,11.52-7.63,21.12-17.82,28.06-29.77,5.55-9.33,7.5-19.26,10.82-29.42,3.85-11.86,8.61-23.41,14.25-34.54,3.96-7.8,10.69-23.17,19.86-26.47,6.92-2.5,15.71,7.72,20.32,11.89,9.33,8.4,18.19,17.32,27.23,26.05,17.69,17.08,36.96,37.66,61.94,42.95,22.71,4.77,45.32-7.8,50.56-30.97,4.95-21.84-3.92-47.49-23.39-59.4-10.47-6.38-23.08-9.21-34.03-14.95-12.76-6.62-24.7-14.73-35.55-24.16-9.13-8.05-20.09-18.99-21.87-31.67-1.77-12.68,8.73-21.41,18.89-26.72,19.1-9.97,40.63-11.46,60.64-18.58,17.26-6.19,44.25-18.58,42.74-40.7-1.59-23.54-29.21-28.91-48.19-29.03-26.84,0-52.79,10.71-78.75,16.25-7.31,1.55-14.62,3.04-21.95,4.4l3.1,4.13c23.93-43.73,37.16-110.77-14.66-139.53-47.49-26.37-110.19,5.37-119.38,58.14-3.88,22.38,4.83,42.72,16.06,61.65,6.89,12.23,15.57,23.36,25.75,33.03.5-1.76.99-3.53,1.47-5.31l-38.96.54c-3.82,0-3.08,5.97.7,5.91l38.96-.54c2.85,0,3.18-3.76,1.47-5.31-6.99-6.64-13.18-14.08-18.44-22.15-11.13-16.23-22.2-35.88-22.09-56.1.16-11.55,3.11-22.89,8.6-33.06,5.49-10.16,13.36-18.85,22.93-25.31,21.74-14.45,48.52-20.3,73.21-9.66,32.64,14.06,43.48,44.33,38.44,77.8-3.14,20.19-9.75,39.69-19.53,57.63-.21.48-.28,1-.22,1.52.06.52.26,1.01.57,1.43.31.42.73.75,1.21.95.48.21,1,.28,1.52.22,19.18-3.55,38.32-7.64,57.11-12.78,22.94-6.2,51.37-14.31,73.73-1.36,11.98,6.92,14.97,21.25,5.86,32-8.13,9.6-20.89,15.18-32.46,19.41-18.15,6.67-37.66,8.4-55.58,16.06-14.97,6.42-31.63,18.13-28.53,36.65,3.43,20.65,24.78,36.88,40.88,47.76,9.87,6.74,20.33,12.56,31.26,17.4,12.12,5.33,24.34,7.99,33.03,18.93,15.71,19.8,16.04,56.37-10.16,67.8-26.2,11.44-52.01-10.88-70.05-27.44-16.52-15.26-31.76-32.77-49.74-46.43-4.29-3.28-9.08-6.92-14.76-5.57-6.61,1.57-11.66,8.26-15.34,13.5-12.24,17.32-20.65,38.49-26.41,58.82-6.52,23.31-23.87,50.83-49.88,55.6-31.61,5.82-42.51-33.82-36.9-57.61,5.22-22.17,15.88-43.36,25.58-63.84,6.71-14.16,16.52-29.01,19.88-44.45,4.77-21.41-5.86-42.14-27.62-47.71-21.76-5.57-45.61-1.2-67.68-1.8-9.17-.25-21.31-.21-29.03-5.97-12.39-9.17-10.32-26.43-1.53-37.16,16.87-20.34,49.82-19.62,73.87-19.8,9.29,0,18.58.49,27.85.49,3.84.06,3.12-5.84-.68-5.84Z"/>
  <path class="cls-10" d="M487.96,614.01c-24.07,0-48.17-1.67-71.95,3.2-20.32,4.13-43.5,18.58-42.35,42.12,1.16,23.54,23.62,28.29,42.99,28.91,12.39.35,24.59-.29,36.9-.43,12.99-.15,28.04-.81,39.64,5.95,24.03,13.98,13.26,40.74,4.13,59.88-10.55,21.91-21.43,43.79-29.86,66.65-7.72,21-11.95,43.81,0,64.44,12.12,21.08,36.07,23.97,55.58,11.48,11.48-7.65,21.04-17.85,27.93-29.79,5.55-9.33,7.5-19.26,10.82-29.42,3.86-11.86,8.62-23.41,14.25-34.54,3.97-7.81,10.7-23.15,19.86-26.47,6.92-2.5,15.71,7.72,20.34,11.89,9.31,8.4,18.17,17.32,27.21,26.06,17.69,17.08,36.96,37.66,61.94,42.95,22.71,4.77,45.42-7.8,50.56-30.97,4.96-21.82-3.92-47.49-23.39-59.4-10.47-6.38-23.08-9.21-34.03-14.95-12.78-6.63-24.72-14.74-35.59-24.18-9.13-8.05-20.09-18.99-21.87-31.67-1.77-12.68,8.73-21.41,18.89-26.72,19.1-9.95,40.63-11.46,60.64-18.58,17.26-6.2,44.25-18.48,42.74-40.7-1.59-23.54-29.19-28.91-48.19-29.03-26.84,0-52.77,10.72-78.75,16.25-7.29,1.55-14.6,3.04-21.93,4.4l3.08,4.13c23.93-43.73,37.16-110.77-14.66-139.53-47.49-26.37-110.19,5.37-119.38,58.14-3.88,22.38,4.83,42.72,16.06,61.65,6.91,12.23,15.59,23.36,25.77,33.03.48-1.77.97-3.55,1.45-5.33l-38.94.54c-3.84,0-3.1,5.97.68,5.9l38.96-.54c2.85,0,3.18-3.76,1.47-5.31-6.99-6.64-13.18-14.07-18.44-22.15-11.13-16.23-22.2-35.88-22.09-56.1.17-11.55,3.12-22.89,8.62-33.05,5.5-10.16,13.37-18.84,22.95-25.3,21.74-14.45,48.52-20.28,73.21-9.66,32.64,14.06,43.48,44.33,38.44,77.8-3.14,20.19-9.75,39.69-19.53,57.63-.2.48-.27,1-.21,1.52.06.52.26,1.01.57,1.42.31.42.72.75,1.2.95s1,.29,1.51.23c19.18-3.55,38.32-7.64,57.13-12.78,22.92-6.19,51.35-14.31,73.71-1.36,11.97,6.92,14.97,21.25,5.86,32-8.13,9.6-20.89,15.17-32.46,19.41-18.15,6.67-37.66,8.4-55.58,16.06-14.97,6.42-31.63,18.13-28.53,36.65,3.45,20.65,24.78,36.88,40.88,47.76,9.87,6.74,20.33,12.57,31.26,17.41,12.12,5.33,24.34,7.99,33.03,18.93,15.69,19.82,16.02,56.37-10.16,67.8-26.18,11.44-52.03-10.88-70.08-27.44-16.52-15.26-31.76-32.77-49.74-46.43-4.3-3.28-9.06-6.9-14.74-5.58-6.63,1.57-11.69,8.26-15.36,13.5-12.24,17.32-20.65,38.48-26.41,58.82-6.52,23.33-23.87,50.83-49.88,55.62-31.63,5.78-42.45-33.84-36.83-57.65,5.22-22.15,15.9-43.36,25.58-63.84,6.73-14.16,16.52-28.91,19.9-44.45,4.77-21.41-5.88-42.14-27.65-47.69-21.76-5.56-45.61-1.22-67.66-1.82-9.19-.25-21.33-.19-29.05-5.97-12.29-9.17-10.32-26.43-1.51-37.17,16.85-20.34,49.82-19.61,73.85-19.8,9.29,0,18.58.49,27.85.49,3.84.08,3.1-5.78-.68-5.78Z"/>
  <path class="cls-9" d="M569.39,679.73c-7.81,4.13-9.73,13.05-6.4,20.87.92,1.89,2.2,3.58,3.79,4.97,1.58,1.38,3.43,2.44,5.43,3.09,2,.66,4.11.91,6.2.73,2.09-.18,4.13-.77,5.99-1.75,3.59-2.29,6.13-5.9,7.09-10.04.96-4.15.25-8.5-1.97-12.13-2.49-3.45-6.2-5.83-10.37-6.66-4.17-.84-8.51-.06-12.13,2.16"/>
  <path class="cls-9" d="M574.74,727.92c-7.78,4.13-9.7,13.05-6.4,20.87.92,1.89,2.21,3.58,3.79,4.96,1.58,1.38,3.43,2.44,5.42,3.09,2,.66,4.1.91,6.2.74,2.1-.17,4.14-.76,6-1.74,3.56-2.29,6.09-5.88,7.05-10,.96-4.12.28-8.46-1.91-12.09-2.49-3.46-6.2-5.84-10.38-6.68-4.18-.83-8.52-.06-12.15,2.18"/>
  <path class="cls-3" d="M569.39,674.81c-7.81,4.23-9.73,13.05-6.4,20.87.91,1.9,2.2,3.59,3.78,4.98,1.58,1.39,3.43,2.45,5.42,3.11,2,.66,4.11.92,6.2.75,2.1-.17,4.14-.76,6.01-1.73,3.59-2.29,6.13-5.9,7.09-10.04.96-4.15.25-8.5-1.97-12.13-2.49-3.45-6.2-5.83-10.37-6.66-4.17-.84-8.51-.06-12.13,2.16"/>
  <path class="cls-8" d="M574.74,723.02c-7.78,4.13-9.7,13.05-6.4,20.87.92,1.89,2.21,3.58,3.79,4.96,1.58,1.38,3.43,2.43,5.43,3.09s4.1.91,6.2.73c2.09-.17,4.13-.77,5.99-1.74,3.59-2.29,6.13-5.89,7.1-10.04.96-4.15.26-8.5-1.95-12.14-2.5-3.45-6.21-5.83-10.38-6.66-4.18-.83-8.51-.06-12.14,2.16"/>
  <g class="cls-12">
    <path class="cls-1" d="M540.26,544.41c-.15,1.45-.72,2.83-1.65,3.96-.93,1.13-2.17,1.96-3.57,2.38-1.4.42-2.89.42-4.29,0-1.4-.43-2.64-1.26-3.57-2.39-.93-1.13-1.5-2.51-1.64-3.97-.14-1.45.15-2.92.84-4.21.69-1.29,1.74-2.34,3.04-3.03,1.29-.69,2.75-.98,4.21-.84.97.09,1.91.38,2.77.83.86.46,1.62,1.08,2.23,1.83.62.75,1.08,1.62,1.36,2.55.28.93.37,1.91.27,2.88Z"/>
    <path class="cls-1" d="M603.87,530.72c-.15,1.46-.72,2.83-1.65,3.96-.93,1.13-2.17,1.95-3.57,2.38-1.4.42-2.89.42-4.29,0-1.4-.43-2.64-1.26-3.56-2.39-.92-1.13-1.49-2.51-1.63-3.97-.14-1.45.16-2.92.85-4.21.69-1.29,1.75-2.34,3.04-3.03,1.29-.69,2.76-.97,4.21-.82,1.95.2,3.73,1.17,4.97,2.68,1.24,1.52,1.82,3.46,1.63,5.41Z"/>
    <path class="cls-1" d="M584.96,539.84c.92.14,1.8.49,2.56,1.03.76.54,1.38,1.25,1.82,2.07,1.28,2.45,1.7,5.25,1.2,7.97-.62,3.91-2.32,7.58-4.89,10.59-3.3,3.91-7.68,6.75-12.59,8.18-4.91,1.43-10.13,1.37-15.01-.16-3.8-1.15-7.2-3.34-9.83-6.32-1.87-2.02-3.02-4.61-3.26-7.35-.07-.93.09-1.87.45-2.73.36-.86.91-1.63,1.62-2.24,2.72-2.23,6.59-2.48,9.99-3.24,3.03-.59,6.03-1.34,8.98-2.25,2.98-.8,5.91-1.77,8.77-2.91,3.3-1.18,6.69-3.04,10.2-2.62Z"/>
  </g>
  <path class="cls-10" d="M537.64,541.75c-.15,1.45-.72,2.83-1.65,3.96-.93,1.13-2.17,1.96-3.57,2.38-1.4.42-2.89.42-4.29,0-1.4-.43-2.64-1.26-3.57-2.39-.92-1.13-1.5-2.51-1.64-3.97-.14-1.45.15-2.92.84-4.21.69-1.29,1.74-2.34,3.04-3.03,1.29-.69,2.75-.98,4.21-.84,1.95.2,3.74,1.16,4.99,2.68,1.24,1.52,1.83,3.46,1.64,5.42Z"/>
  <path class="cls-10" d="M601.25,528.1c-.15,1.45-.72,2.83-1.65,3.96-.93,1.13-2.17,1.96-3.57,2.38-1.4.42-2.89.42-4.29,0-1.4-.43-2.64-1.26-3.56-2.39-.92-1.13-1.49-2.51-1.63-3.97-.14-1.46.16-2.92.85-4.21.69-1.29,1.75-2.34,3.04-3.03,1.29-.69,2.76-.97,4.21-.83,1.95.2,3.73,1.17,4.97,2.69,1.24,1.52,1.82,3.46,1.63,5.41Z"/>
  <path class="cls-10" d="M582.34,537.24c.92.13,1.8.48,2.57,1.01.76.53,1.39,1.24,1.83,2.06,1.26,2.45,1.68,5.25,1.2,7.97-.63,3.92-2.33,7.58-4.92,10.59-3.29,3.92-7.67,6.77-12.59,8.2-4.91,1.42-10.14,1.36-15.02-.19-3.79-1.16-7.19-3.33-9.83-6.3-1.88-2.02-3.03-4.62-3.26-7.37-.07-.93.09-1.87.45-2.73.36-.86.91-1.63,1.62-2.24,2.72-2.23,6.59-2.48,9.99-3.24,3.03-.59,6.03-1.34,8.98-2.25,2.99-.8,5.92-1.77,8.8-2.91,3.28-1.18,6.67-3.04,10.18-2.6Z"/>
  <g class="cls-12">
    <path class="cls-1" d="M632.59,612.95c-1.9-2.79-5.86-2.93-9.23-2.72-25.27,1.55-50.07,7.33-74.72,13.09-5.6,1.32-11.44,2.75-15.78,6.54-7.27,6.36-8.09,17.2-8.38,26.84l-5.86,23.76c.38,3.37,1.79,6.54,4.06,9.07,2.26,2.53,5.26,4.29,8.57,5.03s6.77.44,9.9-.87c3.13-1.31,5.77-3.57,7.55-6.46,3.74-6.05,4.6-19.49,9.62-24.53,3.39-3.45,5.51-3.98,10.22-5.1,24.2-5.74,50.01-13.46,62.73-34.83,1.8-2.97,3.33-6.94,1.32-9.83Z"/>
  </g>
  <path class="cls-10" d="M594.91,463.58c.35,0,1.2,2.68,2.06,7.82.57,3.14.9,6.33.99,9.52.18,4.35-.37,8.7-1.63,12.86-1.63,5.18-4.65,9.82-8.71,13.42-4.71,4.21-10.61,6.85-16.89,7.56-6.98.71-13.99-.97-19.9-4.75-3.16-1.96-5.91-4.5-8.11-7.5-2.59-3.34-3.74-7.58-3.22-11.77.36-2.23,1.33-4.32,2.81-6.03,1.58-1.83,3.79-3,6.19-3.28,2.26-.24,4.55.24,6.52,1.36,1.88,1.05,3.45,2.56,4.56,4.4.95,1.74,1.54,3.66,1.75,5.63.2,1.97.02,3.97-.55,5.87-.97,3.43-2.78,6.56-5.26,9.11-4.51,4.62-10.62,7.33-17.08,7.58-5.48.13-10.87-1.34-15.53-4.23-3.75-2.32-6.96-5.42-9.42-9.08-1.79-2.72-3.18-5.68-4.13-8.8-1.53-5.1-1.36-8.07-1.05-8.09.31-.02.97,2.75,3.01,7.37,1.23,2.76,2.8,5.36,4.67,7.74,2.42,3.1,5.45,5.67,8.9,7.56,4.08,2.27,8.72,3.33,13.38,3.08,5.22-.38,10.11-2.7,13.71-6.5,1.85-1.98,3.18-4.4,3.88-7.02.74-2.49.47-5.18-.74-7.47-.61-1.02-1.48-1.85-2.52-2.41-1.04-.56-2.22-.83-3.4-.77-1.16.23-2.21.82-3.01,1.69-.79.87-1.29,1.97-1.41,3.14-.26,2.8.57,5.58,2.31,7.78,1.79,2.46,4.03,4.55,6.59,6.2,3.32,2.14,7.08,3.51,11.01,4,3.92.49,7.9.1,11.65-1.15,3.75-1.25,7.17-3.33,10.01-6.08,2.84-2.75,5.02-6.1,6.39-9.81,1.33-3.75,2.08-7.69,2.23-11.67.19-3.55,0-6.69,0-9.25-.31-5.08-.45-7.97-.06-8.01Z"/>
  <path class="cls-10" d="M431.35,616.94c.17.37-.74.99-1.34,2.54-.35.94-.51,1.93-.45,2.93.09,1.34.44,2.65,1.03,3.86.62,1.47,1.55,3.06,2.48,5.08,1.16,2.34,1.67,4.95,1.47,7.56-.21,1.56-.78,3.06-1.67,4.36-.79,1.14-1.68,2.2-2.66,3.18-1.82,1.8-3.47,3.61-3.43,4.69-.02.72.22,1.41.68,1.96.56.85,1.47,1.84,2.29,3.16.93,1.45,1.43,3.13,1.45,4.85-.01,1.5-.31,2.99-.89,4.38-.96,2.19-2.23,4.23-3.78,6.05-1.09,1.34-2.02,2.79-2.79,4.34-.48.99-.68,2.08-.58,3.18.1,1.09.5,2.14,1.15,3.02.95,1.26,2.07,1.38,2.07,1.8s-.25.39-.87.47c-.92.1-1.84-.15-2.6-.68-1.19-.82-2.11-1.98-2.62-3.32-.33-.85-.53-1.75-.58-2.66-.03-1.02.11-2.04.39-3.01,1.05-4.13,4.38-7.35,5.51-10.88.29-.82.43-1.69.41-2.56-.06-.75-.33-1.46-.76-2.06-.49-.78-1.36-1.67-2.27-2.97-1.17-1.55-1.74-3.47-1.61-5.41.21-1.85.97-3.59,2.19-5,.89-1.04,1.84-2.02,2.85-2.95,1.49-1.16,2.59-2.75,3.18-4.54.18-1.77-.06-3.57-.72-5.22-.62-1.8-1.42-3.61-1.92-5.45-.54-1.74-.69-3.58-.43-5.39.21-1.39.79-2.69,1.67-3.78,1.63-1.86,3.03-1.8,3.16-1.49Z"/>
  <path class="cls-10" d="M444.97,618.49c.35-.14,1.05.6,2.06,2.07,1.39,2.14,2.54,4.42,3.43,6.81,1.47,3.72,2.04,7.74,1.65,11.73-.28,2.48-1.06,4.89-2.29,7.06-1.3,2.23-2.87,4.13-4.13,5.82-1.06,1.29-1.61,2.93-1.55,4.6.12,1.36,1.4,3.28,2.06,5.99.37,2.37.05,4.79-.91,6.98-.7,1.82-1.47,3.34-1.94,4.63-.82,1.97-.93,4.16-.31,6.19.49,1.32,1.34,1.9,1.18,2.27-.16.37-1.4.5-2.91-1.11-.87-1.17-1.47-2.51-1.76-3.94-.28-1.43-.24-2.91.13-4.32.37-1.73.95-3.36,1.38-5.04.5-1.45.61-3.01.31-4.52-.27-.85-.61-1.67-1.03-2.46-.6-1.19-1.05-2.45-1.32-3.76-.25-1.55-.12-3.14.37-4.63.46-1.34,1.1-2.61,1.9-3.78,1.47-2.19,2.99-3.9,3.99-5.53.95-1.56,1.61-3.29,1.92-5.1.52-3.31.39-6.69-.39-9.95-.6-2.91-1.32-5.33-1.69-7.04-.37-1.71-.48-2.83-.15-2.97Z"/>
  <path class="cls-10" d="M698.74,654.83c0,.17-.39.25-.97,0-.84-.29-1.56-.84-2.06-1.57-.78-1.11-1.28-2.39-1.47-3.74-.21-1.64-.21-3.31,0-4.95.2-1.54.08-3.11-.35-4.61-.48-1.2-1.45-1.94-3.39-2.75-2.62-.81-5.02-2.22-7-4.13-.68-.73-1.2-1.6-1.52-2.56-.32-.95-.42-1.96-.32-2.96.32-1.67,1.02-3.25,2.06-4.6.58-.71,1.02-1.52,1.3-2.4.04-.28.03-.57-.05-.85-.07-.28-.21-.54-.39-.76-.89-1.42-2.99-3.08-4.52-5.2-2.6-3.62-4.04-7.94-4.13-12.39-.1-2.92.51-5.82,1.75-8.47.93-1.84,1.82-2.6,2.06-2.44.78.33-1.05,4.31,0,10.57.56,3.55,2.04,6.9,4.29,9.7.67.79,1.39,1.54,2.17,2.23,1.05.92,1.99,1.95,2.81,3.08.57.78.98,1.66,1.21,2.6.23.94.26,1.91.11,2.87-.36,1.62-1.07,3.14-2.06,4.46-.55.68-.97,1.45-1.22,2.29-.02.25,0,.5.09.74.09.23.22.45.4.62,1.48,1.35,3.22,2.38,5.12,3.03,1.22.57,2.35,1.32,3.34,2.23,1.04,1.02,1.8,2.28,2.21,3.68.45,2.14.4,4.35-.15,6.46-.36,1.39-.6,2.8-.72,4.23-.07.99.03,1.98.31,2.93.29,1.65,1.22,2.23,1.05,2.62Z"/>
  <path class="cls-10" d="M716.77,648.08c-.17.23-1.4,0-2.54-1.86-.62-1.07-1.03-2.25-1.22-3.47-.2-1.49-.31-3-.31-4.5.02-1.61-.1-3.21-.35-4.79-.12-.73-.37-1.43-.74-2.06-.15-.27-.35-.52-.58-.72-.24-.26-.51-.49-.81-.68-.68-.45-1.61-.93-2.68-1.61-1.47-.84-2.63-2.15-3.28-3.72-.33-.94-.44-1.94-.31-2.93.1-.7.25-1.39.45-2.06.11-.41.19-.82.25-1.24.05-.37.05-.74,0-1.11-.47-1.81-1.42-3.45-2.77-4.75-1.42-1.53-3.14-3.01-4.67-4.83-2.7-3.3-4.16-7.44-4.13-11.71-.04-2.77.63-5.5,1.96-7.93.99-1.65,1.88-2.31,2.17-2.06.74.37-1.2,4.03-.35,9.79.47,3.25,1.91,6.28,4.13,8.69,1.28,1.36,2.97,2.68,4.75,4.48,2.13,1.98,3.61,4.56,4.25,7.39.15.82.2,1.66.14,2.5-.07.76-.21,1.52-.43,2.25-.39,1.26-.41,1.71-.35,1.86.27.51.68.93,1.18,1.22.76.54,1.74,1.09,2.77,1.88,1.11.84,2.01,1.93,2.62,3.18.54,1.11.87,2.32.97,3.55.13,1.88.04,3.78-.27,5.64-.47,2.29-.58,4.63-.33,6.96.16,1.51.76,2.33.47,2.66Z"/>
  <path class="cls-10" d="M551.3,861.56c-.23.35-1.47-.23-3.72-.19-1.4.04-2.78.25-4.13.62-1.57.41-3.32,1.11-5.45,1.86-2.44,1-5.05,1.52-7.68,1.55-3.19-.1-6.29-1.1-8.94-2.89-5.43-3.49-9.33-8.9-14.45-12-2.34-1.48-5.07-2.24-7.84-2.17-2.83,0-5.8.56-8.86.81-3.03.36-6.1.09-9.02-.78-2.54-.8-4.9-2.09-6.94-3.8-2.98-2.39-5.05-5.73-5.88-9.46-.5-2.62,0-4.13.29-4.13s.7,1.34,1.69,3.41c1.4,2.87,3.54,5.32,6.19,7.08,1.78,1.18,3.76,2.05,5.84,2.54,2.4.52,4.88.58,7.31.16,3.07-.54,6.16-.93,9.27-1.15,3.78-.16,7.53.84,10.74,2.85,2.9,1.89,5.57,4.13,7.93,6.67,1.97,2.1,4.11,4.03,6.4,5.78,1.86,1.42,4.07,2.31,6.4,2.58,2.16.09,4.32-.16,6.4-.74,1.97-.53,3.98-.93,6.01-1.18,1.62-.19,3.26-.09,4.85.27,2.81.74,3.8,2.06,3.59,2.31Z"/>
  <path class="cls-10" d="M556.57,839.8c-.27.33-1.4-.37-3.53-.66-3.09-.25-6.2.18-9.1,1.28-2.24.78-4.52,1.44-6.83,1.96-3.03.74-6.21.54-9.13-.56-2.99-1.44-5.59-3.56-7.62-6.19-1.7-2.26-3.76-4.22-6.09-5.8-2.32-1.1-4.95-1.39-7.45-.81-2.97.6-5.99.97-9.02,1.11-5.46-.07-10.74-1.94-15.03-5.33-2.85-2.17-5.12-5-6.61-8.26-.97-2.31-1.01-3.72-.72-3.84.29-.12,1.12.99,2.52,2.77,1.95,2.45,4.31,4.55,6.98,6.2,3.82,2.4,8.27,3.61,12.78,3.49,2.78-.3,5.53-.75,8.26-1.36,1.72-.32,3.48-.43,5.22-.33,1.98.11,3.9.67,5.64,1.63,2.91,1.87,5.44,4.26,7.47,7.06,1.49,2.07,3.41,3.79,5.62,5.06,2.03.86,4.26,1.1,6.42.7,2.27-.27,4.48-.83,6.61-1.24,3.5-.93,7.2-.8,10.63.37,2.48,1.14,3.22,2.54,2.99,2.75Z"/>
  <path class="cls-10" d="M729.96,772.84c.23.33-.78,1.26-1.65,3.34-.49,1.29-.84,2.62-1.03,3.99-.25,1.59-.29,3.47-.43,5.72-.07,2.64-.62,5.24-1.63,7.68-1.36,2.89-3.51,5.34-6.19,7.06-5.35,3.59-11.87,5.04-16.7,8.47-2.29,1.56-4.07,3.77-5.1,6.34-1.1,2.6-1.78,5.55-2.75,8.45-.88,2.92-2.34,5.64-4.29,7.99-1.72,2.01-3.83,3.66-6.19,4.85-3.37,1.79-7.25,2.38-11,1.67-2.6-.6-3.74-1.59-3.61-1.88.12-.29,1.51,0,3.8-.21,2.66-.13,5.26-.84,7.62-2.1,2.35-1.25,4.4-3.01,5.99-5.15,1.42-2,2.45-4.26,3.03-6.65.71-3.03,1.58-6.02,2.6-8.96,1.36-3.54,3.76-6.59,6.88-8.75,2.89-1.9,5.99-3.46,9.25-4.62,2.71-.99,5.33-2.19,7.85-3.59,2.05-1.14,3.74-2.83,4.89-4.87.95-1.95,1.58-4.04,1.86-6.19.29-2.02.73-4.02,1.3-5.99.44-1.55,1.14-3.01,2.07-4.34,1.71-2.11,3.32-2.54,3.47-2.25Z"/>
  <path class="cls-10" d="M712.02,759.4c.19.37-.91,1.14-2.07,2.97-1.45,2.75-2.27,5.78-2.41,8.88-.17,2.36-.47,4.71-.89,7.04-.52,3.07-1.96,5.91-4.13,8.16-2.49,2.18-5.46,3.74-8.67,4.56-2.74.67-5.36,1.78-7.74,3.3-1.93,1.7-3.22,4.01-3.68,6.54-.64,2.96-1.5,5.88-2.56,8.71-2.22,5-6.03,9.11-10.84,11.71-3.11,1.75-6.61,2.72-10.18,2.81-2.5,0-3.82-.54-3.8-.87.02-.33,1.32-.62,3.53-1.22,3.03-.83,5.89-2.17,8.47-3.97,3.72-2.55,6.59-6.14,8.26-10.32.85-2.68,1.54-5.4,2.07-8.16.39-1.7.98-3.35,1.75-4.91.89-1.77,2.17-3.33,3.74-4.54,2.87-1.94,6.06-3.34,9.44-4.13,2.49-.55,4.84-1.63,6.88-3.16,1.58-1.53,2.68-3.48,3.18-5.61.66-2.19,1.01-4.44,1.47-6.57.55-3.58,2.14-6.93,4.56-9.62,2-1.77,3.63-1.9,3.63-1.61Z"/>
  <path class="cls-10" d="M505.8,557.64c-.43-.46-.79-.98-1.07-1.55-.86-1.47-1.63-2.99-2.29-4.56-2.25-5.19-3.64-10.71-4.13-16.35-.45-5.64,0-11.31,1.34-16.81.39-1.66.9-3.29,1.53-4.87.18-.6.44-1.18.78-1.71.19,0-.72,2.58-1.57,6.75-2.26,10.93-1.33,22.29,2.68,32.7,1.59,3.99,2.89,6.3,2.72,6.4Z"/>
  <path class="cls-10" d="M514.41,573.5c-.29,0-.78-1.26-1.76-2.58-.97-1.32-2.06-2.21-1.9-2.48.17-.27,1.63.29,2.77,1.84,1.14,1.55,1.18,3.18.89,3.22Z"/>
  <path class="cls-10" d="M368.39,665.19c-.29-.59-.5-1.21-.62-1.86-.48-1.72-.81-3.47-1.01-5.24-.33-2.62-.43-5.27-.31-7.91.19-3.24.66-6.45,1.42-9.6.82-3.14,1.93-6.19,3.3-9.12,1.13-2.4,2.47-4.68,4-6.83,1-1.46,2.12-2.84,3.35-4.13.42-.51.91-.96,1.45-1.34.15.15-1.76,2.17-4.13,5.88-1.41,2.19-2.66,4.47-3.74,6.83-2.63,5.8-4.2,12.02-4.62,18.38-.18,2.59-.18,5.19,0,7.78.41,4.42,1.11,7.1.91,7.16Z"/>
  <path class="cls-10" d="M380.26,682.14c-1.93-.92-3.63-2.25-4.98-3.9-1.35-1.65-2.32-3.58-2.84-5.66.29-.12,1.53,2.35,3.68,4.98,2.15,2.62,4.34,4.25,4.15,4.58Z"/>
  <path class="cls-10" d="M486.8,808.36c.95-2.12,2.01-4.19,3.18-6.2,2.06-3.78,4.6-9.06,7.43-14.93,2.83-5.86,5.43-11.17,7.45-14.95.99-2.1,2.17-4.1,3.51-5.99-.8,2.17-1.75,4.28-2.85,6.32l-7.14,15.09c-2.83,5.86-5.55,11.13-7.74,14.82-1.07,1.84-2.06,3.3-2.68,4.29-.62.99-.99,1.57-1.16,1.53Z"/>
  <path class="cls-10" d="M483.71,882c-1.15-.81-2.13-1.83-2.91-2.99-4.11-5.45-6.33-12.09-6.32-18.91-.09-1.39.09-2.8.52-4.13-.18,9.42,2.89,18.62,8.71,26.04Z"/>
  <path class="cls-10" d="M563.75,751.47c-1.12-1.15-1.98-2.52-2.52-4.03-.67-1.6-1.16-3.27-1.45-4.98-.67-4.23-.21-8.56,1.34-12.55.65-1.61,1.48-3.14,2.48-4.56.86-1.35,1.99-2.51,3.33-3.39.12.15-1.18,1.38-2.69,3.82-1.95,3.17-3.17,6.73-3.57,10.43-.4,3.7.03,7.44,1.26,10.96.97,2.68,1.98,4.19,1.82,4.29Z"/>
  <path class="cls-10" d="M560.41,699.32c-.89-.93-1.56-2.04-1.96-3.26-1.13-2.9-1.57-6.03-1.28-9.13.27-3.1,1.28-6.1,2.93-8.73.61-1.13,1.47-2.1,2.52-2.85-.55,1.12-1.17,2.2-1.86,3.24-1.4,2.61-2.27,5.48-2.54,8.44-.27,2.95.05,5.93.95,8.76.49,1.15.9,2.33,1.24,3.53Z"/>
  <path class="cls-3" d="M626.15,591.3c-2.68-3.2-5.64-6.59-9.68-7.68-5.33-1.42-10.7,1.49-15.59,3.98-20.92,10.64-44.34,15.36-67.74,13.65-7.43-1.76-7.97-3.82-13.67-.85-2.79,1.63-5.22,3.82-7.12,6.44-1.9,2.62-3.24,5.6-3.93,8.76-1.33,4.24-1.07,8.82.72,12.89,2.3,3.72,5.65,6.67,9.64,8.46,1.55.85,3.14,1.63,4.73,2.38-2.72,9.62-5.37,20.89-8.26,28.22-1.36,2.66-1.9,5.67-1.55,8.63.83,3.84,4.38,6.38,7.64,8.53,4.58,3.04,10.14,6.19,15.26,4.13,4.42-1.74,6.59-6.61,8.26-11.03,3.95-10.03,7.88-20.07,11.79-30.1,6.34.4,12.71.13,18.99-.81,19.55-3.01,37.6-12.27,51.45-26.39,3.24-3.3,6.34-7.14,6.92-11.75.91-6.54-3.61-12.45-7.87-17.47Z"/>
  <path class="cls-10" d="M542.53,681.17c-1.48-.04-2.94-.26-4.36-.68-3.46-.79-6.85-1.87-10.14-3.22-3.3-1.35-6.44-3.09-9.33-5.18-1.25-.8-2.35-1.8-3.26-2.97,4.13,2.75,8.48,5.15,13.01,7.17,7.6,3.12,14.27,4.54,14.08,4.89Z"/>
  <path class="cls-10" d="M549.01,667.83c-1.59-.02-3.16-.25-4.69-.68-7.44-1.61-14.67-4.03-21.58-7.23-1.47-.58-2.86-1.34-4.13-2.27,1.54.37,3.03.9,4.46,1.57,2.68,1.05,6.44,2.48,10.63,3.88,4.19,1.4,8.03,2.52,10.82,3.3,1.54.32,3.04.8,4.48,1.42Z"/>
  <path class="cls-10" d="M553.22,655.49c-1.63.06-3.26-.1-4.85-.47-7.72-1.43-15.22-3.86-22.32-7.23-1.48-.63-2.87-1.46-4.13-2.46,1.56.45,3.07,1.04,4.52,1.76,2.77,1.16,6.63,2.6,10.94,4.01,4.31,1.4,8.26,2.48,11.21,3.18,1.57.28,3.12.69,4.62,1.22Z"/>
  <path class="cls-10" d="M523.2,636.9c-.26-.42-.45-.89-.54-1.38-.4-1.3-.7-2.62-.89-3.97-.65-4.46-.51-8.99.39-13.4.9-4.39,2.56-8.58,4.91-12.39.7-1.16,1.48-2.27,2.35-3.3.62-.74.99-1.11,1.05-1.07.06.04-1.14,1.8-2.77,4.75-2.11,3.88-3.62,8.06-4.5,12.39-.88,4.3-1.11,8.7-.68,13.07.33,3.22.85,5.27.66,5.31Z"/>
  <path class="cls-10" d="M546.66,642.34c-.29-.45-.51-.95-.64-1.47-.46-1.35-.84-2.73-1.14-4.13-2.04-9.43-1.36-19.25,1.96-28.31.48-1.37,1.05-2.7,1.71-3.98.46-.93.74-1.4.83-1.38.08.02-.74,2.06-1.82,5.6-2.85,9.01-3.5,18.57-1.92,27.89.58,3.55,1.2,5.72,1.01,5.78Z"/>
  <path class="cls-10" d="M569.87,644.77c-.89-1.98-1.55-4.06-1.96-6.2-2.54-10.22-3.56-20.76-3.01-31.28,0-2.18.26-4.36.74-6.48.13,2.16.13,4.34,0,6.5-.05,5.22.17,10.43.66,15.63.52,5.19,1.29,10.35,2.33,15.46.53,2.1.94,4.22,1.24,6.36Z"/>
  <path class="cls-10" d="M596.87,636.72c-.94-1.85-1.72-3.78-2.33-5.76-1.47-3.88-3.26-8.69-5.24-14-1.98-5.31-3.96-10.03-5.47-13.92-.85-1.88-1.54-3.83-2.06-5.82,1.11,1.76,2.05,3.61,2.83,5.53,1.59,3.49,3.65,8.36,5.76,13.83,2.11,5.47,3.82,10.47,4.98,14.12.68,1.96,1.2,3.97,1.55,6.01Z"/>
  <path class="cls-10" d="M618.05,628.75c-.16,0-.72-2.44-1.9-6.32-1.52-5.06-3.43-10-5.72-14.76-2.32-4.74-5-9.31-8.01-13.65-1.35-1.74-2.61-3.54-3.78-5.41,0,0,.52.39,1.28,1.24.76.85,1.86,2.06,3.1,3.72,6.5,8.54,11.22,18.3,13.87,28.7.49,2.07.83,3.61.99,4.75.15.56.21,1.15.16,1.73Z"/>
  <path class="cls-8" d="M568.54,647.04c-.67.22-1.36.36-2.06.41-1.3.21-3.22.39-5.57.52-6.18.28-12.38-.17-18.46-1.34-6.08-1.18-12-3.08-17.63-5.66-1.7-.77-3.36-1.62-4.98-2.56-1.13-.68-1.75-1.07-1.71-1.15.04-.08,2.66,1.22,7,3.03,5.66,2.33,11.53,4.1,17.53,5.29,6.01,1.14,12.12,1.69,18.23,1.63,4.73-.16,7.64-.43,7.66-.16Z"/>
  <path class="cls-5" d="M871.49,320.49c.93,2.68-2.35,6.19-5.02,7.16-.95.37-1.97.49-2.98.37-1.01-.12-1.97-.49-2.81-1.08-.83-.58-1.51-1.36-1.97-2.27-.46-.91-.69-1.91-.67-2.93,0-2.83,3.99-9.58,6.65-10.49,2.66-.91,5.86,6.54,6.79,9.23Z"/>
  <path class="cls-6" d="M871.49,320.49c.93,2.68-2.35,6.19-5.02,7.16-.95.37-1.97.49-2.98.37-1.01-.12-1.97-.49-2.81-1.08-.83-.58-1.51-1.36-1.97-2.27-.46-.91-.69-1.91-.67-2.93,0-2.83,3.99-9.58,6.65-10.49,2.66-.91,5.86,6.54,6.79,9.23Z"/>
  <path class="cls-5" d="M761.69,209.74c-9.39,11.75-3.08,19.39,9.87,24.57-1.34-3.8-.33-8.26,3.92-13.59,22.46-28.04,86.72-55.33,51.72-95.22-3.26-3.79-7.35-6.76-11.96-8.69,30.64,38.65-31.53,65.45-53.56,92.93Z"/>
  <path class="cls-5" d="M597.63,307.11c-22.3,9.23-45.59,15.05-62.13,8.26,14.99,21.14,46.31,14.87,75.92,2.64,15.15-6.19,25.19-10.8,32.33-11.05-7.29-17.24-17.63-11.64-46.13.15Z"/>
  <path class="cls-5" d="M818.64,338.7c-19.51-4.89-37.27-12.66-45.18-15.75-19.45-7.6-30.14-15.53-28.41,10.53,1.73,26.06,24.28,120.06-53.08,118.33-6.65,0-13.23-1.32-19.37-3.86,6.46,8.84,16.83,14.45,33.16,14.82,77.36,1.76,54.82-92.27,53.08-118.33-1.73-26.06,8.96-18.13,28.41-10.51,5.57,2.19,16.08,6.69,28.64,10.88.62-1.92,1.42-3.77,2.4-5.53.1-.21.25-.37.35-.58Z"/>
  <path class="cls-5" d="M702.65,150.76s6.19-6.19,16.04-14.18c-.95-17.72-7.21-28.1-7.21-28.1-6.61-14.93-15.86-24.55-26.24-30.39,5.16,5.76,9.35,12.32,12.39,19.43,0,0,12.55,20.52,5.02,53.25Z"/>
  <path class="cls-6" d="M761.69,209.74c-9.39,11.75-3.08,19.39,9.87,24.57-1.34-3.8-.33-8.26,3.92-13.59,22.46-28.04,86.72-55.33,51.72-95.22-3.26-3.79-7.35-6.76-11.96-8.69,30.64,38.65-31.53,65.45-53.56,92.93Z"/>
  <path class="cls-6" d="M597.63,307.11c-22.3,9.23-45.59,15.05-62.13,8.26,14.99,21.14,46.31,14.87,75.92,2.64,15.15-6.19,25.19-10.8,32.33-11.05-7.29-17.24-17.63-11.64-46.13.15Z"/>
  <path class="cls-6" d="M818.64,338.7c-19.51-4.89-37.27-12.66-45.18-15.75-19.45-7.6-30.14-15.53-28.41,10.53,1.73,26.06,24.28,120.06-53.08,118.33-6.65,0-13.23-1.32-19.37-3.86,6.46,8.84,16.83,14.45,33.16,14.82,77.36,1.76,54.82-92.27,53.08-118.33-1.73-26.06,8.96-18.13,28.41-10.51,5.57,2.19,16.08,6.69,28.64,10.88.62-1.92,1.42-3.77,2.4-5.53.1-.21.25-.37.35-.58Z"/>
  <path class="cls-6" d="M702.65,150.76s6.19-6.19,16.04-14.18c-.95-17.72-7.21-28.1-7.21-28.1-6.61-14.93-15.86-24.55-26.24-30.39,5.16,5.76,9.35,12.32,12.39,19.43,0,0,12.55,20.52,5.02,53.25Z"/>
  <path class="cls-5" d="M745.05,333.48c-1.74-26.06,8.96-18.13,28.41-10.53,7.91,3.1,25.66,10.86,45.18,15.75,1.46-2.47,3.33-4.68,5.53-6.52-11.93-2.42-23.7-7-34.69-10.9-9.95-3.53-19.86-7.27-29.94-10.47-5-1.59-15.3-6.36-19.72-2.06-5.86,5.74-5.68,19.84-5.99,27.21-.43,10.48-.06,20.98,1.11,31.4,1.01,8.96,2.97,17.24,1.96,26.32-1.18,11.56-5.03,22.68-11.23,32.5-10.59,16.37-29.96,22.5-46.58,10.57-16.27-11.66-20.98-30.62-22.38-49.41-1.51-20.44-.81-40.98-.35-61.44.41-17.86-.66-42.1-23.95-44.45-11.23-1.12-22.55,4.62-32.44,9.27-9.37,4.4-18.58,9.17-28.12,13.19-15.01,6.34-33.78,10.74-42.97-7.1-9.19-17.84,3.63-36.77,17.76-47.03,16.52-12.02,35.58-19.14,54.01-27.52l24.49-11.54c-8.94-3.77-17.44-8.52-25.33-14.16-15.22-10.61-28.91-23.15-33.8-41.64-11.36-43.63,25.62-89.79,71.21-86.16,44.06,3.53,59.44,47.88,60.23,87.05.23.22.41.49.53.78.12.29.18.61.17.93-.05,1.87-.2,3.74-.46,5.6.6.31,1.22.62,1.8.95,3.04-2.16,6.06-4.36,9.04-6.59,17.98-13.28,34.13-30.62,54.69-39.89,14.56-6.57,37.6-12.04,47.03,5.45,8.88,16.52-7.47,35.39-18.58,46.06-12.86,12.39-28.91,21.04-39.99,35.33-5.93,7.62-10.96,17.92-5.16,27.05,5.8,9.13,17.98,13.67,27.79,16.64,10.9,3.24,22.12,5.23,33.47,5.95-.28-3.88.23-7.77,1.51-11.44-13.75-1.8-27.73-4.34-37.74-8.26-12.95-5.18-19.26-12.82-9.87-24.57,22.03-27.48,84.2-54.28,53.58-92.91-.6-.76-1.18-1.53-1.86-2.29-24.67-28.12-70.45,2.27-94.73,22.05-9.77,7.95-16.04,14.18-16.04,14.18,7.54-32.73-4.96-53.25-4.96-53.25-3.49-7.89-6.96-15.09-12.39-19.43-30.97-24.51-68.67-18.58-88.58-6.79-21.43,12.68-49.39,38.69-37.17,85.89,4.34,17.93,15.62,33.39,31.36,43.01,10.32,6.34,16.13,9.79,16.13,9.79,0,0,1.28-.81-2.07,1.38-8.66,5.41-17.67,10.23-26.96,14.45-26,12.39-71.91,22.86-63.49,61.46,3.35,15.36,10.9,24.06,20.94,28.12,16.52,6.71,39.83.89,62.13-8.26,28.49-11.79,38.84-17.38,46.12,0,2.28,5.89,4.05,11.96,5.29,18.15,7.45,33.53-16.23,105.3,23.56,122.74,6.14,2.54,12.72,3.85,19.37,3.86,77.41,1.59,54.86-92.43,53.12-118.47Z"/>
  <path class="cls-5" d="M703.55,200.51c7.33-10.32,4.29-22.71-4.58-29.9-1.03.72-2.07,1.47-3.1,2.19-.14.1-.29.18-.45.23-4.48,12.77-13.3,23.56-24.92,30.5,9.87,8.71,25,8.38,33.06-3.01Z"/>
  <path class="cls-5" d="M630.73,213.62c3.18,10.32,6.79,25.5,20.42,21.18,10.63-3.39,10.94-17.67,12.8-27.83-9.43,4.35-19.87,6.03-30.19,4.87-.21.32-.5.58-.85.74l-2.19,1.03Z"/>
  <path class="cls-6" d="M751.43,230.45c-5.8-9.13-.76-19.45,5.16-27.05,11.17-14.29,27.13-22.98,40.08-35.37,11.11-10.7,27.48-29.59,18.58-46.08-9.44-17.47-32.48-12-47.03-5.43-20.65,9.27-36.71,26.59-54.69,39.89-2.99,2.21-6.01,4.42-9.04,6.59,1.5.92,2.92,1.97,4.23,3.14,10.74-7.7,21.31-15.69,31.45-24.14,15.38-12.8,34.38-28.91,56.01-26.72,11.58,1.11,18.87,11.05,15.63,22.48-2.87,10.18-10.71,18.89-18.09,26.16-11.58,11.44-25.93,19.55-37,31.69-9.23,10.12-17.92,24.9-9.09,38.01,9.81,14.58,31.86,19.59,47.96,22.34,4.3.87,8.65,1.44,13.03,1.69-.43-1.66-.7-3.36-.81-5.08-9.71-.58-19.29-2.44-28.51-5.53-9.89-2.93-22.09-7.49-27.87-16.6Z"/>
  <path class="cls-10" d="M746.54,231.51c-5.8-9.13-.76-19.43,5.16-27.05,11.17-14.29,27.13-22.94,39.99-35.33,11.11-10.67,27.46-29.57,18.58-46.06-9.44-17.49-32.48-12.02-47.03-5.45-20.65,9.27-36.71,26.61-54.69,39.89-3,2.23-6.02,4.43-9.04,6.59,1.51.92,2.93,1.97,4.25,3.14,10.74-7.7,21.29-15.67,31.44-24.12,15.38-12.8,34.36-28.91,55.99-26.84,11.6,1.14,18.89,11.07,15.65,22.48-2.87,10.18-10.71,18.89-18.09,26.18-11.58,11.42-25.93,19.55-37,31.67-9.23,10.14-17.92,24.9-9.09,38.01,9.81,14.58,31.86,19.61,47.96,22.34,5.97,1.01,11.98,1.7,18.02,2.06-.44-1.66-.72-3.35-.85-5.06-11.35-.72-22.57-2.71-33.47-5.95-9.83-2.85-22.03-7.41-27.81-16.52Z"/>
  <path class="cls-9" d="M754.36,307.28c-4.44-1.01-9.35-2.07-13.23.89-4.54,3.49-6.05,10.32-7.06,15.69-3.35,17.53-2.46,36.69.27,54.26,3.12,20.13-.58,47.26-18.85,60-22.2,15.46-44.35-11.11-48.34-31.3-3.74-18.79-2.95-38.77-2.64-57.81.21-13.21,2.5-27.96-.25-41-3.82-18.07-19.2-30.23-37.8-26.84-18.6,3.39-35.37,14.95-52.46,22.2-7.14,2.99-16.41,7.27-24.34,5.53-12.59-2.72-17.14-16.64-14.08-27.87,5.84-21.45,31.34-32.39,49.7-40.92,7.1-3.28,14.45-6.19,21.51-9.31l24.07-11.36c-.15-1.52-.21-3.05-.17-4.58-.83-.21-1.63-.41-2.46-.66-.31-.11-.58-.33-.74-.62-.16-.29-.21-.63-.14-.95.07-.32.27-.61.54-.8.27-.19.6-.27.93-.23,2.29.33,4.58.54,6.9.64-7.67-2.66-15-6.2-21.84-10.55-14.19-8.57-29.5-19.76-36.46-35.29-3.92-8.91-5.61-18.63-4.95-28.34.67-9.71,3.68-19.11,8.77-27.4,11.62-18.58,30.1-32.46,52.71-32.91,29.92-.62,48.77,18.81,56.55,46.21,3.63,12.96,5.48,26.36,5.49,39.83.17-.85.35-1.71.49-2.58.12-.46.36-.88.7-1.22.34-.34.76-.58,1.22-.7.46-.12.94-.12,1.4,0,.46.13.88.37,1.21.71-.78-39.23-16.17-83.52-60.23-87.03-45.59-3.65-82.59,42.51-71.21,86.14,4.81,18.58,18.58,30.97,33.8,41.64,7.89,5.65,16.39,10.4,25.33,14.16l-24.51,11.54c-18.44,8.38-37.47,15.51-53.99,27.52-14.12,10.32-26.84,29.34-17.78,47.03,9.06,17.69,27.96,13.44,42.99,7.1,9.54-4.13,18.73-8.8,28.12-13.19,9.89-4.63,21.18-10.32,32.44-9.25,23.27,2.33,24.34,26.57,23.95,44.43-.45,20.46-1.18,41.02.35,61.44,1.4,18.79,6.19,37.74,22.38,49.43,16.62,11.91,35.99,5.78,46.58-10.57,6.21-9.83,10.05-20.96,11.23-32.52,1.01-9.08-.97-17.36-1.96-26.3-1.18-10.43-1.55-20.94-1.12-31.42.31-7.37.12-21.47,5.99-27.21,4.42-4.31,14.72.43,19.72,2.06,10.08,3.2,19.97,6.96,29.94,10.49,10.98,3.88,16.52,7,28.41,9.41,2.06-1.78,2.54-3.53,5.1-4.4-9.17-1.34-10.01-2.35-17.88-4.92-18.05-5.97-35.76-14.1-54.3-18.31Z"/>
  <path class="cls-10" d="M750.85,303.15c-4.44-1.01-9.37-2.06-13.26.87-4.52,3.51-6.05,10.32-7.06,15.69-3.33,17.55-2.46,36.71.27,54.28,3.14,20.13-.58,47.26-18.85,59.98-22.2,15.46-44.33-11.09-48.33-31.28-3.72-18.81-2.93-38.77-2.64-57.81.21-13.19,2.5-27.93-.25-40.98-3.8-18.07-19.18-30.25-37.81-26.84-18.62,3.41-35.35,14.87-52.46,22.09-7.12,3.01-16.42,7.29-24.34,5.55-12.59-2.75-17.14-16.64-14.08-27.87,5.84-21.45,31.32-32.39,49.7-40.92,7.1-3.28,14.45-6.19,21.51-9.31l24.09-11.36c-.16-1.53-.23-3.07-.19-4.6-.81-.21-1.63-.41-2.46-.66-.34-.08-.64-.3-.82-.6-.18-.3-.24-.66-.16-1,.08-.34.3-.64.6-.82.3-.18.66-.24,1-.16,2.27.33,4.58.54,6.9.64-7.67-2.65-15-6.18-21.84-10.53-14.16-8.57-29.5-19.76-36.46-35.29-3.91-8.91-5.61-18.63-4.94-28.34.67-9.71,3.67-19.11,8.76-27.4,11.62-18.58,30.1-32.44,52.71-32.89,29.92-.62,48.77,18.79,56.57,46.19,3.62,12.97,5.46,26.38,5.47,39.85.19-.85.35-1.71.49-2.58.12-.46.36-.88.7-1.22.34-.34.76-.58,1.22-.7.46-.12.94-.12,1.4,0,.46.13.88.37,1.21.71-.78-39.23-16.17-83.52-60.23-87.05-45.59-3.63-82.59,42.53-71.21,86.16,4.83,18.58,18.58,30.97,33.8,41.64,7.9,5.64,16.39,10.39,25.33,14.16l-24.49,11.54c-18.44,8.38-37.49,15.51-54.01,27.52-14.12,10.32-26.84,29.34-17.76,47.03,9.09,17.69,27.96,13.44,42.97,7.1,9.54-4.13,18.75-8.8,28.12-13.19,9.89-4.65,21.2-10.32,32.44-9.27,23.29,2.35,24.36,26.59,23.95,44.45-.45,20.46-1.16,41,.35,61.45,1.4,18.79,6.2,37.74,22.38,49.41,16.62,11.93,35.99,5.8,46.58-10.57,6.2-9.82,10.05-20.94,11.23-32.5,1.01-9.09-.95-17.36-1.96-26.32-1.18-10.42-1.55-20.92-1.11-31.4.31-7.37.12-21.47,5.99-27.21,4.42-4.34,14.72.43,19.72,2.06,10.08,3.2,19.99,6.94,29.94,10.47,10.98,3.9,22.71,8.48,34.69,10.9,2.1-1.78,4.52-3.15,7.12-4.03-8.9-1.51-17.65-3.78-26.16-6.77-18.09-5.93-35.78-14.06-54.32-18.27Z"/>
  <path class="cls-10" d="M692.94,157.03c-.15.87-.31,1.73-.49,2.58-3.12,15.32-9.5,28.91-22.71,38.24-11.01,7.43-24.17,11.01-37.43,10.18-2.31-.1-4.62-.31-6.89-.64-.34-.08-.7-.02-1,.16-.3.18-.52.48-.6.82-.08.34-.02.7.16,1,.18.3.48.51.82.6.83.25,1.65.45,2.46.66v-.12c0-.29.1-.58.29-.81.19-.23.46-.37.75-.42.29-.05.59.01.84.16.25.15.44.39.53.67l.39,1.14c1.26.25,2.52.45,3.8.6,10.32,1.16,20.76-.52,30.19-4.87.2-1.24.47-2.47.81-3.68.11-.42.33-.8.63-1.11.3-.31.67-.54,1.09-.67.41-.13.85-.14,1.27-.05.42.09.82.29,1.14.57.5.52,1.01,1.02,1.55,1.49,11.64-6.92,20.48-17.72,24.98-30.5.45-1.36.85-2.75,1.2-4.13-.85-.57-1.73-1.08-2.64-1.53-3.2-1.57-.62-6.19,2.56-4.83.41.19.78.41,1.18.6.26-1.86.41-3.72.45-5.6,0-.32-.05-.64-.17-.93-.12-.29-.3-.56-.53-.78-.33-.36-.75-.63-1.22-.77-.47-.14-.97-.15-1.44-.03-.47.12-.91.37-1.25.73s-.58.79-.69,1.27Z"/>
  <path class="cls-10" d="M696.53,162.54c-3.18-1.42-5.76,3.26-2.56,4.83.91.45,1.8.96,2.64,1.53.82.52,1.61,1.09,2.35,1.71,8.88,7.23,11.91,19.61,4.58,29.9-8.09,11.4-23.19,11.73-33.03,3.01-.54-.47-1.05-.96-1.55-1.49-.32-.29-.72-.48-1.14-.57-.42-.09-.86-.07-1.27.05-.41.13-.79.36-1.09.67-.3.31-.52.69-.63,1.11-.33,1.21-.6,2.44-.81,3.68-1.86,10.16-2.17,24.45-12.8,27.83-13.63,4.32-17.24-10.88-20.42-21.18-.25-.83-.52-1.61-.76-2.37l-.39-1.14c-.09-.28-.28-.52-.53-.67-.25-.15-.55-.21-.84-.16-.29.05-.56.2-.75.42-.19.23-.29.51-.29.81v.12c-.04,1.54.02,3.08.19,4.6,1.22,11.64,8.26,25.54,21.18,25.11,15.94-.56,17.53-19.12,20.15-31.75,5.51,4.41,12.51,6.5,19.53,5.83,7.02-.67,13.5-4.05,18.07-9.43,4.57-5.37,6.86-12.32,6.39-19.35-.47-7.04-3.66-13.62-8.9-18.34-1.31-1.17-2.73-2.22-4.23-3.14-.58-.33-1.2-.64-1.8-.95-.6-.31-.89-.48-1.3-.66Z"/>
  <path class="cls-5" d="M686.97,119.76c-7.81-27.4-26.57-46.7-56.57-46.19-22.71.45-41.09,14.29-52.71,32.89-5.09,8.29-8.09,17.7-8.76,27.4-.67,9.71,1.03,19.43,4.94,28.34,6.96,15.53,22.3,26.72,36.46,35.29,6.85,4.35,14.18,7.88,21.84,10.53,13.26.83,26.42-2.75,37.43-10.18,13.3-9.35,19.68-22.92,22.71-38.24.02-13.46-1.77-26.87-5.35-39.85ZM609.67,157.57c-1.16.39-2.41.42-3.59.1-1.18-.32-2.24-.99-3.04-1.91-.8-.92-1.31-2.06-1.47-3.27-.16-1.21.05-2.44.59-3.54.54-1.1,1.4-2.01,2.46-2.62,1.06-.61,2.27-.9,3.49-.82,1.22.08,2.39.52,3.36,1.26.97.74,1.7,1.76,2.1,2.91.27.77.38,1.59.32,2.41-.05.82-.27,1.61-.63,2.35-.36.73-.87,1.39-1.48,1.92-.62.54-1.33.95-2.11,1.21ZM653.65,124.93c-1.16.39-2.41.42-3.59.1-1.18-.32-2.24-.99-3.04-1.91-.8-.92-1.31-2.06-1.47-3.27-.16-1.21.05-2.44.59-3.54.54-1.1,1.4-2.01,2.46-2.62,1.06-.61,2.28-.9,3.5-.82,1.22.08,2.39.52,3.36,1.26.97.74,1.7,1.76,2.1,2.91.27.77.38,1.59.32,2.41-.05.82-.27,1.61-.63,2.35s-.87,1.39-1.48,1.92c-.62.54-1.33.95-2.11,1.21Z"/>
  <path class="cls-5" d="M843.04,281.6c-12.86.6-26.32-5.76-32.33-17.16-.89-1.71-1.58-3.51-2.06-5.37-6.04-.37-12.06-1.05-18.03-2.06-16.1-2.72-38.15-7.76-47.96-22.34-8.84-13.11-.15-27.87,9.09-38.01,11.07-12.12,25.41-20.25,37-31.67,7.37-7.29,15.22-16,18.09-26.18,3.24-11.42-4.13-21.35-15.65-22.48-21.64-2.06-40.61,13.94-55.99,26.84-10.16,8.44-20.65,16.41-31.44,24.12,5.24,4.72,8.43,11.3,8.9,18.34.47,7.04-1.83,13.98-6.39,19.35-4.57,5.37-11.05,8.76-18.07,9.43-7.02.67-14.03-1.42-19.53-5.83-2.62,12.64-4.13,31.2-20.15,31.75-12.95.43-19.97-13.46-21.18-25.11l-24.09,11.36c-7.12,3.22-14.45,6.03-21.51,9.31-18.35,8.53-43.85,19.47-49.7,40.92-3.06,11.23,1.49,25.13,14.08,27.87,7.93,1.74,17.22-2.54,24.34-5.55,17.12-7.23,33.94-18.89,52.46-22.2,18.52-3.3,34.01,8.86,37.81,26.84,2.75,13.05.45,27.79.25,40.98-.29,19.06-1.07,39.02,2.64,57.81,4.01,20.19,26.14,46.75,48.33,31.28,18.27-12.72,21.99-39.85,18.85-59.98-2.73-17.57-3.61-36.73-.27-54.28,1.01-5.27,2.54-12.18,7.06-15.69,3.88-2.99,8.82-1.88,13.26-.87,18.58,4.13,36.24,12.39,54.28,18.23,8.51,2.99,17.27,5.26,26.16,6.77,2.56-.91,5.3-1.2,7.99-.85-12.24-12.14-10.34-35.43,3.8-45.59ZM705.49,256.82c-1.09,1.4-2.44,2.56-3.99,3.43-1.55.86-3.25,1.41-5.01,1.6-1.76.19-3.54.03-5.24-.48-1.7-.51-3.27-1.35-4.63-2.48-5.2-4.79-6.81-12.12-2.48-18.02l.1-.12c2.17-2.37,5.08-3.92,8.25-4.41,3.17-.49,6.42.12,9.2,1.73,2.96,2.01,5.01,5.1,5.72,8.61.71,3.51.02,7.15-1.92,10.16Z"/>
  <path class="cls-5" d="M863.28,252.13s-4.46,10.32-2.93,14.78c1.53,4.46,16.66,1.94,16.66,1.94,0,0,4.54-16.17-13.73-16.72Z"/>
  <g class="cls-11">
    <path class="cls-1" d="M863.28,252.13s-4.46,10.32-2.93,14.78c1.53,4.46,16.66,1.94,16.66,1.94,0,0,4.54-16.17-13.73-16.72Z"/>
  </g>
  <path class="cls-5" d="M868,250.62c-2.85-1.42-6.19,1.14-6.94,4.25-.83,3.8-2.06,8.01.31,9.35,4.13,2.31,13.85,1.14,13.85,1.14,0,0,5.78-8.16-7.23-14.74Z"/>
  <path class="cls-5" d="M870.01,318.22c.93,2.68-2.33,6.19-5.02,7.16-.64.22-1.31.31-1.98.27-.67-.04-1.33-.21-1.94-.51-.61-.3-1.15-.71-1.59-1.21-.45-.51-.79-1.1-1.01-1.73-.93-2.66,2.62-9.95,5.29-10.86,2.66-.91,5.35,4.21,6.26,6.88Z"/>
  <g class="cls-11">
    <path class="cls-1" d="M721.37,178.5c-2.37-1.27-4.53-2.9-6.38-4.85-3.61-4.73-1.8-12.39-6.07-16.52-1.55-1.27-3.44-2.04-5.44-2.22-1.99-.18-4,.24-5.75,1.21-4.34,2.22-8.19,5.28-11.31,9.02-7.33,9.88-12.79,21.01-16.1,32.85-13.01-2.62-27.27-1.24-39.42,1.47-4.66,1.41-8.99,3.76-12.72,6.9-1.58,1.23-2.75,2.91-3.36,4.82-.61,1.91-.63,3.95-.07,5.87,2.06,5.55,9.87,6.85,12.8,12.04,1.11,2.46,1.81,5.08,2.06,7.76,1.27,6.45,4.78,12.23,9.91,16.33,4.27,3.36,10.01,5.45,15.24,3.92,6.19-1.78,9.93-7.84,13.11-13.42,4.13-6.61,7.47-13.68,9.95-21.06.75-2.57,1.25-5.2,1.51-7.87,3.28,1.28,6.72,2.13,10.22,2.52,7.77.61,15.59.3,23.29-.91,6.38-.76,13.42-1.86,17.47-6.83,3.45-4.13,3.78-10.32,2.33-15.57-1.79-6.34-5.79-11.82-11.27-15.46Z"/>
  </g>
  <path class="cls-3" d="M718.09,175.72c-2.38-1.25-4.54-2.89-6.38-4.85-3.63-4.71-1.82-12.39-6.07-16.52-1.55-1.27-3.44-2.05-5.44-2.24-2-.18-4,.24-5.75,1.21-4.34,2.24-8.19,5.32-11.33,9.06-7.32,9.89-12.77,21.03-16.1,32.87-12.99-2.64-27.25-1.26-39.4,1.45-4.66,1.43-9,3.78-12.74,6.92-1.58,1.23-2.75,2.91-3.36,4.82-.61,1.91-.63,3.96-.07,5.88,2.06,5.53,9.89,6.85,12.82,12.02,1.07,2.47,1.74,5.1,1.96,7.78,1.26,6.44,4.77,12.23,9.91,16.31,4.27,3.39,9.99,5.47,15.22,3.94,6.19-1.8,9.95-7.85,13.13-13.42,4.12-6.62,7.45-13.69,9.93-21.08.75-2.57,1.26-5.2,1.51-7.87,3.31,1.29,6.78,2.15,10.32,2.54,7.77.61,15.58.3,23.27-.93,6.38-.74,13.42-1.84,17.49-6.83,3.45-4.13,3.76-10.32,2.33-15.55-1.79-6.34-5.77-11.84-11.25-15.51Z"/>
  <path class="cls-10" d="M666.6,194.57s.16-.12.54-.29c.53-.21,1.09-.36,1.65-.43,1.82-.22,3.66.05,5.34.77,1.68.73,3.14,1.88,4.22,3.36,1.02,1.41,1.61,3.09,1.69,4.83.17,1.98-.26,3.97-1.23,5.71-.97,1.74-2.44,3.14-4.22,4.03-1.78.89-3.79,1.22-5.76.96-1.97-.26-3.82-1.12-5.3-2.44-1.35-1.11-2.35-2.59-2.87-4.25-.42-1.43-.53-2.94-.31-4.42.3-2.14,1.27-4.12,2.79-5.66.39-.42.85-.78,1.34-1.07.35-.19.52-.27.54-.25s-.64.52-1.57,1.61c-1.3,1.54-2.11,3.44-2.33,5.45-.2,1.45-.03,2.94.5,4.31.53,1.37,1.4,2.58,2.53,3.52,1.35,1.2,3.03,1.97,4.82,2.21,1.79.24,3.61-.07,5.23-.88,1.61-.81,2.95-2.09,3.83-3.66.88-1.58,1.27-3.38,1.11-5.18-.08-1.47-.53-2.89-1.31-4.13-.78-1.24-1.86-2.27-3.15-2.97-1.75-1.03-3.76-1.51-5.78-1.4-1.59.08-2.29.39-2.29.29Z"/>
  <path class="cls-10" d="M663.83,209.7c.12.33-5.93,2.52-12.39,7-6.46,4.48-10.69,9.29-10.94,9.06.67-1.25,1.55-2.37,2.6-3.32,2.33-2.48,4.92-4.7,7.72-6.63,2.81-1.93,5.81-3.55,8.96-4.85,1.27-.63,2.64-1.06,4.05-1.26Z"/>
  <path class="cls-10" d="M660.15,208.34c-2.28.79-4.61,1.42-6.98,1.9-2.28.82-4.6,1.51-6.96,2.06,4.11-2.75,8.99-4.13,13.94-3.94v-.02Z"/>
  <path class="cls-10" d="M693.54,177.64c-3.39,2.58-6.52,5.49-9.33,8.69-2.54,3.42-4.71,7.09-6.48,10.96.09-1.28.42-2.54.99-3.7,1.14-2.87,2.72-5.55,4.67-7.95,1.94-2.39,4.22-4.48,6.77-6.19,1.01-.81,2.16-1.42,3.39-1.82Z"/>
  <path class="cls-10" d="M698.85,193.02c0,.33-4.75,1.11-10.47,2.77-5.72,1.65-10.22,3.49-10.32,3.2,6.37-3.63,13.51-5.67,20.83-5.97h-.04Z"/>
  <path class="cls-6" d="M705.82,241.85c-2.81-1.59-6.07-2.18-9.26-1.67-3.19.51-6.11,2.08-8.29,4.46-4.34,5.93-2.72,13.26,2.48,18.04,1.36,1.13,2.94,1.98,4.64,2.48,1.7.51,3.48.67,5.24.48,1.76-.19,3.46-.74,5.01-1.6,1.55-.86,2.9-2.03,3.99-3.43,1.95-3,2.64-6.65,1.93-10.16-.71-3.51-2.77-6.6-5.73-8.61Z"/>
  <path class="cls-6" d="M726.62,276.91c-2.81-1.59-6.08-2.18-9.27-1.67-3.19.51-6.11,2.09-8.28,4.47-4.34,5.91-2.72,13.23,2.48,18.03,1.36,1.13,2.94,1.98,4.64,2.48,1.7.51,3.48.67,5.24.48,1.76-.19,3.46-.74,5.01-1.6,1.55-.86,2.9-2.03,3.99-3.43,1.95-3,2.64-6.65,1.93-10.16-.71-3.51-2.77-6.6-5.73-8.61Z"/>
  <path class="cls-3" d="M701.69,237.93c-2.81-1.6-6.07-2.2-9.26-1.69-3.19.51-6.11,2.09-8.29,4.48-4.34,5.91-2.72,13.23,2.48,18.03,1.36,1.13,2.94,1.98,4.63,2.48,1.7.51,3.48.67,5.24.48,1.76-.19,3.46-.74,5.01-1.6,1.55-.86,2.9-2.03,3.99-3.43,1.94-3,2.63-6.65,1.92-10.15-.71-3.5-2.76-6.59-5.72-8.6Z"/>
  <path class="cls-7" d="M722.59,272.98c-2.81-1.59-6.08-2.18-9.27-1.67-3.19.51-6.11,2.09-8.28,4.48-4.34,5.91-2.72,13.23,2.48,18.02,1.36,1.13,2.94,1.98,4.63,2.48,1.7.51,3.48.67,5.24.48,1.76-.19,3.46-.74,5.01-1.6,1.55-.86,2.9-2.03,3.99-3.43,1.94-3.01,2.63-6.65,1.92-10.16-.71-3.51-2.76-6.6-5.72-8.61Z"/>
  <g class="cls-12">
    <path class="cls-1" d="M646.53,133.58c.72-.48,2.73,1.3,4.27,4.96.97,2.23,1.49,4.63,1.53,7.06.06,1.62-.19,3.23-.74,4.75-.72,2.03-2.2,3.69-4.13,4.65-1.77.83-3.74,1.13-5.68.85-1.56-.21-3.07-.68-4.48-1.38-2.21-1.06-4.18-2.56-5.78-4.42-2.68-3.2-3.01-5.84-2.29-6.19.72-.35,2.46,1.16,5.27,2.89,1.58,1,3.28,1.8,5.06,2.4,1.63.68,3.45.76,5.14.23.53-.27.95-.73,1.18-1.28.36-.85.59-1.76.66-2.68.22-1.89.22-3.79,0-5.68-.35-3.49-.74-5.66,0-6.13Z"/>
    <path class="cls-1" d="M611.08,148.03c-1.29.17-2.5.75-3.45,1.65-.95.9-1.58,2.08-1.82,3.36-.24,1.28-.06,2.61.5,3.79.56,1.18,1.48,2.15,2.63,2.77,1.15.62,2.46.87,3.76.7,1.29-.17,2.51-.74,3.45-1.64.95-.9,1.59-2.07,1.83-3.36.24-1.28.07-2.61-.49-3.79-.56-1.19-1.49-2.17-2.64-2.79-1.15-.63-2.48-.87-3.78-.7Z"/>
    <path class="cls-1" d="M649.95,123.56c.4,1.15,1.13,2.16,2.11,2.9.97.74,2.14,1.17,3.36,1.25,1.22.08,2.43-.21,3.49-.82s1.91-1.52,2.45-2.62c.54-1.1.75-2.33.59-3.54-.16-1.21-.67-2.35-1.47-3.27-.8-.92-1.86-1.58-3.04-1.91-1.18-.32-2.43-.29-3.59.1-.78.26-1.5.67-2.12,1.21-.62.54-1.13,1.19-1.49,1.93-.36.74-.58,1.54-.63,2.35-.05.82.06,1.64.33,2.41Z"/>
  </g>
  <path class="cls-10" d="M642.32,131.06c.74-.5,2.75,1.3,4.29,4.96.97,2.23,1.49,4.63,1.53,7.06.05,1.62-.2,3.23-.74,4.75-.73,2.02-2.21,3.68-4.13,4.65-1.78.83-3.76,1.12-5.7.83-1.55-.21-3.06-.67-4.46-1.36-2.21-1.07-4.18-2.58-5.78-4.44-2.68-3.2-3.01-5.84-2.29-6.19.72-.35,2.46,1.14,5.27,2.87,1.58,1,3.28,1.8,5.06,2.4,1.62.69,3.44.77,5.12.23.55-.25.98-.7,1.2-1.26.35-.86.58-1.78.66-2.7.22-1.88.22-3.78,0-5.66-.35-3.49-.74-5.66-.02-6.11Z"/>
  <path class="cls-10" d="M606.89,145.51c-1.29.17-2.5.75-3.45,1.65-.95.9-1.59,2.07-1.83,3.36-.24,1.28-.07,2.61.49,3.79.56,1.18,1.48,2.15,2.63,2.78,1.15.63,2.46.87,3.76.71,1.3-.17,2.51-.74,3.46-1.63.95-.89,1.6-2.07,1.84-3.35.25-1.28.08-2.61-.48-3.79-.56-1.19-1.48-2.17-2.64-2.8-1.15-.63-2.48-.88-3.78-.71Z"/>
  <path class="cls-10" d="M645.76,121.02c.4,1.16,1.13,2.17,2.1,2.91.97.74,2.14,1.18,3.36,1.26,1.22.08,2.44-.21,3.49-.82,1.06-.61,1.91-1.52,2.46-2.62.54-1.1.75-2.33.59-3.54-.16-1.21-.67-2.35-1.47-3.27-.8-.92-1.86-1.59-3.04-1.91-1.18-.32-2.43-.29-3.59.1-.78.26-1.49.67-2.11,1.21s-1.12,1.19-1.48,1.92c-.36.73-.58,1.53-.63,2.35-.05.82.06,1.64.32,2.41Z"/>
  <path class="cls-5" d="M237.6,291.38s-28.74-46,6.2-89.55c34.93-43.54,95.76-33.39,121.36-20.94,28.08,13.65,56.99,65.57,22.01,120.1,0,0-11.71,24.9-47.76,38.38,0,0,115.75,3.47,106.37,62.85-11.42,72.26-84.47,34.58-125.43,30.83-40.96-3.76,4.01,55.75,21.7,89.44,19.14,36.46,4.13,91.09-44.7,102-57.05,12.7-72.72-85.31-77.73-108.71-5.02-23.39-4.13-38.61-27.98-20.48-23.85,18.13-99.39,99.1-146.59,23.99-9.39-14.91-9.99-44.74-6.52-56.01,11.44-37.02,76.64-40.38,100.36-64.95,30.97-32.05,21.58-35.68-15.18-60.54-36.75-24.86-64.23-62.21-36.13-105.3,24.78-37.91,73.17,18.21,101.4,35.24,28.22,17.03,48.62,23.64,48.62,23.64Z"/>
  <path class="cls-9" d="M237.6,291.38s-28.74-46,6.2-89.55c34.93-43.54,95.76-33.39,121.36-20.94,28.08,13.65,56.99,65.57,22.01,120.1,0,0-11.71,24.9-47.76,38.38,0,0,115.75,3.47,106.37,62.85-11.42,72.26-84.47,34.58-125.43,30.83-40.96-3.76,4.01,55.75,21.7,89.44,19.14,36.46,4.13,91.09-44.7,102-57.05,12.7-72.72-85.31-77.73-108.71-5.02-23.39-4.13-38.61-27.98-20.48-23.85,18.13-99.39,99.1-146.59,23.99-9.39-14.91-9.99-44.74-6.52-56.01,11.44-37.02,76.64-40.38,100.36-64.95,30.97-32.05,21.58-35.68-15.18-60.54-36.75-24.86-64.23-62.21-36.13-105.3,24.78-37.91,73.17,18.21,101.4,35.24,28.22,17.03,48.62,23.64,48.62,23.64Z"/>
  <path class="cls-5" d="M227.5,266.38s-16.87-41.11,18.13-84.65c34.99-43.54,78.97-26.37,104.62-13.9,28.1,13.65,73.73,58.53,38.75,113.06,0,0-11.71,24.9-47.76,38.38,0,0,120.43,24.98,104.6,82.96-16.02,58.64-82.69,14.45-123.65,10.72-40.96-3.74-3.12,63.39,14.6,97.04,19.14,36.48,11.31,83.41-37.6,94.31-57.05,12.7-72.72-85.31-77.73-108.7-5.02-23.39-4.13-38.61-27.98-20.5-23.85,18.11-99.39,99.1-146.59,24.01-40.26-64,62.89-88.93,93.84-120.97,30.95-32.04,21.58-35.6-15.07-60.45-36.65-24.86-66.96-57.67-33.67-91.84,31.59-32.42,70.61,4.81,98.84,21.84,28.22,17.03,36.69,18.69,36.69,18.69Z"/>
  <path class="cls-6" d="M413.65,354.25c-21.6-13.44-47.71-17.92-71.42-26.53-5.29-1.94-10.57-3.92-15.82-5.95,33.24-20.09,71.48-56.96,62.44-98.44-13.26-60.74-94.63-78.46-134.99-33.96-15.84,17.47-18.79,41.03-18.58,63.78-.07,9.45.78,18.89,2.52,28.18l-25.99-15.82c-18.73-11.75-36.65-24.59-57.23-33.03-19.35-7.99-47.18-10.2-59.52,10.76-11.52,19.57,3.53,34.91,18.93,45.42,10.8,7.33,22.28,13.56,33.37,20.44,10.57,6.54,23.25,13.96,28.43,25.85,9.25,21.25-8.77,36.71-24.65,46.76-19.84,12.57-39.95,24.78-58.76,38.86-17.12,12.84-32.44,27.42-35.95,49.55-3.51,22.13,10.7,41.29,33.45,43.19,24.94,2.06,46.04-9.19,64.01-25.07,8.79-7.7,18.17-14.7,28.04-20.96,8.88-5.7,20.11-13.26,30.97-14.33,9.37-.95,10.88,8.94,13.11,16.29,3.7,12.2,6.44,24.67,9.52,37.04,5.74,23.21,10.72,50.17,28.22,67.78,15.4,15.49,39.6,18.31,56.35,3.16,14.56-13.17,21.43-35.58,15.98-54.51-3.26-11.37-11.71-19.47-18.06-29.11-7.77-11.82-14.14-24.51-18.97-37.81-7.45-20.44-14.74-55.42,16.35-57.65,21.66-1.53,42.16,8.92,62.44,14.76,17.8,5.12,48.93,9.91,60.27-9.42,11.73-20.15-8.73-39.52-24.43-49.26ZM415.59,410.72c-11.89,2.06-25.44,0-36.94-3.51-18.04-5.37-35.49-13.21-54.51-14.66-15.73-1.2-32.17,3.34-36.48,20.34-5.33,20.98,5,45.65,14.16,64,4.85,9.95,10.65,19.42,17.3,28.27,8.07,10.51,13.9,20.52,12.86,34.32-1.67,22.36-19.78,46.6-44.64,41.64-26.84-5.37-35.86-36.5-42.04-59.3-5.7-20.96-8.9-43.36-17.08-63.61-5.97-14.76-18.19-12.06-30.97-6.2-18.69,8.92-35.82,20.77-50.77,35.1-16.64,15.63-50.83,29.79-72.26,15.55-23.54-15.59-10.72-49.2,5.78-64.73,15.82-14.93,34.89-26.68,53.17-38.32,12.84-8.26,28.91-15.44,39.23-26.84,12.55-13.89,15.22-34,2.91-48.95-13.71-16.66-36.38-25.68-54.16-37.16-8.05-5.18-19.06-11.58-23.04-20.79-5.8-13.44,4.13-26.72,16.41-31.3,23.95-8.94,51.1,8.65,70.72,20.65,7.74,4.75,15.13,10.04,22.71,14.87l32.11,19.49c.5.36,1.1.54,1.72.53.62,0,1.21-.21,1.7-.58.49-.37.85-.89,1.02-1.48.18-.59.16-1.22-.04-1.8-1.88-7.73-2.95-15.63-3.2-23.58-1.22-18.81-.62-40.98,8.61-57.81,12.78-23.31,38.36-35.78,64.25-34.71,32.33,1.34,61.63,21.04,69.06,53.93,5.64,24.78-8.59,47.96-25.21,65.12-11.7,11.82-24.89,22.07-39.23,30.5-.51.23-.94.6-1.25,1.07-.31.47-.46,1.02-.46,1.58s.16,1.11.46,1.58c.3.47.74.84,1.25,1.07,18.02,7.12,36.32,13.85,54.92,19.28,21.43,6.19,49.12,15.13,59.61,37.16,6.94,14.37-3.01,26.86-17.69,29.28Z"/>
  <path class="cls-10" d="M209.02,267.35c-18.73-11.77-36.65-24.61-57.23-33.04-19.37-7.99-47.18-10.2-59.52,10.76-11.52,19.57,3.53,34.93,18.91,45.42,10.82,7.31,22.3,13.55,33.39,20.42,10.55,6.54,23.23,13.98,28.41,25.85,9.25,21.25-8.75,36.73-24.63,46.79-19.84,12.55-39.95,24.78-58.76,38.86-17.12,12.82-32.46,27.4-35.95,49.55-3.49,22.15,10.7,41.4,33.45,43.21,24.94,1.96,46.02-9.21,64.01-25.09,8.8-7.71,18.17-14.74,28.04-21.02,8.9-5.68,20.13-13.26,30.97-14.33,9.37-.93,10.88,8.94,13.11,16.29,3.7,12.2,6.44,24.67,9.5,37.04,5.76,23.23,10.74,50.17,28.25,67.78,15.4,15.49,39.58,18.31,56.34,3.16,14.56-13.15,21.43-35.57,15.98-54.49-3.28-11.38-11.71-19.47-18.07-29.13-7.78-11.82-14.15-24.51-18.99-37.81-7.45-20.44-14.72-55.42,16.37-57.62,21.66-1.55,42.16,8.9,62.44,14.74,17.8,5.14,48.91,9.91,60.27-9.41,11.77-20.11-8.67-39.46-24.34-49.22-21.6-13.44-47.73-17.92-71.42-26.53-7.12-2.6-14.25-5.27-21.29-8.05v5.33c34.33-19.22,77.47-57.81,67.93-101.67-13.26-60.74-94.62-78.46-134.99-33.96-15.84,17.49-18.81,41.05-18.58,63.78-.22,11.87,1.17,23.72,4.13,35.22l4.4-3.35-32.08-19.49c-3.12-1.9-6.67,2.6-3.51,4.52l32.08,19.51c.5.37,1.11.57,1.73.56.62,0,1.23-.21,1.72-.59.5-.38.86-.9,1.03-1.5.17-.6.15-1.24-.07-1.82-1.99-7.71-3.16-15.6-3.49-23.56-1.24-18.81-.62-40.98,8.61-57.81,12.7-23.33,38.34-35.78,64.32-34.71,32.35,1.32,61.63,21.04,69.08,53.91,5.64,24.78-8.61,47.98-25.23,65.14-11.71,11.81-24.89,22.05-39.23,30.47-.51.23-.94.6-1.25,1.07-.31.47-.47,1.02-.47,1.58s.16,1.11.47,1.58c.3.47.74.84,1.25,1.07,18.03,7.12,36.32,13.85,54.92,19.28,21.41,6.19,49.12,15.13,59.61,37.16,6.92,14.45-3.01,26.95-17.69,29.38-11.89,1.96-25.44-.1-36.94-3.53-18.04-5.37-35.51-13.19-54.51-14.66-15.73-1.2-32.17,3.35-36.48,20.34-5.35,20.98,5,45.67,14.16,64,4.84,9.95,10.64,19.41,17.3,28.25,8.07,10.53,13.87,20.54,12.86,34.33-1.71,22.34-19.92,46.58-44.7,41.69-26.84-5.35-35.86-36.5-42.06-59.3-5.7-20.96-8.9-43.36-17.05-63.59-5.99-14.78-18.19-12.08-30.87-6.19-18.68,8.93-35.82,20.78-50.77,35.1-16.64,15.65-50.85,29.79-72.26,15.57-23.54-15.61-10.72-49.2,5.76-64.75,15.84-14.91,34.91-26.67,53.17-38.32,12.84-8.26,28.91-15.42,39.35-26.84,12.55-13.87,15.2-33.99,2.91-48.93-13.73-16.68-36.38-25.68-54.18-37.16-8.03-5.2-19.04-11.6-23.02-20.81-5.8-13.42,4.13-26.72,16.52-31.3,23.93-8.92,51.1,8.67,70.72,20.65,7.74,4.77,15.13,10.03,22.81,14.87,2.95,1.79,6.48-2.71,3.37-4.67Z"/>
  <g class="cls-12">
    <path class="cls-1" d="M281.16,155.17c-5.8,10.12-1.86,23.79,6.73,31.69,8.59,7.91,20.65,10.9,32.31,11.4.77,4.68,2.54,9.13,5.19,13.06,2.65,3.93,6.12,7.24,10.17,9.7,4.05,2.46,8.58,4.02,13.29,4.57,4.71.55,9.48.07,13.98-1.4,3.84,4.83,8.44,9.37,14.31,11.34,5.86,1.96,13.17.58,16.64-4.5,3.08-4.5,2.46-10.76-.15-15.55-2.89-4.63-6.62-8.69-11-11.95-13.89-11.71-28.18-23.12-44.16-31.75-15.98-8.63-39.23-17.01-57.31-16.52"/>
  </g>
  <path class="cls-5" d="M473.65,146.07c-2.85-1.75-5.98-2.98-9.25-3.63-28.78-7.56-58.88-14.45-87.91-9.29-18.98,3.28-36.67,11.79-51.08,24.57l72.97,55.75c6.42-12.24,12.97-24.78,22.71-34.77,9.75-9.99,23.27-17.74,37.95-17.78,3.68.27,7.37.19,11.03-.25,3.57-.72,7.1-2.99,7.72-6.4.15-1.62-.16-3.24-.89-4.69-.73-1.45-1.85-2.66-3.24-3.51Z"/>
  <g class="cls-12">
    <path class="cls-1" d="M473.65,146.07c-2.85-1.75-5.98-2.98-9.25-3.63-28.78-7.56-58.88-14.45-87.91-9.29-18.98,3.28-36.67,11.79-51.08,24.57l72.97,55.75c6.42-12.24,12.97-24.78,22.71-34.77,9.75-9.99,23.27-17.74,37.95-17.78,3.68.27,7.37.19,11.03-.25,3.57-.72,7.1-2.99,7.72-6.4.15-1.62-.16-3.24-.89-4.69-.73-1.45-1.85-2.66-3.24-3.51Z"/>
  </g>
  <path class="cls-5" d="M467,136.2c-2.81-1.83-5.94-3.11-9.23-3.76-28.76-7.66-58.84-14.45-88.02-8.71-19.39,3.91-37.28,13.21-51.62,26.84l72.41,58.47c6.61-13.17,13.36-26.51,23.27-37.41,9.91-10.9,23.56-19.24,38.28-19.47,3.69.24,7.4.09,11.07-.43,3.59-.81,7.16-3.28,7.85-6.92.18-1.66-.1-3.34-.81-4.86-.71-1.52-1.81-2.81-3.2-3.75Z"/>
  <path class="cls-7" d="M287.56,175.51c-2.72-1.34-4.91-3.56-6.22-6.29-1.31-2.73-1.67-5.83-1.02-8.79.65-2.96,2.28-5.62,4.61-7.55,2.34-1.93,5.26-3.02,8.29-3.1.91.05,1.82-.03,2.7-.23,1.39-.63,2.6-1.62,3.51-2.85,2.57-2.75,5.85-4.74,9.47-5.76,3.62-1.01,7.46-1.01,11.08,0,3.62,1.02,6.9,3.01,9.46,5.77,2.56,2.75,4.32,6.16,5.08,9.85,3.75-1.66,7.79-2.54,11.89-2.57s8.16.76,11.94,2.35c3.74,1.67,6.94,4.38,9.2,7.8,2.27,3.42,3.52,7.41,3.6,11.51,3.11-1.12,6.48-1.31,9.7-.56,3.22.75,6.16,2.42,8.45,4.79,2.3,2.38,3.86,5.37,4.5,8.62.64,3.24.33,6.61-.89,9.68,3.22.31,5.28,3.49,6.77,6.36,2.66,5.12,5.14,10.82,4.13,16.52-1.38,7.87-9.62,13.42-17.59,13.09-7.97-.33-15.2-5.68-19.24-12.57-1.72-2.94-2.95-6.15-3.61-9.5-3.32,1.81-7.02,2.8-10.8,2.89s-7.52-.73-10.92-2.39c-3.4-1.65-6.35-4.1-8.61-7.13-2.26-3.03-3.77-6.55-4.39-10.28-.23-1.28-.43-2.79-1.55-3.47-.82-.39-1.75-.51-2.64-.33-7,.56-14.22.66-20.83-1.71-6.61-2.37-12.53-7.7-13.89-14.58"/>
  <path class="cls-7" d="M496.49,148.4c-.79,3.82-2.69,7.31-5.47,10.05-2.77,2.73-6.3,4.58-10.13,5.32-3.83.73-7.79.31-11.37-1.21-3.59-1.52-6.65-4.07-8.78-7.33-2.14-3.26-3.26-7.08-3.23-10.97.03-3.9,1.22-7.7,3.41-10.92,2.19-3.22,5.29-5.72,8.9-7.18,3.61-1.46,7.58-1.82,11.39-1.02,2.53.52,4.93,1.54,7.07,2.99,2.14,1.45,3.97,3.31,5.39,5.47,1.42,2.16,2.4,4.58,2.88,7.12.48,2.54.46,5.15-.06,7.68Z"/>
  <path class="cls-10" d="M146.67,485.52c0,.29-3.18.62-8.71-.74-3.39-.86-6.63-2.25-9.58-4.13-4.09-2.53-7.36-6.2-9.41-10.55-1.19-2.74-1.82-5.69-1.85-8.67-.04-2.99.52-5.95,1.65-8.71,1.3-3.23,3.57-5.98,6.48-7.89,1.6-1.08,3.4-1.83,5.3-2.18,1.9-.36,3.85-.32,5.73.12,2.13.49,4.06,1.65,5.49,3.3,1.45,1.75,2.29,3.92,2.42,6.19.12,2.18-.33,4.36-1.3,6.32-.99,1.93-2.4,3.62-4.13,4.93-3.35,2.43-7.31,3.86-11.44,4.13-4.14.37-8.31-.23-12.18-1.75-3.9-1.48-7.38-3.91-10.12-7.06-2.62-3.07-4.5-6.7-5.49-10.61-.99-3.79-1.09-7.75-.31-11.58.73-3.9,2.78-7.43,5.8-9.99,1.55-1.26,3.39-2.13,5.34-2.53,1.96-.4,3.99-.32,5.91.24,1.94.62,3.63,1.83,4.83,3.47,1.11,1.53,1.77,3.34,1.92,5.22.19,1.72-.03,3.47-.62,5.1-.6,1.63-1.56,3.1-2.82,4.29-2.27,2.06-5.19,3.28-8.26,3.45-2.68.19-5.35-.35-7.74-1.57-2.05-1.03-3.9-2.43-5.45-4.13-2.38-2.64-4.19-5.74-5.31-9.11-1.78-5.41-1.88-8.51-1.59-8.59.29-.08,1.26,2.89,3.53,7.78,1.33,2.91,3.19,5.56,5.49,7.78,1.38,1.43,3.05,2.54,4.9,3.25,1.85.71,3.84,1.01,5.82.88,2.15-.22,4.16-1.15,5.72-2.64.75-.78,1.31-1.72,1.64-2.74.33-1.03.43-2.11.28-3.18-.08-1.06-.48-2.08-1.15-2.91-.67-.83-1.57-1.45-2.59-1.75-1.16-.28-2.38-.29-3.55-.01-1.17.28-2.25.82-3.16,1.6-2.06,1.91-3.42,4.46-3.86,7.23-.56,3.05-.43,6.19.37,9.19.8,3.16,2.35,6.09,4.5,8.54,2.15,2.45,4.86,4.36,7.89,5.56,3.1,1.22,6.43,1.7,9.75,1.42,3.12-.19,6.13-1.25,8.69-3.06,1.1-.76,1.99-1.77,2.6-2.96.61-1.18.91-2.5.89-3.84,0-1.15-.41-2.27-1.14-3.17-.73-.9-1.74-1.52-2.87-1.76-1.22-.31-2.49-.36-3.74-.17-1.24.2-2.44.64-3.51,1.3-2.18,1.36-3.89,3.35-4.91,5.7-1.97,4.48-2.1,9.55-.35,14.12,1.6,3.82,4.22,7.13,7.58,9.56,2.62,1.91,5.49,3.45,8.53,4.58,5.1,1.88,8.18,2.29,8.11,2.72Z"/>
  <path class="cls-3" d="M112.87,493.88c-.31.6-3.78-.25-8.73-3.14-2.89-1.72-5.6-3.72-8.09-5.97-6.16-5.54-11.05-12.34-14.33-19.95-1.35-3.07-2.38-6.28-3.08-9.56-1.16-5.62-.85-9.19-.17-9.27.68-.08,1.82,3.16,3.8,8.26.99,2.52,2.31,5.41,3.92,8.55,1.78,3.38,3.78,6.63,5.99,9.75,2.24,3.08,4.69,6.01,7.31,8.77,2.17,2.26,4.46,4.4,6.85,6.42,4.09,3.39,6.92,5.41,6.52,6.13Z"/>
  <path class="cls-10" d="M312.52,494.26c.15,0,0,.85-.72,2.06-1.04,1.93-2.44,3.64-4.13,5.04-2.68,2.31-5.87,3.94-9.31,4.77-4.67,1.14-9.6.65-13.96-1.38-5.38-2.48-9.62-6.91-11.87-12.39-.64-1.53-1.09-3.13-1.32-4.77-.3-1.92-.07-3.88.66-5.68.91-1.99,2.56-3.55,4.6-4.34,1.97-.78,4.13-.95,6.19-.47,1.96.57,3.76,1.56,5.29,2.91,1.53,1.35,2.73,3.02,3.53,4.89,1.64,3.56,2.35,7.47,2.06,11.38-.28,4.02-1.54,7.9-3.68,11.31-2.24,3.54-5.41,6.4-9.17,8.26-3.66,1.85-7.75,2.72-11.85,2.52-4.1-.2-8.08-1.46-11.55-3.66-3.19-2.07-5.84-4.87-7.73-8.17-1.89-3.3-2.97-7-3.15-10.8-.09-1.93.21-3.85.89-5.66.77-2.01,2.24-3.68,4.13-4.71,1.78-.93,3.81-1.28,5.8-.99,1.84.23,3.6.94,5.08,2.07,1.29,1.07,2.36,2.39,3.12,3.89s1.22,3.13,1.34,4.8c.27,2.89-.2,5.8-1.36,8.47-1.94,4.36-5.17,8.03-9.25,10.51-2.93,1.81-6.13,3.15-9.48,3.99-5.45,1.32-8.51,1.3-8.57.99-.06-.31,2.91-1.12,7.93-2.99,3-1.11,5.84-2.61,8.44-4.46,3.32-2.37,5.89-5.64,7.39-9.44.79-2.09,1.06-4.35.78-6.57-.24-2.2-1.33-4.23-3.04-5.64-.84-.61-1.84-.99-2.88-1.08-1.04-.09-2.09.09-3.03.54-.89.71-1.57,1.65-1.97,2.71-.4,1.06-.51,2.22-.31,3.34.23,2.97,1.14,5.85,2.67,8.4,1.53,2.56,3.62,4.73,6.13,6.34,2.71,1.66,5.8,2.6,8.98,2.73,3.18.13,6.33-.56,9.17-2.01,2.87-1.38,5.3-3.52,7.04-6.19,1.68-2.67,2.69-5.71,2.93-8.86.27-3-.23-6.02-1.45-8.77-.45-1.2-1.16-2.28-2.08-3.18-.92-.89-2.02-1.58-3.22-2-1.07-.28-2.2-.23-3.24.14-.45.15-.86.38-1.21.69-.36.31-.64.68-.85,1.11-.69,2.27-.51,4.71.5,6.86,1.73,4.55,5.07,8.3,9.39,10.53,3.58,1.9,7.69,2.56,11.69,1.88,3.09-.53,6.04-1.72,8.63-3.49,4.17-2.79,5.57-5.64,5.99-5.43Z"/>
  <path class="cls-3" d="M325.45,519.8c.31,1.45-15.42,5.99-35.1,10.12-19.68,4.13-35.95,6.3-36.24,4.83-.29-1.47,15.42-5.97,35.1-10.1,19.68-4.13,35.93-6.3,36.24-4.85Z"/>
  <path class="cls-3" d="M393.11,410.41c-.7,0-1.63-2.99-2.06-8.05-.54-6.61-.24-13.26.89-19.8,1.06-6.55,2.93-12.95,5.57-19.04,2.06-4.63,3.96-7.21,4.63-6.94,1.42.62-2.52,12.18-4.89,26.84-2.38,14.66-2.56,26.86-4.13,26.98Z"/>
  <path class="cls-10" d="M394.28,351.17c.17,0,.37.72.33,2.06-.07,2.07-.57,4.1-1.47,5.97-1.37,3.03-3.51,5.66-6.2,7.62-3.69,2.72-8.28,3.94-12.84,3.41-2.64-.29-5.19-1.1-7.52-2.38-2.56-1.38-4.8-3.29-6.54-5.62-.97-1.26-1.76-2.65-2.35-4.13-.8-1.78-.98-3.77-.52-5.66.34-1.15,1.03-2.17,1.96-2.93.88-.72,1.93-1.19,3.06-1.38,1.88-.3,3.81-.13,5.61.5,6.58,2.44,12.1,7.1,15.61,13.17,1.87,3.21,3.1,6.76,3.59,10.45.61,4.06-.23,8.21-2.37,11.71-2.36,3.4-5.89,5.8-9.91,6.75-3.54.91-7.21,1.22-10.86.91-1.88-.11-3.74-.5-5.51-1.16-1.92-.73-3.62-1.94-4.93-3.51-1.44-1.61-2.24-3.7-2.24-5.86s.8-4.25,2.24-5.86c1.28-1.47,2.96-2.56,4.83-3.12,1.7-.52,3.49-.69,5.27-.5,3.22.35,6.27,1.63,8.77,3.68,2.18,1.78,3.95,4.01,5.16,6.55,1.21,2.54,1.85,5.32,1.86,8.13,0,2.46-.59,4.88-1.71,7.06-.99,1.91-2.32,3.62-3.94,5.04-2.56,2.17-5.67,3.6-8.98,4.13-2.06.35-4.18.23-6.2-.35-1.34-.43-1.96-.87-1.9-1.01,0-.49,2.93.58,7.62-.68,2.78-.81,5.31-2.3,7.37-4.34,1.3-1.28,2.32-2.82,2.99-4.51.67-1.69.98-3.51.91-5.34-.13-2.19-.73-4.32-1.76-6.26-1.03-1.94-2.47-3.62-4.21-4.95-1.9-1.31-4.12-2.07-6.42-2.19-1.08-.16-2.18-.05-3.21.31-1.03.36-1.95.96-2.7,1.76-.68.7-1.06,1.64-1.06,2.61s.38,1.91,1.06,2.61c.91.89,1.99,1.59,3.17,2.05,1.18.46,2.45.69,3.72.65,3.04.22,6.09-.05,9.04-.81,2.75-.63,5.19-2.25,6.83-4.54,1.45-2.45,2-5.34,1.55-8.16-.39-2.97-1.35-5.84-2.85-8.44-2.83-5.01-7.26-8.92-12.59-11.09-1.01-.4-2.1-.55-3.18-.43-.29,0-.58.09-.82.26s-.43.4-.54.67c-.47,1.14.6,3.9,1.94,5.7,1.29,1.81,2.93,3.34,4.81,4.52,1.88,1.18,3.98,1.97,6.17,2.34,3.68.62,7.46-.11,10.63-2.06,2.49-1.56,4.57-3.68,6.09-6.2.99-1.6,1.74-3.34,2.23-5.16.52-1.36.66-1.98.89-1.98Z"/>
  <path class="cls-10" d="M163.58,246.78c0,.21-.68.21-1.8.37-1.98.34-3.81,1.26-5.28,2.63-1.47,1.37-2.5,3.14-2.98,5.09-.66,3.17-.23,6.47,1.24,9.35,1.93,3.62,4.69,6.74,8.05,9.1.64.52,1.39.9,2.19,1.1.52,0,.43,0,.6-.29.23-.67.23-1.39,0-2.06-.29-.96-.76-1.86-1.38-2.64-1.43-1.8-3.35-3.15-5.53-3.88-2.4-.8-4.92-1.17-7.45-1.09-2.69-.05-5.37.25-7.99.87-1.05.16-2.03.61-2.85,1.3-.81.68-1.42,1.58-1.76,2.59-.29,2.37.23,4.78,1.49,6.81.62,1.2,1.34,2.48,2.06,3.68.62,1.1,1.36,2.14,2.21,3.08.67.78,1.52,1.39,2.48,1.77.79.34,1.66.41,2.5.21.33-.09.63-.26.89-.48.26-.22.47-.49.62-.8.38-.77.53-1.63.43-2.48-.16-.93-.53-1.82-1.06-2.59-.54-.78-1.24-1.43-2.05-1.91-1.79-1.17-3.79-1.98-5.88-2.38-3.84-.85-7.85-.39-11.4,1.32-2.91,1.38-5.17,3.83-6.32,6.83-.91,2.33-1.18,4.86-.76,7.33.25,1.6.81,3.14,1.65,4.52.56.97.95,1.49.81,1.65-.14.17-.74-.12-1.65-.97-1.34-1.29-2.33-2.9-2.85-4.69-.69-2.34-.83-4.82-.4-7.22.43-2.4,1.42-4.68,2.88-6.63,1.33-1.67,2.96-3.07,4.81-4.13,4.27-2.39,9.23-3.23,14.04-2.37,2.72.42,5.33,1.38,7.68,2.83,1.43.83,2.65,1.96,3.59,3.32.94,1.36,1.57,2.9,1.84,4.53.26,1.82-.02,3.69-.83,5.35-.45.93-1.08,1.76-1.87,2.43-.78.68-1.69,1.18-2.68,1.49-1.85.46-3.8.41-5.62-.17-1.82-.58-3.45-1.65-4.7-3.09-1.12-1.2-2.11-2.52-2.93-3.94-.81-1.32-1.55-2.6-2.29-4.13-.79-1.51-1.41-3.1-1.84-4.75-.48-1.92-.48-3.93,0-5.84.56-2.04,1.75-3.85,3.41-5.16,1.48-1.12,3.18-1.94,4.98-2.42,1.59-.42,3.21-.69,4.85-.81,1.57-.12,3.06-.19,4.6-.17,3.14-.03,6.27.49,9.23,1.53,3.01,1.13,5.64,3.09,7.58,5.66.95,1.31,1.65,2.79,2.06,4.36.51,1.8.35,3.73-.43,5.43-.52,1.03-1.37,1.85-2.42,2.33-1,.44-2.11.57-3.18.37-1.52-.35-2.93-1.06-4.13-2.06-3.72-2.91-6.7-6.67-8.67-10.96-1.62-3.72-1.85-7.89-.66-11.77.95-2.93,3-5.38,5.72-6.83,1.65-.92,3.55-1.31,5.43-1.11,1.2.08,1.75.45,1.73.62Z"/>
  <path class="cls-3" d="M106.94,283.02c-1.3-.56,3.01-13.07,12.39-26.24,9.37-13.17,19.78-21.37,20.65-20.32.87,1.05-7.33,10.72-16.35,23.43-9.02,12.72-15.28,23.77-16.68,23.13Z"/>
  <g class="cls-12">
    <path class="cls-1" d="M249.1,335.44c-2.16,1.19-3.94,2.98-5.13,5.15-1.18,2.17-1.73,4.63-1.56,7.1.23,2.47,1.2,4.8,2.77,6.71,1.58,1.91,3.69,3.3,6.06,4,2.4.62,4.92.48,7.24-.4,2.31-.88,4.3-2.45,5.69-4.5,1.29-2.11,1.87-4.58,1.66-7.04-.22-2.46-1.22-4.79-2.85-6.65"/>
  </g>
  <path class="cls-7" d="M265.1,344.63c-.47,2.29-1.61,4.38-3.28,6.02-1.66,1.64-3.78,2.75-6.07,3.19-2.29.44-4.67.19-6.82-.72-2.15-.91-3.98-2.43-5.27-4.39-1.29-1.95-1.96-4.24-1.95-6.57.01-2.34.72-4.61,2.03-6.55,1.31-1.93,3.17-3.43,5.33-4.31,2.16-.88,4.54-1.1,6.83-.63,1.52.31,2.96.92,4.25,1.79,1.29.87,2.39,1.98,3.24,3.28.85,1.3,1.44,2.75,1.74,4.27.29,1.53.28,3.09-.03,4.61Z"/>
  <g class="cls-12">
    <path class="cls-1" d="M225.33,384.35c-2.17,1.2-3.95,2.99-5.13,5.16-1.18,2.17-1.73,4.64-1.56,7.11.23,2.46,1.2,4.8,2.77,6.71,1.58,1.91,3.69,3.3,6.06,4,2.4.62,4.92.48,7.24-.4,2.31-.88,4.3-2.45,5.69-4.5,1.29-2.11,1.87-4.58,1.65-7.05-.22-2.47-1.22-4.79-2.87-6.64"/>
  </g>
  <path class="cls-3" d="M241.11,394.64c-.47,2.29-1.61,4.38-3.28,6.02-1.66,1.64-3.78,2.75-6.07,3.19-2.29.44-4.67.19-6.82-.73-2.15-.91-3.98-2.44-5.27-4.39-1.28-1.95-1.96-4.24-1.94-6.58s.73-4.61,2.04-6.54c1.31-1.93,3.17-3.43,5.33-4.31,2.17-.88,4.54-1.09,6.83-.62,3.07.64,5.75,2.46,7.47,5.08,1.72,2.62,2.33,5.81,1.69,8.88Z"/>
  <path class="cls-10" d="M245.59,344.05c-.35-.74-.53-1.55-.53-2.37s.18-1.63.53-2.38c.78-2.62,2.58-4.13,2.75-3.86.17.27-1.01,1.84-1.74,4.13-.72,2.29-.7,4.44-1.01,4.48Z"/>
  <path class="cls-10" d="M247.86,348.51c-.15.25-.74.12-1.07-.45-.33-.58,0-1.16.23-1.14.23.02.54.31.72.62.1.14.16.3.18.47.02.17,0,.34-.06.5Z"/>
  <path class="cls-10" d="M221.74,393.27c-.49-.73-.79-1.57-.88-2.44-.09-.87.04-1.76.37-2.57.78-2.87,2.91-4.27,3.06-4.03-.78,1.39-1.47,2.83-2.06,4.31-.25,1.57-.4,3.14-.48,4.73Z"/>
  <path class="cls-10" d="M224.75,399.86c-.23.19-.83-.17-1.36-.81-.54-.64-.74-1.28-.52-1.47.23-.19.83.16,1.36.78.54.62.72,1.3.52,1.49Z"/>
  <path class="cls-10" d="M133.12,222.34c-4.88-1.39-9.89-2.25-14.95-2.56-5.07.06-10.11.65-15.05,1.78,1.28-.76,2.67-1.3,4.13-1.61,7.12-1.84,14.62-1.65,21.64.56,1.51.36,2.94.98,4.23,1.84Z"/>
  <path class="cls-10" d="M302.34,153.98c-.12,0-.1-1.01.47-2.46.8-1.88,2.08-3.53,3.7-4.76,1.63-1.24,3.56-2.02,5.59-2.28,1.57-.17,2.52,0,2.5.21-.02.21-.95.21-2.35.54-1.84.44-3.57,1.25-5.08,2.39-1.51,1.14-2.76,2.58-3.68,4.24-.7,1.26-.99,2.15-1.16,2.13Z"/>
  <path class="cls-10" d="M288.08,165.56s-.6-.68-.83-2.06c-.23-1.8.08-3.62.89-5.24.81-1.62,2.08-2.97,3.65-3.86,1.22-.64,2.06-.68,2.06-.58s-.7.48-1.71,1.22c-1.31.98-2.38,2.24-3.12,3.7-.71,1.47-1.08,3.08-1.07,4.71.08,1.28.29,2.06.12,2.13Z"/>
  <path class="cls-10" d="M395.21,126.52c0,.19-3.08,0-7.99.25-6.41.35-12.76,1.42-18.93,3.2-6.13,1.82-12.04,4.35-17.59,7.52-4.29,2.44-6.77,4.25-6.88,4.13.48-.54,1.03-1.01,1.63-1.4,1.55-1.21,3.17-2.32,4.85-3.34,11.13-6.84,23.89-10.58,36.96-10.82,1.96-.05,3.93.02,5.88.21.7,0,1.39.08,2.06.27Z"/>
  <g class="cls-12">
    <path class="cls-1" d="M320.41,253.35c.74.29.81,3.1-1.38,7.18-1.36,2.5-3.37,4.59-5.82,6.03-1.63.95-3.43,1.57-5.3,1.81-1.87.24-3.77.1-5.58-.41-1.99-.61-3.78-1.74-5.18-3.28-1.2-1.35-2.13-2.92-2.72-4.63-.88-2.6-1.2-5.36-.95-8.09.44-4.52,1.96-6.94,2.77-6.75.81.19.99,2.79,1.71,6.57.35,2.09.97,4.13,1.86,6.05.4.96.99,1.82,1.74,2.53.75.71,1.64,1.26,2.62,1.6,2.12.54,4.36.36,6.36-.52,1.84-.85,3.51-2.04,4.91-3.51,2.62-2.72,4.13-4.95,4.98-4.58Z"/>
  </g>
  <path class="cls-9" d="M294.4,235.51c-.86,1.11-2.04,1.95-3.38,2.39-1.34.45-2.77.48-4.13.11-1.36-.37-2.58-1.14-3.5-2.2-.92-1.06-1.51-2.38-1.69-3.78s.07-2.82.7-4.08c.63-1.26,1.62-2.3,2.85-3,1.22-.7,2.63-1.02,4.03-.92,1.41.1,2.75.61,3.86,1.48,1.49,1.16,2.46,2.86,2.7,4.74.24,1.87-.28,3.77-1.44,5.26Z"/>
  <path class="cls-9" d="M342.69,255.23c-.86,1.11-2.04,1.95-3.38,2.39-1.34.44-2.77.49-4.13.11-1.36-.37-2.58-1.14-3.5-2.2-.92-1.06-1.51-2.38-1.69-3.78-.18-1.4.07-2.82.7-4.08.63-1.26,1.62-2.3,2.84-3,1.22-.7,2.63-1.02,4.03-.92,1.41.1,2.75.61,3.86,1.48,1.49,1.16,2.45,2.86,2.69,4.74.24,1.87-.28,3.76-1.43,5.26Z"/>
  <path class="cls-10" d="M318.61,250.62c.62.23.58,2.99-1.65,6.98-1.38,2.42-3.36,4.43-5.76,5.84-1.58.92-3.32,1.51-5.13,1.74-1.81.23-3.65.09-5.4-.4-1.92-.58-3.65-1.68-5-3.16-1.17-1.3-2.07-2.83-2.64-4.48-.89-2.54-1.23-5.24-1.01-7.93.33-4.46,1.74-6.9,2.42-6.73.68.17.74,2.75,1.38,6.57.31,2.14.92,4.22,1.8,6.2.41,1.02,1.03,1.93,1.83,2.69.8.75,1.75,1.32,2.79,1.67,2.23.59,4.6.38,6.69-.58,1.88-.91,3.57-2.16,4.98-3.7,2.58-2.77,3.98-5.02,4.71-4.71Z"/>
  <path class="cls-10" d="M292.6,232.77c-.86,1.11-2.04,1.95-3.37,2.39-1.34.45-2.78.49-4.13.11-1.36-.37-2.58-1.14-3.5-2.2-.92-1.06-1.51-2.38-1.69-3.78-.18-1.4.07-2.82.7-4.08.63-1.26,1.62-2.31,2.84-3,1.22-.7,2.63-1.02,4.03-.92,1.41.1,2.75.61,3.86,1.48,1.49,1.16,2.46,2.86,2.7,4.74.24,1.87-.28,3.77-1.44,5.26Z"/>
  <path class="cls-10" d="M340.89,252.5c-.86,1.11-2.04,1.94-3.38,2.38-1.34.44-2.77.48-4.13.11-1.36-.37-2.57-1.14-3.49-2.21-.92-1.06-1.51-2.38-1.68-3.77-.18-1.4.07-2.81.7-4.07.63-1.26,1.62-2.3,2.84-3,1.22-.7,2.62-1.02,4.03-.92,1.4.1,2.75.61,3.86,1.47.74.57,1.36,1.29,1.83,2.1.46.81.76,1.71.88,2.64.12.93.05,1.87-.2,2.78s-.67,1.75-1.25,2.49Z"/>
</svg>
