<?xml version="1.0" encoding="UTF-8"?>
<svg id="Layer_1" data-name="Layer 1" xmlns="http://www.w3.org/2000/svg" viewBox="0 0 1000 1000">
  <defs>
    <style>
      .cls-1 {
        fill: #000;
      }

      .cls-1, .cls-2, .cls-3, .cls-4, .cls-5, .cls-6, .cls-7, .cls-8, .cls-9, .cls-10, .cls-11 {
        stroke-width: 0px;
      }

      .cls-2 {
        fill: #e0e0e0;
      }

      .cls-3 {
        fill: #eb996e;
      }

      .cls-4 {
        fill: #455a64;
      }

      .cls-5 {
        fill: #f5f5f5;
      }

      .cls-6 {
        fill: #09f;
      }

      .cls-7 {
        fill: #ebebeb;
      }

      .cls-8 {
        fill: #d1734a;
      }

      .cls-9 {
        fill: #263238;
      }

      .cls-10 {
        fill: #fafafa;
      }

      .cls-12 {
        opacity: .6;
      }

      .cls-11 {
        fill: #fff;
      }
    </style>
  </defs>
  <path class="cls-2" d="M205.14,661.28c-10.65-6.69-22.69-10.84-35.2-12.13-5.72-.59-12.03-.42-16.65,3.07-.54.3-.98.74-1.28,1.28-.3.53-.45,1.14-.43,1.76.26.87.84,1.61,1.62,2.08,14.32,10.92,36,12.32,51.94,3.95Z"/>
  <path class="cls-2" d="M204.24,660.23c-8.13-5.97-15.72-12.65-22.67-19.96-7.01-7.37-11.93-16.47-14.26-26.37-.61-2.99-.8-6.43,1.13-8.81,18.13,14.15,32.41,32.41,35.87,55.18"/>
  <path class="cls-2" d="M204.97,661.13c-1.37-9.91-1.91-20.1.42-29.84,2.33-9.74,7.63-19.07,15.9-24.64,3.13,7.32,1.77,15.75-.42,23.4-3.43,11.85-8.75,23.06-15.77,33.2"/>
  <path class="cls-2" d="M222.72,692.97c-10.77,1.31-20.17,7-28.22,14.3-8.11,7.36-13.75,17.04-16.15,27.72,10.58-.67,19.54-8.12,26.07-16.49,6.52-8.37,11.02-17.54,18.17-25.36"/>
  <path class="cls-2" d="M226.59,698.06c-4.25-10.78-5.74-22.45-4.34-33.95,1.41-11.5,5.66-22.47,12.38-31.91,6.14,21.85,3.81,46.54-8.05,65.86Z"/>
  <path class="cls-2" d="M250.06,726.01c-9.85-.62-19.67,1.67-28.23,6.59-8.56,4.92-15.49,12.24-19.92,21.06-.59,1.18-1.13,2.71-.32,3.81.42.4.93.7,1.49.86.56.16,1.15.19,1.72.08,9.53-.61,17.89-6.33,24.79-12.81,6.9-6.48,12.98-14.01,20.65-19.64"/>
  <path class="cls-2" d="M249.32,724.51c-5.05-16.27-5.37-33.65-.9-50.09,1.75-6.46,4.73-13.25,10.68-16.26.24-.16.51-.27.79-.32.28-.05.57-.04.85.03.49.25.86.68,1.03,1.2,2.01,4.5,2.88,9.44,2.54,14.36-.36,4.9-1.11,9.77-2.25,14.55-1.91,8.91-2.88,18.46-7.76,26.12-1.15,1.84-2.19,3.75-3.11,5.72-.92,1.91-.92,2.63-1.77,4.18"/>
  <path class="cls-2" d="M311.46,733.75c-4.6-17.5.29-38.75,11.33-53.1.8-1.05,1.91-2.19,3.2-2.06,2.04.19,2.57,2.9,2.48,4.94-.84,18.01-6.74,35.41-17.01,50.23Z"/>
  <path class="cls-2" d="M317.07,737.59c21.28,5.53,45.76.15,63.38-12.89-10.61-5.33-22.74-6.82-34.32-4.21-11.44,2.63-21.93,7.76-29.06,17.16"/>
  <path class="cls-2" d="M321.79,725.92c11.92-19.43,34.76-32.11,57.53-33.25-2.63,9.25-10.24,16.46-18.82,20.8-8.58,4.35-18.17,6.24-27.61,8.07-3.68.73-8.71,1.51-11.1,4.39Z"/>
  <path class="cls-2" d="M312.64,669.34c3.22-11.06,6.46-22.21,7.36-33.69.9-11.48-.74-23.47-6.71-33.33-11.14,21.55-12.26,46.72-.97,68.17"/>
  <path class="cls-2" d="M350.13,650.39c13-23.64,39.56-42.54,66.43-45.19-10.35,25.8-38.63,45.76-66.43,45.19Z"/>
  <path class="cls-2" d="M341.93,655.04c19.41,2.96,35.96,15.35,54.09,22.88,3.81,1.83,8.03,2.64,12.24,2.34,1.97,0,3.88-.62,5.49-1.76,1.6-1.14,2.82-2.74,3.47-4.6.66-1.85.72-3.87.19-5.76-.53-1.89-1.64-3.58-3.16-4.82-2.57-2.38-5.59-4.22-8.88-5.4-19.77-8.24-40.96-8.45-61.72-3.43"/>
  <path class="cls-2" d="M330.7,668.66c4.39,1.26,5.89,3.53,9.38,6.48,11.87,10.09,25.9,17.31,41.01,21.09,1.56.38,3.62.53,4.4-.88.78-1.41-.19-2.73-1.07-3.81-6.6-7.74-15.16-13.55-24.79-16.82-9.53-3.53-17.68-7.78-28.96-6.86"/>
  <path class="cls-2" d="M318.02,586.42c7.96,7.34,17.37,12.93,27.61,16.42,10.25,3.49,21.11,4.79,31.9,3.83,1,.02,1.97-.33,2.73-.97,1.49-1.64-.3-4.16-2.06-5.51-17.48-13.65-38.69-19.3-60.18-13.77Z"/>
  <path class="cls-2" d="M333.04,580.91c10.54-7.75,22.76-12.89,35.67-15.01,12.91-2.12,26.13-1.16,38.6,2.81-9.34,9.21-22.33,14.17-35.39,15.52-13.05,1.2-26.21.09-38.88-3.28"/>
  <path class="cls-2" d="M327.08,543.12c-1.72-17.47-.61-31.25-1.81-48.79-.1-1.41-.4-3.09-1.72-3.6-1.91-.69-3.36,1.54-3.95,3.41-2.55,8.13-3.2,16.74-1.9,25.17,1.29,8.42,4.49,16.44,9.36,23.44"/>
  <path class="cls-2" d="M325.82,545.06c11.84-7.32,20.73-16.89,28.93-28.12,5.72-7.82,10.54-17.16,9.25-26.79-8.03-.15-15.65,4.27-20.88,10.37-5.22,6.1-8.31,13.71-10.64,21.39-2.33,7.68-3.93,15.58-6.65,23.15Z"/>
  <path class="cls-2" d="M354.25,537.15c26.04-9.62,50.16-23.83,71.2-41.95-8.5-3.41-18.25-1.37-26.69,2.06-19.41,7.86-35.29,21.09-44.83,39.74"/>
  <path class="cls-2" d="M333.81,554.61c13.16,1.43,26.5,2.36,39.55.19,13.04-2.17,24.92-7.23,36.91-12.26,1.04-.3,1.93-.98,2.5-1.91.19-.56.2-1.16.04-1.72-.16-.57-.49-1.07-.94-1.44-.92-.73-2-1.23-3.15-1.47-13.02-3.64-27.08-1.91-39.89,2.38-12.21,4.17-23.95,9.61-35.03,16.23Z"/>
  <path class="cls-2" d="M258.76,587.01c-8.96-18.1-8.39-39.22-.63-57.89,5.45,8.31,6.12,18.9,5.11,28.79-1.01,9.9-4,20.06-4.2,29.99"/>
  <path class="cls-2" d="M222.93,568.93c-11.23-.15-22.36,2.05-32.69,6.46-10.33,4.4-19.63,10.91-27.3,19.11,11.17,1.75,22.69-1.12,32.85-6.1,10.16-4.98,19.2-11.92,28.14-18.84"/>
  <path class="cls-2" d="M198.85,560.89c-10.94-.9-21.49-2.25-32.01.99-10.53,3.24-20.12,10.64-24.43,20.69,10.34.82,20.72-1.15,30.03-5.72,9.26-4.55,18.09-9.91,26.41-16.02"/>
  <path class="cls-2" d="M234.5,561.25c-9.84-6.45-19.96-13.02-31.44-15.69-11.48-2.67-24.79-.7-32.76,7.95,9.29,5.43,20.55,6.08,31.31,6.08s23.97-.13,34.13,3.45"/>
  <path class="cls-2" d="M234.56,561.78c-16.84-16.55-23.22-46.26-16.46-68.87,13.3,20.35,19.12,44.7,16.46,68.87Z"/>
  <path class="cls-2" d="M280.89,514.92c3.17-7.4,5.42-15.14,8.26-22.67,2.61-7.6,6.6-14.65,11.78-20.78,5.27-6.2,12.76-10.08,20.86-10.81-2.59,11.4-7.53,22.13-14.51,31.51-6.97,9.38-15.83,17.2-25.99,22.97"/>
  <path class="cls-2" d="M272.5,524.68c-5.26-7.25-11.33-17.16-18.46-22.46-7.13-5.3-16.42-8.68-25.11-6.6,4.51,7.9,10.79,14.63,18.35,19.68,7.56,5.05,16.2,8.26,25.22,9.38Z"/>
  <path class="cls-2" d="M274.18,515.51c-3.45-8.75-6.92-17.6-8.31-26.9-1.39-9.3-.53-19.26,4.21-27.36,9.25,17.47,12.22,36.23,4.58,54.48"/>
  <path class="cls-2" d="M280.97,461.24c5.24-17.33,21.11-30.09,38.23-35.94,2.12-.87,4.43-1.22,6.71-1.01,1.14.11,2.22.57,3.1,1.3.88.73,1.52,1.72,1.84,2.82.63,2.96-1.81,5.59-4.1,7.63-13.39,11.43-28.96,20.03-45.76,25.28"/>
  <path class="cls-2" d="M281.16,447.05c.67-11.17,1.37-22.5,5-33.08,3.62-10.58,10.64-20.52,20.82-25.15,1.73,11.29-3.24,22.5-9.25,32.22-6.01,9.73-13.23,18.88-16.84,29.71"/>
  <path class="cls-2" d="M280.89,454.76c-4.33-12.64-4.79-28.6-12.34-39.68-5.3-7.63-13.77-12.93-18.3-21.07-2.76,7.81-2.38,16.39,1.05,23.93,3.44,7.45,8.18,14.23,14,20.02,5.61,5.97,10.39,10.47,15.6,16.8Z"/>
  <path class="cls-2" d="M280.97,826.65c-.32,0-.63-84.24-.65-188.14-.02-103.9.23-188.16.57-188.16s.63,84.22.65,188.16c.02,103.94-.23,188.14-.57,188.14Z"/>
  <path class="cls-2" d="M354.59,574.29c-1.01.51-2.07.91-3.16,1.2l-8.71,2.94c-7.36,2.5-17.45,6.12-28.41,10.62-10.97,4.5-21.09,8.43-26.9,13.48-2.32,1.94-4.18,4.39-5.42,7.15-.84,1.91-.97,3.18-1.09,3.17-.06-.29-.06-.59,0-.88.12-.84.33-1.66.61-2.46,1.11-2.94,2.92-5.56,5.28-7.63,3.51-2.98,7.44-5.42,11.67-7.25,4.67-2.17,9.86-4.46,15.35-6.71,10.98-4.5,21.16-8.01,28.6-10.31,3.72-1.16,6.75-2.02,8.85-2.58,1.09-.35,2.2-.6,3.34-.74Z"/>
  <path class="cls-2" d="M378.73,515.03c-.27.34-.57.65-.9.93l-2.71,2.56-10.09,9.15-33.6,29.92c-13.1,11.67-24.43,22.88-32.28,31.22-3.93,4.19-7.04,7.63-9.15,10.1l-2.44,2.78c-.26.34-.56.65-.9.92.19-.39.42-.75.7-1.07.51-.69,1.26-1.7,2.27-2.94,1.91-2.54,5.01-6.1,8.88-10.37,10.14-11.08,20.86-21.61,32.11-31.56,13.16-11.63,25.13-22.1,33.83-29.63l10.35-8.89,2.86-2.36c.65-.48,1.01-.8,1.05-.76Z"/>
  <path class="cls-2" d="M317.3,569.45c-.34-.15,2.4-6.46,5.13-14.47,2.73-8.01,4.04-14.74,4.4-14.68.36.06-.46,6.98-3.26,15.08-1.17,3.45-2.53,6.82-4.06,10.13-.54,1.42-1.28,2.75-2.21,3.95Z"/>
  <path class="cls-2" d="M281.05,620.45c-.74-.72-1.42-1.51-2.02-2.34l-5.17-6.65c-4.35-5.61-10.35-13.35-17.16-21.85-6.81-8.5-12.93-16.11-17.41-21.62l-5.3-6.54c-.73-.76-1.37-1.6-1.91-2.52.79.67,1.51,1.4,2.17,2.19,1.35,1.47,3.26,3.62,5.59,6.31,4.67,5.38,10.96,12.91,17.71,21.41,6.75,8.5,12.66,16.34,16.84,22.1,2.08,2.88,3.81,5.22,4.86,6.88.7.8,1.3,1.69,1.79,2.63Z"/>
  <path class="cls-2" d="M264.92,599.73c-.21.21-4.52-4.9-6.77-12.66-1.27-4.13-1.78-8.46-1.53-12.77h.53c-.25.97-.42,1.49-.51,1.47s-.1-.55,0-1.56h.53c.26,4.21.98,8.38,2.15,12.43,2.15,7.61,5.91,12.89,5.59,13.1Z"/>
  <path class="cls-2" d="M244.08,573.51c-1.45-1.11-3.04-2.03-4.73-2.75-4.24-1.26-8.71-1.62-13.1-1.05-4.46.34-8.88,1.06-13.21,2.14-1.78.56-3.59.99-5.43,1.3,1.63-.94,3.38-1.66,5.21-2.12,4.34-1.35,8.82-2.19,13.35-2.52,4.56-.61,9.19-.11,13.52,1.45,1.83.64,3.39,1.9,4.4,3.55Z"/>
  <path class="cls-2" d="M239.14,567.16c0,.19-2.76-1.11-7.25-2.63-5.83-1.99-11.89-3.24-18.04-3.72-6.15-.45-12.33-.13-18.4.93-4.67.84-7.49,1.7-7.63,1.51.59-.37,1.23-.65,1.91-.82,1.79-.63,3.62-1.14,5.47-1.52,6.12-1.36,12.41-1.8,18.67-1.32,6.25.48,12.4,1.87,18.25,4.12,1.77.68,3.49,1.46,5.17,2.34.67.27,1.29.64,1.85,1.11Z"/>
  <path class="cls-2" d="M280.89,540.29c-.32,0-2.69-8.12-5.28-18.32-2.59-10.2-4.42-18.55-4.1-18.63.33-.08,2.69,8.12,5.28,18.32,2.59,10.2,4.42,18.53,4.1,18.63Z"/>
  <path class="cls-2" d="M281.22,540.29c-.36.12-1.91-5.38-5.83-10.98-2.48-3.31-5.38-6.29-8.62-8.87,1.23.29,2.38.87,3.34,1.7,2.44,1.8,4.56,3.99,6.27,6.48,4.12,5.76,5.15,11.65,4.84,11.67Z"/>
  <path class="cls-2" d="M280.97,781.75c-.13,0-.38-2.04-1.33-5.61-1.41-5.04-3.33-9.93-5.72-14.59-5.72-11.9-16.4-26.98-29.86-42.08-6.67-7.63-13.14-14.82-18.63-21.68-4.94-6.05-9.4-12.48-13.35-19.22-2.65-4.55-4.9-9.32-6.73-14.26-.61-1.75-1.07-3.13-1.32-4.08-.17-.47-.28-.95-.34-1.45.11,0,.72,1.91,2.12,5.36,1.98,4.84,4.33,9.52,7.02,14,4.02,6.64,8.52,12.97,13.46,18.95,5.51,6.81,11.99,13.96,18.67,21.58,13.5,15.14,24.06,30.51,29.73,42.5,2.29,4.75,4.08,9.73,5.32,14.85.38,1.91.65,3.24.74,4.21.13.49.21,1,.23,1.51Z"/>
  <path class="cls-2" d="M347.46,706.6c-1.12.7-2.29,1.34-3.49,1.91-3.15,1.77-6.17,3.76-9.04,5.97-4.23,3.3-8.2,6.92-11.88,10.83-4.18,4.4-8.47,9.53-12.85,15.01-8.75,10.98-16.95,20.71-21.85,28.49-2.5,3.81-4.31,7.09-5.49,9.38-.56,1.21-1.19,2.38-1.91,3.51.06-.34.17-.68.32-.99.27-.63.61-1.56,1.18-2.73,1.52-3.29,3.25-6.47,5.19-9.53,4.75-7.95,12.89-17.83,21.64-28.79,4.39-5.49,8.73-10.62,12.98-15.03,3.75-3.91,7.82-7.5,12.16-10.73,2.94-2.18,6.07-4.09,9.34-5.72,1.15-.59,2.1-.95,2.71-1.22.3-.16.63-.28.97-.34Z"/>
  <path class="cls-2" d="M348.79,730.97c-2.42.56-4.88.91-7.36,1.07-5.92.62-11.77,1.77-17.49,3.45-5.64,1.83-10.93,4.61-15.64,8.22-3.62,2.78-5.32,5.09-5.49,4.96.27-.62.64-1.2,1.11-1.7,1.14-1.43,2.41-2.75,3.81-3.93,4.67-3.89,10.04-6.85,15.83-8.71,5.78-1.72,11.74-2.77,17.75-3.13,2.48-.3,4.98-.38,7.47-.23Z"/>
  <path class="cls-2" d="M304.98,746.03c-.38-.21,2.94-5.28,5.51-12.11,2.57-6.83,2.99-12.93,3.43-12.85.17,1.31.12,2.65-.13,3.95-.37,3.18-1.09,6.31-2.15,9.32-1.11,2.99-2.55,5.86-4.27,8.54-1.31,2-2.25,3.15-2.38,3.15Z"/>
  <path class="cls-2" d="M369.04,641.16c-.37.25-.77.46-1.18.63l-3.45,1.56c-1.52.65-3.37,1.49-5.43,2.57-2.06,1.09-4.52,2.17-7.05,3.7l-4.02,2.29c-1.39.8-2.76,1.76-4.23,2.67-2.96,1.79-5.93,4-9.1,6.27-13.58,10.09-25.42,22.33-35.07,36.23-2.14,3.24-4.25,6.29-5.95,9.32-.88,1.49-1.77,2.9-2.54,4.33l-2.14,4.1c-1.43,2.57-2.46,5.03-3.45,7.15-.99,2.12-1.79,3.99-2.38,5.53-.59,1.54-1.09,2.57-1.47,3.51-.15.42-.34.82-.57,1.2.06-.44.17-.87.34-1.28l1.24-3.6c.53-1.58,1.24-3.47,2.21-5.72.97-2.25,1.91-4.65,3.32-7.28l2.08-4.16c.74-1.43,1.62-2.86,2.48-4.39,1.68-3.07,3.81-6.16,5.91-9.53,9.6-14.1,21.55-26.46,35.31-36.53,3.2-2.25,6.22-4.46,9.23-6.24,1.49-.9,2.88-1.91,4.31-2.63l4.08-2.23c2.57-1.47,5.03-2.54,7.15-3.55,1.81-.89,3.66-1.69,5.55-2.4l3.55-1.35c.42-.11.85-.17,1.28-.17Z"/>
  <path class="cls-2" d="M316.4,676.44c.49-1.71,1.5-3.22,2.9-4.31,3.23-2.82,7.36-4.4,11.65-4.48,4.21-.02,8.39.79,12.28,2.4,1.65.52,3.22,1.28,4.65,2.25-1.69-.33-3.34-.81-4.94-1.45-3.85-1.29-7.89-1.93-11.96-1.91-4.03.08-7.93,1.45-11.13,3.91-1.24,1.11-2.39,2.31-3.45,3.58Z"/>
  <path class="cls-2" d="M308.52,684.56c-.32-.19,2.63-4.54,3.32-10.79.69-6.25-1.11-11.14-.74-11.23.71.91,1.18,1.99,1.37,3.13,1.41,5.43.73,11.2-1.91,16.15-1.01,1.87-1.93,2.82-2.04,2.75Z"/>
  <path class="cls-2" d="M222.8,793.82c1.81,32.19,11.44,64.92,26.43,98.03h64.83c14.22-32.76,23.26-65.46,24.79-98.03h-116.05Z"/>
  <path class="cls-10" d="M328.39,845.91c0,.34-21.36.61-47.67.61s-47.67-.27-47.67-.61,21.36-.61,47.67-.61,47.67.27,47.67.61Z"/>
  <path class="cls-10" d="M327.02,857.58c0,.33-20.02.59-44.73.59s-44.73-.27-44.73-.59,20.02-.61,44.73-.61,44.73.27,44.73.61Z"/>
  <path class="cls-10" d="M250.22,814.94c.34,0,.61,6.69.61,14.95s-.27,14.95-.61,14.95-.61-6.69-.61-14.95.34-14.95.61-14.95Z"/>
  <path class="cls-10" d="M285.05,814.94c.32,0,.61,6.94.61,15.48s-.29,15.48-.61,15.48-.61-6.94-.61-15.48.27-15.48.61-15.48Z"/>
  <path class="cls-10" d="M317.68,814.68c.34,0,.61,7.06.61,15.77s-.27,15.79-.61,15.79-.59-7.05-.59-15.79.27-15.77.59-15.77Z"/>
  <path class="cls-10" d="M336.93,814.94c0,.34-25.07.61-55.96.61s-55.98-.27-55.98-.61,25.05-.61,55.98-.61,55.96.34,55.96.61Z"/>
  <path class="cls-2" d="M275.8,91.94H122.77v159.52h153.04V91.94Z"/>
  <path class="cls-10" d="M265.43,91.94H112.39v159.52h153.04V91.94Z"/>
  <path class="cls-2" d="M265.47,251.52H112.36V91.9h153.11v159.61ZM112.43,251.42h153.04V92.02H112.45l-.02,159.41Z"/>
  <path class="cls-11" d="M244.86,113.39h-111.89v116.64h111.89v-116.64Z"/>
  <path class="cls-2" d="M132.97,230.81c-.79,1.17-1.72,2.25-2.76,3.2-1.77,1.91-4.29,4.44-7.11,7.21-2.82,2.76-5.4,5.24-7.3,7-.96,1.03-2.05,1.93-3.24,2.69.79-1.17,1.72-2.24,2.76-3.19,1.77-1.91,4.29-4.46,7.11-7.23,2.82-2.77,5.42-5.26,7.32-7.02.96-1.02,2.04-1.92,3.22-2.67Z"/>
  <path class="cls-2" d="M244.86,230.5c1.17.8,2.25,1.73,3.22,2.76,1.91,1.79,4.42,4.31,7.21,7.11,2.78,2.8,5.24,5.42,7,7.32,1.02.96,1.92,2.05,2.69,3.22-1.17-.78-2.25-1.71-3.2-2.75-1.91-1.77-4.44-4.31-7.23-7.13-2.78-2.82-5.24-5.42-7-7.32-1.02-.96-1.92-2.05-2.69-3.22Z"/>
  <path class="cls-2" d="M244.49,113.69c.8-1.17,1.73-2.24,2.76-3.2,1.79-1.91,4.29-4.44,7.11-7.21s5.38-5.24,7.28-7c.96-1.03,2.05-1.93,3.24-2.69-.79,1.17-1.71,2.23-2.75,3.18-1.79,1.91-4.31,4.44-7.13,7.23-2.82,2.78-5.42,5.26-7.32,7.02-.95,1.02-2.03,1.92-3.2,2.67Z"/>
  <path class="cls-2" d="M132.66,113.98c-1.17-.79-2.25-1.72-3.2-2.76-1.91-1.77-4.44-4.29-7.21-7.11-2.76-2.82-5.24-5.4-7-7.3-1.03-.96-1.93-2.04-2.69-3.22,1.17.78,2.24,1.7,3.18,2.75,1.91,1.77,4.44,4.29,7.23,7.11,2.78,2.82,5.21,5.42,7.11,7.32.98.97,1.84,2.05,2.57,3.22Z"/>
  <path class="cls-2" d="M244.49,230.03v-8.49c0-5.53,0-13.58-.11-23.78,0-20.42-.13-49.58-.21-84.37l.42.44h-111.56l.5-.5v116.64l-.44-.42,80.79.21,22.71.12h6.01-5.91l-22.6.11-81.08.21h-.42v-117.21h112.35v.44c-.1,34.95-.17,64.16-.23,84.64,0,10.16,0,18.17-.11,23.68v7.8c-.02.16-.05.32-.1.48Z"/>
  <path class="cls-7" d="M207.58,153.03h-37.33v37.33h37.33v-37.33Z"/>
  <path class="cls-2" d="M866.92,57.73h-222.37v322.3h222.37V57.73Z"/>
  <path class="cls-5" d="M855.76,57.73h-222.37v322.3h222.37V57.73Z"/>
  <path class="cls-11" d="M828.13,92.63h-167.11v252.49h167.11V92.63Z"/>
  <path class="cls-2" d="M828.13,345.12v-18.67c0-12.11,0-29.73-.15-52.02,0-44.52-.15-107.56-.27-181.81l.55.55h-167.09l.61-.61c0,95.24,0,183.05-.13,252.49l-.48-.48,121.63.25,33.62.11h11.86-11.67l-33.5.13-121.94.25h-.48v-.48c0-69.42,0-157.25-.13-252.49v-.34h168.27v.55c-.12,74.36-.21,137.57-.27,182.17,0,22.23-.12,39.81-.15,51.88v17.26c0,.8-.29,1.24-.29,1.24Z"/>
  <path class="cls-2" d="M856.39,57.69c-1.16,2.01-2.49,3.92-3.97,5.72-2.59,3.45-6.25,8.14-10.43,13.23-4.18,5.09-8.1,9.53-11,12.78-1.49,1.83-3.15,3.52-4.94,5.05,1.25-1.97,2.67-3.82,4.23-5.55,2.99-3.6,6.65-8.07,10.72-12.98l10.7-12.99c1.4-1.89,2.97-3.65,4.69-5.26Z"/>
  <path class="cls-11" d="M828.99,344.3c8.31,13.21,18.08,25.44,29.13,36.46l-29.13-36.46Z"/>
  <path class="cls-2" d="M858.13,380.76c-1.84-1.37-3.54-2.92-5.07-4.63-7.76-7.88-14.69-16.55-20.67-25.85-1.34-1.87-2.48-3.87-3.39-5.97,1.5,1.73,2.87,3.57,4.1,5.49,2.44,3.45,5.89,8.16,9.92,13.18,4.02,5.01,7.86,9.53,10.66,12.58,1.62,1.62,3.11,3.36,4.46,5.21Z"/>
  <path class="cls-11" d="M633.47,379.76l29.12-35.92-29.12,35.92Z"/>
  <path class="cls-2" d="M662.49,343.84c.27.21-6.04,8.41-14.09,18.34-8.05,9.93-14.78,17.79-15.03,17.58s6.04-8.43,14.09-18.34c8.05-9.91,14.78-17.71,15.03-17.58Z"/>
  <path class="cls-2" d="M633.47,57.69c.27-.21,6.6,7.34,14.15,16.89,7.55,9.55,13.44,17.45,13.18,17.66-5-5.39-9.72-11.03-14.13-16.91-4.71-5.64-9.11-11.53-13.19-17.64Z"/>
  <path class="cls-2" d="M776.06,143.9h-55.94v158.87h55.94v-158.87Z"/>
  <path class="cls-9" d="M736.9,717.43c-.19.21-1.7-.69-3.39-2.04-1.7-1.36-2.9-2.63-2.73-2.86s1.7.69,3.39,2.04c1.7,1.35,2.9,2.59,2.73,2.86Z"/>
  <path class="cls-4" d="M782.89,648.62c.29-6.43.46-13-1.56-19.07-2.02-6.06-6.73-11.73-13.02-13.02-7.19-1.49-14.55,3.05-18.59,9.19-4.04,6.14-5.4,13.58-6.6,20.82-8.2,49.95-11.22,100.62-9.02,151.19l29.42,4.12c12.97-52.82,17.03-98.94,19.37-153.23Z"/>
  <path class="cls-9" d="M764.22,616.26s0,.17-.13.48c-.13.3-.31.78-.5,1.33-.48,1.24-1.12,2.94-1.91,5.07-.4,1.11-.95,2.31-1.39,3.68l-1.43,4.44c-.51,1.6-1.05,3.32-1.64,5.13l-1.52,5.82c-2.46,9.59-4.38,19.31-5.72,29.12-1.58,11.06-2.63,23.3-3.45,36.23-1.51,25.78-1.74,49.16-2.4,66.07-.31,8.47-.59,15.25-.92,20.04-.17,2.29-.29,4.1-.38,5.43l-.11,1.41c.02.16.02.32,0,.48-.03-.16-.03-.32,0-.48v-1.43c0-1.33.06-3.15.17-5.43.21-4.73.38-11.57.59-20.04.48-16.91.59-40.29,2.1-66.11.82-12.89,1.91-25.17,3.55-36.23,1.38-9.84,3.36-19.58,5.93-29.17l1.58-5.82,1.73-5.11,1.53-4.44c.46-1.37,1.03-2.55,1.47-3.66.91-2.12,1.62-3.81,2.15-5.01l.57-1.3c.02-.17.07-.34.13-.5Z"/>
  <path class="cls-9" d="M766.95,616.37c1.54,1.81,2.75,3.87,3.6,6.08,2.26,6.09,3.17,12.59,2.69,19.07-.78,16.25-2.25,38.63-4.18,63.36-1.93,24.73-4.02,46.87-5.93,63.11-.88,8.07-1.62,14.61-2.17,19.07-.29,2.17-.52,3.91-.67,5.19,0,.53-.15.97-.21,1.33,0,.16-.04.31-.1.46-.02-.15-.02-.31,0-.46l.1-1.35c.11-1.3.27-3.03.48-5.22.44-4.61,1.07-11.13,1.91-19.07,1.54-16.17,3.58-38.53,5.53-63.25,1.95-24.71,3.51-47.11,4.48-63.32.55-6.37-.24-12.79-2.33-18.84-.87-2.15-1.95-4.21-3.2-6.16Z"/>
  <path class="cls-9" d="M787.33,692.4c-1.93-.15-3.81-.64-5.57-1.45-1.87-.49-3.64-1.31-5.22-2.42,1.93.13,3.82.61,5.57,1.43,1.88.49,3.65,1.31,5.22,2.44Z"/>
  <path class="cls-9" d="M790.88,662.42c-3.37,2.26-7.11,3.93-11.04,4.94,3.36-2.28,7.1-3.95,11.04-4.94Z"/>
  <path class="cls-9" d="M789.03,637.96c-1.43.41-2.92.49-4.39.23-2.4-.17-4.33-.53-4.31-.84,1.43-.41,2.93-.48,4.39-.21,1.48-.07,2.96.21,4.31.82Z"/>
  <path class="cls-9" d="M758.69,622.28c-.25.15-1.54-1.45-2.88-3.58-1.33-2.14-2.23-3.98-1.91-4.14.32-.15,1.52,1.45,2.86,3.58,1.34,2.13,2.18,3.95,1.93,4.14Z"/>
  <path class="cls-9" d="M748.66,637.08c-1.34.47-2.77.62-4.18.42-1.41.14-2.84-.07-4.16-.61,1.34-.48,2.77-.63,4.18-.44,2.29.06,4.16.33,4.16.63Z"/>
  <path class="cls-9" d="M741.45,666.68c-1.53-.06-3.03-.47-4.39-1.2-2.33-.94-4.12-1.91-4-2.19,1.53.06,3.03.47,4.39,1.2,2.33.93,4.12,1.93,4,2.19Z"/>
  <path class="cls-9" d="M740.69,691.56c0,.29-1.62.88-3.81,1.33-2.19.46-3.81.57-3.97.29-.15-.29,1.62-.88,3.81-1.31,2.19-.44,3.91-.59,3.97-.31Z"/>
  <path class="cls-9" d="M737.3,732.29c-1.21.72-2.56,1.15-3.97,1.24-2.25.4-4.12.49-4.16.21-.04-.29,1.72-.84,3.97-1.24,1.35-.41,2.78-.48,4.16-.21Z"/>
  <path class="cls-9" d="M735.05,754.75c.13.27-1.35,1.31-3.32,2.34-1.96,1.03-3.66,1.68-3.81,1.43-.15-.25,1.33-1.31,3.32-2.34,1.98-1.03,3.68-1.68,3.81-1.43Z"/>
  <path class="cls-9" d="M753.41,780.36c-.27.15-1.54-1.64-2.9-3.98-.95-1.35-1.6-2.88-1.91-4.5.25-.15,1.55,1.64,2.88,3.98.94,1.36,1.59,2.89,1.93,4.5Z"/>
  <path class="cls-9" d="M758.69,737.87c.21.21-1.24,1.91-3.2,3.81-1.96,1.91-3.81,3.34-3.97,3.13-.15-.21,1.24-1.91,3.22-3.81,1.98-1.91,3.76-3.34,3.95-3.13Z"/>
  <path class="cls-9" d="M757.53,715.62c-.21.21-1.55-.9-2.99-2.44-1.45-1.54-2.42-2.96-2.21-3.16.21-.21,1.56.9,2.99,2.46,1.43,1.56,2.42,3.05,2.21,3.15Z"/>
  <path class="cls-9" d="M761.23,687.21c.21.19-.99,1.91-2.69,3.81-1.7,1.91-3.24,3.28-3.45,3.07-.21-.21.97-1.91,2.67-3.81,1.7-1.91,3.19-3.26,3.47-3.07Z"/>
  <path class="cls-9" d="M763.13,666.58c-.19.21-1.91-1.11-3.81-2.94-1.91-1.83-3.2-3.49-2.99-3.7.21-.21,1.91,1.12,3.81,2.96,1.91,1.83,3.28,3.47,2.99,3.68Z"/>
  <path class="cls-9" d="M767.23,638.7c-.31,1.52-.97,2.95-1.91,4.18-1.3,2.16-2.54,3.81-2.78,3.62.32-1.52.97-2.94,1.91-4.18,1.3-2.15,2.5-3.78,2.78-3.62Z"/>
  <path class="cls-9" d="M774.82,612.87c-.24,1.5-.8,2.92-1.66,4.18-1.18,2.17-2.35,3.81-2.59,3.68.23-1.5.8-2.92,1.66-4.18,1.18-2.08,2.34-3.81,2.59-3.68Z"/>
  <path class="cls-9" d="M783.4,624.59c.13.27-1.05,1.09-2.61,1.91-1.56.82-2.96,1.14-3.09.88-.13-.27,1.05-1.07,2.63-1.91,1.58-.84,2.96-1.12,3.07-.88Z"/>
  <path class="cls-9" d="M783.61,717.43c-1.99.02-3.96-.46-5.72-1.39-1.91-.63-3.62-1.73-4.98-3.2,1.87.57,3.67,1.32,5.4,2.23,1.85.6,3.62,1.39,5.3,2.36Z"/>
  <path class="cls-9" d="M780.1,737.04c0,.29-1.72.88-3.97,1.31-2.25.44-4.1.55-4.14.27-.04-.29,1.72-.88,3.95-1.31,1.35-.41,2.77-.5,4.16-.27Z"/>
  <path class="cls-9" d="M775.79,770.82c-1.81-.89-3.36-2.25-4.48-3.93-1.39-1.48-2.36-3.29-2.82-5.26,1.35,1.42,2.57,2.96,3.64,4.6,1.35,1.43,2.57,2.96,3.66,4.6Z"/>
  <path class="cls-9" d="M728.51,786.08c-.19-.21,1.01-1.54,2.67-2.97,1.66-1.43,3.16-2.38,3.36-2.17.19.21-1.01,1.54-2.67,2.97-1.66,1.43-3.16,2.48-3.36,2.17Z"/>
  <path class="cls-4" d="M714.93,712.61c-1.91-5.99-5.51-12.95-11.78-13.04-1.87.1-3.67.7-5.23,1.74-1.55,1.04-2.8,2.48-3.6,4.17-1.72,3.34-2.54,7.06-2.38,10.81.78,26.62,5.32,53,13.48,78.35h22.88c-.24-27.87-4.74-55.53-13.37-82.03Z"/>
  <path class="cls-4" d="M673.4,674.97c-3.22-12.83-12.79-19.75-23.91-20.4-10.14,1.77-14.09,11.76-15.25,22-1.16,10.24,1.91,20.42,5.11,30.24,10.07,31.5,20.13,63.01,30.18,94.52l28.6-3.13c-9.08-42.2-14.26-81.34-24.73-123.23Z"/>
  <path class="cls-9" d="M703.15,699.57c-.73,1.03-1.37,2.12-1.91,3.26-1.19,3.24-1.56,6.72-1.09,10.14.46,4.37.95,9.53,1.68,15.39.72,5.85,1.79,12.09,3.09,18.67,2.59,13.19,5.51,25.04,7.38,33.67.93,4.31,1.64,7.8,2.1,10.24.19,1.11.34,2.04.48,2.8.08.32.11.66.09.99-.14-.3-.24-.62-.3-.95-.19-.74-.4-1.66-.67-2.76l-2.42-10.16c-2.04-8.58-5.09-20.38-7.63-33.62-1.28-6.62-2.31-12.97-2.99-18.76-.36-2.9-.61-5.72-.84-8.26-.23-2.54-.49-4.98-.63-7.19-.4-3.53.1-7.09,1.45-10.37.51-1.17,1.27-2.22,2.21-3.09Z"/>
  <path class="cls-9" d="M649.91,653.75c-1.27,1.46-2.42,3-3.45,4.63-2.64,4.56-4.14,9.69-4.37,14.95-.12,7.81,1.08,15.58,3.55,23,2.5,8.5,5.26,17.85,8.14,27.63l14.62,50.26c1.81,6.37,3.26,11.55,4.33,15.25.46,1.72.84,3.11,1.11,4.16.16.48.26.97.32,1.47-.22-.45-.39-.93-.51-1.41-.34-1.03-.76-2.4-1.32-4.1-1.12-3.7-2.71-8.85-4.63-15.25l-14.93-50.17c-2.86-9.8-5.59-19.07-8.07-27.67-2.48-8.6-3.81-16.53-3.34-23.3.29-5.36,1.92-10.55,4.73-15.12,1.03-1.64,2.32-3.1,3.81-4.33Z"/>
  <path class="cls-9" d="M691.88,795.17c-.27-.43-.49-.89-.65-1.37-.38-.91-.99-2.25-1.64-4.02-1.35-3.51-3.11-8.67-4.9-15.16-1.79-6.48-3.6-14.32-5.32-23.03-1.72-8.71-3.49-18.34-5.4-28.43-1.91-10.09-4.19-19.56-6.75-28.07-2.23-7.53-5.01-14.89-8.33-22-2.23-4.79-4.78-9.43-7.63-13.88-.99-1.6-1.91-2.75-2.4-3.59-.32-.4-.58-.83-.8-1.3.36.36.68.75.97,1.16.57.8,1.52,1.91,2.57,3.49,3.01,4.39,5.7,9,8.03,13.79,3.43,7.12,6.3,14.49,8.58,22.06,2.78,9.25,5.07,18.65,6.86,28.14,1.91,10.07,3.68,19.68,5.3,28.43,1.62,8.75,3.37,16.53,5.09,23.03,1.72,6.5,3.36,11.67,4.6,15.25.57,1.79,1.12,3.15,1.43,4.08.16.46.29.93.38,1.41Z"/>
  <path class="cls-9" d="M639.82,702.18c0,.29-1.49.9-3.47,1.39-1.98.49-3.66.63-3.72.36-.06-.27,1.49-.91,3.47-1.39,1.98-.48,3.64-.74,3.72-.36Z"/>
  <path class="cls-9" d="M636.79,682.6c-3.19.56-6.44.69-9.67.38,3.11-1.09,6.48-1.22,9.67-.38Z"/>
  <path class="cls-9" d="M640.01,664.79c-.19.21-1.73-.78-3.47-2.25-1.73-1.47-2.97-2.84-2.78-3.05.19-.21,1.73.78,3.47,2.25,1.74,1.47,2.98,2.82,2.78,3.05Z"/>
  <path class="cls-9" d="M648.73,648.29c.29,0,.21,1.45.15,3.15-.06,1.7,0,3.07-.34,3.11-.34.04-.76-1.35-.7-3.15.06-1.79.61-3.16.9-3.11Z"/>
  <path class="cls-9" d="M666.54,656.07c.23.15-.46,1.56-1.56,3.13-1.11,1.56-2.17,2.71-2.42,2.55s.46-1.58,1.56-3.15c1.11-1.56,2.17-2.71,2.42-2.54Z"/>
  <path class="cls-9" d="M678.09,676.13c.1.29-1.37,1.15-3.32,1.91-1.94.76-3.58,1.2-3.7.93-.12-.27,1.37-1.12,3.32-1.91,1.94-.78,3.58-1.2,3.7-.94Z"/>
  <path class="cls-9" d="M685.09,696.8c-2.79,1.9-6.2,2.67-9.53,2.14,1.52-.59,3.1-.98,4.71-1.18,1.56-.54,3.18-.86,4.82-.95Z"/>
  <path class="cls-9" d="M652.9,690.93c-.27,0,0-1.51.46-3.18.46-1.68,1.16-2.96,1.45-2.88.29.08,0,1.53-.46,3.18-.46,1.66-1.16,2.97-1.45,2.88Z"/>
  <path class="cls-9" d="M657.4,716.86c.09-1.51.53-2.98,1.3-4.29.97-2.25,1.91-3.98,2.25-3.81-.09,1.51-.53,2.98-1.3,4.29-.97,2.19-1.98,3.93-2.25,3.81Z"/>
  <path class="cls-9" d="M646.3,723.95c-.11.29-1.91-.21-4.12-.9-2.21-.69-3.95-1.32-3.81-1.6.13-.29,1.91-.1,4.21.59,2.31.69,3.83,1.66,3.72,1.91Z"/>
  <path class="cls-9" d="M652.69,745.1c.17.25-1.05,1.41-2.73,2.59-1.68,1.18-3.16,1.91-3.34,1.75-.17-.15,1.05-1.41,2.73-2.59,1.68-1.18,3.18-1.98,3.34-1.75Z"/>
  <path class="cls-9" d="M657.82,766.19c0,.29-1.43.9-3.38,1.35-1.94.46-3.57.63-3.62.34-.06-.29,1.45-.88,3.37-1.35,1.93-.48,3.57-.63,3.62-.34Z"/>
  <path class="cls-9" d="M685.66,714.4c.15.25-1.14,1.28-3.03,1.91-1.89.63-3.53.8-3.58.51-.06-.29,1.43-.82,3.22-1.49,1.79-.67,3.24-1.18,3.39-.93Z"/>
  <path class="cls-9" d="M689.65,747.2c-.13.27-1.68-.19-3.45-1.03s-3.13-1.73-2.99-2c.13-.27,1.66.21,3.43,1.05,1.77.84,3.13,1.73,3.01,1.98Z"/>
  <path class="cls-9" d="M696.66,770.67c-1.59-.07-3.15-.48-4.56-1.22-2.4-.94-4.27-1.91-4.16-2.19,1.58.08,3.13.49,4.54,1.22,1.54.42,2.96,1.17,4.18,2.19Z"/>
  <path class="cls-9" d="M658.95,789.05c-.13-.25,1.73-1.51,3.91-3.22,2.18-1.72,3.81-3.22,4.06-3.01.25.21-1.16,2.08-3.41,3.81-1.26,1.23-2.84,2.06-4.56,2.42Z"/>
  <path class="cls-9" d="M677.52,777.13c-.3,0-.7-1.55-1.43-3.37-.72-1.83-1.45-3.28-1.22-3.45.23-.17,1.45,1.09,2.21,3.07.76,1.98.71,3.72.44,3.76Z"/>
  <path class="cls-9" d="M672.6,748.9c-.17.25-1.37-.33-2.69-1.28-1.31-.95-2.23-1.91-2.06-2.12.17-.21,1.37.32,2.67,1.28,1.3.95,2.25,1.89,2.08,2.12Z"/>
  <path class="cls-9" d="M715.84,704.68c.17.23-.99,1.37-2.61,2.57-1.62,1.2-3.05,1.91-3.22,1.72-.17-.19.99-1.37,2.61-2.57,1.62-1.2,3.05-1.97,3.22-1.72Z"/>
  <path class="cls-9" d="M722.37,722.49c0,.29-1.79.67-4.06.42-2.27-.25-3.97-1.01-3.81-1.28.15-.27,1.91,0,3.98.23,2.08.23,3.87.34,3.89.63Z"/>
  <path class="cls-9" d="M694.34,726.49c0,.27-1.62.88-3.81,1.03-2.19.15-3.95-.23-3.91-.52.04-.29,1.73-.4,3.81-.53,2.08-.13,3.85-.27,3.91.02Z"/>
  <path class="cls-9" d="M696.76,709.64c0,.29-1.73.32-3.6-.53-1.87-.86-2.96-2.19-2.76-2.38.19-.19,1.49.65,3.2,1.43,1.72.78,3.2,1.2,3.16,1.49Z"/>
  <path class="cls-9" d="M724.77,741.63c-1.43-.33-2.77-.98-3.91-1.91-2-1.26-3.51-2.48-3.36-2.73.15-.25,1.91.57,3.91,1.91,2,1.33,3.58,2.48,3.36,2.73Z"/>
  <path class="cls-6" d="M793.14,791.64h-149.51v26.5h149.51v-26.5Z"/>
  <path class="cls-6" d="M654.81,812.89l18.17,79.17h89.1l19.91-79.17h-127.18Z"/>
  <path class="cls-9" d="M793.07,818.17c0,.29-33.73.53-75.32.53s-75.32-.25-75.32-.53,33.71-.53,75.32-.53,75.32.25,75.32.53Z"/>
  <path class="cls-9" d="M709.91,727.06c-.25.15-1.26-1.03-2.27-2.65-1.01-1.62-1.64-3.07-1.39-3.22.25-.15,1.26,1.03,2.27,2.65s1.64,3.13,1.39,3.22Z"/>
  <path class="cls-9" d="M709.97,748.38c-.07-1.39.2-2.77.78-4.02.71-2.13,1.51-3.81,1.79-3.68.07,1.38-.2,2.77-.78,4.02-.7,2.12-1.51,3.78-1.79,3.68Z"/>
  <path class="cls-9" d="M717.37,770.82c-.27.13-1.37-1.66-2.5-4-.83-1.35-1.36-2.87-1.55-4.44.27-.11,1.37,1.66,2.5,4,.83,1.35,1.36,2.87,1.54,4.44Z"/>
  <path class="cls-9" d="M701.49,788.76c-.23-.19.67-1.56,1.91-3.09,1.24-1.53,2.57-2.59,2.78-2.4.21.19-.67,1.56-1.91,3.09-1.24,1.53-2.57,2.59-2.78,2.4Z"/>
  <path class="cls-9" d="M698.17,756.08c0,.29-1.49.27-3.2,0-1.72-.27-3.09-.78-3.03-1.07.06-.29,1.49-.27,3.2,0,1.72.27,3.16.78,3.03,1.07Z"/>
  <path class="cls-10" d="M346.87,224.9l-17.05-30.05c10.56-17.12,14.33-37.58,10.57-57.34-3.76-19.76-14.77-37.41-30.87-49.46-16.11-12.06-36.14-17.65-56.16-15.69-20.02,1.96-38.58,11.35-52.04,26.3-13.45,14.96-20.83,34.4-20.67,54.52.16,20.12,7.83,39.45,21.52,54.19,13.69,14.74,32.39,23.83,52.44,25.49,20.05,1.65,39.99-4.26,55.9-16.56l36.34,8.6Z"/>
  <path class="cls-9" d="M346.87,224.9l-36.42-8.31h-.36l.23-.31.34.36c-5.1,3.96-10.65,7.3-16.53,9.95-7.01,3.14-14.43,5.27-22.04,6.31-4.21.59-8.47.8-12.72.63-2.19-.12-4.42-.17-6.67-.36l-6.79-1.03c-15.7-3.08-30.14-10.73-41.5-21.99-11.36-11.26-19.13-25.64-22.34-41.31-2.32-11.85-1.99-24.06.95-35.77,3.01-12.23,8.9-23.56,17.16-33.06l3.28-3.6c1.07-1.22,2.36-2.23,3.53-3.34,1.16-1.11,2.33-2.25,3.66-3.18l3.81-2.88c1.27-.98,2.6-1.86,3.99-2.65l4.08-2.48,4.27-2.06c1.4-.72,2.83-1.36,4.31-1.91,11.45-4.52,23.76-6.41,36.04-5.53,11.61.79,22.9,4.12,33.08,9.76,18.26,10.19,31.91,27,38.13,46.96,2.48,8.49,3.65,17.31,3.49,26.16-.42,14.12-4.56,27.87-12.01,39.87v-.25l16.84,30.16-17.07-30.07v-.25c3.29-5.4,5.95-11.15,7.91-17.16,2.33-7.25,3.61-14.79,3.81-22.4.13-8.77-1.06-17.5-3.55-25.91-6.22-19.74-19.77-36.35-37.87-46.39-10.07-5.53-21.23-8.78-32.7-9.53-12.12-.9-24.28.92-35.6,5.34-1.47.55-2.9,1.18-4.29,1.91l-4.21,2.06-4.02,2.44c-1.37.78-2.69,1.66-3.95,2.61l-3.81,2.86c-1.3.92-2.38,2.1-3.6,3.13-1.22,1.03-2.4,2.15-3.47,3.28l-3.24,3.57c-8.19,9.38-14.03,20.58-17.03,32.66-2.92,11.56-3.25,23.63-.97,35.33,2.21,11.07,6.76,21.54,13.35,30.72,11.88,16.56,29.59,28,49.58,32.01l6.73,1.03c2.23.19,4.44.27,6.62.38,4.21.18,8.43-.02,12.6-.59,7.55-1,14.92-3.07,21.89-6.14,5.86-2.63,11.39-5.92,16.49-9.82l1.49-1.14-1.14,1.49-.13-.38,36.38,8.83Z"/>
  <path class="cls-9" d="M208.13,161.06l2.04-4.54c2.53,1.76,5.52,2.71,8.6,2.73,3.57,0,5.03-1.2,5.03-2.8,0-4.88-15.25-1.53-15.25-11.21,0-4.42,3.57-8.1,10.98-8.1,3.17-.07,6.29.73,9.04,2.31l-1.91,4.58c-2.11-1.25-4.51-1.96-6.96-2.06-3.58,0-4.96,1.35-4.96,2.99,0,4.81,15.25,1.49,15.25,11.06,0,4.35-3.6,8.08-11.06,8.08-3.83.13-7.61-.93-10.81-3.03Z"/>
  <path class="cls-9" d="M232.04,153.62c0-6.04,4.65-10.32,11.02-10.32s10.96,4.27,10.96,10.32-4.61,10.32-10.98,10.32-11-4.29-11-10.32ZM248.16,153.62c-.08-.99-.45-1.94-1.06-2.73-.61-.79-1.44-1.38-2.38-1.7-.94-.32-1.96-.36-2.93-.12-.97.25-1.84.77-2.51,1.5-.67.73-1.12,1.65-1.28,2.63-.16.98-.03,1.99.37,2.91s1.06,1.69,1.9,2.23c.84.54,1.81.83,2.81.83.71,0,1.42-.13,2.07-.41.65-.28,1.24-.7,1.72-1.22.48-.52.85-1.14,1.07-1.82.23-.67.31-1.39.24-2.1Z"/>
  <path class="cls-9" d="M270.35,143.31v5.36h-1.3c-.74-.07-1.48.03-2.18.29-.7.26-1.32.68-1.84,1.21-.51.54-.9,1.18-1.13,1.89-.23.71-.3,1.46-.2,2.19v9.53h-5.72v-20.19h5.57v2.65c.81-1,1.85-1.78,3.04-2.29,1.18-.51,2.47-.73,3.75-.64Z"/>
  <path class="cls-9" d="M286.25,143.31v5.36h-1.32c-3.2,0-5.32,1.75-5.32,5.59v9.53h-5.72v-20.19h5.55v2.65c.82-1,1.86-1.78,3.05-2.29,1.18-.51,2.47-.73,3.76-.64Z"/>
  <path class="cls-9" d="M310.3,143.59l-9.04,21.28c-1.91,4.82-4.71,6.29-8.31,6.29-2.03.02-4-.65-5.59-1.91l2.12-4.14c.91.79,2.07,1.25,3.28,1.28,1.6,0,2.5-.72,3.28-2.5v-.19l-8.68-20.19h5.99l5.72,13.6,5.72-13.6,5.51.08Z"/>
  <path class="cls-9" d="M311.82,160.55c.07-.9.47-1.75,1.13-2.36.66-.62,1.54-.96,2.44-.96s1.78.34,2.44.96c.66.62,1.07,1.46,1.13,2.36-.07.9-.47,1.75-1.13,2.36-.66.62-1.54.96-2.44.96s-1.78-.34-2.44-.96c-.66-.62-1.07-1.46-1.13-2.36ZM311.94,137.66h6.92l-1.16,17.03h-4.56l-1.2-17.03Z"/>
  <path class="cls-9" d="M900.42,891.14c0,.27-179.24.5-400.42.5s-400.42-.23-400.42-.5,179.24-.49,400.51-.49,400.32.3,400.32.49Z"/>
  <g>
    <path class="cls-1" d="M657.91,394.7l-.4-.2c.15.04.27.11.4.2Z"/>
    <path class="cls-9" d="M454.24,820.42l2.19,45.61s-45.01,17.61-45.39,26.1l87.46-1.07-.53-71.38-43.73.75Z"/>
    <path class="cls-2" d="M483.42,861.93c.84.25,1.57.8,2.03,1.56.48.75.64,1.65.48,2.52-.2.86-.73,1.6-1.46,2.08-.73.48-1.63.66-2.5.5-.9-.27-1.66-.87-2.16-1.67-.48-.81-.66-1.76-.48-2.69.31-.87.93-1.59,1.76-2,.84-.41,1.79-.48,2.67-.2"/>
    <path class="cls-4" d="M498.5,891.05l-.31-7.18-83.67,3.79s-3.97,1.76-3.4,4.54l87.39-1.15Z"/>
    <path class="cls-11" d="M455.01,865.67c0,.44,2.18.61,4.28,1.98,2.1,1.37,3.27,3.17,3.64,2.99.38-.18-.26-2.68-2.85-4.28-2.6-1.61-5.19-1.09-5.06-.69Z"/>
    <path class="cls-11" d="M445.88,869.66c-.09.42,1.77,1.13,3.24,2.93,1.48,1.8,1.99,3.75,2.34,3.73.37-.02.68-2.48-1.19-4.7-1.86-2.22-4.39-2.38-4.39-1.96Z"/>
    <path class="cls-11" d="M440.84,880.86c.37,0,.95-2.08-.18-4.44-1.13-2.36-3.13-3.29-3.31-2.91s1.08,1.61,1.97,3.57c.91,1.96,1.08,3.75,1.52,3.79Z"/>
    <path class="cls-11" d="M455.65,855.22c.18.38,2.14-.24,4.53-.1,2.41.14,4.33.87,4.53.5s-1.61-1.88-4.44-1.98c-2.83-.1-4.84,1.23-4.63,1.59Z"/>
    <path class="cls-9" d="M557.22,835.71l4.74,55.12-8.65,44.69c-.15.76-.15,1.54.02,2.29.16.75.48,1.47.91,2.1.46.63,1.02,1.16,1.68,1.56.66.4,1.39.66,2.16.77.9.11,1.79,0,2.61-.31.84-.31,1.59-.82,2.19-1.48,7.79-8.63,36.29-40.49,35.69-44.5-.66-4.66-1.19-58.49-1.19-58.49l-40.16-1.77Z"/>
    <path class="cls-4" d="M558.08,942.25l40.29-50.01.15,2.34c.15,2.02-.44,4.02-1.65,5.65-3.2,4.34-12.27,16.14-33.84,40.21-.6.69-1.37,1.22-2.25,1.53-.86.31-1.79.41-2.71.27Z"/>
    <g class="cls-12">
      <path class="cls-11" d="M586.09,875.15c-.64.55-1.06,1.31-1.19,2.15-.11.84.09,1.69.55,2.39.49.66,1.24,1.11,2.07,1.23.82.13,1.66-.07,2.34-.56.68-.58,1.12-1.39,1.24-2.27.11-.89-.09-1.78-.58-2.52-.6-.64-1.43-1.02-2.3-1.06-.86-.04-1.72.27-2.36.86"/>
    </g>
    <path class="cls-11" d="M568.99,917.31c-1.43-1.63-3.13-2.97-5.05-3.97-2.05-.67-4.19-.95-6.34-.81,0-.12.62-.59,1.86-.87,1.66-.29,3.38-.1,4.94.56,1.57.65,2.91,1.75,3.88,3.15.71,1.07.84,1.88.71,1.94Z"/>
    <path class="cls-11" d="M565.57,924.96c-1.61-.77-3.25-1.43-4.95-1.98-1.77-.23-3.57-.35-5.36-.36-.18-.28,2.36-1.61,5.61-.83,3.25.77,5.05,2.99,4.7,3.17Z"/>
    <path class="cls-11" d="M575.59,907.35c-.24.28-3.07-2.32-7.46-3.71-4.39-1.39-8.15-1.01-8.17-1.37-.02-.36,3.88-1.33,8.56.22,2.85.73,5.36,2.45,7.07,4.86Z"/>
    <path class="cls-11" d="M575.54,890.48c-.13.34-3.2-.73-7.13-.63-3.91.1-6.95,1.27-7.09.93,2.12-1.35,4.55-2.09,7.08-2.14,2.5-.05,4.97.59,7.15,1.84Z"/>
    <path class="cls-11" d="M574.57,874.2c-.16.34-3.29-1.31-7.42-.85-2.47.43-4.84,1.21-7.07,2.32-.11-.12.44-.85,1.65-1.67,1.59-1.03,3.42-1.67,5.3-1.86,1.9-.2,3.82.06,5.58.77,1.35.61,2.03,1.29,1.97,1.29Z"/>
    <path class="cls-11" d="M567.04,870.23c-.2-.67-.27-1.38-.18-2.08.05-1.92.49-3.82,1.28-5.57.46-1.33,1.35-2.47,2.52-3.25.4-.22.88-.3,1.33-.24.46.06.88.26,1.22.58.62.66.99,1.53,1.02,2.44.04,1.87-.59,3.69-1.77,5.14-1.17,1.45-2.83,2.44-4.66,2.79-1.81.3-3.64.05-5.3-.71-1.65-.76-3.03-2-3.99-3.56-.24-.4-.38-.84-.44-1.3-.05-.46-.02-.93.13-1.37.18-.43.49-.79.9-1.03.38-.24.86-.34,1.32-.3,1.37.21,2.65.79,3.71,1.67,1.54,1.08,2.89,2.42,3.97,3.97.44.54.77,1.17.95,1.84-1.54-1.98-3.36-3.73-5.41-5.18-.95-.72-2.07-1.19-3.25-1.37-.26-.03-.51.02-.73.15-.22.13-.4.33-.49.56-.07.3-.07.61-.02.9.05.3.16.59.33.84.86,1.32,2.08,2.37,3.51,3.01,1.44.64,3.03.85,4.59.6,1.52-.31,2.91-1.13,3.91-2.33,1.01-1.19,1.59-2.69,1.63-4.26,0-.64-.22-1.25-.62-1.75-.18-.17-.42-.29-.68-.32-.26-.04-.51,0-.73.12-1.01.66-1.76,1.61-2.19,2.72-1.02,2.3-1.65,4.76-1.85,7.28Z"/>
    <path class="cls-9" d="M413.23,446.83c-4.2,18.95-5.63,38.42-4.22,57.78.93,12.29,41.65,352.02,41.65,352.02h55.1l-15.48-319.24,4.52.99s30.07,136.18,32.54,158.23c2.19,19.83,29.21,175.58,29.21,175.58l51.99-.58-19.34-201.06-18.74-182.74-7.04-53.18-150.18,12.19Z"/>
    <path class="cls-3" d="M506.52,228.68l1.19-96.72c1.08-24.05-12.01-44.71-36.09-45.13l-2.23.1c-10.8.44-21.06,4.94-28.7,12.59-7.62,7.65-12.1,17.9-12.52,28.71-.84,20.86-1.46,43.9-.86,55.04,1.22,23.06,24.48,25.78,24.48,25.78,0,0,.13,14.04.11,20.82l-5.41,15.86,18.99-4.62,41.04-12.43Z"/>
    <path class="cls-8" d="M451.79,208.97c10.68-.46,20.99-3.97,29.74-10.11,0,0-6.53,17.65-29.63,16.52l-.11-6.4Z"/>
    <path class="cls-3" d="M349.3,368.43l41.65,26.17c15.01,7.93,25.89,2.18,29.51-10.51l-.38-46.56s-26.47-14.1-30.49-14.71c-1.35-.2-3.35,27.05-3.35,27.05l-40.16-11.24-10.13,20.52,13.36,9.28Z"/>
    <path class="cls-3" d="M345.68,333.16c-.26-.46-11.46-18.26-17.85-24.95-6.38-6.68-6.5-13.98-11.02-14.57-4.52-.59-5.33,5.73-3.17,12.24,2.16,6.5,7.93,9.91,6.35,12.19-1.59,2.28-37.79-3.77-37.79-3.77,0,0-4.68-4.78-8.35-.77,0,0-5.83-1.39-5.37,3.15.46,4.54,11.04,5.04,11.04,5.04l5.25,9.36,12.18,4.52c.57,3.26,2.1,6.27,4.38,8.67,2.02,2.15,4.31,4.03,6.82,5.59.5.1,11.34,6.76,16.85,8.11,5.51,1.35,12.84,2.5,12.84,2.5l10.02-20.03c-.04-2.58-.79-5.1-2.18-7.28Z"/>
    <path class="cls-3" d="M297.12,336.27c-1.03-2.66-1.5-5.5-1.37-8.35.44-3.83,3.97-20.78,5.69-21.12,1.73-.34,4.48-1.31,5.25,3.29.77,4.6-1.86,15.45-1.86,15.7,1.05,2.34,1.72,4.83,1.98,7.38"/>
    <path class="cls-8" d="M306.83,333.18c-.23-.77-.42-1.56-.55-2.36-.23-.91-.5-1.8-.83-2.68-.2-.5-.44-1.03-.69-1.61l-.2-.46c-.07-.21-.07-.44,0-.65l.2-1.01c.65-3.17,1.13-6.37,1.45-9.6.24-1.85.17-3.73-.22-5.55-.09-.42-.27-.81-.52-1.15-.25-.34-.57-.63-.95-.84-.9-.28-1.87-.28-2.78,0-.2-.1-.42.4-.63.83-.22.44-.4.93-.58,1.41-.34.95-.63,1.98-.91,2.88-.54,1.98-1.01,3.79-1.45,5.57-.83,3.57-1.55,6.8-1.98,9.52-.27,2.15-.12,4.33.42,6.43.23.77.41,1.56.53,2.36-.42-.7-.74-1.46-.93-2.26-.7-2.13-.95-4.39-.73-6.62.38-2.78,1.01-5.95,1.8-9.64.4-1.8.85-3.69,1.39-5.63.28-.97.57-1.98.91-2.94.18-.52.38-1.01.59-1.51.13-.27.27-.53.44-.77.1-.15.22-.28.36-.4.12-.09.25-.16.4-.2h.18c1.11-.37,2.3-.37,3.41,0,.51.28.95.66,1.29,1.13.34.47.58,1,.69,1.57.42,1.95.49,3.97.2,5.95-.37,3.25-.94,6.49-1.69,9.68l-.24.99v.28l.18.44c.24.58.44,1.15.62,1.69.31.9.54,1.83.69,2.78.17.78.21,1.58.14,2.38Z"/>
    <path class="cls-8" d="M335.99,340.49c-1.81-.6-3.66-1.07-5.54-1.41-2.12-.25-4.27-.05-6.31.57-2.59.81-4.93,2.27-6.8,4.22l-.85.89v-1.23c0-3.23,0-6.74.16-10.41v-1.13c.2-2.09.02-4.2-.56-6.23-.26-.85-.84-1.57-1.63-1.99-.78-.42-1.7-.52-2.56-.27-.37.13-.71.35-.97.63-.22.33-.37.7-.41,1.09-.2.85-.34,1.74-.48,2.58l-.73,4.7c-.4,2.73-.73,5.02-.99,6.84-.07.85-.25,1.68-.54,2.48-.03-.85.01-1.7.12-2.54.14-1.63.36-3.97.69-6.86.16-1.47.36-3.05.59-4.76.12-.85.26-1.73.44-2.64,0-.24.12-.48.18-.71.09-.28.23-.54.42-.77.37-.42.84-.74,1.37-.93.53-.19,1.09-.27,1.65-.23.56.04,1.11.2,1.6.47,1.02.55,1.81,1.46,2.2,2.56.64,2.15.85,4.41.63,6.64,0,.4,0,.81-.1,1.19,0,3.67-.16,7.18-.24,10.41l-.83-.32c2.04-2.16,4.63-3.72,7.5-4.52,2.15-.61,4.4-.74,6.6-.38.82.11,1.64.31,2.42.59.59.16,1.15.38,1.7.65.46.22.88.48,1.26.79Z"/>
    <path class="cls-8" d="M295.69,324.75c-2.47-.62-4.87-1.45-7.2-2.48h-.12v-.14c-.9-1.41-1.91-2.73-3.03-3.97-1.27-1.42-2.63-2.74-4.08-3.97-1.06-.91-2.36-1.5-3.75-1.69-.6-.04-1.19.06-1.74.3-.55.23-1.03.59-1.41,1.05v-.54c1.65,2.46,3.01,4.54,3.97,5.95.55.74,1.01,1.56,1.35,2.42-.69-.62-1.29-1.32-1.78-2.1-1.07-1.41-2.54-3.41-4.26-5.83l-.2-.26.2-.26c.47-.6,1.07-1.07,1.76-1.39.69-.32,1.44-.46,2.2-.43,1.6.18,3.11.83,4.32,1.88,1.51,1.28,2.91,2.69,4.18,4.2,1.15,1.29,2.17,2.68,3.05,4.16l-.22-.2c2.34.9,4.6,2,6.76,3.27Z"/>
    <path class="cls-6" d="M407.64,245.63c-6.87,5.1-12.47,12.21-14.2,25.22l-10.68,63.45,30.37,8.61,10.48-72.16-15.96-25.12Z"/>
    <path class="cls-6" d="M441.62,226.7l-33.99,18.94c-2.85,18.96,1.44,125.97,1.44,125.97l-1.57,102.59c47.59,23.58,102.52,14.95,160.77-3.97.6-3.95.16-7.99-1.24-11.74l-9.32-89.92s2.41-69.4,2.41-70.81,5.21-66.01,5.21-66.01l-55.9-16.71s-23.8,19.69-42.63,20.62c-16.31.81-15.45-13.88-15.45-13.88l-9.73,4.92Z"/>
    <path class="cls-9" d="M406.67,270.94c.16,1.03.24,2.07.2,3.11,0,2.18,0,5.02.18,8.45,0,7.34.2,17.11.33,27.92.15,10.81.38,20.76.64,27.9.11,3.43.22,6.27.29,8.45.11,1.03.11,2.08,0,3.11-.2-1.01-.33-2.04-.4-3.07-.18-1.98-.4-4.88-.62-8.45-.44-7.14-.8-17.01-.93-27.92-.15-10.9-.13-20.78,0-27.94,0-3.43.11-6.27.15-8.45-.04-1.04.02-2.08.16-3.11Z"/>
    <path class="cls-3" d="M501,389.25c-.71,1.8-18.19,11.12-18.19,11.12h-7.93s-5.1-7.08-4.79-8.13c.29-1.05,3.31-12.61-.91-12.02-4.22.59-7.06,8.09-7.66,10.05-.22,1.74.04,3.51.75,5.12,0,0-7.2-8.86-12.18-6.6-4.95,2.26-2.56,5.41-2.56,5.41l14.44,12.47s-9.78-1.21-9.63,5.95l8.72,3.97,14.22,2.42c1.72.29,3.47.15,5.14-.42l3.47-1.21c4.42-.48,8.81-1.35,13.11-2.6,4.64-1.65,9.52-7.08,9.52-7.08l18.26-20.13s2.56-10.37-3.31-13.23c-5.87-2.86-3.97-.14-5.85-2.86-1.88-2.71-9.54-5.95-9.91,2.1-.31,6.31,2.41,7.81,2.85,7.81s-4.72.61-7.57,7.83Z"/>
    <path class="cls-8" d="M475.81,400.3c-2.58-.03-5.14-.37-7.62-1.03l-.22-.14c-3.67-2.36-6.47-4.78-6.05-5.16,0,0,.69.48,1.97,1.25l4.46,3.09.2.14h-.18c2.56.29,5.06.91,7.44,1.84Z"/>
    <path class="cls-8" d="M499.39,399.05s-.6.16-1.55.52c-1.3.53-2.47,1.36-3.36,2.44-.84,1.39-1.75,2.88-2.72,4.42v.16h-.2c-.97.33-1.94.7-2.87,1.13-1.68.73-3.25,1.68-4.68,2.82-.57.39-1.06.9-1.41,1.5-.33.6-.53,1.28-.57,1.97.13.96.55,1.84,1.22,2.54.48.54.77.79.73.85-.04.06-.42-.1-1.01-.57-.9-.68-1.5-1.66-1.68-2.76-.11-.8.07-1.6.49-2.28.44-.75,1.02-1.41,1.68-1.98,1.46-1.25,3.09-2.27,4.86-3.03.99-.45,1.99-.84,3.02-1.17l-.27.22,2.83-4.32c1.08-1.14,2.45-1.95,3.97-2.34.9-.3,1.52-.18,1.52-.1Z"/>
    <path class="cls-8" d="M508.52,381.42c.09-.12.53,0,1.22.12.91.15,1.85.22,2.78.22,1.35-.15,2.72-.1,4.08.14,0,.28-1.74.91-4.1.89-1.02.01-2.03-.17-2.98-.54-.73-.34-1.12-.71-1.01-.83Z"/>
    <path class="cls-3" d="M524.75,387.59s9.4-2.56,19.09-5.53l21.61-7.75-6.71-38.8,45.32-15.86s7.82,56.67,5.96,71.11c-1.86,14.12-9.74,17.47-20.77,21.06-11.02,3.59-91.68-.42-92.82,1.33-1.13,1.75,11.01-15.96,11.01-15.96l17.31-9.58Z"/>
    <path class="cls-8" d="M509.96,403.49c-.97,2.32-2.49,4.36-4.42,5.95-1.72,1.82-3.86,3.18-6.23,3.97-.15-.26,2.61-1.98,5.52-4.74,2.91-2.76,4.9-5.35,5.14-5.18Z"/>
    <path class="cls-8" d="M585.43,381.9c-2.96-2.07-6.11-3.88-9.38-5.39-3.42-1.2-6.95-2.07-10.53-2.6,3.69-.31,7.4.24,10.86,1.62,3.44,1.38,6.51,3.54,8.98,6.31l.07.06Z"/>
    <path class="cls-8" d="M485.39,403.98c0,.14-1.88.91-4.9,2.42l-2.43,1.23-1.39.71-.37.18h-.22c-.11.03-.24.03-.35,0h-.84l-7.22-.75-3.75-.42c-1.13-.17-2.29-.27-3.44-.3-1.9-.13-3.8.28-5.5,1.17-1.1.63-1.92,1.65-2.32,2.86-.27.87-.29,1.39-.37,1.41-.09.02-.2-.54,0-1.51.15-.69.42-1.34.82-1.92.4-.58.91-1.07,1.52-1.45,1.79-1.08,3.86-1.61,5.94-1.51,1.19,0,2.36.08,3.53.24l3.71.4,7.2.83.8.1s.37-.14.57-.22l1.39-.63,2.5-1.15c1.61-.8,3.33-1.37,5.1-1.69Z"/>
    <path class="cls-6" d="M565.34,231.75c1.3.44,16.44,4.9,24.7,26.61,8.25,21.71,19.14,78.4,19.14,78.4l-51.7,10.45-7.75-70.27,15.61-45.19Z"/>
    <path class="cls-9" d="M546.54,282.66c.26.82.42,1.66.49,2.52.26,1.84.6,4.14.99,6.9.82,5.83,1.99,13.88,3.55,22.7,1.57,8.82,3.14,16.81,4.35,22.56.55,2.74,1.01,5.02,1.39,6.84.24.82.37,1.67.4,2.52-.35-.79-.6-1.6-.79-2.44-.46-1.59-1.04-3.97-1.72-6.76-1.39-5.73-3.09-13.68-4.64-22.55-1.54-8.86-2.63-16.93-3.27-22.78-.31-2.93-.55-5.31-.68-6.96-.11-.85-.13-1.7-.07-2.56Z"/>
    <path class="cls-9" d="M563.93,237.7c-4.55,2.72-8.52,6.32-11.7,10.59-3.16,4.26-5.45,9.11-6.73,14.26,0-1.59.27-3.16.8-4.66,1.08-3.68,2.82-7.13,5.1-10.21,2.29-3.11,5.1-5.79,8.3-7.93,1.28-.93,2.71-1.62,4.22-2.04Z"/>
    <path class="cls-9" d="M418.17,76.2c9.65-1.8,18.64,7.56,28.5,6.76,6-.47,10.97-4.62,16.52-6.9,4.34-1.75,9.03-2.49,13.71-2.15,4.68.33,9.21,1.73,13.25,4.07,7.52,4.74,12.06,9.67,12.27,18.54,7.71-3.32,18.83,6.99,21.97,16.12,3.13,9.13,1.09,17.97-2.41,27.02-5.85,15.59-14.74,29.9-26.19,42.12-1.01,1.09-2.56,2.23-3.83,1.47-.39-.33-.7-.76-.89-1.23-.19-.47-.27-.99-.22-1.5-.43-8.65,1.66-17.19,3.38-25.7,1.71-8.51,3.09-17.28,1.25-25.77-1.83-8.49-7.47-16.59-15.89-19.22-6.36-1.6-13.09-.94-19,1.87-6,2.49-11.43,6.12-17.19,9.06-5.64,3.26-12.09,4.94-18.64,4.86-6.49-.43-13.07-4.2-15.17-10.24-2.1-6.04,1.9-13.89,8.39-14.51-2.89-.6-5.49-2.16-7.34-4.42-1.85-2.26-2.86-5.09-2.83-7.99.02-2.91,1.07-5.72,2.96-7.95,1.89-2.23,4.51-3.76,7.41-4.31Z"/>
    <path class="cls-9" d="M427.63,98.49c3.09-4.34,7.23-7.86,12.06-10.24,10.2-5.62,21.95-7.93,33.56-6.59,11.65,1.41,22.28,7.22,29.66,16.19,5.61,7.35,8.91,16.16,9.48,25.34.81,10.02-.24,20.1-3.11,29.75-1.28,3.79-3.74,4.88-6.94,7.35-2,1.54-5.18,2.37-6.95.47-.92-1.18-1.41-2.62-1.4-4.1-1.33-13.27-2.41-27.5,4.15-39.14-2.45-4.71-5.88-8.86-10.06-12.18-2.09-1.66-4.49-2.89-7.07-3.63-2.58-.74-5.28-.96-7.95-.66-7.88,1.19-13.57,7.7-20.33,11.85-4.87,2.91-10.38,4.65-16.07,5.06-5.69.41-11.39-.51-16.65-2.69l7.62-16.78Z"/>
    <path class="cls-2" d="M524.12,133.97c0-.19-1.83-.24-4.65-.83-7.4-1.59-13.95-5.81-18.37-11.85-1.66-2.37-2.41-3.93-2.6-3.86.37,1.54,1.04,3,1.98,4.29,2.09,3.23,4.85,5.98,8.1,8.08,3.25,2.1,6.91,3.51,10.75,4.12,1.58.33,3.21.34,4.8.05Z"/>
    <path class="cls-2" d="M522.14,138.69c0-.19-1.81-.24-4.63-.83-7.41-1.57-13.96-5.79-18.37-11.85-1.69-2.37-2.41-3.93-2.6-3.86.35,1.55,1.03,3.01,1.98,4.29,2.09,3.23,4.85,5.98,8.1,8.08,3.25,2.1,6.91,3.51,10.75,4.12,1.57.31,3.19.33,4.77.05Z"/>
    <g>
      <path class="cls-9" d="M437.5,145.69c.05.88.43,1.71,1.07,2.31.64.61,1.49.94,2.37.94.44.02.88-.05,1.29-.2.41-.15.79-.39,1.11-.7.32-.3.57-.67.74-1.07.17-.4.26-.84.26-1.28-.05-.88-.43-1.71-1.07-2.31-.64-.61-1.49-.94-2.37-.94-.44-.02-.88.05-1.29.2-.41.15-.79.39-1.11.7-.32.3-.57.67-.74,1.07-.17.4-.26.84-.26,1.28Z"/>
      <path class="cls-9" d="M432.62,139.03c.44.42,2.96-1.63,6.62-1.72,3.66-.1,6.51,1.63,6.83,1.12.18-.21-.28-.99-1.5-1.81-1.64-1.03-3.55-1.54-5.48-1.45-1.91.07-3.74.75-5.24,1.94-1.14.91-1.48,1.72-1.24,1.92Z"/>
      <path class="cls-9" d="M472.26,144.52c.05.88.43,1.71,1.07,2.31.64.61,1.49.94,2.37.94.44.02.88-.05,1.29-.2.41-.15.79-.39,1.11-.7.32-.3.57-.67.74-1.07.17-.4.26-.84.26-1.28-.05-.88-.43-1.71-1.07-2.31-.64-.61-1.49-.94-2.37-.94-.44-.02-.88.05-1.29.2-.41.15-.79.39-1.11.7-.32.3-.57.67-.74,1.07-.17.4-.26.84-.26,1.28Z"/>
      <path class="cls-9" d="M468.73,138.25c.44.42,2.95-1.63,6.62-1.72,3.68-.1,6.51,1.63,6.82,1.12.19-.21-.26-.99-1.48-1.81-1.64-1.03-3.55-1.54-5.48-1.45-1.88.08-3.7.76-5.17,1.94-1.17.88-1.51,1.72-1.3,1.92Z"/>
      <path class="cls-9" d="M456.5,166.04c-1.96-.52-3.98-.8-6-.83-.94,0-1.84-.21-2.03-.85-.11-.96.07-1.94.52-2.8.8-2.31,1.63-4.73,2.49-7.26,3.43-10.33,5.89-18.73,5.55-18.95-.34-.23-3.55,8.13-6.98,18.47-.83,2.54-1.63,4.96-2.38,7.29-.58,1.16-.72,2.5-.41,3.76.15.33.38.62.66.84.28.23.61.38.97.46.53.12,1.08.18,1.63.16,2,.16,4.01.06,5.99-.29Z"/>
      <path class="cls-9" d="M485.69,127.34c-.21-1.04-3.92-1.11-8.13-2.25-4.21-1.14-7.48-2.81-8.14-2-.31.37.15,1.4,1.4,2.55,1.69,1.45,3.68,2.5,5.83,3.06,2.15.56,4.4.63,6.58.19,1.64-.41,2.54-1.07,2.46-1.56Z"/>
      <path class="cls-9" d="M443.18,124.68c-1.15-.34-3.79,1.98-7.4,3.9-3.61,1.92-7,2.96-7.3,4.1-.11.54.75,1.02,2.46,1.04,2.35-.09,4.64-.74,6.69-1.9,2.07-1.07,3.85-2.62,5.17-4.54.9-1.46.93-2.41.39-2.6Z"/>
      <path class="cls-9" d="M471.06,172.83c.1.47-3.16,1.46-6.77,3.38-3.61,1.92-6.28,4.03-6.62,3.68s1.94-3.12,5.82-5.17c3.89-2.05,7.5-2.33,7.57-1.89Z"/>
    </g>
    <path class="cls-3" d="M506.52,149.13c.4-.18,15.67-5.33,15.87,10.45.2,15.78-15.74,12.69-15.87,12.25-.11-.44,0-22.7,0-22.7Z"/>
    <path class="cls-8" d="M511.35,165.78s.27.2.73.4c.64.25,1.35.25,1.97,0,1.66-.64,3.05-3.29,3.11-6.15.04-1.37-.24-2.73-.82-3.97-.15-.47-.4-.89-.75-1.24-.35-.35-.77-.62-1.22-.78-.33-.08-.66-.04-.95.1-.31.14-.55.38-.68.68-.2.44-.11.75-.18.79-.07.04-.33-.28-.22-.93.09-.39.29-.74.62-.99.2-.17.44-.29.71-.36.26-.07.53-.09.79-.05.66.13,1.26.42,1.77.84.49.42.9.97,1.15,1.58.68,1.37,1.01,2.88.99,4.4,0,3.19-1.68,6.19-3.97,6.86-.42.13-.88.16-1.32.09-.42-.07-.84-.23-1.21-.48-.51-.38-.59-.73-.53-.77Z"/>
  </g>
</svg>
