<?xml version="1.0" encoding="UTF-8"?>
<svg id="Layer_1" data-name="Layer 1" xmlns="http://www.w3.org/2000/svg" viewBox="0 0 1827.36 1866">
  <defs>
    <style>
      .cls-1 {
        fill: #e0e0e0;
      }

      .cls-1, .cls-2, .cls-3, .cls-4, .cls-5, .cls-6, .cls-7, .cls-8, .cls-9, .cls-10, .cls-11, .cls-12 {
        stroke-width: 0px;
      }

      .cls-2 {
        fill: #eb996e;
      }

      .cls-3 {
        fill: #455a64;
      }

      .cls-4 {
        fill: #09f;
      }

      .cls-5 {
        fill: #ffbe9d;
      }

      .cls-6 {
        fill: #ebebeb;
      }

      .cls-7 {
        fill: none;
      }

      .cls-8 {
        fill: #e2323d;
      }

      .cls-9 {
        opacity: .5;
      }

      .cls-9, .cls-11 {
        isolation: isolate;
      }

      .cls-9, .cls-12 {
        fill: #fff;
      }

      .cls-10 {
        fill: #263238;
      }

      .cls-11 {
        fill: #000;
        opacity: .3;
      }
    </style>
  </defs>
  <g id="freepik--background-complete--inject-300">
    <path class="cls-6" d="M434.81,1725.36c82.39-54.99,102.35-159.06,100.77-252.9-.33-15.68,1.67-32.15-5.68-45.96-7.35-13.82-24.75-23.49-39.08-17.12-11.86,5.3-17.21,18.61-23.96,29.82-9.08,14.83-22.16,26.79-37.73,34.52-10.19,5.02-22.75,8-32.57,2.42-13.58-7.68-14.93-26.33-14.56-41.87.59-28.97,1.21-57.98,1.86-87.04.37-15.54.65-31.45-4-46.29s-15.31-28.75-30.29-33.12c-14.98-4.37-33.64,3.91-37.22,19.07-.67,6.44-.92,12.92-.74,19.4-.51,6.47-3.68,13.54-9.96,15.26-6.28,1.72-12.56-2.79-17.21-7.4-16-15.96-26.75-36.38-36.75-56.67-10-20.28-19.73-41.08-34.24-58.43-14.52-17.35-34.75-31.26-57.32-32.85-22.56-1.58-46.71,11.72-52.76,33.54-6.05,21.82,6.56,44.34,20.42,62.34,20.57,26.7,44.89,50.3,72.2,70.06,5.33,2.99,9.57,7.6,12.1,13.17,3.26,10.42-6.89,20.61-17.31,23.87-11.82,3.68-24.56,2.28-36.89,3.54s-25.73,6.42-30.57,17.82c-6.7,15.82,6.51,32.57,19.63,43.82,26.27,22.31,56.17,39.96,88.39,52.2,11.54,4.33,23.68,8.19,32.94,16.38,9.26,8.19,14.65,22.28,8.84,33.17-5.82,10.89-20.38,14.19-32.57,11.77-12.19-2.42-22.89-9.07-34.43-13.58-21.54-8.37-49.55-7.3-63.74,10.98-9.3,12-10.37,28.94-6,43.5,5.08,14.36,12.99,27.55,23.26,38.8,33.86,41.37,78.06,73.04,128.12,91.79,50.01,17.96,96.54,23.26,146.78,6"/>
    <path class="cls-1" d="M423.41,1761.7c-2.88-37.22.93-47.97-12.42-95.42-15.02-51.33-33-101.75-53.83-151.01l-16.14-38.89c-5.35-12.75-10.61-25.36-16.56-37.22-11.46-23.11-24.2-45.57-38.15-67.27-13.21-20.84-26.47-40.15-39.03-58.11s-24.66-34.43-36.29-48.99c-18.3-23.09-38.38-44.72-60.06-64.67-7.63-7.07-13.96-12.33-17.96-15.91l-4.65-3.95c-.53-.47-1.09-.91-1.67-1.3.49.51,1,.99,1.54,1.44l4.65,4.19c4.09,3.68,10.14,9.07,17.68,16.24,21.4,20.19,41.24,41.96,59.36,65.13,11.49,14.61,23.26,31.12,35.96,49.08,12.7,17.96,25.68,37.22,38.8,58.15,13.87,21.66,26.53,44.07,37.92,67.13,5.91,11.96,11.17,24.52,16.47,37.22,5.3,12.7,10.7,25.73,16.14,38.85,20.81,49.17,38.81,99.48,53.92,150.69,13.4,47.36,9.77,57.92,12.84,95"/>
    <path class="cls-1" d="M323.85,1438.73c.72-2.16,1.24-4.39,1.54-6.65.88-4.28,1.95-10.56,3.16-18.28,2.42-15.49,5.02-36.94,7.91-60.48,2.88-23.54,5.86-45.13,8.61-60.48,1.35-7.72,2.51-13.96,3.4-18.19.57-2.21.93-4.47,1.07-6.75-.83,2.11-1.49,4.29-1.95,6.51-1.16,4.23-2.56,10.42-4.14,18.1-3.21,15.35-6.47,36.75-9.3,60.48-2.84,23.73-5.35,44.76-7.26,60.48-.98,7.44-1.77,13.58-2.37,18.61-.39,2.2-.61,4.42-.65,6.65Z"/>
    <path class="cls-1" d="M121.62,1398.31c.68.22,1.38.35,2.09.37l6,.6c5.21.47,12.7,1.21,22.01,2.37,18.61,2.19,44.06,6.19,72.02,11.82,27.96,5.63,53.04,11.91,70.99,16.93,9.03,2.47,16.28,4.65,21.26,6.19l6.05,1.86c.66.23,1.35.39,2.05.47,0,0-.6-.37-1.91-.88l-5.63-2.14c-4.93-1.77-12.14-4.19-21.12-6.89-17.91-5.49-42.99-11.96-70.99-17.68-28.01-5.72-53.64-9.3-72.3-11.17-9.3-.93-16.89-1.4-22.14-1.63h-6.05c-.75-.24-1.54-.32-2.33-.23Z"/>
    <path class="cls-1" d="M408.76,1662.46c.57-.74,1.04-1.55,1.4-2.42l3.54-7.21c3.07-6.28,7.26-15.45,12.28-26.84,10.1-22.84,23.26-54.76,36.94-90.16,13.68-35.4,26.56-67.37,36.29-90.35,4.65-11.21,8.7-20.42,11.58-27.12,1.26-3.02,2.33-5.44,3.12-7.4.44-.83.75-1.73.93-2.65-.5.79-.95,1.62-1.35,2.47l-3.54,7.21c-3.07,6.28-7.26,15.45-12.28,26.84-10.1,22.8-23.26,54.71-36.94,90.16-13.68,35.45-26.61,67.37-36.29,90.3l-11.58,27.17c-1.3,3.02-2.33,5.44-3.12,7.4-.39.84-.72,1.71-.98,2.61Z"/>
    <path class="cls-1" d="M140.6,1572.77c.85.43,1.74.79,2.65,1.07l7.82,2.65,28.75,9.58c24.24,8.09,57.64,19.73,94.44,32.57,36.8,12.84,70.34,24.29,94.77,32.01,12.24,3.86,22.1,6.89,28.98,8.89l7.77,2.23c.9.31,1.84.51,2.79.6-.85-.43-1.74-.79-2.65-1.07l-7.82-2.65-28.75-9.58c-24.24-8.09-57.64-19.73-94.49-32.57-36.85-12.84-70.34-24.33-94.72-32.01-12.24-3.86-22.1-6.93-28.98-8.89l-7.77-2.23c-.9-.31-1.84-.51-2.79-.6Z"/>
    <rect class="cls-6" x="1266.85" y="1272.8" width="524.22" height="337.52" rx="32.52" ry="32.52" transform="translate(-471.44 797.96) rotate(-25.48)"/>
    <rect class="cls-1" x="1233.12" y="1350.68" width="524.22" height="65.09" transform="translate(-449.62 777.78) rotate(-25.48)"/>
    <rect class="cls-1" x="1301.23" y="1489.24" width="208.47" height="22.42" transform="translate(-508.79 750.57) rotate(-25.48)"/>
    <rect class="cls-1" x="1496.6" y="1445.75" width="208.47" height="22.42" transform="translate(-471.07 830.38) rotate(-25.48)"/>
    <rect class="cls-1" x="1357.87" y="1602.7" width="208.47" height="22.42" transform="translate(-552.09 785.97) rotate(-25.48)"/>
    <rect class="cls-1" x="1510.95" y="1426.62" width="51.73" height="22.42" transform="translate(-469.07 800.98) rotate(-25.48)"/>
    <rect class="cls-1" x="1564.33" y="1370.05" width="182.28" height="22.42" transform="translate(-433.2 846.52) rotate(-25.48)"/>
    <rect class="cls-1" x="1321.52" y="1536.44" width="182.28" height="22.42" transform="translate(-528.39 758.25) rotate(-25.48)"/>
    <path class="cls-6" d="M1443.24,608.99h265.65s0-60.81-31.36-60.81c-23.18-.76-43.63,15.06-48.71,37.68,0,0,0-113.52-57.13-96.86-54.01,15.77-60.15,88.39-60.15,88.39,0,0-9.72-36.57-39.03-15.96-29.31,20.61-29.26,47.55-29.26,47.55Z"/>
    <path class="cls-1" d="M487.01,194.43h176.79s0-40.52-20.84-40.52c-15.49-.57-29.19,9.99-32.57,25.12,0,0,0-75.55-38.06-64.48-35.96,10.51-40.01,58.85-40.01,58.85,0,0-6.51-24.33-26.01-10.61-19.49,13.72-19.31,31.64-19.31,31.64Z"/>
    <path class="cls-6" d="M74.77,640.72h121.89s0-27.91-14.42-27.91c-10.63-.35-20.01,6.92-22.33,17.31,0,0,0-52.06-26.19-44.43-24.8,7.21-27.63,40.57-27.63,40.57,0,0-4.65-16.79-17.86-7.35-7.63,4.79-12.6,12.85-13.45,21.82Z"/>
  </g>
  <g id="freepik--Icon--inject-300">
    <path class="cls-10" d="M106.36,1262.97C47.59,1262.95-.02,1215.29,0,1156.53c.02-58.76,47.68-106.38,106.44-106.36,42.89.02,81.58,25.79,98.12,65.36.37,1.02,9.72,24.84,8.14,42.15-.56,58.33-48.02,105.31-106.35,105.28ZM106.36,1054.83c-56.22,0-101.79,45.58-101.79,101.8s45.58,101.79,101.8,101.79c55.85,0,101.27-45.01,101.78-100.86h0c1.49-16.24-7.77-39.87-7.86-40.1-15.87-37.86-52.93-62.47-93.98-62.43l.05-.19Z"/>
    <polygon class="cls-10" points="96.91 1192.39 63.41 1156.34 74.25 1146.24 97.38 1171.13 145.95 1123.35 156.37 1133.91 96.91 1192.39"/>
  </g>
  <g id="freepik--Tickets--inject-300">
    <rect class="cls-12" x="274.92" y="683.09" width="302.73" height="706.96" rx="41.45" ry="41.45" transform="translate(-561.34 506.67) rotate(-39.43)"/>
    <path class="cls-10" d="M345.02,699.53c-.33-.29-.64-.6-.93-.93-.6-.56-1.4-1.54-2.61-2.65-13.51-12.76-33.89-14.87-49.73-5.16-4.74,3.3-9.3,6.88-13.63,10.7l-160.78,132.87c-13.21,11.13-17.93,29.41-11.77,45.55,2.17,5.45,5.32,10.45,9.3,14.75l47.69,57.87,105,127.71,240.85,292.77c2.63,3.11,5.67,5.84,9.03,8.14,3.44,2.18,7.17,3.87,11.07,5.02,7.83,2.22,16.16,2.01,23.87-.6,7.58-3.02,14.48-7.53,20.28-13.26l19.03-15.63,74.62-61.36,36.43-29.91c6-4.98,12-9.86,17.96-14.75l8.89-7.35c2.99-2.32,5.86-4.79,8.61-7.4,10.46-10.81,14.04-26.53,9.3-40.8-1.13-3.43-2.69-6.7-4.65-9.72-2.05-2.88-4.65-5.77-6.84-8.61l-13.96-16.98-196.42-239.36-132.27-161.48-35.87-43.96-9.3-11.49c-2.09-2.61-3.07-3.95-3.07-3.95,0,0,1.12,1.26,3.26,3.81l9.3,11.31c8.28,10.05,20.52,24.75,36.19,43.69l132.87,161.02,196.84,238.99,13.96,16.98c2.33,2.88,4.65,5.63,6.93,8.79,2.13,3.18,3.84,6.62,5.07,10.24,5,15.09,1.24,31.71-9.77,43.17-2.78,2.68-5.7,5.21-8.75,7.58l-8.89,7.26-17.96,14.79-36.38,29.91-74.72,61.46-19.03,15.68c-3.26,2.56-6.23,5.26-9.72,7.77-3.43,2.54-7.25,4.52-11.31,5.86-8.17,2.79-17,3.02-25.31.65-4.14-1.2-8.09-2.99-11.72-5.3-3.58-2.44-6.82-5.35-9.63-8.65l-240.66-293.1-105-127.89-47.45-57.74c-4.12-4.45-7.39-9.62-9.63-15.26-2.11-5.58-3.03-11.54-2.7-17.49.65-11.66,6.11-22.52,15.07-30.01l161.53-132.31c4.44-3.83,9.1-7.41,13.96-10.7,11.55-6.9,25.7-7.84,38.06-2.51,4.54,1.98,8.69,4.77,12.24,8.23,1.15,1.2,2.24,2.45,3.26,3.77Z"/>
    <path class="cls-8" d="M117.94,831.28l157.9,191.3,292.16,353.9-13.96,11.12c-13.34,10.62-32.75,8.55-43.55-4.65L101.61,885.48c-11.3-13.79-9.28-34.14,4.51-45.44.46-.37.92-.74,1.4-1.09l10.42-7.68Z"/>
    <line class="cls-7" x1="274.16" y1="1022.58" x2="472.26" y2="855.71"/>
    <path class="cls-10" d="M472.26,855.71c.42.51-43.55,38.29-98.26,84.35-54.71,46.06-99.37,83.04-99.84,82.53s43.59-38.29,98.3-84.39c54.71-46.1,99.37-83,99.79-82.49Z"/>
    <circle class="cls-12" cx="294.01" cy="851.91" r="88.63"/>
    <path class="cls-10" d="M313.06,765.22c-.48.05-.96.05-1.44,0l-4.19-.6c-2.25-.38-4.52-.59-6.79-.65-3.1-.24-6.21-.24-9.3,0-8.5.29-16.91,1.85-24.94,4.65-10.67,3.62-20.55,9.24-29.12,16.56-22.61,19.35-33.88,48.85-29.91,78.34,1.06,8.37,3.39,16.53,6.93,24.19,3.39,8.07,8.1,15.5,13.96,22.01,25.15,28.73,66.08,37.72,100.96,22.19,4.04-1.79,7.96-3.86,11.72-6.19,3.64-2.39,7.11-5.03,10.37-7.91,6.41-5.47,11.95-11.88,16.42-19.03,22.43-35.56,16.59-82.02-13.96-110.91-6.13-5.9-13.11-10.84-20.7-14.65-2.75-1.46-5.6-2.73-8.51-3.81-2.09-.89-4.23-1.63-6.42-2.23l-4.05-1.21c-.47-.11-.92-.28-1.35-.51.48.03.95.12,1.4.28l4.14.98c2.24.5,4.43,1.19,6.56,2.05,2.97.99,5.86,2.2,8.65,3.63,7.78,3.71,14.94,8.61,21.21,14.52,18.83,17.47,29.24,42.2,28.57,67.88-.53,16.04-5.35,31.64-13.96,45.17-4.53,7.37-10.18,13.99-16.75,19.63-3.36,2.94-6.92,5.64-10.65,8.1-3.86,2.42-7.88,4.55-12.05,6.37-35.81,16.04-77.89,6.81-103.7-22.75-6.03-6.72-10.93-14.37-14.52-22.66-3.58-7.88-5.94-16.25-6.98-24.84-2.08-15.89.14-32.05,6.42-46.8,10.14-23.59,29.93-41.67,54.34-49.64,8.19-2.76,16.76-4.2,25.4-4.28,3.11-.14,6.22-.03,9.3.33,2.3.1,4.59.39,6.84.88l4.14.79,1.95.14Z"/>
    <path class="cls-8" d="M223.45,843.75s-3.07,11.58,15.63,13.96l19.4,2.56,25.22,60.48,9.3.51.56-56.15,51.18.74,12.7,8.89,3.58-31.31-13.49,6.79-51.18-9.82,9.54-53.87-8.93-2-37.22,53.46-16.93-3.02s-16.24-5.44-19.35,8.79Z"/>
    <path class="cls-3" d="M569.35,308.6l325.2,751.49c9.09,20.98-.55,45.36-21.53,54.45l-.06.02-278.3,120.45c-20.98,9.09-45.36-.55-54.45-21.53,0-.02-.02-.04-.02-.06L215.03,461.98c-9.07-21,.59-45.39,21.59-54.48l278.3-120.45c20.98-9.05,45.32.59,54.43,21.54Z"/>
    <path class="cls-1" d="M446.63,627c-63.82-.36-115.27-52.4-114.9-116.22s52.4-115.27,116.22-114.9c63.82.36,115.27,52.4,114.9,116.22-.29,51.08-34.08,95.9-83.1,110.25-10.76,3.16-21.92,4.72-33.12,4.65ZM447,400.9c-61.13-.08-110.74,49.42-110.81,110.54-.08,61.13,49.42,110.74,110.54,110.81,61.13.08,110.74-49.42,110.81-110.54.05-40.71-22.25-78.16-58.06-97.51-16.13-8.67-34.16-13.21-52.48-13.21v-.09Z"/>
    <path class="cls-1" d="M363.54,475.43s-7.82,13.12,14.19,22.84l22.89,9.96,9.82,82.95,11.31,3.91,20.24-68.48,62.39,18.61,12.42,15.35,15.45-37.22-18.93,3.63-59.04-29.96,30.61-62.57-10.24-5.54-64.2,52.48-19.68-9.68s-18.38-12.65-27.22,3.72Z"/>
    <rect class="cls-1" x="331.67" y="689.53" width="386.19" height="4.65" transform="translate(-237.2 275.38) rotate(-24.16)"/>
  </g>
  <g id="freepik--Passport--inject-300">
    <rect class="cls-10" x="844.61" y="1154.64" width="765.21" height="552.65" rx="53.45" ry="53.45" transform="translate(-510.66 2161.39) rotate(-72.18)"/>
    <path class="cls-4" d="M1234.35,1595.1c-10.93-.03-21.83-1.09-32.57-3.16-90.39-17.54-150.04-103.23-133.01-190.98,8.19-42.51,33.4-79.82,69.78-103.28,76.79-49.6,179.05-29.77,231.73,44.94,24.97,35.37,34.43,79.39,26.19,121.89l-2.28-.42,2.28.42c-15.03,77.09-84.25,130.59-162.13,130.59ZM1230.35,1275.02c-31.73-.04-62.77,9.2-89.32,26.56-35.34,22.77-59.84,58.98-67.83,100.26-16.56,85.23,41.45,168.46,129.33,185.49,10.48,2.06,21.14,3.11,31.82,3.12,75.69,0,142.97-51.92,157.48-126.82h0c7.97-41.23-1.22-83.92-25.45-118.21-24.51-35.1-61.81-59.21-103.89-67.13-10.59-2.12-21.35-3.21-32.15-3.26h0Z"/>
    <path class="cls-4" d="M1245.98,1560.72c-19.15-.07-38.14-3.42-56.15-9.91-121.38-42.62-117.01-170.32-116.96-171.58v-.74l.47-.56c.74-.98,75.74-98.44,194.61-55.83,118.87,42.62,123.66,159.11,123.7,160.27v.79l-.47.65c-.6,1.16-56.11,76.9-145.2,76.9ZM1077.48,1380.16c0,10.28.56,126.5,113.89,166.27,113.33,39.78,188.93-55.83,195.4-64.62-.6-10.19-9.96-115.56-120.59-155.29-110.63-39.73-182.37,45.73-188.7,53.64Z"/>
    <path class="cls-4" d="M1288.83,1514.52c-26.67-.39-53.05-5.51-77.93-15.12-129.75-47.73-136.36-111.98-136.59-114.68v-1.35l1.12-.74c.65-.47,68.16-46.15,175.81-8.09,107.65,38.06,132.78,99.37,133.8,101.98l.51,1.3-.93,1.07c-.47.47-31.4,35.64-95.79,35.64ZM1079.15,1385.7c1.77,9.3,16.93,66.53,133.34,109.33,106.17,39.03,159.81-10.14,167.48-18.1-4.33-9.3-33.68-63.74-130.26-98.02-97.74-34.52-161.2.98-170.55,6.79Z"/>
    <rect class="cls-4" x="1227.41" y="1273.31" width="4.65" height="321.99" transform="translate(-514.5 2160.32) rotate(-71.99)"/>
    <path class="cls-4" d="M1194.34,1587.79c-3.71.06-7.43-.13-11.12-.56l-.88-.28c-1.07-.65-106.49-65.13-62.57-183.72,25.4-68.67,67.92-99.05,99.14-112.4,19.64-8.77,40.97-13.11,62.48-12.7h.7l.56.42c1.07.79,104.49,82.02,57.6,201.82-24.47,62.53-65.83,88.39-96.21,98.86-15.98,5.56-32.77,8.45-49.69,8.56ZM1184.34,1582.68c7.77.79,107.61,8.37,151.57-103.98,43.96-112.35-47.45-189.4-55.55-195.96-9.3-.37-110.82-.7-156.27,122.12-41.17,111.33,53.13,173.16,60.25,177.81Z"/>
    <path class="cls-4" d="M1182.71,1587.33l-.7-.74c-.56-.56-54.9-59.55-15.77-167.06,45.17-124.22,111.66-140.64,114.63-141.29l1.4-.33.93,1.12c.47.6,49.45,62.71,9.3,175.72-46.52,130.26-106.12,132.54-108.68,132.59h-1.12ZM1280.41,1283.16c-9.86,3.16-69.23,26.24-109.84,137.94-19.96,54.85-14.84,96.16-6.98,120.96,4.33,14.68,11.47,28.38,21.03,40.34,7.96-.98,61.32-11.68,103.28-129.43,20.61-57.69,17.21-101.19,10.75-127.47-3.43-15.13-9.61-29.49-18.24-42.38v.05Z"/>
    <rect class="cls-4" x="1072.41" y="1430.18" width="319.8" height="4.65" transform="translate(-507.56 2169.74) rotate(-72.26)"/>
    <rect class="cls-12" x="1157.51" y="1618.13" width="13.77" height="98.35" transform="translate(-779.25 2265.59) rotate(-72.18)"/>
    <path class="cls-10" d="M916.37,1732.99c-.65-.23,53.22-162.83,120.31-363.21,67.09-200.37,122.03-362.88,122.68-362.46s-53.27,162.83-120.36,363.21c-67.09,200.37-122.03,362.65-122.63,362.46Z"/>
    <rect class="cls-12" x="1292.69" y="1038.18" width="24.94" height="300.68" transform="translate(-225.75 2067.34) rotate(-72.18)"/>
  </g>
  <g id="freepik--id-card--inject-300">
    <path class="cls-3" d="M834.86,636.77s7.21,45.27,10.33,55.18,18.24,50.48,13.54,74.9c-4.7,24.42-17.4,37.78-41.5,35.26l-.56-13.96s25.4,0,26.43-20.28c1.02-20.28-4.65-53.08-16.61-64.53-3.46-3.49-8.12-5.54-13.03-5.72v-60.85h21.4Z"/>
    <path class="cls-4" d="M1166.66,76.4s-128.54-6.19-158.18-5.44c-32.83-.02-65.57,3.36-97.7,10.1-37.22,8.37-62.76,18.89-76.07,31.78l9.3-30.47S909.81,2.8,945.21.94c35.4-1.86,99.7,12.1,138.82,30.75,39.13,18.66,82.63,44.71,82.63,44.71Z"/>
    <path class="cls-11" d="M1166.66,76.4s-128.54-6.19-158.18-5.44c-32.83-.02-65.57,3.36-97.7,10.1-37.22,8.37-62.76,18.89-76.07,31.78l9.3-30.47S909.81,2.8,945.21.94c35.4-1.86,99.7,12.1,138.82,30.75,39.13,18.66,82.63,44.71,82.63,44.71Z"/>
    <path class="cls-4" d="M1443.24,1006.67l-98.07-134.92-135.48-164.51-123.24-161.53-145.15-177.76s-63.22-65.83-103.84-43.87c-7.12,7.89-10.82,18.28-10.28,28.89l5.68,56.53c-.37-3.95,45.87,53.27,45.87,53.27l157.43,209.03,165.81,206.47s147.11,173.58,160.64,189.67c13.54,16.1,34.85,40.66,56.8,28.43,16.95-9.32,24.61-29.58,18.05-47.78-4.51-12.24,5.77-41.92,5.77-41.92Z"/>
    <path class="cls-11" d="M1443.24,1006.67l-98.07-134.92-135.48-164.51-123.24-161.53-145.15-177.76s-63.22-65.83-103.84-43.87c-7.12,7.89-10.82,18.28-10.28,28.89l5.68,56.53c-.37-3.95,45.87,53.27,45.87,53.27l157.43,209.03,165.81,206.47s147.11,173.58,160.64,189.67c13.54,16.1,34.85,40.66,56.8,28.43,16.95-9.32,24.61-29.58,18.05-47.78-4.51-12.24,5.77-41.92,5.77-41.92Z"/>
    <path class="cls-4" d="M1516.05,934h0c-.79-5.72-1.3-9.3-1.3-9.3l-35.4-159.71-61.36-282.4s-38.57-170.04-50.66-200.75c-12.1-30.71-103.37-139.99-138.08-166.6-11.07-8.42-38.47-26.8-52.39-34.75h0s-93.98-57.04-160.64-71.18c-66.67-14.14-91.79-21.17-149.48,47.41l-7.54,16.42s65.88-57.5,75.93-61.74,62.76-1.07,101.79,11.07c39.03,12.14,124.5,58.25,124.82,58.43,20.56,12.7,71.65,45.36,77.6,58.71,8.59,16.95,14.26,35.23,16.79,54.06,6.23,38.15,20.7,88.39,29.54,125.61,0,0,36.24,166.51,40.06,180,19.63,68.67,60.9,318.45,60.9,318.45,0,0,38.47,208.75,39.78,220.38s10.24,46.52-19.07,61.27l111.33-25.82s9.68-2.56,10.33-23.87c.51-17.12-9.35-89.88-12.93-115.7Z"/>
    <path class="cls-12" d="M422.53,738.84v1023h775.07v-1023H422.53ZM657,817.37h-75.55c-8.39.46-15.57-5.96-16.03-14.35s5.96-15.57,14.35-16.03c.56-.03,1.12-.03,1.68,0h75.55c8.39.46,14.81,7.64,14.35,16.03-.43,7.74-6.61,13.92-14.35,14.35ZM816.25,817.37c-11.25,0-20.38-9.12-20.38-20.38,0-11.25,9.12-20.38,20.38-20.38,11.25,0,20.38,9.12,20.38,20.38,0,11.25-9.12,20.38-20.38,20.38-.03,0-.06,0-.09,0h.09ZM1050.49,817.37h-75.6c-8.39-.46-14.81-7.64-14.35-16.03.43-7.74,6.61-13.92,14.35-14.35h75.51c8.39.46,14.81,7.64,14.35,16.03-.43,7.74-6.61,13.92-14.35,14.35h.09Z"/>
    <path class="cls-7" d="M422.53,738.84v1023h775.07v-1023H422.53ZM657,817.37h-75.55c-8.39.46-15.57-5.96-16.03-14.35s5.96-15.57,14.35-16.03c.56-.03,1.12-.03,1.68,0h75.55c8.39.46,14.81,7.64,14.35,16.03-.43,7.74-6.61,13.92-14.35,14.35ZM816.25,817.37c-11.25,0-20.38-9.12-20.38-20.38,0-11.25,9.12-20.38,20.38-20.38,11.25,0,20.38,9.12,20.38,20.38,0,11.25-9.12,20.38-20.38,20.38-.03,0-.06,0-.09,0h.09ZM1050.49,817.37h-75.6c-8.39-.46-14.81-7.64-14.35-16.03.43-7.74,6.61-13.92,14.35-14.35h75.51c8.39.46,14.81,7.64,14.35,16.03-.43,7.74-6.61,13.92-14.35,14.35h.09Z"/>
    <path class="cls-10" d="M1050.4,817.37c3.16-.38,6.16-1.54,8.75-3.4,6.38-4.82,7.64-13.89,2.82-20.27-2.18-2.89-5.36-4.85-8.92-5.51-3.1-.19-6.21-.19-9.3,0h-68.85c-7.71-.02-13.97,6.22-13.99,13.93,0,.32,0,.64.03.96.42,7.51,6.72,13.33,14.24,13.17l39.13.28,26.43.37h7.16c.84-.05,1.69.03,2.51.23-.83.17-1.67.25-2.51.23h-7.16l-26.43.37-39.13.28c-4.09.05-8.06-1.43-11.12-4.14-6.75-5.98-7.38-16.3-1.4-23.05.06-.07.13-.14.19-.21,3.09-3.39,7.46-5.33,12.05-5.35h68.85c3.21-.1,6.43,0,9.63.33,3.05.62,5.86,2.11,8.09,4.28,3.92,3.71,5.67,9.17,4.65,14.47-.74,3.91-2.98,7.38-6.23,9.68-2.01,1.43-4.34,2.32-6.79,2.61-.84.43-1.76.68-2.7.74Z"/>
    <path class="cls-10" d="M816.16,817.37c0-.23,1.81-.23,4.65-1.12,4.29-1.23,8.05-3.85,10.7-7.44,3.85-5.32,4.81-12.21,2.56-18.38-3.71-9.99-14.83-15.09-24.82-11.37-5.26,1.96-9.41,6.11-11.37,11.37-2.28,6.17-1.32,13.07,2.56,18.38,2.64,3.58,6.38,6.2,10.65,7.44,3.07.88,4.88.88,4.88,1.12s-.47,0-1.3,0c-1.28.03-2.56-.1-3.81-.37-4.67-.98-8.84-3.59-11.77-7.35-4.51-5.71-5.76-13.34-3.3-20.19,3.99-11.15,16.27-16.95,27.42-12.96,6.04,2.16,10.8,6.92,12.96,12.96,2.43,6.85,1.18,14.47-3.3,20.19-2.94,3.78-7.13,6.38-11.82,7.35-1.24.27-2.5.4-3.77.37-.65.14-1.12.09-1.12,0Z"/>
    <path class="cls-10" d="M657,817.37c3.16-.38,6.16-1.54,8.75-3.4,6.38-4.9,7.57-14.04,2.67-20.42-.46-.6-.96-1.16-1.51-1.68-2-1.89-4.5-3.17-7.21-3.68-3.1-.19-6.21-.19-9.3,0h-68.85c-7.71-.02-13.97,6.22-13.99,13.93,0,.32,0,.64.03.96.42,7.49,6.69,13.3,14.19,13.17l39.17.28,26.38.37h7.16c.84-.06,1.69.02,2.51.23-.82.18-1.67.26-2.51.23h-7.16l-26.38.37-39.17.28c-4.09.04-8.05-1.43-11.12-4.14-6.75-5.98-7.38-16.3-1.4-23.05.06-.07.13-.14.19-.21,3.12-3.38,7.5-5.32,12.1-5.35h68.85c3.21-.1,6.43,0,9.63.33,3.05.63,5.86,2.11,8.1,4.28,3.89,3.73,5.64,9.17,4.65,14.47-.76,3.92-3.01,7.39-6.28,9.68-2,1.43-4.34,2.33-6.79,2.61-.84.43-1.76.68-2.7.74Z"/>
    <path class="cls-10" d="M422.53,738.84l775.07-1.02h1.02v1.02c0,289.33,0,642.3.23,1022.9v1.3H421.41v-1.07c.6-606.29,1.07-1013.41,1.07-1023,0,9.58.47,416.71,1.07,1023l-1.07-1.12h775.07l-1.21,1.21h0c0-380.61,0-733.58.23-1022.9l.98.98-775.03-1.3Z"/>
    <path class="cls-4" d="M1084.04,1210.77c-12.26.03-22.21-9.89-22.24-22.15-.03-12.26,9.89-22.21,22.14-22.24,12.26-.03,22.21,9.89,22.24,22.15v.05c-.03,12.23-9.92,22.14-22.15,22.19ZM1084.04,1171.04c-9.69-.03-17.56,7.81-17.59,17.49-.03,9.69,7.81,17.56,17.49,17.59,9.69.03,17.56-7.81,17.59-17.49v-.05c0-9.67-7.82-17.51-17.49-17.54Z"/>
    <circle class="cls-4" cx="1102.09" cy="1278.55" r="9.91"/>
    <path class="cls-4" d="M596.52,973.5l-14.75-14.7,14.75-14.75,14.75,14.75-14.75,14.7ZM588.38,958.8l8.14,8.14,8.19-8.14-8.19-8.19-8.14,8.19Z"/>
    <polygon class="cls-4" points="548.28 1510.84 566.28 1520.71 584.24 1530.62 566.65 1541.22 549.12 1551.83 548.7 1531.36 548.28 1510.84"/>
    <path class="cls-6" d="M936.75,1381.79l-.65.37-15.59-32.1h0l-2.51-.56-4.65,78.72,3.26,29.17c25.77-9.91,51.69-21.63,49.69-28.24-1.07-3.49-13.17-24.33-27.17-47.78-.97.55-2.02.94-3.12,1.16l.74-.74Z"/>
    <path class="cls-6" d="M887.57,1135.54c-.57,10.9-9.61,19.42-20.52,19.35-10.88-.77-20.47-7.4-25.03-17.31v34.99c.84,0,1.35-.23,1.4,0h0c51.18,3.3,88.91,25.45,117.28,64.2h0s43.73,60.48,65.13,96.02l-5.95,3.3c.11.24.23.48.37.7,2.49-1.43,5.12-2.58,7.86-3.44-2.25,1.8-4.68,3.36-7.26,4.65,2.98,5.44,5.91,10.98,8.75,16.66.37-4.93.6-9.86.6-14.89,0-84.14-48.65-160.68-124.82-196.42-5.82-.54-11.32-2.87-15.77-6.65l-2.05-1.16Z"/>
    <path class="cls-6" d="M756.93,1172.39h1.26c-.37-12.28-1.02-29.08-1.3-36.33l-.23-3.63c-1.75-.22-3.49-.53-5.21-.93-60.02,17.98-109.38,60.96-135.43,117.94l43.78-33.17c35.4-25.96,58.85-42.24,97.14-43.87Z"/>
    <path class="cls-6" d="M694.92,1400.12c4.65,8.23,8.47,12.79,8.23,13.03s-1.35-.98-3.21-3.21c-2.6-3.19-4.97-6.54-7.12-10.05-2.74-4.65-5.95-9.58-9.3-15.86-2.8-7.09-4-14.72-3.49-22.33-.02-.26-.02-.53,0-.79-.23-8.41,1.09-16.78,3.91-24.7l-24.66,17.49h0c-3.88-3.71-7.56-7.62-11.03-11.72l-2.05-2.23c-15.69,9.16-31.84,17.51-48.38,25.03,7.71,66.24,45.45,125.26,102.35,160.04l3.63-112.73c-3.07-4.05-6.14-8.05-8.89-11.96Z"/>
    <path class="cls-5" d="M1035.51,1365.88c-1.86-3.86-3.77-7.72-5.72-11.49-2.84-5.68-5.77-11.21-8.75-16.66-8.05,4.65-22.1,12.47-38.2,21.03-19.82,10.61-36.8,19.31-43.55,22.38,13.96,23.26,26.1,44.29,27.17,47.78,2,6.61-23.91,18.33-49.69,28.24l7.68,68.57c1.35-.84,2.74-1.58,4.14-2.42,56.8-34.47,95.81-91.93,106.91-157.43Z"/>
    <path class="cls-5" d="M622.02,1313.68c-10.42-10.98-19.63-21.17-25.96-28.84-3.02-3.58-5.4-6.56-7.02-8.75-12.33,8.65-21.12,13.49-21.91,10.33-15.54-63.74-11.17-145.06-8.65-176.23,1.72-2.7,3.72-5.63,6.09-8.89,2.74-3.74,6.09-7,9.91-9.63,4.59-3.51,9.65-6.36,15.03-8.47,5.12-1.44,5.95-8.23,1.49-9.86-4.47-1.63-18.61,2-31.73,12.98-13.12,10.98-7.77-15.12-6-24.61s5.91-39.27,3.4-41.87c-3.72-4.09-8.89-.84-10.47,8.7s-8.23,37.96-13.21,36.89,4.65-49.45,4.65-49.45c0,0,3.77-10.05-1.95-11.44-10.37-2.56-16.89,49.59-17.4,54.57-.33,3.44-5.82,2.51-5.26-1.16s10.84-48.15.33-50.8c-8.1-2.09-5.77,42.85-13.03,51.18-7.26,8.33,1.77-34.33-6.05-35.96-2.88-.6-5.16-.7-6.79,24.38-.37,20.18.36,40.37,2.19,60.48-6.89,68.76-14.24,306.21,74.76,272.02,11.91-4.65,23.03-9.3,33.5-13.96,16.54-7.52,32.69-15.87,48.38-25.03-6.37-7.58-14.84-16.56-24.28-26.56Z"/>
    <path class="cls-4" d="M875.15,1542.76c-.65-3.26,3.68-3.35,3.68-3.35,0,0-4.65-4.65-2-7.72,2.65-3.07,8.37,2.05,8.37,2.05,0,0,1.16-3.58,3.4-3.44s4.09,6.05,4.09,6.05c0,0,1.44-2.47,3.35-1.77.7,0,1.63,1.86,2.37,4.14,8.95-3.76,17.66-8.1,26.05-12.98l-7.68-68.67-3.26-29.17,4.65-78.72,2.51.56h0l15.45,32.43.65-.37c3.3-2.42,22.05-12.89,44.94-25.17l16.38-8.65,21.77-11.86,5.82-3.21c-21.21-35.36-65.13-96.02-65.13-96.02h0c-28.38-38.75-66.06-60.9-117.28-64.2h0c-3.9,1.91-8.03,3.3-12.28,4.14-10.17,2.48-20.61,3.73-31.08,3.72-10.47-.03-20.9-1.29-31.08-3.77-4.27-.81-8.41-2.22-12.28-4.19-38.29,1.63-61.74,17.91-97.14,43.96l-43.78,33.17-29.68,22.52c3.91,3.67,7.59,7.57,11.03,11.68,6.65,7.35,16,17.31,26.43,28.29,10.42,10.98,19.59,21.17,25.96,28.84,3.16,3.81,5.68,6.98,7.3,9.3.97,1.09,1.78,2.32,2.42,3.63l24.66-17.49c-2.82,7.92-4.14,16.3-3.91,24.7.03-3.63.33-7.25.88-10.84.66-3.6,1.63-7.13,2.88-10.56,2.24-5.72,5.17-11.15,8.75-16.14,2.38-3.36,4.98-6.56,7.77-9.58.96-1.16,2.07-2.2,3.3-3.07.33.28-4,5.02-9.63,13.63-3.31,4.98-6.01,10.34-8.05,15.96-2.43,6.89-3.62,14.15-3.54,21.45-.46,7.27.6,14.56,3.12,21.4,2.88,5.91,6.09,11.4,8.56,15.86l.65,1.12c2.74,3.91,5.82,7.91,9.3,11.96l-3.63,112.73v3.72c9,4.94,18.33,9.28,27.91,12.98.65-1.86,3.58-1.95,3.58-1.95,0,0-4.65-4.65-2-7.77,2.65-3.12,8.37,2.05,8.37,2.05,0,0,1.16-3.54,3.4-3.44s4.09,6.09,4.09,6.09c0,0,1.44-2.47,3.35-1.81s4.65,8,3.07,14.47c18.8,4.85,38.13,7.3,57.55,7.3h1.72c22.45-.11,44.76-3.54,66.2-10.19-1.25-.9-2.08-2.25-2.33-3.77ZM889.11,1472.97c-1.05,0-1.91-.85-1.91-1.91s.85-1.91,1.91-1.91c1.03.22,1.69,1.23,1.47,2.26-.15.72-.71,1.29-1.42,1.46l-.05.09ZM931.67,1302.14h-.74c-.71-.14-1.17-.82-1.03-1.52.1-.52.51-.93,1.03-1.03h.74c1.77-.33,1.77,2.61.05,2.47l-.05.09ZM961.54,1350.94s-1.4,1.12-3.4-1.44c0,0,.7,5.26-2,7.21-2.7,1.95-4.65-1.95-4.65-1.95,0,0-2.05,6.23-6.19,5.12s-1.67-8.42-1.67-8.42c0,0-3.72.42-4.65-1.63-.93-2.05,3.72-6.28,3.72-6.28,0,0-2.79-.28-3.02-2.28-.23-2,7.91-10,15.91-9.3,1.04-2.81,2.44-5.49,4.14-7.96-.5,2.84-1.4,5.59-2.65,8.19,1.53,1.21,9.3,11.07,4.51,18.66l-.05.09ZM995.92,1323.03c-.99-.16-1.66-1.09-1.5-2.08.12-.77.73-1.38,1.5-1.5.99.15,1.68,1.07,1.53,2.06-.11.77-.71,1.39-1.48,1.52h-.05ZM943.03,1257.01c2.79-3.26,8.33,2.05,8.33,2.05,0,0,1.21-3.54,3.4-3.44s4.14,6.09,4.14,6.09c0,0,1.4-2.47,3.35-1.81s5.77,11.49,1.54,18.38c2.1,2.11,3.92,4.49,5.4,7.07-2.35-1.67-4.47-3.66-6.28-5.91-1.58.7-13.96,3.58-18.61-4.05,0,0-.42-1.72,2.74-2.47,0,0-5.02-1.58-5.68-4.65s3.72-3.3,3.72-3.3c0,0-4.84-4.75-2.05-7.96ZM904.64,1208.49c.77,0,1.4.62,1.4,1.4s-.62,1.4-1.4,1.4-1.44-.65-1.44-1.44.65-1.44,1.44-1.44v.09ZM897.67,1250.69c.77,0,1.4.62,1.4,1.4s-.62,1.4-1.4,1.4-1.44-.65-1.44-1.44.65-1.44,1.44-1.44v.09ZM892.04,1364.53c1.02,1.02.37,3.35-1.3,3.16h-.42c-.77-.05-1.37-.67-1.4-1.44v-.37c-.28-1.86,2.09-2.51,3.12-1.44v.09ZM871.01,1310.24c.94.16,1.57,1.04,1.42,1.98-.12.73-.69,1.3-1.42,1.42-.94-.16-1.57-1.04-1.42-1.98.12-.73.69-1.3,1.42-1.42ZM845.93,1201.19s1.4-1.07,3.35,1.54c0,0-.56-5.26,2.19-7.12,2.74-1.86,4.65,2.14,4.65,2.14,0,0,2.23-6.19,6.37-4.88,4.14,1.3,1.35,8.47,1.35,8.47,0,0,3.77-.28,4.65,1.77s-3.95,6.14-3.95,6.14c0,0,2.84.37,2.98,2.42s-8.28,9.72-16.28,8.51c-1.11,2.78-2.58,5.41-4.37,7.82.58-2.83,1.57-5.55,2.93-8.09-1.54-1.3-8.98-11.4-3.86-18.7ZM809.88,1409.7h.7c.72.19,1.15.93.95,1.65-.13.46-.49.83-.95.95h-.7c-.76.32-1.63-.04-1.95-.8-.32-.76.04-1.63.8-1.95.37-.16.78-.16,1.15,0v.14ZM806.95,1289.25v-.79c.16-.94,1.04-1.57,1.98-1.42.73.12,1.3.69,1.42,1.42v.79c.19,2.14-3.63,2.14-3.4-.14v.14ZM800.2,1533.22c.98.04,1.74.86,1.7,1.83-.01.27-.08.53-.21.77v.28c-.42.71-1.33.94-2.04.52-.21-.13-.39-.3-.52-.52l-.23-.28c-.54-.81-.33-1.91.48-2.45.24-.16.53-.26.82-.29v.14ZM800.2,1358.25c1,0,1.81.82,1.81,1.82,0,1-.81,1.81-1.81,1.81-1.04,0-1.88-.84-1.88-1.88s.84-1.88,1.88-1.88h0v.14ZM797.13,1468.42c0,2.05-3.3,2.05-3.21,0v-.37c0-.87.72-1.58,1.59-1.57.87,0,1.57.71,1.57,1.57l.05.37ZM790.94,1227.75c.21.87-.32,1.75-1.2,1.97-.87.21-1.75-.32-1.97-1.2-.06-.25-.06-.52,0-.77v-.37c.26-.84,1.14-1.3,1.98-1.05.5.15.89.55,1.05,1.05l.14.37ZM718.55,1446.13c.55.12.9.66.78,1.22-.09.39-.39.7-.78.78-.59,0-1.07-.48-1.07-1.07s.48-1.07,1.07-1.07h0v.14ZM706.6,1375.14l.23-.7c.19-.69.91-1.1,1.6-.91.44.12.79.47.91.91l.23.7c.88,2.37-3.86,2.33-2.98-.14v.14ZM696.55,1273.72v-.33c.46-.75,1.43-.98,2.17-.52.21.13.39.31.52.52v.33c1.77,3.07-4.19,3.07-2.7-.14v.14ZM694.92,1227.19c.85,0,1.54.69,1.54,1.54s-.69,1.54-1.54,1.54c-.74-.41-.92-1.51-.51-2.25.14-.25.35-.46.51-.77v-.05ZM632.25,1296.98c-.86-.15-1.44-.97-1.29-1.83.11-.66.63-1.17,1.29-1.29,1.03,0,1.86.67,1.86,1.7,0,1.03-.83,1.86-1.86,1.7v-.28ZM641.56,1267.95s-.37-1.72,2.74-2.47c0,0-5.02-1.58-5.68-4.65s3.72-3.35,3.72-3.35c0,0-4.65-4.65-2-7.72s8.33,2.05,8.33,2.05c0,0,1.21-3.58,3.4-3.44s4.14,6.05,4.14,6.05c0,0,1.4-2.47,3.35-1.77,1.95.7,5.77,11.49,1.54,18.38,2.1,2.1,3.91,4.46,5.4,7.03-2.37-1.66-4.48-3.65-6.28-5.91-1.44.79-13.68,3.49-18.52-3.91l-.14-.28ZM675.01,1336.15s-1.4,1.12-3.4-1.44c0,0,.7,5.26-1.95,7.21-2.65,1.95-4.65-1.95-4.65-1.95,0,0-2,6.23-6.19,5.12s-1.67-8.47-1.67-8.47c0,0-3.72.47-4.65-1.58-.93-2.05,3.77-6.33,3.77-6.33,0,0-2.84-.23-3.07-2.23s7.91-10.05,15.96-9.3c1-2.83,2.39-5.51,4.14-7.96-.53,2.84-1.44,5.59-2.7,8.19,1.58,1.58,9.4,11.4,4.56,19.03l-.14-.28ZM731.44,1223.47c-1.12,2.79-2.6,5.42-4.42,7.82.64-2.82,1.64-5.54,2.98-8.09-1.26-1.16-8.7-11.26-3.63-18.61,0,0,1.44-1.07,3.35,1.54,0,0-.51-5.26,2.23-7.12,2.74-1.86,4.65,2.09,4.65,2.09,0,0,2.23-6.14,6.33-4.65,4.09,1.49,1.4,8.51,1.4,8.51,0,0,3.77-.33,4.65,1.77s-3.95,6.14-3.95,6.14c0,0,2.79.37,2.93,2.42s-8.61,9.17-16.52,8.19ZM738.56,1269.99s-4.65-4.65-2-7.77c2.65-3.12,8.37,2.05,8.37,2.05,0,0,1.21-3.54,3.4-3.44s4.09,6.05,4.09,6.05c0,0,1.44-2.47,3.35-1.77,1.91.7,5.82,11.49,1.58,18.38,2.11,2.07,3.91,4.44,5.35,7.03-2.34-1.68-4.45-3.65-6.28-5.86-1.54.7-13.96,3.54-18.61-4.05,0,0-.42-1.72,2.74-2.47,0,0-5.07-1.58-5.68-4.65s3.58-3.4,3.58-3.4l.09-.09ZM755.63,1313.03l-.42-.74c-1.07-1.81,1.91-3.4,2.7-1.63l.33.84c.65,1.81-1.67,3.35-2.7,1.63l.09-.09ZM737.35,1370.25c.64-2.82,1.64-5.54,2.98-8.09-1.26-1.16-8.7-11.26-3.63-18.61,0,0,1.44-1.07,3.35,1.58,0,0-.51-5.3,2.23-7.16,2.74-1.86,4.65,2.14,4.65,2.14,0,0,2.23-6.19,6.33-4.88,4.09,1.3,1.4,8.47,1.4,8.47,0,0,3.77-.28,4.65,1.77s-3.95,6.19-3.95,6.19c0,0,2.79.33,2.98,2.37s-8.28,9.72-16.28,8.56c-1.22,2.81-2.83,5.42-4.79,7.77l.09-.09ZM750.79,1502.61l-.79.28c-1.63.65-2.47-1.81-1.12-2.65l.7-.47c1.77-1.12,3.26,2.09,1.12,2.93l.09-.09ZM746.14,1437.25s-.42-1.72,2.74-2.47c0,0-5.02-1.58-5.68-4.65s3.68-3.35,3.68-3.35c0,0-4.65-4.65-2-7.77,2.65-3.12,8.37,2.09,8.37,2.09,0,0,1.21-3.58,3.4-3.44,2.19.14,4.09,6.05,4.09,6.05,0,0,1.44-2.47,3.35-1.81,1.91.65,5.82,11.49,1.58,18.38,2.12,2.08,3.92,4.47,5.35,7.07-2.33-1.7-4.44-3.69-6.28-5.91-1.44.65-13.68,3.54-18.52-4.09l-.09-.09ZM837.05,1488.42c0,1.95-8.28,9.72-16.28,8.56-1.07,2.8-2.56,5.42-4.42,7.77.63-2.8,1.63-5.51,2.98-8.05-1.26-1.21-8.7-11.31-3.63-18.61,0,0,1.44-1.02,3.35,1.58,0,0-.51-5.26,2.23-7.12,2.74-1.86,4.65,2.09,4.65,2.09,0,0,2.23-6.19,6.33-4.88,4.09,1.3,1.4,8.47,1.4,8.47,0,0,3.77-.28,4.65,1.77s-3.95,6.19-3.95,6.19c0,0,2.61.42,2.79,2.47l-.09-.23ZM848.96,1354.71c0,1.91-8.28,9.72-16.24,8.56-1.22,2.78-2.78,5.39-4.65,7.77.58-2.83,1.57-5.55,2.93-8.09-1.26-1.16-8.7-11.26-3.58-18.61,0,0,1.44-1.07,3.35,1.58,0,0-.56-5.3,2.23-7.12,2.79-1.81,4.65,2.09,4.65,2.09,0,0,2.28-6.19,6.37-4.65,4.09,1.54,1.4,8.47,1.4,8.47,0,0,3.72-.28,4.65,1.77.93,2.05-3.95,6.19-3.95,6.19,0,0,2.7.09,2.84,2.05ZM840.95,1280.6s-.42-1.72,2.74-2.47c0,0-5.02-1.58-5.68-4.65-.65-3.07,3.72-3.3,3.72-3.3,0,0-4.65-4.65-2-7.77,2.65-3.12,8.33,2.05,8.33,2.05,0,0,1.21-3.54,3.4-3.44s4.09,6.05,4.09,6.05c0,0,1.44-2.47,3.35-1.77,1.91.7,5.82,11.49,1.58,18.38,2.11,2.07,3.91,4.44,5.35,7.03-2.33-1.67-4.42-3.64-6.23-5.86-1.58.6-13.82,3.44-18.66-4.14v-.09ZM857.84,1525.31c-1,0-1.81-.82-1.81-1.82,0-1,.81-1.81,1.81-1.81,1.03,0,1.86.83,1.86,1.86s-.83,1.86-1.86,1.86v-.09ZM865.19,1432.83s-.42-1.72,2.74-2.47c0,0-5.07-1.58-5.68-4.65s3.68-3.3,3.68-3.3c0,0-4.65-4.65-2-7.77,2.65-3.12,8.33,2.05,8.33,2.05,0,0,1.21-3.58,3.44-3.44s4.09,6.05,4.09,6.05c0,0,1.4-2.47,3.35-1.77,1.95.7,5.77,11.49,1.54,18.38,2.1,2.1,3.91,4.46,5.4,7.03-2.37-1.66-4.48-3.65-6.28-5.91-1.58.65-13.77,3.49-18.61-4.09v-.09Z"/>
    <path class="cls-1" d="M660.35,1272.23l-2.84-3.02c-3.03-2.98-5.69-6.33-7.91-9.96,3.45,2.59,6.58,5.59,9.3,8.93l2.56,2.93c4.23-6.89.28-17.77-1.54-18.38s-3.35,1.77-3.35,1.77c0,0-1.91-5.95-4.14-6.05s-3.4,3.44-3.4,3.44c0,0-5.54-5.35-8.33-2.05s2,7.72,2,7.72c0,0-4.33,0-3.72,3.35s5.68,4.65,5.68,4.65c-3.12.74-2.74,2.47-2.74,2.47,4.61,7.58,16.84,4.89,18.42,4.19Z"/>
    <path class="cls-10" d="M649.61,1259.25c2.22,3.63,4.87,6.97,7.91,9.96l2.84,3.02c1.8,2.26,3.91,4.25,6.28,5.91-1.49-2.57-3.3-4.93-5.4-7.03l-2.56-2.93c-2.66-3.33-5.7-6.33-9.07-8.93Z"/>
    <path class="cls-1" d="M740.47,1278.23c-3.16.74-2.74,2.47-2.74,2.47,4.65,7.58,17.07,4.65,18.61,4.05l-2.79-3.07c-3.04-2.99-5.71-6.33-7.96-9.96,3.45,2.59,6.57,5.59,9.3,8.93l2.61,2.93c4.23-6.89.28-17.77-1.58-18.38-1.86-.6-3.35,1.77-3.35,1.77,0,0-1.91-5.91-4.09-6.05-2.19-.14-3.4,3.44-3.4,3.44,0,0-5.58-5.3-8.37-2.05s2,7.77,2,7.77c0,0-4.33,0-3.68,3.3s5.44,4.84,5.44,4.84Z"/>
    <path class="cls-10" d="M745.4,1271.72c2.24,3.62,4.92,6.97,7.96,9.96l2.79,3.07c1.83,2.21,3.94,4.18,6.28,5.86-1.44-2.59-3.24-4.95-5.35-7.03l-2.61-2.93c-2.66-3.33-5.7-6.33-9.07-8.93Z"/>
    <path class="cls-1" d="M856.77,1281.67c-3.02-3-5.69-6.34-7.96-9.96,3.44,2.6,6.57,5.6,9.3,8.93l2.56,2.93c4.23-6.89.28-17.77-1.58-18.38-1.86-.6-3.35,1.77-3.35,1.77,0,0-1.86-5.91-4.09-6.05-2.23-.14-3.4,3.44-3.4,3.44,0,0-5.54-5.3-8.33-2.05s2,7.77,2,7.77c0,0-4.37,0-3.72,3.3s5.68,4.65,5.68,4.65c-3.16.74-2.74,2.47-2.74,2.47,4.65,7.58,17.07,4.65,18.61,4.05l-2.98-2.88Z"/>
    <path class="cls-10" d="M848.82,1271.72c2.26,3.61,4.93,6.95,7.96,9.96l2.84,3.07c1.81,2.22,3.91,4.19,6.23,5.86-1.44-2.59-3.24-4.95-5.35-7.03l-2.56-2.93c-2.68-3.32-5.74-6.32-9.12-8.93Z"/>
    <path class="cls-1" d="M883.8,1436.92l-2.79-3.02c-3.04-2.99-5.71-6.33-7.96-9.96,3.36,2.62,6.4,5.62,9.07,8.93l2.56,2.93c4.23-6.89.33-17.77-1.54-18.38-1.86-.6-3.35,1.77-3.35,1.77,0,0-1.91-5.91-4.09-6.05s-3.44,3.44-3.44,3.44c0,0-5.54-5.35-8.33-2.05s2,7.77,2,7.77c0,0-4.33,0-3.68,3.3s5.68,4.65,5.68,4.65c-3.16.74-2.74,2.47-2.74,2.47,4.84,7.77,17.03,4.93,18.61,4.19Z"/>
    <path class="cls-10" d="M873.06,1423.94c2.24,3.62,4.92,6.97,7.96,9.96l2.79,3.02c1.8,2.26,3.91,4.25,6.28,5.91-1.49-2.57-3.3-4.93-5.4-7.03l-2.56-2.93c-2.67-3.32-5.72-6.31-9.07-8.93Z"/>
    <path class="cls-1" d="M749.35,1534.66c-1.91-.65-3.35,1.81-3.35,1.81,0,0-1.91-5.95-4.09-6.09s-3.4,3.44-3.4,3.44c0,0-5.58-5.3-8.37-2.05-2.79,3.26,2,7.77,2,7.77,0,0-2.93,0-3.58,1.95,4.65,1.81,9.68,3.49,14.61,5.02-1.58-1.56-2.9-3.37-3.91-5.35,2.41,1.73,4.57,3.78,6.42,6.09l6.75,1.86c1.4-6.47-1.54-13.96-3.07-14.47Z"/>
    <path class="cls-10" d="M739.26,1541.18c1.01,1.98,2.33,3.79,3.91,5.35l2.51.74c-1.85-2.31-4.01-4.36-6.42-6.09Z"/>
    <path class="cls-1" d="M957.31,1332.29c-.47,1.21-1.02,2.47-1.58,3.81-1.42,4.02-3.31,7.86-5.63,11.44.9-4.18,2.32-8.23,4.23-12.05l1.49-3.44c-8-.88-16.14,7.16-15.91,9.3s3.02,2.28,3.02,2.28c0,0-4.65,4.23-3.72,6.28s4.65,1.63,4.65,1.63c0,0-2.47,7.26,1.67,8.42s6.19-5.12,6.19-5.12c0,0,1.91,3.91,4.65,1.95,2.74-1.95,2-7.21,2-7.21,2,2.56,3.4,1.44,3.4,1.44,4.61-7.77-3.16-17.63-4.47-18.75Z"/>
    <path class="cls-10" d="M950.1,1347.55c2.32-3.58,4.21-7.42,5.63-11.44.56-1.35,1.12-2.61,1.58-3.81,1.26-2.59,2.15-5.35,2.65-8.19-1.71,2.47-3.1,5.14-4.14,7.96l-1.49,3.44c-1.91,3.82-3.33,7.87-4.23,12.05Z"/>
    <path class="cls-1" d="M670.96,1317.87c-.47,1.21-.98,2.47-1.58,3.81-1.4,4.03-3.29,7.87-5.63,11.44.95-4.16,2.37-8.21,4.23-12.05.51-1.21,1.02-2.37,1.54-3.44-8.05-.93-16.14,7.16-15.96,9.3s3.07,2.23,3.07,2.23c0,0-4.65,4.28-3.77,6.33s4.65,1.58,4.65,1.58c0,0-2.47,7.3,1.67,8.47s6.19-5.12,6.19-5.12c0,0,1.91,3.91,4.65,1.95,2.74-1.95,1.95-7.21,1.95-7.21,2,2.56,3.4,1.44,3.4,1.44,4.61-7.82-3.21-17.63-4.42-18.75Z"/>
    <path class="cls-10" d="M663.66,1333.13c2.34-3.57,4.23-7.41,5.63-11.44.6-1.35,1.12-2.61,1.58-3.81,1.26-2.6,2.17-5.35,2.7-8.19-1.75,2.44-3.14,5.12-4.14,7.96-.51,1.07-1.02,2.23-1.54,3.44-1.86,3.84-3.28,7.89-4.23,12.05Z"/>
    <path class="cls-1" d="M941.31,1267.99c.65,3.26,5.68,4.65,5.68,4.65-3.16.74-2.74,2.47-2.74,2.47,4.65,7.63,17.07,4.65,18.61,4.05-.93-.98-1.86-1.95-2.84-3.07-3.02-3-5.69-6.34-7.96-9.96,3.46,2.59,6.58,5.59,9.3,8.93l2.56,2.93c4.23-6.89.28-17.73-1.54-18.38s-3.35,1.81-3.35,1.81c0,0-1.91-5.95-4.14-6.09s-3.4,3.44-3.4,3.44c0,0-5.54-5.3-8.33-2.05-2.79,3.26,2,7.77,2,7.77,0,0-4.37.23-3.86,3.49Z"/>
    <path class="cls-10" d="M952.1,1266.32c2.26,3.61,4.93,6.95,7.96,9.96.98,1.12,1.91,2.09,2.84,3.07,1.82,2.25,3.93,4.23,6.28,5.91-1.48-2.59-3.29-4.96-5.4-7.07l-2.56-2.93c-2.67-3.34-5.73-6.34-9.12-8.93Z"/>
    <path class="cls-1" d="M764.84,1441.39l-2.79-3.07c-3.02-3-5.69-6.34-7.96-9.96,3.38,2.61,6.42,5.63,9.07,8.98.93.98,1.77,1.95,2.61,2.88,4.23-6.89.28-17.73-1.58-18.38s-3.35,1.81-3.35,1.81c0,0-1.86-5.95-4.09-6.05s-3.4,3.44-3.4,3.44c0,0-5.54-5.35-8.37-2.09s2,7.77,2,7.77c0,0-4.33,0-3.68,3.35s5.68,4.65,5.68,4.65c-3.16.74-2.74,2.47-2.74,2.47,4.84,7.77,17.07,4.89,18.61,4.19Z"/>
    <path class="cls-10" d="M754.1,1428.36c2.26,3.61,4.93,6.95,7.96,9.96l2.79,3.07c1.84,2.22,3.95,4.21,6.28,5.91-1.43-2.6-3.23-4.99-5.35-7.07-.84-.93-1.67-1.91-2.61-2.88-2.65-3.35-5.7-6.36-9.07-8.98Z"/>
    <path class="cls-1" d="M896.04,1534.57c-1.91-.7-3.35,1.77-3.35,1.77,0,0-1.91-5.95-4.09-6.05s-3.4,3.44-3.4,3.44c0,0-5.58-5.35-8.37-2.05-2.79,3.3,2,7.72,2,7.72,0,0-4.33,0-3.68,3.35.42,1.47,1.41,2.7,2.74,3.44,3.12-.98,6.19-2.05,9.3-3.12-.88-1.16-1.35-1.91-1.21-2s.93.51,2.14,1.67c3.5-1.27,6.95-2.62,10.33-4.05-.79-2.28-1.72-3.91-2.42-4.14Z"/>
    <path class="cls-10" d="M887.15,1543.08l.93-.33c-1.21-1.16-2-1.81-2.14-1.67s.33.84,1.21,2Z"/>
    <path class="cls-1" d="M757.96,1354.02c0-2.05-2.98-2.37-2.98-2.37,0,0,4.65-4.09,3.95-6.19s-4.65-1.77-4.65-1.77c0,0,2.74-7.21-1.4-8.47-4.14-1.26-6.33,4.88-6.33,4.88,0,0-1.77-3.95-4.65-2.14-2.88,1.81-2.23,7.16-2.23,7.16-1.91-2.65-3.35-1.58-3.35-1.58-5.07,7.44,2.37,17.54,3.63,18.61.51-1.16,1.07-2.42,1.72-3.77,1.55-3.96,3.56-7.73,6-11.21-1.04,4.14-2.6,8.12-4.65,11.86l-1.63,3.44c8.28,1.26,16.7-6.56,16.56-8.47Z"/>
    <path class="cls-10" d="M747.96,1347.27c-2.44,3.49-4.45,7.25-6,11.21-.65,1.35-1.21,2.61-1.72,3.77-1.34,2.56-2.34,5.28-2.98,8.09,1.83-2.37,3.32-4.98,4.42-7.77l1.63-3.44c2.05-3.74,3.61-7.73,4.65-11.86Z"/>
    <path class="cls-1" d="M838.12,1480.33c-.74-2.05-4.65-1.77-4.65-1.77,0,0,2.74-7.21-1.4-8.47s-6.33,4.88-6.33,4.88c0,0-1.77-3.95-4.65-2.09-2.88,1.86-2.23,7.12-2.23,7.12-1.91-2.61-3.35-1.58-3.35-1.58-5.07,7.44,2.37,17.54,3.63,18.61.51-1.21,1.07-2.47,1.72-3.81,1.53-3.98,3.56-7.75,6.05-11.21-1.08,4.12-2.64,8.11-4.65,11.86-.56,1.21-1.07,2.33-1.63,3.44,8,1.16,16.42-6.61,16.28-8.56s-2.98-2.37-2.98-2.37c0,0,4.93-4.19,4.19-6.05Z"/>
    <path class="cls-10" d="M827.18,1481.91c-2.49,3.46-4.52,7.23-6.05,11.21-.65,1.35-1.21,2.61-1.72,3.81-1.34,2.54-2.34,5.25-2.98,8.05,1.86-2.35,3.35-4.97,4.42-7.77.56-1.12,1.07-2.23,1.63-3.44,2.03-3.76,3.61-7.74,4.7-11.86Z"/>
    <path class="cls-1" d="M747.58,1215.14c0-2.05-2.93-2.42-2.93-2.42,0,0,4.65-4.05,3.95-6.14s-4.65-1.77-4.65-1.77c0,0,2.74-7.21-1.4-8.51-4.14-1.3-6.33,4.65-6.33,4.65,0,0-1.77-3.95-4.65-2.09-2.88,1.86-2.23,7.12-2.23,7.12-1.91-2.61-3.35-1.54-3.35-1.54-5.07,7.44,2.37,17.54,3.63,18.61.53-1.21,1.09-2.47,1.67-3.77,1.57-3.96,3.6-7.72,6.05-11.21-1.05,4.13-2.61,8.12-4.65,11.86l-1.63,3.4c8.28,1.12,16.66-6.47,16.52-8.19Z"/>
    <path class="cls-10" d="M737.63,1208.21c-2.44,3.49-4.47,7.25-6.05,11.21-.59,1.3-1.15,2.56-1.67,3.77-1.34,2.56-2.34,5.28-2.98,8.09,1.82-2.4,3.3-5.02,4.42-7.82l1.63-3.4c2.04-3.74,3.61-7.73,4.65-11.86Z"/>
    <path class="cls-1" d="M849.93,1346.25c-.74-2.05-4.65-1.77-4.65-1.77,0,0,2.7-7.21-1.4-8.47s-6.37,4.65-6.37,4.65c0,0-1.72-3.95-4.65-2.09-2.93,1.86-2.23,7.12-2.23,7.12-1.91-2.65-3.35-1.58-3.35-1.58-5.12,7.44,2.33,17.54,3.58,18.61.56-1.16,1.12-2.42,1.72-3.77,1.57-3.96,3.6-7.72,6.05-11.21-1.09,4.12-2.65,8.1-4.65,11.86l-1.63,3.44c7.96,1.16,16.38-6.65,16.24-8.56s-2.98-2.37-2.98-2.37c0,0,5.12-3.77,4.33-5.86Z"/>
    <path class="cls-10" d="M839,1348.06c-2.44,3.49-4.47,7.25-6.05,11.21-.6,1.35-1.16,2.61-1.72,3.77-1.37,2.54-2.35,5.27-2.93,8.09,1.87-2.38,3.44-4.99,4.65-7.77l1.63-3.44c1.92-3.77,3.4-7.75,4.42-11.86Z"/>
    <path class="cls-1" d="M849.52,1219.8l1.72-3.77c1.55-3.97,3.58-7.73,6.05-11.21-1.08,4.12-2.64,8.11-4.65,11.86-.56,1.21-1.07,2.33-1.63,3.4,8,1.21,16.42-6.61,16.28-8.51s-2.98-2.42-2.98-2.42c0,0,4.65-4.05,3.95-6.14s-4.65-1.77-4.65-1.77c0,0,2.74-7.21-1.35-8.47-4.09-1.26-6.37,4.88-6.37,4.88,0,0-1.77-4-4.65-2.14-2.88,1.86-2.19,7.12-2.19,7.12-1.95-2.61-3.35-1.54-3.35-1.54-4.89,7.4,2.56,17.49,3.81,18.7Z"/>
    <path class="cls-10" d="M857.28,1204.77c-2.47,3.48-4.5,7.24-6.05,11.21l-1.72,3.77c-1.37,2.54-2.35,5.27-2.93,8.09,1.79-2.4,3.26-5.03,4.37-7.82.56-1.07,1.07-2.19,1.63-3.4,2.03-3.76,3.61-7.74,4.7-11.86Z"/>
    <path class="cls-10" d="M842.26,1172.58c-1.95.37-5.86,1.3-11.26,2.37-20.27,4-41.14,4-61.41,0-5.54-1.07-9.3-2.05-11.4-2.42h-1.26c3.87,1.97,8.01,3.38,12.28,4.19,10.17,2.47,20.61,3.74,31.08,3.77,10.47,0,20.9-1.24,31.08-3.72,4.26-.84,8.38-2.24,12.28-4.14h0s-.56-.23-1.4-.05Z"/>
    <path class="cls-10" d="M1028.3,1333.13c-2.74.86-5.37,2.01-7.86,3.44-5.4,2.65-13.21,6.61-22.38,11.4l-16.38,8.65c-22.89,12.28-41.87,22.75-44.94,25.17l-.56.51c1.09-.22,2.15-.61,3.12-1.16,6.75-3.07,23.73-11.77,43.55-22.38,16.1-8.56,30.15-16.33,38.2-21.03,2.58-1.27,5.01-2.82,7.26-4.61Z"/>
    <path class="cls-10" d="M622.02,1313.68c9.3,10,17.91,18.98,24.38,26.05l2.05,2.23c3.46,4.1,7.14,8.02,11.03,11.72h0c-.65-1.32-1.48-2.54-2.47-3.63-1.63-2.23-4.14-5.4-7.3-9.3-6.37-7.68-15.59-17.82-25.96-28.84-10.37-11.03-19.77-20.94-26.43-28.29-3.44-4.11-7.12-8.01-11.03-11.68h0c.62,1.31,1.42,2.53,2.37,3.63l.33.42c1.63,2.19,4,5.16,7.02,8.75,6.37,7.77,15.59,17.96,26.01,28.94Z"/>
    <path class="cls-10" d="M683.66,1384.02c3.21,6.28,6.42,11.35,9.3,15.86,2.14,3.51,4.52,6.86,7.12,10.05,1.86,2.23,3.07,3.3,3.21,3.21s-3.49-4.65-8.23-13.03l-.65-1.12c-2.47-4.65-5.68-9.96-8.56-15.86-2.52-6.84-3.58-14.13-3.12-21.4-.09-7.3,1.11-14.56,3.54-21.45,2.04-5.62,4.74-10.98,8.05-15.96,5.63-8.61,9.96-13.35,9.63-13.63-1.23.88-2.34,1.91-3.3,3.07-2.79,3.03-5.39,6.23-7.77,9.58-3.57,5-6.51,10.42-8.75,16.14-1.26,3.43-2.22,6.97-2.88,10.56-.56,3.59-.85,7.21-.88,10.84-.02.26-.02.53,0,.79-.57,7.6.56,15.22,3.3,22.33Z"/>
    <path class="cls-10" d="M787.83,1227.24v.37c-.21.87.32,1.75,1.2,1.97.87.21,1.75-.32,1.97-1.2.06-.25.06-.52,0-.77v-.37c0-.87-.72-1.58-1.59-1.57-.87,0-1.57.71-1.57,1.57Z"/>
    <path class="cls-10" d="M694.92,1230.31c.85,0,1.54-.69,1.54-1.54s-.69-1.54-1.54-1.54-1.54.69-1.54,1.54.69,1.54,1.54,1.54Z"/>
    <path class="cls-10" d="M699.52,1273.58v-.33c-.46-.75-1.43-.98-2.17-.52-.21.13-.39.31-.52.52v.33c-1.77,3.21,4.19,3.21,2.7,0Z"/>
    <path class="cls-10" d="M632.25,1294.23c-.86.15-1.44.97-1.29,1.83.11.66.63,1.17,1.29,1.29.86-.15,1.44-.97,1.29-1.83-.11-.66-.63-1.17-1.29-1.29Z"/>
    <path class="cls-10" d="M810.53,1289.12v-.79c-.16-.94-1.04-1.57-1.98-1.42-.73.12-1.3.69-1.42,1.42v.79c-.42,2.28,3.4,2.28,3.4,0Z"/>
    <path class="cls-10" d="M706.83,1374.3l-.23.7c-.88,2.47,3.86,2.51,2.98,0l-.23-.7c-.19-.69-.91-1.1-1.6-.91-.44.12-.79.47-.91.91Z"/>
    <path class="cls-10" d="M755.12,1312.38l.42.74c1.02,1.72,3.35,0,2.61-1.54l-.33-.84c-.79-1.77-3.77-.19-2.7,1.63Z"/>
    <path class="cls-10" d="M800.2,1361.74c1,0,1.81-.82,1.81-1.82,0-1-.81-1.81-1.81-1.81-1,0-1.81.82-1.81,1.82,0,1,.81,1.81,1.81,1.81Z"/>
    <path class="cls-10" d="M871.01,1313.63c.94-.16,1.57-1.04,1.42-1.98-.12-.73-.69-1.3-1.42-1.42-.94.16-1.57,1.04-1.42,1.98.12.73.69,1.3,1.42,1.42Z"/>
    <path class="cls-10" d="M890.32,1367.55h.42c1.67,0,2.33-2.14,1.3-3.16s-3.4-.37-3.16,1.3v.37c0,.8.64,1.46,1.44,1.49Z"/>
    <path class="cls-10" d="M930.98,1299.44c-.71.14-1.17.82-1.03,1.52.1.52.51.93,1.03,1.03h.74c1.72,0,1.72-2.79,0-2.65l-.74.09Z"/>
    <path class="cls-10" d="M897.67,1253.39c.77,0,1.4-.62,1.4-1.4s-.62-1.4-1.4-1.4-1.4.62-1.4,1.4.62,1.4,1.4,1.4Z"/>
    <path class="cls-10" d="M904.64,1211.19c.77,0,1.4-.62,1.4-1.4s-.62-1.4-1.4-1.4-1.4.62-1.4,1.4.62,1.4,1.4,1.4h0Z"/>
    <path class="cls-10" d="M995.97,1319.45c-.99.16-1.66,1.09-1.5,2.08.12.77.73,1.38,1.5,1.5.99-.16,1.66-1.09,1.5-2.08-.12-.77-.73-1.38-1.5-1.5Z"/>
    <path class="cls-10" d="M809.88,1412.45h.7c.72-.19,1.15-.93.95-1.65-.13-.46-.49-.83-.95-.95h-.7c-.72-.4-1.63-.14-2.02.58-.4.72-.14,1.63.58,2.02.45.25.99.25,1.44,0Z"/>
    <path class="cls-10" d="M718.55,1447.99c.55-.12.9-.66.78-1.22-.09-.39-.39-.7-.78-.78-.55.12-.9.66-.78,1.22.09.39.39.7.78.78Z"/>
    <path class="cls-10" d="M749.49,1499.87l-.7.47c-1.35.84-.51,3.3,1.12,2.65l.79-.28c2.14-.84.65-4.05-1.21-2.84Z"/>
    <path class="cls-10" d="M793.97,1467.9v.37c0,2.05,3.35,2.05,3.21,0v-.37c0-.89-.72-1.61-1.61-1.61s-1.61.72-1.61,1.61Z"/>
    <path class="cls-10" d="M798.67,1535.69l.23.28c.42.71,1.33.94,2.04.52.21-.13.39-.3.52-.52v-.28c.45-.84.15-1.88-.69-2.33-.84-.45-1.88-.15-2.33.69-.28.51-.28,1.13,0,1.65h.23Z"/>
    <path class="cls-10" d="M857.84,1521.78c-1,0-1.81.82-1.81,1.82,0,1,.81,1.81,1.81,1.81,1,0,1.81-.82,1.81-1.82,0-1-.81-1.81-1.81-1.81Z"/>
    <path class="cls-10" d="M889.15,1469.07c-1.05,0-1.91.85-1.91,1.91s.85,1.91,1.91,1.91,1.91-.85,1.91-1.91-.85-1.91-1.91-1.91Z"/>
    <path class="cls-7" d="M925.25,1041.8c1.91-3.07,3.91-6,5.49-9.03,1.56-2.94,2.75-6.07,3.54-9.3,1.37-6.26,1.46-12.73.28-19.03-2.16-10.76-6.95-20.82-13.96-29.26-1.63-2.05-3.26-3.91-4.65-5.68,1.13,2.5,2.11,5.06,2.93,7.68,4.49,16.98,5.34,34.72,2.51,52.06-1.42,8.59-2.11,17.3-2.05,26.01.22-1.24.54-2.45.98-3.63,1.24-3.46,2.9-6.75,4.93-9.82Z"/>
    <path class="cls-7" d="M887.48,1134.24v1.3l2.23.88c-.8-.67-1.54-1.4-2.23-2.19Z"/>
    <path class="cls-10" d="M840.21,951.17c.23-.37,3.91,2.42,6.75,7.86,18,22.14,19.73,51.78,12.89,74.11,1.8,3.69,2.89,7.68,3.21,11.77,1.58,16.52-8.1,20.75-16.1,21.35-.1.3-.18.61-.23.93-.26,2.05.26,4.12,1.44,5.82,1.48,1.95,3.83,3.05,6.28,2.93,2.46.04,4.79-1.12,6.23-3.12,1.11-1.74,1.55-3.82,1.26-5.86-.44-1.95-1.25-3.79-2.37-5.44,0-.28,2.88.84,4.05,5.12.65,2.51.26,5.17-1.07,7.4-3.12,4.53-9.32,5.67-13.85,2.56-.92-.63-1.73-1.42-2.39-2.32-1.39-2.18-1.84-4.83-1.26-7.35v-.56c-1.19.1-2.39.1-3.58,0l.42,71.37c4.56,9.91,14.15,16.54,25.03,17.31,10.91.06,19.95-8.46,20.52-19.35v-1.3c.72.79,1.5,1.52,2.33,2.19,4.45,3.79,9.96,6.11,15.77,6.65,3.53.39,7.11.07,10.51-.93,10.19-3.22,17.72-11.88,19.49-22.42,8.75,0,19.63-.98,22.66-9.3,2.51-6.84-2.65-14.28-8.79-18.24-2.99-1.77-6.1-3.32-9.3-4.65-5.05-.74-9.7-3.18-13.17-6.93-4.74-4.99-7.64-11.43-8.23-18.28-.18-2.36-.05-4.74.37-7.07-.06-8.71.62-17.41,2.05-26.01,2.83-17.34,1.98-35.08-2.51-52.06-.82-2.62-1.8-5.18-2.93-7.68-4-4.65-7.68-7.86-10.47-10.47-2.11-1.74-4.1-3.62-5.95-5.63.63.33,1.22.72,1.77,1.16,1.16.84,2.79,2.09,4.65,3.77,1.86,1.67,4.93,4.19,7.91,7.07-5.88-12.02-15.91-21.51-28.24-26.7-16.05-6.19-36.57-1.54-46.06,12.75.29.22.55.47.79.74.19-.7,0-1.07.14-1.16Z"/>
    <path class="cls-10" d="M725.48,951.54c14.77-8.41,31.43-12.97,48.43-13.26,9.79.02,19.56,1.1,29.12,3.21,25.77,5.44,38.89,19.87,38.89,60.76v21.73c7.36-1.15,14.62,2.62,17.91,9.3,6.84-22.33,5.12-51.97-12.89-74.11,1.08,2,1.9,4.13,2.47,6.33,1.88,5.54,1.53,11.6-.98,16.89.09-5.46-.36-10.91-1.35-16.28-1.43-4.98-3.66-9.7-6.61-13.96-.24-.27-.51-.52-.79-.74l-.37-.37c-.74,1.02-1.26,1.63-1.44,1.54s0-.93.6-2.23c-12.28-10.75-29.68-18.61-53.46-21.35-20.42-2.28-35.08.23-45.64,5.12,2.19-.7,4.51-.92,6.79-.65,0,.42-4.14.88-10.33,3.4-1.86.77-3.68,1.64-5.44,2.61-8.31,6.4-14.16,15.47-16.56,25.68,2.18-5.74,6.29-10.55,11.63-13.58Z"/>
    <path class="cls-5" d="M756.66,1132.43c17.36-.46,34.2-5.97,48.48-15.86,0,0-11.4,27.22-47.87,25.03l-.37-5.44c.28,7.26.93,24.05,1.3,36.33,1.86.37,5.86,1.35,11.4,2.42,20.27,4,41.14,4,61.41,0,5.4-1.07,9.3-2,11.26-2.37v-34.99l-.65-71.27c-1.6-.03-3.18-.38-4.65-1.02v-21.77c-20.8-9.3-48.8-47.55-48.8-47.55l6.28,17.26c-16.93,3.02-34.27-2.36-46.52-14.42l5.82,8.37c-24.8-2.7-35.31-12.75-39.41-22.94-.98,26.94-2.65,79.6-1.49,106.68,1.26,29.17,27.22,38.2,38.57,40.75,1.72.4,3.46.71,5.21.93l.05-.14ZM778.99,1030.08c0-2.57,2.08-4.65,4.65-4.65s4.65,2.08,4.65,4.65-2.08,4.65-4.65,4.65c-2.48,0-4.53-1.94-4.65-4.42v-.23ZM774.1,1022.96c4.19-3.48,10.18-3.74,14.65-.65,1.63,1.16,2.23,2.33,1.95,2.61s-4.23-1.91-9.3-1.67-8.51,3.16-9.07,2.51.23-1.35,1.77-2.56v-.23ZM761.73,1083.44c.63-3.21,2.81-5.91,5.82-7.21,1.61-.66,3.38-.79,5.07-.37.88-2.47,1.12-4.37,1.58-4.33s.98,1.35.79,3.81c-.02.53-.09,1.07-.23,1.58,1.6,1.1,2.46,3,2.23,4.93-.66,2.43-2.68,4.25-5.16,4.65-1.78.32-3.61.32-5.4,0-1.35.52-2.79.8-4.23.84-2.47,0-3.86-.7-3.77-1.07s1.63-.51,3.81-1.12c-.46-.38-.69-.98-.6-1.58l.09-.14ZM729.16,1033.61c-2.57,0-4.65-2.08-4.65-4.65s2.08-4.65,4.65-4.65,4.65,2.08,4.65,4.65-2.08,4.65-4.65,4.65ZM735.16,1024.4c-.51.65-4.23-1.95-9.3-1.67s-8.51,3.12-9.07,2.51,0-1.49,1.72-2.84c4.19-3.48,10.18-3.74,14.65-.65,1.67.98,2.28,2.14,2,2.65ZM748.37,1069.76c-1-.19-1.86-.82-2.33-1.72-.61-1.76-.61-3.68,0-5.44.74-3.49,1.58-7.12,2.42-10.93,1.79-9.48,4.31-18.82,7.54-27.91-1.12,9.55-2.94,19-5.44,28.29-.88,3.81-1.77,7.44-2.61,10.89-.51,1.33-.64,2.78-.37,4.19.33.88,1.54.98,2.84.98,2.75-.23,5.53-.08,8.23.47-2.67.71-5.42,1.07-8.19,1.07-.7.07-1.4.05-2.09-.05v.19Z"/>
    <path class="cls-10" d="M729.21,1024.4c-2.57,0-4.65,2.08-4.65,4.65s2.08,4.65,4.65,4.65,4.65-2.08,4.65-4.65-2.08-4.65-4.65-4.65Z"/>
    <path class="cls-10" d="M733.21,1021.56c-4.48-3.09-10.47-2.83-14.65.65-1.54,1.35-2.05,2.51-1.72,2.84s4.05-2.33,9.07-2.51,8.75,2.33,9.3,1.67-.37-1.49-2-2.65Z"/>
    <path class="cls-10" d="M788.34,1030.49c0-2.57-2.08-4.65-4.65-4.65s-4.65,2.08-4.65,4.65,2.08,4.65,4.65,4.65,4.65-2.08,4.65-4.65Z"/>
    <path class="cls-10" d="M781.45,1023.47c5.02-.23,8.75,2.37,9.3,1.67s-.33-1.44-1.95-2.61c-4.48-3.09-10.47-2.83-14.65.65-1.54,1.3-2.05,2.51-1.72,2.79s4-2.33,9.03-2.51Z"/>
    <path class="cls-10" d="M750.51,1068.04c-1.3,0-2.51,0-2.84-.98-.27-1.4-.14-2.85.37-4.19.84-3.44,1.72-7.07,2.61-10.89,2.5-9.28,4.32-18.74,5.44-28.29-3.23,9.1-5.75,18.43-7.54,27.91-.84,3.81-1.67,7.44-2.42,10.93-.61,1.76-.61,3.68,0,5.44.47.9,1.33,1.54,2.33,1.72.73.09,1.46.09,2.19,0,2.76,0,5.52-.36,8.19-1.07-2.73-.6-5.54-.8-8.33-.6Z"/>
    <path class="cls-2" d="M805.13,1116.56c-14.27,9.89-31.12,15.4-48.48,15.86h0l.23,3.63.37,5.44c36.47,2.28,47.87-24.94,47.87-24.94Z"/>
    <path class="cls-2" d="M768.66,1081.86c1.67-1.63,2.96-3.62,3.77-5.82-1.69-.41-3.46-.28-5.07.37-3.01,1.3-5.18,4-5.82,7.21h0c-.09.6.14,1.2.6,1.58,2.41-.58,4.64-1.73,6.51-3.35Z"/>
    <path class="cls-2" d="M766.42,1086.79c1.78.32,3.61.32,5.4,0,2.48-.4,4.5-2.22,5.16-4.65.22-1.93-.63-3.83-2.23-4.93-.56,2.63-1.91,5.03-3.86,6.89-1.31,1.17-2.82,2.09-4.47,2.7Z"/>
    <path class="cls-10" d="M762.24,1085.44c-2.19.6-3.81.7-3.81,1.12s1.3,1.12,3.77,1.07c1.45-.04,2.88-.32,4.23-.84,1.72-.62,3.3-1.57,4.65-2.79,1.95-1.85,3.3-4.25,3.86-6.89.14-.52.22-1.05.23-1.58,0-2.47-.42-3.86-.79-3.81s-.7,1.86-1.58,4.33c-1.66,4.66-5.56,8.16-10.37,9.3l-.19.09Z"/>
    <path class="cls-5" d="M845.19,1066.27c1.12-3.81,3.72-4.93,3.72-4.65s-1.35,1.67-1.95,4.65c8-.6,17.68-4.65,16.1-21.35-.32-4.09-1.41-8.08-3.21-11.77-3.29-6.69-10.55-10.46-17.91-9.3v21.12c-1.61-.39-3.16-.96-4.65-1.67,0,10.42-.23,21.35,0,21.77,1.47.65,3.05.99,4.65,1.02,1.08.14,2.17.2,3.26.19ZM845.19,1033.38c.71-.65,1.64-1,2.61-.98,2.33.23,4.37,1.66,5.4,3.77,1.4,2.26,2.23,4.83,2.42,7.49.78,4.98-1.52,9.93-5.82,12.56-1.51.66-3.25.54-4.65-.33-.88-.56-1.12-1.16-1.02-1.26s.51.33,1.35.6c1.19.36,2.47.26,3.58-.28,3.46-2.6,5.24-6.88,4.65-11.17-.16-2.36-.86-4.65-2.05-6.7-.67-1.7-2.13-2.97-3.91-3.4-1.17-.18-2.31.51-2.7,1.63-.28.79,0,1.3,0,1.4s-.65-.42-.51-1.58c.13-.54.4-1.04.79-1.44l-.14-.33Z"/>
    <path class="cls-2" d="M844.96,1036.87v-1.4c.34-1.22,1.55-1.98,2.79-1.77,1.79.4,3.27,1.65,3.95,3.35,1.19,2.04,1.89,4.34,2.05,6.7.59,4.29-1.19,8.56-4.65,11.17-1.12.54-2.4.64-3.58.28-.84-.28-1.21-.7-1.35-.6s0,.7,1.02,1.26c1.4.87,3.14.99,4.65.33,4.3-2.63,6.59-7.58,5.82-12.56-.19-2.66-1.02-5.23-2.42-7.49-1.02-2.11-3.07-3.53-5.4-3.77-.96-.02-1.9.33-2.61.98-.48.49-.8,1.13-.88,1.81-.05,1.3.56,1.77.6,1.72Z"/>
    <path class="cls-10" d="M753.77,1007.09l-5.82-8.37c12.25,12.07,29.59,17.44,46.52,14.42l-6.28-17.26s27.91,38.38,48.8,47.55c1.49.72,3.05,1.28,4.65,1.67v-42.85c0-40.89-13.12-55.32-38.89-60.76-9.56-2.11-19.33-3.19-29.12-3.21-17,.28-33.66,4.84-48.43,13.26-5.33,3.03-9.44,7.81-11.63,13.54-1.6,4.1-2.05,8.55-1.3,12.89.39,2.12,1,4.19,1.81,6.19,4.37,10.19,14.89,20.24,39.68,22.94Z"/>
    <path class="cls-10" d="M837.88,952.52s.7-.51,1.44-1.54c3.42-5.15,7.48-9.84,12.1-13.96,5.41-4.12,11.14-7.83,17.12-11.07-7.02,1.11-13.52,4.36-18.61,9.3-4.85,4.07-8.73,9.17-11.35,14.93-.65,1.4-.84,2.28-.7,2.33Z"/>
    <path class="cls-10" d="M906.09,958.24c-2.05-1.67-3.68-2.93-4.65-3.77-.55-.45-1.14-.84-1.77-1.16,1.86,2.01,3.85,3.89,5.95,5.63,2.79,2.61,6.47,6.05,10.47,10.47,1.58,1.77,3.21,3.63,4.65,5.68,7,8.45,11.8,18.5,13.96,29.26,1.18,6.3,1.09,12.77-.28,19.03-.78,3.24-1.97,6.36-3.54,9.3-1.58,3.02-3.58,5.95-5.49,9.03-2.04,3.03-3.71,6.29-4.98,9.72-.43,1.18-.76,2.39-.98,3.63-.42,2.33-.55,4.71-.37,7.07.6,6.85,3.5,13.3,8.23,18.28,3.47,3.75,8.11,6.19,13.17,6.93,1.14.12,2.3.12,3.44,0,5.61-.1,10.73-3.21,13.4-8.14,2.23-4.04,2.23-8.94,0-12.98-1.89-2.87-4.96-4.74-8.37-5.12-2.1-.29-4.23.11-6.09,1.12-.65.34-1.22.82-1.67,1.4,2.26-1.45,4.98-2.01,7.63-1.58,3.05.46,5.74,2.25,7.35,4.88,1.88,3.62,1.79,7.95-.23,11.49-2.48,4.26-7.03,6.9-11.96,6.93-5.71.12-11.18-2.3-14.93-6.61-4.3-4.64-6.92-10.59-7.44-16.89-.32-6.75,1.7-13.41,5.72-18.84,1.91-3.02,3.91-6,5.58-9.3,1.67-3.15,2.9-6.52,3.68-10,1.37-6.57,1.37-13.35,0-19.91-2.25-11.07-7.3-21.38-14.65-29.96-2.54-3.04-5.24-5.95-8.09-8.7-2.79-2.7-5.58-5.07-7.72-6.89Z"/>
    <path class="cls-4" d="M840.21,951.17s0,.47.28.93c2.95,4.26,5.18,8.98,6.61,13.96.99,5.37,1.44,10.82,1.35,16.28,2.51-5.29,2.86-11.35.98-16.89-.56-2.2-1.39-4.33-2.47-6.33-2.84-5.54-6.51-8.33-6.75-7.96Z"/>
    <path class="cls-4" d="M845.19,1066.27v.56c-.59,2.52-.13,5.17,1.26,7.35,3.25,4.44,9.48,5.4,13.91,2.16.9-.66,1.69-1.47,2.32-2.39,1.33-2.22,1.72-4.89,1.07-7.4-1.16-4.28-4.05-5.4-4.05-5.12,1.13,1.65,1.93,3.5,2.37,5.44.3,2.04-.15,4.12-1.26,5.86-1.44,2-3.77,3.16-6.23,3.12-2.45.12-4.8-.98-6.28-2.93-1.19-1.69-1.7-3.77-1.44-5.82.05-.32.13-.63.23-.93.6-2.93,2.23-4.33,1.95-4.65s-2.74,1.02-3.86,4.75Z"/>
    <path class="cls-10" d="M746.19,933.4c-2.28-.27-4.6-.05-6.79.65-1.4.32-2.78.7-4.14,1.16-17.59,5.98-29.94,21.86-31.4,40.38-.51,3.7-.17,7.47.98,11.03.42,0,0-4.23.74-10.84,1.94-15.42,11.19-28.96,24.84-36.38,1.77-.96,3.58-1.83,5.44-2.61,6.19-2.51,10.37-2.98,10.33-3.4Z"/>
    <path class="cls-4" d="M429.41,1719.5c6.79-46.52,56.9-76.72,104.07-78.81,47.17-2.09,92.53,16.14,137.38,30.89s94.07,26.1,138.64,10.47c56.34-19.82,89.6-76.58,134.92-115.52,70.28-58.95,167.09-74.91,252.57-41.64v236.94H422.53l6.89-42.34Z"/>
    <rect class="cls-10" x="695.99" y="1599.47" width="258.76" height="13.72"/>
    <rect class="cls-10" x="610.2" y="1631.76" width="430.34" height="13.72"/>
    <path class="cls-4" d="M422.53,738.84c40.66,51.18,123.01,87.14,188.23,91.6,43.5,3.02,86.81-6.05,130.26-10.05,43.45-4,89.56-2.28,127.05,19.91,46.1,27.31,70.67,80.21,111.66,114.96,60.06,51.18,155.81,54.48,219.22,7.54v-231.5l-776.42,7.54ZM657,817.37h-75.55c-8.39.46-15.57-5.96-16.03-14.35s5.96-15.57,14.35-16.03c.56-.03,1.12-.03,1.68,0h75.55c8.39.46,14.81,7.64,14.35,16.03-.43,7.74-6.61,13.92-14.35,14.35ZM816.25,817.37c-11.25,0-20.38-9.12-20.38-20.38,0-11.25,9.12-20.38,20.38-20.38,11.25,0,20.38,9.12,20.38,20.38,0,11.25-9.12,20.38-20.38,20.38-.03,0-.06,0-.09,0h.09ZM1050.49,817.37h-75.6c-8.39-.46-14.81-7.64-14.35-16.03.43-7.74,6.61-13.92,14.35-14.35h75.51c8.39.46,14.81,7.64,14.35,16.03-.43,7.74-6.61,13.92-14.35,14.35h.09Z"/>
    <path class="cls-9" d="M422.53,738.84c40.66,51.18,123.01,87.14,188.23,91.6,43.5,3.02,86.81-6.05,130.26-10.05,43.45-4,89.56-2.28,127.05,19.91,46.1,27.31,70.67,80.21,111.66,114.96,60.06,51.18,155.81,54.48,219.22,7.54v-231.5l-776.42,7.54ZM657,817.37h-75.55c-8.39.46-15.57-5.96-16.03-14.35s5.96-15.57,14.35-16.03c.56-.03,1.12-.03,1.68,0h75.55c8.39.46,14.81,7.64,14.35,16.03-.43,7.74-6.61,13.92-14.35,14.35ZM816.25,817.37c-11.25,0-20.38-9.12-20.38-20.38,0-11.25,9.12-20.38,20.38-20.38,11.25,0,20.38,9.12,20.38,20.38,0,11.25-9.12,20.38-20.38,20.38-.03,0-.06,0-.09,0h.09ZM1050.49,817.37h-75.6c-8.39-.46-14.81-7.64-14.35-16.03.43-7.74,6.61-13.92,14.35-14.35h75.51c8.39.46,14.81,7.64,14.35,16.03-.43,7.74-6.61,13.92-14.35,14.35h.09Z"/>
    <path class="cls-10" d="M846.96,626.91h-61.6c-26.88-.01-48.65-21.81-48.64-48.68.01-26.86,21.78-48.63,48.64-48.64h61.6c26.88.01,48.65,21.81,48.64,48.68-.01,26.86-21.78,48.63-48.64,48.64ZM785.36,548.19c-16.6,0-30.05,13.47-30.04,30.07,0,16.58,13.45,30.03,30.04,30.04h61.6c16.6,0,30.05-13.47,30.04-30.07,0-16.58-13.45-30.03-30.04-30.04h-61.6Z"/>
    <path class="cls-3" d="M799.97,636.77s-7.21,45.27-10.33,55.18-18.24,50.48-13.54,74.9c4.7,24.42,17.4,37.78,41.5,35.26l.56-13.96s-25.4,0-26.47-20.28,4.65-53.08,16.66-64.53c3.46-3.49,8.12-5.54,13.03-5.72v-60.85h-21.4Z"/>
    <path class="cls-3" d="M802.62,674.78h-23.59c-9.04-.03-16.4,7.29-16.42,16.33,0,.02,0,.03,0,.05h0c0,9.04,7.33,16.38,16.38,16.38.02,0,.03,0,.05,0h17.96l5.63-32.75Z"/>
    <polygon class="cls-10" points="792.01 603.97 792.01 631.51 797.55 631.51 797.55 641.79 834.58 641.79 834.58 632.95 840.3 632.95 840.3 603.97 792.01 603.97"/>
    <rect class="cls-10" x="799.27" y="593.92" width="32.47" height="16.47"/>
    <path class="cls-4" d="M773.31,562.05l-6.42-222.75s-1.95-65.13.33-117.42c1.44-33.4,5.44-57.41,22.05-79.65,18.61-25.03,107.79-114.63,107.79-114.63,0,0-31.82,68.62-32.57,107.84-.84,47.87.6,78.16,2.09,136.45.93,35.73,4.42,77.23,5.49,103.05,1.44,33.96,4.37,112.17,4.37,112.17v74.95h-103.14Z"/>
  </g>
</svg>
