<?xml version="1.0" encoding="UTF-8"?>
<svg id="Layer_1" data-name="Layer 1" xmlns="http://www.w3.org/2000/svg" viewBox="0 0 1944.58 1894">
  <defs>
    <style>
      .cls-1 {
        fill: #ff9a6c;
      }

      .cls-1, .cls-2, .cls-3, .cls-4, .cls-5, .cls-6, .cls-7, .cls-8, .cls-9, .cls-10, .cls-11, .cls-12 {
        stroke-width: 0px;
      }

      .cls-2 {
        fill: #000;
      }

      .cls-3 {
        fill: #e0e0e0;
      }

      .cls-4 {
        fill: #455a64;
      }

      .cls-5 {
        fill: #f5f5f5;
      }

      .cls-6 {
        fill: #09f;
      }

      .cls-7 {
        fill: #035;
      }

      .cls-8 {
        fill: #40bbff;
      }

      .cls-9 {
        fill: #e2323d;
      }

      .cls-10 {
        fill: #263238;
      }

      .cls-11 {
        fill: #ffbf9d;
      }

      .cls-13 {
        opacity: .3;
      }

      .cls-14 {
        opacity: .6;
      }

      .cls-12 {
        fill: #fff;
      }
    </style>
  </defs>
  <path class="cls-10" d="M353.42,320.27c2.32,2.79,5.23,5.01,8.53,6.52-2.56,2.64-6.04,4.2-9.72,4.36,9.92,23.1,36.79,35.16,61.9,35.2,25.11.04,49.18-9.59,72.46-19.06l67.62-17.87c5.91-1.38,8.34-8.62,8.23-14.72-.1-6.09-1.58-12.43.47-18.14,2.96-7.82,12.02-12,15.11-19.76,3.5-8.83-1.96-18.67-8.23-25.79-6.28-7.12-13.85-13.92-15.91-23.22-1.83-8.54,1.44-18.18-2.82-25.79-5.25-9.39-19.02-10.56-25.4-19.21-3-4.2-4.05-9.65-7.12-13.87-5.21-7.18-15.25-9.04-24.06-8.09-8.81.95-17.29,4.16-26.14,4.8-12.14.89-24.68-3.05-36.35.47-12.84,3.87-20.69,15.29-29.02,26.33l-2.68-5.62c-2.88-6.03-6.13-12.47-12.04-15.6-3.06-1.51,13.46,24.71,10.08,25.21-1.81,2.07.68.55-1.81,2.88-2.41,2.41-.6-1.52-1.38,1.79-.78,3.32,1.18-1.6-1.04,1.31-2,2.63.37-.46-1.64,1.96,0,2.07-3.69.16-.36.89-4.09,1.01,4.14.76,0,0-2.23,2.19-4.66,4.17-7.27,5.91-4.57,2.98-9.82,5.04-13.75,8.85-8.44,8.03-7.68,23.61,1.48,30.88-4.66,1.62-8.68,4.69-11.46,8.77-2.78,4.08-4.17,8.94-3.96,13.87.25,5.29,2.49,10.42,4.12,15.58,1.63,5.17,2.63,10.89.49,15.85-2.14,4.96-8.46,8.38-13.17,5.72.87,3.52,2.53,6.79,4.85,9.58Z"/>
  <path class="cls-3" d="M625.84,0h-17.8v79.69h17.8V0Z"/>
  <path class="cls-3" d="M577.1,30.95v17.8h79.69v-17.8h-79.69Z"/>
  <path class="cls-3" d="M1060.61,392.56h-27.26v122.19h27.26v-122.19Z"/>
  <path class="cls-3" d="M985.86,440.04v27.26h122.19v-27.26h-122.19Z"/>
  <path class="cls-3" d="M1387.5,36.81h-17.8v79.69h17.8V36.81Z"/>
  <path class="cls-3" d="M1338.71,67.71v17.8h79.69v-17.8h-79.69Z"/>
  <path class="cls-3" d="M1795.25,184.09h-27.26v122.2h27.26v-122.2Z"/>
  <path class="cls-3" d="M1720.5,231.53v27.26h122.2v-27.26h-122.2Z"/>
  <path class="cls-10" d="M1944.58,1808.82c0,.59-435.52,1.09-972.25,1.09s-972.33-.5-972.33-1.09,435.26-1.17,972.29-1.17,972.29.59,972.29,1.17Z"/>
  <path class="cls-12" d="M1346.29,327.68l-39.61,7.08c-19.9,22.47-47.48,36.69-77.33,39.85-29.85,3.17-59.8-4.95-83.97-22.74-24.17-17.8-40.81-43.99-46.65-73.43-5.84-29.44-.45-60,15.1-85.67,15.55-25.67,40.14-44.6,68.94-53.06,28.8-8.46,59.71-5.85,86.68,7.33,26.97,13.18,48.03,35.96,59.05,63.88,11.02,27.92,11.2,58.95.5,86.99l17.3,29.77Z"/>
  <path class="cls-10" d="M1346.29,327.68s-.46-.67-1.26-1.97l-3.4-5.74-13.02-21.9h.71c-.09.08-.2.12-.31.12s-.23-.04-.31-.12c-.06-.08-.09-.17-.09-.27s.03-.19.09-.27c6.91-18.43,9.19-38.27,6.66-57.79-.81-6.14-2.09-12.2-3.85-18.13-2.01-6.3-4.5-12.43-7.46-18.34-6.33-13.16-15.05-25.03-25.71-35.01-12.28-11.45-26.82-20.2-42.69-25.68-15.87-5.48-32.71-7.57-49.44-6.14-18.5,1.83-36.34,7.9-52.13,17.71-16.6,10.29-30.34,24.57-39.99,41.54-14.62,25.56-19.26,55.63-13.04,84.41,6.23,28.78,22.89,54.24,46.77,71.47,23.88,17.23,53.29,25.01,82.57,21.85,29.28-3.17,56.35-17.05,75.99-38.99h.25l29.31-4.9,7.67-1.26,2.68-.42-2.47.54-7.45,1.42-29.61,5.57h.29c-13.19,15.08-29.97,26.61-48.79,33.5-23.35,8.55-48.76,9.7-72.79,3.29-24.02-6.42-45.48-20.08-61.46-39.14-15.98-19.05-25.68-42.57-27.81-67.35-2.12-24.77,3.45-49.6,15.94-71.09l3.9-6.49c1.42-2.05,2.93-4.19,4.39-6.07,2.99-3.98,6.21-7.78,9.63-11.39,1.63-1.84,3.6-3.39,5.36-5.07,1.74-1.73,3.59-3.35,5.53-4.86,3.79-3.05,7.78-5.85,11.93-8.38,16.07-9.98,34.23-16.12,53.06-17.97,17.03-1.43,34.17.73,50.31,6.35,16.14,5.62,30.91,14.57,43.37,26.27,10.77,10.16,19.56,22.23,25.92,35.6,2.93,6.08,5.36,12.38,7.28,18.84,1.75,6.02,3.01,12.16,3.77,18.38,2.45,19.73-.04,39.76-7.24,58.29l-.75-.42c.09-.07.2-.11.31-.11s.22.04.31.11l12.56,22.49,3.23,5.69,1.26,1.8Z"/>
  <path class="cls-9" d="M1215.42,304.23l-58.88-39.36,13.74-20.52,39.49,26.38,49.08-64.99,19.73,14.91-63.15,83.59Z"/>
  <path class="cls-12" d="M664.87,316.09l19.72-38.82c-8.13-21.98-10.25-45.73-6.13-68.81,4.12-23.07,14.33-44.62,29.57-62.43,15.24-17.8,34.96-31.21,57.12-38.84,22.16-7.63,45.96-9.2,68.93-4.55,20.53,4.11,39.79,13.05,56.18,26.1,16.38,13.05,29.41,29.81,38.02,48.9,8.6,19.09,12.52,39.96,11.43,60.88-1.09,20.91-7.14,41.27-17.68,59.37-10.53,18.1-25.23,33.43-42.87,44.71-17.65,11.28-37.72,18.19-58.57,20.15-20.85,1.96-41.87-1.08-61.3-8.88-19.43-7.79-36.73-20.11-50.45-35.94l-43.97-1.84Z"/>
  <path class="cls-10" d="M664.87,316.09h2.93l8.37.25,32.5,1.09-.42.67c-.07-.11-.09-.23-.06-.35.03-.12.1-.23.21-.29.1-.07.23-.09.35-.06.12.03.23.1.3.21,14.44,16.45,32.74,29.04,53.27,36.64,6.35,2.38,12.9,4.25,19.55,5.57,7.15,1.34,14.39,2.15,21.65,2.43,18.11.71,36.17-2.37,53.03-9.04,16.86-6.67,32.14-16.78,44.87-29.68,12.73-12.91,22.62-28.33,29.06-45.27,6.43-16.95,9.26-35.05,8.3-53.15-.21-2.55-.21-5.15-.5-7.71-.29-2.55-.8-5.11-1.21-7.66l-.59-3.85c-.25-1.26-.63-2.51-.92-3.77l-1.97-7.62c-.67-2.51-1.76-4.94-2.6-7.41-.82-2.51-1.77-4.97-2.85-7.37-2.16-4.86-4.6-9.59-7.33-14.15-1.42-2.26-2.68-4.61-4.19-6.83l-4.73-6.41-2.43-2.97-2.64-2.93-5.27-5.9c-7.34-7.36-15.51-13.85-24.33-19.35-17.11-10.58-36.4-17.15-56.41-19.22-18.16-1.69-36.47.41-53.78,6.18-17.3,5.77-33.22,15.07-46.73,27.32-11.82,10.7-21.57,23.47-28.77,37.69-1.55,3.39-3.48,6.62-4.65,10.05l-3.69,10.09c-1.89,6.52-3.4,13.15-4.52,19.85-3.25,21.65-1,43.77,6.53,64.32.04.12.04.25,0,.38-6.49,12.56-11.47,22.03-14.87,28.6l-3.89,7.41c-.88,1.68-1.38,2.55-1.38,2.55l1.17-2.43c.84-1.76,2.05-4.19,3.64-7.41l14.49-29.31v.38c-7.8-20.66-10.24-42.97-7.07-64.82,1.09-6.78,2.57-13.49,4.44-20.1l3.73-10.22c1.35-3.49,2.89-6.9,4.61-10.22,7.25-14.42,17.09-27.4,29.02-38.28,25.44-23.06,58.8-35.42,93.13-34.49,34.33.93,66.97,15.07,91.13,39.47l5.36,5.99,2.72,2.97,2.39,3.22,4.44,6.57c1.51,2.22,2.85,4.61,4.19,6.95,2.79,4.5,5.29,9.17,7.49,13.99,1.26,2.39,1.93,5.03,2.93,7.5,1,2.47,1.97,4.98,2.64,7.54l1.97,7.75c.3,1.26.71,2.55.96,3.85l.59,3.89c.42,2.6.79,5.19,1.21,7.79.42,2.6.33,5.23.5,7.83.95,18.35-1.93,36.7-8.47,53.87-6.54,17.17-16.58,32.8-29.5,45.87-12.91,13.07-28.41,23.31-45.5,30.06-17.09,6.75-35.4,9.86-53.76,9.14-7.35-.28-14.68-1.13-21.9-2.55-28.48-5.82-54.21-20.93-73.16-42.97l.75-.5c.07.09.11.2.11.31s-.04.22-.11.31h-.25l-32.79-1.72-8.37-.46-2.93-.08Z"/>
  <path class="cls-10" d="M1519.28,1752.03v4.77s-80.11,33.04-80.82,48.33l159.63-2.35-2.93-53.1c-11.74,5.81-24.59,9.03-37.69,9.44-13.09.4-26.12-2.01-38.2-7.09Z"/>
  <path class="cls-4" d="M1598.13,1802.79l-.71-12.56-152.72,6.91s-7.07,3.18-6.2,8.38l159.63-2.72Z"/>
  <path class="cls-12" d="M1518.78,1757.39c0,.75,3.94,1.05,7.79,3.52,3.85,2.47,5.95,5.7,6.66,5.36.72-.33-.5-4.81-5.23-7.66-4.73-2.85-9.42-2.05-9.21-1.22Z"/>
  <path class="cls-12" d="M1502.11,1764.42c0,.75,3.22,2.01,5.95,5.28,2.72,3.27,3.48,6.74,4.19,6.7.71-.04,1.21-4.48-2.22-8.38-3.43-3.9-7.91-4.36-7.91-3.61Z"/>
  <path class="cls-12" d="M1492.9,1784.62c.71,0,1.76-3.77-.33-8-2.1-4.23-5.74-5.91-6.03-5.24-.29.67,1.97,2.89,3.6,6.41,1.63,3.52,2.01,6.74,2.77,6.83Z"/>
  <path class="cls-10" d="M1633.44,1703.91l-67.97,19.01,16.96,38.53-17.63,97.53c-.49,2.68.03,5.44,1.45,7.75,1.42,2.32,3.65,4.03,6.25,4.81,2.02.57,4.17.56,6.19-.02,2.02-.58,3.84-1.72,5.24-3.29,14.99-16.75,69.85-78.98,68.55-86.56l-2.18-20.27c-.46-4.19-4.52-14.2-4.52-15.12l-12.35-42.38Z"/>
  <path class="cls-4" d="M1574.52,1872.05l77.34-97.32.38,4.44c.28,1.82.14,3.68-.41,5.44-.54,1.76-1.48,3.38-2.73,4.73-6.07,9.8-23.33,32.03-64.87,79.02-1.21,1.35-2.72,2.39-4.41,3.03-1.69.64-3.51.87-5.3.66Z"/>
  <path class="cls-12" d="M1594.91,1824.06c-2.89-3.05-6.35-5.53-10.17-7.28-4.08-1.16-8.34-1.56-12.56-1.17,0-.25,1.17-1.21,3.68-1.76,3.26-.67,6.64-.41,9.76.75,3.11,1.13,5.83,3.14,7.83,5.78,1.38,2.01,1.72,3.56,1.47,3.68Z"/>
  <path class="cls-12" d="M1588.51,1838.76c-3.24-1.41-6.55-2.63-9.93-3.64-3.52-.31-7.06-.42-10.59-.33,1.57-1.16,3.4-1.94,5.32-2.28,1.93-.33,3.9-.21,5.78.35,6.49,1.26,9.97,5.57,9.42,5.91Z"/>
  <path class="cls-12" d="M1607.51,1804.76c-4.81-2.56-9.81-4.76-14.95-6.58-5.37-1.11-10.82-1.84-16.29-2.18,5.42-1.91,11.33-1.91,16.75,0,5.72,1.1,10.85,4.21,14.49,8.75Z"/>
  <path class="cls-4" d="M1581.63,1748.22c.68,4.33.94,8.72.8,13.11-.84,5.65-2.05,12.9-3.39,20.73-1.63,9.26-3.23,17.63-4.48,23.7-.47,3.31-1.29,6.57-2.43,9.72.01-3.35.36-6.69,1.05-9.96.88-6.11,2.22-14.53,3.85-23.83,1.38-7.83,2.72-15.04,3.85-20.6-.1-4.3.16-8.6.75-12.85Z"/>
  <path class="cls-10" d="M1678.33,1120.37c5.36-25.84,18.93-72.57,13.61-94.1-12.56-49.87-34.13-78.73-63.82-142.04h-22.07l-211.81-3.69-17.34,38.44c-19.26,51.8-32.41,82.71-37.69,120.6-6.24,43.64,4.69,106.87,28.98,170.73,52.35,137.82,81.58,248.03,83.75,277.73,2.18,29.69,5.15,60.34,32.71,154.36,20.06,68.64,34.92,109.63,34.92,109.63,20.94,11.81,43.01,14.99,63.15,3.52l61.48-23.7s-18.85-161.85-40.83-204.82c-15.83-30.9-41.87-45.56-29.65-85.85,12.23-40.29,88.19-241.46,104.61-320.82Z"/>
  <path class="cls-4" d="M1430.42,989.67c.31.34.59.7.84,1.09l2.35,3.22,8.96,12.77,33.5,48.28v.42c-1.63,18.09-2.26,39.07-3.39,62.48-1.13,23.41-2.35,49.12-3.64,76.76-1.3,27.64-3.01,57.2-4.6,88.15-1.59,30.95-3.43,63.36-6.53,96.65-3.22,27.68-6.07,54.9-3.73,81.03.63,6.53,1.42,12.98,2.64,19.31,1.07,6.26,2.61,12.43,4.61,18.47,4.18,11.73,9.46,23.12,14.28,34.17,19.56,44.27,37.69,83.75,53.1,117.05l36.52,78.56,9.84,21.44c1.05,2.39,1.89,4.19,2.51,5.57.63,1.38.8,1.93.8,1.93,0,0-.38-.59-1.01-1.84l-2.68-5.49c-2.39-4.94-5.78-12.1-10.17-21.23l-36.89-78.43c-15.41-33.17-33.88-72.66-53.52-116.88-4.86-11.1-9.97-22.32-14.45-34.3-2.01-6.11-3.57-12.37-4.65-18.72-1.26-6.41-2.1-12.9-2.72-19.47-2.39-26.42.46-53.81,3.68-81.49,3.1-33.12,4.69-65.58,6.58-96.32,1.88-30.74,3.31-60.51,4.77-88.15,1.47-27.64,2.72-53.39,3.94-76.76,1.22-23.37,1.97-44.39,3.73-62.48v.37c-14.16-20.94-25.38-37.31-33.12-48.62l-8.71-12.94-2.18-3.35c-.26-.4-.47-.82-.63-1.26Z"/>
  <path class="cls-5" d="M1458.64,537.2l13.02-32.88,77.51-4.18,31.66,4.18,3.48,9.13,21.48,380.15s-75.08,15.16-112.61,9.88c-37.52-5.27-81.7-22.4-81.7-22.4v-216.21l47.15-127.68Z"/>
  <path class="cls-10" d="M1575.31,552.65s0,.25-.54.67l-1.68,1.89c-1.46,1.63-3.68,4.19-6.62,6.87-7.99,7.93-16.47,15.35-25.38,22.23l-.38.3-.29-.38c-8.39-9.19-16.16-18.91-23.28-29.11-.79-1.13-1.55-2.3-2.3-3.35h.96c-6.66,8.92-12.94,17.38-18.64,25.12-.74.99-1.61,1.86-2.6,2.6-.5.4-1.08.69-1.7.87-.62.17-1.27.22-1.91.14-1.19-.26-2.27-.87-3.1-1.76-.84-.84-1.47-1.72-2.14-2.51l-7.37-9.21-10.55-13.36-2.8-3.64c-.34-.41-.65-.84-.92-1.3l1.09,1.17,2.97,3.52,10.85,13.11,7.46,9.13c1.34,1.59,2.68,3.52,4.69,3.85,2.01.33,3.81-1.42,5.2-3.22l18.55-25.13.46-.67.46.67,2.26,3.31c7.11,10.16,14.83,19.88,23.12,29.1h-.71c8.93-6.78,17.47-14.07,25.59-21.81,2.97-2.85,5.23-5.11,6.83-6.66l1.8-1.76c.18-.25.39-.47.63-.67Z"/>
  <g class="cls-13">
    <path class="cls-2" d="M1486.74,576.77s9.84,12.1,12.56,9.04c2.72-3.06,17.34-25.59,19.05-26.5,1.72-.92,19.35,30.65,26.26,28.47,6.91-2.17,31.53-26.84,31.53-26.84l.46-9.67-35.85,32.62-25.42-32.54-21.44,27.85s-4.52,3.69-7.16-2.43Z"/>
  </g>
  <path class="cls-10" d="M1503.24,905.8c-.1-1.19-.1-2.38,0-3.56,0-2.51,0-5.95.33-10.22.38-9.05.88-21.82,1.51-37.69,1.34-31.7,3.14-75.38,4.81-123.83,1.68-48.45,2.89-92.13,3.77-123.87.42-15.7.8-28.48,1.05-37.69.17-4.27.29-7.67.37-10.18,0-1.19.1-2.38.3-3.56.1,1.18.1,2.38,0,3.56v10.22c0,9.09-.21,21.86-.38,37.69-.46,31.7-1.47,75.38-3.1,123.91-1.63,48.54-3.73,92.13-5.44,123.83-.92,15.66-1.67,28.43-2.22,37.69-.3,4.18-.54,7.66-.75,10.22,0,1.16-.09,2.32-.25,3.48Z"/>
  <g class="cls-13">
    <path class="cls-2" d="M1434.94,752.35l-40.7,267.22,3.14,28.94c3.56,4.19,10.72,2.72,14.32-1.3,3.26-4.36,5.2-9.56,5.61-14.99,15.62-92.42,24-186.4,17.63-279.86Z"/>
  </g>
  <path class="cls-8" d="M1377.65,538.2c-7.47,2.41-14.25,6.59-19.75,12.19-5.5,5.6-9.56,12.45-11.83,19.97l-48.49,171.06,39.78,117.25,41.54-70.69,29.32-255.82-30.57,6.03Z"/>
  <path class="cls-8" d="M1433.68,527.23l-46.06,9-12.9,244.52c0,3.01,3.01,50.25,3.01,50.25l-79.56,177.64c17.75,31.66,65.75,46.52,99.58,54.44,0,0,34.26-242.88,36.47-296.4,2.22-53.52,36.6-261.6,36.6-261.6l-37.15,22.15Z"/>
  <path class="cls-10" d="M1308.14,988.5l.3-.8,1-2.35,3.85-8.96c3.39-7.83,8.37-19.14,14.49-33.25l49.58-112.56v.25c-.38-12.1-.84-24.67-1.42-37.69-1.34-28.94-2.93-56.54-3.98-81.62-1.05-25.09-1.72-47.74-1.93-66.75-.21-19.01,0-34.38,0-44.97,0-5.28.21-9.38.29-12.23v-4.27,16.5c0,10.59,0,26,.3,44.97.29,18.97,1,41.58,2.18,66.71,1.17,25.12,2.59,52.68,4.18,81.62.59,12.85,1.05,25.46,1.38,37.69v.25l-49.92,112.44c-6.28,14.03-11.31,25.12-14.83,33.08-1.72,3.85-3.1,6.83-4.19,8.88-.46,1-.79,1.76-1.09,2.3-.04.26-.11.51-.21.75Z"/>
  <path class="cls-10" d="M1432.05,740.13s0-.21-.21-.59l-.42-1.72c-.38-1.59-.88-3.77-1.51-6.57-1.21-5.74-2.89-14.07-4.48-24.5-1.59-10.43-3.1-22.78-4.18-36.64-1.09-13.86-2.18-29.06-2.93-45.06-.25-5.99-.54-11.85-.8-17.59l-.38-8.37v-8.5s.51-.21.59,0c.09.21.29,0,.42.33h-.8l12.31-8.63v.92l-13.48-6.74h-.38v-.38c2.01-7.58,4.44-14.36,6.53-20.31,2.09-5.95,4.18-11.14,5.74-15.37,1.55-4.23,2.97-7.49,3.89-9.76.46-1.05.84-1.88,1.09-2.55.25-.67.42-.84.42-.84-.06.32-.16.63-.3.92l-.92,2.6c-.88,2.35-2.09,5.65-3.68,9.84-1.59,4.19-3.43,9.42-5.49,15.41-2.05,5.99-4.39,12.57-6.36,20.31l-.25-.54,13.4,6.16.84.37-.75.54-12.27,8.63h-.79s.42-.3.38-.3c.03.02.07.03.11.03.04,0,.07,0,.11-.03h.21v3.6l.21,4.19c0,2.77.25,5.61.38,8.37.25,5.74.54,11.6.8,17.59.75,16,1.67,31.2,2.85,45.02,1.17,13.82,2.59,26.26,4.19,36.64,1.59,10.38,3.06,18.72,4.18,24.49.54,2.81,1.01,5.03,1.3,6.62,0,.71.25,1.3.33,1.72.09.42.13.67.13.67Z"/>
  <path class="cls-8" d="M1660.15,853.16l29.31-295.86-82.37-30.19s-19.31-17.76-29.57-26.93l-3.64,46.4s-11.14,189.91,6.41,285.56c17.55,95.65,15.08,92.38,27.89,154.61,9.34,45.27,10.89,84.8,25.12,88.78,14.24,3.98,85.26-22.02,85.26-22.02l-58.42-200.34Z"/>
  <path class="cls-8" d="M1689.43,557.3s32.24,12.27,37.1,53.77c3.56,30.65,22.4,205.74,2.68,227.56-23.59,25.36-49.39,48.57-77.09,69.35l-46.06-59.92,43.72-48.07,24.67-212.11,14.99-30.57Z"/>
  <path class="cls-10" d="M1598.01,729.95c-.02-.19-.02-.39,0-.59,0-.42,0-.96.3-1.63.31-1.51.72-3.6,1.26-6.28,1-5.44,2.51-13.36,3.89-23.2,2.93-19.68,5.44-47.03,6.87-77.34.33-7.15.67-14.13,1-20.94,0-3.39.3-6.7.46-9.97l.25-4.81v-3.52c.02-.18.02-.36,0-.54.11.04.23.04.33,0h.34-.75l-12.27-8.67-.71-.46.79-.38,13.4-6.16-.25.51c-1.18-5.4-2.08-10.85-2.72-16.33-.63-4.86-1.22-9-1.89-12.35-.67-3.35-1.38-5.95-1.89-7.7l-.67-1.97c0-.42-.21-.67,0-.67.11.2.21.41.3.63,0,.46.46,1.09.75,1.93.89,2.5,1.6,5.06,2.14,7.67.75,3.39,1.43,7.54,2.14,12.35.69,5.46,1.65,10.89,2.89,16.25v.33h-.34l-13.19,6.57v-.84l12.31,8.58h-.79c.12-.1.26-.18.42-.21.14-.04.28-.04.42,0v4.6c0,1.59,0,3.18-.21,4.81,0,3.27-.29,6.58-.42,9.97-.34,6.74-.63,13.74-.96,20.94-1.07,25.92-3.49,51.76-7.25,77.43-1.51,9.84-3.14,17.72-4.19,23.16-.63,2.64-1.09,4.73-1.46,6.24-.17.67-.3,1.21-.38,1.63.17.79.12.96.08.96Z"/>
  <path class="cls-10" d="M1711.45,807.05s-2.89-1.93-7.83-4.19c-2.91-1.41-5.94-2.57-9.05-3.47-3.82-1.06-7.73-1.76-11.68-2.1-3.95-.25-7.92-.14-11.85.33-3.21.42-6.38,1.12-9.47,2.1-5.27,1.63-8.37,3.35-8.37,3.14.63-.53,1.34-.96,2.09-1.3.83-.46,1.68-.86,2.56-1.22,1.14-.54,2.32-1.02,3.52-1.42,3.12-1.08,6.33-1.86,9.59-2.35,8.02-1.16,16.2-.55,23.95,1.8,3.13.97,6.18,2.21,9.09,3.73,1.13.58,2.22,1.22,3.27,1.93.82.48,1.62,1.01,2.38,1.59.65.4,1.26.88,1.8,1.42Z"/>
  <g class="cls-13">
    <path class="cls-2" d="M1607.14,530.91s14.86,34.67,12.56,37.69c-2.3,3.01-9.88,4.94-9.88,4.94,0,0,12.81,5.57,12.81,10.47,0,9.8-13.78,67.76-13.78,67.76l3.39-70.81-12.27-8.38,13.4-6.24-6.24-35.43Z"/>
  </g>
  <path class="cls-10" d="M1666.43,628.52c.11.81.11,1.63,0,2.43,0,1.8-.25,4.19-.42,6.91-.46,6.32-1.13,14.91-1.93,25.42-1.88,21.74-4.39,51.22-7.2,83.75-.96,10.14-1.84,19.98-2.72,29.32-.44,4.69-.95,9.25-1.51,13.69-.41,4.34-1.17,8.64-2.26,12.85l-31.95,33.21-9.05,9.05c-1.01,1.14-2.13,2.18-3.35,3.1.86-1.25,1.85-2.42,2.93-3.48l8.63-9.47,31.16-33.12v.33c.99-4.13,1.67-8.33,2.05-12.56.5-4.39.96-8.96,1.42-13.65.84-9.38,1.72-19.22,2.64-29.31,3.06-32.54,5.82-62.02,7.83-83.75,1.09-10.51,2.01-19.1,2.64-25.38.34-2.77.63-5.07.84-6.87-.02-.83.06-1.66.25-2.47Z"/>
  <path class="cls-6" d="M1306.3,710.73l-31.95,71.19-30.15-33.8-40.24,28.39,47.28,75.84c14.87,19.05,29.06,32.03,45.23,29.98,3.25-.45,6.45-1.22,9.55-2.3,22.2-7.58,37.48-22.49,43.26-45.23l18.3-91.75-61.27-32.33Z"/>
  <path class="cls-10" d="M1309.6,837.87c-.28-.99-.49-2-.63-3.01-.33-1.93-.92-4.73-1.72-8.17-.79-3.43-1.88-7.45-3.31-11.89-1.42-4.44-3.22-9.21-5.36-14.11-2.14-4.9-4.52-9.47-6.78-13.53-2.26-4.06-4.57-7.58-6.53-10.47-1.97-2.89-3.68-5.23-4.86-6.79-.65-.78-1.26-1.61-1.8-2.47.75.69,1.44,1.45,2.05,2.26,1.3,1.51,3.06,3.77,5.11,6.62,2.05,2.85,4.18,6.41,6.74,10.43,2.53,4.4,4.84,8.93,6.91,13.57,2.14,4.94,3.89,9.8,5.32,14.24,1.42,4.44,2.43,8.37,3.14,12.02.71,3.64,1.17,6.28,1.42,8.37.18.97.28,1.95.29,2.93Z"/>
  <path class="cls-10" d="M1485.78,257.33l-.25,1.09c.21-.21.21-.71.25-1.09Z"/>
  <path class="cls-11" d="M1579.5,513.95l14.45-198.49c.21-4.38-1.24-8.68-4.04-12.05-2.81-3.37-6.77-5.57-11.12-6.16l-92.13-26.09c-29.65-4.19-50.46,32.08-53.18,61.85-3.02,33.08-5.4,73.62-2.18,98.45,6.49,49.96,44.43,57.37,44.43,57.37-.8,24.62-.5,25.12-.5,25.12l40.66,37.19,63.61-37.19Z"/>
  <path class="cls-10" d="M1446.92,376.22c-.07,1.66.51,3.28,1.63,4.52,1.11,1.24,2.66,1.99,4.32,2.1.81.09,1.63.01,2.41-.22.78-.23,1.51-.62,2.14-1.14.63-.52,1.14-1.16,1.52-1.88.38-.72.61-1.51.68-2.32.06-1.66-.53-3.28-1.64-4.51-1.11-1.23-2.66-1.99-4.31-2.11-.81-.09-1.63-.01-2.41.22-.78.23-1.51.62-2.14,1.14-.63.52-1.14,1.16-1.52,1.88-.38.72-.61,1.51-.68,2.32Z"/>
  <path class="cls-10" d="M1441.6,354.53c.75.84,5.7-2.6,12.57-2.39,6.87.21,11.81,3.81,12.56,2.97.75-.84-.38-1.88-2.51-3.56-2.92-2.14-6.43-3.32-10.05-3.39-3.56-.11-7.07.91-10.01,2.93-2.18,1.38-2.85,2.89-2.56,3.43Z"/>
  <path class="cls-10" d="M1505.46,377.44c-.07,1.66.51,3.28,1.63,4.52,1.11,1.24,2.66,1.99,4.32,2.1.81.09,1.63.01,2.41-.22.78-.23,1.51-.62,2.14-1.14.63-.52,1.14-1.16,1.52-1.88.38-.72.61-1.51.67-2.32.07-1.66-.51-3.28-1.63-4.52-1.11-1.24-2.66-1.99-4.32-2.1-.81-.09-1.63-.02-2.42.21-.79.23-1.51.62-2.14,1.14-.63.52-1.15,1.16-1.52,1.89-.38.72-.6,1.52-.67,2.33Z"/>
  <path class="cls-10" d="M1509.02,357.55c.8.84,5.74-2.6,12.56-2.39,6.83.21,11.81,3.81,12.57,2.97.75-.84-.38-1.88-2.51-3.52-2.92-2.16-6.43-3.36-10.05-3.43-3.56-.11-7.07.91-10.01,2.93-2.14,1.55-2.93,3.06-2.56,3.43Z"/>
  <path class="cls-10" d="M1482.68,407.75c-3.58-1.26-7.31-2.05-11.1-2.35-1.76-.21-3.39-.63-3.64-1.84-.11-1.81.34-3.61,1.3-5.15,1.76-4.18,3.64-8.37,5.57-13.19,7.75-18.8,13.4-34.26,12.56-34.59-.84-.34-7.66,14.7-15.41,33.5-1.84,4.61-3.64,9.04-5.32,13.27-1.18,2.08-1.58,4.52-1.13,6.87.24.62.63,1.17,1.11,1.63.49.46,1.07.8,1.7,1.01.97.29,1.96.46,2.98.5,3.77.57,7.59.68,11.39.34Z"/>
  <path class="cls-1" d="M1475.65,488.83c23.37,1,46.56-4.5,67-15.87,2.97-6.87-13.32,24.83-67.38,28.89l.38-13.02Z"/>
  <path class="cls-1" d="M1483.18,424.09c1.6-2.23,3.72-4.04,6.18-5.26,2.46-1.22,5.18-1.82,7.93-1.73,1.8.08,3.55.59,5.1,1.5,1.55.9,2.86,2.17,3.82,3.69.94,1.72,1.38,3.66,1.3,5.62-.09,1.96-.71,3.85-1.8,5.48-1.3,1.67-3.06,2.91-5.07,3.57-2.01.66-4.17.7-6.2.11-3.78-1.36-7.18-3.6-9.93-6.53-.88-.72-1.59-1.62-2.09-2.64-.25-.56-.35-1.18-.28-1.79.07-.61.29-1.19.66-1.69"/>
  <path class="cls-10" d="M1502.74,413.16c-1.13,0-1.34,7.33-7.87,12.57-6.53,5.23-14.41,4.18-14.53,5.11-.12.92,1.76,1.51,5.11,1.68,4.36.18,8.64-1.17,12.1-3.81,3.32-2.56,5.51-6.32,6.11-10.47.46-3.31-.42-5.07-.92-5.07Z"/>
  <path class="cls-10" d="M1506.8,329.4c.63,1.88,7.49,1.21,15.53,2.39,8.04,1.17,14.49,3.6,15.58,1.97.5-.8-.59-2.6-3.14-4.48-3.44-2.29-7.37-3.72-11.47-4.19-4.1-.62-8.29-.26-12.23,1.05-3.01.75-4.52,2.18-4.27,3.27Z"/>
  <path class="cls-10" d="M1444.7,330.78c1.17,1.59,5.95,0,11.6,0s10.47,1.34,11.64-.25c.5-.8-.21-2.34-2.26-3.89-2.75-1.9-6.04-2.9-9.38-2.85-3.35-.02-6.62.99-9.38,2.89-2.05,1.76-2.72,3.35-2.22,4.1Z"/>
  <path class="cls-4" d="M1538.29,860.52c-3.94-.81-8.01-.8-11.95.05-3.94.84-7.65,2.5-10.92,4.85-10.39,7.62-28.18,17.75-46.07,14.24-27.76-5.49-42.84-31.53-36.64-62.81,6.2-31.28,29.94-49.96,57.75-44.48,17.96,3.52,30.61,19.6,37.36,30.62,2.14,3.4,4.95,6.32,8.26,8.6,3.31,2.27,7.06,3.83,11,4.59,3.8.75,7.72.74,11.52-.02,3.8-.76,7.42-2.27,10.64-4.43,3.22-2.16,5.98-4.94,8.13-8.17s3.64-6.85,4.38-10.66l30.82-185.35-290.29-50.71-198.41-34.38-30.99,175.88c-3.14,16,10.3,30.19,26.3,33.5,3.94.81,8,.78,11.93-.07,3.93-.85,7.64-2.51,10.89-4.87,10.38-7.62,28.22-17.75,46.06-14.24,27.81,5.49,42.88,31.53,36.68,63.02-6.2,31.49-29.98,49.96-57.79,44.47-17.92-3.52-30.61-19.6-37.35-30.61-2.14-3.41-4.94-6.34-8.26-8.62-3.31-2.28-7.06-3.85-11.01-4.61-3.81-.77-7.73-.78-11.54-.03-3.81.76-7.43,2.26-10.65,4.43-3.22,2.17-5.98,4.95-8.12,8.19-2.14,3.24-3.61,6.87-4.33,10.69l-37.19,207.12,291.96,51.38,171.27,30.15,20.94,3.73,38.74-196.53c.82-3.82.86-7.76.14-11.59-.73-3.83-2.21-7.49-4.37-10.74-2.15-3.26-4.94-6.04-8.19-8.21-3.25-2.16-6.9-3.65-10.73-4.39Z"/>
  <path class="cls-11" d="M1249.13,742.81c.04-1.05-.14-2.09-.52-3.07-.39-.97-.97-1.86-1.71-2.59-.75-.74-1.64-1.31-2.61-1.68-.98-.37-2.03-.54-3.07-.49-2.43,0-5.57.29-9.42.67-10.01,1.01-39.61,15.58-40.41,21.44-.54,2.1-.53,4.3.04,6.39.56,2.09,1.66,4,3.18,5.54,0,0-5.78,7.66-3.69,14.03,1.84,5.4,10.56,7.29,10.56,7.29,0,0-6.45,7.49,0,12.85,2.3,1.84,6.95,5.4,8,6.62.42,1.6,1.04,3.15,1.84,4.6,1.45,2.04,3.33,3.75,5.49,5.01,2.17,1.26,4.58,2.03,7.07,2.28h1.68c3.21.31,6.42-.61,8.96-2.6,11.56-8.84,44.31-34.47,44.94-41.58,0,0,6.24-4.86,3.81-9.93-2.43-5.07-11.77-2.89-11.77-2.89,1.27-1.02,2.18-2.42,2.61-3.99.42-1.57.33-3.24-.26-4.76-2.14-5.36-18.68-4.9-26.17-3.9-5.99.75-22.65,3.48-22.65,3.48,0,0,22.2-7.62,23.49-11.39.26-.42.48-.87.63-1.34Z"/>
  <path class="cls-1" d="M1279.79,777.7c-.7.53-1.44.99-2.22,1.38-1.47.8-3.6,1.93-6.32,3.27-5.36,2.68-12.98,6.03-21.52,9.34-8.54,3.31-16.46,5.95-22.2,7.79-2.85.92-5.15,1.59-6.78,2.09-.82.27-1.66.48-2.51.63.79-.38,1.59-.7,2.43-.96l6.7-2.3c5.69-1.97,13.48-4.73,22.07-8,8.59-3.26,16.12-6.57,21.57-9.09l6.45-3.06c.75-.42,1.54-.78,2.35-1.09Z"/>
  <path class="cls-1" d="M1272.84,764.67c-.79.27-1.6.45-2.43.54-1.55.3-3.81.71-6.62,1.34-5.57,1.21-13.15,3.31-21.44,5.95-4.19,1.3-8.12,2.47-11.68,3.68-3.56,1.22-6.7,2.56-9.3,3.64-2.59,1.09-4.69,2.14-6.16,2.8-.72.41-1.47.75-2.26,1.01l.54-.38,1.59-.92c1.38-.75,3.43-1.84,6.03-3.01,2.59-1.17,5.74-2.56,9.3-3.85,3.56-1.3,7.54-2.47,11.68-3.77,7.1-2.29,14.31-4.2,21.61-5.74,2.77-.54,5.07-.88,6.66-1.09l2.47-.21Z"/>
  <path class="cls-1" d="M1225.35,755.71c-1.12.75-2.31,1.38-3.56,1.88-2.26,1.05-5.44,2.39-8.96,3.85-3.52,1.47-6.62,2.85-8.88,3.89-1.19.62-2.42,1.17-3.69,1.63,1.05-.86,2.21-1.57,3.43-2.14,2.86-1.57,5.81-2.97,8.84-4.19,3.52-1.47,6.7-2.72,9-3.64,1.23-.54,2.5-.98,3.81-1.3Z"/>
  <path class="cls-1" d="M1269.36,790.67c-.45.63-.95,1.22-1.51,1.76-1.05,1.05-2.59,2.56-4.56,4.19-3.94,3.64-9.63,8.37-15.83,13.53-1.51,1.3-2.97,2.68-4.52,3.85-1.44,1.17-2.95,2.25-4.52,3.22-2.66,1.7-5.57,2.98-8.63,3.77-2.06.56-4.2.74-6.32.54-.58-.02-1.15-.09-1.72-.21h-.59c.77-.05,1.54-.05,2.31,0,2.08.05,4.16-.23,6.15-.84,2.97-.84,5.79-2.13,8.38-3.81,1.54-.99,3.02-2.07,4.44-3.22,1.51-1.17,2.93-2.51,4.48-3.85,6.2-5.28,11.98-9.84,16-13.32l4.69-4.19c.55-.52,1.14-.99,1.76-1.42Z"/>
  <path class="cls-11" d="M1597.72,859.81s-10.38-11.14-19.14-12.94c-8.75-1.8-20.94-.25-22.99-1.76-2.05-1.51-6.66-7.45-10.8-3.77-4.15,3.69-10.85,18.38,6.87,25.59l12.56,2.05c-1.66,5.92-4.18,11.57-7.5,16.75-3.85,4.48-55.65,51.63-55.65,51.63,0,0-6.24,4.52-4.44,10.35,1.8,5.82,13.82,4.6,13.82,4.6,2.01,2.43,4.6,4.31,7.53,5.47,2.93,1.16,6.1,1.55,9.22,1.15,4.84-.85,9.56-2.26,14.07-4.18,2.61,2.75,6.05,4.58,9.79,5.19,3.75.61,7.59-.02,10.94-1.8,12.06-6.32,63.49-52.22,63.49-52.22l-12.94-45.6-14.83-.5Z"/>
  <path class="cls-11" d="M1609.73,850.85l-12.9,9c16,16.12,28.14,30.44,24.83,49.79l24.88-10.09s2.14-38.69-36.81-48.7Z"/>
  <path class="cls-1" d="M1549.51,926.64c-4.87,6.13-10.82,11.32-17.54,15.33-6.32,4.58-13.41,8-20.94,10.09-.25-.63,9.17-4.9,19.76-11.93,10.6-7.04,18.26-13.95,18.72-13.49Z"/>
  <path class="cls-1" d="M1567.56,936.61c-3.3,5.15-7.59,9.6-12.62,13.09-5.03,3.48-10.7,5.94-16.69,7.22-.21-.63,7.33-3.39,15.37-9.05,8.04-5.65,13.32-11.6,13.94-11.26Z"/>
  <path class="cls-5" d="M828.53,621.62l15.75-9.42,20.73,55.86-16.79,10.38-19.68-56.82Z"/>
  <path class="cls-11" d="M552.73,261.31c-.89-21.65-9.91-42.17-25.23-57.49-15.33-15.31-35.86-24.3-57.51-25.18h-4.44c-48.32.8-74.58,42.3-72.44,90.54l6.11,194.31,76.34,29.31,29.52-27.13c0-13.61,0-41.87.29-41.87s46.61-5.28,49.08-51.55c1.21-22.82-.09-69.1-1.72-110.93Z"/>
  <path class="cls-1" d="M505.36,423.33c-21.4-.91-42.08-7.96-59.59-20.31,0,0,13.07,35.43,59.47,33.17l.12-12.86Z"/>
  <path class="cls-10" d="M536.77,301.27c-.04,1.73-.77,3.37-2.01,4.57-1.25,1.2-2.92,1.86-4.65,1.84-.84.04-1.69-.09-2.48-.39-.79-.3-1.51-.75-2.13-1.33-.61-.58-1.1-1.28-1.43-2.06-.33-.78-.5-1.61-.5-2.46.04-1.72.76-3.36,2-4.56s2.9-1.86,4.62-1.85c.84-.03,1.68.1,2.48.4.79.3,1.51.75,2.13,1.33.61.58,1.1,1.28,1.44,2.05.34.77.52,1.61.53,2.45Z"/>
  <path class="cls-10" d="M542.05,281.37c-.88.84-5.74-3.1-12.86-3.35-7.12-.25-12.56,3.06-13.19,2.14-.63-.92.54-1.93,2.89-3.48,3.15-2.01,6.86-2.99,10.59-2.81,3.71.14,7.27,1.46,10.18,3.77,2.14,1.76,2.8,3.35,2.39,3.73Z"/>
  <path class="cls-10" d="M474.88,301.27c-.05,1.73-.78,3.36-2.03,4.56-1.24,1.2-2.91,1.86-4.63,1.85-.84.03-1.69-.1-2.48-.4-.79-.3-1.52-.75-2.13-1.33-.61-.58-1.1-1.28-1.44-2.05-.34-.77-.52-1.61-.53-2.45.07-1.72.79-3.35,2.04-4.55,1.24-1.2,2.9-1.86,4.62-1.86.84-.03,1.69.1,2.48.4.79.3,1.52.75,2.13,1.33.61.58,1.1,1.28,1.44,2.05.34.77.52,1.61.53,2.45Z"/>
  <path class="cls-10" d="M472.2,280.16c-.84.8-5.69-3.1-12.81-3.39-7.12-.29-12.57,3.1-13.23,2.18-.67-.92.54-1.93,2.89-3.48,3.17-2.01,6.89-2.99,10.64-2.81,3.69.16,7.25,1.46,10.17,3.73,2.1,1.8,2.77,3.39,2.35,3.77Z"/>
  <path class="cls-10" d="M495.48,335.9c3.8-1.04,7.71-1.59,11.64-1.63,1.84,0,3.56-.38,3.94-1.63.21-1.86-.14-3.74-1.01-5.4-1.51-4.48-3.14-9.17-4.81-14.07-6.66-20.02-11.39-36.43-10.55-36.73.84-.29,6.83,15.75,13.48,35.76,1.59,4.94,3.14,9.63,4.56,14.15,1.08,2.23,1.31,4.77.67,7.16-.3.63-.73,1.18-1.26,1.63-.54.44-1.16.76-1.84.93-1.02.21-2.06.31-3.1.29-3.91.32-7.85.16-11.73-.46Z"/>
  <path class="cls-10" d="M475.43,257.96c-1.05,1.8-7.88-.42-16.25-.92-8.38-.5-15.49.46-16.25-1.42-.33-.92,1.13-2.51,4.19-3.85,3.99-1.61,8.29-2.28,12.58-1.97,4.29.31,8.45,1.6,12.17,3.77,2.81,1.8,4.02,3.56,3.56,4.4Z"/>
  <path class="cls-10" d="M543.22,260.48c-1.51,1.55-7.25-.25-14.24-.54-6.99-.29-12.9.75-14.2-.96-.59-.84.38-2.43,3.01-3.89,3.61-1.75,7.6-2.56,11.61-2.35,4.01.21,7.89,1.44,11.3,3.56,2.43,1.93,3.18,3.39,2.51,4.19Z"/>
  <path class="cls-11" d="M395.48,303.28c-.79-.38-31.45-10.72-31.74,20.94-.29,31.66,31.57,25.46,31.66,24.54.08-.92.08-45.48.08-45.48Z"/>
  <path class="cls-1" d="M386.02,336.69s-.54.38-1.47.8c-.66.28-1.37.43-2.09.43s-1.43-.14-2.09-.43c-2.04-1.31-3.69-3.15-4.78-5.31-1.09-2.17-1.58-4.58-1.42-7-.06-2.71.48-5.4,1.59-7.87.32-.98.86-1.87,1.59-2.6.73-.73,1.62-1.27,2.6-1.59.63-.15,1.3-.08,1.89.21.59.28,1.06.76,1.34,1.34.42.92,0,1.55.38,1.59.38.04.67-.54.46-1.84-.18-.79-.62-1.5-1.26-2.01-.86-.66-1.94-.96-3.01-.84-1.31.25-2.53.83-3.55,1.69s-1.8,1.97-2.27,3.21c-1.38,2.72-2.07,5.74-2.01,8.79,0,6.41,3.35,12.56,7.91,13.78.85.25,1.75.31,2.62.18.88-.14,1.71-.47,2.44-.97.88-.8,1.13-1.47,1.13-1.55Z"/>
  <path class="cls-10" d="M473.12,340.3c1.09,0,1.13,7.2,7.41,12.56,6.28,5.36,13.99,4.19,14.03,5.32.04,1.13-1.72,1.42-4.98,1.51-4.28.04-8.44-1.45-11.73-4.19-3.19-2.57-5.24-6.28-5.74-10.34-.3-3.18.5-4.9,1-4.86Z"/>
  <path class="cls-10" d="M534.26,1665.26l.67,89.82s91.5,29.31,93.26,46.06l-174.12,7.54-6.78-139.91,86.98-3.52Z"/>
  <path class="cls-3" d="M480.74,1749.98c-1.66.59-3.04,1.77-3.88,3.32-.84,1.55-1.09,3.35-.68,5.06.53,1.71,1.69,3.14,3.26,4,1.56.86,3.4,1.08,5.12.61,1.75-.62,3.21-1.87,4.1-3.5.89-1.63,1.14-3.53.72-5.34-.72-1.7-2.07-3.05-3.76-3.77-1.7-.72-3.61-.75-5.32-.08"/>
  <path class="cls-4" d="M454.07,1808.82v-14.11l167-1.97s7.87,3.06,7.25,8.38l-174.25,7.7Z"/>
  <path class="cls-12" d="M537.7,1754.21c0,.84-4.18,1.42-8.37,4.18-4.19,2.77-6.12,6.58-6.91,6.28-.8-.3.25-5.28,5.23-8.71,4.98-3.43,10.22-2.56,10.05-1.76Z"/>
  <path class="cls-12" d="M556.29,1760.96c.25.84-3.39,2.43-6.11,6.16-2.72,3.73-3.4,7.54-4.19,7.54s-1.59-4.77,1.93-9.34c3.52-4.57,8.33-5.15,8.38-4.36Z"/>
  <path class="cls-12" d="M567.6,1782.52c-.75.21-2.1-3.98,0-8.71,2.09-4.73,5.86-6.79,6.28-6.12.42.67-1.97,3.31-3.56,7.25-1.59,3.94-1.84,7.29-2.72,7.58Z"/>
  <path class="cls-12" d="M535.27,1733.74c-.29.79-4.19-.21-9.05.33-4.86.54-8.38,2.22-8.96,1.51-.58-.72,3.02-3.9,8.67-4.48,5.65-.59,9.76,1.97,9.34,2.64Z"/>
  <path class="cls-10" d="M332.37,1684.49l-9.46,108.29,17.25,87.94c.29,1.5.27,3.04-.05,4.53-.33,1.49-.96,2.9-1.86,4.14s-2.04,2.28-3.35,3.05c-1.31.78-2.77,1.28-4.29,1.47-1.76.23-3.55.02-5.22-.59-1.67-.61-3.17-1.62-4.37-2.93-15.49-16.75-72.32-79.56-71.19-87.4,1.3-9.13,2.35-114.82,2.35-114.82l80.19-3.69Z"/>
  <path class="cls-4" d="M330.61,1893.75l-80.32-98.2-.29,4.56c-.26,3.97.89,7.91,3.27,11.1,6.36,8.37,24.46,31.74,67.46,79.02,1.23,1.36,2.77,2.39,4.5,3.01,1.72.61,3.58.79,5.38.51Z"/>
  <g class="cls-14">
    <path class="cls-12" d="M274.8,1761.96c1.27,1.07,2.1,2.57,2.34,4.22.23,1.65-.15,3.32-1.08,4.7-1.01,1.31-2.49,2.18-4.13,2.43-1.64.25-3.31-.14-4.67-1.09-1.34-1.14-2.21-2.73-2.45-4.46s.17-3.51,1.16-4.96c1.19-1.26,2.83-2.01,4.57-2.08,1.74-.07,3.43.54,4.73,1.71"/>
  </g>
  <path class="cls-12" d="M308.88,1844.75c2.85-3.22,6.29-5.87,10.13-7.79,4.05-1.33,8.31-1.87,12.56-1.59,0-.29-1.21-1.21-3.73-1.72-3.32-.61-6.74-.23-9.84,1.09-3.15,1.31-5.84,3.54-7.71,6.41-1.42,1.93-1.72,3.52-1.42,3.6Z"/>
  <path class="cls-12" d="M315.67,1859.78c3.22-1.59,6.54-2.99,9.93-4.19,3.55-.42,7.11-.64,10.68-.67-1.6-1.16-3.46-1.9-5.41-2.19-1.95-.29-3.95-.1-5.81.55-6.53,1.59-9.93,6.16-9.38,6.49Z"/>
  <path class="cls-12" d="M295.69,1825.23c4.79-2.8,9.79-5.24,14.95-7.29,5.37-1.31,10.83-2.22,16.33-2.72-5.61-1.47-11.53-1.31-17.06.47-5.53,1.77-10.43,5.08-14.14,9.54h-.08Z"/>
  <path class="cls-12" d="M295.82,1792.07c.25.67,6.41-1.42,14.2-1.21,7.79.21,13.86,2.47,14.15,1.84-4.05-3.04-9.06-4.52-14.11-4.19-5.02-.51-10.05.75-14.24,3.56Z"/>
  <path class="cls-12" d="M297.78,1760.24c4.81-1.25,9.77-1.82,14.74-1.68,4.9.86,9.66,2.38,14.15,4.52,0-.21-.92-1.67-3.31-3.27-3.2-2.03-6.83-3.27-10.59-3.64-3.77-.4-7.57.12-11.1,1.51-2.68,1.09-4.06,2.31-3.89,2.56Z"/>
  <path class="cls-12" d="M312.73,1752.49c.43-1.35.57-2.78.42-4.19-.13-3.79-1.01-7.52-2.6-10.97-.93-2.62-2.69-4.86-5.03-6.36-.82-.43-1.75-.59-2.66-.47-.91.12-1.77.52-2.45,1.14-1.22,1.3-1.94,2.99-2.01,4.77,0,3.66,1.29,7.2,3.63,10.02,2.34,2.81,5.59,4.72,9.19,5.39,3.57.61,7.24.13,10.53-1.36,3.3-1.49,6.07-3.94,7.98-7.02.48-.77.8-1.64.91-2.54.12-.9.03-1.82-.24-2.69-.38-.84-1.01-1.54-1.81-2-.8-.47-1.72-.67-2.63-.59-2.71.4-5.27,1.51-7.41,3.22-3.1,2.15-5.78,4.85-7.91,7.96-.88,1.07-1.54,2.31-1.93,3.64,3.1-3.89,6.74-7.32,10.8-10.18,1.92-1.4,4.14-2.32,6.49-2.68.51-.07,1.02.04,1.46.3.44.26.78.66.97,1.13.14.58.16,1.18.05,1.77-.11.58-.34,1.14-.68,1.63-1.72,2.61-4.16,4.66-7.02,5.91-2.86,1.26-6.02,1.66-9.1,1.17-3.04-.58-5.79-2.17-7.8-4.51-2.02-2.35-3.18-5.3-3.29-8.39.03-1.26.49-2.47,1.3-3.43.37-.35.84-.58,1.34-.65.5-.07,1.02.03,1.46.27,1.9,1.31,3.36,3.16,4.19,5.32,2.13,4.54,3.43,9.42,3.85,14.41Z"/>
  <path class="cls-7" d="M626.35,920.74c8.37,37.21,11.19,75.45,8.37,113.49-1.88,24.12-83.25,691.34-83.25,691.34h-109.84l30.86-627.1-8.96,1.97s-60.01,267.5-64.95,310.76c-4.19,38.9-58.21,344.86-58.21,344.86l-103.69-1.13,38.57-394.9,37.35-358.88,14.03-104.69,299.71,24.29Z"/>
  <path class="cls-7" d="M828.65,612.2l-106.74,52.81-60.39-157.29c-5.5-13.46-14.19-25.38-25.32-34.74-11.13-9.35-24.38-15.86-38.58-18.95-3.64-.76-7.34-1.25-11.06-1.47l43.18,251.26c8.48,20.56,19.75,39.85,33.5,57.33,9,10.85,26.92,22.24,66.58,9.8l127.56-85.39-28.73-73.37Z"/>
  <path class="cls-5" d="M393.77,421.96l52.85,43.93,26.97,20.94,13.65-1.93,7.54-20.6,10.18-40.16,14.24,18.8,38.53,81.79,43.26,395.61s-75.38,22.11-114.49,24.75c-39.11,2.64-101.3-8-101.3-8v-208.17l-22.15-206.16,26.76-78.98,3.98-21.82Z"/>
  <path class="cls-10" d="M505.45,942.44c-.05-.36-.05-.73,0-1.09v-3.27c0-2.98-.25-7.16-.46-12.57-.38-11.01-.88-26.71-1.55-46.06-1.34-38.95-3.48-92.71-6.53-152.05-3.06-59.34-6.53-113.07-9.21-151.93l-3.18-46.06c-.38-5.36-.67-9.55-.84-12.57v-4.39c.04.37.04.75,0,1.13,0,.8,0,1.89.38,3.22.25,2.98.63,7.16,1.13,12.57.96,10.85,2.26,26.55,3.73,46.06,2.97,38.82,6.57,92.5,9.63,151.89,3.06,59.38,5.02,113.07,6.07,152.09.54,19.47.92,35.22,1.05,46.07v15.83c-.17.75-.21,1.13-.21,1.13Z"/>
  <path class="cls-7" d="M367.59,462.57l3.77-2.01-75.38,39.49,28.48,194.98,15.83,100.5-58.96,238.36s44.31,28.94,66.5,23.24c11.85-3.06,21.99-26.89,29.82-45.64,15.67-37.43,25.84-76.92,30.19-117.25,4.19-40.58,8.37-92.13,5.48-127.39-5.53-65.62-14.2-173.87-14.99-202.35-.8-28.48-7.5-133.37-7.5-133.37l-23.24,31.45Z"/>
  <path class="cls-7" d="M506.71,422.25l43.8,23.74,38.44,6.58,51.84,113.49-9.88,205.2,51.76,253.31s-37.94,13.44-52.97,7.91c-15.04-5.53-35.55-39.53-36.35-60.1-.8-20.56-30.02-219.73-30.02-219.73l-24.88-234.13c-2.35-22.32-8.59-44.06-18.43-64.24l-13.32-32.03Z"/>
  <path class="cls-4" d="M550.51,452.57c.5.5.96,1.03,1.38,1.59l3.94,4.78,14.49,18.17.29.38-.38.29-12.31,9.34v-1l14.44,4.57h.42v.5c-.25,25.67-.59,58.04-.96,93.13-.63,42.84-1.21,81.58-1.63,109.8-.25,13.95-.5,25.13-.67,33.25,0,3.81,0,6.87-.25,9.04v3.14-45.48c.29-28.18.67-67,1.13-109.8.5-35.05.96-67.42,1.3-93.13l.46.63-14.36-4.69-1.09-.33.92-.67,12.56-9.21v.71l-14.15-18.42-3.73-4.94c-.64-.5-1.24-1.04-1.8-1.63Z"/>
  <path class="cls-4" d="M409.93,726.02c-.14-.23-.23-.49-.29-.75l-.75-2.3-2.89-8.88c-2.51-7.66-6.28-18.76-11.1-32.41l-7.96-22.28c-3.14-8.51-5.84-17.17-8.08-25.96-4.86-20.17-8.65-40.57-11.35-61.14-3.89-28.48-6.45-55.36-7.96-78.44v-.33l.25-.25,12.56-11.97v1l-11.81-8.96-.42-.38.34-.46,21.27-28.85,5.82-7.79,1.59-1.97c.17-.24.35-.46.54-.67,0,0,0,.29-.42.75l-1.42,2.1-5.61,8-20.94,29.32v-.84l11.85,8.88.63.46-.54.51-12.56,12.1.21-.58c1.68,23.07,4.19,49.92,8.38,78.35,2.67,20.54,6.39,40.93,11.14,61.1,2.4,9.24,5.04,17.87,7.91,25.88l7.79,22.36c4.69,13.69,8.37,24.83,10.59,32.58,1.17,3.89,2.05,6.91,2.6,8.96.25.96.46,1.76.58,2.35.13.59.04.54.04.54Z"/>
  <path class="cls-10" d="M603.73,868.94l9.42,29.27,53.35-4.9-16.63-28.02-46.15,3.64Z"/>
  <path class="cls-4" d="M603.78,868.94s1.05,0,3.18-.42l9.34-.92c8.09-.75,19.73-1.84,33.5-3.01h.42l.25.42,16.75,27.93.63,1.09h-1.26l-2.76.25-50.59,4.65h-.5v-.46c-2.89-9.17-5.11-16.75-6.62-21.69-.67-2.39-1.26-4.19-1.72-5.82-.21-.64-.38-1.3-.5-1.97.33.69.61,1.41.84,2.14l2.05,5.91c1.8,5.23,4.19,12.56,7.16,20.94l-.67-.46,50.59-4.86,2.72-.25-.63,1.21-16.54-28.01.67.38c-13.48,1-25.13,1.72-33.08,2.22l-9.55.54c-2.39.21-3.69.25-3.69.21Z"/>
  <g class="cls-13">
    <path class="cls-2" d="M571.99,491.25l8.8,12.15s-2.47,184.01-11.81,229.69l3.01-241.84Z"/>
  </g>
  <path class="cls-10" d="M393.77,460.52c.92,1.44,2.03,2.75,3.31,3.89,2.26,2.39,5.57,5.78,9.72,9.97,8.37,8.38,19.81,19.64,32.7,32.03l8.37,8.38,1.43,1.38.67-1.84c4.19-11.64,8.37-22.19,11.39-30.9l-1.55.33,10.89,9.8c1.25,1.27,2.66,2.38,4.18,3.31-1-1.54-2.19-2.95-3.56-4.18-2.38-2.47-5.9-6.03-10.3-10.39l-1-1-.54,1.34c-3.35,8.67-7.46,19.14-11.97,30.7l2.09-.46-8.38-8.38c-12.9-12.56-24.67-23.53-33.29-31.49-4.19-4.19-7.79-7.2-10.26-9.34-1.16-1.21-2.47-2.27-3.89-3.14Z"/>
  <path class="cls-10" d="M492.55,492.97c3.06-5.36,5.66-10.96,7.79-16.75l-1.72.29c6.25,8.16,11.41,17.1,15.33,26.59.71,1.63,1.3,3.27,1.88,4.81l1.42,3.85,1.09-3.94c2.79-10.26,4.32-20.82,4.57-31.45.32-4.32.04-8.66-.84-12.9-.53,4.25-.84,8.53-.92,12.81-.77,10.42-2.57,20.75-5.36,30.82h2.51c-.58-1.59-1.21-3.27-1.93-4.94-4-9.73-9.45-18.79-16.16-26.89l-1.13-1.34-.63,1.59c-2.43,5.64-4.41,11.47-5.91,17.42Z"/>
  <path class="cls-6" d="M502.06,503.61l-10.43,15.37h-15.67l-8.37-15.37,8-16.88,13.65-1.93,12.81,18.8Z"/>
  <path class="cls-6" d="M492.22,511.15l47.24,356.66-40.37,54.73-40.41-58.04,17.88-353.35h15.66Z"/>
  <path class="cls-4" d="M584.18,898.92c-.06,2.63.11,5.27.5,7.87.63,5.53,1.42,12.56,2.39,21.32.96,8.75,2.43,19.85,3.89,31.61,1.84,12.95,5.03,25.68,9.51,37.98,4.9,12.86,11.27,25.51,22.11,32.21,5.12,2.84,10.9,4.28,16.75,4.18,5,.04,9.99-.38,14.91-1.26,7.1-1.17,14.1-2.9,20.94-5.15,2.56-.69,5.03-1.66,7.37-2.89-2.59.49-5.15,1.13-7.67,1.93-6.89,1.8-13.88,3.2-20.94,4.19-4.82.73-9.7,1.04-14.57.92-5.49.07-10.9-1.28-15.7-3.94-9.84-6.16-16.16-18.43-20.94-31.07-9.76-25.75-11.06-51.05-14.03-68.88-1.3-8.63-2.39-15.75-3.23-21.23-.22-2.63-.65-5.23-1.3-7.79Z"/>
  <path class="cls-4" d="M410.64,909.39c-.01.8-.14,1.59-.38,2.35l-1.63,6.7c-1.42,5.78-3.68,14.11-6.62,24.37-7.47,26.77-16.51,53.07-27.09,78.77-3.1,7.34-6.67,14.47-10.68,21.36-1.92,3.31-4.15,6.44-6.66,9.34l-1.97,2.01c-.75.63-1.55,1.17-2.3,1.76-.83.54-1.71.99-2.64,1.34-.88.29-1.8.37-2.68.58-6.76,1-13.66.53-20.23-1.38-5.73-1.49-11.33-3.44-16.75-5.82-7.73-3.37-15.22-7.27-22.4-11.68-2.55-1.55-4.52-2.85-5.78-3.73-.7-.41-1.34-.9-1.93-1.47.75.27,1.47.64,2.14,1.09l5.99,3.35c7.31,4.1,14.85,7.79,22.57,11.06,5.33,2.21,10.82,4.03,16.42,5.44,6.29,1.76,12.89,2.16,19.35,1.17,3.36-.55,6.37-2.4,8.38-5.15,2.41-2.81,4.55-5.84,6.41-9.05,3.92-6.76,7.42-13.75,10.47-20.94,10.54-25.63,19.77-51.78,27.64-78.35,3.01-9.96,5.48-18.13,7.28-24.16.81-2.62,1.48-4.8,2.01-6.53.27-.85.64-1.66,1.09-2.43Z"/>
  <path class="cls-7" d="M327.81,484.35s-64.78,14.53-73.03,70.23c-9.51,64.11-17.84,210.85-17.84,210.85l111.06-148.71"/>
  <path class="cls-10" d="M307.16,497.12s2.85,2.56,7.12,6.95c11.17,11.52,18.91,25.91,22.36,41.58,1.3,5.99,1.59,9.8,1.84,9.8.15-.9.15-1.82,0-2.72-.12-2.45-.42-4.88-.88-7.29-2.94-16.05-10.85-30.77-22.61-42.08-1.76-1.72-3.64-3.31-5.61-4.78-.67-.58-1.42-1.08-2.22-1.47Z"/>
  <path class="cls-4" d="M638.7,529.7c-.71,0-2.97,51.8-4.98,115.75-2.01,63.95-3.1,115.79-2.35,115.79s2.93-51.76,4.98-115.71c2.05-63.95,3.06-115.79,2.35-115.83Z"/>
  <path class="cls-7" d="M296.11,500.06s-30.15,20.35-33.5,36.81c-2.85,13.32-26.68,213.57-29.73,238.44-3.06,24.88-14.91,76.72,15.49,97.36,20.44,13.86,85.01,27.76,85.01,27.76-6.36-29.77,6.66-51.55,38.44-68.05l-43.17-40.75,19.35-174.92-51.89-116.67Z"/>
  <path class="cls-4" d="M340.41,795.45c-.75,0-11.31-54.44-23.58-121.82-12.27-67.38-21.65-122.28-20.94-122.28s11.31,54.44,23.62,121.82c12.31,67.38,21.61,122.11,20.9,122.28Z"/>
  <path class="cls-4" d="M332.08,755.33c.21,3.46.12,6.94-.29,10.38-.42,6.49-1.17,15.58-2.09,26.05l-.29-.88,8.38,7.79c9.59,9.09,18.17,17.42,24.33,23.54,3.48,3.13,6.7,6.53,9.63,10.17-3.79-2.75-7.36-5.78-10.68-9.09-6.45-5.78-15.2-13.95-24.79-23.04l-8.38-7.83-.38-.38v-.5c1.05-10.43,2.01-19.52,2.81-25.96.27-3.47.86-6.9,1.76-10.26Z"/>
  <path class="cls-4" d="M285.51,817.48c4.42-7.36,10.84-13.31,18.51-17.17,7.31-4.5,15.75-6.81,24.33-6.66-8.05,1.92-15.86,4.73-23.28,8.38-7.06,4.43-13.62,9.61-19.56,15.45Z"/>
  <path class="cls-6" d="M432.29,645.66c-.23,3.85-1.22,7.63-2.91,11.1-1.69,3.47-4.05,6.58-6.95,9.13-2.89,2.56-6.27,4.52-9.92,5.77-3.66,1.25-7.52,1.76-11.38,1.51-4.03-.21-7.98-1.26-11.58-3.07-3.6-1.82-6.79-4.36-9.36-7.48-8.08-9.97-22.7-24.21-40.87-25.13-28.14-1.76-49.2,19.56-51.22,51.47-2.01,31.91,16.29,55.65,44.47,57.42,18.17,1.13,34.42-11.18,43.68-20.06,2.91-2.76,6.35-4.89,10.12-6.25,3.77-1.36,7.78-1.93,11.78-1.66,3.86.23,7.63,1.22,11.1,2.91,3.47,1.69,6.58,4.05,9.13,6.95,2.56,2.89,4.52,6.27,5.76,9.92,1.25,3.66,1.77,7.52,1.52,11.38l-12.57,199.08,443.01,18.84,9.59-209.38c.23-3.86,1.22-7.63,2.91-11.1s4.05-6.58,6.95-9.13c2.89-2.56,6.27-4.52,9.92-5.76,3.66-1.25,7.52-1.77,11.38-1.52,4.03.21,7.97,1.26,11.58,3.07,3.61,1.82,6.79,4.36,9.36,7.48,8.09,9.96,22.7,24.2,40.88,25.33,28.14,1.76,49.24-19.55,51.21-51.47,1.97-31.91-16.29-55.65-44.43-57.42-18.17-1.13-34.47,11.18-43.72,20.06-2.91,2.77-6.35,4.9-10.12,6.26-3.77,1.36-7.78,1.93-11.78,1.66-16.21-1-31.28-13.27-30.28-29.31l7.54-177.72-438.7-18.68-6.11,185.81Z"/>
  <path class="cls-11" d="M378.27,846.87s13.06-10.14,22.78-10.55c9.72-.42,22.36,3.39,24.88,2.14,2.51-1.26,8.38-6.83,12.23-2.18,3.85,4.65,8.38,21.57-11.81,26.21h-13.9c.71,6.68,2.42,13.22,5.07,19.39,3.35,5.48,50.59,64.95,50.59,64.95,0,0,5.9,5.9,2.98,11.81-2.93,5.91-15.62,2.51-15.62,2.51-2.55,2.25-5.62,3.81-8.94,4.55-3.32.73-6.77.61-10.03-.36-5.02-1.68-9.83-3.95-14.32-6.74-3.27,2.5-7.27,3.86-11.39,3.86s-8.12-1.36-11.39-3.86c-11.81-8.84-58.92-67-58.92-67l21.78-46.53,16.04,1.8Z"/>
  <path class="cls-5" d="M365.08,836.11l13.4,10.68c-19.89,14.49-30.23,32.25-30.11,53.56l-17.13-11.85s-3.1-43.72,33.84-52.39Z"/>
  <path class="cls-1" d="M418.97,922.54c.54-.42,7.62,9.05,17.72,19.39,10.09,10.34,19.55,17.51,19.1,18.09-2.37-1.07-4.57-2.48-6.53-4.18-5-3.75-9.72-7.86-14.11-12.31-4.36-4.47-8.39-9.26-12.06-14.32-1.71-2-3.09-4.24-4.1-6.66Z"/>
  <path class="cls-1" d="M395.57,934.35c.54-.46,5.78,5.86,13.53,12.1,5.1,3.43,9.6,7.67,13.32,12.56-5.16-3.26-10.06-6.92-14.66-10.93-5.02-3.63-9.18-8.32-12.18-13.74Z"/>
  <path class="cls-11" d="M852.98,569.07s2.1-14.32,32.21-9.47c18.89,3.06,9,15.29,9,15.29,1.41,1.22,2.5,2.76,3.19,4.5.68,1.73.93,3.61.73,5.46-.2,1.85-.85,3.63-1.89,5.18-1.04,1.55-2.44,2.82-4.08,3.71l1.97,1.47s15.04,7.54,2.05,20.94c1.31,2.38,1.86,5.12,1.55,7.83-.31,2.71-1.45,5.25-3.27,7.29-6.45,6.49-22.65-2.14-22.65-2.14,0,0-22.91-.38-24.21-6.45-.4-1.84-.17-3.77.66-5.46.83-1.7,2.21-3.06,3.9-3.88,5.27-.98,10.6-1.62,15.95-1.93,0,0-20.01-.21-21.81-4.19-3.23-6.99-2.39-14.15,21.81-13.23,0,0-18.01-.38-20.06-4.19-2.05-3.81.46-9.59,6.95-12.56,3.82-1.83,8.04-2.71,12.27-2.56,0,0-16.83,3.43-14.28-5.61Z"/>
  <path class="cls-1" d="M893.27,574.97c-5.41.64-10.85.84-16.29.59-5.42.4-10.87.4-16.29,0,5.22-1.8,10.73-2.6,16.25-2.35,5.51-.43,11.05.17,16.33,1.76Z"/>
  <path class="cls-1" d="M892.47,594.44c-5.11.41-10.25.41-15.37,0-5.12.3-10.26.19-15.37-.33,4.96-1.63,10.2-2.25,15.41-1.84,5.2-.33,10.42.41,15.33,2.18Z"/>
  <path class="cls-1" d="M896.54,617.14c-.25.59-7.08-2.38-16-3.81-8.92-1.42-16.29-.88-16.37-1.55,5.44-1.66,11.21-1.87,16.75-.63,5.65.57,11.04,2.64,15.62,5.99Z"/>
  <path class="cls-9" d="M805.47,293.1l-75.43-50.43,17.6-26.29,50.59,33.8,62.87-83.26,25.27,19.1-80.9,107.08Z"/>
  <path class="cls-10" d="M403.4,331.8c5.57-17.26,9.2-35.09,10.83-53.15,1.5-18.59-1.05-37.96-10.44-54.08-1.01-1.69,3.99-17.74,2.06-17.93-2.74-.27-10.85,16.92-11.8,19.49-6.36,16.9-6.85,35.53-4.3,53.38,2.55,17.85,8.05,35.14,13.63,52.29"/>
  <path class="cls-10" d="M526.76,201.99s-2.63,5.29-13.46,13.32c-7.53,5.58-35.96-3.58-52.61-9.76-5.17-1.92-10.75-2.42-16.18-1.46-5.43.96-10.5,3.35-14.7,6.92-.88.73-1.69,1.53-2.43,2.41-3.19,4.06-3.42,9.76-2.31,14.8,1.11,5.04,3.4,9.74,4.78,14.7,2.55,9.14,2.06,18.79,1.52,28.26-.66,13.32-1.56,27.19-8.23,38.74-3.13,5.39-9.86,10.74-15.21,4.9-2.13-2.5-3.19-5.74-2.96-9.02.47-9.04-7.39-13.28-11.51-19.88-3.27-5.35-3.93-12.02-3.93-18.2-.33-20.58,3.66-41.52,13.85-59.45,10.19-17.93,26.76-27.56,46.64-32.94,16.51-4.45,43.7.97,61.44,9.2,11.73,5.52,25.96,21.26,21.12,23.86l-5.83-6.4Z"/>
  <path class="cls-10" d="M409.43,199.98c11.65-3.04,23.95-2.52,35.3,1.48,10.58,3.77,19.97,10.44,30.53,14.27,12.58,4.53,20.79,6.34,33.51,2.22l.58-.35c8.5-3.33,12.41-14.12,10.04-22.93-2.37-8.81-9.59-15.64-17.64-19.95-15.13-8.11-33.66-8.62-50.12-3.4-16.39,5.25-30.67,15.87-42.2,28.65Z"/>
  <path class="cls-4" d="M401.71,193.6c2.79-2.21,5.87-4.03,9.16-5.39,4.06-1.77,8.48-2.56,12.91-2.31,7.97.83,15.48,4.13,21.47,9.45,1.8,1.57,3.41,3.34,4.82,5.27.97,1.38,1.58,2.08,1.3,2.28-.29.21-2.41-2.84-7-6.48-5.94-4.74-13.1-7.71-20.65-8.56-4.12-.23-8.25.48-12.06,2.06-3.19,1.24-6.21,2.86-9.02,4.82-4.82,3.33-7.2,6.18-7.45,5.95-.23-.1,1.83-3.33,6.52-7.08Z"/>
  <path class="cls-4" d="M407.08,236.37c10.79,12.33,23.59,17.19,23.24,17.76-2.88-.59-5.64-1.69-8.13-3.25-12.58-6.87-22.39-17.9-27.73-31.21-1.95-5.08-2.47-8.48-2.24-8.48.68-.27,4.08,12.84,14.86,25.17Z"/>
  <path class="cls-4" d="M382.57,228.36c2.59,9.6,7.33,18.49,13.88,25.98,6.54,7.49,14.71,13.39,23.88,17.25,7.02,2.94,11.69,3.77,11.69,4.12-1.11.04-2.21-.1-3.27-.41-3.02-.59-5.98-1.44-8.85-2.53-9.59-3.61-18.13-9.54-24.86-17.27-6.73-7.72-11.44-17-13.71-26.99-.69-3-1.13-6.05-1.3-9.12-.14-1.12-.1-2.27.12-3.38.41,0,.41,4.78,2.43,12.35Z"/>
  <path class="cls-10" d="M1633.77,317.31c11.94,4.68,21.06,15.84,22.38,27.43.58,5.75-.65,11.54-3.53,16.55-2.88,5.01-7.26,8.99-12.53,11.37,4.72,5,3.73,13.27-1.96,16.31-5.69,3.04-14.58.02-17.45-5.93.51,6.36-5.41,11.71-12.21,12.25-6.8.54-13.92-3.09-18.55-8.19-4.64-5.09-7.04-11.54-8.23-17.89l17.38-46.81c8.63-7.7,22.76-9.77,34.71-5.1Z"/>
  <path class="cls-10" d="M1432.1,330.91c5.65-3.29,9.32-7.88,9.13-14.36,3.67,1.17,7.54-3.43,9.76-6.53,2.23-3.1,4.9-4.63,4.83-8.42-.08-.75.04-1.52.34-2.21.59-1.02,1.9-1.37,3.05-1.65,2.95-.85,5.64-2.43,7.81-4.59,2.18-2.16,3.78-4.84,4.65-7.78,5.88,2.71,12.34,3.93,18.8,3.55,1.4,2.09,3.3,3.79,5.53,4.96,2.23,1.16,4.71,1.75,7.23,1.7,2.51-.05,4.98-.72,7.16-1.97,2.18-1.24,4.02-3.02,5.34-5.16.89,1.69,2.14,3.17,3.65,4.33,1.52,1.16,3.26,1.99,5.12,2.42,3.74.85,7.58,1.15,11.4.9-.79,3.68-.22,7.53,1.61,10.83,1.83,3.3,4.79,5.82,8.33,7.1.98.33,2.1.64,2.53,1.57.42.93-.1,2.03-.51,3.02-2.55,6.16,1.37,14.12,7.93,15.84-4.59,3.35-4.33,11.33.48,14.38.98.63,2.27,1.37,2.09,2.51-.11.43-.33.83-.64,1.15-2.12,2.63-4.23,5.53-4.57,8.89-.34,3.36,1.87,7.18,5.27,7.41-1.83,1.53-3.55,3.51-3.65,5.87-.1,2.36,2.25,4.83,4.52,4.03.96-.33,14.73-2.66,15.36-3.45,8.05-10.25-1.46-22.05-1.9-35.02-.44-12.97-4.7-25.64-10.92-37.05-2.54-4.85-5.72-9.34-9.45-13.35-4.5-4.35-9.48-8.17-14.85-11.39-6.83-4.45-13.89-8.9-21.84-10.92-14.77-3.82-30.34,1.12-44.36,7.1-5.43,2.08-10.55,4.87-15.24,8.3-5.46,4.31-9.46,10.05-13.03,15.95-5.13,8.53-9.45,17.75-10.66,27.61"/>
  <path class="cls-10" d="M1497.54,287.7s18.45,74.85,60.37,91.08c22.88-19.4,20.83-52.19,20.83-52.19l-17.48-40.73-37.14-4.51-26.58,6.34Z"/>
  <path class="cls-10" d="M1499.67,295.21s-17.94,41.24-69.07,45.85c7.24-35.73,18.51-58.14,18.51-58.14l33.29-10.1,20.5,8.54-3.23,13.85Z"/>
  <path class="cls-10" d="M1430.6,341.05s-10.79-102.63,86.97-92.02c97.76,10.61,94.65,106.61,72.04,125.51-22.61,18.9-49.81-7.3-49.81-7.3l5.46-72.76-30.42-22.43,2.73,22.43-28.9-1.67-10.11,18.44-47.96,29.8Z"/>
</svg>
