<?xml version="1.0" encoding="UTF-8"?>
<svg id="Layer_1" data-name="Layer 1" xmlns="http://www.w3.org/2000/svg" viewBox="0 0 1813.55 1698">
  <defs>
    <style>
      .cls-1, .cls-2, .cls-3, .cls-4, .cls-5, .cls-6, .cls-7, .cls-8, .cls-9, .cls-10, .cls-11, .cls-12 {
        stroke-width: 0px;
      }

      .cls-1, .cls-10 {
        fill: #000;
      }

      .cls-2 {
        fill: #e0e0e0;
      }

      .cls-13 {
        opacity: .2;
      }

      .cls-3 {
        fill: #455a64;
      }

      .cls-4 {
        fill: #f5f5f5;
      }

      .cls-5 {
        fill: #09f;
      }

      .cls-6 {
        fill: #ebebeb;
      }

      .cls-7 {
        fill: #263238;
      }

      .cls-8 {
        fill: #fafafa;
      }

      .cls-9 {
        fill: #6f4439;
      }

      .cls-14, .cls-10 {
        opacity: .3;
      }

      .cls-10 {
        isolation: isolate;
      }

      .cls-11 {
        fill: #fff;
      }

      .cls-12 {
        fill: #ae7461;
      }
    </style>
  </defs>
  <path class="cls-2" d="M422.2,317.42c31.91,48.97,10.77,123.67-47.46,161.49-58.24,37.82-130.19,24.79-161.98-24.34-31.79-49.12.26-98.81,58.46-136.66,48.52-31.53,95.08-47.2,129.05-21.43,8.37,5.78,15.77,12.85,21.92,20.94Z"/>
  <path class="cls-6" d="M350.2,436.41c56.31-36.59,83.93-94,61.68-128.23-22.24-34.22-85.92-32.3-142.23,4.29-56.31,36.6-83.92,94.01-61.68,128.23,22.24,34.23,85.92,32.31,142.23-4.29Z"/>
  <path class="cls-2" d="M409.54,304.5c-.83,3.09-15.07.34-35.64,8.55-11.82,4.59-22.71,11.26-32.17,19.7-5.39,4.85-10.09,10.42-13.98,16.54-4.26,6.56-8.29,14.05-12.81,22-2.26,4-4.63,7.99-7.19,11.91-2.56,3.92-5.42,7.53-8.17,11.3-5.48,6.79-11.54,13.09-18.12,18.83-5.84,5.15-12.15,9.76-18.83,13.75-3.13,2-6.4,3.54-9.46,5.12-2.99,1.41-6.04,2.67-9.15,3.77-9.33,3.65-19.3,5.38-29.31,5.09-2.73-.06-5.43-.52-8.02-1.36-1.77-.64-2.71-1.32-2.67-2.03,0-3.28,14.62-4.26,33.9-15.07,24.96-14.7,45.36-36.01,58.95-61.59,4.37-7.53,8.78-15.67,14.05-23.17,5.16-7.5,11.4-14.19,18.53-19.85,11.88-9.33,25.71-15.86,40.46-19.1,9.91-2.37,20.23-2.37,30.14,0,1.73.5,3.24.99,4.52,1.47,1.08.47,2.11,1.04,3.09,1.7,1.5.87,2.22,1.73,1.88,2.45Z"/>
  <path class="cls-6" d="M336.16,313.69c-1.83,1.53-3.74,2.97-5.73,4.29-5.11,4.04-9.78,8.61-13.94,13.64-6.04,7.57-11.46,15.62-16.2,24.07-5.54,9.42-11.3,20.12-18.38,30.66-6.75,9.99-15.34,18.61-25.31,25.39-8.06,5.53-16.59,10.32-25.5,14.32-7.53,3.47-13.82,5.95-18.16,7.53l-5.01,1.85c-.57.27-1.18.45-1.81.53,0,0,.53-.38,1.66-.9l4.86-2.19c4.22-1.92,10.4-4.56,17.86-8.17,8.75-4.14,17.15-9,25.09-14.54,4.65-3.28,9.02-6.93,13.07-10.92,4.29-4.34,8.19-9.05,11.64-14.09,7.08-10.4,12.77-21.06,18.46-30.51,4.87-8.37,10.42-16.32,16.61-23.77,4.32-5,9.2-9.49,14.54-13.37,1.92-1.28,3.54-2.15,4.59-2.79.52-.4,1.07-.74,1.66-1.02Z"/>
  <path class="cls-6" d="M402.01,306.53c-1.64.56-3.33.97-5.05,1.21-3.28.68-7.99,1.81-13.67,3.77-14.84,4.66-28.56,12.36-40.27,22.6-13.6,12.09-20.64,27.57-26.9,37.67-2.39,4.13-5.09,8.09-8.06,11.83-.79,1.02-1.63,2-2.52,2.94-.6.64-.98.94-1.02.9.89-1.49,1.87-2.92,2.94-4.29,2.65-3.91,5.11-7.94,7.35-12.09,2.94-5.2,6.22-11.57,10.36-18.38,4.5-7.52,10.08-14.34,16.58-20.23,11.86-10.49,25.92-18.21,41.13-22.6,4.57-1.33,9.23-2.34,13.94-3.01,1.72-.28,3.46-.38,5.2-.3Z"/>
  <path class="cls-8" d="M419.22,328.87c.18.79.3,1.6.34,2.41.15,2.35.15,4.7,0,7.04-.48,8.65-2.21,17.17-5.16,25.31-4.41,12.05-10.59,23.37-18.35,33.6-4.52,6.11-9.56,11.82-15.07,17.06-5.96,5.41-12.25,10.44-18.83,15.07-23.21,16.63-49.62,28.24-77.56,34.09-8.48,1.66-17.13,2.29-25.77,1.84-2.34-.09-4.67-.35-6.97-.75-.82-.08-1.63-.24-2.41-.49,0,0,3.39.3,9.42.49,8.55.15,17.1-.68,25.46-2.45,27.61-6.2,53.69-17.88,76.69-34.36,23.59-15.72,41.83-38.25,52.29-64.6,3-8,4.91-16.36,5.69-24.86.42-6.07,0-9.42.23-9.42Z"/>
  <g class="cls-13">
    <path class="cls-11" d="M338.16,298.32c-1.13-.68-2.47-.92-3.77-.68-33.53,2.22-65.07,16.73-88.56,40.76-19.36,19.93-36.65,46.03-38.87,72.25-.75,8.93,6.67,13.75,15.07,10.21,16.61-7.16,40.08-19.51,51.72-34.62,12.96-16.8,18.42-38.43,31.11-55.41,7.64-10.2,17.58-18.46,29.01-24.11,1.79-.69,3.39-1.78,4.67-3.2.62-.75.93-1.71.86-2.67-.07-.97-.51-1.87-1.23-2.52Z"/>
  </g>
  <path class="cls-2" d="M1457.05,354.98c-30.93,44-101.71,51.45-153.73,14.8-52.02-36.65-65.62-102.38-34.69-146.42,30.93-44.04,84.23-33.56,136.33,3.09,43.43,30.55,72.74,64.83,62.42,102.57-2.07,9.13-5.55,17.89-10.32,25.95Z"/>
  <path class="cls-6" d="M1461.48,343.12c21.55-30.65-1.85-84.23-52.26-119.67-50.41-35.44-108.74-39.33-130.3-8.67-21.55,30.65,1.85,84.23,52.26,119.67,50.41,35.44,108.74,39.32,130.3,8.67Z"/>
  <path class="cls-2" d="M1463.79,339.91c-2.94.34-5.46-12.81-19.47-27.39-7.92-8.52-17.33-15.53-27.76-20.68-5.97-2.93-12.3-5.03-18.83-6.25-7.05-1.39-14.81-2.26-23.13-3.39-4.18-.57-8.36-1.21-12.58-2.03-4.18-.84-8.32-1.9-12.39-3.16-7.63-2.35-15.04-5.37-22.15-9-6.44-3.2-12.58-6.99-18.34-11.3-2.75-2-5.2-4.26-7.53-6.29-2.34-2.03-4.52-4.22-6.41-6.48-6.29-6.7-11.17-14.59-14.35-23.2-.87-2.35-1.4-4.81-1.58-7.31,0-1.73.19-2.75.83-2.98,2.75-1.13,8.59,10.96,24.48,23.66,21.07,16.15,46.19,26.17,72.59,28.97,8.06,1.13,16.35,2.15,24.56,4.07,8.14,1.82,15.96,4.86,23.2,9,12.03,6.91,22.33,16.45,30.14,27.91,5.42,7.58,8.98,16.33,10.4,25.54,0,1.66.23,3.09.26,4.33-.03,1.09-.15,2.17-.38,3.24-.38,1.77-.87,2.67-1.54,2.75Z"/>
  <path class="cls-6" d="M1430.79,280.43c-1.95-1.01-3.82-2.16-5.61-3.43-5.19-2.96-10.69-5.36-16.39-7.16-8.51-2.56-17.22-4.41-26.03-5.54-9.91-1.51-20.98-2.64-32.4-5.16-10.75-2.39-20.97-6.76-30.14-12.88-7.46-5-14.47-10.64-20.94-16.88-5.54-5.27-9.76-9.76-12.66-12.88l-3.31-3.77c-.72-.87-1.1-1.32-1.06-1.39,1.74,1.36,3.38,2.86,4.9,4.48,3.09,2.94,7.53,7.27,13.07,12.39,6.5,6.07,13.49,11.59,20.91,16.5,9.06,5.95,19.13,10.19,29.72,12.51,11.3,2.49,22.3,3.77,32.28,5.27,8.87,1.26,17.62,3.27,26.14,6.03,5.75,1.94,11.24,4.57,16.35,7.84,1.31.91,2.56,1.9,3.77,2.94.52.31.99.69,1.39,1.13Z"/>
  <path class="cls-6" d="M1459.38,334c-.3,0-3.58-5.84-10.55-14.31-9.06-10.96-20.28-19.94-32.96-26.37-15.07-7.53-30.51-8.14-41.44-10.02-4.33-.6-8.61-1.52-12.81-2.75-1.57-.36-3.08-.95-4.48-1.73,1.58.22,3.14.56,4.67,1.02,4.23.92,8.5,1.63,12.81,2.11,5.43.68,11.98,1.28,19.21,2.52,7.85,1.23,15.47,3.63,22.6,7.12,12.96,6.56,24.29,15.91,33.18,27.39,2.7,3.45,5.14,7.09,7.31,10.89.99,1.27,1.81,2.66,2.45,4.14Z"/>
  <path class="cls-8" d="M1446.27,356.33c-.58.48-1.23.87-1.92,1.17-1.92.97-3.89,1.82-5.91,2.56-7.52,2.56-15.38,4.01-23.32,4.29-11.78.38-23.55-1-34.92-4.11-6.74-1.74-13.32-4.06-19.66-6.93-6.72-3.23-13.22-6.88-19.47-10.92-22.12-14.07-41.05-32.63-55.56-54.47-4.31-6.58-7.81-13.66-10.4-21.09-.69-2.04-1.26-4.11-1.69-6.22-.23-.72-.37-1.47-.41-2.22.22,0,.94,2.98,2.86,8.17,2.79,7.32,6.42,14.3,10.81,20.79,14.71,21.39,33.56,39.61,55.45,53.57,21.47,14.68,46.92,22.44,72.93,22.22,7.85-.19,15.63-1.46,23.13-3.77,5.31-1.73,8.02-3.2,8.1-3.05Z"/>
  <g class="cls-13">
    <path class="cls-11" d="M1444.58,276.89c.19-1.16-.05-2.35-.68-3.35-13.32-27.84-36.46-49.78-64.98-61.59-23.58-9.68-51.72-15.44-74.81-8.4-7.87,2.41-9.42,10.36-3.77,16.16,11.75,11.72,30.14,27.5,47.13,32.24,18.83,5.31,39.02,2.56,57.86,7.53,11.29,3,21.7,8.63,30.4,16.42,1.21,1.29,2.71,2.28,4.37,2.9.85.33,1.8.32,2.64-.04.84-.36,1.5-1.04,1.84-1.88Z"/>
  </g>
  <path class="cls-2" d="M1233.82,56.86c.64,39.14-37.67,73.79-84.08,74.59-46.41.79-82.46-32.09-83.1-71.23-.64-39.14,35.15-55.83,81.48-56.5,38.61-.57,70.55,6.97,80.65,33.34,2.72,6.3,4.42,12.98,5.05,19.81Z"/>
  <path class="cls-6" d="M1231.26,47.97c.45,27.27-35.49,49.99-80.31,50.74-44.83.75-81.56-20.72-82.01-47.99-.45-27.27,35.49-49.95,80.31-50.7,44.83-.75,81.48,20.72,82.01,47.95Z"/>
  <path class="cls-2" d="M1231.33,45.11c-1.58,1.47-8.7-5.16-23.2-7.76-8.32-1.59-16.85-1.68-25.2-.26-4.76.85-9.38,2.33-13.75,4.41-4.74,2.18-9.68,5.01-15.07,7.91-2.67,1.47-5.42,2.9-8.25,4.22-2.82,1.32-5.8,2.41-8.63,3.43-5.5,1.89-11.16,3.3-16.91,4.22-5.19.83-10.45,1.2-15.71,1.09-2.45,0-4.86-.26-7.16-.45-2.3-.19-4.48-.57-6.52-1.05-6.58-1.24-12.83-3.8-18.39-7.53-1.55-1.02-2.93-2.3-4.07-3.77-.79-.98-1.05-1.7-.79-2.11,1.13-1.81,9.76,2.79,24.52,3.43,19.34.59,38.48-4.19,55.26-13.82,5.24-2.98,10.64-5.7,16.16-8.14,5.57-2.42,11.48-4,17.52-4.67,10.04-1.07,20.18.14,29.69,3.54,6.42,2.14,12.25,5.75,17.02,10.55.79.9,1.47,1.73,2.03,2.45.57.72.87,1.47,1.17,2.07.53,1.21.6,1.96.26,2.26Z"/>
  <path class="cls-6" d="M1186.43,24.28c-5.91.44-11.76,1.58-17.4,3.39-6.08,2.17-11.97,4.81-17.63,7.91-6.48,3.39-13.45,7.53-21.28,10.89-7.4,3.25-15.35,5.08-23.43,5.39-6.54.28-13.08-.06-19.55-1.02-5.5-.72-9.95-1.58-12.96-2.22-1.6-.23-3.18-.62-4.71-1.17,1.61-.03,3.23.11,4.82.41,3.09.41,7.53,1.05,12.99,1.62,6.42.7,12.88.9,19.32.6,7.8-.43,15.46-2.26,22.6-5.42,7.53-3.35,14.69-7.53,21.25-10.66,5.78-3.02,11.8-5.54,18.01-7.53,4.24-1.29,8.61-2.06,13.03-2.3,1.64-.16,3.3-.12,4.93.11Z"/>
  <path class="cls-6" d="M1226.21,43.53c0,.3-4.67-1.77-12.4-3.77-10.02-2.54-20.46-3-30.66-1.36-11.9,2-21.36,8.21-28.52,11.68-2.82,1.49-5.75,2.75-8.78,3.77-1.08.44-2.22.72-3.39.83,0-.3,4.59-1.85,11.49-5.84,6.89-3.99,16.42-10.28,28.89-12.43,10.46-1.71,21.18-1.03,31.34,2,3.06.89,6.04,2.01,8.93,3.35,1.12.42,2.16,1.02,3.09,1.77Z"/>
  <path class="cls-8" d="M1228.06,62.29s0,.57-.57,1.54c-.7,1.4-1.48,2.76-2.33,4.07-3.32,4.76-7.32,9.01-11.87,12.62-10.88,8.34-23.48,14.14-36.88,16.99-5.35.98-10.76,1.62-16.2,1.92-19.07,1.21-38.19-1.63-56.09-8.32-5.34-2.09-10.4-4.84-15.07-8.17-1.33-.88-2.59-1.87-3.77-2.94-.83-.72-1.21-1.13-1.17-1.17.04-.04,1.84,1.28,5.23,3.5,4.81,3.06,9.94,5.59,15.3,7.53,17.8,6.17,36.65,8.73,55.45,7.53,18.87-.57,37.11-6.86,52.32-18.04,4.53-3.45,8.6-7.48,12.09-11.98,2.45-3.16,3.39-5.16,3.54-5.09Z"/>
  <g class="cls-13">
    <path class="cls-11" d="M1193.06,16.29c-.39-.77-1.04-1.37-1.84-1.7-19.75-10.66-42.75-13.64-64.57-8.36-18.01,4.41-37.07,13.07-47.61,27.12-.9.94-1.5,2.12-1.74,3.4-.24,1.28-.09,2.6.42,3.8.51,1.2,1.36,2.22,2.44,2.93,1.09.72,2.36,1.1,3.66,1.1,11.94,1.85,29.61,3.16,41.44-1.24,13.3-4.93,24.04-15.07,37.26-20.34,7.92-3.06,16.45-4.21,24.9-3.35,1.24.3,2.53.3,3.77,0,.36-.07.7-.22,1-.43.3-.21.54-.49.72-.81.18-.32.29-.67.32-1.04.03-.36-.02-.73-.15-1.07Z"/>
  </g>
  <path class="cls-2" d="M616.91,62.33c21.96,16.46,24.71,52.74,5.23,78.65-19.47,25.92-53.22,31.91-75.34,15.44-22.11-16.46-15.82-43.47,3.77-69.5,16.23-21.66,34.16-36.09,53.26-30.14,4.61,1.16,9.03,3.03,13.07,5.54Z"/>
  <path class="cls-6" d="M604.48,126.23c18.83-25.17,21.69-54.86,6.39-66.31-15.31-11.46-42.99-.34-61.82,24.83-18.83,25.17-21.69,54.86-6.39,66.31,15.31,11.46,42.98.34,61.82-24.83Z"/>
  <path class="cls-2" d="M609.19,58.67c0,1.47-6.63,2.6-14.28,9.49-4.45,3.93-8.17,8.62-10.96,13.86-1.59,3-2.76,6.21-3.47,9.53-.83,3.77-1.4,7.53-2.11,11.75-.34,2.11-.72,4.26-1.21,6.37-.49,2.13-1.1,4.23-1.81,6.29-1.31,3.91-2.96,7.69-4.93,11.3-1.74,3.25-3.8,6.33-6.14,9.19-1.06,1.36-2.22,2.56-3.32,3.77-1.09,1.21-2.22,2.22-3.39,3.16-3.52,3.1-7.61,5.47-12.05,6.97-1.22.41-2.49.64-3.77.68-.9,0-1.39,0-1.5-.45-.53-1.43,5.72-4.22,12.43-12.13,8.63-10.49,14.17-23.16,16.01-36.61.68-4.11,1.36-8.32,2.45-12.47,1.05-4.13,2.71-8.08,4.93-11.72,3.7-6.07,8.72-11.22,14.69-15.07,3.95-2.64,8.47-4.31,13.18-4.9h2.22c.56.04,1.11.12,1.66.23,1.02.11,1.36.41,1.36.75Z"/>
  <path class="cls-6" d="M578.49,74.72c-2.16,3.59-3.98,7.37-5.42,11.3-1.36,4.3-2.39,8.69-3.09,13.15-.9,5.05-1.62,10.66-3.09,16.5-1.38,5.54-3.8,10.77-7.12,15.41-2.7,3.74-5.74,7.22-9.08,10.4-2.79,2.71-5.2,4.75-6.86,6.14-.83.79-1.75,1.47-2.75,2.03,2.69-3.22,5.57-6.27,8.63-9.15,7.15-6.98,12.34-15.7,15.07-25.31,1.43-5.65,2.22-11.3,3.24-16.31.78-4.53,1.98-8.98,3.58-13.3,1.12-2.91,2.59-5.67,4.41-8.21.68-1.01,1.52-1.9,2.48-2.64Z"/>
  <path class="cls-6" d="M606.25,60.82c0,.26-2.9,1.96-7.27,5.42-5.63,4.5-10.32,10.07-13.79,16.39-2.97,6.58-4.93,13.56-5.84,20.72-.35,3.07-1.33,6.03-2.86,8.7-.3,0,.83-3.39,1.5-8.93.51-7.42,2.36-14.68,5.46-21.43,3.57-6.56,8.6-12.22,14.69-16.54,2.4-1.94,5.15-3.41,8.1-4.33Z"/>
  <path class="cls-8" d="M617.44,67.82c.92,1.2,1.59,2.57,1.96,4.03,1.28,3.88,1.95,7.93,2,12.02,0,9.65-2.17,19.18-6.37,27.88-1.73,3.4-3.69,6.68-5.84,9.83-7.54,11.12-17.36,20.51-28.82,27.54-3.54,2.09-7.34,3.71-11.3,4.82-1.41.49-2.88.76-4.37.79,5.18-1.69,10.15-3.98,14.81-6.82,11.02-7.23,20.51-16.56,27.91-27.46,7.76-10.65,12.14-23.4,12.55-36.58.05-3.97-.41-7.93-1.36-11.79-.64-2.75-1.32-4.18-1.17-4.26Z"/>
  <g class="cls-13">
    <path class="cls-11" d="M576.9,67.48c-.6-.09-1.2.02-1.73.3-14.39,6.39-25.92,17.85-32.4,32.21-5.27,11.87-8.66,26.14-5.42,38.05.17.87.58,1.68,1.19,2.33.61.65,1.39,1.11,2.25,1.32.87.22,1.77.18,2.62-.1.84-.28,1.59-.8,2.15-1.49,6.14-5.84,14.47-15.07,17.14-23.58,2.98-9.46,1.92-19.85,4.74-29.38,1.73-5.65,4.76-10.81,8.85-15.07.67-.59,1.18-1.32,1.51-2.15.11-.22.17-.46.18-.7,0-.24-.03-.49-.11-.72-.09-.23-.22-.44-.38-.62-.17-.18-.37-.32-.59-.42Z"/>
  </g>
  <path class="cls-2" d="M736.06,915.12c4.44,27.05-18.83,55-50.74,60.27-31.91,5.27-60.5-13.9-64.9-40.98-4.41-27.09,18.83-42.3,50.78-47.58,26.75-4.37,49.69-2.3,59.37,15.07,2.54,4.08,4.4,8.54,5.5,13.22Z"/>
  <path class="cls-6" d="M682.89,952.49c31.02-5.08,53.66-24.49,50.57-43.36-3.09-18.87-30.74-30.05-61.77-24.96-31.02,5.08-53.66,24.49-50.57,43.36,3.09,18.86,30.74,30.05,61.77,24.96Z"/>
  <path class="cls-2" d="M733.16,907.21c-.94,1.17-6.55-2.71-16.87-3.05-5.94-.27-11.87.53-17.52,2.37-3.23,1.07-6.3,2.58-9.12,4.48-3.05,2-6.18,4.44-9.65,7.01-1.69,1.28-3.47,2.56-5.31,3.77s-3.77,2.26-5.61,3.24c-3.63,1.86-7.41,3.41-11.3,4.63-3.52,1.12-7.14,1.92-10.81,2.37-1.69.26-3.39.3-5.01.42-1.62.11-3.16,0-4.63,0-4.69-.21-9.28-1.35-13.52-3.35-1.16-.53-2.23-1.24-3.16-2.11-.68-.6-.94-1.06-.79-1.36.64-1.39,7.08.94,17.4,0,13.48-1.57,26.26-6.86,36.92-15.26,3.34-2.61,6.81-5.05,10.39-7.31,3.62-2.25,7.56-3.94,11.68-5.01,6.85-1.77,14.01-1.96,20.94-.57,4.67.85,9.08,2.77,12.88,5.61.64.53,1.21,1.06,1.66,1.47.45.42.76.94,1.02,1.32.26.38.75,1.06.41,1.32Z"/>
  <path class="cls-6" d="M699.89,897.3c-4.02,1.07-7.93,2.5-11.68,4.29-3.95,2.14-7.73,4.59-11.3,7.31-4.15,3.01-8.55,6.56-13.67,9.76-4.83,3.03-10.18,5.11-15.79,6.14-4.53.83-9.14,1.24-13.75,1.24-3.77,0-7.05-.19-9.23-.34-1.14.01-2.26-.14-3.35-.45,4.17-.41,8.35-.61,12.54-.6,10.01,0,19.85-2.59,28.55-7.53,4.97-3.13,9.42-6.59,13.64-9.57,3.71-2.72,7.65-5.09,11.79-7.08,2.82-1.31,5.8-2.27,8.85-2.86,1.11-.29,2.25-.39,3.39-.3Z"/>
  <path class="cls-6" d="M729.43,906.6c0,.3-3.47-.6-8.97-1.09-7.18-.7-14.43.06-21.32,2.22-6.63,2.65-12.83,6.28-18.38,10.77-2.36,1.99-5.12,3.45-8.1,4.26,0-.26,2.94-1.84,7.27-5.35,5.51-5.01,11.9-8.97,18.83-11.68,7.13-2.25,14.68-2.85,22.07-1.73,2.99.36,5.9,1.24,8.59,2.6Z"/>
  <path class="cls-8" d="M732.63,919.45c-.19,1.49-.65,2.93-1.36,4.26-1.77,3.67-4.1,7.05-6.89,10.02-4.15,4.42-8.95,8.18-14.24,11.15-3.09,1.79-6.33,3.32-9.68,4.56-3.62,1.25-7.32,2.24-11.08,2.98-13.13,2.86-26.72,2.86-39.85,0-3.93-.91-7.73-2.33-11.3-4.22-1.37-.64-2.64-1.47-3.77-2.49,4.91,2.37,10.08,4.18,15.41,5.39,12.96,2.41,26.27,2.25,39.18-.45,12.97-2.29,24.94-8.45,34.35-17.67,2.8-2.83,5.23-6.01,7.23-9.46,1.32-2.64,1.85-4.15,2-4.07Z"/>
  <g class="cls-13">
    <path class="cls-11" d="M703.66,891.09c-.35-.49-.88-.84-1.47-.98-14.79-5.39-31.05-5.12-45.65.75-12.06,4.9-24.37,12.81-30.14,23.66-.48.75-.73,1.61-.74,2.49,0,.89.24,1.75.71,2.5.47.75,1.14,1.35,1.94,1.73.8.38,1.69.53,2.57.43,8.48,0,20.83-.79,28.7-5.09,8.7-4.74,15.07-12.99,23.77-17.89,5.19-2.94,11-4.6,16.95-4.86.89.03,1.78-.13,2.6-.49.38-.22.66-.57.8-.99.14-.42.12-.87-.05-1.27Z"/>
  </g>
  <path class="cls-4" d="M458.77,603.44c8.4,26.14-10.36,57.18-41.44,67.13-31.08,9.95-61.85-4.86-70.22-31-8.36-26.14,12.28-44.6,43.25-54.51,25.8-8.25,48.97-9.61,60.95,6.22,3.1,3.64,5.62,7.74,7.46,12.17Z"/>
  <path class="cls-8" d="M412.35,650.71c29.94-9.59,49.48-32.12,43.65-50.33-5.83-18.21-34.83-25.19-64.76-15.61-29.94,9.59-49.48,32.12-43.65,50.33,5.83,18.21,34.83,25.19,64.76,15.61Z"/>
  <path class="cls-4" d="M454.74,596.06c-.75,1.32-6.89-1.69-17.14-.49-5.9.61-11.64,2.27-16.95,4.9-3.03,1.54-5.84,3.48-8.36,5.76-2.75,2.45-5.5,5.31-8.51,8.36-1.51,1.54-3.05,3.05-4.71,4.48-1.61,1.45-3.31,2.81-5.08,4.07-3.31,2.38-6.81,4.47-10.47,6.25-3.33,1.57-6.8,2.83-10.36,3.77-1.65.53-3.31.79-4.86,1.17-1.54.38-3.13.53-4.63.6-4.66.48-9.37.03-13.86-1.32-1.22-.37-2.37-.91-3.43-1.62-.75-.49-1.09-.9-.98-1.24.41-1.47,7.12,0,17.18-2.67,13.09-3.57,24.94-10.68,34.24-20.57,2.94-2.94,5.92-5.99,9.23-8.74,3.25-2.75,6.9-5,10.81-6.67,6.51-2.78,13.57-4.07,20.64-3.77,4.75.17,9.4,1.46,13.56,3.77.72.45,1.36.87,1.85,1.24.44.33.85.71,1.21,1.13.64.83.83,1.32.64,1.58Z"/>
  <path class="cls-4" d="M420.39,591.16c-3.81,1.65-7.45,3.66-10.89,5.99-3.61,2.7-7.01,5.67-10.17,8.89-3.77,3.77-7.53,7.76-12.09,11.68-4.34,3.7-9.34,6.55-14.73,8.4-4.35,1.48-8.83,2.55-13.37,3.2-3.77.6-7.01.9-9.19,1.05-1.12.18-2.27.18-3.39,0,4.06-1.03,8.17-1.84,12.32-2.45,9.92-1.47,19.27-5.53,27.12-11.75,4.44-3.77,8.33-7.91,12.09-11.3,3.28-3.23,6.83-6.17,10.62-8.78,2.59-1.71,5.39-3.09,8.32-4.11,1.07-.44,2.2-.72,3.35-.83Z"/>
  <path class="cls-4" d="M450.98,596.06c0,.3-3.5,0-9.04,0-7.2.39-14.26,2.21-20.76,5.35-6.23,3.64-11.88,8.2-16.76,13.52-2.1,2.32-4.67,4.17-7.53,5.43,0-.27,2.64-2.26,6.4-6.41,4.71-5.75,10.43-10.6,16.88-14.31,6.72-3.28,14.11-4.97,21.58-4.93,3.14-.15,6.27.31,9.23,1.36Z"/>
  <path class="cls-8" d="M456.02,608.26c.05,1.5-.19,3-.72,4.4-1.21,3.89-3,7.57-5.31,10.92-3.47,4.98-7.67,9.4-12.47,13.11-2.79,2.22-5.76,4.2-8.89,5.91-3.4,1.75-6.92,3.29-10.51,4.59-12.6,4.69-26.06,6.64-39.48,5.73-4.06-.31-8.06-1.16-11.9-2.52-1.42-.41-2.77-1.05-3.99-1.88,5.2,1.6,10.57,2.61,16.01,3.01,13.18.51,26.32-1.59,38.69-6.18,12.51-4.18,23.45-12.06,31.38-22.6,2.37-3.2,4.31-6.7,5.76-10.4.98-2.75,1.28-4.15,1.43-4.11Z"/>
  <g class="cls-13">
    <path class="cls-11" d="M423.18,584.46c-.41-.42-.96-.69-1.54-.75-15.48-3.15-31.58-.47-45.2,7.53-11.3,6.63-22.23,16.31-26.37,27.87-.37.81-.5,1.7-.37,2.58.12.88.49,1.7,1.07,2.37.57.68,1.32,1.17,2.17,1.44.85.26,1.75.28,2.6.05,8.4-1.17,20.53-3.77,27.65-9.27,7.91-5.99,13.03-15.07,20.87-21.21,4.71-3.67,10.22-6.17,16.08-7.31.89-.07,1.74-.37,2.48-.87.2-.12.37-.29.51-.48.14-.19.23-.4.28-.63.05-.23.06-.46.02-.69-.04-.23-.12-.45-.25-.65Z"/>
  </g>
  <path class="cls-4" d="M332.36,161.13c-6.55,35.97-48.07,60.68-90.67,52.74-42.6-7.95-69.69-44.3-63.13-80.27,6.55-35.97,42.64-44.71,85.06-36.95,35.48,6.44,63.36,19.29,67.8,45.54,1.31,6.23,1.63,12.62.94,18.95Z"/>
  <path class="cls-8" d="M331.07,155.74c-4.56,25.05-41.66,39.29-82.87,31.76-41.21-7.53-70.93-33.9-66.37-58.95,4.56-25.05,41.66-39.29,82.87-31.76,41.21,7.53,70.93,33.9,66.37,58.95Z"/>
  <path class="cls-4" d="M332.24,150.06c-1.7,1.05-7.01-6.37-19.81-11.3-7.33-2.98-15.14-4.63-23.05-4.86-4.52-.08-9.03.44-13.41,1.54-4.75,1.13-9.79,2.83-15.26,4.48-2.71.83-5.5,1.66-8.36,2.34-2.86.68-5.76,1.17-8.51,1.58-5.38.73-10.81.98-16.24.75-4.92-.16-9.82-.79-14.62-1.88-2.26-.41-4.41-1.13-6.48-1.7-2.07-.57-4.14-1.54-5.8-2.26-5.79-2.33-11.05-5.82-15.44-10.25-1.22-1.18-2.25-2.54-3.05-4.03-.57-1.05-.68-1.77-.38-2.11,1.39-1.47,8.48,4.33,21.89,7.53,17.64,4.04,36.05,3.11,53.19-2.67,5.27-1.62,10.66-3.35,16.27-4.52,5.55-1.19,11.26-1.54,16.91-1.02,9.33.84,18.35,3.79,26.37,8.63,5.6,3.09,10.39,7.47,13.98,12.77.57.98,1.05,1.85,1.43,2.6.28.68.51,1.39.68,2.11.15,1.17.08,1.88-.3,2.26Z"/>
  <path class="cls-4" d="M294.91,122.6c-5.51-.63-11.07-.63-16.57,0-5.96.91-11.84,2.27-17.59,4.07-6.52,1.92-13.67,4.37-21.47,6.06-7.42,1.67-15.09,1.9-22.6.68-6.04-.95-11.98-2.47-17.74-4.52-4.9-1.7-8.78-3.31-11.3-4.44-1.44-.52-2.82-1.2-4.11-2.03,1.48.27,2.93.69,4.33,1.24,2.75.94,6.71,2.34,11.64,3.77,9.72,2.9,24,6.82,39.36,3.28,7.53-1.7,14.8-4.07,21.4-5.91,5.85-1.79,11.85-3.05,17.93-3.77,4.11-.42,8.26-.33,12.36.26,1.51.24,2.98.68,4.37,1.32Z"/>
  <path class="cls-4" d="M327.84,147.49c0,.26-3.99-2.45-10.7-5.61-8.7-4.18-18.16-6.53-27.8-6.89-11.3-.34-21.06,3.77-28.29,5.46-2.85.85-5.76,1.48-8.7,1.88-1.08.19-2.19.19-3.28,0,0-.3,4.52-.87,11.6-3.28,7.08-2.41,17.03-6.33,28.7-5.99,9.92.32,19.63,2.89,28.4,7.53,2.62,1.39,5.13,2.97,7.53,4.71,1.73,1.28,2.6,2.07,2.52,2.18Z"/>
  <path class="cls-8" d="M326.1,165.12s-.23.49-.79,1.32c-.88,1.18-1.85,2.29-2.9,3.32-3.89,3.78-8.32,6.95-13.15,9.42-7.12,3.62-14.74,6.16-22.6,7.53-4.66.85-9.39,1.3-14.13,1.36-5.04-.08-10.08-.48-15.07-1.21-17.82-2.37-34.94-8.49-50.21-17.97-4.56-2.92-8.74-6.4-12.43-10.36-1.01-1.08-1.94-2.22-2.79-3.43-.6-.79-.98-1.28-.98-1.28,4.98,5.32,10.63,9.96,16.8,13.82,15.17,8.93,31.97,14.74,49.42,17.1,17.37,2.95,35.23.53,51.19-6.93,4.79-2.29,9.25-5.22,13.26-8.7,2.94-2.52,4.26-3.99,4.37-3.99Z"/>
  <g class="cls-13">
    <path class="cls-11" d="M302.41,116.45c-.21-.77-.69-1.44-1.36-1.88-16.17-13.37-36.71-20.31-57.67-19.48-17.29.75-36.31,5.2-48.56,16.12-.95.71-1.68,1.68-2.09,2.8-.42,1.11-.5,2.32-.25,3.48s.83,2.23,1.66,3.07c.84.84,1.9,1.43,3.06,1.69,10.62,3.77,26.56,8.32,38.31,6.44,13.07-2.07,24.79-9.53,37.67-11.83,7.83-1.35,15.87-.83,23.47,1.51,1.1.43,2.29.61,3.47.53,1.39-.23,2.52-1.28,2.3-2.45Z"/>
  </g>
  <path class="cls-4" d="M1699.56,96.42c25.65,26.07,22.04,74.25-8.81,104.65-30.85,30.4-76.51,31.38-102.16,5.5-25.65-25.88-12.17-60.27,18.83-90.82,25.69-25.31,52.21-40.72,76.2-29.23,5.8,2.45,11.17,5.79,15.93,9.91Z"/>
  <path class="cls-8" d="M1672.74,180.46c29.85-29.4,39.56-67.95,21.69-86.09-17.87-18.14-56.55-9.01-86.4,20.4-29.85,29.4-39.56,67.95-21.69,86.09,17.87,18.14,56.55,9.01,86.4-20.39Z"/>
  <path class="cls-4" d="M1690.3,90.09c0,2-9.19,2.07-20.68,9.68-6.65,4.27-12.49,9.71-17.21,16.05-2.68,3.65-4.85,7.64-6.48,11.87-1.81,4.52-3.32,9.61-5.08,15.07-.87,2.71-1.81,5.46-2.9,8.17-1.12,2.7-2.37,5.34-3.77,7.91-2.45,4.84-5.31,9.47-8.55,13.82-2.99,3.91-6.32,7.55-9.95,10.89-1.66,1.58-3.47,2.94-5.12,4.29-1.66,1.36-3.39,2.52-5.12,3.5-5.24,3.38-11.11,5.67-17.25,6.74-1.68.31-3.39.38-5.09.19-1.17-.19-1.81-.45-1.88-.9-.42-2,8.4-4.44,18.83-13.52,13.47-12.15,23.3-27.8,28.4-45.2,1.63-5.39,3.53-10.7,5.69-15.9,2.2-5.23,5.18-10.1,8.85-14.43,6.09-7.2,13.72-12.93,22.34-16.76,5.74-2.66,12.02-3.95,18.35-3.77.98.06,1.96.17,2.94.34.72.15,1.43.37,2.11.64,1.09.41,1.58,1.02,1.58,1.32Z"/>
  <path class="cls-4" d="M1646.52,104.85c-3.7,4.13-6.92,8.67-9.61,13.52-2.71,5.36-5.01,10.91-6.89,16.61-2.19,6.44-4.3,13.71-7.53,21.09-2.91,7-7.11,13.4-12.4,18.83-4.26,4.39-8.91,8.37-13.9,11.9-4.22,3.05-7.76,5.31-10.21,6.86-1.24.87-2.56,1.6-3.96,2.18,1.06-1.07,2.23-2.02,3.5-2.83,2.33-1.73,5.76-4.14,9.83-7.31,7.98-6.29,19.4-15.75,25.31-30.36,3.01-7.19,5.2-14.43,7.53-20.91,1.92-5.79,4.35-11.4,7.27-16.76,2.03-3.62,4.5-6.97,7.34-9.98,1.11-1.11,2.35-2.07,3.69-2.86Z"/>
  <path class="cls-4" d="M1685.81,92.31c0,.3-4.29,1.85-10.73,5.5-8.41,4.75-15.76,11.16-21.62,18.83-6.74,9.04-9.15,19.32-11.75,26.37-.97,2.82-2.14,5.56-3.5,8.21-.45,1-1.06,1.92-1.81,2.71-.27,0,1.92-4.18,3.99-11.3,2.07-7.12,4.44-17.52,11.53-27.01,6.02-7.9,13.75-14.34,22.6-18.83,2.66-1.36,5.42-2.52,8.25-3.47.95-.51,1.98-.86,3.05-1.02Z"/>
  <path class="cls-8" d="M1699.19,103.8c.27.43.47.9.6,1.39.43,1.41.78,2.85,1.06,4.29.8,5.36.8,10.8,0,16.16-1.1,7.94-3.38,15.68-6.78,22.94-1.98,4.31-4.33,8.44-7.01,12.36-3.02,4.12-6.3,8.03-9.83,11.72-12.15,13.15-26.95,23.56-43.43,30.55-4.99,2.05-10.22,3.48-15.56,4.26-1.46.2-2.93.3-4.4.3h-1.51c7.2-1.03,14.24-2.98,20.95-5.8,16.03-7.29,30.46-17.68,42.45-30.59,12.38-12.54,20.66-28.54,23.77-45.88.87-5.24,1.03-10.57.49-15.86-.34-3.8-.98-5.8-.79-5.84Z"/>
  <g class="cls-13">
    <path class="cls-11" d="M1645.81,95.25c-.75-.3-1.58-.3-2.33,0-20.19,5.55-37.62,18.34-48.97,35.94-9.34,14.62-16.65,32.73-14.73,48.97.03,1.18.41,2.33,1.08,3.31.67.98,1.6,1.74,2.7,2.2,1.09.46,2.29.6,3.46.39,1.17-.2,2.25-.74,3.12-1.54,9.27-6.44,22.07-16.91,27.31-27.61,5.84-11.9,6.48-25.8,12.09-37.67,3.41-7.1,8.41-13.32,14.62-18.16,1.01-.64,1.84-1.5,2.45-2.52.17-.27.28-.57.34-.88.05-.31.04-.63-.03-.94-.08-.31-.21-.6-.4-.86-.19-.26-.43-.47-.7-.63Z"/>
  </g>
  <path class="cls-2" d="M1159.76,864c26.07,29.19,19.66,80.5-15.07,111.35-34.73,30.85-83.4,29.57-109.47.38-26.07-29.2-9.87-65.24,24.71-96.1,28.82-25.73,57.97-40.8,82.87-27.24,6.23,2.94,11.95,6.86,16.95,11.6Z"/>
  <path class="cls-6" d="M1124.34,949.75c33.44-29.86,45.84-70.54,27.69-90.87-18.15-20.33-59.97-12.61-93.42,17.26-33.44,29.86-45.84,70.54-27.69,90.87,18.15,20.33,59.98,12.6,93.42-17.26Z"/>
  <path class="cls-2" d="M1150.23,856.69c-.27,2.15-9.99,1.77-22.6,9.27-7.34,4.22-13.87,9.73-19.25,16.27-3.06,3.76-5.6,7.91-7.53,12.36-2.18,4.74-4.07,10.09-6.25,15.82-1.09,2.82-2.22,5.72-3.5,8.55-1.28,2.82-2.83,5.65-4.3,8.25-2.94,5.03-6.3,9.79-10.06,14.24-3.43,4.02-7.21,7.73-11.3,11.07-1.88,1.62-3.77,2.98-5.73,4.33-1.82,1.26-3.71,2.41-5.65,3.46-5.78,3.37-12.19,5.52-18.83,6.33-1.81.28-3.65.28-5.46,0-1.25-.23-1.92-.6-1.96-1.06-.34-2.18,9.19-4.29,20.8-13.48,15.01-12.22,26.34-28.36,32.73-46.64,2.11-5.54,4.22-11.3,6.93-16.72,2.62-5.51,6.06-10.59,10.21-15.07,6.89-7.36,15.35-13.07,24.75-16.72,6.27-2.57,13.05-3.64,19.81-3.13,1.21,0,2.26.34,3.13.53.76.21,1.5.48,2.22.79,1.32.57,1.88,1.09,1.85,1.54Z"/>
  <path class="cls-6" d="M1102.65,870.25c-4.2,4.2-7.89,8.88-11,13.94-3.17,5.61-5.89,11.47-8.13,17.51-2.71,6.78-5.31,14.43-9,22.15-3.5,7.29-8.32,13.86-14.24,19.36-4.77,4.47-9.94,8.49-15.45,12.02-4.67,3.05-8.59,5.27-11.3,6.78-1.37.88-2.82,1.61-4.33,2.18,1.15-1.08,2.41-2.02,3.77-2.82,2.6-1.69,6.37-4.11,10.89-7.27,5.34-3.64,10.38-7.71,15.07-12.17,5.67-5.4,10.32-11.78,13.71-18.83,3.77-7.53,6.29-15.07,9.08-21.96,2.37-6.09,5.27-11.97,8.66-17.55,2.4-3.77,5.26-7.22,8.51-10.28,1.12-1.17,2.39-2.2,3.77-3.05Z"/>
  <path class="cls-6" d="M1145.29,858.84c0,.34-4.71,1.73-11.79,5.27-9.24,4.57-17.44,10.98-24.11,18.83-7.72,9.31-10.81,20.19-13.97,27.5-1.18,2.96-2.56,5.83-4.15,8.59-.52,1.07-1.22,2.03-2.07,2.86-.26-.19,2.3-4.41,4.93-11.94,2.64-7.53,5.69-18.53,13.71-28.25,6.83-8.08,15.4-14.52,25.05-18.83,2.9-1.33,5.9-2.44,8.97-3.32,1.1-.41,2.25-.65,3.43-.72Z"/>
  <path class="cls-8" d="M1159.16,871.84s.26.49.57,1.54c.38,1.52.67,3.07.87,4.63.62,5.76.38,11.57-.72,17.25-2.79,13.43-8.54,26.07-16.84,36.99-3.4,4.24-7.08,8.25-11,12.02-13.75,13.4-30.19,23.75-48.22,30.36-5.45,1.95-11.11,3.22-16.87,3.77-1.55.12-3.12.12-4.67,0-.55.05-1.11.05-1.66,0,2.06-.39,4.16-.66,6.25-.79,5.64-.82,11.17-2.26,16.5-4.29,17.53-6.93,33.5-17.29,46.98-30.47,13.92-12.75,23.63-29.44,27.84-47.84,1.2-5.55,1.64-11.24,1.32-16.91-.15-4.03-.72-6.22-.34-6.25Z"/>
  <g class="cls-13">
    <path class="cls-11" d="M1102.39,859.9c-.82-.29-1.71-.29-2.52,0-21.92,4.85-41.28,17.62-54.36,35.86-10.74,15.07-19.51,34.09-18.31,51.64-.01,1.27.33,2.51,1,3.58.67,1.08,1.62,1.93,2.77,2.48,1.14.55,2.41.76,3.67.6,1.26-.15,2.44-.66,3.42-1.47,10.24-6.4,24.48-16.91,30.66-28.1,6.82-12.39,8.25-27.2,14.88-39.7,4-7.5,9.72-13.96,16.69-18.83,1.12-.64,2.07-1.53,2.79-2.6.33-.56.45-1.22.33-1.86-.13-.64-.48-1.21-1.01-1.6Z"/>
  </g>
  <path class="cls-7" d="M1813.55,1419.51c0,.53-406,.98-906.74.98s-906.81-.64-906.81-.98,405.77-1.17,906.77-1.17,906.77.42,906.77,1.17Z"/>
  <path class="cls-3" d="M1748.95,366.9c-2.77,24.71-7.66,49.13-14.62,73-7.58,23.7-19.22,46.48-36.74,64.13-29.77,30.02-72.3,42.05-113.05,52.94-3.45-24.07-1.59-48.61,5.44-71.88,7.03-23.28,19.07-44.74,35.26-62.88,32.58-35.92,75.29-57.91,123.66-55.51"/>
  <path class="cls-3" d="M1493.21,791.85c-28.29-18.01-55.86-37.67-78.35-62.61-22.49-24.94-39.78-55.37-44.41-88.6-5.65-40.27,6.75-84.42-12.69-120.13,38.27,20.27,77.9,41.66,103.48,76.62,19.51,26.71,29.23,59.56,32.96,92.4,3.73,32.85,1.65,66.07-.34,99.11"/>
  <g class="cls-14">
    <path class="cls-1" d="M1493.21,791.85c-28.29-18.01-55.86-37.67-78.35-62.61-22.49-24.94-39.78-55.37-44.41-88.6-5.65-40.27,6.75-84.42-12.69-120.13,38.27,20.27,77.9,41.66,103.48,76.62,19.51,26.71,29.23,59.56,32.96,92.4,3.73,32.85,1.65,66.07-.34,99.11"/>
  </g>
  <path class="cls-3" d="M1187.07,1374.31c1.69-4.15,73.53-97.56,83.36-117.76,9.83-20.19,103.44-230.57,103.44-230.57,0,0-5.95,26.6,7.34-18.01,13.3-44.6,48.71-123.78,75.53-158.02,26.82-34.24,52.13-140.17,66-186.16,13.86-45.99,61.25-115.46,61.25-115.46l12.66,5.16s-46.41,58.58-58.09,107.06c-11.68,48.48-41.06,144.65-60.27,183.68-19.21,39.02-29.19,55.9-46.86,87.43-17.67,31.53-72.29,173.88-73.98,178.06-1.69,4.18-36.16,112.74-60.27,156.18-24.11,43.43-79.56,127.25-79.56,127.25l-30.55-18.83Z"/>
  <path class="cls-3" d="M1483.11,919c-9.83-18.5-25.54-32.47-42.87-44.3-9.15-31.34-44.3-54.28-76.92-53.6-32.62.68-63.17,18.83-85.32,42.94-22.15,24.11-37.18,53.68-51.23,83.25-24.86,52.44-47.46,105.9-67.8,160.4,25.43-2.03,48.97-13.94,73.38-20.98,31.83-9.15,65.32-10.13,98.35-12.21,33.04-2.07,66.75-5.39,97-18.83,30.25-13.45,57.03-38.65,64.38-70.93,4.75-22.29,1.58-45.53-8.97-65.73Z"/>
  <path class="cls-3" d="M1474.76,813.33c12.51,32.1,15.74,66.94,21.62,100.92,5.88,33.98,15.07,68.71,37.1,95.23,12.88,15.52,29.5,27.46,44.19,41.44,17.82,16.8,32.74,36.31,47.58,55.79,10.3,12.76,19.55,26.34,27.65,40.61,14.01,26.37,19.97,55.9,25.77,85.06,12.13-45.73,24.25-91.47,36.35-137.23,8.21-30.92,16.46-62.49,14.5-94.43-1.7-27.35-10.89-53.75-22.41-78.62-10.47-22.41-23.17-44.26-41.25-61.17-22.6-21.1-52.17-33.3-82.38-39.55-30.21-6.25-61.29-6.93-92.14-7.53"/>
  <path class="cls-3" d="M1642.7,683.56c-27.27,2.82-53.12,14.13-76.13,29.04-23.02,14.92-42.57,32.62-62.27,50.85,20.09,16.86,43.6,29.14,68.91,36.01,25.31,6.86,51.81,8.14,77.66,3.74,25.85-4.4,50.44-14.37,72.05-29.22,21.61-14.85,39.74-34.22,53.12-56.78-42.34-19.13-87.2-38.57-133.35-33.64Z"/>
  <path class="cls-3" d="M1504.1,745.07c-36.92-15.07-65.51-51.12-67.43-90.9-2.18-45.84,28.21-86.19,41.44-130.15,20.09,33.03,35.02,68.95,44.26,106.49,5.3,19.25,7.37,39.25,6.14,59.18-1.31,20.08-9.38,39.12-22.9,54.02"/>
  <path class="cls-3" d="M1440.88,723.42c-20.98-35.56-51.72-66.37-89.95-81.86-51.64-20.95-109.96-12.09-164.92-2.94,6.55,27.91,13.18,56.01,24.82,82.19,11.64,26.18,28.63,50.7,52.36,66.79,30.14,20.42,67.8,25.43,104.16,28.48,36.35,3.05,73.91,4.97,106.64,20.34l9.08,2.6c-8.32-40.27-21.25-80.01-42.19-115.61Z"/>
  <path class="cls-7" d="M1169.03,1101.36s0-.3.49-.79,1.02-1.24,1.66-2.11l6.56-8.06c2.82-3.51,6.37-7.72,10.62-12.51,4.26-4.78,8.97-10.36,14.5-16.2,5.54-5.84,11.3-12.39,18.16-19.1,6.86-6.71,13.86-13.82,21.51-21.28,15.48-14.65,32.92-30.14,51.91-45.92,18.98-15.78,37.67-29.72,55-42.19,17.33-12.47,33.3-23.02,46.94-31.61,6.74-4.4,12.99-8.13,18.46-11.49,5.46-3.35,10.21-6.14,14.13-8.36l9-5.12,2.37-1.28c.27-.16.54-.3.83-.42-.22.23-.48.42-.76.57l-2.26,1.47-8.82,5.46c-3.77,2.3-8.55,5.2-13.94,8.63-5.39,3.43-11.6,7.23-18.27,11.71-13.52,8.7-29.35,19.55-46.64,31.91-17.29,12.36-35.82,26.67-54.81,42.23-18.98,15.56-36.39,31.19-51.91,45.73-7.53,7.53-15.07,14.31-21.62,21.1-6.56,6.78-12.77,13.03-18.27,18.83-5.5,5.8-10.4,11.3-14.69,15.97-4.3,4.67-7.95,8.85-10.85,12.28l-6.82,7.8-1.84,2.03-.64.72Z"/>
  <path class="cls-7" d="M1682.51,1225.36c.02-.45.08-.9.19-1.34.16-.98.41-2.29.69-3.92.66-3.45,1.6-8.49,2.57-15.06,2.82-18.54,4.39-37.3,4.69-56.12.12-12.98-.32-25.96-1.31-38.89-1.3-14.83-3.39-29.55-6.26-44.08-6.5-33.33-17.33-65.33-32.11-94.9-14.75-29.57-33.18-56.46-54.68-79.81-17.39-19.35-37.07-35.75-58.44-48.68-8.21-4.79-16.81-8.65-25.67-11.54-6.73-2.08-13.62-3.42-20.56-3.99-4.42-.22-8.84-.1-13.24.36l-3.41.4h-1.19c.37-.15.76-.23,1.16-.25l3.41-.58c4.4-.57,8.84-.75,13.27-.55,7.01.42,13.97,1.64,20.78,3.63,8.99,2.76,17.72,6.54,26.08,11.28,21.52,12.82,41.34,29.17,58.85,48.54,21.69,23.44,40.26,50.48,55.09,80.25,14.88,29.73,25.73,61.93,32.18,95.48,2.8,14.61,4.82,29.4,6.04,44.29.94,12.99,1.32,26.03,1.13,39.07-.41,18.88-2.16,37.69-5.23,56.23-1.06,6.56-2.13,11.57-2.88,14.98-.34,1.63-.63,2.94-.84,3.88-.07.44-.16.88-.28,1.31Z"/>
  <path class="cls-7" d="M1757.63,723.12c-.89.11-1.79.15-2.69.12h-7.7l-28.29.22c-31.08.01-62.13,1.63-92.91,4.82-30.77,3.32-60.69,10.06-88.71,19.99-8.44,3.06-16.61,6.51-24.46,10.32-2.85,1.3-4.91,2.41-6.39,3.16-.7.4-1.46.75-2.26,1.04.63-.47,1.32-.89,2.06-1.26,1.41-.77,3.27-1.98,6.19-3.35,7.77-3.97,15.9-7.54,24.33-10.71,28.01-10.22,58.04-17.12,88.98-20.42,30.86-3.26,62-4.79,93.17-4.58,11.95,0,21.61,0,28.29.19l7.7.14c.91.05,1.8.16,2.69.31Z"/>
  <path class="cls-7" d="M1504.04,746.09c-.27-.7-.47-1.42-.58-2.16l-1.16-6.28c-.93-5.47-2.2-13.4-3.67-23.19-2.89-19.62-6.54-46.77-10.1-76.85-3.56-30.07-6.3-57.32-7.98-77.08-.87-9.89-1.45-18.03-1.79-23.43-.17-2.64-.29-4.78-.38-6.4-.08-.74-.08-1.48,0-2.22.15.73.26,1.48.32,2.22,0,1.59.38,3.7.64,6.34.55,5.71,1.33,13.64,2.29,23.37,1.94,19.74,4.89,46.98,8.42,77.03,3.53,30.04,7,57.08,9.66,76.85,1.33,9.7,2.4,17.6,3.18,23.25.38,2.64.64,4.75.87,6.34.14.74.24,1.48.29,2.23Z"/>
  <path class="cls-7" d="M1219.01,656.19c.28.02.55.09.81.19l2.28.79,8.71,3.28c7.56,2.79,18.48,6.89,31.87,12.2,35.22,13.37,68.86,30.12,100.38,49.98,31.22,20.26,59.55,44.14,84.32,71.07,9.52,10.26,16.51,19.12,21.36,25.22l5.34,7.21,1.34,1.87c.16.22.3.45.42.69-.22-.17-.41-.37-.56-.59-.42-.46-.91-1.05-1.51-1.77l-5.62-7.02c-4.99-5.94-12.12-14.69-21.75-24.83-11.22-11.92-23.11-23.29-35.63-34.04-15.33-13.13-31.59-25.29-48.66-36.4-31.33-19.81-64.69-36.68-99.57-50.37l-31.62-12.69-8.57-3.48-2.21-.95c-.77-.23-1.12-.33-1.12-.36Z"/>
  <path class="cls-7" d="M1396.47,828.1c1.58.49,3.12,1.12,4.6,1.88,4.17,1.96,8.15,4.32,11.87,7.05,12.86,9.55,22.67,22.64,28.21,37.67l-.45-.53c6.44,3.7,12.51,8.01,18.12,12.88,8.66,7.6,16.09,16.49,22.04,26.37,4.82,8.07,8.55,16.74,11.07,25.8,1.67,6.09,2.69,12.34,3.05,18.65v5.16c.07.59.07,1.18,0,1.77-.38-2.27-.6-4.56-.64-6.86-.67-6.22-1.93-12.37-3.77-18.35-2.66-8.87-6.46-17.35-11.3-25.24-5.94-9.66-13.27-18.38-21.77-25.88-5.52-4.77-11.47-9.03-17.78-12.7h-.3v-.38c-2.93-8.16-7.17-15.79-12.54-22.6-4.26-5.43-9.15-10.32-14.58-14.58-5.06-3.7-10.34-7.08-15.82-10.13Z"/>
  <path class="cls-7" d="M1566.15,1037.88c-.5-.36-.95-.78-1.36-1.24-1.21-1.28-2.31-2.67-3.28-4.15-3.54-5.47-5.86-11.64-6.82-18.08-1.38-9.55-.94-19.28,1.28-28.67,2.14-10.62,5.99-21.88,8.78-33.9,4.64-20.62,5.31-41.93,1.96-62.79-1-6.35-2.34-12.64-4.03-18.83-.73-2.24-1.33-4.51-1.81-6.82,0,0,.34.53.76,1.66.41,1.13,1.09,2.75,1.77,4.93,1.98,6.17,3.54,12.46,4.67,18.83,3.82,21.04,3.35,42.63-1.39,63.47-2.86,12.17-6.71,23.36-8.93,33.9-2.27,9.17-2.83,18.68-1.66,28.06.8,6.32,2.87,12.41,6.1,17.89,2.34,3.77,4.11,5.57,3.96,5.72Z"/>
  <path class="cls-7" d="M1726.09,1033.4c-.19,0,0-1.32-.57-3.58-.82-3.14-2.35-6.04-4.48-8.48-3.22-3.65-6.78-7-10.62-9.98-4.64-3.79-9.48-7.32-14.5-10.58-9.18-5.88-18.9-10.85-29.04-14.84-7.8-3.01-12.81-4.44-12.7-4.74,1.28,0,2.56.21,3.77.64,2.3.53,5.58,1.47,9.57,2.83,16.17,5.64,31.17,14.23,44.22,25.31,3.89,3.11,7.42,6.64,10.55,10.51,2.16,2.67,3.58,5.85,4.15,9.23.22,1.24.1,2.51-.34,3.69Z"/>
  <path class="cls-7" d="M1626.76,687.33c-3.28.88-6.32,2.49-8.89,4.71-6.02,5.73-11.71,11.79-17.06,18.16-6.4,7.34-11.87,14.31-15.75,19.4-1.95,2.87-4.14,5.58-6.52,8.1,1.47-3.16,3.28-6.15,5.39-8.93,4.74-6.91,9.88-13.53,15.37-19.85,5.4-6.45,11.32-12.45,17.71-17.93,2.02-1.65,4.37-2.84,6.89-3.5.92-.33,1.91-.38,2.86-.15Z"/>
  <path class="cls-7" d="M1704.89,783.88c-1.51-.14-3-.44-4.44-.91-2.82-.64-6.86-1.81-11.79-3.43-12.81-4.35-25.23-9.76-37.14-16.16-14.01-7.53-26.07-15.07-34.69-20.94-4.29-2.86-7.76-5.24-10.09-6.93-1.29-.79-2.47-1.72-3.54-2.79,1.4.56,2.73,1.28,3.96,2.14l10.43,6.41c8.81,5.46,20.94,12.96,34.84,20.38,11.85,6.35,24.12,11.89,36.73,16.57,4.82,1.77,8.78,3.13,11.53,4.03,1.47.36,2.89.91,4.22,1.62Z"/>
  <path class="cls-3" d="M1618.35,1188.45c-25.35,16.76-51.04,33.3-78.88,45.47-27.84,12.17-58.16,19.85-88.48,18.04-51.34-3.09-96.92-32.43-139.79-60.84,19.3-22.57,43.3-40.66,70.33-52.98,27.02-12.33,56.41-18.59,86.11-18.37,59.22.83,113.87,22.26,150.68,68.67"/>
  <path class="cls-7" d="M1523.84,642.04s.45.75.68,2.3c.26,2.19.13,4.41-.38,6.55-2.1,6.89-5.56,13.3-10.17,18.83-4.82,6.71-9.27,12.7-12.54,16.99-1.64,2.44-3.55,4.69-5.69,6.71,1.24-2.67,2.77-5.2,4.56-7.53,3.02-4.48,7.27-10.58,12.09-17.29,4.44-5.36,7.95-11.42,10.4-17.93.7-2.82,1.05-5.72,1.06-8.62Z"/>
  <path class="cls-7" d="M1448.23,596.08c.38,0,.98,3.77,3.96,8.78,4.13,6.57,9.29,12.42,15.29,17.33,6.14,4.93,11.8,10.44,16.88,16.46,2.2,2.46,3.86,5.37,4.86,8.51-.3,0-2-3.16-5.91-7.53-5.35-5.65-11.07-10.95-17.1-15.86-6.11-5.04-11.22-11.19-15.07-18.12-1.11-2.15-1.94-4.43-2.49-6.78-.34-.89-.48-1.84-.41-2.79Z"/>
  <path class="cls-7" d="M1417.41,768.63c-1.85.68-3.75,1.21-5.69,1.58l-15.6,3.58c-13.22,2.98-31.49,6.93-51.68,11.3l-28.52,5.91c-8.74,1.73-16.61,3.54-23.39,4.33-5.36.81-10.81.67-16.12-.41-1.43-.33-2.83-.79-4.18-1.36-.49-.17-.94-.41-1.36-.72,0,0,2,.68,5.69,1.32,5.23.85,10.56.85,15.79,0,6.63-.98,14.5-2.9,23.24-4.74l28.48-6.07c20.19-4.26,38.5-7.98,51.76-10.62l15.75-2.98c1.9-.57,3.86-.95,5.84-1.13Z"/>
  <path class="cls-7" d="M1321.17,633.36c.49-.26,11.3,20.61,23.88,46.52,12.58,25.92,22.6,47.16,22.11,47.43-.49.26-11.3-20.61-23.88-46.56-12.58-25.96-22.56-47.16-22.11-47.39Z"/>
  <path class="cls-7" d="M1400.69,901.29c-2.19-.1-4.36-.35-6.52-.75-2.03-.3-4.59-.68-7.53-.98-2.94-.3-6.33-.79-10.06-1.02-7.53-.64-16.35-1.02-26.37-.94-10.71.2-21.4.97-32.02,2.3-10.62,1.47-21.17,3.52-31.57,6.14-9.53,2.48-18.04,5.16-25.05,7.76-3.54,1.17-6.67,2.52-9.45,3.58-2.79,1.06-5.12,2.07-7.05,2.9-1.96.96-3.99,1.76-6.07,2.41,1.85-1.16,3.77-2.19,5.76-3.09,1.88-.94,4.18-2.07,6.93-3.24,2.75-1.17,5.84-2.6,9.38-3.77,8.21-3.18,16.59-5.92,25.09-8.21,10.45-2.72,21.06-4.82,31.76-6.29,10.69-1.37,21.46-2.1,32.25-2.18,8.81-.02,17.61.45,26.37,1.39,3.77.3,7.08.87,10.06,1.28,2.98.42,5.46.91,7.53,1.32,2.22.28,4.41.74,6.56,1.4Z"/>
  <path class="cls-7" d="M1298.95,1076.19c5.74-4.74,10.86-10.18,15.26-16.2,4.66-6.63,8.45-13.81,11.3-21.4,3.44-9.28,6.05-18.85,7.8-28.59,3.77-20.8,5.54-40.01,8.93-53.57,1.24-5.37,2.81-10.65,4.71-15.82.64-1.81,1.28-3.2,1.65-4.14.38-.94.68-1.43.76-1.4-.43,1.97-1,3.91-1.69,5.8-1.17,3.77-2.64,9.12-4.07,15.86-3.05,13.52-4.71,32.66-8.36,53.6-1.76,9.88-4.45,19.56-8.02,28.93-2.95,7.67-6.9,14.92-11.75,21.55-3.24,4.45-7.04,8.46-11.3,11.94-1.19.98-2.45,1.87-3.77,2.68-.94.56-1.39.83-1.43.75Z"/>
  <path class="cls-7" d="M1407.78,1062.82c-3.56,1.62-7.27,2.89-11.08,3.77-9.05,2.44-18.23,4.39-27.5,5.84-9.26,1.45-18.59,2.42-27.95,2.9-3.87.38-7.77.38-11.64,0,3.82-.74,7.68-1.2,11.57-1.36,7.12-.72,16.95-1.77,27.72-3.5,10.77-1.73,20.49-3.77,27.5-5.24,3.73-1.1,7.53-1.9,11.38-2.41Z"/>
  <path class="cls-7" d="M1746.72,371.57c-.65.51-1.34.97-2.07,1.38-1.38.92-3.38,2.26-5.98,4-7.26,5.05-14.1,10.69-20.45,16.85-9.31,9.11-17.88,18.95-25.66,29.4-8.91,11.76-17.93,25.22-27.72,39.25-16.7,23.93-35.46,46.33-56.09,66.97-7.83,8-14.28,14.35-18.76,18.71-2.14,2.02-3.88,3.68-5.2,4.97-.59.6-1.22,1.14-1.9,1.63.46-.71,1-1.36,1.61-1.94l4.94-5.21c4.49-4.68,10.66-11.16,18.3-19.12,20.28-20.86,38.84-43.32,55.5-67.16,9.75-13.95,18.84-27.46,27.9-39.19,7.91-10.49,16.66-20.31,26.17-29.37,6.44-6.05,13.4-11.51,20.81-16.32,2.6-1.74,4.76-2.91,6.21-3.66.74-.49,1.54-.89,2.38-1.18Z"/>
  <path class="cls-7" d="M1733.35,441.09c-3.48,2.45-7.17,4.6-11.02,6.42-6.96,3.7-16.85,8.69-27.66,13.6-10.81,4.92-21.01,9.25-28.23,11.99-3.9,1.73-7.94,3.13-12.07,4.18,3.71-2.08,7.57-3.9,11.54-5.45,7.2-3.19,17.14-7.57,28.08-12.57,10.93-5,20.71-9.68,27.81-13.03,3.73-1.98,7.59-3.7,11.56-5.15Z"/>
  <path class="cls-7" d="M1687.49,430.57c-.86-2.63-1.33-5.36-1.4-8.13-.62-6.6-.77-13.25-.42-19.88.31-6.63,1.11-13.22,2.39-19.73.35-2.73,1.08-5.4,2.17-7.93.57.12-1.92,12.38-2.63,27.77-.72,15.39.48,27.82-.11,27.9Z"/>
  <path class="cls-7" d="M1618.35,1188.44c-1.05-.1-2.1-.28-3.13-.53l-8.85-1.88c-3.77-.87-8.51-1.88-14.01-2.86-5.5-.98-11.72-2.33-18.65-3.35l-10.88-1.73-11.83-1.58c-8.17-1.17-16.95-1.88-26.18-2.86-18.5-1.47-38.87-2.37-60.27-2.15-21.4.23-41.77,1.77-60.27,3.77-9.19,1.1-17.97,2.15-26.1,3.51-8.14,1.36-15.71,2.6-22.6,3.77-6.9,1.17-13.11,2.67-18.57,3.77-5.46,1.1-10.09,2.26-13.94,3.2l-8.78,2.11c-1.03.27-2.07.47-3.13.6.97-.42,1.98-.75,3.02-.98l8.7-2.45c3.77-1.06,8.44-2.33,13.9-3.54,5.46-1.21,11.6-2.86,18.53-4.15,6.93-1.28,14.43-2.9,22.6-4.11,8.17-1.21,16.91-2.52,26.14-3.77,18.5-2.07,38.91-3.77,60.27-3.77s41.92.79,60.46,2.37c9.27.98,18.08,1.77,26.37,3.01l11.83,1.69,10.89,1.88c6.97,1.13,13.18,2.49,18.65,3.77,5.46,1.28,10.17,2.18,13.97,3.17l8.78,2.26c1.06.19,2.09.46,3.09.83Z"/>
  <path class="cls-7" d="M1482.55,1119.81c0,.3-5.05,2.6-13.15,6.75-10.54,5.43-20.74,11.49-30.55,18.16-9.76,6.71-19.1,14.02-27.95,21.88-6.82,6.07-10.85,10.02-11.08,9.8.74-1.11,1.58-2.14,2.52-3.09,1.7-1.88,4.3-4.56,7.53-7.72,17.36-16.49,37.25-30.09,58.92-40.27,4.15-1.92,7.53-3.35,9.95-4.26,1.21-.57,2.49-.99,3.81-1.25Z"/>
  <path class="cls-7" d="M1549.98,1229.62c-1.45,0-2.89-.19-4.29-.56-3.88-.75-7.71-1.7-11.49-2.86-12.46-3.8-24.36-9.25-35.37-16.2-11.03-6.96-21.07-15.39-29.83-25.05-2.69-2.89-5.2-5.93-7.53-9.12-.94-1.16-1.73-2.42-2.37-3.77.3-.23,3.99,4.67,10.89,11.79,17.94,18.64,40.11,32.66,64.64,40.87,9.38,3.32,15.45,4.56,15.37,4.9Z"/>
  <path class="cls-7" d="M1352.36,1154.39c.26.49-10.09,7.08-20.87,17.78-5.42,5.24-10.24,10.17-13.9,13.56-1.84,2-3.95,3.75-6.25,5.2,1.51-2.25,3.26-4.32,5.24-6.18,3.39-3.77,8.06-8.7,13.56-14.01,4.65-4.58,9.69-8.74,15.07-12.43,2.18-1.65,4.59-2.97,7.16-3.92Z"/>
  <path class="cls-3" d="M308.51,887.13c-18.12-17.14-34.73-35.8-49.65-55.79-14.43-20.34-25.69-43.43-29.31-68.1-6.14-41.81,9.79-83.36,25.46-122.58,21.38,11.73,39.94,28,54.38,47.65,14.44,19.66,24.41,42.23,29.21,66.15,9.23,47.76,1.17,95.26-29.95,132.67"/>
  <path class="cls-3" d="M242.93,1175.6c-31.04,8.25-61.14,21.81-85.02,43.21-40.46,36.31-58.84,90.41-75.6,142.17,30.79,5.98,62.52,5.16,92.96-2.41,30.44-7.57,58.86-21.7,83.26-41.4,48.4-39.85,79.52-93.31,79.48-155.87-31.98,2.79-64.08,5.99-95.08,14.31Z"/>
  <path class="cls-3" d="M282.82,908.91c-56.5-49.39-139.38-51.27-209.18-79.1,21.99,59.41,52.98,115.09,91.88,165.1,20.04,25.77,42.49,50.22,69.84,68.07,27.35,17.86,60.27,28.67,92.67,25.39l3.16-.38c18.27-62.72.87-136.21-48.37-179.08Z"/>
  <path class="cls-3" d="M576.13,789.6c-8.14-36.08-22.86-70.29-37.67-104.27-64.04,32.81-131.2,68.48-168.61,129.92-27.72,45.47-35.82,101.07-30.14,154.03,5.69,52.96,22.9,100.12,45.39,148.41,22.15-41.44,66.87-77.9,102.08-108.98,35.22-31.08,70.48-65.32,86-109.65,12.28-34.92,11.07-73.38,2.94-109.47Z"/>
  <path class="cls-7" d="M102.38,1349.97s0-.3.53-.75l1.73-2.07,6.78-7.83c5.91-6.78,14.54-16.54,25.39-28.44,27.89-31.35,58.11-60.54,90.41-87.32,17.99-14.53,37.06-27.67,57.03-39.33,16.32-9.52,33.39-17.68,51.04-24.41,11.88-4.59,24.07-8.37,36.47-11.3,4.37-1.09,7.83-1.62,10.17-2.07l2.64-.49c.31-.04.63-.04.94,0l-.9.26-2.6.68c-2.3.6-5.73,1.24-10.06,2.45-12.28,3.17-24.36,7.09-36.16,11.72-17.49,6.9-34.42,15.14-50.63,24.67-19.77,11.71-38.66,24.85-56.5,39.33-32.2,26.73-62.48,55.68-90.63,86.64l-25.84,27.99-7.04,7.53-1.88,1.92c-.23.33-.53.61-.87.83Z"/>
  <path class="cls-7" d="M385.51,1145.92s-.34-.23-.87-.76l-2.37-2.41c-2.11-2.26-5.12-5.38-8.93-9.38-7.76-8.14-19.06-19.78-33.26-33.9-28.33-28.48-68.26-67.05-112.18-109.88-43.92-42.83-83.29-82.12-110.86-111.39-6.93-7.27-13.15-13.9-18.46-19.85-5.31-5.95-10.06-10.96-13.67-15.26l-8.44-9.83c-.9-1.05-1.62-1.92-2.15-2.6-.27-.27-.5-.57-.68-.91.31.23.59.49.83.79l2.3,2.45,8.81,9.57c3.77,4.22,8.48,9.19,13.9,15.07,5.42,5.88,11.68,12.43,18.83,19.66,27.8,29.01,67.28,68.03,111.24,110.82,43.96,42.79,83.66,81.55,111.76,110.3,14.09,14.35,25.24,26.18,32.85,34.47l8.66,9.65,2.22,2.52c.16.28.31.57.45.87Z"/>
  <path class="cls-7" d="M538.57,685.34c-.13.4-.32.78-.57,1.13l-1.81,3.28-7.16,12.47c-6.18,10.81-15.07,26.37-25.73,46.11-10.66,19.74-23.24,42.94-36.61,69.24-14.83,28.29-28.09,57.38-39.7,87.13-5.99,15.9-11.3,31.64-15.75,47.01-4.44,15.37-8.25,30.4-11.3,44.79-5.48,25.51-9.42,51.32-11.79,77.3-2,22.19-2.45,40.23-2.67,52.74v18.12c.06.42.06.86,0,1.28-1.21-24.07-.72-48.18,1.47-72.18,2.15-26.06,5.92-51.97,11.3-77.56,3.05-14.43,6.74-29.53,11.3-44.94,4.56-15.41,9.72-31.23,15.75-47.16,11.65-29.83,24.98-58.96,39.93-87.28,13.48-26.37,26.14-49.61,36.99-69.09,10.85-19.47,19.93-35.11,26.37-45.8,3.16-5.39,5.69-9.53,7.53-12.28.83-1.32,1.47-2.37,1.99-3.16.12-.39.27-.77.45-1.13Z"/>
  <path class="cls-7" d="M577.98,876.47s-.49.41-1.54,1.06c-1.06.64-2.6,1.62-4.63,2.67-5.82,3.12-11.8,5.91-17.93,8.36-15.41,6.44-37.67,12.54-62.04,19.4-20.92,5.39-41.09,13.35-60.05,23.7-5.66,3.27-11.1,6.92-16.27,10.92-1.82,1.57-3.72,3.06-5.69,4.44,0,0,.38-.53,1.28-1.4.91-.87,2.15-2.15,3.96-3.77,5-4.3,10.36-8.16,16.01-11.57,14.16-8.93,35.79-17.59,60.27-24.48,24.48-6.89,46.63-12.73,62.08-18.83,7.76-2.94,13.9-5.69,18.04-7.72,2.12-1.05,4.3-1.98,6.52-2.79Z"/>
  <path class="cls-7" d="M439.09,749.72c-3.53,5.11-6.27,10.72-8.14,16.65-1.82,6.49-2.72,13.19-2.67,19.93.06,8.26.9,16.5,2.52,24.6,1.66,8.66,3.77,16.88,5.01,24.45,1.34,6.71,2.2,13.51,2.56,20.34.22,4.6.02,9.22-.6,13.78-.15,1.7-.52,3.37-1.09,4.97.51-6.27.61-12.56.3-18.83-.55-6.75-1.53-13.45-2.94-20.08-1.5-7.53-3.5-15.71-5.16-24.41-1.65-8.23-2.46-16.61-2.41-25.01.02-6.89,1.08-13.73,3.13-20.3,1.41-4.42,3.5-8.61,6.18-12.4.7-1.05,1.5-2.03,2.37-2.94.64-.49.94-.79.94-.75Z"/>
  <path class="cls-7" d="M255.1,642.58c.35.8.62,1.63.79,2.49.49,1.84,1.13,4.26,1.96,7.23,1.66,6.52,3.77,15.6,6.74,26.67l21.58,88.15c8.4,34.47,15.75,65.73,19.55,88.71,1.96,11.3,3.2,20.79,3.77,27.24.38,3.24.57,5.76.72,7.53.09.86.09,1.73,0,2.6-.23-.84-.39-1.69-.49-2.56-.26-1.88-.6-4.33-1.05-7.53-.94-6.44-2.37-15.71-4.52-27.12-4.11-22.83-11.68-54.02-20.08-88.45-8.4-34.43-15.59-65.51-21.02-88.3-2.56-11.3-4.63-20.26-6.14-26.82-.64-3.01-1.17-5.46-1.58-7.31-.16-.83-.24-1.68-.23-2.52Z"/>
  <path class="cls-7" d="M325.8,722.63c-1.48,3.96-3.21,7.82-5.16,11.56-3.28,7.05-7.53,16.91-11.72,28.03-4.18,11.11-7.27,21.44-9.38,28.93-.99,4.11-2.25,8.15-3.77,12.09-.01-1.14.12-2.28.38-3.39.38-2.14,1.02-5.23,1.88-9.04,4.76-19.86,11.88-39.09,21.21-57.26,1.81-3.47,3.35-6.22,4.48-8.1.56-1.04,1.25-1.98,2.07-2.83Z"/>
  <path class="cls-7" d="M232.49,701.88c3.32,1.14,6.47,2.71,9.38,4.67,14.64,8.83,26.93,21.07,35.82,35.67,1.94,2.93,3.49,6.09,4.63,9.42-2.1-2.77-4.03-5.67-5.8-8.66-4.67-6.91-9.97-13.38-15.82-19.32-5.96-5.96-12.47-11.35-19.44-16.08-3.02-1.74-5.95-3.64-8.78-5.69Z"/>
  <path class="cls-7" d="M221.19,879.98c.76,1.7,1.34,3.49,1.73,5.31,1.09,3.77,2.45,8.7,4.11,14.62,3.43,12.39,8.21,29.46,13.75,48.25,5.54,18.8,10.77,35.71,14.62,47.95l4.48,14.54c.62,1.76,1.1,3.58,1.43,5.42-.89-1.65-1.61-3.4-2.15-5.2-1.28-3.35-3.01-8.25-5.09-14.32-4.18-12.17-9.64-29.04-15.07-47.88-5.42-18.83-10.1-35.93-13.18-48.4-1.54-6.25-2.75-11.3-3.5-14.8-.54-1.8-.92-3.64-1.13-5.5Z"/>
  <path class="cls-7" d="M127.02,942.05c-.75-.13-1.47-.37-2.15-.72l.26-.53c5.31,1.99,21.74,9.08,41.44,16.46,12.13,4.56,23.2,8.36,31.27,11.07,4.41,1.29,8.74,2.83,12.96,4.63-1.28-.03-2.55-.26-3.77-.68-2.3-.57-5.61-1.43-9.72-2.64-8.17-2.37-19.36-5.99-31.57-10.55-14.03-5.12-27.75-11.06-41.1-17.78l.23-.49c1.58.72,2.15,1.09,2.15,1.21Z"/>
  <path class="cls-7" d="M178.89,1359.84c.42-1.85,1.02-3.66,1.81-5.39,1.32-3.39,3.05-8.4,5.12-14.58,4.14-12.32,8.78-29.72,14.46-48.97,2.86-9.57,5.91-18.57,9.08-26.63,2.81-7.14,6.07-14.1,9.76-20.83,1.51-2.9,3.16-5.39,4.52-7.53,1.15-1.91,2.4-3.74,3.77-5.5,1.05-1.58,2.23-3.07,3.54-4.44-.83,1.7-1.81,3.33-2.94,4.86-1.02,1.51-2.22,3.39-3.47,5.65-1.24,2.26-2.83,4.74-4.22,7.53-3.51,6.74-6.62,13.68-9.3,20.8-3.05,8.06-6.03,17.02-8.93,26.56-5.65,19.06-10.51,36.42-15.07,48.71-2.22,6.18-4.14,11.07-5.69,14.39-.66,1.86-1.48,3.67-2.45,5.39Z"/>
  <path class="cls-7" d="M196.14,1247.17c-3.63.38-7.28.55-10.92.53-17.5.75-34.8,3.98-51.38,9.61-3.38,1.34-6.84,2.47-10.36,3.39,3.09-1.96,6.4-3.54,9.87-4.71,8.25-3.19,16.77-5.63,25.46-7.27,8.7-1.61,17.52-2.41,26.37-2.37,3.67-.17,7.35.11,10.96.83Z"/>
  <path class="cls-2" d="M877.99,1698c231.4,0,418.99-46.19,418.99-103.18s-187.59-103.18-418.99-103.18-418.99,46.19-418.99,103.18,187.59,103.18,418.99,103.18Z"/>
  <path class="cls-10" d="M884.93,1656.79c106.73,0,193.24-19.92,193.24-44.49s-86.52-44.49-193.24-44.49-193.24,19.92-193.24,44.49,86.52,44.49,193.24,44.49Z"/>
  <path class="cls-7" d="M1263.46,1594.82s-.38.57-1.17,1.62c-1.16,1.57-2.42,3.07-3.77,4.48-5.18,5.52-11.04,10.35-17.44,14.39-10.11,6.38-20.81,11.77-31.95,16.12-14.75,5.79-29.85,10.67-45.2,14.62-33.9,9.12-75.34,15.86-121.07,23.05-49.77,7.81-100.04,11.96-150.41,12.43-50.3.71-100.61-1.37-150.68-6.22-40.98-3.71-81.7-9.89-121.94-18.5-27.2-5.52-53.79-13.68-79.41-24.37-4.52-1.92-8.36-4-11.75-5.65-3.39-1.65-6.1-3.46-8.29-4.82l-4.82-3.35c-1.09-.75-1.62-1.21-1.62-1.21l1.73,1.06,4.93,3.16c2.22,1.32,5.05,2.83,8.33,4.63,3.28,1.81,7.27,3.77,11.79,5.5,25.67,10.37,52.25,18.31,79.41,23.69,40.19,8.44,80.84,14.5,121.75,18.16,50.08,4.75,100.38,6.77,150.68,6.06,50.26-.48,100.43-4.57,150.11-12.24,45.84-7.12,87.13-13.71,121.03-22.6,15.34-3.85,30.43-8.61,45.2-14.28,11.09-4.26,21.77-9.53,31.9-15.75,6.4-3.97,12.3-8.67,17.59-14.01,1.33-1.39,2.59-2.85,3.77-4.37l1.28-1.62Z"/>
  <path class="cls-5" d="M459.64,1148.74s-3.16,484.39,411.2,494.22h2.64c414.36-9.83,422.88-499.87,422.88-499.87l-836.71,5.65Z"/>
  <path class="cls-11" d="M474.48,1276.86s0,.76.3,2.26c.09,2.22.46,4.42,1.09,6.56,2.21,8.27,6.49,15.84,12.43,22,14.84,16.65,43.51,33.15,81.06,46.22,75.34,26.37,185.52,42.45,307.08,42.57,121.56.11,231.89-16.05,307.12-42.57,37.67-13.07,66.19-29.57,81.07-46.22,5.92-6.18,10.19-13.74,12.43-22,.6-2.14.96-4.34,1.1-6.56,0-1.5.3-2.26.3-2.26v2.26c-.03,2.24-.33,4.46-.91,6.63-2.07,8.4-6.29,16.12-12.24,22.41-14.84,16.99-43.58,33.9-81.18,47.05-75.34,26.94-185.82,43.13-307.57,43.21-121.75.08-232.19-16.27-307.57-43.21-37.67-13.26-66.3-30.14-81.18-47.05-5.94-6.3-10.15-14.01-12.24-22.41-.57-2.17-.88-4.39-.91-6.63-.19-1.5-.19-2.26-.19-2.26Z"/>
  <path class="cls-10" d="M858.59,1612.6c-60.53-10.92-104.53-17.78-178.33-62.94-49.42-30.14-85.54-73.45-120.54-119.56-35-46.11-56.77-103.33-85.02-153.24,30.14,144.24,121.33,359.59,396.2,366.11h2.64c61.96-1.47,114.82-13.75,159.98-33.45-55.19,1.77-120.62,12.92-174.94,3.09Z"/>
  <path class="cls-5" d="M877.99,1269.32c231.05,0,418.35-53.99,418.35-120.58s-187.3-120.58-418.35-120.58-418.35,53.98-418.35,120.58,187.3,120.58,418.35,120.58Z"/>
  <path class="cls-10" d="M518.78,1177.9c48.48-38.46,190.31-66.34,357.86-66.34s309.23,27.88,357.86,66.34c11.6-9.19,17.89-18.83,17.89-29.16,0-52.74-168.15-95.53-375.6-95.53s-375.56,42.75-375.56,95.53c-.34,10.17,5.91,19.96,17.55,29.16Z"/>
  <path class="cls-7" d="M1296.35,1148.74c-.36-6.16-1.98-12.19-4.74-17.7-3.67-6.53-8.33-12.44-13.83-17.52-7.62-6.85-15.94-12.87-24.82-17.97-40.04-23.13-105.14-42.15-186.69-53.94-44.54-6.32-89.4-10.25-134.37-11.75-51.62-1.91-103.3-1.05-154.82,2.6-56.94,3.73-113.48,12.11-169.06,25.05-14.43,3.43-28.82,7.53-43.17,12.21-14.44,4.63-28.56,10.16-42.3,16.57-14.07,6.23-27.28,14.26-39.29,23.88-6.02,4.81-11.25,10.53-15.52,16.95-4.54,6.28-6.99,13.83-6.99,21.58s2.44,15.3,6.99,21.58c4.26,6.43,9.5,12.16,15.52,16.99,12.02,9.62,25.22,17.64,39.29,23.88,13.79,6.37,27.97,11.87,42.45,16.46,14.35,4.6,28.74,8.74,43.17,12.21,55.59,12.95,112.14,21.32,169.1,25.01,51.52,3.67,103.2,4.55,154.82,2.64,44.98-1.52,89.85-5.45,134.4-11.79,81.55-11.75,146.61-30.81,186.65-53.94,8.88-5.04,17.2-11.02,24.82-17.82,5.5-5.06,10.17-10.96,13.82-17.48,2.77-5.52,4.38-11.54,4.75-17.71,0,0,0,1.58-.34,4.71-.61,4.59-1.98,9.05-4.07,13.18-3.62,6.61-8.27,12.58-13.79,17.71-7.58,6.9-15.89,12.96-24.78,18.08-40.08,23.43-105.25,42.68-186.88,54.66-44.59,6.42-89.49,10.43-134.52,12.02-51.67,2-103.42,1.19-155.01-2.45-57.1-3.65-113.79-12-169.51-24.97-14.46-3.43-28.93-7.53-43.32-12.21-14.55-4.63-28.8-10.16-42.68-16.54-14.22-6.3-27.55-14.43-39.67-24.19-6.19-4.93-11.57-10.8-15.93-17.4-4.72-6.59-7.26-14.49-7.26-22.6s2.54-16.01,7.26-22.6c4.39-6.59,9.76-12.46,15.93-17.4,12.14-9.73,25.48-17.84,39.7-24.15,13.86-6.38,28.1-11.89,42.64-16.5,14.43-4.63,28.86-8.78,43.32-12.24,55.73-12.95,112.42-21.29,169.51-24.94,51.57-3.63,103.31-4.45,154.97-2.45,45.02,1.56,89.93,5.58,134.52,12.02,81.67,11.94,146.91,31.23,186.88,54.66,8.9,5.11,17.22,11.15,24.82,18.04,5.52,5.13,10.17,11.12,13.79,17.74,2.09,4.13,3.47,8.59,4.07,13.18.08,3.05.15,4.63.15,4.63Z"/>
  <path class="cls-9" d="M876.45,1244.27c197.56,0,357.71-29.72,357.71-66.37s-160.15-66.37-357.71-66.37-357.7,29.72-357.7,66.37,160.15,66.37,357.7,66.37Z"/>
  <path class="cls-12" d="M1099.26,1130.18c-1.1.09-2.17.39-3.15.91-.98.51-1.84,1.22-2.54,2.07-3.77,5.23,1.54,12.54,7.53,15.07,10.21,4.56,21.96,3.24,33,1.73,11.04-1.51,22.6-3.05,33.07,1.21,10.47,4.26,18.19,16.65,13.45,26.78-2.94,6.33-9.76,9.91-16.39,12.28-43.17,15.48-91.8-1.84-136.59,8.06-31.6,6.97-37.22,42.94-69.58,42.38-20.6-.38-63.74-24.93-84.3-24.15-17.25.64-33.41,8.06-50.03,12.89-45.81,13.37-94.78,6.97-142.05.45-13.27-1.21-26.32-4.25-38.76-9.04-12.17-5.35-23.2-14.73-27.5-27.35-1.77-5.27-2.41-11.11-5.69-15.63-6.07-8.21-18.46-8.48-28.1-5.05-9.65,3.43-18.16,9.64-28.1,11.98-9.95,2.33-34.7,5.01-22.6-15.33l-.26.19-11.75,8.36c48.82,38.54,190.38,66.3,357.71,66.3s309.23-27.88,357.86-66.38c-24.64-19.28-72.48-35.93-135.23-47.72ZM857.62,1239.42c-2.18.49-4.47.26-6.52-.64-.79-.34-1.66-1.09-1.4-1.92.12-.22.28-.4.48-.55.19-.15.42-.26.66-.31,1.47-.63,3.07-.91,4.67-.79,1.14.14,2.22.58,3.13,1.28.23.14.43.34.57.57.15.23.25.48.29.75,0,.9-1.02,1.58-1.69,1.77l-.19-.15ZM881.42,1235.65c-5.39,1.17-11,.6-16.05-1.62-1.96-.87-4.07-2.67-3.35-4.67.26-.54.65-1.02,1.11-1.39.47-.38,1.02-.65,1.6-.79,3.64-1.57,7.61-2.24,11.56-1.96,2.74.36,5.34,1.44,7.53,3.13.59.36,1.09.85,1.46,1.43.37.58.61,1.24.69,1.92.11,2.3-2.41,3.58-4.56,4.03v-.07ZM1019.25,1223.86c-2.18.49-4.47.27-6.52-.64-.79-.34-1.66-1.09-1.36-1.88.1-.22.25-.42.44-.57.19-.16.41-.27.65-.33,1.48-.63,3.1-.9,4.71-.79,1.13.14,2.19.58,3.09,1.28.24.14.44.34.59.58.15.24.24.5.27.78.04.94-1.02,1.36-1.88,1.66v-.08ZM1053.16,1222.2c-9.2,1.98-18.8,1.02-27.42-2.75-3.31-1.47-6.97-4.6-5.76-8.02.47-.92,1.13-1.73,1.93-2.38.81-.65,1.74-1.12,2.74-1.39,5.61-2.07,13.9-4.52,19.74-3.35,4.75.59,9.26,2.44,13.07,5.35,1.02.61,1.88,1.43,2.53,2.41.65.99,1.07,2.1,1.24,3.27,0,3.92-4.44,6.14-8.14,6.93l.08-.07ZM1087.81,1213.16c-5.55.98-11.26.5-16.57-1.39-1.99-.76-4.18-2.3-3.47-4,.32-.49.74-.91,1.22-1.23.49-.32,1.03-.55,1.6-.65,3.82-1.34,7.86-1.9,11.9-1.66,2.8.26,5.49,1.18,7.87,2.67,1.13.72,2.18,1.66,2.22,2.83-.04,1.99-2.64,3.09-5.01,3.5l.22-.08Z"/>
  <path class="cls-11" d="M1064.42,1138.95h-1.17l-3.35-.3-12.92-1.39c-5.61-.64-12.43-1.36-20.42-2.07-7.98-.72-17.03-1.65-27.09-2.33-10.06-.68-21.06-1.62-32.89-2.18-11.83-.57-24.48-1.17-37.67-1.66-26.63-.75-55.9-.98-86.64-.23-30.74.75-59.97,2.56-86.64,4.59-26.67,2.03-50.4,4.63-70.4,7.16-10.02,1.13-19.02,2.45-26.97,3.5-7.95,1.06-14.73,2.07-20.3,2.9l-12.85,1.88-3.35.41c-.39.03-.78.03-1.17,0,.36-.15.74-.25,1.13-.3l3.31-.64,12.81-2.22c5.54-.98,12.36-2.07,20.27-3.2,7.91-1.13,16.95-2.6,26.97-3.77,19.96-2.71,43.85-5.31,70.4-7.53,26.56-2.22,55.87-3.77,86.64-4.74,30.78-.98,60.08-.49,86.64.38,13.3.57,25.99.98,37.67,1.84,11.68.87,22.83,1.54,32.89,2.41,10.06.87,19.1,1.81,27.09,2.64,7.98.83,14.8,1.66,20.38,2.41l12.88,1.73,3.35.53,1.39.19Z"/>
  <path class="cls-5" d="M1285.46,1277.76c1.88-.68,3.77-1.32,5.76-1.85l-8.17,2.22c5.3-1.42,10.75-2.15,16.24-2.18h-8.78c6.51.01,12.98.89,19.25,2.6l-8.44-2.3c7.1,1.98,13.91,4.88,20.26,8.63l-7.3-4.29c6.39,3.81,12.27,8.4,17.52,13.67l-5.88-5.91c4.85,4.91,9.07,10.4,12.58,16.35-1.43-2.41-2.82-4.82-4.22-7.23,4.12,7.24,7.33,14.96,9.57,22.98-.75-2.71-1.51-5.46-2.22-8.17,2.66,10.02,4.01,20.34,4,30.7v-8.78c-.07,12.85-1.85,25.63-5.27,38.01.79-2.83,1.54-5.65,2.3-8.48-3.96,14.13-9.74,27.69-17.18,40.34l4.3-7.31c-8.01,13.57-17.73,26.06-28.93,37.14l5.92-5.88c-10.62,10.44-22.5,19.51-35.37,27.01l7.23-4.18c-12.96,7.4-26.79,13.16-41.17,17.14l8.17-2.26c-15.41,4.18-31.3,6.33-47.28,6.4h8.78c-13.52-.02-26.99-1.56-40.16-4.59-6.42-.87-12.94.18-18.76,3.02-5.82,2.84-10.66,7.34-13.92,12.94-3.26,5.59-4.78,12.03-4.37,18.49.41,6.46,2.72,12.66,6.65,17.8l5.88,5.95c4.57,3.58,10.03,5.85,15.78,6.59,37.56,8.24,76.67,5.95,113.02-6.6,36.35-12.56,68.53-34.89,93-64.56,11.64-14.12,21.43-29.68,29.12-46.3,3.41-7.31,6.28-14.87,8.59-22.6,3.19-10.17,5.59-20.58,7.2-31.11,1.28-10.55,1.66-21.18,1.13-31.79-.27-7.91-1.35-15.78-3.24-23.47-4.89-19.66-12.58-38.83-26.37-54.17-6.25-7.29-13.34-13.8-21.13-19.4-7.91-5.65-16.47-10.33-25.5-13.94-8.94-3.51-18.3-5.82-27.84-6.89-6.14-.54-12.31-.64-18.46-.3-3.35.15-6.69.57-9.98,1.25-5.98,1.21-11.87,2.89-17.59,5.01-3.96,1.65-7.56,4.07-10.59,7.12-3.03,3.04-5.42,6.65-7.06,10.62-1.63,3.97-2.46,8.22-2.45,12.52.02,4.29.88,8.54,2.53,12.5,3.29,7.86,9.52,14.13,17.37,17.48,8.16,3.18,17.22,3.18,25.39,0l.11.08Z"/>
  <path class="cls-7" d="M1274.92,1280.47c-1.37.56-2.82.89-4.3.98-3.99.53-8.03.4-11.98-.38-5.97-1.14-11.42-4.18-15.52-8.66-2.45-2.67-4.2-5.91-5.09-9.42-.88-3.7-1.05-7.53-.49-11.3,1.09-7.23,3.4-14.22,6.82-20.68,2.81-5.34,6.97-9.86,12.05-13.11,3.42-2.12,7.29-3.41,11.3-3.77,1.46-.2,2.95-.08,4.37.34,0,0-1.58,0-4.3.41-3.83.66-7.47,2.13-10.7,4.29-4.79,3.24-8.68,7.65-11.3,12.81-3.24,6.29-5.43,13.07-6.48,20.08-.54,3.56-.41,7.19.38,10.7.83,3.23,2.4,6.23,4.59,8.74,3.82,4.27,8.88,7.23,14.47,8.48,3.82.87,7.73,1.2,11.64.98,1.49-.28,3-.44,4.52-.49Z"/>
  <path class="cls-7" d="M1212.65,1472.02s-.38.3-1.25.72c-1.2.6-2.46,1.07-3.77,1.39-4.93,1.18-10.05,1.4-15.07.64-6.4-.72-13.78-2.9-21.96-4.44-4.26-.81-8.59-1.14-12.92-.98-4.6.06-9.11,1.28-13.11,3.54-3.92,2.32-6.99,5.85-8.74,10.06-1.66,3.98-2.65,8.21-2.94,12.51-.94,7.32-.19,14.75,2.18,21.74,1.71,4.64,4.78,8.66,8.82,11.53,1.56.95,3.17,1.81,4.82,2.6,0,0-.53,0-1.43-.26-1.32-.41-2.59-.98-3.77-1.69-4.38-2.77-7.77-6.86-9.68-11.68-2.64-7.15-3.57-14.81-2.71-22.38.27-4.5,1.27-8.93,2.98-13.11,1.87-4.61,5.2-8.48,9.49-11,4.29-2.39,9.1-3.68,14.01-3.77,4.48-.11,8.97.26,13.37,1.13,8.32,1.69,15.52,3.96,21.81,4.82,4.9.88,9.91.88,14.81,0,3.2-.68,4.97-1.54,5.05-1.36Z"/>
  <path class="cls-9" d="M747.21,550.85c-20.98,45.2-84.15,63.44-137.6,38.58-53.45-24.86-76.51-82.57-55.53-127.7,20.98-45.13,71.27-44.34,124.72-19.48,44.56,20.72,76.85,47.2,73.61,83.29-.4,8.66-2.15,17.2-5.2,25.31Z"/>
  <path class="cls-12" d="M749.2,539.2c14.62-31.45-15.44-76.43-67.15-100.48-51.71-24.05-105.48-18.04-120.1,13.4-14.62,31.45,15.44,76.43,67.15,100.48,51.71,24.04,105.48,18.04,120.1-13.4Z"/>
  <path class="cls-9" d="M750.94,536.01c-2.86.87-7.53-10.51-22.6-21.32-8.61-6.29-18.27-11.02-28.52-13.98-5.86-1.63-11.92-2.46-18.01-2.49-6.59,0-13.75.34-21.55.68-7.91.49-15.86.26-23.73-.68-7.38-.9-14.67-2.46-21.77-4.67-6.5-1.92-12.81-4.44-18.83-7.53-5.24-2.68-10.21-5.86-14.84-9.49-6.86-5.15-12.58-11.67-16.8-19.14-1.18-2.02-2.02-4.23-2.49-6.52-.34-1.62,0-2.6.38-2.94,2.56-1.58,10.02,8.29,26.37,17.03,21.78,11.14,46.19,16.11,70.59,14.39,7.53-.34,15.07-.72,23.06-.3,7.81.33,15.52,1.85,22.86,4.52,12.16,4.38,23.16,11.49,32.13,20.8,6.18,6.12,10.81,13.62,13.52,21.88.38,1.5.68,2.82.91,3.99.09,1.02.09,2.04,0,3.05.34,1.62-.04,2.52-.68,2.71Z"/>
  <path class="cls-10" d="M751.2,536.01c0-.72-.42-.45-.68-1.28-2.78-8.15-7.44-15.53-13.6-21.55-4.11-4.28-8.7-8.07-13.67-11.3-5.71-3.81-11.86-6.91-18.31-9.23-7.27-2.59-14.89-4.08-22.6-4.41-7.8-.41-15.52,0-23.02.3-24.56,1.82-49.14-3.21-71.01-14.54-8.39-4.93-16.33-10.59-23.73-16.91l.72,1.28c4.28,7.35,10.01,13.76,16.84,18.83,2.07,1.73,4.48,3.17,6.89,4.86,2.41,1.69,5.09,3.09,7.95,4.44,5.95,3.08,12.16,5.6,18.57,7.53,7.06,2.16,14.3,3.69,21.62,4.59l5.84.57c2,0,3.96.22,5.95.3,3.99,0,7.91,0,11.79-.23,7.8-.3,15.07-.79,21.62-.68,6.18.06,12.32.93,18.27,2.6,5.48,1.61,10.79,3.74,15.86,6.37,4.5,2.28,8.78,4.95,12.81,7.99,5.96,4.37,11.28,9.54,15.82,15.37.79,1.06,1.66,1.77,2.33,2.6.68.83,1.25,1.58,1.77,2.15.53.57,1.4.27,1.96.34Z"/>
  <path class="cls-7" d="M711.16,487.23c-1.96-.58-3.88-1.32-5.73-2.18-5.21-1.81-10.61-3.08-16.08-3.77-8.16-.93-16.39-1.18-24.6-.75-9.27.23-19.51,1.02-30.36.57-10.24-.38-20.33-2.68-29.72-6.78-7.62-3.33-14.92-7.34-21.81-11.98-5.92-3.77-10.51-7.31-13.64-9.68-1.7-1.11-3.3-2.37-4.78-3.77,1.82.95,3.56,2.05,5.2,3.28,3.31,2.18,7.98,5.38,13.97,9.12,6.92,4.42,14.19,8.26,21.73,11.49,9.23,3.92,19.1,6.11,29.12,6.48,10.66.45,20.91-.26,30.14-.41,8.31-.34,16.63.07,24.86,1.21,5.55.84,10.97,2.34,16.16,4.48,1.81.79,3.16,1.58,4.07,2.07.52.15,1.01.37,1.47.64Z"/>
  <path class="cls-7" d="M745.93,531.34c-.27.26-4.26-4.71-11.94-11.3-10.03-8.6-21.74-15.01-34.39-18.83-14.81-4.37-29.08-2.49-39.21-2.41-4.05.14-8.1-.01-12.13-.45-1.49-.08-2.96-.37-4.37-.87,1.48-.15,2.97-.15,4.44,0,4,.15,7.99.09,11.98-.19,5.09-.26,11.3-.79,17.93-.87,7.4-.15,14.79.79,21.92,2.79,12.89,3.85,24.75,10.53,34.73,19.55,3.01,2.71,5.82,5.63,8.4,8.74,1.07,1.14,1.95,2.44,2.64,3.84Z"/>
  <path class="cls-7" d="M737.64,553.87s-.49.53-1.54,1.36c-1.59,1.21-3.25,2.33-4.97,3.35-6.44,3.55-13.35,6.15-20.53,7.72-10.68,2.27-21.63,2.93-32.51,1.96-6.43-.45-12.81-1.49-19.06-3.09-6.66-1.83-13.19-4.1-19.55-6.78-22.46-9.21-42.74-23.03-59.52-40.57-5.02-5.36-9.36-11.32-12.92-17.74-.97-1.74-1.82-3.54-2.56-5.38-.33-.62-.57-1.28-.72-1.96.19,0,1.36,2.56,3.96,6.97,3.76,6.21,8.21,11.97,13.26,17.18,16.89,17.07,37.04,30.57,59.25,39.7,21.96,9.86,46.4,12.77,70.07,8.36,7.1-1.42,13.98-3.79,20.45-7.05,4.56-2.41,6.82-4.18,6.9-4.03Z"/>
  <g class="cls-13">
    <path class="cls-11" d="M723.14,481.73c-.01-1.09-.43-2.14-1.17-2.94-16.69-23.18-41.34-39.38-69.24-45.5-23.09-4.93-49.65-5.61-69.58,4.56-6.78,3.5-6.86,11-.6,15.33,12.62,8.78,32.1,20.12,48.22,21.7,17.93,1.73,35.97-4.07,53.9-2.6,10.78.92,21.19,4.35,30.4,10.02,1.3.99,2.83,1.65,4.44,1.92.8.11,1.62-.08,2.29-.54.67-.46,1.14-1.16,1.33-1.95Z"/>
  </g>
  <g class="cls-13">
    <path class="cls-11" d="M584.03,498.83c.03,1.14.46,2.23,1.21,3.09,17.39,24.23,43.1,41.2,72.21,47.69,24.11,5.24,51.87,6.03,72.67-4.59,7.08-3.77,7.23-11.3.72-16.01-13.18-9.16-33.49-21.06-50.33-22.6-18.83-1.88-37.67,4.11-56.5,2.52-11.26-.96-22.13-4.58-31.72-10.55-1.36-1-2.93-1.68-4.59-1.99-.8-.09-1.6.11-2.27.56-.67.45-1.16,1.12-1.38,1.89Z"/>
  </g>
  <path class="cls-11" d="M735.45,485.65c-1.83-1.59-3.58-3.28-5.23-5.05-3.32-3.28-8.17-7.95-14.54-13.34-16.34-14.28-35.38-25.16-55.98-31.98-20.76-6.6-42.97-7.15-64.04-1.58-6.33,1.72-12.47,4.1-18.31,7.08-4.15,2.15-6.33,3.5-6.44,3.35-.11-.15.49-.45,1.51-1.17,1.02-.72,2.49-1.77,4.56-2.86,5.79-3.28,11.93-5.88,18.31-7.76,21.25-5.99,43.79-5.62,64.83,1.05,20.86,6.89,40.04,18.06,56.31,32.81,4.97,4.36,9.7,8.99,14.16,13.86,1.62,1.69,2.79,3.13,3.58,4.07.5.43.93.94,1.28,1.51Z"/>
  <path class="cls-9" d="M1225.49,415.92c25.24,63.21-15.75,143.14-90.59,173.28-74.85,30.14-153.88-1.24-179.12-64.45-25.24-63.21,22.6-112.44,97.53-142.35,62.38-24.9,119-32.21,151.84,4.82,6.74,7.23,16.12,18.2,20.34,28.7Z"/>
  <path class="cls-12" d="M1116.62,535.13c72.39-28.91,116.83-88.03,99.25-132.04-17.58-44.01-90.51-56.25-162.9-27.34-72.4,28.91-116.83,88.03-99.25,132.04,17.58,44.01,90.51,56.25,162.9,27.34Z"/>
  <path class="cls-9" d="M1214.19,398.37c-.45.9-1.85,1.36-4,1.47-1.26.07-2.51.07-3.77,0h-4.93c-9.94-.5-19.9.25-29.65,2.22-14.18,2.76-27.76,7.96-40.16,15.37-6.94,4.29-13.27,9.48-18.83,15.45-6.22,6.37-12.43,13.94-19.4,22.04-3.51,4.03-7.12,8.06-10.96,12.02-1.96,1.96-3.77,3.77-5.99,5.76l-6.29,5.08c-7.89,6.52-16.35,12.31-25.28,17.33-8.04,4.56-16.51,8.35-25.27,11.3-4.07,1.54-8.21,2.52-12.09,3.77-3.79.92-7.62,1.65-11.49,2.18-11.65,1.95-23.58,1.4-34.99-1.62-3.14-.77-6.13-2.04-8.85-3.77-1.88-1.28-2.71-2.41-2.52-3.43.94-4.37,17.74-2.9,41.62-11.3,31.15-11.44,58.68-31.02,79.71-56.69,6.67-7.72,13.56-15.86,21.4-23.32,7.77-7.59,16.67-13.94,26.37-18.83,8.54-4.24,17.56-7.45,26.86-9.57,8.03-1.85,16.24-2.79,24.48-2.79,11.99-.33,23.88,2.25,34.65,7.53,1.85,1.06,3.43,2.03,4.78,2.94,1.11.86,2.15,1.82,3.09,2.86,1.43,1.77,1.96,3.05,1.51,4Z"/>
  <path class="cls-10" d="M1214.46,398.07c-.87-.49-.83,0-1.92-.57-10.73-4.83-22.44-7.11-34.2-6.63-8.09.1-16.14,1.12-24,3.05-9.14,2.13-17.99,5.34-26.37,9.57-9.41,4.79-18.04,10.99-25.58,18.38-7.47,7.37-14.56,15.12-21.25,23.21-21.32,26.09-49.46,45.74-81.29,56.77-18.83,6.25-33.15,6.37-39.06,7.76l1.92.53c11.33,2.58,23.06,2.86,34.51.83,3.77-.45,7.53-1.47,11.3-2.3,3.77-.83,7.87-2.14,11.87-3.77,8.62-3.07,16.94-6.93,24.86-11.53,8.76-5.02,17.08-10.77,24.86-17.21l5.99-5.27c1.99-1.85,3.96-3.77,5.88-5.69,3.77-3.77,7.53-7.87,10.85-11.9,6.97-8.06,13.22-15.67,19.59-22.15,5.83-6.1,12.45-11.39,19.7-15.71,12.71-7.43,26.64-12.53,41.13-15.07,9.94-1.8,20.08-2.24,30.14-1.32,1.81.19,3.35,0,4.82,0s2.71.23,3.77.26c1.73.15,1.92-.64,2.49-1.24Z"/>
  <path class="cls-7" d="M1128.38,392.19c-.6.43-1.26.76-1.96.98-1.28.6-3.2,1.36-5.65,2.52-6.69,3.45-13,7.59-18.83,12.36-8.59,7.25-16.58,15.18-23.88,23.73-8.47,9.46-17.33,20.38-27.91,30.74-5.15,5.06-10.76,9.63-16.76,13.64-5.63,3.68-11.57,6.87-17.74,9.53-10.43,4.45-21.23,7.98-32.28,10.54-9.38,2.22-17.06,3.77-22.37,4.6l-6.1,1.02c-.72.18-1.45.25-2.18.23.68-.28,1.39-.48,2.11-.6l6.03-1.4c5.27-1.17,12.89-2.79,22.19-5.2,10.92-2.72,21.59-6.35,31.91-10.85,6.06-2.67,11.88-5.85,17.4-9.49,5.89-3.96,11.4-8.45,16.46-13.41,10.43-10.25,19.32-21.1,27.91-30.55,7.43-8.56,15.59-16.46,24.37-23.62,6.04-4.72,12.6-8.74,19.55-11.98,2.49-1.06,4.48-1.66,5.84-2.15.62-.27,1.27-.49,1.92-.64Z"/>
  <path class="cls-7" d="M1204.89,398.93c-2.02.14-4.05.14-6.07,0-5.47.04-10.94.35-16.38.94-17.97,1.9-35.35,7.55-51,16.57-8.5,5.16-16.22,11.51-22.94,18.83-6.29,6.67-11.57,13.07-16.24,18.27-3.63,4.16-7.54,8.06-11.71,11.68-1.12,1.01-2.3,1.93-3.54,2.79-.4.34-.84.63-1.32.87,1.36-1.51,2.81-2.92,4.37-4.22,3.99-3.8,7.76-7.83,11.3-12.05,4.52-5.27,9.68-11.75,15.97-18.57,6.77-7.48,14.6-13.93,23.24-19.14,15.84-9.15,33.49-14.69,51.72-16.23,5.5-.47,11.02-.58,16.53-.3,1.96,0,3.47.23,4.52.34.52-.01,1.05.06,1.54.22Z"/>
  <path class="cls-7" d="M1219.43,428.28c.11.94.11,1.89,0,2.83-.3,2.7-.78,5.38-1.43,8.02-2.49,9.72-6.4,19.02-11.6,27.61-7.77,12.71-17.38,24.2-28.52,34.09-6.5,5.92-13.49,11.28-20.91,16.01-8.05,4.87-16.41,9.22-25.01,13.03-35.48,15.67-70.7,21.73-96.02,21.28-10.02-.04-20-1.3-29.72-3.77-2.65-.64-5.25-1.44-7.8-2.41-.91-.28-1.79-.63-2.64-1.06,0-.23,3.77,1.13,10.62,2.75,9.7,2.1,19.61,3.1,29.53,2.98,32.87-.74,65.24-8.1,95.19-21.66,8.54-3.77,16.83-8.07,24.82-12.88,7.33-4.66,14.27-9.93,20.72-15.75,11.08-9.71,20.69-20.98,28.52-33.45,5.25-8.43,9.32-17.55,12.09-27.09.91-3.39,1.43-6.06,1.77-7.87.05-.9.18-1.8.38-2.68Z"/>
  <g class="cls-13">
    <path class="cls-11" d="M1134.14,375.13c-1.11-1-2.54-1.57-4.03-1.62-38.72-5.07-77.95,4.31-110.18,26.37-26.52,18.23-52.14,44-60.42,73.42-2.9,9.98,4.44,17.14,14.65,15.07,20.53-4.37,50.07-13.11,66.75-27.69,18.57-16.2,29.68-39.59,47.99-56.05,10.92-9.93,24.04-17.13,38.27-21.02,2.2-.4,4.28-1.3,6.07-2.64.84-.69,1.4-1.67,1.56-2.75.17-1.08-.07-2.18-.66-3.09Z"/>
  </g>
  <g class="cls-13">
    <path class="cls-11" d="M1020.76,529.57c1.16,1.05,2.66,1.64,4.22,1.66,40.47,5.53,81.56-4.12,115.34-27.09,27.76-19.06,54.58-45.95,63.51-76.62,3.05-10.43-4.63-17.93-15.26-15.67-21.47,4.48-52.36,13.52-69.84,28.71-19.4,16.87-31.08,41.44-50.25,58.46-11.52,10.28-25.3,17.72-40.23,21.7-2.29.37-4.46,1.29-6.33,2.67-.93.7-1.56,1.72-1.78,2.86-.22,1.14,0,2.32.61,3.31Z"/>
  </g>
  <path class="cls-11" d="M1198.79,438.08c-.29.64-.63,1.26-1.02,1.84l-3.17,5.12c-1.61,2.73-3.39,5.35-5.31,7.87-2.22,2.98-4.63,6.48-7.76,9.99l-4.78,5.57c-1.7,1.92-3.77,3.77-5.54,5.76-3.77,4.07-8.21,7.91-12.81,12.09-10.29,8.69-21.33,16.44-33,23.17-11.76,6.55-24.09,12.02-36.84,16.35-5.95,1.81-11.53,3.77-16.95,4.78-2.71.6-5.27,1.32-7.79,1.77l-7.23,1.24c-4.63.87-8.85,1.13-12.58,1.51-3.15.38-6.32.57-9.49.56h-6.03c-.7.1-1.41.1-2.11,0,.67-.2,1.37-.3,2.07-.3l6.03-.45c3.15-.13,6.3-.43,9.42-.9,3.77-.49,7.91-.83,12.47-1.81l7.16-1.32c2.49-.49,5.05-1.24,7.72-1.88,5.35-1.17,10.89-3.05,16.76-4.9,25.33-8.61,48.82-21.91,69.24-39.21,4.59-4.07,9.08-7.87,12.85-11.83,1.88-1.96,3.77-3.77,5.54-5.65l4.86-5.46c3.16-3.43,5.61-6.86,7.95-9.76,2.33-2.9,4.18-5.46,5.61-7.53l3.5-4.93c.72-1.17,1.17-1.73,1.24-1.69Z"/>
  <path class="cls-9" d="M962.07,194.39c30.85,51.91,5.99,127.77-55.49,164.35-61.48,36.58-135.08,20.15-165.97-31.76-30.89-51.91,4.18-101.59,65.81-138.28,51.27-30.47,99.86-44.71,133.8-16.8,6.78,5.57,16.69,13.86,21.85,22.49Z"/>
  <path class="cls-12" d="M883.06,313.89c59.47-35.37,90.26-93.35,68.75-129.51-21.5-36.16-87.15-36.79-146.62-1.43-59.47,35.37-90.25,93.35-68.75,129.51,21.5,36.16,87.15,36.79,146.62,1.43Z"/>
  <path class="cls-9" d="M949.72,180.57c-1.4,4.11-15.86,1.85-36.35,10.02-11.82,4.49-22.79,10.97-32.43,19.14-5.4,4.65-10.16,10-14.16,15.9-4.52,6.4-8.89,13.86-13.9,21.92-2.6,4.22-5.12,7.99-7.99,12.13-2.87,3.92-5.94,7.69-9.19,11.3-6.08,6.88-12.78,13.18-20,18.83-6.5,5.16-13.48,9.7-20.83,13.56-3.43,1.88-6.97,3.31-10.24,4.82-3.28,1.51-6.63,2.6-9.91,3.43-10.09,3.25-20.78,4.26-31.3,2.98-2.91-.35-5.73-1.17-8.36-2.45-1.84-.98-2.71-2-2.67-2.98.26-4.44,15.07-5.91,34.47-16.8,25.29-14.52,46.35-35.38,61.1-60.53,4.81-8.1,10.03-15.94,15.63-23.51,5.87-7.76,12.88-14.58,20.79-20.23,13.07-9.29,28.12-15.4,43.96-17.86,10.62-1.9,21.55-1.11,31.79,2.3,1.81.72,3.31,1.39,4.63,2.07,1.1.65,2.13,1.39,3.09,2.22,1.58,1.58,2.18,2.75,1.88,3.73Z"/>
  <path class="cls-10" d="M949.9,180.19c-.83-.3-.72,0-1.73-.23-10.09-2.75-20.68-3.11-30.93-1.05-7.08,1.2-14.01,3.19-20.64,5.95-7.69,3.15-14.99,7.19-21.73,12.05-7.58,5.5-14.29,12.12-19.89,19.63-5.76,7.53-10.62,15.56-15.44,23.28-15.06,25.84-37.01,46.99-63.4,61.06-15.67,8.06-28.17,10.13-33.18,12.2h1.77c10.29.7,20.62-.68,30.36-4.07,3.16-.87,6.25-2.3,9.57-3.54,3.32-1.24,6.63-3.01,9.91-4.9,7.13-3.89,13.9-8.42,20.23-13.52,6.98-5.63,13.47-11.85,19.4-18.57,1.47-1.81,3.01-3.77,4.52-5.42,1.5-1.66,2.97-3.77,4.37-5.8,2.79-3.77,5.39-7.95,7.87-11.94,4.97-8.02,9.42-15.6,14.12-22.15,4.26-6.15,9.33-11.7,15.07-16.5,5.36-4.35,11.12-8.17,17.21-11.41,5.36-2.99,10.97-5.51,16.76-7.53,8.51-2.97,17.38-4.77,26.37-5.35,1.62,0,2.94-.41,4.22-.57,1.28-.15,2.45,0,3.35-.26,1.36.04,1.43-.75,1.84-1.36Z"/>
  <path class="cls-7" d="M873.63,187.05s-2.19,1.51-6.14,4.14c-5.48,3.95-10.53,8.45-15.07,13.45-6.52,7.57-12.43,15.64-17.67,24.15-6.1,9.46-12.36,20.27-20.19,30.81-3.82,5.16-8.12,9.94-12.85,14.28-4.42,4.01-9.19,7.63-14.24,10.81-8.52,5.37-17.51,9.96-26.86,13.71-7.95,3.24-14.47,5.54-18.83,7.12l-5.24,1.7c-.61.23-1.24.39-1.88.49,0,0,.56-.38,1.73-.87l5.12-2.03c4.41-1.81,10.89-4.29,18.83-7.53,9.16-3.91,17.98-8.57,26.37-13.94,10.22-6.57,19.16-14.96,26.37-24.75,7.53-10.43,14.01-21.17,20.23-30.66,5.35-8.53,11.43-16.58,18.16-24.07,4.62-4.98,9.82-9.39,15.48-13.15,2.07-1.28,3.77-2.11,4.86-2.71,1.09-.6,1.77-1.02,1.81-.94Z"/>
  <path class="cls-7" d="M941.62,182.34c-1.72.49-3.49.83-5.27,1.02-3.39.57-8.29,1.54-14.24,3.13-15.48,4.19-29.91,11.55-42.38,21.62-14.5,11.9-22.41,27.54-29.23,37.67-2.62,4.15-5.51,8.11-8.66,11.87-.87,1.03-1.78,2.01-2.75,2.94-.64.64-1.02.94-1.06.9.97-1.51,2.04-2.96,3.2-4.33,2.91-3.89,5.61-7.92,8.1-12.09,3.2-5.27,6.86-11.68,11.3-18.53,4.93-7.5,10.95-14.23,17.86-19.96,12.7-10.24,27.5-17.55,43.36-21.4,4.76-1.18,9.59-2.04,14.47-2.56,1.76-.27,3.54-.36,5.31-.26Z"/>
  <path class="cls-7" d="M958.53,206.03c.15.83.24,1.68.26,2.52.16,2.41.16,4.82,0,7.23-.85,8.87-2.98,17.58-6.33,25.84-5.05,12.25-11.89,23.67-20.31,33.9-4.87,6.1-10.25,11.77-16.08,16.95-6.39,5.46-13.14,10.49-20.19,15.07-24.56,16.18-52.24,27.05-81.25,31.91-8.79,1.41-17.73,1.71-26.59.91-2.41-.21-4.8-.57-7.16-1.09-.84-.09-1.66-.28-2.45-.57,0-.23,3.43.45,9.68.87,8.82.51,17.66.02,26.37-1.47,28.7-5.21,56.06-16.17,80.42-32.21,6.95-4.48,13.62-9.39,19.96-14.69,5.72-5.17,10.99-10.8,15.79-16.84,8.36-10.03,15.23-21.22,20.38-33.22,3.43-8.11,5.75-16.65,6.89-25.39.68-6.22.42-9.68.6-9.72Z"/>
  <g class="cls-13">
    <path class="cls-11" d="M876.3,171.26c-1.12-.72-2.45-1.02-3.77-.83-34.66.83-67.77,14.46-92.97,38.27-20.76,19.7-39.63,45.88-43.02,72.81-1.13,9.15,6.33,14.39,15.07,11.11,17.33-6.67,42.15-18.27,54.62-33.34,14.05-16.76,20.53-38.8,34.32-55.79,8.29-10.18,18.86-18.27,30.85-23.62,1.87-.64,3.56-1.71,4.93-3.13.38-.35.67-.78.87-1.26.2-.47.31-.99.3-1.5,0-.52-.11-1.03-.32-1.5-.21-.47-.51-.9-.89-1.25Z"/>
  </g>
  <g class="cls-13">
    <path class="cls-11" d="M798.29,322.36c1.12.71,2.45,1.03,3.77.9,36.18-.82,70.79-14.97,97.19-39.74,21.73-20.57,41.44-47.84,45.2-75.98,1.21-9.57-6.56-15.07-15.56-11.6-18.23,6.89-44.04,19.1-57.26,34.84-14.69,17.48-21.54,40.46-36.01,58.16-8.66,10.63-19.71,19.06-32.25,24.6-1.96.67-3.74,1.78-5.2,3.24-.68.78-1.04,1.78-1.02,2.81.02,1.03.43,2.02,1.14,2.77Z"/>
  </g>
  <path class="cls-11" d="M941.69,217.48c-.11.62-.31,1.21-.6,1.77-.57,1.36-1.24,2.98-2.03,4.97-1.13,2.57-2.38,5.09-3.77,7.53-1.58,2.9-3.17,6.33-5.43,9.83l-3.43,5.58c-1.21,1.92-2.64,3.77-4.03,5.84-2.75,4.07-6.1,8.06-9.57,12.36-7.83,9.04-16.43,17.37-25.73,24.9-9.44,7.38-19.53,13.9-30.14,19.48-4.93,2.37-9.61,4.78-14.2,6.52-2.26.9-4.44,1.88-6.59,2.6l-6.18,2.07c-3.77,1.43-7.53,2.22-10.81,3.09-2.73.74-5.5,1.35-8.29,1.81l-5.27.87c-.61.07-1.23.07-1.84,0,.56-.28,1.15-.47,1.77-.57l5.2-1.24c2.26-.49,5.01-1.13,8.14-2.11,3.13-.98,6.82-1.85,10.66-3.35l6.1-2.15c2.11-.79,4.26-1.77,6.48-2.71,4.52-1.77,9.12-4.22,14.01-6.63,10.43-5.61,20.36-12.1,29.68-19.4,9.22-7.42,17.78-15.63,25.58-24.52,3.46-4.22,6.89-8.14,9.64-12.17,1.39-1.96,2.86-3.77,4.07-5.69,1.21-1.92,2.37-3.77,3.5-5.46,2.33-3.43,3.99-6.78,5.65-9.64,1.66-2.86,2.9-5.35,3.77-7.53.87-2.18,1.73-3.47,2.41-4.78.37-.46.79-.87,1.24-1.24Z"/>
  <path class="cls-9" d="M1020.39,772.65c-6.75,69.24-81.52,122.65-163.52,114.67-82-7.99-139.11-73.42-132.37-142.65,6.74-69.24,73.38-91.42,155.39-83.44,68.33,6.67,123.18,26.59,135.61,75.68,2.48,9.8,6.03,24.22,4.9,35.75Z"/>
  <path class="cls-12" d="M1017.78,756.5c4.71-48.22-55.76-93.59-135.06-101.34-79.3-7.75-147.41,25.06-152.12,73.29-4.71,48.22,55.76,93.59,135.06,101.34,79.3,7.75,147.41-25.06,152.12-73.29Z"/>
  <path class="cls-9" d="M1018.39,751.41c-.79.6-2.3.34-4.3-.6-.98-.45-2.07-1.09-3.35-1.84-1.28-.76-2.79-1.51-4.37-2.49-8.79-5.14-18.18-9.18-27.95-12.02-14.19-4.19-29-5.87-43.77-4.97-8.4.59-16.68,2.29-24.63,5.05-8.66,2.9-17.86,6.86-27.99,10.92-5.05,2-10.25,4-15.6,5.77-2.68.87-5.35,1.65-8.1,2.41l-8.02,1.96c-10.21,2.17-20.6,3.44-31.04,3.77-9.46.42-18.93-.06-28.29-1.43-4.41-.53-8.63-1.54-12.66-2.37-4.03-.83-7.87-2-11.3-3.39-11.47-3.7-22.04-9.75-31.04-17.78-2.46-2.17-4.55-4.71-6.22-7.53-1.13-2.03-1.4-3.46-.75-4.22,2.86-3.47,17.36,5.84,43.05,9.42,33.72,4.36,67.98-.47,99.18-13.98,9.72-3.77,19.78-8.02,30.36-11.3,10.52-3.18,21.48-4.73,32.47-4.59,9.74.09,19.42,1.35,28.86,3.77,8.14,2.05,16.01,5.03,23.47,8.89,11.05,5.28,20.64,13.16,27.95,22.98,1.21,1.81,2.19,3.43,2.98,4.9.62,1.3,1.13,2.64,1.51,4.03.63,2.51.48,4.07-.45,4.67Z"/>
  <path class="cls-10" d="M1018.76,751.26c-.57-.87-.75-.38-1.47-1.4-7.47-9.43-17.04-16.99-27.95-22.07-7.4-3.71-15.2-6.58-23.24-8.55-9.29-2.37-18.82-3.64-28.4-3.77-10.78-.04-21.52,1.53-31.83,4.67-10.43,3.05-20.45,7.19-30.14,11.08-31.59,13.71-66.38,18.36-100.46,13.41-20.04-3.2-33.07-9.79-39.1-11.3l1.47,1.4c9.09,7.65,19.62,13.41,30.96,16.95,3.54,1.32,7.34,2.11,11.3,3.2,3.96,1.09,8.17,1.73,12.54,2.22,9.26,1.27,18.62,1.67,27.95,1.21,10.32-.43,20.58-1.75,30.66-3.96l7.91-1.96c2.71-.72,5.35-1.54,8.02-2.41,5.27-1.73,10.4-3.77,15.45-5.73,10.09-4.03,19.36-8.02,28.18-10.88,8.16-2.82,16.66-4.52,25.28-5.05,7.96-.43,15.94-.09,23.84,1.02,6.99.92,13.89,2.45,20.61,4.59,9.86,3.02,19.26,7.36,27.95,12.92,1.54,1.02,3.01,1.58,4.3,2.33,1.28.76,2.37,1.51,3.31,2.03,1.51.94,2.11.23,2.86.04Z"/>
  <path class="cls-7" d="M943.39,705.52c-.75.08-1.51.08-2.26,0-1.43,0-3.54-.3-6.29-.38-7.74-.06-15.47.71-23.05,2.3-11.21,2.54-22.2,5.99-32.85,10.32-12.13,4.63-25.31,10.36-39.74,14.81-7.06,2.18-14.31,3.68-21.66,4.48-6.83.71-13.71.83-20.57.34-11.56-.84-23.02-2.7-34.24-5.58-9.61-2.37-17.22-4.67-22.6-6.33l-6.03-1.92c-.72-.19-1.42-.47-2.07-.83.73.1,1.44.25,2.15.45l6.18,1.58c5.31,1.39,12.99,3.5,22.6,5.69,11.14,2.64,22.48,4.36,33.9,5.12,14,.98,28.05-.69,41.44-4.9,14.32-4.37,27.5-10.06,39.7-14.62,10.76-4.29,21.88-7.62,33.22-9.98,7.69-1.5,15.53-2.07,23.36-1.69,2.75,0,4.86.56,6.33.75.85,0,1.68.12,2.49.38Z"/>
  <path class="cls-7" d="M1009.65,747.57c-1.9-.79-3.75-1.69-5.54-2.71-4.99-2.54-10.11-4.83-15.33-6.86-17.22-6.72-35.66-9.77-54.13-8.93-10.1.66-20.06,2.75-29.57,6.22-8.85,3.09-16.65,6.4-23.32,8.93-5.24,2.09-10.63,3.82-16.12,5.16-1.92.49-3.5.68-4.52.87-.54.06-1.08.06-1.62,0,1.95-.7,3.94-1.29,5.95-1.77,5.36-1.59,10.63-3.49,15.78-5.69,6.59-2.67,14.31-6.14,23.24-9.34,9.67-3.63,19.83-5.81,30.14-6.48,18.71-.87,37.39,2.41,54.7,9.61,5.19,2.16,10.22,4.68,15.07,7.53,1.77.98,3.05,1.84,3.77,2.41s1.54.98,1.5,1.06Z"/>
  <path class="cls-7" d="M1009.16,781.05c-.4.89-.9,1.73-1.47,2.52-1.56,2.29-3.24,4.49-5.05,6.59-6.86,7.64-14.79,14.26-23.54,19.63-13.02,7.88-27.14,13.8-41.89,17.55-8.64,2.31-17.46,3.88-26.37,4.71-9.61.62-19.25.62-28.86,0-39.51-2.41-74.36-13.45-97.15-25.73-9.1-4.71-17.59-10.52-25.28-17.29-2.1-1.81-4.08-3.77-5.91-5.84-.7-.67-1.34-1.41-1.92-2.18.19-.19,2.86,2.79,8.32,7.53,7.82,6.48,16.35,12.05,25.43,16.61,30.2,14.75,63.06,23.26,96.62,25.01,9.52.61,19.07.61,28.59,0,8.84-.79,17.59-2.32,26.18-4.56,14.57-3.65,28.54-9.39,41.47-17.02,8.72-5.17,16.69-11.51,23.7-18.83,2.41-2.68,4.14-4.82,5.31-6.37.54-.83,1.14-1.61,1.81-2.34Z"/>
  <g class="cls-13">
    <path class="cls-11" d="M956.61,692.72c-.54-1.43-1.57-2.61-2.9-3.35-32.74-22.82-72.76-32.74-112.37-27.87-32.7,4.18-68.07,15.6-89.58,38.27-7.31,7.53-3.77,17.67,6.29,20.45,20.72,5.69,51.61,11.64,73.6,6.25,24.48-6.03,45.54-22,69.92-28.4,14.63-3.81,29.95-4.11,44.71-.87,2.17.69,4.46.86,6.71.49,1.11-.24,2.09-.88,2.76-1.79.67-.92.97-2.05.85-3.18Z"/>
  </g>
  <g class="cls-13">
    <path class="cls-11" d="M781.15,779.7c.57,1.49,1.65,2.73,3.05,3.5,34.14,23.92,75.91,34.4,117.3,29.42,34.13-4.26,71.12-16.08,93.64-39.7,7.53-8.06,4.22-18.46-6.52-21.43-21.62-5.99-53.87-12.28-76.88-6.71-25.54,6.22-47.61,22.86-73.08,29.46-15.29,3.95-31.29,4.23-46.71.83-2.26-.74-4.66-.92-7.01-.53-1.17.23-2.2.89-2.91,1.84-.7.96-1.03,2.14-.9,3.32Z"/>
  </g>
  <path class="cls-11" d="M985.88,780.22c-.56.45-1.15.85-1.77,1.21l-5.31,3.16-3.77,2.22c-1.43.79-3.05,1.54-4.75,2.37-3.43,1.65-7.27,3.77-11.75,5.42l-6.97,2.82c-2.41.94-5.05,1.73-7.53,2.64-5.31,1.92-11.3,3.32-17.29,4.93-26.86,6.35-54.7,7.39-81.97,3.09-6.25-1.13-12.2-2.07-17.63-3.77-2.75-.72-5.42-1.25-7.91-2.03l-7.16-2.3c-4.6-1.36-8.59-3.13-12.13-4.48-1.77-.75-3.43-1.36-4.9-2.03l-3.99-1.92-5.54-2.75c-.66-.29-1.28-.65-1.84-1.09.71.15,1.39.39,2.03.72l5.65,2.41,4.07,1.81c1.47.6,3.16,1.17,4.93,1.81,3.54,1.28,7.53,2.97,12.13,4.22l7.16,2.15c2.49.75,5.16,1.24,7.87,1.92,5.39,1.47,11.3,2.33,17.52,3.43,27.05,4.05,54.63,3.01,81.29-3.09,6.1-1.54,11.94-2.86,17.21-4.71,2.68-.9,5.27-1.62,7.53-2.52l6.97-2.71c4.52-1.58,8.36-3.54,11.79-5.09,1.73-.79,3.35-1.47,4.78-2.22l3.77-2.07,5.46-2.82c.64-.34,1.33-.58,2.03-.72Z"/>
</svg>
