<?xml version="1.0" encoding="UTF-8"?>
<svg id="Layer_1" data-name="Layer 1" xmlns="http://www.w3.org/2000/svg" viewBox="0 0 1879.07 1882">
  <defs>
    <style>
      .cls-1 {
        fill: #000;
      }

      .cls-1, .cls-2, .cls-3, .cls-4, .cls-5, .cls-6, .cls-7, .cls-8, .cls-9, .cls-10, .cls-11, .cls-12 {
        stroke-width: 0px;
      }

      .cls-2 {
        fill: #e0e0e0;
      }

      .cls-3 {
        fill: #eb996e;
      }

      .cls-4 {
        fill: #455a64;
      }

      .cls-5 {
        fill: #f5f5f5;
      }

      .cls-6 {
        fill: #ffbe9d;
      }

      .cls-7 {
        fill: #ebebeb;
      }

      .cls-8 {
        fill: #40bbff;
      }

      .cls-9 {
        fill: #e2323d;
      }

      .cls-10 {
        fill: #263238;
      }

      .cls-11 {
        fill: #fafafa;
      }

      .cls-13 {
        opacity: .3;
      }

      .cls-12 {
        fill: #fff;
      }
    </style>
  </defs>
  <path class="cls-7" d="M292.24,1389.76c24.08-12.43,52.53-14.05,79.23-9.63,14.36,2.41,29.37,6.7,39.14,17.51,9.76,10.81,11.64,29.81.39,39.05-6.66,5.56-15.98,6.39-24.65,6.3-20.97-.26-44.21-3.94-60.93,8.75-9.54,7.18-15.93,19.13-27.32,22.68-11.38,3.55-23.77-3.15-29.72-13.13-5.45-10.5-6.64-22.7-3.33-34.06,1.33-7.92,4.47-15.43,9.19-21.93,4.72-6.5,10.88-11.82,18-15.54Z"/>
  <path class="cls-7" d="M237,1283.16c14.75,21.06,43.38,14.1,56.69,1.23,13.31-12.87,18.87-31.47,23.99-49.21,11.69-40.58,23.46-83.17,14.75-124.49-2.1-12.52-7.59-24.23-15.89-33.84-4.21-4.72-9.59-8.26-15.6-10.26-6.01-2-12.43-2.38-18.63-1.12-14.45,3.81-23.42,17.99-29.9,31.43-19.11,39.74-29.13,83.24-29.33,127.34,0,20.49,2.36,41.98,13.92,58.92Z"/>
  <path class="cls-7" d="M196.5,1313.37c16.02-19,19.04-46.71,11.95-70.48-7.09-23.77-23.2-44.04-41.76-60.54-21.82-19.41-47.22-34.38-74.77-44.08-10.67-4.3-22.13-6.26-33.62-5.73-5.73.33-11.3,2.06-16.21,5.04-4.91,2.98-9.02,7.11-11.98,12.03-7.88,15.02-.35,33.23,7.84,48.15,14.36,26.18,30.77,51.18,49.07,74.77,14.71,19,31.61,37.69,54.02,46.27,22.41,8.58,45.74,7.57,57.61-7.97"/>
  <path class="cls-2" d="M235.99,1600.71c.82-3.12,1.27-6.32,1.36-9.55.66-6.96,1.53-15.71,2.54-26.26,1.3-12.85,3.25-25.62,5.87-38.26,3.41-15.42,8.06-30.55,13.92-45.22,5.72-14.65,13.49-28.42,23.07-40.88,7.81-10.15,17.78-18.44,29.2-24.25,7.73-3.83,16.02-6.42,24.56-7.66,3.2-.12,6.39-.58,9.5-1.36-3.22-.33-6.46-.33-9.67,0-8.87.7-17.54,2.97-25.61,6.7-11.97,5.67-22.46,14.05-30.64,24.47-10.02,12.63-18.09,26.69-23.94,41.72-5.93,14.87-10.55,30.24-13.79,45.92-2.5,12.81-4.21,25.76-5.12,38.78-.83,11.08-1.14,20.05-1.27,26.27-.31,3.19-.3,6.4.04,9.59Z"/>
  <path class="cls-2" d="M237.78,1580.61c.25-1.44.34-2.91.26-4.38v-12.7c0-11.03,0-26.96.57-46.62,1.01-39.4,4.38-81.77,10.94-141.48,6.17-56.16,14.49-121.52,23.29-164.02,1.88-9.67,3.76-18.38,5.56-26,1.79-7.61,3.15-14.18,4.38-19.52,1.23-5.34,2.19-9.1,2.98-12.34.44-1.42.71-2.89.79-4.38-.68,1.32-1.21,2.72-1.58,4.16-.96,3.2-2.15,7.22-3.68,12.17-1.53,4.95-3.28,11.82-5.21,19.43-1.93,7.62-4.07,16.24-6.13,25.92-10.89,50.24-19.08,101.04-24.51,152.16-6.3,59.8-9.37,114.34-9.63,153.78-.26,19.75,0,35.72.66,46.75.35,5.17.57,9.37.79,12.7,0,1.48.18,2.95.53,4.38Z"/>
  <path class="cls-2" d="M238.05,1475.34c.38-4.37.38-8.76,0-13.13-.48-8.49-1.66-20.84-4.03-35.9-2.93-17.71-6.83-35.25-11.69-52.53-5.73-21.17-13.05-41.87-21.89-61.94-15.19-36.98-36.98-70.89-64.31-100.07-4.77-4.92-9.84-9.54-15.19-13.83-2.32-1.97-4.38-3.9-6.44-5.47l-5.87-4.03c-3.53-2.66-7.26-5.05-11.16-7.13-.66.83,15.8,10.5,36.55,32.61,26.42,29.43,47.62,63.16,62.69,99.72,8.63,19.93,15.94,40.4,21.89,61.28,5.73,19.22,9.54,36.9,12.43,51.83,2.89,14.93,4.38,27.1,5.25,35.54.26,4.39.84,8.75,1.75,13.04Z"/>
  <path class="cls-2" d="M136.45,1660.94l10.55,144.32h185.39l10.51-144.32h-206.44Z"/>
  <path class="cls-2" d="M364.99,1604.07H118.54v56.86h246.45v-56.86Z"/>
  <path class="cls-7" d="M118.54,1799.7v15.76h242.42v-15.76H118.54Z"/>
  <path class="cls-2" d="M141.48,1843.22l-11.34-27.75h221.98l-13.22,27.75h-197.42Z"/>
  <path class="cls-5" d="M339.47,1708.08c-.23.49-.53.94-.88,1.36l-2.76,3.68-10.81,13.79-.48.61-.44-.61-26.57-36.73h1.53l-26.26,36.99-.83,1.18-.92-1.09c-9.63-11.47-20.09-23.94-30.99-36.86h1.79c-.52.7-1.09,1.45-1.71,2.15l-27.71,34.76-.92,1.13-.83-1.18-26.26-36.99h1.53l-32.22,36.68-.57.66-.44-.74-9.89-16.9-2.58-4.38c-.32-.51-.58-1.05-.79-1.62.42.42.78.89,1.09,1.4l2.85,4.38,10.59,16.59h-1.01l31.65-37.07.79-.97.74,1.01,26.26,36.81h-1.75l27.62-35.02,1.71-2.1.88-1.14.92,1.09,30.64,36.95h-1.71c9.54-13.13,18.39-25.65,26.26-36.77l.79-1.1.74,1.1,26,37.07h-.96l11.25-13.44,2.98-3.5c.5-.47,1.06-.87,1.66-1.18Z"/>
  <path class="cls-5" d="M345.47,1659.97c0,.66-46.44,1.18-103.7,1.18s-103.75-.52-103.75-1.18,46.44-1.14,103.75-1.14,103.7.35,103.7,1.14Z"/>
  <path class="cls-5" d="M354.84,1817.04c0,.66-50.47,1.14-112.72,1.14s-112.76-.48-112.76-1.14,50.47-1.14,112.76-1.14,112.72.48,112.72,1.14Z"/>
  <path class="cls-7" d="M1758.69,41.72h-850.71v1528.21h850.71V41.72Z"/>
  <path class="cls-11" d="M1715.87,86.02h-773.93v1438.39h773.93V86.02Z"/>
  <path class="cls-2" d="M1794.63,1583.72l-35.98-13.79V15.8h35.98v1567.92Z"/>
  <path class="cls-2" d="M1732.68,499.82h-790.74v15.32h790.74v-15.32Z"/>
  <path class="cls-2" d="M1732.68,842.35h-790.74v15.32h790.74v-15.32Z"/>
  <path class="cls-2" d="M1732.68,1184.89h-790.74v15.32h790.74v-15.32Z"/>
  <path class="cls-2" d="M1309.34,507.48v1057.72h39.09V507.48h-39.09Z"/>
  <path class="cls-2" d="M1108.72,86.02h-17.73v421.42h17.73V86.02Z"/>
  <path class="cls-2" d="M1261.5,86.02h-17.73v421.42h17.73V86.02Z"/>
  <path class="cls-2" d="M1414.27,86.02h-17.73v421.42h17.73V86.02Z"/>
  <path class="cls-2" d="M1567.09,86.02h-17.73v421.42h17.73V86.02Z"/>
  <path class="cls-2" d="M907.97,15.8h-35.98v1563.58h35.98V15.8Z"/>
  <path class="cls-2" d="M1794.67,0h-922.68v41.72h922.68V0Z"/>
  <path class="cls-2" d="M1819.01,1588.84h-972.54v38.83h972.54v-38.83Z"/>
  <path class="cls-7" d="M1758.64,1569.93l60.37,18.91h-972.54l61.51-18.91h850.67Z"/>
  <path class="cls-10" d="M1879.07,1843.04c0,.66-420.67,1.14-939.49,1.14s-939.58-.31-939.58-1.14,420.59-1.14,939.58-1.14,939.49.7,939.49,1.14Z"/>
  <path class="cls-12" d="M102.43,633.07c-12.03-25.15-16.83-53.14-13.88-80.86,2.95-27.72,13.55-54.07,30.6-76.12C38.43,442.92-5.03,343.5,26.7,264.67c31.74-78.84,133.64-123.97,216.33-96,14.27-75.42,83.17-138.11,162.4-147.39,79.23-9.28,161.71,35.76,194.32,105.8,45.52-10.55,96.87,9.28,122.17,47.23,10.89,16.97,16.86,36.63,17.25,56.79.39,20.16-4.81,40.03-15.02,57.42,36.9,24.73,58.44,69.73,53.1,112.81-5.69,46.1-41.81,87.33-88.03,100.68,15.69,24.94,24.37,53.64,25.14,83.1.77,29.45-6.4,58.57-20.76,84.29-29.33,51.26-88.51,85.36-149.27,85.97-60.76.61-120.64-32.22-151.11-82.82-20.58,19.88-45.3,34.97-72.4,44.18-27.09,9.22-55.88,12.34-84.32,9.13-56.99-6.96-109.79-42.85-134.08-92.8Z"/>
  <path class="cls-10" d="M102.43,633.07s1.01,1.75,2.85,5.21c2.77,5.1,5.82,10.04,9.15,14.8,5.46,7.78,11.55,15.1,18.21,21.89,9.22,9.09,19.39,17.16,30.34,24.07,13.74,8.74,28.62,15.55,44.21,20.23,18.59,5.61,37.98,8.1,57.39,7.35,47.98-1.84,93.59-21.32,128.08-54.72l.7-.7.48.83c9.7,15.71,21.9,29.72,36.11,41.5,15.26,12.43,32.42,22.33,50.82,29.33,9.61,3.6,19.49,6.42,29.55,8.45,10.35,1.92,20.85,2.92,31.38,3.02,10.81.07,21.61-.93,32.22-2.98,10.88-2.02,21.54-5.1,31.82-9.19,10.56-4.09,20.7-9.2,30.25-15.28,9.84-6.09,19.02-13.17,27.4-21.14,8.55-8.13,16.24-17.12,22.94-26.83,6.69-9.99,12.24-20.69,16.55-31.91,8.65-23.21,11.99-48.08,9.76-72.75-2.36-25.49-10.68-50.07-24.3-71.75l-.79-1.23,1.4-.39c20.84-6.19,39.7-17.72,54.72-33.44,15.6-16.05,26.39-36.16,31.12-58.04,9.23-44.39-12.26-93.77-51.26-119.86l-.88-.61.53-.92c10.64-18.22,15.74-39.16,14.66-60.23-.81-21.87-8.61-42.9-22.24-60.01-13.79-16.87-32.11-29.46-52.79-36.29-20.22-6.9-41.94-8.14-62.82-3.59h-.87l-.39-.83c-18.39-37.41-48.83-67.55-86.41-85.58-35.86-18.06-76.5-24.36-116.13-17.99-77.31,13.88-139.03,76.17-152.16,145.42l-.22,1.09-1.09-.35c-25.28-8.06-52.08-10.19-78.31-6.22-24.93,3.84-48.85,12.62-70.35,25.83-20.48,12.26-38.17,28.68-51.92,48.2-12.6,18.45-20.72,39.58-23.73,61.72-2.7,20.59-1.39,41.5,3.85,61.59,4.66,18.54,12.4,36.16,22.89,52.14,9.52,14.5,21.09,27.53,34.36,38.69,12.06,9.77,25.41,17.84,39.66,23.99l.66.3-.44.57c-14.73,18.73-24.66,40.77-28.94,64.22-3.09,17.09-3.31,34.58-.66,51.74,1.71,10.46,4.47,20.73,8.23,30.64,1.4,3.3,2.45,5.79,3.15,7.48l1.05,2.5s-1.62-3.28-4.38-9.85c-10.34-26.27-13.14-54.91-8.1-82.69,4.2-23.63,14.12-45.87,28.89-64.78v.83c-14.37-6.14-27.84-14.23-40.01-24.03-13.41-11.22-25.12-24.33-34.76-38.92-10.59-16.1-18.43-33.86-23.2-52.53-5.31-20.29-6.66-41.41-3.98-62.2,3.12-22.37,11.39-43.71,24.16-62.34,13.8-19.76,31.59-36.4,52.22-48.85,21.68-13.4,45.82-22.33,71-26.26,26.6-4.05,53.78-1.89,79.41,6.3l-1.31.79c13.13-70.04,75.51-133.03,153.78-146.78,40.1-6.46,81.21-.12,117.49,18.12,38.06,18.26,68.89,48.76,87.55,86.63l-1.27-.61c21.27-4.67,43.43-3.41,64.04,3.63,21.04,6.86,39.7,19.57,53.8,36.64,13.91,17.49,21.88,38.96,22.76,61.28,1,21.6-4.33,43.02-15.32,61.63l-.35-1.49c39.75,26.62,61.59,76.82,52.18,122.17-4.82,22.29-15.82,42.77-31.74,59.1-15.27,16.03-34.48,27.76-55.72,34.01l.61-1.62c13.79,21.97,22.22,46.88,24.6,72.71,2.26,25-1.13,50.2-9.94,73.72-4.38,11.36-10.02,22.2-16.81,32.3-6.78,9.84-14.57,18.93-23.24,27.14-25.18,23.53-56.5,39.46-90.35,45.96-10.73,2.05-21.64,3.05-32.57,2.98-10.65-.12-21.26-1.16-31.73-3.11-10.16-2.1-20.13-5.03-29.81-8.76-18.57-7.08-35.88-17.1-51.26-29.68-14.32-11.91-26.61-26.08-36.38-41.94h1.18c-34.79,33.59-80.77,53.11-129.09,54.81-19.53.71-39.04-1.83-57.74-7.53-28.19-8.62-53.83-24.03-74.68-44.87-6.66-6.76-12.72-14.09-18.12-21.89-3.25-4.77-6.18-9.76-8.75-14.93-1.88-3.28-2.89-5.08-2.89-5.08Z"/>
  <path class="cls-12" d="M476.05,853.74c4.29.83,8.09,3.3,10.59,6.89,2.5,3.59,3.5,8,2.8,12.32-.7,4.31-3.06,8.19-6.58,10.79-3.51,2.6-7.9,3.74-12.23,3.16-4.33-.58-8.27-2.82-10.98-6.25-2.71-3.43-3.97-7.79-3.52-12.14.45-4.35,2.57-8.35,5.93-11.16,3.35-2.81,7.67-4.2,12.03-3.87"/>
  <path class="cls-10" d="M474.08,853.74c0,.26-1.49,0-3.89.79-3.43,1.02-6.48,3.05-8.76,5.82-1.64,1.97-2.83,4.28-3.48,6.76-.65,2.48-.75,5.07-.29,7.6.99,2.91,2.78,5.49,5.17,7.43,2.39,1.94,5.28,3.16,8.34,3.52,3.06.36,6.15-.15,8.93-1.47,2.78-1.33,5.12-3.41,6.76-6.01,1.71-4.01,1.9-8.49.54-12.63-1.35-4.14-4.16-7.64-7.9-9.87-2.19-1.23-3.63-1.45-3.59-1.66.04-.22.39,0,1.05,0,1.01.12,2.01.4,2.93.83,3.46,1.63,6.29,4.36,8.06,7.75,1.38,2.5,2.17,5.28,2.3,8.14.14,2.85-.38,5.7-1.52,8.32-1.5,3.13-4.04,5.65-7.18,7.13-3.34,1.52-7.03,2.1-10.67,1.66-3.64-.43-7.1-1.86-9.99-4.12-2.75-2.2-4.62-5.3-5.3-8.75-.49-2.82-.33-5.71.46-8.46.8-2.75,2.21-5.28,4.13-7.39,2.5-2.9,5.88-4.89,9.63-5.65,1.02-.14,2.05-.14,3.07,0,.41,0,.81.1,1.18.26Z"/>
  <path class="cls-12" d="M438.18,781.25c6.16,4.48,10.32,11.2,11.59,18.71,1.27,7.51-.46,15.22-4.82,21.47-4.35,6.25-10.99,10.55-18.47,11.97-7.49,1.42-15.23-.16-21.57-4.38-6.34-4.22-10.77-10.77-12.34-18.22-1.57-7.45-.15-15.23,3.94-21.65,4.1-6.42,10.55-10.98,17.97-12.71,7.42-1.72,15.22-.46,21.73,3.5"/>
  <path class="cls-10" d="M436.13,779.93c0,.22-2.28-1.18-6.61-2.32-6.15-1.51-12.61-1.1-18.52,1.18-4.02,1.54-7.67,3.93-10.68,7.01-3.43,3.63-5.7,8.2-6.52,13.13-1.36,5.58-.96,11.44,1.14,16.78,2.1,5.34,5.8,9.9,10.59,13.06,4.79,3.16,10.44,4.76,16.18,4.58,5.74-.18,11.28-2.12,15.87-5.57,4.12-2.7,7.36-6.55,9.32-11.08,1.68-3.97,2.45-8.26,2.28-12.56-.18-6.33-2.33-12.45-6.13-17.51-2.76-3.54-4.9-4.99-4.73-5.16.18-.18.57.26,1.57.96,1.42,1.06,2.72,2.28,3.85,3.63,3.54,4.32,5.87,9.5,6.73,15.03.86,5.52.23,11.17-1.83,16.36-2.05,4.89-5.49,9.08-9.9,12.04-4.82,3.33-10.47,5.24-16.33,5.51-6.32.53-12.64-1.08-17.93-4.58-5.29-3.5-9.25-8.69-11.22-14.72-2.01-5.49-2.47-11.42-1.31-17.16,1-5.22,3.51-10.03,7.22-13.83,3.96-3.89,8.89-6.65,14.27-8.01,5.38-1.36,11.03-1.27,16.37.26,1.71.5,3.34,1.22,4.86,2.15,1.05.22,1.45.74,1.45.83Z"/>
  <path class="cls-10" d="M1668.34,1463.43c-.39.48-3.68-1.49-7.35-4.37-3.68-2.89-6.3-5.69-5.91-6.17.39-.48,3.68,1.49,7.35,4.38,3.68,2.89,6.31,5.69,5.91,6.17Z"/>
  <path class="cls-4" d="M1768.14,1314.24c.61-13.92,1.01-28.23-3.41-41.45-4.42-13.22-14.62-25.44-28.28-28.28-15.58-3.19-31.56,6.66-40.27,19.96-8.71,13.31-11.77,29.46-14.36,45.17-17.78,108.36-24.33,218.26-19.52,327.96l63.78,8.97c28.02-114.34,36.99-214.59,42.07-332.34Z"/>
  <path class="cls-10" d="M1727.48,1244.03s0,.39-.3,1.05l-1.05,2.89c-1.01,2.67-2.45,6.35-4.38,10.99-.88,2.41-2.06,5.04-3.02,8.01-.97,2.98-1.97,6.17-3.11,9.63-1.14,3.46-2.28,7.18-3.55,11.12-1.27,3.94-2.15,8.23-3.33,12.65-5.17,20.8-9.14,41.87-11.91,63.12-3.46,23.99-5.73,50.56-7.49,78.49-3.28,55.9-3.77,106.64-5.21,143.36-.7,18.34-1.32,33.18-2.01,43.43-.35,4.99-.61,8.76-.83,11.77,0,1.27,0,2.28-.26,3.07.03.35.03.7,0,1.05-.07-.35-.07-.7,0-1.05v-3.07c0-2.89.22-6.83.35-11.82.44-10.24.83-25.08,1.31-43.47,1.01-36.68,1.27-87.55,4.38-143.41,1.75-27.97,4.12-54.59,7.66-78.79,3.01-21.32,7.31-42.45,12.87-63.25,1.23-4.38,2.36-8.76,3.46-12.65l3.77-11.08,3.28-9.63c1-2.98,2.27-5.56,3.19-7.92l4.68-10.9,1.27-2.8c.04-.27.11-.54.22-.79Z"/>
  <path class="cls-10" d="M1733.52,1244.08c3.31,3.92,5.94,8.35,7.79,13.13,4.88,13.17,6.87,27.23,5.82,41.24-1.71,35.28-4.86,83.87-9.06,137.5-4.2,53.62-8.76,102.12-12.65,137.19-1.88,17.51-3.5,31.7-4.73,41.5-.57,4.73-1.05,8.49-1.45,11.25l-.39,2.94c-.03.33-.12.66-.26.96-.06-.33-.06-.67,0-1.01v-2.93c.26-2.8.57-6.57,1-11.34l3.98-41.54c3.37-35.02,7.79-83.57,12-137.19,4.2-53.62,7.62-102.21,9.72-137.36,1.2-13.83-.52-27.76-5.04-40.88-1.83-4.68-4.09-9.17-6.74-13.44Z"/>
  <path class="cls-10" d="M1777.77,1409.19c-8.26-1.31-16.21-4.16-23.42-8.41,8.25,1.38,16.18,4.23,23.42,8.41Z"/>
  <path class="cls-10" d="M1785.43,1344.02c-3.45,2.76-7.34,4.92-11.51,6.39-3.86,2.16-8.07,3.64-12.43,4.38,3.43-2.78,7.33-4.95,11.51-6.39,3.87-2.15,8.07-3.63,12.43-4.37Z"/>
  <path class="cls-10" d="M1781.45,1291.13c-3.09.89-6.34,1.05-9.5.48-3.22.11-6.42-.5-9.37-1.8,3.08-.94,6.34-1.1,9.5-.48,3.22-.16,6.44.45,9.37,1.8Z"/>
  <path class="cls-10" d="M1715.61,1257.12c-.53.31-3.33-3.15-6.22-7.79-2.1-2.63-3.6-5.7-4.38-8.97.53-.35,3.33,3.15,6.26,7.75,2.1,2.65,3.58,5.73,4.34,9.02Z"/>
  <path class="cls-10" d="M1693.86,1289.21c-5.97,1.36-12.18,1.22-18.08-.39,2.9-1.04,6.01-1.37,9.06-.96,4.99.13,9.02.7,9.02,1.36Z"/>
  <path class="cls-10" d="M1678.23,1353.42c-3.33-.17-6.59-1.06-9.54-2.63-5.04-2.06-8.76-4.16-8.76-4.72,3.34.11,6.61,1.01,9.55,2.62,5.12,2.01,9.02,4.07,8.75,4.73Z"/>
  <path class="cls-10" d="M1676.57,1407.4c0,.61-3.5,1.93-8.1,2.89-4.6.96-8.49,1.23-8.76.61-.26-.61,3.5-1.88,8.1-2.84,4.6-.96,8.62-1.27,8.76-.66Z"/>
  <path class="cls-10" d="M1669.21,1495.74c0,.61-3.72,1.84-8.76,2.72-2.92.89-6.02,1.04-9.02.44,0-.61,3.76-1.84,8.75-2.71,2.92-.89,6.02-1.04,9.02-.44Z"/>
  <path class="cls-10" d="M1664.35,1544.5c.26.53-2.94,2.8-7.18,5.08-4.25,2.28-7.97,3.63-8.28,3.06-.3-.57,2.94-2.84,7.18-5.08,4.25-2.23,7.97-3.63,8.28-3.06Z"/>
  <path class="cls-10" d="M1704.15,1599.83c-.53.31-3.33-3.55-6.26-8.76-2.1-2.92-3.59-6.24-4.38-9.76.57-.31,3.37,3.54,6.26,8.75,2.15,2.9,3.64,6.23,4.38,9.76Z"/>
  <path class="cls-10" d="M1715.66,1507.86c.44.44-2.71,4.38-7,8.45-4.29,4.07-8.1,7.27-8.76,6.79-.66-.48,2.71-4.38,7.01-8.41,4.29-4.02,8.32-7.26,8.75-6.83Z"/>
  <path class="cls-10" d="M1713.12,1459.62c-.48.44-3.37-1.97-6.48-5.34-3.11-3.37-5.25-6.39-4.82-6.83.44-.44,3.37,1.93,6.48,5.3s5.25,6.43,4.82,6.87Z"/>
  <path class="cls-10" d="M1721,1397.94c.48.44-2.14,4.12-5.82,8.23-3.68,4.12-7.05,7.09-7.53,6.65-.48-.44,2.14-4.07,5.82-8.19,3.68-4.12,7.05-7.09,7.53-6.7Z"/>
  <path class="cls-10" d="M1725.46,1353.2c-.48.44-4.12-2.41-8.14-6.39-4.03-3.98-6.96-7.53-6.52-7.97s4.07,2.41,8.14,6.35c4.07,3.94,6.96,7.57,6.52,8.01Z"/>
  <path class="cls-10" d="M1734.17,1292.71c-.65,3.29-2.05,6.39-4.07,9.06-2.8,4.68-5.47,8.23-6.04,7.88.69-3.28,2.07-6.37,4.07-9.06,2.8-4.73,5.51-8.19,6.04-7.88Z"/>
  <path class="cls-10" d="M1750.59,1236.68c.57.31-1.05,4.38-3.59,9.06-2.54,4.69-5.03,8.28-5.6,7.97-.57-.3,1.05-4.38,3.59-9.06,2.54-4.68,5.08-8.27,5.6-7.97Z"/>
  <path class="cls-10" d="M1769.24,1262.11c.31.57-2.27,2.36-5.69,4.03-3.42,1.66-6.39,2.5-6.7,1.93-.31-.57,2.32-2.36,5.73-3.98,3.41-1.62,6.39-2.54,6.65-1.97Z"/>
  <path class="cls-10" d="M1769.72,1463.43c-4.36.06-8.67-.98-12.52-3.02-4.12-1.39-7.83-3.76-10.81-6.92,4.07,1.19,8,2.8,11.73,4.82,4.01,1.35,7.9,3.06,11.6,5.12Z"/>
  <path class="cls-10" d="M1762.1,1505.98c-2.65,1.63-5.65,2.6-8.76,2.8-4.86.97-8.76,1.23-8.97.61-.22-.61,3.72-1.88,8.76-2.84,2.9-.91,5.98-1.1,8.97-.57Z"/>
  <path class="cls-10" d="M1752.73,1579.17c-3.98-1.97-7.34-5-9.72-8.76-3-3.19-5.11-7.12-6.13-11.38,2.92,3.09,5.55,6.43,7.88,9.98,2.92,3.16,5.59,6.56,7.97,10.16Z"/>
  <path class="cls-10" d="M1650.17,1612.61c-.44-.48,2.19-3.37,5.78-6.43,3.59-3.06,6.87-5.21,7.27-4.73.39.48-2.19,3.37-5.78,6.43-3.59,3.07-6.87,5.21-7.26,4.73Z"/>
  <path class="cls-4" d="M1620.67,1453.05c-4.38-13.13-11.95-28.1-25.56-28.28-4.04.23-7.96,1.54-11.32,3.8-3.36,2.26-6.06,5.37-7.81,9.03-3.72,7.24-5.5,15.33-5.17,23.46,1.7,57.74,11.54,114.95,29.24,169.93h49.81c-.57-60.46-10.42-120.47-29.2-177.94Z"/>
  <path class="cls-4" d="M1530.49,1371.41c-6.96-27.84-27.71-42.9-51.83-44.3-21.89,3.89-30.64,25.56-33.18,47.75-2.54,22.2,4.38,44.3,11.08,65.66,21.86,68.38,43.74,136.75,65.66,205.13l61.98-6.79c-19.61-91.66-30.9-176.67-53.71-267.46Z"/>
  <path class="cls-10" d="M1595.1,1424.78c-1.63,2.24-3.09,4.59-4.38,7.05-2.51,7.01-3.31,14.51-2.32,21.89.96,9.46,2.06,20.88,3.63,33.36,1.58,12.48,3.85,26.27,6.66,40.54,5.64,28.63,11.99,54.32,16.02,73.02,2.06,9.37,3.59,16.94,4.38,22.24.39,2.41.74,4.38,1.05,6.08.15.7.23,1.42.22,2.15-.32-.65-.56-1.35-.7-2.06l-1.44-6c-1.32-5.56-3.11-13.13-5.25-21.89-4.38-18.6-11.03-44.21-16.68-72.93-2.8-14.36-4.99-28.1-6.52-40.71-.79-6.26-1.32-12.3-1.84-17.9-.52-5.6-1.05-10.81-1.31-15.58-.87-7.66.21-15.42,3.15-22.55,1.26-2.6,3.08-4.89,5.34-6.7Z"/>
  <path class="cls-10" d="M1479.62,1325.37c-2.74,3.17-5.24,6.53-7.48,10.07-5.73,9.88-8.98,21.02-9.46,32.44-.27,16.95,2.34,33.82,7.7,49.9,5.43,18.43,11.38,38.65,17.51,59.93,12.35,42.46,23.51,80.89,31.69,109,3.9,13.83,7.09,25.08,9.37,33.14,1.01,3.76,1.84,6.74,2.45,9.02.3,1.05.54,2.12.7,3.19-.5-.97-.88-2-1.14-3.06-.74-2.23-1.66-5.21-2.84-8.76l-10.07-32.92c-8.36-28.06-19.74-66.45-32.35-108.87-6.22-21.27-12.12-41.5-17.51-59.97-5.31-16.33-7.76-33.44-7.22-50.6.61-11.62,4.15-22.9,10.29-32.79,2.21-3.69,5.04-6.98,8.36-9.72Z"/>
  <path class="cls-10" d="M1570.67,1632.18c-.56-.94-1.03-1.94-1.4-2.98-.83-1.97-2.14-4.9-3.54-8.75-2.93-7.62-6.74-18.82-10.64-32.92-3.9-14.09-7.84-31.03-11.56-49.99-3.72-18.95-7.53-39.79-11.69-61.63-4.16-21.84-9.1-42.46-14.66-60.89-4.81-16.36-10.85-32.32-18.08-47.76-4.86-10.39-10.44-20.44-16.68-30.07-2.15-3.5-4.07-6-5.25-7.79-.67-.87-1.24-1.81-1.71-2.8.76.77,1.47,1.61,2.1,2.5,1.27,1.75,3.33,4.16,5.56,7.57,6.6,9.5,12.45,19.5,17.51,29.9,7.48,15.43,13.71,31.43,18.65,47.84,6.02,20.15,10.99,40.61,14.88,61.28,4.12,21.89,7.97,42.68,11.51,61.68,3.55,19,7.31,35.89,11.03,49.95,3.72,14.05,7.27,25.34,9.94,33.05,1.27,3.85,2.45,6.83,3.15,8.76.39.99.69,2.01.88,3.06Z"/>
  <path class="cls-10" d="M1457.74,1430.25c0,.61-3.19,1.92-7.53,2.98-4.33,1.05-7.92,1.4-8.05.79-.13-.61,3.24-1.97,7.53-2.98,4.29-1.01,7.92-1.4,8.05-.79Z"/>
  <path class="cls-10" d="M1451.17,1387.78c-6.92,1.24-13.97,1.52-20.97.83,3.25-1.52,6.84-2.19,10.42-1.97,3.56-.49,7.18-.1,10.55,1.13Z"/>
  <path class="cls-10" d="M1458.18,1349.31c-.44.48-3.77-1.71-7.53-4.9-3.77-3.19-6.44-6.13-6.04-6.61.39-.48,3.77,1.71,7.53,4.9,3.76,3.19,6.43,6.13,6.04,6.61Z"/>
  <path class="cls-10" d="M1477.09,1313.37c.61,0,.44,3.15.35,6.79s0,6.65-.74,6.78c-.74.13-1.66-2.93-1.53-6.83.13-3.9,1.32-6.74,1.93-6.74Z"/>
  <path class="cls-10" d="M1515.69,1330.4c.53.35-1.01,3.41-3.37,6.83-2.36,3.41-4.73,5.87-5.25,5.51-.53-.35,1.01-3.41,3.37-6.83,2.36-3.41,4.73-5.87,5.25-5.51Z"/>
  <path class="cls-10" d="M1540.78,1373.95c0,.57-2.98,2.45-7.18,4.38-4.2,1.92-7.79,2.62-8.01,2.01-.22-.61,2.98-2.41,7.13-4.12,4.16-1.71,7.79-2.84,8.06-2.27Z"/>
  <path class="cls-10" d="M1555.97,1418.78c-6.02,4.07-13.35,5.72-20.53,4.64,3.27-1.31,6.7-2.18,10.2-2.58,3.33-1.15,6.81-1.85,10.33-2.06Z"/>
  <path class="cls-10" d="M1486.15,1406.04c-.61,0,0-3.28.96-6.92.96-3.63,2.54-6.43,3.15-6.26.61.17,0,3.28-.96,6.92-.97,3.63-2.59,6.43-3.15,6.26Z"/>
  <path class="cls-10" d="M1495.91,1462.21c-.61-.26.66-4.38,2.8-9.32,2.15-4.95,4.38-8.76,4.86-8.41.48.35-.66,4.38-2.8,9.32-2.14,4.95-4.29,8.76-4.86,8.41Z"/>
  <path class="cls-10" d="M1471.83,1477.7c-3.02-.08-5.99-.74-8.75-1.97-4.73-1.49-8.76-2.84-8.45-3.46,3.11-.45,6.28-.02,9.15,1.27,4.68,1.53,8.27,3.59,8.05,4.16Z"/>
  <path class="cls-10" d="M1485.71,1523.49c.35.48-2.27,3.02-5.95,5.6-3.68,2.58-6.87,4.38-7.22,3.81-.35-.57,2.28-3.06,5.91-5.64,3.63-2.59,6.87-4.21,7.26-3.77Z"/>
  <path class="cls-10" d="M1496.83,1569.27c0,.62-3.15,1.97-7.35,2.98-4.2,1-7.7,1.36-7.84.74-.13-.62,3.11-1.93,7.31-2.98,4.21-1.05,7.75-1.36,7.88-.74Z"/>
  <path class="cls-10" d="M1557.19,1456.95c.35.53-2.5,2.8-6.57,4.38-4.07,1.57-7.66,1.71-7.79,1.09-.13-.61,3.11-1.75,7.01-3.24,3.89-1.49,6.91-2.75,7.35-2.23Z"/>
  <path class="cls-10" d="M1565.82,1528.13c-.26.57-3.59-.44-7.44-2.28-3.85-1.84-6.78-3.77-6.52-4.38.26-.61,3.63.44,7.48,2.28,3.85,1.84,6.74,3.81,6.48,4.38Z"/>
  <path class="cls-10" d="M1581.05,1579.03c-3.44-.17-6.8-1.08-9.85-2.67-5.21-2.01-9.28-4.16-9.06-4.77,3.45.17,6.82,1.07,9.89,2.67,5.21,2.06,9.24,4.16,9.02,4.77Z"/>
  <path class="cls-10" d="M1499.28,1618.92c-.3-.57,3.72-3.33,8.45-7,4.73-3.68,8.32-7.01,8.76-6.57.44.44-2.5,4.38-7.4,8.36-2.72,2.61-6.12,4.41-9.81,5.21Z"/>
  <path class="cls-10" d="M1539.51,1593c-.61,0-1.49-3.33-3.07-7.31-1.57-3.98-3.15-7.09-2.62-7.49.52-.39,3.11,2.36,4.77,6.66,1.66,4.29,1.53,8.1.92,8.14Z"/>
  <path class="cls-10" d="M1528.87,1531.81c-.39.48-2.98-.74-5.82-2.8-2.84-2.06-4.86-4.07-4.38-4.6.48-.53,2.94.74,5.78,2.76,2.84,2.01,4.77,4.12,4.42,4.64Z"/>
  <path class="cls-10" d="M1622.68,1435.94c.39.48-2.15,2.98-5.65,5.56-3.5,2.59-6.65,4.38-7,3.77-.35-.61,2.14-3.02,5.64-5.6,3.5-2.58,6.74-4.33,7.01-3.72Z"/>
  <path class="cls-10" d="M1636.82,1474.5c0,.61-3.89,1.44-8.75.88-4.86-.57-8.76-2.15-8.41-2.76s3.98,0,8.76.53c4.77.53,8.36.7,8.4,1.36Z"/>
  <path class="cls-10" d="M1576.06,1483.17c0,.61-3.55,1.93-8.32,2.23-4.77.31-8.54-.53-8.49-1.14s3.81-.83,8.36-1.14c4.55-.3,8.32-.57,8.45.05Z"/>
  <path class="cls-10" d="M1581.27,1446.62c0,.61-3.77.7-7.84-1.18-4.07-1.88-6.39-4.73-5.95-5.16.44-.44,3.19,1.4,6.91,3.11,3.72,1.71,6.96,2.58,6.87,3.24Z"/>
  <path class="cls-10" d="M1642.07,1516c-.35.53-4.16-1.27-8.49-3.98-4.33-2.71-7.62-5.39-7.26-5.95.35-.57,4.12,1.27,8.45,4.03,4.33,2.75,7.61,5.38,7.31,5.91Z"/>
  <path class="cls-9" d="M1790.38,1624.52h-324.32v57.48h324.32v-57.48Z"/>
  <path class="cls-9" d="M1490.26,1670.57l39.44,171.77h193.31l43.16-171.77h-275.91Z"/>
  <path class="cls-10" d="M1790.21,1682.04c0,.66-73.15,1.14-163.37,1.14s-163.41-.48-163.41-1.14,73.14-.96,163.37-.96,163.41.35,163.41.96Z"/>
  <path class="cls-10" d="M1609.85,1484.44c-.57.31-2.76-2.27-4.99-5.78-2.23-3.5-3.54-6.66-2.98-7.01.57-.35,2.71,2.28,4.95,5.78,2.23,3.5,3.55,6.65,3.02,7Z"/>
  <path class="cls-10" d="M1609.94,1530.66c-.15-3.01.44-6.02,1.71-8.75,1.53-4.64,3.28-8.23,3.85-8.01.57.22,0,4.12-1.71,8.76-1.71,4.64-3.24,8.23-3.85,8.01Z"/>
  <path class="cls-10" d="M1625.79,1579.21c-.57.26-2.98-3.59-5.43-8.76-1.8-2.93-2.94-6.22-3.33-9.63.57-.26,2.98,3.59,5.39,8.76,1.83,2.92,2.98,6.21,3.37,9.63Z"/>
  <path class="cls-10" d="M1591.51,1618.3c-.44-.44,1.49-3.42,4.37-6.74,2.89-3.33,5.56-5.65,6.04-5.21.48.44-1.45,3.41-4.38,6.7-2.93,3.28-5.56,5.64-6.04,5.25Z"/>
  <path class="cls-10" d="M1584.33,1547.35c0,.65-3.24.61-6.96,0-3.72-.62-6.7-1.71-6.57-2.32s3.19-.61,6.96,0c3.77.61,6.7,1.71,6.57,2.32Z"/>
  <path class="cls-6" d="M862.59,1320.77l1.4-75.29s-74.85-11.08-91.92-108.12c-8.54-48.15-7.53-127.65-4.6-192.61,2.62-58.48,64.52-117.89,122.79-112.76l158.38,27.23c8.66,1.48,16.52,5.98,22.18,12.7,5.66,6.73,8.75,15.24,8.73,24.02l-5.21,428.07c-.33,27.85-11.64,54.45-31.45,74.02-19.81,19.58-46.54,30.55-74.4,30.55-14.07,0-28-2.79-40.98-8.23-12.98-5.44-24.74-13.41-34.6-23.45-9.86-10.04-17.62-21.94-22.82-35.01-5.2-13.07-7.75-27.05-7.49-41.12Z"/>
  <path class="cls-10" d="M782.61,1008.96c.02,3.25,1.32,6.37,3.61,8.69,2.29,2.32,5.39,3.64,8.65,3.7,1.59.1,3.18-.12,4.69-.65s2.88-1.35,4.06-2.42c1.18-1.07,2.13-2.36,2.8-3.81.67-1.44,1.04-3.01,1.1-4.6,0-3.25-1.29-6.37-3.58-8.69-2.28-2.32-5.38-3.65-8.63-3.7-1.59-.11-3.19.11-4.7.63-1.51.52-2.9,1.34-4.08,2.41-1.18,1.07-2.14,2.37-2.81,3.81-.67,1.45-1.05,3.01-1.1,4.61Z"/>
  <path class="cls-10" d="M781.34,988.95c1.27,2.01,11.82-4.37,25.13-2.36,13.31,2.01,21.89,10.77,23.59,9.15.83-.7-.22-4.16-3.94-8.23-4.94-5.17-11.48-8.53-18.56-9.54-7.05-.99-14.22.48-20.31,4.16-4.64,2.94-6.52,5.91-5.91,6.83Z"/>
  <path class="cls-10" d="M911.44,1008.96c.02,3.25,1.32,6.37,3.6,8.69,2.29,2.32,5.4,3.64,8.65,3.7,1.59.09,3.18-.13,4.68-.66,1.5-.53,2.88-1.35,4.06-2.42,1.18-1.07,2.13-2.36,2.8-3.8.67-1.44,1.05-3,1.11-4.59-.02-3.25-1.32-6.37-3.6-8.69-2.29-2.32-5.4-3.64-8.65-3.7-1.59-.11-3.19.11-4.69.63-1.51.52-2.89,1.35-4.07,2.42-1.18,1.07-2.13,2.37-2.8,3.81-.67,1.45-1.04,3.01-1.09,4.61Z"/>
  <path class="cls-10" d="M911.7,993.11c1.79,1.88,12.47-6.35,27.75-6.52,15.28-.18,26.57,7.44,28.23,5.52.79-.83-1.01-4.38-5.95-7.79-6.65-4.57-14.57-6.93-22.63-6.74-7.91.13-15.58,2.78-21.89,7.57-4.81,3.72-6.35,7.13-5.51,7.97Z"/>
  <path class="cls-10" d="M870.42,1086.35c0-.74-8.32-2.06-21.89-3.55-3.42-.31-6.7-.92-7.31-3.24-.35-3.53.38-7.09,2.1-10.2l9.68-26.27c13.44-37.43,23.07-68.2,21.58-68.72-1.49-.53-13.61,29.37-27.05,66.84-3.24,9.2-6.32,17.95-9.24,26.27-2.1,4.17-2.65,8.95-1.53,13.48.51,1.2,1.29,2.26,2.27,3.12.99.85,2.16,1.46,3.42,1.79,1.92.51,3.89.74,5.87.7,13.62.65,22.06.57,22.11-.22Z"/>
  <path class="cls-3" d="M863.99,1245.47c45.84-.14,90.74-13,129.7-37.16,0,0-32.57,67.98-130.14,60.58l.44-23.42Z"/>
  <path class="cls-10" d="M904.87,963.17c1.84,3.41,14.88,0,30.64-.53,15.76-.53,29.11,2.15,30.64-1.4.7-1.66-1.97-4.77-7.57-7.53-7.36-3.43-15.44-5.04-23.55-4.69-8.13.17-16.09,2.27-23.24,6.13-5.21,3.02-7.66,6.3-6.91,8.01Z"/>
  <path class="cls-10" d="M780.73,953.76c2.28,3.28,12.74,1.18,24.95,2.28,12.21,1.09,22.33,4.37,25,1.4,1.23-1.44,0-4.64-4.38-7.97-5.81-4.07-12.62-6.5-19.7-7.03-7.08-.52-14.17.88-20.52,4.05-4.6,2.67-6.35,5.65-5.34,7.27Z"/>
  <path class="cls-3" d="M907.37,1101.37c-2.97-2.7-6.8-4.25-10.81-4.38-2.93-.3-5.89.03-8.68.98-2.79.95-5.34,2.5-7.47,4.54-2.09,2.08-3.5,4.75-4.05,7.64-.55,2.9-.2,5.89.98,8.59l.22-1.53c.5,2.79,1.71,5.4,3.53,7.58,1.81,2.18,4.16,3.85,6.81,4.85,2.68.94,5.54,1.22,8.35.8,2.81-.41,5.47-1.5,7.76-3.17,2.26-1.7,4.11-3.89,5.4-6.41,1.3-2.52,2.01-5.3,2.08-8.13.12-2.07-.19-4.15-.89-6.11-.71-1.95-1.8-3.75-3.22-5.27Z"/>
  <path class="cls-10" d="M869.85,1126.1c1.23,1.53,11.73-4.86,25.39-10.99,13.66-6.13,25.34-9.94,25-11.86-.35-1.92-13.35-1.01-27.84,5.6-14.49,6.61-23.86,15.85-22.55,17.25Z"/>
  <path class="cls-8" d="M533.79,1647.85s31.61-35.81,50.52-34.32c0,0-9.02.57-1.84-29.59,7.18-30.16,41.89-58.75,41.89-58.75l67.54-126.55s34.67-85.05,65.97-102.74c31.3-17.69,51.74-16.94,51.74-16.94v169.36l-16.94,141.48-24.65,72.45c-20.75,61.07-77.09,122.79-141.61,121.74h-77.83l-14.8-136.14Z"/>
  <path class="cls-8" d="M1315.38,1324.44c-31.25-14.88-64.02-26.31-97.75-34.1-50.82-10.9-141.96-15.19-141.96-15.19,0,0-12.43,115.04-161.96,78.23-52.53-12.91-47.85-83.83-47.85-83.83,0,0-53.53,6-62.9,10.73-43.77,21.89-69.34,258.71-71.18,309.53-1.84,50.82,1.23,81.29,29.2,154.92l38.96,98.01h531.42l-15.63-88.16,42.81-310.8s3.81-81.03-43.16-119.33Z"/>
  <g class="cls-13">
    <path class="cls-1" d="M952.27,1827.02c25.87,27.01,100.24,12.56,141.57,4.73,110.14-20.93,178.73-85.89,214.1-192.26l-355.67,187.53Z"/>
  </g>
  <path class="cls-10" d="M767.5,1761.05c-.63-.96-1.14-1.99-1.53-3.07l-3.98-8.75c-1.75-3.9-3.81-8.76-5.78-14.4-1.97-5.64-4.68-12.08-6.74-19.43-1.1-3.63-2.28-7.44-3.46-11.42-1.18-3.98-2.1-8.23-3.24-12.56-2.32-8.76-3.94-18.13-5.78-28.02-3.46-21.66-5.17-43.56-5.12-65.49.27-21.88,2.25-43.7,5.91-65.27.96-4.95,1.84-9.81,2.75-14.49.92-4.68,2.1-9.15,3.11-13.53,1.93-8.76,4.38-16.72,6.61-24.03,2.23-7.31,4.38-13.74,6.48-19.48,2.1-5.73,3.9-10.55,5.56-14.49,1.66-3.94,2.8-6.78,3.77-9.06.37-1.07.86-2.1,1.45-3.06-.23,1.11-.59,2.2-1.05,3.24l-3.37,9.19c-1.49,3.98-3.37,8.75-5.16,14.58-1.8,5.82-4.38,12.21-6.13,19.56-1.75,7.35-4.38,15.28-6.3,23.99-.97,4.38-2.15,8.76-3.02,13.48s-1.71,9.5-2.58,14.45c-3.56,21.46-5.48,43.16-5.73,64.92-.04,21.74,1.6,43.46,4.9,64.96,1.8,9.9,3.33,19.31,5.56,27.93,1.09,4.37,1.88,8.75,3.06,12.52,1.18,3.77,2.28,7.79,3.33,11.47,1.97,7.31,4.38,13.7,6.39,19.43,2.01,5.73,3.81,10.55,5.43,14.49,1.62,3.94,2.67,6.83,3.59,9.11.47,1.04.84,2.12,1.1,3.24Z"/>
  <g class="cls-13">
    <path class="cls-1" d="M753.84,1477.17c-13.72,14.83-23.16,33.11-27.31,52.88-4.12,19.68-6.22,39.73-6.26,59.84-1.25,20.56-.37,41.2,2.63,61.59,3.63,20.31,9.68,36.07,23.38,51.44-8.02-28.92-12.42-58.73-13.13-88.73-2.16-46.59,4.87-93.15,20.7-137.01Z"/>
  </g>
  <path class="cls-10" d="M673.95,1682.3c-.48-6.45-1.46-12.84-2.94-19.13-3.95-15.12-12.46-28.64-24.38-38.74-6.49-5.54-14.13-9.55-22.37-11.73-6.76-1.71-13.75-2.34-20.7-1.88-11.95.83-19.13,3.19-19.26,2.71,1.59-.77,3.26-1.35,4.99-1.71,4.63-1.28,9.36-2.15,14.14-2.59,7.15-.72,14.37-.25,21.36,1.4,8.59,2.18,16.57,6.3,23.33,12.04,12.27,10.38,20.85,24.44,24.47,40.1,1.1,4.68,1.69,9.46,1.75,14.27.09,1.76-.04,3.53-.39,5.25Z"/>
  <path class="cls-12" d="M885.47,1405.03c-1.95-3.2-4.81-5.73-8.23-7.27-26.34-15.78-53.53-30.07-81.47-42.81-22.61-9.79-46.05-17.54-70.04-23.15-4.46,7.12-8.59,14.28-12.39,21.49,6.41,6.05,14.12,10.56,22.55,13.16,8.42,2.6,17.33,3.24,26.04,1.86,5.78-.92,11.78-2.76,17.51-1.01,8.76,2.76,12.52,12.69,19.66,18.3,10.55,8.23,26.05,5.65,37.91,11.77,6.44,4.09,12.32,8.99,17.51,14.58,5.6,5.12,12.65,9.63,20.22,8.76,7.57-.88,14.01-8.84,10.73-15.67Z"/>
  <path class="cls-6" d="M582.29,1740.96s18.56-17.77,17.07-35.02c-1.49-17.25,5.95-48.98-17.07-54.2-23.03-5.21-36.33,0-36.33,0,0,0-61.59-22.24-75.69-14.09-14.1,8.14-18.56,30.42-18.56,30.42,0,0-27.45,33.4-28.93,44.52-.38,7.75,1.99,15.38,6.7,21.54l9.63,2.98s-2.98,12.61,1.49,17.77c4.05,4.13,8.63,7.7,13.61,10.64.22,3.63,1.26,7.16,3.04,10.33,1.78,3.17,4.26,5.89,7.25,7.96,10.42,7.4,35.46,3.9,35.46,3.9,0,0,56.91-4.38,67.5-14.27,10.59-9.9,14.84-32.48,14.84-32.48Z"/>
  <path class="cls-6" d="M437.09,1736.93c31.1,7.95,62.71,13.8,94.6,17.51,5.47.61,12,.79,15.28-3.63,1.36-2.41,1.8-5.23,1.24-7.93-.56-2.71-2.09-5.11-4.3-6.78-4.52-3.19-9.58-5.53-14.93-6.91-14.45-5.25-27.05-14.45-39.88-22.89-12.83-8.45-26.62-16.33-41.85-18.38"/>
  <path class="cls-3" d="M447.24,1687.94c.8-.12,1.61-.12,2.41,0,2.3.32,4.58.79,6.83,1.4,8.24,2.35,16.13,5.78,23.46,10.2,9.41,5.34,19.79,13.13,32,20.14,6.33,3.88,13.05,7.08,20.05,9.54,3.87,1.1,7.58,2.75,10.99,4.9,1.84,1.21,3.39,2.81,4.55,4.69,1.16,1.88,1.89,3.98,2.15,6.17.24,2.32-.37,4.65-1.71,6.57-1.37,1.83-3.31,3.16-5.52,3.77-3.99.91-8.14,1-12.17.26-7.7-.96-15.15-1.97-22.19-3.06-14.1-2.19-26.7-4.38-37.21-6.83-10.5-2.45-19.04-4.38-24.86-5.96-2.89-.74-5.12-1.4-6.65-1.84-.8-.17-1.56-.45-2.28-.83.8,0,1.59.12,2.36.35l6.78,1.49c5.87,1.27,14.4,3.15,24.95,5.21,10.55,2.06,23.15,4.38,37.21,6.35,7.05,1.01,14.45,2.01,22.15,2.89,3.72.73,7.54.73,11.25,0,1.74-.43,3.25-1.48,4.28-2.94,1.03-1.46,1.5-3.25,1.32-5.03-.21-1.86-.83-3.64-1.82-5.23-.98-1.59-2.31-2.94-3.87-3.96-3.25-2.03-6.78-3.61-10.46-4.68-7.12-2.44-13.96-5.64-20.4-9.55-12.3-7.35-22.5-15.15-31.74-20.57-7.16-4.49-14.83-8.1-22.85-10.77-5.73-2.06-9.06-2.45-9.02-2.67Z"/>
  <path class="cls-4" d="M504.94,1660.94l-47.84-98.05s-4.38-16.11,6-17.99c10.37-1.88,15.01,1.88,17.51,7.88,2.5,6,58.74,123.93,58.74,123.93v21.14l-34.41-36.9Z"/>
  <path class="cls-4" d="M548.1,1748.66c-1.14,2.19,19.79,29.68,23.42,27.01,3.63-2.67-7.22-44.52-7.22-44.52l-4.16-12.3-20.79-14.05-1.62,22.41,10.38,21.45Z"/>
  <path class="cls-6" d="M451.8,1667.94c-1.66,21.89,19.83,25.43,32.35,35.02,12.26,9.07,25.31,16.99,39.01,23.68,6.08,3.19,13.57,6.87,19.7,3.72,5.04-2.58,5.82-7.01,5.17-12.65-.66-5.72-3.01-11.12-6.74-15.5-15.72-17.99-30.25-33.79-47.63-50.56"/>
  <path class="cls-3" d="M493.65,1651.88c.64.4,1.22.87,1.75,1.4,1.09.97,2.71,2.41,4.73,4.38,4.02,3.77,9.76,9.37,16.68,16.55,6.91,7.18,14.88,15.8,23.55,25.61,5.01,5.09,8.11,11.76,8.76,18.87.28,1.89.28,3.81,0,5.69-.37,2.04-1.38,3.91-2.89,5.34-1.52,1.36-3.35,2.35-5.33,2.86-1.98.52-4.06.56-6.05.11-3.77-.82-7.4-2.19-10.77-4.07l-9.59-5.12c-6.3-3.37-12.3-6.79-17.86-10.33-5.56-3.55-10.59-7.4-15.19-10.77-4.6-3.37-9.63-5.6-13.88-8.19-3.96-2.23-7.55-5.07-10.64-8.4-2.32-2.57-3.95-5.69-4.73-9.06-.51-2.1-.7-4.28-.57-6.44-.02-.75.07-1.5.26-2.23.2,2.84.59,5.66,1.18,8.45.88,3.17,2.54,6.08,4.82,8.45,3.07,3.13,6.6,5.77,10.46,7.84,4.38,2.45,9.2,4.77,14.14,8.01,4.95,3.24,9.67,7.14,15.28,10.59,5.6,3.46,11.47,6.78,17.77,10.11l9.59,5.08c3.17,1.76,6.57,3.06,10.11,3.85,1.62.5,3.34.55,4.98.15,1.65-.4,3.15-1.23,4.36-2.42,1.21-1.18,2.08-2.67,2.51-4.3.44-1.63.42-3.36-.04-4.98-.62-6.61-3.52-12.79-8.19-17.51-8.75-9.89-16.46-18.65-23.15-25.91-6.7-7.27-12.3-13.13-16.11-17.03l-4.38-4.38c-1.14-1.53-1.62-2.1-1.57-2.19Z"/>
  <path class="cls-6" d="M454.34,1764.55c-.45-2.67-.33-5.4.36-8.02.69-2.62,1.92-5.06,3.62-7.17,2.94-2.81,6.84-4.37,10.9-4.38,4.02,0,8.02.53,11.91,1.57"/>
  <path class="cls-3" d="M481.13,1746.74c0,.35-2.36,0-5.91-.35-4.45-.73-9.02-.12-13.13,1.75-1.91,1.12-3.53,2.67-4.71,4.54-1.19,1.86-1.91,3.99-2.12,6.19-.1,1.95-.38,3.88-.83,5.78-.82-1.87-1.09-3.93-.79-5.95.12-2.25.65-4.46,1.57-6.52,1.24-2.57,3.26-4.69,5.78-6.04,4.55-2.15,9.71-2.63,14.57-1.36,1.97.27,3.86.94,5.56,1.97Z"/>
  <path class="cls-6" d="M542.54,1754.7c1.32-.12,2.65.03,3.92.45,1.26.41,2.42,1.08,3.42,1.97.99.88,1.8,1.96,2.36,3.16.56,1.2.87,2.51.91,3.84-.09,2.71-.89,5.34-2.31,7.64-1.42,2.3-3.42,4.19-5.79,5.49-4.78,2.46-10,3.95-15.37,4.38-15.93,2.4-32.09,2.93-48.15,1.58"/>
  <path class="cls-3" d="M481.7,1783.24c0-.35,5.43,0,14.1,0,11.29-.13,22.57-1,33.75-2.63,6.07-.37,11.92-2.33,16.99-5.69,1.96-1.36,3.51-3.23,4.49-5.4.98-2.18,1.35-4.58,1.07-6.95-.35-1.58-1.07-3.05-2.11-4.29-1.04-1.24-2.36-2.22-3.84-2.84-1.18-.32-2.38-.54-3.59-.65,1.23-.51,2.62-.51,3.85,0,1.76.54,3.36,1.52,4.63,2.86,1.27,1.33,2.18,2.97,2.63,4.76.47,2.7.17,5.48-.86,8.01-1.03,2.54-2.75,4.74-4.96,6.35-5.31,3.71-11.53,5.89-17.99,6.3-11.29,1.65-22.7,2.31-34.1,1.97-4.38,0-7.88-.48-10.29-.79-1.3-.14-2.57-.48-3.77-1.01Z"/>
  <path class="cls-6" d="M554.32,1656.6c-4.53,2.93-8.35,6.82-11.19,11.41-2.84,4.58-4.62,9.74-5.22,15.1-.6,5.36,0,10.78,1.76,15.88,1.76,5.1,4.62,9.74,8.39,13.6,3.06,3.55,7.37,5.8,12.04,6.26,5.8-.49,11.19-3.22,15.01-7.62,7.65-7.23,14.27-15.48,19.66-24.51"/>
  <path class="cls-3" d="M594.81,1686.72c-.54,1.56-1.3,3.04-2.27,4.38-2.36,3.92-5.01,7.67-7.93,11.21-1.97,2.46-4.07,4.81-6.3,7.05-2.47,2.72-5.23,5.16-8.23,7.27-3.48,2.54-7.81,3.63-12.08,3.02-4.41-1.04-8.37-3.49-11.29-6.96-5.8-6.26-9.29-14.33-9.89-22.85-.49-6.93,1.03-13.87,4.38-19.96,2.2-4.05,5.17-7.64,8.75-10.55,1.27-1.17,2.76-2.08,4.38-2.67-4.77,3.86-8.74,8.62-11.69,14.01-3.01,5.87-4.31,12.47-3.77,19.04.66,8.03,3.99,15.62,9.46,21.54,2.61,3.12,6.13,5.34,10.07,6.35,3.71.54,7.48-.38,10.51-2.58,2.9-2.01,5.6-4.3,8.05-6.83,2.41-2.32,4.38-4.64,6.39-6.79,7.53-8.67,11.12-14.88,11.47-14.66Z"/>
  <path class="cls-7" d="M257.61,1830.3v-45.35l277.4,5.03-281.91-9.63,2.5-10.02,333.74,10.81s-15.28,24.6,0,45.18l-331.72,3.98Z"/>
  <path class="cls-10" d="M240.59,1842.21c4.99-.97,354.97,0,354.97,0v-45.74l324.59,85.54v-15.89l-331.33-87.55h-11.95v47.75h-320.21c-4.22,0-8.26,1.68-11.25,4.65-2.99,2.98-4.67,7.02-4.68,11.24h-.13Z"/>
  <path class="cls-2" d="M922.29,1856.17c-40.49-6.49-79.87-18.6-117.01-35.98-50.25-23.59-97.62-57.17-152.73-63.95-12.71-1.92-25.67-1.29-38.13,1.88-12.49,3.27-23.38,10.95-30.64,21.62,15.13,2.33,30.14,5.43,44.96,9.28,19.78,5.47,127.43,32.22,195.67,51.74,68.24,19.52,95.95,27.31,95.95,27.31l1.93-11.91Z"/>
  <path class="cls-3" d="M1050.02,1312.84l.83-.22,2.45-.61,9.63-2.1c8.36-1.93,20.62-4.38,35.85-8.76,8.37-2.06,16.53-4.89,24.38-8.45.97-.5,1.86-1.15,2.63-1.92.74-.83,1.44-1.88,2.19-2.85l4.38-5.95,9.59-12.43c6.57-8.75,13.53-17.51,20.53-27.36,1.8-2.45,3.5-4.9,5.21-7.44,1.77-2.38,2.96-5.13,3.46-8.05.65-6.18-.45-12.42-3.19-17.99l-.26-.61.39-.53c4.49-5.96,7.5-12.91,8.76-20.27.33-1.78.33-3.6,0-5.39-.42-1.71-1.37-3.24-2.72-4.38-3.02-2.21-6.67-3.39-10.42-3.37h-.53l-.3-.35-6.22-7.26c-4.24-2.66-9.26-3.79-14.23-3.2-5.33.27-10.63,1.07-15.8,2.41h-.61l-.48-.44-.7-.61c-5.81-3.96-12.2-6.98-18.96-8.93-3.13-1.35-6.6-1.69-9.94-.96-3.25.82-6.2,2.55-8.49,4.99-5.17,4.46-10.05,9.24-14.62,14.31-1.03,1.06-1.8,2.35-2.23,3.77-.1,1.47.07,2.96.48,4.37.85,3.05,2.05,5.99,3.59,8.76l.53.96-.96.53-65.23,34.76-27.58,14.89-12.26,6.83c-3.77,1.88-7.33,4.14-10.64,6.74-2.37,2.92-4.1,6.3-5.08,9.94-.91,3.28-1.62,6.61-2.15,9.98-.92,6.26-1.27,11.73-1.53,16.16-.26,4.42-.22,7.84-.22,10.15v2.67c.02.31.02.62,0,.92-.05-.29-.05-.59,0-.88v-12.83c.11-5.45.52-10.88,1.23-16.28.43-3.41,1.1-6.79,2.01-10.11.95-3.86,2.74-7.46,5.25-10.55,1.55-1.48,3.29-2.76,5.17-3.81l5.69-3.33,12.21-6.92,27.14-15.01,65.09-35.02-.44,1.49c-1.63-2.97-2.92-6.11-3.85-9.37-.49-1.74-.67-3.54-.53-5.34.45-1.85,1.39-3.54,2.72-4.9,4.63-5.17,9.58-10.04,14.84-14.57,2.57-2.72,5.87-4.65,9.5-5.56,3.73-.78,7.6-.41,11.12,1.05,7.14,2.12,13.88,5.41,19.96,9.72l.79.7-1.1-.26c5.34-1.41,10.81-2.25,16.33-2.5,2.72-.13,5.46.05,8.14.53,2.78.38,5.41,1.5,7.61,3.24l6.22,7.22-.88-.39c4.3-.01,8.48,1.39,11.91,3.98,1.69,1.44,2.88,3.37,3.41,5.52.37,2.06.37,4.16,0,6.22-1.35,7.75-4.55,15.06-9.32,21.32v-1.18c2.92,5.99,4.08,12.68,3.33,19.31-.58,3.17-1.88,6.17-3.81,8.75l-5.25,7.49c-7.13,9.67-14.14,18.73-20.75,27.27l-9.67,12.39c-1.52,2.01-2.98,3.98-4.38,5.91-.74.97-1.4,1.93-2.27,2.89-.89.94-1.95,1.71-3.11,2.28-7.99,3.56-16.3,6.34-24.82,8.32-15.28,3.94-27.58,6.43-36.03,8.1l-9.67,1.84-2.5.39c-.53.26-.83.26-.83.22Z"/>
  <path class="cls-6" d="M949.47,1314.38s-1.97-52.27,10.46-60.54c12.43-8.28,113.82-62.12,113.82-62.12,0,0-5.17-9.32-4.12-14.49,1.05-5.17,25.87-25.92,25.87-25.92,0,0,23.81,6.22,31.08,13.48,0,0,22.76-6.22,31.03,1.01l6.22,7.26s15.54,0,14.49,12.43c-1.04,8.28-4.26,16.13-9.32,22.76,0,0,7.26,14.49,1.05,24.86-6.22,10.38-37.3,49.69-43.47,58-6.17,8.32-76.52,24.82-76.52,24.82l-100.59-1.57Z"/>
  <path class="cls-3" d="M949.47,1314.38c.61-.06,1.23-.06,1.84,0h25.34l73.54.7c11.47-2.8,23.86-6,36.9-9.72,6.48-1.88,13.13-3.85,19.96-6.17,3.41-1.14,6.83-2.36,10.2-3.77,1.66-.7,3.33-1.44,4.95-2.32,1.59-.68,3.01-1.73,4.12-3.07,9.19-11.95,18.78-24.51,28.72-37.47,4.86-6.57,10.02-13.13,14.4-20.18,4.38-7.05,2.23-16.24-1.14-23.68l-.26-.66.39-.57c4.27-5.53,7.26-11.95,8.76-18.78.52-1.6.7-3.3.51-4.97-.18-1.68-.71-3.29-1.56-4.75-2.28-2.49-5.4-4.05-8.75-4.38-.97-.16-1.95-.27-2.94-.31h-.53l-.35-.39c-2.06-2.45-4.16-4.86-6.22-7.26-1.98-1.53-4.34-2.5-6.83-2.8-2.56-.39-5.16-.53-7.75-.39-5.22.29-10.39,1.1-15.45,2.41h-.61l-.48-.44c-4.37-3.51-9.32-6.22-14.62-8.01-5.25-2.01-10.59-3.72-15.89-5.16l.96-.22c-6.87,5.78-13.57,11.65-19.61,17.78-1.56,1.47-3.03,3.05-4.38,4.72-.68.65-1.19,1.46-1.5,2.35s-.39,1.84-.26,2.77c.69,4,2.07,7.85,4.07,11.38l.48.96-.92.48-68.82,36.68-28.8,15.67-13,7.27c-1.98,1-3.8,2.3-5.39,3.85-1.35,1.62-2.41,3.45-3.15,5.43-2.38,7.08-3.86,14.44-4.38,21.89-.7,6.57-.96,12.21-1.13,16.77-.18,4.55,0,8.01,0,10.51v2.71c.02.3.02.61,0,.92-.05-.3-.05-.61,0-.92v-13.22c0-4.6,0-10.24.79-16.9.48-7.61,1.95-15.13,4.38-22.37.77-2.11,1.88-4.07,3.28-5.82,1.66-1.66,3.57-3.06,5.64-4.16,4.07-2.41,8.32-4.81,12.74-7.31l28.72-15.89,67.89-36.77-.44,1.4c-2.17-3.78-3.66-7.91-4.37-12.21-.18-1.2-.07-2.43.3-3.59.2-.58.48-1.12.83-1.62.34-.54.74-1.03,1.18-1.49,1.36-1.79,2.89-3.33,4.38-4.95,6.17-6.22,12.87-12.08,19.79-17.95l.44-.39h.53c5.49,1.47,10.89,3.22,16.2,5.25,5.6,1.88,10.82,4.76,15.41,8.49l-1.1-.3c5.2-1.35,10.53-2.17,15.89-2.45,2.76-.17,5.54-.04,8.27.39,2.89.37,5.63,1.52,7.92,3.33l6.22,7.22-.88-.39c1.1.04,2.2.14,3.28.31,4.03.45,7.73,2.41,10.38,5.47,1.15,1.7,1.83,3.68,1.97,5.73.08,1.92-.1,3.85-.53,5.73-1.5,7.18-4.58,13.94-9.02,19.79v-1.18c1.87,4.04,3.06,8.36,3.5,12.78.59,4.53-.28,9.14-2.5,13.13-4.6,7.31-9.67,13.79-14.57,20.4l-28.67,37.78c-1.29,1.54-2.92,2.77-4.77,3.59-1.68.88-3.4,1.66-5.17,2.36-3.41,1.44-6.87,2.63-10.29,3.81-6.87,2.28-13.57,4.38-20.14,6.08-13.13,3.68-25.48,6.79-36.99,9.5h-.22l-73.98-1.62-19.92-.53h-5.12l-1.71-.3Z"/>
  <path class="cls-8" d="M927.02,1324.57c-.7.48-1.05,124.23-1.05,124.23,0,0-33.49,82.16-31.96,117.14,1.53,34.98,18.69,220.93,50.04,254.2,28.63,30.38,77.61,24.64,100.94,17.03,117.75-38.35,161.13-85.8,192.87-112.98,79.49-68.16,103.44-165.82,111.06-220.58,7.61-54.76,16.42-180.13-61.28-189.24-77.7-9.11-137.98,72.1-150.19,100.99-12.21,28.89-48.68,103.44-48.68,103.44l-33.49-94.33-5.12-108.52s-87.06-14.57-123.14,8.62Z"/>
  <path class="cls-3" d="M1125.31,1164.27c1.3.19,2.54.67,3.63,1.4,1.38.73,2.63,1.68,3.72,2.8,1.51,1.58,2.41,3.64,2.54,5.82-.17,2.54-.91,5-2.14,7.22-1.13,2.56-2.4,5.06-3.81,7.49-3.15,5.6-6.93,10.82-11.25,15.58-4.38,5.17-9.85,9.06-13.83,13.13-3.3,3.92-6.23,8.14-8.76,12.6-2.06,3.11-5.16,5.38-8.75,6.39-1.25.5-2.65.5-3.9,0,1.24-.18,2.47-.43,3.68-.74,3.11-1.3,5.72-3.57,7.44-6.48,2.47-4.66,5.4-9.06,8.75-13.13,4.16-4.38,9.28-8.14,13.66-13.13,4.22-4.65,7.96-9.71,11.17-15.1,1.49-2.5,2.76-4.9,3.89-7.22,1.2-1.95,1.96-4.13,2.23-6.39-.14-1.64-.68-3.22-1.57-4.6-.89-1.38-2.11-2.52-3.54-3.32-1.11-.7-2.16-1.47-3.15-2.32Z"/>
  <path class="cls-3" d="M1154.77,1164.27s1.71,0,4.38,1.66c1.69,1.29,3.1,2.91,4.12,4.78,1.03,1.86,1.65,3.92,1.83,6.04.28,6.28-1.62,12.47-5.39,17.51-3.89,5.78-8.97,11.17-13.13,17.51-8.45,13.13-15.28,25.74-22.24,33.53-2.63,3.11-5.57,5.95-8.76,8.49-1.15.96-2.44,1.76-3.81,2.36,4.05-3.73,7.86-7.71,11.42-11.91,6.52-7.88,13.13-20.44,21.58-33.71,4.38-6.7,9.55-12.21,13.13-17.51,3.59-4.63,5.54-10.33,5.51-16.2-.09-1.95-.58-3.86-1.42-5.61-.84-1.76-2.03-3.33-3.48-4.63-1.2-.86-2.45-1.64-3.77-2.32Z"/>
  <path class="cls-3" d="M1169.75,1207.04c-1.74,3.6-3.81,7.03-6.17,10.24-4.07,6.17-9.81,14.62-16.24,23.86-3.19,4.64-6.48,8.76-8.76,13.13-1.75,3.98-3.8,7.83-6.13,11.51-1.81,2.53-4.52,4.27-7.58,4.86-2.19.3-3.33-.31-3.28-.39.04-.09,1.18,0,3.11-.44,2.64-.88,4.91-2.62,6.43-4.95,2.08-3.76,3.95-7.63,5.6-11.6,2.66-4.63,5.58-9.1,8.76-13.4,6.43-9.23,12.39-17.51,16.77-23.46,2.2-3.35,4.71-6.48,7.49-9.37Z"/>
  <path class="cls-3" d="M1099.66,1172.46s.79,0,1.27,1.01c.2.75.18,1.54-.06,2.28-.24.74-.69,1.39-1.29,1.88-3.05,3.14-6.42,5.94-10.07,8.36-3.57,2.7-7.67,4.6-12.04,5.56-.75.2-1.53.23-2.29.07-.76-.15-1.47-.47-2.09-.95-.74-.79-.79-1.4-.66-1.45.13-.04.53.35,1.18.74,1.09.39,2.28.39,3.37,0,3.96-1.39,7.69-3.37,11.07-5.86,4.12-2.8,7.71-5.6,10.24-7.66,1.23-1.01,1.66-1.92,1.57-2.76-.09-.83-.3-1.09-.22-1.23Z"/>
  <path class="cls-10" d="M1108.5,1680.42s.39-1.97,1.32-5.87c1.32-5.78,2.34-11.62,3.06-17.51,2.8-22.39,2.22-45.07-1.71-67.28l-56.91-165.2v-.26c-1.57-33.01-3.33-69.65-5.21-108.52l.83.92c-20.03-3.25-40.29-4.96-60.58-5.12-10.62.05-21.21.93-31.69,2.63-5.32.88-10.56,2.16-15.67,3.85-5.13,1.57-9.96,3.96-14.31,7.09l.35-.74c-.53,35.02-1.05,71.53-1.57,109.22v.22c-8.76,22.94-17.51,46.49-25,70.74-3.77,12.12-7.35,24.43-9.98,36.99-2.39,12.7-3.85,25.56-4.38,38.48-2.41,52.53,7.57,103.53,19.44,151.55,6.17,23.95,11.64,48.15,23.64,68.55,5.76,10.18,13.64,19,23.11,25.87,9.42,6.48,20.07,10.95,31.3,13.13,22.28,4.38,44.78,1.14,65.35-4.68,5.17-1.49,10.29-3.06,15.32-4.77,5.04-1.71,9.9-3.68,14.84-5.47,9.85-3.46,19.17-7.88,28.45-11.91,34.08-15.84,66.09-35.8,95.3-59.45,24.12-19.47,46.24-41.3,66.01-65.18,15-17.96,28.54-37.09,40.49-57.21,2.45-4.16,4.86-8.01,6.96-11.78l5.56-10.59c1.75-3.24,3.33-6.3,4.82-9.06,1.49-2.76,2.5-5.43,3.59-7.7,2.1-4.38,3.77-8.05,4.86-10.46,1.09-2.41,1.75-3.54,1.75-3.54,0,0-.48,1.23-1.53,3.63-1.05,2.41-2.63,5.95-4.68,10.55-1.05,2.32-2.19,4.95-3.46,7.79l-4.73,9.15-5.52,10.64c-2.01,3.77-4.38,7.62-6.83,11.82-11.85,20.27-25.33,39.54-40.32,57.61-43.81,53.35-98.98,96.24-161.48,125.54-9.32,4.03-18.65,8.49-28.58,11.95-4.9,1.84-9.81,3.81-14.89,5.56-5.08,1.75-10.15,3.33-15.36,4.81-20.75,5.87-43.77,9.46-66.32,4.82-11.51-2.22-22.45-6.78-32.13-13.4-9.73-7.04-17.84-16.08-23.77-26.52-12.26-20.97-17.73-45.18-23.9-69.12-11.95-48.15-21.89-99.24-19.57-152.2.53-13.03,2-26.01,4.38-38.83,2.67-12.69,6.26-25,10.03-37.16,7.66-24.34,16.19-47.89,25.13-70.92v.39c.57-37.65,1.13-74.41,1.66-109.22v-.48l.31-.26c4.57-3.39,9.69-5.95,15.15-7.57,5.22-1.72,10.56-3.03,15.98-3.94,10.6-1.68,21.31-2.54,32.05-2.58,20.4.2,40.76,1.95,60.89,5.25h.79v.79c1.79,38.87,3.46,75.51,4.99,108.52v-.22l56.12,165.43c3.84,22.33,4.25,45.13,1.23,67.59-.79,5.9-1.92,11.74-3.37,17.51-1,4.25-1.57,6.17-1.57,6.17Z"/>
  <path class="cls-10" d="M1267.36,1322.95c-.92.3-1.85.53-2.8.7-1.79.44-4.38.83-7.97,1.71-9.75,2.24-19.26,5.45-28.37,9.59-13.45,6.17-25.81,14.48-36.59,24.6-13.04,12.63-24.4,26.88-33.8,42.42-9.39,15.57-17.91,31.64-25.52,48.15-7.22,15.15-13.88,28.81-20.05,39.92-4.84,8.84-10.21,17.37-16.07,25.57-2.01,2.89-3.85,4.99-4.99,6.48-.55.78-1.18,1.5-1.88,2.14.44-.84.95-1.65,1.53-2.41,1.01-1.58,2.71-3.77,4.64-6.74,5.54-8.35,10.65-16.96,15.32-25.83,6-11.17,12.48-24.82,19.61-40.05,7.54-16.57,16.03-32.7,25.43-48.28,9.49-15.7,21.03-30.07,34.32-42.72,11.01-10.21,23.65-18.51,37.39-24.56,9.27-3.95,18.94-6.89,28.85-8.75,3.46-.7,6.22-1.01,8.09-1.27.92-.34,1.88-.56,2.85-.66Z"/>
  <path class="cls-10" d="M950.04,1318.49c.66,0,1.05,23.86.97,53.27-.09,29.42-.66,53.23-1.27,53.23s-1.09-23.81-1.01-53.23c.09-29.41.7-53.27,1.31-53.27Z"/>
  <path class="cls-10" d="M985.63,1423.59c-.45-1.42-.72-2.89-.79-4.38-.39-2.71-.83-6.7-1.36-11.6-.97-9.81-2.01-23.38-2.67-38.39-.66-15.01-.79-28.67-.66-38.52,0-4.9,0-8.75.31-11.64-.04-1.47.11-2.94.44-4.38.67,5.28.95,10.61.88,15.93.26,9.85.7,23.42,1.32,38.43.61,15.01,1.44,28.54,2.01,38.39.56,5.36.74,10.76.52,16.15Z"/>
  <path class="cls-10" d="M1018.77,1414.05c-.66,0-1.57-21.89-2.1-49.29-.53-27.4-.48-49.29,0-49.29s1.57,21.89,2.1,49.25c.53,27.36.61,49.33,0,49.33Z"/>
  <path class="cls-10" d="M1135.73,1662.04c-.44,0,.66-8.76.31-22.37-.19-8.05-.92-16.08-2.19-24.03-3.1-19.52-9.37-38.4-18.56-55.9-3.75-7.13-7.96-14-12.61-20.58-7.97-11.25-13.97-17.51-13.62-17.73,1.57,1.34,3.04,2.8,4.38,4.37,1.36,1.4,2.98,3.11,4.73,5.3,1.75,2.19,3.85,4.38,5.87,7.31,4.87,6.53,9.26,13.41,13.13,20.58,4.67,8.82,8.64,18,11.86,27.45,3.08,9.5,5.39,19.24,6.91,29.11,1.18,8.06,1.77,16.19,1.75,24.34,0,3.46,0,6.61-.3,9.37-.08,2.36-.29,4.71-.61,7.05-.17,1.94-.53,3.86-1.05,5.73Z"/>
  <g class="cls-13">
    <path class="cls-1" d="M1139.28,1629.33c-6.54-39.2-23.4-75.94-48.85-106.46l-1.1,1.4c19.31,50.52,31.21,108.43,11.69,159.03-2.46,5.24-4.07,10.84-4.77,16.59-.31,2.88.18,5.78,1.42,8.4,1.24,2.62,3.17,4.84,5.58,6.43,8.28,4.38,18.13-2.67,23.51-10.37,14.8-21.36,16.28-49.33,12.52-75.03Z"/>
  </g>
  <path class="cls-2" d="M924.3,1846.02c0,.65-4.9,2.98-14.8,4.64-14.08,2.01-28.41,1.45-42.28-1.66-20.47-4.65-40.08-12.46-58.13-23.16-20.49-11.56-41.23-26.62-63.38-41.06-20.25-13.98-42.35-25.06-65.66-32.92-18.72-6.37-38.77-7.73-58.18-3.94-12.92,2.79-24.57,9.72-33.18,19.74-6.08,7.22-7.84,12.48-8.76,12.17-.92-.31-.35-6,5.12-14.8,3.37-5.25,7.62-9.89,12.56-13.7,6.52-5.08,13.95-8.88,21.89-11.21,17.73-5.38,40.23-4.86,63.21,1.66,24.55,7.55,47.8,18.81,68.95,33.4,22.55,14.75,42.85,29.9,62.47,41.59,17.01,10.63,35.43,18.84,54.72,24.38,13.02,3.61,26.49,5.32,40.01,5.08,9.85-.22,15.23-1.09,15.45-.22Z"/>
  <path class="cls-12" d="M1254.19,1499.5c-4.93-.37-9.87-.37-14.8,0-20.05-1.75-28.23-30.64-48.15-34.19-8.14-1.57-17.25,1.53-24.6-2.45-6.13-3.28-8.76-10.42-13.13-15.98-4.38-5.56-12.74-9.72-17.82-4.95l-18.78,39.09c.31,3.75,1.8,7.3,4.25,10.16,2.45,2.85,5.75,4.86,9.41,5.73,7.03.73,14.14-.2,20.75-2.71,6.63-2.48,13.74-3.44,20.79-2.8,9.15,1.58,16.37,8.36,24.16,13.44,8.56,5.51,18.2,9.16,28.26,10.71,10.07,1.55,20.35.96,30.17-1.73,2.32-.39,4.42-1.59,5.95-3.37,2.8-4.12-1.57-9.76-6.48-10.94Z"/>
  <path class="cls-12" d="M1208.4,1733.95c-.92-9.54-4.95-18.82-3.9-28.37.74-6.22,3.63-12.21,3.37-18.47-.61-12.65-13.62-21.63-15.72-34.06-1.27-7.57,1.66-15.15,2.8-22.72,1.14-7.57-.44-16.81-7.31-20.18-6.87-3.37-15.41,1.32-19,8.01-3.05,6.99-4.27,14.65-3.54,22.24.3,23.2.61,46.45-1.09,69.65-.53,6.7-1.18,13.44-1.84,20.14-1.81,17.95-3.59,35.91-5.34,53.89,16.65-6.87,31.78-16.95,44.52-29.68l-1.13.39c6.34-3.68,8.93-13.04,8.19-20.84Z"/>
  <path class="cls-12" d="M1039.34,1702.96c-4.86-2.45-10.68.96-14.4,4.95-3.72,3.98-7.05,8.76-12.21,10.51-6.91,2.15-13.92-2.36-20.05-6.22-6.13-3.85-14.18-7.22-20.18-3.24-6.92,4.6-6.48,16.15-13.62,20.31-5.6,3.28-12.56.3-19-.7-6.04-1.18-12.3-.32-17.8,2.44-5.5,2.77-9.93,7.28-12.58,12.83l4.38,16.02,3.33,10.94c2.32,5.56,10.46,6.61,15.98,4.37,5.2-2.91,9.69-6.95,13.13-11.82,3.53-4.92,8.62-8.5,14.45-10.15,12.26-2.15,24.16,11.42,35.72,6.96,10.15-3.9,11.12-18.21,18.87-25.83,4.14-3.44,8.9-6.07,14.01-7.75,5.14-1.7,9.61-4.98,12.78-9.37.76-1.12,1.3-2.38,1.57-3.7.27-1.33.28-2.69.02-4.02-.26-1.33-.79-2.59-1.54-3.72-.76-1.12-1.72-2.09-2.86-2.83Z"/>
  <path class="cls-12" d="M968.78,1601.97c-4.77-3.15-1.49-11.43,3.94-13.13,5.43-1.71,11.25.53,16.77,1.97,5.52,1.45,12.3,1.71,15.98-2.63,2.71-3.24,3.06-8.4,6.7-10.55,5.43-3.28,12.04,3.15,18.3,2.36,9.41-1.18,10.81-16.55,20-19,7.14-1.88,14.58,5.43,21.54,2.93,8.75-3.24,13.92-21.1,23.42-20.84,0,0,8.76,23.33,9.46,31.87-5.47-1.53-9.72,2.06-12.56,7.05-2.84,4.99-5.08,10.81-10.07,13.53-7.79,4.38-17.2-1.44-25.96-.88-17.51,1.18-28.02,26.27-45.57,24.21-7.62-.97-13.4-6.92-19.44-11.6-6.04-4.68-14.66-8.23-21.06-4.03"/>
  <path class="cls-12" d="M906.88,1487.59c2.75,8.19,13.88,9.98,22.19,7.66,8.32-2.32,16.11-7.31,24.78-7.4,9.72,0,19.22,5.87,28.67,3.72,7.66-1.75,13.62-8.75,21.45-9.54,4.75.12,9.49.68,14.14,1.66,4.77.35,10.46-1.53,11.64-6.17,1.49-5.95-5.86-10.72-11.99-10.42-6.13.31-12,3.37-18.17,3.28-14.36,0-23.86-16.33-37.95-18.91-7.05-1.27-14.18,1.09-21.36,1.36-7.18.26-15.58-2.63-17.51-9.59"/>
  <path class="cls-12" d="M1323,1417.29c-12.61-1.31-25.17,2.58-37.82,3.77-9.71,1.35-19.61-.57-28.1-5.47-.93-.68-2.04-1.06-3.19-1.09-1.15-.03-2.28.3-3.24.95-.96.64-1.69,1.56-2.11,2.63-.42,1.07-.49,2.25-.21,3.37.95,3.53,2.95,6.69,5.73,9.06,6.6,4.53,14.33,7.14,22.32,7.53,7.99.36,15.77,2.71,22.63,6.83,6.7,4.86,10.24,12.87,14.45,20,4.2,7.14,20.44,21.89,40.19,15.1l4.9-37.21c-7.26-12.3-21.27-23.99-35.54-25.48Z"/>
  <path class="cls-12" d="M1148.73,1355.87c-10.94-3.81-23.38-6.44-33.75-1.32-7.01,3.46-12.65,10.2-20.44,10.9-3.98-.13-7.94-.54-11.86-1.23-1.98-.28-3.99.05-5.78.96-1.78.91-3.23,2.35-4.16,4.12l1.4,2.19-.65,1.01c1.43,3.38,3.54,6.44,6.2,8.97,2.66,2.53,5.81,4.49,9.26,5.76,3.45,1.26,7.12,1.81,10.79,1.59,3.66-.22,7.25-1.18,10.53-2.84,7.22-4.07,13.79-11.99,21.89-10.2,3.99,1.64,7.76,3.79,11.21,6.39,3.57,1.54,7.47,2.17,11.35,1.82,3.87-.34,7.6-1.65,10.85-3.79,6.43-4.39,12.08-9.82,16.72-16.07-11.6.57-22.59-4.46-33.53-8.27Z"/>
  <path class="cls-12" d="M882.1,1579.78c-1.77-4.21-5.07-7.6-9.24-9.49-4.16-1.88-8.88-2.12-13.22-.67-3.84,2.21-7.95,3.94-12.21,5.17-12.83,1.31-18.13-19.22-30.91-21.01-9.32-1.36-17.2,8.14-26.62,8.14-8.75,0-15.01-7.66-22.89-10.94-3.03-1.1-6.25-1.6-9.47-1.46-3.22.14-6.39.92-9.31,2.28-2.92,1.37-5.54,3.3-7.72,5.68s-3.85,5.17-4.94,8.21l-1.66,38.39c-.57-11.08,13.48-19.74,21.89-17.51,8.4,2.23,15.23,8.49,22.32,13.7,7.09,5.21,16.07,9.59,24.43,6.78,7-2.27,11.73-9.06,18.6-11.69,16.33-6.26,34.32,13.13,50.69,7.01,4.26-1.76,7.69-5.07,9.59-9.27,1.91-4.19,2.14-8.96.65-13.32Z"/>
  <path class="cls-12" d="M880.09,1779.48c-9.81,0-19.22,6.17-28.85,4.38-15.84-2.84-21.54-23.94-36.11-30.64-8.97-4.16-19.4-2.15-29.24-1.84-9.85.31-22.85-1.05-26.75-10.15l16.33,39.4c6.35-6.74,17.86-2.84,24.78,3.28,6.92,6.13,12.91,14.36,21.89,16.33,9.85,2.15,19.61-4.07,29.64-4.37,7.5.5,14.8,2.67,21.36,6.35,6.56,3.64,13.91,5.65,21.41,5.86,7.49-.39,15.28-5.51,16.07-13.13-8.8-7.49-18.78-15.63-30.51-15.45Z"/>
  <path class="cls-12" d="M715.98,1531.28c-2.95-2.77-6.78-4.42-10.81-4.69-6.64-.54-13.24-1.42-19.79-2.62-3.27-.64-6.35-2.03-8.98-4.08-2.63-2.04-4.74-4.68-6.16-7.7-1.93-5.03-.97-10.94-3.42-15.71-3.85-7.57-13.96-8.76-22.45-9.24l-20,37.95c6.39-3.81,16.94-.83,22.15,4.38,5.21,5.21,8.75,12.26,13.92,17.51,5.16,5.25,14.27,8.01,20.18,3.46,5.91-4.55,6.96-13.62,13.75-14.62,3.95.11,7.72,1.67,10.59,4.37,3.28,2.15,7.66,3.94,10.9,1.75.74-.68,1.34-1.51,1.75-2.43.41-.92.63-1.92.64-2.92.01-1.01-.18-2.01-.57-2.94-.39-.93-.96-1.77-1.69-2.47Z"/>
  <path class="cls-12" d="M734.28,1706.68c-3.83.7-7.54,1.92-11.03,3.63-1.74.86-3.65,1.35-5.59,1.44-1.94.09-3.88-.22-5.7-.91-6.39-3.2-6.48-12.83-12.17-17.2-6.83-5.25-17.29,0-25.21-3.33-6.26-2.71-9.02-9.85-11.56-16.2-3.02-7.68-6.57-15.14-10.64-22.32-2.17-4.78-5.74-8.8-10.24-11.51-1.13-.62-2.38-1.02-3.67-1.17-1.29-.14-2.59-.03-3.83.33-1.25.36-2.41.97-3.42,1.78-1.01.81-1.85,1.81-2.47,2.95-.52,2.09-.46,4.28.17,6.34.63,2.06,1.81,3.91,3.42,5.35,3.28,2.83,6.22,6.03,8.75,9.54,4.38,8.14.22,18.3,1.27,27.54.96,5.57,3.48,10.76,7.28,14.94,3.8,4.19,8.71,7.2,14.17,8.7,6.12,1.1,12.12,2.8,17.9,5.08,6.43,3.37,10.59,9.76,15.98,14.66,5.39,4.9,15.15,8.75,21.27,4.77,9.06-9.14,17.22-19.12,24.38-29.81-.79-3.94-5.17-4.9-9.06-4.6Z"/>
  <path class="cls-10" d="M1195.18,893.49c25.64,10.04,45.23,34.02,48.05,58.9,1.26,12.35-1.4,24.77-7.59,35.53-6.19,10.76-15.6,19.3-26.9,24.41,10.13,10.74,8.01,28.5-4.2,35.02-12.22,6.53-31.31.05-37.47-12.73,1.1,13.66-11.62,25.15-26.22,26.31-14.6,1.16-29.89-6.64-39.84-17.58-9.96-10.94-15.12-24.78-17.67-38.42l37.32-100.51c18.53-16.54,48.88-20.98,74.52-10.94Z"/>
  <path class="cls-10" d="M762.14,922.68c12.14-7.07,20.02-16.91,19.61-30.84,7.89,2.52,16.18-7.36,20.96-14.01,4.78-6.66,10.52-9.94,10.38-18.09-.18-1.62.08-3.26.73-4.75,1.26-2.2,4.08-2.93,6.54-3.55,6.33-1.83,12.1-5.22,16.78-9.86,4.68-4.64,8.11-10.39,9.99-16.7,12.63,5.82,26.49,8.44,40.37,7.62,3,4.49,7.09,8.15,11.87,10.64,4.79,2.5,10.12,3.76,15.52,3.66,5.4-.1,10.69-1.55,15.38-4.23,4.69-2.67,8.63-6.48,11.47-11.07,1.92,3.63,4.59,6.8,7.85,9.3,3.25,2.5,7.01,4.27,11,5.19,8.02,1.82,16.27,2.47,24.48,1.93-1.7,7.91-.48,16.17,3.45,23.25,3.92,7.08,10.28,12.49,17.89,15.24,2.11.7,4.52,1.38,5.42,3.37.91,1.99-.2,4.37-1.08,6.48-5.48,13.22,2.93,30.31,17.03,34.01-9.85,7.18-9.29,24.33,1.03,30.87,2.11,1.35,4.87,2.93,4.49,5.39-.23.93-.7,1.78-1.38,2.46-4.54,5.66-9.09,11.87-9.82,19.09-.73,7.21,4.02,15.42,11.32,15.92-3.93,3.28-7.62,7.53-7.83,12.61-.2,5.07,4.84,10.38,9.7,8.65,2.05-.7,31.63-5.72,32.98-7.42,17.3-22.02-3.14-47.35-4.08-75.2-.94-27.85-10.08-55.06-23.45-79.57-5.46-10.42-12.28-20.06-20.29-28.67-9.66-9.34-20.36-17.55-31.9-24.45-14.66-9.56-29.82-19.11-46.91-23.45-31.72-8.21-65.14,2.41-95.25,15.25-11.65,4.46-22.65,10.45-32.72,17.82-11.73,9.26-20.32,21.58-27.97,34.24-11.02,18.32-20.29,38.11-22.9,59.28"/>
  <path class="cls-10" d="M902.65,829.9s39.61,160.71,129.64,195.58c49.13-41.65,44.73-112.06,44.73-112.06l-37.53-87.47-79.76-9.67-57.07,13.62Z"/>
  <path class="cls-10" d="M907.22,846.02s-38.53,88.54-148.31,98.45c15.55-76.73,39.74-124.84,39.74-124.84l71.47-21.69,44.03,18.35-6.92,29.74Z"/>
  <path class="cls-10" d="M758.91,944.47s-23.17-220.37,186.75-197.59c209.92,22.79,203.24,228.92,154.69,269.51-48.55,40.59-106.95-15.68-106.95-15.68l11.72-156.24-65.32-48.17,5.86,48.17-62.05-3.58-21.72,39.6-102.98,63.98Z"/>
  <path class="cls-6" d="M1071.22,1030.63c1.4-.66,57.39-19.57,57.91,38.3.53,57.87-57.65,46.49-57.78,44.82-.13-1.66-.13-83.13-.13-83.13Z"/>
  <path class="cls-3" d="M1089.03,1091.69c.26-.22,1.01.66,2.72,1.45,2.43.96,5.14.96,7.57,0,6.08-2.32,11.12-12.08,11.34-22.5.1-4.96-.92-9.88-2.98-14.4-.56-1.8-1.54-3.44-2.88-4.78-1.33-1.34-2.98-2.33-4.78-2.88-1.16-.3-2.38-.18-3.46.33-1.08.51-1.94,1.38-2.45,2.47-.79,1.62-.39,2.8-.7,2.89-.3.09-1.27-.96-.79-3.37.3-1.43,1.09-2.71,2.23-3.63,1.58-1.22,3.57-1.77,5.56-1.53,2.37.43,4.58,1.46,6.44,2.99,1.85,1.53,3.28,3.52,4.15,5.76,2.53,4.99,3.79,10.52,3.68,16.11-.26,11.64-6.13,22.63-14.49,25.13-1.55.47-3.19.58-4.78.33-1.6-.25-3.12-.86-4.45-1.78-1.8-1.23-2.23-2.5-1.93-2.58Z"/>
</svg>
