<?xml version="1.0" encoding="UTF-8"?>
<svg id="Layer_1" data-name="Layer 1" xmlns="http://www.w3.org/2000/svg" viewBox="0 0 1939.44 1854">
  <defs>
    <style>
      .cls-1 {
        fill: #000;
      }

      .cls-1, .cls-2, .cls-3, .cls-4, .cls-5, .cls-6, .cls-7, .cls-8, .cls-9, .cls-10, .cls-11, .cls-12 {
        stroke-width: 0px;
      }

      .cls-2 {
        fill: #e0e0e0;
      }

      .cls-13 {
        opacity: .2;
      }

      .cls-3 {
        fill: #eb996e;
      }

      .cls-4 {
        fill: #455a64;
      }

      .cls-5 {
        fill: #f5f5f5;
      }

      .cls-6 {
        fill: #09f;
      }

      .cls-7 {
        fill: #ebebeb;
      }

      .cls-8 {
        fill: #d1734a;
      }

      .cls-9 {
        fill: #e2323d;
      }

      .cls-10 {
        fill: #263238;
      }

      .cls-11 {
        fill: #fafafa;
      }

      .cls-14 {
        opacity: .3;
      }

      .cls-12 {
        fill: #fff;
      }
    </style>
  </defs>
  <path class="cls-2" d="M1.31,908.21v-256.28c0-2.53.5-5.04,1.47-7.39.97-2.34,2.39-4.47,4.19-6.25,1.79-1.79,3.92-3.21,6.27-4.17,2.34-.97,4.85-1.46,7.39-1.46h119.97c3.85,0,7.61,1.16,10.78,3.34,3.17,2.18,5.61,5.26,7,8.85l11.14,27.96h158.59c2.53,0,5.04.5,7.38,1.47,2.34.97,4.47,2.4,6.26,4.19,1.79,1.8,3.21,3.93,4.17,6.27.97,2.34,1.46,4.85,1.45,7.39v216.09c0,2.53-.49,5.04-1.45,7.39-.97,2.34-2.38,4.47-4.17,6.26-1.79,1.79-3.92,3.22-6.26,4.19-2.34.97-4.85,1.47-7.38,1.47H20.62c-5.12,0-10.03-2.03-13.65-5.66-3.62-3.62-5.66-8.54-5.66-13.66Z"/>
  <path class="cls-7" d="M328.46,672.81H20.18c-11.15,0-20.18,9.04-20.18,20.19v214.34c0,11.15,9.04,20.18,20.18,20.18h308.27c11.15,0,20.18-9.04,20.18-20.18v-214.34c0-11.15-9.04-20.19-20.18-20.19Z"/>
  <path class="cls-12" d="M189.74,843.73c-10.42,2.79-21.45,2.21-31.53-1.63-10.08-3.84-18.68-10.77-24.59-19.8-5.91-9.02-8.82-19.68-8.32-30.45.5-10.78,4.39-21.11,11.11-29.55,6.72-8.44,15.93-14.54,26.32-17.44,10.39-2.9,21.43-2.44,31.54,1.3,10.12,3.74,18.79,10.58,24.8,19.54,6,8.96,9.03,19.58,8.64,30.36-.41,10.96-4.32,21.5-11.15,30.07-6.83,8.58-16.23,14.74-26.81,17.6ZM164.36,748.96c-8.37,2.25-15.96,6.77-21.91,13.07-5.95,6.31-10.04,14.13-11.81,22.62-1.77,8.48-1.14,17.3,1.8,25.45,2.95,8.15,8.1,15.33,14.88,20.73,6.78,5.4,14.93,8.81,23.54,9.85,8.61,1.05,17.33-.32,25.21-3.95,7.88-3.62,14.59-9.36,19.4-16.58,4.81-7.21,7.52-15.62,7.83-24.29.26-7.32-1.19-14.6-4.26-21.26-3.06-6.66-7.64-12.5-13.38-17.07-5.73-4.56-12.46-7.72-19.63-9.21-7.17-1.49-14.6-1.28-21.67.61Z"/>
  <path class="cls-12" d="M164.4,793.79l.79-22.1,18.74,11.75,18.74,11.71-19.53,10.35-19.53,10.35.79-22.06Z"/>
  <path class="cls-2" d="M269.61,1510.17v-278.43c0-2.75.53-5.48,1.58-8.02,1.05-2.54,2.59-4.86,4.53-6.8,1.94-1.95,4.25-3.49,6.79-4.55,2.54-1.06,5.27-1.6,8.02-1.6h130.37c4.16,0,8.22,1.26,11.66,3.6,3.44,2.34,6.11,5.65,7.65,9.51l11.97,30.58h172.31c2.75,0,5.48.55,8.02,1.6,2.54,1.06,4.85,2.6,6.79,4.55,1.94,1.95,3.48,4.26,4.53,6.8,1.05,2.54,1.59,5.27,1.58,8.02v234.79c0,2.75-.54,5.48-1.58,8.02-1.05,2.54-2.59,4.86-4.53,6.8-1.95,1.95-4.25,3.49-6.79,4.55-2.54,1.06-5.27,1.6-8.02,1.6h-333.96c-2.76,0-5.48-.55-8.03-1.6-2.54-1.06-4.86-2.61-6.8-4.56-1.94-1.95-3.48-4.27-4.53-6.82-1.05-2.55-1.58-5.28-1.57-8.04Z"/>
  <path class="cls-7" d="M626.77,1254.41h-338.42c-11.15,0-20.18,9.04-20.18,20.18v236.36c0,11.15,9.04,20.18,20.18,20.18h338.42c11.15,0,20.18-9.04,20.18-20.18v-236.36c0-11.15-9.04-20.18-20.18-20.18Z"/>
  <path class="cls-12" d="M474.29,1440c-5.34,1.43-10.86,2.05-16.38,1.84-11-.4-21.64-4.05-30.56-10.49-8.93-6.44-15.74-15.38-19.59-25.69-3.85-10.31-4.55-21.54-2.01-32.25,2.53-10.71,8.18-20.43,16.24-27.93,8.06-7.5,18.16-12.45,29.02-14.21,10.87-1.76,22.01-.26,32.02,4.31,10.01,4.57,18.45,12.01,24.23,21.37,5.79,9.36,8.67,20.23,8.28,31.23-.46,11.9-4.71,23.35-12.13,32.67-7.42,9.32-17.62,16.03-29.12,19.15ZM446.72,1337.02c-9.11,2.43-17.36,7.35-23.83,14.19-6.48,6.85-10.93,15.36-12.85,24.58-1.93,9.23-1.25,18.8,1.95,27.67,3.2,8.87,8.79,16.67,16.17,22.54,7.37,5.87,16.23,9.58,25.58,10.72,9.36,1.13,18.84-.35,27.4-4.29,8.56-3.94,15.86-10.18,21.09-18.02,5.22-7.85,8.17-16.98,8.5-26.4.48-13.49-4.41-26.61-13.6-36.49-9.19-9.88-21.93-15.71-35.42-16.2-5.06-.13-10.11.49-14.99,1.83v-.13Z"/>
  <path class="cls-12" d="M446.77,1385.87l.87-24.03,20.36,12.76,20.32,12.71-21.19,11.27-21.19,11.27.83-23.98Z"/>
  <path class="cls-2" d="M1838.31,188.74h-796.11c-18.99,0-34.38,15.39-34.38,34.38v467.26c0,18.99,15.4,34.38,34.38,34.38h796.11c18.99,0,34.38-15.4,34.38-34.38V223.12c0-18.99-15.39-34.38-34.38-34.38Z"/>
  <path class="cls-7" d="M1440.26,529.95c36.38,0,65.88-29.5,65.88-65.88s-29.5-65.88-65.88-65.88-65.88,29.5-65.88,65.88,29.5,65.88,65.88,65.88Z"/>
  <path class="cls-12" d="M1424.36,483.2v-38.88c0-.43.12-.86.35-1.23.22-.37.53-.68.9-.9.38-.22.8-.33,1.24-.33.43,0,.86.11,1.23.32l34.73,19.57c.39.21.72.53.95.91s.35.82.35,1.27-.12.88-.35,1.27-.56.7-.95.91l-34.73,19.31c-.38.2-.81.3-1.25.29-.44-.01-.86-.14-1.24-.36-.37-.22-.68-.54-.9-.92-.22-.38-.33-.81-.33-1.24Z"/>
  <path class="cls-12" d="M1057.24,663.2v1.4h-6.51v-1.09l3.54-3.32c.83-.83,1-1.35,1-1.83s-.57-1.27-1.66-1.27c-.39-.03-.78.04-1.14.2-.36.16-.67.41-.91.72l-1.18-.88c.4-.5.92-.89,1.5-1.15.58-.26,1.22-.38,1.86-.33,1.92,0,3.19.96,3.19,2.53-.01.55-.15,1.09-.41,1.57-.26.48-.62.91-1.07,1.22l-2.36,2.23h4.15Z"/>
  <path class="cls-12" d="M1058.16,658.83c0-.13.02-.27.06-.4.05-.13.12-.25.22-.35.09-.1.21-.18.33-.23.13-.05.26-.08.4-.08s.27.03.4.08c.13.05.24.13.34.23.1.1.18.21.23.34s.08.26.08.4-.03.27-.08.4c-.05.12-.13.24-.23.34s-.21.18-.34.23c-.13.05-.26.08-.4.08s-.27-.03-.4-.08c-.12-.06-.24-.13-.33-.23-.09-.1-.16-.21-.22-.34-.05-.13-.07-.26-.06-.4ZM1058.16,663.64c0-.14.02-.27.06-.4.05-.13.12-.25.22-.35.09-.1.21-.18.33-.23.13-.05.26-.08.4-.08.28,0,.55.11.74.31s.31.46.31.74-.11.55-.31.74-.46.3-.74.3c-.13,0-.27-.03-.4-.08-.12-.06-.24-.13-.33-.23-.09-.1-.16-.21-.22-.34-.05-.13-.07-.26-.06-.4Z"/>
  <path class="cls-12" d="M1064.32,655.77v8.74h-1.66v-7.47h-1.88v-1.35l3.54.09Z"/>
  <path class="cls-12" d="M1073.88,662.59h-1.57v2.01h-1.57v-2.01h-4.85v-1.14l4.37-5.68h1.75l-4.11,5.41h2.88v-1.75h1.53v1.75h1.57v1.4Z"/>
  <path class="cls-12" d="M1758.19,658.83h-669.84v3.54h669.84v-3.54Z"/>
  <path class="cls-7" d="M1297.18,655.12h-209.32v9.44h209.32v-9.44Z"/>
  <path class="cls-7" d="M1303.95,660.63c0,2.02-.6,4-1.73,5.68-1.12,1.68-2.72,2.99-4.59,3.77-1.86.77-3.92.97-5.9.58-1.98-.4-3.81-1.37-5.23-2.8-1.43-1.43-2.41-3.25-2.8-5.23-.39-1.98-.19-4.04.58-5.91.78-1.87,2.09-3.47,3.77-4.59,1.68-1.12,3.66-1.72,5.68-1.72,2.71,0,5.31,1.08,7.23,2.99,1.92,1.92,3,4.52,3,7.23Z"/>
  <path class="cls-12" d="M1775.05,660.5c0,.41-.09.81-.26,1.18-.16.37-.41.71-.72.98-.3.27-.66.47-1.05.6-.39.13-.8.17-1.2.13-2.41,0-3.8-1.58-3.8-4.37-.04-.6.04-1.2.24-1.76.2-.57.52-1.09.93-1.52.41-.44.91-.79,1.46-1.03.55-.24,1.14-.36,1.75-.36.81-.03,1.61.16,2.31.57l-.61,1.23c-.5-.3-1.08-.45-1.66-.44-1.66,0-2.71,1.05-2.71,3.06.3-.32.67-.56,1.08-.72.41-.16.84-.23,1.28-.2.38-.04.75,0,1.11.12.36.12.69.31.97.56.28.25.5.56.65.9.15.34.24.71.24,1.09ZM1773.48,660.5c0-.92-.7-1.49-1.79-1.49-.22-.03-.44-.02-.65.05-.21.06-.41.16-.58.3-.16.14-.3.31-.4.51-.1.2-.15.41-.16.63,0,.83.66,1.48,1.84,1.48s1.75-.48,1.75-1.4v-.09Z"/>
  <path class="cls-12" d="M1775.84,657.48c0-.28.11-.55.3-.74.2-.2.46-.3.74-.3s.55.11.74.3c.2.2.31.46.31.74s-.11.55-.31.74c-.2.2-.46.31-.74.31s-.54-.11-.74-.31c-.2-.2-.3-.46-.3-.74ZM1775.84,662.28c0-.28.11-.55.3-.74.2-.2.46-.3.74-.3s.55.11.74.3c.2.2.31.46.31.74s-.11.55-.31.74c-.2.2-.46.31-.74.31s-.54-.11-.74-.31c-.2-.2-.3-.46-.3-.74Z"/>
  <path class="cls-12" d="M1778.99,658.83c0-2.93,1.57-4.37,3.67-4.37s3.71,1.62,3.71,4.37-1.57,4.37-3.71,4.37-3.67-1.48-3.67-4.37ZM1784.71,658.83c0-2.14-.83-3.15-2.06-3.15s-2.01,1-2.01,3.15.83,3.1,2.01,3.1,2.06-.96,2.06-3.1Z"/>
  <path class="cls-12" d="M1787.46,658.83c0-2.93,1.57-4.37,3.67-4.37s3.71,1.62,3.71,4.37-1.57,4.37-3.71,4.37-3.67-1.48-3.67-4.37ZM1793.19,658.83c0-2.14-.83-3.15-2.06-3.15s-2.01,1-2.01,3.15.83,3.1,2.01,3.1,2.06-.96,2.06-3.1Z"/>
  <path class="cls-12" d="M1809.35,658.27h-3.54v-9.05h9.05v3.54h-5.51v5.51Z"/>
  <path class="cls-12" d="M1814.86,670.02h-9.05v-9.05h3.54v5.51h5.51v3.54Z"/>
  <path class="cls-12" d="M1829.1,670.02h-9v-3.54h5.46v-5.51h3.54v9.05Z"/>
  <path class="cls-12" d="M1829.14,658.27h-3.58v-5.51h-5.51v-3.54h9.09v9.05Z"/>
  <path class="cls-12" d="M1714.89,240.86c6.05-.71,12.13-1.04,18.22-1h.96v1c0,6.9,0,14.72.22,23.16v2.97l-2.14-2.1-2.45-2.45-6.16-6.2h1.66l-9.7,8.74-1.83,1.62v-2.4c0-7.17.35-13.11.57-17.13-.07-2.02.1-4.05.53-6.03.33,2.23.5,4.48.53,6.73.22,4.11.43,9.74.57,16.43l-1.83-.79,9.52-8.74.83-.79.83.83,6.2,6.16,2.45,2.45-2.1.87c0-8.43,0-16.25.22-23.16l1,1c-6.04-.08-12.08-.47-18.09-1.18Z"/>
  <path class="cls-12" d="M1781.87,243.74c-1.32,1.98-2.79,3.86-4.37,5.64-2.97,3.71-7.43,9.26-13.1,15.42l-2.01,2.27v-15.42l.4.87-8.08-7.86-2.1-2.05h2.84c7.99,0,14.86.52,19.44.79,4.59.26,7.12.44,6.86.52-.26.09-3.23,0-7.95.44-4.72.44-11.01.57-18.39.57l.83-2.01,8.17,7.78.39.35v13.15l-2.06-.79c5.12-5.59,9.75-10.18,13.11-13.67,3.36-3.5,5.81-5.85,6.03-5.99Z"/>
  <path class="cls-12" d="M1781.87,243.74c.26.66-3.58,2.88-8.74,4.98-5.16,2.1-9.35,3.32-9.61,2.66-.26-.66,3.63-2.84,8.74-4.94,2.95-1.65,6.24-2.57,9.61-2.71Z"/>
  <path class="cls-12" d="M1814.55,240.86s1.14-.39,3.28,0c2.98.58,5.64,2.21,7.52,4.59,1.47,1.81,2.45,3.96,2.85,6.26.4,2.3.2,4.65-.58,6.85-.99,2.68-2.78,4.98-5.12,6.61-2.34,1.63-5.13,2.5-7.98,2.5s-5.64-.87-7.98-2.5c-2.34-1.63-4.13-3.94-5.13-6.61-.77-2.19-.97-4.55-.58-6.84.39-2.29,1.35-4.45,2.81-6.26,1.92-2.43,4.65-4.07,7.69-4.63,2.1-.35,3.28,0,3.28,0,0,0-1.14.26-3.01.87-2.63.86-4.93,2.52-6.56,4.76-1.28,1.77-2.06,3.85-2.23,6.03-.18,2.18.26,4.36,1.25,6.31s2.5,3.58,4.36,4.73c1.86,1.14,4.01,1.75,6.19,1.75s4.33-.6,6.19-1.75c1.86-1.14,3.37-2.78,4.36-4.73.99-1.95,1.42-4.13,1.25-6.31-.18-2.18-.95-4.27-2.24-6.03-1.63-2.24-3.92-3.91-6.55-4.76-1.92-.57-3.06-.61-3.06-.83Z"/>
  <path class="cls-12" d="M1818.92,259.25c-.48.48-3.32-1.57-6.34-4.63l-.4-.35v-.52c0-4.37.57-7.86,1.27-7.86s1.23,3.54,1.23,7.86l-.35-.83c3.01,3.1,5.07,5.85,4.59,6.33Z"/>
  <path class="cls-12" d="M1501.25,258.42c0,.66-88.86,1.22-198.48,1.22s-198.31-.57-198.31-1.22,88.87-1.22,198.53-1.22,198.26.52,198.26,1.22Z"/>
  <path class="cls-12" d="M1085.5,258.42c.04,3.11-.86,6.16-2.55,8.76-1.71,2.6-4.14,4.64-7.01,5.85-2.86,1.21-6.02,1.55-9.07.96-3.05-.59-5.87-2.07-8.08-4.25-2.21-2.19-3.72-4.98-4.34-8.03-.62-3.05-.32-6.21.86-9.09,1.18-2.88,3.19-5.34,5.77-7.07,2.59-1.73,5.63-2.66,8.73-2.66,4.14-.01,8.1,1.61,11.04,4.52,2.94,2.91,4.61,6.86,4.64,10.99Z"/>
  <path class="cls-7" d="M1762.69,1552.06c-16.45-7.73-34.95-9.98-52.78-6.42-9.57,1.57-19.53,4.37-26.21,11.62-6.68,7.25-7.77,19.88-.26,26.21,4.82,3.27,10.63,4.73,16.43,4.15,13.93,0,29.4-2.58,40.54,5.81,6.38,4.76,10.62,12.71,18.22,15.07,3.8.9,7.78.53,11.34-1.05,3.56-1.58,6.52-4.28,8.41-7.69,3.61-7,4.41-15.11,2.23-22.67-.84-5.27-2.91-10.28-6.01-14.62-3.11-4.34-7.18-7.91-11.9-10.41Z"/>
  <path class="cls-7" d="M1799.48,1481.07c-9.83,14.02-28.92,9.39-37.75.83-8.82-8.57-12.58-20.97-15.99-32.77-7.78-27.04-15.6-55.35-9.83-83.01,1.52-8.25,5.25-15.93,10.79-22.24,2.8-3.15,6.39-5.5,10.39-6.83,4-1.32,8.28-1.58,12.41-.73,9.61,2.53,15.6,11.92,19.92,20.88,12.72,26.47,19.39,55.43,19.53,84.8,0,13.63-1.58,27.96-9.26,39.32"/>
  <path class="cls-7" d="M1826.39,1501.17c-5.03-6.6-8.38-14.33-9.76-22.51-1.38-8.19-.75-16.58,1.85-24.46,5.39-15.74,15-29.69,27.79-40.32,14.53-12.92,31.43-22.9,49.76-29.36,7.11-2.87,14.76-4.17,22.41-3.8,3.82.23,7.53,1.38,10.8,3.36,3.27,1.98,6.02,4.72,7.99,8,5.24,10,.22,22.1-5.24,32.02-9.57,17.42-20.5,34.05-32.68,49.76-9.78,12.63-21.01,25.12-35.95,30.8-14.94,5.68-30.58,5.07-38.36-5.33"/>
  <path class="cls-2" d="M1800.13,1692.53c-.51-2.09-.8-4.23-.88-6.38-.48-4.63-1.05-10.44-1.71-17.47-.88-8.57-2.18-17.08-3.93-25.51-2.28-10.25-5.38-20.31-9.26-30.06-3.79-9.76-8.95-18.92-15.33-27.22-5.2-6.76-11.84-12.28-19.45-16.16-5.16-2.55-10.68-4.28-16.38-5.11-2.14-.07-4.27-.38-6.34-.92,2.15-.24,4.32-.24,6.46,0,5.9.4,11.68,1.88,17.04,4.37,8.02,3.74,15.04,9.33,20.49,16.3,6.67,8.4,12.05,17.75,15.95,27.74,3.94,9.91,7.03,20.15,9.22,30.58,1.64,8.53,2.77,17.15,3.36,25.82.57,7.38.79,13.37.88,17.47.19,2.18.14,4.38-.13,6.56Z"/>
  <path class="cls-2" d="M1799.12,1679.15c-.11-.99-.11-1.98,0-2.97v-8.47c0-7.3,0-17.92-.39-31.02-.61-26.21-2.88-54.44-7.25-94.19-4.11-37.4-9.65-80.91-15.51-109.23-1.27-6.42-2.53-12.23-3.71-17.47-1.18-5.24-2.1-9.48-3.01-13.11-.92-3.63-1.48-6.03-1.97-8.21-.29-.95-.47-1.93-.52-2.93.43.89.77,1.83,1,2.79.65,2.1,1.48,4.81,2.45,8.08.96,3.28,2.23,7.87,3.49,13.11,1.27,5.24,2.71,10.83,4.11,17.26,7.23,33.47,12.67,67.31,16.3,101.36,4.37,39.84,6.34,76.11,6.51,102.41,0,13.1,0,23.76-.48,31.1,0,3.45-.35,6.25-.48,8.43-.03,1.04-.2,2.07-.53,3.06Z"/>
  <path class="cls-2" d="M1798.73,1609.17c-.21-2.91-.21-5.83,0-8.74.49-8,1.4-15.98,2.71-23.9,1.94-11.79,4.53-23.46,7.78-34.96,3.79-14.08,8.65-27.86,14.55-41.2,10.12-24.63,24.63-47.22,42.82-66.67,3.15-3.32,6.51-6.44,10.05-9.35,1.57-1.31,2.93-2.58,4.37-3.63l3.89-2.71c2.36-1.75,4.85-3.34,7.42-4.76-8.54,6.79-16.66,14.08-24.33,21.85-17.6,19.59-31.72,42.05-41.72,66.41-5.79,13.27-10.69,26.93-14.68,40.85-3.8,12.8-6.34,24.56-8.26,34.47-1.93,9.92-2.88,18.09-3.54,23.68-.11,2.91-.46,5.8-1.05,8.65Z"/>
  <path class="cls-2" d="M1866.41,1732.63l-7.04,96.07h-123.42l-6.99-96.07h137.45Z"/>
  <path class="cls-2" d="M1878.29,1694.75h-164.1v37.88h164.1v-37.88Z"/>
  <path class="cls-7" d="M1878.33,1825.03v10.48h-161.39v-10.48h161.39Z"/>
  <path class="cls-2" d="M1863.05,1854l7.56-18.48h-147.8l8.83,18.48h131.42Z"/>
  <path class="cls-5" d="M1731.23,1764s0,.35.57.88l1.83,2.45,7.21,9.22.31.4.3-.4,17.69-24.46h-1.05l17.48,24.64.53.79.61-.74,20.63-24.56h-1.18l1.13,1.44,18.44,23.11.61.79.57-.83,17.48-24.6h-1c8.74,9.75,15.86,18.04,21.45,24.42l.35.44.31-.53,6.73-11.27,1.7-2.97c.4-.7.57-1.05.53-1.1-.27.29-.5.62-.7.96-.53.74-1.14,1.71-1.93,2.88l-7.03,11.05h.65l-21.36-24.73-.57-.61-.48.7-17.48,24.51h1.23l-18.44-23.15c-.36-.5-.74-.98-1.14-1.44l-.57-.74-.61.74-20.58,24.6h1.18l-17.47-24.51-.53-.74-.53.74-17.26,24.68h.61l-7.47-9-2.01-2.32c-.23-.26-.48-.5-.74-.74Z"/>
  <path class="cls-5" d="M1727.21,1731.97c0,.44,30.93.78,69.07.78s69.07-.35,69.07-.78-30.89-.79-69.07-.79-69.07.35-69.07.79Z"/>
  <path class="cls-5" d="M1720.97,1836.56c0,.4,33.64.75,75.1.75s75.06-.35,75.06-.75-33.6-.78-75.06-.78-75.1.35-75.1.78Z"/>
  <path class="cls-10" d="M345.36,1579.33c-.31.35-2.67-1.1-5.29-3.19-2.62-2.1-4.37-4.06-4.37-4.37s2.62,1.09,5.29,3.19c2.66,2.1,4.63,4.02,4.37,4.37Z"/>
  <path class="cls-4" d="M417.06,1472.15c.99-10,.17-20.09-2.45-29.79-1.37-4.84-3.95-9.24-7.51-12.79-3.56-3.55-7.97-6.12-12.8-7.48-11.18-2.31-22.67,4.76-28.97,14.33-5.64,9.97-9.14,21.02-10.27,32.42-12.76,77.85-17.47,156.81-14.07,235.62l45.83,6.42c20.14-82.23,26.56-154.14,30.23-238.72Z"/>
  <path class="cls-10" d="M387.96,1421.74v.74l-.79,2.06c-.74,1.92-1.75,4.58-3.06,7.91-.61,1.75-1.49,3.63-2.14,5.72l-2.23,6.94c-.83,2.49-1.66,5.16-2.58,8l-2.36,9.09c-3.78,14.93-6.7,30.08-8.74,45.35-2.45,17.22-4.11,36.31-5.37,56.36-2.36,40.15-2.71,76.63-3.76,102.97-.48,13.11-.92,23.86-1.44,31.2,0,3.59-.44,6.42-.57,8.48v2.97-2.97c0-2.1,0-4.94.26-8.48.31-7.38.57-18.04.92-31.24.74-26.21.92-62.78,3.28-103.02,1.27-20.1,2.93-39.32,5.5-56.49,2.16-15.31,5.24-30.49,9.22-45.44l2.49-9.09c.96-2.8,1.88-5.46,2.71-7.95.83-2.49,1.62-4.81,2.36-6.95.74-2.14,1.62-3.98,2.32-5.68,1.4-3.28,2.53-5.9,3.32-7.82l.92-2.01-.26-.65Z"/>
  <path class="cls-10" d="M392.33,1421.74c2.38,2.82,4.27,6.03,5.59,9.48,3.58,9.46,5.07,19.58,4.37,29.67-1.18,25.34-3.45,60.21-6.47,98.74-3.01,38.54-6.42,73.4-9.09,98.57-1.35,12.58-2.53,22.76-3.41,29.79-.44,3.4-.79,6.11-1.05,8.08l-.31,2.1v.7-2.84c0-1.96.39-4.67.74-8.12.66-7.17,1.66-17.48,2.84-29.84,2.4-25.21,5.59-60.03,8.74-98.56,3.15-38.54,5.46-73.4,6.99-98.65.85-9.93-.38-19.93-3.63-29.36-1.48-3.4-3.27-6.66-5.33-9.74Z"/>
  <path class="cls-10" d="M423.96,1540.48c-5.93-.94-11.64-2.98-16.82-6.03,3.02.26,5.97,1.03,8.74,2.27,2.89.79,5.62,2.06,8.08,3.76Z"/>
  <path class="cls-10" d="M429.47,1493.65c-2.46,2.01-5.25,3.56-8.26,4.58-2.71,1.54-5.67,2.59-8.74,3.11,2.47-1.99,5.26-3.54,8.26-4.59,2.73-1.49,5.68-2.54,8.74-3.1Z"/>
  <path class="cls-10" d="M426.63,1455.55c-2.23.64-4.58.76-6.86.35-3.71-.26-6.73-.83-6.68-1.31,2.21-.65,4.55-.77,6.82-.35,2.32-.11,4.62.33,6.73,1.31Z"/>
  <path class="cls-10" d="M379.22,1431.26c-.39,0-2.36-2.27-4.37-5.59-2.01-3.32-3.5-6.21-3.1-6.47.39-.26,2.36,2.27,4.37,5.59,2.01,3.32,3.58,6.07,3.1,6.46Z"/>
  <path class="cls-10" d="M363.71,1454.15c0,.48-2.93.79-6.51.7-2.22.2-4.45-.13-6.51-.96,4.32-1.04,8.83-.94,13.11.26h-.09Z"/>
  <path class="cls-10" d="M352.49,1500.29c-2.4-.1-4.74-.74-6.86-1.88-3.63-1.44-6.42-2.97-6.25-3.4,2.39.12,4.73.76,6.86,1.88,3.63,1.44,6.42,2.97,6.25,3.41Z"/>
  <path class="cls-10" d="M351.26,1539.09c0,.43-2.49,1.35-5.81,2.05-3.32.7-6.07.88-6.16.44-.09-.44,2.49-1.35,5.81-2.06,3.32-.7,6.07-.87,6.16-.43Z"/>
  <path class="cls-10" d="M345.98,1602.52c0,.44-2.66,1.31-6.16,1.92-2.11.65-4.34.77-6.51.35,1.88-1.13,4.01-1.79,6.2-1.92,2.09-.65,4.32-.77,6.47-.35Z"/>
  <path class="cls-10" d="M342.48,1637.56c0,.39-2.1,2.01-5.16,3.63-3.06,1.61-5.72,2.62-5.94,2.23-.22-.39,2.1-2.05,5.16-3.67,3.06-1.62,5.72-2.62,5.94-2.18Z"/>
  <path class="cls-10" d="M371.1,1677.32c-.39.22-2.4-2.58-4.37-6.25-1.51-2.09-2.57-4.47-3.1-6.99.39-.26,2.4,2.53,4.37,6.21,1.52,2.1,2.58,4.49,3.1,7.03Z"/>
  <path class="cls-10" d="M379.22,1611.22c.31.35-1.92,3.06-5.02,6.07-3.1,3.01-5.85,5.2-6.16,4.89-.31-.31,1.92-3.02,5.02-6.07,3.1-3.06,6.16-5.2,6.16-4.89Z"/>
  <path class="cls-10" d="M377.52,1576.57c-.35.3-2.4-1.4-4.68-3.8-2.27-2.41-3.76-4.63-3.41-4.94.35-.3,2.4,1.4,4.63,3.8,2.23,2.41,3.76,4.63,3.45,4.94Z"/>
  <path class="cls-10" d="M383.2,1532.27c.31.3-1.53,2.97-4.37,5.9-2.84,2.93-5.07,5.11-5.37,4.81-.31-.31,1.53-2.93,4.37-5.9,2.84-2.97,5.02-5.12,5.37-4.81Z"/>
  <path class="cls-10" d="M386.39,1500.16c-.31.3-2.93-1.75-5.85-4.37-2.93-2.62-4.98-5.42-4.67-5.77.31-.35,2.93,1.75,5.85,4.59,2.93,2.84,4.98,5.2,4.67,5.55Z"/>
  <path class="cls-10" d="M392.64,1456.69c.39.26-.92,3.14-2.93,6.51-2.01,3.36-3.93,5.9-4.37,5.68-.44-.22.92-3.15,2.93-6.51,2.01-3.36,4.06-5.9,4.37-5.68Z"/>
  <path class="cls-10" d="M404.48,1416.45c-.38,2.34-1.27,4.56-2.62,6.51-1.79,3.36-3.63,5.94-4.02,5.72.37-2.33,1.25-4.56,2.58-6.51,1.83-3.4,3.63-5.94,4.06-5.72Z"/>
  <path class="cls-10" d="M417.85,1434.71c0,.44-1.62,1.71-4.11,2.88-2.49,1.18-4.59,1.79-4.81,1.4-.22-.39,1.66-1.71,4.11-2.88,2.45-1.18,4.63-1.79,4.81-1.4Z"/>
  <path class="cls-10" d="M418.15,1579.32c-3.05.02-6.06-.73-8.74-2.18-2.95-.99-5.62-2.68-7.78-4.93,2.93.84,5.75,2,8.43,3.45,2.82.93,5.53,2.16,8.08,3.67Z"/>
  <path class="cls-10" d="M412.69,1609.95c0,.44-2.67,1.35-6.16,2.01-2.09.69-4.31.83-6.47.44,0-.44,2.67-1.35,6.16-2.06,2.09-.65,4.31-.79,6.47-.39Z"/>
  <path class="cls-10" d="M405.96,1662.46c-5.41-3.22-9.45-8.32-11.36-14.33,2.11,2.21,4.01,4.61,5.68,7.17,2.1,2.22,4,4.62,5.68,7.17Z"/>
  <path class="cls-10" d="M332.3,1686.49c-.31-.35,1.57-2.45,4.15-4.63,2.58-2.18,4.94-3.76,5.24-3.4.31.35-1.57,2.4-4.37,4.63-2.8,2.23-4.72,3.76-5.02,3.4Z"/>
  <path class="cls-4" d="M311.11,1571.86c-2.97-9.31-8.74-20.14-18.35-20.32-2.91.16-5.72,1.11-8.14,2.73-2.42,1.62-4.36,3.86-5.62,6.49-2.67,5.21-3.94,11.02-3.71,16.86,1.2,41.47,8.24,82.56,20.93,122.07h35.78c-.37-43.43-7.41-86.54-20.88-127.84Z"/>
  <path class="cls-4" d="M246.41,1513.22c-1.77-8.7-6.4-16.56-13.15-22.33-6.75-5.76-15.24-9.1-24.12-9.48-15.82,2.8-21.84,18.35-23.81,34.3-1.97,15.95,3.06,31.8,7.95,47.1,15.73,49.11,31.43,98.21,47.1,147.32l44.52-4.85c-14.07-65.8-22.15-126.79-38.49-192.06Z"/>
  <path class="cls-10" d="M292.76,1551.54c-1.11,1.62-2.12,3.32-3.01,5.07-1.84,5.06-2.42,10.48-1.7,15.81.7,6.81,1.49,15.03,2.62,23.99,1.14,8.95,2.8,18.83,4.81,29.09,4.06,20.58,8.74,39.01,11.49,52.43,1.49,6.73,2.58,12.19,3.28,15.95.31,1.75.52,3.19.74,4.37.07.5.07,1.02,0,1.53,0,0,0-.48-.48-1.44-.48-.96-.66-2.62-1.05-4.37-.96-3.98-2.23-9.35-3.8-15.82-3.19-13.37-7.91-31.76-11.97-52.42-2.01-10.27-3.58-20.19-4.67-29.23-.57-4.37-.96-8.74-1.31-12.85-.35-4.11-.79-7.78-.96-11.23-.64-5.49.12-11.05,2.23-16.16.92-1.82,2.22-3.43,3.8-4.72Z"/>
  <path class="cls-10" d="M209.8,1480.15c-1.94,2.28-3.72,4.69-5.33,7.21-4.12,7.11-6.44,15.12-6.77,23.33-.22,12.17,1.64,24.29,5.5,35.83,3.93,13.11,8.21,27.79,12.71,43.03l22.76,78.34c2.8,9.92,5.11,18,6.73,23.77.74,2.7,1.31,4.85,1.75,6.51.23.74.41,1.5.52,2.27-.35-.7-.63-1.43-.83-2.18-.52-1.62-1.18-3.76-2.05-6.42l-7.21-23.63-23.24-78.16c-4.37-15.29-8.74-29.84-12.58-43.13-3.85-11.7-5.61-23.99-5.2-36.31.44-8.34,2.98-16.44,7.38-23.55,1.57-2.6,3.55-4.93,5.85-6.9Z"/>
  <path class="cls-10" d="M275.2,1700.52c-.4-.68-.74-1.4-1.01-2.14-.57-1.4-1.53-3.49-2.53-6.25-2.14-5.46-4.85-13.54-7.65-23.63-2.8-10.09-5.64-22.28-8.3-35.91l-8.39-44.04c-3.1-15.69-6.55-30.58-10.53-43.69-3.51-11.74-7.89-23.21-13.11-34.3-3.5-7.47-7.51-14.7-12.01-21.62-1.53-2.49-2.93-4.37-3.76-5.59-.47-.63-.88-1.3-1.22-2.01.56.54,1.06,1.14,1.49,1.79.92,1.22,2.4,2.97,4.02,5.46,4.77,6.77,9.01,13.9,12.67,21.32,5.33,11.1,9.8,22.6,13.37,34.38,4.31,14.37,7.89,28.95,10.7,43.69l8.26,44.25c2.58,13.59,5.24,25.78,7.91,35.87,2.66,10.1,5.24,18.22,7.16,23.73.92,2.8,1.75,4.89,2.23,6.38.31.75.54,1.52.7,2.32Z"/>
  <path class="cls-10" d="M194.07,1555.47c0,.44-2.32,1.4-5.37,2.14-3.06.74-5.72,1-5.81.57-.09-.44,2.32-1.4,5.42-2.14,3.1-.74,5.68-1,5.77-.57Z"/>
  <path class="cls-10" d="M189.39,1525.11c-2.45.66-4.98.93-7.51.78-2.51.39-5.07.32-7.56-.22,4.86-1.66,10.1-1.86,15.07-.57Z"/>
  <path class="cls-10" d="M194.37,1497.36c-.26.31-2.71-1.22-5.37-3.54-2.67-2.31-4.63-4.37-4.37-4.76.26-.39,2.71,1.22,5.42,3.54,2.71,2.31,4.63,4.41,4.33,4.76Z"/>
  <path class="cls-10" d="M207.96,1471.67c.44,0,.35,2.23.26,4.85-.09,2.62,0,4.81-.52,4.89-.52.09-1.18-2.14-1.09-4.94.09-2.79.92-4.93,1.35-4.81Z"/>
  <path class="cls-10" d="M235.7,1483.69c.39.26-.7,2.45-2.4,4.89-1.7,2.45-3.41,4.37-3.8,3.94-.39-.44.74-2.45,2.45-4.89,1.7-2.45,3.41-3.94,3.76-3.94Z"/>
  <path class="cls-10" d="M253.7,1515.06c0,.39-2.1,1.75-5.11,2.97-3.01,1.22-5.59,1.88-5.77,1.48-.17-.39,2.14-1.79,5.16-3.01,3.01-1.23,5.59-1.88,5.72-1.44Z"/>
  <path class="cls-10" d="M264.67,1547.21c-4.31,2.97-9.6,4.18-14.77,3.36,2.36-.93,4.82-1.57,7.34-1.88,2.41-.78,4.9-1.28,7.43-1.49Z"/>
  <path class="cls-10" d="M214.47,1538.08c-.39,0,0-2.36.7-4.93.7-2.58,1.83-4.63,2.27-4.37.44.26,0,2.36-.7,4.98-.7,2.62-1.83,4.46-2.27,4.32Z"/>
  <path class="cls-10" d="M221.5,1578.5c-.44,0,.48-3.19,2.01-6.69,1.53-3.5,3.1-6.21,3.5-6.03.39.18-.48,3.15-2.01,6.69-1.53,3.54-3.06,6.2-3.5,6.03Z"/>
  <path class="cls-10" d="M204.2,1589.55c0,.43-3.01-.35-6.42-1.4-3.41-1.05-6.16-2.05-6.07-2.49,2.23-.32,4.5,0,6.55.92,3.5,1.09,6.2,2.58,5.94,2.97Z"/>
  <path class="cls-10" d="M214.17,1622.54c.26.35-1.66,2.14-4.37,4.02-2.71,1.88-4.98,3.1-5.24,2.71-.26-.4,1.66-2.18,4.37-4.02,2.71-1.83,4.98-3.1,5.24-2.7Z"/>
  <path class="cls-10" d="M222.16,1655.35c0,.48-2.27,1.4-5.29,2.14-3.01.75-5.55.96-5.64.53-.09-.44,2.27-1.4,5.29-2.1,3.01-.7,5.42-1,5.64-.57Z"/>
  <path class="cls-10" d="M265.63,1574.69c0,.35-1.79,1.97-4.72,3.06-2.93,1.09-5.55,1.27-5.59.83-.04-.44,2.18-1.27,4.98-2.36,2.8-1.09,4.98-1.97,5.33-1.53Z"/>
  <path class="cls-10" d="M271.75,1625.76c-.22.44-2.62-.3-5.37-1.61-2.75-1.31-4.89-2.67-4.67-3.11.22-.43,2.58.35,5.37,1.62,2.8,1.27,4.85,2.71,4.68,3.1Z"/>
  <path class="cls-10" d="M282.67,1662.34c-2.47-.08-4.89-.72-7.08-1.88-2.38-.67-4.6-1.83-6.51-3.4,2.47.07,4.89.71,7.08,1.88,2.38.67,4.6,1.83,6.51,3.41Z"/>
  <path class="cls-10" d="M223.91,1691c0-.4,2.71-2.36,6.07-5.03s5.99-5.02,6.33-4.72c.35.3-1.79,3.28-5.33,5.99-1.95,1.91-4.41,3.21-7.08,3.76Z"/>
  <path class="cls-10" d="M252.83,1672.43c-.48,0-1.09-2.41-2.23-5.29-1.14-2.88-2.27-5.11-1.88-5.37.39-.26,2.23,1.71,3.41,4.81,1.18,3.1,1.14,5.81.7,5.86Z"/>
  <path class="cls-10" d="M245.18,1628.44c-.26.35-2.14-.53-4.37-2.01-2.23-1.48-3.5-2.93-3.23-3.32.26-.39,2.14.53,4.37,2.01,2.23,1.48,3.5,2.75,3.23,3.32Z"/>
  <path class="cls-10" d="M312.55,1559.49c.31.35-1.53,2.18-4.06,4.02-2.53,1.83-4.76,3.06-5.02,2.71s1.57-2.18,4.06-4.02c2.49-1.83,4.76-3.06,5.02-2.71Z"/>
  <path class="cls-10" d="M322.73,1587.27c0,.44-2.8,1.05-6.33.66-3.54-.4-6.16-1.58-6.03-2.01.13-.43,2.84,0,6.2.35,3.36.35,6.12.53,6.16,1Z"/>
  <path class="cls-10" d="M279.04,1593.48c0,.44-2.53,1.4-5.94,1.62-3.41.22-6.12-.35-6.12-.79s2.75-.61,6.03-.83,5.94-.57,6.03,0Z"/>
  <path class="cls-10" d="M282.8,1567.22c0,.44-2.67.53-5.59-.83-2.93-1.35-4.63-3.4-4.37-3.71.26-.3,2.36,1,4.98,2.23,2.62,1.22,5.29,1.79,4.98,2.31Z"/>
  <path class="cls-10" d="M326.49,1617.07c-.26.39-2.97-.88-6.12-2.84-3.15-1.96-5.46-3.88-5.2-4.37.26-.48,2.97.92,6.07,2.88,3.1,1.97,5.55,3.98,5.24,4.33Z"/>
  <path class="cls-6" d="M433.05,1695.01h-233v41.29h233v-41.29Z"/>
  <path class="cls-6" d="M217.44,1728.13l28.35,123.38h138.84l30.98-123.38h-198.17Z"/>
  <path class="cls-10" d="M432.92,1736.34c0,.48-52.43.83-117.39.83s-117.35-.35-117.35-.83,52.43-.78,117.35-.78,117.39.35,117.39.78Z"/>
  <path class="cls-10" d="M303.33,1594.4c-.39.26-1.97-1.62-3.54-4.15-1.57-2.53-2.58-4.76-2.18-5.02.39-.26,1.97,1.62,3.54,4.15,1.57,2.53,2.58,4.81,2.18,5.02Z"/>
  <path class="cls-10" d="M303.42,1627.6c-.44,0,0-2.93,1.22-6.25,1.22-3.32,2.36-5.9,2.75-5.76.39.13,0,2.97-1.22,6.29-1.22,3.32-2.32,5.99-2.75,5.72Z"/>
  <path class="cls-10" d="M314.78,1662.51c-1.72-1.79-3.04-3.92-3.89-6.25-1.29-2.1-2.11-4.46-2.4-6.9.39-.22,2.14,2.58,3.89,6.2,1.33,2.1,2.15,4.48,2.4,6.95Z"/>
  <path class="cls-10" d="M290.18,1690.56c-.35-.31,1.05-2.45,3.1-4.81,2.05-2.36,4.02-4.06,4.37-3.76.35.31-1,2.45-3.1,4.81-2.1,2.36-4.02,4.06-4.37,3.76Z"/>
  <path class="cls-10" d="M285.03,1639.61c0,.44-2.32.44-5.02,0-2.71-.44-4.81-1.23-4.72-1.66.09-.44,2.32-.44,5.02,0,2.71.43,4.81,1.22,4.72,1.66Z"/>
  <path class="cls-12" d="M1440.31,1.31H181.83v1102.85h1258.47V1.31Z"/>
  <path class="cls-10" d="M1440.31,1104.11c0-8.08-.39-439.03-.96-1102.8l.96.96H182.05l1.14-1.14v1102.8l-1.01-1,1258.47,1-1258.25,1.01h-1V0h1260.48v.96c-1,664.12-1.58,1095.07-1.58,1103.15Z"/>
  <path class="cls-10" d="M1443.98,98.74c0,.57-282.58,1-631.05,1s-631.1-.31-631.1-1,282.5-.96,631.1-.96,631.05.57,631.05.96Z"/>
  <path class="cls-10" d="M267.47,47.05c0,2.59-.77,5.13-2.21,7.28-1.44,2.16-3.49,3.84-5.88,4.83-2.4.99-5.03,1.25-7.57.75-2.54-.51-4.88-1.75-6.71-3.59-1.83-1.83-3.08-4.17-3.59-6.71-.51-2.54-.25-5.18.75-7.57.99-2.39,2.67-4.44,4.83-5.88,2.16-1.44,4.69-2.21,7.28-2.21,3.48,0,6.81,1.38,9.27,3.84,2.46,2.46,3.84,5.79,3.84,9.27Z"/>
  <path class="cls-10" d="M309.89,47.05c0,2.59-.77,5.13-2.21,7.28-1.44,2.16-3.49,3.84-5.88,4.83-2.4.99-5.03,1.25-7.57.75-2.54-.51-4.88-1.75-6.71-3.59-1.83-1.83-3.08-4.17-3.59-6.71-.51-2.54-.25-5.18.75-7.57.99-2.39,2.67-4.44,4.83-5.88,2.16-1.44,4.69-2.21,7.28-2.21,3.48,0,6.81,1.38,9.27,3.84,2.46,2.46,3.84,5.79,3.84,9.27Z"/>
  <path class="cls-10" d="M352.31,47.05c0,2.59-.77,5.13-2.21,7.28s-3.49,3.84-5.88,4.83c-2.4.99-5.03,1.25-7.57.75-2.54-.51-4.88-1.75-6.71-3.59-1.83-1.83-3.08-4.17-3.59-6.71-.51-2.54-.25-5.18.75-7.57.99-2.39,2.67-4.44,4.83-5.88,2.16-1.44,4.69-2.21,7.28-2.21,3.48,0,6.81,1.38,9.27,3.84,2.46,2.46,3.84,5.79,3.84,9.27Z"/>
  <path class="cls-10" d="M529.95,1004.46c0,.53-46.09.96-102.93.96s-102.98-.43-102.98-.96,46.09-1,102.98-1,102.93.44,102.93,1Z"/>
  <path class="cls-9" d="M527.33,959.42h-193.32c-3.18,0-6.33-.63-9.26-1.84-2.94-1.22-5.6-3-7.85-5.24-2.25-2.25-4.03-4.92-5.25-7.86-1.22-2.94-1.84-6.08-1.84-9.26v-267.73c.01-6.41,2.57-12.56,7.1-17.09,4.54-4.53,10.69-7.07,17.1-7.07h122.59l94.94,97.65v193.94c.04,3.2-.56,6.38-1.76,9.35-1.2,2.97-2.97,5.68-5.22,7.96-2.25,2.28-4.93,4.09-7.89,5.33-2.96,1.24-6.13,1.87-9.33,1.87Z"/>
  <g class="cls-13">
    <path class="cls-1" d="M309.8,863.3h241.73v69.07c.03,3.54-.64,7.05-1.98,10.33-1.33,3.28-3.31,6.26-5.8,8.78-2.49,2.51-5.46,4.51-8.73,5.87-3.27,1.36-6.77,2.06-10.32,2.06h-188.08c-7.11,0-13.94-2.83-18.97-7.86-5.03-5.03-7.86-11.86-7.86-18.97v-69.29Z"/>
  </g>
  <path class="cls-12" d="M401.07,931.1v-23.59l-11.58,19.45h-4.06l-11.53-18.92v23.07h-8.74v-39.32h7.51l14.72,24.42,14.46-24.42h7.47v39.32h-8.26Z"/>
  <path class="cls-12" d="M416.4,911.36c-.24-4.31.81-8.59,3.02-12.29,2.21-3.7,5.49-6.65,9.4-8.47,3.91-1.82,8.28-2.42,12.53-1.73,4.26.69,8.21,2.64,11.34,5.6,3.13,2.96,5.31,6.8,6.24,11.01.93,4.21.57,8.61-1.02,12.62-1.59,4-4.36,7.44-7.93,9.86-3.57,2.42-7.78,3.71-12.1,3.71-2.77.16-5.53-.25-8.14-1.2-2.6-.95-4.98-2.42-7-4.32-2.01-1.91-3.62-4.2-4.71-6.74-1.09-2.54-1.66-5.29-1.65-8.06ZM450.18,911.36c-.05-2.43-.82-4.79-2.21-6.78-1.39-1.99-3.33-3.53-5.59-4.42-2.26-.89-4.73-1.1-7.1-.59-2.37.51-4.54,1.71-6.24,3.44-1.7,1.74-2.84,3.94-3.29,6.33-.45,2.38-.18,4.85.76,7.08.95,2.24,2.53,4.14,4.56,5.48,2.03,1.33,4.4,2.05,6.83,2.03,1.65.05,3.29-.25,4.82-.87,1.53-.62,2.91-1.55,4.07-2.74,1.15-1.18,2.05-2.59,2.63-4.13.58-1.55.84-3.19.76-4.84Z"/>
  <path class="cls-12" d="M502.69,891.78l-17,39.32h-9l-16.95-39.32h9.83l11.97,28.09,12.1-28.09h9.04Z"/>
  <path class="cls-11" d="M413.61,768.46v-18.75c0-1.02.27-2.02.78-2.91.51-.89,1.25-1.62,2.13-2.13.89-.51,1.89-.78,2.91-.77,1.02,0,2.03.28,2.91.79l16.16,9.3,16.12,9.31c.89.52,1.63,1.25,2.14,2.14.51.89.78,1.9.78,2.93s-.27,2.03-.78,2.93c-.51.89-1.25,1.63-2.14,2.14l-16.12,9.31-16.16,9.35c-.89.5-1.89.77-2.91.76-1.02,0-2.02-.27-2.91-.79-.88-.51-1.62-1.25-2.13-2.13-.51-.89-.78-1.89-.79-2.91v-18.56Z"/>
  <path class="cls-11" d="M494.13,768.45c-.47-5.18-1.29-10.31-2.45-15.38-3.61-13.75-11.75-25.87-23.11-34.43-8.34-6.28-18.13-10.37-28.46-11.9-10.33-1.52-20.88-.44-30.69,3.16-11.61,4.24-21.7,11.84-28.97,21.84-7.86,10.67-12.1,23.58-12.1,36.83s4.24,26.16,12.1,36.83c3.65,5.04,8.07,9.46,13.11,13.11,4.78,3.69,10.1,6.64,15.77,8.74,8.22,2.97,16.98,4.2,25.7,3.6,8.73-.6,17.23-3.01,24.97-7.08,7.74-4.07,14.55-9.71,19.99-16.56,5.44-6.85,9.39-14.76,11.6-23.22,1.16-5.06,1.98-10.2,2.45-15.38.05.35.05.7,0,1.05v3.02c.02,1.64-.11,3.28-.39,4.89-.22,2.24-.62,4.46-1.18,6.65-1.39,6.03-3.71,11.8-6.86,17.12-4.14,7.11-9.63,13.35-16.16,18.35-8.52,6.58-18.57,10.91-29.21,12.57-10.64,1.67-21.53.62-31.65-3.05-5.86-2.08-11.37-5.02-16.34-8.74-5.26-3.8-9.88-8.41-13.67-13.67-8.17-11.05-12.58-24.43-12.58-38.16s4.41-27.12,12.58-38.16c3.8-5.27,8.41-9.9,13.67-13.72,4.97-3.72,10.48-6.67,16.34-8.74,10.12-3.69,21.01-4.75,31.65-3.09,10.64,1.66,20.69,5.98,29.21,12.57,6.52,5.02,12.02,11.25,16.16,18.35,3.15,5.32,5.47,11.1,6.86,17.12.56,2.18.96,4.4,1.18,6.64.28,1.61.41,3.25.39,4.89v3.05c.06.29.09.58.09.88Z"/>
  <path class="cls-9" d="M456.6,643.33v75.32c.01,5.96,2.39,11.68,6.6,15.9,4.22,4.21,9.93,6.59,15.9,6.6h72.44l-94.94-97.82Z"/>
  <g class="cls-13">
    <path class="cls-1" d="M457.6,725.24c.05,5.7,2.04,11.21,5.65,15.62,3.61,4.41,8.61,7.45,14.19,8.63l2.36.57c9.48,1.66,71.74,12.76,71.74,11.32v-20.4h-72.44s-18.09-.43-21.5-15.73Z"/>
  </g>
  <path class="cls-10" d="M551.53,740.97c-2.39.33-4.8.47-7.21.44l-19.62.35-29.1.26h-17.21c-3.24-.08-6.43-.83-9.36-2.21-2.93-1.38-5.55-3.35-7.68-5.78-2.12-2.42-3.73-5.24-4.73-8.3-1.01-3.05-1.39-6.28-1.12-9.48v-17.22c0-10.83,0-20.66.26-29.09.26-8.43.26-14.59.35-19.62-.04-2.4.11-4.79.44-7.17.36,2.37.5,4.77.44,7.17,0,5.03.22,11.67.39,19.62.17,7.95,0,18.26,0,29.09v17.22c-.26,2.94.08,5.89,1,8.69.92,2.8,2.39,5.39,4.33,7.61,1.94,2.2,4.31,3.98,6.96,5.22,2.65,1.25,5.53,1.94,8.46,2.02h46.22l19.62.4c2.53.03,5.07.29,7.56.78Z"/>
  <path class="cls-6" d="M926.65,959.42h-193.33c-3.18,0-6.33-.63-9.26-1.84-2.94-1.22-5.6-3-7.85-5.24-2.25-2.25-4.03-4.92-5.25-7.86-1.22-2.94-1.84-6.08-1.84-9.26v-267.73c.01-6.41,2.57-12.56,7.1-17.09,4.54-4.53,10.69-7.07,17.1-7.07h122.59l94.89,97.65v193.94c.04,3.2-.56,6.38-1.75,9.34-1.2,2.97-2.97,5.67-5.21,7.95-2.25,2.28-4.92,4.09-7.88,5.33-2.95,1.24-6.12,1.88-9.32,1.89Z"/>
  <g class="cls-13">
    <path class="cls-1" d="M709.12,863.3h241.73v69.07c.03,3.54-.64,7.05-1.98,10.33-1.33,3.28-3.31,6.26-5.8,8.78-2.49,2.51-5.46,4.51-8.73,5.87-3.27,1.36-6.78,2.06-10.32,2.06h-188.13c-7.11,0-13.94-2.83-18.97-7.86-5.03-5.03-7.86-11.86-7.86-18.97v-69.29h.05Z"/>
  </g>
  <path class="cls-12" d="M803.01,931.1v-23.59l-11.57,19.45h-4.06l-11.53-18.92v23.07h-8.52v-39.32h7.52l14.72,24.42,14.46-24.42h7.47v39.32h-8.48Z"/>
  <path class="cls-12" d="M834.99,915.73l-5.29,5.5v9.96h-9.22v-39.32h9.04v18.35l17.48-18.35h10.09l-16.29,17.47,17.26,21.85h-10.49l-12.58-15.46Z"/>
  <path class="cls-12" d="M897.73,891.78l-16.99,39.32h-9l-16.95-39.32h9.83l11.97,28.09,12.1-28.09h9.05Z"/>
  <path class="cls-11" d="M812.88,768.45v-18.74c.01-1.02.29-2.01.8-2.9.52-.88,1.25-1.6,2.13-2.11.88-.5,1.88-.77,2.9-.78,1.01,0,2.01.26,2.9.76l16.34,9.4,16.17,9.3c.89.52,1.62,1.26,2.14,2.14.52.89.78,1.9.78,2.93s-.27,2.04-.78,2.93c-.52.89-1.25,1.63-2.14,2.14l-16.17,9.31-16.12,9.35c-.89.5-1.9.76-2.92.76-1.02,0-2.02-.28-2.91-.79-.89-.52-1.62-1.25-2.13-2.13-.51-.88-.78-1.89-.79-2.91l-.22-18.66Z"/>
  <path class="cls-11" d="M893.4,768.45c-.41-5.18-1.21-10.32-2.4-15.38-3.63-13.74-11.77-25.86-23.11-34.43-8.34-6.28-18.13-10.37-28.47-11.9-10.33-1.52-20.88-.44-30.69,3.16-11.61,4.24-21.7,11.85-28.96,21.85-7.86,10.67-12.11,23.58-12.11,36.83s4.24,26.16,12.11,36.83c3.66,5.03,8.08,9.45,13.11,13.1,4.8,3.69,10.13,6.63,15.81,8.74,9.81,3.59,20.36,4.66,30.69,3.14,10.33-1.52,20.12-5.61,28.47-11.88,11.34-8.56,19.48-20.69,23.11-34.43,1.2-5.06,2-10.2,2.41-15.38.07.35.07.71,0,1.05v3.01c0,1.64-.13,3.28-.39,4.89-.22,2.24-.62,4.46-1.18,6.64-1.4,6.03-3.71,11.81-6.86,17.13-4.14,7.11-9.63,13.35-16.16,18.35-8.52,6.59-18.57,10.92-29.21,12.58-10.64,1.66-21.53.61-31.65-3.05-12-4.34-22.44-12.14-30.02-22.41-8.17-11.04-12.58-24.42-12.58-38.16s4.41-27.12,12.58-38.16c3.79-5.29,8.41-9.92,13.68-13.72,4.97-3.73,10.48-6.68,16.34-8.74,10.12-3.69,21.01-4.75,31.65-3.1,10.64,1.66,20.69,5.99,29.21,12.57,6.53,5.01,12.01,11.24,16.16,18.35,3.15,5.33,5.47,11.1,6.86,17.13.56,2.18.96,4.4,1.18,6.64.26,1.62.39,3.26.39,4.89v3.06c.05.26.07.52.04.78Z"/>
  <path class="cls-6" d="M855.92,643.33v75.32c.01,5.96,2.38,11.68,6.6,15.9,4.22,4.21,9.93,6.59,15.9,6.6h72.39l-94.89-97.82Z"/>
  <g class="cls-13">
    <path class="cls-1" d="M856.92,725.24c.05,5.7,2.04,11.21,5.65,15.62,3.61,4.41,8.62,7.45,14.19,8.63l2.36.57c9.48,1.66,71.69,12.76,71.69,11.32v-20.4h-72.39s-18.09-.43-21.5-15.73Z"/>
  </g>
  <path class="cls-10" d="M950.81,740.97c-2.37.33-4.77.48-7.17.44l-19.62.35-29.1.26h-17.21c-3.24-.08-6.43-.83-9.36-2.21-2.94-1.38-5.55-3.35-7.68-5.78-2.12-2.43-3.73-5.24-4.74-8.3-1.01-3.05-1.41-6.27-1.16-9.48v-17.22c0-10.83,0-20.66.26-29.09.26-8.43.26-14.59.35-19.62-.06-2.4.08-4.79.44-7.17.36,2.37.5,4.77.44,7.17,0,5.03,0,11.67.35,19.62.35,7.95,0,18.26.26,29.09v17.22c-.23,2.94.12,5.89,1.05,8.69.92,2.8,2.4,5.38,4.33,7.61,1.93,2.19,4.29,3.97,6.94,5.22,2.64,1.25,5.52,1.94,8.44,2.03h46.26l19.62.4c2.45.04,4.89.3,7.29.78Z"/>
  <path class="cls-10" d="M529.95,542.31c0,.57-46.09,1-102.93,1s-102.98-.43-102.98-1,46.09-.96,102.98-.96,102.93.44,102.93.96Z"/>
  <path class="cls-10" d="M921.23,542.31c0,.57-46.09,1-102.98,1s-102.93-.43-102.93-1,46.09-.96,102.93-.96,102.98.44,102.98.96Z"/>
  <path class="cls-6" d="M527.33,497.19h-193.32c-6.42,0-12.58-2.55-17.11-7.09-4.54-4.54-7.09-10.7-7.09-17.11V205.38c0-3.18.63-6.33,1.84-9.26,1.22-2.94,3-5.6,5.25-7.85,2.25-2.25,4.92-4.03,7.85-5.25,2.94-1.22,6.08-1.84,9.26-1.84h122.59l94.94,97.82v193.98c0,6.42-2.55,12.58-7.09,17.11-4.54,4.54-10.7,7.09-17.12,7.09Z"/>
  <g class="cls-13">
    <path class="cls-1" d="M309.8,401.29h241.73v69.07c0,7.11-2.83,13.94-7.86,18.97-5.03,5.03-11.86,7.86-18.97,7.86h-188.08c-7.11,0-13.94-2.83-18.97-7.86-5.03-5.03-7.86-11.85-7.86-18.97v-69.07Z"/>
  </g>
  <path class="cls-12" d="M409.81,460.57h-18.26l-3.5,8.39h-9.31l17.48-39.32h9.22l17.48,39.32h-9.57l-3.54-8.39ZM406.92,453.67l-5.85-15.07-6.25,15.07h12.1Z"/>
  <path class="cls-12" d="M462.71,429.68l-16.99,39.32h-9l-16.95-39.32h9.83l11.97,28.05,12.1-28.05h9.04Z"/>
  <path class="cls-12" d="M465.95,429.68h9.09v39.32h-9.09v-39.32Z"/>
  <path class="cls-11" d="M413.61,306.35v-18.66c0-1.02.28-2.02.79-2.91.51-.88,1.25-1.62,2.13-2.13.88-.51,1.89-.78,2.91-.79,1.02,0,2.03.26,2.91.76l16.16,9.31,16.12,9.35c.89.51,1.63,1.25,2.14,2.14.51.89.78,1.9.78,2.93s-.27,2.04-.78,2.93c-.51.89-1.25,1.63-2.14,2.14l-16.12,9.31-16.16,9.31c-.89.52-1.89.79-2.92.79-1.03,0-2.03-.27-2.92-.78-.89-.51-1.62-1.26-2.13-2.15-.51-.89-.77-1.9-.76-2.93v-18.61Z"/>
  <path class="cls-11" d="M494.13,306.35c-.46-5.18-1.28-10.31-2.45-15.38-2.19-8.48-6.13-16.4-11.56-23.26-5.43-6.86-12.24-12.51-19.99-16.59-7.75-4.07-16.26-6.48-25-7.07-8.73-.59-17.49.66-25.72,3.67-11.59,4.28-21.66,11.88-28.97,21.85-7.86,10.68-12.1,23.59-12.1,36.85s4.24,26.17,12.1,36.85c7.3,9.97,17.38,17.56,28.97,21.84,10.48,3.84,21.79,4.8,32.77,2.8,9.53-1.76,18.51-5.75,26.21-11.62,11.36-8.53,19.51-20.64,23.11-34.38,1.16-5.07,1.97-10.2,2.45-15.38.05.33.05.67,0,1v3.06c.02,1.64-.11,3.28-.39,4.89-.23,2.24-.62,4.46-1.18,6.64-1.41,6.02-3.72,11.8-6.86,17.13-4.16,7.1-9.65,13.33-16.17,18.35-7.92,6.12-17.17,10.28-27,12.15-11.32,2.16-23.01,1.24-33.86-2.66-5.86-2.05-11.37-5-16.34-8.74-5.27-3.79-9.89-8.4-13.67-13.67-8.17-11.05-12.58-24.42-12.58-38.16s4.41-27.12,12.58-38.16c3.81-5.25,8.42-9.87,13.67-13.67,4.96-3.74,10.48-6.68,16.34-8.74,10.84-3.9,22.54-4.82,33.86-2.67,8.95,1.74,17.44,5.36,24.88,10.64,7.44,5.27,13.68,12.07,18.29,19.95,3.15,5.32,5.47,11.1,6.86,17.13.56,2.17.95,4.37,1.18,6.6.28,1.63.42,3.28.39,4.94v3.01c.09.27.15.55.17.83Z"/>
  <path class="cls-6" d="M456.6,181.18v75.32c.01,5.96,2.39,11.68,6.6,15.9,4.22,4.22,9.93,6.59,15.9,6.6h72.44l-94.94-97.82Z"/>
  <g class="cls-13">
    <path class="cls-1" d="M457.6,263.1c.04,5.7,2.04,11.22,5.64,15.64,3.61,4.42,8.61,7.47,14.19,8.65.78.22,1.56.39,2.36.52,9.48,1.7,71.74,12.76,71.74,11.36v-20.27h-72.44s-18.09-.61-21.5-15.9Z"/>
  </g>
  <path class="cls-10" d="M551.53,279c-2.38.36-4.8.5-7.21.44l-19.62.39h-46.31c-3.24-.09-6.42-.85-9.35-2.22-2.93-1.38-5.55-3.34-7.69-5.77-2.12-2.43-3.73-5.26-4.73-8.32-1.01-3.06-1.39-6.29-1.12-9.5v-17.17c0-10.88,0-20.71.26-29.1.26-8.39.26-14.59.35-19.62-.04-2.41.11-4.82.44-7.21.36,2.39.5,4.8.44,7.21,0,5.02.22,11.62.39,19.62.17,8,0,18.22,0,29.1v17.17c-.25,2.94.09,5.9,1.01,8.71.92,2.81,2.39,5.4,4.32,7.63,1.94,2.19,4.31,3.97,6.96,5.21,2.65,1.25,5.53,1.94,8.46,2.04h17.13l29.09.26,19.62.35c2.53.06,5.06.33,7.56.79Z"/>
  <path class="cls-10" d="M925.99,1004.42c0,.53-46.13.96-102.97.96s-102.98-.44-102.98-.96,46.09-1,102.98-1,102.97.44,102.97,1Z"/>
  <path class="cls-6" d="M1321.04,950.94h-193.33c-3.18,0-6.33-.62-9.26-1.84-2.94-1.22-5.6-3-7.85-5.25-2.25-2.25-4.03-4.91-5.25-7.85-1.22-2.94-1.84-6.08-1.84-9.26v-267.6c0-3.18.62-6.32,1.84-9.26,1.22-2.94,3-5.6,5.24-7.85,2.25-2.24,4.92-4.02,7.86-5.23,2.94-1.21,6.08-1.83,9.26-1.82h122.64l94.89,97.82v193.94c0,6.42-2.55,12.57-7.09,17.11-4.54,4.54-10.69,7.09-17.11,7.09Z"/>
  <g class="cls-13">
    <path class="cls-1" d="M1103.51,855.09h241.73v69.07c0,7.11-2.83,13.94-7.86,18.97-5.03,5.03-11.85,7.86-18.97,7.86h-188.08c-7.11,0-13.93-2.83-18.97-7.86-5.03-5.03-7.86-11.86-7.86-18.97v-69.07Z"/>
  </g>
  <path class="cls-12" d="M1194.77,922.76v-23.59l-11.66,19.44h-4.11l-11.49-18.92v23.07h-8.74v-39.32h7.56l14.68,24.42,14.51-24.42h7.47v39.32h-8.22Z"/>
  <path class="cls-12" d="M1210.11,903.1c-.24-4.31.81-8.58,3.02-12.29,2.22-3.7,5.49-6.65,9.4-8.47,3.91-1.82,8.28-2.42,12.53-1.73,4.26.7,8.21,2.65,11.34,5.61,3.14,2.96,5.31,6.79,6.24,11.01.93,4.21.58,8.6-1.02,12.61s-4.36,7.44-7.93,9.86c-3.57,2.42-7.78,3.71-12.09,3.71-2.77.16-5.53-.25-8.13-1.2-2.61-.95-4.99-2.42-7-4.32-2.01-1.9-3.62-4.2-4.71-6.74-1.09-2.54-1.65-5.29-1.65-8.06ZM1243.92,903.1c-.06-2.42-.83-4.78-2.23-6.76-1.39-1.98-3.33-3.52-5.59-4.4-2.26-.89-4.72-1.09-7.09-.58-2.37.51-4.53,1.71-6.23,3.44-1.69,1.74-2.83,3.93-3.29,6.31-.45,2.38-.19,4.84.75,7.08.94,2.24,2.52,4.14,4.54,5.48,2.02,1.34,4.39,2.06,6.81,2.06,1.66.05,3.31-.25,4.84-.88s2.92-1.56,4.08-2.74c1.16-1.18,2.06-2.6,2.64-4.15.58-1.55.84-3.2.76-4.86Z"/>
  <path class="cls-12" d="M1296.44,883.44l-17.04,39.32h-8.91l-16.95-39.32h9.83l11.93,28.09,12.15-28.09h9Z"/>
  <path class="cls-11" d="M1207.31,760.1v-18.65c0-1.02.27-2.02.79-2.91.51-.89,1.24-1.62,2.13-2.13.88-.51,1.89-.78,2.91-.79,1.02,0,2.02.25,2.92.76l16.12,9.35,16.16,9.31c.89.51,1.63,1.25,2.14,2.14.52.89.78,1.9.78,2.92s-.27,2.04-.78,2.93c-.51.89-1.25,1.63-2.14,2.14l-16.16,9.31-16.12,9.35c-.89.5-1.9.76-2.92.76-1.02,0-2.02-.28-2.91-.79-.89-.52-1.62-1.25-2.13-2.13-.52-.88-.78-1.89-.79-2.91v-18.66Z"/>
  <path class="cls-11" d="M1287.96,760.11c-.43-5.18-1.24-10.32-2.4-15.38-3.63-13.75-11.79-25.88-23.15-34.43-7.72-5.85-16.69-9.82-26.21-11.58-10.99-2-22.32-1.04-32.81,2.8-11.61,4.22-21.68,11.84-28.92,21.85-7.87,10.67-12.11,23.58-12.11,36.83s4.24,26.16,12.11,36.83c7.24,10.01,17.31,17.62,28.92,21.85,10.49,3.84,21.82,4.8,32.81,2.8,9.52-1.76,18.5-5.73,26.21-11.58,11.36-8.55,19.52-20.67,23.15-34.43,1.16-5.06,1.96-10.2,2.4-15.38.04.35.04.7,0,1.05v3.01c0,1.64-.13,3.28-.39,4.89-.24,2.24-.65,4.46-1.22,6.64-1.35,6.04-3.67,11.82-6.86,17.13-4.13,7.1-9.61,13.34-16.12,18.35-8.52,6.59-18.56,10.92-29.21,12.58-10.64,1.66-21.53.61-31.65-3.05-5.86-2.07-11.37-5.01-16.34-8.74-5.27-3.8-9.89-8.43-13.68-13.72-8.2-11.03-12.62-24.42-12.62-38.16s4.42-27.13,12.62-38.16c7.57-10.27,18.01-18.07,30.02-22.41,10.12-3.67,21.01-4.72,31.65-3.05,10.64,1.66,20.69,5.99,29.21,12.58,6.51,5.01,11.99,11.25,16.12,18.35,3.19,5.31,5.51,11.09,6.86,17.13.57,2.18.98,4.4,1.22,6.64.26,1.62.39,3.26.39,4.89v3.01c.03.29.03.58,0,.88Z"/>
  <path class="cls-6" d="M1250.35,634.98v75.41c0,2.95.57,5.88,1.7,8.61,1.13,2.74,2.79,5.22,4.88,7.31,2.09,2.09,4.57,3.74,7.3,4.87,2.73,1.13,5.66,1.71,8.62,1.7h72.39l-94.89-97.9Z"/>
  <g class="cls-13">
    <path class="cls-1" d="M1251.3,716.9c.05,5.7,2.04,11.21,5.65,15.62,3.61,4.41,8.61,7.45,14.19,8.63.79.22,1.59.39,2.41.53,9.43,1.71,71.69,12.8,71.69,11.36v-20.23h-72.39s-18.09-.57-21.54-15.9Z"/>
  </g>
  <path class="cls-10" d="M1345.24,732.8c-2.39.33-4.8.47-7.21.44l-19.62.35-29.05.22h-17.22c-3.24-.08-6.42-.83-9.36-2.21-2.93-1.38-5.55-3.34-7.68-5.78-2.12-2.43-3.73-5.26-4.74-8.32-1.01-3.06-1.4-6.29-1.15-9.5v-17.17c0-10.84,0-20.67.22-29.1.22-8.43.26-14.59.35-19.62-.04-2.4.12-4.8.48-7.17.33,2.37.47,4.77.44,7.17,0,5.02.22,11.62.35,19.62.13,7.99,0,18.26.26,29.1v17.17c-.23,2.94.12,5.9,1.05,8.71.92,2.8,2.4,5.4,4.33,7.63,1.92,2.2,4.29,3.98,6.93,5.23,2.65,1.25,5.52,1.93,8.45,2.02h17.17l29.06.26,19.62.35c2.46,0,4.91.21,7.34.61Z"/>
  <path class="cls-10" d="M1318.76,541.36c0,.52-46.09.96-102.93.96s-102.98-.44-102.98-.96,46.09-1.01,102.98-1.01,102.93.44,102.93,1.01Z"/>
  <path class="cls-10" d="M1318.76,1010.58c0,.57-46.09,1-102.93,1s-102.98-.44-102.98-1,46.09-.96,102.98-.96,102.93.44,102.93.96Z"/>
  <path class="cls-6" d="M1316.14,497.19h-193.33c-3.18,0-6.33-.63-9.26-1.84-2.94-1.22-5.6-3-7.85-5.25-2.25-2.25-4.03-4.92-5.25-7.85-1.22-2.94-1.84-6.08-1.84-9.26V205.38c0-3.18.62-6.33,1.84-9.26,1.22-2.94,3-5.6,5.25-7.85,2.25-2.25,4.91-4.03,7.85-5.25,2.94-1.22,6.08-1.84,9.26-1.84h122.59l94.98,97.82v193.98c0,3.18-.63,6.33-1.84,9.27-1.22,2.94-3.01,5.61-5.26,7.86-2.25,2.25-4.92,4.03-7.87,5.24-2.94,1.21-6.09,1.84-9.28,1.83Z"/>
  <g class="cls-13">
    <path class="cls-1" d="M1098.61,401.29h241.77v69.07c0,7.11-2.83,13.94-7.86,18.97-5.03,5.03-11.85,7.86-18.97,7.86h-188.17c-7.11,0-13.94-2.83-18.97-7.86-5.03-5.03-7.86-11.85-7.86-18.97v-69.07h.05Z"/>
  </g>
  <path class="cls-12" d="M1181.97,436.98v10.4h18.22v7.3h-18.22v14.29h-9.09v-39.32h29.71v7.3l-20.63.04Z"/>
  <path class="cls-12" d="M1208.75,429.68h9.31v31.89h19.7v7.38h-28.79l-.22-39.28Z"/>
  <path class="cls-12" d="M1277.65,429.68l-17,39.32h-9l-16.95-39.32h9.83l11.97,28.05,12.1-28.05h9.05Z"/>
  <path class="cls-11" d="M1202.37,306.35v-18.66c0-1.02.28-2.02.79-2.91.52-.88,1.25-1.62,2.13-2.13.88-.51,1.88-.78,2.91-.79,1.02,0,2.02.26,2.92.76l16.16,9.31,16.12,9.35c.89.51,1.63,1.25,2.14,2.14.51.89.78,1.9.78,2.93s-.27,2.04-.78,2.93c-.52.89-1.25,1.63-2.14,2.14l-16.12,9.31-16.16,9.31c-.89.5-1.9.76-2.92.76-1.03,0-2.02-.28-2.91-.79-.89-.51-1.62-1.25-2.13-2.13-.51-.88-.78-1.89-.79-2.91v-18.61Z"/>
  <path class="cls-11" d="M1282.94,306.35c-.46-5.18-1.28-10.31-2.45-15.38-2.19-8.48-6.12-16.4-11.56-23.26-5.43-6.86-12.24-12.51-19.99-16.59-7.75-4.07-16.26-6.48-25-7.07-8.74-.59-17.49.66-25.72,3.67-11.58,4.28-21.66,11.88-28.96,21.85-7.86,10.68-12.1,23.59-12.1,36.85s4.24,26.17,12.1,36.85c7.3,9.97,17.38,17.56,28.96,21.84,8.25,2.97,17.02,4.19,25.77,3.57,8.74-.62,17.26-3.06,25-7.16,7.74-4.1,14.55-9.77,19.97-16.66,5.42-6.88,9.35-14.82,11.53-23.31,1.16-5.07,1.97-10.2,2.45-15.38.02.33.02.67,0,1v3.06c.02,1.64-.11,3.28-.39,4.89-.23,2.24-.62,4.46-1.18,6.64-1.41,6.02-3.72,11.8-6.86,17.13-4.16,7.1-9.65,13.33-16.16,18.35-7.94,6.23-17.26,10.46-27.17,12.36-11.32,2.16-23.02,1.24-33.86-2.67-12-4.34-22.44-12.14-30.01-22.41-8.17-11.05-12.58-24.42-12.58-38.16s4.41-27.12,12.58-38.16c7.57-10.27,18.01-18.07,30.01-22.41,10.83-3.98,22.52-4.97,33.86-2.88,8.95,1.74,17.44,5.36,24.87,10.64,7.44,5.27,13.68,12.07,18.29,19.95,3.15,5.32,5.47,11.1,6.86,17.13.56,2.17.95,4.37,1.18,6.6.28,1.63.41,3.28.39,4.94v3.01c.08.39.14.78.18,1.18Z"/>
  <path class="cls-6" d="M1245.41,181.18v75.32c.02,5.96,2.39,11.68,6.6,15.9,4.22,4.22,9.94,6.59,15.9,6.6h72.48l-94.98-97.82Z"/>
  <g class="cls-13">
    <path class="cls-1" d="M1246.42,263.1c.04,5.7,2.03,11.22,5.64,15.64,3.61,4.42,8.61,7.47,14.19,8.65.78.22,1.57.39,2.36.52,9.48,1.7,71.74,12.76,71.74,11.36v-20.27h-72.44s-18.09-.61-21.49-15.9Z"/>
  </g>
  <path class="cls-10" d="M1340.39,279c-2.39.36-4.8.5-7.21.44l-19.62.39h-46.31c-3.23-.09-6.42-.85-9.35-2.22-2.94-1.38-5.55-3.34-7.69-5.77-2.1-2.39-3.7-5.17-4.72-8.19-1.02-3.01-1.43-6.2-1.22-9.38v-17.17c0-10.88,0-20.71.26-29.1.26-8.39.26-14.59.35-19.62-.04-2.41.11-4.82.43-7.21.36,2.39.5,4.8.44,7.21,0,5.02.22,11.62.4,19.62.18,8,0,18.22.22,29.1v17.17c-.25,2.94.09,5.9,1.01,8.71.92,2.81,2.38,5.4,4.32,7.63,1.94,2.19,4.31,3.97,6.96,5.21,2.65,1.25,5.53,1.94,8.46,2.04h17.12l29.1.26,19.62.35c2.49-.02,4.97.16,7.43.52Z"/>
  <path class="cls-9" d="M928.31,497.19h-193.37c-6.41-.01-12.56-2.57-17.09-7.1-4.53-4.54-7.07-10.69-7.07-17.1V205.38c0-6.41,2.54-12.56,7.07-17.1,4.53-4.54,10.67-7.09,17.09-7.1h122.64l94.89,97.82v193.98c0,6.41-2.54,12.56-7.07,17.1-4.53,4.54-10.67,7.09-17.09,7.1Z"/>
  <g class="cls-13">
    <path class="cls-1" d="M714.5,401.29h234.31c.98,0,1.93.39,2.63,1.09.7.7,1.09,1.64,1.09,2.63v64.75c0,7.28-2.89,14.26-8.04,19.4-5.15,5.15-12.13,8.04-19.4,8.04h-186.9c-7.28,0-14.26-2.89-19.4-8.04-5.14-5.14-8.04-12.12-8.04-19.4v-64.75c0-.49.1-.98.29-1.43.19-.45.47-.86.82-1.21.35-.35.76-.62,1.22-.8.46-.18.94-.28,1.44-.27Z"/>
  </g>
  <path class="cls-12" d="M804.5,468.22v-22.46l-11.05,18.52h-3.89l-10.97-18.04v21.84h-8.17v-37.31h7.21l14.03,23.29,13.81-23.29h7.12v37.44h-8.08Z"/>
  <path class="cls-12" d="M854.04,444.36c0,8.34-6.29,13.54-16.3,13.54h-7.56v10.31h-8.74v-37.44h16.51c9.79,0,16.08,5.16,16.08,13.59ZM845.3,444.36c0-4.37-2.66-6.55-7.99-6.55h-7.08v13.11h7.08c5.29-.09,7.95-2.67,7.95-6.55h.04Z"/>
  <path class="cls-12" d="M891.09,460.35h-6.12v7.86h-8.43v-7.86h-20.18v-5.81l17.48-23.77h9.09l-16.39,22.5h10.09v-6.99h8.17v6.99h6.12l.18,7.08Z"/>
  <path class="cls-11" d="M814.54,306.35v-18.66c0-1.02.28-2.02.79-2.91.52-.88,1.25-1.62,2.13-2.13.88-.51,1.89-.78,2.91-.79,1.02,0,2.02.26,2.92.76l16.12,9.31,16.16,9.35c.89.51,1.63,1.25,2.14,2.14.52.89.78,1.9.78,2.93s-.27,2.04-.78,2.93c-.52.89-1.25,1.63-2.14,2.14l-16.16,9.31-16.12,9.31c-.89.5-1.9.76-2.92.76-1.02,0-2.02-.28-2.91-.79-.89-.51-1.62-1.25-2.13-2.13-.51-.88-.78-1.89-.79-2.91v-18.61Z"/>
  <path class="cls-11" d="M895.07,306.35c-.41-5.18-1.21-10.32-2.41-15.38-2.18-8.48-6.12-16.41-11.56-23.28-5.44-6.87-12.25-12.52-20.01-16.59-7.75-4.07-16.27-6.48-25.01-7.06-8.74-.58-17.5.67-25.73,3.68-11.58,4.27-21.65,11.87-28.92,21.85-7.86,10.68-12.1,23.59-12.1,36.85s4.24,26.17,12.1,36.85c7.28,9.98,17.34,17.58,28.92,21.84,10.49,3.84,21.82,4.8,32.81,2.8,9.52-1.77,18.5-5.75,26.21-11.62,11.34-8.54,19.49-20.65,23.11-34.38,1.19-5.06,1.99-10.2,2.41-15.38.06.33.06.67,0,1v3.06c0,1.64-.13,3.28-.4,4.89-.22,2.24-.62,4.46-1.18,6.64-1.41,6.02-3.72,11.8-6.86,17.13-4.16,7.1-9.65,13.33-16.16,18.35-7.92,6.12-17.17,10.28-27,12.15-11.32,2.16-23.02,1.24-33.86-2.66-12-4.34-22.44-12.14-30.02-22.41-8.17-11.05-12.58-24.42-12.58-38.16s4.41-27.12,12.58-38.16c3.8-5.26,8.42-9.88,13.68-13.67,4.96-3.74,10.47-6.69,16.34-8.74,10.84-3.9,22.54-4.82,33.86-2.67,8.96,1.74,17.44,5.36,24.88,10.64,7.44,5.27,13.68,12.07,18.29,19.95,3.15,5.32,5.47,11.1,6.86,17.13.56,2.17.96,4.37,1.18,6.6.26,1.63.4,3.28.4,4.94v3.01c.1.27.16.55.18.83Z"/>
  <path class="cls-9" d="M857.58,181.18v75.32c0,2.95.58,5.88,1.71,8.61,1.13,2.73,2.79,5.21,4.88,7.3,2.09,2.09,4.57,3.75,7.3,4.88,2.73,1.13,5.66,1.71,8.61,1.71h72.39l-94.89-97.82Z"/>
  <g class="cls-13">
    <path class="cls-1" d="M858.54,263.1c.06,5.7,2.07,11.22,5.68,15.63,3.61,4.42,8.62,7.47,14.2,8.66.78.22,1.57.39,2.36.52,9.48,1.7,71.69,12.76,71.69,11.36v-20.27h-72.39s-18.09-.61-21.54-15.9Z"/>
  </g>
  <path class="cls-10" d="M952.47,279c-2.37.36-4.76.5-7.17.44l-19.62.39h-46.31c-3.24-.09-6.42-.85-9.35-2.22-2.93-1.38-5.55-3.34-7.69-5.77-2.11-2.43-3.72-5.26-4.74-8.32-1.01-3.06-1.41-6.29-1.16-9.5v-17.17c0-10.88,0-20.71.22-29.1.22-8.39.31-14.59.4-19.62-.07-2.41.08-4.82.44-7.21.32,2.39.47,4.8.43,7.21,0,5.02,0,11.62.35,19.62.35,8,0,18.22.26,29.1v17.17c-.23,2.94.12,5.9,1.05,8.71.92,2.81,2.4,5.4,4.33,7.63,1.94,2.19,4.3,3.96,6.94,5.21,2.65,1.25,5.52,1.94,8.44,2.04h17.17l29.1.26,19.62.35c2.45.07,4.89.33,7.29.79Z"/>
  <path class="cls-4" d="M1266.6,1512.61h381.45c6.39,0,12.53-2.54,17.05-7.06,4.52-4.52,7.06-10.66,7.06-17.06s-2.54-12.53-7.06-17.05c-4.52-4.52-10.66-7.07-17.05-7.07h-381.45c-6.4,0-12.53,2.54-17.06,7.07-4.52,4.52-7.06,10.65-7.06,17.05s2.54,12.53,7.06,17.06c4.52,4.52,10.66,7.06,17.06,7.06Z"/>
  <path class="cls-6" d="M972.87,1695.94l-67.72,155.88-192.01-88.51c9.61-17.82,125.91-8.74,125.91-8.74l42.03-100.49,91.79,41.86Z"/>
  <path class="cls-2" d="M902.23,1773.48c1.62,1.44,2.65,3.43,2.88,5.59.24,2.16-.34,4.32-1.61,6.08-1.34,1.64-3.27,2.7-5.38,2.96-2.11.26-4.23-.3-5.94-1.57-1.69-1.5-2.76-3.57-3-5.82-.24-2.25.36-4.5,1.69-6.33,1.62-1.51,3.75-2.35,5.96-2.35s4.35.84,5.97,2.35"/>
  <path class="cls-2" d="M905.16,1851.82l7.64-16.12-187.86-78.12s-10.27,0-12.06,6.34l192.28,87.9Z"/>
  <path class="cls-2" d="M836.39,1752.03c-.39.92,4.11,3.54,7.29,8.74,3.19,5.2,3.89,10.22,4.89,10.27,1,.04,2.14-6.03-1.88-12.19-4.02-6.16-10.14-7.77-10.31-6.81Z"/>
  <path class="cls-2" d="M812.4,1751.07c-.61.79,2.71,4.37,4.06,9.7,1.35,5.33.35,10.05,1.26,10.44.92.4,4.02-4.63,2.19-11.36-1.84-6.73-7.08-9.65-7.52-8.78Z"/>
  <path class="cls-2" d="M789.9,1769.9c.74.57,4.37-3.5,4.37-9.75s-3.5-10.31-4.37-9.7c-.88.61.7,4.59.61,9.7-.09,5.12-1.53,9.22-.61,9.75Z"/>
  <path class="cls-2" d="M848.49,1730.19c0,1,4.94,1.71,10.05,4.37,5.11,2.66,8.48,6.38,9.35,5.81.88-.57-1.57-5.77-7.64-8.74-6.07-2.97-11.84-2.4-11.75-1.44Z"/>
  <path class="cls-2" d="M863.61,1709.48c-.22.4,3.23,2.71,9.61,4.37,3.76.97,7.61,1.49,11.49,1.53,2.29.04,4.58-.09,6.86-.39,1.37-.07,2.71-.38,3.98-.92.93-.37,1.7-1.04,2.19-1.91.49-.87.67-1.88.52-2.86-.18-.87-.55-1.68-1.08-2.39-.54-.71-1.23-1.28-2.02-1.67-1.22-.57-2.51-.95-3.85-1.13-2.29-.46-4.61-.71-6.94-.74-3.91-.01-7.8.58-11.53,1.75-3.54.76-6.77,2.58-9.26,5.2.3.53,3.8-1.44,9.92-2.75,3.54-.75,7.17-1.04,10.79-.88,2.13.13,4.25.42,6.34.88,2.27.39,4.02,1.18,4.11,2.32,0,.43,0,.57-.7.96-.94.37-1.92.6-2.93.7-2.12.3-4.24.47-6.38.53-3.67.1-7.34-.13-10.97-.7-3.34-.84-6.72-1.46-10.14-1.88Z"/>
  <path class="cls-2" d="M864.17,1711.4c.26.31,3.67-2.18,6.81-8.12,1.83-3.48,3.02-7.25,3.54-11.14.33-2.3.42-4.63.26-6.94.07-1.51-.25-3.01-.93-4.36-.69-1.35-1.71-2.5-2.96-3.33-.86-.38-1.81-.5-2.74-.35-.93.15-1.8.56-2.5,1.18-1.03.89-1.91,1.92-2.62,3.06-1.32,2.01-2.34,4.2-3.01,6.51-1.13,3.84-1.28,7.89-.44,11.8,1.44,6.73,4.85,9.66,5.07,9.35-1.07-3.19-1.93-6.44-2.58-9.74-.41-3.52-.02-7.09,1.14-10.44.65-1.93,1.56-3.77,2.7-5.46,1.27-1.92,2.8-3.19,3.46-2.62.65.57,1.88,2.71,1.92,4.67.18,2.11.18,4.23,0,6.34-.44,3.56-1.37,7.05-2.76,10.35-2.18,5.86-4.81,8.74-4.37,9.26Z"/>
  <path class="cls-10" d="M1457.35,1304.13c-8.17,3.85-410.33-7.91-420.47,6.12-14.59,20.18-198.22,410.68-198.22,410.68l109.23,57.28,175.94-311.29,440.73-.7s49.85-2.58,55.93-66.49l-163.14-95.6Z"/>
  <path class="cls-6" d="M932.55,1561.41l-41.68,129.93-192.71-73.27c8.12-18,121.98-17.08,121.98-17.08l23.77-69.91,88.65,30.32Z"/>
  <path class="cls-2" d="M882.79,1615.28c1.64,1.27,2.75,3.1,3.12,5.14.37,2.04-.03,4.14-1.11,5.91-1.2,1.68-3,2.85-5.03,3.25-2.03.4-4.14,0-5.89-1.11-1.77-1.33-2.98-3.28-3.37-5.46-.39-2.18.07-4.43,1.27-6.29,1.44-1.63,3.46-2.64,5.63-2.81,2.17-.18,4.32.5,6,1.89"/>
  <path class="cls-2" d="M890.87,1691.35l6.34-16.21-188.17-63.39s-10.01.52-11.28,6.94l193.11,72.66Z"/>
  <path class="cls-2" d="M817.21,1598.81c-.35.96,4.37,3.19,7.69,7.95,3.32,4.76,4.37,9.7,5.47,9.65,1.09-.04,1.66-6.03-2.67-11.75-4.32-5.72-10.35-6.77-10.48-5.86Z"/>
  <path class="cls-2" d="M793.79,1599.51c-.57.83,2.88,3.98,4.58,9.17,1.71,5.2,1,9.74,1.97,10.09.96.35,3.58-4.81,1.35-11.23-2.23-6.42-7.43-8.95-7.91-8.04Z"/>
  <path class="cls-2" d="M773.08,1619.35c.79.52,3.89-3.67,3.45-9.75-.43-6.07-4.11-9.83-4.81-9.17-.7.65,1.01,4.37,1.31,9.4.3,5.02-.61,9.3.04,9.52Z"/>
  <path class="cls-2" d="M827.52,1576.75c0,1,4.89,1.35,10.1,3.71,5.2,2.36,8.74,5.64,9.48,5.02.74-.61-1.92-5.51-8.04-8.22-6.11-2.7-11.71-1.44-11.53-.52Z"/>
  <path class="cls-2" d="M840.8,1555.6c2.85,2.05,6.2,3.3,9.7,3.63,3.71.71,7.5.94,11.27.7,2.25-.1,4.48-.37,6.68-.83,1.31-.18,2.58-.56,3.76-1.13.88-.43,1.59-1.14,2.01-2.02.43-.88.55-1.88.35-2.83-.22-.84-.63-1.61-1.21-2.26-.58-.64-1.3-1.14-2.11-1.45-1.21-.49-2.49-.78-3.8-.87-2.25-.28-4.51-.37-6.77-.26-3.82.25-7.58,1.09-11.14,2.49-6.07,2.45-8.74,5.38-8.74,5.68s3.58-1.66,9.44-3.32c3.4-1,6.93-1.55,10.48-1.61,2.06-.02,4.12.11,6.16.39,2.27.26,4.02.92,4.37,2.01.35,1.09,0,.57-.65,1-.87.42-1.8.71-2.75.83-2.05.45-4.12.79-6.21,1-3.56.36-7.14.36-10.7,0-3.35-.61-6.73-.99-10.13-1.13Z"/>
  <path class="cls-2" d="M841.54,1557.4c.26.3,3.4-2.36,6.07-8.34,1.53-3.52,2.45-7.27,2.71-11.1.14-2.26.07-4.52-.22-6.77-.06-1.47-.49-2.91-1.26-4.17-.76-1.26-1.83-2.31-3.11-3.04-.87-.31-1.8-.37-2.7-.16-.9.2-1.72.65-2.37,1.3-.92.94-1.71,2.01-2.31,3.19-1.16,2.01-2,4.2-2.49,6.46-.84,3.83-.73,7.81.35,11.58,1.88,6.42,5.37,9.04,5.55,8.74-1.22-3.04-2.27-6.15-3.14-9.3-.62-3.4-.49-6.89.39-10.23.49-1.96,1.27-3.83,2.31-5.55,1.05-1.92,2.45-3.28,3.15-2.8.7.48,2.01,2.53,2.18,4.37.32,2.03.45,4.1.4,6.16-.08,3.52-.69,7.01-1.79,10.35-1.83,5.86-4.19,9-3.71,9.31Z"/>
  <path class="cls-10" d="M939.72,1616.42l-124.47-44.83,115.21-358.78c7.65-18.74,21.7-34.16,39.65-43.52,17.95-9.36,38.64-12.05,58.39-7.59l373.94,84.37,6.68,57.84-362.1,6.25-107.3,306.26Z"/>
  <path class="cls-4" d="M1622.05,1464.38l47.49,34.95,112.68-418.89c.95-3.51,1.19-7.18.72-10.79-.47-3.61-1.65-7.09-3.47-10.24-1.82-3.15-4.24-5.92-7.12-8.13-2.89-2.22-6.18-3.84-9.7-4.79-3.51-.94-7.18-1.19-10.79-.72-3.61.47-7.09,1.65-10.24,3.47-3.15,1.81-5.91,4.23-8.13,7.12-2.22,2.88-3.84,6.18-4.79,9.69l-106.64,398.31Z"/>
  <path class="cls-3" d="M1651.33,952.12c14.75.16,28.99-5.45,39.65-15.65,10.67-10.2,16.91-24.17,17.4-38.92l6.21-184.59c3.23-49.54-22.94-92.75-72.52-94.59l-4.59.26c-22.3.45-43.6,9.29-59.69,24.74-16.08,15.45-25.75,36.4-27.08,58.66-2.58,42.99-4.89,90.48-4.11,113.59,1.57,47.62,49.37,54.04,49.37,54.04,0,0,0,11.05-.4,25.03-.17,7.46,1.14,14.88,3.85,21.84s6.78,13.3,11.97,18.66c5.19,5.37,11.39,9.66,18.24,12.61,6.86,2.96,14.23,4.52,21.69,4.61v-.3Z"/>
  <path class="cls-8" d="M1595.97,869.38c22-.52,43.39-7.32,61.64-19.62,0,0-14.42,34.95-62.04,31.67l.4-12.06Z"/>
  <path class="cls-10" d="M1565.04,739.84c.02,1.78.74,3.47,1.99,4.73,1.26,1.26,2.96,1.97,4.73,2,.87.05,1.73-.07,2.54-.36.81-.29,1.57-.74,2.2-1.32.64-.58,1.16-1.29,1.52-2.08.36-.78.56-1.63.59-2.5-.02-1.78-.72-3.48-1.97-4.74-1.25-1.27-2.94-1.99-4.72-2.03-.87-.05-1.74.08-2.55.37-.82.29-1.57.75-2.21,1.33-.64.59-1.16,1.29-1.53,2.08-.37.79-.57,1.64-.6,2.51Z"/>
  <path class="cls-10" d="M1561.28,721.44c.88.88,5.94-3.06,13.11-3.19,7.17-.13,12.75,3.41,13.54,2.49.79-.92-.53-1.96-2.88-3.62-3.19-2.15-6.98-3.23-10.83-3.11-3.81.06-7.5,1.33-10.53,3.63-2.1,1.79-2.84,3.41-2.41,3.8Z"/>
  <path class="cls-10" d="M1632.8,742.63c.01,1.77.72,3.47,1.97,4.73,1.25,1.26,2.94,1.98,4.71,2,.87.05,1.74-.07,2.56-.36.82-.29,1.58-.74,2.22-1.33s1.16-1.3,1.53-2.09c.37-.79.57-1.65.59-2.52-.03-1.78-.75-3.47-2-4.72-1.26-1.25-2.95-1.97-4.72-2-.87-.06-1.74.07-2.55.36-.82.29-1.57.75-2.21,1.33-.64.59-1.15,1.29-1.51,2.09-.36.79-.56,1.64-.58,2.51Z"/>
  <path class="cls-10" d="M1633.11,722.93c.88.88,5.94-3.06,13.1-3.19,7.17-.13,12.76,3.4,13.55,2.49.78-.92-.53-1.96-2.88-3.63-3.22-2.14-7.02-3.22-10.88-3.1-3.8.08-7.48,1.35-10.53,3.63-2.1,1.79-2.84,3.41-2.36,3.8Z"/>
  <path class="cls-10" d="M1607.94,779.73c-3.88-1.16-7.89-1.81-11.93-1.93-1.88,0-3.67-.48-3.98-1.75-.21-1.92.19-3.86,1.14-5.55,1.66-4.37,3.4-9.35,5.2-14.37,7.25-20.4,12.5-37.18,11.67-37.49-.83-.31-7.39,16.03-14.64,36.48l-4.98,14.41c-1.14,2.27-1.44,4.87-.83,7.34.26.66.68,1.26,1.22,1.72.54.46,1.19.79,1.89.95,1.04.26,2.11.39,3.19.39,4.01.43,8.06.36,12.06-.22Z"/>
  <path class="cls-10" d="M1629.61,784.31c-1.22,0-1.05,7.91-7.73,13.68-6.68,5.76-15.16,5.11-15.2,6.2-.05,1.09,1.92,1.53,5.5,1.53,4.65-.03,9.14-1.7,12.67-4.72,3.4-2.89,5.55-7,5.99-11.45.22-3.32-.7-5.29-1.23-5.24Z"/>
  <path class="cls-10" d="M1632.85,693.22c.74,1.96,8.04.87,16.64,1.7,8.61.83,15.6,3.06,16.69,1.27.48-.87-.74-2.71-3.58-4.58-3.77-2.33-8.04-3.72-12.45-4.06-4.45-.44-8.94.18-13.11,1.79-2.97,1.35-4.54,2.93-4.19,3.89Z"/>
  <path class="cls-10" d="M1563.81,697.28c1.31,1.62,6.29,0,12.37-.39,6.07-.39,11.22.88,12.36-.92.53-.83-.35-2.49-2.62-4.02-3.05-1.81-6.57-2.68-10.12-2.49-3.54.19-6.95,1.42-9.8,3.53-2.14,1.53-2.79,3.23-2.18,4.28Z"/>
  <path class="cls-6" d="M1588.28,1407.67c-17.69,0-69.16-23.2-109.23-42.59-22.57-10.95-41.79-27.76-55.66-48.67l-42.34-64,87.38-83.23s39.32-136.84,50.42-161.43c11.1-24.6,71.61-109.23,74.97-113.16h.22l115.39-26.21c.7,1.05,58.28,75.85,48.89,174.76-7.91,83.01-135.44,355.15-136.88,357.86v.26h-.26c-10.54,3.91-21.66,6.09-32.9,6.42Z"/>
  <path class="cls-2" d="M1131.95,961.87c1.83,44.78,19.53,234.52,19.53,234.52l187.87,107.74,13.85-13.58-184.46-108.31-18.09-221.29c-.16-2.41-1.26-4.67-3.05-6.29-1.79-1.63-4.14-2.5-6.56-2.44-1.23.04-2.44.31-3.57.81-1.12.5-2.14,1.23-2.98,2.13-.84.9-1.5,1.95-1.94,3.1-.43,1.15-.64,2.38-.6,3.62Z"/>
  <path class="cls-10" d="M1131.95,961.87c-.05-.39-.05-.79,0-1.18.08-1.17.36-2.33.83-3.41.83-1.82,2.2-3.35,3.94-4.37,1.33-.75,2.83-1.16,4.36-1.22,1.53-.06,3.05.26,4.44.9,1.39.65,2.6,1.62,3.54,2.83.94,1.21,1.58,2.63,1.86,4.13.44,3.67.7,7.56,1.14,11.84.7,8.74,1.57,18.35,2.49,29.32,3.71,44,8.96,106.47,15.25,181.05l-.48-.79,184.2,108.57,1.27.78-1.05,1.01-2.23,2.23c-3.93,3.8-7.82,7.64-11.62,11.4l-.61.61-.75-.44-187.86-107.87-.44-.26v-.53c-6.38-70.25-11.36-128.88-14.55-169.99-1.57-20.53-2.71-36.7-3.32-47.71-.3-5.5-.48-9.74-.57-12.58v-3.23c-.03-.37-.03-.73,0-1.09.06.36.06.73,0,1.09,0,.79,0,1.83.26,3.19.22,2.97.48,7.17.88,12.58.92,11.1,2.23,27.22,3.89,47.66,3.49,41.07,8.74,99.65,15.33,169.91l-.48-.74,187.86,107.61h-1.35l11.57-11.45,2.23-2.18.22,1.79-184.24-108.66-.44-.26v-.18c-5.94-74.53-10.92-137.09-14.42-181.09-.84-10.95-1.59-20.72-2.23-29.32-.35-4.37-.61-8.26-.96-11.8-.28-1.58-.98-3.05-2.01-4.27-1.04-1.22-2.37-2.14-3.88-2.68-2.08-.72-4.35-.67-6.4.13-2.05.8-3.74,2.3-4.79,4.24-.59,1.4-.88,2.9-.88,4.41Z"/>
  <path class="cls-10" d="M1168.99,1182.24c.35.57-3.67,3.67-8.74,7.52-2.76,2.65-5.89,4.87-9.3,6.59-.44-.44,2.88-4.37,7.91-8.34,2.85-2.72,6.34-4.7,10.13-5.76Z"/>
  <path class="cls-3" d="M1370.97,1239.78l-48.49-37.13-77.16,18.56s1.1,6.77,11.01,10.05l20.97-3.28-38.58,26.21c.96,3.55,2.84,6.8,5.44,9.41,2.61,2.61,5.85,4.49,9.41,5.45,7.74,2.45,14.5,7.28,19.31,13.81l19.84,20.92h52.91l35.87-3.58-10.53-60.42Z"/>
  <path class="cls-4" d="M815.24,1571.59l2.27.7,6.51,2.18,24.86,8.74,91.09,32.42-1.09.48c23.07-63.75,53.82-148.81,87.37-242l12.81-35.39c4.22-8.29,10.49-15.37,18.21-20.56,7.72-5.19,16.64-8.32,25.91-9.11,6.07-.39,11.8-.22,17.47-.39l66.54-.79,111.71-1.23,74.62-.65h20.18l-20.14.48-74.36,1.58-111.71,1.71-66.54.96c-5.77,0-11.71,0-17.48.39-5.82.54-11.51,2.02-16.86,4.37-11,4.91-19.99,13.43-25.47,24.16-4.06,11.27-8.43,23.24-12.8,35.39l-88.04,241.82-.3.78-.79-.3c-38.23-13.89-69.25-25.21-90.83-33.12l-24.73-9.13-6.42-2.45-2.01-1.05Z"/>
  <path class="cls-6" d="M1396.66,1354.2l-12.58-73.62h.78l188.39-58.02s46.75-187.08,55.97-209.71c11.36-27.83,52.43-59.07,67.76-57.01,26.43,3.58,81.48-6.99,48.84,129.62-12.63,52.82-45.26,144.74-67.06,204.25-5.45,14.72-15.08,27.52-27.71,36.83-12.63,9.31-27.7,14.73-43.37,15.6l-211.02,12.06Z"/>
  <path class="cls-10" d="M1629,1012.81s-.35,1.27-1.18,3.71c-.83,2.45-1.88,6.16-3.36,10.97-2.76,9.65-6.69,23.9-11.49,42.16-9.65,36.52-23.07,89.08-39.01,152.91v.48h-.48l-188.35,58.24h-.79l.92-1.31c4.11,23.59,8.39,48.36,12.8,73.57l-1.18-.92,15.03-.88,196.17-10.97c14.59-.9,28.65-5.8,40.63-14.16,11.3-7.85,20.34-18.53,26.21-30.97,2.84-5.99,4.89-12.28,7.17-18.35,2.27-6.07,4.37-12.06,6.51-17.91,4.37-11.71,8.26-22.98,12.11-33.73,15.2-43.03,26.82-78.12,34.21-102.59,3.71-12.19,6.38-21.84,8.17-28.22.83-3.19,1.48-5.64,1.96-7.38.48-1.75.75-2.49.75-2.49,0,0,0,.87-.53,2.53-.53,1.66-1,4.37-1.75,7.47-1.66,6.51-4.37,16.12-7.78,28.35-7.12,24.56-18.48,59.72-33.51,102.85-3.8,10.79-7.82,21.84-11.97,33.81-2.1,5.86-4.37,11.84-6.47,17.96-2.1,6.12-4.37,12.32-7.17,18.52-6.25,13.13-15.9,24.35-27.95,32.5-12.04,8.15-26.04,12.93-40.56,13.86l-196.16,11.18-15.03.88h-1v-1c-4.37-25.21-8.74-49.98-12.8-73.57v-1.09l1.09-.22h.79l187.78-57.45-.61.65c16.12-63.87,29.84-116.34,39.76-152.91,4.98-18.27,9.09-32.46,12.02-42.07,1.57-4.76,2.62-8.47,3.63-10.88,1-2.4,1.44-3.54,1.44-3.54Z"/>
  <path class="cls-10" d="M1726.95,958.68c-1.99-6-5.29-11.47-9.65-16.04-11.11-10.63-25.71-16.85-41.07-17.48-8.37-.03-16.67,1.57-24.42,4.72-6.37,2.57-12.34,6.02-17.74,10.27-4.81,4.14-9.28,8.65-13.37,13.5.71-1.57,1.62-3.04,2.71-4.37,2.8-3.82,6.04-7.29,9.65-10.35,12.08-10.26,27.4-15.92,43.25-15.99,15.87.54,30.94,7.11,42.12,18.39,3.31,3.46,5.86,7.59,7.47,12.1.41,1.21.72,2.45.92,3.71.18,1.05.22,1.53.13,1.53Z"/>
  <g class="cls-14">
    <path class="cls-1" d="M1607.46,1293.29c-18.7,6.65-38.88,7.82-58.72,8.74-46.09,2.58-85.37,3.54-131.5,6.11,53,16.25,112.63,15.29,166.5,2.23,15.31-3.02,29.94-8.82,43.17-17.13,12.8-8.74,22.98-22.68,24.03-38.23-7.29,18.65-24.73,31.63-43.47,38.27Z"/>
  </g>
  <g class="cls-14">
    <path class="cls-1" d="M939.72,1616.42c-7.78-2.7-14.46-5.29-22.24-7.99-1.84,3.76-2.18,8.22-4.02,11.97l-2.53,8.13c6.16,2.75,14.11,5.24,20.54,7.38,3.38,1.13,6.98,1.52,10.53,1.14,3.55-.39,6.98-1.53,10.04-3.36,5.86-4.02,8.74-12.19,10.84-18.96l26.74-80.35c15.2-45.83,28.7-98.3,33.72-146.31-29.71,73.53-58.06,153.3-83.62,228.36Z"/>
  </g>
  <path class="cls-10" d="M1663.43,1507.02c-4.83-8.83-10.7-17.06-17.48-24.51-7.32-6.88-15.37-12.96-23.98-18.13,2.95.64,5.75,1.79,8.3,3.41,6.44,3.48,12.33,7.9,17.47,13.1,5.1,5.14,9.38,11.03,12.67,17.48,1.55,2.66,2.57,5.6,3.01,8.65Z"/>
  <path class="cls-4" d="M1279.44,1851.82h-25.08l31.9-345.28,24.86,2.1-31.68,343.18Z"/>
  <path class="cls-4" d="M1654.56,1851.82h25.03l-32.07-347.77-24.86,2.14,31.89,345.63Z"/>
  <path class="cls-4" d="M1650.93,1645.3h-363.71v17.17h363.71v-17.17Z"/>
  <path class="cls-4" d="M1650.93,1688.51h-363.71v17.17h363.71v-17.17Z"/>
  <path class="cls-10" d="M1646.91,1512.09c0,.65-86.81,1.13-193.85,1.13s-193.85-.48-193.85-1.13,86.77-1.14,193.85-1.14,193.85.53,193.85,1.14Z"/>
  <path class="cls-10" d="M1280.88,1835.83c-.61,0,4.37-61.16,11.4-136.01,7.04-74.84,13.1-135.87,13.63-135.83.53.05-4.37,60.95-11.36,136.01-6.99,75.06-13.02,135.87-13.68,135.83Z"/>
  <path class="cls-10" d="M1895.59,1851.82c0,.61-418.8,1.13-935.25,1.13s-935.35-.52-935.35-1.13,418.72-1.14,935.3-1.14,935.3.48,935.3,1.14Z"/>
  <path class="cls-10" d="M1550.25,584.68c19-3.55,36.71,14.89,56.13,13.31,11.82-.93,21.61-9.1,32.53-13.59,8.54-3.45,17.78-4.9,27-4.24,9.21.66,18.14,3.4,26.09,8.03,14.82,9.34,23.74,19.05,24.17,36.51,15.19-6.54,37.09,13.77,43.26,31.75,6.17,17.97,2.14,35.39-4.75,53.22-11.52,30.7-29.04,58.88-51.57,82.96-2,2.15-5.04,4.39-7.55,2.89-.77-.66-1.38-1.49-1.76-2.42-.38-.93-.53-1.94-.43-2.95-.85-17.04,3.28-33.85,6.65-50.61,3.37-16.76,6.08-34.03,2.47-50.75-3.61-16.71-14.72-32.68-31.29-37.86-12.52-3.15-25.78-1.85-37.42,3.69-11.83,4.9-22.51,12.05-33.86,17.83-11.12,6.43-23.81,9.74-36.71,9.57-12.78-.84-25.74-8.26-29.87-20.17-4.13-11.91,3.75-27.36,16.53-28.57-5.7-1.17-10.81-4.25-14.46-8.71-3.65-4.46-5.62-10.02-5.58-15.74.04-5.72,2.1-11.26,5.82-15.66,3.72-4.4,8.88-7.4,14.59-8.49Z"/>
  <path class="cls-10" d="M1568.87,628.56c6.09-8.55,14.25-15.48,23.74-20.17,20.09-11.07,43.23-15.61,66.1-12.98,22.94,2.78,43.89,14.21,58.41,31.89,11.05,14.48,17.54,31.84,18.66,49.91,1.59,19.73-.48,39.59-6.13,58.59-2.52,7.47-7.36,9.62-13.68,14.47-3.94,3.03-10.21,4.67-13.68.93-1.81-2.31-2.78-5.16-2.75-8.08-2.61-26.14-4.75-54.16,8.17-77.08-4.83-9.27-11.57-17.44-19.8-24-4.11-3.27-8.85-5.7-13.93-7.15-5.08-1.45-10.4-1.89-15.66-1.3-15.53,2.33-26.74,15.17-40.03,23.34-9.6,5.74-20.45,9.15-31.65,9.97-11.2.81-22.44-1-32.79-5.3l15.01-33.05Z"/>
  <path class="cls-2" d="M1758.92,698.45c0-.37-3.61-.47-9.16-1.63-14.58-3.12-27.47-11.44-36.19-23.34-3.28-4.67-4.75-7.75-5.13-7.61.73,3.04,2.05,5.91,3.89,8.45,4.12,6.35,9.56,11.78,15.96,15.92,6.4,4.14,13.62,6.91,21.18,8.12,3.12.64,6.32.67,9.45.09Z"/>
  <path class="cls-2" d="M1755.02,707.74c0-.37-3.56-.47-9.12-1.63-14.59-3.09-27.49-11.41-36.19-23.34-3.32-4.67-4.75-7.75-5.13-7.61.7,3.05,2.02,5.92,3.89,8.45,4.12,6.35,9.56,11.78,15.96,15.92,6.4,4.14,13.62,6.91,21.18,8.12,3.1.61,6.29.64,9.4.09Z"/>
  <path class="cls-3" d="M1711.4,748.31c.83-.39,32.54-10.35,32.15,22.24-.39,32.6-32.98,25.47-33.03,24.56-.04-.92.88-46.79.88-46.79Z"/>
  <path class="cls-8" d="M1720.49,782.87s.57.39,1.53.83c.69.29,1.43.44,2.18.44s1.49-.15,2.18-.44c2.11-1.31,3.84-3.15,5.01-5.35,1.16-2.19,1.73-4.66,1.63-7.14.09-2.8-.41-5.58-1.48-8.17-.33-1.03-.9-1.95-1.66-2.71-.76-.76-1.69-1.33-2.71-1.66-.65-.17-1.34-.11-1.95.16s-1.11.76-1.41,1.37c-.43.92-.26,1.57-.43,1.62-.18.04-.7-.57-.4-1.88.18-.82.64-1.55,1.31-2.06.91-.65,2.03-.94,3.14-.78,1.33.28,2.57.91,3.59,1.8,1.02.9,1.8,2.03,2.27,3.31,1.36,2.84,2.01,5.98,1.88,9.13-.31,6.56-3.71,12.67-8.43,13.99-.89.24-1.81.28-2.71.11-.9-.16-1.75-.54-2.49-1.08-1.05-.7-1.05-1.44-1.05-1.48Z"/>
</svg>
