<?xml version="1.0" encoding="UTF-8"?>
<svg id="Layer_1" data-name="Layer 1" xmlns="http://www.w3.org/2000/svg" viewBox="0 0 1862.37 1818">
  <defs>
    <style>
      .cls-1 {
        fill: #000;
      }

      .cls-1, .cls-2, .cls-3, .cls-4, .cls-5, .cls-6, .cls-7, .cls-8, .cls-9, .cls-10, .cls-11, .cls-12 {
        stroke-width: 0px;
      }

      .cls-2 {
        fill: #e0e0e0;
      }

      .cls-3 {
        fill: #eb996e;
      }

      .cls-4 {
        fill: #455a64;
      }

      .cls-5 {
        fill: #f5f5f5;
      }

      .cls-6 {
        fill: #09f;
      }

      .cls-7 {
        fill: #ffbe9d;
      }

      .cls-8 {
        fill: #ebebeb;
      }

      .cls-9 {
        fill: #e2323d;
      }

      .cls-10 {
        fill: #263238;
      }

      .cls-11 {
        fill: #fafafa;
      }

      .cls-13 {
        opacity: .3;
      }

      .cls-12 {
        fill: #fff;
      }
    </style>
  </defs>
  <path class="cls-11" d="M1634.53,1.13H45.25v1243.13h1589.28V1.13Z"/>
  <path class="cls-2" d="M1634.53,1244.27c0-7.53-.38-492.92-.93-1243.14l.93.88L45.37,2.23l1.09-1.09v1243.14l-.97-.97,1589.29.97-1589.29.97h-.97V0h1591.26v.93c-1.01,750.42-1.26,1235.81-1.26,1243.35Z"/>
  <path class="cls-8" d="M276.95,305.49h-93.73c-1.55,0-3.08-.32-4.51-.92-1.43-.6-2.72-1.48-3.81-2.58-1.09-1.1-1.95-2.41-2.53-3.85-.58-1.44-.87-2.97-.85-4.52v-129.55c0-3.11,1.23-6.09,3.42-8.29,2.19-2.2,5.17-3.44,8.28-3.45h59.43l46,47.44v93.86c.02,1.55-.27,3.09-.85,4.52-.58,1.44-1.44,2.74-2.53,3.85-1.09,1.1-2.38,1.98-3.81,2.58-1.43.6-2.96.91-4.51.92Z"/>
  <path class="cls-5" d="M242.65,152.32v36.53c0,1.43.28,2.85.83,4.17.55,1.32,1.35,2.52,2.36,3.54,1.01,1.01,2.21,1.82,3.54,2.36,1.32.55,2.74.83,4.17.83h35.1l-46-47.44Z"/>
  <path class="cls-2" d="M243.16,192.06c.02,2.76.98,5.43,2.73,7.57,1.75,2.14,4.17,3.61,6.87,4.18.37.12.75.21,1.14.25,4.59.84,34.77,6.19,34.77,5.51v-9.81h-35.1s-8.75-.29-10.4-7.7Z"/>
  <path class="cls-2" d="M276.95,305.49s.67,0,2.02-.25c1.95-.37,3.77-1.23,5.3-2.48,1.25-1.03,2.27-2.31,2.99-3.76.73-1.45,1.14-3.04,1.21-4.65v-94.74l-46.13-46.97h.29-56.78c-1.5-.11-3-.11-4.5,0-1.45.31-2.82.89-4.04,1.73-1.22.84-2.26,1.91-3.07,3.15-1.27,1.63-2.06,3.58-2.27,5.64v127.91c-.15,1.64-.15,3.29,0,4.92.46,2.32,1.64,4.45,3.37,6.07,1.73,1.62,3.92,2.66,6.27,2.98,1.53.11,3.06.11,4.59,0-1.56.08-3.12.08-4.67,0-1.63-.21-3.2-.77-4.59-1.64-1.44-.86-2.69-2.01-3.66-3.38-.97-1.37-1.65-2.93-1.98-4.57-.17-1.68-.17-3.37,0-5.05v-127.2c.15-2.23.92-4.38,2.23-6.19,1.89-2.59,4.71-4.34,7.87-4.88,1.54-.15,3.09-.15,4.63,0h56.78l46.09,47.39v94.74c-.09,1.62-.51,3.2-1.23,4.64-.72,1.45-1.74,2.73-2.97,3.77-1.58,1.25-3.45,2.09-5.43,2.44h-1.52l-.8.38Z"/>
  <path class="cls-2" d="M288.66,199.76h-35.52c-1.55-.05-3.07-.42-4.48-1.08-1.4-.66-2.66-1.59-3.69-2.75-1.04-1.23-1.81-2.67-2.27-4.21-.43-1.45-.6-2.96-.51-4.46v-35.52c.06.31.06.62,0,.93v34.6c-.12,1.44.04,2.89.49,4.26.45,1.37,1.17,2.64,2.12,3.73.95,1.08,2.12,1.95,3.42,2.57,1.3.62,2.72.96,4.16,1.01h34.64c1.35.84,1.64.88,1.64.93Z"/>
  <path class="cls-2" d="M240.88,184.9c0,.25-11.07.42-24.71.42s-24.71,0-24.71-.42,11.03-.42,24.71-.42,24.71.21,24.71.42Z"/>
  <path class="cls-2" d="M264.33,203.13s-16.29.42-36.41.42-36.45,0-36.45-.42,16.29-.42,36.45-.42,36.41.17,36.41.42Z"/>
  <path class="cls-2" d="M264.33,221.31c0,.25-16.29.42-36.41.42s-36.45,0-36.45-.42,16.29-.38,36.45-.38,36.41.17,36.41.38Z"/>
  <path class="cls-2" d="M264.33,239.54s-16.29.42-36.41.42-36.45,0-36.45-.42,16.29-.42,36.45-.42,36.41.21,36.41.42Z"/>
  <path class="cls-2" d="M264.33,257.76s-16.29.38-36.41.38-36.45,0-36.45-.38,16.29-.42,36.45-.42,36.41.17,36.41.42Z"/>
  <path class="cls-2" d="M264.33,280.19c0,.25-16.29.42-36.41.42s-36.45,0-36.45-.42,16.29-.42,36.45-.42,36.41.21,36.41.42Z"/>
  <path class="cls-2" d="M288.11,344.34c0,.63-26.01,1.09-58.04,1.09s-58.08-.46-58.08-1.09,26.01-1.09,58.08-1.09,58.04.51,58.04,1.09Z"/>
  <path class="cls-2" d="M267.4,359.53c-12.41,1.11-24.88,1.47-37.33,1.09-12.47.38-24.95.02-37.38-1.09,12.43-1.08,24.91-1.45,37.38-1.09,12.46-.35,24.92.01,37.33,1.09Z"/>
  <path class="cls-8" d="M276.95,637.04h-93.73c-3.11,0-6.08-1.25-8.28-3.45-2.19-2.2-3.42-5.18-3.42-8.29v-129.64c0-3.11,1.23-6.09,3.42-8.29,2.19-2.2,5.17-3.44,8.28-3.45h59.43l46,47.43v93.95c0,3.11-1.23,6.09-3.42,8.29-2.19,2.2-5.17,3.44-8.28,3.45Z"/>
  <path class="cls-5" d="M242.65,483.87v36.54c0,2.89,1.15,5.66,3.19,7.71,2.04,2.04,4.82,3.2,7.71,3.2h35.1l-46-47.44Z"/>
  <path class="cls-2" d="M243.16,523.61c.02,2.76.98,5.43,2.73,7.56,1.75,2.14,4.17,3.61,6.87,4.18l1.14.25c4.59.84,34.77,6.19,34.77,5.51v-9.81h-35.1s-8.75-.29-10.4-7.7Z"/>
  <path class="cls-2" d="M276.95,637.04s.67,0,2.02-.25c1.95-.37,3.77-1.23,5.3-2.48,1.25-1.03,2.27-2.32,2.99-3.77.73-1.45,1.14-3.03,1.21-4.65v-94.74.21l-46.13-47.18h.29-56.78c-1.5-.11-3-.11-4.5,0-1.45.31-2.82.89-4.04,1.73-1.22.84-2.26,1.91-3.07,3.15-1.22,1.69-1.93,3.69-2.06,5.77v127.79c-.15,1.64-.15,3.29,0,4.92.46,2.33,1.64,4.45,3.37,6.07,1.73,1.62,3.92,2.66,6.27,2.98,1.53.1,3.06.1,4.59,0-1.56.08-3.12.08-4.67,0-1.63-.21-3.19-.77-4.59-1.64-1.44-.86-2.69-2.01-3.66-3.38-.97-1.37-1.65-2.93-1.98-4.58-.17-1.68-.17-3.37,0-5.05v-127.2c.15-2.23.92-4.38,2.23-6.19,1.89-2.59,4.71-4.34,7.87-4.88,1.54-.15,3.09-.15,4.63,0h56.57l45.96,47.44v94.75c-.09,1.61-.51,3.2-1.23,4.64-.72,1.44-1.74,2.73-2.97,3.77-1.58,1.25-3.45,2.09-5.43,2.44h-1.52l-.67.34Z"/>
  <path class="cls-2" d="M288.66,531.3h-35.52c-1.55-.05-3.07-.42-4.48-1.08-1.4-.66-2.66-1.59-3.69-2.75-1.04-1.23-1.81-2.66-2.27-4.21-.43-1.44-.6-2.96-.51-4.46v-35.52c.06.31.06.62,0,.93v34.6c-.12,1.44.04,2.89.49,4.26.45,1.37,1.17,2.65,2.12,3.74.95,1.08,2.12,1.95,3.42,2.57,1.3.62,2.72.96,4.16,1.01h34.64c1.35.84,1.64.88,1.64.92Z"/>
  <path class="cls-2" d="M240.88,516.44c0,.25-11.07.42-24.71.42s-24.71,0-24.71-.42,11.03-.42,24.71-.42,24.71.21,24.71.42Z"/>
  <path class="cls-2" d="M264.33,534.67s-16.29.42-36.41.42-36.45-.21-36.45-.42,16.29-.42,36.45-.42,36.41.17,36.41.42Z"/>
  <path class="cls-2" d="M264.33,552.86c0,.25-16.29.42-36.41.42s-36.45,0-36.45-.42,16.29-.38,36.45-.38,36.41.17,36.41.38Z"/>
  <path class="cls-2" d="M264.33,571.08c0,.21-16.29.42-36.41.42s-36.45-.21-36.45-.42,16.29-.42,36.45-.42,36.41.21,36.41.42Z"/>
  <path class="cls-2" d="M264.33,589.31c0,.21-16.29.38-36.41.38s-36.45,0-36.45-.38,16.29-.42,36.45-.42,36.41.17,36.41.42Z"/>
  <path class="cls-2" d="M264.33,611.74c0,.25-16.29.42-36.41.42s-36.45,0-36.45-.42,16.29-.42,36.45-.42,36.41.21,36.41.42Z"/>
  <path class="cls-2" d="M288.11,675.88c0,.63-26.01,1.1-58.04,1.1s-58.08-.47-58.08-1.1,26.01-1.09,58.08-1.09,58.04.5,58.04,1.09Z"/>
  <path class="cls-2" d="M267.4,691.08c-12.41,1.11-24.88,1.47-37.33,1.09-12.47.38-24.95.01-37.38-1.09,12.43-1.09,24.91-1.45,37.38-1.1,12.46-.35,24.92,0,37.33,1.1Z"/>
  <path class="cls-8" d="M270.51,1043.75h-93.73c-3.11,0-6.08-1.26-8.28-3.45-2.19-2.2-3.42-5.18-3.42-8.29v-129.68c0-3.11,1.23-6.08,3.42-8.29,2.19-2.2,5.17-3.44,8.28-3.45h59.43l46,47.44v93.99c0,3.11-1.23,6.08-3.42,8.29-2.19,2.2-5.17,3.44-8.28,3.45Z"/>
  <path class="cls-5" d="M236.21,890.59v36.49c0,2.89,1.15,5.67,3.19,7.71,2.04,2.04,4.82,3.19,7.71,3.19h35.1l-46-47.39Z"/>
  <path class="cls-2" d="M236.72,930.28c.02,2.76.98,5.44,2.72,7.58,1.75,2.14,4.17,3.63,6.87,4.2.39.11.78.19,1.18.25,4.55.84,34.72,6.19,34.72,5.51v-9.81h-35.1s-8.75-.42-10.4-7.75Z"/>
  <path class="cls-2" d="M270.51,1043.75s.67,0,2.02-.25c1.95-.37,3.77-1.23,5.3-2.48,1.25-1.03,2.27-2.32,3-3.77.72-1.45,1.14-3.04,1.21-4.65v-94.75l-46.13-46.97h.29-56.78c-1.5-.12-3.01-.12-4.5,0-1.46.24-2.86.77-4.12,1.56-1.26.79-2.35,1.82-3.2,3.03-1.22,1.69-1.93,3.69-2.06,5.77v127.78c-.06,1.8.04,3.6.29,5.39.46,2.32,1.64,4.45,3.37,6.07,1.73,1.62,3.92,2.66,6.27,2.98,1.53.08,3.06.08,4.59,0h85.57-85.78c-1.56.1-3.12.1-4.67,0-2.42-.3-4.69-1.33-6.52-2.94-1.83-1.62-3.12-3.75-3.71-6.11-.17-1.68-.17-3.37,0-5.05v-127.87c.19-2.71,1.29-5.28,3.13-7.29,1.83-2,4.29-3.34,6.97-3.78,1.53-.19,3.08-.26,4.63-.21h56.7l46.09,47.4v94.74c-.09,1.62-.51,3.2-1.23,4.65-.72,1.45-1.74,2.73-2.97,3.78-1.57,1.26-3.44,2.09-5.43,2.4-.5.04-1.01.04-1.52,0l-.8.59Z"/>
  <path class="cls-2" d="M282.22,938.02h-35.52c-1.54-.05-3.06-.41-4.46-1.07-1.4-.66-2.64-1.6-3.66-2.76-1.06-1.23-1.84-2.66-2.32-4.21-.43-1.44-.6-2.95-.5-4.46v-35.52c.06.3.06.62,0,.92v34.6c-.12,1.44.05,2.89.5,4.26.45,1.37,1.17,2.65,2.11,3.74.95,1.08,2.11,1.95,3.42,2.56,1.3.61,2.72.94,4.16.97h34.64c1.35.88,1.64.93,1.64.97Z"/>
  <path class="cls-2" d="M234.44,923.17c0,.21-11.07.42-24.71.42s-24.71,0-24.71-.42,11.07-.42,24.71-.42,24.71.21,24.71.42Z"/>
  <path class="cls-2" d="M257.89,941.39c0,.21-16.29.38-36.41.38s-36.45,0-36.45-.38,16.29-.42,36.45-.42,36.41.17,36.41.42Z"/>
  <path class="cls-2" d="M257.89,959.57c0,.25-16.29.42-36.41.42s-36.45,0-36.45-.42,16.29-.42,36.45-.42,36.41.21,36.41.42Z"/>
  <path class="cls-2" d="M257.89,977.8c0,.21-16.29.42-36.41.42s-36.45,0-36.45-.42,16.29-.42,36.45-.42,36.41.17,36.41.42Z"/>
  <path class="cls-2" d="M257.89,995.98c0,.25-16.29.42-36.41.42s-36.45,0-36.45-.42,16.29-.38,36.45-.38,36.41.17,36.41.38Z"/>
  <path class="cls-2" d="M257.89,1018.45c0,.21-16.29.42-36.41.42s-36.45-.21-36.45-.42,16.29-.42,36.45-.42,36.41.21,36.41.42Z"/>
  <path class="cls-2" d="M281.67,1082.6c0,.59-26.01,1.1-58.04,1.1s-58.04-.51-58.04-1.1,25.97-1.09,58.04-1.09,58.04.5,58.04,1.09Z"/>
  <path class="cls-2" d="M261,1097.8c-12.43,1.08-24.91,1.45-37.38,1.09-12.47.36-24.95,0-37.38-1.09,12.43-1.09,24.91-1.45,37.38-1.1,12.47-.35,24.95.01,37.38,1.1Z"/>
  <path class="cls-8" d="M886.76,1034.41h-93.77c-1.54,0-3.06-.29-4.49-.88-1.42-.59-2.71-1.45-3.8-2.54-1.09-1.09-1.95-2.38-2.54-3.8-.59-1.42-.88-2.95-.88-4.49v-129.64c0-1.54.29-3.07.88-4.49s1.44-2.72,2.53-3.81c1.09-1.09,2.38-1.96,3.8-2.55,1.42-.59,2.95-.89,4.49-.89h59.43l46.01,47.39v94.03c-.01,3.09-1.25,6.05-3.43,8.23-2.18,2.18-5.14,3.42-8.23,3.43Z"/>
  <path class="cls-5" d="M852.49,881.33v36.49c0,2.89,1.15,5.67,3.2,7.71,2.04,2.04,4.82,3.2,7.71,3.2h35.11l-46.01-47.39Z"/>
  <path class="cls-2" d="M852.96,921.02c.01,2.77.98,5.45,2.74,7.59,1.75,2.14,4.19,3.62,6.9,4.19l1.14.25c4.59.8,34.77,6.18,34.77,5.47v-9.81h-35.11s-8.75-.29-10.44-7.7Z"/>
  <path class="cls-2" d="M886.76,1034.41c.68-.02,1.35-.09,2.02-.21,1.97-.36,3.81-1.22,5.35-2.48,1.25-1.03,2.27-2.31,3-3.77.72-1.45,1.14-3.03,1.21-4.65v-94.75.25l-46.13-47.18h.29-56.78c-1.5-.13-3.01-.13-4.51,0-1.46.24-2.86.77-4.12,1.56-1.26.79-2.35,1.82-3.2,3.03-1.23,1.67-1.96,3.66-2.1,5.73v127.87c-.08,1.65,0,3.3.21,4.93.46,2.32,1.64,4.45,3.37,6.07,1.73,1.62,3.92,2.66,6.27,2.98h22.39-17.68c-1.55.08-3.12.08-4.67,0-1.62-.21-3.19-.76-4.59-1.6-1.44-.86-2.68-2.01-3.65-3.38-.97-1.37-1.65-2.93-1.99-4.57-.23-1.67-.32-3.36-.25-5.05v-127.87c.14-2.23.92-4.37,2.23-6.18,1.87-2.62,4.7-4.39,7.87-4.93,1.54-.1,3.09-.1,4.63,0h56.95l45.96,47.48v94.79c-.1,1.61-.52,3.19-1.25,4.64-.72,1.44-1.73,2.73-2.97,3.78-1.57,1.25-3.44,2.07-5.43,2.4-.5.07-1.01.07-1.51,0l-.93,1.14Z"/>
  <path class="cls-2" d="M898.5,928.72h-3.49l-9.43.46h-22.52c-2.35-.05-4.62-.85-6.5-2.27-1.87-1.42-3.25-3.39-3.94-5.64-.43-1.44-.61-2.95-.55-4.46v-34.64c-.04-.29-.04-.59,0-.88.03.29.03.59,0,.88v34.64c-.12,1.44.05,2.89.5,4.26.45,1.37,1.17,2.65,2.11,3.74.95,1.08,2.11,1.96,3.42,2.56,1.31.61,2.72.94,4.16.97h34.64l1.6.38Z"/>
  <path class="cls-2" d="M850.73,913.91s-11.07.42-24.7.42-24.75-.21-24.75-.42,11.07-.42,24.75-.42,24.7.17,24.7.42Z"/>
  <path class="cls-2" d="M874.17,932.09c0,.25-16.29.42-36.45.42s-36.45,0-36.45-.42,16.33-.38,36.45-.38,36.45.17,36.45.38Z"/>
  <path class="cls-2" d="M874.17,950.23c0,.25-16.29.42-36.45.42s-36.45,0-36.45-.42,16.33-.42,36.45-.42,36.45.42,36.45.42Z"/>
  <path class="cls-2" d="M874.17,968.54s-16.29.38-36.45.38-36.45,0-36.45-.38,16.33-.42,36.45-.42,36.45.17,36.45.42Z"/>
  <path class="cls-2" d="M874.17,986.72c0,.25-16.29.42-36.45.42s-36.45,0-36.45-.42,16.33-.42,36.45-.42,36.45.21,36.45.42Z"/>
  <path class="cls-2" d="M874.17,1009.15c0,.21-16.29.42-36.45.42s-36.45-.21-36.45-.42,16.33-.42,36.45-.42,36.45.42,36.45.42Z"/>
  <path class="cls-2" d="M897.95,1073.34c0,.59-26.01,1.09-58.08,1.09s-58.04-.5-58.04-1.09,26.01-1.1,58.04-1.1,58.08.47,58.08,1.1Z"/>
  <path class="cls-2" d="M877.16,1088.54c-12.43,1.08-24.91,1.45-37.38,1.09-12.46.36-24.92,0-37.33-1.09,12.41-1.09,24.88-1.45,37.33-1.1,12.47-.36,24.95,0,37.38,1.1Z"/>
  <path class="cls-8" d="M515.18,95.08l4.21,83.84c0,1.33.51,2.61,1.42,3.58.9.97,2.14,1.57,3.46,1.68h129.3c1.35-.15,2.6-.81,3.48-1.86.88-1.04,1.32-2.38,1.24-3.74v-65.28c.1-1.4-.35-2.79-1.27-3.85-.92-1.06-2.22-1.72-3.62-1.83l-79.3.8c-.66,0-1.31-.16-1.91-.44-.6-.28-1.12-.69-1.54-1.2l-13.81-15.91c-.42-.5-.94-.9-1.53-1.17-.59-.28-1.23-.42-1.88-.43h-33.67c-1.37.19-2.61.9-3.46,1.98-.85,1.08-1.26,2.45-1.13,3.83Z"/>
  <path class="cls-5" d="M658.42,97.74h-141.3v98.53h141.3v-98.53Z"/>
  <path class="cls-8" d="M505.88,106.57l10.77,102.87c.05.82.39,1.59.96,2.18.57.59,1.33.95,2.15,1.02h137.72c.85-.06,1.64-.45,2.22-1.07.58-.62.9-1.45.89-2.3l6.95-102.78c.06-.46.02-.93-.1-1.38-.12-.45-.34-.87-.63-1.23-.29-.36-.65-.67-1.06-.89-.41-.22-.86-.36-1.33-.41h-155.44c-.47.05-.93.19-1.34.42-.41.23-.78.54-1.07.91-.29.37-.5.8-.62,1.26-.12.46-.15.94-.07,1.41Z"/>
  <path class="cls-2" d="M644.74,264.7c0,.63-25.97,1.09-58.04,1.09s-58.04-.46-58.04-1.09,25.97-1.09,58.04-1.09,58.04.55,58.04,1.09Z"/>
  <path class="cls-2" d="M624.07,279.9c-12.41,1.11-24.88,1.47-37.33,1.09-12.47.38-24.95.01-37.38-1.09,12.43-1.08,24.91-1.45,37.38-1.09,12.45-.35,24.92.01,37.33,1.09Z"/>
  <path class="cls-8" d="M519.39,489.26l4.42,83.84c-.01,1.34.48,2.64,1.39,3.62.91.99,2.15,1.59,3.49,1.69h129.59c1.39-.11,2.68-.76,3.59-1.82.91-1.06,1.35-2.43,1.25-3.82v-65.32c.05-.69-.03-1.38-.25-2.04-.22-.66-.57-1.27-1.02-1.79-.46-.53-1.01-.95-1.63-1.26-.62-.31-1.3-.5-1.99-.55l-79.51.59c-.66,0-1.31-.16-1.91-.44-.6-.29-1.12-.69-1.54-1.2l-13.81-15.87c-.42-.5-.94-.91-1.53-1.19-.59-.28-1.23-.44-1.88-.45h-33.68c-.73.05-1.44.24-2.1.57-.65.33-1.23.79-1.7,1.36-.47.56-.82,1.22-1.03,1.92-.21.7-.27,1.44-.18,2.17Z"/>
  <path class="cls-5" d="M662.96,491.87h-141.3v98.53h141.3v-98.53Z"/>
  <path class="cls-8" d="M510.43,500.75l10.81,102.74c.02.82.35,1.6.92,2.2.57.59,1.33.95,2.16,1h137.72c.84-.05,1.64-.43,2.21-1.05.58-.62.9-1.43.9-2.28l6.95-102.79c.06-.46.02-.93-.1-1.38-.12-.45-.34-.87-.63-1.24-.29-.36-.65-.67-1.06-.89-.41-.22-.86-.37-1.33-.41h-155.44c-.48.04-.94.19-1.36.42s-.79.56-1.09.94c-.29.38-.5.82-.62,1.29-.11.47-.13.96-.04,1.43Z"/>
  <path class="cls-2" d="M649.28,658.88c0,.59-25.97,1.1-58.04,1.1s-58.04-.51-58.04-1.1,25.97-1.09,58.04-1.09,58.04.46,58.04,1.09Z"/>
  <path class="cls-2" d="M628.83,674.08c-12.43,1.08-24.91,1.45-37.38,1.09-12.47.36-24.95,0-37.37-1.09,12.43-1.11,24.91-1.47,37.37-1.1,12.47-.38,24.95-.01,37.38,1.1Z"/>
  <path class="cls-8" d="M451.16,975.23l4.46,83.84c-.03,1.33.46,2.63,1.36,3.61.9.99,2.14,1.59,3.48,1.69h129.3c1.39-.1,2.69-.76,3.6-1.82.91-1.06,1.37-2.43,1.28-3.82v-65.32c.05-.69-.03-1.39-.25-2.04-.22-.66-.56-1.27-1.02-1.79-.45-.53-1-.95-1.62-1.27-.62-.31-1.3-.49-1.99-.54l-79.55.59c-.66,0-1.31-.16-1.91-.45-.6-.28-1.12-.69-1.54-1.2l-13.81-15.87c-.42-.5-.94-.91-1.53-1.19-.59-.28-1.23-.44-1.88-.45h-33.67c-.71.08-1.39.3-2.01.65-.62.35-1.16.82-1.6,1.37-.44.56-.76,1.2-.95,1.89s-.24,1.4-.15,2.11Z"/>
  <path class="cls-5" d="M594.61,977.84h-141.3v98.53h141.3v-98.53Z"/>
  <path class="cls-8" d="M442.07,986.68l10.82,102.78c.02.82.35,1.61.91,2.2.57.59,1.34.95,2.16,1h137.72c.85-.06,1.64-.45,2.22-1.07.58-.63.9-1.44.9-2.29l6.77-102.75c.06-.47.03-.94-.09-1.39-.12-.45-.33-.87-.63-1.25-.29-.37-.66-.67-1.07-.9-.41-.22-.86-.37-1.33-.41h-155.27c-.48.04-.95.19-1.37.42-.42.23-.79.56-1.08.94s-.5.82-.62,1.29c-.11.47-.13.96-.05,1.43Z"/>
  <path class="cls-2" d="M580.93,1144.86c0,.59-25.97,1.1-58.04,1.1s-58.04-.51-58.04-1.1,26.01-1.09,58.04-1.09,58.04.46,58.04,1.09Z"/>
  <path class="cls-2" d="M560.26,1160.05c-12.43,1.08-24.91,1.45-37.38,1.09-12.47.36-24.95,0-37.38-1.09,12.43-1.11,24.9-1.47,37.38-1.1,12.47-.38,24.95-.01,37.38,1.1Z"/>
  <path class="cls-12" d="M1859.67,71.97h-935.24v822.48h935.24V71.97Z"/>
  <path class="cls-2" d="M1859.67,894.46c0-7.79-.38-327.59-.92-822.49l.92.93h-935.16l1.1-1.09v822.49l-.97-.97,935.24.97-935.24.97h-1.18V70.71h937.26v.93c-.67,495.23-1.05,815.04-1.05,822.82Z"/>
  <path class="cls-2" d="M1862.37,156.36c0,.38-207.63.72-463.71.72s-463.79-.34-463.79-.72,207.63-.76,463.79-.76,463.71.34,463.71.76Z"/>
  <path class="cls-8" d="M988.07,117.85c.03,1.9-.5,3.78-1.53,5.38-1.03,1.6-2.52,2.86-4.27,3.61-1.75.75-3.68.97-5.56.62-1.87-.35-3.6-1.25-4.95-2.59-1.36-1.33-2.29-3.04-2.67-4.91-.39-1.87-.2-3.8.52-5.57.72-1.76,1.95-3.27,3.53-4.33,1.58-1.06,3.44-1.63,5.34-1.63,2.52,0,4.93.99,6.73,2.75,1.8,1.76,2.82,4.16,2.87,6.68Z"/>
  <path class="cls-8" d="M1019.59,117.85c.03,1.9-.5,3.78-1.53,5.38-1.04,1.6-2.52,2.86-4.27,3.61-1.75.75-3.69.97-5.56.62-1.87-.35-3.6-1.25-4.96-2.59-1.36-1.33-2.29-3.04-2.67-4.91-.38-1.87-.2-3.8.52-5.57.72-1.76,1.95-3.27,3.53-4.33,1.58-1.06,3.44-1.63,5.35-1.63,2.52,0,4.93.99,6.73,2.75,1.79,1.76,2.82,4.16,2.87,6.68Z"/>
  <path class="cls-8" d="M1051.12,117.85c.03,1.9-.5,3.78-1.53,5.38-1.03,1.6-2.52,2.86-4.27,3.61-1.75.75-3.69.97-5.56.62-1.88-.35-3.6-1.25-4.96-2.59-1.36-1.33-2.29-3.04-2.67-4.91-.38-1.87-.2-3.8.52-5.57.72-1.76,1.95-3.27,3.53-4.33,1.58-1.06,3.44-1.63,5.35-1.63,2.52,0,4.93.99,6.72,2.75,1.8,1.76,2.83,4.16,2.87,6.68Z"/>
  <path class="cls-2" d="M1816.15,228.93c.53-.06,1.05-.16,1.56-.29.74-.25,1.41-.65,1.98-1.18.57-.53,1.01-1.18,1.31-1.9.37-1.08.5-2.23.38-3.37v-31.53c-.11-1.22-.67-2.35-1.56-3.19-.89-.84-2.06-1.32-3.28-1.36h-263.53c-1.17-.02-2.29.41-3.16,1.19-.87.78-1.41,1.86-1.51,3.02v31.69c-.15,1.18.06,2.38.59,3.45.57.98,1.46,1.72,2.53,2.1.54.17,1.11.25,1.68.25h171.6l67.01.25h24.58c-.53.04-1.07.04-1.6,0h-22.98l-67.01.25h-171.6c-.73,0-1.45-.12-2.15-.34-1.4-.51-2.58-1.49-3.32-2.78-.67-1.3-.95-2.76-.8-4.21v-30.43c.14-1.54.84-2.97,1.98-4.01,1.14-1.04,2.62-1.62,4.16-1.63h263.53c1.41.04,2.76.59,3.79,1.57,1.02.97,1.65,2.29,1.77,3.7v31.61c.09,1.18-.06,2.37-.46,3.49-.32.74-.8,1.4-1.4,1.93-.61.53-1.32.92-2.09,1.14-.6.36-1.28.55-1.98.55Z"/>
  <path class="cls-2" d="M1564.49,212.85l.71-1.52c1.29,1.04,2.89,1.59,4.55,1.56,2.4,0,3.41-.93,3.41-2.1,0-3.37-8.42-1.26-8.42-6.36,0-2.15,1.64-3.96,5.26-3.96,1.56,0,3.09.41,4.42,1.22l-.63,1.6c-1.13-.74-2.44-1.13-3.79-1.14-2.36,0-3.37.97-3.37,2.19,0,3.37,8.42,1.26,8.42,6.31,0,2.1-1.69,3.91-5.34,3.91-1.89.02-3.72-.58-5.22-1.73Z"/>
  <path class="cls-2" d="M1587.09,209.82h-8.42c.1.91.56,1.73,1.27,2.31.7.57,1.61.85,2.52.77.56.02,1.12-.08,1.64-.3.52-.22.98-.55,1.35-.96l1.05,1.22c-.54.57-1.19,1.02-1.92,1.31-.73.29-1.51.42-2.3.37-.7.05-1.4-.05-2.07-.29-.67-.23-1.28-.6-1.79-1.08-.52-.48-.94-1.05-1.23-1.69-.29-.64-.45-1.33-.46-2.04-.03-.7.08-1.4.34-2.05.25-.65.63-1.25,1.12-1.75.49-.5,1.08-.9,1.72-1.16.65-.27,1.34-.4,2.04-.39.7-.02,1.39.11,2.04.37.65.26,1.24.66,1.72,1.16.49.5.86,1.1,1.11,1.76.24.66.35,1.35.31,2.05,0,0-.04.21-.04.38ZM1578.68,208.47h6.69c-.07-.83-.47-1.61-1.09-2.16-.63-.56-1.44-.85-2.28-.83-.84-.05-1.67.24-2.3.8-.63.56-1.02,1.35-1.07,2.19h.04Z"/>
  <path class="cls-2" d="M1597.74,208.14v6.31h-1.81v-1.39c-.4.51-.92.91-1.52,1.17s-1.24.36-1.89.31c-2.4,0-3.87-1.26-3.87-3.07s1.1-3.03,4.21-3.03h2.99v-.38c0-1.6-.92-2.53-2.82-2.53-1.19-.02-2.35.38-3.28,1.14l-.8-1.43c1.22-.9,2.69-1.37,4.21-1.35,2.94,0,4.59,1.35,4.59,4.25ZM1595.85,211.25v-1.47h-2.94c-1.85,0-2.4.72-2.4,1.6s.88,1.73,2.32,1.73c.64.04,1.26-.12,1.81-.45.54-.33.97-.82,1.22-1.4Z"/>
  <path class="cls-2" d="M1606.84,203.89v1.85h-.42c-.46-.03-.92.04-1.35.21-.43.17-.81.44-1.13.77-.32.34-.55.74-.69,1.18-.14.44-.18.91-.11,1.36v5.22h-2.02v-10.52h1.81v1.77c.43-.63,1.01-1.14,1.7-1.47.69-.33,1.45-.46,2.21-.38Z"/>
  <path class="cls-2" d="M1608.1,209.44c-.04-.75.07-1.5.34-2.2.27-.7.68-1.33,1.22-1.86.54-.53,1.18-.93,1.88-1.19.7-.26,1.45-.36,2.2-.31.84-.05,1.68.13,2.42.53.74.39,1.36.98,1.79,1.7l-1.43.93c-.3-.47-.72-.86-1.21-1.12-.5-.27-1.05-.4-1.61-.39-.91.1-1.75.53-2.36,1.21-.61.68-.95,1.56-.95,2.48s.34,1.8.95,2.48c.61.68,1.45,1.11,2.36,1.21.56.02,1.12-.11,1.61-.38.49-.27.91-.66,1.21-1.14l1.43.93c-.43.72-1.05,1.31-1.79,1.7-.74.39-1.58.58-2.42.53-.71.06-1.42-.03-2.09-.26-.67-.23-1.3-.59-1.83-1.07-.53-.48-.95-1.06-1.25-1.7-.3-.65-.46-1.35-.47-2.06Z"/>
  <path class="cls-2" d="M1630.11,208.43v6.02h-1.89v-5.81c0-2.06-1.05-3.07-2.82-3.07-.46-.03-.92.03-1.35.2-.43.17-.82.42-1.14.76-.32.33-.56.74-.7,1.17-.14.44-.19.9-.13,1.36v5.39h-1.89v-14.65h1.98v5.68c.46-.53,1.03-.95,1.67-1.23.65-.28,1.34-.4,2.04-.37.59,0,1.17.11,1.7.34.54.23,1.03.57,1.42,1,.4.43.71.93.9,1.49.19.55.27,1.14.22,1.72Z"/>
  <path class="cls-2" d="M1632.72,213.19c0-.18.02-.36.09-.52.06-.17.16-.32.29-.44.13-.13.28-.23.44-.29.17-.07.35-.1.53-.09.36,0,.7.14.95.39.25.25.39.6.39.95s-.14.7-.39.95c-.25.25-.6.39-.95.39-.18,0-.36-.03-.53-.09-.16-.07-.31-.16-.44-.29-.12-.13-.22-.28-.29-.44-.07-.17-.1-.34-.09-.52Z"/>
  <path class="cls-2" d="M1637.18,213.19c0-.36.14-.7.4-.95.25-.25.6-.39.95-.39s.7.14.95.39c.25.25.39.6.39.95s-.14.7-.39.95-.6.39-.95.39-.7-.14-.95-.39-.4-.6-.4-.95Z"/>
  <path class="cls-2" d="M1641.64,213.19c0-.36.14-.7.4-.95.25-.25.6-.39.95-.39s.7.14.95.39c.25.25.39.6.39.95s-.14.7-.39.95-.6.39-.95.39-.7-.14-.95-.39c-.25-.25-.4-.6-.4-.95Z"/>
  <path class="cls-2" d="M1503.8,299.14v147.32h179.3v-147.32c0-3.35-1.34-6.56-3.7-8.93-2.37-2.37-5.58-3.7-8.93-3.7h-153.93c-1.67-.02-3.32.3-4.87.93-1.55.63-2.95,1.55-4.14,2.73s-2.13,2.57-2.77,4.11c-.65,1.54-.97,3.19-.97,4.86Z"/>
  <path class="cls-5" d="M1512.22,366.52l1.22-54.17h156.87v30.89"/>
  <path class="cls-5" d="M1660.71,297.7h-137.09v14.65h137.09v-14.65Z"/>
  <path class="cls-2" d="M1523.62,297.83h10.44l28.96-.25,97.69-.29h.72v15.19c-1.47,1.47-.47.42-.8.76h-82.32l-54.72-.29h-.3v-14.02c-.01-.31-.01-.62,0-.93.03.34.03.67,0,1.01v13.64l-.33-.29,54.72-.29h82.37c-.3.29.8-.76-.67.72v-14.94l.71.76-97.14-.34h-39.18l-.13-.42Z"/>
  <path class="cls-2" d="M1676.87,483.53c0,.42-34.26.76-76.52.76s-76.52-.34-76.52-.76,34.26-.72,76.52-.72,76.52.21,76.52.72Z"/>
  <path class="cls-8" d="M1490.04,339.92l13.77,106.74h179.3v-103.42h-81.41l-15.83-13.89h-86.58c-1.33,0-2.65.28-3.86.83-1.21.55-2.29,1.35-3.17,2.35s-1.53,2.18-1.92,3.45c-.39,1.27-.5,2.61-.32,3.93Z"/>
  <path class="cls-2" d="M1633.77,385.04c0,.42-19.66.76-43.85.76s-43.86-.34-43.86-.76,19.66-.72,43.86-.72,43.85.34,43.85.72Z"/>
  <path class="cls-2" d="M1633.77,395.56c0,.42-19.66.72-43.85.72s-43.86-.29-43.86-.72,19.66-.76,43.86-.76,43.85.34,43.85.76Z"/>
  <path class="cls-2" d="M1638.99,503.48c0,.42-21.47.75-47.98.75s-47.98-.33-47.98-.75,21.51-.71,47.98-.71,47.98.33,47.98.71Z"/>
  <path class="cls-2" d="M1113.83,299.14v147.32h179.3v-147.32c0-3.35-1.33-6.56-3.7-8.93-2.37-2.37-5.58-3.7-8.93-3.7h-153.92c-1.67-.02-3.32.3-4.87.93-1.54.63-2.95,1.55-4.14,2.73-1.19,1.17-2.13,2.57-2.77,4.11-.65,1.54-.97,3.19-.97,4.86Z"/>
  <path class="cls-5" d="M1122.25,366.52l1.22-54.17h156.87v30.89"/>
  <path class="cls-5" d="M1270.75,297.7h-137.09v14.65h137.09v-14.65Z"/>
  <path class="cls-2" d="M1133.66,297.83h10.44l28.96-.25,97.69-.29h.71v15.19c-1.47,1.47-.46.42-.8.76h-82.33l-54.72-.29h-.29v-14.02c-.02-.31-.02-.62,0-.93.03.34.03.67,0,1.01v13.64l-.34-.29,54.72-.29h83c-.29.29.8-.76-.67.72v-14.94l.71.76-97.15-.34h-39.18l-.75-.42Z"/>
  <path class="cls-2" d="M1286.7,483.53c0,.42-34.26.76-76.52.76s-76.52-.34-76.52-.76,34.26-.72,76.52-.72,76.52.21,76.52.72Z"/>
  <path class="cls-8" d="M1100.24,339.92l13.77,106.74h179.3v-103.42h-81.57l-15.83-13.89h-86.58c-1.32.02-2.61.33-3.8.89-1.19.56-2.25,1.36-3.11,2.36-.86,1-1.5,2.16-1.87,3.43-.38,1.26-.48,2.59-.31,3.89Z"/>
  <path class="cls-2" d="M1243.81,385.04c0,.42-19.66.76-43.86.76s-43.86-.34-43.86-.76,19.66-.72,43.86-.72,43.86.34,43.86.72Z"/>
  <path class="cls-2" d="M1243.81,395.56c0,.42-19.66.72-43.86.72s-43.86-.29-43.86-.72,19.66-.76,43.86-.76,43.86.34,43.86.76Z"/>
  <path class="cls-2" d="M1249.11,503.48c0,.42-21.46.75-47.98.75s-47.98-.33-47.98-.75,21.51-.71,47.98-.71,47.98.33,47.98.71Z"/>
  <path class="cls-2" d="M1108.24,612.46v147.32h179.26v-147.32c0-3.35-1.33-6.56-3.7-8.93-2.37-2.37-5.58-3.7-8.93-3.7h-153.93c-1.66,0-3.32.31-4.86.94-1.54.63-2.94,1.56-4.12,2.73-1.18,1.18-2.12,2.57-2.76,4.11-.64,1.54-.97,3.19-.97,4.85Z"/>
  <path class="cls-5" d="M1116.65,679.84l1.18-54.17h156.87v30.9"/>
  <path class="cls-5" d="M1265.11,611.02h-137.09v14.65h137.09v-14.65Z"/>
  <path class="cls-2" d="M1128.02,611.07h10.44l28.96-.21,97.69-.34h.76v15.36c-1.47,1.47-.46.42-.8.76h-82.37l-54.72-.3h-.34v-14.05c0-.72,0-.93,0-.88.03.32.03.65,0,.97v13.64l-.3-.3,54.72-.29h82.37c-.3.34.8-.71-.67.71v-14.6l.71.71-97.14-.34h-39.94l.63-.84Z"/>
  <path class="cls-2" d="M1281.23,796.85c0,.42-34.26.76-76.52.76s-76.52-.34-76.52-.76,34.26-.71,76.52-.71,76.52.34,76.52.71Z"/>
  <path class="cls-8" d="M1094.43,653.19l13.81,106.74h179.26v-103.37h-81.4l-15.78-13.89h-86.62c-1.33,0-2.64.28-3.85.83-1.21.55-2.28,1.34-3.16,2.34-.87.99-1.53,2.16-1.92,3.43-.39,1.27-.51,2.6-.34,3.92Z"/>
  <path class="cls-2" d="M1238.17,698.4c0,.38-19.61.71-43.86.71s-43.85-.34-43.85-.71,19.66-.76,43.85-.76,43.86.34,43.86.76Z"/>
  <path class="cls-2" d="M1238.17,708.88c0,.42-19.61.72-43.86.72s-43.85-.3-43.85-.72,19.66-.71,43.85-.71,43.86.3,43.86.71Z"/>
  <path class="cls-2" d="M1243.34,816.8c0,.42-21.46.76-47.98.76s-47.98-.34-47.98-.76,21.51-.71,47.98-.71,47.98.34,47.98.71Z"/>
  <path class="cls-2" d="M1502.45,612.46v147.32h179.3v-147.32c0-3.35-1.33-6.56-3.7-8.93-2.37-2.37-5.58-3.7-8.93-3.7h-153.97c-1.67,0-3.32.31-4.86.94-1.54.63-2.95,1.56-4.13,2.73-1.18,1.18-2.12,2.57-2.76,4.11-.64,1.54-.97,3.19-.97,4.85Z"/>
  <path class="cls-5" d="M1510.87,679.84l1.18-54.17h156.91v30.9"/>
  <path class="cls-5" d="M1659.36,611.02h-137.09v14.65h137.09v-14.65Z"/>
  <path class="cls-2" d="M1522.28,611.07h10.4l29-.21,97.69-.34h.67v15.36l-.76.76h-82.33l-54.72-.3h-.33v-.33c0-4.71,0-8.42.21-10.99v-2.73c0-.72,0-.93,0-.88.02.32.02.65,0,.97v13.64l-.29-.3,54.72-.29h82.37c-.34.34.75-.71-.71.71v-14.6l.75.71-97.18-.34h-39.9l.42-.84Z"/>
  <path class="cls-2" d="M1675.31,796.85c0,.42-34.26.76-76.52.76s-76.52-.34-76.52-.76,34.26-.71,76.52-.71,76.52.34,76.52.71Z"/>
  <path class="cls-8" d="M1488.65,653.19l13.81,106.74h179.3v-103.37h-81.44l-15.79-13.89h-86.62c-1.33,0-2.64.28-3.84.83-1.21.55-2.29,1.34-3.16,2.34-.88.99-1.53,2.16-1.92,3.43-.39,1.27-.5,2.6-.34,3.92Z"/>
  <path class="cls-2" d="M1632.38,698.4c0,.38-19.61.71-43.81.71s-43.85-.34-43.85-.71,19.61-.71,43.77-.71,43.9.29,43.9.71Z"/>
  <path class="cls-2" d="M1632.38,708.88c0,.42-19.61.72-43.81.72s-43.85-.3-43.85-.72,19.61-.71,43.85-.71,43.81.3,43.81.71Z"/>
  <path class="cls-2" d="M1637.73,816.8c0,.42-21.51.76-47.98.76s-47.98-.34-47.98-.76,21.46-.71,47.98-.71,47.98.34,47.98.71Z"/>
  <path class="cls-10" d="M1846.92,1815.98c0,.64-413.49,1.1-923.41,1.1s-923.5-.46-923.5-1.1,413.41-1.09,923.5-1.09,923.41.51,923.41,1.09Z"/>
  <path class="cls-4" d="M225.01,1604.94s-111.2-128-153.17-255.99c-41.96-128-22.05-113.31-22.05-113.31,0,0,56.65,124.33,99.67,184.4,43.02,60.06,119.62,148.16,119.62,148.16l-44.07,36.74Z"/>
  <path class="cls-4" d="M247.15,1255.55c-.75-1.32-1.94-2.33-3.36-2.86-1.42-.53-2.98-.55-4.41-.05-1.43.5-2.64,1.49-3.42,2.79-.78,1.3-1.08,2.83-.84,4.33,6.78,45,21.42,150.48,21.04,218.87-.72,88.9,0,123.24,0,123.24h46.3s-8.42-183.77-18.69-239.92c-7.49-39.18-23.07-82.79-36.62-106.4Z"/>
  <path class="cls-4" d="M272.41,1586.89c19.4-43.95,32.23-90.5,38.09-138.18,3.79-32.7-2.99-76.94-13.09-135.95-3.92-21.58-5.88-43.47-5.85-65.41.02-2.44.86-4.81,2.37-6.72,1.51-1.92,3.62-3.28,5.99-3.87,2.37-.59,4.87-.38,7.1.6,2.24.98,4.08,2.67,5.25,4.82,5.6,9.97,21.76,44.02,25.89,65.36,11.2,58.26,23.87,87.38,14.18,142.69-9.68,55.31-45.58,140.42-45.58,140.42l-34.35-3.75Z"/>
  <path class="cls-4" d="M314.08,1590.63s122.06-262.39,130.48-301.33c8.42-38.93,37.25-128.63,40.62-123.53,3.37,5.09,8.42,52.44-13.51,106.62-21.93,54.17-115.96,326.24-115.96,326.24h-41.63"/>
  <path class="cls-10" d="M259.02,1578.89c-1.21-.67-2.35-1.46-3.41-2.36-2.19-1.64-5.47-3.96-9.47-7.2-8.12-6.4-19.53-16.12-32.83-28.96-34.3-33.85-64.02-72.06-88.39-113.64-24.35-41.6-44.6-85.47-60.48-130.98-6.15-17.42-10.61-31.69-13.51-41.58-1.52-4.97-2.53-8.84-3.24-11.45-.45-1.37-.77-2.78-.97-4.21.6,1.25,1.09,2.55,1.47,3.88.93,2.82,2.15,6.61,3.7,11.32,3.2,9.81,7.96,23.95,14.27,41.29,16.36,45.17,36.77,88.78,60.99,130.27,24.36,41.38,53.8,79.56,87.63,113.64,13.09,13,24.24,22.89,32.16,29.46,3.91,3.36,7.11,5.81,9.13,7.57,1.06.9,2.05,1.89,2.95,2.95Z"/>
  <path class="cls-10" d="M272.41,1452.99c-.64-2.52-1-5.1-1.09-7.7-.59-5.43-1.35-12.62-2.27-21.05-1.94-17.76-4.97-42.09-9.26-69.15-4.29-27.06-9.13-51.1-12.88-68.52-1.81-8.42-3.28-15.36-4.46-20.71-.68-2.51-1.13-5.07-1.35-7.66,1,2.4,1.79,4.88,2.36,7.41,1.35,4.84,3.16,11.83,5.26,20.54,4.21,17.38,9.3,41.58,13.64,68.56,4.34,26.98,7.07,51.52,8.42,69.37.72,8.88,1.22,16.12,1.43,21.04.29,2.62.36,5.25.21,7.87Z"/>
  <path class="cls-10" d="M300.99,1240.1c.6,1.05,1.08,2.16,1.43,3.32l3.66,9.76c1.64,4.21,3.49,9.43,5.26,15.62,1.77,6.19,4.21,13.09,5.93,21.05l3.03,12.33c1.01,4.21,1.73,8.84,2.65,13.51,2.02,9.3,3.24,19.4,4.71,30.01,2.63,23.08,3.62,46.31,2.95,69.53-.99,23.23-3.63,46.35-7.91,69.2-2.23,10.44-4.21,20.46-6.82,29.46-1.3,4.59-2.36,9.09-3.66,13.3l-3.91,12.29c-2.32,7.75-5.18,14.52-7.41,20.54-2.23,6.02-4.21,11.11-6.36,15.2l-4.21,9.47c-.44,1.13-1.01,2.2-1.68,3.2.28-1.17.68-2.31,1.18-3.41,1.01-2.44,2.32-5.64,3.91-9.64,1.6-4,3.83-9.26,5.89-15.36s4.84-12.62,7.07-20.58c1.18-3.83,2.4-7.87,3.7-12.08,1.31-4.21,2.27-8.67,3.49-13.26,2.53-9.14,4.21-19.07,6.57-29.46,4.1-22.74,6.66-45.74,7.66-68.82.66-23.08-.24-46.19-2.69-69.15-1.43-10.56-2.57-20.62-4.46-29.92-.88-4.63-1.56-9.18-2.53-13.47-.97-4.29-1.94-8.42-2.86-12.33-1.64-7.87-3.87-14.81-5.51-21.05-1.64-6.23-3.37-11.45-4.84-15.74l-3.16-9.89c-.48-1.17-.85-2.38-1.09-3.62Z"/>
  <path class="cls-10" d="M483.87,1171.03c.05.39.05.78,0,1.18,0,.93-.34,2.02-.55,3.41-.55,2.99-1.22,7.41-2.4,13.05-2.36,11.28-6.31,27.53-12.63,47.23-6.31,19.7-14.4,42.85-24.29,68.23-9.89,25.38-21.3,53.08-32.16,82.54-10.86,29.46-19.49,58.13-27.44,84.18-7.96,26.05-15.4,49.46-22.64,68.78-5.54,15.31-11.93,30.31-19.15,44.91-2.48,5.18-4.76,9.05-6.19,11.74l-1.73,2.99c-.38.67-.59,1.01-.63.97.08-.39.22-.75.42-1.09l1.47-3.12c1.3-2.73,3.41-6.69,5.77-11.95,4.88-10.4,11.53-25.67,18.44-45.08,6.9-19.4,14.31-42.72,22.06-68.82,7.74-26.09,16.29-54.71,27.32-84.18,11.03-29.47,22.39-57.2,32.37-82.54,9.98-25.33,18.48-48.28,24.79-67.89,6.31-19.62,10.48-35.69,13.13-46.89,1.35-5.6,2.19-9.97,2.9-12.96.29-1.34.59-2.44.8-3.32.03-.47.14-.92.34-1.34Z"/>
  <path class="cls-4" d="M107.37,1113.08c-1.67-1.63-3.85-2.66-6.17-2.91-2.32-.25-4.67.27-6.65,1.5-1.99,1.23-3.51,3.09-4.32,5.28-.81,2.19-.87,4.59-.16,6.82,4.17,13.5,9.29,26.7,15.32,39.48,16.84,35.65,66.08,163.65,89.19,233.94,23.11,70.29,55.43,201.44,55.43,201.44l49.29-8s-45.08-215.29-88.98-293.12c-35.4-62.38-70.84-152.53-102.95-184.44Z"/>
  <path class="cls-10" d="M207.93,1441.16c1.08,1.86,1.94,3.84,2.57,5.9,1.43,3.87,3.45,9.51,5.68,16.54,4.55,14.06,10.1,33.67,15.66,55.52,5.56,21.85,10.27,41.71,13.51,56.11,1.47,6.77,2.69,12.62,3.7,17.05.55,2.08.88,4.21,1.01,6.35-.88-1.96-1.56-4-2.02-6.1-1.18-4.51-2.69-10.14-4.5-16.84-3.79-14.81-8.71-34.3-14.23-55.85-5.51-21.55-10.82-41.5-14.9-55.64-1.94-6.69-3.58-12.29-4.88-16.84-.74-2-1.27-4.07-1.6-6.19Z"/>
  <path class="cls-10" d="M274.93,1594.63c-.14-.42-.22-.86-.25-1.31,0-1.05-.34-2.31-.59-3.87-.51-3.41-.97-8.42-2.02-14.94-1.81-12.96-5.01-31.61-10.31-54.38-6.31-26.62-14.01-52.89-23.07-78.71-10.14-29.21-22.81-60.78-37.17-93.44-29-65.2-57.96-123.07-77.02-165.84-9.6-21.38-16.84-38.77-21.97-50.93-2.48-6.06-4.21-10.82-5.51-14.01-.59-1.47-1.01-2.69-1.39-3.66-.19-.42-.32-.85-.38-1.31.26.37.47.76.63,1.18l1.6,3.57c1.47,3.37,3.45,8,6.02,13.85,5.18,11.99,12.88,29.46,22.69,50.51,19.45,42.47,48.7,100.25,77.74,165.58,14.35,32.7,27.02,64.36,37.04,93.69,8.99,25.94,16.53,52.36,22.6,79.13,4.09,18.06,7.27,36.33,9.51,54.71.88,6.49,1.18,11.58,1.56,14.99l.29,3.92c.05.42.05.84,0,1.26Z"/>
  <path class="cls-10" d="M299.47,1590.63c-.78-2.76-1.35-5.57-1.68-8.42-.97-5.77-2.27-13.42-3.83-22.64-3.37-19.11-8.42-45.41-16.04-74.03-7.62-28.62-15.7-54-22.1-72.32-3.11-8.84-5.72-16.12-7.7-21.63-1.09-2.61-1.96-5.3-2.61-8.04,1.4,2.45,2.6,5.01,3.58,7.66,2.1,5.01,5.09,12.29,8.42,21.38,8.91,23.73,16.55,47.9,22.9,72.44,6.37,24.52,11.5,49.34,15.36,74.37,1.39,9.6,2.44,17.38,2.99,22.81.45,2.78.69,5.6.72,8.42Z"/>
  <path class="cls-9" d="M400.66,1583.56h-192.39v234.4h192.39v-234.4Z"/>
  <g class="cls-13">
    <path class="cls-1" d="M400.66,1583.56h-192.39v234.4h192.39v-234.4Z"/>
  </g>
  <path class="cls-9" d="M339.25,1583.56h-170.68v234.4h170.68v-234.4Z"/>
  <path class="cls-7" d="M1524.97,1062.06l-101.14-14.64-202.33,29.92-56.78,20.07,10.06,124.17,194.54,35.82,131.24-38.89,49.63-73.03-25.21-83.42Z"/>
  <path class="cls-6" d="M1588.74,1073.94l-84.69-19.95s-59.81,185.19-207.5,177.07c-120.38-6.52-121.77-140.87-121.77-140.87l-86.75,27.78s-33.21,222.53,3.53,380.2c8.42,36.83,20.08,86.45,20.08,86.45l-11.75,230.36,641.63,1.01-152.79-742.05Z"/>
  <g class="cls-13">
    <path class="cls-1" d="M1337.21,1770.27c31.23-.8,60.02,1.85,91.25,1.09,37.46-.93,75.21-1.85,112.21,4.21,27.7,4.59,54.72,13.01,82.41,17.38,37.88,5.98,78.25,3.87,111.92-14.35l-5.43-31.44-127.87-30.89-264.49,54Z"/>
  </g>
  <path class="cls-6" d="M1015.59,1169.81c29.46-37.88,78.12-53.67,78.12-53.67l32.83,285.75-62.17,416.1-203.63-.97s112.29-592.29,154.85-647.22Z"/>
  <path class="cls-6" d="M1578.85,1071.83s137.05,10.99,186.21,235.71c22.22,101.56,50.51,220.55,58.46,300.57,5.85,58-25.68,148.83-83.51,156.28l-72.73,9.77c-14.26,2.05-28.78,1.53-42.85-1.56-45.92-10.57-50.5-42.09-58.93-75.76l-21.04-67.01c-11.62-63.72,47.77-75.76,80.56-74.88l-24.46-290.89-21.72-192.23Z"/>
  <path class="cls-10" d="M1076.75,1275.04c-.32,1.01-.54,2.05-.64,3.11-.33,2.27-.8,5.31-1.38,9.05-.25,1.98-.59,4.21-.93,6.57-.34,2.36-.51,5.01-.8,7.83-.59,5.6-1.27,11.99-1.56,19.11-.97,16.63-1.09,33.31-.34,49.96,1,20.36,3.03,40.66,6.06,60.82,3.16,21.51,7.12,41.8,11.16,60.15,4.04,18.35,7.96,34.81,11.41,48.61,3.45,13.81,6.35,24.88,8.42,32.54,1.01,3.66,1.81,6.61,2.44,8.79.22,1.04.57,2.06,1.01,3.03-.09-1.06-.29-2.1-.59-3.12-.51-2.27-1.18-5.22-2.02-8.92-1.89-7.96-4.55-19.07-7.83-32.7-3.29-13.64-7.07-30.31-10.9-48.66-3.83-18.35-7.83-38.59-10.94-60.02-3.12-21.42-5.31-42.09-6.23-60.65-.93-18.56-.97-35.61,0-49.75.21-7.11.75-13.47,1.22-19.11.19-2.8.41-5.41.63-7.83.25-2.36.51-4.55.71-6.57.42-3.75.76-6.78.97-9.09.14-1.05.19-2.1.13-3.16Z"/>
  <path class="cls-10" d="M1732.56,1633.65c-.09-1.95-.42-3.89-.97-5.77-1.34-5.07-3.12-10.01-5.3-14.77-7.2-15.89-18.39-29.63-32.49-39.89-14.1-10.26-30.62-16.69-47.95-18.65-5.21-.64-10.46-.8-15.7-.51-1.93.02-3.85.26-5.73.71,7.04.04,14.06.48,21.05,1.31,16.94,2.35,33.03,8.84,46.85,18.9,13.83,10.05,24.96,23.37,32.41,38.76,2.95,6.5,5.57,13.14,7.83,19.91Z"/>
  <path class="cls-10" d="M1700.91,1521.78c-1.09-.28-2.21-.38-3.32-.3-3.02-.05-6.04.08-9.05.42-9.94,1.01-19.68,3.45-28.92,7.24-9.23,3.83-17.88,8.95-25.68,15.2-2.35,1.88-4.59,3.91-6.69,6.06-1.47,1.56-2.23,2.44-2.15,2.57.08.13,3.7-2.94,9.81-7.4,15.88-11.66,34.36-19.26,53.83-22.14,7.45-1.09,12.16-1.26,12.16-1.64Z"/>
  <path class="cls-10" d="M1559.02,1231.06c.31-1.99.42-4.01.34-6.02,0-3.87.25-9.43.71-16.29,2.46-35.88,12.29-70.88,28.88-102.79,3.16-6.1,5.89-10.99,7.87-14.27,1.11-1.67,2.05-3.45,2.82-5.31-1.35,1.5-2.54,3.12-3.58,4.84-2.19,3.2-5.14,7.96-8.42,14.02-17.47,31.81-27.41,67.2-29.05,103.46-.25,6.9-.25,12.63,0,16.37-.06,2,.07,4,.42,5.98Z"/>
  <path class="cls-10" d="M1296.55,1434.9c.09.81.29,1.6.59,2.36.5,1.51,1.14,3.83,2.27,6.61,3.07,8.04,6.88,15.78,11.4,23.11,14.94,24.43,36.62,44.03,62.43,56.42,25.82,12.4,54.66,17.06,83.07,13.44,8.57-1.07,17.02-2.91,25.25-5.51,2.91-.88,5.1-1.85,6.57-2.4.77-.25,1.52-.58,2.23-.97,0-.21-3.24.89-9.05,2.53-8.26,2.32-16.71,3.93-25.25,4.8-28.08,3.31-56.53-1.44-82.02-13.67-25.49-12.24-46.98-31.46-61.97-55.44-4.58-7.21-8.58-14.76-11.95-22.6-2.06-5.55-3.41-8.75-3.58-8.67Z"/>
  <path class="cls-10" d="M1585.37,1750.79c.21-.21,2.36,2.86,7.49,7.07,7.51,5.67,16.11,9.74,25.25,11.95,13.47,3.37,27.39,4.61,41.25,3.66,15.66-1.14,32.96-2.99,50.89-5.64,16.89-2.18,33.52-6.02,49.67-11.45,6.74-2.96,12.91-7.08,18.23-12.16,4.69-4.4,8.92-9.27,12.62-14.52,5.49-7.6,10.19-15.73,14.01-24.29,1.31-3.07,2.32-5.43,2.95-7.07.25-.86.62-1.68,1.1-2.44-.16.87-.39,1.73-.67,2.57-.51,1.72-1.39,4.21-2.61,7.28-3.53,8.78-8.06,17.13-13.51,24.88-3.68,5.39-7.92,10.38-12.63,14.9-5.43,5.29-11.76,9.56-18.69,12.62-16.24,5.65-33.03,9.58-50.09,11.75-18.05,2.69-35.31,4.46-51.1,5.51-14.07.82-28.18-.6-41.8-4.21-9.22-2.38-17.83-6.68-25.25-12.63-1.96-1.69-3.75-3.56-5.34-5.6-.68-.65-1.28-1.38-1.77-2.19Z"/>
  <path class="cls-10" d="M1562.77,1302.61c.55,0,15.03,55.94,32.24,125.31,17.22,69.36,30.72,125.68,30.14,125.85-.59.17-15.03-55.98-32.24-125.35-17.22-69.36-30.73-125.68-30.14-125.81Z"/>
  <path class="cls-10" d="M1545.3,1619.47c-.45-1.5-.69-3.06-.71-4.63-.42-4.19-.52-8.42-.29-12.62.48-6.43,2.61-12.61,6.18-17.97,2.02-3.19,4.38-6.15,7.03-8.84,2.93-2.8,6.2-5.24,9.72-7.24,12.47-6.54,25.96-10.9,39.9-12.88,4.18-.61,8.4-.97,12.62-1.1,1.55-.23,3.12-.23,4.67,0,0,.34-6.61.59-17.09,2.49-13.63,2.35-26.81,6.8-39.06,13.22-3.38,1.92-6.52,4.24-9.34,6.9-2.56,2.57-4.84,5.38-6.82,8.42-3.48,4.99-5.66,10.78-6.31,16.84-.37,4.2-.5,8.41-.38,12.62.14,1.6.1,3.21-.13,4.8Z"/>
  <g class="cls-13">
    <path class="cls-1" d="M1083.07,1463.73c-34.98-59.22-35.74-136.16-5.22-197.82-9.77,65.7-7.66,132.62,6.23,197.57"/>
  </g>
  <path class="cls-7" d="M1138.84,1729.36c11.03-20.79,97.02-75.76,97.02-75.76l-23.28-5.39-25.72,10.86c-1.95,8.71-5.72,16.92-11.07,24.07-9.43,13.47-25.47-.46-25.47-.46l10.86-52.07,50.85-30.6s47.81,7.32,55.56,11.03l20.37,18.64c8.96,7.03,34.81,34.68,41.88,35.53,7.07.84,229.18-49.04,229.18-49.04,30.43,24.12,46.3,71.97,51.27,106.53,0,0,5.43,16.83-.47,26.18l-272.45,21.38-57.75,15.95c-15.46,6.4-31.3,11.84-47.43,16.29-19.2,4.21-32.12-2.14-32.66-12.62s14.4-11.79,14.4-11.79c12.74-4.57,25.15-10.03,37.12-16.33,8.77-5.84,15.99-13.73,21.05-22.98l-20.58,2.44s-43.78,30.39-60.23,39.31c-16.46,8.92-19.7-7.45-21.05-12.62-1.34-5.18,49.16-54.34,49.16-54.34,0,0-48.02,29.46-56.65,37.04-8.63,7.57-21.42,9.72-24.16,4.71-2.73-5.01-10.73-5.18.25-25.97Z"/>
  <path class="cls-3" d="M1375.64,1734.16c.24-1.11.33-2.24.25-3.37.05-1.32-.03-2.65-.25-3.96-.17-1.75-.5-3.48-.97-5.18-2.73-9.83-7.48-18.99-13.93-26.9-6.29-7.93-13.34-15.24-21.05-21.8-3.02-2.89-6.34-5.45-9.89-7.66,2.8,3.08,5.78,5.99,8.92,8.71,7.33,6.82,14.14,14.18,20.37,22.01,6.31,7.7,11.11,16.53,14.14,26.01,2.19,7.32,1.98,12.16,2.4,12.12Z"/>
  <path class="cls-3" d="M1237.83,1652.05c4.93.72,9.95.28,14.67-1.31,4.72-1.59,9-4.27,12.48-7.83-.34-.46-5.6,3.45-13.13,5.9-7.54,2.44-14.02,2.65-14.02,3.24Z"/>
  <path class="cls-3" d="M1223.52,1709.04c14.82-4.65,29.21-10.57,43.02-17.68-7.52,1.99-14.84,4.64-21.89,7.92-7.3,2.65-14.38,5.92-21.13,9.77Z"/>
  <path class="cls-3" d="M1269.65,1738.16c3.88-.89,7.64-2.23,11.2-4,3.83-1.11,7.5-2.68,10.94-4.67-8.03.82-15.69,3.82-22.14,8.67Z"/>
  <path class="cls-3" d="M1230.72,1712.82c3.09,2.13,5.91,4.62,8.42,7.41,2.03,3.19,3.67,6.61,4.88,10.18.25,0,.51-1.38,0-3.57-.51-2.85-1.7-5.53-3.45-7.83-1.74-2.3-4.01-4.14-6.61-5.39-1.9-.92-3.24-1.01-3.24-.8Z"/>
  <path class="cls-3" d="M1210.43,1681.04c-.3.51,3.49,2.57,5.97,6.9,1.27,2.78,2.29,5.67,3.07,8.63.61-1.61.8-3.35.56-5.06-.24-1.71-.91-3.33-1.95-4.7-2.82-4.88-7.57-6.31-7.66-5.77Z"/>
  <path class="cls-3" d="M1217.25,1624.22c.25,0,1.01-.84,1.64-2.73.65-2.49.65-5.1,0-7.58-.61-2.5-1.85-4.79-3.62-6.65-1.39-1.39-2.53-1.9-2.69-1.68,1.76,2.76,3.18,5.73,4.21,8.84.6,3.23.75,6.53.47,9.81Z"/>
  <path class="cls-10" d="M1612.06,1756.68c-.28-2.08-.39-4.18-.34-6.27,0-2.02,0-4.46-.29-7.32-.3-2.86-.25-6.1-.67-9.64-1.58-18.68-5.58-37.07-11.91-54.72-3.56-9.64-7.86-18.98-12.88-27.95-2.53-4.21-4.71-7.96-7.24-11.36-1.18-1.72-2.36-3.36-3.49-4.96-1.14-1.6-2.36-3.03-3.49-4.21-9.05-11.15-15.99-16.83-15.66-17.17,1.76,1.12,3.4,2.44,4.88,3.92,1.9,1.59,3.7,3.29,5.39,5.09,1.98,2.06,4.21,4.21,6.61,7.16,1.14,1.43,2.36,2.86,3.62,4.21,1.26,1.35,2.4,3.24,3.66,4.97,2.61,3.41,4.88,7.36,7.45,11.4,5.2,9.01,9.62,18.44,13.22,28.2,6.39,17.78,10.23,36.37,11.41,55.22.29,3.58.25,6.86.34,9.73.08,2.86,0,5.34,0,7.36.02,2.13-.18,4.26-.59,6.36Z"/>
  <g class="cls-13">
    <path class="cls-1" d="M1705.54,1562.01c-25.55-10.55-53.69-13.12-80.73-7.36,23.24-1.07,46.23,5.14,65.77,17.78,19.54,12.63,34.64,31.05,43.2,52.68,1.94,5.22,5.81,11.4,11.36,10.61,5.56-.8,7.07-7.24,7.07-12.42.04-27.23-21.55-50.8-46.68-61.28Z"/>
  </g>
  <path class="cls-12" d="M1074.98,1255.77c-1.26-.23-2.48-.64-3.62-1.22-2.31-.88-5.56-2.36-9.51-4.21-10.32-5.16-20.18-11.2-29.46-18.06-9.25-6.83-17.89-14.43-25.84-22.73-3.03-3.2-5.43-5.89-6.95-7.79-1.51-1.9-2.36-3.03-2.23-3.16.12-.12,3.96,3.79,10.27,9.85,8.2,7.91,16.91,15.29,26.05,22.09,9.18,6.75,18.78,12.89,28.75,18.4,7.91,4.33,12.79,6.52,12.54,6.82Z"/>
  <path class="cls-12" d="M1561,1271.63c-.32.29-.67.53-1.05.72l-3.24,1.94c-2.82,1.73-7.12,4.21-12.63,6.99-15.8,8.11-32.19,15.02-49.04,20.66-25.02,8.28-50.68,14.44-76.73,18.44-31.89,4.75-64.06,7.42-96.3,7.99-34.3.8-66.97,0-96.81-.5-26.33-.37-52.62-2.35-78.71-5.94-17.6-2.5-34.95-6.53-51.85-12.04-5.94-2.02-10.52-3.7-13.55-5.01l-3.45-1.47c-.41-.14-.81-.32-1.18-.55l1.27.34,3.53,1.26c3.07,1.18,7.7,2.73,13.68,4.63,16.93,5.14,34.24,8.93,51.77,11.32,26.05,3.33,52.28,5.14,78.54,5.43,29.46.55,62.3,1.14,96.51.33,32.15-.56,64.23-3.18,96.05-7.83,25.96-3.86,51.57-9.84,76.56-17.89,16.83-5.5,33.25-12.16,49.16-19.95,5.6-2.78,9.94-5.01,12.62-6.61l3.33-1.72c1.09-.42,1.47-.59,1.51-.55Z"/>
  <path class="cls-12" d="M1076.59,1421.64c-1.78-.16-3.53-.53-5.22-1.09l-14.01-3.83c-11.79-3.32-28.03-8.08-45.96-13.43-17.93-5.34-34.09-10.35-45.8-14.05l-13.81-4.46c-1.71-.5-3.37-1.14-4.97-1.94,1.78.16,3.53.53,5.22,1.1l14.01,3.83c11.79,3.32,28.03,8.08,45.96,13.42,17.93,5.34,34.09,10.31,45.8,14.02l13.81,4.5c1.72.47,3.38,1.12,4.97,1.94Z"/>
  <path class="cls-12" d="M1088.83,1654.27c0,.55-42.09-11.49-93.86-26.94-51.77-15.45-93.4-28.46-93.23-29.04.17-.59,42.09,11.45,93.86,26.94,51.77,15.49,93.4,28.45,93.23,29.04Z"/>
  <path class="cls-12" d="M1697.16,1150.96c-1.41,1.37-2.96,2.6-4.63,3.66-3.03,2.23-7.57,5.34-13.26,9.05-29.73,19.23-61.61,34.9-95,46.68-6.4,2.23-11.62,3.92-15.28,4.97-1.85.67-3.77,1.16-5.72,1.43,1.75-.91,3.58-1.65,5.47-2.23l15.03-5.6c12.63-4.84,29.93-11.99,48.45-21.05,18.52-9.05,34.77-18.39,46.3-25.46l13.64-8.42c1.57-1.17,3.25-2.18,5.01-3.03Z"/>
  <path class="cls-12" d="M1781,1390.11c-2.19,1.25-4.47,2.33-6.82,3.24-4.42,1.98-10.98,4.59-19.15,7.58-42.68,15.54-87.5,24.46-132.88,26.43-8.71.38-15.74.47-20.62.3-2.52.05-5.03-.06-7.53-.34,2.5-.38,5.01-.55,7.53-.51,4.84,0,11.87-.42,20.54-1.01,22.55-1.43,44.97-4.34,67.13-8.71,22.15-4.45,43.98-10.33,65.37-17.59,8.21-2.82,14.82-5.22,19.36-6.95,2.28-1.01,4.65-1.83,7.07-2.44Z"/>
  <path class="cls-12" d="M1660.04,1772.63c-.03-.79.03-1.58.21-2.36.25-1.72.63-3.91,1.05-6.61.42-2.69,1.05-6.4,1.47-10.52.42-4.13,1.14-8.76,1.31-13.97,0-2.57.34-5.31.51-8.12.17-2.82,0-5.81,0-8.84,0-6.1-.25-12.63-.59-19.49-1.11-14.86-3.37-29.61-6.78-44.11-3.57-14.47-8.26-28.64-14.01-42.39-2.86-6.23-5.43-12.25-8.42-17.59-1.43-2.69-2.73-5.34-4.21-7.83l-4.21-6.99c-2.57-4.55-5.35-8.42-7.58-11.83-2.23-3.41-4.21-6.35-6.1-8.67l-3.96-5.43c-.51-.6-.93-1.27-1.27-1.98.59.51,1.12,1.08,1.6,1.69l4.21,5.22c2.29,2.69,4.44,5.5,6.44,8.42,2.36,3.41,5.22,7.2,7.88,11.7l4.21,6.99c1.47,2.44,2.82,5.14,4.21,7.83,3.03,5.34,5.72,11.36,8.42,17.64,12.13,27.58,19.25,57.09,21.05,87.17.25,6.9.63,13.47.38,19.61,0,3.07,0,6.06-.25,8.92-.25,2.86-.42,5.56-.63,8.17-.29,5.26-1.14,9.89-1.68,14.01-.55,4.12-1.18,7.66-1.81,10.48-.63,2.82-1.09,4.84-1.47,6.61.1.75.11,1.52.04,2.27Z"/>
  <path class="cls-12" d="M1822.42,1643.63c-.21,0-.34-3.45-1.31-9.51-1.48-8.56-4.33-16.83-8.42-24.5-5.99-11.38-14.05-21.55-23.78-29.97-11.85-10.4-25.58-18.43-40.45-23.66-14.95-5-30.57-7.72-46.34-8.08-12.9-.36-25.81.13-38.64,1.47-10.98,1.01-19.87,2.14-26.01,2.82l-7.07.76c-.82.11-1.66.11-2.49,0,.77-.29,1.58-.47,2.4-.55l7.03-1.18c6.1-.97,14.99-2.27,25.97-3.54,12.9-1.54,25.9-2.18,38.89-1.94,15.98.32,31.82,3.06,46.97,8.12,15.13,5.36,29.08,13.59,41.08,24.24,9.84,8.64,17.92,19.09,23.83,30.77,3.99,7.92,6.6,16.46,7.7,25.25.33,2.37.5,4.76.51,7.16.13.76.17,1.54.12,2.32Z"/>
  <path class="cls-12" d="M1369.62,1521.77c-.78.24-1.59.38-2.4.42l-6.86.71-25.25,2.11c-21.34,1.64-50.85,3.66-83.42,5.34-32.58,1.68-62.17,2.73-83.6,2.99h-32.11c-.81.02-1.61-.06-2.4-.25.79-.16,1.59-.23,2.4-.21h6.86l25.25-.64c21.34-.63,50.89-1.89,83.47-3.62l83.42-4.71,25.25-1.43,6.9-.3c.81-.25,1.64-.39,2.49-.42Z"/>
  <g class="cls-13">
    <path class="cls-1" d="M1394.07,1530.53c26.52,7.79,63.14,9.68,89.11,0-20.2,28.75-59.22,39.15-93.1,29.8-33.88-9.34-65.07-43.22-67.69-78.29,16.42,22.09,45.16,40.61,71.68,48.48Z"/>
  </g>
  <path class="cls-12" d="M1609.11,1502.79c-.69.26-1.41.46-2.14.59l-6.1,1.31c-5.34,1.1-13.05,2.53-22.64,4.21-19.15,3.37-45.71,7.49-75.13,11.11-29.42,3.62-56.23,5.98-75.76,7.32-9.68.67-17.55,1.14-22.98,1.34l-6.23.21c-.72.12-1.46.12-2.19,0,.7-.18,1.42-.29,2.14-.34l6.23-.63,22.9-2.06c19.36-1.73,46.05-4.21,75.51-7.96,29.46-3.75,55.94-7.49,75.13-10.44l22.73-3.54,6.23-.88c.75-.22,1.53-.3,2.31-.25Z"/>
  <g class="cls-13">
    <path class="cls-1" d="M1565,1315.4c-6.65,76.19,14.1,151.78,34.68,225.44.92,4.58,2.84,8.89,5.64,12.63,1.44,1.87,3.45,3.22,5.73,3.84,2.28.63,4.69.51,6.89-.35,6.44-3.29,5.56-12.63,3.75-19.53l-57.2-218.87"/>
  </g>
  <path class="cls-2" d="M499.27,1391.29l86.49,424.69h750.89c3.97,0,7.78-1.58,10.6-4.39,2.81-2.81,4.39-6.62,4.39-10.6s-1.58-7.79-4.39-10.6c-2.81-2.81-6.63-4.39-10.6-4.39h-151.19l-80.18-394.97c-.75-3.68-2.74-6.99-5.63-9.38-2.9-2.39-6.52-3.71-10.28-3.75l-573.86-6.27c-2.45-.03-4.87.49-7.09,1.51-2.22,1.03-4.18,2.54-5.74,4.43-1.56,1.89-2.67,4.09-3.27,6.47-.59,2.37-.65,4.85-.15,7.25Z"/>
  <path class="cls-10" d="M499.27,1391.29c-.11-.42-.19-.84-.25-1.27-.16-1.29-.16-2.59,0-3.87.3-2.54,1.17-4.97,2.55-7.13,1.38-2.15,3.23-3.96,5.41-5.29,1.54-.91,3.22-1.57,4.97-1.94,1.94-.36,3.92-.49,5.89-.38h13.51l33.67.3,216.98,2.06,151.27,1.52,84.77.88,44.45.46,22.69.21h5.81c2.02.2,3.99.77,5.81,1.68,3.76,1.76,6.74,4.83,8.42,8.63.73,1.86,1.26,3.79,1.56,5.76l1.18,5.73c.76,3.79,1.56,7.62,2.32,11.45,1.6,7.7,3.16,15.45,4.75,23.19l9.6,47.27c6.48,31.85,13.11,64.44,19.87,97.77,13.55,66.59,27.66,135.83,42.09,207.21l-1.01-.84h148.67c1.96-.09,3.92.02,5.85.34,4.02,1,7.52,3.49,9.76,6.99,1.28,1.86,2.15,3.96,2.56,6.17.41,2.22.36,4.49-.17,6.68-.52,2.19-1.5,4.24-2.87,6.03-1.37,1.79-3.1,3.27-5.08,4.34-2.18,1.18-4.6,1.83-7.07,1.9h-752.07v-.63c-26.48-130.48-47.98-236.72-62.88-310.29-7.36-36.79-13.13-65.41-17.05-84.86-1.94-9.72-3.41-17.13-4.21-22.14-.8-5.01-1.39-7.58-1.39-7.58,0,0,.59,2.57,1.64,7.53l4.63,22.06c3.99,19.44,9.89,48.06,17.46,84.77l63.56,310.21-.8-.67h751.39c2.15-.08,4.25-.65,6.15-1.64,1.72-.94,3.22-2.24,4.41-3.8,1.19-1.56,2.03-3.35,2.49-5.26.45-1.91.5-3.89.13-5.82s-1.12-3.76-2.24-5.37c-1.98-2.9-4.99-4.93-8.42-5.68-1.79-.28-3.61-.4-5.43-.33h-149.97v-.8c-14.48-71.55-28.5-140.67-42.09-207.25-6.76-33.28-13.37-65.87-19.83-97.78l-9.85-47.9c-1.56-7.79-3.12-15.49-4.67-23.19-.8-3.83-1.56-7.66-2.36-11.49l-1.14-5.68c-.27-1.86-.77-3.69-1.47-5.43-1.4-3.35-3.96-6.1-7.2-7.75-1.62-.8-3.37-1.32-5.18-1.51h-5.64l-22.73-.25-44.45-.51-84.73-1.01-151.28-1.77-216.97-2.65-33.68-.46-13.51-.21c-1.94-.12-3.89-.02-5.81.3-1.7.38-3.33,1.02-4.84,1.89-2.17,1.28-4.01,3.03-5.39,5.13-1.38,2.1-2.25,4.5-2.56,6.99-.21,1.65-.21,3.32,0,4.97Z"/>
  <path class="cls-12" d="M845.26,1585.79c0,4.9-1.45,9.7-4.18,13.78-2.72,4.07-6.6,7.26-11.13,9.13-4.53,1.88-9.51,2.37-14.33,1.41-4.81-.96-9.23-3.32-12.69-6.78-3.47-3.47-5.83-7.89-6.79-12.69-.95-4.81-.46-9.8,1.41-14.32,1.88-4.53,5.05-8.4,9.13-11.13,4.07-2.72,8.87-4.18,13.77-4.18,6.58,0,12.88,2.61,17.53,7.26,4.65,4.65,7.27,10.95,7.27,17.53Z"/>
  <path class="cls-10" d="M499.95,1394.74h39.39l107.38.51,354.19,2.48,51.22.42h12.62c2.15-.1,4.31.02,6.44.38,2.16.42,4.21,1.25,6.06,2.44,3.75,2.37,6.48,6.07,7.62,10.36.97,4.21,1.64,8.08,2.48,12.12,6.36,31.99,12.62,62.84,18.31,92.22,11.62,58.93,22.1,111.75,30.85,156.24l20.67,105.23c2.36,12.42,4.21,22.05,5.51,28.66.59,3.24,1.05,5.72,1.39,7.49.34,1.77.38,2.53.38,2.53,0,0-.25-.84-.59-2.48-.34-1.64-.92-4.21-1.6-7.45-1.34-6.61-3.32-16.21-5.89-28.58-5.05-24.92-12.29-60.86-21.3-105.23l-31.31-156.15c-5.85-29.46-12.04-60.23-18.4-92.22-.84-3.96-1.6-8.08-2.44-11.95-1.04-3.78-3.46-7.04-6.77-9.13-1.65-1-3.48-1.69-5.39-2.02-1.99-.33-4-.44-6.02-.34h-12.62l-51.22-.38-354.23-3.12-107.33-1.18-29.21-.42h-7.57l-2.61-.42Z"/>
  <path class="cls-10" d="M1502.75,749.75c.86,39.27-6.6,78.28-21.89,114.45-15.29,36.18-38.07,68.71-66.84,95.45-13.27-38.3-26.51-76.6-39.69-114.9"/>
  <path class="cls-10" d="M1203.74,521.2c34.05-18.6,75.17-21.29,113.22-13.68,38.05,7.62,73.49,24.83,107.08,44.28,18.86,10.9,37.63,22.9,51.18,39.9,24.7,31.1,49.16,82.2,51.52,122.06,1.94,32.07-10.36,112.34-23.91,141.46-12.42,26.73-70.62,47.1-99.37,53.71l-263.65-306.84c4.76-17.05,12.87-32.98,23.85-46.86,10.98-13.89,24.6-25.46,40.09-34.03Z"/>
  <path class="cls-10" d="M1158.28,562.54l63.13-11.28c-34.55,82.29-43.94,270.43-63.68,357.47-23.32-33.67-77.4-136.79-74.5-177.75,2.9-40.96.17-175.39,75.04-168.45Z"/>
  <path class="cls-7" d="M1458.01,699.5c-3.41-48.06-34.56-87.46-81.23-99.37l-145.59-37.13c-62.88-6.77-104.89,70.58-109.01,133.72-4.59,70.16-7.41,144.16.8,196.52,16.46,105.22,97.1,118.86,97.1,118.86v80.82l48.7,201.65,156.95-216.85,32.5-376.88c.13-1.85-.21,1.05-.21-1.35Z"/>
  <path class="cls-10" d="M1153.78,776.23c-.03,3.52,1.31,6.91,3.73,9.46,2.43,2.55,5.76,4.04,9.28,4.17,1.72.14,3.44-.07,5.08-.61,1.63-.54,3.15-1.4,4.45-2.54,1.3-1.13,2.35-2.52,3.11-4.06.75-1.55,1.2-3.23,1.29-4.95.03-3.51-1.3-6.9-3.72-9.44-2.42-2.55-5.74-4.05-9.25-4.19-1.72-.14-3.45.06-5.1.6-1.64.54-3.16,1.4-4.46,2.54-1.31,1.13-2.37,2.52-3.12,4.07-.76,1.55-1.2,3.24-1.3,4.96Z"/>
  <path class="cls-10" d="M1138.12,737.93c1.68,1.77,11.91-5.77,26.43-5.73,14.52.04,25.25,7.36,26.73,5.6.8-.8-.93-3.96-5.56-7.36-6.27-4.37-13.74-6.69-21.38-6.65-7.55-.03-14.92,2.33-21.05,6.73-4.63,3.45-6.14,6.61-5.18,7.41Z"/>
  <path class="cls-10" d="M1280.38,776.23c-.03,3.52,1.31,6.91,3.73,9.46,2.43,2.55,5.76,4.04,9.28,4.18,1.72.14,3.45-.06,5.1-.61s3.16-1.4,4.46-2.54c1.3-1.14,2.36-2.53,3.11-4.08.75-1.56,1.18-3.25,1.27-4.98.03-3.51-1.3-6.9-3.72-9.44-2.42-2.55-5.74-4.05-9.25-4.19-1.73-.14-3.46.06-5.11.6-1.64.54-3.16,1.41-4.47,2.55-1.3,1.14-2.36,2.53-3.12,4.08-.75,1.56-1.19,3.25-1.28,4.98Z"/>
  <path class="cls-10" d="M1275.88,737.93c1.69,1.77,11.95-5.77,26.48-5.72,14.52.04,25.25,7.36,26.73,5.6.76-.8-.93-3.96-5.56-7.36-6.24-4.33-13.66-6.64-21.25-6.65-7.54-.01-14.91,2.34-21.04,6.73-4.63,3.45-6.15,6.61-5.35,7.4Z"/>
  <path class="cls-10" d="M1230.72,851.99c0-.8-8.97-2.4-23.61-4.21-3.71-.38-7.2-1.14-7.83-3.66-.3-3.84.58-7.67,2.53-10.99,3.51-8.95,7.19-18.37,11.03-28.24,15.32-40.15,26.39-73.19,24.79-73.78-1.6-.59-15.36,31.44-30.68,71.55-3.71,9.88-7.23,19.33-10.57,28.37-2.35,4.47-3.05,9.63-1.98,14.56.54,1.32,1.36,2.49,2.42,3.42,1.06.94,2.32,1.63,3.68,2.01,2.04.59,4.15.88,6.27.88,14.52.84,23.65.92,23.95.08Z"/>
  <path class="cls-3" d="M1359.68,974.6s-34.26,72.43-139.57,62.21v-24.75c49.09.67,97.41-12.29,139.57-37.46Z"/>
  <path class="cls-10" d="M1280.47,685.44c1.43,3.96,15.91,2.11,32.96,4.21,17.05,2.1,30.81,6.77,33.08,3.24,1.01-1.73-1.39-5.43-6.94-9.26-7.37-4.73-15.78-7.61-24.5-8.42-8.71-1.06-17.55-.05-25.8,2.95-6.27,2.32-9.43,5.39-8.8,7.28Z"/>
  <path class="cls-10" d="M1142.71,693.48c2.53,3.32,12.63,0,24.58-.21,11.95-.21,22.22,2.27,24.58-1.18,1.01-1.68-.59-4.97-5.01-8.12-5.98-3.74-12.93-5.63-19.97-5.43-7.05.2-13.88,2.49-19.63,6.57-4.29,3.37-5.68,6.78-4.55,8.38Z"/>
  <path class="cls-10" d="M1150.75,600.55c6.44-15.83,23.83-25.25,40.87-26.18,17.05-.92,33.67,5.6,48.57,14.14,62.67,36.24,94.92,123.75,156.83,161.25,15.24,9.22,35.06.75,48.02,12.96,12.97,12.21,21.34,31.74,14.19,48.02,8.87-11.01,16.11-23.24,21.51-36.32,4.71-13.34,5.3-28.79-1.77-41.04-5.34-9.3-14.81-16.37-17.38-26.77-2.32-9.18,1.31-18.73.92-28.16-1.07-9.58-4.37-18.78-9.64-26.85-24.29-42.89-57.67-81.7-100.64-105.86-28.06-16.2-60-24.45-92.39-23.87-32.58.73-63.82,13.11-88.05,34.89-13.85,12.92-28.41,26.27-21.05,43.78Z"/>
  <path class="cls-7" d="M1443.53,775.77c1.1-3.03,56.02-22.81,56.74,35.52.71,56.7-56.48,45.54-56.61,43.9-.13-1.64-.13-79.42-.13-79.42Z"/>
  <path class="cls-3" d="M1460.95,833.56c.25,0,.97.67,2.66,1.43,2.38.95,5.03.95,7.4,0,5.94-2.23,10.9-11.83,11.07-22.01.12-4.87-.86-9.7-2.86-14.14-.56-1.76-1.53-3.36-2.85-4.67-1.31-1.3-2.92-2.27-4.68-2.82-1.13-.3-2.33-.18-3.38.32-1.06.5-1.9,1.35-2.39,2.42-.75,1.6-.38,2.73-.71,2.82-.34.08-1.22-.92-.76-3.28.31-1.39,1.08-2.64,2.19-3.54.76-.6,1.63-1.04,2.57-1.3.93-.26,1.91-.33,2.87-.21,2.33.43,4.52,1.46,6.34,2.99,1.82,1.52,3.22,3.49,4.05,5.72,2.48,4.87,3.71,10.28,3.58,15.75-.25,11.44-5.98,22.18-14.18,24.62-1.51.46-3.1.57-4.66.33-1.56-.24-3.05-.83-4.35-1.72-1.81-1.31-2.1-2.57-1.9-2.69Z"/>
  <path class="cls-4" d="M1466.09,746.64c-1.19-.53-2.33-1.17-3.41-1.9-2.19-1.39-5.55-3.24-9.51-6.06-11.18-8.17-21.45-17.51-30.64-27.87-13.37-15.49-25.86-31.73-37.42-48.61-13.93-20.7-29.57-40.18-46.76-58.25-9.18-9.03-19.31-17.03-30.22-23.87-10.22-6.23-21.16-11.21-32.57-14.82-19.38-6.21-39.76-8.71-60.06-7.36-13.7.83-27.23,3.48-40.24,7.87-4.67,1.43-8.12,2.99-10.52,3.92-1.19.55-2.43.98-3.7,1.31,1.12-.67,2.29-1.27,3.49-1.77,3.37-1.62,6.84-3.02,10.39-4.21,13-4.83,26.62-7.78,40.45-8.75,20.55-1.68,41.22.61,60.91,6.73,11.64,3.59,22.79,8.59,33.21,14.9,11.07,6.93,21.36,15.05,30.68,24.2,17.3,18.25,32.99,37.96,46.89,58.93,11.43,16.89,23.74,33.18,36.87,48.78,9.01,10.37,19,19.85,29.84,28.28,3.87,2.9,7.11,4.88,9.18,6.4,1.11.63,2.16,1.34,3.16,2.15Z"/>
  <path class="cls-12" d="M1467.39,843.58c2.79-.52,5.67.05,8.06,1.59,2.39,1.53,4.1,3.92,4.78,6.67.69,2.75.3,5.66-1.08,8.14-1.38,2.48-3.66,4.33-6.36,5.19-2.7.86-5.64.66-8.19-.57-2.56-1.23-4.56-3.38-5.58-6.03-1.03-2.65-1-5.58.06-8.21,1.06-2.63,3.09-4.75,5.67-5.95"/>
  <path class="cls-10" d="M1464.74,844.41c-2.44,1.97-4.21,4.62-5.09,7.62-.41,1.55-.42,3.17-.03,4.72.38,1.55,1.15,2.98,2.22,4.16,1.27,1.49,2.94,2.58,4.82,3.12,1.88.54,3.88.52,5.75-.07,1.87-.59,3.51-1.72,4.74-3.24,1.23-1.52,1.98-3.37,2.15-5.32.17-1.57-.04-3.16-.63-4.63-.59-1.47-1.53-2.77-2.73-3.79-2.41-1.93-5.34-3.08-8.42-3.29,0,0,.84-.59,2.65-.63,2.57.02,5.05.89,7.07,2.48,1.57,1.17,2.82,2.72,3.62,4.52.8,1.79,1.12,3.76.93,5.71-.16,2.44-1.05,4.78-2.56,6.7-1.51,1.93-3.56,3.35-5.9,4.09-2.33.74-4.83.76-7.18.06-2.34-.7-4.42-2.09-5.96-3.99-1.28-1.48-2.15-3.27-2.53-5.19-.38-1.92-.27-3.9.34-5.76.67-2.45,2.15-4.61,4.21-6.1,1.47-1.14,2.48-1.31,2.53-1.18Z"/>
  <path class="cls-10" d="M1451.82,762.67c.88,15.49,1.6,31.82-5.56,45.58-7.15,13.77-25.25,23.15-38.64,15.45-10.98-6.27-14.27-20.37-16.16-32.87-5.35-36.11-7.83-72.6-13.51-108.68l73.87,80.52Z"/>
  <path class="cls-4" d="M1164.72,573.61c0,.29,5.01-.97,14.06-1.27,12.84-.19,25.6,2.13,37.54,6.86,8.24,3.19,16.11,7.26,23.49,12.12,8.45,5.67,16.55,11.86,24.24,18.52,17.84,15.08,33.78,32.27,47.48,51.18,7.2,10.1,13.6,20.5,20.5,30.13,6.56,9.37,14.18,17.95,22.73,25.55,14.7,12.46,30.77,23.2,47.9,32.03,14.52,7.66,26.64,13.05,35.02,16.84l9.68,4.21c1.12.55,2.29.97,3.49,1.26-1-.72-2.07-1.33-3.2-1.81l-9.47-4.67c-8.42-4.21-20.16-9.77-34.43-17.64-16.82-9.06-32.6-19.92-47.06-32.41-8.34-7.52-15.78-16-22.14-25.25-6.78-9.51-13.14-19.91-20.42-30.14-13.85-19.12-30.02-36.44-48.15-51.56-7.86-6.68-16.12-12.86-24.75-18.52-7.58-4.86-15.66-8.89-24.12-11.99-12.24-4.64-25.31-6.67-38.39-5.97-3.53.2-7.03.7-10.48,1.47-1.22.18-2.41.54-3.53,1.05Z"/>
  <path class="cls-4" d="M1453.38,727.65c1.53,1.32,3.21,2.45,5.01,3.37l14.4,8.42,4.8,2.73c1.89,1.15,4.02,1.86,6.23,2.06,1.34.14,2.69-.16,3.83-.88.61-.43,1.11-.99,1.48-1.63.36-.65.58-1.37.63-2.11-.12-2.6-1.05-5.1-2.66-7.16l-16.83-26.68-2.27,2.06c11.11,8.18,24.73,12.25,38.51,11.49,1.76-.01,3.51-.31,5.18-.88.93-.31,1.79-.8,2.51-1.46.73-.66,1.31-1.47,1.7-2.37.32-.96.4-1.99.23-2.98-.17-1-.58-1.94-1.2-2.74-.94-1.29-2.01-2.48-3.2-3.54-7.48-7.24-13.98-15.43-19.32-24.37-4.71-8.4-8.81-17.12-12.29-26.09.27,2.61.87,5.17,1.81,7.62,2.12,6.81,4.94,13.38,8.42,19.61,5.18,9.29,11.64,17.79,19.2,25.25,2.1,2.02,4.21,4.21,3.41,6.1-.8,1.9-3.92,2.69-6.9,2.69-6.48.33-12.97-.46-19.19-2.32-6.2-1.82-12.04-4.66-17.3-8.42l-6.73-4.97,4.5,7.03,16.84,26.48c1.31,1.58,2.14,3.51,2.4,5.55,0,1.6-1.43,2.53-3.24,2.4-3.64-.72-7.1-2.15-10.18-4.21l-14.82-7.57c-1.55-1-3.2-1.83-4.92-2.49Z"/>
  <path class="cls-3" d="M1285.73,878.68c-1.06-4.31-3.6-8.11-7.17-10.75-3.58-2.63-7.97-3.92-12.4-3.64-3.24.4-6.32,1.59-8.98,3.48-2.66,1.89-4.81,4.41-6.25,7.33-1.41,2.95-2.22,6.14-2.37,9.4-.15,3.26.35,6.52,1.48,9.58l.34,1.34c3.02,3.26,6.98,5.5,11.32,6.43,4.34.93,8.87.49,12.96-1.25,4-1.93,7.26-5.12,9.26-9.08,2.01-3.97,2.64-8.48,1.81-12.85Z"/>
  <path class="cls-10" d="M1239.81,895.85c0-2.19,14.69-1.51,25.76-13.55,11.07-12.03,10.19-27.78,12.25-27.78.92,0,2.69,3.62,2.52,10.27-.3,8.6-3.62,16.81-9.38,23.19-5.56,6.14-13.28,9.89-21.55,10.44-6.06.25-9.73-1.56-9.6-2.57Z"/>
  <path class="cls-12" d="M1734.62,1787.83c-.32.04-.65.04-.97,0l-2.95.29-11.24.93c-9.77.8-23.91,1.73-41.42,2.78-34.98,2.06-83.34,4.21-136.79,5.09-53.45.88-101.94.38-136.96-.55-17.51-.42-31.69-.93-41.46-1.35l-11.28-.59h11.28l41.5.72c35.02.5,83.42.75,136.88,0,53.45-.76,101.77-2.78,136.75-4.46l41.46-2.06,11.28-.51h2.9l1.01-.29Z"/>
</svg>
