<?xml version="1.0" encoding="UTF-8"?>
<svg id="Layer_1" data-name="Layer 1" xmlns="http://www.w3.org/2000/svg" viewBox="0 0 1754.76 1800.69">
  <defs>
    <style>
      .cls-1 {
        fill: #e0e0e0;
      }

      .cls-1, .cls-2, .cls-3, .cls-4, .cls-5, .cls-6, .cls-7, .cls-8 {
        stroke-width: 0px;
      }

      .cls-2 {
        fill: #455a64;
      }

      .cls-3 {
        fill: #f5f5f5;
      }

      .cls-4 {
        fill: #09f;
      }

      .cls-9 {
        opacity: .35;
      }

      .cls-5 {
        fill: #ebebeb;
      }

      .cls-6 {
        fill: #e30613;
      }

      .cls-7 {
        fill: #263238;
      }

      .cls-8 {
        fill: #3f3b3c;
      }
    </style>
  </defs>
  <g>
    <g>
      <path class="cls-8" d="M1704.16,1433.3c.38,8.24.32,5.28.4,6.52-.66-13.79-.4-6.17-.4-6.52Z"/>
      <path class="cls-8" d="M1664.56,1304.91l1.34,2-1.38-2.1-1.5-2.01-3.02-4.01-3.01-4.01-3.25-3.83,2.86,3.36c.92,1.15,1.78,2.35,2.67,3.52l5.29,7.08Z"/>
      <path class="cls-8" d="M1566.98,1225.23c2.65,1.42,6.57,3.39,11.2,5.86,2.28,1.29,4.75,2.68,7.35,4.14,1.29.74,2.65,1.45,3.98,2.27,1.33.82,2.68,1.65,4.04,2.49,1.37.84,2.75,1.7,4.15,2.56.7.43,1.4.86,2.1,1.3.7.44,1.37.92,2.06,1.38,2.74,1.87,5.5,3.74,8.22,5.59,2.68,1.91,5.23,3.91,7.73,5.78,1.24.95,2.49,1.85,3.65,2.79,1.15.97,2.27,1.91,3.35,2.82l2.84,2.43c1.3,1.1,2.67,2.12,3.92,3.29l3.78,3.46c-10.05-9.44-22.61-19.2-35.05-27.26-12.48-8.02-24.67-14.52-33.33-18.89Z"/>
      <path class="cls-8" d="M1504.3,1199.31c1.97.7-1.5-.47-1.86-.59.18.06.47.16,2.87.97,2.44.86,6.78,2.22,13.92,4.9-1.44-.54-1.85-.69-2.69-1-2.57-.98-6.15-2.19-12.24-4.27Z"/>
      <path class="cls-8" d="M1516.54,1203.59c12.59,4.63-8.22-3.07,0,0h0Z"/>
      <path class="cls-8" d="M1457.47,1185.11l8.51,2.36c2.84.78,5.67,1.57,8.49,2.42-.88-.27-2.49-.75-4.3-1.3-1.83-.52-3.88-1.1-5.64-1.6-3.52-1-5.9-1.67-3.08-.89-2.18-.61-4.03-1.12-5.59-1.56-1.56-.41-2.82-.74-3.8-1-.99-.26-1.7-.44-2.17-.56-.23-.06-.41-.1-.53-.13-.12-.03-.18-.04-.18-.04-.01,0,.19.06.58.17.39.11.96.26,1.69.46,1.46.41,3.55.94,6.03,1.66Z"/>
      <path class="cls-8" d="M1441.28,1180.9l8.85,2.32c-1.55-.42-3.88-1.05-8.85-2.32Z"/>
      <path class="cls-8" d="M1468.83,1188.34c-6.24-1.71-12.45-3.51-18.71-5.11,2.46.7,2.73.75,8.6,2.31-1.54-.39,2.16.61,10.11,2.81Z"/>
      <path class="cls-8" d="M1479.36,1191.47c4.75,1.39,10.15,3.14,12.26,3.84,2.11.7.94.31-7.52-2.32,4.03,1.27,7.47,2.36,10.36,3.27,2.89.91,5.22,1.64,6.99,2.26,3.56,1.2,4.97,1.67,4.39,1.46-.59-.2-3.16-1.13-7.61-2.61-2.23-.71-4.93-1.58-8.08-2.58-1.57-.5-3.26-1.04-5.05-1.61-1.81-.54-3.72-1.11-5.74-1.71Z"/>
      <path class="cls-8" d="M1561.06,1222.53c4.02,1.83,7.9,3.93,11.82,5.94,1.69.88,3.42,1.7,5.09,2.62l5,2.79c-1.25-.7-3.26-1.83-5.57-3.13-2.35-1.21-5-2.58-7.47-3.86-4.91-2.61-9.24-4.55-8.87-4.37Z"/>
      <path class="cls-8" d="M1350.52,1159.72c-1.08-.2,5.78,1.33,7.06,1.64l12.74,2.74c-6.54-1.45-18.91-4.18-19.8-4.38Z"/>
      <path class="cls-8" d="M1357.58,1161.37l-19.08-4.04c17.03,3.64,20.15,4.31,19.08,4.04Z"/>
      <path class="cls-8" d="M1438.19,1180.28c5.18,1.29,10.34,2.68,15.51,4.02,5.16,1.37,10.3,2.83,15.45,4.24-12.27-3.43-24.57-6.75-36.94-9.77l5.99,1.51Z"/>
      <polygon class="cls-8" points="1277.7 1144.13 1288.52 1146.41 1269.26 1142.31 1277.7 1144.13"/>
      <path class="cls-8" d="M1229.53,1133.24c7.97,1.84-10.88-2.71-2.46-.73-13.05-3.11-24.17-5.83-34.16-8.38,10.61,2.73,21.94,5.55,36.63,9.11Z"/>
      <path class="cls-8" d="M1176.15,1119.73c5.27,1.48,10.78,2.82,16.75,4.39-5.63-1.49-11.19-2.86-16.75-4.39Z"/>
      <path class="cls-8" d="M1306.02,1150.4c-1.48-.33-4.31-.95-14.99-3.3l7.48,1.7c2.29.49,4.88,1.04,7.51,1.6Z"/>
      <path class="cls-8" d="M1298.77,1148.85l-.26-.06c-8.13-1.76-13.78-2.98-16.19-3.5,2.08.45,7.03,1.52,16.46,3.56Z"/>
      <path class="cls-8" d="M1307.91,1150.8c-.69-.15-1.21-.26-1.89-.4.72.16,1.16.26,1.89.4Z"/>
      <path class="cls-8" d="M1388.48,1168.32c-11.18-2.51-34.54-7.5-11.97-2.5,8.04,1.73-4.87-1.2,11.97,2.5Z"/>
      <path class="cls-8" d="M1317.2,1152.89l20.25,4.33c-.39-.11-4.04-.92,1.51.24l-21.77-4.57Z"/>
      <polygon class="cls-8" points="1307.28 1150.8 1317.2 1152.89 1309.69 1151.29 1307.28 1150.8"/>
      <path class="cls-8" d="M1210.46,1128.73c-4.34-1.08-8.88-2.21-13.68-3.4-4.78-1.25-9.82-2.57-15.17-3.98,5.73,1.5,11.54,3.08,17.35,4.56,5.82,1.45,11.6,2.95,17.25,4.31,1.6.35,6.57,1.54-5.75-1.49Z"/>
      <path class="cls-8" d="M1253.29,1138.86c-.6-.13-1.38-.31-1.94-.43,1.19.28,2.15.49,1.94.43Z"/>
      <path class="cls-8" d="M1078.13,1088.01c.56.23,1.05.43,1.62.66.13.05.22.08.38.14l-2-.79Z"/>
      <path class="cls-8" d="M1218.14,1130.7c8.65,2.11,13.83,3.33,18.78,4.44-6.49-1.48-13.35-3.15-20.71-4.92-.72-.16-.86-.19,1.93.48Z"/>
      <path class="cls-8" d="M1146.96,1111.45c4.45,1.31,9.49,2.8,14.79,4.36-4.35-1.28-13.21-3.9-14.79-4.36Z"/>
      <path class="cls-8" d="M1248.43,1137.75c.44.1.83.18,1.3.29-2.84-.66-2.49-.57-1.3-.29Z"/>
      <path class="cls-8" d="M1248.43,1137.75c-4.47-1.01-7.98-1.81-11.51-2.61,5.28,1.22,10.18,2.36,14.43,3.29-1.07-.25-2.15-.5-2.92-.68Z"/>
      <path class="cls-8" d="M1047.49,1075.85c1.42.66,22.95,9.9,41.89,16.95,18.68,6.84,6.54,2.15-9.63-4.13-.29-.1-.44-.14-2.9-1.09-1.23-.48-3.03-1.19-5.72-2.24-1.34-.53-2.91-1.14-4.73-1.86-1.81-.76-3.87-1.63-6.23-2.62.82.35,2.09.9,3.65,1.57.78.33,1.63.7,2.54,1.08.92.37,1.88.75,2.89,1.15,4.01,1.6,8.57,3.43,12.43,4.97,7.76,2.93,12.67,4.77,4.56,1.81-25.3-9.73-20.64-8.2-32.78-13.32,5.14,2.22-2.85-1.02-11.28-4.9-2.12-.95-4.27-1.92-6.27-2.81-2-.91-3.8-1.81-5.29-2.51-2.96-1.41-4.54-2.15-3.23-1.47,7.09,3.54,14.35,6.73,21.57,10,.4.21-7.47-3.33-1.46-.58Z"/>
      <path class="cls-8" d="M1116.41,1101.88l8,2.61c-9.13-2.95-15.61-5.24-27.51-9.51-13.14-4.84-15.86-5.84-16.77-6.18,3.2,1.29,6.47,2.43,9.7,3.65,3.24,1.19,6.47,2.43,9.72,3.58l9.79,3.41,4.89,1.7,4.92,1.61-2.74-.88Z"/>
      <path class="cls-8" d="M1160.56,1115.52c-3.17-.9-9.61-2.73-13.77-3.91-4.15-1.25-6.03-1.79-.12.08,23.72,6.93,16.65,4.75,30.88,8.68-38.43-10.64,11.04,3.06-16.69-4.75,7.54,2.14,14.34,3.99,20.76,5.73-6.93-1.9-13.6-3.74-19.86-5.54.35.1.59.18.88.26l.18.05h-.04c1.65.48,2.19.63.33.1-.13-.04-.59-.17-.8-.23-.27-.07-.97-.27-1.74-.47-11.08-3.25-1.74-.53,1.74.47.13.03.43.11.47.12-.04-.01-.09-.03-.14-.04-12.79-3.68-25.56-7.45-38.21-11.59,2.01.66,4.14,1.36,6.49,2.13,2.36.73,4.94,1.53,7.83,2.42,2.89.88,6.08,1.9,9.69,2.96,3.61,1.05,7.63,2.22,12.13,3.53Z"/>
      <path class="cls-8" d="M1355.65,1161.46c-1.21-.27-1.15-.26-1.24-.29-2.53-.53-3.49-.73,1.24.29Z"/>
      <path class="cls-8" d="M1339.59,1157.96c2.85.6,5.22,1.06,14.45,3.06,8,1.75-.05.03.37.15,5.57,1.17,19.48,4.15,2.05.33l-2.77-.58c-15.72-3.42-35.91-7.8-33.16-7.23,4.57,1.05,8.61,1.96,19.07,4.27Z"/>
      <path class="cls-8" d="M1248.57,1138.05l-16.21-3.73-16.18-3.86,16.46,4.02-.83-.24c18.42,4.3,14.46,3.32,16.76,3.81Z"/>
      <path class="cls-8" d="M1074.61,1086.56l4.13,1.54c-5.96-2.34-11.96-4.56-17.85-7.09,2.28.94,4.53,1.95,6.83,2.84l6.88,2.71Z"/>
      <path class="cls-8" d="M1034.93,1069.49c.49.22.99.4,1.48.6-3.45-1.59-6.85-3.29-10.28-4.92l8.8,4.32Z"/>
      <path class="cls-8" d="M47.69,963.79c.16,3.25.39,6.5.58,9.76-.27-4.62-.45-7.59-.58-9.76Z"/>
      <path class="cls-8" d="M45.37,893.08l-.06-1.73c.06,3.28.09,4.62.06,1.73Z"/>
      <path class="cls-8" d="M650.04,127.24c-2.89-6.52-6.14-13.33-8.68-18.27-2.53-4.94-4.27-8.04-3.88-7.27l2,3.9c4.67,8.8,7.9,15.73,10.56,21.64Z"/>
      <path class="cls-8" d="M137.08,323.85c.49-1.26,1.01-2.57,1.52-3.88,1.25-3.23,2.42-6.26,3.47-8.97-1.49,3.86-3.26,8.22-4.99,12.85Z"/>
      <path class="cls-8" d="M133.84,333.37l-3.28,8.79-3.2,8.82c.72-1.98,1.59-4.39,2.64-7.31,1.08-2.91,2.35-6.31,3.84-10.3Z"/>
      <path class="cls-8" d="M119.44,1342.03l2.01,5.34,2.08,5.31c-1.6-4.16-2.61-6.83-3.22-8.52-.63-1.68-.89-2.36-.97-2.58-.17-.41.37,1.11.1.45Z"/>
      <path class="cls-8" d="M775.75,732.16c-3.12-11.88-5.4-21.39-7.4-29.74,3.37,14.41,6.35,25.97,7.4,29.74Z"/>
      <path class="cls-8" d="M45.51,936.01c.22,5.98.39,8.53.39,8.35-.29-6.15-.41-9.63-.39-8.35Z"/>
      <path class="cls-8" d="M760.57,667.81c.45,2.12.88,4.2,1.34,6.35,1.93,8.77,3.9,17.59,6.44,28.26-2.51-10.64-5.21-22.86-7.77-34.61Z"/>
      <path class="cls-8" d="M1359.84,1776.17c1-.21,2.2-.47,3.1-.67.3-.08-1.08.22-3.1.67Z"/>
      <path class="cls-8" d="M1684.54,1556.24c-.73,1.88-1.66,4.36-2.88,7.01-1.19,2.66-2.44,5.6-3.75,8.41.68-1.35,1.45-3.22,2.57-5.71,1.09-2.5,2.55-5.62,4.07-9.71Z"/>
      <path class="cls-8" d="M893.27,970.54c6.34,6.6,1.01,1.04,0,0h0Z"/>
      <path class="cls-8" d="M925.64,1001.12c-1.51-1.23-2.66-2.17-2.85-2.3.59.48,1.58,1.28,2.85,2.3Z"/>
      <path class="cls-8" d="M743.16,578.17c-.04-.27-.08-.48-.13-.78.43,2.69.36,2.23.13.78Z"/>
      <path class="cls-8" d="M903,980.29c-1.23-1.2-2.55-2.49-3.95-3.86-.7-.68-1.42-1.39-2.16-2.11-.73-.73-1.45-1.5-2.2-2.28,1.27,1.4,3.83,3.88,8.31,8.25Z"/>
      <path class="cls-8" d="M901.7,978.97c2.26,2.2,4.04,3.93,5.73,5.58.84.79.11.07-5.73-5.58Z"/>
      <path class="cls-8" d="M884.62,961.18c1.76,1.94,3.46,3.81,5.11,5.64,1.65,1.83,3.35,3.52,4.96,5.23-1.24-1.3-1.76-1.85-1.42-1.5-1.89-1.91-4.44-4.7-8.65-9.37Z"/>
      <path class="cls-8" d="M618.51,1721.97c.58.18,1.24.4,1.87.6,8.84,2.71,4.96,1.51-1.87-.6Z"/>
      <path class="cls-8" d="M467.13,1.09c.43-.02.65-.03,1.04-.04-.43.01-.97.03-1.35.05h.31Z"/>
      <path class="cls-8" d="M434.51,4.95c6.88-1.28,12.33-2.03,17.36-2.61,2.52-.25,4.93-.55,7.38-.74,2.45-.17,4.93-.33,7.58-.51l-5.44.25c-1.81.08-3.63.17-5.43.34l-5.39.64c-1.79.23-3.58.53-5.37.79-3.59.49-7.14,1.19-10.69,1.84Z"/>
      <path class="cls-8" d="M65.69,1132.15c-.63-3.8-1.2-7.61-1.78-11.42-.59-3.81-1.16-7.62-1.69-11.44,1.01,6.9,2.09,13.31,2.94,18.72.91,5.4,1.65,9.8,2.13,12.67,1.04,5.73.92,5.36-.79-5.35-.43-1.59-4.09-23.75-7.05-46.02-2.99-22.26-5.32-44.59-5.58-46.18-.5-5.06-.99-10.11-1.43-15.17.41,4.35.46,5.05.9,9.34-1.36-14.76-1.86-20.23-2.47-26.79-.58-6.55-1.3-14.16-2.5-33.22-.8-13.29-1.16-22.57-.69-13.51-.54-9.87-1.02-19.75-1.39-29.63-.3-8.62-.18-6.52.12,2.07-.59-15.07-.93-30.14-1.12-45.22v.34c-.12-6.45-.27-21.08-.23-28.22.09-11.49,0,5.77.05,2.83,0-8.35.07-16.7.17-25.05.28-10.2-.13,10.56-.12,27.86.14-11.71.2-16.89.3-25.47.16-8.58.19-20.55,1.31-45.77-.3,7.88-.59,15.76-.78,23.64.59-15.24,1.18-33.69,2.9-60.37-.1,1.58-.37,5.71-.69,10.59-.28,4.88-.61,10.52-.87,15.11-.46,9.18-.74,14.17-.19.59.2-3.83.43-8.26.71-13.57.31-5.31.67-11.49,1.09-18.81.01-.02.04-.25.08-.69.03-.44.08-1.08.15-1.9.11-1.64.28-3.99.48-6.91.44-5.82,1-13.86,1.76-22.79l.03,1.23c1.61-19.3,1.45-17.78,2.5-29.13,2.19-21.48,2.92-25.9,3.55-30.95,4.21-34.32-3.08,23.68,1.9-16.94,3.78-28.5,6.64-48.5,12.55-82.39,3.64-19.8-.55,3.48.77-3.62,1.01-5.86,2.11-11.7,3.19-17.55.83-4.29.6-2.89.47-2.19,1.45-7.38,1.48-7.69,1.72-9.05.23-1.37.69-3.78,3.09-15.36.6-3.13,3.17-14.99,6.63-29.57,3.44-14.59,7.84-31.89,11.6-46.02,1.91-6.95-.83,3.38-.21,1.27,2.59-9.69,4.52-16.6,6.07-22,1.52-5.41,2.7-9.32,3.78-13.01,1.08-3.7,2.14-7.17,3.52-11.68,1.36-4.52,3.12-10.07,5.62-17.92,2.96-8.88,5.98-17.74,9.15-26.54-6.86,19.45,1.46-5.56,9.72-27.13-2.69,6.81-4.89,12.66-6.35,16.59,4.17-11.55,8.63-23,13.22-34.4,1.72-4.11.32-.67-1.88,4.96.9-2.34,1.83-4.54,2.52-6.27,5.05-12.17,2.52-5.82-1,2.94-1.72,4.15-3.36,8.29-4.99,12.3-1.59,4.26-3.12,8.39-4.18,11.23-1.03,2.85-1.55,4.42-1.19,3.54.8-2.26,2.45-6.56,4.25-11.3-.83,2.23-1.36,3.66-.95,2.63.47-1.16,1.78-4.77,3.99-10.38,1.08-2.57,2.13-5.16,3.24-7.73l.72-1.9c6.09-14.86,12.55-29.58,19.41-44.1,7.28-15.62,14.46-30.06,23.37-46.45,9.01-16.32,19.65-34.68,35.2-57.21-7.59,11.26-1.51,2.5-1.84,3.17-4.26,6.13-10.13,14.95-16.55,25.42-6.41,10.47-13.38,22.56-20.12,35.04,3.51-6.51,4.97-9.01,5.26-9.49.29-.48-.55,1.06-1.46,2.7,8.14-14.76,16.78-29.25,25.98-43.38-.54,1.01,5.9-8.98,13.62-19.7-2.94,4.04,2.37-3.76,10.41-14.28,4.01-5.27,8.75-11.19,13.35-16.73,2.3-2.78,4.62-5.41,6.73-7.89,2.13-2.46,4.16-4.67,5.86-6.59.45-.45-.13.25-2.93,3.4-1.41,1.56-3.33,3.78-5.9,6.8-2.61,2.99-5.78,6.88-9.75,11.74,8.75-10.73,14.68-17.43,20.6-24.05,3.02-3.25,5.99-6.54,9.52-10.1,1.75-1.8,3.6-3.7,5.68-5.69,2.07-2,4.27-4.19,6.79-6.46-2.27,2.07-3.94,3.72-5.3,5.05-1.35,1.33-2.37,2.33-3.24,3.18,5.05-5.08,14.06-13.5,21.32-19.65,3.64-3.06,6.76-5.65,8.62-7.07,1.85-1.45,2.36-1.84.76-.55-1.59,1.28-3.21,2.51-4.76,3.84,7.86-6.46,18.06-14.25,29.46-21.7,11.36-7.5,23.99-14.48,36.05-20.12,12.06-5.66,23.56-9.89,32.41-12.69,8.85-2.83,15.02-4.3,16.48-4.7.2-.04-1.08.33-2.71.77-1.64.42-3.58,1.08-4.77,1.41,11.63-3.31,23.5-5.76,35.5-7.4,11.99-1.63,24.11-2.55,36.23-2.3-3.2-.04,1.34.24,2.45.4.56.08.26.12-2.28.08-1.27-.05-3.1-.01-5.67,0-1.28.02-2.75,0-4.43.05-1.67.07-3.55.14-5.66.22,4.83-.19,10.25-.34,17-.11,6.75.17,14.84.76,24.91,2.36-1.63-.27-3.46-.56-5.15-.84-1.69-.23-3.25-.43-4.32-.58-2.14-.3-2.34-.37,2.14.13,6.14.81,10.24,1.59,13.42,2.27,3.2.59,5.43,1.26,7.88,1.83,1.22.28,2.47.65,3.89,1.07,1.42.43,3.03.84,4.92,1.47,3.76,1.27,8.77,2.88,15.72,6.02-4.53-1.98-4.26-1.93-1.05-.61.8.33,1.79.74,2.92,1.22,1.13.5,2.39,1.12,3.78,1.78,1.39.66,2.9,1.38,4.46,2.24,1.56.86,3.25,1.69,4.92,2.71-1.06-.61-.81-.4-.9-.39-.09,0-.56-.19-3.08-1.54,2.89,1.47,5.64,3.19,8.45,4.82,2.71,1.78,5.48,3.47,8.09,5.4,2.68,1.83,5.21,3.86,7.79,5.83,2.48,2.09,5.03,4.11,7.4,6.32-7.32-6.4-1.27-1.14,4.9,4.99-.72-.71.44.39,2.65,2.6,1.07,1.14,2.41,2.55,3.92,4.14,1.49,1.61,3.07,3.47,4.77,5.38,6.69,7.73,13.63,17.57,16.48,21.9-3.06-4.57-6.2-9.09-9.57-13.44,6.69,8.72,11.14,15.64,14.77,21.4,1.78,2.91,3.39,5.51,4.81,8.02.72,1.25,1.42,2.46,2.11,3.65.66,1.21,1.31,2.39,1.96,3.58,1.32,2.36,2.56,4.76,3.88,7.32,1.35,2.54,2.65,5.29,4.15,8.33,2.9,6.12,6.3,13.54,10.36,23.68-1-2.45-2.33-5.43-2.33-5.24,0,.09.33.98,1.19,3.13.85,2.15,2.19,5.57,4.16,10.76,1.86,4.73,5.9,15.25,10.53,29.34,4.62,14.09,9.78,31.75,14.45,50.51.59,2.4,1.12,4.82,1.69,7.22,2.32,9.61,4.54,19.24,6.61,28.91-2-9.01-5.91-26.15-10.71-44.33-4.77-18.18-10.58-37.35-15.16-50.73,2.54,7.83,2.87,8.93,3.5,11.01.61,2.08,1.64,5.11,5.07,16.95,1.15,4.2.24.96-1.28-4.17-1.51-5.14-3.69-12.16-4.79-15.61,5.78,18.24,10.8,36.72,15.3,55.32-.23-1.26,2.41,9.4,4.82,20.16,2.44,10.75,4.68,21.59,4.52,20.51-4.23-20.36-8.94-40.62-14.3-60.7-.28-1.23,2.2,7.44,5.66,21.44,3.48,14,7.8,33.35,11.7,53.32,1.93,10.17-1.72-7.55-1.63-6.71.55,2.58,2.46,12.05,4.2,21.35,1.76,9.3,3.39,18.43,3.69,20.27l-3.15-16.98c4.04,22.29,6.69,36.37,10.9,63.27,1.49,9.28,4.18,27.75,4.5,29.34-2.19-15.17-2.19-18.21-.5-8.13.24,1.63,2.07,13.83,4.03,26.95,1.91,13.13,3.95,27.18,4.72,32.49,2.16,15.33-3.7-22.94-1.87-9.89.12.56,1.42,9,1.96,12.53,1.42,9.77-.71-4.03,2.46,17.19.65,3.52,6.45,43.15,1.61,10.01,3.15,20.74,3.26,22.06,7.03,46.41-1.11-7.76,3.65,21.82,7.18,42.54-.24-1.22.5,3.45.85,5.7,3.58,21.2,6.5,37.47,9.51,53.35,3.02,15.87,6.13,31.37,10.46,50.95.4,1.81,1.64,7.43,2.57,11.6.96,4.16,1.57,6.87.6,2.87,1.35,5.61,2.58,10.76,5.6,22.76,2.9,11.61,1.18,4.94-.69-2.44-1.86-7.38-3.8-15.47-1.72-6.58.22.75,2.14,8.52,4.69,18.19,2.53,9.68,5.76,21.26,8.28,29.7-.71-2.62-3.54-12.39-6.58-23.7-3.04-11.3-6.25-24.14-8.31-32.72,0,0,.05.1.11.32.06.23.15.56.27,1,.23.89.57,2.2,1.01,3.9.88,3.42,2.15,8.39,3.76,14.64,3.25,12.49,8,30.02,14.21,50.03,2.49,7.95,4.05,12.76,5,15.62.93,2.86,1.21,3.76,1.23,3.84.02.17-1.03-2.93-.11-.18,4.96,14.83,8.91,25.27,12.11,33.4,3.18,8.14,5.66,13.97,8.03,19.47,2.39,5.5,4.7,10.67,7.84,17.39,3.18,6.69,7.08,14.98,13.21,26.43,9.85,18.1.26.92,2.4,4.96-6.58-11.87-11.15-21.23-15.13-29.66-3.91-8.46-7.23-15.99-10.77-24.48,2.91,6.96,5.87,13.91,9.05,20.75-1.84-3.9-4.59-10-7.27-16.3-1.34-3.15-2.69-6.33-3.88-9.33-1.21-2.99-2.33-5.75-3.2-8.06,3.11,8.04,12.78,32.71,27.01,59.49,7.05,13.41,15.32,27.28,23.91,40,8.55,12.75,17.57,24.24,25.43,33.4,1.4,1.63,3.06,3.54,4.76,5.35,1.69,1.82,3.29,3.66,4.67,5.04,2.71,2.8,4.08,4.19,1.67,1.65l-2.64-2.75-2.57-2.82c-1.71-1.88-3.44-3.75-5.08-5.7-2.27-2.67-2.23-2.65-1.09-1.35,1.14,1.31,3.37,3.91,5.6,6.29,1.1,1.2,2.17,2.38,3.06,3.35.91.95,1.64,1.7,2.01,2.08.77.75.06.11-3.2-3.46,14.07,14.86,30.84,30.66,53.78,48.13l4.23,3.38c-.25-.2-3.98-3.06-8.45-6.51-1.12-.86-2.29-1.75-3.46-2.65-1.17-.9-2.29-1.87-3.39-2.77-2.21-1.82-4.26-3.5-5.83-4.79,2.34,1.89,5.59,4.65,9.42,7.73,3.9,2.99,8.31,6.38,12.76,9.78,4.57,3.23,9.17,6.49,13.3,9.41,4.21,2.8,7.99,5.21,10.76,6.99l-8.43-5.57c-1.42-.91-2.79-1.88-4.16-2.87l-4.12-2.93c2.1,1.47,4.27,2.99,6.49,4.55,2.28,1.48,4.61,2.99,6.99,4.53,2.38,1.54,4.81,3.12,7.28,4.72,2.52,1.52,5.08,3.06,7.68,4.62,2.6,1.54,5.2,3.19,7.9,4.71,2.7,1.52,5.43,3.04,8.17,4.58,5.45,3.16,11.16,6.01,16.8,9-5.12-2.75-6.43-3.43-8.45-4.49-1.01-.55-2.23-1.12-4.13-2.22-1.91-1.09-4.55-2.6-8.49-4.85,3.41,1.97,1.55.95-2.81-1.49-2.2-1.18-4.93-2.89-7.96-4.71-3.02-1.85-6.34-3.81-9.55-5.82-3.17-2.07-6.27-4.1-8.99-5.87-1.36-.89-2.61-1.71-3.73-2.44-1.12-.72-2.05-1.43-2.84-1.96-3.11-2.18-3.39-2.35,1.74,1.33-3.79-2.71-7.32-5.24-10.8-7.72-.87-.62-1.74-1.24-2.6-1.86-.84-.65-1.69-1.3-2.54-1.94-1.69-1.3-3.4-2.6-5.14-3.94-1.74-1.33-3.52-2.69-5.35-4.1-1.8-1.45-3.62-2.99-5.55-4.58-3.83-3.2-8.06-6.58-12.5-10.74.27.27,1.86,1.72,1.39,1.31-.23-.21-.98-.87-2.67-2.38-.84-.76-1.92-1.72-3.29-2.94-.68-.61-1.44-1.29-2.27-2.04-.85-.73-1.73-1.58-2.68-2.52-.7-.67-2.35-2.25-3.4-3.25-.47-.46-.63-.62-1.04-1.01.31.3.53.52.84.83-.67-.64-.73-.7.31.31,1.82,1.79,3.48,3.4,4.82,4.72,1.39,1.27,2.47,2.24,3.09,2.81-.99-.89-2.29-1.98-3.73-3.33-1.42-1.37-3.04-2.93-4.79-4.62-1.75-1.69-3.64-3.52-5.59-5.41-.49-.47-.98-.95-1.48-1.43-.48-.5-.96-1-1.45-1.5-.97-1.01-1.95-2.02-2.93-3.04-7.81-8.16-15.07-16.97-18.7-21.45-7.78-10.07,3.3,4.18-.92-1.34-1.76-2.27-3.57-4.5-5.28-6.81-1.7-2.31-3.45-4.59-5.11-6.93-.23-.36-1.54-2.28-3.13-4.57-1.6-2.27-3.33-5.01-4.58-6.87-1.23-1.87-1.91-2.93-1.25-1.96.33.49,1,1.48,2.11,3.13,1.11,1.65,2.63,3.97,4.81,7.02-5.14-7.37-10.06-14.9-14.67-22.62-8.29-13.55-18.31-32.98-23.97-45.2-5.44-11.5-12.94-29.42-8.59-19.22-5.53-12.98-10.61-26.14-15.33-39.43l-.11-.38c-13.9-39.38-25.5-82.14-35.48-128.83-2.99-13.74-5.97-27.97-10.29-51.09l-.76-4.52c-1.67-8.87-4.02-22.22-6.07-34.32-2.02-12.1-3.83-22.93-4.47-26.76-1.48-9.64-4.82-31.28-8.38-54.45-3.47-23.19-7.17-47.9-9.52-63.6l-.28-1.17c-3.23-21.62-6.36-42.35-10.7-69.15l.18,1.66c-3.79-23.09-9.67-59.39-17.23-95.63.56,2.46,2.43,11.66,3.67,18.18-4.15-21.72-9.08-44.53-14.75-66.64-5.65-22.11-12.03-43.5-18.63-62.45-3.34-9.43-5.98-16.17-8.58-22.69.35.86.67,1.63.94,2.3-.36-.96-.96-2.36-1.55-3.8-1.65-4.1-3.44-8.28-5.43-12.79.86,1.91,1.64,3.81,2.43,5.61.78,1.8,1.51,3.53,2.16,5.15-2.96-7.12-7.7-17.83-12.98-28.02-.71-1.47-1.41-2.94-2.17-4.38-.44-.82-.8-1.48-1.26-2.33-1.31-2.49-2.3-4.2-2.94-5.31-.64-1.11-.94-1.62-.98-1.66-.07-.08.91,1.72,2.37,4.35-1.45-2.5-2.8-4.91-4.11-7.11-1.34-2.18-2.56-4.18-3.64-5.93-2.4-3.89-6.45-10.25-11.22-16.6-4.73-6.38-10.13-12.78-14.29-17.44-.67-.7-1.79-1.88-3.26-3.41-1.45-1.54-3.36-3.33-5.45-5.4-4.29-4.01-9.69-8.72-15.39-12.99-5.72-4.24-11.7-8.01-16.62-10.83-2.5-1.32-4.67-2.54-6.44-3.4-1.78-.83-3.09-1.45-3.78-1.78-.34-.19-3.38-1.68,2.19,1.03-11.45-5.74-23.68-9.76-34.87-12.25-1.75-.47-3.53-.8-5.29-1.21-9.16-1.7-18.45-2.64-27.74-2.95-8.47-.38-14.48-.14-16.25-.11-.89.02-.72,0,.73-.08.72-.03,1.76-.08,3.15-.14,1.39-.01,3.12-.02,5.23-.04-5.09-.05-9.41.2-13.16.34-3.74.3-6.91.46-9.66.76-2.75.3-5.11.55-7.24.78-2.12.29-4.03.56-5.88.81-.93.13-1.84.26-2.77.39-.92.16-1.85.32-2.82.48-1.92.34-3.98.66-6.33,1.12-2.34.49-4.98,1.05-8.09,1.7-1.54.38-3.2.79-5,1.23-1.8.43-3.74.91-5.81,1.52l1.61-.53c-1.49.42-3.09.86-4.76,1.33-.84.23-1.69.47-2.56.72-.86.27-1.74.55-2.62.83-1.77.56-3.57,1.13-5.37,1.71-1.79.61-3.57,1.26-5.32,1.87-6.99,2.48-13.26,5.12-16.69,6.58-6.35,2.72-17.3,7.71-30.45,15.42-6.6,3.81-13.69,8.37-21.06,13.52-7.4,5.12-14.97,10.98-22.59,17.31-3.83,3.14-7.58,6.5-11.4,9.87-1.87,1.73-3.75,3.47-5.63,5.22-1.89,1.74-3.71,3.58-5.57,5.37-7.38,7.25-14.6,14.81-21.42,22.56-6.81,7.75-13.33,15.6-19.37,23.35-6,7.78-11.68,15.36-16.73,22.65,2.02-2.78,1.85-2.49.42-.45-.71,1.02-1.74,2.48-2.95,4.21-1.19,1.75-2.57,3.78-4.02,5.91-1.47,2.12-2.94,4.4-4.38,6.6-1.43,2.21-2.86,4.33-4.06,6.28-2.43,3.86-4.25,6.79-4.58,7.41-2.19,3.51-7.33,11.96-1.42,2.09-9.38,15.49-15.95,27.41-21.68,38.17-5.73,10.77-10.51,20.46-15.83,31.77-1.83,3.72,3.24-7.04,1.63-3.72-1.21,2.64-4.9,10.4-6.46,13.84-1.56,3.34,2.14-4.85,4.6-10.03-7.88,16.73-11.83,26.12-14.09,31.57-2.24,5.45-2.81,6.96-3.24,8.23-7.24,17.28-10.54,26.04-15.16,38.75-1.15,3.05-2.68,7.12-2.92,7.75-.12.31.07-.25.77-2.24.73-1.98,1.98-5.38,3.96-10.77-2.28,6.05-9.1,24.57-14.81,41.95-2.88,8.68-5.52,17.05-7.44,23.35-1.96,6.28-3.13,10.49-3.21,10.81-1.22,3.86-5.08,17.34-5.97,20.62-.97,3.49-1.83,6.59-2.6,9.38-.75,2.8-1.42,5.3-2.04,7.6-1.24,4.6-2.22,8.4-3.19,12.19-.98,3.79-1.94,7.56-3.05,12.13-1.14,4.56-2.42,9.91-4.04,16.84l1.84-7.68c-2.45,10.97-5.41,23.05-10.08,45.52l.12-.64c-2.69,12.88-4.18,20.74-5.19,26.06-1.03,5.31-1.49,8.09-2,10.84-.49,2.75-.97,5.49-1.9,10.72-.92,5.24-2.28,12.99-4.34,25.81l.53-2.78c-.26,2.41-2.12,13.76-4.23,28.27-2.13,14.51-4.43,32.19-6.09,47.17.44-3.6.84-7.2,1.31-10.8-.95,8.17-2.3,19.6-3.56,31.04-1.23,11.45-2.39,22.91-3.07,31.15-.31,3.59.42-5.68.89-10.69-1.01,10.77-1.43,16.52-1.69,19.57-.1,1.53-.16,2.38-.2,2.85-.03.47-.02.56,0,.57.02.01.08-.32-.02,1.36-.11,1.68-.37,5.36-.92,13.4-.45,5.93.31-7.66-1.09,14-.36,5.4-1.22,21.12-1.87,39.2-.67,18.08-1.06,38.52-1.25,53.33.14-6.53.25-13.01.13,1.97-.08,11.48-.1,27,.11,42.24.19,15.24.7,30.2,1.17,40.56.11,2.92.14,4.02.14,4.14.36,8.77,1.12,23.01,1.97,36.37.9,13.36,1.88,25.84,2.38,31.1.13,2.02.37,5.24.7,9.32.37,4.08.82,9.01,1.32,14.48,1.09,10.93,2.48,23.98,4.04,36.48,1.55,12.51,3.19,24.48,4.47,33.29.64,4.41,1.17,8.03,1.53,10.54.18,1.25.32,2.23.42,2.89.09.66.13,1,.1.97,2.76,17.79,5.85,35.52,9.31,53.18l-.3-1.38c3.28,16.94,5.8,28.35,7.77,37.01,1.96,8.66,3.44,14.57,4.88,20.46,1.9,7.75.47,2.1.29,1.47,6.03,24.48,9.86,37.81,13.46,50.14.92,3.08,1.83,6.09,2.76,9.2.97,3.1,1.97,6.29,3.05,9.72,2.19,6.86,4.77,14.69,8.22,24.68l1.36,4.18c1.92,5.4,7.89,22.63,16.59,43.9,4.24,10.67,9.5,22.25,15.56,33.65,2.97,5.73,6.3,11.33,9.56,16.88,1.72,2.73,3.42,5.44,5.11,8.12.83,1.35,1.71,2.66,2.6,3.96.88,1.3,1.75,2.59,2.62,3.87-.28-.4-.86-1.25-3.08-4.49,7.63,11.65,16.78,23.93,26.61,35.82,9.83,11.89,20.38,23.35,30.58,33.59,20.41,20.51,39.45,36.02,47.47,42.29,9.6,7.6,19.3,15.08,29.27,22.17-2.4-1.74-4.48-3.25-6.28-4.55-1.77-1.34-3.25-2.46-4.48-3.39-2.46-1.87-3.93-2.98-4.67-3.55-1.48-1.14-.07-.1,2.05,1.47,4.23,3.13,11.25,8.37,3.47,2.46,7.46,5.62,17.28,12.64,22.93,16.56,5.62,3.95,6.97,4.93-2.46-1.62l-2.94-2.06c-3.49-2.37,8.51,6.23,21.59,14.84,13.09,8.58,27.24,17.18,26.66,16.9,40.02,24.18,81.26,45.1,122.78,63.49,41.53,18.38,83.37,34.2,124.93,47.95l-9.52-3.34c4.83,1.61,9.64,3.27,14.49,4.83l14.54,4.68c3.82,1.2,6.38,2.03,5.39,1.75-.99-.29-5.56-1.64-15.92-5.02,2.73.89,6.26,2.03,10.04,3.26,3.8,1.17,7.84,2.41,11.56,3.56,7.44,2.29,13.63,4.02,13.92,4.11,10.21,3.1,14.35,4.21,14.96,4.43.61.2-2.28-.62-6.07-1.68-7.56-2.18-18.64-5.49-12.37-3.6,5.68,1.69,11.35,3.4,17.05,5l-3.85-1.12c13.87,3.89,15.08,4.31,40.38,11.06,8.01,2.13,10.06,2.67,10.9,2.9.84.23.46.15,3.62.96.06.02,2.1.53,9.7,2.46l18.7,4.51c6.25,1.43,12.49,2.93,18.75,4.3-5-1.13-9.98-2.37-14.97-3.54,4.16.95,8.44,1.93,12.26,2.8,3.82.84,7.18,1.57,9.47,2.08,4.59,1,4.92,1.06-3.73-.91,6.35,1.47,18.29,4.1,32.92,7.07,14.62,3,31.96,6.21,49.02,9.17,17.07,2.92,33.87,5.51,47.4,7.46,13.54,1.92,23.79,3.27,27.76,3.76,23.71,2.9,47.15,5.46,76.27,7.86-3.62-.32-6.51-.6-5.35-.53,1.16.09,6.35.48,18.91,1.42-4.6-.21,6.89.72,22.1,1.64,15.2.9,34.11,1.75,44.29,2.08-9.09-.36,8.8.28,25.42.48,8.31.07,16.29.12,20.41.09,4.12-.04,4.38-.06-2.76-.08,21.02-.07,1.28.1,17.23.08,25.02-.33,52.58-1.32,81.55-3.36,28.97-2.12,59.35-5.27,89.92-10.03.95-.18-9.3,1.33,3.81-.72,5.38-.8,10.75-1.73,16.12-2.59l16.08-2.86c11.97-2.47,11.02-2.26,32.82-7.07-1.54.35-3.45.79-3.99.88-.54.1.32-.08,4.3-1.04,14.77-3.35,29.49-7.29,44.17-11.57,3.66-1.11,7.35-2.13,10.99-3.32,3.65-1.17,7.3-2.33,10.96-3.5,3.63-1.24,7.27-2.48,10.91-3.73,3.65-1.21,7.24-2.62,10.86-3.92,14.45-5.35,28.76-11.24,42.82-17.73,14.06-6.51,27.84-13.7,41.25-21.54,26.8-15.7,52.11-34.26,74.26-56.07,22.15-21.77,41.02-46.88,54.95-74.37-1.82,3.76-3.09,5.84-3.61,6.81-.54.96-.44.76.11-.24.27-.5.66-1.21,1.13-2.07.23-.43.49-.9.76-1.4.25-.51.52-1.06.81-1.64,1.14-2.31,2.51-5.07,3.92-7.93-3.69,7.42,0-.21-.76,1.23.99-1.91,1.83-3.89,2.71-5.85l2.62-5.89c1.64-3.97,3.18-7.98,4.75-11.98l2.1-6.09,1.05-3.05c.36-1.01.7-2.03.99-3.07l1.83-6.18c.61-2.06,1.25-4.11,1.73-6.21,1.08-4.57,4.48-17.99,6.22-31.21.12-.82.27-1.64.38-2.46.1-.82.19-1.64.28-2.45.19-1.62.37-3.21.55-4.76.18-1.55.35-3.05.52-4.49.14-1.44.22-2.82.32-4.12.36-5.19.71-9.05.67-10.4-.09,2.72-.37,5.43-.55,8.14l-.3,4.07-.16,2.03-.23,2.03c.33-2.69.35-4.26.4-4.92.03-.66,0-.42-.1.47-.11,1.78-.72,6.11-1.32,11.03-.16,1.23-.32,2.49-.48,3.76-.21,1.26-.42,2.53-.63,3.77-.42,2.48-.82,4.85-1.16,6.87-.74,4.02-1.4,6.6-1.26,5.82-2.21,11.92-6.16,27.5-12.6,44.24-1.65,4.17-3.27,8.48-5.26,12.74-.96,2.14-1.89,4.32-2.91,6.49-1.06,2.14-2.13,4.3-3.21,6.47-.54,1.09-1.08,2.18-1.62,3.27-.59,1.07-1.17,2.14-1.76,3.22-1.18,2.15-2.36,4.31-3.55,6.48-1.24,2.13-2.55,4.24-3.82,6.38l-1.92,3.2c-.63,1.07-1.35,2.09-2.02,3.13-4.89,7.3,4.09-6.28,1.46-2.38-2.79,4.2-5.71,8.95-9.98,14.66-1.05,1.44-2.13,2.98-3.34,4.56-1.24,1.56-2.54,3.22-3.93,4.97-2.71,3.57-6.05,7.29-9.71,11.58l1.65-1.95c-10.41,11.96-20.23,21.42-29.64,29.76-9.4,8.38-18.61,15.42-28.17,22.36-2.42,1.7-4.84,3.41-7.3,5.14-2.51,1.66-5.04,3.33-7.63,5.04-2.56,1.74-5.26,3.37-8,5.06-2.75,1.68-5.52,3.47-8.48,5.13-11.67,6.91-24.99,14-41.13,21.54l4.8-2.19c-6.89,3.34-11.16,5.16-14.46,6.63-1.65.73-3.08,1.36-4.49,1.99-1.43.59-2.86,1.19-4.52,1.87-4.04,1.73-3.58,1.56-.85.42,1.37-.57,3.3-1.38,5.53-2.3,2.2-.98,4.69-2.09,7.19-3.21,5.03-2.18,9.98-4.63,12.84-5.96,2.85-1.35,3.57-1.67-.03.09-2.31,1.05-5.54,2.65-9.52,4.43-2,.89-4.17,1.85-6.49,2.88-1.16.52-2.36,1.05-3.59,1.6-1.24.52-2.51,1.06-3.81,1.6-2.61,1.09-5.33,2.23-8.13,3.4-2.81,1.15-5.74,2.26-8.71,3.43-1.48.58-2.98,1.17-4.49,1.76-1.52.56-3.04,1.12-4.58,1.69-3.07,1.12-6.15,2.25-9.23,3.37-6.2,2.09-12.32,4.29-18.21,6.11-2.94.93-5.8,1.84-8.55,2.72-2.77.82-5.42,1.61-7.93,2.35-5.01,1.52-9.49,2.72-13.11,3.7-3.62.98-6.39,1.75-8.07,2.13-11.42,2.93-9.74,2.53-8.06,2.12.84-.2,1.68-.4.89-.19-.4.1-1.21.32-2.63.69-1.42.38-3.46.89-6.33,1.56l-6.09,1.39c-1.93.47-3.85.99-5.78,1.43-15.09,3.37-22.77,4.72-23.34,4.8,3.67-.75,10.45-2.09,14.37-3-4.89,1.1-10.82,2.21-17.04,3.49-3.11.65-6.31,1.19-9.49,1.79-3.18.58-6.35,1.2-9.42,1.72-6.16,1.02-11.89,2.06-16.54,2.75-4.65.71-8.17,1.25-9.88,1.51l11.2-1.69c3.73-.57,7.45-1.23,11.18-1.84-3.97.65-7.98,1.39-12.06,2-4.08.62-8.2,1.26-12.37,1.89-8.35,1.16-16.85,2.36-25.48,3.37-17.26,2.07-34.97,3.83-52.65,5.15-17.68,1.31-35.31,2.24-52.41,2.85-17.1.6-33.67.8-49.21.86l4.72.03c-5.93.07-10.98-.03-15.37-.03-4.39,0-8.12-.07-11.42-.14-6.6-.12-11.5-.19-16.54-.38-5.04-.18-10.23-.27-17.41-.6-3.59-.15-7.68-.32-12.5-.52-4.82-.25-10.36-.53-16.87-.87l1.89.09c-5.21-.31-11.29-.66-17.85-1.05-6.55-.47-13.59-.95-20.69-1.52,13.12,1.05-24.67-2.17-7.46-.79-25.65-2.18-31.97-2.99-36.13-3.37-4.16-.4-6.15-.57-23.05-2.45l-7.77-1.05c-5.75-.7-8.87-1.03-13.77-1.69-4.9-.67-11.6-1.49-24.48-3.41,21.14,3.04-16.42-2.52,7.25.87-27.02-4-47.01-7.38-63.34-10.31-8.16-1.48-15.4-2.83-22.14-4.14-6.72-1.36-12.96-2.57-19.08-3.93-6.15-1.24-6.33-1.24-3.36-.6,2.97.65,9.09,1.94,15.56,3.21,3.24.64,6.56,1.3,9.61,1.91,3.06.58,5.85,1.1,8.02,1.51,4.34.82,6.19,1.17,2.74.53,5.77,1.12.68.2-7.96-1.4-8.64-1.64-20.81-4.03-29.19-5.83-8.55-1.76-15.77-3.45-26.23-5.83-10.43-2.48-24.11-5.62-45.37-11.05,4.24,1.06,4.52,1.14,8.75,2.2-15.93-4.03-31.2-7.94-50.57-13.47-5.44-1.51-11.74-3.27-17.04-4.86-5.31-1.58-9.65-2.87-11.23-3.26,12.86,3.85,25.74,7.62,38.69,11.15-2.75-.75-5.48-1.5-8.23-2.25-2.74-.77-5.48-1.55-8.28-2.34-2.79-.79-5.63-1.6-8.54-2.43-2.91-.86-5.89-1.74-8.99-2.65-12.38-3.65-26.48-8.02-44.31-13.98,2.77.94,13.44,4.32,20.77,6.66-5.23-1.69-10.27-3.32-15.35-4.96-5.07-1.7-10.18-3.41-15.59-5.23,1.58.41,13.14,4.4,27.33,8.91,3.54,1.16,7.25,2.3,11,3.46,3.75,1.15,7.54,2.36,11.26,3.47,7.45,2.2,14.57,4.37,20.47,5.99-2.83-.82-7.03-2.03-11.53-3.39-4.5-1.35-9.33-2.74-13.42-4.01-8.17-2.52-13.47-4.16-7.57-2.42-16.93-5.05-41.19-13.21-69.16-23.26l1.88.58c-2.22-.78-5.61-2.03-9.46-3.46-3.85-1.44-8.18-3-12.2-4.58,4.88,1.86,9.81,3.6,14.71,5.41-22.59-8.28-43.26-16.75-64.48-25.82,22.23,9.48,24.79,10.38,24.05,10.15-.73-.25-4.71-1.8,4.76,2.04-6.93-2.73-12.58-5.11-17.33-7.08-4.76-1.96-8.57-3.62-11.8-5.03-3.23-1.41-5.88-2.57-8.26-3.61-2.37-1.08-4.47-2.03-6.62-3.01-4.3-1.96-8.82-4-16-7.39-3.6-1.68-7.88-3.66-13.1-6.21-2.62-1.26-5.48-2.64-8.63-4.15-3.13-1.56-6.54-3.25-10.28-5.11,8.04,4.11,30.48,14.86,17.72,8.8-11.48-5.45-26.4-13.12-33.29-16.77-39.03-20.75,5.93,3.3-10.7-5.5-13.19-7.25-19.1-10.32-35.84-20.09l-.07-.15c-21.6-12.96-24.3-14.93-26.64-16.31-2.27-1.47-4.2-2.35-22.93-15.13,2.62,1.83,5.3,3.57,7.97,5.32l8.02,5.26c-6.57-4.35-13.16-8.68-19.61-13.22l4.07,2.69c-5.29-3.66-9.69-6.65-13.53-9.47-3.85-2.8-7.29-5.21-10.61-7.75-6.7-5.02-13.3-10.05-23.06-18.02,2.24,1.88,1.58,1.4-1.8-1.33-3.4-2.7-9.46-7.73-17.83-15.1-2.81-2.56-3.82-3.48-4.13-3.76-.3-.28.12.08.15.1.02.01-.06-.06-.37-.35-.31-.28-.86-.77-1.77-1.6-1.86-1.61-5.05-4.71-10.83-10.11,2.62,2.43,5.36,4.97,8.7,8.08,1.7,1.53,3.55,3.19,5.62,5.05,2.08,1.84,4.31,3.96,6.93,6.19,1.08.91,5.39,4.52,6.51,5.46-3.08-2.7-6.63-5.66-10.21-8.87-1.79-1.61-3.61-3.24-5.43-4.88-.91-.82-1.83-1.64-2.74-2.46-.89-.84-1.78-1.67-2.67-2.5-7.11-6.57-13.52-12.96-17.56-17.02,3.09,3.14,6.86,6.82,8.77,8.73-11.02-10.58-21.52-21.7-31.49-33.27-4.69-5.48-.93-1.17,2.8,3.1-3.04-3.51-5.65-6.44-8.45-9.93-1.42-1.73-2.92-3.56-4.61-5.62-1.66-2.09-3.44-4.45-5.53-7.15,1.11,1.38,1.54,1.91,3.19,3.96,1.6,2.1,4.55,5.66,10.71,13.1-9.38-11.12-18.25-22.68-26.44-34.7-.79-1.23-3.97-5.84-6.3-9.72-2.39-3.85-4.21-6.78-2.69-4.39-6.28-10.33-13.54-23.29-20.03-37.72-.81-1.8-1.62-3.62-2.44-5.45-.81-1.84-1.56-3.71-2.35-5.58-.78-1.87-1.56-3.75-2.35-5.64-.76-1.89-1.52-3.79-2.28-5.7l-2.27-5.71c-.73-1.91-1.46-3.82-2.19-5.73-1.48-3.81-2.88-7.62-4.25-11.39-.59-1.56-1.78-4.69-4.04-11.13-4.99-14.24-9.37-27.78-13.68-42.07-4.31-14.29-8.55-29.33-13.02-46.65-1.6-6.57-3.2-13.15-4.69-19.74-6.36-27.28,5.97,26.82-4.5-18.64-1.77-8.07-2.79-12.86-3.34-15.69-.57-2.83-.73-3.68-.75-3.89-.04-.4.47,1.82-.68-3.86-3.3-16.08-8.67-44.15-12.84-74.21,1.47,9.94,2.65,17.72,4.17,26.98ZM47.12,787.73c-.26,6.69-.77,20.02-.96,24.92.15-7.63.41-13.52.96-24.92ZM156.76,276.94c-1.98,4.57-5.11,11.6-8.51,19.6,1.23-2.9,2.55-6,3.94-9.28,1.44-3.26,2.96-6.7,4.57-10.32ZM835,889.19c-.14-.25-.24-.42-.35-.62-6.93-13.22-4.49-8.52.35.62ZM850.67,915.92c1.68,2.62,1.58,2.43.88,1.32-.58-.91-1.81-2.83-3.43-5.36-1.55-2.57-3.51-5.73-5.51-9.15.53.97,1.32,2.3,2.58,4.38,1.26,2.08,2.95,4.93,5.47,8.82ZM712.55,1749.29l-5.85-1.51c13.23,3.32,9.52,2.41,5.85,1.51Z"/>
      <path class="cls-8" d="M134.28,332.08c-.67,1.77-.87,2.26-1.04,2.67-.9,2.47-.9,2.53,1.04-2.67Z"/>
      <path class="cls-8" d="M118.69,1340.05c.12.33.24.66.36.99.21.54.32.83.38.99l-.74-1.97Z"/>
      <path class="cls-8" d="M723.83,455.98c-.91-6.32-1.42-9.84-1.76-12.19-.07-.34.33,2.53,1.76,12.19Z"/>
      <path class="cls-8" d="M966.14,1030.85l-4.16-2.71-4.06-2.86-8.12-5.71c3.92,2.77,6.58,4.65,8.75,6.19,1.09.77,2.05,1.46,2.99,2.12.94.66,1.9,1.26,2.9,1.93-.36-.26-3.51-2.36,1.68,1.03Z"/>
      <path class="cls-8" d="M1121.63,1104.07c2.76.9,5.85,1.91,8.58,2.79l-.74-.29c-11.76-3.85-19.99-6.5-7.84-2.5Z"/>
      <path class="cls-8" d="M981.47,1041c.65.44,3.65,2.27,7.96,4.89,4.37,2.53,10.13,5.74,16.21,9.12-.75-.38-1.43-.78-2.16-1.19,1.81.96-.51-.38-4.9-2.85-2.2-1.23-4.91-2.76-7.87-4.42-2.91-1.75-6.08-3.66-9.24-5.56Z"/>
      <path class="cls-8" d="M1008.51,1056.51c3.8,1.99,7.68,4.02,11.4,5.96,1.46.72-4.61-2.43-11.4-5.96Z"/>
      <path class="cls-8" d="M873.45,947.92c4.14,5.12,2.69,3.14,5.03,6.05,1.18,1.41.03,0-2-2.49-1.01-1.25-2.28-2.73-3.51-4.32-1.24-1.58-2.52-3.22-3.66-4.67-2.28-2.91-3.91-5.19-3.71-4.87.11.15.69.95,1.91,2.61,1.22,1.67,3.18,4.13,5.94,7.69Z"/>
      <path class="cls-8" d="M990.99,1047.04c-1.44-.84-2.82-1.77-4.23-2.65l-6.71-3.97c3.65,2.2,7.27,4.46,10.94,6.62Z"/>
      <path class="cls-8" d="M903.33,981.21c5.22,5.27,10.85,10.1,16.35,15.07-.24-.23,1.85,1.67,4.56,3.83-2.68-2.14-5.26-4.52-7.74-6.73-2.48-2.22-4.82-4.32-6.83-6.12-3.95-3.68-6.49-6.27-6.33-6.05Z"/>
      <path class="cls-8" d="M924.23,1000.12c5.51,4.53,10.69,8.93,13.92,11.24-3.15-2.25-9.48-7.63-13.92-11.24Z"/>
      <path class="cls-8" d="M965.18,1030.96c-1.83-1.21-3.68-2.39-5.45-3.69-4.26-3.04-8.58-6.01-12.8-9.1,2.98,2.21,6.05,4.31,9.07,6.47,3.03,2.15,6.04,4.32,9.18,6.31Z"/>
      <path class="cls-8" d="M787.65,774.94c-1.22-3.86-2.38-7.73-3.57-11.6-1.13-3.88-2.3-7.76-3.4-11.65-.35-1.19-.09-.18.58,2.2.7,2.37,1.8,6.13,3.07,10.47.86,2.78,1.95,6.32,2.69,8.72.77,2.39,1.18,3.65.63,1.87Z"/>
      <path class="cls-8" d="M812.56,843.97c-2.54-6.06-2.69-6.47-4.04-9.92l-.39-.64c1.43,3.54,2.93,7.05,4.44,10.56Z"/>
      <path class="cls-8" d="M788.15,777.53c-.87-2.26-10.33-33.69-1.43-4.23.73,2.35,8.24,25.48,1.43,4.23Z"/>
      <polygon class="cls-8" points="718.62 418.81 719.54 424.91 719.61 424.01 718.62 418.81"/>
      <path class="cls-8" d="M639.49,107.83c1.62,3.21,2.91,5.69,3.87,7.67.96,1.98,1.66,3.42,2.18,4.5,1.06,2.14,1.36,2.85,1.66,3.46.29.62.54,1.15,1.42,3,.87,1.85,2.28,5.05,4.8,11.04,1.31,3.11-.67-1.81-2.8-6.65-2.1-4.85-4.35-9.61-2.87-6.48-.9-1.97-1.77-3.82-2.61-5.51-.83-1.7-1.6-3.27-2.29-4.7-1.45-2.82-2.6-5.05-3.39-6.59-1.65-3.03-1.81-3.27.02.27Z"/>
      <path class="cls-8" d="M647.75,124.36c.58,1.26,1.18,2.56,1.8,3.9.59,1.35,1.21,2.74,1.84,4.17-1.99-4.61-3.03-6.74-3.64-8.07Z"/>
      <path class="cls-8" d="M1701.71,1490.75c.71-6.14,1.55-12.26,1.92-18.43l-.48,5.96c-.2,1.98-.47,3.96-.7,5.94l-.73,6.53Z"/>
      <path class="cls-8" d="M1704.29,1455.31l.14-2.18.06-2.18-.16-11.12c0,2.09.02,5.17.04,8.12.02,2.95.03,5.77-.08,7.36Z"/>
      <path class="cls-8" d="M50.53,736.47l.07-1.41c-.23,2.85-.61,7.17-1.18,15.82.33-4.81.71-9.61,1.1-14.41Z"/>
      <polygon class="cls-8" points="49.23 987.03 48.94 982.73 49.37 990.78 49.23 987.03"/>
      <path class="cls-8" d="M77.85,1195.35c-1.8-8.4-3.82-18.29-5.45-26.76,3.56,18.38,5.81,29.06,5.45,26.76Z"/>
    </g>
    <g class="cls-9">
      <path class="cls-4" d="M1703.98,1439.83c13.02,570.69-1376.82,397.65-1570.06-59.47C-59.32,923.24,69.7,59.7,441.23,3.34c371.53-56.37,196.2,708.83,454.99,971.07,258.79,262.23,799.51,104.12,807.76,465.43Z"/>
    </g>
  </g>
  <path class="cls-7" d="M1754.76,1546.95c0,.41-392.85.76-877.35.76s-877.41-.44-877.41-.76,392.76-.76,877.41-.76,877.35.33,877.35.76Z"/>
  <g>
    <path class="cls-5" d="M1532.66,417.03l-628.27,168.4,113.51,423.48,628.27-168.4-113.51-423.48Z"/>
    <path class="cls-1" d="M1525.16,422.53c-1.19,2.58-2.64,5.03-4.32,7.33-3.37,5.06-7.77,11.65-13.33,19.93-12.13,17.69-29.13,42.42-49.97,72.76l-167.05,239.26-1.35,1.98-2.24-.99-5.31-2.31-270.66-119.47-81.77-36.63-21.98-10.26c-2.63-1.09-5.15-2.42-7.55-3.96,2.76.71,5.44,1.66,8.02,2.86l22.53,9.27,82.5,35.02,271.36,117.71,5.35,2.31-3.66,1.03,168.52-238.13,51.51-71.66,14.22-19.31c1.51-2.41,3.26-4.67,5.21-6.74Z"/>
    <path class="cls-1" d="M1012.45,1011.77c-1.5-.7,30.07-71.07,70.48-157.23,40.41-86.17,74.37-155.45,75.84-154.75,1.47.7-30.08,71.07-70.52,157.24-40.44,86.17-74.33,155.44-75.8,154.74Z"/>
    <path class="cls-1" d="M1365.31,638.83c.99-1.32,62.83,43.63,138.15,100.34,75.32,56.71,135.55,103.75,134.64,105.07-.92,1.32-62.83-43.63-138.15-100.38-75.32-56.75-135.59-103.75-134.64-105.03Z"/>
    <path class="cls-2" d="M1012.3,1251.22l59.53-109.65c1.92-3.53,4.93-6.34,8.58-8.01,3.65-1.68,7.74-2.13,11.68-1.3l433.43,93.28c3.82.8,7.29,2.78,9.93,5.67,2.63,2.89,4.28,6.53,4.73,10.41l14.22,125.52c.33,2.93-.04,5.9-1.08,8.66-1.04,2.76-2.73,5.24-4.92,7.22-2.19,1.98-4.82,3.41-7.67,4.17-2.85.76-5.84.83-8.73.21l-507.28-109.14c-2.82-.62-5.46-1.88-7.71-3.69-2.25-1.8-4.05-4.11-5.25-6.74-1.21-2.62-1.79-5.48-1.69-8.37.09-2.89.86-5.71,2.23-8.25Z"/>
    <path class="cls-7" d="M1534.52,1387.77l-519.47-111.74-4.19,19.49,519.48,111.74,4.19-19.49Z"/>
    <path class="cls-7" d="M1194.27,1154.28c-.27.56-.57,1.1-.92,1.61-.62,1.06-1.47,2.63-2.79,4.54-3.58,5.51-7.63,10.7-12.09,15.53-6.6,7.19-13.97,13.63-21.98,19.2-9.81,6.82-20.51,12.27-31.8,16.19-11.34,3.77-23.15,5.93-35.1,6.41-9.78.49-19.59.09-29.31-1.21-8.91-1.06-17.69-3.03-26.19-5.9.62.09,1.23.22,1.83.4,1.17.26,2.89.81,5.16,1.28,6.35,1.5,12.79,2.63,19.27,3.41,9.61,1.17,19.31,1.49,28.98.95,11.84-.53,23.55-2.69,34.8-6.41,11.19-3.91,21.81-9.29,31.58-16.01,7.97-5.5,15.34-11.82,21.98-18.86,4.47-4.76,8.59-9.84,12.31-15.21,1.35-1.86,2.27-3.44,2.96-4.43.37-.54.8-1.05,1.28-1.5Z"/>
    <path class="cls-7" d="M1306.3,1180.07s-1.14,0-3.26-.33c-3.11-.27-6.24-.27-9.34,0-11.43,1.41-22.35,5.58-31.8,12.16-6.55,4.41-12.68,9.42-18.31,14.95-6.19,5.9-12.49,12.56-19.31,19.38-7.02,7.3-14.72,13.91-23.01,19.75-9.05,6.1-19.11,10.54-29.71,13.11-21.98,5.42-43.48,4.14-62.57,1.98-19.09-2.16-36.27-5.57-50.74-7.33-11.4-1.46-22.9-2.05-34.4-1.76-4.07,0-7.33.4-9.38.62-2.05.22-3.26.26-3.26.26,4.17-.69,8.38-1.12,12.61-1.32,11.54-.47,23.09,0,34.55,1.39,14.65,1.54,31.61,4.61,50.74,6.93,19.12,2.31,40.59,3.33,62.28-2.02,10.45-2.56,20.38-6.93,29.31-12.93,8.23-5.79,15.9-12.34,22.89-19.56,6.81-6.78,13.12-13.45,19.39-19.34,5.74-5.55,12-10.54,18.68-14.91,9.57-6.61,20.64-10.71,32.2-11.94,3.12-.24,6.27-.15,9.38.26l3.08.66Z"/>
    <path class="cls-7" d="M1152.43,1315.62l2.31-.66c1.54-.37,3.66-1.02,6.59-1.94,7.96-2.76,15.52-6.51,22.53-11.17,10.33-7.02,19.84-15.19,28.32-24.37,9.75-10.22,19.38-22.46,29.9-34.91,9.68-11.96,20.6-22.86,32.57-32.53,9.87-7.76,21.03-13.72,32.97-17.62,8.1-2.59,16.6-3.73,25.1-3.37,2.3.13,4.58.4,6.85.81,1.54.25,2.34.47,2.34.47,0,0-3.26-.62-9.23-.84-8.41-.2-16.8,1.05-24.8,3.66-11.87,3.95-22.95,9.94-32.75,17.69-11.86,9.67-22.69,20.53-32.31,32.42-10.52,12.46-20.19,24.66-30,34.91-8.56,9.2-18.17,17.36-28.65,24.29-7.09,4.66-14.77,8.35-22.83,10.99-2.9.95-5.88,1.67-8.9,2.16Z"/>
    <path class="cls-7" d="M1437.05,1370.65s.7-1.02,2.17-2.93l6.23-8.32c7.78-10.06,14.13-21.16,18.86-32.97,3.06-8.2,4.6-16.89,4.51-25.64-.09-4.86-.83-9.69-2.2-14.36-1.53-4.93-3.84-9.58-6.85-13.77-6.73-8.87-15.8-15.68-26.19-19.67-11.19-4.18-23.12-6.04-35.06-5.46-11.95.51-23.82,2.25-35.42,5.17-10.84,2.64-21.46,6.11-31.77,10.36-9.27,3.97-18.29,8.51-27,13.59-7.54,4.52-14.8,9.47-21.76,14.84-10.12,7.75-19.5,16.42-28.02,25.9-3.08,3.26-5.24,6.04-6.78,7.84-1.54,1.79-2.38,2.74-2.38,2.74,0,0,.73-1.02,2.2-2.89,1.47-1.87,3.66-4.65,6.63-7.99,8.42-9.63,17.74-18.43,27.84-26.26,7.03-5.42,14.36-10.42,21.98-14.98,8.71-5.17,17.76-9.76,27.08-13.74,10.35-4.32,21.01-7.83,31.91-10.48,11.67-2.96,23.61-4.72,35.65-5.24,12.09-.59,24.16,1.29,35.5,5.54,10.59,4.09,19.82,11.07,26.63,20.15,3.09,4.27,5.45,9.02,6.96,14.07,1.4,4.76,2.14,9.69,2.2,14.65.06,8.89-1.53,17.71-4.69,26.01-4.83,11.85-11.32,22.95-19.27,32.97-2.74,3.66-4.95,6.38-6.41,8.2-1.47,1.83-2.53,2.67-2.53,2.67Z"/>
    <path class="cls-7" d="M1390.19,1362.74c-.04-.51-.04-1.03,0-1.54,0-1.03,0-2.53.22-4.44.33-3.85,1.57-9.27,2.78-16.01.69-3.62.96-7.31.81-10.99-.17-4.25-1.35-8.39-3.45-12.09-1.21-1.97-2.8-3.68-4.69-5.02-1.89-1.33-4.03-2.27-6.3-2.75-4.93-.93-10-.93-14.94,0-17.64,2.64-34.68,8.32-50.38,16.78-4.76,2.54-9.38,5.33-13.85,8.35-1.57,1.02-2.78,1.94-3.66,2.49-.41.31-.85.58-1.32.8l1.17-.99c.8-.62,1.98-1.57,3.66-2.67,4.41-3.17,9-6.09,13.74-8.72,15.68-8.73,32.81-14.55,50.55-17.18,5.09-.95,10.3-.95,15.39,0,2.39.54,4.64,1.56,6.63,2.99,1.99,1.43,3.67,3.24,4.95,5.33,2.15,3.83,3.32,8.14,3.41,12.53.15,3.76-.16,7.52-.91,11.21-1.36,6.74-2.68,12.13-3.15,15.9-.25,1.9-.37,3.37-.44,4.4-.02.54-.1,1.08-.22,1.61Z"/>
    <path class="cls-7" d="M1542.19,1265.58c-.45.05-.9.05-1.35,0-1.22-.06-2.45-.18-3.66-.37-4.7-.66-9.33-1.79-13.81-3.37-11.5-3.66-25.93-12.38-40.55-23.34-12.15-9.77-25.15-18.42-38.84-25.86-4.19-2.14-8.54-3.96-13.01-5.46-3.18-1.06-4.98-1.54-4.95-1.61.45.02.89.1,1.32.22.85.22,2.17.44,3.67.95,4.55,1.34,8.99,3.07,13.26,5.16,10.99,5.02,24.58,14.65,39.17,25.64,12.17,9.73,25.69,17.65,40.11,23.52,4.42,1.63,8.99,2.86,13.63,3.66,3.15.55,5.02.73,5.02.85Z"/>
    <path class="cls-7" d="M1555.41,1353.87c-3.89-1.93-8.02-3.36-12.27-4.25-10.37-1.7-21.01-.43-30.7,3.66-9.62,4.25-18.65,9.73-26.86,16.3l-7.55,5.9c-.89.77-1.84,1.46-2.86,2.05.79-.88,1.65-1.68,2.57-2.42,1.69-1.47,4.18-3.66,7.32-6.15,8.12-6.84,17.17-12.48,26.89-16.75,9.87-4.19,20.75-5.37,31.29-3.41,3.16.64,6.23,1.7,9.12,3.15.78.4,1.54.83,2.27,1.32.37.37.77.55.77.59Z"/>
    <path class="cls-7" d="M1517.28,1225.46c0,.3-92.5-19.34-206.44-43.96-113.93-24.62-206.26-44.66-206.21-44.95.04-.3,92.5,19.3,206.47,43.96,113.97,24.66,206.26,44.63,206.18,44.95Z"/>
    <path class="cls-2" d="M1457.12,906.3c-1.87-25.64-10.11-51.76-28.54-69.6-25.64-24.92-67.89-28.28-99.79-12.13-31.91,16.16-53.42,49.05-60.89,84-7.47,34.95-2.16,71.73,9.56,105.51,7.33,21.43,17.48,43.71,12.46,65.95-3.66,15.75-14.32,28.72-22.57,42.64-8.24,13.92-14.03,31.46-6.92,45.98l88.51,21.35c10.48-2.45,13.85-22.2,14.65-34.77.59-8.72.7-23.34.26-32.06-1.14-23.56,5.68-32.97,19.75-52.02,14.07-19.05,31.06-35.57,44.25-54.95,21.73-32.35,32.03-71.03,29.27-109.91Z"/>
    <path class="cls-7" d="M1364.91,1106c-.19.37-.43.71-.69,1.02l-2.24,2.75c-.99,1.17-2.2,2.6-3.67,4.18-1.46,1.57-3.18,3.44-5.2,5.27-4.66,4.45-9.61,8.58-14.84,12.35-12.84,9.26-27.16,16.27-42.35,20.74-6.21,1.85-12.53,3.25-18.94,4.18-2.71.47-5.21.62-7.33.88-2.12.26-4.06.33-5.6.33h-3.67c-.41.05-.83.05-1.24,0,.41-.11.82-.17,1.24-.18l3.67-.29c1.85-.09,3.7-.27,5.53-.55,2.16-.3,4.61-.48,7.32-1.03,6.32-1.04,12.56-2.5,18.69-4.36,14.95-4.52,29.08-11.42,41.83-20.44,5.22-3.7,10.19-7.74,14.88-12.09,2.09-1.8,3.66-3.67,5.31-5.13,1.65-1.47,2.82-2.89,3.66-4.03l2.38-2.6c.38-.37.8-.7,1.24-.99Z"/>
    <path class="cls-7" d="M1421.96,1020.93c0,.18-2.71-.4-7.66-.33-6.98.26-13.85,1.86-20.22,4.73-9.41,4.32-17.95,10.33-25.21,17.73-8.68,9.26-16.57,19.22-23.59,29.78-7.07,10.63-15.1,20.59-24,29.75-7.48,7.35-16.29,13.21-25.97,17.26-6.51,2.72-13.52,4.08-20.59,3.99-1.92-.08-3.83-.27-5.71-.59-1.28-.22-1.94-.41-1.94-.41,0,0,2.71.48,7.65.55,6.98-.08,13.88-1.54,20.3-4.28,9.49-4.14,18.13-10.02,25.46-17.33,8.8-9.15,16.75-19.07,23.77-29.64,7.08-10.62,15.04-20.63,23.82-29.89,7.38-7.44,16.07-13.43,25.64-17.7,6.47-2.85,13.45-4.35,20.51-4.43,1.92,0,3.82.15,5.71.44l2.02.37Z"/>
    <path class="cls-7" d="M1333.12,903.48c.4-1.75.9-3.47,1.5-5.16.65-2.09,1.55-4.09,2.67-5.97,1.53-2.61,3.78-4.73,6.48-6.08,1.67-.93,3.58-1.35,5.48-1.23,1.91.12,3.74.79,5.29,1.92,1.64,1.55,2.9,3.47,3.67,5.59.77,2.13,1.03,4.41.76,6.65-.3,5.12-1.28,10.17-2.93,15.02-1.5,5.53-3.53,10.89-6.09,16.01-2.84,5.69-7.06,10.58-12.27,14.21-2.82,2.03-6.05,3.43-9.45,4.09-3.41.67-6.92.6-10.29-.21-7.19-2.13-13.28-6.93-17.04-13.41-3.8-6.86-5.6-14.66-5.2-22.49.28-8.19,1.91-16.27,4.83-23.92,2.95-8.03,7.45-15.39,13.23-21.69,6-6.59,13.71-11.39,22.27-13.88,8.85-2.42,18.19-2.42,27.04,0,8.84,2.38,16.95,6.95,23.56,13.3,6.33,6.2,11.24,13.7,14.4,21.98,3.06,7.99,4.63,16.47,4.61,25.02-.11,8.18-1.51,16.29-4.14,24.03-4.69,13.35-12.32,25.47-22.34,35.46-10.02,9.99-22.15,17.59-35.51,22.25-18.14,6.24-37.92,5.84-55.79-1.14-4.8-1.86-9.38-4.25-13.66-7.11-2.93-1.98-4.36-3.19-4.36-3.19l1.17.77c.73.48,1.8,1.32,3.3,2.24,4.32,2.77,8.93,5.08,13.74,6.89,7.59,2.89,15.56,4.61,23.67,5.09,10.74.67,21.51-.8,31.69-4.32,13.2-4.66,25.18-12.23,35.06-22.14,9.88-9.91,17.42-21.91,22.05-35.11,2.57-7.64,3.93-15.64,4.03-23.7.04-8.41-1.51-16.75-4.58-24.58-3.08-8.15-7.9-15.53-14.14-21.62-6.45-6.22-14.38-10.71-23.04-13.04-8.66-2.37-17.79-2.37-26.45,0-8.35,2.44-15.87,7.13-21.73,13.55-5.71,6.18-10.15,13.42-13.04,21.32-2.89,7.52-4.51,15.47-4.8,23.52-.41,7.65,1.33,15.27,5.02,21.98,3.58,6.28,9.45,10.94,16.37,13.01,3.25.79,6.63.88,9.91.24,3.28-.63,6.38-1.96,9.1-3.91,5.12-3.54,9.26-8.32,12.06-13.88,2.56-5.06,4.61-10.36,6.12-15.82,1.65-4.73,2.65-9.66,2.96-14.65.28-2.15.06-4.34-.65-6.39-.72-2.05-1.89-3.9-3.45-5.41-1.46-1.08-3.21-1.73-5.02-1.86-1.82-.13-3.63.26-5.24,1.13-2.65,1.29-4.87,3.32-6.38,5.86-1.13,1.84-2.05,3.81-2.74,5.86-.63,1.65-1.03,2.93-1.28,3.67l-.44,1.28Z"/>
    <path class="cls-7" d="M1451.19,966.64c-1.56-1.26-2.99-2.67-4.29-4.21-3.53-4.19-6.42-8.86-8.61-13.88-3.22-7.46-5.41-15.32-6.52-23.37-1.31-9.81-2.01-19.7-2.09-29.6-.07-9.87-.63-19.72-1.69-29.53-.96-7.97-2.86-15.81-5.68-23.34-1.94-5.07-4.54-9.86-7.73-14.25-2.27-3.08-3.66-4.58-3.66-4.65,1.49,1.33,2.85,2.8,4.06,4.4,3.35,4.32,6.08,9.09,8.1,14.18,2.97,7.55,4.98,15.46,5.97,23.51,1.13,9.84,1.75,19.73,1.83,29.64.07,9.86.72,19.7,1.94,29.49,1.08,7.96,3.17,15.76,6.23,23.19,2.09,4.99,4.85,9.68,8.2,13.93,2.42,2.96,3.99,4.4,3.92,4.5Z"/>
    <polygon class="cls-3" points="1200.6 612.2 1190.46 178.84 181.75 167.59 189.15 601.86 183.1 634.62 183.1 634.62 154.08 791.92 154.08 791.93 154.09 791.93 100.86 1080.31 114.45 1632.33 1142.61 1632.33 1131.99 1094.49 1200.6 612.2"/>
    <g>
      <path class="cls-7" d="M1195.73,644.61c-3.08,21.4-7.62,53.05-13.56,94.23-11.8,82.39-28.87,202.96-50.85,355.62,2.85,148.11,6.37,330.26,10.39,537.07l-1026.48-.18c-4.28-174.87-8.78-357.11-13.35-544v-6.89c18.02-97.69,35.77-193.83,53.23-288.43v-.55l-.44-.37-1.23-.97-.42,2.24h0c-17.45,94.41-35.16,190.36-53.12,287.86v.18c.18,2.34.18,4.73.18,7.07,4.61,187.21,9.12,369.8,13.41,544.91v.92h.91l1028.17-.18h.77v-.77c-4.14-207.13-7.84-389.5-10.81-537.8,21.62-152.69,38.69-273.3,50.34-355.72,5.93-41.18,10.26-72.87,13.26-94.23,1.5-10.66,2.6-18.76,3.37-24.21.27-1.93.49-3.51.65-4.76-.18,1.25-.43,2.83-.76,4.76-.95,5.45-2.12,13.55-3.66,24.21Z"/>
      <path class="cls-7" d="M1200.16,615.64c.33-2.29.44-3.45.44-3.45,0,0-.14,1.17-.44,3.45Z"/>
      <path class="cls-7" d="M1200.17,583.07c-.4-19.2-1.02-47.63-1.83-84.63-1.79-74.19-4.25-182.41-7.32-319.64v-.48h-.51l-1008.9-11.43h-.66v.88c2.31,137.7,4.76,282.82,7.33,434.07-1.98,10.6-3.96,21.38-5.93,32.15h0l-.3,1.62,1.06-.19h.63v-.62c2.05-11.07,4.03-21.8,6.05-32.79v-.18c-2.45-150.98-4.94-295.86-7.31-433.35l1007.5,10.87c3.33,136.99,5.92,245.11,7.72,319.06.92,37.04,1.61,65.47,2.09,84.66.25,9.56.33,16.93.59,21.76.25,4.84.25,7.33.25,7.33v-7.33c-.07-4.91-.22-12.16-.44-21.76Z"/>
    </g>
    <polygon class="cls-7" points="182.04 635.61 182.03 635.69 153.44 790.14 155.11 791.48 183.73 635.42 182.99 634.87 182.04 635.61"/>
    <path class="cls-6" d="M1023.47,1536.02l-500.47-59.05,6.92-58.4,3.63.4-6.48,54.81,493.18,58.17,6.7-56.71,3.63.44-7.1,60.34Z"/>
    <path class="cls-6" d="M1037.54,1416.63l-3.63-.44,6.15-52.09-493.18-58.18-6.63,56.27-3.66-.4,7.07-59.94,500.48,59.02-6.6,55.76Z"/>
    <path class="cls-7" d="M914.78,500.9c0,.51-110.86.95-247.58.95s-247.58-.44-247.58-.95,110.82-.95,247.58-.95,247.58.44,247.58.95Z"/>
    <path class="cls-7" d="M1040.7,683.89c0,.55-174.6.95-389.94.95s-389.98-.4-389.98-.95,174.57-.95,389.98-.95,389.94.3,389.94.95Z"/>
    <path class="cls-7" d="M1030.44,757.38c0,.51-174.61.95-389.94.95s-389.98-.44-389.98-.95,174.57-.95,389.98-.95,389.94.44,389.94.95Z"/>
    <path class="cls-7" d="M1020.18,831.02c0,.51-174.61.95-389.94.95s-390.02-.44-390.02-.95,174.57-.95,389.98-.95,389.99.37,389.99.95Z"/>
    <path class="cls-7" d="M1009.92,904.61c0,.55-174.6.95-389.94.95s-389.99-.4-389.99-.95,174.57-.95,389.99-.95,389.94.44,389.94.95Z"/>
    <path class="cls-7" d="M999.66,978.25c0,.55-174.64.95-389.94.95s-389.99-.4-389.99-.95,174.57-.95,389.99-.95,389.94.44,389.94.95Z"/>
    <path class="cls-7" d="M1010.14,1178.46c0,.51-174.6.95-389.94.95s-389.98-.44-389.98-.95,174.57-.96,389.98-.96,389.94.59,389.94.96Z"/>
    <path class="cls-7" d="M1010.14,1248.07c0,.51-174.6.95-389.94.95s-389.98-.44-389.98-.95,174.57-.99,389.98-.99,389.94.48,389.94.99Z"/>
    <path class="cls-7" d="M418.08,1403.87c0,.51-34.77.95-77.63.95s-77.59-.44-77.59-.95,34.73-.95,77.59-.95,77.63.41,77.63.95Z"/>
    <path class="cls-7" d="M355.21,1437.21c0,.51-17.8.95-39.78.95s-39.75-.44-39.75-.95,17.81-.95,39.75-.95,39.78.44,39.78.95Z"/>
    <path class="cls-7" d="M430.72,289.91c0,.55-40.66.95-90.78.95s-90.79-.4-90.79-.95,40.67-.95,90.79-.95,90.78.44,90.78.95Z"/>
    <path class="cls-7" d="M406.28,320.18c0,.55-32.6.95-72.79.95s-72.83-.4-72.83-.95,32.61-.95,72.83-.95,72.79.44,72.79.95Z"/>
    <path class="cls-7" d="M379.8,346.85c0,.51-23.27.95-51.99.95s-52.02-.44-52.02-.95,23.26-.95,52.02-.95,51.99.26,51.99.95Z"/>
    <path class="cls-7" d="M1124.92,303.18c0,.51-27.96.95-62.28.95s-62.28-.44-62.28-.95,27.92-.95,62.28-.95,62.28.4,62.28.95Z"/>
    <path class="cls-7" d="M1128.69,325.85c0,.51-26.26.95-58.61.95s-58.62-.44-58.62-.95,26.23-.95,58.62-.95,58.61.44,58.61.95Z"/>
    <g>
      <path class="cls-6" d="M616.32,1403.39c.48-6.53,1.09-14.35,1.92-21.32l-.18-.02c-2.53,5.9-5.59,12.35-8.76,18.66l-10.3,20.32-7.28-.87-4.43-21.88c-1.32-6.86-2.37-13.81-3.03-20.26l-.14-.02c-1.04,6.56-2.29,14.66-3.5,21.45l-3.49,19.55-8.71-1.04,8.94-47.77,12.7,1.51,4.52,20.1c1.16,5.73,2.11,11.86,2.7,17.34l.22.03c2.07-5.04,4.65-10.98,7.32-16.2l9.68-18.36,12.48,1.49-2.99,48.48-9.12-1.09,1.45-20.1Z"/>
      <path class="cls-6" d="M641.78,1411.66c-.41,5.85,4.54,9.45,10.69,10.18,4.55.54,7.77.26,10.92-.46l.63,6.41c-3.41.96-7.92,1.49-13.59.82-12.07-1.44-18.43-9.43-17.17-20.05,1.07-8.96,8.16-18.03,20.6-16.55,12.63,1.5,15.1,12.13,14.26,19.18-.18,1.52-.5,2.85-.77,3.52l-25.58-3.05ZM659.78,1407.35c.32-2.43-.23-8.48-7.19-9.31-6.11-.73-9.21,3.92-10.08,7.25l17.27,2.06Z"/>
      <path class="cls-6" d="M736.48,1417.7c.48-6.53,1.09-14.35,1.92-21.32l-.18-.02c-2.53,5.9-5.59,12.35-8.76,18.66l-10.3,20.32-7.28-.87-4.43-21.88c-1.32-6.86-2.37-13.81-3.03-20.26l-.14-.02c-1.04,6.56-2.29,14.66-3.5,21.45l-3.49,19.55-8.71-1.04,8.94-47.77,12.7,1.51,4.52,20.1c1.16,5.73,2.11,11.86,2.7,17.34l.22.03c2.07-5.04,4.65-10.98,7.32-16.2l9.68-18.36,12.48,1.49-2.99,48.48-9.12-1.09,1.45-20.1Z"/>
      <path class="cls-6" d="M785.76,1422.37l-20.37-2.43-1.63,13.73,22.72,2.71-.89,7.44-31.91-3.8,5.73-48.15,30.78,3.67-.89,7.44-21.59-2.57-1.44,12.1,20.37,2.43-.89,7.44Z"/>
      <path class="cls-6" d="M799.43,1397.29c3.64-.18,9.1,0,14.85.68,7.55.9,12.29,2.75,15.35,5.88,2.39,2.41,3.67,5.99,3.17,10.17-.76,6.4-5.99,10.03-10.58,10.88l-.03.22c3.36,1.78,5.09,5.39,5.84,9.88.98,6.27,1.67,12.09,2.46,14.16l-9.41-1.12c-.62-1.49-1.37-5.36-2.16-11.66-.78-6.46-2.99-8.79-8.37-9.59l-5.32-.63-2.35,19.72-9.11-1.09,5.66-47.51ZM806.03,1419.52l6.28.75c6.43.77,10.73-1.77,11.29-6.52.64-5.4-3.38-8.14-9.3-8.84-3.4-.41-5.48-.38-6.5-.27l-1.77,14.88Z"/>
      <path class="cls-6" d="M853.32,1410.69l-15.45-1.84.9-7.52,40.26,4.79-.9,7.52-15.61-1.86-4.84,40.63-9.19-1.09,4.84-40.63Z"/>
      <path class="cls-6" d="M911.06,1437.3l-20.37-2.43-1.63,13.73,22.72,2.71-.89,7.44-31.91-3.8,5.73-48.15,30.78,3.67-.89,7.44-21.59-2.57-1.44,12.1,20.37,2.43-.89,7.44Z"/>
      <path class="cls-6" d="M919.07,1459.72l5.73-48.15,11.05,1.32,11.44,22.36c2.98,6.07,5.28,11.79,7.1,17.51l.19-.04c.07-6.55.69-12.35,1.51-19.3l2.13-17.87,8.59,1.02-5.73,48.15-9.8-1.17-11.49-23.08c-2.84-5.99-5.69-12.3-7.72-18.21l-.26.03c-.42,6.53-1.08,12.74-1.94,19.97l-2.2,18.48-8.59-1.02Z"/>
      <path class="cls-6" d="M973.1,1455.93c2.97,2.2,7.49,4.39,12.62,5,5.92.7,9.56-1.5,10.03-5.43.42-3.55-1.78-5.97-8.36-8.82-8.52-3.68-13.56-8.43-12.67-15.89.95-8.01,8.75-13.1,19.68-11.8,5.93.71,9.94,2.38,12.69,4.14l-3.2,7c-1.77-1.15-5.38-3.18-10.54-3.79-6-.71-8.83,1.97-9.16,4.78-.44,3.68,2.42,5.8,9.09,8.84,8.76,4.02,12.83,8.6,11.94,16.11s-7.45,13.9-21.14,12.27c-5.59-.67-11.24-2.95-14.04-5.13l3.07-7.27Z"/>
    </g>
  </g>
</svg>
