<?xml version="1.0" encoding="UTF-8"?>
<svg id="Layer_1" data-name="Layer 1" xmlns="http://www.w3.org/2000/svg" viewBox="0 0 1940.71 1348">
  <defs>
    <style>
      .cls-1 {
        fill: #000;
      }

      .cls-1, .cls-2, .cls-3, .cls-4, .cls-5, .cls-6, .cls-7, .cls-8, .cls-9, .cls-10, .cls-11, .cls-12, .cls-13, .cls-14 {
        stroke-width: 0px;
      }

      .cls-2 {
        fill: #e0e0e0;
      }

      .cls-3 {
        fill: #eb996e;
      }

      .cls-4 {
        fill: #455a64;
      }

      .cls-5 {
        fill: #a36957;
      }

      .cls-6 {
        fill: #f5f5f5;
      }

      .cls-7 {
        fill: #09f;
      }

      .cls-15 {
        opacity: .29;
      }

      .cls-8 {
        fill: #ffbe9d;
      }

      .cls-9 {
        fill: #ebebeb;
      }

      .cls-10 {
        fill: #e2323d;
      }

      .cls-11 {
        fill: #263238;
      }

      .cls-12 {
        fill: #fafafa;
      }

      .cls-16 {
        opacity: .3;
      }

      .cls-13 {
        fill: #b78876;
      }

      .cls-14 {
        fill: #fff;
      }

      .cls-17 {
        opacity: .4;
      }
    </style>
  </defs>
  <path class="cls-2" d="M1390.88,46.21h-171.28v45.32h171.28v-45.32Z"/>
  <path class="cls-2" d="M1441.59,46.21c-.05-.28-.05-.56,0-.84v-11.23c0-7.84,0-19.07-.27-33.25l.53.54-171.28.34.87-.87v45.25l-1.1-.8,122.04.4,36.03.23h13.21-12.8l-35.83.27-122.64.8h-.87V.96c1.74-1.74.47-.5.87-.87l171.28.34h.54v.54c0,14.31-.2,25.68-.27,33.52v11.03c-.08.24-.18.48-.3.7Z"/>
  <path class="cls-2" d="M348.93,452.86h-171.28v45.32h171.28v-45.32Z"/>
  <path class="cls-12" d="M472.04,359.84h-171.28v45.32h171.28v-45.32Z"/>
  <path class="cls-2" d="M399.64,452.85c-.03-.27-.03-.54,0-.8v-11.23c0-7.84-.2-19.07-.3-33.25l.54.53-171.28.34.87-.87v45.21l-.84-.84,122.04.4,36.03.24h13.21c-.27.05-.54.05-.8,0h-12l-35.83.23-122.64.4h-.87v-45.59c1.74-1.74.47-.5.87-.87l171.28.34h.54v.53c0,14.31-.2,25.64-.27,33.52v11.03c-.16.24-.33.47-.53.67Z"/>
  <path class="cls-2" d="M172.02,180.99c-.03-.27-.03-.54,0-.8v-11.26c0-7.81-.17-19.07-.3-33.25l.54.54-171.25.34c.37-.37-.9.87.84-.87v45.28l-.87-.84,122.07.37,36,.27h13.21-12.8l-35.83.23-122.64.4h-.97v-46.15c1.74-1.74.5-.47.9-.87l171.25.37h.54v.5c0,14.31-.23,25.67-.3,33.52v11.03c0,.6-.34,1.24-.37,1.21Z"/>
  <path class="cls-2" d="M195.24,135.67c-.03-.28-.03-.56,0-.84v-2.41c0-2.21,0-5.26-.17-9.08,0-7.94-.2-19.17-.34-32.95l.64.6-102.9.27.87-.87v45.22l-.8-.8,73.74.37,21.45.23h7.84c-.62.05-1.25.05-1.88,0h-5.6l-21.25.2-74.18.4h-.84v-45.55c-.2.17,1.64-1.68.87-.87l102.9.23h.64v.64c-.17,13.94-.27,25.31-.37,33.32v8.95c0,2.25-.6,3.02-.64,2.95Z"/>
  <path class="cls-2" d="M1433.71,1005.87c-.03-.27-.03-.54,0-.8v-11.23c0-7.84,0-19.07-.3-33.25l.53.5-171.28.37.87-.87v45.21l-.84-.84,122.04.4,36.03.24h13.21c-.26.05-.54.05-.8,0h-12l-35.83.23-122.64.4h-.87v-45.58c1.74-1.75.47-.5.87-.87l171.28.34h.54v.54c0,14.31-.2,25.64-.27,33.52v11.03c-.16.24-.34.46-.54.67Z"/>
  <path class="cls-2" d="M1456.91,960.59v-12.37c0-7.94-.2-19.17-.34-32.95l.6.64-102.9.23.87-.87v45.25l-.84-.84,73.74.4,21.42.2h7.85c-.61.05-1.23.05-1.84,0h-5.63l-21.25.23-74.44.87h-.8v-46.05c-.17.17,1.68-1.64.87-.87l102.9.23h.64v.64c0,13.94-.24,25.31-.33,33.52v8.92c-.1.95-.26,1.89-.5,2.81Z"/>
  <path class="cls-12" d="M1729.68,668.78l-2.58-29.36,120.97,8.88v20.48h-118.39Z"/>
  <path class="cls-12" d="M1733.84,639.89v-17.1h112.45l-2.21,25.21-110.24-8.11Z"/>
  <path class="cls-12" d="M1722.74,607.07l2.28,15.72h111.11v-15.72h-113.39Z"/>
  <g class="cls-15">
    <path class="cls-2" d="M1733.84,622.79v3.69l108.57-3.69h-108.57Z"/>
  </g>
  <g class="cls-15">
    <path class="cls-2" d="M1733.84,639.89l110.24,8.11.37-4.06-110.61-4.05Z"/>
  </g>
  <g class="cls-15">
    <path class="cls-2" d="M1794.44,633.28l19.04-2.45,28.93,2.45h-47.96Z"/>
  </g>
  <g class="cls-15">
    <path class="cls-2" d="M1728.61,656.58h36l-35.76,2.55-.23-2.55Z"/>
  </g>
  <g class="cls-15">
    <path class="cls-2" d="M1762.13,614.91l74.01-2.28c.07,1.78-74.01,2.28-74.01,2.28Z"/>
  </g>
  <path class="cls-2" d="M1581.13,557.7v16.89h126.46v-16.89h-126.46Z"/>
  <path class="cls-12" d="M1598.36,558.41c1.07,5.22,1.07,10.6,0,15.82-1.07-5.22-1.07-10.6,0-15.82Z"/>
  <path class="cls-12" d="M1595.47,558.07c1.07,5.22,1.07,10.6,0,15.82-1.07-5.22-1.07-10.6,0-15.82Z"/>
  <path class="cls-12" d="M1697.8,558.41c1.07,5.22,1.07,10.6,0,15.82-1.03-5.22-1.03-10.6,0-15.82Z"/>
  <path class="cls-12" d="M1695.06,558.07c1.07,5.22,1.07,10.6,0,15.82-1.03-5.22-1.03-10.6,0-15.82Z"/>
  <path class="cls-12" d="M1678.56,566.65c0,.44-14.51.8-32.38.8s-32.35-.37-32.35-.8,14.48-.77,32.35-.77,32.38.34,32.38.77Z"/>
  <path class="cls-2" d="M1580.59,633.79v33.79h126.46v-33.79h-126.46Z"/>
  <path class="cls-12" d="M1708.66,658.05s-.2,0-.67.41c-.47.4-1.17.57-2.11.94-2.75,1.18-5.63,2.01-8.58,2.48-4.73.84-9.6.15-13.91-1.98-2.7-1.41-5-3.47-6.7-6-1.95-2.84-2.77-6.31-2.31-9.72.3-1.87,1.11-3.61,2.35-5.03.64-.79,1.46-1.41,2.38-1.84s1.93-.63,2.95-.61c1.05.09,2.06.4,2.99.9.92.5,1.73,1.19,2.38,2.02,1.38,1.62,2.24,3.61,2.45,5.73.17,2.2-.13,4.4-.88,6.47-.75,2.07-1.94,3.95-3.48,5.53-3.21,3.37-7.53,5.48-12.17,5.93-4.78.47-9.6-.12-14.11-1.74-4.82-1.52-9.1-4.39-12.33-8.28-1.64-2.1-2.63-4.65-2.85-7.31-.14-1.39.03-2.79.49-4.11.46-1.32,1.21-2.51,2.19-3.5,1.08-1.01,2.48-1.62,3.96-1.71,1.46-.06,2.9.34,4.12,1.14,2.36,1.55,4.03,3.95,4.66,6.7.53,2.7.34,5.49-.53,8.1-.87,2.61-2.41,4.95-4.46,6.78-4.01,3.38-8.98,5.42-14.21,5.8-4.98.58-10.02.08-14.78-1.47-4.66-1.47-8.65-4.56-11.23-8.72-1.27-1.97-2.06-4.21-2.3-6.54-.25-2.33.06-4.68.9-6.87.42-1.1,1.12-2.09,2.02-2.85.9-.77,1.98-1.29,3.14-1.54,1.11-.19,2.25-.16,3.34.11,1.1.26,2.13.75,3.03,1.43,1.57,1.39,2.7,3.21,3.24,5.24.54,2.03.46,4.17-.22,6.15-1.23,3.53-3.44,6.65-6.37,8.98-4.88,4.1-10.99,6.46-17.36,6.7-4.76.16-9.48-.91-13.71-3.12-2.67-1.36-5.1-3.16-7.17-5.33-.53-.55-1.04-1.14-1.51-1.74-.18-.21-.34-.43-.47-.67,2.67,2.95,5.86,5.38,9.42,7.17,4.85,2.41,10.31,3.32,15.68,2.62,5.37-.7,10.41-2.97,14.49-6.54,2.74-2.21,4.8-5.15,5.93-8.48.62-1.75.7-3.64.23-5.44-.47-1.79-1.48-3.4-2.88-4.62-.74-.57-1.6-.98-2.51-1.2-.91-.22-1.86-.25-2.78-.07-.94.2-1.81.64-2.53,1.26-.73.63-1.28,1.43-1.62,2.33-.72,1.99-.97,4.13-.73,6.23.24,2.1.98,4.13,2.13,5.9,2.41,3.85,6.12,6.7,10.46,8.04,4.56,1.43,9.36,1.88,14.11,1.34,4.93-.37,9.62-2.26,13.41-5.43,1.83-1.66,3.21-3.77,4-6.11.79-2.35.96-4.86.49-7.29-.52-2.37-1.94-4.45-3.95-5.8-.91-.67-2.02-.99-3.15-.92-1.12.07-2.19.52-3.02,1.29-.87.88-1.51,1.95-1.9,3.13-.38,1.18-.49,2.42-.32,3.64.21,2.35,1.1,4.6,2.55,6.47,3.04,3.65,7.06,6.35,11.6,7.78,4.29,1.56,8.86,2.15,13.41,1.74,4.3-.39,8.32-2.33,11.29-5.46,1.41-1.41,2.51-3.12,3.22-4.99.7-1.87,1-3.88.87-5.87-.09-1.83-.81-3.58-2.02-4.96-1.22-1.37-2.87-2.3-4.68-2.61-.83-.04-1.67.12-2.43.47-.76.34-1.44.86-1.96,1.51-1.08,1.26-1.81,2.79-2.11,4.42-.44,3.15.29,6.36,2.04,9.02,1.56,2.39,3.69,4.36,6.2,5.73,4.13,2.13,8.82,2.88,13.41,2.14,2.91-.39,5.76-1.1,8.51-2.11,2.01-.84,2.99-1.27,3.02-1.21Z"/>
  <path class="cls-9" d="M1591.89,575.09v58.63h115.17v-58.63h-115.17Z"/>
  <path class="cls-2" d="M1611.03,577.11c.78,9.43,1.03,18.9.77,28.36.26,9.47,0,18.95-.77,28.39-.8-9.44-1.07-18.92-.8-28.39-.26-9.46,0-18.93.8-28.36Z"/>
  <path class="cls-2" d="M1619.74,576.37c.8,9.32,1.07,18.68.8,28.02.26,9.34,0,18.68-.8,27.99-.8-9.31-1.07-18.65-.8-27.99-.26-9.35,0-18.71.8-28.02Z"/>
  <path class="cls-2" d="M1694.02,574.49c.82,9.81,1.09,19.66.81,29.5.28,9.84.01,19.69-.81,29.5-.78-9.81-1.03-19.66-.77-29.5-.26-9.84,0-19.69.77-29.5Z"/>
  <path class="cls-2" d="M1683.76,575.26c.8,9.56,1.07,19.17.81,28.76.26,9.58,0,19.17-.81,28.73-.77-9.55-1.03-19.14-.77-28.73-.26-9.59,0-19.19.77-28.76Z"/>
  <path class="cls-6" d="M1716.61,666.67h-171.35v554.6h171.35v-554.6Z"/>
  <path class="cls-2" d="M1862.08,666.77h-145.47v554.39h145.47v-554.39Z"/>
  <path class="cls-2" d="M1696.1,689.13h-137.46v119.46h137.46v-119.46Z"/>
  <path class="cls-2" d="M1696.1,822.13h-137.46v119.46h137.46v-119.46Z"/>
  <path class="cls-2" d="M1696.1,955.16h-137.46v119.46h137.46v-119.46Z"/>
  <path class="cls-2" d="M1696.1,1088.16h-137.46v119.46h137.46v-119.46Z"/>
  <path class="cls-12" d="M1627.38,711.18c0,.95-.27,1.88-.79,2.67-.52.79-1.27,1.41-2.14,1.78-.87.37-1.84.47-2.77.29-.93-.18-1.79-.64-2.46-1.3-.68-.67-1.13-1.52-1.32-2.45-.19-.93-.09-1.9.27-2.77.36-.88.98-1.63,1.77-2.16.79-.53,1.72-.81,2.67-.81,1.26,0,2.48.5,3.38,1.39.9.89,1.41,2.1,1.41,3.37Z"/>
  <path class="cls-12" d="M1627.38,845.76c0,.95-.28,1.87-.81,2.66-.53.79-1.28,1.4-2.15,1.76-.88.36-1.84.46-2.77.27-.93-.18-1.78-.64-2.45-1.31-.67-.67-1.13-1.52-1.31-2.45-.19-.93-.09-1.89.27-2.77.37-.87.98-1.62,1.77-2.15.79-.53,1.72-.81,2.66-.81,1.27,0,2.49.5,3.39,1.4.9.9,1.41,2.12,1.41,3.39Z"/>
  <path class="cls-12" d="M1627.38,980.3c.06.66-.03,1.33-.24,1.95-.21.63-.56,1.2-1.01,1.69-.45.49-.99.88-1.6,1.14s-1.26.4-1.93.4-1.32-.14-1.93-.4c-.61-.27-1.15-.66-1.6-1.14-.45-.49-.79-1.06-1.01-1.69-.21-.63-.3-1.29-.24-1.95.1-1.2.65-2.31,1.53-3.13.88-.81,2.04-1.26,3.24-1.26s2.36.45,3.25,1.26c.88.82,1.43,1.93,1.53,3.13Z"/>
  <path class="cls-12" d="M1627.38,1114.88c0,.95-.28,1.87-.81,2.66-.53.79-1.28,1.4-2.15,1.76-.88.36-1.84.46-2.77.27-.93-.18-1.78-.64-2.45-1.31-.67-.67-1.13-1.52-1.31-2.45-.19-.93-.09-1.9.27-2.77.37-.88.98-1.63,1.77-2.15.79-.53,1.72-.81,2.66-.81,1.27,0,2.49.51,3.39,1.41.9.9,1.41,2.12,1.41,3.39Z"/>
  <path class="cls-2" d="M1565.07,1221.26h-19.81v111.25h19.81v-111.25Z"/>
  <path class="cls-2" d="M1715.9,1221.26h-19.81v111.25h19.81v-111.25Z"/>
  <path class="cls-2" d="M1859.93,1221.26h-19.81v111.25h19.81v-111.25Z"/>
  <path class="cls-11" d="M1940.71,1333.52c0,.47-429.54.87-959.26.87s-959.39-.4-959.39-.87,429.47-.87,959.39-.87,959.26.47,959.26.87Z"/>
  <path class="cls-4" d="M1705.28,302.39h-293.32v192.87h293.32v-192.87Z"/>
  <path class="cls-12" d="M1694.95,310.3h-272.77v176.34h272.77v-176.34Z"/>
  <path class="cls-7" d="M1603.05,374.59h-88.99v48.53h88.99v-48.53Z"/>
  <path class="cls-11" d="M1263.44,215.98c.4-.02.8-.02,1.21,0h3.52c1.9.06,3.79.25,5.66.57,1.14,0,2.35.3,3.62.54l4.02,1.01c10,2.75,19.24,7.77,26.99,14.66,7.76,6.89,13.82,15.47,17.73,25.08,3.91,9.61,5.55,19.99,4.81,30.34-.75,10.35-3.86,20.39-9.11,29.34-7.51,12.72-18.94,22.66-32.58,28.32-7.18,2.97-14.83,4.66-22.59,4.99-7.99.48-16-.52-23.63-2.95l-.71-.24h.57l-39.48,13.68-1.61.57.5-1.64c3.55-11.33,6.97-22.32,10.26-32.88l.17.8c-7.01-7.84-12.09-17.22-14.85-27.37-2.76-10.15-3.1-20.81-1.01-31.12,1.7-8.7,5.12-16.97,10.06-24.33,4.27-6.26,9.57-11.77,15.65-16.29,2.6-1.96,5.34-3.74,8.18-5.33,2.6-1.29,5.28-2.44,8.01-3.42,2.32-.92,4.69-1.68,7.11-2.28,2.01-.55,4.04-.98,6.1-1.27,1.84-.23,3.35-.5,4.89-.64h5.76l-2.18.17-3.55.23c-1.41,0-3.02.5-4.86.77-2.03.33-4.03.8-6,1.41-2.39.62-4.73,1.4-7,2.35-2.64,1.07-5.21,2.27-7.71,3.62-2.79,1.6-5.46,3.38-8.01,5.33-5.93,4.52-11.07,9.99-15.22,16.19-4.84,7.24-8.19,15.38-9.85,23.93-1.97,10.07-1.57,20.45,1.16,30.34,2.73,9.89,7.71,19.01,14.56,26.64l.3.33v.47l-10.05,32.91-1.11-1.07,39.49-13.71h.57l.67.2c7.43,2.38,15.24,3.36,23.03,2.88,7.57-.32,15.02-1.95,22.02-4.83,13.24-5.49,24.35-15.13,31.68-27.45,8.62-14.63,11.34-31.99,7.6-48.55-3.74-16.56-13.65-31.07-27.71-40.58-5.87-3.96-12.33-6.96-19.14-8.88l-3.99-1.07c-1.24-.3-2.45-.44-3.55-.64-1.86-.38-3.74-.61-5.63-.7l-3.35-.27c-.48.01-.95-.04-1.41-.17Z"/>
  <path class="cls-7" d="M1223.75,288.01l10.39-10.39,20.04,17.83,39.32-37.84,9.65,10.36-50.48,47.5-28.93-27.45Z"/>
  <path class="cls-5" d="M952.56,867.21c6.34,2.21,16.76-23.7,17.93-25.81,1.17-2.11,4.16-.7,3.08,1.18-1.51,2.68-16.76,31.3-10.52,33.52,3.35,1.24,5.09-5.13,5.09-5.13,0,0,12.27-27.82,15.15-26.82,2.88,1.01-3.72,17.76-6.34,23.2-2.61,5.43-1.1,8.78,2.21,7.98,2.28-.57,10.73-17.03,13.21-22.46,2.48-5.43,9.02-20.45,11.83-10.42,2.82,10.02,8.75,16.76,11.6,17.36.65.03,1.3-.12,1.86-.45.56-.33,1.02-.81,1.31-1.4.29-.59.41-1.24.33-1.89s-.34-1.26-.76-1.76c-1.99-2.91-3.57-6.08-4.69-9.42-1.16-2.59-1.71-5.41-1.61-8.24,0-1.54.24-2.95.33-4.29l.17-4.43c.33-5.36.33-8.28.33-8.28l8.55-221.82-48.6-54.06-1.01,269.39h.2c-6.71,8.05-12.98,16.45-18.8,25.17-8.08,13.24-6.87,13.98-5.19,14.68,4.59,1.81,15.08-22.76,15.89-16.16.8,6.61-16.39,28.63-11.56,30.37Z"/>
  <path class="cls-4" d="M861.56,882.33h205.97v136.99h-206.97l1.01-136.99Z"/>
  <path class="cls-11" d="M885.49,882.33h205.97v136.99h-206.97l1.01-136.99Z"/>
  <path class="cls-11" d="M931.14,882.33s1.01-32.35,37.64-32.35,56.98.3,56.98.3v8.92h-57.08s-25.11-1.44-24.6,23.13h-12.94Z"/>
  <path class="cls-11" d="M872.65,883.23c.27,1.84.38,3.7.33,5.57,0,3.89.17,8.98.27,15.15.17,12.8.27,30.47.27,49.97,0,21.99,0,41.6-.34,54.3v.27l-.17.17-9.08,7.95c-1.04,1-2.16,1.91-3.35,2.71.89-1.14,1.89-2.2,2.98-3.15l8.75-8.35-.2.4c-.17-12.7-.3-32.31-.3-54.3,0-19.51,0-37.17.27-49.97,0-6.17.2-11.26.27-15.15-.06-1.86.04-3.72.3-5.57Z"/>
  <path class="cls-11" d="M872.65,1008.22c.33-.34,3.35,1.84,6.5,4.93,3.15,3.08,5.66,5.8,5.33,6.17-.33.37-3.35-1.84-6.5-4.89s-5.67-5.83-5.33-6.2Z"/>
  <path class="cls-4" d="M992.51,959.15c-.46.1-.93.16-1.41.17-1.36.07-2.73.07-4.09,0-4.99.04-9.98-.33-14.92-1.1-16.41-2.42-32.03-8.67-45.57-18.25-13.55-9.58-24.64-22.22-32.39-36.89-2.36-4.4-4.35-8.99-5.96-13.71-.47-1.27-.87-2.57-1.21-3.89-.27-.87-.37-1.37-.3-1.37.82,1.63,1.52,3.31,2.11,5.03,1.89,4.59,4.05,9.07,6.47,13.41,7.93,14.29,18.99,26.61,32.33,36.04,13.34,9.43,28.64,15.75,44.76,18.46,4.88.86,9.8,1.41,14.75,1.64,1.82,0,3.64.15,5.43.47Z"/>
  <path class="cls-13" d="M1155.88,752.61v-1.14c0-.27.07.57,0,1.14Z"/>
  <path class="cls-13" d="M1155.78,753.65v-1.04c.03.64,0,1.04,0,1.04Z"/>
  <path class="cls-13" d="M1195.94,1288.43s-80.14-277.2-81.69-285.91c-1.37-7.88,36.1-199.23,41.53-248.87l-113.76,1.07v.8l-54.97,1.54,28.56,552.58,60.67.87-2.58-185.92c29.83,87.48,67.57,186.29,67.57,186.29l54.67-22.46Z"/>
  <path class="cls-5" d="M1037.66,990.25c.17,0-.17,2.11-.33,5.93-.3,5.4-.21,10.81.27,16.19.71,7.97,2.07,15.87,4.06,23.63,2.63,9.45,5.84,18.73,9.62,27.78,7.51,19.57,14.18,37.34,18.97,50.28,2.25,6.27,4.12,11.43,5.53,15.32.75,1.83,1.36,3.73,1.81,5.66-.95-1.74-1.77-3.56-2.45-5.43l-5.9-15.18c-5.06-12.77-11.93-30.44-19.41-50.01l-5.43-14.31c-1.64-4.49-3.03-9.07-4.16-13.71-1.91-7.86-3.15-15.87-3.68-23.93-.37-5.45-.29-10.92.23-16.36.2-1.91.47-3.35.67-4.39.2-1.04.13-1.51.2-1.48Z"/>
  <path class="cls-5" d="M1074.16,1189.52c0-1.64,1.04-60.73,1.04-60.73,0,0-19.81-54.8-20.31-53.13-.5,1.68,19.27,113.86,19.27,113.86Z"/>
  <path class="cls-4" d="M1190.27,565.21s-3.35-7.94-9.65-58.09c-2.72-21.82-17.56-35.33-33.52-43.58v-.3l-1.41-.4c-13.12-6.32-27.2-10.41-41.67-12.1l-56.24-.94s-39.01-2.95-67.47,23.46c-9.32,8.65-18.91,86.07-18.91,86.07l28.16,10.06-.23-11.43s-1.18,23.19,6.5,36.67c7.68,13.48,18.1,31.91,18.1,31.91l-12,56.24c-7.44,21.45-31.98,99.78-22.35,177.35,11.93,96.1,13.81,124.02,13.81,124.02l135.88,18.61s54.33-203.46,35.73-284.3c-12.8-55.51-22.56-52.92-25.67-64.96l3.52-86.48,47.43-1.81Z"/>
  <path class="cls-11" d="M1121.89,644.25c-1.4.46-2.85.75-4.32.87-2.78.47-6.87.97-11.93,1.51-13.17,1.3-26.41,1.84-39.65,1.61-13.24-.22-26.46-1.23-39.58-3.02-5.03-.71-9.08-1.37-11.86-1.95-1.46-.2-2.9-.53-4.29-1.01,1.47-.05,2.94.06,4.39.34l11.93,1.37c10.05,1.11,24,2.25,39.45,2.52,15.45.27,29.43-.37,39.52-1.11l11.97-.94c1.45-.2,2.92-.27,4.39-.2Z"/>
  <path class="cls-11" d="M1167.71,796.52c-.1.91-.28,1.81-.54,2.68l-1.84,7.61c-.4,1.68-.87,3.35-1.37,5.5-.5,2.14-1.31,4.12-2.05,6.4-1.57,4.59-3.05,10.05-5.53,15.45-1.14,2.86-2.35,5.81-3.62,8.85-1.27,3.08-2.92,6.13-4.46,9.35-2.95,6.54-6.91,13.07-10.93,20.11-18.14,29.96-42.06,56-70.39,76.59-6.7,4.56-12.87,9.05-19.11,12.57-3.12,1.78-6,3.68-8.95,5.19l-8.51,4.36c-5.36,2.88-10.52,4.83-14.95,6.7-2.25.91-4.29,1.84-6.23,2.58l-5.36,1.81-7.44,2.45c-.85.33-1.72.59-2.61.77.81-.43,1.65-.8,2.51-1.11l7.31-2.75,5.3-1.98c1.91-.74,3.92-1.71,6.13-2.68,4.39-2.01,9.49-4.02,14.78-6.97l8.41-4.42c2.91-1.54,5.8-3.35,8.85-5.26,6.2-3.55,12.33-8.04,18.9-12.6,28.07-20.63,51.88-46.48,70.12-76.15,3.99-6.94,7.98-13.41,10.99-19.88,1.54-3.35,3.35-6.23,4.53-9.25l3.69-8.75c2.51-5.53,4.09-10.79,5.73-15.32.8-2.28,1.57-4.36,2.18-6.34l1.54-5.43c.87-3.15,1.61-5.67,2.14-7.51.17-.88.43-1.75.77-2.58Z"/>
  <path class="cls-14" d="M1182.46,536.12c-.66.48-1.37.88-2.11,1.21-1.41.77-3.35,1.84-6.27,3.15-7.67,3.98-15.9,6.78-24.4,8.31-6,.87-12.11.52-17.97-1.01-3.27-.86-6.39-2.22-9.25-4.02-3-1.98-5.68-4.41-7.94-7.21-4.48-6.12-8.5-12.56-12.03-19.27-3.96-6.7-9.02-13.41-16.76-15.92-7.74-2.51-15.92-.67-23.46,1.44-7.18,2.53-14.64,4.14-22.22,4.79-4.52.16-9.03-.62-13.23-2.31-4.2-1.68-8-4.23-11.16-7.47-3.16-3.24-5.6-7.11-7.17-11.36-1.57-4.24-2.24-8.77-1.95-13.29.21-3.74,1.05-7.42,2.48-10.89,1.16-2.98,2.87-5.71,5.06-8.04-1.74,2.61-3.22,5.38-4.42,8.28-1.27,3.43-2,7.04-2.14,10.69-.28,5.34.85,10.67,3.26,15.44,2.41,4.77,6.04,8.83,10.51,11.77,5.51,3.85,12.12,5.81,18.84,5.57,7.43-.69,14.75-2.32,21.79-4.83,3.86-1.18,7.8-2.04,11.8-2.58,4.21-.57,8.49-.19,12.54,1.11,4.02,1.43,7.62,3.81,10.52,6.94,2.75,2.98,5.14,6.27,7.14,9.79,3.5,6.64,7.45,13.02,11.83,19.11,4.13,5.3,9.87,9.12,16.36,10.89,5.67,1.51,11.58,1.89,17.4,1.14,8.46-1.33,16.69-3.86,24.43-7.51l6.4-2.85c.68-.42,1.4-.78,2.14-1.07Z"/>
  <path class="cls-14" d="M1102.75,654.84c1.16-1.7,1.96-3.61,2.38-5.63.34-2.78.05-5.6-.85-8.25-.91-2.65-2.4-5.05-4.38-7.04-2.69-2.77-6.02-4.84-9.69-6.03-4.24-1.43-8.62-2.39-13.07-2.85-4.72-.64-9.75-1.01-14.91-2.14-5.45-.98-10.59-3.19-15.05-6.47-2.23-1.76-4.12-3.92-5.57-6.37-1.34-2.35-2.47-4.82-3.35-7.38-1.38-4.76-3.21-9.39-5.46-13.81-2.11-3.55-5.09-6.52-8.65-8.62-3.56-2.1-7.6-3.28-11.73-3.41-5.65-.1-11.16,1.68-15.69,5.06-3.35,2.41-4.49,4.32-4.63,4.19.25-.49.55-.95.91-1.37,1-1.23,2.12-2.36,3.35-3.35,2.82-2.32,6.11-4,9.65-4.93,3.53-.93,7.23-1.08,10.83-.44,3.6.64,7.02,2.05,10.02,4.13,3,2.08,5.52,4.8,7.37,7.94,2.36,4.47,4.27,9.16,5.7,14.01,1.46,5.05,4.36,9.57,8.35,13,4.25,3.09,9.14,5.19,14.31,6.14,5.03,1.14,10.06,1.54,14.78,2.21,9.45,1.21,18.44,3.89,23.46,9.65,2.04,2.14,3.55,4.72,4.41,7.54.86,2.82,1.05,5.81.55,8.72-.33,1.56-.98,3.03-1.91,4.32-.8.8-1.14,1.24-1.14,1.17Z"/>
  <path class="cls-14" d="M1155.31,892.89c-4.47-.44-8.99-.25-13.41.57-4.26.77-9.35,2.28-15.29,4.02-6.7,2.24-13.69,3.49-20.75,3.72-8.62.17-17.18-1.5-25.11-4.89-9.16-3.88-17.04-10.28-22.69-18.47-6.05-9.27-8.62-20.38-7.27-31.37.63-5.79,2.38-11.4,5.16-16.52,2.9-5.3,6.94-9.88,11.83-13.41,4.76-3.52,10.06-6.7,12.44-11.6,1.22-2.43,1.62-5.2,1.14-7.88-.53-2.69-1.44-5.3-2.68-7.74-2.81-4.84-4.71-10.16-5.6-15.69-.54-5.41.26-10.86,2.34-15.89,3.91-9.27,11.28-16.65,20.55-20.58,7.94-3.36,16.53-4.9,25.14-4.49,6.96.37,13.95.16,20.88-.6,5.16-.75,10.08-2.68,14.38-5.63,2.77-1.85,5.07-4.33,6.7-7.24,1.07-2.01,1.34-3.35,1.44-3.18-.2,1.17-.57,2.29-1.1,3.35-1.56,3.08-3.87,5.72-6.7,7.68-4.37,3.13-9.41,5.21-14.71,6.07-6.98.86-14.02,1.15-21.05.87-8.42-.32-16.8,1.25-24.54,4.59-8.89,3.81-15.94,10.93-19.68,19.84-1.95,4.77-2.7,9.95-2.18,15.08.89,5.34,2.76,10.48,5.5,15.15,1.32,2.59,2.28,5.36,2.85,8.21.52,3.03.08,6.15-1.27,8.92-2.88,5.57-8.31,8.75-12.97,12.24-4.59,3.34-8.43,7.62-11.24,12.56-2.82,4.93-4.56,10.41-5.11,16.06-1.26,10.56,1.19,21.23,6.94,30.17,5.45,7.97,13.07,14.22,21.95,18,7.71,3.39,16.05,5.1,24.47,4.99,6.96-.15,13.87-1.28,20.51-3.35,5.08-1.54,10.24-2.8,15.45-3.76,3.32-.58,6.7-.72,10.05-.44,1.22.1,2.44.32,3.62.64Z"/>
  <path class="cls-14" d="M1107.88,999.78s.17-2.31.27-6.5c.29-5.88-.75-11.74-3.05-17.16-1.66-3.63-4.54-6.57-8.15-8.28-4.27-1.64-8.85-2.32-13.41-2.01-5.32.41-10.67-.26-15.72-1.98-2.62-1.2-4.92-3-6.7-5.26-1.8-2.27-3.35-4.73-4.62-7.34-2.21-5.07-5.09-9.82-8.58-14.11-3.45-3.91-7.58-7.16-12.2-9.58-7.69-4.17-16.52-5.74-25.17-4.49-5.84.81-11.44,2.79-16.49,5.83-3.59,2.18-5.33,3.75-5.43,3.62.35-.46.75-.86,1.21-1.21,1.2-1.1,2.49-2.1,3.86-2.98,5.06-3.34,10.77-5.56,16.76-6.5,8.94-1.44,18.1.07,26.11,4.29,4.71,2.5,8.93,5.83,12.47,9.82,1.84,2.08,3.48,4.32,4.89,6.7,1.41,2.48,2.61,5.06,3.95,7.58,2.01,5.07,5.75,9.26,10.56,11.83,4.84,1.63,9.95,2.29,15.05,1.95,4.83-.29,9.66.5,14.14,2.31,3.87,1.89,6.94,5.1,8.65,9.05,2.28,5.61,3.18,11.7,2.61,17.73-.1,1.62-.29,3.23-.57,4.83-.23,1.34-.37,1.91-.44,1.88Z"/>
  <path class="cls-14" d="M1027.51,722.61s-.97,2.08-2.75,5.73c-2.71,5.06-4.41,10.59-5.03,16.29-.21,3.89.64,7.77,2.45,11.23,2.26,3.95,4.81,7.73,7.64,11.3,3.22,4.31,5.55,9.23,6.85,14.45,1.3,5.23,1.55,10.66.72,15.98-.88,5.34-3.01,10.39-6.21,14.76-3.2,4.36-7.39,7.91-12.22,10.35-4.22,2.15-8.88,3.3-13.61,3.35-5.01-.05-9.93-1.38-14.28-3.86-4.35-2.48-8-6.03-10.6-10.31-.81-1.37-1.46-2.83-1.94-4.36-.18-.52-.32-1.06-.4-1.61.2,0,.77,2.18,2.91,5.6,3.15,4.79,7.64,8.54,12.9,10.79,3.6,1.56,7.48,2.35,11.4,2.31,4.49-.13,8.89-1.27,12.87-3.35,4.58-2.35,8.54-5.75,11.57-9.91,3.03-4.16,5.03-8.98,5.86-14.06.79-5.1.57-10.3-.66-15.31-1.22-5.01-3.43-9.73-6.48-13.88-2.83-3.66-5.39-7.53-7.64-11.56-1.86-3.7-2.67-7.84-2.35-11.97.69-5.84,2.6-11.47,5.6-16.52,1.01-1.81,1.84-3.15,2.41-4.09s.91-1.37.97-1.34Z"/>
  <path class="cls-11" d="M1128.5,610.13c-.3-1.31-.45-2.65-.44-3.99,0-2.95-.33-6.7-.54-10.89-.47-9.58-1.07-22.12-1.74-35.96-.67-13.84-1.1-26.82-1.24-36v-10.93c-.04-1.33.05-2.67.27-3.99.31,1.31.45,2.65.44,3.99,0,2.95.3,6.7.54,10.89.47,9.58,1.07,22.12,1.74,35.96.67,13.84,1.11,26.82,1.24,36v10.93c.04,1.33-.05,2.67-.27,3.99Z"/>
  <path class="cls-13" d="M1128.8,568.9s0,60.03-15.02,65.73c-40.89,15.45-89.79,11.9-106.99,10.29-2.08-1.44-4.46-3.18-7.14-5.4-2.34-1.87-4.34-4.15-5.9-6.7-2.07-3.12-3.72-6.5-4.89-10.05-.06-.73-.36-1.42-.84-1.96-.49-.55-1.14-.92-1.86-1.06-.72-.14-1.46-.04-2.12.28-.66.32-1.19.85-1.52,1.5-1.24,2.88-.84,13.41,5.76,22.29.31.57.49,1.2.53,1.85.04.65-.06,1.3-.3,1.9-.24.6-.6,1.15-1.07,1.6-.47.45-1.03.79-1.64,1.01-6.87,3.35-31.24,13.68-35.09,15.99-3.85,2.31-6.7,5.49-2.78,5.73,3.92.23,24.33-4.83,24.33-4.83,0,0-26.82,6.1-25.88,10.05.74,2.68,8.21,3.35,25.64-2.55,0,0-22.19,5.16-24.3,7.77-4.76,5.83,21.99,0,21.99,0-18.7,4.36-18.61,3.35-18.54,5.93,0,1.98,4.39,2.35,14.82,1.41,8.45-.74,17.33.2,30.17-.24,0,0,166.95,29.76,182.14-43.94,8.21-39.72,6.7-54.4,8.48-80.04"/>
  <path class="cls-5" d="M981.01,679.71c-4.05,1.73-8.31,2.91-12.67,3.52-4.25,1.17-8.63,1.78-13.04,1.81,4.06-1.66,8.32-2.79,12.67-3.35,4.25-1.19,8.63-1.86,13.04-1.98Z"/>
  <path class="cls-5" d="M980.11,672.36c-4.26,2.06-8.77,3.57-13.41,4.49-4.45,1.52-9.08,2.47-13.78,2.82,8.69-3.55,17.79-6,27.09-7.31h.1Z"/>
  <path class="cls-5" d="M979.11,664.73c-3.95,2.04-8.16,3.55-12.5,4.49-4.2,1.48-8.57,2.41-13.01,2.78,3.96-2.04,8.18-3.54,12.54-4.46,4.19-1.48,8.55-2.42,12.97-2.82Z"/>
  <path class="cls-11" d="M1030.86,316.13c-3.42,6.65-4.82,14.15-4.02,21.59.54,4.86,1.84,10.05-.84,14.25-3.35,4.93-10.93,5.33-14.14,10.29-4.63,7.17,3.52,17.26-.2,24.94-2.45,5.09-8.88,6.7-13.24,10.05-2.96,2.62-4.98,6.15-5.72,10.05-.74,3.89-.17,7.91,1.63,11.44,3.15,6.13,9.39,10.05,15.29,13.57l13.58,8.18c2.27,1.73,5.06,2.64,7.91,2.58,4.96-.7,7.31-6.7,11.8-9.02,5.57-2.78,12.07,1.07,18.27,1.48,2.31.15,4.63-.19,6.8-1,2.17-.82,4.14-2.09,5.77-3.72,1.64-1.64,2.91-3.61,3.72-5.77.82-2.17,1.16-4.49,1-6.8"/>
  <path class="cls-13" d="M1046.11,458.52c1.51-15.62,2.78-32.11,2.78-32.11,0,0-19.88-5.33-21.38-31.81-1.51-25.41,8.31-82.82,8.31-82.82,14.84-4.32,30.65-4.01,45.31.91,14.66,4.91,27.47,14.19,36.71,26.58l-14.18,126.67c-.52,3.59-1.75,7.03-3.6,10.14-1.86,3.11-4.32,5.82-7.24,7.97-2.91,2.15-6.23,3.7-9.74,4.56-3.52.86-7.17,1.02-10.75.46-15.89-2.08-27.62-15.65-26.21-30.53Z"/>
  <path class="cls-11" d="M1033.71,356.9c-.1.88.14,1.76.69,2.46.55.7,1.35,1.15,2.22,1.26.86.13,1.73-.08,2.43-.58.71-.5,1.19-1.25,1.36-2.1.1-.88-.14-1.76-.69-2.46s-1.35-1.15-2.23-1.26c-.85-.13-1.72.08-2.43.58-.71.5-1.19,1.25-1.36,2.1Z"/>
  <path class="cls-11" d="M1033.74,353.17c.37.5,3.08-1.14,6.7-.77,3.62.37,6.1,2.45,6.54,2.04.44-.4,0-1.04-1.21-1.98-1.45-1.26-3.25-2.02-5.16-2.18-1.89-.18-3.79.23-5.43,1.18-1.18.74-1.64,1.51-1.44,1.71Z"/>
  <path class="cls-11" d="M1071.38,361.79c-.1.88.14,1.76.69,2.46.55.7,1.35,1.15,2.23,1.26.85.12,1.72-.1,2.42-.6s1.18-1.26,1.33-2.11c.1-.87-.15-1.74-.69-2.43-.54-.69-1.33-1.14-2.19-1.26-.86-.13-1.73.08-2.43.58-.71.5-1.19,1.25-1.36,2.1Z"/>
  <path class="cls-11" d="M1071.38,358.23c.4.47,3.12-1.17,6.7-.8,3.59.37,6.1,2.45,6.7,2.04.6-.4,0-1-1.21-1.98-1.46-1.23-3.26-1.99-5.16-2.18-1.89-.19-3.79.22-5.43,1.17-1.31.77-1.78,1.51-1.61,1.74Z"/>
  <path class="cls-11" d="M1055.59,383.81c-1.84-.79-3.78-1.35-5.76-1.64-.91-.2-1.78-.47-1.88-1.11.02-.96.34-1.9.91-2.68,1.07-2.14,2.21-4.42,3.35-6.7,3.14-5.71,5.8-11.68,7.95-17.83-3.56,5.46-6.69,11.19-9.35,17.13-1.16,2.37-2.28,4.6-3.35,6.7-.7,1.06-1,2.33-.84,3.59.1.34.28.65.52.91.24.26.53.47.86.6.5.19,1.02.31,1.54.37,1.98.49,4.03.71,6.07.67Z"/>
  <path class="cls-5" d="M1048.89,426.41c12.34,1.41,24.82-.63,36.07-5.9,0,0-10.29,17.19-36.34,12.13l.27-6.23Z"/>
  <path class="cls-5" d="M1056.26,392.69c.78-.79,1.75-1.38,2.81-1.71,1.06-.33,2.19-.39,3.29-.17.79.15,1.55.46,2.21.91.67.45,1.24,1.03,1.68,1.71.45.64.7,1.4.7,2.18s-.24,1.54-.7,2.18c-.64.59-1.45.98-2.32,1.11-.87.13-1.75,0-2.54-.37-1.66-.82-3.14-1.96-4.36-3.35-.38-.33-.7-.73-.94-1.18-.14-.2-.21-.43-.21-.67s.07-.47.21-.67"/>
  <path class="cls-11" d="M1065.88,387.36c-.57,0-.97,3.82-4.63,6.3-3.65,2.48-7.77,1.61-7.88,2.14s.87.87,2.65,1.07c2.29.26,4.61-.29,6.54-1.58,1.84-1.24,3.14-3.13,3.62-5.3.44-1.64.1-2.65-.3-2.65Z"/>
  <path class="cls-8" d="M1105.33,367.12c2.87-.32,5.78.14,8.41,1.34,2.62,1.26,4.64,3.5,5.63,6.23.8,2.8.53,5.8-.77,8.41-1.29,2.61-3.16,4.91-5.46,6.7-1.56,1.37-3.42,2.35-5.43,2.88-1.01.25-2.06.25-3.07,0-1.01-.26-1.93-.76-2.7-1.46"/>
  <path class="cls-3" d="M1105.2,384.28c-.33,0,.74,1.88,3.35,1.44,1.39-.36,2.59-1.23,3.35-2.45.91-1.37,1.55-2.91,1.88-4.53.37-1.72.12-3.51-.7-5.06-.34-.64-.82-1.21-1.4-1.64-.58-.44-1.25-.75-1.96-.9-2.61-.3-3.62,1.44-3.35,1.51.27.07,1.31-.6,2.98,0,1.01.51,1.8,1.37,2.24,2.41.44,1.04.48,2.21.14,3.29-.6,2.85-1.95,5.4-3.55,5.9-1.61.5-2.78-.2-2.99.03Z"/>
  <path class="cls-11" d="M1042.66,305.11c-1.45,3.88-1.61,8.12-.45,12.1s3.57,7.47,6.88,9.96c6.7,4.86,15.72,4.66,23.9,6.07,8.18,1.41,17.29,6.34,17.87,14.61.33,5.03-2.68,10.06-.87,14.92,2.11,5.49,9.62,7.11,12.27,12.37,4.26,8.45-6.7,17.7-5.26,27.01.94,5.53,6.13,9.55,7.27,15.05,1.64,7.81-5.2,17.06,0,23.23,3.85,4.76,11.5,3.35,16.76.3,5.26-3.05,11.23-6.7,17.16-5.1,3.37,1.45,6.58,3.28,9.55,5.43,2.98,1.56,6.35,2.2,9.7,1.85,3.34-.36,6.51-1.69,9.09-3.84,2.59-2.15,4.48-5.02,5.43-8.24.95-3.22.94-6.66-.06-9.87-1.89-4.57-4.48-8.81-7.68-12.57-3.26-3.82-4.88-8.77-4.49-13.78,1.12-3.62,2.85-7.02,5.13-10.05,1.12-1.52,1.84-3.31,2.08-5.19.24-1.88,0-3.79-.71-5.54-3.35-5.83-12.87-4.22-17.02-9.39-5.7-7.14,4.46-18.13.64-26.41-4.36-9.39-21.42-5.73-25.81-15.08-1.57-3.35-.77-7.44-1.54-11.13-1.81-8.41-11.33-12.87-19.91-13.41-8.58-.54-17.26,1.54-25.74.27-4.66-.7-9.12-2.38-13.74-3.35-4.58-1.26-9.45-.93-13.81.94-2.15.98-3.9,2.66-4.96,4.77-1.06,2.11-1.37,4.52-.87,6.83"/>
  <path class="cls-11" d="M1048.49,322.84c-1.98,4.49-4.95,8.47-8.71,11.63-3.75,3.16-8.18,5.42-12.95,6.6-.82-6.46-.82-12.99,0-19.44.86-6.51,3.78-12.58,8.35-17.3,2.3-2.31,5.15-4,8.27-4.92,3.13-.92,6.44-1.04,9.62-.34"/>
  <path class="cls-4" d="M1154.94,440.08c.57-.4,1.03-.94,1.34-1.57.38-.91.53-1.9.44-2.88-.09-.98-.41-1.93-.94-2.76-.76-1.19-1.81-2.17-3.05-2.85-1.51-.8-3.09-1.45-4.73-1.95-1.91-.54-3.75-1.29-5.49-2.25-1.02-.52-1.92-1.25-2.65-2.14-.73-.89-1.26-1.92-1.57-3.02-.4-2.49.1-5.05,1.41-7.21,1.14-2.28,2.65-4.49,3.65-6.97,1.01-2.69,1.37-5.57,1.05-8.43-.31-2.85-1.29-5.59-2.86-8-1.62-2.65-3.94-4.8-6.7-6.2-2.82-1.41-6.07-2.18-9.15-3.52-1.61-.68-3.08-1.65-4.32-2.88-1.26-1.29-2.08-2.95-2.35-4.73-.21-3.53.11-7.08.94-10.52.45-3.41-.01-6.88-1.34-10.05-1.3-3.11-3.19-5.95-5.56-8.35-4.62-4.42-10.26-7.63-16.42-9.35-5.59-1.59-11.26-2.86-16.99-3.79-5.02-.77-9.98-1.89-14.85-3.35-4.03-1.26-7.84-3.12-11.33-5.49-2.62-1.8-4.95-3.99-6.91-6.5-1.22-1.6-2.23-3.34-3.02-5.19-.27-.64-.49-1.3-.67-1.98,0,0,.27.67.81,1.91.82,1.82,1.87,3.53,3.12,5.1,4.76,5.61,11.08,9.67,18.17,11.66,4.85,1.45,9.78,2.56,14.78,3.35,5.76.9,11.47,2.14,17.09,3.72,6.29,1.73,12.05,5,16.76,9.52,2.44,2.45,4.39,5.36,5.73,8.55,1.38,3.31,1.85,6.93,1.37,10.49-.8,3.38-1.12,6.85-.94,10.32.26,1.63,1.01,3.13,2.14,4.33,1.17,1.16,2.56,2.07,4.09,2.68,3.02,1.34,6.23,2.11,9.18,3.55,2.86,1.5,5.27,3.75,6.97,6.5,1.6,2.5,2.6,5.34,2.91,8.3.31,2.96-.08,5.95-1.13,8.73-1.04,2.58-2.58,4.76-3.69,7-1.24,2-1.74,4.37-1.41,6.7.29,1.03.79,2,1.46,2.83.67.84,1.51,1.52,2.46,2.02,1.71.95,3.52,1.72,5.4,2.28,1.65.51,3.25,1.2,4.76,2.04,1.29.72,2.38,1.76,3.15,3.02.54.87.85,1.86.91,2.89.06,1.02-.12,2.04-.55,2.98-.31.64-.83,1.15-1.47,1.44Z"/>
  <path class="cls-4" d="M1148.74,358.87h-1.31c-1.24.25-2.49.43-3.76.54-2,.25-4.03.17-6-.24-2.63-.56-4.99-1.99-6.7-4.06-2.02-2.55-3.48-5.5-4.29-8.65-.84-3.57-1.88-7.08-3.12-10.53-1.6-3.69-4.07-6.93-7.21-9.45-3.38-2.7-7.2-4.79-11.29-6.2-8.06-2.34-16.38-3.69-24.77-4.02-3.85-.34-7.54-.71-10.96-1.31-3.18-.51-6.31-1.29-9.35-2.31-4.44-1.43-8.56-3.71-12.13-6.7-1.26-1.12-2.38-2.38-3.35-3.75l.23.23.67.7c.86.92,1.77,1.78,2.75,2.58,3.58,2.92,7.69,5.13,12.1,6.5,3.03.98,6.14,1.72,9.29,2.21,3.35.57,7.07.91,10.93,1.21,8.46.29,16.85,1.64,24.97,4.02,4.17,1.44,8.06,3.58,11.5,6.34,3.22,2.6,5.76,5.95,7.38,9.75,1.24,3.46,2.27,7,3.08,10.59.76,3.09,2.16,5.98,4.12,8.48,1.64,2.03,3.92,3.45,6.47,4.02,1.94.4,3.93.51,5.9.33,1.61,0,2.88-.27,3.75-.37l1.11.07Z"/>
  <path class="cls-4" d="M1010.28,428.99h-.5c-.49-.21-.96-.45-1.41-.74-1.64-1.02-3.05-2.37-4.16-3.95-1.69-2.36-2.68-5.15-2.85-8.04-.14-3.6,1.06-7.11,3.35-9.89,2.23-2.8,5.38-4.74,8.88-5.46,2.81-.17,5.6-.56,8.35-1.17.87-.3,1.68-.79,2.34-1.42.67-.64,1.2-1.41,1.55-2.26.2-.65.27-1.33.2-2.01v.5c.11.53.11,1.08,0,1.61-.32.93-.85,1.78-1.54,2.49-.69.71-1.52,1.25-2.45,1.6-2.76.71-5.57,1.16-8.41,1.34-3.33.74-6.31,2.6-8.45,5.26-2.22,2.62-3.41,5.96-3.35,9.39.13,2.78,1.02,5.47,2.58,7.77,1.04,1.57,2.36,2.93,3.89,4.02,1.34.6,2.01.91,1.98.97Z"/>
  <path class="cls-13" d="M1024.32,450.61c-2.18.37.47,73.34,48.27,76.12,45.25,2.58,48.94-72,48.94-72,0,0-54.74-11.5-97.2-4.12Z"/>
  <path class="cls-7" d="M1015.61,1315.38v-6.47h60.97l.17,21.35-3.75.27c-16.76.97-85.24,3.82-96.43.47-12.54-3.86,39.05-15.62,39.05-15.62Z"/>
  <g class="cls-16">
    <path class="cls-14" d="M1054.69,1329.76c.89-5.12,3.64-9.74,7.71-12.97,4.01-3.19,9.06-4.78,14.18-4.46v16.96l-21.89.47Z"/>
  </g>
  <g class="cls-16">
    <path class="cls-14" d="M990.37,1322.02s-18.03,5.3-15.79,8.25c2.25,2.95,71.56,2.72,102.13,0v-1.34l-80.84,1s-1.95-7.77-5.5-7.91Z"/>
  </g>
  <path class="cls-11" d="M1077.55,1328.79h-1.04l-2.98.2-11,.77c-9.32.37-22.19.74-36.43.8-14.25.07-27.12-.17-36.43-.44l-11.03-.44-2.99-.17c-.34.05-.69.05-1.04,0,.34-.04.69-.04,1.04,0h14.15c9.32.17,22.19.3,36.4.24,14.21-.07,27.08-.34,36.4-.57l11.03-.3h4.06l-.13-.1Z"/>
  <path class="cls-11" d="M995.8,1330.77c-.49-1.83-1.19-3.59-2.08-5.26-1.1-1.54-2.37-2.95-3.79-4.19,1.9.68,3.48,2.04,4.42,3.82,1.15,1.64,1.66,3.64,1.44,5.63Z"/>
  <path class="cls-11" d="M1013.66,1321.62c-.17,0-1.04-.94-1.91-2.31s-1.47-2.61-1.31-2.72c.17-.1,1.04.91,1.91,2.31.87,1.41,1.48,2.61,1.31,2.72Z"/>
  <path class="cls-11" d="M1018.56,1319s-1.07-.5-2.14-1.44c-1.07-.94-1.78-1.81-1.64-1.95.14-.14,1.11.47,2.15,1.41,1.04.94,1.81,1.81,1.64,1.98Z"/>
  <path class="cls-11" d="M1021.64,1313.27c-1.01.37-2.08.5-3.15.4-1.07.13-2.16.02-3.18-.33,1.02-.37,2.11-.5,3.18-.41,1.74.07,3.15.07,3.15.34Z"/>
  <path class="cls-11" d="M1022.71,1309.22c-1.05.68-2.27,1.04-3.52,1.04-1.23.18-2.49-.03-3.59-.6,1.18-.2,2.38-.29,3.59-.27,1.17-.15,2.34-.21,3.52-.17Z"/>
  <path class="cls-11" d="M1011.58,1316.35c-1.29.24-2.6.24-3.89,0-1.41-.17-2.8-.47-4.15-.91-.83-.23-1.63-.55-2.38-.97-.24-.12-.44-.29-.61-.5-.17-.21-.29-.45-.36-.71-.07-.28-.05-.58.05-.86.1-.28.28-.51.52-.68.95-.44,1.99-.67,3.05-.67,1.05,0,2.09.23,3.05.67.95.44,1.8,1.08,2.49,1.88.68.8,1.18,1.74,1.47,2.75.07.36.07.72,0,1.07-.39-1.22-1-2.36-1.81-3.35-.87-1.04-2.04-1.79-3.35-2.14-.76-.25-1.56-.35-2.36-.29-.8.06-1.58.27-2.3.63-.6.44-.37,1.17.34,1.57.69.4,1.42.71,2.18.94,1.31.45,2.66.8,4.02,1.04,2.58.53,4.06.53,4.06.53Z"/>
  <path class="cls-11" d="M1010.58,1316.52c-.49-.81-.66-1.78-.47-2.72.12-1.02.49-2,1.07-2.85.33-.6.81-1.1,1.41-1.45.59-.35,1.26-.53,1.95-.53.2.04.38.11.55.22.17.11.31.25.42.41.11.17.19.35.23.55s.04.4,0,.59c-.09.62-.3,1.21-.64,1.74-.51.87-1.13,1.67-1.84,2.38-.6.7-1.36,1.24-2.21,1.57,0,0,.77-.7,1.84-1.94.62-.72,1.16-1.51,1.61-2.35.54-.8.91-2.31,0-2.48-.91-.17-1.98.91-2.58,1.68-.55.75-.91,1.63-1.07,2.55-.17.86-.26,1.74-.27,2.61Z"/>
  <path class="cls-11" d="M1076.24,1312.16s-1.74,0-4.46.17c-3.57.46-6.95,1.87-9.79,4.09-2.81,2.26-4.94,5.25-6.17,8.65-.91,2.61-1,4.36-1.14,4.36-.07-.41-.07-.83,0-1.24.1-1.14.31-2.26.64-3.35,1.07-3.58,3.2-6.75,6.11-9.08,2.91-2.34,6.46-3.74,10.18-4.02,1.11-.11,2.24-.11,3.35,0,.45.06.88.21,1.27.44Z"/>
  <path class="cls-11" d="M1047.05,1323.89c-2.91.67-5.9.97-8.88.91-2.97.14-5.94-.08-8.85-.67,0-.24,3.95,0,8.85,0s8.85-.47,8.88-.24Z"/>
  <path class="cls-11" d="M1058.94,1323.83s-.33.84-.74,1.74c-.4.91-.6,1.71-.84,1.71s-.3-.97.17-2.01c.47-1.04,1.28-1.61,1.41-1.44Z"/>
  <path class="cls-11" d="M1063.4,1318.23s-.27.77-.87,1.41c-.6.64-1.27,1.04-1.41.91-.13-.14.24-.77.87-1.41.64-.64,1.24-1.07,1.41-.91Z"/>
  <path class="cls-11" d="M1069.81,1315.65c0,.2-.87.2-1.74.5s-1.54.8-1.71.67c-.17-.13.37-.97,1.47-1.34,1.11-.37,2.05-.03,1.98.17Z"/>
  <path class="cls-11" d="M1074.36,1314.41c0,.2-.27.5-.77.71-.5.2-.97.2-1.04,0-.07-.2.27-.5.77-.71.5-.2.97-.17,1.04,0Z"/>
  <path class="cls-7" d="M1143.61,1316.96l-2.75-5.86,55.11-26.08,9.25,19.24-3.35,1.81c-14.71,8.04-75.41,39.85-86.98,41.63-12.84,1.95,28.72-30.74,28.72-30.74Z"/>
  <g class="cls-16">
    <path class="cls-14" d="M1185.14,1313.27c-1.38-5.01-.87-10.36,1.44-15.02,2.25-4.59,6.14-8.18,10.89-10.05l7.31,15.32-19.64,9.75Z"/>
  </g>
  <g class="cls-16">
    <path class="cls-14" d="M1123.7,1333.75s-14.08,12.47-10.76,14.18c3.32,1.71,65.83-28.12,92.28-43.57l-.67-1.21-72.67,35.33s-4.93-6.13-8.18-4.72Z"/>
  </g>
  <path class="cls-11" d="M1205.39,1302.61s-.27.2-.87.54l-2.65,1.47-9.75,5.03c-8.24,4.32-19.74,10.06-32.58,16.29-12.84,6.23-24.6,11.43-33.15,15.15l-10.06,4.32-2.75,1.14c-.33.14-.66.25-1.01.34l.94-.47,2.72-1.28,10.05-4.52c8.48-3.86,20.11-9.22,33.02-15.35,12.9-6.13,24.37-11.86,32.68-16.06l9.85-4.99,2.72-1.31.84-.3Z"/>
  <path class="cls-11" d="M1132.32,1339.31c-1.23-1.43-2.61-2.72-4.12-3.85-1.64-.95-3.4-1.68-5.23-2.18,2.01-.19,4.01.37,5.63,1.57,1.74.99,3.06,2.57,3.72,4.46Z"/>
  <path class="cls-11" d="M1144.58,1323.43c0,.17-1.34-.4-2.75-1.27-1.41-.87-2.45-1.75-2.35-1.91.1-.17,1.34.4,2.75,1.27,1.41.87,2.45,1.74,2.35,1.91Z"/>
  <path class="cls-11" d="M1147.87,1318.97c-.86.1-1.72-.03-2.52-.37-1.37-.4-2.41-.91-2.34-1.07.06-.17,1.21,0,2.55.37s2.38.87,2.31,1.07Z"/>
  <path class="cls-11" d="M1148.24,1312.43c0,.2-1.14.97-2.72,1.74-.91.57-1.92.93-2.98,1.07,0-.2,1.1-.97,2.68-1.74.91-.57,1.95-.94,3.02-1.07Z"/>
  <path class="cls-11" d="M1147.43,1308.34c.17,0-.94,1.44-2.75,2.45-.98.69-2.15,1.09-3.35,1.14,2.09-1.18,4.17-2.37,6.23-3.59h-.13Z"/>
  <path class="cls-11" d="M1140.43,1319.71c-1.07.74-2.26,1.29-3.52,1.64-1.35.45-2.74.78-4.15.97-.85.09-1.7.09-2.55,0-.54-.04-1.04-.28-1.41-.67-.16-.25-.25-.54-.25-.84s.09-.59.25-.84c.68-.83,1.53-1.49,2.49-1.95.96-.46,2.02-.69,3.09-.69s2.12.24,3.09.69c.97.46,1.82,1.13,2.49,1.95.25.25.44.56.54.91-.88-.92-1.91-1.68-3.05-2.25-1.23-.56-2.59-.74-3.92-.54-.8.09-1.57.34-2.26.74-.7.4-1.31.93-1.79,1.57-.37.67.17,1.21.97,1.31.79.08,1.59.08,2.38,0,1.37-.17,2.73-.44,4.06-.81,2.14-.87,3.52-1.51,3.55-1.21Z"/>
  <path class="cls-11" d="M1139.62,1320.14c-.78-.53-1.34-1.33-1.57-2.25-.33-.98-.42-2.02-.27-3.05.05-.66.27-1.3.63-1.86.36-.56.86-1.01,1.45-1.33.39-.09.81-.03,1.16.18.35.21.61.54.71.93.15.6.15,1.24,0,1.84-.08,1.01-.29,2-.64,2.95-.24.89-.7,1.71-1.34,2.38,0,0,.4-.97.84-2.55.26-.92.42-1.86.47-2.81,0-.97,0-2.48-1.14-2.21-1.14.27-1.41,1.64-1.61,2.61-.19.91-.19,1.84,0,2.75.37.84.81,1.64,1.31,2.41Z"/>
  <path class="cls-11" d="M1197.14,1288.17s-1.64.6-3.99,2.08c-3.07,1.88-5.53,4.6-7.1,7.84-1.57,3.23-2.19,6.85-1.78,10.43.27,2.75.94,4.36.8,4.42-.22-.34-.39-.71-.5-1.11-.4-1.08-.68-2.21-.84-3.35-.54-3.69.04-7.46,1.67-10.82,1.63-3.36,4.24-6.14,7.48-7.99.97-.54,1.99-.99,3.05-1.34.39-.12.8-.18,1.21-.17Z"/>
  <path class="cls-11" d="M1175.72,1311.23c-2.33,1.86-4.9,3.41-7.64,4.59-2.6,1.49-5.4,2.62-8.31,3.35,0-.2,3.62-1.68,8.01-3.82,4.39-2.14,7.81-4.32,7.94-4.12Z"/>
  <path class="cls-11" d="M1186.55,1306.1c.2,0,0,.87,0,1.87s.17,1.81,0,1.91c-.17.1-.71-.74-.71-1.91s.4-1.98.71-1.87Z"/>
  <path class="cls-11" d="M1188.09,1299.13c.2,0,0,.81-.2,1.64-.2.84-.67,1.47-.87,1.41-.2-.06,0-.8.2-1.64.2-.84.67-1.48.87-1.41Z"/>
  <path class="cls-11" d="M1192.78,1294.06c0,.2-.71.54-1.37,1.21-.67.67-1.04,1.37-1.24,1.31-.2-.07,0-1.04.74-1.84.74-.8,1.84-.87,1.88-.67Z"/>
  <path class="cls-11" d="M1196.37,1291.01c.17,0,0,.57-.4.94-.4.37-.77.6-.94.47-.17-.13,0-.57.4-.97.4-.4.8-.6.94-.44Z"/>
  <path class="cls-7" d="M645.73,1317.66l-.7-30.87-57.79.97.57,45.11,3.59.17c15.95.64,81.18,2.04,91.77-1.34,11.83-3.82-37.44-14.05-37.44-14.05Z"/>
  <g class="cls-17">
    <path class="cls-14" d="M669.83,1323.53s17.29,4.66,15.18,7.54c-2.11,2.88-68.08,3.89-97.2,1.81v-1.27l77.09-.57s1.58-7.34,4.93-7.51Z"/>
  </g>
  <path class="cls-11" d="M586.97,1331.57h3.85l10.49.27c8.88.17,21.15.27,34.69,0,13.54-.27,25.81-.67,34.66-1.11l10.53-.6,2.85-.2h.97c-.33-.05-.67-.05-1.01,0h-2.85l-10.49.37c-8.88.33-21.11.71-34.66.91-13.54.2-25.81.2-34.69,0h-13.34c-.35.08-.69.21-1.01.37Z"/>
  <path class="cls-11" d="M664.84,1331.94c.64-3.59,2.55-6.83,5.4-9.12-1.72.79-3.16,2.09-4.12,3.72-.96,1.63-1.41,3.51-1.28,5.4Z"/>
  <path class="cls-11" d="M647.64,1323.56s.97-.9,1.81-2.24c.84-1.34,1.34-2.52,1.17-2.62-.17-.1-.97.91-1.78,2.25-.8,1.34-1.37,2.52-1.21,2.61Z"/>
  <path class="cls-11" d="M642.91,1321.15s1.04-.47,2.05-1.37c1.01-.91,1.64-1.78,1.54-1.91-.1-.13-1.04.47-2.04,1.37s-1.64,1.78-1.54,1.91Z"/>
  <path class="cls-11" d="M639.9,1315.75c.97.34,2,.46,3.02.33,1.02.12,2.06,0,3.02-.37-.97-.33-2-.45-3.02-.33-1.02-.12-2.05,0-3.02.37Z"/>
  <path class="cls-11" d="M638.83,1311.93c1,.64,2.17.95,3.35.91,1.14.16,2.31-.02,3.35-.5-1.11-.17-2.23-.23-3.35-.2-1.11-.17-2.23-.24-3.35-.2Z"/>
  <path class="cls-11" d="M649.52,1318.47c1.23.23,2.49.23,3.72,0,1.34-.19,2.67-.5,3.95-.94.79-.24,1.54-.56,2.25-.97.44-.25.77-.68.91-1.17.05-.28.02-.56-.09-.83-.1-.26-.29-.49-.52-.65-1.43-.69-3.05-.85-4.58-.46-1.53.39-2.88,1.31-3.8,2.6-.56.73-.96,1.58-1.17,2.48-.07.33-.07.67,0,1.01.37-1.14.93-2.22,1.64-3.18.83-.98,1.92-1.72,3.15-2.11,1.45-.51,3.04-.43,4.42.23.6.44.37,1.11-.27,1.51-.66.39-1.35.7-2.08.94-1.23.45-2.5.8-3.79,1.04-2.31.37-3.75.4-3.75.5Z"/>
  <path class="cls-11" d="M650.49,1318.64c.24-.38.4-.81.46-1.25.07-.44.05-.9-.06-1.33-.14-.97-.51-1.89-1.07-2.68-.32-.55-.77-1.01-1.32-1.33-.55-.32-1.17-.5-1.8-.51-.19.04-.37.12-.52.22-.16.11-.29.25-.4.41-.1.16-.17.34-.21.53-.03.19-.02.38.02.57.1.59.31,1.14.64,1.64.51.81,1.12,1.55,1.81,2.21.59.65,1.33,1.16,2.14,1.48,0,0-.77-.67-1.81-1.81-.59-.69-1.11-1.43-1.57-2.21-.54-.77-.91-2.18,0-2.38.91-.2,1.87.8,2.48,1.54.52.72.89,1.54,1.07,2.41.11.82.16,1.65.13,2.48Z"/>
  <path class="cls-11" d="M587.91,1315.75s1.64-.2,4.26,0c3.4.37,6.64,1.64,9.39,3.69,2.68,2.12,4.73,4.94,5.93,8.14.94,2.48,1.04,4.12,1.17,4.12.05-.39.05-.78,0-1.17-.11-1.06-.34-2.1-.67-3.12-1.11-3.37-3.2-6.34-6-8.51-2.81-2.17-6.21-3.43-9.75-3.62-1.06-.11-2.13-.11-3.18,0-.77.3-1.17.4-1.14.47Z"/>
  <path class="cls-11" d="M593.51,1291.62c-.44,7.9-.44,15.83,0,23.73.34-3.95.44-7.91.3-11.87.14-3.96.04-7.92-.3-11.86Z"/>
  <path class="cls-11" d="M615.93,1326.41c2.77.59,5.61.83,8.45.71,2.84.08,5.68-.19,8.45-.81,0-.2-3.79,0-8.45,0s-8.45-.17-8.45.1Z"/>
  <path class="cls-11" d="M604.6,1326.41s.34.77.71,1.64c.37.87.64,1.64.84,1.61.2-.03.27-.91-.2-1.91-.47-1.01-1.21-1.34-1.34-1.34Z"/>
  <path class="cls-11" d="M600.25,1321.25s.24.74.87,1.34c.64.6,1.21.97,1.34.84.14-.14-.27-.74-.87-1.34-.6-.6-1.21-.97-1.34-.84Z"/>
  <path class="cls-11" d="M594.11,1318.94c0,.2.8.17,1.64.47.84.3,1.48.7,1.64.57.17-.14-.37-.91-1.41-1.24-1.04-.33-1.95,0-1.88.2Z"/>
  <path class="cls-11" d="M589.92,1317.86c0,.17.27.47.74.64.47.17.94.17,1.01,0,.06-.17-.27-.47-.77-.67-.5-.2-.97-.17-.97.03Z"/>
  <g class="cls-16">
    <path class="cls-1" d="M587.95,1314.21l57.72-1.88-.2-6.97-58.02,5.2.5,3.65Z"/>
  </g>
  <path class="cls-7" d="M769.82,1317.6l-.84-30.84-57.78,1.24.77,45.15h3.59c15.99.54,81.22,1.64,91.81-1.81,11.8-3.76-37.54-13.74-37.54-13.74Z"/>
  <g class="cls-17">
    <path class="cls-14" d="M793.95,1323.33s17.33,4.59,15.22,7.48c-2.11,2.88-68.04,4.26-97.2,2.34v-1.31l77.09-.97s1.54-7.31,4.89-7.54Z"/>
  </g>
  <path class="cls-11" d="M711.12,1331.81h3.86l10.52.23c8.88,0,21.12.17,34.69,0,13.58-.17,25.78-.8,34.66-1.27l10.49-.67,2.85-.24h-2.88l-10.49.44c-8.85.37-21.11.81-34.66,1.07-13.54.27-25.78.33-34.66.33h-14.38v.1Z"/>
  <path class="cls-11" d="M788.99,1331.77c.67-3.58,2.57-6.82,5.36-9.15-1.71.82-3.13,2.12-4.08,3.75-.96,1.63-1.4,3.51-1.28,5.4Z"/>
  <path class="cls-11" d="M771.76,1323.5c.17,0,.97-.91,1.78-2.25.8-1.34,1.34-2.55,1.18-2.61-.17-.07-.94.91-1.75,2.25-.59.77-1,1.66-1.21,2.61Z"/>
  <path class="cls-11" d="M767.03,1321.11s1.04-.5,2.01-1.41c.97-.91,1.68-1.78,1.54-1.91s-1.04.5-2.01,1.41c-.97.91-1.68,1.78-1.54,1.91Z"/>
  <path class="cls-11" d="M763.98,1315.72c1.98.49,4.05.49,6.03,0-.97-.31-2-.42-3.02-.3-1.02-.14-2.05-.04-3.02.3Z"/>
  <path class="cls-11" d="M762.88,1311.9c1,.63,2.17.95,3.35.91,1.14.17,2.31-.02,3.35-.54-1.12-.09-2.24-.09-3.35,0-1.1-.24-2.23-.36-3.35-.37Z"/>
  <path class="cls-11" d="M773.64,1318.4c1.23.24,2.49.24,3.72,0,1.33-.19,2.64-.5,3.92-.94.78-.25,1.53-.58,2.25-.97.44-.26.76-.68.91-1.18.05-.28.02-.56-.09-.82s-.29-.48-.51-.65c-.92-.42-1.93-.64-2.95-.63-1.02.01-2.02.25-2.93.69-.91.44-1.72,1.09-2.35,1.88-.64.79-1.09,1.72-1.32,2.71-.08.33-.08.67,0,1.01.34-1.2.89-2.33,1.61-3.35.83-.99,1.92-1.72,3.15-2.11,1.44-.52,3.03-.45,4.42.2.6.44.37,1.14-.27,1.54-.66.39-1.36.7-2.08.94-1.24.45-2.5.81-3.79,1.07-2.28.47-3.69.5-3.69.6Z"/>
  <path class="cls-11" d="M774.61,1318.57c.42-.79.55-1.71.37-2.58-.14-.97-.51-1.89-1.07-2.68-.33-.55-.78-1.01-1.33-1.33s-1.18-.5-1.82-.51c-.37.1-.69.33-.9.65-.21.33-.28.71-.21,1.09.11.59.34,1.14.67,1.64.51.81,1.12,1.55,1.81,2.21.59.65,1.33,1.16,2.15,1.48,0,0-.74-.67-1.81-1.81-.6-.68-1.13-1.42-1.58-2.21-.54-.77-.91-2.18,0-2.35.91-.17,1.91.77,2.48,1.51.54.71.91,1.54,1.1,2.41.12.82.17,1.65.13,2.48Z"/>
  <path class="cls-11" d="M712,1315.99s1.64-.2,4.26,0c3.41.31,6.66,1.58,9.38,3.65,2.72,2.08,4.8,4.88,6,8.08.94,2.48,1.04,4.12,1.18,4.12s0-.44,0-1.17c-.15-1.06-.39-2.1-.71-3.12-1.12-3.36-3.22-6.32-6.03-8.48-2.84-2.13-6.25-3.37-9.79-3.59-1.06-.06-2.13,0-3.18.17-.39.03-.76.15-1.11.33Z"/>
  <path class="cls-11" d="M717.46,1291.82c-.32,3.95-.4,7.91-.23,11.86-.1,3.97.04,7.95.44,11.9.32-3.96.41-7.93.27-11.9.08-3.96-.08-7.92-.47-11.86Z"/>
  <path class="cls-11" d="M740.05,1326.41c2.79.56,5.64.79,8.48.67,2.83.08,5.66-.21,8.41-.87,0-.2-3.79,0-8.45.17-4.66.17-8.41.03-8.45.03Z"/>
  <path class="cls-11" d="M728.76,1326.68s.3.77.7,1.64c.4.87.64,1.61.84,1.61s.27-.94-.2-1.91c-.47-.97-1.24-1.61-1.34-1.34Z"/>
  <path class="cls-11" d="M724.37,1321.45s.23.74.87,1.31c.64.57,1.21.97,1.34.84.13-.14-.27-.74-.87-1.34-.6-.6-1.21-.94-1.34-.81Z"/>
  <path class="cls-11" d="M718.2,1319.14c0,.2.84.17,1.68.47.84.3,1.47.7,1.64.57.17-.13-.37-.91-1.44-1.24-1.07-.33-1.94.03-1.88.2Z"/>
  <path class="cls-11" d="M713.94,1318.1c0,.17.27.47.74.64.47.17.94.17,1.01,0,.07-.17-.27-.47-.74-.67-.47-.2-1.01-.17-1.01.03Z"/>
  <g class="cls-16">
    <path class="cls-1" d="M712.03,1314.44l57.69-2.18-.24-6.94-57.99,5.46.54,3.65Z"/>
  </g>
  <path class="cls-11" d="M576.31,705.08v605.74l89.96-3.49,7.74-529.12,30.53,531.27,91.71,4.46-45.18-603.56-174.77-5.3Z"/>
  <path class="cls-4" d="M681.63,710.45c.56,3.41.82,6.87.77,10.32.23,6.34.47,15.15.6,24.84v13.71c.2,3.83-.43,7.66-1.84,11.23-1.06,2.42-2.85,4.45-5.13,5.8-.79.55-1.72.84-2.68.84,0,0,.91-.4,2.35-1.41,1.96-1.45,3.46-3.42,4.32-5.7,1.18-3.46,1.66-7.11,1.41-10.76,0-4.26-.17-8.85-.27-13.67v-24.87c-.12-3.45.03-6.9.47-10.32Z"/>
  <path class="cls-4" d="M667.89,717.21c.17.2-1.17,1.01-1.21,3.08-.03.54.06,1.09.29,1.58.22.5.56.93.99,1.27.55.33,1.19.48,1.84.44.64-.05,1.25-.29,1.75-.7.38-.23.69-.56.92-.94.22-.38.35-.82.37-1.26.02-.44-.07-.88-.26-1.29-.19-.4-.48-.75-.83-1.01-.48-.45-1.06-.76-1.7-.92-.63-.15-1.3-.14-1.92.05v-.67c.74.37,1.1.64,1.04.77-.07.13-.47,0-1.31,0l-.7-.17.67-.5c.75-.45,1.62-.65,2.49-.59.87.07,1.7.4,2.37.96.54.38.98.88,1.3,1.46.32.58.5,1.23.54,1.89.03.74-.14,1.48-.48,2.14-.34.67-.85,1.23-1.47,1.64-.81.59-1.78.91-2.78.91s-1.98-.32-2.78-.91c-.61-.51-1.07-1.18-1.34-1.92-.27-.75-.34-1.55-.2-2.33.14-1.01.65-1.93,1.44-2.58.53-.47.94-.47.97-.4Z"/>
  <path class="cls-4" d="M667.25,1290.75c0,.47-20.11.87-45.05.87s-45.05-.4-45.05-.87,20.11-.87,45.05-.87,45.05.37,45.05.87Z"/>
  <path class="cls-4" d="M792.41,1287.29c0,.5-20.11.87-44.71.87s-44.68-.37-44.68-.87,20.11-.87,44.68-.87,44.71.4,44.71.87Z"/>
  <path class="cls-8" d="M643.92,457.88c3.98-.02,7.91-.83,11.57-2.37,3.66-1.55,6.99-3.8,9.77-6.64,2.79-2.83,4.99-6.19,6.47-9.88,1.48-3.69,2.23-7.63,2.18-11.61l-.37-28.66s24.07-2.41,25.67-26.28c1.61-23.86.44-78.9.44-78.9-13.26-6.57-28.03-9.48-42.79-8.44-14.76,1.04-28.97,6-41.17,14.37l-3.69,2.55,1.81,126.23c.14,7.89,3.37,15.42,9,20.96,5.63,5.54,13.2,8.65,21.1,8.67Z"/>
  <path class="cls-11" d="M693.36,336.75c-.88-.09-1.69-.49-2.29-1.15-.59-.65-.92-1.51-.92-2.39s.33-1.73.92-2.39c.59-.65,1.41-1.06,2.29-1.15h.6c.86.12,1.64.54,2.22,1.2.57.65.88,1.49.88,2.36s-.31,1.7-.88,2.36c-.57.65-1.36,1.08-2.22,1.2-.2.05-.41.03-.6-.03Z"/>
  <path class="cls-11" d="M698.05,329.14c-.4.4-2.65-1.54-5.93-1.74s-5.77,1.37-6.1.94c-.34-.44.23-.91,1.31-1.64,1.46-.94,3.18-1.39,4.92-1.28,1.73.12,3.38.79,4.7,1.91.97.87,1.27,1.64,1.11,1.81Z"/>
  <path class="cls-11" d="M660.01,329.94c.52.39.92.93,1.14,1.54.22.61.26,1.28.11,1.91s-.48,1.21-.95,1.66c-.48.45-1.07.75-1.71.87-.64.12-1.3.04-1.91-.21s-1.11-.68-1.48-1.22c-.36-.54-.56-1.18-.56-1.83,0-.65.18-1.29.53-1.84.25-.39.57-.72.96-.98.38-.25.81-.43,1.27-.51.45-.08.92-.07,1.37.03.45.11.87.3,1.24.58Z"/>
  <path class="cls-11" d="M662.15,330.11c-.37.37-2.61-1.54-5.9-1.74-3.29-.2-5.8,1.37-6.14.94-.33-.44.27-.94,1.34-1.68,1.47-.92,3.18-1.36,4.92-1.24,1.73.11,3.37.77,4.71,1.88.97.87,1.27,1.64,1.07,1.84Z"/>
  <path class="cls-11" d="M673.89,357.93c1.73-.56,3.54-.84,5.36-.84.87,0,1.54-.2,1.64-.64.09-.87-.08-1.74-.47-2.51l-2.25-6.7c-2.17-5.79-3.73-11.79-4.66-17.9,2.71,5.55,4.87,11.36,6.43,17.33.74,2.35,1.41,4.62,2.11,6.87.5,1.13.6,2.4.27,3.59-.14.32-.35.61-.62.83-.27.23-.58.39-.92.47-.5.06-1.01.06-1.51,0-1.82.15-3.64-.02-5.4-.5Z"/>
  <path class="cls-14" d="M662.99,361.08c5.01,2.59,10.36,4.46,15.89,5.57-1.21,1.67-2.95,2.88-4.93,3.43-1.98.56-4.1.42-6-.38-7-3.12-4.96-8.62-4.96-8.62Z"/>
  <path class="cls-3" d="M673.72,398.39c-11.03-.4-21.7-4.07-30.64-10.56,0,0,6.44,17.6,30.37,16.76l.27-6.2Z"/>
  <path class="cls-11" d="M699.86,299.57s-14.41,7.34-33.52-1.74c-12.57-5.97-27.08-8.71-30.17-6.17-3.09,2.55-3.59,15.39-15.82,19.37,0,0,1.34,24.4-8.41,23.7-9.75-.7-4.42-38.61-4.42-38.61l23.46-12.1,25.98-5.4,24.57,2.95,19.04,4.83-.7,13.17Z"/>
  <path class="cls-11" d="M682.33,321.3c0-.2.64-.77,1.95-1.31,1.75-.67,3.62-1.01,5.49-.97,1.87.03,3.72.39,5.46,1.07,1.31.57,2.01,1.17,1.91,1.34-.1.17-3.35-.77-7.41-.8-4.06-.03-7.2,1.1-7.41.67Z"/>
  <path class="cls-11" d="M645.9,317.84s.6-.74,1.94-1.27c1.74-.69,3.6-1.03,5.46-1.01,1.87.02,3.73.39,5.46,1.11,1.31.57,2.01,1.14,1.91,1.34-.1.2-3.35-.81-7.38-.81s-7.24,1.07-7.41.64Z"/>
  <path class="cls-8" d="M780.51,540.1s10.66,63.68,18,66.63c40.62,16.06,89.33,14.85,106.59,13.78,2.08-1.34,4.53-3.02,7.31-5.13,2.41-1.87,4.47-4.14,6.1-6.7,2.19-3.1,3.95-6.49,5.23-10.06.09-.72.41-1.4.91-1.92.51-.52,1.17-.87,1.89-.98.72-.11,1.46,0,2.1.35.64.34,1.16.89,1.46,1.55,1.14,2.91-1.54,10.66-6.47,21.15,0,0-2.72,5.63,2.25,7.37,4.96,1.75,36.57,13.41,39.15,16.39,2.58,2.98,1.84,6.47-2.01,6.7-3.86.23-24.17-5.63-24.17-5.63,0,0,26.48,6.04,26.82,8.98.4,4.46-9.52,4.83-26.82-1.54,0,0,27.69,2.61,26.04,9.25-.8,3.35-25.61-2.41-25.61-2.41-2.14,3.08,25.61,2.65,25.51,6.87,0,1.94-3.89,3.18-16.76,2.41-7.84-.5-20.81-1.47-33.72-2.34v.2s-165.41,24.6-178.72-49.44c-8.98-50.28-6.1-48.87-9.25-75.58"/>
  <path class="cls-3" d="M924.64,653.16c-.2,0-1.14-1.18-3.02-2.85-2.44-2.21-5.37-3.81-8.55-4.66l-1.84-.5,1.64-1.11c.37-.23.77-.47,1.18-.77,2.94-2.13,5.38-4.86,7.17-8.01,1.41-2.45,1.94-4.12,2.21-4.06.07,1.62-.31,3.22-1.11,4.63-1.57,3.56-4.09,6.61-7.27,8.85-.44.33-.87.6-1.27.87l-.23-1.58c3.44.93,6.54,2.84,8.92,5.5,1.78,2.05,2.34,3.59,2.18,3.69Z"/>
  <path class="cls-3" d="M961.24,649.71c-4.27-.82-8.45-2.02-12.5-3.59-4.23-.99-8.37-2.35-12.37-4.05,8.76.64,17.26,3.25,24.87,7.64Z"/>
  <path class="cls-3" d="M960.97,655.84c-7.58-1.37-15.08-3.18-22.46-5.43,7.82-.05,15.53,1.81,22.46,5.43Z"/>
  <path class="cls-8" d="M649.05,783.21c-3.48.68-7.03.88-10.56.6-2.85-.13-5.66-.74-8.31-1.81l-3.35-1.44c-5.04-2.23-9.36-5.83-12.47-10.39-13.68-20.11-54.84-80.61-60.53-93.85-6.7-15.92,18.84-137.73,18.84-137.73l-50.61-16.42s-24.54,107.26-23.23,159.85c.84,33.52,92.81,126.16,92.88,126.27,5.08,9.95,10.68,19.62,16.76,28.99,9.05,12.74,10.22,11.97,11.53,10.66,3.35-3.52-15.08-23.06-8.65-21.19,6.44,1.88,19.95,26.55,23.46,22.73,4.56-4.99-15.25-25.07-16.76-26.81-1.51-1.74,1.01-4.16,2.31-2.41,1.91,2.48,22.36,27.95,26.82,23.13,2.51-2.68-2.72-6.7-2.72-6.7,0,0-20.92-22.46-18.7-24.67,2.21-2.21,14.98,10.52,18.97,15.12,3.99,4.59,7.71,4.56,8.28,1.14.37-2.35-11.5-16.76-15.55-21.22-4.06-4.46-15.35-16.52-4.93-15.12,10.42,1.41,18.94-1.44,20.71-3.82,1.78-2.38-1.07-5.87-4.19-4.89Z"/>
  <path class="cls-7" d="M579.87,545.9l-.57,74.41-3.95,85.54,176.31,4.56-11.36-91.81-4.53-86.88s13.78-57.48,10.39-66.27c-1.74-4.99-4.56-9.54-8.26-13.32-3.7-3.78-8.18-6.71-13.13-8.56-2.28-1.31-34.76-11.7-46.93-12.37v-22.69c-20.11,1.98-30.67,25.88-30.67,25.88-8.38-20.11-39.85-23.16-39.85-23.16l.57,20.88c-11.19.75-22.25,2.78-32.98,6.03-17.56,6.34-27.25,10.89-40.22,23.97-9.05,9.05-16.76,42-19.11,57.25"/>
  <path class="cls-11" d="M641.31,426.41c-1.99-.49-4.1-.21-5.9.77-1.9,1.11-3.37,2.82-4.19,4.86-.54,1.21-.98,2.47-1.31,3.76-.2.67-.37,1.37-.57,2.08-.14.89-.52,1.73-1.11,2.41-.41.43-.95.7-1.54.77-.51.01-1.01-.09-1.48-.3l-2.04-.94-3.69-1.84-6.1-3.15c-1.98-.88-3.84-2.01-5.53-3.35,2.11.44,4.15,1.18,6.07,2.18l6.4,2.85,3.72,1.74,1.94.87c.6.24.84.2,1.14,0,.58-1.19,1.01-2.45,1.27-3.75.37-1.38.88-2.71,1.51-3.99,1.01-2.29,2.8-4.16,5.06-5.26,1.52-.74,3.25-.94,4.89-.57,1.01.3,1.48.8,1.44.87Z"/>
  <path class="cls-11" d="M678.28,429.93c-4.2,4.17-8.77,7.96-13.64,11.33l-1.14.84-.23-1.41c0-.57-.24-1.18-.33-1.78-.36-4.46-2.16-8.69-5.13-12.03-1.39-1.22-2.96-2.21-4.66-2.95,1.01-.1,2.03.03,2.98.37.95.35,1.81.91,2.52,1.64,1.68,1.41,3.01,3.19,3.89,5.19,1.01,2.39,1.72,4.91,2.11,7.47l.33,1.81-1.37-.57c4.57-3.76,9.49-7.08,14.68-9.92Z"/>
  <path class="cls-7" d="M728.62,445.28s28.96,9.85,41.56,48.97c7.89,24.99,14.16,50.46,18.77,76.25l-49.34,16.76-18.4-112.22,7.41-29.76Z"/>
  <path class="cls-7" d="M788.96,570.5s5.16,22.96,8.14,27.18c2.99,4.22,2.08,7.51,25.31,12.94,23.23,5.43,52.42,8.55,62.75,7.24l7.24.27,4.83,50.92s-58.22,8.25-97.44-1.71c-39.22-9.96-56.41-23.46-58.52-32.28-2.11-8.81-4.22-51.85-4.22-51.85l51.92-12.71Z"/>
  <path class="cls-11" d="M662.32,477.05c0-.2,1.34-.8,2.95.57.47.41.84.93,1.07,1.52s.33,1.21.27,1.84c-.09.81-.44,1.58-.99,2.18-.55.6-1.29,1.01-2.09,1.17-.77.21-1.58.18-2.33-.1-.75-.28-1.39-.78-1.83-1.44-.31-.53-.49-1.14-.53-1.75-.04-.61.06-1.23.3-1.8.87-1.94,2.45-2.01,2.41-1.81-.03.2-.94.74-1.24,2.21-.09.38-.1.78-.03,1.16.07.39.22.75.44,1.08.29.35.68.6,1.11.74s.9.13,1.33,0c.44-.06.86-.26,1.19-.57.33-.31.56-.7.66-1.14.06-.39.03-.79-.07-1.17-.1-.38-.29-.74-.53-1.04-.94-1.41-2.08-1.37-2.08-1.64Z"/>
  <path class="cls-11" d="M668.76,539.4s1.34-.8,2.95.6c.37.38.66.83.85,1.33.19.5.27,1.03.24,1.56s-.16,1.05-.4,1.52c-.24.48-.57.9-.98,1.24-.41.34-.88.6-1.39.74-.51.15-1.04.19-1.57.12-.53-.07-1.03-.24-1.49-.52-.45-.27-.85-.64-1.16-1.07-.31-.53-.49-1.13-.54-1.75-.04-.62.06-1.24.3-1.8.87-1.95,2.45-2.01,2.41-1.78-.03.23-.91.7-1.24,2.18-.09.39-.1.79-.03,1.18.07.39.21.77.43,1.1.3.33.69.58,1.12.71.43.13.89.14,1.33.02.45-.08.87-.28,1.2-.59.33-.31.57-.71.68-1.15.05-.39.02-.79-.1-1.17-.11-.38-.29-.73-.54-1.04-.94-1.18-2.05-1.18-2.08-1.44Z"/>
  <path class="cls-11" d="M672.75,600.27c0-.17,1.31-.8,2.95.6.54.45.94,1.06,1.15,1.73.21.67.23,1.39.04,2.08-.18.68-.56,1.29-1.07,1.77-.52.48-1.17.8-1.86.92-.68.19-1.41.18-2.09-.02-.68-.21-1.29-.6-1.75-1.14-.46-.54-.76-1.2-.86-1.9-.1-.7,0-1.42.3-2.06.84-1.95,2.41-2.01,2.38-1.78-.03.23-.91.7-1.21,2.18-.1.39-.11.79-.04,1.18.07.39.22.77.44,1.1.31.32.69.56,1.12.69.43.13.88.14,1.32.04.43-.1.83-.32,1.16-.62.33-.31.56-.69.69-1.12.06-.39.02-.79-.08-1.18-.11-.38-.3-.73-.55-1.04-.91-1.18-2.05-1.18-2.05-1.44Z"/>
  <path class="cls-11" d="M676.73,666.53c0-.2,1.34-.8,2.95.57.55.45.96,1.05,1.18,1.72.22.68.24,1.41.06,2.09s-.56,1.31-1.09,1.78c-.53.48-1.18.79-1.89.9-.77.2-1.58.16-2.32-.11s-1.38-.77-1.83-1.43c-.31-.53-.49-1.13-.54-1.75-.04-.62.06-1.23.3-1.8.87-1.95,2.45-2.05,2.41-1.81-.03.23-.94.7-1.24,2.18-.09.39-.1.79-.03,1.18.07.39.22.77.44,1.1.29.35.68.6,1.11.74.43.13.9.13,1.33,0,.44-.07.85-.27,1.18-.58.33-.3.56-.7.66-1.13.06-.4.04-.8-.07-1.18-.1-.39-.29-.75-.53-1.06-.94-1.17-2.08-1.17-2.08-1.41Z"/>
  <path class="cls-11" d="M579.87,544.16c-.03-1.5.08-3.01.33-4.49.34-3.35.8-7.34,1.34-12.24.54-4.89,1.18-11.3,1.74-18.13.24-3.35.5-7.01.81-10.73.3-3.79.3-7.6,0-11.4-.3-3.74-1.45-7.36-3.35-10.59-1.83-2.96-4.3-5.47-7.24-7.34-5.08-3.09-10.83-4.92-16.76-5.33-4.07-.3-8.16-.35-12.24-.17-1.49.12-2.99.12-4.49,0,1.46-.4,2.95-.62,4.46-.67,4.11-.42,8.24-.53,12.37-.33,6.23.21,12.31,2,17.66,5.2,3.17,1.97,5.85,4.63,7.84,7.77,1.96,3.47,3.11,7.35,3.35,11.33.32,3.89.32,7.81,0,11.7-.3,3.72-.6,7.31-.94,10.73-.64,6.87-1.37,13.01-2.08,18.17-.71,5.16-1.41,9.28-1.91,12.17-.14,1.48-.45,2.94-.91,4.36Z"/>
  <g class="cls-16">
    <path class="cls-1" d="M607.72,431.47s21.32,21.96,24.27,18.7c2.95-3.25,4.29-24.37,12.94-20.11-.58-.98-1.36-1.82-2.28-2.49-.92-.66-1.97-1.13-3.08-1.37-3.35-.33-8.62-.84-11.26,11.23,0,0,0,3.76-2.85,2.65-2.85-1.11-17.73-8.62-17.73-8.62Z"/>
  </g>
  <g class="cls-16">
    <path class="cls-1" d="M650.46,428.52c1.33.03,2.6.51,3.62,1.35,1.02.85,1.73,2.01,2.01,3.31.83,5.75,1.3,11.55,1.41,17.36l18.9-18.67-12.4,8.62s-1.68-14.68-10.86-16.56l-2.68,4.59Z"/>
  </g>
  <g class="cls-16">
    <path class="cls-1" d="M583.39,516.98l15.75,188.88h-23.93l3.55-77.96.97-83.56,3.65-27.35Z"/>
  </g>
  <path class="cls-11" d="M749.24,685.97c-.22-.55-.37-1.12-.44-1.71l-.91-4.93c-.74-4.32-1.71-10.56-2.88-18.27-2.28-15.45-5.06-36.87-7.98-60.33-2.91-23.46-5.63-45.02-7.88-60.33l-2.68-18.3c-.3-1.98-.54-3.62-.74-4.96-.05-.58-.05-1.16,0-1.74.25.53.42,1.1.5,1.68.27,1.31.6,2.95,1.04,4.93.84,4.29,1.98,10.49,3.35,18.2,2.55,15.42,5.46,36.87,8.38,60.33,2.91,23.46,5.53,44.78,7.47,60.33.94,7.54,1.74,13.74,2.31,18.34.23,2.01.44,3.65.6,4.99.03.6-.02,1.2-.17,1.78Z"/>
  <g class="cls-16">
    <path class="cls-1" d="M729.39,532.26c10.06,34.72,13.41,65.16,32.28,93.85,6.84,10.34,15.78,19.12,26.24,25.78,20.38,12.97,45.02,17.26,69.08,19.51h16.29s-36.6,3.12-66.2-2.31c0,0-45.52-8.11-63.32-29.03l-14.38-107.8Z"/>
  </g>
  <path class="cls-11" d="M666.48,699.62c-.16-.9-.25-1.8-.27-2.72,0-1.91-.23-4.49-.44-7.74-.33-6.87-.8-16.56-1.41-28.46-1.24-24-3.35-57.18-6.07-93.85-2.72-36.67-5.73-69.72-7.88-93.85-1.01-11.86-1.84-21.52-2.45-28.39-.27-3.22-.47-5.8-.6-7.74-.09-.89-.09-1.79,0-2.68.23.87.37,1.75.44,2.65.24,1.94.54,4.49.94,7.71.74,6.7,1.74,16.49,3.02,28.32,2.45,23.97,5.56,56.98,8.38,93.85,2.81,36.87,4.62,69.82,5.56,93.85.47,12.03.74,21.75.87,28.49v7.74c.06.94.03,1.88-.1,2.82Z"/>
  <path class="cls-7" d="M581.61,803.02l39.62-37.2s-59.43-79.14-61.47-93.55c-2.04-14.41,20.81-133.54,20.81-133.54l-64.12-24.34s-24.8,117.65-24.77,168.7c.03,23.77,89.93,119.93,89.93,119.93Z"/>
  <path class="cls-4" d="M188.17,637.54s-25.41-1.81-23.06,55.14c2.35,56.95,8.14,87.38,8.14,87.38,0,0-.74,12.63-10.52,10.05-9.79-2.58-28.19-14.78-37.27-5.56-9.08,9.22-6.07,24.13,6.44,41.36,12.5,17.23,38.51,55.94,40.83,59.46,2.31,3.52,3.35,9.89-3.69,9.28-7.04-.6-53.63-16.49-59.96,6.17-6.34,22.66,36.54,64.89,41.09,69.62,4.56,4.73,4.83,7.68,2.98,10.53-1.84,2.85-17.09-3.96-30.6-7.95-13.51-3.99-29.83-6.2-32.31,7.17-2.48,13.37,16.32,52.52,86.78,93.65l33.92,16.76,32.08-20.45c65.96-48,80.78-88.82,77.09-101.86-3.68-13.04-19.88-9.22-32.88-3.92-13.01,5.3-27.52,13.61-29.66,10.96-2.15-2.65-2.18-5.63,1.91-10.76,4.09-5.13,42.37-51.45,33.92-73.4-8.45-21.95-53.43-1.44-60.33,0-6.9,1.44-6.7-5.19-4.63-8.88,2.08-3.69,24-44.85,34.72-63.22,10.73-18.37,12.57-33.28,2.25-41.83-10.32-8.55-27.05,5.87-36.54,9.28-9.49,3.42-11.5-9.05-11.5-9.05,0,0,2.75-30.77-.6-87.69-3.35-56.91-29.06-52.25-29.06-52.25"/>
  <path class="cls-11" d="M190.18,688.56v1.21c0,.8,0,2.01.27,3.35.2,3.15.5,7.67.9,13.4.77,11.66,1.78,28.59,2.95,49.51,2.31,41.8,5.03,99.58,7.81,163.4,2.78,63.82,5.36,121.64,7.44,163.47,1.07,20.85,1.94,37.78,2.51,49.51.3,5.8.54,10.32.67,13.41,0,1.51,0,2.65.17,3.35v1.21-1.17c0-.77-.17-2.01-.27-3.52-.23-3.12-.54-7.64-.94-13.4-.77-11.66-1.78-28.59-2.92-49.51-2.31-41.8-5.03-99.58-7.84-163.44-2.82-63.85-5.33-121.6-7.44-163.44-1.04-20.88-1.91-37.78-2.51-49.54-.3-5.8-.5-10.32-.67-13.41v-3.52c-.06-.29-.1-.58-.13-.87Z"/>
  <path class="cls-11" d="M150.5,802.81c.78.48,1.49,1.07,2.11,1.74,1.31,1.18,3.15,2.95,5.4,5.16,4.46,4.42,10.49,10.72,16.99,17.76l16.56,18.13,5.06,5.5c.66.64,1.25,1.33,1.78,2.08-.8-.48-1.52-1.06-2.15-1.74-1.31-1.18-3.12-2.95-5.36-5.19-4.42-4.46-10.36-10.83-16.76-17.87l-16.76-18.03-5.06-5.43c-.68-.64-1.29-1.34-1.81-2.11Z"/>
  <path class="cls-11" d="M201.75,852.09c-.27-.27,12.13-13.24,27.69-28.99,15.55-15.75,28.36-28.32,28.59-28.09.23.24-12.13,13.41-27.69,28.99-15.55,15.59-28.36,28.32-28.59,28.09Z"/>
  <path class="cls-11" d="M201.61,950.3c.72-.59,1.51-1.08,2.35-1.48l6.7-3.75c5.6-3.12,13.41-7.51,21.65-12.6,8.25-5.1,15.72-10.05,21.08-13.58l6.3-4.22c.75-.56,1.56-1.03,2.41-1.41-.63.69-1.34,1.29-2.11,1.81-1.41,1.14-3.35,2.72-6.1,4.59-5.2,3.75-12.54,8.78-20.92,13.91-8.38,5.13-16.19,9.39-21.89,12.34-2.88,1.44-5.2,2.61-6.7,3.35-.88.47-1.81.82-2.78,1.04Z"/>
  <path class="cls-11" d="M145.44,915.94c.84.23,1.63.6,2.35,1.11,1.47.77,3.59,1.94,6.17,3.35,5.16,2.92,12.23,7.04,20.11,11.66,7.88,4.63,14.78,8.88,19.84,12.03,2.51,1.54,4.52,2.85,5.93,3.75.75.43,1.45.94,2.08,1.54-.82-.28-1.61-.65-2.35-1.11-1.47-.77-3.55-1.94-6.13-3.35-5.16-2.91-12.23-7.04-20.11-11.7-7.88-4.66-14.78-8.85-19.81-12-2.55-1.57-4.56-2.85-5.93-3.75-.77-.44-1.49-.95-2.15-1.54Z"/>
  <path class="cls-11" d="M134.31,1002.62c1.03.4,2.03.88,2.98,1.44l7.88,4.36c6.7,3.72,15.75,8.95,25.78,14.78,10.02,5.83,19.11,11.2,25.61,15.12,3.08,1.88,5.66,3.35,7.68,4.72.99.51,1.91,1.14,2.75,1.88-1.03-.39-2.03-.87-2.98-1.44l-7.91-4.36c-6.7-3.72-15.75-8.95-25.78-14.78-10.02-5.83-19.07-11.2-25.57-15.12l-7.71-4.72c-.98-.52-1.89-1.15-2.71-1.88Z"/>
  <path class="cls-11" d="M205.5,1043.41c.93-.74,1.91-1.4,2.95-1.98l8.25-5.03c6.94-4.22,16.52-10.06,26.81-16.76,10.29-6.7,19.68-13.14,26.35-17.8l7.94-5.5c.93-.74,1.93-1.37,2.98-1.91-.82.85-1.72,1.63-2.68,2.31-1.81,1.41-4.42,3.35-7.71,5.83-6.7,4.86-15.75,11.36-26.18,18.13-10.42,6.77-20.11,12.57-27.18,16.76-3.55,2.01-6.44,3.62-8.45,4.66-.99.52-2.02.94-3.08,1.27Z"/>
  <path class="cls-11" d="M256.45,1101.9h-93.78l30.6,231.68h32.58l30.6-231.68Z"/>
  <path class="cls-12" d="M167.59,1130.39s0,.33.5.8c.6.73,1.37,1.29,2.25,1.64,1.66.59,3.43.78,5.17.56,1.74-.21,3.42-.83,4.88-1.8,3.75-2.08,7.07-6.17,12.13-7.98,5.63-1.81,11.71-1.69,17.26.33,5.64,1.94,11.03,4.55,16.06,7.78,4.18,2.63,8.54,4.97,13.04,7,3.07,1.38,6.32,2.31,9.65,2.78.9.14,1.81.2,2.71.17h.94c-4.44-.7-8.76-2.01-12.84-3.89-4.4-2.14-8.66-4.55-12.77-7.21-5.09-3.37-10.58-6.07-16.36-8.04-5.87-2.13-12.29-2.2-18.2-.2-2.46,1.04-4.72,2.48-6.7,4.26-1.7,1.49-3.49,2.88-5.36,4.16-1.32.91-2.82,1.52-4.4,1.8-1.58.27-3.2.2-4.75-.22-1.2-.41-2.3-1.07-3.22-1.95Z"/>
  <path class="cls-12" d="M170.94,1173.06s.74-.97,2.21-2.48c2.11-2.12,4.66-3.75,7.47-4.76,4.18-1.5,8.61-2.18,13.04-1.98,5.48.42,10.93,1.17,16.32,2.25,5.52,1.07,11.17,1.29,16.76.67,4.56-.58,9-1.84,13.17-3.75,2.8-1.26,5.44-2.83,7.88-4.69.95-.6,1.8-1.37,2.51-2.25-3.46,2.25-7.08,4.24-10.83,5.97-4.13,1.7-8.47,2.83-12.9,3.35-5.44.48-10.92.21-16.29-.8-5.45-1.09-10.97-1.81-16.52-2.14-4.59-.14-9.15.67-13.41,2.38-2.9,1.16-5.49,3-7.54,5.36-.53.65-1,1.34-1.41,2.08-.47.5-.47.77-.47.8Z"/>
  <path class="cls-12" d="M245.82,1195.89c-.78-.59-1.65-1.04-2.58-1.34-2.5-.91-5.12-1.46-7.78-1.64-3.92-.25-7.86-.02-11.73.67-4.39.7-9.08,1.91-14.01,2.95-4.57,1.09-9.25,1.62-13.94,1.58-3.82-.09-7.58-.89-11.09-2.38-3.2-1.5-6.06-3.63-8.41-6.27.36.92.9,1.75,1.61,2.45,1.78,2.01,3.94,3.64,6.37,4.79,3.6,1.68,7.49,2.64,11.46,2.82,4.82.11,9.65-.38,14.35-1.48,4.96-1.07,9.62-2.31,13.91-3.08,3.76-.73,7.6-1.06,11.43-.97,3.54.21,7.04.85,10.42,1.91Z"/>
  <path class="cls-12" d="M179.26,1228.03c2.86-1.23,6.03-1.55,9.08-.91,3.32.79,6.52,1.99,9.55,3.55,3.89,1.85,8.08,2.99,12.37,3.35,7.84.71,15.69-1.11,22.42-5.19,2.02-1.2,3.89-2.64,5.56-4.29.65-.58,1.21-1.25,1.68-1.98-2.49,1.92-5.09,3.7-7.78,5.33-6.64,3.64-14.21,5.26-21.75,4.63-8.88-.5-15.72-5.8-21.85-6.5-2.37-.43-4.81-.22-7.07.6-1.61.67-2.25,1.34-2.21,1.41Z"/>
  <path class="cls-12" d="M184.35,1272.51c2.69.05,5.35-.48,7.81-1.58,4.73-1.57,10.56-5.16,17.36-7.88,3.19-1.31,6.6-2.02,10.06-2.08,2.77-.01,5.51.61,8.01,1.81,2.27,1.22,4.25,2.92,5.8,4.99-.12-.72-.42-1.4-.87-1.98-1.14-1.65-2.66-3-4.42-3.95-2.59-1.46-5.51-2.25-8.48-2.31-3.61.02-7.18.73-10.52,2.08-7.07,2.82-12.7,6.54-17.23,8.31-4.52,1.78-7.51,2.31-7.51,2.58Z"/>
  <path class="cls-12" d="M189.08,1293.19c1.87.94,3.87,1.58,5.93,1.91,9.78,2.36,19.84,3.35,29.9,2.95,2.09.06,4.18-.19,6.2-.74,0-.47-9.52,0-21.12-1.21-11.6-1.21-20.81-3.22-20.92-2.91Z"/>
  <path class="cls-6" d="M932.73,17.06l-229.72,54.26,74.76,316.48,229.71-54.26L932.73,17.06Z"/>
  <path class="cls-2" d="M936.04,16.57l-231.9,43.99,60.6,319.5,231.9-43.98-60.6-319.5Z"/>
  <path class="cls-12" d="M947.15,12.11l-234.39,27.78,38.28,322.93,234.39-27.78L947.15,12.11Z"/>
  <path class="cls-11" d="M712.77,39.94s1.37-.23,4.15-.57l12.3-1.54,47.16-5.77,170.71-20.61h.71v.74c10.79,90.5,24.07,202.22,38.45,322.88v.87h-.87l-234.43,27.69h-.77v-.81c-11.16-95.63-20.61-176.44-27.25-233.42-3.35-28.36-5.87-50.78-7.64-66.17-.87-7.61-1.51-13.41-1.98-17.46-.2-1.94-.37-3.35-.47-4.49-.1-1.14,0-1.47,0-1.47,0,0,0,.54.24,1.58.23,1.04.33,2.55.57,4.53.5,4.06,1.24,10.06,2.18,17.63,1.88,15.42,4.62,37.88,8.08,66.3,6.7,56.98,16.52,137.43,27.99,232.82l-.87-.71,234.43-27.68-.77.97c-14.25-120.66-27.42-232.41-38.11-322.91l.8.6-170.47,19.68-47.33,5.43-12.47,1.41-4.32.5Z"/>
  <path class="cls-11" d="M760.2,93.1c-.13-2.14.38-4.26,1.45-6.11,1.07-1.85,2.67-3.34,4.58-4.29,1.91-.95,4.07-1.32,6.19-1.05s4.12,1.15,5.74,2.54l-2.58,3.05c-.69-.65-1.52-1.15-2.42-1.44-.91-.3-1.86-.39-2.81-.27-.85.07-1.68.31-2.44.7-.75.4-1.42.94-1.96,1.6-.54.66-.94,1.42-1.18,2.24-.24.82-.31,1.68-.21,2.53.1.85.37,1.67.8,2.41.42.74.99,1.39,1.68,1.9.68.51,1.46.88,2.29,1.09.83.21,1.69.24,2.53.1.94-.1,1.86-.42,2.66-.93.81-.51,1.49-1.18,1.99-1.99l3.35,2.35c-.85,1.29-1.99,2.36-3.31,3.14-1.33.78-2.83,1.24-4.36,1.35-1.38.28-2.81.26-4.18-.04-1.37-.31-2.67-.9-3.8-1.74-1.13-.84-2.07-1.91-2.76-3.14-.69-1.23-1.12-2.59-1.25-3.99Z"/>
  <path class="cls-11" d="M780.37,90.72c-.37-2.14-.1-4.35.79-6.33.89-1.98,2.36-3.65,4.21-4.79,1.85-1.14,4-1.7,6.17-1.6,2.17.1,4.26.84,6.01,2.14,1.75,1.3,3.06,3.09,3.77,5.14.71,2.05.79,4.27.23,6.37-.56,2.1-1.74,3.98-3.39,5.4-1.64,1.42-3.68,2.32-5.84,2.57-1.38.24-2.79.2-4.15-.12-1.36-.32-2.64-.92-3.76-1.75-1.12-.84-2.06-1.89-2.76-3.1-.7-1.21-1.14-2.55-1.3-3.94ZM797.3,88.71c-.17-1.21-.7-2.34-1.51-3.25s-1.87-1.56-3.05-1.87c-1.18-.31-2.42-.27-3.58.13-1.15.39-2.17,1.12-2.91,2.08-.75.97-1.19,2.13-1.28,3.34-.09,1.22.19,2.43.79,3.49.6,1.06,1.5,1.92,2.59,2.48,1.09.55,2.31.77,3.52.64.83-.08,1.64-.32,2.37-.72.73-.4,1.37-.95,1.88-1.61.51-.66.88-1.42,1.08-2.23.2-.81.24-1.65.1-2.47Z"/>
  <path class="cls-11" d="M822.21,75.81l2.35,19.64-3.76.44-11.2-10.76,1.41,11.93-4.49.54-2.35-19.68,3.76-.44,11.2,10.79-1.27-11.93,4.36-.54Z"/>
  <path class="cls-11" d="M831.26,78.46l-6.27.77-.44-3.72,17.13-2.04.44,3.72-6.3.74,1.91,15.95-4.56.54-1.91-15.95Z"/>
  <path class="cls-11" d="M859.11,91.36l-4.39-5.13h-.24l-3.95.47.64,5.46-4.53.54-2.35-19.64,8.51-1.01c5.26-.64,8.85,1.71,9.39,6.1.21,1.33,0,2.69-.61,3.89-.6,1.2-1.56,2.19-2.74,2.82l5.16,5.8-4.89.7ZM852.98,75.91l-3.72.44.8,6.7,3.72-.44c2.78-.34,4.02-1.81,3.79-3.92-.23-2.11-1.81-3.12-4.59-2.78Z"/>
  <path class="cls-11" d="M879.72,84.65l-9.15,1.07-1.24,4.42-4.66.54,6.43-20.68,4.49-.54,11.13,18.6-4.79.57-2.21-3.99ZM877.88,81.3l-4.02-7.17-2.21,7.91,6.23-.74Z"/>
  <path class="cls-11" d="M886.12,78.18c-.19-1.38-.1-2.79.29-4.13.38-1.34,1.04-2.59,1.93-3.67.89-1.07,1.99-1.95,3.24-2.58,1.25-.63,2.61-.99,4-1.06,1.52-.24,3.07-.14,4.54.3,1.47.43,2.83,1.19,3.97,2.22l-2.61,3.05c-.69-.65-1.52-1.15-2.42-1.44-.9-.3-1.86-.39-2.8-.27-.85.07-1.68.31-2.44.7-.76.4-1.43.94-1.97,1.6s-.94,1.42-1.18,2.24c-.24.82-.31,1.68-.21,2.53.1.85.37,1.67.8,2.41.43.74,1,1.39,1.68,1.9.68.51,1.46.88,2.29,1.09.83.21,1.69.24,2.53.11.95-.1,1.86-.41,2.67-.92s1.49-1.19,1.99-2l3.35,2.35c-1.24,1.74-2.97,3.08-4.97,3.84-2,.76-4.18.92-6.27.45-2.09-.47-3.99-1.55-5.47-3.1-1.48-1.55-2.46-3.5-2.83-5.61h-.1Z"/>
  <path class="cls-11" d="M911.09,69.04l-6.3.74-.44-3.65,17.13-2.01.47,3.69-6.3.74,1.88,15.95-4.53.57-1.91-16.02Z"/>
  <path class="cls-11" d="M936.2,104.6c0,.47-40.76,5.7-91.17,11.7-50.41,6-91.27,10.42-91.34,10.06-.07-.37,40.72-5.7,91.14-11.66,50.41-5.97,91.3-10.56,91.37-10.09Z"/>
  <path class="cls-11" d="M937.88,118.91c0,.5-40.76,5.73-91.14,11.7-50.38,5.97-91.3,10.42-91.37,10.06-.07-.37,40.76-5.73,91.17-11.7,50.41-5.97,91.3-10.52,91.34-10.06Z"/>
  <path class="cls-11" d="M939.59,133.16c0,.5-40.76,5.73-91.14,11.7-50.38,5.97-91.3,10.42-91.37,10.06-.07-.37,40.76-5.73,91.17-11.7,50.41-5.97,91.27-10.46,91.34-10.06Z"/>
  <path class="cls-11" d="M941.29,147.57c0,.47-40.76,5.7-91.17,11.66-50.41,5.97-91.3,10.42-91.34,10.06-.03-.37,40.73-5.7,91.14-11.7,50.41-6,91.3-10.52,91.37-10.02Z"/>
  <path class="cls-11" d="M942.97,161.88c0,.47-40.76,5.7-91.14,11.66-50.38,5.97-91.3,10.42-91.37,10.06-.06-.37,40.76-5.7,91.17-11.66,50.41-5.97,91.3-10.52,91.34-10.06Z"/>
  <path class="cls-11" d="M944.68,176.2c0,.47-40.76,5.7-91.14,11.66-50.38,5.97-91.3,10.42-91.37,10.06-.07-.37,40.76-5.7,91.14-11.66,50.38-5.97,91.3-10.52,91.37-10.06Z"/>
  <path class="cls-11" d="M946.36,190.5c0,.47-40.72,5.7-91.14,11.7-50.41,6-91.3,10.42-91.34,10.06-.03-.37,40.72-5.7,91.14-11.66,50.41-5.97,91.3-10.46,91.34-10.09Z"/>
  <path class="cls-11" d="M948.07,204.82c0,.5-40.76,5.73-91.14,11.7-50.38,5.97-91.3,10.42-91.37,10.06-.07-.37,40.76-5.73,91.17-11.7,50.41-5.97,91.27-10.52,91.34-10.06Z"/>
  <path class="cls-11" d="M949.77,219.17c0,.47-40.76,5.7-91.17,11.66-50.41,5.97-91.3,10.42-91.34,10.06-.03-.37,40.73-5.73,91.14-11.7,50.41-5.97,91.3-10.52,91.37-10.02Z"/>
  <path class="cls-11" d="M951.45,233.48c0,.47-40.76,5.7-91.14,11.66s-91.3,10.42-91.37,10.06c-.06-.37,40.76-5.7,91.17-11.7,50.41-6,91.3-10.52,91.34-10.02Z"/>
  <path class="cls-10" d="M833.74,298.23c-.23,0-.4-2.82-2.25-7.54-2.69-6.65-7.51-12.21-13.71-15.82-4.56-2.65-9.71-4.11-14.98-4.26-5.27-.15-10.49,1.03-15.19,3.42-2.71,1.33-5.19,3.08-7.34,5.2-2.32,2.13-4.28,4.62-5.8,7.37-3.31,5.8-4.68,12.52-3.89,19.15.79,6.64,3.68,12.85,8.25,17.72,4.23,4.53,9.7,7.73,15.72,9.19,4.29,1,8.74,1.09,13.07.28,4.33-.81,8.44-2.52,12.08-5,3.64-2.49,6.72-5.7,9.04-9.44,2.33-3.74,3.86-7.92,4.49-12.28.71-5.03.2-7.84.44-7.88.5,2.63.58,5.32.24,7.98-.71,6.21-3.19,12.08-7.16,16.9-3.97,4.82-9.25,8.39-15.2,10.28-5.55,1.77-11.47,2.04-17.16.77-3.09-.65-6.07-1.79-8.81-3.35-2.98-1.67-5.67-3.82-7.94-6.37-4.83-5.11-7.89-11.64-8.72-18.63-.83-6.99.62-14.05,4.12-20.15,1.61-2.9,3.67-5.52,6.1-7.78,2.31-2.19,4.95-4.01,7.81-5.4,5.27-2.63,11.15-3.78,17.03-3.35,6.23.44,12.2,2.68,17.19,6.44,4.99,3.76,8.79,8.88,10.93,14.75.96,2.5,1.51,5.14,1.64,7.81Z"/>
  <path class="cls-10" d="M828.67,293.81c-.72-.96-1.38-1.97-1.98-3.02l-4.96-8.21.7.2c-10.46,6.17-27.62,16.02-47.09,27.05,0-.54-.33,1.17.33-1.21v.17l.2.37.4.74.84,1.47,1.64,2.88,3.35,5.66-1.18-.33c13.41-7.47,25.14-13.94,33.69-18.57l10.05-5.46c2.41-1.27,3.79-1.94,3.89-1.94-1.06.8-2.18,1.52-3.35,2.15l-9.72,5.76c-8.35,4.93-20.11,11.83-33.82,19.57l-.74.41-.44-.74-3.18-5.63-1.64-2.92-.84-1.44-.4-.74-.23-.37v-.2c.67-2.38.2-.67.33-1.21,19.47-10.99,36.87-20.61,47.46-26.41l.47-.23.24.44c2.04,3.79,3.59,6.7,4.59,8.75.55.96,1.01,1.97,1.37,3.02Z"/>
  <path class="cls-10" d="M829.71,301.79c.24.75.31,1.54.2,2.31-.06,2.1-.39,4.18-.97,6.2-1.93,6.81-6.36,12.65-12.41,16.33-6.05,3.68-13.26,4.95-20.2,3.54-2.07-.4-4.07-1.06-5.97-1.98-1.34-.67-1.98-1.14-1.94-1.24.03-.1,3.02,1.27,8.11,1.98,6.61,1.05,13.38-.29,19.1-3.78,5.72-3.49,10.01-8.89,12.1-15.25,1.71-4.83,1.64-8.11,1.98-8.11Z"/>
  <path class="cls-10" d="M791.8,276.38c-1.41,1.1-2.88,2.11-4.42,3.02-3.45,2.43-6.34,5.56-8.48,9.19-2.14,3.63-3.49,7.67-3.95,11.86-.04,1.78-.2,3.56-.47,5.33-.7-1.71-.95-3.56-.74-5.4.13-4.47,1.39-8.83,3.66-12.68,2.27-3.85,5.47-7.06,9.31-9.34,1.5-1.09,3.25-1.77,5.09-1.98Z"/>
  <path class="cls-10" d="M801.36,274.9c0,.47-.67,1.01-1.68,1.17-1,.17-1.87,0-1.98-.54-.1-.54.67-1.01,1.68-1.17,1.01-.17,1.88.07,1.98.54Z"/>
  <path class="cls-10" d="M813.92,276.88c0,.47-1.68.54-3.52.17-1.84-.37-3.35-1.07-3.15-1.54.2-.47,1.68-.54,3.52-.17,1.84.37,3.25,1.07,3.15,1.54Z"/>
  <path class="cls-10" d="M822.07,289.12c-6.07,4.45-12.48,8.42-19.17,11.87-6.44,3.94-13.16,7.39-20.11,10.32,6.07-4.45,12.48-8.42,19.17-11.87,6.43-3.95,13.16-7.4,20.11-10.32Z"/>
  <path class="cls-4" d="M942.7,287.61c-.43.36-.9.66-1.41.9-1.48.7-3.11,1.05-4.76,1.01-1.34,0-2.66-.28-3.89-.8-1.23-.52-2.35-1.29-3.28-2.25-1.27-1.31-2.19-2.92-2.68-4.67-.49-1.76-.54-3.61-.13-5.38l.27-1.27.57,1.21c1.33,2.36,2.1,5,2.25,7.71-.02,1.55-.5,3.05-1.37,4.32-.51.67-1.15,1.22-1.9,1.61-.74.39-1.56.62-2.4.67-1.75,0-3.47-.51-4.93-1.49-1.46-.98-2.59-2.37-3.25-4-1.2-3.43-1.6-7.09-1.18-10.69v-.87l.84.23c1.87.67,3.51,1.85,4.73,3.41,1.23,1.56,1.99,3.43,2.21,5.4.29,2.07-.08,4.19-1.07,6.03-1.07,1.88-2.7,3.37-4.66,4.29-2,1-4.26,1.37-6.48,1.07-2.22-.3-4.29-1.27-5.95-2.78-1.64-1.68-2.77-3.79-3.26-6.09-.48-2.3-.31-4.69.51-6.89.22-.56.49-1.1.8-1.61.19-.34.45-.64.77-.87.22-.16.49-.27.76-.3.27-.04.56,0,.81.1.67.32,1.21.85,1.54,1.51.33.51.62,1.05.87,1.61,1,2.25,1.33,4.74.94,7.17-.33,2.51-1.43,4.85-3.15,6.7-1.81,1.82-4.16,2.99-6.7,3.35-2.55.52-5.19.24-7.58-.8-1.24-.5-2.36-1.25-3.29-2.2-.93-.95-1.66-2.09-2.14-3.33-.53-1.29-.69-2.71-.47-4.09.11-.73.37-1.42.76-2.05.39-.62.91-1.16,1.52-1.57,1.26-.73,2.74-1.02,4.18-.81,1.45.21,2.78.9,3.79,1.95,1.09,1.3,1.74,2.92,1.84,4.62.1,1.7-.34,3.38-1.27,4.8-.87,1.34-2,2.5-3.33,3.38-1.33.89-2.83,1.49-4.41,1.78-3.05.74-6.1.27-8.75.7-1.25.03-2.45.52-3.36,1.38-.91.86-1.47,2.03-1.57,3.28-.03,1.29.25,2.56.8,3.73.55,1.16,1.37,2.18,2.38,2.98,2.02,1.74,4.28,3.2,6.7,4.32,2.23,1.19,4.76,1.67,7.27,1.37,1.16-.24,2.23-.77,3.11-1.55.88-.78,1.55-1.79,1.92-2.91,1.23-4.71.77-9.71-1.31-14.11-1.68-4.53-3.82-8.71-5.7-12.87-3.79-8.15-6.07-17.06-3.35-24.6l.47-1.37.64,1.31c2.8,5.78,4.33,12.09,4.49,18.5.14,4.79-.48,9.57-1.81,14.18-.84,2.87-1.96,5.66-3.35,8.31-.5.87-.94,1.54-1.21,1.98-.27.44-.44.67-.47.64.39-.96.85-1.89,1.37-2.78,1.26-2.67,2.29-5.46,3.05-8.31,1.21-4.55,1.72-9.27,1.51-13.98-.25-6.26-1.83-12.39-4.62-18h1.07c-2.31,7.11,0,15.62,3.69,23.66,1.88,4.09,4.09,8.28,5.83,12.9,2.23,4.75,2.72,10.14,1.37,15.22-.48,1.37-1.31,2.6-2.4,3.56-1.09.96-2.41,1.63-3.83,1.94-2.85.38-5.74-.14-8.28-1.47-2.56-1.21-4.96-2.74-7.14-4.56-1.19-.97-2.15-2.2-2.79-3.59-.65-1.4-.96-2.92-.93-4.46.06-1.66.77-3.22,1.98-4.36,1.23-1.05,2.75-1.71,4.36-1.88,3.05-.44,5.93,0,8.61-.67,1.36-.23,2.65-.73,3.8-1.48s2.14-1.73,2.9-2.87c.73-1.09,1.1-2.39,1.04-3.7-.06-1.31-.52-2.58-1.34-3.6-.73-.76-1.69-1.26-2.73-1.43-1.04-.17-2.1,0-3.04.49-.81.66-1.37,1.59-1.58,2.61-.21,1.02-.07,2.09.4,3.02.95,2.03,2.58,3.67,4.6,4.63,2.02.97,4.32,1.2,6.5.66,2.16-.37,4.14-1.42,5.65-3,1.52-1.58,2.48-3.61,2.76-5.78.34-2.11.07-4.27-.77-6.23-.22-.48-.48-.94-.77-1.37-.16-.34-.4-.64-.7-.87l-.37.4c-.26.43-.48.88-.67,1.34-.72,1.9-.89,3.96-.48,5.95s1.38,3.82,2.79,5.28c1.43,1.3,3.21,2.13,5.12,2.39,1.91.26,3.85-.06,5.57-.92,1.67-.73,3.05-1.98,3.94-3.56.89-1.58,1.24-3.42.99-5.22-.17-1.7-.81-3.32-1.85-4.68-1.04-1.36-2.45-2.39-4.05-2.99l.87-.6c-.43,3.38-.1,6.82.97,10.06.55,1.41,1.5,2.62,2.75,3.48,1.24.86,2.72,1.33,4.22,1.35.65-.03,1.29-.2,1.87-.5.58-.3,1.08-.73,1.48-1.24.73-1.1,1.1-2.4,1.07-3.72-.14-2.56-.83-5.05-2.04-7.31h.87c-.39,1.65-.37,3.36.05,5,.43,1.64,1.25,3.14,2.39,4.39,1.76,1.84,4.16,2.92,6.7,3.02,2.19.1,4.36-.41,6.27-1.47Z"/>
  <path class="cls-11" d="M951.02,293.48c0,.47-17.13,2.92-38.38,5.43-21.25,2.51-38.51,4.16-38.58,3.69-.06-.47,17.13-2.92,38.38-5.43,21.25-2.51,38.51-4.16,38.58-3.69Z"/>
  <path class="cls-7" d="M952.26,257.38l50.07-5.93,2.25,18.97-50.07,5.93-14.08-7.94,11.83-11.03Z"/>
  <path class="cls-11" d="M719.65,262.92c-10.17-3.74-21.69,4.8-32.27,2.1-6.45-1.62-11.09-7.05-16.71-10.55-4.4-2.7-9.37-4.37-14.53-4.87-5.15-.5-10.35.18-15.17,2-9.06,3.78-14.91,8.31-16.78,17.92-7.79-5.03-21.79,4.14-26.88,13.5-5.09,9.36-4.49,19.36-2.35,29.86,3.5,18.05,10.54,35.26,20.75,50.68.9,1.37,2.37,2.9,3.9,2.31.49-.29.9-.69,1.2-1.18.3-.48.47-1.03.51-1.59,2.07-9.34,1.36-19.02,1.06-28.6-.3-9.58-.18-19.38,3.38-28.28,3.56-8.9,11.19-16.69,20.84-18,7.22-.57,14.42,1.39,20.34,5.54,6.08,3.82,11.32,8.76,17.05,13.03,5.54,4.59,12.25,7.61,19.4,8.72,7.14.73,15-2.16,18.4-8.35,3.4-6.19.49-15.47-6.46-17.34,3.26-.12,6.37-1.34,8.81-3.46,2.44-2.12,4.05-5.01,4.56-8.18.51-3.17-.11-6.42-1.75-9.2-1.65-2.78-4.22-4.92-7.27-6.06Z"/>
  <path class="cls-11" d="M705.25,285.44c-2.57-5.3-6.43-9.89-11.24-13.37-10.07-8-22.43-12.67-35.33-13.36-12.94-.61-25.59,3.75-35.27,12.16-7.46,6.97-12.68,15.96-14.98,25.84-2.73,10.76-3.44,21.93-2.09,32.96.69,4.36,3.17,6,6.21,9.28,1.9,2.05,5.21,3.54,7.47,1.8,1.22-1.11,2.02-2.59,2.28-4.21,3.89-14.21,7.69-29.49,2.69-43.37,3.54-4.67,8.03-8.56,13.19-11.41,2.58-1.42,5.42-2.32,8.37-2.65,2.94-.33,5.93-.07,8.78.75,8.36,2.74,13.36,10.89,19.95,16.65,4.77,4.07,10.45,6.97,16.56,8.47,6.12,1.5,12.5,1.54,18.62.14l-5.2-19.68Z"/>
  <path class="cls-2" d="M593.66,306.3c.03-.21,2.04.08,5.22-.05,8.35-.36,16.25-3.75,22.19-9.52,2.25-2.27,3.35-3.84,3.55-3.73-.69,1.61-1.69,3.07-2.94,4.31-2.87,3.13-6.38,5.62-10.31,7.31-3.92,1.69-8.17,2.55-12.47,2.51-1.78.06-3.56-.22-5.23-.83Z"/>
  <path class="cls-2" d="M594.94,311.8c.03-.21,2.01.07,5.19-.05,8.36-.34,16.27-3.74,22.19-9.52,2.27-2.27,3.35-3.84,3.55-3.73-.67,1.62-1.67,3.08-2.94,4.31-2.87,3.13-6.38,5.62-10.31,7.31-3.92,1.69-8.17,2.55-12.47,2.51-1.77.05-3.54-.23-5.21-.83Z"/>
  <path class="cls-8" d="M613.65,326.9c-.4-.17-16.16-5.73-16.52,10.62-.37,16.36,16.12,13.41,16.19,12.87.07-.54.33-23.5.33-23.5Z"/>
  <path class="cls-3" d="M608.46,344.09s-.3.2-.77.4c-.69.27-1.46.27-2.15,0-1.04-.69-1.88-1.65-2.43-2.78s-.79-2.37-.69-3.62c0-1.4.29-2.78.87-4.06.17-.51.46-.97.85-1.34.38-.37.85-.65,1.37-.8.33-.08.67-.04.97.11.3.15.54.39.68.7.23.47,0,.8.2.84.2.03.37-.27.24-.94-.07-.41-.29-.77-.6-1.04-.45-.35-1.01-.51-1.57-.47-.68.12-1.31.41-1.84.85-.53.44-.95,1-1.21,1.63-.71,1.4-1.08,2.95-1.07,4.53-.11,1.45.21,2.91.91,4.18.71,1.28,1.78,2.31,3.07,2.99.44.13.9.17,1.35.1.45-.07.88-.24,1.26-.5.54-.37.6-.74.57-.77Z"/>
</svg>
