<?xml version="1.0" encoding="UTF-8"?>
<svg id="Layer_1" data-name="Layer 1" xmlns="http://www.w3.org/2000/svg" viewBox="0 0 1000 1000">
  <defs>
    <style>
      .cls-1, .cls-2, .cls-3, .cls-4, .cls-5, .cls-6, .cls-7, .cls-8, .cls-9, .cls-10, .cls-11, .cls-12 {
        stroke-width: 0px;
      }

      .cls-1, .cls-11 {
        fill: #000;
      }

      .cls-2 {
        fill: #e0e0e0;
      }

      .cls-13 {
        opacity: .2;
      }

      .cls-3 {
        fill: #eb996e;
      }

      .cls-4 {
        fill: #455a64;
      }

      .cls-5 {
        fill: #f5f5f5;
      }

      .cls-6 {
        fill: #09f;
      }

      .cls-7 {
        fill: #ebebeb;
      }

      .cls-8 {
        fill: #d1734a;
      }

      .cls-9 {
        fill: #263238;
      }

      .cls-10 {
        fill: #fafafa;
      }

      .cls-14, .cls-11 {
        opacity: .3;
      }

      .cls-11 {
        isolation: isolate;
      }

      .cls-12 {
        fill: #fff;
      }
    </style>
  </defs>
  <path class="cls-2" d="M711.91,86.49l-52.51,26.33c-1.92.82-3.56,2.18-4.71,3.93-1.15,1.74-1.77,3.79-1.77,5.88v24.56c-.05,22.32,6.46,44.17,18.72,62.83,9.46,14.36,22.01,32.83,42.88,43.37h9.41c23.25-7.18,40.59-25.97,51.18-42.13,12.26-18.66,18.77-40.5,18.72-62.83v-25.8c0-2.09-.61-4.13-1.76-5.87-1.15-1.74-2.78-3.11-4.7-3.93l-59.81-25.49c-2.68-1.13-13-1.97-15.65-.84Z"/>
  <path class="cls-5" d="M709.79,87.34l-59.81,25.49c-1.92.82-3.56,2.18-4.71,3.93-1.15,1.74-1.77,3.79-1.77,5.88v24.56c0,22.75,6.75,44.99,19.4,63.9,12.64,18.91,30.61,33.65,51.64,42.35,23.23-7.18,40.57-25.98,51.18-42.13,12.26-18.68,18.77-40.54,18.72-62.88v-25.8c0-2.09-.61-4.13-1.77-5.88-1.15-1.74-2.79-3.11-4.71-3.93l-59.81-25.49c-1.32-.56-2.74-.84-4.17-.84s-2.85.29-4.17.84Z"/>
  <path class="cls-2" d="M784.23,141.77c.08.37.12.75.11,1.13,0,.84.09,1.92.14,3.25.05,1.33.14,3.14,0,5.15-.14,2.01,0,4.31-.32,6.82-.32,2.51-.41,5.39-.93,8.24-.23,1.47-.41,3-.72,4.56-.3,1.56-.68,3.14-1.02,4.77-1.66,7.09-3.97,14-6.91,20.66-3.02,6.62-6.63,12.97-10.77,18.96-1.99,2.69-3.84,5.39-5.82,7.52-.97,1.13-1.79,2.28-2.78,3.29l-2.73,2.89c-1.71,1.8-3.45,3.37-4.9,4.77-1.45,1.4-2.78,2.5-3.88,3.38l-2.35,2.05c-.28.26-.59.48-.92.66.24-.3.51-.57.81-.81l2.42-2.17c1.06-.92,2.35-2.06,3.75-3.59,1.4-1.53,3.12-2.93,4.77-4.83l2.68-2.93c.92-1.01,1.79-2.15,2.73-3.28,1.94-2.24,3.73-4.85,5.69-7.54,4.06-5.96,7.61-12.26,10.59-18.83,2.91-6.61,5.22-13.46,6.91-20.48l1.06-4.74c.32-1.54.52-3.07.77-4.52.54-2.91.75-5.65,1.02-8.17.27-2.51.31-4.78.45-6.79.14-2.01.13-3.72.13-5.13v-3.25c-.03-.35-.02-.7.02-1.04Z"/>
  <path class="cls-12" d="M709.51,195.15l-34.3-27.27,9.51-11.97,23.01,18.29,33.6-37.61,11.4,10.2-43.22,48.36Z"/>
  <path class="cls-7" d="M871.57,220.87h-6.5v-35.35c0-4-1.59-7.83-4.42-10.66-2.83-2.83-6.66-4.42-10.66-4.42s-7.84,1.59-10.66,4.42c-2.83,2.83-4.42,6.66-4.42,10.66v35.35h-6.5v-35.35c0-5.71,2.27-11.19,6.31-15.23,4.04-4.04,9.52-6.31,15.23-6.31s11.19,2.27,15.23,6.31c4.04,4.04,6.31,9.52,6.31,15.23l.07,35.35Z"/>
  <path class="cls-7" d="M873.52,196.89h-47.08c-3.05,0-5.53,2.48-5.53,5.53v34.52c0,3.05,2.48,5.53,5.53,5.53h47.08c3.05,0,5.53-2.47,5.53-5.53v-34.52c0-3.05-2.48-5.53-5.53-5.53Z"/>
  <path class="cls-10" d="M854.44,220.86c.58-.59,1.04-1.28,1.34-2.05.31-.76.46-1.58.45-2.41,0-1.19-.32-2.37-.94-3.39-.62-1.02-1.52-1.84-2.58-2.38-1.07-.54-2.26-.77-3.45-.66-1.19.11-2.33.54-3.28,1.26-.95.72-1.69,1.69-2.12,2.8-.43,1.11-.55,2.33-.33,3.5.22,1.17.76,2.26,1.57,3.15.81.88,1.84,1.52,2.99,1.85l-1.36,6.07h6.09l-1.22-6.07c1.06-.3,2.03-.88,2.8-1.67"/>
  <path class="cls-2" d="M133.59,736.74c-6.97-4.36-14.85-7.07-23.03-7.92-3.77-.4-7.88-.29-10.9,1.99-.35.2-.64.49-.84.84-.2.35-.3.75-.29,1.15.18.57.57,1.05,1.08,1.36,4.89,3.49,10.64,5.57,16.63,6.02,5.99.45,11.99-.74,17.35-3.46Z"/>
  <path class="cls-2" d="M133,736.1c-5.33-3.92-10.31-8.3-14.88-13.09-4.58-4.82-7.79-10.78-9.32-17.25-.3-.96-.39-1.97-.27-2.97.13-1,.47-1.96,1-2.81,11.85,9.26,21.16,21.25,23.46,36.12Z"/>
  <path class="cls-2" d="M133.46,736.65c-1.09-6.48-1-13.1.29-19.55,1.32-6.5,5.03-12.26,10.39-16.16,2.05,4.79,1.17,10.32-.27,15.31-2.23,7.76-5.72,15.09-10.32,21.72"/>
  <path class="cls-2" d="M145.1,757.5c-6.98,1.13-13.43,4.4-18.47,9.35-5.3,4.82-8.99,11.15-10.57,18.13,6.93-.43,12.8-5.38,17.05-10.77,4.25-5.38,7.18-11.47,11.9-16.59"/>
  <path class="cls-2" d="M147.63,760.82c-2.78-7.05-3.75-14.69-2.83-22.21.92-7.52,3.7-14.7,8.09-20.87,4.02,14.36,2.53,30.52-5.26,43.08Z"/>
  <path class="cls-2" d="M162.97,779.11c-6.45-.39-12.88,1.12-18.48,4.35-5.6,3.23-10.13,8.03-13.03,13.8-.38.77-.74,1.8-.2,2.46.27.27.6.46.96.57.36.11.75.12,1.12.04,6.21-.39,11.7-4.13,16.25-8.38,4.54-4.25,8.51-9.17,13.52-12.85"/>
  <path class="cls-2" d="M162.49,778.14c-3.31-10.65-3.51-22.02-.59-32.78,1.17-4.22,3.11-8.65,7-10.63.16-.1.33-.18.52-.21.19-.03.38-.03.56.02.32.17.55.45.66.79,1.32,2.95,1.88,6.17,1.65,9.39-.23,3.21-.72,6.4-1.47,9.53-1.22,5.81-1.8,12.06-5.08,17.09-.75,1.21-1.43,2.46-2.03,3.75-.59,1.27-.59,1.79-1.15,2.73"/>
  <path class="cls-2" d="M203.15,784.17c-1.37-5.98-1.41-12.19-.13-18.2,1.28-6,3.86-11.65,7.54-16.56.52-.7,1.22-1.44,2.1-1.36,1.33.13,1.67,1.9,1.62,3.23-.55,11.78-4.41,23.17-11.13,32.87"/>
  <path class="cls-2" d="M206.81,786.68c7.11,1.68,14.51,1.79,21.67.34,7.16-1.46,13.92-4.45,19.82-8.77-6.94-3.49-14.88-4.46-22.46-2.75-7.5,1.8-14.36,5.06-19.03,11.18Z"/>
  <path class="cls-2" d="M209.9,779.05c7.81-12.71,22.76-21,37.7-21.77-1.8,6.07-6.69,10.77-12.31,13.62-5.76,2.58-11.85,4.36-18.09,5.28-2.41.47-5.71.99-7.18,2.87"/>
  <path class="cls-2" d="M203.92,742.02c2.37-7.16,3.98-14.55,4.81-22.04.83-7.54-.7-15.16-4.38-21.79-7.29,14.09-8.02,30.52-.65,44.61"/>
  <path class="cls-2" d="M228.44,729.67c8.53-15.47,25.9-27.84,43.48-29.58-6.79,16.89-25.27,29.94-43.48,29.58Z"/>
  <path class="cls-2" d="M223.09,732.67c12.69,1.94,23.52,10.05,35.38,14.97,2.49,1.19,5.25,1.72,8.01,1.53,1.28-.02,2.52-.42,3.57-1.17,1.04-.74,1.83-1.79,2.26-3,.43-1.21.48-2.51.14-3.75-.34-1.23-1.05-2.34-2.03-3.16-1.68-1.57-3.66-2.79-5.82-3.59-12.92-5.39-26.8-5.51-40.41-2.24"/>
  <path class="cls-2" d="M215.73,741.57c2.87.83,3.86,2.32,6.14,4.25,7.79,6.62,17,11.34,26.93,13.79,1.02.25,2.37.36,2.89-.56.52-.92-.13-1.8-.7-2.51-4.3-5.05-9.88-8.86-16.16-11-6.19-2.32-11.56-5.1-18.96-4.49"/>
  <path class="cls-2" d="M207.44,687.77c5.21,4.8,11.37,8.46,18.08,10.74,6.71,2.28,13.82,3.14,20.88,2.5.66.02,1.3-.2,1.8-.63.99-1.08-.2-2.73-1.33-3.59-11.45-8.97-25.33-12.57-39.38-8.97"/>
  <path class="cls-2" d="M217.28,684.17c6.89-5.07,14.89-8.44,23.34-9.83,8.44-1.39,17.1-.76,25.26,1.83-6.36,5.89-14.51,9.47-23.16,10.16-8.54.79-17.15.06-25.44-2.15Z"/>
  <path class="cls-2" d="M213.36,659.45c-1.11-11.43-.39-20.45-1.18-31.93,0-.92-.25-2.01-1.11-2.35-1.2-.45-2.19,1.01-2.58,2.23-1.67,5.32-2.09,10.95-1.25,16.47.84,5.51,2.93,10.76,6.12,15.34"/>
  <path class="cls-2" d="M212.54,660.7c7.5-4.81,13.96-11.06,19.01-18.4,3.73-5.12,6.89-11.24,6.05-17.52-2.63.07-5.22.71-7.58,1.89-2.36,1.17-4.43,2.84-6.08,4.9-3.26,4.14-5.63,8.9-6.96,14-1.51,5.03-2.57,10.2-4.36,15.13"/>
  <path class="cls-2" d="M231.15,655.53c17.07-6.3,32.88-15.6,46.67-27.47-5.56-2.24-11.94-.9-17.5,1.35-12.63,4.78-23.07,14.04-29.33,26.01"/>
  <path class="cls-2" d="M217.78,666.97c8.58,1.22,17.28,1.26,25.87.13,8.38-1.4,16.32-4.74,24.14-8.02.69-.2,1.27-.65,1.65-1.26.12-.36.13-.75.02-1.12-.11-.37-.32-.7-.61-.94-.61-.47-1.31-.81-2.06-.97-8.53-2.37-17.72-1.26-26.1,1.56-7.98,2.73-15.66,6.3-22.9,10.63Z"/>
  <path class="cls-2" d="M168.72,688.17c-5.87-11.85-5.39-25.67-.41-37.88,3.59,5.39,4,12.35,3.36,18.83-.65,6.48-2.62,13.12-2.76,19.62"/>
  <path class="cls-2" d="M145.22,676.34c-7.35-.1-14.63,1.34-21.39,4.22-6.76,2.88-12.84,7.14-17.85,12.51,7.42.89,14.93-.5,21.54-3.99,6.54-3.47,12.71-7.61,18.42-12.33"/>
  <path class="cls-2" d="M129.46,671.06c-7.18-.57-14.06-1.45-20.95.65-3.48.98-6.7,2.7-9.46,5.04-2.75,2.34-4.97,5.24-6.5,8.52,6.76.54,13.54-.74,19.64-3.72,6.06-2.97,11.84-6.48,17.27-10.48Z"/>
  <path class="cls-2" d="M152.8,671.31c-6.44-4.22-13.07-8.53-20.57-10.29-7.5-1.76-16.16-.45-21.43,5.21,6.07,3.59,13.45,3.99,20.5,3.99s15.67-.09,22.31,2.26"/>
  <path class="cls-2" d="M152.83,671.66c-11.02-10.77-15.19-30.27-10.77-45.06,8.7,13.32,12.5,29.24,10.77,45.06Z"/>
  <path class="cls-2" d="M183.08,641c2.08-4.85,3.59-9.91,5.39-14.83,1.7-4.99,4.31-9.62,7.7-13.66,3.43-4.09,8.34-6.67,13.66-7.18-1.7,7.46-4.93,14.48-9.49,20.62-4.56,6.14-10.35,11.26-17,15.03"/>
  <path class="cls-2" d="M177.69,647.38c-3.43-4.74-7.41-11.16-12.08-14.7-4.67-3.54-10.77-5.67-16.42-4.33,2.95,5.17,7.06,9.58,12.01,12.88,4.95,3.3,10.6,5.41,16.5,6.15Z"/>
  <path class="cls-2" d="M178.75,641.39c-2.44-5.65-4.25-11.56-5.39-17.61-1.13-6.12-.15-12.45,2.76-17.95,6.05,11.43,8.01,23.71,3,35.65"/>
  <path class="cls-2" d="M183.21,605.81c3.43-11.33,13.8-19.75,25.02-23.51,1.39-.57,2.89-.79,4.38-.65.75.08,1.45.37,2.03.85.58.48.99,1.12,1.21,1.84.41,1.92-1.18,3.59-2.69,4.94-8.76,7.48-18.94,13.11-29.94,16.53Z"/>
  <path class="cls-2" d="M183.33,596.6c.43-7.32.88-14.74,3.27-21.67,2.39-6.93,6.97-13.41,13.62-16.44,1.13,7.38-2.12,14.72-6.05,21.07-3.93,6.35-8.67,12.35-11.02,19.44"/>
  <path class="cls-2" d="M183.08,601.63c-2.84-8.26-3.12-18.76-8.08-25.96-3.46-5.03-8.98-8.45-11.97-13.79-1.8,5.11-1.55,10.72.7,15.65,2.25,4.88,5.35,9.31,9.15,13.1,3.59,3.91,6.79,6.86,10.2,10.99Z"/>
  <path class="cls-2" d="M183.21,844.95c-.22,0-.41-55.11-.43-123.09-.02-67.98.16-123.11.38-123.11s.41,55.09.43,123.11c.02,68.02-.16,123.09-.38,123.09Z"/>
  <path class="cls-2" d="M231.37,679.84c-.66.34-1.35.6-2.06.79l-5.71,1.92c-4.81,1.63-11.42,4-18.58,6.95-7.16,2.94-13.8,5.51-17.61,8.81-1.54,1.26-2.77,2.87-3.59,4.69-.56,1.29-.65,2.08-.72,2.08s0-.21,0-.59c.09-.54.23-1.08.41-1.6.72-1.92,1.9-3.64,3.45-4.99,2.3-1.95,4.88-3.54,7.65-4.74,3.05-1.44,6.44-2.93,10.03-4.4,7.18-2.94,13.84-5.24,18.7-6.75,2.44-.75,4.42-1.31,5.8-1.69.72-.23,1.47-.39,2.23-.49Z"/>
  <path class="cls-2" d="M247.16,641.07c-.17.23-.37.43-.59.61l-1.79,1.67-6.61,6-21.97,19.57c-8.58,7.65-15.99,14.93-21.13,20.43-2.58,2.75-4.61,5.03-6,6.61l-1.6,1.8c-.17.23-.37.42-.59.59.13-.25.3-.49.48-.7.32-.45.81-1.11,1.47-1.92,1.31-1.65,3.28-3.99,5.82-6.79,6.63-7.25,13.64-14.14,21-20.64,8.62-7.61,16.44-14.47,22.13-19.39,2.8-2.4,5.1-4.36,6.77-5.82l1.8-1.54c.25-.19.52-.35.81-.47Z"/>
  <path class="cls-2" d="M206.97,676.68c-.23-.11,1.56-4.24,3.36-9.48,1.8-5.24,2.64-9.64,2.87-9.6-.19,3.38-.9,6.7-2.12,9.85-.77,2.24-1.66,4.43-2.67,6.57-.36.94-.84,1.84-1.44,2.66Z"/>
  <path class="cls-2" d="M183.26,710.03c-.5-.45-.95-.97-1.33-1.53l-3.39-4.34c-2.84-3.68-6.77-8.76-11.18-14.36-4.42-5.6-8.45-10.54-11.4-14.14l-3.39-4.24c-.45-.5-.86-1.05-1.2-1.63.52.43,1,.91,1.44,1.44.88.95,2.14,2.37,3.59,4.13,3.05,3.59,7.18,8.44,11.6,14,4.42,5.56,8.28,10.77,11,14.47,1.38,1.8,2.46,3.43,3.2,4.51.42.53.78,1.1,1.08,1.71Z"/>
  <path class="cls-2" d="M172.69,696.48c-2.13-2.35-3.64-5.2-4.42-8.28-.84-2.7-1.18-5.54-1.01-8.37h.36c-.05.34-.16.67-.34.97v-1.02h.36c.17,2.75.64,5.48,1.4,8.13,1.01,2.94,2.22,5.8,3.64,8.56Z"/>
  <path class="cls-2" d="M159.06,679.41c-.95-.72-1.99-1.32-3.09-1.8-2.78-.84-5.7-1.07-8.58-.68-2.91.21-5.8.67-8.63,1.38-1.18.36-2.38.65-3.59.86,1.05-.65,2.19-1.12,3.39-1.4,2.84-.88,5.77-1.44,8.74-1.65,2.98-.4,6.01-.07,8.83.95,1.22.41,2.25,1.24,2.93,2.33Z"/>
  <path class="cls-2" d="M155.83,675.17c0,.13-1.8-.72-4.74-1.8-7.67-2.61-15.88-3.23-23.86-1.79-3.05.54-4.88,1.11-4.94.99.39-.25.81-.43,1.26-.54,1.17-.41,2.37-.75,3.59-1.01,4.01-.88,8.13-1.17,12.22-.86,4.09.32,8.11,1.23,11.94,2.69,1.16.44,2.28.96,3.37,1.54.42.2.81.46,1.15.77Z"/>
  <path class="cls-2" d="M183.08,657.6c-1.41-3.92-2.56-7.93-3.45-11.99-1.16-4-2.06-8.07-2.69-12.19,1.41,3.92,2.56,7.93,3.46,11.99,1.15,4,2.04,8.07,2.67,12.19Z"/>
  <path class="cls-2" d="M183.37,657.6c-1.1-2.48-2.38-4.88-3.82-7.18-1.62-2.18-3.51-4.13-5.64-5.82.8.2,1.54.59,2.17,1.13,1.6,1.16,2.99,2.59,4.11,4.22,1.71,2.22,2.81,4.86,3.18,7.65Z"/>
  <path class="cls-2" d="M183.21,815.57s-.25-1.33-.88-3.59c-.88-3.29-2.08-6.49-3.59-9.55-5.31-9.97-11.87-19.22-19.53-27.52-4.36-4.99-8.6-9.69-12.19-14.2-3.23-3.95-6.15-8.16-8.72-12.57-1.73-2.98-3.2-6.1-4.4-9.33-.41-1.15-.7-2.05-.86-2.66-.1-.31-.18-.63-.23-.95,0,0,.47,1.26,1.38,3.5,1.3,3.16,2.84,6.22,4.6,9.15,2.63,4.34,5.57,8.49,8.8,12.4,3.59,4.45,7.86,9.12,12.22,14.11,7.72,8.35,14.26,17.71,19.46,27.82,1.5,3.1,2.66,6.36,3.46,9.71.21.91.37,1.83.48,2.77.03.3.03.6,0,.9Z"/>
  <path class="cls-2" d="M226.74,766.42c-.74.46-1.5.89-2.28,1.27-2.07,1.16-4.05,2.46-5.92,3.91-2.78,2.15-5.38,4.52-7.77,7.09-2.73,2.87-5.53,6.21-8.4,9.8-5.73,7.18-11.09,13.57-14.36,18.65-1.63,2.51-2.82,4.63-3.59,6.12-.37.79-.79,1.56-1.26,2.3,0,0,0-.23.22-.65.22-.41.39-1.02.75-1.8,1.02-2.16,2.17-4.25,3.45-6.26,4.36-6.55,9.09-12.84,14.16-18.85,2.87-3.59,5.73-6.93,8.51-9.82,2.45-2.56,5.11-4.91,7.95-7.02,1.94-1.45,4.01-2.72,6.18-3.81.58-.3,1.18-.56,1.8-.79.37-.14.56-.2.57-.16Z"/>
  <path class="cls-2" d="M227.58,782.36c-1.59.35-3.2.58-4.83.7-3.87.4-7.7,1.15-11.43,2.26-3.69,1.2-7.15,3.02-10.23,5.38-2.35,1.8-3.46,3.32-3.59,3.25-.13-.07.18-.45.7-1.11.75-.94,1.59-1.8,2.51-2.57,3.05-2.55,6.57-4.49,10.36-5.71,3.78-1.13,7.68-1.81,11.61-2.05,1.63-.2,3.27-.26,4.9-.16Z"/>
  <path class="cls-2" d="M198.91,792.18c-.25-.14,1.92-3.46,3.59-7.94,1.67-4.47,1.96-8.45,2.23-8.4.15.85.15,1.73,0,2.59-.24,2.08-.71,4.12-1.4,6.1-.74,1.95-1.68,3.82-2.8,5.58-.42.78-.96,1.47-1.62,2.06Z"/>
  <path class="cls-2" d="M240.83,723.59c-.23.18-.49.32-.77.41l-2.26,1.02c-1.01.43-2.21.97-3.59,1.69-1.38.72-2.96,1.44-4.61,2.42l-2.62,1.49c-.92.54-1.8,1.15-2.78,1.8-1.94,1.17-3.88,2.62-5.96,4.09-4.4,3.34-8.55,6.99-12.42,10.93-3.8,3.98-7.3,8.24-10.47,12.74-1.42,2.14-2.8,4.13-3.91,6.1-.56.97-1.15,1.9-1.65,2.84l-1.31,2.69c-.93,1.69-1.6,3.3-2.26,4.68-.66,1.38-1.17,2.6-1.56,3.59-.39.99-.7,1.69-.95,2.3-.1.27-.22.54-.38.79.03-.29.11-.58.23-.84l.81-2.35c.36-1.02.81-2.28,1.44-3.68.63-1.4,1.26-3.05,2.17-4.76.43-.88.9-1.8,1.36-2.73.47-.93,1.06-1.79,1.63-2.87,1.09-2.01,2.46-4.02,3.86-6.18,6.3-9.21,14.11-17.3,23.1-23.91,2.1-1.47,4.07-2.91,6.03-4.06.99-.59,1.9-1.22,2.82-1.8l2.67-1.47c1.69-.95,3.3-1.65,4.69-2.32,1.17-.58,2.37-1.1,3.59-1.56l2.33-.9c.25-.08.51-.15.77-.18Z"/>
  <path class="cls-2" d="M206.42,746.67c.28-1.11.91-2.09,1.8-2.82,2.12-1.85,4.83-2.88,7.65-2.93,2.75-.01,5.48.52,8.02,1.56,1.08.35,2.1.84,3.03,1.47-1.1-.21-2.17-.52-3.21-.93-2.52-.87-5.16-1.31-7.83-1.31-2.64.06-5.19.96-7.29,2.57-.79.74-1.51,1.53-2.17,2.39Z"/>
  <path class="cls-2" d="M201.23,751.98c1.02-2.25,1.75-4.62,2.17-7.05.15-2.46-.02-4.94-.48-7.36.46.6.77,1.31.9,2.06.93,3.55.49,7.32-1.24,10.56-.68,1.22-1.27,1.85-1.35,1.79Z"/>
  <path class="cls-2" d="M145.13,823.47c1.18,21.07,7.54,42.49,17.3,64.16h42.45c9.32-21.45,15.22-42.83,16.26-64.16h-76.02Z"/>
  <path class="cls-10" d="M214.28,857.55c0,.21-13.98.39-31.22.39s-31.22-.18-31.22-.39,13.97-.43,31.23-.43,31.2.21,31.2.43Z"/>
  <path class="cls-10" d="M213.33,865.18c0,.21-13.1.39-29.26.39s-29.28-.18-29.28-.39,13.1-.4,29.28-.4,29.26.18,29.26.4Z"/>
  <path class="cls-10" d="M163.12,837.38c.53,6.51.53,13.04,0,19.55-.53-6.51-.53-13.04,0-19.55Z"/>
  <path class="cls-10" d="M185.86,837.38c.53,6.74.53,13.51,0,20.25-.53-6.74-.53-13.51,0-20.25Z"/>
  <path class="cls-10" d="M207.22,837.13c.53,6.88.53,13.78,0,20.66-.53-6.88-.53-13.78,0-20.66Z"/>
  <path class="cls-10" d="M219.81,837.38c0,.21-16.39.4-36.6.4s-36.64-.18-36.64-.4,16.41-.39,36.64-.39,36.6.09,36.6.39Z"/>
  <path class="cls-7" d="M878.48,640.87c3.88-1.72,7.18-4.53,9.48-8.1,2.3-3.57,3.5-7.74,3.46-11.98,0-11.99-8.97-21.76-20.27-21.79-11.29-.04-20.41,9.62-20.45,21.54-.08,4.28,1.11,8.49,3.41,12.09,2.31,3.61,5.63,6.45,9.55,8.17-31.32,4.72-29.91,38.76-29.91,38.76l74.08.34s1.69-34.34-29.37-39.02Z"/>
  <path class="cls-7" d="M545.45,145.93c2.73-.54,5.24-1.85,7.24-3.79,2-1.94,3.38-4.41,4-7.12.51-1.74.66-3.57.44-5.37-.22-1.8-.8-3.54-1.71-5.11-.91-1.57-2.13-2.93-3.59-4.01-1.46-1.08-3.12-1.85-4.88-2.27-1.77-.42-3.6-.47-5.38-.16-1.79.31-3.49.99-5.01,1.98-1.52.99-2.82,2.29-3.82,3.8-1,1.51-1.69,3.21-2.01,5-.69,2.72-.56,5.59.38,8.23.94,2.65,2.64,4.95,4.9,6.63-20.7-1.63-24.81,20.3-24.81,20.3l47.21,11.18s6.18-21.77-12.96-29.3Z"/>
  <path class="cls-5" d="M880.5,328.67c2.26-1.42,4.06-3.47,5.17-5.89s1.48-5.13,1.07-7.77c-.14-1.75-.63-3.45-1.45-5-.82-1.55-1.94-2.91-3.31-4.01-1.37-1.1-2.94-1.9-4.63-2.37-1.69-.46-3.46-.58-5.19-.33-1.73.25-3.4.84-4.89,1.76-1.49.91-2.79,2.13-3.79,3.56-1.01,1.43-1.71,3.06-2.07,4.77-.36,1.71-.35,3.48,0,5.2.33,2.67,1.45,5.18,3.21,7.22,1.76,2.04,4.09,3.5,6.68,4.22-19.05,5.76-15.11,26.8-15.11,26.8l46.1-6.44s-2.06-21.59-21.79-21.72Z"/>
  <path class="cls-5" d="M140.86,335.19l-24.9-19.8,6.89-8.69,16.71,13.27,24.38-27.27,8.28,7.4-31.36,35.09Z"/>
  <path class="cls-9" d="M895.12,888.25c0,.27-179.78.47-401.47.47s-401.51-.2-401.51-.47,179.72-.47,401.51-.47,401.47.22,401.47.47Z"/>
  <path class="cls-6" d="M174.82,363.85l-55.06,27.63c-2,.87-3.7,2.31-4.89,4.13-1.19,1.82-1.82,3.96-1.81,6.14v25.76c-.06,23.43,6.76,46.37,19.62,65.95,9.93,15.11,23.08,34.43,44.97,45.47h9.87c24.38-7.43,42.56-27.23,53.67-44.18,12.87-19.59,19.7-42.52,19.64-65.95v-27.05c0-2.19-.65-4.33-1.85-6.15-1.2-1.82-2.92-3.26-4.93-4.12l-62.81-26.73c-2.78-1.18-13.55-2.08-16.42-.9Z"/>
  <path class="cls-11" d="M174.82,363.85l-55.06,27.63c-2,.87-3.7,2.31-4.89,4.13-1.19,1.82-1.82,3.96-1.81,6.14v25.76c-.06,23.43,6.76,46.37,19.62,65.95,9.93,15.11,23.08,34.43,44.97,45.47h9.87c24.38-7.43,42.56-27.23,53.67-44.18,12.87-19.59,19.7-42.52,19.64-65.95v-27.05c0-2.19-.65-4.33-1.85-6.15-1.2-1.82-2.92-3.26-4.93-4.12l-62.81-26.73c-2.78-1.18-13.55-2.08-16.42-.9Z"/>
  <path class="cls-6" d="M172.61,364.75l-62.74,26.73c-2.01.86-3.73,2.29-4.93,4.12-1.21,1.82-1.85,3.96-1.85,6.15v25.76c0,23.86,7.08,47.18,20.34,67.01,13.26,19.83,32.1,35.29,54.14,44.41,24.36-7.43,42.54-27.23,53.67-44.18,12.87-19.59,19.7-42.52,19.64-65.95v-27.05c0-2.19-.64-4.32-1.84-6.15-1.2-1.82-2.91-3.26-4.92-4.12l-62.83-26.73c-1.37-.58-2.85-.87-4.34-.87s-2.96.3-4.34.87Z"/>
  <path class="cls-11" d="M191.87,481.58c21.18-8.21,31.68-32.04,23.47-53.21-8.21-21.18-32.04-31.68-53.21-23.47-21.18,8.21-31.68,32.04-23.47,53.21,8.21,21.18,32.04,31.69,53.21,23.47Z"/>
  <path class="cls-12" d="M176.98,445.53c9.43,0,17.07-7.64,17.07-17.07s-7.64-17.07-17.07-17.07-17.07,7.64-17.07,17.07,7.64,17.07,17.07,17.07Z"/>
  <path class="cls-12" d="M145.81,470.05c2.75-5.75,7.08-10.58,12.49-13.94,5.41-3.36,11.66-5.1,18.03-5.02,6.53,0,12.93,1.76,18.54,5.1,5.61,3.34,10.22,8.12,13.34,13.86,0,0-10.07,14.9-32.31,14.36-5.76-.02-11.45-1.32-16.65-3.81-5.2-2.48-9.79-6.09-13.43-10.55Z"/>
  <path class="cls-9" d="M218.1,443.25c-.02-.22-.02-.44,0-.66,0-.49,0-1.13-.16-1.94v-1.44c0-.52-.18-1.09-.27-1.8-.19-1.42-.48-2.83-.86-4.22-.98-3.83-2.52-7.5-4.58-10.88-2.7-4.48-6.23-8.41-10.41-11.56-5.05-3.84-10.93-6.43-17.16-7.57-7.16-1.32-14.54-.7-21.38,1.8-1.85.64-3.65,1.42-5.39,2.33-1.73.95-3.4,2.02-4.99,3.2-1.62,1.22-3.16,2.53-4.61,3.93-1.43,1.48-2.76,3.05-3.99,4.7-2.51,3.4-4.47,7.18-5.8,11.2-2.8,8.33-2.8,17.34,0,25.67,1.32,4.02,3.28,7.8,5.8,11.2,1.23,1.66,2.56,3.23,3.99,4.72,1.45,1.4,2.99,2.71,4.61,3.91,3.12,2.38,6.59,4.25,10.29,5.55,6.84,2.49,14.22,3.11,21.38,1.8,5.69-1.07,11.08-3.33,15.83-6.63,4.75-3.3,8.75-7.57,11.74-12.52,2.04-3.36,3.55-7,4.51-10.81.39-1.39.67-2.81.86-4.24,0-.61.22-1.18.27-1.8.05-.61,0-1.01,0-1.44l.16-1.96c-.02-.22-.02-.44,0-.66.02.22.02.44,0,.66v3.41c0,.52-.14,1.11-.23,1.79-.14,1.45-.41,2.89-.79,4.29-.91,3.89-2.42,7.61-4.47,11.04-4.88,8.33-12.52,14.68-21.6,17.96-9.08,3.28-19.02,3.27-28.09-.01-1.85-.66-3.65-1.46-5.39-2.37-1.77-.99-3.46-2.12-5.06-3.36-1.67-1.23-3.25-2.56-4.74-4-1.43-1.49-2.76-3.07-3.99-4.74-2.58-3.48-4.6-7.34-5.96-11.45-1.36-4.24-2.08-8.66-2.14-13.12.05-4.46.78-8.88,2.15-13.12,1.35-4.11,3.36-7.98,5.94-11.45,1.26-1.69,2.63-3.29,4.09-4.81,1.48-1.44,3.06-2.78,4.72-4,1.59-1.22,3.26-2.32,5.01-3.3,1.74-.92,3.54-1.72,5.39-2.39,6.98-2.53,14.51-3.15,21.81-1.8,5.79,1.11,11.28,3.45,16.09,6.86,4.81,3.4,8.84,7.8,11.82,12.89,2.05,3.43,3.56,7.16,4.47,11.06.38,1.4.65,2.83.79,4.27,0,.63.2,1.2.23,1.8v3.41c.05.19.08.39.09.59Z"/>
  <path class="cls-9" d="M250.66,421.81c.08.39.13.8.13,1.2,0,.86,0,1.99.14,3.41.14,1.42.14,3.28,0,5.38v3.37c0,1.2,0,2.46-.23,3.77-.25,2.64-.43,5.55-.99,8.63-.23,1.54-.43,3.14-.75,4.77-.32,1.63-.72,3.3-1.08,5.03-1.73,7.42-4.13,14.67-7.18,21.65-3.15,6.95-6.92,13.6-11.25,19.87-2.08,2.82-4,5.55-6.09,7.9-1.01,1.18-1.94,2.39-2.93,3.45l-2.85,3.02c-1.8,1.99-3.59,3.59-5.13,5.01-1.29,1.27-2.65,2.47-4.07,3.59l-2.66,2.15c-.29.26-.61.49-.95.68.26-.3.54-.58.84-.83l2.53-2.28c1.13-.97,2.48-2.17,3.95-3.59,1.47-1.42,3.27-3.09,5.01-5.08l2.8-3.05c.97-1.06,1.8-2.26,2.87-3.45,2.03-2.35,3.91-5.08,5.98-7.92,4.26-6.25,7.97-12.86,11.09-19.75,3.03-6.95,5.44-14.16,7.18-21.54l1.11-4.99c.32-1.62.54-3.21.81-4.74.57-3.05.79-5.94,1.08-8.56.16-1.31.27-2.57.31-3.75l.16-3.36c.16-2.1.13-3.91.13-5.39v-3.41c-.01-.41,0-.82.05-1.22Z"/>
  <path class="cls-9" d="M687.16,888.25h-424.47c-2.78-.05-5.53-.64-8.08-1.75-2.55-1.11-4.86-2.71-6.79-4.71-1.93-2-3.45-4.36-4.47-6.95-1.02-2.59-1.52-5.35-1.47-8.13V217.93c-.05-2.78.45-5.54,1.47-8.13,1.02-2.59,2.54-4.95,4.47-6.95,1.93-2,4.24-3.6,6.79-4.71,2.55-1.11,5.3-1.7,8.08-1.75h424.47c2.78.05,5.52.64,8.07,1.75,2.55,1.11,4.86,2.71,6.79,4.71,1.93,2,3.45,4.36,4.47,6.95,1.02,2.59,1.51,5.35,1.46,8.13v648.81c.05,2.78-.45,5.54-1.47,8.12-1.02,2.58-2.54,4.94-4.47,6.94-1.93,2-4.24,3.59-6.78,4.7-2.55,1.11-5.29,1.7-8.07,1.75Z"/>
  <path class="cls-4" d="M483.06,856.78c.07,3.92-1.03,7.77-3.16,11.06-2.13,3.29-5.19,5.88-8.79,7.42-3.6,1.55-7.58,1.99-11.43,1.26-3.85-.72-7.4-2.58-10.2-5.32-2.8-2.75-4.71-6.26-5.5-10.1-.79-3.84-.42-7.83,1.06-11.46,1.48-3.63,4.01-6.73,7.27-8.92,3.25-2.18,7.08-3.35,11-3.35,5.19-.04,10.19,1.98,13.89,5.62,3.7,3.64,5.81,8.6,5.86,13.79Z"/>
  <path class="cls-4" d="M522.67,232.97h-95.14c-.89-.01-1.76-.2-2.57-.55-.81-.35-1.55-.86-2.17-1.5-.62-.64-1.1-1.39-1.43-2.21-.33-.82-.49-1.7-.47-2.59-.03-1.79.65-3.52,1.9-4.81,1.25-1.29,2.95-2.03,4.74-2.06h95.14c1.79.03,3.5.78,4.74,2.06,1.25,1.29,1.93,3.02,1.9,4.81.01.89-.15,1.77-.47,2.59-.33.82-.81,1.58-1.43,2.21-.62.64-1.35,1.15-2.17,1.5-.81.35-1.69.54-2.58.55Z"/>
  <path class="cls-12" d="M692.86,245.77h-436.67v577.76h436.67V245.77Z"/>
  <path class="cls-5" d="M692.86,245.77h-18.63v577.76h18.63V245.77Z"/>
  <path class="cls-2" d="M683.53,453.35c-1.54,0-3.01-.62-4.1-1.71-1.09-1.09-1.7-2.57-1.7-4.11v-127.79c0-1.54.61-3.02,1.7-4.11,1.09-1.09,2.56-1.71,4.1-1.71,1.54,0,3.02.61,4.11,1.7,1.09,1.09,1.7,2.57,1.7,4.11v127.79c0,1.54-.61,3.02-1.7,4.11-1.09,1.09-2.57,1.7-4.11,1.7Z"/>
  <path class="cls-2" d="M635.91,377.26h-321.97c-2.46,0-4.81-.98-6.55-2.71-1.74-1.74-2.71-4.09-2.71-6.55s.97-4.81,2.71-6.55c1.74-1.74,4.09-2.71,6.55-2.71h321.97c2.46,0,4.81.98,6.55,2.71,1.74,1.74,2.71,4.09,2.71,6.55s-.97,4.81-2.71,6.55c-1.74,1.74-4.09,2.71-6.55,2.71Z"/>
  <path class="cls-6" d="M586.38,309.62h-202.54c-2.46,0-4.81-.97-6.55-2.71s-2.71-4.09-2.71-6.55.98-4.81,2.71-6.55c1.74-1.74,4.09-2.71,6.55-2.71h202.54c2.46,0,4.81.97,6.55,2.71s2.71,4.09,2.71,6.55-.98,4.81-2.71,6.55c-1.74,1.74-4.09,2.71-6.55,2.71Z"/>
  <path class="cls-2" d="M590.19,414.54h-230.52c-2.46,0-4.81-.97-6.55-2.71-1.74-1.74-2.71-4.09-2.71-6.55s.98-4.81,2.71-6.55c1.74-1.74,4.09-2.71,6.55-2.71h230.52c1.22,0,2.42.24,3.55.7,1.12.47,2.14,1.15,3,2.01.86.86,1.54,1.88,2.01,3s.7,2.33.7,3.55-.24,2.42-.7,3.54c-.47,1.13-1.15,2.15-2.01,3.01-.86.86-1.88,1.54-3,2.01-1.12.47-2.33.7-3.55.7Z"/>
  <path class="cls-2" d="M486.11,577.09h-177.37c-2.46,0-4.81-.98-6.55-2.71-1.74-1.74-2.71-4.09-2.71-6.55,0-1.22.24-2.42.71-3.55.47-1.12,1.15-2.14,2.01-3.01.86-.86,1.88-1.54,3.01-2.01,1.12-.47,2.33-.71,3.55-.71h177.37c1.22,0,2.42.24,3.54.71,1.12.47,2.15,1.15,3.01,2.01.86.86,1.54,1.88,2.01,3.01.47,1.12.71,2.33.71,3.55,0,2.46-.98,4.81-2.71,6.55-1.74,1.74-4.09,2.71-6.55,2.71Z"/>
  <path class="cls-2" d="M630.7,538.26h-321.97c-2.46,0-4.81-.98-6.55-2.71-1.74-1.74-2.71-4.09-2.71-6.55,0-1.22.24-2.42.71-3.54.47-1.12,1.15-2.14,2.01-3,.86-.86,1.88-1.54,3.01-2,1.12-.46,2.33-.7,3.54-.7h321.97c1.22,0,2.42.24,3.54.7,1.12.46,2.14,1.14,3,2,.86.86,1.54,1.88,2.01,3,.47,1.12.71,2.33.71,3.54s-.24,2.42-.71,3.55c-.47,1.12-1.15,2.15-2.01,3.01-.86.86-1.88,1.54-3.01,2.01-1.12.47-2.33.71-3.54.71Z"/>
  <path class="cls-2" d="M630.7,644.67h-281.81c-5.11,0-9.26,4.15-9.26,9.26s4.15,9.26,9.26,9.26h281.81c5.12,0,9.26-4.15,9.26-9.26s-4.15-9.26-9.26-9.26Z"/>
  <path class="cls-2" d="M630.7,702.74h-321.97c-2.46,0-4.81-.97-6.55-2.71-1.74-1.74-2.71-4.09-2.71-6.55.01-2.45.99-4.8,2.73-6.53,1.74-1.73,4.09-2.7,6.54-2.7h321.97c1.22,0,2.42.24,3.54.7s2.15,1.15,3.01,2.01c.86.86,1.54,1.88,2.01,3.01.47,1.12.71,2.33.71,3.54-.01,2.45-.99,4.8-2.73,6.53-1.73,1.73-4.09,2.7-6.54,2.7Z"/>
  <path class="cls-2" d="M630.7,742.99h-321.97c-2.46,0-4.81-.97-6.55-2.71-1.74-1.74-2.71-4.09-2.71-6.55s.98-4.81,2.71-6.55c1.74-1.74,4.09-2.71,6.55-2.71h321.97c1.22,0,2.42.24,3.54.7,1.12.47,2.15,1.15,3.01,2.01.86.86,1.54,1.88,2.01,3,.47,1.12.71,2.33.71,3.55,0,2.46-.98,4.81-2.71,6.55-1.74,1.74-4.09,2.71-6.55,2.71Z"/>
  <path class="cls-6" d="M323.22,653.94c0,1.9-.57,3.76-1.62,5.35-1.06,1.58-2.56,2.81-4.32,3.54-1.76.73-3.7.92-5.56.54-1.87-.37-3.58-1.29-4.93-2.64-1.34-1.35-2.26-3.06-2.63-4.93-.37-1.87-.18-3.8.56-5.56.73-1.76,1.97-3.26,3.55-4.32,1.59-1.05,3.45-1.62,5.35-1.61,2.55,0,4.99,1.02,6.79,2.82,1.8,1.8,2.81,4.25,2.81,6.8Z"/>
  <path class="cls-2" d="M630.7,502.09h-281.83c-2.46,0-4.81-.98-6.55-2.71s-2.71-4.09-2.71-6.55.98-4.81,2.71-6.55c1.74-1.74,4.09-2.71,6.55-2.71h281.83c1.22,0,2.42.24,3.54.71s2.15,1.15,3.01,2.01c.86.86,1.54,1.88,2.01,3.01s.7,2.33.7,3.54-.24,2.42-.7,3.55-1.15,2.14-2.01,3.01c-.86.86-1.88,1.54-3.01,2.01-1.12.47-2.33.71-3.54.71Z"/>
  <path class="cls-6" d="M313.62,502.45c5.31,0,9.62-4.31,9.62-9.62s-4.31-9.62-9.62-9.62-9.62,4.31-9.62,9.62,4.31,9.62,9.62,9.62Z"/>
  <path class="cls-6" d="M621.71,801.89h-72.25c-3.91,0-7.67-1.56-10.43-4.32-2.77-2.77-4.32-6.52-4.32-10.43s1.55-7.67,4.32-10.43c2.77-2.77,6.52-4.32,10.43-4.32h72.25c3.91,0,7.67,1.56,10.43,4.32,2.77,2.77,4.32,6.52,4.32,10.43s-1.56,7.67-4.32,10.43c-2.77,2.77-6.52,4.32-10.43,4.32Z"/>
  <path class="cls-6" d="M249.5,105.61l-74.89,37.57c-2.74,1.16-5.08,3.11-6.72,5.59-1.64,2.48-2.52,5.39-2.52,8.37v35.04c-.09,31.89,9.2,63.1,26.71,89.75,13.5,20.5,31.38,46.78,61.16,61.79h13.43c33.14-10.11,57.87-37.05,73.01-60.08,17.51-26.65,26.8-57.86,26.71-89.75v-36.75c0-2.97-.86-5.88-2.49-8.36-1.63-2.48-3.95-4.43-6.68-5.61l-85.37-36.4c-3.81-1.56-18.53-2.78-22.33-1.17Z"/>
  <path class="cls-11" d="M249.5,105.61l-74.89,37.57c-2.74,1.16-5.08,3.11-6.72,5.59-1.64,2.48-2.52,5.39-2.52,8.37v35.04c-.09,31.89,9.2,63.1,26.71,89.75,13.5,20.5,31.38,46.78,61.16,61.79h13.43c33.14-10.11,57.87-37.05,73.01-60.08,17.51-26.65,26.8-57.86,26.71-89.75v-36.75c0-2.97-.86-5.88-2.49-8.36-1.63-2.48-3.95-4.43-6.68-5.61l-85.37-36.4c-3.81-1.56-18.53-2.78-22.33-1.17Z"/>
  <path class="cls-6" d="M246.48,106.78l-85.32,36.4c-2.74,1.17-5.07,3.11-6.71,5.59-1.64,2.48-2.51,5.39-2.51,8.37v35.04c0,32.45,9.63,64.16,27.66,91.14,18.03,26.97,43.66,48,73.64,60.41,33.14-10.11,57.87-37.05,72.99-60.08,17.52-26.65,26.81-57.86,26.71-89.75v-36.75c0-2.98-.87-5.89-2.51-8.37-1.64-2.48-3.98-4.43-6.71-5.59l-85.23-36.4c-1.89-.81-3.93-1.23-6-1.23s-4.1.42-5.99,1.23Z"/>
  <path class="cls-9" d="M352.66,184.45c.02.14.02.28,0,.41v1.2c0,1.15.09,2.69.16,4.65.07,1.96.18,4.47,0,7.34,0,1.44,0,2.96-.14,4.58v2.51c0,.86-.16,1.8-.25,2.64-.36,3.59-.59,7.54-1.35,11.72-.34,2.08-.61,4.27-1.04,6.48-.43,2.21-.97,4.49-1.47,6.82-2.37,10.09-5.67,19.94-9.85,29.42-4.28,9.44-9.38,18.48-15.26,27.02-2.84,3.84-5.38,7.56-8.26,10.77-1.38,1.61-2.64,3.25-3.98,4.68l-3.88,4.13c-2.4,2.69-4.88,4.83-6.95,6.82-1.06.97-2.01,1.9-2.93,2.71l-2.51,2.03-3.59,2.94-.95.75c-.22.16-.34.23-.34.22,0-.02,0-.11.27-.31l.9-.81,3.46-3.07,2.53-2.21c.92-.81,1.8-1.79,2.87-2.76,2.03-2.01,4.45-4.16,6.82-6.88l3.82-4.16c1.33-1.44,2.57-3.07,3.91-4.68,2.78-3.2,5.38-6.91,8.15-10.77,5.82-8.52,10.88-17.53,15.13-26.93,4.15-9.43,7.45-19.22,9.85-29.24.52-2.32,1.01-4.58,1.51-6.77.5-2.19.72-4.38,1.08-6.46.79-4.16,1.06-8.1,1.45-11.67.11-.88.2-1.8.29-2.6.09-.81,0-1.69.11-2.5.07-1.62.14-3.14.22-4.58.2-2.85.14-5.39.14-7.32v-5.73c0-.14.02-.28.07-.41Z"/>
  <path class="cls-5" d="M286.22,231.53h-9.1v-49.53c-.16-5.5-2.46-10.72-6.4-14.55-3.95-3.83-9.23-5.98-14.73-5.98s-10.79,2.14-14.73,5.98c-3.95,3.83-6.24,9.05-6.4,14.55v49.53h-9.1v-49.53c.19-7.89,3.46-15.4,9.11-20.91,5.65-5.51,13.23-8.6,21.13-8.6s15.48,3.09,21.13,8.6c5.65,5.51,8.92,13.02,9.11,20.91v49.53Z"/>
  <path class="cls-12" d="M286.31,197.93h-60.64c-5.76,0-10.43,4.67-10.43,10.43v43.01c0,5.76,4.67,10.43,10.43,10.43h60.64c5.76,0,10.43-4.67,10.43-10.43v-43.01c0-5.76-4.67-10.43-10.43-10.43Z"/>
  <path class="cls-9" d="M286.31,261.8c.91-.1,1.82-.25,2.71-.47,2.17-.63,4.08-1.95,5.44-3.77,1.35-1.81,2.07-4.02,2.05-6.29v-43.66c-.14-1.81-.76-3.54-1.8-5.03-1.04-1.48-2.47-2.65-4.12-3.39-1.77-.73-3.68-1.02-5.58-.86h-6.03l-53.3-.02c-2.24,0-4.42.75-6.17,2.14-1.76,1.39-3,3.33-3.52,5.51-.23,1.08-.33,2.19-.29,3.3v35.72c.16,4.06-.68,8.24,1.4,11.43.92,1.57,2.25,2.86,3.85,3.73,1.6.88,3.4,1.3,5.22,1.24h20.19l29.24.16h10c.24-.02.48-.02.72,0-.24.03-.48.03-.72,0h-10l-29.24.14h-20.19c-1.48.07-2.96-.17-4.35-.7-1.39-.53-2.65-1.34-3.72-2.37-1.06-1.04-1.9-2.28-2.47-3.65-.56-1.37-.84-2.85-.81-4.33v-41.3c-.05-1.2.05-2.41.31-3.59.58-2.35,1.94-4.44,3.86-5.92,1.93-1.53,4.32-2.36,6.79-2.37h59.13c2.02-.15,4.05.18,5.92.97,1.79.8,3.32,2.07,4.44,3.67,1.12,1.6,1.78,3.48,1.92,5.43v43.71c0,1.97-.55,3.89-1.58,5.56-1.41,2.32-3.67,4-6.3,4.67-.96.29-1.97.4-2.98.32Z"/>
  <path class="cls-6" d="M262.24,231.52c.82-.82,1.47-1.79,1.92-2.87.45-1.07.67-2.22.67-3.38.01-1.67-.45-3.31-1.32-4.74-.87-1.43-2.13-2.58-3.62-3.33-1.49-.75-3.17-1.07-4.83-.92-1.67.15-3.26.76-4.59,1.76-1.34,1-2.37,2.36-2.97,3.92-.61,1.56-.76,3.26-.46,4.9.31,1.64,1.07,3.17,2.19,4.4,1.13,1.24,2.58,2.13,4.19,2.59l-1.92,8.51h8.53l-1.8-8.51c1.49-.43,2.84-1.23,3.93-2.33"/>
  <path class="cls-3" d="M818.22,295.57v72.74c.16,12.57,2.01,32.31-17.95,31.67-17.22-1.8-21.79-18.18-21.92-29.92,0-5.56-.13-10.21-.18-10.77,0,0-18.85-1.54-20.45-20.18-.77-8.97-.84-27.66-.72-44.55.08-8.75,3.44-17.15,9.43-23.53,5.99-6.38,14.16-10.27,22.88-10.9l1.8-.13c19.51-.29,27.43,16.1,27.11,35.58Z"/>
  <path class="cls-8" d="M778.22,359.28c8.61-.66,16.85-3.78,23.75-8.98,0,0-4.92,14.05-23.64,13.73l-.11-4.76Z"/>
  <path class="cls-9" d="M788.9,302.19c.38.38,2.53-1.36,5.64-1.44,3.11-.07,5.38,1.44,5.78,1.04.4-.39-.21-.88-1.24-1.58-1.37-.92-2.99-1.38-4.63-1.33-1.63.05-3.21.62-4.49,1.63-.93.79-1.24,1.49-1.06,1.67Z"/>
  <path class="cls-9" d="M788.85,311.01c.04.66.33,1.28.82,1.72.49.44,1.14.68,1.8.65.32,0,.64-.06.94-.18.3-.12.57-.3.79-.53.23-.23.4-.5.52-.8.12-.3.18-.62.17-.94-.04-.65-.34-1.27-.82-1.71-.49-.44-1.12-.68-1.78-.66-.32,0-.64.06-.94.19-.3.12-.57.3-.79.53-.23.23-.41.5-.53.8-.12.3-.18.62-.18.94Z"/>
  <path class="cls-9" d="M781.09,323.98c-1.55-.36-3.13-.53-4.72-.5-.74,0-1.44-.13-1.6-.61-.12-.75,0-1.52.32-2.21.58-1.8,1.15-3.72,1.8-5.73,2.42-8.15,4.13-14.83,3.81-14.92-.32-.09-2.57,6.43-4.99,14.58-.58,2.01-1.13,3.93-1.67,5.76-.39.91-.45,1.94-.16,2.89.12.25.3.47.52.64.22.17.48.29.75.34.42.05.84.05,1.26,0,1.57.1,3.14.02,4.68-.25Z"/>
  <path class="cls-9" d="M790.23,288.91c.31.7,2.8.18,5.8.32,3,.14,5.39.81,5.8.14.14-.3-.32-.95-1.33-1.56-1.34-.75-2.84-1.18-4.37-1.24-1.53-.06-3.06.24-4.46.88-1.06.52-1.56,1.13-1.44,1.45Z"/>
  <path class="cls-9" d="M760.59,293.57c.34.57,2.76,0,5.73-.14,2.96-.14,5.38.29,5.71-.3.13-.29-.36-.79-1.38-1.24-1.39-.55-2.87-.8-4.36-.72-1.51.04-2.99.41-4.34,1.08-1.01.52-1.49,1.06-1.35,1.33Z"/>
  <path class="cls-9" d="M732.37,277.83c.1-.38.28-.73.53-1.04.24-.31.55-.57.89-.75,1.49-.68,3.13-.94,4.76-.77,4.97-.09,9.82-1.56,14-4.25,1.95-2.81,4.13-5.45,6.52-7.9,5.65-5.82,10.29-9.78,15.1-11.72,6.21-2.5,16.6-3.59,23.08-1.8,6.48,1.8,12.3,6.97,13.21,13.59,3.59-3.07,9.08-3.03,13.52-1.26h.11c4.92,1.8,7.72,6.97,9.17,11.99,1.45,5.03,2.08,10.41,4.74,14.92.56.93,1.22,2.06.74,3.05-.23.36-.55.64-.94.8-.39.17-.82.21-1.23.13-.83-.18-1.62-.53-2.3-1.04.56,1.33,1.09,2.64,1.65,3.95-1.8.31-3.64.19-5.38-.34-.91,4.48-2.07,8.9-3.5,13.25-1.84-.22-3.69.24-5.22,1.28-1.79,1.56-2.49,4.49-5.38,3.37-1.45-.58-2.78-3.59-3.28-5.12-3.25-9.94-4.32-20.47-3.14-30.86-2.04-2.17-4.48-3.94-7.18-5.21l.21.2c-5.21-1.8-11.09-3.59-16.03-1.15-3.82,1.9-6.07,5.87-8.98,8.98-2.63,2.95-5.84,5.34-9.42,7.01-3.58,1.68-7.47,2.61-11.42,2.73-.27,5.24.16,12.66-.11,17.95l-4.42-8.4c-.35-.58-.67-1.18-.95-1.8v-.18c-.44-1.03-.94-2.03-1.49-3-.61.49-1.38.75-2.16.72-.78-.03-1.53-.33-2.11-.86-.58-.53-.95-1.25-1.04-2.03-.1-.78.09-1.57.52-2.22.44-.61.97-1.15,1.58-1.6-.64.62-1.43,1.07-2.3,1.29-.86.22-1.78.22-2.64-.02-.85-.26-1.6-.8-2.12-1.52-.52-.73-.79-1.61-.75-2.5.07-.6.3-1.17.67-1.66s.84-.87,1.4-1.11c-2.31.19-4.63-.33-6.64-1.47-1.44-.77-2.73-2.01-2.24-3.66Z"/>
  <path class="cls-4" d="M804.56,265.36c.65.54,1.25,1.15,1.8,1.79,1.47,1.77,2.46,3.9,2.85,6.18.33,1.56.49,3.15.48,4.74,0,1.79-.13,3.59-.27,5.49-.17,2.03-.21,4.07-.13,6.1.05,1.09.19,2.17.41,3.23.17,1.14.62,2.21,1.31,3.12.33.36.74.63,1.2.79.46.16.96.19,1.44.09.91-.17,1.74-.63,2.35-1.33,1.02-1.39,1.64-3.03,1.8-4.74h-.38c.56,1.41,1.32,2.73,2.26,3.91.9,1.09,2.19,1.8,3.59,1.97.66.06,1.33-.05,1.92-.34.56-.29,1.01-.74,1.31-1.29.27-.51.4-1.08.39-1.65-.03-.53-.24-1.04-.61-1.44l-.2.18c1.11,1.27,2.47,2.29,4,3,.54.24.95.4,1.24.49l.45.11-.41-.18c-.29-.13-.7-.29-1.2-.54-1.48-.75-2.8-1.79-3.88-3.05l-.2.18c.3.39.48.87.5,1.36.02.5-.11.98-.38,1.4-.27.49-.67.88-1.17,1.13-.56.27-1.18.37-1.79.29-1.31-.15-2.52-.79-3.38-1.79-.9-1.17-1.63-2.45-2.17-3.82l-.27-.59-.13.65c-.19,1.64-.81,3.2-1.8,4.52-.56.61-1.3,1.02-2.12,1.18-.41.08-.83.06-1.22-.07-.39-.13-.75-.36-1.03-.67-.64-.85-1.06-1.86-1.2-2.93-.22-1.04-.37-2.1-.43-3.16-.08-2.02-.04-4.05.13-6.07.11-1.94.23-3.77.22-5.51-.01-1.61-.19-3.22-.54-4.79-.44-2.32-1.48-4.47-3.03-6.25-.48-.66-1.07-1.24-1.74-1.7Z"/>
  <path class="cls-4" d="M746.92,283.47l.16.13c.15.12.3.24.47.34.25.2.51.37.79.52.37.21.74.41,1.13.59,2.5,1.13,5.24,1.62,7.97,1.44,4.07-.27,7.97-1.72,11.24-4.16,3.95-3.01,7.24-6.79,9.66-11.13,1.36-2.24,2.46-4.56,3.59-6.7,1.16-2.08,2.61-4,4.31-5.67,1.49-1.52,3.34-2.65,5.38-3.27.92-.26,1.88-.37,2.84-.32.87.07,1.73.25,2.55.54,1.45.49,2.78,1.29,3.9,2.33.84.79,1.55,1.71,2.1,2.73.43.89.75,1.83.95,2.8v-.2c0-.2,0-.34-.09-.58-.15-.73-.39-1.43-.72-2.1-1.26-2.47-3.42-4.36-6.03-5.28-.86-.3-1.76-.49-2.68-.56-.99-.04-1.98.07-2.94.32-2.1.62-4.01,1.76-5.55,3.32-1.69,1.7-3.13,3.63-4.25,5.74-1.24,2.15-2.35,4.45-3.68,6.7-2.4,4.28-5.65,8.03-9.53,11.02-3.2,2.42-7.02,3.87-11.02,4.18-2.69.21-5.4-.23-7.88-1.29-.92-.43-1.8-.92-2.66-1.46Z"/>
  <path class="cls-4" d="M745.23,275.28s.21.2.66.47c.63.38,1.29.72,1.97,1.01,1.02.43,2.07.77,3.14,1.02,1.31.31,2.66.49,4,.54,1.35.03,2.7-.06,4.04-.27,1.08-.18,2.14-.46,3.18-.83.7-.24,1.39-.53,2.05-.88.25-.11.48-.25.7-.41,0,0-1.06.45-2.84,1.01-1.04.31-2.09.55-3.16.72-1.31.18-2.63.26-3.95.23-1.32-.06-2.63-.22-3.93-.48-1.06-.23-2.1-.54-3.11-.93-1.72-.66-2.73-1.26-2.76-1.18Z"/>
  <path class="cls-9" d="M760.47,302.19c.36.38,2.51-1.36,5.64-1.44,3.12-.07,5.38,1.44,5.78,1.04.39-.4-.23-.88-1.24-1.58-1.37-.92-3-1.38-4.65-1.33-1.63.05-3.19.62-4.47,1.63-.95.79-1.26,1.49-1.06,1.67Z"/>
  <path class="cls-9" d="M763.65,311.01c.04.65.34,1.27.82,1.71s1.13.68,1.78.66c.32,0,.64-.06.94-.18.3-.12.57-.3.8-.53.23-.23.41-.5.53-.8.12-.3.18-.62.18-.94-.05-.66-.34-1.27-.83-1.71s-1.13-.68-1.79-.66c-.32,0-.64.06-.94.19-.3.12-.57.3-.79.53-.23.23-.4.5-.52.8-.12.3-.18.62-.17.94Z"/>
  <path class="cls-3" d="M817.73,309.48c.3-.16,12.57-4.72,13.05,8.04.49,12.76-12.4,10.64-12.44,10.29-.04-.36-.61-18.33-.61-18.33Z"/>
  <path class="cls-8" d="M822.13,322.82s.23.14.61.3c.54.21,1.13.21,1.67,0,.8-.56,1.44-1.32,1.85-2.21.41-.89.58-1.87.48-2.84,0-1.09-.25-2.18-.74-3.16-.14-.4-.38-.76-.69-1.04-.31-.29-.69-.49-1.11-.59-.26-.05-.52-.01-.75.11-.23.12-.41.32-.52.56-.16.36,0,.61-.14.65-.14.04-.27-.2-.2-.74.07-.32.23-.61.47-.83.35-.27.78-.41,1.22-.38.53.08,1.03.3,1.45.63.42.33.75.76.96,1.25.6,1.1.92,2.34.92,3.59,0,2.57-1.18,5.03-3.02,5.64-.34.11-.7.15-1.05.11-.35-.04-.69-.17-.99-.36-.41-.39-.54-.68-.41-.7Z"/>
  <path class="cls-9" d="M790.18,326.53c.11,0,.11.75-.32,1.8-.63,1.4-1.65,2.59-2.94,3.41-1.26.85-2.76,1.28-4.27,1.22-1.17-.11-1.79-.5-1.79-.59s.72,0,1.79,0c1.37-.1,2.69-.54,3.84-1.29,1.16-.74,2.14-1.75,2.85-2.93.48-.99.7-1.65.84-1.61Z"/>
  <path class="cls-4" d="M854.44,831.25l3.8,43.08,13.5,33.32c.22.58.32,1.2.28,1.82-.04.62-.21,1.23-.49,1.78-.29.55-.69,1.03-1.18,1.41-.49.38-1.05.66-1.66.81-.71.21-1.47.26-2.2.13-.73-.13-1.43-.42-2.04-.85-7.7-5.6-35.47-26.21-35.78-28.88-.39-3.48-7.49-45.9-7.49-45.9l33.25-6.71Z"/>
  <path class="cls-9" d="M868.8,913.52l-40.78-34.52.41,3.2c.27,1.8.3,2.69,1.52,3.79,10.84,9.82,22.23,19.01,34.11,27.54.73.34,1.53.52,2.33.52s1.6-.18,2.33-.52h.07Z"/>
  <path class="cls-12" d="M835.95,865.54c.6.31,1.05.83,1.27,1.47.22.63.19,1.33-.09,1.94-.36.59-.92,1.03-1.58,1.24-.66.21-1.37.17-2.01-.11-.62-.33-1.1-.89-1.32-1.55-.23-.67-.19-1.4.1-2.04.43-.58,1.07-.98,1.78-1.13.71-.14,1.45-.02,2.08.35"/>
  <path class="cls-9" d="M856.13,895.75c.27.11,1.04-2.26,3.59-3.73,1.62-.79,3.36-1.29,5.15-1.49,0-.11-.59-.38-1.67-.41-1.42-.01-2.82.37-4.04,1.09-1.19.69-2.15,1.71-2.76,2.94-.4.93-.4,1.58-.27,1.6Z"/>
  <path class="cls-9" d="M860.04,901.19c.23.18,1.54-1.38,3.84-2.24,1.45-.42,2.93-.75,4.42-.99-.75-.35-1.58-.51-2.41-.5-.83.02-1.64.23-2.38.6-2.62,1.01-3.68,3.03-3.46,3.12Z"/>
  <path class="cls-9" d="M849.22,888.98c1.8-1.43,3.7-2.72,5.69-3.86,2.15-.88,4.37-1.61,6.62-2.17-2.45-.37-4.94.1-7.09,1.33-3.7,1.78-5.39,4.59-5.22,4.7Z"/>
  <path class="cls-9" d="M846.9,875.95c.14.25,2.57-1.01,5.83-1.44,3.27-.43,5.98,0,6.05-.23-1.93-.92-4.11-1.18-6.19-.72-2.11.13-4.12.97-5.69,2.39Z"/>
  <path class="cls-9" d="M845.46,863.31c1.89-.95,3.95-1.51,6.06-1.65,2.11-.14,4.22.14,6.22.83,0-.11-.48-.59-1.61-1.06-1.49-.58-3.09-.83-4.69-.72-1.59.09-3.14.55-4.52,1.35-1.08.61-1.56,1.17-1.45,1.26Z"/>
  <path class="cls-9" d="M851.12,859.26s.11-.59-.11-1.63c-.32-1.48-.93-2.89-1.8-4.13-.59-.98-1.49-1.74-2.55-2.17-.37-.11-.76-.11-1.13,0-.37.11-.7.32-.95.61-.21.29-.37.61-.46.96-.09.35-.1.71-.05,1.06.31,1.48,1.13,2.8,2.3,3.75,1.18.95,2.65,1.45,4.16,1.44,1.51.02,2.99-.39,4.27-1.2,1.28-.81,2.29-1.97,2.91-3.34.14-.34.21-.7.19-1.06-.02-.36-.12-.72-.3-1.04-.23-.31-.55-.55-.91-.68-.36-.13-.76-.15-1.13-.06-1.09.35-2.07.97-2.85,1.8-1.12,1.03-2.05,2.24-2.75,3.59-.29.48-.47,1.01-.54,1.56,1.03-1.75,2.3-3.34,3.79-4.72.71-.7,1.57-1.21,2.51-1.51.2-.06.42-.05.62.02.2.07.37.2.49.37.1.22.15.45.15.69s-.05.47-.15.69c-.57,1.16-1.46,2.14-2.56,2.83-1.1.69-2.37,1.05-3.67,1.05-1.28,0-2.52-.42-3.53-1.21-1.01-.79-1.72-1.89-2.03-3.14-.09-.49.02-1,.29-1.42.13-.17.32-.29.52-.35.2-.06.42-.06.63,0,.9.36,1.67.99,2.21,1.8,1.14,1.64,1.96,3.48,2.42,5.42Z"/>
  <path class="cls-4" d="M745.77,833.48l1.69,36.53s-38.94,13.9-39.31,20.68l75.48-.56-.16-57.03-37.7.38Z"/>
  <path class="cls-2" d="M770.77,866.76c.71.18,1.33.61,1.73,1.23.4.61.55,1.36.43,2.08-.22.71-.69,1.31-1.33,1.68-.64.38-1.39.5-2.12.35-.75-.18-1.4-.65-1.82-1.29-.42-.65-.58-1.43-.44-2.19.3-.73.86-1.32,1.57-1.65.71-.33,1.52-.38,2.27-.15"/>
  <path class="cls-9" d="M783.62,890.13l-.25-5.74-72.29,2.67s-3.34,1.4-2.94,3.59l75.48-.52Z"/>
  <path class="cls-9" d="M746.23,869.69c0,.34,1.79.49,3.59,1.58,1.8,1.09,2.8,2.55,3.14,2.4.34-.14-.23-2.14-2.46-3.43-2.23-1.29-4.36-.9-4.27-.56Z"/>
  <path class="cls-9" d="M738.33,872.79c0,.34,1.53.92,2.78,2.37,1.26,1.45,1.65,3.02,2.01,3,.36-.02.59-1.99-1.02-3.77-1.62-1.78-3.75-1.92-3.77-1.6Z"/>
  <path class="cls-9" d="M733.92,881.73c.34,0,.83-1.65-.13-3.59-.95-1.94-2.69-2.62-2.85-2.33-.16.29.93,1.29,1.69,2.85.75,1.56.93,3.05,1.29,3.07Z"/>
  <path class="cls-9" d="M746.83,861.29c.16.32,1.79-.16,3.93,0,2.14.16,3.71.72,3.89.43.18-.29-1.36-1.52-3.82-1.63-2.46-.11-4.09.93-4,1.2Z"/>
  <path class="cls-9" d="M732.63,571.13c0,2.1,8.76,294.12,8.76,294.12h46.67l9.46-249.8s11.04,130.61,11.04,133.43,9.73,117.77,9.73,117.77l43.26-3.32-2.85-262.91-5.28-38.56-120.79,9.26Z"/>
  <path class="cls-4" d="M802.38,606.21c-.59.34-1.23.59-1.88.75-1.24.43-3.05,1.02-5.28,1.79l-.41.13v-.41c-.25-3.5-.56-8.2-.83-13.36-.3-5.58-.52-10.63-.63-14.36,0-1.8-.09-3.32-.09-4.34-.05-.53-.02-1.07.11-1.6.15.51.24,1.04.25,1.58.13,1.02.25,2.51.38,4.33.29,3.59.61,8.71.9,14.36.29,5.15.48,9.85.59,13.37l-.45-.29c2.26-.63,4.09-1.13,5.38-1.45.63-.23,1.29-.4,1.96-.5Z"/>
  <path class="cls-4" d="M798.79,575.85s.14-.23.63-.39c.68-.18,1.41-.12,2.05.18.48.18.9.5,1.18.93.28.43.42.94.38,1.45-.06.65-.33,1.26-.77,1.74-.44.48-1.03.8-1.67.92-.65.1-1.32.01-1.93-.24-.61-.26-1.13-.68-1.52-1.21-.27-.41-.41-.9-.41-1.39s.14-.98.41-1.39c.37-.56.91-.98,1.54-1.2.47-.16.74-.13.75-.09.02.04-1.06.34-1.71,1.56-.19.33-.28.7-.26,1.08.02.38.15.74.37,1.04.29.38.68.68,1.12.87s.93.24,1.41.17c.45-.08.85-.3,1.17-.62.32-.32.54-.73.62-1.17.04-.37-.04-.74-.23-1.06-.18-.32-.46-.58-.8-.74-.72-.39-1.54-.54-2.35-.43Z"/>
  <path class="cls-4" d="M820.23,578.89c-.25,0-.61-1.26-.79-2.84-.18-1.58-.13-2.89.13-2.91.25-.02.61,1.24.79,2.82.18,1.58.13,2.93-.13,2.93Z"/>
  <path class="cls-4" d="M823.46,578.54c-.25,0-.47-1.35-.47-3.02s.18-3.02.45-3.02.47,1.35.47,3.02-.18,3.02-.45,3.02Z"/>
  <path class="cls-4" d="M767.22,580.55c-.25,0-.65-1.49-.88-3.37-.23-1.89-.21-3.47,0-3.48.21-.02.65,1.49.88,3.39.23,1.9.25,3.45,0,3.46Z"/>
  <path class="cls-4" d="M771.15,580.84c-.83-1.01-1.24-2.29-1.15-3.59-.19-1.26.09-2.54.81-3.59.27,0,0,1.65.13,3.59.13,1.94.47,3.52.22,3.59Z"/>
  <path class="cls-4" d="M756.39,576.95c.02.43-.04.86-.16,1.27-.23,1.16-.54,2.31-.93,3.43-1.33,3.77-3.28,7.29-5.78,10.41-2.59,3.22-5.67,6.02-9.12,8.29-1.06.7-2.16,1.34-3.3,1.9-.41.23-.85.42-1.31.56,0-.11,1.69-1.04,4.25-2.89,3.3-2.34,6.26-5.13,8.8-8.29,2.45-3.08,4.43-6.5,5.9-10.14,1.1-2.78,1.51-4.58,1.65-4.54Z"/>
  <path class="cls-4" d="M857.28,596.62c-.46.14-.94.21-1.42.21-1.3.1-2.61.1-3.91,0-4.26-.41-8.36-1.84-11.95-4.16-3.4-2.23-6.15-5.33-7.95-8.97-.52-1.06-.93-2.17-1.22-3.32-.15-.4-.21-.83-.2-1.26.14,0,.54,1.8,1.96,4.36,1.89,3.47,4.61,6.43,7.92,8.6,3.48,2.25,7.42,3.69,11.52,4.24,3.21.36,5.24.16,5.26.3Z"/>
  <path class="cls-4" d="M781.26,744.5c0,.2-7.79-1.49-17.27-3.73-9.48-2.24-17.12-4.25-17.05-4.45.07-.2,7.79,1.47,17.27,3.73,9.48,2.26,17.11,4.25,17.05,4.45Z"/>
  <path class="cls-4" d="M856.43,733.87c.11.18-6.62,3.68-15.02,7.85-8.4,4.16-15.33,7.38-15.44,7.18-.11-.2,6.63-3.7,15.03-7.85,8.4-4.15,15.33-7.36,15.44-7.18Z"/>
  <path class="cls-3" d="M709.97,472.24l6.37,7.99v-13.73h20.11s2.23,31.43,1.79,38.13c-.48,3.49-1.3,6.92-2.46,10.25-.6,1.93-1.69,3.68-3.16,5.08-1.47,1.39-3.28,2.38-5.25,2.87-1.97.49-4.03.47-5.98-.07-1.95-.54-3.74-1.57-5.18-3-2.25-2.19-4.35-4.53-6.28-7-8.98-11.49-23.77-39.49-23.77-39.49l15.51-9.26,8.29,8.24Z"/>
  <path class="cls-8" d="M708.7,470.77c.76,1.28,1.64,2.48,2.62,3.59,1.8,2.1,4.06,4.99,6.73,8.11,2.68,3.12,5.22,5.89,7.18,7.77.99,1.09,2.14,2.02,3.41,2.77-.91-1.14-1.89-2.22-2.94-3.23-1.8-1.97-4.27-4.79-6.95-7.92-5.3-6.35-9.82-11.31-10.05-11.09Z"/>
  <path class="cls-3" d="M755.82,375.68l21.2-8.33,39.04-2.21,18.35,6.98-25.15,13.96-21.69-.79-31.75-9.62Z"/>
  <path class="cls-4" d="M730.81,575.12c1.92.32,129.84,5.76,129.84,5.76l-4.42-115.08-.38-22.58-7.18-68.41s-19.14-6.59-28.88-9.73c0,0-10.27,10.77-29.8,10.41-19.08-.27-23.07-4.58-23.07-4.58l-26.68,10.23s-18.97,6.8-22.24,15.2c-3.27,8.4-8.98,54.84-8.98,54.84h27.66l-.74,82.52-5.15,41.41Z"/>
  <g class="cls-13">
    <path class="cls-1" d="M811.25,421.6l3.97,29.01,19.19,8.56,14.18-12.08v-26.93l-37.34,1.44Z"/>
  </g>
  <path class="cls-9" d="M848.09,429.89c0,.23-7.97.43-17.81.43s-17.83-.2-17.83-.43c5.93-.45,11.88-.6,17.83-.45,5.94-.15,11.88,0,17.81.45Z"/>
  <path class="cls-9" d="M722.2,408.35c.09.25.16.51.22.77.13.57.29,1.29.5,2.21.69,2.77,1.54,5.5,2.55,8.17,1.27,3.43,3.07,7.47,5.28,11.99,2.21,4.52,3.97,9.93,5.92,15.67,0,6.89,0,14.36-.14,22.31-.18,17.59-.36,33.51-.47,45.13-.11,5.71-.18,10.36-.25,13.68,0,1.54-.04,2.78-.11,3.72,0,.43-.02.86-.09,1.29-.03-.44-.03-.87,0-1.31v-17.39c0-11.61.14-27.54.23-45.11,0-7.88.14-15.42.2-22.31v.13c-1.92-5.74-3.77-11.08-5.78-15.65-1.92-3.94-3.63-7.98-5.13-12.1-.97-2.7-1.75-5.45-2.35-8.26-.18-.99-.32-1.8-.4-2.26-.08-.21-.14-.44-.18-.66Z"/>
  <path class="cls-9" d="M857.82,394.93c.06.82.06,1.64,0,2.46,0,1.8-.14,3.99-.25,6.68-.23,5.78-.54,13.5-.88,22.03-.34,8.53-.73,16.26-.99,22.04-.16,2.69-.29,4.94-.39,6.68,0,.82-.09,1.64-.25,2.44-.06-.82-.06-1.64,0-2.46,0-1.79,0-3.98.13-6.68.14-5.65.4-13.44.75-22.04.36-8.6.75-16.41,1.11-22.03.18-2.82.36-5.1.52-6.68.01-.82.1-1.64.25-2.44Z"/>
  <g class="cls-14">
    <path class="cls-1" d="M722.27,412.57c-.49,12.63,4.03,24.94,12.57,34.27-2.6-11.86-9.1-22.91-12.57-34.27Z"/>
  </g>
  <g class="cls-14">
    <path class="cls-1" d="M778.45,526.43c6.01-.8,11.5-3.86,15.35-8.54,4.05-4.52,7.52-9.53,10.32-14.92,3.62-7.32,5.67-15.32,6.03-23.48-7.45,19.98-18.36,35.78-31.7,46.94Z"/>
  </g>
  <path class="cls-9" d="M812.53,470.78c-.01.25-.05.49-.11.74-.13.57-.29,1.26-.47,2.08-.18.83-.47,1.99-.86,3.25-.39,1.26-.77,2.69-1.35,4.25-1.26,3.67-2.73,7.27-4.42,10.77-4.12,8.57-9.4,16.53-15.71,23.64-2.57,2.9-5.33,5.64-8.26,8.19-1.2,1.13-2.4,2.03-3.43,2.85-1.02.83-1.92,1.49-2.69,2.01l-1.8,1.2c-.41.25-.63.39-.65.36.16-.19.34-.36.54-.5l1.67-1.33c.74-.54,1.62-1.24,2.6-2.1.99-.86,2.15-1.8,3.34-2.93,2.84-2.6,5.53-5.36,8.06-8.26,3.07-3.58,5.93-7.33,8.56-11.24,2.57-3.94,4.92-8.02,7.04-12.22,1.7-3.46,3.21-7,4.54-10.61.61-1.53,1.04-2.96,1.46-4.2.41-1.24.75-2.32,1.01-3.2.25-.88.43-1.47.61-2.03.18-.56.27-.75.31-.74Z"/>
  <path class="cls-9" d="M808.83,434.78c-.03.4-.08.79-.16,1.18-.14.84-.34,1.96-.58,3.34-.23,1.38-.59,3.21-1.11,5.24-.52,2.03-.99,4.38-1.8,6.89-.36,1.26-.75,2.59-1.17,3.97-.41,1.38-.95,2.78-1.46,4.24-.95,2.96-2.24,6.01-3.59,9.25-5.9,13.95-13.82,26.94-23.52,38.58-2.28,2.62-4.42,5.17-6.61,7.36-1.08,1.11-2.08,2.23-3.12,3.21-1.04.99-2.03,1.96-3,2.85-1.8,1.8-3.73,3.36-5.38,4.72-1.65,1.36-2.98,2.49-4.16,3.37l-2.71,2.05c-.3.26-.62.48-.97.67.26-.29.55-.56.86-.79l2.6-2.17c1.15-.92,2.55-2.05,4.08-3.47,1.53-1.42,3.37-2.93,5.22-4.81l2.94-2.87c1.02-1.01,2.01-2.12,3.07-3.23,2.17-2.21,4.27-4.76,6.54-7.4,9.61-11.61,17.52-24.53,23.48-38.38,1.33-3.21,2.62-6.23,3.59-9.15.52-1.47,1.06-2.85,1.49-4.22.43-1.36.83-2.68,1.22-3.93.83-2.49,1.35-4.81,1.9-6.84.56-2.03.95-3.77,1.24-5.21.29-1.44.56-2.46.74-3.3.08-.4.2-.78.36-1.15Z"/>
  <path class="cls-2" d="M707.75,399l49.26,74.89c.24.35.36.77.37,1.19,0,.42-.11.84-.34,1.2-.23.36-.55.65-.93.83-.38.18-.81.25-1.23.19l-56.72-7.18c-.3-.04-.59-.14-.84-.3-.26-.15-.49-.36-.66-.6l-54.18-73.99c-.27-.34-.43-.76-.47-1.19-.04-.43.06-.87.26-1.25.21-.38.52-.7.91-.9.38-.2.82-.29,1.25-.25l58.36,4.31c1.01.09,1.98.41,2.84.94.86.53,1.59,1.25,2.13,2.11Z"/>
  <path class="cls-9" d="M707.75,399c-.12-.24-.27-.47-.45-.68-.5-.62-1.11-1.14-1.79-1.54-1.17-.61-2.47-.92-3.79-.92l-5.24-.43-33.64-2.64-11.15-.86-5.92-.45h-1.56c-.61.02-1.19.26-1.63.66-.46.42-.75.98-.83,1.59-.08.61.06,1.23.4,1.75l15.76,21.63c11.13,15.21,23.34,31.92,36.17,49.47.83,1.09,1.56,2.15,2.46,3.3.28.3.62.54,1.01.68.35.12.72.2,1.09.21l2.01.25,7.93,1.01,15.51,1.94,29.33,3.59c.61,0,1.11.16,1.79.2.35,0,.7-.06,1.02-.2.32-.13.62-.33.86-.58.47-.48.74-1.12.77-1.8-.03-.65-.27-1.29-.68-1.79l-3.81-5.82-7.18-10.77-12.85-19.44c-7.86-11.83-14.22-21.43-18.65-28.09l-5.12-7.63c-.57-.83-1.02-1.49-1.36-1.96-.14-.23-.31-.46-.48-.66.12.25.26.49.41.72l1.27,2.01c1.15,1.8,2.82,4.4,4.96,7.72l18.42,28.27,12.76,19.49,7.18,10.86,3.73,5.69c.32.38.51.85.54,1.35-.02.47-.21.92-.54,1.26-.34.33-.79.52-1.26.52-.48,0-1.15-.14-1.7-.2l-29.39-3.75-15.51-1.96-7.94-1.01-1.99-.25c-.3-.02-.59-.08-.88-.16-.25-.1-.48-.25-.66-.45-.79-1.08-1.58-2.14-2.37-3.23-12.85-17.52-25.13-34.21-36.22-49.42-5.58-7.57-10.86-14.79-15.81-21.54-.19-.27-.29-.58-.32-.9-.02-.32.04-.65.19-.94.15-.29.37-.53.64-.71.28-.17.59-.27.92-.27.41,0,.99,0,1.47.09l5.92.43,11.16.79,33.75,2.33,5.28.36c1.29-.04,2.56.23,3.71.81.9.51,1.68,1.21,2.28,2.05Z"/>
  <path class="cls-9" d="M642.46,395.28c.39.1.78.16,1.18.18l3.45.36,12.82,1.13,43.59,3.59-.34-.2c2.73,4.06,5.55,8.26,8.37,12.57,11.51,17.68,21.54,33.94,29.13,45.51,3.77,5.8,6.91,10.43,9.1,13.62l2.55,3.59c.27.44.59.85.95,1.22-.24-.46-.5-.9-.79-1.33l-2.4-3.75-8.85-13.77c-7.43-11.65-17.4-27.95-28.9-45.65-2.82-4.36-5.66-8.56-8.4-12.57l-.13-.18h-.13l-43.6-3.23-12.83-.86-3.47-.2c-.43-.04-.86-.06-1.29-.04Z"/>
  <path class="cls-12" d="M676.22,406.72c.03-.15.1-.29.19-.41.09-.12.2-.23.33-.31.13-.08.28-.13.43-.15.15-.02.3-.01.45.03.58.13,1.11.42,1.53.84.27.24.44.57.49.93.05.36-.03.72-.22,1.03-.56.7-1.8.43-2.4-.14-.28-.21-.49-.49-.63-.8-.14-.32-.19-.67-.16-1.01Z"/>
  <path class="cls-3" d="M702.72,448.69s2.23-5.38-3.45-6.03c-6.86-.36-13.73-.36-20.59,0,0,0-8.17.86-6.44,6.71,0,0-4.81,4.31-2.23,8.98,2.58,4.67,3.59,3.27,3.59,3.27,0,0-.68,5.69,3.59,6.53,0,0,4.67,5.51,8.98,5.17,4.31-.34,22.53-9.12,23.73-10.77,1.2-1.65,2.93-2.69,1.9-4.61,0,0,2.23-5.04-2.59-5.82.04-.09-.3-4.27-6.5-3.43Z"/>
  <path class="cls-8" d="M676.84,450.61c1.26.26,2.55.36,3.84.29h9.25c3.11.09,6.22-.09,9.3-.54,2.44-.57,3.41-2.01,3.3-2.05-1.05.67-2.22,1.14-3.45,1.38-2.24.38-5.56.14-9.17.27-3.61.13-6.88.16-9.25.27-1.28-.03-2.57.1-3.82.38Z"/>
  <path class="cls-8" d="M680.89,459.22c.38.22.8.36,1.24.41,1.18.24,2.39.32,3.59.23,1.75-.13,3.49-.45,5.17-.95,1.9-.52,3.93-1.26,6.07-1.9,1.99-.66,4.04-1.08,6.12-1.27,1.8.17,3.61-.19,5.21-1.04.62-.42,1.06-1.06,1.24-1.8.12-.55.04-1.12-.21-1.62-.45-.81-1.06-.86-1.04-.83.02.04.43.25.7.99.17.5.16,1.04-.04,1.53-.19.49-.56.9-1.02,1.14-1.53.68-3.22.93-4.88.74-2.16.13-4.29.54-6.34,1.22l-6.03,1.99c-1.63.51-3.3.88-4.99,1.11-1.59.11-3.18.12-4.77.04Z"/>
  <path class="cls-8" d="M686.99,466.49c1.31-.07,2.6-.32,3.84-.74,2.33-.59,5.53-1.51,8.98-2.64,3.45-1.13,6.61-2.3,8.83-3.21,1.26-.4,2.47-.96,3.59-1.67-.11-.25-5.71,1.8-12.57,3.97-6.86,2.17-12.74,4.04-12.67,4.29Z"/>
  <path class="cls-8" d="M685.54,473.24c1.07.09,2.15-.03,3.18-.36,2.5-.61,4.94-1.47,7.27-2.57,2.73-1.24,5.12-2.51,6.84-3.43.98-.42,1.9-.97,2.73-1.65-3.44,1.11-6.77,2.52-9.96,4.22-5.37,2.58-10.09,3.52-10.05,3.79Z"/>
  <path class="cls-3" d="M866.88,421.92s-11.6,46.46-26.08,63.62c-14.04,16.62-36.03,8.98-43.64-12.57-7.61-21.54-21.18-70.56-21.18-70.56l16.66-12.74,28.72,55.81,12.98-38.04,32.55,14.49Z"/>
  <path class="cls-3" d="M776.75,403.74l-12.23-17.72c-1.78-.38-3.52-.92-5.21-1.61-1.38-.81-2.75-7.85-2.71-9.21.04-1.36-2.37-4.58-1.4-5.49s4.24-.97,4.06-2.28c0-.29-2.42-3.23-.52-5.38,1.05-.69,2.22-1.19,3.45-1.45l-.2-6.77s3.59-7.97,7.38-5.08c0,0,14.06,10.77,15.47,12.57,1.42,1.8,6.84,24.22,7.79,28.43"/>
  <path class="cls-8" d="M792.63,389.7c-.02-.4-.08-.8-.18-1.18-.2-.86-.43-1.97-.74-3.38-.64-2.94-1.63-7.18-2.96-12.4-.68-2.62-1.42-5.38-2.37-8.53-.23-.75-.48-1.52-.81-2.32-.37-.8-.94-1.5-1.65-2.03-1.29-1.13-2.64-2.24-4.02-3.37-2.78-2.24-5.74-4.58-8.81-6.97-.78-.69-1.65-1.26-2.59-1.7-.55-.13-1.12-.13-1.67,0-.55.13-1.06.39-1.49.75-1.6,1.4-2.88,3.12-3.75,5.06v2.17c0,1.58,0,3.16.14,4.7l.32-.43c-.85.2-1.68.48-2.48.83-.45.18-.85.45-1.2.79-.31.36-.54.78-.68,1.24-.23.9-.15,1.84.21,2.69.15.41.34.8.56,1.17l.3.52v.13s0,.08,0,.13c0,.14-.36.36-.7.48-.34.13-.72.25-1.09.38-.39.1-.77.23-1.15.38-.47.14-.88.43-1.17.83-.19.46-.19.97,0,1.44.11.39.25.76.41,1.13.3.72.65,1.4.9,2.06.13.3.2.62.22.95,0,.38.04.77.11,1.15.11.74.23,1.46.4,2.17.28,1.38.66,2.74,1.13,4.08.23.69.59,1.34,1.08,1.89.59.38,1.23.66,1.9.84,1.24.38,2.46.68,3.59.95l-.2-.13,8.98,12.85,2.51,3.48c.28.42.59.82.93,1.18-.23-.45-.49-.88-.77-1.29l-2.37-3.59c-2.14-3.18-5.13-7.61-8.81-13.03v-.11h.02c-1.15-.29-2.35-.61-3.59-.99-.57-.16-1.12-.41-1.63-.72-.39-.47-.68-1.01-.86-1.6-.46-1.3-.82-2.63-1.08-3.99-.14-.7-.27-1.4-.38-2.12v-1.04c-.02-.42-.1-.83-.25-1.22-.27-.74-.61-1.42-.9-2.12-.16-.33-.28-.67-.38-1.02-.1-.27-.1-.56,0-.83.21-.21.47-.37.75-.45.36-.14.72-.26,1.09-.36.38-.13.77-.23,1.17-.4.49-.15.91-.49,1.15-.95.07-.15.1-.31.09-.47,0-.11-.04-.22-.09-.32v-.14l-.3-.52c-.19-.34-.36-.69-.5-1.06-.29-.67-.35-1.42-.18-2.14.09-.35.27-.67.5-.93.27-.24.58-.42.92-.56.75-.32,1.53-.59,2.33-.79l.32-.09v-.34c0-1.54-.09-3.11-.14-4.68v-2.06.2c.8-1.81,1.98-3.43,3.46-4.74.32-.29.7-.51,1.12-.61.42-.11.86-.12,1.28-.01.84.41,1.61.93,2.32,1.54,3.09,2.39,6.05,4.7,8.83,6.93,1.4,1.11,2.75,2.21,4.02,3.3.65.46,1.16,1.08,1.49,1.8.3.74.56,1.51.81,2.24.95,3.02,1.8,5.87,2.44,8.45,1.35,5.15,2.46,9.33,3.23,12.33.38,1.38.67,2.5.88,3.34-.04.39-.03.78.02,1.17Z"/>
  <path class="cls-8" d="M762.19,360.58c0,.14,1.42,0,3.59.25,1.3.2,2.58.49,3.84.88,1.65.23,3.32.23,4.97,0,1.41-.2,2.86-.07,4.22.37,1.36.44,2.6,1.19,3.63,2.18.8.88,1.43,1.9,1.88,3,0-.64-.12-1.27-.36-1.86-.25-.59-.61-1.12-1.07-1.57-.93-1.03-2.09-1.83-3.37-2.35-1.58-.61-3.29-.83-4.97-.63-1.58.2-3.18.2-4.76,0-1.3-.36-2.62-.6-3.97-.7-1.23-.1-2.46.05-3.62.43Z"/>
  <path class="cls-8" d="M767.16,360.21c.2.11.77-.72.7-1.88-.07-1.17-.73-1.9-.92-1.8-.18.11,0,.9,0,1.8s-.02,1.79.22,1.88Z"/>
  <path class="cls-8" d="M758.83,367.68c3.55.34,7.13.06,10.59-.83,1.26-.41,2.58-.58,3.9-.5,1.02.23,1.92.82,2.53,1.67.53.84,1,1.73,1.4,2.64.06-1.09-.25-2.16-.88-3.05-.64-1.05-1.68-1.79-2.87-2.08-1.42-.17-2.87-.03-4.24.41-5.69,1.29-10.43,1.49-10.43,1.74Z"/>
  <path class="cls-8" d="M756.97,374.07c.86.2,1.75.2,2.6,0,1.6-.18,3.75-.74,6.09-1.2,1.08-.24,2.18-.35,3.28-.32.86.02,1.69.32,2.35.86.6.55,1,1.27,1.17,2.06,0,0,.16-.23.14-.72-.07-.68-.39-1.32-.88-1.8-.73-.72-1.69-1.14-2.71-1.2-1.2-.08-2.41,0-3.59.27-2.41.47-4.49,1.11-6.03,1.44-.83.12-1.64.33-2.42.61Z"/>
  <path class="cls-8" d="M761.1,379.13c-.14.11,1.06,1.36,3.25,1.36l-.43-.38c0,.38,0,.75.13,1.13.06,1.54.4,3.05,1.01,4.47.24-1.52.19-3.06-.14-4.56l-.16-1.13v-.39h-.38c-1.11-.05-2.2-.21-3.27-.5Z"/>
  <path class="cls-4" d="M848.53,374.87s23.75,5.75,23.69,37.25c-.05,31.5-7.18,47.05-7.18,47.05l-43.78-23.89,9.84-24.47,17.43-35.94Z"/>
  <path class="cls-9" d="M865.05,459.17c-.31-.09-.62-.23-.9-.39l-2.55-1.29-9.33-4.92-31.22-16.82-.36-.18.14-.38,2.35-6.14c2.8-7.27,5.38-14.2,7.9-20.5,1.22-3.14,2.37-6.14,3.47-8.97.95-2.63,2.11-5.19,3.46-7.65,1.8-3.67,4.52-6.82,7.9-9.14.95-.59,1.99-1.01,3.09-1.24.28-.06.56-.1.84-.11h.3c-1.44.3-2.8.86-4.04,1.65-3.24,2.37-5.83,5.52-7.52,9.16-1.29,2.45-2.4,4.98-3.32,7.59-1.06,2.82-2.19,5.81-3.39,8.97l-7.83,20.54-2.35,6.14-.21-.58,31.16,17.11,9.19,5.17,2.46,1.44c.27.15.52.33.75.54Z"/>
</svg>
