<?xml version="1.0" encoding="UTF-8"?>
<svg id="Layer_1" data-name="Layer 1" xmlns="http://www.w3.org/2000/svg" viewBox="0 0 1000 1000">
  <defs>
    <style>
      .cls-1 {
        fill: #000;
      }

      .cls-1, .cls-2, .cls-3, .cls-4, .cls-5, .cls-6, .cls-7, .cls-8, .cls-9, .cls-10 {
        stroke-width: 0px;
      }

      .cls-2 {
        fill: #e0e0e0;
      }

      .cls-3 {
        fill: #eb996e;
      }

      .cls-4 {
        fill: #455a64;
      }

      .cls-5 {
        fill: #f5f5f5;
      }

      .cls-6 {
        fill: #09f;
      }

      .cls-7 {
        fill: #ffbe9d;
      }

      .cls-8 {
        fill: #ebebeb;
      }

      .cls-9 {
        fill: #263238;
      }

      .cls-11 {
        opacity: .3;
      }

      .cls-10 {
        fill: #fff;
      }
    </style>
  </defs>
  <path class="cls-2" d="M767.61,314.81l-97.86,46.43,178.37,41.41-67.76-84.92c-1.48-1.86-3.55-3.16-5.87-3.68-2.32-.53-4.74-.26-6.88.77Z"/>
  <path class="cls-2" d="M670.59,361.45l177.34,41.17c.23.05.43.2.56.4.13.2.16.44.11.67l-23.52,101.29c-.13.55-.47,1.03-.95,1.33-.48.3-1.07.4-1.62.27l-174.88-40.6c-.55-.13-1.03-.47-1.33-.96-.3-.48-.4-1.07-.27-1.62l23.52-101.29c.05-.23.19-.42.39-.55.19-.13.43-.17.66-.12Z"/>
  <path class="cls-10" d="M836.55,402.53l-83.71,28.15-73.71-61.18,12.99-48.98c.65-2.55,2.28-4.74,4.54-6.1,2.26-1.35,4.96-1.76,7.52-1.13l135.61,31.46c2.59.61,4.83,2.22,6.23,4.48,1.4,2.26,1.85,4.98,1.24,7.57l-10.7,45.73Z"/>
  <path class="cls-2" d="M747.53,422.39l-100.2,34.95c-.24,1.05-.28,2.13-.1,3.19.18,1.06.56,2.07,1.13,2.98.57.91,1.31,1.7,2.18,2.33.87.62,1.86,1.07,2.91,1.31l163.26,37.89c1.05.24,2.13.28,3.19.1,1.06-.18,2.07-.56,2.98-1.13.91-.57,1.7-1.31,2.33-2.18.62-.88,1.07-1.86,1.31-2.91l.14-.6-70.07-73.64c-1.13-1.21-2.59-2.07-4.19-2.48-1.61-.41-3.3-.34-4.87.19Z"/>
  <path class="cls-2" d="M758.57,349.14l-53.04-12.31-1.26,5.42,53.04,12.31,1.26-5.42Z"/>
  <path class="cls-5" d="M820.07,377.9l-117.71-27.31-1.42,6.13,117.71,27.3,1.42-6.13Z"/>
  <path class="cls-5" d="M816.59,392.83l-117.71-27.3-1.42,6.13,117.71,27.3,1.42-6.13Z"/>
  <path class="cls-5" d="M809.79,411.56l-4.94,1.62-99.38-21.81-10.08-8.53.19-1.44,117.31,27.21-.46,2.03-2.65.94Z"/>
  <path class="cls-5" d="M775.71,422.96l-44.52-10.32-10.65-8.92,66.53,15.43-11.35,3.81Z"/>
  <path class="cls-8" d="M743.86,423.67c-1.19.63-2.45,1.15-3.74,1.54l-10.39,3.74c-8.78,3.11-20.9,7.23-34.32,11.88-13.43,4.65-25.62,8.65-34.47,11.55l-10.46,3.38c-1.26.47-2.57.83-3.9,1.06,1.2-.61,2.45-1.12,3.74-1.54l10.36-3.74c8.78-3.11,20.9-7.23,34.32-11.89,13.43-4.65,25.6-8.65,34.45-11.54l10.49-3.35c1.28-.46,2.59-.82,3.93-1.08Z"/>
  <path class="cls-8" d="M826.66,498.32c-.24.24-15.38-15.26-33.74-34.59-18.37-19.33-33.17-35.22-32.9-35.46s15.38,15.23,33.75,34.59c18.37,19.36,33.17,35.22,32.9,35.46Z"/>
  <path class="cls-8" d="M840.62,401.15c-.97.54-1.99,1-3.04,1.37-1.98.8-4.82,1.93-8.44,3.28-7.23,2.7-17.07,6.29-28.08,10.08-11.01,3.78-21.09,7.01-28.39,9.26-3.66,1.11-6.63,2-8.68,2.56-1.05.37-2.13.63-3.23.77.99-.5,2.02-.91,3.09-1.23l8.56-2.94,28.25-9.64,28.2-9.64,8.56-2.89c1.04-.42,2.11-.75,3.21-.96Z"/>
  <path class="cls-8" d="M743.86,423.67c-1.07-.72-2.07-1.53-3.01-2.41l-7.95-6.65-26.52-21.69c-10.36-8.46-19.67-16.22-26.25-22.03-3.3-2.89-5.95-5.26-7.74-6.94-.98-.82-1.87-1.73-2.67-2.72,1.06.73,2.07,1.54,3.01,2.41l7.95,6.65,26.52,21.69c10.36,8.46,19.67,16.25,26.25,22.03,3.3,2.89,5.95,5.28,7.74,6.97.97.82,1.87,1.72,2.67,2.7Z"/>
  <path class="cls-2" d="M836.55,402.53c-.02-.23-.02-.47,0-.7,0-.51.24-1.18.41-2,.39-1.83.94-4.39,1.64-7.62l6.32-28.03c.34-1.49.67-3.01,1.01-4.55.42-1.54.73-3.1.92-4.68.09-1.64-.25-3.27-.98-4.74-.74-1.47-1.84-2.72-3.21-3.62-1.46-.93-3.11-1.53-4.82-1.78l-5.47-1.25-11.43-2.63-50.84-11.74-50.84-11.86-11.43-2.68c-1.78-.48-3.58-.86-5.4-1.13-1.69-.11-3.39.24-4.9,1-1.51.77-2.79,1.93-3.71,3.36-.82,1.43-1.38,2.99-1.69,4.6-.87,3.18-1.69,6.24-2.41,9.18l-7.57,27.72c-.89,3.2-1.59,5.71-2.12,7.52-.23.8-.42,1.45-.58,1.95-.04.23-.13.45-.24.65,0,0,0-.24.12-.7l.46-1.98c.46-1.81,1.08-4.34,1.9-7.57,1.71-6.65,4.14-16.15,7.23-27.82.77-2.94,1.57-6.03,2.41-9.21.32-1.7.93-3.32,1.78-4.82.98-1.57,2.36-2.85,4-3.71,1.7-.9,3.61-1.31,5.52-1.18,1.88.27,3.75.64,5.59,1.11l11.43,2.63,50.84,11.76,50.84,11.79,11.4,2.68,5.47,1.28c1.86.28,3.64.95,5.23,1.95,1.5,1.01,2.72,2.4,3.52,4.03.8,1.63,1.17,3.44,1.06,5.25-.2,1.63-.52,3.24-.96,4.82-.36,1.54-.72,3.06-1.08,4.53-2.79,11.74-5.09,21.26-6.68,27.94l-1.88,7.59c-.22.8-.38,1.45-.53,1.95-.08.25-.19.48-.34.7Z"/>
  <path class="cls-8" d="M605.63,115.32l166.92-31.05,24.95,112.81-173.36,29.29-18.51-111.05Z"/>
  <path class="cls-2" d="M772.55,84.27s0,.17-.29.48l-.94,1.3-3.71,4.97-13.76,18.17c-12.05,15.35-28.4,36.49-46.57,59.97l-.31.41-.48-.24-3.23-1.71-69.16-36.76-20.9-11.26-5.64-3.13-1.44-.84c-.18-.08-.34-.19-.48-.31.19.04.37.11.53.22l1.52.72,5.76,2.92,21.07,10.92c17.84,9.35,42.3,22.22,69.32,36.45l3.25,1.71-.8.17,46.74-59.75,14.2-17.93,3.91-4.82,1.04-1.23c.11-.15.24-.29.39-.41Z"/>
  <path class="cls-2" d="M624.14,226.37c-.29-.19,10.44-17.21,23.96-38.01,13.52-20.8,24.76-37.53,25.04-37.34.29.19-10.44,17.21-23.98,38.01-13.55,20.8-24.73,37.53-25.02,37.34Z"/>
  <path class="cls-2" d="M797.5,197.08c-.22.27-15.84-11.69-34.88-26.68-19.04-14.99-34.3-27.43-34.11-27.74.19-.31,15.84,11.69,34.88,26.71,19.04,15.02,34.3,27.46,34.11,27.72Z"/>
  <path class="cls-5" d="M873.33,193.32l110.71,26.83-15.69,75.88-114.16-29.65,19.14-73.06Z"/>
  <path class="cls-2" d="M984.04,220.15c-.38.31-.79.57-1.23.8l-3.61,2.05-13.45,7.23-44.88,24.1-.46.24-.31-.41-1.52-1.93-32.16-41.48c-4-5.25-7.23-9.64-9.64-12.68l-2.58-3.47c-.32-.4-.6-.83-.85-1.28.39.32.74.7,1.04,1.11l2.77,3.35c2.41,3.06,5.81,7.23,9.95,12.41,8.39,10.7,19.84,25.24,32.47,41.31l1.52,1.93-.8-.17,45.05-23.69,13.64-7.01,3.71-1.83c.41-.26.86-.45,1.32-.58Z"/>
  <path class="cls-2" d="M854.19,266.38c-.19-.29,10.99-7.86,24.99-16.87s25.5-16.1,25.67-15.81-10.99,7.86-25,16.87c-14,9.02-25.48,16.1-25.67,15.81Z"/>
  <path class="cls-2" d="M968.37,296.03c-.29.17-6.65-11.4-14.2-25.82-7.54-14.41-13.43-26.32-13.14-26.32s6.68,11.4,14.22,25.82c7.54,14.41,13.38,26.18,13.11,26.32Z"/>
  <path class="cls-9" d="M758.18,869.76l2.68.96c1.74.67,4.39,1.57,7.91,2.56,10.27,2.87,20.96,3.95,31.6,3.21,7.68-.53,15.3-1.76,22.75-3.66,8.89-2.18,17.55-5.2,25.86-9.02,20.23-9.56,38.2-23.3,52.74-40.3,4.22-4.7,7.49-10.17,9.64-16.1,2.2-6.22,1.87-13.04-.92-19.02-1.55-2.97-3.88-5.46-6.73-7.23-2.94-1.79-6.22-2.93-9.64-3.33-7.08-.85-14.26.32-20.71,3.38-3.4,1.49-6.91,2.73-10.49,3.71-3.74.98-7.67.88-11.35-.29-1.92-.55-3.68-1.57-5.11-2.97-1.43-1.4-2.49-3.13-3.09-5.04-.46-1.96-.5-3.99-.12-5.97.39-1.97,1.19-3.84,2.36-5.48,2.31-3.33,5.5-5.94,9.21-7.54,3.65-1.62,7.41-2.98,11.26-4.07,15.61-5.02,30.3-12.54,43.51-22.25,3.44-2.38,6.56-5.18,9.31-8.34,2.87-3.03,4.58-6.99,4.82-11.16-.03-2.06-.64-4.06-1.76-5.79-1.16-1.73-2.7-3.18-4.51-4.22-3.76-2.05-7.94-3.22-12.22-3.42-4.44-.2-8.85-.8-13.19-1.81-2.27-.53-4.38-1.6-6.15-3.11-1.78-1.51-3.17-3.42-4.07-5.57-.4-1.15-.54-2.37-.39-3.58.15-1.21.57-2.37,1.24-3.39,1.41-1.87,3.18-3.43,5.21-4.6,3.76-2.41,7.47-5.04,11.06-7.79,7.26-5.54,14.07-11.63,20.39-18.22,6.27-6.68,12.63-13.62,16.56-22.01,2.05-4.14,3.02-8.72,2.84-13.33-.28-4.62-2.13-9.01-5.23-12.44-3.13-3.4-7.08-5.94-11.47-7.39-4.39-1.44-9.08-1.74-13.62-.86-9.03,1.96-17.22,6.7-23.43,13.55-12.7,13.38-18.97,31.02-29.38,45.66-2.57,3.69-5.46,7.13-8.65,10.29-1.56,1.65-3.34,3.07-5.3,4.22-1.03.63-2.21.99-3.41,1.03-1.21.04-2.41-.23-3.48-.78-.97-.68-1.79-1.54-2.41-2.54-.62-1-1.03-2.12-1.21-3.29-.3-2.21-.3-4.46,0-6.68.28-2.09.2-4.21-.24-6.27-.52-1.99-1.57-3.81-3.04-5.25-1.48-1.44-3.23-2.57-5.15-3.33-1.92-.76-3.97-1.13-6.03-1.08-4.13.26-8.04,1.97-11.04,4.82-3.03,2.76-5.42,6.16-6.99,9.95-1.52,3.79-2.53,7.77-2.99,11.84-.5,4.05-.65,8.1-.79,12.05-.14,3.95-.27,8.07-.39,12.05-.27,8.03-.54,15.92-.8,23.67-.14,3.88-.22,7.71-.41,11.6-.15,3.86-.89,7.67-2.19,11.3-.63,1.85-1.67,3.54-3.03,4.94-1.36,1.4-3.02,2.49-4.85,3.18-3.68,1.07-7.62.82-11.14-.72-6.72-2.86-12.63-7.33-17.21-13.02-2.24-2.73-4.16-5.71-5.74-8.87-1.44-3.1-3.05-6.12-4.82-9.04-1.63-2.81-4.19-4.98-7.23-6.12-3.07-.92-6.37-.69-9.28.65-2.89,1.26-5.42,3.22-7.35,5.71-1.84,2.49-3.12,5.34-3.76,8.36-.94,5.96-1.48,11.98-1.59,18.01-.41,5.88-.6,11.64-.68,17.21-.12,10.52.52,21.05,1.9,31.48,1.16,9.07,3.12,18.03,5.86,26.75,1.11,4.07,2.75,7.79,4.07,11.4.75,1.76,1.57,3.45,2.41,5.11.84,1.66,1.47,3.3,2.41,4.82,4.97,9.44,11.39,18.02,19.04,25.45,1.1,1.17,2.29,2.25,3.54,3.25l2.68,2.27,2.12,1.85-2.22-1.76-2.7-2.22c-1.27-.98-2.47-2.05-3.59-3.2-7.74-7.39-14.25-15.97-19.28-25.41-.89-1.56-1.69-3.17-2.41-4.82-.77-1.66-1.64-3.35-2.41-5.13-1.35-3.62-3.01-7.23-4.15-11.4-2.78-8.76-4.78-17.76-5.95-26.88-1.45-10.45-2.13-21-2.03-31.55,0-5.59.24-11.35.63-17.26.12-6.09.64-12.16,1.57-18.17.67-3.15,2-6.11,3.9-8.7,2.02-2.62,4.66-4.68,7.69-6,3.12-1.45,6.66-1.71,9.95-.72,3.27,1.22,6.04,3.51,7.83,6.51,1.77,2.95,3.38,6,4.82,9.14,1.54,3.09,3.42,5.99,5.62,8.65,4.5,5.55,10.3,9.91,16.87,12.7,3.3,1.43,6.98,1.68,10.44.7,1.68-.65,3.2-1.65,4.45-2.95,1.25-1.3,2.2-2.86,2.78-4.57,2.65-6.97,2.07-14.82,2.41-22.56.34-7.74.5-15.67.77-23.64.12-4,.24-8.03.39-12.05.14-4.02.27-8.17.8-12.27.46-4.14,1.48-8.19,3.04-12.05,1.62-3.95,4.08-7.5,7.23-10.39,3.22-3,7.39-4.78,11.79-5.04,2.23-.04,4.44.37,6.51,1.19,2.07.83,3.95,2.06,5.54,3.63,1.63,1.59,2.78,3.6,3.35,5.81.49,2.18.59,4.44.29,6.65-.29,2.1-.29,4.24,0,6.34.13,1,.47,1.96.99,2.83.52.86,1.22,1.61,2.05,2.18.89.46,1.88.68,2.88.64,1-.05,1.97-.36,2.81-.9,1.86-1.1,3.55-2.44,5.04-4,3.12-3.12,5.96-6.51,8.49-10.12,4.98-7.49,9.58-15.23,13.76-23.19,4.27-8.18,9.56-15.78,15.74-22.63,6.38-7.05,14.81-11.91,24.1-13.91,4.76-.92,9.67-.61,14.26.9,4.6,1.52,8.73,4.18,12.01,7.75,3.29,3.64,5.24,8.29,5.54,13.18.19,4.82-.83,9.61-2.97,13.93-4.05,8.63-10.49,15.62-16.87,22.34-6.36,6.64-13.23,12.77-20.54,18.34-3.61,2.77-7.35,5.37-11.13,7.83-1.87,1.08-3.51,2.52-4.82,4.24-.57.86-.93,1.84-1.06,2.87-.13,1.02-.01,2.07.34,3.04.84,1.96,2.13,3.69,3.76,5.06s3.56,2.34,5.64,2.82c4.26.99,8.6,1.58,12.97,1.76,4.46.23,8.81,1.47,12.73,3.61,1.93,1.15,3.58,2.72,4.82,4.6,1.23,1.92,1.9,4.14,1.95,6.41-.2,4.49-1.98,8.76-5.04,12.05-2.84,3.23-6.08,6.09-9.64,8.51-13.32,9.77-28.12,17.34-43.85,22.39-3.8,1.06-7.53,2.4-11.14,4-3.54,1.53-6.58,4.04-8.75,7.23-1.09,1.51-1.84,3.23-2.21,5.05-.37,1.82-.35,3.7.07,5.51.56,1.73,1.53,3.3,2.84,4.56,1.31,1.26,2.91,2.18,4.66,2.67,3.49,1.11,7.23,1.2,10.77.27,3.53-.96,6.99-2.18,10.34-3.64,6.62-3.09,13.98-4.28,21.24-3.42,3.55.46,6.95,1.65,10,3.52,3,1.85,5.44,4.49,7.06,7.62,2.89,6.21,3.22,13.31.92,19.77-2.19,6.05-5.53,11.61-9.83,16.39-14.62,17.05-32.7,30.8-53.03,40.35-8.36,3.81-17.07,6.82-26.01,8.97-7.49,1.88-15.14,3.08-22.85,3.59-10.69.68-21.43-.5-31.72-3.47-2.67-.76-5.3-1.65-7.88-2.67l-2.58-1.42Z"/>
  <path class="cls-9" d="M771.66,840.36c8.93-25.67,19.32-50.82,31.12-75.3,3.09-6.51,6.15-12.97,9.18-19.28,3.04-6.31,6-12.61,9.33-18.58,6.39-11.43,13.39-22.5,20.99-33.17,7.23-10.22,14.46-19.67,21.19-28.44,6.72-8.77,13.31-16.87,19.55-23.91,9.8-11.23,20.47-21.67,31.92-31.21,4.05-3.38,7.23-5.91,9.47-7.57l2.53-1.9c.28-.23.58-.43.89-.6l-.8.72-2.41,2c-2.15,1.76-5.3,4.34-9.3,7.79-11.27,9.7-21.8,20.22-31.51,31.48-6.17,7.11-12.61,15.18-19.28,23.96-6.68,8.77-13.88,18.27-21.04,28.49-7.54,10.64-14.49,21.68-20.83,33.07-3.3,5.93-6.27,12.17-9.28,18.51l-9.16,19.28c-11.79,24.43-22.2,49.51-31.17,75.11"/>
  <path class="cls-9" d="M821.7,727.14c-.33-1.12-.54-2.26-.63-3.42-.34-2.19-.72-5.4-1.11-9.37-.82-7.93-1.57-18.9-2.41-31.02-.85-12.12-1.69-23.07-2.61-30.95-.46-3.95-.87-7.23-1.18-9.35-.24-1.13-.34-2.29-.29-3.45.4,1.09.69,2.21.87,3.35.46,2.19,1.01,5.37,1.62,9.3,1.21,7.88,2.27,18.87,3.04,31,.77,12.12,1.42,22.78,1.93,31.05.27,3.71.48,6.87.65,9.4.17,1.15.21,2.31.12,3.47Z"/>
  <path class="cls-9" d="M924.24,712.05c-1.34.24-2.71.34-4.07.31-2.63.14-6.41.31-11.11.68-9.35.65-22.25,1.98-36.42,4.1-12.56,1.88-24.78,4.12-36.16,6.65-4.58,1.01-8.27,1.9-10.82,2.41-1.31.4-2.66.68-4.03.84,1.24-.61,2.54-1.07,3.88-1.4,2.41-.77,6.17-1.83,10.75-2.97,9.11-2.41,21.89-4.96,36.16-7.11,12.12-1.85,24.34-3.07,36.59-3.66,4.7-.24,8.51-.24,11.14-.19,1.37-.03,2.75.08,4.1.34Z"/>
  <path class="cls-9" d="M772.98,838.53c-.27-.39-.49-.81-.65-1.26l-1.59-3.76c-1.37-3.25-3.25-8.03-5.47-13.96-4.46-11.86-10.1-28.42-16.08-46.79-5.98-18.37-11.47-34.98-15.69-46.88-2.05-5.81-3.76-10.58-5.01-14.12-.53-1.54-.99-2.8-1.35-3.86-.19-.44-.32-.9-.38-1.37.28.39.5.82.65,1.28l1.62,3.74c1.37,3.28,3.23,8.05,5.45,13.98,4.46,11.84,10.13,28.42,16.1,46.79,5.98,18.37,13.86,37.6,18.08,49.53,2.05,5.81,1.35,7.91,2.6,11.45.56,1.54.99,2.82,1.35,3.86.19.44.31.9.39,1.37Z"/>
  <path class="cls-9" d="M909.94,800.18c-.44.22-.9.39-1.37.51l-3.98,1.16-14.66,4.12c-12.39,3.5-29.43,8.53-48.21,14.1-17.62,5.21-34.01,9.93-48.4,13.67-6.22,1.64-11.28,2.89-14.8,3.69l-4.05.89c-.46.14-.94.21-1.42.22.43-.23.9-.4,1.37-.51l3.98-1.16,14.66-4.12c12.39-3.49,29.43-8.53,48.21-14.1,18.78-5.57,35.94-10.44,48.4-13.67,6.22-1.64,11.28-2.89,14.78-3.69l4.05-.89c.47-.14.96-.21,1.44-.22Z"/>
  <path class="cls-7" d="M512.27,283.45s-1.4-6.7-3.74-26.08l-21.31-41.77s4.82-8.75,15.69,9.76c5.01,8.44,21.69,4.82,18.99-8.34-2.7-13.16-19.96-19.28-30.52-6.17,0,0-6.82.7-7.62-4.63-.8-5.33,14.61-18.49,27.72-14.66,5.34,1.68,10.27,4.48,14.46,8.2,0,0-2.84-43.92.72-44.3s8.51,2.41,11.21,50.45c0,0,1.49-38.01,2.24-42.86.75-4.85,7.23-8.12,8.1,4.05,0,1.35,2.41,38.71,2.41,38.71,0,0,4.27-24.71,4.82-26.68,1.2-5.21,6.34-4.65,6.85,2.24.36,5.23,2.05,27.55,2.05,27.55l3.23,68.72h.43"/>
  <path class="cls-6" d="M580.44,260.77l-80.03-2.07-7.95,193.65-90.54-39.72-.14.31c-5.45-2.41-10.2-4.58-12.73-5.98-50.02-27.26-82.85-30.59-136.53-11.43l-102.83,41.17c-19.91,9.38-71.71,18.03-89.48,99.94l-2.41,9.79,82.29,59.03,56.43,148.72,67.49,148.87,155.35-5.04,81.18-101.24-68.89-131.58-42.81-147.38c30.25,20.08,86.39,47.41,153.62,33.17,72.92-15.43,37.96-290.22,37.96-290.22Z"/>
  <g class="cls-11">
    <path class="cls-1" d="M196,752.67c12.35,7.52,25.68,13.3,39.6,17.19,7.57,2.27,16.25,3.93,22.97-.22,6.72-4.15,7.76-16.42.24-18.87l65.2-14.73c-8.85-25.45,5.74-54.5,27.79-69.9,22.06-15.4,47.12-19.89,73.98-22.22l32.52,100.88-108.69,148.24-88.99,2.58-64.62-142.94Z"/>
  </g>
  <path class="cls-6" d="M161.89,613.32s-40.76,89.19-31.34,133.63c5.21,24.88,86.61,46.11,138.48,52.45l-15.55,87.06s-192.84-18.34-228.87-94.68c-20.49-43.39.27-149.45,39.29-269.49l97.98,91.02Z"/>
  <path class="cls-10" d="M347.54,717.76c-.43.3-.89.55-1.37.75l-4.07,1.88c-3.54,1.64-8.73,3.88-15.16,6.58-12.87,5.35-30.9,12.25-51.17,18.75-20.27,6.51-38.95,11.38-52.55,14.46-6.8,1.57-12.32,2.75-16.15,3.47l-4.41.82c-.5.14-1.02.21-1.54.22.48-.21.98-.36,1.49-.46l4.36-1.06c3.81-.87,9.28-2.19,16.05-3.86,13.52-3.35,32.11-8.36,52.35-14.85,20.25-6.48,38.28-13.23,51.22-18.39,6.48-2.56,11.69-4.68,15.31-6.17l4.14-1.69c.48-.21.98-.36,1.49-.46Z"/>
  <path class="cls-10" d="M362.85,424.34c0,.22-53.15,19.21-118.89,42.4-65.74,23.19-119.13,41.82-119.21,41.53-.08-.28,53.15-19.21,118.91-42.4,65.75-23.19,119.11-41.77,119.19-41.53Z"/>
  <path class="cls-10" d="M160.64,568.41c-.05.07-22.8-6.06-50.87-13.75-28.07-7.69-50.81-14-50.78-14.12.04-.11,22.8,6.06,50.87,13.76,28.07,7.69,50.8,14.02,50.77,14.11Z"/>
  <path class="cls-10" d="M142.81,649.95c-.05.07-22.8-6.06-50.87-13.75-28.07-7.69-50.81-14-50.78-14.12.04-.11,22.8,6.06,50.87,13.76,28.07,7.69,50.8,14.02,50.77,14.11Z"/>
  <path class="cls-10" d="M125.68,724.99c-.03.08-23.58-.76-52.66-1.9-29.08-1.15-52.66-2.16-52.66-2.28,0-.12,23.58.76,52.66,1.91,29.09,1.15,52.65,2.18,52.65,2.28Z"/>
  <path class="cls-10" d="M148.24,760.24c.06.06-9.94,21.4-22.39,47.7-12.45,26.3-22.62,47.61-22.73,47.55-.11-.05,9.94-21.4,22.39-47.7,12.46-26.31,22.63-47.59,22.73-47.55Z"/>
  <path class="cls-10" d="M227.67,791.66c.06.04-3.99,20.27-9.09,45.24-5.1,24.97-9.31,45.22-9.41,45.2-.1-.02,3.99-20.27,9.1-45.25,5.11-24.98,9.32-45.21,9.41-45.19Z"/>
  <path class="cls-9" d="M142.07,658.49c.04-.19.11-.36.19-.53l.63-1.49,2.41-5.76c2.12-5.01,5.13-12.32,8.2-21.55,3.61-10.83,6.08-22,7.38-33.34,1.6-13.85.58-27.87-2.99-41.34-3.51-13.51-10.43-25.88-20.1-35.94-8.04-8.05-17.93-14.02-28.8-17.38-7.34-2.24-15.04-3.06-22.68-2.41l-3.59.46c-1.04.14-1.88.36-2.6.48l-1.59.31h-.55s.17,0,.51-.17l1.59-.43c.7-.17,1.57-.43,2.6-.63l3.59-.55c7.72-.85,15.53-.15,22.97,2.05,11.08,3.28,21.18,9.26,29.38,17.4,9.86,10.17,16.92,22.72,20.49,36.42,3.62,13.62,4.61,27.81,2.94,41.8-1.38,11.38-3.97,22.59-7.71,33.43-3.18,9.23-6.32,16.49-8.58,21.45-1.16,2.41-2.07,4.39-2.72,5.67l-.75,1.47c-.07.36-.17.58-.19.58Z"/>
  <path class="cls-9" d="M335.75,389.68c.48.14.94.35,1.37.6,1.3.64,2.54,1.37,3.74,2.19,4.43,2.99,8.36,6.66,11.64,10.87,4.82,6.28,8.67,13.25,11.43,20.68,3.28,9.06,6.07,18.29,8.36,27.65l13.43,50.62,3.91,15.4,1.01,4.19c.15.49.24.99.27,1.49-.22-.45-.39-.93-.51-1.42-.31-1.08-.72-2.41-1.23-4.15l-4.32-15.28-13.76-50.62c-2.65-9.88-5.09-19.28-8.24-27.57-2.67-7.34-6.39-14.26-11.04-20.54-3.18-4.2-6.95-7.91-11.21-11.02-3.04-2.07-4.92-3.01-4.84-3.11Z"/>
  <path class="cls-10" d="M379.1,481.8l-.54.25-1.62.7-6.2,2.58c-5.42,2.26-13.28,5.47-23.01,9.39-19.51,7.84-46.47,18.43-76.48,29.6-30.01,11.18-57.32,20.85-77.24,27.7-9.93,3.41-17.98,6.12-23.55,7.96l-6.43,2.11-1.67.53-.59.17.56-.23,1.66-.59,6.38-2.22,23.49-8.15c19.82-6.91,47.14-16.64,77.16-27.82,30.03-11.18,57.03-21.68,76.53-29.44l23.09-9.2,6.28-2.51,1.65-.64.52-.2Z"/>
  <path class="cls-10" d="M398.47,537.65l-.6.31-1.8.85-6.95,3.17c-6.04,2.75-14.8,6.61-25.68,11.3-21.76,9.37-52.02,21.81-85.71,34.49-33.69,12.67-64.64,23.15-87.01,30.37-11.21,3.6-20.31,6.44-26.61,8.33l-7.25,2.16-1.89.54c-.21.08-.43.13-.65.16.2-.1.4-.18.61-.24l1.88-.62,7.22-2.28c6.31-1.99,15.34-4.93,26.53-8.66,22.37-7.36,53.18-17.94,86.9-30.59,33.72-12.65,63.97-25.02,85.78-34.24,10.89-4.61,19.69-8.38,25.76-11.03l7.02-3.01,1.83-.76.63-.22Z"/>
  <path class="cls-10" d="M582.53,282.44c-.09.33-19.34-.18-43.11-1.32-23.77-1.14-43.05-2.21-43.03-2.55.02-.34,19.31.18,43.09,1.32,23.77,1.14,43.05,2.21,43.06,2.56Z"/>
  <path class="cls-10" d="M582.53,344.22c-.09.33-19.34-.18-43.11-1.32-23.77-1.14-43.05-2.21-43.03-2.55.02-.34,19.31.18,43.09,1.32,23.77,1.14,43.05,2.21,43.06,2.56Z"/>
  <path class="cls-10" d="M582.53,415.12c-.09.33-19.34-.18-43.11-1.32-23.77-1.14-43.05-2.21-43.03-2.55.02-.34,19.31.18,43.09,1.32,23.77,1.14,43.05,2.21,43.06,2.56Z"/>
  <path class="cls-10" d="M440.67,435.05c.26.21-7.9,17.65-18.45,38.99-10.55,21.33-19.23,38.58-19.54,38.42-.31-.15,7.88-17.63,18.43-38.97,10.55-21.33,19.23-38.58,19.56-38.44Z"/>
  <path class="cls-10" d="M579.11,490.7c-.2.27-18.04-6.96-39.9-16.38-21.86-9.42-39.53-17.19-39.4-17.5.14-.32,18.02,6.95,39.88,16.37,21.86,9.42,39.53,17.19,39.41,17.52Z"/>
  <path class="cls-10" d="M499.76,548.24c-.33-.05-2.19-19.21-3.97-42.95-1.78-23.73-3.09-43-2.75-43.02.34-.03,2.2,19.19,3.98,42.92,1.78,23.73,3.09,43,2.74,43.04Z"/>
  <path class="cls-10" d="M413.66,604.01c0,.31-53.51,21.69-119.78,47.87-66.26,26.18-120.11,47.05-120.23,46.74-.12-.31,53.49-21.69,119.77-47.9,66.29-26.2,120.11-47.05,120.23-46.71Z"/>
  <g class="cls-11">
    <path class="cls-1" d="M364.92,428.46c22.37,60.57,62.67,94.44,119.58,124.81-33.65-3.73-65.91-15.55-94.01-34.45"/>
  </g>
  <path class="cls-4" d="M344.65,911.59h429.37v-183.44c0-8.17-1.6-16.26-4.73-23.82-3.12-7.55-7.71-14.41-13.49-20.19-5.78-5.78-12.64-10.36-20.19-13.49-7.55-3.13-15.64-4.74-23.81-4.74h-304.92c-16.51,0-32.34,6.56-44.01,18.23-11.67,11.67-18.23,27.5-18.23,44.01v183.44Z"/>
  <path class="cls-4" d="M400.3,665.91h68.22c6.69,0,13.1,2.66,17.83,7.38,4.73,4.73,7.38,11.14,7.38,17.83v217.25c0,.85-.34,1.66-.94,2.27-.6.6-1.42.94-2.27.94h-142.65c-.85,0-1.67-.34-2.27-.94-.6-.6-.94-1.42-.94-2.27v-186.81c0-14.76,5.86-28.91,16.29-39.35,10.43-10.44,24.58-16.3,39.34-16.31Z"/>
  <path class="cls-9" d="M376.32,911.59v-183.7c0-16.43,6.53-32.19,18.14-43.81,11.62-11.62,27.37-18.15,43.81-18.16h-44.16s-51.85,6.89-51.85,71.78,1.66,173.89,1.66,173.89h32.4Z"/>
  <path class="cls-9" d="M493.73,894.13H133.49v20.44h360.24v-20.44Z"/>
  <path class="cls-4" d="M788.05,894.13h-294.32v20.44h294.32v-20.44Z"/>
  <path class="cls-9" d="M493.73,904.35c-.03-.24-.03-.48,0-.72v-40.83c.12-25.77.31-61.18.53-100.32,0-9.79.31-19.28-.29-28.54-.42-8.82-1.97-17.56-4.63-25.98-3.9-11.96-11.45-22.39-21.59-29.83-10.14-7.44-22.36-11.52-34.94-11.65-1.61-.05-3.22-.01-4.82.12-1.16.04-2.32.16-3.47.34l-2.12.29h-.75l.72-.17,2.12-.41c1.15-.23,2.31-.39,3.47-.46,1.6-.19,3.21-.27,4.82-.24,10.24-.05,20.33,2.51,29.31,7.45,13.57,7.2,23.75,19.47,28.32,34.13,2.73,8.52,4.35,17.36,4.82,26.3.6,9.26.41,18.85.31,28.64-.36,39.12-.68,74.55-.92,100.3-.17,12.78-.31,23.14-.41,30.42,0,3.52-.14,6.29-.17,8.27v2.15c-.09.27-.2.53-.34.77Z"/>
  <path class="cls-9" d="M786.02,893.63c0,.34-67.06.75-149.74.89-82.68.14-149.74,0-149.74-.39s67.01-.75,149.74-.89c82.73-.14,149.74.05,149.74.39Z"/>
  <path class="cls-9" d="M786.02,915.39c0,.34-66.58.43-148.65.22-82.08-.22-148.68-.67-148.65-1.04.03-.36,66.53-.43,148.65-.22,82.12.22,148.65.67,148.65,1.04Z"/>
  <path class="cls-9" d="M747.26,870.8v-13.04c0-8.46-.12-20.78-.19-36.35l.36.39-192.67.24c.27-.27-.65.63.6-.63v49.41l-.63-.6,137.39.27,40.52.17h14.78c-.31.02-.61.02-.92,0h-13.57l-40.37.17-137.83.29h-.6v-50.04c1.25-1.25.36-.34.65-.63l192.67.24h.39v.39c0,15.67-.17,28.06-.22,36.59v12.05c-.08.38-.2.74-.36,1.08Z"/>
  <path class="cls-9" d="M638.46,834.09v22.06h-2.24v-17.6l-8.63,14.8h-1.11l-8.63-14.7v17.5h-2.22v-21.98h1.9l9.64,16.3,9.45-16.3,1.83-.07Z"/>
  <path class="cls-9" d="M659.4,850.19h-12.25l-2.65,5.88h-2.41l10.05-21.98h2.29l10.05,21.98h-2.41l-2.68-5.88ZM658.56,848.31l-5.28-11.81-5.28,11.81h10.56Z"/>
  <path class="cls-9" d="M668.13,834.09h2.41v22.06h-2.41v-22.06Z"/>
  <path class="cls-9" d="M677.63,834.09h2.41v19.96h12.32v2.1h-14.63l-.1-22.06Z"/>
  <path class="cls-6" d="M722.51,615.63v-36.16h-67.49v144.96c-5.46,3.23-9.7,8.18-12.04,14.08-2.34,5.9-2.66,12.41-.9,18.51,1.76,6.1,5.49,11.44,10.62,15.18,5.12,3.74,11.35,5.68,17.69,5.51,6.34-.18,12.45-2.46,17.36-6.48,4.91-4.02,8.34-9.56,9.76-15.75,1.42-6.19.74-12.67-1.93-18.43-2.67-5.76-7.17-10.47-12.81-13.39v-108.03h39.75Z"/>
  <path class="cls-9" d="M670.3,759.68c6.1,0,11.04-4.94,11.04-11.04s-4.94-11.04-11.04-11.04-11.04,4.94-11.04,11.04,4.94,11.04,11.04,11.04Z"/>
  <path class="cls-9" d="M255.58,396.43c.25.47.46.96.63,1.47.56,1.44,1.04,2.91,1.42,4.41,1.42,5.51,1.97,11.2,1.64,16.87-.48,8.46-2.88,16.71-7.01,24.1-5.17,9.11-13.05,16.38-22.54,20.8-9.46,4.54-20.16,5.81-30.42,3.62-8.29-1.92-15.95-5.9-22.3-11.57-4.25-3.81-7.85-8.3-10.63-13.28-.76-1.34-1.43-2.72-2.02-4.14-.25-.48-.43-.99-.55-1.52.14,0,.94,2.02,3.01,5.42,2.89,4.82,6.53,9.16,10.77,12.85,6.28,5.47,13.83,9.29,21.96,11.11,10.01,2.07,20.43.8,29.65-3.64,9.26-4.31,16.97-11.37,22.08-20.22,4.1-7.25,6.53-15.33,7.11-23.65.42-5.61,0-11.24-1.23-16.73-.87-3.81-1.71-5.86-1.57-5.91Z"/>
  <path class="cls-8" d="M460.76,769.56l32.9-.43-1.28,111.77-30.54,1.21-1.08-112.54Z"/>
  <path class="cls-9" d="M461.84,882.11c4.5-5.82,9.33-11.38,14.46-16.66,4.87-5.56,10.05-10.85,15.52-15.81-4.56,5.81-9.44,11.37-14.61,16.66-4.83,5.55-9.97,10.83-15.38,15.81Z"/>
  <path class="cls-9" d="M493.66,806.78c-5.92-5.68-11.55-11.65-16.87-17.88-5.65-5.95-10.98-12.2-15.98-18.7,5.93,5.67,11.56,11.64,16.87,17.88,5.64,5.96,10.97,12.2,15.98,18.7Z"/>
  <path class="cls-9" d="M214.27,279.33c0,1.7.5,3.36,1.43,4.78.93,1.42,2.26,2.53,3.82,3.2,1.56.67,3.28.87,4.95.57,1.67-.3,3.22-1.08,4.45-2.25,4.65-4.41,3.06-12.17.17-17.91-2.89-5.74-6.89-11.55-6.05-17.89.65-4.82,4.03-8.85,6.29-13.21,2.01-3.79,3.11-7.99,3.21-12.27.11-4.28-.79-8.53-2.61-12.41-1.92-3.84-4.85-7.07-8.49-9.35-3.64-2.28-7.83-3.5-12.12-3.55-8.7.17-17.89,5.62-25.62,1.62-5.62-2.92-7.95-9.64-12.85-13.79-7.54-6.24-18.95-4.17-27.89,0-8.94,4.17-17.5,9.93-27.31,10.41-8.17.39-16.03-3.04-24.1-4.15-8.85-1.19-17.85.4-25.75,4.56-7.9,4.16-14.31,10.68-18.33,18.65-4.02,7.97-5.47,17-4.12,25.82,1.34,8.83,5.4,17.02,11.62,23.43,4.32,4.78,10.18,7.89,16.56,8.77"/>
  <path class="cls-7" d="M225.19,463.53c-12.27,4.04-25.63,3.06-37.17-2.74-11.54-5.8-20.31-15.93-24.39-28.18-4.82-14.61-8.94-26.9-8.94-26.9,0,0-38.81,5.93-50.96-30.93-12.15-36.86-31.34-118.86-31.34-118.86l-1.18-4.97c37.02-31.94,89.67-37.27,135.59-20.51l2.41,7.64,48.21,167.07c3.04,12,1.4,24.71-4.58,35.56-5.98,10.84-15.87,19-27.65,22.83Z"/>
  <path class="cls-9" d="M103.2,308.51c.93-.68,1.63-1.63,2-2.71.38-1.09.42-2.26.12-3.37-.3-1.11-.93-2.1-1.81-2.84-.88-.74-1.96-1.2-3.1-1.32-1.37-.17-2.75.21-3.83,1.06-.94.68-1.66,1.62-2.05,2.71-.39,1.09-.44,2.28-.14,3.39.3,1.12.94,2.12,1.82,2.87.89.75,1.98,1.21,3.13,1.32.68.08,1.38.02,2.04-.17.66-.19,1.28-.51,1.82-.94Z"/>
  <path class="cls-9" d="M89.45,305.65c.8.46,3.54-3.5,8.63-5.13,5.09-1.64,9.64-.17,9.96-.99.19-.39-.75-1.35-2.75-2.07-2.67-.89-5.54-.9-8.22-.03-2.67.87-5,2.57-6.63,4.85-1.18,1.88-1.35,3.18-.99,3.38Z"/>
  <path class="cls-9" d="M149.99,287.93c-.73.84-1.19,1.89-1.33,2.99-.14,1.11.06,2.23.56,3.23.5,1,1.29,1.82,2.26,2.37.97.55,2.08.8,3.19.72,1.11-.08,2.18-.49,3.06-1.18.88-.69,1.54-1.62,1.89-2.68.35-1.06.38-2.2.08-3.27-.3-1.08-.91-2.04-1.75-2.77-1.13-.97-2.61-1.46-4.1-1.35-1.49.11-2.88.8-3.86,1.93Z"/>
  <path class="cls-9" d="M144.89,293.24c.77.46,3.52-3.47,8.61-5.11,5.09-1.64,9.64-.17,9.98-1.01.19-.36-.75-1.35-2.75-2.05-2.67-.89-5.54-.9-8.22-.03-2.67.87-5,2.57-6.63,4.85-1.18,1.83-1.37,3.16-.99,3.35Z"/>
  <path class="cls-9" d="M137.74,341.73c0-.39-3.45,0-8.77.91-1.37.29-2.56.34-2.92-.41-.49-1.33-.58-2.77-.27-4.14.24-3.76.48-7.62.75-11.64.89-16.51.99-29.91.22-29.96s-2.17,13.31-3.09,29.82c-.19,4.03-.36,7.86-.53,11.64-.32,1.96.04,3.98,1.01,5.71.34.44.78.79,1.28,1.03.5.24,1.05.36,1.61.34.82-.02,1.63-.16,2.41-.41,5.18-1.42,8.36-2.51,8.29-2.89Z"/>
  <path class="cls-10" d="M156.05,342.14c4.31-4.82-12.05,12.37-22.68,15.14,2.57,2.14,5.79,3.33,9.13,3.4,3.34.06,6.61-1,9.26-3.04,9.79-7.55,4.29-15.5,4.29-15.5Z"/>
  <path class="cls-3" d="M154.46,405.2c17.18-5.07,32.46-15.14,43.89-28.93,0,0-2.99,30.23-40.98,38.57l-2.92-9.64Z"/>
  <path class="cls-7" d="M214.56,263.35c.75-.53,26.92-10.8,32.35,21.81,5.42,32.61-29.31,27.26-29.53,26.35-.22-.92-2.82-48.16-2.82-48.16Z"/>
  <path class="cls-3" d="M225.48,298.42c0-.14.63.29,1.66.58,1.45.34,2.98.12,4.27-.63,3.23-1.83,5.21-7.79,4.41-13.67-.39-2.81-1.39-5.5-2.94-7.88-.48-.97-1.19-1.8-2.06-2.44-.87-.63-1.89-1.05-2.95-1.2-.68-.06-1.36.11-1.93.5-.56.39-.97.96-1.16,1.62-.29.96,0,1.59,0,1.66s-.8-.41-.77-1.81c.06-.84.4-1.64.96-2.27.78-.82,1.86-1.3,2.99-1.35,1.38.05,2.73.44,3.92,1.16,1.18.71,2.17,1.72,2.86,2.92,1.78,2.62,2.91,5.63,3.28,8.77.89,6.58-1.45,13.31-5.93,15.43-.83.41-1.75.62-2.67.62s-1.84-.21-2.68-.62c-1.06-.63-1.35-1.33-1.25-1.4Z"/>
  <path class="cls-9" d="M68.15,273.81s25.57,4.6,50.81-18.25c16.54-14.99,37.65-25.98,43.7-23.5,6.05,2.48,12.61,22.03,33.31,22.47,0,0,9.28,38.21,23.98,32.64,14.7-5.57-11.14-61.54-11.14-61.54l-41.48-15.21-42.4,3.69-43.05,17.38-20.97,22.37,7.23,19.96Z"/>
  <path class="cls-9" d="M202.65,193.27c-2.76,1.03-5.39,2.36-7.86,3.98-2.23,1.93-4.22,4.12-5.95,6.51.88-3,2.69-5.63,5.18-7.52,2.49-1.89,5.51-2.93,8.63-2.97Z"/>
  <path class="cls-9" d="M182.96,182.69c.77.94,1.36,2.02,1.74,3.18,1.15,2.7,1.96,5.53,2.41,8.44.45,2.92.37,5.89-.24,8.77-.14,1.23-.57,2.4-1.25,3.42.56-3.99.65-8.04.24-12.05-1.01-6.56-3.28-11.62-2.89-11.76Z"/>
  <path class="cls-2" d="M282.02,767.88l166.92-31.05,24.95,112.81-173.36,29.26-18.51-111.02Z"/>
  <path class="cls-9" d="M448.95,736.83s0,.17-.29.46l-.94,1.33-3.71,4.97-13.88,18.15c-11.91,15.38-28.25,36.52-46.45,60l-.31.41-.46-.24-3.25-1.71-69.16-36.76-20.87-11.28-5.67-3.11-1.44-.84c-.17-.09-.34-.2-.48-.34l.53.22,1.52.72,5.76,2.99c5.09,2.63,12.24,6.36,21.09,10.92l69.3,36.37,3.23,1.71-.8.17,46.74-59.76,14.2-17.93c1.66-2.03,2.97-3.64,3.91-4.82.43-.48.77-.89,1.04-1.23l.41-.39Z"/>
  <path class="cls-9" d="M300.54,878.9c-.29-.19,10.44-17.21,23.98-38.01,13.55-20.8,24.73-37.53,25.02-37.34.29.19-10.44,17.21-24.1,38.01-13.67,20.8-24.61,37.53-24.9,37.34Z"/>
  <path class="cls-9" d="M473.89,849.64c-.22.27-15.84-11.69-34.88-26.71-19.04-15.02-34.3-27.41-34.08-27.67.22-.27,15.81,11.67,34.88,26.68,19.07,15.02,34.42,27.41,34.08,27.7Z"/>
  <path class="cls-7" d="M286.41,793.04s1.18,21.86,11.71,21.7c10.54-.17,47.7-20.47,52.02-13.43,4.31,7.04-7.09,16.87-7.09,16.87,0,0,13.09-.19,8.22,7.64-4.87,7.83-19.45,44.52-32.93,47.97-19.28,4.94-63.95,6.87-63.95,6.87l13.76-76.82,18.25-10.8Z"/>
  <path class="cls-3" d="M347.11,813.43c-.4.58-.87,1.1-1.4,1.57-.96.94-2.41,2.27-4.24,3.81-9.64,8.08-20.5,14.59-32.18,19.28-2.24.89-4.07,1.54-5.35,1.95-.65.27-1.34.44-2.05.51,2.29-1.24,4.64-2.33,7.06-3.28,11.37-5.16,22.1-11.63,31.96-19.28,1.97-1.65,4.04-3.17,6.19-4.56Z"/>
  <path class="cls-3" d="M346.48,835.08c-1.01,2-2.3,3.85-3.83,5.5-7.06,8.34-16.21,14.64-26.51,18.27-2.08.85-4.27,1.41-6.51,1.66,2.02-.92,4.08-1.73,6.19-2.41,9.91-4.01,18.81-10.17,26.06-18.03,1.45-1.74,2.98-3.41,4.6-4.99Z"/>
</svg>
