<?xml version="1.0" encoding="UTF-8"?>
<svg id="Layer_1" data-name="Layer 1" xmlns="http://www.w3.org/2000/svg" viewBox="0 0 1000 1000">
  <defs>
    <style>
      .cls-1, .cls-2, .cls-3, .cls-4, .cls-5, .cls-6, .cls-7, .cls-8, .cls-9, .cls-10, .cls-11, .cls-12 {
        stroke-width: 0px;
      }

      .cls-1, .cls-10, .cls-11 {
        fill: #000;
      }

      .cls-2 {
        fill: #e0e0e0;
      }

      .cls-3 {
        fill: #eb996e;
      }

      .cls-4 {
        fill: #455a64;
      }

      .cls-5 {
        fill: #f5f5f5;
      }

      .cls-6 {
        fill: #09f;
      }

      .cls-7 {
        fill: #ffbe9d;
      }

      .cls-8 {
        fill: #ebebeb;
      }

      .cls-9 {
        fill: #263238;
      }

      .cls-13, .cls-10 {
        opacity: .3;
      }

      .cls-10, .cls-11 {
        isolation: isolate;
      }

      .cls-11, .cls-14 {
        opacity: .4;
      }

      .cls-15 {
        opacity: .6;
      }

      .cls-12 {
        fill: #fff;
      }
    </style>
  </defs>
  <path class="cls-8" d="M36.37,351.42s-13.09,5.29,2.1,33.11c15.19,27.82,25.45,41.5,25.45,41.5,0,0,2.71,6.47-2.77,7.63-5.48,1.15-17.65-.46-19.92,6.3-2.27,6.77,2.88,13.51,13.32,19.04,10.44,5.52,32.86,18.43,34.9,19.6,2.04,1.18,4.01,4.2.42,5.55-3.59,1.35-30.8,4.94-28.35,17.73,2.46,12.8,34.06,23.41,37.51,24.63,3.45,1.22,4.2,2.65,4.06,4.52-.15,1.87-9.5,2.21-17.19,3.53-7.69,1.32-16.39,4.2-14.35,11.49,2.04,7.29,21.01,22.17,66.17,25.4l21.01.15,10.99-18.05c21.01-40.05,18.51-64.03,13.41-69.59-5.11-5.57-12.12.27-17.34,6.11-5.21,5.84-10.36,13.49-12.08,12.61-1.72-.88-2.46-2.27-1.68-5.84.78-3.57,8.41-36-1.05-44.86-9.46-8.87-26.98,12.36-30.07,14.71-3.09,2.35-4.54-.99-4.48-3.3.06-2.31.97-28.22,1.81-39.92.84-11.71-1.87-19.65-9.1-21.37-7.23-1.72-12.04,9.52-15.93,13.55-3.89,4.04-7.94-1.7-7.94-1.7,0,0-6.24-15.93-21.85-43.45-15.61-27.53-27.32-18.91-27.32-18.91"/>
  <path class="cls-2" d="M159.86,576.54c-11.37-20.26-31.01-56.61-48.01-87.73-17-31.12-32.44-59.26-43.73-79.57-5.63-10.15-10.21-18.34-13.38-24.06l-3.66-6.54-.92-1.7c-.21-.4-.29-.61-.29-.61l.36.57.99,1.68,3.74,6.47c3.24,5.63,7.88,13.83,13.55,23.95,11.39,20.26,26.88,48.33,43.9,79.49,17.02,31.16,36.6,67.51,47.95,87.92"/>
  <path class="cls-2" d="M58.08,442.95c.5.07.99.2,1.47.38.95.28,2.29.72,3.95,1.26,3.3,1.13,7.84,2.79,12.8,4.71l12.61,4.98,3.85,1.47c.49.16.96.36,1.41.61-.51-.06-1.01-.18-1.49-.36-.92-.29-2.27-.72-3.93-1.3-3.3-1.16-7.82-2.86-12.78-4.79l-12.73-4.88-3.87-1.47c-.45-.15-.88-.35-1.28-.61Z"/>
  <path class="cls-2" d="M95.65,454.97c-.17,0,2.86-9.56,6.75-21.2,3.89-11.64,7.17-21.01,7.33-21.01s-2.84,9.56-6.72,21.22c-3.89,11.66-7.17,21.06-7.35,20.99Z"/>
  <path class="cls-2" d="M119.63,503.92c.22-.47.5-.91.82-1.33l2.4-3.47c2.1-2.92,4.81-7,7.71-11.58,2.9-4.58,5.4-8.83,7.17-11.91l2.1-3.66c.23-.47.51-.9.84-1.3-.17.49-.38.96-.63,1.41-.42.9-1.09,2.1-1.93,3.76-1.66,3.15-4.2,7.44-7.02,12.04-2.82,4.6-5.76,8.66-7.88,11.52-1.05,1.43-1.93,2.58-2.56,3.36-.29.42-.63.81-1.01,1.16Z"/>
  <path class="cls-2" d="M83.25,500.54c.47-.05.95-.05,1.43,0l3.89.21c3.3.19,7.84.53,12.84.92,5,.4,9.54.8,12.82,1.11l3.89.42c.48.02.95.1,1.41.23-.47.08-.96.08-1.43,0l-3.89-.21c-3.3-.21-7.84-.53-12.84-.92-5-.4-9.54-.8-12.82-1.13l-3.85-.4c-.49-.02-.98-.1-1.45-.23Z"/>
  <path class="cls-2" d="M98.91,546.46c.62-.05,1.23-.05,1.85,0l4.98.25c4.2.25,10.04.61,16.47,1.07,6.43.46,12.23.9,16.43,1.24l4.98.46c.62.03,1.23.12,1.83.25-.61.05-1.22.05-1.83,0l-5-.25c-4.2-.23-10.04-.61-16.45-1.05-6.41-.44-12.25-.9-16.45-1.26l-4.98-.44c-.62-.03-1.23-.12-1.83-.27Z"/>
  <path class="cls-2" d="M144.36,549.35c.27-.6.6-1.17.99-1.7.76-1.15,1.72-2.69,2.9-4.52,2.44-3.8,5.76-9.08,9.29-15s6.58-11.37,8.76-15.32c1.05-1.91,1.93-3.49,2.61-4.68.28-.6.62-1.17,1.01-1.7-.21.62-.48,1.23-.8,1.81-.55,1.13-1.37,2.77-2.4,4.79-2.1,4.01-5.08,9.5-8.62,15.44-3.53,5.95-6.93,11.18-9.48,14.92-1.26,1.87-2.31,3.38-3.05,4.41-.37.55-.78,1.07-1.22,1.55Z"/>
  <path class="cls-5" d="M602.3,314.01c-33.16-28.93-36.29-76.32-30.36-117.99.99-6.96,1.01-14.39,5-20.17,3.99-5.78,12.17-9.12,18.11-5.51,4.92,3,6.51,9.29,8.89,14.58,3.16,7.07,8.26,13.1,14.71,17.4,4.2,2.77,9.54,4.79,14.18,2.84,6.3-2.67,7.98-10.91,8.7-17.86,1.3-12.94,2.61-25.89,3.93-38.83.71-6.96,1.45-14.04,4.33-20.4,2.88-6.37,8.3-11.96,15.09-13.09,6.79-1.13,14.56,3.55,15.23,10.51-.06,2.9-.3,5.79-.74,8.66-.13,2.92.88,6.3,3.53,7.33s5.67-.55,7.96-2.35c7.92-6.3,13.76-14.71,19.27-23.24,5.5-8.53,10.91-17.21,18.24-24.14,7.33-6.93,16.98-12.04,26.98-11.54,10,.5,19.92,7.8,21.39,17.82,1.47,10.02-5.32,19.37-12.37,26.62-10.49,10.77-22.48,19.97-35.6,27.32-2.51,1.05-4.62,2.88-6.01,5.21-2.1,4.48,1.87,9.54,6.31,11.56,5,2.27,10.67,2.35,16.01,3.57,5.34,1.22,10.95,4.2,12.44,9.56,2.1,7.42-4.65,14.2-11.01,18.45-12.75,8.49-26.87,14.73-41.73,18.45-5.32,1.32-10.86,2.37-15.36,5.53-4.5,3.15-7.67,9.1-5.72,14.27,1.95,5.17,8.17,7.42,13.64,7,5.46-.42,10.5-2.79,15.86-4.2,9.92-2.56,22.17-.59,27.32,8.41,3.43,5.86,2.96,13.45.25,19.69-3.02,6.11-7.23,11.55-12.38,16.01-17.08,16.52-38.24,28.23-61.31,33.91-22.97,5.29-43.69,5.15-64.82-5.25"/>
  <path class="cls-2" d="M615.92,288.97c9.4-22.03,20.06-43.51,31.92-64.32l9.23-16.43c3.05-5.38,6.07-10.72,9.33-15.76,6.31-9.66,13.14-18.97,20.47-27.88,6.96-8.57,13.85-16.43,20.34-23.74,6.49-7.31,12.73-13.97,18.66-19.84,9.29-9.28,19.3-17.81,29.94-25.51,3.76-2.73,6.75-4.75,8.78-6.09l2.33-1.51c.26-.18.53-.33.82-.46l-.76.59-2.25,1.62c-2,1.41-4.94,3.49-8.64,6.3-10.5,7.84-20.39,16.45-29.61,25.76-5.86,5.88-12.02,12.61-18.49,19.92-6.47,7.31-13.32,15.21-20.21,23.77-7.27,8.9-14.06,18.19-20.32,27.82-3.26,5.02-6.3,10.32-9.29,15.72l-9.22,16.41c-11.84,20.77-22.5,42.19-31.94,64.15"/>
  <path class="cls-2" d="M666.75,192.44c-.23-.99-.35-2.01-.36-3.03-.17-1.95-.29-4.79-.42-8.3-.23-7.02-.23-16.81-.17-27.42.06-10.61-.1-20.38-.44-27.32-.17-3.49-.31-6.3-.46-8.28-.11-1.01-.11-2.03,0-3.05.32.97.51,1.98.57,3,.29,1.93.59,4.77.86,8.26.59,7.02.86,16.81.82,27.44-.04,10.63-.15,20.11-.19,27.32v8.41c.02.99-.04,1.98-.21,2.96Z"/>
  <path class="cls-2" d="M757.82,185.38c-1.19.13-2.4.13-3.59,0-2.31,0-5.67-.13-9.79,0-8.28,0-19.71.4-32.3,1.41-12.59,1.01-23.93,2.42-32.11,3.68-4.1.59-7.4,1.16-9.69,1.55-1.17.28-2.37.43-3.57.46,1.13-.43,2.3-.75,3.49-.97,2.25-.53,5.55-1.24,9.62-1.98,8.17-1.47,19.54-3.03,32.17-4.06,10.77-.89,21.58-1.23,32.38-1.03,4.2,0,7.5.32,9.81.5,1.2.03,2.4.17,3.57.42Z"/>
  <path class="cls-2" d="M617.2,287.43c-.22-.36-.39-.75-.5-1.16-.31-.9-.69-2.1-1.18-3.38-1.01-2.96-2.35-7.27-3.95-12.61-3.21-10.7-7.16-25.59-11.3-42.03s-7.98-31.52-10.95-42.17c-1.47-5.21-2.67-9.52-3.57-12.61l-.95-3.66c-.14-.39-.23-.8-.25-1.22.22.36.39.75.51,1.16.31.9.69,2.1,1.18,3.38,1.01,2.94,2.35,7.27,3.95,12.61,3.22,10.7,7.16,25.59,11.33,42.03,4.16,16.43,7.96,31.41,10.93,42.17,1.47,5.21,2.67,9.52,3.57,12.61l.95,3.47c.16.45.24.93.25,1.41Z"/>
  <path class="cls-2" d="M739.94,261.99c-.4.17-.81.29-1.24.36l-3.57.8-13.13,2.73c-11.11,2.33-26.39,5.72-43.28,9.48-16.89,3.76-32.23,7-43.39,9.1-5.57,1.05-10.09,1.85-13.21,2.33l-3.61.55c-.42.1-.85.14-1.28.1.4-.17.81-.29,1.24-.36l3.55-.78,13.16-2.75c11.09-2.31,26.39-5.69,43.28-9.48,16.89-3.78,32.23-7,43.37-9.1,5.59-1.05,10.11-1.85,13.24-2.33l3.61-.55c.42-.09.85-.12,1.28-.11Z"/>
  <path class="cls-5" d="M815.29,401.26h120.3s-10.65-19.35-41.6-16.54c-29.56,2.69-31.08-9.52-46.1-11.03-15.02-1.51-27.57,10.02-32.59,27.57Z"/>
  <path class="cls-8" d="M94.33,120.45h184.59s-16.33-29.73-63.94-25.4c-45.37,4.2-47.68-14.71-70.75-16.94-23.07-2.23-42.21,15.38-49.9,42.34Z"/>
  <path class="cls-8" d="M818.9,833.74h149.97s-13.26-24.73-51.86-21.01c-36.88,3.42-38.75-12.17-57.49-14.08-18.74-1.91-34.38,12.69-40.62,35.09Z"/>
  <path class="cls-5" d="M191.22,182.87h94.7s-8.41-15.23-32.76-13.01c-23.28,2.1-24.46-7.5-36.29-8.68-11.83-1.18-21.71,7.88-25.66,21.69Z"/>
  <path class="cls-5" d="M771.56,874.44h94.68s-8.41-15.23-32.76-13.03c-23.26,2.1-24.46-7.5-36.29-8.68-11.83-1.18-21.71,7.9-25.64,21.71Z"/>
  <path class="cls-6" d="M831.8,618.89c-.5-1.71-.66-3.5-.46-5.27-.15-1.77.06-3.55.61-5.23.53,1.7.69,3.49.48,5.25.16,1.78-.06,3.57-.63,5.25Z"/>
  <path class="cls-6" d="M830.65,639.86c-.48-3.52-.22-7.1.76-10.51.49,3.52.23,7.1-.76,10.51Z"/>
  <path class="cls-6" d="M828.15,660.72c-.31-1.75-.26-3.55.15-5.27.06-1.78.48-3.53,1.22-5.15.33,1.75.28,3.56-.15,5.29-.06,1.77-.47,3.52-1.22,5.13Z"/>
  <path class="cls-6" d="M824.47,681.48c-.2-1.77-.04-3.57.46-5.27.16-1.77.68-3.48,1.53-5.04.2,1.76.04,3.55-.46,5.25-.16,1.78-.68,3.5-1.54,5.06Z"/>
  <path class="cls-6" d="M819.6,701.84c.14-3.53,1.02-7,2.58-10.17-.14,3.53-1.02,7-2.58,10.17Z"/>
  <path class="cls-6" d="M813.5,721.95c0-1.78.36-3.54,1.07-5.17.36-1.74,1.08-3.38,2.1-4.83,0,1.78-.36,3.54-1.07,5.17-.35,1.74-1.07,3.39-2.1,4.83Z"/>
  <path class="cls-6" d="M806.23,741.66c.11-1.77.58-3.5,1.38-5.08.46-1.72,1.27-3.32,2.4-4.71-.12,1.78-.59,3.51-1.39,5.11-.47,1.71-1.28,3.3-2.39,4.68Z"/>
  <path class="cls-6" d="M797.81,760.91c.22-1.76.79-3.46,1.68-5,.58-1.68,1.49-3.23,2.67-4.56-.21,1.77-.78,3.48-1.68,5.02-.57,1.68-1.48,3.22-2.67,4.54Z"/>
  <path class="cls-6" d="M788.24,779.63c.33-1.74,1.01-3.41,1.98-4.9,1.37-2.56,2.67-4.54,2.94-4.39-.31,1.75-.99,3.42-1.97,4.9-1.35,2.56-2.56,4.54-2.94,4.39Z"/>
  <path class="cls-6" d="M777.61,797.74c.42-1.73,1.2-3.35,2.27-4.77,1.49-2.48,2.92-4.37,3.19-4.2-.43,1.72-1.2,3.35-2.27,4.77-1.51,2.48-2.94,4.37-3.19,4.2Z"/>
  <path class="cls-6" d="M765.93,815.21c.54-1.7,1.4-3.28,2.54-4.65,1.64-2.37,3.17-4.2,3.43-3.99-.52,1.69-1.38,3.27-2.52,4.62-1.66,2.4-3.19,4.18-3.45,4.01Z"/>
  <path class="cls-6" d="M753.26,831.95c.61-1.67,1.57-3.19,2.79-4.48,1.79-2.29,3.42-3.99,3.66-3.8.23.19-1.01,2.1-2.79,4.48-1.79,2.37-3.43,3.99-3.66,3.8Z"/>
  <path class="cls-6" d="M739.62,847.92c-.23-.21,1.13-2.1,3.05-4.2,1.91-2.1,3.66-3.78,3.89-3.59.23.19-1.13,2.1-3.07,4.31-1.93,2.2-3.66,3.68-3.87,3.49Z"/>
  <path class="cls-6" d="M725.06,863.05c-.21-.21,1.26-2.1,3.3-4.2,2.04-2.1,3.87-3.55,4.1-3.34.23.21-1.26,2.1-3.32,4.2-2.06,2.1-3.86,3.55-4.08,3.34Z"/>
  <path class="cls-6" d="M709.66,877.32c-.21-.23,1.39-1.97,3.53-3.91,2.14-1.93,4.08-3.34,4.2-3.11.13.23-1.37,1.97-3.53,3.91-2.16,1.93-4.01,3.34-4.2,3.11Z"/>
  <path class="cls-6" d="M693.44,890.66c-.19-.25,1.49-1.89,3.76-3.7,1.27-1.24,2.78-2.21,4.43-2.86.21.23-1.49,1.89-3.76,3.7-1.27,1.25-2.78,2.22-4.43,2.86Z"/>
  <path class="cls-6" d="M676.46,903.02c-.17-.25,1.62-1.81,3.97-3.47,1.34-1.17,2.91-2.05,4.6-2.59.19.25-1.6,1.81-3.97,3.47-1.34,1.17-2.91,2.05-4.6,2.58Z"/>
  <path class="cls-6" d="M658.81,914.36c-.17-.25,1.7-1.7,4.2-3.24,1.41-1.08,3.03-1.86,4.75-2.31.17.27-1.7,1.7-4.2,3.24-1.41,1.09-3.02,1.88-4.75,2.31Z"/>
  <path class="cls-6" d="M640.5,924.66c-.15-.27,1.81-1.6,4.35-2.98,1.46-1.04,3.12-1.75,4.88-2.1-1.24,1.27-2.72,2.29-4.35,2.99-1.46,1.03-3.12,1.74-4.88,2.1Z"/>
  <path class="cls-6" d="M621.62,933.84c1.31-1.2,2.84-2.12,4.52-2.71,1.53-.92,3.23-1.51,5-1.74-1.31,1.21-2.86,2.14-4.54,2.73-1.52.91-3.22,1.5-4.98,1.72Z"/>
  <path class="cls-6" d="M602.22,941.91c1.38-1.13,2.97-1.97,4.68-2.46,1.58-.82,3.31-1.3,5.09-1.43-1.38,1.12-2.98,1.95-4.68,2.46-1.58.81-3.31,1.3-5.09,1.43Z"/>
  <path class="cls-6" d="M582.39,948.8c1.44-1.02,3.08-1.73,4.81-2.1,1.62-.74,3.38-1.13,5.17-1.13-3.06,1.78-6.46,2.9-9.98,3.3v-.06Z"/>
  <path class="cls-6" d="M562.19,954.52c1.49-.96,3.17-1.6,4.92-1.89,1.67-.62,3.45-.9,5.23-.82-1.51.95-3.18,1.6-4.94,1.89-1.66.62-3.44.9-5.21.82Z"/>
  <path class="cls-6" d="M541.66,959.02c1.56-.86,3.27-1.39,5.04-1.58,1.7-.53,3.49-.71,5.25-.53-1.55.87-3.27,1.41-5.04,1.6-1.7.52-3.49.69-5.25.51Z"/>
  <path class="cls-6" d="M520.92,962.29c1.58-.77,3.29-1.23,5.04-1.34,1.73-.42,3.52-.49,5.27-.21-3.32,1.23-6.87,1.74-10.4,1.49l.08.06Z"/>
  <path class="cls-6" d="M500.01,964.35c1.65-.67,3.41-1.01,5.19-.99,1.75-.32,3.55-.28,5.27.13-1.65.67-3.41,1-5.19.97-1.75.34-3.54.3-5.27-.1Z"/>
  <path class="cls-6" d="M479.02,965.15c1.68-.59,3.46-.82,5.23-.67,1.77-.22,3.56-.09,5.27.4-1.68.59-3.47.83-5.25.69-1.76.21-3.55.07-5.25-.42Z"/>
  <path class="cls-6" d="M458.01,964.82c1.71-.5,3.51-.63,5.27-.38,1.77-.12,3.55.12,5.23.71-3.49.62-7.07.5-10.51-.34Z"/>
  <path class="cls-6" d="M437.06,963.2c1.74-.35,3.53-.35,5.27,0,1.78-.01,3.55.34,5.19,1.03-1.75.36-3.55.36-5.3,0-1.77.02-3.54-.33-5.17-1.03Z"/>
  <path class="cls-6" d="M416.24,960.38c3.53-.22,7.07.31,10.38,1.56-1.76.29-3.55.21-5.27-.23-1.77-.09-3.51-.54-5.11-1.33Z"/>
  <path class="cls-6" d="M395.69,956.33c1.77-.17,3.56.01,5.25.55,1.77.19,3.48.75,5.02,1.64-3.53,0-7.03-.71-10.27-2.1v-.08Z"/>
  <path class="cls-6" d="M375.28,951.05c3.54.21,6.99,1.16,10.13,2.79-1.78.07-3.55-.23-5.21-.86-1.75-.3-3.43-.96-4.92-1.93Z"/>
  <path class="cls-6" d="M355.28,944.6c1.78.02,3.53.42,5.15,1.15,1.73.42,3.36,1.17,4.81,2.21-1.78-.02-3.53-.42-5.15-1.16-1.73-.41-3.37-1.16-4.81-2.2Z"/>
  <path class="cls-6" d="M335.72,936.95c1.77.14,3.49.64,5.06,1.47,1.71.5,3.3,1.35,4.67,2.5-3.49-.63-6.8-1.98-9.73-3.97Z"/>
  <path class="cls-6" d="M316.64,928.17c3.44.85,6.66,2.39,9.48,4.54-1.76-.25-3.46-.85-4.98-1.76-2.63-1.26-4.65-2.5-4.5-2.77Z"/>
  <path class="cls-6" d="M298.11,918.27c1.74.37,3.39,1.09,4.85,2.1,1.63.7,3.11,1.72,4.33,3.01-1.74-.36-3.4-1.07-4.85-2.1-2.54-1.39-4.47-2.73-4.33-3.01Z"/>
  <path class="cls-6" d="M280.12,907.3c1.72.45,3.33,1.25,4.73,2.35,2.46,1.56,4.31,3.01,4.2,3.28-1.72-.47-3.33-1.29-4.73-2.42-2.44-1.49-4.2-2.96-4.2-3.22Z"/>
  <path class="cls-6" d="M262.95,895.31c1.68.56,3.23,1.44,4.56,2.61,2.35,1.68,4.2,3.26,3.95,3.51-1.69-.55-3.25-1.45-4.58-2.63-2.35-1.68-4.12-3.24-3.93-3.49Z"/>
  <path class="cls-6" d="M246.5,882.32c1.66.64,3.17,1.62,4.43,2.88,2.25,1.83,3.91,3.51,3.74,3.74-1.66-.65-3.17-1.63-4.43-2.88-2.31-1.83-3.99-3.51-3.74-3.74Z"/>
  <path class="cls-6" d="M230.72,868.49c1.6.75,3.03,1.82,4.2,3.13,2.1,1.95,3.7,3.72,3.51,3.95-.19.23-2.1-1.17-4.2-3.13-2.1-1.95-3.7-3.85-3.51-3.95Z"/>
  <path class="cls-6" d="M215.86,853.55c1.56.86,2.93,2,4.06,3.38,2.1,2.1,3.49,3.93,3.26,4.2-.23.27-2.1-1.28-4.06-3.36-1.95-2.08-3.49-3.99-3.26-4.22Z"/>
  <path class="cls-6" d="M201.87,837.9c.25-.21,1.98,1.41,3.87,3.59,1.28,1.23,2.3,2.7,3.03,4.33-.23.21-1.95-1.41-3.87-3.59-1.91-2.19-3.26-4.14-3.03-4.33Z"/>
  <path class="cls-6" d="M188.84,821.43c.25-.17,1.87,1.53,3.64,3.85,1.22,1.3,2.16,2.83,2.77,4.5-.25.17-1.87-1.53-3.64-3.85-1.77-2.31-3.03-4.31-2.77-4.5Z"/>
  <path class="cls-6" d="M176.8,804.24c.25-.17,1.77,1.64,3.38,4.04,1.15,1.36,2,2.94,2.5,4.64-.23.19-1.76-1.62-3.4-4.03-1.13-1.36-1.98-2.94-2.48-4.65Z"/>
  <path class="cls-6" d="M165.77,786.36c.27-.15,1.68,1.74,3.17,4.2,1.01,1.44,1.73,3.07,2.1,4.79-.25.15-1.66-1.74-3.15-4.2-1.03-1.44-1.75-3.07-2.12-4.79Z"/>
  <path class="cls-6" d="M155.83,767.89c.27-.15,1.58,1.83,2.9,4.39.97,1.49,1.63,3.16,1.93,4.92-.27.15-1.58-1.83-2.9-4.41-.98-1.48-1.63-3.15-1.93-4.9Z"/>
  <path class="cls-6" d="M146.98,748.83c2.05,2.87,3.48,6.13,4.2,9.58-.27.15-1.47-1.91-2.65-4.56-.85-1.55-1.38-3.26-1.55-5.02Z"/>
  <path class="cls-6" d="M139.34,729.29c1.07,1.41,1.86,3.02,2.31,4.73.79,1.6,1.24,3.33,1.34,5.11-1.1-1.4-1.9-3.01-2.35-4.73-.79-1.59-1.23-3.33-1.3-5.11Z"/>
  <path class="cls-6" d="M132.76,709.32c1.02,1.46,1.73,3.11,2.1,4.85.7,1.64,1.05,3.41,1.03,5.19-1.02-1.46-1.73-3.11-2.1-4.85-.7-1.64-1.05-3.41-1.03-5.19Z"/>
  <path class="cls-6" d="M127.42,689.03c.95,1.51,1.56,3.2,1.81,4.96.6,1.68.84,3.46.71,5.23-.93-1.51-1.54-3.2-1.79-4.96-.59-1.68-.84-3.46-.74-5.23Z"/>
  <path class="cls-6" d="M123.3,668.41c.84,1.58,1.35,3.31,1.49,5.09.49,1.7.64,3.49.42,5.25-.84-1.57-1.35-3.29-1.49-5.06-.49-1.71-.64-3.51-.42-5.27Z"/>
  <path class="cls-6" d="M120.42,647.61c.75,1.61,1.16,3.37,1.2,5.15.36,1.74.36,3.53,0,5.27-1.17-3.37-1.62-6.95-1.3-10.51l.11.08Z"/>
  <path class="cls-6" d="M118.74,626.68c.64,1.65.94,3.42.88,5.19.3,1.76.23,3.56-.21,5.29-.64-1.66-.94-3.43-.88-5.21-.29-1.75-.22-3.55.21-5.27Z"/>
  <path class="cls-6" d="M118.32,605.67c.53,1.7.73,3.48.57,5.25.2,1.76.03,3.55-.48,5.25-.55-1.69-.75-3.48-.61-5.25-.2-1.77-.02-3.56.53-5.25Z"/>
  <path class="cls-6" d="M119.06,584.68c.44,1.72.54,3.52.27,5.27.09,1.77-.19,3.55-.82,5.21-.44-1.72-.53-3.52-.27-5.27-.1-1.78.18-3.55.82-5.21Z"/>
  <path class="cls-6" d="M121.03,563.81c.37,1.74.37,3.54,0,5.27-.02,1.78-.4,3.54-1.11,5.17-.36-3.54.02-7.12,1.13-10.51l-.02.06Z"/>
  <path class="cls-6" d="M124.25,542.99c.26,1.76.14,3.56-.34,5.27-.12,1.76-.59,3.47-1.39,5.04-.26-1.76-.14-3.56.34-5.27.12-1.76.59-3.47,1.39-5.04Z"/>
  <path class="cls-6" d="M128.7,522.44c-.07,3.55-.88,7.04-2.37,10.25-.14-1.78.08-3.57.65-5.25.23-1.77.81-3.47,1.72-5Z"/>
  <path class="cls-6" d="M134.33,502.21c-.29,3.53-1.3,6.96-2.96,10.09-.05-1.78.27-3.55.95-5.19.34-1.75,1.02-3.42,2.02-4.9Z"/>
  <path class="cls-6" d="M141.16,482.35c-.06,1.78-.49,3.53-1.26,5.13-.44,1.72-1.22,3.33-2.29,4.75.06-1.78.49-3.53,1.26-5.13.44-1.72,1.22-3.33,2.29-4.75Z"/>
  <path class="cls-6" d="M149.17,462.95c-.17,1.77-.7,3.48-1.55,5.04-.55,1.7-1.43,3.27-2.58,4.62.17-1.77.71-3.49,1.58-5.04.52-1.7,1.4-3.28,2.56-4.62Z"/>
  <path class="cls-6" d="M158.25,444.04c-.91,3.42-2.51,6.62-4.71,9.39.28-1.76.91-3.44,1.87-4.94,1.37-2.65,2.63-4.64,2.84-4.45Z"/>
  <path class="cls-6" d="M168.54,425.65c-.35,1.73-1.07,3.37-2.1,4.81-1.45,2.5-2.84,4.43-3.11,4.2.38-1.73,1.09-3.37,2.1-4.83,1.47-2.44,2.86-4.35,3.11-4.18Z"/>
  <path class="cls-6" d="M179.85,407.94c-.48,1.71-1.31,3.31-2.44,4.69-1.6,2.42-3.09,4.2-3.34,4.08.49-1.71,1.32-3.3,2.44-4.68,1.6-2.42,3.09-4.25,3.34-4.08Z"/>
  <path class="cls-6" d="M192.16,390.92c-.57,1.68-1.49,3.23-2.69,4.54-1.74,2.31-3.34,4.06-3.59,3.89-.25-.17.97-2.1,2.71-4.54,1.74-2.44,3.28-4.08,3.57-3.89Z"/>
  <path class="cls-6" d="M205.46,374.7c.23.21-1.11,2.1-2.96,4.37-1.85,2.27-3.57,3.86-3.8,3.68-.23-.19,1.09-2.1,2.96-4.37,1.87-2.27,3.57-3.91,3.8-3.68Z"/>
  <path class="cls-6" d="M219.67,359.21c.23.21-1.22,2.1-3.21,4.2-2,2.1-3.78,3.63-3.99,3.45-.21-.19,1.22-2.1,3.21-4.2,2-2.1,3.78-3.66,3.99-3.45Z"/>
  <path class="cls-6" d="M234.77,344.61c.21.23-1.34,2.1-3.45,3.99-2.1,1.89-3.99,3.4-4.2,3.19-.21-.21,1.32-2,3.45-3.99,2.12-2,3.99-3.43,4.2-3.2Z"/>
  <path class="cls-6" d="M250.7,330.93c.19.23-1.47,1.93-3.68,3.78-1.25,1.27-2.75,2.27-4.39,2.94-.19-.23,1.45-1.93,3.68-3.78,1.24-1.27,2.74-2.27,4.39-2.94Z"/>
  <path class="cls-6" d="M267.39,318.2c.19.25-1.55,1.83-3.89,3.55-1.32,1.19-2.86,2.1-4.54,2.69-.19-.23,1.56-1.83,3.89-3.57,1.31-1.19,2.86-2.1,4.54-2.67Z"/>
  <path class="cls-6" d="M284.8,306.47c.17.25-1.68,1.74-4.1,3.32-1.38,1.11-2.98,1.93-4.68,2.42-.17-.25,1.66-1.74,4.1-3.34,1.37-1.12,2.97-1.94,4.68-2.4Z"/>
  <path class="cls-6" d="M302.88,295.78c.15.27-1.76,1.64-4.2,3.09-1.45,1.02-3.1,1.73-4.83,2.1,1.18-1.3,2.61-2.35,4.2-3.09,1.45-1.02,3.09-1.74,4.83-2.1Z"/>
  <path class="cls-6" d="M321.56,286.17c-1.28,1.23-2.79,2.19-4.45,2.82-1.51.95-3.19,1.59-4.96,1.85,1.28-1.23,2.79-2.19,4.45-2.81,1.51-.95,3.2-1.58,4.96-1.85Z"/>
  <path class="cls-6" d="M340.76,277.68c-1.35,1.16-2.92,2.04-4.62,2.56-1.55.86-3.27,1.38-5.04,1.53,1.35-1.15,2.92-2.02,4.62-2.54,1.56-.85,3.28-1.38,5.04-1.55Z"/>
  <path class="cls-6" d="M360.43,270.35c-1.4,1.09-3.02,1.87-4.75,2.29-1.61.75-3.35,1.17-5.13,1.24,1.41-1.08,3.02-1.85,4.75-2.27,1.61-.76,3.35-1.19,5.13-1.26Z"/>
  <path class="cls-6" d="M380.52,264.22c-1.48.98-3.15,1.66-4.9,1.98-1.65.67-3.41.99-5.19.95,3.12-1.67,6.56-2.67,10.09-2.92Z"/>
  <path class="cls-6" d="M400.92,259.26c-3.21,1.48-6.7,2.28-10.23,2.33,1.53-.91,3.23-1.49,5-1.7,1.68-.57,3.46-.78,5.23-.63Z"/>
  <path class="cls-6" d="M421.6,255.52c-3.3,1.29-6.83,1.88-10.36,1.72,1.58-.81,3.31-1.29,5.09-1.41,1.72-.45,3.51-.56,5.27-.32Z"/>
  <path class="cls-6" d="M442.46,253.02c-3.39,1.1-6.97,1.47-10.51,1.09,1.63-.71,3.39-1.08,5.17-1.09,1.76-.38,3.58-.38,5.34,0Z"/>
  <path class="cls-6" d="M463.43,251.71c-1.67.63-3.45.91-5.23.8-1.76.25-3.55.15-5.27-.29,1.67-.63,3.45-.91,5.23-.8,1.76-.25,3.55-.15,5.27.29Z"/>
  <path class="cls-6" d="M484.42,251.65c-1.7.52-3.49.68-5.25.48-1.77.15-3.56-.06-5.25-.61,3.47-.69,7.05-.64,10.51.13Z"/>
  <path class="cls-6" d="M505.42,252.83c-3.52.47-7.09.22-10.51-.74,1.73-.41,3.52-.48,5.27-.19,1.79-.06,3.57.26,5.23.92Z"/>
  <path class="cls-6" d="M526.3,255.18c-1.76.31-3.56.26-5.3-.13-1.77-.06-3.52-.47-5.13-1.22,3.56-.3,7.14.16,10.51,1.34h-.08Z"/>
  <path class="cls-6" d="M546.98,258.77c-3.54.07-7.06-.59-10.34-1.95,1.77-.21,3.57-.06,5.27.44,1.77.16,3.5.67,5.06,1.51Z"/>
  <path class="cls-6" d="M567.44,263.58c-3.54-.12-7.02-.99-10.19-2.56,3.54.14,7.01,1.02,10.19,2.56Z"/>
  <path class="cls-6" d="M587.58,269.64c-3.53-.34-6.94-1.42-10.02-3.17,1.77.01,3.52.38,5.15,1.07,1.75.35,3.41,1.07,4.88,2.1Z"/>
  <path class="cls-6" d="M607.31,276.82c-1.78-.11-3.51-.58-5.11-1.37-1.72-.47-3.32-1.28-4.71-2.4,1.78.11,3.51.58,5.11,1.37,1.72.46,3.32,1.28,4.71,2.4Z"/>
  <path class="cls-6" d="M626.57,285.19c-1.76-.22-3.46-.78-5-1.66-1.69-.57-3.24-1.48-4.56-2.67,1.76.21,3.46.77,5,1.66,2.71,1.2,4.81,2.4,4.56,2.67Z"/>
  <path class="cls-6" d="M645.34,294.66c-1.76-.3-3.43-.97-4.92-1.95-2.56-1.35-4.54-2.65-4.39-2.92,1.75.31,3.41.98,4.9,1.95,1.65.67,3.15,1.66,4.41,2.92Z"/>
  <path class="cls-6" d="M663.47,305.23c-1.73-.4-3.35-1.16-4.77-2.23-2.48-1.49-4.37-2.92-4.2-3.19,1.73.43,3.36,1.19,4.79,2.25,2.46,1.49,4.35,2.92,4.18,3.17Z"/>
  <path class="cls-6" d="M680.98,316.87c-1.7-.53-3.28-1.38-4.65-2.52-2.37-1.64-4.2-3.17-4.01-3.42,1.7.52,3.28,1.37,4.65,2.52,2.4,1.64,4.18,3.17,4.01,3.43Z"/>
  <path class="cls-6" d="M697.76,329.5c-1.67-.63-3.2-1.58-4.5-2.79-2.27-1.79-3.99-3.4-3.8-3.66,1.66.62,3.19,1.57,4.48,2.79,2.23,1.79,4.01,3.4,3.82,3.66Z"/>
  <path class="cls-6" d="M713.78,343.18c-.21.23-2.1-1.13-4.31-3.05-2.2-1.91-3.8-3.63-3.59-3.86.21-.23,2.1,1.13,4.31,3.04,2.2,1.91,3.8,3.55,3.59,3.87Z"/>
  <path class="cls-6" d="M728.97,357.58c-.21.21-2.1-1.26-4.2-3.28-1.37-1.13-2.51-2.51-3.36-4.08.21-.21,2.1,1.26,4.2,3.3,2.1,2.04,3.57,3.85,3.36,4.06Z"/>
  <path class="cls-6" d="M743.28,372.93c-.23.21-1.97-1.37-3.93-3.51-1.95-2.14-3.34-4.06-3.11-4.2.23-.15,1.97,1.37,3.93,3.53,1.95,2.16,3.34,3.99,3.11,4.18Z"/>
  <path class="cls-6" d="M756.68,389.11c-.25.19-1.91-1.49-3.72-3.74-1.25-1.27-2.23-2.78-2.88-4.43.25-.21,1.91,1.47,3.72,3.74,1.25,1.27,2.23,2.78,2.88,4.43Z"/>
  <path class="cls-6" d="M769.1,406.05c-.25.17-1.83-1.62-3.49-3.97-1.17-1.34-2.06-2.89-2.61-4.58.25-.19,1.81,1.58,3.49,3.95,1.16,1.35,2.05,2.91,2.61,4.6Z"/>
  <path class="cls-6" d="M780.49,423.68c-.25.15-1.7-1.72-3.24-4.2-1.09-1.41-1.88-3.02-2.33-4.75.25-.17,1.72,1.7,3.26,4.2,1.1,1.4,1.89,3.02,2.31,4.75Z"/>
  <path class="cls-6" d="M790.85,441.94c-.27.15-1.62-1.81-3.01-4.35-1.02-1.46-1.73-3.11-2.1-4.85.27-.15,1.62,1.79,3.01,4.33,1.03,1.46,1.74,3.12,2.1,4.88Z"/>
  <path class="cls-6" d="M800.1,460.85c-1.21-1.31-2.14-2.84-2.73-4.52-.92-1.52-1.51-3.22-1.74-4.98,1.21,1.31,2.14,2.84,2.73,4.52.93,1.52,1.52,3.22,1.74,4.98Z"/>
  <path class="cls-6" d="M808.23,480.14c-1.13-1.37-1.97-2.96-2.46-4.66-.84-1.57-1.33-3.29-1.45-5.06,1.12,1.37,1.96,2.96,2.46,4.66.83,1.57,1.33,3.3,1.45,5.06Z"/>
  <path class="cls-6" d="M815.18,499.96c-1.01-1.44-1.72-3.07-2.1-4.79-.73-1.63-1.11-3.39-1.13-5.17,1.01,1.45,1.72,3.09,2.1,4.81.74,1.62,1.12,3.37,1.13,5.15Z"/>
  <path class="cls-6" d="M820.96,520.15c-1.6-3.15-2.53-6.6-2.73-10.13,1.6,3.15,2.53,6.6,2.73,10.13Z"/>
  <path class="cls-6" d="M825.54,540.7c-1.39-3.25-2.11-6.76-2.1-10.3.88,1.55,1.43,3.27,1.62,5.04.52,1.7.68,3.49.48,5.25Z"/>
  <path class="cls-6" d="M828.9,561.39c-.79-1.6-1.24-3.34-1.3-5.13-.43-1.72-.51-3.52-.23-5.27,1.23,3.36,1.76,6.93,1.53,10.51v-.11Z"/>
  <path class="cls-6" d="M831.03,582.28c-.7-1.63-1.04-3.39-1.01-5.17-.35-1.75-.35-3.55,0-5.3.69,1.64,1.04,3.41,1.01,5.19.35,1.74.35,3.54,0,5.27Z"/>
  <path class="cls-6" d="M831.93,603.27c-.6-1.67-.84-3.46-.69-5.23-.23-1.76-.1-3.54.38-5.25.6,1.67.85,3.46.72,5.23.22,1.76.09,3.55-.4,5.25Z"/>
  <path class="cls-9" d="M803.6,622.96c.19-3.76.29-7.48.32-11.22.02-3.74,0-7.86,0-11.77,0,3.91.1,7.84,0,11.77-.11,3.93-.13,7.46-.32,11.22Z"/>
  <path class="cls-6" d="M767.44,664.38c-2.1-7.69-1.72-15.76-2.73-23.64-.55-4.2-1.83-8.84-5.38-11.2-2.35-1.56-5.36-1.83-7.92-3.03-9.22-4.2-9.89-18.11-18.41-23.6-2.78-1.52-5.78-2.61-8.89-3.24-12-3.22-24.02-9.25-30.3-19.94-2.1-3.47-3.45-7.4-6.18-10.36-2.73-2.96-7.46-4.77-10.88-2.63,1.85,5.53,3.61,11.03,5.4,16.49,1.66,4.98,3.32,10.11,6.7,14.06,3.38,3.95,8.91,6.66,13.91,5.17,1.58-.79,3.35-1.13,5.11-.99,1.21.45,2.22,1.32,2.84,2.46,5.59,8.41,1.66,20.21-5.93,26.81-7.59,6.6-17.67,9.06-27.32,11.39-3.43,1.13-7.09,1.3-10.61.5-6.2-2.1-8.59-9.54-9.56-16.05-2.1-14.39-2.1-29.67-8.87-42.55-2.21-4.06-5.13-7.9-6.16-12.42-1.07-4.88.13-10.23-2.1-14.71-2.23-4.48-8.03-8.05-7.69-13.26.25-3.63,3.7-6.3,7.23-7.46,3.53-1.15,7.29-1.05,10.91-1.95,1.41-.38,3.05-1.13,3.32-2.56.29-2.1-2.56-3.47-3.05-5.59-.48-2.12,2.1-4.2,3.43-6.31,2.86-4.75-1.66-10.61-6.47-13.41-4.81-2.79-10.65-5.17-12.31-10.51-.52-2.5-.72-5.06-.59-7.61-.27-6.41-3.99-13.09-10.13-15.05-6.14-1.95-14,2.67-13.87,9.1,0,3.53,2.29,6.6,3.24,9.98.95,3.38-.13,8.09-3.57,8.64-5.65.86-9.41-9.77-14.44-7.04.93,6.62,1.83,13.22,2.75,19.86-7.63,2.58-15.19-5.19-17.15-13.05-1.95-7.86-.86-16.26-3.45-23.89-2.58-7.63-11.54-14.39-18.45-10.23-1.62,9.12,9.94,14.58,14.23,22.76,3.09,5.93,1.26,14.54-4.94,17.13-6.2,2.58-14.33-4.65-11.26-10.51,1.09-2.1,3.15-3.59,3.7-5.88.63-2.86-1.47-5.52-3.4-7.69-3.03-3.45-6.07-6.83-9.1-10.21-1.83-2.33-4.11-4.27-6.7-5.69-6.81-3.09-14.71,1.64-19.41,7.44-4.71,5.8-7.88,13.01-13.85,17.57-8.59,6.64-22.82,5.06-28.66-4.06-5.84-9.12,0-23.72,10.7-25.22,4.08-.53,8.99.29,11.55-2.86,4.5-5.61-4.68-14.92-.23-20.59,3.43-4.35,10.32-1.13,15.8-1.98,5.49-.84,9.12-5.67,12.88-9.75,3.76-4.08,9.12-7.88,14.31-5.93-.27-3.22.4-6.44,1.91-9.29,1.81-2.69,6.01-3.97,8.3-1.74-3.24,3.95-.97,10.51,3.3,13.24,4.27,2.73,9.71,3.09,14.84,3.26,5.13.17,11.72-.82,12.88-5.82.38-1.62,0-3.47.86-4.92,3.09-5.69,13.01,4.2,17.99,0,2.84-2.1.76-7.04-2.56-8.4-3.32-1.37-7.02-.61-10.51-1.01-3.49-.4-7.52-2.82-7.16-6.31.36-3.49,4.56-5.38,5.46-8.72,1.51-5.67-8.07-8.59-12.19-4.39-4.12,4.2-3.83,10.8-3.63,16.66.19,5.86-.19,12.61-5,16.09-2.2,2.48-6.68.36-7.8-2.75-1.11-3.11-.31-6.56-.1-9.86.21-3.3-.69-7.25-3.76-8.57-2.1-.95-4.65-.21-6.95-.23-9.12-.21-13.68-12.61-9.6-20.85,4.08-8.24,12.94-12.61,21.47-15.76,6.3-2.35,13.8-4.2,19.06-.25,2.46,1.89,3.95,4.73,6.31,6.66,4.2,3.34,9.9,3.17,15.09,4.01,8.2,1.47,15.64,5.74,21.06,12.06,2.1,2.44,3.66,6.31,1.49,8.53-2.17,2.23-8.05,2.1-7.52,5.42,1.45.64,3.03.97,4.62.95,1.59,0,3.16-.35,4.6-1.01,1.45-.66,2.74-1.62,3.79-2.81,1.05-1.19,1.84-2.59,2.31-4.11,1.39.9,2.52,2.15,3.28,3.63.76,1.47,1.11,3.12,1.03,4.78,1.92-1.34,4.1-2.25,6.4-2.7,2.3-.44,4.66-.4,6.94.12,2.28.52,4.43,1.51,6.3,2.91,1.88,1.4,3.44,3.17,4.59,5.21.84,2.36,2.08,4.55,3.68,6.47,1.87,1.64,5.57,1.49,6.18-.9.18-.77.18-1.56,0-2.33-.74-3.68-1.51-7.31-2.25-10.95,5.15-1.87,10.23,2.96,12.86,7.75,9.73,17.86,19.73,9.43,36.33,14.52,11.24,3.4,15.23,11.52,20.42,21.35,15.93,30.28,38.94,56.54,52.87,87.79,1.4,3.27,2.73,6.56,3.99,9.88-.19-.82-.34-1.62-.55-2.44-4.36-19.61-10.57-38.77-18.53-57.22-1.69-3.91-3.45-7.79-5.25-11.64-1.13-2.38-2.31-4.79-3.49-7.12-1.51-3.07-3.13-6.03-4.75-8.99-1.28-2.4-2.58-4.75-3.93-7.04-.92-1.62-1.89-3.21-2.88-4.83-.99-1.62-2.1-3.61-3.32-5.42l-3.59-5.63c-.36-.6-.75-1.18-1.18-1.74-1.24-1.95-2.58-3.89-3.93-5.82-.08-.23-.22-.43-.4-.59-.34-.53-.74-1.05-1.13-1.58-1.07-1.64-2.27-3.24-3.4-4.81-1.89-2.58-3.83-5.17-5.84-7.67-1.62-2.1-3.32-4.2-5.06-6.3-1.74-2.1-3.05-3.7-4.62-5.5-1.58-1.81-3.07-3.55-4.64-5.3-1.91-2.1-3.85-4.2-5.86-6.43-5.52-5.9-11.26-11.58-17.23-16.96-1.47-1.37-2.92-2.69-4.41-3.99-1.49-1.3-3.03-2.65-4.54-3.93-1.51-1.28-3.03-2.58-4.6-3.83-1.58-1.24-3.09-2.54-4.64-3.76-1.56-1.22-2.5-1.99-3.78-2.92-.63-.53-1.28-1.03-1.95-1.49-2.69-2.1-5.44-4.2-8.22-6.03-1.39-.99-2.77-1.97-4.2-2.92-1.77-1.26-3.59-2.46-5.42-3.61-.25-.21-.53-.39-.82-.55-1.64-1.07-3.26-2.1-4.96-3.19-2.35-1.43-4.73-2.88-7.1-4.2-2.71-1.6-5.42-3.19-8.22-4.71-2.79-1.51-6.14-3.36-9.27-4.92-3.13-1.56-6.31-3.17-9.52-4.69-3.22-1.51-6.43-2.92-9.69-4.35-6.43-2.77-13.01-5.36-19.65-7.73l-.36-.15c-2.54-.9-5.11-1.79-7.67-2.58-.16-.09-.33-.15-.5-.19-1.09-.36-2.25-.74-3.4-1.07-4.79-1.53-9.62-2.9-14.54-4.2-.59-.18-1.18-.34-1.79-.46-1.41-.42-2.84-.74-4.31-1.09-3.24-.8-6.51-1.53-9.81-2.2-3.3-.67-6.91-1.43-10.38-2.1-3.47-.67-7.29-1.26-10.95-1.78-9.68-1.4-19.32-2.36-28.93-2.88-2.29-.17-4.52-.27-6.79-.34-2.27-.06-4.71-.17-7.06-.19-2.35-.02-4.73,0-7.04,0s-4.71,0-7.08.13c-2,0-4.06,0-6.07.23-4.99.24-9.92.57-14.82,1.01-2.29.19-4.58.44-6.89.74-2.31.29-4.6.55-6.85.86-3.8.51-7.52,1.11-11.24,1.74l-9.08,1.68h-.21c-3.09.61-6.07,1.28-9.12,2h-.48c-2.79.65-5.57,1.34-8.3,2.1-3.45.86-6.85,1.85-10.19,2.84-2.86.84-5.67,1.7-8.4,2.63-2.73.92-5.97,1.97-8.91,3.02l-.32.11c-2.84,1.01-5.67,2.1-8.4,3.19-2.73,1.09-5.74,2.27-8.62,3.53-2.69,1.13-5.31,2.27-7.96,3.47-1.01.44-1.97.92-3.01,1.41-2.79,1.28-5.53,2.63-8.41,4.01-3.4,1.66-6.7,3.45-10,5.23-2.92,1.58-5.78,3.22-8.59,4.86-16.32,9.49-31.79,20.36-46.25,32.5-5.08,4.2-9.92,8.57-14.71,13.03-4.01,3.85-7.94,7.73-11.75,11.81h2.5c4.69.32,9.56,1.18,14.04-.23,4.2-1.35,7.35-4.41,11.22-6.3,9.88-5.09,24.73-4.2,28.7-14.52,1.35-3.49.95-7.54,2.77-10.8,3.45-6.07,12.19-5.76,19.08-4.65,2.94.42,6.3,1.32,7.29,4.2.23,1.02.25,2.07.05,3.09-.2,1.02-.62,1.99-1.22,2.84-6.05,11.48-15.87,20.52-27.8,25.61-9.75,4.2-22.04,6.7-25.99,16.54.74,3.63,7.06,4.2,7.04,7.96,0,2.94-3.97,3.89-5.69,6.31-2.5,3.47,1.32,8.7,5.63,9.12,4.31.42,8.3-2.1,11.87-4.6,10.63-7.35,21.81-15.3,27-27.17,2.1-4.9,3.57-10.8,8.17-13.6,1.4-.71,2.95-1.09,4.52-1.1,1.57-.01,3.12.34,4.54,1.03,1.41.69,2.65,1.69,3.61,2.94.96,1.24,1.62,2.7,1.92,4.24,4.41-1.68,10.99-2.46,12.48,2.1.24,1.64.31,3.3.19,4.96.38,6.79,8.95,11.07,8.93,17.86,0,7.82-10.5,10.36-18.3,10.51-7.1,0-14.2.15-21.33.27-3.1-.22-6.2.3-9.06,1.53-1.41.67-2.55,1.79-3.23,3.2-.68,1.4-.86,3-.51,4.52.84,1.53,1.87,2.94,3.07,4.2,4.94,6.6-1.53,17.8-9.71,16.81-2.79-.31-5.38-1.72-8.13-2.23-8.2-1.55-15.78,4.75-20.76,11.45-4.98,6.7-9.1,14.56-16.39,18.55-11.77,6.45-29.8,1.95-36.71,13.47-2.77,4.64-2.5,10.36-2.44,15.78.06,5.42-.44,11.3-4.2,15.23-3.76,3.93-11.73,3.66-13.3-1.51-.45-2.31-.21-4.71.69-6.89,2.33-7.44,4.63-14.88,6.91-22.34,1.7-5.55,3.38-11.77.71-16.81-3.76-7.17-14.35-8.07-21.18-3.74-6.83,4.33-10.51,12.1-13.3,19.63-2.1,5.59-4.71,13.53-8.85,19.65-2.1,6.3-3.82,12.61-5.44,19.04-1.62,6.43-3.05,13.19-4.2,19.94,1.04-.64,2.03-1.34,2.98-2.1,3.72-2.88,12.31-16.1,17.19-8.3.59,1.02.82,2.2.67,3.37-.15,1.16-.68,2.25-1.51,3.08-2.1,2.1-5.82,2.1-7.56,4.37-2.1,2.75-.32,6.81,2.1,9.16,2.42,2.35,5.72,4.2,7.27,7.25,2.96,5.95-1.81,13.62,1.05,19.67,2.46,5.19,9.1,6.47,14.71,7.9l1.91.61c3.24-11.12,9.88-19.56,25.82-20.82,22.02-1.76,47.49,19.96,57.17,37.82,10.78,19.92,13.45,46.23,32.63,58.25,13.74,8.57,34.94,9.27,39.92,24.67,4.52,13.81-8.7,26.66-12.46,40.68-2.44,9.29-.71,19.1-1.34,28.62-.63,9.52-5.09,20.21-14.27,22.93-5.09,1.47-11.07.33-15.47,3.38-7.79,5.5-4.2,19.71-11.89,25.22-2.75,1.91-6.31,2.25-9.37,3.32-16.54,5.55-19.39,28.26-14.52,45.01.19.61.38,1.16.55,1.77,46.09,37.46,101.48,61.74,160.26,70.24,53.24,7.78,107.58,2.31,158.2-15.93,10.65-3.85,21.09-8.25,31.29-13.18,15.71-7.54,30.79-16.34,45.09-26.31,9.9-6.86,19.39-14.28,28.45-22.21,6.3-5.5,12.46-11.3,18.39-17.27,3.01-3.09,5.99-6.18,8.82-9.41,21.16-23.13,38.86-49.22,52.53-77.43,8.36-17.14,15.19-35,20.38-53.35,2.1-7.19,3.89-14.48,5.49-21.88-1.95,1.54-4.18,2.68-6.58,3.35s-4.89.87-7.36.58c-7.58-1.38-13.07-8.87-15.17-16.51Z"/>
  <path class="cls-9" d="M594.15,789.3c-9.94,11.12-13.64,26.29-18.01,40.53-4.37,14.25-10.51,29.21-23.11,37.19-12.61,7.98-33.09,4.43-37.32-9.88-2.31-7.75.65-16.1,0-24.17-.9-10.51-7.86-19.52-10.3-29.77-2.1-8.76-.76-17.9.25-26.85,5.59-48.83,1.07-101.32-26.9-141.75-3.43-4.98-7.44-9.92-12.99-12.27-3.34-1.36-7-1.73-10.54-1.05-3.54.67-6.81,2.36-9.42,4.86-3.15,3.13-5.19,7.42-8.87,9.92-8,5.44-19.69-.97-23.22-9.98-3.53-9.01-1.38-19.14.78-28.58,2.72-11.71,5.42-23.41,8.09-35.11,1.41-6.11,3.07-12.61,7.82-16.81,6.74-5.86,17.15-4.67,24.98-8.95,10.28-5.59,13.43-18.66,20.72-27.82,7.29-9.16,26.22-10.74,27.32.9,25.34-38.62,59.21,29.12,85.33,28.18,7.59-.29,15.3-2.8,22.59-.67,12.86,3.74,17.55,19.19,20.21,32.32,4.41,21.8,8.83,43.59,13.26,65.37,1.68,8.3,4.05,17.61,11.45,21.77,5.65,3.19,12.86,2.42,18.58,5.49,15.13,8.13,6.3,32.48-8.15,41.75-14.46,9.27-33.58,13.7-41.98,28.66-6.31,11.28-4.69,25.8-11.35,36.9-4.73,7.92-13.05,12.88-19.23,19.83Z"/>
  <path class="cls-9" d="M652.8,811.57c-5.36,0-11.18-3.51-15.66-.59-2.63,1.7-3.63,4.96-4.98,7.77-1.76,4.01-4.92,7.23-8.89,9.08-1.99.87-4.2,1.15-6.34.8-2.15-.35-4.15-1.32-5.76-2.78-1.52-1.55-2.37-3.63-2.37-5.8s.85-4.25,2.37-5.8c1.63-1.1,3.32-2.12,5.06-3.05,7.9-5.57,4.9-18.47,11.33-25.53,3.8-4.2,9.39-8.13,13.49-12.29,3.15-3.21,4.54-5.93,9.52-6.18,21.79-1.11,25.01,44.54,2.23,44.36Z"/>
  <path class="cls-6" d="M179.85,652.99c.32-9.48,4.75-18.34,6.3-27.74,1.05-6.49,1.58-13.41,2.42-19.96-5.54-1.05-10.96-2.63-16.2-4.71-1.14-.31-2.13-1.01-2.82-1.97-.4-1.14-.46-2.38-.17-3.55.65-7.38-5.72-13.24-11.51-17.82-2.88-2.42-6.01-4.53-9.33-6.3,0,.78-.21,1.49-.27,2.27-3.86,35.47-1.91,71.33,5.78,106.18,3.43,15.5,8.02,30.72,13.72,45.53,2.33,6.3,5,12.71,7.84,18.91,3.51,7.71,7.25,15.3,11.39,22.67,3.8,7.08,7.94,14.03,12.4,20.78,6.06,9.34,12.6,18.36,19.58,27.02,6.19,7.73,12.74,15.16,19.65,22.29-10.86-50.26-20.55-101.37-45.07-146.33-6.51-11.73-14.12-23.87-13.7-37.28Z"/>
  <path class="cls-9" d="M150.68,555.41c-.32,1.95-.67,3.89-.97,5.84.29-1.91.65-3.74.97-5.84Z"/>
  <g class="cls-15">
    <path class="cls-9" d="M254.9,852.46c2.48,2.25,4.98,4.45,7.54,6.62-2.61-2.16-5.11-4.37-7.54-6.62Z"/>
  </g>
  <path class="cls-6" d="M666.75,703.95c14.46-9.27,23.28-33.62,8.15-41.75-5.71-3.07-12.92-2.29-18.57-5.48-7.4-4.2-9.77-13.47-11.45-21.77-4.41-21.8-8.83-43.59-13.26-65.37-2.67-13.13-7.36-28.58-20.21-32.32-7.29-2.1-15,.38-22.59.67-26.12.95-59.99-66.8-85.33-28.18-1.07-11.64-19.98-10.06-27.32-.9-7.33,9.16-10.51,22.23-20.72,27.82-7.84,4.2-18.24,3.09-24.98,8.95-4.75,4.2-6.31,10.65-7.82,16.81-2.69,11.7-5.39,23.4-8.09,35.11-2.1,9.43-4.2,19.54-.78,28.58,3.43,9.04,15.21,15.42,23.22,9.98,3.68-2.5,5.72-6.79,8.87-9.92,2.6-2.49,5.87-4.18,9.42-4.86,3.54-.68,7.2-.31,10.54,1.05,5.55,2.35,9.56,7.29,12.99,12.27,27.97,40.43,32.48,92.92,26.9,141.75-1.01,8.95-2.33,18.09-.25,26.85,2.44,10.25,9.39,19.27,10.3,29.78.69,8.07-2.27,16.41,0,24.16,4.2,14.31,24.73,17.86,37.32,9.88,12.59-7.98,18.72-22.93,23.11-37.19,4.39-14.27,8.07-29.42,18.01-40.53,6.18-6.89,14.5-11.91,19.27-19.84,6.66-11.09,5-25.61,11.35-36.9,8.32-15,27.38-19.42,41.94-28.66Z"/>
  <g class="cls-15">
    <path class="cls-9" d="M151.94,547.8c-.13.61-.27,1.15-.36,1.79.13-.63.36-1.18.36-1.79Z"/>
  </g>
  <path class="cls-6" d="M190.92,592.77l-1.91-.61c-5.63-1.43-12.27-2.71-14.71-7.9-2.86-6.05,1.91-13.72-1.05-19.67-1.56-3.11-4.77-4.83-7.27-7.25-2.5-2.42-4.33-6.41-2.1-9.16,1.74-2.31,5.42-2.31,7.56-4.37.83-.83,1.36-1.92,1.51-3.08.15-1.17-.09-2.35-.69-3.36-4.85-7.8-13.45,5.42-17.17,8.3-.95.76-1.95,1.46-2.98,2.1-.13.61-.27,1.15-.36,1.79-.36,1.91-.63,3.89-.95,5.86-.32,1.98-.67,3.89-.97,5.84-.23,1.6-.4,3.19-.61,4.79-.21,1.6-.44,3.19-.61,4.77,3.32,1.77,6.45,3.88,9.33,6.31,5.8,4.58,12.17,10.5,11.51,17.82-.29,1.17-.23,2.41.17,3.55.68.96,1.68,1.66,2.82,1.97,5.24,2.08,10.66,3.66,16.2,4.71"/>
  <path class="cls-6" d="M188.53,605.29c-.84,6.56-1.37,13.47-2.42,19.96-1.51,9.39-5.95,18.26-6.3,27.74-.42,13.41,7.19,25.55,13.64,37.32,24.52,44.97,34.21,96.07,45.07,146.33,2.92,3.11,5.9,6.07,8.95,8.97,2.4,2.34,4.83,4.62,7.29,6.85,2.48,2.25,4.98,4.45,7.54,6.62,1.76,1.51,3.55,2.98,5.4,4.45-.17-.61-.36-1.15-.55-1.76-4.87-16.81-2.1-39.46,14.52-45.01,3.15-1.07,6.62-1.41,9.37-3.32,7.77-5.5,4.1-19.71,11.89-25.21,4.39-3.05,10.38-1.91,15.46-3.38,9.18-2.71,13.55-13.34,14.27-22.92.71-9.58-1.09-19.33,1.35-28.62,3.76-14.02,16.98-26.88,12.46-40.68-5.08-15.4-26.29-16.1-39.92-24.67-19.19-11.98-21.85-38.33-32.63-58.25-9.69-17.8-35.15-39.52-57.17-37.82-15.95,1.26-22.59,9.71-25.82,20.82"/>
  <path class="cls-6" d="M183.88,469.49c6.83-4.33,17.42-3.42,21.18,3.74,2.67,5.13.99,11.35-.71,16.81-2.3,7.44-4.6,14.88-6.91,22.34-.9,2.18-1.15,4.58-.69,6.89,1.58,5.17,9.64,5.4,13.3,1.51,3.66-3.89,4.2-9.86,4.2-15.23s-.34-11.14,2.44-15.78c6.91-11.52,24.94-7.02,36.71-13.47,7.29-3.99,11.43-11.85,16.39-18.55,4.96-6.7,12.61-13.01,20.76-11.45,2.75.5,5.34,1.91,8.13,2.23,8.17.9,14.71-10.3,9.71-16.81-1.2-1.27-2.23-2.68-3.07-4.2-.35-1.52-.17-3.11.51-4.51.68-1.4,1.82-2.53,3.23-3.2,2.85-1.23,5.96-1.76,9.06-1.53,7.13-.13,14.23-.19,21.33-.27,7.86,0,18.26-2.63,18.3-10.5,0-6.79-8.55-11.07-8.93-17.86.12-1.65.05-3.32-.19-4.96-1.49-4.54-8.07-3.76-12.48-2.1-.3-1.54-.96-2.99-1.92-4.24-.96-1.25-2.19-2.25-3.61-2.94-1.41-.69-2.97-1.04-4.54-1.03-1.57.01-3.12.39-4.52,1.1-4.6,2.79-5.99,8.7-8.17,13.59-5.19,11.87-16.37,19.81-27,27.17-3.57,2.44-7.56,5-11.87,4.6-4.31-.4-8.13-5.65-5.63-9.12,1.72-2.4,5.65-3.34,5.69-6.3,0-3.68-6.3-4.33-7.04-7.97,3.95-9.83,16.24-12.37,25.99-16.53,11.95-5.09,21.78-14.14,27.84-25.64.6-.85,1.02-1.82,1.22-2.84.2-1.02.19-2.07-.05-3.09-.97-2.77-4.35-3.68-7.29-4.2-6.89-1.11-15.63-1.43-19.08,4.64-1.83,3.26-1.43,7.31-2.77,10.8-3.97,10.36-18.91,9.43-28.7,14.52-3.87,1.95-7.08,5.02-11.22,6.3-4.48,1.41-9.35.55-14.04.23h-2.5c-3.4,3.53-6.72,7.17-9.94,10.86-3.22,3.7-6.3,7.48-9.41,11.33-14.51,18.21-27.03,37.94-37.32,58.83-3.66,7.33-7,14.84-10.09,22.51-3.09,7.67-5.88,15.48-8.41,23.45,4.2-6.11,6.77-14.06,8.85-19.65,2.77-7.38,6.53-15.15,13.26-19.48Z"/>
  <g class="cls-15">
    <path class="cls-9" d="M796.55,538.81c.95,4.36,1.81,8.71,2.56,13.07-.76-4.37-1.61-8.73-2.56-13.07Z"/>
  </g>
  <path class="cls-6" d="M801.08,650.93c.65-4.68,1.2-9.35,1.6-14.02.4-4.67.74-9.31.92-13.95.19-3.76.29-7.48.32-11.22.02-3.74,0-7.86,0-11.77-.26-11.68-1.16-23.33-2.69-34.9-.59-4.41-1.26-8.82-2.1-13.19-.84-4.37-1.62-8.72-2.56-13.07-1.2-3.32-2.53-6.61-3.99-9.88-13.93-31.25-36.94-57.51-52.87-87.79-5.19-9.83-9.18-17.94-20.42-21.35-16.6-5.08-26.6,3.34-36.33-14.52-2.63-4.79-7.71-9.62-12.86-7.75.74,3.63,1.51,7.27,2.25,10.95.18.77.18,1.56,0,2.33-.61,2.4-4.31,2.54-6.18.9-1.58-1.95-2.8-4.16-3.61-6.54-1.15-2.03-2.71-3.8-4.58-5.2-1.87-1.39-4.01-2.39-6.29-2.91-2.28-.52-4.64-.56-6.93-.12-2.29.44-4.47,1.35-6.39,2.68.08-1.65-.27-3.3-1.03-4.78-.76-1.47-1.89-2.73-3.28-3.63-.47,1.52-1.26,2.92-2.31,4.11-1.05,1.19-2.34,2.15-3.79,2.81-1.44.66-3.02,1.01-4.6,1.02-1.59,0-3.16-.32-4.62-.96-.53-3.28,5.19-3.03,7.52-5.42,2.33-2.4.5-6.09-1.49-8.53-5.44-6.29-12.87-10.51-21.06-11.96-5.19-.84-10.95-.67-15.09-4.01-2.4-1.93-3.89-4.77-6.31-6.66-5.25-4.06-12.84-2.1-19.06.25-8.53,3.24-17.46,7.56-21.48,15.76-4.01,8.2.49,20.63,9.6,20.84,2.31,0,4.83-.71,6.96.23,3.07,1.32,3.97,5.25,3.76,8.57-.21,3.32-1.09,6.75.1,9.86,1.2,3.11,5.59,5.23,7.8,2.75,4.81-3.4,5.25-10.21,5-16.1-.25-5.88-.44-12.48,3.63-16.66,4.08-4.18,13.7-1.28,12.19,4.39-.9,3.34-5.13,5.25-5.46,8.72-.34,3.47,3.66,5.99,7.16,6.3,3.51.31,7.27-.36,10.51,1.01,3.24,1.37,5.4,6.2,2.56,8.41-4.98,4.2-14.9-5.67-17.99,0-.84,1.45-.49,3.3-.86,4.92-1.16,5-7.75,5.92-12.88,5.82-5.13-.1-10.51-.42-14.84-3.26-4.33-2.84-6.54-9.29-3.3-13.24-2.29-2.23-6.49-.95-8.3,1.74-1.52,2.85-2.18,6.07-1.91,9.29-5.19-1.95-10.63,1.87-14.31,5.93-3.68,4.06-7.46,8.91-12.88,9.75-5.42.84-12.37-2.37-15.8,1.97-4.45,5.67,4.73,14.98.23,20.59-2.56,3.15-7.48,2.33-11.55,2.86-10.78,1.43-16.58,16.05-10.7,25.21,5.88,9.16,20.07,10.7,28.66,4.06,5.97-4.56,9.16-11.72,13.85-17.57,4.68-5.84,12.61-10.51,19.41-7.44,2.6,1.43,4.88,3.36,6.7,5.7,3.02,3.38,6.07,6.77,9.1,10.21,1.93,2.1,4.04,4.83,3.4,7.69-.55,2.29-2.6,3.83-3.7,5.88-3.07,5.93,5.11,13.13,11.26,10.5,6.16-2.63,8.03-11.2,4.94-17.12-4.2-8.17-15.84-13.64-14.23-22.76,6.91-4.2,15.89,2.54,18.45,10.23,2.56,7.69,1.47,16.1,3.45,23.89,1.97,7.79,9.52,15.63,17.14,13.05-.92-6.64-1.83-13.24-2.75-19.86,5.02-2.73,8.79,7.9,14.44,7.04,3.45-.55,4.54-5.23,3.57-8.64-.97-3.4-3.13-6.45-3.24-9.98-.13-6.43,7.69-11.03,13.87-9.1,6.18,1.93,9.85,8.64,10.13,15.05-.13,2.55.06,5.11.59,7.61,1.66,5.27,7.57,7.67,12.31,10.51,4.75,2.84,9.33,8.66,6.47,13.41-1.28,2.1-3.91,3.85-3.43,6.3.48,2.46,3.34,3.43,3.05,5.59-.27,1.43-1.91,2.1-3.32,2.56-3.61.9-7.38.82-10.91,1.95-3.53,1.13-6.98,3.82-7.23,7.46-.33,5.21,5.42,8.57,7.69,13.26,2.27,4.69,1.01,9.84,2.1,14.71,1.03,4.52,3.95,8.41,6.16,12.42,6.85,12.88,6.7,28.16,8.87,42.55.97,6.51,3.36,13.95,9.56,16.05,3.52.8,7.18.62,10.61-.51,9.73-2.33,19.88-4.85,27.32-11.39,7.44-6.53,11.52-18.49,5.93-26.81-.61-1.14-1.62-2.01-2.84-2.46-1.76-.14-3.53.2-5.11.99-5,1.49-10.51-1.13-13.91-5.17-3.4-4.04-5.04-9.08-6.7-14.06-1.79-5.46-3.55-10.97-5.4-16.49,3.42-2.1,8.11-.36,10.88,2.63,2.77,2.98,4.1,6.89,6.18,10.36,6.3,10.7,18.3,16.81,30.3,19.94,3.11.62,6.11,1.71,8.89,3.24,8.51,5.49,9.18,19.31,18.41,23.6,2.56,1.2,5.57,1.47,7.92,3.02,3.55,2.35,4.83,6.96,5.38,11.2,1.01,7.88.59,15.95,2.73,23.64,2.14,7.69,7.59,15.13,15.4,16.37,2.47.29,4.96.09,7.36-.58,2.39-.67,4.63-1.81,6.58-3.35,1.45-7.04,2.73-14.12,3.76-21.33.19-1.66.4-3.15.51-4.67Z"/>
  <path class="cls-6" d="M650.55,767.22c-4.98.25-6.3,2.96-9.52,6.18-4.1,4.2-9.69,8.13-13.49,12.29-6.43,7.06-3.42,19.96-11.32,25.53-1.74.92-3.43,1.94-5.06,3.05-1.52,1.55-2.37,3.63-2.37,5.8s.85,4.25,2.37,5.8c1.61,1.46,3.61,2.43,5.76,2.78,2.15.35,4.35.07,6.34-.8,3.97-1.85,7.13-5.07,8.89-9.08,1.35-2.82,2.35-6.07,4.98-7.77,4.47-2.92,10.3.57,15.66.59,22.8.19,19.58-45.47-2.23-44.36Z"/>
  <g class="cls-13">
    <path class="cls-1" d="M666.75,703.95c14.46-9.27,23.28-33.62,8.15-41.75-5.71-3.07-12.92-2.29-18.57-5.48-7.4-4.2-9.77-13.47-11.45-21.77-4.41-21.8-8.83-43.59-13.26-65.37-2.67-13.13-7.36-28.58-20.21-32.32-7.29-2.1-15,.38-22.59.67-26.12.95-59.99-66.8-85.33-28.18-1.07-11.64-19.98-10.06-27.32-.9-7.33,9.16-10.51,22.23-20.72,27.82-7.84,4.2-18.24,3.09-24.98,8.95-4.75,4.2-6.31,10.65-7.82,16.81-2.69,11.7-5.39,23.4-8.09,35.11-2.1,9.43-4.2,19.54-.78,28.58,3.43,9.04,15.21,15.42,23.22,9.98,3.68-2.5,5.72-6.79,8.87-9.92,2.6-2.49,5.87-4.18,9.42-4.86,3.54-.68,7.2-.31,10.54,1.05,5.55,2.35,9.56,7.29,12.99,12.27,27.97,40.43,32.48,92.92,26.9,141.75-1.01,8.95-2.33,18.09-.25,26.85,2.44,10.25,9.39,19.27,10.3,29.78.69,8.07-2.27,16.41,0,24.16,4.2,14.31,24.73,17.86,37.32,9.88,12.59-7.98,18.72-22.93,23.11-37.19,4.39-14.27,8.07-29.42,18.01-40.53,6.18-6.89,14.5-11.91,19.27-19.84,6.66-11.09,5-25.61,11.35-36.9,8.32-15,27.38-19.42,41.94-28.66Z"/>
  </g>
  <path class="cls-10" d="M238.56,836.64c2.92,3.11,5.9,6.07,8.95,8.97,2.4,2.34,4.83,4.62,7.29,6.85,2.48,2.25,4.98,4.45,7.54,6.62,1.76,1.51,3.55,2.99,5.4,4.45-.17-.61-.36-1.15-.55-1.76-4.87-16.81-2.1-39.46,14.52-45.01,3.15-1.07,6.62-1.41,9.37-3.32,7.77-5.51,4.1-19.71,11.89-25.22,4.39-3.05,10.38-1.91,15.46-3.38,9.18-2.71,13.55-13.34,14.27-22.92.71-9.58-1.09-19.33,1.35-28.62,3.76-14.02,16.98-26.87,12.46-40.68-5.08-15.4-26.29-16.1-39.92-24.67-19.19-11.98-21.85-38.33-32.63-58.25-9.69-17.8-35.15-39.52-57.17-37.82-15.95,1.26-22.59,9.71-25.82,20.82l-1.91-.61c-5.63-1.43-12.27-2.71-14.71-7.9-2.86-6.05,1.91-13.72-1.05-19.67-1.55-3.11-4.77-4.83-7.27-7.25-2.5-2.42-4.33-6.41-2.1-9.16,1.74-2.31,5.42-2.31,7.56-4.37.83-.83,1.36-1.92,1.51-3.08.15-1.17-.1-2.35-.69-3.37-4.85-7.79-13.45,5.42-17.17,8.3-.95.76-1.95,1.46-2.98,2.1-.13.61-.27,1.15-.36,1.79-.36,1.91-.63,3.89-.95,5.86-.32,1.97-.67,3.89-.97,5.84-.23,1.6-.4,3.19-.61,4.79-.21,1.6-.44,3.2-.61,4.77,0,.78-.21,1.49-.27,2.27-3.92,35.53-2.01,71.46,5.65,106.37,3.43,15.5,8.02,30.72,13.72,45.53,2.33,6.31,5,12.71,7.84,18.91,3.51,7.71,7.25,15.3,11.39,22.67,3.8,7.08,7.94,14.04,12.4,20.78,6.06,9.34,12.6,18.36,19.58,27.02,6.19,7.73,12.74,15.16,19.65,22.29"/>
  <g class="cls-13">
    <path class="cls-1" d="M183.88,469.49c6.83-4.33,17.42-3.42,21.18,3.74,2.67,5.13.99,11.35-.71,16.81-2.3,7.44-4.6,14.88-6.91,22.34-.9,2.18-1.15,4.58-.69,6.89,1.58,5.17,9.64,5.4,13.3,1.51,3.66-3.89,4.2-9.86,4.2-15.23s-.34-11.14,2.44-15.78c6.91-11.52,24.94-7.02,36.71-13.47,7.29-3.99,11.43-11.85,16.39-18.55,4.96-6.7,12.61-13.01,20.76-11.45,2.75.5,5.34,1.91,8.13,2.23,8.17.9,14.71-10.3,9.71-16.81-1.2-1.27-2.23-2.68-3.07-4.2-.35-1.52-.17-3.11.51-4.51.68-1.4,1.82-2.53,3.23-3.2,2.85-1.23,5.96-1.76,9.06-1.53,7.13-.13,14.23-.19,21.33-.27,7.86,0,18.26-2.63,18.3-10.5,0-6.79-8.55-11.07-8.93-17.86.12-1.65.05-3.32-.19-4.96-1.49-4.54-8.07-3.76-12.48-2.1-.3-1.54-.96-2.99-1.92-4.24-.96-1.25-2.19-2.25-3.61-2.94-1.41-.69-2.97-1.04-4.54-1.03-1.57.01-3.12.39-4.52,1.1-4.6,2.79-5.99,8.7-8.17,13.59-5.19,11.87-16.37,19.81-27,27.17-3.57,2.44-7.56,5-11.87,4.6-4.31-.4-8.13-5.65-5.63-9.12,1.72-2.4,5.65-3.34,5.69-6.3,0-3.68-6.3-4.33-7.04-7.97,3.95-9.83,16.24-12.37,25.99-16.53,11.95-5.09,21.78-14.14,27.84-25.64.6-.85,1.02-1.82,1.22-2.84.2-1.02.19-2.07-.05-3.09-.97-2.77-4.35-3.68-7.29-4.2-6.89-1.11-15.63-1.43-19.08,4.64-1.83,3.26-1.43,7.31-2.77,10.8-3.97,10.36-18.91,9.43-28.7,14.52-3.87,1.95-7.08,5.02-11.22,6.3-4.48,1.41-9.35.55-14.04.23h-2.5c-3.4,3.53-6.72,7.17-9.94,10.86-3.22,3.7-6.3,7.48-9.41,11.33-14.51,18.21-27.03,37.94-37.32,58.83-3.66,7.33-7,14.84-10.09,22.51-3.09,7.67-5.88,15.48-8.41,23.45,4.2-6.11,6.77-14.06,8.85-19.65,2.77-7.38,6.53-15.15,13.26-19.48Z"/>
  </g>
  <g class="cls-13">
    <path class="cls-1" d="M801.08,650.93c.65-4.69,1.2-9.35,1.6-14.02.4-4.67.74-9.31.92-13.95.19-3.76.29-7.48.32-11.22.02-3.74,0-7.86,0-11.77-.26-11.67-1.16-23.33-2.69-34.9-.59-4.41-1.26-8.82-2.1-13.19-.84-4.37-1.62-8.72-2.56-13.07-1.2-3.32-2.53-6.61-3.99-9.88-13.93-31.25-36.94-57.51-52.87-87.79-5.19-9.84-9.18-17.94-20.42-21.35-16.6-5.09-26.6,3.34-36.33-14.52-2.63-4.79-7.71-9.62-12.86-7.75.74,3.64,1.51,7.27,2.25,10.95.18.77.18,1.57,0,2.33-.61,2.39-4.31,2.54-6.18.9-1.58-1.95-2.8-4.16-3.61-6.53-1.15-2.03-2.71-3.8-4.58-5.2-1.87-1.39-4.01-2.38-6.29-2.91-2.28-.52-4.64-.56-6.93-.12-2.29.44-4.47,1.35-6.39,2.68.08-1.65-.27-3.3-1.03-4.78-.76-1.47-1.89-2.73-3.28-3.62-.47,1.52-1.26,2.92-2.31,4.11-1.05,1.19-2.34,2.15-3.79,2.81-1.44.66-3.02,1-4.6,1.01s-3.16-.31-4.62-.95c-.53-3.28,5.19-3.03,7.52-5.42,2.33-2.39.5-6.09-1.49-8.53-5.44-6.29-12.87-10.51-21.06-11.96-5.19-.84-10.95-.67-15.09-4.01-2.4-1.93-3.89-4.77-6.31-6.66-5.25-4.05-3.24,4.54-9.45,6.91-8.53,3.24-13.16,4.2-17.19,12.4-.81,1.64-1.51,3.33-2.1,5.06-.82,2.23-.86,4.68-.09,6.93.77,2.25,2.28,4.17,4.29,5.45l.63.33c3.07,1.33,3.97,5.25,3.76,8.57-.21,3.32-1.09,6.74.11,9.85,1.2,3.11,5.59,5.23,7.79,2.75,4.81-3.4,5.25-10.21,5-16.1-.25-5.88-.44-12.48,3.63-16.66,4.08-4.18,13.7-1.28,12.19,4.39-.9,3.34-5.13,5.25-5.47,8.72-.33,3.47,3.66,5.99,7.17,6.31,3.51.31,7.27-.36,10.5,1.01,3.24,1.37,5.4,6.2,2.56,8.41-4.98,4.2-14.9-5.67-17.99,0-.84,1.45-.48,3.3-.86,4.92-1.15,5-7.75,5.93-12.88,5.82-5.13-.11-10.51-.42-14.84-3.26-4.33-2.84-6.54-9.29-3.3-13.24-2.29-2.23-6.49-.95-8.3,1.74-1.51,2.85-2.18,6.07-1.91,9.29-5.19-1.95-10.63,1.87-14.31,5.93-3.68,4.06-7.46,8.91-12.88,9.75-5.42.84-12.38-2.38-15.8,1.97-4.46,5.67,4.73,14.98.23,20.59-2.56,3.15-7.48,2.33-11.56,2.86-10.78,1.43-16.58,16.05-10.7,25.22,5.88,9.16,20.07,10.7,28.66,4.06,5.97-4.56,9.16-11.73,13.85-17.57,4.68-5.84,12.61-10.5,19.42-7.44,2.59,1.43,4.87,3.36,6.7,5.69,3.03,3.38,6.07,6.77,9.1,10.21,1.93,2.1,4.03,4.83,3.4,7.69-.55,2.29-2.61,3.82-3.7,5.88-3.07,5.93,5.11,13.13,11.26,10.51,6.16-2.63,8.03-11.2,4.94-17.12-4.2-8.18-15.84-13.64-14.23-22.76,6.91-4.2,15.89,2.54,18.45,10.23,2.56,7.69,1.47,16.1,3.45,23.89,1.97,7.8,9.52,15.63,17.15,13.05-.92-6.64-1.83-13.24-2.75-19.86,5.02-2.73,8.78,7.9,14.44,7.04,3.45-.55,4.54-5.23,3.57-8.63-.97-3.4-3.13-6.45-3.24-9.98-.13-6.43,7.69-11.03,13.87-9.1,6.18,1.93,9.86,8.64,10.13,15.05-.13,2.55.07,5.11.59,7.61,1.66,5.27,7.56,7.67,12.31,10.51,4.75,2.84,9.33,8.66,6.47,13.41-1.28,2.1-3.91,3.85-3.42,6.31.48,2.46,3.34,3.42,3.04,5.59-.27,1.43-1.91,2.1-3.32,2.56-3.61.9-7.38.82-10.91,1.95-3.53,1.13-6.97,3.83-7.23,7.46-.34,5.21,5.42,8.57,7.69,13.26,2.27,4.68,1.01,9.83,2.1,14.71,1.03,4.52,3.95,8.41,6.16,12.42,6.85,12.88,6.7,28.16,8.87,42.55.97,6.51,3.36,13.95,9.56,16.05,3.52.8,7.18.62,10.61-.5,9.73-2.33,19.88-4.85,27.32-11.39,7.44-6.54,11.51-18.49,5.92-26.81-.61-1.14-1.62-2.01-2.84-2.46-1.76-.14-3.52.2-5.11.99-5,1.49-10.5-1.13-13.91-5.17-3.4-4.03-5.04-9.08-6.7-14.06-1.79-5.46-3.55-10.97-5.4-16.49,3.43-2.1,8.11-.36,10.89,2.63,2.77,2.98,4.1,6.89,6.18,10.36,6.31,10.7,18.3,16.81,30.3,19.94,3.11.62,6.11,1.71,8.89,3.24,8.51,5.49,9.18,19.31,18.41,23.6,2.56,1.2,5.57,1.47,7.92,3.02,3.55,2.35,4.83,6.95,5.38,11.2,1.01,7.88.59,15.95,2.73,23.64,2.14,7.69,7.59,15.13,15.4,16.37,2.47.29,4.97.1,7.36-.58,2.39-.68,4.62-1.81,6.57-3.35,1.45-7.04,2.73-14.12,3.76-21.33.12-1.66.33-3.15.44-4.67Z"/>
  </g>
  <g class="cls-13">
    <path class="cls-1" d="M650.55,767.22c-4.98.25-6.3,2.96-9.52,6.18-4.1,4.2-9.69,8.13-13.49,12.29-6.43,7.06-3.42,19.96-11.32,25.53-1.74.92-3.43,1.94-5.06,3.05-1.52,1.55-2.37,3.63-2.37,5.8s.85,4.25,2.37,5.8c1.61,1.46,3.61,2.43,5.76,2.78,2.15.35,4.35.07,6.34-.8,3.97-1.85,7.13-5.07,8.89-9.08,1.35-2.82,2.35-6.07,4.98-7.77,4.47-2.92,10.3.57,15.66.59,22.8.19,19.58-45.47-2.23-44.36Z"/>
  </g>
  <path class="cls-6" d="M194.77,293.23c-4.34-1.34-8.94-1.61-13.41-.78-4.47.83-8.67,2.72-12.24,5.53,0,0-17.29,13.22-10.51,32.61,2.56,7.12,7.59,13.08,14.16,16.81,2.48,1.44,5.1,2.62,7.82,3.53,9.41,3.05,36.77,10.02,36.77,10.02l3-2.31c-.23-8.4-4.2-33.62-5.61-41.69-1.87-9.98-9.01-20.47-19.98-23.72ZM201.07,333.79c-2.92,2.23-6.44,3.56-10.11,3.79-3.67.24-7.33-.62-10.51-2.46-3.18-1.84-5.75-4.59-7.37-7.89-1.62-3.3-2.23-7.01-1.74-10.66.49-3.65,2.04-7.07,4.47-9.83,2.43-2.76,5.62-4.74,9.18-5.69,3.55-.95,7.31-.82,10.79.37,3.48,1.19,6.53,3.38,8.77,6.31,1.48,1.94,2.57,4.15,3.2,6.51.63,2.36.79,4.82.47,7.24-.32,2.42-1.12,4.75-2.34,6.87-1.22,2.11-2.85,3.96-4.79,5.45Z"/>
  <path class="cls-11" d="M194.77,293.23c-4.34-1.34-8.94-1.61-13.41-.78-4.47.83-8.67,2.72-12.24,5.53,0,0-17.29,13.22-10.51,32.61,2.56,7.12,7.59,13.08,14.16,16.81,2.48,1.44,5.1,2.62,7.82,3.53,9.41,3.05,36.77,10.02,36.77,10.02l3-2.31c-.23-8.4-4.2-33.62-5.61-41.69-1.87-9.98-9.01-20.47-19.98-23.72ZM201.07,333.79c-2.92,2.23-6.44,3.56-10.11,3.79-3.67.24-7.33-.62-10.51-2.46-3.18-1.84-5.75-4.59-7.37-7.89-1.62-3.3-2.23-7.01-1.74-10.66.49-3.65,2.04-7.07,4.47-9.83,2.43-2.76,5.62-4.74,9.18-5.69,3.55-.95,7.31-.82,10.79.37,3.48,1.19,6.53,3.38,8.77,6.31,1.48,1.94,2.57,4.15,3.2,6.51.63,2.36.79,4.82.47,7.24-.32,2.42-1.12,4.75-2.34,6.87-1.22,2.11-2.85,3.96-4.79,5.45Z"/>
  <path class="cls-6" d="M197.9,291.03c-4.34-1.34-8.94-1.61-13.4-.78s-8.66,2.73-12.23,5.53c0,0-17.29,13.21-10.51,32.61,2.56,7.11,7.59,13.08,14.16,16.81,2.48,1.45,5.11,2.64,7.84,3.53,9.39,3.05,36.75,10.02,36.75,10.02,0,0-.84-34.36-2.61-44-1.91-9.98-9.04-20.44-20-23.72ZM201.18,333.89c-1.93,1.51-4.15,2.62-6.52,3.27-2.37.64-4.84.81-7.27.49-2.43-.32-4.78-1.13-6.89-2.37-2.12-1.24-3.97-2.89-5.44-4.85-2.24-2.92-3.56-6.44-3.79-10.11-.24-3.67.62-7.33,2.46-10.51,1.84-3.18,4.59-5.75,7.89-7.37,3.3-1.62,7.01-2.23,10.66-1.74s7.07,2.04,9.83,4.47c2.76,2.43,4.74,5.62,5.69,9.18.95,3.56.82,7.31-.37,10.79-1.19,3.48-3.38,6.53-6.31,8.77h.06Z"/>
  <path class="cls-6" d="M178.48,304.25c-3.03,2.35-5.26,5.58-6.39,9.25-1.13,3.67-1.1,7.59.09,11.24-.79-3.39-.44-6.94.98-10.12,1.42-3.17,3.85-5.79,6.9-7.46,3.05-1.67,6.57-2.29,10.01-1.77,3.44.52,6.62,2.15,9.04,4.64,2.43,2.49,3.97,5.71,4.39,9.16.42,3.45-.29,6.95-2.04,9.96-1.75,3.01-4.44,5.36-7.65,6.69-3.21,1.34-6.77,1.58-10.14.71,3.04,1.08,6.3,1.35,9.47.78,3.17-.56,6.14-1.94,8.62-4,2.48-2.06,4.38-4.73,5.52-7.74,1.14-3.02,1.47-6.27.97-9.46-.5-3.18-1.82-6.18-3.83-8.7-2.01-2.52-4.64-4.47-7.63-5.67-2.99-1.2-6.24-1.6-9.44-1.16-3.19.44-6.22,1.7-8.78,3.65h-.11Z"/>
  <path class="cls-11" d="M178.48,304.25c-3.03,2.35-5.26,5.58-6.39,9.25-1.13,3.67-1.1,7.59.09,11.24-.79-3.39-.44-6.94.98-10.12,1.42-3.17,3.85-5.79,6.9-7.46,3.05-1.67,6.57-2.29,10.01-1.77,3.44.52,6.62,2.15,9.04,4.64,2.43,2.49,3.97,5.71,4.39,9.16.42,3.45-.29,6.95-2.04,9.96-1.75,3.01-4.44,5.36-7.65,6.69-3.21,1.34-6.77,1.58-10.14.71,3.04,1.08,6.3,1.35,9.47.78,3.17-.56,6.14-1.94,8.62-4,2.48-2.06,4.38-4.73,5.52-7.74,1.14-3.02,1.47-6.27.97-9.46-.5-3.18-1.82-6.18-3.83-8.7-2.01-2.52-4.64-4.47-7.63-5.67-2.99-1.2-6.24-1.6-9.44-1.16-3.19.44-6.22,1.7-8.78,3.65h-.11Z"/>
  <path class="cls-6" d="M896.02,548.2c3.19-3.24,5.55-7.2,6.87-11.55,1.33-4.35,1.58-8.95.73-13.42,0,0-3.76-21.43-24.08-24.42-7.5-1.02-15.11.7-21.45,4.83-2.43,1.52-4.69,3.3-6.75,5.3-7.02,6.95-25.82,28.01-25.82,28.01l.65,3.76c7.52,3.63,31.86,11.83,39.59,14.2,9.75,2.98,22.31,1.49,30.26-6.72ZM857.12,535.09c-.63-3.62-.18-7.35,1.3-10.72,1.49-3.36,3.93-6.21,7.04-8.19,3.1-1.97,6.72-2.98,10.4-2.9s7.25,1.26,10.26,3.37c3.01,2.11,5.33,5.07,6.66,8.5s1.62,7.17.82,10.76c-.8,3.59-2.64,6.86-5.3,9.4-2.66,2.54-6.01,4.24-9.63,4.88-2.41.43-4.87.37-7.26-.16-2.39-.53-4.65-1.53-6.64-2.93-2-1.4-3.71-3.19-5.01-5.25-1.31-2.06-2.2-4.37-2.62-6.77Z"/>
  <path class="cls-11" d="M896.02,548.2c3.19-3.24,5.55-7.2,6.87-11.55,1.33-4.35,1.58-8.95.73-13.42,0,0-3.76-21.43-24.08-24.42-7.5-1.02-15.11.7-21.45,4.83-2.43,1.52-4.69,3.3-6.75,5.3-7.02,6.95-25.82,28.01-25.82,28.01l.65,3.76c7.52,3.63,31.86,11.83,39.59,14.2,9.75,2.98,22.31,1.49,30.26-6.72ZM857.12,535.09c-.63-3.62-.18-7.35,1.3-10.72,1.49-3.36,3.93-6.21,7.04-8.19,3.1-1.97,6.72-2.98,10.4-2.9s7.25,1.26,10.26,3.37c3.01,2.11,5.33,5.07,6.66,8.5s1.62,7.17.82,10.76c-.8,3.59-2.64,6.86-5.3,9.4-2.66,2.54-6.01,4.24-9.63,4.88-2.41.43-4.87.37-7.26-.16-2.39-.53-4.65-1.53-6.64-2.93-2-1.4-3.71-3.19-5.01-5.25-1.31-2.06-2.2-4.37-2.62-6.77Z"/>
  <path class="cls-6" d="M896.54,551.98c3.19-3.23,5.56-7.19,6.89-11.53,1.33-4.35,1.59-8.95.76-13.41,0,0-3.78-21.45-24.08-24.42-7.5-1.01-15.12.7-21.47,4.81-2.42,1.53-4.67,3.31-6.72,5.32-7.08,6.93-25.89,27.95-25.89,27.95,0,0,30.89,15.09,40.26,17.97,9.73,3.05,22.29,1.56,30.26-6.68ZM856.98,535.17c-.64-3.62-.19-7.35,1.29-10.72,1.48-3.37,3.93-6.22,7.03-8.19,3.1-1.98,6.72-2.99,10.4-2.91,3.68.08,7.25,1.25,10.26,3.36,3.01,2.11,5.33,5.07,6.66,8.5,1.33,3.43,1.62,7.17.82,10.76-.8,3.59-2.64,6.87-5.3,9.41-2.66,2.54-6.01,4.24-9.63,4.88-2.41.44-4.88.4-7.27-.12-2.39-.52-4.66-1.52-6.66-2.92-2-1.4-3.71-3.2-5.01-5.26-1.31-2.07-2.19-4.38-2.59-6.8v.02Z"/>
  <path class="cls-6" d="M893.68,528.66c-.67-3.78-2.49-7.27-5.22-9.97-2.73-2.71-6.23-4.5-10.02-5.14,3.37.86,6.37,2.81,8.53,5.54,2.16,2.73,3.37,6.09,3.44,9.57.07,3.48-1,6.88-3.05,9.7-2.05,2.81-4.96,4.88-8.3,5.88-3.33,1-6.9.88-10.16-.34-3.26-1.22-6.03-3.47-7.89-6.42-1.86-2.94-2.7-6.41-2.4-9.88.3-3.47,1.73-6.74,4.07-9.32-2.36,2.2-4.1,4.97-5.07,8.05-.96,3.07-1.11,6.35-.43,9.5.68,3.15,2.17,6.07,4.32,8.47,2.15,2.4,4.89,4.2,7.95,5.22,3.06,1.03,6.33,1.24,9.49.61,3.16-.62,6.11-2.05,8.55-4.15,2.44-2.1,4.3-4.81,5.38-7.84,1.09-3.03,1.36-6.3.8-9.47Z"/>
  <path class="cls-11" d="M893.68,528.66c-.67-3.78-2.49-7.27-5.22-9.97-2.73-2.71-6.23-4.5-10.02-5.14,3.37.86,6.37,2.81,8.53,5.54,2.16,2.73,3.37,6.09,3.44,9.57.07,3.48-1,6.88-3.05,9.7-2.05,2.81-4.96,4.88-8.3,5.88-3.33,1-6.9.88-10.16-.34-3.26-1.22-6.03-3.47-7.89-6.42-1.86-2.94-2.7-6.41-2.4-9.88.3-3.47,1.73-6.74,4.07-9.32-2.36,2.2-4.1,4.97-5.07,8.05-.96,3.07-1.11,6.35-.43,9.5.68,3.15,2.17,6.07,4.32,8.47,2.15,2.4,4.89,4.2,7.95,5.22,3.06,1.03,6.33,1.24,9.49.61,3.16-.62,6.11-2.05,8.55-4.15,2.44-2.1,4.3-4.81,5.38-7.84,1.09-3.03,1.36-6.3.8-9.47Z"/>
  <path class="cls-9" d="M136.98,872.7c-.61,4.51-.12,9.09,1.43,13.37,1.55,4.27,4.12,8.11,7.48,11.17,0,0,15.89,14.88,33.89,5.04,6.62-3.71,11.68-9.67,14.27-16.81.99-2.68,1.7-5.47,2.1-8.3,1.45-9.77,3.82-37.82,3.82-37.82l-2.77-2.6c-8.19,1.62-32.57,9.66-40.18,12.42-9.48,3.51-18.64,12.25-20.05,23.54ZM175.94,859.82c2.69,2.51,4.57,5.77,5.41,9.35.84,3.58.59,7.33-.7,10.78-1.29,3.44-3.58,6.43-6.57,8.57-2.99,2.14-6.55,3.35-10.23,3.47-3.68.12-7.31-.85-10.43-2.79-3.12-1.94-5.6-4.77-7.12-8.12-1.52-3.35-2.01-7.08-1.41-10.71.6-3.63,2.27-7,4.78-9.68,3.38-3.58,8.04-5.68,12.97-5.83,4.92-.15,9.71,1.66,13.3,5.03v-.06Z"/>
  <path class="cls-4" d="M134.29,870.05c-.61,4.5-.12,9.09,1.43,13.36s4.12,8.1,7.48,11.16c0,0,15.89,14.87,33.89,5.06,6.62-3.7,11.69-9.67,14.27-16.81,1-2.72,1.71-5.53,2.1-8.4,1.45-9.77,3.82-37.82,3.82-37.82,0,0-33.75,6.47-42.95,9.81-9.48,3.53-18.64,12.27-20.05,23.64ZM176.02,859.75c2.69,2.51,4.57,5.77,5.41,9.35.84,3.58.59,7.33-.7,10.78-1.29,3.44-3.58,6.43-6.57,8.57-2.99,2.15-6.55,3.35-10.23,3.47-3.68.12-7.31-.85-10.43-2.79-3.12-1.94-5.6-4.77-7.12-8.12s-2.01-7.08-1.41-10.71c.6-3.63,2.27-7,4.78-9.68,1.66-1.8,3.66-3.24,5.88-4.26,2.22-1.02,4.63-1.58,7.07-1.66,2.44-.08,4.88.32,7.16,1.19,2.29.87,4.38,2.18,6.15,3.86Z"/>
  <path class="cls-9" d="M150.54,887.03c2.8,2.62,6.35,4.32,10.16,4.84,3.8.53,7.68-.14,11.09-1.9-3.22,1.33-6.78,1.57-10.14.69-3.36-.88-6.35-2.85-8.49-5.59-2.14-2.74-3.33-6.11-3.38-9.59-.05-3.48,1.04-6.88,3.1-9.68,2.06-2.8,4.99-4.85,8.33-5.83,3.34-.98,6.91-.84,10.16.39,3.25,1.24,6.01,3.5,7.85,6.46,1.84,2.95,2.67,6.42,2.35,9.89.57-3.17.3-6.44-.78-9.48-1.08-3.04-2.93-5.74-5.36-7.85-2.44-2.11-5.38-3.55-8.54-4.17-3.16-.63-6.43-.42-9.49.59-3.06,1.02-5.8,2.81-7.96,5.21-2.16,2.4-3.65,5.31-4.34,8.46-.69,3.15-.55,6.42.41,9.5.96,3.08,2.7,5.85,5.05,8.06Z"/>
  <path class="cls-9" d="M779.31,341.92c.44-3.19.09-6.45-1.01-9.48-1.1-3.03-2.92-5.75-5.3-7.92,0,0-11.28-10.5-24.08-3.59-4.68,2.62-8.28,6.83-10.13,11.87-.73,1.91-1.25,3.89-1.56,5.9-1.03,6.93-2.73,26.9-2.73,26.9l1.98,1.85c5.82-1.15,23.11-6.85,28.53-8.8,6.79-2.46,13.3-8.66,14.29-16.73ZM751.66,351.08c-1.91-1.78-3.24-4.09-3.83-6.63-.59-2.54-.42-5.2.49-7.65.92-2.44,2.54-4.56,4.66-6.08,2.12-1.52,4.64-2.38,7.25-2.47,2.61-.09,5.18.6,7.4,1.97,2.22,1.37,3.98,3.38,5.06,5.75,1.08,2.38,1.43,5.02,1.01,7.59-.42,2.57-1.6,4.97-3.38,6.87-2.39,2.55-5.7,4.05-9.2,4.17-3.5.12-6.9-1.16-9.46-3.54Z"/>
  <path class="cls-4" d="M781.23,343.85c.44-3.19.09-6.44-1.01-9.48-1.1-3.03-2.92-5.75-5.3-7.92,0,0-11.28-10.51-24.08-3.59-4.69,2.63-8.29,6.86-10.13,11.91-.73,1.91-1.25,3.89-1.55,5.91-1.03,6.93-2.73,26.9-2.73,26.9,0,0,23.98-4.6,30.51-6.95,6.54-2.35,13.28-8.7,14.29-16.77ZM751.6,351.17c-1.28-1.18-2.31-2.6-3.03-4.18-.73-1.58-1.13-3.29-1.18-5.02-.06-1.74.23-3.47.85-5.09.62-1.63,1.56-3.11,2.75-4.37,1.78-1.9,4.09-3.24,6.63-3.83,2.54-.59,5.2-.42,7.64.5,2.44.92,4.56,2.54,6.08,4.67,1.52,2.12,2.38,4.65,2.46,7.25.09,2.61-.6,5.18-1.98,7.4-1.38,2.21-3.38,3.97-5.76,5.05-2.38,1.08-5.02,1.42-7.59,1-2.57-.43-4.96-1.6-6.87-3.39Z"/>
  <path class="cls-9" d="M769.71,331.81c-1.99-1.87-4.51-3.07-7.21-3.45-2.7-.38-5.46.09-7.88,1.35,2.28-.94,4.81-1.11,7.2-.49,2.39.63,4.51,2.02,6.03,3.97,1.52,1.94,2.37,4.33,2.4,6.8.03,2.47-.74,4.88-2.2,6.87-1.46,1.99-3.54,3.44-5.91,4.14-2.37.7-4.9.6-7.21-.27-2.31-.88-4.26-2.49-5.57-4.58-1.31-2.1-1.9-4.56-1.67-7.02-.4,2.25-.21,4.57.55,6.72.77,2.16,2.08,4.07,3.81,5.57,1.73,1.5,3.82,2.52,6.06,2.96,2.24.45,4.56.3,6.73-.42,2.17-.72,4.12-1.99,5.64-3.69,1.53-1.7,2.59-3.77,3.08-6,.49-2.23.39-4.56-.28-6.74-.68-2.19-1.91-4.15-3.58-5.72Z"/>
  <path class="cls-12" d="M381.76,751.01h77.93s-6.89-12.61-26.96-10.71c-19.16,1.74-20.13-6.18-29.88-7.15-9.75-.97-17.84,6.49-21.1,17.86Z"/>
  <path class="cls-12" d="M435.34,683.39h115.34s-10.19-18.55-39.92-15.87c-28.37,2.59-29.79-9.12-44.13-10.5-14.33-1.39-26.47,9.56-31.29,26.37Z"/>
  <path class="cls-12" d="M285.75,510.99h75.46s-6.68-12.12-26.1-10.36c-18.55,1.68-19.5-5.99-28.91-6.91-9.41-.92-17.29,6.28-20.44,17.27Z"/>
  <g class="cls-14">
    <path class="cls-1" d="M579.88,291.34c1.66,2.99-12.1,54.99-26.16,81.59-4.79,9.08-16.01,12.36-26.45,12.25-13.6-.15-23.62-17.42-39.65-16.81-14.29.57-18.74,12.19-32.27,16.81-26.92,9.27-51.52-13.24-55.81-30.47-5.44-21.77-4.68-37.11-3.4-65.56,0,.06,156.12-47.05,183.75,2.19Z"/>
  </g>
  <path class="cls-6" d="M415.42,173.99c8.53,27.88,31.02,102.52,40.26,130.15,2.48,7.38,5.15,15.04,10.74,20.44,5.81,5.16,13.25,8.09,21.01,8.3,7.66.19,15.32-.51,22.82-2.1,6.3-1.09,13.11-2.4,17.48-7.08,2.9-3.59,4.87-7.83,5.74-12.36,12.61-46.84,30.38-90.69,30.38-137.21-49.42-9.64-99.56-12.61-148.35-.19"/>
  <g class="cls-13">
    <path class="cls-1" d="M480.41,332.27c1.81-.88,3.43-2.12,4.75-3.63,1.33-1.51,2.34-3.28,2.98-5.19,1.26-3.82,2-7.79,2.21-11.81,2.1-21.64,4.1-43.37,2.71-65.14-.74-11.7-2.63-23.74-8.82-33.73l-3.83,119.5Z"/>
  </g>
  <g class="cls-13">
    <path class="cls-1" d="M532.14,262.97c-.38-18.01-4.2-27.32-4.33-32.84-.13-5.53-1.07-7.04,2.21-11.43,3.28-4.39,8.66-7.35,13.49-10.51,4.83-3.15,9.69-6.91,11.32-12.38.67-2.1.8-6.3-1.37-7.23-1.41-.53-3.36,1.39-4.68,2.1-6.32,3.34-12.25,7.39-17.65,12.08-4.4,3.39-7.83,7.86-9.96,12.99-2.98,8.41.27,17.8,3.51,26.2"/>
  </g>
  <path class="cls-9" d="M385.66,159.8c-2.96-.59-6.02-.36-8.85.67-2.83,1.03-5.33,2.81-7.22,5.16-3.22,4.2-4.62,9.94-9.22,12.44-3.53,1.91-7.8,1.22-11.81,1.43-3.87.22-7.64,1.35-11,3.29-3.36,1.95-6.21,4.65-8.33,7.91-2.12,3.25-3.44,6.96-3.86,10.81-.42,3.86.07,7.76,1.43,11.4,1.18,3.11,3.03,6.3,2.1,9.54-1.07,3.95-5.55,5.69-8.53,8.41-5.09,4.75-5.55,13.28-1.85,19.16,1.98,2.87,4.64,5.21,7.73,6.81,3.1,1.6,6.54,2.42,10.02,2.39-1.95,7.42,2.65,15.59,9.5,18.91,6.85,3.32,16.47,4.6,24.14,4.6,11.14,0,15.19-3.66,19.48-10.02,4.29-6.37,13.01-94.35,16.81-100.99"/>
  <path class="cls-4" d="M332.21,228.49c-.13-.26-.22-.55-.27-.84-.2-.83-.31-1.67-.31-2.52-.07-3.17.82-6.28,2.56-8.93,1.17-1.86,2.73-3.45,4.58-4.64,2.14-1.28,4.49-2.19,6.93-2.69,2.54-.63,5.23-1.01,7.9-1.74,2.75-.6,5.29-1.93,7.35-3.85,1.92-2.07,3.28-4.59,3.95-7.33.66-2.58,1.09-5.22,1.28-7.88.11-4.64,1.13-9.21,3.03-13.45,1.45-2.85,3.87-5.09,6.83-6.3.81-.29,1.65-.46,2.5-.5.29-.05.59-.05.88,0-1.1.15-2.19.42-3.24.82-2.76,1.32-4.99,3.54-6.3,6.3-1.74,4.18-2.66,8.65-2.71,13.17-.17,2.73-.59,5.44-1.26,8.09-.7,2.93-2.15,5.62-4.2,7.82-2.2,2.08-4.91,3.53-7.86,4.2-2.75.71-5.46,1.09-7.94,1.66-2.35.46-4.61,1.31-6.68,2.5-1.75,1.08-3.26,2.51-4.43,4.2-1.69,2.49-2.65,5.4-2.77,8.41-.02,2.29.29,3.49.19,3.51Z"/>
  <path class="cls-4" d="M382.93,176.44c-1.19.72-2.25,1.63-3.13,2.71-2.15,3.13-3.26,6.86-3.15,10.65,0,2.4.19,5.04.27,7.9.22,3.1-.14,6.22-1.07,9.18-1.24,3.26-3.49,6.04-6.41,7.94-3.06,2.01-6.37,3.59-9.86,4.71-3.4,1.09-6.73,2.41-9.96,3.95-2.95,1.49-5.51,3.65-7.48,6.3-3.17,4.66-4.96,10.11-5.17,15.74-.19,3.81-.1,7.63.25,11.43,0,1.24.17,2.27.23,3.11.06.36.06.73,0,1.09-.12-.35-.2-.71-.23-1.07-.1-.71-.27-1.74-.44-3.09-.53-3.81-.73-7.67-.61-11.51.11-5.81,1.9-11.47,5.15-16.28,2.03-2.78,4.7-5.05,7.77-6.6,3.27-1.58,6.65-2.93,10.11-4.03,3.39-1.09,6.62-2.62,9.6-4.56,2.75-1.77,4.88-4.37,6.07-7.42.91-2.84,1.29-5.83,1.11-8.8,0-2.84-.25-5.48-.15-7.94-.03-3.93,1.23-7.76,3.59-10.91.68-.84,1.5-1.55,2.44-2.1.32-.19.68-.32,1.05-.4Z"/>
  <path class="cls-6" d="M404.47,147.49c-3.24-4.69-11.12-2.84-16.01,0-2.2,1.12-4.1,2.73-5.56,4.72-1.46,1.99-2.43,4.29-2.84,6.71-1.51,5.61-.97,11.56,1.51,16.81,1.29,2.57,3.3,4.72,5.79,6.16,2.49,1.44,5.35,2.12,8.22,1.95,4.11-.69,7.78-2.95,10.25-6.3,2.44-3.32,4.43-6.94,5.93-10.78"/>
  <g class="cls-14">
    <path class="cls-1" d="M404.47,147.49c-3.24-4.69-11.12-2.84-16.01,0-2.2,1.12-4.1,2.73-5.56,4.72-1.46,1.99-2.43,4.29-2.84,6.71-1.51,5.61-.97,11.56,1.51,16.81,1.29,2.57,3.3,4.72,5.79,6.16,2.49,1.44,5.35,2.12,8.22,1.95,4.11-.69,7.78-2.95,10.25-6.3,2.44-3.32,4.43-6.94,5.93-10.78"/>
  </g>
  <path class="cls-9" d="M390.37,162.47c0,.15-.82-.23-2.1-.44-1.6-.3-3.25-.08-4.7.65-1.45.73-2.63,1.91-3.34,3.37-.57,1.13-.72,1.93-.88,1.91-.17-.02-.27-.88.17-2.1.63-1.76,1.91-3.21,3.57-4.06,1.67-.82,3.6-.97,5.38-.4,1.37.23,2,.86,1.91,1.07Z"/>
  <path class="cls-9" d="M391.49,155.05c0,.15-.78-.27-1.98-.44-1.55-.21-3.13.05-4.54.74-1.43.73-2.71,1.72-3.78,2.92-.84.92-1.35,1.53-1.47,1.45-.13-.08.15-.84.86-1.93.98-1.46,2.31-2.65,3.86-3.47,1.61-.81,3.46-.99,5.19-.5,1.33.46,1.85,1.13,1.85,1.24Z"/>
  <path class="cls-9" d="M387.66,148.1c-.13-.27,2.1-.95,4.37.42s2.71,3.61,2.42,3.66c-.29.04-1.11-1.62-2.98-2.73-1.87-1.11-3.78-1.03-3.8-1.35Z"/>
  <path class="cls-9" d="M397.64,144.34c.21-.19,1.11.61,1.28,2.1.17,1.49-.53,2.4-.8,2.27-.27-.13-.15-1.05-.29-2.1-.15-1.05-.44-2.08-.19-2.27Z"/>
  <path class="cls-9" d="M381.57,177.18c-.13,0-.38-.86-.23-2.31.22-1.91,1.02-3.7,2.3-5.13,1.28-1.43,2.98-2.43,4.85-2.85,1.41-.32,2.31-.17,2.31,0s-.84.27-2.1.76c-1.64.59-3.1,1.57-4.25,2.87-1.15,1.3-1.96,2.87-2.35,4.56-.31,1.2-.36,2.1-.53,2.1Z"/>
  <path class="cls-9" d="M389.93,184.3s-.65-.59-1.05-1.87c-.5-1.69-.46-3.49.12-5.15.58-1.66,1.67-3.1,3.11-4.11,1.11-.76,1.93-.92,1.97-.8-1.74,1.42-3.12,3.22-4.03,5.27-.55,2.18-.59,4.46-.13,6.66Z"/>
  <path class="cls-9" d="M459.15,67.92c-6.58-4.2-8.17-13.87-4.6-20.78,3.57-6.91,11.14-11.16,18.91-12.4,5.59-.85,11.31-.36,16.68,1.42,5.37,1.78,10.24,4.81,14.23,8.83,4.2,4.37,7.69,10.07,13.45,12.08,5.06,1.77,10.65.17,15.97.86,3.53.65,6.87,2.08,9.78,4.18,2.91,2.1,5.31,4.83,7.03,7.98,3.4,6.35,5.44,13.35,5.99,20.53.78,6.56,1.3,13.74,5.84,18.53,4.54,4.79,11.43,5.63,16.94,8.95,5.1,3.32,8.68,8.52,9.97,14.46,1.29,5.94.19,12.16-3.07,17.29-2.1,3.19-5.32,6.09-5.57,9.96-.23,3.51,2.1,6.64,3.11,10,2.73,8.64,4.52,14.04-4.54,14.56-4.58.25-15.11-10.86-19.67-10.93-6.91,0-20.91-1.47-23.51,2.27-5.13,7.33-3.26,34.82-11.28,30.87-3.36-1.64-6.54-4.37-10.27-4.2-3.74.17-6.66,3.45-10.34,4.2-4.79.95-9.35-2.61-12.21-6.58-2.86-3.97-4.83-8.64-8.41-11.89-4.79-4.2-11.51-5.32-17.57-7.4-6.7-2.31-12.82-6.04-17.96-10.92-5.14-4.88-9.17-10.81-11.82-17.38-2.65-6.57-3.86-13.64-3.56-20.72.31-7.08,2.13-14.01,5.35-20.33"/>
  <path class="cls-9" d="M463.6,61.21c-3.3-2-6.97-3.29-10.8-3.79-3.83-.5-7.71-.2-11.41.89-3.68,1.17-6.97,3.31-9.54,6.2-2.56,2.89-4.3,6.41-5.02,10.21-.73,4.71.23,9.92-2.31,13.93-3.51,5.51-11.83,5.9-15.91,10.99-2.82,3.53-2.94,8.41-2.42,12.96.53,4.56,1.58,9.04.65,13.45-1.39,6.58-.9,13.22-4.94,18.58-4.03,5.36-12.61,9.6-12.33,16.05.27,6.45,4.83,17.27,10.91,19.52,4.87,1.81,9.43-3.61,14.58-4.2,8.1-1,16.3-.72,24.31.84,4.93,1.23,9.93,2.15,14.98,2.75,5.11.57,10.23-.88,14.29-4.03,3.81-3.34,5.4-9.48,2.59-13.7"/>
  <path class="cls-7" d="M504.18,206.6s-.55-13.36-.55-13.22,22.92-3.87,27.61-33.79c2.33-14.88,1.53-39.27.23-59.19-1.18-17.94-13.11-39.92-30.99-38.01l-55.79,14.25c-2.62.28-5.04,1.53-6.78,3.51-1.74,1.98-2.67,4.54-2.61,7.18l4.52,101.78"/>
  <path class="cls-9" d="M521.05,118.6c.03,1.01-.33,1.99-1.02,2.73-.69.74-1.64,1.18-2.65,1.22-.5.05-1,0-1.47-.16-.48-.15-.91-.4-1.29-.73-.37-.33-.68-.73-.89-1.18-.22-.45-.34-.94-.36-1.44-.01-1,.37-1.97,1.06-2.7.69-.73,1.64-1.15,2.64-1.19.49-.04.98.01,1.45.16.47.15.9.39,1.27.72.37.32.68.71.89,1.15.22.44.35.92.37,1.41Z"/>
  <path class="cls-9" d="M526.2,113.03c-.46.5-3.38-1.64-7.5-1.62-4.12.02-7.14,2.1-7.61,1.58-.46-.53.27-1.11,1.58-2.1,1.79-1.25,3.92-1.91,6.09-1.89,2.14-.02,4.23.65,5.97,1.91,1.24,1.01,1.7,1.91,1.47,2.12Z"/>
  <path class="cls-9" d="M480.48,118.6c.03,1.01-.34,2-1.04,2.74-.69.74-1.65,1.18-2.66,1.21-.49.04-.98-.02-1.44-.17-.47-.15-.9-.4-1.27-.72-.37-.32-.67-.71-.89-1.15-.22-.44-.34-.92-.37-1.41-.01-1,.37-1.97,1.06-2.7.69-.73,1.64-1.15,2.64-1.19.97-.08,1.94.24,2.68.87.74.63,1.21,1.54,1.29,2.51Z"/>
  <path class="cls-9" d="M485.62,113.89c-.46.5-3.38-1.64-7.5-1.62-4.12.02-7.15,2.1-7.61,1.58-.46-.53.28-1.11,1.58-2.1,1.79-1.25,3.92-1.91,6.09-1.89,2.14-.02,4.23.65,5.97,1.91,1.28.99,1.7,1.89,1.47,2.12Z"/>
  <path class="cls-9" d="M500.75,144.46c2.18-.68,4.43-1.09,6.7-1.22,1.05,0,2.1-.32,2.23-1.03.07-1.09-.17-2.18-.72-3.13-1.01-2.54-2.1-5.21-3.13-8.03-4.37-11.41-7.52-20.8-7.06-21.01.46-.21,4.37,8.95,8.72,20.36,1.05,2.82,2.1,5.51,3.01,8.07.68,1.29.88,2.78.57,4.2-.16.37-.4.7-.7.96-.3.27-.66.46-1.04.57-.58.17-1.18.25-1.79.25-2.25.3-4.54.3-6.79,0Z"/>
  <path class="cls-3" d="M503.63,193.32c-14.08.25-27.96-3.43-40.07-10.61,0,0,9.35,24.27,39.27,21.39l.8-10.78Z"/>
  <path class="cls-6" d="M498.96,154.42c-.79-.97-1.8-1.74-2.96-2.22-1.16-.48-2.42-.66-3.66-.53-.91.09-1.79.36-2.6.79-.81.43-1.51,1.02-2.09,1.73-.55.69-.87,1.54-.93,2.42-.06.88.16,1.76.62,2.52.67.74,1.54,1.26,2.5,1.5.97.24,1.98.19,2.92-.16,1.94-.7,3.72-1.77,5.25-3.15.47-.32.87-.74,1.18-1.22.15-.23.24-.5.24-.78s-.08-.55-.24-.78"/>
  <path class="cls-9" d="M488.54,147.36c.67,0,.69,4.43,4.52,7.61,3.83,3.17,8.61,2.67,8.66,3.3,0,.27-1.07.86-3.09.92-2.62.03-5.17-.85-7.21-2.5-1.94-1.56-3.2-3.83-3.51-6.3-.17-1.95.23-3.07.63-3.03Z"/>
  <path class="cls-9" d="M487.47,106.66c-.4,1.11-4.52.61-9.37,1.2-4.85.59-8.76,1.91-9.39.92-.29-.48.38-1.56,1.95-2.65,2.1-1.37,4.49-2.23,6.98-2.5,2.47-.31,4.99-.02,7.33.84,1.79.78,2.67,1.66,2.5,2.19Z"/>
  <path class="cls-9" d="M524.66,101.1c-.74.92-3.57,0-7,0s-6.31.63-6.98-.34c-.29-.48.17-1.43,1.43-2.31,1.69-1.07,3.67-1.61,5.67-1.55s3.94.71,5.57,1.87c1.22.9,1.62,1.87,1.3,2.33Z"/>
  <path class="cls-9" d="M464.31,66.84c-3.4-2.4-7.28-4.04-11.37-4.81-4.09-.77-8.3-.64-12.34.37-7.98,2.29-14.6,9.48-14.85,17.61-.19,5.27,2.1,10.88-.25,15.65-2.35,4.77-7.73,6.3-11.62,9.67-3.01,2.61-5.06,6.15-5.83,10.06-.76,3.91-.19,7.97,1.63,11.52,3.26,6.01,10.13,10.51,10.72,17.17.53,6.3-4.83,11.75-6.13,18.01l52,29.8c11.79-25.89-9.66-35.72-10.82-41.69-2.65-13.41,7.16-18.74,6.54-27.55-.34-4.52-3.53-8.28-6.18-12-2.65-3.72-5-8.4-3.36-12.61,2.1-5.53,9.39-6.98,13.78-11.03,1.81-1.7,3.11-3.88,3.76-6.28.65-2.4.62-4.93-.09-7.32-.8-2.38-2.23-4.49-4.14-6.12-1.91-1.63-4.22-2.71-6.7-3.12"/>
  <path class="cls-9" d="M461.1,60.1c0,3,.64,5.97,1.91,8.7,1.27,2.72,3.12,5.14,5.42,7.07,2.3,1.93,5,3.33,7.91,4.1,2.9.77,5.94.89,8.9.35,4.58-.84,9.58-3.15,13.53-.71,3.95,2.44,4.33,8.83,8.03,12.02,5.27,4.58,13.66.29,20.34,2.27,5.17,1.53,8.4,6.49,11.85,10.63,3.45,4.14,8.57,8.11,13.74,6.58-.17-4.66-.87-9.29-2.1-13.78-1.24-4.54-4.02-8.52-7.86-11.24-2.26-1.17-4.46-2.45-6.6-3.85-4.2-3.47-5.29-9.5-7.94-14.33-1.73-3.1-4.17-5.75-7.12-7.72-2.95-1.97-6.33-3.21-9.86-3.61-5.88-.61-11.94,1.16-17.67-.29-4.2-1.07-7.94-3.82-12.25-4.62-8.4-1.6-16.14,4.41-22.21,10.38"/>
  <path class="cls-4" d="M582.7,150.26c.17-.06.33-.13.48-.23.46-.28.84-.67,1.11-1.13.42-.95.58-2,.48-3.03-.11-1.04-.48-2.02-1.09-2.87-.74-1.31-1.85-2.38-3.19-3.07-1.56-.81-3.16-1.51-4.81-2.1-1.85-.55-3.57-1.46-5.06-2.67-1.52-1.55-2.52-3.53-2.88-5.67-.51-2.25-.65-4.71-1.07-7.25-.27-2.76-1.26-5.4-2.88-7.65-3.49-4.58-9.18-7.02-13.45-11.33-2.14-2.25-3.73-4.96-4.66-7.92-.99-3.12-1.69-6.33-2.1-9.58-.92-6.58-1.85-13.93-6.3-19.94-2.15-3.03-5.37-5.12-9.02-5.84-3.49-.5-7.04-.41-10.5.25-3.21.61-6.48.8-9.73.59-3.08-.37-5.92-1.87-7.97-4.2-4.08-4.39-6.43-10.34-11.43-13.36-2.24-1.37-4.74-2.26-7.35-2.62-2.6-.36-5.25-.18-7.78.52-4.21,1.22-7.78,4.04-9.94,7.86-1.65,2.8-2.54,5.98-2.58,9.22-.05,2.04.28,4.07.97,5.99.22.67.51,1.31.88,1.91,0,0-.27-.67-.67-2.1-.58-1.91-.83-3.91-.74-5.9.14-3.14,1.06-6.2,2.69-8.89,2.15-3.58,5.6-6.19,9.62-7.29,2.41-.65,4.93-.8,7.41-.44,2.47.36,4.84,1.23,6.97,2.54,2.3,1.59,4.27,3.62,5.78,5.97,1.63,2.59,3.45,5.06,5.42,7.4,1.1,1.2,2.4,2.21,3.83,2.98,1.48.77,3.09,1.27,4.75,1.47,3.35.26,6.72.08,10.02-.55,3.31-.63,6.7-.71,10.04-.25,3.39.67,6.39,2.6,8.41,5.4,1.97,2.84,3.4,6.03,4.2,9.39.8,3.31,1.4,6.66,1.81,10.04.44,3.32,1.18,6.59,2.21,9.77.99,3.14,2.68,6.01,4.94,8.41,4.52,4.48,10.17,6.85,13.45,11.16,1.58,2.05,2.59,4.48,2.94,7.04.42,2.48.59,4.96,1.13,7.29.4,2.26,1.47,4.36,3.07,6.01,1.55,1.32,3.35,2.31,5.29,2.92,1.63.55,3.23,1.19,4.79,1.91,1.27.63,2.33,1.6,3.07,2.82.59.79.98,1.71,1.12,2.68.14.97.03,1.97-.32,2.89-.34.58-.8,1.08-1.35,1.47Z"/>
  <path class="cls-4" d="M393.02,170.88c-.22-.44-.39-.91-.51-1.39-.37-1.37-.55-2.78-.55-4.2.04-2.27.77-4.47,2.1-6.3,1.87-2.34,4.18-4.28,6.81-5.72,3.13-1.72,6.35-3.25,9.66-4.58,3.77-1.51,7.27-3.61,10.36-6.24,1.71-1.36,3.1-3.09,4.06-5.06.96-1.97,1.47-4.12,1.49-6.31-.13-4.58-2.56-8.93-3.7-13.89-.61-2.48-.61-5.08,0-7.56.33-1.23.91-2.38,1.7-3.38.77-.96,1.7-1.78,2.75-2.42,2.08-1.06,4.24-1.95,6.47-2.65,2.05-.62,3.92-1.72,5.47-3.19,1.34-1.51,2.15-3.41,2.31-5.42.15-1.95.15-3.91,0-5.86-.09-1.87-.01-3.75.23-5.61.31-1.71.82-3.38,1.51-4.98,2.16-4.82,6-8.7,10.8-10.91,1.28-.59,2.63-1.02,4.01-1.3.47-.12.96-.18,1.45-.19-1.82.46-3.59,1.08-5.29,1.87-4.52,2.3-8.11,6.09-10.15,10.74-.65,1.54-1.11,3.16-1.39,4.81-.22,1.81-.27,3.64-.17,5.46.16,2,.16,4.01,0,6.01-.16,2.22-1.05,4.32-2.52,5.99-3.24,3.43-8.24,3.8-12.12,6.07-1,.56-1.88,1.31-2.57,2.22-.7.91-1.2,1.95-1.48,3.06-.56,2.31-.56,4.73,0,7.04,1.07,4.73,3.57,9.16,3.72,14.1.08,2.4-.5,4.79-1.66,6.89-1.09,1.98-2.51,3.75-4.2,5.25-3.19,2.63-6.8,4.72-10.68,6.18-3.3,1.29-6.52,2.77-9.64,4.43-2.56,1.34-4.83,3.18-6.68,5.4-1.28,1.75-2.01,3.84-2.1,6.01-.06,1.89.11,3.78.51,5.63Z"/>
  <path class="cls-4" d="M432.06,153.44c1.32.12,2.66-.05,3.91-.48,1.65-.71,3.12-1.78,4.3-3.14,1.18-1.36,2.04-2.96,2.51-4.7.67-2.39.78-4.91.34-7.35-.5-2.87-1.26-5.68-2.27-8.4-1.13-3.04-2.03-6.17-2.67-9.35-.74-3.5-.48-7.14.74-10.51,1.39-3.57,4.54-5.67,6.56-8.15,1.93-2.47,3.27-5.34,3.91-8.41,1.41-5.88,1.6-11.6,3.45-15.99,1.19-3.58,3.54-6.67,6.68-8.76.87-.52,1.82-.9,2.82-1.13.34-.07.7-.11,1.05-.13-1.27.4-2.49.94-3.64,1.62-2.94,2.16-5.11,5.2-6.2,8.68-1.7,4.2-1.81,9.88-3.17,15.97-.65,3.25-2.04,6.3-4.06,8.93-2.21,2.65-5.15,4.64-6.31,7.88-1.15,3.17-1.39,6.6-.69,9.9.63,3.13,1.5,6.21,2.61,9.2,1.97,5.76,3.3,11.58,1.7,16.24-.53,1.82-1.47,3.49-2.75,4.88-1.28,1.39-2.87,2.46-4.64,3.13-.98.32-2.01.44-3.03.34-.39-.02-.77-.1-1.13-.25Z"/>
  <path class="cls-4" d="M572.7,175.08c.51-.38.89-.92,1.07-1.53.19-.89.09-1.81-.29-2.64-.38-.83-1.02-1.51-1.81-1.94-1.18-.6-2.48-.94-3.8-1.01-1.47-.15-3.09,0-4.85-.4-.97-.11-1.9-.44-2.72-.95-.82-.52-1.52-1.21-2.05-2.03-.94-1.97-1.14-4.2-.57-6.3.51-2.1,1.51-4.2,2.1-6.54.68-2.31.55-4.78-.38-7-.96-2.38-2.72-4.36-4.98-5.59-2.31-1.3-5.17-1.26-8.07-2.1-1.51-.4-2.9-1.14-4.08-2.16-1.18-1.02-2.11-2.29-2.73-3.72-1.31-2.91-1.84-6.11-1.53-9.29.23-3.19.97-6.3,1.51-9.52.69-3.16.72-6.43.11-9.6-.27-1.55-.87-3.02-1.75-4.31-.88-1.3-2.03-2.39-3.37-3.21-2.69-1.49-6.16-1.05-9.18-2.67-1.45-.85-2.62-2.12-3.34-3.64-.67-1.42-1.17-2.93-1.47-4.48-.41-2.9-1.23-5.73-2.44-8.41-.65-1.16-1.61-2.12-2.78-2.76-1.17-.64-2.49-.94-3.82-.86-2.62.2-5.22.62-7.77,1.24-2.5.61-5.11.53-7.57-.23-2.1-.88-4.08-2.03-5.88-3.43-3.12-2.32-6.79-3.81-10.65-4.33-2.93-.38-5.89-.21-8.76.48-2.44.64-4.77,1.6-6.96,2.86.12-.12.25-.23.4-.32.4-.29.81-.56,1.24-.8,1.64-.93,3.39-1.63,5.21-2.1,2.91-.77,5.94-1,8.93-.67,3.97.44,7.77,1.89,11.03,4.2,1.77,1.39,3.72,2.54,5.8,3.4,2.32.68,4.78.73,7.13.15,2.6-.67,5.25-1.1,7.92-1.3,1.46-.05,2.9.27,4.2.92,1.36.7,2.48,1.79,3.22,3.13,1.28,2.73,2.16,5.63,2.58,8.62.17,1.46.63,2.88,1.38,4.15.75,1.27,1.75,2.37,2.95,3.23,2.58,1.43,6.05.99,9.16,2.63,1.47.89,2.74,2.08,3.71,3.5.98,1.42,1.64,3.03,1.94,4.72.68,3.3.68,6.7,0,10-.55,3.24-1.28,6.3-1.51,9.43-.3,2.99.19,6.01,1.41,8.76.55,1.3,1.38,2.46,2.45,3.39,1.07.93,2.33,1.6,3.69,1.97,2.67.71,5.67.69,8.24,2.1,2.45,1.35,4.36,3.51,5.38,6.11.97,2.41,1.1,5.08.36,7.56-.67,2.35-1.68,4.41-2.1,6.49-.56,1.93-.41,3.99.42,5.82.45.74,1.06,1.38,1.79,1.86s1.55.79,2.41.91c1.66.34,3.28.32,4.77.48,1.39.1,2.74.5,3.97,1.16,1.01.55,1.77,1.48,2.1,2.58.25.79.25,1.64,0,2.44-.09.34-.26.65-.49.91-.23.26-.53.47-.85.6Z"/>
  <path class="cls-7" d="M443.56,266.63l-26.86-90.65s-36.62,7.5-33.07,43.58c3.55,36.08,12.36,78.8,28.24,109.58,15.89,30.78,21.08,41.35,38.45,38.94,17.38-2.42,26.9-15.93,30.78-35.38,3.89-19.46,5.49-105.3,5.49-105.3l-29.04-5.67-13.99,44.9Z"/>
  <path class="cls-7" d="M532.61,264.51l31.16-90.35s32.34,4.6,28.81,40.7c-3.53,36.1-12.12,83.48-27.99,114.27-15.87,30.79-21.2,41.37-38.62,38.96-17.42-2.42-26.88-15.93-30.78-35.39-3.91-19.46-4.94-109.29-4.94-109.29l29.08-2.1,13.28,43.2Z"/>
  <path class="cls-7" d="M519.14,227.25c-.09-3.15.64-6.26,2.11-9.04,1.47-2.78,3.64-5.13,6.29-6.82,10.61-7.48,26.01-22.69,26.01-22.69,3.49-7.86,2.1-22,1.74-23.93-.36-1.93-1.09-6.66-8.87-4.73,0,0-.82-3.28-6.31-2.69-5.48.59-5.95,3.3-5.95,3.3-2.15.28-4.27.8-6.3,1.56-2.1.99-5.17,5.17-4.98,7.71-2.52.21-4.93,1.1-6.98,2.58-2.1,2.1-5.06,4.39-5.06,8.41s3.8,5.4,6.81,5.19c0,0-10.82,3.72-12.86,4.2-2.04.48-19.12,7.8-16.41,18.03,2.71,10.23,2.46,8.68,1.89,14.35-.57,5.67,2.1,18.91,2.1,18.91l26.75-14.33Z"/>
  <path class="cls-3" d="M491.46,275.01c-.1-.36-.16-.74-.19-1.11,0-.74-.25-1.83-.36-3.24-.25-2.82-.51-6.89-.69-11.94-.38-10.06-.51-24-.27-39.38v-1.87.15c-1.1-3.5-1.85-7.11-2.25-10.76-.05-1.76.24-3.51.87-5.16.63-1.65,1.58-3.15,2.79-4.42,2.23-2.2,4.9-3.9,7.84-4.98,2.67-1.09,5.21-1.89,7.5-2.67,4.62-1.53,8.3-2.88,10.78-3.91,2.48-1.03,3.87-1.68,3.89-1.6.02.08-.29.23-.92.57-.63.34-1.55.84-2.79,1.41-2.46,1.16-6.11,2.61-10.7,4.2-2.27.84-4.81,1.66-7.42,2.77-2.79,1.07-5.32,2.72-7.44,4.83-1.11,1.18-1.98,2.58-2.55,4.1-.57,1.52-.83,3.14-.77,4.77.41,3.57,1.16,7.09,2.25,10.51v2.02c-.23,15.36-.21,29.27,0,39.34,0,5.04.23,9.12.34,11.93,0,1.3,0,2.37.15,3.24.04.4.03.8-.04,1.2Z"/>
  <path class="cls-3" d="M517.08,186.41c-.29,0-.19-1.79.23-3.85.42-2.06,1.01-3.7,1.3-3.64.29.06.19,1.79-.23,3.85-.42,2.06-1.01,3.7-1.3,3.64Z"/>
  <path class="cls-3" d="M529.68,182.77s.19-.63.67-1.64c.71-1.38,1.05-2.92.99-4.48-.18-1.1-.65-2.14-1.37-3-.71-.86-1.64-1.52-2.69-1.9-2.67-.9-5.55-.9-8.22,0-2.72.74-5.06,2.48-6.56,4.87-.6.96-.99,2.03-1.15,3.15-.16,1.12-.07,2.26.24,3.34.21.73.6,1.39,1.14,1.92.54.53,1.2.92,1.93,1.13.56.1,1.13.15,1.7.17-.54.32-1.18.41-1.79.25-.84-.16-1.64-.53-2.29-1.1-.65-.56-1.15-1.29-1.43-2.1-.41-1.2-.55-2.47-.41-3.72.13-1.26.54-2.47,1.19-3.55,1.58-2.65,4.13-4.58,7.1-5.4,2.91-.97,6.06-.91,8.93.17,1.19.47,2.23,1.25,3.01,2.27.78,1.01,1.27,2.22,1.42,3.49,0,1.68-.48,3.32-1.39,4.73-.28.51-.64.98-1.05,1.39Z"/>
  <path class="cls-3" d="M540.89,178.55c-.19,0,.55-2.1,1.09-5.38.34-1.91.23-3.86-.34-5.72-.4-1.08-1.02-2.07-1.82-2.9-.8-.83-1.76-1.49-2.82-1.93-2.14-.96-4.56-1.08-6.79-.34-1.81.66-3.42,1.78-4.67,3.26-1.11,1.43-2.02,3.01-2.71,4.69-.03-.52.05-1.03.23-1.51.39-1.33,1.02-2.58,1.87-3.68,1.28-1.66,2.99-2.94,4.94-3.7,2.46-.91,5.18-.81,7.57.27,1.2.51,2.28,1.26,3.17,2.21.89.95,1.56,2.08,1.98,3.31.58,2,.64,4.12.17,6.16-.3,1.33-.7,2.64-1.2,3.91-.36.9-.61,1.37-.67,1.34Z"/>
  <path class="cls-3" d="M548.03,176.34c-.15,0,0-1.03.27-2.58.4-2,.6-4.03.61-6.07-.02-2-.51-3.98-1.43-5.76-.74-1.34-1.47-2.1-1.35-2.1s1.01.38,2,1.74c1.21,1.82,1.87,3.95,1.87,6.14.02,2.14-.31,4.27-.97,6.3-.46,1.47-.86,2.37-1.01,2.33Z"/>
  <path class="cls-3" d="M516.93,222.53c-2.67,2.02-5.88,3.18-9.22,3.34-3.31.52-6.7.05-9.73-1.37,3.19.33,6.4.42,9.6.27,3.17-.51,6.3-1.26,9.35-2.25Z"/>
  <path class="cls-3" d="M546.98,337.61c-.13,0,.36-1.6.72-4.52.51-4.12.51-8.28,0-12.4-.97-10.5-5.91-24.33-10.51-39.73l-11.96-39.5c-1.43-4.96-2.63-9.01-3.49-12-.38-1.32-.67-2.42-.9-3.28-.12-.38-.2-.78-.25-1.18.19.35.35.73.46,1.11.29.84.65,1.91,1.09,3.22.95,2.96,2.25,7,3.85,11.91l12.25,39.4c4.62,15.38,9.48,29.29,10.28,39.92.44,4.2.31,8.44-.38,12.61-.18,1.12-.44,2.23-.76,3.32-.09.39-.22.76-.4,1.11Z"/>
  <path class="cls-3" d="M457.51,221.73c0,.43-.07.85-.19,1.26-.15.8-.44,2.1-.82,3.51-.78,3.05-2.1,7.42-3.68,12.78-1.58,5.36-3.74,11.7-6.16,18.72-1.22,3.51-2.5,7.19-3.91,10.97-1.38,3.94-3.03,7.79-4.94,11.51-3.95,7.65-8.4,14.5-11.05,21.37-2.37,6.05-3.79,12.43-4.2,18.91-.32,4.39,0,8.81.92,13.11.69,3.05,1.32,4.67,1.22,4.71-.21-.37-.38-.75-.51-1.15-.45-1.12-.83-2.27-1.11-3.45-1.11-4.33-1.55-8.8-1.3-13.26.37-6.62,1.79-13.14,4.2-19.31,2.67-7.02,7.12-13.93,11.03-21.49,1.87-3.7,3.51-7.51,4.9-11.41,1.41-3.76,2.73-7.44,3.97-10.93,2.46-6.98,4.62-13.3,6.31-18.62,1.68-5.32,3.11-9.64,3.99-12.61l1.03-3.47c.06-.39.16-.78.29-1.16Z"/>
  <path class="cls-6" d="M542.61,229.56l47.22-37.68s-10.25-20.15-30.24-18.58c-.15,17.63-8.24,35.74-16.98,56.25Z"/>
  <path class="cls-6" d="M418.15,175.65s-25.59-.42-35.55,32.65l49.97,14.35-14.41-47Z"/>
  <path class="cls-9" d="M563.79,228.03c.13-.12.29-.21.46-.27.48-.21.98-.36,1.49-.44,1.92-.3,3.87.12,5.5,1.16,1.14.71,2.08,1.69,2.75,2.86.74,1.36,1.11,2.9,1.05,4.45-.06,1.73-.67,3.39-1.74,4.75-1.18,1.43-2.79,2.44-4.6,2.86-1.8.46-3.7.3-5.4-.46-1.54-.75-2.83-1.93-3.72-3.4-.66-1.01-1.08-2.16-1.21-3.35-.14-1.2,0-2.41.4-3.54.41-1.13,1.07-2.16,1.94-2.99.87-.83,1.92-1.46,3.07-1.81.49-.17,1.01-.26,1.53-.25.17-.04.35-.04.53,0-.66.12-1.32.29-1.95.5-1.69.67-3.11,1.88-4.03,3.45-.62,1.17-.92,2.48-.86,3.8.05,1.32.46,2.61,1.18,3.72.81,1.33,1.99,2.4,3.4,3.07,1.53.68,3.24.82,4.85.4,1.64-.37,3.12-1.27,4.2-2.56.95-1.2,1.5-2.67,1.58-4.2.08-1.41-.22-2.82-.86-4.08-.6-1.08-1.45-2.01-2.48-2.69-1.51-1.01-3.32-1.48-5.13-1.34-1.32.13-1.95.48-1.95.4Z"/>
  <path class="cls-9" d="M566.58,243.2c-.15,0,.12-.9.21-2.33.13-1.84-.17-3.69-.88-5.4-.74-1.69-1.84-3.19-3.24-4.39-1.09-.92-1.89-1.34-1.83-1.47.06-.13.95.15,2.1.99,1.62,1.14,2.89,2.71,3.66,4.54.78,1.83,1.02,3.84.69,5.8-.02.81-.27,1.59-.71,2.27Z"/>
  <path class="cls-9" d="M566.46,236.48c.15-1.62.87-3.14,2.02-4.29,1.15-1.15,2.67-1.86,4.29-2.02-1.29.78-2.51,1.67-3.66,2.65-1.81,1.72-2.4,3.74-2.65,3.66Z"/>
  <path class="cls-9" d="M574.84,269.32s.1.15.23.48c.15.49.25,1,.27,1.51.05,1.64-.39,3.26-1.26,4.64-.87,1.39-2.14,2.49-3.63,3.15-1.43.59-3,.78-4.54.55-1.71-.24-3.3-1.02-4.54-2.23-1.29-1.34-2.11-3.05-2.35-4.9-.26-1.84.12-3.72,1.07-5.32.9-1.47,2.21-2.63,3.78-3.34,1.08-.55,2.27-.84,3.48-.85,1.21,0,2.41.27,3.49.81,1.09.54,2.03,1.32,2.76,2.29.73.97,1.22,2.09,1.43,3.28.09.51.09,1.04,0,1.55,0,.18-.04.36-.13.53-.04-.67-.14-1.34-.29-2-.47-1.75-1.52-3.29-2.98-4.37-1.1-.74-2.37-1.18-3.69-1.28-1.32-.09-2.64.17-3.83.75-1.41.67-2.6,1.73-3.4,3.07-.84,1.44-1.16,3.12-.92,4.77.2,1.66.94,3.21,2.1,4.41,1.09,1.11,2.51,1.85,4.06,2.1,1.41.24,2.86.1,4.2-.42,1.13-.46,2.14-1.18,2.94-2.1,1.17-1.39,1.84-3.14,1.89-4.96.06-1.43-.21-2.12-.13-2.14Z"/>
  <path class="cls-9" d="M559.44,270.5c.78.1,1.55.26,2.31.46,1.82.34,3.68.24,5.45-.29s3.39-1.47,4.72-2.76c1.05-.97,1.56-1.72,1.68-1.64.13.08-.25.92-1.24,2.1-1.3,1.49-3.01,2.59-4.91,3.16-1.9.57-3.92.59-5.83.06-.81-.16-1.57-.54-2.19-1.09Z"/>
  <path class="cls-9" d="M566.14,271.11c.82.09,1.6.35,2.3.77.7.42,1.3.99,1.76,1.67.57.58,1.01,1.28,1.28,2.05.28.77.38,1.59.31,2.4-.66-1.36-1.42-2.66-2.27-3.91-1.53-1.93-3.49-2.75-3.38-2.98Z"/>
  <path class="cls-9" d="M555.64,255.71s-.53-.29-1.01-1.22c-.65-1.3-.81-2.79-.46-4.2.28-1.08.83-2.07,1.62-2.86.78-.79,1.76-1.37,2.84-1.66,1.28-.36,2.64-.3,3.89.17,1.34.52,2.46,1.48,3.19,2.71.76,1.22,1.08,2.65.9,4.08-.17,1.31-.74,2.54-1.62,3.53-.59.72-1.34,1.29-2.19,1.67-.85.38-1.77.55-2.7.51s-1.84-.3-2.65-.76c-.81-.45-1.5-1.09-2.02-1.86-.35-.41-.55-.93-.57-1.47.25.44.53.86.84,1.26.86,1.07,2.06,1.81,3.4,2.1.98.17,1.98.09,2.91-.25.93-.34,1.75-.92,2.39-1.68.76-.89,1.24-1.97,1.38-3.13.13-1.23-.15-2.47-.8-3.53-.64-1.07-1.62-1.91-2.77-2.37-1.08-.42-2.27-.48-3.38-.17-.96.23-1.85.71-2.56,1.39-.72.68-1.24,1.54-1.51,2.49-.4,1.31-.34,2.72.17,3.99.46.8.78,1.22.72,1.26Z"/>
  <path class="cls-9" d="M565.89,250.16c-1.94.38-3.78,1.17-5.38,2.33-1.36,1.41-2.4,3.1-3.03,4.96-.1,0-.17-.74.15-1.85.43-1.46,1.28-2.77,2.44-3.76,1.16-.98,2.57-1.61,4.08-1.83,1.11-.13,1.74.04,1.74.15Z"/>
  <path class="cls-9" d="M561.12,251.8c-.58.24-1.22.33-1.85.26-.63-.06-1.23-.28-1.76-.62-1.89-.95-2.63-2.63-2.42-2.69.21-.06,1.13,1.11,2.79,1.93,1.66.82,3.22.86,3.24,1.11Z"/>
  <path class="cls-9" d="M569.57,242.53s.31.36.9.9c.83.78,1.85,1.34,2.96,1.62,1.62.43,3.34.28,4.87-.42,1.25-.69,2.34-1.65,3.17-2.81.83-1.16,1.38-2.5,1.63-3.91l.29.48c-1.55-.42-3.17-.53-4.76-.3-1.59.22-3.12.77-4.49,1.61-1.1.73-2.13,1.55-3.09,2.46.13-.35.33-.66.59-.92.63-.81,1.37-1.51,2.2-2.1,1.42-.96,3.03-1.6,4.72-1.88,1.69-.28,3.42-.2,5.07.24h.36v.38c-.15.88-.41,1.73-.78,2.54-.88,2.08-2.5,3.76-4.54,4.73-1.69.76-3.6.86-5.36.29-1.17-.35-2.22-1.03-3.02-1.95-.63-.46-.78-.92-.74-.95Z"/>
  <path class="cls-9" d="M580.05,240.55c-1.56.91-3.29,1.48-5.08,1.66-1.75.44-3.57.53-5.36.25,1.68-.55,3.42-.92,5.19-1.09,1.72-.46,3.48-.73,5.25-.82Z"/>
  <path class="cls-9" d="M564.78,242.72s-.29.29-.99.61c-.99.43-2.04.69-3.11.76-1.8.13-3.6-.24-5.21-1.06-1.61-.82-2.96-2.07-3.91-3.6-.82-1.31-1.35-2.79-1.53-4.33v-.34l.31-.11c1.23-.34,2.53-.37,3.78-.11,1.25.26,2.42.82,3.41,1.62.82.57,1.44,1.39,1.76,2.33-.65-.7-1.35-1.34-2.1-1.93-.96-.67-2.05-1.12-3.2-1.32-1.15-.2-2.33-.13-3.46.18l.29-.42c.23,1.61.84,3.14,1.79,4.45.95,1.32,2.21,2.38,3.67,3.09,1.36.63,2.85.95,4.35.92,1.4-.1,2.79-.35,4.14-.76Z"/>
  <path class="cls-9" d="M553.79,238.83c1.86-.06,3.69.34,5.36,1.16,1.78.55,3.4,1.52,4.73,2.84-1.72-.58-3.4-1.29-5.02-2.1-1.73-.52-3.42-1.15-5.06-1.89Z"/>
  <path class="cls-9" d="M534.37,270.92s0-.21.1-.55c.18-.49.41-.97.69-1.41,1.07-1.63,2.58-2.92,4.35-3.72,2.65-1.16,5.52-1.73,8.41-1.68,3.41.08,6.82-.13,10.19-.63,1.69-.34,3.31-1,4.75-1.95,1.33-.91,2.47-2.07,3.36-3.4,1.53-2.3,2.38-4.98,2.46-7.73.06-1.87-.16-3.74-.65-5.55-.34-1.28-.61-1.98-.55-2,.4.58.69,1.23.86,1.91.63,1.82.95,3.73.95,5.65,0,2.89-.85,5.72-2.42,8.15-.94,1.43-2.14,2.67-3.53,3.66-1.53,1.03-3.25,1.74-5.06,2.1-3.42.51-6.88.7-10.34.57-2.77-.07-5.52.42-8.09,1.45-1.71.72-3.21,1.88-4.33,3.36-.82,1.07-1.05,1.79-1.15,1.76Z"/>
  <path class="cls-9" d="M567.84,254.93c-.23-.13,0-1.11-.29-2.23-.29-1.11-1.16-1.79-1.05-2.1.1-.32.38,0,.78.21.52.38.9.92,1.09,1.53.19.61.19,1.26,0,1.87-.19.53-.38.71-.53.71Z"/>
  <path class="cls-9" d="M575.64,259.8c-.15.21-1.79-1.01-4.2-1.66-2.42-.65-4.39-.53-4.41-.78,1.49-.59,3.15-.59,4.64,0,1.59.28,3.01,1.15,3.97,2.44Z"/>
  <path class="cls-9" d="M566.27,257.7c1.39.69,2.75,1.47,4.06,2.31,1.44.82,2.99,1.43,4.6,1.83,1.95.5,4,.39,5.88-.32l-.23.57v-.15c-.82-1.66-2.02-3.1-3.51-4.2s-3.22-1.82-5.05-2.11c-1.54-.19-3.1-.19-4.64,0,0,0,.4-.25,1.22-.44,1.15-.24,2.34-.28,3.51-.15,1.77.2,3.46.81,4.96,1.76,1.81,1.2,3.26,2.86,4.2,4.81v.17l.19.4-.42.17c-2.02.77-4.23.87-6.31.29-1.67-.46-3.27-1.16-4.73-2.1-.98-.6-1.92-1.26-2.81-1.98-.63-.55-.97-.84-.93-.88Z"/>
  <path class="cls-9" d="M549.08,263s-.36-.17-.88-.65c-.72-.7-1.33-1.5-1.81-2.37-.81-1.49-1.28-3.14-1.37-4.83-.09-1.69.19-3.39.83-4.96l.15-.36.38.11c.37.12.74.26,1.09.42,1.88.88,3.37,2.41,4.2,4.31.52,1.28.7,2.68.53,4.05-.18,1.37-.7,2.68-1.53,3.79-.48.61-.84.86-.88.82.8-1.19,1.37-2.51,1.68-3.91.28-1.5.1-3.04-.53-4.43-.77-1.69-2.11-3.05-3.78-3.85-.32-.14-.65-.27-.99-.38l.5-.23c-.59,1.47-.87,3.04-.82,4.62.05,1.58.43,3.13,1.11,4.56.61,1.16,1.32,2.26,2.12,3.3Z"/>
  <path class="cls-9" d="M549.42,263.52c-.13,0,0-.57,0-1.39-.08-1.08-.28-2.14-.61-3.17-.37-1.08-.62-2.2-.74-3.34,0-.88,0-1.43.19-1.43s.19.53.4,1.34c.21.82.59,1.91.97,3.19.36,1.11.5,2.28.4,3.45-.19.9-.5,1.39-.61,1.34Z"/>
  <path class="cls-9" d="M559.78,271.17c-1.91-.29-3.65-1.24-4.92-2.69-1.48-1.24-2.49-2.96-2.86-4.85.23,0,1.28,2.1,3.45,4.2,2.17,2.1,4.43,3.11,4.33,3.34Z"/>
  <path class="cls-9" d="M545.78,265.05s.38.23.86.8c.68.83,1.21,1.78,1.55,2.79.53,1.54.67,3.19.4,4.79-.33,2-1.26,3.85-2.67,5.32l-.23.23-.27-.15c-.41-.23-.81-.5-1.18-.8-1.74-1.36-2.93-3.31-3.32-5.48-.31-1.77-.05-3.6.76-5.21.49-1.07,1.2-2.02,2.1-2.77.65-.53,1.07-.71,1.11-.67-1.14,1.05-2.07,2.3-2.73,3.7-.66,1.51-.85,3.19-.55,4.81.41,1.97,1.5,3.74,3.09,4.98.34.25.69.48,1.05.69h-.5c1.18-1.21,2.02-2.72,2.43-4.36.41-1.64.38-3.37-.1-4.99-.46-1.29-1.06-2.53-1.81-3.68Z"/>
  <path class="cls-9" d="M544.67,274.68c-.72-1.72-.97-3.59-.73-5.44.25-1.85.97-3.59,2.12-5.07.21.13-.88,2.27-1.24,5.13-.36,2.86.06,5.32-.15,5.38Z"/>
  <path class="cls-9" d="M539.06,265.43s-1.32-.21-2.58-1.85c-.74-.96-1.16-2.13-1.22-3.34-.08-1.51.38-2.99,1.28-4.2l.38-.44.23-.27.31.21c1.06.72,1.9,1.71,2.44,2.86.54,1.16.75,2.44.61,3.71-.02,1.03-.43,2.02-1.13,2.77.26-.93.44-1.88.55-2.84.04-1.14-.2-2.27-.72-3.28-.52-1.02-1.28-1.88-2.22-2.52h.55c-.11.12-.21.24-.29.38-.79,1.04-1.21,2.31-1.2,3.61.03,1.07.35,2.12.92,3.03.61.8,1.32,1.53,2.1,2.16Z"/>
  <path class="cls-9" d="M554.44,273.06s.63.19,1.16,1.11c.15.3.23.62.23.96s-.08.66-.23.96c-.23.37-.58.65-1,.79-.41.14-.86.14-1.27-.02-.32-.17-.6-.43-.8-.74-.19-.31-.3-.67-.32-1.04-.01-.37.07-.73.25-1.06.17-.33.43-.6.74-.8,1.01-.48,1.68,0,1.62,0s-.63,0-1.3.53c-.18.12-.33.29-.44.48-.11.19-.17.41-.17.63-.01.25.04.5.17.71.13.21.31.38.54.49.23.08.47.09.7.02.23-.07.43-.21.58-.4.11-.19.18-.41.19-.63.02-.22-.01-.44-.09-.65-.25-.8-.67-1.26-.57-1.34Z"/>
  <path class="cls-9" d="M542.4,259.34s.44,0,1.03.29c.19.15.33.33.43.55.1.22.14.45.12.69-.02.16-.07.32-.15.46s-.2.26-.33.36c-.16.08-.34.13-.53.13s-.36-.04-.53-.13c-.26-.14-.48-.36-.61-.63-.14-.27-.19-.57-.15-.86,0-.23.07-.46.18-.66.11-.2.27-.38.45-.52.14-.08.29-.12.45-.12s.31.04.45.12c.19.13.21.25.17.29-.04.04-.42,0-.71.23-.15.21-.23.46-.21.71,0,.32.15.63.36.69.21.06.57-.48.19-.86-.38-.38-.67-.65-.61-.76Z"/>
  <path class="cls-9" d="M551.56,245.58c0-.11.59-.27.99.46.11.22.14.48.09.72-.05.24-.18.46-.37.63-.24.19-.53.29-.83.29s-.59-.1-.83-.29c-.24-.18-.41-.43-.51-.71-.09-.28-.09-.59,0-.87.07-.22.2-.42.38-.57.17-.15.38-.26.61-.31.74-.15,1.09.25,1.01.32-.08.06-.42,0-.82.25-.11.05-.2.12-.27.21-.07.09-.12.2-.15.31-.02.12-.01.25.03.37.04.12.11.22.21.31.1.07.22.1.35.1s.24-.04.35-.1c.08-.06.14-.14.17-.23.03-.09.04-.19.01-.29-.08-.36-.42-.48-.42-.59Z"/>
  <path class="cls-9" d="M574.44,248.06c0,.13-.36.19-.61.59-.08.1-.13.22-.15.35-.02.13,0,.26.05.37.05.12.13.22.23.3.1.08.22.12.35.14.67.11.92-.46.8-.95-.13-.48-.42-.65-.4-.76.02-.11.57-.17.95.53.11.2.16.43.16.66s-.05.46-.16.66c-.16.25-.39.45-.66.58-.27.12-.57.16-.86.12-.29-.05-.57-.18-.79-.38-.22-.2-.37-.46-.44-.75-.04-.23-.01-.46.06-.68.08-.22.21-.41.38-.56.61-.53,1.15-.32,1.09-.21Z"/>
  <path class="cls-9" d="M578.31,266.02c0-.11.46-.15.84.42.1.18.15.38.15.58s-.05.4-.15.58c-.12.24-.31.43-.55.55-.24.12-.51.16-.77.12-.27-.05-.52-.19-.69-.4-.18-.21-.27-.48-.27-.75,0-.22.06-.45.2-.62.14-.18.33-.3.55-.34.74-.15.97.42.84.44-.13.02-.36,0-.65.13-.06.03-.12.08-.15.15-.03.06-.04.14-.02.21.01.09.05.17.11.24.06.07.14.12.22.14.09,0,.18-.02.27-.06.08-.04.16-.1.21-.17.06-.07.1-.16.12-.25.02-.09.02-.18,0-.27-.06-.38-.29-.57-.25-.67Z"/>
  <path class="cls-9" d="M580.47,230.74c-.11,0-.38-.13-.82,0-.11.02-.21.07-.29.14-.08.07-.15.17-.18.27-.04.1-.04.22-.02.33.02.11.07.21.14.29.07.08.17.15.27.18.1.04.22.04.33.02.11-.02.21-.07.29-.15.08-.07.15-.17.18-.27.19-.42,0-.74.11-.82.1-.08.57.19.48.95-.02.23-.1.44-.24.63-.13.18-.31.33-.52.42-.27.12-.57.14-.85.08-.28-.07-.54-.23-.73-.45-.19-.18-.31-.42-.36-.68-.05-.26-.02-.52.08-.77.1-.24.28-.44.5-.58.22-.14.48-.21.75-.2.78.02,1.01.57.88.61Z"/>
  <path class="cls-9" d="M573.75,225.36c1.34-.24,2.65-.6,3.93-1.07,1.48-.65,2.8-1.62,3.86-2.85,1.06-1.23,1.83-2.67,2.26-4.23l.34.53h-.46c-1.81-.25-3.66.1-5.25.99-1.31.72-2.4,1.79-3.15,3.09-.64,1.24-1.1,2.57-1.37,3.95-.09-.38-.09-.78,0-1.16.08-1.08.39-2.13.9-3.09.73-1.46,1.87-2.67,3.28-3.49,1.75-1.01,3.78-1.4,5.78-1.13h.95l-.1.44c-.51,1.86-1.5,3.55-2.86,4.92-1.1,1.11-2.43,1.96-3.89,2.5-.96.36-1.98.56-3.01.61-.39.1-.81.1-1.2,0Z"/>
  <path class="cls-9" d="M580.79,219.06c-1.24.8-2.42,1.68-3.55,2.63-.94,1.13-1.82,2.32-2.63,3.55.19-1.57.9-3.04,2.02-4.16,1.12-1.12,2.59-1.83,4.16-2.02Z"/>
  <path class="cls-9" d="M559.19,279.91s.44-.34,1.32-.19c.62.14,1.2.41,1.7.79.5.38.91.88,1.2,1.44.95,1.56,1.58,3.28,1.85,5.09.17,1.06.21,2.14.13,3.21-.03.57-.11,1.14-.23,1.7-.1.63-.36,1.23-.74,1.74-.24.3-.57.52-.95.61-.38.08-.78.01-1.11-.19-.5-.33-.95-.73-1.35-1.18-.72-.81-1.33-1.72-1.81-2.69-.8-1.64-1.23-3.44-1.24-5.27-.03-1.22.16-2.44.57-3.59.1-.44.3-.85.59-1.2-.39,1.56-.57,3.16-.55,4.77.09,1.72.55,3.41,1.35,4.94.46.9,1.04,1.73,1.72,2.48.33.38.7.72,1.11,1.01.16.1.36.13.54.08.18-.04.34-.15.45-.31.51-.9.79-1.92.8-2.96.1-1.01.1-2.03,0-3.05-.23-1.71-.76-3.36-1.58-4.88-.24-.52-.58-.98-1-1.37-.42-.38-.92-.68-1.46-.86-.43-.09-.88-.13-1.32-.13Z"/>
  <path class="cls-9" d="M563.18,289.89c-1.09-1.45-1.87-3.11-2.31-4.88-.71-1.67-1.09-3.46-1.11-5.27.84,1.58,1.48,3.26,1.91,5,.71,1.65,1.22,3.38,1.51,5.15Z"/>
  <path class="cls-7" d="M457.34,223.41c.09-3.14-.64-6.26-2.11-9.04-1.47-2.78-3.64-5.13-6.29-6.82-10.51-7.48-26.01-22.69-26.01-22.69-3.47-7.86-2.1-22-1.74-23.93s1.11-6.66,8.89-4.73c0,0,.8-3.28,6.3-2.69s5.95,3.3,5.95,3.3c2.15.28,4.27.8,6.31,1.55,2.1.99,5.19,5.17,4.98,7.71,2.52.21,4.93,1.1,6.98,2.58,2.1,2.1,5.06,4.39,5.06,8.3s-3.78,5.4-6.81,5.19c0,0,10.82,3.72,12.86,4.2,2.04.48,19.27,8.24,16.54,18.47-2.73,10.23-2.58,8.24-2.1,13.89.48,5.65-2.1,18.91-2.1,18.91l-26.69-14.2Z"/>
  <path class="cls-3" d="M485.01,271.08c-.05-.38-.05-.76,0-1.13,0-.86,0-1.93.15-3.24.13-2.82.25-6.89.34-11.93.19-10.07.19-23.98,0-39.34v-2.1c1.08-3.42,1.84-6.94,2.27-10.51.05-1.63-.21-3.25-.79-4.77-.57-1.52-1.44-2.92-2.56-4.1-2.11-2.11-4.65-3.76-7.44-4.83-2.61-1.11-5.13-1.93-7.42-2.77-4.58-1.64-8.24-3.09-10.7-4.2-1.24-.57-2.1-1.05-2.79-1.41-.33-.15-.64-.34-.93-.57,0,0,1.39.57,3.89,1.6,2.5,1.03,6.18,2.37,10.78,3.91,2.29.78,4.83,1.58,7.52,2.67,2.93,1.09,5.59,2.78,7.82,4.98,1.21,1.27,2.16,2.78,2.79,4.42.63,1.64.92,3.4.87,5.16-.39,3.65-1.14,7.26-2.25,10.76v1.72c.23,15.38.11,29.42-.27,39.38-.19,5.04-.44,9.12-.69,11.93-.1,1.41-.25,2.5-.34,3.24-.03.39-.12.77-.25,1.13Z"/>
  <path class="cls-3" d="M459.4,182.47c-.29,0-.86-1.55-1.3-3.64-.44-2.08-.53-3.78-.23-3.85.29-.06.88,1.55,1.3,3.64.42,2.08.55,3.8.23,3.85Z"/>
  <path class="cls-3" d="M446.81,178.84c-.43-.42-.79-.91-1.05-1.45-.92-1.4-1.41-3.05-1.41-4.73.15-1.27.64-2.48,1.42-3.49s1.82-1.8,3.01-2.27c2.88-1.08,6.04-1.14,8.95-.17,2.97.81,5.51,2.75,7.08,5.4.65,1.08,1.06,2.29,1.19,3.55.13,1.26,0,2.53-.41,3.72-.28.82-.77,1.54-1.42,2.1-.65.56-1.45.94-2.3,1.09-1.2.17-1.81-.23-1.78-.27.57.01,1.14-.04,1.7-.15.73-.21,1.39-.6,1.92-1.13.54-.53.93-1.19,1.14-1.92.31-1.08.4-2.22.24-3.34-.16-1.12-.55-2.19-1.15-3.15-1.49-2.39-3.82-4.12-6.54-4.87-2.67-.9-5.56-.9-8.24,0-1.05.38-1.98,1.04-2.69,1.9-.71.86-1.18,1.89-1.37,3-.08,1.57.26,3.13.99,4.52.3.52.54,1.08.69,1.66Z"/>
  <path class="cls-3" d="M435.61,174.62s-.32-.44-.67-1.34c-.52-1.26-.92-2.57-1.2-3.91-.48-2.03-.43-4.15.15-6.16.42-1.24,1.1-2.37,1.99-3.32.89-.95,1.97-1.7,3.18-2.21,2.38-1.08,5.09-1.18,7.54-.27,1.62.63,3.08,1.62,4.26,2.9,1.18,1.28,2.06,2.81,2.57,4.47.19.48.26,1,.21,1.51-.69-1.68-1.6-3.25-2.71-4.69-1.24-1.5-2.84-2.66-4.67-3.34-2.22-.75-4.64-.63-6.77.34-1.07.44-2.03,1.1-2.82,1.93-.8.83-1.42,1.82-1.82,2.9-.58,1.85-.7,3.81-.36,5.72.55,3.38,1.3,5.4,1.11,5.46Z"/>
  <path class="cls-3" d="M428.45,172.41c-.15,0-.55-.88-1.01-2.42-.65-2.04-.97-4.16-.97-6.3.01-2.18.66-4.32,1.87-6.14.99-1.37,1.93-1.85,2.1-1.74.17.11-.63.8-1.35,2.1-.93,1.78-1.42,3.75-1.45,5.76.01,2.04.22,4.07.63,6.07.19,1.64.31,2.63.17,2.67Z"/>
  <path class="cls-3" d="M459.55,218.6c3.06.97,6.18,1.72,9.35,2.25,3.21.15,6.43.06,9.62-.27-3.08,1.23-6.4,1.69-9.7,1.35s-6.46-1.49-9.21-3.33h-.06Z"/>
</svg>
