<?xml version="1.0" encoding="UTF-8"?>
<svg id="Layer_1" data-name="Layer 1" xmlns="http://www.w3.org/2000/svg" viewBox="0 0 1910.57 1835.19">
  <defs>
    <style>
      .cls-1 {
        fill: #000;
      }

      .cls-1, .cls-2, .cls-3, .cls-4, .cls-5, .cls-6, .cls-7, .cls-8, .cls-9, .cls-10, .cls-11 {
        stroke-width: 0px;
      }

      .cls-2 {
        fill: #e0e0e0;
      }

      .cls-3 {
        fill: #eb996e;
      }

      .cls-4 {
        fill: #455a64;
      }

      .cls-5 {
        fill: #f5f5f5;
      }

      .cls-6 {
        fill: #09f;
      }

      .cls-7 {
        fill: #ffbe9d;
      }

      .cls-8 {
        fill: #ebebeb;
      }

      .cls-12 {
        opacity: .4;
      }

      .cls-13 {
        opacity: .3;
      }

      .cls-14 {
        opacity: .6;
      }

      .cls-9 {
        fill: #263238;
      }

      .cls-10 {
        fill: #fafafa;
      }

      .cls-11 {
        fill: #fff;
      }
    </style>
  </defs>
  <g id="freepik--background-complete--inject-4">
    <rect class="cls-2" x="1430.97" y="393.42" width="306.72" height="319.72"/>
    <rect class="cls-10" x="1410.21" y="393.42" width="306.68" height="319.72"/>
    <path class="cls-2" d="M1717.01,713.23h-306.88v-319.89h306.88v319.89ZM1410.3,713.02h306.51v-319.51h-306.51v319.51Z"/>
    <rect class="cls-11" x="1451.43" y="436.39" width="224.23" height="233.74"/>
    <path class="cls-2" d="M1451.27,671.72c-1.61,2.34-3.46,4.49-5.54,6.42-3.58,3.79-8.59,8.92-14.25,14.46-5.67,5.54-10.84,10.5-14.63,14-1.95,2.06-4.13,3.87-6.5,5.42,1.58-2.34,3.43-4.5,5.5-6.42,3.58-3.79,8.63-8.92,14.3-14.46,5.67-5.54,10.84-10.54,14.67-14.05,1.93-2.05,4.1-3.85,6.46-5.38Z"/>
    <path class="cls-2" d="M1675.67,671.13c2.36,1.6,4.52,3.46,6.46,5.54,3.75,3.58,8.88,8.59,14.42,14.25s10.5,10.84,14.05,14.63c2.05,1.94,3.86,4.12,5.38,6.5-2.34-1.58-4.5-3.43-6.42-5.5-3.75-3.58-8.88-8.63-14.46-14.3-5.58-5.67-10.54-10.84-14.05-14.67-2.03-1.94-3.84-4.11-5.38-6.46Z"/>
    <path class="cls-2" d="M1675.04,437.14c1.59-2.35,3.45-4.5,5.54-6.42,3.58-3.79,8.63-8.92,14.25-14.46s10.84-10.5,14.67-14c1.91-2.08,4.08-3.9,6.46-5.42-1.56,2.36-3.41,4.51-5.5,6.42-3.58,3.75-8.63,8.92-14.3,14.46s-10.84,10.54-14.67,14.05c-1.92,2.06-4.09,3.87-6.46,5.38Z"/>
    <path class="cls-2" d="M1450.81,437.6c-2.34-1.61-4.49-3.46-6.42-5.54-3.79-3.58-8.88-8.63-14.46-14.25-5.58-5.63-10.5-10.84-14-14.63-2.06-1.95-3.87-4.13-5.42-6.5,2.34,1.58,4.5,3.43,6.42,5.5,3.79,3.58,8.92,8.63,14.46,14.3s10.54,10.84,14.05,14.67c2.05,1.93,3.85,4.1,5.38,6.46Z"/>
    <path class="cls-2" d="M1675.04,670.13v-16.88c0-11.04,0-27.17-.25-47.64,0-40.93-.25-99.24-.42-169.09l.83.88h-223.57l1-1v233.74l-.83-.83,161.92.42,45.47.25h16.21-15.84l-45.76.58-162.55.42h-.83v-235.61h225.48v.88c0,70.06-.33,128.58-.42,169.63,0,20.38-.21,36.43-.25,47.47v15.67c0,.79-.17,1.17-.21,1.13Z"/>
    <rect class="cls-8" x="1526.12" y="515.88" width="74.81" height="74.81"/>
    <rect class="cls-2" x="1147.26" y="38.53" width="284.88" height="296.96"/>
    <rect class="cls-10" x="1127.96" y="38.53" width="284.88" height="296.96"/>
    <path class="cls-2" d="M1412.92,335.57h-285.04V38.44h285.04v297.13ZM1128.05,335.57h284.71V38.61h-284.71v296.96Z"/>
    <rect class="cls-11" x="1166.27" y="78.45" width="208.31" height="217.15"/>
    <path class="cls-2" d="M1166.27,297.02c-1.5,2.17-3.23,4.17-5.17,5.96-3.33,3.54-8,8.34-13.21,13.42s-10.09,9.79-13.63,13.05c-1.79,1.9-3.81,3.58-6,5,1.44-2.19,3.15-4.19,5.08-5.96,3.33-3.5,8.04-8.34,13.3-13.42s10.09-9.79,13.63-13.05c1.78-1.92,3.79-3.6,6-5Z"/>
    <path class="cls-2" d="M1374.54,296.48c2.18,1.48,4.18,3.22,5.96,5.17,3.54,3.29,8.34,8,13.46,13.21s9.75,10.09,13,13.63c1.9,1.79,3.58,3.81,5,6-2.16-1.48-4.14-3.2-5.92-5.13-3.54-3.29-8.34-8-13.46-13.25s-9.79-10.09-13.05-13.63c-1.92-1.78-3.6-3.79-5-6Z"/>
    <path class="cls-2" d="M1373.95,79.04c1.49-2.19,3.22-4.2,5.17-6,3.33-3.5,8-8.34,13.21-13.42s10.09-9.75,13.63-13c1.78-1.92,3.79-3.6,6-5-1.46,2.17-3.16,4.15-5.08,5.92-3.33,3.5-8.04,8.34-13.3,13.46s-10.09,9.79-13.63,13.05c-1.81,1.89-3.82,3.57-6,5Z"/>
    <path class="cls-2" d="M1165.68,79.58c-2.23-1.46-4.3-3.15-6.17-5.04-3.5-3.33-8.34-8-13.42-13.21s-9.75-10.09-13-13.63c-1.9-1.79-3.58-3.81-5-6,2.18,1.44,4.17,3.15,5.92,5.08,3.54,3.33,8.34,8.04,13.46,13.3s9.79,10.09,13.05,13.63c1.95,1.74,3.69,3.72,5.17,5.88Z"/>
    <path class="cls-2" d="M1373.95,295.44v-15.8c0-10.29,0-25.26-.21-44.26,0-38.01-.25-92.19-.42-157.05l.79.79h-207.69l.92-.92v217.11l-.79-.79,150.38.42h57.31-56.81l-150.88.38h-.79v.13V77.41h209.48v.79c0,65.06-.33,119.41-.42,157.59,0,18.92,0,33.8-.21,44.05v14.5c0,.71-.63,1.08-.67,1.08Z"/>
    <rect class="cls-8" x="1235.62" y="152.27" width="69.52" height="69.52"/>
    <path class="cls-5" d="M189.6,1786.55c-6.88-5.88-22.17-24.51-10.38-46.22,4.17-7.96,13.5-11.88,21.84-15.38,8.59-2.91,16.67-7.12,23.97-12.5,12.96-11.04,16.67-29.38,25.01-44.14,9.92-16.92,28.38-29.59,47.89-28.72,22.38,1,41.01,19.26,49.43,40.1,8.42,20.84,8.75,43.93,8.92,66.39,0,12.5-.42,26.42-9.54,34.84-8.34,7.71-21.09,7.84-32.51,7.46l-122.12-3.75"/>
    <path class="cls-2" d="M423.21,1450.7H101.99l57.85,345.19c2.44,14.68,13.12,26.64,27.42,30.72l1.13.29c.96.25,1.88.58,2.88.75,2.14.44,4.32.69,6.5.75v.33l1.54-.25h143.29c2.65,0,5.28-.27,7.88-.79,17.18-2.67,30.47-16.46,32.51-33.72l27.88-237.57,1.25-9.46h0l11.04-94.15.04-2.08ZM362.61,1670.85h-32.97l3.33-100.03h38.18l-8.54,100.03ZM374.36,1570.82h31.55l-11.75,100.03h-28.34l8.54-100.03ZM280.08,1781.8l-2-87.03h47.56l-2.88,87.03h-42.68ZM228.86,1694.77h46.14l2,87.03h-41.39l-6.75-87.03ZM232.4,1781.8h-38.64c-3.71-23.51-8.34-54.18-13.63-87.03h45.51l6.75,87.03ZM226.98,1670.85l-7.79-100.03h52.93l2.29,100.03h-47.43ZM277.62,1670.85l-2.29-100.03h54.43l-3.33,100.03h-48.81ZM274.75,1546.73l-2.13-92.61h61.02l-3.08,92.74-55.81-.13ZM271.58,1546.73h-54.02l-7.42-92.61h59.31l2.13,92.61ZM214.15,1546.73h-57.39c-2-12.84-3.96-25.01-5.67-35.84-6-37.51-8.34-51.6-9.5-56.89h65.35l7.21,92.74ZM216.02,1570.73l7.79,100.03h-47.47c-1.58-10.13-3.21-20.42-4.83-30.72-3.71-23.63-7.42-47.26-10.92-69.4l55.43.08ZM173.14,1670.85h-31.01l-16.67-100.03h32.01c4.79,30.76,10.09,65.23,15.67,100.03ZM176.89,1694.85c4.75,30.13,9.38,59.81,13.63,87.03h-29.76l-14.59-87.03h30.72ZM325.93,1781.8l2.92-87.03h31.72l-7.46,87.03h-27.17ZM333.77,1546.64l3.08-92.74h44.26l-7.92,92.74h-39.43ZM138.37,1454.12c1.29,6.71,7.17,43.18,15,92.74h-32.09l-15.55-92.74h32.63ZM380.99,1782.01h-25.01l7.42-87.03h27.63l-10.04,87.03ZM408.58,1546.85h-32.34l8.04-92.74h35.3l-11,92.74Z"/>
    <path class="cls-8" d="M1672.38,1428.36c-21.46-11.04-46.68-12.5-70.48-8.54-12.8,2.08-26.13,5.92-34.84,15.55-8.71,9.63-10.34,26.51-.33,34.76,5.92,4.88,14.21,5.63,21.92,5.54,18.63-.21,39.3-3.5,54.18,7.71,8.34,6.42,14.17,17.05,24.3,20.17,10.13,3.13,21.17-2.79,26.42-11.75,4.84-9.33,5.91-20.16,3-30.26-2.44-14.23-11.38-26.5-24.17-33.18Z"/>
    <path class="cls-8" d="M1721.47,1333.54c-13.13,18.76-38.59,12.5-50.39,1.13s-16.67-28.01-21.34-43.8c-10.42-36.05-20.84-73.94-13.17-110.66,1.86-11.14,6.77-21.56,14.17-30.09,7.61-8.56,19.2-12.44,30.43-10.17,12.84,3.42,20.84,16,26.59,27.97,17.01,35.34,25.92,74.02,26.09,113.24,0,18.21-2.08,37.51-12.5,52.39"/>
    <path class="cls-8" d="M1757.48,1360.42c-14.25-16.67-16.96-41.68-10.63-62.52,6.34-20.84,20.63-39.18,37.14-53.85,19.39-17.28,41.98-30.6,66.48-39.22,9.48-3.87,19.7-5.6,29.93-5.08,10.33.62,19.69,6.3,25.01,15.17,7,13.34.29,29.51-6.96,42.72-12.81,23.33-27.41,45.63-43.68,66.69-13.09,16.88-28.09,33.34-48.06,41.14-19.96,7.79-40.64,6.71-51.22-7.09"/>
    <path class="cls-2" d="M1722.18,1615.96c-.68-2.73-1.07-5.52-1.17-8.34-.63-6.17-1.38-13.96-2.25-23.22-1.17-11.43-2.93-22.8-5.25-34.05-3.08-13.71-7.26-27.14-12.5-40.18-5.1-13.03-12-25.28-20.51-36.39-6.95-9.02-15.82-16.38-25.97-21.55-6.88-3.41-14.25-5.72-21.84-6.84-2.81-.11-5.61-.51-8.34-1.21,2.87-.32,5.76-.32,8.63,0,7.92.52,15.69,2.47,22.92,5.75,10.69,5.04,20.06,12.49,27.38,21.76,8.89,11.24,16.05,23.74,21.26,37.09,5.35,13.23,9.53,26.89,12.5,40.85,2.2,11.4,3.72,22.93,4.54,34.51.75,9.84,1,17.84,1.13,23.34.13,2.83-.06,5.67-.54,8.46Z"/>
    <path class="cls-2" d="M1720.76,1598.12c-.24-1.31-.32-2.63-.25-3.96v-11.3c0-9.79,0-23.97-.5-41.47-.88-35.01-3.88-72.69-9.71-125.83-5.5-50.01-12.92-108.07-20.84-145.88-1.67-8.59-3.38-16.34-4.96-23.09s-2.79-12.5-4.17-17.38-1.96-8.09-2.63-10.96c-.4-1.27-.64-2.59-.71-3.92.6,1.18,1.06,2.43,1.38,3.71.88,2.83,1.96,6.42,3.29,10.84s2.92,10.5,4.63,17.26,3.63,14.46,5.46,23.05c9.79,44.7,17.16,89.89,22.09,135.37,5.84,53.22,8.34,101.7,8.71,136.79.21,17.55,0,31.76-.63,41.68-.29,4.58-.5,8.34-.71,11.3,0,1.28-.15,2.55-.46,3.79Z"/>
    <path class="cls-2" d="M1720.51,1504.63c-.32-3.93-.32-7.87,0-11.8.46-7.59,1.5-18.55,3.63-31.97,2.63-15.69,6.15-31.22,10.54-46.51,5.07-18.84,11.58-37.26,19.46-55.1,13.5-32.88,32.86-63.03,57.14-88.98,4.21-4.45,8.71-8.63,13.46-12.5,2.08-1.75,3.88-3.5,5.75-4.88l5.21-3.58c3.16-2.35,6.47-4.48,9.92-6.38.58.79-14.05,9.38-32.51,29.18-23.51,26.17-42.37,56.16-55.77,88.69-7.72,17.73-14.25,35.96-19.55,54.56-4.46,15.17-8.16,30.56-11.09,46.1-2.42,13.25-3.83,24.09-4.67,31.59-.21,3.9-.73,7.77-1.54,11.59Z"/>
    <polygon class="cls-2" points="1810.88 1669.51 1801.5 1797.84 1636.66 1797.84 1627.28 1669.51 1810.88 1669.51"/>
    <rect class="cls-2" x="1607.61" y="1618.96" width="219.19" height="50.6"/>
    <polygon class="cls-8" points="1826.8 1792.97 1826.8 1806.97 1816.5 1806.97 1611.23 1806.97 1611.23 1792.97 1826.8 1792.97"/>
    <polygon class="cls-2" points="1806.42 1831.65 1816.5 1806.97 1619.07 1806.97 1630.86 1831.65 1806.42 1831.65"/>
    <path class="cls-5" d="M1630.49,1711.48s.25.42.79,1.17l2.46,3.25,9.59,12.3.46.54.42-.54c6-8.34,14.09-19.51,23.59-32.63h-1.38c7.04,9.92,14.84,20.84,23.22,32.88l.75,1.04.83-1,27.55-32.76h-1.63l1.54,1.92,24.63,30.88.83,1.04.75-1.08,23.22-32.88h-1.33l28.63,32.63.5.58.38-.67,8.96-15.05c.96-1.63,1.71-2.96,2.29-4.17.32-.44.56-.94.71-1.46-.36.4-.69.83-.96,1.29l-2.54,3.88-9.38,14.75h.88l-28.22-32.93-.71-.83-.63.92c-7.13,9.96-15,20.84-23.47,32.72h1.58l-24.59-30.93-1.5-1.88-.79-1-.79.96-27.47,32.84h1.54l-23.47-32.76-.71-.96-.67.96-23.38,33.05h.83l-10-11.96-2.67-3.08c-.44-.72-.67-1.07-.67-1.04Z"/>
    <path class="cls-5" d="M1624.99,1668.68c0,.58,41.3,1.04,92.24,1.04s92.28-.46,92.28-1.04-41.3-1.04-92.28-1.04-92.24.46-92.24,1.04Z"/>
    <path class="cls-5" d="M1616.65,1808.39c0,.58,44.89,1.04,100.28,1.04s100.28-.46,100.28-1.04-44.89-1-100.28-1-100.28.42-100.28,1Z"/>
    <path class="cls-2" d="M749.35,149.56c-1.87,12.2-13.27,20.56-25.47,18.69-12.2-1.87-20.56-13.27-18.69-25.47,1.87-12.2,13.27-20.56,25.47-18.69,0,0,.01,0,.02,0,12.18,1.88,20.54,13.28,18.67,25.47Z"/>
    <path class="cls-2" d="M747.27,141.64c-1.88,1.04-14.05-19.3-23.47-46.51-9.42-27.22-16.05-49.18-14.21-50.01s12.21,20.38,21.51,47.39c9.29,27.01,18.05,48.14,16.17,49.14Z"/>
    <path class="cls-2" d="M781.15,34.77c1.29,1.29-11.71,14.67-33.68,19.84-9.33,2.45-19.15,2.26-28.38-.54-7.17-2.42-10.25-6.38-9.63-7.09s4.46,1,10.92,1.75c8.48.99,17.07.43,25.34-1.67,19.76-4.54,34.05-14.21,35.43-12.3Z"/>
    <path class="cls-2" d="M820.91,139.14c-1.87,12.2-13.27,20.56-25.47,18.69s-20.56-13.27-18.69-25.47c1.87-12.2,13.27-20.56,25.47-18.69,0,0,.01,0,.02,0,12.17,1.86,20.54,13.23,18.68,25.41,0,.02,0,.04,0,.06Z"/>
    <path class="cls-2" d="M818.83,131.3c-1.88,1.04-14.05-19.3-23.47-46.56s-16.05-49.14-14.21-50.01,12.21,20.34,21.51,47.35c9.29,27.01,18.09,48.22,16.17,49.22Z"/>
    <path class="cls-2" d="M786.82,48.9c1.58,1.29-10,14.88-30.43,20.46s-37.3,0-36.59-1.75,16.25-.42,34.51-5.71c18.26-5.29,31.01-14.71,32.51-13Z"/>
    <path class="cls-2" d="M125.16,404.8c-5.14,3.49-12.14,2.14-15.63-3s-2.14-12.14,3-15.63c5.14-3.49,12.14-2.14,15.63,3,3.49,5.11,2.18,12.09-2.93,15.58-.02.02-.05.03-.07.05Z"/>
    <path class="cls-2" d="M127.37,401.34c-1.04-.33,2.29-11.84,9.13-24.67s12.5-22.8,13.59-22.42-3.33,11.5-10.13,24.22c-6.79,12.71-11.59,23.22-12.59,22.88Z"/>
    <path class="cls-2" d="M178.47,377.13c0,.92-9.42.71-18.88-5.63-4.12-2.6-7.44-6.29-9.59-10.67-1.54-3.46-1.13-5.96-.67-5.96s1.17,1.96,3.08,4.63c2.56,3.46,5.73,6.44,9.34,8.79,8.46,5.71,17.01,7.67,16.71,8.84Z"/>
    <path class="cls-2" d="M153.59,427.68c-5.13,3.5-12.14,2.18-15.64-2.95-3.5-5.13-2.18-12.14,2.95-15.64s12.14-2.18,15.64,2.95c0,0,0,0,0,0,3.5,5.13,2.17,12.13-2.96,15.63Z"/>
    <path class="cls-2" d="M155.75,424.22c-1.04-.33,2.29-11.84,9.13-24.67,6.84-12.84,12.5-22.8,13.59-22.42s-3.29,11.5-10.13,24.22c-6.84,12.71-11.55,23.3-12.59,22.88Z"/>
    <path class="cls-2" d="M175.18,384.09c0,1.04-8.92,1.42-18.01-4.17s-12.84-13.75-11.92-14.13,5.63,5.84,13.96,10.75,16.09,6.42,15.96,7.54Z"/>
    <path class="cls-8" d="M427.54,185.49l-105.78-12.92c-7.15-.99-12.21-7.5-11.42-14.67l17.92-146.17c.89-7.31,7.53-12.51,14.84-11.63l66.98,8.34,45.31,59.81-13,105.95c-1.01,7.2-7.63,12.23-14.84,11.3Z"/>
    <path class="cls-5" d="M410.08,8.14l-4.96,41.14c-.76,6.77,4.04,12.91,10.79,13.8l39.55,4.88-45.39-59.81Z"/>
    <path class="cls-2" d="M405.12,52.99c-.74,6.42,3.09,12.49,9.21,14.59l1.29.42c5.04,1.58,38.3,11.8,38.39,11s1.38-11.04,1.38-11.04l-39.55-4.88s-9.84-1.54-10.71-10.09Z"/>
    <path class="cls-10" d="M396.37,46.53c-8.22-.03-16.43-.71-24.55-2.04-8.19-.68-16.32-2.01-24.3-3.96,8.22.08,16.43.76,24.55,2.04,8.19.68,16.32,2,24.3,3.96Z"/>
    <path class="cls-10" d="M425.09,73.66c0,.54-18.13-1.25-40.3-3.96s-40.18-5.38-40.1-5.92,18.09,1.25,40.3,4.17c22.21,2.92,40.18,5.17,40.1,5.71Z"/>
    <path class="cls-10" d="M430.13,93.96c0,.54-19.76-1.42-43.97-4.42-24.22-3-43.76-5.79-43.68-6.29s19.71,1.42,43.93,4.17c24.22,2.75,43.72,6.04,43.72,6.54Z"/>
    <path class="cls-10" d="M427.71,112.3c0,.54-19.76-1.46-43.93-4.42s-43.8-5.79-43.72-6.34,19.71,1.46,43.93,4.42c24.22,2.96,43.8,5.79,43.72,6.34Z"/>
    <path class="cls-10" d="M425.46,130.64c0,.5-19.76-1.46-43.93-4.42-24.17-2.96-43.8-5.84-43.72-6.34s19.71,1.46,43.93,4.42c24.22,2.96,43.8,5.79,43.72,6.34Z"/>
    <path class="cls-10" d="M423.21,148.93c0,.54-19.71-1.42-43.93-4.17s-43.8-5.84-43.72-6.34,19.76,1.42,43.93,4.42,43.8,5.59,43.72,6.09Z"/>
    <circle class="cls-2" cx="602.23" cy="480.03" r="17.42"/>
    <path class="cls-2" d="M617.1,474.24c-.83.63-12.17-13.75-22.67-33.59-10.5-19.84-18.71-35.76-17.92-36.26s10.88,14.71,21.26,34.43,20.17,34.76,19.34,35.43Z"/>
    <path class="cls-2" d="M608.56,385.09c.96.33-2.71,9.42-12.5,15.71s-19.51,6-19.42,5,8.59-2.46,17.34-8.34c8.75-5.88,13.63-12.92,14.59-12.38Z"/>
    <path class="cls-2" d="M616.18,401.51c1,.21-2.29,9.42-12.3,14.84s-19.46,3.46-19.09,2.5,8.34-.92,17.26-5.84,13.13-12.09,14.13-11.5Z"/>
  </g>
  <g id="freepik--Character--inject-4">
    <polygon class="cls-7" points="866.18 665.09 891.68 657.34 1002.47 654.08 1027.47 660.88 1024.22 721.81 967.66 757.87 912.81 756.78 878.35 725.36 870.72 694.22 866.18 665.09"/>
    <path class="cls-6" d="M1186.15,760.99c-6.64-13.93-14.15-27.43-22.47-40.43-13.46-20.66-34.05-35.64-57.85-42.1l-90.4-24.51s-4.67,90.32-66.69,90.32-74.27-84.65-74.27-84.65l-104.61,41.68c-3.58,1.38-27.88,9.79-56.1,70.31-26.88,57.64-38.64,87.15-38.64,87.15l107.78,31.09,6.71,96.95-3.79,125.54h329.27l-4.38-133.08,3.08-98.11,4.17,6.59,108.82-43.64s-14.17-28.59-40.64-83.11Z"/>
    <path class="cls-6" d="M787.03,1070.38c-2.33,9.5-8.34,30.63-12.05,39.51-.77,2.73-.77,5.61,0,8.34,1.29,2.71,6.71,1.71,9.67,1.13,27.17-5.29,57.23-.92,83.78,7,27.59,8.34,54.18,23.59,82.82,23.09,19.38-.33,37.8-7.88,56.43-13.34,34.56-10.11,70.79-13.24,106.57-9.21,2.42.54,4.95.23,7.17-.88,3.17-2.17,2.92-6.79,2.29-10.59-1.38-8.96-10.84-33.59-13.13-42.47"/>
    <path class="cls-9" d="M768.65,759.03c.63,0,4.17,29.84,7.71,66.69,3.54,36.84,6.13,67.02,5.54,67.06s-4.17-29.84-7.71-66.69c-3.54-36.84-6.13-67.02-5.54-67.06Z"/>
    <path class="cls-9" d="M1119.25,772.37c.58,0-.33,27.88-2.08,62.19s-3.67,62.1-4.17,62.06.33-27.88,2.08-62.19c1.75-34.3,3.58-62.1,4.17-62.06Z"/>
    <path class="cls-9" d="M1033.35,658.59c-.02.97-.16,1.94-.42,2.88-.38,2.08-.92,4.79-1.58,8.34-2.04,10.05-4.65,19.97-7.84,29.72-4.59,14.62-12.09,28.16-22.05,39.8-6.01,6.77-13.18,12.42-21.17,16.67-8.7,4.59-18.39,6.96-28.22,6.92-19.01-.41-37.23-7.68-51.31-20.46-11.28-10.38-20.18-23.08-26.09-37.22-4.05-9.4-7.16-19.17-9.29-29.18-.75-3.54-1.25-6.29-1.5-8.34-.21-.94-.33-1.91-.33-2.88.35.9.6,1.84.75,2.79l1.92,8.13c2.42,9.89,5.71,19.54,9.84,28.84,6.02,13.82,14.89,26.21,26.05,36.34,13.78,12.35,31.52,19.37,50.01,19.8,9.48.03,18.82-2.24,27.22-6.63,7.86-4.15,14.92-9.67,20.84-16.3,9.87-11.42,17.38-24.68,22.09-39.01,4.17-12.13,6.67-22.34,8.34-29.18l2-8.09c.18-1,.43-1.99.75-2.96Z"/>
    <path class="cls-9" d="M903.1,723.52c.38.5-1.83,2.63-4.88,4.79s-5.84,3.46-6.17,2.96,1.83-2.63,4.92-4.75,5.79-3.46,6.13-3Z"/>
    <path class="cls-9" d="M940.2,761.62c-.72-2.89-.72-5.91,0-8.79.06-2.91.78-5.76,2.13-8.34.63,0,.63,4.17,0,8.79-.05,2.91-.78,5.76-2.13,8.34Z"/>
    <path class="cls-9" d="M995.05,746.11c-.42.42-3.88-2.17-7.71-5.84s-6.59-6.92-6.21-7.38,3.88,2.17,7.71,5.84,6.63,6.84,6.21,7.38Z"/>
    <path class="cls-9" d="M1017.8,709.52c-.33.5-3.46-.96-7.25-2.71s-7-3.13-6.84-3.75,3.75,0,7.71,1.79,6.71,4.17,6.38,4.67Z"/>
    <path class="cls-9" d="M880.26,685.59c.21.54-2,1.88-4.92,2.96s-5.46,1.54-5.67.96,2-1.88,4.92-2.96,5.67-1.5,5.67-.96Z"/>
    <g class="cls-13">
      <polygon class="cls-1" points="1118.42 788.96 1129.34 883.28 1117.79 887.9 1113.71 881.32 1118.42 788.96"/>
    </g>
    <path class="cls-11" d="M746.89,762.83c-4.02-.7-7.8-2.39-11-4.92-5.63-3.67-9.34-7.71-8.92-8.34,6.83,4.06,13.48,8.41,19.92,13.05v.21Z"/>
    <path class="cls-11" d="M835.04,776.41c-6.03.49-12.11.26-18.09-.67-6.06-.21-12.08-1.15-17.92-2.79,6.05-.49,12.13-.26,18.13.67,6.05.18,12.06,1.12,17.88,2.79Z"/>
    <path class="cls-11" d="M930.53,793.96c-6.04.03-12.07-.5-18.01-1.58-6.02-.36-12.01-1.24-17.88-2.63,6.03-.75,12.14-.6,18.13.46,6.07.38,12.05,1.64,17.76,3.75Z"/>
    <path class="cls-11" d="M1051.81,781.58c-6.77,2.22-13.76,3.74-20.84,4.54-6.95,1.51-14.02,2.32-21.13,2.42,13.71-3.73,27.75-6.06,41.93-6.96h.04Z"/>
    <path class="cls-11" d="M1126.17,753.36c-2.58,3.33-6.05,5.87-10,7.34-3.65,2.11-7.83,3.14-12.05,2.96,3.6-1.89,7.31-3.53,11.13-4.92,3.51-2.04,7.16-3.84,10.92-5.38Z"/>
    <path class="cls-11" d="M1169.31,742.36c-3.94,3.14-8.46,5.47-13.3,6.88-4.6,2.1-9.58,3.25-14.63,3.38,4.49-2.19,9.16-3.99,13.96-5.38,4.48-2.08,9.16-3.71,13.96-4.88Z"/>
    <path class="cls-11" d="M1081.2,736.57c-12.14,4.32-24.72,7.29-37.51,8.84,5.93-2.52,12.12-4.35,18.46-5.46,6.2-1.84,12.59-2.98,19.05-3.38Z"/>
    <path class="cls-11" d="M1141.55,709.64c-4.65,3.51-9.72,6.44-15.09,8.71-5.07,2.9-10.47,5.16-16.09,6.75,9.71-6.43,20.18-11.62,31.18-15.46h0Z"/>
    <path class="cls-11" d="M1076.16,701.89c-8.2,3.33-16.88,5.29-25.72,5.79,3.92-1.99,8.15-3.33,12.5-3.96,4.28-1.32,8.74-1.94,13.21-1.83Z"/>
    <path class="cls-11" d="M1116.38,689.39c.25.58-2.38,2.17-5.84,3.58s-6.42,2.08-6.67,1.54,2.42-2.17,5.88-3.54,6.42-2.13,6.63-1.58Z"/>
    <path class="cls-11" d="M959.2,774.75c-6.12,1.26-12.41,1.43-18.59.5-6.24-.29-12.39-1.7-18.13-4.17,6.14.26,12.27.87,18.34,1.83,6.16.26,12.29.88,18.38,1.83Z"/>
    <path class="cls-11" d="M1020.18,757.78c0,.58-3.33,2.04-7.79,3.25s-8.34,1.71-8.34,1.13,3.33-2,7.79-3.25,8.17-1.71,8.34-1.13Z"/>
    <path class="cls-11" d="M876.97,756.91c-4.92.6-9.91.48-14.8-.38-4.96-.13-9.88-1-14.59-2.58,4.93-.58,9.91-.44,14.8.42,4.96.16,9.87,1.02,14.59,2.54Z"/>
    <path class="cls-11" d="M811.53,741.15c-5.42,0-10.82-.73-16.05-2.17-5.36-.68-10.6-2.08-15.59-4.17,5.42,0,10.82.73,16.05,2.17,5.36.7,10.6,2.1,15.59,4.17Z"/>
    <path class="cls-11" d="M815.99,704.77c-4.04.71-8.17.71-12.21,0-4.11-.01-8.19-.76-12.05-2.21,4.05-.71,8.2-.71,12.25,0,4.1.02,8.17.76,12,2.21Z"/>
    <path class="cls-11" d="M860.05,720.27c-3.53,1.4-7.41,1.65-11.09.71-3.78-.24-7.38-1.7-10.25-4.17,3.58.49,7.13,1.18,10.63,2.08,3.6.2,7.18.66,10.71,1.38Z"/>
    <path class="cls-11" d="M854.92,689.47c-3.62.07-7.22-.58-10.59-1.92-3.58-.72-6.98-2.13-10-4.17,3.62-.1,7.22.54,10.59,1.88,3.58.72,6.98,2.15,10,4.21Z"/>
    <path class="cls-11" d="M1062.07,674.72c0,.58-2.5,1.88-5.92,2.92s-6.38,1.38-6.54.79,2.46-1.88,5.92-2.88,6.38-1.29,6.54-.83Z"/>
    <path class="cls-11" d="M749.27,803c-8.49-2.39-16.54-6.13-23.84-11.09,8.51,2.34,16.57,6.09,23.84,11.09Z"/>
    <path class="cls-11" d="M713.55,839.52c-4.21.29-8.43-.11-12.5-1.21-4.22-.44-8.33-1.59-12.17-3.38,8.46.07,16.84,1.62,24.76,4.58h-.08Z"/>
    <path class="cls-11" d="M763.06,856.94c-5.15-1.14-10.2-2.66-15.13-4.54-5.14-1.19-10.2-2.73-15.13-4.63,10.73.27,21.18,3.44,30.26,9.17h0Z"/>
    <path class="cls-11" d="M813.58,816.43c-8.8,1.44-17.79,1.44-26.59,0,8.8-1.44,17.79-1.44,26.59,0Z"/>
    <path class="cls-11" d="M834.42,871.61c-5.71-1.09-11.36-2.48-16.92-4.17-5.74-1.1-11.41-2.49-17.01-4.17,11.85-.29,23.56,2.59,33.93,8.34Z"/>
    <path class="cls-11" d="M932.24,847.81c-2.86.41-5.77.41-8.63,0-6.99-.47-13.94-1.32-20.84-2.54-6.84-1.2-13.62-2.76-20.3-4.67-2.84-.61-5.58-1.62-8.13-3,0-.63,12.88,2.75,28.8,5.54s29.13,4.04,29.09,4.67Z"/>
    <path class="cls-11" d="M932.74,883.4c-6.27.72-12.61.72-18.88,0-6.3.05-12.58-.67-18.71-2.13,6.26-.69,12.58-.69,18.84,0,6.31,0,12.6.72,18.76,2.13Z"/>
    <path class="cls-11" d="M994.17,822.22c-12.15,1.75-24.46,2.06-36.68.92,12.15-1.75,24.46-2.06,36.68-.92Z"/>
    <path class="cls-11" d="M1046.44,868.07c-8.7,2.05-17.55,3.36-26.47,3.92-8.85,1.28-17.78,1.87-26.72,1.75,8.71-2,17.56-3.31,26.47-3.92,8.85-1.28,17.78-1.87,26.72-1.75Z"/>
    <path class="cls-11" d="M1088.66,816.72c-7.96,3.02-16.16,5.36-24.51,7-8.18,2.37-16.54,4.03-25.01,4.96,7.95-3.04,16.15-5.4,24.51-7.04,8.18-2.34,16.55-3.99,25.01-4.92Z"/>
    <path class="cls-11" d="M1093.12,850.44c-2.51,2.69-5.76,4.57-9.34,5.42-3.37,1.5-7.11,1.97-10.75,1.38,3.23-1.47,6.59-2.61,10.04-3.42,3.22-1.47,6.59-2.6,10.04-3.38Z"/>
    <path class="cls-11" d="M1154.6,782.62c-4.04,2.29-8.41,3.92-12.96,4.83-4.34,1.64-8.91,2.57-13.55,2.75,4.05-2.26,8.42-3.9,12.96-4.83,4.35-1.59,8.92-2.51,13.55-2.75Z"/>
    <path class="cls-11" d="M1185.85,821.38c-14.25,5.15-28.96,8.95-43.93,11.34,6.99-2.93,14.25-5.17,21.67-6.71,7.25-2.27,14.7-3.82,22.26-4.63Z"/>
    <path class="cls-11" d="M1196.77,789.08c-4.72,3.11-9.82,5.61-15.17,7.42-5.08,2.48-10.46,4.3-16,5.42,9.81-5.58,20.28-9.89,31.18-12.84Z"/>
    <path class="cls-11" d="M1164.68,855.1c-7.54,5.53-15.89,9.86-24.76,12.84,7.54-5.53,15.89-9.86,24.76-12.84Z"/>
    <path class="cls-11" d="M848.34,940.63c-5.83.61-11.7.51-17.51-.29-5.86-.11-11.68-.93-17.34-2.46,5.83-.61,11.7-.51,17.51.29,5.86.11,11.68.93,17.34,2.46Z"/>
    <path class="cls-11" d="M877.64,917.66c-12.78-1.36-25.36-4.16-37.51-8.34,6.44.28,12.84,1.31,19.05,3.04,6.34,1.06,12.53,2.84,18.46,5.29Z"/>
    <path class="cls-11" d="M984.04,917.46c-10.34,1.45-20.83,1.45-31.18,0,10.34-1.45,20.83-1.45,31.18,0Z"/>
    <path class="cls-11" d="M966.62,954.84c-2.71.76-5.52,1.1-8.34,1-6.62.24-13.25,0-19.84-.71-6.6-.7-13.13-1.9-19.55-3.58-2.71-.51-5.32-1.42-7.75-2.71,0-.63,12.25,2.54,27.55,4.17,15.3,1.63,27.88,1.17,27.93,1.83Z"/>
    <path class="cls-11" d="M1083.07,928.42c-7.92,2.01-16.08,2.93-24.26,2.75-8.15.53-16.34-.03-24.34-1.67,0-.63,10.92-.21,24.3-.5s24.22-1.21,24.3-.58Z"/>
    <path class="cls-11" d="M1081.24,894.53c-10.71,3.28-21.81,5.13-33.01,5.5,10.72-3.27,21.81-5.12,33.01-5.5Z"/>
    <path class="cls-11" d="M835.5,1095.34c-6.27.11-12.55-.1-18.8-.63-6.27.22-12.54.13-18.8-.29,6.14-1.72,12.53-2.36,18.88-1.88,6.35-.18,12.69.76,18.71,2.79Z"/>
    <path class="cls-11" d="M903.35,1115.51c-7.69.36-15.39-.04-23.01-1.17-7.7-.41-15.35-1.52-22.84-3.33,7.7-.36,15.42.04,23.05,1.17,7.69.4,15.32,1.52,22.8,3.33Z"/>
    <path class="cls-11" d="M969.37,1131.1c-7.33,2.49-14.98,3.9-22.72,4.17-7.69.98-15.48.84-23.13-.42,0-.63,10.34-.71,22.97-1.71s22.76-2.67,22.88-2.04Z"/>
    <path class="cls-11" d="M963,1100.22c-6.01,1.35-12.14,2.02-18.3,2-6.11.71-12.27.71-18.38,0,5.98-1.4,12.11-2.07,18.26-2,6.12-.76,12.3-.76,18.42,0Z"/>
    <path class="cls-11" d="M907.94,1081.75c-8.28,1.22-16.64,1.73-25.01,1.54-8.42.5-16.87.29-25.26-.63,8.35-1.22,16.78-1.74,25.22-1.54,8.35-.49,16.73-.28,25.05.63Z"/>
    <path class="cls-11" d="M1036.31,1080.55c-7.97,1.69-16.07,2.66-24.22,2.92-8.09.98-16.25,1.23-24.38.75,7.97-1.66,16.08-2.64,24.22-2.92,8.09-.95,16.25-1.21,24.38-.75Z"/>
    <path class="cls-11" d="M1040.89,1105.51c0,.67-10.79,1.5-23.72,4.67-12.92,3.17-22.97,7.34-23.22,6.75,6.98-4.3,14.67-7.31,22.72-8.88,7.86-2.25,16.06-3.11,24.22-2.54Z"/>
    <path class="cls-11" d="M1104.16,1091.51c-3.46,1.44-7.17,2.22-10.92,2.29-3.67.73-7.45.73-11.13,0,7.12-2.24,14.61-3.06,22.05-2.42v.13Z"/>
    <path class="cls-9" d="M1028.52,676.26c-.25.54-3.63-.67-7.79-2.08s-7.59-2.42-7.5-3.04c2.81-.58,5.74-.23,8.34,1,4.21,1.46,7.25,3.63,6.96,4.13Z"/>
    <path class="cls-11" d="M855.67,994.06c-7.62.3-15.26-.14-22.8-1.29-7.61-.43-15.16-1.57-22.55-3.42,7.61-.32,15.23.11,22.76,1.29,7.62.43,15.18,1.58,22.59,3.42Z"/>
    <path class="cls-11" d="M925.28,984.43c-5.74.75-11.56.75-17.3,0-5.78-.03-11.53-.76-17.13-2.17,5.74-.75,11.56-.75,17.3,0,5.78.03,11.53.76,17.13,2.17Z"/>
    <path class="cls-11" d="M1035.52,976.68c0,.63-9.88.54-21.92,1.63-12.05,1.08-21.76,2.79-21.88,2.17,6.96-2.52,14.27-3.93,21.67-4.17,7.35-1.06,14.82-.93,22.13.38Z"/>
    <path class="cls-11" d="M1085.53,1015.82c-10.14.95-20.34,1.17-30.51.67-10.18.2-20.36-.32-30.47-1.54,10.14-.97,20.34-1.19,30.51-.67,10.18-.2,20.36.32,30.47,1.54Z"/>
    <path class="cls-11" d="M1089.45,965.68c-6.9,3.83-14.89,5.21-22.67,3.92,3.67-1.14,7.46-1.86,11.3-2.17,3.72-.99,7.53-1.58,11.38-1.75Z"/>
    <path class="cls-11" d="M968.21,1014.69c-5.65,2.19-11.72,3.08-17.76,2.58-6.07.22-12.1-.92-17.67-3.33,0-.63,7.96,1,17.71,1.17s17.59-1.04,17.71-.42Z"/>
    <path class="cls-11" d="M904.15,1021.99c-11.42,1.44-22.97,1.44-34.39,0,11.42-1.44,22.97-1.44,34.39,0Z"/>
    <path class="cls-11" d="M858.01,1046.24c-9.1,1.15-18.32.89-27.34-.79,4.5-.97,9.13-1.21,13.71-.71,4.59-.25,9.2.26,13.63,1.5Z"/>
    <path class="cls-11" d="M956.54,1054.95c-7.28.85-14.62.96-21.92.33-7.34.09-14.66-.52-21.88-1.83,7.29-.82,14.65-.94,21.96-.33,7.32-.1,14.64.52,21.84,1.83Z"/>
    <path class="cls-11" d="M1042.52,1042.37c-6.38.22-12.77.07-19.13-.46-6.4.17-12.8-.02-19.17-.58,6.27-1.6,12.77-2.14,19.21-1.58,6.46-.18,12.91.7,19.09,2.63Z"/>
    <path class="cls-11" d="M1104.29,1060.29c-6.47.8-12.98,1.22-19.51,1.25-6.5.76-13.04,1.12-19.59,1.08,12.72-3.55,26.05-4.34,39.1-2.33Z"/>
    <path class="cls-11" d="M809.41,1023.57c0,.58-3.13,1.58-7.25,2.21s-7.5.71-7.59,0,3.17-1.58,7.25-2.25c4.08-.67,7.59-.58,7.59.04Z"/>
    <path class="cls-11" d="M816.58,897.66c0,.63-3.92,1.46-8.88,1.88-3.01.62-6.12.52-9.09-.29,5.77-1.97,11.94-2.51,17.96-1.58h0Z"/>
    <path class="cls-11" d="M874.47,806.05c-3,.7-6.13.7-9.13,0-4.96-.67-8.92-1.67-8.84-2.29,3-.7,6.13-.7,9.13,0,4.96.67,8.92,1.67,8.84,2.29Z"/>
    <path class="cls-11" d="M1091.83,796.96c-6.55,2.21-13.31,3.73-20.17,4.54-6.73,1.52-13.6,2.33-20.51,2.42,6.55-2.21,13.31-3.75,20.17-4.58,6.73-1.52,13.61-2.32,20.51-2.38Z"/>
    <g class="cls-13">
      <path class="cls-1" d="M784.78,1072.29c6.09,10.13,18.8,14.3,30.63,14.96,11.84.67,23.72-1.38,35.47,0,18.42,2.25,34.84,12.75,52.89,17.3,41.05,10.25,83.36-11.63,125.54-11.8,14.38,0,28.68,2.42,43.05,3s29.38-.88,41.68-8.09l-1.04-15.42-328.22.04Z"/>
    </g>
    <rect class="cls-4" x="834.58" y="1289.78" width="243.91" height="58.64"/>
    <polygon class="cls-4" points="853.63 1348.42 729.47 1830.06 756.23 1830.06 892.39 1348.42 853.63 1348.42"/>
    <polygon class="cls-4" points="1052.9 1348.42 1177.98 1830.06 1151.22 1830.06 1014.14 1348.42 1052.9 1348.42"/>
    <path class="cls-9" d="M1014.55,1349.92c.38.46-35.64,32.8-80.48,72.23-44.85,39.43-81.52,71.06-81.9,70.6s35.64-32.76,80.48-72.23c44.85-39.47,81.48-71.02,81.9-70.6Z"/>
    <path class="cls-9" d="M1075.2,1494.34c-.38.5-42.6-31.97-94.32-72.44-51.72-40.47-93.32-73.65-92.94-74.15s42.55,31.97,94.28,72.44c51.72,40.47,93.32,73.69,92.99,74.15Z"/>
    <path class="cls-9" d="M1077.32,1348.46c0,.58-53.27,1.08-118.95,1.08s-118.95-.5-118.95-1.08,53.27-1.13,118.95-1.13,118.95.5,118.95,1.13Z"/>
    <path class="cls-6" d="M973.46,1658.34l-50.01,79.98,152.3,95.86c8.34-15.09-52.1-93.94-52.1-93.94l24.17-35.51-74.36-46.39Z"/>
    <g class="cls-13">
      <path class="cls-1" d="M973.12,1658.34l-49.81,79.98,152.34,95.86c8.34-15.09-52.14-93.94-52.14-93.94l24.17-35.51-74.56-46.39Z"/>
    </g>
    <path class="cls-11" d="M980.59,1704.19c-3.51-.94-7.18.83-8.63,4.17-1.14,3.56.69,7.39,4.17,8.75,3.83,1.01,7.82-1.02,9.25-4.71.58-3.75-1.81-7.32-5.5-8.21"/>
    <path class="cls-11" d="M923.61,1737.91l7.67-12.5,142.96,97.86s4.88,7.25,1.08,11.5l-151.71-96.86Z"/>
    <path class="cls-9" d="M1026.47,1741.2c-.5.71-4.42-1.29-9.59-1.21s-9.09,2-9.59,1.25,3.33-4.17,9.59-4.17,10.17,3.54,9.59,4.13Z"/>
    <path class="cls-9" d="M1038.31,1757.87c-.29.79-4.17,0-8.84,1.58s-7.34,4.46-8.04,3.96,1.46-5.04,7.09-6.84,10.13.54,9.79,1.29Z"/>
    <path class="cls-9" d="M1035.31,1782.67c-.75-.25.54-4.63,5-7.5s9-2.29,8.92-1.46-3.58,1.63-7.25,4.17c-3.67,2.54-5.88,5.21-6.67,4.79Z"/>
    <path class="cls-9" d="M1036.44,1722.4c-.75.46-3.5-2.71-7.88-5.08s-8.34-3.08-8.34-3.96,4.83-1.58,9.96,1.29,7,7.38,6.25,7.75Z"/>
    <path class="cls-6" d="M985.04,1659.34l49.64,77.27-150.96,98.07c-8.34-15,50.81-94.7,50.81-94.7l-23.34-33.34,73.86-47.31Z"/>
    <g class="cls-14">
      <path class="cls-11" d="M976.96,1703.15c3.58-1.08,7.39.72,8.84,4.17,1.16,3.57-.67,7.43-4.17,8.79-3.83,1.1-7.86-.89-9.34-4.58-.82-3.85,1.53-7.67,5.33-8.67"/>
    </g>
    <g class="cls-14">
      <path class="cls-11" d="M1034.48,1736.12l-7.84-12.5-141.71,100.03s-4.75,7.34-.92,11.55l150.46-99.07Z"/>
    </g>
    <path class="cls-9" d="M931.57,1740.83c.5.71,4.42-1.33,9.59-1.33s9.09,1.88,9.59,1.13-3.38-4.17-9.63-4.17-10.13,3.79-9.54,4.38Z"/>
    <path class="cls-9" d="M919.98,1757.67c.29.83,4.17,0,8.84,1.5s7.42,4.17,8.13,3.79-1.54-4.96-7.21-6.71c-5.67-1.75-10.17.71-9.75,1.42Z"/>
    <path class="cls-9" d="M923.32,1782.46c.79-.29-.58-4.63-5.13-7.46-4.54-2.83-9-2.17-8.92-1.33s3.63,1.58,7.29,3.96,5.96,5.21,6.75,4.83Z"/>
    <path class="cls-9" d="M921.36,1722.15c.75.5,3.46-2.75,7.79-5.17s8.34-3.21,8.34-4.17-4.83-1.5-9.92,1.46-6.96,7.54-6.21,7.88Z"/>
    <path class="cls-9" d="M783.4,1111.18s-132.37,130.75-104.7,224.32c22.05,73.94,213.69,384.03,213.69,384.03l115.08-75.27-149.75-278.92c-1.55-13.65-4.34-27.12-8.34-40.26l8.34-11.13s49.64-23.51,91.32-20.84l3.71-180.64-169.34-1.29Z"/>
    <path class="cls-9" d="M949.03,1293.19s77.52,19.21,93.78,19.21c10.25,0,4.63,30.68,10.17,43.18v2.71l-108.78,288.21,112.24,66.23s84.82-213.52,102.91-249.62c18.09-36.09,47.14-120.08,58.35-145.04,11.21-24.97-4.17-68.15-23.59-105.66-19.42-37.51-80.57-100.03-80.57-100.03h-160.8l-3.71,180.8Z"/>
    <path class="cls-4" d="M1173.39,1244.76c-6.81-2.23-13.77-3.94-20.84-5.13-34.71-5.27-69.13,11.1-86.94,41.35-3.48,6.18-6.5,12.6-9.04,19.21.22-1.91.69-3.79,1.38-5.58,1.61-5.02,3.75-9.85,6.38-14.42,17.51-31.45,53.04-48.34,88.48-42.05,5.19.86,10.27,2.25,15.17,4.17,1.9.61,3.71,1.43,5.42,2.46Z"/>
    <path class="cls-4" d="M1109,1312.41c-3.02,2.08-6.18,3.95-9.46,5.58-7.6,4.38-14.89,9.3-21.8,14.71-6.89,5.43-13.38,11.35-19.42,17.71-2.37,2.78-4.92,5.41-7.63,7.88,1.76-3.25,3.95-6.25,6.5-8.92,5.79-6.74,12.22-12.9,19.21-18.38,6.96-5.51,14.46-10.32,22.38-14.34,3.21-1.84,6.64-3.27,10.21-4.25Z"/>
    <path class="cls-4" d="M858.01,1313.82c-.38.25-4.17-5.71-11.71-13.75-4.52-4.72-9.46-9.01-14.75-12.84-12.95-9.41-27.78-15.91-43.47-19.05-6.4-1.32-12.89-2.1-19.42-2.33-11.13-.38-18.05.67-18.09.25,1.55-.53,3.16-.86,4.79-.96,1.89-.31,3.8-.51,5.71-.58,2.25,0,4.79-.38,7.63-.25,6.63.02,13.24.65,19.76,1.88,7.98,1.59,15.78,4.01,23.26,7.21,7.36,3.32,14.35,7.41,20.84,12.21,5.31,3.98,10.22,8.46,14.67,13.38,1.96,2.04,3.42,4.17,4.83,5.92,1.22,1.48,2.33,3.04,3.33,4.67,1.03,1.31,1.92,2.74,2.63,4.25Z"/>
    <path class="cls-4" d="M858.01,1313.82c-.94-3.19-1.7-6.44-2.29-9.71-2.02-7.72-4.82-15.22-8.34-22.38-5.25-10.01-11.23-19.62-17.88-28.76,2.63,2.08,4.96,4.52,6.92,7.25,5.06,6.34,9.4,13.24,12.92,20.55,3.57,7.31,6.16,15.06,7.71,23.05.88,3.26,1.21,6.64.96,10Z"/>
    <path class="cls-4" d="M892.39,1719.53l.5-.42,1.5-1.08,6.04-4.17,23.05-15.38,82.48-54.39-.29,1.21-63.52-120.16c-33.09-63.02-63.19-120.41-85.61-163.05v-.21c-2.78-13.59-5.35-25.69-7.71-36.3h0c-4.21-11.81-12.1-21.96-22.51-28.97-2.78-1.82-5.69-3.44-8.71-4.83l-2.33-1c-.5-.25-.79-.38-.75-.42,4.3,1.3,8.38,3.23,12.13,5.71,10.77,6.9,18.97,17.15,23.34,29.18h0l8,36.22v-.21l86.11,162.76,63.27,120.33.38.75-.71.46-82.94,53.77-23.34,14.96-6.17,3.88-1.58.96-.63.42Z"/>
    <path class="cls-4" d="M946.66,1246.85c0,.42-6,0-15.63.54-12.54.77-24.97,2.82-37.09,6.13-12.15,3.2-23.86,7.86-34.89,13.88-8.34,4.71-12.96,8.63-13.21,8.34.89-1.09,1.91-2.07,3.04-2.92,1.23-1.12,2.54-2.15,3.92-3.08,1.76-1.31,3.6-2.52,5.5-3.63,10.93-6.52,22.73-11.45,35.05-14.63,12.23-3.36,24.83-5.23,37.51-5.58,3.85-.12,7.71,0,11.55.38,1.44,0,2.87.2,4.25.58Z"/>
    <path class="cls-4" d="M945.12,1223.71c-.91-1.19-1.64-2.51-2.17-3.92l-5.21-10.96c-5.46-12.1-12.33-23.52-20.46-34.01-8.27-10.36-19.08-18.4-31.38-23.34-5.19-1.77-10.54-3.07-15.96-3.88,1.49-.23,3.01-.23,4.5,0,4.09.33,8.12,1.17,12,2.5,12.79,4.66,24.04,12.77,32.51,23.42,8.3,10.6,15.1,22.3,20.21,34.76,2.04,4.71,3.58,8.59,4.58,11.25.61,1.34,1.07,2.73,1.38,4.17Z"/>
    <path class="cls-4" d="M1042.81,1159.19c0,.46-6.09.75-15.55,3.29-5.51,1.53-10.88,3.52-16.05,5.96-12.67,6.02-23.92,14.66-33.01,25.34-3.69,4.35-6.99,9-9.88,13.92-4.92,8.34-6.79,14.3-7.21,14.17.22-1.43.61-2.83,1.17-4.17.47-1.61,1.07-3.19,1.79-4.71.83-1.79,1.67-3.88,2.92-6.04,2.76-5.13,6.01-9.97,9.71-14.46,9.07-11.11,20.6-19.95,33.68-25.84,5.35-2.43,10.94-4.32,16.67-5.63,2.17-.54,4.37-.95,6.59-1.25,1.65-.32,3.32-.5,5-.54,1.38-.17,2.78-.19,4.17-.04Z"/>
    <path class="cls-4" d="M1061.19,1282.65c-.33.29-4.42-4.17-12.5-9.54-10.8-6.76-22.41-12.12-34.55-15.96-12.07-4.09-24.55-6.89-37.22-8.34l-6.54-.46h-5.08c-1.38.16-2.78.16-4.17,0,1.33-.53,2.74-.87,4.17-1,1.38,0,3.08-.25,5.04-.38h6.67c12.87,1.05,25.57,3.68,37.8,7.84,12.31,3.87,24,9.48,34.72,16.67,1.85,1.27,3.62,2.66,5.29,4.17,1.31,1.04,2.54,2.18,3.67,3.42,1.05,1.08,1.96,2.28,2.71,3.58Z"/>
    <path class="cls-4" d="M1064.4,1316.87c0,.21-1.5-.58-3-2.5-3.87-5.24-4.6-12.16-1.92-18.09,1.08-2.21,2.21-3.21,2.42-3.08-1.26,3.93-1.86,8.04-1.75,12.17.74,4.05,2.18,7.95,4.25,11.5Z"/>
    <path class="cls-4" d="M1058.98,1340.33c-.25,0-1.17-.92-2.04-3-2.01-5.58-1.2-11.79,2.17-16.67,1.33-1.79,2.54-2.58,2.71-2.38-1.64,3.43-2.89,7.04-3.71,10.75-.15,3.79.15,7.58.88,11.3Z"/>
    <path class="cls-4" d="M949.95,1221.88c.94,11.91,1.15,23.87.63,35.8.2,11.94-.33,23.88-1.58,35.76-.92-11.91-1.11-23.87-.58-35.8-.2-11.94.31-23.88,1.54-35.76Z"/>
    <path class="cls-9" d="M1066.32,540.13c-5.17,2.88-12.09-.88-14.42-6.29-1.87-5.66-1.7-11.8.5-17.34,2.23-5.47,3.79-11.2,4.63-17.05.47-11.07-6.4-21.13-16.88-24.72,9.79-8.56,10.78-23.44,2.22-33.23-.19-.22-.39-.44-.6-.66-4.69-3.7-9.73-6.94-15.05-9.67-2.86-1.9-5.53-4.08-7.96-6.5,4.47,1.13,9.13,1.29,13.67.46,7.41-1.63,13.47-6.95,16.05-14.09,2.42-7.21.54-15.17-4.83-20.55-5.61-5.3-13.95-6.52-20.84-3.04-6.46,3.42-10.04,10.46-13.17,17.09-1,2.04-1.96,4.17-2.92,6.13-9.13-12.09-17.71-24.55-31.8-28.8-12.75-3.88-26.47.42-39.76-.54-9.67-.71-18.96-4.17-28.63-5.25s-20.84,1-26.3,8.88c-3.38,4.58-4.42,10.59-7.79,15.17-7,9.46-22.05,10.75-27.8,20.84-4.67,8.34-1.08,18.88-3.08,28.26-2.17,10.17-10.54,17.59-17.42,25.38s-12.84,18.55-9,28.22c3.38,8.34,13.3,13.09,16.67,21.63,2.33,6.25.63,13.21.5,19.88s2.58,14.59,9.09,16.09l73.98,19.55c25.51,10.38,51.81,20.84,79.19,20.84s56.85-13.21,67.73-38.51c-4.02-.17-7.82-1.87-10.63-4.75,7.26-3.31,12.64-9.71,14.67-17.42Z"/>
    <path class="cls-9" d="M1005.63,563.35c6.62-18.61,11.61-37.75,14.92-57.23,3.29-19.54,1.67-39.59-4.71-58.35-1.04-2.79-9.92-21.59-12.88-21.3-2.13.21,3.33,17.76,2.25,19.59-10.25,17.63-13.05,38.84-11.42,59.23,1.79,19.76,5.76,39.26,11.84,58.14"/>
    <path class="cls-7" d="M940.28,727.4c30.59-.67,65.31-67.52,65.31-67.52l2-171.84c1.63-49.47-25.84-91.69-75.36-91.9l-4.58.25c-46.05,2.48-82.48,39.89-83.73,85.98-1.17,42.89-1.88,90.32-.38,113.2,3.13,47.39,50.97,52.22,50.97,52.22,0,0,.25,11,.42,25.01.33,31.3,33.09,55.68,45.35,54.64v-.04Z"/>
    <path class="cls-3" d="M894.52,647.79c21.9-1.22,42.99-8.7,60.77-21.55,0,0-13.21,35.3-60.77,33.34v-11.8Z"/>
    <path class="cls-9" d="M864.38,519.59c.18,3.68,3.24,6.55,6.92,6.5,3.59.07,6.56-2.79,6.63-6.38,0-.04,0-.08,0-.13-.14-3.67-3.2-6.55-6.88-6.46-3.59-.09-6.57,2.74-6.67,6.33,0,.04,0,.08,0,.13Z"/>
    <path class="cls-9" d="M855.26,501.5c.88.88,5.79-3.21,13.09-3.58s12.84,3,13.59,2.04-.58-1.96-3-3.54c-3.27-2.01-7.09-2.96-10.92-2.71-3.82.23-7.46,1.69-10.38,4.17-2.38,1.79-2.96,3.25-2.38,3.63Z"/>
    <path class="cls-9" d="M930.28,517.84c.14,3.68,3.2,6.57,6.88,6.5,3.59.09,6.57-2.74,6.67-6.33,0-.06,0-.11,0-.17-.18-3.65-3.22-6.51-6.88-6.46-3.57-.12-6.55,2.68-6.67,6.25,0,.07,0,.14,0,.21Z"/>
    <path class="cls-9" d="M926.65,500.62c.92.83,5.84-3.21,13.13-3.58s12.84,2.96,13.59,2.04-.58-1.96-3-3.54c-3.27-2.01-7.09-2.96-10.92-2.71-3.8.17-7.43,1.56-10.38,3.96-2.17,1.83-2.96,3.46-2.42,3.83Z"/>
    <path class="cls-9" d="M903.52,558.01c-3.91-1-7.93-1.5-11.96-1.5-1.83,0-3.63-.38-4.17-1.63-.29-1.91.03-3.87.92-5.58,1.54-4.58,3.08-9.42,4.75-14.46,6.59-20.59,11.21-37.51,10.38-37.76s-6.84,16.25-13.38,36.84c-1.58,5.06-3.08,9.89-4.5,14.5-1.04,2.32-1.25,4.92-.58,7.38.62,1.3,1.8,2.24,3.21,2.54,1.04.25,2.1.35,3.17.29,4.07.31,8.16.1,12.17-.63Z"/>
    <path class="cls-9" d="M925.24,561.93c-1.17,0-.75,7.92-7.25,13.88-6.5,5.96-14.92,5.58-14.92,6.67s1.96,1.46,5.5,1.38c4.64-.21,9.06-2.02,12.5-5.13,3.31-3,5.31-7.17,5.58-11.63.13-3.33-.88-5.25-1.42-5.17Z"/>
    <path class="cls-9" d="M925.49,471.03c.83,1.96,8.04.63,16.67,1.21s15.63,2.5,16.67.67c.46-.88-.83-2.67-3.71-4.42-3.81-2.21-8.1-3.47-12.5-3.67-4.41-.29-8.82.46-12.88,2.21-3.13,1.46-4.63,3.08-4.25,4Z"/>
    <path class="cls-9" d="M856.84,477.12c1.38,1.58,6.29-.38,12.5-.79s11.21.5,12.3-1.29c.46-.88-.42-2.46-2.75-3.92-6.34-3.49-14.17-2.84-19.84,1.67-2.21,1.88-2.83,3.58-2.21,4.33Z"/>
    <path class="cls-7" d="M1005.59,523.38c.79-.42,32.09-11.38,32.8,21.09.71,32.47-32.05,26.47-32.13,25.55s-.67-46.64-.67-46.64Z"/>
    <path class="cls-3" d="M1015.89,557.51s.58.38,1.54.79c1.34.53,2.83.53,4.17,0,3.42-1.33,6.17-6.84,6.21-12.5.01-2.78-.59-5.52-1.75-8.04-.7-2.01-2.33-3.56-4.38-4.17-1.34-.3-2.72.37-3.29,1.63-.42.92-.21,1.58-.38,1.63s-.71-.5-.46-1.88c.16-.8.58-1.52,1.21-2.04.87-.72,2-1.05,3.13-.92,2.72.49,4.99,2.35,6,4.92,1.49,2.62,2.32,5.57,2.42,8.59,0,6.54-3.29,12.75-7.96,14.21-1.75.56-3.65.29-5.17-.75-1.21-.67-1.38-1.42-1.29-1.46Z"/>
    <path class="cls-9" d="M864.26,428.27c-5.29-2.83,10.25-20.05,23.09-26.09,19.42-9.09,49.18-14.92,67.27-10.04,21.76,5.88,39.89,16.42,51.02,36.01,10.75,19.95,15.99,42.41,15.17,65.06.41,6.88-1.03,13.75-4.17,19.88-4.46,7.25-13.13,11.88-12.5,21.8.29,3.62-.88,7.21-3.25,9.96-5.88,6.38-13.21.54-16.67-5.38-7.29-12.5-8.34-27.8-9.13-42.39-1.14-10.33-.58-20.78,1.67-30.93,1.5-5.42,4.17-10.59,5.21-16.09,1.61-5.49.7-11.42-2.5-16.17-.79-.97-1.69-1.85-2.67-2.63-9.32-7.94-22.19-10.23-33.68-6-18.21,6.71-49.35,16.67-57.6,10.67-11.84-8.75-14.71-14.55-14.71-14.55l-6.54,6.88Z"/>
    <path class="cls-9" d="M952.83,387.71c-18.04-6.12-37.77-4.77-54.81,3.75-9.15,4.33-16.13,12.2-19.34,21.8-2.58,9.67,1.67,21.46,11,25.01l.63.42c13.92,4.46,22.92,2.5,36.68-2.46,11.59-4.17,21.8-11.5,33.34-15.59,12.41-4.41,25.86-4.97,38.59-1.63-12.34-14.31-28.24-25.11-46.1-31.3Z"/>
    <path class="cls-4" d="M1014.64,419.85c-.29.25-2.92-2.88-8.34-6.5-3.07-2.15-6.39-3.93-9.88-5.29-4.18-1.71-8.7-2.47-13.21-2.21-8.27.92-16.11,4.16-22.63,9.34-5.04,4.17-7.38,7.34-7.67,7.09s.33-1,1.42-2.5c1.53-2.11,3.29-4.04,5.25-5.75,6.62-5.79,14.88-9.36,23.63-10.21,4.84-.29,9.68.57,14.13,2.5,3.59,1.49,6.97,3.46,10.04,5.84,2.94,2.02,5.41,4.65,7.25,7.71Z"/>
    <path class="cls-4" d="M1017.8,431.35c-.24,3.22-1.08,6.37-2.46,9.29-5.82,14.56-16.53,26.63-30.3,34.14-2.74,1.71-5.76,2.92-8.92,3.58,19.47-9.67,34.41-26.53,41.68-47.01Z"/>
    <path class="cls-4" d="M1031.1,436.64c.19,1.22.19,2.45,0,3.67-.2,3.37-.68,6.71-1.42,10-5.06,22.2-20.92,40.39-42.22,48.43-3.16,1.18-6.4,2.1-9.71,2.75-1.19.32-2.43.45-3.67.38,0-.38,5.08-1.29,12.8-4.58,20.35-8.55,35.59-26.03,41.3-47.35,2.33-8.09,2.5-13.34,2.92-13.3Z"/>
    <path class="cls-4" d="M915.65,384.75c-2.81,1.25-5.69,2.33-8.63,3.25-6.79,2.74-13.13,6.49-18.8,11.13-5.65,4.66-10.54,10.17-14.5,16.34-3.08,4.75-4.5,7.96-4.83,7.84.6-3.07,1.79-6,3.5-8.63,3.71-6.58,8.62-12.42,14.46-17.21,5.82-4.82,12.49-8.51,19.67-10.88,2.91-1.16,6-1.78,9.13-1.83Z"/>
    <path class="cls-4" d="M1041.27,388.84c-.71,6.78-3.64,13.14-8.34,18.09-4.09,5.43-9.84,9.38-16.38,11.25,5.34-3.64,10.29-7.83,14.75-12.5,3.93-5.23,7.27-10.88,9.96-16.84Z"/>
    <path class="cls-7" d="M684.37,861.65l-44.01,88.15c-4.89,9.83-7.19,20.75-6.67,31.72h0c1.67,34.17,29.85,61.01,64.06,61.02l125.66-7.29,5.5-57.35-95.61-23.05,36.22-68.52-85.15-24.67Z"/>
    <path class="cls-7" d="M804.32,977.68h24.59s55.52-20.05,66.94-18.13c10.29,1.71,47.93,26.72,55.31,31.68.81.57,1.44,1.36,1.79,2.29h0c1.49,4.07-.49,8.6-4.5,10.25l-.79.29.33,1.13c.45,1.46.64,2.98.58,4.5-.22,2.98-2.81,5.23-5.8,5.01-1.78-.13-3.39-1.13-4.29-2.68l1.42,2.54c.57,1.03.85,2.2.79,3.38v2.29c-.14,2.51-1.79,4.69-4.17,5.5h0c-2.29.77-4.82.12-6.46-1.67-4.79-5.25-15.09-15.8-22.09-16.96-7.55-.89-15.15-1.27-22.76-1.13-3.18-.02-6.04,1.94-7.17,4.92h0c4.17.29,32.97,15.34,43.18,20.84,3.25,1.61,5.47,4.74,5.92,8.34.38,3.17-1.21,6.54-7.54,5.04-12.99-3.87-25.68-8.68-37.97-14.38,0,0-12.5-3.58-20.84,2.17-11.46,8.09-16.67,11.04-26.59,7.79-5.97-2.01-11.71-4.68-17.09-7.96l-19.42-1.92s-18.46-46.1,6.63-53.14Z"/>
    <path class="cls-3" d="M877.64,987.06c3.45-.66,6.92-1.15,10.42-1.46,17.16-1.13,33.84,5.99,44.89,19.17,4.17,4.96,5.96,8.63,6.17,8.54-.34-.9-.76-1.76-1.25-2.58-1.2-2.26-2.6-4.4-4.17-6.42-10.92-13.72-28.01-21.02-45.47-19.42-2.59.2-5.16.63-7.67,1.29-1,.17-1.98.47-2.92.88Z"/>
    <path class="cls-3" d="M883.51,973.6c3.52-1.09,7.16-1.74,10.84-1.92,8.93-.05,17.69,2.44,25.26,7.17,7.5,4.82,14.34,10.61,20.34,17.21l5.58,5.92c.63.77,1.34,1.47,2.13,2.08-.54-.84-1.16-1.64-1.83-2.38-1.21-1.46-3-3.58-5.33-6.13-5.89-6.83-12.74-12.77-20.34-17.63-7.74-4.82-16.73-7.25-25.84-7-2.74.14-5.44.65-8.04,1.5-.92.25-1.58.63-2.08.79s-.71.33-.67.38Z"/>
    <path class="cls-3" d="M733.3,954.63c0,.38-4.38-.33-11.3-.29-9.03.19-17.97,1.78-26.51,4.71-8.57,2.8-16.6,7.02-23.76,12.5-5.42,4.17-8,7.79-8.34,7.59s.46-1.04,1.58-2.67c1.7-2.22,3.63-4.26,5.75-6.09,7.05-6.02,15.2-10.6,24.01-13.5,8.74-3.03,17.97-4.44,27.22-4.17,2.8.1,5.59.42,8.34.96,1.04.16,2.06.49,3,.96Z"/>
    <path class="cls-7" d="M1221.07,846.48s27.47,79.19,57.1,152.5c.58,1.49,1.05,3.03,1.42,4.58,3.48,17.43-7.83,34.37-25.26,37.85-2.18.44-4.4.64-6.63.62h-173.14v-55.73l106.62-22.63-38.59-85.69,78.48-31.51Z"/>
    <path class="cls-7" d="M1110.62,979.43h-24.59s-55.52-20.05-66.94-18.13c-10.29,1.71-47.93,26.72-55.31,31.68-.83.54-1.45,1.33-1.79,2.25h0c-1.49,4.07.49,8.6,4.5,10.25l.79.33-.38,1.13c-.44,1.46-.62,2.98-.54,4.5.22,2.98,2.81,5.23,5.8,5.01,1.78-.13,3.39-1.13,4.29-2.68l-1.42,2.5c-.59,1.02-.86,2.2-.79,3.38v2.29c.12,2.53,1.77,4.73,4.17,5.54h0c2.3.75,4.83.08,6.46-1.71,4.79-5.25,15.09-15.75,22.05-16.92,7.56-.92,15.18-1.29,22.8-1.13,3.17,0,6.02,1.96,7.17,4.92h0c-4.17.29-32.97,15.34-43.18,20.84-3.25,1.62-5.48,4.74-5.96,8.34-.38,3.21,1.25,6.54,7.59,5.08,12.99-3.87,25.68-8.68,37.97-14.38,0,0,12.5-3.63,20.84,2.13,11.5,8.13,16.67,11.09,26.59,7.79,5.99-1.98,11.74-4.64,17.13-7.92l19.42-1.96s18.42-46.1-6.67-53.14Z"/>
    <path class="cls-3" d="M1037.31,988.81c-3.45-.66-6.92-1.15-10.42-1.46-17.17-1.15-33.85,5.97-44.89,19.17-4.17,4.96-5.96,8.63-6.17,8.34.32-.89.74-1.74,1.25-2.54,1.2-2.27,2.6-4.43,4.17-6.46,10.97-13.67,28.05-20.96,45.51-19.42,2.59.23,5.15.67,7.67,1.33,1,.21,1.97.56,2.88,1.04Z"/>
    <path class="cls-3" d="M1031.43,975.31c-3.54-1.06-7.19-1.69-10.88-1.88-8.91-.04-17.65,2.43-25.22,7.13-7.52,4.82-14.37,10.61-20.38,17.21l-5.54,5.96c-.66.74-1.37,1.44-2.13,2.08.52-.85,1.12-1.65,1.79-2.38,1.25-1.46,3.04-3.58,5.33-6.17,5.91-6.81,12.78-12.74,20.38-17.59,7.72-4.83,16.7-7.27,25.8-7,2.75.12,5.47.63,8.09,1.5.7.2,1.39.47,2.04.79l.71.33Z"/>
    <path class="cls-3" d="M1249,980.06c-.21.29-3.58-2.38-9.5-5.75-15.49-8.94-33.31-12.97-51.14-11.59-6.84.5-11,1.46-11.09,1.08.88-.51,1.84-.86,2.83-1.04,2.65-.72,5.36-1.25,8.09-1.58,18.21-2.28,36.64,1.9,52.1,11.8,2.33,1.47,4.54,3.12,6.63,4.92,1.42,1.29,2.21,2.04,2.08,2.17Z"/>
  </g>
  <g id="freepik--Desk--inject-4">
    <rect class="cls-4" x="219.48" y="1044.2" width="1470.36" height="28.05"/>
    <polygon class="cls-4" points="279.21 1830.44 259.08 1830.44 259.08 1070.38 302.13 1070.38 279.21 1830.44"/>
    <polygon class="cls-9" points="538.16 1830.06 518.07 1830.06 518.07 1070.92 561.13 1070.92 538.16 1830.06"/>
    <polygon class="cls-9" points="1381.83 1829.23 1361.7 1829.23 1361.7 1071 1404.75 1071 1381.83 1829.23"/>
    <polygon class="cls-4" points="1598.6 1830.06 1578.47 1830.06 1578.47 1070.67 1621.53 1070.67 1598.6 1830.06"/>
    <path class="cls-2" d="M1075.66,1043.91h-258.2c-7.33-.01-13.36-5.77-13.71-13.09l-7.75-177.76c-.32-7.57,5.55-13.96,13.12-14.28.2,0,.4-.01.6-.01h273.21c7.6.02,13.74,6.19,13.72,13.79,0,.16,0,.31,0,.47l-7.25,177.76c-.29,7.35-6.35,13.16-13.71,13.13Z"/>
    <path class="cls-11" d="M960.41,944.46c0,7.8-6.33,14.13-14.13,14.13s-14.13-6.33-14.13-14.13c0-7.8,6.33-14.13,14.13-14.13,7.79.02,14.11,6.34,14.13,14.13Z"/>
  </g>
  <g id="freepik--Lamp--inject-4">
    <path class="cls-9" d="M1564.93,729.77c.72-5.87,6.07-10.04,11.94-9.32,5.87.72,10.04,6.07,9.32,11.94-.02.2-.05.39-.09.59l-46.93,286.54h-21.46l47.22-289.75Z"/>
    <path class="cls-9" d="M1581.68,733.32l-193.56-212.56-1.42,2.33-9.38,15.55,188.47,209.15c4,4.36,10.77,4.65,15.13.66,4.32-3.96,4.65-10.66.75-15.03v-.08Z"/>
    <path class="cls-4" d="M1567.47,738.82s-.33-.46-.25-1.33c.12-1.29.75-2.47,1.75-3.29,1.55-1.34,3.69-1.75,5.63-1.08,3.14,1.06,4.83,4.46,3.78,7.6-.6,1.78-2,3.18-3.78,3.78-1.93.65-4.06.26-5.63-1.04-1-.82-1.63-2.01-1.75-3.29,0-.88,0-1.33.25-1.33s.33,1.96,2.46,3.42c1.17.79,2.66.93,3.96.38,1.54-.63,2.56-2.13,2.58-3.79,0-1.68-1.03-3.2-2.58-3.83-1.31-.54-2.8-.38-3.96.42-1.96,1.42-1.96,3.5-2.46,3.42Z"/>
    <path class="cls-4" d="M1570.39,720.94c2.19,1.49,4.15,3.29,5.84,5.33,2.06,2.03,4.01,4.18,5.84,6.42,2.48,2.92,3.58,6.76,3.04,10.54-1,3.83-4.03,6.81-7.88,7.75-3.02.8-6.23.35-8.92-1.25-2.42-1.25-4.41-3.2-5.71-5.58.25-.33,2.29,2.08,6.46,4.17,2.34,1.21,5.06,1.47,7.59.71,3.08-.82,5.49-3.22,6.34-6.29.39-3.19-.53-6.41-2.54-8.92-1.79-2.5-3.83-4.67-5.33-6.54-1.85-1.89-3.44-4.02-4.71-6.34Z"/>
    <path class="cls-9" d="M1432.76,1044.83h176.22s-22.51-28.05-81.15-28.05c-54.64,0-87.19,16.05-95.07,28.05Z"/>
    <polygon class="cls-9" points="1389.25 486.99 1398.21 473.53 1387.12 465.03 1377.62 478.57 1389.25 486.99"/>
    <path class="cls-6" d="M1404.42,495.08l-38.59-27.97-37.01,44.56c-64.23,10.34-90.11,50.72-90.11,50.72l114.95,88.03c39.35-43.47,20.84-105.61,20.84-105.61l29.93-49.72Z"/>
    <path class="cls-9" d="M1374.37,544.8c-8.2-4.62-16.03-9.86-23.42-15.67-7.8-5.26-15.2-11.1-22.13-17.46,8.2,4.62,16.03,9.86,23.42,15.67,7.82,5.23,15.22,11.07,22.13,17.46Z"/>
    <path class="cls-9" d="M1233.79,593.02c.25.54-19.42,10.21-43.93,21.59-24.51,11.38-44.6,20.13-44.85,19.59s19.42-10.21,43.93-21.59,44.6-20.13,44.85-19.59Z"/>
    <path class="cls-9" d="M1278.13,631.37c.46.42-14.71,16.67-33.8,36.3-19.09,19.63-34.97,35.22-35.39,34.8s14.71-16.67,33.8-36.3,34.97-35.22,35.39-34.8Z"/>
    <path class="cls-9" d="M1307.39,746.4c-.58,0,.63-19.76,2.75-44.01,2.13-24.26,4.17-43.89,4.92-43.8-.17,14.71-1.09,29.4-2.75,44.01-2.13,24.26-4.33,43.85-4.92,43.8Z"/>
  </g>
  <g id="freepik--Floor--inject-4">
    <path class="cls-9" d="M1910.57,1830.06c0,.63-427.71,1.08-955.24,1.08s-955.33-.46-955.33-1.08,427.63-1.08,955.33-1.08,955.24.5,955.24,1.08Z"/>
  </g>
  <g id="freepik--Files--inject-4">
    <rect class="cls-8" x="534.4" y="128.28" width="111.95" height="89.49" transform="translate(-4.85 17.49) rotate(-1.69)"/>
    <path class="cls-9" d="M645.03,126.64h-2.13l-6.09.25-22.88.75-80.82,2.5.29-.29c.79,26.63,1.71,57.14,2.71,89.44h0l-.33-.29,111.87-3.25-.25.29c-.75-26.97-1.38-49.31-1.79-64.89,0-7.84-.33-13.96-.46-18.13v-6.46,6.34c0,4.17.33,10.29.58,18.09.5,15.63,1.21,38.01,2.08,65.02v.25h-.29l-111.87,3.33h-.33v-.33h0c-.96-32.3-1.83-62.85-2.63-89.44v-.29h.29l80.98-2.21,22.84-.63h8.09l.13-.04Z"/>
    <rect class="cls-6" x="538.28" y="133.95" width="104.07" height="78.23" transform="translate(-4.85 17.48) rotate(-1.69)"/>
    <g class="cls-13">
      <polygon class="cls-1" points="539.45 213.66 574.38 163.98 597.76 193.74 612.56 177.03 643.48 210.58 539.45 213.66"/>
    </g>
    <g class="cls-13">
      <path class="cls-1" d="M606.26,157.06c0,4.46-3.5,8.14-7.96,8.34-4.6.21-8.5-3.35-8.7-7.95-.21-4.6,3.35-8.5,7.95-8.7s8.5,3.35,8.7,7.95c0,.12,0,.24,0,.37Z"/>
    </g>
    <rect class="cls-8" x="438.16" y="199.75" width="169.13" height="135.21" transform="translate(-38.27 94.15) rotate(-9.93)"/>
    <path class="cls-9" d="M594.39,186.15h-.79l-2.33.42-9.04,1.63-34.09,6.09-120.29,21.3.38-.5c6.96,39.64,14.92,85.07,23.38,133.16h0l-.58-.42,166.72-29.18-.33.46c-6.92-40.14-12.5-73.36-16.67-96.65-2-11.63-3.54-20.84-4.63-27.01-.54-3.08-.92-5.5-1.21-7.13l-.38-2.46s0,.79.46,2.38.71,4.17,1.29,7.04c1.08,6.21,2.71,15.3,4.79,26.88l17.17,96.82v.38h-.42l-166.72,29.18h-.46v-.46h0c-8.34-48.1-16.38-93.53-23.3-133.16v-.46h.46l120.62-20.84,34.01-5.84,9-1.54,2.29-.38.67.29Z"/>
    <rect class="cls-6" x="443.96" y="208.32" width="157.26" height="118.2" transform="translate(-38.29 94.12) rotate(-9.93)"/>
    <g class="cls-12">
      <polygon class="cls-1" points="455.39 339.12 496.82 257.26 538.24 296.69 556.75 268.51 610.27 311.98 455.39 339.12"/>
    </g>
    <g class="cls-12">
      <path class="cls-1" d="M543,240.04c1.27,6.79-3.21,13.32-10,14.58-6.79,1.27-13.32-3.21-14.58-10-1.27-6.79,3.21-13.32,10-14.58.08-.02.16-.03.25-.04,6.72-1.11,13.09,3.35,14.34,10.04Z"/>
    </g>
    <path class="cls-6" d="M249.07,424.22l26.01,99.74c.9,3.56,4.44,5.8,8.04,5.08l181.76-35.59c3.75-.73,6.2-4.37,5.46-8.12,0,0,0,0,0,0l-15.21-78.65c-.77-3.79-4.46-6.24-8.25-5.48-.03,0-.06.01-.09.02l-111.62,22.59c-1.8.37-3.67,0-5.21-1l-23.17-15.34c-1.52-1-3.38-1.37-5.17-1.04l-47.14,9.25c-3.76.71-6.23,4.32-5.52,8.08.03.16.06.31.1.47Z"/>
    <rect class="cls-5" x="262.48" y="406.2" width="202.35" height="120.91" transform="translate(-82.9 78.59) rotate(-11.08)"/>
    <path class="cls-6" d="M238.99,440.56l39.39,120.87c.73,2.13,2.91,3.41,5.13,3l193.52-37.89c2.3-.44,3.87-2.59,3.58-4.92l-14.46-125.66c-.28-2.45-2.48-4.21-4.93-3.93-.12.01-.24.03-.36.06l-218.27,42.68c-2.45.39-4.13,2.7-3.73,5.16.03.22.08.43.15.64Z"/>
    <g class="cls-13">
      <path class="cls-1" d="M238.99,440.56l39.39,120.87c.73,2.13,2.91,3.41,5.13,3l193.52-37.89c2.3-.44,3.87-2.59,3.58-4.92l-14.46-125.66c-.28-2.45-2.48-4.21-4.93-3.93-.12.01-.24.03-.36.06l-218.27,42.68c-2.45.39-4.13,2.7-3.73,5.16.03.22.08.43.15.64Z"/>
    </g>
    <path class="cls-10" d="M316.93,329.99l-129.75-47.47c-4.63-2.27-6.69-7.75-4.71-12.5l32.22-84.28c1.52-4.82,6.51-7.64,11.42-6.46l129.91,48.64c4.54,1.71,5.04,6.59,3.33,11.13l-33.76,86.98c-1.28,3.48-5.14,5.26-8.62,3.98-.02,0-.04-.01-.05-.02Z"/>
    <path class="cls-6" d="M315.64,329.49c1.67.45,3.42.45,5.08,0,1.99-.6,3.72-1.84,4.92-3.54.7-1.12,1.24-2.32,1.63-3.58.54-1.33,1.04-2.79,1.63-4.17,4.63-12.25,11.25-29.8,19.38-51.47,2.08-5.46,4.17-11.13,6.46-17.05l3.46-9.09c.64-1.48,1.15-3.02,1.54-4.58.22-1.54,0-3.12-.63-4.54-.64-1.46-1.72-2.68-3.08-3.5-1.54-.73-3.13-1.36-4.75-1.88l-10.09-3.67-21.09-7.71-93.82-34.3c-3.91-1.26-8.15.51-10,4.17l-4.67,12.09-9.13,23.84c-5.75,15.71-11.75,30.76-17.26,45.1-.71,1.79-1.38,3.58-2.04,5.33-.72,1.59-.93,3.37-.58,5.08.36,1.62,1.24,3.09,2.5,4.17,1.39,1.05,2.98,1.82,4.67,2.25l19.84,7.34,35.64,13.13,51.52,19.34,14,5.29,3.58,1.42c.43.14.85.32,1.25.54-.45-.06-.88-.19-1.29-.38l-3.67-1.25-13.88-5-51.72-18.63-35.8-12.96-19.88-7.21c-1.86-.5-3.6-1.37-5.13-2.54-1.54-1.33-2.59-3.13-3-5.13-.45-1.99-.27-4.07.5-5.96.67-1.79,1.33-3.58,2.04-5.38l17.13-45.06c2.96-7.79,6-15.75,9.09-23.8,1.54-4.17,3.13-8.34,4.71-12.21,2.09-4.63,7.37-6.91,12.17-5.25l93.78,34.39,20.84,7.75,10.09,3.71c1.71.56,3.38,1.24,5,2.04,1.61.98,2.87,2.44,3.63,4.17.73,1.69.97,3.55.71,5.38-.4,1.65-.95,3.27-1.63,4.83-1.21,3.08-2.38,6.09-3.5,9.04-2.29,5.92-4.46,11.59-6.59,17.01l-19.88,51.27c-.58,1.54-1.17,2.96-1.67,4.17-.44,1.29-1.04,2.53-1.79,3.67-1.3,1.75-3.15,3.01-5.25,3.58-1.29.3-2.63.3-3.92,0-.36-.03-.71-.12-1.04-.25Z"/>
    <polygon class="cls-6" points="279.75 247.75 293.25 264.68 271.66 268.59 250.12 272.51 258.16 251.67 266.2 230.83 279.75 247.75"/>
  </g>
  <g id="freepik--Cloud--inject-4">
    <ellipse class="cls-9" cx="383.53" cy="903.45" rx="1.08" ry="5.21"/>
    <path class="cls-9" d="M383.53,955.68c-1.45-7.77-1.45-15.74,0-23.51,1.45,7.77,1.45,15.74,0,23.51Z"/>
    <path class="cls-9" d="M393.95,989.6c-3.37,1.06-6.91,1.42-10.42,1.08l-1.08-1.08h0v-7.54c.21-1.88.5-3.04.79-3.04s.54,1.17.75,3.04c0,.96,0,2.08.25,3.33v3.92h0l-1.08-1.08c3.66-.32,7.34.14,10.79,1.38Z"/>
    <path class="cls-9" d="M435.8,989.6c-3.38,1.06-6.94,1.43-10.46,1.08-3.52.34-7.08-.03-10.46-1.08,3.37-1.08,6.94-1.45,10.46-1.08,3.52-.37,7.09,0,10.46,1.08Z"/>
    <path class="cls-9" d="M477.68,989.6c-6.87,1.43-13.97,1.43-20.84,0,6.87-1.43,13.97-1.43,20.84,0Z"/>
    <path class="cls-9" d="M519.53,989.6c-6.87,1.43-13.97,1.43-20.84,0,6.87-1.43,13.97-1.43,20.84,0Z"/>
    <path class="cls-9" d="M561.42,989.6c-6.87,1.43-13.97,1.43-20.84,0,6.87-1.43,13.97-1.43,20.84,0Z"/>
    <path class="cls-9" d="M603.31,989.6c-6.87,1.43-13.97,1.43-20.84,0,6.87-1.43,13.97-1.43,20.84,0Z"/>
    <path class="cls-9" d="M645.15,989.6c-6.87,1.43-13.97,1.43-20.84,0,6.87-1.43,13.97-1.43,20.84,0Z"/>
    <path class="cls-9" d="M687.04,989.6c-6.87,1.43-13.97,1.43-20.84,0,6.87-1.43,13.97-1.43,20.84,0Z"/>
    <path class="cls-9" d="M728.88,989.6c-6.87,1.43-13.97,1.43-20.84,0,6.87-1.43,13.97-1.43,20.84,0Z"/>
    <path class="cls-9" d="M770.77,989.6c-6.87,1.43-13.97,1.43-20.84,0,6.87-1.43,13.97-1.43,20.84,0Z"/>
    <path class="cls-9" d="M802.12,989.6c0,.58-2.33,1.08-5.21,1.08s-5.21-.5-5.21-1.08,2.33-1.08,5.21-1.08,5.21.46,5.21,1.08Z"/>
    <rect class="cls-6" x="194.6" y="530.51" width="354.31" height="354.31" rx="28.3" ry="28.3"/>
    <path class="cls-11" d="M438.05,782.46c20.33-5.64,32.23-26.69,26.59-47.01-5.64-20.33-26.69-32.23-47.01-26.59h0c3.04-29.55-23.84-58.6-53.56-57.81-29.72.79-55.06,31.22-50.39,60.6-19.3-.69-35.51,14.4-36.2,33.7-.69,19.3,14.4,35.51,33.7,36.2l126.87.92Z"/>
  </g>
</svg>
