<?xml version="1.0" encoding="UTF-8"?>
<svg id="Layer_1" data-name="Layer 1" xmlns="http://www.w3.org/2000/svg" viewBox="0 0 1000 1000">
  <defs>
    <style>
      .cls-1 {
        fill: #ff9a6c;
      }

      .cls-1, .cls-2, .cls-3, .cls-4, .cls-5, .cls-6, .cls-7, .cls-8, .cls-9 {
        stroke-width: 0px;
      }

      .cls-2 {
        fill: #000;
      }

      .cls-3 {
        fill: #e0e0e0;
      }

      .cls-4 {
        fill: #455a64;
      }

      .cls-5 {
        fill: #f5f5f5;
      }

      .cls-6 {
        fill: #09f;
      }

      .cls-7 {
        fill: #263238;
      }

      .cls-8 {
        fill: #ffbf9d;
      }

      .cls-10 {
        opacity: .3;
      }

      .cls-11 {
        opacity: .6;
      }

      .cls-9 {
        fill: #fff;
      }
    </style>
  </defs>
  <path class="cls-3" d="M344.28,74.33h-8v35.82h8v-35.82Z"/>
  <path class="cls-3" d="M322.37,88.24v8h35.82v-8h-35.82Z"/>
  <path class="cls-3" d="M539.7,250.78h-12.25v54.92h12.25v-54.92Z"/>
  <path class="cls-3" d="M506.1,272.13v12.25h54.92v-12.25h-54.92Z"/>
  <path class="cls-3" d="M686.63,90.88h-8v35.82h8v-35.82Z"/>
  <path class="cls-3" d="M664.7,104.77v8h35.82v-8h-35.82Z"/>
  <path class="cls-3" d="M869.91,157.08h-12.25v54.93h12.25v-54.93Z"/>
  <path class="cls-3" d="M836.31,178.41v12.25h54.93v-12.25h-54.93Z"/>
  <path class="cls-5" d="M931.48,424.18h-248.86v460.36h248.86v-460.36Z"/>
  <path class="cls-3" d="M902.96,869.25h12.37v-261.36h-12.37v261.36Z"/>
  <path class="cls-3" d="M880.79,869.25h12.37v-261.36h-12.37v261.36Z"/>
  <path class="cls-3" d="M858.6,869.25h12.37v-261.36h-12.37v261.36Z"/>
  <path class="cls-3" d="M836.39,869.25h12.37v-261.36h-12.37v261.36Z"/>
  <path class="cls-3" d="M815.29,869.25h12.37v-261.36h-12.37v261.36Z"/>
  <path class="cls-3" d="M793.56,869.25h12.37v-261.36h-12.37v261.36Z"/>
  <path class="cls-3" d="M771.39,869.25h12.37v-261.36h-12.37v261.36Z"/>
  <path class="cls-3" d="M747.82,869.25h12.37v-261.36h-12.37v261.36Z"/>
  <path class="cls-3" d="M725.63,869.25h12.37v-261.36h-12.37v261.36Z"/>
  <path class="cls-3" d="M704.02,869.25h12.37v-261.36h-12.37v261.36Z"/>
  <path class="cls-3" d="M902.19,592.19h12.37v-137.77h-12.37v137.77Z"/>
  <path class="cls-3" d="M880,592.19h12.37v-137.77h-12.37v137.77Z"/>
  <path class="cls-3" d="M857.81,592.19h12.37v-137.77h-12.37v137.77Z"/>
  <path class="cls-3" d="M835.64,592.19h12.37v-137.77h-12.37v137.77Z"/>
  <path class="cls-3" d="M814.53,592.19h12.37v-137.77h-12.37v137.77Z"/>
  <path class="cls-3" d="M792.79,592.19h12.37v-137.77h-12.37v137.77Z"/>
  <path class="cls-3" d="M770.6,592.19h12.37v-137.77h-12.37v137.77Z"/>
  <path class="cls-3" d="M745.75,592.19h12.37v-137.77h-12.37v137.77Z"/>
  <path class="cls-3" d="M723.56,592.19h12.37v-137.77h-12.37v137.77Z"/>
  <path class="cls-3" d="M702.52,592.19h12.37v-137.77h-12.37v137.77Z"/>
  <path class="cls-5" d="M676.07,551.07h-175.94v333.47h175.94v-333.47Z"/>
  <path class="cls-3" d="M647.55,869.25h12.37v-261.36h-12.37v261.36Z"/>
  <path class="cls-3" d="M625.34,869.25h12.37v-261.36h-12.37v261.36Z"/>
  <path class="cls-3" d="M603.17,869.25h12.37v-261.36h-12.37v261.36Z"/>
  <path class="cls-3" d="M580.98,869.25h12.37v-261.36h-12.37v261.36Z"/>
  <path class="cls-3" d="M559.88,869.25h12.37v-261.36h-12.37v261.36Z"/>
  <path class="cls-3" d="M538.15,869.25h12.37v-261.36h-12.37v261.36Z"/>
  <path class="cls-3" d="M515.94,869.25h12.37v-261.36h-12.37v261.36Z"/>
  <path class="cls-3" d="M646.78,592.19h12.37v-24.71h-12.37v24.71Z"/>
  <path class="cls-3" d="M624.59,592.19h12.37v-24.71h-12.37v24.71Z"/>
  <path class="cls-3" d="M602.38,592.19h12.37v-24.71h-12.37v24.71Z"/>
  <path class="cls-3" d="M580.19,592.19h12.37v-24.71h-12.37v24.71Z"/>
  <path class="cls-3" d="M559.1,592.19h12.37v-24.71h-12.37v24.71Z"/>
  <path class="cls-3" d="M537.38,592.19h12.37v-24.71h-12.37v24.71Z"/>
  <path class="cls-3" d="M515.19,592.19h12.37v-24.71h-12.37v24.71Z"/>
  <path class="cls-3" d="M683.07,886.72c-.26,0-.49-103.34-.49-230.77s.23-230.81.49-230.81.49,103.32.49,230.81-.21,230.77-.49,230.77Z"/>
  <path class="cls-5" d="M908.39,278.24h-188.81v146.89h188.81v-146.89Z"/>
  <path class="cls-3" d="M765.44,404.32h12.37v-94.94h-12.37v94.94Z"/>
  <path class="cls-3" d="M743.27,404.32h12.37v-94.94h-12.37v94.94Z"/>
  <path class="cls-3" d="M811.52,404.32h12.37v-94.94h-12.37v94.94Z"/>
  <path class="cls-3" d="M789.33,404.32h12.37v-94.94h-12.37v94.94Z"/>
  <path class="cls-3" d="M857.58,404.32h12.37v-94.94h-12.37v94.94Z"/>
  <path class="cls-3" d="M835.39,404.32h12.37v-94.94h-12.37v94.94Z"/>
  <path class="cls-3" d="M881.49,404.32h12.37v-94.94h-12.37v94.94Z"/>
  <path class="cls-5" d="M433.63,585.49h-175.94v300.13h175.94v-300.13Z"/>
  <path class="cls-3" d="M286.21,666.58h-12.37v206.96h12.37v-206.96Z"/>
  <path class="cls-3" d="M308.4,666.58h-12.37v206.96h12.37v-206.96Z"/>
  <path class="cls-3" d="M330.59,666.58h-12.37v206.96h12.37v-206.96Z"/>
  <path class="cls-3" d="M352.78,666.58h-12.37v206.96h12.37v-206.96Z"/>
  <path class="cls-3" d="M373.89,666.58h-12.37v206.96h12.37v-206.96Z"/>
  <path class="cls-3" d="M395.61,666.58h-12.37v206.96h12.37v-206.96Z"/>
  <path class="cls-3" d="M417.8,666.58h-12.37v206.96h12.37v-206.96Z"/>
  <path class="cls-3" d="M286.98,604.22h-12.37v49.92h12.37v-49.92Z"/>
  <path class="cls-3" d="M309.17,604.22h-12.37v49.92h12.37v-49.92Z"/>
  <path class="cls-3" d="M331.36,604.22h-12.37v49.92h12.37v-49.92Z"/>
  <path class="cls-3" d="M353.56,604.22h-12.37v49.92h12.37v-49.92Z"/>
  <path class="cls-3" d="M374.66,604.22h-12.37v49.92h12.37v-49.92Z"/>
  <path class="cls-3" d="M396.38,604.22h-12.37v49.92h12.37v-49.92Z"/>
  <path class="cls-3" d="M418.57,604.22h-12.37v49.92h12.37v-49.92Z"/>
  <path class="cls-5" d="M267.05,313.05H79.4v572.58h187.65V313.05Z"/>
  <path class="cls-5" d="M198.79,142.62h-46.1v8.62h46.1v-8.62Z"/>
  <path class="cls-5" d="M179.14,74.33h-7.34v70.81h7.34v-70.81Z"/>
  <path class="cls-5" d="M240.84,151.24H110.63v164.61h130.22v-164.61Z"/>
  <path class="cls-3" d="M139.78,171.52h-12.93v133h12.93v-133Z"/>
  <path class="cls-3" d="M162.97,171.52h-12.93v133h12.93v-133Z"/>
  <path class="cls-3" d="M186.18,171.52h-12.93v133h12.93v-133Z"/>
  <path class="cls-3" d="M209.37,171.52h-12.93v133h12.93v-133Z"/>
  <path class="cls-3" d="M231.43,171.52h-12.93v133h12.93v-133Z"/>
  <path class="cls-3" d="M109.82,336.54h-13.19v526.01h13.19V336.54Z"/>
  <path class="cls-3" d="M133.5,336.54h-13.19v526.01h13.19V336.54Z"/>
  <path class="cls-3" d="M157.16,336.54h-13.19v526.01h13.19V336.54Z"/>
  <path class="cls-3" d="M180.82,336.54h-13.19v526.01h13.19V336.54Z"/>
  <path class="cls-3" d="M203.33,336.54h-13.19v526.01h13.19V336.54Z"/>
  <path class="cls-3" d="M226.5,336.54h-13.19v526.01h13.19V336.54Z"/>
  <path class="cls-3" d="M250.16,336.54h-13.2v526.01h13.2V336.54Z"/>
  <path class="cls-7" d="M937.03,887.38c0,.26-195.76.49-437.01.49s-437.05-.23-437.05-.49,195.65-.53,437.03-.53,437.03.26,437.03.53Z"/>
  <path class="cls-9" d="M668.11,221.62l-17.81,3.18c-8.95,10.1-21.34,16.49-34.76,17.91-13.42,1.42-26.88-2.22-37.74-10.22-10.86-8-18.34-19.77-20.97-33.01-2.62-13.23-.2-26.97,6.79-38.51,6.99-11.54,18.04-20.05,30.99-23.85,12.94-3.8,26.84-2.63,38.96,3.29,12.12,5.92,21.59,16.17,26.54,28.71,4.95,12.55,5.03,26.5.23,39.1l7.77,13.38Z"/>
  <path class="cls-7" d="M668.11,221.62s-.21-.3-.56-.88l-1.53-2.58-5.85-9.84h.32s-.09.06-.14.06-.1-.02-.14-.06c-.03-.04-.04-.08-.04-.12s.01-.09.04-.12c3.1-8.28,4.13-17.2,2.99-25.98-.36-2.76-.94-5.48-1.73-8.15-.9-2.83-2.02-5.59-3.35-8.24-2.84-5.92-6.76-11.25-11.56-15.74-5.52-5.15-12.06-9.08-19.19-11.54-7.13-2.46-14.7-3.4-22.22-2.76-8.32.82-16.33,3.55-23.43,7.96-7.46,4.62-13.64,11.04-17.98,18.67-6.57,11.49-8.66,25-5.86,37.94,2.8,12.94,10.29,24.38,21.02,32.12,10.73,7.74,23.95,11.24,37.11,9.82,13.16-1.42,25.33-7.66,34.16-17.52h.11l13.18-2.2,3.45-.56,1.2-.19-1.11.24-3.35.64-13.31,2.5h.13c-5.93,6.78-13.47,11.96-21.93,15.06-10.49,3.85-21.92,4.36-32.72,1.48-10.8-2.88-20.44-9.03-27.62-17.59-7.18-8.57-11.54-19.14-12.5-30.27-.95-11.14,1.55-22.29,7.17-31.96l1.75-2.92c.64-.92,1.32-1.88,1.98-2.73,1.35-1.79,2.79-3.5,4.33-5.12.73-.83,1.62-1.52,2.41-2.28.78-.78,1.61-1.51,2.49-2.18,1.7-1.37,3.5-2.63,5.36-3.76,7.23-4.48,15.39-7.25,23.85-8.08,7.65-.64,15.36.33,22.61,2.85,7.25,2.53,13.9,6.55,19.5,11.81,4.84,4.57,8.79,9.99,11.65,16,1.32,2.73,2.41,5.56,3.27,8.47.79,2.7,1.35,5.47,1.69,8.26,1.1,8.87-.02,17.87-3.26,26.2l-.34-.19s.09-.05.14-.05.1.02.14.05l5.65,10.11,1.45,2.56.56.81Z"/>
  <path class="cls-6" d="M609.29,211.08l-26.46-17.69,6.17-9.22,17.75,11.86,22.06-29.21,8.87,6.7-28.39,37.57Z"/>
  <path class="cls-9" d="M361.82,216.41l8.86-17.45c-3.66-9.88-4.61-20.56-2.75-30.93,1.85-10.37,6.44-20.06,13.29-28.06,6.85-8,15.72-14.03,25.68-17.46,9.96-3.43,20.66-4.14,30.98-2.05,9.23,1.85,17.89,5.87,25.25,11.73,7.36,5.86,13.22,13.4,17.09,21.98,3.87,8.58,5.63,17.96,5.14,27.36-.49,9.4-3.21,18.55-7.95,26.69-4.73,8.14-11.34,15.03-19.27,20.1-7.93,5.07-16.96,8.17-26.33,9.06-9.37.88-18.82-.49-27.56-3.99-8.74-3.5-16.51-9.04-22.68-16.15l-19.76-.83Z"/>
  <path class="cls-7" d="M361.82,216.41h1.32l3.76.11,14.61.49-.19.3s-.04-.1-.03-.16c.01-.05.05-.1.09-.13.05-.03.1-.04.16-.03.05.01.1.05.13.09,6.49,7.39,14.72,13.05,23.94,16.47,2.86,1.07,5.8,1.91,8.79,2.5,3.21.6,6.47.96,9.73,1.09,8.14.32,16.26-1.07,23.84-4.06,7.58-3,14.44-7.54,20.17-13.34,5.72-5.8,10.17-12.73,13.06-20.35,2.89-7.62,4.16-15.75,3.73-23.89-.09-1.15-.09-2.32-.23-3.46-.13-1.15-.36-2.3-.55-3.44l-.26-1.73c-.11-.56-.28-1.13-.41-1.69l-.88-3.43c-.3-1.13-.79-2.22-1.17-3.33-.37-1.13-.79-2.23-1.28-3.31-.97-2.18-2.07-4.31-3.29-6.36-.64-1.02-1.2-2.07-1.88-3.07l-2.13-2.88-1.09-1.34-1.19-1.32-2.37-2.65c-3.3-3.31-6.97-6.23-10.94-8.7-7.69-4.75-16.36-7.71-25.35-8.64-8.16-.76-16.39.18-24.17,2.78-7.78,2.59-14.93,6.78-21,12.28-5.31,4.81-9.69,10.55-12.93,16.94-.7,1.52-1.56,2.97-2.09,4.52l-1.66,4.54c-.85,2.93-1.53,5.91-2.03,8.92-1.46,9.73-.45,19.67,2.94,28.91.02.05.02.11,0,.17-2.92,5.65-5.16,9.9-6.68,12.86l-1.75,3.33c-.4.75-.62,1.15-.62,1.15l.53-1.09c.38-.79.92-1.88,1.64-3.33l6.51-13.18v.17c-3.51-9.29-4.6-19.31-3.18-29.14.49-3.05,1.16-6.06,1.99-9.04l1.67-4.59c.61-1.57,1.3-3.1,2.07-4.59,3.26-6.48,7.68-12.31,13.04-17.2,11.43-10.37,26.43-15.92,41.86-15.5,15.43.42,30.1,6.77,40.96,17.74l2.41,2.69,1.22,1.34,1.07,1.45,1.99,2.96c.68,1,1.28,2.07,1.88,3.12,1.25,2.02,2.38,4.12,3.37,6.29.56,1.07.87,2.26,1.32,3.37.45,1.11.88,2.24,1.19,3.39l.88,3.48c.13.56.32,1.15.43,1.73l.26,1.75c.19,1.17.36,2.33.55,3.5.19,1.17.15,2.35.23,3.52.43,8.25-.87,16.5-3.81,24.22-2.94,7.72-7.45,14.74-13.26,20.62-5.8,5.88-12.77,10.48-20.45,13.51-7.68,3.03-15.91,4.43-24.17,4.11-3.31-.12-6.6-.51-9.84-1.15-12.8-2.61-24.37-9.41-32.88-19.31l.34-.23s.05.09.05.14-.02.1-.05.14h-.11l-14.74-.77-3.76-.21-1.32-.04Z"/>
  <path class="cls-7" d="M428.57,206.55h-28.93v-58.97h28.93v58.97ZM401.52,204.67h25.17v-55.21h-25.17v55.21Z"/>
  <path class="cls-7" d="M411.91,156.27h-5.95v7.19h5.95v-7.19Z"/>
  <path class="cls-7" d="M422.24,156.27h-5.95v7.19h5.95v-7.19Z"/>
  <path class="cls-7" d="M411.91,167.49h-5.95v7.19h5.95v-7.19Z"/>
  <path class="cls-7" d="M422.24,167.49h-5.95v7.19h5.95v-7.19Z"/>
  <path class="cls-7" d="M411.91,178.73h-5.95v7.19h5.95v-7.19Z"/>
  <path class="cls-7" d="M422.24,178.73h-5.95v7.19h5.95v-7.19Z"/>
  <path class="cls-7" d="M411.91,190.3h-5.95v7.19h5.95v-7.19Z"/>
  <path class="cls-7" d="M422.24,190.3h-5.95v7.19h5.95v-7.19Z"/>
  <path class="cls-7" d="M438.53,183.83h-5.95v7.19h5.95v-7.19Z"/>
  <path class="cls-7" d="M448.86,183.83h-5.95v7.19h5.95v-7.19Z"/>
  <path class="cls-7" d="M438.53,193.9h-5.95v7.19h5.95v-7.19Z"/>
  <path class="cls-7" d="M448.86,193.9h-5.95v7.19h5.95v-7.19Z"/>
  <path class="cls-7" d="M454.82,206.55h-28.23v-29.33h28.23v29.33ZM428.47,204.67h24.47v-25.56h-24.47v25.56Z"/>
  <path class="cls-4" d="M449.53,154.54h-13.27v18.88h13.27v-18.88Z"/>
  <path class="cls-4" d="M442.89,157.76h-9.47l4.74-5.95,4.72-5.93,4.74,5.93,4.74,5.95h-9.49Z"/>
  <path class="cls-7" d="M745.87,861.85v2.14s-36.01,14.85-36.33,21.72l71.75-1.05-1.32-23.87c-5.28,2.61-11.05,4.06-16.94,4.24-5.88.18-11.74-.91-17.17-3.19Z"/>
  <path class="cls-4" d="M781.31,884.67l-.32-5.65-68.65,3.1s-3.18,1.43-2.78,3.77l71.75-1.22Z"/>
  <path class="cls-9" d="M745.64,864.26c0,.34,1.77.47,3.5,1.58,1.73,1.11,2.67,2.56,2.99,2.41.32-.15-.23-2.16-2.35-3.44-2.13-1.28-4.24-.92-4.14-.55Z"/>
  <path class="cls-9" d="M738.15,867.42c0,.34,1.45.9,2.67,2.37,1.22,1.47,1.56,3.03,1.88,3.01.32-.02.55-2.02-1-3.77-1.54-1.75-3.56-1.96-3.56-1.62Z"/>
  <path class="cls-9" d="M734.01,876.5c.32,0,.79-1.7-.15-3.6-.94-1.9-2.58-2.66-2.71-2.35-.13.3.88,1.3,1.62,2.88.73,1.58.9,3.03,1.24,3.07Z"/>
  <path class="cls-7" d="M797.18,840.22l-30.55,8.55,7.62,17.32-7.92,43.84c-.22,1.2.01,2.44.65,3.49.64,1.04,1.64,1.81,2.81,2.16.91.26,1.87.25,2.78-.01.91-.26,1.73-.77,2.36-1.48,6.74-7.53,31.4-35.5,30.81-38.91l-.98-9.11c-.21-1.88-2.03-6.38-2.03-6.8l-5.55-19.05Z"/>
  <path class="cls-4" d="M770.7,915.8l34.77-43.75.17,2c.12.82.06,1.66-.18,2.45-.24.79-.66,1.52-1.23,2.13-2.73,4.41-10.49,14.4-29.16,35.52-.54.61-1.22,1.07-1.98,1.36-.76.29-1.58.39-2.38.3Z"/>
  <path class="cls-9" d="M779.86,894.23c-1.3-1.37-2.85-2.48-4.57-3.27-1.83-.52-3.75-.7-5.65-.53,0-.11.53-.55,1.66-.79,1.46-.3,2.99-.19,4.39.34,1.4.51,2.62,1.41,3.52,2.6.62.9.77,1.6.66,1.66Z"/>
  <path class="cls-9" d="M776.98,900.84c-1.45-.63-2.94-1.18-4.46-1.64-1.58-.14-3.17-.19-4.76-.15.71-.52,1.53-.87,2.39-1.02.87-.15,1.76-.1,2.6.16,2.92.56,4.48,2.51,4.24,2.66Z"/>
  <path class="cls-9" d="M785.53,885.55c-2.16-1.15-4.41-2.14-6.72-2.96-2.41-.5-4.86-.83-7.32-.98,2.44-.86,5.09-.86,7.53,0,2.57.5,4.88,1.89,6.51,3.94Z"/>
  <path class="cls-4" d="M773.89,860.14c.3,1.95.42,3.92.36,5.89-.38,2.54-.92,5.8-1.52,9.32-.73,4.16-1.45,7.92-2.02,10.65-.21,1.49-.58,2.95-1.09,4.37,0-1.51.16-3.01.47-4.48.4-2.75,1-6.53,1.73-10.71.62-3.52,1.22-6.76,1.73-9.26-.04-1.93.07-3.86.34-5.78Z"/>
  <path class="cls-7" d="M817.36,577.93c2.41-11.61,8.51-32.62,6.12-42.3-5.65-22.42-15.34-35.39-28.69-63.85h-9.92l-95.21-1.66-7.79,17.28c-8.66,23.28-14.57,37.18-16.94,54.21-2.8,19.61,2.11,48.04,13.03,76.74,23.53,61.95,36.67,111.49,37.65,124.84.98,13.35,2.32,27.12,14.7,69.38,9.02,30.85,15.7,49.28,15.7,49.28,9.41,5.31,19.33,6.74,28.38,1.58l27.63-10.65s-8.47-72.75-18.35-92.06c-7.11-13.89-18.82-20.48-13.33-38.59,5.5-18.11,39.64-108.53,47.02-144.2Z"/>
  <path class="cls-4" d="M705.93,519.18c.14.15.27.31.38.49l1.05,1.45,4.03,5.74,15.06,21.7v.19c-.73,8.13-1.02,17.56-1.52,28.08-.51,10.52-1.05,22.08-1.64,34.5-.58,12.42-1.35,25.71-2.07,39.62s-1.54,28.48-2.94,43.44c-1.45,12.44-2.73,24.68-1.67,36.42.28,2.94.64,5.84,1.19,8.68.48,2.81,1.17,5.59,2.07,8.3,1.88,5.27,4.25,10.39,6.42,15.36,8.79,19.9,16.94,37.65,23.87,52.61l16.42,35.31,4.42,9.64c.47,1.07.85,1.88,1.13,2.5.28.62.36.87.36.87,0,0-.17-.26-.45-.83l-1.2-2.47c-1.07-2.22-2.6-5.44-4.57-9.54l-16.58-35.25c-6.93-14.91-15.23-32.66-24.06-52.53-2.18-4.99-4.48-10.03-6.49-15.42-.91-2.75-1.6-5.56-2.09-8.41-.56-2.88-.94-5.8-1.22-8.75-1.07-11.88.21-24.19,1.66-36.63,1.39-14.89,2.11-29.48,2.96-43.29.85-13.82,1.49-27.2,2.14-39.62.66-12.42,1.22-24,1.77-34.5.55-10.5.89-19.95,1.68-28.08v.17c-6.36-9.41-11.41-16.77-14.89-21.85l-3.92-5.82-.98-1.51c-.12-.18-.21-.37-.28-.56Z"/>
  <path class="cls-5" d="M718.61,315.8l5.85-14.78,34.84-1.88,14.23,1.88,1.56,4.1,9.66,170.87s-33.75,6.81-50.62,4.44c-16.87-2.37-36.72-10.07-36.72-10.07v-97.18l21.19-57.39Z"/>
  <path class="cls-7" d="M771.05,322.74s0,.11-.24.3l-.75.85c-.66.73-1.66,1.88-2.97,3.09-3.59,3.56-7.4,6.9-11.41,9.99l-.17.13-.13-.17c-3.77-4.13-7.27-8.5-10.47-13.08-.36-.51-.7-1.03-1.03-1.51h.43c-2.99,4.01-5.82,7.81-8.38,11.29-.33.44-.72.84-1.17,1.17-.23.18-.48.31-.76.39-.28.08-.57.1-.86.06-.53-.12-1.02-.39-1.39-.79-.38-.38-.66-.77-.96-1.13l-3.31-4.14-4.74-6-1.26-1.64c-.15-.18-.29-.38-.41-.58l.49.53,1.34,1.58,4.88,5.89,3.35,4.1c.6.72,1.2,1.58,2.11,1.73.9.15,1.71-.64,2.34-1.45l8.34-11.29.21-.3.21.3,1.02,1.49c3.2,4.57,6.67,8.93,10.39,13.08h-.32c4.01-3.05,7.85-6.32,11.5-9.81,1.34-1.28,2.35-2.3,3.07-2.99l.81-.79c.08-.11.18-.21.28-.3Z"/>
  <g class="cls-10">
    <path class="cls-2" d="M731.24,333.58s4.42,5.44,5.65,4.06c1.22-1.37,7.79-11.5,8.56-11.91.77-.41,8.7,13.78,11.8,12.8,3.1-.98,14.17-12.07,14.17-12.07l.21-4.35-16.11,14.66-11.43-14.62-9.64,12.52s-2.03,1.66-3.22-1.09Z"/>
  </g>
  <path class="cls-7" d="M738.66,481.48c-.05-.53-.05-1.07,0-1.6,0-1.13,0-2.67.15-4.59.17-4.07.4-9.81.68-16.94.6-14.25,1.41-33.88,2.16-55.66.75-21.78,1.3-41.41,1.69-55.68.19-7.06.36-12.8.47-16.94.08-1.92.13-3.45.17-4.57,0-.54.04-1.07.13-1.6.05.53.05,1.07,0,1.6v4.59c0,4.09-.09,9.83-.17,16.94-.21,14.25-.66,33.88-1.39,55.7-.73,21.82-1.67,41.41-2.45,55.66-.41,7.04-.75,12.78-1,16.94-.13,1.88-.24,3.44-.34,4.59,0,.52-.04,1.04-.11,1.56Z"/>
  <g class="cls-10">
    <path class="cls-2" d="M707.96,412.51l-18.3,120.11,1.41,13.01c1.6,1.88,4.82,1.22,6.44-.58,1.46-1.96,2.34-4.3,2.52-6.74,7.02-41.54,10.79-83.78,7.93-125.8Z"/>
  </g>
  <path class="cls-6" d="M682.21,316.25c-3.36,1.08-6.4,2.96-8.88,5.48-2.47,2.52-4.3,5.6-5.32,8.97l-21.8,76.89,17.88,52.7,18.67-31.77,13.18-114.99-13.74,2.71Z"/>
  <path class="cls-6" d="M707.39,311.32l-20.7,4.05-5.8,109.91c0,1.35,1.35,22.59,1.35,22.59l-35.76,79.85c7.98,14.23,29.55,20.91,44.76,24.47,0,0,15.4-109.17,16.39-133.23,1-24.06,16.45-117.59,16.45-117.59l-16.7,9.96Z"/>
  <path class="cls-7" d="M650.96,518.65l.13-.36.45-1.05,1.73-4.03c1.52-3.52,3.76-8.6,6.51-14.94l22.29-50.6v.11c-.17-5.44-.38-11.09-.64-16.94-.6-13.01-1.32-25.41-1.79-36.69-.47-11.28-.77-21.46-.87-30.01-.09-8.54,0-15.45,0-20.22,0-2.37.09-4.22.13-5.5v-1.92,7.42c0,4.76,0,11.69.13,20.22.13,8.53.45,18.69.98,29.99.53,11.29,1.17,23.68,1.88,36.69.26,5.78.47,11.44.62,16.94v.11l-22.44,50.54c-2.82,6.31-5.08,11.29-6.66,14.87-.77,1.73-1.39,3.07-1.88,3.99-.21.45-.36.79-.49,1.03-.02.12-.05.23-.09.34Z"/>
  <path class="cls-7" d="M706.66,407.01s0-.09-.09-.26l-.19-.77c-.17-.71-.4-1.69-.68-2.95-.55-2.58-1.3-6.32-2.01-11.01-.72-4.69-1.39-10.24-1.88-16.47s-.98-13.06-1.32-20.25c-.11-2.69-.24-5.33-.36-7.91l-.17-3.76v-3.82s.23-.09.26,0c.04.09.13,0,.19.15h-.36l5.53-3.88v.41l-6.06-3.03h-.17v-.17c.9-3.41,1.99-6.46,2.94-9.13.94-2.67,1.88-5.01,2.58-6.91.7-1.9,1.34-3.37,1.75-4.39.21-.47.38-.85.49-1.15.11-.3.19-.38.19-.38-.03.14-.07.28-.13.41l-.41,1.17c-.4,1.05-.94,2.54-1.66,4.42s-1.54,4.24-2.47,6.93c-.92,2.69-1.98,5.65-2.86,9.13l-.11-.24,6.02,2.77.38.17-.34.24-5.52,3.88h-.36s.19-.13.17-.13c.01,0,.03.01.05.01.02,0,.03,0,.05-.01h.09v1.62l.09,1.88c0,1.24.11,2.52.17,3.76.11,2.58.24,5.21.36,7.91.34,7.19.75,14.02,1.28,20.23.53,6.21,1.17,11.8,1.88,16.47.71,4.67,1.37,8.41,1.88,11.01.24,1.26.45,2.26.58,2.98,0,.32.11.58.15.77.04.19.06.3.06.3Z"/>
  <path class="cls-6" d="M809.19,457.82l13.18-132.99-37.02-13.57s-8.68-7.98-13.29-12.1l-1.64,20.86s-5.01,85.36,2.88,128.36c7.89,42.99,6.78,41.52,12.54,69.49,4.2,20.35,4.89,38.12,11.29,39.9,6.4,1.79,38.32-9.9,38.32-9.9l-26.26-90.05Z"/>
  <path class="cls-6" d="M822.35,324.83s14.49,5.52,16.68,24.17c1.6,13.78,10.07,92.48,1.2,102.29-10.6,11.4-22.2,21.83-34.65,31.17l-20.7-26.94,19.65-21.61,11.09-95.34,6.74-13.74Z"/>
  <path class="cls-7" d="M781.25,402.44c0-.09,0-.17,0-.26,0-.19,0-.43.13-.73.14-.68.33-1.62.56-2.82.45-2.45,1.13-6,1.75-10.43,1.32-8.85,2.45-21.14,3.09-34.77.15-3.21.3-6.35.45-9.41,0-1.52.13-3.01.21-4.48l.11-2.16v-1.58c.01-.08.01-.16,0-.24.05.02.1.02.15,0h.15-.34l-5.52-3.89-.32-.21.36-.17,6.02-2.77-.11.23c-.53-2.43-.94-4.88-1.22-7.34-.28-2.18-.55-4.05-.85-5.55-.3-1.51-.62-2.67-.85-3.46l-.3-.88c0-.19-.09-.3,0-.3.05.09.09.19.13.28,0,.21.21.49.34.87.4,1.13.72,2.28.96,3.45.34,1.52.64,3.39.96,5.55.31,2.45.74,4.89,1.3,7.3v.15h-.15l-5.93,2.95v-.38l5.53,3.86h-.36c.05-.05.12-.08.19-.09.06-.02.13-.02.19,0v2.07c0,.71,0,1.43-.09,2.16,0,1.47-.13,2.96-.19,4.48-.15,3.03-.28,6.17-.43,9.41-.48,11.65-1.57,23.27-3.26,34.8-.68,4.42-1.41,7.96-1.88,10.41-.28,1.19-.49,2.13-.66,2.81-.08.3-.13.55-.17.73.08.36.06.43.04.43Z"/>
  <path class="cls-7" d="M832.25,437.09s-1.3-.87-3.52-1.88c-1.31-.63-2.67-1.16-4.07-1.56-1.72-.48-3.48-.79-5.25-.94-1.78-.11-3.56-.06-5.33.15-1.44.19-2.87.5-4.25.94-2.37.73-3.76,1.51-3.76,1.41.28-.24.6-.43.94-.58.37-.2.76-.39,1.15-.55.51-.24,1.04-.46,1.58-.64,1.4-.49,2.84-.84,4.31-1.05,3.6-.52,7.28-.25,10.77.81,1.41.44,2.78.99,4.09,1.67.51.26,1,.55,1.47.87.37.22.73.45,1.07.71.29.18.57.4.81.64Z"/>
  <g class="cls-10">
    <path class="cls-2" d="M785.36,312.97s6.68,15.58,5.65,16.94c-1.03,1.35-4.44,2.22-4.44,2.22,0,0,5.76,2.5,5.76,4.71,0,4.41-6.19,30.46-6.19,30.46l1.52-31.83-5.52-3.77,6.02-2.8-2.8-15.92Z"/>
  </g>
  <path class="cls-7" d="M812.01,356.85c.05.36.05.73,0,1.09,0,.81-.11,1.88-.19,3.11-.21,2.84-.51,6.7-.87,11.42-.85,9.77-1.98,23.02-3.24,37.65-.43,4.56-.83,8.98-1.22,13.18-.2,2.11-.43,4.16-.68,6.16-.19,1.95-.52,3.88-1.02,5.78l-14.36,14.93-4.07,4.07c-.45.51-.96.98-1.51,1.39.39-.56.83-1.09,1.32-1.56l3.88-4.25,14-14.89v.15c.44-1.86.75-3.74.92-5.65.23-1.98.43-4.03.64-6.14.38-4.22.77-8.64,1.19-13.18,1.38-14.63,2.62-27.88,3.52-37.65.49-4.73.9-8.58,1.19-11.41.15-1.24.28-2.28.38-3.09-.01-.37.03-.75.11-1.11Z"/>
  <path class="cls-6" d="M650.13,393.8l-14.36,32-13.55-15.19-18.09,12.76,21.25,34.09c6.68,8.56,13.06,14.4,20.33,13.48,1.46-.2,2.9-.55,4.29-1.03,9.98-3.41,16.85-10.11,19.44-20.33l8.23-41.24-27.54-14.53Z"/>
  <path class="cls-7" d="M651.62,450.95c-.12-.44-.22-.9-.28-1.35-.15-.87-.41-2.13-.77-3.67-.36-1.54-.85-3.35-1.49-5.35-.64-1.99-1.45-4.14-2.41-6.34-.96-2.2-2.03-4.25-3.05-6.08-1.02-1.83-2.05-3.41-2.94-4.71-.88-1.3-1.66-2.35-2.18-3.05-.29-.35-.56-.72-.81-1.11.34.31.65.65.92,1.02.58.68,1.37,1.69,2.3,2.97.92,1.28,1.88,2.88,3.03,4.69,1.14,1.98,2.17,4.02,3.11,6.1.96,2.22,1.75,4.4,2.39,6.4.64,1.99,1.09,3.76,1.41,5.4.32,1.64.53,2.82.64,3.76.08.44.13.88.13,1.32Z"/>
  <path class="cls-7" d="M730.81,190l-.11.49c.09-.09.09-.32.11-.49Z"/>
  <path class="cls-7" d="M696,282.07c.24-5.12-1.67-10.07-3.29-14.94-1.62-4.88-2.96-10.15-1.58-15.06,1.73-6.21,7.32-10.54,10.33-16.26,3.01-5.72,3.24-12.48,3.76-18.94.53-6.46,1.62-13.31,5.91-18.18,5.42-6.17,19.61-7.28,26.35-2.52,1.03,36.74.71,73.13-7.15,109.04-17.94.77-27.03-2.73-42.67-11.5,4.99-1.07,8.09-6.49,8.34-11.63Z"/>
  <path class="cls-8" d="M772.93,305.35l6.49-89.22c.09-1.97-.56-3.9-1.82-5.42-1.26-1.52-3.05-2.5-5-2.77l-41.41-11.73c-13.33-1.88-22.68,14.42-23.9,27.8-1.36,14.87-2.43,33.09-.98,44.25,2.92,22.46,19.97,25.79,19.97,25.79-.36,11.07-.23,11.29-.23,11.29l18.28,16.72,28.59-16.72Z"/>
  <path class="cls-7" d="M713.34,243.44c-.03.75.23,1.48.73,2.03s1.2.89,1.94.94c.37.04.73,0,1.08-.1.35-.11.68-.28.96-.51.28-.23.51-.52.68-.85.17-.32.27-.68.3-1.04.03-.75-.24-1.47-.74-2.03-.5-.55-1.19-.89-1.94-.95-.36-.04-.73,0-1.08.1-.35.11-.68.28-.96.51-.28.23-.51.52-.68.85-.17.32-.27.68-.3,1.04Z"/>
  <path class="cls-7" d="M710.95,233.69c.34.38,2.56-1.17,5.65-1.07,3.09.09,5.31,1.71,5.65,1.34.34-.38-.17-.85-1.13-1.6-1.31-.96-2.89-1.49-4.52-1.52-1.6-.05-3.18.41-4.5,1.32-.98.62-1.28,1.3-1.15,1.54Z"/>
  <path class="cls-7" d="M739.66,243.99c-.03.75.23,1.48.73,2.03.5.56,1.2.89,1.94.94.37.04.73,0,1.08-.1.35-.11.68-.28.96-.51.28-.23.51-.52.69-.85.17-.32.27-.68.3-1.04.03-.75-.23-1.48-.73-2.03-.5-.56-1.2-.89-1.94-.94-.37-.04-.73,0-1.09.1-.35.1-.68.28-.96.51-.28.23-.52.52-.68.85-.17.33-.27.68-.3,1.05Z"/>
  <path class="cls-7" d="M741.25,235.05c.36.38,2.58-1.17,5.65-1.07,3.07.09,5.31,1.71,5.65,1.34.34-.38-.17-.85-1.13-1.58-1.31-.97-2.89-1.51-4.52-1.54-1.6-.05-3.18.41-4.5,1.32-.96.7-1.32,1.37-1.15,1.54Z"/>
  <path class="cls-7" d="M729.41,257.61c-1.61-.57-3.29-.92-4.99-1.05-.79-.09-1.52-.28-1.64-.83-.05-.81.15-1.62.58-2.32.79-1.88,1.64-3.76,2.5-5.93,3.48-8.45,6.02-15.4,5.65-15.55-.38-.15-3.44,6.61-6.93,15.06-.83,2.07-1.64,4.06-2.39,5.97-.53.94-.71,2.03-.51,3.09.11.28.28.53.5.73.22.2.48.36.76.45.44.13.88.21,1.34.23,1.69.26,3.41.31,5.12.15Z"/>
  <path class="cls-1" d="M726.25,294.06c10.5.45,20.93-2.02,30.12-7.13,1.34-3.09-5.99,11.16-30.29,12.99l.17-5.85Z"/>
  <path class="cls-1" d="M729.64,264.96c.72-1,1.67-1.81,2.78-2.36,1.11-.55,2.33-.82,3.56-.78.81.03,1.59.27,2.29.67.7.41,1.29.98,1.72,1.66.42.77.62,1.65.58,2.53-.04.88-.32,1.73-.81,2.46-.58.75-1.38,1.31-2.28,1.6-.9.3-1.87.31-2.79.05-1.7-.61-3.23-1.62-4.46-2.94-.39-.33-.71-.73-.94-1.19-.11-.25-.16-.53-.13-.8.03-.27.13-.54.3-.76"/>
  <path class="cls-7" d="M738.43,260.04c-.51,0-.6,3.3-3.54,5.65-2.94,2.35-6.48,1.88-6.53,2.3-.06.41.79.68,2.3.75,1.96.08,3.88-.52,5.44-1.71,1.49-1.15,2.48-2.84,2.75-4.71.21-1.49-.19-2.28-.41-2.28Z"/>
  <path class="cls-3" d="M740.26,222.4c.28.85,3.37.55,6.98,1.07,3.62.53,6.51,1.62,7,.88.23-.36-.26-1.17-1.41-2.01-1.55-1.03-3.31-1.67-5.16-1.88-1.84-.28-3.73-.12-5.5.47-1.35.34-2.03.98-1.92,1.47Z"/>
  <path class="cls-7" d="M712.34,223.02c.53.72,2.67,0,5.21,0s4.71.6,5.23-.11c.23-.36-.09-1.05-1.02-1.75-1.24-.86-2.71-1.3-4.22-1.28-1.51,0-2.98.45-4.22,1.3-.92.79-1.22,1.51-1,1.84Z"/>
  <path class="cls-7" d="M726.23,196.04c3.76-9.19,12.14-11.12,21.04-12.08,8.9-.96,22.12,2.73,29.48,7.53,6.12,3.73,11.62,8.39,16.3,13.82,3.95,5.1,5.65,10.92,8.17,16.79,3.77,9.15,3.58,19.26,4.1,29.08.68,12.35,2.66,24.58,5.89,36.52,1.17,4.29,2.35,9.41-3.76,11.88-1.14.44-2.33.73-3.54.87-9.41,1.13-18.52,4.2-29.01,4.86h-6.46c-8.19,0-12.39-5.27-12.1-11.95.85-20.2,10.69-53.36,11.78-59.73.06.08,3.46-43.52-41.9-37.57Z"/>
  <path class="cls-7" d="M729.19,195.86c1.37,1.14,2.49,2.54,3.3,4.13.81,1.59,1.29,3.32,1.41,5.09.49,3.52.28,7.13.94,10.62.69,3.5,2.21,6.78,4.43,9.57,2.23,2.79,5.09,5,8.35,6.45,2.09.88,4.93,1.26,6.23-.6-.08,2.48.6,4.93,1.95,7.02,1.34,2.09,3.29,3.72,5.58,4.67,3.31,1.34,7.02,1.11,10.5,1.88,3.48.77,7.13,3.16,7.32,6.74l1.47-24.83-6.98-21.95-21.46-12.74-23.04,3.95Z"/>
  <path class="cls-9" d="M767.29,236.78c-.72-.5-1.41-1.06-2.05-1.66-1.62-1.79-2.78-3.94-3.39-6.27-.86-3.46-1.36-7-1.49-10.56-.17-4.39-.68-8.77-1.52-13.08-.87-4.36-2.88-8.41-5.84-11.73-1.32-1.42-2.92-2.57-4.69-3.37-1.55-.69-3.2-1.09-4.89-1.2-2.45-.2-4.89.39-6.98,1.68-.33.19-.64.41-.92.66-.23.16-.44.35-.62.56-.17.16-.33.34-.47.53.65-.6,1.34-1.14,2.09-1.62,2.09-1.2,4.49-1.73,6.89-1.51,3.6.26,6.97,1.88,9.41,4.54,2.86,3.29,4.81,7.28,5.65,11.56.84,4.29,1.35,8.64,1.54,13.01.15,3.59.68,7.16,1.6,10.63.64,2.36,1.87,4.52,3.56,6.29.62.63,1.34,1.15,2.13,1.54Z"/>
  <path class="cls-4" d="M785.85,233.78c-1.12-.13-2.22-.41-3.27-.83-2.79-1.35-5.16-3.43-6.85-6.02-1.23-1.74-2.28-3.59-3.14-5.53-.93-2.26-1.52-4.65-1.75-7.08-.32-2.56-.41-5.29-.71-8.11-.17-1.39-.36-2.84-.68-4.27-.34-1.45-.82-2.87-1.43-4.24-2.41-5.22-6.7-9.35-12.01-11.56-4.32-1.77-9.1-2.09-13.63-.92-3.04.75-5.88,2.13-8.36,4.05-.9.7-1.74,1.48-2.49,2.33.07-.04.12-.09.17-.15l.49-.43c.21-.21.47-.45.79-.72.32-.26.7-.6,1.15-.9,2.48-1.85,5.31-3.17,8.32-3.88,4.46-1.1,9.15-.76,13.4.98,5.18,2.18,9.37,6.21,11.76,11.29.59,1.34,1.06,2.73,1.39,4.16.3,1.4.52,2.81.68,4.24.3,2.79.41,5.52.73,8.11.27,2.46.9,4.88,1.88,7.15.89,1.98,1.96,3.87,3.22,5.65,1.75,2.61,4.19,4.69,7.04,6,.79.3,1.61.5,2.45.6h.66l.19.08Z"/>
  <path class="cls-4" d="M753.85,231.11v.81c0,.24,0,.62.13,1.02.13.4.17.85.28,1.36.3,1.24.78,2.43,1.41,3.54.86,1.47,2.01,2.76,3.39,3.76,3.81,2.49,8.35,3.61,12.88,3.18,2.7-.13,5.37-.55,7.98-1.24,2.85-.71,5.58-1.82,8.13-3.28l.51-.3h-.58c-3.27-.46-6.45-1.44-9.41-2.9h-.17l-.13.4c6.65,1.07,13.47-.15,19.33-3.46l.4-.23-.43-.13c-4.14-1.24-8.02-3.21-11.46-5.82-2.69-2.05-4.76-4.81-5.99-7.96-.71-2.08-1.04-4.28-.98-6.48,0-.73.09-1.32.13-1.75v-.68c0,.05,0,.1,0,.15v.45c0,.41-.11,1-.21,1.75-.11,2.23.19,4.45.88,6.57,1.25,3.25,3.39,6.08,6.17,8.17,3.47,2.64,7.39,4.65,11.56,5.93v-.36c-5.79,3.25-12.51,4.44-19.07,3.39l-1.45-.24,1.32.64h.17c2.96,1.47,6.14,2.46,9.41,2.94v-.4c-2.52,1.44-5.22,2.54-8.04,3.26-2.58.7-5.22,1.11-7.89,1.24-4.45.45-8.92-.62-12.69-3.03-1.37-1.01-2.52-2.29-3.37-3.76-.63-1.1-1.12-2.27-1.47-3.48-.11-.51-.23-.94-.3-1.34-.08-.4-.11-.73-.17-1-.06-.26,0-.45-.09-.6-.06-.04-.12-.08-.19-.11Z"/>
  <path class="cls-4" d="M799.74,292.21c.11,0-1.24-11.97-3.03-26.69-1.79-14.72-3.35-26.65-3.46-26.65s1.24,11.97,3.03,26.69c1.79,14.72,3.33,26.65,3.46,26.65Z"/>
  <path class="cls-4" d="M754.41,461.13c-1.77-.37-3.6-.36-5.37.02-1.77.38-3.44,1.12-4.91,2.18-4.67,3.43-12.67,7.98-20.71,6.4-12.48-2.47-19.26-14.17-16.47-28.23,2.78-14.06,13.46-22.46,25.96-19.99,8.07,1.58,13.76,8.81,16.79,13.76.96,1.53,2.22,2.84,3.71,3.86,1.49,1.02,3.17,1.72,4.95,2.06,1.71.34,3.47.33,5.18-.01,1.71-.34,3.33-1.02,4.78-1.99s2.69-2.22,3.65-3.67,1.63-3.08,1.97-4.79l13.85-83.31-130.48-22.8-89.18-15.45-13.93,79.06c-1.41,7.19,4.63,13.57,11.82,15.06,1.77.36,3.6.35,5.36-.03,1.77-.38,3.44-1.13,4.9-2.19,4.67-3.43,12.69-7.98,20.7-6.4,12.5,2.47,19.27,14.17,16.49,28.33-2.78,14.15-13.48,22.46-25.98,19.99-8.06-1.58-13.76-8.81-16.79-13.76-.96-1.53-2.22-2.85-3.71-3.87-1.49-1.02-3.17-1.73-4.95-2.07-1.71-.35-3.47-.35-5.18-.01-1.71.34-3.34,1.02-4.79,1.99-1.45.97-2.69,2.23-3.65,3.68-.96,1.46-1.62,3.09-1.95,4.8l-16.72,93.1,131.23,23.09,76.99,13.55,9.41,1.67,17.41-88.34c.37-1.71.39-3.49.06-5.21-.33-1.72-.99-3.37-1.96-4.83-.97-1.46-2.22-2.72-3.68-3.69-1.46-.97-3.1-1.64-4.82-1.97Z"/>
  <path class="cls-8" d="M624.44,408.22c.02-.47-.06-.94-.23-1.38-.17-.44-.44-.84-.77-1.17-.34-.33-.74-.59-1.17-.76-.44-.17-.91-.24-1.38-.22-1.09,0-2.5.13-4.24.3-4.5.45-17.81,7-18.16,9.64-.24.94-.24,1.93.02,2.87.25.94.75,1.8,1.43,2.49,0,0-2.6,3.44-1.66,6.31.83,2.43,4.74,3.28,4.74,3.28,0,0-2.9,3.37,0,5.78,1.03.83,3.12,2.43,3.59,2.98.19.72.47,1.42.83,2.07.65.92,1.49,1.68,2.47,2.25.97.56,2.06.91,3.18,1.03h.75c1.44.14,2.88-.28,4.03-1.17,5.2-3.97,19.91-15.49,20.2-18.69,0,0,2.8-2.18,1.71-4.46-1.09-2.28-5.29-1.3-5.29-1.3.57-.46.98-1.09,1.17-1.8.19-.71.15-1.46-.12-2.14-.96-2.41-8.39-2.2-11.76-1.75-2.69.34-10.18,1.56-10.18,1.56,0,0,9.98-3.43,10.56-5.12.12-.19.21-.39.28-.6Z"/>
  <path class="cls-1" d="M638.22,423.9c-.31.24-.65.44-1,.62-.66.36-1.62.87-2.84,1.47-2.41,1.2-5.84,2.71-9.67,4.2-3.84,1.49-7.4,2.67-9.98,3.5-1.28.41-2.31.72-3.05.94-.37.12-.75.22-1.13.28.35-.17.72-.32,1.09-.43l3.01-1.03c2.56-.88,6.06-2.13,9.92-3.6,3.86-1.47,7.25-2.95,9.7-4.08l2.9-1.37c.34-.19.69-.35,1.05-.49Z"/>
  <path class="cls-1" d="M635.09,418.04c-.35.12-.72.2-1.09.24-.7.13-1.71.32-2.97.6-2.5.55-5.91,1.49-9.64,2.67-1.88.58-3.65,1.11-5.25,1.66-1.6.55-3.01,1.15-4.18,1.64-1.17.49-2.11.96-2.77,1.26-.32.19-.66.34-1.02.45l.24-.17.71-.41c.62-.34,1.54-.83,2.71-1.35,1.17-.53,2.58-1.15,4.18-1.73s3.39-1.11,5.25-1.69c3.19-1.03,6.43-1.89,9.71-2.58,1.24-.24,2.28-.4,2.99-.49l1.11-.09Z"/>
  <path class="cls-1" d="M613.75,414.02c-.5.34-1.04.62-1.6.85-1.02.47-2.45,1.07-4.03,1.73-1.58.66-2.98,1.28-3.99,1.75-.54.28-1.09.52-1.66.73.47-.38.99-.71,1.54-.96,1.29-.7,2.61-1.33,3.97-1.88,1.58-.66,3.01-1.22,4.05-1.64.55-.24,1.13-.44,1.71-.58Z"/>
  <path class="cls-1" d="M633.53,429.73c-.2.28-.43.55-.68.79-.47.47-1.17,1.15-2.05,1.88-1.77,1.64-4.33,3.76-7.12,6.08-.68.58-1.34,1.2-2.03,1.73-.65.53-1.33,1.01-2.03,1.45-1.2.77-2.51,1.34-3.88,1.69-.92.25-1.89.33-2.84.24-.26-.01-.52-.04-.77-.09h-.26c.35-.02.69-.02,1.04,0,.94.02,1.87-.1,2.77-.38,1.33-.38,2.6-.96,3.77-1.71.69-.45,1.36-.93,1.99-1.45.68-.53,1.32-1.13,2.01-1.73,2.79-2.37,5.38-4.42,7.19-5.99l2.11-1.88c.25-.23.51-.45.79-.64Z"/>
  <path class="cls-8" d="M781.12,460.81s-4.67-5.01-8.6-5.82c-3.93-.81-9.41-.11-10.33-.79-.92-.68-2.99-3.35-4.86-1.69-1.86,1.66-4.88,8.26,3.09,11.5l5.65.92c-.74,2.66-1.88,5.2-3.37,7.53-1.73,2.01-25.02,23.21-25.02,23.21,0,0-2.8,2.03-1.99,4.65.81,2.62,6.21,2.07,6.21,2.07.9,1.09,2.07,1.94,3.38,2.46,1.32.52,2.74.7,4.15.52,2.17-.38,4.3-1.01,6.32-1.88,1.17,1.24,2.72,2.06,4.4,2.33,1.68.27,3.41,0,4.92-.81,5.42-2.84,28.54-23.47,28.54-23.47l-5.82-20.5-6.66-.23Z"/>
  <path class="cls-8" d="M786.52,456.78l-5.8,4.05c7.19,7.25,12.65,13.68,11.16,22.38l11.18-4.54s.96-17.39-16.55-21.89Z"/>
  <path class="cls-1" d="M759.46,490.85c-2.19,2.76-4.86,5.09-7.89,6.89-2.84,2.06-6.03,3.6-9.41,4.54-.11-.28,4.12-2.2,8.88-5.36,4.76-3.16,8.21-6.27,8.41-6.06Z"/>
  <path class="cls-1" d="M767.57,495.33c-1.48,2.32-3.41,4.31-5.67,5.88-2.26,1.57-4.81,2.67-7.5,3.25-.09-.28,3.29-1.52,6.91-4.07,3.61-2.54,5.99-5.21,6.27-5.06Z"/>
  <path class="cls-5" d="M435.38,353.74l7.08-4.24,9.32,25.11-7.55,4.67-8.85-25.54Z"/>
  <path class="cls-8" d="M311.41,191.79c-.4-9.73-4.45-18.96-11.34-25.84-6.89-6.88-16.12-10.92-25.85-11.32h-2c-21.72.36-33.52,19.01-32.56,40.7l2.75,87.34,34.31,13.18,13.27-12.2c0-6.12,0-18.82.13-18.82s20.95-2.37,22.06-23.17c.55-10.26-.04-31.06-.77-49.86Z"/>
  <path class="cls-1" d="M290.12,264.62c-9.62-.41-18.92-3.58-26.78-9.13,0,0,5.87,15.92,26.73,14.91l.06-5.78Z"/>
  <path class="cls-7" d="M304.24,209.75c-.02.78-.34,1.52-.9,2.05-.56.54-1.31.84-2.09.83-.38.02-.76-.04-1.11-.17-.36-.13-.68-.34-.96-.6-.27-.26-.49-.58-.64-.93-.15-.35-.23-.73-.23-1.1.02-.77.34-1.51.9-2.05s1.3-.84,2.08-.83c.38-.02.76.05,1.11.18.35.13.68.34.96.6.27.26.5.58.65.92.15.35.23.72.24,1.1Z"/>
  <path class="cls-7" d="M306.61,200.81c-.4.38-2.58-1.39-5.78-1.51-3.2-.11-5.65,1.37-5.93.96-.28-.41.24-.87,1.3-1.56,1.42-.9,3.08-1.34,4.76-1.26,1.67.06,3.27.66,4.57,1.69.96.79,1.26,1.51,1.07,1.68Z"/>
  <path class="cls-7" d="M276.42,209.75c-.02.78-.35,1.51-.91,2.05-.56.54-1.31.84-2.08.83-.38.02-.76-.05-1.11-.18-.36-.13-.68-.34-.96-.6-.28-.26-.5-.58-.65-.92-.15-.35-.23-.72-.24-1.1.03-.77.36-1.51.92-2.04.56-.54,1.3-.84,2.08-.84.38-.02.76.05,1.11.18.36.13.68.34.96.6.28.26.5.58.65.92.15.35.23.72.24,1.1Z"/>
  <path class="cls-7" d="M275.21,200.26c-.38.36-2.56-1.39-5.76-1.52-3.2-.13-5.65,1.39-5.95.98-.3-.41.24-.87,1.3-1.56,1.42-.9,3.1-1.34,4.78-1.26,1.66.07,3.26.66,4.57,1.68.94.81,1.24,1.52,1.05,1.69Z"/>
  <path class="cls-7" d="M285.68,225.32c1.71-.47,3.46-.71,5.23-.73.83,0,1.6-.17,1.77-.73.1-.84-.06-1.68-.45-2.43-.68-2.01-1.41-4.12-2.16-6.32-2.99-9-5.12-16.38-4.74-16.51.38-.13,3.07,7.08,6.06,16.07.71,2.22,1.41,4.33,2.05,6.36.48,1,.59,2.14.3,3.22-.13.28-.33.53-.57.73-.24.2-.52.34-.83.42-.46.09-.92.14-1.39.13-1.76.14-3.53.07-5.27-.21Z"/>
  <path class="cls-7" d="M276.67,190.29c-.47.81-3.54-.19-7.3-.41-3.77-.23-6.96.21-7.3-.64-.15-.41.51-1.13,1.88-1.73,1.79-.72,3.73-1.02,5.66-.88,1.93.14,3.8.72,5.47,1.69,1.26.81,1.81,1.6,1.6,1.98Z"/>
  <path class="cls-7" d="M307.14,191.41c-.68.7-3.26-.11-6.4-.24-3.14-.13-5.8.34-6.38-.43-.26-.38.17-1.09,1.35-1.75,1.62-.79,3.42-1.15,5.22-1.06,1.8.1,3.55.65,5.08,1.6,1.09.87,1.43,1.52,1.13,1.88Z"/>
  <path class="cls-8" d="M240.73,210.65c-.36-.17-14.14-4.82-14.27,9.41-.13,14.23,14.19,11.44,14.23,11.03.04-.41.04-20.44.04-20.44Z"/>
  <path class="cls-1" d="M236.48,225.67s-.24.17-.66.36c-.3.13-.62.19-.94.19s-.64-.07-.94-.19c-.92-.59-1.66-1.41-2.15-2.39-.49-.97-.71-2.06-.64-3.15-.03-1.22.22-2.43.72-3.54.14-.44.39-.84.71-1.17s.73-.57,1.17-.71c.28-.07.58-.03.85.09.26.13.48.34.6.6.19.41,0,.7.17.72.17.02.3-.24.21-.83-.08-.36-.28-.68-.56-.9-.39-.3-.87-.43-1.36-.38-.59.11-1.14.37-1.6.76s-.81.88-1.02,1.44c-.62,1.22-.93,2.58-.9,3.95,0,2.88,1.51,5.65,3.56,6.19.38.11.79.14,1.18.08.39-.06.77-.21,1.1-.44.4-.36.51-.66.51-.7Z"/>
  <path class="cls-7" d="M275.63,227.29c.49,0,.51,3.24,3.33,5.65,2.82,2.41,6.29,1.88,6.31,2.39.02.51-.77.64-2.24.68-1.92.02-3.79-.65-5.27-1.88-1.43-1.16-2.36-2.82-2.58-4.65-.13-1.43.23-2.2.45-2.18Z"/>
  <path class="cls-7" d="M340.17,173.04c-.25-.81-.81-1.48-1.56-1.88-1.65-.78-3.49-1.11-5.31-.94-4.54-.13-8.99-1.3-13.01-3.43,1.41-.67,2.72-1.56,3.86-2.64,1.23-1.1,2.13-2.52,2.6-4.1.47-1.58.5-3.26.07-4.86-.06-.3-.19-.58-.38-.82-.19-.24-.44-.43-.72-.55-.92-.3-1.75.6-2.41,1.32-.84,1.11-1.95,1.97-3.23,2.49-1.28.53-2.68.7-4.05.5-1.9-.15-3.74-.72-5.38-1.68-.07-.06-.14-.13-.19-.21l-2.15-2.22c-5.31-5.38-9.88-9.11-14.61-11.09-6.93-2.88-18.54-4.14-25.83-2.32-7.28,1.83-13.85,7.53-14.95,15.06-4.03-3.5-10.14-3.54-15.06-1.6h-.13c-5.53,1.88-8.73,7.7-10.43,13.31,0,.3-.17.62-.26.92-1.9,2.96-4.48,5.42-7.53,7.17-.53.3-1.15.68-1.22,1.3.03.3.13.59.29.85.16.26.39.47.65.62,1.33.94,2.84,1.59,4.44,1.88-.52,1.31-1.15,2.56-1.88,3.76-.62,1.05-1.37,2.32-.85,3.41.22.41.56.75.98.97.42.22.89.3,1.35.24.93-.19,1.81-.58,2.58-1.13l-1.88,4.4c2,.35,4.06.24,6-.34,1.11,5.27,1.88,15.06,3.2,18.62,3.76.11,4.71-.28,6.61.36,2.46.85,1.47,5.21,4.69,4.01,1.64-.62,4.23-6.78,4.8-8.45,3.76-11.06,5.11-22.79,3.95-34.41,2.33-2.38,5.09-4.3,8.13-5.65l-.24.23c5.85-1.88,12.46-3.88,17.96-1.09,4.27,2.18,6.74,6.66,9.9,10.24,2.67,3.27,6,5.94,9.77,7.83,3.77,1.89,7.91,2.96,12.12,3.14.75,6.29.87,16.58,1.11,22.46l5.16-11.69c.41-.7.75-1.39,1.09-2.07l.11-.21c.5-1.13,1.06-2.24,1.67-3.31.69.47,1.52.7,2.35.65.84-.05,1.63-.38,2.26-.93.63-.55,1.05-1.3,1.21-2.12.16-.82.04-1.67-.34-2.42-.48-.71-1.07-1.35-1.75-1.88.71.71,1.59,1.22,2.56,1.48.97.26,1.99.27,2.96.02.95-.3,1.77-.89,2.35-1.7.58-.81.87-1.78.85-2.78-.07-.68-.31-1.32-.71-1.88-.4-.55-.93-.99-1.55-1.27,2.61.25,5.23-.29,7.53-1.54,1.45-.83,2.92-2.18,2.43-4.05Z"/>
  <path class="cls-4" d="M259.48,158.16c-.75.57-1.46,1.2-2.11,1.88-1.67,1.97-2.8,4.35-3.28,6.89-.38,1.74-.59,3.51-.6,5.29,0,1.88.11,3.99.23,6.16.14,2.28.14,4.56,0,6.83-.08,1.22-.25,2.42-.51,3.61-.2,1.27-.72,2.47-1.51,3.48-.37.4-.83.7-1.35.87-.52.17-1.07.2-1.6.09-1.02-.21-1.94-.75-2.63-1.52-1.08-1.58-1.73-3.42-1.88-5.33h.45c-.65,1.56-1.52,3.02-2.6,4.33-1.03,1.22-2.49,2-4.09,2.16-.74.06-1.48-.07-2.15-.4-.6-.34-1.1-.84-1.43-1.45-.32-.57-.47-1.23-.43-1.88.04-.6.28-1.18.7-1.62l.21.21c-1.25,1.41-2.79,2.54-4.52,3.31-.58.26-1.07.41-1.39.53-.16.05-.32.09-.49.11l.47-.21c.3-.11.77-.3,1.36-.58,1.66-.81,3.15-1.95,4.37-3.35l.21.19c-.35.43-.56.97-.59,1.53-.03.56.12,1.11.42,1.58.3.54.75.98,1.3,1.28.59.27,1.24.39,1.88.34,1.47-.18,2.82-.91,3.77-2.05,1.03-1.29,1.87-2.72,2.48-4.25l.32-.66.13.72c.16,1.84.81,3.6,1.88,5.1.62.7,1.44,1.17,2.35,1.36.45.1.93.07,1.37-.07.44-.14.84-.4,1.15-.74.73-.95,1.21-2.07,1.39-3.26.25-1.16.42-2.34.51-3.52.14-2.26.14-4.53,0-6.8-.11-2.16-.23-4.24-.17-6.17.03-1.81.25-3.6.66-5.36.52-2.55,1.7-4.92,3.43-6.87.66-.71,1.43-1.31,2.3-1.75Z"/>
  <path class="cls-4" d="M323.78,179.1l-.17.13-.53.38c-.28.2-.58.39-.88.56-.41.24-.84.45-1.28.64-2.81,1.24-5.88,1.76-8.94,1.51-4.55-.34-8.91-2-12.54-4.78-4.38-3.43-8.01-7.71-10.67-12.59-1.49-2.54-2.71-5.14-4.03-7.53-1.22-2.34-2.77-4.49-4.59-6.4-1.64-1.74-3.69-3.03-5.97-3.76-1.03-.29-2.09-.43-3.16-.4-.99.04-1.97.22-2.92.53-1.62.54-3.12,1.41-4.39,2.56-.95.87-1.75,1.9-2.37,3.03-.51.99-.88,2.04-1.11,3.12v-.23c0-.23,0-.38.09-.64.18-.81.46-1.6.83-2.35.61-1.17,1.41-2.23,2.37-3.12,1.28-1.19,2.8-2.09,4.46-2.65.97-.32,1.99-.51,3.01-.56,1.11-.04,2.22.09,3.29.4,2.34.72,4.46,2.01,6.17,3.76,1.86,1.93,3.44,4.12,4.69,6.49,1.35,2.41,2.56,5.01,4.03,7.53,2.64,4.82,6.22,9.07,10.52,12.5,3.55,2.74,7.82,4.41,12.29,4.8,3.01.27,6.05-.19,8.85-1.34,1.01-.47,1.99-1,2.94-1.58Z"/>
  <path class="cls-4" d="M325.77,170.03s-.24.21-.75.51c-.71.43-1.45.8-2.22,1.11-1.14.47-2.32.84-3.52,1.11-1.48.31-2.99.49-4.5.55-1.51.01-3.03-.11-4.52-.36-1.21-.22-2.4-.55-3.56-.98-.78-.28-1.53-.61-2.26-1-.28-.12-.55-.29-.79-.49,0,0,1.19.53,3.16,1.17,1.16.37,2.34.65,3.54.85,1.46.23,2.94.33,4.42.32,1.48-.04,2.95-.21,4.4-.51,1.18-.24,2.35-.57,3.48-.98,1.94-.73,3.07-1.37,3.11-1.3Z"/>
  <path class="cls-7" d="M303.11,822.85l.3,40.37s41.13,13.18,41.92,20.7l-78.27,3.39-3.05-62.89,39.1-1.58Z"/>
  <path class="cls-3" d="M279.05,860.93c-.74.27-1.37.8-1.74,1.49-.38.7-.49,1.51-.31,2.27.24.77.76,1.41,1.46,1.8s1.53.48,2.3.27c.79-.28,1.44-.84,1.84-1.57.4-.73.51-1.59.32-2.4-.32-.76-.93-1.37-1.69-1.7-.76-.32-1.62-.34-2.39-.03"/>
  <path class="cls-4" d="M267.06,887.38v-6.34l75.07-.88s3.54,1.37,3.26,3.77l-78.32,3.46Z"/>
  <path class="cls-9" d="M304.65,862.83c0,.38-1.88.64-3.76,1.88-1.88,1.24-2.75,2.96-3.11,2.82-.36-.13.11-2.37,2.35-3.92,2.24-1.54,4.59-1.15,4.52-.79Z"/>
  <path class="cls-9" d="M313.01,865.86c.11.38-1.52,1.09-2.75,2.77-1.22,1.67-1.53,3.39-1.88,3.39s-.71-2.14.87-4.2c1.58-2.05,3.75-2.32,3.77-1.96Z"/>
  <path class="cls-9" d="M318.09,875.56c-.34.09-.94-1.79,0-3.92.94-2.13,2.64-3.05,2.82-2.75.19.3-.88,1.49-1.6,3.26-.72,1.77-.83,3.28-1.22,3.41Z"/>
  <path class="cls-9" d="M303.56,853.63c-.13.36-1.88-.09-4.07.15-2.18.24-3.77,1-4.03.68-.26-.32,1.36-1.75,3.9-2.02,2.54-.26,4.39.88,4.2,1.19Z"/>
  <path class="cls-7" d="M212.36,831.49l-4.25,48.68,7.76,39.53c.13.67.12,1.37-.02,2.04-.15.67-.43,1.3-.83,1.86s-.91,1.02-1.51,1.37c-.59.35-1.25.58-1.93.66-.79.1-1.6.01-2.35-.26-.75-.28-1.42-.73-1.96-1.32-6.96-7.53-32.51-35.76-32-39.28.58-4.1,1.05-51.61,1.05-51.61l36.05-1.66Z"/>
  <path class="cls-4" d="M211.57,925.55l-36.1-44.14-.13,2.05c-.12,1.78.4,3.55,1.47,4.99,2.86,3.76,10.99,14.27,30.32,35.52.55.61,1.25,1.08,2.02,1.35.78.28,1.61.35,2.42.23Z"/>
  <g class="cls-11">
    <path class="cls-9" d="M186.48,866.31c.57.48.95,1.16,1.05,1.9.1.74-.07,1.49-.49,2.11-.46.59-1.12.98-1.86,1.09-.74.11-1.49-.06-2.1-.49-.6-.51-1-1.23-1.1-2.01s.08-1.58.52-2.23c.54-.57,1.27-.9,2.06-.94.78-.03,1.54.24,2.12.77"/>
  </g>
  <path class="cls-9" d="M201.8,903.53c1.28-1.45,2.83-2.64,4.56-3.5,1.82-.6,3.74-.84,5.65-.71,0-.13-.55-.55-1.68-.77-1.49-.27-3.03-.1-4.42.49-1.42.59-2.62,1.59-3.46,2.88-.64.87-.77,1.58-.64,1.62Z"/>
  <path class="cls-9" d="M204.85,910.28c1.45-.72,2.94-1.34,4.46-1.88,1.59-.19,3.2-.29,4.8-.3-.72-.52-1.56-.85-2.43-.98-.88-.13-1.77-.04-2.61.25-2.94.71-4.46,2.77-4.22,2.92Z"/>
  <path class="cls-9" d="M195.88,894.76c2.15-1.26,4.4-2.35,6.72-3.28,2.41-.59,4.87-1,7.34-1.22-2.52-.66-5.18-.59-7.67.21-2.48.8-4.69,2.28-6.36,4.29h-.04Z"/>
  <path class="cls-9" d="M195.93,879.85c.11.3,2.88-.64,6.38-.55,3.5.09,6.23,1.11,6.36.83-1.82-1.37-4.07-2.03-6.34-1.88-2.25-.23-4.52.34-6.4,1.6Z"/>
  <path class="cls-9" d="M196.82,865.54c2.16-.56,4.39-.82,6.63-.75,2.2.38,4.34,1.07,6.36,2.03,0-.09-.41-.75-1.49-1.47-1.44-.91-3.07-1.47-4.76-1.64-1.69-.18-3.4.05-4.99.68-1.2.49-1.83,1.04-1.75,1.15Z"/>
  <path class="cls-9" d="M203.54,862.06c.19-.61.26-1.25.19-1.88-.06-1.7-.45-3.38-1.17-4.93-.42-1.18-1.21-2.18-2.26-2.86-.37-.19-.78-.27-1.2-.21-.41.05-.8.23-1.1.51-.55.58-.87,1.34-.9,2.14,0,1.64.58,3.24,1.63,4.5,1.05,1.26,2.51,2.12,4.13,2.42,1.6.27,3.25.06,4.74-.61,1.48-.67,2.73-1.77,3.58-3.15.22-.35.36-.74.41-1.14.05-.41.02-.82-.11-1.21-.17-.38-.45-.69-.81-.9-.36-.21-.77-.3-1.18-.27-1.22.18-2.37.68-3.33,1.45-1.39.96-2.6,2.18-3.56,3.58-.4.48-.69,1.04-.87,1.64,1.39-1.75,3.03-3.29,4.86-4.57.86-.63,1.86-1.04,2.92-1.2.23-.03.46.02.66.13.2.12.35.3.44.51.06.26.07.53.02.79-.05.26-.15.51-.31.73-.77,1.17-1.87,2.09-3.16,2.66-1.29.56-2.71.75-4.09.52-1.36-.26-2.6-.97-3.51-2.03-.91-1.05-1.43-2.38-1.48-3.77.01-.57.22-1.11.58-1.54.16-.16.38-.26.6-.29.23-.03.46.01.66.12.86.59,1.51,1.42,1.88,2.39.96,2.04,1.54,4.23,1.73,6.48Z"/>
  <path class="cls-7" d="M344.5,488.2c3.76,16.72,5.03,33.91,3.76,51.01-.85,10.84-37.42,310.75-37.42,310.75h-49.37l13.87-281.88-4.03.89s-26.97,120.24-29.2,139.68c-1.88,17.49-26.16,155.01-26.16,155.01l-46.61-.51,17.34-177.5,16.79-161.31,6.31-47.06,134.72,10.92Z"/>
  <path class="cls-7" d="M435.44,349.51l-47.98,23.74-27.14-70.7c-2.47-6.05-6.38-11.41-11.38-15.61-5-4.2-10.96-7.13-17.34-8.52-1.64-.34-3.3-.56-4.97-.66l19.41,112.94c3.81,9.24,8.88,17.91,15.06,25.77,4.05,4.88,12.1,10,29.93,4.41l57.34-38.38-12.91-32.98Z"/>
  <path class="cls-5" d="M239.96,264l23.75,19.75,12.12,9.41,6.14-.87,3.39-9.26,4.57-18.05,6.4,8.45,17.32,36.76,19.44,177.82s-33.88,9.94-51.46,11.13c-17.58,1.19-45.53-3.6-45.53-3.6v-93.57l-9.96-92.67,12.03-35.5,1.79-9.81Z"/>
  <path class="cls-7" d="M290.16,497.95c-.02-.16-.02-.33,0-.49v-1.47c0-1.34-.11-3.22-.21-5.65-.17-4.95-.4-12.01-.7-20.7-.6-17.51-1.56-41.67-2.94-68.35-1.37-26.67-2.94-50.82-4.14-68.29l-1.43-20.7c-.17-2.41-.3-4.29-.38-5.65v-1.98c.02.17.02.34,0,.51,0,.36,0,.85.17,1.45.11,1.34.28,3.22.51,5.65.43,4.88,1.02,11.93,1.68,20.7,1.34,17.45,2.95,41.58,4.33,68.27,1.37,26.69,2.26,50.82,2.73,68.36.24,8.75.41,15.83.47,20.71v7.11c-.08.34-.09.51-.09.51Z"/>
  <path class="cls-7" d="M228.19,282.25l1.69-.9-33.88,17.75,12.8,87.64,7.12,45.18-26.5,107.14s19.91,13.01,29.89,10.45c5.33-1.37,9.88-12.08,13.4-20.52,7.04-16.82,11.62-34.57,13.57-52.7,1.88-18.24,3.76-41.41,2.46-57.26-2.48-29.5-6.38-78.15-6.74-90.95-.36-12.8-3.37-59.95-3.37-59.95l-10.45,14.14Z"/>
  <path class="cls-7" d="M290.73,264.13l19.69,10.67,17.28,2.96,23.3,51.01-4.44,92.23,23.27,113.86s-17.05,6.04-23.81,3.56c-6.76-2.49-15.98-17.77-16.34-27.01-.36-9.24-13.5-98.76-13.5-98.76l-11.18-105.24c-1.06-10.03-3.86-19.81-8.28-28.88l-5.99-14.4Z"/>
  <path class="cls-4" d="M310.41,277.76c.22.22.43.46.62.71l1.77,2.15,6.51,8.17.13.17-.17.13-5.53,4.2v-.45l6.49,2.05h.19v.23c-.11,11.54-.26,26.09-.43,41.86-.28,19.26-.55,36.67-.73,49.35-.11,6.27-.23,11.29-.3,14.95,0,1.71,0,3.09-.11,4.06v1.41-20.44c.13-12.67.3-30.12.51-49.35.23-15.75.43-30.31.58-41.86l.21.28-6.46-2.11-.49-.15.41-.3,5.65-4.14v.32l-6.36-8.28-1.67-2.22c-.29-.22-.56-.47-.81-.73Z"/>
  <path class="cls-4" d="M247.22,400.67c-.06-.1-.1-.22-.13-.34l-.34-1.03-1.3-3.99c-1.13-3.44-2.82-8.43-4.99-14.57l-3.58-10.01c-1.41-3.82-2.63-7.72-3.63-11.67-2.19-9.06-3.89-18.24-5.1-27.48-1.75-12.8-2.9-24.88-3.58-35.26v-.15l.11-.11,5.65-5.38v.45l-5.31-4.03-.19-.17.15-.21,9.56-12.97,2.62-3.5.71-.88c.08-.11.16-.21.24-.3,0,0,0,.13-.19.34l-.64.94-2.52,3.59-9.41,13.18v-.38l5.33,3.99.28.21-.24.23-5.65,5.44.09-.26c.75,10.37,1.88,22.44,3.76,35.22,1.2,9.23,2.87,18.4,5.01,27.46,1.08,4.15,2.27,8.03,3.56,11.63l3.5,10.05c2.11,6.16,3.76,11.16,4.76,14.64.53,1.75.92,3.11,1.17,4.03.11.43.21.79.26,1.05.06.26.02.24.02.24Z"/>
  <path class="cls-7" d="M334.34,464.91l4.24,13.16,23.98-2.2-7.47-12.59-20.74,1.64Z"/>
  <path class="cls-4" d="M334.36,464.91s.47,0,1.43-.19l4.2-.41c3.63-.34,8.87-.83,15.06-1.35h.19l.11.19,7.53,12.56.28.49h-.56l-1.24.11-22.74,2.09h-.23v-.21c-1.3-4.12-2.3-7.53-2.97-9.75-.3-1.07-.56-1.88-.77-2.62-.09-.29-.17-.58-.23-.88.15.31.27.63.38.96l.92,2.66c.81,2.35,1.88,5.65,3.22,9.41l-.3-.21,22.74-2.18,1.22-.11-.28.55-7.43-12.59.3.17c-6.06.45-11.29.77-14.87,1l-4.29.24c-1.07.09-1.66.11-1.66.09Z"/>
  <g class="cls-10">
    <path class="cls-2" d="M320.07,295.15l3.95,5.46s-1.11,82.71-5.31,103.24l1.35-108.7Z"/>
  </g>
  <path class="cls-7" d="M239.96,281.33c.41.65.91,1.24,1.49,1.75,1.02,1.07,2.51,2.6,4.37,4.48,3.76,3.77,8.9,8.83,14.7,14.4l3.76,3.77.64.62.3-.83c1.88-5.23,3.76-9.97,5.12-13.89l-.7.15,4.89,4.41c.56.57,1.2,1.07,1.88,1.49-.45-.69-.99-1.33-1.6-1.88-1.07-1.11-2.65-2.71-4.63-4.67l-.45-.45-.24.6c-1.51,3.9-3.35,8.6-5.38,13.8l.94-.21-3.77-3.77c-5.8-5.65-11.09-10.58-14.96-14.15-1.88-1.88-3.5-3.24-4.61-4.2-.52-.55-1.11-1.02-1.75-1.41Z"/>
  <path class="cls-7" d="M284.36,295.92c1.38-2.41,2.55-4.93,3.5-7.53l-.77.13c2.81,3.67,5.13,7.68,6.89,11.95.32.73.58,1.47.85,2.16l.64,1.73.49-1.77c1.25-4.61,1.94-9.36,2.05-14.14.14-1.94.02-3.89-.38-5.8-.24,1.91-.38,3.83-.41,5.76-.35,4.69-1.15,9.33-2.41,13.85h1.13c-.26-.72-.55-1.47-.87-2.22-1.8-4.37-4.25-8.45-7.27-12.08l-.51-.6-.28.71c-1.09,2.53-1.98,5.15-2.66,7.83Z"/>
  <path class="cls-6" d="M288.64,300.7l-4.69,6.91h-7.04l-3.76-6.91,3.6-7.59,6.14-.87,5.76,8.45Z"/>
  <path class="cls-6" d="M284.21,304.09l21.23,160.32-18.15,24.6-18.16-26.09,8.04-158.83h7.04Z"/>
  <path class="cls-4" d="M325.55,478.39c-.03,1.18.05,2.37.23,3.54.28,2.48.64,5.65,1.07,9.58.43,3.93,1.09,8.92,1.75,14.21.83,5.82,2.26,11.54,4.27,17.07,2.2,5.78,5.06,11.46,9.94,14.48,2.3,1.27,4.9,1.92,7.53,1.88,2.25.02,4.49-.17,6.7-.56,3.19-.53,6.34-1.3,9.41-2.31,1.15-.31,2.26-.75,3.31-1.3-1.17.22-2.32.51-3.45.87-3.1.81-6.24,1.44-9.41,1.88-2.17.33-4.36.47-6.55.41-2.47.03-4.9-.58-7.06-1.77-4.42-2.77-7.27-8.28-9.41-13.97-4.39-11.58-4.97-22.94-6.31-30.96-.58-3.88-1.07-7.08-1.45-9.54-.1-1.18-.29-2.35-.58-3.5Z"/>
  <path class="cls-4" d="M247.54,483.1c0,.36-.06.71-.17,1.05l-.73,3.01c-.64,2.6-1.66,6.34-2.97,10.96-3.36,12.03-7.42,23.86-12.18,35.41-1.4,3.3-3,6.5-4.8,9.6-.86,1.49-1.87,2.89-2.99,4.2l-.88.9c-.34.28-.7.53-1.04.79-.37.24-.77.44-1.19.6-.4.13-.81.17-1.2.26-3.04.45-6.14.24-9.09-.62-2.58-.67-5.09-1.55-7.53-2.62-3.47-1.51-6.84-3.27-10.07-5.25-1.15-.7-2.03-1.28-2.6-1.67-.31-.19-.6-.41-.87-.66.34.12.66.29.96.49l2.69,1.51c3.29,1.84,6.67,3.5,10.15,4.97,2.4.99,4.86,1.81,7.38,2.45,2.83.79,5.79.97,8.7.53,1.51-.25,2.86-1.08,3.76-2.31,1.08-1.26,2.05-2.63,2.88-4.07,1.76-3.04,3.34-6.18,4.71-9.41,4.74-11.52,8.89-23.27,12.42-35.22,1.35-4.48,2.46-8.15,3.27-10.86.37-1.18.67-2.16.9-2.94.12-.38.29-.75.49-1.09Z"/>
  <path class="cls-7" d="M210.31,292.04s-29.12,6.53-32.83,31.57c-4.27,28.82-8.02,94.78-8.02,94.78l49.92-66.84"/>
  <path class="cls-7" d="M201.03,297.78s1.28,1.15,3.2,3.13c5.02,5.18,8.5,11.65,10.05,18.69.58,2.69.72,4.4.83,4.4.07-.4.07-.82,0-1.22-.05-1.1-.19-2.2-.4-3.28-1.32-7.21-4.88-13.83-10.16-18.92-.79-.77-1.64-1.49-2.52-2.15-.3-.26-.64-.48-1-.66Z"/>
  <path class="cls-4" d="M350.06,312.43c-.32,0-1.34,23.29-2.24,52.03-.9,28.74-1.39,52.05-1.05,52.05s1.32-23.27,2.24-52.01c.92-28.74,1.37-52.05,1.05-52.06Z"/>
  <path class="cls-7" d="M196.06,299.1s-13.55,9.15-15.06,16.55c-1.28,5.99-11.99,96-13.36,107.18-1.37,11.18-6.7,34.48,6.96,43.76,9.19,6.23,38.21,12.48,38.21,12.48-2.86-13.38,2.99-23.17,17.28-30.59l-19.41-18.32,8.7-78.62-23.32-52.44Z"/>
  <path class="cls-4" d="M215.98,431.88c-.34,0-5.08-24.47-10.6-54.76-5.52-30.29-9.73-54.96-9.41-54.96s5.08,24.47,10.62,54.76c5.53,30.29,9.71,54.89,9.39,54.96Z"/>
  <path class="cls-4" d="M212.23,413.85c.1,1.56.05,3.12-.13,4.67-.19,2.92-.53,7-.94,11.71l-.13-.4,3.76,3.5c4.31,4.09,8.17,7.83,10.94,10.58,1.56,1.41,3.01,2.94,4.33,4.57-1.7-1.23-3.31-2.6-4.8-4.08-2.9-2.6-6.83-6.27-11.14-10.35l-3.76-3.52-.17-.17v-.23c.47-4.69.9-8.77,1.26-11.67.12-1.56.39-3.1.79-4.61Z"/>
  <path class="cls-4" d="M191.3,441.78c1.99-3.31,4.87-5.98,8.32-7.72,3.28-2.02,7.08-3.06,10.94-2.99-3.62.86-7.13,2.13-10.47,3.77-3.17,1.99-6.12,4.32-8.79,6.95Z"/>
  <path class="cls-6" d="M257.28,364.55c-.1,1.73-.55,3.43-1.31,4.99-.76,1.56-1.82,2.96-3.12,4.1-1.3,1.15-2.82,2.03-4.46,2.59-1.64.56-3.38.79-5.11.68-1.81-.09-3.59-.56-5.21-1.38-1.62-.82-3.05-1.96-4.21-3.36-3.63-4.48-10.2-10.88-18.37-11.29-12.65-.79-22.12,8.79-23.02,23.13-.9,14.34,7.32,25.02,19.99,25.81,8.17.51,15.47-5.03,19.63-9.02,1.31-1.24,2.86-2.2,4.55-2.81,1.69-.61,3.5-.87,5.29-.75,1.73.1,3.43.55,4.99,1.31,1.56.76,2.96,1.82,4.1,3.12,1.15,1.3,2.03,2.82,2.59,4.46.56,1.64.79,3.38.68,5.11l-5.65,89.49,199.13,8.47,4.31-94.11c.1-1.73.55-3.43,1.31-4.99s1.82-2.96,3.12-4.1c1.3-1.15,2.82-2.03,4.46-2.59,1.64-.56,3.38-.79,5.11-.68,1.81.09,3.58.56,5.2,1.38,1.62.82,3.05,1.96,4.21,3.36,3.63,4.48,10.2,10.88,18.37,11.39,12.65.79,22.13-8.79,23.02-23.13.88-14.34-7.32-25.02-19.97-25.81-8.17-.51-15.49,5.03-19.65,9.02-1.31,1.24-2.85,2.2-4.55,2.81-1.7.61-3.5.87-5.3.74-7.28-.45-14.06-5.97-13.61-13.18l3.39-79.88-197.19-8.4-2.75,83.52Z"/>
  <path class="cls-8" d="M232.99,454.99s5.87-4.56,10.24-4.74c4.37-.19,10.05,1.52,11.18.96,1.13-.56,3.77-3.07,5.5-.98,1.73,2.09,3.77,9.69-5.31,11.78h-6.25c.32,3,1.09,5.94,2.28,8.72,1.51,2.46,22.74,29.19,22.74,29.19,0,0,2.65,2.65,1.34,5.31-1.32,2.66-7.02,1.13-7.02,1.13-1.15,1.01-2.53,1.71-4.02,2.04-1.49.33-3.04.27-4.51-.16-2.26-.76-4.42-1.77-6.44-3.03-1.47,1.13-3.27,1.74-5.12,1.74s-3.65-.61-5.12-1.74c-5.31-3.97-26.48-30.12-26.48-30.12l9.79-20.91,7.21.81Z"/>
  <path class="cls-5" d="M227.07,450.16l6.02,4.8c-8.94,6.51-13.59,14.49-13.53,24.08l-7.7-5.33s-1.39-19.65,15.21-23.55Z"/>
  <path class="cls-1" d="M251.29,489.01c.24-.19,3.43,4.07,7.96,8.72,4.54,4.65,8.79,7.87,8.58,8.13-1.07-.48-2.06-1.12-2.94-1.88-2.25-1.69-4.37-3.53-6.34-5.53-1.96-2.01-3.77-4.16-5.42-6.44-.77-.9-1.39-1.91-1.84-2.99Z"/>
  <path class="cls-1" d="M240.77,494.32c.24-.21,2.6,2.64,6.08,5.44,2.29,1.54,4.31,3.45,5.99,5.65-2.32-1.47-4.52-3.11-6.59-4.91-2.26-1.63-4.13-3.74-5.48-6.17Z"/>
  <path class="cls-8" d="M446.37,330.12s.94-6.44,14.48-4.25c8.49,1.37,4.05,6.87,4.05,6.87.63.55,1.13,1.24,1.43,2.02.31.78.42,1.62.33,2.46-.09.83-.38,1.63-.85,2.33-.47.7-1.1,1.27-1.83,1.67l.88.66s6.76,3.39.92,9.41c.59,1.07.83,2.3.7,3.52-.14,1.22-.65,2.36-1.47,3.28-2.9,2.92-10.18-.96-10.18-.96,0,0-10.3-.17-10.88-2.9-.18-.83-.08-1.69.3-2.45.37-.76.99-1.38,1.76-1.74,2.37-.44,4.77-.73,7.17-.87,0,0-9-.09-9.81-1.88-1.45-3.14-1.07-6.36,9.81-5.95,0,0-8.09-.17-9.02-1.88-.92-1.71.21-4.31,3.12-5.65,1.72-.82,3.61-1.22,5.52-1.15,0,0-7.57,1.54-6.42-2.52Z"/>
  <path class="cls-1" d="M464.48,332.78c-2.43.29-4.88.38-7.32.26-2.44.18-4.88.18-7.32,0,2.35-.81,4.82-1.17,7.3-1.05,2.48-.19,4.96.08,7.34.79Z"/>
  <path class="cls-1" d="M464.12,341.53c-2.3.19-4.61.19-6.91,0-2.3.13-4.61.08-6.91-.15,2.23-.73,4.59-1.01,6.93-.83,2.34-.15,4.69.19,6.89.98Z"/>
  <path class="cls-1" d="M465.95,351.73c-.11.26-3.18-1.07-7.19-1.71-4.01-.64-7.32-.4-7.36-.7,2.44-.74,5.04-.84,7.53-.28,2.54.26,4.96,1.19,7.02,2.69Z"/>
</svg>
