<svg width="290" height="152" viewBox="0 0 290 152" fill="none" xmlns="http://www.w3.org/2000/svg">
<mask id="mask0_1302_5812" style="mask-type:alpha" maskUnits="userSpaceOnUse" x="0" y="0" width="290" height="152">
<rect width="289.534" height="151.75" fill="#D9D9D9"/>
</mask>
<g mask="url(#mask0_1302_5812)">
<path d="M189.107 67.4274L176.896 65.6591L152.47 69.2719L145.615 71.6958L146.83 86.6859L170.316 91.0102L186.16 86.315L192.151 77.4988L189.107 67.4274Z" fill="#FFBE9D"/>
<path d="M196.806 68.8604L186.582 66.4518C186.582 66.4518 179.361 88.81 161.53 87.8293C146.998 87.0417 146.83 70.8218 146.83 70.8218L136.357 74.1755C136.357 74.1755 132.348 101.041 136.784 120.076C137.8 124.522 139.208 130.513 139.208 130.513L137.79 158.324L215.251 158.446L196.806 68.8604Z" fill="#0099FF"/>
<g opacity="0.3">
<path d="M166.439 152.927C170.21 152.831 173.686 153.151 177.456 153.059C181.978 152.947 186.536 152.836 191.003 153.567C194.347 154.121 197.609 155.138 200.952 155.666C205.526 156.388 210.399 156.134 214.464 153.933L213.808 150.137L198.371 146.408L166.439 152.927Z" fill="black"/>
</g>
<path d="M127.611 80.4358C131.168 75.8626 137.042 73.957 137.042 73.957L141.005 108.455L133.5 158.69L108.916 158.573C108.916 158.573 122.473 87.0671 127.611 80.4358Z" fill="#0099FF"/>
<path d="M195.61 68.6063C195.61 68.6063 212.155 69.9326 218.09 97.0622C220.773 109.324 224.188 123.689 225.148 133.349C225.855 140.351 222.049 151.316 215.067 152.216L206.286 153.395C204.564 153.643 202.812 153.579 201.113 153.207C195.569 151.931 195.015 148.125 193.999 144.06L191.458 135.971C190.056 128.277 197.226 126.824 201.184 126.931L198.232 91.8131L195.61 68.6063Z" fill="#0099FF"/>
<path d="M134.994 93.1394C134.955 93.2617 134.93 93.3877 134.918 93.5154C134.877 93.7898 134.821 94.1557 134.75 94.6079C134.719 94.8467 134.679 95.1161 134.638 95.4006C134.597 95.6852 134.577 96.0053 134.542 96.3458C134.47 97.0216 134.389 97.794 134.354 98.6527C134.236 100.661 134.222 102.674 134.313 104.684C134.434 107.143 134.678 109.593 135.045 112.027C135.426 114.624 135.903 117.073 136.391 119.288C136.879 121.504 137.352 123.491 137.768 125.157C138.185 126.824 138.536 128.16 138.785 129.085C138.907 129.527 139.003 129.883 139.079 130.147C139.107 130.273 139.148 130.396 139.201 130.513C139.19 130.386 139.166 130.26 139.13 130.137C139.069 129.863 138.988 129.507 138.886 129.06C138.658 128.099 138.337 126.758 137.941 125.112C137.545 123.465 137.087 121.453 136.625 119.238C136.163 117.022 135.68 114.578 135.304 111.991C134.928 109.405 134.664 106.91 134.552 104.669C134.44 102.428 134.435 100.37 134.552 98.6629C134.577 97.8041 134.643 97.0368 134.699 96.3559C134.723 96.0172 134.748 95.7021 134.775 95.4108C134.806 95.1262 134.836 94.862 134.862 94.6181C134.913 94.1658 134.953 93.8 134.979 93.5205C134.996 93.3943 135.001 93.2666 134.994 93.1394Z" fill="#263238"/>
<path d="M214.167 136.433C214.156 136.197 214.117 135.963 214.051 135.737C213.888 135.125 213.674 134.528 213.41 133.953C212.542 132.035 211.191 130.375 209.489 129.136C207.786 127.897 205.792 127.122 203.7 126.885C203.071 126.808 202.437 126.788 201.804 126.824C201.571 126.827 201.34 126.856 201.113 126.91C201.962 126.915 202.811 126.968 203.654 127.068C205.698 127.352 207.641 128.135 209.31 129.35C210.979 130.564 212.323 132.172 213.222 134.029C213.579 134.814 213.895 135.616 214.167 136.433Z" fill="#263238"/>
<path d="M210.346 122.927C210.215 122.893 210.079 122.881 209.944 122.891C209.579 122.884 209.214 122.901 208.852 122.942C207.652 123.064 206.476 123.358 205.361 123.816C204.247 124.278 203.203 124.896 202.261 125.65C201.977 125.877 201.707 126.122 201.453 126.382C201.275 126.57 201.184 126.677 201.194 126.692C201.204 126.707 201.641 126.336 202.378 125.798C204.294 124.39 206.525 123.473 208.877 123.125C209.777 122.993 210.346 122.972 210.346 122.927Z" fill="#263238"/>
<path d="M193.216 87.8293C193.253 87.589 193.267 87.3456 193.257 87.1027C193.257 86.6352 193.287 85.9644 193.343 85.1362C193.64 80.8042 194.826 76.58 196.829 72.7274C197.21 71.9905 197.541 71.4011 197.779 71.0047C197.913 70.8028 198.027 70.5884 198.12 70.3645C197.958 70.5452 197.813 70.7408 197.688 70.9489C197.424 71.335 197.068 71.9092 196.672 72.641C194.562 76.4811 193.363 80.7542 193.165 85.1311C193.135 85.9644 193.135 86.6555 193.165 87.1077C193.157 87.3494 193.174 87.5912 193.216 87.8293Z" fill="#263238"/>
<path d="M161.529 112.439C161.54 112.536 161.564 112.632 161.6 112.723C161.661 112.906 161.738 113.186 161.875 113.521C162.245 114.492 162.706 115.426 163.252 116.311C165.055 119.26 167.673 121.626 170.789 123.122C173.906 124.619 177.389 125.183 180.818 124.746C181.853 124.617 182.873 124.394 183.867 124.08C184.218 123.973 184.482 123.856 184.66 123.79C184.753 123.76 184.843 123.721 184.929 123.674C184.929 123.648 184.538 123.78 183.837 123.978C182.839 124.258 181.819 124.452 180.788 124.558C177.398 124.956 173.964 124.384 170.886 122.907C167.809 121.43 165.214 119.109 163.404 116.214C162.851 115.345 162.368 114.432 161.961 113.485C161.712 112.815 161.55 112.428 161.529 112.439Z" fill="#263238"/>
<path d="M196.398 150.575C196.424 150.549 196.683 150.92 197.303 151.428C198.21 152.113 199.248 152.604 200.352 152.871C201.978 153.278 203.659 153.428 205.332 153.313C207.222 153.176 209.31 152.953 211.475 152.632C213.514 152.369 215.522 151.906 217.471 151.25C218.284 150.893 219.029 150.396 219.671 149.782C220.238 149.251 220.748 148.663 221.196 148.029C221.858 147.112 222.425 146.129 222.888 145.097C223.045 144.726 223.167 144.441 223.244 144.243C223.274 144.139 223.318 144.04 223.376 143.948C223.357 144.054 223.329 144.157 223.294 144.258C223.233 144.467 223.127 144.766 222.979 145.137C222.553 146.198 222.006 147.206 221.348 148.141C220.904 148.791 220.393 149.394 219.824 149.939C219.168 150.578 218.404 151.094 217.568 151.464C215.607 152.145 213.58 152.62 211.521 152.881C209.341 153.207 207.257 153.42 205.352 153.547C203.654 153.647 201.95 153.475 200.306 153.039C199.193 152.752 198.154 152.232 197.257 151.515C197.021 151.311 196.805 151.084 196.612 150.839C196.53 150.76 196.458 150.671 196.398 150.575Z" fill="#263238"/>
<path d="M193.67 96.4677C193.736 96.4677 195.484 103.221 197.563 111.595C199.641 119.969 201.272 126.768 201.201 126.788C201.13 126.809 199.387 120.03 197.308 111.656C195.23 103.282 193.599 96.4829 193.67 96.4677Z" fill="#263238"/>
<path d="M191.56 134.721C191.506 134.539 191.477 134.351 191.474 134.162C191.423 133.655 191.411 133.145 191.438 132.637C191.496 131.862 191.753 131.114 192.185 130.467C192.429 130.083 192.714 129.725 193.034 129.4C193.388 129.062 193.782 128.769 194.207 128.526C195.712 127.737 197.342 127.211 199.025 126.971C199.53 126.899 200.039 126.855 200.549 126.839C200.736 126.812 200.926 126.812 201.113 126.839C201.113 126.88 200.315 126.91 199.05 127.139C197.405 127.422 195.814 127.961 194.334 128.735C193.927 128.967 193.548 129.246 193.206 129.568C192.898 129.878 192.622 130.218 192.383 130.584C191.962 131.187 191.7 131.886 191.621 132.617C191.576 133.124 191.561 133.633 191.575 134.141C191.593 134.334 191.587 134.529 191.56 134.721Z" fill="#263238"/>
<g opacity="0.3">
<path d="M135.757 115.919C131.534 108.77 131.443 99.4809 135.127 92.0366C133.947 99.9682 134.202 108.047 135.879 115.889" fill="black"/>
</g>
<path d="M142.49 147.988C143.822 145.478 154.203 138.842 154.203 138.842L151.393 138.191L148.288 139.502C148.053 140.555 147.598 141.545 146.952 142.409C145.814 144.035 143.878 142.353 143.878 142.353L145.189 136.067L151.327 132.373C151.327 132.373 157.099 133.257 158.034 133.704L160.494 135.955C161.576 136.804 164.696 140.142 165.55 140.244C166.403 140.346 193.218 134.324 193.218 134.324C196.892 137.236 198.808 143.013 199.407 147.185C199.407 147.185 200.063 149.218 199.351 150.346L166.459 152.927L159.488 154.853C157.621 155.625 155.708 156.282 153.761 156.82C151.444 157.328 149.884 156.56 149.818 155.295C149.752 154.03 151.556 153.872 151.556 153.872C153.094 153.32 154.591 152.662 156.037 151.901C157.096 151.195 157.968 150.243 158.578 149.126L156.093 149.421C156.093 149.421 150.809 153.09 148.822 154.167C146.835 155.244 146.444 153.268 146.281 152.643C146.118 152.018 152.216 146.083 152.216 146.083C152.216 146.083 146.418 149.64 145.377 150.554C144.335 151.469 142.79 151.728 142.46 151.123C142.13 150.519 141.164 150.498 142.49 147.988Z" fill="#FFBE9D"/>
<path d="M171.079 148.567C171.108 148.434 171.118 148.297 171.109 148.161C171.115 148.001 171.105 147.841 171.079 147.683C171.058 147.472 171.019 147.263 170.962 147.058C170.631 145.871 170.059 144.766 169.28 143.811C168.52 142.853 167.67 141.972 166.739 141.179C166.374 140.83 165.974 140.52 165.545 140.254C165.883 140.626 166.243 140.977 166.622 141.306C167.507 142.129 168.329 143.018 169.082 143.964C169.843 144.894 170.422 145.959 170.789 147.104C171.053 147.988 171.028 148.572 171.079 148.567Z" fill="#EB996E"/>
<path d="M154.441 138.654C155.036 138.741 155.643 138.687 156.212 138.495C156.782 138.304 157.298 137.98 157.719 137.551C157.678 137.495 157.043 137.968 156.134 138.262C155.224 138.557 154.441 138.582 154.441 138.654Z" fill="#EB996E"/>
<path d="M152.713 145.534C154.502 144.973 156.239 144.259 157.906 143.4C156.999 143.639 156.115 143.959 155.264 144.355C154.382 144.675 153.528 145.069 152.713 145.534Z" fill="#EB996E"/>
<path d="M158.283 149.05C158.751 148.943 159.205 148.781 159.635 148.567C160.096 148.433 160.54 148.244 160.956 148.003C159.986 148.102 159.062 148.464 158.283 149.05Z" fill="#EB996E"/>
<path d="M153.582 145.991C153.955 146.248 154.296 146.548 154.598 146.885C154.844 147.27 155.042 147.683 155.188 148.115C155.218 148.115 155.249 147.947 155.188 147.683C155.126 147.34 154.983 147.016 154.771 146.738C154.561 146.461 154.287 146.238 153.973 146.088C153.745 145.976 153.582 145.966 153.582 145.991Z" fill="#EB996E"/>
<path d="M151.133 142.155C151.097 142.216 151.555 142.465 151.854 142.988C152.007 143.324 152.131 143.673 152.225 144.03C152.299 143.835 152.322 143.625 152.293 143.419C152.264 143.213 152.183 143.017 152.058 142.851C151.717 142.261 151.143 142.089 151.133 142.155Z" fill="#EB996E"/>
<path d="M151.957 135.295C151.987 135.295 152.079 135.193 152.155 134.964C152.233 134.665 152.233 134.35 152.155 134.05C152.082 133.748 151.931 133.472 151.718 133.247C151.55 133.079 151.413 133.018 151.393 133.044C151.605 133.377 151.776 133.735 151.901 134.111C151.973 134.501 151.992 134.899 151.957 135.295Z" fill="#EB996E"/>
<path d="M199.619 151.286C199.585 151.035 199.572 150.782 199.578 150.529C199.578 150.285 199.578 149.99 199.543 149.645C199.507 149.299 199.512 148.908 199.462 148.481C199.271 146.226 198.788 144.005 198.024 141.875C197.594 140.711 197.074 139.583 196.469 138.501C196.164 137.993 195.899 137.541 195.595 137.129C195.452 136.921 195.31 136.723 195.173 136.529C195.036 136.336 194.888 136.164 194.751 136.021C193.659 134.675 192.82 133.989 192.861 133.948C193.074 134.084 193.272 134.242 193.45 134.421C193.679 134.613 193.896 134.818 194.101 135.036C194.339 135.285 194.609 135.544 194.898 135.899C195.036 136.072 195.183 136.245 195.335 136.408C195.488 136.57 195.625 136.799 195.778 137.007C196.093 137.419 196.367 137.896 196.677 138.384C197.305 139.472 197.838 140.611 198.273 141.789C199.043 143.935 199.507 146.179 199.65 148.456C199.685 148.887 199.68 149.284 199.69 149.629C199.7 149.975 199.69 150.275 199.69 150.519C199.693 150.776 199.669 151.033 199.619 151.286Z" fill="#263238"/>
<g opacity="0.3">
<path d="M210.904 127.784C207.82 126.511 204.422 126.201 201.158 126.895C203.964 126.766 206.74 127.516 209.099 129.041C211.457 130.566 213.28 132.79 214.314 135.401C214.548 136.031 215.015 136.778 215.686 136.682C216.357 136.585 216.54 135.808 216.54 135.183C216.545 131.895 213.938 129.05 210.904 127.784Z" fill="black"/>
</g>
<path d="M134.782 90.812C134.63 90.7843 134.483 90.7347 134.345 90.6647C134.065 90.558 133.674 90.3801 133.196 90.1565C131.95 89.5343 130.76 88.8049 129.639 87.9766C128.523 87.1524 127.479 86.2344 126.519 85.2326C126.154 84.8465 125.864 84.5213 125.681 84.2926C125.498 84.0639 125.396 83.9267 125.412 83.9115C125.427 83.8962 125.889 84.3688 126.652 85.1005C127.642 86.0559 128.693 86.947 129.797 87.7683C130.904 88.5829 132.064 89.3246 133.268 89.9889C134.223 90.5122 134.812 90.7765 134.782 90.812Z" fill="white"/>
<path d="M193.456 92.7277C193.418 92.7621 193.375 92.7912 193.329 92.8141L192.938 93.0478C192.597 93.2562 192.079 93.556 191.413 93.8913C189.506 94.8705 187.527 95.7045 185.494 96.3863C182.473 97.3854 179.375 98.1299 176.23 98.612C172.38 99.1852 168.496 99.5077 164.604 99.5774C160.463 99.674 156.519 99.5774 152.917 99.5165C149.738 99.4718 146.564 99.2326 143.414 98.8C141.289 98.4987 139.195 98.0124 137.154 97.3467C136.438 97.1028 135.884 96.8995 135.518 96.742L135.101 96.5642C135.052 96.5472 135.004 96.5251 134.959 96.4981L135.111 96.5387L135.538 96.6912C135.909 96.8335 136.468 97.0215 137.19 97.2502C139.233 97.8711 141.323 98.3282 143.44 98.6171C146.585 99.0191 149.751 99.238 152.922 99.2725C156.479 99.3386 160.442 99.4098 164.573 99.3132C168.455 99.245 172.328 98.9293 176.169 98.3681C179.304 97.9021 182.396 97.1798 185.412 96.2085C187.444 95.5445 189.427 94.7397 191.347 93.7999C192.023 93.4645 192.547 93.1952 192.872 93.0021L193.273 92.7937C193.405 92.7429 193.451 92.7226 193.456 92.7277Z" fill="white"/>
<path d="M134.975 110.838C134.76 110.818 134.549 110.774 134.344 110.706L132.652 110.243C131.23 109.842 129.268 109.268 127.103 108.622C124.939 107.977 122.988 107.372 121.575 106.925L119.908 106.387C119.702 106.327 119.501 106.249 119.309 106.153C119.523 106.173 119.734 106.217 119.939 106.285L121.631 106.747C123.054 107.149 125.015 107.723 127.18 108.368C129.344 109.014 131.296 109.613 132.708 110.06L134.375 110.604C134.583 110.661 134.784 110.739 134.975 110.838Z" fill="white"/>
<path d="M136.452 138.923C136.452 138.989 131.371 137.536 125.121 135.671C118.87 133.806 113.845 132.236 113.865 132.165C113.886 132.093 118.947 133.547 125.197 135.417C131.447 137.287 136.472 138.852 136.452 138.923Z" fill="white"/>
<path d="M209.894 78.1593C209.724 78.3252 209.536 78.4733 209.335 78.6014C208.97 78.8707 208.421 79.2467 207.735 79.6939C204.146 82.0153 200.297 83.9067 196.266 85.3292C195.494 85.5985 194.864 85.8017 194.422 85.9288C194.198 86.0102 193.966 86.0681 193.73 86.1015C193.942 85.9919 194.163 85.9018 194.391 85.8322L196.205 85.1564C197.73 84.572 199.818 83.7082 202.054 82.6157C204.29 81.5232 206.251 80.3951 207.643 79.5414L209.29 78.5252C209.479 78.3837 209.681 78.2611 209.894 78.1593Z" fill="white"/>
<path d="M220.016 107.032C219.752 107.182 219.476 107.313 219.193 107.423C218.659 107.662 217.867 107.977 216.881 108.338C211.728 110.214 206.318 111.291 200.839 111.529C199.787 111.575 198.938 111.585 198.349 111.564C198.045 111.571 197.741 111.558 197.439 111.524C197.74 111.478 198.045 111.458 198.349 111.463C198.933 111.463 199.782 111.412 200.829 111.341C203.55 111.168 206.258 110.817 208.934 110.289C211.607 109.752 214.243 109.042 216.825 108.165C217.816 107.825 218.614 107.535 219.162 107.327C219.438 107.204 219.724 107.106 220.016 107.032Z" fill="white"/>
<path d="M205.413 153.212C205.409 153.116 205.418 153.021 205.438 152.927C205.469 152.719 205.515 152.455 205.566 152.129C205.616 151.804 205.693 151.357 205.743 150.859C205.794 150.361 205.881 149.802 205.901 149.172C205.901 148.862 205.942 148.532 205.962 148.191C205.982 147.851 205.962 147.49 205.962 147.124C205.962 146.387 205.931 145.6 205.891 144.772C205.757 142.978 205.484 141.197 205.073 139.446C204.641 137.7 204.076 135.989 203.381 134.329C203.035 133.577 202.725 132.851 202.364 132.205C202.191 131.88 202.034 131.56 201.856 131.26L201.348 130.417C201.038 129.868 200.703 129.4 200.433 128.989C200.164 128.577 199.925 128.221 199.696 127.942L199.219 127.286C199.158 127.214 199.106 127.134 199.066 127.048C199.137 127.109 199.202 127.177 199.26 127.251L199.768 127.881C200.044 128.206 200.304 128.545 200.545 128.897C200.83 129.309 201.175 129.766 201.495 130.31L202.003 131.153C202.181 131.448 202.344 131.773 202.512 132.099C202.877 132.744 203.203 133.471 203.528 134.228C204.992 137.557 205.852 141.121 206.069 144.751C206.099 145.585 206.145 146.377 206.114 147.119C206.114 147.49 206.114 147.851 206.084 148.196C206.053 148.542 206.033 148.867 206.008 149.182C205.972 149.817 205.87 150.376 205.804 150.874C205.738 151.372 205.662 151.799 205.586 152.14C205.51 152.48 205.454 152.724 205.408 152.937C205.42 153.028 205.421 153.12 205.413 153.212Z" fill="white"/>
<path d="M225.016 137.637C224.991 137.637 224.976 137.221 224.859 136.489C224.679 135.455 224.336 134.457 223.843 133.531C223.119 132.157 222.146 130.93 220.972 129.913C219.541 128.659 217.883 127.689 216.088 127.058C214.283 126.455 212.397 126.126 210.494 126.082C208.937 126.039 207.378 126.098 205.829 126.26C204.503 126.382 203.431 126.519 202.689 126.6L201.835 126.692C201.735 126.705 201.635 126.705 201.535 126.692C201.628 126.657 201.726 126.635 201.825 126.626L202.673 126.484C203.41 126.367 204.482 126.209 205.809 126.057C207.366 125.871 208.935 125.793 210.504 125.823C212.433 125.861 214.345 126.192 216.175 126.804C218.001 127.451 219.685 128.444 221.134 129.731C222.322 130.773 223.298 132.034 224.01 133.445C224.493 134.401 224.807 135.432 224.94 136.494C224.98 136.78 225 137.069 225.001 137.358C225.017 137.45 225.022 137.544 225.016 137.637Z" fill="white"/>
<path d="M170.35 122.927C170.256 122.955 170.159 122.972 170.06 122.977L169.232 123.064L166.183 123.318C163.607 123.516 160.045 123.76 156.112 123.963C152.179 124.166 148.607 124.293 146.02 124.324C144.73 124.324 143.683 124.324 142.971 124.324H142.143C142.046 124.327 141.948 124.317 141.854 124.293C141.949 124.274 142.046 124.265 142.143 124.268H142.971L146.02 124.192C148.597 124.116 152.164 123.963 156.097 123.755L166.168 123.186L169.217 123.013L170.05 122.977C170.148 122.947 170.248 122.93 170.35 122.927Z" fill="white"/>
<g opacity="0.3">
<path d="M173.302 123.984C176.503 124.924 180.924 125.152 184.059 123.984C181.62 127.454 176.91 128.709 172.819 127.581C168.729 126.453 164.963 122.363 164.648 118.13C166.63 120.798 170.101 123.033 173.302 123.984Z" fill="black"/>
</g>
<path d="M199.265 120.635C199.18 120.666 199.094 120.69 199.006 120.706L198.269 120.864C197.623 120.996 196.693 121.168 195.535 121.372C193.223 121.778 190.017 122.276 186.465 122.713C182.913 123.15 179.676 123.435 177.318 123.597C176.149 123.679 175.199 123.735 174.544 123.76L173.792 123.785C173.704 123.8 173.615 123.8 173.527 123.785C173.612 123.763 173.699 123.75 173.787 123.745L174.539 123.668L177.303 123.419C179.64 123.211 182.862 122.911 186.419 122.459C189.976 122.007 193.172 121.555 195.489 121.199L198.233 120.772L198.985 120.665C199.076 120.639 199.17 120.629 199.265 120.635Z" fill="white"/>
<g opacity="0.3">
<path d="M193.94 98.0125C193.137 107.21 195.642 116.336 198.127 125.228C198.237 125.781 198.47 126.302 198.808 126.753C198.982 126.978 199.225 127.141 199.5 127.217C199.775 127.293 200.067 127.278 200.332 127.175C201.11 126.778 201.003 125.65 200.784 124.817L193.879 98.3936" fill="black"/>
</g>
<path d="M65.2765 107.174L75.7188 158.446H166.371C166.851 158.446 167.311 158.255 167.65 157.916C167.99 157.577 168.18 157.116 168.18 156.637C168.18 156.157 167.99 155.697 167.65 155.358C167.311 155.018 166.851 154.828 166.371 154.828H148.119L138.439 107.144C138.348 106.7 138.108 106.3 137.758 106.012C137.409 105.723 136.971 105.563 136.518 105.558L67.2379 104.801C66.9426 104.797 66.6503 104.86 66.3823 104.984C66.1143 105.108 65.8776 105.291 65.6894 105.518C65.5013 105.746 65.3665 106.013 65.2951 106.299C65.2236 106.586 65.2173 106.885 65.2765 107.174Z" fill="#E30613"/>
<path d="M65.2775 107.174C65.2641 107.124 65.254 107.073 65.247 107.022C65.2275 106.867 65.2275 106.709 65.247 106.554C65.2829 106.248 65.388 105.954 65.5544 105.694C65.7208 105.434 65.9441 105.216 66.2074 105.055C66.3931 104.945 66.5957 104.866 66.807 104.821C67.0415 104.778 67.2803 104.762 67.5184 104.776H69.1496L73.2147 104.811L99.4094 105.06L117.672 105.243L127.906 105.35L133.272 105.406L136.011 105.431C136.245 105.431 136.463 105.431 136.712 105.431C136.956 105.455 137.194 105.524 137.413 105.635C137.867 105.848 138.228 106.218 138.43 106.676C138.518 106.9 138.581 107.134 138.618 107.372L138.76 108.063C138.851 108.521 138.948 108.983 139.039 109.446C139.232 110.375 139.42 111.31 139.613 112.245L140.772 117.952C141.555 121.797 142.354 125.731 143.17 129.756C144.807 137.795 146.509 146.154 148.252 154.772L148.13 154.67H166.077C166.314 154.659 166.55 154.672 166.784 154.711C167.27 154.831 167.692 155.133 167.963 155.554C168.117 155.778 168.222 156.032 168.272 156.299C168.322 156.567 168.315 156.842 168.251 157.106C168.188 157.37 168.07 157.619 167.905 157.835C167.739 158.05 167.531 158.229 167.292 158.359C167.029 158.501 166.737 158.579 166.438 158.588H142.825H118.282H75.7198H75.6436V158.512C72.4474 142.759 69.8508 129.934 68.052 121.052C67.1627 116.61 66.4666 113.155 65.994 110.807C65.7603 109.634 65.5824 108.739 65.4859 108.135C65.3893 107.53 65.3182 107.22 65.3182 107.22C65.3182 107.22 65.3893 107.53 65.5164 108.129L66.0753 110.792C66.558 113.14 67.2694 116.595 68.1841 121.026L75.857 158.476L75.7605 158.395H118.322H166.474C166.733 158.385 166.986 158.317 167.216 158.197C167.423 158.083 167.605 157.927 167.748 157.738C167.892 157.55 167.994 157.334 168.048 157.103C168.103 156.873 168.109 156.634 168.065 156.401C168.021 156.168 167.929 155.947 167.795 155.752C167.556 155.402 167.193 155.157 166.779 155.066C166.562 155.032 166.342 155.018 166.123 155.026H148.018V154.929C146.27 146.291 144.578 137.947 142.937 129.908C142.12 125.891 141.323 121.956 140.543 118.104L139.354 112.322C139.166 111.382 138.978 110.452 138.79 109.522C138.694 109.059 138.602 108.597 138.506 108.135L138.369 107.449C138.335 107.224 138.276 107.004 138.191 106.793C138.021 106.388 137.713 106.057 137.322 105.858C137.126 105.761 136.914 105.7 136.697 105.675C136.483 105.675 136.239 105.675 136.016 105.675L133.272 105.645L127.906 105.584L117.677 105.462L99.4144 105.248L73.2198 104.928L69.1547 104.872L67.5235 104.847C67.2892 104.833 67.054 104.845 66.8223 104.882C66.617 104.928 66.4199 105.006 66.2379 105.111C65.9762 105.265 65.7535 105.477 65.5869 105.731C65.4204 105.985 65.3145 106.273 65.2775 106.575C65.2521 106.774 65.2521 106.975 65.2775 107.174Z" fill="#263238"/>
<path d="M107.046 130.655C107.046 131.247 106.871 131.826 106.542 132.318C106.213 132.81 105.746 133.194 105.199 133.421C104.652 133.647 104.05 133.706 103.47 133.591C102.889 133.475 102.356 133.19 101.937 132.772C101.519 132.353 101.234 131.82 101.118 131.239C101.003 130.659 101.062 130.057 101.288 129.51C101.515 128.963 101.899 128.496 102.391 128.167C102.883 127.838 103.462 127.662 104.053 127.662C104.847 127.662 105.609 127.978 106.17 128.539C106.731 129.1 107.046 129.862 107.046 130.655Z" fill="white"/>
<path d="M65.3594 107.591C65.3594 107.591 65.4661 107.591 65.6744 107.591H70.1156L83.0782 107.652L125.838 107.952L132.022 108.002H133.547C133.807 107.99 134.067 108.006 134.324 108.048C134.585 108.099 134.833 108.199 135.056 108.343C135.509 108.629 135.837 109.075 135.976 109.593C136.093 110.101 136.174 110.569 136.276 111.056C137.043 114.918 137.8 118.643 138.486 122.19C139.888 129.304 141.154 135.681 142.211 141.052L144.706 153.755C144.99 155.254 145.214 156.418 145.371 157.216C145.442 157.607 145.498 157.907 145.539 158.12C145.58 158.334 145.585 158.425 145.585 158.425C145.585 158.425 145.554 158.324 145.514 158.125C145.473 157.927 145.402 157.617 145.32 157.226C145.158 156.428 144.919 155.27 144.609 153.776C143.999 150.768 143.125 146.428 142.038 141.072L138.257 122.22C137.551 118.663 136.804 114.949 136.037 111.087C135.935 110.609 135.844 110.111 135.742 109.644C135.616 109.187 135.324 108.794 134.924 108.541C134.724 108.42 134.504 108.337 134.273 108.297C134.033 108.258 133.79 108.244 133.547 108.256H132.022L125.838 108.211L83.0732 107.835L70.1156 107.692L66.5891 107.642H65.6744L65.3594 107.591Z" fill="#263238"/>
<path d="M186.423 29.7234C186.528 34.4641 185.627 39.1732 183.781 43.5409C181.935 47.9086 179.185 51.8359 175.712 55.0644C174.109 50.4403 172.512 45.8162 170.92 41.1921" fill="#263238"/>
<path d="M150.324 2.13129C154.435 -0.114692 159.4 -0.439903 163.993 0.479833C168.587 1.39957 172.865 3.47786 176.92 5.82547C179.197 7.14156 181.463 8.58976 183.099 10.6427C186.082 14.3978 189.034 20.5666 189.319 25.3787C189.553 29.2508 188.069 38.941 186.433 42.4574C184.934 45.684 177.906 48.1435 174.435 48.9412L142.605 11.8978C143.181 9.83966 144.16 7.91644 145.485 6.23983C146.81 4.56322 148.455 3.16666 150.324 2.13129Z" fill="#263238"/>
<path d="M144.837 7.12121L152.46 5.7594C148.288 15.6936 147.155 38.4075 144.771 48.9158C141.956 44.8507 135.427 32.4012 135.777 27.457C136.128 22.5128 135.798 6.28278 144.837 7.12121Z" fill="#263238"/>
<path d="M181.022 23.6562C180.611 17.8532 176.851 13.097 171.215 11.659L153.639 7.17718C146.047 6.35907 140.976 15.6987 140.478 23.3208C139.924 31.7915 139.584 40.7246 140.574 47.0459C142.561 59.7494 152.297 61.3958 152.297 61.3958C152.297 61.3958 152.297 67.4427 152.297 71.1521L158.176 95.4972L177.125 69.3177L181.048 23.8188C181.063 23.5952 181.022 23.9458 181.022 23.6562Z" fill="#FFBE9D"/>
<path d="M144.293 32.9196C144.289 33.3445 144.45 33.7542 144.744 34.0617C145.037 34.3692 145.439 34.5501 145.863 34.566C146.071 34.5825 146.279 34.5575 146.477 34.4922C146.674 34.427 146.857 34.3229 147.014 34.186C147.17 34.0492 147.298 33.8824 147.389 33.6954C147.481 33.5085 147.534 33.3052 147.545 33.0974C147.549 32.6734 147.388 32.2644 147.096 31.957C146.804 31.6497 146.404 31.4682 145.98 31.4511C145.772 31.4338 145.563 31.4583 145.365 31.5232C145.167 31.5881 144.984 31.6921 144.826 31.829C144.669 31.9659 144.541 32.133 144.449 32.3203C144.358 32.5076 144.305 32.7114 144.293 32.9196Z" fill="#263238"/>
<path d="M142.403 28.2954C142.606 28.5088 143.841 27.5993 145.594 27.6043C147.347 27.6094 148.643 28.4936 148.821 28.2802C148.917 28.1836 148.709 27.8025 148.15 27.3909C147.393 26.864 146.491 26.5836 145.568 26.5881C144.657 26.5849 143.768 26.8694 143.028 27.4011C142.469 27.8178 142.286 28.1989 142.403 28.2954Z" fill="#263238"/>
<path d="M159.578 32.9195C159.574 33.3444 159.736 33.7542 160.029 34.0616C160.322 34.3691 160.724 34.55 161.148 34.5659C161.356 34.5832 161.566 34.5585 161.764 34.4932C161.962 34.4279 162.145 34.3234 162.302 34.1859C162.459 34.0484 162.587 33.8807 162.677 33.6928C162.768 33.5049 162.82 33.3007 162.83 33.0923C162.835 32.6683 162.674 32.2592 162.381 31.9519C162.089 31.6445 161.689 31.4631 161.265 31.4459C161.057 31.4286 160.847 31.4533 160.649 31.5185C160.451 31.5838 160.267 31.6882 160.11 31.8257C159.952 31.9631 159.824 32.1307 159.733 32.3186C159.642 32.5065 159.589 32.7109 159.578 32.9195Z" fill="#263238"/>
<path d="M159.034 28.2955C159.238 28.5089 160.477 27.5993 162.23 27.6044C163.984 27.6095 165.279 28.4937 165.457 28.2803C165.549 28.1837 165.345 27.8026 164.786 27.391C164.033 26.8688 163.137 26.5888 162.22 26.5881C161.309 26.5867 160.421 26.8711 159.68 27.4012C159.121 27.8178 158.938 28.1989 159.034 28.2955Z" fill="#263238"/>
<path d="M153.583 42.0661C153.583 41.9695 152.5 41.7764 150.732 41.5579C150.285 41.5122 149.863 41.4207 149.787 41.1159C149.75 40.653 149.856 40.1899 150.092 39.7896C150.515 38.709 150.959 37.5724 151.423 36.38C153.273 31.5323 154.609 27.5434 154.416 27.4723C154.223 27.4011 152.561 31.2681 150.712 36.1107C150.265 37.3031 149.839 38.4447 149.436 39.5355C149.153 40.0755 149.069 40.6978 149.197 41.2937C149.262 41.452 149.362 41.5935 149.49 41.7071C149.617 41.8207 149.769 41.9036 149.934 41.9492C150.18 42.0201 150.435 42.056 150.691 42.0559C152.444 42.1576 153.547 42.1677 153.583 42.0661Z" fill="#263238"/>
<path d="M169.153 56.8683C169.153 56.8683 165.016 65.6134 152.303 64.3786V61.3907C158.23 61.4723 164.063 59.9067 169.153 56.8683Z" fill="#EB996E"/>
<path d="M159.588 21.9589C159.76 22.4365 161.508 22.213 163.566 22.467C165.624 22.7211 167.286 23.2851 167.56 22.8583C167.682 22.65 167.393 22.2028 166.722 21.7404C165.832 21.1698 164.818 20.8213 163.765 20.7241C162.713 20.5955 161.645 20.7174 160.65 21.0798C159.893 21.3593 159.511 21.7302 159.588 21.9589Z" fill="#263238"/>
<path d="M142.956 22.9296C143.261 23.331 144.48 22.9296 145.923 22.9041C147.367 22.8787 148.606 23.1785 148.891 22.7619C149.013 22.5586 148.82 22.1623 148.286 21.7812C147.565 21.3291 146.726 21.1009 145.875 21.1253C145.024 21.1497 144.199 21.4257 143.505 21.9183C142.986 22.3249 142.819 22.7365 142.956 22.9296Z" fill="#263238"/>
<path d="M143.928 11.7098C144.706 9.79916 146.805 8.66092 148.863 8.54913C150.92 8.43734 152.928 9.22496 154.726 10.2565C162.293 14.6316 166.185 25.1958 173.66 29.7234C175.499 30.8362 177.893 29.8148 179.458 31.2884C181.023 32.762 182.034 35.1198 181.17 37.0863C182.241 35.7565 183.116 34.2796 183.767 32.7011C184.336 31.0903 184.407 29.2254 183.553 27.7467C182.908 26.6237 181.765 25.77 181.455 24.5149C181.175 23.4072 181.612 22.2537 181.566 21.1155C181.437 19.9588 181.038 18.8485 180.403 17.8735C177.471 12.6956 173.441 8.0105 168.253 5.09377C164.866 3.1381 161.01 2.14206 157.099 2.21261C153.166 2.30076 149.395 3.79523 146.469 6.4251C144.797 7.9851 143.039 9.5959 143.928 11.7098Z" fill="#263238"/>
<path d="M179.273 32.8636C179.406 32.4978 186.037 30.1095 186.123 37.1523C186.21 43.997 179.304 42.6504 179.289 42.4522C179.273 42.2541 179.273 32.8636 179.273 32.8636Z" fill="#FFBE9D"/>
<path d="M181.378 39.8404C181.409 39.8404 181.495 39.9217 181.698 40.0132C181.985 40.1275 182.305 40.1275 182.593 40.0132C183.309 39.7439 183.909 38.5853 183.929 37.3556C183.943 36.7678 183.825 36.1844 183.584 35.6483C183.516 35.4354 183.398 35.2421 183.24 35.0846C183.081 34.9271 182.887 34.8102 182.674 34.7438C182.538 34.7083 182.393 34.7219 182.266 34.7823C182.138 34.8427 182.037 34.946 181.978 35.0741C181.886 35.2672 181.932 35.4044 181.891 35.4145C181.851 35.4247 181.744 35.3027 181.8 35.0182C181.837 34.8501 181.93 34.6997 182.064 34.5913C182.156 34.5191 182.261 34.4657 182.374 34.4343C182.486 34.4029 182.604 34.3941 182.72 34.4084C183.002 34.4609 183.265 34.5853 183.485 34.7696C183.705 34.9538 183.874 35.1917 183.975 35.4603C184.274 36.0482 184.422 36.7012 184.407 37.3607C184.376 38.7428 183.685 40.0386 182.694 40.3333C182.512 40.3887 182.32 40.4023 182.131 40.3733C181.943 40.3443 181.764 40.2733 181.607 40.1656C181.388 40.0081 181.353 39.8557 181.378 39.8404Z" fill="#EB996E"/>
<path d="M181.998 29.3473C181.854 29.2832 181.717 29.2066 181.586 29.1186C181.322 28.951 180.916 28.7274 180.438 28.3869C179.088 27.4008 177.848 26.2731 176.739 25.023C175.125 23.1524 173.617 21.193 172.221 19.154C170.541 16.6553 168.652 14.3027 166.576 12.1213C165.468 11.0315 164.245 10.0654 162.928 9.24017C161.693 8.48779 160.373 7.88722 158.994 7.45151C156.655 6.70099 154.195 6.39928 151.743 6.56226C150.089 6.66312 148.456 6.98264 146.885 7.51249C146.321 7.68526 145.905 7.87327 145.615 7.98506C145.471 8.05104 145.321 8.10377 145.168 8.14258C145.303 8.06143 145.444 7.99011 145.59 7.92916C145.997 7.73417 146.416 7.56447 146.845 7.42102C148.414 6.83711 150.058 6.48117 151.728 6.36409C154.208 6.16112 156.705 6.43714 159.081 7.17712C160.486 7.61005 161.833 8.21419 163.09 8.97593C164.427 9.81331 165.669 10.793 166.794 11.8977C168.884 14.1007 170.778 16.481 172.455 19.0117C173.835 21.0509 175.321 23.0167 176.906 24.9011C177.994 26.1535 179.2 27.2971 180.509 28.3158C180.977 28.6664 181.368 28.9052 181.617 29.0882C181.751 29.1639 181.878 29.2506 181.998 29.3473Z" fill="#455A64"/>
<path d="M182.155 41.0498C182.492 40.9877 182.84 41.0563 183.128 41.2417C183.416 41.427 183.623 41.7152 183.706 42.0476C183.789 42.3799 183.742 42.7314 183.575 43.0305C183.408 43.3296 183.133 43.5538 182.807 43.6575C182.48 43.7611 182.126 43.7365 181.818 43.5885C181.509 43.4405 181.268 43.1803 181.144 42.8609C181.02 42.5415 181.023 42.1869 181.151 41.8693C181.279 41.5517 181.524 41.295 181.835 41.1514" fill="white"/>
<path d="M181.834 41.1514C181.54 41.3883 181.326 41.7091 181.219 42.0711C181.171 42.2577 181.169 42.4535 181.215 42.6407C181.261 42.8279 181.354 43.0007 181.483 43.1433C181.636 43.3234 181.839 43.4544 182.066 43.5199C182.293 43.5854 182.534 43.5824 182.759 43.5113C182.984 43.4402 183.183 43.3041 183.332 43.1203C183.48 42.9364 183.571 42.7128 183.592 42.4776C183.613 42.2879 183.587 42.0959 183.516 41.9187C183.445 41.7415 183.332 41.5844 183.186 41.4613C182.895 41.2287 182.541 41.0904 182.169 41.065C182.169 41.065 182.271 40.9939 182.49 40.9888C182.799 40.9913 183.1 41.0967 183.343 41.2886C183.533 41.4295 183.684 41.6173 183.78 41.8337C183.876 42.0501 183.915 42.2877 183.892 42.5234C183.873 42.8181 183.765 43.1002 183.583 43.3328C183.401 43.5654 183.153 43.7377 182.871 43.8272C182.59 43.9166 182.288 43.9191 182.005 43.8342C181.722 43.7494 181.471 43.5812 181.285 43.3516C181.131 43.1727 181.026 42.9572 180.98 42.7257C180.933 42.4943 180.948 42.2548 181.021 42.0305C181.102 41.7343 181.281 41.4744 181.529 41.2937C181.707 41.1565 181.829 41.1361 181.834 41.1514Z" fill="#263238"/>
<path d="M180.275 31.2834C180.382 33.1533 180.468 35.1249 179.605 36.7865C178.741 38.4481 176.556 39.5813 174.94 38.6514C173.614 37.8943 173.217 36.192 172.989 34.6828C172.343 30.323 172.043 25.9174 171.357 21.5626L180.275 31.2834Z" fill="#263238"/>
<path d="M145.615 8.45765C145.615 8.49322 146.22 8.34077 147.312 8.3052C148.863 8.28153 150.403 8.56296 151.845 9.13348C152.84 9.5187 153.79 10.0093 154.68 10.5969C155.701 11.2818 156.678 12.0285 157.607 12.8327C159.76 14.6536 161.685 16.7283 163.339 19.0117C164.208 20.2313 164.98 21.4864 165.814 22.65C166.605 23.7814 167.526 24.8166 168.558 25.7344C170.333 27.2384 172.273 28.5358 174.34 29.6014C176.094 30.5262 177.557 31.1766 178.568 31.634L179.737 32.1421C179.872 32.208 180.013 32.2592 180.159 32.2945C180.039 32.2073 179.909 32.134 179.772 32.076L178.629 31.512C177.613 31.0039 176.195 30.3331 174.473 29.3829C172.442 28.2896 170.537 26.9775 168.792 25.4702C167.784 24.562 166.887 23.5387 166.119 22.4214C165.301 21.273 164.533 20.0178 163.654 18.7831C161.982 16.4753 160.029 14.3843 157.841 12.5583C156.892 11.7518 155.895 11.0051 154.853 10.3225C153.938 9.7351 152.962 9.24948 151.942 8.87432C150.464 8.31427 148.885 8.06852 147.307 8.15276C146.881 8.17761 146.458 8.23709 146.042 8.33061C145.895 8.35318 145.751 8.39593 145.615 8.45765Z" fill="#455A64"/>
<path d="M180.463 27.0557C180.648 27.2144 180.851 27.3509 181.068 27.4622L182.805 28.4784L183.385 28.8087C183.613 28.9472 183.871 29.0323 184.137 29.0577C184.299 29.0753 184.461 29.0377 184.599 28.951C184.673 28.8995 184.734 28.8321 184.778 28.7538C184.822 28.6755 184.847 28.5884 184.853 28.4988C184.838 28.1847 184.726 27.883 184.533 27.6349L182.501 24.4133L182.226 24.6623C183.568 25.6506 185.212 26.1411 186.876 26.0495C187.088 26.0479 187.299 26.0119 187.501 25.9428C187.613 25.906 187.717 25.8458 187.804 25.7661C187.892 25.6864 187.962 25.589 188.009 25.4804C188.048 25.3645 188.057 25.2408 188.037 25.1202C188.017 24.9996 187.967 24.886 187.892 24.7893C187.779 24.6336 187.649 24.4905 187.506 24.3625C186.602 23.4889 185.818 22.4996 185.173 21.4204C184.605 20.4065 184.109 19.3538 183.69 18.2699C183.722 18.5848 183.795 18.894 183.908 19.1896C184.164 20.012 184.504 20.8056 184.924 21.5576C185.549 22.6782 186.329 23.7047 187.241 24.6064C187.496 24.8503 187.75 25.1146 187.653 25.3432C187.557 25.5719 187.181 25.6684 186.82 25.6684C186.037 25.7078 185.253 25.6133 184.503 25.3889C183.755 25.1693 183.049 24.8258 182.414 24.3727L181.601 23.7731L182.145 24.6217L184.177 27.8179C184.336 28.0092 184.437 28.242 184.467 28.4886C184.467 28.6817 184.294 28.7935 184.076 28.7782C183.636 28.6917 183.218 28.519 182.846 28.2701L181.057 27.3555C180.87 27.2349 180.671 27.1344 180.463 27.0557Z" fill="#455A64"/>
<path d="M160.224 45.2877C160.096 44.7669 159.79 44.3076 159.358 43.99C158.926 43.6723 158.396 43.5165 157.861 43.5498C157.47 43.5978 157.097 43.7422 156.776 43.9702C156.455 44.1982 156.196 44.5025 156.022 44.8557C155.851 45.2111 155.754 45.5971 155.736 45.9908C155.717 46.3844 155.778 46.7778 155.915 47.1475L155.955 47.3101C156.32 47.7033 156.798 47.9744 157.323 48.0862C157.847 48.1981 158.394 48.1453 158.887 47.9351C159.371 47.7027 159.764 47.3171 160.005 46.8384C160.247 46.3597 160.324 45.8145 160.224 45.2877Z" fill="#EB996E"/>
<path d="M154.68 47.3609C154.68 47.0967 156.453 47.178 157.79 45.7247C159.126 44.2714 159.02 42.371 159.269 42.371C159.38 42.371 159.594 42.808 159.573 43.6108C159.537 44.6484 159.136 45.6399 158.44 46.4107C157.769 47.1522 156.836 47.604 155.839 47.6709C155.107 47.7014 154.665 47.4829 154.68 47.3609Z" fill="#263238"/>
</g>
</svg>
