<svg width="290" height="152" viewBox="0 0 290 152" fill="none" xmlns="http://www.w3.org/2000/svg">
<mask id="mask0_1302_6021" style="mask-type:alpha" maskUnits="userSpaceOnUse" x="0" y="0" width="290" height="152">
<rect width="289.534" height="151.75" fill="#D9D9D9"/>
</mask>
<g mask="url(#mask0_1302_6021)">
<g filter="url(#filter0_d_1302_6021)">
<path d="M79.1787 112.968C78.5055 108.149 85.4451 104.093 90.6621 103.672C93.1469 103.476 95.7307 103.858 98.0867 103.035C103.195 101.282 105.234 94.7585 110.214 92.6721C113.936 91.1244 118.232 92.4958 121.836 94.2981C125.439 96.1004 129.013 98.3533 133.052 98.6178C136.556 98.8431 140.377 97.5501 143.446 99.2447C145.733 100.508 146.931 103.104 149.039 104.652C151.138 106.199 153.791 106.483 156.355 106.581C158.919 106.679 161.552 106.748 163.899 107.796C166.245 108.844 168.155 111.293 167.67 113.781L79.1787 112.958V112.968Z" fill="white"/>
</g>
<g filter="url(#filter1_d_1302_6021)">
<path d="M179.814 138.968C179.131 134.149 186.081 130.103 191.288 129.672C193.772 129.476 196.366 129.858 198.712 129.045C203.83 127.282 205.86 120.758 210.839 118.672C214.571 117.124 218.858 118.496 222.461 120.298C226.065 122.1 229.638 124.353 233.687 124.618C237.192 124.843 241.003 123.55 244.072 125.245C246.359 126.508 247.556 129.104 249.665 130.652C251.774 132.199 254.417 132.483 256.981 132.581C259.545 132.679 262.188 132.748 264.524 133.806C266.851 134.864 268.781 137.293 268.296 139.781L179.814 138.958V138.968Z" fill="white"/>
</g>
<g filter="url(#filter2_d_1302_6021)">
<path d="M22.797 68.4753C22.3614 65.2625 26.9349 62.6275 30.38 62.3435C32.0233 62.2161 33.726 62.461 35.2505 61.9321C38.6163 60.7664 39.9627 56.4565 43.2493 55.0852C45.7143 54.0665 48.5356 54.9676 50.9214 56.1626C53.3072 57.3577 55.6534 58.8368 58.3163 59.0033C60.6328 59.1502 63.1869 58.298 65.1371 59.4147C66.6418 60.2571 67.4337 61.9713 68.8296 62.99C70.2749 63.8715 71.9479 64.3221 73.6506 64.2829C75.3435 64.2438 77.0363 64.5082 78.6301 65.0862C80.1744 65.7914 81.4316 67.388 81.1148 69.0336L22.797 68.4655V68.4753Z" fill="white"/>
</g>
<path d="M189.991 46.5535L191.149 17.912C191.694 10.017 188.13 2.93506 180.131 2.61182H179.26C175.706 2.67059 172.3 4.06152 169.727 6.49075C167.153 8.91998 165.599 12.221 165.371 15.7375C164.935 22.6236 164.529 30.2541 164.648 33.9469C164.876 41.5285 172.568 42.6256 172.568 42.6256C172.568 42.6256 172.241 48.1305 172.182 50.3344C172.182 50.3344 173.003 50.9222 180.151 51.1768C187.298 51.4315 189.991 46.5535 189.991 46.5535Z" fill="#EB996E"/>
<path d="M172.579 42.5964C176.103 42.5181 179.539 41.4406 182.469 39.5011C182.469 39.5011 180.132 45.0648 172.46 44.5163L172.579 42.5964Z" fill="#D1734A"/>
<path d="M168.019 22.643C168.019 22.9271 168.128 23.2014 168.336 23.3973C168.534 23.603 168.811 23.7107 169.098 23.7205C169.375 23.7401 169.642 23.6422 169.86 23.4658C170.068 23.2895 170.197 23.0348 170.227 22.7606C170.227 22.4765 170.108 22.212 169.9 22.0063C169.702 21.8104 169.425 21.6929 169.138 21.6831C168.86 21.6635 168.593 21.7517 168.385 21.9378C168.177 22.1141 168.049 22.3688 168.029 22.643H168.019Z" fill="#263238"/>
<path d="M167.314 19.9397C167.452 20.0867 168.284 19.4598 169.462 19.4402C170.64 19.4206 171.511 19.9887 171.63 19.8418C171.758 19.6948 171.551 19.5381 171.174 19.2639C170.66 18.921 170.046 18.7447 169.422 18.7643C168.808 18.7741 168.214 18.9798 167.729 19.3422C167.373 19.6263 167.254 19.881 167.324 19.9397H167.314Z" fill="#263238"/>
<path d="M178.103 22.8294C178.241 22.9665 179.073 22.3494 180.241 22.3298C181.399 22.3102 182.3 22.8784 182.419 22.7314C182.548 22.5845 182.34 22.418 181.954 22.1535C181.439 21.8107 180.835 21.6343 180.211 21.6539C179.598 21.6539 178.994 21.8596 178.509 22.2221C178.162 22.5159 178.043 22.7608 178.113 22.8294H178.103Z" fill="#263238"/>
<path d="M174.512 29.1277C173.879 28.9416 173.225 28.8339 172.562 28.8241C172.255 28.8241 171.978 28.7457 171.919 28.54C171.889 28.2364 171.948 27.9229 172.107 27.6487L172.958 25.3664C173.76 23.4269 174.413 21.4287 174.908 19.3912C173.958 21.2523 173.166 23.1918 172.532 25.1705L171.711 27.4625C171.532 27.825 171.483 28.2364 171.582 28.6282C171.622 28.7359 171.691 28.8241 171.78 28.9025C171.869 28.9808 171.968 29.0298 172.077 29.0592C172.245 29.0984 172.423 29.118 172.592 29.118C173.225 29.1963 173.879 29.1963 174.512 29.118V29.1277Z" fill="#263238"/>
<path d="M178.046 19.7146C178.194 20.0183 179.352 19.7734 180.748 19.8126C182.144 19.8517 183.292 20.126 183.451 19.8126C183.52 19.6754 183.292 19.4012 182.817 19.1269C182.184 18.8036 181.481 18.6273 180.768 18.6175C180.055 18.6077 179.352 18.7547 178.699 19.0485C178.214 19.3032 177.976 19.5677 178.046 19.7146Z" fill="#263238"/>
<path d="M166.879 15.5413C167.057 15.845 168.037 15.7862 169.146 16.0017C170.255 16.227 171.166 16.6188 171.433 16.3935C171.562 16.276 171.433 15.9919 171.116 15.6588C170.621 15.2279 170.017 14.9438 169.364 14.8262C168.711 14.6989 168.037 14.7381 167.414 14.9634C166.968 15.1789 166.78 15.414 166.879 15.5315V15.5413Z" fill="#263238"/>
<path d="M192.209 29.0396C192.209 29.0396 192.308 29.1082 192.467 29.1767C192.576 29.2257 192.694 29.2453 192.803 29.2453C192.912 29.2453 193.041 29.2257 193.14 29.1767C193.476 28.971 193.764 28.6772 193.952 28.3246C194.14 27.9719 194.229 27.5801 194.219 27.1883C194.239 26.7475 194.16 26.2969 193.981 25.8855C193.932 25.719 193.843 25.5721 193.724 25.4545C193.605 25.337 193.457 25.239 193.298 25.1803C193.199 25.1509 193.08 25.1607 192.981 25.1999C192.882 25.2488 192.803 25.3174 192.754 25.4154C192.675 25.5623 192.754 25.67 192.675 25.6798C192.595 25.6798 192.566 25.5917 192.615 25.3762C192.645 25.2488 192.714 25.1411 192.823 25.0627C192.972 24.955 193.15 24.9158 193.328 24.9354C193.546 24.9746 193.754 25.0725 193.932 25.2097C194.1 25.3566 194.229 25.5427 194.308 25.7484C194.526 26.199 194.635 26.6985 194.615 27.2079C194.635 27.6683 194.516 28.1287 194.268 28.5205C194.021 28.9123 193.665 29.2257 193.239 29.4216C193.1 29.4608 192.952 29.4706 192.803 29.4412C192.665 29.4118 192.526 29.3629 192.407 29.2747C192.199 29.1572 192.199 29.0396 192.199 29.0396H192.209Z" fill="#D1734A"/>
<path d="M173.702 32.2819C173.702 32.37 173.97 32.5464 174.494 32.5953C175.187 32.6639 175.88 32.5366 176.514 32.2427C177.157 31.9684 177.712 31.5276 178.108 30.9595C178.395 30.5187 178.434 30.1857 178.365 30.1465C178.286 30.1073 177.553 31.1064 176.266 31.6648C174.979 32.2231 173.791 32.0762 173.702 32.2721V32.2819Z" fill="#263238"/>
<path d="M100.63 19.6459C100.63 19.6459 100.838 18.4313 101.442 18.4313C101.848 18.4313 102.254 18.539 102.6 18.7545C102.947 18.97 103.224 19.2737 103.392 19.6459C103.808 20.5373 100.63 19.6459 100.63 19.6459Z" fill="#EB996E"/>
<path d="M116.123 38.9721L115.519 29.4021L113.569 19.5382C113.569 19.5382 112.045 17.9416 111.243 18.304C110.431 18.6664 110.738 19.9986 110.738 19.9986C110.738 19.9986 108.61 17.7261 107.818 18.2452C107.016 18.7644 107.313 19.9986 107.313 19.9986C107.313 19.9986 105.362 17.4714 104.481 18.1669C103.59 18.8623 104.481 19.9986 104.481 19.9986C104.481 19.9986 103.284 31.0379 103.887 34.9854C104.076 36.1412 104.531 37.2285 105.224 38.1688C105.917 39.1092 106.837 39.8732 107.887 40.3924L109.491 46.6026L117.41 42.3416L116.123 38.9721Z" fill="#EB996E"/>
<path d="M111.284 26.4439L154.287 25.9738V22.5748L111.284 21.3798V26.4537V26.4439Z" fill="#E1323D"/>
<path d="M65.8719 29.8133L126.635 27.2763C127.387 25.1213 127.387 22.7901 126.635 20.6351L66.2382 17.9904C63.5158 20.8506 63.496 26.8649 65.8818 29.8133H65.8719Z" fill="#E1323D"/>
<path d="M66.4586 18.549C66.4586 18.549 68.29 20.2435 68.2207 23.9364C68.1514 27.6292 66.2705 29.1768 66.2705 29.1768C64.9539 27.5508 64.3401 25.4644 64.5678 23.3976C64.8945 19.7832 66.4586 18.549 66.4586 18.549Z" fill="#E0E0E0"/>
<path d="M68.8935 29.8133C69.3884 29.4215 69.7943 28.922 70.0715 28.3538C70.8635 27.0315 71.2793 25.523 71.2694 23.9851C71.2694 22.4571 70.9031 20.9584 70.2101 19.5969C69.9527 19.0189 69.5369 18.5096 69.0222 18.1276C68.9529 18.1276 69.4182 18.7251 69.8933 19.7438C70.4675 21.0857 70.7645 22.5257 70.7744 23.9851C70.7744 25.4349 70.4477 26.8748 69.8042 28.1775C69.4775 28.6967 69.1707 29.2452 68.9034 29.7938L68.8935 29.8133Z" fill="#263238"/>
<path d="M66.1899 18.1375C66.1206 18.1962 66.5661 18.7546 67.061 19.7733C67.6946 21.0956 68.0114 22.5551 67.9817 24.0146C67.952 25.4839 67.5758 26.9238 66.8927 28.2266C66.6354 28.7751 66.2592 29.2649 65.8137 29.6763C65.8137 29.6763 66.0216 29.6763 66.2988 29.4706C66.6749 29.1767 66.9818 28.8143 67.1996 28.4029C68.0114 27.0805 68.4668 25.5721 68.4965 24.0342C68.5262 22.4866 68.1401 20.9585 67.3679 19.6165C67.1006 19.0386 66.6947 18.5293 66.1899 18.1375Z" fill="#263238"/>
<path d="M65.3975 21.2131C65.4668 21.0172 65.5757 20.8409 65.7143 20.694C65.7836 20.6156 65.8727 20.5568 65.9717 20.5274C66.0707 20.4981 66.1796 20.4883 66.2786 20.4981C66.3776 20.5176 66.4766 20.5764 66.5558 20.645C66.635 20.7136 66.6845 20.8115 66.7142 20.9095C66.7636 21.1152 66.7439 21.3209 66.6449 21.507C66.4172 21.938 66.0608 22.3494 66.0806 22.7804C66.1004 23.2114 66.1994 23.6521 66.1697 24.0831C66.1697 24.2399 66.1103 24.3966 66.0212 24.5239C65.9816 24.5925 65.9123 24.6415 65.843 24.6806C65.7737 24.7198 65.6945 24.7296 65.6054 24.7296C65.3381 24.7296 65.2193 24.4064 65.1599 24.1517C64.9323 23.1722 65.0114 22.1437 65.3975 21.2131Z" fill="white"/>
<path d="M126.645 27.492C127.289 26.4537 127.576 25.2489 127.477 24.044C127.526 22.8294 127.19 21.6344 126.507 20.6255C126.358 20.6843 126.923 22.1536 126.942 24.0538C126.962 25.9541 126.507 27.443 126.645 27.492Z" fill="#263238"/>
<path d="M154.376 26.7768C154.544 26.7768 154.713 26.7082 154.841 26.5907C154.96 26.4731 155.029 26.3066 155.029 26.1303V22.5256C155.029 22.3591 154.96 22.1926 154.841 22.0653C154.722 21.9379 154.554 21.8792 154.376 21.8792C154.198 21.8792 154.039 21.9477 153.911 22.0653C153.782 22.1828 153.713 22.3493 153.713 22.5256V26.1401C153.713 26.3066 153.792 26.4731 153.911 26.5907C154.029 26.7082 154.198 26.7768 154.376 26.7768Z" fill="#E1323D"/>
<path d="M154.375 26.7769C154.375 26.7769 154.197 26.7769 154.029 26.5516C153.92 26.4537 153.861 26.3067 153.861 26.1696V25.4937C153.861 24.9158 153.861 24.3183 153.91 23.7012V22.6433C153.9 22.5845 153.89 22.516 153.91 22.4572C153.93 22.3984 153.95 22.3397 153.989 22.2907C154.029 22.2417 154.078 22.2025 154.138 22.1731C154.197 22.1438 154.257 22.134 154.326 22.134C154.385 22.134 154.455 22.1535 154.504 22.1829C154.563 22.2123 154.613 22.2515 154.653 22.3005C154.692 22.3495 154.722 22.4082 154.732 22.467C154.742 22.5258 154.752 22.5943 154.732 22.6531V23.711C154.732 24.3575 154.752 24.955 154.791 25.5035V26.1794C154.791 26.248 154.781 26.3263 154.752 26.3851C154.722 26.4537 154.682 26.5124 154.633 26.5614C154.455 26.7377 154.276 26.7475 154.286 26.7867C154.286 26.8259 154.474 26.8945 154.761 26.7182C154.851 26.6594 154.92 26.581 154.969 26.4929C155.019 26.4047 155.058 26.3067 155.068 26.2088V25.5035C155.068 24.9256 155.068 24.3281 155.118 23.711V22.6531C155.138 22.4082 155.068 22.1633 154.91 21.9674C154.821 21.8695 154.722 21.7813 154.593 21.7226C154.474 21.6638 154.336 21.6344 154.207 21.6344C154.068 21.6344 153.94 21.6638 153.821 21.7226C153.702 21.7813 153.593 21.8597 153.504 21.9576C153.356 22.1536 153.286 22.3984 153.306 22.6433V23.7012C153.306 24.3477 153.326 24.9452 153.366 25.4937V26.199C153.385 26.297 153.415 26.3949 153.474 26.4831C153.534 26.5712 153.603 26.6496 153.692 26.7084C154.227 26.8847 154.395 26.7965 154.385 26.7769H154.375Z" fill="#263238"/>
<path d="M146.899 33.908C146.899 33.908 147.819 22.7316 147.542 21.7521C147.265 20.7725 144.157 17.3148 143.068 17.1973C141.979 17.0797 141.86 18.2747 141.86 18.2747C140.949 17.6772 139.91 17.305 138.831 17.1875C138.415 17.1483 137.999 17.2658 137.672 17.5107C137.336 17.7556 137.118 18.118 137.039 18.5294C136.316 18.0984 135.455 17.9711 134.633 18.1572C133.99 18.2747 133.247 19.3914 133.247 19.3914C133.247 19.3914 131.663 18.7155 130.901 19.3914C130.278 20.0673 129.931 20.9489 129.931 21.8598C130.941 21.8598 131.931 22.1635 132.752 22.7512C132.931 25.1902 133.267 27.6096 133.752 29.9997C134.356 32.3897 136.752 34.3782 137.564 35.6124L138.197 43.8698L148.463 38.5118L146.899 33.9178V33.908Z" fill="#EB996E"/>
<path d="M144.596 22.5945C144.665 22.0852 144.626 21.5562 144.477 21.0566C144.329 20.5571 144.081 20.0967 143.754 19.6951C143.487 19.2445 143.141 18.8527 142.715 18.549C142.289 18.2454 141.804 18.0299 141.289 17.9124C142.032 18.549 142.715 19.2347 143.339 19.989C143.824 20.8216 144.249 21.6933 144.606 22.5945H144.596Z" fill="#D1734A"/>
<path d="M139.606 22.3984C139.754 21.9576 139.784 21.4874 139.714 21.0172C139.635 20.5569 139.457 20.1161 139.18 19.7438C138.833 19.1659 138.299 18.7153 137.655 18.4705C137.17 18.3039 136.844 18.3431 136.834 18.4019C136.824 18.4607 138.022 18.7839 138.734 20.0083C139.101 20.7723 139.398 21.5658 139.606 22.3886V22.3984Z" fill="#D1734A"/>
<path d="M135.885 22.0359C136.023 22.0359 135.796 20.9487 134.835 20.1063C133.875 19.2639 132.796 19.1463 132.786 19.2541C132.776 19.3618 133.657 19.7047 134.489 20.4785C135.33 21.2523 135.707 22.0751 135.885 22.0262V22.0359Z" fill="#D1734A"/>
<path d="M109.602 36.6603C107.889 34.6621 109.196 29.2943 109.196 29.2943C108.473 29.0396 107.83 28.6282 107.305 28.0796C106.78 27.5311 106.384 26.865 106.167 26.15C105.563 23.7501 106.771 23.3485 106.771 23.3485C107.176 23.5542 110.918 25.9541 112.839 26.9532C114.759 27.9523 115.363 38.1394 115.363 38.1394" fill="#EB996E"/>
<path d="M115.352 38.0904C115.401 37.6496 115.401 37.199 115.352 36.7485C115.302 35.8865 115.213 34.6523 115.035 33.1242C114.857 31.3219 114.451 29.5391 113.827 27.8348C113.718 27.5801 113.58 27.345 113.421 27.1197C113.243 26.8846 113.005 26.6985 112.728 26.5712C112.263 26.3165 111.758 26.052 111.313 25.768L108.392 23.9852C107.887 23.6816 107.412 23.3779 106.887 23.084L106.788 23.0253L106.689 23.0742C106.492 23.1722 106.323 23.2995 106.185 23.4661C106.046 23.6326 105.947 23.8285 105.888 24.0342C105.779 24.3868 105.729 24.759 105.759 25.1313C105.799 26.1206 106.145 27.0707 106.749 27.8543C107.353 28.638 108.184 29.2257 109.135 29.5293L108.996 29.2747C108.561 31.0868 108.462 32.9577 108.719 34.809C108.808 35.3183 108.986 35.8179 109.244 36.2783C109.343 36.435 109.461 36.5721 109.6 36.6897C109.541 36.5232 109.461 36.3566 109.352 36.2097C109.145 35.7493 109.006 35.2694 108.947 34.7698C108.788 32.9577 108.947 31.1358 109.392 29.3824L109.442 29.1963L109.253 29.1277C108.165 28.7163 107.264 27.9229 106.709 26.914C106.432 26.3557 106.274 25.7386 106.244 25.1117C106.195 24.8276 106.214 24.5239 106.323 24.2595C106.432 23.9852 106.61 23.7501 106.848 23.5738H106.65C107.105 23.8383 107.62 24.1615 108.105 24.4652C109.075 25.0823 110.055 25.6798 111.025 26.2479C111.501 26.532 111.996 26.7965 112.461 27.0511C112.679 27.1393 112.867 27.2862 113.005 27.4625C113.154 27.6486 113.273 27.8543 113.362 28.0796C113.995 29.735 114.421 31.4688 114.639 33.232C114.876 34.7404 115.015 35.9746 115.124 36.8268C115.154 37.2578 115.223 37.679 115.342 38.1002L115.352 38.0904Z" fill="#D1734A"/>
<path d="M189.976 126.003C189.976 126.003 188.778 174.519 189.976 180.436C191.174 186.352 193.193 210.811 193.193 228.952C193.193 247.092 192.421 251.226 192.421 251.226H174.622C174.622 251.226 173.355 216.737 167.861 196.764C162.752 178.232 156.882 150.041 156.882 137.816V121.262H188.382L189.976 125.993V126.003Z" fill="#263238"/>
<path d="M146.911 121.262C146.911 121.262 128.231 172.541 127.033 187.537C125.835 202.524 125.785 251.226 125.785 251.226H144.218L146.673 192.425L160.859 154.312V121.272H146.911V121.262Z" fill="#263238"/>
<path d="M156.878 148.885C156.918 149.355 156.997 149.815 157.116 150.276C157.304 151.236 157.551 152.529 157.858 154.057C158.492 157.348 159.343 161.707 160.264 166.526C161.184 171.345 162.115 175.812 162.828 178.976C163.184 180.563 163.501 181.865 163.739 182.727C163.838 183.198 163.976 183.648 164.154 184.089C164.115 183.619 164.045 183.149 163.917 182.688C163.729 181.728 163.481 180.435 163.184 178.907C162.541 175.616 161.699 171.257 160.769 166.428C159.838 161.599 158.917 157.152 158.205 153.988C157.848 152.401 157.532 151.099 157.294 150.237C157.205 149.776 157.066 149.326 156.878 148.885Z" fill="#455A64"/>
<path d="M139.832 143.909H135.882C135.882 143.909 134.972 130.411 137.258 121.262C139.535 112.113 151.187 72.4132 151.187 72.4132L164.086 51.3631L171.006 48.3168L148.287 123.691L139.832 143.919V143.909Z" fill="#455A64"/>
<path d="M192.693 47.4645L191.624 40.7156L172.568 49.1787V45.1039L164.153 59.0034L145.641 111.056C145.047 112.662 144.324 118.01 145.403 119.342L146.918 121.272L166.984 123.848L186.011 55.8395L192.693 47.4645Z" fill="#E0E0E0"/>
<path d="M170.354 55.2419C170.354 55.2419 161.642 84.5886 161.711 84.7943C161.781 85.0098 152.059 114.827 152.059 114.827L150.109 105.854L163.652 61.1386L169.096 54.5366L170.354 55.2517V55.2419Z" fill="#0099FF"/>
<path d="M198.36 50.2462C207.29 55.6336 207.755 63.989 203.775 73.5786C203.122 75.1654 201.825 77.8983 200.974 79.7496C197.133 87.8405 189.154 101.035 189.154 104.12C189.154 111.388 195.727 145.094 195.727 145.094C195.727 145.094 160.089 149.375 156.871 146.054C153.654 142.733 151.179 121.958 152.219 112.662C153.357 102.406 158.693 85.0587 160.861 78.6329C162.168 74.7736 166.464 65.135 171.582 58.8563C175.413 54.1349 179.977 50.0503 185.095 46.7395L192.688 41.8223L194.242 47.0236C195.509 48.2284 196.885 49.3059 198.36 50.2462Z" fill="#455A64"/>
<path d="M163.668 52.5482C162.926 52.5482 130.356 63.0781 132.247 62.3043L131.366 61.4031L119.675 43.8989L108.963 50.1777C108.963 50.1777 119.556 70.2384 121.308 73.3925C122.149 74.9304 123.397 76.2234 124.921 77.1147C126.446 78.0061 128.178 78.4763 129.95 78.4665C132.336 78.4665 152.739 75.0871 152.739 75.0871L163.668 52.5678V52.5482Z" fill="#455A64"/>
<path d="M150.576 40.5L148.052 36.0823L136.707 42.4688L138.469 47.3273L150.566 40.4902L150.576 40.5Z" fill="#E0E0E0"/>
<path d="M200.459 73.8726C200.737 73.6668 167.623 85.3232 160.871 83.2173C154.12 81.1211 151.942 74.5386 149.526 70.4246C145.111 62.9704 137.291 48.1501 137.291 48.1501L151.298 40.2159L165.247 63.3524C165.247 63.3524 189.946 53.2731 192.213 52.6168C194.48 51.9605 201.509 51.0593 204.934 59.1796C208.775 68.1717 200.459 73.8726 200.459 73.8726Z" fill="#455A64"/>
<path d="M200.458 73.8725C200.547 73.8333 200.636 73.7844 200.715 73.7158C200.873 73.5982 201.101 73.4121 201.398 73.1673C202.25 72.4326 203.022 71.6 203.675 70.689C204.764 69.2295 205.506 67.5546 205.853 65.7718C205.952 65.2331 206.021 64.6845 206.041 64.136C206.041 63.5679 205.982 62.9802 205.962 62.3631C205.942 61.7459 205.744 61.1484 205.556 60.5313C205.358 59.8946 205.13 59.2775 204.853 58.6702C204.279 57.3479 203.487 56.1235 202.497 55.0656C201.408 53.9097 200.042 53.0379 198.517 52.5384C196.874 51.9996 195.132 51.8625 193.419 52.1466C192.528 52.2837 191.647 52.5286 190.816 52.8812L188.232 53.8411C181.272 56.5446 173.531 59.6791 165.186 63.0781L165.483 63.1761L151.544 40.0396L151.416 39.8241L151.198 39.9514L146.139 42.841L137.15 47.9248L136.933 48.0423L137.051 48.2578C139.813 53.4591 142.526 58.5037 145.199 63.3132C146.545 65.7228 147.872 68.0737 149.208 70.356C150.554 72.6383 151.584 74.9794 152.99 77.105C154.296 79.2207 156.098 81.0035 158.236 82.2867C159.276 82.894 160.404 83.325 161.592 83.5698C162.741 83.6972 163.899 83.6972 165.047 83.5698C169.165 83.0409 173.234 82.2181 177.224 81.1014C184.549 79.1718 190.34 77.2421 194.31 75.9687C198.29 74.6953 200.448 73.8627 200.448 73.8627C200.309 73.8725 200.171 73.9117 200.042 73.9607L198.854 74.3231L194.261 75.7924C190.261 77.0364 184.46 78.8779 177.144 80.7684C173.165 81.8557 169.106 82.6589 165.008 83.1682C163.889 83.2956 162.76 83.2956 161.642 83.1682C160.513 82.9234 159.434 82.5022 158.444 81.9242C156.365 80.6606 154.623 78.9171 153.356 76.8503C151.97 74.7835 150.94 72.413 149.594 70.1013C148.248 67.7896 146.941 65.4779 145.605 63.0781C142.942 58.2588 140.229 53.2143 137.477 48.013L137.368 48.346L146.387 43.2818L151.435 40.3922L151.099 40.3041C156.029 48.4439 160.741 56.2508 165.067 63.4405L165.176 63.6168L165.364 63.5385C173.67 60.1395 181.47 56.9854 188.361 54.233L190.934 53.2632C191.746 52.9204 192.588 52.6657 193.459 52.5286C195.112 52.2543 196.795 52.3817 198.389 52.8812C199.854 53.3612 201.18 54.1938 202.24 55.3007C203.21 56.3194 203.992 57.5046 204.566 58.778C204.833 59.3657 205.071 59.9828 205.269 60.5999C205.467 61.1974 205.546 61.8145 205.675 62.3924C205.813 62.9704 205.803 63.5581 205.774 64.1164C205.764 64.6551 205.704 65.1939 205.605 65.7228C205.279 67.4762 204.566 69.1414 203.517 70.5911C202.873 71.5021 202.131 72.3444 201.309 73.0987C201.032 73.3632 200.814 73.5395 200.656 73.6668L200.428 73.8431L200.458 73.8725Z" fill="#263238"/>
<path d="M184.539 123.251L181.47 117.099L159.998 117.471L162.384 123.828L184.539 123.241V123.251Z" fill="#455A64"/>
<path d="M184.539 123.251H178.114C174.145 123.309 168.66 123.388 162.374 123.535L162.622 123.701C161.889 121.772 161.127 119.724 160.345 117.628L160.236 117.344L159.998 117.687C168.65 117.53 176.362 117.373 181.431 117.227L181.282 117.138L183.638 121.585C183.905 122.075 184.113 122.477 184.282 122.8C184.361 122.947 184.44 123.094 184.539 123.231C184.539 123.231 184.539 123.104 184.371 122.839C184.202 122.565 184.034 122.124 183.806 121.634L181.619 117.021V116.923H181.49C176.382 116.923 168.67 117.06 160.058 117.217H159.701L159.83 117.54L159.939 117.824L162.216 123.887L162.285 124.054H162.463C168.878 123.868 174.461 123.662 178.401 123.505L182.995 123.319L184.202 123.26C184.311 123.26 184.43 123.26 184.539 123.26V123.251Z" fill="#263238"/>
<path d="M170.215 60.6097C170.285 60.737 175.719 57.7789 182.362 54.0077C189.005 50.2365 194.321 47.0824 194.261 46.9747C194.202 46.8669 188.757 49.8055 182.115 53.5767C175.472 57.3479 170.146 60.502 170.215 60.6097Z" fill="#263238"/>
<path d="M162.79 107C162.79 107.137 167.967 106.922 174.332 106.52C180.708 106.119 185.865 105.678 185.855 105.56C185.855 105.433 180.668 105.639 174.303 106.04C167.927 106.442 162.78 106.873 162.79 107Z" fill="#263238"/>
<path d="M118.975 44.3593L116.817 40.7546L108.244 45.7111L109.907 49.6292L118.975 44.3691V44.3593Z" fill="#E0E0E0"/>
<path d="M130.01 69.6996C130.951 68.7592 131.673 67.623 132.109 66.379C132.544 65.1252 132.683 63.793 132.525 62.4805C132.376 62.4805 132.327 64.2142 131.634 66.2125C130.931 68.2107 129.862 69.6114 130.02 69.6996H130.01Z" fill="#263238"/>
<path d="M150.99 73.1478C150.159 75.0971 149.486 77.1051 148.971 79.1621C148.298 81.1702 147.783 83.2272 147.436 85.3234C148.258 83.3741 148.931 81.3563 149.456 79.3091C150.129 77.301 150.644 75.244 150.99 73.1478Z" fill="#263238"/>
<path d="M164.145 70.6303C165.016 69.6312 165.59 68.4068 165.808 67.104C166.026 65.8012 165.887 64.4593 165.402 63.2349C165.462 64.4985 165.432 65.762 165.303 67.0256C165.006 68.2598 164.62 69.4647 164.145 70.6303Z" fill="#263238"/>
<path d="M173.039 53.2829L172.801 53.5278L170.346 55.242L169.119 54.5563L169.921 51.8724L172.514 49.9427L173.039 53.2829Z" fill="#0099FF"/>
<path d="M169.73 49.943C169.463 50.6972 169.275 51.471 169.176 52.2644L169.097 52.6758L169.453 52.4212C170.314 51.8237 171.403 51.0302 172.66 50.1291L172.274 49.9723C172.393 50.7364 172.522 51.5298 172.641 52.3624C172.73 52.862 172.809 53.3223 172.878 53.8219L172.938 54.1647L173.244 54.008C175.115 53.097 176.739 52.2938 177.897 51.6865C178.541 51.4025 179.154 51.0498 179.719 50.6384C179.046 50.8147 178.392 51.0694 177.769 51.4025C176.571 51.9216 174.908 52.6856 173.037 53.5672L173.383 53.7533L173.155 52.2938C173.017 51.4612 172.888 50.6678 172.769 49.9136L172.7 49.512L172.383 49.7568C171.156 50.7168 170.077 51.52 169.255 52.1665L169.542 52.333C169.691 51.5494 169.75 50.7462 169.74 49.9527L169.73 49.943Z" fill="#263238"/>
<path d="M183.735 10.125H183.775C184.904 11.0164 185.636 12.2996 185.834 13.7199V13.8668C186.111 15.9042 186.062 17.9319 186.359 19.9693C186.656 22.0067 187.359 24.0343 188.863 25.3861C189.477 25.9542 190.566 26.346 191.071 25.6799C191.249 25.4057 191.328 25.0824 191.328 24.7592C191.714 19.9007 193.051 15.5908 193.041 10.5266C193.041 9.85075 192.892 9.17488 192.586 8.56757C192.279 7.96026 191.823 7.43132 191.269 7.02971C190.19 6.27547 188.883 5.48205 187.685 6.04038C186.487 6.59872 184.943 8.81245 184.023 9.743" fill="#263238"/>
<path d="M187.845 6.7848C189.043 4.85513 185.756 2.08306 183.351 1.36801C180.945 0.65295 177.777 1.77941 175.382 2.56303C173.867 3.05279 172.372 3.74826 170.768 3.68949C169.709 3.58174 168.67 3.31727 167.68 2.90587C166.69 2.49446 165.631 2.28876 164.561 2.29856C164.027 2.30835 163.502 2.46508 163.057 2.74914C162.601 3.0332 162.245 3.43481 161.997 3.90499C161.592 4.88451 162.166 6.22647 163.235 6.3636C162.898 6.17749 162.522 6.07954 162.136 6.07954C161.75 6.07954 161.374 6.1579 161.027 6.33422C160.681 6.51053 160.384 6.75541 160.156 7.06886C159.928 7.38231 159.78 7.73494 159.73 8.11696C159.671 8.49897 159.711 8.88099 159.839 9.24341C159.968 9.60584 160.176 9.92909 160.463 10.1838C160.74 10.4482 161.087 10.6343 161.453 10.7323C161.819 10.8303 162.215 10.8498 162.591 10.7715C161.908 10.2523 160.839 11.1143 160.928 11.9665C161.017 12.3877 161.225 12.7795 161.512 13.1028C161.799 13.426 162.176 13.6611 162.591 13.7982C164.651 14.6798 166.997 14.3957 169.095 13.7003C171.194 13.0048 173.154 11.9077 175.263 11.1633C177.371 10.4091 180.846 9.05731 182.935 9.81154C184.479 10.3503 186.419 11.7804 186.419 11.7804L187.449 10.8792C187.716 10.507 187.895 10.0662 187.954 9.61564C188.073 8.71447 188.033 7.79371 187.855 6.90234" fill="#263238"/>
<path d="M190.625 23.4954C190.763 23.4366 195.871 21.8693 195.802 27.051C195.723 32.2327 190.476 31.0965 190.466 30.9594C190.466 30.8124 190.635 23.4954 190.635 23.4954H190.625Z" fill="#EB996E"/>
</g>
<defs>
<filter id="filter0_d_1302_6021" x="59.1328" y="76" width="128.613" height="61.7809" filterUnits="userSpaceOnUse" color-interpolation-filters="sRGB">
<feFlood flood-opacity="0" result="BackgroundImageFix"/>
<feColorMatrix in="SourceAlpha" type="matrix" values="0 0 0 0 0 0 0 0 0 0 0 0 0 0 0 0 0 0 127 0" result="hardAlpha"/>
<feOffset dy="4"/>
<feGaussianBlur stdDeviation="10"/>
<feComposite in2="hardAlpha" operator="out"/>
<feColorMatrix type="matrix" values="0 0 0 0 0 0 0 0 0 0 0 0 0 0 0 0 0 0 0.15 0"/>
<feBlend mode="normal" in2="BackgroundImageFix" result="effect1_dropShadow_1302_6021"/>
<feBlend mode="normal" in="SourceGraphic" in2="effect1_dropShadow_1302_6021" result="shape"/>
</filter>
<filter id="filter1_d_1302_6021" x="159.768" y="102" width="128.604" height="61.7809" filterUnits="userSpaceOnUse" color-interpolation-filters="sRGB">
<feFlood flood-opacity="0" result="BackgroundImageFix"/>
<feColorMatrix in="SourceAlpha" type="matrix" values="0 0 0 0 0 0 0 0 0 0 0 0 0 0 0 0 0 0 127 0" result="hardAlpha"/>
<feOffset dy="4"/>
<feGaussianBlur stdDeviation="10"/>
<feComposite in2="hardAlpha" operator="out"/>
<feColorMatrix type="matrix" values="0 0 0 0 0 0 0 0 0 0 0 0 0 0 0 0 0 0 0.15 0"/>
<feBlend mode="normal" in2="BackgroundImageFix" result="effect1_dropShadow_1302_6021"/>
<feBlend mode="normal" in="SourceGraphic" in2="effect1_dropShadow_1302_6021" result="shape"/>
</filter>
<filter id="filter2_d_1302_6021" x="2.76758" y="38.6427" width="98.3965" height="54.391" filterUnits="userSpaceOnUse" color-interpolation-filters="sRGB">
<feFlood flood-opacity="0" result="BackgroundImageFix"/>
<feColorMatrix in="SourceAlpha" type="matrix" values="0 0 0 0 0 0 0 0 0 0 0 0 0 0 0 0 0 0 127 0" result="hardAlpha"/>
<feOffset dy="4"/>
<feGaussianBlur stdDeviation="10"/>
<feComposite in2="hardAlpha" operator="out"/>
<feColorMatrix type="matrix" values="0 0 0 0 0 0 0 0 0 0 0 0 0 0 0 0 0 0 0.15 0"/>
<feBlend mode="normal" in2="BackgroundImageFix" result="effect1_dropShadow_1302_6021"/>
<feBlend mode="normal" in="SourceGraphic" in2="effect1_dropShadow_1302_6021" result="shape"/>
</filter>
</defs>
</svg>
