<?xml version="1.0" encoding="UTF-8"?>
<svg id="GUIDES" xmlns="http://www.w3.org/2000/svg" viewBox="0 0 211.98 50.87">
  <polygon points=".28 24.27 .28 6.29 4.45 6.29 4.45 20.47 11.66 20.47 11.66 24.27 .28 24.27" fill="#1d1d1b" stroke-width="0"/>
  <path d="m23.11,24.57c-4.83,0-7.53-2.6-7.53-7.6V6.29h4.17v10.38c0,2.55,1.08,4.1,3.46,4.1s3.43-1.55,3.43-4.1V6.29h4.17v10.67c0,5-2.87,7.6-7.7,7.6" fill="#1d1d1b" stroke-width="0"/>
  <polygon points="71.31 24.27 71.31 6.29 82.69 6.29 82.69 10.12 75.48 10.12 75.48 13.33 82.05 13.33 82.05 16.96 75.48 16.96 75.48 20.47 82.69 20.47 82.69 24.27 71.31 24.27" fill="#1d1d1b" stroke-width="0"/>
  <polygon points="103.44 24.27 103.21 15.44 98.24 21.74 97.79 21.74 92.77 15.44 92.59 24.27 88.57 24.27 89.41 6.17 89.97 6.12 98.11 16.4 106.06 6.12 106.62 6.17 107.48 24.27 103.44 24.27" fill="#1d1d1b" stroke-width="0"/>
  <g>
    <path d="m119.23,16.57c-.64,0-1.15.02-1.57.07v4.17c.59.05.91.07,1.74.07,2.11,0,3.11-.81,3.11-2.16s-1.08-2.16-3.29-2.16m.32-6.82c-.76,0-1.3.07-1.89.17v3.75c.47.05.78.07,1.55.07,2.01,0,3.02-.74,3.02-2.04,0-1.08-.91-1.96-2.67-1.96m-.56,14.69c-1.57,0-3.61-.15-5.37-.37V6.51c1.3-.2,3.56-.39,5.03-.39,5.22,0,7.87,2.33,7.87,4.83,0,1.89-1.05,3.16-3.09,4,2.45.74,3.61,2.16,3.61,4.22,0,2.8-2.65,5.27-8.04,5.27" fill="#1d1d1b" stroke-width="0"/>
    <path d="m141.18,9.73c-2.85,0-4.76,2.33-4.76,5.57s1.91,5.57,4.76,5.57,4.76-2.36,4.76-5.57-1.91-5.57-4.76-5.57m-.07,14.84c-5.57,0-9.13-4-9.13-9.27s3.73-9.3,9.3-9.3,9.13,4,9.13,9.3-3.75,9.27-9.3,9.27" fill="#1d1d1b" stroke-width="0"/>
    <path d="m163.5,24.57c-4.83,0-7.53-2.6-7.53-7.6V6.29h4.17v10.38c0,2.55,1.08,4.1,3.46,4.1s3.43-1.55,3.43-4.1V6.29h4.17v10.67c0,5-2.87,7.6-7.7,7.6" fill="#1d1d1b" stroke-width="0"/>
    <path d="m183.14,9.9c-.64,0-1.03.02-1.62.12v4.95c.54.05.83.07,1.33.07,1.99,0,3.26-.96,3.26-2.77,0-1.5-1.18-2.38-2.97-2.38m3.7,14.37l-3.07-5.86c-.25.02-.47.02-.71.02-.61,0-.96-.02-1.55-.05v5.89h-4.17V6.46c1.52-.17,3.19-.29,5.3-.29,5.59,0,7.8,2.67,7.8,5.96,0,2.13-1.15,4.05-3.09,5.2l4.22,6.94h-4.73Z" fill="#1d1d1b" stroke-width="0"/>
    <path d="m211.64,14.16v8.58c-1.99,1.15-4.1,1.82-6.82,1.82-5.27,0-9.44-3.78-9.44-9.27s4.22-9.3,9.66-9.3c2.35,0,4.24.61,6.03,1.55l-1.74,3.36c-1.27-.66-2.65-1.01-4.02-1.01-3.58,0-5.49,2.23-5.49,5.4,0,3.43,2.31,5.57,5.25,5.57,1.33,0,1.99-.15,2.65-.49v-2.65h-3.61v-3.56h7.53Z" fill="#1d1d1b" stroke-width="0"/>
  </g>
  <polygon points="71.32 50.12 71.32 42.28 73.14 42.28 73.14 48.46 76.28 48.46 76.28 50.12 71.32 50.12" fill="#1d1d1b" stroke-width="0"/>
  <polygon points="78.61 50.12 78.61 42.28 83.58 42.28 83.58 43.95 80.43 43.95 80.43 45.35 83.3 45.35 83.3 46.93 80.43 46.93 80.43 48.46 83.58 48.46 83.58 50.12 78.61 50.12" fill="#1d1d1b" stroke-width="0"/>
  <polygon points="89.83 43.95 89.83 50.12 88.02 50.12 88.02 43.95 85.66 43.95 85.66 42.28 92.19 42.28 92.19 43.95 89.83 43.95" fill="#1d1d1b" stroke-width="0"/>
  <g>
    <path d="m94.35,44.77l-.14-.21c.31-.27.51-.57.64-.93-.47-.02-.77-.35-.77-.75s.32-.73.72-.73c.51,0,.81.39.81.89,0,.7-.52,1.4-1.26,1.73" fill="#1d1d1b" stroke-width="0"/>
    <path d="m99.93,50.25c-.89,0-1.96-.35-2.64-.8l.5-1.65c.63.46,1.45.76,2.19.76.64,0,.89-.3.89-.68,0-.41-.2-.68-1.4-1.17-1.38-.56-1.86-1.36-1.86-2.3,0-1.14.93-2.26,2.76-2.26.86,0,1.73.3,2.19.61l-.46,1.63c-.45-.31-1.18-.64-1.73-.64-.66,0-.93.31-.93.63,0,.51.4.68,1.38,1.1,1.47.62,1.9,1.33,1.9,2.33,0,1.25-.91,2.44-2.79,2.44" fill="#1d1d1b" stroke-width="0"/>
  </g>
  <polygon points="114.71 50.12 114.61 46.27 112.44 49.02 112.25 49.02 110.05 46.27 109.98 50.12 108.22 50.12 108.59 42.22 108.83 42.2 112.39 46.69 115.85 42.2 116.1 42.22 116.47 50.12 114.71 50.12" fill="#1d1d1b" stroke-width="0"/>
  <path d="m121.98,45.42l-.78,1.88h1.55l-.77-1.88Zm1.94,4.7l-.59-1.42h-2.71l-.59,1.42h-1.85l3.69-7.91h.25l3.69,7.91h-1.89Z" fill="#1d1d1b" stroke-width="0"/>
  <polygon points="132.33 50.12 129.45 46.45 129.45 50.12 127.63 50.12 127.63 42.28 129.45 42.28 129.45 45.69 132.2 42.28 134.35 42.28 131.13 46.01 134.52 50.12 132.33 50.12" fill="#1d1d1b" stroke-width="0"/>
  <polygon points="136.66 50.12 136.66 42.28 141.62 42.28 141.62 43.95 138.48 43.95 138.48 45.35 141.35 45.35 141.35 46.93 138.48 46.93 138.48 48.46 141.62 48.46 141.62 50.12 136.66 50.12" fill="#1d1d1b" stroke-width="0"/>
  <rect x="147.61" y="42.28" width="1.82" height="7.84" fill="#1d1d1b" stroke-width="0"/>
  <polygon points="155.85 43.95 155.85 50.12 154.03 50.12 154.03 43.95 151.68 43.95 151.68 42.28 158.21 42.28 158.21 43.95 155.85 43.95" fill="#1d1d1b" stroke-width="0"/>
  <polygon points="168.5 50.12 168.5 46.97 165.48 46.97 165.48 50.12 163.66 50.12 163.66 42.28 165.48 42.28 165.48 45.35 168.5 45.35 168.5 42.28 170.32 42.28 170.32 50.12 168.5 50.12" fill="#1d1d1b" stroke-width="0"/>
  <path d="m175.93,45.42l-.78,1.88h1.55l-.77-1.88Zm1.94,4.7l-.59-1.42h-2.71l-.59,1.42h-1.85l3.69-7.91h.25l3.69,7.91h-1.89Z" fill="#1d1d1b" stroke-width="0"/>
  <g>
    <path d="m184.07,43.93c-.24,0-.4.01-.67.04v2.24c.26.01.37.02.55.02.96,0,1.44-.42,1.44-1.18,0-.63-.42-1.12-1.32-1.12m0,3.87c-.26,0-.43-.01-.67-.02v2.34h-1.82v-7.77c.8-.09,1.53-.13,2.18-.13,2.27,0,3.49,1.21,3.49,2.79s-1.1,2.78-3.18,2.78" fill="#1d1d1b" stroke-width="0"/>
    <path d="m192.05,43.93c-.24,0-.4.01-.67.04v2.24c.26.01.37.02.55.02.96,0,1.44-.42,1.44-1.18,0-.63-.42-1.12-1.32-1.12m0,3.87c-.26,0-.43-.01-.67-.02v2.34h-1.82v-7.77c.8-.09,1.53-.13,2.18-.13,2.27,0,3.49,1.21,3.49,2.79s-1.1,2.78-3.18,2.78" fill="#1d1d1b" stroke-width="0"/>
  </g>
  <polygon points="197.54 50.12 197.54 42.28 202.51 42.28 202.51 43.95 199.36 43.95 199.36 45.35 202.23 45.35 202.23 46.93 199.36 46.93 199.36 48.46 202.51 48.46 202.51 50.12 197.54 50.12" fill="#1d1d1b" stroke-width="0"/>
  <polygon points="211.59 50.27 206.86 46.02 206.86 50.12 205.04 50.12 205.04 42.17 205.29 42.13 209.95 46.34 209.95 42.28 211.77 42.28 211.77 50.24 211.59 50.27" fill="#1d1d1b" stroke-width="0"/>
  <rect x="-34.53" y="-30.13" width="283.46" height="115.74" fill="none" stroke-width="0"/>
  <g>
    <polygon points="36.12 .33 42.1 .33 48.08 6.31 48.08 12.29 42.1 12.29 36.12 6.31 36.12 .33" fill="#e30613" stroke-width="0"/>
    <polygon points="66.02 .33 60.04 .33 54.06 6.31 54.06 12.29 60.04 12.29 66.02 6.31 66.02 .33" fill="#009fe3" stroke-width="0"/>
    <polygon points="54.06 18.27 60.04 18.27 66.02 24.25 66.02 30.23 60.04 30.23 54.06 24.25 54.06 18.27" fill="#e30613" stroke-width="0"/>
    <polygon points="48.08 18.27 42.1 18.27 36.12 24.25 36.12 30.23 42.1 30.23 48.08 24.25 48.08 18.27" fill="#009fe3" stroke-width="0"/>
  </g>
</svg>
