<svg width="110" height="110" viewBox="0 0 110 110" fill="none" xmlns="http://www.w3.org/2000/svg">
<path d="M100.793 1.31128H9.1109C4.74066 1.31128 1.19788 4.84953 1.19788 9.21417V100.779C1.19788 105.144 4.74066 108.682 9.1109 108.682H100.793C105.163 108.682 108.706 105.144 108.706 100.779V9.21417C108.706 4.84953 105.163 1.31128 100.793 1.31128Z" fill="#CDEAFC"/>
<path d="M30.5728 94.032L29.694 96.6659V96.671C29.694 96.671 29.8309 102.269 29.9177 108.679H45.7467V94.0375H47.9411V94.032H30.5728Z" fill="#263239"/>
<path d="M53.4424 94.0378H45.7518V108.679H58.4566C55.8782 100.783 53.4424 94.0322 53.4424 94.0322L53.4424 94.0378Z" fill="#263239"/>
<path d="M107.956 59.6239C107.125 60.094 106.687 61.0512 105.917 61.6197C105.118 62.1121 104.194 62.3635 103.254 62.3416C102.319 62.32 101.384 62.4676 100.503 62.79C99.6505 63.1839 98.9563 64.0752 99.1311 64.9941L108.716 64.8998V59.3556C108.45 59.4039 108.194 59.4859 107.956 59.6239Z" fill="white"/>
<path d="M29.6841 52.4828L29.0455 36.5383C28.7453 32.1432 30.7103 28.2007 35.1206 28.0208H35.6009C37.5604 28.0535 39.4381 28.8278 40.8572 30.1801C42.2762 31.5325 43.1332 33.3702 43.2587 35.3278C43.4988 39.1612 43.7226 43.409 43.6573 45.4648C43.5319 49.6854 39.2907 50.2961 39.2907 50.2961C39.2907 50.2961 39.4708 53.3609 39.5036 54.5879C39.5036 54.5879 39.0505 54.915 35.1097 55.0566C31.1688 55.1986 29.6841 52.4828 29.6841 52.4828Z" fill="#EC9A6E"/>
<path d="M39.2953 50.2706C37.3488 50.2271 35.4516 49.6254 33.8331 48.5425C33.8331 48.5425 35.1235 51.6487 39.361 51.3427L39.2953 50.2706Z" fill="#D17349"/>
<path d="M41.8297 39.1808C41.8297 39.3439 41.7678 39.5012 41.6498 39.6137C41.5375 39.7317 41.3806 39.7935 41.2175 39.7992C41.0602 39.8104 40.9086 39.7542 40.7852 39.653C40.6672 39.5518 40.5943 39.4057 40.5775 39.2483C40.5775 39.0853 40.6447 38.9335 40.7627 38.8154C40.875 38.703 41.0323 38.6356 41.195 38.63C41.3523 38.6187 41.5039 38.6693 41.6219 38.7761C41.7399 38.8773 41.8129 39.0234 41.8239 39.1808L41.8297 39.1808Z" fill="#263239"/>
<path d="M42.1972 37.6627C42.1206 37.7447 41.6614 37.3947 41.0108 37.3838C40.3601 37.3728 39.8789 37.69 39.8133 37.608C39.7423 37.5259 39.8571 37.4384 40.0648 37.2853C40.3493 37.0939 40.688 36.9955 41.0327 37.0064C41.3718 37.0119 41.6997 37.1267 41.9674 37.3291C42.1645 37.4877 42.2299 37.6298 42.1916 37.6627H42.1972Z" fill="#263239"/>
<path d="M36.2433 39.2705C36.1667 39.347 35.7074 39.0025 35.0622 38.9916C34.4225 38.9806 33.925 39.2978 33.8594 39.2158C33.7883 39.1338 33.9031 39.0408 34.1163 38.8931C34.4006 38.7017 34.7342 38.6033 35.0786 38.6142C35.4177 38.6142 35.7512 38.7291 36.0191 38.9314C36.2105 39.0955 36.2761 39.2322 36.2378 39.2705L36.2433 39.2705Z" fill="#263239"/>
<path d="M38.2242 42.7906C38.5741 42.6869 38.935 42.6266 39.3013 42.6211C39.4708 42.6211 39.6239 42.5776 39.6567 42.4626C39.6731 42.2931 39.6403 42.1179 39.5529 41.9651L39.0826 40.6907C38.6397 39.6079 38.2789 38.4923 38.0055 37.3549C38.5304 38.3939 38.9678 39.4767 39.3177 40.5813L39.7716 41.8609C39.87 42.0632 39.8973 42.2931 39.8426 42.5117C39.8207 42.572 39.7825 42.6211 39.7333 42.6649C39.6841 42.7088 39.6294 42.736 39.5693 42.7523C39.4763 42.7743 39.3779 42.785 39.2849 42.785C38.935 42.8289 38.5741 42.8289 38.2242 42.785V42.7906Z" fill="#263239"/>
<path d="M36.2785 37.5368C36.1965 37.7063 35.5568 37.5696 34.7858 37.5915C34.0149 37.6134 33.3807 37.7665 33.2932 37.5915C33.2549 37.5149 33.3807 37.3618 33.6431 37.2087C33.993 37.0282 34.3812 36.9298 34.7749 36.9243C35.1686 36.9189 35.5568 37.0009 35.9177 37.165C36.1856 37.3071 36.3168 37.4548 36.2785 37.5368Z" fill="#263239"/>
<path d="M42.4328 35.2149C42.3343 35.3844 41.7933 35.3516 41.181 35.4719C40.5682 35.5977 40.0654 35.8165 39.9177 35.6907C39.8467 35.625 39.9177 35.4664 40.0927 35.2805C40.3659 35.0399 40.6994 34.8813 41.0605 34.8157C41.4215 34.7446 41.7933 34.7665 42.1376 34.8922C42.3837 35.0126 42.4875 35.1438 42.4328 35.2094V35.2149Z" fill="#263239"/>
<path d="M28.4701 42.7309C28.4701 42.7309 28.4154 42.7692 28.3279 42.8075C28.2678 42.8346 28.2022 42.8458 28.142 42.8458C28.0819 42.8458 28.0108 42.8346 27.9561 42.8075C27.7702 42.6926 27.6117 42.5286 27.5078 42.3315C27.4039 42.1348 27.3547 41.9161 27.3602 41.6971C27.3492 41.4513 27.393 41.1995 27.4914 40.9701C27.5187 40.8771 27.5679 40.7949 27.6336 40.7295C27.6991 40.6636 27.7812 40.609 27.8687 40.5763C27.9233 40.5599 27.9889 40.5651 28.0436 40.587C28.0983 40.6146 28.142 40.6529 28.1694 40.7075C28.2131 40.7893 28.1694 40.8496 28.2131 40.8552C28.2569 40.8552 28.2733 40.8057 28.2459 40.6856C28.2295 40.6146 28.1912 40.5543 28.1311 40.5104C28.0491 40.4506 27.9507 40.4286 27.8523 40.4394C27.732 40.4614 27.6172 40.516 27.5187 40.5926C27.4258 40.6744 27.3547 40.7786 27.3109 40.8935C27.1907 41.1448 27.1305 41.4238 27.1415 41.7082C27.1305 41.9652 27.1961 42.2222 27.3328 42.4408C27.4695 42.6599 27.6663 42.8346 27.9015 42.944C27.978 42.9659 28.06 42.9715 28.142 42.9551C28.2186 42.9388 28.2951 42.9112 28.3607 42.8622C28.4756 42.7963 28.4756 42.7309 28.4756 42.7309L28.4701 42.7309Z" fill="#D17349"/>
<path d="M38.6777 44.5307C38.6777 44.5802 38.5301 44.6784 38.2403 44.7059C37.8575 44.7442 37.4748 44.6732 37.1249 44.5088C36.7695 44.356 36.4633 44.1098 36.2446 43.7926C36.086 43.5464 36.0641 43.3604 36.1024 43.3385C36.1462 43.317 36.5508 43.8748 37.2615 44.1864C37.9723 44.498 38.6285 44.4158 38.6777 44.5255V44.5307Z" fill="#263239"/>
<path d="M78.9594 37.4989C78.9594 37.4989 78.8445 36.8208 78.511 36.8208C78.2868 36.8208 78.0626 36.881 77.8711 37.0013C77.68 37.1216 77.5268 37.2911 77.4339 37.4989C77.2041 37.9965 78.9594 37.4989 78.9594 37.4989Z" fill="#EC9A6E"/>
<path d="M70.411 48.2556L70.7439 42.9282L71.8192 37.4369C71.8192 37.4369 72.6595 36.5481 73.1016 36.7498C73.5492 36.9516 73.3799 37.6932 73.3799 37.6932C73.3799 37.6932 74.5536 36.4281 74.9905 36.7171C75.4325 37.0061 75.2688 37.6932 75.2688 37.6932C75.2688 37.6932 76.3441 36.2863 76.8296 36.6735C77.321 37.0607 76.8296 37.6932 76.8296 37.6932C76.8296 37.6932 77.4903 43.8389 77.1574 46.0363C77.0534 46.6797 76.8025 47.2852 76.4202 47.8084C76.0383 48.332 75.5305 48.7573 74.9522 49.0466L74.0677 52.5036L69.7013 50.1316L70.411 48.2556Z" fill="#EC9A6E"/>
<path d="M73.0856 41.2801L49.3749 41.0183V39.1261L73.0856 38.4608V41.2853V41.2801Z" fill="#E2323D"/>
<path d="M98.116 43.1569L64.6132 41.7449C64.1986 40.5453 64.1986 39.2473 64.6132 38.0477L97.9141 36.5753C99.4151 38.1676 99.4259 41.5157 98.1105 43.1569L98.116 43.1569Z" fill="#E2323D"/>
<path d="M97.7898 36.8862C97.7898 36.8862 96.7781 37.8323 96.8164 39.894C96.8547 41.9556 97.8935 42.8198 97.8935 42.8198C98.6208 41.9121 98.9599 40.747 98.8338 39.5932C98.6535 37.5753 97.7898 36.8862 97.7898 36.8862Z" fill="#E0E0E0"/>
<path d="M96.4501 43.1739C96.1768 42.9553 95.9527 42.6765 95.7995 42.3594C95.3623 41.6214 95.1326 40.7793 95.1382 39.9212C95.1382 39.0683 95.3404 38.2319 95.7229 37.4719C95.8649 37.1494 96.0947 36.8651 96.3791 36.6519C96.4174 36.6519 96.1605 36.9854 95.898 37.554C95.5809 38.3029 95.417 39.1066 95.4114 39.9212C95.4114 40.7303 95.5917 41.534 95.9471 42.2612C96.1274 42.5508 96.2969 42.8572 96.4445 43.1631L96.4501 43.1739Z" fill="#263239"/>
<path d="M97.9441 36.6574C97.9824 36.6901 97.7362 37.0018 97.463 37.5703C97.1128 38.3084 96.9381 39.123 96.9545 39.9376C96.9708 40.7578 97.1786 41.5612 97.556 42.2884C97.698 42.5947 97.9058 42.868 98.1515 43.0977C98.1515 43.0977 98.037 43.0977 97.8838 42.9829C97.676 42.8189 97.5065 42.6163 97.3864 42.3869C96.9381 41.649 96.6864 40.8069 96.6701 39.9486C96.6537 39.0847 96.8671 38.2319 97.2935 37.4829C97.4411 37.1603 97.6653 36.876 97.9441 36.6574Z" fill="#263239"/>
<path d="M98.3707 38.3698C98.3324 38.2604 98.2721 38.162 98.1955 38.0799C98.1576 38.0362 98.1081 38.0034 98.0535 37.987C97.9988 37.9706 97.9386 37.9651 97.8839 37.9706C97.8293 37.9815 97.7746 38.0143 97.7308 38.0526C97.6873 38.0909 97.6597 38.1455 97.6434 38.2002C97.6163 38.3151 97.627 38.4299 97.6817 38.5338C97.8074 38.7744 98.0044 39.0041 97.9933 39.2447C97.9825 39.4853 97.9278 39.7314 97.9442 39.972C97.9442 40.0595 97.9769 40.1471 98.0264 40.2182C98.0479 40.2564 98.0862 40.2838 98.1245 40.3057C98.1628 40.3277 98.2067 40.3329 98.2558 40.3329C98.4034 40.3329 98.4692 40.1525 98.5019 40.0103C98.6276 39.4635 98.5841 38.8893 98.3707 38.3698Z" fill="white"/>
<path d="M64.6176 41.8751C64.2622 41.2954 64.1034 40.623 64.1581 39.9503C64.1309 39.2722 64.3168 38.605 64.6942 38.0417C64.776 38.0745 64.4644 38.8948 64.4533 39.9557C64.4425 41.0169 64.6942 41.848 64.6176 41.8751Z" fill="#263239"/>
<path d="M49.3163 41.4734C49.2233 41.4734 49.1304 41.4351 49.0594 41.3693C48.9939 41.3039 48.9556 41.2109 48.9556 41.1123V39.1C48.9556 39.007 48.9939 38.914 49.0594 38.843C49.1252 38.7719 49.2181 38.739 49.3163 38.739C49.4148 38.739 49.5022 38.7773 49.5732 38.843C49.6446 38.9086 49.6829 39.0015 49.6829 39.1V41.1179C49.6829 41.2109 49.639 41.3039 49.5732 41.3693C49.5078 41.4351 49.4148 41.4734 49.3163 41.4734Z" fill="#E2323D"/>
<path d="M49.3193 41.4741C49.3193 41.4741 49.4178 41.4741 49.5108 41.3484C49.571 41.2934 49.6037 41.2116 49.6037 41.135V40.7575C49.6037 40.4351 49.6037 40.1014 49.5762 39.7569V39.1663C49.5818 39.1335 49.5874 39.0952 49.5762 39.0624C49.5654 39.0296 49.5547 38.9968 49.5327 38.9694C49.5108 38.9421 49.4832 38.9202 49.4505 38.9038C49.4178 38.8874 49.3851 38.8819 49.3468 38.8819C49.3141 38.8819 49.2758 38.8928 49.2483 38.9093C49.2156 38.9257 49.188 38.9475 49.1665 38.9749C49.1446 39.0022 49.1282 39.035 49.1226 39.0678C49.117 39.1007 49.1114 39.1389 49.1226 39.1717V39.7623C49.1226 40.1233 49.1114 40.4571 49.0899 40.7631V41.1405C49.0899 41.1789 49.0951 41.2223 49.1114 41.2555C49.1282 41.2934 49.1497 41.3265 49.1773 41.3536C49.2758 41.4522 49.3739 41.4578 49.3688 41.4793C49.3688 41.5012 49.2646 41.5396 49.1063 41.4414C49.0568 41.4083 49.0185 41.3648 48.9914 41.3153C48.9638 41.2662 48.9423 41.2116 48.9367 41.1569V40.7631C48.9367 40.4403 48.9367 40.1069 48.9092 39.7623V39.1717C48.8984 39.035 48.9367 38.8983 49.0241 38.7889C49.0735 38.7343 49.1282 38.685 49.1992 38.6522C49.2646 38.6194 49.3412 38.603 49.4122 38.603C49.4888 38.603 49.5598 38.6194 49.6257 38.6522C49.6911 38.685 49.7513 38.7288 49.8004 38.7835C49.8826 38.8929 49.9209 39.0296 49.9097 39.1663V39.7569C49.9097 40.1178 49.8989 40.4515 49.877 40.7575V41.1513C49.8662 41.206 49.8499 41.2606 49.8168 41.3101C49.784 41.3592 49.7458 41.4031 49.6967 41.4358C49.4015 41.5344 49.3085 41.4849 49.3141 41.4741L49.3193 41.4741Z" fill="#263239"/>
<path d="M53.4342 45.4373C53.4342 45.4373 52.9265 39.2157 53.0794 38.6703C53.2323 38.125 54.946 36.2001 55.5466 36.1347C56.1471 36.0692 56.2124 36.7345 56.2124 36.7345C56.7146 36.4019 57.2877 36.1947 57.8827 36.1292C58.1121 36.1074 58.3411 36.1728 58.5215 36.3092C58.7071 36.4455 58.827 36.6473 58.8708 36.8763C59.269 36.6364 59.7441 36.5655 60.1969 36.6691C60.5518 36.7345 60.9612 37.3561 60.9612 37.3561C60.9612 37.3561 61.8346 36.9799 62.2547 37.3561C62.5988 37.7324 62.7896 38.2232 62.7896 38.7303C62.2328 38.7303 61.6872 38.8994 61.234 39.2266C61.136 40.5842 60.9504 41.9313 60.6828 43.2618C60.3499 44.5923 59.0289 45.6992 58.5812 46.3863L58.232 50.9832L52.572 48.0004L53.4342 45.4429L53.4342 45.4373Z" fill="#EC9A6E"/>
<path d="M54.7139 39.1461C54.6756 38.8617 54.6976 38.5664 54.7798 38.2875C54.8615 38.0086 54.9984 37.7516 55.1787 37.5274C55.3263 37.2759 55.5178 37.0571 55.7528 36.8876C55.9881 36.718 56.2558 36.5977 56.5403 36.5321C56.1302 36.8876 55.7528 37.2704 55.4085 37.6915C55.1404 38.1563 54.9054 38.643 54.7088 39.1461H54.7139Z" fill="#D17349"/>
<path d="M57.4576 39.0357C57.3754 38.7896 57.3591 38.5271 57.3974 38.2646C57.4412 38.0076 57.5398 37.7615 57.6926 37.5537C57.8841 37.231 58.1793 36.9795 58.5347 36.8428C58.8028 36.7498 58.9831 36.7717 58.9887 36.8045C58.9939 36.8373 58.3325 37.0178 57.9387 37.7013C57.7365 38.1279 57.5725 38.5709 57.4576 39.0302V39.0357Z" fill="#D17349"/>
<path d="M59.5165 38.8315C59.4399 38.8315 59.566 38.2245 60.0961 37.7542C60.6267 37.2839 61.2223 37.2183 61.2279 37.2784C61.2335 37.3386 60.7468 37.53 60.2876 37.962C59.8229 38.394 59.615 38.8534 59.5165 38.826V38.8315Z" fill="#D17349"/>
<path d="M74.0047 46.9675C74.9489 45.8551 74.2285 42.8667 74.2285 42.8667C74.6267 42.7251 74.9816 42.4959 75.2707 42.1907C75.5602 41.8852 75.7785 41.5144 75.8984 41.1165C76.2313 39.7803 75.5654 39.5568 75.5654 39.5568C75.3416 39.6713 73.2787 41.0071 72.2197 41.5633C71.1608 42.1195 70.8278 47.7907 70.8278 47.7907" fill="#EC9A6E"/>
<path d="M70.8357 47.7638C70.8082 47.5183 70.8082 47.2677 70.8357 47.0166C70.8628 46.5368 70.9121 45.8497 71.0101 44.999C71.1085 43.9956 71.3323 43.0033 71.676 42.0544C71.7361 41.9128 71.8126 41.7819 71.8998 41.6561C71.9982 41.5256 72.1292 41.4218 72.2821 41.351C72.5386 41.2093 72.817 41.0621 73.0627 40.9038L74.6728 39.9114C74.9512 39.7423 75.2133 39.5733 75.5024 39.4097L75.5569 39.377L75.6115 39.4042C75.7206 39.4588 75.8134 39.5297 75.8899 39.6224C75.9663 39.7151 76.0209 39.8241 76.0536 39.9386C76.1137 40.1349 76.1408 40.342 76.1245 40.5493C76.1029 41.0999 75.9118 41.6291 75.5788 42.0651C75.2459 42.5016 74.7875 42.8287 74.2634 42.9977L74.3399 42.8561C74.58 43.8647 74.6346 44.9063 74.4924 45.9368C74.4434 46.2205 74.3451 46.4986 74.2033 46.7548C74.1487 46.8419 74.083 46.9183 74.007 46.984C74.0396 46.8913 74.083 46.7986 74.1432 46.7166C74.2578 46.4604 74.3343 46.193 74.367 45.9153C74.4542 44.9063 74.367 43.8922 74.1212 42.9158L74.0942 42.8123L74.1977 42.7741C74.7983 42.545 75.2949 42.1033 75.6008 41.542C75.7533 41.2308 75.8409 40.8875 75.8572 40.5385C75.8843 40.3802 75.8736 40.2113 75.8134 40.064C75.7533 39.9114 75.6553 39.7805 75.5243 39.6823H75.6334C75.3821 39.8296 75.0986 40.0095 74.8309 40.1785C74.2961 40.5222 73.7557 40.8548 73.2208 41.1711C72.9588 41.3291 72.686 41.4763 72.4295 41.6183C72.3092 41.6673 72.2057 41.7488 72.1292 41.8471C72.0472 41.951 71.9819 42.0651 71.9325 42.1909C71.5832 43.1123 71.3486 44.0776 71.2284 45.0591C71.0977 45.8986 71.0213 46.5857 70.9611 47.0604C70.9448 47.3003 70.9066 47.5346 70.8409 47.769L70.8357 47.7638Z" fill="#D17349"/>
<path d="M57.3404 106.637H59.5177C59.5177 106.637 60.0198 99.1263 58.7592 94.0358C57.5041 88.9452 51.0807 66.8552 51.0807 66.8552L43.97 55.1426L40.1555 53.4474L52.6798 95.3874L57.3404 106.642V106.637Z" fill="#455A64"/>
<path d="M28.1984 52.9742L28.7878 49.219L39.293 53.9278V51.6607L43.9316 59.3945L54.1369 88.3575C54.4642 89.251 54.8624 92.2272 54.2679 92.968L53.4329 94.0417L42.3707 95.4753L31.882 57.634L28.1984 52.9742Z" fill="#E0E0E0"/>
<path d="M40.5103 57.3014C40.5103 57.3014 45.3135 73.6382 45.2753 73.7527C45.2371 73.8725 50.5971 90.4711 50.5971 90.4711L51.6723 85.4764L44.2056 60.5841L41.2036 56.9087L40.5103 57.3069L40.5103 57.3014Z" fill="#438DCC"/>
<path d="M25.0783 54.5215C20.1558 57.5191 19.8993 62.1683 22.0931 67.5042C22.4533 68.387 23.1682 69.9077 23.6375 70.9381C25.7549 75.4397 30.1535 82.7814 30.1535 84.4981C30.1535 88.5424 26.5299 107.297 26.5299 107.297C26.5299 107.297 46.1759 109.678 47.9494 107.831C49.7233 105.983 51.0875 94.4231 50.5145 89.2507C49.887 83.5445 46.9456 73.8919 45.7503 70.3165C45.03 68.1691 42.6616 62.8061 39.8401 59.3126C37.7282 56.6852 35.2124 54.4125 32.391 52.5705L28.2053 49.8346L27.3485 52.7284C26.65 53.3989 25.8914 53.9986 25.0783 54.5215Z" fill="#455A64"/>
<path d="M44.1895 55.805C44.5989 55.805 62.5564 61.6672 61.5138 61.2363L61.9996 60.7346L68.4457 50.99L74.3518 54.4853C74.3518 54.4853 68.5114 65.653 67.5453 67.4092C67.0813 68.265 66.3936 68.9851 65.5528 69.4813C64.7125 69.9774 63.7571 70.2392 62.7802 70.2337C61.4648 70.2337 50.2154 68.3525 50.2154 68.3525L44.1895 55.8161L44.1895 55.805Z" fill="#455A64"/>
<path d="M51.4107 49.107L52.805 46.6407L59.0711 50.2063L58.0977 52.9187L51.4163 49.1018L51.4107 49.107Z" fill="#E0E0E0"/>
<path d="M23.919 67.6775C23.7662 67.5629 42.024 74.0522 45.7464 72.8796C49.4693 71.7127 50.67 68.0483 52.0017 65.7582C54.4363 61.6085 58.7481 53.3579 58.7481 53.3579L51.0248 48.9412L43.3342 61.8209C43.3342 61.8209 29.7157 56.2098 28.4657 55.8446C27.2158 55.4793 23.3404 54.9776 21.4519 59.4982C19.3341 64.5041 23.919 67.6775 23.919 67.6775Z" fill="#455A64"/>
<path d="M23.925 67.6775C23.8759 67.6557 23.8268 67.6286 23.7831 67.5904C23.6958 67.5248 23.5702 67.4213 23.4065 67.2848C22.9371 66.8758 22.5113 66.4127 22.1511 65.9054C21.5507 65.093 21.1413 64.1604 20.9503 63.1681C20.8957 62.8681 20.8575 62.5626 20.8466 62.2574C20.8466 61.9411 20.8793 61.614 20.8902 61.2703C20.9012 60.9269 21.0103 60.5943 21.114 60.2506C21.2232 59.8961 21.3487 59.5527 21.5016 59.2145C21.8181 58.4785 22.2548 57.7969 22.8006 57.2077C23.401 56.5643 24.1543 56.0789 24.9949 55.8008C25.9009 55.5012 26.8616 55.4248 27.8058 55.5828C28.2971 55.6592 28.7829 55.7956 29.2414 55.9918L30.666 56.5261C34.5031 58.0312 38.7715 59.7763 43.3729 61.6686L43.2092 61.7231L50.8943 48.8429L50.9652 48.7231L51.0854 48.794L53.8744 50.4025L58.8306 53.2326L58.9505 53.2982L58.8852 53.418C57.3623 56.3137 55.8668 59.1218 54.3929 61.7995C53.6506 63.1407 52.9194 64.4492 52.1826 65.72C51.4403 66.9904 50.8724 68.2938 50.0974 69.4771C49.3769 70.6548 48.3833 71.6475 47.2045 72.3616C46.6314 72.6998 46.0093 72.9397 45.3542 73.0762C44.721 73.147 44.0822 73.147 43.4494 73.0762C41.1786 72.7818 38.9352 72.3234 36.7356 71.702C32.6964 70.6277 29.5034 69.5535 27.3146 68.8445C25.1204 68.1355 23.9305 67.672 23.9305 67.672C24.0069 67.6775 24.0833 67.6994 24.1543 67.7269L24.8093 67.9286L27.3419 68.7462C29.547 69.4389 32.7456 70.4642 36.7792 71.5166C38.9735 72.1217 41.2112 72.5689 43.4709 72.8526C44.0878 72.9234 44.7102 72.9234 45.3267 72.8526C45.9492 72.7161 46.5442 72.4818 47.0898 72.1599C48.236 71.4565 49.1969 70.4861 49.8955 69.3355C50.6597 68.1848 51.2272 66.8651 51.9696 65.5784C52.7119 64.2913 53.4323 63.0046 54.1691 61.6685C55.6375 58.9853 57.1333 56.1772 58.6506 53.2815L58.7104 53.4669L53.7382 50.648L50.9544 49.0394L51.14 48.9901C48.4215 53.5214 45.8238 57.8677 43.4382 61.8703L43.3781 61.9681L43.2745 61.9248C38.6951 60.0325 34.394 58.2767 30.595 56.7441L29.1759 56.2046C28.7283 56.0137 28.2643 55.872 27.784 55.7956C26.8725 55.6428 25.9446 55.7137 25.0658 55.9918C24.258 56.2591 23.5266 56.7227 22.9426 57.3386C22.4076 57.9059 21.9764 58.5656 21.6598 59.2746C21.5125 59.6016 21.3815 59.9454 21.2723 60.2887C21.1631 60.6214 21.1195 60.9651 21.0485 61.2866C20.9721 61.6085 20.9776 61.9355 20.994 62.2463C20.9994 62.5462 21.0321 62.8462 21.0867 63.1407C21.2668 64.1166 21.6598 65.0437 22.2384 65.8509C22.5932 66.3578 23.0026 66.8269 23.4556 67.2467C23.6084 67.3943 23.7285 67.4921 23.8159 67.563L23.9414 67.6612L23.925 67.6775Z" fill="#263239"/>
<path d="M32.6899 95.1401L34.382 91.7157L46.2207 91.923L44.9053 95.462L32.6899 95.1346V95.1401Z" fill="#455A64"/>
<path d="M32.6899 95.1404H36.2323C38.4211 95.173 41.4449 95.2168 44.9109 95.2987L44.7747 95.391C45.1785 94.3168 45.5987 93.1773 46.03 92.0104L46.0901 91.8524L46.2207 92.043C41.4505 91.9559 37.1984 91.8687 34.4038 91.7868L34.4857 91.7378L33.1866 94.2134C33.0392 94.4859 32.9246 94.7095 32.8318 94.8897C32.7881 94.9713 32.7445 95.0533 32.6899 95.1296C32.6899 95.1296 32.6899 95.0584 32.7827 94.9112C32.8755 94.7588 32.9683 94.5134 33.0938 94.2408L34.3001 91.6722V91.6177H34.3711C37.1875 91.6177 41.4393 91.6941 46.1881 91.7812H46.3848L46.3135 91.9614L46.2538 92.1194L44.9981 95.4949L44.9603 95.5876H44.8619C41.325 95.4838 38.2464 95.3696 36.074 95.282L33.5414 95.1786L32.8755 95.146H32.6899L32.6899 95.1404Z" fill="#263239"/>
<path d="M40.5845 60.2923C40.5463 60.3631 37.5499 58.7164 33.8874 56.6168C30.2249 54.5177 27.2938 52.7615 27.3266 52.7018C27.3593 52.6417 30.3614 54.2778 34.0238 56.3769C37.6863 58.4764 40.6228 60.2322 40.5845 60.2923Z" fill="#263239"/>
<path d="M44.689 86.0973C44.689 86.1737 41.8343 86.054 38.3244 85.8304C34.8093 85.6068 31.9656 85.3613 31.971 85.296C31.971 85.2252 34.8311 85.3394 38.3408 85.563C41.8558 85.7866 44.6941 86.0265 44.689 86.0973Z" fill="#263239"/>
<path d="M68.8296 51.2533L70.0216 49.2411L74.7566 52.0082L73.8383 54.1955L68.8296 51.2589V51.2533Z" fill="#E0E0E0"/>
<path d="M62.7539 65.3585C62.2344 64.8334 61.8351 64.199 61.5945 63.5043C61.354 62.8044 61.2774 62.0607 61.3647 61.3281C61.4469 61.3281 61.4745 62.2957 61.857 63.4113C62.2452 64.527 62.8356 65.309 62.7483 65.3585H62.7539Z" fill="#263239"/>
<path d="M51.1921 67.2627C51.6511 68.3502 52.0228 69.4708 52.3072 70.6185C52.6785 71.7391 52.9628 72.8868 53.1542 74.0565C52.7004 72.969 52.3287 71.8428 52.0392 70.7007C51.6675 69.5801 51.3831 68.4323 51.1921 67.2627Z" fill="#263239"/>
<path d="M43.9304 65.8767C43.4493 65.3189 43.1322 64.635 43.0117 63.908C42.8916 63.1806 42.9682 62.4313 43.2359 61.7478C43.2032 62.4532 43.2195 63.1587 43.2905 63.8641C43.4545 64.5532 43.6679 65.2259 43.9304 65.8767Z" fill="#263239"/>
<path d="M39.037 56.2169L39.1682 56.3537L40.5241 57.3106L41.2023 56.9279L40.7595 55.4292L39.3268 54.3519L39.037 56.2169Z" fill="#438DCC"/>
<path d="M40.8719 54.3529C41.0195 54.7742 41.1232 55.2064 41.1779 55.6493L41.2218 55.8787L41.0251 55.7367C40.5492 55.4031 39.9478 54.9602 39.2534 54.457L39.4667 54.3697C39.401 54.7962 39.33 55.2391 39.2644 55.7039C39.2151 55.9828 39.1714 56.2398 39.1331 56.5187L39.1003 56.7102L38.9308 56.6224C37.8975 56.1141 37.0008 55.6656 36.361 55.3265C36.0056 55.1681 35.6666 54.971 35.355 54.7415C35.7268 54.8397 36.0876 54.9821 36.4321 55.1681C37.0937 55.4578 38.0123 55.8843 39.0456 56.3767L38.8543 56.4804L38.98 55.6656C39.0566 55.2008 39.1277 54.7579 39.1933 54.3366L39.2315 54.1123L39.4065 54.2492C40.0845 54.785 40.6804 55.2335 41.1344 55.5946L40.9756 55.6876C40.8938 55.2499 40.8607 54.8014 40.8663 54.3585L40.8719 54.3529Z" fill="#263239"/>
<path d="M33.1393 32.201H33.1174C32.4952 32.6973 32.0913 33.4116 31.9821 34.2023V34.2841C31.8293 35.4183 31.8566 36.5471 31.6928 37.6813C31.5291 38.8156 31.1416 39.9443 30.3119 40.697C29.9735 41.0133 29.3731 41.2313 29.0947 40.8605C28.9965 40.7077 28.9528 40.5279 28.9528 40.3477C28.7399 37.6432 28.0031 35.2438 28.0085 32.4246C28.0085 32.0484 28.0904 31.6721 28.2596 31.334C28.4288 30.9959 28.6799 30.7015 28.9855 30.4779C29.5805 30.058 30.301 29.6163 30.9614 29.9271C31.6219 30.238 32.4733 31.4703 32.981 31.9884" fill="#263239"/>
<path d="M30.8753 30.3424C30.2148 29.2682 32.027 27.725 33.3533 27.3269C34.6797 26.9289 36.4264 27.5559 37.7472 27.9922C38.5824 28.2648 39.4066 28.652 40.2909 28.6193C40.8747 28.5593 41.4478 28.4121 41.9938 28.183C42.5398 27.954 43.1236 27.8395 43.713 27.845C44.0077 27.8504 44.2973 27.9377 44.5426 28.0958C44.7939 28.2539 44.9902 28.4775 45.1268 28.7392C45.3507 29.2846 45.034 30.0316 44.4446 30.1079C44.6302 30.0043 44.8377 29.9498 45.0504 29.9498C45.2634 29.9498 45.4705 29.9934 45.6617 30.0916C45.8528 30.1897 46.0165 30.326 46.142 30.5006C46.2674 30.6751 46.3495 30.8714 46.3769 31.084C46.4096 31.2967 46.3877 31.5093 46.3168 31.7111C46.2459 31.9129 46.1312 32.0928 45.9727 32.2346C45.8202 32.3818 45.629 32.4854 45.4271 32.54C45.2252 32.5945 45.0066 32.6054 44.7995 32.5618C45.1758 32.2728 45.7656 32.7526 45.7162 33.2271C45.6673 33.4615 45.5526 33.6797 45.3945 33.8596C45.2359 34.0395 45.0285 34.1704 44.7995 34.2468C43.664 34.7376 42.3705 34.5794 41.2132 34.1922C40.0561 33.8051 38.9754 33.1943 37.8127 32.7799C36.6501 32.36 34.7343 31.6075 33.5826 32.0274C32.7311 32.3273 31.6613 33.1234 31.6613 33.1234L31.0936 32.6218C30.9463 32.4146 30.848 32.1692 30.8152 31.9183C30.7498 31.4167 30.7716 30.9041 30.8698 30.4078" fill="#263239"/>
<path d="M29.345 39.6387C29.2685 39.6059 26.4472 38.7309 26.4854 41.6236C26.5292 44.5168 29.427 43.8824 29.4325 43.8058C29.4325 43.7236 29.3396 39.6387 29.3396 39.6387L29.345 39.6387Z" fill="#EC9A6E"/>
<path d="M108.704 98.0089C108.145 98.6486 107.635 99.3533 106.952 99.8589C105.795 100.721 104.332 100.879 102.919 100.933C101.505 100.988 100.053 101.026 98.7593 101.609C97.4657 102.193 96.4124 103.556 96.68 104.941L107.566 104.839C108.284 103.649 108.704 102.26 108.704 100.77L108.704 98.0089Z" fill="white"/>
<path d="M27.4405 79.6353C27.8171 76.9524 23.9854 74.7001 21.1144 74.4602C19.7444 74.3512 18.3143 74.564 17.0207 74.1113C14.1988 73.1297 13.0798 69.498 10.3343 68.3366C8.27657 67.4752 5.91309 68.2383 3.92631 69.2417C3.02025 69.6994 2.11733 70.2082 1.19171 70.6412V79.8763L27.4405 79.6297V79.6353Z" fill="white"/>
<path d="M100.891 1.31165H9.20886C4.83862 1.31165 1.29584 4.84989 1.29584 9.21454V100.779C1.29584 105.144 4.83862 108.682 9.20886 108.682H100.891C105.261 108.682 108.804 105.144 108.804 100.779V9.21454C108.804 4.84989 105.261 1.31165 100.891 1.31165Z" stroke="#438DCC" stroke-width="1.61227"/>
</svg>
