<?xml version="1.0" encoding="UTF-8"?>
<svg id="Layer_2" data-name="Layer 2" xmlns="http://www.w3.org/2000/svg" viewBox="0 0 1000 1000">
  <defs>
    <style>
      .cls-1 {
        fill: #ff9a6c;
      }

      .cls-1, .cls-2, .cls-3, .cls-4, .cls-5, .cls-6, .cls-7, .cls-8, .cls-9, .cls-10, .cls-11, .cls-12, .cls-13, .cls-14 {
        stroke-width: 0px;
      }

      .cls-2 {
        fill: #000;
      }

      .cls-3 {
        fill: #e0e0e0;
      }

      .cls-4 {
        fill: #455a64;
      }

      .cls-5 {
        fill: #f5f5f5;
      }

      .cls-6 {
        fill: #09f;
      }

      .cls-7 {
        fill: #ebebeb;
      }

      .cls-8 {
        fill: #666;
      }

      .cls-9 {
        fill: #e2323d;
      }

      .cls-10 {
        fill: #e30613;
      }

      .cls-11 {
        fill: #263238;
      }

      .cls-12 {
        fill: #ffbf9d;
      }

      .cls-13 {
        fill: #fafafa;
      }

      .cls-15 {
        opacity: .3;
      }

      .cls-14 {
        fill: #fff;
      }

      .cls-16 {
        opacity: .4;
      }
    </style>
  </defs>
  <g id="freepik--background-complete--inject-2">
    <path class="cls-7" d="M181.31,745.91h100.14c7.05,0,12.76-5.71,12.76-12.76v-30.81c0-11.88-9.63-21.5-21.5-21.5h-92.16l.76,65.07Z"/>
    <path class="cls-7" d="M279.78,765.38H82.92c-5.35,0-9.69-4.34-9.69-9.69h0c-.05-5.35,4.25-9.73,9.6-9.78h196.86c5.36.01,9.69,4.36,9.69,9.71h0c.02,5.34-4.27,9.7-9.61,9.76Z"/>
    <path class="cls-3" d="M42.71,487.4l108.34-1.93,68.77,259.92-146.67,1.47-55.29-227.86c-3.33-13.72,5.09-27.55,18.81-30.88,1.98-.48,4.01-.72,6.04-.72Z"/>
    <polygon class="cls-7" points="96.68 765.36 64.25 953.74 73.14 953.74 115.76 765.36 96.68 765.36"/>
    <polygon class="cls-3" points="173.09 765.36 138.65 953.74 147.52 953.74 192.19 765.36 173.09 765.36"/>
    <polygon class="cls-7" points="257.63 765.36 296.05 953.74 287.16 953.74 238.53 765.36 257.63 765.36"/>
    <path class="cls-7" d="M138.65,485.47l53.61,260.2h41.1l-42.96-229.92c-3.26-17.54-18.56-30.27-36.41-30.29h-15.34Z"/>
    <rect class="cls-7" x="304.96" y="572.89" width="148.29" height="7.2"/>
    <polygon class="cls-7" points="476.25 580.1 504.07 475.87 388.27 475.87 363.09 580.1 476.25 580.1"/>
    <polygon class="cls-3" points="370.04 572.2 473.46 572.2 497.54 480.69 393.57 480.69 370.04 572.2"/>
    <rect class="cls-5" x="275.61" y="601.45" width="7.49" height="357.55"/>
    <rect class="cls-7" x="283.09" y="602.49" width="7.49" height="356.51"/>
    <rect class="cls-7" x="736.98" y="601.45" width="7.49" height="357.55"/>
    <rect class="cls-3" x="744.46" y="602.49" width="7.49" height="356.51"/>
    <rect class="cls-3" x="243.27" y="580.68" width="568.84" height="29.33"/>
    <rect class="cls-7" x="490.29" y="610.02" width="250.42" height="48.54"/>
    <path class="cls-3" d="M626.67,630.93c0,3.08-2.5,5.58-5.58,5.58s-5.58-2.5-5.58-5.58,2.5-5.58,5.58-5.58h0c3.08,0,5.58,2.5,5.58,5.58Z"/>
    <rect class="cls-3" x="25.44" y="245.56" width="311.73" height="13.89"/>
    <rect class="cls-3" x="76.47" y="252.25" width="12.66" height="47.4"/>
    <rect class="cls-3" x="265.4" y="252.25" width="12.66" height="47.4"/>
    <path class="cls-7" d="M219.02,125.84c.52-.5,3.98,2.03,8.55,7.23,2.64,3.06,5.06,6.3,7.23,9.71,5.34,8.43,9.29,17.66,11.68,27.34,1.01,3.94,1.74,7.96,2.16,12.01.63,6.92,0,11.21-.65,11.23-1.62.13-3.12-16.61-11.18-35.18-8.07-18.56-18.97-31.22-17.78-32.34Z"/>
    <path class="cls-7" d="M253.33,207.25c-.71,0-2.68-9.06-4.5-24.08-1.82-15.01-3.37-35.82-3.96-58.84-.58-23.02-.37-43.87,0-58.95.37-15.08,1.15-24.38,1.9-24.38s1.43,9.32,1.95,24.38c.52,15.06.91,35.85,1.51,58.8.61,22.95,1.51,43.66,2.36,58.67.84,15.01,1.51,24.4.74,24.4Z"/>
    <path class="cls-7" d="M286.55,76.39c.69.39-2.16,6.79-5.91,17.48-3.74,10.69-8.65,25.61-13.17,42.29-4.52,16.68-8.11,31.97-10.25,43.11-2.14,11.14-3.03,18.09-3.83,18.06s-1.28-7.2,0-18.67c1.8-14.87,4.74-29.58,8.78-44,3.87-14.45,8.84-28.58,14.86-42.27,4.72-10.49,8.85-16.38,9.52-16.01Z"/>
    <path class="cls-3" d="M210.62,188.13v18.32c-.1,21.45,17.17,38.93,38.62,39.11h0c21.45-.17,38.73-17.66,38.64-39.11v-18.32h-77.25Z"/>
    <path class="cls-13" d="M288.57,203.62c0,.32-17.46.56-38.94.56s-38.94-.24-38.94-.56,17.46-.54,38.94-.54,38.94.24,38.94.54Z"/>
    <path class="cls-13" d="M288.57,208.72c0,.3-17.46.54-38.94.54s-38.94-.24-38.94-.54,17.46-.56,38.94-.56,38.94.24,38.94.56Z"/>
    <rect class="cls-3" x="64.76" y="183.44" width="85.1" height="17.33" transform="translate(-1 .56) rotate(-.3)"/>
    <rect class="cls-5" x="65.24" y="218.85" width="94.84" height="26.91" transform="translate(-1.21 .59) rotate(-.3)"/>
    <path class="cls-3" d="M141.89,245.32c-.47-4.47-.63-8.96-.48-13.46-.16-4.49,0-8.99.48-13.46.45,4.47.6,8.97.45,13.46.14,4.49,0,8.99-.45,13.46Z"/>
    <path class="cls-3" d="M145.94,245.32c-.47-4.47-.63-8.96-.48-13.46-.16-4.49,0-8.99.48-13.46.45,4.47.6,8.97.45,13.46.14,4.49,0,8.99-.45,13.46Z"/>
    <path class="cls-3" d="M79.57,245.32c-.45-4.47-.6-8.97-.45-13.46-.14-4.49,0-8.99.45-13.46.47,4.47.63,8.96.48,13.46.16,4.49,0,8.99-.48,13.46Z"/>
    <path class="cls-3" d="M83.57,245.32c-.47-4.47-.63-8.96-.48-13.46-.16-4.49,0-8.99.48-13.46.45,4.47.6,8.97.45,13.46.14,4.49,0,8.99-.45,13.46Z"/>
    <path class="cls-3" d="M92.27,232.3c0-.26,9.56-.45,21.35-.45s21.37.19,21.37.45-9.56.48-21.37.48-21.35-.22-21.35-.48Z"/>
    <rect class="cls-7" x="78.68" y="200.45" width="117.04" height="17.33" transform="translate(-1.09 .72) rotate(-.3)"/>
    <ellipse class="cls-3" cx="179.02" cy="209.72" rx="5.54" ry="5.6"/>
    <rect class="cls-3" x="85.45" y="207.99" width="78.36" height="3.46"/>
    <rect class="cls-3" x="797.64" y="77.71" width="155.02" height="224.7"/>
    <rect class="cls-5" x="789.87" y="77.71" width="155.02" height="224.7"/>
    <rect class="cls-14" x="809.12" y="102.05" width="116.52" height="176.03"/>
    <path class="cls-3" d="M925.64,278.1v-13.02c0-8.44,0-20.72-.11-36.26,0-31.04-.11-75-.19-126.77l.39.39h-116.49l.43-.43v176.05l-.35-.35,84.8.17h31.76-31.5l-85.02.17h-.32V101.27h117.32v.37c0,51.92-.15,95.92-.19,127.03,0,15.49,0,27.76-.11,36.17v12.03c0,.58-.41,1.23-.41,1.23Z"/>
    <path class="cls-3" d="M945.32,77.71c-.78,1.44-1.7,2.8-2.75,4.07-1.82,2.4-4.33,5.69-7.29,9.22-2.96,3.53-5.65,6.68-7.66,8.91-1.02,1.28-2.17,2.45-3.42,3.5.89-1.37,1.88-2.66,2.96-3.87l7.46-9.11,7.4-9.06c1-1.3,2.1-2.52,3.29-3.66Z"/>
    <path class="cls-14" d="M926.22,277.51c5.79,9.22,12.61,17.75,20.34,25.42"/>
    <path class="cls-3" d="M946.56,302.93c-1.3-.94-2.49-2.02-3.55-3.22-5.41-5.5-10.24-11.53-14.41-18.02-.94-1.3-1.73-2.7-2.38-4.18,1.04,1.21,2,2.49,2.86,3.83,1.71,2.4,4.11,5.69,6.92,9.19s5.47,6.49,7.44,8.76c1.12,1.14,2.17,2.35,3.12,3.63Z"/>
    <path class="cls-14" d="M789.85,302.24l20.23-25.05"/>
    <path class="cls-3" d="M810.07,277.19c-3.05,4.44-6.34,8.71-9.84,12.81-3.28,4.26-6.77,8.34-10.47,12.24-.17-.13,4.33-5.86,9.82-12.79,3.27-4.28,6.77-8.37,10.49-12.27Z"/>
    <path class="cls-3" d="M789.87,77.71c3.48,3.76,6.78,7.7,9.86,11.79,3.28,3.94,6.35,8.05,9.19,12.31-3.51-3.74-6.81-7.67-9.86-11.79-3.3-3.93-6.37-8.03-9.19-12.31Z"/>
    <rect class="cls-3" x="850.33" y="137.81" width="39" height="110.76"/>
  </g>
  <g id="freepik--Floor--inject-2">
    <path class="cls-11" d="M982.88,955.58c0,.3-216.05.56-482.42.56s-482.55-.26-482.55-.56,216.01-.56,482.55-.56,482.42.24,482.42.56Z"/>
  </g>
  <g id="freepik--Plant--inject-2">
    <path class="cls-6" d="M824.42,768.28c20.81,7.27,47.94.78,65.74-12.22,17.8-13,30.61-31.63,41.97-50.51,4.82-8.07,9.56-16.46,11.1-25.74,1.54-9.28-.74-19.73-7.92-25.79-11.18-9.41-28.32-4.63-41.1,2.6-40.26,23.45-66.39,65.21-69.87,111.67"/>
    <path class="cls-6" d="M846.85,818.08c12.5,16.48,33.96,23.8,54.65,24.77,20.68.97,41.1-4.74,60.38-12.16,7.01-2.68,14.69-6.38,17.09-13.48,1.52-5.58.15-11.56-3.66-15.92-3.83-4.23-8.61-7.49-13.95-9.5-19.02-8.09-40.78-8.48-60.79-3.29-20.01,5.19-37.47,16.79-53.71,29.57"/>
    <path class="cls-6" d="M824.11,679.13c17.31.35,30.29-14.73,38.05-30.09,10.82-21.48,14.42-45.88,10.25-69.57-1.58-8.8-4.91-18.3-12.79-22.54-7.87-4.24-18.41-1.45-25.12,4.67-6.71,6.12-10.38,14.86-12.98,23.54-9.26,29.92-7.27,64.32,2.66,94"/>
    <path class="cls-6" d="M767.52,774.4c29.38-49.97,34.27-111.13,16.92-166.44-2.81-8.98-8.11-19.23-17.5-19.84-10.38-.65-16.92,10.95-19.77,20.94-10.08,35.13-7.94,72.43-5.71,108.9,1.38,22.48,9.09,41.69,26.07,56.44"/>
    <path class="cls-6" d="M737,794.96c-11.08-34.68-37.29-62.47-71.26-75.56-7.81-2.92-17.72-4.61-23.54,1.36s-3.94,15.64-.28,22.95c5.91,11.79,15.51,21.29,25.07,30.29,8.65,8.29,17.74,16.59,28.73,21.42,10.99,4.82,31.22,6.01,41.28-.54"/>
    <path class="cls-11" d="M919.06,666.56s-.15.17-.52.45l-1.58,1.23-6.14,4.59-4.48,3.31c-1.6,1.23-3.27,2.68-5.11,4.18-3.63,3.03-7.94,6.3-12.27,10.41l-6.92,6.3c-2.4,2.16-4.69,4.69-7.18,7.14-5.06,4.87-9.95,10.54-15.14,16.4-22.38,25.91-40.5,55.23-53.67,86.84-2.88,7.33-5.78,14.26-7.85,20.94-1.08,3.33-2.29,6.49-3.18,9.63l-2.53,9c-1.75,5.71-2.75,11.01-3.85,15.62-.5,2.31-1.04,4.46-1.43,6.49-.39,2.03-.67,3.81-.95,5.47-.58,3.2-1.04,5.73-1.36,7.57-.17.78-.28,1.43-.39,1.95s-.15.67-.19.67c-.02-.23-.02-.46,0-.69,0-.52.15-1.17.26-1.97.26-1.86.65-4.33,1.1-7.61.26-1.67.54-3.5.84-5.49s.84-4.18,1.32-6.49c1.04-4.63,1.97-9.97,3.66-15.71.78-2.9,1.6-5.93,2.47-9.06.87-3.14,2.03-6.34,3.09-9.69,2.16-6.73,4.91-13.69,7.79-21.07,13.11-31.79,31.31-61.24,53.89-87.18,5.3-5.84,10.25-11.51,15.36-16.35,2.51-2.47,4.85-4.93,7.27-7.12l7.01-6.25c4.33-4.07,8.65-7.29,12.42-10.28,1.88-1.47,3.57-2.88,5.21-4.09l4.54-3.22,6.32-4.33,1.67-1.1c.32-.37.52-.48.54-.45Z"/>
    <path class="cls-11" d="M957.96,805.1c-.69-.05-1.37-.16-2.03-.32-1.3-.24-3.2-.76-5.71-1.17-54.44-10.83-110.53,8.12-147.23,49.76-4.75,5.34-9.13,10.99-13.13,16.92-1.47,2.16-2.44,3.76-3.2,4.87-.34.59-.74,1.15-1.19,1.67.26-.64.58-1.24.95-1.82.67-1.15,1.58-2.9,2.99-5.02,3.84-6.08,8.14-11.87,12.85-17.31,31.55-36.65,78.59-56.19,126.81-52.68,7.17.47,14.29,1.49,21.31,3.05,2.49.5,4.33,1.08,5.69,1.41.65.17,1.28.39,1.9.65Z"/>
    <path class="cls-11" d="M849.49,576.89c0,.26-.03.53-.11.78-.13.58-.28,1.32-.48,2.16-.45,2.16-1.1,4.95-1.93,8.65-1.69,7.46-4.33,18.24-7.51,31.54-6.49,26.61-15.88,63.26-25.68,103.84-4.87,20.31-9.26,39.72-12.98,57.41-3.72,17.7-6.9,33.68-9.26,47.16-1.28,6.73-2.16,12.85-3.14,18.22-.97,5.37-1.62,9.97-2.16,13.76-.54,3.79-1.02,6.62-1.34,8.65-.17.93-.3,1.67-.39,2.16s-.15.78-.19.78c-.02-.26-.02-.52,0-.78,0-.61.15-1.34.26-2.29.26-2.16.63-5.02,1.1-8.65s1.1-8.44,1.95-13.82c.84-5.39,1.71-11.51,2.92-18.24,2.16-13.52,5.32-29.53,9-47.27,3.68-17.74,8.09-37.14,12.98-57.48,9.8-40.61,19.36-77.21,25.96-103.84l7.94-31.43c.93-3.63,1.67-6.49,2.16-8.55.24-.91.43-1.62.61-2.16.07-.21.17-.41.28-.61Z"/>
    <path class="cls-11" d="M782.06,868.16c-.09-.19-.16-.4-.19-.61l-.39-1.8c-.37-1.71-.84-4.05-1.45-6.97-1.25-6.04-2.9-14.82-4.78-25.7-3.76-21.74-8.24-51.92-10.97-85.52-1.34-16.81-2.16-32.84-2.4-47.44s-.11-27.76.35-38.79c.13-5.52.5-10.49.74-14.88s.52-8.13.82-11.21c.3-3.07.48-5.34.65-7.07,0-.74.15-1.34.19-1.84s0-.63.13-.63c.02.22.02.43,0,.65v1.84c0,1.73-.24,4.11-.41,7.1s-.43,6.84-.58,11.21c-.15,4.37-.45,9.37-.52,14.88-.32,11.01-.37,24.14,0,38.72.37,14.58,1.17,30.57,2.49,47.33,2.75,33.53,7.05,63.71,10.58,85.49,1.75,10.82,3.24,19.69,4.33,25.74.5,2.96.91,5.3,1.19,7.01.11.74.19,1.34.28,1.84,0,.21,0,.42-.04.63Z"/>
    <path class="cls-11" d="M784.22,874.5c-.31-.54-.56-1.12-.76-1.71l-1.93-5.04c-.43-1.1-.89-2.31-1.38-3.63l-1.88-4.22c-.67-1.51-1.41-3.14-2.16-4.87s-1.73-3.44-2.66-5.32c-.93-1.88-1.97-3.79-3.01-5.82l-3.63-6.14c-2.36-4.33-5.41-8.65-8.35-13.26-6.77-9.83-14.09-19.26-21.94-28.25-8.02-8.91-16.5-17.39-25.4-25.42-4.22-3.55-8.09-7.12-11.98-10.1l-5.56-4.33-5.28-3.89c-3.33-2.51-6.49-4.63-9.22-6.49-2.73-1.86-5.13-3.48-7.12-4.67l-4.67-2.99c-.55-.31-1.06-.67-1.54-1.08.59.23,1.15.51,1.69.84l4.67,2.66c2.06,1.15,4.5,2.66,7.27,4.5,2.77,1.84,5.99,3.85,9.37,6.34l5.37,3.83,5.62,4.33c3.96,2.94,7.85,6.49,12.11,10.04,8.98,8.01,17.52,16.5,25.57,25.44,7.96,9.06,15.36,18.6,22.15,28.56,2.92,4.72,5.95,9.04,8.29,13.39,1.21,2.16,2.38,4.22,3.53,6.23l2.92,5.88c.91,1.9,1.86,3.66,2.6,5.39l2.16,4.93,1.77,4.33c.48,1.34.89,2.57,1.28,3.7.69,2.16,1.25,3.81,1.69,5.11.21.56.35,1.15.41,1.75Z"/>
    <path class="cls-11" d="M908.18,724.54c0,.22-3.57.22-9.28.52-7.44.43-14.85,1.33-22.17,2.68-7.33,1.41-14.55,3.3-21.63,5.65-5.43,1.8-8.65,3.09-8.83,2.9.66-.5,1.39-.9,2.16-1.19,1.45-.71,3.59-1.62,6.3-2.64,14.1-5.26,29-8.09,44.04-8.37,2.88,0,5.21,0,6.81.13.88-.04,1.75.07,2.6.32Z"/>
    <path class="cls-11" d="M930.33,832.73c-.43.22-3.74-9.35-12.09-18.22-8.35-8.87-17.54-12.98-17.31-13.41,2.12.55,4.14,1.44,5.97,2.64,9.21,5.3,16.6,13.27,21.2,22.84,1.05,1.92,1.8,3.99,2.23,6.14Z"/>
    <path class="cls-11" d="M854.77,617.46c.28.3-5.13,5.67-11.01,12.98-5.88,7.31-10.1,13.61-10.45,13.39s3.37-6.94,9.37-14.28c3.44-4.58,7.51-8.65,12.09-12.09Z"/>
    <path class="cls-11" d="M837.03,586.82c.39,0,1.58,5.13,2.68,11.6,1.1,6.47,1.69,11.75,1.32,11.81s-1.58-5.13-2.68-11.6c-1.1-6.47-1.69-11.75-1.32-11.81Z"/>
    <path class="cls-11" d="M782.1,682.98c.32.17-3.5,8.26-8.65,18.09-5.15,9.82-9.48,17.63-9.82,17.46s3.5-8.29,8.65-18.11c5.15-9.82,9.48-17.61,9.82-17.44Z"/>
    <path class="cls-11" d="M749.5,650.34c.35-.17,3.61,5.69,7.29,13.09,3.68,7.4,6.38,13.52,6.06,13.69s-3.61-5.69-7.29-13.09c-3.68-7.4-6.51-13.52-6.06-13.69Z"/>
    <path class="cls-11" d="M701.35,761.97c0,.41-5.93-.74-13.2-1.23-7.27-.5-13.2-.22-13.24-.63s5.93-1.3,13.35-.76c7.42.54,13.17,2.27,13.09,2.62Z"/>
    <path class="cls-11" d="M734.16,860.68l16.35,85.97c1.07,5.69,6.04,9.81,11.83,9.8h48.31c5.89,0,10.92-4.26,11.88-10.08l14.21-85.69h-102.58Z"/>
    <polygon class="cls-4" points="739.49 888.63 831.84 888.63 836.75 860.68 734.16 860.68 739.49 888.63"/>
    <polygon class="cls-13" points="739.49 888.63 741.41 898.82 830.43 898.82 831.84 888.63 739.49 888.63"/>
  </g>
  <g id="freepik--Character--inject-2">
    <path class="cls-6" d="M363.55,944.31l5.58-23.8,46.36,1.15-3.87,33.86-2.94.24c-13.13.89-66.8,3.59-75.72,1.04-9.63-2.88,30.59-12.48,30.59-12.48Z"/>
    <g class="cls-16">
      <path class="cls-2" d="M394.35,955.34c.65-4.03,2.77-7.67,5.95-10.23,3.11-2.54,7.06-3.83,11.08-3.59l.17,13.3-17.2.52Z"/>
    </g>
    <g class="cls-16">
      <path class="cls-2" d="M343.86,949.72s-14.13,4.33-12.33,6.49c1.8,2.16,56.25,1.62,80.04-.78v-1.06l-63.38,1.34s-1.56-5.93-4.33-5.99Z"/>
    </g>
    <path class="cls-11" d="M412.26,954.39c-.27.07-.54.1-.82.11l-2.34.17-8.65.48c-7.29.37-17.31.71-28.56.87-11.25.15-21.27,0-28.58,0l-8.65-.26h-3.16c.27-.03.55-.03.82,0h39.55c11.25,0,21.24-.45,28.53-.71l8.65-.28h2.36l.84-.37Z"/>
    <path class="cls-11" d="M348.16,956.53c-.4-1.43-.96-2.81-1.67-4.11-.87-1.21-1.88-2.31-3.01-3.29,1.48.53,2.72,1.59,3.48,2.96.92,1.28,1.35,2.86,1.19,4.43Z"/>
    <path class="cls-11" d="M362.12,949.27c-.13,0-.82-.71-1.54-1.82-.71-1.1-1.17-2.03-1.04-2.16s.82.74,1.54,1.82c.71,1.08,1.19,2.03,1.04,2.16Z"/>
    <path class="cls-11" d="M365.95,947.1c0,.11-.87-.39-1.69-1.1-.82-.71-1.43-1.43-1.32-1.54s.87.37,1.69,1.1,1.43,1.54,1.32,1.54Z"/>
    <path class="cls-11" d="M368.33,942.6c-.79.32-1.64.44-2.49.37-.84.1-1.69.02-2.49-.24.79-.3,1.64-.42,2.49-.35.84-.11,1.68-.04,2.49.22Z"/>
    <path class="cls-11" d="M369.13,939.42c-1.73.95-3.78,1.13-5.65.5.94-.15,1.88-.22,2.83-.22.93-.17,1.87-.27,2.81-.28Z"/>
    <path class="cls-11" d="M360.45,945.09c-1.02.17-2.06.17-3.07,0-1.11-.13-2.2-.35-3.27-.67-.64-.19-1.27-.44-1.86-.76-.37-.19-.65-.5-.8-.89-.1-.46.07-.95.45-1.23,2.4-1.21,5.31-.56,6.97,1.56.48.6.83,1.29,1.02,2.03.13.52.13.8,0,.82-.32-.94-.8-1.82-1.43-2.6-.7-.8-1.61-1.38-2.64-1.67-1.2-.39-2.51-.28-3.63.3-.48.35-.28.93.26,1.23.55.3,1.13.54,1.73.71,1.03.34,2.09.6,3.16.78,1.95.22,3.12.22,3.12.37Z"/>
    <path class="cls-11" d="M359.65,945.26c-.38-.65-.51-1.42-.37-2.16.09-.77.37-1.51.8-2.16.51-.94,1.47-1.54,2.53-1.6.65.13,1.07.76.95,1.41-.06.49-.23.95-.5,1.36-.39.69-.87,1.32-1.43,1.88-.95.95-1.69,1.32-1.73,1.25s.61-.56,1.43-1.54c.48-.57.91-1.2,1.25-1.86.41-.65.69-1.8,0-1.93s-1.56.69-2.01,1.32c-.42.59-.71,1.27-.84,1.99-.09.67-.11,1.35-.09,2.03Z"/>
    <path class="cls-11" d="M411.14,941.39c0,.11-1.36-.11-3.53.17-5.72.68-10.53,4.61-12.33,10.08-.71,2.06-.76,3.44-.87,3.42-.06-.31-.06-.64,0-.95.08-.87.25-1.74.5-2.57,1.68-5.75,6.71-9.87,12.68-10.38.87-.09,1.75-.09,2.62,0,.32.01.64.1.93.24Z"/>
    <path class="cls-11" d="M405.95,921.64c.36,3.25.54,6.51.54,9.78.18,3.26.18,6.52,0,9.78-.37-3.24-.55-6.5-.54-9.76-.18-3.26-.18-6.54,0-9.8Z"/>
    <path class="cls-11" d="M388.23,950.78c-4.58.94-9.29,1.04-13.91.3,0-.17,3.14,0,6.97,0s6.94-.48,6.94-.3Z"/>
    <path class="cls-11" d="M397.62,950.65c.13.11-.24.65-.54,1.36s-.48,1.36-.65,1.34-.24-.74.11-1.56c.35-.82,1-1.28,1.08-1.15Z"/>
    <path class="cls-11" d="M401.08,946.21c.13.11-.17.61-.67,1.12-.5.52-.97.82-1.08.71s.19-.61.67-1.12.97-.82,1.08-.71Z"/>
    <path class="cls-11" d="M406.1,944.16c0,.15-.67.17-1.36.41s-1.19.65-1.32.54.26-.78,1.12-1.08,1.6-.02,1.56.13Z"/>
    <path class="cls-11" d="M409.67,943.16c0,.15-.22.41-.61.56s-.76.15-.82,0,.22-.41.61-.56.76-.15.82,0Z"/>
    <path class="cls-6" d="M553.25,944.42l.15-25.4-47.59-.58-.61,37.19,2.96.22c13.11.89,66.8,3.59,75.61,1.04,9.8-2.86-30.52-12.46-30.52-12.46Z"/>
    <g class="cls-16">
      <path class="cls-2" d="M522.35,955.45c-.65-4.03-2.77-7.67-5.95-10.23-3.12-2.54-7.07-3.82-11.08-3.59l-.17,13.3,17.2.52Z"/>
    </g>
    <g class="cls-16">
      <path class="cls-2" d="M572.93,949.83s14.13,4.33,12.33,6.49c-1.8,2.16-56.14,1.62-80.04-.78v-1.08l63.38,1.36s1.56-5.91,4.33-5.99Z"/>
    </g>
    <path class="cls-11" d="M504.53,954.52h.82l2.34.17,8.65.5c7.29.35,17.31.69,28.56.87,11.25.17,21.27,0,28.58-.11l8.65-.24h3.18c-.27-.03-.55-.03-.82,0h-39.59c-11.16,0-21.24-.45-28.53-.69l-8.65-.3h-2.36l-.82-.19Z"/>
    <path class="cls-11" d="M568.63,956.64c.4-1.43.96-2.81,1.67-4.11.86-1.21,1.87-2.31,3.01-3.27-1.49.51-2.74,1.57-3.48,2.96-.92,1.28-1.34,2.85-1.19,4.41Z"/>
    <path class="cls-11" d="M554.67,949.27c.13,0,.82-.71,1.54-1.8s1.17-2.03,1.04-2.16-.82.71-1.54,1.8-1.17,2.16-1.04,2.16Z"/>
    <path class="cls-11" d="M550.85,947.25c.11.11.87-.37,1.71-1.1.84-.74,1.41-1.41,1.3-1.54s-.87.37-1.69,1.1-1.43,1.38-1.32,1.54Z"/>
    <path class="cls-11" d="M548.47,942.78c.8.29,1.64.41,2.49.35.84.11,1.69.03,2.49-.24-.79-.29-1.63-.41-2.47-.35-.84-.11-1.7-.03-2.51.24Z"/>
    <path class="cls-11" d="M547.69,939.55c1.72.95,3.76,1.13,5.62.5-.93-.17-1.87-.25-2.81-.24-.93-.18-1.87-.27-2.81-.26Z"/>
    <path class="cls-11" d="M556.34,945.2c1.02.19,2.06.19,3.07,0,1.11-.12,2.2-.34,3.27-.67.64-.19,1.26-.44,1.86-.74.36-.22.64-.55.78-.95.1-.46-.07-.95-.45-1.23-2.39-1.2-5.29-.55-6.94,1.56-.49.59-.85,1.29-1.04,2.03-.06.27-.06.55,0,.82.32-.94.8-1.82,1.43-2.6.7-.8,1.62-1.37,2.64-1.67,1.2-.39,2.51-.28,3.63.3.48.37.28.93-.26,1.25-.55.29-1.13.52-1.73.69-1.03.35-2.09.62-3.16.8-1.93.3-3.09.3-3.09.39Z"/>
    <path class="cls-11" d="M557.14,945.37c.38-.65.51-1.42.37-2.16-.1-.77-.37-1.51-.8-2.16-.51-.94-1.47-1.54-2.53-1.6-.64.14-1.06.76-.95,1.41.06.49.23.96.5,1.38.4.68.88,1.3,1.43,1.86.95.95,1.69,1.32,1.73,1.25s-.61-.54-1.43-1.54c-.49-.56-.91-1.18-1.25-1.84-.41-.65-.69-1.82,0-1.95s1.54.69,1.99,1.32c.42.59.71,1.27.84,1.99.09.67.13,1.35.11,2.03Z"/>
    <path class="cls-11" d="M505.65,941.5s1.38-.11,3.53.17c5.72.7,10.52,4.63,12.33,10.1.71,2.03.76,3.42.87,3.4.06-.31.06-.64,0-.95-.07-.87-.24-1.74-.5-2.57-.83-2.8-2.47-5.29-4.72-7.16-2.28-1.83-5.05-2.95-7.96-3.22-.87-.09-1.75-.09-2.62,0-.32.04-.63.12-.93.24Z"/>
    <path class="cls-11" d="M510.85,921.75c-.36,3.25-.54,6.51-.54,9.78-.18,3.26-.18,6.54,0,9.8.37-3.25.55-6.51.54-9.78.18-3.26.18-6.54,0-9.8Z"/>
    <path class="cls-11" d="M528.5,950.89c4.58.94,9.29,1.04,13.91.3,0-.15-3.14,0-6.97-.11s-6.92-.37-6.94-.19Z"/>
    <path class="cls-11" d="M519.17,950.76c-.13.11.24.65.54,1.38s.48,1.34.65,1.34.26-.76-.11-1.58c-.37-.82-1-1.25-1.08-1.15Z"/>
    <path class="cls-11" d="M515.71,946.34c-.13.11.17.61.67,1.1s.97.82,1.08.71-.19-.61-.67-1.1-.93-.84-1.08-.71Z"/>
    <path class="cls-11" d="M510.69,944.27c0,.17.67.17,1.36.43s1.19.63,1.32.52-.26-.78-1.12-1.08-1.6-.02-1.56.13Z"/>
    <path class="cls-11" d="M507.21,943.27c0,.15.22.41.61.56s.76.17.82,0-.22-.39-.61-.56-.82-.13-.82,0Z"/>
    <polygon class="cls-11" points="580.31 480.52 558.65 938.43 499.23 939.83 503.9 542.8 414.97 940.59 364.37 938.3 443.72 481.45 580.31 480.52"/>
    <path class="cls-4" d="M518.48,486.71c0,2.52-.17,5.04-.54,7.53-.5,4.63-1.25,11.01-2.16,18.06-.32,3.35-.87,6.68-1.64,9.95-.69,2.76-2.2,5.24-4.33,7.12-1.43,1.26-3.17,2.12-5.04,2.49-.68.17-1.38.17-2.06,0,5.16-.88,9.27-4.83,10.36-9.95.69-3.24,1.19-6.52,1.51-9.82.93-7.03,1.82-13.41,2.53-18,.24-2.49.7-4.96,1.36-7.38Z"/>
    <path class="cls-4" d="M503.84,489.43c.17.11-.39.87,0,2.06.18.64.63,1.18,1.23,1.47.76.28,1.61.09,2.16-.5.63-.52.88-1.39.61-2.16-.27-.61-.78-1.09-1.41-1.32-1.17-.45-1.95,0-2.06-.11s.63-1.06,2.29-.76c.94.22,1.74.86,2.16,1.73.6,1.67-.26,3.52-1.94,4.13-.78.28-1.63.25-2.39-.08-.88-.47-1.48-1.34-1.6-2.34-.15-1.56.89-2.27.93-2.12Z"/>
    <path class="cls-4" d="M466.11,497.33c-1.87-4.1-1.54-8.87.89-12.68.35.13-.58,2.86-.8,6.3-.22,3.44.28,6.19-.09,6.38Z"/>
    <path class="cls-4" d="M474.59,496.46c-1.83-4.24-1.67-9.08.43-13.2-.02,2.17-.16,4.34-.43,6.49.13,2.23.13,4.47,0,6.71Z"/>
    <path class="cls-4" d="M547.73,495.62c-.13-2.28-.08-4.57.15-6.84-.18-2.28-.18-4.58,0-6.86,1.68,4.42,1.61,9.32-.19,13.69h.04Z"/>
    <path class="cls-4" d="M556.97,494.78c-.35-.13.65-3.14.76-6.97s-.65-6.9-.3-7.01c1.3,2.1,1.84,4.58,1.54,7.03.13,2.47-.57,4.92-1.99,6.94Z"/>
    <path class="cls-12" d="M480.04,295.49l48.07-2.16c.28-5.11-2.34-36.78-2.34-36.78,0,0,18.17-2.81,18.41-20.98.24-18.17-2.94-59.88-2.94-59.88h0c-21.03-9.04-45.3-5.99-63.45,7.96l-2.68,2.16,4.93,109.68Z"/>
    <path class="cls-1" d="M525.82,256.36c-8.43.18-16.71-2.16-23.8-6.73,0,0,5.6,12.98,23.8,11.44v-4.72Z"/>
    <path class="cls-11" d="M537.24,204.22c.02,1.41-1.08,2.57-2.49,2.62-1.37.11-2.57-.91-2.68-2.28,0-.02,0-.04,0-.06-.01-1.4,1.09-2.56,2.49-2.62,1.36-.12,2.55.88,2.68,2.24,0,.03,0,.07,0,.1Z"/>
    <path class="cls-11" d="M537.8,201.3c-.3.35-2.27-1.12-5.06-1.1s-4.85,1.41-5.15,1.06.17-.76,1.06-1.41c1.21-.84,2.66-1.28,4.13-1.28,1.45,0,2.87.45,4.05,1.3.84.67,1.15,1.28.97,1.43Z"/>
    <path class="cls-11" d="M509.89,204.87c.02,1.41-1.08,2.57-2.49,2.62-1.37.11-2.57-.91-2.68-2.28,0-.02,0-.04,0-.06-.01-1.41,1.1-2.57,2.51-2.62,1.36-.11,2.55.9,2.66,2.26,0,.03,0,.05,0,.08Z"/>
    <path class="cls-11" d="M510.37,201.82c-.32.35-2.29-1.12-5.08-1.1s-4.85,1.41-5.15,1.06.17-.76,1.08-1.41c1.21-.84,2.64-1.29,4.11-1.28,1.45,0,2.87.45,4.05,1.3.87.67,1.15,1.28,1,1.43Z"/>
    <path class="cls-11" d="M520.49,222.52c1.48-.45,3-.73,4.54-.82.71,0,1.38-.22,1.51-.69.05-.75-.12-1.5-.48-2.16l-2.16-5.43c-1.95-4.6-3.53-9.34-4.74-14.19,2.33,4.43,4.29,9.03,5.86,13.78l2.03,5.47c.45.86.58,1.85.37,2.79-.21.51-.64.89-1.17,1.04-.39.11-.8.17-1.21.17-1.51.22-3.05.23-4.56.04Z"/>
    <path class="cls-11" d="M512.27,224.56c.45,0,.48,3.01,3.07,5.17s5.82,1.82,5.84,2.16-.74.61-2.16.63c-1.77.03-3.49-.57-4.87-1.69-1.32-1.08-2.17-2.63-2.38-4.33-.04-1.32.3-1.95.5-1.95Z"/>
    <path class="cls-11" d="M511.08,190.87c-.28.76-3.05.41-6.34.8s-5.93,1.3-6.36.61c-.19-.32.26-1.04,1.34-1.77,1.42-.92,3.04-1.48,4.72-1.64,1.67-.21,3.37,0,4.95.58,1.21.5,1.82,1.08,1.69,1.43Z"/>
    <path class="cls-11" d="M536.78,193.21c-.5.65-2.42,0-4.74,0s-4.33.43-4.72-.24c-.19-.32.11-.95.97-1.56,2.35-1.47,5.36-1.38,7.61.24.82.61,1.08,1.25.87,1.56Z"/>
    <path class="cls-6" d="M442.64,359.33l-1.02-74.74,19.47-6.49c6.12-1.17,12.07-3.4,19.28-3.7h0c13.52,10.69,32.54,10.93,46.32.58l.65-.5c1.86.22,4.33.45,7.42.82h.61c7.7.96,15.02,3.88,21.27,8.48h0l96.74,57.76,56.81-43.27,28.77,22.56s-74.42,74.42-81.64,76.19c-5,1.23-54.65-25.96-84.74-42.66,1.23,18.02,7.96,118.18,7.64,131.96h-138.24l-.11-63.17v-17.2l.78-46.64Z"/>
    <path class="cls-11" d="M570.7,311.65c-.16,1.1-.2,2.22-.11,3.33,0,2.4.17,5.43.26,9,.28,7.61.78,18.11,1.41,29.7.63,11.6,1.25,22.09,1.8,29.68.28,3.57.52,6.49.69,8.98.05,1.12.2,2.22.45,3.31.16-1.1.2-2.21.11-3.31,0-2.42-.17-5.43-.28-9.02-.28-7.61-.76-18.11-1.38-29.7-.63-11.6-1.25-22.11-1.8-29.7-.28-3.57-.52-6.49-.71-8.98-.04-1.11-.18-2.21-.43-3.29Z"/>
    <path class="cls-11" d="M694.96,310.66c-.32.35,5.93,6.25,13.91,13.22,7.98,6.97,14.65,12.37,14.91,12.07s-6.01-6.14-14-13.13c-3.98-3.48-7.64-6.49-10.32-8.78-1.39-1.26-2.9-2.39-4.5-3.37Z"/>
    <path class="cls-11" d="M688.37,315.59c-.26.3,6.08,6.23,14.08,13.33,4,3.55,7.68,6.68,10.38,8.91,1.38,1.32,2.92,2.46,4.59,3.4-1.13-1.53-2.45-2.92-3.92-4.13-2.55-2.42-6.12-5.69-10.15-9.24s-7.68-6.68-10.41-8.89c-1.38-1.31-2.92-2.45-4.59-3.37Z"/>
    <path class="cls-11" d="M441.92,382.05c-.32,0-.41-11.9-.22-26.54.19-14.65.61-26.5.93-26.5s.39,11.88.19,26.52-.52,26.52-.91,26.52Z"/>
    <path class="cls-13" d="M461.98,484.95c-.12-.13-.22-.28-.3-.43l-.84-1.34-3.12-5.19c-1.69-2.73-3.22-5.54-4.61-8.44-1.96-3.88-2.64-8.28-1.95-12.57.89-4.76,3.72-9.26,5.8-14.3,1.09-2.59,1.69-5.35,1.8-8.16.05-2.99-.26-5.98-.93-8.89-1.25-6.04-3.61-12.24-4.22-19.1-.47-7.04.16-14.11,1.86-20.96,1.58-7.03,3.53-13.78,4.91-20.38.67-3.23,1.17-6.5,1.51-9.78,0-1.6.22-3.2.28-4.78s0-3.16,0-4.69c-.79-10.96-2.61-21.83-5.43-32.45-2.16-9.15-3.7-16.64-4.33-21.87-.37-2.62-.56-4.65-.65-6.04v-1.58c-.02-.18-.02-.36,0-.54,0,0,0,.19.11.54s.13.93.22,1.56c.13,1.38.41,3.4.84,5.99.82,5.19,2.47,12.61,4.74,21.74,2.95,10.66,4.86,21.58,5.69,32.6v4.76c0,1.6-.15,3.22-.24,4.87-.32,3.27-.84,6.49-1.51,9.91-1.38,6.66-3.33,13.39-4.89,20.38-1.68,6.74-2.3,13.69-1.86,20.62.56,6.68,2.88,12.85,4.13,18.99.68,3,.98,6.08.89,9.15-.11,2.91-.76,5.78-1.9,8.46-2.16,5.15-5,9.54-5.86,14.1-.72,4.13-.12,8.39,1.73,12.16,1.3,2.9,2.74,5.73,4.33,8.48l2.92,5.3.74,1.38c.11.32.17.5.15.5Z"/>
    <path class="cls-13" d="M492.07,282.77c.07.17.12.34.15.52l.35,1.54c.28,1.34.65,3.33,1.08,5.93,1.16,7.31,1.79,14.69,1.88,22.09.15,10.98-.79,21.94-2.83,32.73-2.16,12.18-5.75,25.35-6.92,39.52-1.17,14.17,1,27.71,2.68,39.93,1.79,10.82,2.88,21.75,3.27,32.71.19,7.41-.68,14.81-2.6,21.98l-.48,1.8-.54,1.54-.91,2.4-.56,1.45c-.13.32-.22.5-.22.5-.03-.18-.03-.36,0-.54l.48-1.49.78-2.42c.15-.48.32-.97.5-1.54s.26-1.17.41-1.8c1.72-7.16,2.44-14.52,2.16-21.87-.52-10.88-1.69-21.71-3.53-32.45-1.73-12.22-3.83-25.81-2.77-40.17s4.8-27.5,7.03-39.61c2.08-10.73,3.1-21.63,3.05-32.56-.04-7.37-.55-14.72-1.51-22.02-.35-2.6-.65-4.61-.89-5.95,0-.63-.17-1.15-.22-1.56,0-.23.05-.45.15-.65Z"/>
    <path class="cls-13" d="M542.88,485.04l-.3-.45-.8-1.38c-.45-.75-.82-1.55-1.1-2.38-.17-.48-.41-1-.58-1.58s-.3-1.19-.48-1.84c-.69-3.2-.93-6.49-.69-9.76.33-4.31.9-8.6,1.71-12.85,1-5.1,1.65-10.26,1.93-15.45.09-5.91-.94-11.78-3.05-17.31-2.44-6.18-4.45-12.52-6.01-18.97-1.09-7.1-.95-14.34.41-21.4,1.12-7.25,2.6-14.21,3.01-21.05.29-6.57-.23-13.15-1.54-19.6-2.42-12.37-5.78-23.34-6.92-32.93-1.17-7.52-.94-15.19.69-22.63.6-2.73,1.56-5.36,2.86-7.83-.03.19-.09.37-.17.54l-.56,1.49c-.69,1.92-1.26,3.89-1.69,5.88-1.46,7.4-1.57,15-.32,22.43,1.21,9.48,4.65,20.38,7.14,32.84,1.36,6.53,1.91,13.2,1.62,19.86-.39,6.94-1.88,13.97-3.01,21.16-1.34,6.93-1.48,14.03-.43,21.01,1.53,6.41,3.51,12.71,5.91,18.84,1.02,2.94,1.83,5.95,2.42,9,.52,2.9.72,5.84.58,8.78-.34,5.24-1.06,10.44-2.16,15.58-.85,4.2-1.47,8.45-1.86,12.72-.28,3.22-.11,6.47.5,9.65.66,2.65,1.64,5.2,2.92,7.61Z"/>
    <path class="cls-13" d="M561.16,290.67c.07.16.13.33.17.5l.41,1.45c.39,1.28.8,3.18,1.28,5.67,1.1,7.05,1.38,14.21.84,21.33-.52,9-2.27,19.62-3.89,31.39-1.68,12.77-2.48,25.65-2.4,38.53.51,23.42,2.59,46.78,6.23,69.92,1.32,8.83,2.4,16.01,3.16,21.09.37,2.4.63,4.33.84,5.73,0,.61.13,1.08.19,1.49.02.17.02.35,0,.52-.07-.16-.12-.33-.15-.5,0-.41-.17-.89-.28-1.49-.26-1.38-.61-3.29-1.06-5.69-.87-4.95-2.16-12.14-3.5-21.03-3.85-23.16-6.02-46.57-6.49-70.05-.08-12.94.76-25.86,2.51-38.68,1.69-11.79,3.48-22.35,4.11-31.3.62-7.06.46-14.17-.48-21.2-.39-2.47-.74-4.33-1.06-5.69l-.3-1.47c-.07-.16-.12-.34-.13-.52Z"/>
    <path class="cls-13" d="M594.48,368.01c-.21-.7-.31-1.43-.32-2.16-.13-1.43-.28-3.5-.41-6.08-.28-5.13-.52-12.22-.54-20.08-.02-7.85.13-14.95.37-20.08.13-2.57.24-4.65.37-6.08.01-.73.11-1.46.28-2.16.15.71.2,1.44.15,2.16v26.13c0,7.68.15,14.65.22,20.05v6.08c.05.74.01,1.48-.11,2.21Z"/>
    <path class="cls-13" d="M615.38,319.29c-.29.68-.62,1.34-1,1.97-.86,1.78-1.29,3.74-1.25,5.71,0,2.49.52,5.52.87,8.85.35,3.33,1.15,6.97,1.64,10.82.48,3.67.55,7.37.22,11.05-.23,3.04-.96,6.02-2.16,8.83-.83,1.86-1.9,3.61-3.18,5.19-.91,1.12-1.49,1.67-1.56,1.62,1.53-2.26,2.87-4.64,4-7.12,2.04-6.28,2.56-12.95,1.51-19.47-.48-3.83-1.19-7.49-1.56-10.82-.38-2.99-.59-5.99-.63-9,.03-2.08.61-4.11,1.67-5.91.36-.66.85-1.25,1.43-1.73Z"/>
    <g class="cls-15">
      <path class="cls-2" d="M637.83,334.89c-1.45,1.16-2.61,2.64-3.37,4.33-4.69,7.4-13.97,10.38-20.18,16.55-4.74,4.74-8.52,10.34-8.55,17.05l10.15,4.61,26.39-41.1c-.24-1.88-2.86-2.47-4.43-1.43Z"/>
    </g>
    <path class="cls-3" d="M163.25,846.42s-35.56,7.66-17.11,50.92c18.45,43.27,7.42,55.06-5.32,58.11l97.57-.63,8.65-108.79-83.78.39Z"/>
    <path class="cls-5" d="M234.2,955.41c-6.92.04-13.61-2.47-18.8-7.05-8.03-7.05-17.93-20.25-19.9-43.14-4.13-48.44-32.25-58.78-32.25-58.78l83.74-.37s27.19,0,29.4,42.98c2.31,45.06,64.79,70.93,103.36,65.89l-145.55.45Z"/>
    <path class="cls-7" d="M358.85,771.57s-43.87-5.26-48.74,91.92c-4.87,97.18-78.36,91.9-78.36,91.9h146.5s30.48-6.77,23.39-75.35c-2.96-28.77,48.65-108.4,48.65-108.4l-91.44-.06Z"/>
    <path class="cls-3" d="M334.41,782.56c-4.67,5.6-2.77,14.58,1.32,20.64,4.09,6.06,10.47,10.15,16.96,13.52s13.28,6.23,19.1,10.67c9,6.88,14.99,17.09,18.63,27.82,3.3,10.84,5.52,21.99,6.62,33.27,0,0-4.8-80.63-18.97-103s-34.7-13.61-43.66-2.92Z"/>
    <path class="cls-5" d="M447.33,955.39s-43.27,2.16-49.28-48.05c-6.01-50.21-11.05-132.76-39.2-135.77h88.7c12.48-.03,23.69,7.6,28.25,19.21,3.85,9.91,7.77,24.55,10.19,45.88,5.13,45.06,30.65,119.28,94.6,118.64l-133.26.09Z"/>
    <path class="cls-11" d="M476.45,914.02c0,.3-12.98.56-28.88.56s-28.88-.26-28.88-.56,12.98-.56,28.88-.56,28.88.24,28.88.56Z"/>
    <path class="cls-11" d="M491.18,917.51c-.32-2.82-.48-5.66-.48-8.5l.48.48h-8.5l.56-.56h0v8.33l-.5-.48c2.84,0,5.68.16,8.5.48-2.82.38-5.66.54-8.5.5h-.48v-8.83h0l.56-.56h9v.48c0,2.9-.21,5.8-.65,8.67Z"/>
    <path class="cls-11" d="M489.71,932.65c0,.32-12.98.56-28.86.56s-28.88-.24-28.88-.56,12.98-.56,28.88-.56,28.86.26,28.86.56Z"/>
    <path class="cls-11" d="M504.46,936.16c-.33-2.82-.5-5.66-.5-8.5l.5.48h-8.5l.56-.56h0v8.48l-.48-.5c2.84,0,5.68.17,8.5.5-2.82.36-5.66.52-8.5.48h-.5v-8.89h0c-.52.5.67-.69.56-.56h8.93v.56c0,2.85-.19,5.7-.58,8.52Z"/>
    <path class="cls-11" d="M465.31,867.06c0,.3-12.98.56-28.86.56s-28.88-.26-28.88-.56,12.98-.56,28.88-.56,28.86.26,28.86.56Z"/>
    <path class="cls-11" d="M480.06,870.56c-.33-2.82-.5-5.66-.5-8.5l.5.5h-8.5l.56-.56h0v8.33l-.48-.48c2.84,0,5.68.16,8.5.48-2.82.37-5.66.54-8.5.5h-.5v-8.83h0c-.5.5.69-.69.58-.56h9v.48c-.01,2.9-.24,5.79-.67,8.65Z"/>
    <path class="cls-11" d="M462.15,842.57c0,.3-12.98.56-28.88.56s-28.88-.26-28.88-.56,12.98-.56,28.88-.56,28.88.26,28.88.56Z"/>
    <path class="cls-11" d="M476.92,846.08c-.32-2.83-.47-5.68-.48-8.52l.48.5h-8.5l.56-.56h0v8.35l-.5-.5c2.84,0,5.68.17,8.5.5-2.82.35-5.66.5-8.5.48h-.48v-8.85h0c-.5.52.69-.67.56-.56h9v.48c0,2.91-.21,5.82-.65,8.7Z"/>
    <path class="cls-11" d="M457.95,820.14c0,.3-12.98.56-28.88.56s-28.88-.26-28.88-.56,12.98-.56,28.88-.56,28.88.24,28.88.56Z"/>
    <path class="cls-11" d="M472.6,823.62c-.32-2.82-.48-5.66-.5-8.5l.5.5h-8.5l.56-.56h0v8.33l-.48-.48c2.84,0,5.68.16,8.5.48-2.82.37-5.66.54-8.5.5h-.48v-8.83h0c-.5.5.67-.69.56-.56h9v.65c-.03,2.84-.25,5.67-.67,8.48Z"/>
    <path class="cls-11" d="M452,799.56c0,.3-12.98.56-28.88.56s-28.88-.26-28.88-.56,12.98-.58,28.88-.58,28.88.26,28.88.58Z"/>
    <path class="cls-11" d="M466.74,803.05c-.32-2.82-.48-5.66-.48-8.5l.48.48h-8.5l.56-.56h0v8.44l-.5-.5c2.84.01,5.68.18,8.5.5-2.82.36-5.66.53-8.5.5h-.48v-8.93h0l.56-.56h9v.5c0,2.9-.22,5.79-.65,8.65Z"/>
    <path class="cls-11" d="M441.99,782.3c0,.3-12.98.56-28.88.56s-28.88-.26-28.88-.56,12.98-.56,28.88-.56,28.88.26,28.88.56Z"/>
    <path class="cls-11" d="M456.72,785.78c-.32-2.82-.48-5.66-.48-8.5l.48.5h-8.5l.56-.56h0v8.33l-.5-.48c2.84.01,5.68.17,8.5.48-2.82.38-5.66.54-8.5.5h-.48v-8.85h0l.56-.56h9v.48c0,2.9-.21,5.8-.65,8.67Z"/>
    <path class="cls-6" d="M462.13,826.39c.98-2.08,2.3-3.99,3.89-5.65.5-.56.95-1.12,1.45-1.71l.37-.43.39.37c1.99,1.82,3.29,3.22,3.14,3.42s-1.75-.91-3.83-2.62h.76l-1.41,1.75c-1.31,1.87-2.92,3.51-4.76,4.87Z"/>
    <path class="cls-6" d="M466.58,847.81c.98-2.08,2.3-3.99,3.89-5.65l1.45-1.71.37-.41.39.35c1.99,1.82,3.29,3.22,3.14,3.42s-1.75-.91-3.83-2.6h.76l-1.41,1.75c-1.32,1.86-2.92,3.5-4.76,4.85Z"/>
    <path class="cls-6" d="M479.26,921.14c.98-2.08,2.3-3.99,3.89-5.65.5-.56.95-1.12,1.45-1.71l.37-.43.39.37c1.99,1.82,3.29,3.22,3.14,3.42s-1.75-.91-3.83-2.62h.76l-1.41,1.75c-1.31,1.87-2.92,3.51-4.76,4.87Z"/>
    <path class="cls-6" d="M469.79,872.47c.97-2.09,2.29-4,3.89-5.65l1.45-1.71.37-.43.39.37c1.97,1.82,3.29,3.22,3.14,3.42s-1.75-.91-3.83-2.62h.76l-1.41,1.75c-1.32,1.86-2.93,3.51-4.76,4.87Z"/>
    <path class="cls-11" d="M470.89,890.55c0,.3-12.98.56-28.88.56s-28.88-.26-28.88-.56,12.98-.56,28.88-.56,28.88.24,28.88.56Z"/>
    <path class="cls-11" d="M485.58,894.04c-.32-2.82-.48-5.66-.5-8.5l.5.5h-8.5l.56-.56h0v8.33l-.48-.48c2.84,0,5.68.16,8.5.48-2.82.37-5.66.54-8.5.5h-.48v-8.83h0c-.52.5.67-.69.56-.56h9v.48c-.01,2.9-.24,5.79-.67,8.65Z"/>
    <path class="cls-6" d="M474.13,896.93c.99-2.08,2.3-3.98,3.89-5.65.5-.56.97-1.12,1.45-1.71l.37-.43.39.37c1.99,1.82,3.31,3.22,3.14,3.4s-1.75-.89-3.83-2.6h.76l-1.38,1.75c-1.32,1.87-2.94,3.51-4.78,4.87Z"/>
    <path class="cls-11" d="M230.83,927.11c0-.32,11.73-.56,26.2-.56s26.22.24,26.22.56-11.73.56-26.22.56-26.2-.26-26.2-.56Z"/>
    <path class="cls-11" d="M217.46,923.93c.31,2.56.47,5.14.48,7.72l-.48-.48h7.72c.11-.13-1.08,1.06-.58.56h0v-7.77l.5.5c-2.58,0-5.16-.17-7.72-.5,2.56-.36,5.14-.52,7.72-.48h.48v8.2h0l-.56.56h-8.22v-.48c0-2.63.23-5.26.67-7.85Z"/>
    <path class="cls-6" d="M227.88,921.32c-.86,1.91-2.04,3.65-3.5,5.15l-1.32,1.56-.37.43-.39-.37c-1.8-1.64-2.99-2.94-2.81-3.14s1.6.8,3.5,2.34h-.76l1.25-1.6c2.18-2.57,4.13-4.54,4.39-4.37Z"/>
    <path class="cls-11" d="M220.4,911.73c0-.32,11.75-.56,26.22-.56s26.2.24,26.2.56-11.73.56-26.2.56-26.22-.26-26.22-.56Z"/>
    <path class="cls-11" d="M207.03,908.55c.31,2.56.47,5.14.48,7.72l-.48-.48h7.72l-.56.56h0v-7.7l.5.5c-2.58,0-5.16-.17-7.72-.5,2.56-.36,5.14-.52,7.72-.48h.48v8.2h0l-.56.56h-8.09v-.48c-.05-2.65.13-5.3.52-7.92Z"/>
    <path class="cls-6" d="M217.46,906c-.86,1.91-2.04,3.65-3.5,5.15l-1.32,1.56-.37.43-.39-.37c-1.8-1.64-2.96-2.94-2.81-3.14s1.62.8,3.5,2.34h-.76l1.19-1.64c2.16-2.6,4.33-4.59,4.46-4.33Z"/>
    <path class="cls-11" d="M216.85,894.36c0-.32,11.73-.56,26.2-.56s26.22.24,26.22.56-11.73.56-26.22.56-26.2-.26-26.2-.56Z"/>
    <path class="cls-11" d="M203.48,891.18c.31,2.56.47,5.14.48,7.72l-.48-.48h7.7l-.56.56h0v-7.7l.48.5c-2.58,0-5.15-.17-7.7-.5,2.55-.36,5.13-.52,7.7-.48h.5v8.2h0c.5-.5-.69.69-.58.56h-8.2v-.48c0-2.65.23-5.3.67-7.92Z"/>
    <path class="cls-6" d="M213.89,888.56c-.84,1.92-2.02,3.66-3.48,5.15l-1.32,1.56-.37.43-.39-.37c-1.8-1.64-2.99-2.94-2.81-3.14s1.6.8,3.5,2.34h-.76l1.25-1.6c2.18-2.57,4.13-4.56,4.37-4.37Z"/>
    <path class="cls-11" d="M213,876.6c0-.32,11.73-.58,26.2-.58s26.2.26,26.2.58-11.73.56-26.2.56-26.2-.26-26.2-.56Z"/>
    <path class="cls-11" d="M199.63,873.42c.33,2.56.5,5.14.5,7.72l-.5-.5h7.72l-.56.56h0v-7.66l.5.5c-2.58-.02-5.16-.18-7.72-.5,2.56-.36,5.14-.53,7.72-.5h.48v.5c0,1.17,0,2.38,0,3.63v4.02h0l-.56.56h-8.22v-.48c0-2.64.22-5.27.65-7.87Z"/>
    <path class="cls-6" d="M210.06,870.8c-.85,1.91-2.04,3.65-3.5,5.15l-1.32,1.56-.37.41-.39-.35c-1.8-1.67-2.96-2.94-2.81-3.14s1.62.8,3.5,2.31h-.76l1.28-1.58c2.16-2.6,4.13-4.59,4.37-4.37Z"/>
    <path class="cls-11" d="M203.09,859.06c0-.3,11.73-.56,26.2-.56s26.2.26,26.2.56-11.73.56-26.2.56-26.2-.24-26.2-.56Z"/>
    <path class="cls-11" d="M189.7,855.9c.33,2.55.49,5.13.5,7.7l-.5-.48h7.72l-.56.56h0v-7.68l.48.48c-2.58,0-5.16-.16-7.72-.48,2.56-.38,5.14-.54,7.72-.5h.52v8.18h0c.5-.5-.69.69-.56.58h-8.09v-.5c-.05-2.63.12-5.27.5-7.87Z"/>
    <path class="cls-6" d="M200.13,853.26c-.85,1.91-2.03,3.66-3.5,5.15l-1.32,1.56-.35.43-.41-.37c-1.77-1.64-2.96-2.94-2.79-3.12s1.6.78,3.5,2.31h-.78l1.28-1.6c2.1-2.57,4.13-4.56,4.37-4.37Z"/>
    <path class="cls-11" d="M357.38,771.48h6.99l19.34-.13h66.15c4.7-.58,9.47.32,13.63,2.6,4.34,2.31,8.05,5.65,10.82,9.71,4.36,6.95,7.25,14.71,8.48,22.82,1.54,7.72,2.64,15.14,3.57,22.39,1.93,14.3,3.09,27.28,5.39,37.9,1.84,8.32,4.62,16.39,8.29,24.08,1.3,2.75,2.49,4.8,3.29,6.21.37.63.67,1.15.93,1.56.12.18.21.36.28.56-.15-.15-.28-.32-.39-.5l-1.02-1.51c-1.27-1.98-2.44-4.02-3.5-6.12-3.88-7.73-6.83-15.89-8.78-24.32-2.42-10.82-3.66-23.64-5.62-37.94-.97-7.14-2.16-14.62-3.63-22.3-1.23-7.96-4.06-15.58-8.33-22.41-2.64-3.91-6.19-7.12-10.34-9.37-3.96-2.16-8.5-3.03-12.98-2.49h0l-66.22-.35-19.34-.19-5.19-.11h-1.34l-.45-.09Z"/>
    <path class="cls-11" d="M140.81,955.45c.62-.12,1.24-.29,1.84-.5,1.79-.54,3.48-1.38,5-2.47,2.46-1.77,4.42-4.15,5.69-6.9,1.64-3.79,2.38-7.91,2.16-12.03-.08-5.18-.81-10.33-2.16-15.34-1.79-5.9-3.96-11.68-6.49-17.31-1.25-3.09-2.47-6.32-3.55-9.73-1.17-3.52-2.03-7.14-2.57-10.82-1.29-8.03.24-16.26,4.33-23.3,2.29-3.76,5.6-6.81,9.54-8.78,1.02-.49,2.07-.88,3.16-1.19.54-.13,1.08-.32,1.64-.43l1.71-.22c2.35-.26,4.72.23,6.77,1.41,4.07,2.43,7.6,5.67,10.36,9.52,2.94,3.89,5.54,8.02,7.79,12.35,2.33,4.46,4.33,9.09,5.97,13.85.89,2.44,1.61,4.94,2.16,7.49.48,2.6.69,5.17,1.08,7.77.69,5.26,1.67,10.48,2.92,15.64,1.35,5.29,2.97,10.5,4.85,15.62.83,2.62,1.96,5.13,3.37,7.49,1.5,2.34,3.33,4.45,5.43,6.27,2.13,1.86,4.42,3.51,6.86,4.93,2.43,1.49,4.98,2.77,7.64,3.81,2.68,1.02,5.51,1.58,8.37,1.67,2.83,0,5.82-.32,8.65-.56,5.91-.4,11.73-1.61,17.31-3.59,5.64-2.16,10.97-5.07,15.84-8.65,4.98-3.56,9.31-7.95,12.81-12.98,7.2-10.33,12.52-21.84,15.73-34.01,1.46-5.48,2.57-11.05,3.31-16.68.71-5.58,1.04-11.21,1.51-16.79.76-11.03,2.16-22,4.2-32.86,1.08-5.34,2.44-10.58,3.98-15.68,1.43-5.11,3.21-10.12,5.32-14.99,2.16-4.77,4.95-9.22,8.31-13.24,3.26-4,7.29-7.31,11.85-9.71h0c3.84-2.3,8.22-3.55,12.7-3.61,4.44.02,8.73,1.62,12.09,4.52,3.16,2.88,5.69,6.39,7.42,10.3,1.7,3.75,3.18,7.6,4.43,11.53,4.84,14.68,8.27,29.79,10.25,45.13,2.03,14.47,3.07,28.12,3.98,40.86.91,12.74,2.16,24.4,5.47,34.61,2.63,9.14,7.32,17.54,13.72,24.58,4.83,5.17,10.89,9.04,17.61,11.25,4.18,1.37,8.58,1.96,12.98,1.73,1.49-.13,2.62-.26,3.37-.41l1.15-.15-1.12.24c-1.12.24-2.25.41-3.4.5-4.43.32-8.88-.22-13.11-1.58-6.81-2.18-12.95-6.04-17.87-11.23-6.5-7.06-11.28-15.52-13.97-24.73-3.29-10.19-4.67-21.98-5.62-34.61-.95-12.63-2.01-26.37-4.07-40.8-2.05-15.26-5.53-30.3-10.41-44.91-1.21-3.89-2.66-7.7-4.33-11.42-1.67-3.78-4.11-7.17-7.16-9.95-3.18-2.77-7.25-4.3-11.47-4.33-4.29.08-8.48,1.28-12.16,3.48h0c-4.41,2.33-8.31,5.53-11.44,9.41-3.29,3.94-6.03,8.3-8.13,12.98-2.09,4.82-3.85,9.78-5.26,14.84-1.54,5.11-2.88,10.3-3.96,15.6-2.03,10.81-3.43,21.73-4.2,32.71-.45,5.56-.8,11.18-1.49,16.85-.76,5.67-1.87,11.3-3.33,16.83-3.26,12.29-8.65,23.92-15.92,34.35-3.53,5.14-7.92,9.64-12.98,13.28-4.94,3.64-10.36,6.59-16.1,8.78-5.68,2.01-11.62,3.24-17.63,3.66-2.99.22-5.86.52-8.87.54-2.96-.09-5.89-.67-8.65-1.73-2.72-1.06-5.35-2.38-7.83-3.92-2.48-1.46-4.82-3.16-6.99-5.06-2.18-1.88-4.08-4.06-5.62-6.49-1.45-2.42-2.61-5.01-3.46-7.7-1.9-5.15-3.52-10.4-4.87-15.73-1.24-5.19-2.21-10.45-2.9-15.75-.98-10.11-4.03-19.92-8.98-28.79-2.19-4.29-4.76-8.38-7.66-12.22-2.68-3.76-6.1-6.92-10.06-9.3-3.92-2.4-8.65-1.32-12.5.41-3.78,1.92-6.95,4.86-9.13,8.5-4.02,6.87-5.55,14.91-4.33,22.78.48,3.57,1.27,7.1,2.36,10.54,1.06,3.37,2.16,6.49,3.48,9.69,2.54,5.66,4.71,11.49,6.49,17.44,1.35,5.05,2.08,10.26,2.16,15.49.13,4.19-.69,8.36-2.42,12.18-1.32,2.78-3.34,5.18-5.86,6.94-1.55,1.07-3.27,1.87-5.08,2.38-.65.22-1.33.38-2.01.48Z"/>
    <path class="cls-11" d="M292.72,924.32s-.15,0-.39-.26-.63-.48-1.08-.87c-1.35-1.17-2.63-2.41-3.85-3.72-1.94-2.04-3.74-4.21-5.39-6.49-2.2-3.06-3.99-6.39-5.32-9.91-1.32-4.34-2.31-8.77-2.96-13.26-.76-4.82-1.36-9.99-2.29-15.36-.88-5.62-2.64-11.06-5.19-16.14-1.36-2.65-3.11-5.07-5.19-7.2-.98-1.12-2.16-2.04-3.48-2.7-1.39-.6-2.84-1.04-4.33-1.3-6.05-.88-12.17-1.19-18.28-.93-5.95,0-11.68.39-17.16.43l-29.1.26h-24.94c-.62.02-1.25-.01-1.86-.11.62-.08,1.24-.13,1.86-.13l5.32-.17,19.6-.43,29.07-.5c5.47,0,11.21-.41,17.18-.5,6.19-.27,12.39.04,18.52.93,1.6.26,3.15.73,4.63,1.38.78.34,1.51.78,2.16,1.32.58.52,1.17,1.04,1.71,1.62,2.15,2.21,3.96,4.72,5.36,7.46,2.6,5.18,4.36,10.74,5.24,16.46.91,5.43,1.47,10.6,2.16,15.4.59,4.45,1.52,8.85,2.79,13.15,1.26,3.47,2.97,6.77,5.08,9.8,1.59,2.31,3.33,4.52,5.19,6.62,1.54,1.71,2.79,2.99,3.68,3.83s1.28,1.28,1.25,1.3Z"/>
    <path class="cls-12" d="M747.34,270.29c.11-5.28,3.09-10.09,7.77-12.55.73-.42,1.56-.66,2.4-.67.86,0,1.64.49,1.99,1.28.24.88-.02,1.82-.69,2.44-.68.6-1.4,1.16-2.16,1.67-2.18,1.81-3.21,4.68-2.66,7.46"/>
    <path class="cls-7" d="M706.54,177.5c-20.6,1.56-36.06,19.46-34.61,40.06,1.97,29.2,1.36,68.88-12.59,93.02-24.14,41.8-60.36,49.22-57.59,132.78,2.77,83.57,6.49,92.42-10.21,114.01s-52.91,10.43-68.71,59.64-4.65,295.27-29.72,321.27c0,0-20.42,19.47-41.77,17.63h119.98c10.21.13,20.06-3.75,27.43-10.82,6.15-5.89,9.59-14.05,9.52-22.56,0-16.94,5.56-256.27,14.86-276.71,9.3-20.44,57.57-41.28,64.9-88.41,7.33-47.14,4.8-123.42,4.74-137.13,0-12.98,2.53-38.46,27.5-68.17,37.9-44.89,32.73-93.95,33.57-110.67.84-16.72-6.49-67.06-6.49-67.06l-40.8,3.12Z"/>
    <path class="cls-3" d="M675.28,211.32c1.69-6.15,8.04-9.77,14.19-8.09,2.64.72,4.94,2.36,6.49,4.63,3.57,5.19,2.75,12.98,7.55,17.09,3.05,2.62,7.46,2.79,11.49,2.73,12.67-.26,25.27-1.82,37.62-4.67l-2.77-39.55s-60.03-5.28-67.34,4.59c-7.31,9.86-7.23,23.28-7.23,23.28Z"/>
    <path class="cls-5" d="M672.42,231.59c0-8.91,2.01-16.77,4.11-25.42,2.53-10.47,9.82-18.11,18.67-19.47,11.18-1.6,22.22,14.54,22.22,14.54,0,0,43.48-6.32,64.16-7.85-1.51-5.39-12.37-19.28-20.18-20.96-7.85-1.38-15.84-1.81-23.8-1.28-14.28.39-29.05.89-41.95,7.03-12.89,6.14-26.18,15.14-23.04,48.33"/>
    <path class="cls-11" d="M757.03,173.48c-.71.17-1.43.26-2.16.26l-5.91.45c-4.98.37-11.85.89-19.47,1.69s-14.41,1.77-19.32,2.64l-5.8,1.06c-.71.17-1.43.28-2.16.32.7-.26,1.43-.46,2.16-.58,1.36-.35,3.33-.78,5.78-1.28,4.91-.97,11.75-2.16,19.32-2.83,7.57-.67,14.47-1.23,19.47-1.49l5.91-.24c.73-.06,1.46-.06,2.18,0Z"/>
    <path class="cls-11" d="M622.32,648.44c0,.32-18.41,3.31-41.1,6.68-22.69,3.37-41.32,5.86-41.36,5.56s18.39-3.29,41.1-6.68c22.71-3.4,41.32-5.86,41.36-5.56Z"/>
    <path class="cls-11" d="M626.67,639.44c0,.3-16.94.67-37.84.8s-37.86,0-37.86-.35,16.94-.67,37.84-.8c20.9-.13,37.86.02,37.86.35Z"/>
    <path class="cls-11" d="M456.72,956.21l2.16-.28c2.03-.27,4.04-.68,6.01-1.23,7.56-2.23,14.67-5.78,21.01-10.47,2.21-1.56,4.33-3.25,6.36-5.04,2.13-2.05,3.78-4.56,4.8-7.33,2.39-6.3,4.13-12.82,5.19-19.47,2.67-16.31,4.49-32.74,5.45-49.24,2.53-36.65,3.57-80.39,5.08-128.93.8-24.29,1.6-49.76,3.63-76.17.52-6.49,1.15-13.22,2.01-19.9.75-6.77,2.02-13.46,3.81-20.03,1.08-3.27,2.34-6.49,3.57-9.71l2.31-4.65,1.17-2.34c.43-.74.93-1.47,1.41-2.16,3.63-6.05,8.43-11.32,14.13-15.49,5.72-4.06,11.95-7.36,18.52-9.82,6.45-2.3,12.7-5.12,18.69-8.44l2.16-1.34c.67-.5,1.3-1.06,1.95-1.58l1.95-1.58,1.69-1.86c.54-.61,1.12-1.21,1.67-1.84l1.49-2.03c1.04-1.32,1.95-2.73,2.86-4.13,1.8-2.77,3.31-5.72,4.52-8.8,1.11-3.09,1.92-6.28,2.42-9.52.88-6.45,1.25-12.96,1.1-19.47,0-6.49-.24-12.98-.45-19.25-.5-12.71-.99-25.13-1.45-37.27-.17-6.08-.54-12.05-.48-18v-8.83c0-2.92.3-5.82.43-8.65.15-5.78,1.17-11.4,1.84-16.96.96-5.43,2.26-10.79,3.89-16.05,3.09-10.02,7.71-19.51,13.69-28.12,5.63-7.81,11.68-15.3,18.13-22.46,5.76-6.55,11.1-13.46,15.99-20.68l3.24-5.17c1.08-1.69,1.9-3.48,2.83-5.19,1.61-3.4,3.01-6.9,4.18-10.47,3.63-11.95,5.81-24.3,6.49-36.78.69-10.25.67-18.24.63-23.62,0-2.68,0-4.74-.11-6.17s0-2.16,0-2.16c0,0,.24,2.83.37,8.24s.19,13.41-.43,23.67c-.63,12.47-2.76,24.82-6.36,36.78-1.16,3.61-2.55,7.14-4.15,10.58-.93,1.71-1.75,3.55-2.86,5.24s-2.16,3.44-3.22,5.21c-4.88,7.27-10.22,14.22-15.99,20.81-6.47,7.16-12.54,14.66-18.19,22.48-5.91,8.55-10.47,17.95-13.52,27.89-1.59,5.23-2.85,10.56-3.79,15.94-.67,5.52-1.64,11.1-1.8,16.85-.13,2.86-.39,5.73-.43,8.65s0,5.84,0,8.8c0,5.88.32,11.9.5,17.96.48,12.14.97,24.58,1.49,37.3.22,6.34.45,12.76.45,19.28.17,6.58-.2,13.17-1.1,19.69-.5,3.32-1.33,6.58-2.47,9.73-1.23,3.16-2.78,6.18-4.63,9.02-.91,1.43-1.84,2.86-2.88,4.2l-1.51,2.03c-.56.67-1.17,1.28-1.73,1.93l-1.75,1.93-1.99,1.64c-.67.52-1.32,1.1-2.03,1.6l-2.16,1.38c-6.03,3.36-12.34,6.21-18.84,8.52-6.49,2.43-12.63,5.68-18.28,9.69-5.58,4.08-10.28,9.22-13.85,15.14-.45.71-.95,1.43-1.38,2.16l-1.15,2.29-2.16,4.59c-1.21,3.2-2.47,6.38-3.53,9.58-1.76,6.51-3.03,13.14-3.79,19.84-.87,6.66-1.49,13.28-2.03,19.88-2.03,26.33-2.86,51.81-3.68,76.08-1.58,48.54-2.68,92.31-5.32,128.98-1,16.56-2.88,33.05-5.62,49.41-1.1,6.71-2.89,13.3-5.34,19.64-1.04,2.85-2.74,5.43-4.95,7.51-2.07,1.79-4.24,3.47-6.49,5.02-6.39,4.69-13.57,8.19-21.2,10.34-1.99.54-4.01.91-6.06,1.12l-2.12.09Z"/>
    <path class="cls-11" d="M672.55,227.41l-.19-2.73c0-1.84-.28-4.5-.5-8.03-.07-1.98,0-3.96.22-5.93.24-2.16.82-4.5,1.32-7.03,1.25-5.88,4.03-11.33,8.07-15.79,5.41-5.23,11.89-9.22,18.99-11.7,8.4-3.01,17.17-4.86,26.07-5.49,4.78-.41,9.73-.63,14.86-.71,5.31-.22,10.62.34,15.77,1.64,2.69.71,5.31,1.66,7.83,2.83,2.56,1.28,4.95,2.88,7.12,4.76,2.27,1.87,4.33,3.98,6.14,6.3.93,1.18,1.75,2.45,2.44,3.79.78,1.36,1.24,2.89,1.34,4.46v.37h-.39c-9.71.84-20.12,2.99-31.02,4.33l.39-.48c1.28,10.56,2.57,21.63,3.27,32.95.15,2.83.26,5.73.22,8.65s-.22,5.8-.22,8.65c0,5.88,0,11.85-.45,17.91-.67,12.46-2.76,24.8-6.23,36.78-3.76,12.56-9.28,24.53-16.4,35.54-7.18,11.36-17.09,20.94-23.8,33.06-7.25,12.05-11.83,25.51-13.43,39.48-.52,7.2-.61,14.42-.26,21.63.09,7.21.17,14.52.26,21.94.11,14.71,0,29.62-.5,44.67-.61,17.31-1.51,34.61-3.72,51.36-.87,8.41-2.87,16.66-5.97,24.53-3.28,7.65-7.55,14.83-12.7,21.37-10.15,12.98-22.76,23.3-34.31,33.92l-4.09,4.18c-1.32,1.43-2.66,2.83-3.94,4.33l-1.75,2.29c-.62.72-1.16,1.52-1.6,2.36l-1.41,2.49c-.36.86-.68,1.74-.95,2.64-1.59,7.42-2.71,14.94-3.35,22.5-2.88,29.94-4.22,58.54-5.52,85.28-1.3,26.74-2.16,51.66-2.94,74.42-.78,22.76-1.36,43.27-1.84,61.42-.2,9.04-.39,17.44-.56,25.18.1,3.72-.1,7.45-.61,11.14-.59,3.34-1.74,6.55-3.42,9.5-2.85,4.93-6.86,9.1-11.68,12.14-3.52,2.21-7.38,3.84-11.42,4.82-2.47.62-5,.99-7.55,1.12h-2.6.65c.43,0,1.08,0,1.95-.11,6.67-.43,13.13-2.53,18.78-6.1,4.75-3.03,8.69-7.18,11.49-12.07,1.63-2.91,2.76-6.08,3.33-9.37.48-3.66.66-7.36.54-11.05.15-7.74.3-16.16.48-25.2.41-18.09.95-38.68,1.67-61.44s1.6-47.59,2.79-74.42c1.19-26.83,2.57-55.34,5.43-85.34.59-7.64,1.67-15.23,3.22-22.74.32-.93.58-1.93,1-2.81l1.47-2.57c.46-.87,1.01-1.69,1.64-2.44l1.8-2.34c1.3-1.49,2.64-2.92,3.98-4.33l4.33-4.11c11.6-10.69,24.14-20.9,34.18-33.81,5.08-6.46,9.3-13.56,12.55-21.11,3.04-7.78,5.01-15.94,5.88-24.25,2.16-16.77,3.09-33.92,3.7-51.27.5-15.03.61-29.92.5-44.63-.09-7.36-.17-14.66-.26-21.91-.34-7.21-.24-14.43.28-21.63,1.62-14.13,6.26-27.74,13.61-39.91,6.77-12.24,16.74-21.89,23.8-33.1,7.1-10.92,12.6-22.79,16.33-35.26,3.46-11.91,5.55-24.18,6.23-36.56.35-6.04.43-12.01.48-17.89,0-2.92.13-5.91.22-8.65.09-2.75,0-5.75-.19-8.65-.67-11.36-1.95-22.35-3.2-32.9v-.43h.43c10.82-1.34,21.27-3.46,31.09-4.33l-.39.41c-.43-2.88-1.67-5.58-3.59-7.77-1.79-2.26-3.8-4.34-6.01-6.19-2.12-1.83-4.45-3.4-6.94-4.67-2.48-1.15-5.06-2.09-7.7-2.81-5.09-1.29-10.33-1.84-15.58-1.64-5.11,0-10.04.26-14.8.67-8.86.58-17.6,2.39-25.96,5.37-7.04,2.42-13.48,6.34-18.86,11.49-4.01,4.39-6.79,9.77-8.07,15.58-.5,2.51-1.12,4.82-1.34,6.99-.26,1.95-.35,3.92-.28,5.88.17,3.5.3,6.19.39,8s0,2.64,0,2.64Z"/>
    <path class="cls-11" d="M781.63,193.77c-.39.14-.8.23-1.21.26l-3.55.52-12.98,1.71-42.94,5.24-3.44.41h-.35l-.17-.28c-2.08-3.27-4.51-6.32-7.23-9.09-2.47-2.55-5.61-4.35-9.06-5.19-3.13-.63-6.37-.43-9.41.56-2.65.86-5.05,2.35-7.01,4.33-2.81,2.96-5.02,6.44-6.49,10.25-.5,1.34-.87,2.4-1.08,3.14-.1.37-.23.73-.37,1.08-.01-.39.04-.78.15-1.15.24-1.09.55-2.17.91-3.22,1.31-3.94,3.43-7.57,6.23-10.64,2.02-2.11,4.51-3.71,7.27-4.67,3.19-1.1,6.62-1.34,9.93-.69,3.66.84,6.99,2.72,9.61,5.41,2.79,2.8,5.27,5.9,7.4,9.24l-.54-.24,3.44-.41,42.98-4.91,12.98-1.36,3.55-.32c.46-.04.93-.03,1.38.04Z"/>
    <path class="cls-12" d="M753.83,274.14c-.04,1.1-.74,2.08-1.77,2.47l-12.98,4.91c-1.99.76-4.65,1.32-5.88-.41-.75-1.3-.53-2.94.52-4,1.05-.99,2.31-1.73,3.68-2.16,5-2.16,10.47-4.2,15.53-6.3.37-.16.81.02.96.4.04.11.06.22.05.34l-.11,4.76Z"/>
    <path class="cls-12" d="M754.33,278.49c.59,2.66-.85,5.36-3.4,6.34l-12.05,4.63c-1.99.76-4.65,1.32-5.88-.39-.75-1.3-.53-2.94.52-4,1.05-.99,2.3-1.73,3.68-2.16,4.78-1.99,9.99-4,14.84-5.99.8-.34,1.73.03,2.07.83.04.09.07.19.09.29l.13.45Z"/>
    <path class="cls-12" d="M752.16,284.96c.94,3.91-1.18,7.9-4.93,9.32l-10.04,3.83c-1.99.76-4.65,1.32-5.88-.41-.73-1.3-.52-2.93.52-4,1.06-.98,2.32-1.72,3.7-2.16,5.34-2.16,11.25-4.5,16.57-6.73l.06.15Z"/>
    <path class="cls-11" d="M699.14,387.56c0,.3-15.81,6.17-35.54,13.11-19.73,6.94-35.82,12.35-35.93,12.05s15.81-6.17,35.54-13.11c19.73-6.94,35.82-12.35,35.93-12.05Z"/>
    <path class="cls-11" d="M690.59,396.22c-1.79,1.54-3.72,2.91-5.75,4.11-3.63,2.4-8.65,5.6-14.47,9-5.82,3.4-10.99,6.34-14.84,8.37-2.02,1.22-4.15,2.25-6.36,3.07,1.9-1.4,3.89-2.65,5.97-3.76l14.67-8.65,14.62-8.65c1.96-1.31,4.03-2.48,6.17-3.48Z"/>
    <path class="cls-11" d="M541.49,149.7c-7.31-1.36-14.12,5.73-21.59,5.12-4.55-.36-8.31-3.5-12.51-5.23-3.29-1.33-6.84-1.88-10.39-1.63-3.54.25-6.98,1.31-10.04,3.09-5.7,3.59-9.14,7.33-9.3,14.05-5.85-2.51-14.27,5.3-16.64,12.21-2.38,6.92-.82,13.61,1.83,20.47,4.43,11.81,11.17,22.65,19.84,31.92.77.83,1.94,1.69,2.91,1.11.3-.25.53-.57.68-.93.14-.36.2-.75.17-1.13.33-6.56-1.26-13.02-2.56-19.47-1.3-6.45-2.34-13.09-.95-19.52,1.39-6.43,5.66-12.57,12.04-14.57,4.82-1.21,9.92-.71,14.39,1.42,4.55,1.88,8.66,4.63,13.03,6.86,4.27,2.47,9.16,3.75,14.12,3.68,4.92-.32,9.9-3.18,11.49-7.76,1.59-4.58-1.44-10.52-6.36-10.99,2.19-.45,4.16-1.64,5.56-3.35s2.16-3.85,2.15-6.06-.81-4.33-2.24-6.02c-1.43-1.69-3.41-2.85-5.61-3.27h0Z"/>
    <path class="cls-11" d="M534.33,166.59c-2.34-3.29-5.48-5.96-9.14-7.76-7.73-4.26-16.63-6.01-25.43-4.99-8.83,1.07-16.88,5.47-22.47,12.26-4.25,5.57-6.75,12.25-7.18,19.2-.61,7.59.19,15.23,2.36,22.54.97,2.87,2.83,3.7,5.26,5.57,1.52,1.17,3.93,1.79,5.26.36.69-.89,1.07-1.98,1.06-3.11,1-10.06,1.83-20.83-3.14-29.65,1.86-3.57,4.45-6.71,7.62-9.23,1.58-1.26,3.41-2.19,5.36-2.75,1.96-.56,4-.73,6.02-.5,5.97.9,10.28,5.84,15.4,8.98,3.69,2.21,7.87,3.52,12.18,3.83,4.31.31,8.64-.38,12.62-2.04l-5.77-12.72h0Z"/>
    <path class="cls-3" d="M461.22,193.47c0-.14,1.39-.18,3.53-.63,5.61-1.2,10.57-4.4,13.92-8.98,1.26-1.79,1.83-2.98,1.97-2.93-.28,1.17-.79,2.27-1.5,3.25-1.58,2.44-3.67,4.53-6.14,6.13-2.46,1.6-5.24,2.66-8.15,3.13-1.2.25-2.43.26-3.63.04h0Z"/>
    <path class="cls-3" d="M462.71,197.05c0-.14,1.37-.18,3.51-.63,5.61-1.19,10.58-4.39,13.92-8.98,1.28-1.79,1.83-2.98,1.97-2.93-.27,1.17-.78,2.28-1.5,3.25-1.58,2.44-3.67,4.53-6.14,6.13-2.46,1.6-5.24,2.66-8.15,3.13-1.19.24-2.42.25-3.62.04h0Z"/>
    <path class="cls-12" d="M477.34,204.61c-.3-.13-12.48-3.7-12.07,8.65.41,12.35,12.79,9.48,12.79,9.11s-.71-17.76-.71-17.76Z"/>
    <path class="cls-1" d="M474.11,217.85s-.22.17-.58.35c-.51.2-1.09.2-1.6,0-1.68-.98-2.69-2.8-2.64-4.74-.07-1.06.11-2.13.52-3.12.21-.79.79-1.42,1.56-1.71.51-.15,1.06.09,1.3.56.17.35.11.58.17.61s.26-.22.15-.74c-.09-.3-.27-.57-.52-.76-.35-.25-.79-.35-1.21-.28-1.02.26-1.83,1.02-2.16,2.01-.5,1.09-.72,2.29-.65,3.48-.05,2.26,1.26,4.33,3.33,5.26.68.17,1.4.03,1.97-.39.35-.32.41-.52.37-.54Z"/>
  </g>
  <g id="freepik--speech-bubble--inject-2">
    <path class="cls-11" d="M357.21,130.76c.02.24.02.48,0,.71v1.95c0,1.8,0,4.33.11,7.27,0,6.3.15,15.14.26,25.55l-.5-.48h35.48c.13,0-1.06,1.06-.54.56h0v-35.56l.5.5-25.57-.26-7.27-.13h-2.66c.82-.05,1.64-.05,2.47,0l7.14-.13,25.96-.24h.48v35.65h0c.5-.5-.69.69-.58.56h-35.95v-.56c.11-10.6.19-19.47.24-25.96,0-2.99,0-5.37.13-7.16s.3-2.31.32-2.27Z"/>
    <path class="cls-6" d="M400.11,122.88c.71.58-6.81,10.95-16.81,23.1-2.16,2.55-4.11,4.98-5.99,7.18l-1.1,1.25-1.19-1.06c-8.31-7.49-13.93-13.17-13.46-13.74s6.94,4.18,15.55,11.31l-2.27.19c1.77-2.27,3.76-4.74,5.86-7.29,9.99-12.2,18.67-21.61,19.4-20.96Z"/>
    <path class="cls-4" d="M378.65,96.92h-5.3l-2.29.32-2.68.39-2.99.74c-5.14,1.3-10.03,3.43-14.47,6.32-13.34,8.48-22.01,22.66-23.47,38.4-.2,2.33-.25,4.67-.15,7.01,0,1.19,0,2.38.24,3.57.24,1.19.37,2.4.54,3.61.91,4.97,2.55,9.77,4.87,14.26,2.47,4.7,5.6,9.01,9.3,12.81,3.95,3.88,8.48,7.12,13.41,9.63,5.11,2.63,10.65,4.33,16.35,5.02,1.43.22,2.88.34,4.33.37,1.44.08,2.89.08,4.33,0,2.97-.13,5.92-.5,8.83-1.12,6.26-1.35,12.22-3.85,17.57-7.38h-.52l17.89,7.18,1.06.43-.3-1.1c-1.8-6.49-3.57-12.98-5.26-19.15v.48c4.78-6.39,8.01-13.82,9.41-21.68.69-3.69.92-7.44.69-11.18-.02-1.81-.19-3.61-.5-5.39-.13-.89-.28-1.75-.41-2.62s-.41-1.71-.63-2.53c-2.99-11.77-10.07-22.09-19.97-29.12-3.65-2.62-7.65-4.74-11.88-6.27l-2.68-.95-2.55-.65-2.31-.58-2.16-.32c-1.36-.17-2.55-.39-3.59-.45h-4.78c.18.02.36.02.54,0l1.6.13,2.62.17c1.04,0,2.16.35,3.55.54,19.85,3.41,35.81,18.22,40.71,37.75.19.82.45,1.64.61,2.49s.24,1.71.37,2.57c.3,1.74.46,3.51.48,5.28.21,3.68-.03,7.37-.71,10.99-1.43,7.77-4.66,15.1-9.43,21.4l-.15.22v.26l5.24,19.15.76-.67-17.74-7.27-.28-.13-.26.17c-7.68,5.08-16.61,7.96-25.81,8.31-1.44.08-2.89.08-4.33,0-1.45-.02-2.89-.14-4.33-.37-5.58-.67-10.99-2.32-15.99-4.89-4.84-2.43-9.27-5.6-13.13-9.39-3.64-3.71-6.72-7.93-9.15-12.53-2.27-4.38-3.89-9.08-4.8-13.93-.19-1.19-.37-2.38-.56-3.55s-.15-2.34-.24-3.5c-.11-2.29-.07-4.59.11-6.88,1.38-15.49,9.81-29.49,22.87-37.94,4.37-2.91,9.19-5.1,14.26-6.49l2.94-.78,2.64-.43,2.27-.39,1.9-.13,2.6-.19c.32.04.63.05.95.02Z"/>
  </g>
  <g>
    <path class="cls-14" d="M520,398.66h4.93s17.25,0,17.25,0h4.93,0s.03,0,.05,0c.47,0,.84.38.84.84s-.38.84-.84.84c-.07,0-.12-.02-.18-.04l-3,35.48h-1.79s-17.25,0-17.25,0h-1.79s-3-35.47-3-35.47c-.05,0-.09.03-.14.03-.47,0-.84-.38-.84-.84s.38-.84.84-.84Z"/>
    <g>
      <polygon class="cls-9" points="521.3 413.91 545.86 413.91 546.42 407.3 520.74 407.3 521.3 413.91"/>
      <polygon class="cls-6" points="522.41 427.13 544.71 427.13 545.28 420.52 521.86 420.52 522.41 427.13"/>
    </g>
    <g>
      <path class="cls-6" d="M528.19,415.93c-.65,0-1.31.01-1.96.02-.06,0-.06,0-.06.06,0,.57,0,1.14.01,1.71,0,0,0,0,0,0,0,.09.03.12.11.12.14,0,.28,0,.42,0,.02,0,.04,0,.05,0,.03,0,.03,0,.02-.03-.01-.04-.03-.08-.03-.12-.02-.11-.04-.23-.03-.34,0-.08.02-.17.05-.25.12-.41.38-.67.78-.79.18-.06.37-.06.56-.02.4.09.67.34.82.72.07.19.09.38.06.58,0,.07-.02.13-.04.19,0,.02,0,.03.02.04.01,0,.03,0,.04,0,.36,0,.73,0,1.09,0,.08,0,.12-.05.12-.12,0-.58,0-1.15-.01-1.73,0-.05,0-.05-.05-.05-.52,0-1.05,0-1.57.01-.13,0-.26,0-.4,0h0Z"/>
      <path class="cls-6" d="M540.97,416.74c0,.51,0,1.03.01,1.54,0,.05,0,.05-.05.05-.2,0-.41,0-.61,0-.18,0-.36-.03-.53-.09-.23-.09-.43-.22-.6-.4-.18-.19-.31-.41-.38-.67-.07-.27-.07-.54-.01-.82.05-.21.14-.41.28-.58.19-.24.42-.43.7-.54.07-.03.15-.05.22-.06.07-.01.15-.03.22-.03.16,0,.32,0,.48,0,.07,0,.14,0,.21,0,.04,0,.04,0,.04.04,0,0,0,.02,0,.02,0,.51,0,1.02.01,1.53h0ZM540.34,416.74c0-.3,0-.6,0-.9,0-.07,0-.06-.06-.06-.26.02-.47.13-.64.33-.1.12-.17.25-.21.4-.04.16-.04.32,0,.47.09.31.28.52.57.64.09.04.19.06.3.06.05,0,.05,0,.05-.05,0-.3,0-.61,0-.91h0Z"/>
      <path class="cls-6" d="M532.91,418.39c-.41-.85-.82-1.69-1.22-2.54.02-.01.04,0,.06,0,.36,0,.72,0,1.08,0,.01,0,.03,0,.04,0,.02,0,.03,0,.03-.03,0-.03,0-.06,0-.09,0-.16,0-.31,0-.47,0-.05,0-.05-.05-.05-.51,0-1.02,0-1.53.01-.19,0-.39,0-.58,0-.01,0-.03,0-.04,0,.41.84.81,1.68,1.22,2.53-.02,0-.04,0-.06,0-.36,0-.71,0-1.07,0,0,0-.02,0-.03,0-.05,0-.05,0-.05.05,0,.14,0,.28,0,.42,0,.05,0,.09,0,.14,0,.04,0,.04.04.04,0,0,.01,0,.02,0l2.15-.02h0Z"/>
      <path class="cls-10" d="M528.2,415.76c-.65,0-1.3.01-1.95.02-.01,0-.03,0-.04,0-.02,0-.03,0-.03-.03,0-.13,0-.26,0-.4,0-.05.04-.09.09-.09,0,0,.02,0,.03,0,1.27,0,2.53-.02,3.8-.03.08,0,.12.05.12.12,0,.11,0,.22,0,.34,0,.07,0,.06-.06.06-.65,0-1.31.01-1.96.02h0ZM527.43,415.5c0-.07-.04-.1-.1-.11-.06,0-.11.05-.11.11,0,.06.05.1.11.11.06,0,.11-.05.11-.11h0ZM526.94,415.62c.05,0,.1-.05.1-.11,0-.06-.05-.11-.1-.11-.03,0-.06,0-.08.03-.02.02-.03.05-.03.08,0,.06.05.11.11.11h0ZM526.57,415.62s.09-.05.1-.11c0-.06-.05-.11-.1-.11-.03,0-.06,0-.08.03-.02.02-.02.06-.03.08,0,.06.05.11.12.11Z"/>
      <path class="cls-6" d="M535.94,418.37c-.49-1.06-.97-2.12-1.46-3.17-.02,0-.02.01-.02.02-.1.22-.2.45-.3.67,0,.02,0,.04,0,.06.16.37.31.74.48,1.11.19.41.38.83.57,1.24.03.05.07.08.13.08h.59s0,0,0,0Z"/>
      <path class="cls-6" d="M538.96,418.34c-.49-1.06-.97-2.11-1.45-3.17-.02,0-.03.02-.03.04-.1.22-.19.43-.29.65-.01.02,0,.04,0,.07.09.22.19.44.28.66.19.44.4.88.6,1.31.06.14.13.27.19.41.01.03.02.04.05.04.2,0,.41,0,.61,0,0,0,.02,0,.03,0h0Z"/>
      <path class="cls-8" d="M527.85,416.44c.16,0,.29.02.41.08.15.07.27.16.37.29.1.13.17.28.19.45.02.2.01.38-.07.57-.02.04-.02.04.02.07.35.25.7.51,1.05.76.1.08.21.15.31.23.08.06.11.17.08.25-.07.18-.27.19-.37.1-.06-.05-.11-.09-.17-.14-.37-.31-.74-.61-1.11-.92t-.07,0c-.13.11-.28.18-.46.21-.14.02-.28.02-.42-.02-.19-.05-.34-.15-.47-.3-.17-.19-.24-.42-.24-.67,0-.26.1-.48.28-.67.11-.12.24-.2.4-.24.09-.03.19-.05.26-.04h0ZM527.1,417.43c0,.44.36.79.79.78.45,0,.78-.37.77-.81-.01-.43-.36-.77-.79-.77-.43.01-.77.35-.77.8Z"/>
      <path class="cls-6" d="M533.06,418.39h.13c.17,0,.34,0,.51,0,.03,0,.05,0,.06-.04.06-.13.12-.26.17-.39.02-.04.04-.05.08-.05.15,0,.3,0,.44,0,.02,0,.03,0,.05,0-.2-.47-.4-.94-.59-1.41-.01,0-.02,0-.02.01-.28.63-.55,1.26-.83,1.9Z"/>
      <path class="cls-10" d="M536.95,416.46s-.03.02-.03.04c-.03.06-.06.13-.08.19-.02.05-.04.1-.07.15-.02.06-.05.11-.07.16-.02.06-.05.11-.07.16-.02.05-.04.1-.06.15-.03.06-.05.12-.08.18-.03.05-.04.11-.07.16-.03.05-.05.11-.07.16-.02.05-.04.1-.07.15-.03.06-.05.12-.08.18-.02.05-.04.11-.07.16,0,.02-.02.03-.02.05.01,0,.03,0,.04,0,.2,0,.39,0,.59,0,.03,0,.05,0,.06-.04.03-.07.06-.14.09-.21.03-.07.07-.14.1-.22,0-.01.01-.01.02-.01.01,0,.02,0,.03,0,.15,0,.3,0,.44,0,.02,0,.03,0,.05,0,0-.03-.01-.05-.02-.08-.05-.11-.1-.23-.14-.34-.04-.1-.09-.21-.13-.31-.05-.11-.09-.22-.14-.33-.05-.1-.09-.21-.13-.31,0-.02,0-.04-.02-.05h0Z"/>
      <path class="cls-6" d="M528.36,417.8c.02-.07-.02-.12-.07-.17-.04-.03-.07-.07-.1-.1-.02-.02-.03-.03-.06-.02-.04,0-.09,0-.13,0-.02,0-.03,0-.03.03,0,0,0,0,0,0,0,.05,0,.11,0,.15.01.04.06.07.1.11.02.02.05.05.07.07.01.01.03.02.05.02.05,0,.09,0,.14,0,.02,0,.03-.01.03-.03,0-.02,0-.05,0-.07h0Z"/>
      <path class="cls-10" d="M527.52,417.9c.05.02.1-.02.14-.06.03-.04.07-.07.11-.11.01-.01.02-.03.02-.05,0-.05,0-.1,0-.14,0-.02,0-.03-.03-.03-.05,0-.09,0-.14,0-.02,0-.03,0-.04.02-.05.05-.1.11-.15.16-.01.01-.02.03-.02.04,0,.05,0,.1,0,.14,0,.02,0,.03.03.03.03,0,.05,0,.09,0Z"/>
      <path class="cls-10" d="M528.25,416.92c-.06-.02-.11.02-.16.07-.03.04-.07.07-.1.1-.01.01-.02.02-.02.04,0,.05,0,.1,0,.15,0,.02,0,.03.03.03.05,0,.1,0,.15,0,.01,0,.02,0,.03-.02.05-.05.1-.11.16-.16.01-.01.02-.02.02-.04,0-.05,0-.1,0-.15,0-.02,0-.03-.02-.03-.02,0-.05,0-.08,0Z"/>
      <path class="cls-6" d="M527.68,417.32s.05,0,.07,0c.02,0,.03,0,.03-.03,0-.05,0-.1,0-.15,0-.02,0-.03-.02-.04-.05-.05-.1-.1-.16-.16-.01-.01-.02-.02-.04-.02-.05,0-.1,0-.15,0-.02,0-.03,0-.03.03,0,.05,0,.1,0,.15,0,.02.01.03.02.04.05.05.1.1.15.15.02.02.03.02.06.02.02,0,.04,0,.06,0h0Z"/>
      <path class="cls-6" d="M540.72,419.08s-.06-.05-.08-.08c-.02-.04-.03-.08-.03-.13,0-.05,0-.09.03-.13.02-.04.04-.06.07-.08.03-.02.07-.03.12-.03h.15s0,.47,0,.47h-.15s-.09,0-.12-.03ZM540.93,418.69h-.09s-.07,0-.09.02c-.02.02-.04.04-.06.06-.01.03-.02.06-.02.1,0,.04,0,.07.02.1s.03.05.06.06c.03.01.06.02.1.02h.09s0-.37,0-.37ZM540.37,419.11s-.03-.01-.03-.02c0,0-.01-.02-.02-.02h0v.05s-.05,0-.05,0v-.23s0-.05.01-.07c0-.02.02-.03.03-.04.01,0,.03-.01.04-.02.01,0,.03,0,.04,0,.02,0,.04,0,.05,0,.02,0,.04.01.05.03.02.01.03.03.04.05l-.05.02s-.02-.03-.03-.04c-.01-.01-.04-.02-.06-.02-.03,0-.04,0-.06.02-.01.01-.02.03-.02.05h0s0,.02,0,.02c0,0,.02,0,.03,0,.01,0,.03,0,.05,0,.02,0,.03,0,.05,0,.02,0,.03,0,.04.02.01,0,.02.02.03.03,0,.01.01.03.01.05,0,.02,0,.04-.02.06-.01.02-.03.03-.04.04-.02,0-.04.01-.06.01-.02,0-.04,0-.05,0ZM540.47,419.06s.02-.02.02-.04c0-.01,0-.02-.01-.03,0,0-.02-.01-.03-.02-.01,0-.03,0-.04,0,0,0-.01,0-.02,0,0,0-.02,0-.03,0-.01,0-.02,0-.03,0,0,0-.01,0-.02,0v.05s0,.03.01.04c0,.01.02.02.03.03.01,0,.03.01.05.01.02,0,.04,0,.05-.01ZM540.19,418.76v.05s-.18,0-.18,0v-.05s.18,0,.18,0ZM540.13,419.03s0,.04-.01.05c0,.01-.02.02-.04.03-.01,0-.03.01-.05.01-.01,0-.02,0-.03,0,0,0-.01,0-.02,0v-.05s.02,0,.02,0c0,0,0,0,.01,0,0,0,.02,0,.02,0,0,0,.01,0,.02-.02,0,0,0-.02,0-.03v-.34s.05,0,.05,0v.35ZM539.76,419.12s-.03-.01-.03-.02c0,0-.02-.02-.02-.02h0s0,.05,0,.05h-.05s0-.23,0-.23c0-.03,0-.05.01-.07s.02-.03.03-.04c.01,0,.03-.01.04-.02.01,0,.03,0,.04,0,.02,0,.04,0,.05,0,.02,0,.04.01.05.03.02.01.03.03.04.05l-.05.02s-.02-.03-.03-.04c-.01-.01-.04-.02-.06-.02-.03,0-.04,0-.06.02-.01.01-.02.03-.02.05h0s0,.02,0,.02c0,0,.02,0,.03,0,.01,0,.03,0,.05,0,.02,0,.03,0,.05,0,.02,0,.03,0,.04.02.01,0,.02.02.03.03,0,.01.01.03.01.05,0,.02,0,.04-.02.06-.01.02-.03.03-.04.04-.02,0-.04.01-.06.01-.02,0-.04,0-.05,0ZM539.86,419.06s.02-.02.02-.04c0-.01,0-.02-.01-.03,0,0-.02-.01-.03-.02-.01,0-.03,0-.04,0,0,0-.01,0-.02,0,0,0-.02,0-.03,0-.01,0-.02,0-.03,0,0,0-.01,0-.02,0v.05s0,.03.01.04c0,.01.02.02.03.03.01,0,.03.01.05.01.02,0,.04,0,.05-.01ZM539.2,418.72h0l-.14.4h-.06s.17-.48.17-.48h.06s.18.47.18.47h-.06s-.14-.4-.14-.4ZM539.32,418.99h-.24s0-.05,0-.05h.24s0,.05,0,.05ZM538.72,419.12s-.04-.02-.05-.04c-.01-.02-.02-.04-.02-.06h.05s0,.02.02.03c0,0,.02.02.03.02.01,0,.02,0,.04,0,.02,0,.04,0,.06-.02.02-.01.03-.03.04-.05,0-.02.01-.04.01-.07,0-.03,0-.05-.01-.07,0-.02-.02-.04-.04-.05-.02-.01-.03-.02-.06-.02-.02,0-.04,0-.06.02-.01.01-.02.03-.03.04h-.05s.01-.04.02-.06c.01-.02.03-.03.05-.04s.04-.01.07-.01c.03,0,.06,0,.08.02.02.02.04.04.06.06.01.03.02.06.02.1,0,.04,0,.07-.02.09-.01.03-.03.05-.06.07-.02.02-.05.02-.09.02-.03,0-.05,0-.07-.01ZM538.35,419.12s-.04-.02-.05-.04c-.01-.02-.02-.04-.02-.06h.05s0,.02.02.03c0,0,.02.02.03.02s.02,0,.04,0c.02,0,.04,0,.06-.02.02-.01.03-.03.04-.05,0-.02.01-.04.01-.07,0-.03,0-.05-.01-.07,0-.02-.02-.04-.04-.05-.02-.01-.03-.02-.06-.02-.02,0-.04,0-.06.02-.01.01-.02.03-.03.04h-.05s.01-.04.02-.06c.01-.02.03-.03.05-.04.02,0,.04-.01.07-.01.03,0,.06,0,.08.02.02.02.04.04.06.06.01.03.02.06.02.1,0,.04,0,.07-.02.09-.01.03-.03.05-.06.07-.02.02-.05.02-.09.02-.03,0-.05,0-.07-.01ZM537.97,419.12s-.04-.04-.06-.06c-.01-.03-.02-.06-.02-.1,0-.04,0-.07.02-.1.01-.03.03-.05.06-.06.02-.02.05-.02.08-.02.03,0,.06,0,.08.02.02.02.04.04.06.06.01.03.02.06.02.1,0,.04,0,.07-.02.1-.01.03-.03.05-.06.06-.02.02-.05.02-.08.02-.03,0-.06,0-.08-.02ZM538.12,419.07s.03-.03.03-.05c0-.02.01-.04.01-.07,0-.02,0-.05-.01-.07,0-.02-.02-.04-.04-.05-.02-.01-.04-.02-.06-.02-.02,0-.04,0-.06.02-.02.01-.03.03-.03.05s-.01.04-.01.07c0,.02,0,.05.01.07,0,.02.02.04.04.05.02.01.04.02.06.02.02,0,.04,0,.06-.02ZM537.6,419.05s.02.02.04.03c.01,0,.03.01.04.01.02,0,.04,0,.06-.02.01-.02.02-.04.02-.06v-.22s.05,0,.05,0v.23s0,.06-.01.08c0,.02-.02.03-.04.04-.02,0-.04.01-.06.02-.03,0-.05,0-.07-.02-.02-.01-.03-.03-.04-.05h0s0,.06,0,.06h-.05s0-.36,0-.36h.05s0,.21,0,.21c0,.02,0,.04.02.05ZM537.36,418.87s-.02-.03-.03-.03c-.01,0-.03-.01-.05-.01-.03,0-.05,0-.06.02-.01.02-.02.04-.02.07v.22s-.05,0-.05,0v-.23s0-.06.01-.08c0-.02.02-.03.04-.04.02-.01.04-.02.06-.02.03,0,.05,0,.07.02.02.01.03.03.04.04h0s0-.06,0-.06h.05s0,.36,0,.36h-.05s0-.21,0-.21c0-.02,0-.04-.01-.05ZM537.08,418.78v.05s-.18,0-.18,0v-.05s.18,0,.18,0ZM537.03,419.05s0,.04-.01.05c0,.01-.02.02-.04.03-.01,0-.03.01-.05.01-.01,0-.02,0-.03,0,0,0-.01,0-.02,0v-.05s.02,0,.02,0c0,0,0,0,.01,0,0,0,.02,0,.02,0,0,0,.01,0,.02-.02,0,0,0-.02,0-.03v-.34s.05,0,.05,0v.35ZM536.66,419.14s-.03-.01-.03-.02c0,0-.01-.02-.02-.02h0v.05s-.05,0-.05,0v-.23s0-.05.01-.07.02-.03.03-.04c.01,0,.03-.01.04-.02.01,0,.03,0,.04,0,.02,0,.04,0,.05,0,.02,0,.04.01.05.03.02.01.03.03.04.05l-.05.02s-.02-.03-.03-.04c-.01-.01-.04-.02-.06-.02-.03,0-.04,0-.06.02-.01.01-.02.03-.02.05h0s0,.02,0,.02c0,0,.02,0,.03,0,.01,0,.03,0,.05,0,.02,0,.03,0,.05,0,.02,0,.03,0,.04.02.01,0,.02.02.03.03,0,.01.01.03.01.05,0,.02,0,.04-.02.06-.01.02-.03.03-.04.04-.02,0-.04.01-.06.01-.02,0-.04,0-.05,0ZM536.75,419.09s.02-.02.02-.04c0-.01,0-.02-.01-.03,0,0-.02-.01-.03-.02-.01,0-.03,0-.04,0,0,0-.01,0-.02,0,0,0-.02,0-.03,0-.01,0-.02,0-.03,0,0,0-.01,0-.02,0v.05s0,.03.01.04c0,.01.02.02.03.03.01,0,.03.01.05.01.02,0,.04,0,.05-.01ZM536.39,419.15v-.05s0,0,0,0c0,0,0,.01-.02.02,0,0-.02.02-.03.03-.01,0-.03.01-.05.01-.03,0-.06,0-.08-.02-.02-.02-.04-.04-.05-.06-.01-.03-.02-.06-.02-.1,0-.04,0-.07.02-.1.01-.03.03-.05.05-.06.02-.02.05-.02.08-.02.02,0,.04,0,.06.01.01,0,.02.02.03.03,0,0,.01.02.02.02h0s0-.18,0-.18h.05s0,.47,0,.47h-.05ZM536.37,418.9s-.02-.04-.03-.05c-.02-.01-.03-.02-.06-.02-.02,0-.04,0-.06.02-.02.01-.03.03-.03.05,0,.02-.01.04-.01.07,0,.03,0,.05.01.07,0,.02.02.04.04.05.02.01.03.02.06.02.02,0,.04,0,.06-.02.02-.01.03-.03.03-.05,0-.02.01-.04.01-.07,0-.03,0-.05-.01-.07ZM535.99,419.15v-.36s.05,0,.05,0v.36s-.05,0-.05,0ZM535.98,418.72s-.01-.02-.01-.03c0-.01,0-.02.01-.03,0,0,.02-.01.03-.01s.02,0,.03.01c0,0,.01.02.01.03,0,.01,0,.02-.01.03,0,0-.02.01-.03.01-.01,0-.02,0-.03-.01ZM535.88,418.67v.47s-.05,0-.05,0v-.47s.05,0,.05,0ZM535.68,419.15v-.36s.05,0,.05,0v.36s-.05,0-.05,0ZM535.67,418.73s-.01-.02-.01-.03c0-.01,0-.02.01-.03,0,0,.02-.01.03-.01.01,0,.02,0,.03.01,0,0,.01.02.01.03,0,.01,0,.02-.01.03,0,0-.02.01-.03.01-.01,0-.02,0-.03-.01ZM535.6,418.8v.05s-.18,0-.18,0v-.05s.18,0,.18,0ZM535.55,419.07s0,.04-.01.05c0,.01-.02.02-.04.03-.01,0-.03.01-.05.01-.01,0-.02,0-.03,0,0,0-.01,0-.02,0v-.05s.02,0,.02,0c0,0,0,0,.01,0,0,0,.02,0,.02,0,0,0,.01,0,.02-.02,0,0,0-.02,0-.03v-.34s.05,0,.05,0v.35ZM535.26,419.28s-.03-.01-.04-.03c-.01-.01-.02-.03-.03-.05l-.15-.41h.06s.1.28.1.28h0l.1-.28h.06s-.13.36-.13.36v.03s.02.03.03.04c0,0,.02.01.03.01.01,0,.02,0,.04,0v.05s0,0,0,0c0,0-.02,0-.02,0-.02,0-.03,0-.04,0ZM534.82,418.8v.05s-.19,0-.19,0v-.05s.19,0,.19,0ZM534.71,419.16v-.39s0-.03-.02-.04c0,0-.02-.01-.04-.01,0,0-.01,0-.02,0,0,0,0,0-.01,0l-.02-.05s.01,0,.02,0c0,0,.02,0,.03,0,.02,0,.03,0,.05,0,.02,0,.03.02.04.03,0,.01.01.03.01.05v.41s-.05,0-.05,0ZM534.5,419.16v-.23s0-.03-.01-.04c0-.01-.02-.02-.03-.03-.01,0-.03-.01-.05-.01,0,0-.01,0-.02,0,0,0-.01,0-.01,0v-.06s0,0,.01,0c0,0,.01,0,.02,0,.02,0,.04,0,.06.02.02.01.03.03.04.04h0v-.05s.05,0,.05,0v.36s-.05,0-.05,0ZM534.1,419.15s-.04-.04-.06-.06c-.01-.03-.02-.06-.02-.1,0-.04,0-.07.02-.1.01-.03.03-.05.06-.06.02-.02.05-.02.08-.02.03,0,.06,0,.08.02.02.02.04.04.06.06.01.03.02.06.02.1,0,.04,0,.07-.02.1-.01.03-.03.05-.06.06-.02.02-.05.02-.08.02-.03,0-.06,0-.08-.02ZM534.24,419.1s.03-.03.03-.05.01-.04.01-.07c0-.02,0-.05-.01-.07,0-.02-.02-.04-.04-.05-.02-.01-.04-.02-.06-.02-.02,0-.04,0-.06.02-.02.01-.03.03-.03.05s-.01.04-.01.07c0,.02,0,.05.01.07,0,.02.02.04.04.05.02.01.04.02.06.02.02,0,.04,0,.06-.02ZM533.88,419.17v-.22s0-.03-.01-.05c0-.01-.02-.02-.03-.03-.01,0-.03-.01-.04-.01-.02,0-.04,0-.05.02-.01.01-.02.03-.02.05v.24s-.05,0-.05,0v-.23s0-.04-.02-.06c-.01-.02-.03-.02-.06-.02-.02,0-.04,0-.05.02-.01.01-.02.03-.02.06v.24s-.05,0-.05,0v-.24s0-.07.03-.09c.02-.02.05-.03.08-.03.03,0,.05,0,.07.02.02.01.03.03.04.04h0s.02-.03.04-.04c.02-.01.04-.02.06-.02.02,0,.04,0,.06.02.02.01.03.03.04.04h0v-.06s.05,0,.05,0v.36s-.05,0-.05,0ZM533.01,418.77h0l-.14.4h-.06s.17-.48.17-.48h.06s.18.47.18.47h-.06s-.14-.4-.14-.4ZM533.13,419.04h-.24s0-.05,0-.05h.24s0,.05,0,.05ZM532.59,418.82v.05s-.18,0-.18,0v-.05s.18,0,.18,0ZM532.54,419.09s0,.04-.01.05c0,.01-.02.02-.04.03-.01,0-.03.01-.05.01-.01,0-.02,0-.03,0,0,0-.01,0-.02,0v-.05s.02,0,.02,0c0,0,0,0,.01,0,0,0,.02,0,.02,0,0,0,.01,0,.02-.02,0,0,0-.02,0-.03v-.34s.05,0,.05,0v.35ZM532.1,419.16s-.04-.04-.06-.06c-.01-.03-.02-.06-.02-.1,0-.04,0-.07.02-.1.01-.03.03-.05.06-.06.02-.02.05-.02.08-.02.03,0,.06,0,.08.02.02.02.04.04.06.06.01.03.02.06.02.1,0,.04,0,.07-.02.1-.01.03-.03.05-.06.06-.02.02-.05.02-.08.02-.03,0-.06,0-.08-.02ZM532.24,419.12s.03-.03.03-.05c0-.02.01-.04.01-.07s0-.05-.01-.07c0-.02-.02-.04-.04-.05-.02-.01-.04-.02-.06-.02-.02,0-.04,0-.06.02-.02.01-.03.03-.03.05s-.01.04-.01.07c0,.02,0,.05.01.07,0,.02.02.04.04.05.02.01.04.02.06.02.02,0,.04,0,.06-.02ZM531.43,419.18v-.05s.26,0,.26,0l-.26-.38v-.04s.33,0,.33,0v.05s-.26,0-.26,0l.26.38v.04s-.33,0-.33,0ZM531.13,419.18s-.04-.02-.05-.03c-.01-.01-.02-.03-.03-.05l.05-.02s.01.02.02.03c0,0,.02.01.03.02.01,0,.02,0,.04,0,.02,0,.04,0,.06-.01.02,0,.03-.02.04-.04,0-.02.01-.04.01-.07v-.03s0-.04-.01-.06c0-.02-.02-.03-.04-.04-.02-.01-.03-.02-.06-.02-.02,0-.04,0-.05.01-.01,0-.03.02-.03.04,0,.02-.01.03-.01.05h.22s0,.05,0,.05h-.27s0-.02,0-.02c0-.03,0-.06.01-.08,0-.02.02-.04.04-.05.01-.01.03-.02.05-.03.02,0,.04,0,.05,0,.03,0,.06,0,.08.02.02.02.04.04.06.06.01.03.02.06.02.1,0,.04,0,.07-.02.1-.01.03-.03.05-.06.06-.02.02-.05.02-.09.02-.02,0-.05,0-.07-.01ZM530.9,418.92s-.02-.03-.03-.03c-.01,0-.03-.01-.05-.01-.03,0-.05,0-.06.02-.01.02-.02.04-.02.07v.22s-.05,0-.05,0v-.23s0-.06.01-.08c0-.02.02-.03.04-.04.02-.01.04-.02.06-.02.03,0,.05,0,.07.02.02.01.03.03.04.04h0s0-.06,0-.06h.05s0,.36,0,.36h-.05s0-.21,0-.21c0-.02,0-.04-.01-.05Z"/>
    </g>
  </g>
  <path class="cls-12" d="M497.2,412.5s8.23-10.22,12.54-11.27c3.44-.66,6.94-.94,10.44-.81l.98,6.49s20.27.74,22.5,1.27c2.23.52,3.4,3.67,2.36,5.1-1.04,1.44-1.31,1.31-6.15,1.31-4.84,0-10.35,0-10.48,1.18-.13,1.18-.14,2.23,1.7,2.23s9.82.79,11.13.52,4.71.66,4.18,3.28c-.52,2.62-4.18,4.45-6.15,4.33-.83-.1-1.66-.1-2.49,0,0,0,.65,4.72-3.93,4.97-.58,1.33-1.74,2.33-3.14,2.72-2.49.79-15.85,4.06-22.01,3.94-6.16-.13-12.83-3.94-12.83-3.94l1.34-21.3Z"/>
  <path class="cls-1" d="M523.04,431.09c.48-.24,1-.38,1.53-.43.99-.05,2.41.09,3.95.17,1.87.21,3.76.3,5.64.26-1.84-.42-3.72-.67-5.61-.73-1.34-.11-2.68-.11-4.02,0-1.08.11-1.56.7-1.49.72Z"/>
  <path class="cls-12" d="M497.2,412.5s-28-2.85-34.98-4.63c-10.13-2.58-27.07-10.26-27.07-10.26l-10.86-5.32-19.3,4.63s-.74,16.17,2.38,21.64c3.4,5.53,8.81,9.53,15.1,11.15,5.85,1.43,73.39,4.11,73.39,4.11l1.34-21.3Z"/>
  <path class="cls-1" d="M528.12,425.34c1.58.35,3.19.55,4.81.59,1.61.19,3.23.23,4.84.11-1.58-.35-3.19-.54-4.81-.58-1.61-.2-3.23-.24-4.84-.12Z"/>
  <path class="cls-6" d="M443,284s-10.84,3.15-20.85,11.1c-6.09,4.83-13.63,30.66-14.1,38.57s-8.11,59.45-7.69,61.8,33.8,7.26,42.65,4.69l8.85-2.58-8.86-113.57Z"/>
  <path class="cls-11" d="M445.99,323.53c0,.06,0,.13-.02.19l-.06.57c-.06.53-.06,1.25-.09,2.17-.09,1.92-.2,4.64-.35,7.98-.24,6.78-.57,16.08-.93,26.36s-.7,19.62-1.02,26.36c-.18,3.34-.34,6.06-.44,7.97-.1.91-.12,1.64-.16,2.17l-.06.56c0,.06,0,.13-.02.19,0-.06,0-.13.02-.19.02-.14.04-.33,0-.57.01-.54.03-1.26.05-2.17.06-1.92.15-4.64.26-7.99.22-6.78.53-16.08.83-26.37.3-10.29.72-19.61,1.09-26.35.2-3.37.37-6.09.54-8.01.1-.92.18-1.59.24-2.16l.06-.56c.02-.05.04-.1.07-.15Z"/>
</svg>