<?xml version="1.0" encoding="UTF-8"?>
<svg id="Layer_2" data-name="Layer 2" xmlns="http://www.w3.org/2000/svg" viewBox="0 0 1000 1000">
  <defs>
    <style>
      .cls-1 {
        fill: #000;
      }

      .cls-1, .cls-2, .cls-3, .cls-4, .cls-5, .cls-6, .cls-7, .cls-8, .cls-9, .cls-10, .cls-11, .cls-12 {
        stroke-width: 0px;
      }

      .cls-2 {
        fill: #e0e0e0;
      }

      .cls-3 {
        fill: #cc675d;
      }

      .cls-4 {
        fill: #455a64;
      }

      .cls-5 {
        fill: #f5f5f5;
      }

      .cls-6 {
        fill: #09f;
      }

      .cls-7 {
        fill: #ebebeb;
      }

      .cls-8 {
        fill: #9c4741;
      }

      .cls-9 {
        fill: #263238;
      }

      .cls-10 {
        fill: #ffbf9d;
      }

      .cls-11 {
        fill: #fafafa;
      }

      .cls-13 {
        opacity: .3;
      }

      .cls-12 {
        fill: #fff;
      }
    </style>
  </defs>
  <g id="freepik--background-complete--inject-2">
    <path class="cls-7" d="M409.62,436.24c-.35-1.56-.53-3.16-.52-4.76-.08-1.91-.3-3.82-.64-5.7-.32-2.58-.82-5.14-1.49-7.66-1.66-6.95-4.34-13.61-7.96-19.77-4.71-8.14-10.94-15.31-18.34-21.12-19.44-15.38-45.37-19.83-68.83-11.83-6.66,2.19-12.93,5.39-18.62,9.49-6.03,4.14-11.34,9.24-15.72,15.09-19.37,25.11-20.19,59.89-2.01,85.87,2.1,3.02,4.4,5.9,6.89,8.6,2.53,2.59,5.22,5,8.06,7.23,5.48,4.36,11.6,7.87,18.13,10.4,32.61,12.77,69.71.76,88.66-28.69,3.91-5.95,6.92-12.45,8.91-19.28.8-2.48,1.42-5.01,1.87-7.58.44-1.86.74-3.76.91-5.66.07-1.6.33-3.18.77-4.71.19,1.59.19,3.19,0,4.78-.01,1.95-.19,3.89-.52,5.8-.31,2.63-.83,5.24-1.53,7.8-1.77,7.12-4.64,13.91-8.5,20.15-11.43,18.62-30.34,31.41-51.88,35.06-13.48,2.28-27.33.89-40.1-4.03-6.91-2.59-13.37-6.24-19.16-10.82-3.02-2.33-5.87-4.86-8.54-7.58-2.64-2.85-5.08-5.87-7.31-9.05-19.32-27.41-18.43-64.23,2.2-90.67,2.39-3.07,4.98-5.97,7.76-8.68,2.8-2.58,5.77-4.96,8.89-7.15,6.02-4.28,12.66-7.61,19.69-9.87,13-4.32,26.92-5.06,40.3-2.14,21.33,4.71,39.6,18.39,50.11,37.54,3.56,6.39,6.09,13.3,7.52,20.47.59,2.59.97,5.23,1.15,7.88.25,1.92.34,3.86.26,5.8.06,1.6-.06,3.2-.36,4.78Z"/>
    <path class="cls-7" d="M394.69,389.57c.16.24-1.19,1.41-3.79,3.34-1.43,1.01-3.02,2.16-4.8,3.45-.97.64-2.01,1.39-3.06,2.01l-3.69,2.01c-13.35,7.61-28.52,11.43-43.88,11.04l-6.65-.28-6.39-1.01c-1.05-.18-2.01-.3-3.1-.52l-2.96-.79c-2.01-.54-3.91-1.01-5.74-1.59-6.5-2.19-12.75-5.07-18.64-8.58-10.07-6.04-14.87-11.57-14.49-11.91s5.84,4.15,15.92,9.37c5.88,3.04,12.01,5.56,18.34,7.52,1.79.5,3.65.91,5.54,1.39l2.86.71,2.96.44,6.04.91,6.33.26c14.74.3,29.32-2.98,42.51-9.55l3.71-1.61c1.15-.6,2.18-1.23,3.16-1.77l5.1-2.82c2.88-1.51,4.55-2.24,4.71-2.01Z"/>
    <path class="cls-7" d="M275.22,480.36c-.16-.22,1.17-1.39,3.77-3.32l4.82-3.47c.95-.64,2.01-1.37,3.06-2.01l3.67-2.01c13.35-7.63,28.53-11.46,43.9-11.06l6.65.3,6.37.99c1.05.18,2.01.32,3.1.52l2.98.79c2.01.54,3.89,1.01,5.74,1.59,6.49,2.19,12.74,5.07,18.62,8.58,10.07,6.04,14.89,11.57,14.51,11.91s-5.84-4.13-15.92-9.37c-5.88-3.03-12.02-5.54-18.34-7.5-1.79-.52-3.67-.93-5.54-1.41l-2.86-.71-2.98-.44-6.04-.91-6.33-.24c-14.73-.32-29.33,2.95-42.51,9.53l-3.73,1.63c-1.13.58-2.16,1.23-3.14,1.77l-5.1,2.8c-2.88,1.53-4.53,2.28-4.69,2.04Z"/>
    <path class="cls-7" d="M409.58,437.97c0,1.13-33.47,1.23-74.69.24s-74.65-2.74-74.55-3.87,33.47-1.25,74.71-.24c41.24,1.01,74.57,2.72,74.53,3.87Z"/>
    <path class="cls-7" d="M331.48,509c-1.13,0-1.25-33.45-.24-74.67,1.01-41.22,2.74-74.55,3.87-74.55s1.25,33.47.24,74.69c-1.01,41.22-2.64,74.57-3.87,74.53Z"/>
    <path class="cls-7" d="M331.48,508.9c-.28.42-8.5-5.14-17.99-17.77-5.54-7.41-10.04-15.54-13.36-24.18-4.03-10.68-5.99-22.03-5.76-33.45.26-11.44,2.83-22.7,7.54-33.12,3.79-8.44,8.69-16.35,14.57-23.49,10.07-12.09,18.36-17.53,18.64-17.11s-7.11,6.59-16.34,18.9c-5.38,7.17-9.88,14.95-13.4,23.19-4.28,10.02-6.62,20.76-6.91,31.65-.2,10.92,1.57,21.79,5.24,32.08,3.03,8.42,7.09,16.43,12.09,23.86,8.7,12.71,16.12,18.98,15.7,19.44Z"/>
    <path class="cls-7" d="M336.74,359.75c.28-.42,8.5,5.16,17.99,17.77,5.54,7.41,10.04,15.54,13.36,24.18,4.03,10.69,5.99,22.05,5.78,33.47-.28,11.43-2.85,22.69-7.56,33.1-3.79,8.44-8.69,16.35-14.57,23.49-10.07,12.09-18.36,17.53-18.64,17.11s7.11-6.59,16.34-18.9c5.41-7.13,9.93-14.89,13.48-23.11,4.29-10.03,6.64-20.79,6.91-31.69.2-10.92-1.57-21.79-5.24-32.08-3.02-8.43-7.08-16.44-12.09-23.86-8.74-12.75-16.16-19.02-15.78-19.48Z"/>
    <rect class="cls-7" x="95.34" y="841.9" width="82.27" height="122.04" transform="translate(-775.9 864.76) rotate(-79.01)"/>
    <path class="cls-2" d="M204.42,875.24c-.4.34-.84.63-1.31.87l-3.91,2.28-14.47,8.18c-12.37,6.89-29.3,16.32-48.06,26.74l-.38.22-.3-.34-.75-.83-35.97-42.51-10.8-12.98-2.9-3.55c-.36-.4-.68-.84-.95-1.31.39.36.76.74,1.11,1.15l3.16,3.41,11.08,12.73,36.27,42.31.71.83-.69-.12,48.08-26.35,14.65-7.9,4.03-2.01c.45-.3.91-.57,1.39-.81Z"/>
    <path class="cls-2" d="M68.94,932.73c-.18-.24,10.98-9.55,24.92-20.81,13.94-11.26,25.43-20.15,25.63-19.95s-10.98,9.55-24.92,20.81c-13.94,11.26-25.43,20.19-25.63,19.95Z"/>
    <path class="cls-2" d="M159.43,898.7c.26-.14,7.03,12.57,15.11,28.39,8.08,15.82,14.41,28.77,14.1,28.91s-7.03-12.57-15.11-28.41c-8.08-15.84-14.31-28.75-14.1-28.89Z"/>
    <path class="cls-5" d="M952.63,601.86c.04-20.59-16.61-37.31-37.2-37.36-20.59-.04-37.31,16.61-37.36,37.2-.01,6.68,1.77,13.24,5.16,19h0v.14c1.43,2.42,3.22,4.13,5.02,6.67l21.74,28.75c2.22,2.97,6.43,3.57,9.39,1.35.51-.38.96-.84,1.35-1.35l21.28-28.21c1.94-2.29,3.75-4.68,5.42-7.17v-.1h0c3.4-5.72,5.2-12.26,5.2-18.92ZM915.35,618.1c-9.06,0-16.4-7.34-16.4-16.4s7.34-16.4,16.4-16.4,16.4,7.34,16.4,16.4c0,9.06-7.34,16.41-16.4,16.42v-.02Z"/>
    <path class="cls-5" d="M946.89,127.62c-1.27,43.25-37.36,77.28-80.6,76.01-43.25-1.27-77.28-37.36-76.01-80.6,1.27-43.25,37.36-77.28,80.6-76.01.08,0,.15,0,.23,0,43.18,1.34,77.1,37.42,75.78,80.6Z"/>
    <path class="cls-5" d="M930.39,127.9c-.99,32.96-28.5,58.87-61.46,57.89-32.96-.99-58.87-28.5-57.89-61.46.99-32.96,28.5-58.87,61.46-57.89.07,0,.13,0,.2,0,32.89,1.05,58.72,28.56,57.69,61.45Z"/>
    <path class="cls-2" d="M928.27,127.01c-.04-.32-.04-.65,0-.97,0-.71,0-1.63-.12-2.82v-2.01c0-.69-.18-1.59-.3-2.5-.2-2.08-.56-4.14-1.07-6.17-1.19-5.6-3.23-10.99-6.04-15.98-3.72-6.62-8.67-12.47-14.59-17.23-18.07-14.46-42.85-17.23-63.67-7.13-1.27.62-2.48,1.39-3.75,2.01-1.27.7-2.49,1.48-3.65,2.34-2.41,1.67-4.72,3.49-6.89,5.46-2.16,2.08-4.18,4.3-6.04,6.65-3.84,4.8-6.87,10.19-8.99,15.96-2.13,5.96-3.36,12.2-3.65,18.52-.13,6.32.7,12.63,2.46,18.7,1.73,5.9,4.41,11.48,7.92,16.52,1.7,2.46,3.57,4.8,5.58,7.01,2.04,2.1,4.22,4.08,6.51,5.9,4.43,3.57,9.38,6.43,14.69,8.48,26.32,10.56,56.44,1.01,71.87-22.79,3.16-4.78,5.57-10.02,7.15-15.53.63-1.98,1.12-4,1.45-6.04.18-.89.36-1.71.48-2.46s.14-1.45.2-2.01c.12-1.19.22-2.14.3-2.82.01-.33.06-.65.14-.97.02.32.02.65,0,.97,0,.71-.1,1.63-.18,2.84,0,.62,0,1.33-.14,2.01s-.26,1.59-.4,2.5c-.3,2.09-.76,4.15-1.37,6.17-1.55,5.58-3.96,10.89-7.13,15.74-9.25,14.54-24.3,24.41-41.33,27.08-13.53,2.01-27.34-.52-39.27-7.21-2.52-1.48-4.94-3.14-7.23-4.96-2.36-1.86-4.58-3.88-6.67-6.04-2.06-2.25-3.96-4.64-5.7-7.15-3.59-5.14-6.31-10.83-8.06-16.84-1.81-6.19-2.68-12.63-2.56-19.08.31-6.48,1.59-12.87,3.81-18.96,2.18-5.83,5.29-11.27,9.19-16.12,1.89-2.39,3.95-4.65,6.15-6.77,2.21-2.05,4.57-3.94,7.05-5.66,1.18-.88,2.42-1.68,3.71-2.38,1.29-.71,2.54-1.47,3.83-2.01,12.32-5.95,26.28-7.6,39.65-4.69,16.78,3.76,31.14,14.53,39.45,29.58,2.82,5.04,4.86,10.47,6.04,16.12.48,2.05.79,4.14.95,6.25,0,.91.22,1.75.26,2.52v4.94c0,.36,0,.71-.04,1.07Z"/>
    <path class="cls-2" d="M874.21,160.9l-.18,10.4-9.29-.16.18-10.07c-9.19-.73-17.95-3.75-22.99-7.84l5.3-11.24c5.26,3.82,11.43,6.2,17.89,6.91l.28-15.49c-10.26-2.7-21.72-6.33-21.48-19.6.18-9.83,7.48-18.13,22.16-19.56l.18-10.32,9.29.16-.18,10.07c6.64.49,13.06,2.56,18.74,6.04l-4.84,11.34c-4.31-2.62-9.11-4.35-14.1-5.08l-.26,15.78c10.26,2.6,21.52,6.23,21.28,19.32-.18,9.61-7.37,17.83-21.98,19.34ZM865.65,119.72l.22-13.2c-4.94,1.03-6.93,3.69-6.99,6.75s2.7,5.02,6.77,6.45ZM881.22,142.47c0-3.24-2.6-5.06-6.57-6.53l-.24,12.81c4.67-1.05,6.75-3.43,6.81-6.29Z"/>
    <path class="cls-5" d="M757.51,118.29c-13.09,18.59-38.77,23.05-57.36,9.97-1.99-1.39-3.85-2.96-5.56-4.67-15.98-16.15-15.84-42.2.31-58.19,16.15-15.98,42.2-15.84,58.19.31,14,14.15,15.86,36.29,4.43,52.57Z"/>
    <path class="cls-5" d="M750.17,113.55c-9.91,14.24-29.48,17.75-43.73,7.84-14.24-9.91-17.75-29.48-7.84-43.73,9.91-14.24,29.48-17.75,43.73-7.84.05.03.1.07.15.1,14.15,9.94,17.59,29.44,7.7,43.62Z"/>
    <path class="cls-2" d="M749.49,112.55c.06-.16.14-.31.24-.44l.77-1.29.56-.93c.2-.36.38-.77.58-1.19.51-.97.95-1.98,1.31-3.02,1.07-2.82,1.72-5.79,1.91-8.81,1.01-14.86-8.63-28.37-23.01-32.24-1.39-.42-2.8-.73-4.23-.95-.75,0-1.49,0-2.26-.16-.76-.06-1.52-.06-2.28,0-1.54.03-3.07.17-4.59.42-1.54.29-3.07.69-4.55,1.19-3.08,1-5.97,2.5-8.56,4.43-5.41,4-9.37,9.66-11.26,16.12-.93,3.1-1.36,6.32-1.27,9.55.04,3.12.58,6.22,1.61,9.17.47,1.44,1.04,2.84,1.71,4.19,5.49,10.84,16.77,17.51,28.91,17.09,3.99-.14,7.93-1.03,11.59-2.64,2.77-1.2,5.34-2.82,7.62-4.8.86-.69,1.66-1.44,2.4-2.26.34-.34.66-.64.93-.95s.48-.6.69-.85l.95-1.17c.1-.14.22-.27.34-.38l-.28.42-.91,1.21-.66.87c-.26.32-.56.62-.91.99-.76.78-1.59,1.5-2.46,2.16-2.29,2.02-4.87,3.67-7.66,4.92-13.82,6.24-30.13,1.77-38.85-10.64-.87-1.23-1.66-2.51-2.36-3.85-.68-1.38-1.26-2.81-1.75-4.27-.5-1.5-.9-3.03-1.21-4.57-.25-1.58-.4-3.18-.44-4.78-.09-3.31.34-6.6,1.29-9.77,1.01-3.25,2.5-6.32,4.41-9.13,1.98-2.76,4.38-5.19,7.09-7.23,2.65-1.97,5.59-3.5,8.72-4.53,1.53-.5,3.09-.9,4.67-1.21,1.56-.23,3.12-.37,4.69-.42.77-.05,1.55-.05,2.32,0,.77,0,1.53,0,2.3.18,1.49.19,2.96.49,4.41.89,5.46,1.51,10.43,4.43,14.39,8.48,6.32,6.51,9.53,15.42,8.83,24.46-.21,3.03-.89,6.02-2.01,8.85-.37,1.04-.83,2.05-1.37,3.02-.22.44-.42.85-.62,1.19l-.6.93-.83,1.45-.3.3Z"/>
    <path class="cls-2" d="M715.92,111.88l-3.08,4.51-4.03-2.74,2.98-4.41c-3.51-2.55-6.23-6.04-7.84-10.07l5.54-3.41c1.22,3.2,3.25,6.02,5.88,8.2l4.59-6.75c-3.75-4.03-7.74-9.05-3.79-14.81,2.9-4.29,8.52-5.84,15.39-2.24l3.04-4.47,4.03,2.74-2.96,4.41c2.78,2.13,5.02,4.89,6.53,8.06l-5.4,3.59c-1.16-2.39-2.78-4.53-4.76-6.31l-4.67,6.87c3.77,4.03,7.68,8.95,3.81,14.65-2.86,4.17-8.4,5.72-15.27,2.18ZM723.98,91.29l3.89-5.74c-2.46-.97-4.03-.38-5.02.95s-.22,3.02,1.19,4.8h-.06ZM724.3,105.74c.95-1.41.3-2.96-1.03-4.76l-3.71,5.56c2.3.93,3.91.48,4.8-.81h-.06Z"/>
    <path class="cls-7" d="M286.1,647.1s-13.62,5.52,2.01,34.45c15.64,28.93,26.46,43.22,26.46,43.22,0,0,2.82,6.73-2.88,7.94-5.7,1.21-18.36-.48-20.73,6.61s3,14.1,13.86,19.79,34.25,19.2,36.27,20.43,4.19,4.31.44,5.74-32.06,5.16-29.5,18.48c2.56,13.32,35.46,24.34,39.03,25.61,3.57,1.27,4.45,2.76,4.23,4.69s-9.87,2.3-17.87,3.69c-8,1.39-17.07,4.37-14.93,11.95s21.84,23.05,68.83,26.44l21.88.14,11.4-18.78c21.98-41.67,19.26-66.59,13.96-72.39-5.3-5.8-12.63.28-18.03,6.35s-10.8,14.1-12.57,13.22-2.56-2.36-1.75-6.04,8.85-37.44-1.11-46.66-28.05,12.85-31.27,15.27-4.71-1.03-4.65-3.43,1.01-29.36,1.89-41.61-2.01-20.45-9.49-22.16c-7.48-1.71-12.53,9.91-16.56,14.1s-8.26-1.75-8.26-1.75c0,0-6.41-16.64-22.65-45.29-16.24-28.65-28.39-19.71-28.39-19.71"/>
    <path class="cls-2" d="M414.57,881.35c-11.85-21.1-32.24-58.92-49.97-91.29s-33.75-61.66-45.48-82.79l-13.92-25.02-3.79-6.81-.97-1.77c-.11-.2-.22-.41-.3-.62l.36.58,1.03,1.75,3.89,6.73c3.38,5.86,8.2,14.39,14.1,24.92,11.85,21.08,27.95,50.37,45.66,82.71,17.71,32.34,38.04,70.24,49.81,91.38"/>
    <path class="cls-2" d="M308.67,742.34c.52.08,1.04.2,1.53.38.99.28,2.38.75,4.03,1.33,3.45,1.15,8.06,2.88,13.34,4.88l13.22,5.18,4.03,1.53c.5.16.99.37,1.45.62-.52-.05-1.04-.17-1.53-.36-.99-.28-2.38-.75-4.03-1.35-3.45-1.19-8.06-2.98-13.3-4.98l-13.26-5.08-4.03-1.51c-.5-.17-.99-.38-1.45-.64Z"/>
    <path class="cls-2" d="M347.78,754.83c-.18,0,2.94-9.93,6.99-22.06,4.05-12.13,7.48-21.9,7.64-21.84s-2.94,9.93-6.99,22.06c-4.05,12.13-7.48,22-7.64,21.84Z"/>
    <path class="cls-2" d="M372.7,805.79c.24-.49.53-.96.87-1.39.66-.97,1.49-2.18,2.5-3.61,2.01-3.04,4.98-7.27,8.06-12.09,3.08-4.82,5.62-9.19,7.48-12.41l2.18-3.79c.24-.49.54-.95.89-1.37-.15.52-.37,1.02-.64,1.49-.44.93-1.13,2.28-2.01,3.91-1.73,3.28-4.27,7.74-7.29,12.53s-6.04,8.99-8.2,11.97c-1.11,1.49-2.01,2.68-2.68,3.49-.33.46-.71.89-1.13,1.27Z"/>
    <path class="cls-2" d="M334.84,802.26c.5-.05,1.01-.05,1.51,0l4.03.22c3.43.22,8.06.54,13.36.97s9.91.83,13.34,1.17l4.03.42c.5.03.99.12,1.47.26-.5.05-1,.05-1.49,0l-4.03-.22c-3.43-.22-8.06-.56-13.36-.97-5.3-.4-9.93-.85-13.34-1.17l-4.03-.44c-.51-.02-1.01-.1-1.49-.24Z"/>
    <path class="cls-2" d="M351.17,850.04c.63-.05,1.26-.05,1.89,0l5.2.26c4.39.24,10.46.62,17.13,1.11,6.67.48,12.73.93,17.13,1.29l5.18.48c.64.03,1.27.12,1.89.26-.64.05-1.28.05-1.91,0l-5.2-.26c-4.39-.24-10.44-.62-17.13-1.11s-12.73-.93-17.11-1.29l-5.18-.48c-.64-.03-1.27-.11-1.89-.26Z"/>
    <path class="cls-2" d="M398.43,853.04c.3-.62.65-1.21,1.05-1.77l3-4.69c2.52-4.03,6.04-9.45,9.67-15.62,3.63-6.17,6.85-11.83,9.11-15.94,1.11-2.01,2.01-3.63,2.7-4.88.3-.62.65-1.21,1.07-1.75-.23.65-.5,1.27-.83,1.87-.58,1.19-1.43,2.88-2.52,4.98-2.16,4.19-5.28,9.89-8.97,16.12-3.69,6.23-7.21,11.65-9.83,15.53-1.33,2.01-2.42,3.53-3.18,4.59-.38.55-.8,1.07-1.27,1.55Z"/>
    <path class="cls-7" d="M798.77,447.26s-15.96-8.6-30.85,29.14c-14.89,37.74-19.95,58.98-19.95,58.98,0,0-4.13,8.06-9.75,3.55-5.62-4.51-14.1-17.73-22.59-14.39-8.87,3.47-10.9,13.92-7.76,28.71,3.14,14.79,8.85,47.41,9.35,50.37s-.77,7.35-5.1,4.96-30.12-26.19-40.68-13.3,4.98,52.67,6.59,57.04c1.61,4.37.91,6.39-1.11,7.7-2.01,1.31-9.95-7.52-17.57-13.98-7.62-6.47-17.57-12.63-23.05-4.67-5.48,7.96-4.55,38.81,29.3,85.83l17.13,20.75,26.72-4.03c56.68-12.09,78.08-34.25,79.37-43.9,1.29-9.65-10.22-11.69-20.15-12.09s-21.78.89-22.41-1.45.2-4.29,4.35-6.45,42.31-21.16,43.18-37.82c.87-16.66-34.25-16.36-39.05-17.49s-2.76-5.28-.44-7.09c2.32-1.81,28.51-22.16,40.76-31.03,12.25-8.87,17.77-17.95,13.52-26.48-4.25-8.52-19.22-4.03-26.37-4.53s-4.86-9.19-4.86-9.19c0,0,10.72-19.08,24.82-56.94,14.1-37.86-3.77-42.31-3.77-42.31"/>
    <path class="cls-2" d="M678.91,753.22c10.56-27.81,30.22-76.91,46.79-119.14,16.56-42.23,31.61-80.47,42.31-108.22,5.32-13.86,9.65-25.09,12.63-32.88,1.49-3.85,2.66-6.85,3.45-8.93l.93-2.32c.1-.27.21-.53.34-.79,0,0,0,.28-.26.81l-.85,2.34c-.77,2.01-1.87,5.12-3.28,9.01-2.88,7.8-7.11,19.06-12.41,32.96-10.56,27.81-25.47,66.09-42.09,108.32-16.62,42.23-36.27,91.29-47.01,119.04"/>
    <path class="cls-2" d="M726.64,543.63c.34.55.63,1.14.85,1.75.5,1.15,1.17,2.84,2.01,4.92,1.63,4.17,3.71,9.97,5.9,16.44s4.03,12.09,5.54,16.56c.66,2.01,1.25,3.65,1.69,5,.27.59.46,1.21.56,1.85-.36-.54-.65-1.12-.87-1.73-.48-1.15-1.17-2.84-2.01-4.94-1.57-4.17-3.59-10.07-5.76-16.48-2.18-6.41-4.15-12.09-5.66-16.5l-1.73-5c-.25-.6-.42-1.23-.52-1.87Z"/>
    <path class="cls-2" d="M745.76,590.4c0-.2,11.73-5.04,26.35-10.78,14.63-5.74,26.58-10.22,26.66-10.07s-11.71,5.06-26.35,10.8-26.66,10.28-26.66,10.05Z"/>
    <path class="cls-2" d="M717.23,654.11c.66-.16,1.34-.25,2.01-.26l5.38-.5c4.53-.4,10.8-1.01,17.69-2.01s13.1-2.01,17.59-2.72l5.32-.93c.66-.15,1.34-.24,2.01-.26-.61.27-1.26.46-1.91.56-1.23.32-3.02.73-5.26,1.19-4.47.95-10.7,2.01-17.61,2.98s-13.2,1.43-17.75,1.71c-2.28.12-4.13.2-5.4.22-.69.09-1.39.1-2.08.02Z"/>
    <path class="cls-2" d="M690.71,615.6c.45.42.85.88,1.19,1.39l2.98,4.03c2.5,3.38,5.9,8.06,9.61,13.36s7.05,10.07,9.43,13.52l2.76,4.15c.38.48.69,1.02.93,1.59-.45-.42-.85-.89-1.19-1.41l-2.9-4.03c-2.5-3.41-5.9-8.06-9.61-13.38-3.71-5.32-7.05-10.07-9.43-13.5l-2.76-4.15c-.4-.48-.74-1.01-1.01-1.57Z"/>
    <path class="cls-2" d="M658.46,668.66c.57.55,1.08,1.15,1.51,1.81l3.85,5.1c3.22,4.33,7.64,10.36,12.45,17.05,4.82,6.69,9.17,12.75,12.27,17.19l3.63,5.26c.48.63.89,1.31,1.25,2.01-.56-.55-1.07-1.16-1.51-1.81l-3.85-5.1c-3.22-4.33-7.64-10.36-12.45-17.05-4.82-6.69-9.17-12.75-12.27-17.19l-3.63-5.26c-.48-.63-.89-1.31-1.25-2.01Z"/>
    <path class="cls-2" d="M692.91,715.66c.81-.22,1.64-.36,2.48-.42l6.79-.87c5.74-.73,13.66-1.77,22.37-3.18s16.58-2.84,22.16-4.03l6.73-1.31c.82-.18,1.66-.31,2.5-.38-.78.3-1.59.54-2.42.71-1.57.4-3.85.95-6.69,1.57-5.64,1.25-13.5,2.8-22.16,4.19-8.66,1.39-16.66,2.36-22.43,2.96-2.88.28-5.22.48-6.83.58-.83.14-1.66.2-2.5.18Z"/>
  </g>
  <g id="freepik--Photo--inject-2">
    <rect class="cls-7" x="111.82" y="736.67" width="147.15" height="117.63" transform="translate(-180.2 65.07) rotate(-13.47)"/>
    <path class="cls-9" d="M243.23,721.16l-.69.18-2.01.5-7.78,1.91-29.26,7.05-103.26,24.98.28-.46c8.16,34.05,17.53,73.08,27.44,114.39h0l-.52-.32,143.06-34.25-.24.44c-8.18-34.47-14.95-63.05-19.71-83.01-2.34-10.07-4.19-17.85-5.46-23.21-.62-2.68-1.09-4.71-1.43-6.04l-.46-2.14s.18.66.52,2.01.85,3.41,1.49,6.04c1.31,5.34,3.2,13.14,5.62,23.09,4.86,20.01,11.77,48.62,20.15,83.13v.36h-.34l-143.06,34.25-.4.1.02-.34h0l-27.42-114.32v-.36l.38-.1,103.61-24.6,29.24-6.91,7.72-1.79,2.01-.46.5-.12Z"/>
    <rect class="cls-6" x="116.91" y="744.1" width="136.81" height="102.82" transform="translate(-180.21 65.05) rotate(-13.47)"/>
    <g class="cls-13">
      <polygon class="cls-1" points="130.74 861.44 162.33 788.16 200.43 820.16 214.96 794.69 263.78 829.58 130.74 861.44"/>
    </g>
    <g class="cls-13">
      <path class="cls-1" d="M201.5,770.73c1.4,5.79-2.16,11.61-7.95,13.01s-11.61-2.16-13.01-7.95c-1.4-5.79,2.16-11.61,7.95-13.01.01,0,.02,0,.03,0,5.78-1.39,11.59,2.17,12.97,7.95,0,0,0,0,0,0Z"/>
    </g>
  </g>
  <g id="freepik--screen-3--inject-2">
    <path class="cls-12" d="M705.12,740.71h187.1c5.99,0,10.84,4.85,10.84,10.84h0v134.41c0,5.06-4.1,9.17-9.17,9.17h-190.45c-5.06,0-9.17-4.1-9.17-9.17v-134.43c.01-5.98,4.86-10.82,10.84-10.82Z"/>
    <path class="cls-2" d="M705.12,740.71h187.1c5.99,0,10.84,4.85,10.84,10.84h0v23.03h-208.78v-23.05c.01-5.98,4.86-10.82,10.84-10.82Z"/>
    <path class="cls-12" d="M722.07,759.41c.01,3.42-2.75,6.19-6.17,6.21-3.42.01-6.19-2.75-6.21-6.17-.01-3.42,2.75-6.19,6.17-6.21,0,0,.01,0,.02,0,3.41-.01,6.17,2.74,6.19,6.15,0,0,0,.01,0,.02Z"/>
    <path class="cls-12" d="M741.03,759.41c.01,3.42-2.75,6.19-6.17,6.21-3.42.01-6.19-2.75-6.21-6.17-.01-3.42,2.75-6.19,6.17-6.21.01,0,.03,0,.04,0,3.41,0,6.17,2.76,6.17,6.17Z"/>
    <path class="cls-12" d="M760.01,759.41c.01,3.42-2.75,6.19-6.17,6.21-3.42.01-6.19-2.75-6.21-6.17-.01-3.42,2.75-6.19,6.17-6.21,0,0,.01,0,.02,0,3.41,0,6.17,2.76,6.19,6.17Z"/>
    <path class="cls-9" d="M893.9,895.23s.62,0,1.79-.24c1.75-.38,3.35-1.26,4.61-2.52,2.05-2.15,3.01-5.12,2.6-8.06v-11.93c0-17.97-.1-43.94-.16-76.02v-45.46c-.1-2.26-.93-4.43-2.36-6.19-1.48-1.76-3.5-2.99-5.74-3.51-1.15-.23-2.32-.32-3.49-.26h-183.09c-1.5-.05-3-.01-4.49.12-2.92.43-5.5,2.11-7.09,4.59-.79,1.22-1.31,2.59-1.53,4.03-.13,1.49-.18,2.98-.14,4.47v131.65c0,1.23.26,2.45.79,3.57,1.02,2.25,2.95,3.96,5.3,4.71,1.18.34,2.4.48,3.63.4h85.49l76,.16,20.67.1h7.21-7.21l-20.67.1-76,.16h-85.53c-1.32.08-2.64-.07-3.91-.44-2.61-.83-4.75-2.73-5.88-5.22-.58-1.26-.88-2.64-.87-4.03v-131.65c-.04-1.54,0-3.08.14-4.61.76-4.9,4.61-8.74,9.51-9.49,1.55-.16,3.1-.2,4.65-.14h182.91c1.24-.06,2.47.04,3.69.28,2.43.57,4.61,1.91,6.21,3.83,1.55,1.89,2.44,4.24,2.54,6.69v45.5c0,32.08-.12,58.05-.16,76.02v11.93c.31,2.97-.71,5.92-2.78,8.06-1.3,1.27-2.95,2.14-4.73,2.5-.58.39-1.22.69-1.89.89Z"/>
    <rect class="cls-2" x="712.98" y="796.8" width="75.42" height="75.42"/>
    <rect class="cls-2" x="807.4" y="801.38" width="77.65" height="6.45"/>
    <rect class="cls-2" x="807.4" y="816.15" width="77.65" height="6.45"/>
    <rect class="cls-2" x="807.4" y="830.91" width="77.65" height="6.45"/>
    <rect class="cls-2" x="807.4" y="845.66" width="77.65" height="6.45"/>
  </g>
  <g id="freepik--device-2--inject-2">
    <path class="cls-9" d="M653.08,945.02l-263.43-.16c-31.69,0-57.36-27.02-57.34-60.31l.12-694.03c0-33.31,25.71-60.31,57.42-60.29l263.37.14c31.69,0,57.36,27.04,57.34,60.45l-.12,694.01c0,33.23-25.71,60.2-57.36,60.18Z"/>
    <path class="cls-12" d="M652.94,154.94h-51.06c-6.85,0-12.41,6.04-12.41,13.62v9.73c0,7.52-5.56,13.62-12.41,13.62h-99.56c-6.83,0-12.39-6.04-12.39-13.64v-9.81c0-7.54-5.54-13.64-12.39-13.64h-62.66c-22.16,0-40.3,18.9-40.3,42.31l-.12,677.41c0,23.33,17.97,42.31,40.16,42.31l262.9.16c22.16,0,40.2-18.9,40.2-42.31l.14-677.41c.08-23.41-17.79-42.33-40.1-42.35Z"/>
    <path class="cls-2" d="M405.37,863.25v19.87c.01,1.2-.96,2.18-2.16,2.19-.42,0-.83-.11-1.19-.34l-15.64-9.93c-1.02-.65-1.33-2.01-.68-3.03.17-.27.4-.5.68-.68l15.64-9.93c1.01-.65,2.36-.35,3,.67.23.35.34.77.34,1.19Z"/>
    <path class="cls-2" d="M533.79,873.01c-.02,7.57-6.17,13.68-13.74,13.66s-13.68-6.17-13.66-13.74c.02-7.55,6.15-13.66,13.7-13.66,7.58.01,13.71,6.16,13.7,13.74h0Z"/>
    <rect class="cls-2" x="632.16" y="861.06" width="25.29" height="25.35" rx="3.77" ry="3.77"/>
  </g>
  <g id="freepik--device-1--inject-2">
    <path class="cls-2" d="M312.56,632.47l-71.31-15.68H79.24l100.16,17.31h132.64c1.85,0,2.24-1.35.52-1.63Z"/>
    <path class="cls-2" d="M47.7,515.22l31.53,101.57h161.96l-31.53-106.04c-.98-3.32-4.03-5.6-7.5-5.6H55.08c-4.32.06-7.77,3.61-7.71,7.93.01.73.12,1.45.33,2.15Z"/>
    <path class="cls-9" d="M76.82,616.81c0-.28,36.65-.52,81.84-.52s81.86.24,81.86.52-36.63.52-81.86.52-81.84-.22-81.84-.52Z"/>
    <path class="cls-12" d="M151.47,559.37c.01,5.07-4.09,9.2-9.17,9.21-5.07.01-9.2-4.09-9.21-9.17-.01-5.07,4.09-9.2,9.17-9.21h.04c5.06,0,9.17,4.1,9.17,9.17Z"/>
    <path class="cls-9" d="M320.4,541.42c.2.22-13.44,12.73-30.47,27.93-17.03,15.19-30.99,27.36-31.17,27.14s13.5-12.75,30.47-27.95c16.97-15.19,30.99-27.34,31.17-27.12Z"/>
    <path class="cls-9" d="M266.42,536.82c.26,0-2.86,9.15-7.01,20.15-4.15,11-7.72,19.95-8.06,19.85s2.86-9.15,7.01-20.15c4.15-11,7.86-19.95,8.06-19.85Z"/>
    <path class="cls-9" d="M317.78,601.3c0,.3-10.44,2.14-23.43,4.03-13,1.89-23.53,3.34-23.57,3.06s10.44-2.01,23.43-4.03c13-2.01,23.53-3.34,23.57-3.06Z"/>
    <path class="cls-9" d="M304.64,633.25c-.46-.02-.92-.1-1.37-.22l-3.93-.85-14.55-3.28-49.79-11.59h-.3v-.28c-2.01-6.83-4.17-14.1-6.39-21.56l-18.64-63.75-5.54-19.34c-.62-2.24-1.11-4.03-1.45-5.28-.14-.56-.26-1.01-.36-1.37s0-.48,0-.48c0,0,0,.14.18.44l.46,1.35,1.63,5.22,5.86,19.26c4.88,16.36,11.57,38.83,18.94,63.67,2.22,7.46,4.35,14.73,6.37,21.56l-.38-.34,49.71,11.93,14.49,3.59,3.89,1.01c.39.09.78.2,1.17.32Z"/>
  </g>
  <g id="freepik--screen-2--inject-2">
    <path class="cls-12" d="M643.97,174.93h124.16c5.99,0,10.84,4.85,10.84,10.84h0v87.93c0,5.06-4.1,9.17-9.17,9.17h-127.5c-5.06,0-9.17-4.1-9.17-9.17v-87.93c0-5.99,4.85-10.84,10.84-10.84h0Z"/>
    <path class="cls-2" d="M643.97,174.93h124.16c5.99,0,10.84,4.85,10.84,10.84h0v12.81h-145.84v-12.81c0-5.99,4.85-10.84,10.84-10.84h0Z"/>
    <path class="cls-12" d="M652.53,188c.01,2.39-1.92,4.34-4.31,4.35-2.39.01-4.34-1.92-4.35-4.31-.01-2.39,1.92-4.34,4.31-4.35.01,0,.03,0,.04,0,2.38,0,4.31,1.93,4.31,4.31h0Z"/>
    <path class="cls-12" d="M665.77,188c0,2.38-1.93,4.31-4.31,4.31s-4.31-1.93-4.31-4.31,1.93-4.31,4.31-4.31c2.38,0,4.31,1.93,4.31,4.31h0Z"/>
    <circle class="cls-12" cx="674.72" cy="188" r="4.31"/>
    <path class="cls-9" d="M769.78,282.86s.42,0,1.25-.14c1.22-.18,2.38-.61,3.43-1.27,1.71-1.05,3.02-2.64,3.73-4.51.91-2.2.48-5.02.56-8.06,0-12.45-.1-30.4-.16-52.55v-31.39c-.12-1.55-.61-3.06-1.41-4.39-1.64-2.79-4.48-4.66-7.7-5.04-3.26-.16-6.77,0-10.22,0h-113.78c-1.03-.05-2.06,0-3.08.14-4.06.63-7.37,3.62-8.4,7.6-.36,1.99-.47,4.02-.34,6.04v82.01c-.15,1.75,0,3.51.46,5.2,1.11,3.25,4.02,5.54,7.43,5.86h56.42l52.55.16h19.26-4.98l-14.29.1-52.55.16h-56.54c-3.79-.36-7.02-2.89-8.26-6.49-.49-1.79-.67-3.65-.52-5.5v-84.65c-.02-1.09.1-2.18.36-3.24,1.16-4.38,4.79-7.66,9.27-8.36,1.08-.14,2.16-.18,3.24-.14h113.68c3.51,0,6.85,0,10.32.1,3.49.43,6.57,2.47,8.34,5.5.86,1.45,1.38,3.07,1.51,4.76v31.47c0,22.16-.14,40.1-.18,52.55v4.37c.03,1.31-.19,2.62-.64,3.85-.77,1.91-2.14,3.51-3.91,4.57-1.07.65-2.28,1.06-3.53,1.19-.44.07-.88.11-1.33.1Z"/>
    <path class="cls-6" d="M734.22,231.12c-.47-3.57-2.02-6.91-4.45-9.57-2.29-2.69-5.36-4.6-8.78-5.46-3.68-.81-7.53-.08-10.66,2.01-1.83,1.25-3.34,2.93-4.37,4.9-2.94-5.15-8.87-7.8-14.67-6.55-3.43.82-6.52,2.69-8.83,5.36-2.47,2.63-4.06,5.96-4.57,9.53-.57,4.55.34,9.16,2.6,13.16,2.62,4.06,6.18,7.42,10.38,9.81,6.79,4.15,15.72,9.33,15.72,9.33,0,0,7.62-5.62,14.45-9.69,4.22-2.35,7.81-5.68,10.48-9.71,2.28-3.97,3.24-8.57,2.72-13.12Z"/>
  </g>
  <g id="freepik--screen-1--inject-2">
    <path class="cls-12" d="M142.3,108.32h141.75c5.99,0,10.84,4.85,10.84,10.84h0v100.95c0,5.06-4.1,9.17-9.17,9.17h-145.07c-5.06,0-9.17-4.1-9.17-9.17h0v-100.95c0-5.98,4.84-10.83,10.82-10.84Z"/>
    <path class="cls-2" d="M142.3,108.32h141.75c5.99,0,10.84,4.85,10.84,10.84h0v15.68h-163.41v-15.68c0-5.98,4.84-10.83,10.82-10.84Z"/>
    <circle class="cls-12" cx="148.39" cy="122.96" r="4.84"/>
    <circle class="cls-12" cx="163.24" cy="122.96" r="4.84"/>
    <circle class="cls-12" cx="178.09" cy="122.96" r="4.84"/>
    <path class="cls-9" d="M285.72,229.27s.48,0,1.41-.18c1.36-.24,2.66-.77,3.79-1.57,1.81-1.32,3.06-3.27,3.51-5.46.22-1.42.29-2.86.2-4.29v-4.94c0-13.98,0-34.25-.16-59.1v-35.32c-.12-1.75-.69-3.44-1.65-4.92-2.01-3.06-5.47-4.86-9.13-4.73h-139.45c-1.16-.04-2.33.01-3.49.14-4.61.71-8.16,4.42-8.68,9.05-.12,4.59,0,9.35,0,13.96v85.19c-.19,1.96,0,3.95.54,5.84,1.37,3.65,4.99,5.97,8.89,5.68h63.45l59.1.16h21.72-5.6l-16.12.1-59.1.16h-63.55c-2.07.12-4.12-.4-5.88-1.49-1.79-1.13-3.16-2.81-3.89-4.8-.39-.99-.6-2.04-.6-3.1v-101.77c.54-5.14,4.47-9.27,9.57-10.07,1.21-.14,2.43-.18,3.65-.14h139.41c3.96-.13,7.7,1.83,9.85,5.16,1.04,1.59,1.65,3.42,1.77,5.32v35.38c0,24.92-.14,45.11-.18,59.1v4.94c.07,1.46-.02,2.91-.24,4.35-.53,2.27-1.88,4.25-3.79,5.58-1.16.79-2.49,1.31-3.89,1.51-.47.14-.96.23-1.45.26Z"/>
    <path class="cls-6" d="M249.09,200.01l-5.04-7.17c-3.04-4.29-4.68-9.43-4.67-14.69v-16.12c-.02-12.9-9.42-23.87-22.16-25.85v-7.66c0-1.95-1.58-3.53-3.53-3.53h0c-1.94,0-3.51,1.57-3.51,3.51,0,0,0,.01,0,.02v7.54c-13.23,1.55-23.19,12.77-23.15,26.09v16.58c0,5.72-1.91,11.28-5.44,15.78l-4.33,5.52,71.83-.02Z"/>
    <path class="cls-6" d="M209.4,211.66c3.98,1.61,8.53.83,11.75-2.01,1.35-1.25,2.37-2.81,2.96-4.55l-20.91-.16c1.03,3.02,3.28,5.46,6.21,6.73Z"/>
  </g>
  <g id="freepik--Document--inject-2">
    <path class="cls-6" d="M899.32,381.72l-73.89-18.13c-5.11-1.26-8.23-6.42-6.97-11.53l25.02-102.28c1.26-5.11,6.42-8.23,11.53-6.97l46.87,11.46,27.12,46.34-18.13,74.13c-1.27,5.11-6.43,8.23-11.55,6.97Z"/>
    <g class="cls-13">
      <path class="cls-1" d="M901.87,254.31l-7.01,28.79c-1.16,4.74,1.74,9.53,6.48,10.7,0,0,0,0,0,0l27.68,6.79-27.16-46.28Z"/>
    </g>
    <path class="cls-11" d="M888.82,280.41c0,.36-7.8-1.21-17.25-3.51s-17.03-4.49-16.93-4.86,7.82,1.19,17.25,3.51,17.11,4.49,16.93,4.86Z"/>
    <path class="cls-11" d="M906.95,302.09c0,.38-12.77-2.42-28.21-6.21s-28.05-7.19-27.97-7.58,12.75,2.42,28.21,6.23c15.45,3.81,28.11,7.11,27.97,7.56Z"/>
    <path class="cls-11" d="M908.75,316.92c-.1.38-13.9-2.68-30.83-6.83s-30.61-7.82-30.51-8.18,13.88,2.7,30.83,6.83c16.95,4.13,30.59,7.82,30.51,8.18Z"/>
    <path class="cls-11" d="M905.6,329.85c0,.36-13.9-2.7-30.83-6.85s-30.59-7.8-30.51-8.18,13.88,2.7,30.83,6.85c16.95,4.15,30.59,7.7,30.51,8.18Z"/>
    <path class="cls-11" d="M902.46,342.57c0,.36-13.88-2.7-30.83-6.83s-30.59-7.82-30.51-8.18,13.9,2.68,30.83,6.83,30.61,7.82,30.51,8.18Z"/>
    <path class="cls-11" d="M899.32,355.38c0,.38-13.88-2.68-30.83-6.83-16.95-4.15-30.59-7.82-30.51-8.18s13.9,2.7,30.85,6.85,30.59,7.8,30.49,8.16Z"/>
  </g>
  <g id="freepik--Character--inject-2">
    <polygon class="cls-3" points="353.34 497.41 363.13 445.31 391.1 441.3 388.96 497.41 353.34 497.41"/>
    <path class="cls-3" d="M390.7,452.26s14.35-8.76,20.35-19.16c6-10.4,20.79-16.8,19.58-19.6-1.21-2.8-8.06-4.39-11.99-2.01-3.93,2.38-13.2,13.26-17.19,8.06-3.99-5.2-4.55-30.57-5.36-38.56-.81-8-3.73-14.95-6.53-13.06s-4.03,3.2-3.16,12.57c.77,8.85,1.05,25-1.35,22.16-2.4-2.84-3.2-39.59-6.41-40.3-3.27-.65-6.46,1.48-7.11,4.75-.11.58-.14,1.17-.09,1.76.4,4.69.34,39.47,0,34.68s-2.38-20.29-4.96-26.76c-2.01-4.88-6.95,1.19-6.04,5.58s5.52,32.38,3.53,31.98c0,0-4.39-22.39-6.39-23.59s-5.36,4.35-4.41,9.21c1.49,7.6,4.03,22.39,4.8,31.98s5.2,21.6,8.06,22.79,24.66-2.46,24.66-2.46Z"/>
    <path class="cls-8" d="M375.34,435.23s.1-.5.48-1.35c.58-1.19,1.33-2.28,2.22-3.26,2.95-3.3,7.07-5.35,11.48-5.7,2.62-.18,4.98.38,7.03.22,1.85-.16,3.64-.75,5.22-1.73,2.74-1.69,4.29-3.04,4.39-2.9s-.28.44-.95,1.09c-.95.89-1.98,1.71-3.06,2.44-1.64,1.13-3.54,1.82-5.52,2.01-2.26.22-4.63-.32-7.03-.14-4.17.35-8.08,2.18-11.02,5.16-1.16,1.33-2.24,2.72-3.24,4.17Z"/>
    <g class="cls-13">
      <path class="cls-1" d="M709.33,685.56c-5.92-6.61-16.46-4.13-25.29-3.3-27,2.46-52.19-16.97-64.88-40.9-12.69-23.94-15.58-51.72-18.13-78.7-.99-10.07-1.43-21.8,5.94-28.81,6.04-5.78,15.29-6.21,23.63-7.05,18.59-1.9,36.64-7.37,53.15-16.12,8.06-4.23,15.88-9.45,20.85-17.07,4.98-7.62,6.45-18.13,1.59-25.73-5.3-8.36-16-11.12-25.71-13.02-38.78-7.58-78.07-12.23-117.55-13.92,1.89-23.63,3.79-47.49.44-70.96s-12.41-46.83-29.54-63.23-43.16-24.54-65.46-16.52c-27.77,9.97-42.21,40.57-32.23,68.35,5.04,14.04,15.72,25.33,29.45,31.15,14.1,6.04,32.56,7.27,39.67,20.87,4.78,9.15,2.01,20.77-4.15,29.09-6.17,8.32-14.95,14.1-23.41,20.03-32.48,22.59-62.26,48.82-88.76,78.2l-22.83,34.54c-2.62,10.88,9.59,20.65,20.75,20.15s20.77-7.7,29.64-14.53,18.6-13.88,29.78-14.1c14.95-.3,27.7,12.31,32.48,26.48,4.78,14.16,3.32,29.6,1.67,44.47-2.86,25.75-8.56,55.19-31.17,67.82-11.93,6.67-26.19,7.05-39.41,10.7s-26.9,13.04-27.5,26.7c-.52,12.19,9.65,22.16,20.27,28.21s55.03,7.52,63.69,16.12c10.18,10.07,3,19.89,2.48,39.63-.32,11.93,3,25.05,11.87,33.04,8.87,8,12.09,10.78,23.15,6.35,17.81-7.13,21.36-30.22,30.63-46.97,5.6-10.07,14.57-18.98,25.77-21.88s24.62,1.39,30.1,11.61c4.23,7.88,4.47,19.18,12.65,22.79,9.27,4.03,18.8-6.93,19.42-17.05s-3.55-20.15-2.72-30.22c1.69-21.02,23.27-33.99,42.74-42.09,19.46-8.1,41.73-17.21,48.72-37.09,1.93-5.54,2.2-12.51-1.81-17.01Z"/>
    </g>
    <polygon class="cls-10" points="575.6 780.18 606.45 766.42 583.54 717.25 550.76 734.58 575.6 780.18"/>
    <path class="cls-2" d="M555.07,734.2l-47.21,26.64-19.14,2.66c-7.25,1.01-5.06,6.69-4.03,13.94l12.31,88.55s9.47,2.94,11.34-4.03,22.3-60.23,22.3-60.23l45.07-21.72-20.65-45.82Z"/>
    <path class="cls-9" d="M555.07,734.2s.14.24.38.77.6,1.33,1.07,2.32c.97,2.01,2.36,5.12,4.15,9.01l15.31,33.65.14.28-.28.14-45.03,21.8.2-.22c-4.03,10.86-8.5,22.49-13.1,34.68-2.28,6.04-4.61,12.35-6.87,18.74-.58,1.59-1.13,3.2-1.67,4.82-.28.83-.46,1.59-.79,2.46-.14.44-.33.86-.58,1.25l-.36.58-.46.52c-1.35,1.28-3.14,2-5,2.01-1.8.1-3.61-.1-5.34-.6h-.28v-.28l-.12-.93c-3.34-24.06-6.51-47.01-9.41-67.92-.73-5.24-1.41-10.34-2.01-15.29-.36-2.48-.66-4.92-1.07-7.31-.54-2.38-.71-4.83-.48-7.25.21-1.27.94-2.4,2.01-3.1,1.04-.61,2.19-1,3.38-1.15l6.63-.91,12.47-1.69h-.1l34.72-19.38,9.41-5.2,2.44-1.35.81-.42s-.28.2-.85.52l-2.46,1.43-9.37,5.38-34.56,19.5h0l-12.47,1.75-6.63.95c-1.08.12-2.13.47-3.06,1.03-.9.6-1.5,1.55-1.65,2.62-.19,2.34-.01,4.7.52,6.99.42,2.4.73,4.86,1.07,7.33.71,4.96,1.41,10.07,2.16,15.27,2.9,20.91,6.04,43.86,9.47,67.92,0,.32.04.62.12.91l-.32-.36c1.63.46,3.33.65,5.02.56,1.63-.02,3.2-.65,4.39-1.77,1-1.32,1.69-2.85,2.01-4.47.54-1.63,1.11-3.24,1.67-4.84,2.28-6.41,4.61-12.65,6.89-18.76l13.18-34.66v-.14h.14l45.11-21.62-.14.4-14.93-33.61-4.03-9.15-1.05-2.4-.4-.81Z"/>
    <path class="cls-2" d="M557.27,728.54l-11.36,7.31c-1.74,1.12-2.35,3.37-1.41,5.22l21.24,41.81c.91,1.88,3.1,2.76,5.06,2.01l12.25-4.73c2.08-.8,3.11-3.13,2.31-5.21-.05-.12-.1-.24-.16-.35l-22.16-44.33c-.94-2.02-3.34-2.89-5.35-1.95-.14.07-.28.14-.41.22Z"/>
    <path class="cls-9" d="M566.44,784.53c-1.51-1.9-2.86-3.92-4.03-6.04-2.36-3.83-5.48-9.19-8.6-15.29-3.12-6.11-5.62-11.79-7.25-15.98-.83-2.01-1.45-3.79-1.85-5-.27-.59-.44-1.23-.5-1.87,1.16,2.12,2.18,4.32,3.06,6.57,1.83,4.03,4.43,9.69,7.54,15.78,3.1,6.08,6.04,11.48,8.28,15.41,1.28,2.06,2.4,4.21,3.36,6.43Z"/>
    <path class="cls-9" d="M548.08,746.17c1.97-3.06,4.88-5.4,8.28-6.69,3.26-1.62,6.95-2.18,10.54-1.59,0,.36-4.82.24-10.07,2.6-3.11,1.57-6.05,3.48-8.74,5.68Z"/>
    <path class="cls-9" d="M553.92,762.51c2.93-2.4,6.16-4.43,9.59-6.04,3.27-1.93,6.77-3.44,10.42-4.49-3.17,2.04-6.48,3.87-9.89,5.48-3.25,1.92-6.63,3.61-10.11,5.06Z"/>
    <path class="cls-9" d="M564.16,778.37c3.41-1.1,6.65-2.69,9.61-4.71,2.75-2.32,5.14-5.04,7.09-8.06-.15,1.09-.56,2.12-1.19,3.02-1.35,2.28-3.13,4.28-5.24,5.88-2.1,1.61-4.5,2.78-7.05,3.47-1.03.39-2.13.53-3.22.4Z"/>
    <path class="cls-9" d="M486.08,783.79c0-.18,1.63-.6,4.03-1.81,6.48-3.13,11.22-8.99,12.92-15.98.66-2.66.73-4.37.91-4.37.28,1.5.23,3.05-.14,4.53-1.34,7.43-6.38,13.66-13.36,16.54-1.35.68-2.84,1.05-4.35,1.09Z"/>
    <path class="cls-9" d="M493.34,839.86c.92-.67,2-1.1,3.12-1.27,2.68-.6,5.48-.43,8.06.5,2.56.99,4.9,2.5,6.85,4.43.87.72,1.59,1.6,2.12,2.6-.12.12-1.07-.75-2.64-2.01-2-1.7-4.27-3.06-6.71-4.03-2.44-.88-5.06-1.15-7.64-.79-1.04.28-2.09.47-3.16.56Z"/>
    <path class="cls-9" d="M445.54,669.8s-46.34-5.78-61.05-2.78c-14.71,3-42.57,20.45-39.89,46.95s20.15,45.46,41.63,48.82c21.48,3.36,141.26,15.49,187.67,14.87,39.29-.52,60.63-10.48,56.15-16.6,0,0,41.37-15.74,45.68-17.57,3.32-1.43,64.11-31.53,70.52-42.59,6.41-11.06,21.46-48.62-5.02-67.4-26.48-18.78-71.75-6.04-79.79,0-4.03,2.96-11,5.04-25.17,15.37l-13.52-9.31c-.97.73-109.83,8.34-152.91,10.3-7.46.36-24.3,19.95-24.3,19.95Z"/>
    <path class="cls-9" d="M575.38,734.52c-1.19-5.14-1.73-7.01-.4-10.34,1.52-3.25,3.61-6.19,6.17-8.7,1.61-1.77,3.51-3.69,5.9-3.73,3.04,0,5.18,2.88,6.77,5.46,5.91,9.4,12.2,18.6,18.86,27.58,3.83,5.14,7.92,10.3,13.46,13.52,2.01,1.17,4.55,2.6,4.45,4.96,0,1.85-1.87,3.1-3.49,4.03-3.04,1.71-6.21,3.2-9.47,4.45-6,3.27-13.46,2.08-18.13-2.9-11.5-9.12-20.03-21.46-24.48-35.44"/>
    <path class="cls-4" d="M575.04,733.39c.08.13.14.27.18.42l.46,1.25c.38,1.13.99,2.74,1.87,4.8,2.52,5.78,5.79,11.2,9.73,16.12,2.7,3.4,5.68,6.57,8.89,9.49,1.73,1.55,3.57,3.16,5.54,4.63,1.97,1.56,4.32,2.58,6.81,2.96,2.64.17,5.28-.26,7.74-1.25,2.64-.95,5.21-2.06,7.72-3.32,1.27-.64,2.58-1.31,3.77-2.01,1.21-.6,2.09-1.72,2.38-3.04-.08-1.36-.84-2.59-2.01-3.26-1.17-.83-2.56-1.51-3.83-2.4-4.77-3.63-8.91-8.02-12.25-13-3.43-4.63-6.63-9.17-9.59-13.54-2.96-4.37-5.7-8.58-8.2-12.57-1.04-1.96-2.4-3.74-4.03-5.26-.77-.66-1.71-1.08-2.72-1.19-.96-.06-1.91.16-2.74.64-1.53,1.03-2.89,2.3-4.03,3.75-1.15,1.23-2.24,2.53-3.24,3.89-1.68,2.09-2.71,4.63-2.98,7.29.04,1.71.27,3.4.69,5.06,0,.52.18.97.26,1.31.02.15.02.31,0,.46-.06-.14-.1-.29-.14-.44l-.34-1.29c-.5-1.66-.79-3.37-.87-5.1.21-2.76,1.22-5.41,2.92-7.6,1-1.4,2.08-2.74,3.22-4.03,1.2-1.52,2.62-2.85,4.23-3.93.94-.55,2.03-.81,3.12-.75,1.1.1,2.15.51,3.02,1.19,1.71,1.55,3.14,3.39,4.23,5.42,2.52,4.03,5.26,8.06,8.24,12.51s6.21,8.87,9.63,13.46c3.3,4.9,7.38,9.21,12.09,12.77,1.23.87,2.58,1.51,3.87,2.44.66.45,1.24,1.01,1.71,1.65.49.7.74,1.54.69,2.4-.3,1.61-1.34,3-2.8,3.75-1.27.81-2.56,1.43-3.85,2.01-2.54,1.27-5.15,2.39-7.82,3.34-2.56,1.02-5.31,1.46-8.06,1.27-2.63-.4-5.1-1.5-7.17-3.16-1.95-1.47-3.81-3.05-5.58-4.73-3.23-2.95-6.2-6.17-8.89-9.63-3.94-4.97-7.16-10.47-9.55-16.34-.66-1.59-1.24-3.21-1.73-4.86-.14-.52-.26-.95-.36-1.29-.08-.1-.15-.2-.22-.3Z"/>
    <path class="cls-4" d="M686.14,638.13c-.42-.04-.83-.04-1.25,0-1.19.2-2.36.48-3.51.83-3,.87-7.31,2.34-12.61,4.21-2.62.93-5.62,2.01-8.68,2.94-3.02,1.74-5.74,3.95-8.06,6.55-5.36,5.16-11.22,10.84-17.31,16.88-12.19,12.09-22.89,23.35-30.4,31.73-3.77,4.17-6.73,7.62-8.81,10.07-.97,1.13-1.77,2.01-2.36,2.74-.27.32-.57.63-.89.91.22-.36.47-.71.75-1.03l2.24-2.86c2.01-2.44,4.88-5.94,8.58-10.18,7.39-8.5,18.03-19.87,30.22-31.96,6.04-6.04,11.99-11.73,17.37-16.86,2.41-2.64,5.22-4.87,8.34-6.61,3.24-1.01,6.04-2.01,8.76-2.86,5.34-1.81,9.69-3.18,12.75-4.03,1.17-.32,2.36-.54,3.57-.66.32-.05.65-.05.97,0,.22.18.32.18.32.18Z"/>
    <path class="cls-4" d="M525.35,724.65c-.41-.15-.82-.32-1.21-.52l-3.36-1.67-12.35-6.27-18.23-9.41c-7.31-4.06-14.89-7.61-22.69-10.62-4.08-1.39-8.3-2.37-12.57-2.94-2.1-.29-4.14-.91-6.04-1.85-1.75-1.05-3.28-2.41-4.51-4.03-2.34-2.75-5.47-4.71-8.97-5.6-3.06-.8-6.21-1.15-9.37-1.03-5.8.18-10.52.85-13.8.85-1.26.04-2.51,0-3.77-.1-.44,0-.88-.07-1.31-.18h5.06c3.26-.1,7.94-.87,13.8-1.13,3.23-.16,6.46.15,9.59.95,1.75.45,3.43,1.13,5,2.01,1.66.98,3.15,2.23,4.39,3.71,1.18,1.53,2.64,2.82,4.29,3.81,1.82.88,3.76,1.47,5.76,1.73,4.33.56,8.6,1.56,12.73,2.96,7.84,3.03,15.45,6.62,22.77,10.74l18.13,9.57,12.21,6.55,3.28,1.81c.41.18.8.41,1.17.66Z"/>
    <polygon class="cls-10" points="547.86 783.58 516.14 777.12 527.35 726.38 561.62 735.79 547.86 783.58"/>
    <path class="cls-2" d="M557.51,736.34l49.69,15.09,15.39-1.23c4.79-.4,9,3.16,9.4,7.95,0,.04,0,.08,0,.11l7.21,89.34s-10.5,2.42-13.68-3.67-31.13-49.41-31.13-49.41l-46.66-10.94,9.77-47.25Z"/>
    <path class="cls-9" d="M557.51,736.34s0,.3-.16.87-.26,1.41-.46,2.46c-.44,2.18-1.07,5.34-1.87,9.39-1.63,8.06-4.03,19.91-6.97,34.54l-.24-.38,46.71,10.86h.16v.14l18.94,29.54c3.28,5.22,6.67,10.54,10.07,16.02.85,1.35,1.65,2.82,2.46,4.17.82,1.3,2.06,2.28,3.51,2.78,3.07.95,6.34,1.07,9.47.34l-.36.48v-.54c-1.83-22.93-3.59-44.81-5.18-64.76-.4-4.98-.79-9.84-1.17-14.57-.18-2.38-.36-4.69-.54-6.99-.12-1.13-.14-2.32-.32-3.36-.2-1.06-.6-2.08-1.19-2.98-1.15-1.78-2.94-3.07-5-3.59-2.05-.3-4.13-.3-6.19,0l-11.91.95h-.12l-36.27-11.18-9.89-3.1-2.6-.83-.89-.3.85.22,2.56.75,9.85,2.92,36.53,10.9h-.12l11.89-.99,3.14-.26c1.1-.12,2.21-.04,3.28.22,3.45.84,6.1,3.62,6.77,7.11.2,1.21.22,2.3.34,3.47.18,2.3.38,4.61.56,6.99.38,4.71.79,9.59,1.19,14.57,1.63,19.95,3.41,41.81,5.26,64.76v.93h-.38c-3.33.79-6.81.65-10.07-.38-1.67-.56-3.09-1.67-4.03-3.16-.85-1.43-1.59-2.78-2.44-4.15-3.32-5.48-6.69-10.82-10.07-16.02l-18.86-29.58.24.18-46.64-11.04h-.3v-.3c3.12-14.69,5.62-26.5,7.35-34.68l2.01-9.29.52-2.38c.5-.46.58-.73.58-.73Z"/>
    <path class="cls-2" d="M553.66,729.18l14.1,5.22c1.98.71,3.08,2.81,2.54,4.84l-11.79,45.84c-.51,2.03-2.49,3.34-4.55,3l-13.12-2.01c-2.2-.31-3.74-2.34-3.43-4.55.02-.15.05-.3.09-.45l12.45-49.97c.4-1.5,1.95-2.4,3.45-1.99.09.02.17.05.25.08Z"/>
    <path class="cls-9" d="M553.66,729.18c-.49-.09-.98-.09-1.47,0-.59.12-1.11.44-1.49.91-.46.69-.75,1.47-.85,2.3-.91,3.79-2.18,9.13-3.75,15.68s-3.57,14.51-5.7,23.25l-1.65,6.71c-.28,1.13-.54,2.28-.83,3.45-.32,1.68.57,3.37,2.16,4.03.55.2,1.11.32,1.69.36l3.73.56,7.62,1.13c.59.13,1.2.2,1.81.18.57-.07,1.12-.26,1.61-.56.48-.31.88-.72,1.17-1.21.27-.53.46-1.09.56-1.67.64-2.46,1.27-4.86,1.87-7.23l3.55-13.68,6.04-23.15c.27-.75.39-1.54.36-2.34-.07-.74-.37-1.44-.85-2.01-.87-1.15-2.4-1.39-3.65-2.01l-6.47-2.48-4.03-1.59c-.49-.17-.96-.38-1.41-.62.5.11.99.26,1.47.44l4.15,1.45,6.53,2.32,2.01.73c.79.24,1.49.7,2.01,1.33.54.65.89,1.45.99,2.3.05.87-.07,1.74-.34,2.56l-5.86,23.19c-1.13,4.37-2.3,8.93-3.51,13.7l-1.85,7.23c-.13.67-.35,1.31-.66,1.91-.37.62-.87,1.14-1.47,1.53-.92.58-2.01.81-3.08.66l-.97-.16-7.62-1.13-3.73-.56c-.65-.07-1.3-.22-1.91-.44-1.94-.83-3.05-2.88-2.68-4.96.28-1.23.58-2.34.87-3.51.56-2.28,1.13-4.51,1.69-6.69,2.2-8.72,4.19-16.58,5.88-23.21s3.06-11.83,4.03-15.62c.12-.86.45-1.68.97-2.38.44-.49,1.03-.81,1.67-.91.38-.09.77-.09,1.15,0,.12.14.24.22.22.22Z"/>
    <path class="cls-9" d="M567.91,745.04c-5.56-4.92-13.34-6.46-20.35-4.03,3.5-.27,7.02-.15,10.5.36,3.41.86,6.71,2.09,9.85,3.67Z"/>
    <path class="cls-9" d="M564.42,762.27c-3.19-1.67-6.57-2.92-10.07-3.73-3.41-1.14-6.95-1.86-10.54-2.14,3.35,1.29,6.78,2.34,10.28,3.14,3.38,1.14,6.83,2.05,10.34,2.72Z"/>
    <path class="cls-9" d="M559.1,780.28c0-.36-5.06,0-10.5-2.54-3.21-1.68-6.15-3.82-8.74-6.35.39,1.04,1.02,1.97,1.83,2.72,1.82,1.95,4.01,3.53,6.43,4.65,2.43,1.11,5.05,1.75,7.72,1.87,1.1.13,2.22,0,3.26-.36Z"/>
    <path class="cls-9" d="M632.32,768.37c0-.16-1.65-.2-4.19-.83-6.71-1.58-12.37-6.08-15.41-12.27-1.17-2.34-1.57-4.03-1.75-3.91.06,1.47.43,2.9,1.09,4.21,1.38,3.28,3.56,6.17,6.35,8.38,2.78,2.21,6.07,3.69,9.57,4.31,1.43.35,2.91.38,4.35.1Z"/>
    <path class="cls-9" d="M637.18,822.33c-1-.43-2.09-.62-3.18-.54-2.66-.02-5.27.74-7.52,2.18-2.2,1.45-4.07,3.34-5.48,5.56-.68.85-1.18,1.83-1.45,2.88.14,0,.83-.93,2.01-2.44,1.53-1.99,3.38-3.72,5.46-5.12,2.1-1.33,4.49-2.13,6.97-2.32,1.07.03,2.13-.03,3.18-.2Z"/>
    <path class="cls-9" d="M527.57,782.46c9.13-11.91,12.81-27.2,13.48-42.17.38-3.33-.12-6.7-1.47-9.77-1.43-2.31-3.37-4.25-5.68-5.68-3.38-2.37-7-4.39-10.78-6.04-1.04-.63-2.3-.75-3.45-.34-1.25.69-1.43,2.36-1.49,3.77-.77,17.98-4.98,35.64-12.41,52.02-1.16,2.48-.08,5.43,2.4,6.59.47.22.96.36,1.47.42l8.6,1.15c3.09.48,6.23.5,9.33.06Z"/>
    <path class="cls-4" d="M527.57,782.46l-.4.1-1.25.2c-1.59.18-3.2.22-4.8.14-2.01,0-4.61-.46-7.56-.81-1.47-.2-3-.32-4.71-.64-1.86-.51-3.29-1.99-3.73-3.87-.23-1-.17-2.04.16-3,.38-.95.79-1.81,1.19-2.76.79-1.87,1.57-3.81,2.34-5.86,1.53-4.03,2.98-8.52,4.25-13.26,2.73-10.3,4.32-20.87,4.73-31.51.07-.77.31-1.52.71-2.2.45-.69,1.19-1.14,2.01-1.21,1.47.13,2.89.57,4.17,1.31,2.49,1.18,4.89,2.52,7.19,4.03,2.3,1.36,4.42,3.01,6.29,4.92,1.76,1.95,2.85,4.42,3.08,7.03.22,2.41.22,4.84,0,7.25-.14,2.34-.38,4.59-.64,6.77-.52,4.03-1.31,8.03-2.38,11.95-1.55,5.67-3.88,11.09-6.91,16.12-.83,1.39-1.74,2.74-2.72,4.03l-.77.97c-.08.12-.18.23-.28.32.05-.14.13-.27.22-.38.18-.28.42-.62.69-1.05.62-.87,1.51-2.24,2.54-4.03,2.91-5.06,5.13-10.48,6.61-16.12,1.04-3.9,1.81-7.88,2.3-11.89.26-2.16.48-4.41.6-6.73.22-2.36.22-4.73,0-7.09-.22-2.44-1.23-4.74-2.88-6.55-1.81-1.83-3.84-3.43-6.04-4.76-2.28-1.44-4.65-2.73-7.09-3.87-1.15-.66-2.41-1.08-3.73-1.23-1.23,0-1.85,1.27-2.01,2.62-.44,10.67-2.08,21.26-4.88,31.57-1.23,4.51-2.68,8.95-4.35,13.32-.77,2.01-1.59,4.03-2.4,5.86-.4.93-.85,1.85-1.19,2.72-.31.84-.37,1.75-.16,2.62.36,1.65,1.6,2.98,3.22,3.45,1.57.32,3.2.46,4.65.71,2.92.38,5.44.83,7.5.97,1.59.1,3.19.1,4.78,0l1.23-.1c.28-.08.42-.08.42-.06Z"/>
    <path class="cls-4" d="M522.49,717.05c-.2.12-1.71-2.64-4.63-6.73-3.83-5.3-8.29-10.12-13.3-14.33-5.03-4.19-10.57-7.73-16.48-10.54-4.55-2.16-7.52-3.14-7.46-3.36.74.04,1.48.2,2.18.46,1.94.55,3.83,1.22,5.68,2.01,12.35,5.22,22.87,13.99,30.22,25.21,1.11,1.68,2.11,3.42,3,5.22.36.64.63,1.34.79,2.06Z"/>
    <path class="cls-4" d="M607.38,677.14c-1.38,1.91-2.91,3.71-4.57,5.38-2.88,3.26-6.73,7.9-10.6,13.28s-6.99,10.52-9.17,14.29c-1.04,2.11-2.26,4.13-3.63,6.04.65-2.29,1.59-4.49,2.78-6.55,2.59-5.1,5.57-9.99,8.91-14.63,3.33-4.64,7-9.04,10.98-13.14,1.57-1.77,3.35-3.34,5.3-4.67Z"/>
    <path class="cls-9" d="M497.93,241.2c-3.55-2.83-8.21-3.84-12.61-2.72-1.67.73-3.54.92-5.32.52-1.1-.69-2.07-1.56-2.88-2.58-3.12-2.62-7.77-2.21-10.39.91-.05.06-.1.12-.15.18-.46.87-1.07,1.65-1.79,2.32-3.26,2.26-8.06-3.75-11.18-1.45,1.65.39,3.14,1.28,4.27,2.54,1.13,1.32,1.2,3.25.18,4.65-2.88,3.28-9.07-2.42-12.39.42-1.79,1.53-1.63,4.9-3.83,5.74-.89.2-1.81.25-2.72.14-3.2.18-5.71,2.84-5.7,6.04,0,2.6,1.77,5.58,0,7.56-1.25,1.06-2.9,1.51-4.51,1.25.34,2.37,1.22,4.63,2.58,6.61-3.94,3.22-4.61,9-1.51,13.04-1.96,1.75-3.55,3.86-4.69,6.23-1.14,2.43-.78,5.29.91,7.37.45.39.85.84,1.19,1.33.24.6.33,1.25.24,1.89-.46,2.44-.64,4.93-.54,7.41.4,2.44,2.58,4.92,5.02,4.37.56-.12,1.17-.4,1.69-.14.38.23.65.6.75,1.03.39,1.75.5,3.55.34,5.34-.17,1.8.35,3.59,1.45,5.02,1.12,1.29,3.06,1.42,4.35.31.11-.09.21-.2.31-.31-.34,2.84-.71,5.66-1.05,8.5-.2,1.69-.28,3.69,1.07,4.73,1.75,1.37,4.41-.24,5.36-2.26s.95-4.37,2.01-6.37c.48-.77.88-1.58,1.19-2.44.06-.72.28-1.41.66-2.01.99-1.07,2.9.26,2.92,1.69-.16,1.38-.69,2.69-1.55,3.79-.92,1.15-1.07,2.73-.38,4.03.42.56,1.13.87,1.53,1.43,1.45,2.01-1.35,4.35-1.41,6.77.24,1.79,1.3,3.37,2.86,4.27,1.73,1.31,4.86,2.16,5.56.1.1-.74.16-1.49.18-2.24.3-.84.8-1.59,1.45-2.2,1.44-1.68,2.35-3.75,2.62-5.94-1.53,2.48-3.06,5.7-1.43,8.06.78.93,1.71,1.73,2.74,2.38,1.87,1.49,3.18,3.59,5.04,5.1s4.67,2.36,6.59.93c-.43,2.95,1.62,5.69,4.57,6.12,1.95.28,3.89-.52,5.08-2.09.32-.58.76-1.08,1.29-1.47.64-.25,1.34-.33,2.01-.22,4.39.14,8.48-2.2,10.6-6.04l-2.22-.46c4.18-.77,8.13-2.51,11.53-5.08,3.14-2.82,4.78-7.82,2.48-11.38-.99-1.53-2.72-3.02-2.26-4.8.32-1.23,1.57-2.01,2.7-2.5l14.1-7.15c2.4-.96,4.49-2.55,6.04-4.61,1.33-2.2,1.03-5.58-1.27-6.71.86-2.46,2.39-4.62,4.43-6.25,2.28-1.79,5.08-2.84,7.43-4.53s4.35-4.47,3.79-7.31-4.82-4.55-6.53-2.2c-.16-4.37,7.52-5.66,7.62-10.07.1-3.55-4.61-4.78-7.27-7.15.32-1.27,1.45-2.2,1.81-3.47.73-2.64-2.22-4.82-4.84-5.66-2.62-.85-5.78-1.65-6.73-4.23s.99-6.04-.79-8.2c-1.06-1.22-2.88-1.43-4.19-.48-2.64-4.71-11.55.26-14.89-4.03-.28-.33-.45-.74-.48-1.17.02-.37.14-.73.34-1.05,1.1-1.37,2.36-2.61,3.75-3.69,1.39-1.14,1.92-3.03,1.33-4.73-.85-1.55-3.93-1.09-3.67.64-1.86-1.08-4.24-.45-5.32,1.4-.15.26-.28.54-.36.84-1.59-1.16-3.77-1.08-5.26.2-1.41,1.3-2.49,2.92-3.16,4.71"/>
    <path class="cls-6" d="M481.49,299.31c.79-7.33,5.48-13.72,10.86-18.78,2.14-2.27,4.8-3.97,7.76-4.96,3.03-.93,6.33.01,8.42,2.4l.12,5.16c1.51,8.06-4.03,15.62-6.27,23.55-.95,3.45-1.59,7.54-4.71,9.29-1.7.85-3.66,1.05-5.5.54-7.21-1.67-11.46-9.87-10.68-17.21Z"/>
    <path class="cls-9" d="M484.77,337.09c-5.26-6.01-5.45-14.92-.46-21.16-3.36-3.49-2.82-9.41-.1-13.42,2.72-4.01,7.07-6.57,11.28-9.01,1.93-11.65,12.62-19.78,24.36-18.52,4.98-8.93,17.07-11.36,27.12-9.41,2.42.65,4.91.95,7.41.91,1.81-.31,3.6-.72,5.36-1.25,9.85-2.26,20.37,3.83,25.11,12.71.65,1.45,1.49,2.8,2.5,4.03,1.6,1.4,3.37,2.6,5.28,3.55,3.89,2.51,6.5,6.59,7.15,11.18.52,3.83-.34,8.06,1.61,11.4,1.21,1.51,2.34,3.09,3.38,4.71,2.34,5.14-3.06,11.1-1.47,16.5.32,1.09.93,2.01,1.35,3.16.84,2.22.84,4.67,0,6.89-.89,1.58-1.47,3.32-1.71,5.12.21,1.39.61,2.74,1.17,4.03.99,3.22-4.96,16.54-7.66,18.58l-84.99,8.56c-6.72-.86-12.15-5.88-13.54-12.51-.06-1.1-.44-2.15-1.09-3.04-.72-.6-1.56-1.04-2.46-1.29-5.74-2.44-7.09-9.87-7.07-16.12.05-.87-.05-1.74-.28-2.58-.54-1.15-1.31-2.19-2.26-3.04Z"/>
    <path class="cls-3" d="M508.41,334.97c-1.61-14.99,6.25-33.1,20.53-41.81,8.99-5.5,16.34-6.21,21.26-7.23,6.89-1.3,14.02-.47,20.43,2.36,4.8.66,23.41,14.77,25.87,31.71,2.72,18.82,5.3,41.89,4.19,56.18-2.24,28.75-23.76,34.13-23.76,34.13l2.9,21.46-29.96,17.85-31.79-13.42-9.67-101.23Z"/>
    <path class="cls-8" d="M558.88,376.38c.03-1.36.54-2.66,1.45-3.67,1.72-1.93,4.51-2.47,6.83-1.33,2.28,1.15,2.88,3.55,2.86,6.35h0c-.95,1.75-1.59,3.47-3.55,3.91-.31.06-.62.11-.93.14-1.55.21-3.13-.17-4.41-1.07-1.37-1.02-2.2-2.62-2.26-4.33Z"/>
    <path class="cls-9" d="M578.4,343.17c.38-.54,3.41,1.11,7.31.56,3.91-.54,6.49-2.88,6.99-2.48s-.12,1.11-1.23,2.18c-1.53,1.4-3.46,2.3-5.52,2.56-2.03.29-4.09-.07-5.9-1.03-1.33-.77-1.85-1.55-1.65-1.79Z"/>
    <path class="cls-9" d="M571.09,364.21c2.02-.82,4.13-1.38,6.29-1.67.99-.18,1.91-.46,2.01-1.15,0-1.04-.31-2.06-.91-2.92-1.15-2.34-2.34-4.8-3.59-7.37-5-10.5-8.68-19.18-8.26-19.36s4.82,8.06,9.81,18.66l3.47,7.43c.72,1.15,1.02,2.52.83,3.87-.24.74-.8,1.34-1.53,1.61-.54.19-1.1.31-1.67.36-2.12.45-4.28.64-6.45.54Z"/>
    <path class="cls-8" d="M576.97,410.31c-13.42,1.3-26.93-1.13-39.05-7.03,0,0,11.75,19.16,40.04,14.2l-.99-7.17Z"/>
    <path class="cls-9" d="M591.46,322.82c-.58,1.01-3.65.6-7.13,1.19-3.49.58-6.33,1.73-7.17.93-.38-.38,0-1.35,1.07-2.4,1.57-1.35,3.49-2.21,5.54-2.48,2.05-.35,4.15-.08,6.04.77,1.33.69,1.89,1.51,1.65,1.99Z"/>
    <path class="cls-9" d="M554.21,345.53c-.5-.42-3,2.01-6.93,2.42-3.93.4-7.01-1.13-7.37-.58-.18.22.38,1.03,1.73,1.77,1.85.98,3.97,1.35,6.04,1.07,2.04-.23,3.95-1.11,5.44-2.52,1.05-1.07,1.35-1.97,1.09-2.16Z"/>
    <path class="cls-9" d="M536.21,328.62c.89.79,3.79-.48,7.41-.97s6.77-.2,7.37-1.21c.26-.48-.32-1.31-1.77-2.01-3.99-1.63-8.55-.95-11.91,1.75-1.23,1.07-1.53,2.04-1.11,2.44Z"/>
    <path class="cls-3" d="M515.9,361.49c-.18-2.01-3.02-6.89-5.16-7.05-5.64-.42-15.7.85-14.65,15.01,1.45,19.34,20.63,13.9,20.63,13.36s-.22-14.02-.83-21.32Z"/>
    <path class="cls-8" d="M510.85,376.19s-.32.26-.87.56c-.78.41-1.69.49-2.54.24-2.01-.58-4.03-3.71-4.41-7.19-.17-1.66.02-3.33.58-4.9.27-1.28,1.16-2.34,2.38-2.82.77-.25,1.61.08,2.01.79.3.5.2.91.32.93s.38-.34.16-1.13c-.14-.48-.44-.89-.85-1.17-.59-.39-1.33-.52-2.01-.34-1.59.44-2.85,1.68-3.3,3.26-.69,1.74-.96,3.62-.77,5.48.4,3.89,2.68,7.39,5.54,8.06,1.08.23,2.2-.04,3.06-.73.69-.64.77-1.05.69-1.05Z"/>
    <path class="cls-9" d="M601.56,319.92c-4.13-2.14-6.89-5.24-7.03-9.87-2.54.99-5.44-2.14-7.13-4.25s-3.67-3.1-3.77-5.8c.04-.54-.07-1.09-.32-1.57-.44-.71-1.39-.87-2.22-1.05-4.3-1.01-7.8-4.14-9.29-8.3-4.04,2.15-8.54,3.27-13.12,3.26-2.94,5.05-9.41,6.76-14.46,3.82-1.35-.78-2.5-1.86-3.39-3.14-1.14,2.49-3.3,4.37-5.92,5.14-2.62.76-5.33,1.13-8.06,1.11,1.47,5.34-1.22,10.96-6.31,13.16-.66.26-1.45.54-1.71,1.21s.14,1.45.46,2.14c1.89,4.46-.2,9.6-4.66,11.49-.1.04-.2.08-.3.12,2.88,2.15,3.47,6.23,1.32,9.11-.31.42-.67.8-1.07,1.13-.66.48-1.55,1.07-1.37,1.87.09.31.26.58.48.81,1.75,1.63,2.99,3.73,3.59,6.04.51,2.45-1,4.88-3.43,5.5,1.46.9,2.48,2.36,2.82,4.03.16,1.67-2.8,5.42-4.43,4.96-.69-.2-9.57-3.75-9.57-3.75-6.04-6.99.14-15.76,0-25-.03-9.3,2.1-18.49,6.25-26.82,1.6-3.56,3.67-6.88,6.15-9.89,3.02-3.27,6.4-6.19,10.07-8.7,4.49-3.68,9.54-6.61,14.97-8.66,10.28-3.32,21.46-.42,31.59,3.28,3.9,1.27,7.62,3.06,11.04,5.32,3.89,3.01,7.22,6.68,9.83,10.84,4.17,5.75,7.11,12.3,8.62,19.24"/>
    <path class="cls-4" d="M604.72,312.83c-.3-.73-.71-1.41-1.21-2.01-.46-.62-1.11-1.31-1.73-2.24-.71-1.06-1.19-2.26-1.39-3.53-.24-1.58-.34-3.18-.3-4.78.05-1.93-.16-3.86-.62-5.74-.61-2.15-1.65-4.15-3.06-5.88-.77-.95-1.65-1.8-2.62-2.54-1.03-.75-2.11-1.43-3.24-2.01-1.17-.58-2.24-1.36-3.16-2.3-.86-1.06-1.58-2.23-2.14-3.49-1.34-2.66-3.15-5.06-5.34-7.09-2.34-2.21-5.07-3.95-8.06-5.14-1.55-.61-3.17-1.07-4.82-1.35-1.71-.27-3.44-.32-5.16-.16-.87.09-1.74.23-2.6.42-.85.2-1.69.46-2.54.69-1.68.5-3.44.65-5.18.44-1.77-.2-3.53-.69-5.36-.99-3.73-.62-7.53-.62-11.26,0-1.91.31-3.79.82-5.6,1.51-3.76,1.39-7,3.92-9.25,7.23l-.62,1.01.28-.14c-5.89-.71-11.82,1.01-16.42,4.76-4.5,3.44-7.46,8.5-8.26,14.1l.14-.22c-2.25,1.25-4.42,2.64-6.51,4.15-2.03,1.48-3.77,3.32-5.14,5.42-1.29,2.07-1.99,4.45-2.01,6.89-.05,2.36.81,4.65,2.4,6.39v-.48c-2.38,2.91-3.67,6.56-3.65,10.32-.06,3.36.93,6.65,2.82,9.43.42.65.9,1.25,1.43,1.81.52.51,1.02,1.05,1.49,1.61.42.54.71,1.18.85,1.85.09.67.13,1.34.12,2.01-.03,2.47.24,4.93.81,7.33.43,1.94,1.24,3.79,2.38,5.42.86,1.21,1.98,2.2,3.28,2.9,1.05.56,2.01.75,2.48,1.07.27.14.52.31.75.52-.19-.24-.43-.44-.71-.58-.52-.34-1.43-.56-2.46-1.15-1.27-.7-2.35-1.69-3.16-2.88-1.1-1.62-1.87-3.44-2.28-5.36-.54-2.39-.8-4.83-.77-7.27.02-.67-.01-1.35-.1-2.01-.12-.74-.43-1.43-.91-2.01-.46-.58-.96-1.13-1.49-1.65-.51-.56-.97-1.15-1.39-1.77-1.82-2.72-2.76-5.93-2.7-9.21-.03-3.67,1.23-7.24,3.57-10.07l.14-.16-.14-.16c-1.5-1.65-2.31-3.81-2.26-6.04.03-2.33.69-4.62,1.91-6.61,1.34-2.04,3.04-3.82,5.02-5.26,2.07-1.47,4.23-2.82,6.47-4.03h.12v-.2c.8-5.42,3.7-10.31,8.06-13.62,4.48-3.65,10.24-5.32,15.98-4.63h.2v-.18c.2-.32.4-.64.62-.97,2.18-3.21,5.31-5.67,8.95-7.01,1.78-.68,3.62-1.18,5.5-1.49,1.85-.29,3.71-.43,5.58-.42,1.84.02,3.67.18,5.48.5,1.81.28,3.57.77,5.4.97.9.09,1.82.09,2.72,0,.9-.09,1.79-.26,2.66-.52.87-.22,1.69-.48,2.54-.69.83-.18,1.67-.32,2.52-.4,1.66-.16,3.34-.12,5,.12,1.61.27,3.19.72,4.71,1.33,2.91,1.16,5.58,2.87,7.86,5.02,2.14,1.99,3.92,4.33,5.26,6.93.58,1.29,1.33,2.49,2.22,3.59.96.96,2.07,1.76,3.28,2.36,1.12.59,2.19,1.26,3.2,2.01.95.71,1.82,1.54,2.58,2.46,1.39,1.68,2.42,3.64,3.02,5.74.47,1.84.69,3.74.66,5.64-.02,1.62.1,3.24.36,4.84.23,1.28.73,2.5,1.47,3.57.64.93,1.31,1.61,1.77,2.2.38.44.72.92,1.03,1.41l.52.5Z"/>
    <path class="cls-4" d="M528.62,269.99s.48-.34,1.39-.89c1.28-.75,2.68-1.28,4.13-1.57,2.14-.45,4.37-.32,6.45.38,2.53.89,4.71,2.55,6.25,4.76.46.63.84,1.3,1.15,2.01.3.64.3,1.38,0,2.01l-.42.71.77-.28c1.96-.72,4.13-.65,6.04.2,1.52.69,2.77,1.85,3.59,3.3.54.97.89,2.03,1.03,3.12.1.77,0,1.21.1,1.21s0-.1,0-.32c.02-.3.02-.6,0-.91-.16-2.96-1.93-5.59-4.61-6.85-2.03-.94-4.36-1.05-6.47-.3l.36.42c.37-.81.37-1.73,0-2.54-.32-.79-.72-1.54-1.21-2.24-1.6-2.31-3.89-4.04-6.55-4.94-2.17-.72-4.5-.81-6.73-.28-1.48.33-2.89.94-4.15,1.79-.44.3-.77.56-.99.75s-.14.42-.12.44Z"/>
    <path class="cls-4" d="M498.98,294.83c.22.24.47.45.75.62.72.52,1.5.97,2.32,1.33,1.26.58,2.64.87,4.03.85,1.74-.01,3.42-.67,4.69-1.85h-.42c.2.24.4.5.62.75s.48.48.73.71c2.7,2.31,6.26,3.33,9.77,2.8,1.04-.17,2.05-.49,3-.95.35-.17.67-.38.97-.62-1.29.54-2.65.94-4.03,1.17-1.5.16-3.01.05-4.47-.32-1.79-.43-3.45-1.29-4.84-2.5l-.71-.66-.58-.71-.22-.26-.22.22c-1.18,1.09-2.71,1.71-4.31,1.75-1.3.04-2.59-.18-3.79-.66-2.14-.89-3.22-1.75-3.28-1.65Z"/>
    <path class="cls-4" d="M490.23,313.73v.34c.12.33.29.63.5.91.84.99,2.02,1.63,3.3,1.79,1.89.18,3.79-.18,5.48-1.05.97-.44,2.01-.89,2.96-1.47,1.12-.56,1.99-1.51,2.48-2.66l.1-.32-.44.18c1.85,1.29,3.89,2.29,6.04,2.96,1.79.54,3.69.58,5.5.1,1.21-.31,2.32-.93,3.22-1.79.24-.24.46-.5.64-.79.12-.18.18-.3.16-.3s-.32.36-.97.93c-.92.77-2.01,1.31-3.18,1.57-1.74.39-3.54.31-5.24-.22-2.09-.69-4.06-1.68-5.86-2.94l-.32-.22-.12.4v.26c-.45,1.02-1.23,1.85-2.22,2.36-.95.56-2.01,1.01-2.88,1.45-1.6.86-3.41,1.26-5.22,1.15-1.21-.11-2.35-.67-3.18-1.55-.28-.35-.53-.71-.77-1.09Z"/>
    <path class="cls-4" d="M463.68,246.29h.93c.86.17,1.66.6,2.28,1.23.99.95,1.61,2.21,1.77,3.57.18,1.78.08,3.58-.28,5.34v.3h.34c2.39-.27,4.8.25,6.87,1.47,2.36,1.36,3.94,3.76,4.25,6.47.31,2.46-.54,4.93-2.3,6.69l-.6.56h.83c2.79-.23,5.55.71,7.62,2.6,1.63,1.51,2.68,3.54,2.98,5.74.21,1.44.1,2.91-.3,4.31-.28.99-.54,1.49-.5,1.51s0-.1.22-.34c.19-.35.35-.72.46-1.11,1.28-3.68.29-7.76-2.52-10.46-2.16-2.04-5.09-3.07-8.06-2.82l.22.48c2.95-3.03,3.37-7.72.99-11.22-.8-1.15-1.84-2.11-3.04-2.82-2.18-1.27-4.71-1.79-7.21-1.49l.26.28c.34-1.8.41-3.64.2-5.46-.22-1.44-.93-2.75-2.01-3.73-.68-.63-1.54-1.04-2.46-1.15-.23-.02-.47-.02-.71,0-.12.02-.22.02-.22.04Z"/>
    <path class="cls-4" d="M432.57,291.11l.32.16,1.01.36c1.31.38,2.67.56,4.03.54,2.08,0,4.13-.41,6.04-1.23,2.46-1.02,4.59-2.69,6.19-4.82h-.58c2.14,3.04,5.52,4.96,9.23,5.24,4.03.21,7.75-2.17,9.25-5.92h-.34c.58,1.24,1.48,2.3,2.6,3.08,1.01.7,2.14,1.22,3.32,1.53,1.98.47,4.04.51,6.04.12,1.28-.23,2.53-.53,3.77-.93.45-.11.88-.28,1.29-.48l-1.35.3c-1.23.33-2.49.59-3.75.79-1.96.31-3.96.2-5.88-.3-2.41-.58-4.44-2.19-5.56-4.39l-.28-.62-.22.64c-1.43,3.5-4.91,5.71-8.68,5.52-3.54-.27-6.77-2.09-8.83-4.98l-.22-.3-.22.3c-1.52,2.07-3.57,3.7-5.92,4.71-1.85.82-3.84,1.27-5.86,1.33-1.82.04-3.63-.19-5.38-.66Z"/>
    <path class="cls-4" d="M455.25,317.76c.07.12.15.23.26.32.33.25.73.39,1.15.4,1.47,0,2.91-.38,4.21-1.07,1.97-.99,3.58-2.57,4.59-4.53,1.25-2.4,1.54-5.19.81-7.8h0l-.4.34c2.53.91,5.29,1,7.88.24,2.1-.56,4.04-1.59,5.68-3.02,1.1-.95,2.06-2.05,2.86-3.26.32-.42.57-.89.75-1.39-1.1,1.6-2.4,3.06-3.87,4.33-1.62,1.34-3.52,2.3-5.56,2.82-2.49.64-5.12.49-7.52-.44l-.52-.2.14.56h0c.69,2.47.44,5.1-.71,7.39-.96,1.87-2.46,3.41-4.31,4.41-1.24.69-2.61,1.11-4.03,1.21-.49.06-.99-.06-1.41-.32Z"/>
    <path class="cls-4" d="M506.15,243.45c.82,1.85,1.29,3.84,1.39,5.86.16,6.66-4.63,12.41-11.2,13.48h-.34l.12.32c1.43,3.56,1.62,7.5.54,11.18-.17.61-.39,1.21-.64,1.79-.17.43-.52.76-.97.89-.28.05-.57-.01-.81-.18-.14-.12-.18-.22-.2-.22s0,.12.14.3c.23.23.56.34.89.28.53-.09.98-.44,1.19-.93.3-.58.55-1.19.75-1.81.56-1.62.88-3.31.93-5.02.02-2.19-.39-4.35-1.19-6.39l-.22.38c1.59-.26,3.12-.79,4.53-1.57,2.44-1.35,4.42-3.41,5.66-5.9,1.65-3.45,1.77-7.44.32-10.98-.21-.48-.4-.85-.54-1.09-.1-.15-.21-.28-.34-.4Z"/>
    <path class="cls-9" d="M560.39,370.15c.54-.16,1.33,3.51,5.04,5.42s7.52.69,7.66,1.19c.1.2-.73.89-2.36,1.29-2.14.49-4.39.21-6.35-.79-1.89-.94-3.34-2.59-4.03-4.59-.38-1.47-.16-2.52.04-2.52Z"/>
    <rect class="cls-2" x="509.3" y="313.16" width="105.66" height="42.41" rx="13.42" ry="13.42" transform="translate(-28.97 54.39) rotate(-5.4)"/>
    <path class="cls-2" d="M499.94,357.13s-2.32-2.8,1.59-11.65c4.61-10.52,8.74-20.15,8.74-20.15l10.62,33.41-8.87-4.37-12.09,2.76Z"/>
    <rect class="cls-4" x="511.63" y="309.7" width="105.66" height="42.41" rx="13.42" ry="13.42" transform="translate(-28.64 54.59) rotate(-5.4)"/>
    <path class="cls-9" d="M605.69,348.29s.95-.12,2.68-.64c2.5-.84,4.7-2.39,6.35-4.45,1.17-1.48,2.01-3.2,2.46-5.04.26-1.04.4-2.11.4-3.18,0-1.11-.18-2.3-.3-3.51-.24-2.46-.5-5.06-.77-7.84-.14-1.37-.28-2.8-.42-4.27-.08-1.48-.37-2.93-.85-4.33-1.1-2.99-3.25-5.47-6.04-6.99-1.47-.8-3.08-1.31-4.73-1.51-1.76-.11-3.52-.04-5.26.22l-23.07,2.22-52.91,5.06c-4.55.44-8.54,3.25-10.48,7.39-.94,1.99-1.34,4.18-1.17,6.37.2,2.26.4,4.49.6,6.69s.42,4.41.62,6.59c.05,2.11.44,4.2,1.15,6.19,1.56,3.79,4.81,6.62,8.78,7.64,1.91.46,3.9.53,5.84.22l5.86-.54,11.22-1.03,20.15-1.85,29.16-2.58,7.92-.64,2.01-.14c.23-.03.47-.03.71,0l-.71.12-2.01.24-7.9.85-29.12,2.92-20.15,2.01-11.22,1.09-5.84.56c-2.06.32-4.16.24-6.19-.22-4.27-1.08-7.79-4.12-9.47-8.2-.75-2.08-1.17-4.27-1.23-6.49-.22-2.16-.42-4.35-.62-6.57s-.42-4.45-.62-6.71c-.18-2.37.25-4.74,1.25-6.89,2.07-4.51,6.38-7.58,11.32-8.06l52.91-4.96,23.09-2.14c1.86-.29,3.75-.36,5.62-.2,5.19.63,9.57,4.15,11.3,9.09.5,1.46.79,2.98.85,4.51.14,1.47.26,2.88.4,4.27.24,2.78.46,5.38.69,7.84.12,1.21.24,2.4.26,3.57-.02,1.12-.17,2.23-.46,3.3-1.18,4.59-4.68,8.22-9.23,9.57-.92.29-1.88.45-2.84.46Z"/>
    <path class="cls-9" d="M542.98,342.63c2.77-4.25,5.84-8.29,9.19-12.09,3.09-4.04,6.45-7.86,10.07-11.42-2.79,4.24-5.87,8.27-9.21,12.09-3.09,4.03-6.45,7.85-10.05,11.42Z"/>
    <path class="cls-9" d="M549.91,344.84c3.42-5.1,7.14-10.01,11.12-14.69,3.71-4.93,7.71-9.64,11.97-14.1-3.44,5.1-7.16,10-11.14,14.69-3.71,4.93-7.7,9.63-11.95,14.1Z"/>
    <path class="cls-9" d="M564.42,342.24c1.59-3.16,3.48-6.16,5.64-8.97,1.89-2.99,4.07-5.79,6.51-8.36-1.58,3.17-3.47,6.17-5.64,8.97-1.89,3-4.07,5.8-6.51,8.36Z"/>
    <path class="cls-3" d="M756.84,348.91c-1.21,14.1-8.24,32.24-8.24,32.24l-31.41,3.91s-14.75-24.96-18.82-34.84c-1-2.65-2.59-5.03-4.65-6.97-1.95-1.8-2.07-4.83-.27-6.78,1.4-1.52,3.61-1.97,5.49-1.12,2.32,1.78,4.35,3.9,6.04,6.29,2.15,3.17,4.12,6.47,5.88,9.87,1.89-3.04,3.02-6.5,3.28-10.07.18-5.78-2.94-27.64-3.08-33.67s3.45-6.67,6.77-5.5,2.82,26.86,5.82,27.91c0,0,5.1-2.34,8.06-1.05,1.92.89,3.64,2.15,5.08,3.71,0,0,3.04-3.45,6.04-2.72,2.27.85,4.21,2.4,5.54,4.43,0,0,2.8-3.22,4.96-2.26s4.51,6.06,3.51,16.62Z"/>
    <path class="cls-3" d="M715.05,382.04c-.42,1.43,9.31,21.22,0,48.7-2.01,5.78-1.77,6.57-1.77,6.57l22.77,9.41,15.53-8.06-3.61-58.81-32.92,2.2Z"/>
    <path class="cls-8" d="M740.58,368.68c-.18,0-.75-2.01-2.18-5.22-.83-1.83-1.92-3.53-3.22-5.06-1.63-1.85-3.71-3.24-6.04-4.03-4.33-1.22-8.9-1.3-13.28-.24-.83.23-1.71.19-2.52-.12-.57-.29-1.05-.74-1.39-1.29-.32-.41-.54-.9-.64-1.41,0,0,.36.44.97,1.17.33.44.78.78,1.29.99.7.22,1.44.22,2.14,0,4.5-1.33,9.28-1.33,13.78,0,2.48.83,4.69,2.32,6.39,4.31,1.34,1.62,2.41,3.45,3.16,5.42.53,1.31.96,2.65,1.27,4.03.18.46.28.95.28,1.45Z"/>
    <path class="cls-8" d="M735.97,333.14c.24.5.37,1.04.38,1.59.19,1.49.22,3,.1,4.49-.19,2.24-.69,4.44-1.51,6.53-.44,1.29-1.13,2.48-2.01,3.51-1.07,1.23-2.78,1.69-4.33,1.17-1.43-.61-2.56-1.76-3.14-3.2-.52-1.22-.93-2.49-1.21-3.79-.52-2.17-.78-4.4-.79-6.63,0-1.5.13-3,.4-4.47.04-.55.19-1.08.44-1.57.18,0-.26,2.32-.1,6.04.1,2.17.43,4.32.97,6.43.31,1.23.72,2.43,1.23,3.59.47,1.18,1.39,2.13,2.56,2.64,1.16.4,2.45.04,3.24-.91.83-.92,1.47-1.98,1.89-3.14.82-2,1.37-4.1,1.65-6.25.44-3.69.04-6,.22-6.02Z"/>
    <path class="cls-8" d="M748.02,334.22c.17.57.26,1.16.26,1.75.15,1.59.21,3.19.18,4.8-.01,2.41-.39,4.8-1.13,7.09-.43,1.41-1.16,2.71-2.14,3.81-1.1,1.26-2.68,1.99-4.35,2.01-.86,0-1.71-.25-2.44-.71-.73-.49-1.29-1.19-1.59-2.01-.51-1.37-.74-2.83-.69-4.29,0-2.58,0-4.98-.12-7.09-.12-2.18-.08-4.36.14-6.53.38,2.15.58,4.33.6,6.51.1,2.12.22,4.49.34,7.07-.02,1.33.19,2.66.64,3.91.52,1.25,1.75,2.05,3.1,2.01,1.38,0,2.69-.59,3.61-1.61.89-.99,1.58-2.15,2.01-3.41.74-2.21,1.17-4.51,1.29-6.83.18-3.97.02-6.49.26-6.49Z"/>
    <path class="cls-8" d="M757.35,345.97c.1,0,.32,1.07-.38,2.64-.95,2.07-2.88,3.51-5.14,3.83-1.33.21-2.67-.33-3.49-1.41-.59-.85-.9-1.85-.91-2.88-.08-.89.08-1.79.46-2.6.18,0,.1,1.03.28,2.54.09.85.41,1.66.93,2.34.62.77,1.62,1.14,2.6.97,1.93-.29,3.63-1.44,4.61-3.12.77-1.29.85-2.3,1.03-2.3Z"/>
    <path class="cls-6" d="M623.96,534.69l6.75-104.98c-17.69-7.29-52.19-7.64-52.19-7.64,0,0-.62,19.52-27.54,20.71-29.32,1.29-33.21-16.93-33.21-16.93l-54.24,12.25c-5.39,2.53-10.32,5.93-14.59,10.07l14.73,94.92,14.1,68.83-22,46.34s60.04,19.97,94.42,21.74c34.37,1.77,84.5-35.95,84.5-35.95l-16.66-36.27,5.92-73.12Z"/>
    <path class="cls-6" d="M450.54,446.72l-61.21,49-37.32,1.51s-9.23,56.28-3.18,63.05,10.34,13.44,23.41,13c13.08-.44,13.94-3.47,32.78-17.11,19.32-13.98,66.13-49.28,66.13-49.28l-20.61-60.16Z"/>
    <path class="cls-6" d="M626.44,428.98s24.18,4.03,42.53,7.39c12.39,2.21,24.91,3.66,37.48,4.33v-7.84l50.17-4.19s3.59,57.67-4.69,69.63c-8.28,11.97-128.85,2.8-128.85,2.8l3.36-72.13Z"/>
    <path class="cls-9" d="M629.93,452.48c.28,0-.56,11.24-1.89,25.05-1.33,13.8-2.64,24.98-2.92,24.94s.54-11.24,1.87-25.05c1.33-13.8,2.64-24.96,2.94-24.94Z"/>
    <path class="cls-9" d="M451.81,478.15c.28,0,2.78,10.42,5.56,23.41,2.78,13,4.82,23.55,4.51,23.61s-2.76-10.42-5.54-23.39c-2.78-12.98-4.76-23.57-4.53-23.63Z"/>
    <path class="cls-9" d="M717.67,479.92c-.43-.45-.8-.96-1.09-1.51-.64-.99-1.49-2.5-2.46-4.39-2.49-4.98-4.43-10.22-5.8-15.62-1.37-5.39-2.16-10.92-2.34-16.48v-5.04c-.02-.62.06-1.24.24-1.83.16,0,.14,2.62.46,6.85.77,10.99,3.5,21.76,8.06,31.79,1.79,3.85,3.06,6.15,2.92,6.23Z"/>
    <path class="cls-9" d="M391.38,544.18c-.18,0,.52-2.72,1.25-7.11,1.89-11.44,1.39-23.14-1.45-34.37-1.09-4.31-2.01-6.91-1.85-6.97.35.54.63,1.13.83,1.75.67,1.64,1.25,3.31,1.73,5.02,3.29,11.28,3.8,23.2,1.47,34.72-.34,1.73-.77,3.45-1.29,5.14-.15.64-.38,1.25-.69,1.83Z"/>
  </g>
</svg>