<?xml version="1.0" encoding="UTF-8"?>
<svg id="Layer_2" data-name="Layer 2" xmlns="http://www.w3.org/2000/svg" viewBox="0 0 1000 1000">
  <defs>
    <style>
      .cls-1, .cls-2, .cls-3, .cls-4, .cls-5, .cls-6, .cls-7, .cls-8 {
        stroke-width: 0px;
      }

      .cls-1, .cls-2, .cls-5 {
        fill: #000;
      }

      .cls-9, .cls-5 {
        opacity: .2;
      }

      .cls-2, .cls-5, .cls-8 {
        isolation: isolate;
      }

      .cls-2, .cls-10 {
        opacity: .1;
      }

      .cls-3 {
        fill: #f5f5f5;
      }

      .cls-4 {
        fill: #09f;
      }

      .cls-6 {
        fill: #ebebeb;
      }

      .cls-7 {
        fill: #263238;
      }

      .cls-8 {
        fill: #fff;
        opacity: .3;
      }
    </style>
  </defs>
  <g id="freepik--background-complete--inject-15">
    <rect class="cls-6" x="170.73" y="445.83" width="85.92" height="107.47" transform="translate(-288.88 706.07) rotate(-89.18)"/>
    <rect class="cls-3" x="176.06" y="449.61" width="75.09" height="99.92" transform="translate(-288.97 706.01) rotate(-89.18)"/>
    <polygon class="cls-6" points="163.14 536.39 198.68 490.2 219.87 519.72 234.78 504.31 263.03 537.81 163.14 536.39"/>
    <path class="cls-6" d="M229.55,484.93c-.06,4.34-3.63,7.81-7.97,7.75-4.34-.06-7.81-3.63-7.75-7.97.06-4.34,3.63-7.81,7.97-7.75,4.33.05,7.8,3.6,7.75,7.93,0,.02,0,.03,0,.05Z"/>
    <rect class="cls-6" x="489.73" y="802.83" width="85.92" height="107.47" transform="translate(-331.41 1376.93) rotate(-89.18)"/>
    <rect class="cls-3" x="495.06" y="806.61" width="75.09" height="99.92" transform="translate(-331.5 1376.87) rotate(-89.18)"/>
    <polygon class="cls-6" points="482.14 893.39 517.68 847.2 538.87 876.72 553.78 861.31 582.03 894.81 482.14 893.39"/>
    <path class="cls-6" d="M548.55,841.93c-.06,4.34-3.63,7.81-7.97,7.75-4.34-.06-7.81-3.63-7.75-7.97.06-4.34,3.63-7.81,7.97-7.75,4.33.05,7.8,3.6,7.75,7.93,0,.02,0,.03,0,.05Z"/>
    <rect class="cls-6" x="267.61" y="560.64" width="166.16" height="207.83" transform="translate(-318.82 1005.7) rotate(-89.18)"/>
    <rect class="cls-3" x="277.93" y="567.97" width="145.22" height="193.22" transform="translate(-318.99 1005.57) rotate(-89.18)"/>
    <polygon class="cls-6" points="252.93 735.79 321.67 646.46 362.65 703.55 391.47 673.74 446.12 738.54 252.93 735.79"/>
    <path class="cls-6" d="M381.36,636.27c-.12,8.4-7.02,15.1-15.42,14.99-8.4-.12-15.1-7.02-14.99-15.42.12-8.39,7.02-15.1,15.41-14.99,8.37.09,15.08,6.96,14.99,15.33,0,.03,0,.06,0,.09Z"/>
    <rect class="cls-6" x="807.76" y="480.83" width="137.08" height="171.46" transform="translate(297.26 1434.66) rotate(-89.18)"/>
    <rect class="cls-3" x="816.27" y="486.87" width="119.81" height="159.41" transform="translate(297.12 1434.55) rotate(-89.18)"/>
    <polygon class="cls-6" points="795.65 625.33 852.36 551.63 886.17 598.73 909.94 574.13 955.03 627.59 795.65 625.33"/>
    <path class="cls-6" d="M901.61,543.22c-.1,6.93-5.79,12.46-12.72,12.36-6.93-.1-12.46-5.79-12.36-12.72.1-6.93,5.79-12.46,12.72-12.36,6.91.08,12.44,5.74,12.37,12.65,0,.02,0,.05,0,.07Z"/>
    <rect class="cls-6" x="71.52" y="18.49" width="110.66" height="138.4" transform="translate(37.34 213.27) rotate(-89.18)"/>
    <rect class="cls-3" x="78.39" y="23.38" width="96.7" height="128.68" transform="translate(37.22 213.19) rotate(-89.18)"/>
    <polygon class="cls-6" points="61.72 135.14 107.51 75.68 134.79 113.68 153.97 93.86 190.38 136.98 61.72 135.14"/>
    <path class="cls-6" d="M147.26,68.88c-.07,5.6-4.67,10.08-10.28,10.01-5.6-.07-10.08-4.67-10.01-10.28.07-5.6,4.67-10.08,10.28-10.01,0,0,.01,0,.02,0,5.59.07,10.06,4.66,9.99,10.25,0,0,0,.02,0,.02Z"/>
    <rect class="cls-6" x="777.27" y="47.94" width="121.42" height="151.87" transform="translate(702.13 959.99) rotate(-89.18)"/>
    <rect class="cls-3" x="784.79" y="53.27" width="106.14" height="141.19" transform="translate(702.01 959.87) rotate(-89.18)"/>
    <polygon class="cls-6" points="766.51 175.93 816.75 110.67 846.71 152.37 867.75 130.6 907.68 177.94 766.51 175.93"/>
    <path class="cls-6" d="M860.38,103.21c-.11,6.11-5.16,10.98-11.27,10.87-6.11-.11-10.98-5.16-10.87-11.27.11-6.08,5.1-10.93,11.18-10.87,6.11.06,11.02,5.07,10.96,11.18,0,.03,0,.06,0,.09Z"/>
    <rect class="cls-6" x="526.73" y="516.19" width="116.61" height="145.87" transform="translate(-12.4 1165.67) rotate(-89.18)"/>
    <rect class="cls-3" x="533.97" y="521.31" width="101.93" height="135.61" transform="translate(-12.49 1165.56) rotate(-89.18)"/>
    <polygon class="cls-6" points="516.39 639.08 564.66 576.41 593.43 616.47 613.62 595.56 651.98 641.03 516.39 639.08"/>
    <path class="cls-6" d="M606.56,569.26c-.09,5.89-4.93,10.6-10.83,10.52-5.89-.09-10.6-4.93-10.52-10.83.09-5.89,4.93-10.6,10.83-10.52,5.89.08,10.6,4.93,10.52,10.83h0Z"/>
  </g>
  <g id="freepik--Floor--inject-15">
    <path class="cls-7" d="M973.05,970.38c0,.35-211.81.62-473.03.62s-473.07-.27-473.07-.62,211.77-.6,473.07-.6,473.03.27,473.03.6Z"/>
  </g>
  <g id="freepik--Images--inject-15">
    <rect class="cls-6" x="703.77" y="224.41" width="145.07" height="181.45" transform="translate(450.09 1086.86) rotate(-89.18)"/>
    <path class="cls-7" d="M868.04,243.89h-13.29l-37.16-.4-131.01-1.62.53-.49c-.6,43.16-1.28,92.65-2.02,145.02h0l-.58-.6,181.45,2.7-.49.47c.73-43.67,1.33-79.85,1.75-105.19.22-12.67.42-22.59.53-29.41,0-3.37.13-5.96.18-7.75.04-1.79,0-2.7,0-2.7v10.27c0,6.78-.16,16.67-.29,29.3-.31,25.4-.73,61.69-1.26,105.5v.49h-.49l-181.38-2.59h-.58v-.58h0c.78-52.37,1.51-101.86,2.21-145.02v-.55h.51l131.32,2.21,37.05.66,9.74.2h2.5l.75.07Z"/>
    <rect class="cls-4" x="712.81" y="230.77" width="126.8" height="168.72" transform="translate(450 1086.74) rotate(-89.18)"/>
    <polygon class="cls-4" points="690.91 377.31 750.96 299.34 786.75 349.16 811.88 323.17 859.6 379.72 690.91 377.31"/>
    <path class="cls-4" d="M803.09,290.44c-.11,7.34-6.15,13.2-13.49,13.08-7.34-.11-13.2-6.15-13.08-13.49.11-7.34,6.15-13.19,13.48-13.08,7.34.11,13.2,6.15,13.09,13.48,0,0,0,0,0,0Z"/>
    <polygon class="cls-5" points="690.91 377.31 750.96 299.34 786.75 349.16 811.88 323.17 859.6 379.72 690.91 377.31"/>
    <g class="cls-9">
      <path class="cls-1" d="M803.09,290.44c-.11,7.34-6.15,13.2-13.49,13.08-7.34-.11-13.2-6.15-13.08-13.49.11-7.34,6.15-13.19,13.48-13.08,7.34.11,13.2,6.15,13.09,13.48,0,0,0,0,0,0Z"/>
    </g>
    <rect class="cls-6" x="360.19" y="9.24" width="172.9" height="216.26" transform="translate(322.89 562.29) rotate(-89.18)"/>
    <path class="cls-7" d="M555.96,32.59h-4.07l-11.74-.11-44.29-.49-156.16-1.97.53-.51c-.73,51.44-1.55,110.43-2.41,172.86h0l-.58-.6,216.24,3.19-.49.49c.84-52.08,1.55-95.22,2.04-125.4.27-15.1.49-26.93.64-35.03,0-4.03.13-7.13.18-9.23s0-3.21,0-3.21v12.25c0,8.08-.2,19.93-.38,34.94-.35,30.25-.89,73.5-1.53,125.69v.49h-.47l-216.24-2.99h-.58v-.58h0c.91-62.43,1.77-121.4,2.52-172.86v-.51h.53l156.47,2.5,44.16.75,11.65.24h2.97l1,.09Z"/>
    <rect class="cls-4" x="369.84" y="16.82" width="151.14" height="201.07" transform="translate(321.69 561.04) rotate(-89.18)"/>
    <rect class="cls-8" x="369.84" y="16.82" width="151.14" height="201.07" transform="translate(321.69 561.04) rotate(-89.18)"/>
    <polygon class="cls-4" points="344.88 191.5 416.43 98.56 459.1 157.95 489.04 126.94 545.93 194.35 344.88 191.5"/>
    <circle class="cls-4" cx="462.73" cy="87.76" r="15.83" transform="translate(-7.62 63.36) rotate(-7.77)"/>
    <rect class="cls-6" x="693.92" y="415.12" width="71.99" height="90.06" transform="translate(259.36 1183.4) rotate(-89.18)"/>
    <path class="cls-7" d="M775.45,424.79h-6.64l-18.47-.13-64.93-.66.53-.51c-.29,21.44-.62,45.99-.97,71.97l-.55-.58h12.36l12.14.18,23.36.35,42.07.69-.47.47c.4-21.61.75-39.53.97-52.13.16-6.24.27-11.18.33-14.62,0-1.64,0-2.95.11-3.88s0-1.37,0-1.37v19.58c-.11,12.67-.29,30.69-.49,52.44v.47h-.49l-42.19-.53-23.36-.31-12.11-.18h-12.38c.51.53-.71-.71-.58-.6.4-25.98.75-50.53,1.09-71.97v-.51h.53l65.26,1.2,18.34.4,4.83.13h1.22l.49.11Z"/>
    <rect class="cls-4" x="697.95" y="418.3" width="62.93" height="83.73" transform="translate(258.86 1182.92) rotate(-89.18)"/>
    <rect class="cls-8" x="697.95" y="418.3" width="62.93" height="83.73" transform="translate(258.86 1182.92) rotate(-89.18)"/>
    <polygon class="cls-4" points="687.54 491 717.35 452.31 735.11 477.05 747.57 464.14 771.27 492.22 687.54 491"/>
    <path class="cls-4" d="M743.21,447.88c0,3.67-2.98,6.64-6.65,6.64-3.67,0-6.64-2.98-6.64-6.65,0-3.67,2.98-6.64,6.65-6.64.05,0,.1,0,.15,0,3.61.08,6.49,3.03,6.49,6.64Z"/>
    <rect class="cls-6" x="177.63" y="163.01" width="99.92" height="124.98" transform="translate(-1.14 449.84) rotate(-89.18)"/>
    <path class="cls-7" d="M290.78,176.53h-9.19l-25.6-.22-90.19-1.04.53-.49c-.4,29.74-.86,63.82-1.37,99.89.13.13-1.06-1.11-.53-.58h8.72l8.55.13,16.85.24,32.42.49,58.53.91-.49.47c.53-30.03.97-54.94,1.28-72.39.18-8.7.31-15.5.4-20.28,0-2.21.11-4.1.13-5.36s0-1.86,0-1.86v7.04c0,4.69,0,11.49-.16,20.15-.2,17.54-.47,42.56-.8,72.72v.47h-.49l-58.57-.64-32.42-.47-16.83-.22-8.57-.13h-8.72c.49.51-.73-.71-.6-.6.55-36.07,1.04-70.15,1.48-99.89v-.53h.51l90.5,1.55,25.49.51,6.64.16h1.71l.78-.02Z"/>
    <rect class="cls-4" x="183.84" y="167.4" width="87.34" height="116.19" transform="translate(-1.22 449.76) rotate(-89.18)"/>
    <polygon class="cls-4" points="168.79 268.34 210.13 214.61 234.8 248.94 252.09 231.02 284.98 270 168.79 268.34"/>
    <path class="cls-4" d="M246.05,208.48c-.07,5.05-4.23,9.08-9.28,9.01-5.05-.07-9.08-4.23-9.01-9.28.07-5.05,4.23-9.08,9.28-9.01,5.05.07,9.09,4.23,9.01,9.28,0,0,0,0,0,0Z"/>
    <polygon class="cls-2" points="168.79 268.34 210.13 214.61 234.8 248.94 252.09 231.02 284.98 270 168.79 268.34"/>
    <g class="cls-10">
      <path class="cls-1" d="M246.05,208.48c-.07,5.05-4.23,9.08-9.28,9.01-5.05-.07-9.08-4.23-9.01-9.28.07-5.05,4.23-9.08,9.28-9.01,5.05.07,9.09,4.23,9.01,9.28,0,0,0,0,0,0Z"/>
    </g>
    <rect class="cls-6" x="70.63" y="574.01" width="99.92" height="124.98" transform="translate(-517.57 747.97) rotate(-89.18)"/>
    <path class="cls-7" d="M183.78,587.53h-9.19l-25.6-.22-90.19-1.04.53-.49c-.4,29.74-.86,63.82-1.37,99.89.13.13-1.06-1.11-.53-.58h8.72l8.55.13,16.85.24,32.42.49,58.53.91-.49.47c.53-30.03.97-54.94,1.28-72.39.18-8.7.31-15.5.4-20.28,0-2.21.11-4.1.13-5.36s0-1.86,0-1.86v7.04c0,4.69,0,11.49-.16,20.15-.2,17.54-.47,42.56-.8,72.72v.47h-.49l-58.57-.64-32.42-.47-16.83-.22-8.57-.13h-8.72c.49.51-.73-.71-.6-.6.55-36.07,1.04-70.15,1.48-99.89v-.53h.51l90.5,1.55,25.49.51,6.64.16h1.71l.78-.02Z"/>
    <rect class="cls-4" x="76.84" y="578.4" width="87.34" height="116.19" transform="translate(-517.65 747.89) rotate(-89.18)"/>
    <polygon class="cls-4" points="61.79 679.34 103.13 625.61 127.8 659.94 145.09 642.02 177.98 681 61.79 679.34"/>
    <path class="cls-4" d="M139.05,619.48c-.07,5.05-4.23,9.08-9.28,9.01-5.05-.07-9.08-4.23-9.01-9.28.07-5.05,4.23-9.08,9.28-9.01,5.05.07,9.09,4.23,9.01,9.28,0,0,0,0,0,0Z"/>
    <polygon class="cls-2" points="61.79 679.34 103.13 625.61 127.8 659.94 145.09 642.02 177.98 681 61.79 679.34"/>
    <g class="cls-10">
      <path class="cls-1" d="M139.05,619.48c-.07,5.05-4.23,9.08-9.28,9.01-5.05-.07-9.08-4.23-9.01-9.28.07-5.05,4.23-9.08,9.28-9.01,5.05.07,9.09,4.23,9.01,9.28,0,0,0,0,0,0Z"/>
    </g>
    <rect class="cls-6" x="258.45" y="771.34" width="155.81" height="194.9" transform="translate(-537.16 1192.67) rotate(-89.18)"/>
    <path class="cls-7" d="M434.89,792.42h-14.33l-39.92-.35-140.65-1.62.83-.76c-.62,46.38-1.35,99.52-2.14,155.78.21.21-1.66-1.73-.83-.9h13.61l13.33.21,26.28.38,50.56.76,91.27,1.42-.76.73c.83-46.83,1.52-85.68,2-112.89.28-13.57.48-24.17.62-31.63,0-3.45.17-6.39.21-8.36s0-2.9,0-2.9v10.98c0,7.32,0,17.92-.24,31.42-.31,27.35-.73,66.37-1.24,113.41v.73h-.76l-91.34-1-50.56-.73-26.24-.35-13.36-.21h-13.61c.76.79-1.14-1.11-.93-.93.86-56.25,1.62-109.4,2.31-155.78v-.83h.79l141.14,2.42,39.75.79,10.36.24h2.66l1.21-.03Z"/>
    <rect class="cls-4" x="268.13" y="778.19" width="136.2" height="181.19" transform="translate(-537.28 1192.55) rotate(-89.18)"/>
    <polygon class="cls-4" points="244.65 935.59 309.13 851.82 347.6 905.34 374.57 877.4 425.85 938.18 244.65 935.59"/>
    <path class="cls-4" d="M365.14,842.25c-.12,7.88-6.59,14.17-14.47,14.05-7.88-.12-14.17-6.59-14.05-14.47.12-7.87,6.59-14.17,14.47-14.05,7.88.11,14.17,6.59,14.05,14.47,0,0,0,0,0,0Z"/>
    <polygon class="cls-2" points="244.65 935.59 309.13 851.82 347.6 905.34 374.57 877.4 425.85 938.18 244.65 935.59"/>
    <g class="cls-10">
      <path class="cls-1" d="M365.14,842.25c-.12,7.88-6.59,14.17-14.47,14.05-7.88-.12-14.17-6.59-14.05-14.47.12-7.87,6.59-14.17,14.47-14.05,7.88.11,14.17,6.59,14.05,14.47,0,0,0,0,0,0Z"/>
    </g>
    <rect class="cls-6" x="658.33" y="661.56" width="197.91" height="247.57" transform="translate(-38.82 1531.32) rotate(-89.18)"/>
    <path class="cls-7" d="M882.46,688.34h-18.2l-50.71-.44-178.66-2.06,1.05-.97c-.79,58.91-1.71,126.41-2.72,197.87.26.26-2.11-2.19-1.05-1.14h17.28l16.93.26,33.38.48,64.22.97,115.93,1.8-.97.92c1.05-59.48,1.93-108.83,2.54-143.39.35-17.24.61-30.7.79-40.18,0-4.39.22-8.11.26-10.61.04-2.5,0-3.68,0-3.68v13.95c0,9.3,0,22.77-.31,39.92-.39,34.74-.92,84.31-1.58,144.05v.92h-.97l-116.02-1.27-64.22-.92-33.34-.44-16.98-.26h-17.28c.97,1.01-1.45-1.4-1.18-1.18,1.1-71.45,2.06-138.96,2.94-197.87v-1.05h1.01l179.27,3.07,50.49,1.01,13.16.31h3.38l1.54-.04Z"/>
    <rect class="cls-4" x="670.63" y="670.27" width="173" height="230.15" transform="translate(-38.97 1531.16) rotate(-89.18)"/>
    <polygon class="cls-4" points="640.81 870.2 722.71 763.79 771.57 831.78 805.83 796.29 870.96 873.49 640.81 870.2"/>
    <path class="cls-4" d="M793.85,751.64c-.15,10-8.37,17.99-18.38,17.85-10-.15-17.99-8.37-17.85-18.38.15-10,8.37-17.99,18.37-17.85,10,.14,18,8.37,17.85,18.37,0,0,0,0,0,0Z"/>
    <polygon class="cls-2" points="640.81 870.2 722.71 763.79 771.57 831.78 805.83 796.29 870.96 873.49 640.81 870.2"/>
    <g class="cls-10">
      <path class="cls-1" d="M793.85,751.64c-.15,10-8.37,17.99-18.38,17.85-10-.15-17.99-8.37-17.85-18.38.15-10,8.37-17.99,18.37-17.85,10,.14,18,8.37,17.85,18.37,0,0,0,0,0,0Z"/>
    </g>
    <rect class="cls-6" x="596.11" y="132.75" width="66.72" height="83.46" transform="translate(446 801.4) rotate(-89.18)"/>
    <path class="cls-7" d="M671.66,141.69c-.14.02-.28.02-.42,0h-5.76l-17.12-.07-60.17-.53.51-.51c-.27,19.93-.55,42.63-.89,66.7l-.55-.58h11.47l11.23.16,21.66.33,39.08.64-.49.47c.4-19.93.71-36.63.95-48.3.13-5.8.24-10.36.31-13.55,0-1.53,0-2.72.11-3.61s0-1.26,0-1.26c.02.39.02.78,0,1.17v16.94c-.11,11.76-.27,28.48-.44,48.72v.49h-.47l-39.08-.49-21.66-.29-11.25-.16h-11.47l-.58-.58c.38-24.09.71-46.86,1.02-66.72v-.69h.53l60.48,1.13,17.01.38h5.56l.42.2Z"/>
    <rect class="cls-4" x="600.23" y="135.66" width="58.33" height="77.59" transform="translate(445.95 801.29) rotate(-89.18)"/>
    <polygon class="cls-4" points="590.19 203.05 617.81 167.2 634.26 190.12 645.84 178.16 667.79 204.18 590.19 203.05"/>
    <path class="cls-4" d="M641.72,163.11c-.05,3.38-2.83,6.07-6.2,6.02-3.38-.05-6.07-2.83-6.02-6.2.05-3.37,2.82-6.07,6.2-6.02,3.37.06,6.06,2.83,6.02,6.2Z"/>
    <polygon class="cls-2" points="590.19 203.05 617.81 167.2 634.26 190.12 645.84 178.16 667.79 204.18 590.19 203.05"/>
    <g class="cls-10">
      <path class="cls-1" d="M641.72,163.11c-.05,3.38-2.83,6.07-6.2,6.02-3.38-.05-6.07-2.83-6.02-6.2.05-3.37,2.82-6.07,6.2-6.02,3.37.06,6.06,2.83,6.02,6.2Z"/>
    </g>
    <rect class="cls-3" x="358.24" y="202.05" width="259.09" height="324.08" transform="translate(116.75 846.62) rotate(-89.18)"/>
    <path class="cls-7" d="M651.64,236.87h-5.98l-17.56-.18-66.3-.82-234.2-3.1.51-.51c-1.09,77.08-2.21,165.48-3.63,259.09h0l-.58-.58,324.04,4.63-.49.49c1.22-78.06,2.21-142.76,2.95-187.98.38-22.63.66-40.37.86-52.48.11-6.05.2-10.67.27-13.82s.11-4.78.11-4.78v4.67c0,3.1,0,7.73-.13,13.75-.13,12.07-.35,29.78-.62,52.37-.6,45.29-1.44,110.08-2.44,188.23v.49h-.47l-324.06-4.54h-.58v-.62c1.35-93.52,2.64-181.92,3.76-259.09v-.51h.51l234.38,3.76,66.19,1.09,17.47.31h4.43l1.55.13Z"/>
    <rect class="cls-4" x="374.34" y="213.46" width="226.47" height="301.3" transform="translate(116.53 846.42) rotate(-89.18)"/>
    <polygon class="cls-5" points="335.31 475.17 442.56 335.9 506.47 424.9 551.35 378.46 636.59 479.46 335.31 475.17"/>
    <g class="cls-9">
      <path class="cls-1" d="M535.65,320c-.18,13.11-10.96,23.59-24.07,23.4-13.11-.18-23.59-10.96-23.4-24.07.18-13.11,10.96-23.59,24.07-23.4,0,0,.01,0,.02,0,13.1.21,23.56,10.97,23.38,24.07Z"/>
    </g>
  </g>
</svg>