<?xml version="1.0" encoding="UTF-8"?>
<svg id="Layer_2" data-name="Layer 2" xmlns="http://www.w3.org/2000/svg" viewBox="0 0 1000 1000">
  <defs>
    <style>
      .cls-1 {
        fill: #000;
      }

      .cls-1, .cls-2, .cls-3, .cls-4, .cls-5, .cls-6, .cls-7, .cls-8, .cls-9, .cls-10, .cls-11, .cls-12, .cls-13 {
        stroke-width: 0px;
      }

      .cls-2 {
        fill: #e0e0e0;
      }

      .cls-3 {
        fill: #eb996e;
      }

      .cls-4 {
        fill: #455a64;
      }

      .cls-5 {
        fill: #f5f5f5;
      }

      .cls-6 {
        fill: #09f;
      }

      .cls-7 {
        fill: #ffbe9d;
      }

      .cls-8 {
        fill: #ebebeb;
      }

      .cls-14 {
        opacity: .3;
      }

      .cls-9 {
        fill: #263238;
      }

      .cls-10 {
        fill: #fafafa;
      }

      .cls-11 {
        fill: #df947f;
      }

      .cls-12 {
        fill: #fff;
      }

      .cls-15 {
        opacity: .2;
      }

      .cls-13 {
        fill: #ffc4af;
      }
    </style>
  </defs>
  <g id="freepik--background-complete--inject-18">
    <rect class="cls-10" x="688.01" y="377.27" width="269.7" height="215.62" transform="translate(-85.18 188.65) rotate(-12.44)"/>
    <path class="cls-2" d="M931.31,350.71s-.43.13-1.26.32l-3.68.85-14.29,3.24-53.88,12.09-190.09,42.3.54-.83c13.89,62.66,29.73,134.5,46.52,210.51h0l-.93-.6,263.39-57.98-.5.78c-13.89-63.43-25.34-116.01-33.34-152.8l-9.25-42.72-2.43-11.15c-.54-2.56-.79-3.92-.79-3.92,0,0,.33,1.25.9,3.75s1.39,6.28,2.53,11.11c2.21,9.84,5.45,24.18,9.56,42.49,8.21,36.85,19.92,89.45,34.1,152.99l.15.63-.64.15-263.34,58.23-.76.17-.17-.76h0c-16.74-76.03-32.56-147.87-46.37-210.55l-.15-.68.69-.15,190.67-41.67,53.8-11.78,14.18-3.04,3.63-.76c.78-.13,1.21-.18,1.21-.18Z"/>
    <rect class="cls-8" x="697.3" y="390.89" width="250.75" height="188.46" transform="translate(-85.19 188.61) rotate(-12.44)"/>
    <polygon class="cls-2" points="720.56 604.12 780.83 470.84 849.61 530.73 877.1 484.54 965.42 550.08 720.56 604.12"/>
    <path class="cls-2" d="M853.21,440.17c2.35,10.65-4.37,21.18-15.02,23.53-10.65,2.35-21.18-4.37-23.53-15.02-2.35-10.65,4.37-21.18,15.02-23.53,0,0,0,0,0,0,10.64-2.34,21.17,4.38,23.53,15.02Z"/>
    <rect class="cls-10" x="400.43" y="568.96" width="269.7" height="215.62" transform="translate(-133.22 131.2) rotate(-12.44)"/>
    <path class="cls-2" d="M643.74,542.41s-.43.13-1.26.32l-3.68.85-14.29,3.24-53.88,12.09-190.09,42.3.54-.83c13.89,62.66,29.73,134.5,46.52,210.51h0l-.97-.54,263.39-57.98-.5.78c-13.89-63.43-25.34-116.01-33.34-152.8l-9.25-42.72-2.39-11.21c-.54-2.56-.79-3.92-.79-3.92,0,0,.33,1.25.9,3.75s1.39,6.28,2.53,11.11c2.21,9.84,5.45,24.18,9.56,42.49,8.21,36.85,19.93,89.45,34.1,152.99l.15.63-.64.15-263.34,58.23-.76.17-.17-.76h0c-16.74-76.03-32.56-147.87-46.37-210.55l-.15-.68.68-.15,190.69-41.67,53.8-11.78,14.18-3.04,3.63-.76c.79-.13,1.21-.18,1.21-.18Z"/>
    <rect class="cls-8" x="409.72" y="582.57" width="250.75" height="188.46" transform="translate(-133.23 131.16) rotate(-12.44)"/>
    <polygon class="cls-2" points="433 795.82 493.27 662.54 562.05 722.43 589.54 676.24 677.86 741.78 433 795.82"/>
    <path class="cls-2" d="M565.64,631.87c2.35,10.65-4.37,21.18-15.02,23.53-10.65,2.35-21.18-4.37-23.53-15.02-2.35-10.65,4.37-21.18,15.02-23.53,0,0,0,0,0,0,10.64-2.34,21.17,4.38,23.53,15.02Z"/>
    <rect class="cls-10" x="123.83" y="230.27" width="154.33" height="193.05" transform="translate(-180.61 366.39) rotate(-64.33)"/>
    <path class="cls-2" d="M321.43,299.13l-.86-.38-2.46-1.15-9.47-4.49-35.67-17.07-125.74-60.15.67-.24-66.79,139.11h0l-.26-.75,173.95,83.71-.61.22c20.21-41.84,36.98-76.53,48.7-100.78,5.88-12.13,10.5-21.63,13.66-28.14,1.58-3.22,2.78-5.71,3.63-7.42s1.29-2.56,1.29-2.56c0,0-.38.85-1.15,2.51l-3.49,7.38c-3.11,6.52-7.63,16.03-13.41,28.16-11.64,24.37-28.3,59.22-48.4,101.25l-.19.42-.43-.19-174.04-83.53-.5-.25.24-.5h0l66.91-139.08.22-.44.44.22,125.81,60.75,35.46,17.18,9.33,4.56,2.39,1.18.78.47Z"/>
    <rect class="cls-8" x="133.44" y="237" width="134.9" height="179.48" transform="translate(-180.63 366.26) rotate(-64.33)"/>
    <polygon class="cls-2" points="90.8 348.67 183.62 300.24 195.88 364.35 231.78 350.49 252.56 426.42 90.8 348.67"/>
    <path class="cls-2" d="M237.92,314.95c-3.38,7.04-11.83,10.01-18.87,6.62s-10.01-11.83-6.62-18.87c3.38-7.04,11.83-10.01,18.87-6.62,0,0,0,0,.01,0,7.03,3.38,10,11.82,6.62,18.85,0,0,0,0,0,.01Z"/>
  </g>
  <g id="freepik--Photos--inject-18">
    <polygon class="cls-8" points="652.99 228.24 722.67 372.91 530.11 461.52 460.43 316.86 652.99 228.24"/>
    <path class="cls-9" d="M653.05,228.28s-.31.17-.92.46l-2.68,1.28-10.45,4.86-39.41,18.23-138.91,64.22.28-.71,69.69,144.62h0l-.82-.26,192.67-88.5-.25.64c-20.84-43.6-38.19-79.75-50.3-105.02l-14.04-29.38-3.67-7.77c-.83-1.76-1.25-2.78-1.25-2.78,0,0,.46.85,1.31,2.57l3.74,7.63c3.28,6.75,8.08,16.67,14.2,29.17l50.91,105.21.21.43-.47.21-192.52,88.65-.57.25-.25-.53h0c-25.14-52.23-48.9-101.6-69.61-144.66l-.24-.47.5-.24,139.5-63.9,39.37-17.98,10.39-4.71,2.65-1.19.94-.33Z"/>
    <polygon class="cls-4" points="532.36 449.35 711.39 366.98 650.49 240.52 471.45 322.91 532.36 449.35"/>
    <g class="cls-14">
      <polygon class="cls-1" points="532.36 449.35 557.03 341.99 619.46 373.34 633.07 334.96 711.39 366.98 532.36 449.35"/>
    </g>
    <g class="cls-14">
      <path class="cls-1" d="M607.58,306.97c3.37,7.44.06,16.21-7.38,19.58-.11.05-.23.1-.34.15-7.78,3.58-16.95.56-20.48-6.75s-.07-16.16,7.71-19.74,16.96-.56,20.49,6.77Z"/>
    </g>
    <polygon class="cls-8" points="968.49 637.29 925.79 743.08 787.14 684.26 829.84 578.46 968.49 637.29"/>
    <path class="cls-9" d="M968.49,637.29l-.68-.26-1.96-.81-7.54-3.15-28.42-11.95-100.18-42.31.5-.19-42.66,105.8h0l-.25-.56,138.62,58.9-.46.18c12.92-31.83,23.62-58.2,31.14-76.65,3.76-9.22,6.71-16.46,8.74-21.41l2.32-5.64c.53-1.28.83-1.96.83-1.96,0,0-.24.65-.74,1.92s-1.25,3.17-2.21,5.56c-1.99,4.96-4.86,12.18-8.54,21.41l-30.88,77-.14.32-.33-.14-138.66-58.77-.4-.17.15-.39h0l42.73-105.66.14-.33.36.15,100.28,42.74,28.26,12.1,7.45,3.21,1.9.83.64.24Z"/>
    <polygon class="cls-4" points="794.6 679.62 923.51 734.32 960.84 641.84 831.93 587.15 794.6 679.62"/>
    <g class="cls-14">
      <polygon class="cls-1" points="794.6 679.62 862.84 641.25 876.2 689.05 902.88 677.85 923.51 734.32 794.6 679.62"/>
    </g>
    <g class="cls-14">
      <path class="cls-1" d="M905.4,651.07c-2.3,5.33-8.49,7.78-13.83,5.48-.08-.03-.16-.07-.23-.1-5.52-2.21-8.29-8.41-6.24-13.99,2.3-5.33,8.48-7.79,13.82-5.5.08.03.16.07.24.11,5.53,2.2,8.3,8.42,6.24,14Z"/>
    </g>
    <rect class="cls-10" x="52.77" y="446.51" width="269.7" height="215.62" transform="translate(-192.52 109.38) rotate(-21.81)"/>
    <path class="cls-9" d="M272.76,404.15l-1.19.53-3.5,1.39-13.57,5.56-51.2,20.68L22.62,504.97l.39-.9,80.15,200.13h0l-1.01-.43,250.45-100.02-.36.83-57.76-145.33c-6.95-17.5-12.36-31.23-16.07-40.63-1.85-4.69-3.24-8.27-4.17-10.74-.94-2.43-1.39-3.74-1.39-3.74,0,0,.53,1.18,1.5,3.56l4.31,10.56c3.78,9.35,9.29,22.99,16.34,40.38,14.1,35.01,34.24,85.07,58.55,145.46l.25.6-.61.24-250.43,100.31-.72.29-.29-.72h0c-28.91-72.29-56.2-140.64-80.03-200.23l-.25-.64.64-.26,181.37-72.24,51.19-20.28,13.5-5.32,3.46-1.39c.82-.18,1.15-.31,1.15-.31Z"/>
    <rect class="cls-8" x="62.09" y="460.14" width="250.75" height="188.46" transform="translate(-192.55 109.33) rotate(-21.81)"/>
    <polygon class="cls-2" points="106.03 688.46 143.83 547.16 221.43 595.06 241.04 545.01 338.85 595.32 106.03 688.46"/>
    <path class="cls-6" d="M181.85,583.45l-5.56,59.5c-18.42-2.56-17.31-24.16-17.31-24.16,0,0,8.04-58.34,8.5-64.66s3.32-8.4,3.32-8.4l11.04,37.73Z"/>
    <path class="cls-6" d="M168.03,554.95c-1.83-8.33,9.04-16.54,9.04-16.54l33.83-23.25,16.45.38,20.84,64.33,17.32,34.73-60.15,24.77c-.24.11-36.67-81.46-37.33-84.4Z"/>
    <path class="cls-9" d="M269.56,621.23c-.17-.39-5.35-9.02-5.35-9.02,0,0-20.34,11.11-33.24,16.49-8.98,3.54-18.22,6.4-27.63,8.57l4,9.72,62.22-25.77Z"/>
    <path class="cls-7" d="M166.35,471.38l.85-.5c9.52-4.83,18.93.54,23.5,10.2l20.2,34.08-15.95,29.67-6.38-15.28h0l-3.81-6.77s-9.64,3.79-14.92-4.99c-2.54-4.24-7.07-13.39-11.11-21.73-4.27-8.96-.96-19.69,7.61-24.68Z"/>
    <path class="cls-3" d="M184.76,522.78c4.13-2.3,7.48-5.79,9.61-10,0,0,1,7.96-8.33,12.31l-1.28-2.31Z"/>
    <path class="cls-9" d="M164.92,502.28c.35.68,1.19.95,1.87.61.03-.02.06-.03.09-.05.69-.33.99-1.15.67-1.85,0-.02-.02-.04-.03-.06-.39-.69-1.26-.93-1.96-.56-.69.33-.99,1.15-.67,1.85,0,.02.02.04.03.06Z"/>
    <path class="cls-9" d="M162.79,498.96c.25.07.79-1.19,2.15-1.99,1.36-.79,2.78-.69,2.78-.94s-.31-.32-.92-.39c-.83-.06-1.65.13-2.36.56-.71.41-1.27,1.04-1.6,1.79-.17.56-.17.94-.06.97Z"/>
    <path class="cls-9" d="M177.51,495.53c.35.68,1.19.95,1.87.61.03-.02.06-.03.09-.05.69-.33.99-1.16.66-1.85,0-.01-.01-.03-.02-.04-.34-.69-1.18-.96-1.86-.62-.03.02-.06.03-.1.05-.69.33-.99,1.15-.67,1.85,0,.02.02.04.03.06Z"/>
    <path class="cls-9" d="M175.66,490.94c.24.11.92-1.1,2.36-1.74s2.78-.39,2.88-.63-.26-.36-.88-.49c-.81-.15-1.65-.05-2.4.29-.75.33-1.37.89-1.78,1.6-.29.54-.31.92-.18.96Z"/>
    <path class="cls-9" d="M177.66,504.72c-.85.19-1.67.49-2.44.89-.36.17-.74.29-.93.08-.24-.34-.37-.74-.38-1.15-.15-1.04-.33-2.11-.51-3.25-.35-2.79-.93-5.55-1.72-8.25.13,2.8.48,5.59,1.06,8.33.19,1.13.39,2.21.57,3.24.03.54.25,1.06.61,1.46.25.19.57.26.88.18.22-.07.44-.16.64-.26.8-.33,1.55-.75,2.24-1.26Z"/>
    <path class="cls-9" d="M173.07,486c.35.29,1.6-.67,3.31-1.39s3.25-1.07,3.26-1.51c0-.22-.42-.43-1.15-.49-1.93-.08-3.78.75-5.01,2.22-.44.57-.57,1.03-.4,1.17Z"/>
    <path class="cls-9" d="M160.95,495c.42.18,1.17-.69,2.28-1.39s2.24-1.01,2.24-1.39c0-.21-.33-.43-.92-.49-.77-.04-1.52.17-2.17.58-.65.4-1.16,1-1.47,1.69-.21.49-.15.88.04.99Z"/>
    <path class="cls-7" d="M193.8,488.05c.11-.15,5.03-5.33,8.33.82s-3.72,7.88-3.64,8.06-4.33-8.21-4.7-8.88Z"/>
    <path class="cls-3" d="M199.15,493.61h.38c.31-.03.6-.18.81-.42.55-.94.55-2.1,0-3.04-.26-.54-.65-1.02-1.13-1.39-.33-.33-.79-.48-1.25-.39-.29.07-.49.34-.47.64,0,.22.11.32.08.35s-.18,0-.28-.31c-.06-.17-.06-.36,0-.53.1-.22.28-.38.5-.47.57-.18,1.19-.05,1.64.35.56.39,1.01.91,1.31,1.51.67,1.09.62,2.47-.13,3.5-.29.27-.68.41-1.07.38-.31-.08-.4-.18-.39-.18Z"/>
    <path class="cls-9" d="M151.76,486.39c-.5-1.34-.15-2.84.89-3.82-1.44-1.01-1.78-3-.76-4.43.72-1.02,1.97-1.52,3.19-1.29-.85-1.59-.25-3.57,1.34-4.42.32-.17.67-.29,1.04-.35-.82-1.3-.44-3.01.86-3.83.86-.55,1.95-.58,2.84-.08.18-2.63,2.45-4.61,5.07-4.43.35.02.69.08,1.02.18,2.06-2.29,5.5-2.68,8.02-.92,2.11-1.03,4.64-.69,6.39.88,2.05-1.05,4.56-.24,5.61,1.81.37.73.52,1.55.43,2.36,1.73-.01,3.14,1.38,3.15,3.1,0,.28-.03.56-.11.83,1.69-.15,3.18,1.09,3.33,2.78.07.73-.13,1.46-.55,2.05.94-.4,1.99.57,2.22,1.57.1,1.03.14,2.07.13,3.11.11.85.46,1.64.63,2.49.28,1.61-.15,3.26-1.19,4.51l.26.08c.61.68-.15,1.85-1.06,1.97-.92,0-1.82-.29-2.58-.82-.96-.41-1.86-.97-2.65-1.65-.81-.72-1.04-1.89-.56-2.86-1.29.17-2.58-.36-3.38-1.39-.81-1.01-1.43-2.17-1.82-3.4-.65-1.76-1.31-3.53-1.94-5.29-2.29,1.22-5.07,1.07-7.22-.38-.93,2-3.3,2.86-5.3,1.93-.15-.07-.3-.15-.44-.24.49,2.7-1.19,5.32-3.85,5.99.97,1.11-.6,3.58-1.63,4.64-.89.68-1.98,1.06-3.1,1.08,0,0-1.39,2.49-2.78,2.69s-3.79-.35-3.74-1.99c-.78-.67-1.38-1.52-1.76-2.47Z"/>
    <path class="cls-4" d="M191.04,471.73c.04.38,0,.77-.14,1.13-.17.37-.49.65-.89.76-.5.14-1.04-.02-1.39-.4l-.28-.32-.14.42c-.32.95-1.35,1.47-2.3,1.15-.49-.16-.88-.52-1.09-.99l-.17-.38-.24.33c-.31.38-.75.63-1.24.69-.39.05-.78-.02-1.13-.21-.58-.33-.76-.75-.82-.71s0,.49.67.96c.41.28.9.41,1.39.36.61-.04,1.18-.33,1.57-.81h-.42c.49,1.17,1.83,1.72,3,1.23.63-.26,1.11-.79,1.31-1.45l-.42.1c.48.49,1.19.67,1.85.47.5-.16.88-.56,1.04-1.06.22-.88-.15-1.33-.18-1.29Z"/>
    <path class="cls-4" d="M195.34,476.94s-.13.31-.5.64c-.52.47-1.28.56-1.9.24l-.24-.14-.07.28c-.14.66-.63,1.19-1.28,1.39-.75.18-1.53-.11-1.96-.75l-.25-.39-.21.42c-.06.1-.13.2-.21.29-.37.4-.96.52-1.46.31-.44-.23-.73-.68-.75-1.18v-.5l-.39.32c-.45.35-1.02.52-1.58.47-.45-.05-.88-.23-1.22-.53-.29-.29-.54-.62-.75-.97,0,0,0,.54.56,1.18.37.38.86.63,1.39.71.69.09,1.39-.09,1.94-.5l-.39-.19c-.01.7.38,1.34,1,1.65.7.33,1.54.17,2.07-.4.12-.12.22-.26.29-.42h-.46c.66,1.04,2.05,1.35,3.09.68.52-.33.88-.87,1-1.47l-.31.14c.43.22.93.27,1.39.13.34-.1.64-.29.88-.56.36-.43.35-.83.32-.83Z"/>
    <path class="cls-4" d="M158.14,471.38c.11-.29.26-.55.46-.79.23-.27.56-.44.92-.47.46-.05.91.12,1.24.44l.29.31v-.42c.02-.88.49-1.69,1.25-2.14.94-.52,2.1-.37,2.88.36l.35.32v-.47c.14-.93.7-1.75,1.51-2.22.87-.46,1.91-.46,2.78,0,.37.18.7.43.96.75l.18.22.21-.19c1-.95,2.51-1.08,3.67-.33.98.69,1.46,1.89,1.22,3.07l-.08.38.36-.13c.81-.3,1.71-.26,2.5.1.59.28,1.07.74,1.39,1.31.27.51.46,1.07.54,1.64.04-.15.04-.31,0-.46-.09-1.19-.8-2.25-1.88-2.78-.87-.43-1.87-.49-2.78-.18l.28.25c.44-1.82-.67-3.65-2.49-4.1-1.15-.28-2.36.06-3.19.89h.39c-.31-.37-.69-.67-1.13-.89-1.05-.55-2.31-.52-3.33.08-.95.55-1.59,1.52-1.72,2.61l.4-.15c-1.05-1.12-2.81-1.17-3.93-.12-.62.58-.94,1.41-.87,2.26l.28-.11c-.4-.39-.96-.57-1.51-.47-.4.07-.76.28-1.01.6-.15.2-.26.42-.31.67q.17.18.18.18Z"/>
    <path class="cls-9" d="M182.2,503.33c-.22.11.64,1.58,0,3.38-.64,1.79-2.32,2.53-2.21,2.78s.51.08,1.19-.29c.86-.5,1.53-1.28,1.89-2.21.33-.9.3-1.9-.08-2.78-.32-.65-.69-.88-.79-.88Z"/>
    <path class="cls-4" d="M216.57,633.75c.07,0-.78-1.56-1.68-3.49s-1.57-3.54-1.64-3.51c.05.38.16.75.32,1.1.31.86.67,1.7,1.07,2.53.46.97.93,1.83,1.29,2.43.18.34.39.65.64.94Z"/>
    <path class="cls-4" d="M209.65,636.86c-.67-1.02-1.28-2.09-1.81-3.19-.45-1.14-.81-2.3-1.1-3.49-.04.36,0,.73.08,1.08.32,1.74,1.03,3.38,2.08,4.79.2.3.45.58.74.81Z"/>
    <path class="cls-9" d="M116.11,560.12c-1.9-2.15-2.4-5.17-3.26-7.92-1.42-3.97-3.25-7.78-5.46-11.36-2.2-3.59-3.92-7.45-5.1-11.49-1.16-4.08-.75-8.46,1.15-12.25,2.06-3.65,6.33-6.22,10.46-5.49l3.49,10.32c8.31,12.8,15.12,26.51,20.3,40.87-3.69,2.74-7.7,5.04-11.93,6.85-.81.52-1.83.58-2.69.17-.93-.67-.75-2.07-.96-3.19-.39-1.43-1.26-2.69-2.47-3.56-1.25-.88-2.43-1.87-3.51-2.94Z"/>
    <path class="cls-6" d="M109.69,516.98c.55-1.81,1.54-3.45,2.88-4.78.51-.58,1.18-1,1.93-1.19.78-.18,1.57.2,1.92.92l-.96,7.67c-.54,1.11-1.69,1.79-2.92,1.72-.94.09-1.88-.25-2.54-.93-.66-1.01-.77-2.29-.31-3.4Z"/>
    <path class="cls-7" d="M147.74,517.46c-5.03-7.83-15.27-10.43-23.43-5.95-8.33,4.58-11.37,15.04-6.8,23.37.1.19.21.38.32.56l21.03,32.59c.41.64,1.01,1.12,1.72,1.39,3.93,1.31,8.21,1.03,11.93-.76,3.09-1.77,5.52-4.49,6.95-7.75.48-1.07.35-2.31-.32-3.26l-5-7.08M154.14,550.48c.69-.43,1.33-.93,1.92-1.49,1.51-1.82,4.9-7.08,1.39-15.16-2.94-5.63-6.18-11.1-9.71-16.38l6.4,33.02Z"/>
    <path class="cls-9" d="M144.96,535.2c.55-.64,1.18-1.22,1.88-1.71.31-.24.58-.5.49-.75s-.43-.56-.83-.82l-2.54-1.85c-2.22-1.52-4.31-3.22-6.26-5.07,2.36,1.34,4.61,2.85,6.72,4.54l2.51,1.89c.46.26.81.67.99,1.17.05.29-.04.6-.24.82-.16.16-.33.31-.51.43-.67.54-1.41.99-2.19,1.35Z"/>
    <path class="cls-9" d="M148.79,524.3c.42.64.24,1.5-.4,1.92-.61.44-1.46.32-1.92-.28-.42-.64-.24-1.5.4-1.92.61-.44,1.46-.32,1.92.28Z"/>
    <path class="cls-9" d="M147.11,521.61c0,.28-1.46.15-2.69,1.07s-1.56,2.32-1.83,2.24-.22-.46-.1-1.1c.17-.8.63-1.51,1.29-2,.67-.49,1.49-.71,2.32-.64.65.07,1.03.29,1.01.43Z"/>
    <path class="cls-9" d="M136.44,532.12c.42.64.24,1.5-.4,1.92-.61.44-1.46.32-1.92-.28-.42-.64-.24-1.5.4-1.92.61-.44,1.46-.32,1.92.28Z"/>
    <path class="cls-9" d="M134.97,529.89c0,.29-1.56,0-3,.81s-2.06,2.19-2.33,2.08-.15-.5.1-1.13c.34-.81.95-1.48,1.72-1.9.77-.42,1.67-.56,2.53-.39.67.13,1.03.36.99.53Z"/>
    <path class="cls-3" d="M154.13,550.47s-4.74,3.56-13.35,3.83c0,0,6.11,5.22,14.96-1.57l-1.61-2.26Z"/>
    <path class="cls-3" d="M146.37,538.6c-.9-.31-1.9-.13-2.64.47-.54.41-.89,1.02-.97,1.69-.08.66.27,1.29.86,1.58.72.19,1.5-.06,1.96-.65.48-.59.83-1.28,1.04-2.01.08-.19.13-.4.13-.61.01-.21-.11-.4-.31-.47"/>
    <path class="cls-9" d="M141.71,538.48c.21-.14,1.08,1.24,2.92,1.39s3.22-.88,3.36-.68-.17.47-.78.89c-.82.54-1.8.77-2.78.65-.92-.1-1.76-.56-2.35-1.26-.42-.49-.47-.93-.38-.99Z"/>
    <path class="cls-9" d="M132.61,525.09c.1.42-1.29,1.1-2.68,2.25s-2.35,2.36-2.78,2.18c-.18-.08-.18-.54.1-1.19.37-.84.95-1.58,1.67-2.15.71-.6,1.55-1.01,2.46-1.22.75-.15,1.18-.06,1.24.14Z"/>
    <path class="cls-9" d="M144.4,517.6c0,.43-1.17.63-2.28,1.22s-1.94,1.39-2.33,1.14c-.18-.11-.19-.49,0-1,.75-1.32,2.22-2.06,3.72-1.89.61.15.92.32.89.53Z"/>
    <path class="cls-9" d="M124.25,509.15c-1.5-.52-3.16-.33-4.5.53-6.07,3.18-9.72,10.96-9.46,17.81s5.2,13.89,11.11,17.25l2.39-1.13c4.08-3.39,2.54-20.56,3.71-31.53.1-1.39-1.99-2.39-3.25-2.93Z"/>
    <path class="cls-9" d="M137.35,505.06c-4.17-.92-10.24-1.39-13.66,3.92.28,1.85,2.94,2.54,4.86,2.68,2.78.22,5.04.11,6.95.33,3.86.47,9.28,1.93,12.38,5.68.19.24.42.14.63-.08s-.15-2.43-1.39-4.83c-1.7-4.09-5.39-7-9.77-7.7Z"/>
    <path class="cls-7" d="M123.27,540.1c-.18,0-6.7,1.74-3.11,7.28s8.33.82,8.33.65-5.22-7.93-5.22-7.93Z"/>
    <path class="cls-3" d="M125.43,547.02s0,.13-.17.31c-.17.25-.43.42-.72.49-1.02.03-1.98-.5-2.49-1.39-.32-.47-.53-1-.63-1.56-.11-.42-.02-.87.25-1.21.19-.21.51-.26.75-.11.17.11.21.25.24.24s0-.17-.13-.38c-.12-.11-.28-.19-.44-.21-.23-.01-.45.06-.63.21-.41.39-.58.96-.46,1.51.08.63.31,1.24.67,1.76.6,1.04,1.75,1.62,2.94,1.49.36-.11.65-.37.79-.72.08-.29.04-.43.01-.43Z"/>
    <path class="cls-4" d="M139.22,505.36c-.41.49-.88.93-1.39,1.31-2.45,1.95-5.23,3.44-8.21,4.42-.6.24-1.23.4-1.88.47.57-.29,1.17-.54,1.78-.74,1.43-.56,2.82-1.21,4.17-1.94,1.35-.74,2.67-1.55,3.93-2.43.5-.41,1.04-.77,1.6-1.08Z"/>
    <path class="cls-4" d="M143.76,507.95c-.25.43-.58.8-.97,1.1-.9.79-1.93,1.43-3.03,1.9-1.1.46-2.27.74-3.46.83-.47.04-.95,0-1.4-.11,1.63-.19,3.24-.57,4.78-1.14,1.46-.7,2.83-1.56,4.08-2.58Z"/>
    <path class="cls-4" d="M110.91,529.81c0-.07,1.26-.68,3.11-2.06,1.07-.81,2.09-1.7,3.04-2.65,2.31-2.37,4.27-5.05,5.82-7.96.64-1.19,1.21-2.41,1.71-3.67.85-2.15,1.18-3.54,1.26-3.53-.03.34-.09.67-.19,1,0,.32-.17.69-.31,1.14s-.28.94-.5,1.49c-.46,1.28-1.01,2.53-1.64,3.74-.78,1.48-1.65,2.9-2.63,4.26-.99,1.34-2.08,2.61-3.26,3.79-.97.96-2.02,1.83-3.14,2.61-.44.32-.91.61-1.39.86-.33.22-.68.41-1.04.57-.27.16-.55.3-.85.4Z"/>
    <path class="cls-4" d="M126.83,512.09c.06.35.1.7.1,1.06.02.41.02.82,0,1.24v1.65c-.1,1.4-.31,2.8-.64,4.17-.8,3.43-2.27,6.67-4.33,9.53-.83,1.17-1.76,2.26-2.78,3.26-.38.4-.78.77-1.21,1.13-.3.28-.62.54-.96.78-.27.23-.56.43-.86.61,0-.07,1.15-.96,2.78-2.71.97-1.03,1.86-2.12,2.67-3.28.98-1.43,1.84-2.94,2.56-4.51,1.28-2.87,2.09-5.93,2.4-9.06.28-2.35.19-3.86.28-3.86Z"/>
    <path class="cls-4" d="M119.74,509.68c.31-.32.71-.56,1.14-.68,1.03-.36,2.14-.42,3.2-.17.31.07.6.17.89.29.25.14.49.3.72.47.4.28.77.59,1.11.93.35.29.59.69.68,1.14,0,0-.29-.43-.89-.93-.35-.3-.72-.57-1.11-.82-.21-.16-.44-.3-.68-.42-.27-.11-.54-.2-.82-.28-.99-.23-2.02-.23-3.01,0-.75.26-1.18.51-1.22.46Z"/>
    <path class="cls-9" d="M124.22,536.67c1.03-.85,1.96-1.8,2.78-2.85,1.93-2.63,3.05-5.76,3.24-9.02.14-3.26-.33-6.51-1.39-9.6-.39-1.19-.74-2.15-.99-2.78-.15-.33-.27-.68-.36-1.03.2.31.36.63.5.97.31.64.69,1.57,1.13,2.78,1.15,3.11,1.66,6.41,1.51,9.72-.19,3.33-1.38,6.52-3.42,9.15-.6.76-1.28,1.44-2.04,2.04-.21.17-.44.32-.67.46-.19.09-.29.14-.29.14Z"/>
    <path class="cls-9" d="M155.39,524.48c-.19.19-.44.32-.71.35-.32.02-.63-.07-.89-.25-.34-.24-.56-.61-.61-1.01-.09-.51-.09-1.02,0-1.53.15-.6.24-1.21.26-1.82,0-.35-.06-.69-.19-1.01-.16-.33-.38-.63-.67-.86-.61-.43-1.3-.72-2.03-.85-.7-.13-1.37-.35-2-.67-.54-.33-.96-.82-1.22-1.39-.53-1.14-.67-2.31-1.11-3.21-.29-.73-.8-1.34-1.47-1.75-.18-.11-.39-.18-.6-.21h-.22c.26.08.51.19.75.32.64.42,1.13,1.03,1.39,1.75.4.86.51,2.03,1.04,3.22.3.65.78,1.2,1.39,1.58.66.34,1.36.57,2.08.69.68.13,1.33.4,1.9.79.5.39.79,1,.78,1.64-.02.59-.1,1.18-.22,1.76-.1.54-.1,1.09,0,1.63.08.46.34.86.74,1.11.29.19.64.27.99.24.22-.02.42-.12.57-.28.04-.08.05-.16.06-.25Z"/>
    <path class="cls-4" d="M118.94,543.24s-.07-.1-.24-.25-.42-.38-.72-.68c-.9-.84-1.74-1.74-2.53-2.69-1.14-1.4-2.13-2.91-2.96-4.51-1.01-1.96-1.7-4.06-2.07-6.24-.16-1.13-.22-2.27-.17-3.4.08-1.06.24-2.11.5-3.14.45-1.74,1.11-3.43,1.96-5.01.58-1.07,1.22-2.11,1.92-3.11.24-.36.44-.63.57-.82s.25-.32.25-.32l-.24.26c-.14.18-.36.43-.61.78-.75.99-1.42,2.04-2.01,3.13-.9,1.59-1.59,3.28-2.06,5.04-.27,1.05-.44,2.12-.51,3.19-.07,1.16-.01,2.32.17,3.46.36,2.22,1.07,4.37,2.11,6.36.84,1.62,1.86,3.14,3.04,4.53.79.94,1.64,1.82,2.56,2.64.32.29.58.5.76.64l.28.15Z"/>
    <path class="cls-9" d="M134.39,558.22c0-.09,0-.19,0-.28.02-.27.02-.55,0-.82-.05-1-.34-1.98-.83-2.85-.35-.6-.78-1.15-1.29-1.63-.62-.5-1.28-.94-1.97-1.32-.75-.36-1.27-1.07-1.39-1.89,0-.86.42-1.72.44-2.78.03-.55-.23-1.08-.68-1.39-.41-.22-.85-.4-1.31-.53-.74-.34-1.27-1.03-1.39-1.83-.14-.76-.14-1.53,0-2.29.1-.69.13-1.38.11-2.07,0-1.03-.53-1.99-1.39-2.56-.24-.14-.51-.21-.79-.22-.09-.01-.19-.01-.28,0,.36.02.7.13,1.01.31.8.56,1.27,1.48,1.25,2.46.01.68-.03,1.36-.14,2.03-.14.79-.14,1.59,0,2.38.09.44.27.85.53,1.21.28.38.66.68,1.1.85.43.12.84.29,1.24.5.36.24.57.65.56,1.08,0,.9-.49,1.79-.43,2.78.02.48.21.94.53,1.29.3.32.65.6,1.03.82.68.37,1.34.8,1.94,1.28.5.45.93.97,1.26,1.54.51.84.82,1.79.9,2.78,0,.76-.06,1.15-.01,1.15Z"/>
    <path class="cls-9" d="M115.37,567.23c0,.08.22.19.65.11.61-.19,1.12-.63,1.39-1.21.22-.43.35-.9.36-1.39.04-.28.04-.57,0-.85-.06-.28-.16-.56-.28-.82-.57-1.14-1.44-2.1-2.51-2.78-1.04-.6-1.97-1.36-2.78-2.25-.64-1.07-.93-2.3-.83-3.54.11-1.72.11-3.44,0-5.15-.21-1.91-.68-3.78-1.39-5.56-1.39-3.6-3.28-6.61-4.58-9.42-1.19-2.41-1.96-5-2.28-7.67-.19-1.78-.02-3.57.5-5.28.21-.6.38-1.08.51-1.39s.15-.56,0-.61-.28,0-.57.26c-.42.36-.79.78-1.08,1.25-1.08,1.81-1.63,3.89-1.58,6,.03,3,.66,5.97,1.86,8.72,1.26,3.06,3.04,6.11,4.32,9.39.66,1.54,1.13,3.16,1.39,4.82.24,1.53.1,3.15.18,4.88.04.88.18,1.76.4,2.61.25.88.67,1.7,1.25,2.42.54.61,1.17,1.13,1.88,1.54.61.39,1.18.67,1.69.96.84.4,1.59.99,2.17,1.72.1.15.18.3.25.46.19.4.23.86.11,1.29-.29,1.01-1.07,1.24-1.03,1.47Z"/>
    <path class="cls-4" d="M158.95,618.79c-2.49-2.14-10.14-11.82-12.88-15.1-4.44-5.47-8.08-11.55-10.79-18.06-.79-1.82-1.14-5.68-1.58-8.93,0-.44-.11-.89-.14-1.39l1.86-12.59-.32-.54,21.31-4.83c1.42-.19,2.87.04,4.17.65l25.73,19.16s13.89,22.59,26.09,42.45c9.6,15.56,10.45,21.77,9.95,21.03l-51.4,21.09,4.58-21.32-5.28-11.59s-3.93-3.7-11.29-10.03Z"/>
    <path class="cls-4" d="M151.57,559.8c2.33-1.91,5.38-2.68,8.33-2.11,6.1.79,30.34,19.67,30.34,19.67,0,0,11.77-3.9,11.95-3.47s5.33,8.33,6.6,10.97,6.04,10.99,3.57,16.36-7.1,9.38-13.35,5.49c-8-4.96-33.05-15.54-42.48-23.25-9.13-7.47-9.06-19.45-4.96-23.66Z"/>
    <path class="cls-7" d="M182.56,546.4c-1.52-.86-2.93-1.92-4.17-3.15-.57-.78,0-2.01.89-1.74s7.58,3.72,7.58,3.72c0,0,5.46,8.07,6.4,10.1s2.08,5,2.9,6.47,6.5,12.89,6.5,12.89l-12.36,2.65-4.38-10.63c-.97.13-1.96,0-2.86-.38-1.39-.63-4.79-1.15-5.86-2.53s-2.93-4.65-2.93-4.65l1.04-2.35c-.8-1.07-1.45-2.23-1.94-3.47,0-.63,1.99-1.9,1.99-1.9,0,0-.83-1.9.22-2.63.93-.43,1.97-.52,2.96-.25,0,0,0-3.33,1.31-3.07.93.22,1.83.53,2.71.9Z"/>
    <path class="cls-3" d="M186.77,547.79c-.71-.31-1.43-.57-2.17-.79-.71-.3-1.45-.55-2.19-.75.64.44,1.35.79,2.1,1.01.72.3,1.49.48,2.26.53Z"/>
    <path class="cls-3" d="M178.78,562.16s-.81-1.19-1.75-2.67-1.64-2.78-1.71-2.69c.37,1.01.86,1.97,1.47,2.85.55.92,1.22,1.76,1.99,2.51Z"/>
    <path class="cls-9" d="M189.9,577.07l.11.14c.12.13.24.25.38.36.49.4,1.02.75,1.57,1.06,1.39.82,3.43,1.68,5.56,2.78,1.02.51,1.99,1.12,2.89,1.82.75.55,1.44,1.16,2.08,1.83.57.64,1.08,1.33,1.54,2.06-.01-.06-.04-.11-.07-.17-.06-.16-.14-.32-.22-.47-.31-.55-.69-1.07-1.11-1.54-.63-.7-1.32-1.34-2.07-1.92-.91-.72-1.88-1.34-2.92-1.86-2.19-1.07-4.17-1.9-5.64-2.67-.55-.29-1.09-.61-1.6-.97-.16-.16-.32-.31-.5-.44Z"/>
    <path class="cls-7" d="M180.74,545.77l-7.25-2.93c-.34.75-.23,1.64.29,2.28,1.47,1.3,3.08,2.43,4.81,3.36l2.15-2.71Z"/>
    <path class="cls-7" d="M178.55,548.62l-8.92-3.03c-.29.35-.33.84-.11,1.24.35.75,5.89,4.67,5.89,4.67l3.14-2.88Z"/>
    <path class="cls-7" d="M175.19,551.77l-7.5-3.99s-.6.85.74,2.46c2.31,2.18,4.76,4.22,7.33,6.08l-.57-4.56Z"/>
    <path class="cls-3" d="M178.28,550.31s.15-.13.39-.31c.31-.22.68-.35,1.06-.38.38-.01.75.09,1.07.29.26.15.39.31.42.28s0-.21-.29-.43c-.7-.59-1.73-.55-2.38.1-.24.24-.29.43-.26.44Z"/>
    <path class="cls-3" d="M178.28,548.43c0,.07.28.25.68.42s.75.22.78.15-.28-.25-.68-.42-.75-.22-.78-.15Z"/>
    <path class="cls-3" d="M174.39,554.07c.36-.4.79-.74,1.26-1,.33-.16.7-.25,1.07-.25.28,0,.4.15.43.13s0-.25-.4-.32c-.41-.06-.84,0-1.21.19-.38.17-.71.44-.94.78-.18.26-.24.46-.21.47Z"/>
    <path class="cls-9" d="M160.84,586.5l.11.08.36.24,1.39.85c1.21.72,2.96,1.78,5.14,3.04,4.38,2.54,10.42,6.01,17.24,9.63,3.42,1.79,6.7,3.46,9.72,4.79,1.53.67,3.03,1.21,4.43,1.69,1.3.47,2.64.84,4,1.1.59.12,1.2.18,1.81.17.54-.04,1.08-.18,1.57-.42.77-.4,1.48-.9,2.11-1.5.53-.47.92-.86,1.18-1.13l.31-.29.1-.1-.13.08-.32.28-1.21,1.07c-.63.56-1.34,1.02-2.1,1.39-.48.22-1,.35-1.53.38-.59,0-1.18-.05-1.76-.17-1.34-.28-2.67-.66-3.96-1.13-1.39-.5-2.89-1.04-4.4-1.71-3.06-1.39-6.32-3.01-9.72-4.82-6.81-3.6-12.88-7.04-17.27-9.54l-5.18-2.97c-.61-.33-1.08-.61-1.39-.81l-.38-.21h-.13Z"/>
    <path class="cls-7" d="M200.97,610.51c-.91.5-1.94.74-2.97.69-1.26-.21-7.89-2.08-9.02-1.76s-9.06,2.78-9.06,2.78l-5.56,3.5c.39,1.48,1.91,2.37,3.4,1.98.12-.03.23-.07.34-.11,1.84-.53,3.57-1.37,5.13-2.47,0,0,2.78-.56,3.04.18s.18,1.53-.85,2.46-2.86,2.78-2.86,2.78c0,0-12.4,4.58-12.61,5.18s.1,2.56,1.5,2.57,11.84-4.17,12.39-3.54,1.57,1.28.38,1.99-12.35,5.08-13.13,6.22-1.17,4.17,1.78,3.04,13.43-6.24,13.43-6.24c0,0,2.54.94,1.1,1.76s-11.84,6.52-11.95,7.52.69,3.11,2.78,2.01,10.22-6.65,11.03-6.83,1.19,0,.85.61-2,4.31-3.99,5.42c-1.21.68-2.3,1.55-3.24,2.58,0,0-.13,2.21,1.57,1.65,1.68-.68,3.3-1.49,4.85-2.43,0,0,5.2-5.92,5.92-6.52s8.54-4.25,10.35-7.6,3.99-6.68,3.99-6.68l-8.58-10.74Z"/>
    <path class="cls-7" d="M175.84,622.8c.66-.7.73-1.77.17-2.56-.93-1.56-1.72-1.22-1.72-1.22l-1.67,1.68c-1.46.58-2.88,1.25-4.26,2-.51.43-1.17,5.56-1.14,5.76s-1.53.4-1.53.4c-.4,1.9-.4,3.85,0,5.75.71,2.29,1.28,4.46,3.81,5.56,1.59.69,3.3,1.07,5.03,1.13,0,0,2.78,1.76,3.95,1.71s5.56,3.42,6.45,2.96.86-1.39.63-1.58-4.07-2.78-4.07-2.78c0,0,8.33-1.79,8.89-2.39s.97-2.21.13-2.78-1.31,0-2.1,0-5.56,1.74-5.56,1.74l-2.28-2.78s8.07-2.68,8.53-3.63c.48-.89.25-2.01-.56-2.63-.92-.51-2.05-.41-2.88.24-.88.6-8.54,4.36-8.54,4.36l-.19-3.45s8.1-3.24,8.33-4.33c.25-.84-.11-1.75-.88-2.18-.87-.61-2-.68-2.94-.19-1.39.61-9.99,4.68-9.99,4.68l4.4-5.47Z"/>
    <path class="cls-3" d="M178.63,624.9l-.63.29-1.68.82c-.72.33-1.57.74-2.49,1.26-.45.29-.94.51-1.46.67-.53.16-1.1.13-1.61-.1-.49-.25-.78-.77-.75-1.32.14-.49.5-.9.97-1.1.92-.47,1.78-.86,2.49-1.21l1.69-.83.6-.33c-.23.05-.45.13-.65.24l-1.72.75c-.72.33-1.57.69-2.53,1.17-.25.13-.48.29-.68.49-.22.22-.37.5-.43.81-.06.66.29,1.28.88,1.58.57.27,1.22.31,1.82.13.53-.17,1.04-.4,1.51-.71.9-.54,1.74-.96,2.44-1.32s1.26-.67,1.65-.89c.2-.11.39-.24.57-.39Z"/>
    <path class="cls-3" d="M176.99,633.91c-.11.03-.22.07-.32.13l-.89.39-3.28,1.49c-.34.16-.72.24-1.1.21-.4-.06-.72-.36-.81-.75-.17-.91.19-1.84.92-2.42.39-.31.83-.57,1.29-.76l.74-.31.74-.33,3.11-1.39,5.99-2.6c.47-.19.9-.45,1.29-.76.38-.32.63-.76.71-1.25.08-.89-.38-1.74-1.18-2.15-.64-.31-1.37-.38-2.06-.21-.48.14-.94.33-1.39.56-.38.19-.67.36-.86.49l-.28.19s.11,0,.31-.15l.88-.43c.45-.21.91-.38,1.39-.51.65-.14,1.33-.05,1.93.25.72.37,1.14,1.14,1.06,1.94-.07.43-.3.82-.64,1.1-.38.3-.79.53-1.24.71l-6,2.58-3.1,1.39-.74.32-.75.32c-.5.2-.97.48-1.39.82-.81.62-1.19,1.65-.99,2.65.11.48.5.84.99.9.42.03.83-.05,1.21-.24,1.39-.65,2.49-1.19,3.25-1.57l.88-.44.33-.15Z"/>
    <path class="cls-3" d="M182.03,634.9h.24l.65-.18c.57-.17,1.39-.42,2.38-.78,1.2-.36,2.31-.98,3.24-1.83.25-.27.47-.58.63-.92.18-.37.22-.79.11-1.18-.16-.4-.49-.71-.89-.86-.38-.16-.79-.23-1.21-.22-.81.02-1.6.23-2.32.6-.68.35-1.31.71-1.93,1.04l-3.24,1.79-2.17,1.22c-.27.14-.53.3-.78.49.28-.11.55-.24.82-.39l2.22-1.15,3.26-1.74c.61-.33,1.26-.69,1.93-1.03.68-.35,1.43-.55,2.19-.57.38,0,.76.08,1.11.21.6.18.94.82.75,1.42-.03.09-.07.18-.12.26-.14.31-.33.6-.57.85-.45.47-.98.85-1.56,1.15-.51.26-1.03.48-1.57.68-.97.39-1.78.67-2.33.86s-.88.26-.86.28Z"/>
    <path class="cls-3" d="M179.64,635.93c-.22.09-.44.19-.64.32l-1.68.97c-.36.21-.75.42-1.15.69-.22.14-.42.32-.58.53-.18.24-.26.54-.24.83.03.29.11.57.25.83.13.27.28.53.44.78.19.28.48.47.81.56.33.05.66,0,.97-.11.58-.21,1.14-.48,1.67-.81.51-.31,1-.61,1.39-.92.9-.6,1.71-1.15,2.39-1.63l1.6-1.1c.2-.12.4-.25.58-.4-.23.08-.44.18-.64.32-.4.22-.97.57-1.65,1.03l-2.42,1.64c-.44.29-.93.6-1.39.89-.51.31-1.05.58-1.61.79-1.26.61-1.94-.96-2.14-1.83.02-.48.28-.91.69-1.15.39-.28.79-.5,1.13-.72l1.64-1.03c.21-.14.41-.3.58-.49Z"/>
    <path class="cls-3" d="M181.45,641.34c.26.02.53.02.79,0l2.17-.28,3.2-.44c.64-.06,1.27-.19,1.89-.38.34-.12.64-.34.86-.63.24-.27.44-.57.61-.89.18-.32.28-.68.31-1.04-.03-.37-.18-.72-.44-.99-.11-.13-.24-.25-.39-.35-.14-.12-.32-.19-.5-.19-.33-.01-.66.04-.97.14-1.18.32-2.21.68-3.08.96l-2.07.68c-.26.07-.51.15-.75.26.26-.03.53-.08.78-.17.5-.13,1.22-.33,2.1-.6s1.93-.58,3.1-.9c.28-.09.58-.13.88-.13.29.07.54.24.72.47.22.21.34.5.36.81-.02.32-.11.64-.28.92-.15.3-.34.58-.57.83-.19.25-.45.45-.75.56-.6.18-1.21.31-1.83.38l-3.18.5-2.15.36c-.26.02-.52.06-.78.11Z"/>
    <path class="cls-3" d="M189.35,642.03c-.51.2-1,.44-1.49.69-.9.43-2.21,1.01-3.6,1.64-.15.05-.32.05-.47,0-.16-.05-.3-.15-.42-.28-.21-.23-.31-.54-.26-.85.09-.28.26-.54.49-.74l.28-.33.26-.28c.38-.35.69-.61.89-.82s.29-.35.28-.36c-.12.09-.24.19-.35.29-.22.18-.56.42-.94.74-.1.1-.19.18-.29.29l-.29.32c-.26.22-.46.51-.57.83-.06.39.06.79.32,1.1.14.15.32.26.51.33.21.07.44.07.65,0,1.39-.65,2.69-1.24,3.6-1.72.5-.23.97-.52,1.4-.86Z"/>
    <path class="cls-3" d="M172.77,639.18s-.14-.08-.29-.21c-.2-.18-.35-.42-.42-.68-.14-.63,0-1.21-.11-1.22s-.1.13-.15.36c-.08.31-.08.63,0,.93.08.32.28.6.57.76.24.12.4.1.4.06Z"/>
    <path class="cls-3" d="M169.3,632.07c-.25-.44-.45-.91-.6-1.39-.07-.51-.07-1.03,0-1.54,0,0-.14.15-.22.43-.2.77-.03,1.6.47,2.22.15.21.32.31.35.28Z"/>
    <path class="cls-3" d="M167.23,630.43c.08,0,0-.94.15-2.08s.39-2.06.32-2.07c-.36.62-.57,1.31-.6,2.03-.13.71-.08,1.44.13,2.13Z"/>
    <path class="cls-3" d="M185.05,621.97s-.21-.32-.33-.72-.07-.75-.14-.78-.28.36-.11.86.56.71.58.64Z"/>
    <path class="cls-3" d="M188.47,627.77c0-.08-.56-.25-.93-.82-.19-.36-.32-.76-.38-1.17,0,0-.11.13-.13.39,0,.33.09.65.26.93.18.28.45.49.76.61.24.1.39.08.4.06Z"/>
    <path class="cls-3" d="M193.24,633.61c0-.08-.57,0-1.13-.36s-.76-.83-.83-.81,0,.17.07.38c.14.28.36.51.63.67.27.17.59.25.9.24.25-.01.36-.08.36-.11Z"/>
    <path class="cls-6" d="M227.35,515.53c5.65.78,10.59,4.21,13.29,9.22,4.81,8.6,17.95,49.37,14.95,56.95s-11.68,14.97-24.82,25.32c-6.77,5.29-13.91,10.09-21.36,14.35l-8.63-10.72s5.11-5.75,11.4-12.31c4.17-4.31,8.33-9.72,11.9-13.77,3.92-4.46,7.02-7.43,6.72-8.82-.56-2.53-6.08-24.31-7.65-36.58s.35-22.78,4.2-23.66Z"/>
    <path class="cls-9" d="M230.43,577.1c.5-.02.99-.07,1.49-.15,1.18-.14,2.37-.17,3.56-.08,1.19.09,2.37.28,3.53.57.46.15.92.27,1.39.36-.44-.25-.9-.43-1.39-.56-2.32-.71-4.77-.87-7.17-.49-.48.06-.95.18-1.4.35Z"/>
    <path class="cls-9" d="M200.97,610.51l.15-.17.44-.47,1.68-1.85,6.14-6.82,20.17-22.56,1.39-1.53h0v-.15c-.19-1.39-.38-2.78-.57-4.17s-.51-2.69-.78-4c-.56-2.61-1.11-5.13-1.67-7.5-1.14-4.75-2.15-9.02-3.01-12.6s-1.47-6.47-1.9-8.47c-.21-1-.38-1.76-.5-2.31,0-.25-.1-.46-.13-.6s0-.21,0-.21v.21l.11.61c.1.54.25,1.31.43,2.31.4,2.01,1.01,4.92,1.83,8.5s1.83,7.85,2.96,12.61c.54,2.38,1.1,4.89,1.64,7.5.26,1.31.56,2.63.78,3.99s.38,2.78.56,4.17v-.11l-1.39,1.51-20.1,22.63c-2.57,2.89-4.64,5.24-6.08,6.88-.69.81-1.25,1.39-1.64,1.88l-.42.5c-.04.07-.08.14-.1.22Z"/>
    <path class="cls-9" d="M209.61,621.23h.13l.36-.19,1.39-.76,1-.56,1.14-.72c.81-.53,1.76-1.08,2.78-1.79,4.07-2.71,9.47-6.77,15.28-11.45s10.92-9.07,14.57-12.29c1.85-1.61,3.31-2.93,4.32-3.85l1.15-1.07.29-.29s.07-.06.1-.1l-.11.08-.32.26-1.18,1.03-4.47,3.72c-3.7,3.18-8.82,7.57-14.63,12.24s-11.11,8.75-15.2,11.5c-.99.71-1.93,1.28-2.78,1.82l-1.13.74-.99.58-1.39.81-.35.21.03.08Z"/>
  </g>
  <g id="freepik--photo-album--inject-18">
    <path class="cls-6" d="M172.81,308.85v422.67c-.2,7.33,5.58,13.44,12.91,13.64.09,0,.18,0,.27,0l310.89-6.33s6.15,15.16,22.56,16.24,28.71-16.24,28.71-16.24l292.83,8.06c12.06.33,22.02-9.9,22.02-22.63v-406.46c0-12.5-9.61-22.64-21.46-22.64H185.74c-7.34.2-13.13,6.3-12.93,13.64,0,.02,0,.04,0,.05Z"/>
    <g class="cls-14">
      <path class="cls-1" d="M196.45,724.21h10.93v10.89l301.33-5.28s4.1,13.5,13.79,12.34,11.47-11.11,11.47-11.11l311.17,4.17-8.33-387.57L201.98,479.26l-5.53,244.95Z"/>
    </g>
    <g class="cls-14">
      <path class="cls-1" d="M172.81,413.83s-13.49,51.68-10.42,79.28c3.07,27.6,10.42,152.89,10.42,152.89v-232.17Z"/>
    </g>
    <g class="cls-15">
      <path class="cls-1" d="M863,420.79s11.7,84.28,9.6,148.64c-2.1,64.36-9.6,72.55-9.6,72.55v-221.19Z"/>
    </g>
    <polygon class="cls-2" points="522.51 726.85 836.9 726.85 836.9 322.55 518.04 306.49 522.51 726.85"/>
    <path class="cls-5" d="M684.01,670.39c-37.65-3.12-75.5-2.86-113.1.78v-130.95c35.77-6.17,79.39-7.9,112.8-4.45l.31,134.62Z"/>
    <path class="cls-12" d="M836.9,726.83s-125.62-65.82-314.39,0l-4.47-420.34s102.17-19.45,159.75-19.45c68.96,0,159.08,19.45,159.08,19.45l.03,420.34Z"/>
    <path class="cls-9" d="M836.9,726.83c0-2.86-.14-171.09-.33-420.37l.26.32c-11.77-2.47-23.81-4.68-36.12-6.79s-24.73-4.07-37.41-5.78c-12.68-1.71-25.59-3.26-38.69-4.42-6.54-.65-13.16-1.04-19.8-1.53s-13.34-.72-20.06-.74c-13.61-.22-27.23.28-40.79,1.5-13.71,1.15-27.53,2.67-41.45,4.46-27.78,3.64-56.02,8.1-84.47,13.35l.29-.35h0c1.64,156.24,3.17,301.18,4.42,420.34l-.4-.28c41.67-14.73,85.05-24.07,129.09-27.78,33.77-2.77,67.75-1.59,101.24,3.53,21.44,3.25,42.54,8.49,63.01,15.66,7.06,2.51,12.35,4.74,15.86,6.31s5.28,2.53,5.28,2.53c0,0-1.78-.9-5.31-2.44s-8.83-3.74-15.89-6.22c-20.48-7.09-41.57-12.27-63.01-15.47-33.47-5.06-67.41-6.2-101.14-3.39-43.99,3.73-87.32,13.07-128.94,27.78l-.39.14v-.42c-1.29-119.16-2.86-264.1-4.54-420.34v-.33h.29c28.48-5.25,56.65-9.7,84.53-13.35,13.89-1.79,27.78-3.31,41.47-4.46,13.59-1.23,27.23-1.73,40.87-1.5,6.74,0,13.43.46,20.09.75,6.65.29,13.27.88,19.81,1.53,13.11,1.15,26.02,2.78,38.72,4.45,12.7,1.67,25.19,3.68,37.44,5.78s24.3,4.35,36.12,6.82h.25v.26c-.17,249.38-.29,417.6-.29,420.46Z"/>
    <path class="cls-2" d="M808.52,515c-82.13-6.22-161.56-6.72-237.54,0v-170.2c82.13-7.88,161.57-8.52,237.54,0v170.2Z"/>
    <path class="cls-9" d="M747.59,331.08l-49.83-1.04c-44.46-.02-88.9,2.22-133.13,6.71l.17-.18v185.24l-.22-.21c22.09-2,45.27-3.47,68.92-4.33,61.04-2.01,122.14-.56,183.02,4.35l-.21.19c0-76.62,0-140.84.08-185.24l.1.13c-21.89-2.51-39.15-3.75-50.9-4.53l-18.06-1.08s6.27.24,18.06.96,29.01,1.94,50.91,4.42h.1v.18c0,44.45,0,108.62.08,185.24v.21h-.21c-60.83-4.88-121.88-6.33-182.87-4.33-23.62.86-46.81,2.32-68.9,4.31h-.22v-185.63h.17c44.25-4.46,88.69-6.65,133.16-6.57l49.79,1.22Z"/>
    <polygon class="cls-9" points="792.57 329.73 822.83 361.78 822.83 330.14 792.57 329.73"/>
    <path class="cls-9" d="M596.39,678.75c-1.17.09-2.34.09-3.51,0-2.15,0-5.13,0-8.42.21s-6.22.6-8.33.9c-1.15.24-2.31.38-3.49.43,1.09-.45,2.23-.76,3.39-.93,5.56-1.11,11.25-1.48,16.91-1.11,1.17.02,2.33.19,3.46.5Z"/>
    <path class="cls-9" d="M811.92,681.91c0,.21-6.95-.42-15.6-1.39s-15.47-1.9-15.47-2.15,6.95.43,15.59,1.39,15.5,1.96,15.49,2.15Z"/>
    <rect class="cls-10" x="692.16" y="548.47" width="134.2" height="107.3" transform="translate(137.99 1345.79) rotate(-88.54)"/>
    <path class="cls-1" d="M707.32,533.67v2.53c0,1.68-.08,4.17-.14,7.29-.15,6.38-.35,15.68-.61,27.46-.56,23.62-1.39,57.07-2.29,96.88l-.35-.36,107.26,2.69h0l-.4.38c1.29-49.66,2.49-95.85,3.49-134.15l.31.32-77.79-2.14-21.74-.68-5.74-.18-1.99-.08h1.92l5.68.1,21.67.47,78,1.82h.32v.33c-.96,38.33-2.11,84.49-3.35,134.16v.39h-.39l-107.26-2.78h-.35v-.35c1.08-39.91,2-73.47,2.64-97.1.35-11.75.61-21.02.79-27.38.1-3.14.18-5.56.22-7.22v-1.83c0-.44.1-.57.1-.57Z"/>
    <rect class="cls-8" x="696.86" y="555.32" width="124.77" height="93.78" transform="translate(137.89 1345.87) rotate(-88.54)"/>
    <polygon class="cls-2" points="710.77 663.38 741.65 585.97 763.22 641.55 780.86 615.53 804.52 665.77 710.77 663.38"/>
    <path class="cls-2" d="M777.29,563.07c0,5.42-4.4,9.82-9.82,9.82-5.42,0-9.82-4.4-9.82-9.82s4.4-9.82,9.82-9.82c5.42,0,9.81,4.38,9.82,9.79v.03Z"/>
    <rect class="cls-10" x="569.98" y="532.27" width="107.3" height="134.2" transform="translate(-9.13 9.65) rotate(-.88)"/>
    <path class="cls-1" d="M568.94,533.14v2.53c0,1.67.08,4.17.15,7.29.13,6.38.29,15.68.51,27.46.4,23.62.97,57.07,1.65,96.89l-.35-.35,107.27-1.68h0l-.39.4c-.74-49.69-1.39-95.85-1.99-134.19l.33.32-77.79,1.01-21.74.25h-7.74,1.93l5.67-.13,21.67-.42,78.01-1.39h.32v.32c.6,38.34,1.39,84.52,2.11,134.19v.39h-.4l-107.27,1.61h-.35v-.35c-.54-39.92-.99-73.5-1.31-97.13-.14-11.75-.25-21.03-.33-27.39,0-3.14,0-5.56-.07-7.22v-2.44h.08Z"/>
    <rect class="cls-2" x="576.74" y="537.08" width="93.78" height="124.77" transform="translate(-9.13 9.65) rotate(-.88)"/>
    <polygon class="cls-9" points="587.73 524.39 557.48 494.03 557.48 526.98 587.73 524.39"/>
    <rect class="cls-2" x="214.29" y="335.55" width="308.24" height="391.31"/>
    <path class="cls-9" d="M522.55,726.89H214.25v-391.38h308.3v391.38ZM214.32,726.82h308.15v-391.24H214.32v391.24Z"/>
    <path class="cls-8" d="M203.08,715.48l-1.86-421.35c100.56-27.19,200.58-12.24,315.63,12.34l5.63,420.39c-101.53-31.83-207.79-36.96-319.39-11.38Z"/>
    <path class="cls-9" d="M203.08,715.48l5.76-1.26c3.81-.79,9.4-2.1,16.78-3.57,14.79-2.78,36.6-6.67,64.73-9.21l10.84-.86c1.85-.14,3.72-.33,5.56-.43l5.78-.28,11.97-.56c4.08-.18,8.25-.14,12.5-.22s8.61-.21,13.06,0l13.56.29c2.31,0,4.63.15,6.95.29l7.08.39,7.22.39c2.42.11,4.85.4,7.32.61,20.94,1.67,41.78,4.52,62.4,8.53,22.98,4.36,45.68,10.03,68.01,16.98l-.39.29c-1.63-118.94-3.6-263.19-5.71-418.59v-1.79l.28.35c-56.09-11.97-111.13-22.3-164.53-25.66-26.03-1.76-52.15-1.57-78.15.58-24.58,2.08-48.94,6.33-72.78,12.7l.24-.32c.92,249.84,1.53,418.49,1.54,421.35,0-2.86-.89-171.5-2.18-421.35v-.25h.25c23.85-6.4,48.23-10.68,72.83-12.81,26.04-2.16,52.2-2.36,78.26-.6,53.51,3.38,108.53,13.67,164.64,25.6h.29v2.1c2.07,155.39,4,299.65,5.56,418.57v.42l-.39-.13c-22.27-6.97-44.92-12.67-67.83-17.07-20.6-4.01-41.41-6.88-62.33-8.58-2.46-.19-4.89-.49-7.32-.61l-7.21-.4-7.08-.39c-2.33-.14-4.65-.28-6.95-.31l-13.56-.29c-4.43-.18-8.78,0-13.03,0s-8.45,0-12.5.21l-11.96.54-5.78.25c-1.9.11-3.78.29-5.63.43l-10.84.85c-28.12,2.49-49.93,6.33-64.73,9.04l-22.55,4.78Z"/>
    <path class="cls-5" d="M522.47,726.86s-100.02-83.76-296.4-54.66V252.97s185.35-28.49,291.84,53.5l4.56,420.39Z"/>
    <path class="cls-9" d="M522.47,726.86c0-2.9-2-171.74-4.89-420.38l.13.25-6.95-5.03c-1.18-.85-2.32-1.71-3.53-2.53l-3.67-2.32c-2.46-1.54-4.88-3.17-7.39-4.64l-7.7-4.31c-10.52-5.67-21.42-10.61-32.62-14.78l-4.24-1.63-4.32-1.39c-2.9-.96-5.78-1.97-8.71-2.89-5.89-1.72-11.79-3.53-17.84-4.97s-12.13-2.85-18.25-4.17-12.38-2.5-18.67-3.4c-25.63-3.94-51.51-5.97-77.44-6.08-13.2-.11-26.5.21-39.9.96-13.39.76-26.87,1.92-40.28,3.78l.31-.35v419.23l-.35-.29c46.31-6.83,89.32-7.56,126.87-3.89,32.37,2.98,64.27,9.83,95,20.41,19.62,6.75,38.51,15.48,56.37,26.05,6.14,3.7,10.67,6.79,13.67,8.96s4.42,3.42,4.42,3.42c0,0-1.47-1.21-4.47-3.35s-7.56-5.21-13.71-8.88c-17.92-10.5-36.84-19.18-56.5-25.89-30.73-10.51-62.6-17.31-94.95-20.25-37.51-3.63-80.47-2.86-126.72,4h-.35V252.65h.31c13.5-1.88,26.99-3.03,40.4-3.79s26.73-1.07,39.95-.96c25.96.12,51.88,2.16,77.54,6.11,6.29.92,12.5,2.15,18.7,3.32s12.28,2.58,18.29,4.17,11.96,3.26,17.86,5c2.93.92,5.82,1.93,8.72,2.89l4.33,1.47,4.25,1.63c11.21,4.19,22.12,9.14,32.64,14.84l7.71,4.31c2.53,1.49,4.96,3.13,7.42,4.67l3.68,2.33c1.19.82,2.36,1.68,3.53,2.53,2.35,1.68,4.68,3.38,6.95,5.06l.13.08v.17c2.57,248.66,4.25,417.49,4.25,420.39Z"/>
    <polygon class="cls-8" points="451.23 464.24 477.88 622.59 268.24 654.07 241.6 495.74 451.23 464.24"/>
    <path class="cls-9" d="M451.23,464.24l-1,.19-2.93.47-11.39,1.76-42.88,6.58-151.35,22.99.46-.6c7.96,47.12,17.07,101.14,26.71,158.36h0l-.71-.49,209.65-31.39-.43.56c-7.9-47.69-14.47-87.24-19.06-114.88-2.26-13.89-4.04-24.68-5.26-32.12-.6-3.7-1.06-6.53-1.39-8.47s-.43-2.94-.43-2.94c0,0,.19.94.53,2.78s.83,4.72,1.47,8.33c1.28,7.39,3.14,18.2,5.56,31.95,4.72,27.7,11.47,67.32,19.63,115.1l.08.47-.5.08-209.62,31.58-.61.1-.1-.57h0c-9.6-57.18-18.67-111.21-26.57-158.36l-.08-.51.54-.07,151.74-22.46,42.81-6.29,11.29-1.64,2.89-.4.96-.11Z"/>
    <polygon class="cls-6" points="273.8 643.01 468.7 613.74 445.4 475.34 250.5 504.61 273.8 643.01"/>
    <g class="cls-14">
      <polygon class="cls-1" points="273.8 643.01 327.39 546.76 378.62 594.25 402.38 561.18 468.7 613.74 273.8 643.01"/>
    </g>
    <g class="cls-14">
      <path class="cls-1" d="M385.68,527.2c1.39,8-4.42,15.53-12.91,16.81s-16.43-4.17-17.78-12.2,4.43-15.53,12.91-16.81,16.45,4.2,17.78,12.2Z"/>
    </g>
    <polygon class="cls-8" points="443.25 296.21 438.32 437.68 251.68 427.89 256.62 286.41 443.25 296.21"/>
    <path class="cls-9" d="M443.29,296.21h-.9l-2.63-.11-10.14-.47-38.22-1.89-134.75-6.85.5-.43c-1.46,42.1-3.13,90.38-4.88,141.46h0l-.53-.54,186.63,9.89-.47.4c1.58-42.6,2.9-77.9,3.82-102.6.47-12.35.86-22.03,1.11-28.67.14-3.29.25-5.82.32-7.56s.14-2.63.14-2.63v2.53c0,1.68-.11,4.17-.21,7.49-.21,6.63-.5,16.28-.88,28.59-.81,24.77-1.97,60.18-3.36,102.89v.43h-.44l-186.64-9.72h-.54v-.51h0c1.79-51.08,3.5-99.35,4.99-141.46v-.46h.49l135.07,7.32,38.09,2.13,10.04.58,2.57.17.82.03Z"/>
    <polygon class="cls-4" points="258.42 419.32 431.94 428.43 436.26 304.77 262.74 295.66 258.42 419.32"/>
    <g class="cls-14">
      <polygon class="cls-1" points="258.42 419.32 321.71 345.63 357.58 395.69 383.93 371.32 431.94 428.43 258.42 419.32"/>
    </g>
    <g class="cls-14">
      <path class="cls-1" d="M375.51,339.03c-.42,7.19-6.59,12.68-13.78,12.26-.11,0-.22-.01-.33-.02-7.38-.23-13.24-6.3-13.21-13.68.43-7.19,6.6-12.68,13.79-12.25.11,0,.22.01.33.02,7.38.22,13.24,6.29,13.2,13.67Z"/>
    </g>
    <path class="cls-10" d="M296.18,639.94V217.51s105.44-11.2,221.86,88.99l4.43,420.37s-66.23-89.15-226.29-86.92Z"/>
    <path class="cls-9" d="M296.18,639.94h9.96c2.18,0,4.7,0,7.56.1l9.61.36c3.53.13,7.39.5,11.56.78,8.33.64,17.93,1.78,28.66,3.45,11.86,1.97,23.61,4.53,35.21,7.68,13.75,3.82,27.21,8.61,40.28,14.34,14.98,6.57,29.34,14.5,42.88,23.67,7.35,5.02,14.4,10.46,21.11,16.29,7.14,6.09,13.72,12.81,19.67,20.07l-.51.18c-1.22-112.91-2.78-259.23-4.54-418.55v-1.82l.13.28c-16.21-13.93-33.42-26.64-51.5-38.03-2.19-1.46-4.5-2.78-6.74-4.17s-4.49-2.78-6.78-3.99c-4.58-2.53-9.1-5.11-13.75-7.43s-9.28-4.61-13.89-6.85c-2.33-1.08-4.71-2.08-7.04-3.14l-3.51-1.54-3.56-1.39c-9.43-3.92-18.99-7.32-28.59-10.24s-19.23-5.42-28.87-7.36c-9.53-1.95-19.16-3.37-28.85-4.28-9.46-.95-18.99-1.12-28.48-.51l.29-.33c-.19,247.64-.33,419.39-.33,422.44,0-3.04-.14-174.8-.33-422.44v-.33h.31c9.53-.62,19.1-.45,28.6.5,9.72.9,19.37,2.33,28.94,4.28,9.67,1.96,19.31,4.42,28.94,7.36,9.63,2.93,19.2,6.35,28.64,10.27l3.57,1.39,3.51,1.54c2.35,1.06,4.72,2.06,7.06,3.15,4.65,2.22,9.36,4.4,13.96,6.85s9.18,4.92,13.78,7.46c2.29,1.25,4.51,2.65,6.78,3.99s4.56,2.65,6.75,4.17c18.12,11.41,35.38,24.14,51.63,38.09l.13.11v1.99c1.67,159.31,3.21,305.61,4.39,418.53v.82l-.51-.64c-5.92-7.24-12.47-13.94-19.57-20.02-6.71-5.83-13.76-11.27-21.1-16.28-13.51-9.17-27.83-17.11-42.77-23.7-13.05-5.73-26.48-10.53-40.2-14.36-11.59-3.17-23.33-5.76-35.17-7.75-10.7-1.68-20.28-2.85-28.62-3.51-4.17-.28-8.02-.67-11.56-.82l-9.6-.39c-2.86-.17-5.4-.13-7.58-.15h-5.49l-4.46-.1Z"/>
    <polygon class="cls-10" points="492.21 282.25 487.89 423.74 324.81 413.93 329.13 272.45 492.21 282.25"/>
    <path class="cls-9" d="M492.21,282.25h-.79l-2.29-.13-8.86-.49-33.34-1.88-117.76-6.86.43-.43c-1.26,42.12-2.78,90.39-4.26,141.47h0l-.46-.54,163.08,9.89-.4.4c1.39-42.59,2.53-77.9,3.33-102.6.42-12.35.75-22.03.97-28.67.13-3.29.21-5.82.28-7.56s.13-2.63.13-2.63v2.54c0,1.69-.1,4.17-.18,7.49-.18,6.61-.44,16.27-.76,28.59l-2.94,102.88v.42h-.4l-163.08-9.72h-.47v-.51h0c1.58-51.08,3.07-99.35,4.36-141.46v-.47h.43l118.08,7.33,33.34,2.13,8.78.57,2.24.17.57.07Z"/>
    <polygon class="cls-8" points="330.7 405.36 482.34 414.47 486.1 290.81 334.48 281.7 330.7 405.36"/>
    <polygon class="cls-2" points="330.7 405.36 386 331.68 417.35 381.74 440.39 357.36 482.34 414.47 330.7 405.36"/>
    <path class="cls-2" d="M433.02,325.07c-.21,7.15-5.74,12.64-12.34,12.24s-11.75-6.52-11.54-13.67,5.75-12.64,12.34-12.24,11.77,6.52,11.54,13.67Z"/>
    <polygon class="cls-10" points="504.56 487.69 490.39 628.52 328.39 607.37 342.56 466.54 504.56 487.69"/>
    <path class="cls-9" d="M504.56,487.69s-.28,0-.79-.08l-2.26-.26-8.81-1.1-33.19-4.17-116.99-15.04.46-.4c-4.17,41.91-9.02,89.97-14.11,140.82h0l-.42-.57,161.99,21.24-.43.38c4.35-42.4,7.96-77.54,10.47-102.12,1.29-12.28,2.29-21.92,2.97-28.53.36-3.28.63-5.79.81-7.53.19-1.69.31-2.6.31-2.6,0,0,0,.85-.21,2.53s-.4,4.17-.71,7.46c-.64,6.58-1.57,16.2-2.78,28.46-2.43,24.64-5.9,59.9-10.1,102.42v.43h-.39l-162.04-21.14-.47-.07v-.51h0c5.14-50.84,9.99-98.89,14.22-140.8v-.46h.42l117.23,15.54,33.06,4.43,8.71,1.19,2.22.32c.6.11.83.17.83.17Z"/>
    <polygon class="cls-8" points="334.87 599.23 485.49 618.9 497.88 495.79 347.26 476.12 334.87 599.23"/>
    <polygon class="cls-2" points="334.87 599.23 395.18 529.57 422.95 581.71 447.62 559 485.49 618.9 334.87 599.23"/>
    <path class="cls-2" d="M442.54,526.27c-.71,7.13-6.6,12.2-13.16,11.35s-11.28-7.32-10.56-14.45,6.6-12.2,13.16-11.35,11.31,7.32,10.56,14.45Z"/>
    <path class="cls-12" d="M522.47,726.86l-4.43-420.37c-.63-4.34-1.56-8.63-2.78-12.84-10.75-38.28-37.98-69.79-74.29-85.99l-42.45-19.11v420.44s107.91,13.63,123.95,117.87Z"/>
    <path class="cls-9" d="M522.47,726.86l-.6-3.15-.76-3.92-.5-2.54c-.22-.89-.47-1.83-.72-2.85-2.78-11.85-7.21-23.25-13.18-33.85-4.26-7.68-9.32-14.9-15.1-21.52-6.87-7.86-14.64-14.89-23.14-20.95-4.71-3.4-9.62-6.53-14.68-9.38-11.14-6.2-22.93-11.17-35.15-14.81-6.6-2.02-13.33-3.58-20.14-4.64h-.24v-.22c0-107.55,0-254.86-.1-417.21v-3.82l.51.22,42.05,18.93c6.89,3.15,13.54,6.81,19.89,10.95,6.19,4.18,12.06,8.83,17.56,13.89,21.23,19.71,35.37,45.88,40.22,74.44h0c2.4,244.15,4.1,417.13,4.17,420.37,0-3.24-2.01-176.21-4.82-420.37h0c-4.83-28.4-18.89-54.41-40.01-74.01-5.47-5.04-11.31-9.66-17.48-13.82-6.32-4.11-12.93-7.75-19.78-10.89l-42.1-18.82.51-.33v3.22c0,162.35,0,309.67-.1,417.21l-.24-.26c6.84,1.09,13.6,2.65,20.23,4.68,12.25,3.69,24.06,8.71,35.23,14.95,5.08,2.87,9.99,6.02,14.71,9.43,8.52,6.08,16.31,13.14,23.2,21.02,5.78,6.65,10.84,13.89,15.09,21.6,5.96,10.64,10.36,22.08,13.07,33.96l.71,2.85c.17.9.32,1.74.47,2.51.28,1.56.5,2.85.69,3.9.36,2.06.53,2.97.53,3.22Z"/>
    <path class="cls-5" d="M430.3,578.43l-.74-130.72s49.77,16.53,75.01,62.96l.93,116.38s-26.89-36.84-75.21-48.62Z"/>
    <path class="cls-8" d="M430.3,578.43l34.52-38.9,13.79,27.88,14.04-20.09,12.84,79.68s-21.11-33.84-75.19-48.58Z"/>
    <path class="cls-8" d="M479.41,520.8c0,4.17-2.03,7.58-4.53,7.58s-4.51-3.39-4.51-7.58,2.01-7.57,4.51-7.57,4.53,3.39,4.53,7.57Z"/>
    <path class="cls-9" d="M426.06,580.07l1.79.47,5.17,1.39c2.78.79,5.51,1.72,8.2,2.78,3.26,1.06,6.79,2.85,10.84,4.64,9.55,4.76,18.6,10.47,27,17.04l1.86,1.39,1.82,1.53,3.74,3.14c2.42,2.24,4.99,4.46,7.43,6.95,5.3,5.14,10.2,10.66,14.67,16.53l-.53.18c0-35.77,0-78.93-.07-125.62v.15c-.79-1.54-1.61-3.14-2.46-4.76l-2.78-4.83c-9.02-14.71-20.84-27.49-34.8-37.63-6.54-4.81-13.45-9.09-20.67-12.79-6.83-3.57-13.95-6.53-21.3-8.85l.42-.32c0,40.94-.13,75.56-.17,100.02,0,12.2,0,21.85-.08,28.46v10.2-10.07c0-6.6,0-16.23-.1-28.41,0-24.45-.08-59.12-.15-100.14v-.44l.42.13c7.39,2.32,14.56,5.29,21.43,8.88,7.28,3.72,14.24,8.01,20.84,12.84,14.04,10.19,25.93,23.04,35.01,37.83l2.78,4.86c.85,1.64,1.67,3.25,2.47,4.79v.17c0,46.69,0,89.85-.07,125.62v.89l-.53-.72c-4.43-5.81-9.29-11.29-14.52-16.39-2.44-2.47-4.99-4.71-7.4-6.95l-3.71-3.13-1.81-1.53-1.85-1.39c-8.42-6.63-17.49-12.4-27.06-17.21-4.03-1.81-7.53-3.61-10.77-4.71s-5.89-2.31-8.18-2.89l-5.15-1.53c-1.18-.35-1.74-.54-1.74-.54Z"/>
    <path class="cls-5" d="M429.56,395.69l.86-132.22s48.98,16.13,75.69,65.39l-.44,116.22s-27.78-37.59-76.11-49.38Z"/>
    <path class="cls-8" d="M429.56,395.69l35.26-39.22,13.79,27.87,14.04-20.07,13.02,80.81s-23.21-37.05-76.11-49.38Z"/>
    <path class="cls-8" d="M479.41,337.69c0,4.17-2.03,7.58-4.53,7.58s-4.51-3.4-4.51-7.58,2.01-7.58,4.51-7.58,4.53,3.39,4.53,7.58Z"/>
    <path class="cls-9" d="M426.06,396.95s.63.15,1.79.49l5.17,1.39c2.78.79,5.51,1.71,8.2,2.78,3.26,1.07,6.79,2.86,10.84,4.64,9.55,4.76,18.6,10.47,27,17.04l1.86,1.39,1.82,1.53,3.74,3.13c2.42,2.24,4.99,4.46,7.43,6.95,5.29,5.14,10.19,10.67,14.67,16.54l-.53.17c0-35.77,0-78.93-.07-125.62v.15l-2.47-4.78c-.9-1.6-1.83-3.21-2.78-4.83-9.02-14.71-20.84-27.5-34.8-37.65-6.54-4.8-13.45-9.08-20.67-12.79-6.83-3.56-13.95-6.52-21.3-8.85l.42-.31c0,40.92-.13,75.54-.17,100.02,0,12.21,0,21.85-.08,28.48v10.18-10.07c0-6.6,0-16.23-.1-28.41,0-24.45-.08-59.12-.15-100.13v-.44l.42.13c7.39,2.31,14.57,5.28,21.43,8.86,7.27,3.72,14.24,8.01,20.84,12.84,14.04,10.19,25.94,23.05,35.01,37.84l2.78,4.86c.85,1.64,1.67,3.24,2.47,4.78v.17c0,46.69,0,89.85-.07,125.62v.89l-.53-.71c-4.43-5.81-9.28-11.29-14.52-16.39-2.44-2.49-4.99-4.71-7.4-6.95l-3.71-3.14-1.81-1.53-1.85-1.39c-8.37-6.58-17.37-12.31-26.87-17.11-4.03-1.81-7.53-3.61-10.77-4.71s-5.89-2.31-8.18-2.89l-5.15-1.53c-1.36-.43-1.92-.63-1.92-.63Z"/>
    <path class="cls-9" d="M475.99,617.76c-.61-.37-1.19-.8-1.72-1.28-1.07-.88-2.65-2.08-4.64-3.54-10.36-7.61-21.98-13.34-34.33-16.92-2.36-.69-4.29-1.21-5.64-1.53-.71-.13-1.4-.32-2.07-.58.72.05,1.43.16,2.13.32,1.39.24,3.32.67,5.72,1.29,12.51,3.34,24.24,9.12,34.51,17,1.94,1.51,3.49,2.78,4.5,3.74.56.45,1.08.95,1.54,1.5Z"/>
    <path class="cls-9" d="M465.14,422.76c-.49-.17-.96-.39-1.39-.68l-3.79-2.1c-3.15-1.69-7.58-3.95-12.59-6.17s-9.65-3.96-13.04-5.15l-4.01-1.39c-.51-.13-1-.32-1.46-.58.52.05,1.04.16,1.54.32.97.25,2.38.65,4.1,1.18,4.48,1.42,8.87,3.09,13.17,4.99,4.28,1.9,8.45,4.02,12.5,6.38,1.56.9,2.78,1.68,3.64,2.24.48.27.93.59,1.33.97Z"/>
    <g class="cls-15">
      <path class="cls-1" d="M398.52,234.99l-10.53,390.88s102.56,2.78,134.52,100.99c0,0-7.22-95.93-123.99-117.87V234.99Z"/>
    </g>
    <g class="cls-15">
      <path class="cls-1" d="M296.18,248.21l-14.32,398.46s119.05-.15,194.13,40.02c0,0-81.82-55.04-179.81-46.74V248.21Z"/>
    </g>
    <g class="cls-15">
      <path class="cls-1" d="M238.18,686.56s170.09-26.05,266.38,28.1c0,0-112.17-72.65-278.45-42.47l12.07,14.36Z"/>
    </g>
    <path class="cls-7" d="M645.03,564.33c-.36-7-6.03-12.56-13.04-12.77h-.69c-7.53.21-11.54,6.72-11.11,14.24l.51,27.38,17.17,1.93.1-5.46s7.24-.9,7.54-8.13c.15-3.5-.14-10.7-.47-17.2Z"/>
    <path class="cls-3" d="M637.96,589.64c-3.33-.03-6.58-1.06-9.32-2.94,0,0,2.07,5.25,9.28,4.82l.04-1.88Z"/>
    <path class="cls-9" d="M641.84,569.44c-.01.56-.47,1.01-1.03,1.01-.54.02-1-.4-1.03-.94,0,0,0-.02,0-.03,0-.55.46-1,1.01-1,.54-.03,1.01.39,1.04.93,0,0,0,.02,0,.03Z"/>
    <path class="cls-9" d="M643.49,567.43c-.13.14-.89-.47-2-.5s-1.93.5-2.06.36.08-.29.44-.54c.49-.32,1.07-.48,1.65-.46.58.01,1.13.21,1.58.57.33.26.44.51.38.57Z"/>
    <path class="cls-9" d="M631.54,569.35c-.01.56-.47,1.01-1.03,1.01-.54.02-1-.4-1.03-.94,0,0,0-.01,0-.02.01-.56.47-1.01,1.03-1.01.54-.03,1,.38,1.03.92,0,.01,0,.03,0,.04Z"/>
    <path class="cls-9" d="M632.46,566.8c-.13.14-.94-.38-2.06-.28s-1.88.71-2,.57,0-.31.38-.58c.45-.38,1.01-.6,1.6-.64.57-.04,1.14.1,1.64.39.36.24.5.47.44.54Z"/>
    <path class="cls-9" d="M636.25,576.04c.59-.17,1.19-.27,1.81-.28.29,0,.56-.07.61-.26.03-.29-.03-.58-.17-.83-.24-.69-.5-1.39-.76-2.18-.73-1.85-1.3-3.75-1.72-5.7.87,1.79,1.6,3.65,2.17,5.56.26.76.51,1.49.74,2.19.17.34.21.74.13,1.11-.09.2-.27.35-.49.4-.16.01-.32.01-.47,0-.61.06-1.22.06-1.83-.01Z"/>
    <path class="cls-9" d="M632.98,576.71c.18,0,.14,1.19,1.15,2.08s2.28.79,2.29.96-.29.22-.83.22c-.7,0-1.38-.26-1.92-.72-.52-.44-.84-1.07-.89-1.75-.04-.54.11-.79.19-.79Z"/>
    <path class="cls-9" d="M632.42,563.14c-.08.32-1.19.24-2.49.46s-2.33.64-2.51.38.08-.42.49-.72c.54-.4,1.17-.66,1.83-.76.66-.12,1.34-.07,1.99.13.49.17.74.46.69.53Z"/>
    <path class="cls-9" d="M643.06,564.58c-.19.25-.96,0-1.88,0s-1.69.13-1.88-.15,0-.38.4-.61c.46-.28,1-.4,1.54-.36.54.03,1.06.22,1.49.56.32.19.42.44.32.57Z"/>
    <path class="cls-7" d="M620.61,571.15c-.11,0-4.92-1.61-4.9,3.32s4.97,3.9,4.99,3.76-.08-7.08-.08-7.08Z"/>
    <path class="cls-3" d="M619.18,576.37s-.08,0-.24.13c-.2.09-.43.09-.64,0-.65-.4-1.03-1.14-.99-1.9-.02-.42.06-.85.24-1.24.09-.31.33-.56.64-.67.21-.05.42.05.51.24v.25s.11-.08.07-.29c-.03-.12-.1-.23-.19-.31-.14-.1-.3-.14-.47-.13-.41.08-.76.37-.9.76-.21.43-.31.91-.29,1.39-.05.9.45,1.74,1.26,2.13.27.08.55.02.78-.14.21-.11.24-.21.22-.22Z"/>
    <path class="cls-9" d="M646.1,555.93c-.14-1-.86-1.81-1.83-2.07.54-1.11.08-2.45-1.03-2.99-.79-.39-1.73-.27-2.4.28,0-1.27-1.05-2.3-2.32-2.29-.26,0-.52.05-.76.14.11-1.07-.67-2.02-1.74-2.13-.76-.08-1.49.29-1.87.95-1-1.56-3.08-2.02-4.64-1.02-.2.13-.39.28-.57.46-2.04-.72-4.31.2-5.26,2.14-1.66.07-3.11,1.13-3.67,2.69-1.65.09-2.91,1.5-2.82,3.15.03.52.19,1.02.47,1.45-1.07.57-1.48,1.9-.91,2.97.1.18.21.35.36.49-.75.36-1.24,1.11-1.26,1.94,0,.83.46,1.6,1.21,1.97-.74.07-1.04,1.03-.85,1.72.28.68.61,1.33.97,1.97.21.56.26,1.17.44,1.75.37,1.09,1.2,1.96,2.26,2.39l-.14.14c-.14.64.72,1.1,1.39.86.57-.32,1.03-.8,1.31-1.39.47-.57.84-1.22,1.1-1.92.25-.72,0-1.52-.63-1.96.86-.32,1.48-1.08,1.63-1.99.14-.89.11-1.8-.07-2.68l-.58-3.93c1.83-.01,3.5-1.04,4.33-2.67,1.21.95,2.95.73,3.9-.48.1-.13.19-.27.27-.41.61,1.83,2.53,2.88,4.4,2.4-.22,1.01,1.58,2.03,2.58,2.32.78.13,1.58,0,2.28-.38,0,0,1.69,1.07,2.65.72s2.22-1.49,1.64-2.49c.22-.69.28-1.41.17-2.13Z"/>
    <path class="cls-4" d="M616.82,560.12c.11.25.27.47.47.65.23.17.53.23.81.17.34-.09.61-.36.71-.71v-.29l.22.21c.38.33.92.43,1.39.25.5-.23.82-.74.81-1.29v-.29l.26.13c.59.27,1.29.06,1.63-.5.12-.22.21-.46.26-.71,0,0,.14.32-.08.82-.15.29-.39.53-.69.67-.4.18-.85.18-1.25,0l.24-.17c.07.72-.35,1.39-1.01,1.67-.59.22-1.26.09-1.72-.35l.29-.08c-.13.47-.51.82-.99.9-.36.08-.74-.03-1-.29-.43-.39-.36-.81-.33-.78Z"/>
    <path class="cls-4" d="M615.93,564.82c.17.09.34.17.53.22.48.12.98-.08,1.25-.49l.11-.17.13.15c.33.33.79.48,1.25.39.52-.14.91-.59.96-1.13v-.32l.26.18.22.11c.36.13.77,0,1-.31.19-.3.19-.69,0-.99l-.17-.31.35.07c.4.07.81-.02,1.14-.25.27-.18.47-.44.58-.74.09-.28.14-.57.14-.86.12.3.12.63,0,.93-.11.35-.32.66-.61.89-.39.31-.9.43-1.39.35l.17-.25c.27.42.27.97,0,1.39-.32.43-.88.61-1.39.44-.12-.03-.23-.08-.33-.15l.31-.14c-.08.69-.59,1.24-1.26,1.39-.57.12-1.17-.09-1.54-.54h.24c-.19.28-.49.48-.82.54-.24.06-.49.06-.72,0-.29-.19-.4-.42-.39-.43Z"/>
    <path class="cls-4" d="M637.09,548.83c-.17-.14-.35-.25-.56-.33-.23-.09-.49-.09-.72,0-.3.13-.52.38-.61.69l-.08.28-.13-.29c-.31-.54-.87-.88-1.49-.9-.76,0-1.43.48-1.67,1.19l-.11.32-.19-.28c-.4-.53-1.02-.85-1.68-.86-.71-.02-1.38.33-1.78.92-.16.24-.28.51-.33.79v.19h-.19c-.94-.25-1.93.17-2.39,1.03-.37.76-.26,1.66.28,2.31l.19.21h-.28c-1.1.16-1.93,1.08-1.96,2.19,0,.41.08.82.22,1.21,0,0-.08-.08-.18-.28-.14-.29-.21-.61-.21-.93,0-.49.14-.98.42-1.39.39-.56.99-.94,1.67-1.06l-.1.25c-.89-.98-.82-2.49.16-3.38.61-.56,1.47-.76,2.27-.53l-.22.14c.06-.34.19-.65.39-.93.47-.7,1.26-1.1,2.1-1.08.77.04,1.49.42,1.94,1.04h-.31c.29-.86,1.11-1.42,2.01-1.39.71.04,1.35.45,1.68,1.08h-.21c.11-.38.4-.68.78-.81.27-.1.56-.1.83,0,.16.07.29.18.4.31.04.09.06.18.04.28Z"/>
    <path class="cls-7" d="M665.55,660.75l-1.07-17.5-2.78-28.67-12.63,12.99s4.17,32.24,5.07,32.58l11.4.61Z"/>
    <polygon class="cls-7" points="615.99 594.59 621.26 592.6 637.84 592.6 643.45 594.93 638.41 606.96 630.6 608.62 622.13 605.62 618.97 601.75 615.99 594.59"/>
    <path class="cls-4" d="M617.85,593.81s-12.17,5.03-13.89,5.78c-2.61,1.18-6.83,5.96-7.36,6.83-.61,1.77-1.07,3.58-1.39,5.42-.81,1.1-1.51,2.27-2.1,3.5,0,.53,12.35,11.56,12.35,11.56l1.49,20.36-2.47,13.46c16.56-1.02,33.16-1.15,49.73-.39l-1.92-34.31,10.86-10.85-1.53-3.49h0c-1.07-5.36-4.53-9.94-9.39-12.43l-10.57-5.43s-1.22,8.58-11.9,8.58-11.9-8.6-11.9-8.6Z"/>
    <path class="cls-9" d="M598.44,604.74l.13.21.31.6c.29.54.68,1.29,1.15,2.22,1.34,2.4,2.48,4.92,3.4,7.52.9,2.61,1.52,5.3,1.85,8.04.11,1.06.14,1.92.15,2.5v.92-.92c0-.58-.08-1.39-.21-2.49-.35-2.72-.98-5.41-1.88-8-.92-2.59-2.04-5.1-3.35-7.52-.49-.94-.86-1.71-1.11-2.25-.13-.26-.22-.47-.28-.61-.06-.07-.12-.14-.17-.22Z"/>
    <path class="cls-9" d="M653.38,609.21v.18l-.07.51c-.07.46-.17,1.1-.28,1.9-.22,1.6-.47,3.82-.63,6.29s-.17,4.7-.14,6.32v2.63-.71c0-.44-.07-1.1-.1-1.92,0-1.61-.07-3.86.08-6.33s.42-4.7.68-6.29c.13-.81.24-1.46.32-1.9l.11-.5v-.18Z"/>
    <path class="cls-9" d="M659.7,606.46c-.02.05-.04.1-.07.15-.07.1-.14.24-.24.39l-.89,1.46c-.74,1.24-1.72,2.97-2.78,4.9s-1.93,3.72-2.6,5c-.32.63-.6,1.14-.79,1.51l-.22.4-.08.14v-.15l.19-.42.74-1.54c.64-1.29,1.53-3.08,2.56-5.01s2.06-3.67,2.78-4.89c.39-.61.69-1.1.93-1.39l.26-.39.21-.17Z"/>
    <path class="cls-9" d="M642.28,594.86c0,.47-.05.94-.17,1.39-.28,1.21-.82,2.33-1.58,3.31-.52.68-1.12,1.28-1.79,1.81-.78.57-1.63,1.04-2.53,1.39-2.09.82-4.33,1.17-6.57,1.03-2.24-.08-4.43-.62-6.46-1.57-1.66-.79-3.12-1.93-4.29-3.35-.79-.95-1.4-2.03-1.81-3.19-.16-.42-.28-.85-.35-1.29,0,.03,0,.06,0,.08l.07.25c0,.11.07.24.13.4.05.18.11.36.18.54.44,1.14,1.06,2.2,1.85,3.14,1.16,1.39,2.61,2.51,4.25,3.28,2.02.93,4.2,1.45,6.42,1.54,2.21.14,4.43-.21,6.5-1.01.89-.35,1.73-.82,2.5-1.39.67-.52,1.27-1.11,1.79-1.78.75-.96,1.3-2.06,1.61-3.24.05-.19.08-.38.11-.57.03-.14.06-.28.07-.42v-.25s.05-.06.07-.1Z"/>
    <path class="cls-9" d="M644.84,646.67h-.43c-.28,0-.68,0-1.19-.15-1.45-.22-2.88-.55-4.28-1-2.07-.66-4.07-1.53-5.97-2.58-2.33-1.29-4.53-2.8-6.58-4.5-2.04-1.71-3.98-3.53-5.81-5.47-1.68-1.79-3.13-3.46-4.31-4.89s-2.14-2.58-2.78-3.39l-.75-.93-.18-.25-.07-.08.08.07.19.24.76.92,2.78,3.36c1.21,1.39,2.65,3.07,4.33,4.85,1.83,1.93,3.77,3.76,5.81,5.46,2.04,1.69,4.23,3.19,6.54,4.49,1.89,1.06,3.88,1.93,5.95,2.61,1.39.46,2.81.81,4.25,1.06.51.1.92.13,1.18.17h.31l.17.04Z"/>
    <path class="cls-7" d="M593.19,599.43c1.53-.3,2.93-1.06,4.01-2.17,1.19-1.6,5.76-12.14,5.76-12.14,0,0-1.26-.88-2.85.85-1.16,1.4-2.23,2.87-3.22,4.4,0,0,.82-6.64,1.1-8.92.25-2,.5-5.04-.47-5.45s-1.53,3.46-2.1,5.04-1.29,3.82-1.29,3.82c.38-3.36.52-6.74.42-10.11-.28-1.61-2.25-1.01-2.31.86,0,0-.75-1.89-1.63-.53s-1.56,9.15-2.08,9.03-.35-6.52-1.18-7.11c-.47-.33-1.1.26-1.22,1.89s-.96,13.89-.67,15.5c.08.85.42,1.66.97,2.31l6.75,2.72Z"/>
    <path class="cls-7" d="M579.55,622.29c1.97-9.62,4.47-19.13,7.47-28.48h9.35l-4.25,25.89,2-3.26,9.72,9.04s-7.24,9.72-10.71,11.46c-11.1,5.7-15.31-6.07-13.59-14.66Z"/>
    <path class="cls-3" d="M594.77,603.2v.28l-.14.82c-.13.74-.31,1.76-.53,3.01-.43,2.56-1.07,6.07-1.57,9.97l-.17,1.39c0,.49-.1.96-.11,1.39v.68c-.01.22-.01.44,0,.67.07.43.17.85.29,1.26.21.83.46,1.61.6,2.36.33,1.71.21,3.47-.33,5.13-.08.27-.18.53-.31.78-.03.09-.07.18-.13.26,0,0,0-.1.1-.28s.17-.43.28-.78c.29-.97.45-1.98.46-3,0-.7-.07-1.4-.21-2.08-.14-.75-.39-1.51-.61-2.35-.11-.4-.22-.83-.31-1.28v-1.39c0-.46.07-.93.11-1.39l.17-1.39c.5-3.92,1.15-7.43,1.63-9.97.24-1.28.43-2.31.58-3l.17-.82v-.21l.03-.07Z"/>
    <path class="cls-3" d="M593.32,594.13s-.14-.33-.39-.85c-.33-.66-.77-1.27-1.29-1.79-.53-.52-1.13-.96-1.79-1.31-.51-.25-.86-.36-.85-.39h.25c.22.06.43.14.64.24.7.31,1.33.74,1.88,1.28.53.54.96,1.17,1.28,1.86.09.21.17.43.24.65.03.19.04.3.04.31Z"/>
    <path class="cls-3" d="M596.09,591.52s-.72.42-1.47,1.08c-.44.44-.87.9-1.26,1.39.27-.57.67-1.07,1.15-1.47.45-.45.99-.79,1.58-1Z"/>
    <path class="cls-3" d="M592.43,574.96s-.08,2.17-.31,4.83-.42,4.82-.47,4.82.1-2.17.31-4.83.43-4.82.47-4.82Z"/>
    <path class="cls-7" d="M732.1,397.12l-7.17,13.89-10.29,11.32-6.77-8.42-.46-8.78-.38-7.36s-9.85-.88-10.61-10.61c-.36-4.71-.33-14.45-.19-23.27.15-9.48,7.54-17.26,17-17.89h.93c10.18,0,15.93,8.53,15.73,18.71l2.21,32.52"/>
    <path class="cls-3" d="M707.03,397.76c4.52-.2,8.87-1.75,12.5-4.45,0,0-2.54,7.21-12.32,6.95l-.18-2.5Z"/>
    <path class="cls-9" d="M700.81,370.6c.04.73.65,1.31,1.39,1.31.77,0,1.39-.62,1.39-1.39-.04-.74-.65-1.32-1.39-1.32-.77,0-1.39.62-1.39,1.39,0,0,0,0,0,.01Z"/>
    <path class="cls-9" d="M698.46,367.96c.18.17,1.19-.68,2.68-.78s2.65.58,2.78.39-.13-.4-.63-.71c-.67-.41-1.46-.6-2.25-.54-.79.05-1.55.36-2.15.88-.39.35-.51.69-.43.76Z"/>
    <path class="cls-9" d="M714.71,369.98c.04.74.65,1.32,1.39,1.32.77,0,1.39-.62,1.39-1.39-.04-.74-.65-1.32-1.39-1.32-.77,0-1.39.62-1.39,1.39Z"/>
    <path class="cls-9" d="M713.35,366.56c.17.19,1.26-.54,2.78-.47s2.56.86,2.78.68-.08-.4-.56-.78c-.63-.48-1.39-.75-2.18-.78-.78-.03-1.55.18-2.19.61-.53.33-.71.65-.63.74Z"/>
    <path class="cls-9" d="M708.61,379.24c-.81-.19-1.63-.28-2.46-.28-.39,0-.75-.07-.83-.32-.06-.39,0-.8.18-1.15l.94-2.99c.88-2.54,1.56-5.14,2.04-7.78-1.1,2.45-1.99,4.99-2.67,7.6-.31,1.04-.61,2.04-.89,3-.22.48-.25,1.01-.1,1.51.13.26.38.45.67.51.22.03.44.03.65,0,.82.07,1.65.03,2.46-.11Z"/>
    <path class="cls-9" d="M713.14,379.99c-.24,0-.14,1.63-1.39,2.86s-3.06,1.18-3.04,1.39.4.29,1.14.26c.95-.06,1.85-.44,2.56-1.08.66-.63,1.06-1.49,1.11-2.4-.06-.65-.26-1.06-.38-1.03Z"/>
    <path class="cls-9" d="M713.21,361.64c.14.42,1.64.25,3.4.5s3.17.75,3.4.39-.13-.57-.69-.97c-.75-.51-1.61-.82-2.51-.93-.9-.13-1.81-.04-2.67.26-.65.22-.99.53-.93.75Z"/>
    <path class="cls-9" d="M698.89,364.1c.29.32,1.29-.1,2.54-.19s2.31.07,2.51-.31-.08-.5-.57-.79c-1.31-.72-2.92-.56-4.07.39-.42.38-.53.74-.42.9Z"/>
    <path class="cls-7" d="M729.58,371.87c.15-.08,6.56-2.42,6.78,4.25s-6.52,5.56-6.54,5.33-.24-9.59-.24-9.59Z"/>
    <path class="cls-3" d="M731.77,378.85s.13.08.32.17c.28.1.59.1.88,0,.85-.59,1.33-1.59,1.24-2.63,0-.57-.13-1.14-.38-1.65-.14-.42-.48-.74-.9-.88-.28-.06-.57.08-.68.35-.08.19,0,.32,0,.33s-.15-.11-.1-.39c.02-.16.11-.31.24-.42.18-.14.41-.21.64-.19.56.09,1.04.47,1.25,1,.31.56.47,1.19.47,1.83.1,1.21-.52,2.37-1.6,2.94-.36.12-.75.07-1.07-.14-.29-.17-.33-.32-.31-.33Z"/>
    <path class="cls-9" d="M694.4,352.54c.14-1.35,1.08-2.49,2.38-2.89-.78-1.49-.2-3.33,1.29-4.11,1.04-.54,2.29-.44,3.23.26-.04-1.73,1.33-3.16,3.05-3.2.34,0,.68.04,1,.14-.09-1.2.61-2.32,1.72-2.78,1.16-.36,2.42.06,3.11,1.06,1.29-2.15,4.07-2.86,6.23-1.57.26.15.5.33.72.53,2.73-1.08,5.83.06,7.22,2.64,2.24.02,4.24,1.39,5.08,3.46,2.22.04,4,1.87,3.96,4.09-.01.71-.21,1.4-.57,2,1.48.71,2.1,2.49,1.39,3.97-.12.25-.27.48-.46.69,1.5.62,2.21,2.33,1.59,3.83-.26.63-.73,1.14-1.32,1.46.99,0,1.47,1.32,1.24,2.29-.36.92-.76,1.82-1.21,2.69-.28.78-.32,1.61-.54,2.39-.44,1.49-1.51,2.72-2.93,3.35l.19.19c.22.83-.93,1.5-1.75,1.22-.78-.4-1.42-1.02-1.85-1.79-.65-.76-1.18-1.62-1.57-2.54-.38-.96-.08-2.05.74-2.68-1.17-.41-2.04-1.4-2.29-2.61-.22-1.2-.22-2.43,0-3.63.19-1.78.4-3.56.6-5.33-2.48.06-4.78-1.25-6-3.4-1.66,1.29-4.05.98-5.34-.68-.08-.1-.15-.2-.22-.31-.76,2.49-3.32,3.98-5.86,3.4.36,1.39-2.03,2.78-3.36,3.26-1.05.21-2.13.07-3.1-.39,0,0-2.24,1.53-3.54,1.1s-3.08-1.9-2.35-3.28c-.38-.9-.54-1.87-.47-2.85Z"/>
    <path class="cls-4" d="M734.16,356.77s0,.47-.6.9c-.3.25-.7.34-1.08.26-.46-.12-.84-.46-.99-.92l-.11-.39-.29.29c-.48.45-1.18.61-1.81.4-.71-.26-1.17-.94-1.15-1.69v-.4l-.35.18c-.43.22-.93.25-1.39.08-.35-.13-.66-.36-.88-.67-.17-.3-.3-.63-.4-.96,0,0-.17.43.17,1.1.21.4.56.71.97.89.54.23,1.14.23,1.68,0l-.33-.22c-.05.95.51,1.83,1.39,2.19.81.27,1.71.06,2.31-.56l-.39-.1c.2.63.74,1.09,1.39,1.18.51.09,1.02-.07,1.39-.43.63-.64.51-1.18.47-1.15Z"/>
    <path class="cls-4" d="M735.59,363.03s-.22.19-.69.32c-.64.18-1.33-.05-1.72-.6l-.15-.22-.17.21c-.41.47-1.05.7-1.67.58-.73-.14-1.29-.73-1.39-1.47v-.43l-.35.26c-.09.06-.19.11-.29.15-.49.2-1.06.05-1.39-.36-.29-.38-.35-.89-.15-1.32l.22-.43-.46.11c-.54.11-1.1.01-1.57-.28-.36-.24-.65-.58-.82-.97-.12-.37-.2-.76-.22-1.15-.18.4-.18.85,0,1.25.15.48.45.89.86,1.18.54.38,1.21.52,1.86.4l-.24-.32c-.3.59-.24,1.3.15,1.83.46.58,1.24.8,1.93.53.15-.06.3-.14.43-.24l-.4-.17c.11.94.83,1.71,1.76,1.88.78.13,1.57-.18,2.06-.81h-.32c.27.38.68.63,1.14.69.33.06.67.02.99-.1.49-.17.63-.54.6-.54Z"/>
    <path class="cls-4" d="M706.21,342.5c.21-.2.46-.37.72-.49.32-.11.67-.11.99,0,.41.15.73.48.86.9l.13.38.18-.35c.39-.75,1.13-1.24,1.97-1.29,1.02-.04,1.95.57,2.31,1.53l.15.43.26-.39c.51-.74,1.33-1.2,2.22-1.25.97-.07,1.9.38,2.46,1.17.24.31.4.66.49,1.04v.26l.25-.08c1.26-.37,2.6.16,3.28,1.28.54,1.01.44,2.25-.26,3.15l-.24.29h.36c.82.09,1.57.51,2.08,1.15.4.49.64,1.09.68,1.72.02.56-.07,1.11-.25,1.64,0,0,.13-.11.24-.39.17-.4.25-.82.24-1.25,0-.7-.22-1.37-.64-1.93-.54-.76-1.37-1.26-2.29-1.39l.13.32c.84-1.02.99-2.45.38-3.63-.77-1.34-2.37-1.97-3.85-1.53l.32.18c-.1-.45-.29-.87-.57-1.24-.66-.93-1.75-1.45-2.89-1.39-1.05.08-2,.63-2.58,1.5h.4c-.61-1.41-2.24-2.06-3.65-1.45-.58.25-1.05.69-1.35,1.24h.29c-.18-.5-.59-.89-1.1-1.04-.37-.11-.76-.08-1.11.08-.22.1-.41.25-.56.43-.06.12-.07.25-.04.38Z"/>
    <path class="cls-9" d="M694.22,465.74c.15,1.71.33,3.1.46,4.06,0,.44.13.81.18,1.1-.1.02-.17.13-.15.23.02.1.13.17.23.15s.17-.13.15-.23c-.02-.07-.07-.13-.15-.15,0-.29-.07-.67-.11-1.1-.08-.96-.21-2.35-.33-4.07s-.28-3.72-.42-5.97h-.38c.17,2.21.33,4.26.51,5.99Z"/>
    <path class="cls-9" d="M692.86,438.84c-.11-1.68-.19-3.06-.25-4.08l-.08-1.11c.01-.12.01-.25,0-.38-.02.13-.02.26,0,.39v1.11c0,1.03.07,2.4.11,4.08.14,3.45.35,8.2.65,13.45.15,2.63.32,5.13.49,7.39h.38c-.15-2.29-.31-4.81-.46-7.46-.36-5.17-.64-9.9-.83-13.39Z"/>
    <path class="cls-6" d="M758.03,445.21l12.39-2.51c.54-.1,1.1-.1,1.64,0,0,0-6.6-27.35-8.33-31.41s-6.25-7.97-6.25-7.97c-1.83-1.07-25.77-8.02-25.77-8.02,0,0-2.9,10.92-14.18,14-6.95,1.92-9.17-.69-9.81-2.94-.26-.95-.42-1.92-.49-2.9,0,0-21.3,13.66-22.55,14.61s-5.35,23.77-5.35,23.77l-3.26,14.78,17.52,2.89c-.17-2.28-.33-4.76-.49-7.39-.31-5.25-.51-10.02-.65-13.46,0-1.67-.08-3.06-.11-4.08v-1.11c-.02-.12-.02-.25,0-.38.02.12.02.25,0,.38,0,.31,0,.67.08,1.11,0,1.03.15,2.4.25,4.07.19,3.5.47,8.22.76,13.45.15,2.65.31,5.18.46,7.47h0s2.69,34.56,2.42,37.09.76,14.1.76,14.1l66.68,1.88-2.78-25.31-.67-6.22h0l-2.29-8.2v-4.93l-6.08-21.59,1.88-.38,4.22-.79Z"/>
    <path class="cls-9" d="M748.44,425.74c-.06-.93-.1-1.75-.13-2.46,0-.3-.02-.61-.08-.9-.04.3-.04.6,0,.9v2.47c0,2.08.17,4.96.33,8.13v.69c.08-1.04.17-2.06.24-3.01-.17-2.21-.28-4.2-.36-5.82Z"/>
    <path class="cls-9" d="M749.07,444.46c-.04.3-.04.6,0,.9.06-.3.09-.6.08-.9v-2.47c0-2.08-.15-4.96-.33-8.13,0-.79-.08-1.57-.13-2.31,0,.96-.15,1.97-.24,3.01.17,2.85.31,5.42.42,7.43.08.97.15,1.79.19,2.46Z"/>
    <path class="cls-9" d="M752.4,406.87c1.4-1.09,2.9-2.02,4.5-2.78-.53.07-1.04.22-1.51.46-1.18.49-2.27,1.16-3.25,1.99-.97.8-1.82,1.74-2.53,2.78-.32.42-.56.89-.72,1.39,1.03-1.4,2.21-2.69,3.51-3.83Z"/>
    <path class="cls-9" d="M684.78,418.79c-.08.08,1.39,1.46,3.04,3.35s2.78,3.58,2.86,3.51c-.64-1.39-1.51-2.66-2.56-3.76-.95-1.2-2.08-2.25-3.35-3.1Z"/>
    <path class="cls-9" d="M735.8,466.69l-.75.97c-.64.85-1.58,2.07-2.78,3.57-2.36,2.99-5.74,7.03-9.72,11.25s-7.86,7.81-10.72,10.32c-1.39,1.25-2.6,2.26-3.42,2.94l-.93.81c-.21.18-.32.29-.31.31l.36-.25.97-.74c.85-.65,2.06-1.63,3.5-2.86,3.79-3.22,7.41-6.64,10.84-10.25,3.44-3.61,6.68-7.41,9.72-11.36,1.15-1.51,2.06-2.78,2.67-3.64.28-.42.5-.75.69-1.01s.22-.36.21-.38c-.12.1-.23.2-.33.32Z"/>
    <path class="cls-7" d="M776.53,470.3l-6.11-27.6h0c-2.39.5-7.57,1.56-12.39,2.51l-4.24.82-1.88.38,6.35,21.74,1.47,5.06.88,8.1h0l.65,6.1.82,7.56h0l1.28,18.06,15.53.97-2.36-43.69Z"/>
    <path class="cls-13" d="M665.98,423.82l-24.7,1.39-2.01,9.32s6.82,5.47,7.5,5.7,16.2,2.4,16.2,2.4c0,0,16.67-7.81,16.49-7.72s-13.47-11.09-13.47-11.09Z"/>
    <path class="cls-10" d="M644.46,380.69c-1.39-1.47-3.78-1.19-5.78-.79-1.17.17-2.32.51-3.39,1.01-1.09.52-1.88,1.49-2.18,2.65-.35,1.76.9,3.53.68,5.31-.24,1.26-1.01,2.36-2.13,3-1.1.64-2.3,1.11-3.54,1.39,1.23,1.56,3.05,2.52,5.03,2.67-.11.64-.93.82-1.58.9s-1.46.46-1.39,1.1c.09.32.3.6.58.76,3.43,2.56,7.65,3.83,11.92,3.6,2.02.01,3.96-.75,5.43-2.14,1.14-1.5,1.69-3.36,1.56-5.24-.08-5.18-2.39-10.07-6.32-13.43"/>
    <path class="cls-10" d="M643.32,381.6c-1.11-4.6,1.73-9.23,6.33-10.34.71-.17,1.43-.25,2.16-.24.93.14,1.88.07,2.78-.18.74-.42,1.4-.96,1.96-1.6,1.95-1.49,4.28-2.38,6.72-2.57,3.39-.75,6.92-.65,10.27.29,3.28,1.14,6.14,4.07,6.18,7.53,0,1.51-.49,3-.57,4.51-.22,1.54.48,3.07,1.79,3.9.89.4,2.04.33,2.68,1.08.49.71.46,1.66-.07,2.35-.53.66-1.2,1.2-1.96,1.57,1.29.34,2.19,1.51,2.19,2.85-.05,1.32-.68,2.54-1.72,3.35-1.04.78-2.25,1.32-3.53,1.58-5.96,1.5-12.31,0-17.92-2.56-6.19-2.77-11.8-6.69-16.53-11.56l.47-.54"/>
    <path class="cls-2" d="M641.84,384.48c.19-.56,1.81-4.25,2.39-4.17s-.56,3.46-.33,3.82c1.99,3.45,2.88,7.43,2.56,11.4-.23,3.84-.9,7.64-1.97,11.34"/>
    <path class="cls-2" d="M644.48,406.83c-1.38-3.57-2.45-7.25-3.21-11"/>
    <path class="cls-13" d="M655.74,438.42c-5.94.06-10.82-4.65-10.99-10.59l-1.08-35.7c-.6-9.57,4.49-17.91,14.09-18.24h.89c8.92.25,16.16,7.28,16.67,16.18.46,8.33.88,17.49.71,21.93-.33,9.21-9.57,10.42-9.57,10.42v4.83c.1,6.04-4.71,11.01-10.75,11.11-.02,0-.05,0-.07,0l.11.04Z"/>
    <path class="cls-11" d="M666.51,422.57c-4.25-.12-8.38-1.45-11.9-3.83,0,0,2.78,6.77,11.96,6.15l-.06-2.32Z"/>
    <path class="cls-11" d="M659.99,407.69c.73-.82,1.99-.88,2.81-.15.82.73.88,1.99.15,2.81-.21.23-.47.41-.76.52-.52.17-1.08.17-1.6,0-.4-.09-.76-.32-1.03-.64-.34-.5-.4-1.14-.15-1.69.18-.46.47-.85.86-1.15"/>
    <path class="cls-9" d="M671.72,396.22c0,.71-.58,1.29-1.29,1.29-.69.07-1.31-.44-1.38-1.13,0-.03,0-.06,0-.09.05-.7.61-1.25,1.31-1.29.69-.07,1.3.43,1.37,1.12,0,.03,0,.07,0,.1Z"/>
    <path class="cls-9" d="M673.32,394.59c-.17.17-1.14-.6-2.56-.63s-2.47.65-2.63.47.1-.39.57-.71c.62-.4,1.36-.61,2.1-.58.73.01,1.44.26,2.03.71.43.35.57.65.49.74Z"/>
    <path class="cls-9" d="M658.6,396.29c0,.71-.58,1.28-1.29,1.29-.7.06-1.32-.46-1.39-1.16,0-.02,0-.04,0-.06.05-.7.61-1.25,1.31-1.29.69-.07,1.3.43,1.37,1.12,0,.03,0,.07,0,.1Z"/>
    <path class="cls-9" d="M659.7,394.59c-.17.17-1.15-.58-2.57-.61s-2.47.64-2.61.47.1-.39.56-.71c.62-.41,1.35-.61,2.1-.6.74.01,1.46.27,2.04.72.42.33.57.65.49.72Z"/>
    <path class="cls-9" d="M664.24,405.22c.75-.22,1.53-.34,2.31-.36.36,0,.71-.08.78-.33.03-.37-.04-.74-.22-1.07l-1-2.78c-.94-2.36-1.68-4.79-2.22-7.27,1.11,2.28,2.04,4.64,2.78,7.06l.96,2.78c.21.43.26.92.15,1.39-.12.25-.34.44-.61.51-.2.03-.41.03-.61,0-.76.12-1.54.15-2.31.07Z"/>
    <path class="cls-9" d="M660.06,406.09c.22,0,.19,1.53,1.49,2.65s2.92,1,2.93,1.21-.38.29-1.07.29c-.9,0-1.76-.33-2.44-.92-.66-.57-1.07-1.36-1.15-2.22-.04-.64.18-1.01.25-1.01Z"/>
    <path class="cls-10" d="M659.87,389.06c-.15.39-1.57.17-3.22.33s-3.03.57-3.24.22.15-.51.69-.88c.73-.45,1.56-.71,2.42-.78.85-.09,1.71.03,2.5.35.61.26.97.57.85.75Z"/>
    <path class="cls-10" d="M672.86,390.56c-.25.32-1.22,0-2.39-.08s-2.18.17-2.39-.18,0-.49.5-.78c.59-.36,1.27-.52,1.96-.47.69.02,1.36.27,1.9.69.4.33.53.67.42.82Z"/>
    <path class="cls-13" d="M644.27,399.15c-.17,0-6.29-2.01-6.24,4.28s6.36,4.96,6.38,4.78-.14-9.06-.14-9.06Z"/>
    <path class="cls-11" d="M642.46,405.76s-.11.07-.29.17c-.26.11-.56.11-.82,0-.82-.53-1.31-1.44-1.28-2.42-.02-.54.08-1.08.29-1.58.12-.4.43-.71.82-.85.26-.06.53.07.65.31.08.17,0,.29.08.31s.13-.11.07-.36c-.03-.16-.12-.3-.25-.4-.17-.12-.39-.18-.6-.15-.53.11-.96.48-1.14.99-.27.55-.39,1.15-.38,1.76-.08,1.17.56,2.27,1.63,2.78.34.1.71.03,1-.18.19-.21.22-.35.21-.36Z"/>
    <path class="cls-10" d="M671.32,379.98c1.01-.58-2.31-3.96-4.82-5.06-3.82-1.65-9.63-2.61-13.1-1.57-4.17,1.26-7.64,3.42-9.72,7.28-1.97,3.93-2.86,8.31-2.57,12.7,0,1.32-2.47,2.08-1.74,3.21.67.91,1.41,1.78,2.19,2.6.43.53,1.1,1.14,1.54,1.65,1.18,1.39,4.17,1.64,4.81.44,1.31-2.25,2.04-4.79,2.11-7.39.13-2.25,0-4.51-.42-6.72-.2-.69-.29-1.41-.26-2.13,0-1.18.36-2.32,1-3.31.16-.22.35-.41.56-.58,1.52-1.33,3.65-1.73,5.56-1.04,3.6,1.19,6.5,3.15,10.6,1.39.7-.38,1.31-.93,1.76-1.58.7-.65,1.78-.65,2.49,0v.11Z"/>
    <path class="cls-10" d="M650.38,381.38c2.06-1.14,4.49-1.4,6.74-.72,1.88.58,3.5,1.79,5.31,2.56,4.13,1.72,8.87,1.11,12.42-1.61,1.04-.66,1.74-1.74,1.93-2.96,0-1.02-.46-1.99-1.25-2.64-.79-.63-1.69-1.1-2.65-1.39-4.43-1.43-9.13-1.78-13.72-1.04-3.75.32-7.29,1.82-10.14,4.28-.38.33-.68.75-.88,1.21-.2.46-.14.99.15,1.39.31.43.91.52,1.34.21.02-.01.03-.03.05-.04"/>
    <path class="cls-11" d="M675,395.9c0,.11-.35.24-.76.39s-.79.25-.85.15.25-.38.72-.54.88-.11.89,0Z"/>
    <path class="cls-11" d="M675.54,396.9c0,.11-.47.14-1.01.14s-1,0-1.01-.14.43-.26,1.01-.26,1.03.15,1.01.26Z"/>
    <path class="cls-11" d="M653.59,396.37c0,.11-.63.14-1.39.14s-1.39,0-1.39-.14.61-.26,1.39-.26,1.4.11,1.39.26Z"/>
    <path class="cls-11" d="M653.51,397.59c0,.11-.56.1-1.19.1s-1.18,0-1.19-.08.5-.32,1.19-.32,1.22.21,1.19.31Z"/>
    <path class="cls-11" d="M659.33,399.65s-.17.29-.63.54c-.6.32-1.29.46-1.97.4-.68-.07-1.32-.34-1.85-.76-.4-.33-.56-.61-.51-.65.71.52,1.54.86,2.4,1.01.88.01,1.76-.17,2.56-.54Z"/>
    <path class="cls-11" d="M659.99,399.34c0,.1-.63.46-1.54.46s-1.57-.35-1.53-.44.71,0,1.53,0c.51-.04,1.03-.05,1.54-.01Z"/>
    <path class="cls-11" d="M673.65,398.47c-1.38.87-3.08,1.03-4.6.43,0-.11,1.06,0,2.32,0s2.24-.54,2.28-.43Z"/>
    <path class="cls-11" d="M672.97,398.95c-1.07,1.15-2.77,1.46-4.17.75.73.05,1.45.05,2.18,0,.68-.21,1.34-.46,1.99-.75Z"/>
    <path class="cls-11" d="M670.02,387.73c-.5.21-1.04.34-1.58.39-1.31.19-2.64.26-3.96.21-1.32-.06-2.63-.23-3.92-.53-.54-.1-1.06-.27-1.56-.51,0-.13,2.44.53,5.56.64s5.45-.32,5.46-.19Z"/>
    <path class="cls-11" d="M670.98,386.65c-1.67.38-3.39.54-5.1.47-1.72.06-3.44-.11-5.11-.51,0-.11,2.29.1,5.11.11s5.08-.21,5.1-.07Z"/>
    <path class="cls-11" d="M663.8,391.19c-.11,0-.14-.29-.15-.61s0-.6.11-.63.28.24.29.61-.14.65-.25.63Z"/>
    <path class="cls-11" d="M665.74,391.44c0,.11-.49,0-.68-.51s0-.9.14-.85.1.36.24.69.36.57.31.67Z"/>
    <path class="cls-11" d="M659.85,405.69c0,.11-.44.19-.85.51s-.57.74-.68.72-.1-.6.43-1.03,1.11-.32,1.1-.21Z"/>
    <path class="cls-11" d="M658.2,405.58c0,.11-.26.17-.44.39s-.22.44-.33.49-.13,0-.15-.21c-.02-.2.04-.4.18-.54.12-.16.31-.25.51-.25.17,0,.24.07.24.12Z"/>
    <path class="cls-11" d="M652.21,430.24s-.18,0-.43-.22c-.33-.3-.54-.71-.6-1.15-.12-.63-.12-1.27,0-1.9.19-.71.19-1.45,0-2.15-.14-.35-.39-.67-.54-1.06-.13-.39-.13-.81,0-1.19.08-.29.08-.6,0-.89-.11-.26-.25-.5-.4-.74-.27-.37-.37-.84-.25-1.28.14-.32.36-.36.35-.33s-.14.11-.19.38c-.05.39.07.79.33,1.08.19.23.35.5.47.78.11.35.11.72,0,1.07-.11.32-.11.67,0,.99.11.32.36.63.54,1.04.22.77.22,1.59,0,2.36-.16.59-.22,1.2-.17,1.81.03.4.18.78.43,1.08.33.22.47.29.46.33Z"/>
    <path class="cls-11" d="M656.22,431s-.19,0-.47-.17c-.36-.29-.62-.68-.75-1.13-.5-1.38-.84-2.81-1.03-4.26-.04-.42-.04-.83,0-1.25.03-.37.03-.75,0-1.13,0-.69-.69-.94-1.14-1.39-.22-.18-.36-.43-.42-.71-.03-.22.06-.45.22-.6.29-.25.53-.11.5-.1s-.21,0-.39.21c-.09.13-.13.29-.11.44.07.21.21.4.39.53.19.17.46.31.74.51.32.23.53.59.57.99.03.39.03.79,0,1.18-.03.41-.03.82,0,1.22.2,1.41.5,2.8.9,4.17.1.41.3.79.58,1.1.24.29.42.33.4.38Z"/>
    <path class="cls-12" d="M657.99,369.87s.11-.08.35-.19.6-.26,1.07-.43c1.34-.49,2.74-.8,4.17-.94,2.09-.23,4.21-.1,6.25.39,1.22.29,2.4.76,3.49,1.39,2.5,1.28,3.9,4.02,3.49,6.79-.14,1.26-.58,2.46-1.28,3.51-.63.95-1.46,1.75-2.43,2.35-.83.53-1.75.93-2.71,1.17-1.36.36-2.77.47-4.17.31-.38-.04-.76-.1-1.14-.19-.25,0-.39-.1-.38-.11s.54.08,1.53.15c1.4.1,2.81-.04,4.17-.42.92-.26,1.79-.66,2.6-1.18.91-.59,1.7-1.36,2.29-2.26.66-1.01,1.07-2.16,1.21-3.36.37-2.62-.95-5.19-3.29-6.42-1.06-.59-2.2-1.02-3.38-1.29-2.01-.49-4.08-.65-6.14-.46-1.39.12-2.76.38-4.1.79-1.08.24-1.58.44-1.6.42Z"/>
    <path class="cls-12" d="M679.44,373.94c.15.5.15,1.04,0,1.54-.24,1.25-.8,2.41-1.64,3.36-.81.94-1.74,1.76-2.78,2.43-.4.32-.84.58-1.32.76.34-.37.73-.7,1.15-.99.97-.73,1.87-1.55,2.68-2.46.79-.91,1.36-2,1.67-3.17.24-.89.24-1.49.24-1.49Z"/>
    <path class="cls-12" d="M656.08,375.05c-1.75.57-3.41,1.36-4.96,2.36-1.1.66-2.01,1.58-2.67,2.68-.19.49-.24,1.03-.14,1.54,0,0-.13-.13-.21-.4-.09-.41-.06-.84.08-1.24.6-1.21,1.54-2.22,2.69-2.92,1.1-.76,2.3-1.34,3.57-1.74.52-.19,1.07-.29,1.63-.29Z"/>
    <path class="cls-12" d="M649.98,373.77s-.33.35-.9.82c-.76.58-1.42,1.29-1.94,2.08-.51.79-.74,1.73-.67,2.67.08.72.33,1.13.28,1.17-.32-.29-.52-.68-.56-1.11-.17-1.02.04-2.07.6-2.94.56-.83,1.27-1.55,2.11-2.1.32-.26.69-.45,1.08-.58Z"/>
    <path class="cls-12" d="M637.42,385.13c.14-.47.38-.9.71-1.26,1.5-1.88,3.87-2.84,6.25-2.56.49.02.97.16,1.39.4,0,0-.54-.08-1.39-.13-2.28-.13-4.49.78-6.03,2.47-.58.63-.88,1.1-.93,1.07Z"/>
    <path class="cls-12" d="M642.02,388.4c-.21-.33-.31-.71-.29-1.1-.11-1.96,1.16-3.72,3.04-4.25.69-.19,1.14-.14,1.14-.08s-.43.1-1.06.35c-.8.32-1.5.86-2.01,1.56-.5.72-.78,1.56-.82,2.43-.08.74.06,1.08,0,1.1Z"/>
    <path class="cls-12" d="M681.94,388.04c-.45.13-.93.13-1.39,0-2.32-.37-4.11-2.23-4.39-4.56-.09-.46-.05-.94.1-1.39,0,0,0,.53.19,1.39.41,2.14,2.04,3.84,4.17,4.32.79.24,1.32.24,1.32.24Z"/>
    <path class="cls-12" d="M681.84,390.81c-1.16.3-2.39.25-3.53-.14-1.17-.27-2.24-.87-3.07-1.74,1.03.52,2.09.99,3.18,1.39,1.13.23,2.27.4,3.42.49Z"/>
    <path class="cls-4" d="M671.72,423.74c.99,0,11.4-1.39,17.78,2.78s23.48,36.63,23.48,36.63c0,0,5.21,17.28-2.13,20.7s-26.74,13.89-26.74,13.89l-4.67-17.11,13.38-6.2v-16.46l-21.1-34.23Z"/>
    <path class="cls-9" d="M688.15,440.67v-2.25c-.07-1.79-.43-3.56-1.06-5.24-.63-1.68-1.53-3.25-2.67-4.64-.88-1.07-1.51-1.64-1.47-1.69.18.09.35.21.5.35.43.36.83.75,1.19,1.17,2.46,2.77,3.8,6.35,3.78,10.06,0,.55-.04,1.11-.14,1.65-.02.2-.06.41-.14.6Z"/>
    <path class="cls-10" d="M642.94,435.03s9.42,5.45,16.56,3.86c4.56-1.13,8.76-3.4,12.21-6.58l12.64,28.92-4.28,49.81-34.41.1,1.14-43.92-3.86-32.19Z"/>
    <path class="cls-4" d="M697.5,490.61l-2.78-43.73-18.38-23.37h-10.31c.57.82,9.61,35.19,8.64,42.42s-6.35,22.41-6.35,22.41h0c0-6.46-.99-15.98-6.33-22.81-8.83-11.28-19.8-40.76-19.8-40.76l-4.9,1.72-13.78,60.5s-.6,14.78,0,25.42c30.34-1.13,58.59-2.28,78.28-1.39-2.9-12.43-4.29-20.42-4.29-20.42Z"/>
    <path class="cls-13" d="M657.48,485.68c.21,0,6.5-3.51,8.1-3.72s13.96-.79,13.96-.79l3.31,11.97s-10.31,5-11.9,5.39-8.33,2.85-9.47,2.85-4.31-1.06-4.31-1.78c-.03-.39.14-.77.46-1,1.44.05,2.88-.04,4.31-.26.75-.27,1.48-.58,2.19-.93,0,0-11.34,1.72-12.14,1.46s-1.39-1.93-1.39-1.93c0,0-1.39-.92-1.46-1.78s.33-1.26,1.07-1.6,5.63-2.51,7.08-2.92,5.31-1.06,5.31-1.06c0,0-11.67,1.26-12.39.93s-1.53-1.6-.33-2.32c1.45-.93,3.03-1.63,4.7-2.06,1.33-.19,2.92-.46,2.92-.46Z"/>
    <path class="cls-11" d="M665.79,492.8c-.7.38-1.43.68-2.19.9-1.39.49-3.29,1.08-5.46,1.63s-4.17.93-5.56,1.15c-.77.15-1.56.24-2.35.25.76-.23,1.53-.41,2.31-.53,1.39-.31,3.38-.72,5.56-1.26s4.08-1.1,5.47-1.51c.72-.26,1.47-.47,2.22-.63Z"/>
    <path class="cls-11" d="M664.69,483.89c-1.13.46-2.31.79-3.51.99-1.18.34-2.39.54-3.61.61,1.14-.46,2.32-.8,3.53-1,1.17-.34,2.38-.54,3.6-.6Z"/>
    <path class="cls-11" d="M679.79,485.94s-.18,0-.47.07c-.42.09-.82.25-1.18.47-.58.36-1.24.57-1.92.61-.78,0-1.56-.49-2.17,0-.31.29-.65.55-1.01.76-.39.17-.82.2-1.24.11-.76-.15-1.39-.44-1.88-.47-.41-.05-.82.07-1.14.32-.21.19-.26.38-.29.36s0-.21.18-.46c.33-.36.8-.54,1.28-.5.64.09,1.28.22,1.9.39.34.06.69.02,1.01-.11.34-.21.65-.45.94-.72.19-.15.4-.26.64-.31.22-.04.46-.04.68,0,.42,0,.78.18,1.11.21.62-.03,1.22-.2,1.76-.5.4-.2.84-.32,1.29-.36.17-.01.34.03.49.13Z"/>
    <path class="cls-11" d="M679.9,488.4c-.32.44-.78.75-1.31.89-.56.19-1.16.25-1.75.17-.31-.06-.62-.09-.93-.08-.31.06-.57.25-.72.53-.21.35-.54.61-.93.72-.35.07-.72.07-1.07,0-.54-.14-1.09-.23-1.64-.25-.35,0-.69.14-.94.39-.18.18-.22.33-.25.32s0-.17.13-.42c.25-.33.63-.54,1.04-.58.58-.02,1.16.04,1.72.17.62.16,1.27-.09,1.63-.63.11-.16.25-.31.4-.44.17-.13.37-.21.58-.24.35-.02.7.02,1.04.11.54.08,1.09.05,1.61-.08.48-.15.94-.34,1.39-.57Z"/>
    <path class="cls-9" d="M645.28,493.61c-.28.04-.57.04-.85,0-.33.02-.67.02-1,0-.4,0-.85,0-1.39-.15-1.14-.17-2.27-.42-3.38-.75-1.35-.41-2.67-.91-3.96-1.49-2.32-1.08-4.56-2.34-6.68-3.78-.82-.56-1.47-1.01-1.9-1.39-.24-.16-.46-.34-.65-.54.26.1.51.24.74.42l1.97,1.24c2.19,1.37,4.46,2.59,6.81,3.67,1.27.57,2.58,1.08,3.9,1.51,1.09.33,2.2.61,3.32.82,1.86.29,3.07.31,3.07.44Z"/>
    <path class="cls-9" d="M653.26,503.81c-.44-.05-.87-.14-1.29-.26-.42-.08-.92-.22-1.5-.4s-1.24-.38-1.94-.65c-1.67-.61-3.31-1.33-4.89-2.14-1.91-1.01-3.77-2.13-5.56-3.35-3.26-2.25-6.33-4.77-9.17-7.53-1.08-1.04-1.94-1.93-2.51-2.56-.32-.3-.61-.64-.86-1,.34.28.67.57.97.89.6.6,1.49,1.39,2.6,2.47,2.89,2.68,5.96,5.15,9.2,7.39,1.79,1.22,3.64,2.33,5.56,3.35,1.56.83,3.16,1.57,4.81,2.21.71.29,1.39.5,1.92.69s1.06.36,1.47.47c.41.11.82.25,1.21.42Z"/>
    <path class="cls-9" d="M696.36,472.68c-.77.47-1.58.87-2.42,1.21-1.51.71-3.61,1.65-5.96,2.64s-4.47,1.88-6.03,2.46c-.79.31-1.39.53-1.86.68-.23.09-.46.16-.71.18.8-.42,1.62-.8,2.46-1.13l5.99-2.56,6-2.53c.82-.39,1.66-.71,2.53-.96Z"/>
    <path class="cls-9" d="M680.83,440.27c.09.09.18.18.26.28l.74.82c.63.69,1.57,1.71,2.78,2.9s2.67,2.6,4.17,4.17c1.73,1.74,3.26,3.68,4.56,5.76,1.25,2.14,2.07,4.5,2.42,6.95.31,2.25.39,4.28.47,5.97s.1,3.08.1,4.03v1.1c.02.13.02.26,0,.39-.02-.12-.02-.25,0-.38v-1.1c0-1.01-.14-2.38-.24-4.03s-.24-3.71-.54-5.93c-.36-2.39-1.18-4.69-2.4-6.78-1.28-2.06-2.78-3.98-4.47-5.72-1.54-1.63-3-3.04-4.17-4.28s-2.1-2.26-2.69-3l-.67-.88c-.22-.15-.31-.26-.31-.28Z"/>
    <path class="cls-9" d="M710.11,484.23c-.37.25-.76.48-1.15.68l-3.21,1.75c-2.78,1.39-6.49,3.45-10.67,5.56s-8.15,4.17-10.9,5.56l-.15.08v-.17l-.88-3.39c-.12-.41-.21-.83-.26-1.25.17.39.31.8.42,1.21l.99,3.35-.19-.08c2.71-1.39,6.57-3.49,10.85-5.71,4.28-2.22,7.96-4.17,10.71-5.56l3.28-1.63c.38-.17.78-.3,1.18-.4Z"/>
    <path class="cls-4" d="M637.35,426.54s-13.64,5.82-17.86,15.06-12.84,38.52-13.04,43.94,2.78,27.78,2.78,27.78l18.67-1.11-2.78-22.62,8.82-31.14,3.42-31.91Z"/>
    <path class="cls-7" d="M629.63,425.86c1.18-.18,2.37.3,3.1,1.25l3.42,4.56s2.47,3.22,1.75,4.61c-.6,1.17-1.76,1.07-2.9,0-1.7-2.03-3.28-4.15-4.75-6.35,0,0,6.67,8.54,5.14,10.11s-3.22-.49-3.22-.49c0,0,1.03,3.28-1.01,2.94s-4.49-3.35-4.49-3.35c0,0,.29,1.93-1.51,1.71s-4.08-3.92-4.53-3.92c0,0-.76-1.63.4-2.51s1.83-.42,1.83-.42c0,0-.44-2.56,1.03-3.42s1.46.21,1.46.21c0,0-1.24-1.72,0-2.78.8-.61,1.89-.7,2.78-.22,0,0,0-1.75,1.51-1.97v.03Z"/>
    <path class="cls-3" d="M627.46,427.29c1.02.9,1.95,1.9,2.78,2.97.91,1,1.72,2.07,2.43,3.22-1.03-.89-1.96-1.88-2.78-2.96-.91-1-1.73-2.08-2.43-3.24Z"/>
    <path class="cls-3" d="M625.33,430.81c.42.42.79.89,1.11,1.39.64.86,1.53,2.04,2.53,3.32s1.93,2.42,2.6,3.25c.39.43.74.89,1.04,1.39-.47-.34-.89-.74-1.25-1.19-.74-.79-1.69-1.92-2.71-3.2s-1.86-2.5-2.44-3.4c-.35-.48-.65-1-.88-1.56Z"/>
    <path class="cls-3" d="M622.9,434.45c.89.59,1.65,1.35,2.22,2.25.69.81,1.21,1.76,1.53,2.78-.1,0-.81-1.15-1.85-2.53-.68-.8-1.32-1.63-1.9-2.5Z"/>
    <path class="cls-9" d="M635.41,457.3c-.13.73-.31,1.44-.56,2.14-.44,1.49-1.04,3.42-1.75,5.76-1.51,4.85-3.67,11.54-6.07,18.92-.58,1.81-1.17,3.57-1.72,5.26v-.17c.92,6.38,1.97,11.92,2.58,15.91.31,2,.53,3.6.65,4.7.1.57.14,1.15.14,1.72-.18-.55-.31-1.11-.39-1.68l-.86-4.65c-.74-3.97-1.88-9.5-2.78-15.88v-.17c.54-1.69,1.13-3.46,1.71-5.26,2.4-7.38,4.63-14.04,6.27-18.86.79-2.31,1.39-4.17,1.97-5.68.21-.71.48-1.39.81-2.06Z"/>
  </g>
</svg>