<?xml version="1.0" encoding="UTF-8"?>
<svg id="Layer_2" data-name="Layer 2" xmlns="http://www.w3.org/2000/svg" viewBox="0 0 1000 1000">
  <defs>
    <style>
      .cls-1 {
        fill: #ff9a6c;
      }

      .cls-1, .cls-2, .cls-3, .cls-4, .cls-5, .cls-6, .cls-7, .cls-8, .cls-9, .cls-10, .cls-11, .cls-12, .cls-13, .cls-14, .cls-15 {
        stroke-width: 0px;
      }

      .cls-2 {
        fill: #975b01;
      }

      .cls-3 {
        fill: #000;
      }

      .cls-4 {
        fill: #e0e0e0;
      }

      .cls-16 {
        opacity: .5;
      }

      .cls-5 {
        fill: #455a64;
      }

      .cls-6 {
        fill: #004d80;
      }

      .cls-7 {
        fill: #f5f5f5;
      }

      .cls-8 {
        fill: #09f;
      }

      .cls-9 {
        fill: #035;
      }

      .cls-10 {
        fill: #ebebeb;
      }

      .cls-11 {
        fill: #263238;
      }

      .cls-12 {
        fill: #ffbf9d;
      }

      .cls-13 {
        fill: #c77802;
      }

      .cls-14 {
        fill: #fafafa;
      }

      .cls-17 {
        opacity: .3;
      }

      .cls-15 {
        fill: #fff;
      }
    </style>
  </defs>
  <g id="freepik--background-complete--inject-18">
    <circle class="cls-4" cx="870.1" cy="242.62" r="63.4"/>
    <path class="cls-14" d="M898.88,244.54c-.73.17-1.48.24-2.23.21l-6.17.17c-5.23,0-12.49.15-20.73.17h-.55v-4.59c0-9.19,0-17.49.17-23.51,0-2.82.13-5.23.17-7.12-.02-.88.05-1.75.21-2.61.17.86.24,1.74.21,2.61,0,1.9.11,4.21.19,7.12,0,6.03.15,14.33.15,23.51v4.21l-.55-.53c8.24,0,15.51,0,20.73.17l6.17.17c.74-.07,1.49-.07,2.23.02Z"/>
    <path class="cls-14" d="M869.93,189.61c.55,1.72.73,3.54.55,5.33.18,1.79,0,3.6-.55,5.31-.53-1.72-.72-3.52-.55-5.31-.17-1.8.01-3.61.55-5.33Z"/>
    <path class="cls-14" d="M898.84,198.17c.21.21-1.29,2.11-3.33,4.09s-3.9,3.54-4.11,3.33,1.29-2.11,3.33-4.09c2.04-1.98,3.88-3.54,4.11-3.33Z"/>
    <path class="cls-14" d="M915.72,216.63c.15.27-1.83,1.54-4.21,3.03-1.41,1.06-2.98,1.87-4.66,2.4-.19-.23,1.58-1.83,4.09-3.35,1.41-1.06,3.05-1.78,4.78-2.09Z"/>
    <path class="cls-14" d="M925.62,244c-4.81.73-9.71.73-14.52,0,4.81-.73,9.71-.73,14.52,0Z"/>
    <path class="cls-14" d="M824.91,243.03c-4.54.73-9.17.73-13.72,0,4.54-.73,9.17-.73,13.72,0Z"/>
    <path class="cls-14" d="M832.03,263.42c-1.42,1.86-3.14,3.49-5.08,4.8-1.73,1.57-3.68,2.88-5.79,3.88,1.44-1.86,3.16-3.48,5.1-4.8,1.71-1.58,3.66-2.89,5.77-3.88Z"/>
    <path class="cls-14" d="M849.6,279.18c-.89,2.19-2.03,4.27-3.39,6.19-1.06,2.11-2.36,4.09-3.88,5.9.57-2.32,1.56-4.51,2.93-6.47,1.08-2.13,2.55-4.04,4.34-5.63Z"/>
    <path class="cls-14" d="M869.93,299.5c-.54-2.38-.72-4.82-.55-7.25-.18-2.44,0-4.89.55-7.27.55,2.38.74,4.83.55,7.27.19,2.43,0,4.87-.55,7.25Z"/>
    <path class="cls-14" d="M901.24,289.85c-4.41-2.13-8.17-5.4-10.87-9.48,1.98,1.38,3.82,2.94,5.52,4.66,1.92,1.45,3.71,3.06,5.35,4.83Z"/>
    <path class="cls-14" d="M915.95,274.02c-1.87-1.11-3.53-2.54-4.91-4.21-1.69-1.37-3.11-3.03-4.21-4.91,3.5,2.49,6.55,5.54,9.04,9.04l.08.08Z"/>
    <path class="cls-14" d="M831.38,223.5c-.21.23-2.11-1.37-4.34-3.56-2.23-2.19-3.79-4.21-3.58-4.34s2.11,1.39,4.34,3.56c2.23,2.17,3.79,4.13,3.58,4.34Z"/>
    <path class="cls-14" d="M849.5,204.41c-.21.21-2.11-1.35-4.21-3.48s-3.71-4.05-3.5-4.21,2.11,1.35,4.21,3.48c2.11,2.13,3.71,4,3.5,4.21Z"/>
    <rect class="cls-10" x="47.29" y="45.35" width="251.96" height="452.63"/>
    <rect class="cls-14" x="57.36" y="58.47" width="229.22" height="426.02"/>
    <polygon class="cls-7" points="286.61 63.49 57.36 355.08 57.36 58.47 286.61 58.47 286.61 63.49"/>
    <rect class="cls-10" x="57.36" y="181.02" width="234.2" height="4.53"/>
    <rect class="cls-10" x="57.36" y="282.47" width="234.2" height="4.53"/>
    <rect class="cls-10" x="57.36" y="383.92" width="234.2" height="4.53"/>
    <rect class="cls-10" x="166.19" y="183.29" width="11.59" height="313.27"/>
    <rect class="cls-10" x="101.5" y="58.47" width="5.25" height="124.82"/>
    <rect class="cls-10" x="146.76" y="58.47" width="5.25" height="124.82"/>
    <rect class="cls-10" x="192" y="58.47" width="5.25" height="124.82"/>
    <rect class="cls-10" x="237.26" y="58.47" width="5.25" height="124.82"/>
    <rect class="cls-7" x="36.65" y="37.68" width="10.66" height="463.1"/>
    <polygon class="cls-4" points="309.91 502.04 299.25 497.98 299.25 37.68 309.91 37.68 309.91 502.04"/>
    <rect class="cls-4" x="36.65" y="33" width="273.28" height="12.35"/>
    <rect class="cls-4" x="29.09" y="503.58" width="288.05" height="11.5"/>
    <polygon class="cls-10" points="299.25 497.98 317.14 503.58 29.09 503.58 47.29 497.98 299.25 497.98"/>
  </g>
  <g id="freepik--Floor--inject-18">
    <path class="cls-11" d="M945.3,957.12c0,.3-203.43.55-454.29.55s-454.34-.25-454.34-.55,203.37-.55,454.34-.55,454.29.32,454.29.55Z"/>
  </g>
  <g id="freepik--Graphics--inject-18">
    <rect class="cls-14" x="350.22" y="158.49" width="398.02" height="364.56"/>
    <path class="cls-11" d="M749.29,524.1h-400.12V157.48h400.12v366.62ZM351.27,522h395.91V159.59h-395.91v362.41Z"/>
    <rect class="cls-11" x="341.01" y="136.56" width="414.43" height="23.24"/>
    <polygon class="cls-4" points="351.12 159.8 747.35 198.7 747.14 159.8 351.12 159.8"/>
    <rect class="cls-8" x="412.12" y="281.4" width="13.36" height="149.16"/>
    <rect class="cls-8" x="437.91" y="332.05" width="13.36" height="98.5"/>
    <rect class="cls-8" x="463.7" y="299.94" width="13.36" height="131.37"/>
    <rect class="cls-8" x="489.47" y="287.15" width="13.36" height="143.38"/>
    <rect class="cls-8" x="515.26" y="335.08" width="13.36" height="95.47"/>
    <rect class="cls-8" x="541.05" y="353.81" width="13.36" height="76.74"/>
    <rect class="cls-8" x="566.82" y="296.71" width="13.36" height="133.84"/>
    <rect class="cls-8" x="592.61" y="320.84" width="13.36" height="109.71"/>
    <rect class="cls-8" x="618.4" y="301.56" width="13.36" height="128.99"/>
    <rect class="cls-8" x="644.17" y="342.67" width="13.36" height="87.88"/>
    <rect class="cls-8" x="669.96" y="325.94" width="13.36" height="104.61"/>
    <path class="cls-11" d="M675.06,315.21c-.29-.01-.58-.06-.86-.15l-2.51-.51c-1.35-.29-2.71-.51-4.09-.65-1.86-.26-3.73-.41-5.6-.46-5.15-.17-10.31.27-15.36,1.33-6.65,1.44-13.04,3.87-18.96,7.21-7.2,4.07-13.71,9.25-19.28,15.36-6.17,7.2-11.62,14.99-16.27,23.26-5.25,8.55-10.54,17.87-18.27,25.81-3.86,4.13-8.42,7.54-13.46,10.07-2.62,1.26-5.42,2.12-8.3,2.55-2.93.38-5.89.27-8.79-.32-5.69-1.37-10.95-4.13-15.32-8.03-4.26-3.66-8.07-7.81-11.36-12.37-6.57-8.87-11.25-18.44-16.27-27.14-4.42-8.38-9.88-16.17-16.25-23.18-2.94-3.11-6.33-5.78-10.05-7.9-1.75-1.01-3.56-1.89-5.44-2.63-1.81-.67-3.66-1.22-5.54-1.64-6.65-1.53-13.57-1.33-20.12.57-4.95,1.41-9.63,3.65-13.82,6.64-2.62,1.93-5.06,4.11-7.27,6.51l-1.69,1.9c-.38.44-.59.65-.61.63s.17-.25.53-.7l1.62-1.98c2.14-2.48,4.55-4.73,7.16-6.7,4.2-3.08,8.91-5.42,13.91-6.89,6.65-1.99,13.7-2.25,20.48-.74,8.23,1.87,15.72,6.15,21.49,12.3,6.47,7.07,12.01,14.93,16.48,23.41,5.04,8.7,9.73,18.23,16.25,26.97,3.24,4.49,6.99,8.59,11.19,12.2,4.22,3.74,9.28,6.42,14.75,7.8,5.55,1.14,11.33.39,16.41-2.11,4.92-2.48,9.38-5.8,13.15-9.82,7.61-7.82,12.92-17.05,18.16-25.6,4.71-8.32,10.22-16.16,16.46-23.41,5.66-6.16,12.28-11.36,19.6-15.42,6.03-3.35,12.53-5.76,19.28-7.14,5.1-1.01,10.31-1.39,15.51-1.14,1.89.08,3.78.27,5.65.57,1.37.17,2.73.43,4.07.76l2.49.61c.29.03.58.09.86.17Z"/>
    <path class="cls-11" d="M397.43,440.94c-.32,0-.57-42.54-.57-94.98s.25-95.01.57-95.01.55,42.54.55,95.01-.25,94.98-.55,94.98Z"/>
    <path class="cls-11" d="M688.77,440.94c0,.29-63.36.55-141.49.55s-141.49-.25-141.49-.55,63.34-.55,141.49-.55,141.49.27,141.49.55Z"/>
    <path class="cls-11" d="M431.17,452.68c-3.27.54-6.59.72-9.9.55-3.31.18-6.63,0-9.9-.55,3.27-.54,6.59-.72,9.9-.55,3.31-.18,6.63,0,9.9.55Z"/>
    <path class="cls-11" d="M464.06,453.31c-3.92.55-7.89.74-11.84.55-3.94.19-7.89,0-11.8-.55,3.93-.54,7.9-.72,11.86-.55,3.93-.17,7.88.01,11.78.55Z"/>
    <path class="cls-11" d="M492.08,453.31c-3.92.55-7.89.74-11.84.55-3.96.19-7.92,0-11.84-.55,3.92-.54,7.89-.72,11.84-.55,3.96-.18,7.92,0,11.84.55Z"/>
    <path class="cls-11" d="M520.13,453.31c-3.92.55-7.89.74-11.84.55-3.96.19-7.92,0-11.84-.55,3.92-.54,7.89-.72,11.84-.55,3.96-.18,7.92,0,11.84.55Z"/>
    <path class="cls-11" d="M548.17,453.31c-3.92.55-7.89.74-11.84.55-3.96.19-7.92,0-11.84-.55,3.92-.54,7.89-.73,11.84-.55,3.96-.18,7.92,0,11.84.55Z"/>
    <path class="cls-11" d="M576.22,453.31c-3.92.55-7.89.74-11.84.55-3.96.19-7.92,0-11.84-.55,7.88-.73,15.81-.73,23.68,0Z"/>
    <path class="cls-11" d="M604.26,453.31c-7.88.73-15.82.73-23.7,0,7.88-.73,15.82-.73,23.7,0Z"/>
    <path class="cls-11" d="M632.3,453.31c-7.88.73-15.82.73-23.7,0,7.88-.73,15.82-.73,23.7,0Z"/>
    <path class="cls-11" d="M660.33,453.31c-7.88.73-15.81.73-23.68,0,7.88-.73,15.81-.73,23.68,0Z"/>
    <path class="cls-11" d="M688.37,453.31c-7.88.73-15.81.73-23.68,0,7.88-.73,15.81-.73,23.68,0Z"/>
    <path class="cls-11" d="M503.4,352.17c0-.15,1.2.25,1.58,1.9.26.95.15,1.97-.3,2.84-.3.57-.82,1-1.43,1.2-.66.19-1.38.11-1.98-.23-1.13-.63-1.79-1.85-1.71-3.14.07-1,.57-1.91,1.37-2.51.51-.45,1.21-.62,1.88-.46.44.13.61.36.57.4s-.99-.29-1.96.65c-.52.52-.82,1.22-.84,1.96,0,.87.45,1.67,1.2,2.11.68.45,1.59.27,2.05-.41.02-.03.04-.07.06-.1.33-.65.47-1.38.4-2.11-.19-1.37-.97-1.9-.89-2.11Z"/>
    <path class="cls-11" d="M632.47,316.35s.32-.17.86,0c.75.28,1.37.81,1.75,1.52.63,1.03.78,2.28.42,3.43-.41,1.53-1.77,2.62-3.35,2.68-.83-.05-1.6-.46-2.11-1.12-.44-.55-.75-1.2-.91-1.9-.29-1.17-.09-2.4.55-3.41,1.2-1.71,2.7-1.62,2.65-1.5s-1.18.4-1.98,1.88c-.42.81-.53,1.75-.32,2.63.27,1.01,1.05,2.11,2.11,2.11,1.1-.1,2.03-.84,2.36-1.9.29-.91.23-1.89-.17-2.76-.41-.76-1.07-1.35-1.88-1.66Z"/>
    <path class="cls-11" d="M634.58,245.77c-.32,0-.55-.72-.55-1.58s.23-1.58.55-1.58.55.7.55,1.58-.25,1.58-.55,1.58Z"/>
    <path class="cls-11" d="M634.58,259.63c-.32,0-.55-1.56-.55-3.46s.23-3.48.55-3.48.55,1.56.55,3.48-.25,3.46-.55,3.46Z"/>
    <path class="cls-11" d="M634.58,273.5c-.32,0-.55-1.54-.55-3.46s.23-3.48.55-3.48.55,1.56.55,3.48-.25,3.46-.55,3.46Z"/>
    <path class="cls-11" d="M634.58,287.38c-.32,0-.55-1.56-.55-3.48s.23-3.46.55-3.46.55,1.54.55,3.46-.25,3.48-.55,3.48Z"/>
    <path class="cls-11" d="M634.58,301.24c-.32,0-.55-1.56-.55-3.46s.23-3.48.55-3.48.55,1.56.55,3.48-.25,3.46-.55,3.46Z"/>
    <path class="cls-11" d="M634.58,311.34c-.32,0-.55-.7-.55-1.58s.23-1.58.55-1.58.55.72.55,1.58-.25,1.58-.55,1.58Z"/>
    <path class="cls-11" d="M729.59,219.07c0,.32-21.89.55-48.93.55s-48.93-.23-48.93-.55,21.89-.55,48.93-.55,48.93.25,48.93.55Z"/>
    <path class="cls-11" d="M696.17,205.38c0,.29-14.1.55-31.48.55s-31.48-.25-31.48-.55,14.1-.55,31.48-.55,31.48.25,31.48.55Z"/>
    <g class="cls-17">
      <rect class="cls-15" x="412.12" y="281.4" width="13.36" height="149.16"/>
    </g>
    <g class="cls-17">
      <rect class="cls-15" x="437.91" y="332.05" width="13.36" height="98.5"/>
    </g>
    <g class="cls-17">
      <rect class="cls-15" x="463.7" y="299.94" width="13.36" height="131.37"/>
    </g>
    <g class="cls-17">
      <rect class="cls-15" x="489.47" y="287.15" width="13.36" height="143.38"/>
    </g>
    <g class="cls-17">
      <rect class="cls-15" x="515.26" y="335.08" width="13.36" height="95.47"/>
    </g>
    <g class="cls-17">
      <rect class="cls-15" x="541.05" y="353.81" width="13.36" height="76.74"/>
    </g>
    <g class="cls-17">
      <rect class="cls-15" x="566.82" y="296.71" width="13.36" height="133.84"/>
    </g>
    <g class="cls-17">
      <rect class="cls-15" x="592.61" y="320.84" width="13.36" height="109.71"/>
    </g>
    <g class="cls-17">
      <rect class="cls-15" x="618.4" y="301.56" width="13.36" height="128.99"/>
    </g>
    <g class="cls-17">
      <rect class="cls-15" x="644.17" y="342.67" width="13.36" height="87.88"/>
    </g>
    <g class="cls-17">
      <rect class="cls-15" x="669.96" y="325.94" width="13.36" height="104.61"/>
    </g>
  </g>
  <g id="freepik--character-1--inject-18">
    <path class="cls-11" d="M72.05,425.01c.86,1.04,1.95,1.87,3.18,2.43-.96.99-2.25,1.57-3.63,1.63,3.7,8.62,13.73,13.12,23.11,13.14,9.37.02,18.36-3.58,27.05-7.12l25.24-6.67c2.21-.51,3.11-3.22,3.07-5.49-.04-2.27-.59-4.64.18-6.77,1.11-2.92,4.49-4.48,5.64-7.38,1.31-3.3-.73-6.97-3.07-9.63-2.34-2.66-5.17-5.19-5.94-8.67-.68-3.19.54-6.79-1.05-9.63-1.96-3.5-7.1-3.94-9.48-7.17-1.12-1.57-1.51-3.6-2.66-5.18-1.94-2.68-5.69-3.37-8.98-3.02-3.29.35-6.45,1.55-9.76,1.79-4.53.33-9.21-1.14-13.57.18-4.79,1.44-7.72,5.71-10.83,9.83l-1-2.1c-1.08-2.25-2.29-4.66-4.5-5.82-1.14-.56,5.02,9.22,3.76,9.41-.68.77.25.21-.68,1.08-.9.9-.22-.57-.52.67-.29,1.24.44-.6-.39.49-.75.98.14-.17-.61.73,0,.77-1.38.06-.13.33-1.53.38,1.55.28,0,0-.83.82-1.74,1.56-2.71,2.21-1.71,1.11-3.67,1.88-5.13,3.3-3.15,3-2.87,8.81.55,11.53-1.74.6-3.24,1.75-4.28,3.27-1.04,1.52-1.56,3.34-1.48,5.18.09,1.98.93,3.89,1.54,5.82.61,1.93.98,4.07.18,5.92-.8,1.85-3.16,3.13-4.92,2.14.33,1.31.95,2.54,1.81,3.58Z"/>
    <path class="cls-12" d="M87.7,405.26l4.29,63.75-12.7,10.99,41.48,23.62,12.48-24.92-1.77-20.1s16.74-2.9,16.64-19.66c-.05-8.1-1.5-24.75-2.99-39.8-1.59-16.19-15.36-28.44-31.62-28.14h-1.61c-17.41,1.33-26,16.86-24.21,34.26Z"/>
    <path class="cls-1" d="M131.91,462.93c-16.69,1.81-22.31-10.44-22.31-10.44,11.38,6.88,21.95,6.05,21.95,6.05l.37,4.39Z"/>
    <path class="cls-11" d="M138.41,415.07c-.12-1.25-1.24-2.17-2.49-2.05-1.3.07-2.3,1.16-2.26,2.46,0,.01,0,.02,0,.03.11,1.26,1.23,2.2,2.49,2.08,1.29-.07,2.3-1.16,2.26-2.46,0-.02,0-.04,0-.07Z"/>
    <path class="cls-11" d="M140.76,406.08c-1.1-.77-2.41-1.17-3.75-1.14-1.35.02-2.67.45-3.77,1.24-.81.62-1.11,1.18-.97,1.32.28.31,2.16-1.01,4.73-1.07,2.57-.06,4.4,1.26,4.69.93.15-.14-.13-.7-.93-1.29Z"/>
    <path class="cls-11" d="M115.82,416.2c-.12-1.25-1.24-2.17-2.49-2.05-1.3.07-2.3,1.16-2.26,2.46,0,.02,0,.04,0,.06.12,1.25,1.24,2.17,2.49,2.05,1.29-.07,2.3-1.15,2.26-2.45,0-.02,0-.04,0-.07Z"/>
    <path class="cls-11" d="M115.47,407.01c-1.1-.77-2.41-1.16-3.75-1.13-1.35.01-2.67.44-3.77,1.23-.82.62-1.11,1.18-.97,1.32.28.31,2.15-1.02,4.72-1.07s4.41,1.26,4.7.94c.15-.14-.13-.71-.93-1.3Z"/>
    <path class="cls-11" d="M130.32,427.1c.38,0,.75-.07,1.12-.17.48-.15.88-.5,1.07-.97.18-.88.04-1.79-.39-2.58-.62-1.58-1.27-3.25-1.95-4.99-2.83-7.07-5.36-12.72-5.64-12.61s1.77,5.93,4.6,13.02c.71,1.76,1.39,3.41,2.03,4.99.35.58.52,1.26.47,1.94-.1.45-.72.59-1.37.67-2.58.38-4.16.69-4.16.83.02.15,1.63.11,4.23-.12Z"/>
    <path class="cls-11" d="M117.29,396.84c-1.2-.72-2.56-1.11-3.95-1.13-1.41-.05-2.81.27-4.06.93-.97.53-1.44,1.13-1.33,1.46.27.67,2.55.17,5.26.22,2.71.05,4.94.71,5.26.05.15-.32-.27-.93-1.17-1.52Z"/>
    <path class="cls-11" d="M140.62,395.28c-1.26-.73-2.7-1.11-4.16-1.1-1.48-.04-2.93.32-4.23,1.03-.93.57-1.26,1.17-1.04,1.46.51.6,2.66.17,5.22.12,2.55-.04,4.69.55,5.23-.04.23-.29-.07-.89-1.02-1.47Z"/>
    <path class="cls-12" d="M91.41,434.01c0,.32-11.38,3.26-11.94-8.18-.32-6.45,3.12-8.29,6.24-8.64.07,0,.15-.01.22-.02,2.51-.13,4.64,1.8,4.77,4.3.28,4.79.71,12.21.71,12.53Z"/>
    <path class="cls-1" d="M88.38,430.4c-.51.4-1.18.54-1.81.39-1.67-.39-2.96-2.5-3.15-4.79-.09-1.1.09-2.21.53-3.23.29-.93,1.05-1.64,2-1.87.39-.07.79.01,1.12.23.23.17.4.41.48.69.12.47-.05.69-.12.67s0-.25-.17-.56c-.23-.43-.73-.64-1.2-.49-.71.27-1.24.87-1.42,1.61-.35.92-.5,1.9-.42,2.88.15,2.06,1.26,3.94,2.5,4.32.49.16,1.02.12,1.48-.11.33-.17.47-.32.52-.32.04.02,0,.28-.34.58Z"/>
    <path class="cls-11" d="M124.98,436.24c-1.61.18-3.22-.27-4.5-1.26-1.33-1.04-2.26-2.51-2.61-4.16-.26-1.22-.05-2.06.13-2.06.41-.07.79,2.98,3.33,4.93,2.54,1.95,5.35,1.31,5.42,1.73.07.19-.53.67-1.76.82Z"/>
    <path class="cls-11" d="M90.7,429.31c2.08-6.44,3.43-13.1,4.04-19.84.56-6.94-.39-14.17-3.9-20.19-.38-.63,1.49-6.62.77-6.69-1.02-.1-4.05,6.32-4.4,7.28-2.37,6.31-2.56,13.26-1.61,19.93.95,6.66,3,13.12,5.09,19.52"/>
    <path class="cls-11" d="M136.75,380.86s-.98,1.97-5.03,4.97c-2.81,2.08-13.42-1.34-19.64-3.64-1.93-.72-4.01-.9-6.04-.55-2.03.36-3.92,1.25-5.49,2.58-.33.27-.63.57-.91.9-1.19,1.51-1.28,3.64-.86,5.52.42,1.88,1.27,3.63,1.78,5.49.95,3.41.77,7.02.57,10.55-.25,4.97-.58,10.15-3.07,14.46-1.17,2.01-3.68,4.01-5.68,1.83-.8-.93-1.19-2.14-1.11-3.37.18-3.37-2.76-4.96-4.3-7.42-1.22-2-1.47-4.49-1.47-6.79-.12-7.68,1.37-15.5,5.17-22.19,3.8-6.69,9.99-10.29,17.41-12.29,6.16-1.66,16.31.36,22.94,3.43,4.38,2.06,9.69,7.94,7.88,8.91l-2.17-2.39Z"/>
    <path class="cls-11" d="M92.95,380.1c4.35-1.13,8.94-.94,13.18.55,3.95,1.41,7.45,3.9,11.4,5.33,4.7,1.69,7.76,2.37,12.51.83l.22-.13c3.17-1.24,4.63-5.27,3.75-8.56-.88-3.29-3.58-5.84-6.59-7.45-5.65-3.03-12.56-3.22-18.71-1.27-6.12,1.96-11.45,5.92-15.75,10.7Z"/>
    <path class="cls-5" d="M90.07,377.72c1.04-.83,2.19-1.5,3.42-2.01,1.52-.66,3.17-.95,4.82-.86,2.97.31,5.78,1.54,8.01,3.53.67.59,1.27,1.25,1.8,1.97.36.51.59.78.48.85-.11.08-.9-1.06-2.61-2.42-2.22-1.77-4.89-2.88-7.71-3.2-1.54-.08-3.08.18-4.5.77-1.19.46-2.32,1.07-3.37,1.8-1.8,1.24-2.69,2.31-2.78,2.22-.08-.04.68-1.24,2.44-2.64Z"/>
    <path class="cls-5" d="M92.08,393.69c4.03,4.6,8.81,6.42,8.68,6.63-1.08-.22-2.1-.63-3.04-1.21-4.7-2.56-8.36-6.68-10.35-11.65-.73-1.9-.92-3.17-.84-3.17.25-.1,1.52,4.79,5.55,9.4Z"/>
    <path class="cls-5" d="M82.93,390.7c.97,3.59,2.74,6.9,5.18,9.7,2.44,2.8,5.49,5,8.91,6.44,2.62,1.1,4.36,1.41,4.36,1.54-.41.01-.83-.04-1.22-.15-1.13-.22-2.23-.54-3.3-.95-3.58-1.35-6.77-3.56-9.28-6.45-2.51-2.88-4.27-6.35-5.12-10.08-.26-1.12-.42-2.26-.48-3.4-.05-.42-.04-.85.05-1.26.15,0,.15,1.78.91,4.61Z"/>
    <rect class="cls-5" x="45.67" y="525.16" width="96.75" height="195.13"/>
    <path class="cls-5" d="M50.16,719.85h0c-8.34-.01-15.09-6.77-15.09-15.11v-164.47c0-8.34,6.75-15.1,15.09-15.11h0c8.34-.06,15.15,6.66,15.21,15,0,.04,0,.07,0,.11v164.47c0,8.34-6.76,15.11-15.11,15.11-.04,0-.07,0-.11,0Z"/>
    <path class="cls-11" d="M58.06,533.02c.02.16.02.32,0,.48l.15,1.41c0,1.37.25,3.2.44,5.52.36,4.87.84,11.76,1.45,20.23,1.14,17.19,2.68,40.77,4.38,66.81,1.71,26.04,3.14,49.7,3.98,66.83.49,6.81-.36,13.64-2.51,20.12-.65,1.73-1.47,3.4-2.44,4.97l-.84,1.18c-.09.14-.2.27-.32.38,1.29-2.11,2.36-4.35,3.2-6.68,1.96-6.46,2.67-13.23,2.11-19.95-1.1-17.17-2.61-40.75-4.21-66.79-1.6-26.04-2.99-49.64-4.05-66.77-.46-8.43-.82-15.36-1.1-20.25,0-2.32-.19-4.21-.25-5.52v-1.43c-.05-.18-.05-.37,0-.55Z"/>
    <rect class="cls-5" x="133.74" y="744.52" width="15.59" height="186.87"/>
    <path class="cls-5" d="M250.43,744.52H27.44c.01-13.37,10.86-24.21,24.23-24.21h174.63c13.37,0,24.21,10.84,24.21,24.21h-.08Z"/>
    <path class="cls-11" d="M155.23,745c-4.53.57-9.11.76-13.67.57-4.57.19-9.15,0-13.7-.57,4.54-.57,9.12-.76,13.7-.57,4.57-.19,9.14,0,13.67.57Z"/>
    <path class="cls-5" d="M209.76,948.31h-2.11c0-36.66-29.72-66.37-66.37-66.37s-66.37,29.72-66.37,66.37h-2.11c0-37.87,30.71-68.56,68.57-68.55,37.86,0,68.55,30.69,68.55,68.55h-.17Z"/>
    <circle class="cls-11" cx="73.73" cy="947.07" r="10.28"/>
    <path class="cls-5" d="M219.39,947.55c0,5.68-4.6,10.28-10.28,10.28s-10.28-4.6-10.28-10.28c0-5.68,4.6-10.28,10.28-10.28,5.67.01,10.27,4.61,10.28,10.28Z"/>
    <path class="cls-5" d="M209.11,931.39c0,.32-29.84.57-66.65.57s-66.56-.25-66.56-.57,29.84-.57,66.65-.57,66.56.25,66.56.57Z"/>
    <path class="cls-11" d="M117.47,719.91c-1.12.16-2.24.24-3.37.23l-9.19.23c-7.75.17-18.46.3-30.28.38l-16.69.13c-4.51-.14-9.01.27-13.42,1.2-2.95.73-5.71,2.05-8.13,3.88-1.71,1.29-2.49,2.23-2.57,2.11s.15-.27.53-.72c.54-.64,1.13-1.23,1.77-1.77,2.39-1.98,5.19-3.42,8.2-4.21,4.46-1.06,9.03-1.56,13.61-1.47,5.1-.13,10.77-.15,16.67-.19,11.84,0,22.57-.11,30.32,0l9.19.11c1.12-.07,2.25-.03,3.37.11Z"/>
    <path class="cls-8" d="M206.16,908.42l9.19-12.87-35.36-24.86-14.62,19.87,2.11,1.73c9.08,7.67,46.67,38.33,54.42,41.23,8.55,3.22-15.74-25.09-15.74-25.09Z"/>
    <g class="cls-16">
      <path class="cls-15" d="M177.99,899.68c1.77-3.21,2.28-6.97,1.43-10.54-.82-3.69-3.24-6.83-6.59-8.58l-6.95,9.52,12.12,9.59Z"/>
    </g>
    <g class="cls-16">
      <path class="cls-15" d="M217.66,922.71s8.03,10.54,5.52,11.27c-2.51.74-41.68-28.89-57.82-43.43l.61-.72,45.39,34.89s4.24-3.46,6.3-2.02Z"/>
    </g>
    <path class="cls-11" d="M165.45,889.46l.55.51,1.62,1.37,6.03,4.97c5.12,4.21,12.28,9.84,20.31,15.91,8.03,6.07,15.42,11.44,20.82,15.23l6.32,4.47,1.77,1.18c.19.15.41.28.63.38,0,0-.19-.17-.57-.46l-1.71-1.26-6.32-4.59c-5.33-3.88-12.64-9.25-20.71-15.34-8.07-6.09-15.04-11.82-20.31-15.82l-6.13-4.85-1.69-1.31c-.18-.16-.39-.28-.61-.38Z"/>
    <path class="cls-11" d="M210.96,925.28c1.02-.84,2.15-1.55,3.35-2.11,1.26-.4,2.57-.64,3.9-.72-1.34-.43-2.8-.35-4.09.23-1.35.42-2.48,1.35-3.16,2.59Z"/>
    <path class="cls-11" d="M204.64,912.64c0,.15.97,0,2.11-.46,1.14-.46,1.92-.82,1.88-.95s-.97,0-2.11.46c-1.14.46-1.94.76-1.88.95Z"/>
    <path class="cls-11" d="M202.96,909.04c0,.15.82.21,1.79.13.61.03,1.22-.1,1.77-.38,0-.15-.82-.21-1.81-.13s-1.77.25-1.75.38Z"/>
    <path class="cls-11" d="M203.59,904.55s.63.82,1.62,1.58,1.85,1.29,1.94,1.16-.65-.8-1.62-1.56-1.85-1.29-1.94-1.18Z"/>
    <path class="cls-11" d="M204.68,901.85c-.13,0,.46,1.12,1.56,2.11.61.65,1.4,1.1,2.28,1.29,0-.13-.91-.76-1.94-1.66s-1.79-1.81-1.9-1.73Z"/>
    <path class="cls-11" d="M208.01,910.53c.61.66,1.32,1.21,2.11,1.64.87.51,1.79.93,2.74,1.26.56.23,1.15.39,1.75.48.37.05.74-.04,1.05-.25.31-.28.44-.71.32-1.12-1.27-2.52-4.33-3.53-6.85-2.26-.3.15-.58.33-.84.53-.36.3-.51.51-.48.55.73-.5,1.54-.87,2.4-1.1.93-.19,1.9-.11,2.78.23,1.08.34,1.97,1.1,2.49,2.11.17.53-.27.82-.84.76-.56-.08-1.1-.22-1.62-.42-.93-.31-1.84-.69-2.72-1.14-1.39-.72-2.23-1.29-2.28-1.29Z"/>
    <path class="cls-11" d="M208.5,911.06s.76-.25,1.39-1.31c.39-.63.59-1.36.59-2.11.12-.94-.25-1.88-.99-2.49-.53-.26-1.17-.04-1.43.48-.21.38-.34.81-.36,1.24-.09.7-.09,1.41,0,2.11.04.65.25,1.29.61,1.83,0,0-.15-.72-.23-1.85-.07-.7-.07-1.41,0-2.11,0-.67.46-1.66,1.1-1.33s.74,1.33.76,2.11c-.02.65-.17,1.29-.44,1.88-.28.55-.61,1.06-.99,1.54Z"/>
    <path class="cls-11" d="M173.1,880.76s1.05.65,2.47,2c1.82,1.73,3.15,3.91,3.86,6.32.63,2.43.57,4.99-.17,7.4-.57,1.83-1.24,2.84-1.16,2.89.21-.19.38-.42.51-.67.41-.66.74-1.37.99-2.11.89-2.45,1-5.11.32-7.63-.69-2.54-2.11-4.82-4.09-6.55-.59-.52-1.24-.98-1.92-1.37-.48-.19-.78-.32-.8-.27Z"/>
    <path class="cls-11" d="M184.79,899.66c1.35,1.61,2.91,3.02,4.64,4.21,1.62,1.35,3.4,2.49,5.31,3.39,0-.13-2.25-1.69-4.99-3.79-2.74-2.11-4.85-3.92-4.95-3.81Z"/>
    <path class="cls-11" d="M178.07,894.58c-.15,0-.17.59-.32,1.26s-.36,1.22-.23,1.31.57-.4.74-1.18-.04-1.41-.19-1.39Z"/>
    <path class="cls-11" d="M177.88,889.57c-.15,0-.19.55-.11,1.16s.27,1.12.42,1.1.19-.53,0-1.16-.19-1.1-.32-1.1Z"/>
    <path class="cls-11" d="M175.31,885.42c0,.15.4.48.78,1.03s.53,1.1.67,1.1.21-.7-.25-1.37-1.16-.93-1.2-.76Z"/>
    <path class="cls-11" d="M173.25,882.8c-.13,0,0,.4.15.72s.46.53.59.46,0-.4-.15-.72-.46-.53-.59-.46Z"/>
    <g class="cls-17">
      <polygon class="cls-3" points="174.11 878.65 209.85 903.28 210.9 901.91 176.16 875.79 174.11 878.65"/>
    </g>
    <path class="cls-8" d="M377.75,949.09l-3.31-15.09-41.09,9.4,4.8,23.6,2.59-.32c11.48-1.56,58.32-8.72,65.49-12.43,8.01-4.15-28.49-5.16-28.49-5.16Z"/>
    <g class="cls-16">
      <path class="cls-15" d="M353.06,963.82c-1.19-3.37-3.57-6.18-6.7-7.9-3.22-1.82-7.08-2.11-10.54-.78l2.34,11.27,14.9-2.59Z"/>
    </g>
    <g class="cls-16">
      <path class="cls-15" d="M395.71,950.19s12.94,1.12,11.78,3.39-48.21,11.25-69.32,13.42l-.11-.91,54.99-10.01s.27-5.35,2.65-5.9Z"/>
    </g>
    <path class="cls-11" d="M337.41,966.18h.74l2.11-.27,7.56-1.12c6.32-.99,15.15-2.47,24.82-4.21,9.67-1.75,18.37-3.69,24.65-5.1l7.44-1.73,2.11-.51.7-.21c-.24,0-.48.05-.72.11l-2.11.42-7.46,1.58c-6.32,1.33-15.02,3.12-24.69,4.95s-18.42,3.37-24.78,4.45l-7.52,1.26-2.11.36-.74.02Z"/>
    <path class="cls-11" d="M393.16,956.72c.09-1.28.34-2.55.74-3.77.58-1.17,1.29-2.28,2.11-3.31-1.17.71-2.05,1.82-2.49,3.12-.62,1.23-.74,2.64-.36,3.96Z"/>
    <path class="cls-11" d="M379.84,952.99c.13,0,.59-.76,1.01-1.81.33-.6.51-1.27.53-1.96-.13,0-.59.74-1.01,1.79-.34.61-.52,1.29-.53,1.98Z"/>
    <path class="cls-11" d="M376.17,951.89c.11,0,.67-.46,1.26-1.22s.99-1.45.88-1.54-.7.46-1.29,1.22c-.59.76-.97,1.45-.86,1.54Z"/>
    <path class="cls-11" d="M373.33,948.46c.74.12,1.5.07,2.21-.15.74-.05,1.46-.26,2.11-.63-.71-.09-1.42-.04-2.11.15-.78.04-1.53.26-2.21.63Z"/>
    <path class="cls-11" d="M372.11,945.93c.8.34,1.68.42,2.53.23.86-.01,1.7-.29,2.4-.8-.83.03-1.65.13-2.47.3-.83.02-1.65.11-2.47.27Z"/>
    <path class="cls-11" d="M380.58,949.2c.9-.03,1.79-.21,2.63-.53.93-.3,1.83-.68,2.7-1.14.53-.27,1.03-.6,1.5-.97.29-.23.47-.56.51-.93,0-.41-.22-.79-.59-.97-2.28-.61-4.67.45-5.75,2.55-.31.59-.49,1.23-.53,1.9v.72c.1-.86.37-1.69.78-2.44.46-.8,1.15-1.46,1.98-1.88.98-.54,2.12-.68,3.2-.4.48.23.4.74,0,1.12-.43.34-.89.64-1.37.91-.84.47-1.71.87-2.61,1.2-1.45.59-2.47.78-2.44.86Z"/>
    <path class="cls-11" d="M381.27,949.2c.24-.59.24-1.26,0-1.85-.21-.67-.57-1.28-1.07-1.77-.61-.7-1.54-1.04-2.47-.91-.52.22-.78.81-.59,1.35.14.4.37.77.67,1.07.46.52.98.97,1.56,1.35.5.38,1.09.64,1.71.76-.48-.38-.98-.73-1.5-1.05-.52-.4-.99-.85-1.41-1.35-.46-.48-.91-1.41-.25-1.66s1.45.34,1.96.78c.46.43.82.95,1.05,1.54.18.57.29,1.15.34,1.75Z"/>
    <path class="cls-11" d="M336.14,954.97c0,.11,1.16-.34,3.08-.46,2.46-.18,4.93.31,7.14,1.41,2.17,1.13,3.99,2.85,5.25,4.95.97,1.62,1.24,2.76,1.35,2.74-.02-.28-.07-.56-.17-.82-.2-.74-.49-1.44-.86-2.11-1.21-2.23-3.06-4.05-5.31-5.23-3-1.54-6.48-1.84-9.69-.84-.27.09-.53.21-.78.36Z"/>
    <path class="cls-11" d="M357.49,958.99c4.12,0,8.2-.71,12.07-2.11,0-.15-2.7.53-6.03,1.14s-6.05.74-6.05.97Z"/>
    <path class="cls-11" d="M349.42,960.43c0,.13.32.53.72,1.07s.63,1.05.78,1.03,0-.7-.36-1.33-1.07-.88-1.14-.78Z"/>
    <path class="cls-11" d="M345.6,957.31c0,.11.25.46.76.82s.99.53,1.07.4-.27-.48-.78-.82-.93-.53-1.05-.4Z"/>
    <path class="cls-11" d="M340.99,956.42c0,.15.59,0,1.24.13s1.14.32,1.22.21-.36-.61-1.16-.7-1.39.25-1.31.36Z"/>
    <path class="cls-11" d="M337.72,956.23c0,.13.25.3.61.36s.7,0,.72-.13-.25-.3-.61-.38-.7,0-.72.15Z"/>
    <g class="cls-17">
      <polygon class="cls-3" points="335.3 952.86 376.53 943.13 376.22 941.46 334.56 949.51 335.3 952.86"/>
    </g>
    <path class="cls-1" d="M270.8,583.25c2.35-2.99,5.12-5.63,8.22-7.84,1.16-.38,21.79-8.98,22.17-8.03.38.95,2.87,5.67-1.35,7.9l-3.24,1.07,11.84.97s13.19,9.73,13,11.84-1.92,3.43-3.06,2.47c-1.14-.97,3.06,6.7,3.06,6.7,0,0,0,3.24-1.73,2.68-1.67-.94-3.16-2.18-4.4-3.65,0,0,2.49,4.02,1.73,4.78s-4.57.95-4.97,0c-.4-.95-.95-2.68-.95-2.68l-2.3.19v3.24l-34.96,1.07-3.06-20.73Z"/>
    <polygon class="cls-9" points="135.34 486.79 146.02 499.41 188.71 574.12 271.96 582.36 273.77 606.45 177.88 615.51 124.36 518.63 135.34 486.79"/>
    <path class="cls-9" d="M143.77,523.22l-8.26-31.16-.17-10.16-46.35-21.07-8.87,11.1,1.07.57c-3.67,3.83-30.57,32.97-29.03,54.55,1.45,19.38,42.27,141.47,42.27,141.47l92.98-27.18-43.64-118.12Z"/>
    <path class="cls-8" d="M134.5,492.48l-2.61,12.77,6.81,12.77v9.46l48.71,113.78,14.41,4.85,2.44-9.76s-40.56-69.26-47.58-88.75c-7.02-19.49-17.38-47.58-17.38-47.58l-4.8-7.54Z"/>
    <path class="cls-9" d="M60.54,549.81c0,1.22,83.99,82.36,83.99,82.36l113.46-22.21-3.65-24.21-77.45,2.11c-7.93.71-15.66-2.77-20.37-9.19-16.62-21.58-52.68-68.37-53.58-69.53-1.2-1.73-42.39,40.67-42.39,40.67Z"/>
    <path class="cls-5" d="M254.35,585.76s.11.48.27,1.52.44,2.59.76,4.59l2.84,18.08v.21h-.21l-90.6,17.51-7.46,1.43c-2.57.53-5.19.76-7.82.7-8.34-.27-16.23-3.84-21.93-9.92-1.92-2.11-3.69-4.21-5.56-6.32-3.74-4.21-7.52-8.55-11.34-13.02-15.36-17.66-31.61-36.39-48.46-55.77h0l-.34-.88c-1.7-4.15-2.63-8.58-2.74-13.06-.13-4.48,1-8.91,3.24-12.79,2.33-3.73,5.53-6.83,9.33-9.04,3.67-2.27,7.8-3.69,12.09-4.15,4.25-.42,8.53.35,12.37,2.21,3.68,1.9,6.96,4.5,9.65,7.65,2.62,3.03,5.06,6.21,7.31,9.52l6.76,9.48c9.04,12.43,17.97,23.98,26.61,34.58l6.32,7.75c1.98,2.52,4.14,4.91,6.45,7.14,2.35,1.94,5.24,3.12,8.28,3.39,2.95.28,5.91.35,8.87.23l55.16-.84,14.94-.19h5.14-1.35l-3.94.13-15,.38-54.95,1.24c-2.99.14-5.98.07-8.95-.21-3.2-.28-6.25-1.51-8.74-3.54-2.36-2.25-4.56-4.67-6.57-7.23l-6.32-7.75c-8.68-10.54-17.66-22.12-26.72-34.56-2.25-3.12-4.51-6.32-6.81-9.48-2.23-3.27-4.65-6.41-7.25-9.4-2.64-3-5.83-5.46-9.4-7.25-3.66-1.78-7.75-2.51-11.8-2.11-8.45.83-16.05,5.49-20.63,12.64-2.15,3.7-3.23,7.92-3.1,12.2.11,4.34,1.01,8.62,2.65,12.64.13.3.23.59.34.86v-.15l48.46,55.79,11.31,13.06c1.88,2.11,3.69,4.21,5.54,6.32,5.52,5.91,13.16,9.38,21.24,9.65,2.55.08,5.1-.14,7.61-.65l7.46-1.41,90.6-17.05-.19.25c-1.12-7.84-1.98-13.86-2.57-17.97l-.63-4.68c-.19-1.2-.25-1.75-.25-1.75Z"/>
    <path class="cls-5" d="M135.34,481.9c.11,0-.32,2.11-.74,5.71s-.7,8.85-2.11,15.02l-.13.63-.57-.34-16.48-9.59c-9.54-5.56-18.16-10.54-24.38-14.35l-7.33-4.45c-.92-.51-1.8-1.1-2.61-1.77.98.38,1.93.84,2.82,1.39l7.5,4.21c6.32,3.56,15,8.43,24.55,14.05l16.52,9.67-.72.29c1.37-6.03,1.73-11.27,2.38-14.88.29-1.81.57-3.22.82-4.21.1-.49.25-.96.46-1.41Z"/>
    <path class="cls-12" d="M303.02,585.8l-20.25-5.54-16.86,8.43h-9.54l-1.52.61,2.72,18.14,2.4.34c2.47,1.51,5.2,2.55,8.05,3.06,5.35,1.16,13.17-2.3,13.17-2.3l10.7-5.92,7.65-2.11,5.73,3.33c.26,1,.45,2.02.57,3.06,0,.76,2.11,1.71,3.24,1.71s1.52-2.68,1.52-2.68l-1.33-5.71,2.68,2.47h6.68v-4.21l-15.61-12.66Z"/>
    <polygon class="cls-11" points="257.99 718.77 170.74 874.1 217.37 905.73 294.49 768.86 281.49 718.77 257.99 718.77"/>
    <path class="cls-11" d="M94.42,668.44s-10.01,42.14,17.17,50.78c27.18,8.64,168.56,13.04,168.56,13.04l52.55,217.02,44.98-6.32-38.79-232.59c-2.86-16.28-15.59-29.04-31.86-31.94-41.93-7.5-117.89-21.26-118.92-22.8-1.43-2.11-7.16-14.31-7.16-14.31l-86.54,27.12Z"/>
    <path class="cls-5" d="M297.14,798.61c-.2-.35-.35-.73-.46-1.12-.27-.76-.63-1.85-1.03-3.31-.84-2.87-1.88-7.1-2.97-12.33-1.1-5.23-2.36-11.53-3.77-18.42-1.34-7.52-3.54-14.85-6.55-21.87-1.77-3.54-4.21-6.97-7.73-8.11-3.49-1.11-7.07-1.9-10.7-2.34-7-.97-13.34-1.43-18.67-1.77s-9.67-.48-12.64-.61l-3.43-.15c-.4.06-.8.06-1.2,0,.39-.09.8-.13,1.2-.11h3.46c2.99,0,7.33,0,12.64.25s11.72.61,18.75,1.54c3.72.43,7.39,1.21,10.96,2.34.95.35,1.87.81,2.72,1.37.84.61,1.6,1.32,2.28,2.11,1.34,1.57,2.47,3.32,3.35,5.18,3.05,7.1,5.25,14.53,6.55,22.14,1.41,6.95,2.51,13.21,3.54,18.46s1.92,9.48,2.61,12.39,1.12,4.3,1.12,4.34Z"/>
  </g>
  <g id="freepik--character-1--inject-18-2" data-name="freepik--character-1--inject-18">
    <path class="cls-13" d="M848.37,395.53c-1.86.06-3.68-.55-5.12-1.73-1.44-1.18-2.4-2.84-2.71-4.68-.3-1.84.07-3.72,1.05-5.3.98-1.58,2.51-2.75,4.29-3.29-1.11-1.26-1.8-2.84-1.96-4.52-.16-1.67.21-3.36,1.06-4.81.85-1.45,2.14-2.6,3.68-3.27,1.54-.67,3.26-.85,4.9-.49.13-1.66.7-3.25,1.64-4.62.94-1.37,2.22-2.47,3.71-3.2,1.49-.73,3.15-1.05,4.81-.94,1.66.11,3.26.65,4.64,1.57,1.94-1.41,4.29-2.14,6.69-2.07,2.4.08,4.7.95,6.54,2.48,1.63-.24,3.3.06,4.75.85,1.45.79,2.6,2.03,3.29,3.53.69,1.5.87,3.19.51,4.8-.35,1.61-1.22,3.07-2.47,4.15"/>
    <rect class="cls-5" x="857.58" y="525.16" width="96.75" height="195.13"/>
    <path class="cls-5" d="M949.74,719.85c-8.34,0-15.11-6.76-15.11-15.11v-164.47s0-.07,0-.11c.06-8.34,6.87-15.06,15.21-15h0c8.34.01,15.09,6.77,15.09,15.11v164.47c0,8.34-6.75,15.1-15.09,15.11h0s-.07,0-.11,0Z"/>
    <path class="cls-11" d="M941.94,533.56c0,.38,0,.86,0,1.43-.06,1.31-.25,3.2-.25,5.52-.27,4.89-.63,11.82-1.1,20.25-1.05,17.13-2.44,40.73-4.05,66.77-1.6,26.04-3.12,49.62-4.21,66.79-.56,6.72.15,13.49,2.11,19.95.84,2.33,1.91,4.57,3.2,6.68-.12-.11-.23-.24-.32-.38l-.84-1.18c-.98-1.57-1.8-3.24-2.44-4.97-2.14-6.48-3-13.32-2.51-20.12.84-17.13,2.28-40.79,3.98-66.83,1.71-26.04,3.24-49.62,4.38-66.81.61-8.47,1.1-15.36,1.45-20.23.19-2.32.44-4.15.44-5.52l.15-1.41c-.02-.16-.02-.32,0-.48.05.18.05.37,0,.55Z"/>
    <rect class="cls-5" x="850.67" y="744.52" width="15.59" height="186.87"/>
    <path class="cls-5" d="M749.49,744.52c0-13.37,10.84-24.21,24.21-24.21h174.63c13.37,0,24.22,10.84,24.23,24.21h-222.99s-.08,0-.08,0Z"/>
    <path class="cls-11" d="M858.44,744.44c4.57-.19,9.15,0,13.7.57-4.54.57-9.12.76-13.7.57-4.57.19-9.14,0-13.67-.57,4.53-.57,9.11-.76,13.67-.57Z"/>
    <path class="cls-5" d="M790.07,948.31c0-37.86,30.69-68.55,68.55-68.55,37.87,0,68.57,30.69,68.57,68.55h-2.11c0-36.66-29.72-66.37-66.37-66.37-36.66,0-66.37,29.72-66.37,66.37h-2.11s-.17,0-.17,0Z"/>
    <circle class="cls-11" cx="926.27" cy="947.07" r="10.28"/>
    <path class="cls-5" d="M790.89,937.27c5.68,0,10.28,4.6,10.28,10.28,0,5.68-4.6,10.28-10.28,10.28-5.68,0-10.28-4.6-10.28-10.28.01-5.67,4.61-10.27,10.28-10.28Z"/>
    <path class="cls-5" d="M857.45,930.82c36.81,0,66.65.25,66.65.57s-29.75.57-66.56.57-66.65-.25-66.65-.57c0-.32,29.75-.57,66.56-.57Z"/>
    <path class="cls-11" d="M885.9,719.8l9.19-.11c7.75-.11,18.48,0,30.32,0,5.9.04,11.57.06,16.67.19,4.58-.08,9.15.41,13.61,1.47,3.01.79,5.8,2.23,8.2,4.21.64.54,1.23,1.13,1.77,1.77.38.44.61.59.53.72s-.86-.82-2.57-2.11c-2.42-1.83-5.19-3.15-8.13-3.88-4.41-.93-8.92-1.34-13.42-1.2l-16.69-.13c-11.82-.08-22.52-.21-30.28-.38l-9.19-.23c-1.13,0-2.25-.07-3.37-.23,1.12-.14,2.25-.17,3.37-.11Z"/>
    <path class="cls-12" d="M909.35,473.39l.82-79.83-2.57-1.71c-17.61-22.73-40.17-38.11-57.99-3.83h0s-.84,37.69.29,53.94c1.14,16.25,17.99,17.76,17.99,17.76,0,0-.21,6.15-.21,13.25.17,35.27,9.8,42.86,21.41,42.86h0c11.44,0,20.25-31.23,20.25-42.44Z"/>
    <path class="cls-1" d="M868.03,463.7c16.71.46,21.07-11.55,21.07-11.55-6.21,4.47-13.59,7.02-21.24,7.33l.17,4.21Z"/>
    <path class="cls-11" d="M853.62,413.91c.16-1.15,1.23-1.95,2.38-1.79,1.24.03,2.23,1.05,2.23,2.3,0,.03,0,.06,0,.09-.11,1.22-1.18,2.12-2.4,2.01-1.24-.03-2.23-1.05-2.23-2.3,0-.11,0-.21.02-.32Z"/>
    <path class="cls-13" d="M853.98,410.41c1.06-.75,2.33-1.15,3.62-1.16,1.31,0,2.6.38,3.69,1.12.8.57,1.2.95.95,1.24s-2.15-.91-4.59-.93c-2.44-.02-4.28,1.26-4.55.97-.15-.13.11-.67.88-1.24Z"/>
    <path class="cls-11" d="M878.11,414.7c.11-1.22,1.18-2.12,2.4-2.01,1.24.03,2.23,1.05,2.23,2.3,0,.11,0,.21-.02.32-.16,1.15-1.23,1.95-2.38,1.79-1.24-.03-2.23-1.05-2.23-2.3,0-.03,0-.06,0-.09Z"/>
    <path class="cls-13" d="M878.63,410.85c1.06-.74,2.33-1.14,3.62-1.14,1.31,0,2.6.38,3.69,1.12.8.57,1.24.95.97,1.24s-2.17-.95-4.61-.95-4.26,1.29-4.55.99c-.21-.15,0-.67.88-1.26Z"/>
    <path class="cls-11" d="M864.47,430.28c-.37,0-.74-.04-1.1-.15-.47-.13-.86-.46-1.05-.91-.19-.84-.07-1.71.34-2.47l1.81-4.78c1.42-4.17,3.17-8.23,5.25-12.12-1.06,4.27-2.47,8.44-4.21,12.47-.65,1.66-1.29,3.24-1.9,4.76-.32.56-.47,1.21-.42,1.85.11.44.72.63,1.35.63,1.38.07,2.75.31,4.07.72-1.37.16-2.76.15-4.13-.02Z"/>
    <path class="cls-11" d="M876.33,433.76c-.18,1.49-.94,2.85-2.11,3.79-1.24.98-2.78,1.51-4.36,1.5-1.22-.04-1.9-.21-1.88-.57s2.93-.06,5.25-1.96c2.32-1.9,2.32-4.53,2.74-4.53.17-.02.48.65.36,1.77Z"/>
    <path class="cls-13" d="M878.54,401.24c2.88-1.03,6.08-.69,8.68.93.95.65,1.6.97,1.2,1.56s-2.78-.17-5.71-.53-5.44-.04-5.69-.7c-.11-.32.44-.84,1.52-1.26Z"/>
    <path class="cls-13" d="M854.73,403.18c2.04-1.4,4.71-1.48,6.83-.21.86.53,1.05,1.1.86,1.37-.38.59-2.11.21-4.21.21s-3.77.57-4.21,0c-.19-.27.04-.84.74-1.37Z"/>
    <path class="cls-8" d="M778.1,933.52c7.75-2.91,45.34-33.56,54.42-41.23l2.11-1.73-14.62-19.87-35.36,24.86,9.19,12.87s-24.29,28.32-15.74,25.09Z"/>
    <g class="cls-16">
      <path class="cls-15" d="M834.13,890.09l-6.95-9.52c-3.36,1.74-5.77,4.88-6.59,8.58-.85,3.57-.34,7.32,1.43,10.54l12.12-9.59Z"/>
    </g>
    <g class="cls-16">
      <path class="cls-15" d="M788.64,924.73l45.39-34.89.61.72c-16.14,14.54-55.31,44.16-57.82,43.43-2.51-.74,5.52-11.27,5.52-11.27,2.06-1.43,6.3,2.02,6.3,2.02Z"/>
    </g>
    <path class="cls-11" d="M833.94,889.84l-1.69,1.31-6.13,4.85c-5.27,4-12.24,9.73-20.31,15.82-8.07,6.09-15.38,11.46-20.71,15.34l-6.32,4.59-1.71,1.26c-.38.3-.57.46-.57.46.23-.1.44-.23.63-.38l1.77-1.18,6.32-4.47c5.39-3.79,12.79-9.17,20.82-15.23,8.03-6.07,15.19-11.69,20.31-15.91l6.03-4.97,1.62-1.37.55-.51c-.22.1-.43.22-.61.38Z"/>
    <path class="cls-11" d="M785.88,922.69c-1.29-.58-2.74-.66-4.09-.23,1.32.08,2.63.32,3.9.72,1.2.56,2.33,1.27,3.35,2.11-.68-1.24-1.81-2.17-3.16-2.59Z"/>
    <path class="cls-11" d="M793.48,911.69c-1.14-.46-2.06-.59-2.11-.46s.74.48,1.88.95,2.11.61,2.11.46c.06-.19-.74-.48-1.88-.95Z"/>
    <path class="cls-11" d="M795.29,908.66c-.99-.08-1.81-.02-1.81.13.55.28,1.16.41,1.77.38.97.08,1.79.02,1.79-.13.02-.13-.76-.29-1.75-.38Z"/>
    <path class="cls-11" d="M794.47,905.73c-.97.76-1.71,1.43-1.62,1.56s.95-.4,1.94-1.16c.99-.76,1.62-1.58,1.62-1.58-.08-.11-.97.42-1.94,1.18Z"/>
    <path class="cls-11" d="M793.42,903.58c-1.03.91-1.94,1.54-1.94,1.66.87-.18,1.67-.63,2.28-1.29,1.1-.99,1.69-2.11,1.56-2.11-.11-.08-.86.82-1.9,1.73Z"/>
    <path class="cls-11" d="M789.71,911.82c-.88.45-1.78.83-2.72,1.14-.52.2-1.07.34-1.62.42-.57.06-1.01-.23-.84-.76.51-1.01,1.41-1.77,2.49-2.11.89-.34,1.85-.42,2.78-.23.86.22,1.67.59,2.4,1.1.02-.04-.13-.25-.48-.55-.26-.21-.55-.38-.84-.53-2.52-1.27-5.58-.25-6.85,2.26-.12.4,0,.84.32,1.12.31.21.68.3,1.05.25.6-.09,1.19-.26,1.75-.48.95-.33,1.87-.75,2.74-1.26.79-.43,1.5-.98,2.11-1.64-.04,0-.88.57-2.28,1.29Z"/>
    <path class="cls-11" d="M790.51,909.52c-.27-.59-.42-1.23-.44-1.88.02-.78.13-1.77.76-2.11.63-.34,1.1.65,1.1,1.33.07.7.07,1.41,0,2.11-.08,1.14-.23,1.85-.23,1.85.36-.55.57-1.18.61-1.83.09-.7.09-1.41,0-2.11-.02-.44-.15-.86-.36-1.24-.26-.53-.9-.74-1.43-.48-.74.6-1.11,1.54-.99,2.49,0,.74.2,1.47.59,2.11.63,1.05,1.39,1.31,1.39,1.31-.38-.48-.71-.99-.99-1.54Z"/>
    <path class="cls-11" d="M826.1,881.03c-.68.39-1.32.85-1.92,1.37-1.98,1.73-3.4,4.01-4.09,6.55-.68,2.51-.57,5.18.32,7.63.25.74.58,1.45.99,2.11.13.25.3.48.51.67.08-.04-.59-1.05-1.16-2.89-.74-2.4-.8-4.96-.17-7.4.7-2.41,2.03-4.59,3.86-6.32,1.41-1.35,2.47-2,2.47-2-.02-.04-.32.08-.8.27Z"/>
    <path class="cls-11" d="M810.25,903.47c-2.74,2.11-4.99,3.67-4.99,3.79,1.91-.9,3.69-2.04,5.31-3.39,1.73-1.19,3.29-2.61,4.64-4.21-.11-.11-2.21,1.71-4.95,3.81Z"/>
    <path class="cls-11" d="M821.74,895.97c.17.78.61,1.26.74,1.18s-.08-.63-.23-1.31-.17-1.26-.32-1.26c-.15-.02-.36.61-.19,1.39Z"/>
    <path class="cls-11" d="M821.8,890.66c-.19.63-.15,1.14,0,1.16s.34-.48.42-1.1c.08-.61.04-1.16-.11-1.16-.13,0-.13.46-.32,1.1Z"/>
    <path class="cls-11" d="M823.49,886.17c-.46.67-.4,1.37-.25,1.37s.29-.55.67-1.1.78-.88.78-1.03c-.04-.17-.74.08-1.2.76Z"/>
    <path class="cls-11" d="M826.16,883.27c-.15.32-.27.65-.15.72s.44-.15.59-.46.27-.72.15-.72c-.13-.06-.44.15-.59.46Z"/>
    <g class="cls-17">
      <polygon class="cls-3" points="823.84 875.79 789.1 901.91 790.15 903.28 825.89 878.65 823.84 875.79"/>
    </g>
    <path class="cls-8" d="M593.76,954.25c7.16,3.71,54,10.87,65.49,12.43l2.59.32,4.8-23.6-41.09-9.4-3.31,15.09s-36.49,1.01-28.49,5.16Z"/>
    <g class="cls-16">
      <path class="cls-15" d="M661.84,966.41l2.34-11.27c-3.45-1.33-7.32-1.05-10.54.78-3.13,1.72-5.51,4.54-6.7,7.9l14.9,2.59Z"/>
    </g>
    <g class="cls-16">
      <path class="cls-15" d="M606.95,956.09l54.99,10.01-.11.91c-21.11-2.17-68.16-11.15-69.32-13.42-1.16-2.28,11.78-3.39,11.78-3.39,2.38.55,2.65,5.9,2.65,5.9Z"/>
    </g>
    <path class="cls-11" d="M661.86,966.16l-2.11-.36-7.52-1.26c-6.36-1.07-15.11-2.61-24.78-4.45-9.67-1.83-18.37-3.62-24.69-4.95l-7.46-1.58-2.11-.42c-.23-.06-.47-.1-.72-.11l.7.21,2.11.51,7.44,1.73c6.28,1.41,14.98,3.35,24.65,5.1,9.67,1.75,18.5,3.22,24.82,4.21l7.56,1.12,2.11.27h.74s-.74-.02-.74-.02Z"/>
    <path class="cls-11" d="M606.48,952.76c-.43-1.3-1.31-2.41-2.49-3.12.82,1.03,1.52,2.13,2.11,3.31.4,1.22.65,2.49.74,3.77.39-1.32.26-2.73-.36-3.96Z"/>
    <path class="cls-11" d="M619.63,951.01c-.42-1.05-.88-1.79-1.01-1.79.01.69.19,1.36.53,1.96.42,1.05.88,1.81,1.01,1.81,0-.69-.19-1.37-.53-1.98Z"/>
    <path class="cls-11" d="M622.96,950.35c-.59-.76-1.18-1.31-1.29-1.22s.29.78.88,1.54,1.16,1.22,1.26,1.22c.11-.08-.27-.78-.86-1.54Z"/>
    <path class="cls-11" d="M624.46,947.83c-.69-.19-1.4-.24-2.11-.15.64.37,1.37.59,2.11.63.72.22,1.47.27,2.21.15-.68-.37-1.44-.59-2.21-.63Z"/>
    <path class="cls-11" d="M625.43,945.66c-.81-.17-1.64-.27-2.47-.3.7.51,1.54.79,2.4.8.85.18,1.73.1,2.53-.23-.81-.17-1.64-.26-2.47-.27Z"/>
    <path class="cls-11" d="M616.98,948.33c-.9-.33-1.78-.73-2.61-1.2-.48-.26-.94-.57-1.37-.91-.4-.38-.48-.88,0-1.12,1.08-.28,2.23-.14,3.2.4.83.42,1.52,1.07,1.98,1.88.41.76.68,1.59.78,2.44v-.72c-.03-.66-.21-1.31-.53-1.9-1.08-2.1-3.47-3.16-5.75-2.55-.37.18-.6.56-.59.97.04.36.22.7.51.93.46.37.97.7,1.5.97.86.46,1.77.84,2.7,1.14.84.32,1.73.49,2.63.53.02-.08-.99-.27-2.44-.86Z"/>
    <path class="cls-11" d="M619.06,947.45c.23-.58.59-1.11,1.05-1.54.51-.44,1.31-1.03,1.96-.78s.21,1.18-.25,1.66c-.42.5-.89.95-1.41,1.35-.52.32-1.02.68-1.5,1.05.62-.12,1.2-.38,1.71-.76.58-.38,1.1-.83,1.56-1.35.3-.3.53-.67.67-1.07.19-.53-.07-1.13-.59-1.35-.92-.14-1.85.2-2.47.91-.5.49-.87,1.1-1.07,1.77-.24.59-.24,1.26,0,1.85.04-.59.16-1.18.34-1.75Z"/>
    <path class="cls-11" d="M663.08,954.61c-3.22-1-6.7-.7-9.69.84-2.25,1.17-4.1,2.99-5.31,5.23-.37.66-.66,1.37-.86,2.11-.09.26-.15.54-.17.82.11.02.38-1.12,1.35-2.74,1.25-2.11,3.07-3.82,5.25-4.95,2.21-1.1,4.68-1.59,7.14-1.41,1.92.13,3.08.57,3.08.46-.25-.15-.51-.27-.78-.36Z"/>
    <path class="cls-11" d="M636.47,958.02c-3.33-.61-6.03-1.29-6.03-1.14,3.87,1.4,7.96,2.11,12.07,2.11,0-.23-2.72-.36-6.05-.97Z"/>
    <path class="cls-11" d="M649.45,961.21c-.36.63-.51,1.31-.36,1.33s.38-.48.78-1.03.72-.95.72-1.07c-.06-.11-.78.15-1.14.78Z"/>
    <path class="cls-11" d="M653.34,957.71c-.51.34-.86.7-.78.82s.57-.04,1.07-.4.76-.72.76-.82c-.13-.13-.55.06-1.05.4Z"/>
    <path class="cls-11" d="M657.71,956.06c-.8.08-1.24.59-1.16.7s.57-.08,1.22-.21,1.24.02,1.24-.13c.08-.11-.51-.44-1.31-.36Z"/>
    <path class="cls-11" d="M661.56,956.09c-.36.08-.63.25-.61.38s.36.19.72.13.61-.23.61-.36c-.02-.15-.36-.23-.72-.15Z"/>
    <g class="cls-17">
      <polygon class="cls-3" points="665.44 949.51 623.78 941.46 623.47 943.13 664.7 952.86 665.44 949.51"/>
    </g>
    <path class="cls-1" d="M726.14,603.98l-34.96-1.07v-3.24s-2.3-.19-2.3-.19c0,0-.55,1.73-.95,2.68-.4.95-4.21.76-4.97,0s1.73-4.78,1.73-4.78c-1.24,1.47-2.73,2.7-4.4,3.65-1.73.57-1.73-2.68-1.73-2.68,0,0,4.19-7.67,3.06-6.7-1.14.97-2.87-.36-3.06-2.47s13-11.84,13-11.84l11.84-.97-3.24-1.07c-4.21-2.23-1.73-6.95-1.35-7.9s21.01,7.65,22.17,8.03c3.1,2.21,5.86,4.85,8.22,7.84l-3.06,20.73Z"/>
    <polygon class="cls-6" points="875.64 518.63 822.12 615.51 726.23 606.45 728.04 582.36 811.29 574.12 853.98 499.41 864.66 486.79 875.64 518.63"/>
    <path class="cls-6" d="M812.59,641.34l92.98,27.18s40.81-122.08,42.27-141.47c1.54-21.58-25.37-50.72-29.03-54.55l1.07-.57-8.87-11.1-46.35,21.07-.17,10.16-8.26,31.16-43.64,118.12Z"/>
    <path class="cls-4" d="M860.7,500.02s-10.37,28.09-17.38,47.58-47.58,88.75-47.58,88.75l2.44,9.76,14.41-4.85,48.71-113.78v-9.46s6.81-12.77,6.81-12.77l-2.61-12.77-4.8,7.54Z"/>
    <path class="cls-6" d="M897.06,509.14c-.91,1.16-36.96,47.96-53.58,69.53-4.72,6.41-12.44,9.9-20.37,9.19l-77.45-2.11-3.65,24.21,113.46,22.21s83.99-81.14,83.99-82.36c0,0-41.19-42.39-42.39-40.67Z"/>
    <path class="cls-5" d="M745.4,587.5l-.63,4.68c-.59,4.11-1.45,10.13-2.57,17.97l-.19-.25,90.6,17.05,7.46,1.41c2.5.51,5.05.73,7.61.65,8.08-.27,15.72-3.74,21.24-9.65,1.85-2.11,3.67-4.21,5.54-6.32l11.31-13.06,48.46-55.79v.15c.11-.27.21-.57.34-.86,1.64-4.02,2.54-8.3,2.65-12.64.13-4.28-.94-8.5-3.1-12.2-4.57-7.15-12.18-11.81-20.63-12.64-4.05-.4-8.14.33-11.8,2.11-3.57,1.79-6.76,4.25-9.4,7.25-2.59,2.99-5.01,6.13-7.25,9.4-2.3,3.16-4.55,6.36-6.81,9.48-9.06,12.43-18.04,24.02-26.72,34.56l-6.32,7.75c-2.02,2.56-4.22,4.98-6.57,7.23-2.49,2.03-5.54,3.26-8.74,3.54-2.98.28-5.97.35-8.95.21l-54.95-1.24-15-.38-3.94-.13h-1.35s5.14,0,5.14,0l14.94.19,55.16.84c2.96.12,5.92.04,8.87-.23,3.04-.27,5.93-1.45,8.28-3.39,2.31-2.23,4.46-4.62,6.45-7.14l6.32-7.75c8.64-10.6,17.57-22.14,26.61-34.58l6.76-9.48c2.25-3.31,4.69-6.49,7.31-9.52,2.69-3.15,5.97-5.75,9.65-7.65,3.84-1.86,8.12-2.63,12.37-2.21,4.29.46,8.42,1.88,12.09,4.15,3.8,2.21,7.01,5.31,9.33,9.04,2.25,3.88,3.37,8.31,3.24,12.79-.11,4.49-1.04,8.91-2.74,13.06l-.34.88h0c-16.86,19.38-33.1,38.12-48.46,55.77-3.82,4.47-7.6,8.81-11.34,13.02-1.88,2.11-3.65,4.21-5.56,6.32-5.71,6.08-13.6,9.65-21.93,9.92-2.62.07-5.25-.17-7.82-.7l-7.46-1.43-90.6-17.51h-.21v-.21l2.84-18.08c.32-2,.59-3.56.76-4.59.17-1.03.27-1.52.27-1.52,0,0-.06.55-.25,1.75Z"/>
    <path class="cls-5" d="M865.12,483.31c.25.99.53,2.4.82,4.21.65,3.6,1.01,8.85,2.38,14.88l-.72-.29,16.52-9.67c9.54-5.63,18.23-10.49,24.55-14.05l7.5-4.21c.9-.55,1.84-1.01,2.82-1.39-.82.67-1.69,1.26-2.61,1.77l-7.33,4.45c-6.22,3.81-14.83,8.79-24.38,14.35l-16.48,9.59-.57.34-.13-.63c-1.41-6.17-1.69-11.42-2.11-15.02-.42-3.6-.84-5.71-.74-5.71.21.45.37.92.46,1.41Z"/>
    <path class="cls-12" d="M681.37,598.46v4.21s6.68,0,6.68,0l2.68-2.47-1.33,5.71s.38,2.68,1.52,2.68,3.24-.95,3.24-1.71c.12-1.03.31-2.05.57-3.06l5.73-3.33,7.65,2.11,10.7,5.92s7.82,3.46,13.17,2.3c2.85-.51,5.58-1.54,8.05-3.06l2.4-.34,2.72-18.14-1.52-.61h-9.54s-16.86-8.43-16.86-8.43l-20.25,5.54-15.61,12.66Z"/>
    <polygon class="cls-11" points="718.51 718.77 705.51 768.86 782.63 905.73 829.26 874.1 742.01 718.77 718.51 718.77"/>
    <path class="cls-11" d="M819.04,641.32s-5.73,12.2-7.16,14.31c-1.03,1.54-76.99,15.3-118.92,22.8-16.27,2.91-28.99,15.66-31.86,31.94l-38.79,232.59,44.98,6.32,52.55-217.02s141.38-4.4,168.56-13.04c27.18-8.64,17.17-50.78,17.17-50.78l-86.54-27.12Z"/>
    <path class="cls-5" d="M703.98,794.27c.7-2.91,1.58-7.14,2.61-12.39,1.03-5.25,2.13-11.5,3.54-18.46,1.31-7.61,3.51-15.05,6.55-22.14.88-1.87,2.01-3.61,3.35-5.18.67-.79,1.44-1.5,2.28-2.11.85-.56,1.76-1.02,2.72-1.37,3.57-1.13,7.24-1.91,10.96-2.34,7.04-.93,13.44-1.29,18.75-1.54,5.31-.25,9.65-.25,12.64-.25,1.5,0,2.68,0,3.46,0,.4-.02.81.01,1.2.11-.4.06-.8.06-1.2,0l-3.43.15c-2.97.13-7.31.27-12.64.61s-11.67.8-18.67,1.77c-3.63.44-7.22,1.23-10.7,2.34-3.52,1.14-5.96,4.57-7.73,8.11-3.01,7.02-5.21,14.35-6.55,21.87-1.41,6.89-2.68,13.19-3.77,18.42-1.1,5.23-2.13,9.46-2.97,12.33-.4,1.45-.76,2.55-1.03,3.31-.11.39-.27.76-.46,1.12,0-.04.42-1.43,1.12-4.34Z"/>
    <path class="cls-13" d="M849.34,388.64s5.15-10.72,10.53-13c6.55-2.77,8.95,4.37,15.12,2.97,6.17-1.4,12.4-4.05,18.33.95,6.55,5.48,3.18,8.95,3.22,16.67.15,31.48,5.43,40.65,7.8,25.93.27-1.67,4.83-2.67,5.83-9.48,1.3-8.83,2.18-19.6.52-26-1.42-5.4-4.25-9.22-9.48-13.53-8.33-6.82-20-7.53-28.07-7.13-8.07.4-23.85,8.9-23.8,22.63Z"/>
    <path class="cls-13" d="M904.22,398.53c-1.52,1.12-3.3,1.83-5.17,2.08-.94.1-1.88-.15-2.65-.69-.77-.54-1.32-1.35-1.54-2.26-.1-.83.15-1.78-.37-2.47-.52-.68-1.83-.62-2.83-.55-1.75.05-3.47-.51-4.86-1.58-1.39-1.07-2.37-2.58-2.78-4.29-.56.57-1.32.9-2.12.94-.8.04-1.58-.23-2.2-.74-1.19-1.07-2.23-2.29-3.08-3.63-.43-.67-1.02-1.23-1.71-1.63-.69-.4-1.47-.61-2.27-.64-.86.25-1.74.4-2.63.45-1.57-.22-2.23-2.1-2.4-3.67-.17-1.57-.25-3.33-1.53-4.3-1.34-.6-2.85-.72-4.27-.33-1.45.15-3.33-.28-3.6-1.67-.04-.38,0-.77.11-1.13.11-.37.3-.71.54-1,1.04-1.4,2.52-2.4,4.2-2.85,1.68-.45,3.47-.31,5.06.38.68-1.96,1.93-3.67,3.59-4.92,1.66-1.25,3.65-1.98,5.72-2.09,2.07-.12,4.13.39,5.92,1.44,1.79,1.06,3.22,2.62,4.12,4.49,1.33-1.08,2.89-1.83,4.57-2.19,1.68-.35,3.41-.29,5.06.17,1.65.46,3.16,1.32,4.41,2.49,1.25,1.17,2.2,2.63,2.77,4.24,1.49-.32,3.03-.19,4.44.37s2.63,1.52,3.5,2.76c.87,1.25,1.35,2.72,1.38,4.24.04,1.52-.38,3.01-1.19,4.3,1.08.61,1.99,1.48,2.65,2.53.65,1.06,1.03,2.26,1.09,3.5,0,2.47-2.62,4.82-5,4.03.47,1,.53,2.14.17,3.19-.36,1.04-1.1,1.91-2.09,2.42-.98.5-2.12.61-3.18.29-1.06-.32-1.95-1.03-2.49-2"/>
    <path class="cls-2" d="M867.07,372.45v.22c-.02.21-.02.42,0,.63.11.82.37,1.62.75,2.35.59,1.17,1.45,2.18,2.5,2.95,1.38,1.07,3.07,1.66,4.82,1.67l-.18-.27c-.22.53-.34,1.09-.34,1.67s.11,1.14.34,1.67c.47,1.1,1.11,2.12,1.88,3.03.38.52.8,1.01,1.27,1.45.55.41,1.19.68,1.87.78.7.14,1.42.1,2.11-.1s1.3-.58,1.81-1.08l-.45-.15c.1,1.25.47,2.46,1.07,3.56.6,1.1,1.42,2.06,2.42,2.82,1.09.9,2.45,1.42,3.87,1.48,1.33,0,2.65-.22,3.9-.65l-.32-.17c.55,1.48,1.46,2.8,2.65,3.83.54.51,1.19.9,1.9,1.13.71.23,1.46.3,2.2.2,1.27-.2,2.45-.78,3.4-1.65.95-.87,1.61-2,1.92-3.25l-.27.12c1.22.73,2.66,1.02,4.07.82,1.05-.14,2.05-.53,2.92-1.13.55-.38,1.03-.86,1.42-1.4.12-.19.23-.39.33-.6-.51.71-1.13,1.33-1.85,1.83-.86.55-1.84.89-2.85,1-1.34.17-2.7-.11-3.85-.82l-.22-.15v.25c-.31,1.16-.94,2.2-1.83,3.01-.89.8-1.99,1.33-3.17,1.53-.67.08-1.36.01-2-.21-.64-.22-1.23-.57-1.72-1.04-1.11-.99-1.96-2.24-2.48-3.63l-.08-.23h-.23c-1.2.41-2.46.61-3.73.62-1.3-.06-2.55-.55-3.55-1.38-.94-.71-1.73-1.62-2.3-2.65-.57-1.03-.93-2.17-1.03-3.35v-.58l-.4.43c-.45.44-1,.76-1.6.94-.6.18-1.24.21-1.85.09-.6-.09-1.17-.33-1.67-.68-.44-.41-.84-.86-1.2-1.35-.75-.88-1.37-1.85-1.85-2.9-.22-.47-.34-.97-.36-1.49-.02-.51.06-1.03.24-1.51l.12-.28h-.3c-1.66.01-3.29-.51-4.63-1.48-1.03-.74-1.88-1.7-2.48-2.82-.48-.96-.8-2-.95-3.07Z"/>
    <path class="cls-12" d="M902.65,428.49c-.02.34,11.8,5.2,12.79-6.59.99-11.8-9.23-10.39-9.54-10.39,0,0-3.22,16.65-3.24,16.98Z"/>
    <path class="cls-1" d="M906.99,425.24c.53.43,1.23.6,1.9.46,2.03-.77,3.4-2.68,3.48-4.85.12-1.14-.04-2.29-.46-3.35-.3-.99-1.1-1.75-2.11-2-.41-.09-.83-.01-1.18.21-.25.17-.43.41-.53.7-.15.48.04.74.11.72s0-.27.19-.59c.27-.44.8-.63,1.29-.46.73.3,1.27.94,1.45,1.71.34.96.46,1.98.34,2.99-.05,1.83-1.07,3.49-2.68,4.36-.53.16-1.09.11-1.58-.15-.34-.19-.53-.36-.53-.36-.04.02,0,.29.32.61Z"/>
  </g>
  <g id="freepik--Desk--inject-18">
    <polygon class="cls-5" points="810.58 616.71 249.06 614.69 248.99 631.37 282.33 631.48 281.15 956.21 292.93 956.25 294.09 631.52 758.07 633.18 756.91 957.94 768.69 957.96 769.85 633.23 810.52 633.37 810.58 616.71"/>
    <polygon class="cls-4" points="617.7 524.57 648.87 615.59 789.89 615.59 788.86 610.91 731.82 609.14 705.54 524.53 617.7 524.57"/>
    <path class="cls-15" d="M680.22,567.32c.93,3.73-.67,7.4-3.58,8.18-2.91.78-6.01-1.62-6.93-5.35-.93-3.73.65-7.4,3.56-8.15s6.01,1.6,6.95,5.33Z"/>
    <polygon class="cls-4" points="478.93 522.02 447.77 613.04 306.75 613.04 307.78 608.36 364.82 606.59 391.09 521.98 478.93 522.02"/>
    <path class="cls-15" d="M416.42,564.77c-.93,3.73.67,7.4,3.58,8.15s6.01-1.6,6.93-5.33c.93-3.73-.67-7.4-3.56-8.18-2.89-.78-6,1.62-6.95,5.35Z"/>
    <circle class="cls-5" cx="536.14" cy="581.17" r="17.26"/>
    <rect class="cls-4" x="479.78" y="574.38" width="112.77" height="41.21"/>
    <path class="cls-11" d="M523.12,585.76c-6.12.54-12.26.73-18.39.55-6.14.18-12.28,0-18.39-.55,6.11-.56,12.26-.74,18.39-.55,6.14-.19,12.28,0,18.39.55Z"/>
    <path class="cls-11" d="M523.12,591.68c-6.12.54-12.26.73-18.39.55-6.14.18-12.28,0-18.39-.55,6.11-.57,12.26-.76,18.39-.57,6.14-.19,12.28,0,18.39.57Z"/>
    <path class="cls-11" d="M523.12,597.58c-6.11.56-12.26.74-18.39.55-6.14.19-12.28,0-18.39-.55,6.12-.54,12.26-.73,18.39-.55,6.14-.18,12.28,0,18.39.55Z"/>
    <path class="cls-11" d="M523.12,603.5c-6.11.56-12.26.74-18.39.55-6.14.19-12.28,0-18.39-.55,6.12-.54,12.26-.73,18.39-.55,6.14-.18,12.28,0,18.39.55Z"/>
    <path class="cls-11" d="M543.66,614.62c-.56-6.58-.74-13.18-.55-19.78-.19-6.61,0-13.22.55-19.81.54,6.59.73,13.2.55,19.81.18,6.6,0,13.2-.55,19.78Z"/>
  </g>
</svg>