<?xml version="1.0" encoding="UTF-8"?>
<svg id="Layer_2" data-name="Layer 2" xmlns="http://www.w3.org/2000/svg" viewBox="0 0 1000 1000">
  <defs>
    <style>
      .cls-1 {
        fill: #ff9a6c;
      }

      .cls-1, .cls-2, .cls-3, .cls-4, .cls-5, .cls-6, .cls-7, .cls-8, .cls-9, .cls-10, .cls-11, .cls-12 {
        stroke-width: 0px;
      }

      .cls-2 {
        fill: #000;
      }

      .cls-3 {
        fill: #e0e0e0;
      }

      .cls-4 {
        fill: #455a64;
      }

      .cls-5 {
        fill: #f5f5f5;
      }

      .cls-6 {
        fill: #09f;
      }

      .cls-7 {
        fill: #ebebeb;
      }

      .cls-8 {
        fill: #40bbff;
      }

      .cls-9 {
        fill: #263238;
      }

      .cls-10 {
        fill: #ffbf9d;
      }

      .cls-11 {
        fill: #fafafa;
      }

      .cls-13 {
        opacity: .3;
      }

      .cls-12 {
        fill: #fff;
      }
    </style>
  </defs>
  <g id="freepik--background-complete--inject-2">
    <path class="cls-5" d="M501.85,794.81v64.49h-9.27v7.05h9.27v43.11h173.33v-39.19h-12.84v-8.54h12.84v-13.01h5.7v-5.88h-6.78v-48.03h-172.25Z"/>
    <polygon class="cls-7" points="629.15 795 629.15 909.44 675.18 909.62 675.18 869.47 662.34 869.47 662.34 861.63 675.18 861.9 675.18 849.07 681 849.07 680.88 842.44 674.1 842.25 674.1 794.81 629.15 795"/>
    <path class="cls-3" d="M673.89,858.98c0,.27-40.27.51-89.93.51s-89.93-.24-89.93-.51,40.25-.51,89.93-.51,89.93.24,89.93.51Z"/>
    <path class="cls-3" d="M662.34,866.19c0,.27-37.68.51-84.26.51s-84.15-.24-84.15-.51,37.66-.51,84.15-.51,84.26.22,84.26.51Z"/>
    <path class="cls-3" d="M673.89,881.65c0,.27-38.37.51-85.69.51s-85.63-.14-85.63-.51,38.37-.51,85.69-.51,85.63.22,85.63.51Z"/>
    <path class="cls-3" d="M680.88,842.17c0,.27-39.94.51-89.18.51s-89.14-.24-89.14-.51,39.92-.51,89.2-.51,89.12.22,89.12.51Z"/>
    <path class="cls-3" d="M673.89,802.66c0,.29-38.37.51-85.69.51s-85.63-.22-85.63-.51,38.37-.51,85.69-.51,85.63.24,85.63.51Z"/>
    <path class="cls-3" d="M674.1,822.77c0,.29-38.27.51-85.48.51s-85.48-.22-85.48-.51,38.27-.51,85.48-.51,85.48.24,85.48.51Z"/>
    <path class="cls-3" d="M675.18,897.12c0,.27-38.66.51-86.34.51s-86.28-.24-86.28-.51,38.64-.51,86.34-.51,86.28.22,86.28.51Z"/>
    <path class="cls-3" d="M952.54,224.62c-.01-.14-.01-.27,0-.41v-5.72c0-3.92-.1-9.8-.16-16.91l.27.27-87.1.18.45-.45h0v23.08l-.43-.43,62.08.2,18.32.12h6.7c-.14.02-.27.02-.41,0h-6.09l-18.22.12-62.37.2h-.49v-23.52h0l.43-.43,87.1.16h.27v.25c0,7.29-.12,13.05-.16,17.07v5.6c-.03.22-.1.43-.2.63Z"/>
    <path class="cls-3" d="M964.34,201.57c0-.14,0-.29,0-.43v-5.84c0-4.04-.1-9.8-.18-16.77l.31.33-52.32.12c-.39.39.55-.55.45-.43h0v23.05l-.43-.41,37.43.2,10.92.12h2.94c.35-.03.69-.03,1.04,0-.31.03-.63.03-.94,0h-2.86l-10.8.12-37.78.43h-.43v-23.52h0c-.1,0,.84-.84.45-.45l52.32.12h.33v.33c0,7.11-.14,12.87-.18,16.97v4.55c-.04.52-.13,1.03-.27,1.53Z"/>
    <path class="cls-3" d="M716.15,599.84v-6.13c0-3.92,0-9.7-.14-16.91l.25.27-87.09.18.45-.45h0v23.04l-.43-.43,62.06.2,18.32.12h6.25c.15-.02.3-.02.45,0h-6.51l-18.2.12-62.37.2h-.43v-23.28h0l.45-.45,87.09.18h.27v.27c0,7.29-.12,13.05-.14,17.07v5.6c0,.29-.29.41-.29.41Z"/>
    <path class="cls-3" d="M727.91,576.74v-6.27c0-4.06-.1-9.8-.18-16.77l.31.33-52.32.12c-.41.39.53-.55.43-.45h0v23.03l-.41-.41,37.43.2,10.9.12h4c-.31.03-.63.03-.94,0h-2.86l-10.8.12-37.72.22h-.43v-23.46h0c-.1.1.84-.84.45-.43l52.32.12h.33v.31c0,7.09-.12,12.87-.16,16.97v4.55c0,1.12-.35,1.74-.35,1.72Z"/>
    <path class="cls-3" d="M663.25,147.45c-.01-.14-.01-.27,0-.41v-5.72c0-3.92,0-9.8-.14-16.91l.25.27-87.09.18.45-.45h0v23.08l-.43-.43,62.06.2,18.32.12h6.56c-.14.02-.28.02-.41,0h-6.11l-18.2.12-62.37.2h-.43v-23.52h0l.45-.43,87.09.16h.27v.27c0,7.29-.12,13.05-.14,17.07v5.6c0,.29-.14.63-.14.61Z"/>
    <path class="cls-3" d="M675,124.4v-6.27c0-4.04-.1-9.8-.18-16.77l.31.33-52.32.12c-.41.39.53-.55.43-.43h0v22.93l-.41-.41,37.43.2,10.9.12h2.96c.35-.03.69-.03,1.04,0-.31.03-.63.03-.94,0h-2.86l-10.8.12-37.72.2h-.43v-23.36h0c-.1,0,.84-.84.45-.45l52.32.12h.33v.31c0,7.11-.12,12.87-.16,16.97v4.55c0,1.12-.35,1.76-.35,1.74Z"/>
    <path class="cls-3" d="M168.37,107.98c-.02-.14-.02-.29,0-.43v-5.7c0-3.92-.1-9.8-.16-16.91l.27.27-87.24.16c.2-.2-.45.43.43-.45h0v23.1l-.43-.49,62.08.2,18.32.12h6.7-6.51l-18.22.12-62.37.43h-.43v-23.52h0c.88-.88.24-.25.45-.45l87.09.18h.27v.27c0,7.27-.12,13.05-.16,17.07v5.6c-.02.15-.05.29-.1.43Z"/>
    <path class="cls-3" d="M180.18,84.92c-.03-.14-.03-.29,0-.43v-5.84c0-4.06,0-9.8-.18-16.77l.33.31-52.34.14.45-.45h0v23.03l-.61-.43,37.43.22,10.92.12h4c-.32.03-.64.03-.96,0h-2.86l-10.86.33-37.72.22h-.41v-23.44h0l.45-.45,52.34.14h.31v.31c0,7.09-.14,12.87-.18,16.95v4.57c-.01.5-.05,1-.12,1.49Z"/>
    <path class="cls-3" d="M352.14,233.14c0-.14,0-.27,0-.41v-5.72c0-3.92,0-9.68-.16-16.89l.27.25-87.09.18.43-.43h0v22.99l-.43-.43,62.06.2,18.32.14h6.7-6.51l-18.22.14-62.35.2h-.43v-23.52h0c.88-.9.25-.25.45-.45l87.09.18h.27v.27c0,7.27-.12,13.05-.16,17.07v5.6c0,.29-.24.67-.25.65Z"/>
    <path class="cls-3" d="M363.95,210.12c-.01-.15-.01-.3,0-.45v-5.84c0-4.04-.1-9.8-.16-16.75l.31.31-52.32.14c-.41.39.53-.55.43-.45h0v22.93l-.43-.43,37.45.2,10.9.12h4c-.32.02-.64.02-.96,0h-2.84l-10.82.12-37.72.2h-.41v-23.34h0l.45-.45,52.32.14h.31v.31c0,7.09-.12,12.87-.18,16.95v4.55c-.08.59-.19,1.18-.33,1.76Z"/>
    <rect class="cls-7" x="617.59" y="294.83" width="68.7" height="18.19"/>
    <path class="cls-3" d="M657.23,332.16v-4.84c0-3.14,0-7.64-.12-13.34l.2.22-68.7.14.35-.35h0v18.15l-.35-.35,48.99.16h18.36-3.82l-14.38.1-49.21.16h-.33v-18.48h0c.71-.69.2-.2.35-.35l68.7.14h.1v.2c0,5.74,0,10.31-.12,13.46v4.43c0,.24,0,.59-.02.59Z"/>
    <rect class="cls-7" x="882.29" y="432.94" width="68.7" height="18.19"/>
    <path class="cls-3" d="M921.91,470.27v-4.84c0-3.14,0-7.64-.12-13.34l.22.22-68.7.14.35-.35h0v18.15l-.35-.35,48.99.16,14.44.1h3.92-3.92l-14.36.1-49.21.16h-.33v-18.48h0c.71-.69.2-.2.35-.35l68.7.14h.22v.22c0,5.74,0,10.31-.12,13.46v4.43c0,.24-.08.47-.08.47Z"/>
    <rect class="cls-7" x="332.76" y="634" width="68.7" height="18.19"/>
    <path class="cls-3" d="M372.42,671.31c0-.11,0-.22,0-.33v-.92c0-.86,0-2.06,0-3.59,0-3.14,0-7.64-.12-13.33l.22.2-68.7.14.35-.33h0v18.15l-.33-.33,48.99.16,14.46.1h4.02-3.92l-14.36.1-49.21.16h-.35v-18.5h0l.35-.35,68.7.14h.22v.22c0,5.74,0,10.29-.12,13.46v4.41c-.04.17-.1.33-.2.47Z"/>
    <rect class="cls-3" x="715.98" y="44" width="161.82" height="234.57"/>
    <rect class="cls-5" x="707.89" y="44" width="161.82" height="234.57"/>
    <rect class="cls-12" x="727.99" y="69.42" width="121.61" height="183.75"/>
    <path class="cls-3" d="M849.6,253.17v-13.6c0-8.8,0-21.56-.12-37.84,0-32.41-.12-78.29-.2-132.31l.41.39h-121.61l.43-.43v183.75l-.35-.35,88.52.18,24.46.1h8.64-32.88l-88.73.2h-.35v-.35c0-50.52,0-114.44-.1-183.75v-.45h122.2v.41c0,54.12-.14,100.12-.2,132.57,0,16.19,0,28.98-.1,37.76v12.56c0,.59-.02,1.18-.02,1.18Z"/>
    <path class="cls-3" d="M870.16,44c-.82,1.49-1.79,2.89-2.88,4.19-1.96,2.51-4.55,5.88-7.6,9.64-3.06,3.76-5.88,6.96-8,9.29-1.07,1.32-2.26,2.53-3.57,3.63.92-1.43,1.96-2.79,3.1-4.06l7.84-9.45,7.84-9.46c.98-1.35,2.08-2.62,3.27-3.78Z"/>
    <path class="cls-12" d="M850.21,252.56c6.05,9.62,13.17,18.52,21.22,26.53"/>
    <path class="cls-3" d="M871.43,279.09c-1.35-.99-2.59-2.12-3.7-3.37-2.83-2.86-5.49-5.87-8-9.01-2.52-3.14-4.87-6.41-7.05-9.8-.96-1.37-1.79-2.82-2.47-4.35,1.09,1.23,2.1,2.54,3,3.92,1.78,2.51,4.29,5.88,7.21,9.6,2.92,3.72,5.72,6.86,7.84,9.15,1.15,1.21,2.21,2.5,3.17,3.86Z"/>
    <path class="cls-12" d="M707.85,278.47l21.2-26.16"/>
    <path class="cls-3" d="M729.05,252.23c-3.18,4.63-6.6,9.08-10.25,13.34-3.43,4.46-7.08,8.74-10.95,12.82,3.19-4.63,6.62-9.09,10.27-13.36,3.43-4.45,7.08-8.72,10.93-12.8Z"/>
    <path class="cls-3" d="M707.89,44c3.61,3.93,7.03,8.03,10.23,12.31,3.42,4.11,6.63,8.39,9.6,12.84-3.66-3.9-7.1-8-10.31-12.29-3.41-4.11-6.59-8.4-9.52-12.86Z"/>
    <rect class="cls-3" x="770.98" y="106.73" width="40.72" height="115.62"/>
    <path class="cls-3" d="M158.67,481.27c-.01-.14-.01-.29,0-.43v-5.7c0-3.92,0-9.8-.14-16.91l.27.27-87.24.25c.2-.22-.45.43.45-.45h0v23.01l-.43-.43,62.06.2,18.32.12h6.72-6.53l-18.22.12-62.37.2h-.43v-23.52h0l.45-.45,87.1.18h.27v.27c0,7.27,0,13.05-.14,17.07v5.6c-.03.21-.08.41-.16.61Z"/>
    <path class="cls-3" d="M170.46,458.22v-6.29c0-4.04,0-9.8-.18-16.75l.31.31-52.32.14.43-.45h0v22.93l-.41-.43,37.43.22,10.92.12h3.98c-.31.03-.63.03-.94,0h-2.86l-10.8.12-37.72.2h-.43v-23.36h0l.45-.45,52.32.14h.33v.59c0,7.09-.14,12.87-.18,16.95v4.55c-.08.5-.19,1-.33,1.49Z"/>
  </g>
  <g id="freepik--Floor--inject-2">
    <path class="cls-9" d="M958.15,909.62c0,.27-206.62.51-461.45.51s-461.49-.24-461.49-.51,206.58-.51,461.49-.51,461.45.24,461.45.51Z"/>
  </g>
  <g id="freepik--Chart--inject-2">
    <rect class="cls-12" x="328.19" y="57.8" width="197" height="140.9"/>
    <path class="cls-9" d="M525.19,57.8h-14.5l-40.49.12-142.05.35.47-.47v140.88h0l-.47-.55h197l-.41.41c0-42.72.16-77.87.22-102.41,0-12.27,0-21.87.1-28.41v-10.07,9.9c0,6.55,0,16.11.12,28.34,0,24.59.12,59.85.22,102.66v.41h-197.92v-.51h0V57.09h.69l142.33.24,40.37.12h13.38l.96.35Z"/>
    <path class="cls-3" d="M386.16,79.53h-35.27c-1.73,0-3.14,1.4-3.14,3.14h0c0,1.73,1.4,3.14,3.14,3.15h35.27c1.74,0,3.15-1.41,3.15-3.15h0c-.01-1.73-1.42-3.14-3.15-3.14Z"/>
    <path class="cls-3" d="M366.78,177.92h-15.87c-1.73,0-3.14,1.4-3.14,3.14h0c0,1.73,1.4,3.14,3.14,3.15h15.87c1.73,0,3.14-1.4,3.14-3.14h0c0-1.73-1.4-3.14-3.14-3.15Z"/>
    <path class="cls-3" d="M400.66,177.92h-15.87c-1.73,0-3.14,1.4-3.14,3.14h0c0,1.73,1.4,3.14,3.14,3.15h15.87c1.73,0,3.14-1.4,3.14-3.14h0c.01-1.73-1.38-3.14-3.12-3.15,0,0-.01,0-.02,0Z"/>
    <path class="cls-3" d="M434.62,177.92h-15.85c-1.73,0-3.14,1.4-3.15,3.14h0c0,1.73,1.4,3.14,3.14,3.15h15.87c1.73,0,3.14-1.4,3.15-3.14h0c0-1.74-1.41-3.15-3.15-3.15h0Z"/>
    <path class="cls-3" d="M468.54,177.92h-15.85c-1.73,0-3.14,1.4-3.15,3.14h0c0,1.74,1.41,3.15,3.15,3.15h15.85c1.73,0,3.14-1.4,3.15-3.14h0c0-1.74-1.41-3.15-3.15-3.15h0Z"/>
    <path class="cls-3" d="M502.56,177.92h-15.85c-1.73,0-3.14,1.4-3.15,3.14h0c0,1.74,1.41,3.15,3.15,3.15h15.85c1.73,0,3.14-1.4,3.15-3.14h0c0-1.74-1.41-3.15-3.15-3.15h0Z"/>
    <path class="cls-3" d="M468.54,177.92h-15.85c-1.73,0-3.14,1.4-3.15,3.14h0c0,1.74,1.41,3.15,3.15,3.15h15.85c1.73,0,3.14-1.4,3.15-3.14h0c0-1.74-1.41-3.15-3.15-3.15h0Z"/>
    <rect class="cls-6" x="352.57" y="98.99" width="8.27" height="70.47"/>
    <rect class="cls-6" x="368.54" y="122.91" width="8.27" height="46.52"/>
    <rect class="cls-6" x="384.49" y="107.75" width="8.27" height="62.06"/>
    <rect class="cls-6" x="400.46" y="101.71" width="8.27" height="67.74"/>
    <rect class="cls-6" x="416.41" y="124.36" width="8.27" height="45.09"/>
    <rect class="cls-6" x="432.38" y="133.2" width="8.27" height="36.25"/>
    <rect class="cls-6" x="448.33" y="106.22" width="8.27" height="63.24"/>
    <rect class="cls-6" x="464.31" y="117.62" width="8.27" height="51.83"/>
    <rect class="cls-6" x="480.28" y="108.51" width="8.27" height="60.94"/>
    <rect class="cls-6" x="496.23" y="127.93" width="8.27" height="41.52"/>
    <g class="cls-13">
      <rect class="cls-12" x="368.54" y="122.91" width="8.27" height="46.52"/>
    </g>
    <g class="cls-13">
      <rect class="cls-12" x="400.46" y="101.71" width="8.27" height="67.74"/>
    </g>
    <g class="cls-13">
      <rect class="cls-12" x="432.38" y="133.2" width="8.27" height="36.25"/>
    </g>
    <g class="cls-13">
      <rect class="cls-12" x="464.31" y="117.62" width="8.27" height="51.83"/>
    </g>
    <g class="cls-13">
      <rect class="cls-12" x="496.23" y="127.93" width="8.27" height="41.52"/>
    </g>
    <path class="cls-9" d="M344.04,101.71v68.1l-.2-.24h168.17-8.9l-24.08.43h-135.21v-68.02c.06-.1.14-.19.22-.27Z"/>
  </g>
  <g id="freepik--document-2--inject-2">
    <rect class="cls-11" x="81.69" y="128.24" width="184.89" height="239.62"/>
    <path class="cls-9" d="M266.58,367.86v-17.56c0-11.39,0-28.02-.12-48.99,0-42.11-.14-101.9-.24-172.97l.47.45H81.83l.51-.51v239.6l-.43-.41,134.21.22,37.41.12h13.21-13.11l-37.33.12-134.47.22h-.59v-.43c0-68.06,0-150.62-.1-239.6v-.51h185.85v.45c0,71.15-.18,131.1-.22,173.27,0,21.03,0,37.62-.14,48.99v16.25c0,.76-.06,1.31-.06,1.31Z"/>
    <path class="cls-3" d="M102.23,175.02l63,.12c2.05.01,3.71-1.64,3.72-3.68,0,0,0-.01,0-.02h0c.01-2.05-1.64-3.71-3.68-3.72,0,0-.01,0-.02,0l-63-.12c-2.05,0-3.71,1.66-3.72,3.7h0c0,2.05,1.66,3.71,3.7,3.72Z"/>
    <path class="cls-3" d="M102.33,189.38l63,.12c2.05.01,3.71-1.64,3.72-3.68,0,0,0-.01,0-.02h0c0-2.05-1.66-3.71-3.7-3.72l-63-.12c-2.06,0-3.72,1.67-3.72,3.72h0c0,2.05,1.66,3.7,3.7,3.7Z"/>
    <path class="cls-3" d="M102.42,203.77l63,.12c2.05-.01,3.7-1.67,3.7-3.72h0c0-2.05-1.66-3.71-3.7-3.72h-63c-2.03-.01-3.68,1.62-3.7,3.64h0c.02,2.03,1.67,3.67,3.7,3.68Z"/>
    <path class="cls-3" d="M102.5,218.13l63,.12c2.05,0,3.71-1.66,3.72-3.7h0c.01-2.05-1.64-3.71-3.68-3.72,0,0-.01,0-.02,0l-63-.12c-2.05-.01-3.71,1.64-3.72,3.68,0,0,0,.01,0,.02h0c0,2.05,1.66,3.71,3.7,3.72Z"/>
    <path class="cls-3" d="M102.6,232.49l63,.12c2.05,0,3.71-1.66,3.72-3.7h0c0-2.05-1.66-3.71-3.7-3.72l-63-.12c-2.05,0-3.71,1.66-3.72,3.7h0c-.01,2.05,1.64,3.71,3.68,3.72,0,0,.01,0,.02,0Z"/>
    <path class="cls-3" d="M102.8,246.86l62.98.12c2.05-.03,3.68-1.72,3.65-3.76,0,0,0-.01,0-.02h0c.02-2.03-1.61-3.7-3.64-3.72-.02,0-.04,0-.06,0l-62.92-.04c-2.04.01-3.7,1.66-3.72,3.7h0c0,2.06,1.67,3.72,3.72,3.72h0Z"/>
    <path class="cls-3" d="M102.8,261.24h63c2.03.02,3.7-1.61,3.72-3.64,0-.02,0-.04,0-.06h0c-.01-2.04-1.66-3.7-3.7-3.72l-63.02-.02c-2.06,0-3.72,1.67-3.72,3.72h0c.01,2.05,1.67,3.71,3.72,3.72Z"/>
    <path class="cls-3" d="M182.49,246.86l62.98.12c2.05.01,3.71-1.64,3.72-3.68,0,0,0-.01,0-.02h0c.02-2.03-1.61-3.7-3.64-3.72-.02,0-.04,0-.06,0l-63-.12c-2.04.01-3.7,1.66-3.72,3.7h0c0,2.06,1.67,3.72,3.72,3.72h0Z"/>
    <path class="cls-3" d="M182.57,261.24h63c2.03.02,3.7-1.61,3.72-3.64,0-.02,0-.04,0-.06h0c-.01-2.04-1.66-3.7-3.7-3.72l-63-.1c-2.03-.02-3.7,1.61-3.72,3.64,0,.02,0,.04,0,.06h0c-.04,2.07,1.6,3.78,3.66,3.82.01,0,.03,0,.04,0Z"/>
    <path class="cls-3" d="M182.67,276.39l63,.12c2.05,0,3.71-1.66,3.72-3.7h0c0-2.05-1.66-3.71-3.7-3.72l-63-.12c-2.05-.01-3.71,1.64-3.72,3.68,0,0,0,.01,0,.02h0c-.01,2.05,1.64,3.71,3.68,3.72,0,0,.01,0,.02,0Z"/>
    <path class="cls-3" d="M182.77,291.54l63,.12c2.05.01,3.71-1.64,3.72-3.68,0,0,0-.01,0-.02h0c0-2.05-1.66-3.71-3.7-3.72l-63-.12c-2.05,0-3.71,1.66-3.72,3.7h0c-.01,2.05,1.64,3.71,3.68,3.72,0,0,.01,0,.02,0Z"/>
    <path class="cls-3" d="M182.87,306.69l63,.12c2.05,0,3.71-1.66,3.72-3.7h0c0-2.06-1.67-3.72-3.72-3.72l-62.98-.12c-2.06,0-3.72,1.67-3.72,3.72h0c0,2.05,1.66,3.7,3.7,3.7Z"/>
    <path class="cls-3" d="M182.96,321.85l63,.12c2.05-.01,3.71-1.67,3.72-3.72h0c-.01-2.05-1.67-3.7-3.72-3.7l-62.98-.12c-2.03-.02-3.7,1.61-3.72,3.64,0,.02,0,.04,0,.06h0c-.02,2.03,1.61,3.7,3.64,3.72.02,0,.04,0,.06,0Z"/>
    <path class="cls-3" d="M183.14,337l63,.12c2.05-.04,3.67-1.74,3.63-3.78,0,0,0,0,0,0h0c.02-2.03-1.61-3.7-3.64-3.72-.02,0-.04,0-.06,0l-62.92-.04c-2.05-.04-3.74,1.58-3.78,3.62,0,.05,0,.09,0,.14h0c.01,2.03,1.67,3.68,3.7,3.67.03,0,.05,0,.08,0Z"/>
    <path class="cls-3" d="M101.91,352.56l143.21.25c2.05.01,3.71-1.64,3.72-3.68,0,0,0-.01,0-.02h0c.01-2.05-1.64-3.71-3.68-3.72,0,0-.01,0-.02,0l-143.23-.29c-1.37,0-2.49,1.11-2.49,2.49h0v2.45c-.02,1.37,1.07,2.51,2.45,2.53.01,0,.03,0,.04,0Z"/>
    <path class="cls-3" d="M102.13,156.31h41.68c2.05.01,3.71-1.64,3.72-3.68,0,0,0-.01,0-.02h0c0-2.05-1.66-3.71-3.7-3.72h-41.7c-2.04.01-3.7,1.66-3.72,3.7h0c0,2.06,1.67,3.72,3.72,3.72Z"/>
    <rect class="cls-6" x="107.1" y="273.49" width="52.89" height="58.12" rx="13.5" ry="13.5" transform="translate(-169.24 435.56) rotate(-89.9)"/>
    <g class="cls-13">
      <path class="cls-2" d="M104.44,316.62c0-.45.22-.87.59-1.14l16.4-13.5c1.45-1.21,3.43-2.14,7.29.25h0l8.99,4.35c.55.28,1.21.16,1.63-.29l12.72-13.11c1.61-1.54,4.17-1.47,5.71.14.06.06.12.13.17.19l4.33,5.13c.21.25.33.57.33.9v21.22c-.19,4.58-3.9,8.23-8.49,8.35h-40.9c-4.88-.04-8.8-4.03-8.76-8.91,0-.02,0-.04,0-.06l-.02-3.53Z"/>
    </g>
    <g class="cls-13">
      <path class="cls-2" d="M131.8,289.79c.23,3.24-2.21,6.05-5.44,6.28-3.24.23-6.05-2.21-6.28-5.44-.23-3.24,2.21-6.05,5.44-6.28.02,0,.03,0,.05,0,3.22-.2,6,2.23,6.23,5.45Z"/>
    </g>
    <path class="cls-3" d="M245.16,195.71c.19,16.83-13.29,30.63-30.12,30.82-16.83.19-30.63-13.29-30.82-30.12-.19-16.77,13.21-30.55,29.98-30.82,16.86-.22,30.71,13.26,30.96,30.12ZM200.09,196.44c.16,8.05,6.82,14.44,14.87,14.28,8.05-.16,14.44-6.82,14.28-14.87-.16-8-6.75-14.38-14.75-14.28-8.07.15-14.49,6.8-14.36,14.87h-.04Z"/>
    <path class="cls-4" d="M245.16,195.71c.29,16.86-13.12,30.78-29.98,31.1l-.25-15.97c8.08-.12,14.54-6.77,14.42-14.85-.12-8.08-6.77-14.54-14.85-14.42h0l-.27-15.97c16.85-.21,30.7,13.27,30.94,30.12Z"/>
    <path class="cls-6" d="M217.92,229.26c-19.22.47-35.17-14.73-35.64-33.95,0-.25,0-.49-.01-.74l18.6-.37c.16,9.45,7.33,15.38,16.74,15.23l.31,19.83Z"/>
  </g>
  <g id="freepik--speech-bubble--inject-2">
    <path class="cls-12" d="M409.38,336.59l-14.6,2.63c-16.25,18.32-44.28,20-62.6,3.75-18.32-16.25-20-44.28-3.75-62.6,16.25-18.32,44.28-20,62.6-3.75,13.81,12.25,18.58,31.76,12,49h0l6.35,10.97Z"/>
    <path class="cls-9" d="M409.38,336.59s-.12-.24-.39-.71-.67-1.2-1.2-2.1c-1.08-1.96-2.65-4.68-4.7-8.27M402.95,325.52h.2c2.64-6.86,3.55-14.26,2.65-21.56-.29-2.29-.76-4.55-1.41-6.76-.33-1.16-.78-2.29-1.2-3.47-.41-1.19-.9-2.35-1.49-3.47-2.34-4.93-5.59-9.39-9.56-13.13-9.32-8.68-21.9-12.99-34.59-11.84-6.95.67-13.66,2.94-19.6,6.62-1.53.93-3,1.97-4.39,3.1-.68.56-1.34,1.15-1.96,1.78-.67.63-1.37,1.2-1.96,1.96-1.27,1.32-2.45,2.71-3.55,4.17l-1.63,2.23c-.47.8-.94,1.61-1.43,2.39-6.99,12.2-7.83,26.99-2.25,39.9,7.28,16.66,23.94,27.23,42.11,26.73,2.45-.08,4.9-.35,7.31-.8,2.24-.49,4.46-1.11,6.62-1.86,6.92-2.54,13.09-6.77,17.95-12.31h0l10.93-1.96,2.76-.51.92-.2-.98.16-2.8.47-10.88,1.96h0c-4.88,5.48-11.05,9.65-17.95,12.13-2.15.73-4.35,1.33-6.56,1.82-2.39.44-4.82.69-7.25.76-17.98.44-34.43-10.04-41.64-26.51-5.55-12.8-4.73-27.47,2.21-39.56l1.41-2.35c.51-.76,1.08-1.49,1.61-2.21,1.08-1.45,2.26-2.83,3.51-4.13.59-.69,1.29-1.23,1.96-1.96.62-.62,1.28-1.21,1.96-1.76,1.38-1.11,2.82-2.13,4.33-3.06,5.85-3.64,12.46-5.88,19.32-6.56,18.29-1.61,35.67,8.25,43.68,24.77.57,1.11,1.07,2.27,1.49,3.45.39,1.16.86,2.29,1.2,3.43.65,2.19,1.12,4.43,1.41,6.7.92,7.24.05,14.59-2.53,21.42-.04.04-.04.1,0,.14M403.01,325.64h-.16l4.78,8.11c.53.92.96,1.63,1.25,2.12s.49.73.49.73l-6.37-10.95Z"/>
    <path class="cls-9" d="M360.86,322.19c-8.17-.02-14.78-6.66-14.76-14.83.02-8.17,6.66-14.78,14.83-14.76,8.17.02,14.78,6.66,14.76,14.83-.01,4.44-2.02,8.64-5.47,11.45-2.65,2.15-5.96,3.32-9.37,3.31ZM360.86,296.44c-6.04-.01-10.94,4.88-10.95,10.92-.01,6.04,4.88,10.94,10.92,10.95,6.04.01,10.94-4.88,10.95-10.92,0-.01,0-.03,0-.04-.01-6.02-4.89-10.9-10.92-10.92Z"/>
    <path class="cls-9" d="M378.46,326.95c-.51,0-1.01-.21-1.37-.57l-8.6-8.39c-.83-.69-.94-1.93-.25-2.76s1.93-.94,2.76-.25c.08.06.15.13.21.21l8.62,8.39c.78.75.8,1.99.05,2.77-.37.39-.89.6-1.42.6h0Z"/>
  </g>
  <g id="freepik--Character--inject-2">
    <path class="cls-9" d="M485.47,270.82c-15.7-7.64-27.84-2.26-33.65,2.68-5.81,4.94-9.13,12.22-11.04,19.6-1.91,7.38-2.56,15.01-4.04,22.45-.93,4.3-1.54,8.66-1.84,13.05-.63,6.37.12,17.67,3.59,23.05,3.33,5.17,6.88,9.76,12.19,12.93,1.9,1.14,4.14,2.32,6.22,1.56,1.51-.54,2.5-1.97,3.37-3.33,15.73-24.53,27.76-51.23,35.71-79.26"/>
    <path class="cls-10" d="M520.45,296.38l-2.47-9.8-42.43-9.29c-14.07-1.96-29.75,11.54-31.08,25.47-1.49,15.44-2.67,34.33-1.18,45.93,3.02,23.3,21.01,26.81,21.01,26.81l-1.45,22.91c-.59,13.38,10.8,16.68,24.4,17.26h0c13.31.57,22.93-9.95,23.95-23.01l9.25-96.3Z"/>
    <path class="cls-9" d="M450.12,321.68c-.06,1.63,1.2,3,2.82,3.1,1.58.18,3.01-.95,3.19-2.54,0-.02,0-.03,0-.05.06-1.63-1.2-3-2.82-3.1-1.57-.19-2.99.93-3.18,2.5,0,.03,0,.06,0,.09Z"/>
    <path class="cls-9" d="M449.16,312.64c.35.39,2.7-1.2,5.88-1.1s5.58,1.78,5.88,1.41-.18-.88-1.2-1.67c-1.39-1.01-3.05-1.56-4.76-1.59-1.69-.06-3.36.41-4.76,1.35-.86.73-1.23,1.41-1.04,1.59Z"/>
    <path class="cls-9" d="M480.45,322.77c-.06,1.62,1.2,2.99,2.82,3.08,1.57.19,2.99-.93,3.18-2.5,0-.03,0-.06,0-.09.06-1.62-1.19-2.98-2.8-3.08-1.58-.19-3.01.93-3.21,2.51,0,.02,0,.05,0,.07Z"/>
    <path class="cls-9" d="M481.14,314.21c.35.41,2.7-1.2,5.88-1.08,3.17.12,5.58,1.78,5.88,1.39s-.18-.88-1.2-1.65c-1.38-1.01-3.05-1.57-4.76-1.61-1.69-.06-3.36.41-4.76,1.35-.86.73-1.18,1.41-1.04,1.59Z"/>
    <path class="cls-9" d="M468.56,337.59c-1.7-.57-3.46-.94-5.25-1.1-.82-.1-1.61-.29-1.72-.84-.04-.85.17-1.69.63-2.41l2.65-6.15c3.7-8.76,6.41-15.97,6.04-16.11s-3.64,6.84-7.33,15.68c-.9,2.16-1.74,4.21-2.55,6.19-.56.96-.75,2.1-.55,3.19.24.59.73,1.04,1.33,1.23.46.14.93.21,1.41.24,1.77.26,3.57.29,5.35.08Z"/>
    <path class="cls-1" d="M464.33,375.43c11.34.52,22.62-2.02,32.65-7.35,0,0-8.7,16.34-33.06,13.48l.41-6.13Z"/>
    <path class="cls-1" d="M469.69,345.35c1.32-1.52,3.33-2.26,5.33-1.96,1.43.14,2.74.85,3.64,1.96.89,1.14.95,2.72.14,3.92-1.11,1.16-2.82,1.53-4.31.92-1.52-.58-2.9-1.45-4.08-2.57-.36-.26-.67-.6-.9-.98-.25-.36-.25-.84,0-1.2"/>
    <path class="cls-9" d="M478.08,340.1c-.53,0-.65,3.43-3.74,5.88-3.1,2.45-6.86,1.96-6.9,2.37s.8.71,2.41.78c2.06.1,4.09-.52,5.74-1.76,1.58-1.18,2.62-2.93,2.92-4.88.18-1.53-.2-2.39-.43-2.39Z"/>
    <path class="cls-9" d="M481.2,303.26c.37.82,3.02.12,6.23.2s5.88.82,6.23,0c.16-.39-.39-1.16-1.51-1.96-1.44-.87-3.1-1.34-4.78-1.35-1.66-.05-3.29.36-4.72,1.2-1.1.76-1.65,1.51-1.45,1.92Z"/>
    <path class="cls-9" d="M449.65,301.67c.55.74,2.82,0,5.53,0s4.96.65,5.51,0c.24-.35,0-1.1-1.08-1.82-2.69-1.78-6.19-1.78-8.88,0-1.08.73-1.37,1.45-1.08,1.82Z"/>
    <path class="cls-10" d="M515.84,324.81c.33-.16,12.82-3.92,13.03,8.74s-12.86,10.31-12.87,9.94-.16-18.68-.16-18.68Z"/>
    <path class="cls-1" d="M519.88,338.61s.22.16.61.31c.54.21,1.14.21,1.69,0,1.68-1.08,2.64-2.99,2.51-4.98.02-1.09-.22-2.17-.69-3.15-.26-.81-.91-1.44-1.72-1.69-.53-.13-1.08.13-1.31.63-.18.37,0,.61-.16.65s-.27-.22-.18-.74c.07-.32.24-.6.49-.8.35-.27.79-.4,1.23-.35,1.08.19,1.99.93,2.39,1.96.57,1.09.86,2.31.84,3.55.16,2.33-1.11,4.53-3.21,5.55-.7.22-1.46.1-2.06-.31-.41-.29-.49-.59-.43-.61Z"/>
    <path class="cls-9" d="M522.88,343.13c.18.75.26,1.52.25,2.29-.05.81-.39,1.57-.94,2.16-.71.68-1.71.96-2.67.73-.92-.3-1.56-1.13-1.61-2.1-.08-.81.08-1.63.45-2.35.4-.67.77-1.37,1.1-2.08-.62.54-1.12,1.21-1.47,1.96-.46.78-.67,1.68-.63,2.59.05.55.23,1.08.53,1.55.35.51.87.88,1.47,1.06,1.15.27,2.36-.08,3.19-.92.64-.68.99-1.58.98-2.51.08-.85-.16-1.69-.67-2.37Z"/>
    <path class="cls-4" d="M516.08,324.6c-3.25-.39-6.45-1.12-9.54-2.18-3.19-.72-6.3-1.78-9.27-3.15,6.44,1.12,12.74,2.91,18.81,5.33Z"/>
    <path class="cls-8" d="M554.02,421.13c0-.27-13.93-27.67-13.93-27.67,13.72,1.45,25.83,6.25,33.76,16.66,3.51,4.83,6.37,10.1,8.5,15.68,5.53,13.72,15.38,45.48,15.38,45.48l-39.66,20.67-4.06-70.82Z"/>
    <path class="cls-8" d="M425.6,398l37.96-12.72h0c5.11,9.11,11.5,16.58,22.91,16.48,12.11,0,20.14-6.86,26.04-16.48l5.62,1.41,35.51,9.48,4.49,66.63-5.88,60.75,16.74,59.36c-49.09,5.72-107.78,14.93-157.32,8.72l21.18-60.75-8.41-64.41-5.23-66.27,6.39-2.19Z"/>
    <path class="cls-8" d="M422.21,399.1h0c-5.87,1.86-11.14,5.24-15.28,9.8-8.26,9.71-15.37,20.34-21.18,31.69-14.07,26.22-17.5,34.67-17.5,34.67l42.68,23.79,15.68-33.86-4.39-66.08Z"/>
    <path class="cls-9" d="M552.25,451.76c.42.65.75,1.35,1,2.08.8,1.92,1.48,3.88,2.06,5.88,1.93,6.69,2.91,13.63,2.92,20.6.04,6.92-.89,13.8-2.76,20.46-.54,1.99-1.2,3.96-1.96,5.88-.24.73-.57,1.43-.98,2.08-.18,0,1.02-3.12,2.33-8.21,3.38-13.33,3.34-27.29-.1-40.6-1.47-5.08-2.68-8.09-2.51-8.15Z"/>
    <path class="cls-9" d="M553.92,458.16c.86-3.18,2.25-6.18,4.12-8.9,1.57-2.93,3.61-5.57,6.04-7.84.22.2-2.37,3.7-5.15,8.29-2.78,4.59-4.72,8.56-5,8.45Z"/>
    <path class="cls-9" d="M425.09,470.31c-.8-1.31-1.45-2.7-1.96-4.15-1.31-2.94-2.8-6.37-4.47-10.13l-4.57-10.11c-.71-1.36-1.29-2.8-1.72-4.27.94,1.21,1.74,2.52,2.37,3.92,1.35,2.51,3.08,6.04,4.86,9.99,1.78,3.96,3.21,7.62,4.19,10.31.6,1.43,1.04,2.92,1.29,4.45Z"/>
    <rect class="cls-4" x="570.99" y="709.31" width="11.52" height="200.31"/>
    <path class="cls-4" d="M405.99,684.17h178.27c7.36,0,13.33,5.96,13.33,13.32h0c0,7.35-5.97,13.32-13.33,13.32h-178.27c-7.36,0-13.33-5.96-13.33-13.32h0c0-7.35,5.97-13.32,13.33-13.32Z"/>
    <path class="cls-9" d="M582.39,707.47l28.51,55.16,35.16,37.1c2.42,2.55,2.31,6.59-.25,9-.1.1-.21.19-.32.29h0c-1.59,1.32-3.71,1.78-5.7,1.23-12.66-3.43-58.67-17.15-60.45-19.95-2.8-4.45-34.61-56.69-34.61-56.69l37.66-26.14Z"/>
    <path class="cls-4" d="M645.49,809.05l-68.82-22.89,1.27,2.31c1.12,1.98,2.87,3.51,4.98,4.37,5.68,2.18,21.56,7.84,56.71,17.54,2.06.57,4.27.07,5.88-1.33h-.02Z"/>
    <path class="cls-12" d="M620.02,792.04c.39,0,0-3.55,2.47-6.86,2.47-3.31,5.72-4.25,5.62-4.62s-.96-.2-2.33.31c-1.78.72-3.32,1.94-4.41,3.53-1.11,1.57-1.75,3.43-1.84,5.35-.02,1.47.33,2.33.49,2.29Z"/>
    <path class="cls-12" d="M627.97,797.22c.39,0,1.16-2.63,3.55-4.98,2.39-2.35,5.04-3.21,4.94-3.59s-3.25-.1-5.88,2.63-3.06,5.96-2.61,5.94Z"/>
    <path class="cls-12" d="M607.67,786.63c.41.12,1.59-4.08,4.96-8.05,3.37-3.98,7.25-5.88,7.05-6.31s-4.53,1.12-8.09,5.43c-3.57,4.31-4.25,8.94-3.92,8.94Z"/>
    <path class="cls-12" d="M597.6,770.58c.33.25,2.65-2.65,6.49-4.94,3.84-2.29,7.47-3.04,7.41-3.43s-3.92-.24-8.11,2.27c-4.19,2.51-6.07,5.94-5.78,6.09Z"/>
    <path class="cls-9" d="M487.25,652.42s-8.45,28.9-6.7,59.14c1.74,30.24,4.13,170.35,3.23,172.68-.9,2.33,45.07,9.29,45.07,9.29,0,0,11.62-70.33,13.95-88.36,2.33-18.03,7.54-22.1,6.98-70.94-.57-48.83,12.23-38.6,21.56-54.77,9.33-16.17,12.78-31.35,7.54-59.18-5.23-27.83-16.54-36.63-16.54-36.63l-60.75,4.66-18.11,54.97,3.76,9.13Z"/>
    <path class="cls-9" d="M418.96,587.28s57.87-28.47,74.47-28.47,28.47,6.43,40.43,28.47c11.95,22.05,65.22,150.65,65.22,150.65l-40.43,23.89s-51.44-76.25-62.45-94.63l-11.09-18.36s1.84,25.71-10.11,34.9c-11.95,9.19-43.11-.92-56.03-14.7-12.91-13.78-23.89-26.63-19.3-49.6s19.3-32.16,19.3-32.16Z"/>
    <path class="cls-4" d="M418.96,587.28l-.73.55c-.49.37-1.2.92-2.08,1.72-2.61,2.34-4.95,4.97-6.96,7.84-3.24,4.59-5.75,9.64-7.47,14.99-2.41,7.19-3.28,14.8-2.57,22.34.57,4.42,1.85,8.71,3.8,12.72,2.19,4.36,4.89,8.44,8.03,12.17,1.59,1.96,3.33,3.92,5.11,5.88,1.78,1.96,3.57,3.92,5.6,5.78,4.3,3.68,9.1,6.74,14.25,9.09,5.45,2.58,11.19,4.47,17.11,5.62,3.07.61,6.2.91,9.33.9,3.19.05,6.36-.54,9.33-1.72,1.46-.61,2.8-1.5,3.92-2.63.63-.51,1.2-1.11,1.69-1.76.54-.61,1.03-1.27,1.47-1.96,1.8-2.84,3.13-5.96,3.92-9.23,1.68-6.77,2.34-13.75,1.96-20.71v-1.7l.88,1.45c5.31,8.72,10.56,17.83,16.38,26.91,5.82,9.07,11.89,18.28,18.11,27.71,12.46,18.81,25.47,38.33,39.04,58.34l-.65-.14,6.66-3.92,33.76-19.95-.22.59c-16.03-38.6-31.35-74.97-45.5-107.68-3.57-8.17-7.03-16.13-10.5-23.79-3.47-7.66-6.82-15.11-10.66-21.95-1.91-3.34-4.04-6.55-6.39-9.6-2.24-2.94-4.8-5.62-7.64-7.98-2.74-2.24-5.81-4.04-9.09-5.35-3.15-1.22-6.44-2.01-9.8-2.35l-2.45-.22h-2.43c-.8-.02-1.6.02-2.39.12-.79.04-1.57.13-2.35.27-1.53.33-3.06.59-4.55.98l-4.37,1.21c-5.7,1.78-10.99,3.68-15.89,5.6-9.8,3.8-18.07,7.45-24.81,10.43s-11.89,5.41-15.4,7.05l-3.92,1.86-1.35.61s.43-.25,1.31-.69l3.92-1.96c3.49-1.69,8.64-4.13,15.34-7.19s14.97-6.72,24.77-10.58c4.9-1.96,10.19-3.92,15.91-5.68l4.39-1.23c1.49-.41,3.04-.67,4.59-1.02.8-.14,1.6-.23,2.41-.27.8-.11,1.62-.16,2.43-.14h2.47l2.49.2c3.42.33,6.79,1.13,9.99,2.37,3.27,1.31,6.32,3.12,9.05,5.35,2.92,2.37,5.55,5.08,7.84,8.07,2.4,3.06,4.56,6.29,6.47,9.68,3.92,6.88,7.25,14.32,10.76,21.99,3.51,7.66,6.98,15.68,10.54,23.77,14.23,32.71,29.55,69.06,45.62,107.68l.16.37-.37.22-33.74,19.95-6.66,3.92-.39.24-.25-.37c-13.48-20.03-26.55-39.54-39.02-58.38-6.21-9.41-12.29-18.64-18.11-27.73-5.82-9.09-11.05-18.2-16.34-26.94l.8-.25c.4,7.05-.26,14.13-1.96,20.99-.82,3.35-2.18,6.55-4.02,9.46-.46.69-.96,1.34-1.51,1.96-.52.67-1.11,1.29-1.76,1.84-1.22,1.19-2.66,2.13-4.23,2.76-3.07,1.21-6.34,1.81-9.64,1.76-3.18,0-6.35-.31-9.46-.92-5.97-1.19-11.78-3.11-17.28-5.72-5.2-2.4-10.04-5.52-14.38-9.25-1.98-1.86-3.86-3.82-5.64-5.88-1.78-1.96-3.53-3.92-5.11-5.88-3.17-3.77-5.88-7.91-8.07-12.33-1.96-4.06-3.23-8.42-3.78-12.89-1.09-13.35,2.57-26.65,10.33-37.57,2.04-2.89,4.41-5.52,7.07-7.84.91-.73,1.88-1.39,2.9-1.96Z"/>
    <path class="cls-4" d="M479.04,600.2c-1.78,1.76-3.12,3.92-3.92,6.29-.83,2.6-1.1,5.34-.8,8.05.4,3.32,1.11,6.6,2.12,9.8,1.7,5.89,3.8,11.67,6.27,17.28l2.29,5.09c.33.62.6,1.28.78,1.96-.44-.54-.81-1.12-1.12-1.74-.67-1.16-1.57-2.84-2.59-4.98-2.67-5.58-4.87-11.38-6.58-17.32-1-3.27-1.65-6.63-1.96-10.03-.27-2.82.09-5.66,1.04-8.33.64-1.8,1.66-3.45,3-4.82.41-.51.91-.93,1.47-1.25Z"/>
    <path class="cls-9" d="M531.11,836.96l-2.74,61.77,11.89,49.46c.83,3.39-1.25,6.8-4.63,7.63-.15.04-.31.07-.46.09h0c-2.02.36-4.08-.3-5.53-1.74-9.23-9.25-42.11-43.9-42.25-47.21-.24-5.25-1.74-66.08-1.74-66.08l45.46-3.92Z"/>
    <path class="cls-4" d="M535.17,955.85l-48.01-53.87v2.63c-.02,2.25.73,4.44,2.12,6.21,3.92,4.7,14.68,17.44,40.25,43.29,1.49,1.5,3.63,2.15,5.7,1.74h-.06Z"/>
    <path class="cls-12" d="M521.62,928.55c.35.18,1.82-3.04,5.53-4.7,3.7-1.67,7.05-.82,7.15-1.2s-.73-.65-2.16-.88c-1.9-.27-3.84.03-5.57.86-1.74.79-3.21,2.07-4.23,3.68-.74,1.27-.86,2.18-.73,2.23Z"/>
    <path class="cls-12" d="M525.86,936.9c.29.27,2.31-1.69,5.53-2.55s5.88-.25,6.06-.65-2.76-1.69-6.41-.65c-3.64,1.04-5.49,3.68-5.17,3.84Z"/>
    <path class="cls-12" d="M513.67,917.75c.27.31,3.39-2.72,8.27-4.49,4.88-1.76,9.19-1.53,9.21-1.96s-4.47-1.27-9.68.67-8.09,5.6-7.8,5.78Z"/>
    <path class="cls-12" d="M512.94,898.92c.16.37,3.59-.98,8.03-1.04,4.45-.06,7.96,1.08,8.09.69s-3.33-2.18-8.11-2.06c-4.78.12-8.21,2.12-8.01,2.41Z"/>
    <rect class="cls-4" x="407.18" y="709.31" width="11.52" height="200.31"/>
    <path class="cls-1" d="M506.3,518.58c-.2-.36-.47-.68-.8-.92l-4.78-3.92-2.41,8.09c1.18.84,2.64,1.17,4.06.92,1.41-.25,2.67-1.05,3.51-2.21.46-.54.63-1.28.43-1.96Z"/>
    <path class="cls-4" d="M446.85,478.88l57.04,49.46,5.31,2.29,2.94,1.39-1.43-2.45-2.9-4.96-57.73-49.46c-.98-.84-2.44-.79-3.35.12h0c-.97.96-.97,2.53,0,3.49.04.04.08.08.12.11Z"/>
    <path class="cls-10" d="M448.88,507.74l4.35.63s22.16-9.07,25.36-9.6c2.47-.41,14.38,1.96,19.6,3.06,2.14.42,3.7,2.28,3.72,4.47v.1c-.06,1.76-1.14,3.33-2.76,4.02h0c2.21.6,3.52,2.88,2.93,5.09-.07.27-.17.53-.3.78-1.35,3.51-6.04,3.12-6.04,3.12l-7.84.43s1.96.53,5.02,1.12c1.42.19,2.8.59,4.1,1.2,0,0,4.86,4.33.39,6.37-1.46.73-3.09,1.08-4.72,1,0,0,1.53,4.8-2.08,5.76-3.61.96-27.61,0-27.61,0-1.57-.6-3.23-.94-4.92-1l-6.76-.24-2.43-26.3Z"/>
    <path class="cls-1" d="M498.83,510.41c-2.06.08-4.12.03-6.17-.16-2.06-.05-4.12-.23-6.15-.55,2.06-.09,4.12-.04,6.17.14,2.06.05,4.12.24,6.15.57Z"/>
    <path class="cls-1" d="M475.36,533.22s-.35,0-.76-.45c-.53-.52-.84-1.22-.88-1.96-.03-.7.19-1.4.61-1.96.33-.45.65-.61.69-.57s-.2.29-.45.73c-.32.56-.47,1.2-.43,1.84.06.64.3,1.26.71,1.76.29.43.57.61.53.61Z"/>
    <path class="cls-1" d="M474.71,525.16s-.41,0-.96-.31c-1.37-.84-1.8-2.62-.96-3.99.09-.15.2-.29.31-.42.43-.49.82-.63.84-.59s-.27.27-.61.76c-.43.62-.62,1.37-.53,2.12.11.77.5,1.46,1.1,1.96.47.29.82.41.8.47Z"/>
    <path class="cls-1" d="M474.24,515.7s-.41-.18-.82-.74c-.54-.77-.77-1.71-.65-2.65.13-.93.61-1.77,1.33-2.37.57-.43,1-.53,1.02-.49s-.35.25-.82.71c-.59.6-.98,1.38-1.12,2.21-.11.84.06,1.69.47,2.43.33.57.65.78.59.9Z"/>
    <path class="cls-1" d="M476.69,503.47s-.24-.1-.39-.41c-.19-.41-.23-.87-.12-1.31.09-.45.35-.85.73-1.12.27-.2.49-.22.51-.18s-.63.49-.84,1.39c-.08.54-.04,1.1.12,1.63Z"/>
    <path class="cls-1" d="M488.64,519.71c-1.1.23-2.23.31-3.35.25-1.12.08-2.24.04-3.35-.14,1.1-.23,2.23-.32,3.35-.27,1.12-.08,2.24-.03,3.35.16Z"/>
    <path class="cls-1" d="M492.62,529.59c-2.05-.16-4.08-.46-6.09-.88-2.04-.29-4.06-.71-6.04-1.27,2.05.15,4.09.44,6.09.88,2.04.29,4.06.71,6.04,1.27Z"/>
    <path class="cls-1" d="M458.21,534.29h1.27c1.26.11,2.5.39,3.68.82h0c3.15,0,7.84.24,13.72.31h9.64c.86,0,1.74,0,2.65-.16.88,0,1.75-.22,2.53-.65.73-.53,1.18-1.35,1.23-2.25.1-.94.01-1.9-.27-2.8v-.31h.33c.99.04,1.97-.09,2.92-.37.99-.25,1.91-.69,2.72-1.31.74-.71.9-1.83.39-2.72-.47-.98-1.14-1.86-1.96-2.57h0c-1.4-.56-2.86-.97-4.35-1.21l-4.7-1.06-1.78-.39,1.82-.1,7.84-.43h0c1.31.09,2.62-.18,3.8-.76,1.52-.86,2.44-2.49,2.39-4.23-.09-1.68-1.24-3.11-2.86-3.57l-.67-.22.63-.25c1.51-.67,2.51-2.12,2.61-3.76.07-1.62-.78-3.13-2.19-3.92-.7-.36-1.45-.59-2.23-.69l-2.33-.49-4.59-.88c-2.98-.55-5.88-1.06-8.66-1.39-.69,0-1.37-.16-2.06-.18-.33-.03-.65-.03-.98,0l-.96.22c-1.27.39-2.49.82-3.68,1.23-9.5,3.49-16.72,6.43-20.75,8.01h0l-3.25-.51-.82-.14h-.25.25l.82.1,3.29.41h0c4.02-1.67,11.19-4.68,20.69-8.23,1.2-.43,2.41-.86,3.7-1.25.33-.1.67-.18,1.02-.24.35-.03.71-.03,1.06,0,.7.01,1.4.07,2.1.16,2.8.31,5.7.82,8.7,1.37l4.57.86,2.35.49c.83.1,1.63.35,2.37.73,1.57.86,2.51,2.53,2.45,4.31-.08,1.84-1.21,3.47-2.9,4.19v-.47c.88.27,1.68.78,2.29,1.47.63.71.96,1.64.94,2.59-.01.94-.24,1.87-.67,2.7-.44.84-1.12,1.52-1.96,1.96-1.26.63-2.67.91-4.08.82h0l-7.84.41v-.49l4.68,1.06c1.55.25,3.06.69,4.51,1.29h0c.83.78,1.49,1.72,1.96,2.76.4.81.4,1.76,0,2.57-.16.25-.35.47-.57.67-.85.68-1.84,1.17-2.9,1.43-1.01.3-2.06.43-3.12.37l.24-.29c.29.97.39,1.99.29,3-.09,1.02-.62,1.95-1.45,2.55-.83.47-1.77.71-2.72.71-.92.1-1.8.1-2.68.14h-9.66c-5.88-.12-10.52-.31-13.72-.47h0c-1.16-.44-2.37-.74-3.61-.88l-.94-.14-.29.08Z"/>
    <path class="cls-10" d="M455.21,533.98s-78.38,4.61-85.42.98c-7.03-3.63-15.42-14.64-9.8-29.92s11.88-27.69,11.88-27.69l17.91,9.62,18.64,10.76-3.27,5.39,51.07,5.11-1,25.75Z"/>
    <path class="cls-1" d="M405.16,503.12s-1.43-.47-3.78-1.14c-3.05-.85-6.15-1.51-9.29-1.96-3.14-.47-6.3-.77-9.46-.88-2.43-.1-3.92,0-3.92-.14.35-.08.7-.12,1.06-.14.69,0,1.69-.1,2.9-.1,3.2.02,6.39.27,9.54.76,3.16.46,6.28,1.18,9.33,2.16,1.16.39,2.08.74,2.7,1.02.32.1.63.24.92.41Z"/>
    <path class="cls-10" d="M588.41,456.67l8.74,34.96,19.6-18.99,20.5,11.44-32.78,41.29c-6.62,9.45-15.95,13.17-23.28,11.31-1.47-.39-2.89-.93-4.25-1.61-9.75-4.96-16.35-14.5-17.54-25.38l-5.88-45.31,34.9-7.72Z"/>
    <path class="cls-1" d="M577.63,515.89c.19-.43.35-.88.47-1.33.27-.88.69-2.14,1.25-3.66s1.29-3.33,2.19-5.29c.9-1.96,1.96-4.06,3.29-6.19,1.33-2.14,2.63-4.1,3.92-5.88,1.29-1.78,2.53-3.23,3.61-4.45,1.08-1.21,1.96-2.19,2.63-2.84.35-.32.67-.66.96-1.04-.38.29-.73.6-1.06.94-.69.61-1.63,1.55-2.74,2.74-1.12,1.2-2.37,2.7-3.7,4.41-1.41,1.89-2.72,3.85-3.92,5.88-1.21,2.02-2.3,4.11-3.27,6.25-.9,1.96-1.61,3.8-2.14,5.35s-.92,2.82-1.14,3.7c-.15.46-.27.93-.35,1.41Z"/>
    <path class="cls-3" d="M595.4,424.85s-51.07,45.07-61.22,53.36c-4.68,3.35-9.63,6.31-14.8,8.86l13.97,2.92,62.04-65.14Z"/>
    <polygon class="cls-3" points="600.77 418.81 676.92 421.56 678 429.69 598.5 501.96 530.17 497.47 524.66 491.14 600.77 418.81"/>
    <path class="cls-9" d="M678.61,429.69c-.48.03-.97.03-1.45,0h-4.12l-15.58-.1-52.67-.65.35-.14-9.94,9.27-45.44,42.23-13.72,12.66c-1.61,1.45-2.86,2.59-3.8,3.41l-1,.88c-.24.18-.35.27-.37.25l.29-.33.94-.94,3.66-3.55,13.6-12.91,45.07-42.33,9.94-9.27.14-.14h.22l52.67,1,15.64.31,4.19.16c.46.01.92.07,1.37.18Z"/>
    <path class="cls-9" d="M676.96,423.48c-.49.06-.99.06-1.49,0h-4.23l-15.79-.39-53.36-1.72.37-.14-10.41,10.09c-17.85,17.07-34.39,32.08-46.5,42.8-6.07,5.35-11.01,9.64-14.46,12.58l-3.92,3.35-1.04.86c-.25.18-.37.27-.39.25.09-.12.2-.23.31-.33l.98-.94c.96-.84,2.23-1.96,3.92-3.49l14.23-12.82c11.99-10.86,28.45-25.95,46.29-42.99l10.43-10.01.16-.16h.22l53.36,2.06,15.68.71,4.25.24c.47-.01.94,0,1.41.06Z"/>
    <path class="cls-9" d="M527.58,493.81l.31-.33.94-.94,3.74-3.55,13.83-12.86,45.91-42.15,10.8-9.8.16-.14h.2l52.42,1.67,15.48.59,4.15.22c.49,0,.97.04,1.45.14-.48.03-.97.03-1.45,0h-4.17l-15.48-.29-52.42-1.33.35-.14-10.8,9.8-46.11,41.94-14.07,12.62c-1.63,1.43-2.9,2.57-3.92,3.39l-1.02.88c-.18.22-.29.31-.31.29Z"/>
    <path class="cls-10" d="M627.33,451.07c.18-1.94,1.89-3.37,3.83-3.19.09,0,.19.02.28.04,1.1.18,2.55.45,4.29.86,4.55,1.04,17.34,9.43,17.38,12.19.25,2.03-.58,4.04-2.18,5.31,0,0,2.23,3.92.88,6.66-1.16,2.39-5.25,2.74-5.25,2.74,0,0,2.53,3.92-.84,5.88-1.18.73-3.51,2.1-4.08,2.59-.29.69-.65,1.35-1.1,1.96-1.6,1.76-3.89,2.73-6.27,2.65h-.78c-1.47-.05-2.87-.65-3.92-1.69-4.82-4.74-18.4-18.42-18.3-21.73,0,0-2.59-2.59-1.18-4.8s5.58-.65,5.58-.65c-1.09-1.11-1.32-2.81-.57-4.17,1.29-2.33,8.88-1.18,12.27-.29,2.7.71,10.23,2.9,10.23,2.9,0,0-9.8-4.76-10.17-6.58-.06-.22-.1-.44-.12-.67Z"/>
    <path class="cls-1" d="M611.22,465.37c.3.28.62.53.96.74.61.47,1.55,1.12,2.7,1.96,2.33,1.55,5.64,3.53,9.39,5.55,3.74,2.02,7.23,3.68,9.8,4.84l3.02,1.35c.35.19.73.33,1.12.43-.34-.22-.69-.41-1.06-.57l-2.96-1.45c-2.51-1.23-5.88-2.94-9.7-4.96-3.82-2.02-7.05-3.92-9.41-5.41-1.2-.74-2.14-1.35-2.78-1.78-.33-.27-.69-.51-1.08-.71Z"/>
    <path class="cls-1" d="M615.18,459.77c.34.17.71.3,1.08.39.71.24,1.72.55,2.98,1,2.49.88,5.88,2.27,9.52,3.92,1.84.84,3.61,1.61,5.17,2.39s2.94,1.53,4.08,2.19c1.14.67,1.96,1.23,2.67,1.65.31.23.63.42.98.59-.06-.07-.14-.14-.22-.2l-.69-.51c-.84-.63-1.71-1.21-2.61-1.74-1.14-.71-2.49-1.51-4.06-2.29s-3.33-1.59-5.17-2.43c-3.13-1.47-6.34-2.78-9.6-3.92-1.25-.43-2.29-.71-3.02-.9-.37-.07-.74-.12-1.12-.14Z"/>
    <path class="cls-1" d="M637.55,458.36c.46.43.98.79,1.53,1.1.98.61,2.37,1.39,3.92,2.27,1.55.88,2.9,1.69,3.92,2.31.51.35,1.05.67,1.61.96-.43-.46-.92-.86-1.45-1.2-.94-.67-2.29-1.55-3.82-2.41s-2.94-1.63-3.92-2.18c-.57-.34-1.17-.63-1.78-.86Z"/>
    <path class="cls-1" d="M615.27,471.94c.17.32.38.62.61.9.41.55,1.04,1.33,1.84,2.27,1.61,1.96,3.92,4.35,6.51,7.13.65.69,1.23,1.39,1.96,1.96s1.27,1.21,1.96,1.74c1.13.93,2.4,1.67,3.76,2.21.92.38,1.89.59,2.88.63.27.03.54.03.8,0h.27-1.08c-.96-.11-1.9-.36-2.78-.74-1.31-.56-2.53-1.31-3.63-2.23-.65-.54-1.28-1.13-1.86-1.74-.63-.63-1.21-1.33-1.84-1.96-2.55-2.8-4.96-5.21-6.6-7.05-.82-.92-1.47-1.67-1.96-2.19-.26-.33-.54-.63-.84-.92Z"/>
    <path class="cls-9" d="M515.69,378.9c11.8,1.54,22.61-6.77,24.15-18.56.53-4.03.64-4.61-1.07-8.31-.41-1.09-2.32-3.08-3.29-3.73-2.13-1.2-4.28-2.17-6.24-.72l-14.2,10.48"/>
    <path class="cls-12" d="M526.26,376.9c-.06-.07.9-.87,2.11-2.44.71-.92,1.32-1.9,1.83-2.94.59-1.28,1.02-2.62,1.29-3.99.47-2.54.39-5.16-.23-7.67-.49-1.92-1.01-3.06-.93-3.09.16.24.3.5.4.77.34.72.61,1.47.83,2.24,1.15,3.98.78,8.24-1.04,11.96-.53,1.06-1.18,2.06-1.93,2.97-.28.35-.59.69-.91,1.01-.23.25-.48.49-.75.7-.21.19-.44.35-.68.48Z"/>
    <path class="cls-9" d="M526.37,294.66c-4.2-10.02-12.22-18.11-21.41-23.9-4.93-3.1-10.39-5.66-16.2-6.11-5.81-.44-12.02,1.46-15.7,5.99l-1,1.14c7.15,14.27,12.27,26.39,21.26,39.59,3.31,4.85,5.33,21.74,6.31,27.52,3.36,19.75,14.58,27.81,14.58,27.81,23.48-.94,16.36-62.03,12.16-72.05Z"/>
    <path class="cls-12" d="M529.01,347.85c-.02-.08-.02-.17,0-.26v-.75c.03-.33.02-.75,0-1.23l-.05-1.7c-.19-3.56-.81-7.08-1.85-10.47-1.57-5.02-3.81-9.79-6.66-14.17-3.53-5.33-7.57-10.29-12.06-14.8-4.71-4.88-9.42-9.24-13.62-13.37-3.73-3.62-7.27-7.43-10.61-11.43-2.24-2.72-4.3-5.59-6.16-8.6-.67-1.08-1.13-1.92-1.42-2.5l-.35-.67c-.04-.08-.08-.15-.11-.24.06.07.11.14.15.22.09.17.22.38.38.64.32.58.84,1.4,1.5,2.46,1.9,2.96,3.98,5.8,6.24,8.48,3.37,3.97,6.94,7.75,10.68,11.35,4.19,4.11,8.93,8.48,13.65,13.36,4.5,4.53,8.55,9.51,12.08,14.88,2.85,4.42,5.07,9.23,6.62,14.3,1.02,3.42,1.59,6.97,1.72,10.55,0,.64,0,1.2,0,1.7s-.04.9-.06,1.23-.04.56-.05.76c0,.09,0,.17-.03.26Z"/>
    <path class="cls-4" d="M526.73,301.94c-.24-.76-.55-1.5-.93-2.21-.5-.81-1.11-1.54-1.81-2.18-.94-.84-1.98-1.57-3.09-2.16-2.41-1.38-5.59-2.51-8.93-4.05-3.34-1.55-7.03-3.35-10.75-5.46-6.37-3.59-12.46-7.68-18.2-12.24-2.2-1.76-3.93-3.24-5.1-4.29l-1.34-1.23c-.16-.14-.31-.29-.45-.45.18.11.35.24.51.38l1.38,1.16c1.21,1.03,2.97,2.45,5.18,4.19,5.78,4.46,11.88,8.49,18.23,12.06,3.72,2.1,7.35,3.93,10.71,5.48,3.36,1.55,6.48,2.71,8.92,4.15,1.11.62,2.15,1.38,3.08,2.25.7.66,1.31,1.43,1.79,2.28.17.3.32.61.45.93.1.24.19.48.25.74.06.21.1.42.12.64Z"/>
    <path class="cls-4" d="M529.01,347.85c-.06.31-.14.61-.26.9-.18.58-.48,1.39-.87,2.39-1.01,2.61-2.3,5.1-3.82,7.41-.86,1.27-1.81,2.46-2.84,3.56-.85.89-1.76,1.72-2.72,2.48-.64.51-1.31.99-2,1.43-.24.18-.49.33-.76.44-.03-.06,1.04-.75,2.63-2.08.92-.78,1.81-1.62,2.64-2.51,1.01-1.11,1.94-2.29,2.78-3.54,1.51-2.29,2.81-4.74,3.89-7.29.39-.93.71-1.71.97-2.34.09-.29.22-.58.37-.84Z"/>
    <path class="cls-9" d="M473.8,269.68c-37.19-3.72-31.51,52.08-31.51,52.08h0c2.85-20.76,30.68-43.48,30.68-43.48l5.79-1.22-4.95-7.38Z"/>
    <path class="cls-4" d="M452.61,365.96l-.28-.14-.83-.46c-1.05-.59-2.06-1.24-3.03-1.94-1.52-1.12-2.96-2.35-4.28-3.69-1.77-1.77-3.35-3.71-4.71-5.79-3.57-5.41-5.76-11.56-6.36-17.92-.64-7.81.79-15.63,4.17-22.72,1.7-3.67,3.85-7.13,6.38-10.32,2.39-2.93,4.99-5.7,7.79-8.27,2.64-2.48,5.24-4.75,7.65-6.9,2.41-2.14,4.61-4.18,6.55-6.1,3.09-3.01,5.83-6.35,8.15-9.95.39-.65.77-1.2,1.04-1.72.28-.52.49-.94.68-1.3l.43-.8c.04-.09.1-.18.16-.27-.03.1-.07.2-.12.29l-.39.8c-.18.37-.39.8-.64,1.32s-.63,1.1-1.01,1.75c-2.28,3.66-4.99,7.05-8.09,10.09-1.94,1.94-4.1,4-6.53,6.15s-4.98,4.45-7.61,6.92c-2.77,2.57-5.35,5.33-7.73,8.25-2.51,3.17-4.63,6.62-6.32,10.27-3.31,7.02-4.72,14.76-4.1,22.48.57,6.31,2.71,12.41,6.22,17.79,2.35,3.63,5.34,6.84,8.82,9.49,1.26.91,2.25,1.59,2.97,2l.82.5c.07.05.14.11.2.17Z"/>
  </g>
  <g id="freepik--sheets-2--inject-2">
    <polygon class="cls-5" points="911.43 751.01 911.43 743.8 750.94 744.11 741.67 744.11 741.67 751.11 750.94 751.11 750.94 794.26 924.27 794.26 924.27 751.01 911.43 751.01"/>
    <polygon class="cls-7" points="872.08 795.08 872.08 743.8 911.43 743.8 911.43 749.22 924.27 749.22 924.27 794.26 872.08 795.08"/>
    <path class="cls-3" d="M911.43,743.8c0,.27-37.68.51-84.15.51s-84.17-.24-84.17-.51,37.68-.51,84.17-.51,84.15.24,84.15.51Z"/>
    <path class="cls-3" d="M922.97,766.41c0,.27-38.37.51-85.69.51s-85.69-.24-85.69-.51,38.37-.51,85.69-.51,85.69.27,85.69.51Z"/>
    <path class="cls-3" d="M924.27,781.93c0,.27-38.66.51-86.34.51s-86.34-.24-86.34-.51,38.66-.51,86.34-.51,86.34.22,86.34.51Z"/>
    <path class="cls-3" d="M743.12,751.01c0-.29,37.68-.51,84.15-.51s84.17.22,84.17.51-37.68.51-84.17.51-84.15-.24-84.15-.51Z"/>
    <path class="cls-5" d="M743.14,794.81v64.49h-9.35v7.05h9.29v43.11h173.31v-39.19h-12.84v-8.54h12.84v-13.01h5.72v-5.88h-6.78v-48.03h-172.19Z"/>
    <polygon class="cls-7" points="870.43 795 870.43 909.44 916.45 909.62 916.45 869.47 903.61 869.47 903.61 861.63 916.45 861.9 916.45 849.07 922.27 849.07 922.17 842.44 915.39 842.25 915.39 794.81 870.43 795"/>
    <path class="cls-3" d="M915.17,858.98c0,.27-40.27.51-89.93.51s-89.93-.24-89.93-.51,40.25-.51,89.93-.51,89.93.24,89.93.51Z"/>
    <path class="cls-3" d="M903.61,866.19c0,.27-37.68.51-84.15.51s-84.15-.24-84.15-.51,37.66-.51,84.15-.51,84.15.22,84.15.51Z"/>
    <path class="cls-3" d="M915.17,881.65c0,.27-38.37.51-85.69.51s-85.69-.24-85.69-.51,38.35-.51,85.69-.51,85.69.22,85.69.51Z"/>
    <path class="cls-3" d="M922.17,842.17c0,.27-39.94.51-89.2.51s-89.18-.24-89.18-.51,39.92-.51,89.18-.51,89.2.22,89.2.51Z"/>
    <path class="cls-3" d="M915.17,802.66c0,.29-38.37.51-85.69.51s-85.69-.22-85.69-.51,38.35-.51,85.69-.51,85.69.24,85.69.51Z"/>
    <path class="cls-3" d="M915.39,822.77c0,.29-38.27.51-85.48.51s-85.48-.22-85.48-.51,38.25-.51,85.48-.51,85.48.24,85.48.51Z"/>
    <path class="cls-3" d="M916.45,897.12c0,.27-38.64.51-86.22.51s-86.34-.24-86.34-.51,38.64-.51,86.34-.51,86.22.22,86.22.51Z"/>
    <rect class="cls-6" x="764.6" y="822.77" width="7.43" height="9.39"/>
    <rect class="cls-6" x="821.27" y="842.29" width="14.17" height="9.39"/>
    <path class="cls-9" d="M915.39,794.61c0,.29-38.57.51-86.12.51s-86.22-.22-86.22-.51,38.55-.51,86.22-.51,86.12.24,86.12.51Z"/>
    <path class="cls-5" d="M749.92,596.69v59.4h-8.54v6.47h8.54v39.76h159.65v-36.19h-11.76v-7.84h11.76v-11.76h5.27v-5.53h-6.25v-44.31h-158.67Z"/>
    <polygon class="cls-7" points="831.34 596.86 831.34 702.29 909.57 702.45 909.57 665.45 897.75 665.45 897.75 658.24 909.57 658.49 909.57 646.66 914.94 646.68 914.84 640.56 908.59 640.39 908.59 596.69 831.34 596.86"/>
    <path class="cls-3" d="M908.39,655.81c0,.27-37.1.51-82.83.51s-82.85-.24-82.85-.51,37.08-.51,82.85-.51,82.83.22,82.83.51Z"/>
    <path class="cls-3" d="M897.75,662.43c0,.29-34.7.51-77.52.51s-77.52-.22-77.52-.51,34.7-.51,77.52-.51,77.52.24,77.52.51Z"/>
    <path class="cls-3" d="M908.39,676.68c0,.29-35.27.51-78.93.51s-78.95-.22-78.95-.51,35.27-.51,78.95-.51,78.93.24,78.93.51Z"/>
    <path class="cls-3" d="M914.84,640.31c0,.27-36.8.51-82.17.51s-82.17-.24-82.17-.51,36.78-.51,82.17-.51,82.17.24,82.17.51Z"/>
    <path class="cls-3" d="M908.39,603.94c0,.27-35.27.51-78.93.51s-78.95-.24-78.95-.51,35.27-.51,78.95-.51,78.93.22,78.93.51Z"/>
    <path class="cls-3" d="M908.82,615.52c0,.27-35.27.51-78.93.51s-78.95-.24-78.95-.51,35.27-.51,78.95-.51,78.93.29,78.93.51Z"/>
    <path class="cls-3" d="M908.59,622.46c0,.27-35.27.51-78.74.51s-78.74-.24-78.74-.51,35.27-.51,78.74-.51,78.74.22,78.74.51Z"/>
    <path class="cls-3" d="M909.57,690.93c0,.29-35.61.51-79.52.51s-79.54-.22-79.54-.51,35.61-.51,79.54-.51,79.52.24,79.52.51Z"/>
    <rect class="cls-6" x="782.43" y="615.32" width="10.41" height="9.97"/>
    <rect class="cls-6" x="821.9" y="640.43" width="13.05" height="8.64"/>
    <path class="cls-4" d="M823.72,632.1v81.68h94.98v-81.68h-94.98ZM854.72,646.8c-.29-3,1.87-5.68,4.86-6.04h23.26c3.33.71,5.46,4,4.74,7.33-.51,2.38-2.37,4.23-4.74,4.74h-23.26c-2.96-.36-5.1-2.99-4.86-5.96v-.08Z"/>
    <path class="cls-9" d="M737.32,632.1v81.68h88.18v-81.68h-88.18Z"/>
    <path class="cls-9" d="M830.89,633.27c-.5-5.97-.67-11.96-.51-17.95-.17-5.99,0-11.98.51-17.95.52,5.97.69,11.96.51,17.95.18,5.99,0,11.98-.51,17.95Z"/>
    <path class="cls-9" d="M908.39,632.1c-.03-.21-.03-.42,0-.63v-1.82c0-1.69,0-4.06-.1-7.05,0-6.19-.1-15.03-.18-25.91l.37.37-79.23.14-79.25-.14.35-.37c0,10.9-.12,19.71-.16,25.91,0,3,0,5.37-.1,7.05v1.82c.02.21.02.42,0,.63-.03-.21-.03-.42,0-.63v-1.82c0-1.69,0-4.06-.1-7.05,0-6.19-.1-15.01-.16-25.91v-.37h.37l79.25-.14,79.23.14h.37v.37c0,10.88-.14,19.71-.18,25.91,0,3,0,5.37-.1,7.05v1.82c-.11.23-.25.44-.41.63Z"/>
    <rect class="cls-7" x="742.75" y="717.56" width="55.79" height="21.99"/>
    <rect class="cls-6" x="740.41" y="713.78" width="175.19" height="4.61"/>
    <rect class="cls-6" x="741.22" y="738.54" width="174.39" height="4.61"/>
    <polygon class="cls-6" points="798.52 714.87 798.79 742.29 915.6 742.29 915.6 714.87 798.52 714.87"/>
    <ellipse class="cls-9" cx="820.6" cy="728.55" rx="6.31" ry="6.82"/>
    <path class="cls-3" d="M820.6,736.35c-4.32.3-8.06-2.95-8.37-7.27-.3-4.32,2.95-8.06,7.27-8.37,4.32-.3,8.06,2.95,8.37,7.27.01.18.02.35.02.53.15,4.17-3.11,7.68-7.28,7.84,0,0,0,0,0,0ZM820.6,722.63c-3.23-.3-6.1,2.07-6.4,5.3-.3,3.23,2.07,6.1,5.3,6.4,3.23.3,6.1-2.07,6.4-5.3.02-.17.02-.35.03-.52.11-3.07-2.27-5.65-5.33-5.8v-.08Z"/>
    <path class="cls-9" d="M794.32,734.16c0,.27-11.46.51-25.59.51s-25.59-.24-25.59-.51,11.44-.51,25.59-.51,25.59.22,25.59.51Z"/>
    <path class="cls-9" d="M794.32,730.31c0,.29-11.46.51-25.59.51s-25.59-.22-25.59-.51,11.44-.51,25.59-.51,25.59.24,25.59.51Z"/>
    <path class="cls-9" d="M794.32,726.49c0,.27-11.46.51-25.59.51s-25.59-.24-25.59-.51,11.44-.51,25.59-.51,25.59.22,25.59.51Z"/>
    <path class="cls-9" d="M794.32,722.65c0,.29-11.46.51-25.59.51s-25.59-.22-25.59-.51,11.44-.51,25.59-.51,25.59.24,25.59.51Z"/>
    <rect class="cls-12" x="850.02" y="720.71" width="52.64" height="14.66"/>
    <path class="cls-3" d="M858.21,733.88c-.69-3.89-.69-7.87,0-11.76.69,3.89.69,7.87,0,11.76Z"/>
    <path class="cls-3" d="M865.09,733.88c-.69-3.89-.69-7.87,0-11.76.69,3.89.69,7.87,0,11.76Z"/>
    <path class="cls-3" d="M872.12,733.88c-.69-3.89-.69-7.87,0-11.76.69,3.89.69,7.87,0,11.76Z"/>
    <path class="cls-3" d="M879.1,733.88c-.69-3.89-.69-7.87,0-11.76.69,3.89.69,7.87,0,11.76Z"/>
    <path class="cls-3" d="M886.05,733.88c-.69-3.89-.69-7.87,0-11.76.69,3.89.69,7.87,0,11.76Z"/>
    <path class="cls-3" d="M893.01,733.88c-.69-3.89-.69-7.87,0-11.76.69,3.89.69,7.87,0,11.76Z"/>
    <path class="cls-9" d="M799.32,743.09c-.53-4.83-.71-9.69-.53-14.54-.18-4.86,0-9.73.53-14.56.68,9.69.68,19.41,0,29.1Z"/>
  </g>
  <g id="freepik--Table--inject-2">
    <rect class="cls-4" x="200.74" y="555.97" width="21.54" height="351.85"/>
    <rect class="cls-4" x="759.72" y="555.97" width="21.54" height="353.49"/>
    <rect class="cls-4" x="122.82" y="535.61" width="747.71" height="23.2"/>
    <rect class="cls-3" x="509" y="529.61" width="105.86" height="6"/>
  </g>
  <g id="freepik--Mug--inject-2">
    <path class="cls-3" d="M753.39,306.41h45.85l-3.43,25.18s-3,12.42-9.95,12.42h-19.85c-4.93-3.02-8.42-7.93-9.66-13.58l-2.96-24.02Z"/>
    <path class="cls-9" d="M753.39,306.41c.06.26.11.52.14.78,0,.57.18,1.31.31,2.25.27,1.96.65,4.84,1.14,8.39l1.69,12.86c1.27,5.44,4.68,10.13,9.46,13.01h-.16,20.09c1.37-.07,2.67-.62,3.68-1.55,2.09-2.03,3.67-4.53,4.61-7.29.4-1.06.75-2.14,1.04-3.23h0c1.21-8.9,2.39-17.38,3.45-25.2l.37.41-32.88-.18h-12.93c.27-.03.55-.03.82,0h11.86l33.14-.2h.41v.41c-1.06,7.84-2.19,16.3-3.39,25.2h0c-.29,1.14-.65,2.26-1.08,3.35-.97,2.89-2.63,5.49-4.84,7.58-1.13,1.04-2.6,1.66-4.13,1.74h-20.24c-4.99-2.97-8.53-7.86-9.8-13.52-.67-5.04-1.12-9.46-1.53-13.07-.41-3.61-.69-6.39-.9-8.41l-.24-2.18c-.08-.39-.11-.78-.08-1.18Z"/>
    <path class="cls-3" d="M795.79,319.4l.67-.16s.43-.1,0,0,.12,0,.22,0c.5-.03.99-.03,1.49,0-.49,0,0,0,.18,0,.27.05.53.11.78.2l.65.22c.29,0,0,0-.12,0l.41.2c.44.22.87.48,1.27.76.25.18,0,0-.1,0l.25.24c.2.18.39.37.57.57.14.14.43.53.16.14l.43.69c.14.2.22.41.33.61s0,0,0-.12c.06.15.11.3.16.45.09.26.16.52.22.78,0,.1.16.76.1.43s0,.35,0,.45v.65c0,.16,0,.31,0,.47,0,0,0,.43,0,0s0,.33-.1.45-.12.45-.2.67-.31.82,0,.33c-.22.46-.47.91-.74,1.33-.07.09-.14.19-.2.29,0,0,.27-.31,0-.12s-.41.47-.65.67-.59.47-.33.29l-.39.25c-.2.12-.4.23-.61.33l-.29.16c.33-.18.16,0,0,0s-1.02.27-1.55.41.12,0,.16,0h-1.72s-.55,0-.2,0,0,0,0,0h-.45l-.88-.27s-.39-.16-.1,0-.29-.16-.29-.16c-1.27-.85-2.98-.51-3.83.75-.85,1.27-.51,2.98.75,3.83.1.06.2.12.3.17,5.47,2.88,12.24,1.03,15.48-4.23,1.5-2.64,1.97-5.74,1.31-8.7-.68-2.91-2.5-5.43-5.04-7-2.8-1.77-6.21-2.29-9.41-1.43-1.47.41-2.34,1.92-1.96,3.39.43,1.46,1.93,2.33,3.41,1.96l-.14.04Z"/>
    <path class="cls-9" d="M795.79,319.4c-.3.13-.62.18-.94.16-.97-.04-1.85-.57-2.33-1.41-.77-1.38-.3-3.12,1.06-3.92.84-.39,1.74-.62,2.67-.69,1.02-.12,2.05-.12,3.08,0,2.34.36,4.53,1.4,6.29,2.98,2.06,1.83,3.37,4.34,3.7,7.07.42,3-.27,6.05-1.96,8.56-1.89,2.68-4.83,4.44-8.09,4.84-1.43.21-2.88.16-4.29-.14-.67-.15-1.32-.35-1.96-.59l-.94-.43c-.36-.16-.68-.4-.94-.69-.97-1.22-.97-2.95,0-4.17,1.01-1.07,2.62-1.33,3.92-.65l-.55.33c0-.19.15-.34.33-.37.07-.02.15-.02.22,0h.27c0-.2.29.59-.16.65-.05.01-.11.01-.16,0h-.16l-.1-.1c-.2-.8.57-.57.33-.59h.57c.38.13.76.23,1.16.29h0l.2.12s.12,0,0,.31-.29.29-.31.29h-.47s-.22-.1-.1-.45.27-.16.29-.18h.9c.39.02.77.02,1.16,0v.69h-.31c-.08-.01-.17-.05-.24-.1-.08-.12-.08-.27,0-.39,0-.14,0,0,0-.12s.14,0,.16-.1h.29l.61-.16.59-.16.27-.1h0c-.16-.14,0,.69.2.59s.12,0,.12,0h-.12l-.31-.61c.27-.12.53-.27.78-.41l.37-.22h.31c.08.02.15.06.2.12.16.14,0,.45,0,.45h-.1c-.07.03-.15.03-.22,0-.11-.01-.21-.09-.25-.2-.12-.2.14-.45,0-.37h0c.24-.2.41-.35.63-.57l.29-.31h0s.33,0,.41.22,0,.18,0,.22h0l.22.29-.53-.37c.37-.51.63-1.06.92-1.55l.57.25v.1h0l-.24.1c-.18-.02-.31-.18-.29-.35h0l.1-.22c.05-.12.09-.25.12-.37,0-.27.16-.51.22-.78v-.22h0l.12-.16c.09-.05.2-.05.29,0,0,0,.1,0,.1.1v.22h0v.2h0c.2.24-.84.12-.57,0v-.35c.02-.26.02-.52,0-.78.02-.25.02-.5,0-.74v-.22c.01-.09.06-.18.14-.24.09-.06.2-.06.29,0l.1.1h0v.14h0v.1c-.04.05-.1.09-.16.12-.13.03-.26-.03-.33-.14,0-.25,0-.29-.1-.45-.09-.45-.22-.9-.37-1.33l.47-.18h0v.1h0c.01.13-.07.25-.2.27h-.22l-.14-.24-.22-.43-.47-.74.39-.27v.12h0c.04.07.04.16,0,.24-.25.31-.43,0-.39,0h0l-.16-.2-.29-.29c-.1-.1-.37-.39-.59-.59l.29-.31h.12c-.49.67-.2.16-.29.31h0l-.27-.18-.49-.31c-.29-.2-.6-.38-.92-.53l.16-.33h.16s.1.22,0,.27,0,0-.1,0h-.16l-.33-.12c-.2-.08-.4-.15-.61-.2-.19-.06-.38-.11-.57-.14h-.25c.12,0-.24.14,0-.29h.24v.27h-1.41v-.14h.33c.1,0,0,0,0,0h-.33c-.24.07-.49.1-.74.12.23-.12.47-.21.73-.25h.14s.1,0,0,0h-.22,1.82v.27h-.24c.24-.43-.14-.25,0-.29h.47l.59.14c.21.04.42.1.63.18l.33.1h0c-.12.49-.14.29-.16.33h-.18l.16-.33c.33.15.65.33.96.53l.53.29.27.18h0v.16s0-.14,0,0,0,0,0,0h0l-.16-.12.29-.31.63.57c0,.12.22.22.33.33l.14.18h-.14s0,0,0,0h0v.1h0v-.1l.39-.27.49.76.24.43s.14.12,0,.22l-.14.12h-.18v-.14l.47-.18c.18.46.33.93.45,1.41v.31h-.27s0,0,0,0c-.04-.02-.09-.02-.14,0h-.12.55v.14c.02.26.02.52,0,.78.02.27.02.55,0,.82,0,.07,0,.14,0,.22h-.57v-.14h.1c.1,0,.2,0,.18,0h.29v.2c0,.27-.14.57-.2.84s0,.29-.14.41v.2c-.78-.31-.49-.24-.53-.29h0l.57.25c-.31.53-.57,1.12-.96,1.67l-.53-.37.16-.18h.12s.12,0,.16.16,0,0,0,.1v.12h0l-.31.31c-.2.22-.41.43-.65.61h0c-.14-.12-.16-.22-.2-.2s0,0,0-.1l-.12-.18h0s.12.12,0,.14,0,.18.1.18,0-.1,0,0c0,.09.05.17.14.2h-.1l-.39.25-.8.43-.31-.61h.39c.27,0,.33.73.18.57h-.1l-.31.12-.63.18-.61.16h-.31s0,.16-.12-.29c0,0,0-.41,0-.37h-.47v.69c-.4.03-.81.03-1.21,0-.22.02-.43.02-.65,0h-.1c-.01-.11-.01-.22,0-.33,0-.1,0-.21,0-.31h.24c0,.06,0,.12,0,.18v.12c0,.12,0,0,0,0v.16c.01.06.01.12,0,.18h0c-.42-.07-.83-.18-1.23-.31l-.31-.1h-.18v-.14c0-.07,0-.13,0-.2.27-.53.14-.29.18-.35h.14v.37l-.18.29h-.61.22c.11-.02.2-.1.25-.2h-.27l-.25.33c-1-.54-2.23-.35-3.02.47-.73.93-.73,2.24,0,3.17.46.4,1,.71,1.59.9.64.22,1.3.41,1.96.55,1.33.27,2.69.31,4.04.12,3.04-.37,5.78-2,7.56-4.49,1.62-2.35,2.32-5.22,1.96-8.05-.29-2.57-1.51-4.94-3.43-6.66-1.63-1.53-3.68-2.54-5.88-2.92-1.82-.35-3.69-.19-5.43.45-.64.37-1.1.97-1.27,1.69-.13.6-.04,1.23.27,1.76.42.78,1.18,1.3,2.06,1.41.26.35.57.66.9.94Z"/>
  </g>
  <g id="freepik--documents-1--inject-2">
    <rect class="cls-7" x="683.06" y="428.77" width="55.79" height="21.99"/>
    <rect class="cls-4" x="680.74" y="425.01" width="175.19" height="4.61"/>
    <rect class="cls-4" x="681.55" y="449.78" width="174.39" height="4.61"/>
    <polygon class="cls-4" points="738.85 426.1 739.1 453.5 855.93 453.5 855.93 426.1 738.85 426.1"/>
    <path class="cls-9" d="M767.24,439.76c-.27,3.49-3.32,6.09-6.8,5.82-3.49-.27-6.09-3.32-5.82-6.8.26-3.29,2.99-5.83,6.29-5.84,3.62.15,6.45,3.19,6.33,6.82Z"/>
    <path class="cls-3" d="M760.91,447.56c-4.32.29-8.06-2.97-8.35-7.29-.29-4.32,2.97-8.06,7.29-8.35,4.32-.29,8.06,2.97,8.35,7.29.01.17.02.34.02.51.15,4.17-3.11,7.68-7.28,7.84,0,0-.02,0-.03,0ZM760.91,433.84c-3.23-.29-6.09,2.09-6.38,5.33-.29,3.23,2.09,6.09,5.33,6.38,3.23.29,6.09-2.09,6.38-5.33.02-.17.02-.34.02-.51.11-3.07-2.28-5.66-5.35-5.8v-.08Z"/>
    <path class="cls-9" d="M734.65,445.37c0,.27-11.46.51-25.59.51s-25.61-.24-25.61-.51,11.46-.51,25.61-.51,25.59.18,25.59.51Z"/>
    <path class="cls-9" d="M734.65,441.53c0,.29-11.46.51-25.59.51s-25.61-.22-25.61-.51,11.46-.51,25.61-.51,25.59.24,25.59.51Z"/>
    <path class="cls-9" d="M734.65,437.71c0,.27-11.46.51-25.59.51s-25.61-.24-25.61-.51,11.46-.51,25.61-.51,25.59.24,25.59.51Z"/>
    <path class="cls-9" d="M734.65,433.88c0,.27-11.46.51-25.59.51s-25.61-.24-25.61-.51,11.46-.51,25.61-.51,25.59.22,25.59.51Z"/>
    <rect class="cls-12" x="790.33" y="431.92" width="52.64" height="14.66"/>
    <path class="cls-3" d="M798.46,445.03c-.69-3.89-.69-7.87,0-11.76.69,3.89.69,7.87,0,11.76Z"/>
    <path class="cls-3" d="M805.49,445.03c-.69-3.89-.69-7.87,0-11.76.69,3.89.69,7.87,0,11.76Z"/>
    <path class="cls-3" d="M812.45,445.03c-.69-3.89-.69-7.87,0-11.76.69,3.89.69,7.87,0,11.76Z"/>
    <path class="cls-3" d="M819.41,445.03c-.69-3.89-.69-7.87,0-11.76.69,3.89.69,7.87,0,11.76Z"/>
    <path class="cls-3" d="M826.36,445.03c-.69-3.89-.69-7.87,0-11.76.69,3.89.69,7.87,0,11.76Z"/>
    <path class="cls-3" d="M833.34,445.03c-.69-3.89-.69-7.87,0-11.76.69,3.89.69,7.87,0,11.76Z"/>
    <path class="cls-9" d="M739.67,454.3c-.5-4.83-.67-9.69-.51-14.54-.16-4.86,0-9.72.51-14.56.5,4.84.67,9.7.51,14.56.17,4.85,0,9.71-.51,14.54Z"/>
    <polygon class="cls-5" points="845.41 490.61 845.41 483.4 694.62 483.72 685.9 483.72 685.9 490.71 694.62 490.71 694.62 533.88 857.48 533.88 857.48 490.61 845.41 490.61"/>
    <polygon class="cls-7" points="808.43 533.88 808.43 483.4 845.41 483.4 845.41 490.61 857.48 490.61 857.48 533.88 808.43 533.88"/>
    <path class="cls-3" d="M845.49,483.4c0,.29-35.41.51-79.07.51s-79.07-.22-79.07-.51,35.39-.51,79.07-.51,79.07.24,79.07.51Z"/>
    <path class="cls-3" d="M856.27,506.08c0,.29-36.06.51-80.52.51s-80.52-.22-80.52-.51,36.04-.51,80.52-.51,80.52.22,80.52.51Z"/>
    <path class="cls-3" d="M857.48,521.46c0,.29-36.33.51-81.13.51s-81.13-.22-81.13-.51,36.31-.51,81.13-.51,81.13.31,81.13.51Z"/>
    <path class="cls-3" d="M687.27,490.61c0-.27,35.41-.51,79.07-.51s79.07.24,79.07.51-35.39.51-79.07.51-79.07-.22-79.07-.51Z"/>
    <polygon class="cls-5" points="850 351.85 850 344.68 700.26 345 691.6 345 691.6 351.95 700.26 351.95 700.26 394.81 861.97 394.81 861.97 351.85 850 351.85"/>
    <polygon class="cls-7" points="813.27 394.81 813.27 344.68 850 344.68 850 351.85 861.97 351.85 861.97 394.81 813.27 394.81"/>
    <path class="cls-3" d="M850,344.68c0,.29-35.16.53-78.52.53s-78.5-.24-78.5-.53,35.14-.51,78.5-.51,78.52.24,78.52.51Z"/>
    <path class="cls-3" d="M860.77,367.2c0,.29-35.8.51-79.95.51s-79.95-.22-79.95-.51,35.78-.55,79.95-.55,79.95.27,79.95.55Z"/>
    <path class="cls-3" d="M861.97,382.56c0,.27-36.08.51-80.56.51s-80.54-.24-80.54-.51,36.06-.51,80.54-.51,80.56.27,80.56.51Z"/>
    <path class="cls-3" d="M692.97,351.85c0-.29,35.14-.51,78.5-.51s78.52.22,78.52.51-35.16.51-78.52.51-78.5-.24-78.5-.51Z"/>
    <rect class="cls-7" x="690.46" y="457.34" width="55.79" height="21.99"/>
    <rect class="cls-6" x="688.15" y="453.56" width="175.19" height="4.61"/>
    <rect class="cls-6" x="688.96" y="478.33" width="174.39" height="4.61"/>
    <polygon class="cls-6" points="746.25 454.66 746.51 482.07 863.34 482.07 863.34 454.66 746.25 454.66"/>
    <path class="cls-9" d="M774.65,468.33c-.27,3.49-3.32,6.09-6.8,5.82-3.49-.27-6.09-3.32-5.82-6.8.26-3.3,3.01-5.84,6.31-5.84,3.62.15,6.44,3.2,6.31,6.82Z"/>
    <path class="cls-3" d="M768.34,476.13c-4.32.3-8.06-2.95-8.37-7.27-.3-4.32,2.95-8.06,7.27-8.37,4.32-.3,8.06,2.95,8.37,7.27.01.18.02.35.02.53.14,4.17-3.12,7.68-7.29,7.84ZM768.34,462.42c-3.23-.3-6.1,2.07-6.4,5.3-.3,3.23,2.07,6.1,5.3,6.4,3.23.3,6.1-2.07,6.4-5.3.02-.17.02-.35.03-.52.1-3.06-2.27-5.64-5.33-5.8v-.08Z"/>
    <path class="cls-9" d="M742.06,473.92c0,.29-11.46.53-25.59.53s-25.61-.24-25.61-.53,11.46-.51,25.61-.51,25.59.24,25.59.51Z"/>
    <path class="cls-9" d="M742.06,470.1c0,.27-11.46.51-25.59.51s-25.61-.24-25.61-.51,11.46-.51,25.61-.51,25.59.24,25.59.51Z"/>
    <path class="cls-9" d="M742.06,466.28c0,.27-11.46.51-25.59.51s-25.61-.24-25.61-.51,11.46-.51,25.61-.51,25.59.22,25.59.51Z"/>
    <path class="cls-9" d="M742.06,462.44c0,.29-11.46.51-25.59.51s-25.61-.22-25.61-.51,11.46-.51,25.61-.51,25.59.24,25.59.51Z"/>
    <rect class="cls-12" x="797.73" y="460.5" width="52.64" height="14.66"/>
    <path class="cls-3" d="M805.94,473.66c-.69-3.89-.69-7.87,0-11.76.69,3.89.69,7.87,0,11.76Z"/>
    <path class="cls-3" d="M812.9,473.66c-.69-3.89-.69-7.87,0-11.76.69,3.89.69,7.87,0,11.76Z"/>
    <path class="cls-3" d="M819.86,473.66c-.69-3.89-.69-7.87,0-11.76.69,3.89.69,7.87,0,11.76Z"/>
    <path class="cls-3" d="M826.81,473.66c-.69-3.89-.69-7.87,0-11.76.69,3.89.69,7.87,0,11.76Z"/>
    <path class="cls-3" d="M833.73,473.66c-.69-3.89-.69-7.87,0-11.76.69,3.89.69,7.87,0,11.76Z"/>
    <path class="cls-3" d="M840.75,473.66c-.69-3.89-.69-7.87,0-11.76.69,3.89.69,7.87,0,11.76Z"/>
    <path class="cls-9" d="M747.04,482.87c-.5-4.83-.67-9.69-.51-14.54-.16-4.86,0-9.72.51-14.56.52,4.84.69,9.7.51,14.56.18,4.85,0,9.71-.51,14.54Z"/>
    <rect class="cls-7" x="690.46" y="399.39" width="55.79" height="21.99"/>
    <rect class="cls-6" x="688.15" y="395.61" width="175.19" height="4.61"/>
    <rect class="cls-6" x="688.96" y="420.38" width="174.39" height="4.61"/>
    <polygon class="cls-6" points="746.25 396.71 746.51 424.11 863.34 424.11 863.34 396.71 746.25 396.71"/>
    <path class="cls-9" d="M774.65,410.39c-.27,3.49-3.32,6.09-6.8,5.82-3.49-.27-6.09-3.32-5.82-6.8.26-3.3,3.01-5.84,6.31-5.84,3.62.15,6.44,3.2,6.31,6.82Z"/>
    <path class="cls-3" d="M768.34,418.19c-4.32.3-8.06-2.95-8.37-7.27-.3-4.32,2.95-8.06,7.27-8.37,4.32-.3,8.06,2.95,8.37,7.27.01.18.02.35.02.53.14,4.17-3.12,7.68-7.29,7.84ZM768.34,404.47c-3.23-.3-6.1,2.07-6.4,5.3-.3,3.23,2.07,6.1,5.3,6.4,3.23.3,6.1-2.07,6.4-5.3.02-.17.02-.35.03-.52.1-3.06-2.27-5.64-5.33-5.8v-.08Z"/>
    <path class="cls-9" d="M742.06,415.97c0,.29-11.46.51-25.59.51s-25.61-.22-25.61-.51,11.46-.51,25.61-.51,25.59.18,25.59.51Z"/>
    <path class="cls-9" d="M742.06,412.15c0,.27-11.46.51-25.59.51s-25.61-.24-25.61-.51,11.46-.51,25.61-.51,25.59.24,25.59.51Z"/>
    <path class="cls-9" d="M742.06,408.33c0,.27-11.46.51-25.59.51s-25.61-.24-25.61-.51,11.46-.51,25.61-.51,25.59.22,25.59.51Z"/>
    <path class="cls-9" d="M742.06,404.49c0,.29-11.46.51-25.59.51s-25.61-.22-25.61-.51,11.46-.51,25.61-.51,25.59.24,25.59.51Z"/>
    <rect class="cls-12" x="797.73" y="402.53" width="52.64" height="14.66"/>
    <path class="cls-3" d="M805.94,415.64c-.69-3.89-.69-7.87,0-11.76.69,3.89.69,7.87,0,11.76Z"/>
    <path class="cls-3" d="M812.9,415.64c-.69-3.89-.69-7.87,0-11.76.69,3.89.69,7.87,0,11.76Z"/>
    <path class="cls-3" d="M819.86,415.64c-.69-3.89-.69-7.87,0-11.76.69,3.89.69,7.87,0,11.76Z"/>
    <path class="cls-3" d="M826.81,415.64c-.69-3.89-.69-7.87,0-11.76.69,3.89.69,7.87,0,11.76Z"/>
    <path class="cls-3" d="M833.73,415.64c-.69-3.89-.69-7.87,0-11.76.69,3.89.69,7.87,0,11.76Z"/>
    <path class="cls-3" d="M840.75,415.64c-.69-3.89-.69-7.87,0-11.76.69,3.89.69,7.87,0,11.76Z"/>
    <path class="cls-9" d="M747.04,424.93c-.5-4.83-.67-9.69-.51-14.54-.17-4.86,0-9.72.51-14.56.52,4.83.69,9.7.51,14.56.18,4.85,0,9.71-.51,14.54Z"/>
  </g>
  <g id="freepik--Device--inject-2">
    <path class="cls-3" d="M203.52,424.54h119.34c3.92,0,7.72,2.06,8.33,6.29l15.89,97.47h62.71c2.2,0,3.98,1.78,3.98,3.98s-1.78,3.98-3.98,3.98h-200.47l-13.72-101.74c-.83-4.61,2.24-9.02,6.85-9.85.35-.06.71-.1,1.07-.12Z"/>
    <path class="cls-9" d="M203.52,424.54c-.7.04-1.39.15-2.06.33-1.95.6-3.6,1.93-4.61,3.7-.76,1.28-1.19,2.74-1.23,4.23-.01.87.06,1.73.22,2.59.12.88.24,1.82.37,2.8l1.82,13.36c2.74,20.13,6.68,49.13,11.5,84.66l-.2-.18h200.53c1.29,0,2.45-.78,2.96-1.96.8-1.5.55-3.34-.63-4.57-.56-.59-1.34-.95-2.16-.98h-63.18v-.22c-5.31-32.71-10.29-63.22-14.74-90.57-.27-1.72-.55-3.41-.82-5.09-.14-.84-.27-1.7-.43-2.51-.19-.8-.53-1.56-1-2.23-.97-1.32-2.35-2.28-3.92-2.72-.77-.25-1.57-.4-2.37-.45h-115.6,115.62c.85.04,1.68.2,2.49.45,1.66.47,3.12,1.48,4.13,2.88.49.72.84,1.53,1.06,2.37.18.86.29,1.69.43,2.53.27,1.69.55,3.39.84,5.09,4.47,27.43,9.46,57.89,14.8,90.57l-.24-.22h62.96c.95.05,1.85.46,2.51,1.16,1.32,1.39,1.62,3.47.73,5.17-.4.86-1.09,1.56-1.96,1.96-.44.18-.91.27-1.39.27h-200.82v-.18c-4.76-35.55-8.64-64.55-11.33-84.67-.67-5.03-1.26-9.49-1.78-13.38-.12-.98-.25-1.96-.37-2.8-.14-.86-.2-1.73-.18-2.61.06-1.51.5-2.99,1.27-4.29,1.03-1.8,2.71-3.12,4.7-3.7.5-.16,1.02-.24,1.55-.25l.51-.55Z"/>
    <path class="cls-12" d="M275.93,483.01c0,4.58-3.71,8.29-8.29,8.29-4.58,0-8.29-3.71-8.29-8.29,0-4.58,3.71-8.29,8.29-8.29h0c4.57-.01,8.28,3.68,8.29,8.25,0,.01,0,.03,0,.04Z"/>
    <path class="cls-9" d="M340.99,535.18c-.18,0-4.39-24.51-9.41-54.87-5.02-30.35-8.9-54.87-8.72-54.87s4.39,24.51,9.41,54.87c5.02,30.35,8.92,54.87,8.72,54.87Z"/>
  </g>
  <g id="freepik--sheets-1--inject-2">
    <rect class="cls-7" x="49.42" y="601.29" width="55.79" height="21.99"/>
    <rect class="cls-4" x="47.09" y="597.53" width="175.19" height="4.61"/>
    <rect class="cls-4" x="47.89" y="622.3" width="174.39" height="4.61"/>
    <polygon class="cls-4" points="105.19 598.63 105.46 626.02 222.27 626.02 222.27 598.63 105.19 598.63"/>
    <ellipse class="cls-9" cx="127.27" cy="612.29" rx="6.31" ry="6.82"/>
    <path class="cls-3" d="M127.27,620.09c-4.32.3-8.06-2.95-8.37-7.27-.3-4.32,2.95-8.06,7.27-8.37,4.32-.3,8.06,2.95,8.37,7.27.01.18.02.35.02.53.15,4.17-3.11,7.68-7.28,7.84,0,0,0,0,0,0ZM127.27,606.37c-3.23-.3-6.1,2.07-6.4,5.3s2.07,6.1,5.3,6.4,6.1-2.07,6.4-5.3c.02-.17.02-.35.03-.52.11-3.07-2.27-5.65-5.33-5.8v-.08Z"/>
    <path class="cls-9" d="M100.99,617.89c0,.27-11.46.51-25.59.51s-25.51-.24-25.51-.51,11.37-.41,25.47-.41,25.63.12,25.63.41Z"/>
    <path class="cls-9" d="M100.99,614.05c0,.29-11.46.51-25.59.51s-25.51-.22-25.51-.51,11.37-.49,25.47-.49,25.63.22,25.63.49Z"/>
    <path class="cls-9" d="M100.99,610.23c0,.27-11.46.51-25.59.51s-25.51-.24-25.51-.51,11.37-.59,25.47-.59,25.63.31,25.63.59Z"/>
    <path class="cls-9" d="M100.99,606.41c0,.27-11.46.51-25.59.51s-25.51-.24-25.51-.51,11.44-.51,25.59-.51,25.51.22,25.51.51Z"/>
    <rect class="cls-12" x="156.69" y="604.45" width="52.64" height="14.66"/>
    <path class="cls-3" d="M164.88,617.62c-.69-3.89-.69-7.87,0-11.76.69,3.89.69,7.87,0,11.76Z"/>
    <path class="cls-3" d="M171.83,617.62c-.69-3.89-.69-7.87,0-11.76.69,3.89.69,7.87,0,11.76Z"/>
    <path class="cls-3" d="M178.79,617.62c-.69-3.89-.69-7.87,0-11.76.69,3.89.69,7.87,0,11.76Z"/>
    <path class="cls-3" d="M185.77,617.62c-.69-3.89-.69-7.87,0-11.76.69,3.89.69,7.87,0,11.76Z"/>
    <path class="cls-3" d="M192.72,617.62c-.69-3.89-.69-7.87,0-11.76.69,3.89.69,7.87,0,11.76Z"/>
    <path class="cls-3" d="M199.68,617.62c-.69-3.89-.69-7.87,0-11.76.69,3.89.69,7.87,0,11.76Z"/>
    <path class="cls-9" d="M105.99,626.83c-.53-4.83-.71-9.69-.53-14.54-.18-4.86,0-9.73.53-14.56.5,4.84.67,9.7.51,14.56.17,4.85,0,9.71-.51,14.54Z"/>
    <polygon class="cls-5" points="218.02 634.69 218.02 627.47 51.02 627.79 41.38 627.79 41.38 634.78 51.02 634.78 51.02 677.93 231.37 677.93 231.37 634.69 218.02 634.69"/>
    <polygon class="cls-7" points="177.07 677.93 177.07 627.47 218.02 627.47 218.02 632.9 231.37 632.9 231.37 677.93 177.07 677.93"/>
    <path class="cls-3" d="M218.02,627.47c0,.27-39.19.51-87.56.51s-87.57-.24-87.57-.51,39.19-.51,87.57-.51,87.56.31,87.56.51Z"/>
    <path class="cls-3" d="M230.03,650.15c0,.27-39.92.51-89.16.51s-89.18-.24-89.18-.51,39.92-.51,89.18-.51,89.16.22,89.16.51Z"/>
    <path class="cls-3" d="M231.39,665.61c0,.27-40.23.51-89.85.51s-89.85-.24-89.85-.51,40.23-.51,89.85-.51,89.85.22,89.85.51Z"/>
    <path class="cls-3" d="M42.89,634.69c0-.29,39.19-.51,87.56-.51s87.57.22,87.57.51-39.19.51-87.57.51-87.56-.24-87.56-.51Z"/>
    <path class="cls-5" d="M55.77,793.12v64.47h-9.8v7h9.8v43.11h180.28v-39.19h-13.36v-8.56h13.36v-12.84h5.88v-5.88h-7.05v-48.11H55.77Z"/>
    <polygon class="cls-7" points="188.14 793.3 188.14 907.76 236.03 907.91 236.03 867.76 222.67 867.76 222.67 859.92 236.03 860.2 236.03 847.36 242.09 847.36 241.97 840.74 234.91 840.54 234.91 793.12 188.14 793.3"/>
    <path class="cls-3" d="M234.68,857.28c0,.29-41.9.51-93.55.51s-93.59-.22-93.59-.51,41.9-.51,93.59-.51,93.55.24,93.55.51Z"/>
    <path class="cls-3" d="M222.67,864.49c0,.27-39.19.51-87.56.51s-87.57-.24-87.57-.51,39.19-.51,87.57-.51,87.56.24,87.56.51Z"/>
    <path class="cls-3" d="M234.68,879.95c0,.27-39.92.51-89.16.51s-89.16-.24-89.16-.51,39.92-.51,89.16-.51,89.16.24,89.16.51Z"/>
    <path class="cls-3" d="M241.93,840.46c0,.27-41.56.51-92.81.51s-92.81-.24-92.81-.51,41.54-.51,92.81-.51,92.81.22,92.81.51Z"/>
    <path class="cls-3" d="M234.68,800.98c0,.27-39.92.51-89.16.51s-89.16-.24-89.16-.51,39.92-.51,89.16-.51,89.16.22,89.16.51Z"/>
    <path class="cls-3" d="M234.91,821.08c0,.27-39.82.51-88.95.51s-88.95-.24-88.95-.51,39.9-.51,88.89-.51,89.01.22,89.01.51Z"/>
    <path class="cls-3" d="M236.05,895.41c0,.27-40.23.51-89.85.51s-89.85-.18-89.85-.51,40.21-.51,89.83-.51,89.87.24,89.87.51Z"/>
    <rect class="cls-6" x="78.03" y="821.08" width="7.74" height="9.39"/>
    <rect class="cls-6" x="136.97" y="840.58" width="14.74" height="9.39"/>
    <path class="cls-5" d="M48.83,677.91v64.47h-9.64v7.02h9.64v43.11h180.28v-39.19h-13.36v-8.56h13.36v-12.82h5.88v-5.88h-7.05v-48.15H48.83Z"/>
    <polygon class="cls-7" points="181.3 678.09 181.3 792.55 229.19 792.73 229.19 752.56 215.83 752.56 215.83 744.72 229.19 744.99 229.19 732.16 235.25 732.18 235.13 725.53 228.07 725.34 228.07 677.91 181.3 678.09"/>
    <path class="cls-3" d="M227.84,742.07c0,.29-41.9.51-93.55.51s-93.59-.22-93.59-.51,41.9-.51,93.59-.51,93.55.24,93.55.51Z"/>
    <path class="cls-3" d="M215.83,749.28c0,.29-39.19.51-87.56.51s-87.57-.22-87.57-.51,39.19-.51,87.57-.51,87.56.24,87.56.51Z"/>
    <path class="cls-3" d="M227.84,764.74c0,.29-39.92.51-89.16.51s-89.16-.22-89.16-.51,39.92-.51,89.16-.51,89.16.22,89.16.51Z"/>
    <path class="cls-3" d="M235.13,725.26c0,.27-41.56.51-92.81.51s-92.81-.24-92.81-.51,41.54-.51,92.81-.51,92.81.24,92.81.51Z"/>
    <path class="cls-3" d="M227.84,685.77c0,.27-39.92.51-89.16.51s-89.16-.24-89.16-.51,39.92-.51,89.16-.51,89.16.24,89.16.51Z"/>
    <polygon class="cls-6" points="191.57 705.88 195.37 715.26 210.59 715.26 205.99 705.88 191.57 705.88"/>
    <path class="cls-3" d="M228.07,705.88c0,.27-39.82.51-88.95.51s-88.95-.24-88.95-.51,39.82-.51,88.95-.51,88.95.29,88.95.51Z"/>
    <path class="cls-3" d="M229.19,780.13c0,.29-40.23.51-89.85.51s-89.83-.22-89.83-.51,40.21-.51,89.83-.51,89.85.31,89.85.51Z"/>
    <rect class="cls-6" x="104.46" y="705.88" width="7.74" height="9.39"/>
    <path class="cls-9" d="M234.91,792.92c0,.27-41.99.51-93.77.51s-93.79-.24-93.79-.51,41.99-.53,93.79-.53,93.77.24,93.77.53Z"/>
    <path class="cls-9" d="M228.41,677.91c0,.27-40.52.51-90.51.51s-90.53-.24-90.53-.51,40.52-.51,90.53-.51,90.51.22,90.51.51Z"/>
  </g>
  <g id="freepik--Box--inject-2">
    <path class="cls-6" d="M271.21,809.87l-2.65,48.64c-.09,1.73-1.52,3.1-3.25,3.12l-87.57.65c-1.82.01-3.3-1.45-3.31-3.27h0s-.27-37.88-.27-37.88c-.02-1.81,1.43-3.29,3.23-3.31.01,0,.03,0,.04,0h53.87c.87,0,1.7-.34,2.31-.96l9.29-9.29c.62-.61,1.45-.95,2.31-.96l22.71-.16c1.81-.01,3.28,1.44,3.3,3.25,0,.06,0,.12,0,.18Z"/>
    <rect class="cls-5" x="174.28" y="811.77" width="95.69" height="57.18" transform="translate(-6.15 1.65) rotate(-.42)"/>
    <path class="cls-6" d="M277.42,816.5l-6.88,59.65c-.07,1.1-.98,1.95-2.08,1.96l-93.16.63c-1.11,0-2.03-.85-2.12-1.96l-5.13-59.59c-.11-1.15.74-2.18,1.89-2.28.06,0,.12,0,.19,0l105.27-.76c1.17.05,2.08,1.03,2.03,2.2,0,.06,0,.12-.01.17Z"/>
    <path class="cls-6" d="M296.97,800.7l-2.65,48.68c-.09,1.73-1.52,3.09-3.25,3.1l-87.57.65c-1.81.02-3.29-1.43-3.31-3.23,0-.01,0-.03,0-.04l-.29-37.88c0-1.82,1.47-3.3,3.29-3.31h53.87c.87,0,1.7-.35,2.31-.96l9.29-9.29c.61-.61,1.45-.96,2.31-.96l22.69-.18c1.82-.01,3.3,1.45,3.31,3.27,0,.05,0,.11,0,.16Z"/>
    <g class="cls-13">
      <path class="cls-2" d="M296.97,800.7l-2.65,48.68c-.09,1.73-1.52,3.09-3.25,3.1l-87.57.65c-1.81.02-3.29-1.43-3.31-3.23,0-.01,0-.03,0-.04l-.29-37.88c0-1.82,1.47-3.3,3.29-3.31h53.87c.87,0,1.7-.35,2.31-.96l9.29-9.29c.61-.61,1.45-.96,2.31-.96l22.69-.18c1.82-.01,3.3,1.45,3.31,3.27,0,.05,0,.11,0,.16Z"/>
    </g>
    <rect class="cls-5" x="200.04" y="802.59" width="95.69" height="57.18" transform="translate(-6.09 1.84) rotate(-.42)"/>
    <path class="cls-6" d="M303.19,807.31l-6.88,59.69c-.12,1.06-1.01,1.86-2.08,1.86l-93.26.69c-1.12.02-2.05-.84-2.12-1.96l-5.13-59.55c-.11-1.16.75-2.2,1.91-2.3.06,0,.11,0,.17,0l105.27-.76c1.17,0,2.12.93,2.13,2.1,0,.08,0,.17-.01.25Z"/>
    <g class="cls-13">
      <path class="cls-2" d="M303.19,807.31l-6.88,59.69c-.12,1.06-1.01,1.86-2.08,1.86l-93.26.69c-1.12.02-2.05-.84-2.12-1.96l-5.13-59.55c-.11-1.16.75-2.2,1.91-2.3.06,0,.11,0,.17,0l105.27-.76c1.17,0,2.12.93,2.13,2.1,0,.08,0,.17-.01.25Z"/>
    </g>
    <path class="cls-6" d="M326.02,812.09l-2.65,48.68c-.09,1.73-1.52,3.1-3.25,3.12l-87.59.65c-1.81,0-3.29-1.46-3.31-3.27l-.27-37.88c0-1.82,1.47-3.3,3.29-3.31h53.87c.87,0,1.7-.34,2.31-.96l9.29-9.29c.61-.61,1.45-.96,2.31-.96l22.69-.16c1.81-.02,3.29,1.42,3.31,3.23,0,.05,0,.11,0,.16Z"/>
    <rect class="cls-5" x="229.08" y="813.97" width="95.69" height="57.18" transform="translate(-6.17 2.05) rotate(-.42)"/>
    <path class="cls-6" d="M332.23,818.71l-6.88,59.69c-.07,1.1-.98,1.95-2.08,1.96l-93.26.69c-1.11,0-2.04-.85-2.14-1.96l-5.11-59.59c-.11-1.15.74-2.18,1.89-2.28.06,0,.12,0,.19,0l105.27-.76c1.17,0,2.12.94,2.12,2.11,0,.05,0,.11,0,.16Z"/>
    <path class="cls-4" d="M222.74,826.83v82.79h119.54v-82.79h-119.54ZM261.74,841.72c0-3.38,2.74-6.11,6.11-6.11h29.22c3.38,0,6.11,2.75,6.1,6.12,0,3.37-2.73,6.1-6.1,6.1h-29.22c-3.38,0-6.11-2.74-6.11-6.11Z"/>
    <path class="cls-9" d="M158.35,826.83v82.79h64.39v-82.79h-64.39Z"/>
  </g>
</svg>