<?xml version="1.0" encoding="UTF-8"?>
<svg id="Layer_2" data-name="Layer 2" xmlns="http://www.w3.org/2000/svg" viewBox="0 0 1000 1000">
  <defs>
    <style>
      .cls-1 {
        fill: #ff9a6c;
      }

      .cls-1, .cls-2, .cls-3, .cls-4, .cls-5, .cls-6, .cls-7, .cls-8, .cls-9, .cls-10, .cls-11, .cls-12 {
        stroke-width: 0px;
      }

      .cls-2 {
        fill: #000;
      }

      .cls-3 {
        fill: #e0e0e0;
      }

      .cls-4 {
        fill: #455a64;
      }

      .cls-5 {
        fill: #f5f5f5;
      }

      .cls-6 {
        fill: #09f;
      }

      .cls-7 {
        fill: #ebebeb;
      }

      .cls-8 {
        fill: #40bbff;
      }

      .cls-9 {
        fill: #263238;
      }

      .cls-10 {
        fill: #ffbf9d;
      }

      .cls-11 {
        fill: #fafafa;
      }

      .cls-13 {
        opacity: .3;
      }

      .cls-12 {
        fill: #fff;
      }
    </style>
  </defs>
  <g id="freepik--background-complete--inject-2">
    <path class="cls-3" d="M216.04,459.11l7.88,16c.42.83,1.21,1.39,2.13,1.51l17.64,2.56c1.51.22,2.56,1.62,2.35,3.14-.09.61-.37,1.17-.81,1.59l-12.78,12.44c-.66.63-.96,1.55-.79,2.45l3,17.57c.25,1.51-.76,2.94-2.27,3.19-.59.1-1.2,0-1.73-.27l-15.79-8.29c-.81-.42-1.77-.42-2.58,0l-15.79,8.29c-1.36.7-3.03.17-3.73-1.19-.28-.53-.37-1.14-.27-1.73l3-17.57c.15-.9-.15-1.81-.79-2.45l-12.78-12.44c-1.1-1.06-1.12-2.82-.06-3.92.43-.44.99-.73,1.59-.81l17.66-2.56c.92-.12,1.72-.68,2.13-1.51l7.9-16c.72-1.35,2.4-1.85,3.75-1.13.48.26.87.65,1.13,1.13Z"/>
    <path class="cls-3" d="M143.78,366.7l5.45,11.06c.27.57.82.97,1.45,1.04l12.21,1.79c1.05.16,1.77,1.13,1.61,2.18-.06.41-.25.79-.55,1.08l-8.84,8.52c-.45.44-.66,1.08-.55,1.7l2.13,12.14c.18,1.04-.53,2.03-1.57,2.21-.41.07-.83,0-1.2-.19l-10.93-5.73c-.56-.3-1.23-.3-1.79,0l-10.91,5.73c-.93.5-2.1.15-2.59-.79-.2-.38-.27-.81-.2-1.23l2.13-12.14c.12-.63-.09-1.27-.55-1.7l-8.9-8.48c-.75-.74-.76-1.96-.01-2.71.29-.29.67-.49,1.08-.55l12.21-1.79c.62-.08,1.16-.48,1.43-1.04l5.47-11.06c.46-.95,1.61-1.35,2.56-.89.37.18.68.48.87.85Z"/>
    <path class="cls-3" d="M538.74,80.89l3.77,7.67c.2.39.57.66,1,.72l8.52,1.21c.73.11,1.24.79,1.13,1.53-.04.29-.18.55-.38.75l-6.14,5.96c-.31.31-.44.75-.36,1.17l1.43,8.52c.13.72-.34,1.41-1.06,1.54-.29.05-.59,0-.86-.13l-7.56-3.98c-.39-.19-.85-.19-1.24,0l-7.56,3.98c-.66.34-1.47.08-1.81-.58-.13-.25-.18-.54-.13-.83l1.45-8.52c.08-.43-.06-.87-.38-1.17l-6.11-5.96c-.53-.52-.53-1.37-.01-1.9.2-.2.46-.34.74-.38l8.52-1.21c.43-.07.79-.34.98-.72l3.79-7.67c.37-.63,1.18-.84,1.81-.47.2.11.36.28.47.47Z"/>
    <path class="cls-3" d="M869.02,476.07l3.79,7.65c.18.4.56.68,1,.75l8.52,1.21c.72.11,1.22.78,1.11,1.5-.04.29-.18.56-.39.76l-6.11,5.99c-.32.3-.46.74-.38,1.17l1.45,8.52c.12.73-.38,1.42-1.11,1.54-.28.05-.57,0-.83-.13l-7.56-3.98c-.39-.19-.85-.19-1.24,0l-7.56,3.98c-.64.34-1.44.1-1.79-.55-.14-.26-.19-.56-.13-.86l1.45-8.52c.07-.43-.08-.86-.38-1.17l-6.14-5.99c-.52-.51-.54-1.34-.03-1.87.21-.21.48-.35.78-.39l8.52-1.21c.44-.07.81-.35,1-.75l3.77-7.65c.38-.62,1.19-.82,1.81-.44.18.11.33.26.44.44Z"/>
    <path class="cls-3" d="M781.57,440.74l6.24,12.65c.31.65.93,1.1,1.64,1.19l13.95,2.02c1.17.1,2.04,1.14,1.94,2.31-.05.55-.31,1.06-.72,1.42l-10.1,9.84c-.51.51-.75,1.23-.64,1.94l2.39,13.91c.26,1.15-.45,2.29-1.6,2.55-.54.12-1.1.03-1.57-.25l-12.53-6.45c-.63-.34-1.39-.34-2.02,0l-12.44,6.39c-1.01.61-2.32.28-2.92-.73-.28-.47-.37-1.04-.25-1.57l2.39-13.91c.11-.71-.13-1.43-.64-1.94l-10.1-9.84c-.89-.77-.98-2.12-.21-3.01.36-.42.87-.67,1.42-.72l13.95-2.02c.71-.1,1.33-.54,1.64-1.19l6.24-12.65c.46-1.08,1.72-1.58,2.8-1.12.52.22.94.65,1.14,1.18Z"/>
    <path class="cls-3" d="M145.4,595.26l4.6,9.12c.23.47.68.79,1.19.87l10.06,1.45c.87.13,1.47.95,1.34,1.82-.05.34-.21.65-.45.89l-7.29,7.09c-.38.35-.56.87-.47,1.38l1.73,10.03c.15.86-.42,1.68-1.28,1.83-.35.06-.71,0-1.02-.16l-8.99-4.73c-.46-.24-1.01-.24-1.47,0l-9.01,4.73c-.75.42-1.7.14-2.11-.61-.18-.32-.24-.69-.17-1.06l1.7-10.03c.11-.51-.06-1.03-.45-1.38l-7.29-7.09c-.63-.6-.66-1.6-.06-2.23.25-.26.58-.43.93-.48l10.08-1.45c.52-.08.96-.41,1.19-.87l4.49-9.12c.44-.75,1.4-1.01,2.15-.57.24.14.43.33.57.57Z"/>
    <rect class="cls-3" x="336.56" y="89.61" width="24.46" height="121.69" transform="translate(-1.49 3.5) rotate(-.57)"/>
    <rect class="cls-7" x="123.71" y="91.75" width="63.33" height="67.17" transform="translate(-.68 .84) rotate(-.31)"/>
    <rect class="cls-5" x="187.46" y="90.31" width="63.34" height="67.17" transform="translate(-1.23 2.2) rotate(-.57)"/>
    <path class="cls-3" d="M123.61,110.48c42.07.34,84.27,0,126.35-.6.37-.07.62-.42.55-.79-.05-.28-.27-.5-.55-.55-42.07-.23-84.25,0-126.33.79-.32,0-.58.26-.58.58s.26.58.58.58h-.02Z"/>
    <rect class="cls-7" x="84.2" y="157.93" width="115.06" height="54.75" transform="translate(-1 .77) rotate(-.31)"/>
    <rect class="cls-5" x="198.7" y="157.31" width="115.06" height="54.75" transform="translate(-1 1.39) rotate(-.31)"/>
    <path class="cls-3" d="M84.11,173.48c76.41.87,153.13,0,229.54-1.13.37-.07.62-.42.55-.79-.05-.28-.27-.5-.55-.55-76.44-.4-153.13-.36-229.56,1.32-.32,0-.58.26-.58.58s.26.58.58.58h.02Z"/>
    <rect class="cls-3" x="41.08" y="212.99" width="445.72" height="19.62"/>
    <rect class="cls-3" x="114.07" y="222.43" width="18.09" height="66.91"/>
    <rect class="cls-3" x="384.17" y="222.43" width="18.09" height="66.91"/>
    <rect class="cls-7" x="360.45" y="44.12" width="24.46" height="167.36" transform="translate(-1.26 3.73) rotate(-.57)"/>
    <rect class="cls-5" x="384.24" y="77.12" width="38" height="135.61" transform="translate(-.78 2.18) rotate(-.31)"/>
    <path class="cls-3" d="M421.62,103.18c0,.36-8.52.66-19,.66s-19-.3-19-.66,8.52-.66,19-.66,19,.3,19,.66Z"/>
    <path class="cls-3" d="M421.62,97.47c0,.38-8.52.66-19,.66s-19-.28-19-.66,8.52-.64,19-.64,19,.28,19,.64Z"/>
    <path class="cls-3" d="M421.62,192.27c0,.36-8.52.66-19,.66s-19-.3-19-.66,8.52-.66,19-.66,19,.3,19,.66Z"/>
    <path class="cls-3" d="M421.62,186.56c0,.36-8.52.66-19,.66s-19-.3-19-.66,8.52-.66,19-.66,19,.3,19,.66Z"/>
    <path class="cls-3" d="M403.23,174.14c-.36,0-.66-13.7-.66-30.57s.3-30.55.66-30.55.66,13.68.66,30.55-.38,30.57-.66,30.57Z"/>
    <rect class="cls-7" x="422.02" y="110.36" width="41.35" height="102.36"/>
    <path class="cls-3" d="M378.1,74.46c0,3.88-3.15,7.03-7.03,7.03s-7.03-3.15-7.03-7.03c0-3.88,3.15-7.03,7.03-7.03,0,0,.01,0,.02,0,3.87,0,7.01,3.14,7.01,7.01,0,0,0,.01,0,.02Z"/>
    <rect class="cls-3" x="368.91" y="93.8" width="4.35" height="99.55"/>
    <rect class="cls-11" x="653.59" y="129.12" width="300.67" height="268.99"/>
    <path class="cls-3" d="M954.26,398.12v-19.41c0-12.63,0-31.08-.17-54.6,0-46.99-.21-114.16-.34-194.99l.68.68h-300.65l.79-.79v268.99l-.7-.7,217.46.36,61.33.17h21.94-21.58l-61.18.17-218.25.79h-.72V128.25h.83l300.65.13h.68v.68c-.15,80.95-.28,148.31-.36,195.41,0,23.43-.13,41.86-.17,54.45v14.29c-.19,3.28-.23,4.9-.23,4.9Z"/>
    <path class="cls-3" d="M768.86,176.91c0,.45-15.83.81-35.34.81s-35.34-.36-35.34-.81,15.83-.79,35.34-.79,35.34.36,35.34.79Z"/>
    <path class="cls-3" d="M896.27,197.1c0,.45-43.48.81-97.1.81s-97.12-.36-97.12-.81,43.48-.79,97.12-.79,97.1.36,97.1.79Z"/>
    <rect class="cls-3" x="698.68" y="231.34" width="12.68" height="12.68"/>
    <rect class="cls-3" x="729.87" y="231.34" width="12.68" height="12.68"/>
    <rect class="cls-3" x="761.63" y="230.76" width="12.68" height="12.68"/>
    <rect class="cls-3" x="792.23" y="231.34" width="12.68" height="12.68"/>
    <rect class="cls-3" x="823.41" y="231.34" width="12.68" height="12.68"/>
    <rect class="cls-3" x="854.6" y="231.34" width="12.68" height="12.68"/>
    <rect class="cls-7" x="885.77" y="231.34" width="12.68" height="12.68"/>
    <rect class="cls-7" x="698.68" y="258.26" width="12.68" height="12.68"/>
    <rect class="cls-3" x="729.87" y="258.26" width="12.68" height="12.68"/>
    <rect class="cls-7" x="761.06" y="258.26" width="12.68" height="12.68"/>
    <rect class="cls-3" x="792.23" y="258.26" width="12.68" height="12.68"/>
    <rect class="cls-3" x="823.41" y="258.26" width="12.68" height="12.68"/>
    <rect class="cls-3" x="855.18" y="257.69" width="12.68" height="12.68"/>
    <rect class="cls-3" x="885.77" y="258.26" width="12.68" height="12.68"/>
    <rect class="cls-3" x="698.68" y="285.19" width="12.68" height="12.68"/>
    <rect class="cls-3" x="730.45" y="284.62" width="12.68" height="12.68"/>
    <rect class="cls-3" x="761.06" y="285.19" width="12.68" height="12.68"/>
    <rect class="cls-7" x="792.23" y="285.19" width="12.68" height="12.68"/>
    <rect class="cls-3" x="823.41" y="285.19" width="12.68" height="12.68"/>
    <rect class="cls-3" x="854.6" y="285.19" width="12.68" height="12.68"/>
    <rect class="cls-3" x="885.77" y="285.19" width="12.68" height="12.68"/>
    <rect class="cls-3" x="698.68" y="312.12" width="12.68" height="12.68"/>
    <rect class="cls-3" x="729.87" y="312.12" width="12.68" height="12.68"/>
    <rect class="cls-3" x="761.06" y="312.12" width="12.68" height="12.68"/>
    <rect class="cls-3" x="792.8" y="311.54" width="12.68" height="12.68"/>
    <rect class="cls-3" x="823.41" y="312.12" width="12.68" height="12.68"/>
    <rect class="cls-7" x="854.6" y="312.12" width="12.68" height="12.68"/>
    <rect class="cls-3" x="885.77" y="312.12" width="12.68" height="12.68"/>
    <rect class="cls-3" x="698.68" y="339.04" width="12.68" height="12.68"/>
    <rect class="cls-7" x="729.87" y="339.04" width="12.68" height="12.68"/>
    <rect class="cls-3" x="761.06" y="339.04" width="12.68" height="12.68"/>
    <rect class="cls-3" x="792.23" y="339.04" width="12.68" height="12.68"/>
    <rect class="cls-3" x="823.41" y="339.04" width="12.68" height="12.68"/>
    <rect class="cls-3" x="855.18" y="338.47" width="12.68" height="12.68"/>
    <rect class="cls-3" x="885.77" y="339.04" width="12.68" height="12.68"/>
    <path class="cls-7" d="M80.75,815.59v78.33h-13.08v8.52h13.08v52.36h244.45v-47.72h-18.11v-10.37h18.11v-15.59h8.01v-7.05h-9.57v-58.48H80.75Z"/>
    <polygon class="cls-3" points="260.29 815.81 260.29 953.98 325.2 953.98 325.2 906.26 307.09 906.26 307.09 896.76 325.2 897.08 325.2 881.48 333.4 881.5 333.25 873.45 323.69 873.2 323.69 815.59 260.29 815.81"/>
    <path class="cls-3" d="M264.91,901.29c0,.47-44.23.87-98.78.87s-98.8-.4-98.8-.87,44.22-.87,98.8-.87,98.78.38,98.78.87Z"/>
    <path class="cls-3" d="M264.91,893.33c0,.49-44.23.87-98.78.87s-98.8-.38-98.8-.87,44.22-.85,98.8-.85,98.78.38,98.78.85Z"/>
    <path class="cls-3" d="M277.61,871.92c0,.49-44.25.87-98.8.87s-98.78-.38-98.78-.87,44.22-.87,98.78-.87,98.8.4,98.8.87Z"/>
    <path class="cls-3" d="M278.82,930.27c0,.49-44.25.87-98.78.87s-98.8-.38-98.8-.87,44.22-.85,98.8-.85,98.78.38,98.78.85Z"/>
    <path class="cls-5" d="M112.47,685.07v74.24h-12.4v8.03h12.4v49.68h231.67v-45.18h-17.04v-9.84h17.04v-14.76h7.63v-6.71h-9.05v-55.39l-230.24-.06Z"/>
    <polygon class="cls-3" points="282.62 685.3 282.62 816.23 344.14 816.23 344.14 771.03 326.99 771.03 326.99 761.99 344.14 762.29 344.14 747.53 351.91 747.55 351.76 739.9 342.71 739.69 342.71 685.07 282.62 685.3"/>
    <path class="cls-3" d="M287,766.3c0,.47-41.92.83-93.63.83s-93.63-.36-93.63-.83,41.9-.81,93.73-.81,93.52.36,93.52.81Z"/>
    <path class="cls-3" d="M287,758.82c0,.47-41.92.83-93.63.83s-93.63-.36-93.63-.83,41.9-.81,93.73-.81,93.52.3,93.52.81Z"/>
    <path class="cls-3" d="M299.13,738.48c0,.45-41.9.81-93.61.81s-93.73-.36-93.73-.81,41.92-.83,93.73-.83,93.61.36,93.61.83Z"/>
    <path class="cls-3" d="M300.19,793.78c0,.45-41.92.81-93.63.81s-93.63-.36-93.63-.81,41.9-.83,93.63-.83,93.63.36,93.63.83Z"/>
    <path class="cls-7" d="M819.3,717.41c-12.68-6.52-27.69-7.37-41.67-5.05-7.56,1.24-15.44,3.51-20.58,9.18-5.13,5.67-6.11,15.68-.21,20.56,3.51,2.9,8.41,3.34,12.97,3.28,11.01-.13,23.24-2.13,31.95,4.56,5.01,3.77,8.35,10.08,14.36,11.93,6.01,1.85,12.48-1.64,15.62-6.94,2.86-5.52,3.49-11.92,1.77-17.89-1.43-8.39-6.68-15.65-14.21-19.62Z"/>
    <path class="cls-7" d="M848.32,661.38c-7.73,11.06-22.79,7.39-29.82.64-7.03-6.75-9.93-16.53-12.61-25.88-6.16-21.3-12.33-43.69-7.78-65.42,1.1-6.58,3.99-12.74,8.35-17.79,4.58-4.81,11.59-7.69,18-5.99,7.61,2,12.31,9.44,15.72,16.51,10.05,20.89,15.32,43.75,15.42,66.93,0,10.78-1.24,22.09-7.33,31"/>
    <path class="cls-7" d="M869.6,677.25c-8.52-9.99-10.01-24.54-6.26-37.05,3.75-12.5,12.21-23.16,21.94-31.85,11.47-10.21,24.82-18.08,39.3-23.18,5.61-2.27,11.64-3.29,17.68-3,6.15.33,11.74,3.69,14.91,8.97,4.13,7.88.17,17.47-4.11,25.27-7.57,13.75-16.2,26.89-25.82,39.3-7.73,9.97-16.6,19.81-28.4,24.33s-24.03,3.98-30.29-4.26"/>
    <path class="cls-3" d="M848.85,828.31c-.41-1.65-.65-3.33-.7-5.03-.36-3.66-.81-8.27-1.34-13.72-.68-6.76-1.71-13.48-3.09-20.13-1.79-8.1-4.24-16.04-7.31-23.75-3.01-7.7-7.09-14.94-12.12-21.49-4.11-5.34-9.34-9.71-15.34-12.78-4.07-2.01-8.44-3.37-12.93-4.03-1.69-.06-3.37-.3-5.01-.72,1.69-.19,3.4-.19,5.09,0,4.67.37,9.23,1.56,13.48,3.51,6.3,2.96,11.84,7.33,16.17,12.78,5.26,6.64,9.49,14.03,12.57,21.92,3.13,7.82,5.56,15.91,7.26,24.16,1.31,6.73,2.21,13.53,2.68,20.37.43,5.84.6,10.55.68,13.83.15,1.7.11,3.4-.11,5.09Z"/>
    <path class="cls-3" d="M847.91,817.74c-.15-.76-.2-1.54-.15-2.32v-6.67c0-5.79,0-14.19-.3-24.52-.51-20.71-2.3-42.97-5.73-74.37-3.26-29.53-7.63-63.91-12.25-86.23-1.01-5.1-1.98-9.65-2.92-13.66-.92-4.03-1.66-7.48-2.41-10.27s-1.15-4.79-1.56-6.5c-.24-.74-.38-1.52-.4-2.3.35.68.62,1.39.81,2.13l1.94,6.39c.85,2.77,1.73,6.2,2.73,10.2,1,4,2.13,8.52,3.24,13.61,5.74,26.48,10.05,53.24,12.91,80.18,3.45,31.46,5.01,60.12,5.13,80.95.13,10.37-.11,18.77-.36,24.56-.17,2.73-.3,4.92-.4,6.69-.03.71-.12,1.42-.28,2.11Z"/>
    <path class="cls-3" d="M847.76,762.48c-.19-2.32-.19-4.65,0-6.97.39-6.32,1.1-12.62,2.13-18.87,1.51-9.29,3.56-18.48,6.14-27.52,3-11.13,6.84-22.01,11.5-32.55,9.54-22.65,22.5-41.16,33.79-52.62,2.49-2.63,5.14-5.09,7.95-7.37,1.21-1.04,2.3-2.13,3.39-2.88l3.09-2.13c1.86-1.4,3.83-2.66,5.88-3.77.32.47-8.33,5.56-19.17,17.17-13.89,15.47-25.03,33.2-32.96,52.43-4.56,10.49-8.42,21.26-11.57,32.25-3,10.1-5.01,19.41-6.54,27.23-1.53,7.82-2.26,14.27-2.77,18.7-.09,2.32-.38,4.63-.85,6.9Z"/>
    <polygon class="cls-3" points="901.17 859.97 895.63 935.83 798.19 935.83 792.65 859.97 901.17 859.97"/>
    <rect class="cls-3" x="781.02" y="830.06" width="129.56" height="29.91"/>
    <polygon class="cls-7" points="910.58 932.93 910.58 941.22 904.49 941.22 783.15 941.22 783.15 932.93 910.58 932.93"/>
    <polygon class="cls-3" points="898.53 955.81 904.49 941.22 787.79 941.22 794.76 955.81 898.53 955.81"/>
    <path class="cls-5" d="M794.46,884.76c.12.25.27.49.45.7l1.45,1.92,5.69,7.26.26.34.23-.34c3.58-4.94,8.33-11.55,13.95-19.3h-.81l13.74,19.45.43.6.49-.55,16.28-19.39h-.94l.89,1.13c5.05,6.39,9.95,12.46,14.57,18.26l.47.62.47-.64,13.72-19.43h-.79l16.91,19.17.3.34.23-.38,5.3-8.9,1.36-2.36c.17-.26.3-.54.4-.83-.22.23-.41.48-.58.75l-1.49,2.28-5.56,8.73h.53l-16.66-19.51-.43-.49-.36.53-13.87,19.34h.94l-14.53-18.28-.89-1.13-.47-.58-.47.55-16.25,19.43h.92l-13.87-19.34-.4-.55-.4.55-13.66,19.51h.51l-5.92-7.07c-.64-.75-1.15-1.36-1.58-1.83s-.55-.58-.58-.55Z"/>
    <path class="cls-5" d="M791.22,859.48c0,.32,24.41.6,54.54.6s54.54-.28,54.54-.6-24.41-.62-54.54-.62-54.54.28-54.54.62Z"/>
    <path class="cls-5" d="M786.37,942.03c0,.34,26.54.62,59.26.62s59.29-.28,59.29-.62-26.54-.6-59.29-.6-59.26.28-59.26.6Z"/>
  </g>
  <g id="freepik--Table--inject-2">
    <path class="cls-9" d="M931.95,955.45c0,.32-188.91.55-421.8.55s-421.95-.23-421.95-.55,188.77-.64,421.82-.64,421.93.34,421.93.64Z"/>
  </g>
  <g id="freepik--character-2--inject-2">
    <path class="cls-9" d="M547.28,163.59c.92-16,10.76-25.84,24.56-34.08,14.11-8.21,31.34-9,46.14-2.13,9.69,4.6,18.17,12.48,28.8,13.85,17.51,2.26,34.08-13.97,51.28-9.91,12.27,2.77,19.96,14.97,17.19,27.23-2.07,9.17-9.56,16.12-18.85,17.5,11.46,1.68,17.96,16.17,13.72,26.97-4.24,10.8-16.28,17.04-27.86,17.3-11.59.26-22.73-4.49-32.74-10.31-10.01-5.82-19.39-12.78-29.82-17.81s-22.47-7.92-33.68-4.94c-15.15,4.03-25.9,18.34-29.82,33.53-3.92,15.19-2.26,31.23.11,46.74,2.36,15.51,5.35,31.14,3.86,46.87.11,1.86-.68,3.66-2.13,4.84-2.32,1.28-4.98-.92-6.71-2.96-19.47-23.07-34.22-49.73-43.42-78.48-5.28-16.64-8.2-32.81-1.85-49,6.35-16.19,27.69-31.74,41.22-25.14"/>
    <path class="cls-10" d="M532.52,240.97l25.56,158.15c4.79,29.53,23.99,58.05,70.3,48.36h0c39.56-11.44,36.62-39.9,31.46-75.01h0s43.54-11.33,39.64-55.6c-1.9-21.3-9.35-65.14-16.57-104.64-7.76-42.43-46.81-71.78-89.73-67.45l-4.26.43c-45.65,7.31-64.97,50.23-56.41,95.76Z"/>
    <path class="cls-1" d="M659.95,372.47s-27.69,4.43-59.29-11.23c0,0,17.36,32.89,61.1,24.46l-1.81-13.23Z"/>
    <path class="cls-9" d="M668.03,256.52c.34,3.41-2.06,6.48-5.45,6.97-3.29.6-6.44-1.57-7.04-4.86-.01-.06-.02-.11-.03-.17-.36-3.41,2.04-6.49,5.43-6.99,3.3-.6,6.46,1.58,7.07,4.88.01.06.02.11.03.17Z"/>
    <path class="cls-9" d="M675.72,234.87c-.7.89-5.86-2.13-12.65-1.45-6.8.68-11.42,4.6-12.25,3.83-.38-.32.26-1.9,2.26-3.69,2.74-2.33,6.13-3.77,9.71-4.11,3.53-.37,7.08.37,10.16,2.13,2.26,1.45,3.11,2.88,2.77,3.28Z"/>
    <path class="cls-9" d="M604.35,260.59c.36,3.41-2.04,6.49-5.43,6.99-3.3.6-6.46-1.59-7.06-4.89-.01-.07-.03-.15-.04-.22-.36-3.42,2.05-6.5,5.45-6.99,3.3-.59,6.45,1.61,7.04,4.91.01.07.02.13.03.2Z"/>
    <path class="cls-9" d="M609.04,242.86c-.7.89-5.84-2.13-12.63-1.45s-11.44,4.6-12.25,3.83c-.4-.34.23-1.9,2.26-3.71,2.74-2.33,6.13-3.76,9.71-4.09,3.53-.38,7.08.36,10.16,2.13,2.24,1.45,3.09,2.88,2.75,3.28Z"/>
    <path class="cls-9" d="M638.78,290.77c0-.38,4.07-1.53,10.82-3.09,1.73-.36,3.32-.87,3.49-2.13-.02-1.81-.6-3.56-1.66-5.03-2.06-4.02-4.19-8.28-6.39-12.78-9.03-18.09-15.74-33.04-15.02-33.4.72-.36,8.65,14.02,17.66,32.12,2.13,4.45,4.26,8.71,6.26,12.78,1.29,1.99,1.85,4.37,1.58,6.73-.37,1.3-1.34,2.34-2.6,2.81-.93.36-1.9.61-2.9.72-6.92,1.17-11.18,1.64-11.25,1.26Z"/>
    <path class="cls-9" d="M608.12,216.06c-.49,1.9-7.37,1.7-15.23,3.47-7.86,1.77-14.1,4.58-15.34,3.05-.55-.75.4-2.6,2.81-4.67,3.23-2.58,7.03-4.34,11.08-5.16,4.03-.9,8.21-.83,12.21.19,3.05.89,4.67,2.19,4.47,3.11Z"/>
    <path class="cls-9" d="M671.22,215.47c-1.02,1.66-5.88.53-11.5,1.02-5.62.49-10.29,2.13-11.55.58-.58-.75,0-2.36,1.96-4.03,5.36-4.16,12.71-4.67,18.6-1.3,2.13,1.38,2.96,2.92,2.49,3.73Z"/>
    <path class="cls-10" d="M539.42,273.35c-.79-.26-31.27-5.94-27.27,24.2,4,30.14,33.42,19.9,33.36,19.02s-6.09-43.22-6.09-43.22Z"/>
    <path class="cls-1" d="M534.8,306.39c-.15,0-.49.43-1.32.96-1.17.7-2.57.91-3.9.6-3.34-.75-6.71-5.45-7.56-10.86-.42-2.57-.26-5.21.47-7.71.31-1.99,1.59-3.69,3.41-4.54,1.21-.52,2.62-.06,3.3,1.07.53.79.4,1.41.58,1.45s.58-.6.17-1.81c-.26-.72-.77-1.33-1.43-1.73-.91-.52-1.99-.66-3-.38-2.45.83-4.29,2.87-4.88,5.39-.93,2.78-1.17,5.75-.7,8.65,1,6.05,4.88,11.31,9.39,11.99,1.7.26,3.43-.27,4.71-1.43.81-.83.87-1.62.77-1.64Z"/>
    <path class="cls-9" d="M679.43,170.98c-4.81-8.29-12.53-14.53-20.73-19.51-17.7-11-38.41-16.15-59.2-14.7-20.84,1.63-40.24,11.28-54.11,26.93-10.6,12.85-17.19,28.52-18.98,45.08-1.71,16.48-.14,33.13,4.64,49,1.98,6.99,4.67,14.17,10.18,18.9,3.45,2.94,9.01,4.56,12.31,1.45,1.72-2.06,2.71-4.64,2.81-7.33,3.47-23.92,6.69-49.57-4.11-71.19,4.77-8.32,11.21-15.57,18.9-21.3,7.8-5.7,17.56-8.05,27.1-6.52,13.89,2.81,23.43,15.08,35.19,23.11,17.07,11.55,38.66,14.18,58.01,7.07l-12.01-30.97Z"/>
    <path class="cls-1" d="M644.74,309.13c-.34,2.86-1.1,5.66-2.26,8.31-1.17,2.67-3.44,4.71-6.22,5.58-3.05.66-6.24-.29-8.41-2.54-2.14-2.23-3.51-5.09-3.92-8.16-.45-2.75.13-6.24,2.75-7.12,1.13-.29,2.3-.29,3.43,0l15.38,2.77"/>
    <path class="cls-9" d="M641.53,321.98c-.15-.43-3,1.47-7.75.64-2.68-.44-5.1-1.86-6.8-3.98-1.97-2.65-2.75-6-2.13-9.25.17-.82.44-1.61.81-2.36.43-.7.34-.66.96-.7s1.64.28,2.45.43l2.54.45c3.28.6,6.26,1.09,8.76,1.47,5.01.77,8.14,1.07,8.2.72s-2.92-1.28-7.84-2.51c-2.45-.6-5.39-1.3-8.65-2l-2.51-.55c-.93-.23-1.87-.41-2.81-.53-.75-.07-1.5.11-2.13.51-.56.39-1.01.93-1.3,1.56-.47.96-.81,1.98-1.02,3.03-.81,3.98.22,8.11,2.79,11.25,2.16,2.5,5.23,4.03,8.52,4.26,2.12.23,4.26-.13,6.18-1.04,1.28-.62,1.83-1.24,1.75-1.36Z"/>
    <path class="cls-4" d="M708.14,137.56c.28.64.49,1.31.6,2,.37,1.95.43,3.95.19,5.92-1,7.39-4.94,14.06-10.93,18.51-7.41,5.9-19.17,8.27-31.21,6.39-12.04-1.87-24.48-7.56-37.26-12.78-12.78-5.22-25.78-8.84-37.64-6.67-10.42,1.98-19.87,7.39-26.86,15.36-4.82,5.3-8.7,11.38-11.48,17.98-1.94,4.71-2.6,7.46-2.81,7.41.05-.72.18-1.44.38-2.13.46-1.91,1.03-3.8,1.7-5.65,2.57-6.83,6.35-13.15,11.16-18.64,7.09-8.37,16.82-14.09,27.59-16.21,12.29-2.36,25.88,1.3,38.73,6.63,12.85,5.33,24.92,11.12,36.77,12.78s22.96-.28,30.12-5.73c5.73-4.17,9.65-10.37,10.95-17.34.33-2.6.33-5.24,0-7.84Z"/>
    <path class="cls-4" d="M510.3,229.38c-.17-2.83.23-5.66,1.17-8.33,2.86-10.28,8.81-19.43,17.04-26.22,2.36-2.08,5.2-3.55,8.27-4.26,2.15-.46,4.4-.21,6.39.72,1.34.68,1.85,1.38,1.77,1.47-2.42-1.16-5.17-1.46-7.78-.83-4.73,1.21-10.06,6.39-14.91,12.27-4.05,5.23-7.22,11.09-9.37,17.34-1.77,4.71-2.26,7.88-2.58,7.84Z"/>
    <path class="cls-4" d="M518.29,255.45c.06-2.84.63-5.65,1.7-8.29,4.51-13.13,13.7-24.13,25.82-30.89,2.41-1.52,5.07-2.59,7.86-3.15-2.31,1.54-4.69,2.96-7.14,4.26-11.35,7.19-20.17,17.74-25.24,30.19-.86,2.68-1.87,5.31-3,7.88Z"/>
    <path class="cls-6" d="M680.62,426.11s32.32,41.69,40.09,57.35c7.78,15.66,63.5,188.66,63.5,188.66l-24.18,10.16-79.42-256.17Z"/>
    <polygon class="cls-7" points="550.61 387.08 550.61 366.18 668.03 404.38 699.47 454.72 723.71 525.04 655.76 422.89 550.61 387.08"/>
    <path class="cls-6" d="M543.62,407.17s-49.81,59.65-48.74,98.33c1.07,38.15,52.81,269.99,52.81,269.99l-12.53,41.43-13.57,138.09h282.26l-19.64-282.9c-3.13-.17-61.78-162.14-61.78-162.14l-65.76-91.16-108.11-38.96-4.94,27.31Z"/>
    <path class="cls-6" d="M758.72,604.74s19.75-.77,30.06,3.83c10.31,4.6,19.02,2.3,26.31,16.55,7.29,14.25,15.81,20.71,17.6,42.33s-21.56,71.73-36.98,78.82c-15.42,7.09-36.98-141.54-36.98-141.54Z"/>
    <g class="cls-13">
      <path class="cls-2" d="M537.91,602.78s115.4,108.33,130.08,118.68c14.68,10.35,16.85,75.86,34.94,77.12,18.09,1.26,76.69-42.09,76.69-42.09l-173.6-163.54-68.11,9.84Z"/>
    </g>
    <path class="cls-10" d="M700.41,699.77s-25.09,32.1-27.97,40.16c-2.88,8.05-5.67,13.4-2.6,16.08,2.26,2.4,5.77,3.14,8.8,1.85,4.09-1.58,24.26-28.18,24.26-28.18,0,0-26.76,38.15-27.97,44.74-1.21,6.58,4.03,9.78,10.16,8.63s17.81-18.38,17.81-18.38c0,0-16.55,19.17-13.06,22.41,3.49,3.24,7.52,3.64,12.12,1.34,4.6-2.3,16.28-17.43,16.28-17.43,0,0-8.05,8.52-3.64,10.65,4.41,2.13,4.79,2.34,8.63-.83,3.83-3.17,37.66-36.22,37.66-36.22l-21.3-14.61-39.18-30.21Z"/>
    <path class="cls-1" d="M710.7,719.39c-1.17,1.88-2.48,3.68-3.92,5.37l-9.8,12.78c-3.83,4.96-7.43,9.37-10.16,12.48-1.37,1.75-2.91,3.36-4.6,4.81,1.2-1.87,2.54-3.65,4-5.33l9.88-12.65c3.83-4.96,7.39-9.42,10.06-12.57,1.35-1.77,2.87-3.41,4.54-4.9Z"/>
    <path class="cls-1" d="M728.49,734.77c-4.17,5.78-8.64,11.34-13.38,16.66-4.47,5.55-9.22,10.87-14.23,15.93,4.16-5.78,8.63-11.34,13.38-16.66,4.47-5.55,9.22-10.87,14.23-15.93Z"/>
    <path class="cls-1" d="M742.74,744.42c-4.39,5.61-9.07,11-14.02,16.13-4.7,5.39-9.67,10.52-14.91,15.38,4.4-5.61,9.07-10.99,14.02-16.13,4.69-5.39,9.67-10.53,14.91-15.38Z"/>
    <path class="cls-6" d="M558.89,444.26c16.21-3.43,36.79-4.86,52.47,4.03l85.62,77.24s120.68,135.38,125.41,142.92,11.1,52.11-7.18,74.82c-18.28,22.71-38.9,13.97-62.33,8.63-18.55-4.26-148.31-99.59-201.65-139.19-18.54-13.65-31.9-33.17-37.92-55.39-4.07-14.29-5.51-29.2-4.26-44.01"/>
    <path class="cls-9" d="M509.07,513.41s0,.77-.15,2.24-.21,3.64-.26,6.52c0,8.38.84,16.74,2.51,24.95,1.16,5.93,2.72,11.77,4.69,17.49,2.4,6.78,5.54,13.28,9.35,19.39,4.37,6.99,9.57,13.43,15.49,19.17,6.2,6.22,13.91,11.46,21.73,17.3,31.44,23.16,68.92,50.66,111.12,80.38,10.65,7.41,21.43,14.91,32.61,22.5,11.18,7.58,22.69,15.21,34.81,22.24,3.03,1.75,6.15,3.33,9.35,4.73,1.62.67,3.29,1.17,5.01,1.51l5.2,1.26c6.91,1.94,13.95,3.37,21.07,4.26,7.19.89,14.48-.44,20.9-3.81,6.37-3.66,11.69-8.89,15.47-15.19,6.16-10.65,8.41-23.01,8.82-35,.24-6,0-12-.72-17.96-.36-2.94-.85-5.88-1.47-8.76-.53-2.85-1.5-5.6-2.88-8.16-3.49-4.6-7.46-9.03-11.18-13.46l-11.33-13.08-22.26-25.39-80.27-90.71h0l-85.51-77.37h0c-6.77-3.66-14.24-5.83-21.92-6.39-5.59-.45-11.21-.4-16.79.15-4.49.45-7.9,1.02-10.18,1.41l-2.56.47c-.58.11-.87.13-.87.13,0,0,1.15-.28,3.41-.75s5.67-1.04,10.18-1.53c5.6-.6,11.24-.7,16.85-.28,7.75.54,15.31,2.72,22.16,6.39h0l85.74,77.1h0c24.03,26.91,51.13,57.41,80.42,90.58l22.28,25.39,11.33,13.08c3.79,4.45,7.65,8.78,11.29,13.57.43.68.79,1.39,1.09,2.13.3.7.51,1.41.77,2.13.49,1.43.81,2.88,1.17,4.26.64,2.92,1.13,5.88,1.49,8.86.73,6.01.98,12.08.75,18.13-.43,12.1-2.68,24.63-8.99,35.53-3.86,6.48-9.33,11.85-15.87,15.59-6.61,3.46-14.11,4.83-21.52,3.92-7.2-.88-14.32-2.3-21.3-4.26l-5.2-1.26c-1.76-.36-3.49-.88-5.16-1.56-3.25-1.43-6.42-3.06-9.48-4.86-12.19-7.07-23.65-14.76-34.85-22.28-11.21-7.52-22.07-15.13-32.61-22.56-42.2-29.82-79.63-57.33-111.01-80.57-7.78-5.86-15.51-11.14-21.75-17.43-5.94-5.82-11.16-12.33-15.53-19.41-3.8-6.15-6.92-12.69-9.31-19.51-1.95-5.75-3.49-11.63-4.62-17.6-1.63-8.24-2.41-16.63-2.3-25.03.09-2.88.36-5.74.81-8.59Z"/>
    <path class="cls-9" d="M726.14,519.91l-.49-.3-1.36-1.02c-1.15-.92-2.98-2.13-5.11-4.03-4.41-3.58-10.44-9.14-17.66-16.23-7.22-7.09-15.57-15.81-25.07-25.22-4.77-4.67-9.78-9.59-15.25-14.36-5.56-5.02-11.47-9.64-17.68-13.83-2.6-1.87-5.41-3.3-8.03-4.9l-.38-.23v-.38c.45-1.94.89-3.86,1.32-5.73l.36.64-65.49-20.6-19.41-6.22-5.2-1.73-1.36-.47-.45-.19h.49l1.36.38,5.28,1.53,19.51,5.92,65.68,20.28.47.15-.11.49c-.43,1.87-.85,3.79-1.3,5.73l-.28-.6c2.66,1.62,5.52,3.07,8.12,4.94,6.26,4.21,12.2,8.86,17.79,13.93,5.5,4.81,10.5,9.76,15.27,14.46,9.46,9.48,17.75,18.21,24.9,25.37,7.16,7.16,13.08,12.78,17.38,16.47,2.13,1.92,3.86,3.22,4.98,4.26l1.3,1.09c.15.11.28.24.4.38Z"/>
    <path class="cls-9" d="M768.51,607.12c-.9-1.4-1.71-2.86-2.41-4.37l-6.16-12.23c-5.16-10.37-12.19-24.71-19.9-40.6-7.71-15.89-14.61-30.31-19.56-40.77-2.39-5.16-4.37-9.35-5.79-12.42-.62-1.38-1.13-2.51-1.51-3.41-.21-.38-.36-.79-.47-1.21.27.35.49.73.66,1.13.45.85,1.02,1.96,1.7,3.3,1.51,3.03,3.6,7.18,6.11,12.27,5.16,10.5,12.14,24.82,19.85,40.62l19.6,40.75,5.86,12.38c.74,1.48,1.41,3.01,2,4.56Z"/>
    <path class="cls-9" d="M569.06,840.81h.77l2.13.15,8.52.68,31.14,2.68,105.05,9.44-.6.66-6.84-27.44c-1.07-4.26-2.13-8.52-3.15-12.78l.49.43-117.59-13.66.36-.19c-6.9,12.25-12.23,22.11-15.7,28.99-1.73,3.43-2.98,6.11-3.75,7.97-.29.69-.53,1.4-.72,2.13-.07.24-.11.49-.11.75-.07-1.03.15-2.06.64-2.96.7-1.9,1.92-4.62,3.6-8.1,3.37-6.92,8.52-16.85,15.4-29.16l.13-.21h.23l117.64,13.27h.38v.38l3.15,12.78c2.3,9.37,4.58,18.55,6.75,27.35l.19.75h-.77l-105.26-9.84-31.04-3-8.31-.85-2.13-.23c-.2.04-.41.04-.62.02Z"/>
    <g class="cls-13">
      <polygon class="cls-2" points="572.87 841.18 577.92 854.3 716.54 862.57 716.54 854.3 572.87 841.18"/>
    </g>
  </g>
  <g id="freepik--character-1--inject-2">
    <path class="cls-9" d="M382.99,191.37c-32.11-15.61-56.92-4.62-68.81,5.47-11.89,10.09-18.67,24.99-22.57,40.08-3.9,15.09-5.24,30.7-8.27,45.9-1.9,8.79-3.15,17.71-3.76,26.68-1.28,13.03.25,36.12,7.34,47.14,6.81,10.58,14.06,19.96,24.93,26.44,3.88,2.33,8.47,4.74,12.72,3.19,3.09-1.1,5.11-4.04,6.88-6.8,32.16-50.15,56.77-104.76,73.02-162.07"/>
    <path class="cls-10" d="M338.56,444.15c.13-18.92.32-32.08.3-31.95s-33.94-7.84-40.77-56.24c-3.98-31.34-4.85-62.99-2.6-94.5,2.32-28.93,22.13-64.14,50.94-60.61l89.73,24.33c8.76,1.09,11.67,8.52,11.35,17.36l.66,4.13-6.58,138.21,2.83,58.77c-1.15,26.27-27.12,50.15-53.39,51.34h0c-27.64,1.31-51.11-20.04-52.42-47.68-.05-1.06-.07-2.11-.05-3.17Z"/>
    <path class="cls-9" d="M315.81,300.02c-.11,3.37,2.49,6.21,5.86,6.39,3.26.27,6.12-2.16,6.39-5.42,0-.02,0-.04,0-.06.11-3.37-2.49-6.21-5.86-6.39-3.26-.27-6.12,2.16-6.39,5.42,0,.02,0,.04,0,.06Z"/>
    <path class="cls-9" d="M307.65,283.25c.75.81,5.5-2.58,12.16-2.45,6.67.13,11.48,3.56,12.23,2.75.36-.36-.4-1.83-2.51-3.41-2.84-2.05-6.25-3.17-9.76-3.2-3.47-.08-6.87.95-9.71,2.94-2.05,1.53-2.77,2.98-2.41,3.37Z"/>
    <path class="cls-9" d="M378.16,299.29c-.11,3.37,2.49,6.21,5.86,6.39,3.26.27,6.12-2.16,6.39-5.42,0-.02,0-.04,0-.06.13-3.37-2.47-6.22-5.84-6.39-3.25-.29-6.11,2.11-6.4,5.35,0,.04,0,.08,0,.12Z"/>
    <path class="cls-9" d="M371.56,283.06c.77.81,5.52-2.58,12.19-2.45s11.48,3.56,12.23,2.75c.36-.36-.4-1.83-2.51-3.41-2.84-2.05-6.25-3.17-9.76-3.2-3.47-.07-6.87.96-9.71,2.94-2.07,1.53-2.79,2.98-2.43,3.37Z"/>
    <path class="cls-9" d="M344.82,333.44c0-.36-4.09-1.15-10.8-2.13-1.68-.21-3.3-.58-3.56-1.75-.12-1.75.3-3.5,1.21-5.01l5.26-12.89c7.31-18.32,12.61-33.4,11.87-33.68s-7.24,14.34-14.55,32.66c-1.77,4.52-3.45,8.82-5.05,12.95-1.11,2.03-1.47,4.38-1,6.65.47,1.23,1.49,2.18,2.75,2.56.94.27,1.92.42,2.9.45,6.75.47,10.93.58,10.97.19Z"/>
    <path class="cls-1" d="M338.86,412.22c22.73.73,45.21-4.86,64.95-16.15,0,0-16.89,33.81-65.14,28.46l.19-12.31Z"/>
    <path class="cls-9" d="M369.42,259.5c.79,1.77,7.35.45,15.23.85,7.88.4,14.32,2.13,15.23.4.4-.81-.81-2.43-3.47-4-7.17-3.87-15.73-4.22-23.2-.96-2.79,1.34-4.13,2.85-3.79,3.71Z"/>
    <path class="cls-9" d="M305.79,262.46c1.36,1.53,6.82,0,13.34,0s12.06,1.21,13.36-.34c.58-.77-.28-2.3-2.66-3.77-3.3-1.84-7.04-2.76-10.82-2.66-3.74-.03-7.42.96-10.65,2.85-2.36,1.6-3.15,3.15-2.56,3.92Z"/>
    <path class="cls-1" d="M346.4,349.8c2.89-4.19,7.85-6.45,12.91-5.9h.47c3.84,0,6.95,3.1,6.95,6.94,0,1.75-.65,3.43-1.84,4.72-1.67,1.93-3.91,3.3-6.39,3.9-3.17,1.02-6.62.63-9.48-1.07-2.87-1.83-3.98-5.47-2.62-8.59Z"/>
    <path class="cls-9" d="M365.04,339.77c-.32,0-.72,1.68-1.96,4.26-3.14,6.56-9.5,10.98-16.74,11.63-2.75.3-4.52,0-4.58.4s1.64,1.02,4.64,1.13c8.12.17,15.43-4.91,18.09-12.59.96-2.92.81-4.81.55-4.84Z"/>
    <path class="cls-10" d="M435.85,314.46c0-10.16,10.84-17.55,20.09-12.97,5.07,2.54,9.16,7.92,9.31,18.73.38,28.8-29.14,23.28-29.21,22.45s-.13-16.3-.19-28.21Z"/>
    <path class="cls-1" d="M444.84,331.63c.13,0,.53.34,1.38.72,1.23.48,2.6.48,3.83,0,3.09-1.17,5.62-6.03,5.69-11.23.04-2.47-.48-4.92-1.51-7.16-.61-1.82-2.06-3.23-3.9-3.79-1.21-.3-2.47.3-3,1.43-.38.81-.19,1.36-.34,1.43s-.64-.47-.43-1.66c.16-.72.56-1.36,1.13-1.83.8-.61,1.81-.89,2.81-.77,2.44.42,4.49,2.08,5.41,4.39,1.28,2.47,1.92,5.21,1.87,7.99,0,5.82-3.05,11.29-7.29,12.55-1.59.48-3.31.22-4.69-.7-.92-.66-1.07-1.3-.98-1.36Z"/>
    <path class="cls-4" d="M458.15,345.54c.18,5.55-4.16,10.2-9.71,10.38-5.55.18-10.2-4.16-10.38-9.71-.18-5.55,4.16-10.19,9.7-10.38,5.55-.19,10.2,4.15,10.4,9.7,0,0,0,0,0,.01Z"/>
    <path class="cls-8" d="M273.56,633.24c-2.41,1.6-28.97,8.03-35.41,24.95-6.43,16.91-40.6,51.25-15.87,84.79l51.28-28.44v-81.29Z"/>
    <path class="cls-9" d="M222.31,743.06h0c-4.33-5.71-7.21-12.38-8.39-19.45-.92-6.29-.54-12.7,1.11-18.83,3.05-12.16,9.97-23.43,15.53-32.64,2.91-4.43,5.46-9.09,7.63-13.93,5.26-13.83,23.97-20.66,31.95-23.58,1.18-.42,2.32-.91,3.43-1.49h0v81.42h0l-51.25,28.5ZM273.56,633.32c-1.11.52-2.25.97-3.41,1.36-7.97,2.9-26.65,9.74-31.95,23.43-2.16,4.85-4.71,9.52-7.63,13.95-5.56,9.12-12.48,20.45-15.51,32.61-1.65,6.11-2.03,12.5-1.11,18.77,1.17,7.03,4.03,13.68,8.33,19.36l51.13-28.42.15-81.08Z"/>
    <polygon class="cls-3" points="332.78 493.13 336.98 435.12 442.56 391.07 446.31 412.71 374.39 449.31 332.78 493.13"/>
    <path class="cls-8" d="M446.31,399.95s-64.68,26.16-93.37,51.72c-26.97,24.03-83.08,118.79-89.09,144.63-6.01,25.84-4.84,97.31-4.84,97.31,0,0-.15,73.75-.15,75.56s-46.25,120.77-37.86,185.63h263.79s7.82-91.35-10.2-126.8c-18.02-35.45-18.64-28.25-18.64-28.25,0,0,10.82-12.01,9.63-22.84-1.05-7.12-3.73-13.9-7.82-19.81l46.27-144.22s4.79-72.71-7.82-121.43c-11.76-45.55-16.23-42.97-30.93-57.56-.32-.3.19.4,0,0l-13.44-11.01-5.54-22.94Z"/>
    <path class="cls-8" d="M273.56,840.81c-.81-3.11,19.98-40.03,19.98-40.03l119.3,20.02,8.29,33.49-147.57-13.48Z"/>
    <path class="cls-9" d="M273.56,840.81h.79l2.13.15,8.52.68,31.17,2.73,104.96,9.39-.6.66c-2-8.12-4.11-16.64-6.26-25.29-.68-2.77-1.36-5.54-2.13-8.2l.45.4-119.19-20.2.38-.19c-6.9,12.23-12.21,22.11-15.68,28.97-1.75,3.43-3,6.14-3.77,7.99-.3.69-.55,1.4-.75,2.13-.13.49,0,.72,0,.75-.04-1.03.19-2.06.66-2.98.7-1.9,1.92-4.6,3.6-8.07,3.37-6.94,8.52-16.87,15.4-29.16l.13-.21h.26l119.3,19.83h.36v.34l2.02,8.2c2.13,8.67,4.26,17.19,6.26,25.31l.19.75h-.77l-105.24-9.84-31.04-3-8.33-.85-2.13-.23c-.24.02-.47,0-.7-.04Z"/>
    <g class="cls-13">
      <path class="cls-2" d="M248,783.53l2.66,21.6c19,13.46,45.89,10.91,66.23-.47,20.34-11.38,35.43-30.06,49.36-48.72,42.29-56.56,79.12-117.64,104.24-183.63-65.51,78.67-156.3,133.08-222.49,211.22Z"/>
    </g>
    <path class="cls-8" d="M461.03,460.98c22.13,17.62,41.43,72.75,7.16,120.4,0,0-149.76,203.19-174.56,219.42-24.8,16.23-58.18,6.67-67.72-17.17-9.54-23.84-5.73-46.74,7.63-62.95,13.36-16.21,101.13-170.76,101.13-170.76,0,0,20-71.62,54.11-92.41"/>
    <path class="cls-9" d="M388.73,457.49l-1.53,1.09c-1.53,1.02-3.01,2.13-4.43,3.3-5.43,4.66-10.28,9.95-14.44,15.76-11.03,15.04-23.43,39.67-33.36,72.43h0c-19.17,33.89-43.29,76.09-71.28,123.56-7.05,11.8-14.27,23.99-22.07,36.22-2.13,3.03-3.88,6.16-6.14,9.12-1.09,1.51-2.13,2.98-3.3,4.41-1.1,1.47-2.11,3-3.05,4.58-1.88,3.18-3.46,6.53-4.71,10.01-1.22,3.54-2.11,7.18-2.64,10.89-1.03,7.54-.71,15.2.96,22.62.43,1.87.87,3.75,1.47,5.58s1.21,3.66,1.87,5.47c.66,1.81,1.6,3.49,2.41,5.24l1.58,2.43c.5.83,1.07,1.61,1.7,2.34,5.01,6.11,11.66,10.67,19.17,13.14,7.53,2.56,15.57,3.26,23.43,2.02,7.26-1.18,14.16-4,20.17-8.24,5.54-4.74,10.7-9.9,15.44-15.44,9.67-10.86,18.81-21.92,27.69-32.85,17.72-21.9,34.4-43.35,50.21-63.91,15.81-20.56,30.65-40.13,44.5-58.52l19.98-26.67,9.37-12.59c3.03-4.13,6.18-8.05,8.69-12.23,5.16-7.74,9.16-16.18,11.89-25.07.58-2.13,1.15-4.26,1.7-6.26s.79-4.15,1.17-6.2c2.95-17.13,1.09-34.75-5.37-50.89-2.98-7.85-7.25-15.16-12.63-21.6-.96-1.09-1.73-2.13-2.51-2.83l-2.02-1.87c-1.09-1-1.62-1.56-1.62-1.56,0,0,.6.49,1.7,1.47l2.13,1.83c.83.72,1.6,1.75,2.58,2.81,5.46,6.42,9.78,13.73,12.78,21.6,4.92,12.44,7.25,25.74,6.86,39.11-.17,4.03-.58,8.05-1.24,12.04-.38,2.13-.6,4.26-1.15,6.24-.55,1.98-1.13,4.26-1.73,6.39-2.73,8.97-6.77,17.49-11.97,25.29-2.54,4.26-5.69,8.14-8.69,12.29l-9.35,12.61c-6.39,8.52-13.04,17.43-19.94,26.71-13.8,18.41-28.65,38.05-44.42,58.58-15.76,20.54-32.44,42.01-50.17,63.91-8.88,10.95-18,22.03-27.69,32.89-2.41,2.73-4.92,5.41-7.46,8.05-2.54,2.71-5.26,5.24-8.16,7.56-6.14,4.39-13.21,7.3-20.66,8.52-8.07,1.27-16.33.53-24.05-2.13-7.67-2.56-14.45-7.24-19.56-13.51-.67-.74-1.26-1.55-1.77-2.41l-1.62-2.49c-.83-1.81-1.81-3.56-2.49-5.41-.68-1.85-1.38-3.66-1.9-5.54-.51-1.87-1.04-3.77-1.47-5.67-2.66-11.3-2.06-23.12,1.73-34.08,1.29-3.54,2.9-6.96,4.81-10.2.98-1.6,1.98-3.17,3.11-4.67,1.13-1.49,2.26-2.94,3.3-4.41,2.13-2.9,4.09-6.05,6.11-9.05,7.78-12.21,15.02-24.37,22.09-36.22,28.01-47.31,52.15-89.47,71.51-123.3h0c9.93-32.79,22.58-57.37,33.74-72.43,4.2-5.82,9.12-11.09,14.64-15.68,1.44-1.16,2.94-2.24,4.49-3.24,1-.64,1.56-.96,1.56-.96Z"/>
    <path class="cls-10" d="M322.69,614.77s-3.86-10.08-11.57-11.42c-7.71-1.34-22.6,0-22.6,0,0,0-6.56,4.94-6.5,11.72,0,3.88.47,7.74,1.38,11.5,0,0-5.39-7.26-12.48-.38-7.09,6.88-13.31,20.83-13.31,20.83,0,0-9.44,3.03-13.04,7.61-2.54,3.67-4.47,7.72-5.73,11.99-4.78,3.29-7.3,8.99-6.52,14.74.86,6.08,4.59,11.38,10.01,14.25,0,0,28.14,20.73,31.57,18.04,3.43-2.68,10.48-6.9.36-15.87l-16.47-14.59,4.77-7.37s27.54,18.94,31.95,18.02c4.41-.92,11.93-1.07,8.84-7.86-3.09-6.8-28.82-26.61-28.82-26.61l3.05-10.65s29.82,20.15,34.66,16.94c4.84-3.22,9.22-4.73,4.26-11.38-4.96-6.65-26.46-22.52-26.46-22.52l8.8-8.22s20.81,3.64,23.84-8.78Z"/>
    <path class="cls-9" d="M451.76,422.89l-.75.21-2.13.6c-1.92.49-4.75,1.24-8.39,2.28-10.26,2.84-20.37,6.23-30.27,10.14-3.13,1.26-6.39,2.64-9.69,4.26-1.66.79-3.34,1.6-5.03,2.51-.83.47-1.7.89-2.54,1.38s-1.64,1-2.41,1.6c-6.5,5.36-12.47,11.33-17.85,17.81-11.67,13.48-23.58,29.12-35.77,45.69-12.19,16.57-23.43,32.72-33.55,47.44-5.05,7.37-9.78,14.4-14.17,21.03-4.17,6.05-7.94,12.36-11.31,18.9-4.68,9.57-8.64,19.47-11.84,29.63-1.17,3.6-2,6.39-2.56,8.31l-.62,2.13c-.06.26-.15.51-.26.75,0,0,0-.28.15-.77l.51-2.13c.49-1.92,1.26-4.75,2.34-8.37,3.07-10.23,6.94-20.2,11.57-29.82,3.34-6.58,7.09-12.95,11.25-19.04,4.26-6.67,9.08-13.72,14.08-21.11,10.06-14.76,21.3-30.87,33.51-47.51,12.21-16.64,24.14-32.23,35.9-45.74,5.44-6.52,11.49-12.5,18.09-17.85.79-.62,1.66-1.11,2.49-1.66s1.73-.92,2.58-1.38c1.68-.92,3.39-1.73,5.07-2.49,3.34-1.58,6.6-2.96,9.76-4.26,9.96-3.86,20.13-7.15,30.46-9.84,3.66-.98,6.52-1.64,8.52-2.13l2.13-.47c.24-.05.48-.08.72-.09Z"/>
    <path class="cls-9" d="M435.02,787.02c-1.15-.53-2.25-1.16-3.3-1.87-2.13-1.24-5.05-3.17-8.63-5.67-18.62-13.11-34.87-29.28-48.08-47.83-2.51-3.56-4.47-6.5-5.73-8.52-.7-1.05-1.33-2.16-1.87-3.3.79.96,1.51,1.97,2.13,3.05,1.36,2.02,3.41,4.88,6.01,8.37,13.49,18.2,29.64,34.27,47.91,47.65,3.49,2.58,6.39,4.6,8.39,5.94,1.11.65,2.17,1.37,3.17,2.17Z"/>
    <g class="cls-13">
      <polygon class="cls-2" points="277.44 841.18 281.04 854.3 416.06 853.85 277.44 841.18"/>
    </g>
    <path class="cls-9" d="M483.07,369.27c22.29-9.72,32.48-35.68,22.76-57.98-3.33-7.63-3.74-8.75-10.62-13.43-1.87-1.48-7.31-2.95-9.69-3.07-4.99.14-9.79.7-11.69,5.32l-13.83,33.32"/>
    <path class="cls-12" d="M499.48,354.64c-.17-.07.66-2.46,1.13-6.5.28-2.35.31-4.72.12-7.08-.32-2.85-.97-5.66-1.94-8.36-1.86-4.95-4.75-9.45-8.48-13.21-2.88-2.86-5-4.29-4.89-4.43.54.25,1.05.57,1.52.93,1.35.91,2.62,1.93,3.81,3.05,6.21,5.75,10.06,13.61,10.78,22.05.18,2.42.1,4.85-.25,7.25-.12.92-.3,1.83-.53,2.73-.14.69-.33,1.36-.57,2.02-.17.55-.4,1.07-.7,1.55Z"/>
    <path class="cls-9" d="M466.62,240.13c-8.59-20.49-24.99-37.04-43.78-48.87-10.08-6.34-21.24-11.58-33.12-12.48-11.89-.9-24.59,2.99-32.1,12.25l-2.05,2.34c14.62,29.18,25.09,53.96,43.48,80.94,6.77,9.92,10.9,44.44,12.9,56.28,6.86,40.39,29.8,56.86,29.8,56.86,48.01-1.92,33.46-126.83,24.87-147.31Z"/>
    <path class="cls-12" d="M472.01,348.88c-.03-.17-.04-.35-.01-.52l-.03-1.53c.09-.68.06-1.53.04-2.52l-.09-3.48c-.38-7.28-1.65-14.47-3.79-21.4-3.21-10.27-7.8-20.02-13.61-28.97-7.22-10.91-15.48-21.04-24.65-30.26-9.63-9.99-19.27-18.9-27.85-27.34-7.63-7.39-14.87-15.19-21.7-23.37-4.58-5.55-8.79-11.43-12.59-17.58-1.38-2.2-2.3-3.92-2.91-5.11l-.72-1.36c-.09-.15-.16-.31-.22-.48.12.14.22.28.31.44.19.34.45.77.78,1.3.66,1.18,1.71,2.87,3.06,5.03,3.88,6.06,8.14,11.85,12.75,17.35,6.89,8.11,14.18,15.85,21.84,23.2,8.57,8.4,18.25,17.34,27.92,27.31,9.21,9.26,17.48,19.45,24.7,30.42,5.82,9.03,10.37,18.88,13.53,29.23,2.08,6.99,3.26,14.25,3.51,21.57,0,1.3.02,2.45.01,3.47,0,1.02-.08,1.84-.13,2.51s-.07,1.15-.1,1.56c0,.18-.01.36-.06.53Z"/>
    <path class="cls-4" d="M467.36,255.01c-.49-1.56-1.13-3.07-1.91-4.51-1.02-1.66-2.27-3.16-3.71-4.45-1.93-1.72-4.05-3.21-6.33-4.42-4.93-2.83-11.43-5.12-18.26-8.28-6.83-3.16-14.37-6.86-21.98-11.16-13.03-7.34-25.47-15.71-37.22-25.03-4.5-3.6-8.03-6.63-10.43-8.77l-2.74-2.51c-.33-.28-.64-.59-.91-.93.37.23.71.49,1.04.78l2.83,2.38c2.47,2.12,6.07,5.01,10.6,8.56,11.83,9.12,24.28,17.36,37.27,24.67,7.61,4.3,15.04,8.04,21.9,11.2,6.86,3.16,13.25,5.55,18.23,8.49,2.27,1.27,4.39,2.81,6.3,4.6,1.44,1.36,2.67,2.93,3.66,4.66.35.61.66,1.25.92,1.9.21.49.38.99.5,1.51.12.43.2.87.24,1.31Z"/>
    <path class="cls-4" d="M473.69,300.83c.23.6.39,1.21.49,1.84.3,1.2.63,2.94.99,5.1.98,5.64,1.35,11.35,1.11,17.02-.16,3.12-.57,6.21-1.22,9.24-.55,2.46-1.27,4.87-2.15,7.21-.58,1.58-1.25,3.12-2,4.61-.23.56-.52,1.09-.87,1.58-.12-.06,1.04-2.41,2.41-6.42.8-2.34,1.46-4.74,1.98-7.18.6-3,.98-6.05,1.14-9.14.23-5.61-.06-11.26-.87-16.87-.3-2.04-.55-3.75-.77-5.11-.15-.61-.23-1.24-.24-1.86Z"/>
    <path class="cls-9" d="M359.13,189.06c-76.05-7.6-64.43,106.49-64.43,106.49h0c5.83-42.44,62.72-88.91,62.72-88.91l11.83-2.49-10.13-15.08Z"/>
    <path class="cls-4" d="M315.8,385.92l-.58-.29-1.69-.93c-2.14-1.21-4.21-2.53-6.19-3.97-3.12-2.29-6.04-4.81-8.75-7.54-3.62-3.62-6.85-7.58-9.63-11.83-7.31-11.06-11.77-23.63-13-36.65-1.31-15.97,1.63-31.97,8.52-46.46,3.48-7.5,7.86-14.58,13.05-21.1,4.89-6,10.21-11.65,15.92-16.92,5.4-5.07,10.72-9.72,15.65-14.1,4.92-4.38,9.42-8.55,13.39-12.47,6.33-6.16,11.92-12.98,16.67-20.35.8-1.33,1.57-2.46,2.14-3.52.56-1.06,1.01-1.93,1.4-2.66l.88-1.63c.09-.19.2-.38.33-.55-.06.21-.14.41-.25.6l-.79,1.64c-.36.76-.81,1.64-1.32,2.71-.51,1.07-1.29,2.24-2.07,3.59-4.66,7.48-10.21,14.41-16.54,20.63-3.96,3.97-8.39,8.18-13.35,12.58-4.96,4.4-10.18,9.11-15.56,14.15-5.67,5.26-10.95,10.9-15.81,16.86-5.13,6.49-9.47,13.53-12.92,20.99-6.78,14.36-9.66,30.17-8.38,45.97,1.17,12.91,5.53,25.38,12.71,36.38,4.81,7.42,10.92,13.99,18.04,19.41,2.58,1.86,4.6,3.26,6.07,4.09l1.68,1.02c.15.11.28.22.41.35Z"/>
  </g>
</svg>