<?xml version="1.0" encoding="UTF-8"?>
<svg id="Layer_2" data-name="Layer 2" xmlns="http://www.w3.org/2000/svg" viewBox="0 0 1000 1000">
  <defs>
    <style>
      .cls-1 {
        fill: #000;
      }

      .cls-1, .cls-2, .cls-3, .cls-4, .cls-5, .cls-6, .cls-7, .cls-8, .cls-9, .cls-10, .cls-11 {
        stroke-width: 0px;
      }

      .cls-2 {
        fill: #e0e0e0;
      }

      .cls-12 {
        opacity: .2;
      }

      .cls-3 {
        fill: #eb996e;
      }

      .cls-4 {
        fill: #455a64;
      }

      .cls-13 {
        opacity: .8;
      }

      .cls-5 {
        fill: #f5f5f5;
      }

      .cls-6 {
        fill: #09f;
      }

      .cls-7 {
        fill: #ffbe9d;
      }

      .cls-8 {
        fill: #ebebeb;
      }

      .cls-9 {
        fill: #263238;
      }

      .cls-10 {
        fill: #fafafa;
      }

      .cls-14 {
        opacity: .3;
      }

      .cls-11 {
        fill: #fff;
      }
    </style>
  </defs>
  <g id="freepik--background-complete--inject-5">
    <path class="cls-5" d="M720.54,893.79c-3.37-2.89-10.9-12.05-5.09-22.72,2.12-3.9,6.64-5.83,10.71-7.55,4.21-1.42,8.18-3.47,11.77-6.09,6.36-5.43,8.15-14.45,12.37-21.68,4.88-8.32,13.94-14.55,23.53-14.11,10.99.49,20.13,9.46,24.29,19.69,4.16,10.23,4.24,21.58,4.39,32.61,0,6.11-.23,13-4.71,17.12-4.14,3.8-10.35,3.84-15.95,3.67l-60-1.85"/>
    <path class="cls-2" d="M835.3,728.8h-157.8l28.43,169.49c1.2,7.21,6.45,13.08,13.47,15.08l.55.15c.47.13.93.28,1.4.36,1.06.21,2.14.34,3.22.38v.15h71.09c1.3,0,2.59-.14,3.86-.4,8.42-1.33,14.94-8.08,15.98-16.55l13.73-116.9.62-4.65h0l5.35-46.27.11-.85ZM805.6,836.99h-16.21l1.65-49.2h18.75l-4.2,49.2ZM811.37,787.8h15.51l-5.77,49.2h-13.92l4.18-49.2ZM765.1,891.52l-.98-42.73h23.34l-1.49,42.64-20.88.08ZM739.89,848.79h22.66l.98,42.73h-20.3l-3.33-42.73ZM741.65,891.52h-19.09c-1.8-11.54-4.24-26.52-6.7-42.73h22.38l3.42,42.73ZM738.98,836.99l-3.92-49.28h25.99l1.12,49.2-23.19.08ZM763.84,836.99l-1.21-49.28h26.75l-1.63,49.2-23.91.08ZM762.44,776l-1.06-45.55h29.98l-1.51,45.55h-27.41ZM760.87,776h-26.71l-3.52-45.55h29.13l1.1,45.55ZM732.66,776h-28.24l-2.8-17.59c-2.95-18.44-4.05-25.35-4.67-27.96h32.12l3.59,45.55ZM733.59,787.8l3.82,49.2h-23.34c-.78-4.99-1.57-10.03-2.38-15.08-1.82-11.63-3.65-23.23-5.37-34.11h27.26ZM712.5,836.99h-15.21l-8.25-49.2h15.72c2.33,15.13,5.01,32.04,7.68,49.11l.06.08ZM714.37,848.79c2.31,14.85,4.6,29.36,6.68,42.73h-14.62l-7.17-42.73h15.11ZM787.58,891.52l1.42-42.73h15.57l-3.76,42.64-13.24.08ZM791.42,776l1.51-45.55h21.77l-3.9,45.55h-19.37ZM695.53,730.45c.64,3.29,3.5,21.22,7.36,45.55h-15.83l-7.66-45.55h16.12ZM814.7,891.52h-12.2l3.65-42.73h13.56l-5.01,42.73ZM828.25,776h-15.89l3.9-45.55h17.33l-5.35,45.55Z"/>
    <path class="cls-2" d="M213.67,369.75s-.36-.66-.98-1.89l-2.74-5.47-10.31-20.83c-8.87-17.97-21.53-43.68-36.91-74.89l.62.21L22.05,336.1h0l.25-.74,50.47,103.3-.68-.23,102-49.62,29.09-14.09,7.85-3.61,1.99-.93.72-.32-.64.34-2.08.91-7.62,3.8-28.85,14.26-102.02,50.17-.45.23-.23-.47-50.56-103.23-.25-.51.51-.23h0l141.38-69.03.4-.19.19.4,36.62,75.34,10.06,20.83,2.61,5.45.85,1.82Z"/>
    <path class="cls-2" d="M163.13,266.47c-.01.19-.06.38-.13.55-.13.42-.3.95-.51,1.59-.49,1.49-1.17,3.52-2.12,6.09-1.85,5.37-4.48,12.96-7.72,22.32l-25.76,73.51-.72.34h-.3l-.34-.11-.68-.23-1.36-.45-2.67-.89-5.26-1.87-10.37-3.46-19.62-6.56-33.2-11.16-22.36-7.62-6.05-2.12-1.57-.57c-.19-.05-.37-.13-.53-.23.19.01.38.06.55.13l1.61.47,6.13,1.93,22.47,7.28,33.24,10.84,19.65,6.49,10.4,3.46,5.3,1.76,2.69.89,1.34.45.68.21.34.13h.3c-.3.15.72-.32-.66.36,10.2-28.64,19.43-54.54,26.14-73.4l8.08-22.04c.93-2.55,1.7-4.56,2.12-6l.62-1.57.28-.51Z"/>
    <path class="cls-2" d="M91.45,358.76c.3,0-3.73,18.18-9.02,40.46-5.28,22.28-9.82,40.31-10.12,40.2s3.76-18.18,9.04-40.46c5.28-22.28,9.8-40.29,10.1-40.2Z"/>
    <path class="cls-2" d="M215.15,370.51c-.13.25-17.1-8.06-37.91-18.58-20.81-10.52-37.57-19.28-37.42-19.56s17.12,8.04,37.93,18.58,37.53,19.28,37.4,19.56Z"/>
    <path class="cls-2" d="M912.69,381.88s.32-.51.95-1.42l2.84-4.01,10.82-15.15,39.18-54.57v.64l-109.05-78.77h0l.78-.13-54.21,74.85-.11-.7,78.33,56.98,22.36,16.34,5.96,4.37,1.53,1.15c.34.28.53.4.53.42l-.51-.34-1.53-1.06-5.94-4.24-22.42-16.06-78.84-56.75-.45-.21.3-.42,54.12-74.89.34-.45.45.32h0l108.94,78.94.36.25-.28.36-39.67,54.44c-4.73,6.36-8.49,11.48-10.97,14.96-1.23,1.68-2.12,2.97-2.86,3.86s-.98,1.29-.98,1.29Z"/>
    <path class="cls-2" d="M966.85,307.02c-.61.14-1.22.25-1.85.32l-5.28.74-19.45,2.48-64.22,7.83c-1.21-.89-.34-.28-.62-.49h0v-.51l-.11-.57-.23-1.17-.47-2.29c-.32-1.53-.62-3.06-.93-4.56-.59-3.01-1.21-5.98-1.78-8.91-1.17-5.83-2.31-11.48-3.37-16.84-2.12-10.61-4.05-20.37-5.66-28.51-1.61-8.15-2.82-14.62-3.71-19.26l-.95-5.24c-.13-.61-.22-1.23-.28-1.85.22.59.38,1.19.49,1.8.28,1.27.68,3.01,1.17,5.2l4.05,19.09c1.68,8.15,3.67,17.78,5.9,28.49,1.08,5.37,2.25,10.99,3.44,16.82.59,2.93,1.19,5.9,1.8,8.91.32,1.51.62,3.01.93,4.54l.47,2.31.23,1.15.11.59v.53c-.25-.19.62.47-.59-.4l64.26-7.49,19.5-2.12,5.3-.53c.62-.07,1.24-.09,1.87-.06Z"/>
    <path class="cls-2" d="M869.92,287.88c0,.3-14.85,3.97-33.18,8.21-18.33,4.24-33.37,7.43-33.46,7.13s14.85-3.97,33.2-8.21c18.35-4.24,33.37-7.43,33.44-7.13Z"/>
    <path class="cls-2" d="M912.75,383.26c-.3,0-1.36-15.51-2.33-34.67-.98-19.16-1.53-34.71-1.21-34.73s1.34,15.51,2.31,34.67c.98,19.16,1.53,34.71,1.23,34.73Z"/>
    <path class="cls-2" d="M698.82,770.46l1.65.64,4.71,1.95,17.88,7.47,64.32,27.05-.57.23,54.52-128.71h0l.3.74-88.36-37.59.66-.28-39.59,92.56c-4.86,11.31-8.7,20.28-11.37,26.46-1.32,3.03-2.33,5.39-3.06,7.02l-.78,1.82-.32.64s0-.21.23-.62.42-1.02.72-1.78l2.91-6.98,11.16-26.46c9.61-22.76,23.21-55.01,39.25-93.07l.19-.47.47.21,88.34,37.42.51.21-.23.51h0c-20.56,48.35-39.57,92.99-54.74,128.65l-.17.4-.4-.17-64.41-27.58-17.69-7.64-4.58-1.99-1.55-.66Z"/>
    <path class="cls-2" d="M787.22,807.99c-.09-.14-.16-.29-.21-.45-.15-.36-.32-.81-.55-1.34-.47-1.27-1.12-3.01-1.95-5.2-1.7-4.6-4.09-11.12-7.02-19.09l-22.79-63.26c.59-1.38.19-.38.32-.7h.15l.28-.13.55-.25,1.12-.51,2.23-1,4.39-1.99,8.61-3.88,16.27-7.32,27.58-12.35,18.63-8.23,5.09-2.12,1.34-.53c.32-.13.47-.17.47-.15l-.42.25-1.27.64-5.01,2.38-18.5,8.49-27.58,12.56-16.25,7.38-8.49,3.88-4.41,1.99-2.12,1.02-1.1.49-.57.25-.28.13h-.13c.11-.3-.32.7.25-.66,8.76,24.69,16.7,47.06,22.47,63.35,2.8,8.06,5.09,14.62,6.7,19.24.74,2.23,1.34,3.97,1.76,5.26.17.55.32,1,.45,1.38.02.15.02.31,0,.47Z"/>
    <path class="cls-2" d="M784.17,705.37c-.28.13-7.45-14.09-16-31.82-8.55-17.74-15.25-32.08-14.98-32.23s7.43,14.09,15.98,31.82c8.55,17.74,15.25,32.1,15,32.23Z"/>
    <path class="cls-2" d="M697.44,770.85c0-.3,15.4-4.94,34.58-10.37,19.18-5.43,34.86-9.61,34.86-9.29s-15.4,4.94-34.58,10.37-34.77,9.59-34.86,9.29Z"/>
    <rect class="cls-8" x="201.62" y="84" width="634.32" height="533.25"/>
    <path class="cls-2" d="M202.85,120.77c0-.3,141.46-.55,315.92-.55s316,.32,316,.55-141.42.55-315.94.55-315.98-.19-315.98-.55Z"/>
    <circle class="cls-2" cx="222.15" cy="101.74" r="6.79"/>
    <circle class="cls-2" cx="241.01" cy="101.74" r="6.79" transform="translate(95.54 319.16) rotate(-79.1)"/>
    <circle class="cls-2" cx="261.95" cy="101.74" r="6.79"/>
  </g>
  <g id="freepik--Floor--inject-5">
    <path class="cls-9" d="M948.59,915.45c0,.32-207.04.55-462.37.55s-462.49-.23-462.49-.55,207-.55,462.49-.55,462.37.25,462.37.55Z"/>
  </g>
  <g id="freepik--Screen--inject-5">
    <path class="cls-10" d="M811.43,673.87c0-3.88-.19-217.52-.47-547.14l.47.4H160.63l.55-.55v547.14l-.51-.49,650.86.49-650.86.49h-.55V126.03h651.88v.47c-.3,329.86-.57,543.49-.57,547.38Z"/>
    <rect class="cls-10" x="160.65" y="126.73" width="650.86" height="547.14"/>
    <rect class="cls-8" x="161.92" y="164.51" width="233.71" height="53.57"/>
    <path class="cls-9" d="M220.86,207.75v-7.36c0-4.75-.13-11.33-.23-19.26l.45.45h-38.76l.55-.55h0v26.54l-.51-.51,27.81.25,8.02.15h2.91c-.91.1-1.82.14-2.74.13l-7.91.13-28.13.25h-.49v-26.88h0c-.49.49.68-.68.57-.55h39.21v.45c0,8.06-.17,14.72-.23,19.54v5.3c-.11.66-.28,1.3-.51,1.93Z"/>
    <path class="cls-9" d="M220.86,181.04s-.45.62-1.38,1.57-2.31,2.29-4.03,3.95c-3.44,3.31-8.25,7.83-13.6,12.73-1.51,0-.42,0-.76,0h-.13l-.25-.23-.49-.47-1-.91-1.91-1.78-3.63-3.37-6.17-5.98c-1.72-1.65-3.1-2.99-4.05-3.95-.53-.46-.99-.99-1.38-1.57,0,0,.66.38,1.68,1.25,1.02.87,2.48,2.12,4.24,3.69l6.24,5.6,3.65,3.33,1.93,1.76,1,.91.49.47.25.21.13.13h-.68c5.35-4.92,10.23-9.36,13.81-12.52,1.78-1.57,3.25-2.84,4.24-3.69.54-.46,1.15-.84,1.8-1.12Z"/>
    <path class="cls-9" d="M195,192.9c-1.73,2.81-3.76,5.43-6.07,7.79-2.02,2.61-4.34,4.98-6.89,7.06,1.73-2.8,3.76-5.41,6.07-7.76,2.03-2.61,4.34-4.99,6.89-7.09Z"/>
    <path class="cls-9" d="M221.11,207.98c-2.5-2.23-4.75-4.73-6.7-7.45-2.24-2.5-4.21-5.24-5.86-8.17,2.51,2.23,4.75,4.74,6.7,7.47,2.25,2.49,4.21,5.22,5.86,8.15Z"/>
    <path class="cls-9" d="M368.79,190.35c0,.32-27.37.55-61.1.55s-61.08-.23-61.08-.55,27.35-.55,61.08-.55,61.1.25,61.1.55Z"/>
    <rect class="cls-6" x="392.66" y="402.46" width="418.85" height="91.78"/>
    <g class="cls-13">
      <rect class="cls-11" x="392.66" y="402.46" width="418.85" height="91.78"/>
    </g>
    <rect class="cls-6" x="419.6" y="431.15" width="34.39" height="34.39" rx="4.77" ry="4.77"/>
    <path class="cls-11" d="M434.2,455.97c-.46,0-.91-.15-1.27-.42l-6.94-5.22c-.99-.62-1.3-1.93-.68-2.92.62-.99,1.93-1.3,2.92-.68.11.07.21.14.3.23l5.41,4.05,10.86-11.8c.8-.86,2.14-.91,3-.12.86.8.91,2.14.12,3h0l-12.16,13.2c-.4.44-.97.68-1.57.68Z"/>
    <rect class="cls-6" x="392.66" y="310.22" width="418.85" height="91.78"/>
    <path class="cls-9" d="M808.99,402.34c0,.32-92.54.55-206.68.55s-206.68-.23-206.68-.55,92.52-.55,206.68-.55,206.68.25,206.68.55Z"/>
    <rect class="cls-6" x="392.89" y="585.93" width="418.85" height="87.94"/>
    <g class="cls-13">
      <rect class="cls-11" x="392.89" y="585.93" width="418.85" height="87.94"/>
    </g>
    <rect class="cls-6" x="419.82" y="614.64" width="34.39" height="34.39" rx="4.77" ry="4.77"/>
    <path class="cls-11" d="M434.41,639.48c-.46,0-.91-.15-1.27-.42l-6.94-5.22c-.94-.7-1.13-2.03-.42-2.97.7-.94,2.03-1.13,2.97-.42l5.41,4.07,10.86-11.8c.74-.91,2.07-1.06,2.98-.32.91.74,1.06,2.07.32,2.98-.06.07-.12.14-.18.2l-12.22,13.22c-.39.42-.93.67-1.51.68Z"/>
    <g class="cls-13">
      <rect class="cls-11" x="392.66" y="310.22" width="418.85" height="91.78"/>
    </g>
    <rect class="cls-6" x="419.6" y="338.9" width="34.39" height="34.39" rx="4.77" ry="4.77"/>
    <path class="cls-11" d="M434.2,363.74c-.46,0-.91-.15-1.27-.42l-6.94-5.22c-.99-.62-1.3-1.93-.68-2.92.62-.99,1.93-1.3,2.92-.68.11.07.21.14.3.23l5.41,4.05,10.86-11.8c.79-.86,2.13-.92,2.99-.13.87.79.93,2.13.14,3,0,0,0,.01-.01.02l-12.16,13.2c-.4.44-.97.68-1.57.68Z"/>
    <path class="cls-6" d="M811.43,673.87c0-3.88-.19-217.52-.47-547.14l.47.4H160.63l.55-.55v547.14l-.51-.49,650.86.49-650.86.49h-.55V126.03h651.88v.47c-.3,329.86-.57,543.49-.57,547.38Z"/>
    <path class="cls-6" d="M161.92,164.51c0-.32,145.13-.55,324.15-.55s324.19.23,324.19.55-145.11.55-324.19.55-324.15-.25-324.15-.55Z"/>
    <circle class="cls-6" cx="181.74" cy="144.91" r="6.96"/>
    <circle class="cls-6" cx="201.09" cy="144.91" r="6.96"/>
    <path class="cls-6" d="M227.48,139.99c2.72,2.72,2.72,7.12,0,9.84-2.72,2.72-7.12,2.72-9.84,0-2.72-2.72-2.72-7.12,0-9.84,2.72-2.72,7.12-2.72,9.84,0,0,0,0,0,0,0Z"/>
    <path class="cls-9" d="M247.1,239.57c.5-.06,1.01-.06,1.51,0l4.41-.13,16.17-.21h.21l.13.17,7.13,9.38.11.15v14.55h-36.62v-.57c0-4.79,0-9.06.13-12.73h0l4.96-7.79c.56-.98,1.18-1.93,1.87-2.82-.09.28-.22.56-.38.81l-1.21,2.12-4.58,7.83v-.19c0,3.61,0,7.87.11,12.73l-.47-.47h35.62l-.55.55v-13.83l.11.3-7-9.44.36.17-16-.21h-4.46c-.53-.07-1.04-.19-1.55-.36Z"/>
    <path class="cls-9" d="M276.27,249.71c-1,.27-2.04.41-3.08.42-1.95.17-4.75.36-8.08.57l.45-.47c-.08,1.77-.66,3.49-1.68,4.94-.55.8-1.28,1.47-2.12,1.95-.93.43-1.94.67-2.97.7-2.21.09-4.35-.81-5.83-2.46-1.22-1.46-2.04-3.2-2.38-5.07l.47.38c-3.1,0-5.69-.11-7.49-.19-.95.02-1.9-.09-2.82-.32.93-.2,1.87-.29,2.82-.25,1.8,0,4.39-.15,7.49-.21h.3v.4c.36,1.66,1.13,3.2,2.23,4.5,1.27,1.42,3.1,2.2,5.01,2.12.87,0,1.72-.2,2.5-.57.74-.38,1.37-.92,1.87-1.59.9-1.28,1.44-2.79,1.57-4.35v-.45h.4c3.35-.11,6.15-.17,8.13-.19,1.08-.09,2.16-.05,3.22.13Z"/>
    <path class="cls-9" d="M356.02,240.74c.59-.13,1.2-.19,1.8-.17v.34c-4.24.21-17.38.38-32.78.38-9.55,0-18.2,0-24.46-.17l-7.4-.17c-.91.03-1.82-.04-2.72-.21.89-.17,1.81-.24,2.72-.21l7.4-.17c6.26-.11,14.85-.17,24.46-.17,15.4,0,28.45.17,32.78.38v.34c-.61.03-1.21-.02-1.8-.17Z"/>
    <path class="cls-9" d="M356.02,254.63c.59-.15,1.2-.2,1.8-.17v.34c-4.24.21-17.38.38-32.78.38-9.55,0-18.2,0-24.46-.17l-7.4-.17c-.91.02-1.82-.05-2.72-.21.89-.17,1.8-.25,2.72-.23l7.4-.17c6.26,0,14.85-.15,24.46-.15,15.4,0,28.45.15,32.78.38v.34c-.61,0-1.21-.05-1.8-.17Z"/>
    <path class="cls-9" d="M356.02,268.51c.59-.13,1.2-.19,1.8-.17v.34c-4.24.23-17.38.38-32.78.38-9.55,0-18.2,0-24.46-.15l-7.4-.19c-.91.03-1.82-.04-2.72-.21.9-.16,1.81-.23,2.72-.21l7.4-.17c6.26-.11,14.85-.17,24.46-.17,15.4,0,28.45.17,32.78.38v.34c-.61.03-1.21-.02-1.8-.17Z"/>
    <path class="cls-9" d="M247.1,339.01c.5-.1,1-.14,1.51-.13l4.41-.11,16.17-.21h.21l.13.17,7.13,9.38.11.15v14.55h-36.62v-.47c0-4.79,0-9.06.13-12.73v-.11h0l4.96-7.79c.54-.92,1.15-1.79,1.8-2.63-.09.28-.22.56-.38.81l-1.21,2.12-4.5,7.87v-.19c0,3.61,0,7.87.11,12.73l-.47-.47h35.62l-.55.55v-13.83l.11.3-7-9.44.36.17-16-.21h-4.46c-.54-.11-1.06-.28-1.57-.49Z"/>
    <path class="cls-9" d="M276.27,349.09c-1,.27-2.04.41-3.08.42-1.95.17-4.75.36-8.08.57l.45-.47c-.08,1.77-.66,3.49-1.68,4.94-.55.8-1.28,1.47-2.12,1.95-.93.43-1.94.67-2.97.7-2.21.09-4.35-.81-5.83-2.46-1.22-1.46-2.04-3.2-2.38-5.07l.47.38c-3.1,0-5.69-.11-7.49-.19-.95.03-1.9-.06-2.82-.28.93-.2,1.87-.29,2.82-.28l7.49-.19h.3v.4c.36,1.66,1.13,3.2,2.23,4.5,1.27,1.42,3.1,2.2,5.01,2.12.87,0,1.72-.2,2.5-.57.74-.38,1.37-.92,1.87-1.59.9-1.28,1.44-2.79,1.57-4.35v-.45h.4c3.35,0,6.15-.17,8.13-.19,1.07-.11,2.16-.08,3.22.08Z"/>
    <path class="cls-9" d="M356.02,340.11c.59-.13,1.2-.19,1.8-.17v.34c-4.24.21-17.38.38-32.78.38-9.55,0-18.2,0-24.46-.17l-7.4-.17c-.91.03-1.82-.04-2.72-.21.89-.17,1.81-.24,2.72-.21l7.4-.17c6.26-.11,14.85-.17,24.46-.17,15.4,0,28.45.17,32.78.38v.34c-.61.02-1.21-.04-1.8-.17Z"/>
    <path class="cls-9" d="M356.02,354.01c.59-.15,1.2-.2,1.8-.17v.3c-4.24.21-17.38.38-32.78.38-9.55,0-18.2,0-24.46-.17l-7.4-.17c-.91.02-1.82-.05-2.72-.21.89-.17,1.8-.25,2.72-.23l7.4-.17c6.26-.11,14.85-.15,24.46-.15,15.4,0,28.45.15,32.78.38v.34c-.6.02-1.21-.02-1.8-.13Z"/>
    <path class="cls-9" d="M356.02,367.88c.59-.13,1.2-.19,1.8-.17v.34c-4.24.23-17.38.38-32.78.38-9.55,0-18.2,0-24.46-.15l-7.4-.19c-.91.03-1.82-.04-2.72-.21.9-.16,1.81-.23,2.72-.21l7.4-.17c6.26-.11,14.85-.17,24.46-.17,15.4,0,28.45.17,32.78.38v.34c-.61.03-1.21-.02-1.8-.17Z"/>
    <path class="cls-9" d="M247.1,438.38c.5-.1,1-.14,1.51-.13l4.41-.11,16.17-.21h.21l.13.17,7.13,9.38.11.15v14.55h-36.62v-.47c0-4.79,0-9.06.13-12.73h0l4.96-7.79c.54-.92,1.15-1.79,1.8-2.63-.09.28-.22.56-.38.81l-1.21,2.12-4.58,7.83v-.19c0,3.61,0,7.87.11,12.73l-.47-.47h35.62l-.55.55v-13.83l.11.3-7-9.44.36.17-16-.21h-4.46c-.51-.14-1.01-.32-1.49-.55Z"/>
    <path class="cls-9" d="M276.27,448.46c-1,.27-2.04.41-3.08.42-1.95.17-4.75.36-8.08.57l.45-.47c-.08,1.77-.66,3.49-1.68,4.94-.55.8-1.28,1.47-2.12,1.95-.93.43-1.94.67-2.97.68-2.21.11-4.36-.79-5.83-2.44-1.22-1.46-2.04-3.2-2.38-5.07l.47.38c-3.1,0-5.69,0-7.49-.19-.95.03-1.9-.06-2.82-.28.93-.2,1.87-.29,2.82-.28l7.49-.19h.3v.4c.36,1.66,1.13,3.2,2.23,4.5,1.27,1.42,3.1,2.2,5.01,2.12.87,0,1.72-.2,2.5-.57.74-.38,1.37-.92,1.87-1.59.9-1.28,1.44-2.79,1.57-4.35v-.45h.4c3.35-.13,6.15-.17,8.13-.19,1.07-.11,2.16-.08,3.22.08Z"/>
    <path class="cls-9" d="M356.02,439.48c.59-.13,1.2-.19,1.8-.17v.34c-4.24.21-17.38.38-32.78.38-9.55,0-18.2,0-24.46-.17l-7.4-.17c-.91.03-1.82-.04-2.72-.21.89-.17,1.81-.24,2.72-.21l7.4-.17c6.26-.11,14.85-.17,24.46-.17,15.4,0,28.45.17,32.78.38v.34c-.61.02-1.21-.04-1.8-.17Z"/>
    <path class="cls-9" d="M356.02,453.38c.59-.15,1.2-.2,1.8-.17v.34c-4.24.21-17.38.38-32.78.38-9.55,0-18.2,0-24.46-.17l-7.4-.17c-.91.02-1.82-.05-2.72-.21.89-.17,1.8-.25,2.72-.23l7.4-.17c6.26-.11,14.85-.15,24.46-.15,15.4,0,28.45.15,32.78.38v.34c-.61,0-1.21-.05-1.8-.17Z"/>
    <path class="cls-9" d="M356.02,467.25c.59-.13,1.2-.19,1.8-.17v.34c-4.24.23-17.38.38-32.78.38-9.55,0-18.2,0-24.46-.15l-7.4-.19c-.91.03-1.82-.04-2.72-.21.9-.16,1.81-.23,2.72-.21l7.4-.17c6.26,0,14.85-.17,24.46-.17,15.4,0,28.45.17,32.78.38v.34c-.61.03-1.21-.02-1.8-.17Z"/>
    <path class="cls-6" d="M777.74,374.39h-16.17c-3.51.06-6.41-2.74-6.47-6.26,0-.04,0-.07,0-.11v-26.94h2.12v26.86c0,2.34,1.9,4.24,4.24,4.24.04,0,.07,0,.11,0h16.17c2.34,0,4.24-1.9,4.24-4.24v-25.93h2.12v25.93c.05,3.51-2.76,6.4-6.28,6.45-.03,0-.06,0-.09,0Z"/>
    <rect class="cls-6" x="752.45" y="341.24" width="34.41" height="2.12"/>
    <path class="cls-6" d="M763.4,342.3h-2.12v-2.35c0-2.34,1.9-4.24,4.24-4.24h8.49c2.34,0,4.24,1.9,4.24,4.24v1.89h-2.12v-1.89c0-1.17-.95-2.12-2.12-2.12h-8.49c-1.17,0-2.12.95-2.12,2.12v2.35Z"/>
    <path class="cls-6" d="M764.76,366.46c-.54-3.01-.73-6.07-.55-9.12-.18-3.04,0-6.1.55-9.1.56,3,.74,6.06.55,9.1.19,3.05,0,6.12-.55,9.12Z"/>
    <path class="cls-6" d="M769.74,366.46c-.54-3.01-.73-6.07-.55-9.12-.18-3.04,0-6.1.55-9.1.56,3,.74,6.06.55,9.1.19,3.05,0,6.12-.55,9.12Z"/>
    <path class="cls-6" d="M774.77,366.46c-.54-3.01-.73-6.07-.55-9.12-.18-3.04,0-6.1.55-9.1.56,3,.74,6.06.55,9.1.19,3.05,0,6.12-.55,9.12Z"/>
    <path class="cls-6" d="M777.74,461.38h-16.17c-3.57-.01-6.46-2.9-6.47-6.47v-26.86h2.12v26.86c0,2.4,1.95,4.35,4.35,4.35h16.17c2.36-.06,4.24-1.99,4.24-4.35v-25.93h2.12v25.93c.06,3.51-2.74,6.41-6.26,6.47-.04,0-.07,0-.11,0Z"/>
    <rect class="cls-6" x="752.45" y="428.2" width="34.41" height="2.12"/>
    <path class="cls-6" d="M763.4,429.26h-2.12v-2.35c0-2.34,1.9-4.24,4.24-4.24h8.49c2.34,0,4.24,1.9,4.24,4.24v1.89h-2.12v-1.89c0-1.17-.95-2.12-2.12-2.12h-8.49c-1.17,0-2.12.95-2.12,2.12v2.35Z"/>
    <path class="cls-6" d="M764.76,453.42c-.74-6.05-.74-12.17,0-18.22.74,6.05.74,12.17,0,18.22Z"/>
    <path class="cls-6" d="M769.74,453.42c-.74-6.05-.74-12.17,0-18.22.74,6.05.74,12.17,0,18.22Z"/>
    <path class="cls-6" d="M774.77,453.42c-.74-6.05-.74-12.17,0-18.22.74,6.05.74,12.17,0,18.22Z"/>
    <path class="cls-6" d="M777.74,652.55h-16.17c-3.51.06-6.41-2.74-6.47-6.26,0-.04,0-.07,0-.11v-26.86h2.12v26.86c0,2.34,1.9,4.24,4.24,4.24.04,0,.07,0,.11,0h16.17c2.34,0,4.24-1.9,4.24-4.24v-26.01h2.12v25.93c.05,3.51-2.76,6.4-6.28,6.45-.03,0-.06,0-.09,0Z"/>
    <rect class="cls-6" x="752.45" y="619.39" width="34.41" height="2.12"/>
    <path class="cls-6" d="M763.4,620.45h-2.12v-2.38c0-2.34,1.9-4.24,4.24-4.24h8.49c2.34,0,4.24,1.9,4.24,4.24v1.91h-2.12v-1.91c0-1.17-.95-2.12-2.12-2.12h-8.49c-1.17,0-2.12.95-2.12,2.12v2.38Z"/>
    <path class="cls-6" d="M764.76,644.61c-.74-6.05-.74-12.17,0-18.22.74,6.05.74,12.17,0,18.22Z"/>
    <path class="cls-6" d="M769.74,644.61c-.74-6.05-.74-12.17,0-18.22.74,6.05.74,12.17,0,18.22Z"/>
    <path class="cls-6" d="M774.77,644.61c-.74-6.05-.74-12.17,0-18.22.74,6.05.74,12.17,0,18.22Z"/>
    <path class="cls-9" d="M786.52,274.15c-.08-.65-.11-1.31-.11-1.97v-5.41c0-4.73-.15-11.31-.23-19.26l.45.45-38.85.11.55-.55h0v26.52l-.51-.51,27.79.25,8.04.13h2.91c-.91.05-1.83.05-2.74,0l-7.91.15-28.13.25h-.51v-27.03h0c-.49.49.68-.68.55-.57l38.78.13h.45v.42c0,8.06-.17,14.74-.21,19.54,0,2.12,0,3.97-.13,5.3-.01.69-.08,1.38-.19,2.06Z"/>
    <path class="cls-9" d="M786.52,247.51c-.39.58-.85,1.11-1.38,1.57-.95.95-2.33,2.31-4.05,3.97-3.44,3.31-8.23,7.81-13.6,12.73h-.76l-.13-.13-.23-.23-.51-.45-.98-.91-1.93-1.78-3.61-3.37-6.09-5.77c-1.72-1.65-3.1-3.01-4.03-3.97-.53-.46-.99-.99-1.38-1.57.6.36,1.16.77,1.68,1.25,1.02.87,2.48,2.12,4.24,3.71l6.24,5.58,3.67,3.33,1.93,1.78.98.89.51.47.25.23h.13c-.34,0,.76,0-.74,0,5.35-4.94,10.25-9.36,13.81-12.52,1.8-1.59,3.27-2.84,4.24-3.71.53-.44,1.11-.81,1.74-1.1Z"/>
    <path class="cls-9" d="M760.66,259.43c-1.75,2.78-3.79,5.37-6.09,7.72-2.02,2.61-4.34,4.98-6.89,7.06,1.72-2.82,3.75-5.43,6.07-7.79,2.03-2.59,4.35-4.94,6.92-7Z"/>
    <path class="cls-9" d="M786.76,274.45c-2.5-2.23-4.74-4.73-6.7-7.45-2.23-2.5-4.19-5.23-5.83-8.15,2.5,2.23,4.74,4.73,6.7,7.45,2.24,2.49,4.2,5.22,5.83,8.15Z"/>
    <path class="cls-9" d="M808.99,218.08c0,.3-92.54.55-206.68.55s-206.7-.28-206.7-.55,92.52-.55,206.68-.55,206.7.25,206.7.55Z"/>
    <path class="cls-9" d="M808.99,310.22c0,.3-92.54.55-206.68.55s-206.7-.25-206.7-.55,92.52-.55,206.68-.55,206.7.23,206.7.55Z"/>
    <path class="cls-9" d="M808.99,492.59c0,.3-92.54.55-206.68.55s-206.7-.25-206.7-.55,92.52-.55,206.68-.55,206.7.23,206.7.55Z"/>
    <path class="cls-9" d="M808.99,585.93c0,.32-92.54.55-206.68.55s-206.68-.23-206.68-.55,92.52-.55,206.68-.55,206.68.25,206.68.55Z"/>
    <path class="cls-9" d="M449.24,282s.47,0,1.27-.3c1.17-.37,2.14-1.19,2.72-2.27.83-1.38.4-3.44.47-5.77s0-4.99,0-7.89v-12.2c.07-.85,0-1.7-.21-2.52-.55-1.66-2.05-2.81-3.8-2.91h-25.31c-2.03.02-3.76,1.46-4.14,3.46-.15,1.95,0,4.24,0,6.36v17.82c-.06.86-.01,1.72.13,2.57.18.8.59,1.54,1.17,2.12.56.53,1.25.91,1.99,1.1.76.13,1.54.17,2.31.13h4.6l13.85.17,3.78.11c.44-.01.88.03,1.32.11-.44.06-.88.06-1.32,0l-3.78.11-13.85.19h-4.6c-.84.06-1.69.02-2.52-.13-1.89-.43-3.38-1.88-3.86-3.76-.18-.92-.24-1.86-.17-2.8v-21c-.07-1.11-.07-2.22,0-3.33.51-2.47,2.69-4.25,5.22-4.24h25.2c2.14.15,3.97,1.57,4.65,3.61.24.93.33,1.89.25,2.84v23.34c.03.95-.2,1.9-.66,2.74-.67,1.13-1.76,1.96-3.03,2.29-.54.18-1.12.2-1.68.06Z"/>
    <path class="cls-9" d="M449.24,557.31s.47,0,1.27-.3c1.17-.37,2.14-1.19,2.72-2.27.83-1.38.4-3.44.47-5.77s0-4.99,0-7.89v-12.2c.07-.85,0-1.7-.21-2.52-.55-1.66-2.05-2.81-3.8-2.91h-25.31c-2.02.01-3.75,1.45-4.14,3.44-.15,1.97,0,4.24,0,6.36v17.8c-.06.86-.02,1.73.13,2.59.17.81.58,1.54,1.17,2.12.55.54,1.24.92,1.99,1.1.76.15,1.54.2,2.31.15h4.6l13.85.17,3.78.11c.44-.05.88-.05,1.32,0-.43.09-.87.13-1.32.11l-3.78.11-13.85.17h-4.6c-.84.06-1.69.02-2.52-.13-1.89-.43-3.38-1.88-3.86-3.76-.18-.93-.24-1.88-.17-2.82v-20.98c-.07-1.11-.07-2.22,0-3.33.47-2.52,2.66-4.34,5.22-4.35h25.2c2.14.15,3.97,1.57,4.65,3.61.24.93.33,1.89.25,2.84v23.34c.03.95-.2,1.9-.66,2.74-.66,1.14-1.76,1.96-3.03,2.27-.53.21-1.11.28-1.68.21Z"/>
    <path class="cls-9" d="M392.56,666v-73.45c0-45.36.55-108.03,1.19-177.25.64-69.23,1.12-131.87,1.53-177.27.15-22.66.25-41.01.34-53.74,0-6.36,0-11.22.13-14.6v-5.09,73.43c-.11,45.36-.55,108.05-1.21,177.27-.66,69.23-1.12,131.85-1.51,177.25-.15,22.66-.25,41.01-.34,53.74,0,6.36,0,11.22-.13,14.62v3.8c0,.91,0,1.29,0,1.29Z"/>
    <path class="cls-9" d="M628.79,347.18c0,.3-31.82.55-71.2.55s-71.2-.25-71.2-.55,31.82-.55,71.2-.55,71.2.23,71.2.55Z"/>
    <path class="cls-9" d="M717.79,362.87c0,.32-51.81.55-115.69.55s-115.71-.23-115.71-.55,51.81-.55,115.71-.55,115.69.3,115.69.55Z"/>
    <path class="cls-9" d="M628.79,531.98c0,.3-31.82.55-71.2.55s-71.2-.25-71.2-.55,31.82-.55,71.2-.55,71.2.23,71.2.55Z"/>
    <path class="cls-9" d="M717.79,547.68c0,.3-51.81.55-115.69.55s-115.71-.25-115.71-.55,51.81-.55,115.71-.55,115.69.25,115.69.55Z"/>
    <path class="cls-9" d="M628.79,258.37c0,.32-31.82.57-71.2.57s-71.2-.25-71.2-.57,31.82-.55,71.2-.55,71.2.25,71.2.55Z"/>
    <path class="cls-9" d="M717.79,274.09c0,.3-51.81.55-115.69.55s-115.71-.25-115.71-.55,51.81-.55,115.71-.55,115.69.25,115.69.55Z"/>
    <path class="cls-9" d="M628.79,437.72c0,.3-31.82.55-71.2.55s-71.2-.25-71.2-.55,31.82-.55,71.2-.55,71.2.25,71.2.55Z"/>
    <path class="cls-9" d="M717.79,453.42c0,.32-51.81.55-115.69.55s-115.71-.23-115.71-.55,51.81-.55,115.71-.55,115.69.25,115.69.55Z"/>
    <path class="cls-9" d="M628.79,619.66c0,.3-31.82.55-71.2.55s-71.2-.25-71.2-.55,31.82-.55,71.2-.55,71.2.21,71.2.55Z"/>
    <path class="cls-9" d="M717.79,635.36c0,.3-51.81.55-115.69.55s-115.71-.25-115.71-.55,51.81-.55,115.71-.55,115.69.25,115.69.55Z"/>
    <rect class="cls-2" x="762.34" y="176.07" width="28.03" height="28.03"/>
    <rect class="cls-2" x="716.7" y="176.07" width="28.03" height="28.03"/>
    <rect class="cls-2" x="671.07" y="176.07" width="28.03" height="28.03"/>
    <polygon class="cls-9" points="190.44 249.46 202.34 264.99 212.52 249.46 190.44 249.46"/>
  </g>
  <g id="freepik--Character--inject-5">
    <path class="cls-9" d="M164.64,450.9c27.58-36.41,56.77-31.27,76.99-22.47,20.63,9.4,33.48,30.39,32.46,53.04-.34,5.81-1.59,11.92.78,17.25,3.8,8.49,14.85,10.97,21.22,17.8,8.76,9.36,6.83,24.14,3.86,36.62s-6.07,26.69,1.25,37.19c6.73,9.61,19.52,12.2,30.08,17.33,14.18,6.77,24.8,19.26,29.19,34.35,4.17,15.24.42,31.56-9.99,43.45-10.27,11.16-25.67,16.12-40.67,18.33-81.87,12.08-158.03-44.49-170.11-126.36-1.44-9.76-1.91-19.63-1.41-29.48"/>
    <path class="cls-4" d="M243.07,429.98c-3.28-.02-6.56.17-9.82.55-7.79,1.51-15.43,3.73-22.83,6.62-8.8,3.08-17.31,4.79-23.51,4.39-2.44-.09-4.85-.48-7.19-1.17-.88-.22-1.72-.55-2.5-1,3.18.79,6.44,1.26,9.72,1.4,7.92-.23,15.75-1.81,23.15-4.67,8.76-3.08,16.97-5.73,23.06-6.36,2.42-.29,4.86-.36,7.3-.19.89.02,1.78.17,2.63.42Z"/>
    <path class="cls-7" d="M306.63,719.55c1.06,3.18,23.06,107.14,23.06,107.14l167.37,64.35-9.42,24.42-143.5-12.62h0c-83.76-12.5-88.4-53.59-83.35-99.52l8.68-78.73,37.17-5.03Z"/>
    <path class="cls-6" d="M66.07,663.5c17.25-26.12,43.43-41.18,67.4-49.52l88.04,6.36c19.93-1.73,39.6,5.53,53.63,19.79l8.19,218.16,20.22,57.28H94.1l-28.03-252.08"/>
    <path class="cls-10" d="M278.37,729.64s-.19-.11-.51-.34l-1.42-1.06c-.74-.61-1.51-1.19-2.31-1.72l-3.29-2.12c-1.32-.7-2.76-1.49-4.35-2.27-6.09-2.79-12.61-4.5-19.28-5.07-5.72-.5-11.48-.14-17.1,1.06-6.45,1.35-12.58,3.93-18.05,7.6-6.17,3.85-11.11,9.4-14.21,15.98-1.55,3.47-2.22,7.27-1.93,11.05.38,3.9,1.85,7.61,4.24,10.71,2.35,3.11,5.82,5.18,9.67,5.75,3.71.68,7.47-.93,9.53-4.09,1.59-3.27,1.65-7.08.17-10.4-.62-1.66-1.46-3.23-2.5-4.67-1.04-1.39-2.22-2.67-3.52-3.82-4.94-4.36-10.93-7.35-17.38-8.68-5.61-1.24-11.39-1.56-17.1-.95-8.31,1.01-16.48,2.95-24.36,5.77l-6.47,2.12-1.68.55c-.19.08-.39.13-.59.15l.55-.25,1.65-.66c1.44-.55,3.61-1.38,6.36-2.38,7.86-2.98,16.04-5.03,24.38-6.09,5.8-.66,11.67-.38,17.38.83,6.61,1.35,12.76,4.39,17.84,8.83.68.59,1.32,1.23,1.93,1.89.64.66,1.23,1.37,1.76,2.12,1.09,1.5,1.99,3.14,2.65,4.88,1.6,3.63,1.51,7.77-.23,11.33-1.04,1.78-2.64,3.15-4.56,3.9-1.91.75-3.99,1-6.03.72-4.15-.59-7.89-2.8-10.42-6.15-2.51-3.27-4.03-7.18-4.39-11.29-.28-3.98.45-7.96,2.12-11.58,3.19-6.77,8.28-12.46,14.64-16.4,5.61-3.7,11.86-6.3,18.44-7.66,5.71-1.18,11.56-1.49,17.35-.93,4.78.42,9.49,1.46,14,3.1,1.85.66,3.66,1.42,5.43,2.27,1.61.83,3.06,1.65,4.24,2.38l3.27,2.23c.79.57,1.54,1.18,2.27,1.82l1.34,1.15.47.4Z"/>
    <polygon class="cls-6" points="275.15 640.03 327.13 733.51 269.46 751.22 275.15 640.03"/>
    <path class="cls-9" d="M282.13,858.91c-.1-.54-.16-1.09-.17-1.63,0-1.17-.15-2.72-.28-4.67-.19-4.24-.45-10.06-.78-17.27-.59-14.55-1.34-34.69-1.99-56.92s-1.06-42.43-1.19-56.98v-21.96c-.01-.55.02-1.09.11-1.63.1.54.14,1.09.13,1.63l.13,4.69c0,4.24.21,10.06.38,17.25.38,14.68.91,34.77,1.51,56.96s1.25,42.26,1.68,56.94c.17,7.19.32,13.07.42,17.27v4.69c.08.54.1,1.09.06,1.63Z"/>
    <path class="cls-10" d="M290.49,668.5c-.36.32-.76.6-1.19.83-1.17.74-2.39,1.41-3.65,1.99-11.94,5.24-25.72,4.09-36.62-3.08-1.88-1.18-3.58-2.6-5.07-4.24-1.64-1.77-2.73-3.98-3.14-6.36-.47-2.52.22-5.12,1.89-7.06,1.85-1.93,4.59-2.74,7.19-2.12,2.58.48,4.83,2.02,6.22,4.24,1.22,2.2,1.62,4.77,1.12,7.23-.44,2.33-1.45,4.52-2.95,6.36-1.44,1.74-3.2,3.18-5.2,4.24-3.68,1.84-7.68,2.96-11.77,3.31-3.52.4-7.08.44-10.61.13-5.1-.46-10.1-1.67-14.85-3.59-1.29-.52-2.55-1.11-3.78-1.76-.45-.19-.87-.44-1.25-.74.46.16.9.34,1.34.55.87.38,2.12.93,3.84,1.55,4.78,1.75,9.78,2.83,14.85,3.2,3.48.26,6.98.17,10.44-.25,3.97-.38,7.83-1.49,11.39-3.29,1.87-1.01,3.52-2.36,4.88-3.99,1.37-1.72,2.29-3.74,2.69-5.9.44-2.21.08-4.5-1.02-6.47-1.21-1.97-3.2-3.32-5.47-3.73-2.22-.55-4.57.11-6.17,1.74-1.44,1.71-2.03,3.98-1.61,6.17.38,2.15,1.37,4.16,2.84,5.77,1.42,1.63,3.05,3.06,4.86,4.24,6.23,4.2,13.58,6.41,21.09,6.36,5.09.03,10.13-.94,14.85-2.84,3.14-1.49,4.79-2.61,4.86-2.5Z"/>
    <path class="cls-10" d="M279.41,857.09l-.59-.4-1.7-1.23c-2.21-1.54-4.53-2.92-6.94-4.14-8.9-4.39-18.72-6.58-28.64-6.36-12.5,0-27.28,4.24-41.6,12.47-3.67,2.08-7.12,4.54-10.27,7.34-3.31,2.86-6.06,6.31-8.1,10.18-2.08,4-2.76,8.58-1.93,13,.5,2.2,1.63,4.21,3.27,5.77,1.63,1.54,3.95,2.12,6.11,1.51,2.12-.73,3.88-2.25,4.9-4.24,1.08-2,1.68-4.22,1.76-6.49-.04-4.55-1.44-8.99-4.03-12.73-2.46-3.62-5.67-6.68-9.4-8.97-3.59-2.18-7.53-3.72-11.65-4.56-7.71-1.44-15.6-1.52-23.34-.23-6.77.96-13.45,2.43-20.01,4.37-9.49,2.89-18.65,6.76-27.35,11.54-3.08,1.68-5.41,3.08-7,4.03l-1.78,1.1-.64.34s.17-.17.57-.45l1.74-1.19c1.53-1.02,3.86-2.46,6.92-4.24,8.67-4.88,17.84-8.8,27.35-11.71,6.58-2.02,13.3-3.53,20.11-4.52,7.82-1.36,15.83-1.31,23.63.13,4.24.84,8.3,2.42,11.99,4.67,3.87,2.36,7.19,5.51,9.74,9.25,2.71,3.89,4.19,8.51,4.24,13.26-.08,2.45-.74,4.85-1.91,7-1.15,2.28-3.14,4.03-5.56,4.86-2.52.72-5.24.06-7.15-1.74-1.79-1.73-3.04-3.94-3.59-6.36-.87-4.69-.12-9.54,2.12-13.75,2.1-3.99,4.94-7.55,8.36-10.5,3.23-2.84,6.74-5.33,10.48-7.45,14.47-8.32,29.45-12.37,42.11-12.37,10.02-.16,19.93,2.14,28.85,6.7,3.23,1.63,6.22,3.69,8.91,6.11Z"/>
    <path class="cls-7" d="M129.95,687.64c-6.36-32.61-52.51-33.82-60.59-1.59-.13.49-.25,1-.36,1.51-11.9,50.77,28.3,200.78,39.1,209.44,10.8,8.66,21.51,18.46,39.97,10.8,10.8-4.48,122.92-103.57,122.92-103.57,0,0,25.93,24.84,34.58,22.68,8.66-2.16,25.16-27.58,25.16-27.58,0,0,16.04,24.04,18.05,24.4,3.28.54,6.38-1.69,6.92-4.97.2-1.25.01-2.53-.55-3.66-2.12-3.25-22.57-47.95-22.57-47.95,0,0,16.1-1.74,12.86-7.15,0,0-.4-4.96-11.29-4.01-10.88.95-10.67-11.48-30.93-10.29-20.26,1.19-62.1,6.36-120.93,51.51l-27.26,19.22-25.08-128.78Z"/>
    <path class="cls-3" d="M182.23,797.19l.68-.55,2.12-1.55,7.96-5.96c10.11-7.23,20.64-13.86,31.53-19.86,16.66-9.23,34.5-16.12,53.04-20.49,5.35-1.12,10.88-2.12,16.63-2.78,2.89-.32,5.79-.57,8.76-.78,3.02-.22,6.07-.09,9.06.4,3.09.54,6.03,1.69,8.68,3.37,2.69,1.63,4.96,3.9,7.68,5.3,1.31.68,2.76,1.07,4.24,1.12,1.51,0,3.16-.19,4.82-.13,1.68,0,3.36.29,4.94.85,1.79.51,3.18,1.93,3.65,3.73v-.21c.43.68.58,1.5.42,2.29-.23.76-.7,1.42-1.34,1.89-1.17.86-2.47,1.52-3.86,1.95-2.76.87-5.61,1.48-8.49,1.8l.45-.74,14.38,31.12c2.52,5.3,5.03,10.76,7.76,16.04.44.66.79,1.37,1.04,2.12.15.81.15,1.65,0,2.46-.27,1.66-1.13,3.16-2.42,4.24-1.29,1.09-2.97,1.6-4.65,1.42h-.62c-.16-.03-.31-.08-.45-.15l-.3-.21c-.32-.27-.62-.56-.89-.87-.53-.57-1.04-1.17-1.51-1.78-5.54-7.09-10.44-14.43-15.32-21.64h.91c-3.84,5.85-8,11.47-12.47,16.84-2.19,2.66-4.58,5.15-7.15,7.45-.66.55-1.36,1.06-2.02,1.61-.72.49-1.48.93-2.25,1.34-1.61.87-3.51,1.02-5.24.42-3.22-1.02-6.26-2.52-9.04-4.43-2.78-1.8-5.41-3.73-7.98-5.73-5.09-4.01-9.87-8.19-14.41-12.47h.68c-35.56,31.27-66,57.54-87.77,75.74-10.88,9.1-19.6,16.17-25.71,20.83-3.06,2.33-5.45,4.07-7.13,5.16-.83.58-1.72,1.07-2.65,1.46,0,0,.93-.47,2.57-1.61s4.01-2.89,7.02-5.26c6.03-4.73,14.68-11.88,25.46-21.05,21.66-18.33,52.02-44.7,87.51-76.04l.34-.3.34.32c4.5,4.24,9.29,8.49,14.36,12.37,2.52,1.97,5.16,3.9,7.89,5.66,2.68,1.84,5.62,3.27,8.72,4.24,3.18,1.19,6.03-1.06,8.49-3.16,2.52-2.27,4.86-4.71,7.02-7.32,4.44-5.34,8.58-10.93,12.39-16.74l.45-.7.47.68c4.86,7.19,9.8,14.55,15.25,21.58.48.59.97,1.17,1.46,1.72.25.25.51.53.76.74l.17.13h0v.19c0,.19,0,.34,0-.17h.51c1.39.16,2.79-.26,3.86-1.17,2.29-1.8,2.76-5.08,1.06-7.45-2.82-5.41-5.28-10.8-7.81-16.12l-14.36-31.17-.3-.66h.72c2.8-.32,5.56-.91,8.25-1.76,1.27-.38,2.47-.96,3.54-1.74.45-.34.8-.8.98-1.34.09-.52-.01-1.06-.3-1.51h0v-.15c-.45-1.4-1.58-2.47-2.99-2.86-1.47-.51-3.02-.77-4.58-.76-1.59,0-3.12.15-4.82.13-1.67-.07-3.31-.5-4.79-1.27-2.93-1.51-5.16-3.78-7.74-5.37-2.54-1.61-5.36-2.71-8.32-3.25-5.88-1.06-11.84-.15-17.55.36-5.71.51-11.22,1.61-16.55,2.72-18.51,4.29-36.36,11.09-53.04,20.2-10.9,5.93-21.46,12.46-31.63,19.56l-8.02,5.83-2.12,1.49-.49.36Z"/>
    <path class="cls-3" d="M144.95,852.91s-.23-.55-.45-1.57c-.29-1.46-.47-2.94-.53-4.43-.55-9.92,2.19-19.75,7.79-27.96.84-1.24,1.76-2.41,2.76-3.52.72-.76,1.15-1.17,1.19-1.12s-1.34,1.91-3.29,5.07c-5.13,8.28-7.79,17.84-7.68,27.58.04,3.63.4,5.94.21,5.96Z"/>
    <path class="cls-6" d="M98.6,631.23c-1.04.7-38.38,11.86-44.26,50.13-5.88,38.27-2.42,104.93-2.42,104.93l101.28-6.96-29.04-134.55-25.56-13.56Z"/>
    <path class="cls-3" d="M313.8,821.61c-.17,0,.11-1.38,0-3.48-.11-2.75-.83-5.44-2.12-7.87-1.3-2.43-3.11-4.55-5.33-6.19-1.7-1.23-2.95-1.74-2.89-1.93,1.2.14,2.35.59,3.33,1.29,2.48,1.56,4.5,3.76,5.86,6.36,1.39,2.6,2.04,5.54,1.89,8.49.02,1.15-.23,2.3-.74,3.33Z"/>
    <path class="cls-3" d="M323.12,810.26c-.98-6.63-4.75-12.53-10.35-16.21,1,.17,1.94.6,2.74,1.23,2.04,1.35,3.78,3.11,5.09,5.18,1.33,2.06,2.21,4.38,2.57,6.81.25.98.23,2.01-.04,2.99Z"/>
    <path class="cls-3" d="M323.12,786.08c0-.11.95.32,2.12,1.36,3.04,2.8,4.78,6.73,4.79,10.86,0,1.55-.28,2.48-.4,2.46-.31-2.72-.94-5.39-1.89-7.96-1.27-2.41-2.83-4.67-4.62-6.73Z"/>
    <path class="cls-10" d="M140.86,715.79c-.18.03-.36.03-.53,0l-1.53-.17c-1.96-.24-3.93-.38-5.9-.4-7.26-.07-14.46,1.26-21.22,3.92-10.04,3.92-18.66,10.76-24.76,19.65-3.63,5.13-5.49,11.31-5.3,17.59.14,3.3,1.12,6.51,2.84,9.33,1.8,2.86,4.55,4.99,7.76,6.03,3.2,1.06,6.68.9,9.76-.47,2.94-1.4,5.11-4.03,5.94-7.17.7-3.1.57-6.33-.38-9.36-.87-2.93-2.23-5.7-4.03-8.17-6.47-8.66-16.13-14.37-26.84-15.87-7.2-.94-14.52.04-21.22,2.84-1.81.77-3.58,1.66-5.28,2.65l-1.32.81-.47.23c2.11-1.66,4.43-3.03,6.89-4.07,6.73-3.01,14.15-4.13,21.47-3.22,10.98,1.4,20.92,7.18,27.58,16.02,1.9,2.56,3.34,5.43,4.24,8.49,1.02,3.21,1.16,6.64.4,9.93-.9,3.46-3.29,6.35-6.51,7.89-3.35,1.48-7.13,1.67-10.61.53-3.45-1.15-6.39-3.48-8.3-6.58-1.84-2.94-2.91-6.31-3.1-9.78-.15-6.54,1.84-12.94,5.66-18.25,6.24-9.01,15.08-15.92,25.33-19.79,6.84-2.62,14.13-3.85,21.45-3.61,2.67.07,5.33.4,7.93,1Z"/>
    <path class="cls-10" d="M137.4,660.84c-.81.49-1.67.88-2.57,1.19-1.02.45-2.07.82-3.14,1.12-1.39.48-2.81.88-4.24,1.19-1.73.43-3.48.77-5.24,1-1.91.32-3.95.42-6.11.57-4.69.15-9.38-.17-14-.95-4.61-.87-9.11-2.21-13.45-3.99-1.97-.89-3.86-1.7-5.52-2.65-1.58-.83-3.11-1.75-4.58-2.76-1.23-.8-2.42-1.66-3.56-2.59-.89-.65-1.73-1.36-2.52-2.12-.73-.59-1.4-1.26-1.99-1.99.15-.19,3.05,2.63,8.49,6.07,1.49.95,3.04,1.81,4.62,2.59,1.78.94,3.61,1.79,5.47,2.55,8.57,3.48,17.78,5.14,27.03,4.86,2.12-.13,4.24-.19,6.03-.47s3.61-.53,5.2-.85c6.3-1.34,10.01-2.97,10.1-2.76Z"/>
    <path class="cls-9" d="M145.76,725.74c.11.33.19.67.23,1.02.13.76.3,1.74.49,2.95.42,2.72,1,6.36,1.7,11.1,1.38,9.61,3.31,22.95,5.54,38.44v.57h-.55l-23.68,1.65-54.91,3.61-16.63.98-4.54.21h-1.49c.51-.14,1.04-.22,1.57-.23l4.5-.4,16.63-1.32,54.88-3.95,23.66-1.59-.49.59c-2.12-15.51-3.86-28.87-5.13-38.48-.59-4.67-1.06-8.49-1.4-11.14-.15-1.23-.25-2.12-.34-2.99-.06-.34-.08-.68-.04-1.02Z"/>
    <g class="cls-12">
      <path class="cls-1" d="M96.64,630.17c-1.02,3.59,1.82,6.94,3.67,10.16,3.56,6.19,3.76,13.68,4.07,20.83.24,13.14,2.26,26.19,6,38.78,4.07,12.43,11.07,24.21,21.43,32.23,10.35,8.02,24.25,11.94,36.91,8.66,12.67-3.29,23.34-14.53,24.42-27.58,1.08-13.05-6.79-24.67-11.29-36.85-3.48-9.38-5.03-19.35-7.02-29.17s-4.54-19.69-9.74-28.24c-5.2-8.55-13.45-15.7-23.34-17.5-9.89-1.8-21.09,2.86-25.08,12.03"/>
    </g>
    <path class="cls-7" d="M145.57,458.87v11.27l-.74,168.89c0,19.6,16.72,35.3,37.7,35.24h0c21.22,0,38.72-16.17,39.12-36.07.45-20.79,1.27-42.66,1.27-42.66,0,0,26.86-3.97,33.03-38.82,3.08-17.31,2.69-45.83,1.65-69.14-.91-20.36-18.14-36.12-38.5-35.22-.53.02-1.07.06-1.6.11l-71.94,6.41Z"/>
    <path class="cls-9" d="M249.42,509.01c-.02,2.43-1.98,4.41-4.41,4.46-2.34.16-4.37-1.6-4.53-3.93,0-.07,0-.13,0-.2.02-2.42,1.97-4.39,4.39-4.43,2.34-.18,4.37,1.57,4.55,3.91,0,.07,0,.14.01.2Z"/>
    <path class="cls-9" d="M251.18,502.39c-.57.57-3.9-2.02-8.74-2.12-4.84-.11-8.49,2.27-8.91,1.68-.25-.28.34-1.32,1.89-2.4,2.11-1.43,4.6-2.17,7.15-2.12,2.5.04,4.93.87,6.94,2.38,1.46,1.25,1.95,2.31,1.68,2.59Z"/>
    <path class="cls-9" d="M203.74,508.11c-.02,2.43-1.98,4.4-4.41,4.43-2.34.16-4.37-1.6-4.53-3.93,0-.06,0-.12,0-.18.02-2.43,1.97-4.4,4.39-4.46,2.34-.18,4.37,1.58,4.55,3.91,0,.07,0,.15.01.23Z"/>
    <path class="cls-9" d="M203.76,502.43c-.57.57-3.92-1.99-8.74-2.12s-8.49,2.27-8.91,1.68c-.25-.28.34-1.32,1.89-2.42,2.11-1.42,4.61-2.16,7.15-2.12,2.51.03,4.95.86,6.96,2.38,1.44,1.29,1.93,2.35,1.65,2.61Z"/>
    <path class="cls-9" d="M220.63,538.52c2.55-.76,5.19-1.19,7.85-1.29,1.25,0,2.42-.32,2.63-1.15.13-1.27-.13-2.55-.74-3.67-1.12-3.01-2.27-6.15-3.48-9.44-4.82-13.45-8.3-24.48-7.74-24.67s4.88,10.61,9.7,23.99l3.33,9.48c.75,1.5.94,3.22.55,4.86-.4.88-1.18,1.54-2.12,1.76-.7.16-1.41.25-2.12.25-2.61.27-5.25.23-7.85-.13Z"/>
    <path class="cls-3" d="M222.94,595.63c-16.49-.02-32.66-4.63-46.67-13.32,0,0,10.93,24.21,45.95,21.55l.72-8.23Z"/>
    <path class="cls-3" d="M218.38,550.1c-1.82-2.39-4.74-3.66-7.72-3.37-2.16.16-4.15,1.18-5.54,2.84-1.35,1.62-1.54,3.9-.49,5.73,1.56,1.84,4.09,2.52,6.36,1.72,2.29-.77,4.41-1.98,6.24-3.56.55-.38,1.02-.85,1.4-1.4.35-.55.35-1.25,0-1.8"/>
    <path class="cls-9" d="M206.37,541.59c.78,0,.7,5.2,5.13,9s9.99,3.31,10.01,4.05c0,.32-1.25,1-3.61,1.02-3.07,0-6.04-1.1-8.38-3.1-2.25-1.9-3.67-4.6-3.95-7.53-.17-2.08.45-3.48.78-3.44Z"/>
    <path class="cls-9" d="M205.35,483.55c-.51,1.29-5.3.59-10.97,1.17-5.66.57-10.29,2.12-11.01.85-.32-.57.49-1.78,2.35-3.01,2.47-1.55,5.28-2.48,8.19-2.72,2.88-.28,5.79.12,8.49,1.17,2.12.89,3.16,1.93,2.95,2.55Z"/>
    <path class="cls-9" d="M249.65,488.38c-.87,1.08-4.24-.11-8.17-.23-3.92-.13-7.38.59-8.15-.55-.32-.57.23-1.65,1.72-2.67,4.11-2.48,9.31-2.22,13.15.66,1.38,1.15,1.82,2.21,1.44,2.8Z"/>
    <path class="cls-9" d="M189.38,447.48c9.46,12.33,0,29.98-10.73,41.31-10.73,11.33-23.61,24.44-20.54,39.65,3.59,17.65,27.88,28.75,24.46,46.42-1.25,6.36-6.36,11.99-6.24,18.56,0,11.86,15.49,17.48,20.01,28.43,6.19,15.04-10.29,30.25-10.4,46.5,0,9.23,5.26,17.78,5.64,27.01.74,18.9-21.47,32.95-39.84,28.49s-31.12-22.36-35.28-40.88c-4.16-18.52-1.42-37.68,1.36-56.37-1.76,7.98-13.85,9.59-19.82,4.01-5.96-5.58-6.77-14.85-5.52-22.89,3.14-20.26,16.25-37.51,22.38-57.05,5.37-17.1,5.22-35.34,7.47-53.04,2.25-17.69,7.55-36.32,21-48.16,13.45-11.84,36.87-13.51,47.97.55"/>
    <path class="cls-4" d="M141.47,716.92c.14-.24.28-.47.45-.7.32-.49.76-1.17,1.34-1.99,4.25-6.74,6.62-14.49,6.87-22.45.26-6.42-.91-12.82-3.44-18.73-2.78-6.58-7.68-12.73-12.86-19.43-2.73-3.42-5.23-7.02-7.49-10.78-2.35-4-4.02-8.36-4.96-12.9-1.03-4.88-.62-9.96,1.19-14.62,1.01-2.37,2.45-4.52,4.24-6.36,1.86-1.8,3.87-3.45,6-4.92,4.24-3.01,8.49-6.05,10.88-10.76,2.14-4.88,2.48-10.36.98-15.47-2.55-10.61-9.93-18.88-14.66-28.11-2.51-4.51-4.01-9.51-4.39-14.66-.21-4.96.72-9.89,2.74-14.43,3.88-8.18,9.49-15.41,16.44-21.22,6.36-5.66,12.52-10.48,17.63-15.49,4.72-4.36,8.66-9.51,11.63-15.21,2.23-4.32,3.58-9.03,3.99-13.87.24-3.06-.07-6.13-.91-9.08-.59-2.12-1.1-3.01-1.02-3.06.51.96.92,1.96,1.23,2.99.95,2.96,1.33,6.07,1.12,9.17-.31,4.92-1.63,9.72-3.86,14.11-2.95,5.8-6.88,11.05-11.63,15.51-5.11,5.09-11.33,9.95-17.57,15.61-6.82,5.78-12.32,12.96-16.12,21.05-1.93,4.39-2.83,9.17-2.63,13.96.38,4.99,1.82,9.84,4.24,14.21,2.38,4.54,5.33,8.89,8.13,13.45,2.98,4.57,5.23,9.58,6.66,14.85,1.57,5.37,1.19,11.11-1.06,16.23-2.48,5.03-7.13,8.17-11.24,11.14-2.09,1.44-4.05,3.04-5.88,4.79-1.72,1.74-3.12,3.77-4.12,6-1.73,4.47-2.12,9.34-1.15,14.02.91,4.47,2.52,8.77,4.79,12.73,2.23,3.69,4.71,7.24,7.4,10.61,5.11,6.66,10.03,12.96,12.84,19.69,2.53,6.03,3.67,12.56,3.33,19.09-.32,8.04-2.84,15.83-7.3,22.53-.62.87-1.12,1.49-1.44,1.93-.12.19-.25.38-.4.55Z"/>
    <path class="cls-9" d="M401.64,757.01l-80.41,140.4-113.86,3.95v12.52h332.63l90.53-148.29c2.34-4.06.95-9.25-3.1-11.59-1.24-.72-2.65-1.11-4.09-1.14h-214.4c-3,0-5.77,1.58-7.3,4.16Z"/>
    <path class="cls-2" d="M502.34,831.97c-5.05,7.85-12.73,11.86-17.35,8.93-4.62-2.93-4.14-11.65.91-19.5,5.05-7.85,12.73-11.86,17.35-8.93,4.62,2.93,4.14,11.65-.91,19.5Z"/>
  </g>
  <g id="freepik--Plant--inject-5">
    <path class="cls-9" d="M903.5,850.57c-.12-.37-.28-.74-.47-1.08l-1.46-3.14c-1.76-4.06-3.18-8.25-4.24-12.54-2.84-11.16-3.84-28.22.38-48.46,2.28-11.03,5.27-21.9,8.97-32.54,3.82-11.56,8.23-23.82,11.84-37.06,4.08-13.83,6.04-28.19,5.83-42.6-.53-15.06-5.01-30.1-9.91-45.08-4.9-14.98-9.95-29.7-11.48-44.4-1.68-14.2,1.18-28.56,8.17-41.03,6.49-11.97,14.66-22.19,20.77-32.8,5.71-9.83,9.93-20.45,12.5-31.53,3.68-16.03,3.95-32.66.78-48.8-1.12-5.91-2.82-11.7-5.09-17.27.07.39.17.77.3,1.15.25.83.59,1.93,1.04,3.31,1.28,4.25,2.33,8.56,3.16,12.92,2.92,16.07,2.49,32.58-1.27,48.48-2.61,10.94-6.83,21.42-12.52,31.12-6.11,10.48-14.32,20.66-20.94,32.78-7.18,12.7-10.15,27.34-8.49,41.84,1.53,15,6.62,29.7,11.5,44.74,4.88,15.04,9.31,29.83,9.89,44.66.21,14.26-1.72,28.47-5.71,42.15-3.54,13.2-7.91,25.46-11.67,37.04-3.67,10.71-6.62,21.64-8.85,32.74-4.12,20.39-2.95,37.61.13,48.8,1.15,4.31,2.7,8.5,4.62,12.52l1.61,3.08c.16.36.36.7.59,1.02Z"/>
    <path class="cls-6" d="M923.51,520.29s12.41-39.69-9.87-62.95c-.5-.56-1.36-.61-1.92-.11-.23.21-.39.49-.44.79-1.19,6.56-2.67,26.52,12.22,62.27Z"/>
    <path class="cls-9" d="M916.06,470.56c.03,2.47.32,4.93.85,7.34.81,5.03,1.76,10.97,2.82,17.5,1.06,6.53,1.97,12.47,2.78,17.52.21,2.45.65,4.87,1.32,7.23.24-2.46.17-4.94-.21-7.38-.42-4.54-1.21-10.78-2.35-17.63-1.15-6.85-2.31-13-3.27-17.46-.38-2.44-1.02-4.83-1.93-7.13Z"/>
    <path class="cls-6" d="M909.02,613.94s-7.6-40.9-38.19-50.92c-.7-.26-1.48.1-1.74.8-.11.29-.11.6-.02.89,1.95,6.24,9.97,24.59,39.95,49.22Z"/>
    <path class="cls-9" d="M879.09,573.48c1.21,2.16,2.63,4.19,4.24,6.07,3.08,4.09,6.68,8.87,10.61,14.15l10.61,14.19c1.34,2.07,2.87,4,4.56,5.79-.96-2.26-2.18-4.4-3.65-6.36-2.48-3.82-6.11-8.95-10.31-14.49-4.2-5.54-8.13-10.42-11.07-13.9-1.44-2.01-3.11-3.84-4.99-5.45Z"/>
    <path class="cls-6" d="M917.19,716.56s4.6-41.35-21.7-59.91c-.64-.41-1.49-.22-1.9.42-.13.21-.21.44-.22.69.02,6.68,2.38,26.56,23.82,58.81Z"/>
    <path class="cls-9" d="M900.39,669.16c.52,2.41,1.28,4.76,2.27,7.02,1.76,4.82,3.82,10.44,6.11,16.65,2.29,6.22,4.24,11.86,6.07,16.68.68,2.36,1.58,4.65,2.67,6.85-.24-2.45-.78-4.87-1.61-7.19-1.27-4.39-3.25-10.35-5.66-16.97-2.42-6.62-4.75-12.35-6.56-16.53-.85-2.29-1.95-4.47-3.29-6.51Z"/>
    <path class="cls-6" d="M894.17,819.77s3.14-41.5-23.8-59.11c-.64-.41-1.49-.22-1.9.42-.15.23-.22.5-.22.77.28,6.66,3.33,26.46,25.93,57.92Z"/>
    <path class="cls-9" d="M875.69,773.01c.57,2.39,1.39,4.72,2.46,6.94l6.7,16.42c2.5,6.15,4.75,11.71,6.66,16.44.77,2.34,1.75,4.6,2.93,6.77-.34-2.45-.97-4.85-1.89-7.15-1.42-4.24-3.61-10.23-6.26-16.65-2.65-6.43-5.2-12.16-7.13-16.25-.92-2.29-2.08-4.48-3.48-6.51Z"/>
    <path class="cls-6" d="M941.35,485.41s36.87-19.26,37.59-51.45c.01-.76-.59-1.39-1.35-1.4-.27,0-.54.07-.77.22-5.52,3.78-20.68,16.82-35.47,52.64Z"/>
    <path class="cls-9" d="M971.29,445.02c-1.72,1.76-3.26,3.69-4.58,5.77-3.01,4.14-6.51,9-10.4,14.36-3.88,5.37-7.43,10.23-10.44,14.34-1.6,1.88-3.02,3.91-4.24,6.05,1.91-1.57,3.61-3.37,5.07-5.37,2.91-3.5,6.77-8.49,10.82-14.11,4.05-5.62,7.57-10.82,10.03-14.66,1.49-1.98,2.74-4.12,3.73-6.39Z"/>
    <path class="cls-6" d="M901.74,570.68s37.98-16.97,40.67-49.07c.09-.76-.45-1.44-1.21-1.53-.32-.04-.64.04-.91.21-5.66,3.56-21.62,15.57-38.55,50.39Z"/>
    <path class="cls-9" d="M934.1,532.19c-1.84,1.64-3.5,3.48-4.94,5.47l-11.24,13.71-11.29,13.68c-1.7,1.78-3.23,3.72-4.56,5.79,1.99-1.47,3.8-3.18,5.39-5.07,3.12-3.31,7.28-8.04,11.67-13.41,4.39-5.37,8.21-10.35,10.9-14.02,1.58-1.89,2.95-3.96,4.07-6.15Z"/>
    <path class="cls-6" d="M923.59,665.79s26.07-32.42,13.85-62.18c-.28-.71-1.09-1.05-1.79-.77-.27.11-.49.29-.65.53-3.5,5.66-12.2,23.72-11.41,62.42Z"/>
    <path class="cls-9" d="M934.86,616.8c-.87,2.31-1.51,4.7-1.91,7.13-1.08,4.99-2.35,10.84-3.76,17.33-1.4,6.49-2.72,12.33-3.82,17.31-.69,2.36-1.16,4.77-1.42,7.21,1.11-2.2,1.94-4.53,2.48-6.94,1.27-4.37,2.82-10.48,4.24-17.27,1.42-6.79,2.59-12.96,3.31-17.46.56-2.4.85-4.85.87-7.32Z"/>
    <path class="cls-6" d="M897.78,777.72s37.68-17.61,39.82-49.73c.08-.76-.48-1.43-1.24-1.51-.31-.03-.62.04-.89.21-5.62,3.54-21.36,15.93-37.7,51.02Z"/>
    <path class="cls-9" d="M929.47,738.68c-1.8,1.69-3.43,3.55-4.86,5.56l-11.01,13.92-10.95,13.92c-1.66,1.82-3.16,3.78-4.46,5.88,1.96-1.5,3.73-3.23,5.28-5.16,3.08-3.35,7.15-8.17,11.46-13.62,4.31-5.45,8.04-10.48,10.61-14.19,1.53-1.95,2.85-4.06,3.92-6.3Z"/>
    <path class="cls-9" d="M822.72,614.17v3.56c.11,2.5.25,5.88.45,10.1.47,8.87,1.15,21.22,1.97,36.07h0c2.69,15.04,10.35,31.82,20.66,47.93,7.55,11.94,15.47,22.79,22.3,32.88,6.2,8.79,11.79,18.01,16.72,27.58,3.24,6.5,5.86,13.29,7.83,20.28.66,2.48,1.15,4.41,1.44,5.75.12.68.3,1.35.55,1.99-.02-.71-.11-1.42-.25-2.12-.17-1.36-.57-3.33-1.17-5.86-1.76-7.1-4.24-14-7.4-20.6-4.81-9.71-10.34-19.06-16.53-27.96-6.79-10.16-14.66-21.02-22.17-32.9-10.25-16.12-17.88-32.54-20.66-47.35h0c-1.04-14.85-1.89-27.13-2.52-36.07-.34-4.24-.62-7.55-.81-10.06,0-1.06-.19-1.93-.28-2.65-.03-.19-.07-.39-.13-.57Z"/>
    <path class="cls-6" d="M845.14,708.77s-15.95-38.4,4.12-63.65c.47-.6,1.33-.71,1.93-.25.23.18.4.43.48.72,1.78,6.49,5.07,26.24-6.53,63.18Z"/>
    <path class="cls-9" d="M848.05,658.57c-.69,2.37-1.11,4.81-1.25,7.28-.57,4.52-1.21,10.78-1.7,17.69-.49,6.92-.72,13.22-.72,17.76-.16,2.47-.01,4.95.45,7.38.43-2.42.64-4.88.64-7.34.34-5.09.74-11.07,1.19-17.69.45-6.62.89-12.6,1.23-17.69.31-2.45.37-4.92.17-7.38Z"/>
    <g class="cls-14">
      <path class="cls-1" d="M845.14,708.77s-15.95-38.4,4.12-63.65c.47-.6,1.33-.71,1.93-.25.23.18.4.43.48.72,1.78,6.49,5.07,26.24-6.53,63.18Z"/>
    </g>
    <path class="cls-6" d="M894.59,801.35s-12.73-39.59,9.25-63.03c.51-.57,1.38-.61,1.95-.1.22.2.37.46.43.76,1.25,6.53,2.91,26.5-11.63,62.37Z"/>
    <path class="cls-9" d="M901.55,751.56c-.89,2.3-1.51,4.7-1.85,7.15-.93,4.46-2.12,10.61-3.12,17.48s-1.8,13.11-2.12,17.65c-.34,2.45-.39,4.92-.15,7.38.65-2.37,1.07-4.8,1.25-7.26.74-5.05,1.63-10.99,2.61-17.52s1.91-12.5,2.67-17.55c.47-2.42.71-4.88.7-7.34Z"/>
    <g class="cls-14">
      <path class="cls-1" d="M894.59,801.35s-12.73-39.59,9.25-63.03c.51-.57,1.38-.61,1.95-.1.22.2.37.46.43.76,1.25,6.53,2.91,26.5-11.63,62.37Z"/>
    </g>
    <path class="cls-6" d="M824.82,661.76s-34.07-23.85-30.63-55.86c.06-.76.73-1.32,1.49-1.26.3.03.58.15.8.34,4.94,4.54,18.31,19.45,28.34,56.77Z"/>
    <g class="cls-14">
      <path class="cls-1" d="M824.82,661.76s-34.07-23.85-30.63-55.86c.06-.76.73-1.32,1.49-1.26.3.03.58.15.8.34,4.94,4.54,18.31,19.45,28.34,56.77Z"/>
    </g>
    <path class="cls-9" d="M800.36,617.9c.67,2.37,1.62,4.66,2.82,6.81,1.95,4.12,4.77,9.74,8.06,15.85,3.29,6.11,6.36,11.54,8.91,15.38,1.21,2.16,2.67,4.17,4.35,5.98-.93-2.28-2.06-4.47-3.39-6.53l-8.49-15.57-8.49-15.59c-1.05-2.23-2.31-4.35-3.78-6.32Z"/>
    <path class="cls-6" d="M880.85,762.1s-41.12-6.36-52.13-36.66c-.26-.72.11-1.51.82-1.77.27-.1.56-.11.83-.04,6.51,1.76,24.99,9.31,50.47,38.46Z"/>
    <g class="cls-14">
      <path class="cls-1" d="M880.85,762.1s-41.12-6.36-52.13-36.66c-.26-.72.11-1.51.82-1.77.27-.1.56-.11.83-.04,6.51,1.76,24.99,9.31,50.47,38.46Z"/>
    </g>
    <path class="cls-9" d="M839.52,733.46c1.67,1.82,3.53,3.45,5.56,4.86,3.54,2.84,8.49,6.64,14.21,10.61,5.73,3.97,10.88,7.51,14.85,9.89,2.02,1.42,4.22,2.59,6.53,3.46-1.84-1.63-3.82-3.09-5.92-4.37l-14.53-10.16-14.45-10.29c-1.95-1.54-4.04-2.87-6.26-3.99Z"/>
    <polygon class="cls-4" points="929.47 837.76 917.7 915.09 870.6 915 854.75 837.76 929.47 837.76"/>
    <path class="cls-9" d="M861.65,867.54s.11.13.38.3.68.42,1.25.7c1.66.81,3.43,1.34,5.26,1.57,2.91.39,5.87.12,8.66-.81,3.75-1.19,7.02-3.56,9.31-6.77,1.26-1.93,1.99-4.16,2.12-6.47.26-2.64-.97-5.2-3.2-6.64-2.55-1.26-5.58-1.02-7.89.64-2.34,1.72-3.95,4.26-4.5,7.11-.62,2.87-.82,5.81-.59,8.74.16,3.06.8,6.07,1.91,8.93,1.16,3,3.03,5.67,5.45,7.79,2.52,2.23,5.7,3.56,9.06,3.78,3.35.07,6.65-.88,9.44-2.74,2.68-1.71,5.06-3.86,7.02-6.36,2.02-2.4,3.26-5.36,3.56-8.49.24-3.11-1-6.14-3.35-8.19-2.43-1.8-5.7-2-8.34-.51-2.51,1.25-4.29,3.61-4.82,6.36-.72,4.92,1.64,9.78,5.96,12.24,3.47,1.88,7.5,2.47,11.37,1.65,2.85-.6,5.59-1.67,8.08-3.18,1.58-.92,3.09-1.94,4.54-3.06.53-.36,1.02-.78,1.46-1.25-.56.31-1.1.66-1.61,1.04-1.04.68-2.57,1.72-4.62,2.84-2.48,1.39-5.18,2.37-7.98,2.89-3.68.72-7.5.11-10.78-1.72-3.91-2.31-6.03-6.75-5.37-11.24.47-2.4,2.05-4.43,4.24-5.49,2.23-1.31,5.03-1.14,7.09.42,2.03,1.82,3.09,4.48,2.86,7.19-.29,2.87-1.45,5.59-3.33,7.79-1.88,2.38-4.14,4.42-6.7,6.05-2.58,1.7-5.61,2.59-8.7,2.55-3.06-.22-5.97-1.44-8.27-3.48-2.28-1.97-4.04-4.47-5.13-7.28-1.05-2.72-1.67-5.58-1.85-8.49-.23-2.8-.06-5.62.51-8.38.49-2.55,1.91-4.82,3.99-6.36,1.95-1.45,4.54-1.7,6.73-.66,1.9,1.22,2.96,3.41,2.74,5.66-.12,2.14-.79,4.22-1.95,6.03-2.16,3.07-5.23,5.37-8.78,6.58-2.63.87-5.42,1.16-8.17.85-2.46-.31-4.84-1.03-7.06-2.12Z"/>
  </g>
</svg>