<?xml version="1.0" encoding="UTF-8"?>
<svg id="Layer_2" data-name="Layer 2" xmlns="http://www.w3.org/2000/svg" viewBox="0 0 1000 1000">
  <defs>
    <style>
      .cls-1 {
        fill: #000;
      }

      .cls-1, .cls-2, .cls-3, .cls-4, .cls-5, .cls-6, .cls-7, .cls-8, .cls-9, .cls-10, .cls-11, .cls-12 {
        stroke-width: 0px;
      }

      .cls-2 {
        fill: #e0e0e0;
      }

      .cls-3 {
        fill: #eb996e;
      }

      .cls-4 {
        fill: #455a64;
      }

      .cls-5 {
        fill: #f5f5f5;
      }

      .cls-6 {
        fill: #09f;
      }

      .cls-7 {
        fill: #ffbe9d;
      }

      .cls-8 {
        fill: #ebebeb;
      }

      .cls-13 {
        opacity: .3;
      }

      .cls-9 {
        fill: #937263;
      }

      .cls-10 {
        fill: #263238;
      }

      .cls-11 {
        fill: #fff;
      }

      .cls-12 {
        fill: #5e483f;
      }
    </style>
  </defs>
  <g id="freepik--background-complete--inject-2">
    <path class="cls-5" d="M247.73,308.76l-20.76-33.72c25.07-44.38,9.42-100.69-34.97-125.76-44.38-25.07-100.69-9.42-125.76,34.97-25.07,44.38-9.42,100.69,34.97,125.76,33.43,18.88,75.06,15.1,104.54-9.5h0l41.98,8.26Z"/>
    <path class="cls-10" d="M191.7,264.37c-.54.05-1.08.05-1.62,0l-4.62.11-17.02.17-56.08.25h-4.58v-.53c0-21.01,0-39.77.15-53.45,0-6.72.13-12.16.17-16.07v-4.35c-.06-.5-.06-1.01,0-1.51.03.5.03,1.01,0,1.51v4.35c0,3.91,0,9.35.17,16.07,0,13.68,0,32.48.17,53.45l-.53-.53h4.45l56.12.15,17.02.17h4.62c.53.01,1.06.08,1.58.21Z"/>
    <path class="cls-2" d="M112.37,265.42h-4.58c-.13,0-.26-.06-.36-.15-.11-.1-.17-.23-.17-.38l.17-53.97.27-20.42c0-1.76,0-2.1.63-2.1s.57.27.63,2.1l.13,8.85.13,11.6.17,52.4h2.98l56.12.15,21.66.27c1.87,0,2.1,0,2.1.63s-.25.57-2.1.63l-4.62.11-17.02.17-56.14.13ZM109.42,264.37h0ZM108.37,263.02v.29h0v-.29Z"/>
    <path class="cls-10" d="M182.43,207.28c-.77.84-1.6,1.64-2.48,2.37l-7.04,6.18c-5.99,5.17-14.29,12.29-23.49,20.09l-1.39,1.18-.36.29-.36-.32-10.5-9.71h.76l-15.34,12.61-4.45,3.55c-.51.46-1.06.86-1.66,1.2.44-.52.94-1,1.47-1.43l4.2-3.78,15.09-12.94.34-.27.32.29,10.5,9.64h-.69l1.39-1.18c9.22-7.79,17.59-14.81,23.7-19.83l7.16-5.88c.88-.77,1.83-1.46,2.84-2.06Z"/>
    <path class="cls-2" d="M116.04,245.35c-.13,0-.23,0-.36-.23s-.17-.65,1.51-2.1l4.2-3.78,15.42-13.22c.21-.18.51-.18.71,0l10.19,9.35.67-.59c8.93-7.54,17.33-14.71,23.7-19.85l7.25-5.92c3.03-2.42,3.09-2.44,3.49-2.1h0c.4.46.34.5-2.54,3.09l-7.04,6.3c-6.3,5.38-14.56,12.61-23.49,20.09l-1.74,1.47c-.2.17-.5.17-.69,0l-10.15-9.41-19.1,15.65c-1.22.86-1.72,1.26-2.04,1.26ZM148.48,236.01h0l.59-.5,4.54-3.87-4.54,3.84-.59.53ZM146.55,235.63l.38.36h0l-.38-.36Z"/>
    <path class="cls-10" d="M182.43,224.74c-.3-1.72-.42-3.47-.36-5.21-.11-3.21-.17-7.69-.17-12.61l.53.53h-.9c-5.19,0-9.87,0-13.28-.15-1.83.02-3.66-.12-5.46-.44,1.82-.3,3.66-.43,5.5-.38,3.4,0,8.09-.15,13.28-.15h1.43v.53c0,4.98,0,9.45-.17,12.61.05,1.77-.08,3.53-.4,5.27Z"/>
    <path class="cls-2" d="M182.43,225.27c-.59,0-.71,0-.88-5.71-.11-3.11-.15-7.21-.17-11.64-4.96,0-9.62,0-13.15-.15-6.01-.17-6.01-.29-6.01-.9s0-.74,6.01-.9c3.57,0,8.4-.15,13.3-.15h1.43c.14,0,.27.06.38.15.1.1.15.24.15.38v.53c0,4.83,0,9.33-.17,12.61-.15,5.8-.27,5.8-.88,5.8ZM182.43,207.92h0ZM179.03,206.86h0Z"/>
    <path class="cls-8" d="M504.58,167.45l115.09-17.59c9.72,63.58-33.95,123-97.53,132.72-63.58,9.72-123-33.95-132.72-97.53-9.72-63.58,33.95-123,97.53-132.72,10.06-1.54,20.28-1.75,30.4-.63l-12.77,115.74Z"/>
    <path class="cls-2" d="M541.91,52.08l-13.97,89.23,87.59-16.45s-12.88-50-73.62-72.78Z"/>
    <path class="cls-5" d="M769.66,218.1c-.55-44.65,35.2-81.29,79.84-81.84,44.65-.55,81.29,35.2,81.84,79.84.55,44.53-35.02,81.12-79.55,81.83-44.7.56-81.43-35.14-82.13-79.84ZM889.15,216.17c-.44-21.35-18.11-38.29-39.45-37.85-21.35.44-38.29,18.11-37.85,39.45.44,21.27,18,38.19,39.27,37.85,21.38-.43,38.39-18.07,38.03-39.46Z"/>
    <path class="cls-2" d="M769.66,218.1c-.78-44.73,34.79-81.65,79.52-82.53l.63,42.38c-21.47.34-38.59,18.02-38.25,39.49.34,21.47,18.02,38.59,39.49,38.25h0l.67,42.38c-44.73.54-81.44-35.24-82.06-79.96Z"/>
    <path class="cls-8" d="M841.94,129.06c52.15-.84,93.75,39.62,94.54,92.02l-49.35.8c-.4-25.06-19.46-40.82-44.39-40.42l-.8-52.4Z"/>
  </g>
  <g id="freepik--Chart--inject-2">
    <rect class="cls-8" x="52.78" y="651.79" width="55.8" height="128.62"/>
    <rect class="cls-5" x="133.19" y="534.73" width="55.8" height="245.69"/>
    <rect class="cls-8" x="416.07" y="541.76" width="55.8" height="238.65"/>
    <rect class="cls-5" x="499.66" y="454.68" width="55.8" height="323.2"/>
    <rect class="cls-5" x="799.88" y="452.11" width="55.8" height="328.28"/>
    <rect class="cls-8" x="904.9" y="502.41" width="55.8" height="277.98"/>
    <path class="cls-10" d="M968.46,527.25s-.5-.84-1.43-2.54-2.23-4.2-4.08-7.56c-3.72-6.56-9.31-16.2-17.52-27.94-4.1-5.86-8.95-12.21-14.6-18.91-6.09-7.23-12.69-14.01-19.75-20.3-8.05-7.29-16.84-13.72-26.22-19.2-2.5-1.43-5.04-2.86-7.71-4.2s-5.42-2.52-8.19-3.72c-5.78-2.35-11.75-4.21-17.84-5.57-6.39-1.37-12.9-2.13-19.43-2.27-6.82-.03-13.63.67-20.3,2.1-6.95,1.49-13.71,3.79-20.13,6.85-6.51,3.11-12.88,6.98-19.6,10.5-13.69,7.52-28.13,13.56-43.09,18.03-16.02,4.31-32.6,6.19-49.18,5.57-2.1,0-4.2-.17-6.3-.25-2.15-.05-4.3-.21-6.43-.48-1.07-.15-2.1-.21-3.21-.42l-3.19-.65c-2.1-.38-4.2-1.09-6.3-1.68-8.37-2.71-16.52-6.08-24.37-10.06l-24.04-12.06c-8.13-4.16-16.64-7.54-25.4-10.11-17.77-4.45-36.58-7.54-55.47-5.55-9.52,1-18.8,3.58-27.46,7.65-8.65,4.26-16.57,9.86-23.47,16.6-14.08,13.53-24.67,29.9-35.19,45.7s-20.63,31.73-31.51,46.64c-10.51,14.8-22.42,28.56-35.57,41.07-6.45,5.99-13.34,11.49-20.61,16.45-7.15,4.81-14.67,9.02-22.5,12.61-7.63,3.52-15.59,6.28-23.76,8.21-4.01,1.07-8.11,1.64-12.14,2.31-4.03.46-8.09.71-12.14.76-15.72.11-31.23-3.59-45.21-10.78-13.59-6.62-25.84-14.56-38.39-20.72-49.76-25.75-110.82-12.16-144.97,32.25-6.76,8.68-12.28,18.26-16.39,28.47l-1.76,4.66c-.48,1.34-.82,2.5-1.11,3.4l-.92,2.79s.25-.97.82-2.82c.27-.92.59-2.1,1.05-3.45s1.07-2.92,1.72-4.69c10.53-26.76,30.44-48.77,56.01-61.92,20.88-10.31,44.34-14.22,67.44-11.26,13.39,1.69,26.38,5.67,38.41,11.79,12.61,6.16,24.85,14.1,38.41,20.65,13.86,7.1,29.22,10.75,44.79,10.63,4.02-.04,8.04-.3,12.04-.76,4.01-.67,8.05-1.24,12.04-2.29,8.11-1.94,16.01-4.69,23.57-8.19,7.77-3.59,15.24-7.81,22.33-12.61,7.23-4.94,14.07-10.41,20.48-16.37,13.09-12.49,24.95-26.2,35.42-40.95,10.84-14.9,21.01-30.7,31.51-46.6s21.09-32.21,35.3-45.82c7.01-6.83,15.06-12.51,23.85-16.81,8.78-4.06,18.17-6.62,27.8-7.56,19.12-2.1,38.01,1.09,55.87,5.59,8.81,2.58,17.36,5.99,25.53,10.19l24.01,12.06c7.8,3.97,15.9,7.33,24.22,10.04,2.1.57,4.2,1.28,6.3,1.64l3.15.65c1.05.21,2.1.27,3.15.42,2.1.29,4.2.38,6.3.48s4.2.27,6.3.25c16.48.65,32.97-1.19,48.91-5.44,14.91-4.43,29.3-10.43,42.94-17.9,6.7-3.45,13.05-7.27,19.64-10.5,12.76-6.02,26.71-9.08,40.82-8.95,6.59.14,13.14.91,19.58,2.31,6.13,1.38,12.13,3.26,17.94,5.63,2.79,1.24,5.61,2.37,8.24,3.76s5.23,2.73,7.75,4.2c9.41,5.52,18.21,11.99,26.28,19.33,7.05,6.34,13.64,13.16,19.73,20.42,5.65,6.66,10.5,13.03,14.54,18.91,6.28,9.05,12.08,18.42,17.38,28.07,1.81,3.32,3.09,5.9,3.99,7.61l1.32,2.58Z"/>
    <circle class="cls-6" cx="525.4" cy="415.98" r="14.35"/>
    <path class="cls-6" d="M525.4,442.58c-14.4,0-26.07-11.67-26.07-26.07,0-14.4,11.67-26.07,26.07-26.07,14.4,0,26.07,11.67,26.07,26.07v.02c-.02,14.39-11.69,26.04-26.07,26.05ZM525.4,392.55c-13.24,0-23.97,10.73-23.97,23.97,0,13.24,10.73,23.97,23.97,23.97,13.24,0,23.97-10.73,23.97-23.97-.01-13.23-10.74-23.96-23.97-23.97Z"/>
    <polygon class="cls-8" points="532.29 366.48 531.54 337.08 538.87 337.21 525.17 320.47 511.47 337.36 519.06 337.4 519.81 366.39 532.29 366.48"/>
    <path class="cls-2" d="M504.58,382.21v5.4h-4.83v-5.17c-4.27-.14-8.42-1.47-11.98-3.84l2.65-5.88c2.76,1.93,5.97,3.12,9.33,3.42v-8.05c-5.34-1.3-11.3-3.09-11.3-9.96,0-5.11,3.7-9.5,11.3-10.36v-5.36h4.83v5.25c3.44.2,6.79,1.21,9.77,2.94l-2.42,5.92c-2.26-1.31-4.76-2.16-7.35-2.5v8.17c5.34,1.26,11.22,3.05,11.22,9.83-.04,4.92-3.68,9.27-11.22,10.17ZM499.75,360.93v-6.83c-2.54.57-3.55,1.97-3.55,3.55s1.45,2.61,3.55,3.28h0ZM508.15,372.53c0-1.68-1.41-2.58-3.47-3.32v6.66c2.29-.55,3.36-1.83,3.36-3.34h.11Z"/>
    <path class="cls-6" d="M567.48,290.13c0,3.72-2.73,6.93-8.72,6.93-2.82.05-5.6-.72-7.98-2.23l1.91-3.72c1.74,1.24,3.83,1.91,5.97,1.89,2.42,0,3.91-1.03,3.91-2.73s-1.07-2.71-4.87-2.71h-5.36l1.09-11.79h12.75v3.89h-8.74l-.34,3.97h1.7c6.22.06,8.68,2.79,8.68,6.49Z"/>
    <path class="cls-6" d="M569.46,286.24c0-6.91,3.82-10.82,8.97-10.82s8.97,3.91,8.97,10.82-3.8,10.82-8.97,10.82-8.97-3.91-8.97-10.82ZM582.53,286.24c0-4.75-1.68-6.72-4.1-6.72s-4.05,1.97-4.05,6.72,1.66,6.72,4.05,6.72,4.1-1.97,4.1-6.72Z"/>
    <path class="cls-6" d="M589.42,281.3c-.26-2.87,1.86-5.4,4.72-5.66s5.4,1.86,5.66,4.72c.03.31.03.62,0,.93.34,2.83-1.69,5.41-4.52,5.74-.21.03-.43.04-.65.04-2.88.02-5.22-2.3-5.24-5.18,0-.2,0-.4.03-.6ZM596.81,281.3c0-2.25-.88-3.32-2.1-3.32s-2.1,1.11-2.1,3.32.9,3.32,2.1,3.32,2.1-1.07,2.1-3.32ZM607.09,275.78h3.57l-14.31,21.01h-3.55l14.29-21.01ZM603.66,291.18c.31-2.86,2.89-4.93,5.75-4.61,2.86.31,4.93,2.89,4.61,5.75-.29,2.65-2.53,4.65-5.19,4.64-2.88,0-5.21-2.34-5.2-5.22,0-.19.01-.37.03-.56ZM611.02,291.18c0-2.21-.86-3.32-2.1-3.32s-2.1,1.07-2.1,3.32.9,3.32,2.1,3.32,2.1-1.11,2.1-3.32Z"/>
    <circle class="cls-6" cx="82.22" cy="593.03" r="14.35"/>
    <path class="cls-6" d="M82.22,619.63c-14.4,0-26.07-11.67-26.07-26.07s11.67-26.07,26.07-26.07,26.07,11.67,26.07,26.07h0c-.01,14.4-11.68,26.06-26.07,26.07ZM82.22,569.6c-13.24,0-23.97,10.73-23.97,23.97s10.73,23.97,23.97,23.97,23.97-10.73,23.97-23.97c0,0,0-.01,0-.02-.02-13.23-10.75-23.94-23.97-23.95h0Z"/>
    <polygon class="cls-8" points="75.07 509.56 75.85 538.93 68.52 538.8 82.22 555.55 95.92 538.65 88.31 538.61 87.55 509.62 75.07 509.56"/>
    <path class="cls-2" d="M58.16,562.96v5.4h-4.81v-5.23c-4.27-.13-8.42-1.46-11.98-3.84l2.65-5.88c2.76,1.93,5.97,3.12,9.33,3.42v-8.05c-5.34-1.28-11.3-3.07-11.3-9.96,0-5.11,3.7-9.5,11.3-10.36v-5.25h4.81v5.25c3.45.18,6.81,1.18,9.79,2.92l-2.42,5.92c-2.27-1.31-4.78-2.16-7.37-2.5v8.19c5.36,1.24,11.22,3.03,11.22,9.81,0,4.92-3.66,9.24-11.22,10.15ZM53.35,541.68v-6.83c-2.54.57-3.55,1.97-3.55,3.57s1.43,2.58,3.55,3.26ZM61.63,553.3c0-1.68-1.39-2.61-3.47-3.32v6.64c2.42-.53,3.47-1.79,3.47-3.32Z"/>
    <path class="cls-2" d="M902.66,407.17v5.4h-4.81v-5.25c-4.28-.14-8.44-1.48-12-3.87l2.65-5.86c2.77,1.93,5.99,3.11,9.35,3.42v-8.07c-5.34-1.3-11.32-3.09-11.32-9.98,0-5.08,3.72-9.48,11.32-10.34v-5.36h4.81v5.25c3.44.2,6.79,1.2,9.77,2.94l-2.4,5.92c-2.26-1.33-4.77-2.18-7.37-2.5v8.17c5.34,1.26,11.22,3.05,11.22,9.83,0,5.02-3.66,9.35-11.22,10.27ZM897.84,385.89v-6.83c-2.56.57-3.57,1.95-3.57,3.55s1.45,2.61,3.57,3.28ZM906.12,397.49c0-1.68-1.39-2.58-3.47-3.32v6.64c2.42-.53,3.47-1.76,3.47-3.32Z"/>
    <path class="cls-8" d="M932.53,411.54c4.49-1.97,7.36-6.43,7.31-11.32.42-6.35-4.39-11.83-10.73-12.24s-11.83,4.39-12.24,10.73c-.03.46-.03.92,0,1.38-.1,4.94,2.78,9.46,7.31,11.45-17.69,2.67-16.81,21.89-16.81,21.89l41.85.21s.86-19.46-16.68-22.1Z"/>
    <path class="cls-6" d="M592.04,229.62c-1.24-.01-2.31-.89-2.56-2.1l-5.9-24.88h-16.45l-5.69,23.72c-.35,1.41-1.77,2.28-3.19,1.95-1.41-.33-2.29-1.74-1.96-3.15,0-.01,0-.03,0-.04l5.69-23.36c.12-2.27,1.93-4.09,4.2-4.2h18.28c2.26.13,4.07,1.94,4.2,4.2l5.86,24.67c.34,1.42-.53,2.85-1.95,3.19h0c-.17.01-.35.01-.53,0Z"/>
    <rect class="cls-6" x="567.27" y="197.73" width="16.03" height="29.25"/>
    <path class="cls-6" d="M570.49,261.74c-1.76-.01-3.17-1.44-3.17-3.19v-34.56c-.2-1.74,1.05-3.31,2.79-3.52s3.31,1.05,3.52,2.79c.03.24.03.49,0,.73v34.5c.05,1.75-1.34,3.21-3.09,3.26-.01,0-.03,0-.04,0Z"/>
    <path class="cls-6" d="M580.09,261.74c-1.76-.01-3.17-1.44-3.17-3.19v-34.56c.29-1.74,1.93-2.92,3.67-2.64,1.35.22,2.41,1.28,2.64,2.64v34.5c.04,1.76-1.37,3.22-3.13,3.26,0,0,0,0,0,0Z"/>
    <path class="cls-6" d="M582.99,188.02c0,4.28-3.47,7.75-7.75,7.75-4.28,0-7.75-3.47-7.75-7.75s3.47-7.75,7.75-7.75,7.75,3.47,7.75,7.75h0Z"/>
    <polygon class="cls-6" points="561.45 235.71 567.55 212.35 583.05 212.35 589 235.71 561.45 235.71"/>
    <path class="cls-4" d="M435.39,319.69c0,3.13-2.31,5.88-7.37,5.88-2.41.03-4.78-.65-6.81-1.95l1.64-3.13c1.47,1.05,3.24,1.61,5.04,1.6,2.1,0,3.3-.86,3.3-2.31s-.9-2.31-4.2-2.31h-4.54l.92-9.98h10.8v3.3h-7.4l-.27,3.36h1.45c5.36.04,7.44,2.4,7.44,5.55Z"/>
    <path class="cls-4" d="M437.08,316.39c0-5.84,3.24-9.16,7.58-9.16s7.61,3.32,7.61,9.16-3.21,9.18-7.61,9.18-7.58-3.32-7.58-9.18ZM448.13,316.39c0-4.01-1.41-5.69-3.47-5.69s-3.45,1.68-3.45,5.69,1.43,5.69,3.45,5.69,3.47-1.66,3.47-5.69Z"/>
    <path class="cls-4" d="M453.97,312.21c.27-2.42,2.45-4.17,4.87-3.9s4.17,2.45,3.9,4.87c-.25,2.23-2.13,3.93-4.38,3.93-2.43.02-4.4-1.94-4.42-4.36,0-.18,0-.36.03-.53ZM460.27,312.21c0-1.89-.74-2.79-1.85-2.79s-1.85.92-1.85,2.79.78,2.82,1.85,2.82,1.79-.9,1.79-2.82h.06ZM468.99,307.52h3.03l-12.12,17.73h-2.96l12.06-17.73ZM466.07,320.57c.26-2.43,2.44-4.2,4.87-3.95,2.43.26,4.2,2.44,3.95,4.87-.24,2.26-2.15,3.98-4.43,3.97-2.44.04-4.44-1.91-4.48-4.34,0-.18,0-.37.03-.55h.06ZM472.37,320.57c0-1.87-.74-2.82-1.85-2.82s-1.85.92-1.85,2.82.76,2.82,1.85,2.82,1.72-.95,1.72-2.82h.13Z"/>
    <path class="cls-4" d="M452.85,269.22c-1.43,0-2.58-1.16-2.58-2.58v-23.7h-19.1v23.7c0,1.43-1.16,2.58-2.58,2.58s-2.58-1.16-2.58-2.58v-24.35c-.02-2.47,1.96-4.49,4.43-4.52h20.57c2.47.03,4.44,2.05,4.43,4.52v24.35c0,1.43-1.16,2.58-2.58,2.58Z"/>
    <rect class="cls-4" x="432.89" y="238.06" width="15.67" height="28.57"/>
    <path class="cls-4" d="M436.05,294.98c-1.59.12-2.98-1.06-3.11-2.65v-29.06c.24-1.71,1.83-2.9,3.54-2.66,1.38.2,2.46,1.28,2.66,2.66v29.06c-.13,1.58-1.51,2.76-3.09,2.65Z"/>
    <path class="cls-4" d="M445.42,294.98c-1.58.11-2.95-1.07-3.09-2.65v-29.06c.24-1.71,1.83-2.9,3.54-2.66,1.38.2,2.46,1.28,2.66,2.66v29.06c-.13,1.59-1.52,2.77-3.11,2.65Z"/>
    <path class="cls-4" d="M448.29,228.57c0,4.18-3.39,7.56-7.56,7.56s-7.56-3.39-7.56-7.56,3.39-7.56,7.56-7.56,7.56,3.39,7.56,7.56h0Z"/>
    <path class="cls-6" d="M942.55,466.36c0,7.93-6.42,14.35-14.35,14.35s-14.35-6.42-14.35-14.35,6.42-14.35,14.35-14.35h0c7.93,0,14.35,6.42,14.35,14.35Z"/>
    <path class="cls-6" d="M928.2,492.96c-14.4,0-26.07-11.67-26.07-26.07,0-14.4,11.67-26.07,26.07-26.07,14.4,0,26.07,11.67,26.07,26.07v.02c-.02,14.39-11.69,26.04-26.07,26.05ZM928.2,442.93c-13.24,0-23.97,10.73-23.97,23.97s10.73,23.97,23.97,23.97c13.24,0,23.97-10.73,23.97-23.97-.01-13.23-10.74-23.96-23.97-23.97h0Z"/>
  </g>
  <g id="freepik--character-2--inject-2">
    <path class="cls-10" d="M600.47,848.13h0s-1.32,73.18-1.32,100.32h230.86v-77.19l-7.31-20.3-2.63-16.47-219.6,13.64Z"/>
    <path class="cls-4" d="M661.34,945.51c-.79-6.44-1.22-12.92-1.28-19.41-.42-6.48-.48-12.99-.19-19.48.79,6.45,1.22,12.94,1.28,19.43.42,6.48.48,12.97.19,19.46Z"/>
    <path class="cls-4" d="M669.24,873.74s.42-.32,1.34-.44c1.32-.16,2.65.06,3.84.65,1.88.86,3.2,2.6,3.51,4.64.36,2.52-.84,5.01-3.03,6.3-2.36,1.15-5.19.59-6.93-1.37-.76-.83-1.18-1.92-1.18-3.05,0-.96.28-1.89.82-2.69.71-1.16,1.88-1.98,3.21-2.25.95-.13,1.45.11,1.43.15s-.53,0-1.32.27c-1.14.38-2.09,1.18-2.67,2.23-.91,1.48-.72,3.39.46,4.66,1.45,1.54,3.73,1.98,5.65,1.07,2.54-1.56,3.35-4.88,1.79-7.42-.51-.83-1.24-1.51-2.1-1.97-1.51-.7-3.18-.98-4.83-.8Z"/>
    <path class="cls-4" d="M796.35,878.7c-1.58-.68-3.08-1.54-4.45-2.58-2.65-1.74-6.3-4.31-10-7.33s-7.04-5.99-9.31-8.19c-1.32-1.11-2.49-2.38-3.49-3.78,1.44.94,2.78,2.02,4.01,3.21,2.4,2.1,5.71,4.9,9.45,7.9s7.25,5.65,9.77,7.56c1.43.95,2.78,2.02,4.01,3.21Z"/>
    <path class="cls-4" d="M820.02,902.74c-.31.23-.65.43-1.01.57l-3.03,1.45-2.1,1.03c-.8.36-1.72.67-2.69,1.03-1.93.69-4.2,1.62-6.64,2.27l-3.95,1.11c-1.37.38-2.84.61-4.33.95-2.98.71-6.3,1.07-9.66,1.53-14.98,1.56-30.11-.14-44.37-4.98-3.09-1.05-6.13-2.25-9.1-3.61-1.39-.63-2.77-1.2-4.03-1.85l-3.59-1.95c-2.06-1.12-4.06-2.34-5.99-3.68-.86-.57-1.68-1.07-2.42-1.58s-1.32-1.03-1.91-1.49l-2.63-2.1c-.59-.48-.88-.74-.86-.78.35.17.68.38.99.61l2.75,1.91,1.95,1.39c.74.48,1.58.97,2.46,1.51,1.76,1.05,3.7,2.37,6.03,3.49l3.59,1.89c1.26.63,2.63,1.16,4.01,1.79,2.75,1.3,5.84,2.31,9.06,3.47,14.12,4.67,29.05,6.32,43.85,4.85,3.4-.42,6.64-.74,9.6-1.41,1.49-.32,2.94-.53,4.31-.88l3.93-1.05c2.52-.59,4.69-1.45,6.64-2.1.97-.34,1.89-.63,2.71-.95l2.23-.92,3.09-1.26c.36-.13.73-.21,1.11-.25Z"/>
    <path class="cls-10" d="M642.09,356.06c-8.11.43-15.03-5.8-15.46-13.91-.36-6.87,4.09-13.08,10.71-14.94-5.59-6.32-5-15.97,1.32-21.56,3.62-3.21,8.55-4.51,13.28-3.5.93-10.06,9.85-17.47,19.91-16.53,3.01.28,5.9,1.3,8.41,2.96,7.61-5.59,18.06-5.27,25.32.78,8.07-.94,15.37,4.85,16.3,12.92.54,4.68-1.19,9.34-4.66,12.53"/>
    <path class="cls-9" d="M639.86,357.99c4.22-32.24,32.51-55.82,64.98-54.16l3.24.17c34.67,3.74,50.84,35.3,46.12,69.84l-10.78,115.55-.59,5.61-81.01,12.1,1.58-29.41s-33.26-7-32.08-40.42c.67-16.16,4.62-49.31,8.55-79.27Z"/>
    <path class="cls-12" d="M663.04,477.49c15.52.79,30.93-2.9,44.42-10.63,0,0-11.49,23.53-44.69,18.91l.27-8.28Z"/>
    <path class="cls-10" d="M645.41,384.25c-.15,2.58,1.78,4.81,4.35,5.04,2.51.33,4.81-1.44,5.13-3.95,0-.04,0-.07.01-.11.15-2.59-1.79-4.83-4.37-5.06-2.52-.3-4.82,1.49-5.12,4.02,0,.02,0,.04,0,.06Z"/>
    <path class="cls-10" d="M646.23,374.71c.57.65,4.2-1.85,9.45-1.58s8.76,3,9.35,2.42c.29-.27-.25-1.43-1.85-2.69-2.14-1.65-4.74-2.6-7.44-2.71-2.68-.12-5.33.61-7.56,2.1-1.64,1.05-2.16,2.16-1.95,2.46Z"/>
    <path class="cls-10" d="M693.9,388.87c-.17,2.59,1.77,4.83,4.35,5.04,2.52.32,4.82-1.47,5.14-3.99,0-.02,0-.04,0-.06.16-2.59-1.78-4.83-4.37-5.04-2.5-.33-4.79,1.43-5.11,3.93,0,.04-.01.08-.01.13Z"/>
    <path class="cls-10" d="M696.65,378.24c.57.65,4.33-1.83,9.45-1.55s8.76,3,9.35,2.42c.29-.27-.25-1.43-1.83-2.69-2.15-1.65-4.75-2.6-7.46-2.71-2.68-.11-5.33.62-7.56,2.1-1.62.97-2.16,2.08-1.95,2.44Z"/>
    <path class="cls-10" d="M676.13,415.33c0-.29-3.13-1.01-8.26-1.91-1.3-.21-2.54-.53-2.71-1.43-.05-1.36.32-2.71,1.07-3.84,1.39-3.11,2.84-6.3,4.37-9.79,6.09-13.95,10.5-25.44,10-25.7s-5.95,10.88-12.04,24.81l-4.2,9.87c-.91,1.54-1.23,3.35-.92,5.11.31,1.01,1.1,1.79,2.1,2.1.71.25,1.45.39,2.21.42,5.13.46,8.36.65,8.38.36Z"/>
    <path class="cls-10" d="M691.06,419.63c-.82,0-1.11,5.48-6.09,9.2s-10.86,2.82-10.95,3.59c0,.34,1.28,1.13,3.78,1.32,3.26.21,6.49-.73,9.12-2.67,2.52-1.87,4.23-4.64,4.75-7.73.34-2.33-.23-3.74-.61-3.72Z"/>
    <path class="cls-10" d="M696.44,357.99c.44,1.41,5.59,1.01,11.58,2.1,5.99,1.09,10.78,2.9,11.64,1.68.4-.57-.38-1.93-2.29-3.38-5.14-3.63-11.67-4.68-17.69-2.84-2.35.71-3.53,1.68-3.24,2.44Z"/>
    <path class="cls-10" d="M648.86,359.94c.84,1.2,4.45.17,8.7.32s7.82,1.18,8.72,0c.38-.57-.13-1.76-1.64-2.94-4.19-2.93-9.73-3.04-14.03-.27-1.55,1.13-2.1,2.29-1.74,2.9Z"/>
    <path class="cls-10" d="M643.92,342.84s9.85-20.51,20.19-24.88c12.5-5.32,17.1,8.4,28.91,5.69,11.81-2.71,23.74-7.77,35.19,1.81,12.61,10.5,6.09,17.1,6.16,31.98.27,60.28,10.4,77.74,14.94,49.67.5-3.09,9.22-5.13,11.16-18.17,2.5-16.91,4.2-37.52.99-49.77-2.69-10.32-8.15-17.63-18.15-25.88-15.8-13.05-38.32-14.43-53.7-13.64-15.38.8-45.84,16.91-45.68,43.2Z"/>
    <path class="cls-9" d="M747.14,406.08c.41-5,4.79-8.71,9.79-8.3.15.01.3.03.44.05,6.2.9,12.96,4.79,11.91,17.65-1.87,22.82-24.39,16.24-24.37,15.59s1.37-15.44,2.23-24.98Z"/>
    <path class="cls-12" d="M750.57,422.87c.11,0,.38.32,1.03.67.91.48,1.97.59,2.96.32,2.48-.69,4.83-4.35,5.27-8.4.22-1.95,0-3.93-.65-5.78-.31-1.48-1.33-2.72-2.73-3.3-.92-.3-1.93.08-2.44.9-.36.61-.25,1.07-.38,1.09s-.46-.42-.19-1.34c.17-.55.52-1.03,1.01-1.34.67-.43,1.48-.57,2.25-.4,1.87.53,3.34,1.99,3.87,3.87.81,2.05,1.1,4.28.84,6.47-.5,4.58-3.21,8.7-6.6,9.37-1.27.26-2.58-.07-3.57-.9-.67-.65-.76-1.18-.67-1.22Z"/>
    <path class="cls-10" d="M748.97,361.81c-2.92,2.13-6.32,3.49-9.9,3.97-3.59.19-7.58-2.1-8-5.65-.19-1.6.29-3.42-.69-4.71s-3.51-1.18-5.42-1.07c-6.93.2-13.06-4.48-14.71-11.22-1.83,2.46-5.76,2.1-8.26.38-2.28-2.04-4.26-4.39-5.88-6.98-1.89-2.4-4.6-4.58-7.65-4.31-1.63.48-3.32.77-5.02.86-2.98-.42-4.2-4.01-4.58-7.02s-.48-6.49-2.94-8.24-5.38-.9-8.17-.63-6.3-.55-6.87-3.3c-.17-1.47.27-2.94,1.22-4.08,4.11-5.5,11.45-7.46,17.75-4.75,3.65-10.46,15.09-15.99,25.55-12.33,5.03,1.75,9.15,5.44,11.47,10.23,8.75-7.1,21.6-5.76,28.7,2.99,1.48,1.82,2.63,3.89,3.41,6.1,7.93-1.75,15.78,3.26,17.53,11.19.84,3.81.13,7.79-1.96,11.08,3.99,2.56,7.31,6.81,7.16,11.56s-5,9.2-9.5,7.73c1.75,4.17-.21,8.98-4.38,10.73-3.73,1.57-8.05.18-10.16-3.27"/>
    <path class="cls-4" d="M677.81,311.73c-.02.14-.02.28,0,.42v1.24c.24,1.56.73,3.07,1.45,4.48,1.14,2.23,2.78,4.16,4.79,5.65,2.65,2.02,5.89,3.12,9.22,3.13l-.36-.53c-.77,2.04-.72,4.3.15,6.3.92,2.1,2.15,4.05,3.63,5.8.7,1,1.51,1.92,2.42,2.75,1.07.81,2.31,1.34,3.63,1.55,2.71.52,5.51-.33,7.48-2.27l-.84-.29c.4,4.83,2.83,9.27,6.68,12.21,2.1,1.72,4.69,2.71,7.4,2.84,2.54,0,5.06-.42,7.46-1.26l-.59-.29c1.05,2.83,2.79,5.35,5.06,7.33,2.09,1.99,4.97,2.93,7.84,2.56,4.96-.81,8.97-4.49,10.19-9.37l-.53.21c2.33,1.4,5.08,1.95,7.77,1.53,2.01-.24,3.94-.96,5.61-2.1,1.05-.72,1.96-1.63,2.69-2.67.26-.35.47-.74.63-1.16-.95,1.38-2.14,2.57-3.53,3.51-1.65,1.06-3.52,1.72-5.46,1.93-2.56.33-5.15-.23-7.35-1.58l-.4-.27-.13.48c-1.21,4.54-4.98,7.94-9.62,8.68-2.62.31-5.23-.58-7.12-2.42-2.13-1.88-3.76-4.27-4.75-6.93l-.15-.44-.44.13c-2.3.8-4.71,1.2-7.14,1.2-2.5-.11-4.9-1.03-6.83-2.63-3.63-2.78-5.92-6.96-6.3-11.51l-.11-1.09-.76.8c-2.66,2.56-6.76,2.85-9.75.69-.85-.78-1.62-1.65-2.29-2.58-1.44-1.68-2.64-3.55-3.55-5.57-.84-1.81-.92-3.87-.21-5.74l.21-.53h-.59c-3.18.03-6.28-.97-8.85-2.86-1.97-1.41-3.6-3.24-4.77-5.36-.99-1.87-1.63-3.89-1.91-5.99Z"/>
    <path class="cls-2" d="M789.06,655.72l30.34,29.27-9.81-55.91,61.56-19.46s16.35,76.71,19.2,94.86c5.08,32.57-1.18,78.85-31.51,82.11-32.82,3.51-57.61-28.87-73.39-50.11-12.12-16.32-31.68-44.88-31.68-44.88l35.3-35.84"/>
    <path class="cls-2" d="M554.54,606.01c-9.87,31.09-23.68,35.72-29.14,124.9-1.07,17.38,11.98,39.65,27.5,47.5,15.53,7.86,42.61-1.79,51.39-16.81l8.72-65.91-58.47-89.69Z"/>
    <path class="cls-10" d="M595.34,736.15c-1.78-4.47-3.8-8.84-6.05-13.09-2.59-4.07-5.39-8-8.4-11.77,1.2.79,2.27,1.76,3.17,2.88,4.69,5.12,8.22,11.19,10.34,17.8.54,1.33.85,2.75.95,4.18Z"/>
    <path class="cls-2" d="M539.67,641.86c.53-1.83,30.91-84.52,40.59-102.63,11.6-21.66,35.97-31.22,51.1-32.17,15.13-.95,177.07,11.95,177.07,11.95,0,0,45.36,11.39,54.52,52.52,11.51,51.45,20.78,102.21,20.78,102.21l-81.16,17.54-9.48-24.14-152.51,34.04-37.23-55.09-63.68-4.24Z"/>
    <path class="cls-2" d="M820.07,834.39l-3.87-137.85,3-172.81-63.32-27.84-7.1-27.31-73.83,34.9-15.46-17.08-6.47,19.25-16.18,5.29-31.83,62.69-1.39,110.09s-7.71,129.76-3.15,164.32c0,0,11.93,19.79,48.62,20.67,74.38,1.79,170.98-34.41,170.98-34.41"/>
    <path class="cls-11" d="M755.82,645.78c0,.29-3.74,0-9.71-.42l-23.26-1.95-23.28-1.72c-5.97-.46-9.64-.82-9.64-1.11,3.21-.49,6.47-.61,9.71-.38,5.99,0,14.27.4,23.38,1.13s17.33,1.68,23.26,2.54c5.92.86,9.56,1.62,9.54,1.91Z"/>
    <path class="cls-11" d="M754.79,657.11c0,.29-3.74,0-9.71-.42l-23.26-1.93-23.28-1.74c-5.97-.46-9.64-.8-9.64-1.11,3.21-.49,6.47-.61,9.71-.38,5.99,0,14.27.42,23.38,1.13,9.12.71,17.33,1.68,23.26,2.54,3.24.28,6.44.92,9.54,1.91Z"/>
    <path class="cls-11" d="M753.76,668.43c0,.29-3.74,0-9.71-.42l-23.26-1.93-23.28-1.74c-5.97-.44-9.64-.8-9.64-1.09s3.72-.46,9.71-.4c5.99.06,14.27.42,23.38,1.13,9.12.71,17.33,1.68,23.26,2.56,3.24.27,6.44.9,9.54,1.89Z"/>
    <path class="cls-11" d="M752.73,679.76c0,.29-3.74,0-9.71-.42l-23.26-1.93-23.32-1.74c-5.97-.44-9.64-.8-9.64-1.09s3.72-.46,9.71-.38c5.99.08,14.27.4,23.38,1.11,9.12.71,17.33,1.68,23.26,2.56,3.26.26,6.47.9,9.58,1.89Z"/>
    <path class="cls-10" d="M649.02,872.33c-.08-.29-.12-.58-.13-.88,0-.71-.13-1.58-.21-2.63-.13-2.5-.32-5.86-.57-10.13-.4-8.97-.95-21.64-1.64-37.21-1.18-31.51-2.67-74.9-2.1-122.95.29-24.04,1.09-46.96,3.4-67.72,2.31-20.76,5.95-39.14,9.16-54.63s6.3-27.75,8.4-36.31c1.03-4.2,1.87-7.4,2.46-9.81.29-1.03.5-1.85.69-2.54.06-.3.16-.59.32-.86.02.3.02.6,0,.9-.15.71-.32,1.55-.5,2.58-.53,2.44-1.24,5.74-2.1,9.92-1.85,8.59-4.62,21.01-7.71,36.41-3.09,15.4-6.45,33.85-8.72,54.48-2.27,20.63-2.94,43.53-3.24,67.51-.5,47.99.78,91.44,1.6,122.89.42,15.59.78,28.26,1.01,37.23.11,4.2.17,7.65.21,10.15v2.63c-.05.34-.16.67-.34.97Z"/>
    <path class="cls-10" d="M696.61,602c1.4-.05,2.81-.01,4.2.13l12.48.76,45.53,3.11h.86v.86c-1.58,20.86-3.45,45.82-5.48,72.8v.48l-.38.27c-2.1,1.55-4.43,3.11-6.81,4.64-4.13,2.7-8.4,5.18-12.8,7.42-4.29,2.38-9.01,3.9-13.89,4.48-4.79.14-9.53-.96-13.76-3.19-3.98-2.06-7.71-4.55-11.14-7.44-1.66-1.39-3.28-2.79-4.81-4.2-.86-.73-1.57-1.61-2.1-2.61-.53-.97-.94-2-1.22-3.07-.88-3.94-1.25-7.97-1.11-12,.2-7.12.84-14.22,1.91-21.26,1.89-12.9,4.2-23.11,5.74-30.28.8-3.55,1.49-6.3,1.97-8.13.2-.96.5-1.89.88-2.79-.08.97-.23,1.93-.46,2.88-.4,2.1-.95,4.81-1.6,8.21-1.37,7.12-3.36,17.46-5.04,30.32-.97,6.96-1.53,13.98-1.66,21.01-.1,3.86.28,7.73,1.16,11.49.42,1.86,1.43,3.53,2.88,4.77,1.51,1.41,3.11,2.77,4.77,4.2,3.32,2.77,6.93,5.17,10.78,7.14,3.92,2.07,8.32,3.08,12.75,2.94,4.59-.55,9.02-1.97,13.07-4.2,4.34-2.2,8.54-4.64,12.61-7.31,2.33-1.51,4.64-3.07,6.72-4.58l-.44.78c2.1-26.96,4.2-51.92,5.86-72.76l.8.92-44.96-3.95-12.61-1.2-3.36-.38c-.46-.03-.91-.12-1.34-.27Z"/>
    <path class="cls-2" d="M748.78,468.59s-8.26,2.4-29.41,13.7c-20.76,11.07-44.37,21.2-44.37,21.2l1.81,33.34,78.47-39.44"/>
    <polyline class="cls-2" points="659.49 486.4 674.95 503.48 666.69 539.22 652.91 506.93"/>
    <path class="cls-10" d="M758.36,625.72c0,.59-14.81-.11-32.99-1.51-18.17-1.41-32.88-3.05-32.84-3.61s14.81,0,32.99,1.51c18.17,1.51,32.88,3.05,32.84,3.61Z"/>
    <g class="cls-13">
      <path class="cls-1" d="M689.38,679.34c3.55,5.86,6.87,13.89,11.72,18.72,4.72,5.05,11.11,8.24,17.98,8.97,6.08.11,12.04-1.67,17.06-5.08,8.26-5.17,13.34-13.3,17.02-22.31.53-.67-11.81,7.56-18.51,11.14-5.69,3.39-12.33,4.82-18.91,4.05-9.92-.8-18.8-8.97-26.33-15.48"/>
    </g>
    <g class="cls-13">
      <path class="cls-1" d="M674.68,507.18c-.69.5-4.98,41.24-4.98,41.24l78.75-47.59-71.69,35.99-2.08-29.65Z"/>
    </g>
    <path class="cls-6" d="M661.21,546.91c-13.07,56.57-21.88,114.04-26.35,171.92-3.03,40.17-5.29,93.41-5.29,93.41l17.92,22.19,27.46-24.31s-1.18-113.08.25-150.94c1.18-31.16-3.74-110.64-3.74-110.64l-10.25-1.64Z"/>
    <path class="cls-10" d="M800.42,597.19c.33,1.05.58,2.13.74,3.21.4,2.29.95,5.27,1.6,8.85,1.32,7.67,3.07,17.9,5.02,29.2s3.68,21.77,4.79,29.27c.57,3.74.99,6.79,1.26,8.89.19,1.09.3,2.19.32,3.3-.34-1.05-.59-2.14-.74-3.24-.42-2.27-.95-5.25-1.6-8.82-1.34-7.67-3.13-17.9-5.13-29.2-2-11.3-3.57-21.77-4.69-29.27-.53-3.61-.95-6.6-1.26-8.89-.21-1.09-.31-2.19-.32-3.3Z"/>
    <path class="cls-10" d="M823.83,528.57c.13.15-2.1,1.91-5.32,5.19-8.37,8.6-14.19,19.35-16.81,31.05-.97,4.48-1.2,7.31-1.39,7.31-.11-.7-.11-1.41,0-2.1.1-1.83.31-3.64.65-5.44,1.1-5.96,3.12-11.72,5.99-17.06,2.86-5.34,6.55-10.2,10.93-14.39,1.32-1.28,2.72-2.47,4.2-3.55.53-.42,1.12-.76,1.74-1.01Z"/>
    <polygon class="cls-6" points="675.2 519.43 668.16 516.68 661.5 528.13 660.31 546.91 669.7 548.42 676.76 536.83 675.2 519.43"/>
    <path class="cls-10" d="M599.15,575.32c.29,0,.55,46.22.55,103.37s-.25,103.39-.55,103.39-.55-46.22-.55-103.39.23-103.37.55-103.37Z"/>
    <path class="cls-10" d="M675.71,503.19c.13.11-1.53,2.63-4.01,6.81-3.27,5.45-6.25,11.06-8.95,16.81l-.74,1.6-.5,1.07-.5-1.05c-2.57-5.4-4.76-10.96-6.56-16.66-.69-2.1-1.18-3.93-1.47-5.15-.23-.62-.35-1.27-.36-1.93.15,0,.99,2.61,2.52,6.85s3.82,10.08,6.85,16.41h-.99l.76-1.62c2.7-5.81,5.8-11.42,9.27-16.81,1.34-2.1,2.48-3.66,3.3-4.75.39-.59.85-1.12,1.39-1.58Z"/>
    <path class="cls-10" d="M755.88,495.9c-.34.26-.71.47-1.09.65l-3.17,1.66-11.74,6.09c-9.9,5.15-23.47,12.48-38.49,20.51-9.16,4.87-17.82,9.39-25.36,13.17l-.69.36v-.78c0-9.79-.17-18.03-.23-23.99v-6.74c-.04-.81,0-1.62.11-2.42.13.79.19,1.59.19,2.4,0,1.7.15,3.97.25,6.77.17,5.97.38,14.2.63,23.97l-.69-.42c7.5-3.84,16.14-8.4,25.21-13.28,15.02-8.03,28.66-15.25,38.66-20.23,5-2.5,9.08-4.45,11.91-5.78l3.28-1.47c.4-.2.81-.35,1.24-.46Z"/>
    <path class="cls-10" d="M608.64,521.55c.15,0-1.07,2.1-2.67,5.76-2.06,4.64-3.58,9.51-4.52,14.5-.89,5-1.2,10.08-.95,15.15.23,3.89.63,6.3.46,6.3-.26-.52-.43-1.08-.5-1.66-.33-1.53-.57-3.07-.71-4.62-.52-5.14-.31-10.32.63-15.4.93-5.11,2.58-10.06,4.9-14.71.68-1.4,1.45-2.76,2.31-4.05.61-.82.99-1.3,1.05-1.26Z"/>
    <path class="cls-10" d="M667.97,549.62c-.17.27-1.95-.57-3.99-1.87s-3.57-2.54-3.4-2.79,1.95.59,3.99,1.87,3.57,2.54,3.4,2.79Z"/>
    <path class="cls-10" d="M671.36,545.04c-1.92-3-3.53-6.19-4.79-9.52-1.59-3.18-2.85-6.51-3.76-9.94,1.91,3,3.51,6.19,4.77,9.52,1.59,3.18,2.86,6.51,3.78,9.94Z"/>
    <path class="cls-10" d="M868.43,734.57c-.12-.14-.22-.31-.29-.48-.19-.36-.42-.84-.74-1.43s-.71-1.43-1.18-2.33-1.24-1.89-2-3c-4.62-6.26-9.91-12-15.76-17.12-7.35-6.74-16.66-14.35-27.14-23.11-5.21-4.39-10.76-8.97-16.3-14.1-5.89-5.25-11.37-10.94-16.39-17.02h.8l-31.62,33.22c-1.45,1.51-2.9,3-4.2,4.41v-.69c11.95,17.48,22.84,34.39,34.27,48.58,5.37,6.73,11.11,13.15,17.21,19.22,5.2,5.41,10.82,10.39,16.81,14.9,10.93,8.26,21.89,11.79,29.52,11.6h2.71l2.33-.25,2.1-.21,1.64-.38,2.23-.48.76-.13c-.24.1-.48.18-.74.23l-2.21.59-1.64.42-2.1.27-2.35.29h-2.73c-7.71.34-18.91-3.17-29.98-11.41-5.99-4.51-11.61-9.48-16.81-14.88-6.14-6.08-11.92-12.49-17.33-19.22-11.51-14.2-22.44-31.14-34.39-48.6l-.25-.36.32-.32,4.2-4.41,31.51-33.01.42-.44.38.48c4.97,6.06,10.39,11.73,16.22,16.98,5.53,5.11,11.05,9.73,16.24,14.12,10.5,8.72,19.71,16.41,27,23.24,5.85,5.19,11.08,11.04,15.61,17.42.74,1.13,1.37,2.1,1.93,3.05l1.11,2.42.65,1.47c.07.16.13.32.19.48Z"/>
    <g class="cls-13">
      <path class="cls-1" d="M715.84,711.38c-.21-1.78-1.08-3.43-2.44-4.6-2.61-1.7-5.88.55-8.55,2.1-7.04,4.2-15.74,4.05-23.93,3.7-24.69-.82-49.3-3.15-73.7-7-11.91-2-23.95-4.6-34.6-10.32-10.65-5.71-19.96-14.9-23.38-26.49l-5.71-3.09c4.43,9.43,3.97,36.12,5.55,46.39s6.16,17.63,16.05,20.82c4.06,1.04,8.27,1.34,12.44.88,40.61-2.1,81.58-.19,122.19-2.1,5.82-.29,12.61-1.09,15.65-5.99,2.63-4.18,1.58-9.56.44-14.31Z"/>
    </g>
    <path class="cls-9" d="M741.47,619.19s-19.25-22.02-22.69-19.58-8.4,3.76-3.63,12.61c4.77,8.85,12.82,13.93,14.33,21.51,1.51,7.58-.19,25.86,8.28,32.06s20.25,22.29,20.25,22.29l29.41-30.67-11.64-8.76s7.04-17.56,6.98-26.75c-.06-9.18-6.3-20.65-6.3-20.65-.76-4.57-2.97-8.77-6.3-11.98-.53-3.95-1.31-7.85-2.33-11.7-1.58-5.82-22.67-26.16-22.67-26.16-3.97,2.79-5.02,8.22-2.37,12.29,2.89,4.69,6.11,9.17,9.64,13.4l-19.27-2.31c-1.34,5.42,1.96,10.9,7.38,12.24.25.06.5.11.75.16,10.61,2.71,13.11,6.6,13.11,6.6l-13.13,4.35s.61,7.75,6.3,7.94l5.74.17-11.83,12.94Z"/>
    <path class="cls-12" d="M746.47,606.01l12.73-.42h.27l.13.15c2.53,2.89,4.26,6.39,5.04,10.15.69,4.61-.23,9.31-2.61,13.32-2.79,4.05-6.18,7.64-10.06,10.65-3.04,2.47-5.6,5.48-7.54,8.89-1.23,2.33-1.81,4.94-1.68,7.56.13,1.87.59,2.84.48,2.88s-.15-.23-.36-.69c-.27-.67-.45-1.38-.55-2.1-.3-2.73.18-5.49,1.41-7.94,1.89-3.56,4.46-6.71,7.56-9.29,3.76-3.01,7.06-6.54,9.79-10.5,2.24-3.8,3.14-8.24,2.54-12.61-.71-3.6-2.31-6.97-4.66-9.79l.34.15c-7.94.06-12.86-.11-12.84-.4Z"/>
    <path class="cls-12" d="M773.32,600.95c-.17,0-.71-1.03-1.95-2.52-1.66-1.91-3.86-3.27-6.3-3.91-2.46-.61-4.99-.86-7.52-.71-1.07.14-2.16.14-3.24,0,1-.46,2.07-.73,3.17-.78,2.63-.37,5.31-.22,7.88.44,1.43.41,2.79,1.06,4.01,1.91.98.71,1.83,1.59,2.52,2.58.74.84,1.24,1.88,1.43,2.98Z"/>
    <path class="cls-12" d="M768.07,586.51c-.23.23-3.09-2.65-7.33-5.13s-8.15-3.61-8.07-3.93c6.14.83,11.69,4.09,15.4,9.06Z"/>
    <path class="cls-10" d="M532.84,615.66l25.32,95.64c1.4,5.3,6.24,8.95,11.72,8.85l131.08-2.58c6.57-.13,11.79-5.55,11.66-12.12-.01-.74-.1-1.48-.25-2.21l-19.31-91.6c-1.16-5.5-6.02-9.44-11.64-9.43h-138.2c-5.93,0-10.73,4.81-10.73,10.74,0,.92.12,1.84.35,2.73Z"/>
    <path class="cls-9" d="M521.83,637.23c-2.75-3.48-2.75-8.39,0-11.87,2.78-3.35,6.89-5.29,11.24-5.32,4.33.02,8.62.9,12.61,2.61,4.94,1.9,9.69,4.27,14.18,7.08,3.17,2,6.45,4.58,7.06,8.26s-3.38,7.9-6.64,6.05c4.63,1.95,8.03,6.01,9.16,10.9.69,4.69-1.81,7.19-6.3,8.53,3.47,1.45,5.18,5.38,3.89,8.91-1.66,3.51-6.49,4.48-10.11,3.09-3.51-1.7-6.54-4.24-8.82-7.4,2.59,4.48,3.48,9.73,2.52,14.81-10.14-3.64-17.43-12.61-18.91-23.28-4.95-3.94-6.48-10.81-3.66-16.47-4.01-1.24-8.57-7.4-8.26-11.6"/>
    <path class="cls-12" d="M562.88,663.52c-1.53-.99-2.97-2.09-4.33-3.3-3.31-2.76-7.19-4.75-11.37-5.82-2.28-.51-4.65-.51-6.93,0-1.85.46-3.57,1.33-5.04,2.54-1.33,1.21-2.44,2.63-3.3,4.2.02-.51.16-1,.4-1.45.56-1.25,1.38-2.36,2.4-3.28,1.51-1.38,3.32-2.38,5.29-2.92,2.43-.63,4.97-.66,7.42-.11,4.34,1.09,8.34,3.26,11.62,6.3,1.44,1.1,2.73,2.39,3.84,3.82Z"/>
    <path class="cls-12" d="M561.77,644.5c-1.82-.5-3.58-1.2-5.23-2.1-1.82-.92-3.68-1.73-5.59-2.44-2.34-.82-4.74-1.44-7.19-1.87-2.4-.44-4.87-.44-7.27,0-1.95.36-3.8,1.16-5.4,2.33-1.45,1.15-2.65,2.58-3.53,4.2,0,0,0-.59.42-1.49.61-1.3,1.51-2.44,2.63-3.34,1.64-1.35,3.59-2.28,5.67-2.71,2.53-.49,5.14-.49,7.67,0,2.51.44,4.97,1.11,7.35,2,1.92.77,3.78,1.67,5.57,2.69,1.7.79,3.33,1.7,4.9,2.73Z"/>
    <g class="cls-13">
      <path class="cls-1" d="M817.94,776.76c-1.05-3.78.32-3.8-2.69-6.3-11.09-9.69-21.25-20.38-30.36-31.96-9.33-11.68-23.89-35.38-23.89-35.38l-3.45-1.05c2.98,17.08,11.58,32.57,20.04,47.71,4.3,8.41,9.49,16.33,15.48,23.64,6.3,7.08,14.41,12.9,23.7,14.71,1.89-3.48,2.31-7.58,1.16-11.37Z"/>
    </g>
  </g>
  <g id="freepik--character-1--inject-2">
    <path class="cls-10" d="M168.27,554.33c.11.69.16,1.4.15,2.1,0,1.54.04,3.56.13,6.05v4.37c0,1.58.25,3.32.38,5.19.32,3.7.48,7.94,1.2,12.61.32,2.33.63,4.77.97,7.31s.88,5.15,1.34,7.86c.88,5.46,2.23,11.2,3.53,17.27,2.82,12.08,6.3,25.21,10.11,39.14s7.16,27.1,9.79,39.27c1.2,6.13,2.46,11.91,3.19,17.42.4,2.73.86,5.38,1.16,7.92s.5,5.02.74,7.37c.57,4.66.57,8.95.71,12.61,0,1.87.15,3.61.13,5.21s-.13,3.05-.19,4.39c-.13,2.51-.23,4.52-.32,6.05-.02.7-.09,1.41-.21,2.1-.07-.7-.07-1.4,0-2.1v-10.42c0-1.6-.17-3.32-.25-5.19-.23-3.72-.29-7.96-.95-12.61-.25-2.34-.53-4.78-.82-7.31-.32-2.54-.82-5.15-1.24-7.88-.78-5.46-2.1-11.22-3.3-17.31-2.71-12.1-6.13-25.34-9.9-39.18-3.76-13.85-7.12-27.04-9.96-39.18-1.26-6.09-2.58-11.87-3.4-17.35-.44-2.73-.95-5.36-1.28-7.9s-.59-5-.86-7.35c-.67-4.66-.76-8.93-.99-12.61,0-1.87-.23-3.61-.25-5.21v-4.39c0-2.52.11-4.52.15-6.05,0-.74.09-1.47.25-2.18Z"/>
    <path class="cls-7" d="M457.18,655.01l29.73-105.74,36.58,6.66s-8.76,9.98-8.76,19.16-6.09,95.72-6.09,95.72c0,0-36.37,10.67-51.08-13.95"/>
    <path class="cls-7" d="M486.91,549.26s-4.08-11.03-.86-20.57c3.21-9.54,14.2-16.93,13.51-22.67s5.15-19.46,10.5-18.38,9.12,6.3,4.69,15.09c-2.84,5.77-5.19,11.77-7.02,17.94,0,0,54.63-28.47,59.1-29.08s8.93-1.24,10.08,2.33-9.75,8.11-9.75,8.11l-14.71,19.1c-2.44,7.28-5.87,14.2-10.19,20.55-6.3,8.53-18.72,14.24-18.72,14.24l-15.93,19.16s-24.22-8.24-20.72-25.82Z"/>
    <path class="cls-3" d="M566.18,502.79s-.48-.32-1.34-.74c-1.22-.55-2.57-.71-3.89-.46-4.35,1.28-8.19,3.89-10.99,7.46-2.92,3.57-5.4,7.48-7.37,11.64-.74,1.8-1.7,3.5-2.86,5.06.37-1.92,1.01-3.78,1.89-5.53,1.76-4.4,4.19-8.51,7.21-12.16,3.66-4.2,8.15-7.1,12-7.52,1.51-.19,3.04.17,4.31,1.01.84.65,1.05,1.2,1.05,1.24Z"/>
    <path class="cls-3" d="M546.12,509.95c.21.36-3.32,2.75-7.86,5.36-4.54,2.61-8.4,4.43-8.61,4.08s3.3-2.77,7.86-5.38,8.4-4.43,8.61-4.05Z"/>
    <path class="cls-3" d="M517.17,522.22c-.19-.36,4.2-1.81,9.18,0s7.63,5.44,7.27,5.61-3.13-2.69-7.75-4.2-8.64-.97-8.7-1.41Z"/>
    <path class="cls-6" d="M403.02,661.12c-.27,1.58,41.39,57.8,54.9,68.35,33.15,25.86,57.53-9.12,55.09-38.72s-88.56-168.73-88.56-168.73l-27.88,65.7,6.45,73.41Z"/>
    <polygon class="cls-10" points="184.98 507.12 260.74 489.32 267.88 477.24 343.87 478.46 361.52 497.35 412.16 522.22 369.65 700.66 227.04 707.99 184.98 507.12"/>
    <path class="cls-6" d="M271.66,474.89l-28.34,17.59-59.52,12.96,18.91,239.14s-55.84,108.68-64.37,203.04h150.31s14.22-120.03,12.73-168.08c-1.49-48.05-.57-132.36-.57-132.36l-38.78-144.97,9.64-27.31Z"/>
    <path class="cls-6" d="M349.17,492.6l-5.29-16.32,19.79,19.92s11.72,4.08,14.24,5c19.69,7.35,46.54,20.82,46.54,20.82l-33.62,212.56s45.09,120.01,41.41,213.04c0,0-102.95,1.7-143.6,0l10.99-305.17s35.72-42.17,41.66-84.61c5.95-42.44,7.88-65.24,7.88-65.24Z"/>
    <path class="cls-10" d="M297.8,676.06c-.48-.39-.92-.83-1.32-1.3l-3.59-3.89-13.26-14.71-44.77-50.42-.29-.32.13-.4c2.27-8.21,4.66-16.81,7.12-25.65,1.05-3.82,2.1-7.61,3.15-11.35l.71.99-29.71-1.13h-1.01l.36-.95c8.05-21.7,14.96-40.28,19.9-53.6,2.46-6.47,4.43-11.64,5.86-15.36.65-1.68,1.2-3.03,1.6-4.08.16-.49.38-.95.65-1.39-.1.5-.24.99-.42,1.47l-1.39,4.2-5.44,15.51c-4.83,13.38-11.56,32.04-19.39,53.81l-.65-.99,29.71,1.05h.99l-.27.95c-1.03,3.72-2.1,7.52-3.15,11.35-2.46,8.82-4.85,17.44-7.14,25.63l-.17-.69,44.46,50.78c5.4,6.3,9.77,11.37,12.9,14.98l3.4,4.08c.4.44.75.92,1.05,1.43Z"/>
    <path class="cls-10" d="M288.85,947.61c-.42,0,1.55-68.89,4.43-153.81,2.88-84.92,5.55-153.79,5.97-153.77s-1.55,68.87-4.41,153.81-5.55,153.77-5.99,153.77Z"/>
    <path class="cls-10" d="M363.48,495.39c.16.56.27,1.13.34,1.7.19,1.26.42,2.9.71,4.96.59,4.48,1.41,10.72,2.44,18.45,1.95,15.88,4.66,37.82,7.77,63.03l.13,1.01-1.01-.17-16.47-2.84.86-1.09,3.13,7.02,6.18,13.82.19.44-.32.38-45.65,52.95-13.68,15.59c-1.53,1.72-2.77,3.11-3.74,4.2s-6.51,5.19-6.56,5.17,5.55-4.35,6.3-5.36l3.66-4.37,13.32-15.9,45.26-53.28-.13.82-6.18-13.8-3.13-7.04-.61-1.32,1.45.25,16.47,2.86-.9.84c-2.9-25.21-5.42-47.23-7.25-63.03-.82-7.77-1.49-14.03-1.97-18.53-.19-2.1-.34-3.7-.46-4.96-.12-.59-.17-1.19-.15-1.79Z"/>
    <path class="cls-10" d="M279.4,850.44c-3.03-4.01-9.14-6.49-12.27-2.56h.11c-3.18,2.48-4.48,6.67-3.26,10.5,1.94,4.76,7.37,7.05,12.13,5.12.08-.03.15-.06.23-.1,4.34-2.37,5.94-7.8,3.57-12.14-.15-.28-.32-.56-.51-.82Z"/>
    <path class="cls-10" d="M284.08,769.62c-3.03-3.99-9.16-6.47-12.29-2.54h.13c-3.19,2.47-4.49,6.67-3.26,10.5,1.92,4.75,7.34,7.05,12.09,5.12.08-.03.16-.07.24-.1,4.35-2.37,5.96-7.82,3.59-12.17-.15-.28-.32-.55-.5-.82Z"/>
    <g class="cls-13">
      <path class="cls-1" d="M215.99,567.16c.5,1.62,11.18,3.26,13.05,7.75s.95,9.64-.38,14.35-3.05,9.41-2.71,14.29c.59,8.72,7.46,15.53,13.91,21.45,17.98,16.53,39.92,34.5,57.95,51.05-15.95-20.34-36.73-41.39-54.35-60.28-2.79-2.6-4.94-5.81-6.3-9.37-1.39-4.6,0-9.52,1.34-14.1l5.42-18.26c.46-1.58,1.47-4.2,1.7-5.06-2.2-.47-4.43-.74-6.68-.82,0,0-15.86-1.68-22.84-1.01"/>
    </g>
    <path class="cls-10" d="M421.63,558c.02.61-.03,1.21-.17,1.81-.21,1.34-.48,3.05-.8,5.17-.8,4.66-1.87,11.09-3.17,18.91-2.71,16.18-6.3,38.18-10.5,62.5-4.2,24.33-7.96,46.47-10.93,62.42-1.49,7.98-2.73,14.41-3.66,18.91-.43,2.09-.79,3.79-1.07,5.11-.08.61-.25,1.2-.48,1.76,0-.61.07-1.23.19-1.83.21-1.32.46-3.05.8-5.15.78-4.66,1.85-11.09,3.17-18.91l10.5-62.48c4.1-24.41,7.96-46.47,10.93-62.42,1.49-7.98,2.73-14.43,3.63-18.91.44-2.1.8-3.78,1.09-5.11.09-.61.24-1.21.46-1.79Z"/>
    <path class="cls-6" d="M184.85,505.21c-11.19,3.77-20.8,11.17-27.31,21.01-12.61,18.61-34.37,199.2-33.62,211.72.76,12.52,11.77,44.29,40.97,40.11,29.2-4.18,106.9-58.45,106.9-58.45l-26.72-51.77-56.73,26.72,7.71-89.4-11.2-99.94Z"/>
    <g class="cls-13">
      <path class="cls-1" d="M357.05,760.62c-1.85-8.13-11.91-10.74-20.17-11.79l-134.67-17.19-11.68,37.82c1.2,8.68,2.42,17.52,6.11,25.46s10.27,15.02,18.78,17.1c7.52,1.83,15.38-.38,22.8-2.58l99.04-29.41c5.02-1.15,9.79-3.24,14.03-6.16,4.03-2.92,6.89-8.17,5.76-13.26Z"/>
    </g>
    <g class="cls-13">
      <path class="cls-1" d="M191.24,604.44c-1.62-6.3-4.08-13.66-10.23-16.07-6.56-2.56-14.16,2.21-17.08,8.61s-2.29,13.82-1.26,20.78c3.57,24.2,12.1,51.05,20,74.21l27.63-10.15c-3.66-25.63-12.69-52.27-19.06-77.38Z"/>
    </g>
    <path class="cls-6" d="M476.62,582.4l-27.19,81.94,35.3,25.63,28.45,11.43c0-.15,5.32-40.93,3.97-26.68l6.3-84.14-46.83-8.17Z"/>
    <path class="cls-10" d="M476.62,582.4c-.11,1.23-.32,2.45-.65,3.63-.46,2.33-1.26,5.67-2.33,9.77-2.1,8.24-5.71,19.41-10.08,31.51s-8.07,23.28-10.38,31.51c-1.16,4.08-2.1,7.37-2.67,9.69-.25,1.21-.61,2.39-1.07,3.53.13-1.23.35-2.44.65-3.63.48-2.33,1.28-5.67,2.35-9.79,2.1-8.21,5.71-19.39,10.08-31.51s8.05-23.28,10.38-31.51c1.16-4.08,2.1-7.4,2.67-9.69.27-1.19.62-2.37,1.05-3.51Z"/>
    <path class="cls-10" d="M467.75,705.81c-1.29-1.31-2.43-2.77-3.38-4.35-2.5-3.66-4.79-7.45-6.87-11.37-2.07-3.91-3.93-7.93-5.57-12.04-.75-1.68-1.32-3.43-1.7-5.23.95,1.57,1.75,3.21,2.42,4.92,1.41,3.07,3.4,7.29,5.82,11.85s4.79,8.57,6.56,11.45c1.04,1.51,1.95,3.11,2.73,4.77Z"/>
    <path class="cls-10" d="M184.85,689.19c-2.94-.69-5.82-1.63-8.59-2.82-2.89-.83-5.7-1.91-8.4-3.24,3.04.28,6.01,1.03,8.82,2.21,2.9.86,5.66,2.16,8.17,3.84Z"/>
    <path class="cls-10" d="M193.4,573.01c-.37-.55-.66-1.16-.84-1.81-.48-1.2-1.11-2.94-1.81-5.15-3.59-11.47-5.42-23.42-5.42-35.44,0-2.29,0-4.2.17-5.44,0-.67.08-1.33.27-1.97.17,0,.15,2.84.34,7.42.43,11.91,2.25,23.74,5.4,35.23,1.18,4.41,2.06,7.12,1.89,7.16Z"/>
    <g class="cls-13">
      <path class="cls-1" d="M366.94,589.69l9.94.67c-4.37-5.74-11.64-8.47-18.7-7.02.23,5.99,6.47,10.65,6.09,16.64-.56,3.18-2.08,6.11-4.35,8.4l-18.55,22.84,1.3,11.43c7.58-10.82,15.23-21.01,22.82-31.73,2.54-3.15,4.39-6.79,5.44-10.69.84-3.97-.46-8.61-3.99-10.55Z"/>
    </g>
    <g class="cls-13">
      <path class="cls-1" d="M465.56,620.05l3-8.85c-5.06,15.19-22.25,26.85-27.9,41.83-4.66,12.92-2.28,27.33,6.3,38.05,1.95,2.4,5.32,4.71,7.88,2.96,1.98-1.16,2.97-3.48,2.44-5.71-.8-2.1-6.7-14.35-7.75-16.28-.78-1.47.99-5.69,3.34-13.59,4.05-13.95,8.53-24.48,12.69-38.41Z"/>
    </g>
    <path class="cls-10" d="M246.83,379.82c-.62,27.3,10.48,53.55,30.49,72.13l13.64-39.48"/>
    <path class="cls-10" d="M349.48,301.3c-11.7-6.3-25.82-7.31-38.89-4.71-13.07,2.61-25.21,8.55-36.79,15.21-6.49,3.76-12.94,7.88-17.59,13.72-8.51,10.69-16.81,28.24-17.71,41.87-.67,11.01,3.55,38.6,8.21,48.6,4.2,9.18,24.27,16.18,34.14,18.45l90.6-105.34c-3.31-11.83-11.23-21.85-21.98-27.8Z"/>
    <path class="cls-10" d="M365.09,315.51l-21.62-3.89c11.87,28.28,15.09,92.93,21.87,122.82,8-11.62,26.6-47,25.61-61.05s-.06-60.28-25.86-57.88Z"/>
    <path class="cls-7" d="M377.51,361.6c-1.41-21.7-15.84-48.32-37.46-45.95l-50,12.75c-15.79,4.03-27.11,17.89-27.9,34.16,0,.82-.15-.19-.13.44l11.16,129.48,37.54,74.5h0l33.13-78.14v-18.91s27.71-4.66,33.36-40.84c2.84-17.98,1.97-43.41.29-67.51Z"/>
    <path class="cls-10" d="M368.79,388.92c.04,2.52-1.96,4.61-4.48,4.69-2.45.19-4.59-1.65-4.78-4.1,0-.03,0-.07,0-.1-.04-2.51,1.94-4.59,4.45-4.69,2.45-.2,4.6,1.62,4.8,4.08,0,.04,0,.08,0,.13Z"/>
    <path class="cls-10" d="M372.09,375.76c-.57.61-4.2-1.97-9.08-1.95s-8.66,2.52-9.2,1.91c-.25-.27.32-1.37,1.91-2.52,2.16-1.5,4.73-2.3,7.35-2.29,2.59-.02,5.13.79,7.23,2.31,1.53,1.18,2.06,2.27,1.79,2.54Z"/>
    <path class="cls-10" d="M325.49,388.92c.04,2.52-1.96,4.61-4.48,4.69-2.45.19-4.59-1.65-4.78-4.1,0-.03,0-.07,0-.1-.04-2.51,1.94-4.59,4.45-4.69,2.45-.2,4.6,1.62,4.8,4.08,0,.04,0,.08,0,.13Z"/>
    <path class="cls-10" d="M324.69,375.76c-.57.61-4.1-1.97-9.08-1.95s-8.66,2.52-9.2,1.91c-.25-.27.32-1.37,1.91-2.52,2.16-1.5,4.73-2.3,7.35-2.29,2.59,0,5.12.8,7.23,2.31,1.53,1.18,2.06,2.27,1.79,2.54Z"/>
    <path class="cls-10" d="M340.3,414.97c0-.29,3.07-.84,8.09-1.49,1.28-.13,2.48-.38,2.69-1.26.12-1.31-.17-2.63-.84-3.76-1.22-3.08-2.49-6.32-3.8-9.71-5.25-13.8-9.08-25.21-8.4-25.36s5.27,10.82,10.5,24.62c1.28,3.4,2.48,6.64,3.63,9.75.81,1.54,1.04,3.31.67,5-.38.91-1.15,1.6-2.1,1.87-.69.18-1.39.28-2.1.29-2.77.37-5.57.38-8.34.04Z"/>
    <path class="cls-3" d="M295.91,457.09s11.77,24.83,47.94,21.37v-8.4c-16.87.21-33.47-4.28-47.94-12.96Z"/>
    <path class="cls-10" d="M323.12,357.74c-.48,1.34-5.46.71-11.32,1.45s-10.5,2.31-11.37,1.09c-.34-.57.48-1.85,2.4-3.17,5.16-3.27,11.53-3.99,17.29-1.95,2.14.86,3.21,1.93,3,2.58Z"/>
    <path class="cls-10" d="M370.45,360.51c-.86,1.13-4.31,0-8.4,0s-7.63.78-8.4-.42c-.34-.57.21-1.7,1.72-2.77,4.2-2.63,9.57-2.48,13.61.38,1.39,1.09,1.81,2.25,1.47,2.82Z"/>
    <path class="cls-10" d="M367.7,328.58c-2.61-5.41-8.05-8.9-14.06-9.01-5.91,0-11.7,1.69-16.68,4.87-21.54,12.44-32.61,42.5-53.89,55.38-5.23,3.17-12.04.27-16.49,4.48s-7.33,10.88-4.87,16.49c-3.04-3.79-5.53-7.99-7.37-12.48-1.86-4.56-1.64-9.71.59-14.1,1.85-3.19,5.08-5.63,5.99-9.2.78-3.15-.46-6.43-.32-9.66.35-3.29,1.48-6.45,3.3-9.22,8.4-14.71,19.81-28.09,34.58-36.37,9.63-5.58,20.6-8.42,31.73-8.21,11.17.26,21.88,4.51,30.19,11.98,4.77,4.45,9.77,9.03,7.31,15.06"/>
    <path class="cls-7" d="M267.1,388.75c-.38-1.03-19.25-7.84-19.5,12.21-.25,19.48,19.41,15.63,19.46,15.09s.04-27.29.04-27.29Z"/>
    <path class="cls-3" d="M261.12,408.62s-.34.23-.92.48c-.81.32-1.71.32-2.52,0-2.1-.78-3.76-4.05-3.82-7.58-.04-1.66.3-3.32.99-4.83.38-1.23,1.35-2.2,2.58-2.58.84-.27,1.75.14,2.1.95.25.55.13.92.23.97s.42-.32.27-1.13c-.1-.48-.37-.91-.76-1.22-.53-.41-1.2-.59-1.87-.5-1.63.3-2.99,1.43-3.57,2.98-.85,1.68-1.27,3.54-1.24,5.42.11,3.91,2.1,7.61,4.87,8.4,1.06.33,2.2.15,3.11-.48.5-.4.61-.82.55-.86Z"/>
    <path class="cls-4" d="M259.44,378.75c.42-.17.81-.39,1.18-.65.74-.46,1.89-1.09,3.26-2.1,3.84-2.8,7.36-6,10.5-9.56,4.6-5.32,8.89-10.9,12.86-16.7,4.79-7.11,10.17-13.81,16.07-20.02,3.15-3.1,6.63-5.85,10.38-8.19,3.51-2.15,7.27-3.86,11.2-5.08,6.66-2.14,13.66-3,20.63-2.54,4.71.29,9.36,1.2,13.82,2.71,1.6.48,2.79,1.03,3.61,1.34.4.19.83.34,1.26.44-.38-.23-.78-.44-1.2-.61-1.15-.57-2.34-1.07-3.55-1.49-4.47-1.66-9.15-2.67-13.91-3.03-7.09-.56-14.23.25-21.01,2.4-4,1.22-7.83,2.94-11.41,5.11-3.8,2.41-7.32,5.23-10.5,8.4-5.95,6.24-11.34,12.99-16.11,20.17-3.9,5.82-8.11,11.43-12.61,16.81-3.09,3.56-6.53,6.81-10.25,9.71-1.34,1.01-2.46,1.68-3.17,2.21-.37.21-.72.44-1.05.69Z"/>
    <path class="cls-11" d="M258.91,412.07c-2.1-.41-4.12.96-4.53,3.06s.96,4.12,3.06,4.53c2.1.41,4.12-.96,4.53-3.06.34-1.74-.55-3.49-2.16-4.24"/>
    <path class="cls-10" d="M259.81,412.36c.84.67,1.45,1.58,1.74,2.61.28,1.08,0,2.24-.76,3.07-1.22,1.43-3.36,1.61-4.8.4-.69-.58-1.11-1.41-1.19-2.31-.14-1.11.29-2.22,1.16-2.94.84-.67,1.87-1.06,2.94-1.11,0,0-.32-.21-.92-.21-2.24.03-4.03,1.87-4,4.11,0,.08,0,.16.01.24.18,2.31,2.19,4.05,4.51,3.87,1.13-.09,2.18-.63,2.91-1.5.9-1.04,1.19-2.48.76-3.78-.26-.84-.78-1.58-1.49-2.1-.5-.34-.84-.4-.86-.34Z"/>
    <path class="cls-10" d="M264.25,384.27c-.29,5.32-.55,10.93,1.91,15.65s8.66,7.96,13.28,5.32c3.78-2.1,4.92-7,5.55-11.3,1.85-12.4,2.69-24.94,4.64-37.33l-25.38,27.67Z"/>
    <path class="cls-3" d="M328.03,424.46c-3.24,4.21-2.45,10.25,1.77,13.49.91.7,1.94,1.23,3.05,1.57,1.18.4,2.46.4,3.63,0,1.92-1.08,3.31-2.89,3.87-5.02l2.1-5.04c.57-.75.43-1.82-.32-2.39-.32-.25-.72-.37-1.13-.35l-12.5-3"/>
    <path class="cls-10" d="M336.21,438.96c-1.92.26-3.88.01-5.67-.71-2.11-.68-3.88-2.13-4.98-4.05-.64-1.18-.91-2.53-.78-3.87.09-1.38.44-2.73,1.01-3.99.56-1.23,1.35-2.34,2.33-3.26l.34-.29.42.15c8.28,2.92,14.71,4.39,14.71,4.75s-6.72-.55-15.17-3.36l.74-.17c-.83.81-1.51,1.76-2,2.82-1.06,2.05-1.19,4.45-.36,6.6.92,1.69,2.41,3,4.2,3.7,3.03,1.26,5.27,1.43,5.21,1.7Z"/>
    <path class="cls-4" d="M362.89,319.42c0,.11-1.7-.34-4.83-.42-4.41-.08-8.8.72-12.9,2.35-2.83,1.1-5.54,2.51-8.07,4.2-2.93,1.92-5.74,4.03-8.4,6.3-6.11,5.2-11.58,11.1-16.3,17.59-2.48,3.49-4.66,7.06-7.04,10.36-2.24,3.23-4.87,6.18-7.82,8.78-5.05,4.28-10.57,7.98-16.45,11.01-4.98,2.65-9.16,4.48-12.02,5.76l-3.32,1.3c-.38.18-.78.33-1.2.42.35-.25.72-.46,1.11-.63l3.24-1.6c2.82-1.41,6.93-3.34,11.83-6.05,5.78-3.09,11.21-6.81,16.18-11.09,2.86-2.58,5.42-5.48,7.61-8.66,2.33-3.26,4.52-6.85,7.02-10.36,4.76-6.56,10.31-12.51,16.53-17.71,2.67-2.27,5.48-4.37,8.4-6.3,2.64-1.71,5.46-3.12,8.4-4.2,4.2-1.61,8.68-2.33,13.17-2.1,1.21.07,2.41.24,3.59.5.45.11.87.3,1.26.55Z"/>
    <path class="cls-4" d="M263.64,372.23c-.53.45-1.11.84-1.72,1.16l-4.94,2.9-1.66.97c-.64.38-1.36.61-2.1.69-.46.04-.93-.07-1.32-.32-.43-.29-.69-.76-.71-1.28.05-.9.37-1.75.92-2.46l5.71-9.16.78.71c-1.91,1.4-4.04,2.46-6.3,3.13-2.26.66-4.62.94-6.98.82-.6-.02-1.2-.12-1.76-.32-.68-.19-1.23-.68-1.51-1.32-.22-.67-.1-1.4.34-1.95.32-.44.69-.85,1.09-1.22,2.57-2.5,4.81-5.32,6.64-8.4,1.61-2.89,3.01-5.89,4.2-8.97-.09.89-.3,1.77-.61,2.61-.75,2.34-1.74,4.6-2.94,6.74-1.78,3.19-4,6.12-6.6,8.7-.74.69-1.45,1.49-1.16,2.1s1.32.9,2.35.92c4.51.24,8.96-1.09,12.61-3.74l2.31-1.7-1.55,2.42-5.84,9.1c-.44.54-.73,1.2-.82,1.89,0,.57.48.88,1.11.84,1.25-.25,2.44-.74,3.51-1.45l5.08-2.61c.59-.34,1.22-.61,1.87-.8Z"/>
    <path class="cls-2" d="M166.59,598.85l35.42,186.25c1.4,7.43,8.57,12.32,16,10.92.02,0,.05,0,.07-.01l136.04-26.18c7.45-1.44,12.33-8.64,10.89-16.09,0-.01,0-.03,0-.04l-37.48-189.51c-1.49-7.45-8.73-12.29-16.19-10.8-.07.01-.15.03-.22.05l-133.98,29.41c-7.27,1.6-11.95,8.7-10.55,16.01Z"/>
    <path class="cls-7" d="M257.33,667.59l11.32-5.61s3.68-19.41,9.64-26.26,14.71-14.71,14.71-16.58,2.77-14.71,2.77-14.71c0,0,5.27-4.6,6.3,4.6.64,5.35.64,10.75,0,16.09l35.42-8.82c3.68-.92,8.28-.57,7.82,3.11s-2.44,5.59-5.25,7.88c-1.01.84-2.15,1.51-3.38,1.97,0,0,5.9,5.44,5.9,10.78s6.05,17.73.55,23.7-30.8,23.91-44.12,26.2c-13.32,2.29-16.6,6.3-22.77,14.16l-18.91-36.52Z"/>
    <path class="cls-3" d="M305.01,624.5c.15.29-4.05,2.75-8.8,6.41-4.75,3.66-8.24,7.02-8.4,6.81,4.58-5.77,10.52-10.31,17.29-13.22h-.08Z"/>
    <path class="cls-3" d="M338.75,628.26c-2.64,1.59-5.51,2.77-8.51,3.49-2.87,1.06-5.82,1.87-8.82,2.42,2.65-1.58,5.51-2.75,8.51-3.47,2.87-1.05,5.82-1.86,8.82-2.44Z"/>
    <polygon class="cls-6" points="178.36 694.17 256.37 661.1 285.64 719.44 178.36 774.15 178.36 694.17"/>
    <path class="cls-10" d="M254.88,662.91c.13.29-21.01,8.97-47.08,19.41-26.07,10.44-47.38,18.66-47.48,18.38s21.01-8.97,47.08-19.41,47.38-18.66,47.48-18.38Z"/>
    <g class="cls-13">
      <path class="cls-1" d="M183.51,690.58c-9.49,1.9-18.77,4.71-27.71,8.4-3.71,1.34-7.18,3.27-10.27,5.71-3.11,2.49-5.1,6.12-5.53,10.08,2.56-1.1,4.97-2.51,7.19-4.2,8.87-8.89,24.14-14.06,37.08-18.91l-.76-1.09Z"/>
    </g>
  </g>
  <g id="freepik--Desk--inject-2">
    <path class="cls-10" d="M952.05,948.45c0,.29-203.8.55-455.18.55s-455.22-.25-455.22-.55,203.8-.55,455.22-.55,455.18.23,455.18.55Z"/>
  </g>
</svg>