<?xml version="1.0" encoding="UTF-8"?>
<svg id="Layer_2" data-name="Layer 2" xmlns="http://www.w3.org/2000/svg" viewBox="0 0 1000 1000">
  <defs>
    <style>
      .cls-1 {
        fill: #000;
      }

      .cls-1, .cls-2, .cls-3, .cls-4, .cls-5, .cls-6, .cls-7, .cls-8, .cls-9 {
        stroke-width: 0px;
      }

      .cls-10 {
        opacity: .5;
      }

      .cls-11 {
        opacity: .2;
      }

      .cls-2 {
        fill: #eb996e;
      }

      .cls-3 {
        fill: #455a64;
      }

      .cls-4 {
        fill: #f5f5f5;
      }

      .cls-5 {
        fill: #ffbe9d;
      }

      .cls-6 {
        fill: #40bbff;
      }

      .cls-7 {
        fill: #263238;
      }

      .cls-8 {
        fill: #fafafa;
      }

      .cls-9 {
        fill: #fff;
      }
    </style>
  </defs>
  <g id="freepik--character-1--inject-14">
    <path class="cls-7" d="M484.89,96.74c38.92-19.59,69.38-6.6,84.06,5.52,14.67,12.12,23.2,30.18,28.22,48.52,5.02,18.35,6.91,37.37,10.86,55.88,2.46,10.7,4.15,21.56,5.04,32.5,1.79,15.88.3,44.08-8.16,57.65-8.14,13.02-16.82,24.59-29.98,32.68-4.7,2.91-10.26,5.93-15.46,4.11-3.79-1.3-6.3-4.84-8.51-8.18-40.09-60.65-71.04-126.88-91.84-196.54"/>
    <path class="cls-6" d="M385.09,757.22c5.15,0-39.42,119.76-50.91,150.35-1.27,3.39-2.14,6.37-2.14,6.37l312.05.52-3.68-290.38c.01-.19.01-.39,0-.58l-26.05-207.69c-.26-2.06-1.73-3.76-3.73-4.31-12.36-3.33-56.9-14.82-90.96-16.09-39.91-1.48-97.68,6.45-97.68,6.45,0,0-51.89,5.15-80.55,15.57-2.28.82-3.68,3.13-3.33,5.53l46.97,334.25Z"/>
    <path class="cls-7" d="M529.19,628.43c-.4,1.31-.92,2.58-1.56,3.79-.64,1.47-1.37,2.89-2.2,4.25-1,1.86-2.1,3.67-3.3,5.41-1.4,2.16-2.93,4.24-4.57,6.22-1.8,2.32-3.74,4.53-5.79,6.63-4.77,4.8-10,9.12-15.63,12.88-5.71,3.65-11.76,6.73-18.06,9.2-2.89,1.01-5.79,2.05-8.42,2.72-2.47.7-4.99,1.26-7.52,1.68-2.08.4-4.17.69-6.28.87-1.59.22-3.2.32-4.8.32-1.36.15-2.72.15-4.08,0,0-.32,5.79-.29,14.96-2.14,2.49-.49,4.95-1.11,7.38-1.85,2.66-.69,5.38-1.77,8.25-2.89,6.19-2.5,12.13-5.57,17.74-9.17,5.55-3.7,10.73-7.91,15.48-12.59,2.11-2.23,4.2-4.28,5.79-6.45,1.66-1.92,3.22-3.93,4.66-6.02,5.44-7.61,7.67-12.99,7.96-12.85Z"/>
    <g class="cls-11">
      <path class="cls-1" d="M342.63,884.86c29.74,12.19,63.7,7.94,89.52-11.2,11.26-8.16,20.69-18.84,32.85-25.64,16.84-9.38,36.9-10.27,56.15-11.58,25.73-1.85,51.69-5.01,75.89-13.98,5.05-1.48,9.63-4.24,13.28-8.02,3.33-4.02,4.46-10.36,1.19-14.47s-9.49-4.4-14.85-4.23c-80.69,2.37-154.44,8.83-232.98,27.49"/>
    </g>
    <path class="cls-5" d="M418.52,124.38v18.67l-5.3,280.19c-.46,32.47,30.62,60.11,65.41,60.34h0c35.11.23,49.43-26.05,50.45-58.96,1.04-34.41,2.89-70.65,2.89-70.65,0,0,44.54-6.14,55.34-63.67,5.35-28.65,5.21-75.86,3.85-114.49-1.18-33.75-29.5-60.16-63.25-58.98-.87.03-1.73.08-2.59.15l-106.8,7.41Z"/>
    <path class="cls-7" d="M575.64,212.94c-.06,4.02-3.33,7.25-7.35,7.26-3.91.21-7.25-2.79-7.46-6.7,0-.06,0-.12,0-.19.08-4.02,3.33-7.25,7.35-7.29,3.91-.21,7.25,2.79,7.46,6.7,0,.07,0,.14,0,.21Z"/>
    <path class="cls-7" d="M580.01,199.97c-.96.96-6.45-3.39-14.47-3.56s-13.95,3.62-14.79,2.6c-.41-.43.58-2.14,3.18-3.94,3.51-2.32,7.66-3.47,11.87-3.3,4.19.07,8.25,1.49,11.58,4.05,2.32,1.94,3.1,3.7,2.63,4.14Z"/>
    <path class="cls-7" d="M496.98,212.94c-.08,4.01-3.34,7.23-7.35,7.26-3.91.21-7.25-2.79-7.46-6.7,0-.06,0-.12,0-.19.08-4.02,3.33-7.25,7.35-7.29,3.91-.21,7.25,2.79,7.46,6.7,0,.07,0,.14,0,.21Z"/>
    <path class="cls-7" d="M501.47,199.31c-.96.93-6.45-3.39-14.47-3.59-8.02-.2-13.95,3.65-14.79,2.63-.41-.43.58-2.17,3.18-3.94,3.51-2.31,7.66-3.48,11.87-3.33,4.19.08,8.25,1.5,11.58,4.05,2.32,1.97,3.1,3.73,2.63,4.17Z"/>
    <path class="cls-7" d="M528.82,259.42c0-.46,4.98-1.19,13.02-2,2.05-.14,3.99-.49,4.37-1.88.24-2.1-.18-4.22-1.19-6.08-1.77-5.01-3.65-10.22-5.61-15.72-7.76-22.31-13.31-40.52-12.42-40.98.9-.46,7.93,17.57,15.69,39.91,1.88,5.5,3.68,10.74,5.35,15.77,1.23,2.49,1.53,5.33.84,8.02-.64,1.45-1.91,2.52-3.44,2.89-1.14.28-2.3.41-3.47.38-8.1.14-13.11.03-13.14-.32Z"/>
    <path class="cls-2" d="M531.74,353.97c-27.26-.33-53.89-8.22-76.93-22.81,0,0,17.68,40.26,75.77,36.44l1.16-13.63Z"/>
    <path class="cls-2" d="M524.91,278.46c-2.97-4-7.8-6.19-12.76-5.79-3.57.23-6.89,1.9-9.2,4.63-2.25,2.67-2.61,6.45-.9,9.49,2.57,2.98,6.68,4.13,10.42,2.89,3.8-1.24,7.32-3.2,10.36-5.79.92-.61,1.72-1.4,2.34-2.32.58-.88.58-2.02,0-2.89"/>
    <path class="cls-7" d="M505.17,264.2c1.3,0,1.07,8.68,8.31,14.99,7.24,6.31,16.53,5.64,16.55,6.86,0,.55-2.11,1.65-6.02,1.62-5.08-.05-9.97-1.91-13.81-5.24-3.69-3.18-6-7.68-6.43-12.53-.26-3.65.78-5.76,1.39-5.7Z"/>
    <path class="cls-7" d="M504.01,176.07c-.87,2.14-8.68.9-18.2,1.77s-17.05,3.21-18.23,1.24c-.52-.96.84-2.89,3.97-4.98,8.41-4.98,18.64-5.83,27.76-2.29,3.39,1.48,5.06,3.24,4.72,4.25Z"/>
    <path class="cls-7" d="M580.3,183.85c-1.77,1.77-8.39-.32-16.47-.64-8.07-.32-14.88.81-16.41-1.13-.67-.93.46-2.72,3.5-4.34,4.18-2.04,8.82-2.94,13.46-2.6,4.62.15,9.11,1.53,13.02,3.99,2.78,1.94,3.68,3.85,2.89,4.72Z"/>
    <path class="cls-6" d="M358.81,412.15s-93.08,21.82-111.14,109.98c-8.31,40.52-19.91,273.42,34.33,309.68,70.01,46.71,159.18,4.23,159.18,4.23l-11.58-112.64h-57.88l-7.79-123.41c2.26,9.64-5.12-187.83-5.12-187.83Z"/>
    <path class="cls-6" d="M689.91,799.8c37.9-3.89,66.21-36.63,64.57-74.7l-38.03-161.58s-24.66-138.63-102.6-151.14l26.57,211.28-2.55,44.54s1.22,29.46,4.2,84.68l47.84,46.92Z"/>
    <path class="cls-7" d="M699.98,698.7c-4.7.17-9.38.69-14.01,1.53-22.85,4.64-40.57,22.73-44.74,45.67-.76,4.65-1.17,9.35-1.24,14.07-.3-1.25-.45-2.53-.43-3.82-.16-3.5.06-7,.64-10.45,3.79-23.61,22.12-42.22,45.67-46.37,3.45-.63,6.95-.93,10.45-.87,1.23-.07,2.46,0,3.68.23Z"/>
    <path class="cls-7" d="M633.18,523.4c.13.75.19,1.52.17,2.29,0,1.62,0,3.79.2,6.51,0,5.79.41,13.86.84,23.96.84,20.26,2.72,48.16,5.01,78.98,2.29,30.82,3.99,58.78,4.54,79.04.29,10.13.43,18.32.35,23.99v6.51c.07.76.07,1.53,0,2.29-.13-.75-.19-1.52-.17-2.29,0-1.62,0-3.79-.2-6.51,0-5.79-.41-13.83-.84-23.96-.81-20.26-2.72-48.13-4.98-78.98-2.26-30.85-4.02-58.75-4.57-79.01-.29-10.13-.41-18.35-.35-24.02v-6.51c-.05-.76-.05-1.53,0-2.29Z"/>
    <path class="cls-7" d="M371.8,723.42c-.13-.53-.2-1.07-.2-1.62,0-1.24-.17-2.89-.32-4.66-.23-4.25-.55-10.01-.93-17.08-.84-14.47-2.11-34.35-3.62-56.38-1.5-22.02-2.89-41.73-3.91-56.35-.46-7.03-.84-12.82-1.13-17.08,0-1.88-.17-3.42-.23-4.63-.07-.55-.07-1.1,0-1.65.14.53.23,1.07.26,1.62,0,1.22.32,2.75.52,4.63.41,4.23.96,9.99,1.62,17.05,1.27,14.47,2.89,34.3,4.34,56.32,1.45,22.02,2.6,41.97,3.15,56.41.26,7.24.46,13.08.49,17.1v4.66c.06.55.04,1.1-.06,1.65Z"/>
    <path class="cls-7" d="M371.8,723.42c0,.26-2.89.41-7.58,1.94-12.1,4-20.91,14.48-22.78,27.09-.72,4.75-.35,7.76-.61,7.79s-.29-.72-.46-2.08c-.22-1.92-.22-3.86,0-5.79.68-6.49,3.28-12.63,7.47-17.63,4.24-4.95,9.83-8.55,16.09-10.36,1.89-.53,3.83-.86,5.79-.98,1.33-.14,2.08-.09,2.08.03Z"/>
    <path class="cls-7" d="M441.03,836.06c-.18-.58-.3-1.19-.35-1.79-.17-1.33-.38-3.04-.67-5.15-.52-4.66-1.24-11.06-2.14-18.93-1.71-16.15-4.02-38.17-6.57-62.49-.84-8.45-1.68-16.64-2.43-24.22l.72.67-46.31-.29-13.46-.2h-3.59c-.41.05-.83.05-1.24,0,.41-.11.82-.16,1.24-.14h3.59l13.46-.2,46.31-.26h.64v.67l2.49,24.2c2.37,24.34,4.51,46.31,6.11,62.57.69,7.87,1.27,14.3,1.68,18.96.17,2.11.29,3.85.41,5.18.08.48.12.96.12,1.45Z"/>
    <path class="cls-7" d="M441.03,836.06c-.72.31-1.45.57-2.2.78l-6.34,2.03c-5.53,1.74-13.54,4.17-23.56,6.83-11.72,3.2-23.63,5.68-35.66,7.41-14.82,2-29.89,1.29-44.46-2.11-7.55-1.63-14.99-3.72-22.29-6.25-3.5-1.27-6.95-2.55-10.27-3.94-1.65-.69-3.3-1.36-4.86-2.2l-2.37-1.19-2.23-1.42c-5.44-3.68-10.17-8.32-13.95-13.69-3.33-4.62-6.23-9.53-8.68-14.67-3.44-7.43-6.34-15.1-8.68-22.95-.87-2.89-1.5-4.92-1.88-6.4-.24-.75-.42-1.51-.55-2.29.35.71.63,1.44.84,2.2l2.14,6.31c2.57,7.73,5.62,15.29,9.15,22.63,2.47,5.07,5.37,9.91,8.68,14.47,3.74,5.21,8.38,9.7,13.72,13.26l2.14,1.36,2.29,1.16c1.5.81,3.15,1.45,4.8,2.14,3.3,1.36,6.71,2.63,10.22,3.85,7.24,2.51,14.62,4.58,22.11,6.19,14.4,3.36,29.29,4.12,43.96,2.23,11.98-1.67,23.86-4.03,35.57-7.06,10.01-2.55,18.06-4.83,23.65-6.37l6.43-1.77c.74-.26,1.51-.44,2.29-.55Z"/>
    <path class="cls-3" d="M488.15,617.78c20.26,16.7,67.9,56.23,67.9,56.23l26.66-4.75-80.81-67.98c-4.35-3.64-10.77-3.27-14.67.84h0c-4.09,4.25-3.95,11.01.3,15.1.2.19.41.38.63.56Z"/>
    <path class="cls-3" d="M486.15,609.1l-10.48-9.46c-2.05-1.86-2.26-5-.49-7.12h0c1.85-2.16,5.1-2.42,7.26-.57.04.03.08.07.12.1l10.1,9.26-6.51,7.79Z"/>
    <path class="cls-7" d="M517.24,614.19c-1.77,2.95-3.97,5.63-6.51,7.96-2.19,2.66-4.74,5-7.58,6.95,1.78-2.96,3.97-5.65,6.51-7.99,2.18-2.66,4.73-4.99,7.58-6.92Z"/>
    <path class="cls-7" d="M517.99,647.48c-2.85-1.5-5.55-3.26-8.07-5.27-4.8-3.47-11.32-8.51-18.18-14.47-3.51-2.62-6.42-5.96-8.51-9.81-1.48-3.37-1.57-7.18-.26-10.62.88-2.28,2.36-4.28,4.28-5.79,1.36-1.01,2.26-1.33,2.29-1.24s-.72.58-1.91,1.71c-1.68,1.59-2.94,3.58-3.65,5.79-1.07,3.18-.89,6.65.52,9.7,2.09,3.61,4.9,6.75,8.25,9.23,6.8,5.93,13.17,11.08,17.83,14.76,2.59,1.85,5.07,3.86,7.41,6.02Z"/>
    <path class="cls-5" d="M430.5,732.42c19.22-6.43,39.59-2.08,58.78-8.54,6.59-1.73,12.76-4.77,18.15-8.94,6.11-5.41,9.2-13.37,14.07-19.91,14.47-19.56,41.65-23.62,65.9-26.05,5.62-.91,11.36-.83,16.96.23,5.69,1.15,10.37,5.19,12.33,10.65,1.56,5.47-1.97,12.3-7.64,12.88,5.33.23,9.03,5.61,10.01,10.85.98,5.24,0,10.62.81,15.89.98,7.41,5.04,14.33,4.8,21.79-.32,10.22-8.68,18.64-18.23,22.57-9.55,3.94-19.88,4.46-29.98,5.79-49.78,7-87.41,35.22-135.42,56.55"/>
    <path class="cls-5" d="M619.52,710.4c1.97,3.22,6.18,4.23,9.39,2.25.13-.08.26-.17.39-.26,3.03-2.41,4.48-6.3,3.76-10.1-.76-3.73-2.41-7.23-4.8-10.19-4.23-5.47-8.87-10.61-13.89-15.37l-15.34,12.91,20.49,20.75Z"/>
    <path class="cls-2" d="M613.85,693.55c0,.49-9.44-.29-20.81,1.48-11.37,1.77-20.26,5.18-20.26,4.75,1.73-1.14,3.62-2.02,5.61-2.6,4.7-1.67,9.54-2.89,14.47-3.65,4.93-.75,9.92-1.01,14.91-.78,2.05-.03,4.1.25,6.08.81Z"/>
    <path class="cls-2" d="M620.62,723.71c0,.46-7.9-1.16-17.65-.87-9.75.29-17.51,2.2-17.6,1.74,11.36-4.02,23.71-4.33,35.25-.87h0Z"/>
    <path class="cls-2" d="M619,714.8c-.26,0,0-2.26-.43-5.79-.56-4.58-2.15-8.98-4.66-12.85-.6-.94-1.26-1.83-1.97-2.69l-.43-.55.46-.46c2.67-2.71,4.12-6.39,4.02-10.19,0-2.89-.87-4.51-.67-4.6,1.03,1.29,1.6,2.89,1.62,4.54.45,4.17-1,8.32-3.94,11.32v-1.01c.76.92,1.47,1.89,2.11,2.89,2.64,4.07,4.18,8.76,4.46,13.6.23,1.95.03,3.92-.58,5.79Z"/>
    <path class="cls-3" d="M619.55,708.75l25.24,23.67,3.21,14.07-23.33-5.27c-3.36-11.87-5.82-23.18-5.12-32.47Z"/>
    <path class="cls-4" d="M585.37,738.9c-.52.93-136.26,67.84-136.26,67.84v14.47l138.52-72.07,171.83-6.4v-10.19l-174.09,6.34Z"/>
    <path class="cls-7" d="M449.11,823.21c.96-.64,149.86-14.07,149.86-14.07l160.48-66.57-171.83,6.48-138.52,72.07v2.08Z"/>
    <path class="cls-5" d="M591.68,787.58c-1.19-7.81,6.28-14.47,13.89-16.58,7.61-2.11,15.74-1.24,23.44-2.89,4.89-1.34,9.66-3.05,14.3-5.09,23.73-9.09,49.78-9.58,75.25-9.93,3.05,7.12.62,15.4-5.79,19.74,2.1,6.23,1.83,13.01-.78,19.04-2.63,5.98-6.21,11.48-10.62,16.29-3.33,4.41-7.61,8-12.53,10.51-5.15,1.89-10.62,2.73-16.09,2.49-17.08.35-35.37.38-49.46-9.2-10.97-7.47-18.55-20.26-31.26-24.02h2.89"/>
    <path class="cls-2" d="M705.42,778.12c-1.06.24-2.15.35-3.24.32l-8.91.29c-7.52.17-17.92.29-29.38.35h-16.21c-2.43.03-4.84-.33-7.15-1.07-2.06-.73-3.86-2.05-5.18-3.79-1.12-1.46-1.6-3.31-1.33-5.12.22-1.34.84-2.59,1.79-3.56.72-.85,1.79-1.32,2.89-1.27-.99.34-1.88.92-2.6,1.68-1.92,2.19-1.92,5.46,0,7.64,1.23,1.51,2.86,2.64,4.72,3.24,2.2.64,4.48.94,6.77.87h45.55l8.91.17c1.13-.06,2.25.03,3.36.26Z"/>
    <path class="cls-2" d="M696.68,792.42c-1.33.38-2.7.64-4.08.78-2.66.43-6.51.98-11.29,1.45-5.63.56-11.29.69-16.93.38-6.9-.56-13.73-1.7-20.43-3.42-12.1-2.95-24.5-4.48-36.96-4.54-4.78,0-8.68.17-11.32.32-1.4.12-2.8.12-4.2,0,1.35-.37,2.74-.6,4.14-.69,3.77-.47,7.55-.74,11.35-.81,12.56-.26,25.11,1.13,37.31,4.14,6.65,1.7,13.43,2.88,20.26,3.53,5.58.38,11.18.38,16.76,0,4.78-.32,8.68-.72,11.29-.96,1.36-.2,2.74-.25,4.11-.17Z"/>
    <path class="cls-2" d="M682.53,807.7c-1.04.32-2.12.51-3.21.58-2.05.29-5.06.67-8.68.98-9.72,1.02-19.54.7-29.17-.96-11.43-2.17-20.26-8.02-27.12-10.71-3.7-1.5-7.53-2.67-11.43-3.5,1.08-.13,2.18-.08,3.24.17,2.97.45,5.89,1.23,8.68,2.34,7.09,2.52,15.92,8.1,27.03,10.22,9.56,1.62,19.28,2.07,28.94,1.36l8.68-.49c1.01-.11,2.03-.11,3.04,0Z"/>
    <g class="cls-11">
      <path class="cls-1" d="M644.03,729.99c1.11-10.61,3.97-20.97,8.45-30.65,4.54-9.68,12.22-17.54,21.79-22.29,9.78-4.67,21.28-3.97,30.42,1.85,2.71,1.75,4.83,4.28,6.08,7.26,1.24,3.03.67,6.5-1.48,8.97-3.18,3.42-8.68,2.89-13.26,2.66-21.79-.6-41.94,11.54-51.6,31.08"/>
    </g>
    <g class="cls-11">
      <path class="cls-1" d="M392.7,721.19c11.58-20.75,7.41-46.77-1.42-68.77-8.83-22-22-42.26-28.74-65-1.27,46.15,5.44,92.16,19.83,136.03"/>
    </g>
    <path class="cls-6" d="M413.08,403.78s14.04,33.08,64.69,30.97c50.65-2.11,52.27-41.39,52.27-41.39l33.89,36.03-32.18,66.31-43.24,32.27-58.9-24.2-48.54-37.62,32.01-62.37Z"/>
    <g class="cls-10">
      <path class="cls-8" d="M294.47,545.19c.52.64-6.08,6.83-14.79,13.81-8.71,6.98-16.15,12.1-16.67,11.43s6.08-6.8,14.76-13.78c8.68-6.97,16.18-12.13,16.7-11.46Z"/>
    </g>
    <path class="cls-8" d="M318.29,509.51c-.26.75-8.25-1.5-16.9-6.86-8.65-5.35-14.3-11.4-13.75-11.98s6.92,4.31,15.31,9.44c8.39,5.12,15.57,8.6,15.34,9.41Z"/>
    <path class="cls-8" d="M361.7,513.39c.69.52-5.79,9.81-12.99,21.62-7.21,11.81-12.79,21.65-13.54,21.27s3.56-10.91,11-22.86c7.44-11.95,14.93-20.55,15.54-20.03Z"/>
    <path class="cls-8" d="M324.54,613.96c-.58.52-7.26-6.31-13.11-16.41-5.85-10.1-8.51-19.28-7.76-19.54s4.6,8.19,10.36,18c5.76,9.81,11.17,17.37,10.51,17.94Z"/>
    <path class="cls-8" d="M285.7,662.61c-.81,0-2.52-7.24-3.76-16.44-1.24-9.2-1.59-16.76-.78-16.87.81-.12,2.52,7.26,3.76,16.47,1.24,9.2,1.53,16.73.78,16.84Z"/>
    <g class="cls-10">
      <path class="cls-8" d="M322.28,675.87c-.72-.41,2.89-8.16,8.31-17.37,5.41-9.2,10.19-16.24,10.91-15.83s-2.89,8.19-8.31,17.37c-5.41,9.17-10.19,16.15-10.91,15.83Z"/>
    </g>
    <path class="cls-8" d="M279.8,726.26c-.61.55-7.06-5.79-13.34-14.93-6.28-9.15-9.84-17.37-9.15-17.8s5.47,7.12,11.58,16.09c6.11,8.97,11.55,16.09,10.91,16.64Z"/>
    <path class="cls-8" d="M337.54,717.95c.58.58-6.08,8.25-14.85,17.1-8.77,8.86-16.38,15.6-16.99,15.02-.61-.58,6.05-8.25,14.85-17.13,8.8-8.89,16.38-15.57,16.99-14.99Z"/>
    <g class="cls-10">
      <path class="cls-8" d="M304.72,821.94c-.55.58-6.98-4.75-12.82-13.14-5.85-8.39-8.68-16.21-7.99-16.53s4.78,6.71,10.48,14.79c5.7,8.07,10.94,14.27,10.33,14.88Z"/>
    </g>
    <path class="cls-8" d="M379.21,800.9c.41.72-6.71,5.56-15.89,10.8-9.17,5.24-16.99,8.91-17.37,8.19s6.71-5.56,15.89-10.8c9.17-5.24,16.96-8.91,17.37-8.19Z"/>
    <path class="cls-8" d="M408.24,776.93c-.52.61-7.26-4.54-13.4-12.97-6.14-8.42-9-16.41-8.25-16.7s4.75,6.83,10.68,14.93c5.93,8.1,11.58,14.09,10.97,14.73Z"/>
    <path class="cls-8" d="M459.44,610.26c.52.67-7.15,7.26-17.1,14.7-9.96,7.44-18.41,12.94-18.93,12.27s7.18-7.24,17.13-14.67c9.96-7.44,18.41-12.94,18.9-12.3Z"/>
    <path class="cls-8" d="M405.49,606.73c-.84,0-.69-8.02.29-17.71s2.46-17.37,3.3-17.37.69,8.02-.29,17.71c-.98,9.7-2.49,17.51-3.3,17.37Z"/>
    <g class="cls-10">
      <path class="cls-8" d="M455.24,538.97c-.46.67-9.44-4.86-19.28-13.28-9.84-8.42-16.73-16.38-16.15-16.93s8.36,6.34,18.12,14.64c9.75,8.31,17.8,14.88,17.31,15.57Z"/>
    </g>
    <path class="cls-8" d="M417.88,454.4c.64.55-5.79,9.06-14.12,19.01-8.34,9.96-15.8,17.57-16.44,17.05s5.79-9.06,14.12-19.01c8.34-9.96,15.8-17.57,16.44-17.05Z"/>
    <g class="cls-10">
      <path class="cls-8" d="M375.07,445.34c-.46.75-6.92-2.58-15.34-5.38-8.42-2.81-15.4-4.17-15.4-5.04s7.64-.81,16.44,2.17c8.8,2.98,14.73,7.55,14.3,8.25Z"/>
    </g>
    <path class="cls-8" d="M483.87,484.33c-.78-.23.58-7.26,3.07-15.72,2.49-8.45,5.15-15.11,5.79-14.88s-.55,7.26-2.89,15.72-5.15,15.14-5.96,14.88Z"/>
    <path class="cls-8" d="M509.89,550.95c-.84,0-1.13-6.95-.64-15.4s1.56-15.25,2.37-15.22,1.13,6.95.64,15.4c-.49,8.45-1.56,15.28-2.37,15.22Z"/>
    <path class="cls-8" d="M552.72,600.94c-.52.67-6.86-3.56-14.15-9.44-7.29-5.88-12.79-11.14-12.27-11.78s6.86,3.56,14.15,9.44c7.29,5.88,12.71,11.14,12.27,11.78Z"/>
    <path class="cls-8" d="M598.19,531.16c.55.61-5.09,6.51-12.62,13.14s-14.07,11.58-14.47,10.88,5.09-6.51,12.62-13.14c7.52-6.63,13.92-11.52,14.47-10.88Z"/>
    <g class="cls-10">
      <path class="cls-8" d="M577.26,498.19c-.46.69-7.61-3.24-15.31-9.64-7.7-6.4-12.91-12.71-12.33-13.26.58-.55,6.66,4.66,14.24,10.91,7.58,6.25,13.86,11.29,13.4,11.98Z"/>
    </g>
    <path class="cls-8" d="M629.88,439.44c.67.46-2.89,6.45-9.03,12.24-6.14,5.79-12.36,8.97-12.79,8.28s4.78-4.86,10.71-10.45c5.93-5.59,10.42-10.65,11.11-10.07Z"/>
    <g class="cls-10">
      <path class="cls-8" d="M593.7,433.94c0,.81-9.35.14-20.26-2.66-10.91-2.81-19.48-6.57-19.19-7.35s9.06,1.71,19.94,4.43c10.88,2.72,19.62,4.72,19.51,5.59Z"/>
    </g>
    <g class="cls-10">
      <path class="cls-8" d="M660.91,527.48c-.78-.17,1.01-11.58,5.15-24.95,4.14-13.37,8.91-23.85,9.67-23.56s-2.72,11.08-6.77,24.43-7.21,24.25-8.05,24.08Z"/>
    </g>
    <path class="cls-8" d="M675.81,591.33c-.61.55-7.76-6.02-15.98-14.73-8.22-8.71-14.47-16.21-13.75-16.79s7.73,6.02,15.95,14.73c8.22,8.71,14.38,16.21,13.78,16.79Z"/>
    <g class="cls-10">
      <path class="cls-8" d="M698.88,627.48c-.84,0-1.36-9.49-1.16-21.19.2-11.69,1.04-21.13,1.88-21.13s1.33,9.49,1.13,21.19c-.2,11.69-1.04,21.16-1.85,21.13Z"/>
    </g>
    <path class="cls-8" d="M675.46,687.04c-.67.46-6.86-7.12-12.59-17.71-5.73-10.59-8.68-19.94-7.96-20.26s4.95,8.39,10.62,18.78c5.67,10.39,10.62,18.7,9.93,19.19Z"/>
    <path class="cls-8" d="M735.23,697.92c.61.58-3.42,5.44-8.94,10.85-5.53,5.41-10.51,9.29-11.08,8.68-.58-.61,3.44-5.47,8.97-10.88,5.53-5.41,10.48-9.26,11.06-8.65Z"/>
    <g class="cls-10">
      <path class="cls-8" d="M589.71,630.05c-.75-.23,1.91-9.72,8.68-19.62,6.77-9.9,14.73-15.77,15.22-15.14s-6.19,7.29-12.73,16.87c-6.54,9.58-10.36,18.2-11.17,17.89Z"/>
    </g>
    <path class="cls-8" d="M420.95,709.44c-.81-.2.61-8.68,3.15-19.22,2.55-10.53,5.33-18.73,6.14-18.52s-.64,8.83-3.18,19.25c-2.55,10.42-5.33,18.7-6.11,18.49Z"/>
    <path class="cls-8" d="M491.94,716.53c-.46.69-7.67-3.21-16.09-8.68-8.42-5.47-14.91-10.51-14.47-11.2s7.64,3.18,16.09,8.68c8.45,5.5,15.02,10.51,14.47,11.2Z"/>
    <path class="cls-8" d="M488.47,665.25c-.69.46-4.08-3.39-7.58-8.68-3.5-5.3-5.79-9.81-5.06-10.27s4.08,3.39,7.58,8.68,5.64,9.81,5.06,10.27Z"/>
    <path class="cls-8" d="M519.81,676.94c.46.67-2.58,3.62-6.8,6.6s-8.05,4.83-8.54,4.17,2.58-3.65,6.8-6.63,8.05-4.89,8.54-4.14Z"/>
    <g class="cls-10">
      <path class="cls-8" d="M437.97,885c-.84-.26.52-6.83,1.71-14.93,1.19-8.1,1.85-14.79,2.72-14.79s1.51,6.86.26,15.22c-1.24,8.36-3.94,14.76-4.69,14.5Z"/>
    </g>
    <g class="cls-10">
      <path class="cls-8" d="M510.09,861.42c-.72.41-6.22-7.9-12.27-18.52-6.05-10.62-10.39-19.62-9.67-20.03.72-.41,6.22,7.87,12.27,18.52,6.05,10.65,10.39,19.71,9.67,20.03Z"/>
    </g>
    <g class="cls-10">
      <path class="cls-8" d="M586.58,829.26c.67.49-6.57,11.08-16.18,23.65-9.61,12.56-17.94,22.31-18.61,21.82s6.6-11.08,16.21-23.65c9.61-12.56,17.94-22.34,18.58-21.82Z"/>
    </g>
    <g class="cls-10">
      <path class="cls-8" d="M608.15,890.71c0,.81-9.46,2.89-21.39,4.6-11.92,1.71-21.71,2.46-21.82,1.65s9.44-2.89,21.39-4.63c11.95-1.74,21.71-2.46,21.82-1.62Z"/>
    </g>
    <path class="cls-8" d="M611.47,859.74c-.84-.2,0-6.37.2-13.95.2-7.58,0-13.81,1.01-13.92s2.37,6.14,2,14.04-2.43,14.04-3.21,13.83Z"/>
    <path class="cls-8" d="M508.18,895.8c-.29.72-8.13-1.85-16.29-7.76-8.16-5.9-13.14-12.45-12.53-12.94s6.4,4.86,14.3,10.48c7.9,5.61,14.88,9.41,14.53,10.22Z"/>
    <path class="cls-8" d="M385.44,891.23c-.81-.2,0-6.83,2.14-14.76s4.28-14.24,5.09-14.04-.17,6.8-2.17,14.76c-2,7.96-4.25,14.24-5.06,14.04Z"/>
    <path class="cls-7" d="M415.04,362.95c-28.48,4.13-54.91-15.61-59.03-44.09-1.41-9.74-1.7-11.13,2.3-20.12.95-2.66,5.51-7.53,7.83-9.13,5.1-2.97,10.28-5.4,15.07-1.94l34.69,24.87"/>
    <path class="cls-9" d="M389.41,358.47c.13-.17-2.2-2.06-5.19-5.83-1.74-2.19-3.26-4.55-4.53-7.04-1.46-3.07-2.56-6.29-3.26-9.62-1.21-6.14-1.11-12.47.29-18.56,1.12-4.67,2.35-7.42,2.15-7.51-.39.59-.7,1.22-.95,1.89-.79,1.76-1.43,3.58-1.93,5.44-2.66,9.66-1.62,19.96,2.91,28.89,1.32,2.55,2.93,4.94,4.78,7.13.7.85,1.44,1.65,2.23,2.42.57.6,1.18,1.16,1.83,1.67.51.44,1.07.82,1.67,1.13Z"/>
    <path class="cls-7" d="M386.41,159.57c9.83-24.37,28.95-44.22,50.98-58.52,11.82-7.67,24.93-14.05,38.97-15.31,14.05-1.26,29.13,3.13,38.17,13.96l2.47,2.73c-16.82,34.76-28.79,64.24-50.11,96.46-7.84,11.85-12.17,52.75-14.34,66.78-7.46,47.89-34.32,67.75-34.32,67.75-56.82-1.48-41.65-149.47-31.82-173.85Z"/>
    <path class="cls-9" d="M381.8,288.3c.03-.2.04-.41,0-.62v-1.81c-.12-.8-.09-1.81-.09-2.98l.05-4.12c.33-8.61,1.72-17.14,4.13-25.38,3.63-12.2,8.89-23.8,15.63-34.49,8.36-13.02,17.97-25.14,28.67-36.2,11.22-11.97,22.48-22.67,32.49-32.79,8.9-8.87,17.34-18.21,25.28-28,5.33-6.64,10.21-13.66,14.6-21,1.6-2.62,2.66-4.67,3.36-6.1l.83-1.63c.1-.18.18-.37.25-.57-.14.16-.26.34-.36.53-.22.4-.52.92-.9,1.55-.76,1.41-1.97,3.42-3.54,6-4.49,7.23-9.44,14.16-14.8,20.73-8.02,9.7-16.52,18.98-25.45,27.8-10,10.08-21.31,20.81-32.57,32.76-10.74,11.1-20.36,23.29-28.72,36.39-6.74,10.78-11.96,22.5-15.52,34.8-2.35,8.31-3.62,16.9-3.8,25.57.01,1.54.02,2.89.04,4.1s.13,2.18.19,2.97.11,1.36.14,1.85c0,.21.02.42.07.63Z"/>
    <path class="cls-3" d="M385.77,177.19c.56-1.86,1.29-3.65,2.19-5.37,1.18-1.98,2.63-3.77,4.31-5.33,2.26-2.07,4.74-3.86,7.41-5.34,5.79-3.43,13.44-6.25,21.47-10.1,8.03-3.85,16.88-8.35,25.81-13.56,15.29-8.89,29.87-18.99,43.61-30.22,5.26-4.34,9.4-7.97,12.19-10.55l3.2-3.01c.39-.33.75-.7,1.06-1.11-.43.28-.84.59-1.21.94l-3.31,2.86c-2.88,2.54-7.1,6.03-12.39,10.3-13.84,10.98-28.44,20.94-43.68,29.79-8.93,5.21-17.65,9.75-25.72,13.61-8.07,3.85-15.58,6.78-21.43,10.34-2.67,1.54-5.14,3.4-7.38,5.54-1.68,1.63-3.11,3.51-4.25,5.57-.41.73-.76,1.48-1.05,2.27-.24.58-.43,1.18-.57,1.79-.14.51-.22,1.03-.26,1.56Z"/>
    <path class="cls-3" d="M381.79,288.3c.14.74.36,1.46.65,2.16.45,1.39,1.2,3.34,2.18,5.74,2.54,6.28,5.72,12.25,9.5,17.8,2.11,3.04,4.45,5.89,6.99,8.52,2.08,2.14,4.31,4.11,6.66,5.9,1.57,1.22,3.2,2.35,4.88,3.39.58.42,1.21.77,1.86,1.05.08-.14-2.55-1.78-6.43-4.95-2.26-1.86-4.42-3.86-6.47-5.98-2.47-2.65-4.76-5.48-6.85-8.47-3.74-5.5-6.97-11.36-9.64-17.5-.97-2.24-1.78-4.11-2.42-5.62-.24-.71-.54-1.39-.92-2.02Z"/>
    <path class="cls-7" d="M513.97,93.51c92.68-10.56,80.42,128.86,80.42,128.86h0c-7.83-51.69-78.04-107.44-78.04-107.44l-14.48-2.84,12.1-18.57Z"/>
    <path class="cls-3" d="M567.19,329.57l.68-.35,1.98-1.13c2.51-1.46,4.93-3.07,7.26-4.79,3.65-2.76,7.07-5.79,10.23-9.06,4.22-4.34,7.98-9.08,11.2-14.15,8.47-13.2,13.53-28.14,14.78-43.56,1.29-18.92-2.44-37.78-10.84-54.82-4.24-8.82-9.54-17.12-15.78-24.74-5.88-7.01-12.26-13.61-19.11-19.75-6.47-5.91-12.84-11.32-18.74-16.43-5.9-5.11-11.28-9.96-16.04-14.53-7.59-7.18-14.31-15.16-20.05-23.8-.97-1.56-1.9-2.89-2.58-4.13-.68-1.25-1.23-2.26-1.7-3.13l-1.06-1.91c-.11-.23-.24-.44-.4-.65.07.25.17.48.3.7l.96,1.93c.44.89.98,1.93,1.6,3.18s1.56,2.63,2.51,4.21c5.63,8.77,12.31,16.87,19.9,24.14,4.75,4.64,10.05,9.54,15.99,14.66,5.94,5.12,12.2,10.61,18.64,16.48,6.79,6.13,13.13,12.71,18.97,19.69,6.18,7.59,11.42,15.85,15.63,24.62,8.25,16.87,11.92,35.53,10.67,54.24-1.18,15.28-6.13,30.11-14.44,43.24-5.57,8.85-12.68,16.72-21.02,23.25-3.02,2.24-5.39,3.93-7.11,4.94l-1.97,1.23c-.17.13-.33.27-.47.42Z"/>
  </g>
</svg>