<?xml version="1.0" encoding="UTF-8"?>
<svg id="Layer_2" data-name="Layer 2" xmlns="http://www.w3.org/2000/svg" viewBox="0 0 1000 1000">
  <defs>
    <style>
      .cls-1 {
        fill: #ff9a6c;
      }

      .cls-1, .cls-2, .cls-3, .cls-4, .cls-5, .cls-6, .cls-7, .cls-8, .cls-9, .cls-10, .cls-11, .cls-12, .cls-13 {
        stroke-width: 0px;
      }

      .cls-2 {
        fill: #000;
      }

      .cls-3 {
        fill: #e0e0e0;
      }

      .cls-4 {
        fill: #455a64;
      }

      .cls-5 {
        fill: #f5f5f5;
      }

      .cls-6 {
        fill: #09f;
      }

      .cls-7 {
        fill: #ebebeb;
      }

      .cls-14 {
        opacity: .3;
      }

      .cls-15 {
        opacity: .6;
      }

      .cls-8 {
        fill: #263238;
      }

      .cls-9 {
        fill: #ffbf9d;
      }

      .cls-10 {
        fill: #fafafa;
      }

      .cls-11 {
        fill: #6f4439;
      }

      .cls-12 {
        fill: #fff;
      }

      .cls-16 {
        opacity: .2;
      }

      .cls-13 {
        fill: #ae7461;
      }
    </style>
  </defs>
  <g id="freepik--background-complete--inject-2">
    <g>
      <rect class="cls-5" x="82.44" y="367.08" width="55.17" height="81.82" rx="9.78" ry="9.78" transform="translate(-310.96 371.54) rotate(-69.96)"/>
      <rect class="cls-10" x="107.64" y="357.78" width="11.56" height="81.82" transform="translate(-300 368.63) rotate(-69.96)"/>
      <path class="cls-12" d="M100.26,420.66c-.04.12-6.34-2.06-14.07-4.88s-13.96-5.2-13.91-5.34c.04-.12,6.34,2.06,14.07,4.88s13.95,5.2,13.91,5.34Z"/>
      <path class="cls-12" d="M107.06,420.33c-.04.12-7.67-2.54-17.03-5.95-9.35-3.41-16.91-6.28-16.87-6.41.04-.12,7.66,2.54,17.03,5.95,9.35,3.41,16.91,6.28,16.85,6.41h.01Z"/>
    </g>
    <g>
      <g>
        <path class="cls-5" d="M342.65,409.08c4.13,28.44-15.63,54.86-44.14,59-28.51,4.14-54.97-15.55-59.1-44-4.14-28.44,15.63-54.85,44.14-59,28.51-4.14,54.97,15.55,59.1,43.99h0Z"/>
        <path class="cls-7" d="M330.37,410.87c3.15,21.68-11.91,41.8-33.63,44.96-21.72,3.16-41.89-11.85-45.04-33.53-3.15-21.68,11.91-41.8,33.63-44.96,21.72-3.16,41.89,11.85,45.04,33.53Z"/>
        <path class="cls-3" d="M330.18,409.64c-.24.04-.66-1.65-1.73-4.58-1.09-2.9-2.9-7.06-6.29-11.4-1.69-2.16-3.76-4.35-6.25-6.4-2.5-2.02-5.39-3.9-8.68-5.36-1.64-.74-3.37-1.4-5.17-1.91-1.81-.52-3.68-.95-5.63-1.2-1.94-.26-3.92-.4-5.94-.35-2.02.05-4.06.24-6.1.59-2.04.38-4.03.9-5.94,1.55s-3.74,1.46-5.47,2.37c-1.73.9-3.36,1.95-4.87,3.06-1.52,1.1-2.92,2.33-4.21,3.58-2.58,2.51-4.65,5.28-6.3,8.04-1.63,2.77-2.82,5.54-3.67,8.14-1.68,5.24-1.96,9.77-1.98,12.86,0,3.1.19,4.85-.04,4.89-.17.04-.77-1.64-1.14-4.83-.35-3.17-.42-7.92,1.09-13.53.75-2.8,1.9-5.79,3.53-8.79,1.67-2.98,3.79-6.01,6.51-8.76,1.34-1.38,2.82-2.71,4.45-3.92,1.61-1.22,3.35-2.38,5.2-3.36,1.85-.99,3.82-1.9,5.87-2.61s4.21-1.28,6.4-1.68c2.2-.38,4.41-.58,6.59-.62,2.18-.04,4.33.13,6.41.42,2.08.28,4.11.78,6.05,1.37,1.94.58,3.79,1.33,5.52,2.15,3.49,1.65,6.55,3.75,9.13,5.98,2.58,2.26,4.68,4.68,6.34,7.04,3.35,4.74,4.92,9.23,5.69,12.32.75,3.12.77,4.89.59,4.93h.05Z"/>
      </g>
      <path class="cls-3" d="M298.89,439.41l1.09,6.84-6.1.98-1.06-6.65c-6.1.6-12.2-.36-15.98-2.45l2.16-7.98c3.41,1.77,8.08,2.71,12.54,2.43l-1.64-10.2c-7.04-.56-14.97-1.61-16.37-10.34-1.03-6.46,2.77-12.78,12.24-15.42l-1.09-6.77,6.1-.98,1.06,6.65c4.64-.36,9.29.13,12.98,1.73l-1.85,8c-3.4-1.28-6.73-1.8-9.85-1.68l1.67,10.38c7.03.5,14.84,1.57,16.22,10.17,1.02,6.34-2.74,12.58-12.14,15.28h.01ZM288.48,413.4l-1.38-8.67c-3.12,1.25-4.11,3.23-3.79,5.24.34,2.14,2.37,3,5.19,3.43h-.01ZM301.33,426.44c-.34-2.14-2.3-3.01-5.07-3.51l1.34,8.43c2.94-1.16,4.03-2.96,3.72-4.92Z"/>
    </g>
    <g>
      <g>
        <path class="cls-5" d="M233.24,316.28c2.81,19.38-10.64,37.36-30.07,40.19-19.42,2.82-37.44-10.59-40.25-29.97-2.82-19.37,10.64-37.36,30.07-40.19,19.42-2.82,37.44,10.59,40.25,29.97h0Z"/>
        <path class="cls-7" d="M224.88,317.5c2.15,14.76-8.12,28.48-22.92,30.63-14.8,2.15-28.53-8.08-30.68-22.84-2.15-14.77,8.12-28.48,22.92-30.63,14.8-2.15,28.53,8.08,30.68,22.84Z"/>
        <path class="cls-3" d="M224.74,316.66c-.16.03-.44-1.13-1.18-3.12-.74-1.98-1.98-4.81-4.29-7.77-1.16-1.46-2.57-2.97-4.26-4.35-1.71-1.37-3.67-2.66-5.91-3.66-1.12-.51-2.3-.95-3.52-1.3-1.24-.35-2.51-.65-3.83-.82-1.32-.17-2.67-.27-4.05-.24-1.37.03-2.77.16-4.15.4-1.38.26-2.74.6-4.05,1.05s-2.54,1.01-3.72,1.61c-1.18.62-2.28,1.33-3.32,2.08-1.03.75-1.99,1.59-2.86,2.43-1.76,1.71-3.17,3.6-4.3,5.47-1.12,1.88-1.92,3.78-2.5,5.55-1.14,3.56-1.33,6.65-1.34,8.76,0,2.12.13,3.31-.03,3.33-.12.03-.52-1.12-.78-3.29-.24-2.16-.28-5.39.74-9.22.51-1.91,1.29-3.94,2.41-5.99,1.13-2.03,2.58-4.09,4.44-5.97.91-.94,1.92-1.85,3.02-2.67,1.1-.83,2.27-1.61,3.55-2.28,1.26-.67,2.59-1.29,4.01-1.77,1.4-.48,2.86-.87,4.35-1.14,1.51-.26,3.01-.4,4.49-.43,1.48-.03,2.94.09,4.37.28s2.8.52,4.11.93c1.32.39,2.58.9,3.76,1.46,2.38,1.13,4.45,2.55,6.22,4.07,1.75,1.53,3.19,3.19,4.33,4.8,2.28,3.24,3.36,6.29,3.87,8.4.51,2.12.52,3.33.4,3.36l.03.04Z"/>
      </g>
      <path class="cls-3" d="M203.43,336.94l.75,4.66-4.15.66-.73-4.53c-4.15.4-8.32-.24-10.89-1.67l1.48-5.44c2.33,1.21,5.5,1.85,8.53,1.67l-1.12-6.95c-4.8-.38-10.2-1.1-11.16-7.04-.7-4.41,1.9-8.71,8.35-10.5l-.74-4.61,4.15-.67.73,4.53c3.16-.26,6.33.09,8.84,1.18l-1.26,5.44c-2.31-.86-4.58-1.22-6.71-1.14l1.13,7.07c4.78.34,10.11,1.08,11.05,6.94.7,4.33-1.87,8.57-8.27,10.4h0ZM196.33,319.22l-.94-5.9c-2.12.85-2.81,2.2-2.58,3.58.23,1.45,1.61,2.04,3.53,2.34h-.01ZM205.09,328.09c-.23-1.45-1.56-2.06-3.45-2.39l.91,5.74c2-.79,2.74-2.02,2.54-3.35h0Z"/>
    </g>
    <g>
      <g>
        <path class="cls-5" d="M436.25,366.32c2.3,15.86-8.71,30.58-24.6,32.89-15.89,2.31-30.64-8.67-32.94-24.53-2.3-15.86,8.71-30.58,24.6-32.89,15.89-2.31,30.64,8.67,32.94,24.53Z"/>
        <path class="cls-7" d="M429.41,367.31c1.76,12.08-6.64,23.31-18.75,25.07-12.11,1.76-23.35-6.61-25.11-18.7s6.64-23.31,18.75-25.07c12.11-1.76,23.35,6.61,25.11,18.7Z"/>
        <path class="cls-3" d="M429.3,366.63c-.13.03-.36-.93-.97-2.55-.6-1.61-1.61-3.94-3.51-6.36-.94-1.21-2.1-2.43-3.48-3.56-1.4-1.12-3.01-2.18-4.84-3-.91-.42-1.88-.78-2.89-1.06-1.01-.3-2.06-.52-3.13-.67-1.08-.13-2.19-.23-3.32-.19-1.13.03-2.26.13-3.4.34-1.14.22-2.24.5-3.31.86-1.06.36-2.08.82-3.05,1.32s-1.87,1.09-2.71,1.71c-.85.62-1.63,1.29-2.34,2-1.44,1.4-2.59,2.94-3.51,4.48-.91,1.55-1.57,3.09-2.04,4.54-.94,2.92-1.09,5.44-1.1,7.16,0,1.73.11,2.7-.03,2.73-.09.01-.43-.91-.63-2.69-.19-1.76-.23-4.41.6-7.54.42-1.56,1.06-3.23,1.98-4.91.93-1.67,2.11-3.35,3.63-4.88.75-.77,1.57-1.52,2.47-2.19.9-.69,1.87-1.32,2.9-1.87s2.12-1.06,3.28-1.45c1.14-.4,2.34-.71,3.58-.94,1.22-.22,2.46-.32,3.67-.35,1.21-.03,2.41.07,3.58.23s2.28.43,3.37.77c1.09.32,2.11.74,3.08,1.2,1.95.93,3.64,2.1,5.09,3.33,1.44,1.26,2.61,2.61,3.53,3.92,1.87,2.65,2.74,5.15,3.17,6.87.42,1.73.43,2.73.34,2.74h-.01Z"/>
      </g>
      <path class="cls-3" d="M411.86,383.21l.6,3.82-3.4.54-.59-3.71c-3.4.34-6.8-.2-8.91-1.37l1.21-4.45c1.91.98,4.5,1.52,6.99,1.36l-.91-5.69c-3.92-.31-8.35-.9-9.13-5.77-.58-3.6,1.55-7.12,6.83-8.6l-.6-3.78,3.4-.55.59,3.71c2.58-.2,5.17.08,7.24.97l-1.03,4.46c-1.9-.71-3.75-1.01-5.48-.94l.93,5.78c3.92.28,8.27.87,9.05,5.67.56,3.53-1.53,7.02-6.77,8.52v.03ZM406.05,368.71l-.78-4.83c-1.73.7-2.3,1.8-2.11,2.92.19,1.2,1.32,1.68,2.89,1.91ZM413.22,375.97c-.19-1.2-1.28-1.68-2.82-1.96l.75,4.69c1.64-.65,2.24-1.65,2.07-2.74h0Z"/>
    </g>
    <g>
      <path class="cls-7" d="M355.29,651.88h7.34c-.47-.36-.95-.71-1.42-1.08,1.09,3.52,2.16,7.04,3.25,10.58l5.16,16.77c.39,1.29.79,2.58,1.18,3.87.19.62.77,1.08,1.42,1.08,7-.01,14-.04,21.02-.05h3.01c1.91,0,1.91-2.93,0-2.93-7,.01-14,.04-21.02.05h-3.01c.47.36.95.71,1.42,1.08-1.09-3.52-2.16-7.04-3.25-10.58l-5.16-16.77c-.39-1.29-.79-2.58-1.18-3.87-.19-.62-.77-1.08-1.42-1.08h-7.34c-1.91,0-1.91,2.93,0,2.93h0Z"/>
      <path class="cls-7" d="M400.95,655.62c-1.38,6.13-2.77,12.26-4.15,18.4-.2.89-.4,1.76-.59,2.65.36-.27.71-.54,1.08-.81-3-.03-5.99-.05-8.99-.08-4.81-.04-9.62-.09-14.43-.13-1.1,0-2.2-.03-3.29-.03.36.27.71.54,1.08.81-1.94-6.07-3.86-12.14-5.79-18.21-.27-.86-.54-1.71-.82-2.57-.36.47-.71.93-1.08,1.4h38.08c1.42,0,1.44-2.2,0-2.2h-38.08c-.7,0-1.29.7-1.08,1.4,1.94,6.07,3.86,12.14,5.79,18.21.27.86.54,1.71.82,2.57.15.47.56.81,1.08.81,3,.03,5.99.05,8.99.08,4.81.04,9.62.09,14.43.13,1.1,0,2.2.03,3.29.03.47,0,.97-.34,1.08-.81,1.38-6.13,2.77-12.26,4.15-18.4.2-.89.4-1.76.59-2.65.31-1.38-1.83-1.96-2.14-.58h-.01Z"/>
      <path class="cls-7" d="M371.51,656.56c1.17,6.71,2.66,13.36,3.83,20.07.24,1.4,2.38.81,2.14-.58-1.17-6.71-2.66-13.36-3.83-20.07-.24-1.4-2.38-.81-2.14.58h0Z"/>
      <path class="cls-7" d="M383.26,656.26c.11,6.88.24,13.76.35,20.63.03,1.41,2.24,1.41,2.22,0-.11-6.88-.24-13.76-.35-20.63-.03-1.41-2.24-1.41-2.22,0h0Z"/>
      <path class="cls-7" d="M394.09,677.15c.94-6.12,1.88-12.22,2.82-18.33.13-.87.27-1.75.4-2.62.09-.59-.15-1.17-.78-1.36-.52-.15-1.28.19-1.37.77-.94,6.12-1.88,12.22-2.82,18.33-.13.87-.27,1.75-.4,2.62-.09.59.15,1.17.78,1.36.52.15,1.28-.17,1.37-.77h0Z"/>
      <path class="cls-7" d="M366.36,663.44h33.63c1.42,0,1.44-2.2,0-2.2h-33.63c-1.42,0-1.44,2.2,0,2.2h0Z"/>
      <path class="cls-7" d="M369.52,671.17h29.13c1.42,0,1.44-2.2,0-2.2h-29.13c-1.42,0-1.44,2.2,0,2.2h0Z"/>
      <path class="cls-7" d="M400.21,688.84c0,2.16-1.77,3.91-3.95,3.91s-3.95-1.75-3.95-3.91,1.77-3.91,3.95-3.91,3.95,1.75,3.95,3.91Z"/>
      <path class="cls-7" d="M378.46,688.84c0,2.16-1.77,3.91-3.95,3.91s-3.95-1.75-3.95-3.91,1.77-3.91,3.95-3.91,3.95,1.75,3.95,3.91Z"/>
    </g>
    <g>
      <g>
        <polygon class="cls-6" points="340.49 261.13 314.27 261.32 314.27 261.5 310.65 327.58 366.65 327.19 366.38 286.78 340.49 261.13"/>
        <polygon class="cls-3" points="340.49 261.13 314.27 261.32 314.27 261.5 310.65 327.58 366.65 327.19 366.38 286.78 340.49 261.13"/>
        <polygon class="cls-7" points="314.27 261.32 288.22 286.04 288.52 327.73 340.95 327.37 340.67 286.55 314.27 261.32"/>
        <rect class="cls-10" x="321.8" y="290.35" width="11.17" height="11.17" transform="translate(-2.06 2.29) rotate(-.4)"/>
        <rect class="cls-10" x="294.54" y="290.54" width="11.17" height="11.17" transform="translate(-2.06 2.1) rotate(-.4)"/>
        <rect class="cls-7" x="294.38" y="265.9" width="5.59" height="16.57" transform="translate(-1.91 2.08) rotate(-.4)"/>
        <rect class="cls-10" x="305.86" y="307.04" width="13" height="20.52" transform="translate(-2.21 2.19) rotate(-.4)"/>
      </g>
      <path class="cls-3" d="M340.49,261.13s.05.03.13.11c.09.09.22.2.38.34.34.32.82.78,1.42,1.36,1.25,1.22,3.05,2.97,5.32,5.19,4.58,4.5,11.06,10.89,18.79,18.49l.38.38h-.54c-7.74-.07-16.46-.13-25.71-.2h-.09l-.07-.07c-1.44-1.37-2.97-2.84-4.52-4.31-7.89-7.55-15.35-14.69-21.85-20.94h.31c-8.23,7.77-15.16,14.3-20.05,18.91-2.43,2.27-4.35,4.07-5.7,5.32-.65.59-1.16,1.06-1.52,1.4-.16.15-.3.26-.39.35-.09.08-.13.12-.15.11,0,0,.04-.05.12-.13.09-.09.22-.23.38-.38.35-.35.85-.83,1.48-1.44,1.32-1.28,3.21-3.1,5.62-5.42,4.87-4.65,11.75-11.22,19.93-19.04l.15-.15.15.15c6.52,6.22,13.99,13.36,21.89,20.9,1.55,1.48,3.08,2.94,4.52,4.31l-.16-.07c9.25.09,17.96.17,25.71.26l-.16.38c-7.67-7.66-14.11-14.09-18.67-18.61-2.23-2.26-4.01-4.03-5.24-5.27-.59-.6-1.05-1.06-1.37-1.41-.15-.15-.26-.27-.35-.36-.08-.08-.11-.13-.11-.13h-.03Z"/>
      <path class="cls-3" d="M318.85,327.53s-.03-.13-.04-.4c0-.31-.03-.69-.04-1.14-.03-1.06-.05-2.5-.08-4.27-.04-3.71-.08-8.8-.13-14.66l.24.24c-2.06,0-4.23.01-6.48.03-2.23,0-4.39,0-6.44.01l.24-.24c-.01,5.86-.03,10.97-.04,14.69-.03,1.77-.04,3.23-.05,4.29-.01.46-.03.83-.04,1.16,0,.26-.03.4-.04.4s-.03-.13-.04-.4c0-.31-.03-.69-.04-1.16-.03-1.06-.05-2.51-.08-4.29-.04-3.72-.08-8.83-.13-14.69v-.24h.24c2.04,0,4.21-.03,6.44-.03s4.42,0,6.48-.01h.24v.24c-.01,5.85-.03,10.94-.04,14.66-.03,1.77-.04,3.21-.05,4.27l-.04,1.14c0,.26-.03.4-.04.4h-.03Z"/>
    </g>
    <path class="cls-7" d="M547.39,454.19c3.68-2.23,7.62-3.92,11.67-5.07l2.41-11.55,19.52-.34,2.81,11.45c4.09,1.01,8.08,2.55,11.84,4.65l9.87-6.46,14.03,13.56-6.12,10.08c2.23,3.7,3.92,7.62,5.07,11.67l11.55,2.41.34,19.52-11.45,2.81c-1.01,4.09-2.55,8.08-4.65,11.84l6.46,9.87-13.55,14.03-10.08-6.12c-3.7,2.23-7.62,3.92-11.67,5.07l-2.41,11.55-19.52.34-2.81-11.45c-4.09-1.01-8.08-2.55-11.84-4.66l-9.87,6.46-14.03-13.55,6.12-10.08c-2.23-3.7-3.92-7.62-5.07-11.67l-11.55-2.41-.34-19.52,11.45-2.81c1.01-4.09,2.55-8.08,4.65-11.84l-6.46-9.87,13.55-14.03,10.08,6.12h0ZM557.79,480.18c-8.02,8.32-7.8,21.57.52,29.6s21.57,7.8,29.6-.52c8.02-8.32,7.8-21.57-.52-29.6s-21.57-7.8-29.6.52h0Z"/>
    <path class="cls-7" d="M735.12,517.44c2.04-1.24,4.23-2.18,6.48-2.81l1.33-6.41,10.83-.19,1.56,6.36c2.27.56,4.48,1.42,6.57,2.58l5.47-3.59,7.8,7.53-3.39,5.59c1.24,2.04,2.18,4.23,2.81,6.48l6.41,1.33.19,10.83-6.36,1.56c-.56,2.27-1.42,4.48-2.58,6.57l3.59,5.47-7.53,7.8-5.59-3.39c-2.04,1.24-4.23,2.18-6.48,2.81l-1.33,6.41-10.83.19-1.56-6.36c-2.27-.56-4.48-1.42-6.57-2.58l-5.47,3.59-7.8-7.53,3.39-5.59c-1.24-2.04-2.18-4.23-2.81-6.48l-6.41-1.33-.19-10.83,6.36-1.56c.56-2.27,1.42-4.48,2.58-6.57l-3.59-5.47,7.53-7.8,5.59,3.39h0ZM740.9,531.87c-4.46,4.62-4.33,11.98.28,16.44,4.62,4.46,11.98,4.33,16.44-.3s4.33-11.98-.28-16.44-11.98-4.33-16.44.28h0Z"/>
    <path class="cls-5" d="M742.22,351.72c1.73-1.05,3.59-1.84,5.48-2.38l1.13-5.43,9.18-.16,1.32,5.39c1.92.47,3.8,1.21,5.56,2.19l4.64-3.04,6.6,6.37-2.88,4.74c1.05,1.73,1.84,3.59,2.38,5.48l5.43,1.13.16,9.18-5.39,1.32c-.47,1.92-1.21,3.79-2.19,5.56l3.04,4.64-6.37,6.6-4.74-2.88c-1.73,1.05-3.59,1.84-5.48,2.38l-1.13,5.43-9.18.16-1.32-5.39c-1.92-.47-3.8-1.21-5.56-2.19l-4.64,3.04-6.6-6.37,2.88-4.74c-1.05-1.73-1.84-3.59-2.38-5.48l-5.43-1.13-.16-9.18,5.39-1.32c.47-1.92,1.21-3.79,2.19-5.56l-3.04-4.64,6.37-6.6,4.74,2.88h0ZM747.11,363.95c-3.78,3.91-3.67,10.15.24,13.92s10.15,3.67,13.92-.24c3.78-3.91,3.67-10.15-.24-13.92s-10.15-3.67-13.92.24Z"/>
    <path class="cls-5" d="M346.32,557.08c1.73-1.05,3.59-1.84,5.48-2.38l1.13-5.43,9.18-.16,1.32,5.39c1.92.47,3.8,1.21,5.56,2.19l4.64-3.04,6.6,6.37-2.88,4.74c1.05,1.73,1.84,3.59,2.38,5.48l5.43,1.13.16,9.18-5.39,1.32c-.47,1.92-1.21,3.79-2.19,5.56l3.04,4.64-6.37,6.6-4.74-2.88c-1.73,1.05-3.59,1.84-5.48,2.38l-1.13,5.43-9.18.16-1.32-5.39c-1.92-.47-3.8-1.21-5.56-2.19l-4.64,3.04-6.6-6.37,2.88-4.74c-1.05-1.73-1.84-3.59-2.38-5.48l-5.43-1.13-.16-9.18,5.39-1.32c.47-1.92,1.21-3.79,2.19-5.56l-3.04-4.64,6.37-6.6,4.74,2.88h0ZM351.22,569.31c-3.78,3.91-3.67,10.15.24,13.92s10.15,3.67,13.92-.24,3.67-10.15-.24-13.92-10.15-3.67-13.92.24Z"/>
    <path class="cls-5" d="M611.15,569.06c1.73-1.05,3.59-1.84,5.48-2.38l1.13-5.43,9.18-.16,1.32,5.39c1.92.47,3.8,1.21,5.56,2.19l4.64-3.04,6.6,6.37-2.88,4.74c1.05,1.73,1.84,3.59,2.38,5.48l5.43,1.13.16,9.18-5.39,1.32c-.47,1.92-1.21,3.79-2.19,5.56l3.04,4.64-6.37,6.6-4.74-2.88c-1.73,1.05-3.59,1.84-5.48,2.38l-1.13,5.43-9.18.16-1.32-5.39c-1.92-.47-3.79-1.21-5.56-2.19l-4.64,3.04-6.6-6.37,2.88-4.74c-1.05-1.73-1.84-3.59-2.38-5.48l-5.43-1.13-.16-9.18,5.39-1.32c.47-1.92,1.21-3.8,2.19-5.56l-3.04-4.64,6.37-6.6,4.74,2.88h0ZM616.04,581.29c-3.78,3.91-3.67,10.15.24,13.92s10.15,3.67,13.92-.24,3.67-10.15-.24-13.92-10.15-3.67-13.92.24Z"/>
    <path class="cls-5" d="M844.74,344.61c.99-.6,2.06-1.06,3.16-1.37l.65-3.12,5.28-.09.77,3.1c1.1.27,2.19.7,3.2,1.26l2.67-1.75,3.8,3.67-1.65,2.73c.6.99,1.06,2.06,1.37,3.16l3.12.65.09,5.28-3.1.77c-.27,1.1-.7,2.18-1.26,3.2l1.75,2.67-3.67,3.8-2.73-1.65c-.99.6-2.06,1.06-3.16,1.37l-.65,3.12-5.28.09-.77-3.1c-1.1-.27-2.19-.7-3.2-1.26l-2.67,1.75-3.8-3.67,1.65-2.73c-.6-.99-1.06-2.06-1.37-3.16l-3.12-.65-.09-5.28,3.1-.77c.27-1.1.7-2.18,1.26-3.2l-1.75-2.67,3.67-3.8,2.73,1.65h0ZM847.55,351.64c-2.18,2.24-2.11,5.83.13,8.01,2.24,2.18,5.83,2.11,8.01-.13s2.11-5.83-.13-8.01-5.83-2.11-8.01.13Z"/>
    <path class="cls-7" d="M792.43,394.88c3.15-1.9,6.49-3.35,9.95-4.33l2.04-9.85,16.64-.3,2.39,9.77c3.48.86,6.88,2.18,10.09,3.98l8.41-5.51,11.98,11.56-5.21,8.6c1.91,3.15,3.35,6.49,4.33,9.96l9.85,2.04.3,16.64-9.77,2.39c-.86,3.48-2.18,6.88-3.98,10.09l5.51,8.41-11.56,11.98-8.6-5.21c-3.15,1.9-6.49,3.35-9.95,4.33l-2.06,9.85-16.64.3-2.39-9.77c-3.48-.86-6.88-2.18-10.09-3.98l-8.41,5.51-11.98-11.56,5.21-8.6c-1.9-3.15-3.35-6.49-4.33-9.95l-9.85-2.04-.3-16.64,9.77-2.39c.86-3.48,2.18-6.88,3.98-10.09l-5.51-8.41,11.56-11.98,8.6,5.21h.01ZM801.3,417.04c-6.85,7.1-6.65,18.4.44,25.24,7.1,6.85,18.4,6.65,25.24-.44,6.85-7.1,6.65-18.4-.44-25.24-7.1-6.85-18.4-6.65-25.24.44Z"/>
  </g>
  <g id="freepik--Floor--inject-2">
    <path class="cls-8" d="M977.85,727.62c0,.19-213.96.35-477.83.35s-477.88-.16-477.88-.35,213.92-.35,477.88-.35,477.83.16,477.83.35Z"/>
  </g>
  <g id="freepik--Plant--inject-2">
    <g>
      <path class="cls-6" d="M492.42,678.97c2.24.97,3.9,3.05,4.72,5.35.83,2.3.9,4.81.63,7.24-.54,4.7-3.2,9.44-6.07,13.2-3.95-3.45-4.87-9.48-5.13-12.57-.43-4.88,1.76-13.95,5.87-13.23"/>
      <path class="cls-6" d="M496.29,712.5c-.63-2.66.47-5.56,2.51-7.38,2.04-1.81,4.89-2.58,7.61-2.38,1.26.09,2.62.46,3.33,1.51.67.97.6,2.33.05,3.37s-1.49,1.83-2.49,2.46c-3.43,2.15-7.14,3.6-11.02,2.45"/>
      <path class="cls-8" d="M491.21,726.91s.03-.35.13-.97c.12-.69.28-1.56.48-2.61.44-2.18.99-5.31,2.69-8.33,1.67-3.02,4.01-5.26,5.98-6.36.98-.56,1.83-.9,2.43-1.08.3-.09.54-.13.7-.17s.24-.04.26-.04c.03.08-1.37.32-3.27,1.51-1.91,1.14-4.17,3.35-5.81,6.32-1.67,2.97-2.26,6.05-2.76,8.21-.24,1.09-.43,1.98-.59,2.59-.15.6-.26.94-.27.94h.01Z"/>
      <path class="cls-8" d="M491.36,686.01s.03.15.05.42c.01.31.04.71.07,1.21.05,1.05.12,2.58.17,4.46.12,3.76.22,8.96.19,14.72s-.16,10.95-.32,14.72c-.08,1.88-.15,3.4-.22,4.45-.04.5-.07.9-.08,1.21-.03.28-.04.42-.05.42s-.01-.15-.01-.43c0-.31,0-.71.01-1.21.03-1.1.07-2.61.11-4.46.09-3.76.19-8.96.22-14.7s-.03-10.94-.09-14.7c-.03-1.85-.05-3.36-.07-4.46v-1.21c0-.28,0-.42.03-.43h0Z"/>
      <path class="cls-6" d="M489.44,715.36c-.9-5.69-4.73-10.82-9.92-13.31-1.32-.63-3.05-1.05-4.14-.07s-.85,2.76-.31,4.13c2.22,5.7,8.17,9.72,14.27,9.64"/>
      <path class="cls-8" d="M480.16,706.5s.31.11.83.36c.27.12.59.28.95.51.35.23.78.44,1.21.75s.91.63,1.38,1.03c.5.39.97.85,1.46,1.33.98,1.01,1.96,2.2,2.8,3.59.82,1.4,1.42,2.82,1.84,4.17.19.67.36,1.32.47,1.94.13.6.19,1.18.24,1.72.07.52.05,1.01.07,1.42.01.42,0,.78-.03,1.08-.04.59-.08.91-.11.91-.08,0,.05-1.3-.17-3.39-.07-.52-.13-1.09-.27-1.68-.11-.6-.3-1.24-.48-1.9-.43-1.3-1.02-2.71-1.83-4.09-.82-1.36-1.77-2.54-2.73-3.55-.48-.48-.95-.95-1.42-1.34-.46-.42-.93-.74-1.34-1.06-1.69-1.22-2.89-1.76-2.86-1.83h-.01Z"/>
    </g>
  </g>
  <g id="freepik--Characters--inject-2">
    <g>
      <g>
        <path class="cls-4" d="M889.81,595.27s7.19-1.77,10.87-7.08c3.68-5.31,11.01-22.58,11.01-34.33s1.67-68.56,1.67-68.56l-29.88,4.11-10.27,90.99,16.6,14.86Z"/>
        <polygon class="cls-8" points="931.93 514.5 911.69 520.41 911.69 542.13 940.5 537.1 931.93 514.5"/>
        <polygon class="cls-3" points="932.33 515.57 934.64 514.5 943.65 528.31 939.13 533.5 932.33 515.57"/>
      </g>
      <g>
        <g>
          <path class="cls-8" d="M671.79,421.96c-1.9,8.41-4.35,18.72-1.21,26.76.89,2.28,2.2,4.56,1.96,7-.32,3.39-3.56,6.08-3.45,9.48.09,2.97,2.66,5.16,4.31,7.65,2.22,3.35,2.81,7.5,3.1,11.52.3,4.01.35,8.1,1.71,11.89,1.34,3.79,4.31,7.3,8.27,8.01l14.54-10.38-16.28-67.16-12.96-4.74v-.03Z"/>
          <path class="cls-8" d="M769.49,486.81c-3.08-3.88-5.24-8.6-9.19-11.59-3.31-2.5-7.77-3.71-10.05-7.16-2.85-4.29-1.2-10.24-3.35-14.92-2.43-5.28-8.79-7.28-13.18-11.07-9.38-8.09-13.57-21.92-19.88-29.84l-12.22,53.61c9.29,19.09,15.85,37.4,26.67,55.67,11.33.23,26.24-2.81,35.55-9.27l-3.99-6.21c1.72,1.52,4.34,2.15,6.65,1.71,3.39-.65,6.17-3.02,8.52-5.54,2.81-3,5.26-6.33,7.27-9.91-4.66,1.69-9.7-1.59-12.77-5.47h-.03Z"/>
          <g>
            <path class="cls-8" d="M714.92,413.51c-5.07-6.34-11.93-10.04-20.05-10.28-4.58-.13-6.49.79-9.8,1.65-3.31.85-6.32,2.58-8.32,5.35-2.38,3.29-4.39,6.98-4.88,11.01-.51,4.14-1.01,8.31-.75,12.46.26,4.15,1.34,8.36,3.75,11.76l10.56,1.96c5.85.27,11.76.54,17.47-.73,5.71-1.26,11.28-4.26,14.39-9.21,4.33-6.88,2.7-17.63-2.37-23.98h-.01Z"/>
            <path class="cls-13" d="M705.51,413.32l-14.03-5.77-3.7.39c-8.29-.07-14.13,9-14.26,15.71-.15,7.46-.04,16.56,1.08,22.07,2.24,11.07,11.68,12.11,11.68,12.11l.99,10.67-2.66,3.39-1.29,23.7,27.08,3.28,2.84-41.83-5.11.93,1.08-40.82c-.04-2.04-1.64-3.7-3.68-3.83h-.01Z"/>
            <path class="cls-11" d="M691.21,443.33c-.07-.58-.39-1.1-.79-1.46-.82-.71-2.03-.81-2.92-.2-.89.6-1.41,1.84-1.26,3.01h0c.48.69,1.24,1.16,2.08,1.24.13,0,.26.01.39.01.63,0,1.29-.22,1.79-.69.5-.46.81-1.21.71-1.92h0Z"/>
            <path class="cls-8" d="M676.42,433.21c0,.75.65,1.37,1.44,1.38.79,0,1.42-.59,1.42-1.36s-.65-1.37-1.44-1.38c-.79,0-1.42.59-1.42,1.36Z"/>
            <path class="cls-8" d="M676,427.4c.19.17,1.24-.67,2.78-.73,1.53-.08,2.7.66,2.86.47.08-.08-.12-.42-.62-.75s-1.34-.65-2.3-.6-1.75.43-2.2.82c-.46.39-.6.73-.51.81h-.01Z"/>
            <path class="cls-8" d="M685.74,439.58c0-.09-.97-.22-2.53-.35-.39-.03-.77-.08-.85-.35-.11-.28.04-.71.22-1.18.34-.97.67-1.98,1.03-3.04,1.44-4.33,2.46-7.89,2.28-7.94-.17-.05-1.48,3.41-2.92,7.74-.35,1.06-.67,2.08-.98,3.06-.13.46-.36.97-.13,1.55.12.3.42.48.67.55.26.07.47.07.67.07,1.56.01,2.54-.01,2.54-.11h-.01Z"/>
            <path class="cls-11" d="M686.26,457.82s7.53.16,14.78-4.62c0,0-3.28,8.05-14.5,7.49l-.28-2.86Z"/>
            <path class="cls-8" d="M676.34,423.33c.15.43,1.34.51,2.65,1.01,1.32.44,2.3,1.16,2.67.91.17-.12.13-.51-.23-1.01-.35-.5-1.03-1.05-1.94-1.37s-1.77-.32-2.35-.17c-.59.16-.87.43-.81.65h0Z"/>
            <path class="cls-8" d="M693.08,432.67c.03.75-.59,1.41-1.37,1.45-.79.04-1.45-.52-1.48-1.28-.03-.75.59-1.41,1.37-1.45.79-.04,1.45.52,1.49,1.28h-.01Z"/>
            <path class="cls-8" d="M696.85,427.05c-.17.19-1.26-.6-2.81-.59-1.55,0-2.67.79-2.84.6-.08-.08.09-.42.59-.78.48-.36,1.3-.71,2.27-.71s1.77.35,2.23.71c.47.36.63.7.55.78h0Z"/>
            <path class="cls-8" d="M695.8,422.71c-.15.43-1.4.54-2.73,1.05-1.36.47-2.37,1.2-2.77.95-.17-.12-.13-.51.24-1.02.36-.5,1.08-1.08,2-1.41s1.83-.35,2.43-.2.89.42.83.63h-.01Z"/>
            <path class="cls-13" d="M707.05,435.86c-.03-.83.85-2.84,1.65-3,2.18-.43,6.14-.43,6.41,5.13.38,7.61-7.34,6.41-7.37,6.2-.01-.17-.59-5.47-.7-8.33h0Z"/>
            <path class="cls-11" d="M709.71,441.31s.13.08.36.17c.23.09.6.13.99-.03.79-.34,1.4-1.64,1.37-3.01-.01-.7-.19-1.34-.46-1.88-.26-.55-.65-.91-1.05-.97-.4-.07-.69.19-.77.4-.09.22-.04.36-.08.38-.03.03-.17-.12-.12-.43.03-.15.11-.34.28-.5s.44-.24.73-.23c.59,0,1.14.52,1.44,1.12.34.59.55,1.32.56,2.1.03,1.53-.69,3.01-1.77,3.37-.52.16-.98.03-1.22-.15s-.3-.35-.27-.36h0Z"/>
            <path class="cls-8" d="M709.01,432.89l-1.96,1.98c-8.24-8.08-24.3-28.25-23.4-27.06,0,0,5.74-2.28,11.93-1.16s17.92,4.37,17.65,11.68-4.22,14.54-4.22,14.54h0Z"/>
          </g>
          <path class="cls-8" d="M690.89,443.1c-.04.19-1.22.08-2.61.43-1.38.32-2.46.86-2.57.69-.11-.15.87-1.01,2.42-1.37,1.55-.38,2.84.08,2.77.26h-.01Z"/>
        </g>
        <g>
          <path class="cls-6" d="M709.2,458.73c1.05-.32,12.98-4.14,19.47-4.38,6.48-.24,43.98,8.83,45.44,10.42s-.16,3.1-.16,3.1l-25.56,11.53-8.02.83s9.58,32.71,10.55,39.98,1.33,14.06.28,15.03c-1.05.98-56.97,9.58-57,8.94-.03-.46,1.53-7.97,1.45-13.45-.04-2.63-1.48-5.46-1.48-5.46-8.84-2.66-22.28-27.73-24.37-33.2-2.08-5.47.98-13.94.98-13.94,0,0,15.91-10.28,16.79-10.15.89.12,12.81,18.06,12.81,18.06h0l8.82-27.32h0Z"/>
          <path class="cls-8" d="M733.16,475c-.08.04-.74-.94-1.69-2.59-.94-1.67-2.2-4.03-2.97-6.89-.77-2.88-.69-5.64-.17-7.53.5-1.9,1.25-2.88,1.3-2.84.11.05-.47,1.1-.82,2.94-.36,1.83-.36,4.48.38,7.24.74,2.77,1.91,5.13,2.73,6.84.83,1.71,1.34,2.78,1.26,2.82h-.01Z"/>
          <path class="cls-6" d="M670.77,478.14s-4.3,3.58-4.78,4.77-9.23,38.53-9.23,38.53c0,0-16.71-.77-16.63.05.08.81,10,20.13,10,20.13,0,0,8.95,8.55,18.91,1.83,1.03-.7,12.07-36.99,12.07-36.99l-7.5-23.06-2.84-5.26h0Z"/>
          <path class="cls-8" d="M666.94,485.44c.08-.04.9,1.32,2.14,3.53s2.9,5.32,4.7,8.76,3.4,6.57,4.52,8.86c1.13,2.28,1.77,3.72,1.69,3.76s-.89-1.3-2.12-3.53c-1.24-2.23-2.9-5.32-4.7-8.78-1.8-3.44-3.4-6.59-4.53-8.87-1.13-2.28-1.77-3.72-1.69-3.76v.03Z"/>
          <path class="cls-8" d="M676.62,488.37c.09,0,.28,1.69.52,4.44.27,2.74.52,6.55,1.29,10.66.77,4.11,2.31,7.59,3.8,9.88,1.47,2.31,2.58,3.62,2.49,3.7-.04.03-.34-.27-.86-.85-.52-.56-1.25-1.44-2.03-2.58-1.63-2.26-3.29-5.83-4.07-10.03-.78-4.18-.95-8-1.09-10.75-.12-2.76-.12-4.46-.03-4.48h-.03Z"/>
          <polygon class="cls-13" points="631.85 506.08 656.75 521.45 650.13 541.62 626.74 512.31 631.85 506.08"/>
        </g>
        <g>
          <path class="cls-8" d="M713.63,541.62l-17.58,2.73-.38,9.99s-46.89,58.94-48.28,65.87c-.9,4.5-20.23,84.96-20.23,84.96l27.04,5.43,32.66-97.32,33.69-50.95-6.94-20.68h0Z"/>
          <g>
            <path class="cls-8" d="M729.26,707.28l-26.6,5.3s-21.64-63.4-23.05-70.91c-1.64-8.72-4.68-13.18.5-24.42,5.17-11.24,30.36-51.26,30.36-51.26l-.95-23.67,37.58-6.29.47.95c-.23.67,19.56,14.73,8.78,38.35-12.61,27.61-41.89,51.09-41.89,55.82,0,0,.44,11.64,1.55,18.02,1.42,8.31,13.27,58.13,13.27,58.13h0Z"/>
            <path class="cls-4" d="M711.67,565.01c.24.11-1.88,4.21-5.6,10.62-3.72,6.42-8.96,15.23-15.04,24.8-3.06,4.77-6.08,9.23-8.4,13.53-1.16,2.15-2.12,4.26-2.92,6.28-.73,2.03-1.32,3.96-1.61,5.79-.67,3.63-.4,6.65,0,8.67.38,2.03.77,3.12.69,3.15-.03,0-.12-.26-.3-.78-.15-.52-.48-1.28-.66-2.31-.48-2.02-.85-5.09-.23-8.8.27-1.85.83-3.83,1.56-5.91.78-2.06,1.73-4.19,2.89-6.37,2.31-4.35,5.32-8.86,8.37-13.61,6.06-9.56,11.37-18.32,15.2-24.68,1.85-3.13,3.37-5.7,4.48-7.55.48-.85.86-1.53,1.17-2.08.27-.47.34-.74.38-.74h.03Z"/>
            <path class="cls-4" d="M743.46,551.4c0,.12-1.64.17-4.26.55-2.61.38-6.2,1.16-9.95,2.61-3.75,1.46-6.92,3.31-9.1,4.78-2.19,1.49-3.44,2.55-3.52,2.46-.03-.04.26-.34.79-.85.54-.52,1.37-1.21,2.43-2.02,2.14-1.61,5.32-3.55,9.13-5.04,3.82-1.48,7.47-2.19,10.13-2.45,1.33-.13,2.41-.17,3.16-.15.75,0,1.16.04,1.16.09h.03Z"/>
          </g>
          <g>
            <path class="cls-8" d="M636.62,693.36l-4.21,22.49s-22.54,8.41-22.79,12.58l43.61-.09.04-12.16,4.74-20.94-21.4-1.87Z"/>
            <path class="cls-3" d="M645.89,713.92c.85.23,1.42,1.18,1.24,2.03-.19.85-1.16,1.45-2,1.24-.85-.22-1.59-1.33-1.3-2.15.28-.82,1.45-1.48,2.23-1.06"/>
            <path class="cls-4" d="M653.23,728.33l-.12-3.53-41.76,1.41s-1.94.85-1.72,2.22l43.61-.09h-.01Z"/>
            <path class="cls-12" d="M631.7,715.63c0,.22,1.08.31,2.12.99,1.06.66,1.61,1.57,1.8,1.49.2-.04-.12-1.32-1.41-2.12-1.28-.82-2.57-.56-2.51-.36Z"/>
            <path class="cls-12" d="M627.13,717.53c-.05.2.87.56,1.6,1.46.75.87.94,1.85,1.14,1.84.2.03.35-1.21-.58-2.31-.91-1.1-2.16-1.2-2.16-.99h0Z"/>
            <path class="cls-12" d="M624.55,723.01c.19.04.48-1.02-.07-2.19-.54-1.17-1.55-1.63-1.64-1.45-.12.17.52.79.97,1.76.46.95.52,1.85.74,1.87h0Z"/>
            <path class="cls-12" d="M633.14,711.56c.09.19,1.06-.11,2.27-.03,1.21.05,2.14.46,2.26.27.12-.15-.79-.94-2.22-1.01-1.42-.08-2.42.59-2.31.77h0Z"/>
          </g>
          <g>
            <path class="cls-8" d="M704.28,697.78l5.91,21.68s-20.05,13.31-19.35,17.42l42.46-9.97-7.84-34.17-21.2,5.04h.01Z"/>
            <path class="cls-3" d="M722.89,714.55c.87.03,1.65.82,1.67,1.69,0,.87-.79,1.68-1.67,1.67-.87-.01-1.84-.94-1.75-1.8.09-.87,1.08-1.76,1.92-1.53"/>
            <path class="cls-4" d="M733.31,726.92l-.93-3.41-40.36,10.83s-1.69,1.26-1.17,2.55l42.46-9.97h0Z"/>
            <path class="cls-12" d="M709.45,719.42c.05.2,1.12.05,2.28.48,1.18.4,1.92,1.17,2.1,1.05.17-.08-.42-1.25-1.85-1.75-1.42-.51-2.62.04-2.54.22h.01Z"/>
            <path class="cls-12" d="M705.43,722.31c0,.22.98.35,1.9,1.06.93.69,1.33,1.59,1.53,1.53.2,0,.07-1.26-1.09-2.12-1.14-.87-2.38-.67-2.34-.47h0Z"/>
            <path class="cls-12" d="M704.16,728.22c.2,0,.24-1.1-.55-2.11-.79-1.02-1.87-1.24-1.92-1.03-.08.2.7.66,1.34,1.51.66.82.93,1.68,1.14,1.65h-.01Z"/>
            <path class="cls-12" d="M708.66,714.33c.13.17,1.02-.34,2.2-.54,1.18-.22,2.19-.04,2.26-.24.08-.17-.98-.74-2.38-.48-1.4.24-2.22,1.13-2.08,1.26h0Z"/>
          </g>
        </g>
      </g>
      <g>
        <path class="cls-8" d="M811.99,557.76c-1.06,1.06-7.18,8.14-8.36,17.34-1.18,9.21.48,22.65,0,27.96-.48,5.31-8.98,37.51-8.98,37.51,0,0-41.1,68.37-40.74,69.43.35,1.06,24.77,13.09,24.77,13.09,0,0,37.97-56.19,43.98-67.51,6.02-11.33,27.55-57.44,27.55-57.44l40.31,38.32,6.95,74.11,30.23-1.37s-7.23-75.32-10.07-83.1c-2.84-7.78-36.28-49.23-36.28-49.23l-69.37-19.11h0Z"/>
        <g>
          <path class="cls-8" d="M782.92,701.99l-9.84,14.73-.13,2.28s22.34,8.94,22.49,13.12l-43.6-1.12.22-10.21,8.32-22.15,22.55,3.36h0Z"/>
          <path class="cls-3" d="M759.5,716.76c-.85.22-1.45,1.14-1.28,2s1.12,1.48,1.98,1.29c.85-.19,1.61-1.29,1.34-2.12s-1.41-1.51-2.2-1.12"/>
          <path class="cls-4" d="M751.83,730.99l.22-3.53,41.72,2.39s1.92.9,1.67,2.26l-43.6-1.12h0Z"/>
          <path class="cls-12" d="M773.66,718.79c0,.22-1.08.28-2.15.94-1.09.63-1.64,1.53-1.84,1.45-.19-.04.16-1.32,1.47-2.08,1.29-.78,2.58-.5,2.53-.31h0Z"/>
          <path class="cls-12" d="M778.17,720.8c.04.2-.89.55-1.64,1.42-.77.86-.98,1.83-1.2,1.81-.2.03-.32-1.22.63-2.3.94-1.09,2.19-1.14,2.19-.94h.01Z"/>
          <path class="cls-12" d="M780.63,726.34c-.19.04-.46-1.03.11-2.18.56-1.16,1.59-1.59,1.67-1.41.12.17-.55.79-1.01,1.73-.48.94-.56,1.84-.78,1.85h.01Z"/>
        </g>
        <g>
          <path class="cls-8" d="M924.71,692.34l-.86,22.46s22.54,8.41,22.79,12.58l-43.61-.09-.11-35.05,21.77.11h.01Z"/>
          <path class="cls-3" d="M910.37,712.89c-.85.23-1.42,1.18-1.24,2.03s1.16,1.45,2,1.24c.85-.22,1.59-1.33,1.3-2.15-.28-.82-1.45-1.48-2.23-1.06"/>
          <path class="cls-4" d="M903.03,727.3l.12-3.53,41.76,1.41s1.94.85,1.72,2.22l-43.61-.09h.01Z"/>
          <path class="cls-12" d="M924.56,714.58c0,.22-1.08.31-2.12.99-1.06.66-1.61,1.57-1.8,1.49-.2-.04.12-1.32,1.41-2.12,1.28-.82,2.57-.56,2.51-.36h0Z"/>
          <path class="cls-12" d="M929.13,716.49c.05.2-.87.56-1.6,1.46-.75.87-.94,1.85-1.14,1.84-.2.03-.35-1.21.58-2.31.91-1.1,2.16-1.2,2.16-.99Z"/>
          <path class="cls-12" d="M931.71,721.96c-.19.04-.48-1.02.07-2.19.54-1.17,1.55-1.63,1.64-1.45.12.17-.52.79-.97,1.76-.46.95-.52,1.85-.74,1.87h0Z"/>
        </g>
      </g>
      <path class="cls-9" d="M405.49,498.54s-2.89-.66-7.07-2.02c-4.19-1.36-7.31.48-10.31,1.63-3.01,1.14-8.88,6.28-6.2,6.85s4.05-.44,4.05-.44c0,0-.74,1.95,1.34,3.35s17.3,6.65,17.3,6.65l.89-16.03h0Z"/>
      <path class="cls-9" d="M932.31,490.94c0,.32.95,3.51,1.06,4.14s-.11,12.12.54,14.25,1.38,6.06,1.38,6.06l-3.72,2.23,7.97,11.69s6.91-6.8,8.51-9.68,4.46-12.02,4.57-13.82-10-12.54-11.48-12.86-2.77.11-2.77.11c0,0-3.08-3.51-4.46-3.51s-1.6,1.38-1.6,1.38h0Z"/>
      <g>
        <g>
          <path class="cls-9" d="M881.3,463.03l-.54-43.99c-.48-10.94,5.47-20.34,16.41-20.52l1.01.04c10.19.42,18.36,8.59,18.75,18.79.38,9.49.66,19.96.39,25.03-.56,10.5-11.13,11.69-11.13,11.69-.03,0-.07,6.38-.05,9.48l2.46,7.2-16.56,4.06-10.75-11.76h.01Z"/>
          <path class="cls-1" d="M906.2,454.07s-6.63.12-13.49-4.61c0,0,2.96,8.02,13.48,7.51l.03-2.9h-.01Z"/>
          <path class="cls-8" d="M903.97,434.24c0-.09,1.01-.23,2.63-.36.42-.03.81-.09.89-.36.11-.3-.04-.74-.23-1.24-.35-1.01-.71-2.07-1.09-3.19-1.51-4.53-2.58-8.25-2.39-8.32.19-.05,1.56,3.58,3.06,8.1.36,1.12.71,2.18,1.03,3.2.13.47.38,1.02.15,1.63-.12.31-.43.51-.7.58-.27.07-.5.07-.7.07-1.64.03-2.65-.01-2.66-.11Z"/>
          <path class="cls-9" d="M881.3,426.85c-.17-.08-7.12-2.43-7.19,4.76-.07,7.19,7.16,5.77,7.18,5.56s.01-10.32.01-10.32h0Z"/>
          <path class="cls-1" d="M879.12,434.43s-.12.08-.34.19c-.2.09-.56.15-.94,0-.75-.28-1.38-1.49-1.41-2.8,0-.66.13-1.28.36-1.79.23-.52.56-.89.95-.95.38-.08.65.15.74.35s.05.35.08.36c.01.01.16-.12.09-.42-.03-.15-.11-.31-.28-.46s-.43-.22-.69-.19c-.55.03-1.06.54-1.32,1.1-.3.56-.47,1.26-.46,2,.03,1.45.77,2.81,1.8,3.12.51.13.93,0,1.14-.17.23-.17.27-.34.24-.35h.01Z"/>
          <path class="cls-8" d="M921.24,414.12c-4.5.7-9.13.36-12.73-2.43-1.03-.81-2-1.72-2.88-2.73-1.6-1.81-2.84-4.07-4.99-5.16-2.77-1.41-6.1-.44-9.06.54l.12-.11c-1.53.69-2.94,1.68-4.1,2.89.71,6.92-.38,14.03-3.16,20.42-.23.52-.65.95-1.18,1.17-1.68.67-1.16-1.57-2.41-2-.95-.34-1.42-.13-3.33-.19-.66-1.8-1.05-6.72-1.61-9.38-1.57-1.67-3.02-4.76-3.09-7.16-.05-2.42,1.28-5.48,1.28-5.48,1.83-3.45,2.88-5.23,5.67-6.18l.07.03c2.51-.98,5.59-.95,7.62.81.55-3.74,3.87-6.67,7.54-7.59,3.67-.91,9.53-.28,13.02,1.17,2.38.99,4.69,2.88,7.37,5.59h0c.35.36.71.74,1.09,1.13.03.03.05.07.09.11.78.5,1.73.73,2.73.83,1.6.17,2.59-.32,3.67-1.51.34-.36.74-.82,1.21-.66.3.09.46.4.55.7.51,1.56-.17,3.32-1.34,4.48-.56.55-1.24.98-1.95,1.33,0,0,1.06,1.32,2.89,1.61.98.16,1.87.73,2.43,1.56.27.4.47.87.47,1.4,0,3.02-3.02,4.41-5.95,4.87l-.04-.03Z"/>
          <path class="cls-4" d="M923.18,410.98s-.03.03-.08.07c-.07.05-.16.11-.27.19-.12.08-.27.19-.44.28-.19.11-.39.23-.65.34-.98.46-2.55.9-4.52.75-1.94-.13-4.26-.85-6.32-2.42-2.08-1.53-3.9-3.78-5.38-6.34-.75-1.28-1.36-2.59-2.03-3.8-.67-1.21-1.41-2.34-2.31-3.23-.89-.9-1.94-1.56-3.01-1.87-.54-.16-1.08-.22-1.6-.2-.52.03-1.01.12-1.47.27-.91.3-1.65.79-2.2,1.29-.56.51-.94,1.06-1.21,1.53-.48.97-.52,1.59-.56,1.57v-.11c.01-.08.03-.19.05-.32.05-.28.17-.69.42-1.18.26-.48.63-1.05,1.2-1.59.56-.52,1.32-1.05,2.24-1.36.47-.15.98-.26,1.52-.28.54,0,1.1.03,1.67.2,1.12.31,2.19.99,3.12,1.91s1.69,2.06,2.37,3.27c.69,1.22,1.29,2.53,2.03,3.8,1.47,2.54,3.27,4.77,5.31,6.29,2.03,1.56,4.29,2.27,6.2,2.42,1.92.16,3.48-.26,4.46-.67.99-.43,1.47-.81,1.48-.78v-.03Z"/>
          <path class="cls-4" d="M924.19,406.37s-.12.11-.38.26c-.26.16-.63.35-1.13.55-.48.22-1.09.4-1.77.56-.69.15-1.45.26-2.26.27-.81,0-1.59-.07-2.27-.17-.69-.13-1.3-.3-1.8-.48-.5-.19-.89-.36-1.14-.51s-.4-.23-.39-.24c.03-.04.6.27,1.59.59.5.16,1.1.31,1.77.43.69.11,1.44.17,2.23.16.79-.03,1.55-.12,2.22-.26.67-.15,1.28-.32,1.76-.5.98-.36,1.55-.69,1.57-.65h0Z"/>
          <path class="cls-4" d="M883.99,411.84s.07.24.09.67c.03.44.04,1.08-.04,1.88-.05.4-.05.82-.22,1.33-.08.24-.36.55-.73.52-.35-.03-.59-.22-.79-.39-.79-.74-1.65-1.53-2.57-2.38l.38-.22c.12.5.24,1.01.38,1.55.34,1.45.66,2.82.95,4.09l.16.69-.51-.48c-1.36-1.28-2.28-2.57-2.85-3.51-.56-.95-.81-1.55-.77-1.57.11-.08,1.21,2.3,3.91,4.77l-.35.2c-.31-1.26-.65-2.63-.99-4.07-.12-.52-.24-1.05-.36-1.55l-.17-.75.55.52c.9.86,1.75,1.67,2.53,2.41.17.16.38.31.55.31.16,0,.3-.09.38-.28.13-.38.19-.85.26-1.22.22-1.56.17-2.51.24-2.51h-.03Z"/>
        </g>
        <g>
          <path class="cls-8" d="M910.57,426.41c0,.81-.69,1.48-1.52,1.49-.83,0-1.51-.63-1.51-1.45s.69-1.48,1.52-1.49c.83,0,1.51.63,1.51,1.45Z"/>
          <path class="cls-8" d="M913.83,421.88c-.2.19-1.3-.71-2.93-.78-1.63-.09-2.85.71-3.02.5-.08-.09.12-.44.66-.81.52-.36,1.41-.7,2.43-.65,1.01.05,1.85.46,2.33.87.48.42.65.78.54.86h0Z"/>
          <path class="cls-8" d="M895.73,426.41c0,.81-.69,1.48-1.52,1.49-.83,0-1.51-.63-1.51-1.45s.69-1.48,1.52-1.49c.83,0,1.51.63,1.51,1.45Z"/>
          <path class="cls-8" d="M897.85,421.6c-.2.19-1.3-.71-2.93-.78-1.63-.08-2.85.71-3.02.5-.08-.09.12-.44.66-.81.52-.36,1.41-.7,2.43-.65,1.01.05,1.85.46,2.33.87.48.42.65.78.54.86h0Z"/>
          <path class="cls-8" d="M898.58,418.05c-.24.42-1.8-.09-3.72-.22-1.92-.16-3.53.11-3.71-.34-.08-.22.27-.58.95-.89.69-.31,1.73-.54,2.88-.46,1.16.08,2.15.46,2.78.87.65.42.93.82.82,1.02h0Z"/>
          <path class="cls-8" d="M914.13,415.48c-.15.48-1.52.7-2.97,1.36-1.47.62-2.55,1.48-3.01,1.26-.2-.11-.17-.55.22-1.12.38-.56,1.13-1.25,2.14-1.68,1.01-.44,2.02-.54,2.67-.43.67.11,1.01.38.95.6h0Z"/>
        </g>
        <path class="cls-8" d="M906.19,439.45c-.13.15-1.05-.56-2.38-.99-1.32-.46-2.49-.58-2.47-.78,0-.17,1.24-.39,2.7.12,1.48.5,2.3,1.53,2.15,1.65h0Z"/>
      </g>
      <g>
        <g>
          <path class="cls-8" d="M394.36,694.38l-3.27,21.32s-22.54,8.41-22.79,12.58l43.61-.09,2.84-33.92-20.39.11h0Z"/>
          <path class="cls-3" d="M404.57,713.78c.85.23,1.42,1.18,1.24,2.03-.19.85-1.16,1.45-2,1.24-.85-.22-1.59-1.33-1.3-2.15.28-.82,1.45-1.48,2.23-1.06"/>
          <path class="cls-4" d="M411.91,728.18l-.12-3.53-41.76,1.41s-1.94.85-1.72,2.22l43.61-.09h-.01Z"/>
          <path class="cls-12" d="M390.38,715.48c0,.22,1.08.31,2.12.99,1.06.66,1.61,1.57,1.8,1.49.2-.04-.12-1.32-1.41-2.12-1.28-.82-2.57-.56-2.51-.36Z"/>
          <path class="cls-12" d="M385.81,717.38c-.05.2.87.56,1.6,1.46.75.87.94,1.85,1.14,1.84.2.03.35-1.21-.58-2.31-.91-1.1-2.16-1.2-2.16-.99h0Z"/>
          <path class="cls-12" d="M383.23,722.86c.19.04.48-1.02-.07-2.19-.54-1.17-1.55-1.63-1.64-1.45-.12.17.52.79.97,1.76.46.95.52,1.85.74,1.87h0Z"/>
        </g>
        <g>
          <path class="cls-8" d="M542.04,436.37c2.12-3.91,4.25-7.85,5.67-12.06s2.14-8.75,1.38-13.13c-.12-.66-1.3-5.2-1.98-5.26-.48-.04,0,4.07-.31,4.44-3.01,3.48-4.5,8.06-4.99,12.63s-.3,8.8.22,13.37"/>
          <path class="cls-9" d="M532.71,396.29l-1.02-.13c-10.31-1.36-19.93,5.42-22.11,15.58-2.03,9.45-4.17,19.92-4.77,25.05-1.28,10.63,9.13,13.68,9.13,13.68.03,0-2.53,11.03-2.53,11.03l11.06,2.23,13.35-1.36,9.78-42.61c2.41-10.89-1.92-21.37-12.88-23.48h-.01Z"/>
          <path class="cls-1" d="M513.99,449.62s6.22,1.2,13.45-2.11c0,0-4.34,7.41-14.15,5.19l.7-3.08Z"/>
          <path class="cls-8" d="M511.22,422.04c-.13.79.43,1.57,1.26,1.72.83.16,1.61-.36,1.75-1.16.13-.79-.43-1.57-1.26-1.72-.83-.16-1.61.36-1.75,1.16Z"/>
          <path class="cls-8" d="M511.21,416.71c.16.23,1.42-.47,3.05-.26,1.63.2,2.71,1.2,2.92,1.02.09-.08-.04-.46-.51-.91-.46-.44-1.29-.93-2.31-1.06-1.02-.13-1.92.13-2.46.44-.55.32-.77.66-.69.75h0Z"/>
          <path class="cls-8" d="M525.48,424.62c-.13.79.43,1.57,1.26,1.72.83.16,1.61-.36,1.75-1.16.13-.79-.43-1.57-1.26-1.72-.83-.16-1.61.36-1.75,1.16Z"/>
          <path class="cls-8" d="M527.15,419.21c.16.23,1.42-.47,3.05-.26,1.63.2,2.71,1.2,2.92,1.02.09-.08-.04-.46-.51-.91-.46-.44-1.29-.93-2.31-1.06-1.02-.13-1.92.13-2.46.44-.55.32-.77.66-.69.75h0Z"/>
          <path class="cls-8" d="M519.65,430.95c.01-.09-.97-.4-2.58-.83-.42-.09-.79-.23-.82-.52-.05-.31.17-.74.44-1.2.52-.95,1.08-1.96,1.65-3.01,2.31-4.29,4.03-7.84,3.86-7.93-.17-.09-2.19,3.31-4.49,7.59-.56,1.06-1.09,2.07-1.6,3.04-.22.46-.56.95-.43,1.6.07.32.35.59.6.7.26.12.48.15.7.19,1.64.31,2.66.46,2.69.36h-.03Z"/>
          <path class="cls-8" d="M526.46,416.48c.28.38,1.79-.31,3.71-.66,1.91-.39,3.56-.31,3.68-.78.05-.22-.34-.54-1.06-.77-.73-.23-1.8-.32-2.94-.11-1.14.23-2.1.71-2.69,1.2s-.83.93-.7,1.1h0Z"/>
          <path class="cls-8" d="M511.84,413.28c.15.48,1.52.73,2.97,1.42,1.48.65,2.55,1.53,3.01,1.32.2-.11.17-.54-.2-1.12-.38-.58-1.13-1.26-2.14-1.72s-2.02-.58-2.69-.48c-.69.09-1.02.36-.97.59h.01Z"/>
          <path class="cls-9" d="M543.69,427.51c.19-.05,7.58-1.2,6.38,6.03s-8.92,4.66-8.91,4.46c.03-.22,2.53-10.48,2.53-10.48h0Z"/>
          <path class="cls-1" d="M544.55,435.49s.11.11.31.24c.19.13.54.26.94.17.81-.15,1.65-1.26,1.9-2.55.12-.66.09-1.3-.05-1.85-.13-.56-.42-.99-.79-1.12-.36-.15-.67.04-.79.23-.13.19-.11.34-.15.35-.03.01-.13-.15-.03-.43.05-.13.16-.3.36-.4s.46-.15.73-.07c.55.13.97.73,1.13,1.33.19.62.24,1.34.11,2.08-.28,1.45-1.25,2.69-2.35,2.82-.52.05-.93-.17-1.12-.38-.19-.22-.2-.38-.17-.39v-.04Z"/>
          <path class="cls-8" d="M516.33,400.59c-1.06-.85,3.1-4.02,6.2-4.83,4.68-1.21,11.5-1.28,15.31.55,4.57,2.2,8.16,5.3,9.81,10.09,1.65,4.8,1.68,10.07.66,15.04-.31,1.52-.74,3.08-1.79,4.23-1.29,1.42-3.39,2.08-3.7,4.3-.11.81-.48,1.59-1.13,2.07-1.56,1.17-2.94-.43-3.47-1.88-1.09-3.1-.69-6.51-.26-9.77.3-2.31.62-4.69,1.65-6.79.56-1.14,1.33-2.18,1.83-3.35.5-1.17.7-2.57.12-3.7-.09-.19-.27-.42-.48-.7-1.73-2.15-4.5-3.19-7.22-2.71-4.31.73-11.63,1.67-13.2-.03-2.26-2.43-2.66-3.84-2.66-3.84l-1.69,1.26v.04Z"/>
          <path class="cls-8" d="M524.74,434.14c-.04.19-1.2.08-2.55.4-1.36.31-2.42.82-2.53.65-.11-.15.86-.98,2.38-1.33,1.52-.36,2.77.11,2.7.28Z"/>
        </g>
        <g>
          <path class="cls-8" d="M585.51,686.13l7.94,27.97,12.66,20.31c.91,1.46.39,3.4-1.13,4.21h0c-.85.46-1.87.47-2.73.04-5.5-2.76-25.67-13-26.13-15.08-.54-2.41-10.35-28.95-10.35-28.95l19.72-8.51h.01Z"/>
          <path class="cls-4" d="M605,738.61l-29.43-16.91.36,1.18c.31,1.02.98,1.9,1.87,2.46,2.41,1.53,9.14,5.6,24.39,13.33.89.44,1.95.43,2.81-.07h0Z"/>
          <g class="cls-15">
            <path class="cls-12" d="M578.49,710.98c.85.27,1.4,1.25,1.17,2.11s-1.22,1.42-2.07,1.17-1.55-1.41-1.22-2.23c.32-.82,1.53-1.42,2.3-.98"/>
          </g>
          <path class="cls-12" d="M594.89,728.44c.17.03.36-1.63,1.77-2.92,1.37-1.33,3.02-1.42,3.01-1.6,0-.08-.42-.19-1.09-.07-.67.11-1.59.48-2.35,1.21s-1.2,1.61-1.34,2.28-.07,1.09,0,1.1h0Z"/>
          <path class="cls-12" d="M598.02,731.54c.17.08.78-1.1,2.1-1.95,1.29-.89,2.61-1.01,2.61-1.18.04-.16-1.48-.34-2.96.66-1.49.98-1.91,2.46-1.73,2.49h-.01Z"/>
          <path class="cls-12" d="M589.74,724.81c.17.09,1.1-1.72,3.02-3.24,1.9-1.55,3.87-2.04,3.83-2.23,0-.16-2.18.09-4.22,1.73-2.06,1.63-2.78,3.7-2.62,3.74h-.01Z"/>
          <path class="cls-12" d="M586.61,716.5c.12.15,1.46-.97,3.44-1.67,1.96-.71,3.71-.7,3.71-.89.04-.16-1.81-.47-3.92.28-2.12.74-3.35,2.16-3.23,2.26h0Z"/>
          <path class="cls-12" d="M584.07,708.36c.13.13,1.4-1.26,3.53-1.83,2.12-.6,3.92-.03,3.96-.22.03-.07-.39-.32-1.14-.5s-1.85-.22-3,.09-2.08.9-2.63,1.44c-.56.52-.79.95-.73,1.01h0Z"/>
          <path class="cls-12" d="M587.07,705s-.01-.4-.28-1.06c-.27-.66-.77-1.59-1.68-2.5-.46-.43-.98-.99-1.87-1.12-.44-.07-.99.19-1.21.66-.22.46-.17.94-.05,1.38.58,1.76,2.62,3,4.68,2.63,2.06-.4,3.51-2.1,3.83-3.86.05-.44.03-.97-.34-1.37s-.98-.42-1.36-.23c-.79.38-1.16,1.01-1.53,1.52-.73,1.06-1.06,2.06-1.22,2.74s-.16,1.09-.13,1.09c.12.04.28-1.59,1.72-3.58.38-.47.79-1.05,1.37-1.29.28-.12.56-.08.74.12.17.19.23.56.17.91-.28,1.45-1.61,3-3.36,3.31-1.73.32-3.52-.77-4.01-2.18-.11-.34-.12-.71,0-.97s.38-.39.66-.38c.6.05,1.16.52,1.6.91,1.8,1.68,2.16,3.29,2.28,3.23h-.01Z"/>
        </g>
        <g>
          <path class="cls-8" d="M546.3,586.28s35.23,59.65,38.06,65.58c2.84,5.93,12.1,62.9,10.89,62.9s-25.11,5.93-25.11,5.93l-13.32-62.11s-25.91-29.23-31.99-35.55-21.87-20.91-24.7-20.13c-2.84.78-56.27,36.33-60.74,46.21-4.45,9.88-25.91,67.55-25.91,67.55l-25.51-5.13s17.81-69.92,24.29-80.59,44.94-47.79,44.94-47.79l9.31-19.35,68.83-3.16,10.93,25.67h.03Z"/>
          <path class="cls-4" d="M546.3,586.28s-.26-.55-.74-1.65c-.48-1.12-1.2-2.76-2.12-4.92-1.87-4.34-4.62-10.75-8.19-19.06l.12.08c-16.38.78-39.85,1.88-68.83,3.27l.2-.13c-2.9,6.06-6.03,12.58-9.29,19.37v.04l-.05.03c-7.5,7.28-15.32,15.07-23.39,23.36-4.02,4.15-8.1,8.44-12.15,12.92-2.02,2.24-4.03,4.53-5.97,6.92-.94,1.21-1.94,2.41-2.77,3.7-.22.32-.44.63-.65.97l-.52,1.03c-.34.7-.73,1.36-.99,2.1-2.39,5.78-4.34,11.89-6.28,18.1-1.92,6.22-3.78,12.58-5.6,19.06-3.66,12.94-7.24,26.34-10.79,40.12l-.26-.42c8.02,1.61,16.71,3.36,25.51,5.13l-.39.22c4.61-12.27,9.34-24.84,14.15-37.63,2.43-6.4,4.89-12.84,7.43-19.31,1.28-3.24,2.54-6.49,3.94-9.72.32-.79.74-1.65,1.28-2.37.51-.75,1.1-1.4,1.68-2.08,1.21-1.29,2.46-2.55,3.78-3.74,4.85-4.41,9.97-8.41,15.12-12.31,5.15-3.88,10.36-7.62,15.58-11.26s10.44-7.18,15.7-10.59c1.32-.85,2.63-1.68,3.95-2.51,1.36-.82,2.59-1.65,4.11-2.37.44-.19.99-.07,1.36.07.4.13.75.31,1.12.5.7.38,1.37.79,2,1.24,1.29.87,2.51,1.83,3.72,2.78,4.8,3.87,9.3,8.01,13.64,12.22,1.08,1.06,2.15,2.12,3.2,3.2,1.01,1.12,2.02,2.23,3.01,3.33,2,2.22,3.99,4.44,5.97,6.63,7.9,8.79,15.64,17.39,23.18,25.78l.05.07v.08c4.72,21.95,9.15,42.69,13.31,62.12l-.35-.22c6.07-1.46,12.02-2.92,17.81-4.31,1.45-.34,2.9-.67,4.34-1.01.73-.16,1.44-.32,2.16-.46.17-.04.36-.07.56-.09.07,0,.27-.03.23-.03-.22.12-.11.12-.13.08v-.09c.04-.32.03-.7,0-1.05-.2-2.89-.62-5.74-.99-8.55-1.59-11.24-3.37-21.85-5.17-31.8-.91-4.97-1.83-9.77-2.85-14.37-.54-2.28-1.01-4.58-1.81-6.65-1.01-2-2.11-3.95-3.19-5.85-4.29-7.59-8.32-14.52-11.95-20.77-7.27-12.47-12.98-22.26-16.87-28.94-1.94-3.33-3.43-5.87-4.44-7.61-.99-1.72-1.49-2.62-1.49-2.62,0,0,.55.87,1.57,2.58,1.02,1.72,2.54,4.26,4.5,7.57,3.92,6.65,9.68,16.41,17.02,28.86,3.64,6.24,7.69,13.14,12.02,20.74,1.08,1.91,2.18,3.83,3.21,5.87.85,2.16,1.32,4.42,1.85,6.72,1.03,4.61,1.96,9.41,2.89,14.38,1.83,9.95,3.63,20.55,5.23,31.8.38,2.82.79,5.66,1.01,8.59.01.38.04.73,0,1.14,0,.05,0,.11-.03.17-.04.05.04.15-.26.31l-.32.05c-.16.01-.34.05-.51.09-.71.13-1.42.3-2.15.46-1.44.34-2.88.67-4.33,1.01-5.79,1.41-11.73,2.86-17.81,4.34l-.3.07-.07-.3c-4.18-19.42-8.63-40.16-13.35-62.11l.07.15c-7.54-8.37-15.28-16.96-23.18-25.75-1.98-2.19-3.96-4.41-5.97-6.63-.99-1.1-2-2.22-3.01-3.33-1.03-1.08-2.11-2.14-3.19-3.19-4.33-4.19-8.82-8.32-13.59-12.16-1.2-.95-2.42-1.9-3.68-2.76-.63-.43-1.28-.83-1.95-1.2-.65-.32-1.41-.71-1.92-.51-1.3.62-2.66,1.49-3.96,2.3-1.32.83-2.62,1.68-3.95,2.51-5.24,3.41-10.46,6.95-15.67,10.59-5.2,3.64-10.4,7.38-15.55,11.25-5.13,3.88-10.25,7.88-15.07,12.26-1.3,1.18-2.54,2.42-3.72,3.7-1.17,1.32-2.22,2.62-2.84,4.26-1.38,3.2-2.65,6.46-3.92,9.69-2.5,6.49-4.97,12.93-7.43,19.3-4.81,12.8-9.54,25.36-14.17,37.63l-.11.27-.28-.05c-8.8-1.77-17.49-3.52-25.51-5.15l-.35-.07.09-.34c3.55-13.79,7.15-27.19,10.82-40.13,1.83-6.48,3.7-12.84,5.63-19.06s3.88-12.32,6.32-18.16c.27-.74.69-1.42,1.02-2.15l.54-1.06c.2-.34.44-.66.66-.98.86-1.33,1.84-2.53,2.8-3.74,1.95-2.41,3.98-4.69,5.99-6.94,4.06-4.48,8.16-8.76,12.18-12.92,8.08-8.29,15.93-16.06,23.44-23.35l-.05.07c3.27-6.77,6.41-13.29,9.33-19.34l.07-.12h.13c28.99-1.29,52.44-2.34,68.84-3.06h.09l.04.08c3.51,8.32,6.22,14.74,8.06,19.1.9,2.16,1.6,3.82,2.07,4.95.46,1.12.69,1.69.69,1.69v-.03Z"/>
        </g>
        <g>
          <path class="cls-4" d="M447.61,496.94s14.65-14.31,15.82-14.84c1.16-.52,4.11.35,4.02-.44-.09-.78,11.18-22.19,11.18-22.19l4.64,39.35-26.67,18.12c-1.69,1.2-3.75,1.79-5.82,1.67l-46.45.69,1.24-22.19,42.03-.17h.01Z"/>
          <path class="cls-8" d="M448.04,506.82c-.19,0-.46-2.15-.58-4.84-.13-2.69-.08-4.87.12-4.87.19,0,.46,2.15.58,4.84.13,2.67.08,4.87-.12,4.87Z"/>
          <g class="cls-14">
            <path class="cls-2" d="M476.52,480.49s-5.74,14.15,1.53,29.76l-1.53-29.76Z"/>
          </g>
          <path class="cls-8" d="M476.52,472.2s.12.62.2,1.75c.08,1.26.19,2.88.31,4.78.23,4.05.5,9.64.74,15.81.36,8.92.59,16.63.62,20.15h-.3c.03-1.44.08-2.22.13-2.22s.11.77.17,2.22h-.3c-.26-3.51-.66-11.21-1.01-20.13-.26-6.17-.43-11.76-.54-15.82-.03-1.92-.07-3.52-.08-4.8,0-1.13.01-1.76.07-1.76l-.03.03Z"/>
        </g>
        <g>
          <path class="cls-12" d="M511.63,455.92l1.17-3.15,8.57,6.17,17.79-7.55.59,1.36-3.29,47.32-21.25,26.97s-13.12,6.12-13.12,5.42-7.16-39.82-6.98-39.12c.17.7,16.5-37.43,16.5-37.43h0Z"/>
          <path class="cls-6" d="M519.27,469.4l-13.23,43.36c1.45,5.56,3.33,10.98,5.58,16.26,3.13-4.95,6.4-10.89,9.76-17.38l2.27-42.26h-4.38Z"/>
          <path class="cls-4" d="M539.76,452.77l6.88,7.5,23.29,8.29-25.83,73.88,13.7,52s-24.11,12.38-33.02,7.24c-8.91-5.13-18.63-32-18.63-32,0,0-16.2,34.68-24.7,33.14-8.51-1.53-28.75-16.54-28.75-16.54l25.11-54.51.81-72.28,33-3.56s-9.11,26.07-8.31,41.09,8.31,32.03,8.31,32.03c0,0,17.61-27.69,21.67-49.02s6.48-27.26,6.48-27.26h.01Z"/>
          <g class="cls-14">
            <path class="cls-2" d="M508.88,525.42c-6.75-6.64-12.39-14.58-15.44-23.55-3.05-8.96-3.39-19.02.05-27.83,0,0-.7,18.08,3.16,26.95,3.86,8.87,12.22,24.43,12.22,24.43h.01Z"/>
          </g>
          <path class="cls-8" d="M511.63,455.92s-.07.08-.23.2c-.16.12-.42.28-.77.48-.69.39-1.73.89-3.06,1.55-1.32.66-2.97,1.44-4.64,2.66-.81.62-1.67,1.36-2.15,2.37-.52.99-.34,2.24.38,3.28l.24.36-.44.07c-.94.15-1.95.16-2.93.08-.91-.04-1.87.3-2.55.98-.35.34-.62.75-.81,1.21-.19.44-.23.98-.31,1.53-.13,1.09-.36,2.19-.44,3.33-.43,4.56-.26,9.53.54,14.62,1.9,12.1,6.32,22.46,10.19,29.43.91,1.79,1.94,3.29,2.73,4.68.87,1.3,1.63,2.45,2.26,3.4.62.86,1.13,1.56,1.51,2.1.34.48.51.75.48.77-.01.01-.23-.22-.6-.67l-1.63-2.03c-.67-.9-1.45-2.04-2.37-3.35-.82-1.37-1.88-2.86-2.82-4.65-4.02-6.96-8.53-17.36-10.46-29.58-.79-5.13-.97-10.17-.5-14.8.08-1.16.32-2.27.47-3.37.09-.54.13-1.1.36-1.65.22-.54.55-1.02.95-1.42.81-.81,1.95-1.2,3.01-1.13.99.09,1.92.08,2.82-.04l-.19.43c-.36-.58-.65-1.22-.71-1.9-.08-.67.07-1.34.35-1.91.58-1.13,1.49-1.88,2.34-2.51,1.75-1.22,3.43-1.96,4.77-2.58,1.36-.6,2.42-1.06,3.13-1.4s1.05-.58,1.06-.55h.01Z"/>
          <path class="cls-8" d="M542.48,455.92s.19.31.6.85c.4.55,1.05,1.32,1.85,2.33.79,1.02,1.8,2.27,2.57,3.99.38.85.7,1.85.58,2.96-.08,1.1-.69,2.19-1.56,3.01l-.04-.42c.4.24.85.46,1.32.62.43.15,1.06.24,1.52.66.94.78,1.26,2.08,1.13,3.28-.48,2.31-1.16,4.64-2.04,7.06-1.76,4.81-4.27,9.84-7.28,14.85-6.48,10.71-13.79,19.43-19.56,25.25-1.41,1.48-2.8,2.71-3.96,3.84-1.21,1.09-2.28,1.99-3.15,2.74-.86.66-1.56,1.2-2.1,1.6-.48.36-.74.54-.75.52-.01-.01.22-.24.67-.63.51-.43,1.18-.99,2-1.69.86-.79,1.88-1.73,3.06-2.81,1.14-1.14,2.5-2.41,3.88-3.9,5.64-5.87,12.88-14.61,19.31-25.27,2.98-4.99,5.5-9.96,7.27-14.72.89-2.37,1.59-4.73,2.06-6.89.13-1.05-.16-2.16-.89-2.78-.35-.34-.82-.39-1.34-.58-.5-.17-.98-.4-1.41-.67l-.3-.17.26-.23c.81-.75,1.34-1.69,1.44-2.67.12-.98-.15-1.94-.5-2.76-.7-1.67-1.65-2.94-2.42-3.98-.77-1.03-1.38-1.84-1.75-2.42-.39-.56-.48-.93-.48-.93v-.04Z"/>
          <polygon class="cls-6" points="519.61 462.36 516.8 465.8 519.27 469.4 523.64 469.4 524.66 465.88 522.79 462.52 519.61 462.36"/>
          <path class="cls-8" d="M511.63,529.04c.19.03-.82,9.21-2.24,20.5-1.44,11.3-2.74,20.43-2.94,20.42-.19-.03.82-9.21,2.24-20.5,1.44-11.29,2.74-20.43,2.94-20.42Z"/>
          <path class="cls-8" d="M521.44,544.05c-.07.19-7.37-2.18-16.3-5.28-8.94-3.09-16.14-5.75-16.07-5.94.07-.19,7.37,2.18,16.3,5.28,8.94,3.09,16.14,5.75,16.07,5.94Z"/>
          <path class="cls-8" d="M515.43,546.36c.03.19-2.66.69-6.01,1.12-3.35.43-6.07.62-6.1.42-.03-.19,2.66-.69,6.01-1.12,3.35-.43,6.07-.6,6.1-.42Z"/>
          <path class="cls-8" d="M521.63,459.54c.15.12-2.42,3.48-5.75,7.51-.23.24-.52.59-1.08.6-.56-.03-.82-.46-.99-.7-.34-.51-.66-1.01-.97-1.49-.56-.89-1.1-1.73-1.61-2.54-.9-1.45-1.41-2.38-1.33-2.43s.74.78,1.75,2.16c.55.78,1.13,1.59,1.73,2.45.32.47.66.97,1.01,1.46.36.52.51.5.97.01,3.32-4.01,6.13-7.18,6.28-7.06h0Z"/>
          <path class="cls-8" d="M536.87,462.62c.04.09-.98.65-2.67,1.45-1.69.81-4.05,1.88-6.69,2.97-.34.13-.67.26-.99.39-.17.05-.32.12-.52.17l-.15.04s-.09.03-.23.01c-.22-.04-.31-.13-.39-.19-.59-.58-.85-1.14-1.17-1.69-.59-1.1-1.05-2.12-1.41-3-.73-1.73-1.09-2.84-.99-2.88s.6.99,1.45,2.66c.42.83.91,1.83,1.53,2.89.3.51.65,1.12,1.03,1.48.01,0,.05.04.05.04h0s-.03.09-.03.11v.07h0c-.05-.35-.01-.09-.03-.17h.05l.09-.04c.13-.04.31-.11.46-.16.32-.12.65-.26.98-.39,2.5-1.02,4.77-1.96,6.76-2.77,1.73-.7,2.84-1.09,2.88-.99h-.01Z"/>
        </g>
      </g>
      <path class="cls-11" d="M958.54,586.48c2.81-14.22.62-29.7-1.64-43.84-1.2-7.51-2.69-15.01-4.74-22.35-1.4-5.01-2.92-10.6-5.91-14.95-2.66-3.84-6.59-7-9.99-10.15-6.08-5.6-12.28-11.05-18.55-16.44-6.71-5.78-13.47-11.49-20.32-17.08-7.08-5.78-13.87-11.16-23.45-11.41-5.32-.15-10.46,1.24-15.44,2.97-5.05,1.76-10.13,3.47-15.24,5.09-10.42,3.33-20.9,6.41-31.46,9.26-20.74,5.6-41.69,10.38-62.77,14.5-35.47,6.96-71.29,12.15-107.24,15.9-11.5,1.2-23.02,2.24-34.55,3.12-5.19.39-10.51.4-15.67,1.08-1.02.13-2,.22-2.58,1.29-.78,1.46-.09,3.21,1.51,3.7h0c.23-1.65.44-3.29.67-4.95l-23.08.2c-18.59.16-37.16.34-55.75.5-22.39.2-44.78.4-67.17.59-19.37.17-38.73.35-58.1.51-6.44.05-12.88.12-19.31.17-3,.03-6.07-.15-9.06.08h-.39c-3.24.03-3.25,5.07,0,5.04,7.69-.07,15.39-.13,23.08-.2,18.59-.16,37.16-.34,55.75-.5l67.17-.59c19.37-.17,38.73-.35,58.1-.51,6.44-.05,12.88-.12,19.31-.17,3-.03,6.07.15,9.06-.08h.39c2.88-.03,3.39-4.11.67-4.95h0c.5,1.24,1.01,2.47,1.51,3.7h0c-.5.39-1.01.77-1.51,1.16-.97.28-.34.04.24.01.75-.04,1.49-.09,2.24-.15,2.81-.17,5.62-.36,8.44-.56,10.17-.73,20.34-1.6,30.48-2.58,33.13-3.23,66.15-7.67,98.92-13.53,40.76-7.27,81.27-16.67,120.56-29.84,9.76-3.27,20.01-7.88,30.13-3.16,3.87,1.8,7.11,4.72,10.39,7.39,3.27,2.65,6.51,5.34,9.72,8.04,11.92,10,23.9,20.08,35.04,30.97,2.88,2.81,4.78,5.07,6.32,8.83,2.42,5.94,3.95,12.3,5.31,18.55,3.24,14.86,5.48,30.44,4.91,45.7-.11,2.78-.32,5.56-.87,8.29-.63,3.17,4.23,4.53,4.87,1.34h.03Z"/>
      <path class="cls-9" d="M939.81,490.94s1.71-.11,2.23.74c.54.85,0,3.47,0,3.47,0,0,2.02-1.42,3.62,0s.74,3.45.74,3.45c0,0,1.71.63,2.23,1.71s0,2.16,0,2.16c0,0,2.11.91,1.71,2.94s-3.62,4.89-4.57,5.31-4.05.32-4.05-.85v-1.6s-1.8-1.49-1.91-2.55l-.11-1.06s-2.34-.74-2.45-2.02l-.11-1.28s-1.38.85-1.38-2.34,1.71-4.05,1.71-4.05v-2.55s.97-1.64,2.34-1.48h0Z"/>
      <g>
        <path class="cls-4" d="M569.93,468.57l5.74,7.11v4.34s26.32,26.46,25.91,37.53,1.21,9.09-4.85,11.06c-6.07,1.98-53.86-3.56-53.86-3.56v-24.89l15.38,1.91,11.69-33.52v.03Z"/>
        <path class="cls-8" d="M568.25,474.96c.19.07-1.84,6.17-4.5,13.64-2.67,7.47-4.99,13.47-5.16,13.4-.19-.07,1.84-6.17,4.5-13.64,2.67-7.46,4.99-13.47,5.16-13.4h0Z"/>
        <path class="cls-9" d="M543.16,502.17s-.22-.13-.56-.35c-1.68-1.05-6.64-4.11-8.41-4.78-2.15-.82-9.91.73-9.91.73,0,0-3.08,1.83-2.9,3.64s1.77,2.37,1.77,2.37c0,0-1.3,5.11,1.12,5.56,0,0-.75,2.65,1.21,3.56,0,0-.66,2.46,2.34,2.92,3,.46,15.51,1.37,15.32,1.09"/>
        <path class="cls-8" d="M556.34,526.5s-.32.01-.91-.03c-.67-.05-1.55-.12-2.62-.22-2.37-.23-5.64-.54-9.66-.93l-.22-.03v-.23c-.11-6.59-.24-15.27-.39-24.92v-.39l.38.04c1.49.17,3.06.36,4.66.55,11.88,1.44,22.62,2.73,30.39,3.67l-.17.05c3.09-2.34,6.13-3.28,8.2-3.7,1.05-.2,1.87-.28,2.42-.31.56-.03.85-.01.85,0,0,.07-1.17.09-3.23.58-2.03.48-4.99,1.49-7.96,3.82l-.08.07h-.09c-7.78-.9-18.52-2.12-30.42-3.47-1.6-.19-3.17-.38-4.66-.55l.38-.35c.08,9.65.15,18.33.19,24.92l-.23-.24c4.02.48,7.28.87,9.64,1.14,1.08.15,1.94.26,2.61.35.59.08.9.15.9.17h.04Z"/>
        <path class="cls-8" d="M582.81,495.83c.07.2-2.53,1.18-5.43,2.94-2.92,1.73-5.01,3.55-5.15,3.4-.13-.12,1.8-2.22,4.78-4.01,2.98-1.8,5.74-2.51,5.78-2.34h.01Z"/>
      </g>
      <g>
        <g>
          <path class="cls-9" d="M384.4,511.53s-1.57-.27-1.63-1.95c-.03-.63.2-1.41.48-2.15.54-1.37,1.51-2.51,2.77-3.27.98-.59,2.11-1.25,2.55-1.46.85-.4,2.71-.3,2.71-.3,0,0,1.28-1.14,2.65-1.48s2.81,1.63,2.81,1.63c0,0,.9-1.65,2.35-1.25,1.45.4,1.45,1.09,1.45,1.09,0,0,1.36-.65,2.34.69s-.69,6.88-.73,7.07-.47,4.87-2.43,5.08-3.4-1.75-3.4-1.75c0,0-1.29,1.08-2.88.56-1.6-.51-1.77-2.11-1.77-2.11,0,0-.46,1.55-2.27.87-1.8-.67-2.19-2.94-2.19-2.94,0,0-2.31,1.85-2.82,1.68h0Z"/>
          <path class="cls-1" d="M384.4,511.54c.03.09,1.09-.42,2.71-1.8.07-.05.16-.04.22.01.01.01.03.04.03.07h0c.19.75.56,1.71,1.37,2.35.39.31.93.55,1.48.56.54.04,1.05-.34,1.22-.87.04-.13.19-.22.32-.16.09.03.16.11.17.2h0c.13.78.69,1.6,1.55,1.85.85.31,1.9.09,2.66-.51.13-.11.34-.08.44.05.63.78,1.59,1.52,2.65,1.61,1.1.24,1.69-.99,2.06-2.12.19-.58.31-1.2.42-1.83.07-.34.07-.59.16-1.01l.26-.95c.32-1.28.62-2.61.71-3.94.03-.77.07-1.57-.39-1.99-.44-.5-1.17-.6-1.73-.38-.17.08-.39,0-.47-.19,0-.03-.03-.05-.03-.09v-.04c-.05-.34-1.05-.83-1.61-.81-.63.03-1.22.56-1.56,1.14-.09.16-.3.22-.47.12-.04-.03-.07-.05-.09-.08-.63-.82-1.57-1.65-2.42-1.52-.94.22-1.85.81-2.58,1.4-.07.05-.13.08-.22.08-1.09-.01-2.19-.08-3,.48-.87.51-1.76.95-2.5,1.42-1.48.99-2.26,2.43-2.62,3.66-.44,1.22-.19,2.28.35,2.71.51.44.91.5.9.54,0,.01-.09.01-.28-.03-.17-.05-.44-.15-.74-.38-.28-.23-.59-.6-.7-1.14-.12-.54-.04-1.16.13-1.8.32-1.28,1.12-2.86,2.69-3.96.79-.52,1.64-.98,2.54-1.52.4-.3,1.03-.48,1.57-.54.56-.07,1.12-.08,1.71-.05l-.22.08c.81-.67,1.69-1.29,2.85-1.57.67-.13,1.3.16,1.79.5.5.35.9.77,1.29,1.25l-.56.04c.43-.73,1.1-1.42,2.11-1.51.51,0,.91.15,1.32.32.39.23.87.42,1.01,1.17l-.5-.31c.85-.39,1.91-.17,2.54.51.15.16.3.34.4.59.08.23.15.44.16.66.07.43.04.85.03,1.26-.11,1.42-.4,2.76-.74,4.06l-.26.97c-.05.23-.09.63-.15.93-.11.66-.26,1.29-.46,1.92-.2.62-.46,1.24-.87,1.79-.2.27-.5.51-.83.67-.38.12-.71.15-1.05.11-1.36-.15-2.35-.98-3.08-1.9l.44.05c-.95.73-2.2.95-3.24.56-1.08-.36-1.73-1.36-1.87-2.33l.5.04c-.24.77-1.01,1.26-1.72,1.2-.7-.04-1.26-.34-1.73-.71-.9-.79-1.25-1.79-1.41-2.61l.26.09c-.86.65-1.56,1.1-2.07,1.36-.5.28-.86.24-.83.2v.03Z"/>
        </g>
        <path class="cls-1" d="M391.52,502.47c.16.12-.86,1.73-2.08,3.72-1.22,2-2.18,3.64-2.37,3.56-.17-.08.52-1.9,1.76-3.92,1.24-2.03,2.53-3.48,2.67-3.36h.01Z"/>
        <path class="cls-1" d="M391.58,512.31c-.08,0-.09-.67.22-1.67.3-.99.95-2.28,1.81-3.58s1.65-2.42,2.16-3.28c.52-.85.81-1.41.9-1.37.08.03-.04.66-.47,1.6-.42.94-1.17,2.15-2.02,3.43-.85,1.28-1.53,2.46-1.94,3.37-.4.9-.58,1.51-.67,1.48h0Z"/>
        <path class="cls-1" d="M400.61,502.74c.17.08-.69,2.49-1.95,5.38-1.25,2.9-2.41,5.19-2.58,5.11s.7-2.49,1.95-5.38c1.25-2.89,2.41-5.17,2.58-5.11Z"/>
      </g>
      <path class="cls-13" d="M627.41,512.88s-12.49.16-14.8-1.41c-2.31-1.59-5.66-5.63-5.66-5.63,0,0,.55-4.78,2.2-5.73s2.46.83,2.46.83c0,0,1.55-1.44,3.25-.38,0,0,1.81-1.68,4.01-.42,0,0,1.67-1.25,2.78-.83,1.1.42,1.67,5.55,1.67,5.55,0,0,7.24-.17,9.3,1.56s3.47,2.62,3.47,2.62l-5.11,6.22-3.59-2.38h.01Z"/>
      <g>
        <path class="cls-13" d="M774.76,464.35s10.51,3.76,11.38,8.1l.03.13c.69,3.49-1.25,6.96-4.56,8.25-5.36,2.08-13.99,5.15-21.56,6.41-12.03,2.02-15.86,1.64-15.86,1.64l-6.51-7.82,37.07-16.72Z"/>
        <path class="cls-13" d="M721.74,483.84l15.95-2.77,6.51,7.82s-7.96,5.9-10.31,6.3-3.31.34-3.31.34c.08.19-.48,3.79-1.56,3.75-1.09-.04-1.88-1.56-1.88-1.56,0,0-2.62.56-3.13-.39l-.51-.95s-2.73.99-3.58.34c-.85-.66-.63-3.17-.63-3.17,0,0-2.04.47-2.59-.51-.55-.98,1.02-8.49,5.05-9.19h-.01Z"/>
      </g>
      <g>
        <g class="cls-14">
          <polygon class="cls-2" points="806.95 565.01 864.89 598.15 869 588.74 806.95 565.01"/>
        </g>
        <path class="cls-8" d="M869.5,448.21c-.97.32-7.14,3.24-11.36,11.36s-19.47,52.24-19.47,52.24l-35.05,51.6,72.7,34.73s20.12-51.92,23.04-74.97c2.92-23.05-2.92-67.5-9.41-73.02-6.49-5.51-20.44-1.95-20.44-1.95h0Z"/>
        <path class="cls-4" d="M837.03,549.72s.23.09.59.26c.43.2.94.44,1.57.74,1.42.69,3.35,1.6,5.71,2.73,4.83,2.31,11.44,5.48,18.91,9.19l-.47.17c.71-1.67,1.44-3.4,2.19-5.16.3-.67.58-1.36.86-2l.17.46c-8.7-4.17-16.42-7.9-21.73-10.52h.22c-2.43,1.3-4.39,2.31-5.79,3.02-.65.34-1.18.6-1.61.83-.38.19-.58.3-.6.3s.13-.11.47-.3c.4-.24.9-.54,1.49-.89,1.32-.78,3.29-1.95,5.82-3.37l.11-.05.11.05c5.38,2.5,13.13,6.16,21.84,10.31l.3.15-.13.31c-.28.66-.56,1.33-.86,2-.75,1.77-1.49,3.51-2.2,5.16l-.15.34-.32-.16c-7.63-3.8-14.33-7.24-19.04-9.66-2.27-1.17-4.14-2.14-5.52-2.85-1.28-.66-1.96-1.02-1.91-1.02v-.03Z"/>
        <g>
          <g class="cls-14">
            <path class="cls-2" d="M860.99,486.73c.79,1.09,24.78,47.77,33.39,53.57l5.75-16.11-39.14-37.44h0Z"/>
          </g>
          <g>
            <g>
              <g>
                <path class="cls-9" d="M888.58,449.08v1.84s8.92,12.06,9.78,14.19c.85,2.12,1.76,6.24,1.76,6.24l13.82,7.22-3.56-13.76s.11-10-.63-11.48c-.74-1.49-2.02-1.71-2.02-1.71,0,0-.95-1.91-2.02-2.34l-1.06-.43s-1.17-2.02-2.23-2.02-2.55.54-2.55.54c0,0-2.97-1.16-3.94-1.12-.95.04-3.94.9-3.94.9,0,0-.07-.04-.17-.09-1.49-.73-3.23.38-3.23,2.03h-.01Z"/>
                <path class="cls-1" d="M888.58,449.08s-.13-.46.26-1.21c.2-.35.56-.77,1.14-1.01.56-.26,1.37-.26,2.07.13h-.11c1.01-.3,2.15-.65,3.52-.91.73-.16,1.49.09,2.2.27.74.22,1.49.47,2.27.75h-.17c.85-.27,1.69-.58,2.78-.55.6.09,1.01.5,1.37.86.36.39.67.81.95,1.26l-.13-.12c.31.12.63.26.95.38.36.12.71.38.97.65.54.55.95,1.17,1.32,1.87l-.22-.16c1.22.31,2.18,1.26,2.45,2.51.23,1.17.3,2.34.36,3.53.12,2.39.15,4.88.13,7.45v-.09c.73,2.85,1.49,5.79,2.27,8.8.43,1.68.86,3.33,1.28,4.95l.2.77-.7-.36c-4.93-2.58-9.58-5.03-13.8-7.24l-.13-.07-.03-.15c-.31-1.41-.65-2.77-1.02-4.06-.19-.65-.38-1.28-.6-1.88-.22-.59-.54-1.12-.86-1.65-1.32-2.11-2.63-3.99-3.78-5.66-2.27-3.23-3.98-5.66-5.04-7.18v-.05c0-.58.01-1.03.03-1.4.01-.3.03-.44.05-.44s.03.15.05.44c0,.36.03.81.04,1.4v-.05c1.02,1.33,2.86,3.75,5.24,7.04,1.18,1.65,2.53,3.51,3.88,5.63.32.52.69,1.1.93,1.73.24.62.44,1.26.63,1.91.39,1.3.74,2.67,1.06,4.1l-.16-.22c4.22,2.19,8.9,4.62,13.83,7.18l-.5.39c-.42-1.63-.85-3.28-1.29-4.95-.78-3.02-1.55-5.97-2.27-8.82v-.09c0-2.55,0-5.03-.12-7.41-.07-1.18-.12-2.35-.32-3.43-.17-.98-1.06-1.84-1.94-2.06l-.16-.04-.07-.12c-.32-.63-.73-1.25-1.2-1.72-.24-.24-.47-.42-.77-.52-.32-.13-.65-.26-.95-.39l-.08-.04-.05-.08c-.5-.81-1.17-1.72-1.91-1.88-.83-.03-1.77.24-2.55.48l-.09.03-.08-.03c-.77-.3-1.51-.56-2.22-.78-.73-.2-1.38-.44-2.02-.31-1.32.22-2.5.54-3.49.79h-.11c-.63-.39-1.32-.4-1.84-.2-.54.19-.89.55-1.09.87-.42.67-.34,1.13-.39,1.13v.03Z"/>
              </g>
              <polygon class="cls-12" points="898.42 471.34 898.18 465.82 913.61 470.26 915.87 479.58 898.42 471.34"/>
            </g>
            <g>
              <g>
                <path class="cls-8" d="M857.04,474.58c-.07,4.37,1.38,8.63,3.95,12.15,7.27,9.97,27.12,36.64,33.96,40.07,8.44,4.22,15.25,4.06,17.2-1.87s6.81-43.9,6.81-43.9l-21.2-10-.97,2.59s-9.31-29.9-21.96-27.96c-10.16,1.56-17.61,16.53-17.79,28.92h-.01Z"/>
                <path class="cls-4" d="M857.04,474.58v-.35l.03-1.05c0-.93.13-2.3.4-4.05.58-3.48,1.8-8.68,5.27-14.31,1.75-2.76,4.06-5.74,7.54-7.73,1.72-.98,3.71-1.76,5.9-1.76,2.19.04,4.34,1.01,6.13,2.42,1.83,1.38,3.37,3.16,4.8,5.08,1.41,1.94,2.7,4.02,3.88,6.24,2.35,4.44,4.41,9.27,6.13,14.46h-.62c.3-.82.63-1.71.97-2.61l.12-.34.32.15c6.71,3.16,13.83,6.52,21.21,9.99l.23.11-.03.26c-.63,4.7-1.29,9.66-1.96,14.69-1.1,7.88-2.2,15.56-3.49,22.96-.35,1.84-.67,3.67-1.14,5.48-.44,1.8-1.41,3.64-3.08,4.62-1.61,1.05-3.55,1.26-5.34,1.16-1.8-.11-3.53-.55-5.19-1.1-1.65-.56-3.23-1.24-4.7-2.08l-1.09-.7-.98-.81c-.66-.51-1.25-1.1-1.84-1.67-2.37-2.28-4.49-4.64-6.49-6.96-4.01-4.65-7.55-9.13-10.74-13.24-3.19-4.13-6.01-7.9-8.47-11.24-1.22-1.67-2.35-3.23-3.4-4.66-1.06-1.41-1.92-2.82-2.53-4.15-1.24-2.67-1.63-4.95-1.77-6.48-.13-1.53-.04-2.34-.04-2.34,0,0,.03.2.04.59.01.39.05.98.13,1.73.19,1.51.62,3.75,1.88,6.37.62,1.3,1.48,2.67,2.55,4.07,1.06,1.42,2.2,2.97,3.44,4.62,2.49,3.31,5.34,7.06,8.53,11.16,3.21,4.1,6.77,8.55,10.79,13.17,2,2.31,4.14,4.65,6.48,6.89.59.55,1.17,1.13,1.81,1.63l.95.78,1.02.66c1.42.81,3.01,1.48,4.61,2.02,1.61.54,3.29.95,5.01,1.05,1.71.11,3.49-.12,4.93-1.06,1.49-.89,2.35-2.51,2.78-4.25.46-1.75.78-3.59,1.13-5.42,1.29-7.38,2.38-15.05,3.48-22.93.67-5.03,1.34-9.99,1.98-14.68l.2.36c-7.37-3.48-14.49-6.85-21.2-10.01l.44-.19c-.34.9-.67,1.79-.97,2.59l-.32.87-.3-.89c-1.68-5.13-3.71-9.97-6.03-14.37-1.16-2.2-2.43-4.27-3.82-6.18-1.38-1.9-2.92-3.64-4.66-4.99-1.72-1.37-3.75-2.28-5.79-2.34-2.04,0-4.01.71-5.66,1.65-3.37,1.91-5.69,4.83-7.43,7.53-3.47,5.54-4.76,10.67-5.4,14.13-.3,1.75-.46,3.1-.51,4.02-.03.44-.05.78-.08,1.05-.03.23-.04.35-.04.35h-.03Z"/>
              </g>
              <path class="cls-4" d="M891.34,505.03s-.05-.48-.01-1.36c.03-.87.12-2.12.26-3.67.28-3.09.81-7.37,1.64-12.03.85-4.66,1.84-8.86,2.66-11.85.4-1.51.77-2.7,1.03-3.53.27-.82.44-1.28.48-1.26.09.03-.35,1.9-1.05,4.92s-1.61,7.2-2.45,11.85-1.44,8.88-1.84,11.96-.63,4.97-.74,4.97h.01Z"/>
            </g>
          </g>
        </g>
        <path class="cls-4" d="M804.39,563.92s.13.04.38.13c.28.12.63.27,1.06.46.97.43,2.34,1.05,4.06,1.81,3.56,1.63,8.63,3.94,14.88,6.79,12.57,5.81,29.86,13.8,48.96,22.63,1.14.54,2.28,1.06,3.35,1.56l-.48.2c6.48-19.17,12.26-36.37,16.24-48.84.99-3.12,1.83-5.94,2.46-8.47.66-2.5,1.22-4.65,1.69-6.42.47-1.72.83-3.08,1.1-4.05.12-.43.23-.78.3-1.05.07-.23.11-.35.12-.35,0,0,0,.12-.05.36-.07.28-.13.63-.24,1.06-.23.98-.56,2.34-.97,4.09-.44,1.79-.97,3.95-1.59,6.46-.59,2.53-1.4,5.38-2.37,8.51-3.86,12.51-9.57,29.76-16.03,48.92l-.12.36-.35-.16c-1.06-.5-2.2-1.02-3.35-1.56-19.07-8.9-36.33-16.96-48.88-22.81-6.21-2.93-11.25-5.31-14.78-6.99-1.71-.82-3.04-1.46-4.01-1.94-.43-.22-.77-.39-1.03-.52-.23-.12-.35-.19-.34-.2h0Z"/>
      </g>
    </g>
  </g>
  <g id="freepik--Weight--inject-2">
    <g>
      <circle class="cls-6" cx="193.78" cy="566.13" r="163.97"/>
      <path class="cls-6" d="M340.64,505.53c3.7-2.23,9.45-6.48,14.18-5.09,4.1,1.21,5.35,6.18,6.49,9.81,1.99,6.36-3.44,7.45-8.29,9.89-5.52,2.78-11.06,5.51-16.61,8.23-8.74,4.27-1.09,17.31,7.63,13.05,8.91-4.35,20.81-8.14,28.09-15.04,7-6.64,5.62-15.64,2.49-23.84-2.9-7.57-7.38-14.6-15.75-16.68-9.35-2.34-18.04,1.9-25.83,6.61-8.32,5.04-.73,18.12,7.63,13.05h-.03Z"/>
      <g class="cls-16">
        <path class="cls-12" d="M215.82,668.41c-4.92-3.51-10.91-5.08-16.52-7.37-18.88-7.71-33.83-24.5-39.27-44.16-7.62-27.47,2.38-58.81-10.62-84.18-6.92-13.52-20.21-23.6-35.09-26.64s-31.06,1.03-42.73,10.75c-23.91,16.57-27.06,48.02-19.56,74.59,9.62,42.87,39.65,80.68,79.2,99.79,25.71,12.41,57.47,16.67,82.25,2.5,4.01-2.28,8.01-5.35,9.29-9.78,1.68-5.81-2.03-12-6.96-15.51h0Z"/>
      </g>
      <path class="cls-8" d="M357.63,559.49s-.07-.3-.11-.87c-.04-.65-.11-1.48-.19-2.5-.07-1.09-.15-2.41-.32-3.95-.16-1.53-.28-3.29-.56-5.21-.24-1.92-.51-4.03-.91-6.28-.34-2.26-.83-4.65-1.34-7.16-1.09-5.01-2.5-10.48-4.3-16.11-1.83-5.63-3.87-10.9-5.86-15.63-2.04-4.7-4.02-8.88-5.81-12.34-1.77-3.45-3.27-6.22-4.34-8.12-.5-.9-.9-1.63-1.21-2.19-.27-.51-.4-.78-.38-.79s.19.23.5.71c.34.55.78,1.25,1.32,2.12,1.14,1.85,2.71,4.58,4.54,8.02,1.84,3.43,3.88,7.59,5.95,12.31,2.04,4.73,4.1,10.01,5.94,15.67,1.81,5.67,3.2,11.17,4.26,16.21.48,2.53.97,4.93,1.28,7.2.38,2.26.62,4.38.83,6.32.26,1.94.34,3.7.46,5.24.13,1.55.17,2.88.2,3.96.03,1.03.04,1.85.05,2.5,0,.58,0,.87-.03.87h.03Z"/>
      <path class="cls-8" d="M338.62,539.32s.05.17.13.51c.08.38.19.87.32,1.51.24,1.33.74,3.27,1.08,5.81.86,5.05,1.63,12.47,1.55,21.67-.07,2.3-.15,4.7-.31,7.2-.23,2.5-.38,5.11-.78,7.77-.63,5.36-1.77,11.03-3.29,16.91-1.49,5.89-3.6,11.92-6.17,18.01-2.59,6.07-5.69,12.2-9.46,18.12-3.75,5.93-7.82,11.44-12,16.56-4.26,5.05-8.51,9.81-12.88,14.03-8.6,8.57-17.3,15.31-24.93,20.38-1.92,1.25-3.74,2.47-5.55,3.48-1.8,1.02-3.44,2.08-5.09,2.86-1.63.82-3.13,1.59-4.53,2.3-1.42.62-2.74,1.18-3.92,1.69-.59.26-1.14.5-1.67.73-.54.19-1.03.36-1.51.54-.93.32-1.71.59-2.37.82-.62.2-1.09.38-1.45.5-.32.11-.5.16-.5.15,0,0,.16-.08.48-.22l1.42-.55c.65-.24,1.42-.54,2.33-.89.46-.17.95-.36,1.49-.56.52-.23,1.08-.48,1.65-.75,1.17-.52,2.46-1.12,3.88-1.75,1.38-.73,2.88-1.51,4.49-2.34,1.64-.79,3.27-1.87,5.04-2.9,1.8-1.01,3.59-2.24,5.5-3.51,7.58-5.11,16.21-11.85,24.76-20.42,4.34-4.22,8.56-8.96,12.8-14,4.15-5.11,8.2-10.6,11.93-16.49,3.76-5.87,6.84-11.98,9.44-18.01,2.57-6.05,4.68-12.06,6.17-17.92,1.52-5.85,2.69-11.49,3.33-16.83.42-2.66.58-5.26.82-7.74.17-2.49.27-4.88.35-7.16.15-9.15-.54-16.56-1.32-21.61-.3-2.54-.75-4.49-.94-5.82-.11-.63-.19-1.14-.26-1.52-.05-.34-.08-.52-.07-.52h.03Z"/>
      <g>
        <path class="cls-11" d="M361.16,509.11c.28-.62.6-1.21.98-1.77.09-.13.19-.26.28-.39.26-.38-.39.44-.08.11.26-.27.48-.55.74-.81.23-.23.48-.44.73-.67.36-.32-.07-.05-.09.05.03-.09.42-.3.51-.36.59-.4,1.22-.75,1.87-1.06.38-.19.07-.11-.08.03.09-.09.39-.15.52-.19.35-.12.71-.23,1.08-.32.42-.11.82-.17,1.24-.26.48-.11-.55.04-.05,0,.19,0,.38-.04.56-.05.81-.05,1.6-.03,2.41.04.39.03.23-.01-.05,0,.23,0,.47.08.7.12.42.08.82.19,1.22.31,1.68.5,3.74-.6,4.14-2.35.42-1.8-.54-3.6-2.35-4.14-7.5-2.22-16.73.86-20.05,8.31-.71,1.6-.51,3.68,1.21,4.6,1.46.78,3.83.51,4.6-1.21h0v.03Z"/>
        <path class="cls-11" d="M360.48,515.79c.87-.23,1.75-.44,2.63-.63.44-.09.89-.17,1.33-.26.11-.01,1.03-.13.44-.07.89-.09,1.79-.16,2.69-.13.44,0,.9.04,1.34.08-.74-.07.2.04.36.07.66.13,1.29.34,1.94.55.35.13.34.12-.07-.04.16.07.32.15.48.23.28.13.55.3.81.46.27.16.52.34.77.52-.67-.51.2.22.31.32.12.12.83.98.34.31.22.28.39.58.58.89.89,1.52,3.08,2.19,4.6,1.21,1.53-.99,2.15-2.97,1.21-4.6-1.88-3.25-5.27-5.46-8.9-6.26-4.22-.94-8.53-.2-12.65.89-1.69.44-2.9,2.42-2.35,4.14.56,1.75,2.31,2.82,4.14,2.35h0v-.03Z"/>
      </g>
    </g>
  </g>
  <g id="freepik--Text--inject-2">
    <g>
      <path class="cls-8" d="M84.35,564.98c-2.02-.24-3.8-.98-5.35-2.18-1.55-1.21-2.69-2.8-3.43-4.76-.74-1.98-.93-3.91-.55-5.85.36-1.92,1.24-3.64,2.59-5.16,1.36-1.52,3.09-2.67,5.21-3.47s4.19-1.06,6.21-.82c2.02.24,3.8.98,5.35,2.18,1.55,1.21,2.69,2.8,3.43,4.77.74,1.96.93,3.91.55,5.85-.36,1.92-1.24,3.64-2.59,5.16s-3.09,2.67-5.21,3.47c-2.12.79-4.19,1.08-6.21.82h0ZM90.54,557.34c.51-.66.83-1.42.94-2.31.12-.89,0-1.83-.39-2.82-.38-.99-.9-1.79-1.57-2.38s-1.41-.97-2.23-1.12-1.64-.08-2.46.23-1.49.79-2.02,1.44c-.51.66-.83,1.42-.94,2.31-.12.89,0,1.83.39,2.82.38.99.9,1.79,1.57,2.38s1.41.97,2.23,1.12c.82.16,1.64.08,2.46-.23s1.49-.79,2.02-1.44Z"/>
      <path class="cls-8" d="M120.02,544.72c.9.66,1.53,1.57,1.88,2.77.52,1.77.19,3.35-.98,4.74-1.18,1.4-3.15,2.5-5.91,3.32l-11.36,3.33-5.91-20.19,10.78-3.16c2.69-.79,4.87-.9,6.52-.35,1.65.56,2.71,1.64,3.19,3.23.28.94.3,1.85.04,2.74s-.77,1.69-1.56,2.43c1.32.09,2.43.47,3.33,1.12h-.01ZM105.8,541.5l.87,3,3.17-.93c1.48-.43,2.07-1.16,1.77-2.15-.3-.99-1.18-1.28-2.66-.85l-3.17.93h.01ZM114.8,548.73c-.31-1.06-1.21-1.37-2.71-.93l-4.1,1.2.93,3.17,4.1-1.2c1.51-.44,2.1-1.18,1.79-2.24h0Z"/>
      <path class="cls-8" d="M121.05,532.09l6.92-1.55,3.39,15.16,9.26-2.07,1.2,5.36-16.18,3.62-4.6-20.52h.01Z"/>
      <path class="cls-8" d="M139.91,528.06l6.99-1.22,3.63,20.71-6.99,1.22-3.63-20.72h0Z"/>
      <path class="cls-8" d="M166.12,534.27l6.12-.73,1.05,8.83c-1.13,1.01-2.49,1.83-4.06,2.49-1.57.65-3.15,1.08-4.72,1.26-2.23.27-4.29.04-6.17-.67s-3.43-1.84-4.62-3.39c-1.21-1.55-1.94-3.36-2.18-5.47-.26-2.11.03-4.06.83-5.83.81-1.77,2.06-3.24,3.75-4.38s3.67-1.84,5.94-2.11c2.06-.24,3.92-.12,5.63.38,1.71.5,3.17,1.33,4.39,2.51l-4.03,4.5c-1.49-1.37-3.15-1.96-4.96-1.73-1.55.19-2.73.79-3.53,1.84s-1.12,2.37-.91,3.98c.19,1.57.79,2.78,1.81,3.63s2.28,1.18,3.79,1.01c.9-.11,1.73-.38,2.5-.82l-.63-5.28h0Z"/>
      <path class="cls-8" d="M190.36,540.15l-7.98.28-1.29,3.71-7.2.26,8.47-21.34,6.98-.24,9.92,20.7-7.32.26-1.53-3.62h-.03ZM188.24,535.11l-2.23-5.21-1.85,5.36,4.09-.15h0Z"/>
      <path class="cls-8" d="M204.23,528.42l-6.16-.31.27-5.5,19.39.97-.28,5.5-6.16-.31-.78,15.51-7.08-.35.78-15.51h.01Z"/>
      <path class="cls-8" d="M220.51,524l7.04.78-2.33,20.9-7.04-.78,2.33-20.9Z"/>
      <path class="cls-8" d="M233.36,545.85c-1.6-1.25-2.76-2.8-3.45-4.62-.7-1.83-.86-3.78-.48-5.85s1.22-3.83,2.53-5.3,2.93-2.49,4.88-3.09c1.95-.6,4.03-.7,6.25-.28,2.23.4,4.14,1.24,5.74,2.49s2.76,2.8,3.45,4.62c.7,1.83.86,3.78.48,5.85s-1.22,3.83-2.53,5.3-2.93,2.49-4.88,3.09c-1.95.6-4.03.7-6.25.28-2.23-.4-4.14-1.24-5.74-2.49ZM242.61,542.49c.78-.3,1.44-.79,2-1.49.55-.7.93-1.57,1.13-2.62.19-1.05.15-1.99-.12-2.85-.27-.86-.71-1.56-1.34-2.11-.62-.55-1.37-.91-2.23-1.06-.86-.16-1.69-.09-2.46.2-.78.3-1.45.79-2,1.49s-.93,1.57-1.13,2.62c-.19,1.05-.15,1.99.12,2.85.27.86.71,1.56,1.34,2.11.62.55,1.37.9,2.23,1.06s1.69.09,2.47-.2h-.01Z"/>
      <path class="cls-8" d="M278.63,536.08l-5.82,20.21-5.6-1.61-5.04-11.4-2.63,9.18-6.64-1.91,5.82-20.21,5.6,1.61,5.04,11.4,2.63-9.18,6.64,1.91Z"/>
      <path class="cls-8" d="M278.2,558.22c-1.4-.97-2.47-1.95-3.21-2.96l4.01-3.98c.73.9,1.6,1.75,2.62,2.53,1.03.78,2.07,1.37,3.13,1.79.91.36,1.6.52,2.06.5.46-.03.77-.22.9-.56.16-.4.03-.82-.4-1.22-.43-.4-1.2-.95-2.27-1.67-1.38-.91-2.51-1.75-3.37-2.5s-1.51-1.69-1.94-2.82c-.42-1.12-.36-2.39.2-3.8.48-1.24,1.26-2.22,2.35-2.96,1.09-.74,2.42-1.13,4.02-1.17s3.37.32,5.34,1.09c1.34.52,2.61,1.18,3.79,1.98s2.16,1.67,2.93,2.61l-3.86,4.01c-1.55-1.72-3.17-2.92-4.89-3.59-1.69-.66-2.71-.59-3.02.24-.15.39-.01.78.42,1.18.43.39,1.18.93,2.24,1.6,1.38.86,2.51,1.68,3.4,2.45s1.55,1.71,1.98,2.82c.43,1.12.38,2.38-.17,3.8-.48,1.24-1.26,2.22-2.34,2.94s-2.42,1.12-4.02,1.17-3.39-.31-5.34-1.08c-1.63-.63-3.13-1.44-4.53-2.41h-.01Z"/>
    </g>
  </g>
  <g id="freepik--Speech_Bubble--inject-2" data-name="freepik--Speech Bubble--inject-2">
    <g>
      <polygon class="cls-12" points="623.19 300.92 646.5 282.89 648.74 312.18 679.91 310.1 659.27 337.07 678.45 355.97 645.91 361.26 653.29 397.15 629.44 370.82 600.55 387.69 600.88 358.31 569.78 349.45 593.61 331.72 576.04 307.75 601.59 311.82 602.24 283.1 623.19 300.92"/>
      <path class="cls-8" d="M680.64,309.71c-.07-.12-.19-.19-.32-.17l-31.11,2.11-1.71-21.81-.56-7.19c0-.12-.08-.23-.2-.28-.11-.05-.24-.03-.34.04l-21.91,17.07c-.62.48-1.05.83-1.29,1.02-.22-.2-.62-.54-1.17-1.02l-19.69-16.88c-.09-.08-.24-.11-.35-.05-.12.05-.2.17-.2.3l-.69,28.4-25.44-4.09c-.13-.01-.27.04-.34.16-.07.12-.07.27.01.38l17.69,24.21-22.96,17.07-.13-.04c-.08-.03-.17-.01-.26.03-.08,0-.17,0-.24.07l-.38.28c-.11.08-.15.2-.13.34.03.12.12.23.24.27l31.11,8.88-.34,29.38c0,.12.07.23.16.3.11.07.23.05.34,0l28.87-16.84,24.15,26.67c.07.07.16.11.26.11.05,0,.11,0,.15-.04.13-.07.2-.22.17-.36l-7.45-36.19,32.4-5.3c.12-.03.23-.11.27-.23s0-.26-.08-.34l-19.17-18.87,20.59-26.95c.08-.11.09-.24.03-.36v-.04ZM623.33,301.23s.04-.03.07-.04c.05-.04.56-.42,1.51-1.14l21.21-16.28,2.12,28.45v.16c.03.19.17.31.38.31l30.16-1.98-19.95,26.02-.12.16c-.11.13-.09.32.03.44l18.51,18.25-31.68,5.15c-.09.01-.17.07-.23.13-.05.08-.07.17-.05.26l6.99,34-22.51-24.86c-.07-.07-.16-.11-.26-.11-.05,0-.12.01-.17.04l-28.17,16.45.31-28.33v-.19c0-.15-.09-.28-.24-.32l-30.16-8.59,23.06-17.18c.15-.11.17-.32.07-.47l-16.95-23.1,24.46,3.87c.09.01.19,0,.27-.08.08-.07.12-.15.12-.26l.59-27.96,18.92,15.98c.86.73,1.33,1.1,1.38,1.14.03.01.04.03.07.04.04.03.09.03.13.04.04,0,.11,0,.15-.03h-.01Z"/>
      <path class="cls-6" d="M622.88,318.05l4.92-.28c1.55-.09,2.81,1.2,2.71,2.74l-1.36,20.36c-.12,1.73-1.57,3.08-3.32,3.05h0c-1.65-.03-3.02-1.28-3.2-2.93l-2.15-20.11c-.16-1.46.94-2.76,2.41-2.84h-.01ZM627.31,347.17c-2.62-.74-5.34.78-6.09,3.39-.74,2.62.78,5.34,3.39,6.09,2.62.74,5.34-.78,6.09-3.39.74-2.62-.78-5.34-3.39-6.09Z"/>
    </g>
  </g>
</svg>