<?xml version="1.0" encoding="UTF-8"?>
<svg id="Layer_2" data-name="Layer 2" xmlns="http://www.w3.org/2000/svg" viewBox="0 0 1000 1000">
  <defs>
    <style>
      .cls-1 {
        fill: #000;
      }

      .cls-1, .cls-2, .cls-3, .cls-4, .cls-5, .cls-6, .cls-7, .cls-8, .cls-9, .cls-10, .cls-11 {
        stroke-width: 0px;
      }

      .cls-2 {
        fill: #e0e0e0;
      }

      .cls-12 {
        opacity: .2;
      }

      .cls-3 {
        fill: #455a64;
      }

      .cls-4 {
        fill: #f5f5f5;
      }

      .cls-5 {
        fill: #09f;
      }

      .cls-6 {
        fill: #ebebeb;
      }

      .cls-7 {
        fill: #65463c;
      }

      .cls-8 {
        fill: #263238;
      }

      .cls-9 {
        fill: #fafafa;
      }

      .cls-10 {
        fill: #9f7362;
      }

      .cls-11 {
        fill: #fff;
      }
    </style>
  </defs>
  <g id="freepik--background-complete--inject-2">
    <rect class="cls-4" x="651.77" y="625.38" width="247.34" height="114.07"/>
    <path class="cls-2" d="M893.22,734.06h-235.79v-102.69h235.79v102.69ZM658.97,732.53h232.72v-99.62h-232.72v99.62Z"/>
    <rect class="cls-2" x="899.11" y="625.38" width="60.43" height="114.07"/>
    <path class="cls-2" d="M658.26,663.15h234.2c.17-.04.28-.2.24-.37-.03-.12-.12-.22-.24-.24h-234.2c-.17.04-.28.2-.24.37.03.12.12.22.24.24Z"/>
    <path class="cls-2" d="M776.1,662.85c.62-10.32.62-20.67,0-31,0-.17-.14-.32-.32-.32s-.32.14-.32.32c-.59,10.32-.56,20.68.08,31,.03.13.17.21.3.18.09-.02.16-.09.18-.18h.07Z"/>
    <path class="cls-2" d="M839.15,647.3c0,1.77-1.43,3.2-3.2,3.2s-3.2-1.43-3.2-3.2c0-1.77,1.43-3.2,3.2-3.2,1.76,0,3.19,1.41,3.2,3.17v.03Z"/>
    <path class="cls-2" d="M716.2,647.3c0,1.77-1.43,3.2-3.2,3.2s-3.2-1.43-3.2-3.2c0-1.77,1.43-3.2,3.2-3.2,0,0,0,0,.01,0,1.76,0,3.18,1.43,3.18,3.18h0Z"/>
    <path class="cls-2" d="M778.51,682.72c0,1.77-1.42,3.2-3.18,3.21-1.77,0-3.2-1.42-3.21-3.18,0-1.77,1.42-3.2,3.18-3.21,0,0,.02,0,.03,0,1.76,0,3.18,1.43,3.18,3.18h0Z"/>
    <polygon class="cls-2" points="681.34 739.44 668.6 811.05 675.76 811.05 699.24 739.44 681.34 739.44"/>
    <polygon class="cls-2" points="881.61 739.44 892.26 811.18 885.1 811.18 863.71 739.44 881.61 739.44"/>
    <polygon class="cls-2" points="929.42 739.44 941.49 811.18 934.33 811.18 911.51 739.44 929.42 739.44"/>
    <path class="cls-2" d="M778.3,715c0,1.77-1.43,3.2-3.2,3.2s-3.2-1.43-3.2-3.2c0-1.77,1.43-3.2,3.2-3.2,1.76,0,3.19,1.41,3.2,3.17v.03Z"/>
    <path class="cls-2" d="M658.26,698.48h234.2c.17,0,.31-.14.31-.32,0-.17-.14-.31-.31-.31h-234.2c-.17,0-.31.14-.31.32,0,.17.14.31.31.31Z"/>
    <rect class="cls-2" x="749.6" y="571.62" width="74.78" height="15.22" transform="translate(-3.02 4.13) rotate(-.3)"/>
    <rect class="cls-4" x="749.98" y="601.6" width="83.36" height="23.66" transform="translate(-3.2 4.15) rotate(-.3)"/>
    <path class="cls-2" d="M817.42,624.89c-.4-3.93-.53-7.88-.4-11.83-.13-3.95,0-7.9.4-11.83.41,3.93.54,7.88.41,11.83.13,3.95,0,7.9-.41,11.83Z"/>
    <path class="cls-2" d="M820.88,624.89c-.4-3.93-.53-7.88-.4-11.83-.13-3.95,0-7.9.4-11.83.41,3.93.54,7.88.41,11.83.13,3.95,0,7.9-.41,11.83Z"/>
    <path class="cls-2" d="M762.63,624.89c-.23,0-.41-5.3-.41-11.83s.18-11.83.41-11.83c.4,3.93.53,7.88.4,11.83.13,3.95,0,7.9-.4,11.83Z"/>
    <path class="cls-2" d="M766.13,624.89c-.41-3.93-.54-7.88-.41-11.83-.13-3.95,0-7.9.41-11.83.4,3.93.53,7.88.4,11.83.13,3.95,0,7.9-.4,11.83Z"/>
    <path class="cls-2" d="M773.78,613.44c0-.22,8.41-.41,18.77-.41s18.78.19,18.78.41-8.41.41-18.78.41-18.77-.18-18.77-.41Z"/>
    <rect class="cls-6" x="761.8" y="586.29" width="102.86" height="15.22" transform="translate(-3.1 4.27) rotate(-.3)"/>
    <path class="cls-2" d="M850.01,599.37c-2.72.04-4.96-2.14-4.99-4.86-.04-2.72,2.14-4.96,4.86-4.99,2.72-.04,4.96,2.14,4.99,4.86,0,.02,0,.05,0,.07.02,2.7-2.16,4.9-4.86,4.93Z"/>
    <rect class="cls-2" x="767.79" y="592.92" width="68.85" height="3.05"/>
    <path class="cls-6" d="M60.21,307.27s-8.74,6.67-.36,15.48c.14.15.34.24.55.25l76.47-.45s6.53-7.33,1.11-15.77l-77.77.49Z"/>
    <path class="cls-2" d="M119.98,314.24c0,.08-9.52.15-21.27.15s-21.27,0-21.27-.15,9.52-.16,21.27-.16,21.27.07,21.27.16Z"/>
    <path class="cls-2" d="M108.03,317c0,.08-4.47.15-10,.15s-10,0-10-.15,4.49-.15,10-.15,10,.07,10,.15Z"/>
    <path class="cls-2" d="M127.8,322.3s.16-.88.4-2.29c.3-1.85.44-3.71.41-5.58-.01-1.87-.2-3.73-.55-5.57-.26-1.37-.49-2.26-.44-2.28.1.19.17.39.22.59.12.38.27.95.44,1.65.82,3.7.86,7.53.11,11.24-.15.7-.29,1.28-.41,1.66-.04.2-.1.4-.18.59Z"/>
    <path class="cls-2" d="M133.51,306.68c.13.17.24.36.33.56.13.22.25.45.34.69.15.3.28.61.4.93.3.83.55,1.68.73,2.54.2,1.06.31,2.13.33,3.21,0,1.08-.1,2.16-.29,3.22-.16.87-.38,1.72-.69,2.55-.11.36-.26.66-.37.95s-.23.49-.33.69c-.09.2-.2.39-.33.56,0,0,.37-.85.82-2.26.27-.83.47-1.67.62-2.52.17-1.05.25-2.12.25-3.18-.02-1.93-.34-3.85-.95-5.68-.48-1.4-.92-2.22-.86-2.25Z"/>
    <path class="cls-2" d="M72.35,322.41c-.14-.16-.26-.33-.36-.52-.13-.2-.25-.41-.36-.63-.12-.26-.29-.55-.41-.88-.32-.78-.57-1.59-.74-2.41-.21-1.02-.31-2.05-.3-3.09.02-1.03.15-2.06.38-3.06.19-.83.46-1.63.81-2.4.14-.33.3-.62.43-.86.11-.22.24-.43.38-.63.1-.18.22-.34.36-.49,0,0-.44.77-.97,2.07-.3.77-.54,1.57-.73,2.37-.21.99-.33,2-.34,3.02,0,1.01.08,2.02.26,3.02.15.81.38,1.61.67,2.39.43,1.33.92,2.07.92,2.11Z"/>
    <path class="cls-2" d="M64.02,324.27c-.14-.19-.28-.39-.4-.59-.11-.19-.26-.43-.4-.71-.17-.32-.32-.65-.45-.99-.38-.89-.67-1.8-.88-2.74-.25-1.13-.4-2.28-.44-3.44-.01-1.16.08-2.33.29-3.47.16-.94.41-1.86.75-2.74.12-.34.26-.67.41-1,.11-.26.23-.5.37-.74.22-.4.34-.6.37-.59s-.44.89-.95,2.4c-.3.89-.53,1.81-.69,2.74-.18,1.12-.27,2.26-.25,3.4.03,1.14.17,2.28.4,3.4.2.91.47,1.8.8,2.68.59,1.52,1.15,2.36,1.06,2.4Z"/>
    <path class="cls-6" d="M134.1,345.83v14.7h-28.35v-14.7h28.35Z"/>
    <path class="cls-2" d="M42.62,353.29v.38c.28,4.44,3.98,7.88,8.42,7.85h84.33v-1h-20.01c-4.04.02-7.33-3.25-7.34-7.29,0-.03,0-.06,0-.08h0c0-4.04,3.27-7.32,7.31-7.33h20.02v-1.55l-84.36.29c-4.66.03-8.42,3.83-8.39,8.49,0,.08,0,.16,0,.24Z"/>
    <path class="cls-2" d="M134.1,353.35c0,.08-5.82.15-13.01.15s-12.99,0-12.99-.15,5.82-.15,12.99-.15,13.01.07,13.01.15Z"/>
    <path class="cls-2" d="M133.66,356.64c0,.08-5.49.15-12.35.15s-12.35-.07-12.35-.15,5.49-.15,12.35-.15,12.35.07,12.35.15Z"/>
    <path class="cls-2" d="M134.1,359.66c0,.08-4.95.15-11.06.15s-11.06,0-11.06-.15,4.94-.15,11.06-.15,11.06.07,11.06.15Z"/>
    <path class="cls-2" d="M134.1,350.38c0,.08-5.71.15-12.73.15s-12.75-.07-12.75-.15,5.71-.15,12.75-.15,12.73.07,12.73.15Z"/>
    <path class="cls-2" d="M133.66,347.42c0,.08-5.08.15-11.33.15s-11.33-.07-11.33-.15,5.06-.15,11.33-.15,11.33.07,11.33.15Z"/>
    <path class="cls-4" d="M52.83,344.81c-.65.66-1.24,1.37-1.78,2.13-2.62,3.79-2.56,8.82.15,12.54.56.74,1.17,1.44,1.84,2.09-.22-.12-.42-.28-.6-.45-.52-.45-.98-.95-1.37-1.51-2.89-3.75-2.95-8.97-.15-12.79.4-.57.86-1.09,1.37-1.55.17-.17.35-.32.55-.45Z"/>
    <path class="cls-4" d="M49.99,344.5c-.65.66-1.25,1.37-1.8,2.13-1.25,1.86-1.92,4.05-1.92,6.3.05,2.24.77,4.41,2.07,6.23.56.74,1.17,1.44,1.84,2.09-.22-.12-.43-.26-.6-.44-.51-.46-.96-.96-1.37-1.51-2.89-3.76-2.95-8.97-.15-12.8.4-.56.86-1.07,1.37-1.54.17-.18.36-.33.56-.45Z"/>
    <path class="cls-4" d="M107.29,344.81c-.66.66-1.26,1.37-1.8,2.13-2.62,3.79-2.56,8.82.15,12.54.56.74,1.18,1.44,1.84,2.09-.22-.13-.42-.28-.6-.45-.51-.45-.97-.96-1.37-1.51-2.9-3.75-2.99-8.96-.22-12.8.41-.56.87-1.08,1.37-1.55.19-.17.4-.32.63-.44Z"/>
    <path class="cls-4" d="M104.43,344.5c-.65.66-1.25,1.37-1.8,2.13-2.62,3.79-2.56,8.82.15,12.54.56.74,1.18,1.44,1.84,2.09-.22-.12-.42-.27-.6-.44-.51-.46-.96-.96-1.37-1.51-2.87-3.77-2.93-8.97-.15-12.8.41-.56.87-1.07,1.37-1.54.17-.18.36-.34.56-.47Z"/>
    <path class="cls-4" d="M62.43,355.34l-.08-5.94c.03-.52-.04-1.04-.21-1.54-.16-.51-.6-.88-1.13-.95-.97-.19-1.96.27-2.43,1.14-.45.91-.65,1.91-.59,2.92-.01,1.57.07,3.14.23,4.71.03.74.21,1.47.55,2.14.34.68,1.05,1.11,1.81,1.1.75-.12,1.36-.65,1.59-1.37.22-.71.31-1.46.25-2.21Z"/>
    <path class="cls-4" d="M95.18,353.66c0,.08-6.09.15-13.61.15s-13.63-.07-13.63-.15,6.11-.15,13.63-.15,13.61.04,13.61.15Z"/>
    <polygon class="cls-4" points="56.78 344.22 56.63 330.35 64.17 330.35 64.43 344.22 56.78 344.22"/>
    <path class="cls-2" d="M63.73,332.82c-1.16.15-2.34.2-3.51.15-1.17.05-2.35,0-3.51-.15,1.16-.15,2.34-.2,3.51-.15,1.17-.05,2.35,0,3.51.15Z"/>
    <path class="cls-2" d="M63.73,334.96c-1.16.15-2.34.2-3.51.15-1.17.05-2.35,0-3.51-.15,1.16-.15,2.34-.2,3.51-.15,1.17-.05,2.35,0,3.51.15Z"/>
    <path class="cls-2" d="M63.73,337.1c-1.16.15-2.34.2-3.51.15-1.17.05-2.35,0-3.51-.15,1.16-.15,2.34-.2,3.51-.15,1.17-.05,2.35,0,3.51.15Z"/>
    <path class="cls-2" d="M63.73,339.24c-1.16.15-2.34.2-3.51.15-1.17.05-2.35,0-3.51-.15,1.16-.15,2.34-.2,3.51-.15,1.17-.05,2.35,0,3.51.15Z"/>
    <path class="cls-2" d="M63.73,341.38c-1.16.15-2.34.2-3.51.15-1.17.05-2.35,0-3.51-.15,1.16-.15,2.34-.2,3.51-.15,1.17-.05,2.35,0,3.51.15Z"/>
    <path class="cls-6" d="M56.23,329.98h83.7c.95,4.95.95,10.04,0,15H56.59v-1.02h5.09c1.33.02,2.42-1.03,2.44-2.36,0-.01,0-.03,0-.04v-8.3c0-1.33-1.08-2.4-2.4-2.4h-5.49v-.88Z"/>
    <path class="cls-9" d="M76.02,337.49h1.37s.1-.01.15,0c.1.05.16.15.15.26,0,.03,0,.06,0,.1l-.08.36c-.17.58-.47,1.12-.88,1.58-.29.37-.73.59-1.19.62h-.16c-.4-.08-.75-.33-.95-.69-.3-.51-.45-1.1-.43-1.69,0-.4.06-.8.16-1.19.15-.6.44-1.15.84-1.62.3-.39.76-.63,1.25-.66.18,0,.37.03.54.11.4.22.69.59.81,1.03.01.04.01.09,0,.14,0,.17-.14.3-.3.3h-.1c-.09-.02-.16-.09-.19-.18h0c-.04-.12-.09-.23-.16-.33-.14-.24-.39-.39-.67-.4-.17,0-.33.06-.47.16-.35.29-.61.67-.75,1.1-.21.5-.32,1.04-.33,1.58-.01.42.07.84.23,1.23.11.31.4.53.73.55.27-.03.52-.18.67-.41.33-.38.58-.81.73-1.29h-1c-.22,0-.33-.15-.34-.34s0,0,0-.1c.04-.16.2-.26.36-.23,0,0,.01,0,.02,0Z"/>
    <path class="cls-9" d="M80.76,334.77v.1c0,.21.38,1.93.97,5.19,0,.03,0,.06,0,.08.01.05.01.1,0,.15-.05.09-.14.15-.25.15h0c-.11-.01-.21-.1-.23-.21l-.36-1.66h-1.69l-.82,1.73h0c-.06.09-.16.14-.26.15-.05.02-.11.02-.16,0-.09-.05-.14-.15-.14-.25,0-.03,0-.06,0-.1,0-.11.14-.3.25-.56,1.21-2.62,1.92-4.12,2.17-4.65.08-.16.27-.22.42-.14.06.03.11.08.14.14l-.04-.12ZM80.39,335.92l-.93,1.96h1.37l-.44-1.96Z"/>
    <path class="cls-9" d="M85.43,340.44h-2.52c-.05.02-.11.02-.16,0,0,0-.11-.15-.14-.32h0c0-.1.23-1.82.7-5.16,0-.04,0-.07,0-.11.04-.12.15-.2.27-.19.04-.01.09-.01.14,0,.1.05.16.15.15.26,0,.23-.08.7-.16,1.37-.29,2.2-.44,3.37-.45,3.5h2.14c.05-.01.11-.01.16,0,.12.04.19.15.19.27v.11c-.04.14-.17.25-.32.26Z"/>
    <path class="cls-9" d="M88.82,334.77v.1c.05.2.38,1.93.99,5.19,0,.03,0,.06,0,.08.01.05.01.1,0,.15-.05.09-.14.15-.25.15h0c-.11-.02-.2-.1-.23-.21l-.32-1.66h-1.72l-.82,1.73h0c-.06.09-.16.14-.26.15-.05.02-.11.02-.16,0-.09-.05-.14-.14-.14-.25,0-.03,0-.06,0-.1l.26-.56c1.21-2.62,1.92-4.12,2.15-4.65.04-.12.16-.2.29-.21.08,0,.15.03.21.08ZM88.45,335.92l-.93,1.96h1.37l-.44-1.96Z"/>
    <path class="cls-9" d="M92.93,337.75c.21.54.36.96.45,1.26.26.71.4,1.1.4,1.14.02.05.02.1,0,.15-.05.09-.14.14-.25.14-.11,0-.19-.07-.25-.21v-.12c-.14-.32-.36-.91-.67-1.78l-1.37,1.95c-.05.09-.15.16-.26.16h-.16c-.09-.05-.14-.14-.14-.25v-.07c.04-.09.09-.17.15-.25.48-.62,1.02-1.37,1.59-2.21,0-.16-.12-.33-.18-.48-.54-1.37-.81-2.18-.81-2.22-.01-.05-.01-.1,0-.15.04-.1.14-.16.25-.15.12,0,.22.06.27.16l.85,2.26,1.5-2.32c.06-.09.16-.15.27-.15.04-.01.09-.01.14,0,.1.05.16.15.15.26.01.04.01.09,0,.14l-1.93,2.73Z"/>
    <path class="cls-9" d="M99.14,334.63s.09-.01.14,0c.1.05.16.15.16.26-.41,3.25-.64,5.02-.69,5.28-.07.49-.25.96-.54,1.37-.39.54-1.01.85-1.67.82-.28,0-.56-.08-.81-.22-.38-.15-.69-.42-.89-.77-.01-.05-.01-.1,0-.15,0-.17.14-.3.3-.3h0c.09,0,.17.05.22.12.29.44.77.71,1.29.74.39-.02.76-.2,1-.51.35-.46.55-1.02.56-1.59-.1.15-.22.29-.37.4-.26.19-.58.29-.91.29h-.16c-.41-.08-.76-.33-.96-.7-.3-.5-.45-1.09-.43-1.67v-.95c0-.51.16-1.23.34-2.17,0-.03,0-.06,0-.1.03-.12.15-.21.27-.21.04-.01.09-.01.14,0,.1.04.16.14.15.25-.02.39-.07.77-.14,1.15-.09.58-.16,1.17-.19,1.76-.02.47.05.93.22,1.37.18.41.43.62.75.62h.11c.32-.1.58-.32.75-.6.3-.41.51-.88.62-1.37l.38-2.88v-.12c.07-.12.2-.17.33-.12Z"/>
    <path class="cls-4" d="M136.84,345.17c-.1,0-.16-3.44-.16-7.68s0-7.7.16-7.7.15,3.44.15,7.7-.15,7.68-.15,7.68Z"/>
    <path class="cls-2" d="M68.24,345.17c-.08,0-.16-3.44-.16-7.68s.08-7.7.16-7.7.15,3.44.15,7.7-.01,7.68-.15,7.68Z"/>
    <path class="cls-4" d="M138.21,345.17c-.1,0-.16-3.44-.16-7.68s0-7.7.16-7.7.15,3.44.15,7.7-.04,7.68-.15,7.68Z"/>
    <path class="cls-2" d="M66.86,345.17c-.1,0-.16-3.44-.16-7.68s0-7.7.16-7.7.15,3.44.15,7.7-.01,7.68-.15,7.68Z"/>
    <path class="cls-2" d="M116.48,332.33h0l8.84,7.14.08.07h-.1l-1.18.32-7.46,1.96h0l-6.76-2.88-1.92-.81-.51-.22-.12-.07h.14l.51.21,1.92.8,6.86,2.84h0l7.46-1.96,1.18-.32v.1l-8.82-7.16h0"/>
    <polygon class="cls-2" points="124.51 338.32 124.99 338.78 125.63 338.64 125.36 339.24 125.69 339.81 125.03 339.72 124.59 340.22 124.47 339.57 123.86 339.3 124.44 338.98 124.51 338.32"/>
    <polygon class="cls-2" points="116.03 341.14 116.36 341.41 116.77 341.3 116.6 341.7 116.85 342.04 116.41 342.01 116.15 342.36 116.04 341.95 115.64 341.79 116.01 341.56 116.03 341.14"/>
    <polygon class="cls-2" points="106.66 337.29 107.18 337.32 107.51 336.91 107.63 337.42 108.12 337.6 107.68 337.88 107.66 338.41 107.26 338.08 106.75 338.21 106.94 337.73 106.66 337.29"/>
    <polygon class="cls-2" points="128.47 332.44 128.99 332.46 129.32 332.05 129.46 332.56 129.95 332.75 129.5 333.03 129.49 333.55 129.08 333.22 128.57 333.37 128.77 332.88 128.47 332.44"/>
    <polygon class="cls-2" points="116.05 332.09 116.38 332.11 116.59 331.85 116.67 332.18 116.99 332.29 116.71 332.46 116.7 332.81 116.44 332.59 116.11 332.68 116.23 332.37 116.05 332.09"/>
    <path class="cls-2" d="M129.21,332.81s-2.87-.07-6.39-.22-6.38-.3-6.38-.33,2.85,0,6.39.21,6.38.3,6.38.34Z"/>
    <path class="cls-2" d="M132.42,329.86H47.54c-1.11-2.52-1.37-4.93,0-7.07h84.88c1.06,2.24,1.06,4.83,0,7.07Z"/>
    <rect class="cls-6" x="65.12" y="324.81" width="45.98" height="2.57"/>
    <path class="cls-2" d="M50.81,329.9c-.28-.24-.51-.53-.67-.86-.44-.77-.7-1.62-.77-2.5-.09-.88.02-1.77.32-2.61.1-.35.27-.68.51-.96-.07.35-.17.7-.3,1.03-.21.82-.29,1.67-.22,2.51.1.86.34,1.69.73,2.46.16.3.29.61.41.93Z"/>
    <path class="cls-2" d="M52.65,329.9c-.28-.24-.51-.53-.67-.86-.44-.77-.7-1.62-.78-2.5-.07-.88.04-1.77.33-2.61.1-.35.27-.68.51-.96-.07.35-.17.7-.3,1.03-.21.82-.29,1.67-.22,2.51.07.84.29,1.67.66,2.43.18.31.34.63.48.96Z"/>
    <path class="cls-4" d="M128.99,329.73c.34-1.12.54-2.29.59-3.46-.04-1.17-.23-2.33-.55-3.46.63,1.04.93,2.24.86,3.46.04,1.22-.27,2.42-.91,3.46Z"/>
    <path class="cls-4" d="M127.42,329.71c-.1,0,.26-1.51.25-3.38s-.36-3.36-.26-3.39c.42,1.08.62,2.23.58,3.39.05,1.15-.14,2.3-.56,3.38Z"/>
    <rect class="cls-6" x="172.5" y="224.68" width="30.23" height="32.05" transform="translate(-1.3 1.02) rotate(-.31)"/>
    <rect class="cls-4" x="202.97" y="223.49" width="30.23" height="32.05" transform="translate(-2.38 2.19) rotate(-.57)"/>
    <path class="cls-2" d="M172.52,233.63c20.12.16,40.25.07,60.37-.27.18-.04.29-.21.26-.39-.03-.13-.13-.23-.26-.26-20.07-.11-40.22,0-60.29.37-.15,0-.27.12-.27.27s.12.27.27.27h-.08Z"/>
    <rect class="cls-6" x="153.62" y="256.27" width="54.91" height="26.13" transform="translate(-1.45 .98) rotate(-.31)"/>
    <rect class="cls-4" x="208.29" y="255.98" width="54.91" height="26.13" transform="translate(-1.45 1.28) rotate(-.31)"/>
    <path class="cls-2" d="M153.6,263.69c36.47.43,73.08,0,109.55-.54.18-.04.29-.21.26-.39-.03-.13-.13-.23-.26-.26-36.47-.19-73.08-.16-109.55.63-.15,0-.27.12-.27.27s.12.27.27.27Z"/>
    <rect class="cls-6" x="104.08" y="404.15" width="54.91" height="26.13" transform="translate(-2.26 .72) rotate(-.31)"/>
    <rect class="cls-4" x="158.73" y="403.86" width="54.91" height="26.13" transform="translate(-2.25 1.01) rotate(-.31)"/>
    <path class="cls-2" d="M104.03,411.57c36.47.41,73.08,0,109.55-.54.18-.04.29-.21.26-.39-.03-.13-.13-.23-.26-.26-36.49-.19-73.08-.16-109.55.63-.15,0-.27.12-.27.28,0,.15.12.27.27.27Z"/>
    <rect class="cls-2" x="71.55" y="213.74" width="13.84" height="68.92" transform="translate(-1.34 .43) rotate(-.31)"/>
    <rect class="cls-6" x="85.14" y="188.04" width="13.84" height="94.79" transform="translate(-1.27 .5) rotate(-.31)"/>
    <rect class="cls-4" x="99.04" y="205.7" width="21.53" height="76.81" transform="translate(-1.32 .6) rotate(-.31)"/>
    <path class="cls-2" d="M120.21,220.46c-3.57.37-7.17.49-10.76.37-3.59.12-7.18,0-10.76-.37,3.55-.38,7.13-.51,10.7-.38,3.61-.13,7.22,0,10.81.38Z"/>
    <path class="cls-2" d="M120.21,217.22c-3.57.38-7.17.51-10.76.38-3.59.12-7.19,0-10.76-.38,3.55-.37,7.13-.49,10.7-.37,3.61-.13,7.22,0,10.81.37Z"/>
    <path class="cls-2" d="M120.21,270.91c-3.59.39-7.2.53-10.81.43-3.59.12-7.18,0-10.76-.37,3.57-.39,7.17-.53,10.76-.43,3.61-.13,7.22,0,10.81.37Z"/>
    <path class="cls-2" d="M120.21,267.69c-3.57.37-7.17.49-10.76.37-3.59.12-7.18,0-10.76-.37,3.55-.37,7.13-.49,10.7-.37,3.61-.13,7.22,0,10.81.37Z"/>
    <path class="cls-2" d="M109.8,260.65c-.21,0-.37-7.75-.37-17.32s.16-17.28.37-17.28.37,7.75.37,17.3-.16,17.29-.37,17.29Z"/>
    <rect class="cls-6" x="120.45" y="224.52" width="23.42" height="57.99"/>
    <path class="cls-2" d="M95.57,204.2c0,2.2-1.8,3.97-3.99,3.97-2.2,0-3.97-1.8-3.97-3.99,0-2.18,1.77-3.95,3.95-3.97,2.2-.02,3.99,1.75,4.01,3.95,0,.01,0,.03,0,.04Z"/>
    <rect class="cls-2" x="90.35" y="215.13" width="2.46" height="56.39"/>
    <rect class="cls-2" x="32.77" y="362.01" width="243.86" height="8.34"/>
    <rect class="cls-2" x="32.77" y="282.87" width="243.86" height="8.34"/>
    <rect class="cls-2" x="82.53" y="430.48" width="194.09" height="7.88"/>
    <rect class="cls-2" x="145.39" y="289.58" width="9.3" height="78.72"/>
    <rect class="cls-2" x="82.59" y="362.01" width="9.3" height="76.32"/>
    <path class="cls-4" d="M201.25,326.22l-5.72,8.23s12.87,3.58,12.87,15.01-7.86,13.57-16.47,13.57-16.8-2.5-16.47-13.93c.33-11.43,11.07-15.72,11.07-15.72l-5.35-7.14,20.06-.03Z"/>
    <rect class="cls-2" x="957.59" y="221.95" width="9.65" height="207.3"/>
    <rect class="cls-4" x="817.73" y="223.54" width="138.39" height="205.99" rx=".14" ry=".14"/>
    <path class="cls-6" d="M957.59,431.13h-141.33c-.07,0-.13-.04-.14-.11,0,0,0-.02,0-.03v-208.91c0-.07.04-.13.11-.14,0,0,.02,0,.03,0h141.33c.07,0,.13.04.14.11,0,0,0,.02,0,.03v208.91c0,.07-.04.13-.11.14,0,0-.02,0-.03,0ZM819.47,427.92h134.92c.08,0,.14-.06.14-.14v-202.5c0-.07-.06-.13-.14-.14h-134.92c-.07,0-.13.06-.14.14v202.47c-.02.07.03.15.11.16,0,0,.02,0,.03,0h0Z"/>
    <rect class="cls-11" x="831.67" y="236.26" width="110.77" height="180.44" rx=".14" ry=".14"/>
    <rect class="cls-6" x="855.83" y="287.42" width="62.2" height="72.9" rx=".08" ry=".08"/>
    <path class="cls-2" d="M913.1,351.39c.08.23-2.99,1.58-8.82.89-3.59-.47-7.01-1.83-9.93-3.97-3.97-2.96-6.72-7.28-7.71-12.13-1.17-6.19,1.08-12.53,5.9-16.59,1.34-1.11,2.85-2,4.47-2.62,1.79-.65,3.71-.87,5.6-.64,2.08.2,4.03,1.06,5.58,2.46,1.78,1.66,2.61,4.1,2.21,6.5-.42,2.14-1.5,4.09-3.07,5.6-1.38,1.37-2.96,2.54-4.68,3.46-3.44,1.9-7.26,2.99-11.18,3.18-4.15.22-8.28-.73-11.91-2.74-3.76-2.09-6.81-5.25-8.77-9.08-2.02-3.92-2.58-8.44-1.56-12.73.98-4.15,3.34-7.85,6.7-10.48,1.68-1.29,3.59-2.26,5.63-2.84,2.07-.55,4.24-.62,6.34-.19,2.21.42,4.23,1.56,5.74,3.24,1.45,1.71,2.26,3.89,2.26,6.13.02,2.05-.51,4.07-1.51,5.86-.91,1.62-2.11,3.06-3.54,4.25-2.57,2.17-5.58,3.77-8.81,4.69-3.01.88-6.17,1.12-9.28.71-2.89-.4-5.65-1.46-8.07-3.09-4.21-2.77-7.01-7.22-7.7-12.21-.42-3.72.6-7.46,2.85-10.46,1.33-1.87,3.16-3.34,5.28-4.23,1.37-.55,2.28-.54,2.31-.4s-.66.52-1.82,1.37c-1.68,1.14-3.09,2.65-4.12,4.4-1.61,2.69-2.2,5.86-1.67,8.95.84,4.02,3.33,7.5,6.86,9.6,4.28,2.51,9.45,3.01,14.13,1.37,2.61-.83,5.01-2.2,7.07-4.01,2.04-1.6,3.26-4.03,3.31-6.63-.02-2.42-1.85-4.44-4.25-4.69-1.37-.26-2.78-.2-4.12.18-1.39.43-2.7,1.11-3.84,2.02-2.43,1.96-4.13,4.67-4.84,7.71-.71,3.12-.29,6.4,1.19,9.23,1.52,2.9,3.86,5.29,6.74,6.86,2.81,1.56,6,2.3,9.21,2.15,3.16-.13,6.25-.98,9.04-2.48,1.32-.67,2.54-1.53,3.62-2.54.88-.8,1.51-1.84,1.82-2.99.19-.87-.09-1.78-.74-2.4-.83-.76-1.87-1.24-2.99-1.37-1.18-.18-2.39-.07-3.53.3-1.18.41-2.29,1.02-3.28,1.8-3.8,3.04-5.71,7.87-5.01,12.69.67,4.09,2.77,7.81,5.93,10.5,2.47,2.06,5.39,3.51,8.52,4.25,5.26,1.3,8.41.67,8.45,1.14Z"/>
    <polygon class="cls-4" points="258.18 778.14 258.18 812 307.71 812 362.34 812 362.34 778.14 258.18 778.14"/>
    <polygon class="cls-2" points="253.82 768.67 253.82 778.14 365.99 778.14 365.99 768.67 307.71 768.67 253.82 768.67"/>
    <polygon class="cls-2" points="309.9 812 362.34 812 362.34 778.14 365.99 778.14 365.99 768.67 307.71 768.67 307.71 777.26 309.9 812"/>
    <rect class="cls-2" x="272.75" y="783.6" width="21.12" height="5.1"/>
    <rect class="cls-11" x="270.04" y="795.07" width="27.13" height="10.77"/>
    <polygon class="cls-4" points="282.43 734.84 282.43 768.71 331.95 768.71 386.59 768.71 386.59 734.84 282.43 734.84"/>
    <polygon class="cls-2" points="278.05 725.38 278.05 734.84 390.22 734.84 390.22 725.38 331.95 725.38 278.05 725.38"/>
    <polygon class="cls-2" points="334.14 768.71 386.59 768.71 386.59 734.84 390.22 734.84 390.22 725.38 331.95 725.38 331.95 733.97 334.14 768.71"/>
    <rect class="cls-2" x="296.98" y="740.31" width="21.12" height="5.1"/>
    <rect class="cls-11" x="294.27" y="751.78" width="27.13" height="10.77"/>
    <polygon class="cls-4" points="70.1 776.91 70.1 810.78 119.64 810.78 174.26 810.78 174.26 776.91 70.1 776.91"/>
    <polygon class="cls-2" points="65.74 767.45 65.74 776.91 177.91 776.91 177.91 767.45 119.64 767.45 65.74 767.45"/>
    <polygon class="cls-2" points="121.82 810.78 174.26 810.78 174.26 776.91 177.91 776.91 177.91 767.45 119.64 767.45 119.64 776.04 121.82 810.78"/>
    <rect class="cls-2" x="84.67" y="782.38" width="21.12" height="5.1"/>
    <rect class="cls-11" x="81.96" y="793.85" width="27.13" height="10.77"/>
  </g>
  <g id="freepik--Floor--inject-2">
    <path class="cls-8" d="M923.98,810.9c0,.19-182.88.36-408.42.36s-408.45-.16-408.45-.36,182.84-.32,408.43-.32,408.43.11,408.43.32Z"/>
  </g>
  <g id="freepik--Device--inject-2">
    <path class="cls-2" d="M844.25,262.11l-.23,419.61c0,12.97-10.51,23.48-23.48,23.48h-.03l-622.64-.27c-12.97,0-23.48-10.51-23.48-23.48,0,0,0-.02,0-.03l.22-419.7c.03-12.96,10.54-23.46,23.5-23.46l622.64.33c12.98.02,23.49,10.54,23.49,23.52Z"/>
    <path class="cls-8" d="M844.25,262.11s0-.49-.1-1.45c-.02-.6-.08-1.19-.18-1.78-.11-.83-.28-1.65-.49-2.46-.56-2.3-1.49-4.5-2.74-6.5-1.71-2.79-3.98-5.19-6.67-7.07-1.61-1.14-3.36-2.06-5.21-2.74-2.04-.76-4.18-1.22-6.35-1.37l-1.73-.08H200.93c-2.05-.07-4.1.02-6.13.27-2.02.28-4,.84-5.87,1.65-3.8,1.63-7.09,4.23-9.55,7.55-.59.85-1.14,1.73-1.63,2.63-.47.89-.89,1.81-1.26,2.74-.72,1.94-1.18,3.96-1.37,6.02-.14,2.04-.11,4.12-.11,6.27v190.6c0,72.65-.07,147.86-.11,224.89.03,2.37.39,4.73,1.06,7.01.74,2.25,1.8,4.38,3.14,6.33,1.36,1.94,3.01,3.66,4.9,5.09,1.86,1.45,3.95,2.59,6.17,3.38,4.43,1.8,9.29,1.37,14.05,1.37h181.81l209.53.14,189.57.12h32.97c1.79.04,3.58-.02,5.37-.18,1.76-.21,3.49-.63,5.16-1.25,6.69-2.45,11.89-7.83,14.12-14.6.26-.82.44-1.67.67-2.51s.29-1.7.36-2.57c.12-1.72.12-3.46.11-5.2v-89.64c.1-100.98.18-182.69.23-239.16,0-28.24.08-50.17.11-65.03v-22.67,416.5c0,1.74,0,3.49-.11,5.26-.08.88-.25,1.76-.37,2.63s-.41,1.73-.69,2.57c-2.28,6.94-7.61,12.45-14.46,14.97-1.7.63-3.48,1.06-5.28,1.26-1.82.18-3.66.25-5.49.19h-32.93l-189.59-.07-209.51-.1h-188.89c-4.89-.21-9.6-1.91-13.49-4.88-1.95-1.47-3.65-3.24-5.04-5.24-1.4-2-2.49-4.21-3.24-6.53-.7-2.34-1.07-4.77-1.1-7.22,0-77.03.08-152.31.12-224.89,0-36.32.02-71.96.07-106.94v-83.58c0-2.11,0-4.2.11-6.34.22-2.12.71-4.2,1.47-6.19.37-.99.81-1.96,1.3-2.9.52-.92,1.09-1.81,1.72-2.66,2.5-3.42,5.87-6.12,9.76-7.82,1.93-.83,3.97-1.4,6.05-1.69,2.06-.26,4.14-.35,6.22-.27h164.62l165.18.14,239.3.29h50.84l1.74.08c2.19.14,4.34.61,6.39,1.37,1.86.69,3.62,1.61,5.24,2.74,2.69,1.9,4.97,4.33,6.68,7.14,1.26,2.02,2.18,4.22,2.74,6.53.21.81.37,1.64.47,2.47.1.59.15,1.2.16,1.8.01,1.08.03,1.58.03,1.58Z"/>
    <rect class="cls-11" x="220.52" y="253.85" width="559.22" height="437.18"/>
    <path class="cls-8" d="M810.56,453.99c9.89,0,17.9,8.03,17.89,17.92,0,9.89-8.03,17.9-17.92,17.89-9.89,0-17.9-8.03-17.89-17.92,0-.02,0-.04,0-.05.04-9.87,8.05-17.85,17.92-17.84Z"/>
    <rect class="cls-8" x="193.69" y="401.14" width="7.4" height="140.53" rx="1.67" ry="1.67"/>
    <rect class="cls-4" x="263.49" y="625.03" width="218.68" height="36.22" rx="7.45" ry="7.45"/>
    <rect class="cls-4" x="261.62" y="547.44" width="218.68" height="36.22" rx="7.45" ry="7.45"/>
    <rect class="cls-4" x="496.63" y="547.44" width="218.68" height="36.22" rx="7.45" ry="7.45"/>
    <rect class="cls-4" x="502.48" y="326.96" width="210.54" height="36.22" rx="7.45" ry="7.45"/>
    <rect class="cls-4" x="263.49" y="398.9" width="454.49" height="36.22" rx="7.45" ry="7.45"/>
    <rect class="cls-4" x="263.16" y="326.96" width="218.68" height="36.22" rx="7.45" ry="7.45"/>
    <path class="cls-2" d="M278.32,345.94v2.47h-1.02v-2.48l-2.83-4.61h1.08l2.29,3.76,2.29-3.76h1l-2.83,4.62Z"/>
    <path class="cls-2" d="M280.92,345.71c-.04-1.55,1.19-2.84,2.74-2.88,1.55-.04,2.84,1.19,2.88,2.74.04,1.55-1.19,2.84-2.74,2.88-.02,0-.05,0-.07,0-1.52.04-2.77-1.16-2.81-2.67,0-.02,0-.05,0-.07ZM285.55,345.71c-.05-1.01-.9-1.79-1.91-1.74-1.01.05-1.79.9-1.74,1.91.04.97.85,1.74,1.82,1.74.98.04,1.8-.72,1.84-1.69,0-.07,0-.14,0-.21h-.01Z"/>
    <path class="cls-2" d="M292.95,343v5.41h-.93v-.81c-.44.57-1.12.89-1.84.86-1.16.12-2.2-.72-2.32-1.88-.02-.15-.02-.31,0-.46v-3.11h.97v3c0,1.06.54,1.59,1.47,1.59.87.05,1.62-.61,1.67-1.48,0-.11,0-.21-.01-.32v-2.74l.99-.05Z"/>
    <path class="cls-2" d="M297.73,342.95v.96h-.23c-.89-.05-1.66.63-1.71,1.52,0,.1,0,.2.01.3v2.74h-.97v-5.41h.93v.91c.4-.7,1.17-1.1,1.98-1.03Z"/>
    <path class="cls-2" d="M308.03,341.31v7.14h-.84l-4.32-5.37v5.32h-1.02v-7.09h.84l4.28,5.32v-5.32h1.06Z"/>
    <path class="cls-2" d="M314.31,345.14v3.27h-.93v-.71c-.42.54-1.09.83-1.77.77-1.23,0-2-.64-2-1.58s.56-1.59,2.17-1.59h1.55v-.19c0-.82-.48-1.3-1.44-1.3-.62-.01-1.23.2-1.72.59l-.41-.74c.65-.48,1.43-.72,2.24-.7,1.48,0,2.32.71,2.32,2.2ZM313.33,346.76v-.75h-1.51c-.96,0-1.23.37-1.23.84s.44.86,1.18.86c.66.06,1.29-.3,1.56-.91v-.04Z"/>
    <path class="cls-2" d="M325.1,345.29v3.11h-.97v-2.98c0-1.07-.52-1.59-1.37-1.59s-1.62.63-1.62,1.8v2.74h-.99v-2.95c0-1.07-.51-1.59-1.37-1.59-.87-.03-1.6.65-1.63,1.52,0,.09,0,.19.01.28v2.74h-.97v-5.41h.93v.81c.44-.58,1.14-.9,1.87-.86.77-.05,1.5.33,1.88,1,.49-.66,1.27-1.03,2.09-1,1.14-.06,2.12.82,2.17,1.96,0,.14,0,.27-.02.41Z"/>
    <path class="cls-2" d="M331.8,346.03h-4.38c.13.96.99,1.65,1.96,1.58.59.02,1.15-.22,1.55-.64l.55.63c-.55.59-1.33.91-2.14.86-1.51.08-2.81-1.08-2.89-2.59,0-.05,0-.1,0-.16-.05-1.46,1.09-2.69,2.55-2.74.07,0,.13,0,.2,0,1.44-.04,2.64,1.09,2.68,2.53,0,.07,0,.14,0,.21-.02.11-.04.21-.07.32ZM327.42,345.33h3.47c-.09-.96-.93-1.67-1.89-1.58-.84.07-1.51.74-1.58,1.58Z"/>
    <path class="cls-8" d="M302.08,310.56v7.15h-1.1l-3.94-4.84v4.84h-1.37v-7.15h1.1l3.94,4.84v-4.84h1.37Z"/>
    <path class="cls-8" d="M308.43,314.52v3.2h-1.21v-.67c-.4.53-1.05.81-1.72.74-1.23,0-2.03-.69-2.03-1.63s.62-1.62,2.26-1.62h1.37v-.08c0-.74-.45-1.18-1.37-1.18-.59-.01-1.17.18-1.65.54l-.51-.93c.68-.46,1.49-.7,2.31-.67,1.63,0,2.54.75,2.54,2.32ZM307.15,316.01v-.64h-1.37c-.86,0-1.1.33-1.1.73s.38.75,1.04.75c.61.07,1.19-.27,1.43-.84h0Z"/>
    <path class="cls-8" d="M319.16,314.59v3.13h-1.19v-2.96c0-.96-.45-1.37-1.23-1.37s-1.37.55-1.37,1.63v2.74h-1.28v-2.96c0-.96-.44-1.37-1.22-1.37s-1.37.55-1.37,1.63v2.74h-1.28v-5.49h1.21v.69c.45-.5,1.11-.78,1.78-.75.73-.05,1.43.3,1.84.91.51-.6,1.26-.93,2.04-.91,1.15,0,2.09.93,2.09,2.08,0,.09,0,.18-.02.26Z"/>
    <path class="cls-8" d="M325.95,315.39h-4.27c.13.85.9,1.45,1.76,1.37.56.02,1.09-.19,1.48-.59l.69.78c-1.2,1.19-3.14,1.18-4.33-.02-.5-.51-.81-1.17-.87-1.88,0-1.52,1.23-2.74,2.74-2.75.02,0,.05,0,.07,0,1.47-.05,2.7,1.11,2.74,2.58,0,.06,0,.11,0,.17.01.07,0,.19-.01.34ZM321.67,314.54h3.16c-.05-.8-.74-1.41-1.54-1.37-.82-.07-1.55.54-1.62,1.36,0,0,0,0,0,.01h0Z"/>
    <path class="cls-8" d="M271.92,311.98v1.77h3.1v1.25h-3.1v2.43h-1.54v-6.68h5.05v1.23h-3.51Z"/>
    <path class="cls-8" d="M276.09,310.74c0-.47.39-.85.86-.84.02,0,.04,0,.06,0,.46-.05.87.28.93.74,0,.02,0,.05,0,.07,0,.48-.38.87-.86.87-.02,0-.05,0-.07,0-.47.04-.88-.31-.92-.78,0-.02,0-.04,0-.06ZM276.27,312.29h1.5v5.13h-1.5v-5.13Z"/>
    <path class="cls-8" d="M282.29,312.21v1.37h-.34c-.69-.06-1.31.45-1.37,1.14,0,.08,0,.15,0,.23v2.43h-1.44v-5.13h1.37v.67c.44-.51,1.11-.78,1.78-.71Z"/>
    <path class="cls-8" d="M282.73,316.95l.51-1.07c.54.32,1.16.5,1.78.49.69,0,.95-.18.95-.47,0-.84-3.11,0-3.11-2.03,0-.97.88-1.66,2.39-1.66.69-.01,1.36.14,1.98.45l-.49,1.06c-.45-.26-.96-.39-1.48-.38-.67,0-.96.22-.96.48,0,.88,3.1,0,3.1,2.06,0,.95-.88,1.63-2.41,1.63-.78.01-1.55-.18-2.24-.56Z"/>
    <path class="cls-8" d="M291.61,317.18c-.36.23-.78.34-1.21.33-.93.13-1.79-.53-1.91-1.46-.02-.13-.02-.26,0-.39v-2.1h-.8v-1.15h.8v-1.28h1.48v1.25h1.29v1.15h-1.29v2.09c-.04.33.2.63.53.67.04,0,.08,0,.12,0,.22,0,.43-.07.6-.19l.4,1.08Z"/>
    <path class="cls-5" d="M332.51,309.76l-1.17,1.52h0l1.85-.25v.84l-1.85-.22h0l1.18,1.48-.77.44-.74-1.72h0l-.8,1.73-.7-.45,1.17-1.48h0l-1.81.23v-.84l1.8.23h0l-1.18-1.52.75-.43.75,1.7h0l.74-1.72.77.44Z"/>
    <path class="cls-2" d="M279.72,567.72v2.47h-1v-2.47l-2.84-4.64h1.1l2.28,3.76,2.29-3.76h1.02l-2.84,4.64Z"/>
    <path class="cls-2" d="M282.29,567.47c0-1.52,1.23-2.74,2.75-2.74,1.52,0,2.74,1.23,2.74,2.75,0,1.49-1.19,2.71-2.68,2.74-1.52.04-2.77-1.16-2.81-2.67,0-.02,0-.05,0-.07ZM286.91,567.47c.09-1-.66-1.89-1.66-1.98-1-.09-1.89.66-1.98,1.66,0,.11,0,.21,0,.32-.09,1,.66,1.89,1.66,1.98,1,.09,1.89-.66,1.98-1.66,0-.11,0-.21,0-.32Z"/>
    <path class="cls-2" d="M294.35,564.77v5.41h-.92v-.82c-.43.58-1.12.9-1.84.88-1.17.12-2.21-.73-2.33-1.9-.02-.15-.01-.3,0-.45v-3.11h.99v2.95c0,1.07.52,1.59,1.45,1.59.88.05,1.63-.62,1.68-1.49,0-.1,0-.19,0-.29v-2.74h.97Z"/>
    <path class="cls-2" d="M299.13,564.71v.95h-.22c-.88-.06-1.65.61-1.71,1.49,0,.11,0,.22.01.34v2.74h-.99v-5.41h.95v.91c.4-.69,1.17-1.09,1.96-1.02Z"/>
    <path class="cls-2" d="M309.43,563.04v7.14h-.84l-4.28-5.32v5.32h-1.02v-7.14h.84l4.28,5.32v-5.32h1.02Z"/>
    <path class="cls-2" d="M315.71,566.91v3.27h-.93v-.71c-.42.54-1.09.83-1.77.77-1.22,0-2-.64-2-1.59s.56-1.58,2.18-1.58h1.55v-.19c0-.82-.48-1.3-1.45-1.3-.62,0-1.23.2-1.72.58l-.4-.73c.64-.48,1.42-.73,2.22-.7,1.48,0,2.32.71,2.32,2.2ZM314.74,568.51v-.8h-1.51c-.97,0-1.25.38-1.25.84s.45.88,1.19.88c.66.06,1.29-.31,1.56-.92h0Z"/>
    <path class="cls-2" d="M326.5,567.06v3.11h-.97v-3c0-1.06-.51-1.58-1.37-1.58s-1.62.62-1.62,1.8v2.74h-.97v-2.96c0-1.06-.51-1.58-1.37-1.58s-1.62.62-1.62,1.8v2.74h-.99v-5.41h.95v.81c.44-.59,1.14-.91,1.87-.86.77-.05,1.49.34,1.88,1,.47-.67,1.26-1.04,2.07-1,1.14-.06,2.12.82,2.18,1.96,0,.14,0,.28-.02.43Z"/>
    <path class="cls-2" d="M333.21,567.8h-4.39c.13.96.99,1.65,1.96,1.58.59.02,1.16-.22,1.56-.66l.54.63c-1.15,1.16-3.02,1.16-4.17.01-.51-.51-.82-1.18-.86-1.89-.05-1.46,1.09-2.69,2.55-2.74.07,0,.13,0,.2,0,1.44-.03,2.63,1.11,2.66,2.55,0,.07,0,.13,0,.2,0,.11-.02.22-.04.33ZM328.82,567.09h3.47c-.09-.96-.93-1.67-1.89-1.58-.84.07-1.51.74-1.58,1.58Z"/>
    <path class="cls-5" d="M320.53,528.61l-1.17,1.54h0l1.85-.25v.84l-1.85-.22h0l1.18,1.48-.77.44-.74-1.72h0l-.8,1.73-.7-.45,1.17-1.48h0l-1.81.23v-.84l1.8.23h0l-1.15-1.5.75-.43.75,1.7h0l.74-1.72.74.4Z"/>
    <path class="cls-5" d="M535.97,531.69l-1.17,1.52h0l1.85-.25v.84l-1.85-.22h0l1.18,1.47-.77.44-.74-1.72h0l-.81,1.73-.69-.44,1.15-1.5h0l-1.81.23v-.84l1.81.23h0l-1.15-1.5.74-.44.75,1.7h0l.75-1.7.74.43Z"/>
    <path class="cls-2" d="M512.81,567.72v2.47h-1.02v-2.47l-2.83-4.64h1.1l2.29,3.76,2.29-3.76h1l-2.84,4.64Z"/>
    <path class="cls-2" d="M515.47,567.47c-.04-1.55,1.19-2.84,2.74-2.88s2.84,1.19,2.88,2.74c.04,1.55-1.19,2.84-2.74,2.88-.02,0-.05,0-.07,0-1.52.04-2.77-1.16-2.81-2.67,0-.02,0-.05,0-.07ZM520.11,567.47c-.05-1.01-.9-1.79-1.91-1.74-1.01.05-1.79.9-1.74,1.91.04.97.85,1.74,1.82,1.74.98.03,1.8-.73,1.83-1.71,0-.07,0-.13,0-.2Z"/>
    <path class="cls-2" d="M527.49,564.77v5.41h-.96v-.82c-.43.58-1.12.9-1.84.88-1.17.11-2.21-.74-2.32-1.91-.01-.14-.01-.29,0-.43v-3.11h.97v2.95c0,1.07.54,1.59,1.47,1.59.87.05,1.62-.61,1.67-1.48,0-.1,0-.2-.01-.3v-2.74h1.02Z"/>
    <path class="cls-2" d="M532.27,564.71v.95h-.25c-.88-.06-1.65.61-1.71,1.49,0,.11,0,.22.01.34v2.74h-.97v-5.41h.93v.91c.41-.69,1.19-1.09,1.99-1.02Z"/>
    <path class="cls-2" d="M542.57,563.04v7.14h-.84l-4.23-5.32v5.32h-1.02v-7.14h.84l4.28,5.32v-5.32h.96Z"/>
    <path class="cls-2" d="M548.86,566.91v3.27h-.93v-.71c-.42.54-1.09.83-1.77.77-1.23,0-2-.64-2-1.59s.56-1.58,2.17-1.58h1.55v-.19c0-.82-.48-1.3-1.44-1.3-.62,0-1.23.2-1.72.58l-.41-.73c.65-.48,1.43-.72,2.24-.7,1.48,0,2.32.71,2.32,2.2ZM547.87,568.51v-.8h-1.51c-.96,0-1.23.38-1.23.84s.44.88,1.19.88c.66.06,1.28-.31,1.55-.92h0Z"/>
    <path class="cls-2" d="M559.64,567.06v3.11h-.97v-3c0-1.06-.52-1.58-1.37-1.58s-1.62.62-1.62,1.8v2.74h-.99v-2.96c0-1.06-.51-1.58-1.37-1.58s-1.62.62-1.62,1.8v2.74h-.97v-5.41h.93v.81c.44-.58,1.14-.91,1.87-.86.77-.05,1.49.34,1.88,1,.48-.66,1.27-1.04,2.09-1,1.14-.06,2.12.82,2.18,1.96,0,.14,0,.28-.02.43Z"/>
    <path class="cls-2" d="M566.32,567.8h-4.38c.13.96.99,1.65,1.96,1.58.59.02,1.16-.22,1.55-.66l.55.63c-1.15,1.16-3.02,1.16-4.17.01-.51-.51-.82-1.18-.86-1.89-.06-1.45,1.07-2.68,2.52-2.74.07,0,.15,0,.22,0,1.44-.04,2.64,1.09,2.68,2.53,0,.07,0,.14,0,.21-.02.11-.04.22-.07.33ZM561.95,567.09h3.47c-.08-.9-.84-1.58-1.74-1.55-.89-.02-1.65.66-1.72,1.55h-.01Z"/>
    <path class="cls-8" d="M277.28,388.64v1.11h-5.35v-7.15h5.21v1.11h-3.88v1.87h3.44v1.08h-3.44v1.98h4.02Z"/>
    <path class="cls-8" d="M287.78,386.6v3.13h-1.28v-2.96c0-.97-.45-1.37-1.22-1.37s-1.37.55-1.37,1.63v2.74h-1.28v-2.96c0-.97-.44-1.37-1.22-1.37s-1.37.55-1.37,1.63v2.74h-1.28v-5.49h1.22v.69c.45-.51,1.11-.78,1.78-.75.73-.05,1.42.3,1.82.91.51-.6,1.26-.93,2.04-.91,1.16-.03,2.12.88,2.15,2.04,0,.1,0,.2-.01.3Z"/>
    <path class="cls-8" d="M293.94,386.6v3.2h-1.21v-.67c-.4.52-1.04.8-1.7.74-1.25,0-2.03-.69-2.03-1.63s.6-1.62,2.26-1.62h1.37v-.08c0-.74-.44-1.18-1.37-1.18-.59-.01-1.17.18-1.65.54l-.49-.93c.68-.46,1.49-.7,2.31-.67,1.61-.04,2.51.71,2.51,2.32ZM292.66,388.08v-.63h-1.37c-.86,0-1.1.33-1.1.73s.38.75,1.04.75c.62.06,1.21-.3,1.43-.89v.04Z"/>
    <path class="cls-8" d="M295.41,382.64c0-.42.34-.77.77-.77.01,0,.03,0,.04,0,.42-.03.78.28.81.7,0,0,0,.02,0,.03.02.42-.32.78-.74.8-.02,0-.05,0-.07,0-.42.02-.79-.3-.81-.73,0,0,0-.02,0-.03ZM295.57,384.3h1.28v5.49h-1.28v-5.49Z"/>
    <path class="cls-8" d="M298.52,382.18h1.28v7.57h-1.28v-7.57Z"/>
    <path class="cls-2" d="M279.72,419.17v2.47h-1v-2.5l-2.84-4.64h1.1l2.28,3.76,2.29-3.76h1.02l-2.84,4.67Z"/>
    <path class="cls-2" d="M282.29,418.94c0-1.52,1.23-2.74,2.75-2.74,1.52,0,2.74,1.23,2.74,2.75,0,1.49-1.19,2.71-2.68,2.74-1.52.04-2.77-1.16-2.81-2.67,0-.02,0-.05,0-.07ZM286.91,418.94c.09-1-.66-1.89-1.66-1.98-1-.09-1.89.66-1.98,1.66,0,.11,0,.21,0,.32-.09,1,.66,1.89,1.66,1.98,1,.09,1.89-.66,1.98-1.66,0-.11,0-.21,0-.32Z"/>
    <path class="cls-2" d="M294.35,416.23v5.41h-.92v-.82c-.43.58-1.12.9-1.84.88-1.17.12-2.21-.73-2.33-1.9-.02-.15-.01-.3,0-.45v-3.11h.99v2.99c0,1.07.52,1.59,1.45,1.59.88.05,1.63-.62,1.68-1.49,0-.1,0-.19,0-.29v-2.74l.97-.05Z"/>
    <path class="cls-2" d="M299.13,416.18v.95h-.22c-.88-.06-1.65.61-1.71,1.49,0,.11,0,.22.01.34v2.74h-.99v-5.46h.95v.91c.42-.67,1.18-1.04,1.96-.96Z"/>
    <path class="cls-2" d="M308.47,420.75v.89h-5.17v-7.14h5.06v.91h-4.02v2.2h3.58v.86h-3.58v2.31l4.13-.03Z"/>
    <path class="cls-2" d="M318.95,418.52v3.11h-.99v-3c0-1.06-.51-1.58-1.37-1.58s-1.62.62-1.62,1.8v2.74h-.97v-3c0-1.06-.51-1.58-1.37-1.58s-1.62.62-1.62,1.8v2.74h-.99v-5.32h.95v.81c.44-.58,1.14-.91,1.87-.86.76-.05,1.49.34,1.87,1,.48-.66,1.27-1.04,2.09-1,1.14-.06,2.12.81,2.18,1.95,0,.13,0,.26-.02.39Z"/>
    <path class="cls-2" d="M325.05,418.37v3.27h-.92v-.74c-.43.54-1.1.83-1.78.77-1.22,0-1.99-.64-1.99-1.59s.56-1.58,2.17-1.58h1.55v-.19c0-.82-.48-1.3-1.45-1.3-.62,0-1.22.2-1.7.58l-.41-.73c.65-.48,1.43-.73,2.24-.7,1.1-.17,2.13.59,2.3,1.69.03.18.03.35,0,.53ZM324.07,419.98v-.75h-1.51c-.97,0-1.25.38-1.25.84s.45.88,1.19.88c.67.05,1.31-.34,1.56-.96Z"/>
    <path class="cls-2" d="M326.69,414.56c0-.36.29-.64.64-.65,0,0,0,0,.01,0,.36,0,.64.3.63.66s-.3.64-.66.63c-.35,0-.63-.29-.63-.64ZM326.87,416.23h.97v5.41h-.97v-5.41Z"/>
    <path class="cls-2" d="M329.71,414.04h.97v7.57h-.97v-7.57Z"/>
    <path class="cls-5" d="M307.92,381.78l-1.17,1.52h0l1.85-.25v.84l-1.85-.22h0l1.18,1.48-.77.44-.74-1.72h0l-.81,1.73-.69-.45,1.15-1.48h0l-1.81.23v-.84l1.81.23h0l-1.15-1.5.74-.43.75,1.7h0l.75-1.72.74.41Z"/>
    <path class="cls-5" d="M363.64,455.82l-1.17,1.54h0l1.85-.25v.84l-1.85-.22h0l1.18,1.48-.77.44-.74-1.7h0l-.8,1.73-.7-.45,1.17-1.48h0l-1.81.23v-.84l1.8.23h0l-1.15-1.5.75-.43.75,1.7h0l.74-1.72.74.38Z"/>
    <rect class="cls-4" x="262.82" y="475.77" width="455.15" height="36.22" rx="7.45" ry="7.45"/>
    <path class="cls-8" d="M508.07,307.85h1.37v6.02h3.73v1.13h-5.05l-.05-7.15Z"/>
    <path class="cls-8" d="M518.67,311.79v3.2h-1.21v-.67c-.4.53-1.05.81-1.72.74-1.23,0-2.03-.69-2.03-1.63s.62-1.62,2.26-1.62h1.37v-.08c0-.74-.45-1.18-1.37-1.18-.59,0-1.17.18-1.65.54l-.51-.93c.68-.46,1.49-.7,2.31-.67,1.63,0,2.54.75,2.54,2.32ZM517.39,313.28v-.63h-1.37c-.86,0-1.1.32-1.1.71s.38.75,1.04.75c.61.07,1.19-.27,1.43-.84Z"/>
    <path class="cls-8" d="M519.67,314.43l.48-.96c.57.35,1.23.53,1.89.54.81,0,1.15-.22,1.15-.6,0-1.04-3.38,0-3.38-2.24,0-1.03.93-1.7,2.4-1.7.71-.01,1.41.15,2.04.48l-.49.96c-.47-.28-1.02-.42-1.56-.41-.77,0-1.14.26-1.14.62,0,1.1,3.36.12,3.36,2.25,0,1.03-.93,1.69-2.47,1.69-.81.02-1.6-.19-2.29-.62Z"/>
    <path class="cls-8" d="M528.82,314.68c-.36.25-.78.38-1.22.37-.92.12-1.76-.53-1.88-1.44-.02-.13-.02-.26,0-.39v-2.62h-.89v-1.02h.89v-1.19h1.28v1.25h1.45v1.02h-1.45v2.59c0,.54.27.81.75.81.26,0,.51-.07.71-.22l.36.85Z"/>
    <path class="cls-8" d="M539.15,307.85v7.14h-1.08l-3.94-4.84v4.84h-1.37v-7.14h1.08l3.94,4.83v-4.83h1.37Z"/>
    <path class="cls-8" d="M545.51,311.79v3.2h-1.14v-.67c-.41.52-1.05.8-1.72.74-1.25,0-2.03-.69-2.03-1.63s.62-1.62,2.26-1.62h1.37v-.08c0-.74-.44-1.18-1.37-1.18-.6,0-1.18.18-1.66.54l-.49-.93c.68-.46,1.49-.7,2.31-.67,1.56,0,2.47.75,2.47,2.32ZM544.23,313.28v-.63h-1.23c-.86,0-1.11.32-1.11.71s.4.75,1.04.75c.57.02,1.08-.32,1.3-.84Z"/>
    <path class="cls-8" d="M556.25,311.85v3.13h-1.28v-2.96c0-.96-.45-1.44-1.22-1.44s-1.37.56-1.37,1.63v2.74h-1.28v-2.96c0-.96-.45-1.44-1.22-1.44s-1.37.56-1.37,1.63v2.74h-1.4v-5.49h1.21v.69c.45-.5,1.11-.78,1.78-.75.73-.05,1.44.3,1.84.92.5-.6,1.25-.94,2.03-.92,1.15-.12,2.18.72,2.3,1.87.02.2.01.41-.03.61Z"/>
    <path class="cls-8" d="M563.04,312.66h-4.28c.17.82.93,1.38,1.77,1.3.55.02,1.09-.2,1.48-.59l.67.78c-.56.61-1.36.94-2.18.89-1.51.15-2.85-.95-3-2.46,0-.1-.01-.19-.01-.29,0-1.52,1.23-2.74,2.74-2.75.02,0,.05,0,.07,0,1.47-.05,2.7,1.1,2.75,2.57,0,.08,0,.17,0,.25.01,0,0,.11,0,.27ZM558.75,311.81h3.1c-.16-.86-.99-1.42-1.84-1.26-.64.12-1.14.62-1.26,1.26Z"/>
    <path class="cls-2" d="M520.68,345.94v2.47h-1.02v-2.48l-2.83-4.61h1.1l2.28,3.76,2.29-3.76h1.02l-2.84,4.62Z"/>
    <path class="cls-2" d="M523.31,345.71c0-1.52,1.23-2.74,2.75-2.74,1.52,0,2.74,1.23,2.74,2.75,0,1.49-1.19,2.71-2.68,2.74-1.52.04-2.77-1.16-2.81-2.67,0-.02,0-.05,0-.07ZM527.93,345.71c.09-1-.66-1.89-1.66-1.98-1-.09-1.89.66-1.98,1.66,0,.11,0,.21,0,.32-.09,1,.66,1.89,1.66,1.98,1,.09,1.89-.66,1.98-1.66,0-.11,0-.21,0-.32Z"/>
    <path class="cls-2" d="M535.31,343v5.41h-.92v-.81c-.44.57-1.12.89-1.84.86-1.16.12-2.2-.72-2.32-1.88-.02-.15-.02-.31,0-.46v-3.11h.97v3c0,1.06.54,1.59,1.45,1.59.88.05,1.63-.62,1.68-1.49,0-.1,0-.2-.01-.3v-2.74l.97-.05Z"/>
    <path class="cls-2" d="M540.09,342.95v.96h-.22c-.88-.06-1.65.61-1.71,1.49,0,.11,0,.22.01.34v2.74h-.97v-5.41h.93v.91c.4-.7,1.16-1.1,1.96-1.03Z"/>
    <path class="cls-2" d="M550.39,341.31v7.14h-.84l-4.28-5.32v5.32h-1.02v-7.14h.84l4.28,5.32v-5.32h1.02Z"/>
    <path class="cls-2" d="M556.72,345.14v3.27h-.92v-.71c-.42.55-1.1.84-1.78.77-1.22,0-1.99-.64-1.99-1.58s.55-1.59,2.17-1.59h1.55v-.19c0-.82-.48-1.3-1.45-1.3-.62,0-1.23.2-1.72.59l-.4-.74c.64-.48,1.42-.72,2.22-.7,1.44,0,2.32.71,2.32,2.2ZM555.74,346.76v-.75h-1.51c-.97,0-1.25.37-1.25.84s.45.86,1.19.86c.65.04,1.25-.32,1.52-.91l.04-.04Z"/>
    <path class="cls-2" d="M567.47,345.29v3.11h-.99v-2.98c0-1.07-.51-1.59-1.37-1.59-.87-.03-1.6.65-1.63,1.52,0,.09,0,.19.01.28v2.74h-.97v-2.95c0-1.07-.51-1.59-1.37-1.59-.87-.03-1.6.65-1.63,1.52,0,.09,0,.19.01.28v2.74h-.97v-5.41h.91v.81c.44-.58,1.14-.91,1.87-.86.77-.05,1.49.34,1.88,1,.48-.66,1.26-1.04,2.07-1,1.15-.07,2.14.8,2.21,1.95,0,.14,0,.28-.02.42Z"/>
    <path class="cls-2" d="M574.17,346.03h-4.38c.12.96.98,1.66,1.95,1.58.59.02,1.16-.22,1.56-.64l.54.63c-1.15,1.16-3.02,1.16-4.17.01-.51-.51-.82-1.19-.86-1.9-.05-1.46,1.09-2.69,2.55-2.74.07,0,.13,0,.2,0,1.43-.04,2.63,1.09,2.67,2.52,0,.08,0,.15,0,.23,0,.11-.02.22-.04.33ZM569.79,345.33h3.46c-.12-.95-.99-1.63-1.95-1.51-.79.1-1.41.72-1.51,1.51Z"/>
    <path class="cls-5" d="M570.04,307.01l-1.17,1.52h0l1.85-.25v.84l-1.85-.22h0l1.18,1.47-.77.44-.74-1.72h0l-.8,1.73-.7-.44,1.17-1.5h0l-1.81.23v-.74l1.8.23h0l-1.15-1.5.75-.43.75,1.7h0l.74-1.72.74.33Z"/>
    <path class="cls-8" d="M268.32,459.4c-.03-2.01,1.58-3.66,3.59-3.68.07,0,.15,0,.22,0,1.07-.05,2.11.39,2.83,1.19l-.85.81c-.48-.54-1.18-.85-1.91-.84-1.38-.1-2.59.94-2.69,2.32-.1,1.38.94,2.59,2.32,2.69.12,0,.25,0,.37,0,.73.01,1.42-.3,1.91-.84l.85.81c-.72.8-1.75,1.24-2.83,1.19-2.01.1-3.71-1.45-3.81-3.45,0-.07,0-.14,0-.21Z"/>
    <path class="cls-8" d="M275.43,460.24c-.09-1.6,1.14-2.98,2.74-3.07,1.6-.09,2.98,1.14,3.07,2.74.09,1.6-1.14,2.98-2.74,3.07-.06,0-.12,0-.17,0-1.51.08-2.81-1.08-2.89-2.59,0-.05,0-.1,0-.16ZM279.94,460.24c-.05-.89-.81-1.58-1.7-1.53s-1.58.81-1.53,1.7c.04.86.75,1.54,1.61,1.54.88.04,1.62-.64,1.66-1.52,0-.06,0-.12,0-.18h-.04Z"/>
    <path class="cls-8" d="M287.86,459.84v3.13h-1.28v-2.96c0-.96-.48-1.44-1.29-1.44-.79-.05-1.48.55-1.54,1.34,0,.1,0,.21.01.31v2.74h-1.28v-5.49h1.17v.7c.48-.52,1.17-.8,1.88-.77,1.18-.11,2.22.75,2.33,1.93.02.17.01.34-.01.51Z"/>
    <path class="cls-8" d="M292.76,462.67c-.36.25-.78.38-1.22.37-.92.12-1.76-.53-1.88-1.44-.02-.13-.02-.26,0-.39v-2.62h-.91v-1.02h.91v-1.25h1.28v1.25h1.45v1.02h-1.45v2.59c0,.52.26.81.75.81.26,0,.51-.07.71-.22l.36.91Z"/>
    <path class="cls-8" d="M298.37,459.77v3.2h-1.21v-.67c-.4.53-1.05.81-1.72.74-1.25,0-2.03-.69-2.03-1.63s.62-1.62,2.26-1.62h1.37v-.08c0-.74-.45-1.18-1.37-1.18-.59-.01-1.17.17-1.65.54l-.51-.93c.68-.46,1.49-.7,2.31-.67,1.63,0,2.54.75,2.54,2.32ZM297.09,461.25v-.56h-1.37c-.86,0-1.1.33-1.1.73s.38.75,1.03.75c.64.07,1.23-.31,1.44-.92h0Z"/>
    <path class="cls-8" d="M299.61,460.24c0-1.52,1.22-2.75,2.74-2.75.07,0,.14,0,.21,0,.95-.07,1.86.43,2.32,1.26l-.97.58c-.29-.48-.81-.77-1.37-.75-.94,0-1.7.76-1.7,1.7,0,.94.76,1.7,1.7,1.7.56.01,1.08-.27,1.37-.75l.97.58c-.46.84-1.36,1.33-2.32,1.28-1.51.11-2.83-1.02-2.94-2.53,0-.1,0-.21,0-.31Z"/>
    <path class="cls-8" d="M309.32,462.67c-.36.25-.78.38-1.22.37-.92.12-1.76-.53-1.88-1.44-.02-.13-.02-.26,0-.39v-2.62h-.89v-1.02h.89v-1.25h1.28v1.25h1.45v1.02h-1.45v2.59c0,.52.26.81.75.81.26,0,.51-.07.71-.22l.36.91Z"/>
    <path class="cls-8" d="M321.26,455.82v7.15h-1.08l-3.94-4.84v4.84h-1.37v-7.15h1.08l3.94,4.84v-4.84h1.37Z"/>
    <path class="cls-8" d="M328.32,457.52v5.49h-1.21v-.7c-.44.51-1.08.79-1.76.77-1.18.12-2.24-.75-2.35-1.93-.02-.16-.01-.32,0-.48v-3.1h1.28v2.94c0,.99.47,1.45,1.28,1.45s1.48-.55,1.48-1.65v-2.74l1.28-.04Z"/>
    <path class="cls-8" d="M339.11,459.84v3.13h-1.28v-2.96c0-.96-.45-1.44-1.22-1.44s-1.37.55-1.37,1.63v2.74h-1.28v-2.94c0-.96-.45-1.44-1.22-1.44s-1.37.55-1.37,1.63v2.74h-1.28v-5.49h1.22v.69c.45-.5,1.11-.78,1.78-.75.73-.04,1.43.3,1.84.91.5-.59,1.25-.93,2.03-.91,1.16-.04,2.13.87,2.17,2.03,0,.14,0,.29-.03.43Z"/>
    <path class="cls-8" d="M346.53,460.24c.05,1.47-1.11,2.7-2.58,2.74-.06,0-.11,0-.17,0-.69.03-1.35-.26-1.8-.78v.71h-1.22v-7.57h1.28v2.74c.45-.48,1.08-.75,1.74-.73,1.46-.06,2.69,1.08,2.75,2.54,0,.11,0,.23,0,.34ZM345.23,460.24c-.05-.89-.81-1.58-1.7-1.53s-1.58.81-1.53,1.7c.04.87.76,1.54,1.63,1.54.87.02,1.59-.67,1.61-1.55,0-.05,0-.1,0-.16h0Z"/>
    <path class="cls-8" d="M352.84,460.69h-4.28c.18.82.94,1.38,1.77,1.3.56.02,1.09-.19,1.48-.59l.69.78c-1.2,1.19-3.14,1.18-4.33-.02-.5-.51-.81-1.17-.87-1.88,0-1.52,1.23-2.74,2.74-2.75.02,0,.05,0,.07,0,1.46-.06,2.69,1.08,2.75,2.55,0,.09,0,.18,0,.27,0,.11,0,.23-.01.34ZM348.56,459.84h3.09c-.14-.85-.94-1.43-1.8-1.29-.66.11-1.18.63-1.29,1.29Z"/>
    <path class="cls-8" d="M357.24,457.45v1.22c-.1-.01-.19-.01-.29,0-.81-.07-1.52.53-1.59,1.34,0,.11,0,.22,0,.34v2.65h-1.28v-5.49h1.21v.8c.45-.6,1.19-.93,1.93-.85Z"/>
    <path class="cls-8" d="M276.55,534.94h-3.57l-.7,1.66h-1.37l3.21-7.15h1.37l3.21,7.15h-1.37l-.78-1.66ZM276.11,533.89l-1.37-3.11-1.37,3.11h2.74Z"/>
    <path class="cls-8" d="M284.73,529.02v7.57h-1.22v-.71c-.45.52-1.12.81-1.81.78-1.54,0-2.79-1.25-2.79-2.79s1.25-2.79,2.79-2.79c.67-.03,1.31.24,1.76.74v-2.74l1.28-.05ZM283.47,533.87c-.05-.89-.81-1.58-1.7-1.53-.89.05-1.58.81-1.53,1.7.04.86.75,1.54,1.61,1.54.88.02,1.61-.68,1.62-1.56,0-.05,0-.09,0-.14Z"/>
    <path class="cls-8" d="M291.74,529.02v7.57h-1.22v-.71c-.45.52-1.11.81-1.8.78-1.54,0-2.79-1.25-2.79-2.79s1.25-2.79,2.79-2.79c.67-.03,1.31.24,1.76.74v-2.74l1.26-.05ZM290.48,533.87c-.05-.89-.81-1.58-1.7-1.53-.89.05-1.58.81-1.53,1.7.04.86.75,1.54,1.61,1.54.88.04,1.62-.64,1.66-1.52,0-.06,0-.12,0-.18h-.04Z"/>
    <path class="cls-8" d="M296.56,531.08v1.22c-.1-.01-.19-.01-.29,0-.82-.07-1.53.54-1.6,1.35,0,.11,0,.21,0,.32v2.65h-1.26v-5.49h1.22v.8c.45-.6,1.18-.92,1.92-.85Z"/>
    <path class="cls-8" d="M302.69,534.28h-4.27c.16.82.92,1.38,1.76,1.3.56.02,1.09-.19,1.48-.59l.69.78c-.56.61-1.37.94-2.2.89-1.51.14-2.85-.96-2.99-2.47,0-.09-.01-.18-.01-.27,0-1.52,1.23-2.74,2.74-2.74,1.46-.06,2.69,1.08,2.75,2.55,0,.09,0,.18,0,.27.02.1.04.19.05.29ZM298.41,533.43h3.09c-.05-.8-.74-1.41-1.54-1.37-.8-.03-1.48.56-1.55,1.36h0Z"/>
    <path class="cls-8" d="M303.32,536.05l.48-.96c.57.35,1.23.53,1.89.54.81,0,1.15-.22,1.15-.6,0-1.04-3.38,0-3.38-2.24,0-1.03.93-1.7,2.4-1.7.71,0,1.41.15,2.04.47l-.49.97c-.47-.28-1.02-.42-1.56-.41-.77,0-1.14.26-1.14.62,0,1.1,3.36.12,3.36,2.25,0,1.03-.93,1.69-2.47,1.69-.81.01-1.6-.2-2.29-.62Z"/>
    <path class="cls-8" d="M308.57,536.05l.49-.96c.57.35,1.23.53,1.89.54.81,0,1.14-.22,1.14-.6,0-1.04-3.36,0-3.36-2.24,0-1.03.93-1.7,2.4-1.7.71,0,1.41.15,2.04.47l-.49.97c-.47-.28-1.02-.42-1.56-.41-.77,0-1.14.26-1.14.62,0,1.1,3.36.12,3.36,2.25,0,1.03-.93,1.69-2.47,1.69-.81.01-1.61-.2-2.31-.62Z"/>
    <path class="cls-2" d="M281.07,642.94l2.96,1.67-.77,1.37-3.02-1.78v3.4h-1.5v-3.4l-3.02,1.78-.78-1.37,3-1.67-3-1.66.78-1.37,3.02,1.77v-3.38h1.5v3.38l3.02-1.77.77,1.37-2.96,1.66Z"/>
    <path class="cls-2" d="M291.55,642.94l2.98,1.67-.78,1.37-3.02-1.78v3.4h-1.51v-3.4l-3.02,1.78-.77-1.37,2.99-1.67-2.99-1.66.77-1.37,3.02,1.77v-3.38h1.51v3.38l3.02-1.77.78,1.37-2.98,1.66Z"/>
    <path class="cls-2" d="M302.03,642.94l2.98,1.67-.78,1.37-3.02-1.78v3.4h-1.5v-3.4l-3.02,1.78-.77-1.37,2.99-1.67-2.91-1.66.77-1.37,3.02,1.77v-3.38h1.5v3.38l3.02-1.77.78,1.37-3.06,1.66Z"/>
    <path class="cls-2" d="M312.48,642.94l3.02,1.62-.77,1.37-3.03-1.78v3.4h-1.5v-3.4l-3.02,1.78-.78-1.37,3-1.67-3-1.66.78-1.37,3.02,1.77v-3.38h1.5v3.38l3.03-1.77.77,1.37-3.02,1.72Z"/>
    <path class="cls-2" d="M323.01,642.94l2.96,1.67-.77,1.37-3.02-1.78v3.4h-1.48v-3.4l-3.02,1.78-.78-1.37,3-1.67-3-1.66.78-1.37,3.02,1.77v-3.38h1.5v3.38l3.02-1.77.77,1.37-2.98,1.66Z"/>
    <path class="cls-2" d="M333.5,642.94l2.98,1.67-.78,1.37-3.02-1.78v3.4h-1.5v-3.4l-3.02,1.78-.77-1.37,2.99-1.67-2.99-1.66.77-1.37,3.02,1.77v-3.38h1.5v3.38l3.02-1.77.78,1.37-2.98,1.66Z"/>
    <path class="cls-2" d="M344.04,642.94l2.98,1.67-.77,1.37-3.03-1.78v3.4h-1.5v-3.4l-3.03,1.73-.77-1.37,2.99-1.67-2.99-1.66.77-1.37,3.03,1.77v-3.38h1.5v3.38l3.03-1.77.77,1.37-2.98,1.72Z"/>
    <path class="cls-8" d="M502.83,538.9l.45-1.03c.68.5,1.51.78,2.36.78,1.11,0,1.58-.4,1.58-.92,0-1.55-4.24-.54-4.24-3.18,0-1.15.92-2.14,2.87-2.14.84,0,1.66.21,2.39.63l-.43,1.04c-.59-.36-1.27-.55-1.96-.56-1.11,0-1.55.43-1.55.96,0,1.52,4.23.54,4.23,3.16,0,1.14-.93,2.11-2.88,2.11-1.01.03-1.99-.27-2.81-.85Z"/>
    <path class="cls-8" d="M513,539.41c-.36.25-.78.38-1.22.37-.92.12-1.76-.53-1.87-1.45-.02-.13-.02-.25,0-.38v-2.63h-.91v-1.02h.91v-1.23h1.28v1.23h1.45v1.02h-1.45v2.59c0,.54.26.82.75.82.26,0,.51-.08.71-.23l.36.91Z"/>
    <path class="cls-8" d="M518.61,536.52v3.2h-1.21v-.66c-.41.52-1.06.8-1.72.73-1.25,0-2.03-.69-2.03-1.63s.62-1.62,2.26-1.62h1.37v-.08c0-.74-.45-1.18-1.37-1.18-.59,0-1.17.18-1.65.54l-.51-.92c.68-.47,1.48-.7,2.31-.67,1.62,0,2.54.74,2.54,2.31ZM517.34,538.01v-.63h-1.37c-.86,0-1.1.33-1.1.73s.38.75,1.03.75c.62.08,1.21-.27,1.44-.85h0Z"/>
    <path class="cls-8" d="M523.51,539.41c-.36.25-.78.38-1.22.37-.92.12-1.76-.53-1.87-1.45-.02-.13-.02-.25,0-.38v-2.63h-.89v-1.02h.89v-1.23h1.28v1.23h1.45v1.02h-1.45v2.59c0,.54.27.82.75.82.26,0,.51-.08.71-.23l.36.91Z"/>
    <path class="cls-8" d="M529.48,537.39h-4.32c.13.85.9,1.45,1.76,1.37.56.02,1.09-.19,1.48-.59l.69.8c-.56.61-1.37.93-2.2.88-1.51.14-2.85-.96-2.99-2.47,0-.09-.01-.18-.01-.27,0-1.52,1.23-2.74,2.74-2.75.02,0,.05,0,.07,0,1.47-.05,2.7,1.1,2.75,2.57,0,.08,0,.16,0,.24.07-.05.05.1.04.22ZM525.2,536.56h3.09c-.05-.8-.74-1.41-1.54-1.37-.81-.05-1.52.56-1.59,1.37h.04Z"/>
    <path class="cls-8" d="M274.8,609.98c0,1.56-1.15,2.54-3.03,2.54h-1.62v2.06h-1.37v-7.07h2.94c1.93,0,3.09.89,3.09,2.47ZM273.43,609.98c0-.89-.6-1.37-1.77-1.37h-1.55v2.83h1.55c1.21-.04,1.81-.56,1.81-1.45h-.04Z"/>
    <path class="cls-8" d="M280.52,611.39v3.18h-1.21v-.66c-.41.52-1.06.8-1.72.73-1.25,0-2.03-.67-2.03-1.63s.62-1.62,2.26-1.62h1.37v-.08c0-.74-.45-1.18-1.37-1.18-.6-.01-1.18.18-1.65.55l-.51-.93c.68-.47,1.48-.7,2.31-.67,1.63,0,2.54.74,2.54,2.32ZM279.24,612.87v-.63h-1.37c-.86,0-1.1.33-1.1.73s.38.75,1.03.75c.62.08,1.21-.27,1.44-.85h0Z"/>
    <path class="cls-8" d="M281.52,614.04l.49-.97c.57.35,1.22.54,1.89.55.81,0,1.15-.23,1.15-.6,0-1.04-3.38-.07-3.38-2.24,0-1.03.93-1.7,2.4-1.7.71-.02,1.41.14,2.04.47l-.49.97c-.47-.28-1.01-.43-1.56-.41-.77,0-1.14.26-1.14.62,0,1.1,3.36.11,3.36,2.25,0,1.02-.93,1.67-2.47,1.67-.81.02-1.61-.19-2.31-.6Z"/>
    <path class="cls-8" d="M286.78,614.04l.49-.97c.57.35,1.22.54,1.89.55.81,0,1.14-.23,1.14-.6,0-1.04-3.36-.07-3.36-2.24,0-1.03.93-1.7,2.4-1.7.71-.02,1.4.14,2.03.47l-.48.97c-.47-.28-1.01-.43-1.56-.41-.77,0-1.14.26-1.14.62,0,1.1,3.36.11,3.36,2.25,0,1.02-.93,1.67-2.47,1.67-.81.02-1.61-.19-2.31-.6Z"/>
    <path class="cls-8" d="M301.05,609.13l-2,5.49h-1.22l-1.37-3.75-1.37,3.75h-1.22l-2-5.49h1.21l1.44,4.02,1.5-4.02h1.07l1.47,4.05,1.48-4.05h1.03Z"/>
    <path class="cls-8" d="M301.32,611.86c-.09-1.6,1.14-2.98,2.74-3.07,1.6-.09,2.98,1.14,3.07,2.74.09,1.6-1.14,2.98-2.74,3.07-.06,0-.12,0-.17,0-1.51.08-2.81-1.08-2.89-2.59,0-.05,0-.1,0-.16ZM305.85,611.86c-.05-.89-.81-1.58-1.7-1.53-.89.05-1.58.81-1.53,1.7.04.85.75,1.53,1.6,1.54.88.02,1.61-.67,1.64-1.55,0-.05,0-.1,0-.16Z"/>
    <path class="cls-8" d="M311.5,609.07v1.18h-.29c-.82-.06-1.53.55-1.59,1.37,0,.11,0,.21.01.32v2.63h-1.28v-5.49h1.21v.8c.46-.59,1.19-.89,1.93-.81Z"/>
    <path class="cls-8" d="M317.87,607.02v7.56h-1.28v-.7c-.45.52-1.12.81-1.81.77-1.54,0-2.79-1.25-2.79-2.79s1.25-2.79,2.79-2.79c.66-.03,1.31.24,1.76.73v-2.74l1.33-.04ZM316.62,611.86c-.04-.9-.8-1.6-1.7-1.56-.9.04-1.6.8-1.56,1.7.04.88.76,1.57,1.64,1.56.88,0,1.59-.71,1.6-1.59,0-.04,0-.08,0-.11h.03Z"/>
    <path class="cls-5" d="M685.26,661.26c.72-.07,1.44-.2,2.14-.4,2-.64,3.63-2.09,4.5-4.01.57-1.39.79-2.9.63-4.39v-18.62c.09-1.22-.03-2.46-.37-3.64-.41-1.2-1.13-2.27-2.09-3.1-.98-.87-2.19-1.45-3.49-1.67-1.37-.12-2.74-.16-4.12-.11h-60.44c-3.68,0-6.75,2.81-7.07,6.48v21.06c-.15,1.62.23,3.24,1.07,4.62.82,1.35,2.07,2.38,3.55,2.92,1.5.44,3.07.6,4.62.45h29.57l23.18.11,6.3.07h2.2-8.49l-23.18.11h-31.96c-.84-.02-1.67-.18-2.46-.48-1.62-.6-3-1.72-3.91-3.18-.9-1.5-1.32-3.24-1.18-4.98v-21.13c.18-1.93,1.06-3.73,2.48-5.05,1.44-1.33,3.33-2.07,5.3-2.07h60.44c1.43-.04,2.86,0,4.28.14,2.79.5,5.08,2.49,5.97,5.17.35,1.23.48,2.52.38,3.8v18.62c.13,1.54-.12,3.08-.73,4.5-.91,1.96-2.63,3.44-4.71,4.03-.75.42-1.59.67-2.44.74Z"/>
    <path class="cls-5" d="M628.96,643.67c-.03-2.12,1.67-3.86,3.79-3.89.11,0,.22,0,.33,0,1.18-.04,2.32.47,3.09,1.37l-1.11,1.03c-.47-.56-1.16-.89-1.89-.88-1.32.1-2.31,1.25-2.21,2.58.09,1.18,1.03,2.12,2.21,2.21.73.01,1.43-.31,1.89-.88l1.11,1.03c-1.53,1.68-4.14,1.8-5.82.26-.79-.72-1.27-1.73-1.33-2.8l-.05-.04Z"/>
    <path class="cls-5" d="M636.52,644.56c-.11-1.75,1.21-3.26,2.96-3.37,1.75-.11,3.26,1.21,3.37,2.96.11,1.75-1.21,3.26-2.96,3.37-.07,0-.13,0-.2,0-1.64.11-3.06-1.14-3.16-2.78,0-.06,0-.12,0-.18ZM641.16,644.56c.08-.81-.52-1.54-1.33-1.62-.81-.08-1.54.52-1.62,1.33,0,.09,0,.19,0,.28-.08.81.52,1.54,1.33,1.62.81.08,1.54-.52,1.62-1.33,0-.09,0-.19,0-.28Z"/>
    <path class="cls-5" d="M649.84,644.12v3.29h-1.67v-3.05c0-.93-.43-1.37-1.17-1.37s-1.37.49-1.37,1.55v2.85h-1.66v-5.76h1.59v.67c.5-.51,1.19-.78,1.91-.75,1.25-.07,2.32.88,2.39,2.13,0,.15,0,.29-.02.44Z"/>
    <path class="cls-5" d="M655.06,647.12c-.41.26-.89.39-1.37.37-1.04.14-2-.59-2.15-1.63-.02-.15-.02-.29,0-.44v-2.36h-.88v-1.25h.88v-1.37h1.67v1.37h1.37v1.29h-1.37v2.35c-.05.36.19.7.55.75.05,0,.11,0,.16,0,.24,0,.48-.07.67-.21l.47,1.13Z"/>
    <path class="cls-5" d="M655.8,639.92c0-.52.43-.94.96-.94.02,0,.05,0,.07,0,.51-.06.98.3,1.04.82,0,.03,0,.06,0,.09-.07.57-.58.98-1.16.92-.48-.06-.86-.44-.92-.92v.03ZM656.01,641.65h1.66v5.76h-1.66v-5.76Z"/>
    <path class="cls-5" d="M665.12,644.12v3.29h-1.67v-3.05c0-.93-.43-1.37-1.17-1.37s-1.37.49-1.37,1.55v2.85h-1.69v-5.76h1.59v.67c.5-.51,1.19-.78,1.91-.75,1.25-.09,2.33.85,2.42,2.1.01.16,0,.31-.02.47Z"/>
    <path class="cls-5" d="M672.4,641.65v5.76h-1.58v-.69c-.46.5-1.11.78-1.78.77-1.26.1-2.37-.84-2.47-2.1-.01-.17,0-.33.01-.5v-3.25h1.66v3c0,.96.43,1.37,1.17,1.37s1.37-.49,1.37-1.55v-2.85l1.62.03Z"/>
    <path class="cls-5" d="M679.57,645h-4.35c.18.74.89,1.24,1.65,1.15.54.02,1.06-.18,1.44-.55l.89.96c-.62.64-1.48.98-2.37.93-1.64.17-3.11-1.03-3.28-2.67,0-.1-.01-.19-.02-.29-.02-1.61,1.26-2.94,2.88-2.97.07,0,.13,0,.2,0,1.57-.08,2.91,1.14,2.99,2.71,0,.09,0,.18,0,.27,0,.14-.01.32-.03.45ZM675.19,644.02h2.84c-.09-.69-.68-1.2-1.37-1.19-.73-.06-1.38.47-1.47,1.19h0Z"/>
    <rect class="cls-5" x="522.26" y="625.03" width="78.28" height="36.22" rx="7.45" ry="7.45"/>
    <path class="cls-11" d="M548.66,646.67l.59-1.37c.73.5,1.59.77,2.47.78,1.03,0,1.44-.34,1.44-.81,0-1.37-4.35-.44-4.35-3.22,0-1.26,1.03-2.33,3.16-2.33.91-.02,1.81.22,2.59.67l-.54,1.37c-.63-.38-1.34-.58-2.07-.59-1.03,0-1.37.38-1.37.85,0,1.37,4.36.43,4.36,3.18,0,1.25-1.04,2.32-3.18,2.32-1.1.04-2.18-.26-3.1-.85Z"/>
    <path class="cls-11" d="M561.05,644.12v3.29h-1.59v-.73c-.39.57-1.07.88-1.76.81-1.37,0-2.15-.75-2.15-1.74s.71-1.73,2.47-1.73h1.37c0-.71-.43-1.13-1.37-1.13-.6,0-1.18.18-1.66.54l-.59-1.17c.74-.48,1.6-.72,2.48-.7,1.78,0,2.8.81,2.8,2.55ZM559.38,645.59v-.59h-1.14c-.78,0-1.03.29-1.03.67s.34.7.93.7c.54.04,1.04-.28,1.23-.78Z"/>
    <path class="cls-11" d="M568.16,641.65l-2.43,5.76h-1.72l-2.43-5.76h1.73l1.59,3.92,1.65-3.92h1.61Z"/>
    <path class="cls-11" d="M574.29,645h-4.36c.19.74.89,1.23,1.65,1.15.54.02,1.06-.17,1.45-.55l.88.96c-.62.64-1.48.99-2.37.93-1.64.17-3.1-1.02-3.26-2.66-.01-.1-.02-.2-.02-.3-.02-1.61,1.26-2.94,2.88-2.97.07,0,.13,0,.2,0,1.57-.08,2.91,1.14,2.99,2.71,0,.09,0,.18,0,.27,0,.14-.03.32-.03.45ZM569.92,644.02h2.83c0-.78-.63-1.41-1.41-1.41s-1.41.63-1.41,1.41Z"/>
    <path class="cls-2" d="M282.07,495.21v2.52h-1v-2.5l-2.9-4.69h1.1l2.28,3.76,2.29-3.76h1.02l-2.79,4.67Z"/>
    <path class="cls-2" d="M284.69,494.99c0-1.52,1.23-2.74,2.75-2.74s2.74,1.23,2.74,2.75c0,1.49-1.19,2.71-2.68,2.74-1.52.04-2.77-1.16-2.81-2.67,0-.02,0-.05,0-.07ZM289.31,494.99c.09-1-.66-1.89-1.66-1.98-1-.09-1.89.66-1.98,1.66,0,.11,0,.21,0,.32-.09,1,.66,1.89,1.66,1.98,1,.09,1.89-.66,1.98-1.66,0-.11,0-.21,0-.32Z"/>
    <path class="cls-2" d="M296.7,492.25v5.49h-.92v-.82c-.43.58-1.12.9-1.84.88-1.16.12-2.2-.72-2.32-1.88-.02-.15-.02-.31,0-.46v-3.2h.97v2.99c0,1.07.54,1.59,1.45,1.59.87.06,1.62-.59,1.68-1.46,0-.11,0-.21-.01-.32v-2.74l.97-.05Z"/>
    <path class="cls-2" d="M301.5,492.25v.95h-.22c-.88-.06-1.65.61-1.71,1.49,0,.11,0,.22.01.34v2.74h-.97v-5.52h.93v.91c.43-.65,1.19-1,1.96-.91Z"/>
    <path class="cls-2" d="M311.78,490.55v7.19h-.84l-4.28-5.32v5.32h-1.04v-7.14h.84l4.28,5.32v-5.32l1.04-.05Z"/>
    <path class="cls-2" d="M318.82,492.25v5.49h-.85v-.82c-.43.58-1.12.9-1.84.88-1.17.12-2.21-.73-2.33-1.9-.02-.15-.01-.3,0-.45v-3.2h.99v2.99c0,1.07.52,1.59,1.45,1.59.88.05,1.63-.62,1.68-1.49,0-.1,0-.19,0-.29v-2.74l.91-.05Z"/>
    <path class="cls-2" d="M329.66,494.57v3.17h-.97v-3c0-1.06-.51-1.58-1.37-1.58-.87-.03-1.6.65-1.63,1.52,0,.09,0,.19.01.28v2.74h-.97v-3c0-1.06-.51-1.58-1.37-1.58-.87-.03-1.6.65-1.63,1.52,0,.09,0,.19.01.28v2.74h-1.02v-5.41h.95v.81c.44-.54,1.1-.84,1.8-.81.76-.05,1.49.34,1.87,1,.49-.66,1.27-1.03,2.09-1,1.14-.11,2.15.73,2.26,1.87.01.15.01.3,0,.45Z"/>
    <path class="cls-2" d="M337.07,494.99c.06,1.45-1.07,2.68-2.52,2.74-.07,0-.15,0-.22,0-.75.04-1.48-.31-1.92-.92v.92h-.95v-7.56h.99v2.98c.45-.58,1.15-.91,1.88-.88,1.45-.06,2.68,1.07,2.74,2.52,0,.07,0,.13,0,.2ZM336.08,494.99c-.05-1.01-.9-1.79-1.91-1.74-1.01.05-1.79.9-1.74,1.91.04.97.85,1.74,1.82,1.74.98.03,1.8-.73,1.83-1.71,0-.07,0-.13,0-.2Z"/>
    <path class="cls-2" d="M343.29,495.31h-4.39c.13.96.99,1.65,1.96,1.58.59.02,1.16-.22,1.56-.66l.54.63c-1.15,1.16-3.02,1.16-4.17.01-.51-.51-.82-1.18-.86-1.89-.05-1.46,1.09-2.69,2.55-2.74.07,0,.13,0,.2,0,1.44-.04,2.64,1.09,2.68,2.53,0,.07,0,.14,0,.21-.04.11-.05.23-.05.33ZM338.9,494.6h3.47c-.09-.96-.93-1.67-1.89-1.58-.84.07-1.51.74-1.58,1.58Z"/>
    <path class="cls-2" d="M347.58,492.25v.95h-.22c-.88-.06-1.65.61-1.71,1.49,0,.11,0,.22.01.34v2.74h-.99v-5.52h.95v.91c.43-.65,1.19-1,1.96-.91Z"/>
    <rect class="cls-5" x="220.5" y="253.29" width="559.78" height="34.26"/>
    <path class="cls-11" d="M253.9,268.76v2.26h3.97v1.59h-3.97v3.13h-1.98v-8.52h6.48v1.59l-4.5-.05Z"/>
    <path class="cls-11" d="M259.11,271.45c-.15-2.59,1.83-4.82,4.42-4.97,2.59-.15,4.82,1.83,4.97,4.42s-1.83,4.82-4.42,4.97c-.09,0-.19,0-.28,0-2.44.14-4.54-1.72-4.69-4.16,0-.09,0-.18,0-.27ZM266.48,271.45c0-1.52-1.23-2.74-2.75-2.74-1.52,0-2.74,1.23-2.74,2.75s1.23,2.74,2.75,2.74c.02,0,.05,0,.07,0,1.44.04,2.64-1.09,2.68-2.53,0-.07,0-.14,0-.21Z"/>
    <path class="cls-11" d="M275.43,275.74l-1.65-2.39h-1.82v2.39h-2.02v-8.52h3.72c2.29,0,3.72,1.18,3.72,3.1.08,1.2-.63,2.31-1.76,2.74l1.92,2.74-2.11-.07ZM273.58,268.78h-1.62v2.98h1.62c1.21,0,1.82-.56,1.82-1.5s-.6-1.48-1.81-1.48h-.01Z"/>
    <path class="cls-11" d="M286.79,275.74v-5.15l-2.52,4.24h-.89l-2.51-4.12v5.04h-1.87v-8.53h1.65l3.21,5.32,3.16-5.32h1.63v8.58l-1.85-.05Z"/>
    <path class="cls-8" d="M780.12,254.17H220.9l.33-.33c-.07,130.48-.12,279.53-.21,437.14h0l-.36-.37,559.23.36-.3.3c.32-263.89.52-434.72.52-437.18,0,2.46,0,173.29.07,437.18v.3h-.29l-559.23-.23h-.36v-.41c.1-157.6.19-306.66.27-437.14v-.29h.32l559.22.67Z"/>
  </g>
  <g id="freepik--Plant--inject-2">
    <rect class="cls-8" x="123.18" y="726.2" width="100.85" height="13.86"/>
    <path class="cls-8" d="M224.21,740.22h-101.21v-14.2h101.21v14.2ZM123.34,739.88h100.51v-13.52h-100.51v13.52Z"/>
    <polygon class="cls-8" points="132.52 735.43 147.04 807.06 200.76 807.06 214.79 740.06 132.52 735.43"/>
    <polygon class="cls-3" points="132.52 800.28 140.27 810.93 205.56 810.93 214.79 800.28 132.52 800.28"/>
    <path class="cls-8" d="M169.77,737.53c-.21,0-.45-33.18-.58-74.1-.12-40.92,0-74.1.15-74.1s.45,33.18.58,74.1c.12,40.92.08,74.1-.15,74.1Z"/>
    <path class="cls-8" d="M192.28,654.49c-.05.27-.15.54-.27.78-.23.56-.52,1.28-.89,2.14l-.66,1.55-.67,1.88-.78,2.17c-.26.75-.48,1.59-.74,2.46-1.2,4.05-2.14,8.18-2.83,12.35-.78,5.12-1.3,10.28-1.55,15.45-.38,9.41-.11,18.83.8,28.2.32,3.61.64,6.52.89,8.52.1.95.18,1.72.25,2.32.04.27.04.55,0,.82-.09-.26-.15-.52-.18-.8-.11-.6-.23-1.37-.4-2.31-.32-2-.73-4.9-1.11-8.51-1.06-9.39-1.4-18.85-1.02-28.29.26-5.2.8-10.38,1.63-15.52.71-4.18,1.71-8.31,2.99-12.35.27-.86.51-1.69.8-2.46s.56-1.48.84-2.15l.73-1.88c.25-.56.49-1.07.71-1.52.43-.85.75-1.55,1.03-2.1.13-.26.27-.51.44-.75Z"/>
    <path class="cls-8" d="M189.7,627.67c-.07.37-.18.73-.32,1.08l-1.06,3.09c-.23.67-.48,1.37-.77,2.22s-.52,1.73-.81,2.74c-.59,1.92-1.28,4.12-1.88,6.55-.33,1.23-.66,2.51-1.02,3.84l-.95,4.2c-.7,2.88-1.21,6.02-1.85,9.3-1.11,6.59-2.1,13.87-2.74,21.56s-.92,15.09-1.02,21.72,0,12.71.34,17.77c.08,2.52.25,4.8.38,6.86s.23,3.73.37,5.15.18,2.44.25,3.25c.03.38.03.76,0,1.14-.08-.37-.14-.75-.18-1.13-.1-.81-.22-1.88-.38-3.24s-.33-3.13-.49-5.15-.36-4.28-.48-6.86c-.34-5.05-.48-11.09-.49-17.84s.32-14.08.96-21.79,1.67-15.01,2.83-21.61c.67-3.28,1.21-6.42,1.93-9.32.34-1.37.67-2.85.99-4.2s.73-2.61,1.06-3.83c.64-2.46,1.37-4.64,1.99-6.55l.88-2.74c.3-.8.58-1.54.82-2.21.49-1.26.89-2.28,1.18-3.03.13-.34.28-.67.45-.99Z"/>
    <path class="cls-8" d="M163.43,743.35c-.01-.13-.01-.27,0-.4,0-.29,0-.67-.1-1.14,0-1.06-.18-2.52-.3-4.39-.23-3.87-.59-9.39-1-16.16-.88-13.64-2.15-32.49-4.45-53.23-1.17-10.36-2.54-20.2-3.95-29.13-.74-4.45-1.37-8.69-2.2-12.64s-1.48-7.62-2.18-10.98-1.37-6.35-2-9c-.63-2.65-1.14-4.91-1.62-6.76s-.8-3.25-1.04-4.28c-.11-.45-.19-.82-.26-1.11-.02-.13-.02-.27,0-.4.05.12.09.24.12.37.1.29.19.66.33,1.1.29,1.03.67,2.44,1.18,4.25s1.11,4.12,1.74,6.74,1.37,5.64,2.1,9,1.54,7,2.26,10.98,1.51,8.23,2.28,12.64c1.45,8.93,2.84,18.78,4.01,29.16,2.31,20.76,3.49,39.63,4.23,53.28.38,6.86.63,12.35.8,16.18,0,1.87.12,3.33.15,4.4v1.14c-.02.13-.05.26-.1.38Z"/>
    <path class="cls-5" d="M168.99,605.27c-.44-4.71-5.19-8.23-9.91-8.3s-9.12,2.74-12.01,6.52c-2.72,3.88-4.69,8.24-5.79,12.84-3.17,11.07-4.91,22.71-3.55,34.14s5.97,22.71,14.2,30.79c1.37,1.37,3.06,2.63,4.88,2.24.99-.3,1.88-.84,2.59-1.59,16.26-14.89,25.3-36.07,24.79-58.11-.12-4.35-.7-8.88-3.1-12.5-2.4-3.62-8.03-7.48-12.13-6.02"/>
    <path class="cls-5" d="M133.74,567.62l-6.65,12.05c-.15.27-.36.59-.67.62s-.62-.3-.81-.59l-17.58-26.99,4.12-2.29,21.6,17.21Z"/>
    <g class="cls-12">
      <path class="cls-1" d="M133.74,567.62l-6.65,12.05c-.15.27-.36.59-.67.62s-.62-.3-.81-.59l-17.58-26.99,4.12-2.29,21.6,17.21Z"/>
    </g>
    <path class="cls-5" d="M169.39,589.32l-59.99-35.32c-.6-.37-1.28-.8-1.45-1.48s.43-1.74,1.07-2.4c8.35-8.66,20.06-13.26,32.07-12.58,12.04.86,22.87,7.6,28.97,18.02,5.79,10.33,5.98,24.01-.66,33.82"/>
    <path class="cls-8" d="M118.07,542.65c.25-.07.52-.11.78-.11.52,0,1.29-.11,2.28-.11,2.79-.03,5.57.19,8.32.67,4.09.68,8.07,1.89,11.84,3.6,13.25,5.97,23.14,17.54,26.98,31.56.74,2.69,1.24,5.45,1.48,8.23.06.58.09,1.16.1,1.74-.05.47-.21.91-.47,1.3.18-1,.21-2.01.1-3.02-.35-2.74-.92-5.46-1.7-8.11-5.13-17.96-20.03-31.44-38.42-34.76-2.72-.51-5.47-.8-8.23-.88-1.95-.1-3.05-.07-3.05-.12Z"/>
    <path class="cls-8" d="M161.28,564.97c-.96.56-1.98,1.02-3.03,1.37-1.91.75-4.58,1.72-7.56,2.66-2.98.95-5.74,1.7-7.73,2.2-1.06.33-2.16.54-3.27.62,1-.47,2.05-.84,3.13-1.11l7.64-2.39,7.62-2.46c1.03-.41,2.1-.71,3.2-.89Z"/>
    <path class="cls-8" d="M151.84,539.53c.82,4.42.93,8.95.34,13.41-.3-2.22-.42-4.46-.36-6.7-.17-2.23-.17-4.48.01-6.71Z"/>
    <path class="cls-8" d="M108.91,553.27c1.41-.64,2.87-1.16,4.36-1.54,2.74-.84,6.52-1.91,10.74-2.92s8.1-1.8,10.89-2.29c1.51-.34,3.04-.54,4.58-.62-1.46.47-2.96.84-4.47,1.11-2.74.62-6.61,1.48-10.84,2.5s-8.01,2-10.77,2.74c-1.47.44-2.98.78-4.5,1.02Z"/>
    <path class="cls-5" d="M144.1,595.08c-5.16-3.91-10.61-4.69-17.08-4.43-6.48.43-12.81,2.07-18.69,4.83-10.11,4.42-19.61,10.98-25.66,20.18-6.05,9.21-8.14,21.47-3.61,31.56.35,1.05,1.08,1.94,2.04,2.48,1.12.32,2.33.22,3.39-.26,11.5-3.75,23.08-7.53,33.64-13.41,10.57-5.87,20.2-14.05,25.88-24.7,1.47-2.53,2.41-5.33,2.74-8.23.32-2.93-.64-5.85-2.63-8.01"/>
    <path class="cls-8" d="M144.21,593.86c-.27.14-.55.25-.84.34l-2.4.82-1.76.58c-.63.23-1.37.52-2.03.8-1.45.59-3.14,1.18-4.93,2.04l-2.74,1.29c-.99.45-1.96,1-2.99,1.52-2.09,1.03-4.2,2.33-6.44,3.66-9.65,5.97-18.22,13.51-25.37,22.32-1.61,2.06-3.17,3.98-4.46,5.91-.64.96-1.37,1.85-1.89,2.74l-1.63,2.63c-1.08,1.65-1.88,3.25-2.65,4.62-.38.69-.74,1.37-1.06,1.92s-.55,1.15-.8,1.65l-1.13,2.29c-.12.28-.26.54-.44.78.07-.29.17-.57.3-.84l1.02-2.35c.22-.52.47-1.08.74-1.69.29-.62.64-1.26,1-1.96.74-1.37,1.51-3.02,2.57-4.69l1.61-2.68c.56-.92,1.23-1.84,1.88-2.81,1.26-1.96,2.83-3.91,4.42-6,7.14-8.89,15.75-16.47,25.47-22.43,2.28-1.37,4.4-2.62,6.52-3.62,1.04-.52,2.03-1.07,3.02-1.51l2.85-1.25c1.81-.84,3.51-1.37,4.99-1.95.74-.27,1.37-.54,2.06-.74l1.77-.52,2.46-.7c.28-.11.58-.18.88-.21Z"/>
    <path class="cls-8" d="M103.91,615.74c-4.1,1.58-8.29,2.93-12.54,4.05-4.18,1.35-8.44,2.47-12.75,3.35,4.1-1.58,8.29-2.93,12.54-4.05,4.19-1.34,8.44-2.46,12.75-3.35Z"/>
    <path class="cls-8" d="M103.4,643.36c-.22-1.29-.32-2.6-.27-3.91-.07-2.41-.08-5.76,0-9.45s.3-7.01.51-9.43c.04-1.31.2-2.61.49-3.88.11,1.3.11,2.61,0,3.91-.08,2.65-.18,5.87-.29,9.43s-.18,6.78-.23,9.43c.04,1.31-.03,2.62-.21,3.91Z"/>
    <path class="cls-8" d="M127.11,631.28c-.21,0-.84-6.78-1.37-15.16-.54-8.38-.89-15.19-.69-15.2s.82,6.76,1.37,15.16c.55,8.4.88,15.19.69,15.2Z"/>
    <path class="cls-8" d="M97.6,600.25c1.33-.16,2.68-.2,4.02-.12,2.47,0,5.9.1,9.6.22,3.7.12,7.2.27,9.67.43,1.34,0,2.69.13,4.01.38-1.33.16-2.68.2-4.02.12-2.47,0-5.9-.1-9.69-.22-3.79-.12-7.2-.27-9.6-.43-1.34-.01-2.68-.14-3.99-.38Z"/>
    <path class="cls-8" d="M154.52,682.84c-.06-.26-.09-.53-.08-.8,0-.6,0-1.37-.11-2.31-.1-2-.11-4.91,0-8.49s.3-7.86.74-12.58,1.14-9.89,2.1-15.29,2.2-10.48,3.42-15.09,2.54-8.67,3.75-12.06,2.24-6.11,3.02-7.96l.92-2.13c.1-.25.22-.49.36-.73-.04.27-.11.53-.22.78-.21.56-.47,1.29-.8,2.17-.7,1.88-1.67,4.62-2.74,8.01s-2.36,7.49-3.58,12.07-2.36,9.6-3.35,15.09c-.99,5.49-1.66,10.52-2.15,15.23s-.77,8.95-.89,12.53-.21,6.48-.21,8.47v2.32c-.02.26-.08.51-.16.75Z"/>
    <path class="cls-8" d="M157.69,643.58c-.71.95-1.51,1.83-2.4,2.62-1.55,1.55-3.75,3.62-6.27,5.83-2.52,2.21-4.86,4.12-6.59,5.49-.9.78-1.88,1.47-2.92,2.03.78-.89,1.65-1.7,2.59-2.41l6.45-5.6,6.39-5.67c.84-.85,1.76-1.62,2.74-2.29Z"/>
    <path class="cls-8" d="M176.63,658.87c-.94-1.11-1.8-2.29-2.55-3.53l-5.93-8.64-6.05-8.56c-.9-1.14-1.71-2.35-2.41-3.62,1.03,1.03,1.98,2.14,2.83,3.32,1.66,2.11,3.88,5.09,6.23,8.45,2.35,3.36,4.36,6.49,5.76,8.78.82,1.2,1.53,2.48,2.13,3.8Z"/>
    <path class="cls-8" d="M166.71,610.79c.11.16-6.19,4.42-14.08,9.48-7.89,5.06-14.42,9.04-14.42,8.88s6.2-4.42,14.09-9.48c7.89-5.06,14.3-9.04,14.41-8.88Z"/>
    <path class="cls-8" d="M184.5,629.97c-3.34-2.76-6.52-5.7-9.54-8.81-3.19-2.94-6.21-6.05-9.04-9.33,3.34,2.76,6.52,5.71,9.54,8.82,3.18,2.94,6.2,6.05,9.04,9.32Z"/>
    <path class="cls-5" d="M188.98,629.59l5.41-.44c3.86-.31,7.6-1.45,10.98-3.35,1.64-.96,3.34-1.82,5.09-2.57,6.7-2.68,14.16-2.2,21.36-2.57,11.79-.6,23.34-3.55,33.97-8.69.63-.29,1.15-.77,1.48-1.37,1.11-2.02-.96-3.83-2.74-4.93-9.12-5.61-18.4-11.31-28.75-14.09-10.35-2.79-22.08-2.32-30.9,3.76-10.41,7.15-14.17,21.76-15.9,34.23"/>
    <path class="cls-8" d="M267.35,609.98c-.32-.12-.63-.26-.92-.43l-2.57-1.37c-2.22-1.18-5.49-2.9-9.48-4.84-4.7-2.3-9.59-4.19-14.63-5.63-6.17-1.77-12.63-2.29-19-1.54-6.38.72-12.41,3.3-17.33,7.44-3.84,3.57-6.91,7.88-9.03,12.68-1.89,4.12-3.07,7.51-3.92,9.87-.4,1.14-.71,2.04-.96,2.74-.09.33-.22.64-.38.93.06-.33.14-.65.25-.97.21-.7.49-1.62.84-2.74,1.04-3.41,2.28-6.75,3.73-10,2.08-4.9,5.16-9.31,9.04-12.95,5-4.26,11.15-6.92,17.67-7.66,6.45-.75,12.98-.2,19.21,1.62,5.07,1.48,10,3.43,14.71,5.83,4.03,2,7.2,3.8,9.4,5.05l2.5,1.45c.31.15.6.32.88.52Z"/>
    <path class="cls-8" d="M254.34,616.96c-.11.16-7.19-4.42-15.81-10.24-8.62-5.82-15.52-10.65-15.41-10.81s7.19,4.4,15.81,10.22c8.62,5.82,15.52,10.66,15.41,10.83Z"/>
    <path class="cls-8" d="M246.79,595.53c-1.66.58-3.4.9-5.16.93-1.74.25-3.52.22-5.26-.07,1.72-.3,3.46-.48,5.2-.54,1.73-.24,3.47-.35,5.21-.33Z"/>
    <path class="cls-8" d="M215.81,591.5c-.59,1.32-1.37,2.54-2.33,3.62-.8,1.26-1.79,2.39-2.94,3.35.58-1.32,1.36-2.54,2.32-3.62.81-1.26,1.8-2.39,2.95-3.35Z"/>
    <path class="cls-8" d="M222.15,621.14c-1.19-.51-2.33-1.13-3.4-1.85-2.04-1.23-4.82-3.06-7.77-5.2-2.95-2.14-5.56-4.12-7.42-5.65-1.06-.75-2.04-1.59-2.94-2.52,1.14.6,2.23,1.31,3.24,2.11l7.55,5.49c2.94,2.14,5.64,4.02,7.62,5.37,1.11.66,2.15,1.42,3.13,2.26Z"/>
    <path class="cls-5" d="M196.93,652.58c-5.16-1.37-11.31,3.66-12.35,8.89s.91,10.58,3.2,15.41c5.09,10.66,12.1,20.58,21.35,27.92,9.25,7.34,20.82,12.09,32.64,12.02-2.18-10.14.58-20.72-.64-31.02-2.2-18.67-16.99-33.34-35.68-35.39-3.29-.36-7.11-.88-8.42,2.17"/>
    <path class="cls-8" d="M241.74,716.83c-.26-.08-.51-.2-.74-.34-.68-.37-1.32-.8-1.92-1.29-2.17-1.89-3.92-4.23-5.1-6.86-.82-1.61-1.74-3.33-2.63-5.26l-2.74-6.13c-1-2.26-2.14-4.45-3.42-6.57-1.39-2.25-2.96-4.38-4.69-6.38-3.54-4.12-7.33-7.75-10.61-11.18-2.97-2.99-5.68-6.24-8.1-9.7-1.62-2.35-2.95-4.89-3.95-7.56-.27-.72-.51-1.46-.7-2.21-.07-.26-.13-.53-.16-.8.07,0,.37,1.06,1.13,2.91,1.1,2.6,2.48,5.07,4.12,7.37,2.45,3.42,5.18,6.63,8.15,9.6,3.31,3.39,7.12,6.97,10.69,11.17,1.75,2.03,3.34,4.2,4.75,6.49,1.28,2.14,2.42,4.37,3.42,6.65.96,2.15,1.87,4.23,2.74,6.16s1.76,3.66,2.55,5.27c1.13,2.59,2.77,4.93,4.83,6.86,1.43,1.25,2.44,1.73,2.4,1.8Z"/>
    <path class="cls-8" d="M215.05,708.4c.02-1.17.19-2.34.48-3.47.4-2.13,1.07-5.05,1.96-8.23s1.85-6.02,2.62-8.04c.33-1.12.79-2.2,1.37-3.21-.2,1.15-.51,2.28-.92,3.38-.64,2.06-1.52,4.9-2.41,8.07s-1.62,6.05-2.15,8.14c-.2,1.15-.52,2.28-.95,3.38Z"/>
    <path class="cls-8" d="M240.75,683.53c-1.23-.18-2.45-.46-3.64-.84-2.22-.59-5.3-1.37-8.71-2.15-3.42-.78-6.53-1.37-8.78-1.78-1.24-.17-2.46-.44-3.65-.81,1.25-.03,2.49.07,3.72.3,2.29.3,5.49.82,8.88,1.59s6.5,1.66,8.7,2.36c1.21.31,2.38.76,3.49,1.33Z"/>
    <path class="cls-8" d="M195.84,690.76c.06-1.36.25-2.7.56-4.02.45-2.47,1.18-5.86,2.14-9.6s1.99-7.01,2.74-9.39c.37-1.3.87-2.57,1.48-3.77-.23,1.33-.56,2.65-1,3.92-.67,2.41-1.62,5.74-2.58,9.43s-1.77,7.04-2.35,9.47c-.22,1.35-.56,2.67-1,3.97Z"/>
    <path class="cls-8" d="M228.91,661.83c-4.81-.14-9.62-.52-14.39-1.15-7.92-.85-14.34-1.69-14.31-1.88,4.81.14,9.62.53,14.39,1.17,7.93.84,14.34,1.67,14.31,1.87Z"/>
    <path class="cls-3" d="M224.19,739.99c0,.21-22.65.36-50.59.36s-50.6-.15-50.6-.36,22.65-.36,50.6-.36,50.59.16,50.59.36Z"/>
    <path class="cls-3" d="M208.44,769.15c0,.19-15.27.36-34.1.36s-34.08-.16-34.08-.36,15.26-.36,34.08-.36,34.1.15,34.1.36Z"/>
    <path class="cls-3" d="M207.84,773.32c0,.19-15,.36-33.49.36s-33.49-.16-33.49-.36,15-.36,33.49-.36,33.49.15,33.49.36Z"/>
    <path class="cls-3" d="M209.03,765.72c0,.19-15.79.36-35.26.36s-35.26-.16-35.26-.36,15.79-.37,35.26-.37,35.26.16,35.26.37Z"/>
  </g>
  <g id="freepik--Character--inject-2">
    <path class="cls-5" d="M810.21,382.09s-10.98-1.77-17.39,3.33c-5.78,4.52-9.42,11.23-10.06,18.54-.81,7.03-5.89,34.19-5.89,34.19l-9.93-13.43-10.98,9.6s9.25,44.32,17.92,47.3,18.11-6.75,20.35-8.51c2.24-1.76,15.97-91.03,15.97-91.03Z"/>
    <path class="cls-5" d="M806.45,381.81s-14.43,20.58-16.11,25.84-13.83,14.76-13.61,27.22c.11,5.68.62,11.35,1.52,16.96.53,3.19.47,6.44-.18,9.6l-5.64,27.17c2.83,4.12,7.36,6.76,12.35,7.16,8.84.96,31.37,6.27,46.32,0l10.76-5.26v-42.03l7.4-17.19,21.08-34.15s-10.76-7.45-20.8-10.66c-10.44-3.39-27.51-3.69-43.09-4.67Z"/>
    <path class="cls-8" d="M773.6,483.18c.01-.32.06-.64.14-.95l.49-2.74c.47-2.41,1.13-5.78,1.93-9.91.36-2.1,1.04-4.34,1.37-6.86.1-.62.19-1.23.29-1.88s.11-1.29.18-1.95c.11-1.37.14-2.74.1-4.12-.14-2.92-.63-5.81-1.45-8.62-1.05-3.02-1.59-6.2-1.62-9.4.23-3.2,1.04-6.33,2.37-9.25,1.17-2.71,2.55-5.33,4.12-7.83,2.99-4.8,6-8.89,8.48-12.35l5.9-8.23,1.61-2.22c.17-.27.37-.53.6-.75-.14.29-.3.56-.49.82-.37.59-.88,1.37-1.5,2.31-1.37,1.98-3.28,4.82-5.74,8.23-2.46,3.42-5.41,7.6-8.34,12.35-1.55,2.49-2.93,5.09-4.12,7.78-1.29,2.85-2.06,5.9-2.29,9.01.03,3.13.56,6.24,1.58,9.21.81,2.86,1.27,5.8,1.37,8.77.03,1.37-.02,2.75-.14,4.12,0,.66-.12,1.37-.18,1.98s-.22,1.26-.32,1.89c-.37,2.48-1.08,4.72-1.47,6.86-.89,4.12-1.63,7.45-2.15,9.85-.26,1.11-.47,1.99-.62,2.68.01.41-.03.81-.11,1.21Z"/>
    <path class="cls-5" d="M863.39,392.77s26.28,9.4,16.3,42.17c-7.94,26.07-24.26,57.23-34.59,57.85-5.37.32-11.21.12-14.85-2.74-14.78-11.65-23.81-42.85-23.81-42.85l14.12-15.79,17.14,25.38c1.92-.84,13.32-35.96,13.32-35.96,0,0,8.23-26.95,12.36-28.05Z"/>
    <path class="cls-8" d="M850.9,423.74c-.05.22-.11.43-.19.63l-.62,1.81-2.47,6.86c-2.18,5.89-5.27,14.2-8.96,24.12l-.21.56-.34-.49c-5.05-7.48-10.98-16.14-17.17-25.36h.55l-1.73,1.77-13.04,13.32.08-.34c1.91,6.38,4.2,12.64,6.86,18.74,2.12,4.83,4.67,9.45,7.62,13.82,1.95,2.86,4.09,5.58,6.42,8.14l1.93,2c.23.22.45.46.64.71-.26-.19-.5-.4-.73-.63l-2.02-1.92c-2.41-2.51-4.62-5.2-6.61-8.05-3.02-4.35-5.63-8.98-7.79-13.82-2.7-6.11-5.02-12.38-6.94-18.78v-.21l.15-.14c4.12-4.12,8.47-8.69,13.02-13.34l1.73-1.78.32-.32.23.37c6.23,9.23,12.06,17.92,17.1,25.4l-.55.07c3.77-9.89,6.94-18.17,9.19-24.04,1.11-2.85,2-5.12,2.62-6.72.3-.74.54-1.37.73-1.77.04-.21.09-.42.16-.62Z"/>
    <path class="cls-5" d="M786.98,767.84l1.76,26.7s-26.55,10.74-26.7,15.71l51.88-1.54-1.02-41.71-25.92.84Z"/>
    <path class="cls-2" d="M804.7,791.83c1.05.28,1.71,1.3,1.54,2.37-.24,1.05-1.27,1.73-2.33,1.54-1.11-.3-1.81-1.39-1.62-2.52.36-1.09,1.52-1.7,2.62-1.37"/>
    <path class="cls-8" d="M813.99,810.59l-.11-4.79-49.89,1.8s-2.28,1.07-1.96,2.74l51.96.25Z"/>
    <path class="cls-8" d="M787.88,794.31c0,.25,1.29.33,2.55,1.1s1.98,1.82,2.21,1.72-.19-1.55-1.76-2.47-3.06-.54-3-.34Z"/>
    <path class="cls-8" d="M782.5,796.71c0,.25,1.07.64,1.96,1.7s1.17,2.17,1.37,2.15.37-1.45-.77-2.74c-1.14-1.29-2.57-1.34-2.57-1.11Z"/>
    <path class="cls-8" d="M779.61,803.33c.23,0,.55-1.23-.14-2.61s-1.89-1.88-2-1.66.66.93,1.21,2.06.69,2.18.93,2.21Z"/>
    <path class="cls-8" d="M788.16,788.18c.11.23,1.26-.15,2.74-.1s2.57.47,2.74.25-.97-1.1-2.66-1.14c-1.69-.04-2.95.8-2.83.99Z"/>
    <path class="cls-5" d="M834.78,768.37l1.52,26.72s-26.63,10.51-26.84,15.51l51.91-1.1-.67-41.71-25.92.59Z"/>
    <path class="cls-2" d="M852.3,792.49c1.04.29,1.7,1.32,1.52,2.39-.25,1.06-1.29,1.73-2.36,1.52-1.1-.31-1.79-1.41-1.59-2.54.38-1.07,1.55-1.65,2.63-1.3"/>
    <path class="cls-8" d="M861.43,810.59v-4.12l-49.9,1.37s-2.29,1.06-2,2.74h51.91Z"/>
    <path class="cls-8" d="M835.47,794.83c0,.25,1.28.34,2.54,1.13s1.95,1.84,2.18,1.74-.18-1.56-1.72-2.5c-1.54-.93-3.07-.6-3-.37Z"/>
    <path class="cls-8" d="M830.06,797.19c0,.25,1.06.66,1.95,1.72s1.15,2.18,1.37,2.17.38-1.45-.74-2.74c-1.13-1.29-2.58-1.37-2.58-1.14Z"/>
    <path class="cls-8" d="M827.11,803.73c.23,0,.56-1.23-.12-2.61s-1.88-1.89-1.98-1.69.64.95,1.18,2.09.67,2.21.92,2.21Z"/>
    <path class="cls-8" d="M835.8,788.7c.11.23,1.26-.14,2.74-.07s2.57.49,2.74.27-.96-1.11-2.65-1.17c-1.69-.05-2.98.77-2.84.96Z"/>
    <path class="cls-8" d="M842.71,489.6s13.21,13.87,20.16,30.94c6.94,17.07,3.95,99.32,3.95,99.32l-1.45,43.1s2.1,37.05.49,63.46c-1.61,26.41-3.4,55.68-3.4,55.68l-28.81,1.37-30.64-223.99,7.64,103.29c4.87,26.35,4.29,72.82,3.35,120.65h-30.52s-10.51-71.5-12.91-88.49c-2.74-19.21-10.7-71.98-10.7-71.98,0,0-6.15-50.52-4.01-77.73,2.14-27.21,18.35-65.26,18.88-66.86l65.18,11.73"/>
    <path class="cls-3" d="M846.03,482.36l7.64,20.35s56.83,79.27,55.17,85.88c-1.66,6.61-32.62,32.2-41.7,28.07s-32.62-21.06-40.46-37.97-30.19-64.41-30.19-64.41l-7.01-13.21,7.83-5.37,48.71-13.35Z"/>
    <path class="cls-3" d="M774.23,479.53h0c6.86,3.69,6.15,15.24,13.04,18.94-11.5,16.1-15.42,36.35-16.99,56.05-1.56,19.7-1.08,39.67-5.04,59l-14.26-1c-2.41-38.11,1.7-76.35,12.16-113.08,2.1-7.41,5.9-14.22,11.09-19.91Z"/>
    <path class="cls-8" d="M829.77,512.83c1.22-.14,2.43-.42,3.6-.82,2.84-.85,5.63-1.86,8.36-3.03,2.73-1.17,5.39-2.5,7.96-3.99,1.1-.56,2.13-1.24,3.07-2.03-1.15.44-2.25.97-3.31,1.59-2.02,1.04-4.83,2.41-8,3.79s-6.11,2.44-8.23,3.2c-1.18.34-2.33.78-3.44,1.3Z"/>
    <g class="cls-12">
      <path class="cls-1" d="M866.66,573.21l1.37.1c-9.84,9.78-24.68,12.51-37.35,6.86-4.12-1.96-8.23-5.57-8.12-10.17,14.15,4.99,29.38,6.1,44.1,3.21Z"/>
    </g>
    <path class="cls-3" d="M795.7,501.1c5.31-.97,15.51,1.81,19.21,5.71,3.7,3.9,5.97,8.97,7.81,14.05,3.99,10.98,6.86,23.19,15.48,31.08,8.14,7.42,19.7,9.4,30.58,11.07.29,4.02.25,8.81-3.06,11.11-1.01.64-2.12,1.11-3.28,1.37-3.24.89-6.55,1.47-9.89,1.74-15.49,1.28-31.9-4.95-41-17.56-11.5-15.94-12.35-35.11-18.92-53.66"/>
    <path class="cls-8" d="M792.73,505.97c.04.2.09.4.16.59l.52,1.69c.48,1.48,1.13,3.69,1.89,6.56s1.65,6.38,2.63,10.47,2.11,8.77,3.68,13.84c1.64,5.58,3.91,10.94,6.78,16,1.6,2.82,3.48,5.47,5.63,7.9,2.3,2.57,4.91,4.83,7.78,6.74,6.19,4.05,13.24,6.63,20.58,7.53,3.88.49,7.8.53,11.69.12,1.99-.22,3.96-.54,5.91-.97.98-.22,1.95-.47,2.92-.74,1.01-.26,1.98-.66,2.88-1.19.93-.61,1.69-1.45,2.22-2.43.5-.95.85-1.97,1.02-3.03.31-2.02.36-4.06.15-6.09v-.29h-.27c-7.29-1.11-14.39-2.32-20.75-4.98-3.11-1.26-6.01-2.97-8.62-5.09-2.46-2.06-4.59-4.48-6.33-7.18-3.07-5.06-5.52-10.47-7.29-16.12-1.57-4.93-3.4-9.77-5.49-14.5-.96-2.04-2.12-3.98-3.46-5.79-.63-.83-1.3-1.62-2.03-2.36-.7-.68-1.48-1.28-2.32-1.78-2.77-1.6-5.79-2.74-8.93-3.36-1.96-.44-3.97-.65-5.98-.62-.7.01-1.39.1-2.07.26,0,0,.7-.11,2.07-.12,2,.02,3.98.27,5.93.73,3.1.67,6.07,1.82,8.8,3.43.81.5,1.56,1.09,2.24,1.76.7.74,1.36,1.51,1.96,2.33,1.31,1.8,2.44,3.72,3.38,5.74,2.04,4.72,3.81,9.56,5.32,14.48,1.77,5.71,4.22,11.18,7.31,16.29,1.76,2.76,3.93,5.23,6.44,7.34,2.64,2.16,5.6,3.92,8.77,5.2,6.45,2.74,13.61,3.94,20.9,5.06l-.3-.33c.19,1.97.15,3.96-.14,5.93-.23,2-1.3,3.81-2.94,4.98-1.76.89-3.64,1.52-5.58,1.85-1.93.42-3.87.74-5.83.96-3.83.4-7.7.37-11.53-.11-7.26-.88-14.22-3.4-20.35-7.38-2.82-1.87-5.4-4.1-7.67-6.61-2.13-2.4-4-5.01-5.58-7.79-2.89-5-5.19-10.32-6.86-15.85-1.59-5.05-2.74-9.7-3.77-13.72-1.03-4.02-1.92-7.62-2.74-10.46-.82-2.84-1.51-5.06-2.03-6.53-.25-.71-.45-1.26-.59-1.67-.01-.22-.05-.44-.11-.66Z"/>
    <path class="cls-8" d="M856.68,576.5c-1.88-5.08-1.29-10.74,1.59-15.33-.64.5-1.15,1.15-1.5,1.88-.98,1.68-1.58,3.55-1.78,5.49-.2,1.95,0,3.91.6,5.78.19.8.56,1.55,1.08,2.18Z"/>
    <path class="cls-8" d="M856.28,566.61c1.99.49,4.03.75,6.08.77,2.03.23,4.09.23,6.12,0-4.02-.73-8.11-1.01-12.2-.82v.05Z"/>
    <path class="cls-8" d="M855.14,571.04c2.08.4,4.2.57,6.31.49,2.11.16,4.23.08,6.33-.22-2.08-.4-4.2-.57-6.31-.49-2.11-.16-4.23-.08-6.33.22Z"/>
    <path class="cls-3" d="M782.64,504.6c-9.51,8.59-13.06,22.21-12.72,35.02.34,12.8,4.12,25.26,6.86,37.75,2.74,12.49,4.87,25.6,1.8,38.05l12.2,1.76c10.03-10.76,14.95-25.32,13.52-39.96-1.25-11.95-6.67-22.98-10.57-34.3-3.9-11.32-6.19-24.18-1.29-35.15"/>
    <path class="cls-8" d="M792.51,507.66c-.1.17-.19.35-.26.54l-.67,1.61c-.75,2.1-1.3,4.27-1.63,6.48-.47,3.51-.51,7.07-.11,10.59.54,4.66,1.54,9.26,2.99,13.72,1.56,4.98,3.68,10.29,5.82,16.04,2.41,6.07,4.14,12.38,5.19,18.83.97,7.17.38,14.46-1.74,21.38-2.24,7.47-6.18,14.32-11.5,20.02l.32-.11-6-.86-6.2-.88.29.43c1.71-7.66,2.02-15.56.91-23.33-1.01-7.19-2.44-14.31-4.28-21.34-1.65-6.71-3.21-13.08-4.2-19.11-.98-5.57-1.38-11.23-1.19-16.89.21-8.22,2.55-16.25,6.78-23.3,1.18-1.87,2.53-3.63,4.03-5.26.51-.54.92-.93,1.21-1.23.15-.13.28-.28.4-.44l-.44.38-1.28,1.19c-1.54,1.6-2.92,3.34-4.12,5.2-4.34,7.03-6.76,15.07-7.03,23.33-.23,5.69.14,11.4,1.11,17.01.96,6.06,2.51,12.46,4.12,19.21,1.81,7,3.22,14.1,4.21,21.27,1.1,7.71.79,15.55-.91,23.15l-.1.38h.38l6.22.88,5.98.86h.19l.12-.14c5.39-5.78,9.37-12.73,11.64-20.29,2.13-7.01,2.72-14.41,1.72-21.67-1.06-6.49-2.83-12.84-5.28-18.94-2.17-5.75-4.31-11.05-5.9-16-1.46-4.43-2.48-9-3.06-13.63-.42-3.49-.42-7.02,0-10.51.3-2.2.8-4.37,1.5-6.48l.6-1.62c.12-.27.18-.48.18-.48Z"/>
    <path class="cls-8" d="M780.64,605.55c2.84-.16,5.69-.12,8.52.14,2.79.5,5.54,1.2,8.23,2.1-.67-.53-1.42-.94-2.24-1.21-1.9-.78-3.89-1.32-5.93-1.59-2.04-.26-4.1-.26-6.13,0-.85.03-1.68.22-2.46.56Z"/>
    <path class="cls-8" d="M787.74,616.79c1.15-1.48,2.11-3.11,2.85-4.83.96-1.61,1.71-3.34,2.24-5.15-1.15,1.48-2.11,3.1-2.85,4.82-.96,1.62-1.71,3.35-2.24,5.16Z"/>
    <path class="cls-8" d="M781.36,615.88c1.97-3.35,3.52-6.93,4.61-10.66-1.96,3.36-3.5,6.94-4.61,10.66Z"/>
    <path class="cls-8" d="M798.87,500.57c.08,0,.29-.27.38-.82.21-1.48-.43-2.95-1.65-3.81-.48-.3-.82-.36-.86-.27s1,.85,1.58,2.24c.27.87.45,1.77.55,2.68Z"/>
    <path class="cls-3" d="M783.01,497.59c1.65-2.59,5.49-3.46,8.59-3.83,3.89-.14,7.24,2.72,7.71,6.59.23,3.87-2.26,7.38-6,8.42-3.75.88-7.66-.65-9.81-3.84-1.55-2.15-1.74-5-.49-7.34Z"/>
    <path class="cls-8" d="M789.86,495.2c-.72.47-1.28,1.14-1.63,1.92-2.08,3.82-.8,8.61,2.92,10.87.69.51,1.51.8,2.36.85,0-.11-.88-.38-2.09-1.26-3.28-2.29-4.44-6.61-2.74-10.24.6-1.36,1.3-2.06,1.18-2.14Z"/>
    <path class="cls-8" d="M783.78,496.61c-.07,0-.54.37-.99,1.28-.56,1.2-.77,2.54-.63,3.86.12,1.31.59,2.56,1.37,3.62.63.8,1.18,1.11,1.23,1.06s-.34-.54-.82-1.37c-.61-1.05-1-2.22-1.14-3.43-.12-1.21.02-2.43.4-3.58.36-.85.67-1.36.58-1.43Z"/>
    <g class="cls-12">
      <path class="cls-1" d="M782.85,504.6c2.36,2.65,5.72,4.18,9.26,4.23-.97,1.82-2.75,3.05-4.79,3.32-2.71.18-5.05-1.86-5.24-4.57-.07-1.05.2-2.09.76-2.98Z"/>
    </g>
    <g class="cls-12">
      <path class="cls-1" d="M826.26,516.48c1.4-1.43,3.16-2.46,5.09-2.96,7.07-2.55,14.7-6.86,21.76-9.47-6.45,5.72-13.43,12.46-20.83,16.88-1.78,1.07-4.12,2.09-5.82.88-1.7-1.21-1.47-3.77-.21-5.32Z"/>
    </g>
    <g class="cls-12">
      <path class="cls-1" d="M767.71,529.19c1.11-8.48,5.04-16.86,11.88-21.95-3.69,6.71-7.41,13.53-9.06,21.01-1.8,8.23-.48,13.45.34,21.82l-.8,4.12c-2.49-8.08-3.29-16.58-2.37-24.99Z"/>
    </g>
    <path class="cls-8" d="M830.08,522.35c.39-.12.76-.3,1.1-.54.69-.38,1.65-.97,2.81-1.74,3.05-2.01,5.96-4.22,8.73-6.61,2.77-2.39,5.38-4.95,7.82-7.67.93-1.06,1.66-1.92,2.14-2.54s.73-.97.69-1.02c-1.13,1.01-2.2,2.08-3.2,3.21-1.93,2-4.69,4.69-7.9,7.48s-6.28,5.1-8.55,6.74c-1.27.82-2.48,1.72-3.64,2.69Z"/>
    <path class="cls-8" d="M795.17,317.04c-2.06-3.66-.78-8.59,2.25-11.48,3.21-2.78,7.39-4.18,11.64-3.9,4.21.29,8.36,1.15,12.35,2.54,4.52-5.86,12.93-6.94,18.78-2.42,2.25,1.74,3.89,4.14,4.68,6.87,4.37-1.74,9.31.39,11.05,4.76.64,1.6.77,3.35.39,5.03l-17.84,8.97-15.7,38.42c-6.24,6.62-16.66,6.93-23.28.7-5.26-4.95-6.67-12.75-3.49-19.23-1.27-.87-2.38-1.94-3.31-3.17-3.54-1.52-6.32-4.38-7.74-7.96-2.72-7.63,2.28-17.14,10.21-19.11Z"/>
    <path class="cls-10" d="M817.3,386.4c.07-2.13.26-4.26.56-6.37,0,0-11.54-2.84-12.77-18.29-.6-7.68.74-20.09,2.17-30.19,1.29-9.11,8.23-19.87,17.28-18.19l27.92,9.41c2.74.51,3.53,2.92,3.25,5.71l.12,1.37-4.72,43.59-1.47,13.09c-.86,8.23-8.3,16.71-16.63,16.59h0c-8.6.1-15.65-6.79-15.75-15.39,0-.44,0-.89.04-1.33Z"/>
    <path class="cls-8" d="M810.18,345.43c-.1,1.06.67,2,1.73,2.11,1.02.17,1.98-.52,2.14-1.54,0-.02,0-.04,0-.07.1-1.06-.67-2-1.73-2.11-1.02-.17-1.98.52-2.14,1.54,0,.02,0,.04,0,.07Z"/>
    <path class="cls-8" d="M809.82,339.76c.22.27,1.8-.7,3.9-.54s3.57,1.37,3.81,1.1-.08-.58-.73-1.13c-.86-.7-1.91-1.12-3.02-1.19-1.09-.09-2.19.17-3.13.74-.69.45-.95.89-.84,1.02Z"/>
    <path class="cls-8" d="M828.32,346.54c-.1,1.06.67,2,1.73,2.11,1.03.16,1.99-.54,2.15-1.57,0-.01,0-.03,0-.04.1-1.06-.67-2-1.73-2.13-1.03-.15-2,.56-2.15,1.6,0,0,0,.02,0,.02Z"/>
    <path class="cls-8" d="M829.97,340.93c.22.27,1.78-.71,3.9-.54,2.11.18,3.55,1.37,3.81,1.1s-.1-.58-.73-1.13c-.87-.7-1.92-1.11-3.03-1.19-1.09-.09-2.19.17-3.13.74-.69.45-.93.89-.82,1.02Z"/>
    <path class="cls-8" d="M821.27,355.24c-1.08-.44-2.22-.73-3.38-.88-.54-.1-1.03-.25-1.1-.62,0-.56.16-1.1.48-1.56.62-1.26,1.25-2.59,1.92-3.98,2.66-5.65,4.62-10.32,4.4-10.43s-2.58,4.39-5.24,10.06c-.64,1.37-1.26,2.74-1.84,3.99-.39.62-.55,1.36-.45,2.09.13.4.43.72.82.86.29.1.6.16.91.19,1.14.24,2.31.33,3.47.27Z"/>
    <path class="cls-7" d="M817.86,380.04c7.18.67,14.4-.66,20.86-3.86,0,0-6,10.37-21.14,7.75l.29-3.9Z"/>
    <path class="cls-8" d="M830.39,335.22c.21.56,2.32.27,4.8.56s4.49.93,4.8.41c.15-.25-.21-.78-1.02-1.37-1.08-.69-2.3-1.1-3.57-1.22-1.27-.14-2.56.02-3.76.47-.91.38-1.36.88-1.26,1.15Z"/>
    <path class="cls-8" d="M810.25,333.62c.4.51,2.15.15,4.21.29s3.79.62,4.23.15c.19-.23,0-.73-.77-1.25-1.01-.64-2.17-1-3.36-1.04-1.19-.09-2.38.16-3.44.7-.77.43-1.04.91-.86,1.15Z"/>
    <path class="cls-8" d="M844.72,313.73c-.43,5.77-5.45,10.11-11.23,9.68-.63-.05-1.26-.15-1.88-.31-2.29-.6-4.76-1.98-6.86-.89s-2.55,4.35-4.56,5.83c-2.87,2.14-6.98-.38-10.47.37-2.74.59-4.53,2.98-6.45,4.97-1.92,1.99-4.69,3.81-7.26,2.83.25-2.37.78-4.71,1.58-6.96.8-2.28,2.36-4.22,4.42-5.49,1.21-.5,2.38-1.07,3.53-1.7,2.32-1.61,3.06-4.64,4.6-7,2.04-3.09,5.45-5,9.15-5.13,3.03-.08,6.05,1.06,9.04.55,2.2-.38,4.2-1.65,6.42-1.89,4.32-.49,8.05,2.87,10.98,6.15"/>
    <path class="cls-8" d="M830.6,318.77c1.95-.4,5.96-1.37,7.11-2.92,2.37-3.48,6.42-5.42,10.62-5.08,4.22.66,7.52,4,8.11,8.23,5.07.57,9.43,3.86,11.35,8.59,1.96,4.93,1.38,10.51-1.56,14.93-.7,1.14-1.31,2.34-1.84,3.57,1.09,1.04,2.07,2.18,2.94,3.4,4.05,6.56-4.12,10.35-4.12,10.35.59,4.69-3.73,5.23-6.5,5.57s-3.36,7.93-5.49,7.93l-.85-23.08c-.3.17-.64.28-.99.32-5.2.77-5.13-9.29-3.76-12.06-1.82-1.73-3.41-3.68-4.73-5.8-1.4-3.32-1.94-6.95-1.58-10.54-1.88-.07-9.52-3.22-8.7-3.4Z"/>
    <path class="cls-10" d="M849.71,351.58c.25-2.45,2.44-4.24,4.89-3.99.7.07,1.38.31,1.97.69,1.48,1,2.52,2.9,2.13,6.33-1.07,9.17-10.06,6.2-10.03,5.93s.56-5.17,1.04-8.96Z"/>
    <path class="cls-7" d="M851.8,357.4s.15.14.4.29c.36.21.79.26,1.19.16,1.29-.63,2.15-1.9,2.25-3.33.11-.78.05-1.58-.18-2.33-.11-.6-.5-1.12-1.06-1.37-.37-.15-.79-.02-1,.32-.15.25-.11.44-.16.45s-.18-.18,0-.55c.08-.22.23-.41.43-.54.27-.16.6-.21.91-.12.75.24,1.32.85,1.51,1.61.29.84.38,1.74.25,2.62-.1,1.67-1.18,3.12-2.74,3.69-.5.06-1-.09-1.37-.43-.48-.25-.48-.45-.41-.47Z"/>
    <path class="cls-3" d="M800.51,345.43c0-.08-.88-.52-2.2-1.76-1.83-1.78-3.1-4.05-3.66-6.53-.41-1.7-.46-3.46-.16-5.19.34-1.96,1.21-3.79,2.51-5.3,3.09-3.47,7.79-5.04,12.35-4.12.44.08.84.23,1.26.36s.78.32,1.15.47l.59.23v-.6c-.12-1.07.14-2.15.74-3.05.6-.87,1.39-1.6,2.31-2.14,1.77-1.02,3.83-1.45,5.86-1.21,3.92.37,7.37,1.7,10.47,1.65,2.44.1,4.83-.71,6.7-2.28.48-.44.87-.97,1.17-1.55.1-.2.18-.41.23-.63-.42.74-.95,1.41-1.58,1.99-1.87,1.41-4.18,2.11-6.52,1.98-1.62-.09-3.23-.33-4.8-.73-1.84-.49-3.72-.85-5.61-1.07-1.05-.11-2.11-.08-3.16.1-1.1.2-2.15.59-3.11,1.15-1.02.59-1.89,1.39-2.55,2.36-.69,1.04-.99,2.29-.85,3.53l.51-.37c-.4-.16-.81-.36-1.23-.51-.45-.15-.91-.27-1.37-.37-4.81-.99-9.78.68-13.01,4.38-1.36,1.61-2.26,3.56-2.61,5.64-.67,4.46.92,8.97,4.24,12.02.53.47,1.11.88,1.73,1.22.2.13.4.24.62.33Z"/>
    <path class="cls-3" d="M798.21,313.97c.83-.61,1.76-1.07,2.74-1.37,1.12-.31,2.29-.36,3.43-.14,1.47.26,2.81,1,3.81,2.1l.41.44.14-.58c1.01-3.64,3.92-6.45,7.59-7.34,2.86-.49,5.8-.03,8.38,1.29,2.2,1.06,4.5,1.89,6.86,2.48,1.62.4,3.31.4,4.93,0,.43-.13.84-.31,1.23-.52.26-.16.4-.26.38-.27s-.59.26-1.7.52c-1.57.3-3.19.24-4.73-.16-2.31-.66-4.55-1.53-6.7-2.61-1.32-.59-2.7-1.05-4.12-1.37-1.55-.36-3.16-.36-4.71,0-3.93.95-7.02,3.98-8.04,7.89l.54-.14c-1.11-1.18-2.59-1.94-4.2-2.17-1.21-.2-2.46-.1-3.62.29-.74.24-1.44.62-2.06,1.1-.36.32-.58.54-.58.56Z"/>
    <path class="cls-7" d="M822.58,359.69c.59-.67,1.44-1.04,2.33-1.02,1,.07,1.93.57,2.54,1.37h0l.1.11h0c.24.28.38.64.4,1.02-.03.84-.48,1.61-1.19,2.04-1.1.78-2.58.78-3.68,0-1.06-.87-1.28-2.4-.49-3.53Z"/>
    <path class="cls-8" d="M828.03,357.97c-.12,0-.3.44-.75,1.08-1.15,1.71-3.25,2.52-5.26,2.03-.77-.16-1.22-.4-1.29-.29s.3.51,1.13.85c1.1.42,2.31.42,3.4,0,1.1-.43,2-1.26,2.51-2.32.38-.78.36-1.34.26-1.36Z"/>
    <path class="cls-8" d="M863.32,332.66s.15-.08.41-.3c.36-.32.71-.66,1.03-1.02,1.2-1.34,2.05-2.96,2.47-4.71.28-1.22.28-2.5,0-3.72-.31-1.42-1.02-2.71-2.04-3.73-1.16-1.15-2.73-1.78-4.36-1.76-1.77-.04-3.45.75-4.54,2.14l.43.23v-.11c1.19-3.11,1.09-6.56-.26-9.6-1.15-2.49-3.46-4.26-6.17-4.72-1.82-.23-3.66.3-5.09,1.45-.38.31-.72.67-1,1.07-.1.14-.17.29-.23.45.4-.51.86-.97,1.37-1.37,1.42-1.03,3.18-1.48,4.93-1.25,2.58.48,4.75,2.19,5.83,4.58,1.27,2.94,1.35,6.26.21,9.25v.1l-.47,1.37.88-1.21c1-1.25,2.52-1.98,4.12-1.96,1.5-.02,2.96.55,4.03,1.61.98.96,1.66,2.18,1.98,3.51.26,1.17.26,2.38,0,3.55-.38,1.71-1.17,3.31-2.29,4.65-.7,1-1.24,1.45-1.21,1.48Z"/>
    <path class="cls-8" d="M731.82,416.91l8.89,33.59c.47,1.88,2.18,3.17,4.12,3.11l46.05-.91c2.27,0,4.11-1.85,4.11-4.12,0-.31-.04-.61-.1-.91l-6.78-32.18c-.39-1.96-2.12-3.36-4.12-3.32h-48.52c-2.08-.01-3.77,1.66-3.78,3.74,0,.34.04.67.13.99Z"/>
    <path class="cls-10" d="M727.95,424.49c-.92-1.22-.92-2.9,0-4.12.98-1.18,2.42-1.86,3.95-1.87,1.51,0,3.01.31,4.4.91,1.74.67,3.41,1.51,4.98,2.5,1.2.57,2.1,1.62,2.48,2.9.22,1.3-1.19,2.74-2.33,2.13,1.63.68,2.83,2.11,3.22,3.83.23,1.65-.64,2.52-2.24,3,1.24.5,1.85,1.91,1.37,3.16-.75,1.19-2.26,1.66-3.55,1.08-1.23-.6-2.29-1.5-3.09-2.61.91,1.58,1.22,3.43.88,5.21-3.58-1.28-6.15-4.46-6.65-8.23-1.74-1.39-2.28-3.8-1.29-5.79-1.66-.73-2.77-2.31-2.9-4.12"/>
    <path class="cls-7" d="M742.37,433.73c-.53-.35-1.03-.74-1.51-1.17-1.17-.97-2.54-1.67-4.01-2.04-.8-.18-1.63-.18-2.43,0-.65.17-1.25.47-1.77.89-.47.41-.86.91-1.15,1.45,0,0,0-.19.12-.51.21-.44.5-.83.85-1.15.53-.49,1.17-.84,1.87-1.03.85-.2,1.74-.2,2.59,0,1.54.37,2.95,1.14,4.12,2.21.5.39.94.84,1.32,1.34Z"/>
    <path class="cls-7" d="M741.96,427.05c-.64-.19-1.26-.44-1.84-.77-.64-.32-1.29-.61-1.96-.86-.82-.28-1.67-.5-2.52-.64-.85-.16-1.72-.16-2.57,0-.68.13-1.33.41-1.89.82-.51.4-.93.91-1.23,1.48,0,0,0-.21.15-.54.21-.45.53-.85.92-1.17.58-.47,1.26-.8,1.99-.96.91-.18,1.84-.18,2.74,0,.88.16,1.74.39,2.58.7.67.27,1.33.59,1.96.95.58.29,1.14.62,1.67.99Z"/>
    <path class="cls-11" d="M762.11,428.42h.25c1.26.07,2.23,1.15,2.16,2.41s-1.15,2.23-2.41,2.16c-1.26-.07-2.23-1.15-2.16-2.41.06-1.17,1-2.1,2.16-2.16Z"/>
    <path class="cls-10" d="M806.86,416.86s-4.88-9.54-6.33-8.97-3.33.59-2.41,4.2,3.32,6.08,3.18,8.91-2.36,9.18.1,12.14c2.46,2.96,6.63,11.84,6.63,11.84l10.83-10.98-2.43-3.55s4.12-5.63,4.86-8.89c.39-2.64.25-5.32-.4-7.9.13-1.69-.28-3.37-1.18-4.8.16-1.45.23-2.92.21-4.38,0-2.21-5.74-11.31-5.74-11.31-1.64.64-2.49,2.45-1.93,4.12.61,1.93,1.36,3.81,2.24,5.63l-6.66-2.59c-.96,1.81-.27,4.05,1.54,5.01.08.04.17.09.26.12,3.53,1.91,4.12,3.51,4.12,3.51l-5.06.38s-.47,2.74,1.56,3.38l2.02.58-5.39,3.57Z"/>
    <path class="cls-7" d="M809.81,412.67l4.56.99h.07v.07c.64,1.25.95,2.64.89,4.05-.14,1.69-.85,3.27-2.02,4.5-1.34,1.2-2.87,2.17-4.51,2.9-1.3.61-2.48,1.45-3.47,2.5-.64.72-1.08,1.59-1.26,2.54-.12.67,0,1.06-.1,1.06s0-.08,0-.27c-.04-.27-.04-.54,0-.81.13-1.01.55-1.96,1.21-2.74.99-1.1,2.18-1.99,3.51-2.62,1.6-.74,3.09-1.7,4.42-2.85,1.12-1.16,1.83-2.65,2.02-4.25.06-1.35-.21-2.68-.8-3.9l.1.08c-1.57-.27-3.11-.68-4.61-1.22Z"/>
    <path class="cls-7" d="M819.8,413.23c-.07,0-.16-.43-.47-1.07-.42-.81-1.07-1.49-1.87-1.93-.82-.44-1.71-.75-2.62-.93-.39-.04-.77-.13-1.14-.27.39-.09.8-.09,1.19,0,.96.11,1.89.4,2.74.85.48.27.9.63,1.26,1.04.28.34.5.73.66,1.14.18.37.26.77.23,1.18Z"/>
    <path class="cls-7" d="M819.22,407.62c-.11,0-.86-1.22-2.17-2.48s-2.57-2-2.51-2.11c2.11.85,3.79,2.51,4.68,4.6h0Z"/>
  </g>
</svg>