<?xml version="1.0" encoding="UTF-8"?>
<svg id="Layer_2" data-name="Layer 2" xmlns="http://www.w3.org/2000/svg" viewBox="0 0 1000 1000">
  <defs>
    <style>
      .cls-1 {
        fill: #7d4336;
      }

      .cls-1, .cls-2, .cls-3, .cls-4, .cls-5, .cls-6, .cls-7, .cls-8, .cls-9, .cls-10, .cls-11, .cls-12, .cls-13, .cls-14, .cls-15, .cls-16 {
        stroke-width: 0px;
      }

      .cls-2 {
        isolation: isolate;
      }

      .cls-2, .cls-4 {
        fill: #000;
      }

      .cls-2, .cls-17 {
        opacity: .3;
      }

      .cls-3 {
        fill: #ff9a6c;
      }

      .cls-5 {
        fill: #455a64;
      }

      .cls-6 {
        fill: #f5f5f5;
      }

      .cls-7 {
        fill: #09f;
      }

      .cls-8 {
        fill: #ebebeb;
      }

      .cls-9 {
        fill: #ff9d64;
      }

      .cls-18 {
        opacity: .6;
      }

      .cls-10 {
        fill: #263238;
      }

      .cls-11 {
        fill: #ffbf9d;
      }

      .cls-12 {
        fill: #5b342f;
      }

      .cls-13 {
        fill: #824e44;
      }

      .cls-14 {
        fill: #c27461;
      }

      .cls-15 {
        fill: #fff;
      }

      .cls-16 {
        fill: #ffcfb4;
      }
    </style>
  </defs>
  <g id="freepik--background-complete--inject-2">
    <path class="cls-6" d="M716.03,439.28c-2.28-5.13-2.79-10.81-4.29-16.21-.81-2.88-2.16-5.97-4.87-7.26-1.8-.85-3.93-.72-5.84-1.34-6.86-2.05-8.72-11.62-15.22-14.6-2.1-.77-4.3-1.23-6.53-1.34-8.68-1.02-17.67-4.03-23.13-10.86-1.8-2.2-3.15-4.8-5.37-6.6s-5.69-2.56-7.85-.72c1.84,3.66,3.64,7.33,5.37,10.96,1.65,3.3,3.33,6.71,6.08,9.12s6.9,3.74,10.24,2.2c1.02-.71,2.21-1.13,3.45-1.21.89.19,1.69.7,2.23,1.44,4.74,5.23,3.19,13.93-1.42,19.28s-11.41,8.05-17.97,10.73c-2.35.93-4.84,1.88-7.34,1.44-4.55-.85-6.96-5.8-8.29-10.24-2.97-9.82-4.4-20.5-10.48-28.78-1.95-2.6-4.37-4.99-5.54-8.05-1.25-3.3-.95-7.15-2.94-10.05s-6.41-4.8-6.71-8.47c-.19-2.56,1.95-4.84,4.29-5.94s4.99-1.46,7.41-2.46c.95-.4,2.01-1.1,2.05-2.12,0-1.54-2.12-2.16-2.68-3.6s1.06-3.11,1.76-4.7c1.5-3.6-2.24-7.22-5.88-8.69s-7.96-2.52-9.63-6.05c-.62-1.69-1.02-3.44-1.18-5.23-.85-4.44-4.11-8.74-8.57-9.47s-9.5,3.27-8.78,7.74c.44,2.46,2.28,4.36,3.27,6.71.99,2.35.72,5.65-1.62,6.37-3.85,1.18-7.55-5.86-10.73-3.45,1.34,4.52,2.6,9.03,3.92,13.58-5.06,2.56-11.11-2.09-13.27-7.38s-2.24-11.26-4.8-16.32c-2.56-5.06-9.5-8.87-13.9-5.27-.21,6.52,8.4,9.16,12.21,14.44,2.75,3.82,2.35,10.02-1.72,12.44s-10.45-1.8-8.91-6.24c.55-1.54,1.82-2.82,1.97-4.47.15-2.05-1.57-3.7-3.15-5.03-2.46-2.08-4.91-4.13-7.37-6.19-1.5-1.45-3.29-2.57-5.25-3.3-5.06-1.48-10.12,2.68-12.8,7.14s-4.17,9.88-7.88,13.65c-5.37,5.5-15.4,5.84-20.4.08-4.99-5.76-2.46-16.54,4.91-18.64,2.79-.76,6.31-.7,7.78-3.15,2.56-4.36-4.78-9.93-2.24-14.33,1.95-3.38,7.07-1.84,10.81-2.98s5.8-4.87,8.05-8.05,5.58-6.41,9.39-5.57c-.3-2.24-.59-4.66.4-6.71s3.77-3.37,5.61-2.05c-1.87,3.09.36,7.38,3.64,8.91s7.07,1.18,10.73.78,8.05-1.76,8.4-5.37c.11-1.18-.34-2.43.11-3.53,1.57-4.28,9.5,1.62,12.55-1.82,1.76-1.8-.19-4.99-2.68-5.58s-4.95.3-7.45.38-5.54-1.21-5.65-3.7,2.68-4.23,2.94-6.71c.47-4.11-6.49-5.17-8.95-1.84s-1.58,7.93-.85,12,1.14,8.87-1.87,11.74c-1.34,1.93-4.63.91-5.73-1.14s-.87-4.55-1.06-6.86-1.21-4.99-3.49-5.61c-1.57-.44-3.26.32-4.87.55-6.39.76-10.81-7.49-8.8-13.57,2.01-6.08,7.77-10.05,13.42-13.18,4.11-2.27,9.19-4.4,13.27-2.08,1.91,1.06,3.22,2.88,5.1,4.03,3.22,1.92,7.22,1.22,10.92,1.34,5.87.17,11.51,2.36,15.95,6.2,1.65,1.5,3.19,4.03,1.91,5.8s-5.37,2.31-4.7,4.55c4.24,1.15,8.61-1.36,9.76-5.61.08-.29.14-.59.19-.89,2.13,1,3.58,3.03,3.82,5.37,4.66-4.74,13.61-4.03,17.44,1.42,1.02,1.44,1.76,3.17,3.22,4.15s4.03.48,4.23-1.25c.03-.55-.07-1.1-.3-1.61-.89-2.5-1.8-4.95-2.68-7.41,3.42-1.84,7.45,1.03,9.75,4.11,8.59,11.49,14.76,4.59,26.84,6.45,8.19,1.25,11.78,6.49,16.4,12.84,14.16,19.51,32.86,35.49,45.73,55.89,1.34,2.12,2.6,4.29,3.77,6.49-.21-.55-.4-1.1-.62-1.65-5.03-13.24-11.29-25.97-18.7-38.04-1.57-2.56-3.19-5.09-4.84-7.58-1.02-1.54-2.08-3.13-3.15-4.63-1.34-1.97-2.78-3.88-4.21-5.78-1.14-1.54-2.27-3.05-3.45-4.52-.81-1.02-1.65-2.05-2.5-3.07-.89-1.2-1.85-2.35-2.86-3.45l-3.07-3.56c-.31-.39-.64-.75-.99-1.1-1.07-1.25-2.2-2.46-3.34-3.66-.08-.15-.19-.28-.34-.38-.28-.32-.62-.66-.95-.99-.91-1.02-1.91-2.01-2.86-3.01-1.57-1.61-3.19-3.22-4.84-4.76-1.34-1.34-2.75-2.68-4.17-3.92s-2.5-2.28-3.78-3.38-2.48-2.16-3.77-3.22c-1.54-1.34-3.11-2.6-4.74-3.89h0c-4.44-3.56-9.03-6.94-13.73-10.09-1.17-.81-2.31-1.57-3.48-2.35s-2.39-1.53-3.56-2.27-2.39-1.5-3.6-2.2-2.43-1.46-3.64-2.16c-.99-.59-1.95-1.14-2.93-1.65-.48-.31-.99-.59-1.5-.85-2.09-1.18-4.23-2.31-6.35-3.38-1.06-.55-2.13-1.1-3.23-1.61-1.34-.7-2.75-1.34-4.15-1.97-.19-.13-.4-.23-.62-.3-1.25-.59-2.5-1.18-3.78-1.73-1.8-.76-3.58-1.53-5.37-2.27-2.05-.85-4.11-1.69-6.2-2.46-2.31-.89-4.63-1.73-6.96-2.5s-4.74-1.58-7.12-2.31-4.76-1.34-7.18-2.05c-4.78-1.29-9.61-2.43-14.49-3.42-.09-.02-.17-.04-.25-.07-1.87-.36-3.74-.74-5.61-1.02-.12-.04-.24-.07-.36-.08-.82-.15-1.65-.3-2.5-.4-3.49-.59-7-1.06-10.56-1.46-.44-.08-.89-.13-1.34-.15-1.03-.15-2.05-.23-3.11-.34-2.35-.21-4.7-.4-7.08-.55s-4.95-.3-7.45-.36-5.21-.15-7.81-.15c-6.9,0-13.72.3-20.46.91-1.61.11-3.19.25-4.76.44s-3.3.36-4.95.59-3.3.44-4.91.7-3.27.51-4.92.81c-1.34.21-2.82.47-4.21.76-3.45.65-6.86,1.39-10.22,2.2-1.58.36-3.15.78-4.74,1.21s-3.15.85-4.7,1.34c-2.6.74-5.13,1.54-7.66,2.35h0c-2.05.7-4.15,1.34-6.16,2.09-.05-.02-.1-.02-.15,0-2.09.74-4.11,1.5-6.16,2.31l-.34.12c-1.87.72-3.73,1.5-5.57,2.27-2.31.95-4.59,1.99-6.82,3.01-1.91.89-3.78,1.76-5.61,2.68s-4.03,1.97-5.9,3.01l-.23.11c-1.87.99-3.74,2.01-5.57,3.07s-3.88,2.21-5.7,3.44h0c-1.79,1.06-3.52,2.13-5.21,3.23-.66.4-1.34.85-1.95,1.34-1.84,1.18-3.6,2.39-5.37,3.64-2.2,1.5-4.32,3.07-6.45,4.66-1.86,1.4-3.69,2.81-5.5,4.25-10.39,8.21-20.05,17.3-28.89,27.16-3.11,3.45-6.05,6.96-8.91,10.56-2.42,3.09-4.76,6.2-7,9.39-2.01,2.8-3.96,5.65-5.84,8.56,1.88-2.9,3.82-5.75,5.84-8.56.59-.08,1.18-.15,1.76-.19,3.3-.25,6.79-.15,9.75-1.58,2.68-1.34,4.7-3.81,7.19-5.57,6.39-4.55,16.83-5.37,18.56-13.02.59-2.56-.11-5.37.85-7.81,1.8-4.59,7.92-5.25,12.83-5.18,2.09,0,4.55.3,5.5,2.13.53,1.38.46,2.93-.21,4.25-3.07,8.62-9.02,15.92-16.84,20.68-6.37,3.89-14.76,6.9-16.46,14.16.89,2.46,5.37,2.28,5.73,4.84.25,2.05-2.39,3.11-3.34,4.95-1.34,2.68,1.8,5.94,4.84,5.8s5.57-2.35,7.81-4.4c6.71-6.2,13.67-12.87,16.1-21.67,1.02-3.64,1.34-7.89,4.32-10.31,3.49-2.87,9.71-.89,10.9,3.48,2.9-1.61,7.41-2.82,8.91.19.34,1.12.54,2.28.62,3.45.95,4.7,7.38,6.82,8.05,11.55.76,5.46-6.24,8.28-11.7,9.12-4.95.78-9.9,1.54-14.85,2.35-2.18.16-4.29.84-6.16,1.99-1.76,1.34-2.86,3.81-1.84,5.76.74,1,1.61,1.9,2.58,2.68,4.11,4.11.72,12.57-5.06,12.76-1.99,0-3.93-.66-5.9-.74-5.88-.25-10.53,4.91-13.32,10.09-2.79,5.18-4.87,11.07-9.57,14.59-7.55,5.69-20.57,4.37-24.23,13.1-1.48,3.52-.7,7.49-.12,11.26s.85,7.92-1.34,11.04-7.81,3.74-9.39.3c-.55-1.57-.63-3.27-.21-4.88.89-5.42,1.75-10.85,2.56-16.28.62-4.03,1.17-8.55-1.21-11.85-3.34-4.62-10.83-4.19-15.15-.48s-6.09,9.5-7.3,15.04c-.89,4.11-1.91,9.9-4.19,14.6h0c-.76,4.55-1.34,9.16-1.87,13.82s-.81,9.5-.99,14.34c.66-.55,1.29-1.14,1.88-1.77,2.31-2.38,6.96-12.47,11.14-7.51,1.07,1.33,1.1,3.22.08,4.59-1.34,1.65-3.85,2.01-4.84,3.81-1.21,2.13.48,4.76,2.46,6.16s4.4,2.31,5.8,4.33c2.68,3.85.11,9.67,2.68,13.61,2.24,3.37,7,3.58,11.08,4.03l1.34.23c1.13-8.05,4.91-14.64,15.91-17.13,15.18-3.45,35.13,9.14,43.68,20.58,9.53,12.79,14.05,30.86,28.63,37.33,10.45,4.58,25.31,2.93,30.41,13.16,4.55,9.16-3.37,19.47-4.59,29.63-.76,6.71,1.44,13.42,1.95,20.13.51,6.71-1.5,14.6-7.62,17.44-3.41,1.54-7.7,1.34-10.45,3.93-4.88,4.62-.89,14.16-5.76,18.79-1.73,1.61-4.11,2.2-6.2,3.26-10.96,5.54-10.73,21.67-5.58,32.86.19.4.38.76.55,1.17,35.92,21.48,77,32.82,118.86,32.82,37.9.05,75.23-9.25,108.69-27.06h0c25.45-13.56,48.14-31.77,66.89-53.67,3.89-4.48,7.55-9.14,11.08-13.9,1.8-2.46,3.56-4.91,5.21-7.45,20.04-29.47,32.97-63.18,37.79-98.49.7-5.21,1.25-10.49,1.61-15.81-2.44,2.55-5.78,4.04-9.31,4.15-5.6-.12-10.17-4.78-12.43-9.92Z"/>
    <path class="cls-8" d="M451.2,258.66c-4.59,2.68-7.03,7.93-10.57,11.94s-9.89,6.86-14.08,3.53c-1.92-1.76-3.05-4.22-3.14-6.83-.32-3.71.55-7.43,2.5-10.61,2-3.25,5.05-5.81,6.71-9.23s1.34-8.43-2.12-10.04c-1.88-.87-4.23-.52-5.89-1.76-2.99-2.2-.86-7.39,2.62-8.71s7.33-.3,11.03,0c13.42.86,23.31-7.93,33.4-15.24,7.89-5.8,24.61-12.51,33.72-6.66,3.62,2.32,5.05,8.28,1.62,10.9-1.53,1.17-3.64,1.42-5.06,2.68-1.7,1.56-1.95,4.11-2.93,6.2-2.55,5.37-9.88,7.41-12.24,12.93-1.42,3.31-.78,7.45-2.97,10.32-1.74,2.28-4.75,3.09-7.54,3.74l-17.51,4.17c-2.64.5-5.19,1.39-7.55,2.66Z"/>
    <path class="cls-8" d="M607.8,543.9c-5.81,8.75-6.87,19.7-8.48,30.08-1.61,10.39-4.39,21.47-12.37,28.26s-22.64,6.44-27.02-3.11c-2.39-5.18-1.15-11.3-2.46-16.85-1.69-7.23-7.46-12.81-10.18-19.72-2.33-5.9-2.35-12.41-2.54-18.79-1.03-34.63-9.49-70.78-33.06-96.15-2.88-3.13-6.19-6.16-10.29-7.26-5.03-1.21-10.3.63-13.47,4.71-1.89,2.51-2.87,5.7-5.19,7.82-5.03,4.6-13.83,1.34-17.2-4.63s-2.9-13.22-2.33-20.01l2.09-25.29c.36-4.41.86-9.15,3.76-12.49,4.12-4.76,11.5-4.98,16.53-8.76,6.6-4.94,7.49-14.37,11.65-21.47,4.16-7.1,17.19-10.13,19.12-2.11,13.78-29.52,44.28,14.32,62.34,11.03,5.26-.97,10.4-3.49,15.7-2.68,9.39,1.34,14.17,11.61,17.36,20.5l15.83,44.28c2.01,5.62,4.62,11.87,10.17,14.02,4.27,1.66,9.23.4,13.53,1.96,11.37,4.13,7.68,22.02-1.48,29.94s-21.98,12.91-26.33,24.15c-3.27,8.51-.67,18.46-4.19,26.84-2.55,5.96-7.92,10.31-11.49,15.74Z"/>
    <path class="cls-8" d="M650.94,553.52c-3.73.52-8.14-1.34-10.98,1.15-1.66,1.45-2.03,3.82-2.68,5.93-.83,2.98-2.71,5.55-5.3,7.23-2.66,1.65-6.03,1.59-8.63-.16-2.51-1.92-3.03-5.48-1.19-8.05,1.03-.95,2.11-1.85,3.23-2.68,4.95-4.7,1.56-13.42,5.37-18.95,2.23-3.29,5.72-6.62,8.16-9.94,1.88-2.56,2.56-4.59,6.02-5.27,15.06-2.88,21.88,28.51,6,30.74Z"/>
    <g class="cls-18">
      <path class="cls-10" d="M377.55,622.17c1.95,1.34,3.92,2.6,5.92,3.85,1.34.89,2.79,1.73,4.21,2.56-1.42-.83-2.82-1.68-4.21-2.56-2-1.25-3.97-2.52-5.92-3.85Z"/>
    </g>
    <g class="cls-18">
      <path class="cls-10" d="M275.06,420.07h0c0,.44-.07.85-.07,1.34,0,1.34,0,2.78-.08,4.19,0-1.41,0-2.8.08-4.19,0-.5.04-.9.07-1.34Z"/>
    </g>
    <path class="cls-8" d="M305.1,490.63c-.74-6.64,1.46-13.28,1.57-19.99.08-4.62-.25-9.5-.32-14.16-3.97-.17-7.92-.72-11.78-1.65-.83-.09-1.6-.48-2.16-1.1-.4-.75-.57-1.61-.48-2.46-.28-5.21-5.37-8.65-9.82-11.26-2.26-1.41-4.65-2.59-7.15-3.52v1.61c.88,25.15,5.87,49.99,14.76,73.53,3.96,10.46,8.69,20.61,14.16,30.37,2.28,4.21,4.78,8.36,7.38,12.43,3.22,5.03,6.6,9.94,10.22,14.67,3.38,4.55,6.98,8.99,10.73,13.24,5.17,5.9,10.65,11.53,16.4,16.87,5.1,4.78,10.42,9.3,15.95,13.57-12.65-33.95-24.58-68.61-46.21-97.51-5.66-7.55-12.18-15.26-13.24-24.64Z"/>
    <path class="cls-8" d="M306.78,447.51l-1.34-.23c-4.03-.44-8.84-.66-11.08-4.03-2.6-3.93,0-9.75-2.68-13.61-1.34-2.03-3.81-2.9-5.8-4.33s-3.66-4.03-2.46-6.16c.99-1.8,3.56-2.16,4.84-3.81,1.02-1.37.99-3.26-.08-4.59-4.17-4.95-8.83,5.14-11.14,7.51-.59.63-1.22,1.22-1.88,1.77h0c0,.44-.07.85-.07,1.34,0,1.34,0,2.78-.08,4.19s-.07,2.78-.07,4.17v2.21c0,1.13.07,3.45.11,4.58,2.5.93,4.89,2.1,7.15,3.52,4.51,2.6,9.54,6.05,9.82,11.26-.08.85.09,1.7.48,2.46.57.61,1.33,1,2.16,1.1,3.87.93,7.81,1.48,11.78,1.65"/>
    <path class="cls-8" d="M306.35,456.49c0,4.66.4,9.54.32,14.16-.11,6.71-2.31,13.42-1.57,19.99,1.06,9.39,7.58,17.08,13.27,24.64,21.63,28.9,33.55,63.56,46.21,97.51h0c2.35,1.88,4.74,3.64,7.15,5.37,1.91,1.39,3.83,2.73,5.78,4.03s3.92,2.58,5.92,3.85c1.34.89,2.79,1.73,4.21,2.56-.17-.4-.36-.76-.55-1.17-5.09-11.19-5.37-27.32,5.58-32.86,2.09-1.06,4.47-1.65,6.2-3.26,4.87-4.62.87-14.16,5.76-18.79,2.75-2.58,7.04-2.39,10.45-3.93,6.12-2.82,8.05-10.73,7.62-17.44-.43-6.71-2.68-13.42-1.95-20.13,1.22-10.16,9.14-20.46,4.59-29.63-5.1-10.24-19.95-8.59-30.41-13.16-14.59-6.41-19.11-24.54-28.63-37.33-8.55-11.45-28.5-24.03-43.68-20.58-11,2.5-14.76,9.06-15.91,17.13"/>
    <path class="cls-8" d="M289.4,362.24c4.32-3.7,11.81-4.13,15.15.48,2.38,3.3,1.82,7.81,1.21,11.85-.84,5.42-1.7,10.85-2.56,16.28-.41,1.61-.34,3.31.21,4.88,1.61,3.45,7.26,2.78,9.39-.3s1.95-7.3,1.34-11.04-1.34-7.74.12-11.26c3.66-8.72,16.68-7.41,24.23-13.1,4.7-3.52,6.79-9.39,9.57-14.59s7.45-10.35,13.32-10.09c1.97.08,3.92.81,5.9.74,5.78-.19,9.16-8.65,5.06-12.76-.97-.78-1.83-1.69-2.58-2.68-1.02-1.95.08-4.44,1.84-5.76,1.87-1.14,3.98-1.82,6.16-1.99,4.95-.81,9.9-1.57,14.85-2.35,5.46-.85,12.47-3.66,11.7-9.12-.66-4.74-7.08-6.86-8.05-11.55-.07-1.17-.28-2.33-.62-3.45-1.5-3.01-6.01-1.8-8.91-.19-1.18-4.36-7.41-6.35-10.9-3.48-2.94,2.42-3.3,6.71-4.32,10.31-2.43,8.8-9.39,15.47-16.1,21.67-2.24,2.05-4.76,4.25-7.81,4.4s-6.24-3.11-4.84-5.8c.95-1.84,3.6-2.9,3.34-4.95-.38-2.56-4.84-2.39-5.73-4.84,1.76-7.26,10.09-10.26,16.46-14.16,7.82-4.75,13.77-12.05,16.84-20.68.67-1.32.75-2.87.21-4.25-.95-1.84-3.41-2.13-5.5-2.13-4.91,0-11.03.59-12.83,5.18-.95,2.46-.25,5.25-.85,7.81-1.73,7.62-12.17,8.47-18.56,13.02-2.5,1.76-4.44,4.21-7.19,5.57-2.97,1.44-6.45,1.34-9.75,1.58-.58,0-1.17.11-1.76.19-2.01,2.8-3.96,5.65-5.84,8.56-1.88,2.91-3.68,5.86-5.37,8.86-8.29,14.18-15.04,29.2-20.13,44.82-1.8,5.47-3.38,11.06-4.75,16.71s-2.54,11.41-3.5,17.22c2.28-4.7,3.3-10.49,4.19-14.6,1.23-5.5,3.03-11.3,7.33-15Z"/>
    <path class="cls-8" d="M737.75,444.97s-5.84,4.25-9.31,4.19c-5.58-.08-10.16-4.74-12.4-9.88s-2.79-10.81-4.29-16.21c-.81-2.88-2.16-5.97-4.87-7.26-1.8-.85-3.93-.72-5.84-1.34-6.86-2.05-8.72-11.62-15.22-14.6-2.1-.77-4.3-1.23-6.53-1.34-8.68-1.02-17.67-4.03-23.13-10.86-1.8-2.2-3.15-4.8-5.37-6.6s-5.69-2.56-7.85-.72c1.84,3.66,3.64,7.33,5.37,10.96,1.65,3.3,3.33,6.71,6.08,9.12s6.9,3.74,10.24,2.2c1.02-.71,2.21-1.13,3.45-1.21.89.19,1.69.7,2.23,1.44,4.74,5.23,3.19,13.93-1.42,19.28s-11.41,8.05-17.97,10.73c-2.35.93-4.84,1.88-7.34,1.44-4.55-.85-6.96-5.8-8.29-10.24-2.97-9.82-4.4-20.5-10.48-28.78-1.95-2.6-4.37-4.99-5.54-8.05-1.25-3.3-.95-7.15-2.94-10.05s-6.41-4.8-6.71-8.47c-.19-2.56,1.95-4.84,4.29-5.94s4.99-1.46,7.41-2.46c.95-.4,2.01-1.1,2.05-2.12,0-1.54-2.12-2.16-2.68-3.6s1.06-3.11,1.76-4.7c1.5-3.6-2.24-7.22-5.88-8.69s-7.96-2.52-9.63-6.05c-.62-1.69-1.02-3.44-1.18-5.23-.85-4.44-4.11-8.74-8.57-9.47s-9.5,3.27-8.78,7.74c.44,2.46,2.28,4.36,3.27,6.71.99,2.35.72,5.65-1.62,6.37-3.85,1.18-7.55-5.86-10.73-3.45,1.34,4.52,2.6,9.03,3.92,13.58-5.06,2.56-11.11-2.09-13.27-7.38s-2.24-11.26-4.8-16.32-9.5-8.87-13.9-5.27c-.21,6.52,8.4,9.16,12.21,14.44,2.75,3.82,2.35,10.02-1.72,12.44s-10.45-1.8-8.91-6.24c.55-1.54,1.82-2.82,1.97-4.47.15-2.05-1.57-3.7-3.15-5.03-2.46-2.08-4.91-4.13-7.37-6.19-1.5-1.45-3.29-2.57-5.25-3.3-5.06-1.48-10.12,2.68-12.8,7.14s-4.17,9.88-7.88,13.65c-5.37,5.5-15.4,5.84-20.4.08s-2.46-16.54,4.91-18.64c2.79-.76,6.31-.7,7.78-3.15,2.56-4.36-4.78-9.93-2.24-14.33,1.95-3.38,7.07-1.84,10.81-2.98s5.8-4.87,8.05-8.05,5.58-6.41,9.39-5.57c-.3-2.24-.59-4.66.4-6.71s3.77-3.37,5.61-2.05c-1.87,3.09.36,7.38,3.64,8.91s7.07,1.18,10.73.78,8.05-1.76,8.4-5.37c.11-1.18-.34-2.43.11-3.53,1.57-4.28,9.5,1.62,12.55-1.82,1.76-1.8-.19-4.99-2.68-5.58s-4.95.3-7.45.38-5.54-1.21-5.65-3.7,2.68-4.23,2.94-6.71c.47-4.11-6.49-5.17-8.95-1.84s-1.58,7.93-.85,12,1.14,8.87-1.87,11.74c-1.34,1.93-4.63.91-5.73-1.14s-.87-4.55-1.06-6.86-1.21-4.99-3.49-5.61c-1.57-.44-3.26.32-4.87.55-6.39.76-10.81-7.49-8.8-13.57s7.77-10.05,13.42-13.18c4.11-2.27,9.19-4.4,13.27-2.08,1.91,1.06,3.22,2.88,5.1,4.03,3.22,1.92,7.22,1.22,10.92,1.34,5.87.17,11.51,2.36,15.95,6.2,1.65,1.5,3.19,4.03,1.91,5.8s-5.37,2.31-4.7,4.55c4.24,1.14,8.61-1.38,9.75-5.62.08-.29.14-.58.18-.87,2.13,1,3.58,3.03,3.82,5.37,4.66-4.74,13.61-4.03,17.44,1.42,1.02,1.44,1.76,3.17,3.22,4.15s4.03.48,4.23-1.25c.03-.55-.07-1.1-.3-1.61-.89-2.5-1.8-4.95-2.68-7.41,3.42-1.84,7.45,1.03,9.75,4.11,8.59,11.49,14.76,4.59,26.84,6.45,8.19,1.25,11.78,6.49,16.4,12.84,14.16,19.51,32.86,35.49,45.73,55.89,1.34,2.12,2.6,4.29,3.77,6.49h0c1.1,2.94,2.15,5.89,3.11,8.87s1.91,5.97,2.76,8.99c2.29,7.47,4.14,15.06,5.56,22.74,0,0,1.61,13.11,2,17.44.3,3.27.58,6.53.76,9.84s.28,6.6.3,9.93l-.43,18.44Z"/>
    <path class="cls-6" d="M169.37,389.23c.9-6.48-8.25-11.82-15.14-12.37-3.27-.27-6.71.24-9.78-.85-6.71-2.35-9.39-11.04-15.98-13.81-4.91-2.08-10.56-.23-15.32,2.16s-9.39,5.37-14.76,5.76c-4.63.3-9.65-1.42-13.7.83-3.01,1.69-4.59,5.17-7.37,7.22s-6.27,2.43-9.65,2.6-6.86.23-9.93,1.62-5.61,4.66-4.98,7.97l116.6-1.14Z"/>
    <path class="cls-8" d="M306.67,259.23c.89-6.48-8.27-11.82-15.14-12.37-3.27-.27-6.71.24-9.8-.85-6.71-2.35-9.39-11.04-15.98-13.81-4.91-2.07-10.56-.23-15.31,2.16s-9.47,5.37-14.76,5.76c-4.62.3-9.65-1.42-13.69.83-3.02,1.69-4.6,5.17-7.38,7.22s-6.27,2.43-9.63,2.6-6.87.23-9.94,1.62-5.61,4.66-4.96,7.97l116.59-1.14Z"/>
    <path class="cls-6" d="M953.79,359.37c1.44-10.41-13.26-18.99-24.31-19.87-5.26-.43-10.73.38-15.73-1.34-10.81-3.76-15.14-17.73-25.68-22.18-7.89-3.33-16.97-.36-24.62,3.48-7.65,3.84-15.2,8.69-23.74,9.25-7.43.47-15.51-2.28-22.01,1.34-4.84,2.68-7.38,8.28-11.85,11.58s-10.08,3.9-15.5,4.2c-5.42.3-11.03.35-15.97,2.6s-9.02,7.49-8.05,12.81l187.45-1.87Z"/>
    <path class="cls-8" d="M814.94,258.93c.08-3.63-.95-7.2-2.97-10.22-1.86-3.04-4.62-5.42-7.9-6.8-5.79-2.29-12.39-.41-16.1,4.59-.72-1.9-1.86-3.61-3.33-5.02-2.77-2.61-6.48-3.98-10.28-3.78-3.55.3-6.92,1.7-9.62,4.03-2.86,2.24-4.96,5.3-6.02,8.78-1.27,4.45-1.08,9.19.55,13.53,1.99,4.45,5.01,8.35,8.82,11.39,6.13,5.18,14.24,11.73,14.24,11.73,0,0,8.45-4.44,15.89-7.43,4.56-1.69,8.66-4.45,11.94-8.05,2.93-3.61,4.61-8.07,4.79-12.72Z"/>
    <path class="cls-8" d="M208.63,310c-1.53-2.33-3.73-4.15-6.32-5.19-2.5-1.11-5.28-1.42-7.96-.87-2.82.69-5.24,2.48-6.71,4.98-.85,1.49-1.34,3.17-1.42,4.88-3.78-2.61-8.81-2.48-12.44.34-2.13,1.72-3.66,4.07-4.37,6.71-.84,2.66-.84,5.52,0,8.19,1.13,3.37,3.3,6.29,6.21,8.33,3.19,1.95,6.8,3.11,10.53,3.38,6.12.63,14.1,1.26,14.1,1.26,0,0,3.44-6.48,6.84-11.61,2.14-3.06,3.52-6.58,4.03-10.28.28-3.55-.6-7.1-2.5-10.12Z"/>
  </g>
  <g id="freepik--Table--inject-2">
    <path class="cls-10" d="M961.8,801.15c0,.19-206.77.35-461.77.35s-461.82-.16-461.82-.35,206.73-.35,461.82-.35,461.77.15,461.77.35Z"/>
  </g>
  <g id="freepik--speech-bubble--inject-2">
    <path class="cls-15" d="M530.12,336.5c24.93-4.62,41.39-28.58,36.76-53.5-4.62-24.93-28.58-41.39-53.5-36.76-24.93,4.62-41.39,28.58-36.76,53.5,3.67,19.78,19.79,34.87,39.78,37.22l7.9,11.98,5.82-12.44Z"/>
    <path class="cls-10" d="M530.12,336.5s-.11.31-.35.86-.62,1.34-1.07,2.43c-.98,2.15-2.4,5.25-4.21,9.25l-.15.34-.21-.31-8.02-11.96.2.13c-7.9-.89-15.44-3.82-21.87-8.49-1.85-1.35-3.61-2.83-5.25-4.43-1.69-1.71-3.25-3.53-4.68-5.45-3.08-4.09-5.44-8.68-6.98-13.57-7.55-23.84,5.17-49.37,28.75-57.7,9.8-3.47,20.48-3.5,30.3-.09,4.65,1.49,9.01,3.76,12.91,6.71,3.77,2.79,7.07,6.15,9.8,9.97l1.02,1.34c.31.48.59.98.87,1.46.56.98,1.18,1.92,1.69,2.9,1.95,3.87,3.39,7.97,4.29,12.21.19,1.03.32,2.08.47,3.1l.23,1.52.07,1.53c.25,3.91.02,7.84-.68,11.7-.72,3.54-1.83,6.99-3.31,10.28-2.58,5.7-6.25,10.83-10.81,15.11-3.45,3.16-7.37,5.78-11.62,7.76-2.68,1.25-5.47,2.22-8.35,2.9-.98.23-1.73.39-2.23.46-.26.05-.53.09-.79.11.24-.09.49-.15.74-.2.51-.11,1.27-.3,2.24-.55,2.83-.76,5.58-1.79,8.23-3.06,4.17-2.01,8.02-4.65,11.41-7.81,7.1-6.72,11.91-15.49,13.75-25.09.67-3.8.88-7.66.63-11.51l-.03-1.46-.23-1.49c-.16-1.01-.28-2.03-.47-3.03-.44-2.05-1.02-4.06-1.72-6.04-.72-2.05-1.59-4.05-2.59-5.98-.51-.97-1.11-1.89-1.66-2.84-.3-.47-.56-.97-.87-1.42l-.99-1.34c-2.69-3.73-5.94-7.02-9.63-9.75-3.81-2.94-8.09-5.2-12.65-6.71-9.61-3.23-20.03-3.11-29.56.34-23.06,8.16-35.55,33.1-28.26,56.45,1.48,4.81,3.79,9.32,6.8,13.35,1.4,1.89,2.93,3.69,4.58,5.37,1.6,1.58,3.31,3.05,5.13,4.39,6.31,4.63,13.7,7.56,21.47,8.52h.13l.08.11c3.03,4.67,5.68,8.74,7.84,12.08h-.36l4.44-9.23,1.15-2.35c.12-.26.26-.52.42-.76Z"/>
    <path class="cls-7" d="M539.95,286.42c-.23-2.32-1.16-4.51-2.68-6.27-1.41-1.79-3.34-3.09-5.53-3.72-3.83-1.01-7.87.68-9.84,4.12-1.77-3.38-5.53-5.23-9.29-4.56-2.23.45-4.26,1.59-5.81,3.26-1.65,1.63-2.75,3.74-3.15,6.02-.48,2.91,0,5.91,1.34,8.53,1.59,2.67,3.8,4.92,6.44,6.56,4.28,2.82,9.92,6.36,9.92,6.36,0,0,5.03-3.45,9.51-5.92,2.77-1.42,5.16-3.48,6.96-6.01,1.59-2.49,2.34-5.44,2.12-8.39Z"/>
  </g>
  <g id="freepik--Characters--inject-2">
    <polygon class="cls-10" points="305.24 800.99 312.76 745.67 473.22 738.02 484.52 801.15 305.24 800.99"/>
    <path class="cls-14" d="M455.59,571.55l48.13,53.42c7.94,8.82,13.69,16.84,25.11,20.06,8.05,2.25,24.85,3.19,29.1-2.07,5.84-7.21,9.39-19.67,1.34-35.34-5.37-10.21-52.04-51.91-52.04-51.91l-51.65,15.85"/>
    <path class="cls-7" d="M471.43,580.47c.28,2.68,12.87,28.9,12.87,28.9l41.33-26.96s-26.61-63.2-46.04-67.45l-8.16,65.51Z"/>
    <path class="cls-14" d="M542.2,506.8l.59-20.13-1.34-25.57-4.03-21.28s-1.07-2.08-3.76-.51-.36,13.19-.36,13.19l.43,8.74s-1.58,6.71-2.08,6.16-2.19-12.34-2.19-12.34l-4.88-25.31c-.73-1.62-2.61-2.39-4.27-1.74-1.73.54-2.86,3.06-2.68,6.8s1.84,10.08,2.01,12.21,1.58,14.44,1.58,14.44l-8.55-28.3s-1.58-9.22-5.37-7.89-1.27,7.93-1.1,10.73,5.69,22.18,5.22,27.55-1.34,2.68-1.34,2.68l-4.03-15.85c-1.74-6.99-4.39-11.04-7.42-11.55s1.03,15.69,1.03,15.69l5.13,22.64-1.27,7.21-5.05-6.48s-.15-8.49-5.45-12.08-6.71.43-6.71.43l9.89,32.89c2.35,5.37,17.51,15.83,17.51,15.83l2.68,32.97,33.68-.67-7.89-40.44Z"/>
    <path class="cls-1" d="M530.38,494.93c-.16.16-1.76-1.45-4.5-3.77s-6.96-5.37-12.32-5.1c-2.22.03-4.37.81-6.09,2.21l-.56.5-.5-.66c-2.16-2.84-4.47-5.37-5.85-7.12s-2.16-2.98-2.01-3.07c.98.74,1.88,1.58,2.68,2.51,2.25,2.21,4.39,4.54,6.41,6.96l-1.06-.16c1.93-1.68,4.39-2.63,6.95-2.68,2.74-.09,5.46.56,7.86,1.89,1.91,1.06,3.66,2.38,5.22,3.9,2.59,2.62,3.89,4.47,3.76,4.59Z"/>
    <polygon class="cls-14" points="521.64 621.61 514.5 519 543.03 510.06 563.74 621.61 521.64 621.61"/>
    <path class="cls-10" d="M459.85,387.18c6.28,1.08,12.25-3.14,13.32-9.42.92-5.39-2.06-10.69-7.15-12.69,4.89-4.48,5.23-12.07.75-16.97-2.55-2.79-6.26-4.21-10.02-3.84.12-7.94-6.21-14.47-14.14-14.59-2.36-.04-4.7.51-6.8,1.59-5.46-5.04-13.66-5.68-19.85-1.56-6.17-1.49-12.38,2.32-13.87,8.49-.89,3.69.1,7.57,2.64,10.39"/>
    <path class="cls-14" d="M461.3,451.47c.9-12.67.64-38.91.13-62.62-.56-25.5-20.61-46.31-46.08-47.81l-2.52-.15c-27.39,0-42.7,23.24-41.96,50.61l-4.21,105.43,16.6,14.92c12.78,11.56,32.51,10.57,44.06-2.21,1.72-1.9,3.2-4.01,4.4-6.27h0l1.27-23.17s26.43-2.48,28.3-28.73Z"/>
    <path class="cls-1" d="M433.18,480.22c-12.19-.7-23.91-4.9-33.79-12.08,0,0,6.98,19.36,33.29,18.54l.5-6.47Z"/>
    <path class="cls-10" d="M449.84,411.02c-.1,2.03-1.8,3.62-3.84,3.57-1.99.04-3.63-1.54-3.66-3.53,0-.03,0-.05,0-.08.1-2.03,1.8-3.62,3.84-3.57,1.99-.04,3.63,1.54,3.66,3.53,0,.03,0,.05,0,.08Z"/>
    <path class="cls-10" d="M455.04,401.4c-.5.46-3.21-1.81-7.23-2.04s-7.11,1.61-7.51,1.1c-.2-.23.32-1.09,1.66-1.95,1.82-1.11,3.93-1.63,6.05-1.49,2.1.12,4.1.9,5.73,2.23,1.18,1.03,1.54,1.93,1.3,2.15Z"/>
    <path class="cls-10" d="M412.85,411.02c-.1,2.03-1.8,3.62-3.84,3.57-1.98.04-3.62-1.52-3.66-3.5,0-.04,0-.07,0-.11.09-2.03,1.79-3.62,3.82-3.57,1.99-.04,3.63,1.53,3.68,3.51,0,.03,0,.06,0,.09Z"/>
    <path class="cls-10" d="M415.37,399.82c-.5.46-3.21-1.81-7.25-2.04s-7.1,1.61-7.5,1.1c-.21-.24.31-1.09,1.66-1.95,1.81-1.11,3.93-1.63,6.05-1.49,2.09.11,4.1.89,5.72,2.23,1.18,1.03,1.56,1.93,1.31,2.15Z"/>
    <path class="cls-10" d="M428.24,430.58c0-.23,2.52-.52,6.62-.79,1.03,0,2.03-.2,2.24-.89.14-1.06-.03-2.14-.51-3.1-.82-2.55-1.69-5.23-2.59-8.05-3.57-11.42-6.08-20.77-5.62-20.91s3.73,8.99,7.3,20.4c.89,2.82,1.71,5.5,2.44,8.05.57,1.27.67,2.69.3,4.03-.34.72-.99,1.24-1.77,1.41-.58.12-1.18.16-1.77.13-4.09.08-6.63-.05-6.63-.28Z"/>
    <path class="cls-10" d="M416.2,432.68c.66,0,.42,4.39,4.03,7.7s8.25,3.13,8.25,3.74c0,.27-1.09.78-3.06.72-2.57-.12-5.01-1.13-6.9-2.87-1.81-1.67-2.91-3.98-3.05-6.44-.12-1.87.43-2.86.72-2.86Z"/>
    <path class="cls-10" d="M417.34,384.08c-.46,1.07-4.45.31-9.22.6s-8.67,1.34-9.23.34c-.25-.48.47-1.48,2.08-2.44,4.32-2.39,9.5-2.66,14.05-.72,1.7.81,2.52,1.72,2.32,2.23Z"/>
    <path class="cls-10" d="M454.24,389.65c-.76.87-3.49-.24-6.82-.48s-6.21.25-6.8-.75c-.25-.48.24-1.34,1.53-2.16,3.52-1.93,7.86-1.54,10.98.99,1.13,1.01,1.45,1.97,1.11,2.4Z"/>
    <path class="cls-10" d="M459.63,376.71s-5.96-16.83-13.65-21.13c-9.31-5.21-14.06,5.07-23.05,1.99s-17.89-8.05-27.64-1.57c-10.73,7.12-6.2,12.83-7.53,24.43-5.37,47.03-14.76,59.87-15.89,37.5-.12-2.46-6.71-4.79-7.17-15.14-.51-13.42-.07-29.64,3.48-38.91,2.98-7.84,7.85-13.07,16.37-18.68,13.42-8.83,31.14-8.05,43.09-6.08s34.3,17.07,31.99,37.58Z"/>
    <path class="cls-14" d="M373.59,417.32c.1-3.94-3.02-7.22-6.96-7.31-.11,0-.22,0-.33,0-4.91.17-10.52,2.68-10.8,12.76-.48,17.97,17.66,14.76,17.7,14.24s.25-12.17.39-19.68Z"/>
    <path class="cls-1" d="M369.48,430.13c-.08,0-.32.21-.86.44-.75.3-1.59.3-2.35,0-1.88-.75-3.39-3.81-3.39-7.04,0-1.55.34-3.07,1.01-4.47.37-1.13,1.27-2,2.42-2.33.75-.17,1.51.21,1.82.91.23.51.11.86.2.9s.39-.3.27-1.05c-.1-.45-.34-.85-.68-1.14-.48-.39-1.1-.57-1.72-.5-1.51.25-2.77,1.27-3.34,2.68-.81,1.54-1.22,3.25-1.22,4.99,0,3.62,1.78,7.06,4.36,7.88.97.31,2.03.16,2.87-.4.56-.44.67-.83.62-.87Z"/>
    <path class="cls-10" d="M375.99,382.59c2.23,1.73,4.6,3.52,7.38,4.03s6.11-.98,6.71-3.73c.28-1.23,0-2.68.94-3.62s2.84-.63,4.33-.38c5.38.74,10.53-2.39,12.36-7.5,1.22,2.07,4.32,2.16,6.41.98s3.52-3.22,5.19-4.94,4.03-3.19,6.33-2.68c1.34.27,2.51,1.13,3.85,1.09,2.37-.07,3.68-2.76,4.17-5.07s.94-5.03,3.01-6.19,4.27-.24,6.43.2,4.98.11,5.65-1.99c.26-1.14.04-2.33-.6-3.3-2.74-4.62-8.28-6.77-13.42-5.21-1.98-8.48-10.45-13.75-18.93-11.78-4.07.95-7.6,3.48-9.81,7.03-6.19-6.31-16.32-6.42-22.64-.23-1.34,1.31-2.44,2.85-3.25,4.55-6.08-2.01-12.64,1.29-14.64,7.37-.95,2.87-.74,6.01.59,8.73-3.33,1.65-6.28,4.68-6.56,8.4s3.11,7.61,6.71,6.84c-1.85,3.03-.89,6.99,2.14,8.83,2.88,1.76,6.64.98,8.59-1.77"/>
    <path class="cls-5" d="M435.74,349.49v.34c0,.21-.07.54-.17.95-.31,1.2-.82,2.34-1.5,3.38-1.09,1.65-2.53,3.02-4.23,4.03-2.24,1.35-4.87,1.93-7.47,1.66l.34-.38c.44,1.66.2,3.43-.66,4.92-.9,1.56-2.02,2.99-3.33,4.23-.64.72-1.36,1.37-2.13,1.95-.88.53-1.87.83-2.9.89-2.17.18-4.28-.72-5.65-2.42l.67-.15c-.71,3.74-2.99,7.01-6.25,8.98-1.78,1.16-3.88,1.71-6,1.57-1.99-.2-3.93-.75-5.73-1.61l.5-.19c-1.06,2.12-2.63,3.93-4.58,5.29-1.81,1.38-4.14,1.87-6.35,1.34-3.8-1.06-6.61-4.28-7.15-8.19l.4.21c-1.95.89-4.15,1.08-6.23.54-1.55-.38-2.98-1.12-4.19-2.16-.75-.66-1.38-1.45-1.87-2.32-.18-.3-.32-.62-.4-.95.63,1.16,1.46,2.19,2.47,3.03,1.19.97,2.59,1.65,4.09,1.99,1.97.47,4.04.25,5.86-.62l.35-.17v.39c.57,3.64,3.22,6.61,6.78,7.59,2.01.47,4.13,0,5.76-1.27,1.83-1.29,3.31-3.01,4.31-5.02l.16-.34.32.15c1.73.81,3.59,1.33,5.49,1.54,1.96.12,3.9-.4,5.54-1.48,3.07-1.86,5.22-4.93,5.92-8.45l.16-.85.51.7c1.21,1.48,3.08,2.28,4.99,2.12.91-.04,1.79-.3,2.58-.76.73-.53,1.41-1.14,2.01-1.81,1.26-1.19,2.36-2.54,3.25-4.03.79-1.34,1.03-2.94.66-4.45l-.12-.44.44.07c2.48.29,4.99-.23,7.15-1.49,1.66-.93,3.09-2.23,4.19-3.78.95-1.37,1.63-2.9,2.01-4.52Z"/>
    <path class="cls-7" d="M474.51,606.63l1.91-19.11,6.59-70.06c-3.39-3.56-17.03-9.15-17.03-9.15l-33.84-12.17s-3.25,9.29-28.74,9.66c-26,.39-36.78-15.87-36.78-15.87-12.99,4.17-41.37,14.95-41.37,14.95l-9.67,91.14-.5,30.08-5.98,153.21s170.41-7.23,172.96-7.68l-6.91-55.18-.63-109.83Z"/>
    <polygon class="cls-2" points="425.6 561.66 425.6 597.52 445.11 613.44 465.45 597.66 466.56 562.66 425.6 561.66"/>
    <path class="cls-2" d="M312.72,687.5l-.5,12.75s107.65-19.51,126.47-27.09c23.21-9.39,35.67-17.3,35.67-17.3l.39-9.71-162.02,41.35Z"/>
    <path class="cls-14" d="M320.2,512.55s-24.26,3.88-29.26,34.89c-3.22,19.95-12.98,107.84.36,131.5,15.43,27.32,154.78-18.52,154.78-18.52l4.76-35.37-107.34,7.11-13.42-74.54-9.88-45.07Z"/>
    <path class="cls-7" d="M281.29,616.51h68.06l-18.62-113.5s-39.01,7.9-44.11,48.65c-5.15,41.07-5.33,64.85-5.33,64.85Z"/>
    <path class="cls-10" d="M289.85,616.51c.1-.01.2-.01.3,0h.9l3.44-.07,12.69-.11,42.17-.11-.35.39c-.08-.89-.16-1.84-.24-2.79-1.42-17.12-2.68-32.62-3.66-43.9-.43-5.57-.78-10.1-1.03-13.31-.09-1.53-.19-2.68-.24-3.62v-.94c-.02-.11-.02-.22,0-.32.04.1.06.21.07.32l.11.93c.09.89.23,2.09.38,3.62.31,3.19.74,7.72,1.26,13.28.99,11.28,2.36,26.77,3.86,43.89.08.95.16,1.89.24,2.78v.38h-.38l-42.17-.11-12.69-.11-3.44-.07h-.9c-.21-.13-.31-.13-.31-.13Z"/>
    <path class="cls-10" d="M479.59,547.51c.07.77.07,1.55,0,2.32,0,1.49-.12,3.65-.24,6.31-.28,5.37-.83,12.68-1.6,20.77-.76,8.09-1.58,15.42-2.23,20.72-.32,2.68-.59,4.78-.81,6.25-.07.77-.2,1.53-.4,2.28-.01-.77.03-1.54.13-2.31.15-1.6.35-3.72.59-6.28.52-5.37,1.23-12.69,2.01-20.73.78-8.04,1.48-15.35,1.84-20.72.19-2.56.35-4.7.46-6.29.03-.78.11-1.55.24-2.32Z"/>
    <path class="cls-10" d="M350.4,535.16c-.31-.38-.57-.81-.76-1.26-.52-.98-1.15-2.16-1.91-3.54-1.99-3.91-4.44-7.58-7.3-10.91-2.9-3.28-6.6-5.76-10.73-7.19-1.75-.5-3.55-.84-5.37-1.01.48-.11.98-.14,1.48-.09,1.36.03,2.72.24,4.03.62,4.3,1.34,8.15,3.83,11.12,7.21,2.9,3.37,5.33,7.12,7.22,11.15.75,1.53,1.34,2.78,1.7,3.65.23.44.4.9.52,1.38Z"/>
    <path class="cls-2" d="M341.57,621.61c-.12-.67,11.77-3.57,11.77-3.57l-8.71-56.36,4.71,54.83h-8.71l.94,5.1Z"/>
    <path class="cls-16" d="M519.81,626.71l-2.11,28.97-9.62,12.08-23.55,31.25,28.53,1.87s33.45-8.32,38.38-18.62c4.92-10.31,5.22-55.58,5.22-55.58l-36.85.04Z"/>
    <path class="cls-16" d="M660.76,530.22l1.61-112.71c1.03-26.84-12.3-50.02-39.14-50.32l-2.47.12c-24.95,1.21-44.79,21.36-45.62,46.32-.76,23.25-1.34,48.96-.58,61.37,1.48,25.71,27.41,28.49,27.41,28.49,0,.79,0,7.19-.15,14.85v12.77l58.93-.9Z"/>
    <path class="cls-9" d="M601.9,503.49s16.25.17,33.01-11.49c0,0-7.27,19.17-33.05,18.07l.04-6.59Z"/>
    <path class="cls-10" d="M617.07,426.78c.56.16,3.17-1.72,7.35-2.68s7.58-.55,7.96-.93-.46-.56-1.95-.79c-2.16-.25-4.35-.12-6.47.4-2.06.45-4.01,1.3-5.74,2.5-1.13.82-1.42,1.44-1.15,1.5Z"/>
    <path class="cls-10" d="M621.22,434.72c.09,1.9,1.67,3.37,3.57,3.33,1.84.06,3.37-1.38,3.43-3.22,0-.03,0-.05,0-.08-.07-1.89-1.63-3.38-3.52-3.35-1.84-.09-3.4,1.33-3.48,3.16,0,.05,0,.11,0,.16Z"/>
    <path class="cls-10" d="M606.46,454.85c0-.23-2.47-.54-6.48-.86-1.01,0-1.97-.2-2.17-.89-.14-1.04.04-2.09.52-3.02.83-2.5,1.7-5.1,2.68-7.84,3.62-11.14,6.2-20.27,5.74-20.42s-3.76,8.78-7.38,19.91l-2.5,7.88c-.58,1.26-.7,2.69-.34,4.03.35.68.98,1.18,1.73,1.34.57.12,1.15.17,1.73.15,3.96.04,6.45-.05,6.45-.28Z"/>
    <path class="cls-10" d="M620.23,409.12c.39.97,3.85.34,7.96.64s7.47,1.34,8.05.42c.21-.43-.4-1.34-1.78-2.21-3.67-2.17-8.15-2.47-12.08-.81-1.61.7-2.32,1.5-2.15,1.96Z"/>
    <path class="cls-10" d="M579.17,416.04c.43.79,3.81,0,7.88,0s7.42.59,7.88-.21c.19-.38-.46-1.1-1.87-1.74-1.89-.81-3.93-1.21-5.98-1.15-2.08.02-4.13.47-6.01,1.34-1.37.66-2.04,1.4-1.89,1.77Z"/>
    <path class="cls-16" d="M661.15,437.02c.46-.2,18.45-5.89,18.26,12.6-.19,18.49-18.72,14.48-18.79,13.95s.52-26.55.52-26.55Z"/>
    <path class="cls-9" d="M666.38,456.62c.09,0,.32.23.87.48.76.34,1.62.37,2.4.08,1.96-.7,3.64-3.78,3.76-7.11.06-1.58-.22-3.16-.85-4.62-.34-1.18-1.24-2.12-2.4-2.51-.76-.2-1.56.16-1.91.87-.25.51-.13.89-.24.91s-.39-.32-.23-1.07c.1-.46.36-.87.74-1.15.51-.38,1.15-.55,1.78-.46,1.54.32,2.8,1.43,3.33,2.91.78,1.6,1.14,3.37,1.06,5.15-.15,3.73-2.09,7.19-4.78,7.94-1.01.28-2.09.09-2.94-.52-.6-.47-.6-.89-.6-.91Z"/>
    <path class="cls-10" d="M579.56,424.85c.4.42,3.57.21,7.66,1.56s6.79,3.42,7.3,3.29c.24,0-.11-.68-1.27-1.62-1.74-1.31-3.69-2.31-5.77-2.97-1.98-.68-4.08-.99-6.17-.9-1.4.11-1.95.43-1.74.64Z"/>
    <path class="cls-10" d="M584.53,434.29c.07,1.89,1.64,3.38,3.53,3.35,1.83.06,3.36-1.38,3.42-3.21,0-.03,0-.06,0-.1-.07-1.89-1.63-3.38-3.52-3.35-1.84-.06-3.37,1.38-3.43,3.22,0,.03,0,.05,0,.08Z"/>
    <path class="cls-10" d="M540.93,389.74c.33-1.03,1.06-1.88,2.01-2.38,2.04-1.14,4.35-.93,6.57-.9,5.57.02,11.08-1.22,16.1-3.62-1.72-.89-3.29-2.05-4.64-3.44-2.75-2.9-4.28-7.26-2.88-11.02.19-.74.72-1.35,1.42-1.65,1.14-.31,2.12.83,2.88,1.73,2.54,2.99,4.92,4.31,8.82,4.03,2.34-.09,4.64-.71,6.71-1.81l.23-.23c.94-.93,1.85-1.8,2.68-2.68h0c6.71-6.37,12.55-10.73,18.45-12.98,8.64-3.22,23-4.25,31.85-1.69s16.71,10.02,17.71,19.19c5.11-4.11,12.63-3.88,18.65-1.26l.16-.07c6.71,2.59,10.4,9.86,12.22,16.84.11.38.19.76.28,1.14,2.19,3.72,5.25,6.87,8.91,9.16.64.39,1.34.89,1.45,1.64s-.59,1.34-1.22,1.78c-1.67,1.11-3.56,1.84-5.54,2.13.57,1.67,1.27,3.29,2.12,4.83.74,1.34,1.61,2.9.9,4.23-.65,1-1.85,1.5-3.02,1.23-1.14-.28-2.2-.8-3.13-1.52l2.13,5.5c-2.48.35-5.01.11-7.38-.68-1.6,6.44-3.45,14.65-5.22,19-2.84-.08-5.51-.81-7.3.72-2.43,2.07-3.6,6.06-7.51,4.44-1.99-.83-3.72-5.1-4.33-7.17-4.12-13.76-5.23-28.25-3.26-42.48-2.68-3.05-5.93-5.57-9.55-7.41l.3.28c-7.1-2.68-15.15-5.37-22.03-2.13-5.37,2.47-8.59,7.86-12.64,12.08-7.17,7.97-17.38,12.54-28.1,12.59-1.21,7.72-.63,17.56-1.18,24.77l-6.39-11.82h0c-.46-.84-.88-1.71-1.25-2.59l-.13-.27h0c-.56-1.42-1.2-2.81-1.92-4.16h0c-4.03,3.35-9.63-2.07-6.44-6.2.63-.82,1.38-1.54,2.23-2.13-1.85,1.69-4.44,2.29-6.84,1.58-2.4-.8-3.96-3.11-3.81-5.64.24-1.68,1.35-3.11,2.93-3.76-3.19.17-6.35-.61-9.1-2.24-1.84-.97-3.57-2.76-2.9-4.99Z"/>
    <path class="cls-5" d="M640.89,375.05c.91.73,1.75,1.54,2.52,2.42,1.96,2.5,3.24,5.47,3.72,8.61.38,2.16.55,4.35.5,6.53,0,2.38-.31,4.9-.56,7.55-.31,2.79-.44,5.6-.4,8.41.05,1.49.2,2.98.47,4.45.19,1.57.77,3.06,1.69,4.35.88,1.05,2.24,1.56,3.6,1.34,1.26-.21,2.42-.83,3.3-1.76,1.45-1.88,2.38-4.11,2.68-6.47h-.54c.72,1.95,1.73,3.79,2.98,5.45,1.21,1.55,2.98,2.57,4.92,2.84.91.12,1.84-.01,2.68-.39.77-.38,1.41-.98,1.84-1.73.4-.68.61-1.46.6-2.25-.01-.74-.28-1.45-.76-2.01l-.28.23c1.47,1.79,3.3,3.25,5.37,4.28.72.35,1.34.56,1.69.71.2.07.4.13.6.16-.18-.11-.37-.19-.56-.25-.39-.17-.94-.42-1.64-.79-2.01-1.08-3.79-2.55-5.22-4.33l-.28.24c.84,1.12.88,2.66.08,3.81-.39.66-.97,1.19-1.66,1.53-.76.32-1.6.44-2.42.32-1.81-.28-3.44-1.24-4.56-2.68-1.21-1.64-2.18-3.45-2.87-5.37l-.35-.83-.2.89c-.27,2.24-1.14,4.38-2.51,6.17-.78.84-1.82,1.39-2.95,1.57-1.14.21-2.31-.21-3.06-1.1-.84-1.19-1.38-2.58-1.57-4.03-.26-1.44-.41-2.9-.46-4.36-.05-2.78.08-5.56.36-8.33.24-2.68.47-5.21.51-7.59.04-2.22-.15-4.45-.58-6.63-.54-3.2-1.93-6.2-4.03-8.68-.75-.91-1.65-1.68-2.66-2.28Z"/>
    <path class="cls-5" d="M560.82,398l.2.17.62.48c.34.26.7.51,1.07.72.49.32,1.01.61,1.54.86,3.38,1.64,7.12,2.42,10.88,2.25,5.62-.24,11.05-2.1,15.63-5.37,5.53-4.02,10.19-9.12,13.69-15,1.95-3.06,3.54-6.2,5.3-9.1,1.6-2.83,3.6-5.41,5.93-7.68,2.11-2.03,4.68-3.5,7.5-4.29,1.28-.33,2.6-.44,3.92-.35,1.21.1,2.41.36,3.56.78,1.97.73,3.77,1.87,5.26,3.35,1.13,1.12,2.08,2.41,2.8,3.82.55,1.24.96,2.54,1.22,3.88v-.27c0-.19,0-.47-.09-.78-.19-1.01-.49-1.99-.9-2.93-.7-1.49-1.63-2.85-2.78-4.03-1.52-1.54-3.35-2.74-5.37-3.52-1.18-.44-2.41-.72-3.66-.85-1.35-.1-2.71.02-4.03.34-2.92.78-5.59,2.28-7.77,4.37-2.38,2.29-4.43,4.9-6.06,7.77-1.77,2.91-3.37,6.05-5.3,9.08-3.46,5.81-8.05,10.87-13.5,14.87-4.5,3.22-9.82,5.08-15.34,5.37-3.72.2-7.43-.5-10.81-2.04-1.21-.59-2.38-1.24-3.52-1.95Z"/>
    <path class="cls-5" d="M558.77,386.66s.3.27.9.67c.86.55,1.76,1.03,2.68,1.45,1.38.63,2.81,1.14,4.28,1.53,3.61.95,7.37,1.17,11.06.63,1.5-.22,2.98-.56,4.43-1.02.97-.31,1.92-.69,2.83-1.14.35-.14.68-.33.98-.56,0-.09-1.49.59-3.93,1.34-1.44.41-2.9.71-4.39.89-1.81.21-3.63.27-5.45.19-1.81-.12-3.6-.39-5.37-.81-1.45-.34-2.87-.79-4.25-1.34-2.36-1.07-3.72-1.92-3.77-1.82Z"/>
    <path class="cls-9" d="M619.42,461.53s-9.39,2.68-12.91,4.03l1.42,4.03c1.21,3.39,4.93,5.15,8.31,3.95.16-.06.32-.12.48-.19.83-.4,1.56-.97,2.16-1.66,1.06-1.28,1.58-2.91,1.48-4.56-.17-1.88-.48-3.75-.94-5.58Z"/>
    <path class="cls-10" d="M606.47,465.54c-.12-.32,5.54-2.39,12.72-4.63l.67-.21.15.71c0,.09,0,.2.07.3.44,1.76.72,3.56.85,5.37.13,1.6-.35,3.18-1.34,4.44-1.77,2.11-3.61,2.23-3.58,2.11s1.5-.68,2.83-2.68c1.56-1.92.85-5.37,0-9.04,0-.11,0-.21-.07-.31l.82.5c-7.15,2.29-12.99,3.8-13.11,3.46Z"/>
    <path class="cls-5" d="M542.7,802l182.14-.85-10.05-154.92-.75-46.18-10.73-83.7-40.7-8.74s-10.18,18.79-36.23,18.33c-25.43-.38-24.61-11.19-24.61-11.19l-43.25,16.24s-23.7,11.54-28.04,22.72c-4.24,10.9-12.44,73.52-12.44,73.52l37.29-.46-3.31,118.56-9.31,56.68Z"/>
    <path class="cls-10" d="M556.65,571.81c.06.26.09.53.09.81,0,.62.08,1.34.13,2.35.09,2.03.19,4.98.2,8.61,0,7.29-.12,17.34-.46,28.43-.34,11.1-.79,21.15-1.17,28.42-.2,3.56-.36,6.48-.48,8.6-.08.95-.13,1.73-.17,2.33,0,.28-.05.55-.12.82-.02-.27-.02-.55,0-.82v-2.35l.27-8.61c.25-7.35.59-17.35.97-28.41.38-11.06.58-21.15.66-28.42v-10.95c0-.28.02-.55.08-.82Z"/>
    <path class="cls-5" d="M702.1,517.47s18.32,1.93,28.18,14.76c9.03,11.82,26.42,49.03,25.96,49.94s-41.02,27.49-41.02,27.49l-10.01-18.46-3.11-73.73Z"/>
    <path class="cls-10" d="M711.03,535.75c.07.23.11.47.11.71,0,.54.09,1.21.16,2.03.15,1.76.3,4.32.44,7.47.31,6.31.55,15.04.7,24.68s.3,18.36.48,24.68c.09,3.07.16,5.61.21,7.47v2.03c.04.24.04.48,0,.71-.06-.23-.09-.46-.09-.7,0-.54-.11-1.21-.17-2.03-.13-1.77-.28-4.32-.44-7.47-.31-6.31-.55-15.04-.68-24.68-.13-9.63-.31-18.36-.5-24.68-.08-3.07-.16-5.61-.21-7.47v-2.03c-.04-.24-.04-.48,0-.72Z"/>
    <path class="cls-13" d="M457.44,697.02s6.04,4.03,9.82,3.54,16.2-3.54,16.2-3.54c0,0,.25,1.1,3.54,3.58s23.27,5.77,31.61,4.76,22.52-6.32,22.52-6.32l-4.25-23.92-37.57,5.93-41.85,9.63v6.33h-.01Z"/>
    <path class="cls-16" d="M470.05,677.52s-3.29,14.42-1.52,16.45,4.03,2.52,5.26-.25c1.42-4.16,2.62-8.39,3.6-12.68l1.52-3.52s-2.03,23.78,2.01,25.05,6.33,0,6.33,0c0,0,8.05,6.06,8.6-3.54.58-7.24,1.73-14.41,3.44-21.47l1.88-3.13v5.37s-4.27,12.64-1.88,14.41,4.91,3.05,6.43,1.02,8.57-16.84,10.13-22.03c0,0,4.74,6.84,11.35,6.94,5.19.07,8.21-2.16,6.09-5.37s-7.34-5.94-7.34-5.94l-6.83-15.95-16.69-3.9h-18.97l-13.4,28.55Z"/>
    <path class="cls-11" d="M442.96,667.27s15.95,9.5,23.29,11.27,46.67-5.22,46.27-7.7-5.54-4.7-9.08-5.21-13.91-2.28-13.91-2.28h27.83l13.42,8.48s4.76-1.92,3.22-5.8c-.82-2.07-11.31-10.26-11.31-10.26l-25.49-5.06-45.29-1.77-8.94,18.33Z"/>
    <path class="cls-14" d="M457.91,624.65s45.27,7.59,46.29,8.86,12.64,14.41,12.64,14.41c0,0,17.44,6.01,15.19,9.88s-7.34,1.52-7.34,1.52c0,0,7.08,11.12,3.8,13.42s-6.83.75-9.39-2.54-9.86-15.43-9.86-15.43c0,0,6.06,24.8,3.03,25.56s-7.84,1.01-9.86-5.37c-1.09-3.22-1.94-6.53-2.54-9.88l-9.61-15.93s3.8,29.1,1.52,31.49c0,0-5.82,1.89-7.84-3.17s-4.82-16.62-4.82-16.62l-4.8-12.72-.5,8.05s4.03,14.92,1.52,15.93-5.82,0-7.59-3.41c-1.89-3.41-3.42-7.01-4.55-10.73-.5-1.97-3.18-8.71-3.18-8.71l-9.62-1.26,7.51-23.35Z"/>
    <path class="cls-1" d="M513.66,644.06c2.18,2.5,4.18,5.15,6,7.93,2.01,2.64,3.82,5.42,5.43,8.32-2.18-2.5-4.19-5.14-6-7.92-2.01-2.64-3.83-5.43-5.43-8.33Z"/>
    <path class="cls-1" d="M498.56,635.68c.82.74,1.53,1.6,2.12,2.54,1.55,2.15,2.98,4.39,4.27,6.71,1.28,2.32,2.45,4.71,3.49,7.15.5.99.88,2.03,1.13,3.11-.62-.91-1.14-1.88-1.57-2.9-.91-1.82-2.16-4.32-3.66-7.02s-2.95-5.09-4.03-6.79c-.66-.88-1.24-1.82-1.74-2.8Z"/>
    <path class="cls-1" d="M485.24,637.03c0-.07.75.32,1.6,1.27,1.09,1.25,1.9,2.71,2.4,4.29.5,1.55.84,3.15.99,4.78.12.67.12,1.36,0,2.03-.28-.62-.46-1.27-.54-1.95-.29-1.57-.68-3.12-1.15-4.64-.49-1.5-1.2-2.92-2.12-4.2-.68-.98-1.18-1.49-1.18-1.58Z"/>
    <path class="cls-1" d="M469.14,638.41c0-.08.7.13,1.62.78,1.2.87,2.16,2.02,2.82,3.34.66,1.33.98,2.8.94,4.28.05.61-.08,1.23-.36,1.77.2-4.03-1.7-7.88-5.02-10.17h0Z"/>
    <path class="cls-2" d="M553.19,704.45c3.22,0,126.22-9.03,126.22-9.03l43.33-8.96-10.73-48.04-158.56,50.99-.25,15.04Z"/>
    <path class="cls-13" d="M536.87,675.11l113.87-26.17s103.67-60.38,105.25-61.4-8.05,61.4-8.05,61.4c0,0-66.03,34.79-85.04,39.3-10.36,2.46-125.22,12.08-125.22,12.08l-.81-25.21Z"/>
    <path class="cls-10" d="M817.2,426.63c7.02-7.57,24.15-6.25,28.18-1.19,6.35-2.89,13.85-.3,17.04,5.9l18.19,4.16c3.1.71,6.35,1.49,8.72,3.62s3.45,6.04,1.45,8.52c6.4,1.73,8.83,11.32,4.03,15.89,2.47,2.92,2.1,7.29-.83,9.76-.1.08-.2.16-.3.24,4.98,6.09,8.89,13,11.54,20.41,1.11,3.1,2,6.55.82,9.62s-5.25,5.15-7.89,3.21c1.81,2.6,1.92,6.02.3,8.74,3.09.11,3.96,4.88,1.81,7.1s-5.58,2.43-8.67,2.32-6.43-.3-8.98,1.45c.05.76.41,1.47.99,1.96,5.25,4.36,6.71,11.79,2.68,17.31-.38.51-.72.98-1.02,1.41-1.81,2.52-6.27,4.79-9.03,6.2-7,3.57-11.15,2.84-18.95,3.89,2.08,5.05-10.73,16.1-25.04,4.98-29.01,7.43-49.82,10.12-79.72,9.96-4.27,0-9.39-.66-11.24-4.5-3.46.89-7.19-.76-9.71-3.29-2.38-2.68-4.29-5.75-5.64-9.07-7.53-2.27-12.82-9.02-13.22-16.88-5.01-4.04-8.09-10-8.49-16.42-7.17-2.25-11.03-11.61-7.55-18.26,1.63-8.81,4.71-17.29,9.11-25.09-4.87-1.1-6.71-7.72-4.59-12.28s6.52-7.46,10.73-10.1c-3.66.93-6.8-3.69-5.9-7.37s4.24-6.17,7.51-8.05c4.79-2.81,9.9-5.03,15.22-6.62,1.8-6.41,10.1-13.67,16.1-16.46,24.42-11.26,41.49-14.01,72.24,8.99"/>
    <path class="cls-13" d="M749.05,472.31c2.11-16.72,14.5-36.63,31.12-33.81l51.4,16.44c5.05.86,8.6,5.43,8.18,10.53l-8.72,111.79c-1.13,14.56-12.35,26.31-26.84,28.11h0c-16.85,2.08-32.19-9.9-34.27-26.75-.18-1.44-.25-2.89-.23-4.34.15-7.69.23-13.42.23-13.42,0,0-21.23-4.88-23.92-33.14-1.4-14.06.71-36.83,3.05-55.4Z"/>
    <path class="cls-10" d="M758.45,495.02c-.14,1.94,1.3,3.64,3.23,3.82,1.89.27,3.63-1.05,3.9-2.93,0-.02,0-.05,0-.07.13-1.94-1.3-3.63-3.23-3.84-1.89-.26-3.63,1.05-3.89,2.94,0,.03,0,.06-.01.08Z"/>
    <path class="cls-10" d="M753.27,484.48c.42.5,3.26-1.34,7.12-1.1s6.56,2.36,7.02,1.92c.21-.2-.19-1.07-1.34-2.05-1.6-1.26-3.55-1.99-5.58-2.11-2.01-.13-4,.38-5.7,1.46-1.26.83-1.72,1.65-1.52,1.88Z"/>
    <path class="cls-10" d="M793.86,496.5c-.14,1.94,1.29,3.65,3.23,3.84,1.89.27,3.63-1.05,3.9-2.93,0-.02,0-.05,0-.07.14-1.94-1.29-3.65-3.23-3.84-1.89-.27-3.63,1.05-3.9,2.93,0,.02,0,.05,0,.07Z"/>
    <path class="cls-10" d="M791.17,487.55c.42.5,3.27-1.34,7.12-1.09s6.57,2.35,7.02,1.91c.21-.2-.17-1.07-1.34-2.04-1.6-1.27-3.55-2-5.58-2.11-2.01-.14-4.01.37-5.7,1.45-1.26.85-1.72,1.66-1.52,1.88Z"/>
    <path class="cls-10" d="M775.38,515.32c0-.23-2.33-.79-6.2-1.53-.98-.16-1.89-.42-2.03-1.1-.02-1.02.28-2.03.85-2.88l3.38-7.33c4.71-10.43,8.18-19.04,7.77-19.23s-4.59,8.13-9.3,18.56l-3.26,7.38c-.69,1.15-.96,2.51-.75,3.84.24.73.81,1.3,1.53,1.54.54.19,1.1.3,1.66.34,3.89.46,6.32.63,6.35.42Z"/>
    <path class="cls-12" d="M769.88,560.84c13.16,1.02,26.35-1.63,38.09-7.66,0,0-10.29,18.65-38.12,14.29l.03-6.63Z"/>
    <path class="cls-10" d="M790.46,471.59c.31,1.07,4.2.82,8.69,1.64s8.05,2.29,8.75,1.34c.3-.44-.28-1.46-1.7-2.58-3.84-2.77-8.74-3.62-13.28-2.31-1.74.56-2.59,1.36-2.46,1.91Z"/>
    <path class="cls-10" d="M755.45,471.27c.63.91,3.34.17,6.55.34s5.86.95,6.55.07c.3-.43-.08-1.34-1.21-2.23-3.12-2.24-7.29-2.37-10.55-.34-1.18.83-1.61,1.72-1.34,2.16Z"/>
    <path class="cls-10" d="M736.24,485.54c.19-4.43,1.9-8.67,4.86-11.98,1.68-1.73,3.78-3.02,5.27-4.91,3.22-4.09,2.88-9.85,4.31-14.85,1.93-6.55,6.9-11.76,13.35-14,5.29-1.78,11.23-1.44,16.21-4.03,3.68-1.88,6.51-5.18,10.29-6.83,7.37-3.22,15.78.68,22.61,4.91,1.34,5.5-2.28,10.18-5.7,14.68-3.5,4.54-8.82,7.32-14.55,7.61-4.37.19-9.47-.9-12.6,2.17s-2.13,9.03-4.87,12.75c-3.89,5.37-12.51,3.13-18.25,6.35-4.43,2.5-6.37,7.72-8.67,12.26s-6.19,9.25-11.27,8.92c-.83-4.3-1.17-8.68-.99-13.06Z"/>
    <path class="cls-10" d="M802.04,443.7c12.84.04,25.55,2.57,37.44,7.43,3.52,1.45,7.17,3.27,9.12,6.53,1.73,2.87,1.89,6.4,1.78,9.74-.31,10.49-4.75,23.25-8.92,32.89l-13.23,7.61c-10.05-2.56-5.11-19.9-4.47-28.62-7.13-3.38-11.7-10.53-11.77-18.42-5.76-3.9-9.43-10.22-9.96-17.16Z"/>
    <path class="cls-13" d="M828.43,504.15c.5-6,7.89-7.03,12.99-3.85,2.8,1.74,4.87,5.14,4.4,11.5-1.34,16.97-18.05,12.2-18.05,11.71s.07-12.34.66-19.36Z"/>
    <path class="cls-12" d="M833.45,517.46c.08,0,.28.24.76.5.68.36,1.47.44,2.2.21,1.84-.52,3.57-3.26,3.88-6.31.15-1.45-.02-2.92-.51-4.29-.25-1.1-1.01-2-2.05-2.43-.69-.23-1.45.05-1.81.68-.25.46-.17.81-.27.83s-.35-.32-.16-1.01c.13-.41.4-.77.75-1.02.5-.31,1.09-.42,1.66-.31,1.4.39,2.49,1.48,2.9,2.87.61,1.52.84,3.17.67,4.8-.36,3.41-2.36,6.48-4.87,7-.95.2-1.94-.04-2.68-.66-.47-.47-.54-.86-.47-.89Z"/>
    <path class="cls-5" d="M841.6,528.26c.9.05,1.8,0,2.68-.12,1.03-.13,2.04-.41,2.99-.85l-.2-.11c.65,4.62,4.93,7.84,9.56,7.18,1.4-.2,2.73-.74,3.86-1.59h-.3c.51.78,1.3,1.33,2.2,1.53.92.21,1.88.14,2.76-.19.92-.32,1.71-.94,2.24-1.76.53-.84.84-1.79.91-2.78.1-2.05-.52-4.06-1.74-5.7-1.28-1.65-2.76-3.14-4.4-4.44v.4c1.45-.89,2.46-2.35,2.76-4.03.36-1.68.22-3.42-.4-5.02-.67-1.61-1.66-3.07-2.9-4.29-1.26-1.24-2.61-2.4-4.03-3.46v.38c1.25-1.31,1.89-3.09,1.76-4.9-.1-1.84-.73-3.61-1.82-5.09-2.13-2.82-5.29-4.41-8.18-5.92l.13.3c1.61-6.02-1.96-12.21-7.98-13.82-1.33-.36-2.72-.47-4.1-.32l.25.3c.61-2.95-.18-6.02-2.15-8.31-1.73-2.2-4.33-3.53-7.12-3.65l.21.21c-.03-2.93-1.4-5.69-3.73-7.47-1.96-1.64-4.52-2.4-7.06-2.09l.19.17c-.08-1.55-.54-3.06-1.34-4.39-.66-1.18-1.51-2.25-2.52-3.15-1.58-1.49-3.61-2.41-5.77-2.62h-1.23c-.36.01-.72.05-1.07.11-.56.1-1.1.24-1.64.43l-.95.39-.31.13.34-.09.97-.35c.53-.16,1.07-.29,1.62-.38.35-.06.71-.08,1.06-.08h.59l.62.07c2.11.22,4.08,1.15,5.61,2.62.98.89,1.81,1.94,2.44,3.11.74,1.29,1.16,2.74,1.22,4.23v.2h.19c2.45-.27,4.9.47,6.79,2.05,2.21,1.72,3.51,4.36,3.53,7.17v.21h.21c5.34.4,9.34,5.05,8.94,10.39-.03.35-.07.69-.13,1.03l-.08.34h.34c5.89-.69,11.22,3.52,11.91,9.41.16,1.35.06,2.72-.29,4.04v.2l.17.09c2.9,1.5,5.97,3.09,8.05,5.78,1.04,1.39,1.65,3.06,1.73,4.79.12,1.66-.46,3.3-1.61,4.51l-.21.2.23.17c2.68,2.17,5.49,4.47,6.71,7.55.58,1.5.71,3.15.38,4.72-.29,1.52-1.2,2.85-2.52,3.66l-.3.17.25.23c1.62,1.26,3.08,2.71,4.33,4.33,1.18,1.53,1.78,3.44,1.69,5.37-.02,1.84-1.15,3.49-2.86,4.19-1.58.69-3.42.22-4.47-1.15l-.12-.19-.17.12c-2.5,1.82-5.82,2.08-8.57.67-2.27-1.23-3.85-3.44-4.27-5.98v-.2l-.17.09c-.92.43-1.89.71-2.9.85-.89.14-1.79.2-2.68.16-1.42,0-2.83-.3-4.13-.87-.82-.33-1.5-.92-1.93-1.69-.27-.54-.31-.86-.34-.85v.23c.05.22.12.44.23.64.41.81,1.1,1.44,1.93,1.8"/>
    <path class="cls-5" d="M900.23,507.57c.26-.31.48-.66.66-1.02,1.44-2.75,1.31-6.06-.34-8.69-1.37-2.14-3.59-3.6-6.09-4.03l.15.2c.63-2.87.15-5.87-1.34-8.4-.82-1.42-1.93-2.65-3.26-3.6-1.46-.9-3.01-1.66-4.62-2.27-.79-.35-1.53-.8-2.2-1.34-.65-.59-1.17-1.31-1.52-2.12-.72-1.64-.93-3.57-1.85-5.37-2-3.72-6.07-5.84-10.26-5.37l.3.3c1.18-7.42-3.87-14.4-11.29-15.58-1.15-.18-2.31-.22-3.47-.11l.28.28c.81-6.55-3.84-12.52-10.39-13.34-2.8-.35-5.64.31-8,1.85h.27c-1.66-1.65-3.66-2.92-5.86-3.72-1.95-.76-4-1.27-6.08-1.52-3.36-.43-6.77-.25-10.08.51-2.12.47-4.16,1.27-6.02,2.39-.49.29-.97.62-1.41.98-.16.11-.3.23-.44.36,0,0,.63-.47,1.92-1.23,1.88-1.05,3.9-1.81,6.01-2.25,3.28-.72,6.66-.85,9.98-.4,2.05.26,4.05.77,5.97,1.53,2.1.85,3.99,2.13,5.56,3.77l.12.13.16-.09c5.32-3.45,12.44-1.93,15.89,3.39,1.47,2.27,2.09,4.98,1.76,7.66v.32h.32c7.2-.72,13.63,4.54,14.35,11.74.11,1.12.08,2.24-.1,3.35v.34h.35c3.97-.46,7.83,1.53,9.75,5.03.87,1.65,1.09,3.57,1.85,5.3.38.87.94,1.65,1.65,2.28.7.55,1.48,1.01,2.31,1.34,1.59.6,3.11,1.34,4.56,2.21,1.29.91,2.36,2.08,3.15,3.45,1.48,2.43,1.98,5.34,1.41,8.13v.17h.17c2.42.39,4.57,1.79,5.92,3.84,1,1.54,1.47,3.36,1.34,5.19-.07,1.15-.36,2.28-.86,3.31-.44.71-.68,1.05-.67,1.06Z"/>
    <path class="cls-5" d="M737.69,509.42c.22-.42.25-.9.09-1.34-.2-.55-.54-1.04-.98-1.42-.61-.5-1.32-.87-2.08-1.09-.95-.25-1.85-.64-2.68-1.15-.9-.7-1.55-1.67-1.87-2.76-.36-1.26-.49-2.58-.36-3.89.08-1.34.34-2.88.36-4.47.08-3.22-1.22-6.52-2-10.08-.41-1.84-.45-3.74-.13-5.6.32-1.96,1.48-3.68,3.17-4.72,1.91-.88,3.92-1.53,5.98-1.92,1.09-.27,2.13-.73,3.07-1.34.95-.69,1.71-1.62,2.2-2.68.86-2.16,1.5-4.41,1.89-6.71.25-1.12.67-2.21,1.23-3.21.59-.98,1.48-1.73,2.54-2.15,1.54-.39,3.12-.58,4.71-.56.83-.05,1.64-.24,2.4-.56.76-.34,1.42-.88,1.91-1.56.82-1.34,1.44-2.79,1.85-4.31.45-1.41,1.2-2.7,2.19-3.8,1.9-2.13,4.61-3.36,7.46-3.41,2.64-.04,5.2.92,7.17,2.68l.23.2.13-.27c2.01-4.19,5.74-7.31,10.22-8.55,1.85-.5,3.79-.63,5.69-.39,1.62.16,3.19.61,4.64,1.34,2.05,1.04,3.74,2.65,4.88,4.64.32.51.59,1.05.82,1.61l.2.42v.15-.15l-.16-.44c-.2-.57-.46-1.13-.76-1.65-1.12-2.05-2.82-3.73-4.88-4.82-1.47-.76-3.07-1.25-4.72-1.45-1.95-.27-3.92-.15-5.82.35-4.6,1.24-8.44,4.41-10.53,8.69h.35c-2.04-1.86-4.71-2.89-7.47-2.87-2.99.04-5.82,1.32-7.82,3.54-1.05,1.16-1.84,2.53-2.31,4.03-.4,1.47-1,2.87-1.78,4.17-.95,1.2-2.4,1.9-3.93,1.89-1.63,0-3.26.19-4.84.59-1.17.47-2.15,1.3-2.8,2.38-.62,1.04-1.07,2.16-1.34,3.34-.39,2.24-1.01,4.44-1.85,6.56-.46.98-1.16,1.83-2.04,2.47-.89.6-1.87,1.06-2.91,1.34-2.11.4-4.15,1.06-6.09,1.97-.93.54-1.7,1.29-2.27,2.2-.53.88-.9,1.84-1.1,2.84-.33,1.91-.28,3.88.16,5.77.81,3.62,2.11,6.86,2.04,10,0,1.54-.24,3.03-.31,4.45-.13,1.36.01,2.72.42,4.03.33,1.15,1.03,2.16,2,2.87.83.51,1.74.9,2.68,1.14.74.2,1.44.55,2.04,1.02.43.36.77.82.97,1.34.19.4.25.84.17,1.27Z"/>
    <path class="cls-5" d="M705.16,482.56s.07-.11.17-.32l.48-.94,1.82-3.66c.79-1.57,1.69-3.56,2.95-5.72,1.33-2.5,3.34-4.58,5.8-6,1.34-.72,2.98-1.19,4.59-1.88.84-.34,1.63-.79,2.35-1.34.76-.58,1.37-1.33,1.77-2.19.83-1.74.89-3.74,1.56-5.56.31-.92.9-1.72,1.68-2.29.84-.55,1.77-.97,2.75-1.22,1.04-.27,2.06-.64,3.03-1.1,1.01-.52,1.84-1.35,2.36-2.36,1.05-2.05,1.1-4.37,1.56-6.56.18-1.1.58-2.16,1.18-3.1.64-.9,1.6-1.52,2.68-1.73,2.25-.43,4.64.39,7.12,0,1.25-.2,2.4-.78,3.3-1.68.84-.87,1.56-1.84,2.16-2.88.63-.99,1.22-2,1.92-2.9.66-.9,1.53-1.62,2.54-2.09,2.04-.9,4.33-.35,6.41.16,2.07.69,4.27.92,6.44.67,2.02-.47,3.94-1.31,5.66-2.46,1.59-1.06,3.28-1.96,5.05-2.68,3.28-1.04,6.79-1.09,10.09-.15,2.74.77,5.26,2.14,7.39,4.03,1.59,1.43,2.95,3.1,4.03,4.95.68,1.17,1.25,2.4,1.7,3.68l.38.99c.04.12.09.23.15.34-.02-.12-.05-.24-.09-.35-.08-.25-.19-.59-.34-1.02-.42-1.3-.96-2.55-1.62-3.74-1.07-1.89-2.43-3.59-4.03-5.06-2.15-1.92-4.72-3.33-7.5-4.11-3.38-.99-6.97-.96-10.33.09-1.79.72-3.51,1.62-5.13,2.68-1.68,1.11-3.55,1.91-5.51,2.38-2.1.23-4.23,0-6.24-.67-1.08-.3-2.19-.52-3.3-.64-2.4-.32-4.77.72-6.17,2.68-.7.94-1.35,1.92-1.95,2.94-.58,1.01-1.29,1.95-2.09,2.79-.82.81-1.87,1.35-3.01,1.53-2.33.35-4.71-.48-7.15,0-1.2.26-2.25.97-2.94,1.99-.63,1-1.06,2.12-1.26,3.29-.46,2.25-.52,4.54-1.5,6.44-.47.93-1.22,1.68-2.15,2.16-.94.45-1.93.81-2.94,1.07-1.03.28-2.01.74-2.88,1.34-.85.63-1.49,1.51-1.82,2.51-.7,1.92-.75,3.89-1.53,5.54-.83,1.56-2.22,2.74-3.89,3.31-1.57.68-3.18,1.17-4.6,1.92-2.5,1.46-4.53,3.6-5.86,6.17-1.26,2.2-2.13,4.19-2.9,5.78s-1.34,2.82-1.73,3.69c-.17.42-.32.72-.43.97-.07.1-.13.2-.17.31Z"/>
    <path class="cls-5" d="M723.54,465.09c-.1-.04-.2-.06-.31-.07-.31-.01-.63.05-.91.19-1.04.64-1.7,1.76-1.74,2.98-.01.86.1,1.72.32,2.55.27.96.4,1.95.39,2.95-.14,1.13-.57,2.2-1.25,3.11-.67,1.02-1.53,2-2.23,3.21-.82,1.27-1.01,2.84-.5,4.27.51,1.46,1.54,2.68,2.04,4.17.42,1.57.22,3.24-.55,4.67-.68,1.53-1.66,3.02-2.33,4.74-.37.87-.57,1.81-.59,2.75,0,.97.19,1.93.59,2.82.9,1.73,1.96,3.37,3.15,4.91,1.22,1.51,1.82,3.43,1.7,5.37-.49,1.97-1.22,3.88-2.16,5.69-.41.99-.64,2.04-.68,3.11.01,1.07.27,2.12.75,3.07,1,1.76,2.2,3.39,3.58,4.87,1.28,1.4,2.27,3.06,2.88,4.86.43,1.82.99,3.62,1.66,5.37.4.84.98,1.59,1.69,2.19.72.53,1.53.93,2.39,1.19.8.24,1.58.54,2.33.89.71.34,1.37.8,1.95,1.34,1.05,1.1,1.95,2.34,2.68,3.68.75,1.27,1.46,2.54,2.25,3.66,1.41,2.08,3.46,3.64,5.84,4.45,1.78.62,3.67.84,5.54.63,1.18-.13,2.33-.45,3.41-.94.37-.17.73-.37,1.07-.59-1.4.72-2.93,1.17-4.5,1.34-1.82.16-3.65-.08-5.37-.7-2.31-.82-4.29-2.36-5.65-4.39-.76-1.11-1.45-2.37-2.21-3.66-.75-1.38-1.67-2.65-2.76-3.78-.61-.58-1.29-1.07-2.04-1.46-.78-.35-1.57-.66-2.39-.91-.81-.25-1.57-.63-2.24-1.14-.66-.55-1.19-1.23-1.56-2.01-.66-1.72-1.2-3.47-1.62-5.26-.63-1.86-1.64-3.58-2.97-5.03-1.35-1.45-2.53-3.06-3.52-4.78-.44-.88-.67-1.86-.68-2.84.03-1.01.25-2,.64-2.93.96-1.84,1.69-3.79,2.19-5.81.13-1.05,0-2.11-.38-3.1-.37-.95-.84-1.85-1.42-2.68-1.18-1.51-2.22-3.11-3.11-4.8-.38-.84-.57-1.76-.56-2.68.01-.89.2-1.77.55-2.59.64-1.65,1.61-3.14,2.31-4.74.81-1.53,1.01-3.31.54-4.98-.55-1.58-1.58-2.8-2.07-4.17-.48-1.31-.32-2.77.43-3.94.67-1.17,1.52-2.17,2.19-3.21.7-.97,1.14-2.1,1.27-3.29,0-1.02-.15-2.04-.44-3.02-.23-.81-.36-1.64-.36-2.48.02-1.17.62-2.25,1.6-2.9.36-.16.76-.21,1.15-.13Z"/>
    <path class="cls-10" d="M899.86,507c.45.01.9-.02,1.34-.11,1.29-.23,2.52-.74,3.61-1.48,1.76-1.17,3.06-2.91,3.66-4.94.81-2.73.36-5.69-1.23-8.05-1-1.29-2.11-2.48-3.34-3.56-1.32-1.09-2.38-2.47-3.1-4.03-.55-1.77-.42-3.68.36-5.37.68-1.81,1.7-3.57,2.36-5.57,2.88-8.74-1.87-18.16-10.62-21.04-.51-.17-1.02-.31-1.54-.43l.15.39c.8-1.08,1.33-2.35,1.54-3.68.2-1.34.13-2.71-.19-4.03-.31-1.34-.86-2.62-1.64-3.76-.78-1.15-1.73-2.18-2.82-3.05-3.28-2.42-7.08-4.03-11.1-4.72-3.75-.78-7.6-1.02-11.42-.7l.27.24c-.08-4.48-2.63-8.55-6.63-10.57-1.84-.91-3.89-1.35-5.94-1.26-1.92.17-3.81.62-5.61,1.34-.87.29-1.77.47-2.68.55-.86.06-1.73-.04-2.55-.31-1.57-.58-3.07-1.34-4.45-2.27-1.32-.86-2.75-1.55-4.25-2.05-1.39-.43-2.84-.64-4.29-.64-2.48-.03-4.92.58-7.08,1.78-1.61.9-3.03,2.09-4.2,3.52-.73.89-1.35,1.86-1.84,2.9-.18.35-.32.71-.44,1.09,0,0,.16-.36.52-1.06.51-1.01,1.15-1.95,1.88-2.82,1.18-1.39,2.6-2.54,4.2-3.41,2.14-1.16,4.54-1.74,6.96-1.69,1.42.02,2.83.24,4.19.67,1.47.49,2.87,1.18,4.16,2.04,1.42.95,2.94,1.73,4.54,2.33.87.27,1.78.39,2.68.34.91-.08,1.81-.27,2.68-.56,1.76-.71,3.6-1.16,5.49-1.34,1.98-.08,3.94.35,5.72,1.23,3.84,1.94,6.29,5.85,6.35,10.16v.27h.27c3.77-.3,7.57-.06,11.27.71,3.93.69,7.66,2.27,10.88,4.63,1.04.84,1.94,1.82,2.68,2.93.74,1.09,1.27,2.31,1.57,3.6.31,1.26.36,2.57.17,3.85-.2,1.25-.69,2.44-1.44,3.46l-.24.31.39.09c8.73,1.97,14.21,10.65,12.24,19.38-.11.48-.24.96-.39,1.43-.63,1.95-1.65,3.7-2.35,5.56-.81,1.79-.93,3.81-.34,5.68.74,1.64,1.85,3.08,3.23,4.23,1.21,1.05,2.32,2.21,3.3,3.48,1.58,2.27,2.07,5.12,1.34,7.78-.58,1.98-1.82,3.71-3.53,4.87-1.06.74-2.25,1.26-3.52,1.53-.82.09-1.25.09-1.25.12Z"/>
    <path class="cls-10" d="M717.76,453.29c.01-.11.01-.22,0-.32,0-.24,0-.55.11-.95.11-.87.24-2.09.42-3.66s.44-3.53.93-5.74c.5-2.51,1.3-4.96,2.38-7.29,1.3-2.82,3.19-5.33,5.54-7.35,1.32-1.1,2.81-1.97,4.41-2.6,1.74-.58,3.51-1.05,5.3-1.42,1.92-.42,3.74-1.19,5.37-2.28,1.64-1.22,3.12-2.65,4.4-4.24,1.34-1.56,2.68-3.22,4.12-4.71,1.48-1.53,3.23-2.78,5.17-3.68,3.94-1.65,8.19-2.47,12.47-2.39,3.95-.06,7.89.17,11.81.7,6.62.84,13.06,2.77,19.05,5.7,4.04,2.01,7.74,4.64,10.95,7.81.56.58,1.07,1.06,1.49,1.52l1.01,1.19.62.72c.15.16.23.24.23.23-.05-.1-.11-.19-.19-.27l-.58-.75c-.28-.34-.6-.75-.98-1.22s-.9-.98-1.45-1.57c-3.18-3.26-6.88-5.98-10.94-8.05-6.03-3.02-12.53-5-19.21-5.85-3.93-.54-7.9-.79-11.87-.74-4.3-.06-8.57.77-12.53,2.43-2,.92-3.82,2.21-5.37,3.78-1.52,1.53-2.8,3.19-4.13,4.75-1.25,1.56-2.7,2.95-4.31,4.15-1.58,1.07-3.36,1.83-5.23,2.23-1.82.38-3.61.87-5.37,1.46-1.64.65-3.16,1.55-4.51,2.68-2.39,2.07-4.3,4.64-5.61,7.51-1.07,2.36-1.85,4.85-2.32,7.39-.38,1.91-.66,3.84-.85,5.78-.16,1.58-.25,2.83-.31,3.68,0,.39,0,.71-.07.95l.07.42Z"/>
    <path class="cls-12" d="M792,524.25c-.15-2.33-1.57-4.39-3.69-5.37-2.17-.91-4.67-.38-6.28,1.34-1.43,1.72-1.56,4.18-.31,6.04.58.93,1.42,1.68,2.42,2.13,1.3.56,2.73.72,4.12.44,1.15-.16,2.21-.74,2.97-1.62.6-.87.88-1.92.78-2.97Z"/>
    <path class="cls-10" d="M789.83,515.99c-.63,0-.3,4.25-3.68,7.58s-7.96,3.22-7.93,3.82c0,.27,1.07.74,2.99.63,2.49-.18,4.84-1.23,6.64-2.95,1.73-1.66,2.74-3.94,2.82-6.33.03-1.8-.54-2.8-.85-2.75Z"/>
    <path class="cls-7" d="M864.07,586.52l-32.97-12.51s-25.49,15.1-45.02,11.97c-15.19-2.43-16.44-10.24-16.44-10.24l-18.26,2.95s-27.68,23.05-33.45,46.37c-3.42,13.81-4.24,31.89-4.24,47.75,0,6.35,8.05,31.45,8.05,31.45l3.14,36.32-15.28,60.56h159.51v-167.52l-5.05-47.11Z"/>
    <polygon class="cls-7" points="685.59 686.46 662.43 628.46 728.89 582.16 751.39 578.7 745.54 660.78 685.59 686.46"/>
    <path class="cls-10" d="M720.28,697.47c-.16-.25-.3-.52-.42-.81-.24-.55-.66-1.34-1.06-2.37-1.21-2.96-2.2-6-2.97-9.1-2.41-10.27-3.1-20.87-2.04-31.37,1.09-10.46,3.02-20.82,5.77-30.97,1.02-3.89,1.88-7.04,2.5-9.2l.74-2.5c.07-.29.17-.58.3-.86-.02.31-.07.61-.16.9-.16.64-.36,1.49-.6,2.52-.56,2.27-1.34,5.37-2.28,9.26-2.6,10.14-4.46,20.45-5.56,30.86-1.06,10.43-.44,20.96,1.82,31.2.7,3.09,1.6,6.12,2.68,9.1.36,1.06.72,1.87.93,2.42.15.29.27.6.35.93Z"/>
    <g class="cls-17">
      <path class="cls-4" d="M712.7,665.39l1.45-1.05c-.09-17.99,2.81-35.87,8.59-52.91-10.73,15.98-15.32,36.09-10.04,53.95Z"/>
    </g>
    <path class="cls-2" d="M758.43,657.38s22.81,84.68,35.62,100.21c12.81,15.52,19.71,20.13,39.37,21.72,19.66,1.6,26.96-21.17,31.33-30.04s3.57-22.18,3.57-22.18l-26.84-14.97-21.2,34.89-54.61-91.14-7.25,1.52Z"/>
    <path class="cls-13" d="M762.01,668.41s23.29,54.2,40,85.27c14.14,26.33,42.94,23.4,52.16,8.76,9.22-14.64,24.47-58.46,24.47-58.46l-48.67-8.55-5.37,15.42-36.9-47.06-25.7,4.62Z"/>
    <path class="cls-13" d="M801.83,660.59l-3.58-16.21s-1.64-4.48-4.31-.52-1.42,11.42-1.42,11.42c0,0-5.05-38.55-9.47-42.75-1.62-1.54-3.84.58-3.84.58,0,0-.52-7.54-2.88-7.5s-4.59,5.68-4.59,5.68c-1.81-.92-4.02-.42-5.25,1.19-2.07,2.51-2.08,23.47-2.08,23.47,0,0-1.97-17.27-5.06-18.36-4.96-1.74-4.96,4.83-4.96,4.83l1.45,22.48s2.68,15.34,6.11,24.98,5.37,9.74,5.37,9.74l22.21-.59s5.02-4.58,8.96-8.13c2.9-2.58,4.18-6.52,3.35-10.31Z"/>
    <path class="cls-12" d="M839.48,732.71c-.15-.21-.28-.44-.38-.68-.25-.51-.56-1.17-.95-1.97l-1.73-3.01c-.7-1.14-1.57-2.43-2.48-3.85-3.85-5.64-9.66-13.06-16.26-21.09s-12.73-15.24-17.01-20.56c-2.15-2.68-3.84-4.84-4.98-6.39l-1.26-1.8c-.16-.2-.3-.42-.4-.66.19.18.36.37.51.58l1.34,1.72c1.19,1.48,2.94,3.61,5.14,6.23,4.37,5.23,10.53,12.38,17.16,20.44s12.37,15.54,16.1,21.25c.9,1.46,1.74,2.76,2.43,3.94s1.21,2.21,1.62,3.07.62,1.5.85,2.05c.13.23.24.47.31.72Z"/>
    <path class="cls-7" d="M858.6,585.07s26.57,5.43,33.21,35.46c6.15,27.65,4.24,86.48,4.24,86.48l-72.3-12.68,17.6-100.43,17.24-8.83Z"/>
    <path class="cls-10" d="M834.02,633.05c.01.11.01.22,0,.32,0,.25-.08.55-.12.93-.13.87-.31,2.05-.54,3.56-.5,3.15-1.21,7.61-2.08,13.1-1.84,11.11-4.36,26.41-7.18,43.42l-.28-.4,2.38.43,44.9,8.05,13.59,2.62,3.69.72.95.2.32.09c-.11.02-.22.02-.34,0l-.97-.15-3.72-.59-13.63-2.32-44.94-7.94-2.38-.42-.34-.07v-.34c2.9-17,5.49-32.3,7.38-43.39.97-5.47,1.74-9.92,2.31-13.06.27-1.49.5-2.68.66-3.54,0-.36.13-.67.19-.91.03-.11.07-.21.13-.31Z"/>
    <path class="cls-10" d="M838.13,623.41c.13-.59.32-1.17.55-1.73.4-1.09,1.01-2.68,1.82-4.58,2-5.09,4.95-9.75,8.69-13.74,2.14-2.14,4.64-3.88,7.39-5.15,2.23-1.04,4.58-1.79,7-2.24,1.62-.31,3.26-.48,4.91-.51.61-.04,1.21-.01,1.81.09-2.22.18-4.44.48-6.63.9-5.28,1.08-10.14,3.65-14.01,7.41-3.67,3.93-6.62,8.47-8.72,13.42l-2.03,4.48c-.21.58-.48,1.13-.8,1.65Z"/>
    <path class="cls-12" d="M771.31,639.32c-.24-1.36-.36-2.73-.36-4.11-.13-2.54-.28-6.04-.3-9.93-.04-3.32.09-6.64.4-9.94.06-1.36.28-2.72.67-4.03,0,1.37-.05,2.74-.19,4.11-.13,2.52-.2,6.02-.19,9.9.01,3.88,0,7.17.08,9.92.07,1.36.03,2.73-.12,4.08Z"/>
    <path class="cls-12" d="M778.65,613.36c.17,1.11.24,2.23.21,3.35,0,2.07.15,4.92.31,8.05s.36,6,.52,8.05c.15,1.11.19,2.23.13,3.35-.34-1.07-.55-2.18-.63-3.3-.28-2.07-.56-4.91-.72-8.05s-.17-6.04-.11-8.12c-.03-1.12.06-2.24.28-3.34Z"/>
    <path class="cls-7" d="M279.29,457.92c-1.78-11.94-4.75-25-12.63-34.15-5.3-6.39-11.63-11.85-18.72-16.17-7.97-4.82-15-6.4-23.55-7.31l-5.61,4.98c17.94,4.33,33.55,16.8,42.71,32.81s12.08,35.33,9.06,53.55c-1.95,11.92-6.28,23.31-9.58,34.89-3.3,11.58-5.57,23.91-3.27,35.77,9.85-3.82,7.07,2.68,11.23-7.07,4.16-9.75,6.32-31.13,8.74-41.43,3.99-16.93,4.09-39.5,1.62-55.86Z"/>
    <path class="cls-10" d="M269.63,431.34c-15.11-23.49-50.4-30.74-50.4-30.74-51.66-3.69-60.89,36-66.11,72.16-3.23,22.46,8.75,92.76,8.75,92.76l12.65,4.58h83.19c0-1.52,5.89-14.24,7.34-18.38,7.51-37.68,13.47-106.57,4.58-120.37Z"/>
    <path class="cls-11" d="M226.58,414.06l-3.23-3.09-34.89,14.08c-5.04.27-9.03,4.35-9.2,9.39l.31,113.8c0,7.72,1.49,14.4,6.16,20.54l4.9,6.48c11.19,14.76,34.2,13.55,43.05-2.68.55-.92.96-1.91,1.25-2.94.22-.84.39-1.69.51-2.55,1.05-9.15,1.1-17.09,1.1-17.09.63-10.05.83-14.17.83-14.08s21.39-2.46,27.17-29.92c2.88-13.66,2.33-32.44,1.53-50.99-1.15-25.52-18.91-40.98-39.48-40.95Z"/>
    <path class="cls-10" d="M220.26,472.14c-.08,1.93-1.68,3.44-3.61,3.41-1.87.05-3.44-1.43-3.49-3.3,0-.03,0-.05,0-.08.08-1.92,1.67-3.44,3.6-3.42,1.89-.04,3.46,1.45,3.5,3.34,0,.02,0,.04,0,.05Z"/>
    <path class="cls-10" d="M255.44,473.34c-.08,1.92-1.67,3.43-3.6,3.41-1.88.05-3.45-1.43-3.5-3.31,0-.02,0-.05,0-.07.08-1.92,1.67-3.44,3.6-3.42,1.89-.04,3.46,1.45,3.5,3.34,0,.02,0,.04,0,.05Z"/>
    <path class="cls-10" d="M262.37,462.39c-.47.44-3.06-1.68-6.88-1.87s-6.71,1.6-7.1,1.1c-.2-.21.3-1.03,1.56-1.85,1.71-1.07,3.71-1.58,5.72-1.46,1.99.09,3.9.82,5.45,2.07,1.13.97,1.49,1.82,1.26,2.01Z"/>
    <path class="cls-10" d="M223.59,462.79c-.51.39-2.87-2-6.71-2.56s-6.84.89-7.18.36c-.17-.24.4-.99,1.74-1.69,1.81-.89,3.85-1.19,5.84-.86,1.97.3,3.79,1.21,5.21,2.62,1.1,1.06,1.36,1.96,1.1,2.13Z"/>
    <path class="cls-10" d="M237.01,490.59c0-.21,2.39-.51,6.27-.81.98,0,1.91-.2,2.11-.86.13-1-.04-2.03-.51-2.93-.79-2.41-1.62-4.93-2.51-7.57-3.48-10.73-5.94-19.62-5.5-19.75s3.61,8.48,7.08,19.25c.83,2.68,1.63,5.22,2.39,7.61.55,1.21.66,2.58.31,3.86-.32.68-.94,1.18-1.68,1.34-.55.12-1.11.17-1.66.15-3.94.01-6.29-.09-6.29-.31Z"/>
    <path class="cls-3" d="M237.31,536c-13.04-.48-25.69-4.58-36.54-11.82,0,0,8.36,19.63,36.23,18.44l.31-6.62Z"/>
    <path class="cls-3" d="M234.86,499.77c-1.38-1.94-3.67-3.02-6.04-2.86-1.71.07-3.32.83-4.45,2.11-1.1,1.25-1.32,3.06-.54,4.54,1.19,1.47,3.15,2.07,4.95,1.52,1.84-.55,3.55-1.46,5.03-2.68.44-.28.83-.65,1.14-1.07.29-.42.32-.97.07-1.42"/>
    <path class="cls-10" d="M225.56,492.67c.63,0,.43,4.15,3.84,7.26s7.84,2.88,7.84,3.48c0,.25-1.02.75-2.9.71-2.43-.1-4.75-1.05-6.55-2.68-1.73-1.57-2.79-3.75-2.95-6.08-.07-1.72.44-2.72.72-2.68Z"/>
    <path class="cls-10" d="M227.25,447.9c-.52.97-4.23-.09-8.75-.24s-8.29.51-8.74-.5c-.2-.48.58-1.34,2.17-2.13,4.29-1.86,9.2-1.65,13.32.56,1.53.91,2.23,1.85,1.99,2.31Z"/>
    <path class="cls-10" d="M261.82,445.98c-.72.83-3.3-.2-6.47-.4s-5.88.3-6.44-.64c-.25-.46.21-1.34,1.42-2.07,3.32-1.85,7.42-1.51,10.4.85,1.07.95,1.4,1.87,1.09,2.27Z"/>
    <path class="cls-10" d="M179.91,483.05s19.56,6.09,30.63-42.2c3.78-16.5,19.09-29.88,19.09-29.88l-6.21-1.87s-38.58,10.87-39.23,11.35-9.73,19.95-9.73,19.95l5.45,42.64Z"/>
    <path class="cls-11" d="M184.68,481.25c.09-2.07-2.04-7.04-4.03-7.46-5.37-1.11-15.22-1.18-15.99,12.63-1.07,18.87,18.09,16.1,18.15,15.51s1.58-13.55,1.87-20.68Z"/>
    <path class="cls-3" d="M177.47,494.4c-.08,0-.35.21-.91.43-.8.29-1.68.26-2.46-.08-1.96-.85-3.45-4.11-3.35-7.51.04-1.62.45-3.21,1.19-4.66.42-1.17,1.4-2.06,2.6-2.38.79-.17,1.59.26,1.89,1.01.23.54.08.91.19.95s.42-.3.31-1.09c-.08-.47-.32-.9-.67-1.22-.5-.42-1.15-.63-1.8-.59-1.58.22-2.94,1.23-3.6,2.68-.9,1.59-1.39,3.37-1.44,5.19-.09,3.81,1.65,7.47,4.33,8.43,1.01.35,2.12.23,3.03-.34.6-.32.74-.74.67-.83Z"/>
    <path class="cls-10" d="M193.18,473.82s1.03,0,2.82-.58c2.51-.76,4.8-2.09,6.71-3.89,1.32-1.23,2.5-2.61,3.5-4.11,1.13-1.74,2.09-3.59,2.86-5.51,1.61-4.49,2.96-9.08,4.03-13.73,1.21-4.64,2.66-9.21,4.33-13.7,1.37-3.67,3.02-7.23,4.91-10.65,1.29-2.3,2.73-4.52,4.32-6.63.56-.75,1.05-1.34,1.34-1.68.15-.2.32-.38.51-.55-.13.21-.27.42-.43.62-.28.4-.74.95-1.34,1.72-1.53,2.15-2.92,4.39-4.17,6.71-1.84,3.43-3.44,6.99-4.79,10.64-1.54,4.13-2.97,8.76-4.28,13.67-1.09,4.67-2.47,9.27-4.12,13.77-.79,1.95-1.78,3.81-2.94,5.57-1.03,1.52-2.25,2.9-3.61,4.13-1.96,1.81-4.33,3.12-6.91,3.82-.89.25-1.81.37-2.74.38Z"/>
    <path class="cls-5" d="M163.97,552.5c.3-2.18.43-4.39.42-6.59-.08-6.03-.69-12.04-1.82-17.97l-2.2-12.24c-.85-4.68-1.41-9.4-1.69-14.14-.33-5.23.05-10.49,1.14-15.62.62-2.69,1.52-5.32,2.68-7.82,1.21-2.58,2.71-5.02,4.47-7.26,3.57-4.36,7.55-8.37,11.87-11.97,4.13-3.57,8.05-7.08,11.62-10.73,6.27-6.35,11.95-13.25,16.96-20.64,3.39-4.97,6.46-10.14,9.19-15.5.97-1.89,1.69-3.38,2.15-4.4.21-.49.39-.88.52-1.17.08-.12.13-.26.16-.4l-.21.39-.56,1.13c-.5,1.01-1.23,2.48-2.23,4.36-6.97,13.23-15.86,25.35-26.39,35.97-3.52,3.58-7.46,7.07-11.61,10.65-4.37,3.63-8.37,7.67-11.96,12.08-1.78,2.27-3.3,4.74-4.52,7.35-1.17,2.55-2.06,5.21-2.68,7.94-1.09,5.18-1.47,10.48-1.13,15.75.29,4.76.87,9.5,1.74,14.18.82,4.4,1.57,8.49,2.27,12.24,1.17,5.89,1.83,11.86,1.99,17.86,0,2.12,0,3.77-.12,4.88,0,.54,0,.97-.08,1.34s.03.31.03.31Z"/>
    <path class="cls-5" d="M157.91,554.28c.3-2.18.43-4.39.42-6.59-.08-6.02-.69-12.02-1.82-17.93-.67-3.74-1.34-7.84-2.19-12.24-.86-4.67-1.42-9.4-1.69-14.14-.34-5.23.05-10.48,1.14-15.61.61-2.7,1.51-5.33,2.68-7.84,1.21-2.58,2.71-5.01,4.47-7.26,3.57-4.36,7.55-8.36,11.89-11.96,4.13-3.58,8.05-7.1,11.61-10.73,6.27-6.35,11.95-13.26,16.97-20.64,3.37-4.95,6.42-10.12,9.14-15.46.97-1.89,1.68-3.38,2.13-4.4.23-.5.4-.87.52-1.17.07-.13.12-.26.17-.4-.08.12-.15.25-.21.39-.15.27-.34.66-.58,1.14-.48,1.01-1.23,2.47-2.23,4.35-6.95,13.2-15.81,25.3-26.31,35.89-3.52,3.58-7.47,7.07-11.61,10.65-4.37,3.62-8.38,7.67-11.96,12.08-1.78,2.27-3.31,4.73-4.54,7.34-1.17,2.55-2.07,5.21-2.68,7.94-1.1,5.17-1.48,10.48-1.13,15.75.29,4.76.87,9.5,1.74,14.18.81,4.4,1.57,8.49,2.25,12.24,1.17,5.89,1.83,11.86,2,17.86,0,2.12,0,3.77-.12,4.88l-.08,1.27c-.02.12-.02.25,0,.38Z"/>
    <path class="cls-10" d="M130.61,800.99s-1.76-15.71,8.29-41.94c8.23-21.47,17.89-33.37,17.89-33.37l130.16-8.57,10.04,83.89h-166.37Z"/>
    <path class="cls-8" d="M285.42,668.32c1.91-28.97,0-72.89,0-72.89l-21.47-36.05-28.29-4.44s-.08,19.81-14.88,23.08c-25.32,5.6-41.82-24.85-41.82-24.85-2.39,0-38.4,7.57-49.82,18.44-11.73,11.16-31.14,40.76-36.62,49.26h0s-38,55.39-43.53,70.58c-3.06,7.84-2.38,16.64,1.85,23.91,1.15,3.42,36.23,53.77,63.43,73.88l2.12-4.03,14.1-24.15-36.52-60.01,42.4-44.68,8.33-7.82,2.39,10.53,10.28,49.54s-20.48,40.94-23.35,62.22c0,0,100.64,34.7,162.8,17.56-.03,0-13.32-91.1-11.41-120.08Z"/>
    <path class="cls-11" d="M179.54,750.17s-17.04-4.6-18.79-3.64-14.44,7.68-14.44,7.68c-1.85,2.3-3.86,4.47-6,6.51,0,0-4.37,4.15-7.38,4.28-1.61.12-3.24-.05-4.79-.51l-11.78,20.73s6.99,6.71,10.73,6.59,24.15-8.69,24.15-8.69l4.96-1.07s18.62,2.68,20.13-2.91l.28-1.6-18.3-3.58-6.96.4,12.33-3.18s17.44.85,19.09.56,3.73-2.6,3.19-4.03l-3.6-.85s4.23-2.31,4.36-4.83l-16.1-4.36s10.35-3.89,8.9-7.5Z"/>
    <path class="cls-3" d="M184.27,766.79c-.51-.06-1.01-.18-1.49-.36-.94-.28-2.29-.66-4.03-1.1-3.39-.87-8.05-1.99-13.31-3.14-.62-.16-1.26-.28-1.89-.38-.6-.04-1.2,0-1.78.13-1.17.32-2.35.72-3.44,1.09-2.17.74-4.12,1.49-5.72,2.17s-2.86,1.34-3.7,1.81c-.42.28-.87.52-1.34.72.34-.38.74-.71,1.18-.98,1.16-.76,2.38-1.44,3.64-2.04,1.86-.88,3.77-1.66,5.72-2.35,1.11-.4,2.23-.81,3.49-1.15.66-.16,1.35-.22,2.03-.16.71,0,1.34.25,2,.38,5.22,1.17,9.92,2.36,13.27,3.38,1.69.51,3.03.97,3.94,1.34.51.14.99.35,1.44.63Z"/>
    <path class="cls-3" d="M170.99,758.45c-.07.11-1.34-.6-3.44-1.26-5.64-1.78-11.79-.87-16.68,2.47-1.87,1.25-2.83,2.28-2.93,2.19.7-1.07,1.61-1.99,2.68-2.68,4.91-3.71,11.38-4.67,17.16-2.54,1.17.39,2.26,1.01,3.19,1.82Z"/>
    <polygon class="cls-8" points="372.86 628.87 306.44 579.42 281.65 563.09 263.32 559.37 271.1 636.81 288.32 636.81 362.37 669 453.09 676.7 454.42 648.58 372.86 628.87"/>
    <path class="cls-10" d="M286.65,702.26c-.06-.38-.1-.77-.11-1.15,0-.82-.08-1.91-.13-3.29-.11-2.87-.23-7.02-.32-12.08s-.16-11.23-.17-17.99,0-14.22,0-22.03c0-15.63-2.97-29.52-5.3-39.52-1.17-4.98-2.19-8.99-2.87-11.77-.34-1.34-.59-2.42-.79-3.21-.1-.37-.17-.75-.21-1.13.15.35.27.72.36,1.09.21.79.52,1.84.9,3.17.76,2.76,1.87,6.71,3.1,11.74,3.43,12.93,5.28,26.23,5.51,39.61.12,7.82,0,15.27,0,22.05v17.98c0,5.11,0,9.2.09,12.08v3.3c.02.39,0,.77-.05,1.15Z"/>
    <g class="cls-17">
      <path class="cls-4" d="M286.2,638.27c5.44-20.45.04-42.25-14.3-57.8,7.54,18.08,12.4,37.17,14.44,56.65"/>
    </g>
    <path class="cls-7" d="M231.44,401.19c-41.6,3.73-43.22,54.57-48.75,94.68-7.9,57.3,34.01,69.6,34.01,69.6l-52.08-9.77s-28.49-11.53-28.29-43.15,5.18-70.34,38.34-99.75c28.63-25.41,54.14-13.34,56.76-11.61Z"/>
    <path class="cls-7" d="M271.89,553.16c-3.14-2.84-1.92-3.93-10.91-4.75-10.16-.94-21.47,5.56-31.6,6.91s-20.91,0-29.39-5.66c-9.96-6.63-15.32-18.06-20.29-28.93l-24.42,20.13c-4.79,3.86-7.5,9.74-7.34,15.89-.04,1.04.16,2.07.59,3.02,1.42,2.15,11.9-2.93,14.01-1.45,11.19,7.82,15.95,20.25,26.21,29.28,11.98,10.53,23.07,18.91,31.51,18.61s24.02-9.22,29.6-19.58c5.17-9.57,9.67-16.54,13.74-23.84,2.13-3.86,9.58,1.56,10.48-3.02.47-2.43-.36-4.93-2.19-6.6Z"/>
    <path class="cls-10" d="M136.37,612.9c.13.31.23.63.3.95l.74,2.76c.62,2.48,1.48,5.94,2.52,10.18,2.08,8.63,4.88,20.56,7.85,33.76s5.53,25.19,7.23,33.89c.85,4.36,1.48,7.89,1.87,10.35.17,1.17.3,2.11.4,2.82.07.33.1.66.09.99-.11-.31-.18-.64-.23-.97-.13-.71-.31-1.64-.54-2.8-.51-2.51-1.21-6-2.08-10.29-1.82-8.67-4.47-20.64-7.42-33.84-2.95-13.2-5.69-25.08-7.66-33.79-.95-4.27-1.74-7.76-2.31-10.25-.24-1.15-.44-2.08-.6-2.79-.08-.32-.14-.65-.16-.98Z"/>
    <path class="cls-10" d="M271.89,558.42c-.08.07-.17.13-.27.17l-.83.48c-1.06.64-2.16,1.21-3.29,1.73-4.14,1.92-8.48,3.37-12.95,4.32-6.62,1.42-13.36,2.19-20.13,2.29-7.63.23-16.01-.16-24.77-.74-4.39-.28-8.68-.71-12.79-1.34s-8.05-1.49-11.71-2.43c-6.55-1.69-12.92-4.02-19.01-6.96-4.11-1.98-8.05-4.28-11.78-6.9-1.34-.89-2.29-1.7-2.98-2.2l-.75-.6c-.17-.13-.25-.21-.24-.23l.28.17.81.54c.7.47,1.68,1.25,3.05,2.09,3.77,2.53,7.73,4.77,11.83,6.71,6.1,2.85,12.44,5.12,18.96,6.79,3.68.91,7.58,1.72,11.66,2.36s8.35,1.05,12.72,1.34c8.76.58,17.11.98,24.7.79,6.74-.08,13.45-.81,20.05-2.17,4.44-.9,8.77-2.27,12.92-4.09,1.5-.59,2.56-1.25,3.34-1.6l.86-.42c.1-.06.21-.1.32-.12Z"/>
    <path class="cls-10" d="M192.12,563.87l-.25-.16-.74-.54-2.8-2.09c-1.21-.93-2.68-2.13-4.31-3.49-.83-.68-1.68-1.48-2.6-2.28s-1.87-1.68-2.83-2.68c-4.64-4.39-8.7-9.35-12.08-14.76-4.13-6.71-6.47-14.36-6.79-22.23-.08-7.83.99-15.64,3.18-23.16,1.84-6.95,3.84-13.1,5.46-18.29,1.62-5.19,2.88-9.31,3.81-12.26.42-1.41.75-2.54,1.01-3.35.11-.35.2-.63.28-.86.02-.1.06-.2.12-.3v.31l-.21.89-.89,3.38c-.81,2.93-2.03,7.15-3.6,12.34s-3.52,11.37-5.37,18.3c-2.12,7.47-3.17,15.2-3.1,22.96.33,7.77,2.64,15.33,6.71,21.95,3.35,5.39,7.35,10.35,11.92,14.76.95.97,1.89,1.85,2.8,2.68s1.73,1.62,2.55,2.32c1.65,1.34,3.03,2.62,4.23,3.57l2.68,2.2.7.59c.05.12.13.19.12.2Z"/>
    <path class="cls-10" d="M231.44,401.19c0,.15-2.16.25-5.5,1.22-1.95.57-3.85,1.31-5.69,2.19-2.23,1.11-4.38,2.38-6.43,3.8-3.7,2.63-7.16,5.59-10.33,8.84-2.44,2.5-3.88,4.12-4.03,4.03.25-.45.54-.87.89-1.25.6-.76,1.53-1.85,2.68-3.14,3.09-3.39,6.54-6.43,10.28-9.08,2.08-1.44,4.28-2.71,6.56-3.8,1.87-.88,3.82-1.57,5.82-2.08.77-.21,1.55-.38,2.33-.5.59-.12,1.18-.19,1.78-.21.54-.07,1.08-.07,1.62-.01Z"/>
    <g class="cls-17">
      <path class="cls-4" d="M178.28,444.64c.34-1.26.61-2.54.79-3.84.1-1.15-.75-2.17-1.91-2.27-.92-.08-1.77.45-2.12,1.3-2.76,7.28-5.5,14.56-8.24,21.84-5.37,14.4-10.94,29.16-11.22,44.53-.28,15.38,4.63,32.5,17.63,40.72l-3.78-6.71c-9.81-13.42-10.08-31.77-6.33-48s11.02-31.47,15.18-47.59Z"/>
    </g>
    <path class="cls-10" d="M272.68,562.11c-.07,0,.32-.62.62-1.78.37-1.66.21-3.4-.44-4.96-.99-2.32-2.83-4.17-5.14-5.17-2.84-1.24-5.95-1.7-9.03-1.34-3.1.32-6.18.85-9.22,1.58-2.82.64-5.37,1.34-7.42,1.97s-3.76,1.19-4.92,1.58c-.59.23-1.19.42-1.81.56.54-.34,1.12-.61,1.72-.82,1.14-.47,2.79-1.1,4.87-1.8s4.59-1.45,7.42-2.13c3.06-.78,6.17-1.33,9.31-1.65,3.21-.37,6.45.14,9.39,1.46,2.45,1.09,4.37,3.09,5.37,5.58.64,1.66.72,3.49.23,5.21-.13.47-.33.92-.58,1.34-.1.14-.22.26-.36.36Z"/>
    <g class="cls-17">
      <path class="cls-4" d="M258.85,564.55c-15.99,7.11-33.63,9.69-50.99,7.47-17.26-2.24-31.64-7.25-45.19-18.15,0,0,21.62,12.48,55.18,12.75,27.84.24,41.01-2.07,41.01-2.07Z"/>
    </g>
  </g>
</svg>