<?xml version="1.0" encoding="UTF-8"?>
<svg id="Layer_2" data-name="Layer 2" xmlns="http://www.w3.org/2000/svg" viewBox="0 0 1000 1000">
  <defs>
    <style>
      .cls-1 {
        fill: #000;
      }

      .cls-1, .cls-2, .cls-3, .cls-4, .cls-5, .cls-6, .cls-7, .cls-8, .cls-9, .cls-10, .cls-11 {
        stroke-width: 0px;
      }

      .cls-2 {
        fill: #e0e0e0;
      }

      .cls-3 {
        fill: #eb996e;
      }

      .cls-4 {
        fill: #455a64;
      }

      .cls-5 {
        fill: #f5f5f5;
      }

      .cls-6 {
        fill: #09f;
      }

      .cls-7 {
        fill: #ffbe9d;
      }

      .cls-8 {
        fill: #ebebeb;
      }

      .cls-12 {
        opacity: .3;
      }

      .cls-13 {
        opacity: .6;
      }

      .cls-9 {
        fill: #263238;
      }

      .cls-10 {
        fill: #fafafa;
      }

      .cls-11 {
        fill: #fff;
      }

      .cls-14 {
        opacity: .2;
      }
    </style>
  </defs>
  <g id="freepik--background-complete--inject-2">
    <rect class="cls-2" x="658.03" y="718.69" width="17.84" height="213.7"/>
    <path class="cls-8" d="M540.75,728.34h255.11c0-15.29-12.4-27.69-27.69-27.69h-199.74c-15.29.01-27.67,12.4-27.69,27.69h0Z"/>
    <path class="cls-2" d="M796.89,729.39h-257.17v-1.05c.02-15.85,12.87-28.69,28.72-28.72h199.74c15.85.02,28.69,12.87,28.72,28.72v1.05ZM541.8,727.31h253.01c-.56-14.3-12.32-25.61-26.63-25.63h-199.74c-14.32.01-26.07,11.32-26.63,25.63h0Z"/>
    <path class="cls-2" d="M649.63,728.88c0,.37,7.01.66,15.65.66s15.65-.28,15.65-.66c-5.19-.65-10.42-.87-15.65-.66-5.23-.21-10.46,0-15.65.66Z"/>
    <path class="cls-8" d="M588.93,951.71h2.52c-.71-41.92,32.69-76.48,74.61-77.19,41.92-.71,76.48,32.69,77.19,74.61.01.86.01,1.72,0,2.58h2.52c.72-43.31-33.8-79.01-77.11-79.73-43.31-.72-79.01,33.8-79.73,77.11-.01.87-.01,1.75,0,2.62h0Z"/>
    <path class="cls-2" d="M732.75,955.63c-.01,6.5,5.25,11.78,11.75,11.79,6.5.01,11.78-5.25,11.79-11.75.01-6.5-5.25-11.78-11.75-11.79h-.02c-6.49-.01-11.76,5.24-11.77,11.73v.02Z"/>
    <path class="cls-2" d="M577.84,954.01c-.01,6.5,5.25,11.78,11.75,11.79,6.5.01,11.78-5.25,11.79-11.75.01-6.5-5.25-11.78-11.75-11.79h-.02c-6.49,0-11.76,5.26-11.77,11.75Z"/>
    <path class="cls-8" d="M589.7,932.37c0,.37,34.11.66,76.2.66s76.22-.28,76.22-.66-34.11-.66-76.22-.66-76.2.26-76.2.66Z"/>
    <path class="cls-8" d="M803.36,507.11v157.3c.06,20.58-16.57,37.31-37.16,37.37-.04,0-.07,0-.11,0h-121.33l16.48-194.68c-.01-9.19,7.43-16.65,16.62-16.66h108.84c9.2,0,16.66,7.46,16.66,16.66h0Z"/>
    <path class="cls-2" d="M760.5,700.65c.07-.17.17-.32.28-.46l.88-1.29c.81-1.1,1.95-2.78,3.33-4.98,3.9-6.25,6.93-13,9.03-20.06,1.46-4.85,2.47-9.83,3-14.86.5-5.83.66-11.69.48-17.54v-40.22c0-28.5.13-54.25.18-73.06,0-9.25.15-16.79.22-22.14,0-2.52,0-4.54.11-6.03-.01-.7.03-1.39.13-2.08.1.69.14,1.39.13,2.08,0,1.49,0,3.51.11,6.03,0,5.35.13,12.89.2,22.14,0,18.81.13,44.59.2,73.06v40.22c.13,5.85-.07,11.71-.61,17.54-.57,5.1-1.64,10.12-3.18,15.02-2.2,7.1-5.4,13.85-9.49,20.06-1.45,2.19-2.65,3.81-3.53,4.87-.42.62-.91,1.2-1.47,1.71Z"/>
    <path class="cls-2" d="M694.5,700.74c1.28-.18,2.57-.25,3.86-.22l10.5-.13h34.66c6.77,0,13.15,0,19.07.22,5.24-.09,10.47.48,15.56,1.71,3.44.92,6.64,2.59,9.36,4.89.74.62,1.42,1.3,2.04,2.04.44.5.64.77.61.81s-.99-.99-2.96-2.46c-2.76-2.08-5.91-3.57-9.27-4.38-5.04-1.08-10.19-1.54-15.34-1.38l-19.07-.13c-13.53,0-25.78-.26-34.63-.44l-10.5-.26c-1.3.02-2.6-.07-3.88-.26Z"/>
    <rect class="cls-2" x="262.47" y="611.04" width="678.46" height="23.87"/>
    <polygon class="cls-2" points="295.99 631.97 228.89 967.49 240.24 967.49 319.68 634.91 295.99 631.97"/>
    <polygon class="cls-2" points="860.83 631.27 927.91 967.49 916.58 967.49 837.12 634.91 860.83 631.27"/>
    <path class="cls-5" d="M393.31,537.41v41.65h-6.95v4.38h6.95v27.84h129.86v-25.36h-9.62v-5.5h9.62v-8.29h4.38v-3.77h-5.06v-30.95h-129.18Z"/>
    <polygon class="cls-2" points="488.69 537.41 488.69 610.8 523.17 610.8 523.17 585.46 513.55 585.46 513.55 580.42 523.17 580.57 523.17 572.31 527.53 572.31 527.44 568.03 522.38 567.9 522.38 537.3 488.69 537.41"/>
    <path class="cls-2" d="M491.14,582.83c0,.24-23.5.46-52.48.46s-52.5-.22-52.5-.46,23.5-.46,52.5-.46,52.48.2,52.48.46Z"/>
    <path class="cls-2" d="M491.14,578.6c0,.24-23.5.46-52.48.46s-52.5-.22-52.5-.46,23.5-.46,52.5-.46,52.48.2,52.48.46Z"/>
    <path class="cls-2" d="M497.9,567.22c0,.24-23.5.46-52.61.46s-52.48-.22-52.48-.46,23.5-.46,52.48-.46,52.61.2,52.61.46Z"/>
    <path class="cls-2" d="M498.53,598.22c0,.26-23.5.46-52.48.46s-52.48-.2-52.48-.46,23.48-.46,52.48-.46,52.48.2,52.48.46Z"/>
    <rect class="cls-10" x="33.31" y="26.59" width="216.66" height="193.84"/>
    <path class="cls-2" d="M249.97,220.44v-13.99c0-9.1,0-22.4-.13-39.46,0-33.87-.15-82.27-.26-140.51l.5.48H33.42l.57-.57v193.84l-.5-.53,156.71.26,44.19.13h15.76-15.54l-44.08.13-157.04.26h-.53V26h217.74v.66c0,58.37-.18,106.86-.24,140.82,0,16.9,0,30.16-.13,39.24v10.28c0,2.35-.35,3.44-.35,3.44Z"/>
    <path class="cls-2" d="M116.39,61.03c0,.31-11.42.57-25.47.57s-25.47-.26-25.47-.57,11.4-.59,25.47-.59,25.47.26,25.47.59Z"/>
    <path class="cls-2" d="M208.19,75.58c0,.31-31.35.57-69.97.57s-69.99-.26-69.99-.57,31.32-.59,69.99-.59,69.97.26,69.97.59Z"/>
    <rect class="cls-2" x="65.82" y="100.25" width="9.12" height="9.12"/>
    <rect class="cls-2" x="88.29" y="100.25" width="9.12" height="9.12"/>
    <rect class="cls-2" x="111.17" y="99.83" width="9.12" height="9.12"/>
    <rect class="cls-2" x="133.22" y="100.25" width="9.12" height="9.12"/>
    <rect class="cls-2" x="155.69" y="100.25" width="9.12" height="9.12"/>
    <rect class="cls-2" x="178.16" y="100.25" width="9.12" height="9.12"/>
    <rect class="cls-8" x="200.63" y="100.25" width="9.12" height="9.12"/>
    <rect class="cls-8" x="65.82" y="119.64" width="9.12" height="9.12"/>
    <rect class="cls-2" x="88.29" y="119.64" width="9.12" height="9.12"/>
    <rect class="cls-8" x="110.76" y="119.64" width="9.12" height="9.12"/>
    <rect class="cls-2" x="133.22" y="119.64" width="9.12" height="9.12"/>
    <rect class="cls-2" x="155.69" y="119.64" width="9.12" height="9.12"/>
    <rect class="cls-2" x="178.58" y="119.23" width="9.12" height="9.12"/>
    <rect class="cls-2" x="200.63" y="119.64" width="9.12" height="9.12"/>
    <rect class="cls-2" x="65.82" y="139.04" width="9.12" height="9.12"/>
    <rect class="cls-2" x="88.7" y="138.63" width="9.12" height="9.12"/>
    <rect class="cls-2" x="110.76" y="139.04" width="9.12" height="9.12"/>
    <rect class="cls-8" x="133.22" y="139.04" width="9.12" height="9.12"/>
    <rect class="cls-2" x="155.69" y="139.04" width="9.12" height="9.12"/>
    <rect class="cls-2" x="178.16" y="139.04" width="9.12" height="9.12"/>
    <rect class="cls-2" x="200.63" y="139.04" width="9.12" height="9.12"/>
    <rect class="cls-2" x="65.82" y="158.44" width="9.12" height="9.12"/>
    <rect class="cls-2" x="88.29" y="158.44" width="9.12" height="9.12"/>
    <rect class="cls-2" x="110.76" y="158.44" width="9.12" height="9.12"/>
    <rect class="cls-2" x="133.64" y="158.05" width="9.12" height="9.12"/>
    <rect class="cls-2" x="155.69" y="158.44" width="9.12" height="9.12"/>
    <rect class="cls-8" x="178.16" y="158.44" width="9.12" height="9.12"/>
    <rect class="cls-2" x="200.63" y="158.44" width="9.12" height="9.12"/>
    <rect class="cls-2" x="65.82" y="177.87" width="9.12" height="9.12"/>
    <rect class="cls-8" x="88.29" y="177.87" width="9.12" height="9.12"/>
    <rect class="cls-2" x="110.76" y="177.87" width="9.12" height="9.12"/>
    <rect class="cls-2" x="133.22" y="177.87" width="9.12" height="9.12"/>
    <rect class="cls-2" x="155.69" y="177.87" width="9.12" height="9.12"/>
    <rect class="cls-2" x="178.58" y="177.45" width="9.12" height="9.12"/>
    <rect class="cls-2" x="200.63" y="177.87" width="9.12" height="9.12"/>
    <rect class="cls-8" x="829.77" y="51.89" width="106.64" height="28.21"/>
    <path class="cls-2" d="M891.33,109.8c-.02-.17-.02-.34,0-.5v-7.08c0-4.87,0-11.88-.18-20.71l.33.33-106.64.22c.24-.24-.55.55.53-.55h0v28.3l-.53-.53,76,.24,22.42.15h8.22-7.98l-22.53.44-76.37.24h-.35v-28.74h0c1.07-1.07.31-.28.55-.53l106.64.2h.22v.33c0,8.92-.13,15.98-.18,20.91v6.86c-.04.14-.09.28-.15.42Z"/>
    <rect class="cls-8" x="356.84" y="744.29" width="106.64" height="28.21"/>
    <path class="cls-2" d="M418.39,802.23c-.02-.18-.02-.35,0-.53v-6.99c0-4.87-.11-11.88-.18-20.69l.33.33-106.64.2.53-.53h0v28.17l-.53-.53,76,.24,22.42.15h8.22-7.98l-22.29.15-76.37.24h-.55v-28.3h0l.55-.55,106.64.22h.33v.33c0,8.9-.13,15.98-.18,20.89v6.86c-.1.12-.2.23-.31.33Z"/>
    <path class="cls-2" d="M935.36,446.52c-.02-.17-.02-.34,0-.5v-6.99c0-4.89-.11-11.88-.18-20.71l.33.33-106.64.22c.24-.24-.55.55.53-.55h0v28.19l-.55-.53,76.02.24,22.42.15h8.22c-.17.02-.34.02-.5,0h-7.47l-22.29.15-76.39.24h-.77v-28.43h0c1.07-1.07.31-.28.55-.53l106.64.2h.33v.33c0,8.92-.15,15.98-.2,20.91v6.86c0,.14-.02.28-.04.42Z"/>
    <path class="cls-2" d="M949.81,418.31v-2.02c0-1.4,0-3.29-.11-5.66,0-4.95-.11-11.95-.2-20.54l.37.39-64.07.15.55-.55h0v14.51c0,4.73,0,9.29,0,13.68l-.53-.5,45.84.24,13.35.13h4.89c-.39.03-.78.03-1.16,0h-3.49l-13.15.15-46.19.24h-.5v-28.72h0l.55-.55,64.07.15h.39v.39c0,8.77-.15,15.76-.2,20.76,0,2.35,0,4.21-.11,5.57-.03.72-.13,1.44-.31,2.15Z"/>
    <path class="cls-2" d="M141.27,418.8c-.02-.17-.02-.34,0-.5v-7.01c0-4.87,0-11.86-.2-20.69l.33.33-106.62.22c.22-.24-.55.53.53-.55h0v28.17l-.53-.53,76,.24,22.45.15h8.22c-.17.02-.34.02-.5,0h-1.51l-6.23.42h-22.23l-76.42.28h-.53v-28.78h0c1.1-1.1.31-.31.57-.55l106.62.22h.35v.33c0,8.92-.15,15.98-.2,20.89v6.88c-.02.16-.06.33-.11.48Z"/>
    <path class="cls-2" d="M155.72,390.54v-7.69c0-4.93-.13-11.92-.22-20.52l.39.39-64.34.2c-.48.48.66-.68.55-.55h0v28.17l-.53-.53,46.01.31,13.15.22h4.89c-.39.03-.78.03-1.16,0h-3.49l-13.15.13-46.27.44h-.44v-28.74h0l.55-.55,64.07.15h.39v.39c0,8.77-.15,15.76-.22,20.76v5.57c-.03.62-.09,1.23-.2,1.84Z"/>
  </g>
  <g id="freepik--Floor--inject-2">
    <path class="cls-9" d="M967.04,967.49c0,.31-200.62.57-448.01.57s-448.06-.26-448.06-.57,200.57-.57,448.06-.57,448.01.26,448.01.57Z"/>
  </g>
  <g id="freepik--Charts--inject-2">
    <rect class="cls-5" x="396.51" y="200.66" width="359.3" height="272.14"/>
    <path class="cls-9" d="M755.75,472.81v-19.47c0-12.69,0-31.28-.13-55.02,0-47.44-.13-115.41-.24-197.66l.48.46h-359.28l.57-.57v272.14l-.5-.53,259.36.26,73.63.13h26.3-26.02l-73.5.13-259.72.26h-.53V199.74h360.35v.48c-.11,82.36-.18,150.44-.24,197.94,0,23.7,0,42.26-.13,54.8v14.4c-.42,3.79-.42,5.44-.42,5.44Z"/>
    <rect class="cls-6" x="502.5" y="328.13" width="24.27" height="65.63"/>
    <rect class="cls-6" x="605.46" y="328.13" width="24.27" height="65.63"/>
    <rect class="cls-6" x="639.79" y="289.6" width="24.27" height="104.17"/>
    <rect class="cls-6" x="471.11" y="373.11" width="24.27" height="22.07"/>
    <rect class="cls-6" x="536.83" y="357.77" width="24.27" height="35.99"/>
    <rect class="cls-6" x="571.15" y="349.5" width="24.27" height="44.26"/>
    <circle class="cls-6" cx="488.84" cy="303.23" r="5.22"/>
    <path class="cls-9" d="M569.27,214.06c.31,0,.57,23.96.57,53.51s-.26,53.51-.57,53.51-.57-23.96-.57-53.51.24-53.51.57-53.51Z"/>
    <path class="cls-9" d="M730.47,253.16c-1.25.16-2.51.24-3.77.22l-10.32.18c-8.77.11-20.76.18-34.04.18h-18.74c-1.37-.08-2.75-.04-4.12.13-1.23.22-2.4.71-3.42,1.45-1.87,1.33-3.15,3.32-3.6,5.57-.15,1-.2,2.01-.18,3.03v7.17c.03,1.27-.04,2.54-.22,3.79-.16-1.26-.24-2.52-.22-3.79v-7.17c-.1-1.05-.1-2.11,0-3.16.42-2.49,1.8-4.72,3.84-6.2,1.12-.83,2.42-1.4,3.79-1.67,1.45-.2,2.92-.27,4.38-.2h18.74c13.28,0,25.32,0,34.04.15l10.32.2c1.17-.05,2.34,0,3.51.13Z"/>
    <path class="cls-6" d="M682.51,284.6c-.2-.03-.4-.08-.59-.15l-1.69-.59c-.75-.26-1.64-.64-2.76-.99l-3.81-1.1c-20.62-5.22-42.5-.97-59.67,11.6-5.78,4.6-11.11,9.74-15.91,15.34-5.26,5.59-10.96,11.64-18.61,15.13-3.77,1.72-7.89,2.57-12.03,2.5-4-.15-7.94-.98-11.66-2.46-6.85-2.97-13.36-6.69-19.4-11.09-5.51-3.75-11.39-6.94-17.54-9.51-5.4-2.16-11.22-3.09-17.03-2.72-8.44.47-16.67,2.79-24.11,6.8-2.02,1.09-3.96,2.31-5.81,3.66l-1.45,1.1c-.15.13-.32.24-.5.33,2.26-2.15,4.8-4,7.54-5.48,7.47-4.2,15.78-6.67,24.33-7.21,5.93-.44,11.88.47,17.4,2.65,6.27,2.54,12.26,5.73,17.87,9.51,6,4.33,12.44,8.01,19.22,10.96,3.61,1.42,7.43,2.23,11.31,2.39,3.97.05,7.91-.78,11.53-2.41,7.39-3.35,13-9.27,18.24-14.86,4.87-5.65,10.27-10.84,16.11-15.48,10.3-7.48,22.41-12.07,35.07-13.31,8.5-.82,17.08-.08,25.32,2.19l3.81,1.21c1.1.37,1.99.79,2.74,1.07l1.64.7c.26.11.46.2.44.22Z"/>
    <circle class="cls-6" cx="569.27" cy="324.65" r="5.22"/>
    <circle class="cls-6" cx="652.55" cy="279.23" r="5.22"/>
    <path class="cls-9" d="M495.37,403.8c-4.06.58-8.16.77-12.25.57-4.09.2-8.18,0-12.23-.57,4.05-.56,8.15-.75,12.23-.57,4.09-.18,8.2,0,12.25.57Z"/>
    <path class="cls-9" d="M527.23,403.8c-4.06.58-8.16.77-12.25.57-4.09.2-8.2,0-12.25-.57,4.06-.56,8.16-.75,12.25-.57,4.09-.18,8.19,0,12.25.57Z"/>
    <path class="cls-9" d="M562.71,403.8c-4.06.58-8.16.77-12.25.57-4.09.2-8.2,0-12.25-.57,4.06-.56,8.16-.75,12.25-.57,4.09-.18,8.2,0,12.25.57Z"/>
    <path class="cls-9" d="M596.56,403.8c-8.15.76-16.36.76-24.51,0,8.15-.76,16.36-.76,24.51,0Z"/>
    <path class="cls-9" d="M629.55,403.8c-8.15.76-16.36.76-24.51,0,8.15-.76,16.36-.76,24.51,0Z"/>
    <path class="cls-9" d="M662.56,403.8c-8.15.76-16.36.76-24.51,0,8.15-.76,16.36-.76,24.51,0Z"/>
    <path class="cls-9" d="M473.23,424.49h-3.38v-2.02h9.23v2.02h-3.4v8.59h-2.46v-8.59Z"/>
    <path class="cls-9" d="M487.18,433.09l-2.04-2.96h-2.19v2.96h-2.52v-10.61h4.58c2.83,0,4.6,1.47,4.6,3.86.06,1.47-.82,2.82-2.19,3.35l2.37,3.4h-2.61ZM484.98,424.49h-1.99v3.68h1.99c1.49,0,2.19-.7,2.19-1.84s-.81-1.84-2.3-1.84h.11Z"/>
    <path class="cls-9" d="M499.78,431.11v1.97h-8.22v-10.61h8.02v1.97h-5.59v2.3h4.93v1.91h-4.93v2.46h5.79Z"/>
    <path class="cls-9" d="M511.46,422.48v10.61h-2.02l-5.28-6.44v6.44h-2.43v-10.61h2.04l5.26,6.44v-6.44h2.43Z"/>
    <path class="cls-9" d="M513.99,422.48h4.82c2.93-.27,5.52,1.89,5.79,4.82.27,2.93-1.89,5.52-4.82,5.79-.32.03-.64.03-.97,0h-4.82v-10.61ZM518.68,431.07c1.82,0,3.29-1.47,3.29-3.29s-1.47-3.29-3.29-3.29h-2.19v6.58h2.19Z"/>
    <path class="cls-9" d="M484.92,302.07c-.39.1-.8.14-1.21.13h-3.46l-12.74.2h-30.05c-2,.08-4,0-5.98-.26-2.07-.38-4.06-1.13-5.87-2.19-3.61-2.08-6.36-5.37-7.76-9.29-.68-1.85-1.04-3.8-1.05-5.77v-5.46c0-7.08,0-13.48.13-18.9s.13-9.58.18-12.74c0-1.4,0-2.54.11-3.46-.01-.4.03-.81.11-1.21.06.4.06.81,0,1.21,0,.92,0,2.06.11,3.46,0,3.16,0,7.47.2,12.74s0,11.82,0,18.9c.11,3.55-.35,7.32,1.05,10.83,1.31,3.69,3.89,6.8,7.28,8.77,1.71.97,3.57,1.64,5.5,1.97,1.92.25,3.85.34,5.79.26h11.16l18.9.13,12.74.18,3.46.11c.49.08.96.22,1.42.39Z"/>
    <polygon class="cls-10" points="729.11 208.8 729.11 370.33 748.65 370.33 775.56 370.33 900.99 370.33 900.99 208.8 729.11 208.8"/>
    <path class="cls-9" d="M729.11,208.8h12.28l34.92-.13,124.68-.24h.5v162.02h0v.37h-172.95v-.48c.11-48.58.2-89.02.26-117.32,0-14.07,0-25.14.13-32.73v-11.49,11.79c0,7.61,0,18.72.13,32.88,0,28.23.13,68.57.24,117.01l-.48-.48h171.88l-.57.57h0v-161.51l.5.5-124.36-.26h-46.76l-.42-.5Z"/>
    <path class="cls-6" d="M814.28,227.1c-29.3,0-53.05,23.75-53.05,53.05s23.75,53.05,53.05,53.05c29.3,0,53.05-23.75,53.05-53.05s-23.75-53.05-53.05-53.05h0ZM815.09,311.91c-17.99,0-32.57-14.58-32.57-32.57s14.58-32.57,32.57-32.57c17.99,0,32.57,14.58,32.57,32.57h0c0,17.99-14.58,32.57-32.57,32.57Z"/>
    <path class="cls-2" d="M782.51,279.34c0-12.85,7.54-24.5,19.27-29.75l-8.15-18.33c-19.65,8.29-32.42,27.55-32.42,48.88v2.19h21.33c-.01-.94-.02-1.94-.02-3Z"/>
    <path class="cls-9" d="M858.16,346.57c0,.26-19.73.48-43.84.48s-43.84-.22-43.84-.48,19.73-.5,43.84-.5,43.84.22,43.84.5Z"/>
    <path class="cls-9" d="M838.63,354.61c0,.28-10.96.5-24.35.5s-24.33-.22-24.33-.5,10.96-.5,24.33-.5,24.35.22,24.35.5Z"/>
    <path class="cls-9" d="M810.55,272.48v2.19l-4.38,10.06h-3.77l4.12-9.49h-3.22v1.89h-2.94v-4.63l10.19-.02Z"/>
    <path class="cls-9" d="M820.87,280.76c0,2.19-1.64,4.19-5.33,4.19-1.66.03-3.29-.38-4.73-1.21l1.23-2.61c1.01.65,2.19,1,3.4,1.01,1.16,0,1.95-.46,1.95-1.29s-.5-1.23-2.37-1.23h-3.31l.59-7.15h7.8v2.67h-4.93l-.15,1.78h.81c3.62,0,5.04,1.69,5.04,3.84Z"/>
    <path class="cls-9" d="M821.51,275.7c.15-1.73,1.66-3.01,3.39-2.86,1.73.15,3.01,1.66,2.86,3.39-.14,1.62-1.49,2.87-3.11,2.87-1.71.03-3.12-1.32-3.15-3.03,0-.12,0-.24.01-.37ZM831.88,272.48h2.5l-8.48,12.23h-2.41l8.4-12.23ZM825.67,275.7c0-1.23-.44-1.71-1.03-1.71s-1.03.48-1.03,1.71.46,1.73,1.03,1.73.99-.48.99-1.73h.04ZM830.06,281.46c-.18-1.67,1.03-3.18,2.7-3.36.14-.01.28-.02.41-.02,1.87-.16,3.51,1.23,3.67,3.1.16,1.87-1.23,3.51-3.1,3.67s-3.51-1.23-3.67-3.1c0-.1-.01-.2-.01-.29ZM834.2,281.46c0-1.23-.44-1.73-1.03-1.73s-1.03.5-1.03,1.73.46,1.73,1.03,1.73,1.07-.48,1.07-1.73h-.04Z"/>
    <polygon class="cls-10" points="512.69 30.71 512.69 213.49 534.81 213.49 565.26 213.49 707.19 213.49 707.19 30.71 512.69 30.71"/>
    <path class="cls-9" d="M512.69,30.71h13.92l39.46-.13,141.06-.24h.5v183.26h0v.57h-195.55v-.5c0-54.98.18-100.73.24-132.75,0-15.94.11-28.5.13-37.02v-13,13.2c0,8.59,0,21.15.13,37.13,0,31.96.15,77.6.24,132.44l-.48-.48h194.5l-.57.57h0V31l.5.48-140.34-.44-39.63-.13h-14.12v-.2Z"/>
    <path class="cls-2" d="M609.08,51.43c-33.15,0-60.02,26.87-60.02,60.02,0,33.15,26.87,60.02,60.02,60.02,33.15,0,60.02-26.87,60.02-60.02v-.02c0-33.14-26.86-60-60-60h-.02ZM609.98,147.4c-20.36,0-36.87-16.51-36.87-36.87,0-20.36,16.51-36.87,36.87-36.87,20.36,0,36.87,16.51,36.87,36.87s-16.51,36.87-36.87,36.87h0Z"/>
    <path class="cls-2" d="M610,51.45v22.21c20.36.03,36.84,16.57,36.81,36.93,0,3.77-.59,7.52-1.74,11.12l21.75,5.9c8.96-31.86-9.6-64.96-41.47-73.92-5.01-1.41-10.19-2.16-15.4-2.23h.04Z"/>
    <path class="cls-4" d="M573.13,110.53c0-14.57,8.6-27.77,21.92-33.67l-9.25-20.74c-22.22,9.4-36.67,31.18-36.67,55.31v2.52h24.11c-.07-1.12-.11-2.26-.11-3.42Z"/>
    <path class="cls-8" d="M609.98,147.4c-2.58-.02-5.15-.29-7.67-.83-.94,5.35-2.7,15.72-4.06,23.87,30.54,5.68,60.36-12.91,68.72-42.83l-21.75-5.9c-4.89,15.34-19.15,25.73-35.25,25.69Z"/>
    <path class="cls-9" d="M658.75,186.68c0,.31-22.25.57-49.67.57s-49.65-.26-49.65-.57,22.23-.57,49.65-.57,49.67.15,49.67.57Z"/>
    <path class="cls-9" d="M636.63,195.71c0,.31-12.34.57-27.55.57s-27.53-.26-27.53-.57,12.32-.57,27.53-.57,27.55.31,27.55.57Z"/>
    <path class="cls-9" d="M604.98,112.39c0,2.19-1.64,4.08-5.33,4.08-1.66.03-3.31-.39-4.76-1.21l1.27-2.61c1,.66,2.18,1.01,3.38,1.01,1.18,0,1.95-.44,1.95-1.27s-.55-1.18-1.89-1.18h-1.45v-2.19l2.19-2.35h-4.82v-2.67h8.77v2.19l-2.52,2.72c1.81.16,3.2,1.67,3.2,3.49Z"/>
    <path class="cls-9" d="M615.46,112.28c0,2.19-1.64,4.19-5.33,4.19-1.66.03-3.29-.38-4.73-1.21l1.23-2.61c1.01.65,2.19,1,3.4,1.01,1.16,0,1.95-.46,1.95-1.29s-.5-1.23-2.37-1.23h-3.33l.61-7.15h7.78v2.67h-4.91l-.15,1.78h.81c3.68,0,5.04,1.69,5.04,3.84Z"/>
    <path class="cls-9" d="M616.11,107.22c.15-1.73,1.66-3.01,3.39-2.86,1.73.15,3.01,1.66,2.86,3.39-.14,1.62-1.49,2.87-3.11,2.87-1.71.03-3.12-1.32-3.15-3.03,0-.12,0-.24.01-.37ZM626.42,103.99h2.52l-8.35,12.23h-2.5l8.33-12.23ZM620.23,107.22c0-1.23-.44-1.73-1.03-1.73s-1.03.5-1.03,1.73.46,1.73,1.03,1.73,1.07-.48,1.07-1.73h-.04ZM624.62,112.98c-.18-1.67,1.03-3.18,2.7-3.36.14-.01.28-.02.41-.02,1.87-.16,3.51,1.23,3.67,3.1.16,1.87-1.23,3.51-3.1,3.67s-3.51-1.23-3.67-3.1c0-.1-.01-.2-.01-.29ZM628.76,112.98c0-1.23-.46-1.73-1.03-1.73s-1.03.5-1.03,1.73.46,1.73,1.03,1.73,1.16-.37,1.16-1.73h-.13Z"/>
    <polygon class="cls-10" points="296.66 81.35 296.66 242.88 316.22 242.88 343.11 242.88 468.57 242.88 468.57 81.35 296.66 81.35"/>
    <path class="cls-9" d="M296.66,81.46h47.24l124.68-.61h.5v162.12h0v.57h-172.87v-.48c.11-48.6.2-89.02.26-117.34,0-14.07,0-25.14.11-32.71v-11.49,11.77c0,7.61,0,18.7.13,32.88,0,28.26.15,68.57.26,117.03l-.5-.5h171.88l-.57.57h0V81.77l.48.48-124.36-.24-35.07-.13-9.05-.42h-3.22.09Z"/>
    <path class="cls-2" d="M381.85,99.65c-29.3-.01-53.06,23.73-53.07,53.03-.01,29.3,23.73,53.06,53.03,53.07,29.3.01,53.06-23.73,53.07-53.03v-.04c0-29.29-23.74-53.03-53.03-53.03h0ZM382.66,184.49c-17.99,0-32.57-14.58-32.57-32.57s14.58-32.57,32.57-32.57,32.57,14.58,32.57,32.57-14.58,32.57-32.57,32.57h0Z"/>
    <path class="cls-6" d="M382.66,99.68v19.73c17.98-.05,32.59,14.49,32.64,32.47,0,3.35-.5,6.69-1.51,9.88l19.22,5.22c7.87-28.22-8.62-57.48-36.84-65.35-4.37-1.22-8.88-1.87-13.42-1.94h-.09Z"/>
    <path class="cls-8" d="M350.06,151.89c0-12.86,7.57-24.52,19.31-29.77l-8.2-18.3c-19.64,8.29-32.4,27.54-32.4,48.86v2.19h21.44c0-.96-.15-1.97-.15-2.98Z"/>
    <path class="cls-6" d="M382.66,184.49c-2.32,0-4.64-.25-6.9-.75-.81,4.73-2.37,13.9-3.57,21.11,3.19.59,6.42.89,9.67.9,23.8-.03,44.67-15.88,51.07-38.8l-19.14-5.2c-4.3,13.56-16.9,22.76-31.13,22.73Z"/>
    <g class="cls-12">
      <path class="cls-1" d="M382.66,184.49c-2.32,0-4.64-.25-6.9-.75-.81,4.73-2.37,13.9-3.57,21.11,3.19.59,6.42.89,9.67.9,23.8-.03,44.67-15.88,51.07-38.8l-19.14-5.2c-4.3,13.56-16.9,22.76-31.13,22.73Z"/>
    </g>
    <path class="cls-9" d="M425.73,219.1c0,.28-19.73.5-43.84.5s-43.84-.22-43.84-.5,19.73-.5,43.84-.5,43.84.22,43.84.5Z"/>
    <path class="cls-9" d="M406.18,227.17c0,.26-10.96.5-24.33.5s-24.33-.24-24.33-.5,10.96-.5,24.33-.5,24.33.22,24.33.5Z"/>
    <path class="cls-9" d="M375.49,153.34c-.11,2.42-2.16,4.29-4.58,4.18-.07,0-.15,0-.22-.02-2.95.19-5.49-2.04-5.69-4.99-.02-.35-.01-.7.03-1.04-.26-3.37,2.25-6.31,5.62-6.58.32-.03.64-.03.96,0,1.26-.05,2.51.26,3.59.9l-1.25,2.48c-.65-.43-1.41-.65-2.19-.64-1.59-.11-2.98,1.09-3.08,2.69,0,.05,0,.11,0,.16.78-.63,1.76-.95,2.76-.9,2.15-.07,3.96,1.6,4.06,3.75ZM372.14,153.49c.02-.84-.65-1.53-1.48-1.54-.06,0-.12,0-.18,0-.85-.1-1.63.51-1.73,1.36-.1.85.51,1.63,1.36,1.73.12.01.25.01.37,0,.83.09,1.57-.52,1.66-1.35,0-.07,0-.14,0-.21Z"/>
    <path class="cls-9" d="M376.35,151.14c0-4.03,2.19-6.36,5.41-6.36s5.37,2.32,5.37,6.36-2.19,6.36-5.37,6.36-5.41-2.32-5.41-6.36ZM383.65,151.14c0-2.56-.79-3.53-1.89-3.53s-1.93.96-1.93,3.53.81,3.53,1.93,3.53,1.89-.88,1.89-3.53Z"/>
    <path class="cls-9" d="M388.1,148.27c.11-1.73,1.6-3.04,3.33-2.93,1.73.11,3.04,1.6,2.93,3.33-.1,1.66-1.48,2.95-3.14,2.94-1.69.03-3.09-1.32-3.12-3.01,0-.11,0-.21.01-.32ZM398.44,145.03h2.52l-8.35,12.23h-2.5l8.33-12.23ZM392.26,148.27c0-1.25-.44-1.73-1.05-1.73s-1.01.48-1.01,1.73.46,1.73,1.01,1.73,1.05-.59,1.05-1.73ZM396.64,154.04c.13-1.73,1.64-3.02,3.37-2.88,1.73.13,3.02,1.64,2.88,3.37-.13,1.63-1.48,2.89-3.12,2.89-1.69,0-3.08-1.36-3.08-3.05,0-.11,0-.22.02-.32h-.07ZM400.81,154.04c0-1.25-.46-1.73-1.03-1.73s-1.03.48-1.03,1.73.46,1.71,1.03,1.71,1.1-.48,1.1-1.71h-.07Z"/>
  </g>
  <g id="freepik--Plant--inject-2">
    <rect class="cls-9" x="754.96" y="844.73" width="146.12" height="20.08"/>
    <path class="cls-9" d="M901.32,865.05h-146.6v-20.58h146.6v20.58ZM755.22,864.55h145.6v-19.58h-145.6v19.58Z"/>
    <polygon class="cls-9" points="768.51 858.13 789.55 961.88 867.37 961.88 887.69 864.81 768.51 858.13"/>
    <polygon class="cls-4" points="768.51 952.06 779.73 967.49 874.32 967.49 887.69 952.06 768.51 952.06"/>
    <path class="cls-9" d="M822.54,861.15c-.28,0-.66-48.07-.83-107.41s0-107.41.22-107.41.66,48.05.83,107.41.07,107.41-.22,107.41Z"/>
    <path class="cls-9" d="M855.09,740.85c-.09.39-.23.76-.39,1.12-.35.83-.79,1.84-1.32,3.11l-.94,2.19-.99,2.74-1.12,3.13c-.39,1.1-.7,2.32-1.07,3.55-1.74,5.88-3.11,11.86-4.1,17.91-1.11,7.41-1.85,14.87-2.19,22.36-.53,13.63-.15,27.28,1.16,40.86.46,5.22.94,9.45,1.29,12.36.13,1.36.26,2.48.35,3.35.06.39.06.79,0,1.18-.14-.37-.23-.76-.26-1.16-.15-.88-.33-1.97-.57-3.33-.46-2.89-1.05-7.1-1.62-12.32-1.52-13.61-2.01-27.31-1.45-40.99.36-7.53,1.15-15.04,2.35-22.49,1.04-6.07,2.5-12.06,4.38-17.93.39-1.25.72-2.48,1.14-3.57s.83-2.19,1.21-3.13.75-1.86,1.07-2.7.72-1.56,1.03-2.19l1.49-3.05c.14-.36.33-.69.55-1.01Z"/>
    <path class="cls-9" d="M851.34,701.99c-.11.54-.26,1.07-.46,1.58l-1.51,4.38c-.35.96-.72,2.06-1.12,3.22l-1.18,3.88c-.85,2.78-1.84,5.94-2.72,9.49-.48,1.78-.96,3.64-1.47,5.57s-.9,3.97-1.38,6.07c-1.01,4.19-1.75,8.77-2.7,13.48-1.6,9.54-3.03,20.1-4.01,31.24-.99,11.14-1.32,21.79-1.47,31.46-.15,9.67.11,18.41.5,25.73.13,3.66.35,6.97.55,9.89s.35,5.39.53,7.45.28,3.53.37,4.69c.05.55.05,1.11,0,1.67,0,0-.11-.57-.26-1.64s-.31-2.72-.55-4.69-.48-4.54-.7-7.43-.55-6.23-.72-9.89c-.48-7.32-.68-16.07-.7-25.78-.02-9.71.46-20.39,1.38-31.54s2.43-21.75,4.1-31.32c.96-4.76,1.73-9.32,2.81-13.5.48-2.08.96-4.12,1.42-6.07s1.05-3.79,1.53-5.57c.94-3.55,1.97-6.71,2.89-9.47.44-1.38.85-2.67,1.25-3.86s.83-2.19,1.21-3.2c.73-1.84,1.3-3.3,1.71-4.38.19-.5.43-.98.7-1.45Z"/>
    <path class="cls-9" d="M813.29,869.66c-.02-.19-.02-.38,0-.57,0-.42-.04-.97-.13-1.64,0-1.53-.24-3.66-.44-6.38-.35-5.59-.83-13.57-1.45-23.41-1.27-19.73-3.11-47.06-6.44-77.09-1.69-15.02-3.66-29.29-5.72-42.2-1.07-6.47-2.06-12.6-3.18-18.33-1.12-5.72-2.19-10.96-3.16-15.87s-2.04-9.21-2.89-13.04-1.67-7.12-2.37-9.82c-.7-2.7-1.14-4.69-1.51-6.18-.15-.66-.26-1.21-.37-1.62-.02-.19-.02-.38,0-.57.09.17.16.36.2.55l.48,1.58c.39,1.49.96,3.55,1.69,6.16s1.62,5.94,2.52,9.78,2.04,8.15,3.05,13.02,2.19,10.15,3.29,15.87,2.19,11.86,3.31,18.3c2.19,12.96,4.1,27.23,5.81,42.26,3.31,30.05,5.04,57.39,6.12,77.16.55,9.91.92,17.91,1.14,23.43,0,2.72.18,4.84.24,6.38v1.67c-.03.2-.09.39-.18.57Z"/>
    <path class="cls-6" d="M821.33,669.54c-.64-6.82-7.52-11.95-14.36-12.01-6.93.31-13.34,3.79-17.38,9.43-3.94,5.62-6.78,11.93-8.37,18.61-4.6,16.02-7.12,32.88-5.15,49.47,1.97,16.59,8.77,32.88,20.58,44.59,1.93,1.91,4.38,3.81,7.08,3.24,1.43-.42,2.72-1.22,3.75-2.3,23.57-21.57,36.67-52.26,35.95-84.2-.18-6.29-1.01-12.87-4.49-18.11s-11.64-10.83-17.54-8.77"/>
    <path class="cls-6" d="M770.28,615.01l-9.65,17.54c-.22.42-.53.88-.99.92s-.88-.44-1.16-.88l-25.45-39.08,5.85-3.31,31.39,24.81Z"/>
    <g class="cls-14">
      <path class="cls-1" d="M770.28,615.01l-9.65,17.54c-.22.42-.53.88-.99.92s-.88-.44-1.16-.88l-25.45-39.08,5.85-3.31,31.39,24.81Z"/>
    </g>
    <path class="cls-6" d="M821.93,646.44l-86.87-51.27c-.88-.53-1.84-1.14-2.19-2.19s.61-2.52,1.53-3.49c12.09-12.54,29.04-19.2,46.43-18.24,17.44,1.25,33.14,11.02,41.98,26.11,8.37,14.97,8.66,34.79-.96,49.01"/>
    <path class="cls-9" d="M747.57,578.82c.37-.1.75-.15,1.14-.15.75,0,1.86-.18,3.29-.15,4.04-.06,8.08.27,12.06.96,27.05,4.57,48.99,24.42,56.23,50.88,1.1,3.89,1.83,7.88,2.19,11.9.09.84.14,1.68.13,2.52-.08.68-.3,1.33-.66,1.91.25-1.45.3-2.92.13-4.38-.51-3.97-1.33-7.89-2.46-11.73-8.97-30.03-36.25-50.87-67.58-51.62-2.87-.09-4.45-.04-4.47-.13Z"/>
    <path class="cls-9" d="M810.18,611.06c-1.38.83-2.85,1.5-4.38,1.99-2.76,1.07-6.58,2.48-10.96,3.86s-8.29,2.46-11.18,3.18c-1.54.48-3.13.78-4.73.9,1.45-.7,2.97-1.24,4.54-1.62l11.07-3.44,10.96-3.57c1.51-.6,3.09-1.03,4.69-1.29Z"/>
    <path class="cls-9" d="M796.5,574.3c.76,3.17,1.11,6.43,1.03,9.69.25,3.25.07,6.53-.55,9.73-.43-3.21-.6-6.45-.5-9.69-.26-3.24-.26-6.49.02-9.73Z"/>
    <path class="cls-9" d="M734.31,594.2c2.03-.92,4.13-1.65,6.29-2.19,3.97-1.23,9.45-2.76,15.59-4.25s11.73-2.61,15.78-3.31c2.16-.49,4.36-.79,6.58-.9-2.15.7-4.35,1.24-6.58,1.62-4.03.9-9.58,2.19-15.7,3.62s-11.62,2.89-15.61,3.92c-2.08.64-4.21,1.14-6.36,1.49Z"/>
    <path class="cls-6" d="M785.3,654.77c-7.47-5.68-15.34-6.8-24.75-6.42-9.38.63-18.56,3-27.07,6.99-14.66,6.42-28.5,15.87-37.27,29.26-8.77,13.39-11.79,31.11-5.24,45.68.49,1.53,1.55,2.82,2.96,3.6,1.63.48,3.37.34,4.91-.37,16.66-5.44,33.43-10.96,48.75-19.42s29.26-20.34,37.48-35.82c2.11-3.66,3.46-7.71,3.95-11.9.47-4.24-.93-8.46-3.81-11.6"/>
    <path class="cls-9" d="M785.43,653.02c-.38.2-.77.36-1.18.48l-3.51,1.21-2.52.83c-.92.33-1.89.75-2.96,1.16-2.19.85-4.56,1.69-7.12,2.94l-4.08,1.86c-1.42.66-2.85,1.47-4.38,2.19-3.03,1.47-6.07,3.38-9.32,5.28-13.97,8.67-26.39,19.6-36.76,32.35-2.32,2.98-4.58,5.77-6.44,8.57-.94,1.38-1.93,2.7-2.76,4.01l-2.37,3.81c-1.56,2.39-2.72,4.71-3.84,6.69-.55,1.01-1.07,1.93-1.51,2.78l-1.16,2.41c-.68,1.36-1.21,2.46-1.64,3.31-.16.4-.37.78-.64,1.12.12-.41.28-.82.46-1.21l1.45-3.4,1.1-2.46c.42-.88.92-1.82,1.45-2.83,1.05-2.02,2.19-4.38,3.7-6.8l2.32-3.88c.83-1.34,1.8-2.65,2.72-4.08,1.84-2.83,4.1-5.66,6.42-8.77,5.2-6.41,10.91-12.39,17.08-17.89,6.25-5.4,12.91-10.3,19.93-14.66,3.29-1.91,6.38-3.79,9.43-5.24,1.51-.77,2.94-1.56,4.38-2.19l4.14-1.8c2.61-1.23,5.09-2.04,7.21-2.83,1.07-.39,2.06-.77,3-1.07l2.56-.77,3.55-1.01c.42-.1.86-.15,1.29-.15Z"/>
    <path class="cls-9" d="M727.05,684.6c-5.94,2.3-12.01,4.26-18.17,5.87-6.06,1.93-12.22,3.52-18.46,4.76,5.95-2.27,12.01-4.23,18.17-5.85,6.07-1.91,12.23-3.51,18.46-4.78Z"/>
    <path class="cls-9" d="M726.31,724.72c-.3-1.87-.43-3.76-.39-5.66,0-3.51-.11-8.35,0-13.68s.44-10.19.72-13.68c.04-1.9.29-3.79.72-5.63.15,1.89.15,3.79,0,5.68-.13,3.84-.26,8.51-.44,13.66s-.24,9.82-.33,13.66c.07,1.89-.03,3.78-.28,5.66Z"/>
    <path class="cls-9" d="M760.68,707.23c-.28,0-1.21-9.82-2.04-21.92s-1.29-22.03-1.01-22.05,1.21,9.82,2.04,21.92,1.29,22.03,1.01,22.05Z"/>
    <path class="cls-9" d="M717.91,662.35c1.93-.24,3.89-.3,5.83-.18,3.57,0,8.55.13,14.01.31s10.43.42,14.03.61c1.94.01,3.88.2,5.79.57-1.93.22-3.87.28-5.81.18-3.6,0-8.55-.13-14.03-.31s-10.43-.42-14.03-.64c-1.94,0-3.88-.18-5.79-.55Z"/>
    <path class="cls-9" d="M800.38,781.93c-.1-.38-.14-.77-.13-1.16,0-.88,0-1.99-.15-3.35-.13-2.89-.15-7.1,0-12.3s.44-11.38,1.07-18.22c.64-6.84,1.64-14.36,3.05-22.16,1.4-7.8,3.18-15.17,4.95-21.92,1.78-6.75,3.68-12.56,5.41-17.54s3.24-8.77,4.38-11.51c.55-1.27.99-2.19,1.32-3.09.15-.36.32-.72.53-1.05-.05.39-.16.77-.33,1.12-.28.83-.66,1.89-1.14,3.16-1.03,2.72-2.43,6.69-4.06,11.62s-3.42,10.85-5.2,17.54-3.42,13.99-4.84,21.77c-1.42,7.78-2.41,15.34-3.13,22.07-.72,6.73-1.1,12.98-1.29,18.15s-.28,9.38-.26,12.28v3.33c-.02.43-.07.85-.18,1.27Z"/>
    <path class="cls-9" d="M804.96,725.05c-1.02,1.38-2.18,2.65-3.46,3.79-2.19,2.19-5.44,5.26-9.08,8.46s-7.06,5.96-9.58,7.89c-1.29,1.13-2.7,2.11-4.21,2.94,1.14-1.28,2.39-2.46,3.75-3.51l9.34-8.11,9.27-8.2c1.21-1.22,2.54-2.31,3.97-3.27Z"/>
    <path class="cls-9" d="M832.47,747.19c-1.36-1.6-2.59-3.31-3.68-5.11l-8.59-12.52c-3.33-4.71-6.34-8.99-8.77-12.41-1.29-1.66-2.46-3.41-3.51-5.24,1.51,1.47,2.88,3.08,4.1,4.8,2.41,3.05,5.63,7.37,9.03,12.25s6.31,9.38,8.35,12.71c1.19,1.74,2.22,3.58,3.07,5.5Z"/>
    <path class="cls-9" d="M818.05,677.55c.15.24-8.99,6.38-20.41,13.72-11.42,7.34-20.8,13.15-20.96,12.87s8.99-6.4,20.41-13.74c11.42-7.34,20.8-13.09,20.96-12.85Z"/>
    <path class="cls-9" d="M843.8,705.34c-4.83-4.01-9.44-8.28-13.81-12.78-4.63-4.25-9.02-8.76-13.15-13.5,4.83,4,9.44,8.26,13.81,12.76,4.64,4.26,9.03,8.77,13.15,13.52Z"/>
    <path class="cls-6" d="M850.27,704.77l7.85-.64c5.57-.47,10.97-2.12,15.85-4.84,2.37-1.4,4.83-2.65,7.37-3.73,9.69-3.88,20.52-3.18,30.95-3.7,17.08-.87,33.81-5.15,49.21-12.58.92-.4,1.69-1.09,2.19-1.95,1.62-2.94-1.38-5.55-3.95-7.15-13.15-8.13-26.66-16.37-41.65-20.41-14.99-4.03-31.98-3.35-44.76,5.44-14.99,10.32-20.47,31.52-23.02,49.56"/>
    <path class="cls-9" d="M963.82,676.36l-1.32-.61-3.73-1.95c-3.22-1.71-7.87-4.21-13.72-7.01-6.83-3.35-13.93-6.09-21.24-8.2-8.95-2.55-18.32-3.3-27.55-2.19-9.25,1.03-17.99,4.78-25.1,10.78-5.59,5.15-10.07,11.4-13.15,18.35-2.14,4.66-4.05,9.43-5.7,14.29-.57,1.64-1.03,2.96-1.4,3.97-.13.47-.31.93-.55,1.36.08-.48.2-.96.35-1.42.31-1.03.72-2.35,1.23-4.01,1.5-4.93,3.3-9.77,5.39-14.49,3.03-7.1,7.51-13.49,13.15-18.76,7.22-6.17,16.12-10.04,25.56-11.11,9.37-1.12,18.87-.33,27.93,2.32,7.36,2.16,14.5,4.99,21.33,8.46,5.83,2.89,10.43,5.5,13.59,7.32l3.62,2.19c.47.19.91.43,1.32.72Z"/>
    <path class="cls-9" d="M944.99,686.47c-.15.24-10.41-6.38-22.91-14.82s-22.47-15.34-22.32-15.67,10.41,6.4,22.91,14.82,22.49,15.43,22.32,15.67Z"/>
    <path class="cls-9" d="M934.05,655.45c-2.4.81-4.92,1.26-7.45,1.34-2.53.39-5.1.39-7.63,0,2.49-.44,5.01-.7,7.54-.77,2.49-.39,5.02-.58,7.54-.57Z"/>
    <path class="cls-9" d="M889.16,649.6c-.83,1.92-1.96,3.69-3.35,5.24-1.17,1.83-2.61,3.46-4.27,4.84.85-1.91,1.99-3.68,3.38-5.24,1.17-1.82,2.6-3.45,4.25-4.84Z"/>
    <path class="cls-9" d="M898.34,692.52c-1.73-.73-3.38-1.62-4.93-2.67-2.96-1.8-6.95-4.38-11.25-7.54s-8.04-6.05-10.74-8.2c-1.53-1.08-2.96-2.3-4.27-3.64,1.67.85,3.25,1.88,4.71,3.05l10.96,7.96c4.27,3.09,8.18,5.81,10.96,7.76,1.61.96,3.14,2.06,4.56,3.29Z"/>
    <path class="cls-6" d="M861.82,738.09c-7.47-1.97-16.4,5.3-17.93,12.89s1.29,15.34,4.63,22.32c7.13,15.65,17.7,29.48,30.93,40.47,13.35,10.96,30.01,17.09,47.28,17.38-3.16-14.69.85-30.03-.92-44.96-3.2-27.03-24.63-48.27-51.69-51.23-4.78-.53-10.3-1.27-12.21,3.13"/>
    <path class="cls-9" d="M926.73,831.14c-.36-.14-.71-.31-1.05-.5-.98-.55-1.92-1.17-2.81-1.86-3.13-2.74-5.65-6.11-7.39-9.89-1.18-2.32-2.52-4.82-3.81-7.61l-4.03-8.9c-1.44-3.27-3.09-6.45-4.93-9.51-2.03-3.25-4.31-6.35-6.82-9.25-5.11-6.01-10.61-11.22-15.34-16.18-4.31-4.34-8.23-9.05-11.73-14.07-2.33-3.41-4.26-7.09-5.72-10.96-.48-1.38-.83-2.46-1.01-3.22-.12-.37-.2-.75-.24-1.14.11,0,.53,1.53,1.62,4.21,1.59,3.77,3.59,7.35,5.96,10.68,3.54,4.92,7.49,9.54,11.79,13.81,4.78,4.91,10.3,10.11,15.48,16.18,2.54,2.95,4.84,6.09,6.88,9.4,1.86,3.1,3.51,6.33,4.95,9.65l3.92,8.92c1.27,2.78,2.56,5.3,3.7,7.65,1.64,3.73,4.02,7.1,6.99,9.89,2.17,1.93,3.57,2.72,3.57,2.72Z"/>
    <path class="cls-9" d="M888.06,818.96c.05-1.7.27-3.39.68-5.04.59-3.07,1.56-7.3,2.85-11.9s2.7-8.77,3.79-11.66c.51-1.62,1.2-3.18,2.04-4.65-.28,1.67-.73,3.31-1.34,4.89-.92,3-2.19,7.12-3.49,11.71s-2.37,8.77-3.13,11.79c-.31,1.66-.78,3.29-1.4,4.87Z"/>
    <path class="cls-9" d="M925.33,782.92c-1.79-.26-3.56-.67-5.28-1.23-3.22-.83-7.67-1.99-12.63-3.11-4.95-1.12-9.45-1.97-12.74-2.59-1.79-.26-3.55-.65-5.28-1.16,1.82-.06,3.63.09,5.41.44,3.31.42,7.87,1.18,12.85,2.3s9.43,2.39,12.6,3.42c1.75.46,3.45,1.11,5.06,1.93Z"/>
    <path class="cls-9" d="M860.31,793.37c.09-1.96.36-3.9.81-5.81.66-3.57,1.71-8.48,3.09-13.85,1.38-5.37,2.89-10.15,4.08-13.59.55-1.89,1.28-3.73,2.19-5.48-.31,1.94-.78,3.85-1.42,5.7-.99,3.49-2.37,8.29-3.77,13.63s-2.54,10.22-3.38,13.74c-.38,1.93-.91,3.82-1.6,5.66Z"/>
    <path class="cls-9" d="M908.16,751.48c-6.97-.21-13.93-.78-20.85-1.69-6.96-.56-13.89-1.47-20.76-2.72,0-.28,9.38.48,20.87,1.69s20.76,2.43,20.74,2.72Z"/>
    <path class="cls-4" d="M901.32,864.73c0,.28-32.88.5-73.3.5s-73.3-.22-73.3-.5,32.88-.53,73.3-.53,73.3.24,73.3.53Z"/>
    <path class="cls-4" d="M878.5,906.94c0,.31-22.12.53-49.39.53s-49.39-.22-49.39-.53,22.12-.5,49.39-.5,49.39.22,49.39.5Z"/>
    <path class="cls-4" d="M877.63,912.99c0,.28-21.72.53-48.53.53s-48.51-.24-48.51-.53,21.72-.53,48.51-.53,48.53.24,48.53.53Z"/>
    <path class="cls-4" d="M879.36,901.97c0,.28-22.89.53-51.1.53s-51.07-.24-51.07-.53,22.86-.5,51.07-.5,51.1.22,51.1.5Z"/>
  </g>
  <g id="freepik--Character--inject-2">
    <path class="cls-4" d="M186.18,850.87l-59.4,48.73,60.24,74.22c6.73-6.18-10.19-56.14-10.19-56.14l39.35-29.66-29.99-37.16Z"/>
    <g class="cls-13">
      <path class="cls-11" d="M161.41,892.1c-1.65-1.11-3.88-.81-5.17.7-1.17,1.62-.87,3.87.68,5.13,1.75,1.17,4.11.83,5.46-.79,1.04-1.81.47-4.12-1.29-5.24"/>
    </g>
    <g class="cls-13">
      <path class="cls-11" d="M127,899.38l5.98-4.95,55.2,73.59s1.23,4.38-1.42,5.98l-59.76-74.62Z"/>
    </g>
    <path class="cls-9" d="M178.18,918.56c-.37.28-2.02-1.4-4.63-2.19s-4.91-.55-5.04-1.01,2.41-1.6,5.55-.53,4.52,3.53,4.12,3.73Z"/>
    <path class="cls-9" d="M181.27,928.95c-.28.37-2.19-.7-4.71-.68s-4.38.96-4.71.59,1.58-2.19,4.73-2.19,5.04,1.99,4.69,2.28Z"/>
    <path class="cls-9" d="M175.55,940.94c-.35-.26,1.05-2.19,3.79-2.92s4.91.37,4.73.77-2.19.2-4.38.79-3.81,1.69-4.14,1.36Z"/>
    <path class="cls-9" d="M186.4,910.8c-.46.11-1.32-1.95-3.11-3.88s-3.75-3.03-3.59-3.46,2.7,0,4.8,2.37,2.32,4.93,1.91,4.98Z"/>
    <path class="cls-9" d="M193.77,901.88c-.15.13-1.53-1.12-3-3.73-1.33-2.46-2.2-5.14-2.56-7.91-.09-.61-.09-1.23,0-1.84.12-.92.86-1.63,1.78-1.73.84-.06,1.65.28,2.19.92.38.48.7,1,.94,1.56.44.95.8,1.94,1.07,2.96.46,1.71.64,3.48.53,5.24.07,1.64-.36,3.26-1.23,4.65-.26,0,.2-1.82,0-4.65-.06-1.64-.34-3.26-.81-4.82-.29-.92-.65-1.81-1.07-2.67-.44-.96-.99-1.62-1.49-1.56s-.26,0-.35.42c-.05.45-.05.91,0,1.36.11.96.27,1.92.48,2.87.37,1.61.88,3.19,1.53,4.71.76,1.36,1.43,2.78,1.99,4.23Z"/>
    <path class="cls-9" d="M192.87,901.84c-.18,0,.55-1.86,2.78-3.9,1.33-1.18,2.85-2.12,4.49-2.78.98-.39,1.99-.69,3.03-.9,1.33-.4,2.76-.07,3.79.85.54.68.63,1.62.22,2.39-.28.55-.63,1.05-1.05,1.49-.72.81-1.56,1.49-2.5,2.04-1.56.92-3.32,1.45-5.13,1.53-1.65.25-3.33-.18-4.67-1.18,1.52.08,3.04.08,4.56,0,1.56-.24,3.06-.81,4.38-1.67.81-.5,1.55-1.11,2.19-1.82.68-.75,1.07-1.56.77-1.8-.65-.41-1.45-.52-2.19-.31-.94.15-1.87.4-2.76.72-1.56.52-3.04,1.26-4.38,2.19-2.28,1.8-3.31,3.29-3.53,3.13Z"/>
    <path class="cls-4" d="M159.27,890.66l.72,76.83,95.6-.42c-.59-9.12-50.13-27.25-50.13-27.25l1.56-49.26-47.74.09Z"/>
    <g class="cls-13">
      <path class="cls-11" d="M175.86,935.81c-1.86.59-3.01,2.46-2.67,4.38.52,1.92,2.44,3.1,4.38,2.7,2.02-.62,3.24-2.68,2.81-4.76-.75-1.95-2.91-2.97-4.89-2.3"/>
    </g>
    <g class="cls-13">
      <path class="cls-11" d="M159.97,967.18v-7.76l92.07,3.11s4.25,1.86,3.75,4.87l-95.81-.22Z"/>
    </g>
    <path class="cls-9" d="M206.99,939.34c0,.46-2.35.68-4.63,2.19s-3.51,3.49-3.95,3.29.26-2.87,3.07-4.65,5.61-1.27,5.5-.83Z"/>
    <path class="cls-9" d="M217.05,943.44c0,.44-1.93,1.25-3.49,3.22s-2.04,4.08-2.5,4.06-.77-2.65,1.23-5.09,4.73-2.7,4.76-2.19Z"/>
    <path class="cls-9" d="M222.79,955.41c-.44.11-1.1-2.19,0-4.78s3.38-3.6,3.57-3.2-1.14,1.75-2.19,3.88-.92,4.06-1.38,4.1Z"/>
    <path class="cls-9" d="M206.11,928.08c-.2.42-2.35-.22-4.98,0s-4.69,1.03-4.93.64,1.71-2.08,4.82-2.19,5.3,1.18,5.09,1.56Z"/>
    <path class="cls-9" d="M203.79,916.74c-1.57.43-3.23.43-4.8,0-1.73-.31-3.41-.82-5.02-1.53-.95-.42-1.86-.9-2.74-1.45-.55-.28-1.04-.66-1.45-1.12-.64-.67-.74-1.69-.24-2.48.47-.66,1.23-1.06,2.04-1.07.61-.01,1.21.07,1.8.24,1.03.23,2.03.57,2.98,1.01,1.61.71,3.09,1.68,4.38,2.87,2.19,2.06,3,3.79,2.85,3.88s-1.32-1.29-3.57-2.98c-1.35-.99-2.82-1.79-4.38-2.39-.89-.37-1.82-.64-2.76-.83-1.01-.26-1.86-.26-2.19.18s0,.24.11.55c.32.32.68.59,1.07.81.81.53,1.65,1.01,2.52,1.42,1.49.74,3.04,1.33,4.65,1.75,1.61.26,3.2.64,4.76,1.14Z"/>
    <path class="cls-9" d="M203.17,917.4c-.91-1.36-1.36-2.97-1.27-4.6-.1-1.78.11-3.56.61-5.26.32-1,.72-1.96,1.21-2.89.52-1.29,1.68-2.21,3.05-2.43.87,0,1.67.51,2.02,1.32.23.56.4,1.15.5,1.75.16,1.07.16,2.15,0,3.22-.25,1.79-.95,3.49-2.02,4.95-1.86,2.5-3.81,3.07-3.84,2.89s1.47-1.14,2.87-3.53c.83-1.37,1.34-2.9,1.51-4.49.09-.88.06-1.78-.09-2.65-.15-1.03-.55-1.84-.92-1.73s-1.27.77-1.67,1.58c-.47.83-.86,1.69-1.18,2.59-.52,1.55-.82,3.17-.9,4.8-.13,2.7.28,4.43.11,4.49Z"/>
    <path class="cls-9" d="M167.46,445.56s-13.42,14.34-19.99,28.1c-6.58,13.77-10.78,46.54-10.78,46.54,0,0-18.5,41.21-15.7,62.3,2.81,21.09,21.66,165.35,21.66,165.35,0,0-.92,140.07,12.47,165.06l2.98,13.5,53.9-9.58h0l-.35-8.09,12.67-274.88,32.44-187.09-89.3-1.21Z"/>
    <path class="cls-9" d="M286.38,486.44s32.22,177.38,35.07,208.25c2.85,30.86-106.84,193.14-106.84,193.14l-50.15-52.3,71.99-133.72-23.41-134.86,32.55-119.14,34.2,1.18,6.6,37.44Z"/>
    <path class="cls-4" d="M146.71,869.29c.06,1.31.19,2.61.39,3.9.33,2.59.96,6.36,1.84,11.25,1.8,9.75,4.71,23.92,8.61,41.65v.37h.37l53.92-9.45h.42v-.42c1.51-36.98,3.29-81.11,5.22-128.61,1.99-51.01,3.84-98.31,5.35-137.11h0c4.03-31.17,7.39-56.99,9.71-74.99,1.14-8.97,2.02-16,2.63-20.87l.66-5.46c.13-1.25.18-1.89.18-1.89,0,0-.15.61-.33,1.86s-.46,3.09-.81,5.46c-.66,4.84-1.64,11.86-2.89,20.8-2.43,18.02-5.92,43.84-10.15,74.95h0c-1.58,38.8-3.49,86.1-5.57,137.11-1.84,47.41-3.57,91.63-5.02,128.63l.44-.5-53.88,9.69.46.31c-4.01-17.54-7.04-31.78-8.97-41.52-.94-4.87-1.64-8.61-2.04-11.18-.24-1.27-.35-2.19-.44-2.89-.01-.37-.05-.73-.11-1.1Z"/>
    <path class="cls-9" d="M243.27,146.34c1.6-9.4-5.57-18.87-14.66-21.72s-19.29,0-27.12,5.39c-5.81,4.06-10.63,9.51-16.79,13.04-5.61,3.2-12.1,4.67-17.54,8-8.77,5.39-14.25,14.83-14.56,25.12-.13,7.01,2.19,14.49-1.03,20.76-3.42,6.84-12.03,9.65-15.94,16.22-3.53,5.94-2.37,13.48-.68,20.19,1.69,6.71,3.79,13.79,1.84,20.43-1.8,6.03-6.58,10.65-9.38,16.35-5.19,11.91-.66,25.81,10.54,32.38l57.89-23.5,47.41-132.66Z"/>
    <path class="cls-9" d="M243.95,142.64c8.92-.85,17.01,6.23,20.47,14.49s3.35,17.54,3.49,26.48.66,18.3,5.11,26.06c2.35,4.08,5.68,7.5,8.37,11.35,2.96,3.72,4.45,8.4,4.19,13.15-1.07,8.48-10.39,13.7-12.74,21.92-1.91,6.58,1.16,13.9-.37,20.65-1.44,5.2-4.86,9.64-9.51,12.36-4.62,2.67-9.61,4.66-14.8,5.9l-29.04-22.47,7.06-131.72,17.78,1.82Z"/>
    <path class="cls-7" d="M180.16,187.4l3.46,93.54c.57,15.35,13.48,27.33,28.83,26.76.46-.02.92-.05,1.37-.09h0c14.55-1.27,25.44-13.92,24.53-28.5-.26-7.01-.11-15.34,0-16.07,0,0,23.41-5.26,24.24-28.87.42-11.42.15-30.69-1.07-51.91-1.23-23-20-41.16-43.03-41.63h-2.19c-24.68.81-37.7,22.18-36.15,46.76Z"/>
    <path class="cls-3" d="M238.42,262.98c-10.94-.03-21.63-3.33-30.69-9.47,0,0,6.88,17.16,30.49,15.59l.2-6.12Z"/>
    <path class="cls-9" d="M255.76,203.05c-.04,1.83-1.51,3.3-3.33,3.33-1.78.1-3.3-1.26-3.39-3.04,0-.03,0-.06,0-.09.02-1.83,1.51-3.3,3.33-3.31,1.78-.1,3.3,1.26,3.39,3.04,0,.02,0,.05,0,.07Z"/>
    <path class="cls-9" d="M256.24,195.1c-.44.44-2.94-1.51-6.58-1.6s-6.34,1.69-6.71,1.23.26-.99,1.42-1.8c1.6-1.06,3.48-1.59,5.39-1.53,1.89.04,3.71.68,5.22,1.82,1.1.9,1.47,1.69,1.25,1.89Z"/>
    <path class="cls-9" d="M221.35,203.05c-.04,1.83-1.51,3.3-3.33,3.33-1.78.1-3.3-1.26-3.39-3.04,0-.03,0-.06,0-.09.02-1.83,1.51-3.3,3.33-3.31,1.76-.11,3.28,1.23,3.39,3,0,.04,0,.08,0,.12Z"/>
    <path class="cls-9" d="M221.54,195.6c-.44.44-2.94-1.51-6.58-1.58s-6.34,1.67-6.71,1.21.24-.96,1.42-1.8c1.6-1.05,3.48-1.58,5.39-1.51,1.89.04,3.71.68,5.22,1.82,1.1.88,1.45,1.71,1.25,1.86Z"/>
    <path class="cls-9" d="M232.92,220.63c1.93-.54,3.92-.84,5.92-.92.94,0,1.82-.24,1.99-.85.1-.96-.1-1.92-.57-2.76-.81-2.19-1.67-4.65-2.56-7.12-3.57-10.15-6.14-18.46-5.72-18.61s3.64,7.96,7.21,18.11c.85,2.5,1.67,4.89,2.46,7.15.56,1.14.7,2.43.39,3.66-.29.65-.87,1.13-1.56,1.32-.51.14-1.05.2-1.58.18-1.99.23-4,.19-5.98-.13Z"/>
    <path class="cls-9" d="M220.42,181.37c-.42.96-4.01.31-8.29.61s-7.78,1.27-8.31.37c-.22-.44.42-1.34,1.86-2.19,1.95-1.26,4.26-1.84,6.58-1.64,2.06-.21,4.14.1,6.05.9,1.53.68,2.28,1.49,2.1,1.95Z"/>
    <path class="cls-9" d="M257.67,181.22c-.75.83-3.66,0-7.19-.15s-6.58.48-7.17-.37c-.31-.42.18-1.25,1.49-2.02,3.67-1.88,8.06-1.71,11.57.44,1.23.85,1.62,1.71,1.29,2.1Z"/>
    <path class="cls-3" d="M234.04,232.25c-.14-.76-.39-1.5-.75-2.19-.87-1.48-2.43-2.42-4.14-2.52-1.7-.08-3.37.51-4.65,1.64-1.13.99-1.79,2.4-1.82,3.9.02.4.11.78.28,1.14.87,2.06,2.68,3.57,4.87,4.06,2.21.43,4.47-.48,5.77-2.32.37-.52.6-1.12.68-1.75.02-.66-.06-1.32-.24-1.95Z"/>
    <path class="cls-9" d="M183.82,218.92c-.13,0-.31,0-.28.24.03.13.16.21.29.18.02,0,.04-.01.06-.02.11-.1.12-.26.02-.37,0,0-.02-.02-.02-.02-.06-.03-.14-.03-.2,0"/>
    <path class="cls-9" d="M184.17,217.91c-.12-.04-.24.03-.28.14-.01.03-.01.07,0,.1.02.12.13.2.25.18.03,0,.05-.01.08-.03.11-.08.14-.23.06-.34-.02-.02-.04-.04-.06-.06-.06-.04-.14-.04-.2,0"/>
    <path class="cls-9" d="M237.17,233.87c0,.26-.92.79-2.65,1.05-2.34.37-4.74.02-6.88-1.01-2.16-1.05-3.89-2.83-4.89-5.02-.75-1.62-.77-2.74-.5-2.85.66-.31,2.19,3.77,6.4,5.83,1.83.83,3.8,1.32,5.81,1.45,1.62.15,2.67.2,2.72.55Z"/>
    <path class="cls-9" d="M171.28,207.88c-5.39-19.05-2.65-40.84,9.51-56.47s34.22-23.67,52.94-17.23c2.69.81,5.15,2.23,7.19,4.16,2.02,2.01,2.85,4.92,2.19,7.69-1.27,4.23-6.36,5.9-10.76,6.09s-9.12-.35-12.91,1.89c-6.71,3.92-6.58,13.79-11.31,19.93-2.35,3.03-5.83,5.06-7.96,8.24-5.74,8.59-1.01,13.74-4.67,23.41-1.03,2.67-5.68,5.13-8.53,5.52s-.57.35-6.58-.33h0l-9.12-2.92Z"/>
    <path class="cls-7" d="M188.46,211.12c-.39-.2-15.85-5.61-16.18,10.43-.33,16.05,15.85,13.15,15.89,12.6s.28-23.04.28-23.04Z"/>
    <path class="cls-3" d="M183.4,227.98s-.28.2-.77.39c-.7.32-1.5.32-2.19,0-1.69-.64-3.05-3.38-3.07-6.27-.02-1.37.27-2.73.85-3.97.32-1.05,1.14-1.88,2.19-2.19.67-.16,1.35.17,1.64.79.2.46,0,.77.18.81s.35-.26.24-.94c-.09-.4-.3-.75-.61-1.01-.44-.33-.99-.49-1.53-.44-1.35.24-2.48,1.16-2.98,2.43-.7,1.35-1.06,2.86-1.05,4.38,0,3.22,1.62,6.29,3.92,7.01.87.26,1.81.12,2.56-.37.57-.28.66-.59.61-.64Z"/>
    <path class="cls-4" d="M153.04,179.77c3.44,1.48,7.11,2.34,10.85,2.52,4.03.08,8.04-.55,11.86-1.84,4.67-1.65,9.09-3.93,13.15-6.77,4.38-2.96,8.29-6.14,11.9-8.99s6.9-5.39,9.82-7.32c2.29-1.56,4.68-2.95,7.17-4.16.89-.49,1.84-.87,2.83-1.12,0,0-.94.55-2.63,1.51-2.38,1.34-4.68,2.8-6.9,4.38-2.83,1.99-6.07,4.56-9.62,7.47s-7.5,6.14-11.92,9.14c-4.14,2.89-8.68,5.18-13.46,6.8-3.94,1.29-8.07,1.85-12.21,1.67-2.79-.14-5.54-.74-8.13-1.78-.7-.29-1.37-.62-2.02-1.01-.45-.29-.68-.46-.68-.5Z"/>
    <path class="cls-4" d="M151.79,181.29c0-.15,2.19,1.18,6.03,2.92,4.86,2.26,9.97,3.96,15.21,5.06,5.25,1.08,10.62,1.56,15.98,1.42,4.12,0,6.58-.44,6.69-.24-.56.23-1.15.38-1.75.44-1.61.31-3.25.51-4.89.61-10.93.74-21.86-1.53-31.59-6.58-1.47-.75-2.89-1.59-4.25-2.52-.96-.66-1.47-1.05-1.42-1.12Z"/>
    <path class="cls-4" d="M267.47,171.62c-5.56-.96-10.17-4.86-12.03-10.19,1.68,2.06,3.47,4.02,5.37,5.87,2.14,1.57,4.36,3.01,6.66,4.32Z"/>
    <path class="cls-4" d="M266.92,187.18c.18.24-.68,1.18-2.19,1.69s-2.74.28-2.74,0,1.1-.61,2.37-1.05,2.28-.9,2.56-.64Z"/>
    <path class="cls-7" d="M356.46,381.77c-.14-4.92,1.19-9.77,3.81-13.94,4.21-5.7,13.15-8.31,13.88-12.28s7.58-11.92,10.96-10.08,4.76,6.14,0,11.09c-3.12,3.26-5.97,6.77-8.51,10.5,0,0,42.61-7.39,45.73-6.84s6.23,1.07,6.25,3.7-8.26,3.35-8.26,3.35l-13.88,9.65c-3.19,4.35-6.96,8.24-11.2,11.57-4.74,2.91-10.05,4.79-15.56,5.52l-14.75,9.43s-14.56-10.59-8.46-21.68Z"/>
    <path class="cls-3" d="M419.38,367.68s-.26-.33-.75-.77c-.69-.63-1.57-1.04-2.5-1.16-3.18-.06-6.29.87-8.92,2.65-2.71,1.77-5.2,3.85-7.43,6.2-.87,1.05-1.88,1.98-2.98,2.78.67-1.2,1.5-2.31,2.46-3.29,2.11-2.57,4.61-4.79,7.41-6.58,2.81-1.94,6.22-2.82,9.62-2.48,1.05.2,2,.77,2.67,1.6.42.59.46,1.01.42,1.03Z"/>
    <path class="cls-3" d="M404.45,368.18c-4.16,1.63-8.56,2.58-13.02,2.81,4.17-1.6,8.56-2.55,13.02-2.81Z"/>
    <path class="cls-3" d="M382.46,370.22c4.54-.15,8.59,2.81,9.84,7.17-1.33-1.59-2.8-3.05-4.38-4.38-1.73-1.1-3.56-2.03-5.46-2.78Z"/>
    <path class="cls-6" d="M274.26,287.34s20.93,10.65,26.02,24.68c2.67,7.39,18.5,85.91,18.5,85.91l31.87-21.64,21.48,32.44-50.97,39.68c-9.96,2.55-20.48,1.78-29.97-2.19-3.46-1.47-6.25-3.18-6.93-5-2.02-5.63-10.02-153.88-10.02-153.88Z"/>
    <g class="cls-12">
      <path class="cls-1" d="M305.28,410.9c-3.49,5.26-5.13,12.19-2.67,18.02.18.54.52,1.02.96,1.38,1.14.55,2.51.11,3.11-1.01.52-1.11.78-2.33.75-3.55.61-10.24,4.65-19.98,11.49-27.64v-.31c-5.24,3.58-9.85,8.01-13.63,13.11Z"/>
    </g>
    <path class="cls-6" d="M126.34,297.79l60.48-19.62c11.75,31.24,49.58,25.91,51.51.77l35.93,8.57s12.03,76.26,9.12,92.07c-4.69,25.47,7.08,108.22,13.31,137.99,5.41,25.78-10.39,41.1-18.33,48.12-40.38,35.69-61.38,30.89-90.9,12.34-20.78-12.52-42.6-23.22-65.21-31.98,2.94-34.52,22.07-70.34,34.37-96.25h0l-5.66-60.22-24.62-91.78Z"/>
    <path class="cls-9" d="M295.63,508.63c-.23-.57-.4-1.17-.53-1.78-.28-1.16-.72-2.87-1.23-5.11-1.03-4.38-2.39-10.96-3.77-18.98s-2.74-17.71-3.77-28.5-1.6-22.64-1.78-35.07c-.18-12.43-.35-24.33-1.18-35.07-.6-9.53-1.94-19-3.99-28.32-1.38-6.28-3.28-12.44-5.68-18.41-.79-2.19-1.62-3.7-2.06-4.82-.27-.55-.5-1.12-.68-1.71.35.51.65,1.05.9,1.62.5,1.07,1.4,2.63,2.19,4.76,2.56,5.94,4.58,12.09,6.05,18.39,2.2,9.32,3.65,18.8,4.34,28.34.88,10.78,1.1,22.69,1.27,35.07s.75,24.31,1.69,35.07,2.19,20.36,3.51,28.5,2.52,14.53,3.42,19.03c.44,2.19.77,3.88,1.03,5.15.13.61.21,1.22.26,1.84Z"/>
    <g class="cls-12">
      <path class="cls-1" d="M213.89,461.19c-12.71-.61-25.82-1.16-37.73,3.27-18.15,6.73-30.32,23.63-46.25,34.63l1.51.55c14.98,8.3,33.42,7.15,47.26-2.94,6.58-4.98,11.88-11.95,19.6-14.88,3.35-1.29,7.06-1.75,10.17-3.57,5.77-3.57,8.07-10.81,5.44-17.05Z"/>
    </g>
    <path class="cls-6" d="M126.34,297.99c-6.89,3.96-12.28,10.07-15.34,17.4-4.12,9.95-15.34,144.15-13.42,152.74s10.96,21.46,25.78,28.15c12.52,5.63,44.87-8.02,58-12.85.42-.15-2.94-5.2-4.38-8.55l-11.11-35.4-17.8,1.93,6.58-66.55-28.3-76.88Z"/>
    <path class="cls-9" d="M146.11,343.1c.39,1.22.69,2.46.9,3.73.48,2.43,1.05,5.96,1.62,10.35,1.14,8.77,2.19,20.93,3.18,34.35l2.43,34.42c.35,4.25.66,7.76.88,10.41.19,1.26.28,2.54.26,3.81-.33-1.24-.57-2.5-.7-3.77-.37-2.43-.79-5.98-1.25-10.39-.88-8.77-1.78-20.96-2.76-34.39-.99-13.44-1.91-25.58-2.85-34.35-.46-4.38-.9-7.91-1.25-10.35-.26-1.26-.42-2.53-.46-3.81Z"/>
    <path class="cls-9" d="M168.69,438.17c-1.9.54-3.83.94-5.79,1.21-3.66.64-8.77,1.49-14.91,2.46h-.31c-3.18-1.43-6.6-2.25-10.08-2.41-4.04-.19-8.08.52-11.82,2.08-3.04,1.29-5.83,3.11-8.24,5.37-2.15,2.18-4.09,4.56-5.77,7.12.24-.77.59-1.51,1.03-2.19,1.15-1.98,2.55-3.81,4.16-5.44,2.43-2.41,5.28-4.36,8.42-5.74,3.86-1.66,8.05-2.41,12.25-2.19,3.63.17,7.2,1.04,10.5,2.56h-.31c6.07-.88,11.27-1.58,14.97-2.04,1.93-.42,3.9-.69,5.87-.79Z"/>
    <path class="cls-9" d="M177.44,475c.54.67.99,1.41,1.34,2.19l3.35,6.01.22.37-.42.18c-6.05,2.35-14.97,5.7-24.92,9.36l-8.61,3.16-.31-1.05h0l.28,1.05h-.22l-.26-1.07h.11l.31,1.05c-6.08,2.05-12.57,2.63-18.92,1.69-1.82-.28-3.62-.67-5.39-1.18-.65-.16-1.29-.39-1.89-.7,0-.18,2.74.66,7.37,1.18,6.23.71,12.55.02,18.48-2.04l.31,1.05h0l-.26-1.07h.2l.28,1.05h0l-.33-1.07,8.59-3.18c9.95-3.66,18.92-6.88,25.06-9.01l-.22.53-3.05-6.16c-.44-.73-.81-1.51-1.1-2.32Z"/>
    <path class="cls-9" d="M319.29,397.55c-2.2,2.55-4.25,5.23-6.14,8.02-2.81,4.78-3.88,9.27-4.25,9.16.25-3.47,1.38-6.83,3.27-9.75,1.63-3.1,4.1-5.67,7.12-7.43Z"/>
    <path class="cls-9" d="M245.26,153.45c.01.15.01.31,0,.46h0v-.46Z"/>
    <path class="cls-4" d="M201.68,468.71c-1.49-3.55-2.4-7.32-2.7-11.16-.71-3.78-.81-7.65-.28-11.46.77,3.73,1.29,7.5,1.58,11.29.88,6.23,1.78,11.25,1.4,11.33Z"/>
    <path class="cls-9" d="M180.53,234.14l-53.79,55.2c7.08,11.77,7.47,26.4,1.03,38.54l44.92,1.45.26-12.1c1.53,5.13,5.57,9.12,10.72,10.59,6.82,1.95,14.09.13,20.93-1.78-11.45-29.63-19.52-60.45-24.07-91.89Z"/>
    <path class="cls-8" d="M192.56,349.79c0,1.62-.31,99.96-.31,99.96l83.3,2.78,4.16-99.48-87.16-3.27Z"/>
    <path class="cls-5" d="M201.16,342.45c0,2.02-11.55,119.71-11.55,119.71l90.44-2.19,15.21-117.56-94.11.04Z"/>
    <path class="cls-9" d="M283.31,366.19c0,.33-15.52.57-34.63.57s-34.63-.24-34.63-.57,15.52-.57,34.63-.57,34.63.26,34.63.57Z"/>
    <path class="cls-9" d="M282.44,373.95c0,.31-15.5.57-34.61.57s-34.63-.26-34.63-.57,15.5-.57,34.63-.57,34.61.24,34.61.57Z"/>
    <path class="cls-9" d="M280.9,383.74c0,.33-15.52.57-34.63.57s-34.63-.24-34.63-.57,15.52-.57,34.63-.57,34.63.26,34.63.57Z"/>
    <path class="cls-9" d="M279.26,392.53c0,.31-15.52.57-34.63.57s-34.63-.26-34.63-.57,15.52-.59,34.63-.59,34.63.26,34.63.59Z"/>
    <path class="cls-9" d="M279.26,401.3c0,.31-15.52.57-34.63.57s-34.63-.26-34.63-.57,15.52-.57,34.63-.57,34.63.26,34.63.57Z"/>
    <path class="cls-9" d="M278.43,410.51c0,.33-15.5.57-34.63.57s-34.61-.24-34.61-.57,15.5-.57,34.61-.57,34.63.33,34.63.57Z"/>
    <path class="cls-9" d="M277.59,419.72c0,.33-15.5.59-34.61.59s-34.63-.26-34.63-.59,15.5-.57,34.63-.57,34.61.26,34.61.57Z"/>
    <path class="cls-9" d="M276.76,428.94c0,.31-15.5.57-34.61.57s-34.63-.26-34.63-.57,15.5-.57,34.63-.57,34.61.24,34.61.57Z"/>
    <path class="cls-9" d="M275.95,438.15c0,.31-15.52.57-34.63.57s-34.63-.26-34.63-.57,15.52-.57,34.63-.57,34.63.26,34.63.57Z"/>
    <path class="cls-9" d="M275.12,447.36c0,.33-15.5.57-34.63.57s-34.61-.24-34.61-.57,15.5-.57,34.61-.57,34.63.26,34.63.57Z"/>
    <path class="cls-7" d="M163.43,449.57s7.21-15.91,8.77-16.81,27.27-3.84,32.4-3.9c5.55,0,14.09.15,15.52,2.87,1.05,1.99,0,4.93-4.12,5.55,0,0,5.74-.31,5.13,3.29s-13.53,10.19-13.53,10.19c0,0,2.41,2.72-2.39,7.8l-2.19,2.7s.9,4.8-1.8,6.9-19.79,8.09-19.79,8.09l-6.58-2.08-4.19,2.08s-13.7-13.37-7.23-26.68Z"/>
    <path class="cls-3" d="M217.97,436.57c-1.84.87-3.76,1.56-5.74,2.04-3.62,1.1-8.64,2.46-14.25,3.68s-10.74,2.19-14.47,2.67c-2,.4-4.03.59-6.07.57,1.94-.63,3.92-1.1,5.94-1.38,3.68-.72,8.77-1.73,14.36-2.98s10.61-2.46,14.27-3.33c1.95-.6,3.94-1.02,5.96-1.27Z"/>
    <path class="cls-3" d="M207.03,451.24c-3.78,1.98-7.85,3.36-12.06,4.08-4.12,1.08-8.39,1.51-12.65,1.27,0-.33,5.61-.9,12.41-2.39,6.8-1.49,12.17-3.27,12.3-2.96Z"/>
    <path class="cls-3" d="M202.78,461.12c-2.24,2.04-4.95,3.5-7.89,4.25-2.83,1.1-5.88,1.51-8.9,1.18,0-.33,3.95-.75,8.55-2.19s8.07-3.53,8.24-3.24Z"/>
    <path class="cls-3" d="M177.04,467.26s-1.34.18-3.03-1.01c-.94-.72-1.69-1.66-2.19-2.74-.62-1.33-.83-2.81-.61-4.25.07-.6-.04-1.21-.31-1.75-.36-.51-.76-.98-1.21-1.4-.82-.9-1.34-2.04-1.49-3.24-.24-2.06.55-3.18.64-3.11-.04,1,0,1.99.15,2.98.24,1,.75,1.92,1.47,2.65.52.47.99.99,1.4,1.56.4.72.57,1.55.48,2.37-.4,2.34.43,4.72,2.19,6.31,1.34,1.27,2.5,1.49,2.5,1.64Z"/>
    <path class="cls-3" d="M181.43,474.52c0,.33-1.91.26-3.27-1.42s-1.01-3.57-.7-3.49.5,1.47,1.6,2.76,2.37,1.84,2.37,2.15Z"/>
  </g>
</svg>