<?xml version="1.0" encoding="UTF-8"?>
<svg id="Layer_2" data-name="Layer 2" xmlns="http://www.w3.org/2000/svg" viewBox="0 0 1000 1000">
  <defs>
    <style>
      .cls-1 {
        fill: #000;
      }

      .cls-1, .cls-2, .cls-3, .cls-4, .cls-5, .cls-6, .cls-7, .cls-8, .cls-9, .cls-10, .cls-11 {
        stroke-width: 0px;
      }

      .cls-2 {
        fill: #e0e0e0;
      }

      .cls-3 {
        fill: #eb996e;
      }

      .cls-4 {
        fill: #455a64;
      }

      .cls-5 {
        fill: #f5f5f5;
      }

      .cls-6 {
        fill: #09f;
      }

      .cls-7 {
        fill: #ffbe9d;
      }

      .cls-8 {
        fill: #ebebeb;
      }

      .cls-12 {
        opacity: .4;
      }

      .cls-13 {
        opacity: .3;
      }

      .cls-14 {
        opacity: .6;
      }

      .cls-9 {
        fill: #263238;
      }

      .cls-10 {
        fill: #fafafa;
      }

      .cls-11 {
        fill: #fff;
      }
    </style>
  </defs>
  <g id="freepik--background-complete--inject-2">
    <path class="cls-5" d="M818.27,530.6s-9.89,7.47-9.89,17.36v50.59h73.77v-52.85s-1.03-12.98-9.71-15.1h-54.17Z"/>
    <path class="cls-2" d="M813.97,595.8c-.65-5.16-1-10.35-1.07-15.55.14-5.27,3.61-9.87,8.64-11.45,3.89-1.07,7.96.35,11.93,1.01,6.5,1.06,13.17.07,19.08-2.84,5-2.49,9.54-6.35,15.07-6.85,3.62-.35,7.81,1.36,8.82,4.85.34,1.69.3,3.44-.1,5.12-1.17,7.81.35,17.5.35,24.99-20.57.97-42.06.27-62.72.72"/>
    <polyline class="cls-2" points="803.71 605.69 814.82 598.55 882.15 598.55 892.94 605.69 803.71 605.69"/>
    <path class="cls-5" d="M801.63,441.14v75.31h91.31v89.23h-89.23v21.41h153.95v-185.95c-.01-8.85-7.19-16.02-16.04-16.02h-123.97c-8.85,0-16.02,7.17-16.02,16.02h0Z"/>
    <path class="cls-2" d="M957.66,442.87c0,.35-34.96.66-78.03.66s-78-.31-78-.66,34.96-.66,78-.66,78.03.29,78.03.66Z"/>
    <path class="cls-2" d="M914.35,627.1c-.37,0-.66-45.1-.66-100.77s.29-100.77.66-100.77.66,45.1.66,100.77-.29,100.77-.66,100.77Z"/>
    <path class="cls-2" d="M793.37,574.14l-.93-22.81c-.38-6.57,1.36-13.1,4.96-18.61,2.94-4.3,7.28-8.23,13.45-8.23h61.7v6.03h-60.46s-10.88,1.13-12.34,16.04c-.85,9.15-.85,18.35,0,27.5l-6.38.08Z"/>
    <rect class="cls-2" x="831.84" y="893.15" width="24.56" height="44.28"/>
    <rect class="cls-2" x="940.37" y="893.15" width="24.56" height="44.28"/>
    <rect class="cls-2" x="777.88" y="627.71" width="203.41" height="265.44"/>
    <rect class="cls-5" x="740.62" y="627.71" width="198.13" height="265.44"/>
    <rect class="cls-5" x="758.12" y="893.15" width="24.56" height="44.28"/>
    <rect class="cls-5" x="899.34" y="893.15" width="24.56" height="44.28"/>
    <path class="cls-2" d="M922.97,862.84v-17.58c0-11.29,0-27.64-.14-47.94l.27.27-170.01.12h0l.41-.39v65.52l-.39-.39,121.81.19,35.41.1h12.81-12.63l-35.33.12-122.08.16h-.39v-66.12h.41l170.01.12h.29v.29c0,20.38-.12,36.77-.14,48.1v16.29c0,.76-.31,1.13-.31,1.13Z"/>
    <path class="cls-2" d="M843.09,830.08s0-.47-.31-1.23c-.33-1.06-.99-1.98-1.89-2.63-1.32-.95-3.04-1.19-4.57-.62-2.47.95-3.7,3.73-2.75,6.19.95,2.47,3.73,3.7,6.19,2.75.4-.15.77-.36,1.12-.61.9-.65,1.56-1.57,1.89-2.63.23-.76.23-1.23.31-1.21.13.42.13.86,0,1.28-.22,1.2-.87,2.27-1.83,3.02-1.46,1.15-3.41,1.47-5.16.86-2.84-1.06-4.28-4.23-3.21-7.07.56-1.48,1.73-2.66,3.21-3.21,1.76-.61,3.7-.29,5.16.86.95.76,1.6,1.83,1.83,3.02.11.4.11.83,0,1.23Z"/>
    <path class="cls-2" d="M922.97,784.36v-17.56c0-11.31,0-27.64-.14-47.96l.27.29-170.01.12h0l.41-.41v65.52l-.39-.39,121.81.19,35.41.1h9.6-9.42l-35.33.1-122.08.19h-.39v-66.1h.41l170.01.12h.29v.27c0,20.38-.12,36.79-.14,48.12v16.29c0,.78-.31,1.11-.31,1.11Z"/>
    <path class="cls-2" d="M843.09,751.6s0-.45-.31-1.21c-.32-1.06-.99-1.99-1.89-2.63-1.32-.96-3.03-1.2-4.57-.64-2.48.93-3.73,3.7-2.79,6.17.49,1.29,1.5,2.31,2.79,2.79,1.53.57,3.24.34,4.57-.62.9-.66,1.56-1.59,1.89-2.65.23-.76.23-1.21.31-1.21.13.42.13.87,0,1.3-.23,1.19-.88,2.27-1.83,3.02-1.46,1.15-3.41,1.47-5.16.86-2.84-1.06-4.28-4.23-3.21-7.07.56-1.48,1.73-2.66,3.21-3.21,1.75-.62,3.71-.3,5.16.86.95.75,1.6,1.81,1.83,3,.11.4.11.83,0,1.23Z"/>
    <path class="cls-2" d="M922.97,706.97v-17.56c0-11.31,0-27.64-.14-47.96l.27.29-170.01.12h0l.41-.41v65.52l-.39-.39,121.81.19,35.41.1h12.01-47.16l-122.08.19h-.39v-66.02h.41l170.01.12h.29v.27c0,20.38-.12,36.79-.14,48.12v16.29c0,.78-.31,1.13-.31,1.13Z"/>
    <path class="cls-2" d="M843.09,674.19s0-.45-.31-1.21c-.32-1.06-.99-1.99-1.89-2.63-1.32-.96-3.04-1.2-4.57-.62-2.47.92-3.73,3.66-2.81,6.13.48,1.3,1.51,2.33,2.81,2.81,1.53.57,3.24.34,4.57-.62.9-.65,1.57-1.59,1.89-2.65.23-.76.23-1.21.31-1.21.12.42.12.87,0,1.3-.23,1.19-.88,2.27-1.83,3.02-1.46,1.15-3.41,1.47-5.16.86-2.84-1.06-4.28-4.23-3.21-7.07.56-1.48,1.73-2.66,3.21-3.21,1.75-.62,3.71-.3,5.16.86.95.75,1.6,1.81,1.83,3,.11.4.11.83,0,1.23Z"/>
    <path class="cls-2" d="M941.87,627.08c0,.41-37.02.74-82.8.74s-82.78-.33-82.78-.74,37.02-.72,82.78-.72,82.8.41,82.8.72Z"/>
    <rect class="cls-8" x="47.04" y="818.66" width="154.61" height="11.99"/>
    <rect class="cls-2" x="159.19" y="818.66" width="42.45" height="11.99"/>
    <path class="cls-5" d="M27.4,830.67v54.01h-8.47v5.88h8.47v36.15h158.35v-32.9h-11.72v-7.18h11.72v-10.74h5.2v-4.89h-6.17v-40.33H27.4Z"/>
    <polygon class="cls-2" points="143.68 830.82 143.68 926.1 185.72 926.1 185.72 893.21 174 893.21 174 886.63 185.72 886.63 185.72 875.9 190.92 875.9 190.92 870.41 184.73 870.41 184.73 830.65 143.68 830.82"/>
    <path class="cls-2" d="M146.66,889.78c0,.33-28.65.6-63.96.6s-64-.27-64-.6,28.65-.6,64-.6,63.96.27,63.96.6Z"/>
    <path class="cls-2" d="M146.66,884.29c0,.33-28.65.6-63.96.6s-64-.27-64-.6,28.65-.6,64-.6,63.96.27,63.96.6Z"/>
    <path class="cls-2" d="M154.89,869.44c0,.33-28.65.6-63.98.6s-63.98-.19-63.98-.6,28.65-.6,63.98-.6,63.98.35,63.98.6Z"/>
    <path class="cls-2" d="M155.67,909.77c0,.33-28.65.6-63.96.6s-63.96-.27-63.96-.6,28.65-.6,64-.6,63.92.27,63.92.6Z"/>
    <path class="cls-5" d="M43.08,722.62v54.03h-8.47v5.86h8.47v36.15h158.35v-32.9h-11.72v-7.18h11.72v-10.74h5.24v-4.87h-6.17v-40.35H43.08Z"/>
    <polygon class="cls-2" points="159.33 722.79 159.33 818.07 201.37 818.07 201.37 785.16 189.65 785.16 189.65 778.6 201.37 778.83 201.37 768.07 206.69 768.07 206.59 762.52 200.4 762.38 200.4 722.62 159.33 722.79"/>
    <path class="cls-2" d="M162.34,781.73c0,.33-28.65.62-63.98.62s-63.98-.29-63.98-.62,28.65-.6,63.98-.6,63.98.27,63.98.6Z"/>
    <path class="cls-2" d="M162.34,776.26c0,.33-28.65.6-63.98.6s-63.98-.27-63.98-.6,28.65-.62,63.98-.62,63.98.29,63.98.62Z"/>
    <path class="cls-2" d="M170.54,761.47c0,.35-28.63.62-63.96.62s-64-.27-64-.62,28.65-.6,64-.6,63.96.27,63.96.6Z"/>
    <path class="cls-2" d="M171.34,801.72c0,.33-28.65.6-63.98.6s-63.98-.27-63.98-.6,28.65-.6,63.98-.6,63.98.27,63.98.6Z"/>
    <rect class="cls-8" x="36.68" y="926.16" width="154.61" height="11.99"/>
    <rect class="cls-2" x="148.82" y="926.16" width="42.45" height="11.99"/>
    <path class="cls-5" d="M87.79,476.21v49.36h-7.75v5.37h7.75v33.07h144.82v-30.03h-10.74v-6.56h10.74v-9.83h4.77v-4.48h-5.68v-36.89H87.79Z"/>
    <polygon class="cls-2" points="194.15 476.35 194.15 563.53 232.61 563.53 232.61 533.42 221.87 533.42 221.87 527.41 232.61 527.62 232.61 517.79 237.46 517.79 237.38 512.71 231.7 512.57 231.7 476.21 194.15 476.35"/>
    <path class="cls-2" d="M196.89,530.27c0,.31-26.2.56-58.53.56s-58.53-.25-58.53-.56,26.2-.53,58.53-.53,58.53.25,58.53.53Z"/>
    <path class="cls-2" d="M196.89,525.26c0,.31-26.2.56-58.53.56s-58.53-.25-58.53-.56,26.2-.53,58.53-.53,58.53.23,58.53.53Z"/>
    <path class="cls-2" d="M204.41,511.74c0,.31-26.22.56-58.53.56s-58.49-.25-58.49-.56,26.2-.53,58.55-.53,58.47.23,58.47.53Z"/>
    <path class="cls-2" d="M205.13,548.62c0,.31-26.22.56-58.53.56s-58.53-.25-58.53-.56,26.2-.53,58.53-.53,58.53.19,58.53.53Z"/>
    <rect class="cls-10" x="323.61" y="155.76" width="209.85" height="187.74"/>
    <path class="cls-2" d="M533.46,343.52v-13.55c0-8.8,0-21.7-.12-38.11,0-32.9-.14-79.67-.25-136.1l.47.47h-209.77l.56-.58v187.76l-.49-.49,151.79.25,42.8.12h15.26-15.05l-42.69.14-152.18.25h-.49v-188.48h210.84v.62c-.1,56.56-.19,103.53-.25,136.41,0,16.35,0,29.2-.12,38.01v9.95c0,2.28-.29,3.33-.29,3.33Z"/>
    <path class="cls-2" d="M404.1,189.11c0,.33-11.04.58-24.68.58s-24.68-.25-24.68-.58,11.04-.56,24.68-.56,24.68.16,24.68.56Z"/>
    <path class="cls-2" d="M493.01,203.22c0,.31-30.35.56-67.87.56s-67.87-.25-67.87-.56,30.35-.56,67.87-.56,67.87.25,67.87.56Z"/>
    <rect class="cls-2" x="355.1" y="227.1" width="8.84" height="8.84"/>
    <rect class="cls-2" x="376.85" y="227.1" width="8.84" height="8.84"/>
    <rect class="cls-2" x="399.02" y="226.71" width="8.84" height="8.84"/>
    <rect class="cls-2" x="420.39" y="227.1" width="8.84" height="8.84"/>
    <rect class="cls-2" x="442.15" y="227.1" width="8.84" height="8.84"/>
    <rect class="cls-2" x="463.91" y="227.1" width="8.84" height="8.84"/>
    <rect class="cls-8" x="485.69" y="227.1" width="8.84" height="8.84"/>
    <rect class="cls-8" x="355.1" y="245.89" width="8.84" height="8.84"/>
    <rect class="cls-2" x="376.85" y="245.89" width="8.84" height="8.84"/>
    <rect class="cls-8" x="398.63" y="245.89" width="8.84" height="8.84"/>
    <rect class="cls-2" x="420.39" y="245.89" width="8.84" height="8.84"/>
    <rect class="cls-2" x="442.15" y="245.89" width="8.84" height="8.84"/>
    <rect class="cls-2" x="464.32" y="245.5" width="8.84" height="8.84"/>
    <rect class="cls-2" x="485.69" y="245.89" width="8.84" height="8.84"/>
    <rect class="cls-2" x="355.1" y="264.69" width="8.84" height="8.84"/>
    <rect class="cls-2" x="377.27" y="264.28" width="8.84" height="8.84"/>
    <rect class="cls-2" x="398.63" y="264.69" width="8.84" height="8.84"/>
    <rect class="cls-8" x="420.39" y="264.69" width="8.84" height="8.84"/>
    <rect class="cls-2" x="442.15" y="264.69" width="8.84" height="8.84"/>
    <rect class="cls-2" x="463.91" y="264.69" width="8.84" height="8.84"/>
    <rect class="cls-2" x="485.69" y="264.69" width="8.84" height="8.84"/>
    <rect class="cls-2" x="355.1" y="283.49" width="8.84" height="8.84"/>
    <rect class="cls-2" x="376.85" y="283.49" width="8.84" height="8.84"/>
    <rect class="cls-2" x="398.63" y="283.49" width="8.84" height="8.84"/>
    <rect class="cls-2" x="420.78" y="283.08" width="8.84" height="8.84"/>
    <rect class="cls-2" x="442.15" y="283.49" width="8.84" height="8.84"/>
    <rect class="cls-8" x="463.91" y="283.49" width="8.84" height="8.84"/>
    <rect class="cls-2" x="485.69" y="283.49" width="8.84" height="8.84"/>
    <rect class="cls-2" x="355.1" y="302.28" width="8.84" height="8.84"/>
    <rect class="cls-8" x="376.85" y="302.28" width="8.84" height="8.84"/>
    <rect class="cls-2" x="398.63" y="302.28" width="8.84" height="8.84"/>
    <rect class="cls-2" x="420.39" y="302.28" width="8.84" height="8.84"/>
    <rect class="cls-2" x="442.15" y="302.28" width="8.84" height="8.84"/>
    <rect class="cls-2" x="464.32" y="301.87" width="8.84" height="8.84"/>
    <rect class="cls-2" x="485.69" y="302.28" width="8.84" height="8.84"/>
    <rect class="cls-8" x="814.55" y="133.48" width="36.96" height="63.67"/>
    <rect class="cls-8" x="711.47" y="118.7" width="29.18" height="79.49"/>
    <path class="cls-10" d="M711.15,124.43c9.92-.6,19.88-.6,29.8,0-4.95.45-9.92.6-14.89.45-4.97.15-9.95,0-14.91-.45Z"/>
    <path class="cls-10" d="M712.77,128.2c9.38-.58,18.79-.58,28.17,0-9.38.6-18.79.6-28.17,0Z"/>
    <path class="cls-10" d="M725.23,182.55c-.23,0-.43-10.53-.43-23.53s.21-23.51.43-23.51.45,10.53.45,23.51-.21,23.53-.45,23.53Z"/>
    <path class="cls-10" d="M711.5,189.79c9.51-.6,19.05-.6,28.57,0-9.51.58-19.05.58-28.57,0Z"/>
    <path class="cls-10" d="M711.5,193.18c9.75-.58,19.53-.58,29.29,0-9.75.6-19.53.6-29.29,0Z"/>
    <rect class="cls-2" x="740.66" y="110.1" width="23.44" height="88.08"/>
    <path class="cls-10" d="M740.49,150.55c1.29.71,2.51,1.55,3.64,2.51l8.45,6.42,8.43,6.44c1.22.82,2.36,1.77,3.39,2.82-1.32-.64-2.58-1.41-3.74-2.3-2.26-1.54-5.31-3.72-8.62-6.17s-6.17-4.87-8.23-6.62c-1.21-.91-2.33-1.95-3.33-3.08Z"/>
    <path class="cls-10" d="M740.39,136.75c4.19,3,8.2,6.24,12.01,9.71,3.99,3.21,7.8,6.64,11.41,10.28-4.19-3-8.2-6.24-12.01-9.71-3.99-3.21-7.8-6.64-11.41-10.28Z"/>
    <rect class="cls-8" x="638.8" y="114.34" width="11.21" height="83.91"/>
    <path class="cls-10" d="M639.25,125.77c1.7.51,3.48.68,5.24.51,1.77.17,3.56,0,5.26-.51-1.7-.53-3.49-.71-5.26-.53-1.77-.18-3.55,0-5.24.53Z"/>
    <ellipse class="cls-10" cx="644.27" cy="123.94" rx="5.24" ry=".53"/>
    <path class="cls-10" d="M639.25,191.77c1.7.51,3.48.68,5.24.51,1.77.17,3.56,0,5.26-.51-1.7-.53-3.49-.71-5.26-.53-1.77-.18-3.55,0-5.24.53Z"/>
    <path class="cls-10" d="M639.02,189.94c1.7.51,3.48.68,5.24.51,1.77.17,3.56,0,5.26-.51-1.7-.52-3.49-.7-5.26-.53-1.77-.17-3.55.01-5.24.53Z"/>
    <path class="cls-10" d="M644.72,178.97c.54-7.14.72-14.31.53-21.47.19-7.16,0-14.33-.53-21.47-.29,0-.51,9.62-.51,21.47s.23,21.47.51,21.47Z"/>
    <rect class="cls-2" x="689.04" y="113.8" width="22.42" height="83.91"/>
    <path class="cls-10" d="M705.14,198.78s.1-.14.25-.45.39-.78.66-1.4c.76-1.82,1.3-3.73,1.62-5.68.56-3.14.1-6.38-1.32-9.23-.97-1.78-2.36-3.29-4.05-4.4-1.89-1.28-4.19-1.82-6.46-1.52-1.24.2-2.39.74-3.35,1.54-1.05.87-1.64,2.17-1.6,3.54.12,1.4.81,2.69,1.91,3.56,1.08.91,2.42,1.48,3.83,1.62,2.94.23,5.84-.82,7.96-2.88,2.24-2.13,3.64-5,3.93-8.08.33-3.14-.03-6.31-1.07-9.3-.99-3.22-2.9-6.07-5.49-8.23-1.4-1.09-3.09-1.75-4.85-1.89-1.86-.2-3.72.46-5.04,1.79-.68.71-1.09,1.63-1.15,2.61-.02.98.26,1.93.78,2.76,1.05,1.58,2.67,2.68,4.52,3.08,3.64.71,7.39-.55,9.87-3.31,2.25-2.66,3.6-5.97,3.85-9.44.38-3.3.05-6.65-.97-9.81-.97-3.09-3.02-5.73-5.78-7.44-2.64-1.73-5.95-2.09-8.9-.97-1.49.57-2.58,1.85-2.9,3.41-.27,1.49.09,3.03,1.01,4.24,1.87,2.16,4.86,2.97,7.57,2.06,2.34-.82,4.41-2.29,5.94-4.24,2.73-3.23,4.31-7.27,4.48-11.5.1-3.17-.61-6.31-2.06-9.13-.91-1.76-2.09-3.37-3.52-4.75-.37-.36-.76-.69-1.17-1.01-.13-.11-.28-.21-.43-.29,1.95,1.75,3.56,3.84,4.75,6.17,1.36,2.76,2,5.83,1.85,8.9-.22,4.08-1.78,7.97-4.44,11.06-1.47,1.82-3.42,3.18-5.63,3.93-2.36.81-4.97.12-6.62-1.75-.75-1.01-1.05-2.3-.82-3.54.27-1.26,1.17-2.3,2.39-2.74,2.67-.98,5.64-.64,8.02.93,2.56,1.59,4.46,4.05,5.35,6.93.96,3.02,1.26,6.21.88,9.36-.23,3.26-1.49,6.36-3.6,8.86-2.23,2.48-5.59,3.61-8.86,2.98-1.57-.35-2.96-1.28-3.87-2.61-.91-1.26-.8-2.98.27-4.11,1.09-1.07,2.59-1.61,4.11-1.48,1.56.14,3.05.73,4.28,1.71,2.43,2.01,4.23,4.69,5.16,7.71,1.04,2.85,1.43,5.9,1.13,8.93-.25,2.86-1.53,5.52-3.6,7.51-1.91,1.89-4.54,2.87-7.22,2.69-2.49-.1-4.57-1.91-5.02-4.36-.04-1.12.45-2.19,1.32-2.9.83-.73,1.85-1.22,2.94-1.4,2.09-.3,4.21.18,5.96,1.36,1.59,1.04,2.9,2.46,3.83,4.11,1.4,2.75,1.89,5.86,1.42,8.9-.27,1.93-.75,3.83-1.42,5.66-.37,1.25-.66,1.89-.62,1.91Z"/>
    <rect class="cls-10" x="649.8" y="121.31" width="38.91" height="76.42"/>
    <path class="cls-2" d="M651.16,134.02c6.26.53,12.54.71,18.82.53,6.28.17,12.57,0,18.84-.53-6.27-.52-12.55-.69-18.84-.51-6.28-.17-12.56,0-18.82.51Z"/>
    <path class="cls-2" d="M650.66,139.82c6.15.53,12.33.7,18.51.53,6.17.17,12.35,0,18.51-.53-6.15-.53-12.33-.7-18.51-.53-6.17-.17-12.35,0-18.51.53Z"/>
    <path class="cls-2" d="M649.41,189.11c6.51.52,13.05.69,19.58.51,6.53.17,13.07,0,19.58-.51-6.51-.54-13.05-.72-19.58-.53-6.53-.19-13.07,0-19.58.53Z"/>
    <path class="cls-2" d="M649.94,182.31c6.34.52,12.7.69,19.06.51,6.36.17,12.72,0,19.06-.51-6.34-.54-12.7-.72-19.06-.53-6.36-.19-12.72,0-19.06.53Z"/>
    <rect class="cls-8" x="764.08" y="113.27" width="22.42" height="83.91"/>
    <path class="cls-10" d="M780.18,198.24s.1-.14.27-.45.37-.78.64-1.4c.76-1.83,1.3-3.74,1.62-5.7.56-3.14.1-6.38-1.32-9.23-.95-1.76-2.31-3.26-3.97-4.38-1.89-1.28-4.19-1.82-6.46-1.52-1.24.2-2.39.74-3.35,1.54-1.05.87-1.64,2.17-1.6,3.54.13,1.4.83,2.69,1.93,3.56,1.07.92,2.4,1.48,3.8,1.62,2.95.22,5.85-.83,7.96-2.9,2.24-2.12,3.65-4.99,3.95-8.06.3-3.17-.1-6.36-1.17-9.36-.99-3.22-2.9-6.07-5.49-8.23-1.4-1.09-3.09-1.75-4.85-1.89-1.86-.18-3.7.46-5.04,1.77-.68.76-1.06,1.75-1.05,2.78-.02.98.26,1.93.78,2.76,1.05,1.58,2.67,2.68,4.52,3.08,3.64.7,7.39-.56,9.87-3.31,2.25-2.67,3.6-5.98,3.85-9.46.39-3.29.06-6.63-.97-9.79-.97-3.1-3.02-5.74-5.78-7.44-2.65-1.71-5.95-2.06-8.9-.95-1.49.57-2.59,1.87-2.9,3.43-.24,1.45.12,2.94,1.01,4.11,1.87,2.16,4.86,2.98,7.57,2.06,2.34-.82,4.4-2.29,5.94-4.24,2.73-3.23,4.31-7.29,4.48-11.52.1-3.16-.6-6.3-2.06-9.11-.93-1.82-2.16-3.46-3.64-4.87-.37-.36-.76-.7-1.17-1.01-.13-.12-.27-.21-.43-.29,1.96,1.74,3.57,3.83,4.75,6.17,1.36,2.76,2,5.83,1.85,8.9-.18,4.11-1.72,8.05-4.38,11.19-1.47,1.82-3.42,3.19-5.63,3.95-2.36.81-4.97.12-6.62-1.75-.75-1.01-1.05-2.3-.82-3.54.27-1.26,1.17-2.3,2.39-2.74,2.67-.99,5.64-.65,8.02.9,2.56,1.6,4.46,4.07,5.35,6.95.96,3.02,1.26,6.21.88,9.36-.23,3.25-1.49,6.35-3.6,8.84-2.22,2.48-5.57,3.62-8.84,3-1.61-.33-3.02-1.28-3.93-2.65-.93-1.25-.83-2.99.25-4.11,1.09-1.06,2.6-1.59,4.11-1.46,1.56.13,3.05.72,4.28,1.69,2.43,2.01,4.23,4.68,5.18,7.69,1.04,2.85,1.43,5.9,1.15,8.93-.26,2.85-1.55,5.51-3.62,7.49-1.9,1.9-4.53,2.89-7.22,2.71-2.48-.11-4.56-1.92-5.02-4.36-.04-1.13.45-2.2,1.32-2.92.84-.71,1.86-1.19,2.94-1.38,2.09-.3,4.21.18,5.96,1.36,1.59,1.04,2.9,2.46,3.83,4.11,1.4,2.75,1.89,5.86,1.42,8.9-.26,1.93-.74,3.83-1.42,5.66-.35,1.3-.66,1.93-.62,1.95Z"/>
    <rect class="cls-2" x="607.64" y="109.03" width="31.16" height="88.14"/>
    <rect class="cls-2" x="786.5" y="118.7" width="29.14" height="78.48"/>
    <path class="cls-10" d="M816.36,157.87c1.4,1.28,2.96,2.38,4.63,3.29,1.83.91,3.82,1.46,5.86,1.62,2.49.2,5-.23,7.28-1.25,2.47-1.05,4.71-2.41,6.99-3.19,2.01-.82,4.22-1.03,6.35-.6,1.43.31,2.72,1.08,3.68,2.18.37.39.62.87.72,1.4,0,0-.29-.47-.99-1.17-.98-.96-2.22-1.6-3.56-1.85-2-.32-4.06-.06-5.92.74-2.18.8-4.38,2.06-6.93,3.23-2.42,1.07-5.06,1.5-7.69,1.28-2.16-.2-4.26-.85-6.17-1.89-1.26-.68-2.41-1.55-3.39-2.59-.36-.34-.65-.75-.86-1.19Z"/>
    <path class="cls-10" d="M815.7,165.61c1.42,1.26,2.97,2.37,4.63,3.29,1.83.91,3.82,1.46,5.86,1.62,2.49.18,4.99-.26,7.28-1.28,2.47-1.05,4.71-2.39,6.99-3.19,2.02-.81,4.23-1.01,6.35-.58,1.44.33,2.73,1.12,3.68,2.24.66.8.76,1.38.72,1.4s-.29-.49-.97-1.17c-.98-.96-2.23-1.61-3.58-1.85-2-.33-4.06-.07-5.92.74-2.18.78-4.38,2.06-6.93,3.23-2.41,1.07-5.06,1.5-7.69,1.25-2.16-.19-4.27-.83-6.17-1.87-1.26-.68-2.41-1.56-3.39-2.61-.36-.35-.65-.77-.86-1.23Z"/>
    <path class="cls-10" d="M816.19,140.45c0-.25,8.02-.43,17.91-.43s17.91.19,17.91.43c-5.96.45-11.94.6-17.91.45-5.97.15-11.95,0-17.91-.45Z"/>
    <path class="cls-10" d="M803.07,131.34c-.8-.34-1.7-.42-2.55-.23-.9.22-1.65.82-2.06,1.65-.38,1.01-.08,2.14.74,2.84.73.78,1.87,1.04,2.86.64.8-.42,1.37-1.17,1.56-2.06.16-.85.05-1.74-.31-2.53,0,0,.29.12.56.56.35.63.48,1.35.37,2.06-.16,1.12-.83,2.1-1.81,2.65-1.31.61-2.86.31-3.85-.74-1.07-.95-1.42-2.48-.88-3.8.51-1.01,1.46-1.72,2.57-1.91.7-.14,1.42-.04,2.06.29.53.39.74.56.74.6Z"/>
    <path class="cls-10" d="M801.02,189.32c-.25,0-.45-11-.45-24.68s.21-24.56.45-24.56.45,10.98.45,24.56-.12,24.68-.45,24.68Z"/>
    <rect class="cls-8" x="580.37" y="196.72" width="301.59" height="17.21"/>
    <rect class="cls-2" x="855.62" y="196.72" width="26.32" height="17.21"/>
  </g>
  <g id="freepik--Character--inject-2">
    <path class="cls-7" d="M783.39,476.52c14.4-17.17,22.72-21.9,33.19-33.54,8.8-9.83,17.77-19.91,22.95-32.06s5.94-26.98-1.36-37.98c-13.32-2.69-26.8-4.58-40.35-5.66-17.21-.95-25.21-.8-25.21-.8l-9.54,28.79,17.23,7.03-35.29,31.94-27.87,32.41,13.94,40.21,18.76,1.73,33.54-32.06Z"/>
    <path class="cls-3" d="M808.05,375.72c-1.4,1.7-2.92,3.29-4.57,4.75l-11.31,11.11c-4.44,4.34-8.51,8.23-11.56,10.92-1.57,1.52-3.27,2.9-5.08,4.11,1.41-1.68,2.93-3.26,4.57-4.73l11.31-11.13c4.44-4.34,8.51-8.23,11.56-10.9,1.57-1.52,3.27-2.9,5.08-4.13Z"/>
    <path class="cls-3" d="M833.57,383.33c-.14.12-.97-.78-2.61-1.75-2.12-1.26-4.57-1.85-7.03-1.67-2.46.26-4.78,1.26-6.66,2.86-1.44,1.23-2.06,2.28-2.24,2.2s.31-1.28,1.73-2.76c3.88-4.01,10.13-4.56,14.64-1.28,1.65,1.19,2.26,2.32,2.18,2.39Z"/>
    <path class="cls-9" d="M770.81,379.98c6.14-2.09,9.43-8.76,7.34-14.9-.05-.15-.1-.3-.16-.44-1.47-2.6-3.18-5.05-5.12-7.32-.96-1.42-1.77-2.93-2.43-4.5l-2.84-8.72c-1.91-7.32-3.5-14.72-9.19-19.35-5.16-4.11-12.34-4.81-18.26-7.79-4.34-2.16-7.98-5.53-12.24-7.86s-9.71-3.45-13.84-.9c-2.41,1.5-4.11,4.11-6.46,5.53-5.04,3.04-12.24.78-16.84,4.42-3.74,2.98-4.11,8.51-6.79,12.46-2.92,4.28-4.71,8.23-9.36,10.61-4.57,2.22-7.46,6.88-7.4,11.97,0,4.57-.66,6.64-.78,11.21-.45,3.42-1.52,6.72-3.17,9.75-1.32,3.04-3.8,14.93-1.09,16.86l31.01,13.96c9.81,9.62,19.95,19.5,32.66,24.68l2.45,3.29c-2.92.37,31.03-3.02,36.71-23.44.6-2.86,1.8-5.55,3.54-7.9,2.07-2.11,3.87-4.47,5.37-7.01,2.27-5.02,1.02-10.94-3.11-14.6Z"/>
    <path class="cls-9" d="M738.05,414.39c6.59-7.33,12.52-15.22,17.73-23.59,5.24-8.4,8.31-17.98,8.93-27.87,0-1.48-.47-11.87-1.89-12.34-1.03-.31-1.83,8.84-2.69,9.48-7.9,6.54-13.63,15.31-16.45,25.17-2.92,9.47-4.79,19.22-5.57,29.1"/>
    <path class="cls-7" d="M676.72,477.73c14.25,5.51,42.98-18.78,42.98-18.78l33.54-78.97c10.14-22.62,5.47-47.3-17.34-56.74l-2.06-.74c-21.73-7.62-45.67,2.74-54.99,23.79-8.68,19.58-18.02,41.34-21.68,52.2-7.55,22.48,13.61,33.81,13.61,33.81,0,0-1.95,5.12-4.54,11.6-5.78,14.52,4.71,32,10.57,33.83h-.1Z"/>
    <path class="cls-3" d="M670.69,432.3c10.35,3.59,21.51,4.13,32.16,1.56,0,0-12.79,13.8-34.43,3.97l2.26-5.53Z"/>
    <path class="cls-9" d="M676.04,366.14c.27.56,3.31-.39,6.75.82s5.35,3.8,5.88,3.52.1-1.01-.72-2.2c-1.13-1.55-2.71-2.71-4.52-3.33-1.78-.63-3.72-.68-5.53-.14-1.36.45-1.97,1.07-1.85,1.34Z"/>
    <path class="cls-9" d="M709.85,376.51c.25.56,3.29-.39,6.72.82s5.37,3.83,5.88,3.54.1-1.03-.72-2.2c-1.12-1.56-2.7-2.73-4.52-3.35-1.78-.62-3.72-.67-5.53-.12-1.34.43-1.97,1.07-1.83,1.32Z"/>
    <path class="cls-9" d="M691.9,392.55c-1.61-1.2-3.37-2.19-5.22-2.96-.84-.39-1.62-.86-1.56-1.5.25-.93.77-1.77,1.5-2.41l4.94-5.78c6.95-8.23,12.34-15.18,11.95-15.44s-6.17,6.17-13.16,14.4l-4.83,5.84c-.93.86-1.52,2.03-1.67,3.29.03.72.4,1.38.99,1.79.44.3.92.55,1.42.74,1.79.93,3.69,1.61,5.66,2.04Z"/>
    <path class="cls-9" d="M701.19,398.49c-.56-.23-1.85,3.52-5.98,5.04s-7.96-.27-8.23.25.64,1.03,2.3,1.67c2.18.79,4.57.79,6.75,0,2.09-.76,3.8-2.31,4.77-4.32.74-1.5.66-2.63.39-2.63Z"/>
    <path class="cls-9" d="M718.57,356.56c0,1.05,3.6,1.81,7.47,3.7s6.75,4.11,7.57,3.5c.39-.33.12-1.4-.88-2.78-1.34-1.76-3.08-3.17-5.08-4.11-1.98-.97-4.17-1.46-6.38-1.42-1.69.12-2.69.6-2.69,1.11Z"/>
    <path class="cls-9" d="M685.71,346.32c.33,1.01,2.98,1.01,5.84,2.06s5.08,2.37,5.92,1.75c.39-.31.29-1.23-.51-2.34-1.09-1.4-2.6-2.42-4.3-2.92-1.68-.55-3.5-.55-5.18,0-1.3.31-1.91.99-1.77,1.46Z"/>
    <path class="cls-7" d="M745.61,395.92c.45,0,16.99.84,11.15,15.98-5.84,15.14-19.85,6.17-19.7,5.7s8.56-21.68,8.56-21.68Z"/>
    <path class="cls-3" d="M743.91,413.65s.19.29.56.66c.52.52,1.22.8,1.95.8,1.83,0,4.11-2.06,5.29-4.69.54-1.3.78-2.71.7-4.11.09-1.07-.36-2.12-1.19-2.8-.56-.4-1.33-.35-1.83.12-.37.35-.39.68-.47.68s-.23-.37.12-.97c.23-.34.57-.58.97-.7.53-.17,1.11-.11,1.6.16,1.15.76,1.84,2.04,1.85,3.41.14,1.56-.11,3.13-.72,4.57-1.28,3.02-3.93,5.26-6.35,5.06-.92-.08-1.75-.57-2.26-1.34-.33-.49-.27-.86-.21-.86Z"/>
    <path class="cls-9" d="M698.42,325.17c-1.91-2.3,8.53-7.32,15.61-7.65,10.69-.53,25.54,2.43,32.9,8.1,8.93,6.85,15.3,15.18,16.74,26.32,1.16,11.25-.69,22.6-5.35,32.9-1.14,3.26-3.14,6.15-5.78,8.37-3.43,2.51-8.23,3-9.95,7.67-.55,1.73-1.78,3.17-3.39,3.99-3.91,1.83-6.17-2.26-6.66-5.63-.97-7.22,1.46-14.4,3.85-21.31,1.44-4.98,3.68-9.7,6.64-13.96,1.73-2.22,3.87-4.11,5.47-6.44,1.77-2.25,2.47-5.15,1.91-7.96-.2-.6-.45-1.17-.74-1.73-2.79-5.43-8.3-8.93-14.4-9.15-9.69-.35-25.97-1.62-28.61-6.01-3.8-6.29-4.11-9.52-4.11-9.52l-4.13,1.99Z"/>
    <path class="cls-9" d="M747.01,323.28c-7.16-6.27-16.54-9.41-26.04-8.7-5.04.26-9.76,2.57-13.06,6.4-3.02,3.97-3.29,10.28.31,13.68l.23.31c5.57,4.71,10.1,5.51,17.4,5.82,6.17.29,12.34-1.15,18.39-.84,6.58.33,12.9,2.62,18.16,6.58-2.99-8.97-8.3-16.98-15.38-23.24Z"/>
    <path class="cls-4" d="M768.75,355.78c-.73,1.43-1.71,2.72-2.9,3.8-2.71,2.79-5.88,5.09-9.38,6.79-3.49,1.71-7.25,2.8-11.11,3.23-1.59.26-3.21.26-4.79,0,10.82-.77,20.92-5.71,28.17-13.78v-.04Z"/>
    <path class="cls-4" d="M773.85,360.71c-.1.61-.32,1.2-.64,1.73-.72,1.52-1.57,2.97-2.55,4.34-3.23,4.57-7.53,8.27-12.52,10.78-5.02,2.49-10.57,3.71-16.16,3.58-1.68-.05-3.35-.25-5-.58-.62-.1-1.21-.29-1.77-.58,0-.21,2.59.37,6.79.31,5.43-.06,10.78-1.35,15.65-3.76,4.82-2.47,9.04-5.98,12.34-10.28,2.61-3.23,3.7-5.63,3.87-5.53Z"/>
    <path class="cls-7" d="M574.2,528.05l-72.8-76.09-15.65,24.68,19.31,36.89s21.04,34.47,31.88,46.6,11.62,9.52,11.62,9.52l25.65-41.6Z"/>
    <path class="cls-7" d="M474.5,429.96c-.25-.16-13-2.06-18.08-2.78-1.31-.2-2.64.09-3.74.82l-7.65,5.08-6.27,13.31,1.87,1.25-1.91,12.01c1.35,1.61,3.74,1.83,5.36.49.32-.27.59-.58.81-.94,2.15-2.81,4.01-5.83,5.55-9.01l8.23-.14-.37.76-8.49,2.16-2.84,7.22,2.53,7.47,5.72,5.22,2.47-.1,4.65,2.8s4.71-4.11.72-8.23c0,0,3.85,3.78,5.96,2.3l17.28,7.86,13.59-13.12,3.68-10.45s-21.66-21.22-22.97-22.23c-1.94-.87-3.99-1.45-6.09-1.75Z"/>
    <path class="cls-3" d="M463.13,467.22c-.16,0,0-1.05-.14-2.61-.28-2.03-1.32-3.87-2.9-5.16l-.31-.25-.31-.23.1-.37c.6-1.88.68-3.9.23-5.82-.27-.8-.49-1.62-.66-2.45.1,0,.8.68,1.36,2.24.72,2.05.75,4.28.1,6.35l-.21-.6.35.27c1.82,1.44,2.91,3.62,2.98,5.94.02,1.81-.49,2.71-.6,2.67Z"/>
    <path class="cls-3" d="M456.98,472.77c.65-.73,1.15-1.59,1.48-2.51.45-2.34-.22-4.75-1.81-6.52-.45-.64-.95-1.23-1.42-1.83l-.19-.23v-.29c.63-1.72.28-3.64-.93-5.02-.9-1.03-1.77-1.34-1.71-1.48s.99,0,2.2,1.01c1.59,1.5,2.14,3.8,1.42,5.86l-.1-.51c.49.58.99,1.19,1.48,1.85.88,1.14,1.52,2.45,1.87,3.85.29,1.18.22,2.42-.21,3.56-.68,2.02-2.1,2.39-2.1,2.26Z"/>
    <path class="cls-3" d="M459.47,459.06c.16.25-.6,1.01-1.69,1.69s-2.06,1.05-2.24.78.6-1.01,1.69-1.69,2.08-1.03,2.24-.78Z"/>
    <path class="cls-3" d="M462.2,468.41c-.31,0-.76-1.46-2.06-2.92s-2.57-2.22-2.47-2.51,1.91.12,3.31,1.83,1.5,3.6,1.21,3.6Z"/>
    <path class="cls-3" d="M467.51,468.41c-.29-.14,1.4-3.95,2.06-8.99s0-9.13.29-9.17c1.08,2.98,1.35,6.2.78,9.32-.25,3.17-1.33,6.22-3.13,8.84Z"/>
    <path class="cls-3" d="M449.92,438.98c.14,0,0,.8-.43,1.95-.55,1.54-1.37,2.97-2.43,4.22-1.1,1.29-2.63,2.15-4.3,2.43-1.32.16-2.06-.23-2.06-.35s.78,0,1.87-.39c1.42-.45,2.7-1.28,3.68-2.41.97-1.18,1.82-2.46,2.53-3.8.56-1.01,1.01-1.71,1.13-1.65Z"/>
    <path class="cls-3" d="M458.99,448.53c-.19-.23.25-.86.7-1.62s.84-1.42,1.15-1.36.35.99-.23,1.93-1.46,1.3-1.62,1.05Z"/>
    <path class="cls-4" d="M405.77,427.16l.21,31.16c0,10.47,42.16,10.12,41.62-.29,0-.62-.21-31.16-.21-31.16l-41.62.29Z"/>
    <path class="cls-4" d="M446.37,432.34c2.49-.4,5.02-.4,7.51,0,1.84.18,3.54,1.05,4.75,2.45.73,1.25,1.12,2.67,1.13,4.11.43,2.72.16,5.5-.8,8.08-1.16,2.28-3.11,4.05-5.49,4.98-2.35.91-4.87,1.27-7.38,1.07v-4.75c1.48.08,2.96-.01,4.42-.27,1.48-.24,2.84-.97,3.87-2.06,1.44-2.02,2.02-4.52,1.62-6.97.01-.97-.26-1.93-.78-2.76-.94-.98-2.27-1.48-3.62-1.36-1.76,0-3.51.35-5.14,1.03"/>
    <path class="cls-9" d="M431.95,363.63c-.25.21-.56.34-.88.37-.97.04-1.89-.4-2.47-1.17-.45-.53-.74-1.18-.84-1.87-.13-.86.15-1.73.76-2.34,1.53-1.45,3.86-1.67,5.63-.53,2.04,1.46,3.04,3.98,2.53,6.44-.56,2.66-1.85,5.12-3.72,7.1-1.97,2.04-3.57,4.41-4.73,6.99-1.06,2.82-.45,5.99,1.56,8.23,2.06,2.32,4.81,3.87,6.99,6.17,1.13,1.12,1.89,2.55,2.2,4.11.26,1.51,0,3.07-.72,4.42-1.38,2.33-3.33,4.27-5.66,5.66-1.92,1.18-3.67,2.61-5.2,4.26-2.07,2.52-3.25,5.66-3.35,8.93,0,1.2.09,2.4.23,3.6-.15-.28-.25-.59-.31-.9-.21-.88-.32-1.79-.33-2.69-.07-3.41,1.06-6.73,3.19-9.4,1.52-1.76,3.29-3.27,5.26-4.5,2.18-1.33,3.99-3.17,5.29-5.37.62-1.16.84-2.51.6-3.8-.28-1.36-.96-2.61-1.95-3.58-2.06-2.06-4.83-3.62-7.05-6.17-2.24-2.52-2.91-6.07-1.75-9.23,1.22-2.7,2.92-5.15,5-7.26,1.78-1.83,3.01-4.11,3.58-6.6.49-2.13-.31-4.34-2.06-5.66-1.49-.99-3.45-.88-4.81.29-.91,1-.91,2.53,0,3.54.46.7,1.22,1.15,2.06,1.21.66-.08.93-.31.97-.21Z"/>
    <path class="cls-7" d="M449.35,435.08l16.45-.78,18.67,5.31,23.3,19.89s-17.79,13.2-23.55,7.44-12.48-18.51-12.48-18.51l-6.62-2.8s-21.74-.06-15.77-10.55Z"/>
    <path class="cls-3" d="M497.06,450.31c-.33-.19-.64-.41-.93-.66l-2.57-2.06-9.25-7.69h.14l-18.71-5.2h.06l-16.45.8.45-.27-.14.25c-1.08,1.55-1.08,3.61,0,5.16,1.29,1.37,2.93,2.34,4.75,2.8,3.49,1,7.09,1.52,10.71,1.56h.1l6.6,2.84h.14v.14c2.5,4.8,5.3,9.44,8.37,13.9,1.11,1.58,2.06,2.78,2.71,3.58.38.38.71.8,1.01,1.25-.43-.31-.83-.67-1.19-1.07-1.04-1.11-2.02-2.27-2.94-3.48-3.24-4.38-6.16-8.99-8.74-13.8l.23.21-6.64-2.76h.19c-3.74,0-7.45-.52-11.04-1.54-2.02-.51-3.85-1.6-5.26-3.13-.72-.9-1.08-2.02-1.03-3.17.09-1.11.43-2.18.99-3.15l.12-.29.14-.25h.47l16.45-.74h.16l18.63,5.41h0l9.07,7.96c.97.88,1.77,1.62,2.43,2.2s1.01,1.13.97,1.17Z"/>
    <path class="cls-9" d="M447.29,459.32s-.45.39-1.4.95c-.56.34-1.14.63-1.75.88-.79.38-1.6.72-2.43,1.01-4.79,1.69-9.85,2.5-14.93,2.41-5.07-.04-10.1-.91-14.89-2.57-1.45-.5-2.85-1.09-4.22-1.79-.97-.49-1.48-.8-1.44-.88s2.24.86,5.88,1.95c4.77,1.42,9.71,2.16,14.68,2.22,4.97.08,9.91-.61,14.66-2.06,3.56-1.13,5.66-2.28,5.82-2.12Z"/>
    <path class="cls-9" d="M447.52,459.06c-.57-5.34-.77-10.71-.6-16.08-.21-5.37-.05-10.75.47-16.1.55,5.34.74,10.71.6,16.08.19,5.37.03,10.75-.47,16.1Z"/>
    <path class="cls-9" d="M426.87,424.92s-.14-.14-.35-.51c-.25-.54-.43-1.12-.53-1.71-.29-2.21.14-4.45,1.23-6.4,1.67-2.79,3.89-5.22,6.52-7.14,3.18-2.17,5.72-5.15,7.38-8.62.73-1.77.8-3.75.21-5.57-.67-1.68-1.72-3.19-3.06-4.4-2.53-2.43-5.24-4.54-6.42-7.2-1.02-2.06-.92-4.49.27-6.46.33-.51.77-.93,1.3-1.23.37-.21.58-.27.6-.23-.6.47-1.13,1.04-1.54,1.69-.97,1.85-.97,4.05,0,5.9,1.17,2.41,3.76,4.34,6.44,6.83,1.47,1.3,2.62,2.93,3.35,4.75.7,2.05.64,4.29-.19,6.29-1.7,3.64-4.35,6.75-7.67,9.01-2.57,1.8-4.77,4.09-6.48,6.72-1.1,1.8-1.62,3.9-1.5,6.01.12,1.48.56,2.22.45,2.26Z"/>
    <path class="cls-6" d="M156.29,446.16l-40.1-30.29s17.34-50.9,10.49-57.21l-61.51,75.58,60.48,49.75,30.64-37.82Z"/>
    <g class="cls-13">
      <path class="cls-1" d="M156.29,446.16l-40.1-30.29s17.34-50.9,10.49-57.21l-61.51,75.58,60.48,49.75,30.64-37.82Z"/>
    </g>
    <path class="cls-2" d="M100.47,441.9c-1.69,1.13-3.95.81-5.26-.74-1.2-1.64-.9-3.93.68-5.2,1.78-1.25,4.22-.89,5.57.8,1.07,1.85.49,4.21-1.32,5.35"/>
    <g class="cls-14">
      <path class="cls-11" d="M65.16,434.23l6.29,4.77,56.64-74.24s1.28-4.57-1.4-6.17l-61.53,75.64Z"/>
    </g>
    <path class="cls-9" d="M117.61,414.94c-.39-.29-2.06,1.42-4.73,2.26s-5,.56-5.12,1.01,2.45,1.65,5.66.58,4.59-3.64,4.2-3.85Z"/>
    <path class="cls-9" d="M120.77,404.35c-.29-.37-2.22.72-4.79.7s-4.52-.99-4.81-.62,1.6,2.28,4.81,2.28,5.14-2.06,4.79-2.37Z"/>
    <path class="cls-9" d="M114.95,392.14c-.35.27,1.07,2.28,3.87,2.98s5-.37,4.81-.78-2.06-.21-4.4-.82-3.95-1.71-4.28-1.38Z"/>
    <path class="cls-9" d="M125.95,422.88c-.45-.12-1.32,2.06-3.17,3.95s-3.83,3.06-3.66,3.52,2.76,0,4.89-2.39,2.45-5.04,1.93-5.08Z"/>
    <path class="cls-6" d="M175.97,416.79l-36.05-34.96s23.57-48.41,17.4-55.53l-70.31,67.45,53.86,56.8,35.11-33.77Z"/>
    <path class="cls-2" d="M121.1,405.71c-1.81.92-4.03.32-5.14-1.38-.98-1.78-.4-4.01,1.32-5.1,1.92-1.01,4.3-.35,5.43,1.5.81,1.99-.1,4.26-2.06,5.14"/>
    <g class="cls-14">
      <path class="cls-11" d="M87,393.76l5.66,5.51,65.34-66.74s1.83-4.36-.64-6.17l-70.35,67.39Z"/>
    </g>
    <path class="cls-9" d="M141.4,381.07c-.33-.33-2.2,1.15-4.96,1.67s-5.02,0-5.2.39,2.22,1.93,5.53,1.23,5.02-3.04,4.63-3.29Z"/>
    <path class="cls-9" d="M145.86,370.95c-.25-.41-2.28.43-4.85,0s-4.36-1.56-4.69-1.21,1.32,2.49,4.5,2.86,5.35-1.32,5.04-1.65Z"/>
    <path class="cls-9" d="M141.58,358.1c-.39.23.78,2.41,3.48,3.43s5,.25,4.87-.19-2.06-.47-4.28-1.36-3.7-2.18-4.07-1.89Z"/>
    <path class="cls-9" d="M148.74,389.96c-.45-.16-1.56,1.81-3.64,3.54s-4.11,2.57-4.11,3.04,2.74.29,5.14-1.79,2.96-4.69,2.61-4.79Z"/>
    <path class="cls-9" d="M160.24,399.05s108.17,85.45,128.47,87.98l23.03,3.74,46.29,19.93,142.91,75.25,44.81,31.3,23.01,43.48,1.95,26.12s-103.38,12.59-118.6,3.29c-15.22-9.3-145.67-106.71-152.43-114.32-6.77-7.61-129.77-59.19-178.8-143.63l39.34-33.13Z"/>
    <path class="cls-9" d="M104.5,480.96s78.46,72.86,133.43,94c34.24,13.33,67.32,29.44,98.92,48.18l92.2,50.2,118.44-53.47-23.38-41.93-192.31-45.24-195.27-98.98s-31.18,32.02-32.02,47.24Z"/>
    <path class="cls-9" d="M494.39,642.03c9.28-16.3,27.06-25.89,45.78-24.68"/>
    <path class="cls-9" d="M504.87,599.33c3.3,10.5-.09,21.95-8.58,28.96"/>
    <path class="cls-4" d="M436.86,551.09c.77.24,1.5.55,2.2.95,1.38.68,3.35,1.69,5.78,2.98,4.85,2.57,11.45,6.29,18.51,10.67,7.05,4.38,13.47,8.58,17.95,11.74,2.24,1.56,4.11,2.86,5.26,3.8.67.43,1.3.94,1.85,1.52-.73-.32-1.42-.72-2.06-1.19l-5.45-3.52c-4.61-2.98-10.96-7.07-18.1-11.45s-13.66-8.23-18.51-10.92l-5.61-3.27c-.66-.36-1.28-.8-1.83-1.32Z"/>
    <path class="cls-4" d="M457.57,687.74l-.93-.58-2.65-1.81-10.28-7.05-37.35-26.06-55.32-38.77-32.66-22.93-17.25-12.13c-5.8-4.11-11.8-8.14-18.02-12.09-12.44-7.73-24.95-14.79-36.57-22.31-11.62-7.53-22.62-15.03-33.09-22.35-10.47-7.32-20.26-14.29-29.31-21.08-8.42-6.28-16.5-13.01-24.19-20.17-11.14-10.36-21.19-21.84-30.01-34.24-1.56-2.18-2.9-4.11-4.11-5.9s-2.06-3.19-2.84-4.38-1.3-2.06-1.71-2.74-.56-.97-.56-.97c0,0,.25.31.64.9l1.79,2.67c.78,1.19,1.75,2.63,2.94,4.34s2.53,3.66,4.11,5.82c8.92,12.28,19.02,23.64,30.17,33.93,7.71,7.09,15.78,13.77,24.19,20.01,9.07,6.75,18.98,13.66,29.37,21s21.41,14.83,33.07,22.27,24.1,14.54,36.57,22.29c6.17,3.89,12.34,7.96,18.08,12.13l17.25,12.13,32.62,22.97,55.18,38.97,37.16,26.34,10.08,7.2,2.59,1.89c.36.21.7.43,1.03.68Z"/>
    <path class="cls-6" d="M665.7,443.96s-37.66,20.34-44.69,28.79c-6.54,7.9-79.42,80.82-79.42,80.82,0,0-47.16,14.03-45.24,17.95,3.35,7.18,16.58,20.07,23.65,26.74,3.13,2.91,5.97,6.11,8.47,9.56,5.96,8.23,17.62,24.33,27.25,37.76,8.33,12.3,13.47,26.48,14.97,41.25l33.25-18.28c16.97-6.85,26.22-25.4,44.87-34.96l56.02-60.3,17.07-34.86,5.68-85.78-8.08.58-31.32,4.11s-27.13-2.96-22.48-13.39Z"/>
    <path class="cls-6" d="M695.85,466.52l25.77-11.39c6.5-6.27,13.37-12.15,20.57-17.6,0,0-32.14,40.04-3.93,53.47,28.22,13.43,51.04-21.96,51.04-21.96-3.25,5.03-6.24,10.23-8.97,15.57-3.29,6.83-20.03,28.61-20.03,28.61-1,8.15-4.54,15.78-10.12,21.8-9.62,11-20.44,29.22-29.04,33.89s-27.8,13.22-27.8,13.22c-3.9-20.8-5.08-42.03-3.52-63.14,2.82-32.99,6.03-52.46,6.03-52.46Z"/>
    <path class="cls-9" d="M735.85,498.79c-.79-.44-1.52-.97-2.18-1.58-1.91-1.56-3.69-3.28-5.31-5.14-2.45-2.8-4.11-6.2-4.81-9.85-.62-4.49-.35-9.05.8-13.43,2-7.89,5.38-15.37,9.97-22.09,1.71-2.59,3.21-4.61,4.28-5.98.52-.74,1.11-1.43,1.77-2.06-.39.81-.86,1.58-1.42,2.28-.97,1.44-2.37,3.52-3.99,6.17-4.35,6.74-7.58,14.15-9.56,21.92-1.12,4.24-1.42,8.65-.88,13,.63,3.52,2.16,6.81,4.44,9.56,3.93,4.71,7.05,7.03,6.89,7.2Z"/>
    <path class="cls-9" d="M732,529.94c-.31.19-.64.35-.99.47-.66.27-1.65.68-2.94,1.15-3.67,1.32-7.53,2.06-11.43,2.18-2.74.03-5.45-.59-7.9-1.81-2.82-1.5-5.08-3.87-6.44-6.77-2.92-6.03-3.25-13.47-2.63-20.89.56-7.05,2.01-14.01,4.34-20.69,2.13-5.37,4.89-10.47,8.23-15.2,2.78-4.11,5.22-7.18,6.93-9.32.82-.97,1.48-1.77,2.06-2.43s.72-.82.76-.8c-.16.33-.36.64-.6.93l-1.83,2.57c-1.62,2.2-3.97,5.39-6.64,9.46-3.19,4.73-5.82,9.81-7.86,15.14-2.23,6.61-3.65,13.47-4.22,20.42-.6,7.34-.27,14.64,2.47,20.38,1.24,2.72,3.31,4.96,5.92,6.42,2.33,1.19,4.9,1.81,7.51,1.83,3.83-.07,7.63-.68,11.29-1.81l2.98-.97c.32-.13.65-.22.99-.27Z"/>
    <path class="cls-9" d="M721.57,454.12c-1.44,1.32-2.96,2.55-4.54,3.7-3.63,2.96-7.02,6.21-10.14,9.71-3.1,3.52-5.92,7.27-8.43,11.23-.95,1.7-1.99,3.35-3.13,4.94.59-1.88,1.43-3.67,2.49-5.33,2.33-4.13,5.09-8,8.23-11.56,3.15-3.55,6.67-6.76,10.49-9.58,1.54-1.24,3.24-2.28,5.04-3.11Z"/>
    <g class="cls-13">
      <path class="cls-1" d="M723.22,454.12h0c-16.86,16.57-26.85,38.9-27.95,62.52,0,2.06.56,4.79,2.61,4.83,1.29-.1,2.33-1.09,2.51-2.37.07-1.24-.03-2.49-.31-3.7-.78-9.89,1.38-21.57,4.81-32.04s11.8-20.42,18.32-29.24Z"/>
    </g>
    <g class="cls-13">
      <path class="cls-1" d="M737.8,441.06c-7.01,7.84-13.57,16.31-17.11,26.2-3.54,9.89-3.7,21.39,1.67,30.42,1.48,2.49,4.46,5,6.97,3.54,1.64-1.24,2.23-3.43,1.44-5.33-.83-1.82-1.89-3.52-3.17-5.06-4.87-7.1-5.04-16.58-2.49-24.8s7.47-15.44,12.34-22.62"/>
    </g>
    <g class="cls-13">
      <path class="cls-1" d="M516.31,594.81c12,7.63,25.37,12.86,39.36,15.38,11.85,1.85,23.92-.23,35.76-2.06,30.85-4.98,62.29-9.48,93.35-13.24h-168.47"/>
    </g>
    <path class="cls-9" d="M628.39,686.84c.57-.27,1.18-.45,1.81-.51,1.68-.29,3.39-.35,5.08-.19,5.67.6,10.97,3.11,15.03,7.12,2.27,2.13,4.15,4.65,5.55,7.42,1.14,2.29,1.78,4.8,1.87,7.36.06,1.71-.12,3.42-.51,5.08-.12.61-.33,1.2-.64,1.75.33-2.25.47-4.52.41-6.79-.21-2.43-.91-4.8-2.06-6.95-1.4-2.66-3.22-5.06-5.41-7.12-3.93-3.83-8.97-6.33-14.4-7.14-2.24-.2-4.5-.22-6.75-.04Z"/>
    <rect class="cls-4" x="418.95" y="686.84" width="238.19" height="46.09" rx="21.24" ry="21.24"/>
    <rect class="cls-4" x="559.17" y="591.23" width="286.44" height="36.59" rx="16.86" ry="16.86" transform="translate(-193.69 858.35) rotate(-56.47)"/>
    <path class="cls-9" d="M516.93,639.11c.41,0,14.4,13.68,17.69,22.93s7.59,31.86,9.56,40.45c2.74,11.78,7.1,23.14,23.2,23.88l60.98.25c3.75.01,7.26-1.89,9.3-5.04l53.37-82.47h-16.68l-46.58,69.39h-52.81c-3.71.06-7.22-1.62-9.52-4.52-.75-.95-1.3-2.04-1.6-3.21-1.19-4.77-5.37-29.49-10.43-40.23-3.62-7.39-7.7-14.55-12.22-21.43h-24.25Z"/>
    <path class="cls-4" d="M572.51,717.56c.01,2.08-1.66,3.77-3.74,3.78s-3.77-1.66-3.78-3.74c-.01-2.08,1.66-3.77,3.74-3.78.01,0,.03,0,.04,0,2.07,0,3.74,1.68,3.74,3.74h0Z"/>
    <path class="cls-4" d="M631.5,717.56c.01,2.08-1.66,3.77-3.74,3.78s-3.77-1.66-3.78-3.74c-.01-2.08,1.66-3.77,3.74-3.78.01,0,.03,0,.04,0,2.06.01,3.73,1.68,3.74,3.74Z"/>
    <rect class="cls-9" x="497.9" y="627.84" width="209.23" height="11.33" rx="5.22" ry="5.22"/>
    <path class="cls-4" d="M584.83,627.84h-2.06l-5.96.12-22.29.27c-9.52,0-20.98.19-33.91.14h-9.99c-3.37,0-7.07-.68-10.02,1.07-1.45.82-2.2,2.48-1.85,4.11.41,1.68,1.64,3.03,3.27,3.6,3.5,1.28,7.24,1.78,10.96,1.46h40.43l104.29.16,31.61.16,8.6.1h2.22c.25-.03.51-.03.76,0h-2.98l-8.6.1-31.61.16-104.29.16h-40.31c-3.89.36-7.8-.18-11.45-1.56-1.92-.7-3.36-2.32-3.83-4.32,0-.49-.12-.97-.1-1.5.06-.5.2-1,.41-1.46.46-.91,1.17-1.67,2.06-2.18,1.64-.89,3.48-1.35,5.35-1.32,1.81,0,3.5.12,5.2.14l9.97.14h63.63l.49.41Z"/>
    <path class="cls-4" d="M541.58,690.52c-.31-.69-.55-1.42-.7-2.16-.43-1.62-.95-3.62-1.54-5.96-1.52-6.6-3.42-13.11-5.68-19.5-1.31-3.47-2.89-6.82-4.73-10.04-1.57-2.59-3.34-5.05-5.29-7.36-3.39-3.93-5.9-5.96-5.76-6.17.65.39,1.27.85,1.83,1.36,1.61,1.3,3.11,2.73,4.48,4.28,2.08,2.27,3.95,4.73,5.57,7.34,1.93,3.24,3.57,6.65,4.89,10.18,2.29,6.42,4.1,13,5.41,19.68.53,2.55.95,4.63,1.21,6.07.19.75.29,1.51.29,2.28Z"/>
    <rect class="cls-9" x="535.45" y="732.93" width="13.26" height="167.18"/>
    <polygon class="cls-9" points="546.03 873.31 683.88 900.43 683.88 914.83 546.03 894.08 546.03 873.31"/>
    <circle class="cls-9" cx="671.66" cy="925.21" r="12.22"/>
    <polygon class="cls-9" points="542.47 873.31 430.94 900.53 430.94 914.93 542.47 892.76 542.47 873.31"/>
    <circle class="cls-9" cx="443.16" cy="925.21" r="12.22"/>
    <circle class="cls-9" cx="542.12" cy="925.21" r="12.22"/>
    <polygon class="cls-9" points="556.02 913 528.36 913 528.63 808.42 556.31 808.42 556.02 913"/>
    <path class="cls-4" d="M555.28,808.65c-4.35.53-8.73.71-13.1.53-4.37.17-8.74,0-13.08-.53,4.34-.53,8.71-.71,13.08-.53,4.37-.17,8.75,0,13.1.53Z"/>
    <path class="cls-4" d="M554.42,895.29c-4.35.53-8.73.71-13.1.53-4.37.17-8.75,0-13.1-.53,4.35-.53,8.73-.71,13.1-.53,4.37-.17,8.75,0,13.1.53Z"/>
  </g>
  <g id="freepik--Table--inject-2">
    <rect class="cls-4" x="77.21" y="566.16" width="655.13" height="28.65"/>
    <path class="cls-9" d="M215.99,566.57s0,.12-.21.31-.37.49-.68.86c-.95,1.04-2.06,1.93-3.29,2.63-1.97,1.06-4.12,1.75-6.33,2.06-2.92.41-5.88.54-8.82.37-3.57-.18-7.12-.58-10.63-1.21-4-.74-8.05-1.22-12.11-1.44-9.33.05-18.56,1.84-27.23,5.29-9.36,3.41-18.16,7.22-26.39,9.52-3.94,1.14-7.97,1.94-12.05,2.41-3.56.37-7.15.37-10.71,0-5.17-.5-10.18-2.11-14.68-4.71-1.65-.94-3.18-2.08-4.54-3.39,0,0,.12,0,.33.21l.86.64c1.12.84,2.29,1.6,3.52,2.28,4.5,2.46,9.47,3.96,14.58,4.4,3.52.37,7.07.37,10.59,0,4.04-.48,8.03-1.29,11.93-2.43,8.23-2.34,16.97-6.17,26.36-9.5,8.76-3.48,18.11-5.27,27.54-5.26,4.09.24,8.15.75,12.17,1.52,3.49.65,7.01,1.09,10.55,1.32,2.91.19,5.83.1,8.72-.27,2.15-.29,4.24-.95,6.17-1.95,1.66-.95,3.13-2.18,4.36-3.64Z"/>
    <path class="cls-9" d="M144.32,567c-.62.64-1.31,1.21-2.06,1.71-1.89,1.44-3.89,2.73-5.98,3.85-3.11,1.65-6.39,2.98-9.77,3.97-4.16,1.21-8.45,1.9-12.77,2.06-7.88.31-15.71-1.31-22.83-4.71-2.19-1.01-4.08-2.56-5.51-4.5-.37-.54-.68-1.12-.9-1.73-.14-.41-.21-.64-.16-.66.38.76.82,1.5,1.32,2.2,1.49,1.78,3.38,3.19,5.51,4.11,7.1,3.2,14.84,4.71,22.62,4.42,7.76-.24,15.38-2.18,22.31-5.68,2.09-1.07,4.11-2.27,6.05-3.6.69-.53,1.42-1.01,2.18-1.44Z"/>
    <path class="cls-9" d="M298.05,585.16c.35.11.69.23,1.03.37,4.73,1.69,9.94,1.33,14.4-.99v.37c-4.14-3.13-9.08-5.02-14.25-5.45-6.55-.64-13.11,1.06-18.51,4.81-.71.39-1.23,1.06-1.44,1.85.01.81.5,1.53,1.23,1.85.8.44,1.66.74,2.55.9l2.78.62c3.76.84,7.63,1.67,11.64,2.26,4.08.64,8.21.93,12.34.84,2.13-.06,4.25-.27,6.35-.62,1.05-.19,2.06-.39,3.17-.66,1.05-.22,2.07-.55,3.04-.99,1.54-.62,2.9-1.61,3.97-2.88,1.02-1.23,1.31-2.9.76-4.4-.64-1.46-1.72-2.68-3.11-3.48-1.38-.83-2.84-1.52-4.36-2.06-5.82-2.21-11.96-3.49-18.18-3.78-10.56-.63-21.13.95-31.03,4.65-6.68,2.55-12.97,6.01-18.69,10.28-2.06,1.54-3.54,2.76-4.52,3.66l-1.15.99c-.25.23-.39.33-.41.31l.37-.37,1.09-1.05c.95-.93,2.47-2.2,4.44-3.78,5.69-4.39,11.99-7.93,18.69-10.51,9.96-3.87,20.63-5.58,31.3-5.02,6.33.27,12.58,1.55,18.51,3.78,1.56.59,3.06,1.32,4.48,2.2,1.53.89,2.74,2.24,3.43,3.87.64,1.76.31,3.72-.88,5.16-1.14,1.38-2.61,2.46-4.28,3.13-1.02.45-2.09.79-3.19,1.03-1.07.29-2.06.49-3.23.68-2.14.35-4.29.56-6.46.62-4.19.08-8.37-.21-12.5-.88-4.11-.6-7.92-1.44-11.68-2.28l-2.78-.64c-.96-.19-1.89-.52-2.76-.99-.45-.25-.84-.59-1.15-1.01-.32-.45-.46-1-.41-1.54.21-1,.84-1.86,1.73-2.37,5.54-3.82,12.27-5.53,18.96-4.81,5.25.51,10.25,2.52,14.4,5.78l.27.21-.31.16c-3.6,1.86-7.73,2.43-11.7,1.62-1.39-.27-2.72-.76-3.95-1.46Z"/>
    <path class="cls-9" d="M382.34,567.31c.31.44.54.94.66,1.46.43,1.39.57,2.85.43,4.3-.66,4.77-2.9,9.17-6.38,12.5-1.78,1.92-3.78,3.62-5.96,5.06-1.8,1.15-3.74,2.09-5.76,2.8-1.34.45-2.72.79-4.11,1.03-.51.11-1.04.16-1.56.14,0-.14,2.2-.45,5.55-1.73,1.94-.75,3.8-1.71,5.53-2.86,2.11-1.44,4.05-3.12,5.78-5,3.37-3.21,5.61-7.42,6.4-12.01.18-1.92-.02-3.85-.58-5.7Z"/>
    <path class="cls-9" d="M500,593.29s-.93-1.19-3-2.92c-2.95-2.43-6.5-4.02-10.28-4.61-2.59-.38-5.23-.31-7.79.21-2.99.71-6.06.99-9.13.84-3.4-.59-6.56-2.14-9.11-4.46-2.71-2.32-5.81-4.15-9.15-5.41-6.58-2.21-13.67-2.32-20.32-.33-5.41,1.64-10.49,4.21-15.01,7.61-3.07,2.28-5.99,4.77-8.72,7.44l-2.2,2.2c-.25.27-.52.51-.8.74.2-.31.42-.6.68-.86.47-.53,1.17-1.32,2.06-2.3,2.66-2.78,5.53-5.34,8.6-7.67,4.54-3.51,9.67-6.18,15.16-7.88,6.79-2.08,14.06-1.98,20.79.29,3.42,1.28,6.59,3.16,9.36,5.55,2.44,2.23,5.46,3.74,8.72,4.34,3,.16,6.01-.1,8.95-.76,2.64-.5,5.35-.54,8-.12,3.82.67,7.38,2.39,10.28,4.96,1.13.9,2.12,1.96,2.94,3.15Z"/>
    <path class="cls-9" d="M605.03,566.43c-.21.35-.45.68-.72.99-.49.6-1.17,1.56-2.22,2.65-2.88,3.16-6.09,6.01-9.56,8.49-5.13,3.74-10.7,6.83-16.6,9.19-3.47,1.44-7.05,2.59-10.71,3.41-3.92.95-7.93,1.47-11.97,1.54-7.78-.06-15.47-1.66-22.62-4.71-5.85-2.43-11.38-5.58-16.45-9.38-3.43-2.53-6.61-5.4-9.48-8.56-.79-.85-1.54-1.74-2.24-2.67-.27-.3-.51-.62-.72-.97.3.27.59.55.84.86.53.58,1.25,1.5,2.34,2.55,2.94,3.07,6.15,5.85,9.6,8.33,5.09,3.71,10.61,6.78,16.45,9.13,7.1,2.99,14.71,4.55,22.42,4.61,3.98-.07,7.94-.58,11.8-1.5,3.61-.83,7.16-1.94,10.59-3.33,5.82-2.32,11.35-5.33,16.45-8.97,3.48-2.42,6.72-5.18,9.67-8.23,1.09-1.05,1.81-2.06,2.34-2.55.23-.32.5-.63.78-.9Z"/>
    <path class="cls-9" d="M590.04,566.16c-.18.17-.37.32-.58.45-.37.27-.93.68-1.69,1.15-2.12,1.35-4.31,2.59-6.56,3.7-3.31,1.68-6.75,3.09-10.28,4.22-4.37,1.45-8.93,2.24-13.53,2.32-8.37-.23-16.58-2.34-24.02-6.17-2.25-1.12-4.42-2.4-6.5-3.83-.74-.49-1.28-.93-1.67-1.21s-.56-.45-.53-.47c.82.42,1.61.89,2.37,1.42,2.12,1.32,4.32,2.51,6.58,3.58,7.42,3.6,15.53,5.57,23.77,5.78,4.52-.1,9-.85,13.31-2.22,3.53-1.11,6.96-2.49,10.28-4.11,2.86-1.36,5.1-2.57,6.64-3.48.78-.43,1.58-.81,2.41-1.13Z"/>
    <path class="cls-9" d="M704.61,569.18c-.44.05-.88.05-1.32,0l-3.68-.14-2.67-.12h-10.9l-4.5.14-4.83.33c-3.37.16-6.89.64-10.63.99-7.4.95-15.42,2.26-23.59,4.11-7.47,1.72-14.85,3.83-22.11,6.31-3.17,1.19-6.29,2.24-8.97,3.43l-3.97,1.65-3.5,1.65c-2.28,1.01-4.11,2.06-5.84,2.94l-2.37,1.23-1.85,1.11-2.61,1.54c-.31.2-.64.36-.99.49,0,0,.23-.23.76-.62l2.45-1.62,1.77-1.17,2.3-1.3c1.65-.93,3.5-2.06,5.74-3.04l3.48-1.71,3.95-1.71c2.67-1.21,5.8-2.3,8.99-3.52,7.3-2.54,14.73-4.68,22.25-6.44,8.23-1.85,16.45-3.15,23.86-4.11,3.78-.35,7.34-.78,10.74-.93l4.89-.29,4.54-.1h10.98l2.67.19,3.68.29c.44.1.86.24,1.28.41Z"/>
    <path class="cls-9" d="M511.76,592.71c-1.06-1.54-2.27-2.97-3.6-4.28-3.78-3.43-8.3-5.96-13.2-7.38-3.37-1.01-6.8-1.77-10.28-2.26-3.76-.6-7.79-1.07-12.05-1.81-4.4-.8-8.74-1.89-13-3.27-4.55-1.51-9.21-2.64-13.94-3.37-9.23-.94-18.56.35-27.19,3.76-3.79,1.42-7.48,3.08-11.06,4.96-3.39,1.75-6.5,3.45-9.32,5.04-5.63,3.19-10.12,5.92-13.22,7.79l-3.56,2.18-.93.58-.33.16.29-.25.88-.62c.78-.56,1.95-1.34,3.48-2.32,3.04-2.06,7.51-4.75,13.1-8.02,2.82-1.62,5.92-3.37,9.3-5.14,3.6-1.91,7.31-3.6,11.11-5.06,8.74-3.49,18.19-4.82,27.56-3.87,4.78.74,9.48,1.88,14.07,3.41,4.26,1.38,8.6,2.49,13,3.31,4.11.74,8.23,1.23,12.01,1.87,3.48.54,6.92,1.33,10.28,2.39,4.97,1.48,9.51,4.12,13.26,7.69,1.37,1.3,2.5,2.82,3.35,4.5Z"/>
    <path class="cls-9" d="M364.21,566.57c.09.61.09,1.22,0,1.83-.22,1.66-.65,3.28-1.28,4.83-1.98,5.21-5.48,9.7-10.06,12.89-4.68,2.89-9.69,5.19-14.93,6.87-2.06.66-3.64,1.13-4.77,1.44-.58.18-1.18.31-1.79.37.54-.29,1.11-.52,1.71-.68l4.67-1.67c5.12-1.82,10.04-4.17,14.66-7.01,4.41-3.1,7.87-7.37,9.97-12.34.8-2.12,1.41-4.31,1.81-6.54Z"/>
    <path class="cls-9" d="M212.12,594.81c.48-.57,1.01-1.08,1.58-1.54,1.07-.95,2.65-2.26,4.67-3.8,5.3-4.01,10.88-7.61,16.72-10.78,6.81-3.74,13.16-6.72,17.77-8.86,2.32-1.05,4.11-1.89,5.51-2.45.66-.32,1.35-.59,2.06-.8-.61.43-1.25.79-1.93,1.09l-5.39,2.69c-4.54,2.24-10.86,5.31-17.62,9.03-5.79,3.17-11.39,6.69-16.76,10.53-2.06,1.48-3.7,2.71-4.81,3.6-.56.49-1.15.92-1.79,1.3Z"/>
    <path class="cls-9" d="M242.99,567.74c0,.1-1.52-.19-4.24,0-3.82.39-7.53,1.52-10.92,3.31-5,2.77-9.76,5.96-14.21,9.54-2.71,2.04-5.57,3.89-8.53,5.53-3.26,1.71-6.71,3.02-10.28,3.93-6.86,1.62-13.87,2.47-20.92,2.53-6.48.19-12.34,0-17.17.25-3.85.12-7.69.5-11.5,1.13-1.34.25-2.37.45-3.06.62-.36.1-.72.17-1.09.21.33-.17.68-.29,1.05-.37.68-.21,1.71-.45,3.06-.76,3.8-.76,7.65-1.22,11.52-1.38,4.89-.29,10.71-.21,17.17-.43,6.99-.1,13.95-.96,20.75-2.55,3.49-.91,6.86-2.21,10.06-3.87,2.95-1.61,5.78-3.43,8.47-5.45,4.51-3.56,9.33-6.71,14.4-9.42,3.46-1.79,7.26-2.85,11.15-3.13,1.05-.1,2.11-.1,3.17,0l1.13.31Z"/>
    <polygon class="cls-4" points="137.49 938.15 128.18 938.15 122.87 592.59 142.78 592.59 137.49 938.15"/>
    <polygon class="cls-9" points="737.68 937.43 728.38 937.43 733.03 593.57 752.94 593.57 737.68 937.43"/>
    <rect class="cls-9" x="701.11" y="566.14" width="83.06" height="28.65"/>
  </g>
  <g id="freepik--Plants--inject-2">
    <g id="freepik--plants--inject-2">
      <polygon class="cls-6" points="185.53 517.03 193.06 566.49 236.78 566.49 246.92 517.75 185.53 517.03"/>
      <path class="cls-10" d="M240.81,548.72c0,.14-11.21.27-25.03.27s-25.01-.12-25.01-.27,11.19-.25,25.01-.25,25.03.14,25.03.25Z"/>
      <path class="cls-10" d="M240.98,546.29c0,.14-11.27.27-25.19.27s-25.19-.12-25.19-.27,11.29-.25,25.19-.25,25.19.1,25.19.25Z"/>
      <path class="cls-10" d="M240.9,543.54c0,.14-11.27.27-25.19.27s-25.19-.12-25.19-.27,11.29-.25,25.19-.25,25.19.12,25.19.25Z"/>
      <path class="cls-10" d="M198.08,563.67c-.61-2.02-1.06-4.08-1.34-6.17-.45-2.08-.73-4.19-.84-6.31.61,2.02,1.06,4.08,1.34,6.17.46,2.08.74,4.19.84,6.31Z"/>
      <path class="cls-10" d="M201.06,563.14c-.31-2.01-.49-4.04-.56-6.07-.23-2.05-.32-4.11-.29-6.17.48,1.99.75,4.02.8,6.07.22,2.05.23,4.12.04,6.17Z"/>
      <path class="cls-10" d="M206.47,563.14c-.57-2.02-.95-4.08-1.13-6.17-.33-2.09-.44-4.2-.33-6.31.4,2.04.68,4.1.84,6.17.32,2.09.53,4.2.62,6.31Z"/>
      <path class="cls-10" d="M210.27,563.4c-.66-4.2-.8-8.46-.41-12.69.3,4.22.44,8.46.41,12.69Z"/>
      <path class="cls-10" d="M216.96,563.14c-.47-3.99-.6-8.02-.41-12.03.47,3.99.6,8.02.41,12.03Z"/>
      <path class="cls-10" d="M221.93,563.4c-.23-2.05-.3-4.11-.21-6.17-.06-2.06.04-4.12.31-6.17.23,2.05.3,4.11.21,6.17.07,2.06-.03,4.13-.31,6.17Z"/>
      <path class="cls-10" d="M226.56,562.75c-.05-2.17.07-4.35.37-6.5.13-2.17.42-4.33.88-6.46.03,2.17-.1,4.34-.39,6.5-.13,2.17-.41,4.33-.86,6.46Z"/>
      <path class="cls-10" d="M232.5,562.09c0-1.86.26-3.71.74-5.51.3-1.85.84-3.65,1.62-5.35.12,0-.49,2.47-1.13,5.45-.31,1.82-.73,3.63-1.23,5.41Z"/>
      <path class="cls-6" d="M180.51,507.24v9.25c0,2.01,1.63,3.64,3.64,3.64h63.32c2.01,0,3.64-1.63,3.64-3.64v-9.25h-70.6Z"/>
      <g class="cls-12">
        <polygon class="cls-1" points="186.01 520.13 186.52 523.08 244.95 527.25 246.43 520.13 186.01 520.13"/>
      </g>
      <path class="cls-4" d="M203.49,507.2c-9.32-5.39-14.4-17.93-14.66-28.2s3.91-21,12.34-26.88c9.28-6.08,21.26-6.14,30.6-.16,9.11,6.16,14.4,16.59,13.98,27.58-.62,10.97-6.13,21.08-15.01,27.56"/>
      <path class="cls-9" d="M218.33,508.21c-.14-.78-.2-1.57-.19-2.37,0-1.67,0-3.83-.19-6.4-.12-5.41-.35-12.87-.7-21.12s-.8-15.71-1.15-21.1c-.14-2.57-.29-4.73-.37-6.4-.08-.79-.08-1.58,0-2.37.2.76.32,1.54.37,2.32.19,1.52.41,3.68.66,6.4.49,5.39,1.03,12.85,1.4,21.1s.47,15.73.45,21.16v6.4c-.03.8-.12,1.59-.29,2.37Z"/>
      <path class="cls-9" d="M191.58,476.64c-1.07.33-2.21.38-3.31.16-1.81-.16-3.27-.47-3.25-.72,1.07-.33,2.21-.38,3.31-.16,1.89.21,3.27.51,3.25.72Z"/>
      <path class="cls-9" d="M192.09,467.47c0,.21-1.38-.14-2.86-.8s-2.61-1.36-2.51-1.58,1.38.12,2.86.78,2.69,1.38,2.51,1.6Z"/>
      <path class="cls-9" d="M196.82,460.62c-.12.21-1.56-.47-3.04-1.73s-2.45-2.51-2.26-2.67,1.36.8,2.82,2.06,2.63,2.14,2.49,2.34Z"/>
      <path class="cls-9" d="M201.59,454.16c-.23.1-.9-.99-1.54-2.41s-.97-2.65-.74-2.76.9.99,1.54,2.41.97,2.61.74,2.76Z"/>
      <path class="cls-9" d="M209.08,449.57c-.23,0-.97-1.03-1.46-2.63s-.53-2.94-.29-2.98.66,1.19,1.13,2.74.84,2.8.62,2.88Z"/>
      <path class="cls-9" d="M221.56,444.43c.23,0,0,1.05-.31,2.18s-.9,2.06-1.13,1.89-.1-1.05.31-2.18.9-1.97,1.13-1.89Z"/>
      <path class="cls-9" d="M230.82,448.4c.16.16-.43.99-1.32,1.81s-1.77,1.36-1.93,1.19.43-1.01,1.34-1.83,1.75-1.36,1.91-1.17Z"/>
      <path class="cls-9" d="M238.98,453.67c.12.19-.6.93-1.62,1.62s-2.06,1.09-2.06.88.6-.93,1.62-1.62,1.91-1.09,2.06-.88Z"/>
      <path class="cls-9" d="M244.76,461.5c0,.23-1.05.93-2.55,1.56s-2.8.99-2.9.76,1.05-.93,2.55-1.56c1.5-.64,2.8-.97,2.9-.76Z"/>
      <path class="cls-9" d="M247.04,470.08c0,.23-1.13.58-2.59.76s-2.67.12-2.71-.12,1.13-.58,2.59-.76,2.67-.12,2.71.12Z"/>
      <path class="cls-9" d="M248.22,480.61c0,.23-1.32-.1-2.76-.72s-2.51-1.32-2.41-1.54,1.32.12,2.76.74,2.51,1.3,2.41,1.52Z"/>
      <path class="cls-9" d="M247.19,489.66c-1.2-.04-2.36-.47-3.29-1.23-1.62-1.07-2.59-2.34-2.43-2.51s1.36.78,2.92,1.77,2.88,1.73,2.8,1.97Z"/>
      <path class="cls-9" d="M242.48,497.88c-.14.19-1.4-.56-2.59-1.83s-1.83-2.59-1.65-2.71,1.13.88,2.28,2.06c1.15,1.17,2.1,2.3,1.95,2.49Z"/>
      <path class="cls-9" d="M197.77,498.85c0,.21-1.19,1.11-2.92,2.06-1,.66-2.14,1.09-3.33,1.23,0-.21,1.21-1.11,2.92-2.06s3.23-1.46,3.33-1.23Z"/>
      <path class="cls-9" d="M193.7,491.4c0,.21-.97.9-2.34,1.54s-2.61.97-2.71.74.95-.9,2.34-1.54,2.61-.97,2.71-.74Z"/>
      <path class="cls-9" d="M190.69,484.86c0,.25-1.28.62-2.9.84s-2.96.23-3,0,1.25-.62,2.88-.84,2.98-.29,3.02,0Z"/>
      <path class="cls-9" d="M200.5,481.16c0,.23-1.17.82-2.86,1.01s-3.04-.1-3.02-.33,1.34-.35,2.92-.53,2.96-.37,2.96-.14Z"/>
      <path class="cls-9" d="M208.73,473.04c0,.23-.93.72-2.28.86s-2.43-.16-2.41-.41,1.07-.33,2.32-.47,2.37-.23,2.37.02Z"/>
      <path class="cls-9" d="M210.27,466.52c0,.23-1.17,0-2.43-.39s-2.22-.97-2.06-1.19,1.17,0,2.43.37,2.14,1.05,2.06,1.21Z"/>
      <path class="cls-9" d="M213.28,459.92c-.16.16-.93-.33-1.44-1.25s-.6-1.81-.37-1.87.64.62,1.11,1.44.86,1.52.7,1.69Z"/>
      <path class="cls-9" d="M209.66,486.92c0,.23-.88.66-2.06.95-.58.16-1.17.25-1.77.27l-.16-.51h.56s0,.25-.35.43l-.16-.49c.54-.26,1.1-.46,1.69-.6,1.17-.23,2.2-.29,2.26-.04Z"/>
      <path class="cls-9" d="M211.34,498.48c0,.23-1.11.9-2.67,1.5s-2.9.95-3,.72,1.11-.9,2.67-1.52,2.92-.93,3-.7Z"/>
      <path class="cls-9" d="M202.11,493.34c0,.23-.72.7-1.79,1.07s-2.06.47-2.06.25.72-.72,1.77-1.07,1.99-.49,2.08-.25Z"/>
      <path class="cls-9" d="M202.81,469.81c0,.23-1.44,0-3.04-.47s-2.78-1.34-2.67-1.56,1.4.19,2.96.74,2.82,1.05,2.76,1.3Z"/>
      <path class="cls-9" d="M225.18,467.26c.14.19-.64.95-1.75,1.67s-2.06,1.15-2.22.95.64-.95,1.75-1.67,2.08-1.15,2.22-.95Z"/>
      <path class="cls-9" d="M226.38,478.86c0,.23-.76.6-1.83.82s-2.06.21-2.06,0,.78-.62,1.83-.82,2.02-.16,2.06,0Z"/>
      <path class="cls-9" d="M227.8,491.92c0,.21-1.3-.12-2.65-.76s-2.37-1.32-2.28-1.52,1.3.1,2.65.74,2.39,1.32,2.28,1.54Z"/>
      <path class="cls-9" d="M224.81,504.61c-.19.16-.97-.47-1.73-1.4s-1.23-1.81-1.05-1.95.97.47,1.73,1.4,1.23,1.81,1.05,1.95Z"/>
      <path class="cls-9" d="M224.2,458.71c.14.19-.37.82-1.23,1.25s-1.69.47-1.75.25.58-.62,1.36-1.01,1.48-.68,1.62-.49Z"/>
      <path class="cls-9" d="M235.16,470.47c0,.23-.95.78-2.32.97s-2.51,0-2.51-.29,1.09-.39,2.39-.58,2.37-.39,2.45-.1Z"/>
      <path class="cls-9" d="M232.98,459.9c0,.23-.9.95-2.34,1.4s-2.67.45-2.69.23,1.07-.62,2.43-1.07,2.49-.76,2.61-.56Z"/>
      <path class="cls-9" d="M237.52,486.7c-1.24.37-2.56.37-3.8,0-1.29-.09-2.53-.55-3.56-1.34,1.26-.04,2.51.12,3.72.47,1.25.09,2.48.38,3.64.86Z"/>
      <path class="cls-9" d="M233.41,501.95c-.14.19-1.42-.56-2.67-1.83s-2.06-2.55-1.83-2.69,1.21.84,2.45,2.06,2.26,2.28,2.06,2.47Z"/>
      <path class="cls-9" d="M215.56,447.48c-2.78,1.69-5.35,3.72-7.63,6.05-5.31,5.84-8.63,13.21-9.48,21.06-.41,4.3-.21,8.64.58,12.89.62,3.47,1.42,6.9,2.41,10.28.84,2.92,1.6,5.24,2.06,6.87.32.82.57,1.67.74,2.53-.42-.77-.77-1.58-1.05-2.41-.62-1.6-1.48-3.91-2.39-6.81-1.09-3.37-1.97-6.8-2.63-10.28-.82-4.33-1.04-8.75-.64-13.14.87-8.02,4.36-15.53,9.93-21.37,1.7-1.73,3.62-3.23,5.72-4.44.56-.34,1.13-.65,1.73-.93.2-.13.43-.24.66-.31Z"/>
      <path class="cls-9" d="M227.47,507.77c-.21-.1,2.06-3.41,3.91-9.38,2.62-7.73,3.42-15.97,2.34-24.06-.6-4.44-1.85-8.78-3.72-12.85-1.55-3.29-3.69-6.28-6.31-8.8-1.83-1.63-3.92-2.96-6.17-3.93-1.6-.68-2.57-.82-2.57-.9.24-.03.48-.03.72,0,.7.12,1.39.29,2.06.53,2.37.86,4.56,2.14,6.48,3.76,2.76,2.54,5.02,5.57,6.66,8.95,1.94,4.13,3.24,8.54,3.85,13.06,1.12,8.22.22,16.6-2.63,24.39-.49,1.5-1.11,2.8-1.58,3.97s-1.03,2.06-1.46,2.88c-.46.83-.99,1.63-1.56,2.39Z"/>
      <path class="cls-6" d="M787.98,801.33c-15.34,5.37-35.33.58-48.45-9.01s-22.62-23.28-30.85-37.2c-3.56-5.94-7.05-12.13-8.23-18.96-1.17-6.83.53-14.54,5.82-19,8.23-6.93,20.87-3.41,30.23,1.91,29.63,17.29,48.86,48.05,51.41,82.26"/>
      <path class="cls-6" d="M771.51,838.02c-9.19,12.15-25.01,17.56-40.23,18.26-15.22.7-30.27-3.5-44.5-8.97-5.16-2.06-10.82-4.69-12.59-9.93-1.13-4.11-.12-8.52,2.69-11.72,2.83-3.11,6.35-5.51,10.28-6.99,14.26-5.69,30-6.54,44.79-2.43,14.72,3.83,27.6,12.34,39.55,21.78"/>
      <path class="cls-6" d="M788.2,735.76c-12.69.27-22.29-10.86-28.05-22.17-7.98-15.83-10.63-33.81-7.55-51.27,1.15-6.48,3.6-13.47,9.42-16.58,5.82-3.11,13.55-1.09,18.51,3.41s7.65,10.96,9.62,17.36c6.81,22.05,5.35,47.3-2.06,69.24"/>
      <path class="cls-6" d="M829.81,805.85c-21.63-36.83-25.23-81.87-12.46-122.63,2.06-6.6,5.98-14.17,12.89-14.6,7.67-.49,12.46,8.04,14.58,15.42,7.42,25.87,5.84,53.37,4.11,80.21-1.01,16.56-6.68,30.7-19.21,41.58"/>
      <path class="cls-6" d="M852.43,820.99c8.15-25.56,27.46-46.04,52.5-55.67,5.74-2.16,13.04-3.39,17.34,1.01s2.9,11.52.21,16.9c-4.36,8.7-11.43,15.67-18.51,22.38-6.42,6.17-13.08,12.34-21.18,15.77s-22.99,4.44-30.4-.39"/>
      <path class="cls-9" d="M718.24,726.41l.37.33,1.17.9,4.54,3.39,3.29,2.43c1.17.9,2.41,2.06,3.76,3.06,2.67,2.24,5.84,4.65,9.03,7.67l5.1,4.65c1.77,1.62,3.45,3.43,5.31,5.26,3.72,3.58,7.32,7.75,11.21,12.07,16.47,19.1,29.81,40.69,39.53,63.96,2.06,5.41,4.26,10.51,5.8,15.44.8,2.45,1.69,4.79,2.34,7.1s1.25,4.5,1.85,6.62c1.3,4.11,2.06,8.12,2.84,11.52.37,1.69.76,3.27,1.07,4.73s.47,2.82.7,4.11c.41,2.37.76,4.22,1.01,5.57,0,.6.21,1.07.27,1.44.03.17.08.34.14.49.02-.16.02-.33,0-.49,0-.39-.12-.86-.21-1.46-.19-1.38-.47-3.25-.8-5.61l-.62-4.11c-.27-1.48-.64-3.06-.99-4.77-.76-3.41-1.44-7.34-2.69-11.58-.58-2.06-1.17-4.36-1.81-6.66s-1.5-4.69-2.28-7.16c-1.5-4.96-3.62-10.08-5.72-15.51-4.91-11.65-10.67-22.92-17.23-33.73-6.72-10.71-14.23-20.91-22.48-30.5-3.91-4.32-7.55-8.49-11.31-12.05-1.85-1.81-3.58-3.64-5.37-5.24l-5.16-4.61c-3.23-3-6.44-5.39-9.15-7.59-1.38-1.07-2.63-2.06-3.83-3l-3.35-2.37-4.67-3.19-1.23-.82c-.26-.22-.4-.32-.43-.31Z"/>
      <path class="cls-9" d="M689.59,828.45c.5-.03,1-.11,1.48-.25.97-.16,2.39-.53,4.11-.84,5.18-.99,10.41-1.63,15.67-1.91,35.23-2.15,69.48,12.1,92.79,38.6,3.5,3.94,6.73,8.1,9.69,12.46,1.07,1.52,1.81,2.8,2.37,3.6.26.43.55.84.86,1.23-.18-.47-.41-.92-.7-1.34-.49-.84-1.17-2.06-2.2-3.7-2.83-4.47-5.99-8.73-9.46-12.73-23.22-27-57.86-41.41-93.39-38.85-5.29.34-10.54,1.09-15.71,2.24-1.83.37-3.23.8-4.11,1.05-.48.11-.94.26-1.4.43Z"/>
      <path class="cls-9" d="M769.49,660.33c-.02.19-.02.38,0,.58.1.43.21.97.35,1.67.35,1.5.82,3.64,1.42,6.33,1.25,5.49,3.15,13.43,5.53,23.24,4.77,19.6,11.7,46.58,18.92,76.48,3.58,14.97,6.83,29.26,9.62,42.3s5.08,24.82,6.83,34.76c.93,4.94,1.62,9.46,2.3,13.41s1.19,7.34,1.6,10.14.76,4.87,1.01,6.42c0,.68.21,1.23.29,1.67.02.19.06.38.12.56.02-.19.02-.38,0-.58,0-.43-.12-.99-.19-1.69-.21-1.54-.47-3.7-.82-6.44s-.8-6.17-1.44-10.18c-.64-4.01-1.25-8.47-2.16-13.43-1.65-9.95-3.91-21.76-6.6-34.82s-5.98-27.37-9.56-42.34c-7.22-29.92-14.25-56.88-19.21-76.44-2.45-9.73-4.44-17.6-5.84-23.16-.68-2.67-1.23-4.77-1.6-6.29-.19-.66-.33-1.21-.45-1.62-.02-.19-.06-.38-.12-.56Z"/>
      <path class="cls-9" d="M819.18,874.91c.07-.14.11-.3.12-.45l.31-1.32c.27-1.25.62-2.96,1.07-5.12.9-4.46,2.06-10.92,3.52-18.94,2.78-16.02,6.17-38.27,8.08-63.01.99-12.34,1.52-24.19,1.77-34.96.25-10.78,0-20.44-.25-28.57-.1-4.11-.37-7.73-.56-10.96s-.39-6.01-.6-8.23-.37-3.93-.47-5.2c0-.56-.12-.99-.16-1.36.02-.15.02-.3,0-.45-.02.15-.02.3,0,.45v1.38c0,1.28.16,3.02.29,5.22s.31,5.04.43,8.23.33,6.89.39,10.94c.23,8.23.25,17.79,0,28.52s-.86,22.62-1.83,34.96c-2.06,24.68-5.2,46.95-7.79,62.97-1.3,8.02-2.39,14.52-3.19,18.98-.37,2.18-.66,3.91-.88,5.16,0,.53-.14.99-.21,1.36-.04.13-.05.26-.04.39Z"/>
      <path class="cls-9" d="M817.57,879.6c.23-.41.41-.83.56-1.28l1.44-3.7,1.01-2.69c.43-.95.88-2.06,1.4-3.11s1.01-2.3,1.58-3.58,1.28-2.55,2.06-3.91l2.14-4.24,2.63-4.52c1.73-3.19,3.97-6.33,6.17-9.77,5.04-7.24,10.47-14.2,16.29-20.83,5.91-6.56,12.16-12.8,18.71-18.71,3.11-2.61,5.94-5.24,8.82-7.44l4.11-3.25,3.89-2.88c2.47-1.85,4.77-3.41,6.81-4.77s3.76-2.55,5.24-3.45l3.35-2.06c.41-.22.79-.49,1.13-.8-.43.17-.84.38-1.23.64l-3.45,1.95c-1.52.84-3.31,2.06-5.37,3.31s-4.4,2.84-6.89,4.67l-3.95,2.82-4.11,3.23c-2.9,2.18-5.78,4.79-8.93,7.4-6.61,5.9-12.9,12.16-18.84,18.74-5.85,6.66-11.29,13.67-16.31,20.98-2.16,3.48-4.38,6.66-6.17,9.87l-2.59,4.59-2.06,4.34c-.66,1.4-1.38,2.69-1.91,3.97l-1.52,3.62-1.32,3.17c-.33.99-.66,1.89-.95,2.71-.51,1.56-.93,2.82-1.23,3.78-.21.39-.38.79-.51,1.21Z"/>
      <path class="cls-9" d="M726.26,769.1c0,.16,2.63.16,6.85.39,10.98.59,21.82,2.67,32.25,6.17,3.99,1.34,6.44,2.28,6.5,2.06-.52-.35-1.09-.62-1.69-.82-1.07-.51-2.65-1.17-4.65-1.93-10.39-3.88-21.36-5.97-32.45-6.17-2.06,0-3.85,0-5.04.1-.6,0-1.19.06-1.77.21Z"/>
      <path class="cls-9" d="M709.95,848.87c2.37-4.84,5.37-9.36,8.9-13.43,3.79-3.83,8.07-7.15,12.73-9.87-1.56.41-3.05,1.06-4.4,1.93-3.37,1.95-6.43,4.39-9.09,7.24-2.65,2.85-4.86,6.09-6.54,9.6-.79,1.41-1.33,2.94-1.6,4.52Z"/>
      <path class="cls-9" d="M765.6,690.23c-.21.21,3.78,4.11,8.23,9.52s7.42,10.02,7.69,9.87c-3.87-7.49-9.26-14.09-15.81-19.39h-.1Z"/>
      <path class="cls-9" d="M778.66,667.65c-.97,2.76-1.63,5.63-1.95,8.53-.67,2.86-.99,5.78-.97,8.72,1.01-2.76,1.7-5.62,2.06-8.53.64-2.86.93-5.79.86-8.72Z"/>
      <path class="cls-9" d="M819.14,738.5c1.81,4.58,3.93,9.03,6.33,13.33,2.13,4.44,4.55,8.73,7.24,12.85-1.79-4.59-3.91-9.04-6.33-13.33-2.1-4.45-4.52-8.75-7.24-12.85Z"/>
      <path class="cls-9" d="M843.24,714.44c-2.09,3.04-3.88,6.27-5.37,9.65-1.79,3.22-3.28,6.6-4.46,10.1,3.87-6.27,7.16-12.88,9.83-19.74Z"/>
      <path class="cls-9" d="M878.63,796.68c0,.31,4.36-.53,9.73-.9s9.73-.16,9.75-.47c-6.5-1.18-13.2-.71-19.48,1.38Z"/>
      <path class="cls-9" d="M854.49,869.44l-12.05,63.34c-.8,4.19-4.46,7.22-8.72,7.22h-35.58c-4.35,0-8.06-3.14-8.76-7.42l-10.49-63.14h75.6Z"/>
      <polygon class="cls-4" points="850.54 889.98 782.51 889.98 778.89 869.4 854.47 869.4 850.54 889.98"/>
      <polygon class="cls-10" points="850.54 889.98 849.12 897.49 783.54 897.49 782.51 889.98 850.54 889.98"/>
    </g>
  </g>
  <g id="freepik--Clock--inject-2">
    <circle class="cls-6" cx="191.5" cy="142.41" r="82.41"/>
    <circle class="cls-10" cx="191.18" cy="141.98" r="77.8"/>
    <path class="cls-9" d="M113.55,136.88v7.69c0,.99.19,2.06.29,3.27l.29,3.87c0,1.38.49,2.78.74,4.3,1.33,7.38,3.77,14.51,7.24,21.16,4.54,8.83,10.74,16.7,18.24,23.2l3.23,2.76c1.13.84,2.32,1.62,3.5,2.47s2.32,1.73,3.62,2.41l3.89,2.2,2.06,1.09,2.06.93,4.26,1.87c1.44.58,2.96.99,4.46,1.5,1.51.56,3.04,1.02,4.61,1.38,3.19.81,6.42,1.4,9.69,1.77,1.65.16,3.31.43,5.02.51h7.71l2.59-.23c1.73-.19,3.5-.27,5.24-.51,7.18-1.15,14.18-3.22,20.83-6.17,1.69-.76,3.31-1.71,5-2.55.82-.45,1.69-.82,2.49-1.36l2.37-1.54c3.23-2.08,6.33-4.38,9.25-6.87,2.92-2.63,5.67-5.45,8.23-8.43l1.91-2.26,1.73-2.43,1.71-2.47c.61-.8,1.15-1.64,1.62-2.53l2.96-5.26,2.47-5.57c3.03-7.68,4.89-15.77,5.53-24,.44-8.3-.36-16.62-2.39-24.68-.58-2.06-1.15-3.91-1.71-5.84l-2.26-5.61c-.35-.94-.78-1.86-1.28-2.74l-1.38-2.65-1.4-2.63-1.6-2.49c-2.11-3.3-4.44-6.45-6.97-9.44-2.56-2.86-5.3-5.54-8.23-8.02l-2.06-1.85c-.7-.62-1.52-1.11-2.28-1.67-1.54-1.05-3.04-2.2-4.61-3.19-3.14-1.9-6.41-3.6-9.77-5.08-3.28-1.45-6.65-2.69-10.1-3.7-1.71-.45-3.43-.78-5.14-1.17l-2.55-.58c-.84-.16-1.71-.21-2.55-.33l-5.1-.6c-1.69-.14-3.37,0-5.04-.14-3.34-.01-6.67.22-9.97.68-1.6.15-3.18.4-4.75.74-1.56.33-3.13.53-4.63.93l-4.44,1.3-2.2.64-2.06.84-4.11,1.65c-1.38.53-2.63,1.32-3.91,1.93s-2.57,1.3-3.78,2.06l-3.52,2.26c-8.33,5.43-15.54,12.41-21.22,20.57-4.32,6.13-7.68,12.88-9.95,20.03-.51,1.35-.94,2.72-1.3,4.11-.31,1.34-.6,2.59-.84,3.74s-.53,2.22-.72,3.21-.23,1.89-.33,2.69c-.21,1.58-.37,2.82-.49,3.68s-.19,1.23-.19,1.23v-1.25c0-.84.21-2.06.37-3.68,0-.82.19-1.73.29-2.71s.43-2.06.66-3.23.53-2.43.82-3.76c.34-1.39.75-2.76,1.23-4.11,2.24-7.2,5.57-14.02,9.87-20.22,5.65-8.34,12.86-15.51,21.24-21.1l3.54-2.3c1.23-.7,2.53-1.34,3.8-2.06s2.55-1.44,3.95-2.06l4.11-1.69,2.06-.84,2.32-.53,4.5-1.32c1.52-.41,3.11-.64,4.67-.95,1.59-.37,3.19-.63,4.81-.78,3.3-.4,6.61-.57,9.93-.51,1.69,0,3.39,0,5.1.12l5.16.6c.86.1,1.73.16,2.59.33l2.59.56c1.71.41,3.48.72,5.2,1.19,3.51,1.01,6.94,2.26,10.28,3.72,3.42,1.49,6.73,3.21,9.91,5.14,1.58.99,3.11,2.06,4.67,3.21.76.58,1.6,1.07,2.32,1.69l2.18,1.87c2.98,2.51,5.78,5.22,8.39,8.1,2.57,3.03,4.93,6.22,7.07,9.56l1.65,2.53,1.4,2.67,1.4,2.69c.51.88.94,1.8,1.3,2.76l2.28,5.7c.58,2.06,1.17,3.93,1.75,5.92,2.05,8.14,2.86,16.54,2.41,24.93-.64,8.38-2.54,16.61-5.66,24.41-.82,1.89-1.67,3.76-2.49,5.63s-2.06,3.58-3.02,5.35c-.48.9-1.03,1.76-1.65,2.57l-1.73,2.49-1.75,2.47-2.06,2.28c-2.55,3.02-5.3,5.87-8.23,8.53-2.97,2.53-6.1,4.85-9.38,6.95l-2.41,1.56c-.8.53-1.69.9-2.51,1.36-1.71.86-3.35,1.81-5.08,2.59-6.74,2.94-13.83,5.02-21.1,6.17-1.77.23-3.56.33-5.31.49l-2.63.23h-7.81c-1.71,0-3.39-.37-5.08-.53-3.3-.38-6.57-.98-9.79-1.81-1.57-.38-3.13-.85-4.65-1.4-1.52-.53-3.06-.95-4.52-1.54l-4.28-1.91-2.06-.95-2.06-1.11-3.93-2.22c-1.3-.7-2.45-1.67-3.64-2.47s-2.39-1.65-3.52-2.51l-3.21-2.74c-7.54-6.59-13.73-14.57-18.24-23.51-3.46-6.71-5.86-13.91-7.14-21.35-.23-1.54-.64-2.96-.7-4.34s-.21-2.63-.29-3.83-.23-2.28-.25-3.29,0-1.91,0-2.74c0-1.6,0-2.84.1-3.7.03-.47.1-.94.19-1.4Z"/>
    <path class="cls-9" d="M190.98,76.95c.51,2.14.68,4.35.51,6.54.17,2.19,0,4.4-.51,6.54-.49-2.14-.65-4.35-.49-6.54-.16-2.19,0-4.4.49-6.54Z"/>
    <path class="cls-9" d="M226.44,87.46c-1.13,1.83-2.51,3.49-4.11,4.92-1.43,1.6-3.09,2.99-4.92,4.11,1.11-1.84,2.49-3.5,4.11-4.92,1.41-1.62,3.07-3.01,4.92-4.11Z"/>
    <path class="cls-9" d="M247.17,110.1c-1.65,1.39-3.45,2.59-5.37,3.58-1.75,1.24-3.64,2.27-5.63,3.06,1.44-1.63,3.18-2.98,5.12-3.97,1.77-1.26,3.77-2.17,5.88-2.67Z"/>
    <path class="cls-9" d="M259.3,143.7c-2.94.49-5.93.65-8.9.49-2.98.16-5.96,0-8.9-.49,2.94-.51,5.93-.69,8.9-.51,2.98-.17,5.97,0,8.9.51Z"/>
    <path class="cls-9" d="M135.72,142.51c-2.77.51-5.6.69-8.41.51-2.81.17-5.64,0-8.41-.51,2.78-.49,5.6-.65,8.41-.49,2.81-.16,5.64,0,8.41.49Z"/>
    <path class="cls-9" d="M144.46,167.52c-1.88,2.18-4.01,4.12-6.35,5.78-2.13,1.93-4.47,3.6-6.99,4.98,1.89-2.15,4.03-4.09,6.35-5.76,2.13-1.93,4.48-3.6,6.99-5Z"/>
    <path class="cls-9" d="M166.04,186.87c-1.26,2.6-2.71,5.11-4.34,7.51-1.35,2.56-2.88,5.01-4.59,7.34.82-2.8,2.08-5.45,3.72-7.86,1.36-2.59,3.12-4.95,5.2-6.99Z"/>
    <path class="cls-9" d="M190.98,211.84c-.49-2.95-.65-5.94-.49-8.93-.16-2.98,0-5.96.49-8.9.51,2.94.69,5.93.51,8.9.17,2.99,0,5.98-.51,8.93Z"/>
    <path class="cls-9" d="M229.4,199.95c-5.28-2.79-9.84-6.77-13.33-11.62,2.32,1.82,4.53,3.76,6.64,5.82,2.33,1.81,4.56,3.75,6.68,5.8Z"/>
    <path class="cls-9" d="M247.44,180.5c-2.15-1.46-4.1-3.18-5.8-5.14-1.97-1.75-3.72-3.73-5.2-5.9,2.19,1.46,4.17,3.2,5.9,5.18,1.94,1.74,3.65,3.7,5.1,5.86Z"/>
    <path class="cls-9" d="M143.66,118.55c-1.94-1.25-3.7-2.77-5.22-4.5-1.74-1.51-3.25-3.26-4.48-5.2,1.95,1.24,3.7,2.75,5.2,4.5,1.74,1.51,3.26,3.26,4.5,5.2Z"/>
    <path class="cls-9" d="M165.89,95.11c-1.91-1.2-3.63-2.67-5.1-4.38-1.71-1.48-3.2-3.2-4.42-5.1,1.89,1.2,3.6,2.68,5.06,4.38,1.73,1.47,3.24,3.19,4.46,5.1Z"/>
    <path class="cls-9" d="M191.19,101.03c.15.92.22,1.86.21,2.8,0,2.06.1,4.54.16,7.59,0,6.42.16,15.28.16,25.07v6.35l-.76-.39c-7.57-3.83-14.23-7.26-18.98-9.75l-5.57-2.98c-.73-.32-1.42-.72-2.06-1.19.71.21,1.4.49,2.06.84l5.7,2.71c4.83,2.32,11.56,5.61,19.15,9.42l-.76.47v-5.49c0-9.79,0-18.65.16-25.07,0-3.04.12-5.59.16-7.59.03-.94.15-1.88.37-2.8Z"/>
  </g>
  <g id="freepik--Device--inject-2">
    <path class="cls-2" d="M302.63,477.44l37.72,83.29c2.06,3.68,5.86,6.06,10.08,6.29l173.74-.23h0c-.44-3.64-3.49-6.41-7.16-6.5l-65.93-1.44-33.81-80.99c-1.07-2.58-3.58-4.28-6.38-4.3l-105.21-.8c-1.82-.03-3.31,1.42-3.35,3.23,0,.49.09.98.3,1.43Z"/>
    <path class="cls-9" d="M302.63,477.44c-.17-.3-.28-.63-.31-.97-.14-1.03.2-2.06.93-2.8.55-.56,1.28-.91,2.06-.99h9.4l43.31.16,30.42.16,17.11.1h4.46c1.59-.12,3.18.23,4.59.99,1.42.82,2.53,2.09,3.17,3.6l1.79,4.3c9.69,23.18,20.57,48.97,32,76.63l-.45-.31,35.64.76,18.51.41,9.42.21h2.39c2.6.09,4.99,1.45,6.4,3.64.64,1.01,1.06,2.15,1.21,3.33v.6h-174.72c-.9-.05-1.78-.21-2.63-.49-3.36-1.01-6.14-3.4-7.63-6.58-1.37-3-2.69-5.93-3.95-8.78-10.28-22.89-18.51-41.38-24.33-54.21-2.82-6.38-5.04-11.33-6.54-14.75-.74-1.67-1.3-2.94-1.69-3.85s-.53-1.32-.53-1.32c0,0,.23.43.64,1.28l1.77,3.8,6.75,14.66,24.68,54.07,3.99,8.76c1.39,3,4.01,5.24,7.18,6.17,1.62.45,3.32.61,5,.47h16.19l47.16-.12,108.2-.19-.53.6c-.13-1.02-.49-2-1.03-2.88-.8-1.25-2-2.21-3.39-2.71-.69-.27-1.42-.41-2.16-.43h-2.37l-9.42-.23-18.51-.41-35.62-.78h-.35l-.12-.31c-11.5-27.66-22.23-53.47-31.88-76.67l-1.79-4.32c-.55-1.34-1.53-2.45-2.78-3.19-1.26-.68-2.69-.98-4.11-.88h-4.46l-17.09-.14-30.42-.31-43.31-.47-6.7-.1h-2.65c-.72.07-1.39.38-1.91.88-.7.69-1.06,1.67-.97,2.65-.01.32,0,.63.04.95Z"/>
    <path class="cls-4" d="M447.78,567.74c-.21-.28-.37-.58-.49-.9-.35-.72-.76-1.62-1.25-2.69l-4.42-9.97c-3.66-8.45-8.66-20.15-14.03-33.15s-10.1-24.8-13.39-33.42c-1.62-4.3-2.94-7.79-3.78-10.28-.37-1.13-.68-2.06-.95-2.82-.14-.32-.23-.66-.27-1.01.2.28.36.6.47.93.31.74.68,1.65,1.15,2.74l4.11,10.12c3.56,8.66,8.35,20.36,13.68,33.27,5.33,12.92,10.16,24.68,13.72,33.27,1.69,4.11,3.06,7.57,4.11,10.1l1.07,2.78c.15.33.24.69.27,1.05Z"/>
    <path class="cls-11" d="M379.65,517.77c0,2.98-2.41,5.39-5.39,5.39-2.98,0-5.39-2.41-5.39-5.39,0-2.98,2.41-5.39,5.39-5.39,0,0,.01,0,.02,0,2.96,0,5.37,2.4,5.37,5.37,0,0,0,.01,0,.02Z"/>
  </g>
  <g id="freepik--speech-bubble--inject-2">
    <path class="cls-10" d="M624.61,388.89l-13.8-24.33c18.96-30.69,9.44-70.94-21.25-89.89-30.69-18.96-70.94-9.44-89.89,21.25s-9.44,70.94,21.25,89.89c23.15,14.3,52.74,12.75,74.26-3.89h0l29.43,6.97Z"/>
    <path class="cls-9" d="M624.61,388.89l-29.51-6.68c-.12-.01-.21-.13-.2-.25,0-.02,0-.04.01-.06-.01-.03-.01-.07,0-.1h0l.37.37c-9.07,7.08-19.86,11.64-31.26,13.2-3.41.48-6.85.66-10.28.53-1.77,0-3.58-.14-5.41-.31l-5.51-.82c-16.42-3.22-30.99-12.56-40.76-26.14-5.43-7.52-9.19-16.12-11.02-25.21-1.89-9.61-1.63-19.52.76-29.02,2.47-9.9,7.27-19.06,13.98-26.74,6.83-7.9,15.44-14.06,25.13-17.95,9.29-3.67,19.28-5.2,29.24-4.48,9.42.61,18.59,3.28,26.86,7.81,14.79,8.28,25.83,21.92,30.85,38.11,2.02,6.88,2.98,14.03,2.84,21.2-.34,11.44-3.71,22.59-9.77,32.31v-.25l13.59,24.45-14.03-24.21c-.05-.08-.05-.19,0-.27,5.9-9.68,9.16-20.73,9.46-32.06.1-7.08-.87-14.14-2.88-20.94-5.05-15.95-16-29.36-30.62-37.49-8.14-4.5-17.17-7.15-26.45-7.77-9.81-.69-19.65.82-28.79,4.44-9.52,3.84-17.98,9.9-24.68,17.67-6.61,7.58-11.33,16.62-13.76,26.39-2.36,9.35-2.63,19.1-.78,28.57,1.8,8.96,5.49,17.43,10.82,24.84,9.6,13.41,23.95,22.67,40.12,25.89l5.43.84c1.81.14,3.6.21,5.35.31,3.43.14,6.88-.02,10.28-.47,11.3-1.49,22.01-5.94,31.03-12.89.11-.09.28-.09.39,0,.06.1.06.23,0,.33h0l-.16-.43,29.35,7.28Z"/>
    <path class="cls-9" d="M540.47,333.09v6.17h-3.17v-5.78c0-1.77-.78-2.57-2.06-2.57s-2.41.9-2.41,2.86v5.49h-3.29v-5.78c0-1.77-.74-2.57-2.06-2.57s-2.39.9-2.39,2.86v5.49h-3.17v-10.94h3.02v1.25c.88-.95,2.14-1.47,3.43-1.42,1.43-.07,2.79.61,3.6,1.79.97-1.17,2.43-1.83,3.95-1.79,2.33-.19,4.38,1.54,4.57,3.87.03.35.01.71-.05,1.06Z"/>
    <path class="cls-9" d="M561.82,333.09v6.17h-3.17v-5.78c0-1.77-.8-2.57-2.06-2.57s-2.43.9-2.43,2.86v5.49h-3.17v-5.78c0-1.77-.76-2.57-2.06-2.57s-2.41.9-2.41,2.86v5.49h-3.21v-10.94h3.04v1.25c.88-.95,2.14-1.47,3.43-1.42,1.43-.07,2.79.61,3.6,1.79.96-1.17,2.41-1.83,3.93-1.79,2.33-.17,4.36,1.59,4.53,3.92.02.34,0,.68-.05,1.02Z"/>
    <path class="cls-9" d="M583.17,333.09v6.17h-3.19v-5.78c0-1.77-.78-2.57-2.06-2.57s-2.43.9-2.43,2.86v5.49h-3.17v-5.78c0-1.77-.76-2.57-2.06-2.57s-2.41.9-2.41,2.86v5.49h-3.17v-10.94h3.02v1.25c.89-.95,2.14-1.47,3.43-1.42,1.43-.07,2.79.61,3.6,1.79.97-1.17,2.43-1.83,3.95-1.79,2.33-.16,4.35,1.61,4.51,3.94.02.33,0,.67-.05.99Z"/>
    <path class="cls-9" d="M585.24,337.51c.32-1.09,1.46-1.72,2.55-1.4.67.2,1.2.72,1.4,1.4.32,1.09-.31,2.23-1.4,2.55-1.09.32-2.23-.31-2.55-1.4-.11-.38-.11-.78,0-1.15Z"/>
    <path class="cls-9" d="M590.57,337.51c.32-1.09,1.46-1.72,2.55-1.4.67.2,1.2.72,1.4,1.4.32,1.09-.31,2.23-1.4,2.55-1.09.32-2.23-.31-2.55-1.4-.11-.38-.11-.78,0-1.15Z"/>
    <path class="cls-9" d="M595.9,337.51c.32-1.09,1.46-1.72,2.55-1.4.67.2,1.2.72,1.4,1.4.32,1.09-.31,2.23-1.4,2.55-1.09.32-2.23-.31-2.55-1.4-.11-.38-.11-.78,0-1.15Z"/>
  </g>
  <g id="freepik--Floor--inject-2">
    <path class="cls-9" d="M947.03,938.15c0,.31-203.97.53-455.51.53s-455.55-.23-455.55-.53,203.93-.53,455.55-.53,455.51.25,455.51.53Z"/>
  </g>
</svg>