<?xml version="1.0" encoding="UTF-8"?>
<svg id="Layer_2" data-name="Layer 2" xmlns="http://www.w3.org/2000/svg" viewBox="0 0 1000 1000">
  <defs>
    <style>
      .cls-1, .cls-2, .cls-3, .cls-4, .cls-5, .cls-6, .cls-7, .cls-8, .cls-9, .cls-10, .cls-11, .cls-12, .cls-13 {
        stroke-width: 0px;
      }

      .cls-1, .cls-13 {
        fill: #000;
      }

      .cls-2 {
        fill: #e1e1e1;
      }

      .cls-3, .cls-14, .cls-13 {
        opacity: .3;
      }

      .cls-3, .cls-11 {
        fill: #fff;
      }

      .cls-4 {
        fill: #ffc19d;
      }

      .cls-5 {
        fill: #09f;
      }

      .cls-6 {
        fill: #f5f5f5;
      }

      .cls-7 {
        fill: #ff9c6a;
      }

      .cls-8 {
        fill: #7c4235;
      }

      .cls-9 {
        fill: #ececec;
      }

      .cls-10 {
        fill: #375a64;
      }

      .cls-12 {
        fill: #1a2e35;
      }
    </style>
  </defs>
  <g>
    <rect class="cls-2" x="694.78" y="252.74" width="125.42" height="181.79"/>
    <rect class="cls-6" x="688.49" y="252.74" width="125.42" height="181.79"/>
    <g>
      <rect class="cls-11" x="704.08" y="272.43" width="94.25" height="142.41"/>
      <path class="cls-2" d="M798.33,414.84s-.01-.24-.02-.7c0-.47-.01-1.14-.02-2.02,0-1.79-.02-4.41-.04-7.81-.02-6.83-.05-16.77-.08-29.34-.04-25.11-.09-60.67-.15-102.55l.31.31c-28.8,0-60.71.02-94.24.03h-.01l.34-.34c-.03,53.72-.05,103.26-.07,142.41l-.27-.27c28.7.06,52.23.11,68.61.14,8.19.03,14.59.05,18.95.07,2.17.01,3.83.02,4.98.03,1.13,0,1.72.03,1.72.03,0,0-.55.02-1.66.03-1.13,0-2.78.02-4.92.03-4.35.02-10.73.04-18.89.07-16.41.03-40,.08-68.77.14h-.27s0-.27,0-.27c-.02-39.15-.04-88.69-.07-142.41v-.34s.34,0,.34,0h.01c33.54.01,65.45.02,94.24.03h.31s0,.31,0,.31c-.06,41.96-.12,77.59-.15,102.75-.04,12.53-.06,22.46-.08,29.27-.02,3.37-.03,5.97-.04,7.75,0,.86-.01,1.52-.02,1.98,0,.44-.02.66-.02.66Z"/>
    </g>
    <path class="cls-2" d="M814.26,252.74c.07.05-.73,1.23-2.09,3.08-1.36,1.85-3.29,4.37-5.49,7.09-2.2,2.72-4.26,5.13-5.78,6.84-1.52,1.71-2.51,2.73-2.57,2.67-.07-.06.8-1.19,2.23-2.97,1.57-1.94,3.5-4.32,5.63-6.96,2.13-2.64,4.06-5.02,5.63-6.96,1.45-1.78,2.37-2.86,2.44-2.8Z"/>
    <g>
      <path class="cls-11" d="M798.81,414.38c4.68,7.44,10.21,14.36,16.44,20.56"/>
      <path class="cls-2" d="M815.25,434.94c-.06.06-1.18-.91-2.87-2.61-1.69-1.7-3.92-4.14-6.2-6.99-2.28-2.86-4.17-5.57-5.46-7.59-1.29-2.02-1.99-3.32-1.91-3.37.08-.05.93,1.16,2.31,3.1,1.38,1.94,3.33,4.59,5.59,7.43,2.27,2.84,4.43,5.31,6.02,7.09,1.59,1.78,2.59,2.87,2.51,2.94Z"/>
    </g>
    <g>
      <path class="cls-11" d="M688.47,434.39c5.48-6.76,10.95-13.51,16.43-20.27"/>
      <path class="cls-2" d="M704.9,414.12c.15.12-3.41,4.75-7.95,10.35-4.54,5.6-8.33,10.04-8.48,9.92-.15-.12,3.41-4.75,7.95-10.35,4.54-5.6,8.33-10.04,8.48-9.92Z"/>
    </g>
    <path class="cls-2" d="M688.49,252.74c.15-.12,3.72,4.15,7.97,9.53,4.26,5.38,7.59,9.84,7.44,9.96s-3.72-4.15-7.97-9.53c-4.26-5.38-7.59-9.84-7.44-9.96Z"/>
    <rect class="cls-2" x="737.4" y="301.35" width="31.56" height="89.61"/>
  </g>
  <g>
    <rect class="cls-2" x="496.52" y="252.74" width="125.42" height="181.79"/>
    <rect class="cls-6" x="490.23" y="252.74" width="125.42" height="181.79"/>
    <g>
      <rect class="cls-11" x="505.82" y="272.43" width="94.25" height="142.41"/>
      <path class="cls-2" d="M600.07,414.84s-.01-.24-.02-.7c0-.47-.01-1.14-.02-2.02,0-1.79-.02-4.41-.04-7.81-.02-6.83-.05-16.77-.08-29.34-.04-25.11-.09-60.67-.15-102.55l.31.31c-28.8,0-60.71.02-94.24.03h-.01l.34-.34c-.03,53.72-.05,103.26-.07,142.41l-.27-.27c28.7.06,52.23.11,68.61.14,8.19.03,14.59.05,18.95.07,2.17.01,3.83.02,4.98.03,1.13,0,1.72.03,1.72.03,0,0-.55.02-1.66.03-1.13,0-2.78.02-4.92.03-4.35.02-10.73.04-18.89.07-16.41.03-40,.08-68.77.14h-.27s0-.27,0-.27c-.02-39.15-.04-88.69-.07-142.41v-.34s.34,0,.34,0h.01c33.54.01,65.45.02,94.24.03h.31s0,.31,0,.31c-.06,41.96-.12,77.59-.15,102.75-.04,12.53-.06,22.46-.08,29.27-.02,3.37-.03,5.97-.04,7.75,0,.86-.01,1.52-.02,1.98,0,.44-.02.66-.02.66Z"/>
    </g>
    <path class="cls-2" d="M616,252.74c.07.05-.73,1.23-2.09,3.08-1.36,1.85-3.29,4.37-5.49,7.09-2.2,2.72-4.26,5.13-5.78,6.84-1.52,1.71-2.51,2.73-2.57,2.67-.07-.06.8-1.19,2.23-2.97,1.57-1.94,3.5-4.32,5.63-6.96,2.13-2.64,4.06-5.02,5.63-6.96,1.45-1.78,2.37-2.86,2.44-2.8Z"/>
    <g>
      <path class="cls-11" d="M600.55,414.38c4.68,7.44,10.21,14.36,16.44,20.56"/>
      <path class="cls-2" d="M616.99,434.94c-.06.06-1.18-.91-2.87-2.61-1.69-1.7-3.92-4.14-6.2-6.99-2.28-2.86-4.17-5.57-5.46-7.59-1.29-2.02-1.99-3.32-1.91-3.37.08-.05.93,1.16,2.31,3.1,1.38,1.94,3.33,4.59,5.59,7.43,2.27,2.84,4.43,5.31,6.02,7.09,1.59,1.78,2.59,2.87,2.51,2.94Z"/>
    </g>
    <g>
      <path class="cls-11" d="M490.21,434.39c5.48-6.76,10.95-13.51,16.43-20.27"/>
      <path class="cls-2" d="M506.64,414.12c.15.12-3.41,4.75-7.95,10.35-4.54,5.6-8.33,10.04-8.48,9.92-.15-.12,3.41-4.75,7.95-10.35,4.54-5.6,8.33-10.04,8.48-9.92Z"/>
    </g>
    <path class="cls-2" d="M490.23,252.74c.15-.12,3.72,4.15,7.97,9.53,4.26,5.38,7.59,9.84,7.44,9.96s-3.72-4.15-7.97-9.53c-4.26-5.38-7.59-9.84-7.44-9.96Z"/>
    <rect class="cls-2" x="539.14" y="301.35" width="31.56" height="89.61"/>
  </g>
  <g>
    <rect class="cls-2" x="298.26" y="252.74" width="125.42" height="181.79"/>
    <rect class="cls-6" x="291.97" y="252.74" width="125.42" height="181.79"/>
    <g>
      <rect class="cls-11" x="307.56" y="272.43" width="94.25" height="142.41"/>
      <path class="cls-2" d="M401.81,414.84s-.01-.24-.02-.7c0-.47-.01-1.14-.02-2.02,0-1.79-.02-4.41-.04-7.81-.02-6.83-.05-16.77-.08-29.34-.04-25.11-.09-60.67-.15-102.55l.31.31c-28.8,0-60.71.02-94.24.03h-.01l.34-.34c-.03,53.72-.05,103.26-.07,142.41l-.27-.27c28.7.06,52.23.11,68.61.14,8.19.03,14.59.05,18.95.07,2.17.01,3.83.02,4.98.03,1.13,0,1.72.03,1.72.03,0,0-.55.02-1.66.03-1.13,0-2.78.02-4.92.03-4.35.02-10.73.04-18.89.07-16.41.03-40,.08-68.77.14h-.27s0-.27,0-.27c-.02-39.15-.04-88.69-.07-142.41v-.34s.34,0,.34,0h.01c33.54.01,65.45.02,94.24.03h.31s0,.31,0,.31c-.06,41.96-.12,77.59-.15,102.75-.04,12.53-.06,22.46-.08,29.27-.02,3.37-.03,5.97-.04,7.75,0,.86-.01,1.52-.02,1.98,0,.44-.02.66-.02.66Z"/>
    </g>
    <path class="cls-2" d="M417.74,252.74c.07.05-.73,1.23-2.09,3.08-1.36,1.85-3.29,4.37-5.49,7.09-2.2,2.72-4.26,5.13-5.78,6.84-1.52,1.71-2.51,2.73-2.57,2.67-.07-.06.8-1.19,2.23-2.97,1.57-1.94,3.5-4.32,5.63-6.96,2.13-2.64,4.06-5.02,5.63-6.96,1.45-1.78,2.37-2.86,2.44-2.8Z"/>
    <g>
      <path class="cls-11" d="M402.29,414.38c4.68,7.44,10.21,14.36,16.44,20.56"/>
      <path class="cls-2" d="M418.73,434.94c-.06.06-1.18-.91-2.87-2.61-1.69-1.7-3.92-4.14-6.2-6.99-2.28-2.86-4.17-5.57-5.46-7.59-1.29-2.02-1.99-3.32-1.91-3.37.08-.05.93,1.16,2.31,3.1,1.38,1.94,3.33,4.59,5.59,7.43,2.27,2.84,4.43,5.31,6.02,7.09,1.59,1.78,2.59,2.87,2.51,2.94Z"/>
    </g>
    <g>
      <path class="cls-11" d="M291.95,434.39c5.48-6.76,10.95-13.51,16.43-20.27"/>
      <path class="cls-2" d="M308.38,414.12c.15.12-3.41,4.75-7.95,10.35-4.54,5.6-8.33,10.04-8.48,9.92-.15-.12,3.41-4.75,7.95-10.35,4.54-5.6,8.33-10.04,8.48-9.92Z"/>
    </g>
    <path class="cls-2" d="M291.97,252.74c.15-.12,3.72,4.15,7.97,9.53,4.26,5.38,7.59,9.84,7.44,9.96-.15.12-3.72-4.15-7.97-9.53-4.26-5.38-7.59-9.84-7.44-9.96Z"/>
    <rect class="cls-2" x="340.88" y="301.35" width="31.56" height="89.61"/>
  </g>
  <path class="cls-2" d="M921.17,717.86s-.02-.15-.03-.42c0-.31-.02-.69-.03-1.17-.02-1.08-.04-2.57-.06-4.5-.03-3.94-.08-9.61-.15-16.76l.27.27c-19.72.04-51.08.1-86.36.17.19-.2-.44.44.44-.44h0v1.46s0,1.46,0,1.46c0,.97,0,1.95,0,2.91,0,1.94,0,3.86,0,5.77,0,3.81,0,7.56,0,11.24l-.43-.43c24.59.08,46.11.15,61.55.2,7.69.05,13.86.09,18.17.12,2.1.02,3.74.04,4.91.06.53.01.95.02,1.29.03.29,0,.45.02.46.03,0,0-.13.02-.4.03-.32,0-.73.02-1.23.03-1.15.01-2.76.03-4.82.06-4.29.03-10.42.07-18.07.12-15.51.05-37.14.12-61.85.2h-.43s0-.43,0-.43c0-3.67,0-7.42,0-11.24,0-1.91,0-3.83,0-5.77,0-.97,0-1.94,0-2.91v-1.46s0-.73,0-.73v-.71h0v-.02c.88-.88.25-.24.45-.44,35.28.07,66.64.13,86.36.17h.27s0,.27,0,.27c-.06,7.22-.11,12.94-.15,16.92-.03,1.9-.05,3.38-.07,4.44-.01.46-.02.83-.03,1.13,0,.25-.02.37-.03.36Z"/>
  <path class="cls-2" d="M691,177.59s-.02-.15-.03-.42c0-.31-.02-.69-.03-1.17-.02-1.08-.04-2.57-.06-4.5-.03-3.94-.08-9.62-.15-16.76l.27.27c-19.72.04-51.08.1-86.36.17.19-.2-.44.44.44-.44h0v1.46s0,1.46,0,1.46c0,.97,0,1.95,0,2.91,0,1.94,0,3.86,0,5.77,0,3.81,0,7.56,0,11.24l-.43-.43c24.59.08,46.11.15,61.55.2,7.69.05,13.86.09,18.17.12,2.1.02,3.74.04,4.91.06.53.01.95.02,1.28.03.29,0,.45.02.46.03,0,0-.13.02-.4.03-.32,0-.73.02-1.23.03-1.15.01-2.76.03-4.82.06-4.29.03-10.42.07-18.07.12-15.51.05-37.14.12-61.85.2h-.43s0-.43,0-.43c0-3.67,0-7.43,0-11.24,0-1.91,0-3.83,0-5.77,0-.97,0-1.94,0-2.91v-1.46s0-.73,0-.73v-.71h0v-.02c.88-.88.25-.24.45-.44,35.28.07,66.64.13,86.36.17h.27s0,.27,0,.27c-.06,7.22-.11,12.94-.15,16.92-.03,1.9-.05,3.38-.07,4.44-.01.46-.02.83-.03,1.13,0,.25-.02.37-.03.36Z"/>
  <path class="cls-2" d="M155.73,755.11s-.02-.15-.03-.42c0-.31-.02-.69-.03-1.17-.02-1.08-.04-2.57-.06-4.5-.03-3.94-.08-9.61-.15-16.76l.27.27c-19.72.04-51.08.1-86.36.17.19-.2-.44.44.44-.44h0v1.46s0,1.46,0,1.46c0,.97,0,1.95,0,2.91,0,1.94,0,3.86,0,5.77,0,3.81,0,7.56,0,11.24l-.43-.43c24.59.08,46.11.15,61.55.2,7.69.05,13.86.09,18.17.12,2.1.02,3.74.04,4.91.06.53.01.95.02,1.28.03.29,0,.45.02.46.03,0,0-.13.02-.4.03-.32,0-.73.02-1.23.03-1.15.01-2.76.03-4.82.06-4.29.03-10.42.07-18.07.12-15.51.05-37.14.12-61.85.2h-.43s0-.43,0-.43c0-3.67,0-7.42,0-11.24,0-1.91,0-3.83,0-5.77,0-.97,0-1.94,0-2.91v-1.46s0-.73,0-.73v-.71h0v-.02c.88-.88.25-.24.45-.44,35.28.07,66.64.13,86.36.17h.27s0,.27,0,.27c-.06,7.22-.11,12.94-.15,16.92-.03,1.9-.05,3.38-.07,4.44-.01.46-.02.83-.03,1.13,0,.25-.02.37-.03.36Z"/>
  <path class="cls-2" d="M640.14,590.09s-.02-.15-.03-.42c0-.31-.02-.69-.03-1.17-.02-1.08-.04-2.57-.06-4.5-.03-3.94-.09-9.61-.15-16.76l.27.27c-19.72.04-51.08.1-86.36.17.19-.2-.44.44.44-.44h0v2.93c0,.97,0,1.95,0,2.91,0,1.94,0,3.86,0,5.77,0,3.81,0,7.56,0,11.24l-.43-.43c24.59.08,46.11.15,61.55.2,7.69.05,13.86.09,18.17.12,2.1.02,3.74.04,4.91.06.53.01.95.02,1.29.03.29,0,.45.02.45.03,0,0-.13.02-.4.03-.32,0-.73.02-1.23.03-1.15.01-2.76.03-4.82.06-4.29.03-10.42.07-18.07.12-15.51.05-37.14.12-61.85.2h-.43s0-.43,0-.43c0-3.67,0-7.42,0-11.24,0-1.91,0-3.83,0-5.77,0-.97,0-1.94,0-2.91v-1.46s0-.73,0-.73v-.71h0v-.02c.88-.88.25-.24.45-.44,35.28.07,66.64.13,86.36.17h.27s0,.27,0,.27c-.06,7.22-.11,12.94-.15,16.92-.03,1.9-.05,3.38-.07,4.44-.01.46-.02.83-.03,1.13,0,.25-.02.37-.03.36Z"/>
  <path class="cls-2" d="M935.44,169.47s-.02-.15-.03-.42c0-.31-.02-.69-.03-1.17-.02-1.08-.04-2.57-.06-4.5-.03-3.94-.08-9.61-.15-16.76l.27.27c-19.72.04-51.08.1-86.36.17.19-.2-.44.44.44-.44h0v1.46s0,1.46,0,1.46c0,.97,0,1.95,0,2.91,0,1.94,0,3.86,0,5.77,0,3.81,0,7.56,0,11.24l-.43-.43c24.59.08,46.11.15,61.55.2,7.69.05,13.86.09,18.17.12,2.1.02,3.74.04,4.91.06.53.01.95.02,1.29.03.29,0,.45.02.46.03,0,0-.13.02-.4.03-.32,0-.73.02-1.23.03-1.15.01-2.76.03-4.82.06-4.29.03-10.42.07-18.07.12-15.51.05-37.14.12-61.85.2h-.43s0-.43,0-.43c0-3.67,0-7.42,0-11.24,0-1.91,0-3.83,0-5.77,0-.97,0-1.94,0-2.91v-1.46s0-.73,0-.73v-.71h0v-.02c.88-.88.25-.24.45-.44,35.28.07,66.64.13,86.36.17h.27s0,.27,0,.27c-.06,7.22-.11,12.94-.15,16.92-.03,1.9-.05,3.38-.07,4.44-.01.46-.02.83-.03,1.13,0,.25-.02.37-.03.36Z"/>
  <path class="cls-2" d="M125.32,302.07s-.02-.15-.03-.42c0-.31-.02-.69-.03-1.17-.02-1.08-.04-2.57-.06-4.5-.03-3.94-.09-9.62-.15-16.76l.27.27c-19.72.04-51.08.1-86.36.17.19-.2-.44.44.44-.44h0v2.93c0,.97,0,1.95,0,2.91,0,1.94,0,3.86,0,5.77,0,3.81,0,7.56,0,11.24l-.43-.43c24.59.08,46.11.15,61.55.2,7.69.05,13.86.09,18.17.12,2.1.02,3.74.04,4.91.06.53.01.95.02,1.29.03.29,0,.45.02.46.03,0,0-.13.02-.4.03-.32,0-.73.02-1.23.03-1.15.01-2.76.03-4.82.06-4.29.03-10.42.07-18.07.12-15.51.05-37.14.12-61.85.2h-.43s0-.43,0-.43c0-3.67,0-7.42,0-11.24,0-1.91,0-3.83,0-5.77,0-.97,0-1.94,0-2.91v-1.46s0-.73,0-.73v-.71h0v-.02c.88-.88.25-.24.45-.44,35.28.07,66.64.13,86.36.17h.27s0,.27,0,.27c-.06,7.22-.11,12.94-.15,16.92-.03,1.9-.05,3.38-.07,4.44-.01.46-.02.83-.03,1.13,0,.25-.02.37-.03.36Z"/>
  <g>
    <path class="cls-2" d="M646.12,880.36s-.02-.17-.03-.47c0-.35-.02-.79-.03-1.33-.02-1.22-.04-2.92-.07-5.11-.04-4.48-.1-10.92-.17-19.03l.3.3c-22.39.04-58,.12-98.05.2.22-.22-.5.5.49-.5h0v.83s0,.83,0,.83v1.66c0,1.11,0,2.21,0,3.31,0,2.2,0,4.38,0,6.55,0,4.33,0,8.59,0,12.76l-.49-.49c27.92.09,52.35.17,69.88.22,8.73.06,15.73.11,20.63.14,2.38.03,4.24.05,5.58.06.6.01,1.08.02,1.46.03.33.01.51.02.52.03.01.01-.14.02-.45.03-.36,0-.82.02-1.4.03-1.31.02-3.14.04-5.47.06-4.87.03-11.83.08-20.51.14-17.61.06-42.16.13-70.22.22h-.49s0-.49,0-.49c0-4.17,0-8.43,0-12.76,0-2.16,0-4.35,0-6.55,0-1.1,0-2.2,0-3.31v-1.66s0-.83,0-.83v-.81h0v-.02c1-1,.28-.28.51-.5,40.05.08,75.66.15,98.05.2h.31s0,.3,0,.3c-.07,8.19-.13,14.69-.17,19.21-.03,2.15-.06,3.83-.07,5.04-.01.52-.02.94-.03,1.28-.01.28-.02.42-.03.41Z"/>
    <path class="cls-2" d="M659.41,854.42s-.03-.18-.04-.49c-.01-.37-.02-.82-.04-1.37-.02-1.28-.05-3.01-.09-5.2-.05-4.55-.11-10.97-.19-18.87l.36.36c-15.26.04-36.03.09-58.91.14-.45.45.6-.61.5-.5h0v3.39c0,1.13,0,2.25,0,3.36,0,2.23,0,4.43,0,6.6,0,4.34-.01,8.55-.02,12.58l-.48-.47c17.01.09,31.65.17,42.14.23,5.18.06,9.32.1,12.28.13,1.38.02,2.48.04,3.31.06.76.02,1.16.04,1.18.06.02.02-.35.04-1.07.06-.81.01-1.87.04-3.21.06-2.93.03-7.04.08-12.17.13-10.57.06-25.33.13-42.47.23h-.48s0-.48,0-.48c0-4.03-.01-8.24-.02-12.58,0-2.17,0-4.37,0-6.6,0-1.11,0-2.24,0-3.36v-1.7s0-.85,0-.85v-.83h0v-.02c-.11.11.95-.95.5-.5,22.88.05,43.65.1,58.91.14h.36s0,.36,0,.36c-.08,7.99-.15,14.49-.19,19.09-.04,2.16-.07,3.86-.09,5.12-.03,1.16-.05,1.76-.08,1.73Z"/>
  </g>
  <g>
    <rect class="cls-9" x="875.12" y="440.59" width="86.37" height="22.85"/>
    <path class="cls-2" d="M924.96,487.5s-.02-.15-.03-.42c0-.31-.02-.69-.03-1.17-.02-1.08-.04-2.57-.06-4.5-.03-3.94-.08-9.61-.15-16.76l.27.27c-19.72.04-51.08.1-86.36.17.19-.2-.44.44.44-.44h0v1.46s0,1.47,0,1.47c0,.97,0,1.95,0,2.91,0,1.94,0,3.86,0,5.77,0,3.81,0,7.56,0,11.24l-.43-.43c24.59.08,46.11.15,61.55.2,7.69.05,13.86.09,18.17.12,2.1.02,3.74.04,4.91.06.53.01.95.02,1.28.03.29,0,.45.02.46.03,0,0-.13.02-.4.03-.32,0-.73.02-1.23.03-1.15.01-2.76.03-4.82.06-4.29.03-10.42.07-18.07.12-15.51.05-37.14.12-61.85.2h-.43s0-.43,0-.43c0-3.67,0-7.42,0-11.24,0-1.91,0-3.83,0-5.77,0-.97,0-1.94,0-2.91v-2.91h0v-.02c.88-.88.25-.24.45-.44,35.28.07,66.64.13,86.36.17h.27s0,.27,0,.27c-.06,7.22-.11,12.94-.15,16.92-.03,1.9-.05,3.38-.07,4.44-.01.46-.02.83-.03,1.13,0,.25-.02.37-.03.36Z"/>
  </g>
  <g>
    <rect class="cls-9" x="119.02" y="473.97" width="86.37" height="22.85"/>
    <path class="cls-2" d="M168.86,520.89s-.02-.15-.03-.42c0-.31-.02-.69-.03-1.17-.02-1.08-.04-2.57-.06-4.5-.03-3.94-.09-9.61-.15-16.76l.27.27c-19.72.04-51.08.1-86.36.17.19-.2-.44.44.44-.44h0v1.46s0,1.46,0,1.46c0,.97,0,1.95,0,2.91,0,1.94,0,3.86,0,5.77,0,3.81,0,7.56,0,11.24l-.43-.43c24.59.08,46.11.15,61.55.2,7.69.05,13.86.09,18.17.12,2.1.02,3.74.04,4.91.06.53.01.95.02,1.29.03.29,0,.45.02.46.03,0,0-.13.02-.4.03-.32,0-.73.02-1.23.03-1.15.01-2.76.03-4.82.06-4.29.03-10.42.07-18.07.12-15.51.05-37.14.12-61.85.2h-.43s0-.43,0-.43c0-3.67,0-7.42,0-11.24,0-1.91,0-3.83,0-5.77,0-.97,0-1.94,0-2.91v-1.46s0-.73,0-.73v-.71h0v-.02c.88-.88.25-.24.45-.44,35.28.07,66.64.13,86.36.17h.27s0,.27,0,.27c-.06,7.22-.11,12.94-.15,16.92-.03,1.9-.05,3.38-.07,4.44-.01.46-.02.83-.03,1.13,0,.25-.02.37-.03.36Z"/>
  </g>
  <g>
    <rect class="cls-9" x="299.27" y="80.04" width="86.37" height="22.85"/>
    <path class="cls-2" d="M349.11,126.95s-.02-.15-.03-.42c0-.31-.02-.69-.03-1.17-.02-1.08-.04-2.57-.06-4.5-.03-3.94-.09-9.61-.15-16.76l.27.27c-19.72.04-51.08.1-86.36.17.19-.2-.44.44.44-.44h0v1.46s0,1.46,0,1.46c0,.97,0,1.95,0,2.91,0,1.94,0,3.86,0,5.77,0,3.81,0,7.56,0,11.24l-.43-.43c24.59.08,46.11.15,61.55.2,7.69.05,13.86.09,18.17.12,2.1.02,3.74.04,4.91.06.53.01.95.02,1.29.03.29,0,.45.02.46.03,0,0-.13.02-.4.03-.32,0-.73.02-1.23.03-1.15.01-2.76.03-4.82.06-4.29.03-10.42.07-18.07.12-15.51.05-37.14.12-61.85.2h-.43s0-.43,0-.43c0-3.67,0-7.42,0-11.24,0-1.91,0-3.83,0-5.77,0-.97,0-1.94,0-2.91v-1.46s0-.73,0-.73v-.71h0v-.02c.88-.88.25-.24.45-.44,35.28.07,66.64.13,86.36.17h.27s0,.27,0,.27c-.06,7.22-.11,12.94-.15,16.92-.03,1.9-.05,3.38-.07,4.44-.01.46-.02.83-.03,1.13,0,.25-.02.37-.03.36Z"/>
  </g>
  <path class="cls-12" d="M947.34,964.13c0,.3-195.83.55-437.35.55s-437.39-.24-437.39-.55,195.79-.55,437.39-.55,437.35.24,437.35.55Z"/>
  <g>
    <g>
      <path class="cls-12" d="M814.06,918.72s-6.64-45.68-6.09-72.25-.03-56.47-.03-56.47h3.06s-2.07,52.75.18,84.56c2.25,31.79,8.2,44.16,8.2,44.16h-5.32"/>
      <path class="cls-10" d="M833.84,738.61c-.62-1.56-1.37-3.19-2.79-4.08-1.94-1.23-4.49-.72-6.66.05-9.25,3.27-17.45,20.52-21.19,29.59l12.28,41.38c22.17-20.56,26-47.54,18.35-66.93Z"/>
      <path class="cls-12" d="M830.34,736.2s-.05.19-.18.54c-.16.4-.36.9-.6,1.51-.54,1.3-1.29,3.2-2.2,5.55-1.81,4.7-4.11,11.27-6.17,18.67-2.05,7.41-3.46,14.22-4.34,19.18-.44,2.48-.77,4.49-.98,5.88-.11.65-.19,1.18-.26,1.6-.07.37-.11.56-.13.55-.02,0,0-.2.02-.57.04-.42.1-.96.17-1.62.15-1.4.43-3.43.82-5.92.78-4.98,2.14-11.83,4.2-19.26,2.07-7.42,4.43-13.99,6.33-18.66.95-2.34,1.75-4.21,2.35-5.49.28-.6.51-1.08.69-1.47.16-.33.26-.51.27-.5Z"/>
      <path class="cls-10" d="M810.03,815.46c-11.51-6.36-18.29-18.33-18.93-31.46-.44-9.18,2.38-18.19,5.58-26.81.28-.75.61-1.55,1.3-1.95.97-.55,2.17-.06,3.14.49,8.36,4.76,13.43,13.84,16.13,23.08,1.79,6.15,2.72,12.63,1.89,18.98-.83,6.35-4.46,13.26-9.11,17.67"/>
      <path class="cls-12" d="M810.03,815.46s-.03-.19-.05-.55c0-.42-.02-.94-.03-1.59,0-1.38-.06-3.37-.17-5.83-.22-4.92-.87-11.7-2.14-19.12-1.28-7.41-2.83-14.05-3.97-18.84-.56-2.35-1.02-4.27-1.36-5.68-.14-.63-.26-1.14-.35-1.55-.08-.36-.11-.54-.09-.55.02,0,.08.18.19.52.12.4.27.91.45,1.53.38,1.33.9,3.25,1.52,5.64,1.23,4.78,2.84,11.41,4.12,18.85,1.27,7.43,1.86,14.25,2,19.19.07,2.47.07,4.47.01,5.85-.03.64-.05,1.17-.06,1.59-.02.36-.04.55-.06.55Z"/>
      <g class="cls-14">
        <path class="cls-1" d="M810.03,815.46c-11.51-6.36-18.29-18.33-18.93-31.46-.44-9.18,2.38-18.19,5.58-26.81.28-.75.61-1.55,1.3-1.95.97-.55,2.17-.06,3.14.49,8.36,4.76,13.43,13.84,16.13,23.08,1.79,6.15,2.72,12.63,1.89,18.98-.83,6.35-4.46,13.26-9.11,17.67"/>
      </g>
      <path class="cls-10" d="M823.02,885.35c11.33,2.49,20.66,10.48,31.59,14.37,7.23,2.57,15.41,3.48,21.18,8.54-1.39-3.5-4.67-5.83-7.86-7.82-8.99-5.61-18.61-10.21-28.63-13.67-5.14-1.78-10.72-3.26-15.96-1.8"/>
      <path class="cls-10" d="M806.64,895.44c-14.19-.23-29.13-12.31-43.25-13.03,14.78-4.77,35.94-.87,43.25,13.03"/>
      <path class="cls-10" d="M812.18,861.41c7.2-2.6,15.11-2.72,22.68-1.54,7.57,1.18,14.88,3.6,22.14,6.02-.73-4.92-4.71-8.62-8.46-11.9-2.82-2.47-5.66-4.95-8.89-6.83-3.23-1.89-6.92-3.17-10.66-3.01-4.51.19-8.81,2.52-11.77,5.93s-4.55,6.85-5.04,11.34"/>
      <path class="cls-10" d="M783.07,845.74c-8.93-7.63-22.46-6.88-34.2-6.62,18.05,8.63,37.5,20.46,53.04,33.05.48-8.3-7.56-16.8-18.84-26.44Z"/>
      <g class="cls-14">
        <path class="cls-1" d="M783.07,845.74c-8.93-7.63-22.46-6.88-34.2-6.62,18.05,8.63,37.5,20.46,53.04,33.05.48-8.3-7.56-16.8-18.84-26.44Z"/>
      </g>
      <path class="cls-10" d="M816.2,835.22c4.49-2.99,9.03-5.85,13.73-7.98,4.7-2.14,9.09-5.54,13.63-8,5.89-3.19,10.99-7.62,16.39-11.57,5.4-3.95,11.34-7.52,17.95-8.57-5.39-1.11-11.03-.51-16.34.94-5.31,1.45-10.36,3.72-15.38,5.98-6.97,3.14-14.05,6.35-19.75,11.45-5.7,5.09-10.84,10.12-10.24,17.74"/>
      <path class="cls-12" d="M854.35,895.44s-.16-.05-.45-.19c-.34-.17-.74-.39-1.24-.64-1.07-.57-2.6-1.41-4.53-2.38-.96-.5-2.02-1.03-3.17-1.57-1.14-.57-2.37-1.12-3.68-1.69-2.62-1.12-5.55-2.29-8.74-3.04-3.18-.78-6.35-.95-9.1-.23-1.39.34-2.69.67-3.86,1.15-1.17.47-2.21,1.03-3.11,1.6-1.82,1.14-3.09,2.36-3.91,3.23-.82.88-1.22,1.42-1.26,1.39-.01-.01.07-.15.25-.42.18-.27.46-.64.86-1.11.79-.92,2.04-2.2,3.86-3.4.91-.6,1.96-1.19,3.15-1.69,1.18-.51,2.52-.87,3.91-1.22,2.81-.77,6.11-.6,9.32.19,3.24.77,6.18,1.96,8.81,3.11,1.31.58,2.55,1.16,3.68,1.74,1.15.56,2.2,1.11,3.15,1.63,1.92,1.01,3.43,1.91,4.47,2.53.48.29.87.53,1.19.72.27.17.41.27.4.28Z"/>
      <path class="cls-12" d="M796.06,888.41s.33.06.89.26c.56.19,1.36.53,2.31,1,1.91.94,4.42,2.55,6.78,4.81,2.35,2.27,4.06,4.71,5.08,6.58.51.93.88,1.71,1.1,2.27.22.55.33.86.3.88-.08.04-.61-1.17-1.7-2.97-1.08-1.8-2.8-4.17-5.12-6.4-2.32-2.22-4.75-3.84-6.6-4.86-1.84-1.02-3.07-1.5-3.03-1.58Z"/>
      <path class="cls-12" d="M764.67,845.03s.21.05.6.18c.44.16,1,.36,1.7.61.76.28,1.65.61,2.69.99,1.05.39,2.18.96,3.47,1.53,5.11,2.32,11.91,6.22,18.47,11.77,3.24,2.82,6.16,5.68,8.61,8.48,2.44,2.8,4.5,5.44,6.11,7.75,1.62,2.29,2.85,4.21,3.69,5.53.4.62.72,1.13.97,1.52.22.35.33.54.31.55-.01.01-.15-.16-.4-.49-.25-.33-.61-.82-1.05-1.47-.89-1.29-2.16-3.17-3.82-5.43-1.64-2.27-3.73-4.87-6.17-7.64-2.45-2.77-5.37-5.61-8.59-8.41-6.52-5.51-13.25-9.44-18.3-11.83-1.27-.58-2.39-1.18-3.42-1.59-1.02-.41-1.9-.77-2.65-1.07-.68-.28-1.24-.52-1.67-.69-.38-.16-.58-.26-.57-.27Z"/>
      <path class="cls-12" d="M833.47,853.43s-.41-.02-1.13-.15c-.39-.07-.82-.15-1.3-.24-.51-.1-1.1-.1-1.74-.17-2.55-.18-6.27.03-9.75,1.92-1.76.89-3.23,2.09-4.44,3.29-1.22,1.19-2.15,2.44-2.85,3.53-1.42,2.18-1.86,3.75-1.95,3.72-.03,0,.05-.41.29-1.11.26-.69.66-1.68,1.36-2.81.67-1.13,1.59-2.42,2.82-3.67,1.22-1.25,2.72-2.5,4.53-3.41,3.59-1.96,7.44-2.11,10.02-1.83.65.09,1.25.12,1.76.24.48.12.91.23,1.3.33.71.19,1.1.3,1.09.34Z"/>
      <path class="cls-12" d="M847.73,809.2s-.18.13-.54.33c-.41.22-.93.51-1.58.86-1.38.74-3.36,1.84-5.76,3.25-2.39,1.44-5.22,3.2-8.22,5.35-2.99,2.15-6.21,4.65-9.18,7.69-1.46,1.53-2.81,3.12-3.75,4.86-.93,1.78-1.82,3.51-2.63,5.17-1.64,3.31-2.98,6.36-3.94,8.97-.96,2.62-1.56,4.8-1.92,6.32-.36,1.52-.49,2.37-.54,2.37-.02,0,0-.22.06-.63.05-.41.14-1.01.29-1.78.3-1.54.85-3.75,1.77-6.4.93-2.65,2.24-5.73,3.86-9.06.81-1.67,1.69-3.4,2.61-5.19.98-1.82,2.35-3.43,3.83-4.98,3-3.07,6.25-5.58,9.27-7.72,3.03-2.14,5.88-3.87,8.31-5.28,2.44-1.38,4.45-2.43,5.85-3.12.67-.32,1.21-.58,1.63-.78.37-.17.57-.26.58-.24Z"/>
      <path class="cls-12" d="M807.95,852.15s-.13-.42-.28-1.2c-.17-.88-.37-1.97-.62-3.28-.54-2.76-1.37-6.57-2.68-10.65-1.3-4.09-2.89-7.64-4.05-10.21-.55-1.21-1.01-2.23-1.38-3.04-.32-.72-.49-1.13-.45-1.14s.25.36.63,1.05c.38.69.91,1.71,1.53,2.97,1.24,2.53,2.9,6.09,4.21,10.2,1.33,4.11,2.1,7.95,2.55,10.74.22,1.39.38,2.53.46,3.31.09.78.12,1.22.09,1.23Z"/>
      <path class="cls-10" d="M806.92,819.88c-.36-5.36-2.1-10.57-4.61-15.32-6.89-13.02-19.83-22.67-34.27-25.56,10.58,15.76,21.15,31.53,31.73,47.29l4.1,8.44c2.8-4.59,3.42-9.5,3.06-14.86Z"/>
    </g>
    <g>
      <rect class="cls-5" x="778.66" y="913.07" width="73.78" height="13.08"/>
      <polygon class="cls-5" points="784.17 923.56 790.45 964.13 839.43 964.13 846.93 923.56 784.17 923.56"/>
      <path class="cls-12" d="M852.39,926.17c0,.14-16.64.26-37.17.26s-37.17-.12-37.17-.26,16.64-.26,37.17-.26,37.17.12,37.17.26Z"/>
    </g>
  </g>
  <g>
    <path class="cls-12" d="M484.79,641c-.02.3-5.89.21-13.11-.2-7.23-.41-13.07-.99-13.05-1.29.02-.3,5.89-.21,13.11.2,7.22.41,13.07.99,13.05,1.29Z"/>
    <path class="cls-12" d="M493.7,627.39c-.03.07-.7-.19-1.87-.72-1.18-.53-2.85-1.34-4.89-2.4-4.09-2.1-9.64-5.21-15.66-8.79-6.03-3.59-11.43-6.92-15.33-9.34-3.9-2.42-6.3-3.95-6.22-4.08.04-.07.69.23,1.83.81,1.15.59,2.78,1.48,4.78,2.6,4.01,2.25,9.47,5.48,15.49,9.06,6.02,3.58,11.49,6.78,15.47,9.05,3.98,2.28,6.47,3.65,6.4,3.8Z"/>
    <path class="cls-12" d="M495.35,596.4c.28-.11,2.41,4.6,4.76,10.53,2.35,5.93,4.02,10.82,3.74,10.93-.28.11-2.41-4.6-4.76-10.53-2.35-5.93-4.02-10.82-3.74-10.93Z"/>
  </g>
  <g>
    <g>
      <path class="cls-12" d="M419.47,901.76l-12.93,38.43s37.01,26.47,35.35,33.81l-79.79-23.2,17.55-60.73,39.82,11.69Z"/>
      <path class="cls-10" d="M362.11,950.8l2.02-6.05,75.74,24.51s3.12,2.49,2.02,4.74l-79.79-23.2Z"/>
      <path class="cls-11" d="M407.94,940.18c-.12.36-2.12-.03-4.38.59-2.29.57-3.74,1.88-4.06,1.63-.34-.18.89-2.21,3.65-2.92,2.75-.74,4.98.39,4.79.7Z"/>
      <path class="cls-11" d="M415.35,945.88c-.02.38-1.89.52-3.67,1.69-1.82,1.12-2.65,2.71-3.03,2.58-.38-.05-.02-2.28,2.23-3.7,2.23-1.44,4.57-.92,4.48-.57Z"/>
      <path class="cls-11" d="M417.31,956.74c-.38-.02-.38-2.02,1.22-3.75,1.58-1.74,3.65-2,3.73-1.65.13.37-1.37,1.11-2.66,2.54-1.32,1.41-1.89,2.93-2.29,2.85Z"/>
      <path class="cls-11" d="M409.86,931.08c-.26.29-1.9-.74-4.14-1.24-2.23-.54-4.15-.34-4.26-.72-.15-.33,1.93-1.21,4.56-.59,2.64.6,4.12,2.31,3.84,2.54Z"/>
    </g>
    <g>
      <path class="cls-12" d="M332.24,708c3.91,0,82.41,21.23,118.66,36.46,8.79,3.69,16.71,13.68,17.89,22.5,1.67,12.5,18.22,157.5,18.22,157.5l-47.85,11.7s-10.68-79.22-15.01-102.42c-3.32-17.78-3.88-34.94-3.88-34.94l-98.19-42.76,10.15-48.04Z"/>
      <g>
        <path class="cls-12" d="M427.16,748.19c-36.04-15.18-90.01-31.58-91.47-32.2l-13.73-21.69-81.99,18.39,10.91,48.88s6.69,17.05,18.93,18.4c13.1,1.44,54.43,4.1,55.79,4.1s60.5,10.9,60.5,10.9l-22.43,132.11,50.39,11.08,25.11-113.65,7.08-41.38c2.51-14.66-5.37-29.16-19.08-34.93Z"/>
        <path class="cls-10" d="M427.16,748.19s.3.11.86.37c.56.28,1.44.58,2.49,1.23,2.15,1.16,5.27,3.18,8.4,6.77,3.12,3.54,6.27,8.77,7.51,15.6.6,3.4.7,7.16.04,11.07-.65,3.88-1.35,7.99-2.08,12.34-1.47,8.7-3.1,18.33-4.87,28.8-2.27,10.38-4.73,21.59-7.35,33.56-5.26,23.95-11.2,50.94-17.66,80.33l-.1.46-.47-.1c-16.06-3.52-32.92-7.22-50.4-11.05l-.47-.1.08-.48c6.9-40.72,14.47-85.41,22.39-132.11l.44.63c-2.3-.42-4.79-.88-7.29-1.34-11.92-2.18-23.71-4.33-35.36-6.45-5.8-1.04-11.65-2.12-17.32-3.04-5.82-.38-11.6-.75-17.33-1.12-11.48-.79-22.77-1.57-33.84-2.56-2.75-.3-5.55-.34-8.3-1.26-2.7-.91-5.07-2.54-7.1-4.43-4.04-3.84-6.91-8.58-9.06-13.54v-.03s-.02-.05-.02-.05c-3.78-16.97-7.4-33.27-10.88-48.89l-.1-.47.47-.1c30.19-6.74,57.73-12.89,82.01-18.31l.27-.06.15.24c4.85,7.68,9.4,14.89,13.7,21.71l-.16-.14c28.97,9.23,51.96,17.12,67.51,22.99,15.59,5.82,23.81,9.54,23.81,9.54,0,0-.53-.18-1.56-.59-1.05-.42-2.57-1.03-4.57-1.82-4.03-1.59-10.01-3.91-17.82-6.76-15.62-5.76-38.54-13.51-67.66-22.7l-.09-.03-.07-.11c-4.32-6.81-8.89-14-13.76-21.67l.42.17c-24.27,5.47-51.8,11.67-81.97,18.47l.36-.57c3.49,15.61,7.14,31.91,10.94,48.87l-.02-.08c2.08,4.79,4.93,9.48,8.81,13.16,1.95,1.82,4.21,3.34,6.72,4.2,2.49.84,5.3.91,8.05,1.2,11.06.97,22.35,1.75,33.82,2.53,5.74.37,11.53.74,17.35,1.12,5.86.94,11.57,2.01,17.42,3.05,11.64,2.12,23.44,4.28,35.36,6.45,2.5.46,4.99.92,7.29,1.34l.53.1-.09.53c-7.94,46.7-15.54,91.38-22.46,132.1l-.39-.58c17.47,3.85,34.33,7.57,50.38,11.11l-.57.36c6.52-29.37,12.51-56.34,17.82-80.28,2.66-11.96,5.15-23.17,7.45-33.54,1.81-10.46,3.47-20.08,4.98-28.77.75-4.34,1.47-8.46,2.14-12.33.67-3.85.59-7.56.03-10.91-1.18-6.74-4.25-11.94-7.31-15.48-3.07-3.59-6.14-5.64-8.26-6.84-1.03-.66-1.9-.99-2.45-1.29-.56-.28-.83-.44-.83-.44Z"/>
      </g>
      <path class="cls-10" d="M397.35,788.2c.15.27-2.46,1.93-5.63,3.99-3.17,2.06-5.74,3.77-5.93,3.53-.18-.23,2.11-2.35,5.33-4.45,3.22-2.1,6.09-3.34,6.22-3.08Z"/>
    </g>
    <g>
      <path class="cls-7" d="M442.87,677s-6.53-15.86-12.97-19.22c-6.45-3.35-14.66-5.5-14.66-5.5h-28.7l-.28,18.58s4.15,4.16,9.83,3.37c5.68-.79,19.87-4.29,19.87-4.29l7,.38,6.45,8.28s5.24,1.59,3.39-3.36c-1.84-4.96-2.67-7.14-2.67-7.14,0,0,6.2,9.64,8.58,10.09,2.38.44,4.17-1.18,4.17-1.18Z"/>
      <rect class="cls-2" x="379.94" y="651.31" width="8.17" height="28.51"/>
      <path class="cls-5" d="M296.57,560.75l10,14.33,25.46,68.12,48.21,7.14,1.19,33.34-31.45-.64c-15.44,3.04-30.62-5.19-41.9-16.16h0l-4.35-39.74-7.16-66.39Z"/>
      <path class="cls-12" d="M307.75,583.63c.07-.02.35.89.79,2.55.49,1.87,1.09,4.23,1.82,7.03,1.51,5.94,3.56,14.15,5.69,23.26,2.12,9.11,3.88,17.41,4.92,23.46.52,3.03.85,5.49,1.03,7.2.13,1.72.17,2.67.09,2.67-.07,0-.26-.93-.52-2.61-.31-1.68-.76-4.12-1.37-7.11-1.24-5.99-3.11-14.25-5.23-23.35-2.12-9.1-4.06-17.34-5.38-23.33-.66-2.99-1.16-5.42-1.48-7.11-.31-1.69-.45-2.63-.37-2.64Z"/>
      <path class="cls-12" d="M318.68,606.34c-.05.31-1.25.36-2.63.75-1.38.37-2.44.94-2.64.7-.2-.21.72-1.31,2.35-1.75,1.63-.45,2.98.02,2.92.31Z"/>
      <path class="cls-12" d="M317.77,606.49c-.08-.1.98-1.29,3-2.92,1-.84,2.38-1.62,3.84-2.45.75-.42,1.54-.86,2.48-1.19.46-.16.98-.29,1.55-.29.56-.01,1.27.23,1.69.75.08.11.16.22.24.33l.04.05.02.1c.12.55.11,1.21-.18,1.76-.28.55-.74.92-1.17,1.17-.88.51-1.76.73-2.57.95-1.58.38-2.98.96-4.26,1.16-2.5.46-4.04.5-4.07.37-.03-.17,1.5-.47,3.89-1.12,1.19-.28,2.53-.92,4.17-1.38,1.47-.45,3.59-1.09,3.13-2.66l.06.15-.13-.17c-.37-.5-1.26-.42-2.07-.15-.81.26-1.59.67-2.33,1.05-1.51.8-2.83,1.46-3.87,2.2-2.09,1.43-3.35,2.43-3.45,2.29Z"/>
      <path class="cls-12" d="M318.96,606.38c-.14.02-.44-1.06-.65-2.87-.1-.9-.17-1.99-.1-3.21.05-.62.08-1.22.25-1.94.14-.69.83-1.76,2.04-1.53.59.13.95.69,1.04,1.1.11.43.1.81.06,1.17-.08.67-.2,1.3-.34,1.89-.29,1.19-.7,2.21-1.1,3.04-.83,1.65-1.61,2.48-1.72,2.4-.14-.09.41-1.06,1.01-2.71.3-.82.61-1.82.83-2.95.11-.56.2-1.16.26-1.78.07-.57-.1-1.13-.3-1.11-.24-.06-.64.23-.75.75-.14.53-.22,1.18-.28,1.74-.12,1.15-.13,2.2-.13,3.08.01,1.77.03,2.89-.13,2.91Z"/>
    </g>
    <path class="cls-12" d="M313.41,607.79c.13.07,0-1.16-.33-3.37-.33-2.23-.86-5.52-1.58-9.75-1.43-8.46-3.59-20.68-6.31-35.77-5.45-30.19-13.15-71.86-21.83-117.85-8.69-46-16.73-87.61-22.77-117.69-3.02-15.04-5.55-27.19-7.38-35.56-.94-4.14-1.67-7.37-2.18-9.63-.25-1.06-.45-1.88-.6-2.5-.13-.56-.2-.85-.18-.86.02,0,.12.27.29.83.17.61.41,1.43.7,2.47.59,2.18,1.4,5.41,2.38,9.59,1.96,8.35,4.61,20.48,7.72,35.5,6.24,30.04,14.4,71.63,23.09,117.64,8.68,45.99,16.26,87.69,21.52,117.91,2.63,15.11,4.67,27.36,5.97,35.84,1.29,8.46,1.88,13.26,1.49,13.19Z"/>
    <path class="cls-12" d="M378.62,656.21s-.02-.31,0-.91c.03-.65.08-1.53.13-2.66.14-2.39.35-5.83.62-10.22.26-4.44.64-9.87,1.14-16.17.47-6.3,1.02-13.47,1.73-21.39,2.64-31.7,7.3-75.39,12.09-123.67,4.84-48.29,8.14-92.1,9.81-123.85.79-15.88,1.38-28.73,1.64-37.62.17-4.4.29-7.84.38-10.23.05-1.13.1-2.01.13-2.66.03-.6.06-.91.08-.91.02,0,.03.31.03.91,0,.65-.01,1.53-.02,2.66-.04,2.4-.1,5.84-.18,10.24-.13,8.89-.6,21.75-1.29,37.64-1.47,31.77-4.65,75.62-9.49,123.92-4.79,48.29-9.57,91.96-12.4,123.63-.75,7.91-1.36,15.08-1.89,21.37-.55,6.29-1,11.71-1.32,16.15-.35,4.39-.63,7.82-.82,10.21-.1,1.13-.18,2.01-.24,2.65-.06.6-.1.9-.12.9Z"/>
    <path class="cls-12" d="M382.17,651.31s-.08-.29-.18-.87c-.11-.63-.25-1.48-.43-2.57-.36-2.32-.88-5.64-1.54-9.89-1.28-8.66-3.12-21.09-5.38-36.43-4.45-30.77-10.45-73.31-16.62-120.34-6.19-47.05-11.36-89.7-14.63-120.62-1.61-15.46-2.89-27.98-3.57-36.65-.35-4.29-.62-7.64-.81-9.98-.08-1.1-.14-1.96-.18-2.6-.04-.59-.04-.89-.02-.89.02,0,.06.3.14.88.07.63.17,1.49.29,2.59.24,2.33.58,5.68,1.01,9.96.81,8.65,2.21,21.16,3.92,36.61,3.47,30.89,8.76,73.52,14.95,120.57,6.18,47.03,12.05,89.58,16.3,120.38,2.12,15.36,3.84,27.81,5.04,36.48.57,4.26,1.02,7.6,1.33,9.92.14,1.1.24,1.95.32,2.58.07.58.09.88.07.89Z"/>
    <g>
      <path class="cls-12" d="M477.04,893.51l5.78,40.13s44.97,6.95,46.8,14.25l-81.44,15.12-11.71-62.12,40.57-7.38Z"/>
      <path class="cls-10" d="M447.94,963.14l-.92-6.31,78.66-12.26s3.91.82,3.94,3.32l-81.68,15.25Z"/>
      <path class="cls-11" d="M484.07,933c.06.38-1.91.92-3.65,2.5-1.78,1.54-2.5,3.36-2.89,3.28-.38,0-.2-2.37,1.94-4.25,2.12-1.9,4.62-1.9,4.59-1.53Z"/>
      <path class="cls-11" d="M493.25,934.75c.16.35-1.45,1.31-2.51,3.16-1.12,1.82-1.14,3.61-1.54,3.67-.36.13-1.04-2.03.32-4.31,1.35-2.29,3.66-2.89,3.74-2.53Z"/>
      <path class="cls-11" d="M499.9,943.56c-.35.15-1.25-1.64-.6-3.9.63-2.27,2.36-3.43,2.59-3.15.28.27-.73,1.6-1.23,3.47-.55,1.85-.37,3.47-.76,3.58Z"/>
    </g>
    <g>
      <g>
        <path class="cls-4" d="M255.78,562.79l-1.46-75.59c-.98-18.79,9.15-35.02,27.96-35.48l1.74.06c17.52.6,31.65,14.54,32.46,32.05.76,16.29,1.38,34.3.98,43.02-.84,18.04-18.98,20.23-18.98,20.23-.04,0-.03,10.98.01,16.27l-.91,12.46-11.14,2.83-30.65-15.85Z"/>
        <path class="cls-7" d="M298.46,546.46s-11.4.28-23.26-7.75c0,0,5.19,13.76,23.25,12.75v-5Z"/>
        <path class="cls-12" d="M308.83,500.88c0,1.36-1.15,2.49-2.57,2.52-1.42.03-2.58-1.05-2.58-2.41,0-1.36,1.15-2.49,2.57-2.52,1.42-.03,2.58,1.05,2.58,2.42Z"/>
        <path class="cls-12" d="M312.36,491.05c-.33.33-2.23-1.19-5.01-1.27-2.77-.13-4.85,1.23-5.14.88-.14-.15.2-.75,1.11-1.37.89-.61,2.4-1.19,4.13-1.12,1.73.07,3.16.75,3.97,1.43.83.68,1.1,1.3.94,1.45Z"/>
        <path class="cls-12" d="M285.24,500.06c0,1.36-1.15,2.49-2.57,2.51-1.42.03-2.58-1.05-2.58-2.41,0-1.36,1.15-2.49,2.57-2.52,1.42-.03,2.58,1.05,2.58,2.42Z"/>
        <path class="cls-12" d="M285.16,490.77c-.33.33-2.24-1.19-5.01-1.27-2.77-.13-4.85,1.23-5.14.88-.14-.16.2-.75,1.11-1.37.89-.61,2.4-1.19,4.13-1.12,1.73.07,3.16.75,3.97,1.43.83.68,1.1,1.3.94,1.45Z"/>
        <path class="cls-12" d="M294.38,512.42c0-.16,1.73-.4,4.53-.66.71-.05,1.39-.17,1.52-.65.18-.51-.09-1.28-.4-2.12-.61-1.74-1.24-3.56-1.91-5.46-2.65-7.78-4.54-14.16-4.22-14.26.31-.1,2.71,6.11,5.36,13.89.64,1.92,1.24,3.74,1.82,5.49.24.81.67,1.74.27,2.79-.21.52-.74.89-1.2,1-.46.12-.86.12-1.21.13-2.82.06-4.56,0-4.57-.15Z"/>
        <path class="cls-12" d="M286.79,480.41c-.4.69-3.07-.14-6.34-.32-3.27-.25-6.02.23-6.33-.51-.13-.35.44-.97,1.61-1.51,1.16-.53,2.94-.92,4.9-.8,1.96.13,3.67.75,4.75,1.43,1.09.68,1.58,1.37,1.4,1.7Z"/>
        <path class="cls-12" d="M313.28,481.29c-.59.62-2.84-.08-5.55-.16-2.71-.16-5.02.33-5.54-.34-.23-.32.15-.95,1.16-1.53,1-.58,2.67-1.03,4.53-.95,1.87.09,3.47.69,4.4,1.35.95.67,1.25,1.32.99,1.62Z"/>
        <path class="cls-4" d="M255.33,499.99c-.3-.14-12.27-4.09-12.3,8.26-.03,12.35,12.38,9.83,12.4,9.48.02-.35-.1-17.73-.1-17.73Z"/>
        <path class="cls-7" d="M251.66,513.04c-.05-.04-.22.15-.58.32-.36.16-.97.27-1.61.03-1.3-.48-2.4-2.56-2.45-4.78-.03-1.12.21-2.19.61-3.08.38-.9.96-1.53,1.62-1.65.65-.15,1.12.24,1.27.59.16.35.09.59.15.61.03.03.27-.21.17-.72-.05-.25-.19-.54-.48-.77-.3-.24-.73-.37-1.19-.32-.95.06-1.81.94-2.25,1.91-.49.98-.79,2.18-.75,3.44.07,2.49,1.34,4.82,3.13,5.34.87.23,1.59-.03,1.97-.32.38-.3.45-.58.41-.6Z"/>
      </g>
      <g>
        <path class="cls-12" d="M341.28,466.79c-.19-.73-.72-1.33-1.37-1.71-1.41-.84-3.04-.74-4.62-.77-3.92-.08-7.8-1.1-11.29-2.89,1.22-.61,2.36-1.36,3.33-2.32,2-1.98,3.17-5.03,2.26-7.7-.17-.5-.46-1.03-.96-1.18-.8-.25-1.51.54-2.07,1.16-1.85,2.05-3.55,2.92-6.29,2.63-1.7-.18-3.35-.57-4.69-1.41-.05-.06-.1-.12-.15-.17-.64-.67-1.26-1.3-1.88-1.92,0,0,0,0,0,0h0c-4.63-4.62-8.61-7.83-12.72-9.51-6.02-2.45-16.1-3.48-22.39-1.86-6.29,1.62-11.96,6.7-12.86,13.14-3.51-3-8.81-2.99-13.11-1.28l-.11-.05c-4.79,1.68-7.53,6.73-8.96,11.6-.08.27-.15.54-.22.8-1.63,2.56-3.83,4.74-6.46,6.26-.46.27-.99.59-1.05,1.13-.06.53.39.97.82,1.28,1.14.83,2.48,1.37,3.86,1.62-.44,1.16-.96,2.28-1.6,3.35-.54.91-1.19,2-.72,2.96.36.74,1.29,1.04,2.11.93.81-.12,1.53-.56,2.23-1-.54,1.27-1.08,2.55-1.62,3.82,1.73.31,3.52.18,5.2-.33,1,4.57,1.72,13.01,2.89,16.11,3.28.07,4.08-.28,5.73.27,2.13.72,1.3,4.5,4.09,3.44,1.42-.54,3.62-5.9,4.1-7.34,3.19-9.56,4.27-19.82,3.18-29.84,1.99-2.1,4.39-3.82,7.02-5.02l-.21.19c5.06-1.73,10.78-3.43,15.56-1.04,3.71,1.85,5.88,5.72,8.64,8.81,5.24,5.85,11.19,8.99,19.04,9.36.68,5.46.86,14.37,1.1,19.46l4.39-10.17v.04c.36-.6.65-1.2.93-1.8l.1-.18v-.02c.45-.97.88-1.93,1.44-2.89.02.01.03.03.05.04,2.75,2.44,6.82-1.26,4.66-4.23-.43-.59-.94-1.12-1.53-1.55,1.25,1.19,3.13,1.76,4.79,1.26s2.94-2.17,2.81-3.89c-.09-1.18-.93-2.23-1.99-2.7,2.23.18,4.51-.29,6.45-1.39,1.28-.72,2.53-1.91,2.1-3.51Z"/>
        <path class="cls-10" d="M271.26,454.38s-.76.47-1.82,1.65c-1.05,1.17-2.23,3.21-2.8,5.99-.29,1.38-.48,2.93-.48,4.59-.01,1.66.11,3.45.23,5.33.11,1.88.24,3.86.11,5.93-.06,1.03-.19,2.08-.42,3.12-.23,1.03-.51,2.15-1.29,3.03-.62.72-1.66,1.03-2.55.85-.9-.16-1.7-.65-2.29-1.31-1.16-1.36-1.44-3.08-1.72-4.6l.38.05c-.63,1.36-1.27,2.71-2.21,3.78-.93,1.08-2.22,1.79-3.52,1.9-.65.06-1.3-.05-1.86-.33-.57-.28-.98-.75-1.26-1.25-.27-.51-.41-1.07-.38-1.6.03-.54.24-1.04.59-1.4l.19.17c-1.4,1.58-2.88,2.43-3.9,2.9-.51.23-.93.37-1.21.46-.28.08-.43.12-.43.1,0-.01.14-.07.41-.17.27-.11.67-.27,1.17-.52.99-.5,2.42-1.37,3.76-2.94l.19.17c-.61.64-.65,1.77-.13,2.69.26.45.64.87,1.14,1.11.5.25,1.09.34,1.69.28,1.2-.11,2.4-.78,3.27-1.81.89-1.02,1.52-2.33,2.13-3.7l.26-.58.12.63c.28,1.52.58,3.17,1.64,4.4.52.59,1.26,1.03,2.05,1.17.79.16,1.63-.1,2.17-.72.68-.76.96-1.82,1.19-2.83.22-1.02.35-2.05.42-3.06.13-2.03.02-4-.09-5.88-.11-1.88-.22-3.67-.19-5.35.02-1.69.23-3.25.54-4.65.61-2.82,1.86-4.88,2.97-6.03,1.12-1.16,1.94-1.54,1.94-1.54Z"/>
        <path class="cls-10" d="M327.1,472.2s-.05.05-.15.12c-.12.09-.27.2-.45.33-.2.15-.45.32-.77.49-.31.18-.67.39-1.1.57-1.68.79-4.38,1.57-7.74,1.36-3.33-.2-7.33-1.4-10.89-4.07-3.6-2.61-6.75-6.45-9.33-10.84-1.31-2.19-2.37-4.44-3.54-6.52-1.16-2.08-2.45-4-4.02-5.52-1.54-1.53-3.34-2.66-5.19-3.18-.92-.28-1.86-.34-2.74-.33-.89.04-1.74.22-2.52.47-1.56.52-2.82,1.37-3.78,2.25-.96.89-1.61,1.83-2.05,2.64-.83,1.66-.88,2.72-.94,2.71,0,0,0-.06.01-.19.02-.15.05-.33.09-.55.09-.48.3-1.18.69-2.04.43-.83,1.07-1.81,2.04-2.73.96-.92,2.24-1.81,3.84-2.36.8-.27,1.67-.46,2.6-.52.92-.03,1.9.04,2.86.32,1.93.53,3.78,1.69,5.37,3.24,1.61,1.55,2.93,3.5,4.1,5.59,1.19,2.09,2.25,4.33,3.54,6.51,2.55,4.36,5.66,8.15,9.19,10.74,3.5,2.65,7.4,3.85,10.68,4.09,3.31.25,5.97-.48,7.65-1.21,1.7-.75,2.5-1.41,2.54-1.36Z"/>
        <path class="cls-10" d="M328.78,464.27s-.22.18-.65.45c-.43.27-1.09.61-1.92.97-.84.36-1.87.7-3.04.99-1.18.26-2.49.45-3.89.5-1.39.03-2.72-.09-3.91-.28-1.19-.22-2.24-.5-3.09-.81-.86-.31-1.53-.61-1.97-.86-.45-.24-.69-.39-.67-.41.04-.07,1.03.45,2.74.99.85.28,1.89.52,3.06.71,1.17.17,2.47.27,3.84.24,1.36-.05,2.66-.22,3.82-.46,1.15-.26,2.18-.56,3.02-.88,1.68-.63,2.64-1.21,2.68-1.14Z"/>
      </g>
    </g>
    <path class="cls-10" d="M209.76,778.99c-.05-.44-.09-.87-.11-1.31-.37-8.38,3.03-16.41,6.31-24.14,8.78-20.71,17.28-42.68,14.81-65.03-3.26-29.55-25-54-32.75-82.58-.91-3.36-4-5.68-7.5-5.68h0c-5.25,0-9.05,5.08-7.44,10.06,8.64,26.73,28.35,50.17,31.45,78.2,2.47,22.35-6.03,44.32-14.81,65.03-3.28,7.72-6.68,15.76-6.31,24.14.37,8.38,5.76,17.19,14.07,18.53h123.5c4.3,0,7.79-3.48,7.79-7.77v-1.68c0-4.29-3.49-7.77-7.79-7.77h-121.21Z"/>
    <path class="cls-2" d="M184.92,964.13h179.21c2.5,0,4.83-1.23,6.39-3.38,1.79-2.46,2.27-5.7,1.31-8.66l-51.01-156.33-2.66.87,51.01,156.33c.69,2.11.35,4.41-.91,6.15-1.02,1.41-2.53,2.22-4.12,2.22h-179.21c-1.57,0-3.01-.75-4.05-2.12-1.25-1.65-1.66-3.89-1.07-5.97l43.84-156.66-2.69-.75-43.84,156.66c-.82,2.92-.24,6.07,1.54,8.42,1.55,2.05,3.84,3.22,6.28,3.22Z"/>
    <path class="cls-2" d="M298.46,554.01l-3.74,3.81-39.47-22.16-3.21,10.61s-16.68,13.57-23.06,25.35c-6.39,11.78,13.16,108.6,14.23,122.67,2.15,28.36.77,65.12.77,65.12,0,0,14.3-9.95,56.37-27.23,42.07-17.27,34.97-24.79,34.97-24.79l-15.46-31.85-20.43-106.46-.97-15.08Z"/>
    <path class="cls-12" d="M299.36,567.96c-.06.04-.51-.61-1.27-1.82-.86-1.42-1.9-3.15-3.13-5.2l.64.02c-1.78,2.72-3.88,5.95-6.21,9.52l-.26.4-.42-.25c-2.81-1.65-5.87-3.44-9.06-5.31-14.33-8.48-25.75-15.76-25.38-16.3,4.6,2.73,13.23,7.83,25.93,15.36,3.18,1.89,6.22,3.7,9.03,5.37l-.68.16c2.42-3.52,4.6-6.69,6.44-9.37l.35-.52.29.54c1.12,2.11,2.06,3.9,2.84,5.36.65,1.27.97,1.99.91,2.03Z"/>
    <path class="cls-13" d="M259.78,774.89s20.35,2.16,36.79,2.98,17.8-14.34,17.8-14.34c0,0,6.08-73.21,4.82-73.22-1.26-.01-14.59-.62-14.59-.62l-44.82,85.21Z"/>
    <g>
      <path class="cls-4" d="M435.58,679.14s-9.48-17.26-16.56-20.37c-7.08-3.11-15.93-4.79-15.93-4.79l-29.86,4.04.53,18.02s4.7,4.14,10.66,2.87c5.96-1.27,20.72-6.08,20.72-6.08l7.44-.11,7.45,8.38s5.67,1.31,3.35-3.86c-2.32-5.17-3.35-7.45-3.35-7.45,0,0,8.47,9.73,11.02,10.03,2.55.3,4.53-.68,4.53-.68Z"/>
      <path class="cls-7" d="M406.64,663.08c-.02.23,3.67-.1,7.56,1.93,3.92,1.96,5.85,5.16,6.02,5,.07-.04-.29-.89-1.22-2.05-.92-1.16-2.46-2.57-4.48-3.6-2.02-1.03-4.06-1.45-5.52-1.51-1.47-.07-2.37.14-2.36.22Z"/>
    </g>
    <g>
      <path class="cls-12" d="M380.21,656.21c.33.09-1.12,5.18-.99,11.6.07,6.43,1.67,11.47,1.34,11.57-.24.12-2.36-4.91-2.43-11.55-.13-6.63,1.84-11.73,2.08-11.62Z"/>
      <path class="cls-12" d="M379.84,656.49s.11.15.18.49l.05.22-.25-.09c-.75-.27-2.4-1.04-4.55-2.28-1.07-.62-2.26-1.37-3.52-2.22-.63-.45-1.27-.9-1.93-1.36l-1-.76c-.34-.28-.81-.74-.84-1.43-.02-.37.1-.83.49-1.13.38-.29.86-.27,1.16-.19.64.19.99.47,1.43.69.84.48,1.61,1.01,2.32,1.55,1.41,1.08,2.55,2.22,3.41,3.24,1.72,2.06,2.37,3.6,2.26,3.66-.15.09-1.03-1.28-2.84-3.14-.9-.93-2.04-1.96-3.43-2.95-.69-.49-1.44-.98-2.25-1.43-.4-.21-.85-.49-1.16-.56-.32-.02-.25-.04-.3.21-.05.36.78.89,1.39,1.37.64.47,1.26.93,1.87,1.38,1.22.88,2.36,1.66,3.38,2.33,2.04,1.35,3.59,2.3,4.22,2.77l-.2.13c.01-.35.04-.51.09-.52Z"/>
      <path class="cls-12" d="M379.81,657.07c-.1.06-.87-1.01-1.14-3.08-.11-1.02-.11-2.28.25-3.61.17-.67.41-1.35.76-2.02.17-.33.36-.67.58-.99.2-.29.46-.75,1.03-.98.27-.15.87-.09,1.13.25.28.35.26.66.28.87,0,.39,0,.76-.03,1.13-.04.73-.13,1.44-.25,2.1-.24,1.33-.62,2.48-1.01,3.42-.79,1.87-1.61,2.84-1.72,2.77-.15-.08.42-1.18.99-3.04.29-.93.57-2.05.74-3.31.09-.63.15-1.3.17-1.99v-1.05c0-.07,0-.14,0-.17v-.03s.08-.05.09-.06c0,0,.04-.04-.02.03l.03-.05s0-.02,0,0c0,.02,0,.07,0,.12,0,.04,0,.01-.01.03-.3.11-.75.92-1.06,1.45-.32.59-.56,1.2-.74,1.8-.37,1.19-.45,2.34-.45,3.29.05,1.92.54,3.07.36,3.13Z"/>
    </g>
    <polygon class="cls-2" points="369.68 655.74 377.61 655.68 377.82 682.53 369.68 683.67 369.68 655.74"/>
    <g>
      <path class="cls-5" d="M311.18,638.35c-3.84-29.8-25.26-65.06-25.26-65.06l-32.44-34.58-3.22,8.84-20.6,19.3c-6.49,6.08-8.57,28.04-7.37,36.84l15.79,90.61-17.4,68.23c-1.08,5.38,3.11,10.37,8.59,10.23l63.91,1.74c7.95.22,14.76-5.67,15.7-13.57l8.25-69.81c.19-15.17-3.1-30.8-5.93-52.77Z"/>
      <path class="cls-12" d="M310.69,644.17s-.27-.33-.7-1.02c-.48-.8-1.08-1.8-1.83-3.03-1.62-2.79-3.83-6.6-6.53-11.26-5.45-9.55-12.94-22.75-20.96-37.49-1.66-3.07-3.28-6.09-4.8-9.05-.37-.75-.74-1.49-1.1-2.23l-.5-1.22c-.13-.43-.15-.92-.08-1.41.18-1.01.95-1.77,1.72-2.15.79-.41,1.58-.6,2.43-.69l-.21.97c-1.25-.64-2.64-1.12-3.99-1.4-.68-.14-1.36-.24-2.04-.28-.37-.03-.59.02-1.14-.1-.43-.13-.76-.33-1.06-.54-2.32-1.75-3.92-3.82-5.54-5.72-3.14-3.86-5.69-7.41-7.79-10.37-2.09-2.96-3.69-5.36-4.77-7.01-.48-.76-.88-1.39-1.21-1.91-.26-.44-.39-.68-.36-.69.02-.02.2.19.51.6.37.49.81,1.09,1.35,1.81,1.25,1.7,2.93,4,5.01,6.83,2.16,2.9,4.78,6.4,7.94,10.18,1.6,1.84,3.3,3.93,5.4,5.48.59.42.88.47,1.72.46.73.04,1.46.14,2.18.29,1.46.3,2.87.77,4.28,1.48l1.54.77-1.75.19c-1.33.15-2.99.76-3.19,1.99-.04.31-.03.63.08.97l.43,1.03c.36.72.72,1.45,1.09,2.19,1.52,2.94,3.14,5.95,4.8,9.02,8.04,14.64,15.31,27.89,20.67,37.63,2.57,4.73,4.68,8.6,6.22,11.43.67,1.27,1.22,2.31,1.65,3.13.37.72.54,1.11.51,1.13Z"/>
      <path class="cls-12" d="M244.74,723.34c.06-.03,1.14-.03,3.08,0,2.08.04,4.83.08,8.19.14,6.94.13,16.5.33,27.47.69l-.54.4c.87-3.46,1.79-7.1,2.74-10.84.08-.32.16-.64.24-.96l.51.68c-14.38-.46-27.25-.93-36.04-1.32l.34-.2c-1.77,3.51-3.26,6.3-4.3,8.28-.48.91-.88,1.66-1.22,2.29-.29.53-.45.82-.48.84-.06.04.41-1.01,1.31-3.01.9-2,2.25-4.98,4.03-8.71l.1-.21h.24c8.8.17,21.67.51,36.06.96l.68.02-.17.66c-.08.31-.16.63-.24.96-.95,3.74-1.88,7.37-2.76,10.83l-.11.42-.43-.02c-11.23-.42-21.03-.9-27.9-1.26-3.29-.18-5.98-.32-8.02-.43-1.85-.11-2.83-.17-2.78-.21Z"/>
    </g>
    <g>
      <g>
        <path class="cls-5" d="M268.8,581.55l30.43,65.69,70.45,7.89v34.73s-70.78,2.1-89.77-2.84c-14.4-3.74-38.54-50.95-49.36-73.53-4.55-9.5-5.98-20.27-3.54-30.52,3.68-15.44,12.25-21.27,24.46-17.25,7.73,2.54,13.91,8.45,17.33,15.83Z"/>
        <path class="cls-12" d="M268.8,581.55s-.21-.34-.56-1.01c-.36-.67-.92-1.66-1.73-2.91-1.67-2.42-4.42-6.01-9.24-8.97-2.39-1.48-5.3-2.74-8.64-3.44-1.67-.35-3.45-.53-5.28-.41-1.83.16-3.71.59-5.47,1.49-3.53,1.83-6.28,5.32-8.09,9.44-1.77,4.15-3.02,8.85-3.41,13.85-.39,5.01.09,10.32,1.55,15.61,1.38,5.32,4.17,10.37,6.77,15.73,5.31,10.66,11.2,21.95,18.03,33.45,3.44,5.73,7.09,11.54,11.24,17.17,2.08,2.81,4.27,5.57,6.71,8.15,2.43,2.55,5.11,5.06,8.33,6.42.79.32,1.67.51,2.57.67l2.67.54c1.81.24,3.63.47,5.46.71,1.84.17,3.69.34,5.54.51,1.86.12,3.73.24,5.6.36,7.51.41,15.14.63,22.86.74,15.76.19,31.16.04,45.96-.34l-.52.53c0-11.98.02-23.58.02-34.73l.45.51c-26.38-3-50.24-5.7-70.44-8l-.23-.03-.09-.2c-9.31-20.28-16.86-36.72-22.1-48.13-2.57-5.66-4.58-10.08-5.96-13.12-.66-1.47-1.16-2.61-1.52-3.43-.34-.77-.48-1.18-.48-1.18,0,0,.22.38.59,1.13.39.8.93,1.92,1.63,3.38,1.43,3.02,3.5,7.4,6.16,13.03,5.32,11.37,12.97,27.76,22.42,47.98l-.32-.23c20.21,2.23,44.07,4.87,70.46,7.78l.45.05v.46c0,11.15.02,22.75.03,34.73v.52s-.52.01-.52.01c-14.82.4-30.22.56-46.01.37-7.74-.11-15.38-.33-22.91-.74-1.88-.12-3.76-.24-5.62-.36-1.87-.17-3.72-.34-5.58-.52-1.85-.24-3.69-.48-5.52-.73l-2.73-.55c-.91-.17-1.81-.36-2.72-.72-3.53-1.5-6.23-4.09-8.71-6.69-2.47-2.63-4.69-5.43-6.78-8.26-4.17-5.67-7.83-11.51-11.27-17.27-6.83-11.55-12.7-22.87-17.98-33.56-2.57-5.35-5.38-10.47-6.77-15.91-1.47-5.38-1.93-10.8-1.51-15.89.42-5.1,1.71-9.85,3.55-14.08.99-2.08,2.08-4.07,3.53-5.72,1.42-1.66,3.09-3.03,4.92-3.98,1.85-.93,3.81-1.36,5.71-1.51,1.9-.11,3.73.09,5.43.46,3.4.74,6.35,2.06,8.76,3.59,4.86,3.06,7.58,6.73,9.2,9.21,1.58,2.55,2.11,4.04,2.11,4.04Z"/>
      </g>
      <path class="cls-12" d="M297.29,652.85c.11.1-1.32,1.87-3.75,4.67-2.42,2.8-5.83,6.63-9.67,10.85l-2.2,2.42,1.29-2.99c.12-.27.24-.56.37-.86,2.4-5.51,5.74-9.88,8.47-12.67,1.36-1.4,2.55-2.44,3.41-3.12.86-.67,1.37-.99,1.42-.94.12.14-1.72,1.69-4.26,4.58-2.53,2.88-5.69,7.21-8.03,12.58-.12.29-.25.57-.36.84l-.91-.58c3.85-4.21,7.35-7.95,9.92-10.62,2.57-2.67,4.2-4.25,4.3-4.15Z"/>
    </g>
    <path class="cls-10" d="M487.01,924.45c.03.16-2.65.8-6.96,1.91-4.31,1.1-10.24,2.75-16.79,4.58-6.56,1.83-12.54,3.36-16.91,4.28-2.19.46-3.96.79-5.2.97-1.24.19-1.93.26-1.94.18-.03-.16,2.65-.8,6.96-1.91,4.31-1.1,10.24-2.75,16.8-4.58,6.55-1.83,12.53-3.36,16.91-4.28,2.19-.46,3.96-.79,5.2-.97,1.24-.19,1.93-.26,1.94-.18Z"/>
    <path class="cls-12" d="M294.48,521.01c-.05.29-2.21.18-4.8-.42-2.6-.59-4.58-1.53-4.47-1.82.1-.28,2.17.17,4.72.75,2.55.59,4.6,1.18,4.55,1.49Z"/>
    <path class="cls-7" d="M285.91,504.39c.17.23-1.76,1.6-4.56,1.54-2.8-.03-4.69-1.45-4.51-1.68.15-.28,2.05.57,4.53.58,2.48.06,4.4-.74,4.55-.45Z"/>
    <path class="cls-7" d="M312.1,505.11c.17.23-1.76,1.6-4.56,1.54-2.8-.03-4.69-1.45-4.51-1.68.15-.28,2.05.57,4.53.58,2.48.06,4.4-.74,4.55-.45Z"/>
    <g>
      <path class="cls-12" d="M283,612.34c.06.16-2.46,1.12-6.42,2.92-3.95,1.79-9.3,4.52-14.86,8.11-5.55,3.61-10.22,7.38-13.47,10.26-3.25,2.87-5.16,4.79-5.28,4.67-.06-.05.36-.58,1.17-1.51.8-.93,2.02-2.21,3.59-3.73,3.14-3.04,7.79-6.96,13.4-10.6,5.62-3.63,11.09-6.28,15.15-7.91,2.03-.82,3.7-1.41,4.87-1.76,1.17-.36,1.83-.52,1.85-.45Z"/>
      <path class="cls-12" d="M261.34,623.6c-.07,0-.08-.9.07-2.5.15-1.6.48-3.91,1.17-6.71.19-.69.4-1.53,1.11-2.19.36-.32.82-.53,1.34-.56.51-.05,1.14.19,1.47.67.61.99.44,1.96.34,2.88-.14.94-.45,1.86-.81,2.75-.73,1.76-1.67,3.7-3.47,5.07-1.82,1.39-4.27,1.61-6.47,1.35-4.39-.66-8.51-1.65-11.88-3.87-.4-.3-.95-.9-.78-1.68.18-.79.93-1.07,1.4-1.16,1.07-.16,1.89.07,2.75.16,1.69.25,3.23.64,4.62,1.07,2.76.88,4.85,1.96,6.22,2.81,1.37.85,2.05,1.42,2.02,1.48-.1.2-3.01-1.98-8.46-3.54-1.36-.38-2.87-.71-4.52-.91-.81-.08-1.73-.25-2.43-.12-.77.19-.86.56-.19,1.09,3,1.94,7.18,2.98,11.37,3.58,2.09.24,4.2.02,5.71-1.13,1.53-1.14,2.45-2.9,3.17-4.59.36-.85.65-1.69.79-2.52.14-.81.19-1.73-.13-2.2-.27-.46-1.05-.39-1.51,0-.47.4-.72,1.09-.91,1.75-1.54,5.47-1.8,9.03-1.99,9Z"/>
    </g>
    <g>
      <path class="cls-4" d="M308.23,221.88c-3.91,12.11-2.96,25.27,2.64,36.69l24.06,49.03c1.68,3.8,6.18,5.42,9.91,3.59,5.72-2.81,12.69-8.68,12.37-20.57-.54-20.03-11.36-32.04-11.36-32.04l-7.42-28.03,7.42-26.34-34.97,9.46-2.65,8.21Z"/>
      <g>
        <path class="cls-4" d="M504.05,182.61c-3.58,31.31-21.47,24.15-31.31,38.46-9.84,14.31-29,29.95-37.94,56.79-8.94,26.83-13.46,40.9-33.16,23.39-24.6-21.87,9.38-76.6,9.38-76.6l-15.21-20.57h-48.18l-39.47,19.68s-43.83,51.88-61.72,61.72c-17.89,9.84-31.31-3.58-31.31-3.58l52.77-68.87s-42.04,32.2-74.24,42.04c-32.2,9.84-26.83-14.31-26.83-14.31,0,0,80.5-58.14,85.87-61.72s72.45-35.78,72.45-35.78c16.68-3.79,128.62-46.6,165.97-55.65l31.74-13.06,33.21,81.24s-38.26,7.29-52.02,26.84"/>
        <path class="cls-7" d="M265.23,216.52c-.06-.04.52-1.1,1.66-2.97,1.14-1.86,2.83-4.54,5.05-7.77,1.13-1.6,2.34-3.37,3.89-5.13,1.6-1.7,3.42-3.36,5.35-5.08,3.87-3.44,8.22-7.09,12.81-10.89,9.2-7.59,17.66-14.3,23.82-19.1,2.98-2.29,5.46-4.18,7.34-5.63,1.75-1.31,2.74-2,2.79-1.94.05.06-.86.86-2.52,2.27-1.83,1.52-4.23,3.5-7.12,5.9-6.18,5.07-14.46,11.85-23.6,19.34-4.59,3.79-8.96,7.42-12.84,10.8-1.94,1.69-3.77,3.32-5.35,4.93-1.51,1.66-2.77,3.41-3.92,4.97-2.29,3.15-4.07,5.76-5.32,7.55-1.25,1.79-1.95,2.77-2.02,2.73Z"/>
        <path class="cls-7" d="M372.05,196.03c-.02-.07,1.08-.5,3.09-1.19,2.01-.69,4.94-1.66,8.6-2.72,3.66-1.05,8.08-2.18,13.08-2.93,2.5-.38,5.15-.64,7.91-.72,2.75-.05,5.65-.08,8.57.71,1.45.39,2.85,1.01,4.05,1.92,1.2.91,2.13,2.12,2.74,3.43,1.21,2.64,1.31,5.45,1.16,7.99-.36,5.1-1.79,9.54-3.44,13-1.65,3.48-3.54,5.98-4.91,7.61-.71.8-1.27,1.41-1.69,1.79-.41.39-.64.58-.66.55-.21-.15,3.43-3.38,6.56-10.28,1.52-3.43,2.85-7.78,3.14-12.74.13-2.45-.01-5.1-1.12-7.47-1.06-2.39-3.39-4.07-6.1-4.76-2.71-.74-5.55-.73-8.25-.69-2.71.06-5.32.29-7.8.64-4.95.68-9.35,1.73-13.02,2.68-3.67.95-6.63,1.81-8.68,2.38-2.05.57-3.19.86-3.22.78Z"/>
        <path class="cls-7" d="M511.7,159.33c.3.2-4.05,5.09-6.24,12.63-2.29,7.51-1.31,13.98-1.67,13.99-.12.02-.54-1.55-.66-4.17-.13-2.61.15-6.27,1.29-10.13,1.15-3.85,2.92-7.07,4.45-9.18,1.53-2.13,2.74-3.22,2.83-3.13Z"/>
        <path class="cls-3" d="M430.2,291.25s-11.04-16.59-25.35-10.03c0,0-2.36,6.4,0,7.91,2.36,1.51,17.58,14.16,20.91,12.21,3.33-1.95,4.44-10.09,4.44-10.09Z"/>
        <path class="cls-3" d="M233,258.58s1.78,7.49,0,14.08c-1.78,6.6-12.28,13.17-12.28,13.17l-5.59-3.94,17.87-23.32Z"/>
      </g>
      <path class="cls-12" d="M440.31,266.66c-.21.13-1.53-2.41-4.67-5.65-3.14-3.2-8.37-6.9-15.04-8.62-3.32-.85-6.59-1.19-9.56-1.14-2.96.17-5.64.5-7.78,1.19-4.34,1.24-6.71,2.86-6.82,2.65-.04-.06.54-.47,1.63-1.15.53-.37,1.23-.74,2.07-1.09.83-.39,1.78-.83,2.9-1.14,2.18-.81,4.92-1.23,7.97-1.46,3.06-.11,6.44.21,9.87,1.09,6.9,1.77,12.26,5.73,15.33,9.14,1.52,1.74,2.63,3.24,3.23,4.39.64,1.12.95,1.75.89,1.79Z"/>
      <path class="cls-12" d="M350.09,264.01c.07.36-7.74.83-16.11,5.15-8.43,4.22-13.4,10.27-13.65,10-.1-.08,1-1.68,3.23-3.88,2.22-2.2,5.65-4.91,9.93-7.09,4.28-2.17,8.49-3.35,11.57-3.85,3.09-.51,5.03-.45,5.04-.33Z"/>
      <path class="cls-12" d="M262.91,272.36c-.2.02-.3-1.97-1.29-4.92-.5-1.47-1.31-3.14-2.47-4.83-1.16-1.69-2.66-3.42-4.32-5.14-3.28-3.46-7.32-5.23-10.31-6.11-3-.9-4.95-1.21-4.92-1.39.02-.12,2-.08,5.13.64,3.1.69,7.45,2.46,10.89,6.09,1.69,1.76,3.2,3.55,4.37,5.34,1.17,1.79,1.95,3.59,2.37,5.15.43,1.56.58,2.86.63,3.75.04.9,0,1.39-.07,1.4Z"/>
      <path class="cls-12" d="M212.3,247.62c-.36.08-.79-7.73-5.31-15.96-4.4-8.3-10.74-12.9-10.48-13.15.07-.1,1.73.89,4.03,3,2.3,2.1,5.13,5.43,7.41,9.63,2.26,4.21,3.5,8.4,4.01,11.46.52,3.08.45,5.01.33,5.02Z"/>
      <path class="cls-7" d="M235.48,288.97c-.01-.13,1.78.13,4.7-1.11,2.93-1.15,6.9-3.5,11.49-6.95,9.19-6.88,21.01-17.91,33.57-31.35l-.03.03c3.42-4.34,7.15-8.71,11-13.16,1.86-2.12,3.69-4.22,5.5-6.28,1.86-2,3.48-4.2,5.66-5.92,2.13-1.77,4.69-2.71,6.95-3.8,2.29-1.12,4.54-2.21,6.73-3.28,8.74-4.34,16.61-8.29,23.31-11.41,6.69-3.14,12.21-5.48,16.1-6.89,1.95-.68,3.47-1.21,4.53-1.48,1.05-.29,1.6-.43,1.61-.39.01.04-.52.24-1.55.6-1.03.34-2.52.93-4.44,1.67-3.83,1.53-9.28,3.97-15.92,7.19-6.65,3.21-14.47,7.22-23.19,11.62-2.19,1.08-4.44,2.19-6.73,3.32-2.33,1.13-4.74,2.04-6.73,3.7-2.01,1.59-3.65,3.78-5.51,5.8-1.81,2.06-3.64,4.16-5.49,6.28-3.85,4.45-7.58,8.81-10.99,13.11l-.02.02h-.01c-12.65,13.46-24.58,24.41-33.95,31.19-4.67,3.39-8.74,5.68-11.77,6.74-.74.29-1.45.43-2.03.6-.61.09-1.12.18-1.53.22-.84,0-1.27-.03-1.27-.06Z"/>
      <path class="cls-3" d="M325.42,286.07c.93-.36,7.66-4.65,11.79,0,4.14,4.65,8.79,15.16,4.83,18.44-3.97,3.28-6.83,3.63-6.83,3.63l-9.79-22.07Z"/>
      <path class="cls-3" d="M166.84,240.75s6.73,3.33,16.08-.15c9.89-3.68,16.18-11.21,16.18-11.21l-6.77-6.87-25.49,18.23Z"/>
      <path class="cls-7" d="M260.2,191.73c-.21.22-2.15-1.29-4.33-3.36-2.18-2.07-3.79-3.93-3.58-4.15.21-.22,2.15,1.28,4.33,3.36,2.18,2.07,3.79,3.93,3.58,4.15Z"/>
      <path class="cls-7" d="M261.34,188.71c-.22.21-1.58-.89-3.03-2.45-1.45-1.56-2.45-2.99-2.23-3.19.22-.21,1.58.89,3.03,2.45,1.45,1.56,2.45,2.99,2.23,3.19Z"/>
      <path class="cls-7" d="M290.67,213.15c-.08.27-3.31-.63-6.63-3.01-3.34-2.35-5.25-5.1-5.03-5.27.24-.21,2.46,2.12,5.66,4.38,3.18,2.28,6.12,3.6,6,3.9Z"/>
      <path class="cls-7" d="M291.8,209.02c-.19.23-2.2-1.09-4.48-2.96-2.29-1.87-3.98-3.57-3.79-3.81s2.2,1.09,4.48,2.96c2.28,1.87,3.98,3.57,3.79,3.81Z"/>
      <path class="cls-7" d="M442.61,244.37c-.07.29-2.57-.06-5.58-.78-3.01-.73-5.4-1.55-5.33-1.85.07-.29,2.57.06,5.58.79,3.01.73,5.4,1.55,5.32,1.85Z"/>
      <path class="cls-7" d="M445.67,242.45c-.27.21-2.48-3.19-6.79-5.26-4.27-2.15-8.31-1.83-8.31-2.17-.02-.13.97-.4,2.61-.37,1.63.02,3.92.45,6.18,1.56,2.26,1.12,3.99,2.66,5.01,3.94,1.03,1.28,1.41,2.23,1.3,2.3Z"/>
      <path class="cls-2" d="M509.06,77.27c1.19,3.07,30.67,100.55,30.67,100.55,0,0,46.63-14.75,46.63-16.29s-30.29-104.76-30.29-104.76l-47.01,20.49Z"/>
      <path class="cls-12" d="M537.98,53.72c.86,1.34,44.09,129.34,44.09,129.34L912.37,26s-307.86.45-309.59,0-64.8,27.72-64.8,27.72Z"/>
    </g>
    <path class="cls-12" d="M260.73,623.38s-.09-.32-.2-.95c-.11-.68-.27-1.62-.47-2.82-.4-2.53-.98-6.17-1.71-10.84-1.45-9.47-3.53-23.09-6.1-39.91-5.05-33.75-12.02-80.3-19.72-131.71-7.58-51.45-14.44-98.02-19.41-131.78-2.43-16.83-4.39-30.47-5.76-39.95-.65-4.68-1.16-8.33-1.51-10.87-.16-1.21-.28-2.15-.37-2.83-.08-.64-.09-.97-.09-.97,0,0,.09.32.2.95.11.68.27,1.62.47,2.81.4,2.53.98,6.17,1.71,10.84,1.45,9.47,3.53,23.09,6.1,39.9,5.05,33.75,12.03,80.31,19.73,131.74,7.58,51.43,14.43,98,19.41,131.76,2.43,16.83,4.39,30.47,5.76,39.96.65,4.68,1.16,8.33,1.51,10.87.16,1.21.28,2.15.37,2.83.08.64.09.97.09.97Z"/>
  </g>
  <g>
    <g>
      <g>
        <g>
          <rect class="cls-9" x="666.67" y="656.36" width="37.39" height="14.08" transform="translate(1370.73 1326.8) rotate(180)"/>
          <rect class="cls-10" x="588.18" y="653.94" width="117.44" height="2.95" transform="translate(1293.8 1310.83) rotate(180)"/>
          <rect class="cls-10" x="588.18" y="669.81" width="116.89" height="2.95" transform="translate(1293.26 1342.58) rotate(180)"/>
          <polygon class="cls-10" points="666.67 654.64 666.49 672.2 588.18 672.2 588.18 654.64 666.67 654.64"/>
          <g>
            <path class="cls-12" d="M647.64,663.41c0,2.41,1.9,4.37,4.23,4.37s4.23-1.96,4.23-4.37-1.9-4.37-4.23-4.37-4.23,1.96-4.23,4.37Z"/>
            <path class="cls-2" d="M646.98,663.41c0-2.76,2.19-5,4.89-5s4.89,2.24,4.89,5-2.19,5-4.89,5-4.89-2.24-4.89-5ZM648.29,663.41c0,2.06,1.61,3.74,3.58,3.74s3.58-1.68,3.58-3.74-1.6-3.74-3.58-3.74-3.58,1.68-3.58,3.74Z"/>
          </g>
          <path class="cls-12" d="M669.48,666.99c0,.18,7.68.33,17.16.33s17.16-.15,17.16-.33-7.68-.33-17.16-.33-17.16.15-17.16.33Z"/>
          <path class="cls-12" d="M669.48,664.54c0,.18,7.68.33,17.16.33s17.16-.15,17.16-.33-7.68-.33-17.16-.33-17.16.15-17.16.33Z"/>
          <path class="cls-12" d="M669.48,662.08c0,.18,7.68.33,17.16.33s17.16-.15,17.16-.33-7.68-.33-17.16-.33-17.16.15-17.16.33Z"/>
          <path class="cls-12" d="M669.48,659.63c0,.18,7.68.33,17.16.33s17.16-.15,17.16-.33-7.68-.33-17.16-.33-17.16.15-17.16.33Z"/>
          <g>
            <rect class="cls-11" x="596.87" y="658.38" width="35.29" height="9.4" transform="translate(1229.02 1326.15) rotate(180)"/>
            <path class="cls-2" d="M626.66,666.82c.19,0,.34-1.68.34-3.74s-.15-3.74-.34-3.74-.34,1.68-.34,3.74.15,3.74.34,3.74Z"/>
            <path class="cls-2" d="M621.99,666.82c.19,0,.34-1.68.34-3.74s-.15-3.74-.34-3.74-.34,1.68-.34,3.74.15,3.74.34,3.74Z"/>
            <path class="cls-2" d="M617.33,666.82c.19,0,.34-1.68.34-3.74s-.15-3.74-.34-3.74-.34,1.68-.34,3.74.15,3.74.34,3.74Z"/>
            <path class="cls-2" d="M612.66,666.82c.19,0,.34-1.68.34-3.74s-.15-3.74-.34-3.74-.34,1.68-.34,3.74.15,3.74.34,3.74Z"/>
            <path class="cls-2" d="M607.99,666.82c.19,0,.34-1.68.34-3.74s-.15-3.74-.34-3.74-.34,1.68-.34,3.74.15,3.74.34,3.74Z"/>
            <path class="cls-2" d="M603.33,666.82c.19,0,.34-1.68.34-3.74s-.15-3.74-.34-3.74-.34,1.68-.34,3.74.15,3.74.34,3.74Z"/>
          </g>
          <path class="cls-12" d="M666.14,672.72c.19,0,.34-4.17.34-9.32s-.15-9.32-.34-9.32-.34,4.17-.34,9.32.15,9.32.34,9.32Z"/>
        </g>
        <g>
          <g>
            <polygon class="cls-6" points="592.16 626.55 592.16 621.97 692.53 622.17 698.33 622.17 698.33 626.62 692.53 626.62 692.53 654.08 584.13 654.08 584.13 626.55 592.16 626.55"/>
            <polygon class="cls-9" points="616.77 654.08 616.77 621.97 592.16 621.97 592.16 626.55 584.13 626.55 584.13 654.08 616.77 654.08"/>
            <path class="cls-2" d="M592.16,621.97c0,.18,23.57.33,52.63.33s52.63-.15,52.63-.33-23.56-.33-52.63-.33-52.63.15-52.63.33Z"/>
            <path class="cls-2" d="M584.94,636.39c0,.18,24,.33,53.59.33s53.6-.15,53.6-.33-23.99-.33-53.6-.33-53.59.15-53.59.33Z"/>
            <path class="cls-2" d="M584.13,646.23c0,.18,24.18.33,54,.33s54-.15,54-.33-24.17-.33-54-.33-54,.15-54,.33Z"/>
          </g>
          <path class="cls-2" d="M697.42,626.55c0-.18-23.57-.33-52.63-.33s-52.63.15-52.63.33,23.56.33,52.63.33,52.63-.15,52.63-.33Z"/>
        </g>
        <g>
          <rect class="cls-9" x="661.7" y="674.66" width="37.39" height="14.08" transform="translate(1360.8 1363.41) rotate(180)"/>
          <rect class="cls-5" x="583.21" y="672.25" width="117.44" height="2.95" transform="translate(1283.87 1347.44) rotate(180)"/>
          <rect class="cls-5" x="583.21" y="688.12" width="116.89" height="2.95" transform="translate(1283.32 1379.19) rotate(180)"/>
          <polygon class="cls-5" points="661.7 672.95 661.52 690.51 583.21 690.51 583.21 672.95 661.7 672.95"/>
          <g>
            <path class="cls-12" d="M642.67,681.71c0,2.41,1.9,4.37,4.23,4.37s4.23-1.96,4.23-4.37-1.9-4.37-4.23-4.37-4.23,1.96-4.23,4.37Z"/>
            <path class="cls-2" d="M642.01,681.71c0-2.76,2.19-5,4.89-5s4.89,2.24,4.89,5-2.19,5-4.89,5-4.89-2.24-4.89-5ZM643.33,681.71c0,2.06,1.6,3.74,3.58,3.74s3.58-1.68,3.58-3.74-1.6-3.74-3.58-3.74-3.58,1.68-3.58,3.74Z"/>
          </g>
          <path class="cls-12" d="M664.51,685.29c0,.18,7.68.33,17.16.33s17.16-.15,17.16-.33-7.68-.33-17.16-.33-17.16.15-17.16.33Z"/>
          <path class="cls-12" d="M664.51,682.84c0,.18,7.68.33,17.16.33s17.16-.15,17.16-.33-7.68-.33-17.16-.33-17.16.15-17.16.33Z"/>
          <path class="cls-12" d="M664.51,680.39c0,.18,7.68.33,17.16.33s17.16-.15,17.16-.33-7.68-.33-17.16-.33-17.16.15-17.16.33Z"/>
          <path class="cls-12" d="M664.51,677.93c0,.18,7.68.33,17.16.33s17.16-.15,17.16-.33-7.68-.33-17.16-.33-17.16.15-17.16.33Z"/>
          <g>
            <rect class="cls-11" x="591.9" y="676.68" width="35.29" height="9.4" transform="translate(1219.09 1362.76) rotate(180)"/>
            <path class="cls-2" d="M621.69,685.12c.19,0,.34-1.68.34-3.74s-.15-3.74-.34-3.74-.34,1.68-.34,3.74.15,3.74.34,3.74Z"/>
            <path class="cls-2" d="M617.02,685.12c.19,0,.34-1.68.34-3.74s-.15-3.74-.34-3.74-.34,1.68-.34,3.74.15,3.74.34,3.74Z"/>
            <path class="cls-2" d="M612.36,685.12c.19,0,.34-1.68.34-3.74s-.15-3.74-.34-3.74-.34,1.68-.34,3.74.15,3.74.34,3.74Z"/>
            <path class="cls-2" d="M607.69,685.12c.19,0,.34-1.68.34-3.74s-.15-3.74-.34-3.74-.34,1.68-.34,3.74.15,3.74.34,3.74Z"/>
            <path class="cls-2" d="M603.03,685.12c.19,0,.34-1.68.34-3.74s-.15-3.74-.34-3.74-.34,1.68-.34,3.74.15,3.74.34,3.74Z"/>
            <path class="cls-2" d="M598.36,685.12c.19,0,.34-1.68.34-3.74s-.15-3.74-.34-3.74-.34,1.68-.34,3.74.15,3.74.34,3.74Z"/>
          </g>
          <path class="cls-12" d="M661.17,691.03c.19,0,.34-4.17.34-9.32s-.15-9.32-.34-9.32-.34,4.17-.34,9.32.15,9.32.34,9.32Z"/>
        </g>
      </g>
      <g>
        <rect class="cls-2" x="682.91" y="693.78" width="13.79" height="269.85"/>
        <path class="cls-12" d="M682.91,963.63s-.03-.44-.04-1.34c0-.94-.02-2.27-.04-4.01-.02-3.58-.04-8.8-.08-15.53-.04-13.57-.1-33.17-.16-57.45-.06-48.74-.14-116.26-.23-191.52v-.55s.55,0,.55,0c4.37,0,9.06,0,13.78,0h.56v.55c0,127.57-.16,235.45-.39,269.85v.16s-.16,0-.16,0c-4.7-.04-8.15-.07-10.47-.09-1.1-.02-1.93-.03-2.52-.04-.55-.01-.8-.03-.8-.03,0,0,.29-.02.86-.03.6,0,1.43-.02,2.55-.04,2.3-.02,5.72-.05,10.38-.09l-.16.16c-.22-34.4-.39-142.27-.39-269.85l.55.55h-.01c-4.72,0-9.41,0-13.78,0l.55-.55c-.09,75.1-.17,142.48-.23,191.12-.07,24.33-.13,43.98-.16,57.58-.03,6.78-.06,12.04-.08,15.65-.02,1.77-.03,3.13-.04,4.08-.01.92-.04,1.42-.04,1.42Z"/>
      </g>
      <g>
        <rect class="cls-2" x="345.59" y="695.68" width="13.79" height="268.45"/>
        <path class="cls-12" d="M345.59,964.13s-.03-.44-.04-1.33c0-.93-.02-2.26-.04-3.99-.02-3.56-.04-8.76-.08-15.44-.04-13.5-.1-33-.16-57.15-.06-48.49-.14-115.66-.23-190.53v-.55s.55,0,.55,0c4.37,0,9.06,0,13.78,0h.56v.55c0,126.86-.16,234.15-.39,268.45v.16s-.16,0-.16,0c-4.7-.04-8.15-.07-10.47-.09-1.1-.02-1.93-.03-2.52-.04-.55-.01-.8-.03-.8-.03,0,0,.29-.02.86-.03.6,0,1.44-.02,2.55-.04,2.3-.02,5.72-.05,10.38-.09l-.16.16c-.22-34.3-.39-141.58-.39-268.45l.55.55h-.01c-4.72,0-9.41,0-13.78,0l.55-.55c-.09,74.71-.17,141.74-.23,190.13-.07,24.21-.13,43.75-.16,57.28-.03,6.74-.06,11.98-.08,15.57-.02,1.76-.03,3.11-.04,4.06-.01.92-.04,1.41-.04,1.41Z"/>
      </g>
      <polygon class="cls-8" points="330.73 706.94 735.88 707.4 735.88 691.12 330.73 690.66 330.73 706.94"/>
    </g>
    <path class="cls-12" d="M337.97,707.41c0,.2,73.28.36,163.66.36s163.68-.16,163.68-.36-73.27-.36-163.68-.36-163.66.16-163.66.36Z"/>
    <path class="cls-2" d="M418.27,690.91h0c0-3.3,2.67-5.97,5.97-5.97h81.14l31.8-88.54h0c4.18,1.69,6.29,6.39,4.76,10.64l-30.23,84.08-93.45-.21Z"/>
  </g>
</svg>