<?xml version="1.0" encoding="UTF-8"?>
<svg id="Layer_2" data-name="Layer 2" xmlns="http://www.w3.org/2000/svg" viewBox="0 0 1000 1000">
  <defs>
    <style>
      .cls-1 {
        fill: #ff9a6c;
      }

      .cls-1, .cls-2, .cls-3, .cls-4, .cls-5, .cls-6, .cls-7, .cls-8, .cls-9, .cls-10, .cls-11, .cls-12 {
        stroke-width: 0px;
      }

      .cls-2 {
        fill: #000;
      }

      .cls-3 {
        fill: #e0e0e0;
      }

      .cls-4 {
        fill: #455a64;
      }

      .cls-5 {
        fill: #f5f5f5;
      }

      .cls-6 {
        fill: #09f;
      }

      .cls-7 {
        fill: #ebebeb;
      }

      .cls-8 {
        fill: none;
      }

      .cls-13 {
        opacity: .3;
      }

      .cls-14 {
        opacity: .6;
      }

      .cls-9 {
        fill: #263238;
      }

      .cls-10 {
        fill: #ffbf9d;
      }

      .cls-11 {
        fill: #fafafa;
      }

      .cls-12 {
        fill: #fff;
      }

      .cls-15 {
        opacity: .2;
      }
    </style>
  </defs>
  <g id="freepik--background-complete--inject-12">
    <rect class="cls-7" x="104.13" y="685.73" width="156.22" height="120.49"/>
    <path class="cls-3" d="M221.21,805.37c-.17,0-.3-26.86-.3-59.97s.14-59.98.3-59.98.32,26.84.32,59.98-.14,59.97-.32,59.97Z"/>
    <rect class="cls-11" x="235.13" y="778.8" width="11.98" height="13.55"/>
    <rect class="cls-3" x="151.79" y="686.05" width="17.74" height="25.72"/>
    <rect class="cls-3" x="151.79" y="780.17" width="17.74" height="25.72"/>
    <rect class="cls-5" x="711.68" y="194.92" width="54.59" height="14.44"/>
    <path class="cls-3" d="M743.17,224.58c0-.09,0-.17,0-.26v-3.62c0-2.49,0-6.08-.1-10.59l.17.17-54.59.11.28-.28h0v14.47l-.28-.28,38.9.12,11.48.08h3.92-3.78l-11.43.08-39.15.33h-.28v-14.77h0c.55-.56.15-.17.28-.29l54.59.11h.17v.18l-.08,10.64v3.47c-.02.11-.05.22-.1.32Z"/>
    <rect class="cls-5" x="809.76" y="717.79" width="54.59" height="14.44"/>
    <path class="cls-3" d="M841.26,747.48c0-.09,0-.17,0-.26v-3.59c0-2.49,0-6.08-.1-10.59l.17.17-54.59.11.28-.28h0v14.44l-.28-.28,38.9.12,11.5.08h3.91-3.78l-11.43.08-39.1.12h-.28v-14.59h0c.55-.56.15-.17.28-.29l54.59.11h.18v.18c0,4.55-.08,8.18-.1,10.7v3.47c-.14.19-.14.29-.15.29Z"/>
    <circle class="cls-5" cx="106.79" cy="272.08" r="54.06"/>
    <circle class="cls-12" cx="107.09" cy="271.98" r="49.2"/>
    <path class="cls-3" d="M129.64,272.86c-.58.09-1.16.13-1.75.12l-4.79.1c-4.13,0-9.71.08-16.09.1h-.32v-3.51c0-7.12,0-13.57.1-18.25,0-2.26,0-4.13.1-5.5-.01-.68.03-1.36.12-2.04.09.67.13,1.35.12,2.04,0,1.38,0,3.27.1,5.5,0,4.68.1,11.12.1,18.25v3.19l-.32-.32c6.38,0,12.03,0,16.09.11l4.79.1c.58-.02,1.17.02,1.75.11Z"/>
    <path class="cls-3" d="M107.17,230.23c.32,1.35.42,2.74.32,4.13.1,1.38,0,2.77-.32,4.13-.31-1.35-.42-2.74-.32-4.13-.11-1.38,0-2.77.32-4.13Z"/>
    <path class="cls-3" d="M129.58,236.86c-.71,1.17-1.61,2.22-2.65,3.11-.89,1.04-1.94,1.94-3.11,2.65.72-1.16,1.62-2.2,2.65-3.09.89-1.04,1.94-1.94,3.11-2.67Z"/>
    <path class="cls-3" d="M142.7,251.19c-1.04.88-2.18,1.64-3.4,2.26-1.1.8-2.31,1.47-3.58,1.97.92-1.03,2.02-1.88,3.25-2.5,1.12-.8,2.39-1.39,3.73-1.72Z"/>
    <path class="cls-3" d="M150.38,272.43c-1.86.32-3.75.42-5.64.32-1.88.11-3.77,0-5.62-.32,1.86-.32,3.74-.42,5.62-.32,1.89-.11,3.78,0,5.64.32Z"/>
    <path class="cls-3" d="M72.23,271.68c-1.75.33-3.54.44-5.32.33-1.78.11-3.57,0-5.32-.33,1.76-.31,3.54-.42,5.32-.32,1.78-.1,3.57,0,5.32.32Z"/>
    <path class="cls-3" d="M77.75,287.51c-1.2,1.37-2.55,2.59-4.03,3.64-1.35,1.22-2.83,2.28-4.41,3.16,1.19-1.37,2.54-2.6,4.02-3.66,1.35-1.22,2.83-2.28,4.43-3.15Z"/>
    <path class="cls-3" d="M91.35,299.74c-.79,1.65-1.71,3.24-2.75,4.74-.85,1.62-1.82,3.17-2.9,4.63.53-1.77,1.33-3.44,2.37-4.96.86-1.63,1.97-3.12,3.29-4.41Z"/>
    <path class="cls-3" d="M107.17,315.52c-.32-1.86-.42-3.75-.32-5.64-.11-1.88,0-3.77.32-5.62.32,1.86.42,3.74.32,5.62.11,1.89,0,3.78-.32,5.64Z"/>
    <path class="cls-3" d="M131.47,308.01c-3.35-1.76-6.24-4.28-8.44-7.36,1.46,1.16,2.87,2.4,4.21,3.7,1.47,1.15,2.89,2.37,4.24,3.66Z"/>
    <path class="cls-3" d="M142.87,295.73c-1.38-.93-2.64-2.03-3.74-3.27-1.24-1.1-2.34-2.36-3.27-3.74,1.38.93,2.63,2.04,3.73,3.29,1.25,1.1,2.35,2.35,3.29,3.73Z"/>
    <path class="cls-3" d="M77.23,256.55c-1.23-.78-2.33-1.73-3.29-2.83-1.1-.96-2.06-2.07-2.85-3.3,1.23.79,2.33,1.75,3.29,2.85,1.11.95,2.06,2.06,2.85,3.29Z"/>
    <path class="cls-3" d="M91.35,241.7c-1.21-.75-2.3-1.68-3.23-2.75-1.07-.94-1.99-2.03-2.75-3.23,1.21.76,2.3,1.68,3.25,2.75,1.07.93,1.99,2.02,2.74,3.23Z"/>
    <path class="cls-7" d="M63.55,272.01c0-25.89,20.17-47.29,46.01-48.83-.96,0-1.93-.08-2.92-.08-27.01,0-48.91,21.9-48.91,48.91s21.9,48.91,48.91,48.91c.99,0,1.95,0,2.92-.1-25.83-1.54-46-22.94-46.01-48.82Z"/>
    <path class="cls-3" d="M57.99,268.76v4.85c0,.63.11,1.38.17,2.08s.15,1.55.22,2.41.32,1.76.47,2.75c.84,4.67,2.39,9.19,4.58,13.39,2.86,5.59,6.77,10.58,11.52,14.69l2.01,1.72c.72.54,1.47,1.03,2.21,1.57s1.47,1.09,2.3,1.53l2.45,1.38,1.25.7,1.38.58,2.75,1.18c.91.37,1.87.63,2.75.96.95.34,1.93.63,2.92.87,2.02.51,4.07.88,6.13,1.11,1.06.11,2.1.29,3.18.33h4.88l1.65-.15c1.1-.1,2.21-.15,3.33-.32,2.24-.34,4.45-.84,6.63-1.47l1.66-.5c.28-.08.56-.15.83-.25l.81-.33,3.26-1.38c1.07-.48,2.1-1.07,3.16-1.61.52-.29,1.07-.52,1.57-.85l1.51-.99c2.05-1.31,4-2.77,5.84-4.35l2.67-2.57.66-.65.62-.7,1.21-1.38,1.22-1.38,1.09-1.54,1.09-1.55.55-.78c.17-.28.32-.55.47-.83.63-1.11,1.27-2.21,1.88-3.34l1.57-3.52c1.94-4.87,3.14-10.01,3.56-15.24.28-5.24-.23-10.49-1.51-15.58-.36-1.24-.72-2.48-1.09-3.7s-.95-2.38-1.38-3.56l-.36-.88-.44-.84-.88-1.69-.87-1.66-1.03-1.58-1.14-1.53-.51-.78-.59-.73-2.3-2.89c-1.63-1.81-3.37-3.5-5.23-5.07l-1.38-1.17c-.45-.4-.96-.7-1.38-1.06-.98-.67-1.93-1.38-2.93-2.02l-3.14-1.77-.76-.43-.8-.36-1.58-.7c-2.07-.91-4.21-1.7-6.38-2.34-1.09-.29-2.17-.5-3.26-.74l-1.61-.36c-.54-.11-1.09-.14-1.62-.22l-3.25-.37c-1.06-.1-2.13,0-3.19-.1-2.08-.03-4.16.07-6.23.32-1.01.1-2.01.26-3,.48-.98.19-1.97.33-2.93.58l-2.75.83-1.38.4-1.38.54-2.63,1.05c-.87.33-1.65.83-2.48,1.22s-1.61.83-2.39,1.27l-2.21,1.38c-5.25,3.46-9.78,7.89-13.35,13.06-2.72,3.88-4.84,8.16-6.28,12.68-.32.86-.59,1.74-.81,2.63l-.54,2.37c-.15.74-.33,1.38-.44,2.04s-.15,1.2-.22,1.71c-.12,1.02-.22,1.79-.29,2.32s-.12.8-.12.8v-.8c0-.52.14-1.38.23-2.34,0-.51.12-1.09.19-1.72s.28-1.29.43-2.04.32-1.53.51-2.38c.21-.9.48-1.79.8-2.65,1.4-4.56,3.51-8.87,6.23-12.79,3.57-5.23,8.12-9.71,13.39-13.2l2.23-1.46c.77-.45,1.6-.85,2.41-1.28.81-.46,1.64-.87,2.49-1.24l2.64-1.07,1.38-.54,1.38-.41,2.83-.84c.96-.25,1.97-.39,2.96-.59,1-.23,2.02-.39,3.04-.5,2.09-.25,4.18-.36,6.28-.33,1.06,0,2.15,0,3.22.08l3.26.39c.54.07,1.1.1,1.64.21l1.64.36c1.09.25,2.19.45,3.27.76,2.2.64,4.36,1.43,6.46,2.35l1.6.7.81.36.76.44,3.09,1.75c1,.63,1.97,1.38,2.96,2.02.48.36,1,.67,1.46,1.07l1.38,1.18c1.88,1.58,3.65,3.29,5.29,5.12l2.32,2.93.59.74.52.78,1.03,1.58,1.03,1.6.89,1.69.88,1.71.45.85.36.88,1.46,3.6c.36,1.24.73,2.49,1.1,3.74,1.29,5.14,1.8,10.45,1.53,15.75-.41,5.29-1.62,10.49-3.58,15.42l-1.58,3.56-1.91,3.37-.48.84-.55.78-1.1,1.57-1.1,1.57-1.24,1.38-1.24,1.38-.61.72-.69.66-2.75,2.59c-1.87,1.59-3.85,3.06-5.93,4.39l-1.53.99c-.5.33-1.06.58-1.58.87-1.07.54-2.12,1.13-3.2,1.62l-3.29,1.38-.81.33-.85.25-1.66.5c-2.2.64-4.44,1.13-6.71,1.49-1.13.15-2.26.21-3.36.32l-1.66.14h-4.94c-1.07,0-2.15-.23-3.2-.34-2.09-.24-4.15-.62-6.19-1.14-1-.24-1.98-.53-2.94-.88-.95-.33-1.93-.61-2.85-.98l-2.75-1.21-1.38-.59-1.25-.7-2.48-1.38c-.83-.44-1.54-1.05-2.31-1.55s-1.5-1.05-2.21-1.58l-2.02-1.73c-4.77-4.16-8.69-9.2-11.55-14.85-2.19-4.24-3.71-8.79-4.51-13.49-.2-.91-.35-1.83-.44-2.75,0-.87-.14-1.68-.19-2.42s-.14-1.44-.15-2.09,0-1.21,0-1.72v-2.35c0-.55.36-.72.36-.72Z"/>
    <path class="cls-3" d="M975.94,297.64c0-.09,0-.17,0-.26v-3.59c0-2.49,0-6.08-.1-10.59l.17.17-54.59.11.28-.28h0v14.41l-.28-.28,38.9.12,11.48.08h3.92-3.82l-11.45.26-39.1.12h-.28v-14.7h0l.28-.29,54.59.11h.17v.18l-.08,10.7v3.45c-.02.09-.05.18-.08.26Z"/>
    <path class="cls-3" d="M983.34,283.2v-3.95c0-2.53-.07-6.11-.11-10.51l.19.21-32.8.08.28-.28h0v14.43l-.26-.28,23.46.14h9.38c-.2.01-.39.01-.59,0h-8.57l-23.64.12h-.26v-14.4h0c-.07,0,.52-.54.28-.29l32.8.08h.21v.19c0,4.46-.08,8.07-.11,10.63v2.86c-.06.32-.15.64-.25.95Z"/>
    <path class="cls-3" d="M942.57,583.84v-3.84c0-2.5,0-6.08-.1-10.6l.17.17-54.58.11.28-.28h0v14.44l-.28-.26,38.92.12,11.48.07h4.19-4.07l-11.43.07-39.1.12h-.26v-14.54h0l.29-.28,54.58.11h.18v.17c0,4.57-.07,8.18-.1,10.7v3.47c0,.19-.18.25-.18.25Z"/>
    <path class="cls-3" d="M949.95,569.4c-.01-.09-.01-.18,0-.28v-3.66c0-2.53,0-6.11-.11-10.51l.21.19-32.8.08c-.26.25.33-.34.28-.28h0v14.41l-.28-.26,23.47.12,6.88.07h2.5c-.2.02-.4.02-.61,0h-1.79l-6.77.07-23.65.12h-.26v-14.54h0l.29-.28,32.8.07h.19v.21c0,4.44-.08,8.07-.11,10.63v2.85c-.06.33-.15.65-.25.96Z"/>
    <rect class="cls-3" x="780.21" y="233.5" width="149.15" height="235.71"/>
    <rect class="cls-5" x="784.22" y="237.93" width="140.61" height="227.41"/>
    <rect class="cls-12" x="854.53" y="251.17" width="56.06" height="87.01"/>
    <path class="cls-3" d="M885.54,258.86c0,1.15-.94,2.09-2.09,2.09-1.15,0-2.09-.94-2.09-2.09,0-1.15.93-2.08,2.08-2.09,1.15,0,2.1.92,2.1,2.08,0,0,0,0,0,.01Z"/>
    <rect class="cls-12" x="798.03" y="362.38" width="56.06" height="87.01"/>
    <path class="cls-3" d="M829.04,370.08c0,1.15-.95,2.08-2.1,2.08s-2.08-.95-2.08-2.1c0-1.15.94-2.08,2.09-2.08,1.15,0,2.09.94,2.09,2.09,0,0,0,0,0,.01Z"/>
    <rect class="cls-12" x="797.27" y="251.17" width="47.88" height="67.93"/>
    <path class="cls-3" d="M822.93,257.35c0,.96-.78,1.75-1.75,1.75-.96,0-1.75-.78-1.75-1.75,0-.96.78-1.75,1.75-1.75,0,0,0,0,.01,0,.96,0,1.73.78,1.73,1.73,0,0,0,0,0,.01Z"/>
    <rect class="cls-12" x="862.68" y="366.32" width="51.54" height="28.55" transform="translate(-37.08 102.05) rotate(-6.44)"/>
    <path class="cls-3" d="M889.21,371.86c0,.98-.79,1.77-1.77,1.77s-1.77-.79-1.77-1.77.79-1.77,1.77-1.77h0c.97,0,1.77.77,1.77,1.75,0,0,0,.02,0,.03Z"/>
    <path class="cls-3" d="M846.61,382.23c0,.23-8.8.43-19.66.43s-19.66-.19-19.66-.43,8.8-.41,19.66-.41,19.66.19,19.66.41Z"/>
    <path class="cls-3" d="M846.61,388.46c0,.23-8.8.41-19.66.41s-19.66-.18-19.66-.41,8.8-.41,19.66-.41,19.66.18,19.66.41Z"/>
    <path class="cls-3" d="M846.61,394.68c0,.22-8.8.41-19.66.41s-19.66-.19-19.66-.41,8.8-.43,19.66-.43,19.66.19,19.66.43Z"/>
    <path class="cls-3" d="M846.61,400.94c0,.23-8.8.43-19.66.43s-19.66-.19-19.66-.43,8.8-.41,19.66-.41,19.66.14,19.66.41Z"/>
    <path class="cls-3" d="M846.61,407.13c0,.23-8.8.41-19.66.41s-19.66-.18-19.66-.41,8.8-.41,19.66-.41,19.66.18,19.66.41Z"/>
    <path class="cls-3" d="M846.61,413.32c0,.22-8.8.41-19.66.41s-19.66-.19-19.66-.41,8.8-.43,19.66-.43,19.66.23,19.66.43Z"/>
    <path class="cls-3" d="M846.61,419.57c0,.23-8.8.43-19.66.43s-19.66-.19-19.66-.43,8.8-.41,19.66-.41,19.66.18,19.66.41Z"/>
    <path class="cls-3" d="M907.64,375.56c0,.23-8.66,1.65-19.4,3.16s-19.5,2.57-19.54,2.34,8.66-1.64,19.42-3.16,19.5-2.56,19.53-2.34Z"/>
    <path class="cls-3" d="M908.43,379.46c0,.22-8.66,1.64-19.42,3.15s-19.49,2.57-19.53,2.34,8.66-1.64,19.42-3.16,19.5-2.56,19.53-2.32Z"/>
    <path class="cls-3" d="M909.14,383.06c0,.23-8.66,1.65-19.42,3.16-10.75,1.51-19.5,2.56-19.53,2.34s8.66-1.65,19.42-3.16,19.49-2.59,19.53-2.34Z"/>
    <path class="cls-3" d="M905.67,269.37c0,.23-9.96.43-22.22.43s-22.21-.19-22.21-.43,9.94-.44,22.19-.44,22.24.22,22.24.44Z"/>
    <path class="cls-3" d="M905.67,273.05c0,.22-9.96.41-22.22.41s-22.21-.19-22.21-.41,9.94-.43,22.21-.43,22.22.22,22.22.43Z"/>
    <path class="cls-3" d="M905.67,276.78c0,.22-9.96.41-22.22.41s-22.21-.19-22.21-.41,9.94-.43,22.21-.43,22.22.19,22.22.43Z"/>
    <path class="cls-3" d="M905.67,280.48c0,.23-9.96.41-22.22.41s-22.21-.18-22.21-.41,9.94-.43,22.21-.43,22.22.19,22.22.43Z"/>
    <path class="cls-3" d="M905.67,284.18c0,.23-9.96.41-22.22.41s-22.21-.18-22.21-.41,9.94-.41,22.21-.41,22.22.18,22.22.41Z"/>
    <path class="cls-3" d="M905.67,287.88c0,.23-9.96.41-22.22.41s-22.21-.18-22.21-.41,9.94-.41,22.21-.41,22.22.18,22.22.41Z"/>
    <path class="cls-3" d="M905.67,291.58c0,.23-9.96.43-22.22.43s-22.21-.19-22.21-.43,9.94-.41,22.21-.41,22.22.18,22.22.41Z"/>
    <path class="cls-3" d="M905.67,302.56c0,.23-9.96.41-22.22.41s-22.21-.18-22.21-.41,9.94-.41,22.21-.41,22.22.18,22.22.41Z"/>
    <path class="cls-3" d="M905.98,306.47c0,.23-9.94.43-22.21.43s-22.21-.19-22.21-.43,9.94-.41,22.21-.41,22.21.18,22.21.41Z"/>
    <path class="cls-3" d="M906.29,310.37c0,.23-9.94.43-22.21.43s-22.22-.19-22.22-.43,9.94-.41,22.22-.41,22.21.22,22.21.41Z"/>
    <path class="cls-3" d="M906.61,314.31c0,.23-9.96.41-22.22.41s-22.21-.18-22.21-.41,9.94-.43,22.21-.43,22.22.18,22.22.43Z"/>
    <path class="cls-3" d="M906.91,318.2c0,.23-9.94.41-22.21.41s-22.21-.18-22.21-.41,9.94-.41,22.21-.41,22.21.18,22.21.41Z"/>
    <path class="cls-3" d="M907.23,322.1c0,.23-9.94.43-22.21.43s-22.22-.19-22.22-.43,9.96-.41,22.22-.41,22.21.19,22.21.41Z"/>
    <rect class="cls-5" x="84.25" y="402" width="54.59" height="14.44"/>
    <path class="cls-3" d="M115.76,431.65v-3.84c0-2.5,0-6.08-.1-10.6l.18.17-54.59.11.28-.28h0v14.41l-.26-.26,38.9.12,11.48.07h4.21-4.18l-11.41.07-39.1.12h-.28v-14.69h0l.29-.28,54.59.11h.17v.17l-.1,10.7v3.47c0,.15-.03.29-.08.43Z"/>
    <path class="cls-3" d="M292.32,217.14v-3.85c0-2.49,0-6.08-.1-10.6l.17.18-54.65.06c.12-.12-.29.28.28-.29h0v14.43l-.28-.28,38.92.12,11.48.07h3.92c.09-.01.18-.01.28,0h-15.5l-39.1.12h-.26v-14.38h0l.29-.28,54.58.11h.18v.17c0,4.57-.07,8.25-.1,10.7v3.47c0,.19-.1.26-.11.26Z"/>
    <path class="cls-3" d="M299.73,202.69c-.01-.09-.01-.18,0-.28v-3.66c0-2.53-.07-6.11-.11-10.51l.21.21-32.8.07c-.26.25.33-.33.28-.28h0v14.41l-.28-.26,23.47.12,6.88.08h2.5c-.2.02-.4.02-.61,0h-8.55l-23.65.14h-.26v-14.47h0l.29-.28,32.8.08h.19v.19c0,4.46-.08,8.07-.11,10.63v2.85c-.06.32-.15.63-.25.94Z"/>
    <path class="cls-3" d="M121.83,551.9c-.01-.09-.01-.17,0-.26v-3.59l-.1-10.59.18.17-54.59.11c.12-.12-.29.28.28-.28h0v14.44l-.26-.28,38.9.12,11.48.08h3.92-3.82l-11.41.08-39.16.29h-.28v-14.71h0l.29-.29,54.59.11h.17v.18c0,4.55,0,8.25-.1,10.7v3.45c0,.18-.08.26-.08.26Z"/>
    <path class="cls-3" d="M129.23,537.47c0-.09,0-.18,0-.28v-3.67c0-2.53,0-6.11-.11-10.51l.21.21-32.89.11.28-.28h0v14.43l-.26-.28,23.46.14,6.88.07h2.5-2.38l-6.78.08-23.64.12h-.28v-14.69h0l.29-.29,32.8.08h.21v.19c0,4.46-.08,8.07-.11,10.63v2.86c-.03.36-.09.71-.17,1.06Z"/>
  </g>
  <g id="freepik--Floor--inject-12">
    <path class="cls-9" d="M972.25,808.58c0,.19-214.01.36-477.95.36s-478-.17-478-.36,213.97-.36,478-.36,477.95.15,477.95.36Z"/>
  </g>
  <g id="freepik--Plant--inject-12">
    <path class="cls-4" d="M148.6,571.87c-12.38,6.39-21.8,17.4-28.6,29.51-6.81,12.12-11.18,25.4-15.51,38.59l-3.81,68.04c14.36-24.41,25.87-53.11,28.99-81.26l-9.63-.85c6.41-.98,11.79-5.61,15.13-11.11s5.18-11.85,6.88-18.1l-11.65,1.73c9.26-6.18,15.78-15.69,18.21-26.55Z"/>
    <g class="cls-13">
      <path class="cls-2" d="M148.6,571.87c-12.38,6.39-21.8,17.4-28.6,29.51-6.81,12.12-11.18,25.4-15.51,38.59l-3.81,68.04c14.36-24.41,25.87-53.11,28.99-81.26l-9.63-.85c6.41-.98,11.79-5.61,15.13-11.11s5.18-11.85,6.88-18.1l-11.65,1.73c9.26-6.18,15.78-15.69,18.21-26.55Z"/>
    </g>
    <path class="cls-4" d="M98.56,723.96s-31.15-37.28-30.79-72.88h12.58s-13.67-8.99-12.58-14.03,1.38-24.09,1.38-24.09l11.51,2.89s-8.62-4.32-9.71-11.15,2.52-38.5,2.52-38.5c0,0,14.03,14.74,18.33,29.84,4.3,15.1,15.65,32.71,12.38,78.73-3.27,46.01-5.61,49.2-5.61,49.2Z"/>
    <path class="cls-4" d="M114.35,727.48s33.75-22.48,41.25-51.18l-10.11-2.75s12.95-4.24,13.19-8.51,4.13-19.68,4.13-19.68l-9.89-.21s7.88-1.58,10.24-6.88,6.39-31.48,6.39-31.48c0,0-14.49,8.77-21.27,19.97s-19.8,22.92-27.15,60.66-6.79,40.06-6.79,40.06Z"/>
    <path class="cls-9" d="M82.03,598.76s0,.12.12.39l.28,1.14.99,4.43c.44,1.91.95,4.26,1.5,7.01s1.21,5.86,1.84,9.32c1.38,6.88,2.75,15.13,4.13,24.37s2.82,19.33,4.13,30.01,2.16,20.87,2.89,30.16,1.2,17.66,1.47,24.75c.17,3.52.25,6.7.33,9.5s.14,5.2.15,7.16,0,3.45,0,4.54v1.17c.01.14.01.28,0,.41-.02-.14-.02-.28,0-.41v-1.17c0-1.09-.1-2.6-.17-4.52s-.15-4.37-.28-7.16-.23-5.98-.44-9.49c-.33-7.03-.89-15.39-1.62-24.66s-1.87-19.53-3.04-30.2-2.63-20.79-4-29.99-2.75-17.46-4.04-24.38c-.61-3.47-1.22-6.59-1.75-9.34s-.98-5.1-1.38-7.03-.66-3.38-.88-4.46l-.21-1.16c-.03-.13-.04-.27-.03-.4Z"/>
    <path class="cls-4" d="M94.24,746.79s-28.51-32.32-37.36-51.9l6.68-2.85c-4.84.8-9.8-1.28-13.56-4.44-3.6-3.34-6.7-7.19-9.21-11.41l8.8-1.5c-8.09-2.3-14.99-7.64-19.25-14.89,10.4,1.71,19.79,7.41,27.5,14.55,6.15,5.91,11.73,12.38,16.68,19.32,2.49,3.34,4.66,6.91,6.48,10.66,4.85,9.9,13.26,30.58,13.24,42.46Z"/>
    <path class="cls-9" d="M155.99,625.67c-.02.12-.07.23-.12.33l-.44.94c-.41.88-.99,2.08-1.72,3.6-1.53,3.11-3.69,7.62-6.3,13.23-5.17,11.21-12.05,26.86-18.92,44.46s-12.23,33.84-15.88,45.65c-1.84,5.91-3.29,10.7-4.25,14.03-.48,1.62-.87,2.89-1.14,3.82l-.32.99c-.03.11-.08.23-.14.33-.02-.12-.02-.24,0-.36l.25-1c.23-.94.58-2.23,1-3.85.89-3.36,2.26-8.17,4.03-14.11,3.55-11.85,8.91-28.12,15.72-45.75s13.75-33.26,19.16-44.43c2.75-5.58,4.91-10.07,6.5-13.13.78-1.5,1.38-2.68,1.84-3.53l.5-.92c.23-.19.23-.3.23-.29Z"/>
    <path class="cls-9" d="M96.65,760.65c-.19-.76-.34-1.53-.44-2.31-.22-1.49-.59-3.64-1.13-6.28-1.38-6.88-3.32-13.64-5.78-20.21-2.47-6.56-5.47-12.91-8.95-18.99-1.38-2.34-2.49-4.19-3.31-5.5-.44-.65-.84-1.32-1.2-2.02.51.59.97,1.21,1.38,1.87.89,1.22,2.1,3.05,3.51,5.36,3.66,6.05,6.76,12.42,9.25,19.03,2.49,6.6,4.37,13.42,5.61,20.37.47,2.67.77,4.84.91,6.34.12.78.18,1.56.15,2.35Z"/>
    <rect class="cls-6" x="71.88" y="753.05" width="62.39" height="12.72"/>
    <polygon class="cls-6" points="77.82 765.77 84.58 808.58 122.27 808.58 128.57 765.77 77.82 765.77"/>
    <path class="cls-9" d="M130.44,765.77c0,.19-11.8.36-26.35.36s-26.36-.17-26.36-.36,11.8-.36,26.36-.36,26.35.17,26.35.36Z"/>
  </g>
  <g id="freepik--Shelves--inject-12">
    <rect class="cls-6" x="584.63" y="460.44" width="112.31" height="86.62"/>
    <rect class="cls-11" x="594.15" y="527.36" width="8.61" height="9.74"/>
    <rect class="cls-7" x="649.93" y="460.68" width="12.76" height="18.48"/>
    <rect class="cls-7" x="649.93" y="528.33" width="12.76" height="18.48"/>
    <path class="cls-9" d="M612.67,547.67c-.21,0-.37-19.05-.37-42.55s.17-42.55.37-42.55.36,19.05.36,42.55-.17,42.55-.36,42.55Z"/>
    <rect class="cls-9" x="495.26" y="223.48" width="5.51" height="295.11"/>
    <rect class="cls-9" x="273.96" y="223.48" width="5.51" height="303.81"/>
    <rect class="cls-9" x="709.19" y="223.48" width="5.51" height="315.28"/>
    <rect class="cls-9" x="275.42" y="223.48" width="434.61" height="5.51"/>
    <rect class="cls-9" x="277.95" y="327.85" width="434.61" height="5.51"/>
    <rect class="cls-9" x="275.42" y="432.23" width="434.61" height="5.51"/>
    <rect class="cls-6" x="280.29" y="273.15" width="7.05" height="54.7"/>
    <rect class="cls-6" x="290.41" y="273.17" width="7.05" height="54.7" transform="translate(-35.76 39.73) rotate(-7.29)"/>
    <rect class="cls-6" x="300.87" y="322.54" width="54.7" height="5.31"/>
    <rect class="cls-6" x="306.4" y="311.82" width="54.7" height="5.31"/>
    <rect class="cls-3" x="311.71" y="306.37" width="54.7" height="5.31"/>
    <rect class="cls-4" x="300.87" y="317.25" width="76.36" height="5.31"/>
    <rect class="cls-4" x="381.59" y="345.61" width="112.31" height="86.62"/>
    <rect class="cls-11" x="391.11" y="412.52" width="8.61" height="9.74"/>
    <rect class="cls-7" x="446.87" y="345.83" width="12.76" height="18.48"/>
    <rect class="cls-7" x="446.87" y="413.48" width="12.76" height="18.48"/>
    <path class="cls-9" d="M409.62,432.82c-.21,0-.36-19.05-.36-42.55s.15-42.55.36-42.55.36,19.05.36,42.55-.17,42.55-.36,42.55Z"/>
    <rect class="cls-4" x="506.22" y="241" width="112.31" height="86.62"/>
    <rect class="cls-11" x="515.74" y="307.91" width="8.61" height="9.74"/>
    <rect class="cls-7" x="571.5" y="241.22" width="12.76" height="18.48"/>
    <rect class="cls-7" x="571.5" y="308.88" width="12.76" height="18.48"/>
    <path class="cls-9" d="M534.25,328.21c-.19,0-.36-19.05-.36-42.53s.17-42.56.36-42.56.36,19.05.36,42.63-.17,42.46-.36,42.46Z"/>
    <rect class="cls-6" x="623.32" y="241" width="81.08" height="86.62"/>
    <rect class="cls-11" x="632.97" y="313.55" width="8.61" height="9.74"/>
    <rect class="cls-7" x="668.41" y="241.22" width="12.76" height="18.48"/>
    <rect class="cls-7" x="668.41" y="308.88" width="12.76" height="18.48"/>
    <path class="cls-9" d="M650.9,327.92c-.19,0-.36-19.06-.36-42.55s.17-42.57.36-42.57.36,19.05.36,42.55-.22,42.57-.36,42.57Z"/>
    <rect class="cls-6" x="509.73" y="381.79" width="65.48" height="50.51"/>
    <rect class="cls-11" x="515.28" y="420.8" width="5.02" height="5.68"/>
    <rect class="cls-7" x="547.79" y="381.92" width="7.44" height="10.78"/>
    <rect class="cls-7" x="547.79" y="421.38" width="7.44" height="10.78"/>
    <path class="cls-9" d="M526.07,432.65c-.19,0-.36-11.11-.36-24.75s.19-24.84.36-24.84.36,11.11.36,24.82-.15,24.77-.36,24.77Z"/>
    <rect class="cls-6" x="637.76" y="381.79" width="65.48" height="50.51"/>
    <rect class="cls-11" x="643.31" y="420.8" width="5.02" height="5.68"/>
    <rect class="cls-7" x="675.82" y="381.92" width="7.44" height="10.78"/>
    <rect class="cls-7" x="675.82" y="421.38" width="7.44" height="10.78"/>
    <path class="cls-9" d="M654.11,432.65c-.21,0-.36-11.11-.36-24.75s.15-24.82.36-24.82.36,11.11.36,24.82-.17,24.75-.36,24.75Z"/>
    <rect class="cls-6" x="377.25" y="296.03" width="118.02" height="31.31"/>
    <path class="cls-9" d="M408.66,327.85c-.19,0-.36-7.07-.36-15.79s.17-15.79.36-15.79.36,7.07.36,15.79-.17,15.79-.36,15.79Z"/>
    <rect class="cls-7" x="446.29" y="296.03" width="11.54" height="15.4"/>
    <rect class="cls-4" x="280.73" y="407.24" width="95.02" height="25.21"/>
    <path class="cls-9" d="M306.01,433.08c-.35-4.23-.47-8.47-.36-12.71-.12-4.24,0-8.49.36-12.72.35,4.23.47,8.48.36,12.72.12,4.24,0,8.48-.36,12.71Z"/>
    <rect class="cls-7" x="336.32" y="407.45" width="9.28" height="12.4"/>
    <rect class="cls-6" x="290.61" y="385.06" width="83.8" height="22.24"/>
    <path class="cls-9" d="M312.92,407.65c-.36-3.72-.48-7.47-.36-11.21-.12-3.74,0-7.48.36-11.21.35,3.72.47,7.47.36,11.21.12,3.74,0,7.48-.36,11.21Z"/>
    <rect class="cls-7" x="339.64" y="385.06" width="8.18" height="10.93"/>
    <rect class="cls-4" x="513.33" y="359.62" width="83.8" height="22.24"/>
    <path class="cls-9" d="M535.64,382.21c-.35-3.72-.47-7.47-.36-11.21-.12-3.74,0-7.48.36-11.21.36,3.72.48,7.47.36,11.21.12,3.74,0,7.48-.36,11.21Z"/>
    <rect class="cls-7" x="562.37" y="359.62" width="8.18" height="10.93"/>
    <rect class="cls-6" x="314.42" y="276.26" width="43.08" height="30.01"/>
    <path class="cls-9" d="M335.97,306.17c-.19,0-.36-6.68-.36-14.92s.17-14.92.36-14.92.36,6.68.36,14.92-.19,14.92-.36,14.92Z"/>
    <path class="cls-7" d="M342.72,276.24c.15,0,0,9.63,0,9.63h10.78v-9.63h-10.78Z"/>
    <rect class="cls-6" x="584.63" y="402.15" width="43.08" height="30.01"/>
    <path class="cls-9" d="M606.18,432.07c-.21,0-.36-6.68-.36-14.92s.15-14.93.36-14.93.36,6.68.36,14.93-.17,14.92-.36,14.92Z"/>
    <path class="cls-7" d="M612.92,402.15c.15,0,0,9.63,0,9.63h10.78v-9.63h-10.78Z"/>
    <rect class="cls-4" x="417.14" y="244.79" width="65.8" height="50.76"/>
    <rect class="cls-11" x="422.74" y="283.99" width="5.05" height="5.71"/>
    <rect class="cls-7" x="455.4" y="244.92" width="7.48" height="10.82"/>
    <rect class="cls-7" x="455.4" y="284.56" width="7.48" height="10.82"/>
    <path class="cls-9" d="M433.57,295.88c-.19,0-.36-11.15-.36-24.92s.17-24.93.36-24.93.36,11.15.36,24.93-.17,24.92-.36,24.92Z"/>
  </g>
  <g id="freepik--speech-bubble--inject-12">
    <path class="cls-12" d="M415.68,314.93c0,6.88-1.54,11.45-5.17,17.63-.61,1.03,3.01,11,3.01,11l-10.7-3.73c-4.85,3.62-9.83,4.35-16.36,4.35-16.14,0-29.22-13.08-29.22-29.22s13.08-29.22,29.22-29.22,29.22,13.08,29.22,29.22h0v-.03Z"/>
    <path class="cls-9" d="M386.46,285.72c-.17-.02-.34-.02-.51,0h-2.6l-1.38.18-1.54.22-1.72.43c-2.92.78-5.7,2.04-8.21,3.73-7.7,4.87-12.7,13.04-13.52,22.11-.12,1.34-.15,2.69-.08,4.03,0,.69,0,1.38.12,2.06s.21,1.38.32,2.09c.51,2.87,1.43,5.65,2.75,8.25,1.42,2.71,3.23,5.19,5.36,7.38,2.27,2.22,4.88,4.07,7.71,5.5,2.95,1.51,6.13,2.48,9.42,2.89.83.13,1.66.2,2.5.22.85.05,1.7.05,2.54,0,1.71-.07,3.41-.28,5.09-.65,3.61-.77,7.04-2.21,10.12-4.25h-.32l10.31,4.13.61.25-.17-.63c-1.05-3.8-2.06-7.46-3.04-11v.28c2.8-3.71,4.68-8.02,5.5-12.6.38-2.13.52-4.29.4-6.45-.02-1.04-.12-2.07-.3-3.09-.07-.51-.15-1.02-.23-1.51s-.23-.98-.36-1.46c-1.73-6.78-5.8-12.72-11.5-16.78-2.12-1.51-4.43-2.72-6.88-3.6l-1.54-.55-1.46-.33-1.38-.33c-.43-.08-.84-.14-1.24-.19-.77-.1-1.46-.23-2.06-.26h-2.75.32l.92.07,1.5.1c.61,0,1.28.21,2.05.32,11.43,1.97,20.62,10.49,23.45,21.74.11.48.25.95.34,1.38s.15.98.22,1.47c.17,1.01.26,2.03.28,3.05.12,2.12-.03,4.24-.43,6.33-.81,4.47-2.67,8.69-5.42,12.31l-.1.12v.15c.98,3.56,1.98,7.25,3.01,11l.44-.39-10.31-4.13-.15-.07-.15.1c-3.02,1.98-6.37,3.37-9.9,4.13-1.63.35-3.29.56-4.96.63-.82.04-1.65.04-2.48,0-.82,0-1.65-.08-2.46-.21-3.21-.39-6.32-1.34-9.2-2.82-2.79-1.4-5.34-3.22-7.56-5.4-2.09-2.14-3.87-4.56-5.27-7.21-1.31-2.53-2.23-5.23-2.75-8.03-.11-.69-.21-1.38-.32-2.04s-.08-1.38-.14-2.02c-.08-1.32-.08-2.64,0-3.96.8-8.92,5.65-16.98,13.16-21.86,2.54-1.66,5.32-2.91,8.25-3.7l1.71-.44,1.51-.26,1.38-.21c.41,0,.77,0,1.1-.08l1.49-.11h.48Z"/>
    <polygon class="cls-6" points="371.1 316.56 375.12 312.53 382.87 319.44 398.09 304.78 401.84 308.81 382.29 327.19 371.1 316.56"/>
    <path class="cls-9" d="M382.29,327.23h0l-11.22-10.64h0l4.04-4.04,7.76,6.88,15.22-14.74h0l3.75,4.04h0l-19.55,18.51Z"/>
  </g>
  <g id="freepik--character-2--inject-12">
    <polygon class="cls-10" points="550.03 433.17 567.66 446.95 555.47 455.77 543.24 444.46 550.03 433.17"/>
    <path class="cls-9" d="M493.86,440.44s8.25,9.28,11.62,13.44c1.51,1.91,3.84,2.99,6.27,2.93,1.03,0,2.02-.35,2.82-1,.37-.39.63-.86.76-1.38.74-2.42.12-5.04-1.62-6.88l-9.8-10.42-10.04,3.31Z"/>
    <path class="cls-9" d="M492.43,324.28c6.63.15,12.38,10,11.33,15.54-.48,2.75-1.69,5.79.48,7.78s6.7,1.8,8.76,3.84c1.55,1.62,2.39,3.78,2.34,6.02-.28,3.4.28,7.92,2.98,9.13l-13.45,4.81c-1.38-1.38-1.95-3.62-3.34-5.02,1.6,1.47,3.14,6.72-4.06,7.32l-4.48-3.95c-12.24,3.16-25.1,7.08-34.87,1.76"/>
    <path class="cls-9" d="M430.11,353.77c.89-2.54,2.34-4.9,2.94-7.52,1.38-5.64-1.38-12.07,1.51-17.12,2.02-3.6,6.22-5.29,10.19-6.45s7.74-1.82,10.74-4.65c2.19-2.09,3.47-4.99,5.65-7.08,3.12-2.97,7.66-3.92,11.96-4.13,4.44-.35,8.89.46,12.93,2.34,4.06,1.95,6.95,5.7,7.8,10.12.3,2.15,0,4.37.65,6.44s2.43,4.13,3.49,6.17c2.18,4.7.91,10.28-3.09,13.56l-31.02,38.63c-6.42,2.3-13.41-5.84-18.25-10.64s-17.73-13.23-15.5-19.66Z"/>
    <path class="cls-10" d="M494.18,340.43c-1.1-8.92-7.67-19.55-16.5-18.08l-27.5,8.68c-2.53.36-4.29,2.71-3.93,5.24,0,.03,0,.05.01.08l6.04,66.57c-.07,0,.3.72.23.74s7.41,18.58,25.5,11.74c3.59-1.38,5.21-.1,5.71-4.24h0c.78-.32,0,0,0-.5,0-5.06-.44-15.47-.44-15.47h0c-.26-5.5-.39-7.66-.39-7.6s11.32-2.57,12.82-17.63c.76-7.45-.33-19.6-1.54-29.54Z"/>
    <path class="cls-9" d="M470.81,355.07c.06,1.04-.7,1.94-1.73,2.05-1.01.14-1.94-.57-2.07-1.58,0,0,0-.02,0-.03-.08-1.04.69-1.95,1.73-2.05,1.01-.14,1.94.57,2.07,1.58,0,0,0,.02,0,.03Z"/>
    <path class="cls-9" d="M489.9,354.09c.07,1.04-.7,1.94-1.73,2.04-.99.14-1.91-.55-2.05-1.54,0-.02,0-.05,0-.07-.07-1.03.69-1.93,1.72-2.04,1-.14,1.93.55,2.07,1.55,0,.02,0,.04,0,.06Z"/>
    <path class="cls-9" d="M492.42,347.31c-.22.34-1.98-.81-4.21-.52s-3.69,1.77-3.97,1.5,0-.73.67-1.38c1.7-1.81,4.46-2.14,6.53-.77.77.45,1.07,1,.98,1.17Z"/>
    <path class="cls-9" d="M472.01,349.18c-.28.32-2.01-.99-4.4-.92s-4.13,1.38-4.39,1.07.14-.7.89-1.38c.99-.79,2.22-1.23,3.49-1.25,1.26-.02,2.49.38,3.51,1.13.76.65,1.02,1.21.89,1.35Z"/>
    <path class="cls-9" d="M480.05,363.36c1.07-.4,2.18-.67,3.31-.8.52-.08,1.02-.22,1.09-.58.01-.55-.15-1.09-.45-1.54-.56-1.24-1.16-2.54-1.79-3.91-2.49-5.58-4.33-10.18-4.13-10.27s2.42,4.33,4.92,9.91c.59,1.38,1.17,2.75,1.72,3.93.37.62.51,1.34.4,2.05-.14.38-.44.69-.83.83-.29.09-.58.15-.88.18-1.11.21-2.24.28-3.37.19Z"/>
    <path class="cls-1" d="M482.91,387.64c-7.02.53-14.04-.9-20.3-4.13,0,0,5.67,10.63,20.52,8.36l-.22-4.24Z"/>
    <path class="cls-6" d="M479.48,368.38c-.85-.96-2.15-1.41-3.41-1.18-.91.14-1.72.63-2.26,1.38-.51.74-.51,1.72,0,2.46.72.72,1.81.93,2.75.52.95-.4,1.81-.98,2.53-1.72.23-.17.41-.4.55-.65.15-.23.15-.53,0-.76"/>
    <path class="cls-9" d="M474.09,365.19c.33,0,.47,2.2,2.48,3.67s4.37,1.09,4.4,1.38-.5.47-1.5.56c-1.31.09-2.61-.28-3.67-1.05-1.02-.74-1.71-1.84-1.94-3.08-.14-.96.08-1.49.23-1.49Z"/>
    <path class="cls-9" d="M471.93,342.17c-.17.58-2.24.43-4.63.87s-4.32,1.21-4.66.72c-.17-.22.15-.77.91-1.38,2.05-1.46,4.66-1.91,7.08-1.21.91.32,1.39.74,1.31,1Z"/>
    <path class="cls-9" d="M491.77,339.87c-.39.48-2.04.1-3.99.19s-3.58.52-3.99,0c-.18-.22,0-.72.74-1.2.96-.61,2.07-.93,3.2-.95,1.13-.06,2.24.2,3.23.74.72.5.98.96.8,1.21Z"/>
    <path class="cls-9" d="M421.29,350.91c1.38-2.6-1.38-5.5.85-7.91,1.97-2.19,7.16-2.27,9.02-4.51,1.08-.97,1.66-2.39,1.55-3.84,0-2.05.99-10.66,13.55-12.38l1.75,7.82c.79-.37,1.59-.69,2.41-.98,10.24-3.74,20.89-6.25,31.72-7.48,1.31,2.24,0,5.24-2.05,6.88s-4.68,2.17-7.12,3.04c-2.45.87-4.96,2.21-6,4.59s-.28,5.5-1.25,8.13c-1.69,4.44-7.95,5.76-9.63,10.2-1.25,3.37.65,7,1.07,10.56.44,4.11-1.09,8.19-4.13,11-2.37,2.17-6.39,6.11-6.67,5.31l-33.64-21.03c-1.87-4.77,6.61-5.84,8.55-9.42Z"/>
    <path class="cls-4" d="M428.54,369.67s0-.08-.08-.23c-.09-.22-.17-.44-.22-.67-.26-.89-.3-1.84-.12-2.75.26-1.43.97-2.74,2.04-3.73.66-.61,1.46-1.05,2.32-1.29.92-.26,1.95-.34,2.98-.7,1.12-.36,2.01-1.21,2.42-2.31.39-1.17.54-2.41.43-3.64-.13-1.29-.13-2.59,0-3.88.08-.66.29-1.3.62-1.87.35-.57.82-1.06,1.38-1.44,1.26-.67,2.62-1.14,4.03-1.38,1.51-.28,2.95-.81,4.28-1.58.67-.45,1.22-1.05,1.62-1.75.39-.71.66-1.47.8-2.27.3-1.58.3-3.22.61-4.81.61-3.14,2.8-5.74,5.79-6.88,1.43-.45,2.92-.7,4.43-.74.74-.06,1.47-.2,2.19-.41.71-.21,1.36-.6,1.9-1.11.88-1.09,1.52-2.36,1.86-3.73.41-1.22,1.07-2.35,1.94-3.3,1.58-1.72,3.72-2.82,6.04-3.09,1.91-.21,3.84.21,5.5,1.18,1.25.74,2.32,1.74,3.15,2.93.52.75.93,1.58,1.22,2.45.11.3.14.54.19.69s.07.25.07.25c-.05-.32-.12-.64-.21-.95-.27-.89-.66-1.73-1.18-2.5-.82-1.22-1.9-2.24-3.16-3-1.68-1.02-3.65-1.46-5.61-1.25-2.37.27-4.57,1.38-6.19,3.14-.9.97-1.58,2.13-2.01,3.38-.33,1.32-.95,2.56-1.82,3.62-1.1.89-2.48,1.38-3.91,1.38-1.53.05-3.05.3-4.51.76-3.08,1.18-5.34,3.86-5.98,7.1-.3,1.64-.3,3.26-.61,4.81-.13.76-.38,1.5-.74,2.19-.38.66-.91,1.21-1.54,1.64-2.56,1.66-5.82,1.46-8.25,3.05-.61.39-1.12.91-1.5,1.53-.36.6-.59,1.27-.67,1.97-.1,1.31-.08,2.63.07,3.93.12,1.2-.02,2.41-.4,3.55-.19.52-.5.99-.91,1.38-.39.37-.86.65-1.38.81-1,.36-2.04.45-2.97.73-.89.26-1.71.73-2.38,1.38-1.08,1.02-1.79,2.36-2.04,3.82-.16.92-.11,1.86.17,2.75.07.23.16.46.26.67l.1.22Z"/>
    <path class="cls-10" d="M407.95,447.01c-.21,1.73-14.08,44.75-11,58.57,1.38,5.89,18.44,19.68,18.44,19.68l5.5,3.7c1.24-5.73,3.59-9.96,3.36-14.63,0,0-1.05-.34-2.75-7.07-.96-3.99-2.74-7.73-5.21-11l7.93-41.87-16.27-7.37Z"/>
    <path class="cls-3" d="M434.29,404.42l16.8-6.45h0c2.96,6.08,9.12,9.94,15.88,9.97,7.07-.07,13.51-4.06,16.72-10.35l1.11.39,20.16,2.97,5.06,30.72-5.5,68.22,4.25,8.04,1.53,8.55-78.2-3.33-.91-4.92c-.33-1.81,0-3.69.92-5.28l1.65-3-7.95-92.31,8.47-3.22Z"/>
    <path class="cls-3" d="M427.41,408.08l-1.55-.56s-10.64,5.25-16.21,23.79c-5.57,18.54-8.88,30.68-8.88,30.68l26.24,5.75,6.38-32.77-5.97-26.88Z"/>
    <path class="cls-9" d="M427.25,421.75c.11.45.18.91.19,1.38.07,1.03.17,2.32.29,3.85.25,3.38.56,7.8.92,12.69s.78,9.31,1.06,12.68c.12,1.53.22,2.75.3,3.85.05.46.05.92,0,1.38-.14-.45-.23-.91-.28-1.38-.12-.91-.3-2.21-.5-3.84-.39-3.23-.84-7.71-1.22-12.68s-.63-9.45-.76-12.71c0-1.64-.1-2.96-.1-3.86-.02-.46,0-.91.08-1.36Z"/>
    <path class="cls-1" d="M416.37,496.6c-.68-.05-1.36-.15-2.02-.29-3.25-.39-6.52.61-8.99,2.75-.95.81-1.38,1.38-1.51,1.38.27-.65.69-1.22,1.22-1.66,2.46-2.42,5.96-3.48,9.35-2.83.69.07,1.36.3,1.95.66Z"/>
    <path class="cls-10" d="M521.65,794.58c-.41-.72-3.95-16.02-3.95-16.02l23.89-6.46,2.93,22-22.87.48Z"/>
    <path class="cls-6" d="M544.4,789.79v1.69s25.89,12.18,26.13,17.88l-51.65-.8.98-19.62c7.6,4.18,15.68,4.77,24.55.85Z"/>
    <g class="cls-14">
      <path class="cls-12" d="M524.98,795.29c-1.09.44-1.72,1.59-1.5,2.75.17,1.11,1.2,1.88,2.32,1.71.04,0,.07-.01.11-.02,1.15-.47,1.81-1.68,1.57-2.9-.33-1.11-1.69-2.01-2.61-1.47"/>
    </g>
    <g class="cls-14">
      <path class="cls-12" d="M518.86,808.56l.23-4.72,49.44,2.49s2.28,1.18,1.99,3.03l-51.66-.8Z"/>
    </g>
    <path class="cls-9" d="M544.56,791.7c0,.29-1.28.4-2.53,1.31s-1.93,2.1-2.16,1.99.17-1.77,1.71-2.85,3.04-.67,2.98-.45Z"/>
    <path class="cls-9" d="M549.94,794.34c0,.29-1.05.76-1.91,1.97s-1.14,2.49-1.38,2.48-.39-1.65.72-3.12,2.57-1.58,2.57-1.32Z"/>
    <path class="cls-9" d="M552.92,801.8c-.23.07-.56-1.38.11-2.94s1.86-2.19,1.95-1.94-.63,1.07-1.17,2.37-.65,2.5-.89,2.52Z"/>
    <path class="cls-10" d="M473.82,794.58c.4-.72-.54-22.79-.54-22.79l-23.89-6.44,1.55,28.78,22.87.44Z"/>
    <path class="cls-6" d="M451.08,789.79v1.69s-25.91,12.18-26.13,17.88l51.65-.8-.98-19.62c-7.6,4.18-15.64,4.77-24.55.85Z"/>
    <g class="cls-14">
      <path class="cls-12" d="M470.5,795.29c1.09.44,1.72,1.59,1.5,2.75-.17,1.11-1.2,1.88-2.31,1.71-.01,0-.02,0-.04,0-1.15-.46-1.82-1.68-1.58-2.9.33-1.11,1.71-2.01,2.63-1.47"/>
    </g>
    <g class="cls-14">
      <path class="cls-12" d="M476.62,808.56l-.22-4.7-49.42,2.49s-2.28,1.18-1.99,3.03l51.64-.81Z"/>
    </g>
    <path class="cls-9" d="M450.91,791.7c0,.29,1.27.4,2.53,1.31s1.93,2.1,2.16,1.99-.18-1.77-1.71-2.85-3.05-.67-2.98-.45Z"/>
    <path class="cls-9" d="M445.52,794.34c0,.29,1.05.76,1.93,1.97s1.14,2.49,1.38,2.48.39-1.65-.73-3.12-2.57-1.58-2.57-1.32Z"/>
    <path class="cls-9" d="M442.55,801.8c.23.07.56-1.38-.11-2.94s-1.86-2.19-1.97-1.94.65,1.07,1.18,2.37.65,2.5.89,2.52Z"/>
    <path class="cls-9" d="M508.71,514.91c1.11.81,14.16,68.39,23.78,142.27,7.91,60.77,11.99,122.2,11.99,122.2l-25.66,4.83s-22.57-75.63-34.21-129.92c-10.75-50.06-15.79-85.05-15.79-85.05l.72-36.44,39.18-17.88Z"/>
    <path class="cls-9" d="M433.41,514.4c-13.03,17.4-19.77,38.71-19.1,60.44.76,21.62,35.33,204.8,35.33,204.8l25.3-.18-2.75-200.36,3.63-47.15-42.41-17.55Z"/>
    <path class="cls-4" d="M524.1,782.67c-.74-1.05-1.24-2.25-1.44-3.52-.4-1.24-.52-2.56-.36-3.85.41,1.19.72,2.42.92,3.67.4,1.21.69,2.44.88,3.7Z"/>
    <path class="cls-4" d="M532.85,780.98s-.11-.08-.19-.29h0c-.08-.61-.15-1.95-.39-3.49-.28-1.27-.49-2.55-.63-3.84.7,1.12,1.12,2.39,1.21,3.71.17,1.2.17,2.42,0,3.62h0c.06.15.04.28,0,.29Z"/>
    <path class="cls-4" d="M541.22,779.6c-.17,0,0-1.98-.36-4.35s-.89-4.19-.73-4.26c.79,1.24,1.27,2.66,1.38,4.13.27,1.5.17,3.04-.29,4.48Z"/>
    <path class="cls-4" d="M470.39,779.89c-.17-.07.39-1.76.54-3.93s-.08-3.93.08-3.99c.54,1.27.72,2.67.51,4.04,0,1.37-.39,2.72-1.13,3.88Z"/>
    <path class="cls-4" d="M461.86,779.79c-.51-2.58-.62-5.21-.34-7.82.51,2.58.62,5.21.34,7.82Z"/>
    <path class="cls-4" d="M455.18,779.55c-.67-1.15-1.08-2.43-1.21-3.75-.32-1.31-.37-2.67-.15-4,.36,1.26.6,2.56.73,3.86.32,1.28.53,2.58.63,3.89Z"/>
    <path class="cls-3" d="M503.82,400.94s5.5.34,19.18,10.23c11.7,8.48,27.04,22,27.04,22l-11.43,19.02h0l-34.79-24.95v-26.31Z"/>
    <path class="cls-10" d="M521.78,429.09s28.7,6.11,36.1,9.5,14.52,8.76,14.92,13.75,1.09,13.66-11.91,13.06c-13-.59-16.87-6.75-24.75-11.33l-14.87-8.59.51-16.39Z"/>
    <path class="cls-10" d="M500.42,426.73c-.47.37-8.48,9.21-10.12,10.74-1.15.92-1.74,2.36-1.57,3.82.09.95.32,1.88.7,2.75l.23.59c-.88,1.13-.68,2.76.45,3.65.21.16.43.29.68.38,1.12.3,2.3.24,3.38-.18.27,1.09,1.1,1.95,2.19,2.24-.31.57-.31,1.25,0,1.82.48,1.14,1.05,1.38,2.57,1.62s9.43-2.96,9.43-2.96c2.32-.04,4.63-.35,6.88-.95,2.48-.97,4.7-2.51,6.48-4.5l4.48-6.66-4.13-10s-18.61-3.85-19.25-3.47c-.78.41-1.58.77-2.41,1.09Z"/>
    <path class="cls-1" d="M501.37,434.27c-1.77,1.94-3.68,3.73-5.72,5.38-1.62,1.38-3.14,2.68-4.22,3.58-.55.54-1.14,1.03-1.77,1.47.39-.68.9-1.28,1.5-1.77,1.02-1,2.48-2.3,4.13-3.73,1.91-1.79,3.94-3.44,6.09-4.92Z"/>
    <path class="cls-1" d="M504.65,439.45c-1.5,1.8-3.2,3.43-5.05,4.87-1.72,1.6-3.56,3.06-5.5,4.39,1.54-1.77,3.24-3.39,5.09-4.83,1.72-1.59,3.55-3.07,5.46-4.43Z"/>
    <path class="cls-1" d="M507.79,444.12c-.37.57-.8,1.09-1.31,1.54-1.1,1.24-2.35,2.33-3.73,3.25-1.39.93-2.94,1.56-4.58,1.87-.67.16-1.38.16-2.05,0,.65-.18,1.3-.32,1.97-.41,1.54-.42,3.01-1.09,4.35-1.97,1.33-.9,2.58-1.92,3.74-3.04.94-.84,1.55-1.31,1.61-1.24Z"/>
    <path class="cls-1" d="M525.72,440.44c0,.07-.28.41-.65,1.06-.49.88-1.04,1.73-1.65,2.53-.81,1.2-1.9,2.2-3.16,2.92-.11-.12,1.27-1.38,2.75-3.27.73-.92,1.29-1.79,1.77-2.42s.89-.87.94-.81Z"/>
    <path class="cls-1" d="M504.76,434.54c0,.08-.4.14-1,0-.79-.26-1.47-.79-1.91-1.5-.45-.7-.63-1.54-.52-2.37.1-.63.32-.96.39-.94-.04,1.03.18,2.06.63,2.98.64.8,1.48,1.42,2.42,1.82Z"/>
    <path class="cls-1" d="M507.85,439.91s-.3,0-.67-.19c-.5-.32-.87-.81-1.06-1.38-.2-.54-.23-1.13-.08-1.69.14-.41.32-.62.39-.59s-.15,1.03.25,2.08,1.27,1.64,1.18,1.77Z"/>
    <path class="cls-1" d="M510,445.07s-.29-.08-.54-.44c-.3-.48-.46-1.03-.47-1.6,0-.57.15-1.13.45-1.61.23-.36.47-.51.52-.45s-.4.92-.37,2.05.54,1.93.4,2.05Z"/>
    <path class="cls-9" d="M471.24,514.87c-.19,0-.44-24.08-.54-53.78s0-53.77.17-53.78.44,24.08.55,53.78c.11,29.7.03,53.78-.18,53.78Z"/>
    <polygon class="cls-3" points="484.92 392.02 471.24 405.42 450.87 392.02 445.23 400.13 471.24 416.58 489.65 398.6 484.92 392.02"/>
    <path class="cls-9" d="M471.24,406.57c-1.33-.36-2.62-.82-3.88-1.38l.29-.1c-1.16,2.38-2.83,5.78-4.79,9.63l-.19.4-.34-.29-2.94-2.45c-3.97-3.31-7.55-6.34-10.11-8.55-1.28-1.11-2.3-2.01-3-2.65-.39-.3-.74-.65-1.05-1.05.44.23.85.51,1.22.84.76.56,1.83,1.38,3.15,2.48,2.64,2.12,6.26,5.07,10.23,8.39l2.94,2.46-.54.11c1.98-3.84,3.74-7.19,5.01-9.52l.1-.19.18.08c1.28.49,2.53,1.09,3.71,1.79Z"/>
    <path class="cls-6" d="M469.92,414.98l-1.38-.85c-4.13,1.65-7.47,6.6-7.92,11s.73,8.86,1.9,13.16c5.99-6.18,8.73-14.81,7.4-23.31Z"/>
    <path class="cls-6" d="M470.61,414.98l1.38-.85c4.13,1.65,7.47,6.6,7.91,11s-.73,8.86-1.9,13.16c-5.99-6.18-8.72-14.81-7.38-23.31Z"/>
    <polygon class="cls-6" points="464.05 412.2 467.77 412.77 470 410.62 466.66 407.05 464.05 412.2"/>
    <path class="cls-9" d="M467.79,412.81h0l-3.77-.58h0l2.63-5.21h0l3.37,3.62h0l-2.23,2.17ZM464.1,412.18l3.67.55,2.19-2.1-3.29-3.52-2.57,5.07Z"/>
    <path class="cls-9" d="M471.64,406.26c.99-1.01,2.06-1.93,3.2-2.75l.22-.19.15.28c1.24,2.28,2.9,5.5,4.74,9.05h-.62c.19-.26.39-.53.58-.83,2.43-3.52,4.68-6.67,6.31-8.94.82-1.26,1.74-2.46,2.75-3.58-.68,1.35-1.47,2.64-2.37,3.86-1.54,2.34-3.71,5.5-6.15,9.06l-.58.83-.34.5-.26-.54c-1.83-3.59-3.42-6.88-4.55-9.16l.37.08c-1.09.86-2.25,1.64-3.47,2.32Z"/>
    <polygon class="cls-6" points="478.83 411.9 473.63 413.14 471.82 411.1 476.23 406.73 478.83 411.9"/>
    <path class="cls-9" d="M473.65,413.18h0l-1.83-2.08h0l4.43-4.4h0l2.63,5.21-5.23,1.27ZM471.9,411.1l1.77,1.99,5.14-1.22-2.57-5.09-4.35,4.32Z"/>
    <path class="cls-6" d="M471.38,410.11l-.78-.1c-1.9-.01-3.45,1.51-3.46,3.41s1.51,3.45,3.41,3.46,3.45-1.51,3.46-3.41c.01-1.6-1.08-2.99-2.63-3.37Z"/>
    <path class="cls-9" d="M471.38,410.11s.33,0,.84.19c.74.35,1.34.95,1.69,1.69.57,1.13.48,2.49-.23,3.53-.87,1.32-2.47,1.96-4.02,1.61-1.17-.32-2.13-1.16-2.59-2.28-.42-.98-.37-2.09.14-3.03.66-1.25,1.98-2.01,3.4-1.95h0c.5.11.76.19.76.23-.26.05-.53.05-.8,0h0c-1.23.1-2.32.84-2.86,1.95-.37.78-.37,1.69,0,2.48.39.91,1.18,1.6,2.13,1.87,1.26.27,2.55-.24,3.29-1.29.63-.86.75-1.99.32-2.96-.28-.68-.76-1.26-1.38-1.65-.41-.25-.7-.34-.69-.4Z"/>
    <path class="cls-9" d="M500.35,427.07l-1.18-3.07s2.27-6.2-3.88-7.27c-2.75-.48-5.89.92-8.46,2.6-3.04,2.01-5.62,4.64-7.59,7.7l-4.54,6.88,2.21,4.32,14-1.02,9.43-10.13Z"/>
    <polygon class="cls-4" points="477.54 437.12 475.85 434.27 489.65 433.17 490.28 436.12 477.54 437.12"/>
    <path class="cls-4" d="M499.1,422.26c-1.09,2.03-2.48,3.89-4.13,5.5-1.42,1.73-2.99,3.35-4.69,4.81,1.18-1.95,2.59-3.75,4.21-5.35,1.44-1.74,2.98-3.4,4.61-4.96Z"/>
    <rect class="cls-4" x="417.75" y="507.57" width="100.61" height="28.14"/>
    <path class="cls-9" d="M444.33,535.71c-.35-4.68-.47-9.38-.36-14.07-.12-4.69,0-9.39.36-14.07.36,4.68.48,9.38.36,14.07.12,4.69,0,9.39-.36,14.07Z"/>
    <rect class="cls-12" x="475.31" y="507.57" width="12.86" height="8.95"/>
    <rect class="cls-12" x="475.31" y="526.81" width="12.87" height="8.95"/>
    <path class="cls-10" d="M413.85,512.74s-1.25-3.55,2.93-4.74c2.75-.77,11.14-2.39,9.83,1.57-.53,1.41-1.83,2.38-3.33,2.49-1.35.25-2.61.88-3.63,1.8-.71.53-1.13,1.37-1.14,2.26.18,1.22,0,4.03,3.69,5.31s5.42,2.68,6.59,5.03c1.02,2.06-.28,2.96-.28,2.96,0,0,2.26,1.72,1.88,3.34-.09.64.05,1.29.4,1.83h0c.43.88.07,1.94-.81,2.37-.16.08-.32.13-.49.16h-.18s-11.14-.4-13.64-3.25c-1.43-1.52-2.42-3.4-2.87-5.43,0,0-2.05-3.44.26-5.5-.85-3.95,0-5.95,1.58-7.12l-.78-3.07Z"/>
    <path class="cls-1" d="M413.85,512.74c.1.26.18.53.25.8.17.59.37,1.38.63,2.35v.07h-.07c-.88.68-1.47,1.66-1.66,2.75-.22,1.43-.15,2.89.22,4.29v.11l-.08.08c-.66.6-1.03,1.46-1,2.35.03,1,.31,1.98.81,2.85h0c.34,1.44.96,2.8,1.83,4,.43.66.95,1.25,1.55,1.76.68.44,1.42.79,2.2,1.03,3.5.98,7.1,1.52,10.73,1.62h0c.67-.06,1.22-.54,1.38-1.2.08-.31.04-.64-.11-.92-.21-.37-.36-.77-.45-1.18-.06-.41-.06-.82,0-1.22-.02-.35-.12-.7-.3-1-.38-.66-.89-1.24-1.5-1.71l-.3-.25.32-.23c.11-.08.2-.19.28-.3.37-.76.31-1.66-.15-2.37-.4-.79-.92-1.52-1.55-2.15-1.31-1.16-2.84-2.02-4.51-2.54-.84-.24-1.63-.63-2.32-1.15-.69-.58-1.2-1.34-1.46-2.2-.22-.82-.34-1.66-.37-2.5.1-.88.56-1.67,1.27-2.2h0c.75-.66,1.61-1.19,2.54-1.54.44-.16.91-.27,1.38-.33.43-.07.84-.2,1.22-.39.75-.35,1.35-.97,1.66-1.73.16-.34.22-.72.18-1.1-.08-.34-.29-.64-.59-.83-.67-.33-1.4-.51-2.15-.51-.72-.06-1.44-.06-2.16,0-1.27.12-2.54.32-3.78.61-1.01.15-1.97.53-2.82,1.1-.6.46-1.02,1.12-1.18,1.86-.13.62-.13,1.26,0,1.88-.09-.14-.15-.3-.17-.47-.1-.48-.1-.98,0-1.46.15-.79.57-1.5,1.18-2.01.87-.62,1.87-1.03,2.92-1.22,1.25-.31,2.53-.53,3.81-.67.73-.09,1.47-.12,2.21-.1.82-.01,1.63.18,2.37.55.41.24.71.64.8,1.11.08.47.01.94-.18,1.38-.35.88-1.03,1.59-1.88,1.99-.43.22-.9.37-1.38.44-.47.05-.93.16-1.38.32-.87.34-1.67.84-2.37,1.46h0c-.58.43-.95,1.07-1.05,1.79.04.78.16,1.56.36,2.32.24.76.69,1.43,1.29,1.94.65.51,1.39.9,2.19,1.14,1.74.55,3.36,1.46,4.73,2.67.67.67,1.23,1.45,1.66,2.3.56.9.6,2.02.11,2.96-.11.19-.25.35-.43.48v-.48c.67.52,1.24,1.16,1.66,1.9.22.39.34.82.36,1.27-.05.37-.05.75,0,1.13.07.36.2.7.39,1.02.23.42.29.91.17,1.38-.23.88-.97,1.53-1.87,1.64h-.07c-1.94-.1-3.81-.28-5.64-.54-1.77-.22-3.52-.61-5.23-1.16-.83-.27-1.62-.65-2.35-1.13-.64-.55-1.19-1.18-1.65-1.88-.9-1.27-1.54-2.7-1.87-4.22v.08c-.52-.95-.81-2.01-.84-3.09,0-1.01.42-1.97,1.18-2.63v.18c-.36-1.45-.4-2.96-.14-4.43.25-1.11.9-2.09,1.83-2.75v.11l-.54-2.37c-.07-.29-.11-.59-.11-.89Z"/>
    <path class="cls-1" d="M428.51,529.41c-.78.02-1.55-.08-2.3-.3-1.38-.28-3.31-.83-5.39-1.44-1.88-.37-3.6-1.3-4.95-2.65-1.07-1-1.38-1.91-1.31-1.94.99,1.23,2.22,2.25,3.6,3.01.88.44,1.8.78,2.75,1.02l5.32,1.6c.78.15,1.54.39,2.27.72Z"/>
    <path class="cls-1" d="M430.11,534c-.92.33-1.91.47-2.89.4-2.34-.11-4.66-.54-6.88-1.29l-1.91-.59c-.62-.17-1.22-.42-1.77-.74-.88-.63-1.62-1.42-2.2-2.34-.64-.75-1.07-1.66-1.25-2.63.49.82,1.02,1.61,1.6,2.38.58.83,1.31,1.55,2.15,2.12,1.15.51,2.34.92,3.56,1.22,2.19.74,4.45,1.22,6.75,1.44,1.73.12,2.83-.07,2.85.03Z"/>
    <path class="cls-1" d="M423.25,512.03c-1.06.71-2.23,1.24-3.47,1.58-.84.35-1.72.6-2.61.76-.72.1-1.17,0-1.16-.1s.43-.12,1.06-.32,1.51-.54,2.5-.91c1.16-.52,2.4-.87,3.67-1.02Z"/>
    <rect class="cls-6" x="441.16" y="431.74" width="10.59" height="7.29"/>
    <path class="cls-3" d="M446.46,436.7l-.11-.1c-5.12-4.61-5.12-4.73-5.12-4.83h.18l.15-.08c.15.23,2.97,2.75,4.9,4.55l5.17-4.59.23.25-5.4,4.8Z"/>
    <polygon class="cls-3" points="441.3 439.14 441.04 438.92 444.48 434.85 444.74 435.07 441.3 439.14"/>
    <rect class="cls-3" x="449.88" y="434.16" width=".34" height="5.46" transform="translate(-174.17 375.47) rotate(-38.53)"/>
    <path class="cls-6" d="M454.12,441.21c-5.27.48-10.56.48-15.83,0,5.27-.48,10.56-.48,15.83,0Z"/>
  </g>
  <g id="freepik--Counter--inject-12">
    <rect class="cls-3" x="253.81" y="542.98" width="484.38" height="265.58"/>
    <path class="cls-9" d="M738.87,809.26H253.13v-266.97h485.74v266.97ZM254.5,807.89h482.99v-264.22H254.5v264.22Z"/>
    <rect class="cls-6" x="253.81" y="582.64" width="484.38" height="53.97"/>
    <rect class="cls-12" x="351.6" y="598.77" width="36.06" height="24.82"/>
    <path class="cls-6" d="M369.63,615.68l-.47-.41c-17.42-15.7-17.42-16.12-17.42-16.5h.69l.59-.33c.58.83,10.3,9.71,16.61,15.4l17.57-15.58.91,1.02-18.48,16.41Z"/>
    <rect class="cls-6" x="348.39" y="618.42" width="18.14" height="1.38" transform="translate(-345.38 488.36) rotate(-49.46)"/>
    <rect class="cls-6" x="381.18" y="607.02" width="1.38" height="18.59" transform="translate(-300.78 372.06) rotate(-38.53)"/>
    <path class="cls-12" d="M425.98,603.27c3.64,1.75,5.17,6.11,3.42,9.74-.11.22-.23.44-.36.65-.75,1.14-1.81,2.03-3.07,2.56-1.48.62-3.08.92-4.69.88h-4.13v5.61h-4.72v-20.34h8.81c1.62-.04,3.23.27,4.72.89ZM424.25,612.36c1.45-1.4,1.49-3.71.09-5.15-.03-.03-.06-.06-.09-.09-.94-.67-2.07-.99-3.22-.91h-3.77v7.05h3.84c1.12.06,2.23-.26,3.15-.91Z"/>
    <path class="cls-12" d="M437.89,621.69c-1.64-.86-3.02-2.16-3.97-3.75-1.93-3.34-1.93-7.45,0-10.79.96-1.59,2.33-2.89,3.97-3.75,3.58-1.83,7.83-1.83,11.41,0,5.05,2.68,6.98,8.94,4.31,14-.97,1.83-2.47,3.34-4.31,4.31-3.58,1.83-7.83,1.83-11.41,0h0ZM446.86,618.23c.96-.54,1.75-1.34,2.28-2.31,1.12-2.11,1.12-4.64,0-6.75-.53-.97-1.32-1.77-2.28-2.31-2.03-1.09-4.47-1.09-6.5,0-.96.54-1.75,1.34-2.28,2.31-1.1,2.12-1.1,4.64,0,6.75.54.96,1.33,1.76,2.28,2.31,2.03,1.09,4.47,1.09,6.5,0Z"/>
    <path class="cls-12" d="M460.31,622.41c-1.3-.34-2.53-.92-3.62-1.71l1.6-3.55c.94.68,1.99,1.2,3.11,1.54,1.16.39,2.38.59,3.6.59,1.02.06,2.05-.14,2.97-.59.59-.32.96-.93.96-1.6,0-.47-.21-.91-.58-1.2-.4-.35-.87-.61-1.38-.77-.79-.26-1.59-.47-2.41-.65-1.29-.29-2.56-.66-3.81-1.1-.98-.37-1.85-.98-2.53-1.77-.75-.92-1.13-2.08-1.07-3.26,0-1.14.33-2.26.96-3.2.72-1.02,1.73-1.82,2.89-2.28,1.5-.61,3.11-.9,4.73-.85,1.28,0,2.56.16,3.81.47,1.15.29,2.24.75,3.25,1.38l-1.44,3.58c-1.71-1.01-3.65-1.56-5.64-1.6-1.02-.07-2.04.15-2.93.65-.58.36-.94.99-.94,1.68,0,.7.43,1.32,1.09,1.55,1.07.45,2.19.79,3.33,1,1.29.29,2.56.67,3.81,1.11.98.36,1.85.95,2.54,1.73.74.91,1.12,2.06,1.06,3.23,0,1.13-.33,2.24-.98,3.18-.73,1.03-1.74,1.82-2.92,2.28-1.51.6-3.12.89-4.74.85-1.6,0-3.2-.24-4.73-.7Z"/>
    <path class="cls-12" d="M480.75,606.21h-6.52v-3.84h17.74v3.84h-6.52v16.5h-4.7v-16.5Z"/>
    <path class="cls-12" d="M506.99,621.6c-1.61-.87-2.95-2.16-3.88-3.74-1.89-3.29-1.89-7.34,0-10.63.92-1.58,2.27-2.87,3.88-3.74,1.69-.91,3.58-1.38,5.5-1.38,1.92-.02,3.81.46,5.5,1.38,1.61.86,2.95,2.15,3.86,3.73,1.87,3.31,1.87,7.35,0,10.66-.92,1.58-2.26,2.87-3.86,3.73-1.69.92-3.58,1.39-5.5,1.38-1.92,0-3.81-.46-5.5-1.38ZM516.62,619.34c1.14-.66,2.09-1.61,2.75-2.75,1.38-2.49,1.38-5.5,0-7.99-.66-1.14-1.61-2.09-2.75-2.75-1.23-.68-2.62-1.04-4.03-1.02-1.44-.03-2.86.32-4.13,1.02-1.18.64-2.17,1.59-2.85,2.75-1.38,2.49-1.38,5.5,0,7.99.68,1.16,1.66,2.11,2.85,2.75,1.26.69,2.69,1.04,4.13,1.02,1.39.01,2.77-.34,3.99-1.02h.04Z"/>
    <path class="cls-12" d="M530.69,604.9v7.08h10.19v2.5h-10.19v8.25h-2.92v-20.37h14.36v2.53h-11.44Z"/>
    <path class="cls-12" d="M549.14,604.9v7.08h10.2v2.5h-10.2v8.25h-2.92v-20.37h14.36v2.53h-11.44Z"/>
    <path class="cls-12" d="M564.68,602.37h2.92v20.34h-2.92v-20.34Z"/>
    <path class="cls-12" d="M577.28,621.6c-1.6-.87-2.92-2.16-3.84-3.73-1.87-3.31-1.87-7.35,0-10.66.92-1.58,2.26-2.87,3.86-3.73,3.06-1.58,6.65-1.78,9.87-.55,1.29.51,2.45,1.32,3.37,2.37l-1.88,1.83c-1.47-1.58-3.56-2.46-5.72-2.41-1.44-.03-2.86.32-4.13,1.02-1.19.63-2.19,1.59-2.87,2.75-1.38,2.49-1.38,5.5,0,7.99.69,1.16,1.68,2.12,2.87,2.75,1.26.69,2.69,1.04,4.13,1.02,2.17.04,4.25-.85,5.72-2.45l1.88,1.84c-.93,1.05-2.09,1.86-3.38,2.38-1.39.55-2.88.83-4.37.81-1.91.06-3.81-.37-5.51-1.24Z"/>
    <path class="cls-12" d="M609.47,620.18v2.53h-14.81v-20.34h14.37v2.53h-11.45v6.24h10.2v2.48h-10.2v6.56h11.89Z"/>
    <rect class="cls-6" x="253.81" y="650.76" width="484.38" height="9.87"/>
    <rect class="cls-3" x="245.98" y="530.6" width="501.56" height="24.78"/>
    <path class="cls-9" d="M747.52,555.37c0-.72,0-7.95-.1-24.75l.1.1-501.52.26h0l.36-.36v24.75l-.36-.36,355.46.15,146.08.21h-38.92l-106.85.1-355.72.15h-.36v-25.41h.39l501.52.25h.11v.11c-.15,16.86-.18,24.09-.19,24.81Z"/>
    <rect class="cls-4" x="552.52" y="512.71" width="176.42" height="17.48"/>
    <rect class="cls-4" x="603.14" y="503.9" width="99.82" height="8.77"/>
    <g class="cls-15">
      <rect class="cls-2" x="603.14" y="503.9" width="99.82" height="8.77"/>
    </g>
    <rect class="cls-4" x="614.46" y="431.47" width="86.24" height="66.52"/>
    <rect class="cls-11" x="621.78" y="482.86" width="6.61" height="7.47"/>
    <rect class="cls-7" x="664.6" y="431.65" width="9.79" height="14.19"/>
    <rect class="cls-7" x="664.6" y="483.6" width="9.79" height="14.19"/>
    <path class="cls-9" d="M635.99,497.99c-.19,0-.36-14.95-.36-33.39s.17-33.39.36-33.39.36,14.95.36,33.39-.17,33.39-.36,33.39Z"/>
    <rect class="cls-3" x="594.27" y="498.01" width="117.57" height="5.84"/>
    <path class="cls-9" d="M594.27,503.84v-1.39c0-1,0-2.46-.07-4.44v-.11h.11c14.81-.14,61.88-.25,117.56-.25h0l.36.36h0v6.17h-.37l-83.51-.11-25.01-.11h-8.48c-.19.02-.39.02-.58,0h9.28l25.1-.11,83.22-.15-.36.36v-6.04h0l.37.36h0c-55.68,0-102.75-.11-117.56-.26l.1-.1v5.47c0,.28-.15.34-.15.34Z"/>
    <path class="cls-9" d="M727.96,512.67c0,.19-39.05.36-87.24.36s-87.24-.17-87.24-.36,39.05-.36,87.24-.36,87.24.15,87.24.36Z"/>
    <path class="cls-9" d="M613.09,530.21c-.35-2.9-.47-5.82-.36-8.73-.12-2.91,0-5.83.36-8.72.36,2.89.48,5.81.36,8.72.12,2.92,0,5.84-.36,8.73Z"/>
    <rect class="cls-12" x="557.16" y="517.77" width="49.49" height="8.57"/>
    <path class="cls-9" d="M606.69,526.37h-49.51v-8.64h49.51v8.64ZM557.19,526.37h49.44v-8.54h-49.42v8.54Z"/>
    <path class="cls-9" d="M580.74,524.21v-.59h-.61v-.61h-.61v-1.82h.59v-.62h.61v-.59h1.82v.59h.61v.61h.59v1.82h-.59v.61h-.61v.59h-1.8ZM581.35,523.62h1.21v-2.42h-.61v-.62h-1.21v2.42h.61v.62Z"/>
    <path class="cls-9" d="M584.36,524.21v-1.2h.67v-.61h.61v-.61h1.2v-.61h.61v-.62h-1.8v.61h-1.21v-.61h.61v-.59h3.01v.59h.61v1.21h-.61v.61h-.61v.61h-1.2v.61h2.41v.59h-4.29Z"/>
    <path class="cls-9" d="M594,524.21v-4.21h1.21v2.41h1.21v-.61h.61v-.61h1.2v.61h-.61v.61h-.59v.61h.59v.61h.61v.59h-1.2v-.59h-.61v-.61h-1.21v1.2h-1.21Z"/>
    <path class="cls-9" d="M599.43,524.81v-.61h2.41v-.59h-2.41v-.61h-.65v-1.21h.61v-.61h3.62v3.01h-.61v.61h-2.97ZM600.03,523.01h1.8v-1.21h-1.8v1.21Z"/>
  </g>
  <g id="freepik--character-3--inject-12">
    <path class="cls-10" d="M857.31,339.49l2.85,55.86c.47,9.11-6.17,17.03-15.22,18.17h0c-9.55,1.15-18.22-5.65-19.37-15.19-.04-.37-.08-.74-.1-1.12-.3-5.31-.51-9.63-.51-9.63,0,0-13.67-.44-15.47-13.83-1.03-7.73-1.84-25.47-2.34-39.07-.34-9.19,6.42-17.11,15.55-18.22l8.1-.99c13.79-.84,25.65,9.66,26.48,23.45.01.19.02.38.03.57Z"/>
    <path class="cls-1" d="M824.9,387.53c6.19-.77,12.03-3.3,16.83-7.29,0,0-3.14,10.29-16.65,10.71l-.18-3.42Z"/>
    <path class="cls-9" d="M811.16,347.13c.28.22,1.6-1.03,3.66-1.28s3.69.61,3.88.32-.19-.54-.91-.94c-.97-.51-2.07-.71-3.15-.58-1.08.14-2.09.62-2.87,1.38-.58.52-.73,1-.61,1.1Z"/>
    <path class="cls-9" d="M830.3,350.53c.12,1.04,1.04,1.79,2.08,1.71,1.01-.04,1.8-.88,1.76-1.89,0-.03,0-.05,0-.08-.12-1.04-1.04-1.79-2.08-1.71-1.01.04-1.8.88-1.76,1.89,0,.03,0,.05,0,.08Z"/>
    <path class="cls-9" d="M812.49,352.69c.12,1.04,1.05,1.79,2.09,1.71,1.02-.04,1.81-.9,1.76-1.92,0-.02,0-.03,0-.05-.12-1.04-1.04-1.79-2.08-1.71-1.02.04-1.81.89-1.78,1.91,0,.02,0,.04,0,.06Z"/>
    <path class="cls-9" d="M831.1,344.97c.26.22,1.58-1.02,3.64-1.27s3.7.59,3.89.32-.21-.55-.92-.95c-.97-.51-2.07-.71-3.15-.56-1.08.14-2.08.62-2.86,1.38-.52.52-.74.99-.61,1.09Z"/>
    <path class="cls-9" d="M825.68,361.9c-1.13-.21-2.28-.27-3.42-.19-.52,0-1.05,0-1.17-.39-.12-.54-.07-1.1.15-1.61.34-1.38.7-2.75,1.07-4.19,1.47-5.97,2.46-10.85,2.21-10.9s-1.62,4.73-3.08,10.7c-.36,1.47-.69,2.87-1,4.22-.24.68-.24,1.41,0,2.09.2.36.56.6.96.67.3.03.61.03.91,0,1.14,0,2.27-.13,3.37-.4Z"/>
    <path class="cls-9" d="M831.97,362.59c-.34,0-.07,2.26-1.8,4.13s-4.13,1.87-4.13,2.19.58.37,1.58.28c1.31-.14,2.54-.74,3.45-1.69.88-.92,1.37-2.14,1.38-3.41-.01-.99-.33-1.53-.48-1.49Z"/>
    <path class="cls-9" d="M830.32,337.49c.28.54,2.3,0,4.74,0s4.5.41,4.74-.12c.12-.26-.29-.74-1.14-1.18-2.3-1.09-4.96-1.06-7.23.08-.84.47-1.24.96-1.11,1.22Z"/>
    <path class="cls-9" d="M810.09,340.94c.41.43,1.77-.23,3.48-.47s3.19-.07,3.47-.59c.12-.26-.17-.7-.85-1.07-.91-.43-1.93-.58-2.93-.41-1,.14-1.93.59-2.67,1.28-.55.55-.69,1.06-.5,1.27Z"/>
    <path class="cls-10" d="M854.01,350.06c.22-.12,8.88-3.84,9.71,5.36s-8.58,8.13-8.62,7.87-1.09-13.23-1.09-13.23Z"/>
    <path class="cls-1" d="M857.6,359.58s.17.1.45.21c.39.13.82.1,1.2-.08,1.14-.88,1.72-2.3,1.51-3.73-.05-.79-.28-1.56-.66-2.26-.22-.57-.71-.99-1.31-1.13-.39-.06-.77.15-.91.52-.1.28,0,.45,0,.47s-.22-.14-.18-.52c.03-.23.15-.44.32-.61.24-.21.55-.33.87-.32.78.09,1.46.57,1.8,1.28.46.76.73,1.63.78,2.52.23,1.65-.55,3.28-1.98,4.13-.49.19-1.04.15-1.5-.11-.37-.15-.44-.34-.4-.37Z"/>
    <path class="cls-9" d="M859.07,349.17c-1.78.08-3.36,1.14-4.13,2.75-.44,1.38-.4,2.89-.83,4.26s-1.64,2.75-3.08,2.57c-1-.19-1.82-.9-2.16-1.86-.32-.95-.45-1.96-.39-2.96,0-4.35.4-8.7,0-13.04-.18-4.37-1.65-8.59-4.22-12.13-2.68-3.55-7.07-5.36-11.47-4.72-2.82.58-5.25,2.38-8.03,3.12-3.34.85-6.88.12-9.63-1.97-.61-.38-1.25-.73-1.9-1.05-.07-1.02.14-2.04.62-2.94,4.99-5.89,14.93-8.57,22.57-7.6,7.85.95,14.89,5.31,19.25,11.91,4.04,6.56,4.28,16.35,3.37,23.6"/>
    <path class="cls-9" d="M821.16,319.95c5.1-.41,14.99.33,19.36,2.98.52.3,1.11.85.85,1.38s-.74.5-1.2.54c-4.62.78-9.15,2.03-13.52,3.71-2.76,1.35-5.74,2.16-8.8,2.39-3.11.21-6.1-1.25-7.85-3.82l-1.24.63c2.49-4.58,7.18-7.53,12.39-7.81Z"/>
    <path class="cls-6" d="M806.68,332.58c2.44-2.89,5.76-4.9,9.45-5.73,11.47-2.41,30.91-1.16,43.33,17.59.69-3.58.96-7.22.8-10.86-.33-2.75-3.95-18.77-21.27-21.84,0,0-26.35-6.53-32.3,20.85Z"/>
    <g class="cls-15">
      <path class="cls-2" d="M806.68,332.58c2.55-3.44,6.35-5.75,10.57-6.45,10.31-1.72,30.5.63,42.2,18.3.69-3.58.96-7.22.8-10.86-.33-2.75-3.95-18.77-21.27-21.84,0,0-26.35-6.53-32.3,20.85Z"/>
    </g>
    <path class="cls-6" d="M857.56,341.81c-6.04-7.81-14.25-12.68-22.94-16.75s-22.69-7.43-32.21-8.75c-2.83-.57-5.75-.52-8.57.14-2.86.73-5.06,3.02-5.67,5.91-.44,3.58,6.37,8.25,9.53,9.94,3.07,1.54,6.22,2.92,9.43,4.13,0,0-.87-6.46,9.3-9.02,13.83-3.48,41.58,14.69,41.12,14.4Z"/>
    <path class="cls-4" d="M927.31,760.64l22,20.87s-21.73,24.75-18.92,29.92l52.96-30.57-32.78-36.84-23.25,16.61Z"/>
    <g class="cls-14">
      <path class="cls-12" d="M963.91,769.21c1.23-.34,2.52.31,2.98,1.5.38,1.22-.26,2.52-1.46,2.96-1.3.36-2.67-.33-3.15-1.6-.27-1.31.55-2.6,1.86-2.92"/>
    </g>
    <g class="cls-14">
      <path class="cls-12" d="M983.34,780.87l-3.34-3.75-49.38,30.87c-.77,1.2-.88,2.71-.29,4.02l53.01-31.13Z"/>
    </g>
    <path class="cls-9" d="M948.3,781.77c.17.25,1.51-.44,3.26-.4s3.09.67,3.26.43-1.13-1.47-3.25-1.47-3.51,1.24-3.27,1.44Z"/>
    <path class="cls-9" d="M944.29,787.43c.1.29,1.46,0,3,.55s2.49,1.51,2.75,1.38-.48-1.71-2.41-2.32-3.49.15-3.34.4Z"/>
    <path class="cls-9" d="M945.32,795.87c.26-.1-.18-1.58-1.71-2.56s-3.04-.78-3.03-.51,1.22.56,2.46,1.38,1.97,1.82,2.27,1.69Z"/>
    <path class="cls-9" d="M944.94,775.38c.25.17,1.18-.91,2.68-1.72s2.89-1.05,2.87-1.38-1.64-.52-3.38.44-2.42,2.53-2.17,2.65Z"/>
    <path class="cls-9" d="M941.46,770.06c0,.11,1.16-.37,2.59-1.65.83-.75,1.56-1.6,2.19-2.53.37-.55.71-1.13.99-1.73.2-.34.33-.71.4-1.1.1-.57-.2-1.13-.73-1.38-.48-.2-1.03-.15-1.47.12-.33.2-.63.45-.88.74-.47.48-.9,1-1.27,1.57-.62.94-1.08,1.98-1.38,3.07-.39.98-.46,2.05-.21,3.07.17,0,.25-1.14.89-2.83.38-.98.89-1.9,1.5-2.75.36-.49.76-.95,1.2-1.38.47-.48.92-.78,1.22-.63s.14.1.12.33c-.07.28-.17.56-.3.81-.26.56-.55,1.11-.88,1.64-.55.9-1.19,1.76-1.9,2.54-1.25,1.27-2.19,1.95-2.09,2.09Z"/>
    <path class="cls-9" d="M942.01,770.21c.12,0,0-1.24-.88-2.93-.56-.99-1.28-1.87-2.15-2.61-.51-.45-1.06-.84-1.65-1.17-.72-.52-1.66-.62-2.48-.26-.47.29-.72.83-.63,1.38.06.39.18.76.34,1.11.27.64.63,1.22,1.09,1.75.74.88,1.68,1.56,2.75,1.98.95.5,2.05.59,3.07.25-.93-.25-1.85-.56-2.75-.92-.92-.45-1.72-1.11-2.35-1.91-.37-.47-.67-.98-.89-1.53-.26-.61-.34-1.18-.1-1.25.5-.12,1.02-.02,1.44.28.57.29,1.11.62,1.62.99.81.65,1.52,1.42,2.12,2.27.96,1.53,1.29,2.64,1.44,2.59Z"/>
    <path class="cls-4" d="M761.66,762.44l-5.25,28.31s-31.34,10.24-31.55,16.09l59.65.72,4.4-45.12h-27.26Z"/>
    <g class="cls-14">
      <path class="cls-12" d="M779.57,789.87c1.21.33,1.98,1.51,1.8,2.75-.3,1.23-1.5,2.02-2.75,1.8-1.3-.34-2.12-1.62-1.9-2.94.44-1.27,1.8-1.96,3.08-1.57"/>
    </g>
    <g class="cls-14">
      <path class="cls-12" d="M784.51,807.56l.94-4.33-58.61.76c-1.27.64-2.14,1.88-2.3,3.3l59.97.28Z"/>
    </g>
    <path class="cls-9" d="M755.41,790.47c0,.29,1.51.39,3,1.31s2.31,2.16,2.59,2.04-.22-1.83-2.05-2.92-3.6-.7-3.53-.43Z"/>
    <path class="cls-9" d="M749.07,793.28c0,.29,1.24.76,2.28,1.99s1.38,2.57,1.68,2.54.44-1.72-.89-3.22-3.08-1.61-3.07-1.32Z"/>
    <path class="cls-9" d="M745.62,801.11c.28,0,.65-1.46-.15-3.07s-2.23-2.23-2.35-1.98.77,1.1,1.38,2.45.84,2.52,1.13,2.6Z"/>
    <path class="cls-9" d="M757.89,783.86c.14.28,1.5-.18,3.19-.11s3.01.58,3.16.32-1.14-1.29-3.14-1.38-3.37.94-3.22,1.17Z"/>
    <path class="cls-9" d="M899.34,556.64c.99.67,3.25,34.65,0,42.09l8.25,61.22s22.13,35.15,26.58,40.26,33.36,55.01,33.36,55.01l-32.63,28.15s-56.7-74.09-65.81-87.24c-14.3-20.63-31.17-97.97-31.17-97.97l-2.2-38.38,63.63-3.15Z"/>
    <path class="cls-9" d="M854.78,605.62c-.99,1.82-45.13,69.68-45.13,69.68,0,0-6.7,35.95-8.25,51.79-1.55,15.84-12.38,56.63-12.38,56.63l-35.53-2.75s9.63-104.96,15.55-125.41c5.93-20.45,22.46-60,22.46-60l13.94-36.98,40.15.74,9.19,46.3Z"/>
    <path class="cls-4" d="M829.66,569.64c.04.37.12.73.22,1.09.19.77.44,1.82.76,3.12.7,2.75,1.69,6.64,2.92,11.41,2.49,9.63,5.93,22.95,9.93,37.6s7.92,27.83,10.89,37.34c1.49,4.74,2.75,8.58,3.6,11.21.44,1.28.78,2.3,1.03,3.04.11.36.25.7.4,1.05-.06-.37-.15-.73-.28-1.09l-.91-3.07-3.41-11.28c-2.86-9.53-6.68-22.73-10.7-37.38-4.02-14.65-7.51-27.85-10.11-37.47-1.31-4.74-2.37-8.62-3.12-11.36l-.88-3.08c-.09-.38-.2-.76-.34-1.13Z"/>
    <polygon class="cls-4" points="648.52 708.45 556.95 628.38 587.31 595.7 676.19 676.81 648.52 708.45"/>
    <rect class="cls-11" x="642.55" y="681.83" width="10.55" height="9.32" transform="translate(-295.4 722.23) rotate(-48.83)"/>
    <polygon class="cls-7" points="577.33 606.44 563.7 621.12 574.76 630.78 587.93 615.71 577.33 606.44"/>
    <path class="cls-9" d="M625.24,688.95c-.15-.14,6.13-7.56,14.03-16.58s14.41-16.24,14.56-16.12-6.13,7.55-14.03,16.58-14.43,16.24-14.56,16.12Z"/>
    <rect class="cls-4" x="523.54" y="641.36" width="93.81" height="121.63" transform="translate(-333.65 669.34) rotate(-48.83)"/>
    <g class="cls-13">
      <rect class="cls-2" x="523.54" y="641.36" width="93.81" height="121.63" transform="translate(-333.65 669.34) rotate(-48.83)"/>
    </g>
    <rect class="cls-11" x="579.4" y="750.89" width="10.55" height="9.32" transform="translate(-368.96 698.29) rotate(-48.83)"/>
    <rect class="cls-7" x="571.94" y="656.63" width="20.02" height="13.82" transform="translate(-300.63 664.8) rotate(-48.83)"/>
    <rect class="cls-7" x="523.7" y="711.79" width="20.02" height="13.82" transform="translate(-358.63 647.34) rotate(-48.83)"/>
    <path class="cls-9" d="M562.09,758.03c-.15-.12,13.31-15.77,30.06-34.93s30.46-34.58,30.61-34.38-13.31,15.76-30.07,34.93-30.46,34.5-30.6,34.38Z"/>
    <rect class="cls-4" x="650.04" y="529.23" width="78.49" height="101.77" transform="translate(-201.16 717.09) rotate(-48.83)"/>
    <rect class="cls-11" x="696.78" y="620.87" width="8.81" height="7.8" transform="translate(-230.7 741.31) rotate(-48.83)"/>
    <rect class="cls-7" x="690.55" y="542" width="16.75" height="11.56" transform="translate(-173.52 713.3) rotate(-48.83)"/>
    <rect class="cls-7" x="650.18" y="588.16" width="16.75" height="11.56" transform="translate(-222.06 698.68) rotate(-48.83)"/>
    <path class="cls-9" d="M682.3,626.84c-.15-.14,11.1-13.24,25.11-29.26,14.01-16.02,25.51-28.88,25.66-28.8s-11.1,13.23-25.12,29.26c-14.03,16.03-25.5,28.92-25.65,28.8Z"/>
    <polygon class="cls-4" points="673.59 674.6 582.02 594.52 612.38 561.85 701.26 642.95 673.59 674.6"/>
    <g class="cls-13">
      <polygon class="cls-2" points="673.59 674.6 582.02 594.52 612.38 561.85 701.26 642.95 673.59 674.6"/>
    </g>
    <rect class="cls-11" x="667.62" y="647.97" width="10.55" height="9.32" transform="translate(-261.35 729.53) rotate(-48.83)"/>
    <rect class="cls-7" x="611.93" y="608.87" width="20.02" height="13.82" transform="translate(-251.01 678.58) rotate(-48.83)"/>
    <path class="cls-9" d="M650.31,655.1c-.15-.14,5.98-7.49,13.75-16.5s14.1-16.1,14.25-15.98-5.98,7.49-13.75,16.5-14.1,16.1-14.25,15.98Z"/>
    <circle class="cls-4" cx="617.21" cy="784.99" r="24.79"/>
    <g class="cls-13">
      <circle class="cls-2" cx="617.21" cy="784.99" r="15.28"/>
    </g>
    <path class="cls-10" d="M802.58,434.14c-.76.65-34.25,36.14-34.25,36.14l-62.4,33.39,7.37,8.86c.91,4.28,65.32-15.59,75.63-25.44,6.88-6.64,28.42-25.85,28.42-25.85l-4.74-33.79-10.02,6.7Z"/>
    <path class="cls-10" d="M716.73,507.86l-10.81-4.19c-.55.87-12.78,7.45-19.25,8.99-4.82,1.24-9.54,2.84-14.12,4.8l.1.56c1.48,1.61,3.75,2.21,5.83,1.54,6.35-1.38,17.88-3.69,17.75-3.25s-7.49,5.69-7.95,8.83c-.4,2.82,1.65,1.88,3.64.72s20.63-6.88,22.73-11.84,2.08-6.16,2.08-6.16Z"/>
    <path class="cls-6" d="M836.08,398.86l-15.66,6.37c-3.84,1.11-9.06,9.63-13.6,14.98l-20.19,20.9,27.86,33.95,21.59-76.2Z"/>
    <path class="cls-6" d="M860.31,380.66l7.58,9.39s29.43,10.92,32.48,18.29c4.29,10.35-1.38,42.53-1.38,42.53l-7.78,69.31,10.64,38.37-97.55,1.66s5.91-100.55,7.29-111.19c.95-7.4,8.66-38.01,12.38-49.51l.78,3.96.44-1.8,35.12-21.01Z"/>
    <path class="cls-9" d="M813.31,429.39c0,.11,0,.21,0,.32,0,.26-.07.56-.12.95-.08.89-.22,2.1-.39,3.66-.32,3.16-.74,7.76-1.22,13.44-.96,11.34-2.06,27.05-3.15,44.39-1.09,17.34-2.1,33-2.96,44.4-.43,5.64-.77,10.22-1.02,13.45-.11,1.55-.19,2.75-.26,3.66v.96c-.02.1-.02.21,0,.32,0,0,0-.1.07-.32s0-.56.11-.95c.1-.88.22-2.1.39-3.64.33-3.16.74-7.76,1.22-13.44.96-11.34,2.06-27.05,3.15-44.4,1.09-17.35,2.12-33,2.96-44.4.43-5.64.77-10.22,1.02-13.45.11-1.54.19-2.75.26-3.66v-.95c0-.11-.02-.22-.05-.33Z"/>
    <path class="cls-9" d="M825.42,401.56c.45.56.86,1.16,1.21,1.79.76,1.16,1.8,2.89,3.27,4.87.39.51.81,1,1.25,1.46.47.51.89,1.09,1.38,1.58.43.53,1.05.86,1.73.91.74-.08,1.44-.37,2.02-.84,2.75-1.79,5.73-3.81,8.87-5.94,6.26-4.28,11.91-8.18,16.06-10.9,2.08-1.38,3.78-2.45,4.96-3.18.6-.4,1.23-.76,1.88-1.06-.54.48-1.12.91-1.73,1.29l-4.83,3.36-15.95,11.08c-3.14,2.13-6.15,4.13-8.92,5.91-.68.53-1.5.85-2.37.91-.84-.06-1.62-.47-2.16-1.13-.54-.55-.95-1.13-1.38-1.64-.45-.47-.87-.98-1.25-1.51-1.38-2.06-2.41-3.82-3.09-5.03-.38-.61-.71-1.25-.96-1.93Z"/>
    <path class="cls-9" d="M829.41,431.61c-.61.13-1.24.2-1.87.19-1.21.07-2.94.15-5.06.22h-.32v-.33c.29-2.85.69-6.42,1.14-10.3.55-4.74,1.1-9.03,1.53-12.13.21-1.55.4-2.75.54-3.67.03-.47.13-.93.3-1.38.06.46.06.92,0,1.38,0,.88-.17,2.15-.32,3.7-.29,3.11-.76,7.41-1.38,12.16-.45,3.88-.89,7.45-1.27,10.29l-.29-.33h5.05c.65,0,1.3.06,1.94.21Z"/>
    <path class="cls-3" d="M829.4,421.03c1.15.47,1.78,1.72,1.46,2.93-.42,1.18-1.67,1.83-2.87,1.5-1.18-.43-1.8-1.73-1.38-2.92.41-1.12,1.58-1.76,2.75-1.51"/>
    <rect class="cls-12" x="846.41" y="430.66" width="11.44" height="7.87"/>
    <path class="cls-6" d="M852.13,435.95l-5.82-5.18.22-.25,5.61,4.96c2.08-1.87,5.13-4.66,5.31-4.91h.32c0,.1,0,.23-5.5,5.2l-.14.18Z"/>
    <polygon class="cls-6" points="857.71 438.63 853.98 434.25 854.24 434.03 857.97 438.41 857.71 438.63"/>
    <rect class="cls-6" x="845.28" y="436.02" width="5.9" height=".34" transform="translate(-21.1 828.64) rotate(-51.51)"/>
    <path class="cls-12" d="M843.83,440.82c5.69-.48,11.41-.48,17.11,0-5.69.48-11.41.48-17.11,0Z"/>
    <g class="cls-13">
      <polygon class="cls-2" points="882.15 495.84 877.83 474 872.74 473.8 870.51 443.71 875.67 467.99 881.22 466.76 886.48 494.97 882.15 495.84"/>
    </g>
    <path class="cls-6" d="M918.71,458.37l-43.04,9.63s-6.68-28.48-6.94-36.26,9.63-31.92,24.57-26.94c0,0,4.54-.92,8.68,5.16,1.66,2.43,16.74,48.42,16.74,48.42Z"/>
    <path class="cls-9" d="M869.76,428.14c-.11-2.09.06-4.19.48-6.24.52-2.21,1.3-4.36,2.32-6.38,1.09-2.54,2.81-4.76,5.01-6.44,2.28-1.58,4.89-2.6,7.63-3,2.25-.33,4.52-.44,6.79-.33,1.53.06,3.05.25,4.55.56.54.17,1.09.31,1.65.43-.12-.09-.26-.17-.4-.22-.38-.18-.78-.33-1.18-.45-1.5-.42-3.04-.68-4.59-.78-2.29-.18-4.6-.12-6.88.19-2.84.38-5.55,1.43-7.91,3.07-2.29,1.74-4.08,4.05-5.18,6.71-1.02,2.08-1.77,4.28-2.23,6.55-.31,1.53-.42,3.1-.32,4.66.03.42.09.84.18,1.25,0,.14.03.29.07.43Z"/>
    <path class="cls-10" d="M824.83,529.08s-21.89,3.36-23.07,6.55-1.6,15.87,1.18,19.16,11.34,2.09,10.34-.67-5.18-1.82-5.18-1.82l-2.75-7.59,3.91-3.07s5.79,5.5,7.77,5.31,7.66,2.39,11.47-2.75,6.34-5.67,6.34-5.67l-10-9.45Z"/>
    <path class="cls-10" d="M824.1,543.82c-.36.29-3.47,6.02-6.88,8.13s-8.1,4.46-9.41,2.38c-.83-1.4-1.4-2.93-1.68-4.54l13.45-6.67,4.51.7Z"/>
    <path class="cls-3" d="M583.56,785.73l-72.21-63.26c-1.58-1.38-1.73-3.78-.35-5.36,1.38-1.58,3.78-1.73,5.36-.35h0l69.29,60.69c35.62-42.04,181.35-213.82,187.89-218.02,4.67-2.67,9.58-4.89,14.67-6.61,3.5-1.21,6.92-2.65,10.23-4.3,3.67-2.12,6.96-4.83,9.74-8.03,1.4-1.56,3.79-1.7,5.36-.3,1.47,1.31,1.69,3.53.51,5.1-3.38,3.96-7.43,7.31-11.95,9.89-3.63,1.83-7.37,3.42-11.21,4.76-4.55,1.54-8.95,3.49-13.15,5.83-6.96,5.76-116.6,134.32-188.79,219.54-.64.8-1.59,1.3-2.61,1.38h-.28c-.92,0-1.81-.33-2.5-.95ZM777.65,565.85h0Z"/>
    <path class="cls-8" d="M583.56,785.73l-72.21-63.26c-1.58-1.38-1.73-3.78-.35-5.36,1.38-1.58,3.78-1.73,5.36-.35h0l69.29,60.69c35.62-42.04,181.35-213.82,187.89-218.02,4.67-2.67,9.58-4.89,14.67-6.61,3.5-1.21,6.92-2.65,10.23-4.3,3.67-2.12,6.96-4.83,9.74-8.03,1.4-1.56,3.79-1.7,5.36-.3,1.47,1.31,1.69,3.53.51,5.1-3.38,3.96-7.43,7.31-11.95,9.89-3.63,1.83-7.37,3.42-11.21,4.76-4.55,1.54-8.95,3.49-13.15,5.83-6.96,5.76-116.6,134.32-188.79,219.54-.64.8-1.59,1.3-2.61,1.38h-.28c-.92,0-1.81-.33-2.5-.95ZM777.65,565.85h0Z"/>
    <path class="cls-9" d="M777.65,565.85c-.08,0-.18.1-.25,0s0-.33.1-.36l.34.63h-.19c-.08,0-.15-.08-.15-.14s0-.14.15-.19.18-.1.17-.19c-.02-.07-.08-.12-.15-.14h-.11l.34.63c.1,0,.18-.28,0-.34s-.17.06-.25.1Z"/>
    <path class="cls-9" d="M583.56,785.73c.37.3.78.54,1.22.7,1.35.46,2.84.13,3.86-.85l10.52-12.46,39.54-46.75,60.66-71.21,36.94-43,19.95-23.02c3.44-3.89,6.88-7.84,10.38-11.8,1.76-1.98,3.51-3.99,5.32-5.94l2.75-2.97c.92-.99,1.91-1.94,2.86-2.9h0c2.41-1.44,4.94-2.68,7.55-3.7,2.61-1.06,5.25-2.02,7.89-3.04,2.66-.97,5.27-2.08,7.82-3.31,2.54-1.3,4.93-2.87,7.12-4.69,2.23-1.8,4.27-3.83,6.08-6.05,1-1.62.5-3.75-1.12-4.75-.73-.45-1.6-.62-2.45-.46-.66.13-1.27.45-1.76.92-.45.48-.98,1.11-1.49,1.62-1.03,1.08-2.12,2.1-3.26,3.07-2.3,1.96-4.86,3.59-7.6,4.84-5.5,2.45-11.28,4.25-16.8,6.72-1.38.61-2.75,1.27-4.13,2.01-.67.35-1.31.75-1.93,1.18l-.81.7-.8.81c-2.15,2.17-4.21,4.46-6.27,6.72-8.25,9.16-16.5,18.56-24.75,28.07-28.88,33.31-56.55,65.69-82.51,96.19l-72.53,85.26-.19.23-.23-.21-61.74-54.14-6.77-5.94c-.5-.51-1.07-.93-1.71-1.25-1.81-.77-3.9.07-4.68,1.87-.07.16-.12.31-.17.48-.34,1.31.08,2.71,1.09,3.62l3.14,2.75c2.05,1.83,4.07,3.61,6.06,5.32l21.76,19.11c13.11,11.54,23.38,20.63,30.42,26.75l7.98,7.05c1.8,1.6,2.75,2.43,2.75,2.43,0,0-.96-.78-2.75-2.37l-8.06-7.01-30.53-26.62-21.81-19.02-6.06-5.24-3.14-2.75c-1.67-1.47-1.84-4.01-.38-5.69.6-.69,1.43-1.15,2.33-1.31.77-.13,1.55-.04,2.27.26.69.35,1.31.81,1.84,1.38l6.77,5.91,61.88,54.06h-.43l72.43-85.38c26.02-30.51,53.63-62.91,82.51-96.26,8.25-9.52,16.5-18.92,24.75-28.08,2.08-2.27,4.13-4.55,6.3-6.74l.81-.83.91-.78c.64-.45,1.3-.86,1.98-1.22,1.38-.74,2.75-1.38,4.13-2.04,5.58-2.49,11.37-4.29,16.8-6.71,2.69-1.22,5.19-2.81,7.44-4.73,1.13-.95,2.2-1.95,3.22-3.01.52-.54.95-1.06,1.5-1.65,1.57-1.65,4.18-1.71,5.83-.14,1.46,1.39,1.7,3.64.56,5.31-1.84,2.3-3.93,4.38-6.23,6.22-2.24,1.85-4.67,3.45-7.25,4.77-2.59,1.29-5.25,2.32-7.89,3.34s-5.29,1.98-7.88,3.03c-2.58.99-5.08,2.2-7.45,3.62h0c-.94.95-1.9,1.86-2.75,2.83l-2.75,2.96c-1.82,1.97-3.55,3.97-5.32,5.94l-10.38,11.79c-6.79,7.84-13.45,15.51-19.97,23.01l-36.99,43-60.75,71.1-39.7,46.6c-4.63,5.42-8.15,9.63-10.62,12.38-1.05,1.01-2.58,1.33-3.95.83-.45-.14-.87-.39-1.21-.73Z"/>
    <path class="cls-10" d="M908.38,460.66l3.66,32.21c.92,8.1-3.65,15.82-11.19,18.91l-71.04,29.06-7.01-11.76,59.82-39.26-5.32-22.13"/>
    <path class="cls-9" d="M869.96,441.78c-.02.17-.02.35,0,.52.08.4.18.88.29,1.46.28,1.38.66,3.18,1.14,5.5,1.03,4.7,2.46,11.15,4.13,18.56l.07.32h.32l8.55-1.91,24.37-5.5,7.37-1.75,1.99-.52c.24-.04.47-.11.69-.22-.24,0-.48.04-.72.1l-2.02.39-7.43,1.55-24.41,5.36-8.55,1.93.39.23c-1.73-7.4-3.25-13.83-4.33-18.52-.55-2.23-1-4.04-1.38-5.39-.15-.56-.28-1.05-.39-1.38.02-.25,0-.49-.08-.73Z"/>
  </g>
  <g id="freepik--character-1--inject-12">
    <rect class="cls-6" x="241.29" y="444.97" width="111.1" height="85.69"/>
    <rect class="cls-11" x="250.72" y="511.16" width="8.51" height="9.63"/>
    <rect class="cls-7" x="305.88" y="445.19" width="12.62" height="18.29"/>
    <rect class="cls-7" x="305.88" y="512.12" width="12.62" height="18.29"/>
    <path class="cls-9" d="M269.02,531.25c-.19,0-.36-18.85-.36-42.09s.17-42.09.36-42.09.36,18.85.36,42.09-.17,42.09-.36,42.09Z"/>
    <path class="cls-10" d="M330.86,462.08c1.92-2.12,3.95-4.13,6.09-6.02,1.38-.89,7.08-4.13,7.08-4.13,0,0,9.63-.98,10.82-.12.72.5,1.38,1.08,1.95,1.75h1.38s3.2-.48,3.69,1.49c.27,1.67-.47,3.34-1.88,4.26-.31.22-.64.4-.99.55l1.31-.34s2.75,2.05,2.21,3.75c-.53,1.24-1.34,2.33-2.37,3.2.68,1.1.62,2.51-.15,3.55l-1.38,1.86c.83,1.11,1,2.59.44,3.86-1.02,1.98-7.21,3.84-7.21,3.84,0,0-10.38.91-12.38.44-2.17-.4-4.35-.69-6.55-.87l-2.08-17.07Z"/>
    <path class="cls-1" d="M357.27,453.55c-.73.33-1.49.57-2.27.72-1.87.53-3.79.85-5.73.95-1.92-.16-3.85-.16-5.78,0-.76.14-1.49.38-2.19.72-.07,0,.59-.76,2.09-1.09,1.94-.26,3.9-.3,5.84-.11,1.9-.11,3.79-.37,5.65-.78.77-.23,1.57-.36,2.38-.4Z"/>
    <path class="cls-1" d="M360.73,459.14c.07,0-.12.33-.54.51-.53.22-1.09.35-1.66.4-.78.17-1.6.13-2.37-.11,0-.21,1.03-.43,2.3-.55l1.6-.18c.38-.05.62-.15.67-.07Z"/>
    <path class="cls-1" d="M360.4,466.07c.08.17-.51.63-1.38.96s-1.62.34-1.66.18.61-.5,1.38-.8,1.57-.51,1.66-.34Z"/>
    <path class="cls-1" d="M359.22,471.49c.14.11-.4.92-1.47,1.31s-1.99.14-1.97,0,.84-.23,1.75-.58,1.55-.85,1.69-.73Z"/>
    <polygon class="cls-10" points="331.69 460.98 312.74 465.64 312 487.69 337.35 478.1 339.24 468.8 331.69 460.98"/>
    <path class="cls-4" d="M244.68,779.96v30.87l63.5-.3c-.47-6.26-35.31-18.74-35.31-18.74l.69-11.83h-28.88Z"/>
    <g class="cls-14">
      <path class="cls-12" d="M255,788.99c-1.25.47-1.99,1.77-1.75,3.08.33,1.3,1.62,2.1,2.93,1.82,1.35-.47,2.13-1.88,1.83-3.27-.47-1.32-1.92-2.01-3.25-1.54"/>
    </g>
    <path class="cls-9" d="M244.68,810.83v-4.94l60.63.72s3.16,1.86,2.87,3.92l-63.5.3Z"/>
    <path class="cls-9" d="M272.87,792.38c0,.33-1.55.5-3.05,1.54s-2.3,2.42-2.57,2.3.14-1.98,1.98-3.23,3.64-.89,3.64-.61Z"/>
    <path class="cls-9" d="M281.19,795.24c0,.3-1.25.87-2.28,2.24s-1.31,2.75-1.62,2.75-.52-1.82.78-3.49,3.05-1.8,3.12-1.5Z"/>
    <path class="cls-9" d="M284.93,803.1c-.28.07-.73-1.53,0-3.29s2.19-2.49,2.32-2.23-.74,1.22-1.38,2.68-.63,2.79-.95,2.83Z"/>
    <path class="cls-9" d="M272.26,783.6c-.12.29-1.55-.12-3.29,0s-3.09.73-3.26.47,1.13-1.44,3.18-1.58,3.52.87,3.37,1.11Z"/>
    <path class="cls-9" d="M272.6,793.77c.19-.61.24-1.25.14-1.88-.14-1.74-.71-3.41-1.68-4.87-.66-1.01-1.5-1.88-2.49-2.57-.6-.49-1.41-.63-2.13-.36-.76.39-1.24,1.17-1.25,2.02.23,3.31,2.43,6.16,5.57,7.23,3.1.97,6.48-.02,8.58-2.5.51-.55.9-1.2,1.14-1.91.13-.4.13-.83,0-1.22-.15-.41-.46-.74-.87-.89-.66-.19-1.37-.12-1.98.19-.51.24-1.01.51-1.49.83-1.43.93-2.66,2.12-3.63,3.52-.39.49-.69,1.05-.87,1.65,1.31-1.82,2.94-3.39,4.83-4.61.85-.48,1.97-1.17,2.86-.85.4.15.55.61.37,1.16-.24.58-.58,1.11-1,1.57-1.9,2.18-4.91,3.04-7.67,2.19-2.76-.93-4.73-3.39-5.03-6.28-.01-.56.27-1.08.74-1.38.48-.14.99-.04,1.38.28.94.61,1.76,1.39,2.42,2.3.96,1.34,1.6,2.89,1.86,4.52.18,1.21.14,1.87.21,1.88Z"/>
    <polygon class="cls-4" points="215.17 781.53 215.17 791.5 214.44 809.41 190.64 809.98 189.79 791.5 190.49 780.23 215.17 781.53"/>
    <path class="cls-9" d="M202.74,808.07c-.14,0,.21-5.5.77-12.24s1.14-12.27,1.29-12.27-.21,5.5-.77,12.24-1.21,12.25-1.29,12.27Z"/>
    <polygon class="cls-9" points="214.54 806.43 190.49 806.71 190.49 809.98 214.57 809.95 214.54 806.43"/>
    <path class="cls-9" d="M190.54,796.13c.16-.35.36-.67.62-.95.64-.8,1.34-1.54,2.12-2.21,1.15-1.03,2.45-1.88,3.85-2.53,5.01-2.4,10.99-1.32,14.84,2.68.71.74,1.31,1.58,1.77,2.49.2.32.33.68.39,1.06-.73-1.16-1.57-2.25-2.49-3.26-2.4-2.31-5.6-3.6-8.92-3.59-3.32.1-6.52,1.32-9.06,3.47-2.04,1.65-3,2.93-3.11,2.85Z"/>
    <path class="cls-9" d="M268.75,548.7l-2.75-4.35-88.97,4.13s-1.71,27.64-.47,37.76c.39,3.25,2.23,15.83,2.23,15.83l2.19,97.48c.84,7.74,2.94,89.12,2.94,89.12h35.33l7.19-130.45c.76-14.52.21-36.52.94-52.59l12.12,49.2,9.02,30.25s-1.94,15.02-4.13,32.89c-2.98,25.06-2.89,69.53-2.89,69.53l36.21.58s5.02-46.2,8.95-73.19l3.37-32.07c0-5.39-2.35-18.56-2.75-20.74l-18.52-113.41Z"/>
    <path class="cls-4" d="M235.21,608.59c-.56-.13-1.1-.31-1.62-.55-.64-.22-1.26-.48-1.86-.78-.81-.37-1.61-.78-2.38-1.22-.95-.51-1.87-1.08-2.75-1.69-.99-.63-1.97-1.38-3-2.21-4.44-3.6-8.09-8.08-10.71-13.16-.57-1.1-1.09-2.24-1.54-3.4-.42-1-.78-2.01-1.09-3.05-.28-.85-.51-1.71-.69-2.59-.17-.65-.3-1.31-.39-1.98-.11-.56-.17-1.13-.18-1.71.14,0,.45,2.41,1.69,6.13.32.92.67,1.94,1.14,2.98s1,2.16,1.58,3.31c2.65,4.97,6.23,9.38,10.56,12.98,1,.81,1.95,1.6,2.92,2.23s1.86,1.24,2.75,1.75c3.34,2.04,5.61,2.87,5.56,2.96Z"/>
    <path class="cls-4" d="M269.56,569.89c-1.01.23-2.05.26-3.07.1-2.49-.27-4.9-1.05-7.07-2.3-2.17-1.25-4.04-2.95-5.5-4.98-.62-.82-1.09-1.76-1.38-2.75.11,0,.65.99,1.82,2.45,1.53,1.88,3.4,3.47,5.5,4.68,2.11,1.19,4.41,2.01,6.79,2.41,1.73.32,2.9.29,2.9.4Z"/>
    <path class="cls-10" d="M207.09,341.6l-.69,54.73c-.11,9.31,1.62,23.01,16.34,22.51h0c12.75-1.38,16.13-13.45,16.23-22.14,0-4.13.1-7.55.12-7.98,0,0,13.96-1.14,15.13-14.92.58-6.66.63-20.46.54-33-.11-13.42-10.5-24.51-23.89-25.48l-1.38-.1c-14.37-.17-22.62,11.96-22.4,26.38Z"/>
    <path class="cls-1" d="M239.09,388.73c-6.37-.48-12.46-2.78-17.56-6.61,0,0,3.64,10.4,17.49,10.15l.07-3.53Z"/>
    <path class="cls-9" d="M231.19,346.5c-.28.28-1.87-1-4.13-1.06s-4.03,1.07-4.26.77.17-.65.91-1.17c1.02-.67,2.22-1.02,3.44-.98,1.21.04,2.37.46,3.31,1.21.63.58.87,1.1.73,1.22Z"/>
    <path class="cls-9" d="M231.12,351.27c-.07,1.01-.92,1.79-1.94,1.76-.99,0-1.79-.8-1.79-1.79,0-.01,0-.03,0-.04.06-1.01.91-1.79,1.93-1.75.99,0,1.79.79,1.8,1.77,0,.01,0,.03,0,.04Z"/>
    <path class="cls-9" d="M236.97,362.56c1.14-.28,2.32-.4,3.49-.37.55,0,1.06-.08,1.18-.45.08-.55,0-1.12-.25-1.62-.41-1.38-.84-2.75-1.29-4.24-1.8-6.04-3.05-11-2.75-11s1.9,4.76,3.69,10.78c.43,1.49.84,2.9,1.22,4.26.3.68.35,1.44.14,2.15-.19.38-.54.64-.95.73-.31.03-.62.03-.94,0-1.19.08-2.38,0-3.55-.23Z"/>
    <path class="cls-9" d="M230.24,337.82c-.23.51-2.08.12-4.29.25s-4.03.59-4.29.1c-.11-.23.23-.7.99-1.16,2.01-1.11,4.43-1.22,6.53-.28.74.4,1.13.84,1.06,1.09Z"/>
    <path class="cls-9" d="M252.14,342.1c-.25.41-2.05,0-4.24-.11s-3.99.21-4.22-.22c-.1-.22.26-.59,1.02-.92,2.09-.81,4.43-.71,6.45.26.74.39,1.1.8.99.99Z"/>
    <path class="cls-10" d="M207.46,351.89c-.22-.11-9.27-3.49-9.63,5.95s9.19,7.89,9.21,7.62.41-13.57.41-13.57Z"/>
    <path class="cls-1" d="M204.27,361.76s-.17.11-.45.23c-.39.16-.83.16-1.22,0-1.2-.85-1.86-2.26-1.73-3.73,0-.81.19-1.61.55-2.34.2-.6.69-1.06,1.29-1.22.39-.09.8.12.95.5.12.28,0,.45.1.47s.22-.14.15-.54c-.04-.24-.16-.45-.34-.61-.25-.21-.58-.31-.91-.28-.79.12-1.46.64-1.77,1.38-.43.8-.66,1.7-.67,2.61-.15,1.7.73,3.32,2.23,4.13.51.16,1.06.09,1.51-.19.3-.18.37-.39.33-.41Z"/>
    <path class="cls-9" d="M234.74,369.11c.11-.25-1.75-.8-3.05-2.53-.56-.76-1.03-1.59-1.38-2.48-.28-.69-.48-1.11-.58-1.09s-.08.5.08,1.25c.2.99.61,1.93,1.21,2.75.62.82,1.45,1.46,2.41,1.84.8.3,1.28.33,1.31.25Z"/>
    <path class="cls-9" d="M252.25,347.31c-.28.29-1.86-.99-4.13-1.06s-4.03,1.07-4.28.77.17-.63.92-1.17c1.01-.67,2.21-1.01,3.42-.98,1.21.03,2.37.45,3.31,1.21.65.63.87,1.22.74,1.22Z"/>
    <path class="cls-9" d="M251.86,351.94c-.07,1.01-.93,1.79-1.94,1.75-.99,0-1.79-.79-1.8-1.77,0-.01,0-.03,0-.04.07-1.01.93-1.79,1.94-1.75.99,0,1.79.79,1.8,1.77,0,.01,0,.03,0,.04Z"/>
    <path class="cls-9" d="M264.36,322.56c-1.94-3.15-5.9-4.4-9.3-2.94,1.07-5.54-2.55-10.9-8.09-11.97-3.5-.68-7.1.52-9.49,3.15-.25-1.17-.99-2.17-2.04-2.75-1.04-.58-2.19-.93-3.38-1.02-5.74-.64-11.38,1.82-14.82,6.46-5.58-.65-11.13,1.39-14.96,5.5-4.44,4.92-5.28,16.32-.41,26.13l1.14,6.17c1.36-.16,2.73.18,3.86.95,1.28,1.16,1.84,3.31,3.96,2.49,1.09-.41,2.08-2.75,2.43-3.78,2.4-7.33,3.19-15.09,2.32-22.76,1.52-1.61,3.33-2.92,5.34-3.85l-.15.14c3.85-1.38,8.25-2.64,11.85-.84,2.83,1.38,4.5,4.35,6.61,6.68,3.95,4.39,9.53,6.96,15.43,7.12.19,3.88-.12,9.36.07,13.24l3.27-6.22h0c.26-.45.48-.92.7-1.38l.07-.14h0c.73-.8,1.42-1.65,2.06-2.53,1.98-2.3,2.51-5.51,1.38-8.32,3-2.2,3.92-6.28,2.15-9.56Z"/>
    <polygon class="cls-9" points="259.91 340.75 259.89 340.74 259.89 340.74 259.91 340.75"/>
    <path class="cls-4" d="M258.71,322.7s0,.07.07.21c.05.2.08.41.08.62.03.78-.16,1.54-.55,2.21-.27.47-.62.89-1.05,1.22-.51.38-1.1.63-1.73.73-1.48.23-2.98-.33-3.93-1.49l.23-.19c.45.5.69,1.17.66,1.84-.02.9-.4,1.75-1.05,2.38-.63.55-1.41.89-2.24.96-1.38.1-2.75-.28-3.88-1.07-.76-.51-1.45-1.1-2.08-1.76-.25-.23-.47-.48-.67-.76.27.2.52.42.76.66.65.62,1.35,1.17,2.1,1.66,1.1.74,2.42,1.08,3.74.98.76-.07,1.48-.39,2.05-.89.59-.57.94-1.34.96-2.16.02-.6-.18-1.19-.58-1.64l.23-.21c.89,1.06,2.27,1.58,3.64,1.38,1.11-.16,2.08-.82,2.65-1.79.38-.64.59-1.36.61-2.1.01-.5-.07-.78-.04-.8Z"/>
    <path class="cls-4" d="M246.88,312.34l.21.1c.19.1.36.22.52.36.61.48,1.08,1.12,1.38,1.84.47,1.12.34,2.4-.33,3.41-.4.6-1.01,1.03-1.72,1.18-.76.16-1.55,0-2.2-.43-.2-.15-.38-.32-.52-.52l.28-.15c.27.69.24,1.45-.08,2.12-.28.61-.76,1.1-1.38,1.38-1.02.47-2.2.47-3.22,0-.67-.33-1.26-.8-1.73-1.38-.19-.19-.34-.41-.45-.65,0,0,.19.21.54.56.5.51,1.09.91,1.75,1.2.95.43,2.05.43,3,0,.55-.27.98-.72,1.22-1.28.28-.59.31-1.26.07-1.87l-.51-1.17.77,1.02c.13.17.28.31.45.44.57.4,1.29.53,1.97.39.63-.13,1.18-.51,1.54-1.05.63-.93.76-2.11.36-3.16-.28-.7-.72-1.33-1.29-1.83-.36-.33-.62-.48-.61-.51Z"/>
    <path class="cls-4" d="M167.72,429.53s-10.62,60.26-10.09,65.9,3.33,14.6,9.72,16.13c4.05.91,8.25.91,12.29,0l-7.67-74.01-4.25-8.02Z"/>
    <path class="cls-4" d="M268.28,522.37l-1.95-27.39.59-36.84-7.49-49.51c-.22-1.43-1.19-2.64-2.54-3.16l-11.59-4.52-1.66-6.53s-10.24-7.55-27.12-7.77c-5.2-.07-12.56,1.97-16.65,5.16l-1.07,6.63s-12.69,9.02-15.51,11.67c-11.73,11.11-14.19,15.65-15.55,19.4s8.14,91.08,8.14,91.08l-1.27,15.72-1.94,5.79c-.91,3.93,0,10.63,4.13,10.81l92.27-.39c4.08.06.01-26.11-.77-30.14Z"/>
    <path class="cls-4" d="M323.29,461.06l-34.71,3.14c-1.82-4.94-4.91-1.93-4.91-1.93,0,0-10.4-23.18-13.75-34.57-3.74-12.72-7.73-17.68-9.45-20.01-1.28-1.72-5.27-2.63-5.27-2.63-6.39-1.43-13.06.6-17.57,5.34-9.63,10.12-6.04,38.23-6.04,38.23l13.48,19.64c.91,2.64,7.41,13.75,15.13,22.99,4.21,5.01,10.87,7.26,17.26,5.84l49.11-10.62c1.39-8.61.25-17.45-3.27-25.43Z"/>
    <path class="cls-9" d="M245.29,400.94c-.16,0-.32-.04-.47-.1l-1.38-.34c-1.14-.29-2.75-.69-4.9-1.09-5.45-1.01-10.96-1.69-16.5-2.02-5.52-.41-11.05-.41-16.57,0-1.67.14-3.33.36-4.98.66l-1.38.26-.47.07c.14-.07.3-.11.45-.14l1.38-.34c1.64-.36,3.3-.62,4.98-.78,5.52-.51,11.08-.57,16.61-.17,5.54.34,11.06,1.05,16.5,2.15,2.08.43,3.74.88,4.88,1.21l1.38.43c.16.05.31.12.45.21Z"/>
    <g class="cls-13">
      <path class="cls-2" d="M199.07,398.37c13.96,2.48,28.09,0,42.85,1.77-14.25-2.94-29.1-4.35-42.85-1.77"/>
    </g>
    <g class="cls-13">
      <path class="cls-2" d="M174.59,511.68c-7.84-18.37-6.33-38.5-5.27-58.47l5.27,58.47Z"/>
    </g>
    <path class="cls-9" d="M168.62,442.57v.22c0,.17,0,.37.07.63,0,.58.12,1.38.22,2.41.18,2.13.44,5.16.76,8.9.63,7.49,1.5,17.88,2.54,29.32s2.13,21.8,3,29.29c.44,3.74.81,6.77,1.07,8.86l.29,2.41c0,.26,0,.47.07.63s0,.21,0,.22,0-.08,0-.22,0-.36-.1-.62c-.1-.58-.22-1.38-.37-2.41-.32-2.08-.73-5.1-1.2-8.84-.95-7.48-2.06-17.88-3.11-29.29-1.05-11.41-1.87-21.82-2.43-29.33-.26-3.74-.48-6.77-.63-8.9,0-1.03-.12-1.84-.15-2.42v-.63c0-.17-.04-.22-.03-.22Z"/>
    <path class="cls-9" d="M228.06,432.82h-8.28c-5.1.12-12.16.5-19.88,1.38s-14.69,2.23-19.68,3.31c-2.5.54-4.51,1-5.9,1.38l-1.6.37c-.19.05-.38.09-.58.1l.55-.18,1.58-.44c1.38-.39,3.38-.89,5.89-1.47,13-2.99,26.28-4.57,39.62-4.72h7.7c.2.08.39.17.58.28Z"/>
    <path class="cls-9" d="M193.83,452.33c-.11,0,.1-8.36.45-18.65s.74-18.62.85-18.62-.1,8.35-.45,18.63-.74,18.63-.85,18.63Z"/>
    <g class="cls-13">
      <path class="cls-2" d="M173.59,439.45c5.64-.3,11.25-1.05,16.78-2.24-.67,2.44-.99,4.96-.94,7.49,1.75-1.98,3.03-4.33,3.73-6.88.42,2.77,1.95,5.25,4.22,6.88.56-2.5.68-5.09.37-7.63,8.33-1.01,16.61-2.38,24.84-4.13-16.65-.41-33.26,1.66-49.3,6.13"/>
    </g>
    <g class="cls-13">
      <path class="cls-2" d="M240.48,458.19s9.27,45.38,26.42,44.72l.33-6.67c-9.64-4.32-18.22-20.93-26.75-38.05Z"/>
    </g>
    <path class="cls-9" d="M318.69,488.8c-.33.11-.67.2-1.02.26l-2.96.63-10.86,2.21-16.13,3.19c-3.04.61-6.19,1.38-9.52,1.98-2.58.49-5.22.58-7.82.29-.95-.06-1.89-.31-2.75-.72-.19-.1-.35-.24-.47-.41l.21.15c-1.73-.56-3.3-1.5-4.62-2.75-1.28-1.15-2.47-2.39-3.56-3.71-2.01-2.5-3.87-5.13-5.57-7.85-3.33-5.17-6-10.02-8.17-14.12s-3.81-7.48-4.92-9.82c-.54-1.13-.95-2.04-1.27-2.75-.15-.31-.29-.63-.4-.96.21.28.38.59.52.91.33.66.8,1.54,1.38,2.65,1.2,2.3,2.9,5.64,5.12,9.71s4.92,8.88,8.25,14.01c1.74,2.69,3.63,5.27,5.67,7.74,1.08,1.29,2.25,2.51,3.51,3.63,1.24,1.17,2.72,2.06,4.35,2.59l.21.15c.07.06.15.12.23.17.76.36,1.58.58,2.42.65.87.1,1.73.14,2.59.15,1.7.03,3.39-.11,5.06-.43,3.3-.59,6.46-1.38,9.5-1.94l16.17-3.05,10.9-2.01,2.97-.51c.33-.04.66-.06.99-.04Z"/>
    <path class="cls-9" d="M323.29,461.06c-.21.07-.44.12-.66.12l-1.93.23-7.21.74-24.88,2.39h-.23l-.11-.22c-.38-.94-1-1.77-1.8-2.41-.86-.51-1.96-.26-2.52.56l-.39.45-.22-.54c-.98-2.34-1.99-4.77-3.03-7.26-5.17-12.61-9.63-24.12-12.89-32.41-1.65-4.13-3.03-7.48-4.02-9.76l-1.16-2.63c-.16-.3-.29-.61-.39-.94.2.27.37.56.51.87.32.58.74,1.38,1.29,2.57,1.06,2.26,2.52,5.57,4.22,9.69,3.44,8.25,7.91,19.73,13.08,32.33,1.03,2.49,2.05,4.92,3.01,7.26l-.61-.08c.41-.5.96-.86,1.58-1.05.64-.17,1.32-.05,1.87.33.92.71,1.63,1.66,2.05,2.75l-.34-.19,24.92-2.13,7.21-.55,1.94-.12.67-.03Z"/>
    <path class="cls-9" d="M253.5,409.98c-2.55-.04-5.09.16-7.6.61-2.7.55-5.23,1.69-7.43,3.36-2.6,2.14-4.61,4.91-5.82,8.06-1.24,3.14-1.91,6.47-1.97,9.85-.06,2.76.09,5.52.45,8.25.29,2.35.61,4.25.8,5.57.14.67.22,1.36.23,2.05-.23-.65-.4-1.32-.51-2.01-.28-1.29-.67-3.19-1.02-5.5-.45-2.77-.66-5.57-.62-8.37.02-3.46.69-6.89,1.97-10.11,1.26-3.24,3.35-6.09,6.08-8.25,2.28-1.71,4.93-2.85,7.73-3.34,1.86-.34,3.76-.46,5.65-.36.66,0,1.18.08,1.53.14.18,0,.35.02.52.07Z"/>
  </g>
</svg>