<?xml version="1.0" encoding="UTF-8"?>
<svg id="Layer_2" data-name="Layer 2" xmlns="http://www.w3.org/2000/svg" viewBox="0 0 1000 1000">
  <defs>
    <style>
      .cls-1 {
        fill: #000;
      }

      .cls-1, .cls-2, .cls-3, .cls-4, .cls-5, .cls-6, .cls-7, .cls-8, .cls-9, .cls-10, .cls-11 {
        stroke-width: 0px;
      }

      .cls-2 {
        fill: #e0e0e0;
      }

      .cls-3 {
        fill: #eb996e;
      }

      .cls-4 {
        fill: #455a64;
      }

      .cls-5 {
        fill: #f5f5f5;
      }

      .cls-6 {
        fill: #09f;
      }

      .cls-7 {
        fill: #ffbe9d;
      }

      .cls-8 {
        fill: #ebebeb;
      }

      .cls-9 {
        fill: #263238;
      }

      .cls-10 {
        fill: #fafafa;
      }

      .cls-12 {
        opacity: .3;
      }

      .cls-11 {
        fill: #fff;
      }

      .cls-13 {
        opacity: .4;
      }
    </style>
  </defs>
  <g id="freepik--background-complete--inject-2">
    <path class="cls-8" d="M133.58,611.93c-.84-5.58-6.03-9.42-11.61-8.59-5.58.84-9.42,6.03-8.59,11.61l44.77,273.14h20.42l-44.99-276.16Z"/>
    <path class="cls-8" d="M117.62,615.29l184.47-202.66,1.35,2.23,8.93,14.8-179.62,199.32c-3.72,4.23-10.17,4.65-14.41.93-4.23-3.72-4.65-10.17-.93-14.41.06-.07.13-.14.19-.21h0Z"/>
    <path class="cls-2" d="M131.17,620.48c.14,0,.32-.42.24-1.27-.13-1.23-.74-2.36-1.69-3.14-1.48-1.24-3.5-1.62-5.33-.99-2.99.99-4.62,4.22-3.63,7.21.57,1.72,1.91,3.06,3.63,3.63,1.83.63,3.86.24,5.33-1.01.95-.78,1.56-1.9,1.69-3.12,0-.86,0-1.29-.24-1.29s-.32,1.99-2.35,3.26c-1.12.73-2.53.87-3.78.38-2.01-.9-2.9-3.25-2-5.26.4-.89,1.11-1.6,2-2,1.25-.49,2.66-.35,3.78.38,2.03,1.39,2.03,3.36,2.35,3.24Z"/>
    <path class="cls-2" d="M128.36,603.49c-.22-.18-2.33,1.77-5.55,5.09-1.95,1.93-3.8,3.96-5.53,6.09-2.37,2.79-3.43,6.46-2.91,10.09.96,3.65,3.84,6.48,7.5,7.36,2.87.78,5.93.35,8.48-1.17,4.14-2.61,5.59-5.25,5.45-5.35s-2.19,1.99-6.13,3.98c-2.25,1.15-4.86,1.37-7.28.64-2.9-.8-5.16-3.07-5.97-5.97-.38-3.05.5-6.12,2.43-8.52,1.71-2.41,3.64-4.44,5.07-6.25,2.93-3.48,4.64-5.79,4.44-5.99Z"/>
    <path class="cls-2" d="M259.55,912.19H91.59s21.45-26.72,77.36-26.72c52.07,0,83.09,15.3,90.6,26.72Z"/>
    <polygon class="cls-8" points="301.04 380.49 292.5 367.7 303.05 359.6 312.1 372.49 301.04 380.49"/>
    <path class="cls-5" d="M286.57,388.23l36.77-26.66,35.36,42.44c61.21,9.95,85.88,48.37,85.88,48.37l-109.58,83.91c-37.51-41.47-19.74-100.68-19.74-100.68l-28.69-47.38Z"/>
    <path class="cls-2" d="M315.19,435.61c.34.46,10.35-6.23,22.33-14.94,11.98-8.72,21.45-16.18,21.11-16.63s-10.33,6.23-22.33,14.94c-12,8.72-21.37,16.18-21.11,16.63Z"/>
    <rect class="cls-8" x="104.29" y="104.75" width="216.17" height="216.17"/>
    <rect class="cls-11" x="110.66" y="111.11" width="203.46" height="203.46"/>
    <rect class="cls-2" x="183.16" y="183.62" width="58.42" height="58.42"/>
    <rect class="cls-2" x="320.46" y="104.81" width="9.11" height="216.11"/>
    <rect class="cls-8" x="679.34" y="389.05" width="216.17" height="216.17"/>
    <rect class="cls-11" x="685.69" y="395.42" width="203.46" height="203.46"/>
    <rect class="cls-2" x="758.22" y="467.93" width="58.42" height="58.42"/>
    <rect class="cls-2" x="895.51" y="389.11" width="9.11" height="216.11"/>
    <rect class="cls-2" x="748.97" y="103.04" width="28" height="139.29" transform="translate(-.92 4.13) rotate(-.31)"/>
    <rect class="cls-8" x="506.29" y="103.51" width="72.49" height="76.91" transform="translate(-.76 2.94) rotate(-.31)"/>
    <rect class="cls-5" x="578.44" y="103.14" width="72.49" height="76.91" transform="translate(-.76 3.33) rotate(-.31)"/>
    <path class="cls-2" d="M506.19,125.02c48.17.4,96.38.18,144.64-.66.43,0,.78-.35.77-.78,0-.43-.35-.77-.77-.77-48.17-.26-96.49,0-144.64.9-.36,0-.66.29-.66.66,0,.36.29.66.66.66Z"/>
    <rect class="cls-8" x="461.06" y="179.29" width="131.71" height="62.66" transform="translate(-1.13 2.85) rotate(-.31)"/>
    <rect class="cls-5" x="592.14" y="178.6" width="131.71" height="62.66" transform="translate(-1.13 3.56) rotate(-.31)"/>
    <path class="cls-2" d="M460.98,197.11c87.55.99,175.28,0,262.77-1.29.43,0,.78-.35.77-.78,0-.43-.35-.77-.77-.77-87.55-.46-175.3-.4-262.79,1.51-.37.06-.61.41-.55.78.05.28.27.5.55.55h.02Z"/>
    <rect class="cls-2" x="411.71" y="242.34" width="510.27" height="22.44"/>
    <rect class="cls-2" x="495.26" y="253.15" width="20.71" height="76.61"/>
    <rect class="cls-2" x="804.48" y="253.15" width="20.71" height="76.61"/>
    <rect class="cls-8" x="776.43" y="51.07" width="28" height="191.58" transform="translate(-.78 4.28) rotate(-.31)"/>
    <rect class="cls-5" x="804.56" y="86.8" width="43.5" height="155.24" transform="translate(-.88 4.47) rotate(-.31)"/>
    <path class="cls-2" d="M847.34,116.63c0,.42-9.73.76-21.75.76s-21.75-.34-21.75-.76,9.73-.76,21.75-.76,21.75.34,21.75.76Z"/>
    <path class="cls-2" d="M847.34,110.1c0,.42-9.73.76-21.75.76s-21.75-.34-21.75-.76,9.73-.76,21.75-.76,21.75.34,21.75.76Z"/>
    <path class="cls-2" d="M847.34,218.54c0,.42-9.73.76-21.75.76s-21.75-.34-21.75-.76,9.73-.76,21.75-.76,21.75.4,21.75.76Z"/>
    <path class="cls-2" d="M847.34,212.08c0,.42-9.73.76-21.75.76s-21.75-.34-21.75-.76,9.73-.74,21.75-.74,21.75.34,21.75.74Z"/>
    <path class="cls-2" d="M826.31,197.85c-.42,0-.74-15.66-.74-34.98s.32-34.98.74-34.98.76,15.66.76,34.98-.36,34.98-.76,34.98Z"/>
    <rect class="cls-8" x="847.82" y="124.84" width="47.34" height="117.18"/>
    <path class="cls-2" d="M797.54,83.77c-.05,4.4-3.66,7.91-8.06,7.86-4.4-.05-7.91-3.66-7.86-8.06.05-4.36,3.6-7.86,7.96-7.86,4.4,0,7.96,3.56,7.96,7.96,0,.03,0,.07,0,.1Z"/>
    <rect class="cls-2" x="787.01" y="105.9" width="4.97" height="113.96"/>
  </g>
  <g id="freepik--Plant--inject-2">
    <polygon class="cls-6" points="106.4 821.33 119.77 909.2 197.45 909.2 215.48 822.61 106.4 821.33"/>
    <path class="cls-10" d="M204.61,877.65c0,.26-19.9.46-44.45.46s-44.45-.2-44.45-.46,19.9-.46,44.45-.46,44.45.2,44.45.46Z"/>
    <path class="cls-10" d="M204.91,873.33c0,.24-20.04.46-44.75.46s-44.75-.22-44.75-.46,20.04-.46,44.75-.46,44.75.2,44.75.46Z"/>
    <path class="cls-10" d="M204.77,868.45c0,.24-20.04.44-44.75.44s-44.77-.2-44.77-.44,20.04-.46,44.77-.46,44.75.2,44.75.46Z"/>
    <path class="cls-10" d="M128.7,904.19c-1.09-3.62-1.89-7.32-2.39-11.06-.79-3.7-1.29-7.45-1.49-11.22,1.1,3.61,1.9,7.32,2.39,11.06.79,3.7,1.29,7.45,1.49,11.22Z"/>
    <path class="cls-10" d="M133.98,903.25c-.55-3.58-.87-7.19-.96-10.8-.38-3.59-.56-7.21-.52-10.82,1.42,7.12,1.91,14.39,1.47,21.63Z"/>
    <path class="cls-10" d="M143.61,903.25c-1.04-3.62-1.71-7.33-1.99-11.08-.59-3.71-.79-7.47-.6-11.22,1.12,7.4,1.99,14.84,2.61,22.31h-.02Z"/>
    <path class="cls-10" d="M150.37,903.71c-.74-3.7-1.1-7.47-1.07-11.24-.26-3.77-.15-7.56.34-11.3.41,3.74.6,7.5.58,11.26.28,3.75.33,7.52.16,11.28Z"/>
    <path class="cls-10" d="M162.33,903.25c-.57-3.53-.84-7.11-.82-10.69-.31-3.56-.31-7.14,0-10.71.85,7.1,1.09,14.25.72,21.39h.1Z"/>
    <path class="cls-10" d="M171.09,903.71c-.56-7.35-.5-14.73.18-22.07.54,7.35.48,14.73-.18,22.07Z"/>
    <path class="cls-10" d="M179.28,902.54c.16-7.71.94-15.4,2.33-22.98.07,3.86-.15,7.72-.66,11.54-.26,3.85-.82,7.68-1.67,11.44Z"/>
    <path class="cls-10" d="M189.85,901.38c.02-3.31.46-6.61,1.29-9.81.56-3.27,1.54-6.45,2.91-9.47-.49,3.26-1.15,6.49-1.99,9.67-.55,3.24-1.29,6.45-2.21,9.61Z"/>
    <path class="cls-6" d="M97.5,803.94v16.44c-.01,3.56,2.87,6.46,6.43,6.47.03,0,.05,0,.08,0h112.42c3.57.01,6.48-2.88,6.49-6.45,0,0,0-.01,0-.02v-16.44h-125.42Z"/>
    <g class="cls-13">
      <polygon class="cls-1" points="107.25 826.85 108.19 832.08 211.96 839.48 214.6 826.85 107.25 826.85"/>
    </g>
    <path class="cls-4" d="M114.44,804.02s-43.74-50.4-38.88-52.21c4.86-1.81,43.78,26.11,43.78,26.11,0,0-33.41-74.7-26.72-80.17,6.69-5.47,41.91,66.2,41.91,66.2,0,0-5.47-104.44,0-105.66s25.51,104.44,25.51,104.44c0,0,29.73-96.49,38.22-96.49s-9.11,92.92-9.11,92.92c0,0,35.22-59.52,40.69-51.62,5.47,7.9-24.89,72.11-24.89,72.11,0,0,44.33-37.05,46.14-32.2,1.81,4.86-47.97,56.49-47.97,56.49l-88.67.06Z"/>
    <path class="cls-9" d="M108.33,728.11c.3-.14,7.96,16.48,17.33,37.13,9.37,20.65,16.54,37.49,16.22,37.63s-7.96-16.5-17.31-37.13c-9.35-20.63-16.58-37.51-16.24-37.63Z"/>
    <path class="cls-9" d="M143.67,737.38c.32,0,1.61,14.64,2.87,32.73,1.25,18.09,1.99,32.81,1.69,32.83s-1.63-14.63-2.89-32.73c-1.25-18.11-2.01-32.79-1.67-32.83Z"/>
    <path class="cls-9" d="M192.38,690.6c-.03.41-.11.81-.26,1.19-.24.9-.56,1.99-.96,3.32-.92,3.04-2.15,7.16-3.66,12.16-3.08,10.29-7.22,24.51-11.44,40.31-4.22,15.8-7.72,30.23-10.17,40.67-1.17,5.09-2.17,9.27-2.89,12.38-.32,1.35-.6,2.45-.82,3.36-.07.4-.2.79-.38,1.15,0-.41.05-.82.14-1.21l.6-3.4c.54-2.94,1.41-7.2,2.53-12.46,2.23-10.51,5.59-24.95,9.83-40.79,4.24-15.84,8.5-30.05,11.8-40.25,1.63-5.11,3.02-9.23,3.98-12.08.48-1.29.86-2.37,1.17-3.24.13-.39.3-.76.52-1.11Z"/>
    <path class="cls-9" d="M213.45,744.45c.28.2-8.26,12.93-19.06,28.43-10.8,15.5-19.78,27.86-20.04,27.74s8.26-12.91,19.06-28.43c10.8-15.52,19.78-27.92,20.04-27.74Z"/>
    <path class="cls-9" d="M129.18,802.95c-1.39-.73-2.68-1.65-3.82-2.73-2.91-2.41-5.69-4.97-8.32-7.68-2.64-2.7-5.13-5.55-7.46-8.52-1.07-1.19-1.96-2.53-2.65-3.98.28-.22,4.84,5.29,10.96,11.58s11.52,11.04,11.28,11.32Z"/>
    <path class="cls-9" d="M155.74,782.93c.34,0,1.03,4.62,1.55,10.39s.7,10.49.36,10.51-1.01-4.62-1.55-10.39c-.5-3.48-.62-7-.36-10.51Z"/>
  </g>
  <g id="freepik--Character--inject-2">
    <path class="cls-9" d="M723.89,562.48c27.72-5.13,46.03-31.76,40.9-59.47-1.75-9.48-6.16-18.27-12.7-25.35-1.72-2.16-4.07-3.74-6.73-4.5-5.67-1.15-10.41,4.12-13.77,8.83l-24.36,33.99"/>
    <path class="cls-9" d="M716.49,525.81c20.28-14.43,33.25-42.36,35.48-67.14,2.23-24.77-13.75-71.29-24.36-93.8-12.91-27.4-18.25,11.76-27.5,16.56-5.51,2.85-8.62,9.07-9.31,15.24s.6,12.36,1.99,18.43c7.96,36.89,15.92,73.8,23.88,110.71"/>
    <path class="cls-9" d="M617.94,301.18c-40.57-13.27-68.17,3.78-80.61,17.67-12.44,13.89-18.05,32.63-20.22,51.14-2.17,18.51-1.21,37.21-2.33,55.71-.82,10.72-.86,21.49-.12,32.21.6,15.64,6.17,42.74,16.36,54.64,9.79,11.42,19.9,21.35,33.83,27.26,4.97,2.13,10.8,4.24,15.58,1.71,3.48-1.81,5.39-5.61,7.04-9.17,29.94-64.62,50.2-133.31,60.13-203.84"/>
    <path class="cls-7" d="M666.81,336.58l-68.75-14.37-16.5,4.88c-37.81,6.69-56.59,52.91-51.52,83.57,5.63,34.07,13.93,75.41,23.62,99.49,19.64,48.51,59.69,46,59.69,46,0,0,1.99,13.93,4.62,30.82,4.57,29.59,32.27,49.88,61.87,45.31.78-.12,1.57-.26,2.34-.42h0c28.86-5.77,47.84-33.51,42.78-62.5l-38.16-218.48c-1.95-9.23-10.63-15.44-20-14.31Z"/>
    <path class="cls-9" d="M554.82,444.21c.78,3.51,4.21,5.76,7.74,5.07,3.46-.51,5.85-3.72,5.34-7.18,0-.06-.02-.12-.03-.18-.78-3.5-4.2-5.74-7.72-5.07-3.47.51-5.87,3.73-5.36,7.2,0,.05.02.11.03.16Z"/>
    <path class="cls-9" d="M546.58,425.6c.99.66,5.05-4.1,11.94-5.67,6.88-1.57,12.85.7,13.41-.32.3-.46-.88-1.79-3.48-2.91-3.49-1.38-7.31-1.66-10.96-.8-3.61.83-6.87,2.78-9.31,5.57-1.69,2.15-2.07,3.84-1.59,4.12Z"/>
    <path class="cls-9" d="M599.23,472.84c0-.4-4.56-.16-11.76.58-1.83.22-3.58.26-4.16-.9-.56-1.8-.56-3.73,0-5.53.68-4.68,1.39-9.57,2.13-14.72,2.85-20.91,4.48-37.97,3.62-38.06-.86-.1-3.84,16.77-6.69,37.69-.66,5.16-1.29,10.08-1.87,14.76-.22,2.17-.84,4.72.68,7.16.8,1.17,2.1,1.91,3.52,1.99,1.04.04,2.09-.05,3.1-.28,7.1-1.31,11.48-2.29,11.42-2.69Z"/>
    <path class="cls-3" d="M613.4,556.19c23.8-5.11,45.72-16.73,63.3-33.57,0,0-9.95,39.06-61.41,45.98l-1.89-12.42Z"/>
    <path class="cls-3" d="M606.41,487.17c1.75-4.29,5.64-7.32,10.23-7.96,3.21-.65,6.53.27,8.95,2.47,2.49,2.45,3.34,6.12,2.19,9.41-1.55,3.49-5.08,5.66-8.89,5.47-3.61-.32-7.09-1.49-10.17-3.4-.94-.4-1.77-1.01-2.45-1.77-.52-1.37-.47-2.89.14-4.22Z"/>
    <path class="cls-9" d="M620.78,472.92c-1.13.2.6,7.74-4.64,14.59-5.23,6.84-13.43,7.96-13.25,8.95,0,.5,2.13,1.03,5.55.36,4.43-.96,8.38-3.46,11.16-7.04,2.67-3.44,3.89-7.79,3.4-12.12-.44-3.22-1.65-4.89-2.23-4.74Z"/>
    <path class="cls-9" d="M544.09,405.82c1.57,1.29,5.97-1.45,11.72-2.87,5.75-1.41,10.88-1.39,11.62-3.3.32-.92-.82-2.31-3.3-3.32-6.7-2.31-14.13-.35-18.8,4.97-1.57,2.09-1.95,3.86-1.23,4.52Z"/>
    <path class="cls-9" d="M629.87,430c.71,3.52-1.52,6.96-5.01,7.76-3.37.94-6.86-1.03-7.79-4.4-.02-.06-.03-.12-.05-.18-.71-3.52,1.52-6.96,5.01-7.76,3.37-.94,6.86,1.03,7.79,4.4.02.06.03.12.05.18Z"/>
    <path class="cls-9" d="M640.02,408.05c-.64,1.01-6.29-1.69-13.27-.34-6.98,1.35-11.48,5.85-12.4,5.13-.44-.3,0-1.99,1.99-3.98,2.63-2.67,6.02-4.47,9.71-5.15,3.64-.72,7.41-.25,10.76,1.33,2.45,1.15,3.52,2.53,3.2,3Z"/>
    <path class="cls-9" d="M632.98,386.34c-.92,1.83-5.97,1.09-11.94,2.13-5.97,1.03-10.53,3.12-11.94,1.69-.66-.72-.2-2.47,1.67-4.38,5.19-4.82,12.77-6.04,19.2-3.08,2.41,1.25,3.32,2.77,3,3.64Z"/>
    <path class="cls-9" d="M604.48,315.47c15.08-9.45,40.29-11.68,56.13-3.58,15.84,8.1,27.5,23.1,33.83,39.8,6.33,16.69,6.55,42.92,5.01,60.63-32.33-29.19-66.42-63.42-98-93.42l3.02-3.42Z"/>
    <path class="cls-9" d="M589.3,302.31c-91.31,3.36-59,136.6-59,136.6h0c0-51.22,59.83-115.51,59.83-115.51l13.61-4.88-14.45-16.22Z"/>
    <path class="cls-7" d="M696.61,437.74c-.86-3.76,1.43-13.59,5.01-15.02,9.53-3.84,27.54-7.16,33.51,17.91,8.16,34.28-27.96,35.4-28.24,34.42-.28-.97-7.32-24.36-10.29-37.31Z"/>
    <path class="cls-3" d="M709.67,460.42c.14-.16.7.26,1.81.5,1.57.26,3.18-.09,4.5-.98,3.3-2.19,4.99-8.68,3.68-14.88-.61-2.96-1.87-5.75-3.7-8.16-1.17-2.02-3.26-3.34-5.59-3.52-1.51-.04-2.82,1.01-3.12,2.49-.24,1.05.14,1.69,0,1.79s-.88-.4-.94-1.87c-.02-.89.28-1.77.84-2.47.77-.94,1.89-1.54,3.1-1.67,3-.1,5.83,1.35,7.5,3.84,2.16,2.62,3.64,5.73,4.34,9.05,1.43,6.96-.58,14.27-5.19,16.89-1.73.99-3.82,1.12-5.67.38-1.29-.52-1.65-1.31-1.55-1.39Z"/>
    <path class="cls-9" d="M722.54,347.6c-13.09-22.17-34.52-38.58-57.96-49.21-12.58-5.69-26.21-9.95-40-9.11s-27.76,7.3-34.92,19.12l-1.99,3c21.39,31.2,37.31,58,62.68,86.08,9.33,10.33,19.52,49.31,23.68,62.58,14.25,45.29,43.18,60.59,43.18,60.59,54.82-9.77,18.43-150.89,5.33-173.05Z"/>
    <path class="cls-11" d="M746.26,550.26c-.18-.12,1.39-2.61,2.98-7.04.93-2.58,1.59-5.25,1.99-7.96.39-3.3.39-6.64,0-9.95-.81-6.08-2.89-11.92-6.11-17.13-2.51-3.98-4.52-6.15-4.36-6.29.54.43,1.04.91,1.47,1.45,1.28,1.38,2.46,2.87,3.5,4.44,5.5,8.12,7.78,18.01,6.39,27.72-.43,2.78-1.16,5.5-2.19,8.12-.38,1.01-.82,1.99-1.31,2.94-.34.74-.73,1.45-1.17,2.13-.33.57-.73,1.1-1.19,1.57Z"/>
    <path class="cls-11" d="M749.08,475.59c-.07-.19-.1-.39-.1-.6l-.28-1.75c0-.8-.18-1.77-.36-2.91l-.68-3.98c-1.63-8.3-4.3-16.35-7.96-23.98-5.47-11.28-12.48-21.76-20.81-31.12-10.32-11.39-21.73-21.72-34.09-30.86-13.01-9.95-25.87-18.66-37.39-27-10.23-7.29-20.06-15.1-29.47-23.42-6.33-5.65-12.26-11.74-17.75-18.21-1.99-2.31-3.36-4.14-4.28-5.41l-1.07-1.45c-.13-.16-.24-.34-.34-.52.16.14.31.29.44.46.28.36.66.82,1.13,1.37.97,1.25,2.49,3.02,4.44,5.29,5.58,6.35,11.56,12.33,17.91,17.91,9.48,8.22,19.36,15.97,29.61,23.2,11.5,8.3,24.41,17.03,37.47,26.96,12.4,9.18,23.84,19.58,34.16,31.04,8.36,9.46,15.34,20.04,20.75,31.44,3.6,7.7,6.17,15.84,7.66,24.22.22,1.49.42,2.81.58,3.98s.2,2.13.26,2.91.1,1.33.14,1.81c.03.2.04.41.02.62Z"/>
    <path class="cls-4" d="M725.74,364.57c-.81-1.67-1.79-3.27-2.91-4.76-1.44-1.7-3.1-3.18-4.95-4.42-2.49-1.63-5.16-2.97-7.96-3.98-6.11-2.41-13.93-3.98-22.27-6.47s-17.57-5.47-26.98-9.11c-16.11-6.21-31.71-13.67-46.66-22.31-5.73-3.34-10.27-6.19-13.35-8.22l-3.54-2.39c-.43-.26-.83-.56-1.19-.9.46.2.9.44,1.31.72l3.62,2.23c3.16,1.99,7.76,4.68,13.51,7.96,15.01,8.39,30.61,15.71,46.66,21.89,9.41,3.64,18.53,6.69,26.9,9.17,8.38,2.49,16.08,4.18,22.27,6.71,2.81,1.07,5.48,2.48,7.96,4.18,1.87,1.3,3.53,2.87,4.93,4.66.5.63.95,1.29,1.35,1.99.32.51.59,1.05.82,1.61.21.46.37.94.48,1.43Z"/>
    <path class="cls-4" d="M569.72,538.76l-.68-.24-1.99-.8c-2.53-1.04-4.99-2.22-7.38-3.54-3.76-2.11-7.35-4.52-10.73-7.2-4.51-3.54-8.65-7.55-12.34-11.94-9.67-11.43-16.45-25.02-19.76-39.62-3.84-17.95-3.03-36.58,2.35-54.12,2.69-9.07,6.42-17.8,11.12-26.01,4.45-7.58,9.43-14.83,14.9-21.71,5.15-6.61,10.29-12.71,15.02-18.47s9.03-11.18,12.79-16.26c6.01-7.98,11.11-16.61,15.2-25.73.68-1.63,1.35-3.04,1.81-4.34s.82-2.35,1.13-3.24l.72-1.99c.07-.23.16-.46.28-.68-.03.25-.09.49-.18.72l-.62,1.99c-.28.92-.64,1.99-1.03,3.28s-1.07,2.75-1.73,4.4c-3.98,9.23-9.02,17.96-15.02,26.03-3.74,5.13-7.96,10.61-12.73,16.38s-9.79,11.94-14.92,18.51c-5.42,6.86-10.36,14.09-14.78,21.63-4.65,8.17-8.34,16.85-11,25.87-5.27,17.37-6.05,35.79-2.27,53.55,3.23,14.48,9.88,27.98,19.4,39.36,6.39,7.68,14.07,14.19,22.68,19.24,3.1,1.71,5.53,2.98,7.26,3.7l1.99.9c.18.1.34.21.5.34Z"/>
    <path class="cls-4" d="M751.11,465.38c-.04.83-.16,1.66-.38,2.47-.28,1.59-.82,3.86-1.53,6.65-1.85,7.29-4.52,14.36-7.96,21.05-1.93,3.67-4.16,7.18-6.67,10.49-2.06,2.68-4.31,5.21-6.75,7.56-1.62,1.6-3.33,3.11-5.11,4.52-.61.56-1.27,1.04-1.99,1.45-.12-.14,2.67-2.37,6.65-6.49,2.32-2.41,4.49-4.95,6.51-7.62,2.42-3.3,4.6-6.78,6.51-10.41,3.4-6.63,6.14-13.59,8.18-20.75.74-2.61,1.35-4.8,1.83-6.55.15-.81.39-1.61.72-2.37Z"/>
    <path class="cls-6" d="M931.47,908.07l-28.41-180.4s-36.37-141.95-65.66-159.78c-29.29-17.83-106.2-15.06-106.2-15.06h0l-6.13,12.95c-14.53,30.81-51.29,44.02-82.1,29.49-7.87-3.71-14.87-9.05-20.53-15.66h0l-31.6,7.76c-26.8,6.46-50.12,22.93-65.15,46.04-.52.8-21.59,29.01-22.09,29.85-11,18.03-116.34,143.62-116.34,143.62,0,0-76.67-36.53-79.95-36.02s-33.43,37.57-33.43,37.57h0s94.89,98.67,135.09,94c40.19-4.68,84.37-71.04,84.37-71.04l81.94-78.64c11.54,43.46,48.89,155.54,48.89,155.54l307.31-.24Z"/>
    <g class="cls-12">
      <path class="cls-1" d="M469.28,835.06c-8.34-9.39-20.06-14.96-31.64-19.8-41.11-17.19-84.51-28.1-127.71-38.94-1.28-.46-2.67-.52-3.98-.18-2.75,1.05-2.87,4.86-2.41,7.78l.44,2.91-1.99,4.2c24.96,31.33,56.96,56.32,93.4,72.95,10.23,4.68,21.13,8.76,32.35,8.18,13.09-.66,24.95-7.5,36.21-14.19,4.4-2.59,9.21-5.79,10.11-10.8.82-4.44-1.79-8.76-4.8-12.1Z"/>
    </g>
    <path class="cls-9" d="M557.07,667.5c.13.43.21.88.24,1.33.12.99.3,2.27.5,3.84.2,1.57.52,3.7.88,5.97.36,2.27.8,5.05,1.33,7.96,2.11,11.84,5.97,28.02,10.49,45.77,4.52,17.75,8.95,33.83,11.82,45.53,1.43,5.85,2.51,10.59,3.2,13.93.32,1.57.58,2.83.76,3.8.12.43.19.88.2,1.33-.17-.42-.31-.85-.4-1.29-.24-.96-.56-2.21-.96-3.74-.8-3.28-1.99-7.96-3.52-13.81-3.12-11.74-7.4-27.86-12.1-45.45-4.7-17.59-8.28-34.05-10.21-45.94-.5-2.96-.92-5.65-1.19-7.96-.28-2.31-.6-4.42-.7-6.09-.1-1.67-.22-2.89-.3-3.88-.06-.43-.07-.86-.04-1.29Z"/>
    <path class="cls-9" d="M732.07,799.57c-1.01.03-2.03-.04-3.02-.22-.98-.08-2.16-.24-3.52-.48-1.37-.26-2.94-.48-4.64-.9-4-.88-7.95-2.02-11.8-3.42-4.72-1.73-9.31-3.81-13.73-6.21-4.39-2.45-8.6-5.21-12.6-8.26-3.24-2.52-6.32-5.24-9.21-8.16-1.25-1.19-2.29-2.41-3.22-3.42s-1.71-1.99-2.31-2.73c-.67-.76-1.27-1.58-1.79-2.45.76.67,1.46,1.41,2.11,2.19.64.72,1.43,1.61,2.41,2.59s1.99,2.15,3.32,3.3c2.93,2.83,6.03,5.49,9.27,7.96,7.95,6.02,16.73,10.85,26.07,14.35,3.8,1.43,7.69,2.63,11.64,3.6,1.67.48,3.22.74,4.58,1.03s2.53.52,3.48.66c1,.11,1.99.29,2.96.56Z"/>
    <path class="cls-6" d="M732.09,542.14c4.7-5.57,2.57-10.51-.16-12.66-4.5-3.6-9.95-2.31-13.93.94-12.42,9.95-26.72,18.7-39.42,28.28-12.69,9.57-29.53,16.59-44.33,10.76-3.34-1.31-6.47-3.26-9.95-4.3-3.44-1.29-7.3-.8-10.31,1.31-2.77,2.31-3.2,11.26-.14,13.15,5.67,14.74,19.3,25.71,34.54,29.85s31.84,1.87,46.24-4.52c14.41-6.39,26.88-16.71,37.41-28.47,3.79-3.76,6.65-8.34,8.38-13.39,1.97-7.1-8.34-20.95-8.34-20.95Z"/>
    <path class="cls-9" d="M736.01,537.61c-.23.41-.51.79-.84,1.13-.6.74-1.43,1.81-2.59,3.16-2.27,2.71-5.69,6.55-10.17,11.04-5.24,5.27-10.87,10.14-16.83,14.57-7.32,5.45-15.28,9.97-23.7,13.47-18.07,7.34-36.31,8.06-48.73,5.47-4.94-.92-9.74-2.47-14.29-4.6-1.24-.59-2.45-1.26-3.62-1.99-.42-.21-.83-.46-1.21-.74,0-.1,1.77.86,4.99,2.27,4.57,1.97,9.36,3.4,14.27,4.26,12.3,2.37,30.34,1.55,48.19-5.71,8.34-3.45,16.24-7.88,23.54-13.19,5.96-4.37,11.61-9.16,16.89-14.33,4.52-4.4,7.96-8.16,10.37-10.78l2.73-3c.29-.39.62-.73.99-1.03Z"/>
    <path class="cls-9" d="M732.47,565.15c-.14.3-.31.59-.52.86-.46.62-.99,1.39-1.65,2.31-1.45,1.99-3.64,4.84-6.47,8.26-14.76,17.78-32.22,33.13-51.73,45.49-3.74,2.35-6.84,4.18-9.01,5.33l-2.51,1.35c-.6.3-.9.44-.92.4.24-.22.51-.41.8-.58l2.43-1.51c2.11-1.27,5.13-3.18,8.81-5.61,19.23-12.65,36.6-27.91,51.62-45.35,2.89-3.34,5.15-6.09,6.69-7.96.74-.88,1.33-1.61,1.81-2.21s.62-.8.66-.78Z"/>
    <g class="cls-12">
      <path class="cls-1" d="M794.65,696.73c3,28.08,3.98,54.54,7.02,82.6.4,3.86.78,7.96-1.05,11.4-2.69,5.03-8.97,6.67-14.55,7.82-15.04,3.08-30.6,7.74-45.65,10.82,23.12-.46,46.92-3.08,70.04-3.52,1.79,0,7-.32,7-.32,0,0-1.35-7.3-1.73-9.05-7.68-34.82-13.43-64.93-21.09-99.75"/>
    </g>
    <g class="cls-12">
      <path class="cls-1" d="M576.21,755.47c-19.22-23.52-25.57-55.97-19.14-85.68,4.18,31.84,11.94,59.93,19.14,85.68"/>
    </g>
    <g class="cls-12">
      <path class="cls-1" d="M680.5,581.2c-20.16,8.22-44.89,9.35-66.02-1.75l2.23,3.16c9.73,9.75,24.32,13.51,38.05,12.52,13.73-.99,26.82-6.25,39.12-12.44,8.78-4.09,16.9-9.46,24.12-15.92,7.26-6.49,12.21-15.16,14.11-24.71-14.41,16.4-31.46,30.92-51.6,39.14Z"/>
    </g>
    <path class="cls-6" d="M781.78,554.82s10.17,39,10.88,74.68c.72,35.68,24.81,176.04,24.81,176.04l-126.73,6.31-8.08,72.59s143.64,31.18,185.05,29.03c41.41-2.15,58.42-34.3,53.43-82.06,0,0-29.45-178.07-45.96-219.97-15.04-38.01-42.02-52.43-93.4-56.61Z"/>
    <path class="cls-9" d="M875.18,611.37s.28.68.76,1.99l2.15,5.97c1.69,5.35,3.98,13.31,6.63,23.68,5.27,20.71,11.76,50.96,18.96,88.47,3.6,18.76,7.4,39.32,11.32,61.45,1.91,11.06,3.9,22.49,5.97,34.28.24,1.47.56,2.96.72,4.48s.24,3,.36,4.54.28,3.04.3,4.58,0,3.06,0,4.62c.1,6.26-.31,12.51-1.21,18.7-.32,1.55-.62,3.12-.94,4.68l-.36,2.41-.68,2.33c-.48,1.53-.9,3.08-1.39,4.62l-1.85,4.52c-2.62,6.07-6.34,11.61-10.98,16.32-4.87,4.68-10.62,8.36-16.91,10.82-6.46,2.32-13.22,3.71-20.08,4.1-13.83.42-27.86-1.25-41.79-3.02-13.93-1.77-28.33-3.98-42.68-6.49-34.94-5.97-68.71-12.69-100.76-19.52h-.44v-.46c2.83-25.25,5.53-49.51,8.12-72.57v-.4h.4l126.73-6.21-.34.42c-7.44-36.31-13.45-65.66-17.61-85.84-1.99-10.09-3.64-17.91-4.72-23.26-.54-2.63-.94-4.66-1.19-5.97-.26-1.31-.38-1.99-.38-1.99,0,0,.18.7.48,1.99.3,1.29.72,3.38,1.29,5.97,1.11,5.33,2.77,13.15,4.91,23.22,4.22,20.22,10.33,49.49,17.91,85.78v.42h-.42l-126.71,6.43.44-.42c-2.57,23.08-5.25,47.34-8.06,72.59l-.38-.56c32.04,6.83,65.8,13.53,100.7,19.48,14.37,2.47,28.57,4.68,42.64,6.51s28.08,3.36,41.71,2.98c6.75-.37,13.41-1.71,19.78-3.98,6.16-2.41,11.8-6.01,16.58-10.59,4.55-4.63,8.21-10.06,10.8-16.02.6-1.47,1.19-2.96,1.81-4.44s.92-3.04,1.37-4.58l.68-2.27.48-2.33c.3-1.55.62-3.08.92-4.64.9-6.14,1.32-12.34,1.25-18.54,0-1.53,0-3.06-.1-4.58s-.2-3.04-.3-4.54l-.34-4.5c-.16-1.49-.46-2.96-.7-4.44-1.99-11.78-3.98-23.24-5.97-34.3-3.86-22.11-7.62-42.68-11.18-61.45-7.12-37.53-13.49-67.77-18.62-88.51-2.53-10.37-4.82-18.35-6.45-23.72-.9-2.65-1.57-4.68-1.99-6.07s-.64-2.15-.64-2.15Z"/>
    <path class="cls-9" d="M857.87,847.32c-.16,0-1.73-2.87-4.7-7.32-3.86-5.83-8.27-11.26-13.17-16.24-4.92-4.96-10.31-9.45-16.08-13.39-4.44-3-7.36-4.62-7.26-4.78.74.24,1.46.57,2.13.97,1.35.68,3.24,1.75,5.53,3.2,11.94,7.61,22.02,17.81,29.47,29.85,1.41,2.29,2.49,4.22,3.14,5.57.41.66.72,1.38.94,2.13Z"/>
    <path class="cls-9" d="M817.17,576.71c-.81.83-1.67,1.61-2.59,2.33-1.06.86-2.07,1.78-3.02,2.75-1.11,1.11-2.49,2.31-3.78,3.84l-2.09,2.33c-.74.82-1.39,1.73-2.13,2.65-1.49,1.81-2.87,3.98-4.34,6.11-6.19,9.66-10.31,20.5-12.08,31.84-.34,2.63-.74,5.09-.8,7.44,0,1.17-.18,2.31-.18,3.4v3.12c0,1.99.2,3.8.3,5.39.07,1.33.22,2.66.44,3.98.21,1.15.35,2.31.4,3.48-.37-1.11-.63-2.25-.8-3.4-.29-1.31-.49-2.64-.62-3.98-.24-1.8-.39-3.6-.44-5.41,0-1.01,0-1.99-.1-3.18-.1-1.19,0-2.23.12-3.42,0-2.37.4-4.89.7-7.54,1.68-11.5,5.85-22.5,12.22-32.23,1.53-2.19,2.93-4.32,4.48-6.11.76-.92,1.45-1.85,2.19-2.65l2.17-2.31c1.35-1.51,2.77-2.69,3.98-3.78,1-.95,2.05-1.83,3.16-2.65.88-.74,1.82-1.4,2.81-1.99Z"/>
    <path class="cls-11" d="M217.27,642.15l12.16,73.62,107.27,103.25,91.29,47.66,145.85-40.51,3.12-16.93-78.98-53.45-89.04-76.21s-29.15-84.33-39.3-102.71l-152.38,65.29Z"/>
    <path class="cls-9" d="M217.27,642.15s.88-.42,2.65-1.19l7.96-3.42,30.28-13.07,111.43-47.93.34-.14.16.3c3.82,7.34,6.98,15.22,10.25,23.32,3.26,8.1,6.43,16.5,9.63,25.11,6.41,17.25,12.92,35.35,19.54,54.32l-.14-.2,89.04,76.19h0l78.98,53.37.28.2v.34c-.2,1.01-.4,2.13-.6,3.24-.86,4.58-1.71,9.15-2.55,13.67v.32l-.3.1-145.85,40.49h-.36l-91.27-47.76h0l-107.49-103.41h0c-3.84-23.58-6.83-42-8.87-54.54-.99-6.23-1.77-11-2.29-14.23-.24-1.59-.44-2.81-.56-3.62s-.18-1.21-.18-1.21l.24,1.23c.14.86.36,1.99.64,3.66.54,3.24,1.35,7.96,2.43,14.27,1.99,12.5,5.17,30.84,9.13,54.34v-.16c26.98,25.87,63.67,61.11,107.45,103.13h-.1l91.33,47.62h-.36l145.83-40.55-.38.4c.84-4.54,1.69-9.09,2.53-13.69.22-1.09.42-2.21.62-3.24l.22.52-79.19-53.72h0l-89-76.25h-.1v-.12c-6.57-18.96-13.05-37.07-19.46-54.34-3.18-8.61-6.37-16.98-9.57-25.11-3.24-8.08-6.41-15.92-10.17-23.24l.48.16-111.31,47.5-30.5,12.97-7.96,3.36-2.87,1.03Z"/>
    <path class="cls-9" d="M408.97,679.56c-.42.31-.87.58-1.33.82l-3.98,2.17c-3.44,1.87-8.44,4.5-14.66,7.7-12.44,6.41-29.85,14.96-49.21,23.74-19.36,8.78-37.35,16.06-50.44,20.99-6.53,2.47-11.84,4.42-15.54,5.67l-4.28,1.45c-.48.19-.98.34-1.49.44.46-.24.94-.46,1.43-.64l4.2-1.63,15.42-5.97c12.99-5.11,30.84-12.5,50.28-21.25,19.44-8.76,36.79-17.23,49.31-23.46l14.78-7.4,3.98-1.99c.49-.26,1-.48,1.53-.64Z"/>
    <path class="cls-9" d="M496.62,755.37c.1.26-35.62,14.7-79.77,32.27-44.15,17.57-80.03,31.56-80.15,31.3s35.6-14.7,79.77-32.27c44.17-17.57,80.05-31.58,80.15-31.3Z"/>
    <path class="cls-7" d="M243.3,728.27s6.94-2.45,8.38-6.47,1.15-7.2,0-8.64c-1.15-1.43-21.29-9.79-23.3-10.37s-19.28-1.99-20.14,8.36c-.25,4.56,1.16,9.06,3.98,12.66,0,0-6.63,12.66-6.63,15.82s3.16,8.06,2.89,10.65c-.28,2.59-5.97,8.91-3.98,14.11,1.99,5.19,4.3,5.97,4.3,9.77s-1.43,6.63,0,8.91c1.43,2.29,10.65,14.11,17.91,15.54s42,6.33,42,6.33l5.17,3.46s15.26,4.6,23.32-8.91c8.06-13.51,6.61-12.68,6.61-12.68l-26.23-25.05s3.14-5.97-.54-9.23c-1.89-1.32-4.05-2.2-6.33-2.59,0,0,2.31-8.64-1.99-11.52-4.3-2.89-25.43-10.15-25.43-10.15Z"/>
    <path class="cls-3" d="M214.54,770.61c.28-.15.58-.25.9-.3.6-.16,1.49-.4,2.63-.64,2.31-.52,5.65-1.15,9.83-1.73,10.91-1.51,21.96-1.77,32.93-.8h.24l.12.18c.21.27.4.55.56.86.81,1.75.81,3.76,0,5.51-.74,1.63-1.93,3.01-3.42,3.98-2.77,1.61-5.7,2.95-8.74,3.98l-14.51,5.73.2-.32c-.15,3.05-1.42,5.93-3.58,8.08-.56.56-1.18,1.06-1.85,1.49-.48.28-.74.4-.76.36.83-.64,1.62-1.35,2.35-2.11,1.95-2.16,3.07-4.93,3.16-7.84v-.22h.22l14.43-5.97c2.95-1.05,5.8-2.38,8.5-3.98,1.34-.88,2.4-2.13,3.04-3.6.68-1.47.68-3.16,0-4.64-.13-.24-.28-.47-.44-.7l.36.2c-10.91-.96-21.89-.8-32.77.48-4.16.5-7.52,1.01-9.83,1.41-1.17.28-2.36.47-3.56.58Z"/>
    <path class="cls-3" d="M270.89,749.92s0,.22-.22.6c-.3.53-.73.99-1.23,1.33-.81.57-1.73.93-2.71,1.07-1.27.14-2.55.09-3.8-.16-5.45-1.01-12.91-2.53-21.17-4.24-7.2-1.51-13.81-2.93-18.86-3.98h.24l-7.7,2.93c-.92.43-1.89.75-2.89.97.86-.54,1.77-1,2.71-1.39l7.48-3.34h.24c5.09.99,11.7,2.33,18.92,3.84,8.24,1.71,15.7,3.34,21.09,4.54,2.04.63,4.25.43,6.15-.54.68-.43,1.27-.98,1.75-1.63Z"/>
    <path class="cls-3" d="M277.58,761.76s0,.24-.18.62c-.28.55-.64,1.06-1.07,1.49-1.69,1.54-3.87,2.44-6.15,2.55-7.25.5-14.53.57-21.79.2-4.26-.16-8.32-.54-11.94-.82-3.23-.3-6.48-.22-9.69.22-2.16.07-4.27.7-6.11,1.83-1.25.86-1.81,1.55-1.99,1.47s0-.2.36-.54c.38-.47.81-.9,1.29-1.27.76-.6,1.63-1.08,2.55-1.39,1.21-.39,2.46-.67,3.72-.84,3.25-.55,6.55-.69,9.83-.44,3.68.24,7.7.58,11.94.74,8.46.38,16.18.36,21.69.12,2.17-.04,4.26-.79,5.97-2.13.6-.54,1.13-1.14,1.57-1.81Z"/>
    <path class="cls-3" d="M282.06,778.08c-2.94-1.3-5.95-2.45-9.01-3.44-5.15-1.37-9.55-1.13-9.55-1.45,6.6-1.1,13.36.69,18.56,4.89h0Z"/>
    <path class="cls-3" d="M247.28,729.7c-1.68-.24-3.34-.62-4.95-1.13-3.02-.8-7.22-1.81-11.94-2.75s-8.93-1.61-11.94-1.99c-1.69-.14-3.36-.43-4.99-.88,1.7-.15,3.41-.11,5.09.14,4.08.36,8.14.95,12.16,1.77,4.03.79,8.02,1.81,11.94,3.04,1.61.41,3.17,1.01,4.64,1.79Z"/>
    <path class="cls-7" d="M671.2,820.06s-32.75-27.48-39.02-28.45-16.4-1.99-18.8,0c-2.41,1.99-62.2,17.91-62.2,17.91-3.27,1.91-5.77,4.9-7.06,8.46-.95,2.98.61,6.18,3.54,7.26,3.9,1.47,8.16,1.7,12.2.68-1.36,3.39-.81,7.25,1.45,10.13,3.84,4.82,15.8,1.99,15.8,1.99,0,0-4.72,12.06,6.86,15.42,0,0-4.36,3.38,0,8.7,4.36,5.31,8.79,10.71,17.35,10.13s25.07,0,25.07,0h30.78c2.63-1.24,5.38-2.23,8.2-2.94,2.89-.48,17.91,2.83,17.91,2.83l5.85-50.7-17.93-1.39Z"/>
    <path class="cls-3" d="M620.34,812.4c-.78.27-1.57.47-2.39.6l-6.55,1.35c-5.51,1.15-13.09,2.94-21.45,5.03-8.36,2.09-15.92,3.98-21.45,5.11-2.77.58-5.01,1.01-6.57,1.27-.8.19-1.62.3-2.45.32.76-.32,1.56-.56,2.37-.72l6.49-1.59,21.37-5.41c8.36-2.09,15.92-3.76,21.55-4.74,2.79-.5,5.03-.86,6.61-1.03.81-.16,1.64-.23,2.47-.2Z"/>
    <path class="cls-3" d="M619.69,831.4c-2.07.47-4.17.77-6.29.9-3.88.44-9.25,1.01-15.16,1.85-5.91.84-11.2,1.81-15.04,2.61-2.05.53-4.13.92-6.23,1.17,1.96-.83,3.99-1.46,6.07-1.89,4.97-1.24,9.99-2.21,15.06-2.91,5.97-.84,11.32-1.31,15.24-1.57,2.11-.24,4.23-.3,6.35-.16Z"/>
    <path class="cls-3" d="M620.34,852.22c-1.68.67-3.43,1.17-5.21,1.49-4.23,1.05-8.54,1.79-12.87,2.23-4.39.37-8.82.01-13.09-1.05-1.78-.32-3.51-.9-5.13-1.71,1.78.24,3.55.57,5.29.99,4.22.85,8.54,1.09,12.83.74,5.03-.46,9.55-1.31,12.83-1.99,1.76-.4,3.55-.63,5.35-.7Z"/>
  </g>
  <g id="freepik--Desk--inject-2">
    <rect class="cls-4" x="36.24" y="908.91" width="926.95" height="39.28"/>
    <path class="cls-9" d="M36.24,909h18.62l53.61-.12,197.81-.26,656.95-.34h.68v40.71h-.68l-926.97-.62h-.16v-.2c0-13.49,0-23.32.1-29.85.1-6.53,0-9.47,0-9.47,0,1.39,0,12.58.18,39.28l-.18-.2,926.97-.64-.7.84v-39.14l.7.82-656.44-.34-197.97-.24-53.72-.12h-13.93l-4.88-.12Z"/>
    <path class="cls-9" d="M232.61,909.48s0,.16-.3.42-.52.68-.97,1.19c-1.36,1.43-2.93,2.65-4.66,3.6-2.79,1.49-5.82,2.49-8.95,2.93-4.14.57-8.32.74-12.5.52-5.04-.25-10.05-.81-15.02-1.67-5.66-1.03-11.39-1.69-17.13-1.99-12.14-.42-25.35,2.65-38.54,7.24-13.19,4.6-25.57,9.79-37.39,12.95-5.57,1.56-11.26,2.67-17.01,3.3-5.03.52-10.11.52-15.14,0-7.3-.68-14.38-2.87-20.79-6.43-2.34-1.28-4.52-2.84-6.49-4.64.16.08.3.17.44.28l1.25.9c1.56,1.13,3.21,2.15,4.91,3.04,6.41,3.36,13.44,5.39,20.65,5.97,4.97.51,9.99.51,14.96,0,5.71-.66,11.35-1.78,16.87-3.34,11.72-3.2,24.02-8.42,37.31-13.03,13.29-4.62,26.62-7.7,38.96-7.2,5.78.32,11.54,1.02,17.23,2.09,4.94.88,9.92,1.48,14.92,1.79,4.12.26,8.26.14,12.36-.36,3.08-.38,6.07-1.29,8.83-2.69,2.32-1.27,4.41-2.92,6.19-4.88Z"/>
    <path class="cls-9" d="M131.21,910.08c-.88.84-1.82,1.62-2.81,2.33-2.69,1.97-5.52,3.73-8.48,5.27-9.86,5.09-20.74,7.89-31.84,8.18-11.13.41-22.2-1.79-32.31-6.45-3.07-1.38-5.75-3.51-7.8-6.19-.53-.73-.96-1.52-1.27-2.37-.2-.58-.28-.88-.24-.9.54,1.05,1.15,2.06,1.83,3.02,2.13,2.48,4.8,4.44,7.8,5.73,10.04,4.32,20.91,6.36,31.84,5.97,10.98-.29,21.76-2.93,31.64-7.72,2.96-1.47,5.82-3.12,8.58-4.93.97-.73,1.99-1.38,3.06-1.95Z"/>
    <path class="cls-9" d="M348.76,934.97s.5.16,1.43.5c1.4.48,2.83.85,4.28,1.11,5.54.95,11.23.09,16.24-2.47v.5c-5.87-4.35-12.84-6.98-20.12-7.58-9.22-.9-18.47,1.43-26.17,6.59-.99.53-1.72,1.45-1.99,2.55,0,1.12.69,2.12,1.73,2.53,1.12.59,2.33,1.01,3.58,1.23l3.98.86c5.29,1.15,10.78,2.29,16.46,3.08,5.78.9,11.64,1.28,17.49,1.15,3.01-.07,6.02-.35,8.99-.84,1.49-.24,2.98-.52,4.48-.9,1.48-.32,2.93-.78,4.32-1.37,2.17-.85,4.09-2.21,5.61-3.98,1.42-1.65,1.83-3.93,1.07-5.97-.92-2.02-2.46-3.68-4.4-4.76-1.95-1.17-4.01-2.14-6.15-2.93-8.27-3.01-16.95-4.76-25.75-5.17-25.13-1.34-49.96,5.94-70.4,20.61-2.85,2.11-5.01,3.78-6.41,5.01l-1.63,1.35-.58.44s.16-.2.5-.52l1.55-1.43c1.35-1.29,3.48-3.02,6.29-5.19,8.04-6.04,16.9-10.91,26.31-14.47,14.13-5.32,29.21-7.66,44.29-6.88,8.91.38,17.71,2.13,26.09,5.19,2.22.79,4.35,1.8,6.37,3,2.15,1.2,3.85,3.05,4.86,5.29.9,2.42.43,5.13-1.23,7.1-1.65,1.89-3.73,3.35-6.07,4.26-1.44.63-2.95,1.11-4.5,1.41-1.51.4-3.04.68-4.58.94-3.02.48-6.07.76-9.13.84-5.92.13-11.84-.27-17.69-1.19-5.73-.82-11.22-1.99-16.54-3.14l-3.98-.88c-1.39-.24-2.73-.7-3.98-1.35-.63-.34-1.18-.81-1.61-1.37-.47-.6-.69-1.35-.6-2.11.32-1.38,1.21-2.56,2.45-3.24,7.91-5.24,17.39-7.58,26.82-6.61,7.42.69,14.5,3.44,20.44,7.96l.36.28-.42.22c-5.13,2.56-10.96,3.34-16.58,2.23-1.92-.35-3.77-.98-5.49-1.89Z"/>
    <path class="cls-9" d="M468,910.5c.43.6.74,1.27.92,1.99.61,1.93.82,3.96.6,5.97-.3,5.05-3.5,11.7-9.01,17.15-2.53,2.64-5.36,4.97-8.44,6.94-2.56,1.58-5.29,2.86-8.14,3.82-1.95.63-3.95,1.11-5.97,1.43-.72.17-1.47.23-2.21.18,0-.2,3.1-.64,7.84-2.35,2.74-1.05,5.37-2.39,7.84-3.98,2.97-1.98,5.72-4.28,8.18-6.86,5.39-5.31,8.56-11.62,9.05-16.46.28-2.63.05-5.29-.66-7.84Z"/>
    <path class="cls-9" d="M634.45,946.11c-1.34-1.41-2.76-2.74-4.26-3.98-4.2-3.33-9.19-5.51-14.49-6.33-3.67-.51-7.41-.41-11.04.32-4.24.95-8.59,1.34-12.93,1.15-4.76-.44-9.01-3.22-12.87-6.13-3.87-3.19-8.25-5.71-12.95-7.44-9.32-3.02-19.33-3.16-28.73-.42-7.64,2.21-14.83,5.73-21.27,10.39-4.34,3.11-8.46,6.52-12.32,10.21l-3.16,2.93c-.34.38-.72.72-1.13,1.01.29-.42.62-.81.98-1.17.66-.74,1.67-1.81,3-3.16,3.77-3.82,7.83-7.33,12.16-10.51,6.46-4.83,13.72-8.49,21.45-10.8,9.62-2.85,19.88-2.71,29.43.38,4.82,1.76,9.29,4.34,13.23,7.62,3.84,2.93,7.86,5.55,12.32,5.97,4.25.19,8.51-.16,12.68-1.05,3.73-.69,7.55-.75,11.3-.18,5.41.89,10.48,3.24,14.66,6.79,1.54,1.25,2.88,2.75,3.96,4.42Z"/>
    <path class="cls-9" d="M783.07,909.28c-.3.48-.64.92-1.01,1.33-.99,1.27-2.05,2.49-3.16,3.66-4.09,4.34-8.63,8.24-13.53,11.64-7.28,5.15-15.17,9.38-23.48,12.62-4.91,1.96-9.98,3.53-15.14,4.68-5.55,1.31-11.23,2.02-16.93,2.11-11.03-.07-21.94-2.27-32.14-6.47-8.29-3.3-16.13-7.61-23.36-12.83-4.85-3.47-9.35-7.41-13.43-11.76-1.49-1.49-2.45-2.81-3.16-3.64-.37-.42-.72-.87-1.03-1.33.45.35.86.75,1.21,1.19.78.78,1.79,1.99,3.32,3.48,4.17,4.22,8.72,8.04,13.59,11.42,7.22,5.1,15.03,9.3,23.26,12.52,10.08,4.09,20.84,6.24,31.72,6.33,5.63-.08,11.23-.75,16.71-1.99,5.12-1.12,10.13-2.65,15-4.58,8.25-3.17,16.11-7.3,23.4-12.3,4.9-3.35,9.47-7.16,13.65-11.38,1.53-1.43,2.53-2.73,3.3-3.5.36-.44.77-.84,1.21-1.19Z"/>
    <path class="cls-9" d="M761.84,909c-.23.24-.49.45-.78.62-.56.36-1.33.94-2.41,1.57-7.47,4.61-15.5,8.27-23.88,10.88-6.19,1.99-12.64,3.05-19.14,3.16-11.8-.26-23.4-3.1-33.99-8.32-3.18-1.53-6.25-3.28-9.19-5.23-1.05-.68-1.81-1.27-2.35-1.67-.28-.18-.53-.4-.76-.64,1.16.59,2.27,1.26,3.34,1.99,3.02,1.79,6.12,3.43,9.31,4.89,10.54,4.95,21.99,7.66,33.63,7.96,6.37-.21,12.68-1.31,18.74-3.28,5.01-1.49,9.9-3.33,14.64-5.51,3.98-1.87,7.22-3.54,9.39-4.76,1.1-.63,2.25-1.19,3.42-1.67Z"/>
    <path class="cls-9" d="M856.15,912.98c-.36.05-.72.05-1.07,0l-3.04-.18-2.17-.16h-8.97l-3.68.2-3.98.44c-2.77.24-5.65.88-8.72,1.37-6.59,1.37-13.07,3.24-19.38,5.59-6.28,2.44-12.37,5.33-18.23,8.66-2.61,1.63-5.17,3.08-7.36,4.7l-3.26,2.27-2.87,2.27c-1.87,1.39-3.42,2.81-4.82,3.98l-1.99,1.69c-.54.56-1.05,1.05-1.53,1.53l-2.13,2.09c-.25.25-.52.48-.82.68.18-.3.39-.58.64-.84l1.99-2.23,1.47-1.61,1.87-1.77c1.35-1.27,2.89-2.75,4.74-4.2l2.85-2.31,3.24-2.35c2.19-1.67,4.76-3.16,7.38-4.84,11.68-6.93,24.47-11.8,37.81-14.39,3.1-.46,5.97-1.07,8.81-1.25l3.98-.4,3.74-.12c2.13-.11,4.26-.11,6.39,0h2.63l2.19.26,3.02.4c.45.09.89.26,1.27.52Z"/>
    <path class="cls-9" d="M651.21,945.34c-1.5-2.15-3.2-4.15-5.09-5.97-5.39-4.74-11.77-8.19-18.68-10.11-4.77-1.39-9.64-2.43-14.57-3.12-5.33-.82-11.06-1.45-17.05-2.47-6.26-1.1-12.44-2.6-18.51-4.5-6.44-2.07-13.05-3.61-19.74-4.62-13.05-1.28-26.23.48-38.48,5.15-5.34,1.96-10.57,4.23-15.64,6.81-4.8,2.39-9.19,4.74-13.17,6.9-7.96,4.38-14.33,8.12-18.7,10.71l-5.05,2.98-1.31.76c-.29.19-.45.27-.48.24l.42-.32,1.25-.86c1.11-.76,2.77-1.83,4.93-3.18,4.3-2.71,10.59-6.53,18.54-11,3.98-2.23,8.34-4.62,13.13-7.04,5.09-2.63,10.34-4.95,15.72-6.94,12.4-4.76,25.74-6.54,38.96-5.21,6.75,1.01,13.41,2.57,19.9,4.68,6.02,1.9,12.15,3.42,18.37,4.54,5.97,1.01,11.68,1.69,17.01,2.57,4.97.73,9.88,1.82,14.68,3.26,6.98,2.02,13.39,5.64,18.72,10.57,1.95,1.77,3.59,3.86,4.84,6.19Z"/>
    <path class="cls-9" d="M442.28,909.48c.09.84.05,1.68-.12,2.51-.34,2.28-.95,4.5-1.83,6.63-2.85,7.2-7.82,13.36-14.25,17.67-6.64,3.97-13.72,7.14-21.11,9.43-2.83.9-5.13,1.55-6.75,1.99-.82.27-1.67.44-2.53.52.76-.4,1.57-.71,2.41-.92l6.61-2.31c7.23-2.47,14.18-5.69,20.75-9.59,6.23-4.22,11.13-10.13,14.13-17.03,1.17-2.87,2.07-5.85,2.69-8.89Z"/>
    <path class="cls-9" d="M227.14,948.18c.68-.77,1.43-1.48,2.25-2.11,1.49-1.31,3.74-3.1,6.61-5.23,7.51-5.48,15.41-10.42,23.64-14.76,9.63-5.11,18.62-9.23,25.15-12.14,3.28-1.45,5.97-2.59,7.78-3.36.94-.45,1.92-.82,2.93-1.09-.86.58-1.77,1.08-2.73,1.49l-7.68,3.68c-6.45,3.08-15.36,7.28-24.95,12.4-8.19,4.33-16.11,9.15-23.72,14.43-2.91,1.99-5.23,3.72-6.81,4.93-.77.66-1.59,1.26-2.47,1.77Z"/>
    <path class="cls-9" d="M270.79,911.09c0,.12-2.13-.26-5.97,0-5.39.54-10.64,2.08-15.46,4.56-6.21,2.93-12.73,7.78-20.1,13.05-3.85,2.82-7.89,5.36-12.1,7.6-4.6,2.33-9.46,4.14-14.47,5.39-9.72,2.22-19.64,3.37-29.61,3.44-9.17.28-17.39.1-24.3.36-5.45.16-10.88.67-16.26,1.55-1.99.34-3.36.62-4.36.84-.5.14-1.01.24-1.53.28.47-.2.97-.36,1.47-.48.98-.3,2.45-.66,4.34-1.05,5.37-1.08,10.82-1.74,16.3-1.99,6.92-.38,15.18-.28,24.3-.6,9.89-.14,19.73-1.31,29.37-3.5,4.93-1.22,9.7-2.99,14.23-5.27,4.14-2.22,8.13-4.72,11.94-7.46,7.36-5.21,13.93-10.07,20.36-12.95,4.93-2.45,10.29-3.9,15.78-4.28,1.49-.07,2.99-.02,4.48.14.54.06,1.08.19,1.59.38Z"/>
    <path class="cls-9" d="M877.86,948.18c.69-.77,1.45-1.47,2.27-2.11,1.49-1.31,3.74-3.1,6.59-5.23,7.52-5.48,15.42-10.41,23.64-14.76,9.65-5.11,18.64-9.23,25.17-12.14,3.26-1.45,5.97-2.59,7.78-3.36.94-.45,1.91-.81,2.91-1.09-.86.59-1.77,1.09-2.73,1.49l-7.6,3.68c-6.45,3.08-15.38,7.28-24.97,12.4-8.18,4.33-16.09,9.15-23.7,14.43-2.91,1.99-5.23,3.72-6.81,4.93-.79.67-1.64,1.26-2.55,1.77Z"/>
    <path class="cls-9" d="M921.54,911.09c0,.12-2.15-.26-5.97,0-5.4.54-10.65,2.08-15.48,4.56-6.19,2.93-12.73,7.78-20.08,13.05-3.85,2.82-7.89,5.36-12.1,7.6-4.6,2.33-9.46,4.14-14.47,5.39-9.72,2.22-19.64,3.37-29.61,3.44-9.17.28-17.41.1-24.32.36-5.44.16-10.86.68-16.24,1.55-1.89.34-3.36.62-4.36.84-.5.14-1.01.24-1.53.28.47-.21.97-.37,1.47-.48.97-.3,2.43-.66,4.34-1.05,5.37-1.08,10.82-1.74,16.3-1.99,6.92-.38,15.16-.28,24.3-.6,9.88-.14,19.72-1.31,29.35-3.5,4.93-1.21,9.7-2.98,14.23-5.27,4.14-2.22,8.13-4.71,11.94-7.46,7.34-5.21,13.93-10.07,20.34-12.95,4.94-2.45,10.3-3.9,15.8-4.28,1.49-.07,2.99-.02,4.48.14.55.07,1.09.19,1.61.38Z"/>
    <path class="cls-9" d="M848.93,908.75c0,.3-38.74.56-86.52.56s-86.54-.26-86.54-.56,38.74-.56,86.54-.56,86.52.26,86.52.56Z"/>
  </g>
  <g id="freepik--speech-bubble--inject-2">
    <circle class="cls-11" cx="379.85" cy="294.25" r="89.92"/>
    <path class="cls-9" d="M469.87,366.39c-.89.15-1.78.35-2.65.6-2.31.8-4.32,2.29-5.77,4.26-.99,1.33-1.67,2.87-1.99,4.5-.37,1.87-.17,3.81.56,5.57,1.97,5.61,8.11,8.56,13.72,6.59,2.97-1.04,5.34-3.34,6.47-6.27.78-1.74,1.04-3.67.76-5.55-.29-1.64-.93-3.2-1.89-4.56-1.38-2.02-3.34-3.57-5.63-4.44-1.63-.58-2.63-.6-2.61-.7.24-.03.48-.03.72,0,.29,0,.58.05.86.12.39.05.77.14,1.13.28,4.19,1.34,7.3,4.87,8.1,9.19.35,2.02.1,4.09-.72,5.97-.88,2.07-2.32,3.85-4.16,5.15-3.99,3.07-9.57,2.99-13.47-.2-1.79-1.37-3.17-3.21-3.98-5.31-.76-1.89-.95-3.97-.54-5.97.38-1.72,1.14-3.33,2.23-4.72,1.55-2.02,3.72-3.49,6.17-4.2.38-.12.76-.2,1.15-.26.28-.03.57-.03.86,0,.42-.1.68-.1.68-.06Z"/>
    <path class="cls-9" d="M469.5,308.08v-1.45c0-.96.24-2.43.42-4.3.08-.94.18-2,.3-3.16v-8.3c.01-.82-.03-1.64-.14-2.45,0-.84-.18-1.71-.28-2.61-.78-8.7-2.88-17.24-6.23-25.31-4.34-10.73-10.72-20.51-18.78-28.81-1.11-1.15-2.25-2.31-3.4-3.46-1.21-1.11-2.53-2.15-3.8-3.22l-1.99-1.63c-.62-.57-1.29-1.08-1.99-1.55l-4.28-2.94-2.19-1.47-2.33-1.29-4.74-2.61c-1.63-.82-3.36-1.45-5.05-2.21-.84-.38-1.69-.74-2.57-1.09-.42-.18-.86-.38-1.29-.54l-1.33-.44c-3.62-1.26-7.33-2.27-11.08-3.04-1.99-.36-3.82-.84-5.77-1.11l-5.97-.6c-.99-.1-1.99-.26-3-.28h-9.19c-4.17.27-8.32.82-12.42,1.65l-3.12.62c-.54.12-1.05.2-1.57.34l-1.53.46-6.19,1.99c-1.99.74-3.98,1.65-6.07,2.47-.99.44-1.99.8-3.02,1.31l-2.93,1.55c-3.96,2.09-7.77,4.45-11.42,7.04l-5.31,4.28-1.33,1.09c-.42.38-.82.8-1.23,1.19l-2.31,2.29-2.49,2.43-2.23,2.67-2.25,2.67-1.13,1.33-.99,1.45-3.98,5.81-3.44,6.23c-9,17.31-12.08,37.09-8.78,56.31.48,2.35.94,4.66,1.41,6.98.48,2.33,1.37,4.5,1.99,6.75l.52,1.67.68,1.63,1.33,3.22,1.35,3.2,1.63,3.06,1.61,3.04.82,1.51.96,1.43,3.76,5.69c2.69,3.58,5.63,6.97,8.78,10.15l2.33,2.37c.76.8,1.67,1.45,2.49,2.17,1.69,1.39,3.32,2.87,5.03,4.18l5.33,3.66,1.33.9,1.39.8,2.79,1.53c3.66,2.02,7.45,3.8,11.34,5.31,1.99.74,3.98,1.27,5.85,1.99l2.91.92c.98.28,1.99.42,2.94.64l5.87,1.21c1.99.34,3.98.46,5.85.68,3.81.4,7.64.55,11.46.44h1.41c.48,0,.94,0,1.39-.12l2.79-.28c1.83-.22,3.68-.3,5.47-.6l5.29-1.05,2.63-.54,2.53-.74,4.97-1.51c.82-.24,1.62-.54,2.39-.9l2.35-.96c1.53-.66,3.08-1.25,4.58-1.99l4.3-2.29c10.19-5.52,19.21-12.95,26.58-21.89.82-.98,1.65-1.99,2.41-2.89l1.99-2.98,1.99-2.87c.32-.48.68-.92.96-1.39s.54-.98.8-1.45l3.04-5.49c.92-1.75,1.57-3.54,2.33-5.17l1.03-2.41c.35-.75.65-1.52.88-2.31l1.35-4.26c.4-1.31.84-2.51,1.13-3.64s.46-2.19.66-3.1c.4-1.83.7-3.24.92-4.22l.34-1.43s0,.5-.26,1.45-.46,2.39-.82,4.24c-.2.94-.4,1.99-.64,3.1-.24,1.11-.7,2.35-1.09,3.68s-.86,2.75-1.31,4.28c-.23.8-.52,1.58-.88,2.33-.32.78-.68,1.57-1.01,2.41-.74,1.65-1.39,3.44-2.31,5.23s-1.99,3.58-3,5.51l-.82,1.45c-.28.5-.62.96-.94,1.43l-1.99,2.89-1.99,3c-.78.98-1.61,1.99-2.43,2.91-7.37,9-16.42,16.49-26.64,22.05l-4.34,2.31c-1.49.7-3.04,1.29-4.62,1.99l-2.35.98c-.78.36-1.58.66-2.41.9l-5.01,1.53-2.53.76-2.65.54-5.33,1.07c-1.81.32-3.66.4-5.51.62l-2.79.28c-.48,0-.94.12-1.41.14h-1.43c-3.86.13-7.72-.01-11.56-.42-1.99-.22-3.98-.34-5.97-.66l-5.97-1.21c-.98-.22-1.99-.38-2.96-.66l-2.93-.92c-1.99-.64-3.98-1.19-5.97-1.99-3.94-1.53-7.76-3.31-11.46-5.35l-2.81-1.55c-.48-.26-.96-.5-1.41-.78l-1.33-.92-5.39-3.7c-1.73-1.31-3.36-2.79-5.07-4.2-.84-.74-1.75-1.37-2.53-2.19l-2.33-2.39c-3.19-3.2-6.15-6.62-8.87-10.23l-3.8-5.73-.96-1.45-.84-1.51-1.63-3.08-1.65-3.08-1.35-3.24-1.35-3.24-.68-1.63-.52-1.69-1.99-6.83c-.46-2.33-.94-4.68-1.41-7.04-3.26-19.35-.11-39.24,8.95-56.65l3.46-6.29,3.98-5.97c.34-.48.66-.97,1.01-1.45l1.13-1.35,2.27-2.69,2.27-2.69,2.49-2.45,2.49-2.43c.42-.42.84-.84,1.25-1.21l1.35-1.09,5.33-4.32c3.68-2.62,7.54-4.98,11.54-7.08l2.96-1.57c.98-.54,1.99-.88,3.04-1.33,1.99-.82,3.98-1.73,6.13-2.47l6.23-1.99,1.55-.46c.54-.14,1.05-.22,1.59-.34l3.14-.62c4.14-.83,8.32-1.38,12.54-1.65,1.99-.12,4.14,0,6.19,0h3.08c1.01,0,1.99.18,3.02.28l5.97.62c1.99.28,3.98.78,5.83,1.13,3.78.78,7.5,1.81,11.14,3.08l1.35.44c.46.16.88.36,1.31.54l2.59,1.11c1.69.76,3.44,1.41,5.07,2.25l4.76,2.63,2.35,1.31c.76.48,1.47.99,2.19,1.49l4.32,2.96c.7.47,1.37,1,1.99,1.57l1.99,1.65c1.29,1.09,2.59,2.13,3.82,3.24l3.42,3.5c8.17,8.4,14.62,18.32,18.98,29.19,3.33,8.11,5.39,16.69,6.13,25.43,0,.92.16,1.77.24,2.63.1.82.15,1.64.14,2.47v8.32c0,1.17-.24,2.21-.34,3.16-.22,1.87-.38,3.3-.48,4.28s-.36,1.47-.36,1.47Z"/>
    <path class="cls-9" d="M356.4,295.87c.01,4.87-3.93,8.82-8.79,8.83-4.87.01-8.82-3.93-8.83-8.79s3.93-8.82,8.79-8.83c0,0,.01,0,.02,0,4.86,0,8.8,3.93,8.81,8.79Z"/>
    <path class="cls-9" d="M386.82,295.87c.01,4.87-3.93,8.82-8.79,8.83-4.87.01-8.82-3.93-8.83-8.79s3.93-8.82,8.79-8.83c0,0,.01,0,.02,0,4.86,0,8.8,3.93,8.81,8.79Z"/>
    <path class="cls-9" d="M417.24,295.87c.01,4.87-3.93,8.82-8.79,8.83-4.87.01-8.82-3.93-8.83-8.79-.01-4.87,3.93-8.82,8.79-8.83.01,0,.03,0,.04,0,4.86,0,8.79,3.94,8.79,8.79Z"/>
  </g>
</svg>