<?xml version="1.0" encoding="UTF-8"?>
<svg id="Layer_2" data-name="Layer 2" xmlns="http://www.w3.org/2000/svg" viewBox="0 0 1000 1000">
  <defs>
    <style>
      .cls-1 {
        fill: #000;
      }

      .cls-1, .cls-2, .cls-3, .cls-4, .cls-5, .cls-6, .cls-7, .cls-8, .cls-9, .cls-10, .cls-11 {
        stroke-width: 0px;
      }

      .cls-2 {
        fill: #e0e0e0;
      }

      .cls-12 {
        opacity: .5;
      }

      .cls-13 {
        opacity: .2;
      }

      .cls-3 {
        fill: #eb996e;
      }

      .cls-4 {
        fill: #455a64;
      }

      .cls-5 {
        fill: #f5f5f5;
      }

      .cls-6 {
        fill: #09f;
      }

      .cls-7 {
        fill: #ffbe9d;
      }

      .cls-8 {
        fill: #ebebeb;
      }

      .cls-9 {
        fill: #263238;
      }

      .cls-10 {
        fill: #fafafa;
      }

      .cls-11 {
        fill: #fff;
      }

      .cls-14 {
        opacity: .4;
      }
    </style>
  </defs>
  <g id="freepik--background-complete--inject-85">
    <rect class="cls-2" x="840.27" y="224" width="143.93" height="196.7"/>
    <rect class="cls-10" x="845.28" y="229.38" width="133.85" height="186.16"/>
    <rect class="cls-2" x="890.37" y="272.96" width="43.66" height="106.64"/>
    <path class="cls-8" d="M120.02,774.08c33.8-16.41,46.98-54.75,51.41-90.37.75-5.95,2.38-12.09.4-17.73-1.98-5.64-8-10.23-13.7-8.61-4.72,1.36-7.44,6.17-10.57,10.04-4.19,5.11-9.73,8.94-15.99,11.05-4.07,1.35-8.94,1.81-12.32-.83-4.66-3.63-4.13-10.79-3.17-16.67,1.83-10.94,3.64-21.89,5.45-32.86.98-5.88,1.95-11.89,1-17.76-.95-5.87-4.16-11.72-9.51-14.17-5.35-2.45-12.78-.33-14.89,5.24-.88,2.32-.77,4.89-1.33,7.3-.56,2.41-2.11,4.93-4.55,5.25s-4.55-1.72-6.02-3.73c-5.14-6.91-8.03-15.22-10.67-23.44-2.64-8.22-5.15-16.63-9.63-23.98-4.48-7.36-11.29-13.64-19.64-15.53-8.35-1.89-18.16,1.89-21.62,9.88-3.46,7.99,0,17.21,4.3,24.7,6.2,11.21,14,21.46,23.15,30.42,1.65,1.62,3.43,3.36,3.79,5.65.66,4.13-3.69,7.43-7.76,8.1-4.62.76-9.31-.44-13.99-.63-4.68-.19-10.04,1.03-12.39,5.09-3.37,5.64.66,12.74,4.95,17.66,8.6,9.85,18.83,18.15,30.25,24.53,4.07,2.27,8.41,4.39,11.48,7.99,3.07,3.6,4.3,9.22,1.51,13.02-2.8,3.8-8.39,4.3-12.8,2.71-4.4-1.59-8.08-4.66-12.14-6.99-7.6-4.3-18.13-5.44-24.39.72-4.13,4.06-5.45,10.41-4.6,16.17.85,5.75,3.6,11.02,6.61,15.97,10.54,17.21,25.19,32.15,42.92,41.6s34.83,14.01,54.51,10.17"/>
    <path class="cls-2" d="M115.23,775.96c.96-14.24,1.59-6.86-.82-25.56-2.81-20.25-6.78-40.31-11.91-60.1l-3.92-15.61c-1.25-5.03-2.6-10.18-4.12-15.08-3.03-9.38-6.58-18.58-10.63-27.56-3.8-8.61-7.72-16.63-11.48-24.1-3.76-7.47-7.36-14.33-10.89-20.48-5.58-9.72-11.92-18.99-18.96-27.71-2.48-3.1-4.49-5.42-5.87-6.99l-1.59-1.76c-.17-.21-.36-.4-.56-.57.14.23.29.45.47.65l1.43,1.84c1.32,1.61,3.27,3.99,5.74,7.1,6.9,8.8,13.13,18.11,18.65,27.84,3.51,6.15,7.07,13.05,10.77,20.53,3.7,7.47,7.57,15.52,11.33,24.1,4.01,8.96,7.52,18.13,10.51,27.47,1.56,4.86,2.87,9.88,4.13,15.02s2.6,10.33,3.92,15.59c5.11,19.75,9.1,39.76,11.96,59.96,2.45,18.65,1.91,11.19,1.05,25.39"/>
    <path class="cls-2" d="M94.13,659.52c.41-.77.73-1.58.98-2.41.56-1.58,1.31-3.89,2.19-6.76,1.76-5.74,3.93-13.71,6.28-22.53,2.35-8.82,4.63-16.77,6.47-22.45.92-2.87,1.69-5.15,2.24-6.73.33-.8.58-1.64.73-2.5-.47.74-.85,1.53-1.13,2.35-.67,1.53-1.55,3.79-2.55,6.61-2.05,5.64-4.45,13.58-6.81,22.42l-5.97,22.61c-.75,2.71-1.43,5.01-1.86,6.84-.28.82-.47,1.67-.56,2.54Z"/>
    <path class="cls-2" d="M20.72,633.35c.96.37,1.95.66,2.95.85,1.91.47,4.69,1.16,8.09,2.11,6.81,1.85,16.12,4.73,26.26,8.38,10.14,3.64,19.18,7.34,25.63,10.21,3.24,1.43,5.84,2.61,7.63,3.44.91.49,1.88.89,2.87,1.19-.84-.6-1.73-1.13-2.65-1.58-1.74-.95-4.3-2.27-7.5-3.77-6.38-3.06-15.41-6.89-25.58-10.54-8.67-3.15-17.5-5.85-26.45-8.09-3.43-.86-6.24-1.43-8.19-1.78-1.01-.24-2.04-.38-3.07-.42Z"/>
    <path class="cls-2" d="M113.7,748.86s.27-.27.67-.85,1.03-1.52,1.72-2.52c1.43-2.21,3.57-5.47,6.08-9.51,5.03-8.08,11.63-19.47,18.73-32.13,7.1-12.67,13.6-24.11,18.46-32.29l5.74-9.67,1.56-2.65c.34-.6.52-.93.47-.96-.25.25-.48.54-.66.85-.47.69-1.03,1.52-1.74,2.52-1.43,2.21-3.56,5.45-6.07,9.5-5.03,8.09-11.63,19.48-18.75,32.16-7.11,12.68-13.58,24.1-18.45,32.27l-5.74,9.67-1.56,2.65c-.2.3-.37.62-.49.96Z"/>
    <path class="cls-2" d="M18.32,700.45c.28.23.6.43.93.57l2.75,1.43,10.21,5.21c8.61,4.39,20.46,10.6,33.54,17.47,13.08,6.87,24.97,13,33.69,17.21,4.3,2.11,7.9,3.77,10.37,4.88l2.87,1.26c.32.16.67.29,1.02.37,0,0-.3-.23-.93-.57l-2.75-1.43-10.21-5.19c-8.61-4.4-20.46-10.61-33.54-17.49-13.08-6.87-24.99-12.92-33.71-17.23-4.3-2.11-7.89-3.79-10.37-4.89l-2.87-1.25c-.32-.16-.65-.28-1-.36Z"/>
    <rect class="cls-2" x="38.71" y="345.47" width="113.66" height="111.67"/>
    <rect class="cls-10" x="42.67" y="348.52" width="105.69" height="105.69"/>
    <rect class="cls-2" x="78.27" y="384.14" width="34.48" height="34.48"/>
  </g>
  <g id="freepik--Floor--inject-85">
    <path class="cls-9" d="M950.35,775.63c0,.2-200.18.37-447.04.37s-447.07-.2-447.07-.37,200.13-.37,447.07-.37,447.04.16,447.04.37Z"/>
  </g>
  <g id="freepik--Device--inject-85">
    <path class="cls-4" d="M793.49,263.3H213.09c-10.01,0-18.12,8.11-18.12,18.12h0v409.93c0,10.01,8.11,18.12,18.12,18.12h222.78s14.17,43.82-29.75,66.49h208.28s-49.59-17-36.84-66.49h215.93c10.01,0,18.12-8.11,18.12-18.12h0v-409.93c0-10.01-8.11-18.12-18.12-18.12h0Z"/>
    <path class="cls-9" d="M511.04,666.37c7.9,11.27-4.46,23.64-15.78,15.78-.38-.26-.7-.59-.96-.96-7.88-11.29,4.46-23.63,15.78-15.78.37.27.7.59.96.96Z"/>
    <rect class="cls-10" x="208.07" y="287.88" width="589.22" height="349.5" rx="4.69" ry="4.69"/>
    <path class="cls-11" d="M792.6,638.09H212.78c-2.99,0-5.41-2.42-5.42-5.41v-340.12c0-2.99,2.43-5.41,5.42-5.41h579.83c2.99,0,5.41,2.42,5.41,5.41h0v340.12c0,2.99-2.42,5.41-5.41,5.41h0ZM212.78,288.59c-2.2,0-3.98,1.78-3.99,3.97v340.12c0,2.2,1.79,3.97,3.99,3.97h579.83c2.19,0,3.97-1.78,3.97-3.97h0v-340.12c0-2.19-1.78-3.97-3.97-3.97H212.78Z"/>
    <path class="cls-4" d="M256.4,301.37c.02,2.6-2.08,4.72-4.68,4.73-2.6.02-4.72-2.08-4.73-4.68-.02-2.6,2.08-4.72,4.68-4.73,0,0,.02,0,.03,0,2.59,0,4.69,2.09,4.7,4.68Z"/>
    <path class="cls-4" d="M227.88,301.37c0,2.6-2.11,4.7-4.7,4.7s-4.7-2.11-4.7-4.7,2.11-4.7,4.7-4.7h0c2.6,0,4.7,2.11,4.7,4.7Z"/>
    <path class="cls-4" d="M241.56,301.37c0,2.6-2.11,4.7-4.7,4.7s-4.7-2.11-4.7-4.7,2.11-4.7,4.7-4.7h0c2.6,0,4.7,2.11,4.7,4.7Z"/>
    <path class="cls-9" d="M797.72,315.5c0,.2-132.11.37-295.02.37s-295.05-.17-295.05-.37,132.07-.37,295.05-.37,295.02.22,295.02.37Z"/>
    <rect class="cls-5" x="659.03" y="346.93" width="106.45" height="85.11" transform="translate(-.75 1.37) rotate(-.11)"/>
    <rect class="cls-8" x="662.7" y="352.3" width="98.98" height="74.39" transform="translate(-.75 1.37) rotate(-.11)"/>
    <polygon class="cls-2" points="662.76 426.83 697.24 380.53 718.72 409.43 733.2 393.92 761.73 426.66 662.76 426.83"/>
    <path class="cls-2" d="M727.74,374.82c-.02,4.31-3.52,7.79-7.83,7.77-4.31-.02-7.79-3.52-7.77-7.83.02-4.28,3.48-7.75,7.76-7.77,4.31-.02,7.82,3.45,7.85,7.76,0,.02,0,.05,0,.07Z"/>
    <rect class="cls-5" x="659.05" y="529.15" width="106.45" height="85.11" transform="translate(-1.1 1.37) rotate(-.11)"/>
    <rect class="cls-8" x="662.72" y="534.51" width="98.98" height="74.39" transform="translate(-1.1 1.37) rotate(-.11)"/>
    <polygon class="cls-2" points="662.76 609.05 697.24 562.74 718.72 591.63 733.2 576.14 761.73 608.86 662.76 609.05"/>
    <path class="cls-2" d="M727.74,557.02c.02,4.31-3.47,7.82-7.77,7.83-4.31.02-7.82-3.47-7.83-7.77-.02-4.31,3.47-7.82,7.77-7.83,0,0,.02,0,.03,0,4.3,0,7.8,3.47,7.8,7.77h0Z"/>
    <rect class="cls-5" x="232.26" y="346.96" width="106.45" height="85.11" transform="translate(-.75 .55) rotate(-.11)"/>
    <rect class="cls-8" x="235.93" y="352.33" width="98.98" height="74.39" transform="translate(-.75 .55) rotate(-.11)"/>
    <polygon class="cls-2" points="235.97 426.83 270.45 380.53 291.93 409.43 306.42 393.92 334.95 426.66 235.97 426.83"/>
    <path class="cls-2" d="M300.95,374.82c-.02,4.3-3.53,7.77-7.83,7.75-4.3-.02-7.77-3.53-7.75-7.83.02-4.28,3.5-7.74,7.77-7.75,4.3,0,7.8,3.47,7.8,7.77,0,.02,0,.04,0,.06Z"/>
    <rect class="cls-5" x="232.28" y="438.69" width="106.45" height="85.11" transform="translate(-.92 .55) rotate(-.11)"/>
    <rect class="cls-8" x="235.95" y="444.05" width="98.98" height="74.39" transform="translate(-.92 .55) rotate(-.11)"/>
    <polygon class="cls-2" points="235.97 518.56 270.45 472.24 291.93 501.15 306.42 485.66 334.95 518.38 235.97 518.56"/>
    <path class="cls-2" d="M300.95,466.53c.02,4.3-3.44,7.81-7.75,7.83-4.3.02-7.81-3.44-7.83-7.75-.02-4.3,3.44-7.81,7.75-7.83,0,0,.02,0,.03,0,4.29,0,7.78,3.46,7.8,7.75Z"/>
    <rect class="cls-5" x="232.28" y="531.23" width="106.45" height="85.11" transform="translate(-1.1 .55) rotate(-.11)"/>
    <rect class="cls-8" x="235.95" y="536.59" width="98.98" height="74.39" transform="translate(-1.1 .55) rotate(-.11)"/>
    <polygon class="cls-2" points="235.97 611.1 270.45 564.79 291.93 593.68 306.42 578.19 334.95 610.92 235.97 611.1"/>
    <path class="cls-2" d="M300.95,559.07c0,4.3-3.47,7.8-7.77,7.8-4.3,0-7.8-3.47-7.8-7.77s3.47-7.8,7.77-7.8c4.3,0,7.79,3.48,7.8,7.77Z"/>
  </g>
  <g id="freepik--Character--inject-85">
    <path class="cls-6" d="M781.36,430.57c-6.82-1.02-13.71,1.36-18.43,6.38-7.5,7.53-38.73,35.03-38.73,35.03l-45.3-9.07-6.34,20.25s53.5,16.64,57.38,15.21,32.99-21.07,32.99-21.07l18.43-46.73Z"/>
    <rect class="cls-8" x="528.54" y="374.83" width="220.09" height="175.95" transform="translate(-56.45 90.1) rotate(-7.73)"/>
    <path class="cls-9" d="M735.8,360.76l-1.05.16-3.04.44-11.82,1.65-44.61,6.15-157.5,21.52.33-.43c7.06,51.9,15.16,111.38,23.73,174.33h0l-.47-.36,218.03-29.55-.3.4-16.97-126.49c-2.02-15.23-3.61-27.18-4.7-35.33-.53-4.07-.95-7.17-1.22-9.32s-.4-3.21-.4-3.21c0,0,.17,1.05.46,3.13.29,2.08.73,5.21,1.31,9.24,1.12,8.13,2.77,20.08,4.88,35.23,4.17,30.48,10.17,74.09,17.39,126.7v.36h-.36l-218.03,29.69h-.43v-.43h0c-8.53-62.96-16.6-122.44-23.64-174.34v-.37h.37l157.79-21.23,44.55-5.95,11.76-1.55,3.01-.39.95-.04Z"/>
    <rect class="cls-6" x="534.21" y="388.78" width="204.32" height="153.57" transform="translate(-55.2 86.81) rotate(-7.48)"/>
    <polygon class="cls-6" points="547.43 552.73 605.38 448.39 657.29 501.69 682.74 465.96 750.19 525.19 547.43 552.73"/>
    <path class="cls-6" d="M666.29,428.29c1.2,8.82-4.98,16.93-13.8,18.13-8.82,1.2-16.93-4.98-18.13-13.8-1.2-8.82,4.98-16.93,13.8-18.13,0,0,0,0,.01,0,8.81-1.19,16.92,4.99,18.12,13.8Z"/>
    <g class="cls-13">
      <polygon class="cls-1" points="547.43 552.73 605.38 448.39 657.29 501.69 682.74 465.96 750.19 525.19 547.43 552.73"/>
    </g>
    <g class="cls-13">
      <path class="cls-1" d="M666.29,428.29c1.2,8.82-4.98,16.93-13.8,18.13-8.82,1.2-16.93-4.98-18.13-13.8-1.2-8.82,4.98-16.93,13.8-18.13,0,0,0,0,.01,0,8.81-1.19,16.92,4.99,18.12,13.8Z"/>
    </g>
    <path class="cls-6" d="M832.84,453.18c2.07-14.19-4.52-18.65-14.86-22.95-12.91-5.35-37.52-2.68-45.9,4.81l-9.47,28.06c-3.97,4.63-3.34,11.71-1.05,17.37,2.3,5.67,6,10.74,7.7,16.6,3.31,11.35.99,21.37.2,33.15-.17,2.73-2.27,7.75-.26,9.58,2.01,1.84,4.63,1.75,7.17,1.65,19.79-.81,39.2-5.72,56.99-14.42-6.76-13.63-14.2-29.41-9.85-39.85,4.49-10.91,7.62-22.33,9.32-34Z"/>
    <path class="cls-6" d="M743.5,482.2l-6.4,21.77s33.41,12.15,51.5,11.93c16.96-.22,21.8-2.14,27.77-15.78,5.97-13.64,12.74-29.42,14.16-38.47,1.01-3,1.73-6.1,2.15-9.24,2.48-18.58-20.08-23.47-23.42-5.02l-2.7,9.88s-6.15,13.91-6.44,14.69c-2.73,7.17-7.44,18.78-10.86,20.08s-45.76-9.85-45.76-9.85Z"/>
    <path class="cls-9" d="M825.08,483.17c-.04.18-.1.35-.17.52l-.59,1.43c-.52,1.31-1.32,3.21-2.48,5.62-1.38,2.97-2.94,5.84-4.69,8.61-2.29,3.68-5.03,7.05-8.16,10.04-.91.84-1.87,1.63-2.87,2.37-1.06.74-2.15,1.43-3.28,2.07l-1.82.83-.93.4-.99.27-2.01.56-2.11.26c-6.02.33-12.06-.09-17.97-1.28-13.57-2.56-26.95-6.06-40.04-10.47l-.33-.11.1-.34.8-2.75,5.58-19.02.1-.34.34.09c12.22,3.27,23.78,6.13,34.3,8.05,2.64.46,5.21.86,7.7,1.06,1.22.12,2.44.12,3.66,0,.28-.03.55-.1.82-.2.24-.09.45-.25.59-.46.35-.45.67-.93.95-1.43,2.35-4.06,4.16-8.06,5.87-11.65,3.36-7.17,5.92-13.04,7.72-17.04.87-1.97,1.56-3.51,2.05-4.59.22-.5.4-.89.53-1.19s.2-.4.22-.39,0,.14-.14.42-.29.7-.49,1.2l-1.91,4.53c-1.71,4.05-4.22,9.9-7.52,17.14-1.68,3.61-3.44,7.6-5.74,11.73-.3.53-.63,1.05-1,1.53-.21.28-.49.5-.82.63-.3.12-.62.19-.95.23-1.26.14-2.53.14-3.79,0-2.54-.19-5.12-.59-7.76-1.03-10.57-1.88-22.13-4.7-34.43-7.96l.44-.26-5.57,19.03-.8,2.75-.24-.46c13.05,4.4,26.38,7.91,39.91,10.5,5.85,1.19,11.84,1.64,17.8,1.33l2.05-.23,1.95-.53.96-.26.92-.4,1.78-.79c1.11-.61,2.18-1.28,3.21-2.01,1-.71,1.96-1.48,2.87-2.3,3.12-2.94,5.86-6.25,8.15-9.87,1.76-2.71,3.36-5.53,4.79-8.43,1.2-2.38,2.04-4.3,2.61-5.57l.65-1.43c.05-.15.11-.29.19-.42Z"/>
    <path class="cls-9" d="M767.63,457.8c-.69,1.37-1.46,2.69-2.32,3.96-1.99,3.06-3.39,6.46-4.1,10.04-.45,3.62.16,7.29,1.76,10.57.68,1.37,1.29,2.78,1.81,4.22-.28-.31-.51-.66-.69-1.03-.58-.96-1.11-1.95-1.59-2.97-.75-1.5-1.33-3.08-1.75-4.7-.52-2.02-.62-4.13-.29-6.2.73-3.68,2.23-7.16,4.4-10.21.81-1.31,1.73-2.54,2.77-3.67Z"/>
    <g class="cls-13">
      <path class="cls-1" d="M770.58,513.3c-.06,2.52.99,4.93,2.87,6.61,1.87,1.65,4.1,2.84,6.51,3.46,7.61,2.15,15.76,1.04,22.52-3.06,6.66-4.06,11.19-11.48,13.02-19.01,0,0-4.2,5.29-6.97,8.05-3.46,3.49-8.02,5.66-12.91,6.15-8.42,1.19-16.94-.52-25.26-2.22"/>
    </g>
    <path class="cls-10" d="M767.99,437.43c.8.32,1.58.69,2.32,1.12l5.87,3.07.53.29-.52.33c-1.26.82-2.63,1.72-4.06,2.64-1.43.92-2.58,1.66-3.77,2.41l-.55.36v-7.52c-.05-.9,0-1.81.17-2.7.18.89.27,1.79.27,2.7.09,1.69.17,4.07.26,6.87l-.56-.29,3.77-2.45c1.43-.93,2.87-1.81,4.1-2.63v.6c-4.69-2.61-7.98-4.62-7.85-4.81Z"/>
    <path class="cls-10" d="M752.04,451.62c.8.33,1.57.7,2.32,1.12l5.87,3.08.52.27-.5.33-4.06,2.65-3.77,2.41-.55.34v-7.5c-.05-.91.01-1.82.17-2.71.18.89.27,1.79.26,2.7.1,1.69.19,4.09.27,6.87l-.56-.29,3.77-2.45,4.1-2.63v.62c-4.69-2.61-7.98-4.6-7.85-4.82Z"/>
    <path class="cls-10" d="M794.71,456.48c-.01-.86.05-1.73.17-2.58.19-1.85.42-4.07.67-6.58v-.59l.5.36,3.96,2.78,3.64,2.6.53.39-.59.24c-2.58,1.06-4.81,1.95-6.38,2.55-.82.38-1.68.66-2.57.83.75-.5,1.55-.92,2.4-1.25,1.53-.72,3.72-1.69,6.28-2.87v.63l-3.69-2.6c-1.43-.99-2.71-1.95-3.96-2.87l.56-.24c-.67,5.45-1.32,9.24-1.53,9.19Z"/>
    <path class="cls-10" d="M766.54,473.25c.5-.7,1.04-1.37,1.64-1.99l4.38-4.98.4-.43.2.57c.5,1.43,1.05,2.95,1.61,4.56l1.43,4.3.2.62-.62-.16c-2.71-.63-5.03-1.2-6.67-1.64-.89-.17-1.76-.43-2.58-.8.9.03,1.79.16,2.67.37,1.68.32,4.02.79,6.74,1.43l-.4.47c-.47-1.33-.98-2.75-1.43-4.3s-1.09-3.16-1.58-4.6l.59.13c-3.7,3.89-6.41,6.6-6.57,6.44Z"/>
    <path class="cls-10" d="M788.56,475.5c0-.86.06-1.73.17-2.58.19-1.86.42-4.09.67-6.58v-.59l.5.34,3.97,2.78,3.63,2.61.53.37-.59.24c-2.57,1.06-4.79,1.95-6.38,2.55-.82.38-1.68.66-2.57.85.75-.51,1.55-.93,2.4-1.25,1.53-.72,3.73-1.69,6.28-2.8v.62l-3.69-2.6-3.94-2.87.56-.24c-.69,5.34-1.36,9.17-1.55,9.14Z"/>
    <path class="cls-10" d="M780.73,488.91c0-.86.06-1.73.17-2.58.2-1.85.43-4.07.67-6.58v-.59l.49.36,3.97,2.77,3.64,2.61.53.39-.59.24c-2.58,1.06-4.81,1.94-6.4,2.54-.82.39-1.68.67-2.57.85.75-.5,1.55-.92,2.4-1.25,1.55-.72,3.73-1.69,6.28-2.8v.62l-3.67-2.58-3.96-2.87.56-.24c-.69,5.39-1.31,9.12-1.53,9.12Z"/>
    <path class="cls-10" d="M796.99,534.1c-.01-.86.04-1.73.16-2.58.2-1.86.43-4.07.69-6.58v-.59l.5.34,3.96,2.78,3.66,2.61.53.37-.59.24c-2.58,1.06-4.81,1.95-6.38,2.55-.82.37-1.68.66-2.57.85.75-.51,1.55-.93,2.4-1.25,1.53-.72,3.72-1.69,6.28-2.8v.62l-3.69-2.58-3.96-2.87.56-.23c-.7,5.36-1.33,9.15-1.55,9.11Z"/>
    <path class="cls-10" d="M811.12,444.86c0-.86.06-1.73.17-2.58.19-1.86.42-4.09.67-6.58v-.59l.5.34,3.96,2.78,3.64,2.61.53.37-.59.24c-2.57,1.06-4.79,1.95-6.38,2.55-.82.37-1.68.66-2.57.85.74-.51,1.55-.93,2.4-1.25,1.53-.72,3.73-1.69,6.28-2.87v.63l-3.74-2.54-3.94-2.87.56-.24c-.63,5.38-1.26,9.17-1.49,9.14Z"/>
    <path class="cls-10" d="M775.83,460.68c-.01-.86.05-1.73.17-2.58.19-1.86.42-4.09.67-6.6v-.59l.5.36,3.96,2.78,3.64,2.61.53.37-.59.24c-2.58,1.06-4.81,1.95-6.38,2.55-.82.37-1.68.66-2.57.85.74-.52,1.55-.94,2.4-1.26,1.53-.72,3.72-1.68,6.28-2.8v.63l-3.69-2.6-3.96-2.87.56-.24c-.63,5.38-1.28,9.17-1.53,9.14Z"/>
    <path class="cls-10" d="M777.87,530.37c0-.86.06-1.73.17-2.58.19-1.85.42-4.07.67-6.58v-.59l.5.36,3.97,2.78,3.63,2.6.53.39-.59.24c-2.57,1.06-4.79,1.94-6.38,2.54-.82.39-1.68.68-2.57.85.75-.5,1.55-.92,2.4-1.25,1.53-.72,3.73-1.69,6.28-2.8v.62l-3.69-2.58-3.94-2.87.56-.24c-.72,5.38-1.32,9.17-1.55,9.12Z"/>
    <path class="cls-10" d="M815.64,472.11c0-.86.06-1.73.17-2.58.19-1.86.42-4.09.67-6.58v-.6l.49.36,3.97,2.78,3.64,2.61.52.37-.57.24c-2.58,1.06-4.81,1.95-6.4,2.55-.82.38-1.68.66-2.57.85.74-.52,1.55-.94,2.4-1.26,1.55-.7,3.73-1.68,6.28-2.8v.63l-3.67-2.6-3.96-2.87.56-.24c-.67,5.38-1.31,9.17-1.53,9.14Z"/>
    <path class="cls-10" d="M799.29,504.59c-.01-.86.05-1.73.17-2.58.19-1.86.42-4.09.67-6.58v-.59l.5.34,3.96,2.78,3.64,2.61.53.37-.59.24c-2.58,1.06-4.81,1.95-6.38,2.55-.82.37-1.68.66-2.57.85.75-.5,1.55-.92,2.4-1.25,1.53-.72,3.72-1.69,6.28-2.8v.62l-3.69-2.58-3.96-2.87.56-.24c-.6,5.38-1.32,9.22-1.53,9.12Z"/>
    <path class="cls-10" d="M812.94,519.64c-.01-.87.04-1.74.16-2.6.2-1.85.43-4.07.69-6.58v-.59l.5.36,3.96,2.78c1.28.9,2.5,1.79,3.64,2.6l.53.39-.59.24c-2.58,1.06-4.81,1.95-6.38,2.55-.82.37-1.68.66-2.57.85.74-.52,1.55-.95,2.4-1.26,1.53-.72,3.72-1.69,6.28-2.87v.63l-3.69-2.6-3.96-2.87.56-.24c-.69,5.45-1.35,9.24-1.53,9.21Z"/>
    <path class="cls-10" d="M803.59,488.08c0-.86.06-1.73.17-2.58.19-1.86.42-4.09.67-6.58v-.59l.5.34,3.96,2.78,3.64,2.61.53.37-.59.24c-2.57,1.06-4.79,1.95-6.38,2.55-.82.37-1.68.66-2.57.85.74-.51,1.55-.93,2.4-1.25,1.53-.72,3.73-1.69,6.28-2.87v.62l-3.69-2.6-3.94-2.87.56-.24c-.62,5.47-1.32,9.24-1.55,9.21Z"/>
    <path class="cls-10" d="M759.84,507.42c-.01-.86.05-1.73.17-2.58.19-1.86.42-4.07.67-6.58v-.59l.5.34,3.96,2.78,3.64,2.61.53.37-.59.24c-2.58,1.06-4.81,1.95-6.38,2.55-.82.37-1.68.66-2.57.85.75-.5,1.55-.92,2.4-1.25,1.53-.72,3.72-1.69,6.28-2.8v.62l-3.69-2.58-3.96-2.87.56-.23c-.67,5.36-1.32,9.15-1.53,9.11Z"/>
    <path class="cls-10" d="M781.4,502.87c0-.86.06-1.73.17-2.58.2-1.85.43-4.07.67-6.58v-.59l.5.36,3.96,2.78,3.64,2.6.53.39-.59.24c-2.58,1.06-4.81,1.94-6.4,2.54-.82.39-1.68.67-2.57.85.75-.5,1.55-.92,2.4-1.25,1.55-.72,3.73-1.69,6.3-2.87l-.07.62-3.67-2.58-3.96-2.87.56-.24c-.62,5.45-1.31,9.24-1.48,9.19Z"/>
    <path class="cls-10" d="M743.88,497.73c0-.86.06-1.73.17-2.58.19-1.85.42-4.07.67-6.58v-.59l.5.36,3.96,2.77,3.64,2.61.53.39-.59.24c-2.57,1.06-4.79,1.94-6.38,2.54-.82.38-1.68.67-2.57.85.75-.5,1.55-.92,2.4-1.25,1.53-.72,3.73-1.69,6.28-2.8v.62l-3.69-2.58-3.94-2.87.56-.24c-.69,5.38-1.32,9.17-1.55,9.12Z"/>
    <path class="cls-10" d="M828.46,456.11c-.85-.14-1.68-.36-2.5-.65l-6.35-1.88-.56-.17.43-.42,3.47-3.39,3.23-3.1.47-.44.13.62c.57,2.74,1.03,5.08,1.33,6.76.22.87.33,1.77.34,2.67-.35-.83-.61-1.7-.77-2.58-.43-1.64-.98-3.97-1.59-6.68l.6.17c-1.02.98-2.09,2.04-3.23,3.14l-3.51,3.36-.13-.59c5.12,1.65,8.72,3,8.64,3.18Z"/>
    <path class="cls-6" d="M692.19,758.24l6.3-12.18,22.95,11.65-9.02,17.92-1.43-.63c-6.5-2.87-32.82-15.02-36.39-18.45-4.07-3.83,17.6,1.69,17.6,1.69Z"/>
    <g class="cls-12">
      <path class="cls-11" d="M704.11,771.22c1.31-1.76,3.24-2.97,5.39-3.4,2.13-.43,4.33-.05,6.2,1.06l-3.24,6.4-8.35-4.06Z"/>
    </g>
    <g class="cls-14">
      <path class="cls-11" d="M681.43,755.89s-7.82-1.51-7.53,0c.29,1.51,26.41,14.85,38.46,19.69l.22-.53-30.61-15.23s.77-3.2-.53-3.93Z"/>
    </g>
    <path class="cls-9" d="M712.95,775.27l-.42-.16-1.16-.52-4.3-1.94c-3.57-1.65-8.49-4.02-13.86-6.73-5.36-2.71-10.17-5.31-13.63-7.17l-4.07-2.28-1.09-.65c-.26-.14-.39-.23-.37-.24l.4.19,1.12.6,4.16,2.21c3.49,1.85,8.31,4.39,13.67,7.17,5.36,2.78,10.26,5.11,13.81,6.83l4.2,2.02,1.15.56c.13.02.26.05.39.1Z"/>
    <path class="cls-9" d="M681.79,760.22c.16-.78.24-1.58.23-2.38-.12-.79-.33-1.56-.62-2.31.59.62.91,1.43.92,2.28.12.84-.07,1.7-.53,2.41Z"/>
    <path class="cls-9" d="M690.28,760.22c-.09,0-.22-.55-.27-1.25-.1-.41-.1-.85,0-1.26.09,0,.22.55.27,1.23.1.42.1.86,0,1.28Z"/>
    <path class="cls-9" d="M692.64,760.19c-.09,0-.32-.4-.53-.96s-.33-1.02-.24-1.05.32.39.53.95c.17.33.26.69.24,1.06Z"/>
    <path class="cls-9" d="M694.9,758.59c0,.09-.6-.11-1.28-.44-.42-.16-.81-.41-1.13-.73,0-.09.62.11,1.28.44s1.18.73,1.13.73Z"/>
    <path class="cls-9" d="M696.08,757.29c-.53.07-1.07-.03-1.53-.29-.51-.15-.95-.46-1.28-.87.5.15.98.35,1.43.59.47.16.93.35,1.38.57Z"/>
    <path class="cls-9" d="M690.53,757.84c-.52-.17-1-.43-1.43-.76-.51-.34-.99-.73-1.43-1.15-.26-.25-.5-.52-.7-.82-.13-.19-.17-.42-.13-.65.05-.25.26-.44.52-.47,1.45.02,2.67,1.06,2.94,2.48.09.4.09.82,0,1.22-.02.15-.07.3-.16.43.1-.53.1-1.08,0-1.61-.14-.55-.43-1.05-.85-1.43-.48-.49-1.13-.76-1.81-.77-.33,0-.37.37-.2.66.19.28.41.54.66.77.4.42.84.81,1.31,1.16.75.59,1.31.87,1.29.93Z"/>
    <path class="cls-9" d="M690.1,757.71c-.02-.4.1-.79.36-1.1.25-.36.57-.66.95-.87.48-.31,1.08-.36,1.61-.13.28.23.32.64.1.92-.15.21-.35.39-.57.53-.36.23-.74.41-1.15.53-.36.14-.76.2-1.15.17,0,0,.43-.11,1.06-.37.38-.15.74-.34,1.08-.57.36-.22.77-.7.44-.95-.43-.17-.91-.12-1.29.13-.35.18-.66.44-.9.75-.2.31-.38.64-.53.98Z"/>
    <path class="cls-9" d="M715.66,768.76s-.62-.39-1.72-.79c-1.42-.53-2.97-.66-4.46-.36-1.48.32-2.85,1.04-3.96,2.08-.85.8-1.22,1.43-1.26,1.43.05-.17.13-.32.23-.46.25-.4.55-.78.87-1.12,2.24-2.29,5.64-2.99,8.61-1.78.43.19.85.41,1.25.67.37.19.46.3.44.32Z"/>
    <path class="cls-9" d="M718.13,758.03c-.63,1.65-1.36,3.25-2.18,4.81-.73,1.6-1.56,3.16-2.48,4.66.64-1.64,1.38-3.25,2.19-4.81.73-1.6,1.56-3.16,2.47-4.66Z"/>
    <path class="cls-9" d="M702.41,767.52c-1.23-.31-2.41-.8-3.51-1.43-1.15-.52-2.22-1.18-3.21-1.97,0-.09,1.51.77,3.36,1.68,1.85.9,3.4,1.64,3.37,1.72Z"/>
    <path class="cls-9" d="M706.9,769.8c0,.09-.29.24-.62.52s-.56.53-.63.49,0-.43.44-.73.79-.36.8-.27Z"/>
    <path class="cls-9" d="M709.65,768.63c0,.09-.23.24-.59.36s-.67.16-.7.07.24-.24.6-.36.67-.23.69-.07Z"/>
    <path class="cls-9" d="M712.56,768.83s-.36-.1-.75-.14-.73,0-.77-.09.33-.3.82-.23.76.39.7.46Z"/>
    <path class="cls-9" d="M714.51,769.24c0,.09-.2.13-.42.11s-.42-.11-.4-.2.2-.13.43-.11.4.11.39.2Z"/>
    <path class="cls-6" d="M842.44,763.12l-5.45-12.58,23.48-10.36,8.18,18.3-1.43.75c-6.33,3.21-32.38,15.92-37.3,16.52-5.45.67,12.52-12.64,12.52-12.64Z"/>
    <g class="cls-12">
      <path class="cls-11" d="M860.05,762.07c-.53-2.14-.25-4.4.79-6.34,1.01-1.92,2.7-3.39,4.73-4.13l2.87,6.57-8.39,3.9Z"/>
    </g>
    <g class="cls-14">
      <path class="cls-11" d="M833.81,769.98s-6.11,5.11-4.73,5.87c1.38.76,28.2-11.09,39.58-17.36l-.27-.5-31.16,14.1s-2.02-2.65-3.41-2.11Z"/>
    </g>
    <path class="cls-9" d="M868.74,757.81l-.39.22-1.12.59-4.19,2.07c-3.56,1.72-8.49,4.05-13.99,6.48-5.49,2.44-10.54,4.53-14.2,6l-4.3,1.72-1.19.44-.42.13c.12-.08.25-.15.39-.2l1.18-.49,4.3-1.81c3.64-1.52,8.61-3.64,14.16-6.08,5.55-2.44,10.44-4.72,14.01-6.4l4.23-1.98,1.15-.53.37-.16Z"/>
    <path class="cls-9" d="M837.39,772.44c-.5-.63-1.07-1.19-1.69-1.69-.69-.41-1.42-.74-2.18-.99.85-.04,1.68.22,2.35.73.73.44,1.28,1.13,1.52,1.95Z"/>
    <path class="cls-9" d="M842.77,765.86c0,.07-.56-.19-1.13-.57s-1.02-.76-.98-.83.56.19,1.15.57,1,.73.96.83Z"/>
    <path class="cls-9" d="M844.23,764.01c0,.09-.52,0-1.08-.19s-1-.4-.98-.47.5,0,1.08.19.99.4.98.47Z"/>
    <path class="cls-9" d="M844.44,761.27c0,.07-.49.39-1.16.69s-1.25.5-1.28.42.47-.39,1.15-.69,1.26-.5,1.29-.42Z"/>
    <path class="cls-9" d="M844.17,759.52s-.43.59-1.19,1c-.42.29-.92.44-1.43.43.43-.27.88-.51,1.35-.7.66-.39,1.2-.8,1.28-.73Z"/>
    <path class="cls-9" d="M841.06,764.17c-.46.3-.97.53-1.51.66-.58.17-1.17.28-1.76.34-.36.04-.73.04-1.09,0-.22-.02-.43-.13-.57-.3-.14-.21-.14-.49,0-.7.93-1.1,2.51-1.4,3.77-.7.37.19.69.46.95.79.1.11.17.24.22.39-.36-.4-.79-.73-1.26-.98-.51-.25-1.08-.35-1.65-.27-.68.07-1.31.4-1.75.92-.16.29,0,.53.4.56.33.04.67.04,1,0,.58-.05,1.16-.15,1.74-.29.93-.26,1.51-.46,1.52-.42Z"/>
    <path class="cls-9" d="M840.7,764.41s-.4-.26-.63-.98c-.1-.42-.1-.86,0-1.28.06-.57.4-1.08.92-1.33.35-.06.68.16.76.5.06.26.06.53,0,.79-.05.42-.15.83-.3,1.22-.11.38-.32.72-.6.99,0,0,.19-.4.39-1.06.12-.38.2-.78.23-1.18,0-.42,0-1.05-.44-.96s-.62.69-.72,1.09c-.09.38-.09.78,0,1.16.1.36.24.7.4,1.03Z"/>
    <path class="cls-9" d="M865.43,751.59s-.7.24-1.71.83c-1.31.77-2.38,1.9-3.1,3.24-.7,1.35-1.01,2.86-.89,4.38.09,1.18.34,1.86.29,1.88-.09-.14-.16-.3-.2-.47-.15-.47-.26-.95-.3-1.43-.39-3.21,1.23-6.32,4.09-7.83.41-.23.85-.41,1.31-.55.17-.04.34-.05.52-.04Z"/>
    <path class="cls-9" d="M858.67,742.89c.87,1.53,1.65,3.11,2.34,4.73.77,1.58,1.45,3.21,2.05,4.86-.88-1.53-1.66-3.11-2.34-4.73-.79-1.58-1.47-3.2-2.05-4.86Z"/>
    <path class="cls-9" d="M856.16,761.08c-1.01.76-2.11,1.38-3.28,1.85-1.12.58-2.32,1-3.56,1.25,0-.09,1.55-.67,3.43-1.52s3.28-1.65,3.41-1.58Z"/>
    <path class="cls-9" d="M860.68,759.04c.09,0,0,.37,0,.8v.79s-.29-.32-.27-.8.2-.83.27-.79Z"/>
    <path class="cls-9" d="M861.47,756.12s0,.34-.1.69-.32.62-.39.59,0-.34.1-.69.3-.62.39-.59Z"/>
    <path class="cls-9" d="M863.51,754.02c0,.1-.29.23-.59.5s-.46.57-.53.55,0-.44.33-.77.79-.34.79-.27Z"/>
    <path class="cls-9" d="M865.07,752.85s0,.23-.19.4-.33.24-.4.17,0-.23.19-.4.34-.3.4-.17Z"/>
    <path class="cls-9" d="M866.42,748l-32.99,18.81-46.4-92.85c-6.89-24.83-13.53-112.23-13.53-112.23l38.2,2.87s5.88,62.76,15.12,95.09l39.6,88.32Z"/>
    <path class="cls-9" d="M830.69,523.54c.92,0,7.6,25.82-.55,41.47-.8,1.52-6.66,10.04-6.66,10.04-20.81,24.54-41.9,72.18-47.8,84.63-12.08,25.68-56.59,110.11-56.59,110.11l-28.59-16.37,41.8-107.5,35.86-105.47,62.51-16.91Z"/>
    <path class="cls-4" d="M811.91,589.88c-.46.67-.86,1.37-1.2,2.11l-3.1,5.94c-2.61,4.95-6.28,11.75-10.34,19.26-4.06,7.52-7.67,14.34-10.17,19.38-1.25,2.51-2.24,4.55-2.87,5.97-.37.72-.7,1.47-.96,2.24.47-.67.87-1.37,1.22-2.11.77-1.43,1.82-3.47,3.08-5.87,2.61-4.95,6.28-11.75,10.36-19.26,4.07-7.52,7.67-14.34,10.16-19.38,1.26-2.51,2.25-4.55,2.87-5.97.38-.74.7-1.52.96-2.31Z"/>
    <path class="cls-7" d="M732.99,498.25c-5.06-.41-10.08-1.1-15.06-2.07-6.13-1.43-6.02-2.04-5.74-2.73.75-1.86,10.87,2.19,9.17,0-1.71-2.19-12.91-3.5-12.06-5.41,1.1-2.5,11.65,1.95,12.55,2.27s1.36-1.02.53-1.26c-1.22-.33-13.84-4.2-12.77-6.66.59-1.43,2.87,0,2.87,0,0,0,11.56,4.5,12.03,3.33.47-1.18-6.24-4.07-8.61-4.88-2.37-.8-2.87-2.22-1.71-2.95.79-.5,7.98,1.79,10.26,2.65s8.52,3.3,6.37-.43-2.32-7.34-1.75-8.42c.57-1.08,2.24-.55,2.38.79.29,1.42.77,2.8,1.43,4.09.49,1.06,1.16,2.03,1.97,2.87.7.73,1.35,1.35,1.94,1.89l5.12,4.82-3.56,12.54-5.36-.44Z"/>
    <path class="cls-9" d="M797.22,362.16c-1.82-2.87-5.64-4-9.11-3.96-9.92.4-18.29,7.49-20.31,17.21-.69,3.89-.29,7.98-1.43,11.72-1.04,2.67-2.43,5.18-4.13,7.49-1.7,2.3-2.89,4.94-3.47,7.75-.55,2.87.56,5.81,2.87,7.6-3.69,3.74-3.65,9.76.08,13.45,2.19,2.16,5.29,3.13,8.32,2.6,2.08-.36,4.3-1.43,6.2-.4.88.6,1.66,1.34,2.31,2.18,2.87,2.94,7.66,3.41,11.48,1.94,3.79-1.68,6.97-4.5,9.09-8.06.6-.9,1.43-1.97,2.47-1.86.62.15,1.18.47,1.64.92,4.19,3.31,10.27,2.59,13.58-1.61,2.9-3.67,2.75-8.89-.35-12.39,3.46-1.1,6.16-3.81,7.26-7.27,1.03-3.44.89-7.13-.4-10.49-1.81-4.98-5.39-9.05-8.91-13-3.21-3.63-4.16-9.21-7.37-12.82-1.46-2.01-3.58-3.42-6-3.99-2.4-.2-4.8.33-6.89,1.53"/>
    <path class="cls-7" d="M790.01,363.89c9.93,0,17.97,8.05,17.97,17.97,0,.06,0,.13,0,.19l-.59,49.13c-.28,6.38-5.68,11.32-12.06,11.04-.06,0-.12,0-.18,0h0c-6.77-.14-12.28-5.38-12.29-11.71,0-6.64-.17-13.63-.17-13.63,0,0-8.61-1.43-10.31-12.58-.46-2.87-.49-13.1-.4-22.59.09-9.86,8.11-17.82,17.97-17.82h.06Z"/>
    <path class="cls-9" d="M774.59,388.5c0,.79.64,1.43,1.43,1.43.74,0,1.36-.56,1.43-1.29,0-.79-.64-1.43-1.43-1.43-.74,0-1.36.56-1.43,1.29Z"/>
    <path class="cls-9" d="M774.27,386.94c.17.19,1.26-.62,2.87-.62s2.67.77,2.87.59-.1-.42-.59-.77c-.67-.46-1.47-.71-2.28-.7-.8,0-1.58.25-2.22.72-.52.36-.73.7-.65.79Z"/>
    <path class="cls-9" d="M789.99,388.5c0,.79.64,1.43,1.43,1.43.74.05,1.38-.52,1.43-1.26,0-.01,0-.02,0-.03,0-.79-.64-1.43-1.43-1.43-.74,0-1.36.56-1.43,1.29Z"/>
    <path class="cls-9" d="M789.4,387.22c.19.19,1.26-.62,2.87-.62s2.67.77,2.87.59-.09-.42-.59-.77c-.67-.46-1.46-.71-2.27-.7-.8,0-1.59.25-2.24.72-.56.36-.73.7-.65.79Z"/>
    <path class="cls-9" d="M783.82,398.64c-.82-.25-1.66-.39-2.51-.44-.39,0-.76-.13-.83-.39-.03-.41.06-.82.27-1.18.36-.95.75-1.94,1.16-2.98,1.07-2.54,1.94-5.16,2.61-7.83-1.29,2.44-2.37,4.98-3.24,7.6l-1.12,3.01c-.24.47-.31,1.02-.2,1.53.11.28.35.49.65.57.22.06.45.1.67.1.84.11,1.7.11,2.54,0Z"/>
    <path class="cls-3" d="M782.75,416.87c5.26.08,10.43-1.3,14.95-3.99,0,0-3.61,7.66-14.79,6.63l-.16-2.64Z"/>
    <path class="cls-3" d="M784.44,402.36c.61-.74,1.54-1.13,2.5-1.03.68.07,1.31.41,1.74.95.43.52.48,1.25.13,1.82-.5.57-1.31.78-2.02.52-.73-.25-1.4-.65-1.97-1.18-.18-.12-.33-.28-.44-.46-.11-.18-.11-.4,0-.57"/>
    <path class="cls-9" d="M788.36,399.7c-.26,0-.26,1.66-1.69,2.87-1.43,1.2-3.21,1-3.23,1.23s.4.33,1.16.34c.98.01,1.92-.32,2.68-.93.73-.6,1.2-1.46,1.31-2.4.07-.7-.11-1.12-.23-1.12Z"/>
    <path class="cls-9" d="M789.35,382.91c.14.42,1.69.23,3.5.44s3.26.7,3.5.33-.14-.57-.73-.98c-.79-.5-1.68-.82-2.61-.92-.92-.11-1.86,0-2.73.33-.67.26-1,.65-.93.79Z"/>
    <path class="cls-9" d="M774.83,382.48c.27.34,1.33,0,2.61,0s2.35.23,2.61-.13-.07-.53-.53-.86c-1.3-.81-2.96-.76-4.2.13-.46.33-.6.69-.49.86Z"/>
    <path class="cls-9" d="M812.01,381.75c-.79-6.76-3.97-13.57-9.78-17.13-5.08-3.13-10.28-3.83-15.33-1.08-4.31-.59-8.65.77-11.85,3.72-3.25,3.12-5.29,7.29-5.74,11.78-.41,4.47.28,8.96,2.02,13.1l.86-11.3c5.74-2.47,12.14-7.33,14.34-13.24,2.29,8.12,8.74,14.4,16.91,16.48-1.1,6.73,1.43,13.53,6.64,17.92,1.41-6.66,2.71-13.48,1.92-20.24Z"/>
    <path class="cls-9" d="M804.61,388.5c.87,4.3-.62,8.72-1.71,13-1.09,4.27-1.75,9.08.55,12.91.83.97,1.37,2.15,1.55,3.41-.24,1.11-.63,2.18-1.16,3.18-.49,2.08.4,4.24,2.22,5.36,1.82,1.06,3.99,1.37,6.04.88,2-.52,3.93-1.29,5.74-2.3l5.44-2.7c.83-.36,1.6-.85,2.28-1.43,1.05-1.12,1.74-2.53,1.98-4.05,1.17-5.87.15-11.96-2.87-17.13-2.87-5.16-1.61-13.73-6.61-16.9"/>
    <path class="cls-4" d="M820.55,423.03c1.01-.25,1.97-.63,2.87-1.15,2.42-1.54,4.01-4.1,4.3-6.96.16-1.96-.17-3.94-.98-5.74-.45-.99-1.01-1.92-1.66-2.78-.7-.89-1.43-1.72-2.35-2.6-.89-.89-1.71-1.85-2.45-2.87-.78-1.11-1.27-2.39-1.43-3.73-.33-2.75.7-5.47.26-8.09-.22-1.29-.93-2.44-1.98-3.21-1.06-.75-2.24-1.32-3.49-1.69-2.47-.68-4.83-1.73-6.99-3.11-3.56-2.42-6.78-5.31-9.55-8.61-2.41-2.78-4.16-5.18-5.35-6.84-.59-.85-1.03-1.43-1.33-1.95-.16-.22-.3-.46-.42-.72,0,0,.22.2.55.63l1.43,1.86c1.26,1.61,3.07,3.94,5.51,6.66,2.78,3.23,5.98,6.07,9.51,8.46,2.13,1.32,4.44,2.33,6.86,3,1.33.39,2.58,1,3.72,1.79,1.2.88,2,2.19,2.25,3.66.46,2.87-.59,5.62-.26,8.15.33,2.52,2.08,4.48,3.72,6.2.83.85,1.62,1.74,2.37,2.67.68.91,1.26,1.9,1.71,2.94.83,1.88,1.15,3.95.93,6-.19,1.69-.83,3.29-1.85,4.65-.77,1.03-1.75,1.88-2.87,2.51-.7.38-1.46.66-2.24.82-.26.05-.52.07-.78.06Z"/>
    <path class="cls-4" d="M817.1,379.06c-.4-.02-.8-.11-1.18-.24-1.06-.29-2.1-.64-3.13-1.05-6.81-2.64-12.92-6.8-17.89-12.15-.93-1.03-1.66-1.91-2.12-2.52s-.7-.99-.66-1.02c1.11,1,2.17,2.06,3.17,3.17,5.1,5.08,11.1,9.17,17.7,12.03,2.52,1.18,4.15,1.66,4.1,1.78Z"/>
    <path class="cls-4" d="M777.87,361.82c0-.07.52-.69,1.64-1.43,1.48-1.06,3.23-1.67,5.05-1.75,1.02-.03,2.03.18,2.95.62.75.37,1.41.9,1.92,1.56.53.57.8,1.32.76,2.09-.34-.61-.74-1.2-1.18-1.75-1.15-1.21-2.78-1.86-4.45-1.78-1.69.09-3.33.58-4.79,1.43-.6.4-1.24.74-1.91,1Z"/>
  </g>
  <g id="freepik--Plants--inject-85">
    <path class="cls-6" d="M142.14,609.78s9.44.42,6.13,21.27c-3.31,20.86-6.74,31.79-6.74,31.79,0,0-.26,4.69,3.44,4.19,3.7-.5,11.02-4.23,13.96-.46,2.94,3.77,1.2,9.15-4.13,14.96s-16.57,18.93-17.59,20.08-1.61,3.51.98,3.59c2.58.07,20.48-3.77,21.79,4.83s-16.21,22.32-18.1,23.85c-1.89,1.53-2.11,2.63-1.55,3.76.56,1.13,6.47-.73,11.6-1.62,5.14-.89,11.25-1,11.59,4.03s-8.26,18.65-35.96,30.75l-13.2,4.78-10.93-8.91c-22.23-20.48-25.93-36.15-23.97-40.8s7.7-2.52,12.26,0c4.56,2.52,9.54,6.18,10.44,5.31s1.05-1.98-.24-4.05c-1.29-2.07-13.38-20.76-9.34-28.46s19.72,1.75,22.19,2.52c2.47.77,2.64-1.64,2.08-3.07-.56-1.43-6.91-17.53-10.04-24.76-3.13-7.23-3.2-12.78.96-15.48s9.71,3.3,13.05,4.98c3.34,1.68,4.62-2.87,4.62-2.87,0,0,.3-11.48,3.99-32.25s12.91-18.02,12.91-18.02"/>
    <path class="cls-9" d="M139.23,628.47v.39l-.17,1.12c-.17,1-.4,2.45-.7,4.3-.65,3.76-1.55,9.14-2.67,15.78-2.19,13.35-5.24,31.74-8.61,52.06-3.37,20.31-6.4,38.73-8.75,52.04l-2.87,15.78c-.36,1.82-.62,3.26-.82,4.3-.09.47-.16.83-.22,1.12-.02.13-.05.25-.1.37-.02-.13-.02-.26,0-.39l.17-1.12c.16-1.02.4-2.45.7-4.3.63-3.76,1.55-9.14,2.67-15.78,2.24-13.33,5.26-31.73,8.61-52.07s6.4-38.73,8.75-52.03l2.87-15.78c.34-1.82.62-3.26.8-4.3.1-.46.17-.83.23-1.1.02-.13.05-.26.1-.39Z"/>
    <path class="cls-9" d="M148.99,672.2c-.89.91-1.85,1.75-2.87,2.51l-6.9,5.92c-2.7,2.32-5.16,4.4-6.99,5.85-.92.73-1.66,1.31-2.19,1.68-.27.22-.56.4-.88.55.91-.89,1.86-1.73,2.87-2.51l6.87-5.98c2.7-2.31,5.18-4.38,7.01-5.81l2.21-1.66c.26-.22.55-.4.86-.55Z"/>
    <path class="cls-9" d="M127.96,688.16c-.11.09-4.3-5.08-9.34-11.48-5.03-6.4-9.05-11.78-8.94-11.88s4.3,5.08,9.35,11.55c5.05,6.47,9.05,11.71,8.92,11.81Z"/>
    <path class="cls-9" d="M123.81,724.32c-.33-.13-.63-.3-.92-.5-.57-.33-1.43-.86-2.38-1.52-1.98-1.32-4.68-3.21-7.53-5.47-2.85-2.25-5.35-4.4-7.17-6.02-.88-.8-1.58-1.43-2.04-1.95-.26-.23-.5-.49-.7-.77,1.05.75,2.05,1.57,3,2.44,1.81,1.53,4.3,3.64,7.17,5.88s5.51,4.19,7.42,5.58c1.1.71,2.16,1.49,3.16,2.34Z"/>
    <path class="cls-9" d="M145.94,714.12c-1.01.63-2.07,1.18-3.17,1.64-1.98.95-4.75,2.21-7.8,3.57-3.06,1.36-5.85,2.58-7.88,3.44-1.08.51-2.19.93-3.33,1.28,1.01-.63,2.07-1.18,3.17-1.64,1.98-.93,4.75-2.21,7.8-3.57,3.06-1.36,5.85-2.58,7.88-3.44,1.08-.51,2.19-.94,3.33-1.28Z"/>
    <path class="cls-9" d="M146.33,746.45c-.34.23-.7.43-1.08.59l-3.03,1.43c-2.57,1.18-6.13,2.75-10.04,4.48-3.92,1.72-7.52,3.26-10.13,4.3l-3.08,1.25c-.37.17-.76.31-1.16.4.33-.24.69-.44,1.08-.59l3.03-1.43c2.55-1.16,6.11-2.75,10.04-4.48,3.93-1.72,7.53-3.24,10.13-4.3l3.1-1.26c.37-.17.75-.3,1.15-.39Z"/>
    <path class="cls-9" d="M118.38,758.41c-.39-.2-.77-.44-1.12-.7-.69-.47-1.69-1.18-2.87-2.07-2.44-1.79-5.74-4.3-9.3-7.27-3.56-2.97-6.66-5.74-8.86-7.8-1.1-1.03-1.98-1.89-2.57-2.5-.33-.29-.62-.61-.89-.96.38.23.72.5,1.03.82.72.62,1.62,1.43,2.68,2.35,2.27,1.99,5.41,4.73,8.95,7.67,3.54,2.94,6.81,5.52,9.18,7.39l2.87,2.19c.56.53.92.83.89.87Z"/>
    <path class="cls-6" d="M909.54,684.28c4.19,2.01,7.38,5.63,8.85,10.04,1.42,4.38,1.83,9.03,1.18,13.58-.99,8.82-6.01,17.72-11.48,24.77-7.43-6.48-9.14-17.79-9.64-23.58-.8-9.15,3.31-26.18,11.02-24.82"/>
    <path class="cls-6" d="M916.8,747.23c-1.03-5.13.77-10.41,4.7-13.86,3.99-3.36,9.16-4.96,14.34-4.46,2.37.19,4.91.87,6.27,2.87,1.17,1.94,1.21,4.35.1,6.33-1.13,1.92-2.75,3.51-4.69,4.6-6.43,4.05-13.4,6.77-20.67,4.58"/>
    <path class="cls-9" d="M907.27,774.26c.04-.61.12-1.21.26-1.81.24-1.28.55-2.87.9-4.89.85-5.46,2.58-10.74,5.11-15.65,2.62-4.9,6.5-9.02,11.23-11.93,1.44-.85,2.98-1.53,4.58-2.02.43-.13.87-.24,1.32-.33.15-.05.31-.07.47-.07-2.14.75-4.19,1.71-6.14,2.87-4.57,2.98-8.31,7.06-10.89,11.86-2.48,4.85-4.23,10.05-5.18,15.42-.44,2.05-.82,3.72-1.1,4.86-.13.58-.32,1.15-.56,1.69Z"/>
    <path class="cls-9" d="M907.54,697.52c.07.26.1.53.1.8,0,.57.07,1.33.13,2.27.11,1.98.23,4.83.34,8.36.22,7.07.4,16.84.36,27.63-.04,10.79-.32,20.56-.6,27.61-.14,3.54-.29,6.4-.42,8.36,0,.93-.11,1.69-.14,2.28,0,.27-.04.53-.1.79-.03-.27-.03-.54,0-.8v-2.27c0-2.07.11-4.91.2-8.38.17-7.06.37-16.83.42-27.6.04-10.77,0-20.54-.17-27.61,0-3.47-.1-6.31-.13-8.36v-2.28c-.02-.27-.01-.54.01-.8Z"/>
    <path class="cls-6" d="M903.94,752.6c-1.82-10.85-8.77-20.15-18.65-24.99-2.48-1.19-5.74-1.97-7.76-.11-2.02,1.85-1.59,5.16-.59,7.73,4.46,10.89,15.03,18.03,26.8,18.09"/>
    <path class="cls-9" d="M886.53,735.98c.55.17,1.08.41,1.58.69.61.28,1.2.6,1.78.95.66.42,1.43.82,2.27,1.43.9.6,1.76,1.25,2.58,1.95.97.78,1.89,1.62,2.77,2.51,2,2.04,3.76,4.3,5.25,6.74,1.45,2.46,2.61,5.08,3.44,7.8.36,1.19.66,2.4.87,3.63.21,1.07.36,2.14.44,3.23.1.89.14,1.78.13,2.67.04.67.04,1.35,0,2.02,0,.57-.07,1.15-.2,1.71-.14,0,.11-2.45-.32-6.35-.11-1.06-.29-2.11-.52-3.16-.24-1.2-.55-2.39-.92-3.56-.86-2.67-2.02-5.24-3.44-7.66-1.47-2.39-3.18-4.62-5.12-6.66-.84-.89-1.73-1.72-2.67-2.51-.81-.71-1.65-1.37-2.52-1.99-3.24-2.35-5.48-3.31-5.41-3.44Z"/>
  </g>
  <g id="freepik--image-upload--inject-85">
    <rect class="cls-5" x="349.62" y="332.77" width="286.08" height="286.08"/>
    <path class="cls-9" d="M635.69,618.86c0-2.75-.13-114.58-.32-286.08l.32.33h-286.04l.37-.37v286.08l-.32-.33,286.07.33-286.07.32h-.33v-286.77h286.77v.32c-.33,171.6-.46,283.43-.46,286.18Z"/>
    <path class="cls-4" d="M610.04,601.8c2.85-.37,5.73-.49,8.61-.37l-.37.37h0v-3.31c0-.95,0-1.85.07-2.74-.04-.85.05-1.7.27-2.52.2.83.29,1.68.26,2.52,0,.89,0,1.79.09,2.74v3.31h0l-.37.37c-2.86.13-5.72,0-8.55-.37Z"/>
    <path class="cls-4" d="M573.92,601.8c6.01-.5,12.05-.5,18.06,0-6.01.5-12.05.5-18.06,0Z"/>
    <path class="cls-4" d="M537.8,601.8c6.01-.5,12.05-.5,18.06,0-6.01.5-12.05.5-18.06,0Z"/>
    <path class="cls-4" d="M501.69,601.8c6.01-.5,12.05-.5,18.06,0-6.01.5-12.05.5-18.06,0Z"/>
    <path class="cls-4" d="M465.57,601.8c6.01-.5,12.05-.5,18.06,0-6.01.5-12.05.5-18.06,0Z"/>
    <path class="cls-4" d="M429.45,601.8c6.01-.5,12.05-.5,18.06,0-6.01.5-12.05.5-18.06,0Z"/>
    <path class="cls-4" d="M393.33,601.8c3-.37,6.02-.49,9.04-.37,3.01-.12,6.03,0,9.02.37-2.99.38-6.01.5-9.02.37-3.02.13-6.04,0-9.04-.37Z"/>
    <path class="cls-4" d="M366.66,593.2c.37,2.85.49,5.73.37,8.61l-.37-.37h3.36l2.73.09c.85-.03,1.7.05,2.52.26-.82.22-1.67.31-2.52.27l-2.73.07-1.56.11h-1.74l-.37-.37c-.14-2.89-.04-5.79.32-8.66Z"/>
    <path class="cls-4" d="M366.66,557.08c.37,3,.49,6.02.37,9.04.12,3.01,0,6.03-.37,9.02-.37-2.99-.49-6.01-.37-9.02-.12-3.02,0-6.04.37-9.04Z"/>
    <path class="cls-4" d="M366.66,520.96c.37,3,.49,6.02.37,9.04.12,3.01,0,6.03-.37,9.02-.37-2.99-.49-6.01-.37-9.02-.12-3.02,0-6.04.37-9.04Z"/>
    <path class="cls-4" d="M366.66,484.85c.37,2.99.49,6.01.37,9.02.12,3.02,0,6.04-.37,9.04-.37-3-.49-6.02-.37-9.04-.12-3.01,0-6.03.37-9.02Z"/>
    <path class="cls-4" d="M366.66,448.75c.37,2.99.49,6.01.37,9.02.12,3.02,0,6.04-.37,9.04-.37-3-.49-6.02-.37-9.04-.12-3.01,0-6.03.37-9.02Z"/>
    <path class="cls-4" d="M366.66,412.61c.37,2.99.49,6.01.37,9.02.12,3.02,0,6.04-.37,9.04-.37-3-.49-6.02-.37-9.04-.12-3.01,0-6.03.37-9.02Z"/>
    <path class="cls-4" d="M366.66,376.49c.37,2.99.49,6.01.37,9.02.12,3.02,0,6.04-.37,9.04-.37-3-.49-6.02-.37-9.04-.12-3.01,0-6.03.37-9.02Z"/>
    <path class="cls-4" d="M375.27,349.77c-2.85.37-5.73.49-8.61.37l.36-.37h0v3.31c0,.95,0,1.85-.07,2.74.03.85-.06,1.7-.27,2.52-.21-.82-.3-1.67-.26-2.52,0-.89,0-1.79-.09-2.74v-3.31h0l.37-.37c2.86-.13,5.73,0,8.56.37Z"/>
    <path class="cls-4" d="M411.39,349.77c-2.99.37-6.01.49-9.02.37-3.02.12-6.04,0-9.04-.37,3-.38,6.02-.5,9.04-.37,3.01-.13,6.03,0,9.02.37Z"/>
    <path class="cls-4" d="M447.51,349.77c-6.01.5-12.05.5-18.06,0,6.01-.5,12.05-.5,18.06,0Z"/>
    <path class="cls-4" d="M483.63,349.77c-6.01.5-12.05.5-18.06,0,6.01-.5,12.05-.5,18.06,0Z"/>
    <path class="cls-4" d="M519.74,349.77c-6.01.5-12.05.5-18.06,0,6.01-.5,12.05-.5,18.06,0Z"/>
    <path class="cls-4" d="M555.86,349.77c-6.01.5-12.05.5-18.06,0,6.01-.5,12.05-.5,18.06,0Z"/>
    <path class="cls-4" d="M591.98,349.77c-6.01.5-12.05.5-18.06,0,6.01-.5,12.05-.5,18.06,0Z"/>
    <path class="cls-4" d="M618.65,358.38c-.38-2.85-.5-5.73-.37-8.61.75.75.2.2.36.37h-3.34l-2.74-.09c-.84.03-1.69-.06-2.51-.26.82-.21,1.66-.31,2.51-.27h6.08c.17.16-.36-.37.39.37.11,2.83-.01,5.67-.37,8.48Z"/>
    <path class="cls-4" d="M618.65,394.55c-.38-3-.5-6.02-.37-9.04-.13-3.01,0-6.03.37-9.02.37,2.99.49,6.01.37,9.02.12,3.02,0,6.04-.37,9.04Z"/>
    <path class="cls-4" d="M618.65,430.67c-.38-3-.5-6.02-.37-9.04-.13-3.01,0-6.03.37-9.02.37,2.99.49,6.01.37,9.02.12,3.02,0,6.04-.37,9.04Z"/>
    <path class="cls-4" d="M618.65,466.79c-.38-3-.5-6.02-.37-9.04-.13-3.01,0-6.03.37-9.02.37,2.99.49,6.01.37,9.02.12,3.02,0,6.04-.37,9.04Z"/>
    <path class="cls-4" d="M618.65,502.91c-.38-3-.5-6.02-.37-9.04-.13-3.01,0-6.03.37-9.02.37,2.99.49,6.01.37,9.02.12,3.02,0,6.04-.37,9.04Z"/>
    <path class="cls-4" d="M618.65,539.02c-.38-2.99-.5-6.01-.37-9.02-.13-3.02,0-6.04.37-9.04.37,3,.49,6.02.37,9.04.12,3.01,0,6.03-.37,9.02Z"/>
    <path class="cls-4" d="M618.65,575.14c-.38-2.99-.5-6.01-.37-9.02-.13-3.02,0-6.04.37-9.04.37,3,.49,6.02.37,9.04.12,3.01,0,6.03-.37,9.02Z"/>
    <path class="cls-9" d="M480.34,427.3c-.48,0-.97-.07-1.43-.19-1.41-.33-2.69-1.05-3.69-2.09-1.66-1.62-2.51-3.91-2.3-6.23.18-1.44.82-2.79,1.82-3.84,1.11-1.22,2.66-1.95,4.3-2.04l-.29.29c-.17-2.14.38-4.27,1.58-6.05.73-.92,1.73-1.59,2.87-1.91,1.2-.28,2.45-.28,3.64,0l-.4.37c-.27-2.72.8-5.39,2.87-7.17,1.08-.91,2.35-1.58,3.72-1.95l1.03-.29,1.06-.17c.71-.13,1.43-.2,2.15-.2,2.99-.26,5.99.38,8.61,1.85,1.32.88,2.4,2.08,3.16,3.47.73,1.42,1.18,2.96,1.32,4.55.06.69.06,1.39,0,2.08l-.39-.42c2.85-.2,5.68.59,8,2.25,2.13,1.69,3.77,3.92,4.72,6.47.56,1.2.82,2.52.73,3.84-.11,1.29-.54,2.54-1.25,3.63-1.37,2.07-3.59,3.43-6.05,3.73h0l-25.91.24h-9.85c.22-.02.44-.02.66,0l1.92-.09,7.29-.2,25.82-.52h0c2.26-.29,4.29-1.55,5.54-3.46,1.35-2.03,1.51-4.63.43-6.81-.83-2.51-2.35-4.75-4.39-6.44-2.2-1.54-4.85-2.28-7.53-2.09h-.43v-.43c.06-.64.06-1.29,0-1.94-.16-2.99-1.68-5.74-4.13-7.46-2.5-1.4-5.37-2.02-8.23-1.76-2.71-.05-5.36.8-7.53,2.42-1.9,1.64-2.88,4.11-2.61,6.61v.46l-.44-.1c-2.14-.62-4.45.03-5.95,1.68-1.12,1.69-1.62,3.72-1.43,5.74v.27h-.29c-1.5.07-2.92.73-3.94,1.84-.95.96-1.57,2.21-1.75,3.56-.3,3.69,2.04,7.08,5.59,8.1.92.32,1.39.32,1.39.39Z"/>
    <path class="cls-9" d="M504.61,418.62c-2.43-2.17-4.7-4.52-6.78-7.03h.55l-.13.14c-2.22,2.46-4.62,4.76-7.17,6.87,2.03-2.63,4.26-5.1,6.67-7.39l.14-.14.27-.29.27.3c2.25,2.35,4.31,4.87,6.18,7.53Z"/>
    <path class="cls-9" d="M498.1,435.41c-.37-4-.49-8.01-.37-12.02-.12-4.01,0-8.03.37-12.02.38,3.99.5,8.01.37,12.02.13,4.01,0,8.03-.37,12.02Z"/>
    <path class="cls-9" d="M438.21,460.62h-6.57l-1.36,3.1h-1.82l5.61-12.36h1.81l5.62,12.36h-1.85l-1.43-3.1ZM437.59,459.19l-2.67-6.05-2.67,6.05h5.34Z"/>
    <path class="cls-9" d="M451.75,450.61v13.11h-1.62v-1.43c-.79,1.04-2.04,1.63-3.34,1.58-2.64,0-4.78-2.14-4.78-4.78s2.14-4.78,4.78-4.78c1.27-.05,2.48.51,3.27,1.51v-5.16l1.69-.04ZM450.07,459.05c-.08-1.74-1.55-3.09-3.3-3.01-1.74.08-3.09,1.55-3.01,3.3.08,1.69,1.47,3.02,3.16,3.01,1.69.04,3.1-1.29,3.15-2.99,0-.1,0-.21,0-.31h0Z"/>
    <path class="cls-9" d="M463.8,450.61v13.11h-1.62v-1.43c-.79,1.04-2.04,1.63-3.34,1.58-2.64,0-4.78-2.14-4.78-4.78s2.14-4.78,4.78-4.78c1.27-.04,2.48.52,3.27,1.51v-5.16l1.69-.04ZM462.12,459.05c-.08-1.74-1.55-3.09-3.3-3.01-1.74.08-3.09,1.55-3.01,3.3.08,1.69,1.47,3.02,3.16,3.01,1.69.04,3.1-1.29,3.15-2.99,0-.1,0-.21,0-.31h0Z"/>
    <path class="cls-9" d="M471.46,451.46c0-.61.49-1.1,1.1-1.11.01,0,.03,0,.04,0,.6-.03,1.11.43,1.15,1.03,0,.01,0,.03,0,.04,0,.63-.51,1.15-1.15,1.15s-1.15-.51-1.15-1.15v.03ZM471.76,454.33h1.69v9.37h-1.72l.03-9.37Z"/>
    <path class="cls-9" d="M481.95,463.18c-.58.45-1.3.68-2.04.65-1.46.17-2.79-.88-2.96-2.34-.02-.18-.02-.35,0-.53v-5.14h-1.59v-1.43h1.59v-2.05h1.69v2.05h2.68v1.43h-2.68v5.06c-.08.79.5,1.49,1.28,1.57.05,0,.1,0,.15,0,.48,0,.95-.15,1.33-.44l.55,1.16Z"/>
    <path class="cls-9" d="M492.1,459.61h-7.59c.22,1.67,1.71,2.87,3.39,2.74,1.03.04,2.02-.38,2.71-1.13l.93,1.09c-1.97,2.01-5.19,2.04-7.2.08-.9-.88-1.44-2.07-1.52-3.33-.11-2.52,1.84-4.66,4.37-4.77.11,0,.21,0,.32,0,2.49-.07,4.57,1.9,4.64,4.39,0,.14,0,.29,0,.43,0,.17-.02.35-.04.52ZM484.52,458.39h6.01c-.2-1.66-1.71-2.84-3.37-2.64-1.39.17-2.48,1.26-2.64,2.64Z"/>
    <path class="cls-9" d="M510.03,458.33v5.39h-1.69v-5.19c0-1.84-.89-2.74-2.42-2.74-1.5-.09-2.8,1.05-2.89,2.55-.01.19,0,.38.02.56v4.82h-1.69v-5.19c0-1.84-.87-2.74-2.42-2.74s-2.8,1.08-2.8,3.11v4.82h-1.71v-9.37h1.69v1.43c.77-.98,1.98-1.52,3.23-1.43,1.33-.09,2.59.58,3.26,1.74.83-1.15,2.18-1.8,3.6-1.74,1.98-.15,3.7,1.34,3.84,3.31.02.22.01.44-.01.66Z"/>
    <path class="cls-9" d="M517.64,451.46c0-.61.49-1.1,1.1-1.11.01,0,.03,0,.04,0,.6-.03,1.11.43,1.15,1.03,0,.01,0,.03,0,.04,0,.63-.51,1.15-1.15,1.15s-1.15-.51-1.15-1.15v.03ZM517.94,454.33h1.69v9.37h-1.69v-9.37Z"/>
    <path class="cls-9" d="M538.38,458.33v5.39h-1.69v-5.19c0-1.84-.89-2.74-2.42-2.74-1.5-.09-2.8,1.05-2.89,2.55-.01.19,0,.38.02.56v4.82h-1.69v-5.19c0-1.84-.87-2.74-2.42-2.74s-2.8,1.08-2.8,3.11v4.82h-1.71v-9.37h1.64v1.43c.77-.98,1.98-1.52,3.23-1.43,1.33-.09,2.59.58,3.26,1.74.83-1.15,2.18-1.8,3.6-1.74,1.97-.18,3.72,1.28,3.9,3.25.02.24.02.48,0,.73Z"/>
    <path class="cls-9" d="M548.92,458.07v5.65h-1.61v-1.23c-.73.94-1.89,1.44-3.07,1.33-2.12,0-3.47-1.13-3.47-2.75s.98-2.74,3.77-2.74h2.68v-.33c0-1.43-.83-2.27-2.51-2.27-1.08-.01-2.13.35-2.97,1.02l-.7-1.28c1.12-.82,2.47-1.24,3.86-1.2,2.57,0,4.02,1.23,4.02,3.8ZM547.23,460.85v-1.31h-2.63c-1.66,0-2.15.66-2.15,1.43s.77,1.52,2.07,1.52c1.16.09,2.26-.57,2.71-1.65Z"/>
    <path class="cls-9" d="M561.07,454.36v8.09c0,3.31-1.68,4.81-4.86,4.81-1.61.06-3.19-.45-4.46-1.43l.8-1.31c1.03.8,2.31,1.23,3.61,1.22,2.21,0,3.21-1.03,3.21-3.14v-.75c-.85.96-2.09,1.48-3.37,1.43-2.5,0-4.53-2.03-4.53-4.53s2.03-4.53,4.53-4.53h0c1.33-.05,2.6.52,3.46,1.53v-1.43l1.61.04ZM559.41,458.79c.1-1.78-1.27-3.3-3.05-3.4-1.78-.1-3.3,1.27-3.4,3.05-.1,1.78,1.27,3.3,3.05,3.4.06,0,.12,0,.18,0,1.64.13,3.08-1.1,3.21-2.74,0-.1.01-.21,0-.31Z"/>
    <path class="cls-9" d="M572.72,459.61h-7.59c.22,1.67,1.71,2.87,3.39,2.74,1.03.04,2.02-.38,2.71-1.13l.93,1.09c-1.97,2.01-5.19,2.04-7.2.08-.9-.88-1.44-2.07-1.52-3.33-.11-2.52,1.84-4.66,4.37-4.77.11,0,.21,0,.32,0,2.49-.07,4.57,1.9,4.64,4.39,0,.14,0,.29,0,.43,0,.17-.02.35-.04.52ZM565.13,458.39h6.01c-.2-1.66-1.71-2.84-3.37-2.64-1.39.17-2.48,1.26-2.64,2.64Z"/>
    <path class="cls-6" d="M493.05,529.19h-80.83c-2.79,0-5.04-2.26-5.05-5.05h0c0-2.79,2.26-5.04,5.05-5.05h80.83c2.79,0,5.05,2.26,5.05,5.05h0c0,2.79-2.26,5.05-5.05,5.05h0Z"/>
    <path class="cls-9" d="M474.39,540.55v5.36h-.93v-.8c-.43.57-1.11.89-1.82.86-1.15.13-2.18-.7-2.31-1.85-.02-.16-.02-.33,0-.49v-3.08h.98v2.98c0,1.05.53,1.58,1.43,1.58.87.06,1.62-.6,1.68-1.47,0-.11,0-.21-.01-.32v-2.77h.99Z"/>
    <path class="cls-9" d="M481.78,543.22c.07,1.44-1.04,2.67-2.48,2.74-.08,0-.16,0-.23,0-.73.03-1.42-.29-1.88-.86v2.77h-.98v-7.32h.93v.85c.46-.59,1.17-.93,1.92-.9,1.44-.06,2.65,1.06,2.71,2.51,0,.07,0,.15,0,.22ZM480.8,543.22c-.04-1.01-.89-1.79-1.89-1.75-1.01.04-1.79.89-1.75,1.89.04.98.84,1.75,1.82,1.75.98.04,1.81-.72,1.85-1.7,0-.06,0-.13,0-.19h-.03Z"/>
    <path class="cls-9" d="M483.21,538.39h.98v7.52h-.98v-7.52Z"/>
    <path class="cls-9" d="M485.49,543.22c-.03-1.54,1.2-2.82,2.74-2.85,1.54-.03,2.82,1.2,2.85,2.74.03,1.54-1.19,2.81-2.72,2.85-1.47.11-2.75-.99-2.86-2.46,0-.09,0-.19,0-.28ZM490.09,543.22c.09-1-.65-1.89-1.65-1.98-1-.09-1.89.65-1.98,1.65,0,.11,0,.22,0,.32-.09,1,.65,1.89,1.65,1.98,1,.09,1.89-.65,1.98-1.65,0-.11,0-.22,0-.32Z"/>
    <path class="cls-9" d="M496.64,542.66v3.24h-.93v-.7c-.42.54-1.08.83-1.76.76-1.2,0-1.98-.65-1.98-1.58s.56-1.56,2.15-1.56h1.55v-.2c0-.82-.47-1.29-1.43-1.29-.62,0-1.22.19-1.71.57l-.4-.73c.64-.47,1.42-.71,2.21-.69,1.48.07,2.31.72,2.31,2.18ZM495.66,544.27v-.75h-1.51c-.96,0-1.23.37-1.23.82s.44.87,1.19.87c.67.05,1.29-.33,1.55-.95Z"/>
    <path class="cls-9" d="M503.54,538.39v7.52h-.93v-.85c-.45.6-1.16.94-1.91.9-1.51,0-2.74-1.23-2.74-2.74s1.23-2.74,2.74-2.74c.72-.03,1.41.29,1.86.86v-2.95h.98ZM502.57,543.22c-.05-1-.89-1.77-1.89-1.72s-1.77.89-1.72,1.89c.05.96.84,1.72,1.8,1.72.97.03,1.79-.74,1.81-1.72,0-.06,0-.12,0-.18Z"/>
    <path class="cls-9" d="M505.21,538.87c-.02-.36.27-.67.63-.69s.67.27.69.63c.02.36-.27.67-.63.69,0,0-.02,0-.03,0-.35.02-.64-.25-.66-.6,0,0,0-.02,0-.03ZM505.39,540.54h.98v5.36h-.98v-5.36Z"/>
    <path class="cls-9" d="M513.33,542.82v3.08h-.98v-2.97c0-1.06-.53-1.58-1.43-1.58-.88-.07-1.64.58-1.71,1.46,0,.11,0,.21,0,.32v2.77h-.98v-5.35h.93v.8c.47-.58,1.19-.9,1.94-.86,1.15-.08,2.15.79,2.23,1.95,0,.13,0,.25,0,.38Z"/>
    <path class="cls-9" d="M520.29,540.55v4.63c.2,1.33-.72,2.57-2.05,2.77-.24.04-.49.04-.73,0-.92.04-1.83-.24-2.57-.8l.46-.76c.59.47,1.33.72,2.08.7,1.26,0,1.84-.59,1.84-1.81v-.43c-.49.56-1.2.86-1.94.83-1.44.11-2.69-.97-2.8-2.41-.11-1.44.97-2.69,2.41-2.8.13,0,.26,0,.39,0,.77-.03,1.5.3,1.99.89v-.82h.92ZM519.34,543.09c.05-1.02-.74-1.89-1.76-1.93-1.02-.05-1.89.74-1.93,1.76-.05,1.02.74,1.89,1.76,1.93.03,0,.06,0,.08,0,.96.06,1.78-.66,1.85-1.62,0-.05,0-.11,0-.16h0Z"/>
    <path class="cls-9" d="M521.7,545.27c0-.37.29-.68.66-.69,0,0,.02,0,.03,0,.4,0,.72.32.72.72s-.32.72-.72.72c-.37.01-.68-.28-.69-.66,0-.03,0-.06,0-.09Z"/>
    <path class="cls-9" d="M523.99,545.27c0-.37.29-.68.66-.69,0,0,.02,0,.03,0,.4,0,.72.32.72.72s-.32.72-.72.72c-.37.01-.68-.28-.69-.66,0-.03,0-.06,0-.09Z"/>
    <path class="cls-9" d="M526.24,545.27c0-.37.29-.68.66-.69,0,0,.02,0,.03,0,.4,0,.72.32.72.72s-.32.72-.72.72c-.37.01-.68-.28-.69-.66,0-.03,0-.06,0-.09Z"/>
    <path class="cls-6" d="M491.93,508.99c0,1.69-1.22,3.07-3.74,3.07-1.31.03-2.59-.4-3.61-1.2l.65-1.1c.83.7,1.88,1.07,2.95,1.05,1.43,0,2.34-.69,2.34-1.76s-.7-1.79-2.98-1.79h-2.24l.52-5.16h5.57v1.18h-4.38l-.27,2.71h1.1c2.94-.03,4.1,1.2,4.1,3.03Z"/>
    <path class="cls-6" d="M493.09,506.94c0-3.21,1.72-5.05,4.03-5.05s4.02,1.84,4.02,5.05-1.72,5.05-4.02,5.05-4.03-1.84-4.03-5.05ZM499.73,506.94c0-2.52-1.08-3.79-2.61-3.79s-2.63,1.26-2.63,3.79,1.08,3.79,2.63,3.79,2.61-1.26,2.61-3.79h0Z"/>
    <path class="cls-6" d="M502.35,504.69c-.17-1.3.74-2.5,2.04-2.68.08-.01.17-.02.25-.02,1.36,0,2.28,1.08,2.28,2.7s-.92,2.68-2.28,2.68c-1.31-.03-2.34-1.11-2.32-2.42,0-.09,0-.18.02-.27ZM506.02,504.69c0-1.19-.52-1.89-1.43-1.89s-1.43.72-1.43,1.89.55,1.88,1.43,1.88,1.43-.77,1.43-1.88ZM510.58,502.08h1.09l-6.74,9.87h-1.08l6.73-9.87ZM508.6,509.34c.21-1.27,1.4-2.13,2.67-1.92,1.27.21,2.13,1.4,1.92,2.67-.18,1.13-1.16,1.96-2.31,1.95-1.31-.04-2.35-1.13-2.31-2.45,0-.11.01-.21.03-.32v.07ZM512.26,509.34c0-1.16-.53-1.89-1.43-1.89s-1.43.72-1.43,1.89.52,1.89,1.43,1.89,1.43-.8,1.43-1.97v.07Z"/>
    <path class="cls-9" d="M577.27,529.19s.32,0,.92-.13c2.42-.49,4.12-2.67,4-5.14-.09-2.04-1.44-3.81-3.39-4.43-1.17-.26-2.37-.34-3.56-.24h-35.23l-128.21.1c-1.47,0-2.86.69-3.74,1.86-1.56,2.06-1.15,4.99.9,6.55.34.26.71.47,1.1.62.67.26,1.39.37,2.11.33h54.34l57.65.09,38.86.11h14.24-3.69l-10.56.07-38.86.11-57.65.09h-54.34c-.82.03-1.63-.1-2.4-.39-2.78-1.11-4.13-4.27-3.02-7.05.82-2.06,2.82-3.41,5.05-3.41l128.21.11h35.23c1.22-.08,2.45,0,3.64.27,2.03.69,3.44,2.56,3.53,4.7.06,1.54-.58,3.03-1.74,4.05-.7.62-1.56,1.03-2.48,1.18-.28.22-.6.4-.93.53Z"/>
  </g>
</svg>