<?xml version="1.0" encoding="UTF-8"?>
<svg id="Layer_2" data-name="Layer 2" xmlns="http://www.w3.org/2000/svg" viewBox="0 0 1000 1000">
  <defs>
    <style>
      .cls-1, .cls-2, .cls-3, .cls-4, .cls-5, .cls-6, .cls-7, .cls-8, .cls-9, .cls-10, .cls-11, .cls-12, .cls-13, .cls-14, .cls-15, .cls-16 {
        stroke-width: 0px;
      }

      .cls-1, .cls-9, .cls-14, .cls-16 {
        fill-rule: evenodd;
      }

      .cls-1, .cls-15 {
        fill: #fff;
      }

      .cls-2 {
        fill: #aa6550;
      }

      .cls-3 {
        fill: #000;
      }

      .cls-4, .cls-16 {
        fill: #e0e0e0;
      }

      .cls-17 {
        opacity: .5;
      }

      .cls-5 {
        fill: #455a64;
      }

      .cls-18 {
        opacity: .8;
      }

      .cls-6 {
        fill: #f5f5f5;
      }

      .cls-7 {
        fill: #09f;
      }

      .cls-8 {
        fill: #ebebeb;
      }

      .cls-9, .cls-10 {
        fill: #263238;
      }

      .cls-11 {
        fill: #fafafa;
      }

      .cls-19 {
        opacity: .3;
      }

      .cls-12 {
        fill: #b78876;
      }

      .cls-13, .cls-14 {
        fill: #e8505b;
      }

      .cls-20 {
        opacity: .6;
      }

      .cls-21 {
        opacity: .4;
      }
    </style>
  </defs>
  <g id="Background_Complete" data-name="Background Complete">
    <path class="cls-16" d="M376.2,657.41c4.74.59,9.31,1.82,13.62,3.6l10.01-8.39,17.2,13.09-5.42,11.89c2.86,3.68,5.27,7.77,7.1,12.17l13.01,1.15,2.9,21.42-12.23,4.57c-.59,4.74-1.82,9.31-3.6,13.63l8.39,10.01-13.09,17.2-11.89-5.42c-3.68,2.86-7.77,5.26-12.18,7.1l-1.14,13.01-21.42,2.91-4.57-12.23c-4.74-.59-9.31-1.82-13.62-3.6l-10.02,8.39-17.2-13.09,5.42-11.89c-2.86-3.68-5.26-7.77-7.1-12.17l-13.01-1.15-2.91-21.42,12.23-4.57c.59-4.74,1.82-9.32,3.6-13.63l-8.39-10.01,13.09-17.2,11.89,5.42c3.68-2.86,7.77-5.26,12.18-7.1l1.14-13.01,21.42-2.91,4.58,12.23h0ZM369.77,686.95c-14.73.53-25.21,14.29-21.79,28.63,2.53,10.61,12.41,18.12,23.31,17.73,14.72-.54,25.19-14.29,21.78-28.62-2.52-10.61-12.4-18.13-23.29-17.74Z"/>
    <g>
      <path class="cls-4" d="M148.53,343.58v-62.25c34.15,0,62.25,28.1,62.25,62.25s-28.1,62.25-62.25,62.25-61.45-27.21-62.23-60.81l62.23-1.44Z"/>
      <path class="cls-6" d="M133.35,326.8l-62.25,1.41c0-16.21,6.33-33.2,17.64-44.82,11.31-11.62,27.44-18.37,43.65-18.81l.97,62.22Z"/>
    </g>
    <path class="cls-16" d="M833.59,196.23c4.74.59,9.31,1.82,13.62,3.6l10.01-8.39,17.2,13.09-5.42,11.89c2.86,3.68,5.27,7.77,7.1,12.17l13.01,1.15,2.9,21.42-12.23,4.57c-.59,4.74-1.82,9.31-3.6,13.63l8.39,10.01-13.09,17.2-11.89-5.42c-3.68,2.86-7.77,5.26-12.18,7.1l-1.14,13.01-21.42,2.91-4.57-12.23c-4.74-.59-9.31-1.82-13.62-3.6l-10.02,8.39-17.2-13.09,5.42-11.89c-2.86-3.68-5.26-7.77-7.1-12.17l-13.01-1.15-2.91-21.42,12.23-4.57c.59-4.74,1.82-9.32,3.6-13.63l-8.39-10.01,13.09-17.2,11.89,5.42c3.68-2.86,7.77-5.26,12.18-7.1l1.14-13.01,21.42-2.91,4.57,12.23h0ZM827.16,225.77c-14.73.53-25.21,14.29-21.79,28.63,2.53,10.61,12.41,18.12,23.31,17.73,14.72-.54,25.19-14.29,21.78-28.62-2.52-10.61-12.4-18.13-23.29-17.74Z"/>
  </g>
  <g id="Floor">
    <path class="cls-10" d="M970.49,794.31c0,.2-210.66.36-470.46.36s-470.51-.16-470.51-.36,210.62-.36,470.51-.36,470.46.16,470.46.36Z"/>
  </g>
  <g id="Nuts">
    <g>
      <g>
        <path class="cls-14" d="M184.06,493.89c3.95,2.06,7.56,4.62,10.76,7.58l11.5-4.09,10.81,17.06-8.61,8.65c1.31,4.15,2.09,8.51,2.26,12.97l11.02,5.23-4.42,19.7-12.2.03c-2.06,3.96-4.62,7.56-7.58,10.76l4.09,11.5-17.05,10.81-8.65-8.61c-4.15,1.31-8.51,2.08-12.97,2.26l-5.23,11.02-19.7-4.42-.03-12.2c-3.96-2.06-7.56-4.62-10.76-7.58l-11.5,4.09-10.81-17.06,8.61-8.65c-1.31-4.15-2.08-8.51-2.26-12.97l-11.02-5.23,4.42-19.7,12.2-.03c2.06-3.96,4.62-7.57,7.58-10.76l-4.09-11.5,17.05-10.81,8.65,8.61c4.15-1.31,8.51-2.09,12.97-2.26l5.23-11.02,19.7,4.42.03,12.2h0ZM166.69,517.07c-11.67-2.62-23.26,4.72-25.88,16.39-2.62,11.67,4.72,23.26,16.39,25.88,11.67,2.62,23.26-4.72,25.88-16.39,2.62-11.67-4.72-23.26-16.39-25.88Z"/>
        <g class="cls-18">
          <path class="cls-1" d="M184.06,493.89c3.95,2.06,7.56,4.62,10.76,7.58l11.5-4.09,10.81,17.06-8.61,8.65c1.31,4.15,2.09,8.51,2.26,12.97l11.02,5.23-4.42,19.7-12.2.03c-2.06,3.96-4.62,7.56-7.58,10.76l4.09,11.5-17.05,10.81-8.65-8.61c-4.15,1.31-8.51,2.08-12.97,2.26l-5.23,11.02-19.7-4.42-.03-12.2c-3.96-2.06-7.56-4.62-10.76-7.58l-11.5,4.09-10.81-17.06,8.61-8.65c-1.31-4.15-2.08-8.51-2.26-12.97l-11.02-5.23,4.42-19.7,12.2-.03c2.06-3.96,4.62-7.57,7.58-10.76l-4.09-11.5,17.05-10.81,8.65,8.61c4.15-1.31,8.51-2.09,12.97-2.26l5.23-11.02,19.7,4.42.03,12.2h0ZM166.69,517.07c-11.67-2.62-23.26,4.72-25.88,16.39-2.62,11.67,4.72,23.26,16.39,25.88,11.67,2.62,23.26-4.72,25.88-16.39,2.62-11.67-4.72-23.26-16.39-25.88Z"/>
        </g>
      </g>
      <g>
        <path class="cls-10" d="M201.58,671s1.77.12,4.63,1.45c2.81,1.31,6.78,4.16,9.23,9.34,1.19,2.56,2.01,5.67,1.88,9.03-.14,3.33-1.03,6.94-3.11,10.12-.99,1.61-2.27,3.09-3.77,4.38-1.48,1.31-3.2,2.42-5.09,3.23-3.75,1.71-8.21,2.15-12.48,1.23-4.26-.99-8.09-3.3-10.76-6.44-1.37-1.54-2.45-3.28-3.23-5.1-.8-1.81-1.33-3.7-1.54-5.57-.52-3.76.22-7.4,1.51-10.48,1.32-3.09,3.39-5.55,5.56-7.36,4.43-3.64,9.24-4.52,12.34-4.5,3.16.02,4.81.67,4.81.67-.02.14-1.71-.34-4.8-.23-3.03.11-7.65,1.1-11.84,4.68-2.06,1.78-3.99,4.15-5.21,7.11-1.2,2.95-1.87,6.42-1.34,9.98.21,1.78.72,3.56,1.49,5.27.74,1.72,1.78,3.36,3.08,4.81,2.53,2.97,6.15,5.13,10.17,6.07,4.04.87,8.23.46,11.79-1.14,1.79-.76,3.43-1.8,4.83-3.04,1.42-1.21,2.65-2.61,3.6-4.13,1.99-2.99,2.87-6.42,3.05-9.59.16-3.2-.58-6.18-1.67-8.66-2.26-5.02-6.02-7.89-8.71-9.28-2.74-1.42-4.47-1.71-4.43-1.84Z"/>
        <path class="cls-10" d="M217.29,650.03s-.03-.22-.04-.69c-.01-.51-.03-1.2-.05-2.09-.03-1.92-.06-4.68-.11-8.26l.14.17c-4.57-1-10.58-2.31-17.84-3.89l.32-.16c-1.42,3.03-3,6.39-4.69,9.99l-.08.18h-.2c-3.71.17-7.65.8-11.63,2.07l-.21.07-.16-.16c-2.45-2.42-5.09-5.04-7.85-7.77l.5.05c-4.85,3.09-10,6.37-15.4,9.81l.18-.52c1.15,3.22,2.42,6.76,3.72,10.39l.1.26-.19.21c-2.49,2.69-4.87,5.98-6.77,9.64l-.13.26h-.3c-3.42.01-7.19.03-11.03.04l.49-.39c-1.25,5.6-2.6,11.64-3.98,17.83l-.29-.59c3.11,1.47,6.52,3.09,9.97,4.72l.29.14v.32c.16,3.69.8,7.7,2.04,11.59l.1.31-.23.23c-2.44,2.45-5.1,5.13-7.79,7.83l.07-.68c3.1,4.88,6.42,10.12,9.78,15.42l-.66-.23c3.28-1.17,6.83-2.43,10.4-3.7l.32-.11.25.23c2.74,2.54,6.02,4.91,9.6,6.77h0s0,0,0,0c.14.22-.3-.5.31.5h0v.69s0,.7,0,.7v1.39s0,2.77,0,2.77c0,1.84,0,3.68.01,5.5l-.44-.55c6.02,1.35,11.97,2.69,17.82,4l-.62.3c1.59-3.35,3.17-6.68,4.74-9.97l.14-.3h.33c3.98-.16,7.88-.85,11.59-2.02l.32-.1.23.23c2.64,2.64,5.25,5.23,7.82,7.8l-.66-.07c5.27-3.33,10.42-6.59,15.44-9.76l-.21.61c-1.25-3.53-2.48-7-3.69-10.41l-.1-.29.21-.22c2.74-2.95,5.01-6.2,6.8-9.62l.14-.26h.29c3.78,0,7.45,0,11.03,0l-.46.37c1.42-6.27,2.76-12.18,4.04-17.81l.24.48c-3.5-1.67-6.79-3.24-9.96-4.76l-.22-.11v-.24c-.17-4.21-.9-8.08-2-11.64l-.07-.21.16-.16c2.84-2.83,5.4-5.38,7.81-7.8l-.04.41c-3.76-5.99-6.96-11.1-9.71-15.47l.3.1c-4.16,1.45-7.58,2.64-10.42,3.63l-.11.04-.08-.07c-2.93-2.74-5.42-4.4-7.09-5.46-.82-.49-1.44-.87-1.9-1.14-.44-.26-.63-.39-.62-.39.01,0,.24.1.67.3.44.22,1.09.56,1.95,1.07,1.7,1.01,4.24,2.63,7.24,5.35l-.18-.04c2.83-1.03,6.23-2.26,10.38-3.77l.19-.07.11.17c2.78,4.35,6.03,9.43,9.84,15.39l.14.22-.19.19c-2.4,2.43-4.94,5-7.76,7.85l.09-.37c1.15,3.6,1.91,7.54,2.09,11.83l-.23-.35c3.18,1.5,6.47,3.05,9.98,4.71l.31.15-.07.34c-1.25,5.64-2.57,11.56-3.96,17.83l-.08.36h-.37c-3.58.02-7.25.03-11.03.04l.43-.26c-1.81,3.49-4.13,6.83-6.92,9.85l.11-.51c1.22,3.4,2.45,6.87,3.71,10.4l.14.39-.35.22c-5.01,3.18-10.15,6.45-15.42,9.79l-.36.23-.3-.3c-2.57-2.56-5.18-5.15-7.83-7.78l.55.13c-3.79,1.2-7.8,1.91-11.87,2.07l.48-.31c-1.56,3.29-3.14,6.61-4.73,9.97l-.19.4-.43-.1c-5.86-1.31-11.8-2.64-17.82-3.99l-.44-.1v-.45c0-1.83,0-3.66-.01-5.5v-2.77s0-1.39,0-1.39v-.7s0-.35,0-.35v-.33h0c.61.98.17.26.3.48h0s0,0,0,0c-3.68-1.91-7.04-4.33-9.85-6.94l.57.12c-3.57,1.27-7.12,2.53-10.4,3.7l-.42.15-.24-.38c-3.36-5.31-6.68-10.55-9.77-15.43l-.24-.37.31-.31c2.69-2.7,5.35-5.37,7.8-7.82l-.13.55c-1.26-3.99-1.92-8.1-2.06-11.87l.3.46c-3.45-1.64-6.86-3.27-9.96-4.74l-.38-.18.09-.41c1.4-6.19,2.76-12.22,4.02-17.82l.09-.39h.4c3.84,0,7.61,0,11.03,0l-.43.26c1.95-3.74,4.4-7.09,6.95-9.83l-.1.47c-1.29-3.64-2.54-7.19-3.68-10.41l-.12-.33.3-.19c5.42-3.42,10.58-6.67,15.45-9.74l.27-.17.23.23c2.74,2.74,5.37,5.38,7.8,7.81l-.37-.09c4.06-1.27,8.07-1.89,11.83-2.02l-.28.19c1.72-3.58,3.33-6.93,4.77-9.95l.1-.21.22.05c7.25,1.67,13.24,3.05,17.8,4.1l.14.03v.14c-.03,3.55-.06,6.29-.08,8.19-.02.9-.03,1.6-.04,2.12-.02.48-.03.73-.04.74Z"/>
      </g>
      <g>
        <path class="cls-14" d="M112.82,609.95c2.3,1.2,4.4,2.69,6.26,4.41l6.69-2.38,6.29,9.93-5.01,5.03c.76,2.42,1.21,4.95,1.32,7.55l6.41,3.05-2.57,11.47-7.1.02c-1.2,2.3-2.69,4.4-4.41,6.26l2.38,6.69-9.93,6.29-5.03-5.01c-2.42.76-4.95,1.21-7.55,1.31l-3.05,6.41-11.47-2.57-.02-7.1c-2.3-1.2-4.4-2.69-6.26-4.41l-6.69,2.38-6.29-9.93,5.01-5.03c-.76-2.42-1.21-4.95-1.31-7.55l-6.41-3.05,2.57-11.47,7.1-.02c1.2-2.3,2.69-4.4,4.41-6.26l-2.38-6.69,9.93-6.29,5.04,5.01c2.42-.76,4.95-1.21,7.55-1.31l3.05-6.41,11.47,2.57.02,7.1h0ZM102.71,623.45c-6.79-1.52-13.54,2.75-15.06,9.54-1.52,6.79,2.75,13.54,9.54,15.06,6.8,1.52,13.54-2.75,15.06-9.54,1.52-6.8-2.75-13.54-9.54-15.06Z"/>
        <g class="cls-21">
          <path class="cls-1" d="M112.82,609.95c2.3,1.2,4.4,2.69,6.26,4.41l6.69-2.38,6.29,9.93-5.01,5.03c.76,2.42,1.21,4.95,1.32,7.55l6.41,3.05-2.57,11.47-7.1.02c-1.2,2.3-2.69,4.4-4.41,6.26l2.38,6.69-9.93,6.29-5.03-5.01c-2.42.76-4.95,1.21-7.55,1.31l-3.05,6.41-11.47-2.57-.02-7.1c-2.3-1.2-4.4-2.69-6.26-4.41l-6.69,2.38-6.29-9.93,5.01-5.03c-.76-2.42-1.21-4.95-1.31-7.55l-6.41-3.05,2.57-11.47,7.1-.02c1.2-2.3,2.69-4.4,4.41-6.26l-2.38-6.69,9.93-6.29,5.04,5.01c2.42-.76,4.95-1.21,7.55-1.31l3.05-6.41,11.47,2.57.02,7.1h0ZM102.71,623.45c-6.79-1.52-13.54,2.75-15.06,9.54-1.52,6.79,2.75,13.54,9.54,15.06,6.8,1.52,13.54-2.75,15.06-9.54,1.52-6.8-2.75-13.54-9.54-15.06Z"/>
        </g>
      </g>
    </g>
    <path class="cls-9" d="M850.02,411.44c3.25.41,6.39,1.25,9.35,2.47l6.87-5.76,11.81,8.98-3.72,8.16c1.97,2.53,3.61,5.33,4.87,8.36l8.93.79,1.99,14.7-8.39,3.14c-.41,3.25-1.25,6.39-2.47,9.35l5.76,6.87-8.98,11.8-8.16-3.72c-2.53,1.97-5.33,3.61-8.36,4.87l-.78,8.93-14.7,2-3.14-8.4c-3.25-.41-6.39-1.25-9.35-2.47l-6.87,5.76-11.81-8.98,3.72-8.16c-1.97-2.53-3.61-5.33-4.87-8.35l-8.93-.79-2-14.7,8.4-3.14c.41-3.25,1.25-6.39,2.47-9.35l-5.76-6.87,8.98-11.8,8.16,3.72c2.53-1.97,5.33-3.61,8.36-4.87l.79-8.93,14.7-1.99,3.14,8.39h0ZM845.61,431.71c-10.11.36-17.3,9.81-14.96,19.65,1.73,7.28,8.52,12.44,16,12.17,10.11-.37,17.29-9.81,14.95-19.64-1.73-7.28-8.51-12.44-15.99-12.18Z"/>
    <g>
      <path class="cls-10" d="M907.6,323.48s1.67-.49,4.75-.25c3.02.24,7.65,1.51,11.68,5.44,1.97,1.95,3.78,4.52,4.81,7.65,1.01,3.11,1.42,6.73.6,10.36-.36,1.82-1.03,3.62-1.97,5.32-.91,1.71-2.12,3.32-3.58,4.71-2.87,2.85-6.81,4.78-11.05,5.39-4.25.54-8.56-.27-12.09-2.25-1.78-.95-3.37-2.18-4.71-3.59-1.35-1.39-2.48-2.94-3.31-4.6-1.76-3.28-2.33-6.88-2.18-10.15.16-3.29,1.22-6.25,2.6-8.66,2.83-4.86,6.95-7.31,9.8-8.35,2.91-1.06,4.65-1.03,4.65-1.03.03.13-1.69.27-4.49,1.43-2.74,1.14-6.65,3.62-9.29,8.34-1.28,2.33-2.25,5.18-2.37,8.32-.1,3.12.48,6.54,2.17,9.63.8,1.57,1.88,3.03,3.17,4.34,1.27,1.33,2.78,2.48,4.47,3.37,3.34,1.86,7.41,2.61,11.42,2.11,4.01-.58,7.72-2.39,10.45-5.08,1.39-1.31,2.54-2.82,3.41-4.44.9-1.6,1.55-3.3,1.9-5.02.81-3.43.45-6.88-.48-9.86-.94-3-2.64-5.48-4.5-7.39-3.8-3.84-8.23-5.2-11.17-5.56-3-.37-4.7-.04-4.71-.18Z"/>
      <path class="cls-10" d="M914.88,298.84s-.1-.19-.27-.62c-.19-.47-.44-1.09-.76-1.9-.68-1.75-1.65-4.28-2.92-7.55l.19.11c-4.54.64-10.51,1.49-17.73,2.51l.24-.25c-.27,3.27-.58,6.9-.91,10.78l-.02.19-.18.08c-3.35,1.41-6.76,3.34-9.99,5.87l-.17.13-.2-.09c-3.07-1.39-6.4-2.9-9.86-4.46l.48-.12c-3.4,4.5-7.02,9.27-10.81,14.27v-.54c2.15,2.56,4.52,5.39,6.96,8.28l.18.21-.11.26c-1.37,3.32-2.44,7.16-2.93,11.17l-.04.29-.27.1c-3.14,1.18-6.6,2.48-10.13,3.8l.32-.53c.76,5.57,1.59,11.58,2.43,17.74l-.46-.44c3.36.29,7.04.61,10.78.94l.32.03.12.29c1.39,3.34,3.36,6.8,5.82,9.96l.2.26-.13.29c-1.41,3.09-2.94,6.45-4.49,9.85l-.16-.65c4.51,3.43,9.35,7.11,14.25,10.84l-.68.02c2.62-2.2,5.45-4.57,8.3-6.96l.26-.21.31.13c3.39,1.4,7.21,2.45,11.14,2.94h0s0,0,0,0c.2.16-.45-.35.45.35h0s0,.03,0,.03l.02.04.03.08.06.16.12.32.24.64.48,1.27.95,2.54c.63,1.69,1.26,3.38,1.89,5.05l-.59-.35c6-.81,11.92-1.61,17.75-2.4l-.47.49c.32-3.63.64-7.22.95-10.78l.03-.33.3-.13c3.6-1.5,6.96-3.46,9.97-5.8l.26-.2.29.13c3.33,1.52,6.61,3.02,9.85,4.5l-.64.16c3.71-4.86,7.33-9.61,10.86-14.24l.02.63c-2.36-2.82-4.67-5.59-6.94-8.31l-.19-.23.11-.28c1.51-3.64,2.49-7.41,2.97-11.16l.04-.29.27-.1c3.48-1.29,6.85-2.55,10.14-3.77l-.29.49c-.83-6.25-1.62-12.14-2.37-17.75l.38.36c-3.79-.34-7.35-.67-10.78-.98l-.24-.02-.09-.22c-1.58-3.82-3.58-7.13-5.8-10.02l-.13-.18.09-.2c1.64-3.57,3.12-6.79,4.52-9.83l.1.39c-5.5-4.23-10.19-7.83-14.2-10.91h.31c-3.33,2.75-6.06,5.01-8.34,6.89l-.08.07-.1-.04c-3.63-1.52-6.49-2.2-8.38-2.6-.92-.17-1.62-.31-2.13-.4-.49-.08-.72-.13-.71-.14,0-.01.26,0,.72.05.48.06,1.2.14,2.16.32,1.91.35,4.8.97,8.48,2.45l-.18.03c2.25-1.91,4.95-4.21,8.25-7.01l.15-.13.16.12c4.04,3.05,8.76,6.61,14.3,10.78l.21.16-.11.24c-1.38,3.05-2.84,6.28-4.46,9.86l-.04-.37c2.28,2.92,4.33,6.28,5.96,10.16l-.33-.24c3.43.29,6.99.6,10.78.92l.33.03.05.33c.77,5.61,1.58,11.5,2.44,17.74l.05.36-.34.13c-3.29,1.24-6.65,2.5-10.13,3.81l.31-.39c-.47,3.83-1.46,7.69-3,11.42l-.08-.51c2.28,2.71,4.6,5.48,6.96,8.29l.26.31-.25.32c-3.52,4.64-7.13,9.39-10.83,14.26l-.25.33-.38-.17c-3.24-1.47-6.52-2.97-9.85-4.48l.55-.06c-3.08,2.4-6.51,4.42-10.21,5.96l.33-.45c-.31,3.56-.63,7.15-.94,10.78l-.04.43-.43.06c-5.83.79-11.75,1.6-17.75,2.41l-.44.06-.15-.41c-.63-1.68-1.26-3.36-1.89-5.05l-.95-2.54-.48-1.27-.24-.64-.12-.32-.06-.16-.03-.08v-.04s-.02-.02-.02-.02h0c.9.7.25.19.45.34h0c-4.03-.5-7.95-1.58-11.42-3.02l.56-.09c-2.85,2.39-5.68,4.76-8.3,6.95l-.34.28-.35-.26c-4.9-3.73-9.74-7.42-14.25-10.85l-.34-.26.18-.39c1.55-3.4,3.09-6.76,4.5-9.85l.06.55c-2.52-3.24-4.53-6.79-5.94-10.21l.44.32c-3.73-.33-7.42-.66-10.78-.96l-.41-.04-.05-.41c-.83-6.16-1.64-12.17-2.39-17.75l-.05-.39.37-.14c3.53-1.31,7-2.6,10.14-3.77l-.31.39c.51-4.1,1.62-8.02,3.03-11.4l.07.47c-2.42-2.9-4.79-5.74-6.94-8.31l-.22-.27.21-.27c3.82-4.99,7.45-9.75,10.88-14.23l.19-.25.28.13c3.45,1.59,6.77,3.11,9.84,4.52l-.37.04c3.3-2.55,6.77-4.49,10.19-5.89l-.2.27c.36-3.88.69-7.51.99-10.77l.02-.22.22-.03c7.23-.94,13.21-1.72,17.76-2.31l.14-.02.05.13c1.18,3.28,2.09,5.8,2.72,7.55.29.84.52,1.48.69,1.96.15.44.22.68.21.69Z"/>
    </g>
  </g>
  <g id="Screen">
    <g>
      <g>
        <g>
          <rect class="cls-11" x="194.52" y="244.75" width="644.62" height="445.63"/>
          <path class="cls-10" d="M839.14,690.38c0-2.41-.11-174.53-.29-445.63l.29.29c-178.76.02-402.46.04-644.57.07h-.05l.36-.36c-.01,159.18-.02,310.38-.03,445.63l-.33-.33c380.44.2,641.66.33,644.62.33-2.96,0-264.18.14-644.62.33h-.33v-.33c0-135.25-.02-286.45-.03-445.63v-.36h.42c242.11.03,465.81.05,644.57.07h.29v.29c-.18,271.1-.29,443.22-.29,445.62Z"/>
        </g>
        <rect class="cls-10" x="194.52" y="244.75" width="644.62" height="25.86"/>
        <path class="cls-15" d="M212.92,257.19c0,2.19-1.78,3.97-3.97,3.97s-3.97-1.78-3.97-3.97,1.78-3.97,3.97-3.97,3.97,1.78,3.97,3.97Z"/>
        <path class="cls-15" d="M227.24,257.19c0,2.19-1.78,3.97-3.97,3.97s-3.97-1.78-3.97-3.97,1.78-3.97,3.97-3.97,3.97,1.78,3.97,3.97Z"/>
        <path class="cls-15" d="M241.56,257.19c0,2.19-1.78,3.97-3.97,3.97s-3.97-1.78-3.97-3.97,1.78-3.97,3.97-3.97,3.97,1.78,3.97,3.97Z"/>
      </g>
      <g>
        <path class="cls-4" d="M816.08,662.37c0-1.61-.08-53.2-.22-144.75l.22.22c-132.97.03-350.14.09-595.1.15h-.04l.36-.36c0,49.58,0,98.03,0,144.75l-.36-.36c339.36.2,591.59.35,595.13.36-3.54,0-255.77.15-595.13.36h-.36v-.36c0-46.72,0-95.16,0-144.75v-.36h.4c244.96.06,462.13.12,595.1.15h.22v.22c-.14,91.55-.21,143.14-.21,144.75Z"/>
        <g>
          <path class="cls-4" d="M510.02,505.47s-.02-1.26-.03-3.69c0-2.43-.02-6.02-.03-10.71-.02-9.39-.04-23.18-.08-40.82-.04-35.25-.09-85.87-.15-147.4l.29.3c-80.1.02-179.85.04-287.72.07h-.02l.36-.36c-.01,72.49-.02,141.29-.03,202.63l-.33-.33c84.95.07,156.85.12,207.51.16,25.35.04,45.39.07,59.11.09,6.85.02,12.13.03,15.7.04,1.78,0,3.13.02,4.05.02.91,0,1.38.02,1.38.02,0,0-.45.01-1.35.02-.91,0-2.25.01-4.01.02-3.55,0-8.8.02-15.63.04-13.7.02-33.71.05-59.03.09-50.72.04-122.69.1-207.73.16h-.33v-.33c0-61.33-.02-130.14-.03-202.63v-.36h.39c107.87.03,207.62.05,287.72.07h.3v.3c-.06,61.61-.12,112.29-.15,147.59-.03,17.61-.06,31.38-.08,40.75-.01,4.67-.03,8.24-.03,10.66,0,2.4-.03,3.62-.03,3.62Z"/>
          <path class="cls-13" d="M253.38,467.15l20.72-29.98c4.21-6.1,12.61-7.56,18.64-3.25l2.91,2.08c7.23,5.17,17.4,1.91,20.28-6.5l10.06-29.44c4.09-11.97,21.03-11.97,25.12,0l4.87,14.24c3.91,11.43,19.8,12.12,24.69,1.08l4.22-9.53c4.21-9.51,17.22-10.7,23.09-2.11h0c6.17,9.02,19.98,7.14,23.52-3.2l4.71-13.77c4.32-12.65,22.53-11.69,25.5,1.34l18.01,79.02s-225.71-.63-226.34,0Z"/>
          <g class="cls-19">
            <path class="cls-3" d="M253.38,467.15l20.72-29.98c4.21-6.1,12.61-7.56,18.64-3.25l2.91,2.08c7.23,5.17,17.4,1.91,20.28-6.5l10.06-29.44c4.09-11.97,21.03-11.97,25.12,0l4.87,14.24c3.91,11.43,19.8,12.12,24.69,1.08l4.22-9.53c4.21-9.51,17.22-10.7,23.09-2.11h0c6.17,9.02,19.98,7.14,23.52-3.2l4.71-13.77c4.32-12.65,22.53-11.69,25.5,1.34l18.01,79.02s-225.71-.63-226.34,0Z"/>
          </g>
          <path class="cls-13" d="M252.8,467.92l16.84-49.26c3.95-11.54,20.2-11.74,24.43-.3l8.07,21.83c3.49,9.45,15.95,11.48,22.26,3.63l6.53-8.12c4.34-5.4,12.16-6.43,17.76-2.34l15.22,11.13c2.22,1.62,4.9,2.5,7.65,2.5h19.36c2.75,0,5.43.88,7.65,2.5l14.41,10.54c5.91,4.32,14.22,2.9,18.36-3.15l13.52-19.78c.17-.25.35-.5.54-.73,5.43-6.87,16.3-5.42,20.25,2.4l14.47,28.7s-227.31-.47-227.31.46Z"/>
          <path class="cls-13" d="M480.03,467.46l-17.59-14.32c-24.13-17.75-35.58,16.04-54.55-9.32l-6.53-8.12c-4.34-5.4-12.16-6.43-17.76-2.34l-7.56,5.53c-7.19,5.26-15.88,8.1-24.79,8.1h-9.88c-2.75,0-5.43.88-7.65,2.5l-14.41,10.54c-5.91,4.32-10.03,4.9-19.49-3.04,0,0-10.27-8.35-10.51-8.64-5.03-6.13-15.55-6.13-20.08,0-1.09,1.47-2.23,2.78-3.46,4.14l-13.59,14.98s227.86-.93,227.86,0Z"/>
          <g class="cls-19">
            <path class="cls-15" d="M480.03,467.46l-17.59-14.32c-24.13-17.75-35.58,16.04-54.55-9.32l-6.53-8.12c-4.34-5.4-12.16-6.43-17.76-2.34l-7.56,5.53c-7.19,5.26-15.88,8.1-24.79,8.1h-9.88c-2.75,0-5.43.88-7.65,2.5l-14.41,10.54c-5.91,4.32-10.03,4.9-19.49-3.04,0,0-10.27-8.35-10.51-8.64-5.03-6.13-15.55-6.13-20.08,0-1.09,1.47-2.23,2.78-3.46,4.14l-13.59,14.98s227.86-.93,227.86,0Z"/>
          </g>
          <path class="cls-10" d="M315.3,353.71c0,.2-8.05.36-17.98.36s-17.98-.16-17.98-.36,8.05-.36,17.98-.36c9.93,0,17.98.16,17.98.36Z"/>
          <rect class="cls-13" x="269.25" y="350.63" width="6.15" height="6.15"/>
          <path class="cls-10" d="M383.14,353.71c0,.2-8.05.36-17.98.36s-17.98-.16-17.98-.36,8.05-.36,17.98-.36c9.93,0,17.98.16,17.98.36Z"/>
          <rect class="cls-13" x="337.1" y="350.63" width="6.15" height="6.15"/>
          <path class="cls-10" d="M450.99,353.71c0,.2-8.05.36-17.98.36s-17.98-.16-17.98-.36,8.05-.36,17.98-.36c9.93,0,17.98.16,17.98.36Z"/>
          <rect class="cls-13" x="404.94" y="350.63" width="6.15" height="6.15"/>
        </g>
        <g>
          <path class="cls-13" d="M451.88,637.62l14.81-21.12c1.72-2.46,5.15-3,7.54-1.19l7.79,5.88c2.54,1.92,6.2,1.18,7.79-1.58l22.47-38.92c1.88-3.25,6.44-3.58,8.76-.63l14.03,17.79c2.26,2.87,6.68,2.65,8.64-.44l10.25-16.12c2.14-3.36,7.08-3.26,9.07.19l8.47,14.66c1.99,3.45,6.93,3.56,9.07.2l28.95-45.37c2.06-3.23,6.76-3.28,8.89-.1l47.83,71.54c1.92,2.87,6.02,3.17,8.34.62l29.06-31.99c2.04-2.25,5.54-2.33,7.69-.18l23.11,23.2c2.47,2.47,6.61,1.93,8.36-1.09l41.35-71.62c2.71-4.7,9.9-2.78,9.9,2.65v93.6h-342.18Z"/>
          <path class="cls-10" d="M793.19,649.32s-.02-.13-.03-.41c0-.3-.01-.71-.02-1.26,0-1.16-.03-2.87-.05-5.22l.1.1c-19.76.16-88.5.27-170.14.27s-150.4-.11-170.16-.27l.1-.1c-.02,2.35-.04,4.07-.05,5.22-.01.55-.02.96-.02,1.26,0,.28-.02.41-.03.41s-.02-.13-.03-.41c0-.3-.01-.71-.02-1.26,0-1.16-.03-2.87-.05-5.22v-.1s.1,0,.1,0c19.76-.16,88.49-.27,170.16-.27s150.39.11,170.14.27h.1s0,.1,0,.1c-.02,2.35-.04,4.07-.05,5.22-.01.55-.02.96-.02,1.26,0,.27-.01.41-.02.41Z"/>
          <path class="cls-10" d="M490.69,648.77c-.2,0-.36-.65-.36-1.45s.16-1.45.36-1.45.36.65.36,1.45-.16,1.45-.36,1.45Z"/>
          <path class="cls-10" d="M528.5,648.77c-.2,0-.36-.65-.36-1.45s.16-1.45.36-1.45.36.65.36,1.45c0,.8-.16,1.45-.36,1.45Z"/>
          <path class="cls-10" d="M566.31,648.77c-.2,0-.36-.65-.36-1.45s.16-1.45.36-1.45.36.65.36,1.45c0,.8-.16,1.45-.36,1.45Z"/>
          <path class="cls-10" d="M604.13,648.77c-.2,0-.36-.65-.36-1.45s.16-1.45.36-1.45.36.65.36,1.45-.16,1.45-.36,1.45Z"/>
          <path class="cls-10" d="M641.94,648.77c-.2,0-.36-.65-.36-1.45s.16-1.45.36-1.45.36.65.36,1.45c0,.8-.16,1.45-.36,1.45Z"/>
          <path class="cls-10" d="M679.75,648.77c-.2,0-.36-.65-.36-1.45s.16-1.45.36-1.45.36.65.36,1.45c0,.8-.16,1.45-.36,1.45Z"/>
          <path class="cls-10" d="M717.56,648.77c-.2,0-.36-.65-.36-1.45s.16-1.45.36-1.45.36.65.36,1.45-.16,1.45-.36,1.45Z"/>
          <path class="cls-10" d="M755.37,648.77c-.2,0-.36-.65-.36-1.45s.16-1.45.36-1.45.36.65.36,1.45c0,.8-.16,1.45-.36,1.45Z"/>
        </g>
        <g>
          <path class="cls-4" d="M817.96,459.05s-.02-.84-.03-2.45c0-1.62-.02-4.01-.03-7.15-.02-6.28-.04-15.52-.07-27.41-.03-23.77-.08-58.12-.14-100.54l.27.27c-74.98.03-176.36.06-287.72.1h-.02l.36-.36c0,48.43-.01,94.97-.02,137.56l-.34-.34c83.83.07,155.72.12,206.67.17,25.49.04,45.74.07,59.63.1,6.94.02,12.29.03,15.92.04,1.8,0,3.18.02,4.11.02.93,0,1.41.02,1.41.02,0,0-.45.01-1.37.02-.93,0-2.29.01-4.07.02-3.61,0-8.94.02-15.85.04-13.87.02-34.09.05-59.55.1-51,.04-122.98.1-206.9.17h-.34v-.35c0-42.59-.01-89.13-.02-137.56v-.36h.38c111.37.04,212.74.07,287.72.1h.27v.27c-.06,42.48-.11,76.9-.14,100.7-.03,11.87-.05,21.09-.07,27.35-.01,3.11-.02,5.49-.03,7.1,0,1.6-.03,2.4-.03,2.4Z"/>
          <g>
            <g>
              <path class="cls-4" d="M752.83,381.47h-198.21c-1.82,0-3.3-1.48-3.3-3.3s1.48-3.3,3.3-3.3h198.21c1.82,0,3.3,1.48,3.3,3.3s-1.48,3.3-3.3,3.3Z"/>
              <path class="cls-4" d="M752.83,355.31h-198.21c-1.82,0-3.3-1.48-3.3-3.3s1.48-3.3,3.3-3.3h198.21c1.82,0,3.3,1.48,3.3,3.3s-1.48,3.3-3.3,3.3Z"/>
              <path class="cls-5" d="M644.18,381.47h-89.56c-1.82,0-3.3-1.48-3.3-3.3s1.48-3.3,3.3-3.3h89.56c1.82,0,3.3,1.48,3.3,3.3s-1.48,3.3-3.3,3.3Z"/>
            </g>
            <g>
              <path class="cls-10" d="M777.96,379.58h-1.46v1.89h-1.07v-1.89h-4.28v-.77l3.94-5.04h1.19l-3.78,4.87h2.96v-1.67h1.04v1.67h1.46v.95Z"/>
              <path class="cls-10" d="M784,379.16c0,1.33-.95,2.4-2.92,2.4-1.09,0-2.17-.35-2.83-.94l.51-.87c.52.48,1.38.83,2.31.83,1.17,0,1.83-.54,1.83-1.38s-.55-1.41-2.33-1.41h-1.75l.41-4.03h4.35v.96h-3.42l-.21,2.11h.86c2.3,0,3.2.96,3.2,2.32Z"/>
              <path class="cls-10" d="M784.68,375.8c0-1.26.73-2.1,1.79-2.1s1.78.84,1.78,2.1-.72,2.1-1.78,2.1-1.79-.85-1.79-2.1ZM787.56,375.8c0-.92-.41-1.48-1.08-1.48s-1.08.56-1.08,1.48.42,1.48,1.08,1.48c.67,0,1.08-.55,1.08-1.48ZM791.12,373.77h.85l-5.26,7.71h-.85l5.26-7.71ZM789.57,379.44c0-1.26.72-2.1,1.78-2.1s1.79.85,1.79,2.1-.73,2.1-1.79,2.1c-1.07,0-1.78-.85-1.78-2.1ZM792.43,379.44c0-.91-.42-1.48-1.08-1.48s-1.08.55-1.08,1.48.41,1.48,1.08,1.48,1.08-.56,1.08-1.48Z"/>
            </g>
          </g>
          <g>
            <g>
              <path class="cls-4" d="M752.83,405.7h-198.21c-1.82,0-3.3-1.48-3.3-3.3s1.48-3.3,3.3-3.3h198.21c1.82,0,3.3,1.48,3.3,3.3s-1.48,3.3-3.3,3.3Z"/>
              <path class="cls-5" d="M673.37,405.7h-118.54c-2.46,0-3.51-1.48-3.51-3.3s1.04-3.3,2.33-3.3h118.54c2.32,0,3.79,1.48,3.79,3.3,0,2.71-2.51,3.3-2.62,3.3Z"/>
            </g>
            <g>
              <path class="cls-10" d="M776.87,397.99v.75l-3.12,6.96h-1.17l3.05-6.75h-3.52v1.38h-1.06v-2.33h5.82Z"/>
              <path class="cls-10" d="M777.62,401.85c0-2.51,1.34-3.94,3.15-3.94s3.14,1.43,3.14,3.94-1.34,3.94-3.14,3.94-3.15-1.43-3.15-3.94ZM782.81,401.85c0-1.97-.84-2.96-2.04-2.96s-2.05.99-2.05,2.96.84,2.96,2.05,2.96c1.2,0,2.04-.99,2.04-2.96Z"/>
              <path class="cls-10" d="M784.85,400.03c0-1.26.73-2.1,1.79-2.1s1.78.84,1.78,2.1-.72,2.1-1.78,2.1c-1.07,0-1.79-.85-1.79-2.1ZM787.72,400.03c0-.92-.41-1.48-1.08-1.48s-1.08.56-1.08,1.48.42,1.48,1.08,1.48,1.08-.55,1.08-1.48ZM791.29,397.99h.85l-5.26,7.71h-.85l5.26-7.71ZM789.74,403.66c0-1.26.72-2.1,1.78-2.1s1.79.85,1.79,2.1-.73,2.1-1.79,2.1c-1.07,0-1.78-.85-1.78-2.1ZM792.6,403.66c0-.91-.42-1.48-1.08-1.48s-1.08.55-1.08,1.48.41,1.48,1.08,1.48c.66,0,1.08-.56,1.08-1.48Z"/>
            </g>
          </g>
          <g>
            <g>
              <path class="cls-4" d="M752.83,429.35h-198.21c-1.82,0-3.3-1.48-3.3-3.3s1.48-3.3,3.3-3.3h198.21c1.82,0,3.3,1.48,3.3,3.3s-1.48,3.3-3.3,3.3Z"/>
              <path class="cls-5" d="M628.24,429.35h-73.62c-1.82,0-3.3-1.48-3.3-3.3s1.48-3.3,3.3-3.3h73.62c1.82,0,3.3,1.48,3.3,3.3s-1.48,3.3-3.3,3.3Z"/>
            </g>
            <g>
              <path class="cls-10" d="M776.66,427.04c0,1.33-.95,2.4-2.92,2.4-1.09,0-2.17-.35-2.83-.94l.51-.87c.52.48,1.38.83,2.31.83,1.17,0,1.83-.54,1.83-1.38s-.55-1.41-2.33-1.41h-1.75l.41-4.03h4.35v.96h-3.42l-.21,2.11h.86c2.3,0,3.2.96,3.2,2.32Z"/>
              <path class="cls-10" d="M777.58,425.5c0-2.51,1.34-3.94,3.15-3.94s3.14,1.43,3.14,3.94-1.34,3.94-3.14,3.94-3.15-1.43-3.15-3.94ZM782.76,425.5c0-1.97-.84-2.96-2.04-2.96s-2.05.99-2.05,2.96.84,2.96,2.05,2.96c1.2,0,2.04-.99,2.04-2.96Z"/>
              <path class="cls-10" d="M784.8,423.68c0-1.26.73-2.1,1.79-2.1s1.78.84,1.78,2.1-.72,2.1-1.78,2.1-1.79-.85-1.79-2.1ZM787.68,423.68c0-.92-.41-1.48-1.08-1.48s-1.08.56-1.08,1.48.42,1.48,1.08,1.48,1.08-.55,1.08-1.48ZM791.24,421.64h.85l-5.26,7.71h-.85l5.26-7.71ZM789.69,427.31c0-1.26.72-2.1,1.78-2.1s1.79.85,1.79,2.1-.73,2.1-1.79,2.1c-1.07,0-1.78-.85-1.78-2.1ZM792.55,427.31c0-.91-.42-1.48-1.08-1.48s-1.08.55-1.08,1.48.41,1.48,1.08,1.48,1.08-.56,1.08-1.48Z"/>
            </g>
          </g>
          <g>
            <path class="cls-13" d="M685.85,355.31h-131.23c-1.82,0-3.3-1.48-3.3-3.3s1.48-3.3,3.3-3.3h131.23c1.82,0,3.3,1.48,3.3,3.3s-1.48,3.3-3.3,3.3Z"/>
            <g>
              <path class="cls-10" d="M777.23,352.97c0,1.49-1.2,2.43-2.73,2.43-2.07,0-3.24-1.39-3.24-3.84,0-2.63,1.49-4.04,3.65-4.04.73,0,1.42.14,1.92.45l-.42.86c-.4-.26-.92-.36-1.48-.36-1.56,0-2.57.98-2.57,2.91,0,.09,0,.18.01.28.44-.66,1.26-1.01,2.21-1.01,1.53,0,2.64.91,2.64,2.33ZM776.16,353.01c0-.9-.68-1.49-1.76-1.49s-1.77.65-1.77,1.5c0,.79.64,1.49,1.83,1.49,1,0,1.71-.59,1.71-1.5Z"/>
              <path class="cls-10" d="M778.05,351.46c0-2.51,1.34-3.94,3.15-3.94s3.14,1.43,3.14,3.94-1.34,3.94-3.14,3.94-3.15-1.43-3.15-3.94ZM783.24,351.46c0-1.97-.84-2.96-2.04-2.96s-2.05.99-2.05,2.96.84,2.96,2.05,2.96,2.04-.99,2.04-2.96Z"/>
              <path class="cls-10" d="M785.28,349.64c0-1.26.73-2.1,1.79-2.1s1.78.84,1.78,2.1-.72,2.1-1.78,2.1c-1.07,0-1.79-.85-1.79-2.1ZM788.15,349.64c0-.92-.41-1.48-1.08-1.48s-1.08.56-1.08,1.48.42,1.48,1.08,1.48,1.08-.55,1.08-1.48ZM791.72,347.6h.85l-5.26,7.71h-.85l5.26-7.71ZM790.17,353.27c0-1.26.72-2.1,1.78-2.1s1.79.85,1.79,2.1-.73,2.1-1.79,2.1c-1.07,0-1.78-.85-1.78-2.1ZM793.03,353.27c0-.91-.42-1.48-1.08-1.48s-1.08.55-1.08,1.48.41,1.48,1.08,1.48,1.08-.56,1.08-1.48Z"/>
            </g>
          </g>
        </g>
        <path class="cls-4" d="M748.21,473.14c0,.2-48.51.36-108.35.36s-108.36-.16-108.36-.36,48.51-.36,108.36-.36c59.83,0,108.35.16,108.35.36Z"/>
        <path class="cls-4" d="M748.21,485.99c0,.2-48.51.36-108.35.36s-108.36-.16-108.36-.36,48.51-.36,108.36-.36,108.35.16,108.35.36Z"/>
        <path class="cls-4" d="M748.21,497.61c0,.2-48.51.36-108.35.36s-108.36-.16-108.36-.36,48.51-.36,108.36-.36c59.83,0,108.35.16,108.35.36Z"/>
        <g>
          <g>
            <g>
              <path class="cls-4" d="M260.56,629.23h0c-2.15,0-3.89-1.74-3.89-3.9v-73.07c0-2.15,1.74-3.89,3.89-3.89h0c2.15,0,3.89,1.74,3.89,3.89v73.07c0,2.15-1.74,3.9-3.89,3.9Z"/>
              <path class="cls-13" d="M260.56,629.57h0c-2.15,0-3.89-1.74-3.89-3.9v-47.11c0-2.15,1.74-3.89,3.89-3.89h0c2.15,0,3.89,1.74,3.89,3.89v47.11c0,2.15-1.74,3.9-3.89,3.9Z"/>
            </g>
            <g>
              <path class="cls-10" d="M258.11,632.62v6.5h-.67v-5.9h-1.53v-.59h2.2Z"/>
              <path class="cls-10" d="M259.66,635.87c0-2.07,1.09-3.3,2.59-3.3s2.6,1.23,2.6,3.3-1.1,3.3-2.6,3.3c-1.5,0-2.59-1.23-2.59-3.3ZM264.16,635.87c0-1.74-.78-2.69-1.91-2.69s-1.91.96-1.91,2.69.78,2.69,1.91,2.69,1.91-.95,1.91-2.69Z"/>
            </g>
          </g>
          <g>
            <g>
              <path class="cls-4" d="M276.13,629.23h0c-2.15,0-3.9-1.74-3.9-3.9v-73.07c0-2.15,1.74-3.89,3.9-3.89h0c2.15,0,3.89,1.74,3.89,3.89v73.07c0,2.15-1.74,3.9-3.89,3.9Z"/>
              <path class="cls-13" d="M276.13,629.57h0c-2.15,0-3.9-1.74-3.9-3.9v-61.94c0-2.15,1.74-3.9,3.9-3.9h0c2.15,0,3.89,1.74,3.89,3.9v61.94c0,2.15-1.74,3.9-3.89,3.9Z"/>
            </g>
            <g>
              <path class="cls-10" d="M275.2,638.52v.59h-4.56v-.47l2.7-2.65c.73-.72.87-1.16.87-1.61,0-.75-.53-1.21-1.52-1.21-.76,0-1.35.23-1.77.72l-.47-.41c.5-.59,1.31-.93,2.3-.93,1.32,0,2.15.67,2.15,1.75,0,.62-.19,1.18-1.07,2.03l-2.21,2.17h3.57Z"/>
              <path class="cls-10" d="M276,635.87c0-2.07,1.09-3.3,2.59-3.3s2.6,1.23,2.6,3.3-1.1,3.3-2.6,3.3c-1.5,0-2.59-1.23-2.59-3.3ZM280.5,635.87c0-1.74-.78-2.69-1.91-2.69s-1.91.96-1.91,2.69.78,2.69,1.91,2.69,1.91-.95,1.91-2.69Z"/>
            </g>
          </g>
          <g>
            <g>
              <path class="cls-4" d="M291.7,629.23h0c-2.15,0-3.89-1.74-3.89-3.9v-73.07c0-2.15,1.74-3.89,3.89-3.89h0c2.15,0,3.89,1.74,3.89,3.89v73.07c0,2.15-1.74,3.9-3.89,3.9Z"/>
              <path class="cls-13" d="M291.7,629.57h0c-2.15,0-3.89-1.74-3.89-3.9v-35.98c0-2.15,1.74-3.89,3.89-3.89h0c2.15,0,3.89,1.74,3.89,3.89v35.98c0,2.15-1.74,3.9-3.89,3.9Z"/>
            </g>
            <g>
              <path class="cls-10" d="M290.69,637.25c0,1.08-.79,1.92-2.36,1.92-.94,0-1.84-.33-2.34-.84l.33-.53c.42.44,1.17.75,2.01.75,1.08,0,1.67-.5,1.67-1.31s-.55-1.29-1.75-1.29h-.46v-.49l1.8-2.25h-3.32v-.59h4.18v.47l-1.84,2.31c1.39.08,2.09.81,2.09,1.85Z"/>
              <path class="cls-10" d="M291.62,635.87c0-2.07,1.09-3.3,2.59-3.3s2.6,1.23,2.6,3.3-1.1,3.3-2.6,3.3c-1.5,0-2.59-1.23-2.59-3.3ZM296.12,635.87c0-1.74-.78-2.69-1.91-2.69s-1.91.96-1.91,2.69.78,2.69,1.91,2.69,1.91-.95,1.91-2.69Z"/>
            </g>
          </g>
          <g>
            <g>
              <path class="cls-4" d="M307.27,629.23h0c-2.15,0-3.89-1.74-3.89-3.9v-73.07c0-2.15,1.74-3.89,3.89-3.89h0c2.15,0,3.89,1.74,3.89,3.89v73.07c0,2.15-1.74,3.9-3.89,3.9Z"/>
              <path class="cls-13" d="M307.27,629.57h0c-2.15,0-3.89-1.74-3.89-3.9v-61.94c0-2.15,1.74-3.9,3.89-3.9h0c2.15,0,3.89,1.74,3.89,3.9v61.94c0,2.15-1.74,3.9-3.89,3.9Z"/>
            </g>
            <g>
              <path class="cls-10" d="M307.3,637.41h-1.3v1.71h-.67v-1.71h-3.67v-.48l3.44-4.31h.74l-3.32,4.19h2.82v-1.5h.65v1.5h1.3v.59h0Z"/>
              <path class="cls-10" d="M307.91,635.87c0-2.07,1.09-3.3,2.59-3.3s2.6,1.23,2.6,3.3-1.1,3.3-2.6,3.3c-1.5,0-2.59-1.23-2.59-3.3ZM312.41,635.87c0-1.74-.78-2.69-1.91-2.69s-1.91.96-1.91,2.69.78,2.69,1.91,2.69,1.91-.95,1.91-2.69Z"/>
            </g>
          </g>
          <g>
            <g>
              <path class="cls-4" d="M322.84,629.23h0c-2.15,0-3.89-1.74-3.89-3.9v-73.07c0-2.15,1.74-3.89,3.89-3.89h0c2.15,0,3.89,1.74,3.89,3.89v73.07c0,2.15-1.74,3.9-3.89,3.9Z"/>
              <path class="cls-13" d="M322.84,629.57h0c-2.15,0-3.89-1.74-3.89-3.9v-50.07c0-2.15,1.74-3.9,3.89-3.9h0c2.15,0,3.89,1.74,3.89,3.9v50.07c0,2.15-1.74,3.9-3.89,3.9Z"/>
            </g>
            <g>
              <path class="cls-10" d="M322.49,637.2c0,1.1-.77,1.97-2.36,1.97-.94,0-1.83-.33-2.33-.84l.33-.53c.42.44,1.16.75,2,.75,1.1,0,1.69-.54,1.69-1.33,0-.84-.52-1.36-2.17-1.36h-1.38l.33-3.26h3.55v.59h-2.97l-.22,2.07h.84c1.96,0,2.7.77,2.7,1.92Z"/>
              <path class="cls-10" d="M323.33,635.87c0-2.07,1.09-3.3,2.59-3.3s2.6,1.23,2.6,3.3-1.1,3.3-2.6,3.3c-1.5,0-2.59-1.23-2.59-3.3ZM327.83,635.87c0-1.74-.78-2.69-1.91-2.69s-1.91.96-1.91,2.69.78,2.69,1.91,2.69,1.91-.95,1.91-2.69Z"/>
            </g>
          </g>
          <g>
            <g>
              <path class="cls-4" d="M338.41,629.23h0c-2.15,0-3.89-1.74-3.89-3.9v-73.07c0-2.15,1.74-3.89,3.89-3.89h0c2.15,0,3.9,1.74,3.9,3.89v73.07c0,2.15-1.74,3.9-3.9,3.9Z"/>
              <path class="cls-13" d="M338.41,629.23h0c-2.15,0-3.89-1.74-3.89-3.55v-35.98c0-2.49,1.74-4.24,3.89-4.24h0c2.15,0,3.9,1.74,3.9,3.9v35.98c0,2.15-1.74,3.89-3.9,3.89Z"/>
            </g>
            <g>
              <path class="cls-10" d="M337.9,637.18c0,1.21-.96,2-2.22,2-1.73,0-2.66-1.2-2.66-3.25,0-2.21,1.21-3.36,2.97-3.36.58,0,1.13.1,1.54.35l-.27.54c-.33-.22-.78-.31-1.26-.31-1.4,0-2.3.9-2.3,2.66,0,.15,0,.33.03.53.33-.71,1.09-1.11,1.99-1.11,1.29,0,2.19.76,2.19,1.95ZM337.24,637.2c0-.85-.63-1.4-1.63-1.4s-1.67.61-1.67,1.42c0,.71.59,1.39,1.72,1.39.94,0,1.59-.55,1.59-1.41Z"/>
              <path class="cls-10" d="M338.66,635.87c0-2.07,1.09-3.3,2.59-3.3s2.6,1.23,2.6,3.3-1.1,3.3-2.6,3.3c-1.5,0-2.59-1.23-2.59-3.3ZM343.16,635.87c0-1.74-.78-2.69-1.91-2.69s-1.91.96-1.91,2.69.78,2.69,1.91,2.69,1.91-.95,1.91-2.69Z"/>
            </g>
          </g>
          <g>
            <g>
              <path class="cls-4" d="M353.98,629.23h0c-2.15,0-3.9-1.74-3.9-3.9v-73.07c0-2.15,1.74-3.89,3.9-3.89h0c2.15,0,3.89,1.74,3.89,3.89v73.07c0,2.15-1.74,3.9-3.89,3.9Z"/>
              <path class="cls-13" d="M353.98,629.57h0c-2.15,0-3.9-1.74-3.9-3.9v-65.65c0-2.15,1.74-3.9,3.9-3.9h0c2.15,0,3.89,1.74,3.89,3.9v65.65c0,2.15-1.74,3.9-3.89,3.9Z"/>
            </g>
            <g>
              <path class="cls-10" d="M353.15,632.62v.47l-2.72,6.02h-.72l2.67-5.9h-3.34v1.21h-.66v-1.81h4.77Z"/>
              <path class="cls-10" d="M353.84,635.87c0-2.07,1.09-3.3,2.59-3.3s2.6,1.23,2.6,3.3-1.1,3.3-2.6,3.3c-1.5,0-2.59-1.23-2.59-3.3ZM358.34,635.87c0-1.74-.78-2.69-1.91-2.69s-1.91.96-1.91,2.69.78,2.69,1.91,2.69,1.91-.95,1.91-2.69Z"/>
            </g>
          </g>
          <g>
            <g>
              <path class="cls-4" d="M369.55,629.23h0c-2.15,0-3.9-1.74-3.9-3.9v-73.07c0-2.15,1.74-3.89,3.9-3.89h0c2.15,0,3.89,1.74,3.89,3.89v73.07c0,2.15-1.74,3.9-3.89,3.9Z"/>
              <path class="cls-13" d="M369.55,629.57h0c-2.15,0-3.9-1.74-3.9-3.9v-28.56c0-2.15,1.74-3.89,3.9-3.89h0c2.15,0,3.89,1.74,3.89,3.89v28.56c0,2.15-1.74,3.9-3.89,3.9Z"/>
            </g>
            <g>
              <path class="cls-10" d="M368.77,637.31c0,1.15-.97,1.87-2.52,1.87s-2.51-.71-2.51-1.87c0-.78.45-1.33,1.25-1.6-.66-.26-1.02-.75-1.02-1.43,0-1.06.9-1.72,2.27-1.72s2.29.66,2.29,1.72c0,.68-.37,1.17-1.04,1.43.82.27,1.27.83,1.27,1.6ZM368.09,637.3c0-.8-.69-1.3-1.84-1.3s-1.83.5-1.83,1.3.68,1.31,1.83,1.31c1.15,0,1.84-.5,1.84-1.31ZM366.25,635.47c1.01,0,1.61-.45,1.61-1.16s-.64-1.18-1.61-1.18-1.61.45-1.61,1.17.59,1.17,1.61,1.17Z"/>
              <path class="cls-10" d="M369.7,635.87c0-2.07,1.09-3.3,2.59-3.3s2.6,1.23,2.6,3.3-1.1,3.3-2.6,3.3c-1.5,0-2.59-1.23-2.59-3.3ZM374.2,635.87c0-1.74-.78-2.69-1.91-2.69s-1.91.96-1.91,2.69.78,2.69,1.91,2.69,1.91-.95,1.91-2.69Z"/>
            </g>
          </g>
          <g>
            <g>
              <path class="cls-4" d="M385.12,629.23h0c-2.15,0-3.89-1.74-3.89-3.9v-73.07c0-2.15,1.74-3.89,3.89-3.89h0c2.15,0,3.9,1.74,3.9,3.89v73.07c0,2.15-1.74,3.9-3.9,3.9Z"/>
              <path class="cls-13" d="M385.12,629.23h0c-2.15,0-3.89-1.74-3.89-3.55v-10.01c0-2.49,1.74-4.24,3.89-4.24h0c2.15,0,3.9,1.74,3.9,3.89v10.01c0,2.15-1.74,3.9-3.9,3.9Z"/>
            </g>
            <g>
              <path class="cls-10" d="M383.94,635.81c0,2.21-1.21,3.36-2.97,3.36-.58,0-1.13-.1-1.54-.35l.27-.54c.33.22.78.31,1.26.31,1.4,0,2.3-.9,2.3-2.66,0-.15,0-.33-.03-.53-.33.71-1.09,1.11-1.99,1.11-1.29,0-2.19-.76-2.19-1.95s.96-2,2.22-2c1.72,0,2.66,1.2,2.66,3.25ZM383.03,634.52c0-.71-.59-1.39-1.72-1.39-.94,0-1.59.55-1.59,1.41s.63,1.4,1.63,1.4c.99,0,1.67-.61,1.67-1.42Z"/>
              <path class="cls-10" d="M384.9,635.87c0-2.07,1.09-3.3,2.59-3.3s2.6,1.23,2.6,3.3-1.1,3.3-2.6,3.3c-1.5,0-2.59-1.23-2.59-3.3ZM389.41,635.87c0-1.74-.78-2.69-1.91-2.69s-1.91.96-1.91,2.69.78,2.69,1.91,2.69,1.91-.95,1.91-2.69Z"/>
            </g>
          </g>
          <g>
            <g>
              <path class="cls-4" d="M400.69,629.23h0c-2.15,0-3.9-1.74-3.9-3.9v-73.07c0-2.15,1.74-3.89,3.9-3.89h0c2.15,0,3.89,1.74,3.89,3.89v73.07c0,2.15-1.74,3.9-3.89,3.9Z"/>
              <path class="cls-13" d="M400.69,629.23h0c-2.15,0-3.9-1.74-3.9-3.55v-35.98c0-2.49,1.74-4.24,3.9-4.24h0c2.15,0,3.89,1.74,3.89,3.9v35.98c0,2.15-1.74,3.89-3.89,3.89Z"/>
            </g>
            <g>
              <path class="cls-10" d="M395.11,632.62v6.5h-.67v-5.9h-1.53v-.59h2.2Z"/>
              <path class="cls-10" d="M396.65,635.87c0-2.07,1.09-3.3,2.59-3.3s2.6,1.23,2.6,3.3-1.1,3.3-2.6,3.3c-1.5,0-2.59-1.23-2.59-3.3ZM401.15,635.87c0-1.74-.78-2.69-1.91-2.69s-1.91.96-1.91,2.69.78,2.69,1.91,2.69,1.91-.95,1.91-2.69Z"/>
              <path class="cls-10" d="M402.79,635.87c0-2.07,1.09-3.3,2.59-3.3s2.6,1.23,2.6,3.3-1.1,3.3-2.6,3.3c-1.5,0-2.59-1.23-2.59-3.3ZM407.29,635.87c0-1.74-.78-2.69-1.91-2.69s-1.91.96-1.91,2.69.78,2.69,1.91,2.69,1.91-.95,1.91-2.69Z"/>
            </g>
          </g>
        </g>
        <path class="cls-4" d="M432.95,644.5c-.2,0-.36-24.05-.36-53.71s.16-53.71.36-53.71.36,24.04.36,53.71-.16,53.71-.36,53.71Z"/>
        <path class="cls-10" d="M523.56,544.09c0,.2-14.83.36-33.11.36s-33.12-.16-33.12-.36,14.82-.36,33.12-.36,33.11.16,33.11.36Z"/>
        <g class="cls-17">
          <path class="cls-15" d="M451.88,637.62l14.81-21.12c1.72-2.46,5.15-3,7.54-1.19l7.79,5.88c2.54,1.92,6.2,1.18,7.79-1.58l22.47-38.92c1.88-3.25,6.44-3.58,8.76-.63l14.03,17.79c2.26,2.87,6.68,2.65,8.64-.44l10.25-16.12c2.14-3.36,7.08-3.26,9.07.19l8.47,14.66c1.99,3.45,6.93,3.56,9.07.2l28.95-45.37c2.06-3.23,6.76-3.28,8.89-.1l47.83,71.54c1.92,2.87,6.02,3.17,8.34.62l29.06-31.99c2.04-2.25,5.54-2.33,7.69-.18l23.11,23.2c2.47,2.47,6.61,1.93,8.36-1.09l41.35-71.62c2.71-4.7,9.9-2.78,9.9,2.65v93.6h-342.18Z"/>
        </g>
      </g>
    </g>
  </g>
  <g id="Magnifying_Glass" data-name="Magnifying Glass">
    <g>
      <path class="cls-5" d="M186.7,646.66c-33.03,0-61.5-24.99-65.09-58.55-3.84-35.92,22.26-68.26,58.17-72.1,17.4-1.86,34.48,3.17,48.1,14.16,13.62,10.99,22.14,26.62,24,44.02h0c3.84,35.92-22.26,68.26-58.17,72.1-2.35.25-4.7.37-7.01.37ZM186.86,525.45c-2,0-4.01.11-6.03.32-30.54,3.26-52.73,30.76-49.46,61.3,3.26,30.54,30.77,52.74,61.3,49.46,30.54-3.26,52.73-30.76,49.46-61.3-1.58-14.79-8.83-28.08-20.41-37.43-10-8.07-22.2-12.36-34.87-12.36Z"/>
      <path class="cls-5" d="M283.8,707.2c-1.39,0-2.76-.58-3.74-1.72l-61.94-72.69c-1.76-2.06-1.51-5.16.55-6.91,2.06-1.76,5.16-1.51,6.91.55l61.94,72.69c1.76,2.06,1.51,5.16-.55,6.92-.92.79-2.05,1.17-3.18,1.17Z"/>
    </g>
  </g>
  <g id="Plant">
    <g>
      <g>
        <path class="cls-7" d="M877.22,703.12c10.08,3.52,23.24.37,31.86-5.92,8.63-6.3,14.83-15.32,20.33-24.48,2.35-3.91,4.64-7.98,5.38-12.48.74-4.5-.35-9.56-3.84-12.49-5.42-4.56-13.73-2.25-19.88,1.26-19.26,10.97-32.42,31.99-33.86,54.11"/>
        <path class="cls-7" d="M888.05,727.25c6.05,7.99,16.46,11.55,26.47,12.01,10.01.46,19.91-2.31,29.27-5.9,3.4-1.3,7.11-3.09,8.28-6.54.88-2.61-.03-5.58-1.77-7.71-1.75-2.13-4.23-3.53-6.76-4.61-9.21-3.92-19.77-4.11-29.46-1.59-9.69,2.51-18.16,8.13-26.03,14.33"/>
        <path class="cls-7" d="M877.07,659.92c8.35.17,14.67-7.14,18.44-14.59,5.23-10.31,7.01-22.34,4.97-33.72-.76-4.27-2.38-8.86-6.19-10.92-3.88-2.09-8.93-.71-12.18,2.26-3.25,2.97-5.03,7.21-6.33,11.41-4.48,14.5-3.51,31.16,1.29,45.55"/>
        <path class="cls-7" d="M849.65,706.09c14.23-24.22,16.6-53.86,8.2-80.66-1.36-4.35-3.94-9.33-8.48-9.61-5.04-.32-8.19,5.3-9.58,10.15-4.88,17.02-3.84,35.1-2.76,52.78.66,10.89,4.4,20.19,12.63,27.35"/>
        <path class="cls-7" d="M834.85,716.05c-5.16-16.59-18.28-30.5-34.53-36.62-3.78-1.42-8.58-2.23-11.4.66-2.76,2.84-1.91,7.58-.14,11.12,2.87,5.72,7.52,10.32,12.15,14.73,4.21,4.01,8.6,8.04,13.93,10.37,5.33,2.33,15.12,2.93,20-.25"/>
        <path class="cls-10" d="M923.09,653.82s-.08.08-.25.22c-.2.16-.46.35-.77.59-.72.54-1.72,1.29-2.98,2.23-.65.48-1.38,1.02-2.16,1.6-.78.6-1.59,1.3-2.48,2.02-1.76,1.47-3.84,3.06-5.94,5.05-1.07.97-2.19,1.99-3.35,3.05-1.16,1.07-2.28,2.27-3.49,3.46-2.45,2.36-4.82,5.1-7.37,7.94-4.94,5.82-10.01,12.53-14.68,20.01-4.6,7.52-8.34,15.06-11.34,22.08-1.4,3.55-2.8,6.9-3.81,10.15-.53,1.61-1.1,3.15-1.54,4.67-.43,1.52-.84,2.97-1.23,4.36-.85,2.76-1.33,5.34-1.86,7.57-.25,1.12-.51,2.16-.7,3.12-.17.96-.32,1.85-.46,2.65-.28,1.55-.5,2.77-.66,3.66-.08.39-.14.7-.19.95-.05.21-.08.32-.09.32s0-.11.02-.33c.03-.26.07-.57.12-.96.13-.9.31-2.13.54-3.69.12-.81.26-1.7.4-2.67.17-.97.41-2.01.64-3.14.5-2.25.95-4.83,1.77-7.61.38-1.4.78-2.87,1.19-4.39.42-1.52.99-3.07,1.51-4.69.99-3.26,2.38-6.64,3.77-10.21,2.98-7.06,6.72-14.64,11.34-22.19,4.69-7.51,9.79-14.24,14.78-20.06,2.57-2.84,4.97-5.58,7.45-7.93,1.22-1.19,2.35-2.39,3.53-3.45,1.18-1.05,2.31-2.06,3.4-3.03,2.12-1.98,4.23-3.54,6.02-4.99.91-.71,1.73-1.39,2.52-1.98.8-.56,1.54-1.08,2.2-1.55,1.29-.9,2.32-1.61,3.06-2.13.33-.22.59-.4.81-.54.18-.12.28-.18.28-.17Z"/>
        <path class="cls-10" d="M941.94,720.97s-.34-.03-.98-.16c-.64-.11-1.56-.36-2.77-.56-2.41-.47-5.93-1-10.3-1.26-8.71-.56-21.08.48-33.46,5.63-12.39,5.15-21.84,13.21-27.58,19.77-2.9,3.29-5.01,6.16-6.37,8.2-.71,1-1.19,1.83-1.56,2.36-.36.54-.55.82-.57.81-.02-.01.14-.31.46-.88.33-.56.77-1.41,1.45-2.44,1.3-2.09,3.35-5.02,6.23-8.37,5.68-6.69,15.18-14.88,27.68-20.08,12.5-5.2,25-6.16,33.75-5.48,4.4.32,7.93.93,10.33,1.48,1.21.24,2.12.53,2.75.69.63.17.95.27.94.3Z"/>
        <path class="cls-10" d="M889.38,610.37s0,.13-.05.38c-.06.28-.13.64-.23,1.09-.22,1-.54,2.4-.94,4.17-.82,3.62-2.07,8.84-3.64,15.29-3.13,12.89-7.69,30.65-12.44,50.32-2.36,9.85-4.49,19.25-6.33,27.82-1.8,8.58-3.34,16.33-4.49,22.86-.61,3.26-1.08,6.22-1.51,8.82-.45,2.6-.79,4.84-1.06,6.67-.28,1.79-.5,3.21-.66,4.22-.08.45-.14.81-.19,1.1-.05.25-.08.37-.09.37s0-.13.02-.38c.03-.29.07-.65.12-1.1.13-1.02.31-2.44.53-4.24.23-1.84.54-4.09.95-6.7.4-2.6.83-5.58,1.42-8.84,1.09-6.55,2.58-14.31,4.35-22.9,1.81-8.59,3.93-18,6.29-27.85,4.75-19.68,9.38-37.42,12.63-50.28,1.62-6.4,2.93-11.59,3.85-15.23.45-1.76.8-3.15,1.06-4.14.12-.44.22-.79.29-1.07.07-.24.11-.36.12-.36Z"/>
        <path class="cls-10" d="M856.7,751.52s-.04-.1-.09-.29c-.05-.24-.12-.52-.2-.87-.17-.83-.4-1.95-.7-3.37-.6-2.93-1.4-7.18-2.31-12.45-1.82-10.54-3.99-25.17-5.32-41.45-.64-8.14-1-15.92-1.16-22.99-.12-7.07-.06-13.45.17-18.79.07-2.67.24-5.09.36-7.21.11-2.12.26-3.95.4-5.44.13-1.44.24-2.59.32-3.43.04-.36.07-.65.1-.89.03-.2.04-.3.06-.3s.02.11.01.31c0,.24-.02.54-.03.9-.05.84-.11,1.99-.19,3.44-.1,1.49-.21,3.32-.28,5.44-.08,2.12-.22,4.53-.26,7.21-.16,5.34-.17,11.7-.02,18.77.19,7.06.57,14.82,1.21,22.95,1.33,16.25,3.41,30.87,5.12,41.42.85,5.28,1.58,9.54,2.1,12.48.24,1.43.44,2.56.58,3.4.05.36.1.65.13.89.03.2.04.3.02.31Z"/>
        <path class="cls-10" d="M857.75,754.6s-.15-.28-.37-.84c-.24-.62-.55-1.43-.94-2.44-.2-.54-.43-1.12-.67-1.76-.28-.63-.59-1.32-.91-2.05-.33-.74-.68-1.52-1.04-2.35-.37-.83-.84-1.67-1.29-2.58-.46-.9-.95-1.84-1.45-2.82-.56-.96-1.13-1.95-1.73-2.98-1.14-2.09-2.62-4.16-4.05-6.42-3.05-4.39-6.64-9.06-10.72-13.7-4.13-4.6-8.33-8.72-12.3-12.31-2.05-1.72-3.92-3.45-5.81-4.9-.93-.74-1.83-1.46-2.69-2.15-.89-.65-1.74-1.28-2.56-1.89-1.61-1.22-3.13-2.25-4.47-3.14-1.32-.92-2.48-1.68-3.45-2.26-.91-.58-1.65-1.04-2.21-1.4-.5-.33-.76-.51-.75-.53s.29.12.81.41c.58.33,1.33.76,2.27,1.29.99.55,2.17,1.28,3.52,2.17,1.36.87,2.9,1.87,4.54,3.07.83.59,1.69,1.21,2.59,1.86.88.68,1.79,1.39,2.73,2.12,1.91,1.43,3.81,3.15,5.87,4.87,4.01,3.58,8.25,7.71,12.39,12.33,4.1,4.66,7.69,9.36,10.73,13.8,1.42,2.28,2.89,4.38,4.02,6.49.59,1.04,1.16,2.04,1.71,3.01.49.99.97,1.94,1.42,2.86.44.92.9,1.77,1.26,2.61.35.84.69,1.64,1,2.38.31.74.6,1.43.87,2.08.22.65.43,1.24.62,1.79.34,1.03.61,1.85.82,2.48.18.57.26.87.24.88Z"/>
        <path class="cls-10" d="M917.81,681.92c0,.11-1.72.11-4.5.26-2.77.15-6.59.51-10.74,1.3-4.15.79-7.84,1.86-10.47,2.73-2.63.87-4.24,1.5-4.28,1.41-.02-.04.36-.25,1.07-.58.7-.34,1.75-.78,3.05-1.27,2.61-.99,6.31-2.14,10.51-2.94,4.2-.79,8.06-1.08,10.85-1.12,1.4-.02,2.53,0,3.31.07.78.05,1.21.1,1.21.15Z"/>
        <path class="cls-10" d="M928.55,734.36c-.2.11-1.81-4.53-5.86-8.84-3.99-4.35-8.5-6.3-8.38-6.49.03-.07,1.18.32,2.89,1.28,1.71.96,3.93,2.56,5.98,4.76,2.04,2.2,3.48,4.54,4.3,6.31.83,1.77,1.13,2.95,1.06,2.98Z"/>
        <path class="cls-10" d="M891.94,630.03c.14.14-2.49,2.74-5.34,6.26-2.87,3.51-4.89,6.6-5.06,6.49-.15-.08,1.63-3.37,4.54-6.92,2.9-3.56,5.75-5.97,5.86-5.84Z"/>
        <path class="cls-10" d="M883.34,615.18c.18-.03.76,2.48,1.3,5.62.53,3.13.82,5.7.63,5.73-.18.03-.76-2.48-1.3-5.62-.53-3.13-.82-5.7-.63-5.73Z"/>
        <path class="cls-10" d="M856.71,661.78c.16.09-1.7,4.01-4.17,8.77-2.47,4.76-4.6,8.54-4.76,8.46s1.7-4.01,4.17-8.77c2.46-4.75,4.6-8.54,4.76-8.46Z"/>
        <path class="cls-10" d="M840.87,645.96c.17-.08,1.75,2.76,3.53,6.34,1.79,3.59,3.1,6.56,2.93,6.64-.17.08-1.75-2.76-3.53-6.34s-3.1-6.56-2.93-6.64Z"/>
        <path class="cls-10" d="M817.58,700.06c-.04.19-2.87-.36-6.39-.6-3.52-.26-6.4-.11-6.41-.31-.02-.17,2.87-.62,6.46-.36,3.59.25,6.39,1.1,6.34,1.27Z"/>
      </g>
      <g>
        <path class="cls-10" d="M833.48,747.9l7.92,41.67c.52,2.76,2.93,4.75,5.74,4.75h23.41c2.86,0,5.3-2.07,5.76-4.88l6.89-41.53h-49.72Z"/>
        <polygon class="cls-5" points="836.06 761.44 880.82 761.44 883.2 747.9 833.48 747.9 836.06 761.44"/>
        <polygon class="cls-11" points="836.06 761.44 837 766.38 880.13 766.38 880.82 761.44 836.06 761.44"/>
      </g>
    </g>
  </g>
  <g id="Character">
    <g>
      <g>
        <g>
          <path class="cls-7" d="M688.85,754.56l.71,25.47s26.13,7.83,26.72,12.53l-49.34,3.15-2.74-39.64,24.64-1.51Z"/>
          <path class="cls-4" d="M674.17,778.87c-.94.32-1.53,1.44-1.25,2.39.28.95,1.41,1.56,2.36,1.26.94-.31,1.69-1.62,1.31-2.54s-1.75-1.56-2.6-1.04"/>
          <g class="cls-20">
            <path class="cls-15" d="M666.94,795.71l-.12-4.01,47.35-1.52s2.26.82,2.11,2.38l-49.34,3.15Z"/>
          </g>
          <path class="cls-10" d="M690.34,779.73c0,.24-1.19.43-2.33,1.28-1.16.82-1.7,1.9-1.93,1.82-.23-.03.04-1.5,1.44-2.5,1.38-1.02,2.86-.82,2.82-.6Z"/>
          <path class="cls-10" d="M695.66,781.54c.07.23-.95.71-1.7,1.78-.78,1.05-.92,2.16-1.16,2.17-.22.05-.48-1.35.48-2.66.95-1.32,2.36-1.51,2.38-1.28Z"/>
          <path class="cls-10" d="M698.99,787.55c-.22.07-.63-1.12-.09-2.48.53-1.36,1.63-1.96,1.74-1.76.15.19-.54.94-.96,2.07-.45,1.11-.45,2.13-.69,2.17Z"/>
          <path class="cls-10" d="M689.54,773.95c-.09.23-1.21-.04-2.57.14-1.36.15-2.39.68-2.53.48-.15-.17.83-1.12,2.43-1.31,1.6-.2,2.78.49,2.67.69Z"/>
        </g>
        <path class="cls-10" d="M689.3,768.81c0,.1-.93.31-2.47.15-.77-.08-1.67-.27-2.64-.63-.48-.18-.97-.4-1.47-.66-.24-.13-.52-.26-.78-.53-.28-.23-.48-.86-.19-1.28.23-.4.66-.59,1.02-.62.36-.04.66.02.93.07.56.1,1.08.25,1.57.43.97.37,1.77.86,2.37,1.35,1.21.99,1.66,1.86,1.58,1.91-.1.09-.71-.63-1.93-1.43-.61-.4-1.38-.8-2.28-1.1-.45-.15-.94-.27-1.45-.35-.53-.1-.98-.08-1.1.16-.04.09-.05.13.07.27.12.13.34.26.58.39.45.26.91.48,1.35.66.89.37,1.73.61,2.45.76,1.44.3,2.37.31,2.38.44Z"/>
        <path class="cls-10" d="M689.01,769.18c-.08.04-.62-.79-.8-2.34-.09-.77-.07-1.72.16-2.73.12-.5.29-1.03.53-1.54.26-.51.57-1.18,1.5-1.35.49-.05.92.31,1.08.62.18.32.24.61.31.89.13.57.15,1.14.11,1.66-.09,1.06-.46,1.96-.89,2.62-.88,1.34-1.87,1.69-1.89,1.61-.09-.12.72-.63,1.38-1.91.33-.63.6-1.45.63-2.37.02-.46-.02-.94-.14-1.43-.11-.52-.33-.93-.53-.86-.25.01-.64.43-.81.86-.23.46-.4.92-.53,1.38-.25.91-.33,1.77-.32,2.5.03,1.45.34,2.33.21,2.38Z"/>
      </g>
      <g>
        <path class="cls-7" d="M584.44,753.45l-2.97,32.73-9.81,25.21c-.71,1.82.27,3.85,2.13,4.43h0c1.04.33,2.17.13,3.04-.53,5.53-4.21,25.78-19.8,25.87-22.21.1-2.79,5.43-34.31,5.43-34.31l-23.68-5.32Z"/>
        <g class="cls-20">
          <path class="cls-15" d="M573.78,815.82l29.15-24.94-.16,1.38c-.14,1.2-.69,2.31-1.57,3.13-2.35,2.2-8.97,8.13-24.29,19.91-.89.69-2.07.88-3.13.52h0Z"/>
        </g>
        <g class="cls-20">
          <path class="cls-15" d="M597.43,779.58c-.88.47-1.29,1.68-.85,2.58s1.66,1.33,2.55.87c.89-.46,1.43-1.89.89-2.74-.53-.85-2-1.27-2.75-.61"/>
        </g>
        <path class="cls-10" d="M582.87,802.4c-.19.07-.74-1.72-2.57-2.87-1.8-1.2-3.66-.94-3.68-1.15-.02-.08.42-.29,1.2-.31.77-.03,1.86.21,2.87.85,1,.65,1.67,1.54,1.97,2.25.3.71.3,1.2.22,1.22Z"/>
        <path class="cls-10" d="M580.05,806.51c-.17.12-1.1-1.06-2.73-1.73-1.62-.71-3.11-.56-3.14-.77-.08-.18,1.57-.69,3.42.11,1.86.78,2.63,2.33,2.45,2.4Z"/>
        <path class="cls-10" d="M587.84,797.29c-.17.14-1.59-1.69-4.04-2.96-2.43-1.31-4.73-1.46-4.71-1.68-.03-.18,2.44-.36,5.05,1.04,2.62,1.37,3.86,3.52,3.7,3.6Z"/>
        <path class="cls-10" d="M589.57,787.42c-.11.18-1.83-.77-4.16-1.13-2.33-.38-4.26,0-4.31-.21-.07-.17,1.91-.91,4.42-.5,2.51.39,4.17,1.7,4.05,1.84Z"/>
        <path class="cls-10" d="M590.69,777.84c-.12.18-1.81-1.12-4.3-1.29-2.49-.22-4.36.79-4.45.59-.05-.07.36-.44,1.16-.79.8-.35,2.01-.62,3.35-.52,1.34.11,2.5.57,3.23,1.04.74.47,1.08.9,1.02.96Z"/>
        <path class="cls-10" d="M586.65,774.73s-.07-.45.1-1.24c.16-.78.52-1.92,1.35-3.12.42-.57.88-1.3,1.84-1.63.48-.17,1.14,0,1.48.47.34.46.4,1.01.35,1.53-.27,2.07-2.28,3.87-4.64,3.9-2.37,0-4.34-1.59-5.06-3.48-.15-.49-.23-1.07.09-1.59.31-.53,1-.67,1.46-.54.95.26,1.5.88,2.02,1.36,1.02,1.03,1.61,2.06,1.94,2.79.33.73.41,1.17.37,1.19-.12.07-.64-1.7-2.67-3.61-.51-.45-1.1-1-1.79-1.14-.34-.07-.64.03-.8.29-.16.25-.13.67,0,1.05.62,1.55,2.42,2.99,4.42,2.97,1.99,0,3.76-1.59,3.99-3.26.05-.4,0-.82-.2-1.08-.18-.26-.5-.36-.81-.27-.66.18-1.17.82-1.58,1.35-1.65,2.24-1.72,4.11-1.86,4.06Z"/>
      </g>
      <polygon class="cls-10" points="576.99 519.62 575.04 774.84 610.93 777.13 618.49 563.94 661.5 775.93 694.12 772.49 659.42 519.58 576.99 519.62"/>
      <g>
        <g>
          <g>
            <path class="cls-12" d="M620.62,312.4c-12.12-.94-22.67,8.23-23.41,20.37-.61,10.1-1.16,21.03-1.09,26.53.15,11.81,11.96,13.65,11.96,13.65,0,0-.29,3.5-.62,7.84-.66,8.75,6.04,16.31,14.8,16.72h0c8.59.39,15.87-6.26,16.26-14.85l2.14-47.6c.53-11.73-8.34-21.76-20.05-22.67h0Z"/>
            <path class="cls-2" d="M608.07,372.78s7.47.61,15.4-4.38c0,0-3.64,8.5-15.43,7.44l.03-3.06Z"/>
          </g>
          <g>
            <path class="cls-12" d="M639.58,339.12c.2-.09,8.12-2.4,7.86,5.68-.26,8.08-8.31,6.15-8.32,5.92,0-.23.46-11.6.46-11.6Z"/>
            <path class="cls-2" d="M641.69,347.74s.14.1.37.22c.23.11.62.2,1.05.05.86-.29,1.63-1.62,1.71-3.07.04-.73-.09-1.44-.33-2.03-.23-.6-.6-1.02-1.02-1.11-.42-.11-.74.13-.84.36-.11.22-.07.39-.11.4-.02.02-.17-.14-.09-.47.04-.16.14-.35.33-.5.2-.15.49-.22.78-.18.62.06,1.16.65,1.43,1.3.3.65.47,1.44.42,2.27-.1,1.63-.99,3.12-2.16,3.42-.57.13-1.04-.06-1.28-.26-.24-.21-.28-.39-.25-.4Z"/>
          </g>
          <g>
            <g>
              <g>
                <path class="cls-10" d="M600.22,340.28c-.03.89.7,1.65,1.63,1.7.93.05,1.71-.63,1.74-1.52.03-.89-.7-1.65-1.63-1.7-.93-.05-1.71.63-1.74,1.52Z"/>
                <path class="cls-10" d="M600.26,336.97c.21.22,1.49-.73,3.3-.72,1.81-.02,3.15.91,3.34.69.1-.1-.12-.5-.7-.92-.57-.42-1.55-.83-2.68-.83-1.13,0-2.08.42-2.63.85-.56.43-.75.83-.64.92Z"/>
              </g>
              <g>
                <path class="cls-10" d="M618.06,340.28c-.03.89.7,1.65,1.63,1.7.93.05,1.71-.63,1.74-1.52.03-.89-.7-1.65-1.63-1.7-.93-.05-1.71.63-1.74,1.52Z"/>
                <path class="cls-10" d="M618.11,337.31c.21.22,1.49-.73,3.3-.72,1.81-.02,3.15.91,3.34.69.1-.1-.11-.5-.7-.92-.57-.42-1.54-.83-2.68-.83-1.13,0-2.08.42-2.63.85-.56.43-.75.83-.64.92Z"/>
              </g>
              <path class="cls-10" d="M611.52,350.77c0-.1-1.12-.3-2.95-.53-.46-.05-.9-.14-.98-.46-.11-.33.08-.84.31-1.37.44-1.12.89-2.3,1.37-3.53,1.9-5.03,3.28-9.16,3.08-9.23-.2-.07-1.91,3.94-3.82,8.97-.46,1.24-.9,2.42-1.31,3.55-.18.53-.48,1.12-.24,1.82.12.35.47.6.76.68.3.09.56.1.79.11,1.84.1,2.98.11,2.99,0Z"/>
              <path class="cls-10" d="M616.86,352.03c-.3-.02-.3,1.95-1.99,3.35-1.68,1.4-3.78,1.18-3.8,1.46-.03.12.47.38,1.36.41.87.03,2.14-.25,3.17-1.11,1.03-.86,1.47-2,1.54-2.81.07-.82-.15-1.31-.28-1.3Z"/>
            </g>
            <path class="cls-10" d="M617.64,330.2c.18.49,1.99.26,4.12.52,2.14.21,3.85.84,4.14.4.13-.21-.17-.68-.87-1.15-.69-.48-1.79-.93-3.07-1.07-1.28-.14-2.45.06-3.23.38-.78.32-1.18.7-1.1.94Z"/>
            <path class="cls-10" d="M600.93,331.72c.32.41,1.57-.02,3.07-.04,1.5-.07,2.78.28,3.07-.15.13-.21-.07-.62-.63-1.01-.55-.39-1.47-.71-2.5-.68-1.03.03-1.93.41-2.45.83-.53.42-.71.85-.56,1.05Z"/>
          </g>
        </g>
        <path class="cls-10" d="M640.5,338.75c.11,1.24.06,2.67-.2,3.88-.26,1.21-.95,2.39-2.06,2.95-2.03,1.01-4.58-.54-5.48-2.62-.91-2.08-.66-4.45-.45-6.71.28-3.08.45-6.21-.14-9.24-.59-3.04-2.02-6-4.44-7.93-2.42-1.92-5.93-2.62-8.7-1.26-1.71.84-3,2.35-4.6,3.39-1.44.94-3.19,1.49-4.88,1.23-1.7-.26-3.29-1.46-3.74-3.12-.49-1.81.45-3.77,1.91-4.96,1.45-1.18,3.32-1.72,5.16-2.07,5.1-.97,10.5-.73,15.33,1.19s9.09,5.57,11.12,10.35c2.35,5.53,2.04,8.9,1.36,14.9"/>
      </g>
      <g>
        <path class="cls-12" d="M475.95,400.62l17.23,3.47,23.7,15.09-8.08,15.38s-8.33-2.32-10.76-4.47c-2.43-2.15-5.13-2.39-5.13-2.39,0,0,.16,3.81-2.72,3.15-2.89-.66-7.7-1.48-6.88-5.54,0,0-2.15-.58-2.02-3.42,0,0-2.38-.18-1.73-4.12.64-3.94,3.49-9.03,11.35-7.6.41.08.95-.7.24-.96l-12.15-2.86s-7.61-3.01-3.03-5.72Z"/>
        <path class="cls-2" d="M484.45,417.59c.03-.1,1.13.18,2.89.7.88.3,1.9.5,3.09,1.05.57.3,1.18.81,1.4,1.6.22.82-.21,1.68-.83,2.16-1.34,1.01-2.93.7-4.06.53-1.2-.18-2.28-.4-3.17-.65-1.78-.5-2.8-1.04-2.77-1.12.04-.11,1.11.25,2.89.62.89.18,1.95.35,3.14.49.6.06,1.23.17,1.82.13.6-.04,1.24-.2,1.69-.56.47-.37.72-.93.59-1.42-.12-.5-.55-.92-1.02-1.18-.99-.5-2.11-.81-2.94-1.15-1.71-.65-2.75-1.1-2.72-1.19Z"/>
        <path class="cls-2" d="M488.66,415.36c-.02.21-1.05.23-2.06.89-1.03.62-1.49,1.54-1.69,1.47-.2-.02.04-1.3,1.3-2.09,1.25-.8,2.51-.46,2.45-.27Z"/>
        <path class="cls-2" d="M490.48,422.91s.18.02.4.23c.26.22.31.74.37,1.17.09.53,0,1.24-.49,1.84-.5.65-1.49.78-2.24.65-1.48-.23-2.82-.44-3.77-.76-.95-.31-1.48-.65-1.44-.73.04-.1.62.06,1.57.23.94.18,2.28.31,3.74.54.7.1,1.29.01,1.65-.38.36-.38.5-.91.48-1.34,0-.53.04-.84-.09-1.06-.11-.23-.21-.36-.17-.4Z"/>
        <path class="cls-2" d="M490.35,426.08c-.01-.09.31-.24.84-.09.52.14,1.11.61,1.54,1.23.52.77.34,1.58.18,2.03-.17.47-.38.71-.47.67-.1-.04-.07-.34-.04-.78.03-.44.04-1.05-.27-1.5-.39-.55-.8-.96-1.15-1.18-.34-.22-.63-.27-.63-.38Z"/>
        <g>
          <path class="cls-12" d="M503.59,417.17l-8.32-.34-8.73,1.7s-.72,1.59,3.32,2.67c4.04,1.08,7.78.37,7.78.37,0,0,3.6,5.25,8.29,6.46"/>
          <path class="cls-2" d="M505.93,428.03s-.27-.01-.77-.14c-.49-.14-1.2-.4-2.03-.87-1.67-.92-3.8-2.66-5.75-5.28l.33.13c-2.82.43-6.22.44-9.57-.9-.49-.22-.97-.47-1.38-.87-.39-.39-.8-.97-.55-1.73l.06-.17.2-.04c3.21-.6,6.18-1.16,8.75-1.64h.04s.03,0,.03,0c2.53.14,4.61.27,6.05.38,1.45.11,2.26.2,2.26.26,0,.06-.82.08-2.27.07-1.45,0-3.53-.05-6.06-.12h.07c-2.56.51-5.51,1.11-8.72,1.76l.26-.2c-.08.2.08.63.39.91.31.3.73.53,1.17.73,3.11,1.25,6.48,1.3,9.15.93l.21-.03.12.16c1.82,2.55,3.86,4.34,5.42,5.31,1.56,1,2.63,1.23,2.6,1.33Z"/>
        </g>
        <path class="cls-2" d="M493.44,412.3c-.11.16-.91-.2-1.51-1.06-.61-.85-.69-1.73-.49-1.78.2-.06.56.62,1.09,1.35.52.75,1.04,1.31.91,1.48Z"/>
      </g>
      <g>
        <path class="cls-6" d="M584.73,521.59c14.31,6.18,31.04,8.02,49.93,6.01l13.84-140.91-9.81-7.53-22.6,16.8-7.74-16.19-18.15,26.07-5.46,115.74Z"/>
        <path class="cls-10" d="M608.48,528.38s-.04-.11-.08-.33c-.04-.27-.09-.59-.16-.99-.13-.94-.31-2.22-.53-3.84-.14-1.68-.25-3.73-.4-6.12-.12-2.39-.11-5.11-.18-8.12-.08-12.03.72-28.64,2.06-46.93,1.34-18.3,3-34.83,4.33-46.78.66-5.97,1.27-10.8,1.73-14.13.22-1.67.43-2.96.57-3.83.07-.4.13-.73.17-.99.04-.22.07-.34.08-.33.01,0,0,.12,0,.34-.03.27-.06.6-.1,1-.11.94-.25,2.22-.44,3.84-.36,3.4-.87,8.22-1.5,14.15-1.2,11.96-2.78,28.49-4.12,46.78-1.34,18.28-2.23,34.87-2.27,46.88.03,3,0,5.72.07,8.1.11,2.37.2,4.41.27,6.11.17,1.62.3,2.9.4,3.84.03.4.06.73.09,1,.02.23.02.34,0,.34Z"/>
        <path class="cls-7" d="M627.51,549.14s-10.54-110.15-4-122.45c5.06-9.53,12.89-29.42,16.16-37.92.98-2.54.91-5.37-.2-7.85l-.78-1.74,9.81,7.53,20.14,10.82-12.16,93.32,13.77,47.34-42.74,10.95Z"/>
        <g class="cls-19">
          <path class="cls-3" d="M624.79,517.25c8.56-1.79,4.87,3.19,13.52,1.92,4.68-.68,4.91-3.42,8.77-6.16,3.85-2.74,9.69-5.03,14.41-4.93l-1.92-6.6-35.82,1.33,1.04,14.43Z"/>
        </g>
        <path class="cls-7" d="M575.45,402.85l3.49,87.99-7.06,49.25,17.64,6.52,7.71-136.09c.09-5.06,1.22-10.05,3.33-14.65l6.91-15.08-23.41,7.97-8.62,14.09Z"/>
        <path class="cls-7" d="M668.64,397.52s11.05,9.56,13.54,22.4c1.81,9.37,7.14,42.25,8.63,59.14.92,10.49-6.44,19.96-16.86,21.5-.16.02-.32.05-.48.07-16.02,2.19-42.91-.84-42.91-.84l4.69-20.46s23.79-3.44,28.06-6.31l-5.67-37.96s4.66-36.45,11.01-37.54Z"/>
        <path class="cls-7" d="M518.43,416.24l38.95,24.68s14.03-41.22,23.04-50.91l10.85-3.69-9.9,79.09c-.74,4.47-3.34,8.42-7.15,10.87h0c-5.84,3.76-13.44,3.35-18.83-1.03l-47.66-38.65,10.7-20.36Z"/>
        <path class="cls-10" d="M670.41,485.85c-.12-.01-.06-.9-.24-2.3-.17-1.39-.67-3.29-1.73-5.15-1.06-1.85-2.44-3.25-3.55-4.1-1.11-.86-1.91-1.26-1.86-1.37.03-.07.92.16,2.16.95,1.24.78,2.77,2.2,3.89,4.16,1.12,1.96,1.56,4,1.61,5.46.05,1.47-.2,2.35-.28,2.34Z"/>
        <path class="cls-10" d="M666.23,488.56c-.23-.04.83-3.75-.1-8.27-.86-4.53-3.26-7.56-3.06-7.68.07-.05.75.62,1.58,1.93.83,1.3,1.73,3.28,2.2,5.61.46,2.33.38,4.5.11,6.03-.27,1.53-.65,2.41-.73,2.39Z"/>
        <path class="cls-10" d="M665.92,401.38c.1.13-1.97,1.3-4.25,4.23-2.3,2.88-4.53,7.66-5.2,13.29-.66,5.63,0,10.79.51,14.47.26,1.73.48,3.19.66,4.38.15,1.04.22,1.61.17,1.62-.05,0-.21-.55-.45-1.57-.24-1.02-.56-2.5-.89-4.35-.64-3.68-1.41-8.89-.73-14.64.68-5.75,3.05-10.65,5.52-13.52,1.22-1.45,2.38-2.46,3.25-3.07.86-.61,1.38-.87,1.4-.84Z"/>
        <g class="cls-19">
          <path class="cls-3" d="M663.6,472.7c1.84,2.16,2.73,5.02,2.84,7.85.12,2.83-.49,5.66-1.36,8.35-.16.5-.32,1.08-.04,1.52.36.56,1.27.51,1.77.06s.7-1.13.88-1.78c-.34.38.15,1.02.66.99.51-.03.89-.46,1.16-.89,1.56-2.43,1.43-5.66.33-8.34-1.1-2.67-3.06-4.9-5.05-7"/>
        </g>
        <path class="cls-10" d="M565.32,456.34c-.15.11-2.56-3.02-4.77-7.36-2.22-4.33-3.34-8.12-3.16-8.18.2-.07,1.62,3.57,3.81,7.84,2.18,4.28,4.3,7.57,4.12,7.69Z"/>
        <path class="cls-10" d="M559.86,459.3c-.09.03-.48-.97-.98-2.63s-1.07-3.99-1.55-6.59c-.48-2.6-.76-4.98-.89-6.71-.13-1.73-.12-2.8-.02-2.81.21-.02.68,4.22,1.63,9.39.94,5.16,2.01,9.29,1.81,9.35Z"/>
        <path class="cls-10" d="M578.94,413.92c.2,0,.36,17.22.36,38.46s-.16,38.46-.36,38.46-.36-17.22-.36-38.46.16-38.46.36-38.46Z"/>
        <path class="cls-10" d="M602.66,382.43s-.14.25-.47.68c-.36.5-.83,1.13-1.4,1.9-1.19,1.67-2.88,4.12-4.71,7.32-1.79,3.19-3.89,7.14-4.99,11.88-.43,2.35-.71,4.97-1.11,7.63-1.16,2.8,1.6,4.63,3.84,6.14l.56.38-.63.27c-.74.32-1.53.89-2.28,1.46-1.01.78-1.97,1.61-2.84,2.41l.11-.29c.44,5.57,1.4,10.83,2.03,15.59.67,4.74,1.27,9,1.78,12.6.47,3.5.85,6.36,1.13,8.43.11.93.2,1.69.27,2.29.05.52.07.8.05.8s-.09-.26-.18-.78c-.1-.59-.24-1.34-.4-2.27-.33-2.07-.79-4.91-1.35-8.4-.55-3.59-1.21-7.84-1.93-12.58-.67-4.77-1.65-9.98-2.11-15.63v-.18s.11-.12.11-.12c.89-.82,1.86-1.66,2.89-2.46.78-.59,1.55-1.17,2.46-1.56l-.06.65c-1.22-.79-2.39-1.64-3.36-2.74-.46-.56-.91-1.19-1.01-2.01-.04-.19,0-.43,0-.61l.07-.5.14-1c.41-2.66.69-5.19,1.16-7.67.55-2.44,1.44-4.63,2.35-6.62.92-1.99,1.9-3.78,2.85-5.37,1.9-3.19,3.66-5.6,4.92-7.23.63-.81,1.14-1.43,1.5-1.83.36-.4.56-.6.57-.59Z"/>
        <path class="cls-10" d="M645.84,385.01s.09.2.19.59c.11.39.23.97.35,1.74.23,1.52.31,3.77-.02,6.5-.33,2.74-1.09,5.93-2.1,9.4-.96,3.49-2.28,7.28-4,11.09-1.53,3.44-3.16,6.65-4.65,9.6l-.08.15-.16.03c-1.16.23-2.29.46-3.38.68l.18-.53c.76.9,1.49,1.77,2.18,2.59l.14.17-.11.18c-1.99,3.2-3.65,5.87-4.89,7.86-.56.86-1.02,1.57-1.4,2.15-.33.49-.52.74-.54.73-.03-.02.11-.3.39-.82.34-.6.75-1.34,1.26-2.24,1.18-2.02,2.77-4.74,4.68-7.99l.03.35c-.71-.81-1.45-1.66-2.22-2.56l-.36-.41.54-.11c1.08-.23,2.21-.47,3.37-.72l-.24.18c1.46-2.96,3.07-6.17,4.59-9.59,1.71-3.8,3.03-7.51,4.02-10.98,1.05-3.45,1.84-6.59,2.24-9.28.39-2.69.39-4.89.25-6.41-.13-1.51-.33-2.34-.25-2.35Z"/>
        <g class="cls-19">
          <path class="cls-3" d="M563.64,455.69c-1.74-4.97-4.14-9.97-6.27-14.78l-1.77-1.12c-1.44,4.41-.89,9.24.67,13.62.14.39.34.83.73.97.52.18,1.08-.31,1.18-.85.11-.54-.1-1.09-.3-1.6,1.15,2.04,2.46,3.99,3.93,5.81.23.28.49.58.84.66.58.13,1.13-.4,1.25-.98.12-.58-.08-1.17-.27-1.73Z"/>
        </g>
        <g class="cls-19">
          <path class="cls-3" d="M593.08,459.89c-3.36-9.51-6.74-19.1-8.07-29.1-.29-2.21-.48-4.48.09-6.63.57-2.15,2.04-4.18,4.15-4.88-1.19-1.29-1.22-3.48-.06-4.8,1.37,1.45,2.73,2.9,4.1,4.36-2.12-.03-3.91,1.81-4.53,3.85-.62,2.03-.34,4.22-.06,6.32,1.4,10.41,2.8,20.82,4.19,31.24"/>
        </g>
        <g class="cls-19">
          <path class="cls-3" d="M637.8,426.53c2.04-7.12,4.07-14.25,6.11-21.37-1.71,4.08-3.42,8.17-5.13,12.26-.72,1.71-1.45,3.46-2.69,4.84-1.23,1.39-3.07,2.38-4.91,2.11,1.06.72,2.13,1.45,3.19,2.17-2.29,3.68-4.53,7.72-6.82,11.4l4.92.41c1.87-2.97,3.52-5.6,5.39-8.56-.55-.98-1.1-1.97-1.65-2.95.53-.1,1.06-.21,1.59-.31Z"/>
        </g>
        <polygon class="cls-6" points="607.47 380.79 607.73 377.37 614.06 386.31 616.08 395.97 621.26 386.31 639.12 375.93 639.12 385.01 635.71 393.84 629.05 398.98 621.43 402.32 612.37 400.62 606.89 397.52 605.68 391.12 607.47 380.79"/>
        <path class="cls-10" d="M613.62,386.18c.1.04-.37,1.24-.93,3.26-.54,2-1.2,4.87-1.06,8.07l.06,1.38-.73-1.16c-.14-.22-.29-.46-.45-.71-1.79-3.05-2.62-6.09-3.53-8.14-.85-2.08-1.6-3.26-1.5-3.32.07-.05.98,1.05,1.97,3.11,1.04,2.03,1.96,5.06,3.68,7.98.15.23.29.46.43.68l-.67.22c-.14-3.35.64-6.26,1.3-8.25.69-2.01,1.33-3.14,1.4-3.11Z"/>
        <path class="cls-10" d="M639.12,381.84s.04.12.05.37c.02.24-.03.6-.11,1.06-.2.9-.81,2.15-1.89,3.38-1.08,1.25-2.59,2.49-4.37,3.7-1.82,1.14-3.64,2.54-5.57,4.09-1.72,1.37-3.38,2.69-5.04,3.71l-.65.4.14-.76c.29-1.6.21-3.19.15-4.58-.07-1.4-.19-2.63-.29-3.65-.21-2.04-.35-3.24-.27-3.25.07-.01.36,1.16.69,3.2.16,1.02.33,2.25.45,3.66.1,1.41.23,3-.06,4.75l-.52-.36c1.59-1.02,3.23-2.34,4.95-3.7,1.91-1.54,3.83-2.98,5.65-4.08,1.77-1.16,3.28-2.33,4.36-3.48,1.09-1.15,1.73-2.28,2-3.11.26-.84.26-1.35.33-1.35Z"/>
        <path class="cls-10" d="M660.71,501.42s-.19.04-.57.08c-.44.03-.99.06-1.66.11-1.45.07-3.57.15-6.25.19-2.68.05-5.91.07-9.59.03-1.84-.02-3.79-.06-5.84-.12-1.02-.04-2.07-.09-3.14-.13-.54-.04-1.08-.08-1.63-.11l-.83-.09c-.14-.02-.28-.03-.43-.07-.08-.02-.14-.02-.24-.05l-.14-.05s-.26-.18-.28-.32v-.08s0-.05,0-.05c1.22-5.53,2.57-11.6,3.97-17.95.27-1.19.53-2.38.79-3.54l.05-.25.25-.04c10.95-1.61,20.94-3.25,28.01-6.2l-.16.29c-.68-4.9-1.24-8.9-1.64-11.77-.17-1.34-.3-2.4-.41-3.21-.08-.74-.12-1.13-.09-1.13s.11.38.24,1.11c.14.8.32,1.87.55,3.19.46,2.86,1.09,6.85,1.88,11.74l.03.21-.19.08c-7.14,3.09-17.15,4.8-28.12,6.42l.3-.28c-.26,1.16-.52,2.35-.79,3.54-1.43,6.35-2.79,12.41-4.03,17.94l-.3-.08c8.76.4,16.42.56,21.75.56,2.61,0,4.72,0,6.25,0,.67,0,1.22,0,1.66,0,.38,0,.57.02.57.04Z"/>
      </g>
      <g>
        <g>
          <polygon class="cls-5" points="665.21 446.75 653.08 476.16 635.24 479.33 630.45 500.82 642.24 501.5 642.15 502.29 595.89 503.61 615.46 446.75 665.21 446.75"/>
          <polygon class="cls-5" points="608.94 437.01 615.46 446.75 595.89 503.61 589.52 492.7 608.94 437.01"/>
          <polygon class="cls-8" points="665.21 446.75 658.06 439.82 608.94 437.01 615.46 446.75 665.21 446.75"/>
          <path class="cls-10" d="M615.46,446.75c.19.07-4.04,12.85-9.44,28.54-5.41,15.7-9.94,28.37-10.13,28.31s4.04-12.84,9.44-28.55c5.4-15.7,9.94-28.37,10.13-28.31Z"/>
        </g>
        <g>
          <path class="cls-12" d="M634.57,480.95l-8.47-.73s-3.28-5.45-5.44-7.35c-2.16-1.9-13.3-7.23-13.3-7.23,0,0-1.63,1.95,0,3.91.73.88,6,3.84,6,3.84h0c.63,2.17-1.25,4.24-3.47,3.83-3.26-.6-7.07-1.28-7.57-1.28-.56,0-3.82-3.08-6.21-5.42-1.43-1.4-3.99-.06-3.42,1.86.06.2.15.36.29.48,0,0-3.44-.12-.37,4.5,0,0-.71,4.27,1.81,6.22,0,0,1.09,5.16,2.7,6.93,1.62,1.78,17.42,5.16,17.42,5.16l16.46,1.6,3.56-16.33Z"/>
          <path class="cls-2" d="M608.48,482.13c0,.09-1.08.16-2.83.07-1.72-.11-4.24-.35-6.64-1.75-2.39-1.44-3.75-3.6-4.63-5.08-.87-1.52-1.29-2.51-1.21-2.56.09-.05.68.85,1.64,2.29.97,1.4,2.36,3.41,4.56,4.73,2.22,1.29,4.63,1.62,6.32,1.86,1.71.22,2.79.34,2.78.45Z"/>
          <path class="cls-2" d="M606.85,485.79c.02.1-.98.32-2.58.2-.8-.05-1.75-.17-2.79-.4-1.02-.26-2.2-.54-3.26-1.33-1.01-.77-1.75-1.68-2.42-2.49-.6-.75-1.18-1.47-1.74-2.16-.98-1.24-1.54-2.05-1.47-2.11s.78.62,1.86,1.78c.54.58,1.18,1.28,1.86,2.07.69.77,1.44,1.65,2.35,2.34.89.67,2,.98,2.98,1.26.99.26,1.91.43,2.68.55,1.54.24,2.51.21,2.53.31Z"/>
          <path class="cls-2" d="M604.63,489.86c-.05.29-2.87-.3-6.21-1.24-.55-.12-.9-.48-1.22-.74-.32-.29-.6-.58-.86-.87-.51-.58-.92-1.15-1.22-1.65-.61-1-.78-1.73-.7-1.76.1-.04.43.58,1.12,1.47.34.44.78.96,1.29,1.49.26.27.54.54.84.79.31.25.61.52.93.57,1.71.46,3.2.94,4.29,1.29,1.09.36,1.74.57,1.74.65Z"/>
        </g>
      </g>
    </g>
  </g>
</svg>