<?xml version="1.0" encoding="UTF-8"?>
<svg id="Layer_2" data-name="Layer 2" xmlns="http://www.w3.org/2000/svg" viewBox="0 0 1000 1000">
  <defs>
    <style>
      .cls-1 {
        fill: #975b01;
      }

      .cls-1, .cls-2, .cls-3, .cls-4, .cls-5, .cls-6, .cls-7, .cls-8, .cls-9, .cls-10, .cls-11, .cls-12, .cls-13, .cls-14, .cls-15, .cls-16 {
        stroke-width: 0px;
      }

      .cls-2 {
        fill: #000;
      }

      .cls-3 {
        fill: #e0e0e0;
      }

      .cls-17 {
        opacity: .2;
      }

      .cls-4 {
        fill: #eb996e;
      }

      .cls-5 {
        fill: #455a64;
      }

      .cls-6 {
        fill: #704c45;
      }

      .cls-7 {
        fill: #004d80;
      }

      .cls-8 {
        fill: #f5f5f5;
      }

      .cls-9 {
        fill: #09f;
      }

      .cls-10 {
        fill: #035;
      }

      .cls-11 {
        fill: #ffbe9d;
      }

      .cls-12 {
        fill: #ebebeb;
      }

      .cls-13 {
        fill: #9b6e65;
      }

      .cls-14 {
        fill: #263238;
      }

      .cls-15 {
        fill: #c77802;
      }

      .cls-18 {
        opacity: .3;
      }

      .cls-16 {
        fill: #fff;
      }
    </style>
  </defs>
  <g id="freepik--background-complete--inject-14">
    <path class="cls-12" d="M498.06,225.82c2.68-1.18,4.39-3.86,4.33-6.79,0-3.75-3.04-6.79-6.79-6.79s-6.79,3.04-6.79,6.79c-.06,2.93,1.66,5.61,4.34,6.79-10.47,1.57-9.99,12.95-9.99,12.95l24.75.12s.53-11.51-9.86-13.07Z"/>
    <path class="cls-12" d="M885.65,367.04c5.85-2.6,9.58-8.43,9.5-14.83,0-8.85-6.65-16.05-14.94-16.09-8.28-.04-15.06,7.1-15.08,15.95-.13,6.44,3.62,12.32,9.5,14.94-23.08,3.49-22.08,28.62-22.08,28.62l54.69.26s1.38-25.42-21.6-28.85Z"/>
    <path class="cls-12" d="M880.04,428.12c-33.25,0-60.21-26.94-60.22-60.19,0-33.25,26.94-60.21,60.19-60.22,33.25,0,60.21,26.94,60.22,60.19h0c-.03,33.24-26.96,60.18-60.19,60.22ZM880.04,309.44c-32.3,0-58.48,26.18-58.48,58.48s26.18,58.48,58.48,58.48,58.48-26.18,58.48-58.48h0c-.04-32.28-26.2-58.44-58.48-58.48Z"/>
    <path class="cls-12" d="M229.7,289.74c5.37-2.37,8.8-7.71,8.72-13.58,0-8.15-6.08-14.65-13.66-14.69-7.58-.04-13.73,6.48-13.77,14.55-.12,5.9,3.34,11.29,8.74,13.66-21.11,3.18-20.15,26.11-20.15,26.11l49.9.23s1.14-23.12-19.78-26.29Z"/>
    <path class="cls-12" d="M224.55,345.54c-30.38,0-55.01-24.61-55.02-54.99,0-30.38,24.61-55.01,54.99-55.02,30.38,0,55.01,24.61,55.02,54.99h0c-.03,30.37-24.63,54.98-54.99,55.02ZM224.55,237.27c-29.43,0-53.3,23.85-53.3,53.28,0,29.43,23.85,53.3,53.28,53.3,29.43,0,53.3-23.85,53.3-53.28v-.03c-.04-29.41-23.87-53.23-53.28-53.28Z"/>
    <path class="cls-12" d="M713.97,276.5c4.17-1.86,6.84-6.01,6.79-10.58.39-5.93-4.09-11.05-10.02-11.44-5.93-.39-11.05,4.09-11.44,10.02-.03.44-.03.88,0,1.32-.1,4.6,2.58,8.82,6.79,10.69-16.51,2.5-15.76,20.45-15.76,20.45l39.2.2s.83-18.17-15.55-20.65Z"/>
    <path class="cls-12" d="M709.92,320.24c-23.88,0-43.23-19.35-43.23-43.23,0-23.88,19.35-43.23,43.23-43.23,23.88,0,43.23,19.35,43.23,43.23v.05c-.05,23.84-19.39,43.15-43.23,43.18ZM709.92,235.5c-22.93,0-41.52,18.59-41.52,41.52,0,22.93,18.59,41.52,41.52,41.52,22.91,0,41.5-18.56,41.52-41.48-.02-22.92-18.6-41.49-41.52-41.51v-.05Z"/>
    <path class="cls-12" d="M557.08,368.61c2.95-1.32,4.84-4.25,4.82-7.48.27-4.18-2.9-7.79-7.09-8.06-4.18-.27-7.79,2.9-8.06,7.09-.02.3-.02.6,0,.9-.04,3.25,1.85,6.22,4.82,7.55-11.65,1.75-11.12,14.43-11.12,14.43l27.56.12s.68-12.82-10.93-14.55Z"/>
    <path class="cls-12" d="M554.28,399.65c-16.9,0-30.6-13.7-30.6-30.6,0-16.9,13.7-30.6,30.6-30.6,16.9,0,30.6,13.7,30.6,30.6,0,.02,0,.05,0,.07-.05,16.87-13.73,30.52-30.6,30.54ZM554.28,339.83c-16.14,0-29.23,13.09-29.23,29.23,0,16.14,13.09,29.23,29.23,29.23,16.12,0,29.2-13.05,29.23-29.18,0-16.16-13.08-29.26-29.23-29.29h0Z"/>
    <path class="cls-12" d="M87.13,501.68c2.68-1.19,4.41-3.85,4.39-6.79.24-3.81-2.66-7.09-6.46-7.33-3.81-.24-7.09,2.66-7.33,6.46-.02.29-.02.58,0,.87-.06,2.97,1.68,5.68,4.4,6.87-10.62,1.6-10.14,13.13-10.14,13.13l25.1.12s.57-11.74-9.95-13.33Z"/>
    <path class="cls-12" d="M84.59,530.17c-15.51,0-28.1-12.56-28.11-28.08,0-15.51,12.56-28.1,28.08-28.1,15.51,0,28.1,12.56,28.11,28.08v.03c-.02,15.5-12.58,28.06-28.08,28.08ZM84.59,475.71c-14.57,0-26.39,11.8-26.39,26.37,0,14.57,11.8,26.39,26.37,26.39,14.57,0,26.39-11.8,26.39-26.37h0c-.02-14.57-11.81-26.36-26.37-26.39Z"/>
    <path class="cls-12" d="M103.37,480.75c-.22-.14,21.41-33.12,48.29-73.64,26.88-40.53,48.88-73.32,49.05-73.15s-21.42,33.12-48.24,73.66c-26.82,40.54-48.88,73.28-49.11,73.14Z"/>
    <path class="cls-12" d="M582.66,362.07c-.11-.16,20.9-13.58,46.88-29.98,25.99-16.4,47.17-29.54,47.28-29.38s-20.88,13.58-46.9,29.98-47.15,29.54-47.26,29.38Z"/>
    <path class="cls-12" d="M525.05,369.11c0,.19-57.02-9.5-127.15-21.72-70.13-12.22-127.08-22.14-127.06-22.33s56.96,9.5,127.18,21.64,127.07,22.17,127.03,22.42Z"/>
    <path class="cls-12" d="M827.42,341.7c-.11.16-17.65-10.31-39.27-23.39-21.62-13.09-38.99-23.87-38.9-24s17.65,10.31,39.27,23.39c21.62,13.09,38.99,23.84,38.9,24Z"/>
    <path class="cls-12" d="M169.39,299.3c0,.19-16.29.54-36.55.79-20.26.24-36.56.29-36.56.08s16.29-.54,36.55-.79,36.56-.29,36.56-.08Z"/>
    <path class="cls-12" d="M77.8,299.18c1.68-.76,2.74-2.44,2.72-4.28.19-2.39-1.6-4.48-3.99-4.67-2.39-.19-4.48,1.6-4.67,3.99-.02.23-.02.46,0,.69-.04,1.85,1.03,3.55,2.72,4.32-6.67,1-6.35,8.26-6.35,8.26l15.76.07s.38-7.37-6.18-8.36Z"/>
    <path class="cls-12" d="M76.12,317.4c-9.92,0-17.96-8.06-17.95-17.98,0-9.92,8.06-17.96,17.98-17.95,9.92,0,17.95,8.05,17.95,17.96-.01,9.92-8.06,17.96-17.98,17.96ZM76.12,283.18c-9,0-16.29,7.29-16.29,16.29,0,9,7.29,16.29,16.29,16.29s16.29-7.29,16.29-16.29h0c0-9-7.29-16.29-16.29-16.29,0,0,0,0,0,0Z"/>
    <path class="cls-12" d="M495.51,254.43c-15.58,0-28.22-12.62-28.23-28.2,0-15.58,12.62-28.22,28.2-28.23,15.58,0,28.22,12.62,28.23,28.2h0c-.01,15.58-12.63,28.2-28.2,28.23ZM495.51,200.7c-14.1,0-25.53,11.41-25.54,25.51,0,14.1,11.41,25.53,25.51,25.54,14.1,0,25.53-11.41,25.54-25.51v-.03c-.04-14.06-11.45-25.44-25.51-25.46v-.05Z"/>
    <path class="cls-12" d="M538.52,344.24c-.14-.29-.27-.6-.37-.91l-.91-2.72c-.81-2.39-1.94-5.72-3.34-9.79-2.84-8.26-6.91-19.62-11.79-32-4.87-12.38-9.65-23.39-13.21-31.4l-4.25-9.42-1.14-2.57c-.15-.29-.27-.6-.35-.92.18.27.34.56.48.86l1.28,2.51c1.09,2.19,2.61,5.43,4.44,9.34,3.68,7.93,8.53,19.01,13.41,31.4,4.89,12.4,8.89,23.79,11.61,32.1,1.36,4.15,2.43,7.52,3.12,9.86.33,1.13.6,2.02.79,2.72.11.31.19.63.23.95Z"/>
    <path class="cls-8" d="M34.5,696.61v47.59h-7.94v5.17h7.94v31.85h148.52v-28.99h-11v-6.31h11v-9.5h4.89v-4.3h-5.8v-35.5H34.5Z"/>
    <polygon class="cls-3" points="143.58 696.75 143.58 780.68 183.03 780.68 183.03 751.71 172.03 751.71 172.03 745.93 183.03 746.12 183.03 736.65 188.02 736.65 187.91 731.76 182.12 731.63 182.12 696.61 143.58 696.75"/>
    <path class="cls-3" d="M146.39,748.68c0,.3-26.87.53-60.01.53s-60.03-.23-60.03-.53,26.87-.53,60.03-.53,60.01.24,60.01.53Z"/>
    <path class="cls-3" d="M146.39,743.85c0,.3-26.87.53-60.01.53s-60.03-.23-60.03-.53,26.87-.53,60.03-.53,60.01.24,60.01.53Z"/>
    <path class="cls-3" d="M154.11,730.84c0,.3-26.87.53-60.01.53s-60.04-.23-60.04-.53,26.87-.57,60.04-.57,60.01.29,60.01.57Z"/>
    <path class="cls-3" d="M154.85,766.29c0,.3-26.88.53-60.03.53s-60.03-.23-60.03-.53,26.87-.53,60.03-.53,60.03.24,60.03.53Z"/>
    <path class="cls-8" d="M51.05,612.84v47.59h-7.96v5.16h7.96v31.85h148.52v-28.97h-11.01v-6.31h11.01v-9.5h4.89v-4.3h-5.82v-35.5H51.05Z"/>
    <polygon class="cls-3" points="160.13 612.98 160.13 696.91 199.58 696.91 199.58 667.94 188.57 667.94 188.57 662.15 199.58 662.34 199.58 652.88 204.56 652.88 204.46 647.99 198.65 647.84 198.65 612.84 160.13 612.98"/>
    <path class="cls-3" d="M162.95,664.91c0,.3-26.88.53-60.03.53s-60.03-.23-60.03-.53,26.87-.53,60.03-.53,60.03.24,60.03.53Z"/>
    <path class="cls-3" d="M162.95,660.08c0,.3-26.88.53-60.03.53s-60.03-.23-60.03-.53,26.87-.53,60.03-.53,60.03.24,60.03.53Z"/>
    <path class="cls-3" d="M170.66,647.07c0,.29-26.88.53-60.03.53s-59.98-.24-59.98-.53,26.87-.53,60.03-.53,59.98.23,59.98.53Z"/>
    <path class="cls-3" d="M171.39,682.52c0,.29-26.87.53-60.01.53s-60.04-.24-60.04-.53,26.87-.53,60.04-.53,60.01.24,60.01.53Z"/>
    <path class="cls-12" d="M927.9,613.74c8.72-4.51,19.01-5.09,28.66-3.49,5.2.86,10.62,2.42,14.15,6.33,3.53,3.91,4.21,10.77.15,14.13-2.42,2-5.78,2.29-8.92,2.25-7.58-.08-15.98-1.36-22.04,3.14-3.46,2.61-5.76,6.92-9.88,8.21-4.13,1.29-8.59-1.14-10.74-4.78-1.97-3.8-2.41-8.2-1.22-12.31,1-5.78,4.64-10.77,9.84-13.48Z"/>
    <path class="cls-12" d="M907.93,575.18c5.32,7.62,15.68,5.09,20.49.45,4.81-4.64,6.79-11.39,8.69-17.81,4.22-14.68,8.47-30.06,5.34-45.01-.76-4.52-2.75-8.75-5.74-12.22-3.15-3.31-7.97-5.28-12.38-4.07-5.23,1.36-8.47,6.49-10.86,11.36-6.91,14.37-10.53,30.11-10.6,46.05,0,7.41.84,15.19,5.04,21.32"/>
    <path class="cls-12" d="M893.3,586.09c5.78-6.86,6.88-16.88,4.3-25.48s-8.39-15.93-15.1-21.9c-7.89-7.03-17.08-12.45-27.05-15.95-3.87-1.58-8.04-2.29-12.22-2.08-4.21.25-8.03,2.56-10.21,6.18-2.84,5.43-.11,12.02,2.84,17.38,5.2,9.47,11.14,18.51,17.76,27.05,5.32,6.87,11.42,13.58,19.54,16.74,8.12,3.16,16.54,2.72,20.83-2.89"/>
    <path class="cls-3" d="M907.57,690.03c.28-1.14.44-2.29.49-3.46.24-2.53.55-5.67.91-9.44.47-4.65,1.18-9.27,2.13-13.85,1.24-5.56,2.92-11,5.02-16.29,2.07-5.3,4.89-10.28,8.35-14.8,2.83-3.67,6.43-6.66,10.55-8.77,2.8-1.37,5.8-2.28,8.89-2.72,1.16-.05,2.32-.22,3.45-.5-1.17-.13-2.35-.13-3.52,0-3.2.24-6.34,1.06-9.26,2.4-4.35,2.05-8.16,5.08-11.13,8.85-3.61,4.58-6.52,9.66-8.65,15.08-2.15,5.38-3.82,10.94-5,16.62-.9,4.63-1.51,9.32-1.85,14.03-.3,4.01-.41,7.25-.46,9.5-.09,1.11-.07,2.23.07,3.34Z"/>
    <path class="cls-3" d="M908.22,682.75c.1-.53.13-1.08.1-1.62v-4.59c0-3.98,0-9.75.2-16.86.35-14.24,1.57-29.56,3.95-51.16,2.24-20.37,5.24-43.96,8.42-59.33.69-3.49,1.36-6.64,2.02-9.4.67-2.76,1.14-5.15,1.64-7.06s.79-3.3,1.07-4.47c.15-.52.25-1.05.29-1.59-.25.47-.44.98-.56,1.51-.35,1.15-.8,2.61-1.36,4.4s-1.21,4.28-1.9,7.02-1.47,5.89-2.21,9.38c-3.94,18.17-6.89,36.53-8.85,55.02-2.38,21.64-3.44,41.36-3.53,55.67-.1,7.13,0,12.91.24,16.89.11,1.87.2,3.38.29,4.59,0,.54.06,1.08.19,1.6Z"/>
    <path class="cls-3" d="M908.31,644.73c.12-1.6.12-3.21,0-4.81-.18-3.08-.61-7.54-1.48-12.98-1.04-6.41-2.45-12.76-4.22-19.01-2.06-7.66-4.71-15.14-7.92-22.39-6.56-15.57-15.48-28.31-23.24-36.2-1.7-1.81-3.51-3.51-5.43-5.09-.83-.71-1.57-1.36-2.34-1.97l-2.12-1.47c-1.29-.96-2.65-1.83-4.07-2.58-.23.31,5.72,3.82,13.22,11.8,9.55,10.65,17.22,22.84,22.67,36.06,3.14,7.22,5.8,14.63,7.96,22.2,2.08,6.95,3.45,13.35,4.49,18.74s1.56,9.82,1.91,12.87c.06,1.62.25,3.23.56,4.82Z"/>
    <polygon class="cls-3" points="871.57 711.81 875.37 764 942.42 764 946.23 711.81 871.57 711.81"/>
    <rect class="cls-3" x="865.1" y="691.24" width="89.15" height="20.57"/>
    <polygon class="cls-12" points="865.1 762 865.1 767.7 869.28 767.7 952.76 767.7 952.76 762 865.1 762"/>
    <polygon class="cls-3" points="873.39 777.74 869.28 767.7 949.57 767.7 944.78 777.74 873.39 777.74"/>
    <path class="cls-8" d="M944.98,728.91c-.08.18-.18.34-.31.49-.26.35-.6.79-1,1.36l-3.9,4.94-.18.22-.16-.23c-2.46-3.39-5.74-7.93-9.6-13.28h.62l-9.5,13.39-.3.41-.34-.39-11.2-13.32h.65l-.62.77-10.01,12.56-.34.42-.31-.43c-3.39-4.82-6.57-9.31-9.5-13.37h.56l-11.61,13.27-.2.23-.22-.23c-1.53-2.57-2.72-4.63-3.64-6.12l-.94-1.63c-.12-.18-.21-.38-.29-.58.14.17.28.34.39.53l1.03,1.56,3.83,6.01h-.37l11.46-13.43.29-.34.26.37,9.5,13.31h-.64l9.99-12.57.62-.77.31-.41.33.39,11.17,13.36h-.62l9.5-13.32.27-.38.29.38c3.77,5.43,6.98,9.99,9.38,13.41h-.34l4.07-4.87,1.1-1.26c.15-.16.32-.3.5-.42Z"/>
    <path class="cls-8" d="M947.17,711.47c0,.23-16.81.41-37.53.41s-37.51-.18-37.51-.41,16.8-.42,37.51-.42,37.53.22,37.53.42Z"/>
    <path class="cls-8" d="M950.55,768.29c0,.23-18.26.42-40.73.42s-40.73-.19-40.73-.42,18.26-.42,40.73-.42,40.73.16,40.73.42Z"/>
  </g>
  <path class="cls-15" d="M595.33,418.41c-2.41,1.41-5.26,1.89-8,1.36-2.75-.53-5.2-2.05-6.91-4.26-1.71-2.21-2.56-4.97-2.39-7.76.17-2.79,1.36-5.42,3.33-7.41-2.37-.87-4.41-2.48-5.81-4.57-1.41-2.1-2.11-4.59-2.02-7.12.09-2.53.98-4.96,2.54-6.95,1.56-1.99,3.7-3.44,6.13-4.14-1-2.29-1.39-4.79-1.13-7.27.26-2.48,1.17-4.85,2.63-6.88,1.46-2.02,3.42-3.63,5.69-4.67,2.27-1.03,4.77-1.46,7.26-1.23,1.55-3.25,4.15-5.89,7.37-7.5,3.22-1.61,6.89-2.1,10.42-1.38,1.99-1.48,4.41-2.27,6.89-2.26,2.48.01,4.89.83,6.87,2.33,1.98,1.5,3.42,3.6,4.1,5.98.68,2.38.57,4.93-.31,7.24"/>
  <g id="freepik--character-2--inject-14">
    <path class="cls-14" d="M366.61,365.17c.91,1.8,2.21,3.37,3.81,4.59-1.72,1.11-3.79,1.52-5.8,1.15,2.49,13.74,15.54,23.62,29.13,26.77,13.59,3.15,27.82.93,41.6-1.29l38.83-1.25c3.37-.01,5.59-3.63,6.29-6.94.7-3.31.69-6.93,2.52-9.76,2.58-3.87,8-5,10.64-8.82,2.99-4.35,1.27-10.35-1.24-14.99-2.51-4.64-5.77-9.26-5.72-14.55.07-4.85,3.04-9.66,1.69-14.31-1.67-5.74-8.98-8.09-11.36-13.56-1.1-2.65-.99-5.73-2.13-8.4-1.92-4.54-7.13-6.79-12.02-7.38-4.89-.58-9.88.1-14.75-.66-6.68-1.03-12.98-4.72-19.74-4.27-7.44.5-13.1,5.7-18.99,10.64l-.75-3.38c-.81-3.62-1.77-7.52-4.58-9.95-1.47-1.2,4.21,15.05,2.32,14.9-1.24.9.3.38-1.34,1.33-1.61,1-.14-.9-.97.8-.84,1.7.84-.72-.73.58-1.41,1.17.26-.2-1.13.86-.26,1.12-2.02-.37-.31.44-2.34.03,2.15.93,0,0-1.48.91-3.04,1.68-4.67,2.29-2.85,1.05-5.94,1.51-8.55,3.08-5.57,3.29-7.1,11.83-3.04,16.9-2.73.29-5.28,1.46-7.29,3.32-2.01,1.86-3.37,4.32-3.87,7.02-.53,2.9.05,5.95.29,8.95.24,3,.07,6.22-1.71,8.64-1.78,2.42-5.62,3.48-7.85,1.46.03,2.01.52,3.99,1.43,5.79Z"/>
    <path class="cls-11" d="M577.45,647.11s14.35-8.93,19.75-8.34l31.05,7.24s2.72,2.91-2.72,5.58-12.22-1.17-12.22-1.17l-7.55,1.06,5.21,4.36,20.6,6.34s14.94,4.21,13.12,6.41-6.3,2.47-12.74.65l-14.61-4.07s-2.55-.56,1.56,2.29,22.19,7.29,24.57,8.47,8.88,2.17,8.15,5.88-8.85.72-8.85.72l-26.75-6.2s10.56,4.56,12.36,5.43,7.64,2.46,10.77,4.07c3.12,1.62,4.62,3.63,4.26,5.27-.25,1.63-1.73,2.79-3.38,2.63l-22.63-7.78s-10.26-4.07-10.96-3.94,4.01,4.52,4.01,4.52l7.22,3.71s10.43,3.49,10.45,6.38-2.15,2.78-2.15,2.78l-19.01-6.56-21.22-10.75-15.9-9.75s2.86-11.21,2.32-11.7,5.27-13.54,5.27-13.54Z"/>
    <path class="cls-4" d="M584.94,668.18c0-.22,2-.75,5.12-1.87s7.52-3.14,9.8-7.58c1-1.8,1.36-3.89,1.03-5.92l-.14-.68.75-.1c3.3-.43,6.37-1.15,8.45-1.43s3.41-.37,3.41-.19c-1.05.43-2.13.75-3.24.96-2.1.5-4.87,1.36-8.57,1.94l.61-.77c.45,2.32.07,4.72-1.07,6.79-1.19,2.25-2.97,4.13-5.16,5.43-1.73,1.05-3.6,1.86-5.55,2.4-3.3.98-5.39,1.17-5.43,1Z"/>
    <polyline class="cls-14" points="293.14 784.01 290.63 690.3 454.97 693.48 477.33 780.48 293.14 784.01"/>
    <path class="cls-10" d="M374.93,428.43l-12.36,11.7s-46.16,11.47-54.31,19.55-12.22,132.54-11.74,141.2c.48,8.66,0,83.41,0,83.41,0,0-2.72,28.51,0,30.14,2.72,1.63,54.53,2.31,80.36,2.85s80.62,2.05,83.85-.64c3.23-2.69-8.02-58.49-8.02-58.49l-4.48-25.73,1.36-45,9.5-61.9,7.02-64.1s-18.83-11.3-27.98-13.46c-9.15-2.16-63.2-19.55-63.2-19.55Z"/>
    <path class="cls-10" d="M511.18,608.14l-25.1-105.41c-1.99-8.37-4.88-16.51-8.64-24.25-3.9-8-8.72-16.71-11.36-17.03-15.57-1.79-23.68,45.76-23.68,45.76v60.27l14.69,65.28c2.25,10.02,9.65,18.09,19.44,21.19l99.64,31.72,11.55-49.46-76.55-28.06Z"/>
    <path class="cls-5" d="M333.18,450.27s-37.87,5.35-50.1,34.24c0,0-37.84,147.29-31.51,166.69,6.33,19.4,55.25,94.25,55.25,94.25l42.89-22.63s-41.91-86.99-41.91-96.59,25.39-175.96,25.39-175.96Z"/>
    <path class="cls-14" d="M349.7,722.82c-.1-.15-.18-.31-.24-.48-.16-.34-.37-.81-.64-1.36-.56-1.29-1.36-3.11-2.39-5.43l-8.66-20.05c-7.25-16.99-17.26-40.39-28.31-66.24-.52-1.19-1.02-2.38-1.48-3.48v-.08h0c.14-1.71.41-3.42.8-5.09.35-1.66.72-3.3,1.11-4.9.76-3.23,1.57-6.39,2.38-9.5,1.62-6.2,3.19-12.22,4.67-17.88,3.01-11.36,5.69-21.57,7.86-30.16,2.17-8.58,3.83-15.53,4.98-20.37.54-2.38.98-4.22,1.28-5.53.15-.61.27-1.07.35-1.44.03-.16.08-.32.15-.48-.02.16-.05.33-.08.49-.07.37-.16.84-.29,1.45-.27,1.36-.65,3.18-1.15,5.57-1.06,4.82-2.63,11.79-4.77,20.37-2.13,8.58-4.74,18.82-7.71,30.2-1.47,5.7-3.03,11.68-4.63,17.88-.79,3.11-1.6,6.27-2.36,9.5-.85,3.23-1.48,6.51-1.89,9.82v-.14c.48,1.1.98,2.29,1.48,3.48l28.13,66.34,8.34,20.03c.96,2.36,1.72,4.2,2.27,5.43.24.6.43,1.07.57,1.43.18.45.23.62.23.62Z"/>
    <path class="cls-14" d="M458.88,514.39c.04.29.04.58,0,.87,0,.62-.04,1.44-.12,2.44-.15,2.21-.34,5.25-.58,8.99-.54,7.59-1.19,18.07-2.4,29.63-1.21,11.55-2.92,21.94-4.22,29.44-.65,3.75-1.21,6.79-1.62,8.87-.19.98-.35,1.78-.49,2.39-.04.29-.11.57-.2.84-.01-.29.01-.57.07-.86.1-.64.2-1.44.35-2.43.34-2.19.81-5.2,1.36-8.89,1.17-7.51,2.8-17.89,4.01-29.42,1.21-11.53,1.94-22.02,2.61-29.6.34-3.72.61-6.79.81-8.97.1-.99.19-1.81.26-2.43.03-.29.09-.58.18-.86Z"/>
    <path class="cls-11" d="M312.46,742.49l4.25,7.82s21.06-8.02,31.08-21.55l-2.72-2.72-32.61,16.44Z"/>
    <path class="cls-5" d="M354,721.11c-.35.7-.76,1.36-1.21,2-.41.64-.91,1.36-1.56,2.25s-1.36,1.85-2.23,2.86c-.87,1.02-1.81,2.17-2.91,3.3s-2.29,2.34-3.58,3.56c-2.85,2.61-5.9,5-9.11,7.14-3.23,2.12-6.59,4.02-10.07,5.69-2.85,1.34-5.77,2.52-8.76,3.53-1.26.46-2.43.79-3.46,1.1s-1.9.54-2.63.71c-.75.22-1.51.39-2.28.49.71-.31,1.45-.56,2.2-.75.72-.22,1.6-.48,2.61-.83s2.16-.71,3.41-1.19c2.51-.9,5.43-2.13,8.64-3.65,3.44-1.69,6.77-3.58,9.98-5.68,3.18-2.13,6.2-4.48,9.06-7.03,1.29-1.19,2.53-2.34,3.6-3.49,1.07-1.15,2.06-2.21,2.95-3.22s1.62-1.97,2.28-2.78,1.22-1.56,1.66-2.17c.43-.65.91-1.26,1.44-1.83Z"/>
    <path class="cls-14" d="M332.61,502.85c-.16,0,.41-2.5.29-6.5-.03-1.09-.12-2.18-.29-3.26-.16-1.24-.39-2.48-.69-3.69-1.39-5.6-4.11-10.77-7.94-15.08-.86-.93-1.76-1.81-2.72-2.65-.8-.75-1.65-1.44-2.54-2.08-3.23-2.36-5.59-3.29-5.53-3.42.57.14,1.13.35,1.64.64.64.25,1.26.57,1.85.94.81.43,1.59.91,2.34,1.44.92.62,1.8,1.31,2.63,2.05.96.83,1.87,1.71,2.72,2.65,1.96,2.18,3.65,4.58,5.04,7.17,1.34,2.58,2.37,5.32,3.07,8.15.29,1.24.5,2.5.64,3.76.14,1.1.2,2.21.2,3.33.02.91-.02,1.81-.12,2.72-.04.69-.13,1.37-.27,2.05-.05.61-.16,1.21-.31,1.81Z"/>
    <path class="cls-16" d="M326.9,543.42c0,.19-12.55-2.72-27.9-6.37-15.36-3.65-27.79-6.79-27.75-7.03s12.55,2.65,27.91,6.35c15.37,3.71,27.78,6.86,27.74,7.05Z"/>
    <path class="cls-16" d="M456.19,535.63c0,.2-28.13.84-62.82,1.43s-62.84.92-62.85.72,28.13-.83,62.84-1.43c34.7-.6,62.84-.91,62.84-.72Z"/>
    <path class="cls-16" d="M496.43,542.69c-.5.17-1.01.28-1.53.33-.98.18-2.42.38-4.2.62-3.54.49-8.46,1.07-13.9,1.62s-10.39.91-13.96,1.13c-1.79.11-3.24.18-4.25.2-.52.07-1.04.07-1.56,0,.51-.13,1.03-.21,1.55-.24l4.22-.43,13.93-1.36,13.92-1.36,4.22-.41c.51-.1,1.04-.13,1.56-.1Z"/>
    <path class="cls-16" d="M308.97,620.04c0,.19-12.1-1.36-26.94-3.52s-26.87-4.07-26.84-4.21,12.08,1.36,26.94,3.52,26.87,4.02,26.84,4.21Z"/>
    <path class="cls-16" d="M446.05,631.02c0,.19-29.14,2.36-65.17,4.85-36.03,2.48-65.17,4.33-65.17,4.07s29.14-2.36,65.17-4.83c36.03-2.47,65.16-4.28,65.17-4.09Z"/>
    <path class="cls-16" d="M508.5,609.84c-.51.54-1.06,1.03-1.66,1.48l-4.67,3.86c-3.94,3.24-9.37,7.75-15.27,12.82-5.91,5.06-11.2,9.76-15,13.17l-4.52,4.07c-.53.5-1.1.96-1.71,1.36.47-.58.98-1.12,1.53-1.62,1-1,2.5-2.44,4.36-4.2,3.72-3.49,8.96-8.24,14.94-13.32s11.4-9.5,15.42-12.68c2.02-1.57,3.67-2.84,4.81-3.68.56-.47,1.15-.89,1.78-1.26Z"/>
    <path class="cls-16" d="M338.19,705.36c-.55.32-1.13.59-1.72.8l-4.77,1.98-15.8,6.48-15.76,6.61-4.78,1.98c-.58.27-1.18.49-1.79.65.53-.35,1.1-.65,1.68-.9,1.1-.54,2.72-1.29,4.7-2.2,3.98-1.82,9.5-4.24,15.68-6.79,6.18-2.55,11.8-4.75,15.9-6.29,2.05-.77,3.71-1.36,4.87-1.78.58-.25,1.18-.43,1.79-.56Z"/>
    <path class="cls-16" d="M565.46,630.27c-.02.66-.1,1.31-.26,1.96-.22,1.25-.58,3.04-1.07,5.25-.96,4.43-2.53,10.48-4.63,17.07s-4.37,12.44-6.15,16.59c-.9,2.09-1.64,3.76-2.19,4.9-.25.61-.56,1.19-.92,1.74.17-.63.39-1.25.67-1.85l1.98-4.98c1.66-4.2,3.83-10.05,5.93-16.62s3.73-12.59,4.82-16.97c.52-2.09.95-3.83,1.29-5.19.12-.65.3-1.28.53-1.9Z"/>
    <path class="cls-16" d="M374.33,454.04c-.71.2-1.44.35-2.17.43l-5.95,1.02c-5.02.88-11.95,2.23-19.51,4.07-7.56,1.85-14.32,3.79-19.2,5.31l-5.76,1.81c-.7.26-1.42.46-2.15.61.66-.35,1.34-.64,2.05-.87,1.36-.52,3.27-1.21,5.7-2.02,4.83-1.64,11.6-3.69,19.18-5.53s14.53-3.1,19.59-3.86c2.53-.38,4.58-.65,5.99-.8.73-.12,1.47-.18,2.21-.18Z"/>
    <path class="cls-11" d="M413,490.1c-15.65-4.52-45.12-35.17-40.94-50.91l25.16-94.74c5.95-25.67,25.8-43.61,51.34-36.96l2.32.76c23.34,7.57,36.96,31.79,31.3,55.67-5.28,22.23-11.39,46.69-15.3,58.26-8.15,23.95-33.36,19.89-33.36,19.89,0,0-1.66,5.62-3.64,12.78-4.45,16.06-13.84,31.81-16.88,35.3v-.04Z"/>
    <path class="cls-4" d="M433.53,442.09s-15.45-4.07-28.32-19.42c0,0,1.67,20.53,26.37,26.14l1.96-6.72Z"/>
    <path class="cls-14" d="M467.32,383.62c-.59,1.87-2.56,2.93-4.44,2.39-1.85-.44-3-2.3-2.56-4.15,0-.03.01-.06.02-.09.59-1.86,2.55-2.93,4.44-2.4,1.86.46,3.01,2.34,2.55,4.2,0,.02,0,.03-.01.05Z"/>
    <path class="cls-14" d="M473.62,372.89c-.57.31-2.55-2.46-6.25-3.65s-7.01-.22-7.26-.8c-.14-.26.57-.92,2.02-1.36,1.96-.6,4.05-.57,5.99.08,1.93.62,3.6,1.83,4.79,3.46.86,1.21.98,2.13.71,2.27Z"/>
    <path class="cls-14" d="M433.53,373.84c-.59,1.87-2.56,2.93-4.44,2.39-1.85-.44-3-2.3-2.56-4.15,0-.03.01-.06.02-.09.59-1.86,2.55-2.93,4.44-2.4,1.86.45,3,2.32,2.56,4.18,0,.02-.01.05-.02.07Z"/>
    <path class="cls-14" d="M437.11,362c-.57.31-2.55-2.46-6.25-3.65-3.69-1.19-7.01-.22-7.26-.8-.12-.27.56-.94,2.02-1.36,1.96-.59,4.06-.55,6,.1,1.93.62,3.6,1.83,4.79,3.46.84,1.22.96,2.12.69,2.25Z"/>
    <path class="cls-14" d="M441.16,394.69c0-.22,2.48.14,6.35.87.98.2,1.93.31,2.29-.29.4-.95.5-1.99.29-3-.15-2.58-.3-5.27-.46-8.15-.56-11.49-.64-20.81-.18-20.83s1.29,9.27,1.85,20.76c.13,2.82.24,5.54.34,8.15.21,1.33-.04,2.69-.72,3.86-.49.58-1.23.91-2,.88-.57-.03-1.14-.13-1.68-.3-3.8-1-6.14-1.74-6.08-1.96Z"/>
    <path class="cls-14" d="M441.27,348.08c-.81.77-4.07-1.36-8.4-2.89s-8.15-2.01-8.32-3.12c0-.53.96-1.14,2.72-1.36,4.72-.51,9.42,1.19,12.74,4.59,1.25,1.29,1.68,2.4,1.28,2.78Z"/>
    <path class="cls-14" d="M475.62,363.97c-1.03.6-3.79-1.21-7.41-2.36-3.63-1.15-6.88-1.51-7.32-2.61-.18-.52.56-1.21,2.16-1.6,2.16-.42,4.39-.25,6.46.49,2.1.65,3.98,1.87,5.43,3.52.92,1.26,1.07,2.28.68,2.57Z"/>
    <path class="cls-11" d="M393.41,362.88c-.35-.31-14.94-10.24-19.74,6.37-4.81,16.61,12.86,18.02,13.02,17.54s6.72-23.91,6.72-23.91Z"/>
    <path class="cls-4" d="M383.43,379.03c0-.07-.34.12-.9.2-.77.1-1.55-.11-2.17-.58-1.57-1.14-2.24-4.36-1.45-7.37.37-1.44,1.05-2.78,2.01-3.91.61-.96,1.67-1.56,2.81-1.59.74.02,1.36.55,1.48,1.28.1.53-.11.84,0,.9s.43-.18.5-.91c.03-.44-.1-.87-.35-1.22-.36-.48-.89-.8-1.48-.9-1.47-.12-2.89.53-3.77,1.71-1.12,1.23-1.92,2.72-2.34,4.33-.87,3.38,0,7.01,2.15,8.4.81.5,1.81.62,2.72.33.67-.27.86-.61.8-.67Z"/>
    <path class="cls-14" d="M430.32,393.83c-.24,0-.62.84-.71,2.38-.08,2.03.49,4.04,1.63,5.73,1.09,1.63,2.47,3.04,4.07,4.17,1.19.86,2.04,1.25,2.2,1.06s-.38-.94-1.36-2.01c-1.24-1.32-2.38-2.72-3.41-4.21-2.29-3.41-1.86-7.07-2.43-7.11Z"/>
    <path class="cls-9" d="M393.07,365.16v1.06s0-.38,0-1.06Z"/>
    <path class="cls-14" d="M438.16,638.75s-.16.16-.52.42l-1.55,1.11c-1.36.95-3.34,2.28-5.81,3.9-4.93,3.24-11.85,7.59-19.65,12.12s-15,8.38-20.27,11.07c-2.62,1.36-4.77,2.4-6.26,3.11l-1.72.8c-.41.18-.61.26-.62.23.17-.14.36-.26.56-.35l1.67-.92,6.15-3.31c5.2-2.72,12.36-6.71,20.15-11.23s14.73-8.8,19.73-11.93l5.93-3.71,1.62-.99c.18-.13.38-.24.6-.31Z"/>
    <path class="cls-14" d="M511.12,607.98c-6.8,3.91-12.59,9.36-16.9,15.91.4-1.09.95-2.12,1.64-3.05,1.56-2.34,3.38-4.49,5.43-6.41,2.05-1.91,4.3-3.59,6.72-5,.96-.63,2.01-1.12,3.11-1.45Z"/>
    <path class="cls-14" d="M392.23,377.64c5.17-8.65,9.35-17.85,12.48-27.43,3.13-9.88,4.16-20.68,1.09-30.58-.34-1.04,4.37-9.11,3.35-9.45-1.45-.49-7.98,7.81-8.81,9.08-5.55,8.36-8.14,18.38-8.98,28.36-.84,9.98-.02,20.03.86,30"/>
    <path class="cls-14" d="M475.19,322.73s-2.09,2.54-8.95,5.53c-4.77,2.08-19.02-6.42-27.27-11.84-2.56-1.68-5.52-2.65-8.58-2.81-3.06-.16-6.1.5-8.82,1.91-.57.28-1.11.62-1.61,1-2.23,1.8-3.07,4.86-3.09,7.73-.03,2.87.63,5.69.75,8.55.24,5.27-1.23,10.43-2.7,15.49-2.02,7.13-4.23,14.53-9.28,19.95-2.37,2.53-6.68,4.59-8.85.76-.84-1.62-1.01-3.5-.48-5.25,1.38-4.83-2.35-8.11-3.75-12.2-1.11-3.31-.63-7,.14-10.34,2.39-11.19,7.16-22.02,14.91-30.46,7.75-8.44,17.92-11.59,29.36-12.02,9.49-.35,23.54,5.97,32.12,12.64,5.67,4.45,11.4,14.75,8.46,15.55l-2.36-4.19Z"/>
    <path class="cls-14" d="M411.92,307.02c6.69-.19,13.28,1.62,18.93,5.2,5.26,3.36,9.51,8.14,14.75,11.53,6.25,4.02,10.47,6.02,17.87,5.38l.36-.12c5.02-.75,8.48-6.1,8.29-11.16-.18-5.06-3.24-9.66-7.07-13-7.18-6.28-17.15-8.86-26.71-8.08-9.53.8-18.58,4.77-26.42,10.26Z"/>
    <path class="cls-5" d="M408.53,302.61c1.79-.85,3.68-1.45,5.63-1.78,2.42-.45,4.91-.33,7.27.36,4.21,1.44,7.86,4.16,10.45,7.79.78,1.07,1.43,2.23,1.95,3.45.35.87.6,1.32.42,1.4-.18.08-.95-1.84-2.98-4.38-2.62-3.31-6.13-5.81-10.11-7.21-2.2-.64-4.52-.77-6.79-.39-1.88.27-3.72.77-5.48,1.48-3.02,1.21-4.67,2.45-4.78,2.29-.11-.08,1.41-1.58,4.41-3.02Z"/>
    <path class="cls-5" d="M406.11,326.43c4.3,8.02,10.63,12.24,10.37,12.51-1.49-.68-2.84-1.62-4-2.77-5.96-5.29-9.89-12.48-11.12-20.35-.42-3-.28-4.9-.16-4.87.4-.06.61,7.46,4.91,15.48Z"/>
    <path class="cls-5" d="M393.84,319.04c.2,5.52,1.67,10.92,4.28,15.79,2.61,4.87,6.3,9.08,10.78,12.31,3.43,2.47,5.86,3.5,5.82,3.69-.6-.12-1.18-.33-1.72-.63-1.56-.7-3.06-1.52-4.48-2.47-4.74-3.15-8.63-7.43-11.31-12.45-2.68-5.02-4.08-10.63-4.06-16.32,0-1.71.14-3.41.43-5.1.06-.63.23-1.24.49-1.81.22.05-.37,2.64-.22,6.99Z"/>
  </g>
  <g id="freepik--character-3--inject-14">
    <path class="cls-14" d="M509.74,590.34s-48.24,5.72-66.08,19.97c-2.83,2.3-5.46,4.86-7.83,7.63-11.18,13.03-17.96,29.26-19.4,46.37l-6.46,70.94.52,11.72c.81,18.29,15.85,32.73,34.16,32.79l199.34,1.36s26.18-29.22,19.32-74.54c-1.62-10.66-4.2-47.21-14.3-69.71-5.34-11.89-13.51-26.58-35.08-32.31l-50.36-14.24-53.82.03Z"/>
    <path class="cls-5" d="M464.52,648.05c-.19-.51-.33-1.05-.41-1.59-.22-1.02-.56-2.5-1-4.32-1.19-4.73-2.75-9.36-4.67-13.85-1.94-4.47-4.24-8.78-6.87-12.88-1.02-1.59-1.86-2.84-2.47-3.71-.33-.43-.62-.88-.87-1.36.41.36.78.77,1.1,1.22.67.81,1.57,2.04,2.65,3.58,2.78,4.06,5.16,8.38,7.11,12.9,1.94,4.5,3.45,9.18,4.51,13.97.39,1.85.65,3.35.79,4.4.11.54.16,1.08.14,1.63Z"/>
    <path class="cls-5" d="M472.9,728.91c-.2,0-2.34-15.48-4.77-34.64-2.43-19.16-4.25-34.7-4.07-34.72s2.32,15.48,4.77,34.64c2.44,19.16,4.26,34.72,4.07,34.72Z"/>
    <path class="cls-5" d="M464.08,654.14c-1.19-.34-2.32-.82-3.39-1.44-5.31-2.69-10.19-6.13-14.51-10.22-.95-.79-1.79-1.71-2.5-2.72.99.72,1.94,1.5,2.82,2.35,1.72,1.47,4.14,3.44,6.97,5.43s5.43,3.6,7.45,4.71c1.1.55,2.16,1.18,3.16,1.89Z"/>
    <path class="cls-5" d="M593.25,667.27c-.07-.81-.07-1.62,0-2.43.01-.95.08-1.9.19-2.84.12-1.1.2-2.36.48-3.73.22-1.51.53-3,.91-4.48.34-1.62.88-3.29,1.36-5.05,2.55-7.64,6.54-14.71,11.74-20.85,1.24-1.36,2.38-2.72,3.57-3.84,1.07-1.09,2.19-2.12,3.37-3.1,1.03-.95,2.06-1.67,2.95-2.35.74-.59,1.52-1.13,2.32-1.63.66-.47,1.36-.88,2.08-1.25-.6.54-1.24,1.03-1.91,1.47-.64.45-1.36,1-2.24,1.72s-1.86,1.45-2.86,2.4-2.16,1.96-3.27,3.14-2.28,2.48-3.49,3.86c-5.09,6.13-9.03,13.12-11.62,20.65-.56,1.74-1.13,3.38-1.48,4.97-.35,1.59-.73,3.07-.99,4.43s-.41,2.61-.57,3.71-.26,2.02-.31,2.81c-.01.8-.08,1.61-.2,2.4Z"/>
    <path class="cls-5" d="M573.37,748.75c-.19-.82-.24-1.66-.15-2.5.19-2.41,1.51-4.58,3.57-5.84h0c5.76-6.07,12.7-10.91,20.39-14.22l-.2.29c.27-2.55.56-5.2.76-7.93.77-9.94.91-19.91.41-29.87-.18-3.82-.45-6.91-.6-9.04-.08-1-.15-1.82-.2-2.46-.03-.29-.03-.58,0-.87.09.28.14.56.16.86.1.62.2,1.44.34,2.44.23,2.13.58,5.21.83,9.04.65,9.98.58,19.99-.2,29.97-.2,2.72-.49,5.43-.77,7.96v.2l-.19.08c-7.64,3.25-14.56,7.97-20.37,13.89h0c-1.11.65-2.02,1.59-2.65,2.72-.47.84-.77,1.76-.88,2.72-.34,1.74-.15,2.55-.24,2.57Z"/>
    <path class="cls-5" d="M630.26,743.01c-.12.07-1.15-1.89-3.42-4.6-2.95-3.53-6.57-6.45-10.64-8.58-2.24-1.16-4.6-2.07-7.03-2.72-2-.5-4.05-.77-6.11-.8-3.53,0-5.72.41-5.73.27.49-.18.99-.31,1.51-.37,1.4-.24,2.81-.38,4.22-.41,2.11-.04,4.21.18,6.26.68,2.5.61,4.92,1.53,7.21,2.72,4.16,2.17,7.81,5.2,10.71,8.89.87,1.11,1.66,2.29,2.35,3.52.28.44.51.91.68,1.4Z"/>
    <path class="cls-5" d="M629.28,724.45c0,.12-1.66-.64-4.41-1.36-1.61-.4-3.24-.68-4.89-.84-2.03-.19-4.06-.24-6.1-.16-3.69.19-7.36.75-10.94,1.67-2.72.72-4.41,1.36-4.45,1.21.34-.23.72-.42,1.11-.54,1.05-.44,2.12-.82,3.2-1.14,3.59-1.08,7.3-1.72,11.05-1.9,2.07-.08,4.14,0,6.19.22,1.68.2,3.33.53,4.96,1,.62.18,1.23.39,1.83.62.47.16.92.35,1.36.57.39.16.76.38,1.09.65Z"/>
    <path class="cls-14" d="M591.5,509.91c-3.98-16.89-11.08-34.15-25.09-44.41-12.46-9.14-30.66-12.61-46.08-11.47-7.59.57-16.06,4.36-22.57,8.32-8.91,5.43-12.42,15.98-16.5,25.59-8.15,19.27-6.2,44.91,0,51.87l80.64,39.29c13.81-7.77,28.76-18.22,31.97-33.71,2.16-10.56.1-24.98-2.38-35.48Z"/>
    <path class="cls-11" d="M560.96,479.95l-50.37-13.07c-16.16-1.82-27.03,18.02-28.17,34.23-1.25,18-2.08,40.05,0,53.51,4.07,27.06,24.82,33.48,24.82,33.48,0,0,0,23.52.15,31.54l23.5,71.58,33.41-71.58,5.15-129.95c.15-4.96-3.55-9.21-8.49-9.73Z"/>
    <path class="cls-14" d="M491.42,522.89c-.02,1.88,1.45,3.44,3.33,3.52,1.82.15,3.43-1.2,3.58-3.02,0-.02,0-.05,0-.07.04-1.88-1.43-3.45-3.31-3.53-1.83-.15-3.44,1.21-3.59,3.04,0,.02,0,.05,0,.07Z"/>
    <path class="cls-14" d="M487.13,512.57c.42.45,3.07-1.48,6.79-1.44s6.46,1.91,6.87,1.47c.19-.2-.23-1.02-1.43-1.9-1.59-1.12-3.49-1.72-5.43-1.72-1.94-.02-3.85.57-5.43,1.7-1.19.88-1.59,1.7-1.37,1.9Z"/>
    <path class="cls-14" d="M525.28,522.89c-.03,1.88,1.44,3.44,3.31,3.52,1.83.15,3.44-1.21,3.59-3.04,0-.02,0-.04,0-.06.03-1.88-1.44-3.44-3.31-3.53-1.82-.16-3.43,1.19-3.59,3.01,0,.03,0,.07,0,.1Z"/>
    <path class="cls-14" d="M523.8,513.51c.42.46,3.07-1.47,6.79-1.43s6.46,1.91,6.87,1.47c.19-.2-.23-1.02-1.43-1.9-1.59-1.12-3.49-1.72-5.43-1.74-1.95-.02-3.85.58-5.43,1.71-1.19.87-1.59,1.68-1.37,1.89Z"/>
    <path class="cls-14" d="M510.06,541.1c0-.22-2.29-.64-6.04-1.14-.96-.11-1.86-.3-2.01-.95-.08-.99.14-1.97.65-2.82l2.86-7.24c3.98-10.29,6.87-18.78,6.46-18.93s-3.99,8.06-7.97,18.37c-.96,2.54-1.87,4.96-2.72,7.28-.62,1.14-.8,2.47-.53,3.73.29.67.86,1.17,1.56,1.36.52.16,1.07.24,1.62.24,3.75.27,6.1.3,6.11.1Z"/>
    <path class="cls-4" d="M507.14,588.27l.15,6.79c27.05,2.72,36.12-16.14,36.12-16.14-10.99,6.42-23.54,9.66-36.26,9.35Z"/>
    <path class="cls-4" d="M522.35,548.15c-1.1-1.68-2.96-2.7-4.97-2.72-2.83-.22-5.56,1.11-7.13,3.48-.55,1.08-.67,2.32-.34,3.49.26.6,0,.31.52.72,1.54,1.6,3.44,2.8,5.55,3.49,2.33.6,4.78-.28,6.19-2.23,1.23-1.88,1.3-4.29.18-6.23Z"/>
    <path class="cls-14" d="M521.03,543.75c-.61,0-.65,4.07-4.07,6.86s-7.79,2.39-7.83,2.95c0,.26.96.8,2.78.86,2.37.06,4.69-.73,6.53-2.23,1.78-1.43,2.93-3.49,3.2-5.76.14-1.68-.34-2.69-.61-2.67Z"/>
    <path class="cls-14" d="M522.12,501.56c.37,1.02,4.07.56,8.47,1.11s7.9,1.78,8.49.87c.27-.43-.34-1.36-1.77-2.38-3.84-2.47-8.6-3.03-12.91-1.52-1.62.64-2.43,1.43-2.28,1.91Z"/>
    <path class="cls-14" d="M488.57,499.69c.65.84,3.23,0,6.31,0s5.72.61,6.31-.27c.27-.42-.14-1.28-1.28-2.09-3.12-1.99-7.14-1.89-10.17.24-1.1.83-1.47,1.7-1.18,2.12Z"/>
    <path class="cls-11" d="M562.13,522.54c.37-.16,15.04-4.83,14.94,10.26-.11,15.1-15.26,11.84-15.29,11.4s.35-21.67.35-21.67Z"/>
    <path class="cls-4" d="M566.44,538.55s.26.19.69.39c.63.26,1.34.26,1.97,0,1.6-.57,2.96-3.08,3.07-5.8.04-1.29-.2-2.58-.71-3.77-.27-.97-1.01-1.73-1.97-2.04-.62-.16-1.26.14-1.55.71-.2.42-.12.72-.19.75s-.33-.26-.2-.88c.09-.37.3-.7.61-.94.42-.31.94-.44,1.45-.37,1.25.26,2.28,1.16,2.72,2.36.63,1.31.92,2.76.87,4.21-.12,3.04-1.71,5.88-3.9,6.49-.82.22-1.7.07-2.4-.42-.45-.33-.52-.67-.46-.69Z"/>
    <path class="cls-14" d="M571.42,543.58c.07-.08.65.62.56,1.98-.02.83-.41,1.6-1.06,2.12-.87.53-1.95.61-2.89.2-.98-.31-1.74-1.1-2.01-2.09-.16-.8-.02-1.63.41-2.32.75-1.17,1.7-1.28,1.7-1.19s-.72.41-1.22,1.45c-.29.58-.36,1.25-.2,1.89.25.74.85,1.32,1.6,1.55.71.32,1.53.3,2.21-.07.51-.39.85-.96.94-1.6.06-.64.05-1.28-.03-1.91Z"/>
    <path class="cls-14" d="M481.21,505.35c2.04-4.37,5.99-7.56,10.18-9.95s8.73-4.07,12.9-6.54c9.66-5.66,16.89-14.69,20.28-25.36-7.43-3.84-16.67-3.39-24.17.31-7.44,3.93-13.31,10.28-16.65,18-3.28,7.72-4.85,16.06-4.6,24.44"/>
    <path class="cls-14" d="M565.59,475.91c-11.16-10.6-32.25-16.46-46.79-11.49,2.16,12.69,11.74,26.96,20.18,36.66,8.43,9.69,13.58,26.98,32.08,21.14,1.26-.39,2.72.76,3.87.08.92-.68,1.55-1.68,1.78-2.8,4.74-15.47.45-32.29-11.12-43.6Z"/>
    <path class="cls-5" d="M482.05,523.69c-.88.16-1.79.11-2.65-.15-2.38-.69-4.44-2.21-5.8-4.28-1.95-3.1-2.77-6.79-2.29-10.43.18-2.11.54-4.2,1.06-6.26.49-2.16,1.17-4.33,1.9-6.54,2.66-7.53,6.64-14.52,11.76-20.65,1.55-1.84,3.21-3.59,4.97-5.24l1.47-1.29c.17-.16.35-.31.56-.42-.56.68-1.17,1.32-1.82,1.91-1.15,1.25-2.88,3-4.75,5.43-4.95,6.15-8.82,13.1-11.45,20.56-.74,2.12-1.38,4.27-1.9,6.45-.53,2.02-.89,4.07-1.09,6.15-.49,3.49.23,7.05,2.04,10.07,1.26,2.01,3.18,3.52,5.43,4.28.84.22,1.7.35,2.57.41Z"/>
    <path class="cls-14" d="M610.03,477.61c0-7.09-2-14.42-6.79-19.61-6.69-7.2-18.41-8.81-27.15-4.24s-13.96,14.66-13.37,24.44c.79,10,6.47,18.97,15.18,23.96l6.23-.71c6.25,3.3,14.43.96,19.24-4.2s6.67-12.6,6.67-19.66Z"/>
    <path class="cls-16" d="M571.93,473.46s-.08.19-.31.5c-.32.47-.67.93-1.05,1.36-1.35,1.61-2.89,3.06-4.58,4.32-11.58,8.78-27.82,7.89-38.37-2.1-1.54-1.43-2.91-3.04-4.07-4.79-.42-.61-.68-1.13-.88-1.47s-.29-.53-.26-.54c1.63,2.33,3.5,4.48,5.57,6.44,2.28,2.06,4.87,3.77,7.66,5.06,6.86,3.28,14.74,3.71,21.91,1.19,2.91-.98,5.65-2.39,8.15-4.18,2.27-1.71,4.36-3.64,6.23-5.78Z"/>
    <path class="cls-16" d="M579.18,494.03c-.15.18-.32.35-.5.5-.5.49-1.03.94-1.59,1.36-2.04,1.53-4.31,2.72-6.72,3.53-3.6,1.2-7.39,1.71-11.17,1.51-4.64-.24-9.19-1.41-13.36-3.45-4.14-2.1-7.92-4.85-11.19-8.15-2.67-2.65-5.07-5.56-7.17-8.68-1.43-2.09-2.74-4.26-3.92-6.5-.43-.79-.72-1.36-.94-1.85-.11-.21-.2-.44-.27-.67.16.19.3.39.41.61l1.03,1.77c.91,1.55,2.25,3.75,4.07,6.34,2.14,3.06,4.56,5.91,7.22,8.51,3.25,3.19,6.97,5.87,11.04,7.93,4.09,1.99,8.54,3.16,13.09,3.42,3.71.22,7.43-.24,10.97-1.36,2.41-.75,4.7-1.86,6.79-3.29,1.43-.98,2.16-1.63,2.21-1.55Z"/>
    <path class="cls-16" d="M603.94,470.94s-.19.35-.64.92c-.65.8-1.36,1.54-2.13,2.21-1.13,1.02-2.36,1.93-3.67,2.72-1.6.96-3.29,1.76-5.05,2.39-1.77.59-3.58,1.01-5.43,1.26-1.51.18-3.04.23-4.56.14-1.02-.06-2.04-.2-3.04-.42-.38-.05-.74-.16-1.09-.33,0-.12,1.6.2,4.14.24,6.69.11,13.2-2.17,18.37-6.42,1.97-1.56,3-2.72,3.1-2.72Z"/>
    <path class="cls-16" d="M609.56,480.45c.18.38.24.8.19,1.22-.06,1.15-.46,2.25-1.17,3.16-1.05,1.33-2.42,2.37-3.98,3.03-1.85.83-3.78,1.47-5.76,1.91-3.59.81-7.31.97-10.96.48-1.1-.16-2.2-.38-3.27-.67-.4-.08-.79-.23-1.14-.43,0-.12,1.7.34,4.47.6,3.6.35,7.23.12,10.75-.67,4.07-.96,7.82-2.36,9.5-4.55.68-.83,1.13-1.83,1.29-2.89.09-.77.01-1.19.07-1.19Z"/>
    <path class="cls-5" d="M575.44,756.31c-.24.06-.5.08-.75.07h-2.15c-2.64-.04-5.27-.3-7.87-.76-17.56-3.03-32.43-14.69-39.55-31.02-1.07-2.42-1.94-4.91-2.61-7.47-.26-.9-.37-1.62-.48-2.09-.06-.25-.1-.5-.12-.75.34.89.63,1.79.86,2.72.77,2.51,1.71,4.96,2.81,7.35,7.29,16.01,21.9,27.47,39.18,30.74,2.57.5,5.17.83,7.78.98,1.86.18,2.89.19,2.89.24Z"/>
    <path class="cls-5" d="M511.87,751.99c-.21-.09-.41-.2-.6-.33l-1.64-1.06-5.96-4.05c-6.51-4.42-13.31-8.4-20.37-11.89-7.03-3.46-14.54-5.86-22.28-7.11-2.35-.35-4.72-.57-7.1-.65-.87,0-1.75-.03-2.62-.11.22-.06.45-.09.68-.08.43,0,1.1-.1,1.94-.08,2.4-.03,4.79.12,7.17.43,7.85,1.11,15.46,3.47,22.57,6.99,7.07,3.51,13.85,7.57,20.3,12.12,2.48,1.71,4.47,3.14,5.84,4.14l1.56,1.17c.35.26.53.41.52.5Z"/>
    <polygon class="cls-11" points="580.14 748.41 487.44 753.09 494.63 780.4 618.15 780.97 580.14 748.41"/>
    <path class="cls-11" d="M491.75,752.88s-29.95-14.94-33.66-15.08c-2.84-.1-19.29,2.72-26.87,4.01-2.96.41-5.04,3.13-4.64,6.1.41,2.09,2.19,3.63,4.32,3.73-2.24,1.11-3.52,3.54-3.18,6.01.6,4.3,5.92,4.41,5.92,4.41-.23.24-.44.5-.64.77-1.66,2.32-1.12,5.54,1.2,7.2.77.55,1.68.88,2.62.95l2.42.18s-2.96,1.81-2.47,4.74c.95,5.62,13.79,4.78,13.79,4.78l44.07-.31-2.88-27.48Z"/>
    <path class="cls-11" d="M433.12,734.68c.42,1.83,1.47,5.73,4.9,7.03l17.37-3.3s-13.7-2.51-15.89-4.44c-.87-.8-1.83-1.49-2.86-2.06-1.25-.59-2.74-.06-3.33,1.19-.23.49-.3,1.05-.19,1.58Z"/>
    <path class="cls-4" d="M447.1,739.46c0,.3-3.48,1.18-7.9,1.78-4.43.6-7.98.96-8.04.64s3.46-1.18,7.89-1.78,8.05-.96,8.05-.64Z"/>
    <path class="cls-4" d="M444.7,749.81c.08.3-2.92,1.36-6.79,1.75s-7.02.15-7.01-.15,3.1-.54,6.87-.99,6.84-.92,6.92-.61Z"/>
    <path class="cls-4" d="M453.39,747.2c.29.12.1,1.13-.79,1.91-.88.79-1.9.86-2,.57s.54-.8,1.24-1.43,1.26-1.19,1.55-1.06Z"/>
    <path class="cls-4" d="M448.31,760.58c0,.31-3.33.98-7.48,1.47s-7.56.64-7.62.33,3.3-.96,7.48-1.45c4.18-.49,7.59-.65,7.62-.34Z"/>
    <path class="cls-4" d="M457.57,754.38c.14,0,.46.26.65.92.47,1.87-.61,3.79-2.46,4.36-.68.19-1.11.07-1.13-.08s1.43-.73,2.23-2.17c.8-1.44.42-2.91.71-3.03Z"/>
    <path class="cls-4" d="M452.54,771c0,.31-3.04.65-6.79.76s-6.86-.07-6.86-.38,3.04-.65,6.79-.76,6.86.08,6.86.38Z"/>
    <path class="cls-4" d="M461.51,764.02c.14,0,.41.3.49.99.08.88-.12,1.76-.57,2.51-1.05,1.74-2.39,2.51-2.58,2.34s.72-1.44,1.57-2.89.8-2.85,1.09-2.95Z"/>
  </g>
  <g id="freepik--character-1--inject-14">
    <path class="cls-13" d="M373.45,765.57c-6.08-2.89-26.38-10.86-26.38-10.86l-9.94-67.89-40.43,6.07s23.53,86.53,29.87,87.13,42.4,0,42.4,0l11.76-.18s-3.01-12.26-7.28-14.27Z"/>
    <path class="cls-6" d="M345.27,777.9c-.6.41-1.3.66-2.02.75-3.51.67-7.13-.3-9.84-2.62-.57-.44-1.04-1.01-1.36-1.66.1-.08.65.5,1.7,1.26,1.36.98,2.88,1.7,4.49,2.13,1.62.43,3.29.56,4.96.39.68-.14,1.38-.23,2.08-.26Z"/>
    <path class="cls-6" d="M368.65,779.81c-.1.07-.94-1.36-2.48-3.42-.89-1.21-1.94-2.29-3.12-3.22-1.5-1.06-3.17-1.88-4.93-2.42-3.23-1.13-6.34-2.59-9.26-4.37-1.25-.66-2.43-1.45-3.53-2.34,1.31.53,2.57,1.17,3.77,1.9,2.97,1.64,6.06,3.02,9.26,4.14,1.83.56,3.55,1.43,5.09,2.57,1.21.98,2.26,2.15,3.12,3.45.59.87,1.13,1.78,1.62,2.72.2.3.36.64.46.99Z"/>
    <path class="cls-9" d="M250.42,462.66l-14.94,10.29s-18.6-1.11-32.1,3.48c-7.48,2.55-16.55,5.63-26.38,15.59-8.98,9.08-15.45,20.34-18.78,32.67l-18.07,150.53-27.43,106.22h182.57v-134.42l17.47-61.65s-4.53-7.11-4.4-9.95,10.33-68.54,10.33-68.54l-20.81-24.9-47.48-19.31Z"/>
    <path class="cls-9" d="M316.27,503.75s10.33,4.82,12.86,22.86c2.53,18.04,20.83,157.31,20.83,157.31,0,0-20.22,4.67-38.67,6.79l-23.23,3.95-.58-93.11,28.8-97.8Z"/>
    <g class="cls-17">
      <path class="cls-2" d="M177.42,777.19c31.04-37.2,35.91-91.16,67.34-128.03l-19.24,10.86c3.41-32.06,6.68-65.39-4.07-95.79-5.7,72.58-20.81,144.12-44.94,212.81"/>
    </g>
    <path class="cls-9" d="M227.15,506.65c-.71,57.41-3.34,114.76-7.9,172.04-.56,4.46-1.54,8.85-2.93,13.13-1.4,4.48-5.87,7.27-10.51,6.56l-37.46-5.65c-6.52-1.1-8.99-1.97-10.94-6.18-1.31-2.91-1.92-6.08-1.79-9.27,1.44-51.25-3.04-78.41,0-126.87"/>
    <path class="cls-14" d="M155.72,550.41v.99c0,.65-.07,1.66-.12,2.93-.14,2.58-.31,6.37-.46,11.26-.15,4.89-.27,10.86-.3,17.83-.03,6.97.11,14.85.35,23.6.49,17.49,1.36,38.33,1.02,61.48,0,2.89-.12,5.81-.19,8.78-.11,2.96.42,5.9,1.55,8.64.98,2.87,3.43,4.99,6.41,5.55,3.02.7,6.08,1.24,9.16,1.63l19.01,2.85,9.71,1.47c1.62.23,3.29.53,4.87.69,1.61.1,3.21-.21,4.66-.92,1.44-.72,2.67-1.81,3.57-3.15.82-1.39,1.42-2.91,1.77-4.49.92-3.12,1.62-6.29,2.12-9.5.6-6.42,1.03-12.84,1.51-19.12.92-12.56,1.71-24.67,2.4-36.22,1.36-23.08,2.29-43.91,2.92-61.4.62-17.49.98-31.64,1.19-41.42.11-4.87.19-8.66.24-11.26,0-1.28.03-2.25.08-2.93v-1,3.94c0,2.59-.07,6.38-.12,11.27-.12,9.78-.39,23.94-.96,41.42-.57,17.49-1.45,38.32-2.72,61.42-.68,11.55-1.45,23.68-2.36,36.24-.46,6.29-.9,12.65-1.51,19.16-.5,3.26-1.22,6.48-2.13,9.64-.37,1.65-.99,3.23-1.86,4.68-.96,1.45-2.28,2.62-3.84,3.38-1.55.77-3.28,1.12-5.01,1-1.71-.18-3.3-.48-4.94-.71l-9.71-1.47-19.01-2.86c-3.1-.39-6.19-.94-9.23-1.66-1.56-.35-3.01-1.06-4.25-2.06-1.15-1.08-2.04-2.41-2.61-3.88-1.16-2.81-1.71-5.84-1.6-8.88.07-2.96.14-5.88.2-8.77.42-23.08-.45-43.95-.86-61.45-.22-8.74-.3-16.66-.26-23.61s.2-12.94.42-17.83c.22-4.89.41-8.69.58-11.26l.2-2.93c.05-.72.1-1.06.1-1.06Z"/>
    <path class="cls-14" d="M295.31,698.01c-.01-.14-.01-.29,0-.43v-1.26c0-1.17.1-2.81.16-4.89.08-4.25.61-10.37,1.49-17.91.56-3.76,1.02-7.9,1.9-12.22.41-2.2.77-4.48,1.28-6.79s1-4.72,1.53-7.17c2.2-9.8,5.01-20.46,7.63-31.73,5.43-22.5,7.37-43.45,6.95-58.64l-.37-10.21c-.16-3.01-.46-5.59-.62-7.7s-.3-3.71-.39-4.87c0-.53-.07-.94-.08-1.26s0-.43,0-.43c.04.14.07.28.08.42l.16,1.26c.12,1.15.3,2.78.53,4.86s.53,4.68.73,7.7c.2,3.01.3,6.45.48,10.24.56,15.17-1.29,36.26-6.79,58.8-2.62,11.28-5.43,21.94-7.68,31.7-.54,2.44-1.06,4.83-1.57,7.16s-.87,4.59-1.36,6.79c-.9,4.37-1.36,8.5-1.97,12.22-.95,7.52-1.55,13.58-1.71,17.87-.14,2.08-.23,3.71-.31,4.87,0,.53-.07.94-.1,1.26.02.12.03.24.03.37Z"/>
    <path class="cls-14" d="M294.02,606.57c-.16.23-.33.43-.53.62l-1.62,1.68c-1.36,1.47-3.49,3.52-6.11,6.01-5.23,5-12.71,11.66-21.4,18.49-8.69,6.83-16.93,12.52-23.08,16.41-3.05,1.96-5.54,3.5-7.29,4.52l-2.02,1.15c-.22.16-.46.28-.72.37.2-.18.42-.34.65-.48l1.94-1.29c1.71-1.09,4.15-2.72,7.17-4.68,6.01-4.01,14.19-9.75,22.86-16.56s16.18-13.4,21.49-18.3c2.72-2.44,4.79-4.44,6.26-5.84l1.7-1.59c.2-.21.44-.39.69-.53Z"/>
    <g class="cls-17">
      <path class="cls-2" d="M315.78,577.44c-4.45,41.34-19.17,86.51-20.47,112.6,5.84-18.59,13.22-36.35,18.66-55.06,5.43-18.71,7.87-39.02,1.82-57.54Z"/>
    </g>
    <path class="cls-14" d="M342.7,337c5.53-1.92,8.46-7.97,6.53-13.5-.3-.87-.72-1.7-1.24-2.47-1.36-2.09-3.54-3.64-4.82-5.82-.9-1.89-1.61-3.87-2.15-5.89-2.48-6.38-7.86-11.18-14.47-12.94-6.59-1.67-13.56-.85-19.58,2.29-2.39,1.21-4.72,2.72-7.39,2.96s-5.08-.81-7.62-1.36c-9.6-1.72-18.77,4.67-20.48,14.27-.53,2.98-.29,6.04.7,8.9-8.26,1.32-13.88,9.08-12.56,17.33,1.02,6.4,6,11.44,12.39,12.54,4.29.77,8.68-.34,12.93-1.36,17.24-3.96,34.87-5.93,52.56-5.87"/>
    <path class="cls-9" d="M253.55,430.06c-6.53-10.9-9.02-23.74-7.03-36.29,2.02-12.41,7.07-27.41,16.65-35.57-4.17-6.79-.68-12.8,4.51-18.89,5.19-6.08,12.91-9.5,20.64-11.51,11.55-3.08,23.62-3.72,35.44-1.87,9.6,1.51,21.97,5.65,21.89,12.76-.1,7.43-5.43,9.69-5.43,9.69,6.18,3.5,11.5,8.34,15.59,14.15,9.61,13.77,11.95,26.22,7.79,38.74-4.15,12.52-8.92,21.98-18.25,28.59"/>
    <path class="cls-5" d="M334.75,443.44c1.63-1.08,3.49-1.76,5.43-1.97l-.35-.1c.35,0,.7.02,1.05.07,1.31-.06,2.59.44,3.53,1.36h0c1.86,1.21,3.19,3.07,3.75,5.21.78,3.84-.64,7.79-3.69,10.25-3.13,3.14-8.21,3.15-11.35.02-1.61-1.61-2.47-3.82-2.35-6.09-.26-3.41,1.25-6.72,3.99-8.76Z"/>
    <path class="cls-13" d="M249.73,472.64l15.1-99.6c.93-4.99,5.52-8.44,10.58-7.94l53.58-2.35c16.65,1.64,23.33,23.94,20.98,40.49-2.61,18.4-6.52,40.73-11.47,53.86-9.95,26.34-31.55,25.5-31.55,25.5,0,0-4.07,18.86-6.2,28.74l-11.12,39.08-39.88-77.77Z"/>
    <path class="cls-14" d="M339.37,424.78c-.37,1.89-2.17,3.14-4.07,2.84-1.87-.24-3.2-1.96-2.96-3.83,0-.02,0-.04,0-.07.37-1.89,2.17-3.14,4.07-2.84,1.87.24,3.2,1.96,2.96,3.83,0,.02,0,.04,0,.07Z"/>
    <path class="cls-14" d="M342.68,413.8c-.53.37-2.72-2.13-6.53-2.91-3.82-.77-6.9.54-7.21,0-.16-.24.45-.98,1.83-1.6,1.86-.79,3.92-.99,5.89-.57,1.95.41,3.73,1.42,5.08,2.89.98,1.13,1.19,2.02.94,2.19Z"/>
    <path class="cls-14" d="M304,418.31c-.37,1.89-2.18,3.14-4.07,2.82-1.87-.23-3.19-1.94-2.96-3.8,0-.03,0-.06.01-.09.37-1.89,2.18-3.14,4.07-2.82,1.87.24,3.2,1.96,2.96,3.83,0,.02,0,.04,0,.07Z"/>
    <path class="cls-14" d="M305.59,406.86c-.53.37-2.78-2.13-6.53-2.91-3.75-.77-6.91.54-7.22,0-.16-.24.45-.98,1.83-1.6,1.86-.79,3.92-.99,5.89-.56,1.96.39,3.74,1.4,5.09,2.88.96,1.1,1.25,2.02.94,2.19Z"/>
    <path class="cls-14" d="M313.46,437.56c0-.22,2.44-.14,6.34.16.98.11,1.93.1,2.23-.52.3-.97.3-2.01,0-2.99-.42-2.51-.87-5.13-1.36-7.89-1.79-11.23-2.88-20.37-2.43-20.45s2.28,8.97,4.07,20.2c.41,2.72.81,5.43,1.19,7.92.36,1.28.26,2.65-.29,3.87-.42.63-1.11,1.02-1.86,1.07-.56.04-1.13,0-1.68-.11-3.88-.58-6.25-1.06-6.22-1.28Z"/>
    <path class="cls-6" d="M306.86,482.59c-12.87-2.46-24.8-8.44-34.47-17.28,0,0,5,20.57,32.78,23.64l1.7-6.35Z"/>
    <path class="cls-6" d="M311.06,446.38c-1.21-2.87-3.74-4.96-6.79-5.61-2-.39-4.06.24-5.51,1.67-1.5,1.65-1.95,4.01-1.17,6.1,1,2.2,3.24,3.57,5.65,3.45,2.24-.24,4.38-1.02,6.25-2.28.57-.27,1.08-.66,1.48-1.15.42-.56.52-1.3.24-1.94"/>
    <path class="cls-14" d="M301.83,437.88c.61.08-.22,4.17,2.72,7.78,2.93,3.61,7.33,4.07,7.24,4.64,0,.27-1.13.6-2.97.27-2.4-.46-4.56-1.76-6.1-3.65-1.48-1.82-2.19-4.14-1.98-6.48.2-1.74.86-2.65,1.1-2.57Z"/>
    <path class="cls-14" d="M309.2,396.98c-.58.95-4.24-.31-8.76-.69s-8.34.08-8.73-.95c-.16-.49.65-1.36,2.29-2.02,2.16-.83,4.49-1.14,6.79-.91,2.32.19,4.55.94,6.52,2.17,1.51.98,2.15,1.96,1.89,2.4Z"/>
    <path class="cls-14" d="M343.55,402.64c-.84.72-3.24-.71-6.35-1.36s-5.87-.61-6.29-1.63c-.18-.49.42-1.26,1.74-1.83,3.58-1.32,7.6-.36,10.18,2.44.92,1.06,1.09,2.01.72,2.38Z"/>
    <path class="cls-9" d="M330.95,371.29s-25.44-5.84-50.93,18.85c-16.8,16.29-24.57,39.55-24.57,39.55l-.16-47.52,11.83-19.1,19.78-6.16,33.88,5.28,11.3,8.96"/>
    <path class="cls-9" d="M280.43,362.95c42.75-1.1,72.38,19.32,71.53,52.48l12.76-19.21-15.72-29.99-21.85-10.98-48.15-2.88,1.43,10.59Z"/>
    <path class="cls-5" d="M249.87,425.39c1.73-1.16,3.72-1.89,5.8-2.12l-.38-.11c.38,0,.75.02,1.13.07,1.4-.09,2.77.4,3.8,1.36h0c2.02,1.3,3.47,3.31,4.07,5.63.82,4.13-.71,8.37-3.98,11.02-3.36,3.38-8.83,3.4-12.21.03-1.74-1.73-2.66-4.12-2.53-6.58-.24-3.63,1.38-7.14,4.3-9.31Z"/>
    <path class="cls-16" d="M262.59,412.93c-.63-.21-1.21-.57-1.67-1.05-1.36-1.23-2.37-2.79-2.93-4.53-.9-2.62-.74-5.48.45-7.98.65-1.36,1.49-2.72,2.05-4.07.64-1.37.56-2.97-.22-4.28-.97-1.27-2.13-2.4-3.44-3.33-1.27-1-2.32-2.25-3.1-3.67-1.26-2.43-1.73-5.19-1.36-7.9.23-1.81.88-3.53,1.9-5.04.33-.58.8-1.07,1.36-1.44-1.31,1.97-2.15,4.22-2.44,6.57-.24,2.53.28,5.07,1.51,7.29.72,1.3,1.71,2.43,2.89,3.33,1.41.99,2.65,2.2,3.68,3.58.96,1.6,1.07,3.57.29,5.27-.62,1.57-1.51,2.88-2.13,4.17-1.12,2.26-1.35,4.87-.64,7.29.47,1.65,1.32,3.17,2.48,4.44.79.87,1.37,1.26,1.32,1.34Z"/>
    <path class="cls-16" d="M267.33,356.07c-1.24,1.85-2.11,3.92-2.58,6.1-.41,2.35-.18,4.76.67,6.99.91,2.53,3.12,4.58,5.27,7.03,1.11,1.22,1.95,2.65,2.47,4.21.41,1.51.38,3.1-.1,4.59-.83,2.72-2.17,4.9-2.43,6.9-.33,1.56-.07,3.19.73,4.56.61.94,1.29,1.17,1.22,1.28s-.18,0-.48-.14c-.43-.21-.8-.5-1.1-.87-1.04-1.42-1.46-3.2-1.17-4.94.19-2.24,1.52-4.49,2.21-7.07.38-1.3.38-2.69,0-3.99-.49-1.4-1.26-2.69-2.27-3.79-2.02-2.34-4.43-4.58-5.43-7.4-.88-2.41-1.04-5.02-.48-7.52.36-1.67,1.06-3.24,2.06-4.62.8-.96,1.34-1.36,1.38-1.32Z"/>
    <path class="cls-16" d="M291.79,381.52s-.39.35-1.15,0c-.44-.21-.8-.56-1.02-.99-.29-.58-.38-1.24-.24-1.87.22-1.36,1.36-2.72,1.67-4.07.31-1.36-.58-2.92-2.01-4.07-1.54-1.05-2.82-2.44-3.72-4.07-.67-1.4-1-2.94-.95-4.49-.07-1.43.38-2.84,1.28-3.95-.27,1.3-.43,2.61-.48,3.94.06,1.42.44,2.81,1.09,4.07.87,1.5,2.08,2.78,3.52,3.75.79.63,1.45,1.4,1.94,2.28.49.89.61,1.94.34,2.92-.57,1.78-1.64,2.85-1.89,3.98-.29.84,0,1.77.69,2.32.52.27.92.18.94.27Z"/>
    <path class="cls-16" d="M304.28,361.05s.29,0,.53.34c.3.51.36,1.13.15,1.68-.3.69-.67,1.35-1.11,1.97-.36.71-.54,1.5-.5,2.29.13,1.54.63,3.02,1.44,4.33.61,1.07.98,1.77.84,1.86s-.71-.42-1.51-1.43c-1.13-1.33-1.8-2.99-1.91-4.74-.04-1.01.22-2.01.75-2.86.52-.76,1.03-1.24,1.26-1.72.26-.54.28-1.16.07-1.72Z"/>
    <path class="cls-16" d="M348.13,354.9s-.16.42-.68,1-1.36,1.36-2.15,2.35c-.95,1.17-1.39,2.67-1.24,4.17.28,1.98.31,3.98.08,5.96-.41,2.04-1.42,3.91-2.91,5.36-1.2,1.17-2.68,2.02-4.29,2.47-2.78.75-4.53.11-4.48,0,1.43-.13,2.85-.39,4.24-.77,3.26-1.14,5.66-3.92,6.33-7.3.21-1.9.21-3.82,0-5.72-.1-1.73.5-3.42,1.67-4.7.76-.79,1.58-1.51,2.46-2.16.57-.46.91-.72.96-.67Z"/>
    <path class="cls-16" d="M363.43,378.06c.12.2-1.36.54-2.32,2.44-.46.99-1.24,2.12-1.89,3.35-.68,1.46-1.5,2.85-2.44,4.15-2,2.37-5.08,3.54-8.15,3.1-1.25-.06-2.44-.58-3.33-1.47.1-.19,1.29.56,3.41.68,2.74.17,5.39-.95,7.18-3.03.9-1.26,1.71-2.58,2.42-3.95.76-1.36,1.55-2.28,2.12-3.24.46-.81,1.17-1.45,2.02-1.83.6-.24.95-.27.98-.2Z"/>
    <path class="cls-16" d="M361.28,406.07c.12.08-.11.71-.87,1.43-2.12,1.94-5.32,2.1-7.62.37-.83-.65-1.11-1.25-1-1.36s2.04,1.53,4.82,1.36,4.45-2.02,4.67-1.79Z"/>
    <path class="cls-16" d="M324.81,345.67c.08.19-1.36.58-2.82,2.13-1.97,1.98-2.84,4.8-2.34,7.55.34,1.55,1,3.31.54,4.97-.37,1.37-1.18,2.58-2.31,3.45-.91.88-2.04,1.48-3.27,1.74-.1-.18,1.18-.81,2.72-2.32.9-.83,1.54-1.91,1.83-3.1.33-1.36-.24-2.72-.64-4.51-.36-1.69-.19-3.45.49-5.04.54-1.28,1.36-2.42,2.42-3.33.89-.93,2.1-1.49,3.38-1.55Z"/>
    <path class="cls-16" d="M295.04,359.8c-.27-.19,1.09-2.43,1.75-5.43.67-3,.45-5.68.79-5.73s1.09,2.65.33,5.97-2.67,5.39-2.86,5.19Z"/>
    <path class="cls-16" d="M276.68,353.16c0-.08.3-.24.64-.73.49-.7.75-1.54.73-2.39,0-2.2-1.55-5.02-2.72-8.45-.55-1.63-.77-3.35-.67-5.06.09-1.48.62-2.9,1.52-4.07.59-.79,1.43-1.37,2.38-1.64.69-.15,1.07,0,1.06,0s-.37.11-.92.35c-.76.38-1.41.97-1.86,1.7-1.36,1.79-1.53,5.05-.43,8.31,1.1,3.26,2.72,6.26,2.42,8.83-.04,1.02-.47,1.99-1.19,2.72-.52.5-.95.5-.95.45Z"/>
    <path class="cls-16" d="M305.18,346.44c0-.07.24-.33.76-.72s1.36-.94,1.64-1.85c0-1.26-.4-2.49-1.15-3.5-.77-1.28-1.89-2.53-2.97-4.07-1.19-1.38-1.88-3.11-1.97-4.93.22-1.46.88-2.83,1.89-3.91,1.6-1.81,2.81-2.62,2.91-2.53-.67,1.07-1.43,2.07-2.27,3.01-.8,1.01-1.31,2.21-1.48,3.49.17,1.55.82,3.02,1.85,4.2,2.05,2.72,4.52,5.51,3.98,8.4-.44.92-1.23,1.64-2.19,2-.6.35-.95.48-.99.41Z"/>
    <path class="cls-16" d="M331.34,347.39c-.07-.16,1.25-.43,1.98-2.15.4-.98.5-2.05.29-3.08-.31-1.33-.73-2.64-1.26-3.9-.58-1.36-.87-2.83-.86-4.3.1-1.26.64-2.44,1.52-3.34,1.36-1.62,2.93-1.64,2.89-1.44-.89.47-1.67,1.13-2.27,1.94-.66.82-1.04,1.83-1.1,2.88.06,1.34.36,2.65.87,3.88.56,1.31.98,2.67,1.24,4.07.21,1.24,0,2.51-.6,3.61-.39.75-1.03,1.35-1.81,1.68-.54.2-.9.14-.9.14Z"/>
    <path class="cls-14" d="M340.25,348.38c-1.06-.08-2.11-.26-3.14-.53-2-.45-4.9-.95-8.5-1.48-9.39-1.28-18.93-1.14-28.28.42-9.33,1.72-18.46,4.38-27.26,7.93l-8.02,3.2c-.96.45-1.96.81-2.99,1.07.89-.58,1.83-1.08,2.81-1.48,1.83-.9,4.53-2.13,7.9-3.54,8.78-3.79,17.96-6.58,27.37-8.31,9.46-1.59,19.12-1.62,28.59-.1,2.85.47,5.68,1.08,8.47,1.85,1.04.23,2.06.55,3.04.96Z"/>
    <path class="cls-14" d="M270.71,359.76h.29l.83-.16,1.36-.27,1.85-.3c3.93-.56,7.9-.66,11.85-.3,5.85.54,11.62,1.81,17.16,3.76,3.15,1.06,6.37,2.39,9.68,3.84,3.31,1.45,6.69,3.07,10.03,4.94,13.58,7.26,22.71,18.74,25.93,28.2,1.3,3.74,2.05,7.66,2.2,11.62.08,1.36.07,2.48,0,3.23v.84c-.01.09-.01.19,0,.29.02-.09.02-.19,0-.29v-.84c0-.73.11-1.83.08-3.24-.07-4-.75-7.97-2.02-11.76-3.14-9.63-12.4-21.29-26.05-28.62-3.37-1.87-6.79-3.49-10.09-4.96-3.3-1.47-6.57-2.72-9.75-3.83-5.55-1.93-11.31-3.16-17.16-3.67-3.98-.31-7.98-.14-11.92.52l-1.85.35-1.36.34-.81.22c-.16.04-.24.07-.24.08Z"/>
    <path class="cls-14" d="M323.9,371.19c-.3-.07-.59-.12-.9-.15-.86-.12-1.73-.19-2.59-.2-3.2-.07-6.4.29-9.5,1.06-10.21,2.74-19.61,7.89-27.4,15.03-4.27,3.91-8.19,8.18-11.72,12.76-2.97,3.67-5.72,7.52-8.23,11.51-1.71,2.69-3.22,5.5-4.52,8.4-.43,1.03-.76,1.85-.95,2.4-.12.28-.21.57-.26.87.15-.26.27-.53.38-.81.23-.56.58-1.35,1.06-2.36,1.39-2.85,2.95-5.6,4.68-8.26,2.56-3.94,5.33-7.74,8.3-11.38,3.54-4.53,7.45-8.77,11.69-12.65,7.72-7.07,17-12.23,27.07-15.07,3.06-.8,6.21-1.22,9.37-1.26,1.11,0,2,0,2.58.1.31.04.62.04.94.01Z"/>
    <path class="cls-13" d="M93.04,776.71s8.31-2.72,13.58-4.26c2.95-.86,15.14-6.25,22.55-7.64,6.19-1.17,23.34-9.93,26-11.72s13.17-60.35,13.17-60.35l39.65,5.97s-21.14,56.48-22.47,61.87-6.35,19.33-6.35,19.33h-86.12v-3.2Z"/>
    <path class="cls-6" d="M162.46,778.61c0-.12,1.36-.23,3.22-1.05,5.14-2.09,8.36-7.24,7.98-12.78-.12-2.08-.6-3.31-.48-3.35s.2.27.41.84c.29.8.48,1.63.57,2.47.67,5.82-2.77,11.34-8.3,13.29-.8.29-1.63.48-2.47.57-.31.07-.63.07-.94,0Z"/>
    <path class="cls-6" d="M157.26,775.71c-.26.14-.52.26-.8.35-.8.28-1.61.49-2.44.64-3.08.32-6.19.39-9.29.2-2.11-.06-4.21.2-6.25.75-2.19.65-4.34,1.85-6.79,2.72-5.52,1.74-11.5,1.28-16.69-1.28l-.84-.41.9-.24.8-.23c2.82-.81,5.51-2.03,7.98-3.63,2.27-1.55,4.42-3.27,6.42-5.16,3.57-3.13,7.77-5.44,12.31-6.79,3.02-.93,6.1-1.66,9.22-2.2l2.55-.42c.29-.06.59-.09.88-.1-.28.12-.57.19-.87.23l-2.51.56c-3.08.63-6.13,1.43-9.12,2.4-4.44,1.39-8.54,3.7-12.03,6.79-2.01,1.92-4.18,3.68-6.48,5.25-2.52,1.63-5.27,2.88-8.15,3.72l-.81.23v-.65c5.04,2.47,10.83,2.93,16.2,1.28,2.43-.77,4.62-1.97,6.87-2.62,2.1-.54,4.27-.78,6.44-.69,3.07.23,6.16.23,9.23,0,2.12-.29,3.23-.79,3.26-.71Z"/>
  </g>
  <g id="freepik--character-4--inject-14">
    <polygon class="cls-14" points="742.6 676.29 719.56 729.61 698.19 798.28 905.26 799.26 901.73 669.19 799.95 658.81 742.6 676.29"/>
    <path class="cls-11" d="M631.91,684.47s-16.67,6.34-29.72,10.18c-13.05,3.84-36.33,18.22-36.33,18.22,0,0-23.71,21.36-22.85,24.18s3.67,4.18,7.26,1.29,21.37-13.39,21.37-13.39c0,0,1.14,5.95,4.98,6.63,1.94.48,3.98.38,5.87-.27,0,0,1.57,5.58,4.34,7.4,1.62,1.07,3.42,1.84,5.32,2.27.1,2.08,1.62,3.81,3.67,4.18,2.39.68,4.87.97,7.35.87,0,0,12.37-7.49,14.34-11.11s4.37-8.49,4.37-8.49l5.11-2.55,15.68-2.72-10.75-36.7Z"/>
    <path class="cls-4" d="M614.7,712.69c-.43.69-.95,1.32-1.53,1.89-1.61,1.59-3.47,2.9-5.51,3.87-3.09,1.51-6.44,2.43-9.87,2.72-2.07.22-4.17.13-6.22-.26-2.26-.41-4.42-1.29-6.31-2.59l.41-.56c1.54,1.14,3,2.38,4.37,3.71.73.7,1.39,1.48,1.97,2.31.59.88,1,1.87,1.19,2.91.47,2.5-.15,5.08-1.7,7.1l-.16.2-.24-.1c-2.35-.98-4.58-2.23-6.65-3.72-2.01-1.36-3.86-2.82-5.59-4.2s-3.34-2.72-4.87-3.94c-1.38-1.32-2.06-3.22-1.82-5.12.13-.79.36-1.56.71-2.28.29-.69.57-1.36.87-1.91.58-1.15,1.15-2.12,1.64-2.89s.91-1.36,1.21-1.7c.14-.2.3-.39.48-.56-.1.22-.22.43-.37.62-.26.39-.64.99-1.1,1.77-.56.95-1.07,1.92-1.53,2.92-.29.58-.56,1.22-.81,1.9-.31.69-.52,1.43-.62,2.19-.19,1.74.45,3.47,1.72,4.67,1.47,1.19,3.18,2.48,4.89,3.84,1.71,1.36,3.58,2.78,5.58,4.14,2.04,1.44,4.23,2.66,6.54,3.61l-.41.12c1.42-1.86,1.99-4.24,1.56-6.54-.18-.95-.55-1.85-1.09-2.65-.55-.79-1.18-1.53-1.87-2.2-1.34-1.31-2.78-2.54-4.29-3.65l.41-.56c1.81,1.26,3.86,2.12,6.03,2.51,1.99.4,4.03.5,6.06.31,3.37-.27,6.66-1.14,9.72-2.58,2.03-.92,3.9-2.16,5.54-3.67,1.1-.98,1.63-1.71,1.7-1.64Z"/>
    <path class="cls-4" d="M592.38,730.16c.65-.33,1.33-.6,2.04-.81,1.61-.61,3.11-1.49,4.43-2.61.66-.61,1.13-1.41,1.36-2.28.31-1.45-.47-2.9-1.85-3.45,0,0,.23-.08.62,0,.57.17,1.05.55,1.36,1.06.48.73.67,1.62.53,2.48-.21,1.05-.75,2-1.55,2.72-1.37,1.2-3,2.09-4.75,2.58-.7.27-1.44.38-2.19.31Z"/>
    <path class="cls-4" d="M595.87,739.63c.96-.71,1.96-1.37,3-1.96.94-.6,2.02-1.36,3.19-2.2,1.27-.91,2.45-1.94,3.53-3.07.51-.57.88-1.26,1.07-2.01.14-.68.05-1.4-.26-2.02-.55-1.1-1.53-1.93-2.72-2.27-.82-.25-1.67-.35-2.53-.31-.32.04-.64.04-.96,0,.29-.16.62-.25.95-.27.9-.15,1.83-.12,2.72.1,1.36.33,2.52,1.23,3.18,2.47.37.76.49,1.62.34,2.46-.21.86-.63,1.66-1.21,2.32-1.11,1.18-2.35,2.22-3.69,3.12-1.21.86-2.34,1.56-3.3,2.12-1.03.66-2.14,1.17-3.31,1.52Z"/>
    <path class="cls-4" d="M612.33,738.54c.24-.59.44-1.21.58-1.83.45-2.16-.94-4.27-3.1-4.72-.88-.18-1.79-.06-2.59.34-1.09.48-1.53,1.13-1.63,1.05s.26-.84,1.36-1.49c2.07-1.23,4.74-.55,5.97,1.52.61,1.03.77,2.26.45,3.41-.3,1.28-1,1.79-1.05,1.74Z"/>
    <path class="cls-11" d="M715.05,756.43l-4.36,6.42h-32.49l-41.38,16.67h106.88c.91-1.13,3.69-5.43,3.69-5.43l-32.34-17.66Z"/>
    <path class="cls-7" d="M863.15,558.67c-23.34-37.76-73.49-83.89-77.74-86.03-4.25-2.13-72.82-6.44-72.82-6.44l-54.15,38.42-17.98,26.87c-2.46,7.64-6.79,19.42-4.81,27.15l1.67,13.25,56.48,36.46,28.09,16.4,15.64,22.19-1.25,37.16,22.13-4.21s34.08,3.37,66.75,4.17c32.67.8,77.59-9.57,77.59-9.57,0,0-13.59-73.7-39.62-115.83Z"/>
    <path class="cls-7" d="M732.87,531.23l19.17,106.36-39.75,117.32,39.75,21.72s28.4-49.99,41.19-80.23c12.79-30.24,17.45-47.13,17.45-47.13,0,0,0-114.96-4.07-128.21-4.07-13.25-17.57-39.52-31.77-38.1-14.2,1.43-47.78,15.99-41.97,48.25Z"/>
    <path class="cls-7" d="M637.34,571.96l34.26,83.88c-1.86,3.06-3.23,6.39-4.07,9.87l-42.73,21.11,12.55,40.39s53.3-17.65,60.85-21.72c7.55-4.07,29.33-19.58,33.1-32.16,3.77-12.59-17.15-57.17-17.15-57.17l-76.81-44.19Z"/>
    <path class="cls-14" d="M721.91,624.82c-.26-.1-.5-.22-.73-.37l-2.02-1.13c-1.75-1-4.28-2.47-7.37-4.34-3.1-1.87-6.79-4.07-10.67-6.79-1.97-1.36-4.07-2.82-6.04-4.47l-6.19-5.12-21.62-18.11-6.49-5.55-1.75-1.53c-.21-.17-.4-.36-.57-.57.24.12.47.28.67.46l1.82,1.36c1.64,1.36,3.9,3.16,6.65,5.43,5.62,4.66,13.28,10.97,21.72,17.95l6.18,5.15c2.01,1.62,4.07,3.1,5.97,4.45,3.91,2.72,7.52,5.04,10.58,6.97l7.24,4.52,1.96,1.25c.24.12.47.27.68.45Z"/>
    <path class="cls-14" d="M725.87,471.12c1.03,1.2,1.91,2.53,2.62,3.95,1.95,3.88,2.99,8.15,3.04,12.49.04,2.99-.32,5.98-1.07,8.88-.91,3.34-2.29,6.54-4.07,9.5-4.17,6.7-9.81,12.34-16.51,16.51-6.57,4.4-14.21,6.95-22.1,7.36-6.49.26-12.88-1.65-18.15-5.43-3.56-2.51-6.37-5.94-8.15-9.91-.28-.62-.52-1.25-.72-1.9-.17-.47-.3-.95-.38-1.44-.08-.35-.14-.65-.19-.9-.02-.1-.02-.21,0-.31.44,1.51.96,2.99,1.57,4.44,1.83,3.87,4.64,7.19,8.15,9.63,5.2,3.66,11.47,5.5,17.83,5.23,7.76-.44,15.27-2.96,21.72-7.29,6.59-4.13,12.16-9.7,16.29-16.29,1.77-2.89,3.14-6,4.07-9.26.75-2.84,1.13-5.77,1.13-8.72,0-4.28-.95-8.52-2.8-12.38-.28-.61-.59-1.2-.94-1.78-.29-.5-.54-.94-.77-1.26l-.5-.76c-.03-.24-.08-.34-.07-.35Z"/>
    <path class="cls-14" d="M711.13,520.15c-.19.07-1.18-2.13-2.85-4.55-1.67-2.42-3.37-4.14-3.22-4.29,2.99,2.15,5.14,5.28,6.07,8.84Z"/>
    <path class="cls-14" d="M724.08,508.06c-1.42-1.24-2.94-2.35-4.55-3.33-1.72-.77-3.5-1.38-5.32-1.85,3.99-.22,7.78,1.76,9.87,5.17h0Z"/>
    <path class="cls-14" d="M731.13,493.65c-.07.19-2.06-.42-4.58-.76s-4.6-.33-4.62-.53c1.53-.45,3.15-.51,4.71-.18,1.59.11,3.13.62,4.48,1.47Z"/>
    <path class="cls-14" d="M729.91,476.86c-1.33.48-2.69.87-4.07,1.14-1.33.49-2.69.89-4.07,1.19,1.12-.94,2.46-1.59,3.9-1.87,1.36-.5,2.82-.66,4.25-.46Z"/>
    <path class="cls-14" d="M689.24,528.28c-.82-1.29-1.19-2.82-1.06-4.34-.11-1.53.28-3.05,1.1-4.34.2.07-.39,1.96-.39,4.34s.54,4.28.35,4.34Z"/>
    <path class="cls-14" d="M667.34,523.99c.46-1.06,1.12-2.02,1.96-2.82,1.22-1.44,2.35-2.5,2.48-2.36s-.72,1.36-1.94,2.82c-1.22,1.47-2.35,2.48-2.5,2.36Z"/>
    <path class="cls-14" d="M806.54,521.06s0,.19.16.57c.16.56.29,1.13.38,1.71.3,1.52.57,3.82.87,6.79.57,5.97,1.09,14.76,1.51,25.97.84,22.42,1.36,54.51,1.52,93.17v.08c-2.86,9.73-6.48,19.7-10.47,29.99-3.99,10.29-8.32,20.9-13.46,31.53-10.18,21.3-22.02,43.35-34.69,65.92l-.18.31-.3-.18-3.68-2-36.09-19.7-.26-.14.1-.29,39.84-117.31v.14c-5.8-32.45-10.55-59.05-13.85-77.54-1.64-9.23-2.91-16.44-3.77-21.36-.42-2.44-.75-4.32-.96-5.59s-.31-1.91-.31-1.91c0,0,.15.65.39,1.9s.58,3.14,1.05,5.58c.9,4.91,2.23,12.11,3.92,21.33,3.35,18.48,8.15,45.06,14.09,77.5v.14c-11.26,33.25-24.83,73.43-39.7,117.36l-.16-.42,36.03,19.69,3.68,2.01-.48.14c12.65-22.57,24.44-44.6,34.69-65.86,5.12-10.62,9.5-21.22,13.47-31.47,3.96-10.25,7.63-20.24,10.5-29.87v.08c0-38.65-.53-70.74-1.26-93.15-.38-11.21-.84-20-1.36-25.96-.27-2.99-.52-5.27-.79-6.79-.08-.58-.19-1.16-.33-1.72-.05-.21-.08-.42-.11-.64Z"/>
    <path class="cls-14" d="M780.67,492.15c-2.08-1.04-4.23-1.95-6.44-2.72-10.89-3.62-22.88-1.17-31.46,6.45-1.72,1.58-3.34,3.26-4.85,5.04.27-.57.62-1.11,1.03-1.59,1.04-1.38,2.2-2.66,3.48-3.83,8.59-7.99,20.92-10.51,31.96-6.54,1.63.57,3.2,1.3,4.7,2.16.57.28,1.09.62,1.57,1.03Z"/>
    <g class="cls-18">
      <path class="cls-2" d="M796.82,688c.22-.57.42-1.14.64-1.7l-.35.24-.29,1.45Z"/>
      <path class="cls-2" d="M818.27,613.21c-1.71-17.43-3.96-34.87-8.5-51.78-3.84,29.37,3.69,59.5-1.36,88.69-2.15,12.45-6.53,24.44-10.98,36.2,11.11-7.26,17.8-19.97,20.45-32.99,2.65-13.02,1.71-26.75.39-40.11Z"/>
    </g>
    <g class="cls-18">
      <path class="cls-2" d="M717.29,622.06l-47.15-35.59c.53,13.27,10.62,24.15,21.11,32.3,10.5,8.15,24.75,17.51,34.69,26.31-3.22-7.33-5.35-15.7-8.65-23.03Z"/>
    </g>
    <path class="cls-16" d="M738.09,556.98c-.23.32-.49.62-.76.9-.52.57-1.36,1.36-2.32,2.46-2.86,3.02-6.05,5.71-9.5,8.02-2.42,1.59-5.06,2.79-7.85,3.56-3.24.83-6.64.83-9.88,0-3.52-1.03-6.86-2.58-9.93-4.59-3.22-1.97-6.39-4.26-9.91-6.1-3.35-1.9-7.09-3.02-10.93-3.29-3.58-.06-7.08,1.08-9.94,3.24-2.61,1.97-5.09,4.1-7.43,6.38-2.08,2-4.44,3.7-6.99,5.04-2.13,1.13-4.53,1.63-6.94,1.45-1.82-.11-3.57-.7-5.09-1.7-.97-.61-1.77-1.45-2.35-2.44-.2-.34-.36-.71-.48-1.09,0,0,.19.37.6,1,.61.93,1.42,1.72,2.38,2.29,1.5.92,3.21,1.45,4.97,1.53,2.33.13,4.64-.4,6.69-1.51,2.48-1.35,4.77-3.04,6.79-5.02,2.34-2.31,4.83-4.48,7.44-6.48,1.47-1.06,3.07-1.91,4.77-2.54,1.79-.63,3.67-.92,5.57-.87,3.95.25,7.8,1.4,11.24,3.35,3.58,1.86,6.79,4.17,9.95,6.14,3,1.98,6.27,3.51,9.72,4.53,1.6.45,3.26.66,4.93.64,1.57,0,3.13-.17,4.66-.54,2.74-.73,5.34-1.88,7.73-3.41,3.43-2.27,6.61-4.89,9.5-7.81l2.4-2.35c.29-.31.62-.58.96-.83Z"/>
    <path class="cls-16" d="M806.97,548.74c-.17.2-.36.38-.57.54-.59.46-1.24.84-1.94,1.13-2.62.97-5.48,1.06-8.15.24-7.07-1.63-13.35-10.26-23.92-12.22-2.49-.58-5.02-.9-7.58-.96-2.38-.03-4.75.15-7.1.54-3.98.66-7.83,1.96-11.4,3.83-3.27,1.78-6.29,4-8.96,6.6.14-.22.31-.42.5-.6l1.53-1.63c.75-.62,1.63-1.44,2.72-2.27l1.82-1.28c.64-.46,1.36-.81,2.15-1.26,3.59-1.98,7.49-3.36,11.53-4.07,2.38-.42,4.8-.62,7.22-.6,2.6.04,5.19.37,7.73.96,2.53.58,5,1.44,7.35,2.57,1.1.62,2.21,1.18,3.23,1.82s1.98,1.36,2.92,2.01c3.68,2.72,7.07,5.12,10.4,6.04,2.58.84,5.36.84,7.94,0,.92-.36,1.79-.83,2.59-1.4Z"/>
    <path class="cls-16" d="M842.2,529.69c0,.07-.62.35-1.63,1.13-1.39,1.11-2.54,2.5-3.38,4.07-1.21,2.37-2.08,4.9-2.57,7.52-.55,3.27-1.42,6.48-2.59,9.59-1.35,3.1-3.64,5.71-6.54,7.45-2.34,1.43-4.97,2.32-7.7,2.59-1.82.18-3.66.04-5.43-.42-.47-.12-.92-.28-1.36-.48-.33-.12-.49-.19-.48-.22s.69.18,1.94.42c1.76.36,3.57.43,5.35.2,2.64-.35,5.17-1.28,7.41-2.72,2.76-1.7,4.93-4.21,6.23-7.18,1.15-3.06,2.02-6.22,2.61-9.44.51-2.67,1.43-5.24,2.72-7.63.9-1.61,2.14-3.01,3.65-4.07.4-.29.83-.54,1.29-.73.34-.05.48-.12.48-.09Z"/>
    <path class="cls-16" d="M683.35,596.93c-.03.49-.12.97-.27,1.44-.12.56-.28,1.12-.48,1.66-.24.72-.52,1.44-.83,2.13-.37.85-.79,1.68-1.26,2.47-.52.94-1.09,1.85-1.71,2.72-2.89,3.96-6.71,7.14-11.13,9.26-1.8.85-3.69,1.5-5.63,1.94-.74.18-1.5.31-2.25.39-.57.09-1.14.14-1.71.14-.49.06-.98.06-1.47,0,0-.15,2.09-.16,5.31-.99,1.87-.5,3.69-1.18,5.43-2.04,2.13-1.08,4.13-2.39,5.97-3.9,1.82-1.54,3.47-3.28,4.91-5.17.63-.83,1.21-1.7,1.74-2.59.51-.76.96-1.56,1.36-2.39,1.4-3.05,1.85-5.11,2.02-5.06Z"/>
    <path class="cls-5" d="M896.58,709.27c-.73.2-1.47.33-2.23.39-.88.15-1.76.24-2.65.27-1.17.1-2.34.14-3.52.11-1.42.02-2.84-.05-4.25-.2-1.53-.1-3.15-.39-4.86-.65-3.68-.73-7.28-1.8-10.75-3.2-3.45-1.47-6.75-3.26-9.86-5.36-1.36-1.02-2.72-1.94-3.9-2.97-1.1-.89-2.16-1.85-3.15-2.86-.96-.88-1.71-1.81-2.4-2.57-.6-.65-1.16-1.34-1.67-2.06-.5-.58-.96-1.19-1.36-1.85.55.51,1.06,1.07,1.51,1.67.55.69,1.14,1.35,1.77,1.97.71.73,1.48,1.63,2.44,2.47,1.01.98,2.08,1.91,3.19,2.78,1.14.99,2.5,1.9,3.88,2.89,3.09,2.04,6.36,3.79,9.76,5.24,3.43,1.39,6.98,2.46,10.6,3.2,1.68.29,3.27.61,4.79.72,1.4.17,2.8.27,4.21.3,1.36.08,2.46,0,3.49,0,.88,0,1.76-.05,2.63-.15.76-.1,1.54-.15,2.31-.14Z"/>
    <path class="cls-5" d="M787.73,777.79c-.19,0,2.72-13.5,6.5-30.06,3.79-16.56,6.99-29.95,7.18-29.87s-2.72,13.51-6.5,30.07c-3.79,16.56-7.02,29.95-7.18,29.86Z"/>
    <path class="cls-11" d="M722.91,486.9h0c.19-2.62-.27-5.24-1.36-7.63l-41.21-90.21c-9.6-25.89-32.68-41.9-58.3-31.58l-2.32,1.1c-23.3,10.98-34.24,38.03-25.13,62.13,8.45,22.4,18.07,47.03,23.68,58.55,11.61,23.83,37.34,16.29,37.34,16.29l4.81,9.18s5.02,17.28,26.5,14.87c16.52-1.87,28.74-17.91,33.52-25.23,1.45-2.24,2.3-4.81,2.47-7.47Z"/>
    <path class="cls-4" d="M655.41,495.51c11.13-5.25,20.53-13.58,27.06-24.02,0,0,.76,20.73-24.18,29.87l-2.88-5.85Z"/>
    <path class="cls-14" d="M610.03,438.73c.85,1.87,3.04,2.71,4.93,1.9,1.87-.71,2.82-2.8,2.11-4.67,0-.03-.02-.05-.03-.08-.86-1.86-3.04-2.71-4.93-1.9-1.87.7-2.82,2.78-2.12,4.65.01.04.03.07.04.1Z"/>
    <path class="cls-14" d="M605.28,429.95c.64.26,2.32-2.89,6.01-4.62,3.69-1.72,7.25-1.17,7.44-1.81.11-.3-.71-.9-2.29-1.19-2.11-.35-4.29-.05-6.22.88-1.92.91-3.5,2.39-4.52,4.25-.72,1.38-.72,2.39-.42,2.48Z"/>
    <path class="cls-14" d="M643.8,423.04c.85,1.87,3.04,2.71,4.93,1.9,1.87-.7,2.82-2.78,2.12-4.65-.01-.04-.03-.07-.04-.1-.85-1.87-3.04-2.71-4.93-1.9-1.87.71-2.82,2.8-2.11,4.67,0,.03.02.05.03.08Z"/>
    <path class="cls-14" d="M641.82,413.55c.62.24,2.32-2.91,6-4.63,3.68-1.72,7.26-1.15,7.45-1.81.1-.29-.71-.9-2.29-1.19-2.12-.35-4.29-.04-6.22.9-1.92.89-3.5,2.38-4.52,4.24-.72,1.41-.73,2.39-.42,2.5Z"/>
    <path class="cls-14" d="M641.34,447.18c-.08-.22-2.55.46-6.49,1.74-.99.35-1.97.58-2.43,0-.54-.93-.78-2.01-.69-3.08-.19-2.72-.38-5.51-.6-8.47-.95-12.03-2.12-21.72-2.59-21.72s-.11,9.82.84,21.83c.25,2.96.5,5.78.75,8.47-.05,1.41.39,2.8,1.25,3.92.6.54,1.41.78,2.2.64.59-.1,1.16-.28,1.7-.53,3.83-1.51,6.15-2.58,6.07-2.8Z"/>
    <path class="cls-14" d="M653.38,444.6c-.61.26,1.26,4.25-.81,8.7-2.08,4.45-6.54,6.03-6.31,6.6,0,.29,1.36.33,3.14-.48,2.38-1.06,4.3-2.92,5.43-5.27,1.07-2.25,1.22-4.82.43-7.18-.69-1.74-1.62-2.53-1.87-2.38Z"/>
    <path class="cls-14" d="M634.05,399.57c.83.83,4.29-1.36,8.85-2.91,4.56-1.55,8.62-1.98,8.77-3.16,0-.54-1-1.19-2.86-1.51-4.95-.61-9.9,1.09-13.43,4.62-1.29,1.4-1.71,2.55-1.33,2.96Z"/>
    <path class="cls-14" d="M601.6,418.66c1.05.53,3.18-1.53,6.2-3.01,3.03-1.48,5.91-2.1,6.08-3.26,0-.54-.75-1.19-2.24-1.45-1.97-.26-3.97.1-5.73,1.03-1.79.89-3.25,2.31-4.18,4.07-.67,1.32-.61,2.35-.14,2.62Z"/>
    <path class="cls-11" d="M687.5,414.22c-1.58-3.66.11-7.9,3.77-9.47.1-.04.2-.09.31-.12,4.67-1.68,10.86-1.49,14.94,7.89,7.21,16.63-10.98,20.45-11.21,19.99s-4.83-11.3-7.79-18.28Z"/>
    <path class="cls-4" d="M696.18,424.66c0-.08.37.08.96.1.81-.02,1.59-.34,2.19-.9,1.47-1.36,1.74-4.85.52-7.87-.57-1.45-1.46-2.75-2.61-3.8-.77-.92-1.94-1.39-3.14-1.28-.76.12-1.33.76-1.36,1.53,0,.57.23.86.15.92s-.48-.14-.64-.87c-.09-.46-.02-.94.2-1.36.29-.53.78-.93,1.36-1.11,1.51-.33,3.09.14,4.15,1.26,1.33,1.14,2.36,2.57,3.01,4.2,1.36,3.39.99,7.28-1.11,9.02-.79.65-1.83.92-2.84.72-.65-.16-.91-.43-.86-.56Z"/>
  </g>
  <g id="freepik--Device--inject-14">
    <path class="cls-3" d="M544.16,771.29h82.06c2.25,0,4.07,1.82,4.07,4.07h0c0,2.25-1.82,4.07-4.07,4.07h-82.06c-2.25,0-4.07-1.82-4.07-4.07h0c0-2.25,1.82-4.07,4.07-4.07h0Z"/>
    <path class="cls-3" d="M557.24,779.48h-155.22l-15.33-104.87c-.73-4.89,2.63-9.44,7.52-10.18.44-.07.88-.1,1.32-.1l136.29,1.1c4.41,0,8.64,2.13,9.3,6.5l16.12,107.55Z"/>
    <path class="cls-16" d="M477.99,720.66c0,4.72-3.81,8.55-8.53,8.55s-8.55-3.81-8.55-8.53,3.81-8.55,8.53-8.55h.03c4.71,0,8.53,3.82,8.53,8.53Z"/>
    <path class="cls-14" d="M550.5,778.57c-.19,0-4.52-25.27-9.68-56.48-5.16-31.21-9.19-56.58-8.99-56.62s4.52,25.27,9.68,56.5c5.16,31.23,9.18,56.56,8.99,56.6Z"/>
  </g>
  <g id="freepik--Desk--inject-14">
    <rect class="cls-5" x="37.4" y="779.48" width="914.45" height="22.48"/>
    <path class="cls-14" d="M231.12,779.81l-.29.24c-.22.15-.52.38-.96.67-1.44.88-2.98,1.58-4.59,2.08-2.88.88-5.84,1.44-8.84,1.67-4.1.32-8.21.42-12.31.3-4.59-.08-9.5-.48-14.84-.96s-10.86-1.03-16.89-1.13c-11.99-.24-25.01,1.52-38.02,4.07-13.01,2.55-25.24,5.61-36.9,7.43-5.82.91-11.47,1.56-16.82,1.87-4.97.29-9.96.29-14.94,0-6.96-.33-13.85-1.55-20.5-3.64-2.19-.7-4.32-1.61-6.34-2.72.15.03.31.08.45.15l1.21.52c1.07.45,2.72,1.09,4.9,1.78,6.62,1.99,13.46,3.15,20.37,3.46,4.9.28,9.82.28,14.72-.01,5.3-.33,10.86-.99,16.65-1.91,11.57-1.83,23.71-4.82,36.81-7.45,13.1-2.63,26.26-4.4,38.42-4.07,6.08.12,11.74.71,17.01,1.19s10.2.92,14.72,1.03c4.07.15,8.15.08,12.22-.2,2.95-.2,5.87-.72,8.72-1.53,2.14-.66,4.17-1.61,6.06-2.82Z"/>
    <path class="cls-14" d="M131.09,780.15c-.88.5-1.79.96-2.72,1.36-2.73,1.16-5.51,2.16-8.35,3.01-4.46,1.32-8.99,2.36-13.58,3.12-5.9.94-11.86,1.46-17.83,1.56-10.74.27-21.47-.97-31.87-3.69-2.77-.66-5.39-1.86-7.7-3.53-.48-.39-.91-.84-1.25-1.36-.19-.34-.27-.52-.24-.52.53.63,1.11,1.21,1.72,1.75,2.35,1.55,4.96,2.66,7.7,3.29,10.3,2.54,20.88,3.7,31.49,3.46,5.88-.1,11.75-.6,17.57-1.49,4.58-.73,9.11-1.72,13.58-2.96,3.69-1.07,6.54-2.09,8.46-2.82.98-.46,1.99-.85,3.01-1.18Z"/>
    <path class="cls-14" d="M345.65,794.4s.5.1,1.36.3,2.34.43,4.22.62c5.37.56,10.8.1,15.99-1.36v.29c-6.31-2.6-13.03-4.07-19.85-4.34-8.77-.55-17.55.74-25.8,3.77-.96.39-1.9.87-2,1.45s.67,1.13,1.71,1.45c1.16.35,2.34.58,3.54.71l3.9.49c5.24.65,10.64,1.36,16.29,1.77,5.74.51,11.5.73,17.26.67,2.95,0,5.92-.2,8.87-.48,1.48-.15,2.96-.3,4.41-.52,1.44-.18,2.87-.44,4.28-.79,1.97-.41,3.84-1.16,5.54-2.24,1.36-.99,1.83-2.31,1.06-3.46-1.16-1.3-2.67-2.25-4.34-2.72-1.99-.68-4.01-1.24-6.07-1.67-8.36-1.75-16.86-2.75-25.4-2.96-14.55-.51-29.11.74-43.37,3.71-8.93,1.86-17.67,4.54-26.11,8.02-2.78,1.21-4.93,2.17-6.3,2.88l-1.62.76-.57.26c.15-.12.31-.22.49-.3l1.55-.81c1.36-.75,3.44-1.74,6.19-2.99,8.39-3.6,17.12-6.36,26.05-8.25,14.37-3.09,29.07-4.41,43.76-3.92,8.67.2,17.31,1.19,25.8,2.97,2.13.43,4.22,1,6.27,1.71,1.86.52,3.53,1.58,4.79,3.04.94,1.36.38,2.95-1.22,4.07-1.82,1.17-3.85,2-5.97,2.44-1.47.35-2.95.63-4.45.81-1.48.22-2.99.38-4.49.53-3.01.27-6.03.45-9.02.48-5.83.07-11.66-.15-17.46-.68-5.63-.48-11.07-1.13-16.29-1.79l-3.9-.52c-1.3-.13-2.58-.38-3.83-.76-.58-.17-1.12-.44-1.6-.8-.41-.26-.64-.73-.58-1.21.19-.9,1.36-1.44,2.42-1.85,8.46-3.1,17.47-4.39,26.46-3.79,6.93.3,13.76,1.84,20.15,4.55l.37.16-.41.12c-5.32,1.48-10.88,1.91-16.36,1.28-1.94-.18-3.85-.55-5.72-1.11Z"/>
    <path class="cls-14" d="M463.4,780.4c.38.3.69.69.9,1.13.59,1.02.81,2.22.61,3.38-.3,2.89-3.46,6.69-8.91,9.8-2.64,1.59-5.43,2.92-8.32,3.98-2.61.94-5.3,1.67-8.02,2.19-2.4.46-4.43.69-5.81.83-.73.09-1.47.12-2.2.1,0-.11,3.07-.35,7.74-1.36,2.63-.58,5.21-1.34,7.73-2.28,2.8-1.06,5.5-2.37,8.06-3.92,5.34-3.04,8.45-6.65,8.93-9.42.24-1.51,0-3.05-.71-4.41Z"/>
    <path class="cls-14" d="M627.55,800.78c-.11,0-1.29-.95-4.21-2.29-4.52-2.03-9.36-3.25-14.3-3.63-3.62-.3-7.26-.24-10.86.18-4.23.55-8.5.77-12.76.67-4.41-.39-8.72-1.58-12.71-3.5-4.07-1.92-8.36-3.35-12.76-4.26-9.36-1.73-18.96-1.82-28.35-.24-7.2,1.18-14.24,3.18-20.98,5.97-4.18,1.71-8.26,3.66-12.22,5.84l-3.11,1.72c-.35.22-.73.41-1.11.57.29-.26.61-.48.95-.67.65-.42,1.64-1.03,2.96-1.81,3.87-2.27,7.87-4.28,12-6.03,6.8-2.89,13.91-4.96,21.19-6.18,9.61-1.63,19.43-1.56,29.01.22,4.51.93,8.9,2.39,13.06,4.36,3.81,1.87,7.93,3.03,12.15,3.42,4.17.12,8.35-.08,12.49-.6,3.71-.4,7.45-.44,11.17-.11,5.01.41,9.9,1.73,14.43,3.88,1.43.63,2.75,1.47,3.94,2.48Z"/>
    <path class="cls-14" d="M774.15,779.69c-.31.29-.65.54-1,.77-.71.48-1.64,1.24-3.12,2.09-4.25,2.59-8.72,4.82-13.35,6.67-7.49,3.04-15.21,5.45-23.1,7.21-4.63,1.06-9.61,2.01-14.94,2.72-5.54.75-11.11,1.16-16.7,1.21-10.67-.03-21.31-1.27-31.7-3.71-7.89-1.79-15.61-4.25-23.08-7.35-4.6-1.9-9.04-4.17-13.27-6.79-1.47-.86-2.42-1.6-3.12-2.09-.36-.22-.69-.48-1-.76.41.2.81.42,1.18.68.76.46,1.77,1.18,3.27,2.01,4.31,2.5,8.79,4.69,13.41,6.53,7.44,3.02,15.11,5.41,22.95,7.17,10.27,2.38,20.77,3.59,31.31,3.61,5.51-.05,11.01-.45,16.47-1.18,5.25-.65,10.2-1.57,14.8-2.61,7.87-1.73,15.59-4.09,23.08-7.05,4.66-1.81,9.17-3.98,13.5-6.48,1.52-.81,2.5-1.55,3.27-2,.36-.25.75-.47,1.14-.67Z"/>
    <path class="cls-14" d="M753.2,779.48s-.24.15-.77.35-1.36.54-2.38.91c-2.08.76-5.17,1.79-9.15,2.91-4.76,1.36-9.59,2.46-14.47,3.31-6.23,1.16-12.55,1.77-18.89,1.82-11.34-.09-22.61-1.69-33.52-4.77-3.08-.85-6.11-1.85-9.08-3-1.03-.38-1.78-.72-2.31-.95-.26-.09-.52-.21-.75-.37,0,0,1.19.39,3.3,1.11s5.2,1.74,9.19,2.81c10.82,2.89,21.97,4.41,33.17,4.52,6.23-.05,12.44-.63,18.57-1.74,5.59-.94,10.44-2.09,14.43-3.15s7.14-2.02,9.29-2.72,3.33-1.1,3.37-1.06Z"/>
    <path class="cls-14" d="M913.13,781.78h-1.82l-5.16-.11-3.71-.1h-15.3l-6.27.11-6.79.26c-4.7.14-9.61.49-14.83.77-10.33.73-21.53,1.78-32.92,3.2-11.39,1.43-21.72,3.22-30.85,4.96-4.44.94-8.8,1.77-12.55,2.72l-5.53,1.29-4.89,1.29c-3.18.8-5.8,1.62-8.15,2.31l-3.29.98-2.59.87-3.65,1.19c-.44.16-.9.3-1.36.39.34-.2.71-.36,1.09-.48l3.39-1.28,2.48-.92,3.19-1c2.29-.73,4.87-1.57,8.02-2.4l4.85-1.36,5.51-1.36c3.73-.95,8.15-1.81,12.55-2.72,9.16-1.78,19.62-3.54,31.08-5.04,11.46-1.49,22.82-2.48,33.28-3.19,5.28-.27,10.25-.61,14.94-.72l6.79-.23,6.34-.07c4.07-.08,7.68,0,10.86,0h4.47l3.72.15,5.15.23c.65.04,1.3.12,1.94.24Z"/>
    <path class="cls-14" d="M643.98,800.33c-1.58-1.27-3.26-2.39-5.04-3.37-5.8-2.88-12.02-4.83-18.42-5.78-4.29-.76-9.14-1.36-14.38-1.79s-10.86-.83-16.82-1.36-12.03-1.49-18.25-2.57c-6.22-1.07-12.63-2.24-19.42-2.7-12.75-.75-25.54.24-38.02,2.95-5.59,1.15-10.7,2.54-15.44,3.9s-9.06,2.72-12.99,3.96c-7.87,2.5-14.13,4.63-18.47,6.11l-4.96,1.71-1.36.43-.46.14c.12-.08.26-.14.39-.19l1.24-.49,4.86-1.81c4.25-1.55,10.47-3.75,18.3-6.3,3.91-1.28,8.24-2.65,12.97-4.07,4.72-1.43,9.86-2.81,15.51-3.98,12.61-2.77,25.55-3.79,38.44-3.03,6.59.58,13.16,1.48,19.66,2.72,6.22,1.09,12.22,2.04,18.13,2.59s11.51.98,16.78,1.47,10.14,1.09,14.47,1.87c6.47,1,12.73,3.04,18.55,6.06,1.77.89,3.37,2.08,4.72,3.53Z"/>
    <path class="cls-14" d="M438.01,779.81c.08.48.03.98-.14,1.44-.37,1.36-.97,2.64-1.79,3.79-2.1,3.07-6.44,7.22-14.05,10.12-6.79,2.35-13.75,4.16-20.83,5.43-2.8.52-5.06.9-6.65,1.13-.83.15-1.66.25-2.5.29.78-.23,1.56-.4,2.36-.53l6.52-1.36c6.94-1.37,13.78-3.21,20.47-5.5,5.47-1.89,10.3-5.26,13.94-9.75,1.1-1.56,2-3.26,2.66-5.05Z"/>
    <path class="cls-14" d="M225.71,801.96c.71-.45,1.46-.85,2.23-1.19,1.48-.76,3.69-1.78,6.52-3,7.62-3.22,15.4-6.04,23.31-8.45,9.5-2.95,18.38-5.3,24.83-6.95,3.22-.83,5.84-1.49,7.66-1.93.95-.27,1.91-.48,2.88-.62-.88.34-1.79.63-2.72.84l-7.51,2.12c-6.35,1.77-15.15,4.17-24.63,7.09-9.48,2.92-17.65,5.92-23.38,8.25-2.86,1.17-5.16,2.15-6.71,2.84-.8.4-1.63.73-2.48,1Z"/>
    <path class="cls-14" d="M268.79,780.74c0,.07-2.1-.16-5.89,0-5.17.29-10.29,1.16-15.26,2.61-6.75,2.09-13.36,4.59-19.81,7.48-3.9,1.65-7.89,3.1-11.93,4.34-4.68,1.37-9.46,2.4-14.28,3.1-9.68,1.27-19.44,1.92-29.2,1.97-9.04.15-17.16,0-23.96.2s-12.22.52-16.03.88c-1.87.19-3.33.35-4.3.49-.5.08-1,.13-1.51.15,0,0,.49-.11,1.45-.27s2.4-.38,4.28-.61c3.73-.45,9.25-.9,16.08-1.09s14.94-.16,23.96-.34c9.69-.07,19.38-.74,28.99-2,4.75-.69,9.44-1.7,14.05-3.03,4.29-1.29,8.15-2.8,11.84-4.28,6.52-2.89,13.23-5.37,20.07-7.4,5.07-1.43,10.29-2.25,15.56-2.44,1.91,0,3.41,0,4.41.08.51.01,1.01.06,1.51.15Z"/>
  </g>
  <path class="cls-15" d="M591.69,408.6s-.83-17.84,4.66-24.7c6.69-8.33,14.95-.61,22.1-6.85,7.16-6.25,13.51-14.19,24.92-11.81,12.57,2.58,10.59,9.56,16.13,19.74,22.64,41.52,36.16,49.88,28.8,28.73-.83-2.39,4.49-6.97.95-16.7-4.58-12.61-11.08-27.47-17.85-34.75-5.72-6.13-12.19-9.16-22.19-11.13-15.88-3.07-31.81,4.3-42.19,10.57-10.38,6.28-25.19,28.77-15.34,46.89Z"/>
  <path class="cls-15" d="M671.31,382.56c-1.21,2.56-3.05,4.77-5.35,6.44-1.17.8-2.59,1.15-3.99.98-1.4-.17-2.7-.84-3.64-1.9-.73-1.03-1.07-2.46-2.24-3-1.17-.54-2.86.49-4.14,1.29-2.28,1.31-4.95,1.8-7.55,1.38-2.6-.42-4.97-1.73-6.73-3.69-.34,1.15-1.1,2.13-2.13,2.75-1.03.62-2.25.83-3.43.59-2.33-.56-4.57-1.44-6.67-2.61-1.05-.59-2.22-.91-3.42-.93-1.2-.03-2.39.24-3.46.78-.96.94-2.02,1.77-3.16,2.47-2.23.83-4.45-1.18-5.79-3.14-1.34-1.95-2.71-4.23-5.09-4.59-2.2.16-4.28,1.08-5.88,2.6-1.81,1.23-4.61,2-5.95.36-.33-.47-.56-1.01-.67-1.57-.11-.56-.11-1.15,0-1.71.38-2.59,1.62-4.97,3.53-6.76,1.9-1.79,4.36-2.89,6.97-3.11-.49-3.08-.06-6.23,1.24-9.07,1.3-2.83,3.42-5.22,6.07-6.85,2.66-1.63,5.74-2.44,8.85-2.31,3.12.12,6.12,1.17,8.65,3,.98-2.38,2.52-4.49,4.49-6.15,1.97-1.66,4.31-2.82,6.82-3.38,2.51-.56,5.12-.52,7.61.14,2.49.66,4.78,1.91,6.68,3.64,1.74-1.48,3.87-2.41,6.14-2.68s4.56.14,6.59,1.16c2.04,1.03,3.72,2.63,4.85,4.62,1.13,1.98,1.65,4.25,1.49,6.53,1.86.03,3.69.53,5.31,1.46,1.62.93,2.97,2.26,3.93,3.85,1.76,3.26-.03,8.23-3.74,8.9,1.33.99,2.23,2.45,2.5,4.09.27,1.64-.1,3.31-1.04,4.68-.94,1.37-2.37,2.32-3.99,2.65-1.62.33-3.32.03-4.72-.86"/>
  <path class="cls-1" d="M603.6,374.55l.15.29c.12.29.28.57.45.84.74,1,1.64,1.87,2.67,2.57,1.61,1.12,3.46,1.85,5.41,2.12,2.59.44,5.24,0,7.56-1.23l-.43-.22c.08.86.33,1.69.74,2.44s.96,1.42,1.63,1.96c1.41,1.12,2.98,2.02,4.65,2.67.87.42,1.78.76,2.71,1.01,1.02.15,2.06.05,3.03-.29,1.02-.31,1.96-.88,2.71-1.64s1.31-1.69,1.62-2.72l-.7.12c1.03,1.58,2.37,2.92,3.95,3.95,1.58,1.03,3.35,1.71,5.21,2.01,2.09.41,4.25.13,6.17-.79,1.76-.94,3.34-2.17,4.69-3.64h-.54c1.78,1.57,3.93,2.66,6.24,3.19,1.08.29,2.21.34,3.32.14,1.1-.2,2.15-.65,3.05-1.3,1.53-1.18,2.68-2.78,3.31-4.6.63-1.83.71-3.8.22-5.67l-.27.34c2.14.1,4.24-.54,5.96-1.82,1.29-.93,2.33-2.16,3.05-3.58.45-.9.75-1.86.87-2.86.02-.34.03-.69.01-1.03-.17,1.3-.55,2.57-1.14,3.74-.75,1.34-1.79,2.48-3.06,3.35-1.65,1.18-3.65,1.77-5.67,1.66l-.39-.04.18.33c.42,1.75.32,3.58-.28,5.28-.6,1.7-1.68,3.18-3.1,4.28-.83.59-1.79.98-2.79,1.15-1,.17-2.03.12-3.01-.16-2.18-.52-4.19-1.56-5.87-3.03l-.28-.25-.31.17c-1.3,1.39-2.82,2.57-4.5,3.48-1.76.85-3.76,1.1-5.68.7-1.75-.27-3.43-.91-4.93-1.86-1.49-.96-2.77-2.22-3.76-3.69l-.42-.77-.22.86c-.28.9-.78,1.72-1.44,2.38-.67.67-1.48,1.16-2.38,1.44-.86.31-1.78.41-2.69.28-.88-.23-1.73-.54-2.55-.93-1.62-.62-3.13-1.47-4.51-2.52-.62-.46-1.14-1.05-1.53-1.71-.39-.67-.65-1.4-.76-2.17l-.05-.46-.4.21c-2.19,1.21-4.71,1.68-7.18,1.34-1.89-.24-3.7-.91-5.29-1.95-1.32-.93-2.49-2.07-3.44-3.38Z"/>
</svg>