<?xml version="1.0" encoding="UTF-8"?>
<svg id="Layer_2" data-name="Layer 2" xmlns="http://www.w3.org/2000/svg" viewBox="0 0 1000 1000">
  <defs>
    <style>
      .cls-1 {
        fill: #000;
      }

      .cls-1, .cls-2, .cls-3, .cls-4, .cls-5, .cls-6, .cls-7, .cls-8, .cls-9, .cls-10 {
        stroke-width: 0px;
      }

      .cls-2 {
        fill: #e0e0e0;
      }

      .cls-3 {
        fill: #eb996e;
      }

      .cls-4 {
        fill: #455a64;
      }

      .cls-5 {
        fill: #09f;
      }

      .cls-6 {
        fill: #ffbe9d;
      }

      .cls-7 {
        fill: #ebebeb;
      }

      .cls-8 {
        fill: #263238;
      }

      .cls-9 {
        fill: #fafafa;
      }

      .cls-10 {
        fill: #fff;
      }

      .cls-11 {
        opacity: .2;
      }
    </style>
  </defs>
  <g id="freepik--background-complete--inject-2">
    <path class="cls-7" d="M822.6,806.96l5.56-12.27c9.77-22.41-.48-48.49-22.89-58.25-22.41-9.77-48.49.48-58.25,22.89l-5.65,12.51c-11.83-3.18-24.2,2.78-29.1,14.01l-31.74,72.96c-5.46,12.53.28,27.11,12.8,32.57,0,0,.01,0,.02,0l75.73,32.99c12.54,5.46,27.13-.28,32.59-12.82,0,0,0,0,0,0l31.72-72.96c5.12-11.75.44-25.46-10.8-31.63ZM759.36,871.49l-19.8-8.62,9.33-12.95c-4.15-5.99-2.65-14.21,3.34-18.36s14.21-2.65,18.36,3.34c4.15,5.99,2.65,14.21-3.34,18.36-1.55,1.07-3.31,1.8-5.16,2.14-1.06,6.16-2.73,16.1-2.73,16.1ZM813.91,803.06l-63.67-27.69,5.52-12.19c7.86-17.48,28.41-25.28,45.89-17.42,17.15,7.72,25.04,27.69,17.78,45.04l-5.52,12.25Z"/>
    <path class="cls-2" d="M370.78,312.47l-12.69-22.1-19.8,2.93-16.43-20.63,8.38-20.54-22.17-14.69-16.54,16.67-21.8-3.81-8.8-25.65-26.39,2.79-1.5,22.43-19.8,10.03-20.89-14.8-21.2,15.4,11,23.73-12.6,18.98-22.96-1.17-5.98,28.26,21.8,8.38,1.87,23.75-22.59,12.98,10.8,24.5,23.4-3.63,15.4,17.88-8.09,22.3,21.42,15.13,16.72-18.1,23.2,6.27,7.21,23.95,25.8-1.74,3.32-21.51,21.99-12.69,18.1,14.43,22.87-17.05-11.57-20.15,11.26-20.19,23.2,1.72,7.1-26.39-19.91-10.78-2.66-23.95,19.51-12.95ZM280.98,389.85c-24.96,14.34-56.83,5.73-71.16-19.24-14.34-24.96-5.73-56.83,19.24-71.16,24.96-14.34,56.83-5.73,71.16,19.24,0,0,0,0,0,.01,14.34,24.95,5.73,56.8-19.22,71.14l-.03.02Z"/>
    <path class="cls-7" d="M206.46,94.62c0-18.87-19.8-30.79-40.05-21.38-4.58,2.14-8.32,5.72-10.65,10.21-5.08,9.85-2.84,21.11,1.76,30.46l15.68,39.9c1.38,3.49,5.32,5.21,8.81,3.83,1.75-.69,3.14-2.08,3.83-3.83l15.4-40.12c5.45-12.25,5.21-19.07,5.21-19.07ZM187.46,111.05c-13.59,7.92-27.36-6.6-19.8-21.11,1-1.92,2.52-3.52,4.4-4.6,13.59-7.9,27.38,6.6,19.93,21.14-1.03,1.94-2.6,3.53-4.53,4.57Z"/>
    <path class="cls-2" d="M192.16,884.49c1.38-2.31,2.59-4.71,3.63-7.19,1.15-2.93,1.85-6.01,2.07-9.15.77-9.24-2.43-18.36-8.8-25.1-4.01-4.17-9.05-7.21-14.6-8.8-6.14-1.71-12.65-1.58-18.72.4-13.39,4.31-22.41,16.84-22.26,30.9-.01,3.24.5,6.47,1.52,9.55.92,2.97,2.28,5.78,4.05,8.34,3.26,4.74,7.71,8.54,12.91,11,4.55,2.15,9.53,3.21,14.56,3.08,4.15-.08,8.25-.95,12.08-2.57,2.9-1.21,5.61-2.85,8.03-4.86,2.01-1.78,3.9-3.69,5.65-5.72-.08.16-.17.3-.29.44l-.95,1.25c-.48.69-1.03,1.34-1.63,1.94-.77.87-1.61,1.68-2.51,2.42-2.4,2.11-5.12,3.83-8.05,5.1-3.88,1.73-8.07,2.69-12.32,2.82-11.33.47-22.1-4.92-28.53-14.25-3.74-5.43-5.76-11.86-5.81-18.45-.19-14.57,9.16-27.55,23.03-32,6.28-2.02,13.01-2.14,19.36-.33,5.72,1.64,10.9,4.79,15,9.11,3.54,3.74,6.15,8.26,7.63,13.2,1.23,4.06,1.65,8.33,1.23,12.56-.24,3.18-.98,6.31-2.2,9.26-.41,1.08-.91,2.13-1.5,3.12-.37.77-.81,1.51-1.32,2.2l-.9,1.3c-.1.17-.23.33-.37.46Z"/>
    <path class="cls-2" d="M195.92,954.63c-.31.11-5.34-12.73-11.28-28.59s-10.47-28.99-10.18-29.1,5.34,12.73,11.26,28.7c5.92,15.97,10.49,28.88,10.21,28.99Z"/>
    <path class="cls-7" d="M835.68,126.53c.02,9.07-7.31,16.45-16.39,16.47-9.07.02-16.45-7.31-16.47-16.39-.02-9.07,7.31-16.45,16.39-16.47,0,0,.01,0,.02,0,9.06-.02,16.43,7.3,16.45,16.36,0,0,0,.01,0,.02Z"/>
    <path class="cls-7" d="M881.65,93.63c.02,9.07-7.31,16.45-16.39,16.47s-16.45-7.31-16.47-16.39c-.02-9.07,7.31-16.45,16.39-16.47,0,0,.01,0,.02,0,9.06,0,16.42,7.33,16.45,16.39Z"/>
    <path class="cls-7" d="M881.74,163.24c0,9.88-7.32,17.88-16.41,17.88s-16.43-7.96-16.43-17.84,7.32-17.88,16.39-17.88,16.43,7.96,16.45,17.84Z"/>
    <path class="cls-7" d="M860.47,161.15c-.7,1.03-11.64-5.17-24.39-13.83-12.76-8.67-22.57-16.56-21.86-17.6s11.64,5.17,24.39,13.86c12.76,8.69,22.57,16.54,21.86,17.57Z"/>
    <path class="cls-7" d="M861.79,92.5c.75.99-7.68,8.8-18.85,17.46-11.17,8.67-20.83,14.87-21.6,13.88s7.68-8.8,18.83-17.46c11.15-8.67,20.85-14.82,21.62-13.88Z"/>
  </g>
  <g id="freepik--Mail--inject-2">
    <rect class="cls-10" x="655.14" y="266.13" width="181.79" height="122.53" transform="translate(-27.59 71.93) rotate(-5.42)"/>
    <path class="cls-4" d="M842.28,379.82s-.11-.79-.29-2.2-.4-3.7-.68-6.47c-.59-5.72-1.43-14.01-2.51-24.57-2.09-21.22-5.1-51.62-8.8-88.62l.73.59-180.93,17.35c-.18.18,1.43-1.74.75-.9h0v1.98l.2,2.02.4,4.07c.24,2.68.51,5.39.77,8.07.51,5.37,1.01,10.69,1.5,15.97,1.01,10.59,1.99,20.98,2.95,31.19,1.91,20.41,3.76,40.05,5.52,58.64l-.86-.7,130.27-11.97,37.39-3.34,9.96-.86,2.6-.2h.9l-.81.11-2.49.29-9.79,1.01-37.11,3.74-130.47,12.71h-.77v-.77c-1.78-18.59-3.67-38.2-5.63-58.62-.97-10.26-1.96-20.66-2.97-31.19-.51-5.28-1.02-10.6-1.52-15.97-.24-2.68-.51-5.37-.77-8.07l-.37-4.07-.2-2.02v-1.98h0c-.68.81.92-1.14.79-.95l180.95-17h.68v.68c3.37,37.21,6.16,67.77,8.09,89.1.92,10.51,1.65,18.76,2.2,24.46.24,2.73.42,4.84.53,6.36s-.22,2.11-.22,2.11Z"/>
    <path class="cls-4" d="M830.71,257.84c-.41.65-.88,1.25-1.41,1.8l-4.24,4.97-15.97,18.12-53.54,59.87-.48.53-.59-.4-4.82-3.06-70.84-45.44-21.36-13.94-5.76-3.85c-.7-.41-1.35-.9-1.94-1.45.77.32,1.5.71,2.2,1.17l5.94,3.59,21.64,13.48,71.11,45.02,4.82,3.08-1.08.13,53.93-59.52,16.34-17.77c1.88-1.95,3.34-3.53,4.4-4.75.5-.58,1.05-1.11,1.65-1.58Z"/>
  </g>
  <g id="freepik--Plants--inject-2">
    <path class="cls-5" d="M126.22,508.01s15.4-10.62,35.19,26.53c19.8,37.15,27.38,58.64,27.38,58.64,0,0,5.19,7.79,10.51,2.55s12.43-19.93,21.64-17.46c9.57,2.55,12.89,13.2,11.35,28.73s-3.65,50.02-3.83,53.12,1.65,7.52,5.83,4.53c4.18-2.99,28.07-30.55,40.47-18.43,12.4,12.12.97,54.99-.18,59.67s-.22,6.6,2.02,7.81,9.41-8.91,16.52-16.47,16.69-15.09,23.27-7.48c6.58,7.61,9.19,39.59-20.32,92.03l-15.4,23.42-27.89-.99c-59.91-5.94-84.59-26.39-87.03-36.16s9.19-13.2,19.49-14.74,22.59-1.61,22.96-4.09-.7-4.4-5.23-6.16-46.19-16.96-48.98-34.07,33.48-20.85,38.31-22.57,2.2-5.78-.35-7.39-31.96-19.69-45.7-27.38-20.43-16.5-17.05-25.78c3.39-9.28,19.4-6.38,26.72-7.72s3.96-10.05,3.96-10.05c0,0-13.2-18.59-32.33-56.09-19.14-37.5-1.01-44.17-1.01-44.17"/>
    <path class="cls-8" d="M143.97,541.26c.16.21.3.43.42.66l1.06,1.98c.95,1.8,2.31,4.4,4.03,7.68l14.67,28.26c12.51,23.86,29.74,56.77,48.76,93.1,19.03,36.34,36.29,69.31,48.39,93.26,6.05,11.97,11,21.66,14.36,28.44,1.65,3.34,2.93,5.94,3.85,7.76l.97,2.05c.13.22.22.46.29.7l-.4-.66-1.06-1.98c-.95-1.8-2.2-4.4-4.03-7.68l-14.67-28.29c-12.38-23.86-29.65-56.77-48.78-93.1s-36.27-69.31-48.39-93.26c-6.05-11.97-11-21.66-14.36-28.44l-3.85-7.76-.97-2.05c-.2-.44-.29-.68-.29-.68Z"/>
    <path class="cls-8" d="M211.87,599.22c-.33,2.49-.82,4.95-1.47,7.37-1.06,4.82-2.42,11-3.89,17.6-1.47,6.6-2.93,13.2-4.09,17.6-.59,2.2-1.1,4.07-1.5,5.3-.16.66-.4,1.3-.73,1.89.35-2.48.85-4.94,1.47-7.37,1.03-4.82,2.33-11,3.76-17.75s3.01-13.2,4.22-17.6c.62-2.2,1.12-4.07,1.52-5.3.17-.6.4-1.19.7-1.74Z"/>
    <path class="cls-8" d="M197.64,649.72c0,.29-12.93-2.93-28.73-7.15-15.79-4.22-28.59-7.9-28.44-8.2s12.93,2.93,28.73,7.06c15.79,4.14,28.51,8.01,28.44,8.29Z"/>
    <path class="cls-8" d="M234.37,712.23c-.67.19-1.35.29-2.05.31-1.32.15-3.23.29-5.59.44-4.75.26-11.31.48-18.56.33s-13.79-.62-18.52-1.08c-2.35-.22-4.27-.46-5.59-.64-.69-.04-1.37-.18-2.02-.42,2.56-.06,5.13.04,7.68.29,4.73.29,11.26.62,18.48.75s13.77,0,18.5,0c2.56-.17,5.12-.16,7.68.02Z"/>
    <path class="cls-8" d="M257.31,669.38c-.86,2.2-1.89,4.33-3.08,6.38-2.05,3.89-4.9,9.22-8.14,15.07s-6.2,11.13-8.4,14.91c-1.11,2.1-2.37,4.11-3.76,6.03.85-2.21,1.88-4.35,3.08-6.4,2.02-3.89,4.9-9.22,8.14-15.07s6.2-11.11,8.4-14.91c1.09-2.1,2.35-4.11,3.76-6Z"/>
    <path class="cls-8" d="M296.77,720.43c-.26.77-.6,1.51-1.03,2.2-.84,1.61-1.87,3.57-3.1,5.87-2.68,4.95-6.44,11.72-10.65,19.18s-8.07,14.19-11,19.03l-3.41,5.72c-.39.72-.85,1.4-1.39,2.02.26-.77.6-1.51,1.01-2.2.86-1.58,1.89-3.54,3.12-5.87,2.66-4.93,6.42-11.72,10.65-19.18s8.07-14.19,11-19.03l3.43-5.7c.36-.74.82-1.43,1.36-2.05Z"/>
    <path class="cls-8" d="M266.64,772.98c-.86.17-1.74.25-2.62.24-1.67,0-4.11.15-7.13.2-6.03,0-14.34,0-23.51-.42s-17.46-1.14-23.45-1.8c-2.99-.33-5.41-.64-7.08-.88-.87-.06-1.74-.23-2.57-.48.87-.09,1.75-.09,2.62,0l7.1.53c6,.46,14.27,1.06,23.42,1.5s17.46.62,23.47.73l7.13.13c.88-.02,1.76.07,2.62.26Z"/>
    <path class="cls-4" d="M733.54,689.66c-16.18.17-32.14-3.71-46.43-11.31l-.24-.18c-30.99-28.31-41.9-75.18-31.52-135.58.26-1.54.48-3.1.7-4.66.92-6.44,1.87-13.2,5.85-18.45,4.9-6.6,15.09-10.56,22.39-5.85,4.77,3.06,6.8,8.42,8.8,13.64.46,1.23.92,2.46,1.41,3.65,3.35,7.96,8.87,14.81,15.92,19.8,3.23,2.2,9.5,5.74,15.15,3.59,6.84-2.57,8.8-11.53,9.81-19.03l5.7-43.81c1.03-7.83,2.09-15.92,5.7-23.27,4.07-8.31,11-13.88,18.54-14.89,4.74-.59,9.51.79,13.2,3.83,3.02,2.32,4.93,5.8,5.26,9.59.07,2.06-.13,4.12-.57,6.14-.22,1.32-.44,2.55-.53,3.81-.2,2.66.53,6.18,3.17,7.35,2.07.92,4.79.15,8.09-2.2,9.13-6.6,15.88-15.79,22.54-25.36l1.54-2.2c6.03-8.64,12.25-17.6,20.28-24.68,10.01-8.8,21.4-13.2,32.09-12.38,12.67,1.03,23.62,10.65,24.99,21.99,1.14,9.63-3.87,19.64-15.4,30.62-12.41,11.91-26.49,21.96-41.79,29.82-2.68,1-4.99,2.82-6.6,5.19-.93,2.16-.7,4.65.62,6.6,1.38,2.25,3.37,4.07,5.74,5.23,3.7,1.6,7.6,2.68,11.59,3.21,2.2.37,4.4.77,6.42,1.32,3.76.97,12.73,4.09,14.78,12.08,2.62,10.34-8.8,18.61-13.7,21.69-15.01,9.26-31.49,15.88-48.74,19.55l-2.2.46c-5.33.75-10.47,2.47-15.18,5.08-4.62,2.99-8.49,9.15-6.6,14.67,1.89,5.52,8.8,7.9,14.32,7.68,4.03-.35,8-1.17,11.83-2.46,2.05-.59,4.16-1.21,6.29-1.69,11.24-2.51,26.17-.18,32.33,11,3.65,7.36,3.54,16.02-.29,23.29-3.73,6.95-8.81,13.09-14.93,18.06-20.3,18.3-45.08,30.88-71.83,36.47-9.39,1.8-18.94,2.68-28.51,2.62ZM688.25,676.46c21.55,11.26,44.17,13.75,73.26,8.05,26.36-5.52,50.79-17.93,70.8-35.96,5.91-4.77,10.8-10.67,14.41-17.35,3.52-6.62,3.65-14.53.35-21.27-5.63-10.1-19.47-12.19-29.93-9.83-2.07.46-4.14,1.06-6.16,1.65-4,1.34-8.14,2.19-12.34,2.55-6.31.31-14.14-2.46-16.52-9.15-2.38-6.69,1.96-13.7,7.43-17.24,4.93-2.77,10.33-4.6,15.92-5.39l2.2-.46c17-3.63,33.26-10.14,48.06-19.27,4.57-2.84,14.98-10.36,12.71-19.29-1.74-6.84-9.81-9.59-13.2-10.47-2.02-.53-4.18-.92-6.25-1.3-4.2-.55-8.3-1.69-12.19-3.39-2.75-1.35-5.04-3.48-6.6-6.11-1.71-2.57-1.97-5.83-.7-8.64,1.79-2.81,4.43-4.98,7.54-6.18,15.14-7.77,29.07-17.69,41.37-29.45,11-10.47,15.75-19.8,14.67-28.77-1.36-11.44-12.76-19.11-22.96-19.95-13.61-1.12-24.92,6.95-30.44,11.83-7.85,6.91-13.99,15.75-19.93,24.19l-1.56,2.2c-6.6,9.33-13.66,19.03-23.05,25.89-4,2.93-7.46,3.76-10.29,2.51-3.67-1.63-4.71-6.14-4.4-9.5.11-1.35.3-2.7.57-4.03.4-1.84.58-3.72.53-5.61-.28-3.17-1.87-6.08-4.4-8.03-3.2-2.63-7.33-3.85-11.44-3.37-6.6.9-13.2,6.14-16.87,13.68-3.43,7.02-4.4,14.93-5.45,22.59l-5.72,43.81c-1.06,8.12-3.28,17.79-11.22,20.81-6.6,2.49-13.59-1.34-17.2-3.85-7.38-5.2-13.15-12.36-16.67-20.67-.51-1.21-.97-2.49-1.45-3.74-1.83-4.86-3.72-9.9-7.87-12.56-6.27-4.05-15.11-.51-19.44,5.32-3.63,4.9-4.55,11.28-5.43,17.46-.22,1.56-.44,3.15-.7,4.71-7.21,41.61-7.79,98.54,30.55,133.57Z"/>
    <path class="cls-8" d="M690.56,696.41c4.29-18.43,3.21-24.19,13.55-46.91,11.46-24.61,24.33-48.54,38.56-71.66l11-18.26c3.65-5.98,7.28-11.92,11.17-17.6,7.53-10.7,15.64-20.98,24.3-30.79,8.2-9.44,16.36-18.1,24.02-26.15,7.65-8.05,15.02-15.4,21.99-21.8,10.93-10.19,22.66-19.5,35.06-27.85,4.4-2.97,7.87-5.15,10.25-6.6l2.71-1.63.95-.53c-.28.23-.58.44-.88.64l-2.66,1.74c-2.33,1.52-5.76,3.76-10.1,6.77-12.27,8.48-23.89,17.87-34.75,28.09-6.91,6.44-14.16,13.81-21.82,21.86-7.65,8.05-15.75,16.76-23.91,26.2-8.62,9.81-16.7,20.09-24.19,30.79-3.87,5.56-7.46,11.46-11,17.46l-11,18.26c-14.19,23.08-27.07,46.95-38.58,71.48-10.36,22.72-9.33,28.31-13.72,46.67"/>
    <path class="cls-8" d="M765.23,542.05c-.2-1.13-.29-2.28-.26-3.43-.11-2.2-.15-5.45-.18-9.41,0-7.96.29-18.94.66-31.03s.53-23.07.31-30.99c0-3.98-.2-7.19-.31-9.39-.1-1.16-.1-2.32,0-3.48.25,1.13.41,2.28.48,3.43.26,2.2.51,5.43.7,9.39.42,7.94.42,18.94,0,31.06s-.77,22.87-1.03,31.01c0,3.81-.15,6.97-.2,9.41.02,1.15-.04,2.29-.18,3.43Z"/>
    <path class="cls-8" d="M869.8,537.26c-.36.05-.72.05-1.08,0l-3.06-.15c-2.66-.13-6.49-.35-11.22-.48-9.48-.31-22.59-.26-37.04.42-14.45.68-27.52,1.91-36.93,3.08-4.73.53-8.51,1.08-11.15,1.45l-3.04.42c-.35.05-.71.05-1.06,0,.32-.14.66-.23,1.01-.29l3.01-.64c2.6-.51,6.38-1.19,11.11-1.85,9.39-1.36,22.48-2.71,36.97-3.43s27.65-.57,37.13,0c4.75.22,8.6.57,11.24.86l3.04.4c.36.02.72.09,1.06.22Z"/>
    <path class="cls-8" d="M705.47,647.83c-.22-.43-.39-.88-.51-1.34-.31-1.01-.73-2.2-1.21-3.87-1.06-3.39-2.46-8.31-4.11-14.43-3.32-12.21-7.39-29.21-11.64-48.04-4.25-18.83-8.18-35.85-11.28-48.1-1.54-6.03-2.82-11-3.74-14.52l-1.01-3.94c-.15-.46-.24-.93-.26-1.41.22.43.39.88.51,1.34.31,1.01.73,2.31,1.21,3.89,1.06,3.37,2.46,8.29,4.11,14.41,3.32,12.21,7.39,29.23,11.64,48.06s8.18,35.83,11.28,48.1c1.54,6,2.82,11,3.74,14.49l1.01,3.94c.14.46.22.93.26,1.41Z"/>
    <path class="cls-8" d="M846.92,623.32c-.46.18-.94.3-1.43.35l-4.11.73-15.15,2.62c-12.8,2.2-30.42,5.48-49.91,9.15-19.49,3.67-37.15,6.82-49.99,8.8-6.42.99-11.61,1.76-15.22,2.2l-4.16.51c-.48.09-.97.13-1.45.11.46-.16.94-.27,1.43-.33l4.11-.75,15.15-2.6c12.8-2.2,30.44-5.5,49.91-9.17,19.47-3.67,37.15-6.8,49.99-8.8,6.42-1.01,11.61-1.78,15.22-2.2l4.16-.51c.48-.08.97-.11,1.45-.11Z"/>
  </g>
  <g id="freepik--Device--inject-2">
    <path class="cls-8" d="M634.5,964l-308.7-1.45c-37.08-.23-66.98-30.44-66.82-67.52l3.26-773.93c.18-37.09,30.36-67.04,67.46-66.93l308.7,1.43c37.13.17,67.1,30.39,66.95,67.52l-3.28,773.93c-.18,37.14-30.43,67.11-67.57,66.95Z"/>
    <path class="cls-7" d="M637.95,82.28l-59.85-.26c-8.2.14-14.74,6.91-14.6,15.11v10.87c.15,8.2-6.38,14.98-14.58,15.13l-116.68-.55c-8.21-.23-14.68-7.06-14.47-15.26v-10.84c.21-8.21-6.26-15.04-14.47-15.26h-21.05l-52.39-.24c-26.02-.11-47.2,20.89-47.31,46.91h0s-3.19,755.41-3.19,755.41c-.11,26,20.87,47.17,46.87,47.29l308.08,1.43c26.01.12,47.19-20.86,47.31-46.87,0,0,0-.02,0-.02l3.21-755.43c.16-26.02-20.81-47.24-46.83-47.4-.02,0-.03,0-.05,0Z"/>
    <path class="cls-4" d="M468.77,871.36c-.13,3.51-3.09,6.24-6.59,6.11-3.51-.13-6.24-3.09-6.11-6.59.13-3.42,2.95-6.12,6.37-6.11,3.57.07,6.41,3.03,6.33,6.6,0,0,0,0,0,0Z"/>
    <path class="cls-4" d="M488.45,871.45c-.13,3.51-3.09,6.24-6.59,6.11-3.51-.13-6.24-3.09-6.11-6.59.13-3.42,2.95-6.12,6.37-6.11,3.56.06,6.4,2.99,6.34,6.55,0,.02,0,.03,0,.05Z"/>
    <path class="cls-4" d="M508.16,871.53c-.13,3.51-3.09,6.24-6.59,6.11-3.51-.13-6.24-3.09-6.11-6.59.13-3.42,2.95-6.12,6.37-6.11,3.57.07,6.41,3.03,6.33,6.6,0,0,0,0,0,0Z"/>
    <path class="cls-2" d="M663.33,453.55c-1.38-.13-2.39-1.35-2.26-2.73.11-1.2,1.06-2.15,2.26-2.26,1.38.13,2.39,1.35,2.26,2.73-.11,1.2-1.06,2.15-2.26,2.26Z"/>
    <path class="cls-2" d="M662.12,470.22c-1.26-.24-2.1-1.44-1.91-2.71.11-1.26,1.18-2.22,2.44-2.2,1.28.23,2.13,1.45,1.91,2.73-.08,1.27-1.17,2.24-2.44,2.18Z"/>
    <path class="cls-2" d="M659.42,486.71c-1.33-.43-2.05-1.86-1.62-3.19.36-1.1,1.43-1.82,2.58-1.74,1.33.43,2.05,1.86,1.62,3.19-.36,1.1-1.43,1.82-2.58,1.74Z"/>
    <path class="cls-2" d="M655.22,502.86c-1.28-.56-1.87-2.05-1.31-3.33.46-1.06,1.58-1.67,2.72-1.49,1.28.56,1.87,2.05,1.31,3.33-.46,1.06-1.58,1.67-2.72,1.49Z"/>
    <path class="cls-2" d="M649.54,518.59c-1.35-.34-2.18-1.72-1.83-3.07.34-1.35,1.72-2.18,3.07-1.83,1.35.34,2.18,1.72,1.83,3.07-.03.11-.06.21-.1.32-.4,1.24-1.72,1.92-2.96,1.52,0,0,0,0,0,0Z"/>
    <path class="cls-2" d="M642.46,533.65c-1.07-.9-1.21-2.5-.31-3.56.61-.73,1.58-1.05,2.5-.83,1.07.9,1.21,2.5.31,3.56-.61.73-1.58,1.05-2.5.83Z"/>
    <path class="cls-2" d="M634.04,548.15c-1.03-.78-1.26-2.24-.51-3.3.62-1.13,2.03-1.55,3.17-.95,1.07.9,1.21,2.49.31,3.56-.73.87-1.94,1.14-2.97.68Z"/>
    <path class="cls-2" d="M624.34,561.74c-1.01-.97-1.04-2.57-.07-3.58.81-.84,2.09-1.02,3.1-.43,1.01.97,1.04,2.57.07,3.58-.81.84-2.09,1.02-3.1.43Z"/>
    <path class="cls-2" d="M613.45,574.39c-.89-1.07-.75-2.67.33-3.56.87-.73,2.13-.78,3.06-.13.89,1.07.75,2.67-.33,3.56-.87.73-2.13.78-3.06.13Z"/>
    <path class="cls-2" d="M601.44,586c-.79-1.15-.5-2.73.65-3.52.94-.65,2.2-.58,3.07.15.81,1,.65,2.47-.35,3.28,0,0-.02.01-.03.02-.9.94-2.39.98-3.33.08l-.02-.02Z"/>
    <path class="cls-2" d="M588.46,596.49c-.99-.99-.99-2.59,0-3.58.99-.99,2.59-.99,3.58,0,.99.99.99,2.59,0,3.58-.08.08-.17.16-.26.22-.96.86-2.43.77-3.29-.19,0-.01-.02-.02-.03-.03Z"/>
    <path class="cls-2" d="M574.58,605.75c-.6-1.14-.17-2.56.97-3.17,1.05-.74,2.51-.51,3.28.53.55,1.29-.05,2.77-1.34,3.32-1.01.43-2.19.16-2.91-.68Z"/>
    <path class="cls-2" d="M559.89,613.71c-.31-1.36.53-2.72,1.89-3.03.93-.21,1.89.11,2.5.83.31,1.36-.53,2.72-1.89,3.03-.93.21-1.89-.11-2.5-.83Z"/>
    <path class="cls-2" d="M544.56,620.31c-.36-1.24.32-2.54,1.54-2.95,1.17-.54,2.56-.04,3.12,1.12.32,1.36-.52,2.72-1.88,3.04-1.09.26-2.22-.24-2.78-1.22h0Z"/>
    <path class="cls-2" d="M528.68,625.48c-.22-1.38.72-2.68,2.1-2.9,1.14-.18,2.26.43,2.72,1.49.22,1.38-.72,2.68-2.1,2.9-1.14.18-2.26-.43-2.72-1.49Z"/>
    <path class="cls-2" d="M512.4,629.15c-.04-1.4,1.05-2.56,2.45-2.61,1.09-.03,2.08.64,2.46,1.66.04,1.4-1.05,2.56-2.45,2.61-1.09.03-2.08-.64-2.46-1.66Z"/>
    <path class="cls-2" d="M495.84,631.33c.05-1.4,1.22-2.49,2.61-2.44,1.15.04,2.12.84,2.38,1.96-.05,1.4-1.22,2.49-2.61,2.44-1.15-.04-2.12-.84-2.38-1.96Z"/>
    <path class="cls-2" d="M479.15,632.01c.18-1.38,1.46-2.36,2.84-2.17,1.13.15,2.02,1.04,2.17,2.17-.18,1.38-1.46,2.36-2.84,2.17-1.13-.15-2.02-1.04-2.17-2.17Z"/>
    <path class="cls-2" d="M462.46,631.2c.21-1.28,1.4-2.15,2.68-1.98,1.29.04,2.31,1.09,2.31,2.38-.31,1.36-1.66,2.22-3.02,1.92-1.1-.25-1.9-1.19-1.97-2.31Z"/>
    <path class="cls-2" d="M445.94,628.87c.32-1.25,1.58-2.01,2.84-1.72,1.31.12,2.29,1.26,2.2,2.57-.4,1.34-1.81,2.1-3.15,1.7-1.12-.33-1.86-1.39-1.8-2.55h-.09Z"/>
    <path class="cls-2" d="M429.66,625.04c.54-1.29,2.02-1.89,3.31-1.35,1.06.44,1.68,1.54,1.53,2.67-.54,1.29-2.02,1.89-3.31,1.35-1.06-.44-1.68-1.54-1.53-2.67Z"/>
    <path class="cls-2" d="M413.8,619.76c.65-1.24,2.18-1.72,3.41-1.07,1.02.53,1.55,1.69,1.29,2.81-.65,1.24-2.18,1.72-3.41,1.07-1.02-.53-1.55-1.69-1.29-2.81Z"/>
    <path class="cls-2" d="M398.52,613.03c.66-1.11,2.07-1.5,3.21-.9,1.19.5,1.77,1.85,1.32,3.06-.73,1.19-2.28,1.57-3.47.85-1.04-.63-1.48-1.91-1.06-3.05v.04Z"/>
    <path class="cls-2" d="M383.91,604.94c.7-1.21,2.26-1.63,3.48-.92,1.21.7,1.63,2.26.92,3.48s-2.26,1.63-3.48.92c-1.21-.7-1.63-2.26-.92-3.48Z"/>
    <path class="cls-2" d="M370.1,595.54c.98-1,2.58-1.02,3.58-.04.8.78.99,2,.47,2.99-.98,1-2.58,1.02-3.58.04-.8-.78-.99-2-.47-2.99Z"/>
    <path class="cls-2" d="M357.19,584.94c1.04-.93,2.64-.84,3.57.2.77.86.86,2.14.21,3.1-.9.92-2.38.93-3.3.02,0,0-.02-.02-.02-.02-1.03-.79-1.23-2.26-.46-3.3Z"/>
    <path class="cls-2" d="M345.31,573.24c1.14-.81,2.72-.55,3.53.59.66.92.63,2.16-.08,3.04-1.14.81-2.72.55-3.53-.59-.66-.92-.63-2.16.08-3.04Z"/>
    <path class="cls-2" d="M334.53,560.46c1.2-.71,2.75-.3,3.46.9.57.98.43,2.22-.36,3.04-1.2.71-2.75.3-3.46-.9-.57-.98-.43-2.22.36-3.04Z"/>
    <path class="cls-2" d="M324.97,546.85c1.27-.59,2.77-.03,3.36,1.24.46,1.01.22,2.2-.61,2.94-1.27.59-2.77.03-3.36-1.24-.46-1.01-.22-2.2.61-2.94Z"/>
    <path class="cls-2" d="M316.65,532.31c1.33-.42,2.75.31,3.18,1.64.32,1.01-.02,2.11-.85,2.76-1.33.42-2.75-.31-3.18-1.64-.32-1.01.02-2.11.85-2.76Z"/>
    <path class="cls-2" d="M309.7,517.13c1.35-.35,2.73.46,3.09,1.81.28,1.09-.18,2.23-1.15,2.81-1.35.35-2.73-.46-3.09-1.81-.28-1.09.18-2.23,1.15-2.81h0Z"/>
    <path class="cls-2" d="M304.16,501.39c1.38-.23,2.68.7,2.91,2.08.19,1.11-.38,2.21-1.4,2.7-1.38.23-2.68-.7-2.91-2.08-.19-1.11.38-2.21,1.4-2.7Z"/>
    <path class="cls-2" d="M300.11,485.26c1.39-.08,2.59.99,2.66,2.39.06,1.09-.59,2.1-1.61,2.5-1.39.08-2.59-.99-2.66-2.39-.06-1.09.59-2.1,1.61-2.5Z"/>
    <path class="cls-2" d="M297.54,468.68c1.28-.05,2.37.92,2.46,2.2.24,1.27-.58,2.49-1.85,2.75-1.4-.02-2.51-1.18-2.48-2.57.02-1.13.78-2.1,1.87-2.4v.02Z"/>
    <path class="cls-2" d="M296.48,452.01c1.39.14,2.41,1.37,2.27,2.76-.11,1.14-.98,2.07-2.12,2.25-1.39-.14-2.41-1.37-2.27-2.76.11-1.14.98-2.07,2.12-2.25Z"/>
    <path class="cls-2" d="M296.92,435.31c1.37.25,2.29,1.56,2.04,2.94-.21,1.15-1.18,2.01-2.35,2.08-1.37-.25-2.29-1.56-2.04-2.94.21-1.15,1.18-2.01,2.35-2.08Z"/>
    <path class="cls-2" d="M298.86,418.73c1.34.41,2.09,1.82,1.68,3.16-.33,1.07-1.31,1.8-2.43,1.79-1.34-.41-2.09-1.82-1.68-3.16.33-1.07,1.31-1.8,2.43-1.79Z"/>
    <path class="cls-2" d="M302.31,402.37c1.31.48,1.99,1.93,1.51,3.24-.41,1.12-1.54,1.8-2.72,1.64-1.31-.48-1.99-1.93-1.51-3.24.41-1.12,1.54-1.8,2.72-1.64Z"/>
    <path class="cls-2" d="M307.24,386.42c1.24.64,1.73,2.17,1.09,3.41-.52,1-1.63,1.54-2.74,1.32-1.24-.64-1.73-2.17-1.09-3.41.52-1,1.63-1.54,2.74-1.32Z"/>
    <path class="cls-2" d="M313.6,370.89c1.2.69,1.62,2.22.93,3.42-.59,1.04-1.84,1.52-2.98,1.13-1.2-.69-1.62-2.22-.93-3.42.59-1.04,1.84-1.52,2.98-1.13Z"/>
    <path class="cls-2" d="M321.36,356.18c1.16.78,1.47,2.35.69,3.51-.69,1.03-2.02,1.4-3.15.89-1.16-.78-1.47-2.35-.69-3.51.69-1.03,2.02-1.4,3.15-.89Z"/>
    <path class="cls-2" d="M330.42,342.14c1.02.95,1.09,2.55.14,3.57-.77.83-1.99,1.05-2.99.54-1.02-.95-1.09-2.55-.14-3.57.77-.83,1.99-1.05,2.99-.54Z"/>
    <path class="cls-2" d="M340.74,329.1c.89.93.89,2.39,0,3.32-.77,1.04-2.22,1.27-3.28.53-.94-1.03-.87-2.63.16-3.57.84-.77,2.09-.88,3.05-.28h.07Z"/>
    <path class="cls-2" d="M352.17,316.83c1.12.84,1.34,2.43.5,3.54s-2.43,1.34-3.54.5-1.34-2.43-.5-3.54c.07-.1.16-.19.24-.28.85-.97,2.32-1.07,3.29-.23,0,0,0,0,.01,0Z"/>
    <path class="cls-2" d="M364.69,305.76c1.05.92,1.16,2.51.25,3.57s-2.51,1.16-3.57.25-1.16-2.51-.25-3.57c.08-.09.16-.17.25-.25.92-.91,2.4-.91,3.32,0Z"/>
    <path class="cls-2" d="M378.13,295.87c.63,1.25.13,2.77-1.11,3.4-1.02.52-2.26.29-3.02-.56-.63-1.25-.13-2.77,1.11-3.4,1.02-.52,2.26-.29,3.02.56Z"/>
    <path class="cls-2" d="M392.42,287.31c.55,1.29-.05,2.77-1.34,3.32-1.1.47-2.37.1-3.06-.88-.56-1.14-.09-2.53,1.05-3.09.02-.01.04-.02.07-.03,1.08-.72,2.54-.42,3.26.66,0,0,0,.02.01.02Z"/>
    <path class="cls-2" d="M407.42,279.94c.39,1.34-.38,2.75-1.72,3.14-1.09.32-2.25-.13-2.85-1.09-.39-1.34.38-2.75,1.72-3.14,1.09-.32,2.25.13,2.85,1.09Z"/>
    <path class="cls-2" d="M423.06,274.11c.3,1.25-.44,2.52-1.67,2.88-1.2.48-2.56-.08-3.08-1.25-.29-1.37.58-2.71,1.95-3,1.14-.24,2.3.32,2.8,1.37h0Z"/>
    <path class="cls-2" d="M439.14,269.72c.13,1.39-.89,2.62-2.29,2.75-1.11.1-2.15-.53-2.57-1.56-.13-1.39.89-2.62,2.29-2.75,1.11-.1,2.15.53,2.57,1.56Z"/>
    <path class="cls-2" d="M455.59,266.66c.04,1.4-1.06,2.56-2.46,2.6-1.17.03-2.21-.74-2.51-1.87-.09-1.3.89-2.42,2.19-2.51,0,0,0,0,.01,0,1.24-.28,2.48.5,2.76,1.74,0,.01,0,.03,0,.04Z"/>
    <path class="cls-2" d="M472.33,265.32c.27,1.37-.63,2.7-2,2.96-1.37.27-2.7-.63-2.96-2-.27-1.37.63-2.7,2-2.96.11-.02.23-.04.35-.04,1.29-.16,2.46.76,2.62,2.05Z"/>
    <path class="cls-2" d="M488.94,265.32c-.23,1.38-1.53,2.31-2.9,2.09-1.14-.19-2-1.12-2.11-2.26.23-1.38,1.53-2.31,2.9-2.09,1.14.19,2,1.12,2.11,2.26Z"/>
    <path class="cls-2" d="M505.56,266.86c-.37,1.35-1.75,2.15-3.1,1.78-1.09-.3-1.86-1.28-1.87-2.42.37-1.35,1.75-2.15,3.1-1.78,1.09.3,1.86,1.28,1.87,2.42Z"/>
    <path class="cls-2" d="M521.99,269.91c-.46,1.32-1.91,2.01-3.22,1.55-1.1-.38-1.79-1.47-1.68-2.63.46-1.32,1.91-2.01,3.22-1.55,1.1.38,1.79,1.47,1.68,2.63Z"/>
    <path class="cls-2" d="M538.07,274.47c-.56,1.28-2.06,1.86-3.33,1.3-1.09-.48-1.7-1.65-1.46-2.81.56-1.28,2.06-1.86,3.33-1.3,1.09.48,1.7,1.65,1.46,2.81Z"/>
    <path class="cls-2" d="M553.71,280.47c-.72,1.2-2.27,1.59-3.47.87-.97-.58-1.43-1.72-1.15-2.81.72-1.2,2.27-1.59,3.47-.87.97.58,1.43,1.72,1.15,2.81Z"/>
    <path class="cls-2" d="M568.6,287.88c-.7,1.09-2.13,1.42-3.23.75-1.13-.45-1.68-1.72-1.24-2.85s1.72-1.68,2.85-1.24c.16.06.31.14.45.24,1.18.53,1.7,1.91,1.18,3.08,0,0,0,.01,0,.02Z"/>
    <path class="cls-2" d="M582.83,296.64c-.79,1.01-2.25,1.2-3.28.44-1.12-.65-1.52-2.07-.9-3.21.92-1.05,2.52-1.16,3.57-.24.86.75,1.11,1.99.61,3.01h0Z"/>
    <path class="cls-2" d="M596.23,306.62c-1.02.96-2.62.91-3.58-.11-.77-.82-.91-2.05-.34-3.02,1.02-.96,2.62-.91,3.58.11.77.82.91,2.05.34,3.02Z"/>
    <path class="cls-2" d="M608.7,317.8c-1.1.86-2.69.67-3.55-.44-.69-.89-.72-2.13-.06-3.04,1.1-.86,2.69-.67,3.55.44.69.89.72,2.13.06,3.04Z"/>
    <path class="cls-2" d="M619.98,330.02c-1.13.8-2.7.53-3.49-.6-.69-.97-.59-2.29.22-3.16,1.13-.8,2.7-.53,3.49.6.69.97.59,2.29-.22,3.16Z"/>
    <path class="cls-2" d="M630.19,343.24c-1.25.63-2.77.12-3.4-1.13-.49-.97-.3-2.15.47-2.92,1.25-.63,2.77-.12,3.4,1.13.49.97.3,2.15-.47,2.92Z"/>
    <path class="cls-2" d="M639.16,357.32c-1.21.7-2.77.29-3.48-.92-.7-1.21-.29-2.77.92-3.48s2.77-.29,3.48.92c.7,1.21.29,2.77-.92,3.48Z"/>
    <path class="cls-2" d="M646.79,372.17c-1.32.45-2.76-.27-3.2-1.59-.37-1.09.05-2.29,1-2.92,1.32-.45,2.76.27,3.2,1.59.37,1.09-.05,2.29-1,2.92Z"/>
    <path class="cls-2" d="M653.04,387.65c-1.24.34-2.53-.37-2.9-1.61-.5-1.18.02-2.55,1.19-3.1,1.37-.29,2.71.58,3,1.95.24,1.1-.29,2.23-1.29,2.76Z"/>
    <path class="cls-2" d="M657.86,403.64c-1.39.15-2.64-.85-2.79-2.23-.12-1.11.49-2.17,1.52-2.6,1.39-.15,2.64.85,2.79,2.23.12,1.11-.49,2.17-1.52,2.6Z"/>
    <path class="cls-2" d="M661.2,420.01c-1.4.07-2.58-1-2.66-2.39-.06-1.16.68-2.22,1.8-2.55,1.4-.07,2.58,1,2.66,2.39.06,1.16-.68,2.22-1.8,2.55Z"/>
    <path class="cls-2" d="M663,436.61c-1.39-.1-2.45-1.3-2.35-2.7.08-1.12.88-2.05,1.98-2.3,1.39.1,2.45,1.3,2.35,2.7-.08,1.12-.88,2.05-1.98,2.3Z"/>
    <path class="cls-8" d="M659.29,155.78c.14,1.56-1.02,2.94-2.58,3.08s-2.94-1.02-3.08-2.58c-.01-.17-.01-.33,0-.5.14-1.56,1.51-2.71,3.08-2.58,1.37.12,2.46,1.21,2.58,2.58Z"/>
    <path class="cls-8" d="M659.29,165.97c0,1.57-1.27,2.84-2.84,2.84s-2.84-1.27-2.84-2.84,1.27-2.84,2.84-2.84c1.55-.01,2.83,1.24,2.84,2.79,0,.01,0,.03,0,.04Z"/>
    <path class="cls-8" d="M659.29,176.13c.14,1.56-1.02,2.94-2.58,3.08s-2.94-1.02-3.08-2.58c-.01-.17-.01-.33,0-.5.14-1.56,1.51-2.71,3.08-2.58,1.37.12,2.46,1.21,2.58,2.58Z"/>
    <path class="cls-8" d="M322.94,150.75c.37.22.71.49,1.01.79l2.93,2.51,10.84,9.57h.13v17.42h-11.59v-10.56l.57.55h-7.19l.57-.55v10.56h-12.36v-17.42h.15l10.84-9.57,2.93-2.51c.3-.31.64-.57,1.01-.79-.31.37-.65.71-1.01,1.03l-2.84,2.73-10.23,9.63.13-.31c0,4.88,0,10.51.11,16.72l-.53-.53h11.31l-.55.55v-10.58h8.31v10.58l-.55-.55h10.54l-.53.53c0-6.2,0-11.86.11-16.72l.13.31-10.38-9.72-2.86-2.73c-.36-.29-.7-.61-1.01-.95Z"/>
    <path class="cls-5" d="M448.29,696.76v30.15h-6.99v-12.36h-13.68v12.36h-6.99v-30.15h6.99v11.9h13.68v-11.9h6.99Z"/>
    <path class="cls-5" d="M477.52,717.22h-17.6c.73,2.98,3.54,4.97,6.6,4.66,2.16.1,4.26-.7,5.81-2.2l3.59,3.87c-2.47,2.61-5.98,3.99-9.57,3.76-8.01,0-13.2-5.04-13.2-11.94-.08-6.51,5.13-11.85,11.64-11.93.24,0,.48,0,.72.01,6.32-.34,11.72,4.52,12.05,10.84.02.39.02.78,0,1.17.09.48,0,1.21-.04,1.76ZM459.93,713.3h11.42c-.52-3.15-3.5-5.29-6.65-4.77-2.45.4-4.36,2.32-4.77,4.77Z"/>
    <path class="cls-5" d="M482.14,694.96h6.6v31.96h-6.6v-31.96Z"/>
    <path class="cls-5" d="M495.1,694.96h6.71v31.96h-6.71v-31.96Z"/>
    <path class="cls-5" d="M506.33,715.33c0-6.97,5.39-11.92,12.76-11.92s12.69,4.95,12.69,11.92-5.32,11.94-12.69,11.94-12.76-4.95-12.76-11.94ZM524.99,715.33c-.27-3.27-3.13-5.7-6.4-5.43-3.27.27-5.7,3.13-5.43,6.4.25,3.09,2.84,5.47,5.94,5.45,3.22.05,5.87-2.51,5.92-5.73,0-.23,0-.46-.03-.69Z"/>
    <path class="cls-5" d="M535.28,723.36c0-2.28,1.85-4.14,4.14-4.14s4.14,1.85,4.14,4.14h0c0,2.28-1.85,4.14-4.14,4.14s-4.14-1.85-4.14-4.14ZM535.41,696.76h8.01l-1.34,19.69h-5.34l-1.32-19.69Z"/>
    <path class="cls-8" d="M631.99,773.53c0,.26-69.97.48-156.16.48s-156.27-.22-156.27-.48,69.94-.46,156.27-.46,156.16.33,156.16.46Z"/>
    <path class="cls-8" d="M631.99,804.76c0,.26-69.97.46-156.16.46s-156.27-.2-156.27-.46,69.94-.46,156.27-.46,156.16.2,156.16.46Z"/>
    <path class="cls-8" d="M543.59,835.97c0,.26-30.37.48-67.85.48s-67.85-.22-67.85-.48,30.37-.46,67.85-.46,67.85.22,67.85.46Z"/>
  </g>
  <g id="freepik--Character--inject-2">
    <circle class="cls-10" cx="477.2" cy="448.36" r="168.96" transform="translate(-177.27 468.75) rotate(-45)"/>
    <path class="cls-8" d="M581.64,398.93c-.44-12.45,7.21-25.21,2.71-36.8-3.37-8.62-12.58-13.81-16.28-22.28s-1.36-17.6.13-26.39c1.5-8.8,1.8-19-4.4-25.4-5.12-5.26-13.33-6.42-18.72-11.42-4.9-4.4-6.71-11.5-7.13-18.17-.42-6.66.33-13.37-.53-19.99-1.9-13.79-10.41-25.78-22.81-32.11-12.23-6.09-27.52-5.65-38.95,6.14l41.06,156.16c23.07,4.03,44.5,15.04,64.91,30.26Z"/>
    <path class="cls-8" d="M582.55,335.11c.47.13.9.35,1.28.66,1.11.88,1.86,2.14,2.09,3.54.5,2.22-.15,4.55-1.74,6.18-2.27,2-5.44,2.65-8.31,1.69-3.46-1.16-6.12-3.96-7.1-7.48-1.15-3.92-1.09-8.1.18-11.99,1.1-4.11,3.01-8.14,4.4-12.45,1.5-4.42,1.84-9.16.99-13.75-1.56-9.02-7.34-16.74-15.55-20.78-3.74-1.8-7.59-2.99-11-4.66-5.98-2.64-10.43-7.88-12.05-14.21-.57-2.11-.81-4.29-.7-6.47.06-1.38.28-2.74.64-4.07.1-.49.26-.96.46-1.41-.43,1.78-.67,3.6-.73,5.43-.23,8.63,4.8,16.54,12.71,19.99,3.34,1.58,7.17,2.75,11,4.57,8.49,4.12,14.48,12.08,16.08,21.38.88,4.74.53,9.62-1.01,14.19-1.43,4.4-3.34,8.4-4.4,12.4-1.23,3.73-1.32,7.74-.26,11.53.89,3.31,3.36,5.97,6.6,7.1,2.66.92,5.61.36,7.76-1.45,1.49-1.51,2.14-3.66,1.74-5.74-.19-1.33-.84-2.56-1.85-3.45-.75-.55-1.23-.7-1.21-.77Z"/>
    <path class="cls-8" d="M436.88,226.89c-5.89,16.01-8.53,29.01-14.32,41.79-3.26,7.21-7.59,14.45-7.19,22.37.29,5.41,2.82,10.6,2.66,16.03-.24,9.57-8.36,16.76-15.57,23.05-7.21,6.29-14.74,14.6-13.2,24.04.64,4.11,2.99,7.85,3.34,12.01.44,5.06-2.2,9.9-5.3,13.9-3.41,3.77-6.55,7.77-9.39,11.99l-1.12,7.63,90.18-28.59"/>
    <path class="cls-6" d="M657.26,366.18c-2.2-15.09-.11-30.37-.7-38.25-1.1-14.65-2.42-14.6-4.11-14.21-4.55,1.01.97,25.8-3.32,21.09s-3.23-31.03-7.94-29.78c-6.14,1.63.13,27.52.48,29.74s-2.84,2.75-3.06.73c-.33-2.93-4.4-33.41-10.51-31.85-3.34.86-1.1,6.6-1.1,6.6,0,0,6,28.31,3.12,28.95s-7.02-15.88-7.98-21.53c-.97-5.65-4.02-7.46-6.16-5.04-1.45,1.65,1.14,19.03,2.2,24.59s4.4,20.81-3.37,14.45-16.06-8.38-18.65-7.41-2.07,4.97.92,5.78c3.13,1.22,6.09,2.84,8.8,4.84,2.16,1.64,4.12,3.52,5.85,5.61,1.98,2.2,9.11,10.84,10.82,19.6l34.6-14.01"/>
    <path class="cls-3" d="M647.65,358.44c0,.15-.95.37-2.2,1.3-1.84,1.23-3.18,3.08-3.78,5.21l-.33,1.23-.64-1.1c-.92-1.54-2.1-2.9-3.5-4.03-2.72-2.2-6.04-3.53-9.52-3.83-2.68-.24-4.4.24-4.4,0,1.36-.68,2.88-.97,4.4-.84,3.72.06,7.31,1.38,10.18,3.74,1.5,1.22,2.75,2.71,3.7,4.4l-.95.13c.67-2.35,2.26-4.33,4.4-5.5.78-.51,1.71-.76,2.64-.73Z"/>
    <path class="cls-5" d="M658.43,363.26l-38.31,15.11,11.13,85.78-8.07-12.32-15.15-19.8c-40.62-69.92-92.64-58.88-92.64-58.88l-68.47-5.32s-43.35.77-68.34,29.12c-6.42,7.28-43.59,81.62-58.95,112.59,9.41,24.13,24.25,45.78,43.37,63.26l39.06-80.72,6.6,28.31c4.45,15.37,4.51,31.67.18,47.07l-10.51,30.24c51.19,26.9,112.58,25.79,162.76-2.95l-9.99-23.71c-6.71-16.04-8.47-33.72-5.04-50.76l7.32-36.58,40.91,38.93c4.26,4.78,8.91,9.19,13.9,13.2h0c18.94,15.04,33.74,15.4,33.74,15.4,64.86-2.57,16.5-187.97,16.5-187.97Z"/>
    <path class="cls-9" d="M424.98,439.4c0,1.4-1.13,2.53-2.53,2.53s-2.53-1.13-2.53-2.53,1.13-2.53,2.53-2.53h0c1.38-.01,2.52,1.1,2.53,2.49,0,.01,0,.03,0,.04Z"/>
    <path class="cls-9" d="M406.85,465.58c0,1.38-1.12,2.51-2.51,2.51s-2.51-1.12-2.51-2.51,1.12-2.51,2.51-2.51h0c1.38,0,2.51,1.12,2.51,2.51Z"/>
    <path class="cls-9" d="M464.02,439.4c-.01,1.38-1.14,2.5-2.53,2.49s-2.5-1.14-2.49-2.53c.01-1.38,1.13-2.49,2.51-2.49,1.38,0,2.51,1.12,2.51,2.51,0,0,0,.01,0,.02Z"/>
    <path class="cls-9" d="M406.15,386.95c-.01,1.38-1.14,2.5-2.53,2.49s-2.5-1.14-2.49-2.53c.01-1.38,1.13-2.49,2.51-2.49,1.38,0,2.51,1.12,2.51,2.51,0,0,0,.01,0,.02Z"/>
    <path class="cls-9" d="M482.1,469.3c-.01,1.38-1.14,2.5-2.53,2.49s-2.5-1.14-2.49-2.53c.01-1.38,1.13-2.49,2.51-2.49,1.38,0,2.51,1.12,2.51,2.51,0,0,0,.01,0,.02Z"/>
    <path class="cls-9" d="M513.09,458.72c0,1.4-1.13,2.53-2.53,2.53s-2.53-1.13-2.53-2.53,1.13-2.53,2.53-2.53h0c1.4,0,2.53,1.13,2.53,2.53Z"/>
    <path class="cls-9" d="M563.04,433.66c0,1.38-1.12,2.51-2.51,2.51s-2.51-1.12-2.51-2.51,1.12-2.51,2.51-2.51,2.51,1.12,2.51,2.51h0Z"/>
    <path class="cls-9" d="M609.36,474.88c0,1.38-1.12,2.51-2.51,2.51s-2.51-1.12-2.51-2.51,1.12-2.51,2.51-2.51,2.51,1.12,2.51,2.51h0Z"/>
    <path class="cls-9" d="M633.82,488.91c.01,1.4-1.11,2.54-2.51,2.55s-2.54-1.11-2.55-2.51,1.11-2.54,2.51-2.55c0,0,.01,0,.02,0,1.38-.01,2.52,1.1,2.53,2.49,0,0,0,.01,0,.02Z"/>
    <path class="cls-9" d="M640.77,524.35c0,1.38-1.12,2.51-2.51,2.51s-2.51-1.12-2.51-2.51,1.12-2.51,2.51-2.51,2.51,1.12,2.51,2.51h0Z"/>
    <path class="cls-9" d="M664.61,499.16c-.01,1.38-1.14,2.5-2.53,2.49-1.38-.01-2.5-1.14-2.49-2.53.01-1.38,1.13-2.49,2.51-2.49,1.38,0,2.51,1.12,2.51,2.51,0,0,0,.01,0,.02Z"/>
    <path class="cls-9" d="M648.55,465.58c.01,1.4-1.11,2.54-2.51,2.55s-2.54-1.11-2.55-2.51,1.11-2.54,2.51-2.55c0,0,.01,0,.02,0,1.39,0,2.52,1.12,2.53,2.51Z"/>
    <path class="cls-9" d="M664.61,436.87c0,1.38-1.12,2.51-2.51,2.51s-2.51-1.12-2.51-2.51,1.12-2.51,2.51-2.51c1.38.01,2.5,1.13,2.51,2.51Z"/>
    <path class="cls-9" d="M644.57,411.78c.01,1.4-1.11,2.54-2.51,2.55-1.4.01-2.54-1.11-2.55-2.51-.01-1.4,1.11-2.54,2.51-2.55.01,0,.03,0,.04,0,1.38,0,2.51,1.12,2.51,2.51h0Z"/>
    <path class="cls-9" d="M658.69,384.42c.13,1.39-.89,2.62-2.28,2.75-1.39.13-2.62-.89-2.75-2.28-.01-.16-.01-.31,0-.47.13-1.39,1.36-2.41,2.75-2.28,1.21.11,2.17,1.07,2.28,2.28Z"/>
    <path class="cls-9" d="M603.66,511.66c0,1.4-1.13,2.53-2.53,2.53s-2.53-1.13-2.53-2.53c0-1.4,1.13-2.53,2.53-2.53h0c1.38-.01,2.52,1.1,2.53,2.49,0,.01,0,.03,0,.04Z"/>
    <path class="cls-9" d="M575.71,471.8c0,1.38-1.12,2.51-2.51,2.51s-2.51-1.12-2.51-2.51,1.12-2.51,2.51-2.51,2.51,1.12,2.51,2.51h0Z"/>
    <path class="cls-9" d="M609.36,445.25c0,1.38-1.12,2.51-2.51,2.51s-2.51-1.12-2.51-2.51,1.12-2.51,2.51-2.51c1.38.01,2.5,1.13,2.51,2.51Z"/>
    <circle class="cls-9" cx="436.06" cy="406.76" r="2.51"/>
    <path class="cls-9" d="M370.87,463.07c-.01,1.38-1.14,2.5-2.53,2.49s-2.5-1.14-2.49-2.53c.01-1.38,1.13-2.49,2.51-2.49,1.38,0,2.51,1.12,2.51,2.51,0,0,0,.01,0,.02Z"/>
    <path class="cls-9" d="M368.36,529.25c.01,1.4-1.11,2.54-2.51,2.55s-2.54-1.11-2.55-2.51c-.01-1.4,1.11-2.54,2.51-2.55.01,0,.03,0,.04,0,1.38,0,2.51,1.12,2.51,2.51h0Z"/>
    <circle class="cls-9" cx="344.3" cy="543.64" r="2.51"/>
    <path class="cls-9" d="M429.99,474.88c0,1.38-1.12,2.51-2.51,2.51s-2.51-1.12-2.51-2.51,1.12-2.51,2.51-2.51h0c1.38,0,2.51,1.12,2.51,2.51Z"/>
    <path class="cls-9" d="M464.9,491.42c.01,1.4-1.11,2.54-2.51,2.55-1.4.01-2.54-1.11-2.55-2.51-.01-1.4,1.11-2.54,2.51-2.55.01,0,.03,0,.04,0,1.38,0,2.51,1.12,2.51,2.51Z"/>
    <path class="cls-9" d="M527.32,493.93c0,1.38-1.12,2.51-2.51,2.51s-2.51-1.12-2.51-2.51,1.12-2.51,2.51-2.51c1.38.01,2.5,1.13,2.51,2.51Z"/>
    <path class="cls-9" d="M543.59,460.54c.13,1.39-.89,2.62-2.28,2.75-1.39.13-2.62-.89-2.75-2.28-.01-.16-.01-.31,0-.47.13-1.39,1.36-2.41,2.75-2.28,1.21.11,2.17,1.07,2.28,2.28Z"/>
    <path class="cls-9" d="M531.41,577.88c0,1.38-1.12,2.51-2.51,2.51s-2.51-1.12-2.51-2.51,1.12-2.51,2.51-2.51,2.51,1.12,2.51,2.51h0Z"/>
    <path class="cls-9" d="M531.41,604.03c0,1.38-1.12,2.51-2.51,2.51s-2.51-1.12-2.51-2.51,1.12-2.51,2.51-2.51c1.38.01,2.5,1.13,2.51,2.51Z"/>
    <path class="cls-9" d="M541.06,534.33c0,1.38-1.12,2.51-2.51,2.51s-2.51-1.12-2.51-2.51,1.12-2.51,2.51-2.51c1.38.01,2.5,1.13,2.51,2.51Z"/>
    <path class="cls-9" d="M498.02,514.1c0,1.38-1.12,2.51-2.51,2.51s-2.51-1.12-2.51-2.51,1.12-2.51,2.51-2.51h0c1.38,0,2.51,1.12,2.51,2.51Z"/>
    <path class="cls-9" d="M508.05,546.14c0,1.38-1.12,2.51-2.51,2.51s-2.51-1.12-2.51-2.51c0-1.38,1.12-2.51,2.51-2.51s2.51,1.12,2.51,2.51h0Z"/>
    <path class="cls-9" d="M459.86,531.83c0,1.38-1.12,2.51-2.51,2.51s-2.51-1.12-2.51-2.51c0-1.38,1.12-2.51,2.51-2.51s2.51,1.12,2.51,2.51h0Z"/>
    <path class="cls-9" d="M449.28,590.95c0,1.38-1.12,2.51-2.51,2.51s-2.51-1.12-2.51-2.51c0-1.38,1.12-2.51,2.51-2.51s2.51,1.12,2.51,2.51h0Z"/>
    <path class="cls-9" d="M472.9,567.3c0,1.38-1.12,2.51-2.51,2.51s-2.51-1.12-2.51-2.51c0-1.38,1.12-2.51,2.51-2.51s2.51,1.12,2.51,2.51h0Z"/>
    <path class="cls-9" d="M422.8,599.04c0,1.38-1.12,2.51-2.51,2.51s-2.51-1.12-2.51-2.51c0-1.38,1.12-2.51,2.51-2.51s2.51,1.12,2.51,2.51h0Z"/>
    <circle class="cls-9" cx="472.9" cy="613.36" r="2.51"/>
    <path class="cls-9" d="M500.29,593.46c0,1.38-1.12,2.51-2.51,2.51s-2.51-1.12-2.51-2.51c0-1.38,1.12-2.51,2.51-2.51,1.38.01,2.5,1.13,2.51,2.51Z"/>
    <path class="cls-9" d="M427.48,514.1c.01,1.4-1.11,2.54-2.51,2.55-1.4.01-2.54-1.11-2.55-2.51-.01-1.4,1.11-2.54,2.51-2.55.01,0,.03,0,.04,0,1.38,0,2.51,1.12,2.51,2.51Z"/>
    <circle class="cls-9" cx="426.21" cy="562.33" r="2.51"/>
    <path class="cls-9" d="M342.3,501.67c.01,1.4-1.11,2.54-2.51,2.55-1.4.01-2.54-1.11-2.55-2.51-.01-1.4,1.11-2.54,2.51-2.55.01,0,.03,0,.04,0,1.38,0,2.51,1.12,2.51,2.51Z"/>
    <path class="cls-9" d="M379.25,499.16c-.01,1.38-1.14,2.5-2.53,2.49s-2.5-1.14-2.49-2.53c.01-1.38,1.13-2.49,2.51-2.49,1.38,0,2.51,1.12,2.51,2.51,0,0,0,.01,0,.02Z"/>
    <path class="cls-9" d="M391.41,421.06c-.13,1.39-1.36,2.41-2.75,2.28-1.21-.11-2.17-1.07-2.28-2.28-.13-1.39.89-2.62,2.28-2.75,1.39-.13,2.62.89,2.75,2.28.01.16.01.31,0,.47Z"/>
    <g class="cls-11">
      <path class="cls-1" d="M402.06,492.26s6.6-15.09,6.31-14.87,6.33,57.49,3.41,73.86c0,0-2.57-33.41-9.72-58.99Z"/>
    </g>
    <g class="cls-11">
      <path class="cls-1" d="M507.52,404.78l-16.36,17.75c-.57,8.27,4.64,20.32,9.46,27.08,2.2,3.06,5.08,6.09,8.8,6.38,1.98,0,3.94-.39,5.76-1.17l43.68-15.09c-1.21-1.96-2.42-3.92-3.61-5.87,10.29,6.76,24.12,3.9,30.89-6.4.79-1.2,1.45-2.46,2-3.79-15.1-6.35-25.04-21.01-25.36-37.39l-8.09-4.57-47.16,23.07Z"/>
    </g>
    <g class="cls-11">
      <path class="cls-1" d="M534.77,523.73c.44,1.23-19.16,9.5-43.29,19.8-24.13,10.29-43.73,18.48-44.3,17.29s18.23-11.33,42.49-21.58c24.26-10.25,44.65-16.58,45.09-15.51Z"/>
    </g>
    <path class="cls-8" d="M637.03,498.88c-.24,0-1.94-7.81-3.78-17.6-1.25-5.86-2.2-11.77-2.86-17.73,1.58,5.79,2.84,11.67,3.78,17.6,1.26,5.86,2.22,11.77,2.86,17.73Z"/>
    <path class="cls-8" d="M645.63,495.31c-1.13-1.25-2.12-2.62-2.95-4.09-2.13-3.44-4.04-7.02-5.72-10.71-1.66-3.7-3.07-7.5-4.22-11.39-.56-1.59-.94-3.23-1.12-4.9.7,1.52,1.28,3.1,1.74,4.71,1.03,2.93,2.53,6.91,4.4,11.2s3.94,8.07,5.43,10.78c.92,1.41,1.73,2.89,2.44,4.42Z"/>
    <path class="cls-8" d="M409.18,465.62v-.86c0-.57,0-1.47.11-2.44.13-2.2.29-5.3.51-9,.71-9.85.14-19.75-1.69-29.45-1.97-9.69-6.59-18.65-13.35-25.87-2.91-2.86-6.17-5.35-9.7-7.41.28.08.54.19.79.33.76.32,1.49.7,2.2,1.12,2.62,1.51,5.04,3.35,7.19,5.48,7,7.22,11.77,16.3,13.75,26.15,1.86,9.78,2.35,19.78,1.45,29.69-.26,3.81-.57,6.86-.81,8.97-.11.97-.2,1.78-.29,2.44-.01.28-.06.57-.15.84Z"/>
    <path class="cls-8" d="M551.71,434.94c.49,1.84.82,3.71.97,5.61.42,3.5.84,8.36.97,13.75s0,10.25-.33,13.77c-.04,1.9-.28,3.8-.7,5.65-.12-1.9-.12-3.8,0-5.7.11-3.5.18-8.36,0-13.7s-.44-10.21-.7-13.7c-.2-1.88-.26-3.78-.2-5.67Z"/>
    <path class="cls-8" d="M454.84,366.18c1.39-17.46,21.53-6.84,19.29-24.19-5.06-39.13-6.95-78.61-5.65-118.05"/>
    <path class="cls-6" d="M515.97,366.62l7.79-119.32c-19.8-27.32-46.74-32.99-79.4-23.38,0,0-13.86,57.67-12.21,85.23,1.72,28.9,23.16,34.66,23.16,34.66,0,0-.75,9.72-1.8,21.64-5.54.9-11.37,2.09-17.44,3.59-2.33.59,43.18,66.36,43.18,66.36l56.81-61.59c-6.34-3.29-13.09-5.71-20.08-7.19Z"/>
    <path class="cls-8" d="M444.4,269.12c-.22,1.97,1.18,3.76,3.15,4.03,1.91.34,3.74-.94,4.08-2.85,0-.02,0-.05.01-.07.22-1.97-1.18-3.76-3.15-4.03-1.9-.35-3.72.91-4.07,2.81,0,.04-.01.08-.02.12Z"/>
    <path class="cls-8" d="M440.02,265.98c.4.51,3.37-1.25,7.3-.86s6.6,2.64,7.08,2.2-.15-1.1-1.32-2.2c-1.58-1.35-3.54-2.17-5.61-2.35-2.04-.22-4.1.23-5.87,1.28-1.3.88-1.78,1.69-1.58,1.94Z"/>
    <path class="cls-8" d="M484.52,273.76c-.2,1.97,1.2,3.75,3.17,4.03,1.9.35,3.72-.91,4.07-2.81,0-.04.01-.08.02-.12.2-1.97-1.2-3.75-3.17-4.03-1.91-.34-3.74.94-4.08,2.85,0,.02,0,.05-.01.07Z"/>
    <path class="cls-8" d="M480.2,270.55c.4.53,3.37-1.25,7.3-.86s6.6,2.64,7.08,2.2-.15-1.08-1.32-2.2c-1.59-1.26-3.52-2.01-5.54-2.18-2.04-.2-4.1.25-5.87,1.28-1.36.7-1.85,1.52-1.65,1.76Z"/>
    <path class="cls-8" d="M462.59,297.63c-2-.86-4.1-1.46-6.25-1.78-1.01-.2-1.94-.51-2.02-1.21,0-1.04.34-2.06.95-2.9l3.72-7.35c5.19-10.45,9.06-19.09,8.62-19.31s-4.97,8.12-10.16,18.59l-3.59,7.39c-.75,1.15-1.07,2.53-.9,3.89.23.74.78,1.34,1.5,1.63.54.21,1.1.34,1.67.4,2.12.49,4.29.71,6.47.66Z"/>
    <path class="cls-3" d="M455.31,343.82c13.35,1.51,26.86-.71,39.02-6.42,0,0-11.17,18.65-39.37,13.2l.35-6.77Z"/>
    <path class="cls-3" d="M463.33,307.24c1.71-1.76,4.2-2.51,6.6-2,1.73.34,3.25,1.37,4.22,2.84.95,1.44.89,3.33-.15,4.71-1.43,1.32-3.52,1.63-5.28.79-1.79-.83-3.4-2.01-4.73-3.48-.4-.36-.74-.79-.99-1.28-.25-.47-.2-1.05.13-1.47"/>
    <path class="cls-8" d="M473.89,301.48c-.64-.11-1.08,4.16-5.01,6.82s-8.45,1.76-8.53,2.35c0,.26.92.92,2.84,1.17,2.5.28,5.01-.33,7.1-1.72,2.01-1.34,3.41-3.41,3.92-5.76.33-1.76-.02-2.86-.31-2.86Z"/>
    <path class="cls-8" d="M453.46,260.21c-.24.59-2.95,0-6.25,0s-6,.48-6.22,0,2.46-2.2,6.25-2.2,6.47,1.65,6.22,2.2Z"/>
    <path class="cls-8" d="M492.98,261.91c-.13,0-.13-.31,0-.68v.59c-1.98-.75-4.04-1.26-6.14-1.52-3.72-.4-6.6.81-6.99.24s.46-.95,1.74-1.56c1.7-.79,3.59-1.11,5.45-.92,2.48.11,4.8,1.22,6.44,3.08l.26.44-.18.13c-.26.22-.48.29-.59.2Z"/>
    <path class="cls-3" d="M494,287.49c-.31,0-.62-.4-.68-.95s.13-1.06.44-1.1.62.4.68.97-.11,1.06-.44,1.08Z"/>
    <path class="cls-3" d="M484.98,287.11c-.31,0-.51-.53-.29-1.08s.75-.75.97-.53c.21.29.21.68,0,.97-.13.35-.35.66-.68.64Z"/>
    <path class="cls-3" d="M489.93,290.98c-.38.06-.74-.2-.8-.59-.06-.38.2-.74.59-.8.38-.06.74.2.8.59,0,.05.01.1,0,.14.02.34-.23.63-.57.66,0,0-.02,0-.02,0Z"/>
    <path class="cls-3" d="M438.48,285.35c-.31,0-.51-.53-.44-1.1s.37-.99.68-.95.51.53.44,1.08-.37.99-.68.97Z"/>
    <path class="cls-3" d="M447.54,285.53c-.31,0-.55-.42-.53-.86s.31-.84.62-.81.55.4.53.86-.31.84-.62.81Z"/>
    <path class="cls-3" d="M443.12,288.39c-.31,0-.57-.44-.57-1.01s.24-1.01.55-1.01.57.44.57,1.01-.24,1.01-.55,1.01Z"/>
    <path class="cls-8" d="M471.85,210.2c-1.21,13.77-6.88,26.76-16.14,37.02-9.24,10.14-19.64,19-33.15,21.44,3.67-11.64,4.4-20.98,7.43-30.79,3.04-9.81,7.13-19.44,14.71-26.17,9.8-8.43,23.49-10.66,35.46-5.76"/>
    <path class="cls-4" d="M425.46,257.71c2.9-.02,5.78-.39,8.6-1.08,3-.93,5.82-2.34,8.38-4.16,3.14-2.23,6.09-4.73,8.8-7.48,4.87-5.08,9.19-10.66,12.89-16.65l3.39-5.43c.37-.69.8-1.35,1.3-1.96-.24.77-.57,1.51-.99,2.2-.7,1.34-1.76,3.28-3.15,5.61-3.55,6.15-7.85,11.85-12.78,16.96-2.76,2.78-5.77,5.31-9,7.54-2.65,1.83-5.58,3.2-8.69,4.05-2.09.55-4.26.8-6.42.73-.79,0-1.57-.11-2.33-.33Z"/>
    <path class="cls-4" d="M434.19,259.14c-.23.38-.51.73-.81,1.06-.55.7-1.34,1.72-2.2,3.12-2.61,3.91-4.47,8.28-5.48,12.87-.72,3.16-1.02,6.4-.88,9.63.23,3.71.79,7.39,1.65,11,1.01,4.1,1.64,8.28,1.87,12.49.15,4.56-.8,9.08-2.77,13.2-1.95,4.09-4.84,7.67-8.42,10.45-3.5,2.64-7.32,4.4-10.29,6.93-2.99,2.16-4.84,5.56-5.04,9.24.25,3.2,1.29,6.3,3.04,9,1.45,2.29,2.69,4.7,3.7,7.21.73,1.94,1.06,4,.95,6.07-.07,1.31-.47,2.58-1.17,3.7-.24.39-.52.75-.86,1.06.21-.4.45-.78.7-1.14.6-1.12.93-2.36.97-3.63.03-2.01-.33-4.01-1.08-5.87-1.06-2.45-2.33-4.82-3.78-7.06-1.85-2.79-2.96-5.99-3.23-9.33-.02-1.9.47-3.77,1.43-5.41,1.01-1.68,2.31-3.17,3.83-4.4,3.08-2.64,6.91-4.4,10.29-6.99,3.46-2.7,6.24-6.17,8.12-10.14,1.91-3.95,2.84-8.3,2.73-12.69-.23-4.11-.83-8.18-1.78-12.19-.86-3.68-1.39-7.42-1.58-11.2-.11-3.29.23-6.59,1.01-9.79,1.1-4.65,3.07-9.04,5.81-12.95.74-1.06,1.55-2.06,2.42-3.01.24-.44.54-.85.88-1.21Z"/>
    <path class="cls-8" d="M401.95,319.51s.2.51.77,1.36c.81,1.23,1.93,2.22,3.26,2.86,2.09,1.05,4.46,1.38,6.75.97,3.04-.59,5.66-2.48,7.19-5.17,1.89-3.24,2.61-7.02,2.07-10.73-.72-4.25-2.41-8.27-4.93-11.77-2.49-3.83-5.92-7.26-8.64-11.57-1.41-2.2-2.38-4.65-2.86-7.21-.47-2.66-.32-5.39.42-7.98,1.54-5.14,5.12-9.42,9.92-11.83,2.25-1.07,4.64-1.81,7.1-2.2,2.35-.48,4.66-.97,6.86-1.58,8.93-2.2,15.4-7.98,20.61-12.36,4.19-3.51,7.89-7.57,11-12.08,1.07-1.7,1.99-3.49,2.75-5.34-.12.51-.26,1.02-.44,1.52-.55,1.4-1.22,2.74-2,4.03-3.06,4.62-6.77,8.79-11,12.38-2.84,2.53-5.83,4.9-8.95,7.08-3.6,2.54-7.62,4.43-11.88,5.59-2.2.66-4.55,1.14-6.88,1.65-2.39.39-4.71,1.13-6.88,2.2-4.56,2.31-7.98,6.39-9.46,11.28-.7,2.46-.84,5.05-.4,7.57.46,2.45,1.39,4.79,2.75,6.88,2.62,4.18,6.05,7.68,8.58,11.57,2.58,3.62,4.28,7.78,4.97,12.16.55,3.87-.23,7.8-2.2,11.17-2.97,5.12-9.47,6.97-14.69,4.18-1.35-.72-2.47-1.79-3.26-3.1-.26-.47-.44-.99-.53-1.52Z"/>
    <path class="cls-4" d="M570.71,390.22c1.32-1.75,2.49-3.6,3.5-5.54,1.06-2.31,1.8-4.75,2.2-7.26.59-3.33.55-6.74-.13-10.05-.78-4.03-2.53-7.8-5.1-11-3.09-3.56-6.56-6.79-10.34-9.61-4.28-3.15-8-6.99-11-11.37-1.53-2.39-2.56-5.07-3.04-7.87-.41-2.92-.02-5.9,1.12-8.62,2.2-5.48,6.09-9.79,8.16-14.74,2.25-4.73,1.6-10.33-1.69-14.41-2.94-3.67-6.56-6.73-10.67-9.02-3.52-2.07-6.81-4.51-9.81-7.28-2.5-2.4-4.47-5.29-5.78-8.49-.99-2.43-1.33-5.08-.97-7.68.14-.94.37-1.87.68-2.77.33-.75.57-1.41.84-1.89l.66-1.1c.15-.24.22-.35.24-.35s0,.15-.15.42l-.57,1.12c-.24.48-.46,1.14-.75,1.89-.27.89-.46,1.8-.57,2.73-.29,2.53.08,5.09,1.08,7.43,1.33,3.1,3.29,5.9,5.76,8.2,3.05,2.74,6.4,5.14,9.99,7.15,4.23,2.31,7.96,5.43,11,9.17,3.48,4.32,4.19,10.25,1.83,15.26-2.2,5.12-6.03,9.46-8.14,14.74-1.07,2.57-1.44,5.38-1.08,8.14.47,2.67,1.45,5.23,2.9,7.52,2.93,4.3,6.55,8.08,10.71,11.2,3.8,2.88,7.28,6.17,10.38,9.79,2.62,3.28,4.39,7.17,5.15,11.31.65,3.39.65,6.88,0,10.27-.48,2.55-1.32,5.02-2.49,7.35-.75,1.45-1.64,2.82-2.66,4.09l-.84.97-.42.31Z"/>
    <path class="cls-8" d="M556.13,385.52c-1.5-13.06-4.05-18.45-3.98-31.61,0-12.05-11-28.09-4.18-42.25-2.43-8.93-5.62-17.62-9.55-26-2.31-5.23-10.71-21.09-12.84-26.39,1.41-9.79,8.45-9.06,7.08-18.83-1.63-11.72-7.15-23.45-17.09-29.85-6.44-3.74-13.66-5.93-21.09-6.38-5.13-.7-10.35-.46-15.4.7-5.09,1.21-9.5,4.37-12.3,8.8l2.6-2.46c-2.04,11.15,1.14,22.62,8.64,31.12,7.52,8.35,17.44,14.17,28.4,16.65-.09,3.66.73,7.28,2.4,10.54l-.26.37.64.35c.68,1.22,1.48,2.38,2.38,3.45,1.22,1.41,2.62,2.65,4.16,3.7,2.21,4.47,2.21,9.72,0,14.19-2.73,5.08-8.2,8.8-9.3,14.36-1.25,6.36,3.59,12.45,3.48,18.92-.24,3.43-1.35,6.74-3.21,9.63-11.75,15.09-9.68,30.62-3.04,48.52,2.46,6.6,6.27,13.61,4.4,20.46-1.83,6.44-8.31,10.69-10.34,17.07-2.84,8.8,3.7,17.73,9.81,24.74,13.04-5.86,26.66-10.35,40.62-13.42-1.41-5.86-2.11-11.87-2.07-17.9,1.55,8.47,9.68,14.08,18.15,12.53,4.73-.87,8.79-3.87,11.01-8.13-11.68-6.27-17.6-19.8-19.11-32.88Z"/>
    <path class="cls-4" d="M537.41,245.81s-.2.26-.64.64c-.63.59-1.29,1.15-1.98,1.67-2.54,1.93-5.31,3.54-8.25,4.79-4.34,1.92-8.97,3.08-13.7,3.43-5.81.49-11.66-.26-17.16-2.2-5.48-2.01-10.45-5.2-14.56-9.35-5.62-5.64-9.62-12.68-11.61-20.39-.31-1.1-.44-1.96-.55-2.53-.07-.3-.12-.6-.13-.9.4,1.09.74,2.2,1.01,3.32.93,3.04,2.14,5.98,3.61,8.8,2.16,4.13,4.95,7.9,8.27,11.17,4.05,4.02,8.92,7.13,14.27,9.11,5.39,1.86,11.1,2.61,16.78,2.2,4.65-.34,9.22-1.41,13.53-3.19,3.95-1.74,7.68-3.95,11.11-6.58Z"/>
    <path class="cls-4" d="M535.39,231.29c-.66.3-1.35.51-2.07.64-1.91.47-3.85.79-5.81.95-13.2,1.17-26.19-3.84-35.19-13.57-1.34-1.44-2.57-2.97-3.67-4.6-.43-.58-.8-1.2-1.08-1.87.15,0,1.78,2.51,5.23,6,9.06,9.3,21.7,14.22,34.66,13.48,4.9-.37,7.87-1.21,7.92-1.03Z"/>
    <path class="cls-4" d="M537.41,237.74c-3.5,5.17-9.42,8.16-15.66,7.92,2.9-.65,5.73-1.58,8.45-2.77,2.57-1.47,4.99-3.2,7.21-5.15Z"/>
    <path class="cls-4" d="M534.18,435.4s-.18-.73-.57-2.05c-.54-1.93-1.66-3.65-3.21-4.93-1.01-.84-2.2-1.58-3.5-2.66-1.34-1.18-2.4-2.64-3.1-4.29-.38-.91-.7-1.84-.95-2.79-.29-1.01-.46-2.05-.51-3.1-.17-2.33.44-4.65,1.74-6.6,1.44-2.09,3.41-3.77,5.7-4.86,2.37-1.1,4.27-3,5.37-5.37.53-1.24.79-2.59.77-3.94-.09-1.41-.43-2.79-.99-4.09-1.26-2.72-2.73-5.34-4.4-7.83-3.51-5.66-5.14-12.29-4.66-18.94.45-7.14,3.27-13.93,8.01-19.29,2.2-2.73,4.4-5.7,4.4-9.13-.23-3.36-1.51-6.57-3.65-9.17-1.96-2.73-4.4-5.12-6.09-7.92-1.98-2.66-3.03-5.9-2.97-9.22.46-3.11,1.85-6,4-8.29,1.91-2.09,3.48-4.46,4.68-7.02,2.13-4.65,1.99-10.03-.37-14.56-1.13-1.88-2.62-3.51-4.4-4.79-1.67-1.28-3.37-2.33-4.88-3.43-1.48-.97-2.79-2.18-3.87-3.59-.88-1.19-1.58-2.51-2.07-3.92-.75-1.92-.93-4.01-.51-6.03.16-.7.46-1.36.9-1.94-.3.64-.53,1.3-.7,1.98-.36,1.98-.13,4.02.66,5.87.49,1.35,1.19,2.62,2.07,3.76,1.08,1.34,2.37,2.49,3.83,3.41,1.52,1.08,3.21,2.2,4.95,3.41,1.87,1.31,3.46,2.98,4.66,4.93,2.52,4.71,2.71,10.32.53,15.2-1.22,2.63-2.83,5.06-4.77,7.21-2.03,2.18-3.34,4.91-3.78,7.85-.03,3.11.97,6.15,2.84,8.64,1.76,2.73,4.09,5.1,6.09,7.9,2.28,2.75,3.62,6.16,3.85,9.72-.03,1.85-.53,3.65-1.45,5.26-.91,1.55-1.96,3.02-3.12,4.4-4.62,5.21-7.38,11.81-7.83,18.76-.49,6.45,1.05,12.88,4.4,18.41,1.68,2.54,3.15,5.21,4.4,7.98.61,1.39.96,2.88,1.03,4.4.03,1.47-.26,2.92-.86,4.27-1.17,2.53-3.2,4.55-5.74,5.7-2.19,1.02-4.08,2.6-5.48,4.57-1.24,1.81-1.83,3.99-1.69,6.18.12,1.97.58,3.9,1.34,5.72.63,1.58,1.63,3,2.9,4.14,1.17,1.08,2.42,1.85,3.43,2.73,1.58,1.33,2.7,3.14,3.19,5.15.14.51.24,1.02.31,1.54.07.21.1.42.09.64Z"/>
    <path class="cls-4" d="M537.72,242.38c-.14.27-.32.53-.53.75-.55.7-1.14,1.37-1.76,2-2.3,2.33-4.97,4.26-7.9,5.72-4.36,2.19-9.17,3.35-14.05,3.39-5.98.03-11.89-1.35-17.24-4.03-2.76-1.41-5.25-3.31-7.35-5.61-1.92-2.16-3.49-4.6-4.66-7.24-2.2-4.99-3.59-9.72-5.1-13.5-1.08-3.02-2.55-5.89-4.4-8.51-1.36-1.83-2.33-2.66-2.2-2.73.26.16.5.35.7.57.65.6,1.26,1.25,1.83,1.94,2.02,2.57,3.65,5.43,4.82,8.49,1.61,3.78,3.01,8.49,5.28,13.37,1.14,2.55,2.67,4.91,4.53,6.99,2.04,2.2,4.45,4.03,7.13,5.41,5.22,2.6,10.97,3.96,16.8,3.98,8.05,0,15.8-3.04,21.71-8.51,1.52-1.54,2.31-2.55,2.4-2.49Z"/>
  </g>
  <g id="freepik--Stars--inject-2">
    <path class="cls-4" d="M307.72,634.83c-5.63.57-11.3.76-16.96.57-5.66.19-11.32,0-16.96-.57,5.63-.57,11.3-.76,16.96-.57,5.66-.18,11.32,0,16.96.57Z"/>
    <path class="cls-4" d="M325.71,580.92c.58,6.68.77,13.4.57,20.1.2,6.71,0,13.42-.57,20.1-.57-6.69-.76-13.4-.57-20.1-.19-6.71,0-13.42.57-20.1Z"/>
    <path class="cls-4" d="M344.89,633.53c5.63-.57,11.3-.76,16.96-.57,5.66-.19,11.32,0,16.96.57-5.63.58-11.3.77-16.96.57-5.66.2-11.33,0-16.96-.57Z"/>
    <path class="cls-4" d="M326.9,687.46c-.58-6.69-.77-13.41-.57-20.13-.2-6.71,0-13.42.57-20.1.57,6.69.76,13.4.57,20.1.19,6.71,0,13.43-.57,20.13Z"/>
    <path class="cls-4" d="M354.31,664.32c-2.5-2.44-4.72-5.15-6.6-8.09-2.18-2.72-4.04-5.67-5.56-8.8,2.45,2.47,4.62,5.19,6.49,8.12,2.21,2.71,4.11,5.65,5.67,8.78Z"/>
    <path class="cls-4" d="M352.72,603.18c-1.63,2.81-3.59,5.41-5.83,7.76-1.91,2.59-4.13,4.93-6.6,6.99,1.62-2.8,3.57-5.4,5.81-7.74,1.93-2.59,4.15-4.94,6.62-7.02Z"/>
    <path class="cls-4" d="M313.84,618.77c-2.35-1.51-4.48-3.32-6.36-5.39-2.11-1.81-3.98-3.9-5.54-6.2,2.36,1.49,4.49,3.29,6.36,5.37,2.13,1.8,4,3.9,5.54,6.22Z"/>
    <path class="cls-4" d="M312.32,645.82c-1.43,2.75-3.18,5.31-5.23,7.63-1.74,2.56-3.8,4.89-6.14,6.93,1.44-2.74,3.2-5.3,5.23-7.63,1.76-2.55,3.82-4.88,6.14-6.93Z"/>
    <path class="cls-4" d="M912.22,341.44c-4.2.76-8.51.76-12.71,0,4.2-.76,8.51-.76,12.71,0Z"/>
    <path class="cls-4" d="M919.02,321.25c.76,4.99.76,10.07,0,15.07-.59-2.46-.79-5-.59-7.52-.2-2.53,0-5.08.59-7.54Z"/>
    <path class="cls-4" d="M926.19,340.96c4.2-.76,8.51-.76,12.71,0-4.2.76-8.51.76-12.71,0Z"/>
    <path class="cls-4" d="M919.44,361.17c-.76-4.99-.76-10.07,0-15.07.79,4.99.79,10.08,0,15.07Z"/>
    <path class="cls-4" d="M929.82,352.5c-.24.18-1.47-1.08-2.73-2.84s-2.05-3.3-1.78-3.5,1.47,1.1,2.73,2.84,1.94,3.3,1.78,3.5Z"/>
    <path class="cls-4" d="M929.12,329.58c.24.22-.62,1.61-1.89,3.15s-2.55,2.6-2.79,2.4.62-1.61,1.91-3.15,2.53-2.6,2.77-2.4Z"/>
    <path class="cls-4" d="M914.56,335.44c-.22.22-1.39-.57-2.62-1.76s-2.07-2.35-1.85-2.6,1.41.57,2.64,1.76,2.05,2.35,1.83,2.6Z"/>
    <path class="cls-4" d="M913.98,345.53c.26.2-.51,1.56-1.67,3.08s-2.29,2.49-2.57,2.49.51-1.58,1.67-3.08,2.33-2.68,2.57-2.49Z"/>
    <path class="cls-4" d="M82.67,734.44c-2.06.57-4.21.77-6.33.57-2.14.2-4.29,0-6.36-.57,2.09-.59,4.28-.81,6.44-.64,2.1-.15,4.22.07,6.25.64Z"/>
    <path class="cls-4" d="M89.43,714.25c.76,4.99.76,10.07,0,15.07-.76-4.99-.76-10.07,0-15.07Z"/>
    <path class="cls-4" d="M96.62,733.96c2.07-.56,4.22-.75,6.36-.57,2.14-.18,4.29.01,6.36.57-2.07.57-4.22.76-6.36.57-2.14.2-4.29,0-6.36-.57Z"/>
    <path class="cls-4" d="M89.87,754.17c-.76-4.99-.76-10.07,0-15.07.76,4.99.76,10.07,0,15.07Z"/>
    <path class="cls-4" d="M100.14,745.5c-.26.18-1.47-1.1-2.73-2.84s-2.05-3.3-1.78-3.5,1.47,1.08,2.73,2.84,2.05,3.3,1.78,3.5Z"/>
    <path class="cls-4" d="M99.54,722.59c.24.22-.62,1.61-1.91,3.15s-2.53,2.6-2.77,2.4.62-1.61,1.91-3.15,2.53-2.6,2.77-2.4Z"/>
    <path class="cls-4" d="M84.98,728.44c-.22.22-1.41-.57-2.64-1.76s-2.05-2.38-1.83-2.6,1.41.57,2.64,1.76,2.07,2.35,1.83,2.6Z"/>
    <path class="cls-4" d="M84.41,738.53c.24.18-.51,1.56-1.67,3.08s-2.33,2.57-2.6,2.38.51-1.58,1.69-3.08,2.33-2.57,2.57-2.38Z"/>
    <path class="cls-4" d="M732.46,216.51l.66,1.61c1.18,2.8,3.42,5.01,6.22,6.16l1.74.7-1.67.68c-2.85,1.17-5.11,3.44-6.27,6.29l-.46,1.17-.7-1.47c-1.28-2.68-3.56-4.75-6.36-5.76l-1.52-.55,1.98-.97c2.5-1.2,4.47-3.29,5.54-5.85l.84-2Z"/>
    <path class="cls-4" d="M76.21,423.68l.64,1.52c1.1,2.68,3.23,4.8,5.92,5.87l1.67.68-1.61.64c-2.72,1.1-4.87,3.26-5.96,5.98l-.46,1.12-.66-1.41c-1.24-2.54-3.42-4.5-6.07-5.48l-1.43-.53,1.89-.92c2.38-1.15,4.26-3.14,5.28-5.59l.79-1.89Z"/>
    <path class="cls-4" d="M865.05,712.6l.9,2.2c1.6,3.83,4.67,6.86,8.51,8.42l2.38.97-2.2.92c-3.93,1.61-7.03,4.75-8.6,8.69l-.64,1.61-.97-2c-1.74-3.67-4.87-6.5-8.69-7.87l-2.07-.77,2.71-1.32c3.42-1.65,6.12-4.5,7.59-8.01l1.08-2.84Z"/>
    <path class="cls-4" d="M744.14,70.33c-8.4.76-16.85.76-25.25,0,8.4-.76,16.85-.76,25.25,0Z"/>
    <path class="cls-4" d="M757.54,36c.58,4.25.77,8.54.57,12.82.2,4.28,0,8.56-.57,12.8-.56-4.24-.76-8.53-.57-12.8-.18-4.28,0-8.57.57-12.82Z"/>
    <path class="cls-4" d="M771.81,69.56c8.4-.76,16.85-.76,25.25,0-8.4.76-16.85.76-25.25,0Z"/>
    <path class="cls-4" d="M758.42,103.85c-.58-4.24-.77-8.53-.57-12.8-.2-4.28,0-8.57.57-12.82.57,4.25.76,8.54.57,12.82.18,4.28,0,8.56-.57,12.8Z"/>
    <path class="cls-4" d="M778.8,89.12c-1.91-1.38-3.57-3.07-4.93-4.99-1.64-1.7-3.01-3.64-4.05-5.76,1.9,1.39,3.56,3.08,4.93,4.99,1.65,1.69,3.02,3.64,4.05,5.76Z"/>
    <path class="cls-4" d="M777.64,50.19c-1.13,1.93-2.57,3.65-4.27,5.1-1.43,1.74-3.14,3.23-5.06,4.4,1.11-1.94,2.55-3.67,4.24-5.12,1.43-1.74,3.15-3.22,5.08-4.38Z"/>
    <path class="cls-4" d="M748.69,60.11c-1.8-.76-3.42-1.87-4.79-3.26-2.44-2.02-4.27-3.87-4.07-4.11s2.35,1.21,4.79,3.23,4.27,3.89,4.07,4.13Z"/>
    <path class="cls-4" d="M747.57,77.26c-.96,1.89-2.25,3.59-3.81,5.04-2.35,2.55-4.4,4.4-4.66,4.24.94-1.88,2.22-3.58,3.76-5.01,1.3-1.69,2.89-3.14,4.71-4.27Z"/>
    <path class="cls-4" d="M86.35,242.16c-4.18.58-8.41.77-12.62.57-4.22.2-8.44,0-12.62-.57,4.18-.57,8.41-.76,12.62-.57,4.22-.18,8.44,0,12.62.57Z"/>
    <path class="cls-4" d="M99.74,207.82c.58,4.24.77,8.53.57,12.8.2,4.28,0,8.57-.57,12.82-.57-4.25-.76-8.54-.57-12.82-.18-4.28,0-8.56.57-12.8Z"/>
    <path class="cls-4" d="M114.02,241.34c4.18-.58,8.41-.77,12.62-.57,4.22-.2,8.44,0,12.62.57-4.18.57-8.41.76-12.62.57-4.22.18-8.44,0-12.62-.57Z"/>
    <path class="cls-4" d="M100.62,275.68c-.56-4.24-.76-8.53-.57-12.8-.18-4.28,0-8.57.57-12.82.57,4.25.76,8.54.57,12.82.18,4.28,0,8.56-.57,12.8Z"/>
    <path class="cls-4" d="M121.03,260.92c-1.94-1.36-3.64-3.04-5.01-4.97-1.65-1.68-3.02-3.62-4.05-5.74,1.91,1.38,3.57,3.07,4.93,4.99,1.67,1.68,3.07,3.61,4.13,5.72Z"/>
    <path class="cls-4" d="M119.84,222.01c-1.12,1.93-2.55,3.65-4.24,5.1-1.43,1.75-3.15,3.24-5.08,4.4,1.13-1.93,2.57-3.65,4.27-5.1,1.42-1.74,3.13-3.23,5.06-4.4Z"/>
    <path class="cls-4" d="M90.92,231.93c-1.8-.76-3.44-1.86-4.82-3.26-2.44-2.05-4.27-3.89-4.07-4.13,1.8.76,3.42,1.87,4.79,3.26,2.46,2.05,4.29,3.89,4.09,4.13Z"/>
    <path class="cls-4" d="M89.78,249.08c-.95,1.89-2.24,3.6-3.81,5.04-2.33,2.55-4.4,4.4-4.66,4.24,1-1.89,2.33-3.59,3.92-5.01,1.26-1.68,2.8-3.12,4.55-4.27Z"/>
  </g>
</svg>