<?xml version="1.0" encoding="UTF-8"?>
<svg id="Layer_2" data-name="Layer 2" xmlns="http://www.w3.org/2000/svg" viewBox="0 0 1000 1000">
  <defs>
    <style>
      .cls-1, .cls-2, .cls-3, .cls-4, .cls-5, .cls-6, .cls-7, .cls-8, .cls-9, .cls-10, .cls-11, .cls-12, .cls-13, .cls-14, .cls-15, .cls-16, .cls-17 {
        stroke-width: 0px;
      }

      .cls-1, .cls-12, .cls-13 {
        fill: #000;
      }

      .cls-2 {
        fill: #e0e0e0;
      }

      .cls-3 {
        fill: #e1e1e1;
      }

      .cls-4 {
        fill: #eb996e;
      }

      .cls-5 {
        fill: #455a64;
      }

      .cls-6 {
        fill: #f5f5f5;
      }

      .cls-7 {
        fill: #09f;
      }

      .cls-8 {
        fill: #ffbe9d;
      }

      .cls-9 {
        fill: #ebebeb;
      }

      .cls-10 {
        fill: #263238;
      }

      .cls-11 {
        fill: #fafafa;
      }

      .cls-18, .cls-12 {
        opacity: .3;
      }

      .cls-12, .cls-13, .cls-17 {
        isolation: isolate;
      }

      .cls-13 {
        opacity: .4;
      }

      .cls-14 {
        fill: #375a64;
      }

      .cls-19, .cls-17 {
        opacity: .6;
      }

      .cls-15, .cls-17 {
        fill: #fff;
      }

      .cls-16 {
        fill: #1a2e35;
      }
    </style>
  </defs>
  <g id="freepik--background-complete--inject-13">
    <rect class="cls-9" x="549.07" y="73.2" width="289.82" height="520.66"/>
    <rect class="cls-11" x="560.65" y="88.3" width="263.68" height="490.05"/>
    <polygon class="cls-6" points="824.33 94.07 560.65 429.47 560.65 88.3 824.33 88.3 824.33 94.07"/>
    <rect class="cls-9" x="560.65" y="229.27" width="269.41" height="5.22"/>
    <rect class="cls-9" x="560.65" y="345.96" width="269.41" height="5.22"/>
    <rect class="cls-9" x="560.65" y="462.66" width="269.41" height="5.22"/>
    <rect class="cls-9" x="685.83" y="231.89" width="13.32" height="360.35"/>
    <rect class="cls-9" x="611.43" y="88.3" width="6.04" height="143.57"/>
    <rect class="cls-9" x="663.47" y="88.3" width="6.04" height="143.57"/>
    <rect class="cls-9" x="715.52" y="88.3" width="6.04" height="143.57"/>
    <rect class="cls-9" x="767.58" y="88.3" width="6.04" height="143.57"/>
    <rect class="cls-6" x="536.8" y="64.36" width="12.27" height="532.7"/>
    <polygon class="cls-2" points="851.15 598.55 838.89 593.84 838.89 64.36 851.15 64.36 851.15 598.55"/>
    <rect class="cls-2" x="536.8" y="59" width="314.33" height="14.2"/>
    <rect class="cls-2" x="528.12" y="600.3" width="331.34" height="13.24"/>
    <polygon class="cls-9" points="838.89 593.84 859.44 600.3 528.12 600.3 549.07 593.84 838.89 593.84"/>
    <path class="cls-6" d="M550.04,936.32c34.57-20.76,45.03-63.02,46.39-101.58.23-6.43,1.4-13.15-1.26-18.99-2.66-5.83-9.52-10.18-15.46-7.88-4.93,1.9-7.38,7.3-10.31,11.71-3.98,5.87-9.54,10.49-16.04,13.34-4.25,1.83-9.4,2.78-13.28.27-5.32-3.42-5.44-11.13-4.97-17.5.91-11.89,1.81-23.78,2.7-35.69.83-6.36.62-12.8-.62-19.09-1.57-6.18-5.55-12.14-11.5-14.27-5.96-2.12-13.71.87-15.44,7.03-.42,2.63-.66,5.28-.72,7.94-.37,2.64-1.79,5.48-4.37,6.04-2.58.56-5.03-1.4-6.8-3.4-6.18-6.91-10.04-15.52-13.65-24.08-3.61-8.56-7.09-17.28-12.58-24.74s-13.38-13.61-22.49-14.76c-9.11-1.15-19.23,3.83-22.16,12.64-2.93,8.8,1.67,18.35,6.89,26.02,7.72,11.41,17.05,21.64,27.71,30.37,2.1,1.35,3.72,3.35,4.6,5.69,1.09,4.35-3.24,8.25-7.52,9.4-4.89,1.26-10,.41-15.03.64s-10.56,2.06-12.76,6.64c-3.07,6.35,1.92,13.57,6.97,18.43,10.13,9.72,21.86,17.62,34.68,23.36,4.6,2.06,9.42,3.9,12.99,7.44s5.44,9.46,2.85,13.81c-2.6,4.35-8.58,5.36-13.44,4.12-4.87-1.24-9.07-4.23-13.63-6.33-8.56-3.92-19.92-4.12-26.06,3.09-3.84,5.05-5.1,11.6-3.4,17.71,1.72,6.02,4.65,11.63,8.6,16.49,12.74,17.68,29.95,31.65,49.87,40.49,19.85,8.45,38.59,11.67,59.33,5.67"/>
    <path class="cls-2" d="M543.77,938.18c-.35-15.34,2.35-6.84-2.06-26.64-4.93-21.39-11.08-42.48-18.43-63.17-1.94-5.5-3.83-10.94-5.69-16.33-1.88-5.34-3.75-10.64-5.88-15.71-4.14-9.74-8.81-19.25-14-28.47-4.89-8.84-9.83-17.05-14.43-24.74-4.6-7.69-9.22-14.68-13.63-20.9-6.88-9.88-14.54-19.2-22.9-27.85-2.95-3.07-5.32-5.36-6.95-6.91l-1.86-1.73c-.2-.2-.42-.39-.66-.56.17.23.36.45.58.64l1.77,1.81c1.57,1.61,3.88,3.96,6.78,7.07,8.21,8.75,15.75,18.11,22.55,28,4.35,6.18,8.82,13.3,13.48,20.95s9.57,15.87,14.43,24.74c5.13,9.2,9.75,18.68,13.85,28.39,2.06,5.05,3.96,10.31,5.83,15.67l5.69,16.31c7.35,20.64,13.54,41.67,18.55,63,4.39,19.73,1.77,11.15,2.21,26.43"/>
    <path class="cls-2" d="M511.42,816.25c.38-.86.65-1.76.82-2.68.45-1.73,1.03-4.27,1.69-7.42,1.36-6.31,2.91-15.05,4.6-24.74s3.36-18.37,4.78-24.64c.72-3.11,1.32-5.65,1.75-7.4.28-.89.46-1.81.56-2.74-.43.83-.76,1.71-.99,2.62-.58,1.71-1.3,4.12-2.06,7.34-1.65,6.18-3.46,14.95-5.13,24.62-1.67,9.67-3.11,18.16-4.25,24.74-.54,2.97-.99,5.48-1.34,7.48-.25.92-.39,1.87-.43,2.82Z"/>
    <path class="cls-2" d="M430.4,795.33c1.06.31,2.15.52,3.26.62,2.06.33,5.11.8,8.84,1.51,7.46,1.32,17.71,3.53,28.86,6.45,11.15,2.93,21.21,6.04,28.39,8.49,3.61,1.2,6.49,2.25,8.49,2.95,1.01.44,2.06.78,3.13,1.01-.94-.57-1.94-1.06-2.97-1.44-1.96-.85-4.8-2.06-8.39-3.32-7.13-2.66-17.13-5.9-28.37-8.84-9.57-2.55-19.27-4.61-29.05-6.18-3.77-.58-6.82-.93-8.95-1.11-1.08-.14-2.17-.19-3.26-.12Z"/>
    <path class="cls-2" d="M540.86,909.95c.26-.29.47-.62.64-.97l1.61-2.87c1.38-2.49,3.3-6.18,5.61-10.74,4.6-9.13,10.58-21.94,16.99-36.16,6.41-14.23,12.25-27.09,16.66-36.31l5.26-10.89,1.42-2.97c.19-.34.33-.71.41-1.09-.23.31-.44.63-.62.97l-1.61,2.87c-1.4,2.52-3.3,6.18-5.61,10.74-4.62,9.13-10.6,21.96-16.99,36.18-6.39,14.23-12.25,27.07-16.66,36.28l-5.28,10.91-1.4,2.97c-.19.34-.34.7-.43,1.07Z"/>
    <path class="cls-2" d="M434.21,867.24c.32.22.68.39,1.05.52l3.09,1.3,11.34,4.62c9.65,3.9,22.9,9.4,37.54,15.52,14.64,6.12,27.96,11.5,37.69,15.19,4.87,1.83,8.8,3.3,11.55,4.25l3.17,1.07c.36.15.74.24,1.13.29-.33-.22-.68-.39-1.05-.52l-3.09-1.28-11.42-4.6c-9.63-3.9-22.88-9.4-37.54-15.52-14.66-6.12-27.93-11.5-37.67-15.19-4.87-1.83-8.8-3.3-11.57-4.23l-3.17-1.18c-.34-.13-.69-.21-1.05-.25Z"/>
    <rect class="cls-6" x="310.35" y="138.08" width="77.95" height="25.09"/>
    <rect class="cls-11" x="383.46" y="188.26" width="77.95" height="25.09"/>
    <path class="cls-2" d="M417.89,188.26c-.02-.16-.02-.32,0-.47v-6.27c0-4.37-.1-10.6-.19-18.35l.35.35-76.28.19c.23-.25-.56.54.52-.54h0v25.09l-.54-.52,54.34.23,16.02.14h5.85c-.47.03-.94.03-1.4,0h-4.12l-15.87.14-54.86.25h-.52v-25.3h0c1.07-1.07.31-.31.56-.54l76.28.19h.35v.35c0,7.85-.14,14.14-.19,18.55v4.89c0,1.2-.29,1.63-.31,1.61Z"/>
    <rect class="cls-11" x="871.23" y="352.26" width="77.95" height="25.09"/>
    <path class="cls-2" d="M975.41,351.63c-.02-.16-.02-.32,0-.47v-6.27c0-4.37-.1-10.58-.19-18.35l.35.35-76.28.19c.23-.25-.56.54.52-.54h0v25.05l-.54-.52,54.49.23,16,.16h5.88c-.47.03-.95.03-1.42,0h-4.12l-15.87.14-55.09.47h-.52v-25.56h0c1.07-1.07.31-.31.56-.54l76.28.19h.35v.35c0,7.85-.14,14.14-.19,18.55v4.89c0,1.2-.21,1.69-.21,1.67Z"/>
    <rect class="cls-6" x="838.43" y="634.81" width="77.95" height="25.09"/>
    <rect class="cls-11" x="865.57" y="659.03" width="77.95" height="25.09"/>
    <path class="cls-2" d="M894.02,708.74c-.02-.15-.02-.3,0-.45v-6.29c0-4.37-.1-10.58-.19-18.35l.35.35-76.28.19c.23-.23-.56.54.52-.54h0v25.09l-.54-.52,54.49.25,16,.14h5.88c-.47.03-.95.03-1.42,0h-4.12l-15.87.14-54.86.25h-.52v-25.58h0c1.07-1.07.31-.29.56-.54l76.28.19h.35v.35c0,7.85-.14,14.14-.19,18.55v4.91c0,1.2-.41,1.96-.43,1.86Z"/>
    <rect class="cls-11" x="52.42" y="294.87" width="77.95" height="25.09"/>
    <path class="cls-2" d="M164.82,294.87v-6.76c0-4.35-.12-10.58-.21-18.35l.35.35-76.28.19.54-.52h0v25.09l-.52-.54,54.49.25,16,.14h4.33c.51-.05,1.02-.05,1.53,0-.47.03-.94.03-1.4,0h-4.12l-15.87.14-54.84.25h-.52v-25.61h0c1.07-1.09.29-.31.54-.56l76.28.19h.08v.35c0,7.85-.16,14.14-.21,18.55v4.89c.02.65-.04,1.3-.16,1.94Z"/>
  </g>
  <g id="freepik--Floor--inject-13">
    <path class="cls-10" d="M965.9,940.26c0,.29-210.82.54-470.83.54s-470.87-.25-470.87-.54,210.78-.62,470.85-.62,470.85.33,470.85.62Z"/>
  </g>
  <g id="freepik--Box--inject-13">
    <path class="cls-7" d="M889.89,836.13l-2.76,51.05c-.11,1.82-1.6,3.24-3.42,3.26l-91.84.68c-1.9,0-3.45-1.52-3.48-3.42l-.29-39.75c0-1.9,1.54-3.45,3.44-3.46h56.49c.91,0,1.78-.37,2.43-1.01l9.75-9.75c.64-.64,1.51-1.01,2.41-1.01l23.81-.16c1.89-.02,3.44,1.49,3.47,3.38,0,.07,0,.14,0,.21Z"/>
    <path class="cls-12" d="M889.89,836.13l-2.76,51.05c-.11,1.82-1.6,3.24-3.42,3.26l-91.84.68c-1.9,0-3.45-1.52-3.48-3.42l-.29-39.75c0-1.9,1.54-3.45,3.44-3.46h56.49c.91,0,1.78-.37,2.43-1.01l9.75-9.75c.64-.64,1.51-1.01,2.41-1.01l23.81-.16c1.89-.02,3.44,1.49,3.47,3.38,0,.07,0,.14,0,.21Z"/>
    <rect class="cls-6" x="788.24" y="838.1" width="100.36" height="59.97" transform="translate(-6.34 6.17) rotate(-.42)"/>
    <path class="cls-7" d="M896.41,843.05l-7.2,62.59c-.1,1.14-1.04,2.02-2.19,2.06l-97.8.7c-1.18.02-2.16-.89-2.23-2.06l-5.38-62.55c-.11-1.2.77-2.27,1.97-2.38.07,0,.14-.01.22,0l110.4-.82c1.23,0,2.22,1,2.22,2.23,0,.08,0,.16-.01.24Z"/>
    <path class="cls-7" d="M916.92,826.5l-2.76,51.05c-.11,1.82-1.6,3.24-3.42,3.26l-91.84.66c-1.9.02-3.46-1.5-3.48-3.4h0s-.29-39.75-.29-39.75c-.01-1.9,1.52-3.45,3.42-3.46,0,0,.01,0,.02,0h56.49c.91,0,1.78-.35,2.43-.99l9.75-9.75c.64-.64,1.51-1.01,2.41-1.01l23.81-.16c1.9-.01,3.45,1.52,3.47,3.42,0,.05,0,.1,0,.15Z"/>
    <path class="cls-12" d="M916.92,826.5l-2.76,51.05c-.11,1.82-1.6,3.24-3.42,3.26l-91.84.66c-1.9.02-3.46-1.5-3.48-3.4h0s-.29-39.75-.29-39.75c-.01-1.9,1.52-3.45,3.42-3.46,0,0,.01,0,.02,0h56.49c.91,0,1.78-.35,2.43-.99l9.75-9.75c.64-.64,1.51-1.01,2.41-1.01l23.81-.16c1.9-.01,3.45,1.52,3.47,3.42,0,.05,0,.1,0,.15Z"/>
    <rect class="cls-6" x="815.28" y="828.46" width="100.36" height="59.97" transform="translate(-6.27 6.37) rotate(-.42)"/>
    <path class="cls-7" d="M923.44,833.42l-7.22,62.59c-.07,1.16-1.03,2.06-2.19,2.06l-97.8.72c-1.17.01-2.15-.89-2.23-2.06l-5.38-62.51c-.1-1.21.8-2.28,2.01-2.38.06,0,.13,0,.19,0l110.38-.82c1.23,0,2.23.99,2.23,2.22,0,.06,0,.13,0,.19Z"/>
    <path class="cls-12" d="M923.44,833.42l-7.22,62.59c-.07,1.16-1.03,2.06-2.19,2.06l-97.8.72c-1.17.01-2.15-.89-2.23-2.06l-5.38-62.51c-.1-1.21.8-2.28,2.01-2.38.06,0,.13,0,.19,0l110.38-.82c1.23,0,2.23.99,2.23,2.22,0,.06,0,.13,0,.19Z"/>
    <path class="cls-7" d="M947.37,838.46l-2.76,51.02c-.1,1.82-1.6,3.26-3.42,3.28l-91.84.66c-1.9.01-3.46-1.52-3.48-3.42l-.33-39.73c0-1.9,1.54-3.45,3.44-3.46h56.49c.92.01,1.79-.35,2.43-1.01l9.75-9.73c.64-.64,1.51-1.01,2.41-1.01l23.81-.19c1.9-.04,3.47,1.48,3.51,3.38,0,.07,0,.14,0,.21Z"/>
    <rect class="cls-6" x="845.7" y="840.42" width="100.36" height="59.97" transform="translate(-6.36 6.59) rotate(-.42)"/>
    <path class="cls-7" d="M953.89,845.38l-7.2,62.59c-.13,1.11-1.07,1.95-2.19,1.96l-97.82.72c-1.17.01-2.14-.9-2.21-2.06l-5.38-62.51c-.11-1.21.78-2.29,1.99-2.4.06,0,.13,0,.2,0l110.38-.8c1.23-.01,2.23.98,2.25,2.21,0,.1,0,.21-.02.31Z"/>
    <path class="cls-5" d="M839.07,853.9v86.81h125.26v-86.81h-125.26ZM879.96,869.54c0-3.54,2.87-6.41,6.41-6.41h30.68c3.54-.2,6.56,2.5,6.76,6.04.2,3.54-2.5,6.56-6.04,6.76-.24.01-.49.01-.73,0h-30.68c-3.53,0-6.4-2.86-6.41-6.39Z"/>
    <path class="cls-10" d="M771.56,853.9v86.81h67.52v-86.81h-67.52Z"/>
  </g>
  <g id="freepik--Character--inject-13">
    <path class="cls-16" d="M669.9,204.81c-13.27-9.56-28.59-13.02-44.46-9.06-8.95,2.23-20.66,7.1-21.48,14.53,0,0-3.59,2.62-7.61,9.7-4.03,7.11-6.16,16.51-4.93,24.59,1.27,8.3,4.03,19.75,10.14,27.1,5.37,6.45,7.62,12.44,14.14,17.74l15.45-2.8c11.47-2.65,21.05,1.51,31.43-4.04,10.38-5.55,19.23-14.2,22.86-24.88,5.27-15.49-2.27-43.31-15.54-52.87Z"/>
    <path class="cls-7" d="M535.44,875.13l-6.54,37.71s-40.51,6.02-42.39,12.86l72.61,15.3,12.6-58.3-36.28-7.57Z"/>
    <g class="cls-19">
      <path class="cls-15" d="M552.01,914.41c1.35.75,1.92,2.39,1.34,3.81-.69,1.39-2.35,1.99-3.77,1.36-1.48-.79-2.09-2.59-1.4-4.12.88-1.4,2.72-1.83,4.12-.97"/>
    </g>
    <path class="cls-17" d="M559.13,940.98l1.03-5.92-70.09-12.37s-3.53.72-3.63,3.07l72.69,15.21Z"/>
    <path class="cls-10" d="M527.79,912.22c0,.35,1.69.89,3.2,2.39,1.5,1.51,2.06,3.2,2.47,3.11s.25-2.23-1.61-4.02c-1.86-1.79-4.06-1.83-4.06-1.48Z"/>
    <path class="cls-10" d="M519.52,913.77c-.16.31,1.26,1.24,2.06,2.99s.89,3.42,1.26,3.48.99-1.9-.14-4.12c-1.13-2.23-3.09-2.7-3.17-2.35Z"/>
    <path class="cls-10" d="M513.28,921.95c.31.14,1.18-1.51.66-3.65-.52-2.14-2.06-3.26-2.21-2.99s.6,1.53.99,3.28c.39,1.75.21,3.26.56,3.36Z"/>
    <path class="cls-10" d="M530.24,903.79c0,.35,1.81.21,3.77.76s3.42,1.53,3.67,1.26-.99-1.86-3.34-2.47c-2.35-.62-4.25.14-4.1.45Z"/>
    <polygon class="cls-12" points="534.14 882.62 532.97 889.32 568.73 896.51 570.05 890.51 534.14 882.62"/>
    <path class="cls-10" d="M531.71,896.2c1.12.58,2.37.84,3.63.76,1.38.04,2.77-.08,4.12-.37.78-.18,1.56-.4,2.31-.68.46-.13.89-.34,1.28-.62.59-.41.83-1.18.58-1.86-.27-.57-.79-.99-1.4-1.13-.46-.09-.93-.13-1.4-.1-.81.03-1.62.13-2.41.31-1.34.28-2.63.78-3.81,1.48-2.06,1.22-2.89,2.41-2.76,2.52s1.18-.78,3.17-1.71c1.15-.55,2.37-.94,3.63-1.15.74-.12,1.48-.19,2.23-.21.8,0,1.46.1,1.59.47s0,.21-.16.39c-.29.2-.61.35-.95.45-.67.27-1.36.51-2.06.7-1.25.32-2.53.52-3.81.6-1.25-.04-2.51,0-3.75.14Z"/>
    <path class="cls-10" d="M532.16,896.82c.89-.91,1.48-2.07,1.69-3.32.35-1.34.47-2.74.35-4.12-.08-.82-.24-1.62-.47-2.41-.18-1.06-.91-1.94-1.92-2.31-.66-.13-1.34.13-1.73.68-.28.39-.5.81-.66,1.26-.3.79-.47,1.61-.52,2.45-.09,1.42.17,2.83.76,4.12,1.01,2.19,2.41,2.91,2.45,2.8s-.93-1.09-1.63-3.13c-.41-1.18-.56-2.43-.43-3.67.07-.71.24-1.4.52-2.06.27-.74.7-1.3.97-1.18s.85.78,1.01,1.46c.23.71.39,1.43.49,2.16.17,1.25.17,2.52,0,3.77-.52,2.14-1.18,3.38-.89,3.48Z"/>
    <path class="cls-7" d="M782.15,875.98l-15.71-20.51-.8-1.05-26.8,19.89,24.74,27.21-.91,27.54c-13.79,3.57-15.87,10.45-15.87,10.45h28.68l26.06-50.18-19.38-13.36Z"/>
    <polygon class="cls-17" points="801.61 889.32 775.56 939.49 746.88 939.52 750.12 935.21 773.43 933.91 797.47 886.47 801.61 889.32"/>
    <path class="cls-10" d="M762.92,916.45c.23.29,1.88-.66,4.12-.6,2.25.06,3.86.99,4.12.7s-1.36-1.94-4.12-1.96-4.37,1.63-4.12,1.86Z"/>
    <path class="cls-10" d="M763.39,909.6c.29.21,1.55-1.48,3.83-1.94s4.12.6,4.31.31-.23-.62-1.03-1.05c-2.23-1.16-4.96-.61-6.58,1.32-.56.72-.68,1.28-.54,1.36Z"/>
    <path class="cls-10" d="M763.19,900.84c.31.14,1.3-1.51,3.3-2.21,2-.7,3.79,0,3.94-.35s-.29-.56-1.09-.85c-2.19-.75-4.6.11-5.83,2.06-.43.74-.43,1.28-.31,1.34Z"/>
    <path class="cls-10" d="M755.52,894.04c.33.12,1.13-1.51,2.93-2.66,1.79-1.15,3.55-1.34,3.57-1.69s-2.06-.82-4.27.64c-2.21,1.46-2.58,3.67-2.23,3.71Z"/>
    <path class="cls-10" d="M751.76,888.1c.98-.87,1.82-1.88,2.49-3.01l2.43-3.44c.55-.71.99-1.49,1.32-2.33.18-.58.12-1.2-.16-1.73-.34-.63-1.02-.98-1.73-.91-1.01.19-1.94.67-2.68,1.38-.67.61-1.26,1.3-1.75,2.06-.8,1.24-1.31,2.65-1.48,4.12-.3,1.34-.07,2.74.64,3.92,0-1.26.08-2.52.23-3.77.42-2.09,1.53-3.97,3.15-5.34.58-.53,1.29-.9,2.06-1.07.22-.04.44.06.56.25.11.26.11.56,0,.82-.28.73-.65,1.42-1.09,2.06l-2.21,3.59c-.76,1.03-1.36,2.18-1.77,3.4Z"/>
    <path class="cls-10" d="M750.69,889.01c.14,0,0-1.53-1.53-3.24-2.17-2.36-5.64-2.98-8.49-1.53-.3.25-.47.62-.45,1.01.01.33.14.65.35.91.29.36.64.67,1.03.91.65.45,1.34.84,2.06,1.15,1.19.55,2.47.9,3.77,1.05,1.19.27,2.43.16,3.55-.33,0-.21-1.36-.1-3.4-.54-1.18-.26-2.33-.67-3.4-1.24-.61-.32-1.19-.7-1.73-1.13-.28-.17-.53-.39-.74-.64-.14-.25-.1-.19,0-.25.25-.16.53-.26.82-.31.35-.09.71-.14,1.07-.16.69-.06,1.39-.01,2.06.14,1.15.25,2.21.79,3.09,1.57,1.36,1.38,1.79,2.7,1.94,2.62Z"/>
    <circle class="cls-17" cx="782.13" cy="888.45" r="3.4"/>
    <polygon class="cls-12" points="741.37 877.05 746.88 883.09 770.03 860.14 766.81 855.96 741.37 877.05"/>
    <path class="cls-10" d="M601.31,507.79s-26.8,90.96-50.76,193.79c-14.43,62.34-28.14,178.35-28.14,178.35l63.62,14.02,27.28-149.14,29.11-88.28c10-27.87,24.37-48.24,41.81-63.33,18.97-26.8,28.86-57.46,25.05-90.09h0l-107.97,4.68Z"/>
    <path class="cls-10" d="M596.07,522.29l23.77,195.85c2.31,18.91,5.5,37.11,18.35,51.19l96.26,114.15,47.69-42.8-102.03-139.49,17.73-196.64-99.82,17.03"/>
    <path class="cls-5" d="M681.07,699.73c.19.35-4.12,2.49-8.25,6.76-4.12,4.27-5.96,8.68-6.31,8.51s1.11-4.97,5.36-9.4,9.11-6.21,9.19-5.88Z"/>
    <path class="cls-5" d="M679.63,701.19c0,.37-3.81.25-8.39.7-4.58.45-8.25,1.28-8.39.91,2.53-1.38,5.36-2.14,8.25-2.21,4.74-.47,8.58.25,8.54.6Z"/>
    <path class="cls-5" d="M706.41,547.6c-.06.75-.18,1.49-.35,2.23-.16.78-.33,1.67-.54,2.7s-.64,2.27-1.03,3.61c-2.5,7.59-6.05,14.8-10.56,21.4-5.57,8.47-13.3,17.69-21.52,28.12-4.32,5.42-8.32,11.1-11.96,17.01-3.82,6.39-7.3,12.98-10.41,19.75-6.41,13.94-11.59,27.63-15.98,40.18-4.39,12.56-8.04,23.96-11.13,33.54-3.09,9.59-5.53,17.21-7.3,22.68-.87,2.58-1.57,4.64-2.06,6.18-.22.71-.5,1.4-.82,2.06.13-.75.31-1.49.56-2.21l1.83-6.18,6.89-22.84c2.97-9.61,6.54-21.07,10.86-33.67,4.33-12.6,9.48-26.35,15.92-40.35,3.14-6.81,6.66-13.44,10.53-19.85,3.67-5.95,7.71-11.66,12.1-17.09,8.25-10.43,16.08-19.54,21.69-27.87,4.54-6.5,8.19-13.57,10.86-21.03.41-1.34.85-2.52,1.13-3.57s.47-1.9.66-2.64c.15-.74.35-1.46.62-2.16Z"/>
    <path class="cls-8" d="M476.5,451.24l-16.72,8.7-29.01,14.25c-1.96.68-3.6,2.04-4.64,3.83l-10.64,18.72h20.35l5.42-9.13c6.99,2.5,14.8.32,19.48-5.44l29.54-10.31-13.79-20.62Z"/>
    <path class="cls-8" d="M662.74,239.7c-.35-17.68-14.97-31.73-32.65-31.37-.35,0-.69.02-1.04.04-17.13.87-30.31,15.63-30.41,32.78,0,15.03.19,30.16,1.05,35.54,2.58,16.22,13.01,21.17,17.13,22.51,1.47.3,2.96.45,4.45.43h0c.06.01.1.06.1.12l-.89,19.19c.14,12.37,8.56,22.37,21.03,22.37s20.72-10.78,20.8-23.3l.41-78.32Z"/>
    <path class="cls-10" d="M604.77,249.56c0,1.41,1.12,2.57,2.54,2.62,1.36.12,2.56-.89,2.67-2.26,0-.03,0-.06,0-.09.02-1.42-1.1-2.59-2.52-2.64-1.39-.1-2.59.93-2.7,2.32,0,.02,0,.03,0,.05Z"/>
    <path class="cls-10" d="M603.1,245c.31.35,2.29-1.11,5.11-1.11s4.87,1.4,5.17,1.07-.19-.76-1.09-1.42c-1.21-.84-2.65-1.29-4.12-1.28-1.48-.02-2.93.44-4.12,1.32-.82.66-1.11,1.3-.95,1.42Z"/>
    <path class="cls-10" d="M632.27,249.56c-.02,1.42,1.1,2.58,2.52,2.62,1.36.12,2.56-.89,2.67-2.26,0-.03,0-.06,0-.09.02-1.42-1.1-2.59-2.52-2.64-1.37-.1-2.57.93-2.68,2.3,0,.02,0,.05,0,.07Z"/>
    <path class="cls-10" d="M630.73,245.53c.33.33,2.31-1.13,5.11-1.13s4.87,1.42,5.17,1.07-.16-.76-1.07-1.42c-1.21-.83-2.65-1.28-4.12-1.28-1.48,0-2.92.45-4.12,1.32-.82.66-1.13,1.28-.97,1.44Z"/>
    <path class="cls-10" d="M620.52,266.38c-1.48-.48-3.01-.75-4.56-.82-.72,0-1.4-.23-1.53-.7-.05-.72.12-1.44.47-2.06l2.06-5.46c2.95-7.77,5.09-14.18,4.76-14.29-2.33,4.46-4.3,9.1-5.9,13.87-.72,1.92-1.38,3.75-2.06,5.5-.45.86-.58,1.85-.37,2.8.21.51.65.9,1.18,1.05.4.1.82.17,1.24.19,1.56.18,3.14.15,4.7-.08Z"/>
    <path class="cls-4" d="M621.43,299.63s10.86.89,24.43-7.28c0,0-4.29,14.43-24.74,12.37l.31-5.09Z"/>
    <path class="cls-4" d="M621.72,273.14c1.09-1.36,2.8-2.06,4.54-1.88,1.25.12,2.4.74,3.2,1.71.77.96.86,2.3.23,3.36-.92,1.04-2.39,1.41-3.69.93-1.32-.44-2.54-1.14-3.59-2.06-.32-.22-.59-.5-.8-.82-.21-.32-.21-.73,0-1.05"/>
    <path class="cls-10" d="M628.79,268.32c-.45,0-.45,3.03-3.07,5.2-2.62,2.16-5.85,1.83-5.88,2.25s.72.6,2.06.64c1.78.02,3.52-.59,4.91-1.71,1.33-1.09,2.18-2.65,2.37-4.35.16-1.28-.12-2.04-.39-2.02Z"/>
    <path class="cls-10" d="M629.47,240.61c.27.76,3.07.39,6.37.8,3.3.41,5.98,1.28,6.41.6.19-.33-.27-1.05-1.34-1.77-2.91-1.84-6.51-2.25-9.75-1.09-1.22.49-1.81,1.09-1.69,1.46Z"/>
    <path class="cls-10" d="M604.13,239.25c.49.64,2.43,0,4.76,0s4.29.43,4.74-.25c.21-.33,0-.97-.97-1.57-2.37-1.49-5.4-1.39-7.67.25-.82.6-1.09,1.26-.87,1.57Z"/>
    <path class="cls-7" d="M705.87,520.49l-22.29-86.15,7.71-33.71,11.11-63.27s-10.21-13.96-36.63-15.3l-1.77-12.8-45.25,1.59-.85,12.1c-13.59,3.37-25.1,12.37-31.67,24.74h0l-32.14,60.45-87.91,43.99,11.61,27.23s88.24-33.44,95.7-36.72c4.97-2.16,10.31-11.32,15.03-21.13,3.53,16.86,7.17,30.22,7.17,30.22l-.76,66.1,110.94,2.66Z"/>
    <path class="cls-11" d="M666.45,345.61s-1.15.33-3.2.95c-2.04.62-4.99,1.55-8.62,2.78-3.63,1.24-7.92,2.74-12.89,3.92-2.62.67-5.32.97-8.02.89-2.91-.35-5.72-1.3-8.25-2.8-2.6-1.38-4.99-2.93-7.42-4.12-2.32-1.19-4.77-2.11-7.3-2.74-4.3-1.07-8.77-1.35-13.17-.82-4.06.6-8.02,1.73-11.79,3.36.22-.19.46-.35.72-.47.71-.42,1.45-.79,2.21-1.11,2.79-1.23,5.74-2.09,8.76-2.54,7.2-1.06,14.55.12,21.05,3.38,2.49,1.26,4.91,2.8,7.46,4.12,2.38,1.42,5.02,2.34,7.77,2.7,2.59.08,5.19-.19,7.71-.8,4.91-1.09,9.24-2.56,12.89-3.67,3.65-1.11,6.64-2.06,8.74-2.47,1.05-.25,1.88-.39,2.43-.47.3-.08.6-.1.91-.06Z"/>
    <path class="cls-11" d="M680.08,389.33c0,.12-1.73-.31-4.91-.47-4.47-.12-8.92.49-13.19,1.79-6.33,2.01-12.48,4.53-18.39,7.55-7.28,3.82-15.09,6.54-23.17,8.06-2.15.3-4.32.42-6.49.35-2.12-.09-4.23-.4-6.29-.93-3.84-1.1-7.49-2.77-10.82-4.97-6.37-4.12-11.75-8.25-17.15-9.96-4.15-1.65-8.73-1.86-13.01-.6-1.53.58-2.99,1.33-4.35,2.25.29-.32.62-.61.97-.87.99-.74,2.08-1.34,3.24-1.77,4.36-1.45,9.1-1.36,13.4.27,5.57,1.71,11.11,5.9,17.44,9.83,3.25,2.12,6.81,3.74,10.56,4.78,1.98.51,4.02.8,6.06.89,2.11.07,4.22-.05,6.31-.35,7.97-1.51,15.69-4.16,22.9-7.88,5.96-2.99,12.17-5.47,18.55-7.4,4.36-1.26,8.91-1.75,13.44-1.46,1.22.09,2.43.28,3.63.56.43.07.86.18,1.28.33Z"/>
    <path class="cls-10" d="M597.58,359.19s0,.31-.21.89-.41,1.4-.78,2.47c-.72,2.06-1.88,5.2-3.36,8.93s-3.3,8.25-4.93,13.19c-.86,2.63-1.55,5.3-2.06,8.02-.61,2.88-.85,5.82-.7,8.76.41,5.73,1.25,11.42,2.52,17.03,1.07,5.2,2.21,9.83,3.15,13.75s1.71,7.07,2.19,9.28c.25,1.09.41,2.06.52,2.54.09.29.12.6.1.91-.43-1.09-.77-2.2-1.03-3.34l-2.54-9.13c-1.03-3.9-2.25-8.54-3.38-13.73-1.34-5.64-2.21-11.39-2.62-17.17-.15-3.03.1-6.07.74-9.03.51-2.75,1.2-5.46,2.06-8.12,1.69-5.07,3.61-9.48,5.17-13.17s2.82-6.7,3.67-8.78c.41-1.13.91-2.22,1.48-3.28Z"/>
    <path class="cls-11" d="M547.23,452.93c-.54.08-1.08.01-1.59-.19-1.39-.43-2.67-1.13-3.79-2.06-1.67-1.36-3.13-2.98-4.31-4.78-1.34-2.28-2.27-4.78-2.76-7.38-.5-2.5-1.19-4.95-2.06-7.34-.78-1.9-1.95-3.62-3.44-5.03-1.41-1.26-3.15-2.12-5.01-2.47,0,0,.56-.16,1.59,0,1.45.29,2.8.95,3.92,1.92,1.67,1.41,2.98,3.19,3.86,5.2.98,2.42,1.74,4.92,2.27,7.48.47,2.49,1.34,4.88,2.58,7.09,1.08,1.76,2.41,3.35,3.96,4.72,1.02.95,2.18,1.73,3.44,2.31.82.35,1.38.43,1.36.54Z"/>
    <path class="cls-11" d="M496.87,472.15c-.19,0,0-1.81-.45-4.7-.52-3.75-1.52-7.42-2.99-10.91-1.43-3.5-3.31-6.79-5.61-9.79-1.77-2.31-3.13-3.5-3.01-3.65,1.4.81,2.62,1.88,3.61,3.15,2.52,2.95,4.54,6.28,6,9.88,1.52,3.57,2.45,7.37,2.74,11.24.2,1.6.11,3.22-.29,4.78Z"/>
    <path class="cls-11" d="M683.88,433.55s-1.3,0-3.63.29c-3.3.32-6.56.93-9.75,1.83-4.12,1.09-8.74,2.8-13.98,4.7-5.67,2.2-11.54,3.84-17.52,4.89-10.94,1.67-22.12.71-32.61-2.8-3.16-1.08-6.23-2.39-9.19-3.94-1.05-.56-1.83-1.03-2.37-1.34s-.8-.58-.8-.58c1.13.45,2.24.96,3.32,1.53,3.01,1.39,6.1,2.58,9.26,3.59,10.44,3.27,21.49,4.12,32.31,2.47,5.92-1.05,11.73-2.64,17.36-4.76,5.24-1.83,10-3.5,14.12-4.51,3.24-.85,6.55-1.35,9.9-1.5.91-.06,1.82-.06,2.72,0,.3,0,.6.06.89.14Z"/>
    <g class="cls-18">
      <path class="cls-1" d="M621.1,322.99c12.11,6.78,26.85,6.85,39.03.19-13.08.65-26.18.69-39.29.14"/>
    </g>
    <path class="cls-10" d="M665.47,321.79c-.57.29-1.17.5-1.79.62-1.65.48-3.34.84-5.05,1.07-5.63.73-11.32.92-16.99.58-6.64-.29-12.6-.68-16.93-.7-4.33-.02-7.01.12-7.01,0,.6-.2,1.22-.31,1.86-.33,1.22-.16,2.97-.29,5.15-.37,4.35-.16,10.31.1,16.97.39,5.62.34,11.26.25,16.86-.27,4.29-.52,6.89-1.18,6.93-.99Z"/>
    <path class="cls-10" d="M637.72,416.81c1.22,2.41,72.53,59.29,92.98,75.56,2.98,2.38,3.47,6.72,1.09,9.71l-.02.02-47.58,59.07c-2.37,2.96-6.68,3.44-9.65,1.09l-91.14-72.16c-2.98-2.36-3.49-6.69-1.13-9.67.07-.09.14-.18.22-.26l55.23-63.35Z"/>
    <path class="cls-7" d="M636.62,406.73c1.26,2.49,77.62,63.35,94.94,77.13,1.89,1.52,2.19,4.29.68,6.18l-50.7,62.96c-1.52,1.89-4.29,2.19-6.18.68l-95.12-75.41c-1.91-1.51-2.24-4.29-.72-6.2.04-.05.08-.1.13-.15l56.98-65.19Z"/>
    <path class="cls-13" d="M636.62,406.73c1.26,2.52,79.08,64.51,95.41,77.52,1.63,1.3,1.9,3.67.61,5.3-.01.01-.02.03-.03.04l-51.54,63.91c-1.31,1.63-3.7,1.9-5.34.6l-96.07-76.28c-1.65-1.29-1.94-3.68-.65-5.33.04-.05.09-.11.13-.16l57.48-65.6Z"/>
    <path class="cls-5" d="M644.5,407.85c24.18,20.14,89.56,72.16,89.56,72.16l-50.67,62.94c-3.05,3.76-8.55,4.38-12.37,1.4l-87.95-69.72c-3.85-3.06-4.49-8.66-1.43-12.51.08-.11.17-.21.26-.31l45.91-52.55c4.27-4.9,11.67-5.52,16.7-1.4Z"/>
    <polygon class="cls-11" points="705.05 456.81 706.33 465.72 729.5 485.61 734.06 479.94 705.05 456.81"/>
    <path class="cls-8" d="M637.3,544.72h0l21.85-18.22-10.62-25.28-14.72,13.36c-3.45.92-6.98,1.53-10.53,1.83-1.83.18-3.68.04-5.46-.41-2.23-.47-4.39-1.24-6.41-2.29-1.75-1.18-4,.41-3.34,2.19s5.4,5.11,12.08,6.18c6,.93-.78,5.36-4.64,7.71-.7.43-.97,1.32-.62,2.06,2,4.54,9.88,19.4,22.41,12.86Z"/>
    <path class="cls-7" d="M671.98,365.77c-1.63-22.68,19.42-45.69,31.71-26.62,13.48,20.9,43.03,70.09,50.3,103.49,3.4,15.57-89.91,89.78-95.66,94.36-.16.14-1.67-1.92-1.79-2.06l-23.07-23.91c-.1-.14,5.42-5.79,5.57-5.94l65.7-64.36c.09-.13.09-.3,0-.43-2.21-4.02-31.21-56.94-32.76-73.99v-.54Z"/>
    <path class="cls-10" d="M723.89,440.3c-.14.41-4.49-.97-10.04-1.09s-9.96.93-10.08.49,4.31-2.19,10.14-2.06c5.83.12,9.98,2.31,9.98,2.66Z"/>
    <path class="cls-10" d="M719.77,447.55c-.35.29-3.01-2.66-7.28-4.82s-8.25-2.7-8.14-3.15,4.27-.56,8.82,1.83c4.56,2.39,6.91,5.96,6.6,6.14Z"/>
    <path class="cls-10" d="M704.74,440.73c-.29-.38-.53-.78-.72-1.22l-1.88-3.55-6.68-13.13c-5.61-11.24-13.26-26.57-21.69-43.52-4.42-7.88-7.06-16.64-7.75-25.65-.58-8.25,1.81-16.06,6.18-20.62,1.96-2.1,4.41-3.67,7.13-4.58,2.04-.69,4.2-.95,6.35-.76,1.35.12,2.67.45,3.92.99.43.19.72.39.93.49s.31.19.29.21c-1.63-.71-3.38-1.14-5.15-1.28-2.1-.13-4.21.19-6.18.93-2.6.92-4.93,2.47-6.78,4.51-4.12,4.51-6.43,12.04-5.81,20.14.79,8.85,3.46,17.43,7.83,25.17,8.35,16.99,15.9,32.39,21.42,43.66,2.66,5.53,4.82,10.02,6.37,13.28l1.69,3.65c.21.41.39.83.54,1.26Z"/>
    <g class="cls-18">
      <path class="cls-1" d="M667.16,353.03c-2.39,20.1-4.12,40.43-2.27,60.57.99,10.62,12.23,23.91,21.07,29.87l-2.37-9.13c1.3-5.92,5.63-24.62,5.63-24.62,0,0-8.06-15.96-11.28-21.79-6.18-10.67-9.87-22.6-10.78-34.9"/>
    </g>
    <path class="cls-11" d="M747.41,422.65s-.45.52-1.42,1.32c-.47.39-1.09.85-1.83,1.34s-1.57,1.07-2.54,1.63c-2.26,1.33-4.61,2.48-7.05,3.44-2.99,1.17-6.06,2.1-9.19,2.78-3.14.66-6.32,1.06-9.52,1.2-2.62.1-5.25-.02-7.85-.37-1-.12-1.99-.3-2.97-.54-.74-.13-1.47-.32-2.19-.56-.64-.13-1.25-.37-1.81-.7,0-.19,2.68.62,7.07,1.03,2.56.24,5.14.29,7.71.16,3.14-.22,6.26-.65,9.34-1.28,3.08-.68,6.11-1.57,9.07-2.66,2.41-.91,4.76-1.97,7.03-3.17,3.88-2.04,6.04-3.77,6.16-3.63Z"/>
    <path class="cls-11" d="M709.11,491.73c-.84-1.88-1.53-3.82-2.06-5.81-1.45-4.71-3.26-9.3-5.42-13.73-1.21-2.41-2.64-4.71-4.27-6.87-1.33-1.74-2.87-3.31-4.6-4.66-2.97-2.29-5.2-3.17-5.09-3.36.56.08,1.09.25,1.59.52,1.39.61,2.72,1.35,3.96,2.23,1.85,1.32,3.5,2.89,4.93,4.66,1.71,2.17,3.2,4.51,4.43,6.99,2.21,4.48,3.95,9.18,5.2,14.02.65,1.96,1.1,3.97,1.34,6.02Z"/>
    <path class="cls-11" d="M684.72,514.51c-1.89-.43-3.71-1.13-5.4-2.06-4.19-2.01-8.09-4.58-11.59-7.65-3.5-3.07-6.57-6.59-9.13-10.47-1.14-1.55-2.05-3.27-2.68-5.09.14,0,1.24,1.81,3.32,4.66,5.36,7.43,12.35,13.55,20.43,17.87,2.99,1.73,5.05,2.58,5.05,2.74Z"/>
    <path class="cls-11" d="M707.85,345.89c-.49.33-1.03.57-1.61.7-1.51.47-3.07.8-4.64.99-3.98.6-9.55.25-15.52.58-2.81.12-5.59.64-8.25,1.55-2.15.76-4.14,1.9-5.88,3.38-1.55,1.43-2.86,3.11-3.86,4.97.04-.59.22-1.16.52-1.67.69-1.45,1.65-2.76,2.82-3.86,1.74-1.64,3.8-2.92,6.04-3.75,2.73-.98,5.59-1.55,8.49-1.69,6.18-.33,11.61.12,15.52-.27s6.29-1.13,6.35-.93Z"/>
    <path class="cls-11" d="M729.15,384.26c-.15.63-.47,1.2-.91,1.67-1.1,1.34-2.52,2.38-4.12,3.03-2.4.88-4.91,1.39-7.46,1.5-3.04.22-6.07.61-9.07,1.18-5.45,1.07-10.76,2.74-15.83,4.99-3.9,1.73-6.18,3.07-6.18,2.93.44-.45.95-.82,1.51-1.11,1.44-.91,2.92-1.75,4.45-2.49,5.05-2.49,10.41-4.3,15.94-5.36,6.47-1.4,12.58-.76,16.49-2.35,2.08-.8,3.88-2.18,5.2-3.98Z"/>
    <path class="cls-16" d="M666.97,215.34c2.74-4.69,5.86-9.34,10.33-12.44,4.47-3.09,10.57-4.35,15.4-1.86,3.45,1.77,5.8,5.16,7.41,8.68,3.02,6.62,3.88,14.35,1.62,21.26-2.27,6.91-7.85,12.83-14.86,14.77-7.01,1.94-15.23-.53-19.45-6.45l-.44-23.96Z"/>
    <path class="cls-16" d="M668.17,245.76l-.7,1.27c-1.19,2.14-.83,7.76-3.19,7.11-62.84-17.26-60.19-39.07-60.32-43.87,0,0,11.32-6.95,23.93-8.11,12.62-1.16,37.12-1.23,40.56,13.1,3.45,14.33-.28,30.5-.28,30.5Z"/>
    <path class="cls-3" d="M604.62,210.77s.14.22.47.59c.39.42.87.95,1.46,1.6.63.69,1.42,1.53,2.39,2.44.96.92,2.02,2.01,3.3,3.1,1.25,1.12,2.63,2.34,4.18,3.55,1.51,1.27,3.23,2.5,5.01,3.82,3.63,2.56,7.76,5.18,12.28,7.59,4.54,2.38,9.03,4.33,13.19,5.89,2.1.74,4.08,1.46,5.98,2,1.88.6,3.66,1.06,5.29,1.46,1.62.44,3.12.71,4.42.99,1.3.29,2.43.47,3.36.6.86.12,1.57.22,2.14.31.49.06.75.08.75.06,0-.02-.25-.09-.73-.2-.56-.12-1.26-.26-2.11-.44-.92-.17-2.04-.4-3.33-.72-1.29-.31-2.77-.61-4.38-1.09-1.61-.43-3.38-.92-5.24-1.54-1.88-.56-3.85-1.3-5.92-2.05-4.12-1.59-8.57-3.54-13.08-5.91-4.49-2.4-8.61-4.99-12.24-7.5-1.79-1.3-3.5-2.5-5.03-3.75-1.56-1.19-2.95-2.38-4.22-3.47-1.29-1.06-2.37-2.12-3.36-3.01-.99-.89-1.81-1.69-2.47-2.35-.63-.61-1.14-1.1-1.55-1.5-.36-.34-.56-.51-.58-.49Z"/>
    <path class="cls-3" d="M684.49,225.49s.38.05,1.03-.06c.65-.12,1.6-.36,2.68-.85,2.2-.94,4.88-3.04,7.04-5.94,1.09-1.45,2.02-2.88,2.77-4.27.74-1.39,1.2-2.79,1.31-4,.23-2.47-.8-3.8-.83-3.72-.12.03.67,1.38.33,3.66-.28,2.28-2.04,5.06-4.15,7.89-2.12,2.84-4.63,4.9-6.69,5.92-2.06,1.06-3.52,1.25-3.5,1.37Z"/>
    <path class="cls-14" d="M669.04,204.08c-.1.11,1.93,1.78,4.61,5.01,1.37,1.59,2.78,3.66,4.25,6.01,1.41,2.39,2.8,5.11,4.01,8.07,2.39,5.95,3.61,11.66,4.19,15.82.17,1.04.25,1.99.35,2.82.1.83.16,1.55.2,2.14.09,1.17.17,1.82.22,1.82.05,0,.07-.65.06-1.84,0-.59-.01-1.32-.08-2.15-.06-.84-.1-1.8-.24-2.85-.45-4.21-1.6-10-4.02-16.03-1.23-3-2.65-5.74-4.11-8.14-1.52-2.36-3-4.42-4.43-5.99-.67-.82-1.37-1.49-1.96-2.08-.58-.61-1.12-1.09-1.58-1.47-.9-.77-1.42-1.17-1.45-1.13Z"/>
  </g>
  <g id="freepik--Plant--inject-13">
    <path class="cls-7" d="M219.64,179.3c8.52.65,16.41,4.76,21.83,11.36,5.3,6.57,9.04,14.26,10.91,22.49,4.12,15.73,1.34,34.26-3.28,49.85-16.97-6.18-27.3-24.45-31.96-34.02-7.36-15.15-11.48-46.96,2.6-49.68"/>
    <path class="cls-7" d="M273.3,282.25c-5.11-8.11-5.5-18.33-1.03-26.8,4.61-8.32,12.36-14.45,21.52-17.01,4.12-1.24,8.99-1.73,12.58.72,3.26,2.54,4.91,6.65,4.31,10.74-.67,4.02-2.39,7.8-4.99,10.95-8.37,11.13-18.55,20.37-32.39,21.4"/>
    <g class="cls-18">
      <path class="cls-15" d="M273.3,282.25c-5.11-8.11-5.5-18.33-1.03-26.8,4.61-8.32,12.36-14.45,21.52-17.01,4.12-1.24,8.99-1.73,12.58.72,3.26,2.54,4.91,6.65,4.31,10.74-.67,4.02-2.39,7.8-4.99,10.95-8.37,11.13-18.55,20.37-32.39,21.4"/>
    </g>
    <path class="cls-7" d="M255.2,298.93c-10.72-17.06-29-27.9-49.11-29.13-5.05-.25-11.07.72-13.21,5.28s.95,9.85,4.45,13.5c15.23,15.26,38.13,19.87,58.08,11.69"/>
    <g class="cls-18">
      <path class="cls-15" d="M255.2,298.93c-10.72-17.06-29-27.9-49.11-29.13-5.05-.25-11.07.72-13.21,5.28s.95,9.85,4.45,13.5c15.23,15.26,38.13,19.87,58.08,11.69"/>
    </g>
    <path class="cls-10" d="M273.45,336.27c-.34-1.09-.57-2.21-.7-3.34-.37-2.16-.89-5.3-1.4-9.17-1.55-10.13-1.78-20.42-.68-30.61,1.19-10.27,5.1-20.04,11.34-28.29,1.92-2.46,4.12-4.67,6.58-6.6.66-.53,1.35-1.02,2.06-1.48.24-.18.5-.33.78-.43-3.26,2.66-6.22,5.67-8.82,8.97-5.94,8.25-9.69,17.88-10.89,27.98-1.06,10.11-.93,20.31.39,30.39.43,3.73.78,6.84,1.05,9.19.18,1.13.27,2.26.29,3.4Z"/>
    <path class="cls-10" d="M224.98,203.25c.25.42.47.85.66,1.3.43.97,1.01,2.23,1.71,3.81,1.46,3.3,3.53,8.12,6.04,14.1,5.01,11.94,11.71,28.53,18.7,47.03,6.99,18.49,12.95,35.38,17.09,47.66,2.06,6.18,3.71,11.11,4.8,14.55.49,1.65.91,2.99,1.22,4,.18.45.3.92.37,1.4-.24-.43-.43-.87-.58-1.34-.35-.99-.82-2.29-1.42-3.92-1.24-3.53-2.99-8.43-5.11-14.43-4.33-12.2-10.31-29.05-17.36-47.52-7.05-18.47-13.59-35.05-18.41-47.13l-5.73-14.23c-.62-1.61-1.13-2.91-1.53-3.9-.2-.45-.36-.92-.45-1.4Z"/>
    <path class="cls-10" d="M214.14,282.83c1.09-.02,2.18.04,3.26.19,1.27.1,2.53.28,3.77.54,1.68.27,3.33.64,4.97,1.09l2.85.78c.99.29,2.06.7,3.03,1.05,2.21.81,4.38,1.73,6.49,2.76,9.76,4.75,18.31,11.69,24.97,20.27,1.46,2.06,2.91,3.9,4.12,5.81.58.95,1.18,1.83,1.65,2.74l1.36,2.64c.91,1.65,1.48,3.26,2.06,4.62.51,1.17.93,2.38,1.28,3.61.37,1.03.66,2.08.87,3.15-.25,0-1.44-4.43-4.91-11.03-.45-.82-.91-1.69-1.4-2.58s-1.09-1.73-1.69-2.66c-1.28-1.97-2.65-3.87-4.12-5.69-6.65-8.38-15.05-15.2-24.62-20-2.23-1.03-4.31-2.06-6.39-2.8-1.01-.37-2.06-.8-2.95-1.11l-2.8-.85c-7.13-2.04-11.83-2.29-11.79-2.54Z"/>
    <path class="cls-7" d="M241.16,321.03h61.09v35.75c0,13.99-11.34,25.34-25.34,25.34h-10.41c-13.99,0-25.34-11.34-25.34-25.34v-35.75h0Z"/>
    <path class="cls-12" d="M241.16,321.03h61.09v35.75c0,13.99-11.34,25.34-25.34,25.34h-10.41c-13.99,0-25.34-11.34-25.34-25.34v-35.75h0Z"/>
    <path class="cls-11" d="M282.44,321.15c-.13.64-.37,1.25-.7,1.81-.78,1.59-1.69,3.1-2.72,4.54-6.9,9.71-18.11,15.42-30.02,15.32-1.76,0-3.52-.15-5.26-.45-.65-.06-1.28-.23-1.88-.49,0-.19,2.72.35,7.11.21,11.57-.34,22.38-5.86,29.44-15.03,2.68-3.42,3.83-5.9,4.02-5.9Z"/>
    <path class="cls-11" d="M301.67,362.39c-.71-.02-1.4-.16-2.06-.41-1.76-.56-3.45-1.32-5.03-2.27-11.03-6.46-15.71-20-11.03-31.89.67-1.72,1.53-3.36,2.56-4.89.36-.58.79-1.1,1.3-1.55-1.2,2.16-2.24,4.4-3.13,6.7-4.1,11.55.36,24.39,10.72,30.92,2.15,1.28,4.38,2.41,6.68,3.38Z"/>
    <path class="cls-11" d="M286.02,380.45c-.06-3.05-.49-6.08-1.28-9.03-.99-3.14-2.54-6.08-4.56-8.68-2.48-3.17-5.55-5.84-9.03-7.85-6.44-3.61-13.87-5.05-21.19-4.12-3.03.5-6.02,1.19-8.97,2.06.71-.43,1.48-.77,2.27-1.03,2.13-.79,4.35-1.35,6.6-1.67,7.51-1.2,15.2.17,21.83,3.9,3.61,2.1,6.77,4.91,9.28,8.25,2.05,2.72,3.58,5.79,4.49,9.07.61,2.2.9,4.48.85,6.76,0,.79-.1,1.58-.29,2.35Z"/>
  </g>
  <g id="freepik--filing-cabinet--inject-13">
    <rect class="cls-10" x="102.44" y="382.12" width="192.29" height="558.14"/>
    <rect class="cls-5" x="187.42" y="382.12" width="210.53" height="558.14"/>
    <rect class="cls-5" x="200.92" y="540.53" width="187.63" height="115.22"/>
    <path class="cls-10" d="M264.15,812.62h64.26v2.91c.06,2.45-1.88,4.48-4.33,4.53-.05,0-.1,0-.15,0h-55.33c-2.45,0-4.43-1.98-4.43-4.43v-2.91l-.02-.1Z"/>
    <path class="cls-10" d="M388.14,812.62v31.07c0,20.06.14,48.9.23,84.22v.41h-.41l-187.61.12h-.64v-116.11h.49l135.37.12h52.43-13.92l-38.76.16-135.04.35.49-.49v115.08l-.54-.54h0l187.61.1-.43.43c0-35.21.19-63.91.23-83.95,0-10,0-17.79.1-23.13v-6.06c.35-1.07.39-1.79.39-1.79Z"/>
    <rect class="cls-2" x="270.05" y="840.76" width="55.87" height="15.09"/>
    <rect class="cls-5" x="200.92" y="668.78" width="187.63" height="115.22"/>
    <path class="cls-10" d="M263.9,683.73h64.26v2.91c0,2.45-1.98,4.43-4.43,4.43h-55.46c-2.45,0-4.43-1.98-4.43-4.43v-2.91h.06Z"/>
    <path class="cls-10" d="M389.91,683.73v8.04c0,5.32,0,13.07.1,23.03,0,20.06.14,48.9.23,84.22v.41h-.33l-187.61.02h-.64v-116.11h.49l135.37.12,38.63.1h13.75-13.92l-38.76.16-135.04.37.49-.52v115.08l-.54-.54h0l187.61.1-.43.43c.1-35.21.19-63.91.23-83.95v-23.13c0-2.64,0-4.66,0-6.06.35-1.05.35-1.79.35-1.79Z"/>
    <rect class="cls-2" x="268.11" y="710.99" width="55.87" height="15.09"/>
    <path class="cls-10" d="M264.58,397.43h64.26v2.91c0,2.45-1.98,4.43-4.43,4.43h-55.4c-2.45,0-4.43-1.98-4.43-4.43v-2.91h0Z"/>
    <path class="cls-10" d="M388.55,397.43v8.06c0,5.3,0,13.07.1,23.03,0,20.04.12,48.88.23,84.2v.41h-.43l-187.61.1h-.6v-116.09h.49l135.35.12h52.45-13.9l-38.74.16-135.04.37.49-.49v115.06l-.54-.54h0l187.61.12-.41.41c0-35.21.16-63.91.23-83.95,0-9.98,0-17.77.1-23.11v-6.06c0-1.4.21-1.81.21-1.81Z"/>
    <rect class="cls-2" x="267.78" y="421.89" width="55.87" height="15.09"/>
    <path class="cls-7" d="M201.52,577.89v-43.29c0-3.73,3.03-6.76,6.76-6.76h115.33c3.68,0,6.66,2.98,6.66,6.66h0v43.29l-128.75.1Z"/>
    <path class="cls-12" d="M201.52,577.89v-43.29c0-3.73,3.03-6.76,6.76-6.76h115.33c3.68,0,6.66,2.98,6.66,6.66h0v43.29l-128.75.1Z"/>
    <path class="cls-11" d="M213.31,577.89v-38.06c0-.37.29-.68.66-.7h116.3v38.76h-116.96Z"/>
    <path class="cls-7" d="M356.47,531.83l-3.32,46.06h-125.16l3.34-42.74c.33-4.12,3.17-7.26,6.58-7.24l60.88.33h0c-.22-2.53,1.6-4.78,4.12-5.09h47c3.86.04,6.89,4.02,6.56,8.68Z"/>
    <path class="cls-7" d="M252.77,573.41v-43.29c0-3.73,3.03-6.76,6.76-6.76h115.35c3.68,0,6.66,2.98,6.66,6.66h0v43.42l-128.77-.02Z"/>
    <path class="cls-12" d="M252.77,573.41v-43.29c0-3.73,3.03-6.76,6.76-6.76h115.35c3.68,0,6.66,2.98,6.66,6.66h0v43.42l-128.77-.02Z"/>
    <path class="cls-11" d="M264.58,573.41v-38.08c-.01-.36.27-.67.64-.68,0,0,.01,0,.02,0h116.3v38.76h-116.96Z"/>
    <path class="cls-7" d="M407.74,527.32l-3.4,46.1h-125.1l3.46-42.76c-.01-3.75,2.84-6.88,6.58-7.22l60.88.31h0c-.22-2.53,1.6-4.78,4.12-5.09h46.94c3.81,0,6.84,4.02,6.51,8.66Z"/>
    <path class="cls-7" d="M324.1,575.91v-43.29c-.01-3.73,3.01-6.77,6.74-6.78,0,0,.01,0,.02,0h115.33c3.68,0,6.66,2.98,6.66,6.66,0,0,0,.01,0,.02v43.4h-128.75Z"/>
    <path class="cls-12" d="M324.1,575.91v-43.29c-.01-3.73,3.01-6.77,6.74-6.78,0,0,.01,0,.02,0h115.33c3.68,0,6.66,2.98,6.66,6.66,0,0,0,.01,0,.02v43.4h-128.75Z"/>
    <path class="cls-11" d="M335.92,575.91v-38.06c-.01-.37.27-.68.64-.7h116.3v38.76h-116.93Z"/>
    <rect class="cls-2" x="341.77" y="527.23" width="117.97" height="69.15"/>
    <rect class="cls-6" x="350.57" y="496.54" width="118.87" height="73.72"/>
    <path class="cls-10" d="M372.24,565.6c-.31,0-.54-12.74-.54-28.45s.23-28.45.54-28.45.54,12.74.54,28.45-.25,28.45-.54,28.45Z"/>
    <path class="cls-10" d="M380.67,565.6c-.29,0-.54-12.74-.54-28.45s.25-28.45.54-28.45.54,12.74.54,28.45-.23,28.45-.54,28.45Z"/>
    <path class="cls-10" d="M389.91,565.6c-.31,0-.54-12.74-.54-28.45s.23-28.45.54-28.45.54,12.74.54,28.45-.27,28.45-.54,28.45Z"/>
    <path class="cls-10" d="M399.08,565.6c-.29,0-.54-12.74-.54-28.45s.25-28.45.54-28.45.54,12.74.54,28.45-.25,28.45-.54,28.45Z"/>
    <path class="cls-10" d="M408.28,565.6c-.29,0-.54-12.74-.54-28.45s.25-28.45.54-28.45.54,12.74.54,28.45-.23,28.45-.54,28.45Z"/>
    <path class="cls-10" d="M417.49,565.6c-.31,0-.54-12.74-.54-28.45s.23-28.45.54-28.45.54,12.74.54,28.45-.25,28.45-.54,28.45Z"/>
    <path class="cls-10" d="M426.69,565.6c-.29,0-.54-12.74-.54-28.45s.25-28.45.54-28.45.54,12.74.54,28.45-.21,28.45-.54,28.45Z"/>
    <path class="cls-10" d="M435.88,565.6c-.29,0-.54-12.74-.54-28.45s.25-28.45.54-28.45.54,12.74.54,28.45-.23,28.45-.54,28.45Z"/>
    <path class="cls-10" d="M445.1,565.6c-.31,0-.56-12.74-.56-28.45s.25-28.45.56-28.45.54,12.74.54,28.45-.25,28.45-.54,28.45Z"/>
    <path class="cls-10" d="M454.29,565.6c-.31,0-.54-12.74-.54-28.45s.23-28.45.54-28.45.54,12.74.54,28.45-.25,28.45-.54,28.45Z"/>
    <path class="cls-7" d="M479.05,538l-3.3,37.91h-125.18l3.36-35.19c.32-3.38,3.16-5.96,6.56-5.96l60.9.27h0c0-2.28,1.85-4.12,4.12-4.12h46.94c3.62-.03,6.58,2.87,6.62,6.49,0,.2,0,.4-.02.6Z"/>
    <rect class="cls-10" x="200.45" y="554.84" width="187.63" height="115.22"/>
    <rect class="cls-5" x="313.98" y="554.84" width="187.63" height="115.22"/>
    <path class="cls-10" d="M501.61,669.57v-31.01c0-19.83-.14-48.37-.23-83.33l.41.43-187.61.1h0l.54-.54v114.36l-.49-.49,134.95.25,38.74.12h13.9-13.79l-38.63.14-135.28.23h-.49v-115.16h.56l187.61.12h.43v.41c0,35.05-.19,63.68-.23,83.58,0,9.88,0,17.59-.1,22.84v5.94c-.23,1.28-.27,2-.27,2Z"/>
    <path class="cls-10" d="M381.5,554.84h64.26v2.54c0,2.45-1.98,4.43-4.43,4.43h-55.4c-2.45,0-4.43-1.98-4.43-4.43v-2.54h0Z"/>
    <rect class="cls-2" x="386.9" y="580.67" width="55.87" height="15.09"/>
    <path class="cls-8" d="M440.44,483.03c-1.75,7.2-2.79,14.55-3.11,21.96,0,.95,0,2.06.82,2.58s2.06-.91,2.74-1.75c1.32-1.5,6.18-9.94,6.18-9.94,7.07-.65,12.54-6.49,12.72-13.59"/>
    <path class="cls-4" d="M459.74,482.29c.07.51.07,1.02,0,1.53-.13,1.42-.48,2.81-1.05,4.12-.89,2.03-2.25,3.81-3.96,5.22-2.22,1.76-4.88,2.87-7.69,3.22l.37-.25c-1.55,2.68-3.26,5.61-5.2,8.58-.31.43-.58.87-.95,1.32s-.64.78-1.03,1.2c-.4.48-.94.82-1.55.97-.74.07-1.43-.35-1.71-1.03-.34-1.01-.42-2.08-.25-3.13,0-.95.12-1.88.21-2.78.27-3.22.7-6.43,1.3-9.61.49-2.7,1.01-4.87,1.42-6.35.15-.78.4-1.55.74-2.27-.02.79-.14,1.58-.35,2.35-.27,1.53-.68,3.69-1.07,6.41s-.8,5.94-1.05,9.52l-.19,2.78c-.13.87-.07,1.76.19,2.6.14.33.43.52.6.47.37-.15.69-.38.95-.68l.97-1.15c.31-.39.6-.8.87-1.22,1.92-2.93,3.65-5.85,5.24-8.49l.12-.23h.25c2.64-.28,5.16-1.28,7.28-2.89,1.66-1.28,3-2.92,3.92-4.8.76-1.73,1.31-3.54,1.63-5.4Z"/>
  </g>
</svg>