<?xml version="1.0" encoding="UTF-8"?>
<svg id="Layer_2" data-name="Layer 2" xmlns="http://www.w3.org/2000/svg" viewBox="0 0 1000 1000">
  <defs>
    <style>
      .cls-1 {
        fill: #aa6550;
      }

      .cls-1, .cls-2, .cls-3, .cls-4, .cls-5, .cls-6, .cls-7, .cls-8, .cls-9, .cls-10, .cls-11, .cls-12 {
        stroke-width: 0px;
      }

      .cls-2 {
        fill: #000;
      }

      .cls-3 {
        fill: #e0e0e0;
      }

      .cls-4 {
        fill: #eb996e;
      }

      .cls-5 {
        fill: #455a64;
      }

      .cls-6 {
        fill: #f5f5f5;
      }

      .cls-7 {
        fill: #09f;
      }

      .cls-8 {
        fill: #ffbe9d;
      }

      .cls-9 {
        fill: #ebebeb;
      }

      .cls-13 {
        opacity: .4;
      }

      .cls-10 {
        fill: #263238;
      }

      .cls-11 {
        fill: #fafafa;
      }

      .cls-12 {
        fill: #b78876;
      }

      .cls-14 {
        opacity: .2;
      }
    </style>
  </defs>
  <g id="freepik--background-complete--inject-2">
    <path class="cls-6" d="M982.68,328.21s-11.77-7.18-24.79,20.81c-13.01,28-17.76,44.06-17.76,44.06,0,0-3.51,5.89-7.59,2.27s-9.86-14.08-16.56-11.94c-6.9,2.24-8.91,10.11-7.17,21.5,1.75,11.39,4.63,36.49,4.9,38.76s-.92,5.63-4.1,3.55-21.77-21.28-30.39-11.91c-8.62,9.36,1.41,40.3,2.51,43.66s.41,4.89-1.2,5.8-7.24-6.15-12.67-11.42-12.83-10.39-17.34-4.58-5.18,29.33,18.52,66.63l12.11,16.56,20.52-1.89c43.66-6.7,60.92-22.67,62.33-29.9s-7.27-9.36-14.84-10.04-16.62-.3-16.98-2.1.34-3.25,3.59-4.7,33.15-14.24,34.54-26.9-25.35-13.96-28.97-15.03-1.87-4.14,0-5.42,22.69-15.63,32.39-21.81,14.18-12.84,11.36-19.52c-2.82-6.44-14.46-3.9-19.88-4.61s-3.28-7.21-3.28-7.21c0,0,8.97-14.08,21.48-42.35,12.51-28.26-1-32.39-1-32.39"/>
    <path class="cls-3" d="M971.02,353.26s-.07.21-.24.61-.42,1.01-.73,1.76l-2.9,6.69c-2.53,5.82-6.25,14.21-10.89,24.56-9.27,20.7-22.31,49.18-36.81,80.58-14.51,31.4-27.66,59.88-37.04,80.54l-11.08,24.46-3.01,6.65c-.35.73-.62,1.31-.8,1.72-.09.2-.19.39-.3.58.06-.21.14-.41.23-.61.18-.42.42-1,.73-1.75.68-1.56,1.66-3.82,2.9-6.7,2.53-5.82,6.25-14.2,10.89-24.55,9.27-20.7,22.31-49.18,36.81-80.6s27.62-59.87,37-80.51c4.68-10.29,8.45-18.65,11.08-24.45l3.03-6.65c.34-.75.61-1.31.8-1.73s.34-.61.34-.61Z"/>
    <path class="cls-3" d="M923.52,398.4c.25.44.45.92.58,1.41.34.89.77,2.2,1.31,3.82,1.04,3.25,2.38,7.76,3.76,12.77l3.48,12.84c.42,1.54.77,2.82,1.07,3.89.17.45.28.93.32,1.41-.25-.44-.45-.92-.58-1.41-.34-.89-.77-2.2-1.3-3.83-1.01-3.25-2.3-7.79-3.68-12.8l-3.56-12.82-1.08-3.87c-.16-.46-.27-.93-.32-1.41Z"/>
    <path class="cls-3" d="M935.94,434.83c0-.18,9.13-3.35,20.52-7.04s20.69-6.6,20.74-6.42-9.13,3.35-20.52,7.04c-11.39,3.69-20.69,6.6-20.74,6.42Z"/>
    <path class="cls-3" d="M911.48,482.06c.5-.09,1.01-.14,1.52-.13l4.11-.14c3.46-.13,8.27-.31,13.55-.72s10.06-.89,13.52-1.28l4.08-.46c.5-.09,1.01-.12,1.52-.08-.46.17-.93.28-1.41.35-.96.18-2.35.42-4.07.68-3.44.52-8.22,1.11-13.52,1.51s-10.11.51-13.6.49c-1.73,0-3.14,0-4.11-.07-.53.03-1.07-.02-1.59-.14Z"/>
    <path class="cls-3" d="M893,451.59c.33.33.61.71.84,1.11.51.73,1.24,1.82,2.11,3.17,1.76,2.69,4.14,6.44,6.73,10.59s4.91,7.94,6.56,10.7c.83,1.41,1.48,2.51,1.92,3.3.27.39.48.81.63,1.25-.34-.33-.63-.7-.86-1.11-.51-.75-1.23-1.82-2.11-3.17-1.75-2.69-4.13-6.44-6.73-10.6s-4.91-7.94-6.56-10.7c-.82-1.41-1.41-2.51-1.92-3.28-.26-.39-.46-.81-.62-1.25Z"/>
    <path class="cls-3" d="M866.11,490.54c.41.43.77.9,1.08,1.41l2.72,4.06c2.25,3.44,5.35,8.21,8.73,13.51s6.41,10.13,8.56,13.63l2.53,4.22c.33.5.61,1.03.84,1.58-.41-.43-.77-.9-1.08-1.41l-2.7-4.06c-2.27-3.45-5.37-8.22-8.75-13.52s-6.39-10.13-8.56-13.63c-1.01-1.66-1.86-3.07-2.52-4.22-.34-.49-.63-1.01-.86-1.56Z"/>
    <path class="cls-3" d="M890.26,527.85c.62-.14,1.26-.22,1.9-.23l5.21-.37c4.39-.31,10.48-.76,17.17-1.41s12.67-1.41,17.11-2.01l5.17-.69c.63-.11,1.27-.17,1.92-.17-.61.21-1.24.35-1.87.44-1.21.24-2.97.55-5.14.9-4.37.72-10.41,1.56-17.11,2.24s-12.8,1.06-17.21,1.24c-2.21.08-3.99.14-5.22.14-.64.03-1.28,0-1.92-.08Z"/>
    <path class="cls-9" d="M144.07,466.93c32.85-21.93,40.84-63.37,40.18-100.82-.13-6.25.68-12.82-2.25-18.31s-9.86-9.38-15.59-6.83c-4.72,2.11-6.86,7.48-9.55,11.9-3.63,5.91-8.84,10.68-15.05,13.76-4.06,2-9.06,3.18-13,.96-5.41-3.04-5.94-10.49-5.8-16.7l.76-34.7c.13-6.21.25-12.55-1.62-18.48s-6.1-11.45-12.05-13.2-13.41,1.55-14.77,7.6c-.56,2.52-.08,5.15-.3,7.73s-1.41,5.41-3.97,6.08-5-1.11-6.86-2.94c-6.39-6.38-10.67-14.51-14.66-22.53s-7.87-16.38-13.65-23.29-13.86-12.46-22.86-13.11-18.67,4.72-21.12,13.41,2.62,17.67,8.14,24.84c8.22,10.62,17.93,20,28.83,27.84,1.97,1.41,4.08,2.94,4.82,5.25,1.3,4.22-2.73,8.21-6.9,9.52-4.72,1.41-9.86.92-14.7,1.41s-10.27,2.55-12.2,7.04c-2.66,6.31,2.61,13.04,7.83,17.48,10.47,8.89,22.37,15.92,35.21,20.8,4.61,1.75,9.45,3.28,13.13,6.55s5.86,8.87,3.53,13.21-8.14,5.63-12.97,4.7-9.13-3.62-13.72-5.41c-8.6-3.35-19.72-2.93-25.42,4.37-3.72,4.79-4.14,11.53-2.39,17.34s5.41,10.83,9.29,15.49c13.6,16.25,31.15,29.43,51.09,36.61,19.94,7.18,38.49,9.29,58.53,2.39"/>
    <path class="cls-3" d="M141.55,467.64c-5.28-18.94-19.72-63.51-28.38-84.5l-6.44-15.49c-2.13-5.08-4.22-10.11-6.6-14.91-4.57-9.19-9.65-18.12-15.21-26.76-5.27-8.31-10.56-16-15.49-23.17s-9.86-13.72-14.48-19.53c-7.28-9.22-15.29-17.84-23.94-25.79-3.06-2.82-5.49-4.93-7.17-6.34l-2-1.72c-.44-.35-.68-.52-.68-.52,0,0,.2.21.61.59l1.86,1.66c1.62,1.41,4.03,3.61,7.04,6.46,8.52,8.04,16.43,16.71,23.66,25.93,4.59,5.83,9.35,12.42,14.35,19.57s10.24,14.87,15.49,23.17c5.52,8.64,10.57,17.57,15.11,26.76,2.35,4.79,4.45,9.86,6.58,14.89s4.22,10.27,6.44,15.49c8.6,20.96,23.08,65.48,28.4,84.37"/>
    <path class="cls-3" d="M99.84,352.64c.29-.86.5-1.75.62-2.65.34-1.72.76-4.22,1.24-7.29.97-6.17,2.03-14.73,3.17-24.18,1.14-9.45,2.34-17.97,3.44-24.11.54-3.07,1-5.55,1.41-7.25.22-.88.37-1.77.44-2.68-.34.84-.61,1.7-.79,2.59-.46,1.69-1.03,4.22-1.65,7.22-1.37,6.11-2.63,14.66-3.77,24.15-1.14,9.49-2.13,17.84-2.89,24.21-.38,2.96-.7,5.42-.96,7.32-.16.88-.24,1.77-.25,2.66Z"/>
    <path class="cls-3" d="M19.2,336.52c.27.09.55.13.83.14l2.39.24c2.08.21,5.08.49,8.77.96,7.39.87,17.58,2.46,28.73,4.7,11.15,2.24,21.12,4.76,28.31,6.77,3.59.99,6.48,1.86,8.45,2.45l2.31.68c.26.1.54.16.82.18-.23-.15-.49-.27-.76-.35-.62-.24-1.41-.52-2.25-.84-1.96-.7-4.83-1.69-8.45-2.82-7.14-2.18-17.14-4.79-28.31-7.04s-21.29-3.68-28.77-4.39c-3.7-.38-6.73-.56-8.82-.65h-2.41c-.28-.04-.56-.05-.84-.03Z"/>
    <path class="cls-3" d="M133.7,441.86c.21-.3.4-.63.55-.97l1.41-2.82c1.21-2.51,2.82-6.17,4.9-10.72,4.03-9.08,9.2-21.81,14.73-35.92,5.53-14.11,10.59-26.93,14.43-36.08l4.62-10.82c.51-1.21.93-2.18,1.25-2.94.16-.34.29-.69.38-1.06-.23.3-.41.62-.55.97l-1.41,2.82c-1.21,2.51-2.89,6.17-4.89,10.7-4.03,9.1-9.21,21.83-14.73,35.94-5.52,14.11-10.6,26.87-14.48,36.02l-4.62,10.82-1.24,2.94c-.17.35-.29.73-.37,1.11Z"/>
    <path class="cls-3" d="M26.77,406.07c.34.18.69.32,1.06.42l3.11,1.06,11.46,3.84c9.67,3.24,22.98,7.87,37.67,13.03s28.05,9.69,37.78,12.77c4.86,1.54,8.82,2.75,11.55,3.53l3.17.89c.37.12.74.21,1.13.25-.34-.18-.7-.33-1.07-.44l-3.11-1.06-11.46-3.82c-9.67-3.24-22.98-7.87-37.67-13.03s-28.04-9.7-37.77-12.77c-4.87-1.54-8.82-2.75-11.56-3.53l-3.15-.9c-.37-.12-.74-.21-1.13-.25Z"/>
    <path class="cls-6" d="M684.81,249.97h177.54l-34.73,24.69v20.62c-.16,21.21-17.49,38.28-38.7,38.12h-111.41c-21.21.16-38.54-16.91-38.7-38.12h0c.19-25.21,20.77-45.49,45.98-45.3,0,0,.01,0,.02,0Z"/>
    <path class="cls-3" d="M797.66,277.53c0,.2-29.57.37-66.19.37s-66.19-.17-66.19-.37,29.57-.37,66.19-.37,66.19.15,66.19.37Z"/>
    <path class="cls-3" d="M797.66,291.24c0,.2-29.57.37-66.19.37s-66.19-.17-66.19-.37,29.57-.37,66.19-.37,66.19.15,66.19.37Z"/>
    <path class="cls-6" d="M415.45,672.52h-210.09l34.22,24.76v48.59c0,5.6,4.54,10.14,10.14,10.14h165.72c5.6,0,10.15-4.53,10.15-10.13h0v-63.22c0-5.6-4.55-10.14-10.15-10.14Z"/>
    <path class="cls-3" d="M406.69,706.85c0,.21-31.69.37-70.77.37s-70.77-.15-70.77-.37,31.67-.37,70.77-.37,70.77.17,70.77.37Z"/>
    <path class="cls-3" d="M406.69,725.51c0,.2-31.69.37-70.77.37s-70.77-.17-70.77-.37,31.67-.37,70.77-.37,70.77.17,70.77.37Z"/>
  </g>
  <g id="freepik--character-2--inject-2">
    <rect class="cls-7" x="543.9" y="433.08" width="355.12" height="309.37" rx="54.63" ry="54.63"/>
    <g class="cls-13">
      <rect class="cls-2" x="543.9" y="433.08" width="355.12" height="309.37" rx="54.63" ry="54.63"/>
    </g>
    <polygon class="cls-7" points="898.92 540.93 952.11 540.93 897.72 595.33 898.92 540.93"/>
    <g class="cls-13">
      <polygon class="cls-2" points="898.92 540.93 952.11 540.93 897.72 595.33 898.92 540.93"/>
    </g>
    <path class="cls-12" d="M535.39,574.38l-22.29-25.35c-6.03-6.03-8.1-8.93-6.89-9.98,1.61-1.41.92-.94,13.43,8.45,0,0-17.74-13.56-11.59-13.65,1.08,0,4.1,1.75,7.32,3.86-4.39-3.73-5.63-6.25-4.77-7.45,1.41-2.08,12.28,5.45,17.28,9.07-4.08-3.04-11.87-8.94-13.24-10.8-1.89-2.53,1.93-2.32,5.03-1.27,3.48,1.18,22.7,11,28.39,13.53,1.74,1.04,4,.47,5.04-1.27.1-.16.18-.34.26-.52,2.1-8.82,8.45-14.55,10.87-15.29s4.3,2.35,2.56,4.61c-1.63,2.62-2.89,5.46-3.75,8.42-.78,2.33-1.17,4.77-1.14,7.22,0,2.82.2,5.25.38,7.29l20.38,27.95-34.08,19.72-13.2-24.55Z"/>
    <path class="cls-1" d="M527.42,551.44c-.23.31-4.22-2.41-8.84-6.08-4.62-3.68-8.22-6.91-7.96-7.21s4.22,2.44,8.84,6.08,8.15,6.89,7.96,7.21Z"/>
    <path class="cls-1" d="M531.73,546.99c-.23.32-4.61-2.35-9.79-5.96s-9.21-6.8-8.98-7.11,4.61,2.34,9.79,5.94,9.21,6.8,8.98,7.13Z"/>
    <path class="cls-1" d="M534.88,542.25c-.23.32-4.42-2.13-9.36-5.48s-8.77-6.32-8.56-6.66,4.41,2.13,9.36,5.48,8.77,6.34,8.56,6.66Z"/>
    <path class="cls-12" d="M564.19,555.04l81.23,103-18.6,43.3s-22.28-4.93-29.04-14.31c-6.76-9.38-62.39-112.66-62.39-112.66l28.8-19.34Z"/>
    <path class="cls-10" d="M770.39,410.95c5.84,5.07,5.83,14,5.15,21.7-.68,7.7-1.2,16.48,4.14,22.08,4.41,4.62,12.39,6.63,13.41,12.93.64,3.95-2.04,7.68-6,8.32-2.16.35-4.36-.29-5.99-1.74,1.72,4.97.54,11.18-3.77,14.2s-11.53,1.15-12.87-3.93c.88,3.41-1.17,6.89-4.58,7.77s-6.89-1.17-7.77-4.58c-.08-.3-.13-.6-.16-.91"/>
    <path class="cls-10" d="M686.69,462.94c-1.64,3.93-6.15,5.78-10.08,4.15-3.93-1.64-5.78-6.15-4.15-10.08h0c1.34-2.93,4.51-5.04,4.82-8.25.37-3.87-3.59-6.65-7.04-8.34s-7.62-3.89-8-7.77,2.99-6.66,5.79-9.17,5.63-6.39,3.84-9.73c-.89-1.72-2.73-2.69-3.93-4.22-2.63-3.35-1.25-8.69,2.11-11.27s8.01-2.99,12.21-2.24,8.14,2.49,12.22,3.72c13.69,3.98,28.42,2.05,40.61-5.32"/>
    <path class="cls-12" d="M711.63,553.76c15.14,3.05,29.93-6.6,33.22-21.69l19.98-91.62c5.15-21.85-8.39-43.75-30.24-48.9-.37-.09-.75-.17-1.12-.25l-2.08-.31c-21.11-3.1-41.07,10.54-45.84,31.33-4.45,19.34-9.11,40.76-10.52,51.27-2.92,21.79,18.31,28.35,18.31,28.35l-3.82,18.31c-3.17,15.29,6.65,30.26,21.94,33.43.05,0,.09.02.14.03l.03.04Z"/>
    <path class="cls-10" d="M689.47,436.75c-.26,1.68.86,3.26,2.53,3.58,1.62.37,3.22-.64,3.59-2.26,0-.02,0-.04.01-.07.27-1.68-.85-3.27-2.52-3.58-1.62-.37-3.24.65-3.61,2.27,0,.02,0,.04-.01.05Z"/>
    <path class="cls-10" d="M688.66,433.65c.32.46,2.93-.94,6.28-.44s5.53,2.52,5.96,2.17c.21-.15-.08-.94-1.03-1.87-1.3-1.21-2.94-2-4.7-2.24-1.74-.26-3.51.03-5.07.84-1.14.65-1.59,1.32-1.44,1.54Z"/>
    <path class="cls-10" d="M722.13,442.1c-.26,1.68.86,3.27,2.53,3.58,1.62.37,3.22-.65,3.59-2.26,0-.03.01-.05.02-.08.26-1.68-.86-3.26-2.53-3.56-1.61-.37-3.21.62-3.58,2.23,0,.03-.01.06-.02.09Z"/>
    <path class="cls-10" d="M721.42,439.08c.32.45,2.93-.94,6.27-.44s5.55,2.52,5.97,2.17c.2-.15-.08-.94-1.04-1.87-1.3-1.21-2.94-2-4.7-2.24-1.74-.26-3.51.03-5.07.84-1.08.61-1.59,1.32-1.42,1.54Z"/>
    <path class="cls-10" d="M705.66,462.09c0-.2-1.99-.86-5.28-1.77-.84-.21-1.62-.51-1.68-1.11.06-.89.38-1.74.93-2.44,1.12-1.94,2.28-3.99,3.48-6.13,4.86-8.75,8.45-15.97,8.15-16.17s-4.58,6.73-9.44,15.49l-3.38,6.17c-.68.96-1.01,2.12-.93,3.3.18.63.63,1.15,1.23,1.41.45.19.92.33,1.41.41,1.79.51,3.64.79,5.51.84Z"/>
    <path class="cls-10" d="M722.46,425.86c.2.96,3.61,1.01,7.45,2.06s6.86,2.58,7.51,1.84c.28-.35-.14-1.3-1.28-2.35-3.14-2.69-7.34-3.79-11.39-2.97-1.58.37-2.35,1.04-2.28,1.42Z"/>
    <path class="cls-10" d="M691.31,424.16c.48.84,2.82.39,5.63.76s5.04,1.27,5.63.55c.3-.35,0-1.17-.87-2.04-2.56-2.17-6.17-2.58-9.15-1.04-1.01.63-1.45,1.37-1.24,1.77Z"/>
    <path class="cls-10" d="M744.73,413.14l.1.11c3.07,3.24,4.76,7.54,4.73,12v.44c0,6.34-1.14,12.67-1.13,18.94s1.23,12.94,5.18,17.87c1.62,2.04,4.77,3.73,6.62,1.9.65-.78,1.06-1.73,1.2-2.73,3.35-14.8,9.38-27.48,11.65-43.14.64-4.25-.81-8.55-3.9-11.55-2.93-2.82-6.58-5.86-10.48-4.66s-9.6,7.32-12.86,9.86"/>
    <path class="cls-12" d="M756.06,449.21c.39-.11,15.59-2.24,12.93,12.56-2.66,14.8-16.9,9.08-16.9,8.65s3.97-21.21,3.97-21.21Z"/>
    <path class="cls-1" d="M757.61,465.63s.23.23.62.49c.57.38,1.26.52,1.93.39,1.66-.3,3.42-2.53,3.97-5.2.28-1.26.28-2.56,0-3.82-.12-.99-.71-1.86-1.59-2.32-.58-.27-1.28-.09-1.65.44-.27.37-.23.69-.31.69s-.27-.3,0-.89c.15-.35.41-.64.75-.82.46-.24,1-.28,1.49-.13,1.2.48,2.06,1.54,2.28,2.82.39,1.38.44,2.82.15,4.22-.63,2.97-2.66,5.48-4.9,5.72-.85.09-1.69-.21-2.3-.82-.49-.44-.51-.77-.45-.79Z"/>
    <path class="cls-10" d="M758.87,404.71c4.53-5.42-4.22-15.42-11.27-18.81s-17.18-1.23-24.84.13c-4.83.86-9.73,2.32-14.55,1.41-3.2-.8-6.25-2.08-9.07-3.79-2.82-1.68-5.96-2.78-9.21-3.22-3.34-.41-6.63,1.06-8.55,3.82-1.68,2.82-.51,7.22,2.65,8.14-3.25-2.46-7.88-1.83-10.34,1.42-2.46,3.25-1.83,7.88,1.42,10.34,1.43,1.08,3.2,1.61,4.99,1.48-1.87-1.92-5.51.27-5.63,2.94s1.99,4.94,4.22,6.37c5.79,3.63,13.14,3.82,19.87,2.61s13.18-3.72,19.88-5.1c6.7-1.38,17.96-4,24.01-.8,4.45,2.34,6.9,8.45,9.73,7.62,2.72-1,4.8-3.22,5.63-6,.76-2.75,1.08-5.6.94-8.45"/>
    <path class="cls-5" d="M787.84,473.36c.28-.06.54-.18.77-.34.7-.45,1.25-1.08,1.61-1.83.55-1.2.71-2.53.48-3.83-.37-1.7-1.3-3.23-2.65-4.34-1.6-1.32-3.4-2.37-5.34-3.11-2.17-.79-4.26-1.8-6.24-3.01-2.07-1.45-3.64-3.5-4.52-5.87-.96-2.55-1.41-5.27-1.31-8,.14-5.63,1.7-10.91,2.08-15.89s-.25-9.63-2.37-12.86c-1.59-2.59-4.11-4.48-7.04-5.28-.79-.2-1.6-.28-2.41-.24-.28,0-.56.05-.83.13,1.07,0,2.13.13,3.17.39,2.79.88,5.16,2.76,6.65,5.28,1.96,3.13,2.63,7.66,2.14,12.52s-2,10.14-2.17,15.93c-.09,2.83.39,5.64,1.41,8.28.94,2.51,2.63,4.66,4.83,6.18,2.02,1.21,4.16,2.22,6.38,3.01,1.88.7,3.65,1.69,5.22,2.93,1.29,1.02,2.2,2.43,2.59,4.03.26,1.21.14,2.48-.34,3.62-.44.98-1.18,1.79-2.13,2.3Z"/>
    <path class="cls-5" d="M683.55,392.02c-.2-.15-.42-.27-.65-.35-.26-.13-.54-.24-.82-.32-.39-.13-.79-.23-1.2-.3-2.71-.43-5.46.41-7.46,2.28h0c-2.03,2.47-2.98,5.64-2.65,8.82.38,3.94,2.34,7.57,5.44,10.04,3.52,2.84,7.81,4.56,12.31,4.94,4.89.42,9.81.12,14.62-.89,7.62-1.49,14.91-4.31,21.55-8.34,2.84-1.76,5.82-3.3,8.9-4.61,2.69-1.09,5.55-1.68,8.45-1.73,4.22-.09,8.39.88,12.14,2.82,1.35.76,2.67,1.59,3.93,2.49-1.13-1.11-2.4-2.06-3.79-2.82-3.76-2.09-7.99-3.18-12.29-3.14-2.97.02-5.91.59-8.67,1.68-3.11,1.3-6.12,2.84-9,4.61-6.59,3.94-13.81,6.71-21.35,8.18-4.73,1-9.59,1.31-14.41.92-4.37-.36-8.53-2.01-11.96-4.73-2.98-2.36-4.89-5.81-5.3-9.59-.35-3.03.52-6.07,2.42-8.45h0c1.9-1.81,4.52-2.68,7.13-2.35.91.2,1.8.48,2.66.84Z"/>
    <path class="cls-5" d="M691.79,379.7c-.05,1.13.13,2.26.52,3.32,1.1,2.93,3.15,5.41,5.83,7.04,1.8,1.17,3.8,2,5.9,2.45,2.41.49,4.88.61,7.32.38,5.17-.38,10.58-2.15,16.25-3.62s11.35-2.24,16.25-.93c4.35,1.15,8.22,3.66,11.04,7.17,1.94,2.33,3.38,5.03,4.22,7.94.56,2.07.63,3.28.73,3.27.02-.29.02-.58,0-.87-.08-.83-.21-1.65-.41-2.46-.75-3-2.15-5.8-4.1-8.21-2.85-3.65-6.8-6.28-11.27-7.51-5.07-1.41-10.9-.61-16.6.87-5.7,1.48-11.07,3.25-16.12,3.66-2.38.25-4.79.15-7.14-.3-2.04-.41-3.98-1.19-5.75-2.28-2.61-1.54-4.66-3.88-5.83-6.68-.38-1.06-.66-2.15-.86-3.25Z"/>
    <path class="cls-1" d="M698.99,473.15c.19,1.45.57,2.88,1.14,4.22.6,1.35,1.76,2.37,3.17,2.82,1.53.32,3.13-.17,4.22-1.28,1.08-1.14,1.77-2.59,1.99-4.14.23-1.41,0-3.17-1.41-3.62-.57-.14-1.16-.14-1.73,0l-7.8,1.41"/>
    <path class="cls-10" d="M700.35,479.06c1.24.48,2.56.73,3.89.73,1.38-.08,2.67-.67,3.63-1.66,1.15-1.22,1.72-2.88,1.56-4.55-.04-.42-.14-.84-.28-1.24-.18-.38-.13-.35-.45-.39s-.83,0-1.25.07l-1.31.1c-1.69.13-3.21.23-4.49.3-1.4.2-2.83.17-4.22-.08,1.32-.48,2.7-.77,4.1-.84,1.27-.18,2.82-.37,4.46-.56l1.3-.14c.47-.07.94-.11,1.41-.13.37.01.73.14,1.03.37.26.23.46.53.58.86.19.51.31,1.04.37,1.58.19,2.05-.55,4.08-2.01,5.53-1.2,1.14-2.81,1.77-4.46,1.73-1.08,0-2.15-.29-3.07-.86-.48-.39-.8-.75-.76-.8Z"/>
    <path class="cls-1" d="M693.37,501.95s14.2,5.38,28.01,1.41c0,0-10.42,8.75-29.43,5.39l1.42-6.8Z"/>
    <path class="cls-11" d="M715.03,703.85c-.68-.45-1.33-.95-1.94-1.49-.61-.49-1.41-1.1-2.27-1.75s-1.9-1.41-3.1-2.18-2.44-1.62-3.89-2.42-2.99-1.65-4.63-2.49c-7.22-3.56-14.99-5.88-22.98-6.87-1.84-.2-3.59-.42-5.24-.46s-3.18-.11-4.58-.1-2.68.08-3.79.13-2.07.13-2.82.21c-.81.12-1.62.18-2.44.17.79-.2,1.6-.35,2.41-.45.93-.16,1.87-.27,2.82-.34,1.11-.08,2.38-.24,3.8-.24s2.96-.08,4.62,0,3.44.23,5.3.39c4.03.5,8.01,1.32,11.91,2.45,3.87,1.19,7.64,2.69,11.27,4.49,1.65.87,3.24,1.68,4.63,2.58s2.72,1.7,3.87,2.52,2.17,1.61,3.06,2.28,1.62,1.32,2.2,1.86c.64.52,1.24,1.1,1.79,1.72Z"/>
    <path class="cls-7" d="M632.26,631.52l11.55-50.04c4.42-18.81,9.66-36.9,18.46-39.04v5.82l-3.77,142.95s-23.53,26.76-53.51,11.91c-9.38-4.66-26.49-37.4-26.49-37.4,0,0-39.81-71.03-38.15-74.26s25.98-34.57,28.46-36.14l63.46,76.19Z"/>
    <path class="cls-7" d="M751.09,528.28c22.95,4.39,48.8,17.79,60.7,52.11,4.34,12.53,35.94,104.93,35.94,104.93l-53.89-1.13-8.7-19.03,4.22,30.91,3.65,44.08-136.09,2.3.96-66.41,1.31-132.1s1.52-2,25-14.94c14.56-8.04,66.92-.72,66.92-.72Z"/>
    <g class="cls-14">
      <path class="cls-2" d="M764.67,616.64c2.24,27.88,4.8,36.5,7.04,64.39.05,2.64.53,5.26,1.41,7.75.95,2.51,3.04,4.42,5.63,5.14,3.97.8,9.13,3.68,10.24-.21l-3.76-26.86c-.81-3.91-2.06-7.71-3.72-11.34-8.35-18.55-11.44-19.63-16.9-38.87"/>
    </g>
    <path class="cls-7" d="M684.16,543.3l.45-2.9,4.35-27.83c.26-1.68,1.77-2.87,3.46-2.73l53.58,4.48c3.37.28,5.88,3.22,5.63,6.59l-1.2,16.17-16.73,21.83-24.1,3.76"/>
    <path class="cls-10" d="M657.25,595.61c.21,0,.37,21.8.37,48.68s-.15,48.68-.37,48.68-.37-21.8-.37-48.68.17-48.68.37-48.68Z"/>
    <path class="cls-10" d="M794.99,688.67s0-.1-.17-.31-.27-.56-.45-.96l-1.63-3.7-5.87-13.67-19.14-45.22c-3.72-8.84-7.25-17.27-10.46-24.94-1.62-3.6-2.79-7.38-3.46-11.27-.59-3.4-.91-6.83-.93-10.28-.18-4.99.55-9.98,2.14-14.72l.44-1.17.49-.99c.23-.52.51-1.02.84-1.49l.59-.87c.07-.1.14-.19.23-.28-.93,1.56-1.7,3.2-2.32,4.9-1.47,4.73-2.11,9.67-1.89,14.62.02,7.34,1.55,14.61,4.49,21.34l10.52,24.91,18.94,45.3,5.63,13.76,1.51,3.76.38.99c.05.09.09.19.13.3Z"/>
    <path class="cls-11" d="M767.8,533.2c-.49.5-1.01.97-1.56,1.41-1.58,1.21-3.31,2.21-5.14,3-2.9,1.21-5.94,2.06-9.04,2.53-4.1.64-8.24,1.05-12.39,1.23-4.62.2-9.66.11-15.07.21-5.74,0-11.47.69-17.04,2.08-6.17,1.46-11.76,4.75-16.03,9.45-2.12,2.56-3.65,5.56-4.45,8.79-.86,3.31-.8,6.79.17,10.07.54,1.62,1.33,3.14,2.35,4.51,1.03,1.33,2.32,2.42,3.8,3.21,1.44.79,3.07,1.13,4.7.99,1.6-.16,3.07-.92,4.14-2.11,1.93-2.54,2.68-5.78,2.08-8.91-.23-1.53-.71-3.01-1.41-4.39-.69-1.35-1.53-2.62-2.49-3.79-3.76-4.34-8.83-7.34-14.45-8.55-4.86-1.15-9.94-1.09-14.77.17-3.98,1.03-7.78,2.66-11.27,4.83-2.66,1.66-5.16,3.54-7.49,5.63-1.93,1.69-3.3,3.15-4.22,4.11l-1.04,1.13c-.11.13-.24.26-.38.37,1.66-2.09,3.5-4.04,5.49-5.82,2.31-2.13,4.8-4.05,7.46-5.72,3.52-2.24,7.37-3.92,11.41-4.99,4.92-1.32,10.08-1.41,15.04-.25,5.76,1.21,10.97,4.28,14.83,8.72.98,1.18,1.84,2.45,2.56,3.8.71,1.45,1.19,3.01,1.41,4.61.25,1.63.22,3.29-.08,4.91-.3,1.69-1.05,3.27-2.15,4.58-1.18,1.33-2.82,2.17-4.59,2.35-1.78.17-3.56-.2-5.13-1.06-1.57-.84-2.95-2-4.04-3.41-1.07-1.43-1.91-3.03-2.48-4.73-1.01-3.41-1.07-7.03-.17-10.46.82-3.34,2.4-6.45,4.61-9.08,4.37-4.79,10.08-8.15,16.39-9.65,5.64-1.38,11.42-2.05,17.22-2,5.42-.08,10.46,0,15.05-.13,4.13-.14,8.26-.52,12.35-1.11,3.09-.44,6.11-1.25,9.01-2.39,1.82-.74,3.55-1.68,5.15-2.82.56-.38.94-.73,1.23-.93.13-.14.27-.27.42-.38Z"/>
    <path class="cls-11" d="M814.37,591.81c-.2.06-.4.09-.61.1-.39,0-.97.1-1.73.13-2.13.07-4.26.02-6.38-.15-2.69-.2-5.87-.61-9.39-1.1s-7.38-1.01-11.46-1.23c-3.82-.21-7.65.08-11.39.86-3.06.62-6,1.74-8.7,3.31-2.45,1.5-4.62,3.4-6.42,5.63.08-.19.18-.36.31-.52.3-.5.64-.97,1.01-1.41,1.36-1.67,3-3.09,4.83-4.22,2.72-1.66,5.7-2.85,8.82-3.52,3.8-.83,7.7-1.14,11.59-.93,4.13.21,8,.77,11.52,1.3s6.68.99,9.34,1.24,4.84.37,6.34.38c.78,0,1.56.05,2.34.14Z"/>
    <path class="cls-11" d="M780.53,654.94c-2.65-.62-5.37-.85-8.08-.69-3.18.22-6.33.78-9.39,1.68-3.59.97-7.6,2.39-12.11,3.79-4.89,1.66-10.01,2.55-15.18,2.63-5.95,0-11.84-1.22-17.29-3.59-6.07-2.56-11.46-6.49-15.77-11.46-2.33-2.6-4.23-5.56-5.63-8.76-1.49-3.31-2.05-6.97-1.62-10.58.49-3.64,2.26-6.98,5-9.42,1.36-1.19,2.99-2.02,4.75-2.42,3.49-.74,7.12.24,9.76,2.63,1.27,1.17,2.16,2.7,2.53,4.38.36,1.65.23,3.37-.38,4.94-.59,1.51-1.49,2.89-2.63,4.04-2.18,2.19-4.82,3.87-7.73,4.91-1.37.52-2.78.91-4.22,1.17-.7.13-1.41.28-2.1.38l-2.1.25c-5.15.51-10.34.14-15.36-1.08-4.14-.99-8.13-2.52-11.87-4.56-2.83-1.53-5.48-3.36-7.9-5.46l-1.41-1.23-1.15-1.17c-.62-.59-1.21-1.22-1.75-1.89l-1.01-1.21c-.12-.13-.22-.27-.31-.42.14.12.26.24.38.38l1.06,1.15c.56.65,1.16,1.26,1.79,1.83l1.17,1.14,1.41,1.2c2.44,2.05,5.08,3.83,7.9,5.31,3.72,1.99,7.68,3.47,11.79,4.42,4.97,1.18,10.11,1.52,15.2.99l2.06-.25c.69-.11,1.41-.27,2.08-.39,1.41-.25,2.79-.64,4.13-1.15,2.81-1.02,5.36-2.65,7.48-4.77,1.08-1.09,1.92-2.39,2.48-3.82.55-1.45.67-3.03.35-4.55-.85-3.16-3.38-5.59-6.58-6.31-3.26-.94-6.78-.14-9.31,2.13-2.61,2.32-4.29,5.51-4.75,8.97-.4,3.47.13,6.99,1.55,10.18,1.36,3.13,3.21,6.02,5.46,8.58,4.24,4.89,9.54,8.74,15.49,11.27,5.37,2.34,11.16,3.57,17.03,3.61,5.11-.06,10.19-.92,15.04-2.53,4.49-1.41,8.45-2.73,12.15-3.68,3.09-.87,6.27-1.39,9.48-1.56,1.17-.07,2.34-.07,3.51,0,1,.15,1.86.23,2.53.38l1.54.38c.2.06.4.14.58.25Z"/>
    <path class="cls-11" d="M656.78,639.92c-.13,0-.77-1.41-2.14-3.77-3.57-6-8.79-10.86-15.03-14.01-2.39-1.21-3.97-1.75-3.93-1.87.4.03.78.12,1.15.27,1.02.31,2.03.68,3,1.13,3.23,1.47,6.19,3.45,8.79,5.87,2.6,2.42,4.78,5.24,6.46,8.37.53.94,1,1.9,1.41,2.9.14.36.24.74.28,1.13Z"/>
    <path class="cls-11" d="M602.14,700.19s-.1-.11-.23-.35-.34-.62-.58-1.06c-.51-.93-1.24-2.32-2.14-4.13-2.62-5.09-4.77-10.4-6.45-15.87-1.12-3.8-1.8-7.72-2.01-11.67-.11-2.21-.02-4.43.27-6.62.35-2.32.91-4.61,1.66-6.83,1.64-4.81,4.49-9.11,8.27-12.51,4.08-3.74,9.51-5.65,15.03-5.28,2.84.21,5.49,1.5,7.41,3.61,1.85,2.11,2.62,4.95,2.1,7.7-.3,1.33-1,2.54-2,3.48-.98.89-2.16,1.54-3.44,1.87-2.48.65-5.11.33-7.37-.89-2.09-1.13-3.92-2.69-5.37-4.58-1.39-1.75-2.53-3.68-3.39-5.73-1.52-3.69-2.16-7.68-1.84-11.66.28-3.28,1.24-6.47,2.82-9.36,1.17-2.18,2.66-4.18,4.42-5.91,1.1-1.1,2.32-2.09,3.62-2.94.44-.3.8-.48,1.04-.62l.37-.18s-.45.32-1.32.93c-1.26.9-2.43,1.91-3.51,3.01-1.69,1.75-3.11,3.74-4.22,5.9-1.5,2.86-2.39,5.99-2.63,9.21-.27,3.9.38,7.81,1.92,11.41.85,1.99,1.97,3.86,3.32,5.56,1.4,1.81,3.17,3.3,5.18,4.38,2.1,1.13,4.56,1.42,6.87.82,2.42-.57,4.31-2.44,4.91-4.84.45-2.52-.26-5.11-1.94-7.04-1.8-1.96-4.28-3.16-6.93-3.35-5.32-.35-10.55,1.49-14.48,5.08-3.69,3.32-6.47,7.51-8.1,12.2-.76,2.17-1.32,4.41-1.68,6.69-.29,2.16-.39,4.33-.3,6.51.2,3.91.84,7.79,1.92,11.56,1.62,5.46,3.7,10.77,6.2,15.89l2.01,4.22c.21.45.38.82.52,1.1s.07.31.07.31Z"/>
    <path class="cls-11" d="M584.75,575.87s.07.2.13.58c.1.57.17,1.14.21,1.72.19,2.1.19,4.22,0,6.32-1.16,14.25-9.8,26.82-22.7,33-1.9.93-3.87,1.68-5.9,2.27-.7.23-1.28.32-1.66.42s-.59.11-.59.08c.71-.3,1.43-.56,2.17-.77,1.98-.68,3.9-1.51,5.76-2.46,12.54-6.33,20.99-18.61,22.42-32.59.22-2.08.3-4.17.24-6.25-.07-.77-.1-1.54-.07-2.31Z"/>
    <path class="cls-11" d="M826.69,636.93c-2.09,1.31-3.94,2.99-5.44,4.96-1.41,1.82-2.82,4.22-4.41,6.76-1.75,2.84-3.76,5.5-6.01,7.96-4.12,4.45-9.01,8.13-14.43,10.86-1.63.83-3.32,1.55-5.04,2.15-.63.25-1.28.44-1.94.56.58-.33,1.2-.61,1.83-.83,1.18-.52,2.9-1.25,4.91-2.35,5.26-2.83,10.02-6.51,14.08-10.89,2.23-2.42,4.23-5.03,5.99-7.82,1.4-2.33,2.93-4.57,4.58-6.73,1.15-1.45,2.51-2.71,4.04-3.73.42-.28.85-.52,1.31-.72.37-.14.54-.21.54-.18Z"/>
    <path class="cls-10" d="M750.59,529.97c-.21.09-.42.15-.65.17l-1.87.34c-1.63.27-4,.62-6.91,1.01-5.86.79-13.97,1.72-22.97,2.38-4.21.38-8.44.54-12.67.45-3.49-.09-6.95-.68-10.27-1.76-2.24-.73-4.35-1.8-6.27-3.17-.52-.37-1.02-.77-1.49-1.2-.31-.31-.46-.46-.45-.49s.73.56,2.1,1.41c1.95,1.25,4.05,2.23,6.27,2.9,3.29,1,6.7,1.53,10.14,1.58,4.23.05,8.46-.12,12.67-.51,8.97-.66,17.08-1.49,22.94-2.15l6.94-.79c.83-.11,1.66-.17,2.49-.17Z"/>
    <path class="cls-12" d="M847.09,695.29c3.99,20.51-9.4,40.38-29.92,44.37-2.26.44-4.55.67-6.85.69l-106.68-1.18,2.82-34.54,91.34-13.72"/>
    <path class="cls-12" d="M713,706.13c-.49.15-6.65-2.61-12.17-5.15-5.86-2.71-12.28-3.96-18.73-3.63l-25.43,1.3s1.56,4.22,4.22,5.63,18.62,1.86,18.62,1.86l-.82.83c-3.34,3.44-7.89,5.43-12.67,5.55h-2.44c-1.8-.14-3.59-.49-5.31-1.04l-6.27-2.53c-1.9-.84-3.9-.72-4.73,1.2s-.2,4.11,4.99,6.72c2.89,1.41,13.62,5.17,13.62,5.17.07,1.53.29,3.05.63,4.53.46,1.56,4.68,3.13,4.68,3.13,1.09,2.32,2.35,4.56,3.75,6.7.49.56,4.31,1.76,8.38,2.9,6.56,1.84,13.51,1.78,20.04-.15l9.69-2.9v-29.57"/>
    <path class="cls-1" d="M678.22,725.44c-4.48-.11-8.87-1.27-12.83-3.38,0-.17,2.82.9,6.38,1.82s6.46,1.35,6.45,1.56Z"/>
    <path class="cls-1" d="M677.31,731.37c-1.19.25-2.43.16-3.58-.27-1.2-.22-2.31-.77-3.21-1.58,1.15.23,2.28.55,3.38.97,1.16.2,2.3.5,3.41.87Z"/>
    <path class="cls-1" d="M681.96,703.84c-.56.78-1.21,1.49-1.96,2.1-1.69,1.61-3.55,3.03-5.55,4.22-2.02,1.18-4.21,2.02-6.49,2.51-.92.25-1.87.35-2.82.31,3.15-.72,6.19-1.85,9.04-3.37,1.96-1.18,3.82-2.51,5.56-3.99.68-.66,1.42-1.26,2.21-1.79Z"/>
    <path class="cls-7" d="M715.59,701.5l-2.59,39.07h100.48c6.82,0,13.52-1.85,19.36-5.37h0c13.56-8.15,20.56-23.91,17.52-39.43-1.45-7.42-3.62-14.68-6.48-21.67l-50.53,8.32,1.62,6.28-79.38,12.8Z"/>
    <path class="cls-10" d="M818.25,685.42c-.33.1-.67.17-1.01.23l-2.94.54-10.86,1.8-35.71,5.63-35.76,5.48-10.84,1.58-2.96.39c-.35.05-.69.08-1.04.08.33-.12.68-.2,1.03-.24l2.93-.52,10.82-1.82,35.71-5.63,35.83-5.52,10.84-1.58,2.96-.39c.34-.05.68-.05,1.01-.03Z"/>
    <path class="cls-11" d="M766.82,740.59c-.18,0,.61-2.82.7-7.42.02-1.25-.03-2.5-.15-3.75-.12-1.42-.33-2.83-.62-4.22-.7-3.21-1.8-6.33-3.27-9.27-1.51-2.93-3.35-5.67-5.49-8.17l-1.41-1.65c-.48-.54-1-1-1.48-1.48-.94-.97-1.94-1.75-2.82-2.49-3.59-2.82-6.14-4.22-6.06-4.35.62.25,1.22.56,1.79.92.7.37,1.38.77,2.03,1.23.75.54,1.68,1.06,2.56,1.82,1.01.76,1.98,1.58,2.9,2.45.49.48,1.04.93,1.54,1.41l1.54,1.66c2.21,2.52,4.1,5.29,5.63,8.27,1.49,3,2.59,6.18,3.27,9.46.29,1.44.48,2.89.56,4.35.09,1.27.09,2.54,0,3.8-.03,1.05-.12,2.1-.28,3.14-.08.78-.21,1.56-.41,2.32-.12.67-.3,1.33-.54,1.97Z"/>
    <path class="cls-11" d="M828,737.65c-1.57,0-3.13-.19-4.66-.55-1.8-.41-3.55-1.03-5.21-1.84-2.2-1.09-4.19-2.57-5.87-4.37-2.04-2.2-3.52-4.85-4.32-7.75-.45-1.61-.7-3.26-.75-4.93-.1-1.76.04-3.53.42-5.25.38-1.83,1.08-3.59,2.08-5.17,1.05-1.68,2.5-3.06,4.22-4.03,1.79-1.04,3.84-1.53,5.9-1.41,2.14.15,4.13,1.17,5.51,2.82,1.42,1.63,2.1,3.78,1.86,5.93-.35,2.09-1.62,3.91-3.46,4.96-3.41,1.79-7.33,2.32-11.1,1.52-11.02-1.72-19.25-11.04-19.59-22.19-.09-1.57.04-3.14.39-4.68-.13,1.55-.17,3.11-.11,4.66.26,4.24,1.65,8.33,4.01,11.86,3.56,5.23,9.13,8.76,15.38,9.76,3.6.77,7.35.28,10.62-1.41,1.65-.94,2.8-2.56,3.13-4.44.35-4.04-2.65-7.61-6.69-7.95,0,0-.02,0-.02,0-1.91-.13-3.82.31-5.48,1.25-3.17,1.89-5.35,5.07-5.99,8.7-.38,1.67-.53,3.39-.44,5.1.04,1.61.27,3.22.69,4.77.74,2.81,2.15,5.41,4.11,7.56,1.61,1.77,3.52,3.24,5.63,4.35,1.62.83,3.33,1.48,5.1,1.93,2.96.66,4.65.69,4.63.79Z"/>
  </g>
  <g id="freepik--character-1--inject-2">
    <path class="cls-7" d="M429.42,312.07h-251.64c-30.63,0-55.46,24.83-55.46,55.46h0v89.68h-54.29l54.29,54.29v60.96c0,30.63,24.83,55.46,55.46,55.46h251.64c30.63,0,55.46-24.83,55.46-55.46h0v-204.93c0-30.63-24.83-55.46-55.46-55.46h0Z"/>
    <path class="cls-10" d="M326.61,321.55c-1.59,4.13,1.14,8.62,4.22,11.8,3.08,3.18,6.77,6.2,7.75,10.51.8,3.62-.54,7.38-.21,11.07s2.37,7.17,3.52,10.77c2.1,6.53,1.25,13.67-.62,20.28-1.35,5.49-3.93,10.6-7.55,14.94-3.68,4.35-9.06,6.92-14.76,7.04-1.61.1-3.19-.47-4.37-1.58-.79-1.14-1.23-2.49-1.25-3.87-3.22-28.36-3.22-56.99,0-85.34"/>
    <path class="cls-10" d="M323.64,412.93c12.25-.54,23.57,11.2,22.6,23.42,12.41,3.03,21.12,16.67,18.74,29.21-.8,4.14-2.65,8.08-2.9,12.28-.28,4.59,1.41,9.06,2.24,13.56,1.59,8.21.74,16.71-2.45,24.45-1.93,4.66-5.53,9.48-10.58,9.62-3.47-.15-6.64-2.01-8.45-4.97-1.76-2.95-2.91-6.22-3.41-9.62-2.18-11.01-2.82-22.32-5.86-33.12s-8.96-21.45-18.72-26.93c-5.39-3.04-11.87-4.48-16.17-8.94-4.41-4.97-5.63-12-3.17-18.17,2.56-6.06,7.58-10.75,13.8-12.89"/>
    <path class="cls-10" d="M238.84,331.65c-.14-5.24,4.69-9.28,9.56-11.27s10.29-2.65,14.63-5.63c3.86-2.59,6.44-6.63,9.69-9.86,12.5-12.68,32.91-12.82,45.59-.32,4.21,4.15,7.19,9.37,8.63,15.11,1.87,7.45.59,16.27-5.28,21.22-6.82,5.75-16.9,4.46-25.67,2.68s-18.63-3.55-25.93,1.59c-4.39,3.08-6.93,8.13-9.62,12.79s-6.06,9.41-11.14,11.17-12-1.28-12.2-6.65"/>
    <path class="cls-8" d="M259.48,332.72c-4.52.49-7.92,4.35-7.82,8.9h0l5.22,118.29c.23,13.97,20.65,21.81,35.6,21.46h0c15.11-.35,15.59-7.76,15.79-21.05.31-22.19.28-30.53.3-30.4s19.08-3.21,22.98-28.17c1.93-12.38,1.27-32.69.18-49.29-.97-14.94-10.91-33.25-25.8-31.64l-46.46,11.9Z"/>
    <path class="cls-10" d="M327.44,368.15c.02,1.73-1.34,3.16-3.07,3.22-1.67.14-3.15-1.1-3.29-2.77,0-.02,0-.03,0-.05-.02-1.73,1.34-3.16,3.07-3.22,1.67-.14,3.15,1.1,3.29,2.77,0,.02,0,.03,0,.05Z"/>
    <path class="cls-10" d="M327.36,363.08c-.39.42-2.82-1.41-6.25-1.41s-5.96,1.75-6.34,1.32c-.18-.18.23-.94,1.32-1.75,1.48-1.03,3.25-1.58,5.06-1.56,1.79-.01,3.53.55,4.99,1.59,1.06.83,1.42,1.62,1.23,1.8Z"/>
    <path class="cls-10" d="M294.42,368.15c.02,1.73-1.34,3.16-3.07,3.22-1.67.14-3.15-1.1-3.29-2.77,0-.02,0-.03,0-.05-.02-1.73,1.34-3.16,3.07-3.22,1.67-.14,3.15,1.1,3.29,2.77,0,.02,0,.03,0,.05Z"/>
    <path class="cls-10" d="M293.65,363.8c-.39.42-2.82-1.41-6.25-1.41s-5.96,1.75-6.32,1.32c-.18-.18.21-.94,1.31-1.75,1.48-1.03,3.25-1.59,5.06-1.58,1.79,0,3.54.56,4.99,1.61.99.86,1.35,1.62,1.23,1.8Z"/>
    <path class="cls-10" d="M306.11,389.26c0-.2,2.11-.56,5.63-1.01.87-.1,1.7-.28,1.86-.87.06-.91-.14-1.81-.59-2.61l-2.62-6.68c-3.62-9.51-6.25-17.32-5.86-17.46s3.63,7.45,7.25,16.9l2.51,6.72c.55,1.06.71,2.27.46,3.44-.25.62-.77,1.1-1.41,1.3-.46.13-.93.19-1.41.2-3.66.25-5.82.28-5.83.08Z"/>
    <path class="cls-4" d="M308.57,429.93c-11.73.2-23.28-2.85-33.38-8.83,0,0,8.13,17.1,33.05,14.7l.32-5.87Z"/>
    <path class="cls-4" d="M304.67,397.54c-1.35-1.69-3.49-2.56-5.63-2.28-1.53.14-2.94.9-3.9,2.1-.94,1.18-1.04,2.81-.25,4.1,1.13,1.27,2.92,1.71,4.51,1.13,1.62-.58,3.11-1.47,4.38-2.63.39-.27.72-.62.99-1.01.26-.39.26-.89,0-1.28"/>
    <path class="cls-10" d="M296,391.68c.56,0,.58,3.7,3.77,6.34s7.17,2.23,7.2,2.82c0,.24-.89.73-2.56.77-2.19.04-4.32-.69-6.01-2.07-1.63-1.33-2.67-3.24-2.92-5.32-.15-1.65.27-2.53.52-2.53Z"/>
    <path class="cls-10" d="M295.05,357.77c-.34.94-3.77.51-7.8,1s-7.29,1.61-7.83.76c-.24-.39.32-1.28,1.63-2.18,3.54-2.28,7.94-2.8,11.91-1.41,1.53.66,2.28,1.39,2.08,1.83Z"/>
    <path class="cls-10" d="M326.04,353.14c-.61.77-2.97,0-5.83,0s-5.25.54-5.8-.28c-.25-.39.13-1.17,1.18-1.92,2.89-1.81,6.58-1.7,9.36.27,1.08.75,1.38,1.55,1.08,1.93Z"/>
    <path class="cls-10" d="M242.09,414.65c11.96,2.42,23.62-5.32,26.04-17.28.47-2.34.56-4.73.27-7.1-.77-6.13-4.07-12.34-1.94-18.14,2.82-7.65,13.53-10,16.38-17.65,1.65-4.44.17-9.63,2.04-13.98,1.76-4.08,6.07-6.44,10.27-7.96s8.67-2.56,12.2-5.3,5.7-7.89,3.44-11.73c-18.6,2.23-36.87,6.67-54.42,13.22-4.07,1.52-8.34,3.35-10.75,6.96-2.53,3.83-2.41,8.76-2.2,13.35,1.04,22.36-2.37,43.3-1.32,65.67"/>
    <path class="cls-5" d="M236.16,407.64c-.14-.02-.28-.06-.41-.13-.4-.14-.79-.33-1.14-.56-1.37-.89-2.45-2.16-3.1-3.66-1.07-2.37-1.35-5.02-.82-7.56.85-3.3,2.39-6.39,4.52-9.06,2.18-3.04,4.96-6.13,6.84-10.06,1.01-2,1.57-4.19,1.65-6.42-.08-2.37-.56-4.71-1.41-6.93-.95-2.4-1.45-4.94-1.48-7.52.28-5.6,3.31-10.69,8.1-13.6,2.53-1.38,5.33-2.18,8.21-2.34,2.78-.14,5.54-.61,8.21-1.41,2.51-.95,4.57-2.8,5.77-5.2,1.15-2.35,2.07-4.82,2.73-7.35.71-2.43,1.66-4.79,2.82-7.04,2.12-4.27,5.34-7.89,9.34-10.49,3.53-2.22,7.65-3.29,11.82-3.07,3.45.18,6.73,1.52,9.31,3.82,1.92,1.73,3.36,3.93,4.15,6.39.52,1.54.72,3.17.58,4.79-.03.56-.12,1.12-.28,1.66,0,0,.1-.58.14-1.68.07-1.59-.17-3.19-.7-4.69-1.98-5.66-7.23-9.54-13.22-9.77-4.05-.18-8.05.89-11.46,3.07-3.89,2.55-7.02,6.1-9.07,10.28-1.14,2.25-2.05,4.61-2.73,7.04-.69,2.58-1.63,5.09-2.82,7.48-.65,1.24-1.5,2.36-2.52,3.32-1.05.97-2.29,1.72-3.63,2.21-2.74.85-5.58,1.35-8.45,1.49-2.77.15-5.48.91-7.91,2.24-4.58,2.78-7.48,7.64-7.76,12.98.03,2.5.5,4.97,1.41,7.29.9,2.28,1.4,4.7,1.48,7.15-.09,2.32-.69,4.6-1.75,6.68-1.97,4.03-4.77,7.04-6.97,10.1-2.12,2.59-3.67,5.6-4.53,8.83-.56,2.46-.33,5.03.66,7.35.61,1.48,1.62,2.75,2.93,3.68.94.48,1.52.62,1.51.68Z"/>
    <path class="cls-5" d="M308.53,299.05c.34.03.67.13.97.3.85.36,1.64.83,2.35,1.41,5.1,3.95,6.18,11.22,2.46,16.49-.52.76-1.14,1.44-1.83,2.04-.51.42-.82.61-.84.56.79-.9,1.54-1.84,2.24-2.82,3.28-5.12,2.28-11.87-2.35-15.81-.96-.78-1.96-1.5-3-2.17Z"/>
    <path class="cls-5" d="M363.71,469.97c.3-.87.54-1.75.72-2.65.33-2.46-.1-4.96-1.23-7.17-1.74-3.24-4.5-5.82-7.86-7.32-1.96-.93-4.02-1.66-6.13-2.18-2.2-.56-4.52-1.03-6.84-1.79-2.34-.64-4.49-1.81-6.29-3.44-1.61-1.61-2.66-3.71-2.97-5.97-.38-2.1-.51-4.08-.97-5.86-.42-1.64-1.19-3.17-2.27-4.48-1.58-1.92-3.67-3.34-6.03-4.1-1.68-.51-2.68-.51-2.68-.59.24-.02.48-.02.72,0,.69.05,1.37.16,2.04.32,2.47.68,4.68,2.09,6.34,4.04,1.16,1.35,2,2.94,2.46,4.66.51,1.84.66,3.86,1.06,5.89.29,2.14,1.28,4.12,2.82,5.63,1.73,1.53,3.78,2.65,6.01,3.25,2.27.73,4.59,1.21,6.8,1.79,2.14.52,4.21,1.27,6.2,2.23,3.47,1.59,6.3,4.3,8.03,7.7,1.13,2.31,1.49,4.92,1.04,7.45-.13.67-.35,1.33-.63,1.96-.09.22-.2.43-.34.62Z"/>
    <path class="cls-10" d="M255.38,425.86c-12.67-3.38-23.52-15.73-27.94-28.02s-4.42-25.71-3.28-38.73c.82-9.42,2.48-19.39,8.73-26.49,9.44-10.7,19.72-16.17,33.91-15.72"/>
    <path class="cls-6" d="M329.04,453.32l-11.76-2.96c2.64-1.82,3.63-5.26,2.34-8.2-1.52-3.72-4.98-6.29-8.98-6.66l-53.6-6.06c-1.93-.26-3.78.84-4.49,2.65-2.38,6.05-2.46,11.02-.24,14.93h-.25l-10.34,2.06-17.52,154.54,114.75-5.37-9.9-144.94Z"/>
    <path class="cls-10" d="M312.16,450.96c-.7.21-1.43.35-2.15.42-1.41.23-3.42.46-5.93.72-13.12,1.22-26.34.56-39.28-1.96-2.48-.49-4.46-.94-5.83-1.31-.72-.14-1.42-.35-2.1-.62.73.05,1.45.17,2.15.35,1.41.27,3.39.65,5.87,1.07,12.92,2.22,26.06,2.88,39.14,1.94,2.51-.17,4.53-.35,5.94-.49.72-.1,1.45-.14,2.18-.13Z"/>
    <path class="cls-3" d="M260.3,475.52c1.13-2.34,2.47-4.58,4.01-6.68,1.35-2.23,2.9-4.33,4.63-6.27-1.13,2.35-2.48,4.58-4.03,6.68-1.34,2.23-2.88,4.33-4.62,6.27Z"/>
    <path class="cls-3" d="M297.28,478.13c-3.58-3.68-6.8-7.68-9.62-11.97,1.88,1.76,3.58,3.68,5.1,5.76,1.7,1.92,3.22,4,4.52,6.21Z"/>
    <path class="cls-3" d="M280.1,497.78c-.81-2.51-1.39-5.08-1.73-7.69-.59-2.57-.92-5.18-1-7.82.81,2.5,1.39,5.08,1.73,7.69.57,2.57.9,5.19,1,7.82Z"/>
    <path class="cls-3" d="M308.33,498.99c-1.99,2.47-4.16,4.79-6.51,6.93-2.18,2.32-4.53,4.46-7.04,6.41,1.99-2.47,4.16-4.79,6.51-6.93,2.18-2.31,4.54-4.45,7.04-6.41Z"/>
    <path class="cls-3" d="M270.47,525.33c-5.19-3.1-9.42-7.58-12.21-12.94.2-.13,2.35,3.25,5.75,6.82s6.6,5.94,6.46,6.13Z"/>
    <path class="cls-3" d="M282.63,545.66c0,.21-3.21,1.24-6.93,3.22s-6.44,4.07-6.58,3.89c1.77-1.9,3.89-3.44,6.24-4.55,2.23-1.32,4.7-2.19,7.27-2.56Z"/>
    <path class="cls-3" d="M302.42,546.97c-.84-.71-1.59-1.52-2.24-2.41-1.3-1.55-3.03-3.76-4.83-6.28s-3.32-4.87-4.38-6.62c-.63-.9-1.15-1.88-1.55-2.9.75.8,1.41,1.68,1.99,2.62l4.55,6.48,4.63,6.39c.7.84,1.32,1.75,1.83,2.72Z"/>
    <path class="cls-3" d="M304.41,564.32c-2.74.96-5.57,1.62-8.45,1.97-2.85.59-5.75.88-8.66.86,2.81-.71,5.67-1.23,8.55-1.58,2.83-.59,5.69-1.01,8.56-1.25Z"/>
    <path class="cls-3" d="M272.37,448.77c-.1,0,.58-.84,1.15-2.34.72-1.95.93-4.05.62-6.11-.35-2.07-.96-4.09-1.82-6.01-.42-.79-.74-1.62-.96-2.48.59.68,1.06,1.44,1.41,2.27,1.02,1.91,1.72,3.97,2.07,6.11.34,2.18.04,4.42-.86,6.44-.31.86-.88,1.6-1.62,2.13Z"/>
    <path class="cls-3" d="M293.8,437.2c2.03,2.79,2.85,6.29,2.27,9.69-.21,0-.24-2.24-.87-4.9s-1.55-4.68-1.39-4.79Z"/>
    <path class="cls-8" d="M390.48,547.31l53.37-93.75,6.44-16.27s16.65-35.77,17.8-39.43c1.34-4.22,3.69-4.56,5.21-3.97,2.37.94,3.13,4.46,2.08,8.11-.37,1.25-6.83,20.91-6.83,20.91,1.74-1.5,3.58-2.87,5.52-4.1,4.1-2.82,11.6-2.68,18.56-.2,6.96,2.48,8.67,3.79,7.84,6.52-.37,1.04-1.2,1.85-2.24,2.21-1.64.68-3.47.72-5.14.11-11.18-3.8-16.14,1.24-16.14,1.24l-.83,2.13s8.45-2.69,13.18,1.11c.71.56,1.3,1.25,1.75,2.03,4.86,1.59,7.51,6.81,5.92,11.67-.49,1.49-1.35,2.84-2.5,3.91-1.05,1.2-2.73,1.62-4.22,1.07-.68-.47-1.23-1.1-1.59-1.84-.23-.37-.49-.73-.77-1.06l-3.18,5.63s-7.84,12.25-10.66,17.98l-36.76,97.92c-5.02,13.4-19.96,20.19-33.36,15.17-.15-.06-.29-.11-.44-.17h0c-13.32-5.26-19.85-20.32-14.59-33.64.45-1.14.98-2.24,1.58-3.3Z"/>
    <path class="cls-8" d="M447.53,453.24c1.89,1.24,4.49.39,6.18-1.07s2.82-3.48,4.45-5.07c4.75-4.75,12.67-5.2,17.22-10.17.63-.69,1.2-1.75.65-2.51s-1.56-.62-2.41-.45l-21.84,4.32"/>
    <path class="cls-4" d="M451.78,438.3c.74-.33,1.51-.57,2.31-.7,1.51-.38,3.7-.87,6.41-1.41l9.52-2.01,2.82-.58c1.08-.4,2.28-.36,3.34.11.62.46.9,1.24.7,1.99-.15.6-.44,1.15-.84,1.61-.74.81-1.56,1.54-2.46,2.17-3.63,2.52-7.62,3.55-10.8,5.22-1.52.72-2.92,1.67-4.14,2.82-1.13,1.08-2.01,2.32-2.94,3.38-1.35,1.89-3.47,3.08-5.79,3.25-1.68,0-2.37-.83-2.31-.84.73.25,1.51.37,2.28.35,2.1-.35,3.96-1.56,5.13-3.34.9-1.23,1.87-2.42,2.89-3.55,1.28-1.27,2.75-2.32,4.35-3.13,3.28-1.77,7.25-2.82,10.6-5.21.81-.57,1.55-1.23,2.23-1.96.62-.69.83-1.52.39-1.76s-1.41-.13-2.38.07l-2.82.52-9.58,1.76c-2.73.48-4.94.84-6.48,1.07-.79.18-1.61.24-2.42.17Z"/>
    <path class="cls-4" d="M475.83,430.86c.56-1.31,1.42-2.46,2.51-3.38,1.22-.91,2.7-1.41,4.22-1.41,1.91.01,3.82.33,5.63.93,1.86.63,3.77,1.06,5.72,1.3,1.63.19,3.29-.07,4.79-.73,1.05-.48,1.81-1.43,2.04-2.56.11-.39.11-.81,0-1.2-.08,0-.08.42-.3,1.13-.31.96-1.03,1.73-1.97,2.11-1.43.53-2.98.71-4.49.51-1.89-.3-3.75-.77-5.55-1.41-1.88-.62-3.85-.92-5.83-.9-1.66.04-3.26.63-4.55,1.69-.85.71-1.51,1.63-1.9,2.66-.35.83-.38,1.25-.32,1.27Z"/>
    <path class="cls-4" d="M475.76,400.6c-.55,1.26-1,2.56-1.32,3.9-.83,2.7-1.82,5.91-2.92,9.46s-2.18,6.73-3.06,9.42c-.51,1.28-.9,2.6-1.17,3.94.7-1.19,1.28-2.44,1.72-3.75.93-2.37,2.11-5.63,3.3-9.36s2.1-7.04,2.69-9.56c.4-1.32.65-2.68.76-4.06Z"/>
    <path class="cls-4" d="M478.85,436.75c.43.06.87.06,1.3,0,1.09-.19,2.21.11,3.07.82.5.53.68,1.27.49,1.97-.23.86-.56,1.7-1,2.48-.56.98-.75,2.13-.52,3.24.39,1.19,1.32,2.12,2.51,2.52,1.17.37,2.44.24,3.51-.35.99-.5,1.8-1.29,2.32-2.27.76-1.6,1.28-3.31,1.55-5.07.21-1.18.21-2.38,0-3.56-.04-.44-.22-.86-.49-1.21-.07,0,.11.45.18,1.25.06,1.15-.04,2.3-.3,3.42-.33,1.66-.88,3.28-1.63,4.8-.94,1.76-2.95,2.67-4.9,2.21-.94-.3-1.68-1.04-2-1.97-.18-.92-.03-1.88.44-2.69.44-.85.77-1.76.99-2.69.19-.91-.1-1.85-.77-2.49-.99-.79-2.3-1.06-3.52-.73-.42.04-.83.15-1.21.32Z"/>
    <path class="cls-4" d="M488.06,446.6s-.27.37-.24,1.15c.08,1.12.69,2.14,1.63,2.75,1.47.84,3.28.84,4.75,0,1.74-1,3.02-2.64,3.58-4.56.61-1.89.61-3.92,0-5.8-.5-1.52-1.4-2.89-2.61-3.94-.79-.71-1.72-1.27-2.72-1.63-.36-.17-.75-.26-1.14-.25,1.26.61,2.42,1.38,3.46,2.31,2.41,2.35,3.27,5.87,2.23,9.07-.5,1.73-1.63,3.21-3.17,4.15-1.25.73-2.78.77-4.07.11-.85-.5-1.44-1.33-1.63-2.3-.14-.62,0-1.06-.07-1.06Z"/>
    <path class="cls-4" d="M470.29,455.45c-.56-.38-1.21-.58-1.89-.58-1.72-.17-3.44.24-4.9,1.17l.61.41c.19-.93.32-1.87.39-2.82.49-5.44-1.24-9.63-1.41-9.52.54,3.12.74,6.29.61,9.45-.07.9-.19,1.8-.35,2.69l-.17.92.77-.52c1.32-.86,2.86-1.32,4.44-1.32,1.17.03,1.87.23,1.9.13Z"/>
    <path class="cls-4" d="M481.4,422.04c-.23,0,.08,1.69,1.58,2.99s3.17,1.41,3.17,1.17-1.34-.65-2.62-1.79-1.9-2.45-2.13-2.37Z"/>
    <path class="cls-7" d="M314.77,625.1l55.84.55-9.36-40.52,3.14,7.65c5.92,14.44,19.98,23.87,35.59,23.87h0c17.66,0,29.87-13.14,37.33-29.14,17.46-37.4,34.29-97.64,34.29-97.64l-34.04-29.91c-24.64,46.61-47.8,87.09-47.8,87.09,0,0-6.69-20.32-11.86-38.46s-5.13-27.66-13.05-36.7c-12.21-13.91-29.57-17.36-45.74-21.53l-.61,75.26-3.73,99.48"/>
    <path class="cls-7" d="M250.88,569.12l101.68,19.72,4.94,39.07h-155.9c-16.95.21-30.87-13.37-31.08-30.32-.01-.93.02-1.87.09-2.8,2.24-28.48,4.68-63.54,6.53-78.37,1.41-11.56,6.06-23.52,11.51-33.8,7.87-14.81,34.11-33.8,57.11-34.78l4.35,96.85"/>
    <g class="cls-13">
      <path class="cls-2" d="M314.77,625.1l55.84.55-9.36-40.52,3.14,7.65c5.92,14.44,19.98,23.87,35.59,23.87h0c17.66,0,29.87-13.14,37.33-29.14,17.46-37.4,34.29-97.64,34.29-97.64l-34.04-29.91c-24.64,46.61-47.8,87.09-47.8,87.09,0,0-6.69-20.32-11.86-38.46s-5.13-27.66-13.05-36.7c-12.21-13.91-29.57-17.36-45.74-21.53l-.61,75.26-3.73,99.48"/>
      <path class="cls-2" d="M250.88,569.12l91.71,16.81c3.82.71,6.84,3.65,7.65,7.45l7.27,34.6h-155.9c-16.95.21-30.87-13.37-31.08-30.32-.01-.93.02-1.87.09-2.8,2.24-28.48,4.68-63.54,6.53-78.37,1.41-11.56,6.06-23.52,11.51-33.8,7.87-14.81,34.11-33.8,57.11-34.78l4.35,96.85"/>
    </g>
    <path class="cls-10" d="M231.51,566.22c-.04-.31-.04-.62,0-.93v-12.52c0-8.27-.15-19.72-.79-32.29-.32-6.31-.73-12.31-1.17-17.74-.2-4.83-.89-9.62-2.04-14.31-.81-3.13-2.34-6.03-4.48-8.45-.83-.85-1.7-1.65-2.62-2.39,1.08.55,2.05,1.28,2.89,2.15,2.28,2.41,3.92,5.34,4.77,8.55,1.23,4.73,1.97,9.57,2.2,14.45.48,5.45.9,11.45,1.23,17.76.65,12.67.72,24.07.58,32.39-.08,4.14-.2,7.49-.3,9.86l-.15,2.66c0,.28-.04.55-.11.82Z"/>
    <path class="cls-10" d="M350.58,591.66c-1.07-1.18-2.32-2.2-3.7-3-1.64-.9-3.39-1.59-5.2-2.07-2.1-.61-4.56-1.07-7.28-1.62-10.87-2.23-25.87-5.31-42.49-8.45-16.62-3.14-31.74-5.63-42.68-7.38l-12.97-2.07-3.52-.59c-.41-.05-.82-.14-1.23-.25.42,0,.83.04,1.24.11l3.55.45c3.07.41,7.52,1.03,13,1.84,10.97,1.63,26.11,4.06,42.74,7.17s31.63,6.27,42.46,8.6c2.72.59,5.18,1.1,7.29,1.75,1.83.52,3.58,1.27,5.22,2.23,1.05.59,2,1.36,2.82,2.25.22.22.41.46.59.72.1.17.17.31.15.31Z"/>
    <path class="cls-10" d="M231.82,566.22c0,.13-1.87.56-4.77,1.75-1.69.7-3.34,1.51-4.93,2.42-1.92,1.15-3.75,2.44-5.48,3.86-1.68,1.45-3.24,3.04-4.68,4.73-1.18,1.4-2.26,2.88-3.24,4.42-1.66,2.66-2.42,4.46-2.55,4.41.09-.45.23-.89.44-1.31.48-1.16,1.03-2.28,1.66-3.37.94-1.61,2-3.14,3.17-4.59,2.89-3.55,6.43-6.51,10.42-8.75,1.62-.91,3.31-1.69,5.06-2.32,1.17-.44,2.38-.79,3.61-1.06.42-.13.86-.19,1.3-.2Z"/>
    <path class="cls-10" d="M363.12,590.56c-.1-.32-.17-.64-.21-.97-.11-.7-.27-1.63-.45-2.82-.39-2.44-.92-5.96-1.51-10.32-1.18-8.72-2.62-20.8-3.83-34.18s-1.93-25.52-2.32-34.32c-.2-4.39-.31-7.96-.37-10.42v-2.82c-.03-.33-.03-.66,0-.99.08.32.11.65.11.99l.18,2.82c.15,2.53.35,6.07.61,10.39.52,8.79,1.34,20.91,2.53,34.28s2.56,25.45,3.62,34.18c.52,4.31.96,7.82,1.27,10.35.13,1.17.24,2.1.32,2.82.06.33.07.68.04,1.01Z"/>
    <path class="cls-10" d="M396.83,575.42s-.32-.31-.82-.93c-.68-.9-1.31-1.84-1.87-2.82-3.78-6.45-5.52-13.89-5-21.35.07-1.12.22-2.24.45-3.34.05-.41.15-.81.31-1.2.13,0-.14,1.75-.24,4.56-.24,7.35,1.46,14.64,4.93,21.12,1.32,2.44,2.35,3.86,2.24,3.94Z"/>
    <path class="cls-11" d="M231.11,513.89s-.18.07-.52.11c-.51.08-1.02.13-1.54.15-1.89.08-3.78-.07-5.63-.45-2.75-.55-5.44-1.39-8.01-2.51-2.92-1.21-6.01-2.82-9.25-4.38-3.03-1.52-6.17-2.82-9.39-3.89-2.61-.88-5.33-1.41-8.08-1.59-2.55-.08-5.1.21-7.56.86.15-.1.32-.18.49-.23.46-.2.93-.36,1.41-.49,1.84-.49,3.73-.71,5.63-.65,2.81.09,5.6.56,8.28,1.41,3.26,1.05,6.44,2.36,9.49,3.91,3.25,1.61,6.32,3.18,9.2,4.41,2.53,1.12,5.16,2,7.86,2.62,2.51.51,5.07.75,7.63.7Z"/>
    <path class="cls-11" d="M248.58,510.47c-2.71.82-5.48,1.42-8.28,1.77-2.78.61-5.61.96-8.45,1.06,2.71-.82,5.48-1.42,8.28-1.77,2.78-.61,5.61-.96,8.45-1.06Z"/>
    <path class="cls-11" d="M230.47,540.69c-.65.37-1.33.66-2.04.89-1.34.52-3.3,1.23-5.73,2.01-6.37,2.04-12.87,3.65-19.46,4.82-3.86.68-7.56,1.17-10.94,1.51-3,.39-6.03.47-9.04.24-2.04-.17-4.04-.73-5.86-1.68-.5-.26-.97-.56-1.41-.9-.16-.11-.31-.24-.44-.39,0,0,.68.44,1.96,1.04,1.83.82,3.79,1.3,5.79,1.41,2.98.15,5.96.02,8.91-.39,3.37-.38,7.04-.89,10.89-1.56,6.56-1.16,13.05-2.69,19.43-4.58,2.45-.73,4.42-1.41,5.79-1.79.7-.26,1.42-.47,2.15-.62Z"/>
    <path class="cls-11" d="M248.12,548.11c-2.54.4-5.11.57-7.68.49-2.56.16-5.13.08-7.68-.24,2.54-.4,5.11-.57,7.68-.49,2.56-.16,5.13-.08,7.68.24Z"/>
    <path class="cls-11" d="M175.65,612.27c.02-.26.07-.52.15-.76.14-.56.34-1.25.56-2.11l.42-1.52c.18-.55.42-1.13.65-1.76.51-1.44,1.09-2.85,1.75-4.22l1.14-2.41c.41-.84.93-1.66,1.41-2.53,1.06-1.85,2.22-3.64,3.46-5.37,5.75-7.95,13.25-14.48,21.93-19.08,1.89-1,3.82-1.89,5.8-2.69.94-.35,1.82-.76,2.7-1.04l2.55-.8c1.46-.47,2.95-.85,4.45-1.14.66-.14,1.27-.3,1.83-.39l1.58-.21,2.17-.27c.25-.04.51-.04.76,0-.24.09-.49.15-.75.18l-2.14.41-1.55.27-1.82.45c-1.3.35-2.82.65-4.38,1.24l-2.51.84c-.87.3-1.75.7-2.66,1.07-1.95.81-3.86,1.72-5.72,2.72-4.23,2.34-8.22,5.11-11.9,8.25-3.63,3.21-6.94,6.77-9.86,10.63-1.27,1.83-2.52,3.55-3.48,5.28-.49.86-1.01,1.66-1.41,2.49l-1.18,2.37c-.8,1.49-1.3,2.93-1.83,4.22-.24.62-.49,1.2-.69,1.73l-.49,1.49-.69,2.07c-.07.21-.16.4-.27.59Z"/>
    <path class="cls-11" d="M246.27,569.01c-2.36,2.05-4.31,4.51-5.77,7.27-1.54,3.01-2.63,6.24-3.24,9.56-.73,4.09-1.2,8.23-1.41,12.38-.18,4.18-.65,8.35-1.41,12.46-.69,3.37-1.88,6.63-3.53,9.65-1.1,2.02-2.53,3.86-4.22,5.42-.46.43-.96.82-1.48,1.17-.35.24-.55.37-.56.34,2.4-2,4.4-4.44,5.89-7.18,1.56-3,2.68-6.2,3.32-9.52.75-4.09,1.22-8.23,1.41-12.38.18-4.19.65-8.36,1.41-12.48.66-3.37,1.81-6.63,3.44-9.66,1.11-2.04,2.53-3.9,4.22-5.49.44-.42.91-.82,1.41-1.18.16-.14.34-.26.54-.35Z"/>
    <path class="cls-11" d="M270.31,628.14c-.2,0,0-12.14.52-27.1.52-14.96,1.06-27.08,1.25-27.08s0,12.14-.52,27.11-1.06,27.08-1.25,27.07Z"/>
    <path class="cls-11" d="M308.53,626.06c-.27-.56-.47-1.15-.62-1.76-.23-.69-.42-1.4-.58-2.11-.18-.83-.44-1.77-.59-2.82-.44-2.48-.69-5-.75-7.52-.14-6.2.81-12.37,2.82-18.24.82-2.39,1.81-4.72,2.97-6.96.46-.97.99-1.79,1.41-2.52.36-.64.75-1.25,1.18-1.84.31-.54.69-1.04,1.11-1.49.13.07-1.41,2.25-3.25,6.1-1.09,2.24-2.04,4.56-2.82,6.93-1.93,5.81-2.88,11.89-2.82,18.01.03,2.49.22,4.98.58,7.45.7,4.2,1.49,6.73,1.35,6.77Z"/>
    <path class="cls-11" d="M243.62,470.42c0,.11-2.23-.86-5.89-2.04-9.54-3.08-19.64-3.97-29.57-2.62-3.8.52-6.13,1.11-6.15.99.5-.24,1.04-.42,1.59-.52,1.47-.41,2.97-.73,4.48-.97,10-1.66,20.27-.76,29.83,2.63,1.44.51,2.85,1.08,4.22,1.73.53.21,1.03.47,1.49.8Z"/>
    <path class="cls-11" d="M354.88,529.69c-1.74.09-3.49.06-5.22-.08-3.22-.13-7.68-.3-12.59-.41s-9.36-.18-12.59-.21c-1.74.06-3.49,0-5.22-.18.46-.11.93-.17,1.41-.17.9,0,2.21-.13,3.83-.17,3.22-.1,7.68-.13,12.6,0s9.38.38,12.67.65c1.61.13,2.9.24,3.8.35.44.03.88.1,1.31.23Z"/>
    <path class="cls-11" d="M382.68,524.35c0,.13-1.76.73-4.51,2.08-7.18,3.53-13.27,8.96-17.6,15.69-1.66,2.58-2.46,4.3-2.58,4.22.08-.44.23-.87.45-1.27.49-1.12,1.06-2.21,1.69-3.25,2.07-3.48,4.66-6.62,7.69-9.31,3.02-2.69,6.44-4.91,10.13-6.58,1.11-.5,2.26-.93,3.42-1.3.42-.16.86-.25,1.31-.3Z"/>
    <path class="cls-11" d="M368.96,479.22c-2.42-.08-4.85.26-7.15,1-2.49.87-4.91,1.94-7.22,3.21-2.86,1.58-5.85,2.93-8.93,4.01-5.7,1.83-11.76,2.22-17.65,1.14-1.77-.32-3.51-.79-5.2-1.41-.63-.2-1.24-.46-1.82-.79,0-.14,2.65.97,7.04,1.69,5.8.91,11.74.45,17.34-1.34,3.05-1.08,6.01-2.39,8.86-3.91,2.36-1.25,4.82-2.29,7.37-3.1,1.73-.55,3.54-.81,5.35-.77.47.01.94.06,1.41.14.44.06.62.1.61.13Z"/>
    <path class="cls-11" d="M361.93,573.6c-.51.32-1.06.58-1.63.77-.54.23-1.2.49-1.99.75s-1.68.59-2.68.84c-2.36.66-4.76,1.16-7.18,1.49-2.97.38-5.96.54-8.96.46-2.99-.11-5.97-.45-8.91-1-2.39-.48-4.74-1.13-7.04-1.93-1-.31-1.86-.69-2.62-1s-1.41-.61-1.94-.86c-.56-.23-1.09-.53-1.59-.87,0-.13,2.38,1,6.32,2.24,2.31.73,4.66,1.31,7.04,1.75,5.82,1.08,11.78,1.26,17.66.54,2.4-.3,4.78-.74,7.13-1.32,3.97-1.01,6.35-1.99,6.39-1.86Z"/>
    <path class="cls-11" d="M394.29,615.29c-.2-.13-.39-.28-.55-.45-.32-.32-.86-.76-1.41-1.41-1.7-1.82-3.19-3.82-4.45-5.97-4.06-7.2-6.23-15.32-6.28-23.59,0-8.21,1.08-16.39,3.2-24.32.76-3.04,1.41-5.49,1.93-7.17.24-.77.44-1.41.59-1.93s.23-.68.25-.66c0,.23-.04.47-.11.69-.11.54-.27,1.18-.45,1.97-.42,1.82-1,4.22-1.7,7.22-1.94,7.91-2.93,16.02-2.94,24.17.05,8.14,2.08,16.14,5.93,23.31,1.21,2.15,2.62,4.17,4.22,6.04,1.11,1.35,1.82,2.04,1.77,2.1Z"/>
    <path class="cls-11" d="M445.54,567.46c-2.25-1.78-4.76-3.21-7.45-4.22-2.94-1.02-5.95-1.8-9.01-2.35-3.8-.64-7.56-1.5-11.27-2.58-6.69-2.17-12.79-5.84-17.84-10.73-1.52-1.47-2.94-3.06-4.22-4.75-.46-.59-.77-1.08-1-1.41s-.32-.51-.3-.52c.54.55,1.05,1.13,1.52,1.75,1.35,1.61,2.8,3.13,4.35,4.55,5.08,4.71,11.12,8.26,17.7,10.41,3.66,1.07,7.38,1.94,11.14,2.62,3.09.59,6.12,1.44,9.07,2.52,1.99.75,3.86,1.8,5.55,3.1.46.35.89.73,1.3,1.14.35.31.49.46.46.48Z"/>
    <path class="cls-11" d="M461.65,520.47c-.54-.39-1.05-.83-1.51-1.31-.46-.44-1.03-.97-1.73-1.56s-1.41-1.3-2.37-1.97c-2.08-1.68-4.26-3.23-6.53-4.63-5.57-3.45-11.63-6.04-17.97-7.69-2.59-.67-5.22-1.18-7.87-1.54-1.13-.18-2.15-.25-3.06-.34s-1.69-.15-2.32-.18c-.67,0-1.33-.06-1.99-.18.66-.1,1.32-.13,1.99-.1.78-.04,1.57-.04,2.35,0,.9,0,1.96.07,3.1.23,2.68.29,5.34.76,7.96,1.41,3.21.82,6.35,1.88,9.41,3.15,3.03,1.32,5.96,2.86,8.76,4.62,2.28,1.45,4.46,3.06,6.52,4.8.9.72,1.63,1.41,2.31,2.08.58.53,1.13,1.08,1.65,1.66.49.47.93.99,1.31,1.55Z"/>
    <path class="cls-11" d="M338.43,455.83c-.83.55-1.73.98-2.68,1.28-2.22.87-4.5,1.58-6.83,2.11-2.32.55-4.67.92-7.04,1.13-.98.15-1.98.15-2.96,0,0-.23,4.46-.59,9.86-1.87,5.39-1.28,9.56-2.86,9.65-2.65Z"/>
    <path class="cls-8" d="M388.38,654.17c.6,2.08-.59,4.25-2.66,4.85-.53.16-1.1.2-1.65.12h0c-1.53-.22-2.8-1.32-3.21-2.82l-1.2-4.42h.18c.43,2.22-1.03,4.37-3.26,4.79-.44.08-.88.1-1.32.04h0c-1.84,0-3.44-2.69-3.97-4.11h0c-2.84.28-5.59-1.05-7.15-3.44l-8.27-12.9-15.31-11.2,9.27-33.08,32.94,21.32c1.3,1.01,1.49,1.41,3.55,3.34l21.26,19.56c-2.41,1.41-4.45,1.34-7.8,0s-18.03-11.27-18.03-11.27l6.62,29.08"/>
    <path class="cls-4" d="M360.2,626.96s.38.17.97.58l1.1.76c.52.33,1,.73,1.41,1.18.49.56.87,1.2,1.13,1.9.25.75.52,1.51.8,2.31l1.8,5.3c1.25,3.77,2.35,7.18,3.11,9.67.48,1.32.84,2.68,1.08,4.07-.64-1.26-1.17-2.57-1.58-3.91-.89-2.45-2.07-5.83-3.32-9.59-.61-1.87-1.2-3.66-1.75-5.31-.25-.82-.49-1.59-.73-2.32-.21-.65-.53-1.25-.94-1.79-.36-.44-.76-.84-1.21-1.18l-1.01-.86c-.61-.48-.89-.76-.86-.8Z"/>
    <path class="cls-4" d="M380.02,652.66c-.21-.45-.37-.92-.46-1.41l-1.06-3.77c-.9-3.18-2.1-7.59-3.63-12.39s-3.14-9.08-5.07-11.73c-.72-1.06-1.63-1.97-2.69-2.69-.77-.48-1.27-.62-1.25-.7.13,0,.26.02.38.07.35.09.69.22,1.01.38,1.17.65,2.18,1.55,2.97,2.63,2.1,2.68,3.79,7.04,5.34,11.82s2.68,9.27,3.44,12.49c.38,1.61.66,2.92.84,3.83.14.48.2.98.18,1.48Z"/>
    <path class="cls-4" d="M388.52,654.66c-.25-.47-.45-.96-.58-1.48-.35-1.13-.79-2.49-1.31-4.11-1.07-3.48-2.49-8.29-4.03-13.62s-2.82-10-3.87-13.66c-.36-1.36-1.15-2.56-2.25-3.44-.45-.29-.92-.53-1.41-.73.14-.03.28-.03.42,0,.4.09.77.25,1.11.46,1.23.84,2.14,2.08,2.58,3.51,1.15,3.48,2.52,8.29,4.08,13.62s2.89,10.18,3.83,13.69c.42,1.63.79,3.03,1.07,4.22.17.5.29,1.01.35,1.54Z"/>
  </g>
  <g id="freepik--speech-bubble--inject-2">
    <path class="cls-5" d="M588.64,349.28c0,2.72,2.21,4.93,4.93,4.93s4.93-2.21,4.93-4.93-2.21-4.93-4.93-4.93-4.93,2.21-4.93,4.93Z"/>
    <circle class="cls-5" cx="573.83" cy="349.28" r="4.93"/>
    <path class="cls-5" d="M549.23,346.81c-1.36,2.36-.56,5.37,1.8,6.73s5.37.56,6.73-1.8c1.36-2.36.56-5.37-1.8-6.73,0,0,0,0,0,0-2.35-1.36-5.36-.57-6.72,1.78,0,0,0,.01-.01.02Z"/>
    <path class="cls-5" d="M573.53,291.69c-.33-.02-.66-.02-.99,0l-2.93.08c-.65,0-1.41,0-2.17.1l-2.58.37-3.01.44-3.38.83c-5.79,1.44-11.3,3.82-16.32,7.04-15.04,9.58-24.81,25.57-26.48,43.32-.22,2.63-.27,5.27-.15,7.9.1,1.32.07,2.69.27,4.03s.41,2.7.61,4.07c1.03,5.6,2.88,11.01,5.49,16.07,2.78,5.3,6.31,10.17,10.49,14.45,4.45,4.38,9.55,8.04,15.12,10.86,5.76,2.95,12.01,4.86,18.43,5.63,1.63.24,3.27.38,4.91.41,1.65.12,3.31.16,4.97.1,3.34-.14,6.67-.56,9.94-1.25,7.07-1.53,13.78-4.36,19.81-8.35l-.59.07,20.18,8.1,1.2.48-.34-1.24-5.94-21.57-.1.52c5.48-7.25,9.17-15.7,10.77-24.64.77-4.18,1.04-8.43.79-12.67-.05-2.03-.24-4.06-.58-6.07-.15-1-.31-1.98-.46-2.96-.17-.97-.46-1.92-.7-2.82-3.38-13.27-11.37-24.9-22.53-32.83-4.12-2.95-8.63-5.32-13.39-7.04l-3.03-1.08-2.82-.73-2.62-.65c-.84-.15-1.66-.24-2.42-.37-1.52-.18-2.82-.45-4.04-.51l-2.96-.1h-1.82c-.21-.02-.41-.02-.62,0,.2.06.41.09.62.08l1.8.15,2.94.2c1.17.08,2.49.38,4.01.61,22.38,3.89,40.37,20.6,45.88,42.64.21.93.51,1.86.68,2.82s.28,1.92.44,2.9c.32,1.97.5,3.96.54,5.96.22,4.14-.05,8.3-.82,12.38-1.64,8.75-5.3,17-10.69,24.08l-.18.24.08.3c1.88,6.97,3.84,14.16,5.89,21.59l.86-.76-20.18-8.13-.31-.13-.3.18c-8.66,5.73-18.72,8.98-29.09,9.38-1.62.06-3.24.03-4.86-.08-1.61-.03-3.21-.17-4.8-.41-6.29-.76-12.39-2.62-18.03-5.51-5.45-2.76-10.45-6.33-14.81-10.6-4.1-4.17-7.57-8.92-10.31-14.08-2.54-4.96-4.35-10.27-5.35-15.76-.21-1.41-.42-2.66-.62-3.99s-.17-2.65-.27-3.96c-.13-2.58-.09-5.17.11-7.75,1.55-17.47,11.06-33.26,25.79-42.8,4.93-3.26,10.36-5.71,16.07-7.24l3.32-.89,2.99-.49,2.56-.42c.79-.08,1.51-.11,2.14-.15l2.92-.21c.32,0,.64-.05.96-.13Z"/>
  </g>
</svg>