<?xml version="1.0" encoding="UTF-8"?>
<svg id="Layer_2" data-name="Layer 2" xmlns="http://www.w3.org/2000/svg" viewBox="0 0 1000 1000">
  <defs>
    <style>
      .cls-1 {
        fill: #000;
      }

      .cls-1, .cls-2, .cls-3, .cls-4, .cls-5, .cls-6, .cls-7, .cls-8, .cls-9, .cls-10, .cls-11, .cls-12 {
        stroke-width: 0px;
      }

      .cls-2 {
        fill: #e0e0e0;
      }

      .cls-13 {
        opacity: .2;
      }

      .cls-3 {
        fill: #eb996e;
      }

      .cls-4 {
        fill: #455a64;
      }

      .cls-5 {
        fill: #f5f5f5;
      }

      .cls-6 {
        fill: #09f;
      }

      .cls-7 {
        fill: #ffbe9d;
      }

      .cls-8 {
        fill: #ebebeb;
      }

      .cls-9 {
        fill: none;
      }

      .cls-10 {
        fill: #263238;
      }

      .cls-11 {
        fill: #fafafa;
      }

      .cls-14 {
        opacity: .3;
      }

      .cls-15 {
        opacity: .6;
      }

      .cls-12 {
        fill: #fff;
      }
    </style>
  </defs>
  <g id="freepik--background-complete--inject-2">
    <path class="cls-8" d="M905.11,681.23l-82.31-31.34c-5.69-2.17-8.55-8.53-6.39-14.23l43.39-113.91c2.17-5.69,8.53-8.55,14.23-6.39l52.27,19.88,24.55,57.04-31.46,82.59c-2.15,5.68-8.49,8.55-14.18,6.41-.03-.01-.06-.02-.09-.03Z"/>
    <path class="cls-2" d="M926.3,535.24l-12.22,32.07c-2,5.3.68,11.22,5.99,13.22,0,0,.02,0,.02,0l30.84,11.74-24.63-57.04Z"/>
    <path class="cls-12" d="M907.62,563.37c-.16.4-8.82-2.51-19.32-6.51-10.5-4.01-18.92-7.58-18.76-8.02s8.8,2.51,19.32,6.51c10.52,4.01,18.92,7.6,18.76,8.02Z"/>
    <path class="cls-12" d="M925.31,590.87c-.16.4-14.33-4.61-31.62-11.2-17.3-6.59-31.22-12.26-31.06-12.67s14.31,4.59,31.62,11.18c17.32,6.59,31.2,12.26,31.06,12.69Z"/>
    <path class="cls-12" d="M925.17,608.14c-.14.42-15.57-5.07-34.43-12.26-18.86-7.19-34.07-13.33-33.87-13.75s15.57,5.07,34.43,12.26c18.86,7.19,34.03,13.35,33.87,13.75Z"/>
    <path class="cls-12" d="M919.74,622.51c-.16.42-15.57-5.07-34.43-12.26-18.86-7.19-34.07-13.35-33.89-13.75s15.57,5.07,34.45,12.26c18.88,7.19,34.03,13.25,33.87,13.75Z"/>
    <path class="cls-12" d="M914.27,636.72c-.16.4-15.59-5.09-34.45-12.26-18.86-7.17-34.07-13.35-33.87-13.77s15.57,5.09,34.43,12.26c18.86,7.17,34.07,13.35,33.89,13.77Z"/>
    <path class="cls-12" d="M908.86,650.99c-.16.42-15.57-5.07-34.43-12.24-18.86-7.17-34.07-13.35-33.89-13.77s15.57,5.07,34.45,12.26c18.88,7.19,34.03,13.33,33.87,13.75Z"/>
    <path class="cls-5" d="M515.46,315.69c-.24-2.53-.52-5.01-.86-7.48-.34-2.47-.74-5.23-1.18-7.84.44,2.61.84,5.21,1.18,7.84.34,2.63.52,4.95.86,7.48Z"/>
    <path class="cls-5" d="M495.3,346.67c-2.16-4.89-2.65-10.3-4.01-15.45-.49-2.86-2.17-5.37-4.63-6.91-1.83-.55-3.69-.97-5.57-1.26-6.53-2-8.3-11.06-14.49-13.89-1.99-.75-4.09-1.19-6.21-1.3-8.28-.98-16.85-3.85-22.04-10.34-1.49-2.26-3.2-4.37-5.11-6.29-2.12-1.7-5.41-2.44-7.48-.7,1.75,3.51,3.47,7,5.17,10.46,1.37,3.24,3.34,6.2,5.81,8.7,2.59,2.49,6.38,3.27,9.74,2,.97-.67,2.11-1.07,3.29-1.14.85.18,1.61.66,2.12,1.36,4.51,4.99,3.05,13.27-1.36,18.38-4.41,5.11-10.86,7.72-17.11,10.2-2.17,1.08-4.58,1.55-6.99,1.36-4.33-.8-6.63-5.53-7.9-9.76-2.83-9.36-4.19-19.52-10.02-27.42-2.11-2.29-3.88-4.87-5.27-7.66-1.2-3.15-.92-6.81-2.81-9.56-1.88-2.75-6.11-4.59-6.39-8.02.1-2.51,1.67-4.73,4.01-5.67,2.24-1.08,4.75-1.38,7.05-2.32.9-.4,2-1.06,2-2,0-1.48-2-2-2.57-3.43s1.02-2.99,1.68-4.47c1.44-3.43-2.12-6.89-5.59-8.3-3.47-1.4-7.58-2.4-9.18-5.75-.59-1.62-.96-3.3-1.12-5.01-.65-4.38-3.88-7.93-8.18-9-4.29-.7-9.04,3.11-8.36,7.37.42,2.32,2.18,4.15,3.13,6.31.94,2.16.68,5.39-1.54,6.01-3.67,1.12-7.19-5.59-10.28-3.27,1.26,4.29,2.49,8.58,3.75,12.93-4.83,2.44-10.58-2-12.65-7.03-2.06-5.03-2.14-10.72-4.59-15.55s-9.04-8.44-13.23-5.03c-.22,6.23,8.02,8.74,11.62,13.77,2.63,3.65,2.24,9.54-1.64,11.84s-10.02-1.7-8.48-6.01c.52-1.46,1.74-2.69,1.88-4.27.14-2-1.5-3.53-3.01-4.79l-7.01-5.89c-1.44-1.38-3.15-2.45-5.01-3.15-4.81-1.4-9.64,2.51-12.18,6.81-2.55,4.31-4.01,9.4-7.52,12.99-5.07,5.25-14.67,5.55-19.42,0-4.75-5.55-2.34-15.77,4.67-17.76,2.67-.72,6.01-.66,7.42-3.01,2.44-4.15-4.55-9.46-2.12-13.65,1.84-3.23,6.73-1.76,10.3-2.85s5.51-4.63,7.62-7.72,5.31-6.01,8.94-5.31c-.49-2.11-.36-4.32.38-6.35.9-2.02,3.27-2.93,5.29-2.03.02,0,.04.02.06.03-1.78,2.95.36,7.03,3.47,8.5,3.26,1.17,6.77,1.42,10.16.72,3.43-.4,7.72-1.66,8.02-5.09,0-1.12-.32-2.3,0-3.35,1.5-4.01,9.06,1.52,12.02-1.76,1.66-1.7-.18-4.75-2.53-5.31s-4.71.28-7.09.36-5.27-1.16-5.37-3.53,2.51-4.01,2.79-6.33c.46-4.01-6.17-4.91-8.52-1.74-2.34,3.17-1.5,7.56-.8,11.42.7,3.87,1.08,8.46-1.78,11.18-1.22,1.84-4.41.88-5.45-1.08-.8-2.08-1.14-4.31-1.02-6.53-.16-2.24-1.14-4.75-3.31-5.35-1.57-.13-3.15.04-4.65.52-6.01.74-10.3-7.11-8.4-12.93,1.9-5.81,7.42-9.56,12.77-12.53,4.01-2.16,8.76-4.21,12.65-2,1.8,1.02,3.07,2.77,4.85,3.81,3.09,1.82,6.89,1.16,10.42,1.22,5.61.19,10.97,2.32,15.19,6.01,1.56,1.42,3.05,3.81,1.82,5.51-1.22,1.7-5.15,2.2-4.49,4.33,4.03,1.13,8.21-1.21,9.34-5.24.07-.25.13-.51.17-.77,2.05.96,3.44,2.92,3.67,5.17,4.62-4.23,11.79-3.92,16.03.69.2.22.39.44.57.67.77,1.51,1.81,2.87,3.07,4.01,1.4.92,3.85.46,4.01-1.18.02-.53-.08-1.05-.28-1.54-.84-2.36-1.72-4.71-2.57-7.05,3.27-1.74,7.09.98,9.3,4.01,8.18,10.92,14.03,4.35,25.53,6.13,7.8,1.2,11.22,6.19,15.63,12.22,13.49,18.6,31.3,33.83,43.57,53.25,1.28,2,2.47,4.01,3.59,6.19-.2-.52-.38-1.06-.6-1.58-4.78-12.61-10.75-24.73-17.82-36.21-1.5-2.44-3.03-4.87-4.61-7.23-.98-1.48-2-2.97-3.01-4.41-1.28-1.88-2.65-3.71-4.01-5.51-1.08-1.48-2.16-2.91-3.29-4.31-.76-.98-1.56-2-2.38-2.93-.85-1.14-1.76-2.24-2.73-3.29l-2.89-3.39c-.28-.36-.6-.7-.94-1.06-1.02-1.18-2.1-2.32-3.19-3.49-.07-.14-.17-.26-.3-.34-.28-.32-.6-.64-.92-.94-.86-.98-1.8-2-2.73-2.87-1.5-1.54-3.03-3.09-4.61-4.55-1.28-1.28-2.61-2.51-4.01-3.73s-2.38-2.18-3.61-3.23-2.38-2-3.61-3.07-2.97-2.49-4.51-3.71h0c-4.23-3.39-8.6-6.59-13.07-9.6-1.12-.78-2.2-1.5-3.33-2.24s-2.26-1.46-3.39-2.16c-1.12-.7-2.26-1.44-3.43-2.1-1.16-.66-2.3-1.38-3.45-2s-1.86-1.08-2.81-1.56c-.46-.3-.93-.57-1.42-.8-2-1.12-4.01-2.2-6.01-3.21-1-.54-2-1.06-3.07-1.54s-2.63-1.3-4.01-1.88c-.19-.12-.39-.21-.6-.28-1.18-.56-2.36-1.12-3.59-1.64-1.72-.74-3.43-1.46-5.15-2.16s-3.91-1.6-5.89-2.34c-1.98-.74-4.41-1.64-6.65-2.38s-4.49-1.5-6.77-2.18-4.53-1.34-6.83-2c-4.56-1.22-9.16-2.3-13.81-3.25-6.97-1.42-.18,0-.24,0-1.78-.34-3.57-.68-5.35-.96-.11-.01-.23-.01-.34,0-.78-.14-1.58-.28-2.38-.38-3.31-.56-6.67-1.02-10.02-1.4l-1.22-.14c-.98-.14-2-.2-2.97-.3-2.24-.22-4.47-.4-6.75-.54-2.28-.14-4.71-.28-7.07-.34-2.36-.06-4.97-.14-7.46-.14-6.55,0-13.07.28-19.5.88-1.52,0-3.03.24-4.53.4l-4.71.56c-1.58.22-3.15.42-4.69.66l-4.69.78c-1.32.2-2.69.44-4.01.72-3.29.64-6.53,1.31-9.74,2-1.5.34-3.01.74-4.51,1.16-1.5.42-3.01.8-4.49,1.22-2.47.68-4.89,1.46-7.29,2.22h0c-2,.66-4.01,1.32-5.85,2h-.14c-2,.7-4.01,1.42-5.87,2.2h-.32c-1.78.7-3.57,1.44-5.31,2.16-2.2.9-4.37,1.88-6.49,2.87-1.82.84-3.61,1.68-5.35,2.55-1.74.86-3.77,1.88-5.63,2.87l-.2.12c-1.78.94-3.57,2-5.31,2.93-1.74.92-3.61,2-5.39,3.19h0c-1.68,1-3.33,2-4.97,3.07-.62.38-1.22.8-1.84,1.22-1.74,1.12-3.43,2.26-5.13,3.47-2,1.42-4.13,2.93-6.15,4.43-2.02,1.5-3.53,2.69-5.25,4.01-9.88,7.88-19.07,16.6-27.46,26.05-2.97,3.29-5.77,6.63-8.5,10.02-2.3,2.93-4.52,5.92-6.67,8.98-2,2.67-3.77,5.39-5.55,8.16,1.78-2.77,3.65-5.49,5.55-8.16l1.68-.18c3.17.08,6.32-.43,9.3-1.5,2.63-1.28,4.47-3.63,6.85-5.31,6.01-4.33,16.03-5.13,17.68-12.41.56-2.44-.12-5.09.8-7.44,1.7-4.37,7.54-4.99,12.22-4.93,2,0,4.33.28,5.23,2,.49,1.31.41,2.76-.2,4.01-2.92,8.21-8.58,15.17-16.03,19.7-6.01,3.71-14.03,6.57-15.69,13.49.84,2.34,5.11,2.16,5.45,4.61.24,2-2.26,2.97-3.19,4.71-1.32,2.57,1.72,5.67,4.61,5.53s5.31-2.24,7.46-4.19c6.35-6.01,13.03-12.26,15.33-20.66.98-3.45,1.32-7.52,4.13-9.82,3.08-2.17,7.33-1.43,9.5,1.64.37.52.66,1.09.87,1.68,2.77-1.54,7.07-2.69,8.5.18.32,1.07.52,2.17.6,3.29.9,4.47,7.01,6.49,7.66,11,.72,5.19-6.01,7.9-11.16,8.7l-14.15,2.22c-2.07.16-4.08.8-5.85,1.88-1.8,1.19-2.53,3.47-1.76,5.49.7.94,1.53,1.79,2.44,2.53,4.01,4.01.7,12.02-4.81,12.14-1.88,0-3.75-.62-5.63-.7-5.59-.24-10.02,4.69-12.69,9.62-2.67,4.93-4.63,10.54-9.12,13.91-7.19,5.41-19.6,4.15-23.09,12.47-1.4,3.35-.66,7.13,0,10.72s.8,7.56-1.3,10.52c-2.1,2.97-7.44,3.57-8.98.28-.52-1.5-.59-3.11-.2-4.65.84-5.17,1.64-10.34,2.44-15.51.6-3.85,1.12-8.14-1.16-11.28-3.17-4.41-10.3-4.01-14.43-.46-4.13,3.55-5.79,9.06-6.93,14.33-.79,4.78-2.14,9.44-4.01,13.91h0c-.74,4.33-1.34,8.74-1.78,13.17-.44,4.43-.78,9.06-.94,13.67.63-.53,1.22-1.09,1.78-1.68,2.2-2.26,6.63-11.88,10.62-7.15.99,1.29.99,3.08,0,4.37-1.22,1.56-3.67,2-4.61,3.63-1.14,2,.46,4.53,2.34,5.87s4.19,2.18,5.51,4.11c2.57,3.67.12,9.24,2.59,12.97,2.14,3.23,6.67,3.43,10.56,3.85l1.32.2c1.08-7.68,4.69-13.93,15.17-16.31,14.45-3.29,33.47,8.7,41.6,19.6,9.08,12.2,13.37,29.46,27.28,35.57,10.02,4.37,24.05,2.79,28.96,12.55,4.35,8.74-3.21,18.54-4.37,28.22-.72,6.39,1.36,12.77,1.86,19.16.5,6.39-1.44,13.89-7.27,16.59-3.25,1.46-7.33,1.28-10.02,3.73-4.63,4.41-.82,13.49-5.47,17.9-1.85,1.31-3.87,2.35-6.01,3.11-10.44,5.27-10.16,20.64-5.31,31.3.18.38.36.72.52,1.12,66.31,39.69,148.55,41.82,216.82,5.61h0c6.7-3.59,13.22-7.51,19.52-11.76,9.71-6.52,18.89-13.81,27.44-21.8,5.91-5.51,11.5-11.35,16.75-17.5,3.71-4.27,7.21-8.7,10.56-13.25,1.7-2.34,3.39-4.69,4.95-7.09,4.84-7.07,9.24-14.44,13.19-22.04,5.76-11.05,10.54-22.57,14.29-34.45,3.91-12.2,6.73-24.72,8.42-37.42.66-4.95,1.18-10.02,1.52-15.05-2.3,2.46-5.49,3.9-8.86,4.01-5.19-.16-9.58-4.57-11.7-9.46Z"/>
    <path class="cls-5" d="M103.8,395.57c-.68-6.31,1.4-12.65,1.5-19.04,0-4.39-.24-9.04-.3-13.49-3.78-.16-7.54-.68-11.22-1.56-.77-.11-1.47-.48-2-1.04-.38-.72-.54-1.54-.44-2.34-.28-4.97-5.07-8.24-9.36-10.72-2.15-1.35-4.43-2.48-6.81-3.37v1.54c.83,23.96,5.57,47.61,14.03,70.04,3.74,9.97,8.22,19.65,13.43,28.94,2.16,4.01,4.55,8.02,7.01,11.84,3.09,4.79,6.29,9.46,9.76,14.03,3.47,4.57,6.63,8.56,10.24,12.61,4.92,5.62,10.13,10.97,15.61,16.03,4.85,4.55,9.92,8.84,15.19,12.93-12.02-32.35-23.41-65.35-44.09-92.89-5.31-7.21-11.52-14.55-12.55-23.51Z"/>
    <path class="cls-5" d="M75.07,333.57v7.23-3.23c0-1.08-.02-2.67,0-4.01Z"/>
    <g class="cls-15">
      <path class="cls-5" d="M172.76,520.91c1.84,1.24,3.73,2.47,5.63,3.67l4.01,2.44-4.01-2.44c-1.82-1.2-3.63-2.42-5.63-3.67Z"/>
    </g>
    <path class="cls-8" d="M359.8,507.06c-1.38,0-2.76-.14-4.11-.44-4.24-.76-7.86-3.5-9.74-7.37-1.19-3.06-1.77-6.33-1.7-9.62-.03-2.21-.27-4.41-.7-6.57-1.11-3.78-2.86-7.35-5.17-10.54-5.24-7.19-7.7-16.03-6.91-24.89v-1.36c-1.16-38.82-12.02-70.34-31.3-91.15-2.47-3.08-5.76-5.4-9.48-6.71-4.53-1.12-9.3.53-12.16,4.21-.68.95-1.29,1.95-1.82,2.99-.8,1.68-1.88,3.22-3.19,4.55-2.14,1.83-5.01,2.57-7.78,2-4.06-.7-7.61-3.15-9.7-6.69-3.43-6.01-2.81-13.47-2.3-19.46l2-24.05c.32-3.73.74-8.82,3.75-12.31,2.5-2.44,5.58-4.21,8.96-5.13,2.44-.77,4.77-1.88,6.89-3.31,3.87-2.91,5.59-7.48,7.42-12.31.93-2.77,2.1-5.45,3.51-8.02,2.98-4.67,8.31-7.28,13.83-6.79,2.15.2,4.06,1.47,5.07,3.39,1.72-3.88,4.98-6.87,9-8.24,8.02-2.3,17.72,4.01,27.12,10.12,8.6,5.59,16.69,10.84,23.07,9.68,1.62-.31,3.23-.71,4.81-1.18,3.32-1.19,6.85-1.67,10.36-1.42,9.28,1.3,14.03,11.36,17.09,20.04l15.09,42.09c1.88,5.25,4.31,11,9.3,12.95,2.03.66,4.16.97,6.29.92,2.23-.04,4.45.28,6.57.94,3.72,1.31,6.39,4.59,6.93,8.5,1.28,6.97-2.2,16.03-8.12,21.2h0c-2.83,2.34-5.79,4.51-8.86,6.51-6.81,4.65-13.27,9.04-16.03,16.25-1.28,3.98-1.91,8.14-1.86,12.33.08,4.52-.64,9.02-2.14,13.29-1.69,3.5-3.9,6.72-6.55,9.56-1.57,1.77-3.04,3.64-4.39,5.59-4.83,7.27-6.17,16.31-7.48,25.03-.16,1.12-.32,2.24-.5,3.35-1.5,9.74-4.11,20.58-12.02,27.36-3.66,3.05-8.27,4.72-13.03,4.73Z"/>
    <g class="cls-15">
      <path class="cls-5" d="M75.21,328.35h0v5.23-4.01c-.08-.42-.04-.8,0-1.22Z"/>
    </g>
    <g class="cls-15">
      <path class="cls-5" d="M75.05,340.78v3.23h0c.02-1.06.02-2.06,0-3.23Z"/>
    </g>
    <path class="cls-8" d="M105.39,354.49l-1.32-.2c-3.89-.42-8.42-.62-10.56-3.85-2.47-3.73,0-9.3-2.59-12.97-1.32-2-3.63-2.75-5.51-4.11-1.88-1.36-3.51-3.85-2.34-5.87.94-1.72,3.39-2,4.61-3.63.99-1.29.99-3.08,0-4.37-4.01-4.73-8.42,4.89-10.62,7.15-.56.59-1.16,1.16-1.78,1.68h0v15.69c2.38.88,4.65,2.01,6.79,3.37,4.31,2.47,9.1,5.75,9.38,10.72-.09.81.06,1.63.44,2.34.53.56,1.24.93,2,1.04,3.68.88,7.44,1.4,11.22,1.56"/>
    <path class="cls-8" d="M105.01,363.05c0,4.45.38,9.1.3,13.49-.1,6.39-2.18,12.73-1.48,19.04,1,8.96,7.21,16.29,12.65,23.49,20.6,27.54,32.07,60.54,44.09,92.89h0c2.22,1.78,4.51,3.47,6.81,5.11,1.8,1.3,3.65,2.59,5.51,3.85s3.73,2.47,5.63,3.67l4.01,2.44c-.16-.4-.34-.74-.52-1.12-4.85-10.66-5.13-26.05,5.31-31.3,2.14-.75,4.16-1.8,6.01-3.11,4.65-4.41.84-13.49,5.47-17.9,2.63-2.44,6.71-2.26,10.02-3.73,5.83-2.71,7.74-10.18,7.27-16.59s-2.59-12.77-1.86-19.16c1.16-9.68,8.72-19.48,4.37-28.22-4.85-9.76-19-8.18-28.96-12.55-14.11-6.11-18.4-23.35-27.48-35.57-8.14-10.9-27.16-22.89-41.6-19.6-10.48,2.38-14.03,8.64-15.17,16.31"/>
    <path class="cls-8" d="M88.85,273.26c4.13-3.53,11.26-4.01,14.43.46,2.28,3.15,1.76,7.44,1.16,11.28-.8,5.17-1.6,10.34-2.44,15.51-.39,1.54-.32,3.15.2,4.65,1.54,3.29,6.91,2.65,8.98-.28,2.06-2.93,1.86-6.95,1.3-10.52-.56-3.57-1.3-7.37,0-10.72,3.49-8.32,15.89-7.05,23.09-12.47,4.49-3.37,6.47-8.98,9.12-13.91,2.65-4.93,7.09-9.86,12.69-9.62,1.88,0,3.75.78,5.63.7,5.51-.16,8.74-8.24,4.81-12.14-.88-.73-1.67-1.56-2.34-2.49-.77-2.02-.04-4.3,1.76-5.49,1.77-1.08,3.78-1.73,5.85-1.88l14.15-2.22c5.21-.8,11.88-3.51,11.16-8.7-.64-4.51-6.75-6.53-7.66-11-.08-1.11-.28-2.22-.6-3.29-1.42-2.87-5.73-1.72-8.5-.18-1.25-3.55-5.14-5.42-8.69-4.17-.6.21-1.16.5-1.67.86-2.81,2.3-3.15,6.37-4.13,9.82-2.3,8.4-8.98,14.75-15.33,20.66-2.14,2-4.55,4.01-7.46,4.19s-6.01-2.97-4.61-5.53c.92-1.74,3.43-2.75,3.19-4.71-.34-2.44-4.61-2.26-5.45-4.61,1.68-6.91,9.6-9.78,15.69-13.49,7.45-4.53,13.11-11.49,16.03-19.7.62-1.25.69-2.7.2-4.01-.9-1.74-3.25-2-5.23-2-4.69,0-10.52.56-12.22,4.93-.92,2.34-.24,4.99-.8,7.44-1.64,7.27-11.6,8.02-17.68,12.41-2.38,1.68-4.23,4.01-6.85,5.31-2.98,1.07-6.13,1.58-9.3,1.5l-1.68.18c-2,2.67-3.77,5.39-5.55,8.16-1.78,2.77-3.47,5.51-5.17,8.3-7.88,13.51-14.3,27.82-19.14,42.69-1.7,5.23-3.23,10.54-4.53,15.93-1.3,5.39-2.42,10.86-3.33,16.39,1.87-4.47,3.21-9.13,4.01-13.91,1.12-5.27,2.83-10.8,6.91-14.33Z"/>
    <path class="cls-8" d="M274.05,170.87c2-2.75,1.46-6.67,2.83-9.84,2.24-5.25,9.24-7.13,11.66-12.33.92-2,1.16-4.43,2.79-5.89s3.37-1.5,4.81-2.61c3.27-2.51,1.9-8.18-1.54-10.38-8.66-5.53-24.59.86-32.07,6.29-9.62,6.95-19.02,15.33-31.82,14.51-3.53-.22-7.19-1.18-10.5,0-3.31,1.18-5.35,6.21-2.51,8.3,1.58,1.18,3.83.84,5.63,1.68,3.29,1.52,3.63,6.29,2,9.56s-4.47,5.75-6.47,8.86c-1.83,3-2.66,6.51-2.36,10.02.07,2.49,1.15,4.84,2.99,6.51,4.01,3.17,10.02.44,13.41-3.37s5.71-8.76,10.02-11.38c2.25-1.19,4.67-2.03,7.17-2.49l16.69-4.01c2.74-.29,5.31-1.51,7.27-3.45Z"/>
    <g class="cls-15">
      <path class="cls-5" d="M516.38,334.51c0-3.17-.12-6.33-.3-9.46.18,3.13.28,6.29.3,9.46v3.05c0,4.89-.18,9.7-.46,14.53.28-4.83.46-9.64.46-14.53.06-1.02.06-2.02,0-3.05Z"/>
    </g>
    <g class="cls-15">
      <path class="cls-5" d="M502.57,260.46c1.04,2.79,2,5.59,2.97,8.44-.92-2.85-2-5.65-2.97-8.44h0Z"/>
    </g>
    <path class="cls-8" d="M516.38,334.51c0-3.17-.12-6.33-.3-9.46s-.4-6.25-.72-9.36c-.24-2.53-.52-5.01-.86-7.48-.34-2.47-.74-5.23-1.18-7.84-1.29-7.73-3.01-15.38-5.15-22.93-.82-2.87-1.7-5.73-2.63-8.56-.92-2.83-2-5.65-2.97-8.44h0c-1.12-2-2.3-4.17-3.59-6.19-12.26-19.42-30.06-34.65-43.57-53.25-4.41-6.01-7.84-11.02-15.63-12.22-11.52-1.78-17.36,4.79-25.53-6.13-2.2-2.95-6.01-5.67-9.3-4.01.84,2.34,1.72,4.69,2.57,7.05.2.49.3,1.01.28,1.54-.18,1.64-2.63,2-4.01,1.18-1.25-1.14-2.29-2.5-3.07-4.01-3.86-4.93-10.99-5.79-15.92-1.93-.23.18-.45.37-.67.57-.23-2.25-1.62-4.21-3.67-5.17-.71,4.12-4.62,6.89-8.75,6.19-.26-.04-.52-.1-.77-.17-.66-2.12,3.15-2.51,4.49-4.33s-.26-4.01-1.82-5.51c-4.22-3.7-9.59-5.82-15.19-6.01-3.53,0-7.33.6-10.42-1.22-1.78-1.04-3.05-2.79-4.85-3.81-3.89-2.2-8.74-.16-12.65,2-5.35,2.97-10.86,6.69-12.77,12.53-1.9,5.83,2.32,13.67,8.4,12.93,1.5-.48,3.08-.65,4.65-.52,2.16.6,3.15,3.11,3.31,5.35-.12,2.23.23,4.45,1.02,6.53,1.04,2,4.23,2.93,5.45,1.08,2.87-2.73,2.51-7.29,1.78-11.18-.72-3.89-1.5-8.24.8-11.42s8.98-2.16,8.52,1.74c-.28,2.3-2.89,4.01-2.79,6.33s3.01,3.63,5.37,3.53,4.79-.94,7.09-.36,4.19,3.61,2.53,5.31c-2.91,3.29-10.46-2.32-12.02,1.76-.42,1.04,0,2.22,0,3.35-.28,3.43-4.57,4.69-8.02,5.09-3.39.7-6.91.45-10.16-.72-3.11-1.46-5.25-5.55-3.47-8.5-2.01-.93-4.39-.06-5.32,1.95,0,.02-.02.04-.03.06-.74,2.04-.87,4.24-.38,6.35-3.63-.8-6.87,2.26-8.94,5.31-2.06,3.05-4.01,6.63-7.62,7.72-3.61,1.08-8.46-.38-10.3,2.85-2.42,4.19,4.57,9.5,2.12,13.65-1.4,2.34-4.75,2.28-7.42,3.01-7.01,2-9.46,12.26-4.67,17.76,4.79,5.49,14.35,5.17,19.42,0,3.53-3.59,4.97-8.66,7.52-12.99,2.55-4.33,7.37-8.22,12.18-6.81,1.86.7,3.57,1.77,5.01,3.15l7.01,5.89c1.5,1.26,3.15,2.83,3.01,4.79-.14,1.58-1.36,2.81-1.88,4.27-1.46,4.23,4.65,8.24,8.48,6.01,3.83-2.22,4.27-8.2,1.64-11.84-3.63-5.03-11.84-7.54-11.62-13.77,4.19-3.41,10.78.18,13.23,5.03s2.53,10.56,4.59,15.55c2.06,4.99,7.82,9.48,12.65,7.03-1.26-4.35-2.49-8.64-3.75-12.93,3.09-2.32,6.61,4.39,10.28,3.27,2.22-.68,2.51-4.01,1.54-6.01-.96-2-2.71-4.01-3.13-6.31-.68-4.27,4.01-8.02,8.36-7.37,4.3,1.06,7.53,4.62,8.18,9,.16,1.71.53,3.4,1.12,5.01,1.6,3.35,5.75,4.37,9.18,5.75,3.43,1.38,7.03,4.87,5.59,8.3-.66,1.48-2.22,2.93-1.68,4.47.54,1.54,2.57,2,2.57,3.43,0,.96-1.06,1.62-2,2-2.3.94-4.81,1.24-7.05,2.32-2.34.94-3.9,3.16-4.01,5.67.28,3.49,4.43,5.17,6.39,8.02,1.96,2.85,1.6,6.41,2.81,9.56,1.39,2.78,3.17,5.36,5.27,7.66,5.79,7.9,7.15,18.04,10.02,27.42,1.26,4.23,3.57,8.96,7.9,9.76,2.41.18,4.83-.29,6.99-1.36,6.25-2.49,12.75-5.13,17.11-10.2,4.37-5.07,5.87-13.39,1.36-18.38-.52-.7-1.27-1.19-2.12-1.36-1.18.07-2.32.47-3.29,1.14-3.36,1.27-7.15.49-9.74-2-2.47-2.5-4.45-5.45-5.81-8.7-1.71-3.46-3.43-6.95-5.17-10.46,2-1.74,5.35-1,7.48.7,1.91,1.92,3.62,4.03,5.11,6.29,5.19,6.49,13.77,9.36,22.04,10.34,2.13.11,4.22.55,6.21,1.3,6.19,2.83,8.02,12.02,14.49,13.89,1.88.3,3.74.72,5.57,1.26,2.46,1.54,4.14,4.06,4.63,6.91,1.44,5.15,2,10.56,4.01,15.45s6.51,9.32,11.82,9.4c3.37-.11,6.55-1.55,8.86-4.01h0c.28-4.83.46-9.64.46-14.53-.04-.96-.04-1.96-.1-2.99Z"/>
    <path class="cls-8" d="M427.02,426.11c-3.29.64-4.01,2.57-5.73,5.01-2.32,3.17-5.65,6.35-7.78,9.48-3.59,5.31-.36,13.57-5.09,18.04-.96.92-2.2,1.5-3.07,2.51-1.77,2.46-1.27,5.88,1.14,7.72,2.47,1.66,5.68,1.73,8.22.16,2.46-1.61,4.26-4.06,5.05-6.89.32-2.08,1.2-4.04,2.55-5.65,2.71-2.36,6.91-.6,10.46-1.1,15.15-2.08,8.64-32.07-5.75-29.26Z"/>
    <path class="cls-8" d="M422.63,876.83l-78.84,24.65c-5.45,1.7-11.25-1.34-12.95-6.79l-34.07-109.12c-1.7-5.45,1.34-11.25,6.79-12.95l49.98-15.63,51.12,27.86,24.73,79.1c1.66,5.43-1.36,11.18-6.77,12.89Z"/>
    <path class="cls-2" d="M321.67,865.47l98.57-30.81h0l8.97,28.69c1.8,5.77-1.41,11.91-7.18,13.71l-77.91,24.36c-5.63,1.76-11.62-1.38-13.38-7.01l-9.05-28.94h-.02Z"/>
    <path class="cls-12" d="M363.83,864.48l4.99,15.93-3.55,1.12-2-6.55-6.93,2.18,2,6.53-3.53,1.1-4.97-15.93,3.53-1.1,2,6.27,6.93-2.16-2-6.29,3.53-1.1Z"/>
    <path class="cls-12" d="M379.58,876.41c-.65.8-1.53,1.37-2.53,1.64-2.08.93-4.52,0-5.46-2.08-.14-.3-.24-.62-.29-.95l-1.58-5.03-1.8.56-.86-2.73,1.82-.56-.94-2.99,3.41-1.06.92,2.99,2.93-.92.86,2.73-2.89,1,1.56,4.99c.1.79.82,1.35,1.61,1.25.13-.02.27-.05.39-.11.5-.13.94-.45,1.22-.88l1.62,2.14Z"/>
    <path class="cls-12" d="M399.33,863.18l2.18,7.01-3.39,1.06-2-6.45c-.62-2-1.76-2.63-3.13-2.2-1.36.42-2.28,1.84-1.6,4.01l2,6.15-3.41,1.06-2-6.47c-.62-2-1.72-2.65-3.13-2.2s-2.26,1.84-1.58,4.01l2,6.13-3.41,1.06-3.83-12.24,3.25-1,.44,1.4c.6-1.35,1.77-2.35,3.19-2.75,1.53-.56,3.24-.25,4.49.8.61-1.62,1.95-2.85,3.61-3.33,2.61-.84,5.15.22,6.31,3.95Z"/>
    <path class="cls-12" d="M399.22,852.36l3.41-1.06,5.27,16.87-3.41,1.06-5.27-16.87Z"/>
    <path class="cls-12" d="M347.94,810.39l-11.36,9.66,14.83,1.4,1.76,5.69-21.3-2.38-1.84-5.91,16.15-14.03,1.76,5.57Z"/>
    <path class="cls-12" d="M356.78,789.15l5.45-1.7.42,46.94-5.47,1.7-.4-46.94Z"/>
    <path class="cls-12" d="M387.76,800.87l1.84,6.01-16.15,14.03-1.78-5.69,11.38-9.6-14.83-1.46-1.76-5.63,21.3,2.34Z"/>
    <g class="cls-14">
      <path class="cls-12" d="M353.49,756.99l9.62,30.72c1.58,5.06,6.97,7.87,12.02,6.29l29.54-9.22-51.18-27.8Z"/>
    </g>
    <path class="cls-2" d="M364.35,790.27c1.53,4.78,6.19,7.84,11.18,7.35.35.02.7.02,1.04,0,4.01-.52,30.86-4.01,30.68-4.51l-2.59-8.28-29.5,9.18s-7.48,2.04-10.82-3.75Z"/>
  </g>
  <g id="freepik--Floor--inject-2">
    <path class="cls-10" d="M912.15,945.03c0,.28-184.8.52-412.7.52s-412.74-.24-412.74-.52,184.76-.52,412.84-.52,412.6.24,412.6.52Z"/>
  </g>
  <g id="freepik--Window--inject-2">
    <rect class="cls-12" x="190.54" y="249.03" width="598.6" height="449.79"/>
    <path class="cls-10" d="M789.14,698.83v-8.26c0-5.41,0-13.43-.1-23.91,0-20.92-.12-51.66-.22-90.9-.1-78.36-.26-190.71-.44-326.66l.86.86-598.54.18h0l1.04-1.04v449.79l-.94-.94,432.04.46,122.71.26,32.57.12h10.54-10.38l-32.39.12-122.49.26-432.66.46h-1.14v-.94c0-134.93,0-288.07-.1-449.79v-1.04h1.1l598.54.2h.88v.84c-.18,136.28-.32,248.79-.44,327.27-.1,39.16-.16,69.82-.22,90.7v29.76c0,1.32-.22,2.2-.22,2.2Z"/>
    <path class="cls-10" d="M786.13,304.13c-.5.06-1,.1-1.5.1h-4.45l-17.07.18c-14.81.12-36.27.18-62.77.16-53.03,0-126.26-.38-207.14-1.04l-207.14-1.66-62.79-.5-17.05-.2-4.45-.12c-.5.06-1,.06-1.5,0,.5-.09,1-.12,1.5-.1h4.45l17.05-.18c14.83-.12,36.27-.18,62.79-.18,53.01,0,126.26.4,207.16,1.06l207.12,1.66,62.79.48,17.05.22h4.45c.5-.01,1.01.03,1.5.12Z"/>
    <path class="cls-10" d="M229.64,271.8c.01,3.9-3.14,7.06-7.03,7.07-3.9.01-7.06-3.14-7.07-7.03-.01-3.9,3.14-7.06,7.03-7.07.01,0,.03,0,.04,0,3.88.01,7.02,3.15,7.03,7.03Z"/>
    <path class="cls-10" d="M257.84,271.8c.01,3.9-3.14,7.06-7.03,7.07-3.9.01-7.06-3.14-7.07-7.03-.01-3.9,3.14-7.06,7.03-7.07,0,0,.01,0,.02,0,3.89,0,7.04,3.15,7.05,7.03Z"/>
    <circle class="cls-10" cx="278.98" cy="271.88" r="7.05"/>
    <rect class="cls-8" x="211.87" y="594.98" width="106.13" height="83.32"/>
    <rect class="cls-8" x="322.39" y="594.98" width="106.13" height="83.32"/>
    <rect class="cls-8" x="436.65" y="594.98" width="106.13" height="83.32"/>
    <rect class="cls-8" x="211.87" y="505.4" width="106.13" height="83.32"/>
    <rect class="cls-8" x="322.39" y="505.4" width="106.13" height="83.32"/>
    <rect class="cls-8" x="436.65" y="505.4" width="106.13" height="83.32"/>
    <rect class="cls-8" x="211.87" y="413.1" width="106.13" height="83.32"/>
    <rect class="cls-8" x="322.39" y="413.1" width="106.13" height="83.32"/>
    <rect class="cls-8" x="436.65" y="413.1" width="106.13" height="83.32"/>
    <rect class="cls-8" x="211.87" y="319" width="106.13" height="83.32"/>
    <rect class="cls-8" x="322.39" y="319" width="106.13" height="83.32"/>
    <rect class="cls-8" x="436.65" y="319" width="106.13" height="83.32"/>
    <rect class="cls-8" x="553.12" y="594.98" width="106.13" height="83.32"/>
    <rect class="cls-8" x="553.12" y="505.4" width="106.13" height="83.32"/>
    <rect class="cls-8" x="553.12" y="413.1" width="106.13" height="83.32"/>
    <rect class="cls-8" x="553.12" y="319" width="106.13" height="83.32"/>
    <rect class="cls-8" x="667.87" y="594.98" width="106.13" height="83.32"/>
    <rect class="cls-8" x="667.87" y="505.4" width="106.13" height="83.32"/>
    <rect class="cls-8" x="667.87" y="413.1" width="106.13" height="83.32"/>
    <rect class="cls-8" x="667.87" y="319" width="106.13" height="83.32"/>
  </g>
  <g id="freepik--Rocket--inject-2">
    <path class="cls-5" d="M921.91,345.77c-3.75-69.42-76.3-104.35-113.41-108.86l-29.7,34.89c23.91-3.59,83.37,29.6,86.28,53.61,2.91,24.01-15.39,54.69-39.48,56.9-18.92,1.74-50.46-15.05-62.47-.34-30.34-27.01-82.17-24.79-110.06,4.73-39.43-14.11-82.84,6.41-96.95,45.84-1.99,5.55-3.32,11.31-3.97,17.17l111.73,64.85s46.55,41.72,78.3,16.03c10.84-8.78,14.97-21.38,16.03-33.55,2.12.27,4.27.13,6.33-.4,8.02-2.16,14.03-9.38,16.67-17.3.34-1.02.6-2,.84-3.11,27.14,6.01,64.13-.8,85.95-14.43,31.66-19.66,55.91-78.7,53.91-116.04Z"/>
    <path class="cls-10" d="M771.02,395.47s-.16-.16-.42-.54l-1.1-1.64c-.48-.74-1.08-1.64-1.86-2.65s-1.62-2.22-2.73-3.45c-6.03-7.18-13.4-13.12-21.7-17.48-5.68-3.01-11.75-5.22-18.04-6.55-7.24-1.58-14.69-1.92-22.04-1-16.96,2.12-32.6,10.25-44.09,22.91-1.66,1.8-3.13,3.77-4.51,5.57l-.26.36-.38-.2c-17.95-8.78-38.79-9.51-57.32-2-3.11,1.34-6.14,2.86-9.08,4.55-5.3,3-10.21,6.64-14.61,10.84-6.41,6.03-11.4,13.42-14.59,21.62-.6,1.44-1,2.75-1.36,3.89-.32.95-.6,1.92-.82,2.91l-.48,1.8c-.03.21-.1.41-.2.6,0,0,0-.22.1-.62l.38-1.82c.18-1,.43-1.98.74-2.95.32-1.16.7-2.49,1.26-4.01,3.09-8.35,8.04-15.89,14.47-22.04,4.41-4.28,9.35-7.99,14.69-11.04,2.95-1.74,6.01-3.29,9.16-4.65,3.37-1.4,6.85-2.53,10.4-3.39,16.03-3.86,32.9-2.02,47.72,5.21l-.66.16c11.73-16.05,29.6-26.49,49.34-28.82,7.45-.92,15-.55,22.33,1.08,6.38,1.39,12.53,3.67,18.28,6.77,8.35,4.44,15.71,10.51,21.66,17.86.95,1.13,1.84,2.31,2.67,3.53.65.87,1.25,1.77,1.8,2.71.42.72.76,1.28,1.02,1.7.1.25.18.51.24.78Z"/>
    <path class="cls-10" d="M792.6,380.96c-.12.16-1.56-.9-4.21-1.88-1.54-.56-3.14-.95-4.77-1.16-2-.24-4.02-.24-6.01,0-1.99.3-3.94.84-5.81,1.6-1.51.64-2.95,1.45-4.29,2.4-2.28,1.66-3.39,3.07-3.53,2.95s.18-.42.66-1.08c.71-.91,1.52-1.73,2.42-2.44,1.32-1.09,2.78-2,4.35-2.71,3.87-1.74,8.15-2.33,12.35-1.7,1.7.26,3.36.74,4.93,1.44,1.07.44,2.07,1.02,2.99,1.72.64.52.96.82.92.86Z"/>
    <path class="cls-10" d="M824.09,423.19s-1.14-.56-3.29-1.32c-3.05-1.08-6.29-1.55-9.52-1.36-4.86.24-9.51,2.04-13.27,5.13-4.67,3.86-7.69,9.36-8.44,15.37l-.1.84-.68-.46c-2.31-1.48-4.78-2.69-7.35-3.61-6.64-2.37-13.82-2.82-20.7-1.3-5.61,1.33-10.83,3.94-15.25,7.64-2.98,2.49-5.58,5.42-7.7,8.68-1.48,2.32-2.12,3.73-2.2,3.67.09-.36.22-.71.4-1.04.43-.98.91-1.93,1.46-2.85,5.09-8.54,13.4-14.67,23.07-17.01,9.89-2.31,20.29-.52,28.84,4.97l-.8.38c.77-6.29,3.95-12.04,8.88-16.03,3.93-3.16,8.79-4.96,13.83-5.11,3.31-.12,6.61.45,9.68,1.68.82.33,1.62.73,2.38,1.18.28.15.54.34.76.56Z"/>
    <path class="cls-10" d="M910.7,305.21c.31.44.59.91.82,1.4.48.94,1.24,2.32,2.1,4.15,2.36,5.19,4.24,10.59,5.61,16.13,1.98,8.21,3.01,16.62,3.05,25.07.04,4.99-.22,9.99-.76,14.95-.56,5.33-1.41,10.63-2.57,15.87-3.96,18.44-11.05,36.06-20.96,52.11-2.99,4.86-6.41,9.44-10.22,13.69-1.38,1.46-2.49,2.59-3.29,3.29-.38.38-.8.73-1.24,1.04.34-.43.71-.83,1.1-1.2.76-.74,1.78-1.9,3.13-3.41,3.67-4.32,6.98-8.93,9.9-13.79,9.66-16.05,16.61-33.59,20.56-51.91,1.15-5.2,2.01-10.46,2.57-15.75.56-4.93.84-9.89.82-14.85,0-8.4-.93-16.78-2.79-24.97-1.31-5.48-3.07-10.84-5.27-16.03-.78-1.84-1.5-3.23-2-4.21-.23-.51-.42-1.04-.56-1.58Z"/>
    <path class="cls-10" d="M855.27,307.87c.71.58,1.34,1.25,1.86,2,1.57,1.87,2.95,3.88,4.15,6.01,8.23,14.37,7.65,32.16-1.48,45.97-1.32,2.04-2.83,3.95-4.51,5.71-.59.68-1.27,1.29-2,1.8,2.1-2.53,4.07-5.17,5.87-7.92,8.59-13.71,9.15-30.98,1.46-45.21-1.6-2.9-3.39-5.7-5.35-8.38Z"/>
    <path class="cls-6" d="M781.8,254.1c5.14,7.85,11.78,14.6,19.54,19.86,2.92,1.95,6.86,1.16,8.81-1.76,1.11-1.66,1.37-3.75.71-5.64v-.16c9.1,6.98,18.66,13.34,28.6,19.06,3.72,2.18,8.51.94,10.7-2.79,1.19-2.02,1.4-4.47.59-6.67-9.96-27.26-29.47-49.98-54.91-63.95l-14.03,42.05Z"/>
    <g class="cls-14">
      <path class="cls-1" d="M793.35,255.07c.8,1.39,1.87,2.6,3.15,3.57,1.31.97,3.07,1.08,4.49.28,2-1.34,1.9-4.61,4.01-5.85,2.1-1.24,4.83.54,6.67,2.28l5.81,5.55c1.42,1.36,3.35,2.83,5.17,2,1.82-.82,2.14-3.65,1.7-5.77-2.17-10.06-9.15-18.41-18.66-22.35l-12.35,20.28Z"/>
    </g>
    <path class="cls-6" d="M870.5,302.8c.14,3.86,3.38,6.88,7.24,6.74s6.88-3.38,6.74-7.24-3.38-6.88-7.24-6.74c-3.67.13-6.61,3.07-6.74,6.74"/>
    <path class="cls-5" d="M502.03,60.99c-5.65,8.8,6.71,39.54,35.05,78.9,16.69,23.24,36.99,43.66,60.12,60.48l163.41,104.83,27.62-43.05,16.03-24.97,27.62-43.05-148.3-95.13c-14.5-9.32-29.86-17.22-45.87-23.61-16.01-6.47-32.51-11.63-49.34-15.45-47.2-10.36-80.7-7.76-86.34,1.04"/>
    <path class="cls-6" d="M729.4,128.45l.6-.2c35.17-11.81,73.81-7,105.01,13.07l19.58,12.57-51.97,21.54-73.23-46.98Z"/>
    <path class="cls-10" d="M729.4,128.45l.38.24,1.06.66,4.01,2.59,15.25,9.6,52.69,33.59h-.28l47.36-19.56,4.59-2v.6l-11.52-7.42c-3.81-2.4-7.5-4.89-11.24-7.07-7.16-4.29-14.73-7.85-22.61-10.62-7.11-2.51-14.45-4.34-21.9-5.45-3.49-.62-6.89-.82-10.16-1.16-3.27-.34-6.41-.36-9.42-.24-9.46.06-18.87,1.23-28.06,3.49-3.29.7-5.73,1.58-7.44,2l-2.59.74.64-.24,1.74-.68c1.68-.5,4.13-1.42,7.42-2.16,9.21-2.36,18.67-3.61,28.18-3.71,3.01-.14,6.17,0,9.46.2s6.69.52,10.2,1.12c7.5,1.09,14.89,2.91,22.04,5.41,7.92,2.77,15.54,6.34,22.75,10.64,3.79,2.2,7.46,4.67,11.26,7.09l11.56,7.46.56.36-.62.26-4.59,2-47.38,19.62h-.3l-52.73-34.07-15.03-9.74-4.01-2.59c-.42-.28-.76-.48-1-.66l-.28-.3Z"/>
    <path class="cls-6" d="M658.15,239.53v.62c3.89,36.38,24.08,69.03,54.89,88.76l19.32,12.41-2-55.45-72.21-46.33Z"/>
    <path class="cls-10" d="M658.15,239.53l.32.18,1,.64,4.01,2.49,14.91,9.48,52.21,33.27.14.1v.14c.58,15.57,1.22,32.65,1.88,50.54,0,1.68.12,3.37.18,4.91v.66l-.56-.36-11.38-7.29c-3.73-2.42-7.46-4.71-10.98-7.19-6.83-4.69-13.16-10.06-18.9-16.03-5.19-5.37-9.84-11.24-13.89-17.52-2-2.89-3.59-5.89-5.23-8.7s-2.95-5.63-4.01-8.4c-3.83-8.53-6.63-17.5-8.34-26.69-.66-3.25-.86-5.81-1.1-7.54-.1-.84-.18-1.48-.24-2s0-.66,0-.66c0,.38.16,1.1.4,2.61.24,1.5.52,4.29,1.22,7.52,1.77,9.18,4.6,18.11,8.44,26.63,1.14,2.75,2.65,5.45,4.01,8.36s3.25,5.75,5.23,8.62c4.06,6.23,8.71,12.06,13.89,17.4,5.72,5.92,12.03,11.26,18.82,15.91,3.51,2.44,7.25,4.73,10.98,7.15l11.38,7.29-.54.3c0-1.54-.1-3.23-.18-4.89-.64-17.9-1.26-34.99-1.82-50.56l.14.26-51.79-33.43-14.89-9.66-4.01-2.59-1.02-.68-.28-.26Z"/>
    <path class="cls-6" d="M502.03,60.99c-4.63,6.63,2,26.73,18.28,53.63l43.95-59.26c-31.6-3.87-56.31-2.89-62.23,5.63Z"/>
    <line class="cls-9" x1="734.65" y1="288.59" x2="804.53" y2="178.23"/>
    <path class="cls-10" d="M804.53,178.23c.16.12-15.35,24.91-34.65,55.37-19.3,30.46-35.07,55.11-35.23,54.99s15.29-24.81,34.65-55.35c19.36-30.54,35.07-55.11,35.23-55.01Z"/>
    <line class="cls-9" x1="739.28" y1="292.26" x2="809.16" y2="181.92"/>
    <path class="cls-10" d="M809.16,181.92c.16,0-15.35,24.89-34.65,55.35-19.3,30.46-35.07,55.11-35.23,54.99s15.35-24.87,34.65-55.35c19.3-30.48,35.07-55.11,35.23-54.99Z"/>
    <line class="cls-9" x1="744.57" y1="295.53" x2="814.45" y2="185.16"/>
    <path class="cls-10" d="M814.45,185.16c.16.12-15.35,24.91-34.65,55.37-19.3,30.46-35.07,55.11-35.23,54.99s15.35-24.87,34.65-55.35c19.3-30.48,35.07-55.11,35.23-55.01Z"/>
    <line class="cls-9" x1="749.84" y1="298.79" x2="819.74" y2="188.43"/>
    <path class="cls-10" d="M819.74,188.43c.16.12-15.37,24.91-34.65,55.37-19.28,30.46-35.15,55.09-35.15,54.99s15.35-24.87,34.65-55.35c19.3-30.48,34.97-55.11,35.15-55.01Z"/>
    <line class="cls-9" x1="755.13" y1="302.06" x2="825.01" y2="191.7"/>
    <path class="cls-10" d="M825.01,191.64c.16,0-15.35,24.89-34.65,55.37-19.3,30.48-35.07,55.09-35.23,54.99s15.35-24.87,34.65-55.35c19.3-30.48,35.07-55.01,35.23-55.01Z"/>
    <path class="cls-10" d="M694.02,183.86s.3,0,.84.36,1.3.72,2.3,1.28c2,1.16,4.79,2.91,8.24,5.09,6.91,4.35,16.39,10.48,26.81,17.32,10.42,6.83,19.82,13.07,26.61,17.62l8.02,5.43,2.14,1.5c.27.15.51.34.72.56-.28-.13-.55-.29-.8-.46l-2.22-1.38-8.14-5.25-26.65-17.46-26.69-17.48-8.02-5.25c-.96-.6-1.7-1.12-2.22-1.4l-.94-.48Z"/>
    <path class="cls-10" d="M729.4,128.45c.16.12-15.51,24.87-34.99,55.27-19.48,30.4-35.41,55.01-35.57,54.91s15.51-24.85,34.99-55.27c19.48-30.42,35.41-55.01,35.57-54.91Z"/>
    <path class="cls-10" d="M753.63,209.51c-.1-.32-.1-.66,0-.98.14-.92.59-1.76,1.28-2.38,1.03-1,2.51-1.37,3.89-.98,2.28.54,3.69,2.83,3.15,5.12-.31,1.29-1.2,2.36-2.41,2.9-1.28.64-2.81.55-4.01-.24-.78-.46-1.38-1.17-1.72-2-.2-.6-.16-.98-.12-.98s.1.34.38.88c.37.75.97,1.38,1.7,1.78,1.07.62,2.39.62,3.47,0,1.81-.89,2.56-3.07,1.67-4.88-.46-.94-1.3-1.64-2.31-1.91-1.17-.37-2.45-.09-3.37.72-.64.52-1.12,1.22-1.36,2-.18.62-.18.96-.24.96Z"/>
    <path class="cls-10" d="M722.42,188.67s-.14-.34,0-.98c.14-.92.59-1.76,1.28-2.38,1.03-1,2.51-1.37,3.89-.98,2.28.54,3.69,2.83,3.15,5.12-.31,1.29-1.2,2.36-2.41,2.9-1.28.64-2.81.55-4.01-.24-.77-.47-1.36-1.17-1.7-2-.13-.31-.18-.65-.14-.98,0,0,.12.34.4.88.37.75.97,1.38,1.7,1.78,1.07.62,2.38.62,3.45,0,1.81-.88,2.56-3.07,1.68-4.88-.46-.94-1.3-1.64-2.3-1.92-1.18-.37-2.46-.09-3.39.72-.63.52-1.1,1.22-1.34,2-.2.62-.2.96-.26.96Z"/>
    <path class="cls-10" d="M662.32,174.16c-.08-.32-.08-.66,0-.98.15-.91.6-1.75,1.28-2.38,1.05-1.04,2.59-1.42,4.01-.98,2.28.55,3.68,2.85,3.13,5.13-.31,1.29-1.2,2.36-2.41,2.89-1.28.64-2.81.55-4.01-.24-.77-.46-1.37-1.17-1.7-2-.22-.62-.18-.98-.14-.98.14.29.27.58.38.88.39.75.98,1.36,1.7,1.78,1.08.61,2.39.61,3.47,0,1.29-.74,2.06-2.14,2-3.63-.2-1.49-1.25-2.72-2.69-3.17-1.17-.37-2.45-.09-3.37.72-.64.52-1.12,1.22-1.36,2-.24.62-.24.96-.3.96Z"/>
    <path class="cls-10" d="M635.57,167.59c.12-.14,11.58,6.17,25.61,14.03,14.03,7.86,25.29,14.53,25.17,14.69s-11.58-6.17-25.61-14.03c-14.03-7.86-25.27-14.47-25.17-14.69Z"/>
    <g class="cls-14">
      <path class="cls-1" d="M728.49,284.65s-46.69-31.5-70.34-45.11c8.16,11.68,17.56,24.95,28.88,33.61,11.9,8.87,26.69,12.98,41.46,11.5Z"/>
    </g>
    <circle class="cls-12" cx="614.65" cy="134.39" r="39.52"/>
    <path class="cls-10" d="M654.14,136.67c-.03-.21-.03-.43,0-.64v-1.88c.02-1.02-.04-2.04-.18-3.05-.11-1.38-.31-2.75-.6-4.11-.74-3.72-2.02-7.31-3.81-10.66-2.35-4.44-5.53-8.39-9.36-11.64-10.11-8.61-23.91-11.49-36.61-7.64-3.61,1.05-7.04,2.65-10.16,4.75-1.62,1.07-3.16,2.24-4.63,3.51-1.42,1.35-2.76,2.78-4.01,4.29-10.89,13.13-11.96,31.82-2.63,46.09,1.05,1.63,2.2,3.2,3.45,4.69,1.31,1.43,2.71,2.77,4.21,4.01,2.87,2.44,6.09,4.43,9.56,5.89,6.39,2.74,13.4,3.74,20.3,2.89,11.14-1.43,21.14-7.56,27.48-16.83,2.16-3.12,3.84-6.54,4.99-10.16.44-1.31.81-2.65,1.08-4.01.25-.99.43-1.99.52-3.01.1-.76.18-1.38.26-1.86.01-.21.05-.42.12-.62.02.21.02.43,0,.64,0,.48-.1,1.1-.16,1.86-.05,1.03-.2,2.04-.42,3.05-.24,1.36-.58,2.7-1,4.01-1.05,3.7-2.67,7.22-4.81,10.42-6.35,9.53-16.49,15.86-27.84,17.38-7.09.92-14.3-.06-20.88-2.87-3.56-1.49-6.87-3.52-9.82-6.01-3.14-2.53-5.85-5.56-8.02-8.96-2.29-3.48-4.01-7.31-5.09-11.34-1.09-4.16-1.55-8.45-1.34-12.75.51-8.5,3.71-16.61,9.14-23.17,1.29-1.57,2.69-3.04,4.19-4.41,1.51-1.29,3.09-2.49,4.75-3.59,3.21-2.13,6.72-3.76,10.42-4.83,6.85-2.04,14.12-2.2,21.06-.48,11.11,2.79,20.48,10.23,25.71,20.42,1.79,3.41,3.05,7.07,3.73,10.86.29,1.37.46,2.77.52,4.17.12,1.02.15,2.04.1,3.07v1.88c-.05.22-.12.44-.22.64Z"/>
    <path class="cls-10" d="M502.03,60.99c.08-.13.17-.26.26-.38.25-.39.56-.74.9-1.04,1.35-1.21,2.91-2.17,4.61-2.83,6.61-2.33,13.56-3.54,20.56-3.59,11.11-.34,22.23.26,33.25,1.78,14.68,1.92,29.21,4.9,43.47,8.9,7.94,2.27,16.16,4.94,24.67,8.02,8.86,3.22,17.56,6.9,26.05,11,9.11,4.44,17.97,9.38,26.53,14.79l27.22,17.42,122.55,78.58.44.28-.28.44c-11.44,17.82-23.43,36.49-35.61,55.53-12.18,19.04-24.21,37.7-35.65,55.53l-.26.44-.44-.28-122.59-78.62-27.18-17.48-12.91-8.34c-4.23-2.85-8.14-6.01-12.02-9.04-13.93-11.53-26.74-24.36-38.26-38.3-9.29-11.55-17.82-23.69-25.55-36.33-5.91-9.41-11.1-19.25-15.53-29.44-2.95-6.33-4.85-13.1-5.63-20.04-.14-1.81.06-3.63.58-5.37.14-.44.33-.87.58-1.26.07-.14.15-.28.24-.4-.3.53-.54,1.1-.72,1.68-.48,1.73-.64,3.54-.48,5.33.84,6.95,2.79,13.71,5.77,20.04,4.48,10.14,9.72,19.93,15.65,29.3,7.78,12.55,16.35,24.6,25.65,36.07,11.53,13.87,24.34,26.62,38.26,38.08,3.77,3.07,7.7,6.17,11.86,8.96l12.99,8.32,27.2,17.44,122.61,78.56-.72.16,35.63-55.53,35.61-55.53.16.72-122.51-78.66-27.2-17.44c-8.53-5.42-17.35-10.36-26.41-14.81-8.76-4.29-17.46-7.88-25.91-11.02-8.46-3.15-16.67-5.87-24.59-8.14-14.21-4.03-28.69-7.05-43.33-9.02-10.97-1.59-22.06-2.26-33.15-2-6.97.01-13.9,1.16-20.5,3.41-1.69.63-3.25,1.54-4.63,2.71-.45.44-.86.91-1.24,1.4Z"/>
  </g>
  <g id="freepik--Document--inject-2">
    <path class="cls-6" d="M200.66,189.79l-64.61-34.07c-4.46-2.35-6.17-7.86-3.82-12.32,0,0,.01-.02.02-.03l47.22-89.5c2.37-4.46,7.89-6.17,12.37-3.83l41.06,21.64,14.45,49.44-34.31,64.83c-2.37,4.46-7.89,6.17-12.37,3.83Z"/>
    <g class="cls-14">
      <path class="cls-12" d="M232.89,71.69l-13.31,25.17c-2.18,4.16-.6,9.3,3.55,11.5l24.21,12.77-14.45-49.44Z"/>
    </g>
    <g class="cls-13">
      <path class="cls-1" d="M218.68,99.25c-2.05,3.94-1.07,8.78,2.34,11.62l.7.58c2.87,2.24,21.7,16.93,22.04,16.45s3.57-6.77,3.57-6.77l-24.21-12.77s-6.01-3.41-4.45-9.12Z"/>
    </g>
    <path class="cls-11" d="M214.63,92.98c-.18.32-6.99-2.95-15.25-7.31-8.26-4.37-14.81-8.14-14.59-8.48s7.01,2.95,15.27,7.31c8.26,4.37,14.79,8.16,14.57,8.48Z"/>
    <path class="cls-11" d="M226.41,117.49c-.16.32-11.32-5.23-24.91-12.41-13.59-7.17-24.45-13.33-24.29-13.65s11.32,5.23,24.91,12.41c13.59,7.17,24.47,13.25,24.29,13.65Z"/>
    <path class="cls-11" d="M224.57,131.63c-.16.32-12.31-5.75-27.12-13.59-14.81-7.84-26.69-14.41-26.51-14.73s12.33,5.75,27.14,13.57c14.81,7.82,26.67,14.43,26.49,14.75Z"/>
    <path class="cls-11" d="M218.66,142.84c-.18.32-12.33-5.75-27.14-13.57-14.81-7.82-26.67-14.43-26.49-14.75s12.31,5.75,27.12,13.57c14.81,7.82,26.71,14.43,26.51,14.75Z"/>
    <path class="cls-11" d="M212.73,154.06c-.16.32-12.31-5.75-27.12-13.59-14.81-7.84-26.67-14.41-26.51-14.73s12.33,5.77,27.14,13.57,26.61,14.43,26.49,14.75Z"/>
    <path class="cls-11" d="M206.83,165.26c-.18.32-12.33-5.75-27.12-13.57-14.79-7.82-26.69-14.43-26.51-14.75s12.31,5.75,27.12,13.57c14.81,7.82,26.67,14.43,26.51,14.75Z"/>
  </g>
  <g id="freepik--Folders--inject-2">
    <path class="cls-4" d="M519.15,862.24c-5.69-.82-9.65-6.09-8.84-11.78l12.89-89.66c.84-4.69,5.32-7.82,10.02-6.99l8.42,1.22c3.35.52,6.72-.89,8.7-3.65l2.34-3.43c1.98-2.76,5.34-4.17,8.7-3.65l40.08,5.75c3.06.41,5.71,2.35,7.01,5.15l1.52,3.41c1.3,2.8,3.94,4.74,6.99,5.15l51,7.33c4.73.52,8.15,4.78,7.64,9.52l-13.19,91.69c-.82,5.69-6.09,9.63-11.77,8.82,0,0,0,0-.01,0l-131.51-18.88Z"/>
    <g class="cls-14">
      <path class="cls-1" d="M519.15,862.24c-5.69-.82-9.65-6.09-8.84-11.78l12.89-89.66c.84-4.69,5.32-7.82,10.02-6.99l8.42,1.22c3.35.52,6.72-.89,8.7-3.65l2.34-3.43c1.98-2.76,5.34-4.17,8.7-3.65l40.08,5.75c3.06.41,5.71,2.35,7.01,5.15l1.52,3.41c1.3,2.8,3.94,4.74,6.99,5.15l51,7.33c4.73.52,8.15,4.78,7.64,9.52l-13.19,91.69c-.82,5.69-6.09,9.63-11.77,8.82,0,0,0,0-.01,0l-131.51-18.88Z"/>
    </g>
    <path class="cls-4" d="M611.88,763.06l-32.43-4.75-2.12-5.83c-1.49-3.88-4.98-6.63-9.1-7.17l-31.7-4.55c-5.41-.96-10.59,2.61-11.6,8.02l-.52,3.71-14.03,97.34c-.67,6.22,3.8,11.82,10.02,12.55l128.88,18.68c6.17,1.08,12.06-3.03,13.17-9.2l13.23-91.95c.6-4.08-2.22-7.88-6.3-8.49-.02,0-.04,0-.05,0l-57.44-8.34Z"/>
    <rect class="cls-12" x="580.97" y="774.95" width="32.59" height="77.46" transform="translate(-293.11 1289.09) rotate(-81.82)"/>
    <path class="cls-10" d="M624.02,815.6c0,.28-11.86-1.18-26.41-3.27-14.55-2.08-26.31-4.01-26.25-4.31s11.86,1.18,26.41,3.27c14.55,2.08,26.29,4.03,26.25,4.31Z"/>
    <path class="cls-10" d="M623.04,822.48c0,.28-11.86-1.18-26.41-3.27-14.55-2.08-26.31-4.01-26.27-4.31s11.86,1.18,26.41,3.27c14.55,2.08,26.31,4.03,26.27,4.31Z"/>
    <path class="cls-6" d="M751.8,822.4c-3.54,1.34-7.5-.45-8.83-3.99,0,0,0-.01,0-.02l-21.24-55.51c-1.02-2.95.54-6.17,3.49-7.19,0,0,.01,0,.02,0l5.21-2c2.08-.79,3.55-2.66,3.83-4.87l.24-2.71c.25-2.22,1.73-4.1,3.83-4.87l24.77-9.5c1.89-.73,4.02-.46,5.67.72l2,1.46c1.64,1.17,3.77,1.45,5.65.72l31.58-12.02c2.89-1.21,6.21.14,7.44,3.03l21.72,56.78c1.34,3.53-.43,7.48-3.96,8.82-.02,0-.04.01-.05.02l-81.37,31.14Z"/>
    <g class="cls-14">
      <path class="cls-1" d="M751.8,822.4c-3.54,1.34-7.5-.45-8.83-3.99,0,0,0-.01,0-.02l-21.24-55.51c-1.02-2.95.54-6.17,3.49-7.19,0,0,.01,0,.02,0l5.21-2c2.08-.79,3.55-2.66,3.83-4.87l.24-2.71c.25-2.22,1.73-4.1,3.83-4.87l24.77-9.5c1.89-.73,4.02-.46,5.67.72l2,1.46c1.64,1.17,3.77,1.45,5.65.72l31.58-12.02c2.89-1.21,6.21.14,7.44,3.03l21.72,56.78c1.34,3.53-.43,7.48-3.96,8.82-.02,0-.04.01-.05.02l-81.37,31.14Z"/>
    </g>
    <path class="cls-6" d="M773.28,735.88l-20.04,7.66-3.09-2.67c-2.08-1.76-4.97-2.22-7.5-1.2l-19.64,7.52c-3.41,1.21-5.2,4.94-4.01,8.36l.88,2.28,23.07,60.28c1.61,3.79,5.97,5.58,9.78,4.01l79.78-30.54c3.9-1.35,5.97-5.6,4.63-9.5l-21.8-56.96c-.98-2.54-3.83-3.8-6.37-2.83l-35.69,13.59Z"/>
    <rect class="cls-12" x="755.65" y="758.84" width="50.84" height="21.38" transform="translate(-223.51 330.15) rotate(-20.95)"/>
    <path class="cls-10" d="M797.03,762.14c-5.24,2.57-10.62,4.82-16.13,6.73-5.38,2.25-10.88,4.17-16.49,5.75,5.21-2.55,10.56-4.8,16.03-6.73,5.41-2.24,10.95-4.16,16.59-5.75Z"/>
    <path class="cls-10" d="M798.66,766.4c-5.21,2.54-10.56,4.79-16.03,6.71-5.43,2.24-10.99,4.14-16.65,5.71,5.24-2.57,10.62-4.82,16.13-6.73,5.4-2.23,10.93-4.13,16.55-5.69Z"/>
  </g>
  <g id="freepik--Plant--inject-2">
    <path class="cls-6" d="M831.78,856.99c4.01,1.93,7.08,5.4,8.5,9.62,1.36,4.21,1.75,8.67,1.12,13.05-.96,8.46-5.77,17.01-10.94,23.77-7.13-6.21-8.78-17.07-9.26-22.63-.76-8.78,3.19-25.11,10.58-23.81"/>
    <path class="cls-6" d="M838.74,917.41c-.98-4.93.75-10,4.53-13.31,3.81-3.2,8.75-4.74,13.71-4.27,2.31-.04,4.51.95,6.01,2.71,1.07,1.86,1.07,4.15,0,6.01-1.08,1.84-2.63,3.37-4.49,4.43-6.17,3.87-12.85,6.49-19.84,4.39"/>
    <path class="cls-10" d="M829.6,943.36c.04-.59.12-1.17.26-1.74.22-1.22.5-2.81.86-4.69.8-5.24,2.44-10.31,4.85-15.03,2.51-4.7,6.22-8.65,10.76-11.44,1.38-.84,2.86-1.51,4.41-2,.54-.18.96-.24,1.26-.32.15-.03.3-.03.44,0-2.04.71-4.01,1.61-5.87,2.71-4.39,2.84-7.99,6.75-10.46,11.36-2.38,4.66-4.06,9.65-4.97,14.81-.42,2-.78,3.57-1.04,4.67-.12.57-.29,1.14-.5,1.68Z"/>
    <path class="cls-10" d="M829.88,869.71c.02.25.02.51,0,.76l.12,2.18c.1,1.88.22,4.63.32,8.02.22,6.79.4,16.15.36,26.51-.04,10.36-.3,19.72-.58,26.51-.14,3.39-.28,6.13-.4,8.02,0,.9,0,1.62-.14,2.18.03.25.03.51,0,.76-.02-.26-.02-.52,0-.78v-2.18c0-2,.12-4.69.2-8.02.18-6.77.36-16.15.4-26.49.04-10.34,0-19.72-.16-26.49,0-3.33-.1-6.01-.14-8.02v-2.18c-.03-.26-.02-.52.02-.78Z"/>
    <path class="cls-6" d="M826.41,922.56c-1.72-10.44-8.38-19.4-17.88-24.05-2.38-1.14-5.49-1.88-7.44-.12-1.94,1.76-1.52,4.95-.56,7.42,4.3,10.44,14.43,17.28,25.71,17.38"/>
    <path class="cls-10" d="M809.7,906.61c.52.17,1.03.39,1.5.66.59.28,1.16.59,1.72.92.62.4,1.4.78,2.16,1.36.86.57,1.69,1.19,2.49,1.86.92.76,1.8,1.56,2.65,2.4,1.92,1.96,3.61,4.13,5.05,6.47,1.38,2.37,2.49,4.88,3.31,7.5.34,1.15.63,2.31.84,3.49.2,1.02.34,2.05.42,3.09.09.85.13,1.71.12,2.57.05.67.05,1.34,0,2-.01.55-.07,1.1-.18,1.64-.14,0,.1-2.34-.32-6.01-.1-1.02-.26-2.03-.48-3.03-.2-1.1-.54-2.22-.88-3.43-1.64-5.15-4.45-9.85-8.22-13.73-.81-.85-1.67-1.65-2.57-2.4-.77-.68-1.57-1.31-2.4-1.9-3.13-2.36-5.27-3.35-5.21-3.47Z"/>
  </g>
  <g id="freepik--Character--inject-2">
    <path class="cls-4" d="M232.29,888.33l-1.22,58.28,76.72,1.8c-.26-6.93-39.58-21.78-39.58-21.78l2.4-37.3-38.32-1Z"/>
    <g class="cls-15">
      <path class="cls-12" d="M244.55,922.94c-1.5.36-2.47,1.8-2.24,3.33.42,1.51,1.93,2.44,3.47,2.14,1.55-.21,2.63-1.63,2.43-3.17-.21-1.55-1.63-2.63-3.17-2.43-.26.03-.52.11-.76.21"/>
    </g>
    <g class="cls-15">
      <path class="cls-12" d="M231.06,946.61l.38-5.87,73.41,4.01s3.37,1.48,2.93,3.75l-76.72-1.88Z"/>
    </g>
    <path class="cls-10" d="M269.44,926.29c0,.36-1.88.48-3.77,1.58s-2.89,2.55-3.23,2.4.26-2.18,2.57-3.47c2.3-1.28,4.53-.84,4.43-.52Z"/>
    <path class="cls-10" d="M277.42,929.64c0,.34-1.56.9-2.89,2.36s-1.72,3.05-2,3.03-.56-2,1.1-3.83,3.79-1.9,3.79-1.56Z"/>
    <path class="cls-10" d="M281.75,938.84c-.34,0-.82-1.7.18-3.63,1-1.92,2.79-2.65,2.95-2.34s-.96,1.3-1.76,2.89c-.8,1.58-1,3.07-1.36,3.09Z"/>
    <path class="cls-10" d="M268.96,917.73c-.16.32-1.88-.2-4.01-.12s-3.79.68-4.01.38,1.44-1.54,4.01-1.6c2.57-.06,4.23,1.08,4.01,1.34Z"/>
    <path class="cls-10" d="M267.4,909.09c-1.27.3-2.59.26-3.85-.1-1.38-.27-2.72-.69-4.01-1.26-.75-.34-1.47-.73-2.16-1.16-.42-.23-.81-.53-1.14-.88-.49-.51-.54-1.31-.12-1.88.4-.51,1.02-.81,1.66-.78.48.01.96.09,1.42.22.82.21,1.62.49,2.38.84,1.27.57,2.44,1.34,3.47,2.28,1.74,1.58,2.32,2.93,2.18,2.99s-1-1-2.79-2.34c-1.04-.77-2.17-1.41-3.37-1.9-.72-.28-1.45-.51-2.2-.68-.8-.22-1.48-.24-1.7,0s0,.18,0,.42c.24.25.52.47.82.64.65.41,1.32.8,2,1.14,1.18.59,2.41,1.07,3.69,1.42,1.26.26,2.5.6,3.71,1.04Z"/>
    <path class="cls-10" d="M266.96,909.6c-.69-1.04-1.02-2.28-.92-3.53-.04-1.36.17-2.72.62-4.01.27-.76.62-1.49,1.04-2.18.48-.98,1.42-1.65,2.51-1.78.68.03,1.29.44,1.58,1.06.19.43.3.88.34,1.34.13.81.13,1.64,0,2.44-.26,1.36-.85,2.63-1.72,3.71-1.56,1.84-3.13,2.22-3.17,2.1s1.2-.82,2.4-2.61c.68-1.02,1.13-2.17,1.3-3.39.11-.7.11-1.41,0-2.1,0-.76-.38-1.4-.68-1.32s-1.06.54-1.38,1.16c-.4.64-.73,1.31-1,2-.46,1.15-.75,2.37-.84,3.61-.3,2.1.06,3.43-.08,3.49Z"/>
    <path class="cls-4" d="M174.15,893.18l-7.4,57.82-76.15-9.46c1.28-6.81,42.35-15.73,42.35-15.73l3.09-37.26,38.12,4.63Z"/>
    <g class="cls-15">
      <path class="cls-12" d="M156.95,925.61c1.44.57,2.2,2.15,1.74,3.63-.65,1.42-2.27,2.12-3.75,1.6-1.53-.6-2.33-2.28-1.82-3.85.83-1.37,2.54-1.91,4.01-1.26"/>
    </g>
    <g class="cls-15">
      <path class="cls-12" d="M166.75,951l.5-5.87-73.19-6.85s-3.47.88-3.47,3.27l76.15,9.46Z"/>
    </g>
    <path class="cls-10" d="M131.84,925.29c0,.36,1.8.74,3.51,2.1s2.49,2.95,2.85,2.85,0-2.18-2-3.79c-2-1.6-4.39-1.5-4.35-1.16Z"/>
    <path class="cls-10" d="M123.48,927.41c-.14.34,1.4,1.14,2.49,2.79s1.26,3.25,1.62,3.29.86-2-.52-4.01-3.55-2.34-3.59-2.06Z"/>
    <path class="cls-10" d="M117.85,935.89c.32.12,1.04-1.56.32-3.61-.72-2.04-2.36-3.03-2.55-2.77s.76,1.44,1.32,3.13.52,3.17.9,3.25Z"/>
    <path class="cls-10" d="M133.54,916.89c.12.34,1.88,0,4.01.46s3.65,1.22,3.87.94-1.18-1.72-3.65-2.16c-2.47-.44-4.39.46-4.23.76Z"/>
    <path class="cls-10" d="M136.39,908.57c1.21.47,2.52.62,3.81.44,1.4-.05,2.79-.27,4.13-.66.79-.21,1.57-.49,2.32-.82.45-.17.88-.4,1.26-.7.56-.44.73-1.21.4-1.84-.33-.56-.9-.94-1.54-1.02-.48-.06-.96-.06-1.44,0-.84.08-1.66.24-2.47.48-1.35.38-2.62.97-3.79,1.74-2,1.32-2.71,2.57-2.59,2.65s1.14-.86,3.09-1.9c1.82-1,3.83-1.6,5.89-1.76.84-.1,1.52,0,1.68.34s0,.2-.14.4c-.28.21-.59.38-.92.5-.69.33-1.41.61-2.14.84-1.25.41-2.54.7-3.85.88-1.25.05-2.48.2-3.71.44Z"/>
    <path class="cls-10" d="M136.81,909.09c.84-.93,1.34-2.12,1.42-3.37.24-1.33.24-2.68,0-4.01-.15-.79-.38-1.57-.7-2.3-.32-1.04-1.15-1.84-2.2-2.12-.68-.08-1.34.23-1.72.8-.24.4-.42.83-.54,1.28-.24.79-.34,1.61-.3,2.42.03,1.42.43,2.8,1.16,4.01,1.26,2,2.77,2.67,2.83,2.55s-1.08-1-2-2.93c-.52-1.11-.79-2.32-.78-3.55,0-.68.11-1.36.32-2,.2-.76.58-1.34.88-1.22s.94.7,1.18,1.34c.3.65.54,1.32.72,2,.27,1.21.37,2.45.3,3.69-.2,2.1-.68,3.41-.56,3.41Z"/>
    <path class="cls-10" d="M291.79,579.04l-119.42,3.83s-28.16,187.94-27.38,201.03l-17.36,136.28,50.5,1.78s8.02-44.23,13.49-74.49c3.69-20.04,10.42-49.66,12.24-66.48,1.82-16.81,31.36-134.27,31.36-134.27,0,0-2.18,136.28-2.12,141.89.06,5.61-5.85,133.19-5.85,133.19h50.1c2.59-23.03,8.74-115.17,10.02-133.79,2.4-33.63,10.02-128.62,11.04-152.89,1.02-24.27-6.63-56.07-6.63-56.07Z"/>
    <path class="cls-4" d="M283.91,579.97c-.56-2.83-.56-5.73,0-8.56.59,2.82.59,5.74,0,8.56Z"/>
    <path class="cls-4" d="M288.88,582.23c-.95-3.6-.63-7.43.9-10.82-.05,1.81-.23,3.62-.52,5.41,0,1.81-.13,3.62-.38,5.41Z"/>
    <path class="cls-4" d="M244.27,573.27c-.97.2-1.85.7-2.53,1.42-.68.77-.98,1.81-.82,2.83.51,1.73,2.33,2.72,4.06,2.21.66-.19,1.23-.59,1.65-1.13.51-.89.61-1.96.28-2.93-.35-.93-1-1.72-1.84-2.24,0,0,.34,0,.84.22.71.41,1.26,1.04,1.56,1.8.51,1.15.45,2.47-.16,3.57-1.26,1.82-3.76,2.27-5.58,1.01-.81-.56-1.39-1.41-1.62-2.37-.17-1.25.26-2.5,1.16-3.39.57-.59,1.31-.98,2.12-1.1.56-.06.86.06.86.1Z"/>
    <path class="cls-4" d="M189.22,780.67c-4.36-1.32-8.63-2.92-12.79-4.79-4.27-1.6-8.43-3.46-12.47-5.59,4.36,1.33,8.64,2.93,12.81,4.79,4.26,1.6,8.42,3.47,12.45,5.59Z"/>
    <path class="cls-10" d="M182.79,296.57c.38-6.95,4.67-11.24,10.66-14.79,6.13-3.56,13.61-3.9,20.04-.9,4.21,2,7.9,5.41,12.51,6.01,7.62.98,14.81-6.01,22.27-4.31,5.32,1.27,8.59,6.62,7.32,11.94-.93,3.88-4.1,6.82-8.04,7.46,4.99.72,7.8,7.03,6.01,11.7-1.78,4.67-7.05,7.42-12.02,7.52-5.06-.16-9.98-1.71-14.23-4.47-4.35-2.53-8.42-5.57-12.97-7.74-4.47-2.41-9.64-3.17-14.61-2.14-6.59,1.74-11.26,8.02-12.97,14.55-1.7,6.53-.98,13.57,0,20.3.98,6.73,2.32,13.53,1.68,20.32,0,.78-.35,1.52-.96,2-1,.56-2.16-.38-2.91-1.26-8.44-10.01-14.83-21.59-18.8-34.07-2.3-7.21-3.57-14.25-.82-21.3,2.75-7.05,12.02-13.77,17.92-10.9"/>
    <path class="cls-7" d="M176.31,330.16l11.12,68.68c2,12.83,10.42,25.23,30.54,21.02h0c17.19-4.97,15.91-17.34,13.67-32.59h0s18.92-4.91,17.21-24.15c-.8-9.3-4.01-28.3-7.19-45.45-3.37-18.42-20.33-31.16-38.96-29.28l-1.86.18c-19.86,3.27-28.26,21.82-24.53,41.58Z"/>
    <path class="cls-3" d="M231.64,387.27c-8.87.87-17.8-.82-25.73-4.87,0,0,7.54,14.27,26.51,10.62l-.78-5.75Z"/>
    <path class="cls-10" d="M237.9,334.49c.17,1.48-.88,2.83-2.36,3.03-1.41.27-2.78-.66-3.05-2.07,0-.04-.01-.08-.02-.11-.17-1.48.88-2.83,2.36-3.03,1.43-.26,2.79.69,3.05,2.11,0,.02,0,.05.01.07Z"/>
    <path class="cls-10" d="M238.5,327.51c-.3.4-2.55-.94-5.49-.62-2.95.32-4.97,2-5.33,1.66s.12-.82.98-1.6c1.19-1.02,2.67-1.64,4.23-1.78,1.54-.17,3.08.17,4.41.96.98.6,1.34,1.2,1.2,1.38Z"/>
    <path class="cls-10" d="M211.02,338.74c.17,1.48-.88,2.83-2.36,3.03-1.41.27-2.78-.66-3.05-2.07,0-.04-.01-.08-.02-.11-.17-1.48.88-2.83,2.36-3.03,1.43-.26,2.79.69,3.05,2.11,0,.02,0,.05.01.07Z"/>
    <path class="cls-10" d="M210.1,330.98c-.32.38-2.55-.94-5.49-.64-2.95.3-4.97,2-5.33,1.68s.12-.82.98-1.6c1.19-1.02,2.67-1.64,4.23-1.78,1.53-.16,3.08.17,4.41.94.98.6,1.34,1.22,1.2,1.4Z"/>
    <path class="cls-10" d="M222.45,351.8c1.5-.66,3.09-1.11,4.71-1.36.74-.14,1.44-.36,1.52-.9-.02-.78-.27-1.54-.72-2.18-.9-1.74-1.84-3.59-2.81-5.51-4.01-7.86-6.83-14.35-6.51-14.51,2.91,4.47,5.47,9.16,7.66,14.03l2.73,5.57c.55.86.79,1.89.68,2.91-.16.57-.57,1.03-1.12,1.24-.41.14-.83.24-1.26.3-1.6.34-3.24.48-4.87.42Z"/>
    <path class="cls-10" d="M209.14,319.34c-.2.84-3.19.76-6.61,1.52-3.43.76-6.13,2-6.65,1.32-.24-.34.16-1.14,1.22-2,2.84-2.21,6.52-3,10.02-2.16,1.4.36,2.1.94,2.02,1.32Z"/>
    <path class="cls-10" d="M236.55,319.08c-.46.74-2.57.24-5.01.46-2.44.22-4.47.9-5.01.24-.24-.32,0-1.02.86-1.74,2.32-1.78,5.47-2,8.02-.56.98.6,1.34,1.26,1.14,1.6Z"/>
    <path class="cls-7" d="M179.3,344.23c-.34-.12-13.59-2.59-11.84,10.5,1.74,13.09,14.53,8.66,14.49,8.28s-2.65-18.78-2.65-18.78Z"/>
    <path class="cls-3" d="M177.29,358.58s-.2.18-.56.42c-.51.3-1.12.39-1.7.26-1.87-.87-3.12-2.68-3.29-4.73-.19-1.12-.12-2.26.2-3.35.13-.88.68-1.63,1.48-2,.52-.23,1.12-.04,1.42.44.24.34.18.62.26.62s.24-.26,0-.78c-.11-.31-.33-.58-.62-.74-.39-.23-.86-.29-1.3-.18-1.02.39-1.77,1.28-2,2.34-.41,1.21-.51,2.51-.3,3.77.18,2.38,1.76,4.42,4.01,5.21.73.1,1.47-.14,2-.64.42-.32.44-.62.4-.64Z"/>
    <path class="cls-10" d="M240.1,299.86c-2.24-3.53-5.34-6.45-9-8.48-7.68-4.78-16.67-7.01-25.69-6.39-9.06.71-17.49,4.9-23.51,11.7-4.6,5.58-7.47,12.39-8.24,19.58-.75,7.16-.07,14.4,2,21.3.64,3.11,2.18,5.96,4.43,8.2,1.5,1.28,4.01,2,5.35.64.75-.9,1.18-2.02,1.22-3.19,1.5-10.38,2.91-21.54-1.78-30.92,2.07-3.6,4.86-6.74,8.2-9.22,3.38-2.48,7.62-3.5,11.76-2.83,6.01,1.2,10.22,6.53,15.29,10.02,7.42,5.01,16.79,6.15,25.19,3.07l-5.23-13.49Z"/>
    <path class="cls-3" d="M225.05,359.76c-.15,1.24-.48,2.46-.98,3.61-.52,1.16-1.5,2.05-2.71,2.44-1.33.28-2.71-.14-3.67-1.1-.92-.98-1.51-2.22-1.68-3.55-.2-1.2,0-2.71,1.18-3.11.49-.11.99-.11,1.48,0l6.69,1.22"/>
    <path class="cls-10" d="M223.65,365.35c-1.1.29-2.24.39-3.37.28-1.17-.19-2.22-.81-2.95-1.74-.87-1.14-1.2-2.6-.92-4.01.07-.35.18-.7.34-1.02.18-.32.14-.3.42-.3.36.04.71.1,1.06.18l1.1.2,3.81.64c1.16.28,2.36.38,3.55.3-1.06-.55-2.21-.91-3.39-1.08-1.08-.28-2.34-.56-3.77-.88l-1.08-.24c-.4,0-.7-.18-1.22-.22-.32-.03-.65.05-.92.22-.24.18-.43.42-.56.68-.21.41-.35.85-.44,1.3-.35,1.73.1,3.53,1.22,4.89.92,1.08,2.23,1.75,3.65,1.86.92.11,1.85-.03,2.69-.42.58-.32.82-.58.78-.64Z"/>
    <path class="cls-7" d="M272.45,331.52l3.11-.84,48.36,47,39.24,4.73s-.4-11.84-15.13-26.95c-13.23-13.51-43.99-29.54-54.41-37.84-1.35-1.14-2.87-2.04-4.51-2.69l-16.65,16.59Z"/>
    <path class="cls-7" d="M272.43,309.16l-4.95-1.4-11.66-5.53-13.27,4.95s.3,4.53,3.79,3.29l-13.91,4.59s1.14,3.31,1.76,3.53-8.16.94-8.16.94c0,0,0,4.47,8.32,4.39,8.32-.08,11.54-1.5,11.54-1.5l6.67,1.78-.26,4.01-9.1-.14.42,5.09c3.87.82,7.77,1.42,11.7,1.8,0,0,14.03.2,17.84-1.64,3.81-1.84,8.66-4.47,8.66-4.47l7.27-13.87-16.67-5.81Z"/>
    <path class="cls-3" d="M259.9,311.5c0,.12-.78-.26-2-.82-1.64-.7-3.21-1.54-4.71-2.51h.6l-.54.34c-1.66,1.06-3.52,1.74-5.47,2-1.48.2-2.4,0-2.4,0,2.56-.61,5.02-1.55,7.33-2.81l.5-.32.3-.2.3.22c1.62,1.12,3.33,2,4.45,2.71s1.74,1.28,1.64,1.38Z"/>
    <path class="cls-3" d="M255.63,318.57s-.9.32-2.24-.26-2.85-2-4.75-2.81h.48c-.85.58-1.75,1.09-2.69,1.52-2.35,1.12-4.9,1.75-7.5,1.84-1.07.14-2.15.02-3.17-.34,3.51-.28,6.96-1.11,10.22-2.44.89-.41,1.75-.89,2.57-1.42l.26-.14h.22c2.16,1.1,3.43,2.57,4.61,3.17s1.98.72,1.98.88Z"/>
    <path class="cls-3" d="M268.06,322.92c0,.16-1.02-.14-2.61-.12-2.05.03-4.05.63-5.77,1.74-1.14.74-2.11,1.7-2.87,2.83l-.12.18h-.18c-1.54.44-3.15.64-4.75.58,1.44-.73,2.98-1.22,4.57-1.46l-.3.2c.75-1.3,1.8-2.41,3.07-3.23,1.88-1.24,4.13-1.8,6.37-1.6,1.72.2,2.65.78,2.59.88Z"/>
    <path class="cls-9" d="M289.1,314.93l-16.67-5.77-4.95-1.4-11.66-5.53-13.27,4.95s.3,4.53,3.79,3.29l-13.91,4.59s1.14,3.31,1.76,3.53-8.16.94-8.16.94c0,0,0,4.47,8.32,4.39,8.32-.08,11.54-1.5,11.54-1.5l6.67,1.78-.26,4.01-8.66-.38.9,5.61c3.56.72,7.16,1.23,10.78,1.52,0,0,14.03.2,17.84-1.64,3.81-1.84,8.66-4.47,8.66-4.47"/>
    <path class="cls-3" d="M281.83,328.8c-.12.11-.26.19-.4.26l-1.26.72-4.85,2.63c-1.15.7-2.38,1.26-3.67,1.64-1.55.36-3.12.61-4.71.76-3.41.34-7.29.48-11.6.48h0l-5.23-.54c-1.94-.16-3.85-.49-5.73-.98h-.2v-.26c-.28-1.74-.58-3.65-.9-5.59l-.1-.56h.56l8.66.36-.52.44c0-1.22.18-2.59.26-4.01l.38.52-6.69-1.78h.34c-3.25.99-6.62,1.5-10.02,1.52-1.76.11-3.53.02-5.27-.26-1.92-.24-3.65-1.29-4.75-2.89-.3-.53-.48-1.12-.52-1.72v-.46h.5c2-.18,4.15-.36,6.17-.58l1.48-.2h.32v.1c-.12.11-.17.28-.12.44,0,.18.36.42.28.34-.12-.05-.23-.12-.32-.2-.22-.23-.4-.48-.54-.76-.46-.92-.87-1.87-1.2-2.85l-.18-.5.5-.16,14.03-4.57.32.92c-.56.21-1.17.28-1.76.2-.61-.11-1.16-.43-1.56-.9-.67-.87-1.06-1.93-1.12-3.03v-.34l.36-.14,13.29-4.89h.32l11.64,5.59h0l4.87,1.4,4.25,1.5,6.73,2.44,4.23,1.56c.5.15.98.35,1.44.6-.51-.11-1.01-.25-1.5-.42l-4.29-1.38-6.79-2.26-4.25-1.42-4.89-1.32h0l-11.7-5.47h.34l-13.27,4.99.32-.48c.05.89.37,1.75.9,2.47.59.59,1.49.75,2.24.4l.32.94-13.89,4.61.32-.66c.31.93.69,1.82,1.14,2.69.09.18.19.35.32.5h0c-.06.07-.1.15-.12.24h0c.2-.52,0-.14.14-.24h.14c.09.08.16.18.18.3.04.17-.01.36-.14.48-.16.16-.12.1-.16.12h-.6l-1.54.2c-2,.24-4.01.42-6.19.6l.46-.5c.05.42.18.82.38,1.18.94,1.32,2.4,2.19,4.01,2.38,1.67.27,3.36.35,5.05.24,3.26-.01,6.51-.48,9.64-1.4h.34l6.67,1.8h.4v.4c0,1.38-.18,2.75-.26,4.01v.48h-.48l-8.64-.4.48-.54c.3,2,.6,3.87.86,5.61l-.24-.32c1.79.45,3.61.76,5.45.94l5.19.58h0c4.27,0,8.14,0,11.52-.32,1.56-.11,3.12-.32,4.65-.64,1.26-.36,2.47-.87,3.61-1.52l4.93-2.44,1.3-.6c-.22-.04-.08-.1-.06-.08Z"/>
    <path class="cls-3" d="M265.07,313.7c-1.27,2.13-3.04,3.93-5.15,5.23-1.93,1.56-4.2,2.65-6.63,3.17-.12-.28,2.81-1.7,6.01-4.01,3.21-2.3,5.53-4.59,5.77-4.39Z"/>
    <path class="cls-6" d="M362.73,380.94l-38.82-3.27-45.77,17.42-10.02,6.13,14.27,48.94s71.73-42.27,74.77-45.87c5.55-6.41,7.62-15.12,5.57-23.35Z"/>
    <path class="cls-6" d="M155.51,416.91l-13.35,8.28,30.82,121.35-5.59,69.96c8.02,6.93,28.06,12.89,66.13,10.72,38.08-2.16,63.49-18.74,63.49-18.74l-3.65-71.97-8.68-81.21-9.72-55.53-29.34,2.12-11.44-6.77-5.13,2.57-6.57,18.24-17.11-12.39-20.04-9.64-7.31,13.65-22.51,9.36Z"/>
    <path class="cls-10" d="M274.97,413.91c.43.86.78,1.76,1.04,2.69.64,1.76,1.44,4.33,2.4,7.54,2.45,8.35,4.46,16.81,6.01,25.37,1.51,8.56,2.56,17.19,3.17,25.85.22,3.33.32,6.01.34,7.88.1.97.1,1.94,0,2.91-.19-.95-.3-1.92-.34-2.89-.18-2-.4-4.67-.68-7.84-.62-6.61-1.68-15.75-3.47-25.73-1.78-9.98-3.91-18.92-5.61-25.35-.82-3.07-1.52-5.63-2-7.62-.39-.9-.68-1.84-.86-2.81Z"/>
    <path class="cls-10" d="M217.01,414.87c-.98-.17-1.91-.51-2.77-1.02-2.37-1.25-4.43-3.03-6.01-5.19l.72-.2c-.42,5.98-1.62,11.87-3.59,17.54l-.22.64-.56-.38-1.4-.98c-6.91-4.75-13.13-9.1-17.6-12.31l-5.25-3.83c-.67-.44-1.29-.95-1.84-1.52.71.32,1.38.71,2,1.18l5.43,3.57c4.59,3.03,10.86,7.29,17.76,12.02l1.42.96-.8.26c1.95-5.58,3.21-11.37,3.77-17.26v-1.08l.62.88c1.49,2.13,3.41,3.92,5.63,5.27,1.74.98,2.73,1.34,2.69,1.44Z"/>
    <path class="cls-10" d="M244.45,404.07c-1.98,2.63-4.16,5.1-6.51,7.4l-.36.38-.36-.4c-1.35-1.57-2.8-3.05-4.35-4.43-.84-.72-1.66-1.4-2.49-2l-1.22-.9c-.09-.02-.19-.04-.28-.04l-.18.3-1.86,4.77c-.51,1.51-1.18,2.95-2,4.31.25-1.57.68-3.1,1.28-4.57.52-1.5,1.08-3.13,1.66-4.85.11-.37.36-.68.7-.86.39-.13.83-.06,1.16.18l1.28.92c.86.62,1.72,1.32,2.57,2,1.6,1.4,3.07,2.94,4.41,4.59h-.72c2.25-2.45,4.68-4.72,7.27-6.79Z"/>
    <path class="cls-4" d="M236.51,621.97c45.06-8.46,88.44,21.2,96.91,66.26,8.46,45.06-21.2,88.44-66.26,96.91-17.02,3.2-34.61.99-50.31-6.31h0c-41.56-19.35-59.56-68.73-40.21-110.29,11.3-24.28,33.63-41.61,59.95-46.55l-.08-.02ZM266.11,779.65c41.99-7.93,69.6-48.41,61.67-90.4-7.93-41.99-48.41-69.6-90.4-61.67-41.99,7.93-69.6,48.41-61.67,90.4,4.63,24.51,20.79,45.28,43.4,55.8,14.67,6.82,31.1,8.87,47,5.87Z"/>
    <path class="cls-4" d="M251.69,790.59c-48.28.07-87.47-39.02-87.54-87.3-.07-48.28,39.02-87.47,87.3-87.54,48.28-.07,87.47,39.02,87.54,87.3.05,36.73-22.87,69.58-57.36,82.21-9.59,3.52-19.72,5.33-29.94,5.33ZM251.87,630.05c-40.58-.03-73.49,32.84-73.52,73.41-.03,40.58,32.84,73.49,73.41,73.52,4.57,0,9.13-.42,13.62-1.26h0c23.27-4.41,43-19.73,53.05-41.18,17.11-36.82,1.14-80.53-35.68-97.64-9.67-4.5-20.21-6.83-30.88-6.85Z"/>
    <path class="cls-4" d="M49.85,622.51l.74-1.8c1.56-3.87,5.01-6.13,7.7-5.03l121.33,49.36c.6.24.8,1.14.46,2l-5.17,12.71c-.36.86-1.12,1.36-1.72,1.12l-121.33-49.46c-2.69-1.1-3.59-5.11-2-8.9Z"/>
    <path class="cls-7" d="M163.17,482.71l-14.59,48.28,7.31,98.4-21.52,2.71s-24.65-83.73-22.21-98.88,12.51-59.28,12.51-59.28l38.5,8.78Z"/>
    <path class="cls-7" d="M155.83,628.68l10.02,17.11,6.25,16.03-9.36-3.67s-4.01,19.36-5.63,19.86-6.13-1.06-5.67-4.77c-1.35,1.32-3.24,1.94-5.11,1.68-2.85-.58-3.53-2.42-3.21-6.01,0,0-3.31,2.69-5.29,1.02-1.23-1.21-1.88-2.89-1.78-4.61,0,0-4.31.36-4.91-1.86-.63-3.65-.71-7.38-.24-11.06.5-2.44,2.59-12.39,2.59-12.39l.96-8.02,21.38-3.33Z"/>
    <path class="cls-3" d="M153.49,662.09c-.78,1.74-1.29,3.59-1.5,5.49-.5,1.85-.7,3.76-.62,5.67.79-1.74,1.29-3.59,1.5-5.49.5-1.85.7-3.76.62-5.67Z"/>
    <path class="cls-3" d="M144.71,659.87c-.74,1.35-1.19,2.84-1.34,4.37-.45,1.48-.6,3.03-.46,4.57.72-1.37,1.18-2.85,1.34-4.39.43-1.47.59-3.02.46-4.55Z"/>
    <path class="cls-3" d="M137.37,657.8c-.44,1.22-.67,2.5-.68,3.79-.34,2-.88,3.71-.62,3.81.89-1.02,1.42-2.31,1.5-3.67.3-1.3.23-2.66-.2-3.93Z"/>
    <path class="cls-3" d="M163.41,652.57c-.77,1.71-1.31,3.52-1.6,5.37-.58,1.79-.93,3.64-1.04,5.51.97-1.63,1.61-3.42,1.9-5.29.59-1.8.84-3.7.74-5.59Z"/>
    <path class="cls-6" d="M110.98,565.72c0-1.64-6.73-24.57-4.69-36.45,2.04-11.88,26.49-92.19,29.78-97.92,2.59-3.87,6.21-6.93,10.44-8.86,9.53,5.17,16.56,13.98,19.46,24.43,4.91,17.62,4.91,39.72,4.91,39.72l-19.66,48.76,2.34,27.7-42.59,2.63Z"/>
    <path class="cls-10" d="M169.64,485.03c-.2,0,.18-3.61,0-9.38-.12-3.36-.45-6.7-.98-10.02-1.27-8.18-3.79-16.12-7.46-23.55-1.49-3.03-3.16-5.97-5.01-8.8-3.17-4.85-5.53-7.56-5.39-7.68.65.54,1.24,1.15,1.76,1.82,1.5,1.7,2.89,3.5,4.17,5.37,1.95,2.8,3.7,5.74,5.25,8.78,3.8,7.49,6.35,15.54,7.56,23.85.48,3.39.73,6.8.76,10.22.03,2.3-.08,4.59-.34,6.87-.03.84-.13,1.68-.32,2.51Z"/>
    <path class="cls-10" d="M168.38,495.23c-.49,2.06-1.16,4.07-2,6.01-1.42,3.71-3.57,8.74-6.01,14.23l-6.33,14.03c-.77,1.99-1.68,3.93-2.73,5.79.49-2.06,1.16-4.07,2-6.01,1.42-3.71,3.57-8.74,6.01-14.23l6.33-14.03c.77-1.99,1.68-3.93,2.73-5.79Z"/>
    <path class="cls-10" d="M152.36,537.28c-4.33-2.31-8.83-4.26-13.47-5.85-4.75-1.24-9.59-2.09-14.47-2.55,1.43-.31,2.91-.39,4.37-.24,3.53.17,7.02.77,10.4,1.78,3.39,1.01,6.63,2.45,9.66,4.27,1.3.67,2.48,1.54,3.51,2.59Z"/>
    <path class="cls-12" d="M280.34,675.38c.18.22-15.61,14.03-35.29,30.88-19.68,16.85-35.77,30.3-35.95,30.06s15.61-14.03,35.29-30.86c19.68-16.83,35.77-30.3,35.95-30.08Z"/>
    <path class="cls-12" d="M300.66,675.38c.2.22-13.11,12.02-29.72,26.23-16.61,14.21-30.2,25.67-30.4,25.45s13.13-12.02,29.72-26.23c16.59-14.21,30.22-25.67,30.4-25.45Z"/>
    <path class="cls-10" d="M330.59,703.54s0-.42-.12-1.26c-.12-.84-.12-2.12-.24-3.75,0-.82,0-1.74-.16-2.75s-.32-2.1-.5-3.31-.38-2.47-.6-3.83c-.22-1.36-.68-2.77-1.02-4.29-1.85-7.37-4.79-14.41-8.74-20.9-5.16-8.62-11.93-16.18-19.94-22.25l-3.39-2.53c-1.2-.78-2.44-1.48-3.69-2.24s-2.47-1.6-3.83-2.22l-4.01-2-2-.98-2.18-.78-4.41-1.6c-1.5-.5-3.07-.82-4.61-1.24-1.56-.45-3.15-.82-4.75-1.08-3.27-.61-6.58-.99-9.9-1.14-1.68,0-3.39-.22-5.11-.2l-5.17.28c-.88,0-1.76,0-2.63.16l-2.61.4c-1.74.3-3.53.5-5.27.86-3.54.79-7.03,1.82-10.44,3.07-3.5,1.26-6.91,2.76-10.2,4.49-1.66.9-3.25,2-4.89,2.91-.8.52-1.64.96-2.4,1.52l-2.3,1.74c-6.44,4.59-12.08,10.23-16.67,16.67l-1.8,2.4-1.58,2.59-1.56,2.59c-.55.85-1.04,1.74-1.46,2.67l-2.65,5.51c-.72,2-1.42,3.87-2.12,5.81-5.38,16.02-5.38,33.36,0,49.38.72,2,1.42,3.87,2.12,5.79.7,1.92,1.78,3.69,2.67,5.53l.66,1.36.8,1.3,1.56,2.59,1.58,2.59,1.8,2.4c2.35,3.16,4.9,6.17,7.64,9,2.8,2.7,5.76,5.23,8.88,7.56l2.3,1.72c.78.58,1.62,1,2.42,1.52,1.64.96,3.23,2,4.87,2.91,3.3,1.73,6.71,3.23,10.22,4.49,3.41,1.25,6.9,2.27,10.44,3.07,1.74.36,3.53.56,5.27.86l2.61.4c.88.12,1.74.1,2.63.16l5.17.28c1.72,0,3.43-.14,5.11-.2,3.32-.15,6.63-.54,9.9-1.14,1.61-.26,3.19-.62,4.75-1.08,1.54-.42,3.13-.74,4.61-1.22l4.41-1.62,2.18-.78,2-.98,4.01-2c1.36-.62,2.57-1.5,3.83-2.22,1.26-.72,2.49-1.46,3.69-2.24l3.39-2.53c8.02-6.06,14.79-13.62,19.94-22.25,3.97-6.44,6.96-13.44,8.86-20.76.34-1.52.86-2.91,1.02-4.29.16-1.38.42-2.65.6-3.83s.4-2.28.5-3.29.12-2,.16-2.77c.12-1.6.2-2.85.24-3.73,0-.84.12-1.28.12-1.28v1.28c0,.84,0,2.12-.14,3.75,0,.83-.04,1.75-.12,2.77,0,1-.28,2.1-.44,3.31l-.56,3.85c-.26,1.46-.6,2.9-1,4.33-1.77,7.44-4.67,14.55-8.62,21.1-5.16,8.73-11.97,16.38-20.04,22.53l-3.41,2.57c-1.2.78-2.47,1.52-3.71,2.28s-2.49,1.62-3.85,2.26l-4.11,2-2,.98-2.2.82-4.45,1.62c-1.5.52-3.09.84-4.67,1.26-1.57.48-3.17.85-4.79,1.1-3.31.63-6.66,1.03-10.02,1.18-1.72,0-3.43.24-5.17.22l-5.25-.26c-.86,0-1.76,0-2.65-.16l-2.65-.4c-1.76-.3-3.55-.5-5.33-.86-3.59-.79-7.11-1.82-10.56-3.09-3.56-1.26-7.02-2.77-10.36-4.53-1.66-.9-3.27-2-4.93-2.93-.82-.52-1.68-.96-2.47-1.54l-2.26-1.78c-3.17-2.34-6.17-4.89-9-7.64-2.8-2.87-5.4-5.94-7.78-9.18l-1.84-2.42-1.58-2.63-1.6-2.63-.8-1.3-.68-1.4-2.77-5.59-2.16-5.87c-5.47-16.25-5.47-33.85,0-50.1l2.16-5.83c.9-1.86,1.8-3.73,2.69-5.59.43-.93.93-1.84,1.48-2.71l1.6-2.63,1.6-2.61,1.82-2.42c2.39-3.23,4.98-6.3,7.78-9.18,2.82-2.75,5.83-5.3,9-7.64l2.34-1.74c.79-.56,1.6-1.08,2.44-1.56,1.66-.96,3.27-2,4.93-2.93,3.34-1.75,6.81-3.26,10.36-4.53,3.45-1.26,6.98-2.29,10.56-3.09,1.78-.36,3.57-.56,5.33-.86l2.65-.4c.88-.1,1.76-.1,2.65-.16l5.25-.26c1.72,0,3.45.16,5.15.22,3.36.16,6.71.55,10.02,1.18,1.62.27,3.22.64,4.79,1.1,1.56.42,3.15.76,4.67,1.26l4.45,1.62,2.18.82,2,1,4.01,2c1.33.68,2.62,1.43,3.87,2.24,1.24.76,2.51,1.5,3.71,2.28l3.41,2.57c8.07,6.14,14.88,13.79,20.04,22.53,3.94,6.55,6.85,13.67,8.62,21.1.34,1.52.84,2.95,1,4.33s.38,2.67.56,3.85.36,2.3.44,3.31c.08,1,0,2,.12,2.77,0,1.62,0,2.87.14,3.75s.14,1.28.14,1.28Z"/>
    <path class="cls-10" d="M301.51,745.36c.61-.93,1.28-1.83,2-2.69,1.82-2.4,3.49-4.91,5.01-7.52,10.26-17.33,12.46-38.27,6.01-57.36-.96-2.86-2.08-5.66-3.35-8.4-.54-.97-1-1.98-1.38-3.03,0,0,.2.22.5.7s.74,1.18,1.24,2.14c1.43,2.68,2.65,5.47,3.67,8.34,6.96,19.23,4.74,40.58-6.01,57.98-1.6,2.59-3.38,5.06-5.33,7.4-.68.82-1.28,1.42-1.66,1.84s-.66.6-.7.58Z"/>
    <path class="cls-10" d="M297.36,752.56c.14.26-.48.88-1.38,1.4-.9.52-1.76.72-1.9.48s.48-.88,1.38-1.4,1.76-.72,1.9-.48Z"/>
    <path class="cls-12" d="M194.03,737.27c-.2-.29-.36-.61-.48-.94-.28-.62-.72-1.54-1.18-2.79-1.33-3.48-2.4-7.06-3.19-10.7-5.35-24.54,1.57-50.16,18.56-68.66,2.5-2.77,5.22-5.33,8.14-7.66,1-.84,1.86-1.4,2.42-1.82s.86-.6.9-.56-1.08.98-3.07,2.71c-2.79,2.43-5.42,5.04-7.86,7.82-16.48,18.54-23.28,43.75-18.36,68.06.73,3.62,1.69,7.19,2.89,10.68.78,2.49,1.3,3.85,1.22,3.87Z"/>
    <path class="cls-12" d="M240.54,639.05c-3.03.94-6.22,1.21-9.36.78,1.46-.65,3.04-.96,4.63-.92,1.57-.3,3.18-.25,4.73.14Z"/>
  </g>
</svg>