<?xml version="1.0" encoding="UTF-8"?>
<svg id="Layer_2" data-name="Layer 2" xmlns="http://www.w3.org/2000/svg" viewBox="0 0 1000 1000">
  <defs>
    <style>
      .cls-1 {
        fill: #ff725e;
      }

      .cls-1, .cls-2, .cls-3, .cls-4, .cls-5, .cls-6, .cls-7, .cls-8, .cls-9, .cls-10, .cls-11, .cls-12 {
        stroke-width: 0px;
      }

      .cls-2 {
        fill: #000;
      }

      .cls-3 {
        fill: #e0e0e0;
      }

      .cls-13 {
        opacity: .5;
      }

      .cls-4 {
        fill: #eb996e;
      }

      .cls-5 {
        fill: #455a64;
      }

      .cls-6 {
        fill: #f5f5f5;
      }

      .cls-7 {
        fill: #09f;
      }

      .cls-8 {
        fill: #ffbe9d;
      }

      .cls-9 {
        fill: #ebebeb;
      }

      .cls-14 {
        opacity: .3;
      }

      .cls-15 {
        opacity: .6;
      }

      .cls-10 {
        fill: #263238;
      }

      .cls-11 {
        fill: #fafafa;
      }

      .cls-12 {
        fill: #fff;
      }
    </style>
  </defs>
  <g id="Background_Complete" data-name="Background Complete">
    <g>
      <path class="cls-3" d="M944.08,644.2s-.02-.88-.03-2.56c0-1.69-.02-4.18-.03-7.42-.01-6.5-.04-16.02-.06-28.16-.03-24.27-.08-58.99-.13-100.89l.25.25c-49.91.01-110.04.03-174.73.05h-.01l.3-.3c-.01,50.19-.02,97.63-.03,139.03l-.27-.27c51.89.05,95.54.1,126.23.14,15.36.03,27.47.05,35.76.07,4.14.01,7.32.02,9.48.03,1.07,0,1.88.01,2.44.02.55,0,.84.02.84.02,0,0-.27.01-.81.02-.55,0-1.36,0-2.41.02-2.14,0-5.31.02-9.42.03-8.27.02-20.36.04-35.7.07-30.73.03-74.45.08-126.41.14h-.27v-.27c-.01-41.4-.02-88.84-.03-139.03v-.3h.32c64.69.02,124.82.04,174.73.05h.25v.25c-.05,41.96-.1,76.74-.13,101.05-.03,12.12-.05,21.62-.06,28.11-.01,3.22-.02,5.69-.03,7.37,0,1.66-.03,2.51-.03,2.51Z"/>
      <g>
        <rect class="cls-3" x="791.92" y="530.94" width="6.32" height="70.57"/>
        <rect class="cls-9" x="804.12" y="554.9" width="6.32" height="46.6"/>
        <rect class="cls-3" x="816.32" y="539.71" width="6.32" height="62.16"/>
        <rect class="cls-9" x="828.52" y="533.66" width="6.32" height="67.84"/>
        <rect class="cls-3" x="840.71" y="556.34" width="6.32" height="45.17"/>
        <rect class="cls-9" x="852.91" y="565.19" width="6.32" height="36.31"/>
        <rect class="cls-3" x="865.11" y="538.18" width="6.32" height="63.32"/>
        <rect class="cls-9" x="877.31" y="549.59" width="6.32" height="51.91"/>
        <rect class="cls-3" x="889.51" y="540.47" width="6.32" height="61.03"/>
        <rect class="cls-9" x="901.71" y="559.92" width="6.32" height="41.58"/>
        <rect class="cls-3" x="913.91" y="552.01" width="6.32" height="49.49"/>
        <path class="cls-3" d="M922.81,606.42c0,.14-29.97.26-66.94.26s-66.94-.12-66.94-.26,29.97-.26,66.94-.26,66.94.12,66.94.26Z"/>
        <path class="cls-3" d="M800.93,611.97c0,.14-2.1.26-4.69.26s-4.69-.12-4.69-.26,2.1-.26,4.69-.26,4.69.12,4.69.26Z"/>
        <path class="cls-3" d="M816.49,612.26c0,.14-2.51.26-5.6.26s-5.6-.12-5.6-.26,2.51-.26,5.6-.26c3.09,0,5.6.12,5.6.26Z"/>
        <path class="cls-3" d="M829.75,612.26c0,.14-2.51.26-5.6.26s-5.6-.12-5.6-.26,2.51-.26,5.6-.26c3.09,0,5.6.12,5.6.26Z"/>
        <path class="cls-3" d="M843.02,612.26c0,.14-2.51.26-5.6.26s-5.6-.12-5.6-.26,2.51-.26,5.6-.26c3.09,0,5.6.12,5.6.26Z"/>
        <path class="cls-3" d="M856.29,612.26c0,.14-2.51.26-5.6.26s-5.6-.12-5.6-.26,2.51-.26,5.6-.26c3.09,0,5.6.12,5.6.26Z"/>
        <path class="cls-3" d="M869.55,612.26c0,.14-2.51.26-5.6.26s-5.6-.12-5.6-.26,2.51-.26,5.6-.26c3.09,0,5.6.12,5.6.26Z"/>
        <path class="cls-3" d="M882.82,612.26c0,.14-2.51.26-5.6.26s-5.6-.12-5.6-.26,2.51-.26,5.6-.26c3.09,0,5.6.12,5.6.26Z"/>
        <path class="cls-3" d="M896.09,612.26c0,.14-2.51.26-5.6.26s-5.6-.12-5.6-.26,2.51-.26,5.6-.26c3.09,0,5.6.12,5.6.26Z"/>
        <path class="cls-3" d="M909.35,612.26c0,.14-2.51.26-5.6.26s-5.6-.12-5.6-.26,2.51-.26,5.6-.26c3.09,0,5.6.12,5.6.26Z"/>
        <path class="cls-3" d="M922.62,612.26c0,.14-2.51.26-5.6.26s-5.6-.12-5.6-.26,2.51-.26,5.6-.26c3.09,0,5.6.12,5.6.26Z"/>
      </g>
    </g>
    <g>
      <polygon class="cls-3" points="259.93 970.69 272.01 970.51 298.71 736.02 286.81 734.65 259.93 970.69"/>
      <polygon class="cls-3" points="330.78 970.69 342.87 970.51 369.57 736.02 357.66 734.65 330.78 970.69"/>
      <polygon class="cls-3" points="544.36 971.13 532.28 970.95 505.58 738.61 517.48 737.24 544.36 971.13"/>
      <polygon class="cls-3" points="466.44 971.13 454.36 970.95 427.65 738.61 439.56 737.24 466.44 971.13"/>
      <rect class="cls-9" x="281.09" y="730.33" width="243.88" height="25.26"/>
      <polygon class="cls-9" points="435.21 467.89 280.7 469.8 281.09 732.02 453.52 733.51 435.21 467.89"/>
      <path class="cls-3" d="M298.71,730.98s-.34.55-1.08,1.61c-.75,1.08-1.85,2.64-3.3,4.7-2.96,4.17-7.33,10.34-13.07,18.43l-.19-.37c42.87.04,132.44.13,243.88.24l-.58.58c0-8.11,0-16.92-.01-25.85l.59.59c-29.7.09-61.24.19-93.7.29-46.75.12-91.59.24-132.55.35h-.57s0-.57,0-.57c.09-76.26.17-141.55.22-187.8.07-23.09.13-41.43.16-54.03.04-6.26.07-11.09.09-14.39.02-1.61.04-2.84.05-3.71.02-.83.05-1.26.05-1.26,0,0,.03.42.05,1.26.01.86.03,2.1.05,3.71.02,3.3.05,8.13.09,14.39.04,12.6.1,30.93.16,54.03.05,46.25.13,111.54.22,187.8l-.57-.57c40.96-.13,85.8-.27,132.55-.42,32.46-.09,64-.17,93.7-.26h.59s0,.59,0,.59c0,8.93,0,17.74-.01,25.85v.58h-.58c-111.44-.43-201.01-.77-243.88-.94h-.45s.26-.37.26-.37c5.82-8.04,10.25-14.16,13.25-18.3,1.49-2.03,2.61-3.57,3.39-4.63.77-1.03,1.17-1.54,1.17-1.54Z"/>
    </g>
    <g>
      <path class="cls-6" d="M85.4,551.59v50.6h-7.93v5.49h7.93v33.87h148.27v-30.81h-10.98v-6.71h10.98v-10.07h4.88v-4.58h-5.8v-37.79H85.4Z"/>
      <polygon class="cls-3" points="194.3 551.74 194.3 640.99 233.68 640.99 233.68 610.17 222.69 610.17 222.69 604.02 233.68 604.23 233.68 594.16 238.65 594.17 238.56 588.97 232.76 588.81 232.76 551.59 194.3 551.74"/>
      <path class="cls-3" d="M197.11,606.96c0,.31-26.83.56-59.92.56s-59.93-.25-59.93-.56,26.83-.56,59.93-.56,59.92.25,59.92.56Z"/>
      <path class="cls-3" d="M197.11,601.82c0,.31-26.83.56-59.92.56s-59.93-.25-59.93-.56,26.83-.56,59.93-.56,59.92.25,59.92.56Z"/>
      <path class="cls-3" d="M204.8,587.98c0,.31-26.83.56-59.92.56s-59.93-.25-59.93-.56,26.83-.56,59.93-.56,59.92.25,59.92.56Z"/>
      <path class="cls-3" d="M205.54,625.68c0,.31-26.83.56-59.92.56s-59.93-.25-59.93-.56,26.83-.56,59.93-.56,59.92.25,59.92.56Z"/>
    </g>
    <g>
      <g>
        <rect class="cls-9" x="504.8" y="539.84" width="131.94" height="10.24"/>
        <rect class="cls-3" x="600.51" y="539.84" width="36.23" height="10.24"/>
      </g>
      <path class="cls-6" d="M488.05,550.08v46.1h-7.23v5h7.23v30.86h135.1v-28.08h-10.01v-6.12h10.01v-9.17h4.45v-4.17h-5.28v-34.43h-134.27Z"/>
      <polygon class="cls-3" points="587.27 550.21 587.27 631.53 623.15 631.53 623.15 603.45 613.14 603.45 613.14 597.85 623.15 597.85 623.15 588.68 627.6 588.68 627.6 583.99 622.31 583.99 622.31 550.08 587.27 550.21"/>
      <path class="cls-3" d="M589.83,600.52c0,.28-24.45.51-54.6.51s-54.6-.23-54.6-.51,24.44-.51,54.6-.51,54.6.23,54.6.51Z"/>
      <path class="cls-3" d="M589.83,595.84c0,.28-24.45.51-54.6.51s-54.6-.23-54.6-.51,24.44-.51,54.6-.51c30.15,0,54.6.23,54.6.51Z"/>
      <path class="cls-3" d="M596.84,583.24c0,.28-24.45.51-54.6.51s-54.6-.23-54.6-.51,24.44-.51,54.6-.51c30.15,0,54.6.23,54.6.51Z"/>
      <path class="cls-3" d="M597.52,617.58c0,.28-24.45.51-54.6.51s-54.6-.23-54.6-.51,24.44-.51,54.6-.51,54.6.23,54.6.51Z"/>
      <g>
        <path class="cls-6" d="M501.41,457.88v46.1h-7.23v5h7.23v30.86h135.1v-28.08h-10.01v-6.12h10.01v-9.17h4.45v-4.17h-5.28v-34.43h-134.27Z"/>
        <polygon class="cls-3" points="600.64 458.02 600.64 539.33 636.51 539.33 636.51 511.25 626.51 511.25 626.51 505.65 636.51 505.84 636.51 496.67 641.05 496.68 640.96 491.93 635.68 491.79 635.68 457.88 600.64 458.02"/>
        <path class="cls-3" d="M603.19,508.33c0,.28-24.45.51-54.6.51s-54.6-.23-54.6-.51,24.44-.51,54.6-.51c30.15,0,54.6.23,54.6.51Z"/>
        <path class="cls-3" d="M603.19,503.64c0,.28-24.45.51-54.6.51s-54.6-.23-54.6-.51,24.44-.51,54.6-.51c30.15,0,54.6.23,54.6.51Z"/>
        <path class="cls-3" d="M610.21,491.04c0,.28-24.45.51-54.6.51s-54.6-.23-54.6-.51,24.44-.51,54.6-.51c30.15,0,54.6.23,54.6.51Z"/>
        <path class="cls-3" d="M610.88,525.38c0,.28-24.45.51-54.6.51s-54.6-.23-54.6-.51,24.44-.51,54.6-.51c30.15,0,54.6.23,54.6.51Z"/>
      </g>
      <g>
        <rect class="cls-9" x="495.96" y="631.57" width="131.94" height="10.24"/>
        <rect class="cls-3" x="591.67" y="631.57" width="36.23" height="10.24"/>
      </g>
    </g>
  </g>
  <g id="Plant">
    <g>
      <g>
        <path class="cls-10" d="M255.93,839.92c-.14.17-1.28-.52-2.54-1.53-1.27-1.02-2.19-1.98-2.05-2.15.14-.17,1.28.52,2.54,1.53,1.27,1.02,2.19,1.98,2.05,2.15Z"/>
        <g>
          <path class="cls-5" d="M290.54,788.19c.21-4.83.34-9.79-1.18-14.38s-5.07-8.81-9.8-9.8c-5.41-1.12-10.95,2.29-13.98,6.91s-4.07,10.22-4.97,15.67c-6.17,37.55-8.44,75.73-6.78,113.74l22.13,3.1c9.72-39.71,12.82-74.41,14.58-115.25Z"/>
          <path class="cls-10" d="M276.48,763.84s-.02.13-.1.35c-.1.27-.22.6-.37,1-.36.94-.85,2.21-1.47,3.82-.31.83-.72,1.74-1.05,2.77-.33,1.03-.69,2.15-1.07,3.35-.39,1.2-.8,2.49-1.24,3.85-.36,1.39-.74,2.85-1.14,4.39-1.67,6.13-3.05,13.59-4.27,21.9-1.2,8.32-1.98,17.54-2.6,27.22-1.13,19.39-1.31,36.98-1.81,49.71-.24,6.36-.45,11.51-.7,15.07-.12,1.72-.21,3.09-.28,4.09-.04.43-.07.78-.09,1.06-.02.24-.04.36-.06.36s-.02-.12-.02-.37c0-.29,0-.64.01-1.07.03-1,.08-2.37.13-4.1.15-3.56.28-8.71.45-15.07.36-12.72.44-30.32,1.58-49.74.62-9.7,1.43-18.94,2.67-27.28,1.26-8.33,2.71-15.8,4.45-21.94.42-1.54.82-3,1.2-4.39.46-1.36.89-2.64,1.3-3.84.41-1.2.79-2.31,1.14-3.34.35-1.02.79-1.92,1.12-2.75.68-1.59,1.22-2.85,1.62-3.77.18-.39.32-.71.44-.97.1-.22.16-.32.17-.32Z"/>
          <path class="cls-10" d="M278.53,763.86s1.36,1.39,2.7,4.58c1.39,3.16,2.26,8.18,2.02,14.31-.59,12.23-1.68,29.07-3.14,47.67-1.46,18.6-3.08,35.42-4.39,47.58-.65,6.08-1.22,10.99-1.64,14.39-.21,1.64-.38,2.94-.5,3.9-.06.41-.11.74-.15,1.01-.04.23-.06.34-.08.34-.01,0-.01-.12,0-.35.02-.28.04-.61.07-1.02.09-.96.2-2.27.35-3.92.33-3.47.81-8.38,1.38-14.41,1.16-12.17,2.69-28.99,4.16-47.58,1.45-18.59,2.64-35.44,3.37-47.63.32-6.09-.46-11.03-1.75-14.18-1.24-3.17-2.51-4.64-2.41-4.69Z"/>
          <path class="cls-10" d="M293.87,821.12c-.07.2-1.95-.28-4.19-1.08-2.24-.81-4-1.62-3.93-1.83s1.95.28,4.19,1.08c2.24.8,4,1.62,3.93,1.83Z"/>
          <path class="cls-10" d="M296.54,798.57c.09.2-1.7,1.19-3.99,2.22-2.29,1.03-4.22,1.7-4.31,1.5-.09-.2,1.7-1.19,3.99-2.22,2.29-1.02,4.22-1.69,4.31-1.5Z"/>
          <path class="cls-10" d="M295.16,780.17c-.01.22-1.49.29-3.3.17-1.81-.12-3.26-.4-3.24-.62.01-.22,1.49-.29,3.3-.17,1.8.12,3.26.4,3.24.62Z"/>
          <path class="cls-10" d="M272.32,768.37c-.18.12-1.15-1.09-2.16-2.7-1.01-1.61-1.68-3-1.5-3.12s1.15,1.09,2.16,2.7,1.68,3,1.5,3.12Z"/>
          <path class="cls-10" d="M264.78,779.5c0,.22-1.41.37-3.14.33s-3.13-.24-3.13-.46c0-.22,1.41-.37,3.14-.33,1.73.04,3.13.24,3.13.46Z"/>
          <path class="cls-10" d="M259.36,801.77c-.08.2-1.56-.2-3.31-.91s-3.09-1.44-3.01-1.64c.08-.2,1.56.2,3.31.91,1.74.7,3.09,1.44,3.01,1.64Z"/>
          <path class="cls-10" d="M258.78,820.49c.04.21-1.22.66-2.81.99-1.6.33-2.93.43-2.98.22-.04-.21,1.22-.66,2.81-.99,1.6-.33,2.93-.43,2.98-.22Z"/>
          <path class="cls-10" d="M256.23,851.13c.04.22-1.3.64-2.99.94-1.69.3-3.09.37-3.13.16s1.3-.64,2.99-.94c1.69-.3,3.09-.37,3.13-.16Z"/>
          <path class="cls-10" d="M254.54,868.03c.1.19-1.01.98-2.49,1.77-1.48.78-2.76,1.26-2.86,1.07s1.01-.98,2.49-1.77c1.48-.78,2.76-1.26,2.86-1.07Z"/>
          <path class="cls-10" d="M268.35,887.23c-.19.11-1.16-1.23-2.17-3-1.01-1.77-1.68-3.28-1.49-3.39.19-.11,1.16,1.23,2.17,3,1.01,1.76,1.68,3.28,1.49,3.39Z"/>
          <path class="cls-10" d="M272.33,855.33c.15.16-.93,1.47-2.42,2.92-1.49,1.46-2.82,2.52-2.97,2.36s.93-1.47,2.42-2.93c1.49-1.46,2.82-2.51,2.97-2.36Z"/>
          <path class="cls-10" d="M271.45,838.6c-.16.15-1.16-.68-2.24-1.84s-1.82-2.23-1.66-2.38,1.16.68,2.24,1.84c1.08,1.16,1.82,2.23,1.66,2.38Z"/>
          <path class="cls-10" d="M274.19,817.22c.16.15-.74,1.42-2.02,2.84s-2.44,2.46-2.61,2.32c-.16-.15.74-1.42,2.02-2.84,1.28-1.42,2.44-2.46,2.61-2.32Z"/>
          <path class="cls-10" d="M275.73,801.7c-.15.16-1.41-.83-2.81-2.21-1.4-1.38-2.41-2.62-2.26-2.77.15-.16,1.41.83,2.81,2.21,1.4,1.38,2.41,2.62,2.26,2.77Z"/>
          <path class="cls-10" d="M278.76,780.72c.19.11-.44,1.52-1.41,3.14-.97,1.62-1.9,2.85-2.09,2.74-.19-.11.44-1.52,1.41-3.14.97-1.62,1.91-2.85,2.09-2.74Z"/>
          <path class="cls-10" d="M284.46,761.29c.19.1-.37,1.51-1.25,3.14-.88,1.63-1.75,2.87-1.94,2.77-.19-.1.37-1.51,1.25-3.14.88-1.63,1.75-2.87,1.94-2.77Z"/>
          <path class="cls-10" d="M290.92,770.12c.09.2-.79.82-1.98,1.38-1.19.57-2.22.87-2.32.67-.09-.2.79-.82,1.98-1.38s2.22-.87,2.32-.67Z"/>
          <path class="cls-10" d="M291.08,839.92c-.04.2-2.05-.07-4.33-1.05-2.28-.97-3.87-2.23-3.75-2.4.12-.19,1.85.73,4.06,1.67,2.2.95,4.07,1.56,4.02,1.78Z"/>
          <path class="cls-10" d="M288.44,854.71c.04.22-1.29.65-2.98.98-1.69.32-3.08.41-3.13.2-.04-.22,1.29-.65,2.98-.98,1.69-.32,3.08-.42,3.13-.2Z"/>
          <path class="cls-10" d="M285.19,880.06c-.13.16-1.82-.99-3.37-2.96-1.56-1.96-2.3-3.87-2.11-3.96.2-.1,1.23,1.58,2.73,3.46,1.49,1.89,2.9,3.28,2.75,3.45Z"/>
          <path class="cls-10" d="M249.62,891.66c-.14-.17.76-1.17,2.01-2.24,1.25-1.07,2.38-1.8,2.52-1.64.14.17-.76,1.17-2.01,2.24-1.25,1.07-2.38,1.8-2.52,1.64Z"/>
        </g>
      </g>
      <path class="cls-5" d="M239.4,836.33c-1.44-4.5-4.14-9.74-8.86-9.81-2.8-.04-5.32,1.97-6.64,4.44-1.32,2.47-1.88,5.34-1.79,8.14.54,18.5,3.75,39.66,10.15,58.93h17.28c-.22-21.41-3.6-41.32-10.13-61.71Z"/>
      <path class="cls-5" d="M208.16,808.02c-2.41-9.66-9.62-14.87-17.99-15.36-7.64,1.34-10.6,8.86-11.5,16.55-.91,7.7,1.48,15.36,3.85,22.75,7.58,23.71,15.16,47.42,22.74,71.13,7.16-.78,14.33-1.56,21.49-2.35-6.8-31.76-10.71-61.21-18.59-92.72Z"/>
      <path class="cls-10" d="M230.54,826.52c.07.06-.71.78-1.46,2.45-.75,1.68-1.11,4.35-.81,7.64.33,3.28.71,7.24,1.26,11.57.56,4.34,1.35,9.1,2.32,14.06,1.95,9.93,4.15,18.83,5.55,25.32.71,3.24,1.24,5.88,1.58,7.71.14.84.26,1.54.36,2.11.08.48.1.74.07.74-.03,0-.11-.24-.23-.71-.14-.56-.3-1.25-.51-2.08-.46-1.92-1.08-4.51-1.82-7.64-1.54-6.45-3.82-15.34-5.78-25.3-.97-4.98-1.74-9.75-2.26-14.12-.28-2.18-.46-4.26-.64-6.21-.16-1.94-.37-3.75-.46-5.41-.24-3.33.22-6.11,1.09-7.8.87-1.69,1.74-2.32,1.74-2.32Z"/>
      <path class="cls-10" d="M190.48,792.05c.07.06-1.14,1.09-2.6,3.49-1.45,2.37-2.99,6.24-3.27,11.25-.33,5,.79,10.94,2.66,17.3,1.89,6.4,3.96,13.41,6.13,20.78,4.29,14.73,8.16,28.06,11,37.81,1.35,4.79,2.46,8.69,3.25,11.48.35,1.3.63,2.34.84,3.13.18.72.27,1.1.24,1.11-.03,0-.16-.36-.4-1.06-.25-.78-.58-1.81-.99-3.09-.85-2.78-2.03-6.66-3.49-11.41-2.89-9.73-6.85-23.04-11.22-37.74-2.15-7.38-4.2-14.4-6.08-20.81-1.84-6.4-2.92-12.44-2.52-17.54.36-5.09,2.02-9.01,3.57-11.37,1.56-2.39,2.86-3.33,2.86-3.33Z"/>
      <path class="cls-10" d="M222.06,898.44s-.19-.35-.48-1.03c-.28-.69-.74-1.69-1.22-3.02-1.02-2.64-2.34-6.53-3.7-11.41-1.37-4.88-2.71-10.77-4.01-17.33-1.25-6.58-2.61-13.8-4.05-21.38-1.5-7.57-3.16-14.72-5.09-21.11-1.93-6.39-4.09-12.01-6.27-16.56-2.17-4.55-4.24-8.08-5.79-10.44-.74-1.21-1.41-2.07-1.81-2.7-.42-.62-.62-.95-.6-.97s.27.28.73.87c.44.6,1.16,1.44,1.94,2.63,1.64,2.31,3.8,5.82,6.04,10.37,2.26,4.55,4.48,10.18,6.46,16.59,1.98,6.41,3.67,13.59,5.17,21.17,1.41,7.59,2.76,14.81,3.99,21.39,1.26,6.56,2.54,12.44,3.83,17.33,1.28,4.88,2.51,8.79,3.45,11.45.44,1.34.85,2.36,1.08,3.07.24.7.35,1.08.33,1.09Z"/>
      <path class="cls-10" d="M182.9,828.41c.05.21-1.12.68-2.61,1.04s-2.75.49-2.8.27c-.05-.21,1.12-.68,2.61-1.04s2.75-.48,2.8-.27Z"/>
      <path class="cls-10" d="M180.62,813.75c-.01.22-1.64.31-3.62.39-1.99.08-3.62.11-3.64-.11-.03-.21,1.58-.6,3.61-.68,2.03-.08,3.67.18,3.65.4Z"/>
      <path class="cls-10" d="M183.04,800.35c-.14.17-1.31-.59-2.61-1.69-1.3-1.1-2.24-2.13-2.1-2.3s1.31.59,2.61,1.69c1.3,1.1,2.24,2.13,2.1,2.3Z"/>
      <path class="cls-10" d="M189.6,787.95c.22.05.16,1.09.13,2.36-.04,1.26-.04,2.31-.26,2.35-.21.04-.57-1.02-.53-2.37.03-1.35.46-2.39.66-2.34Z"/>
      <path class="cls-10" d="M202.99,793.79c.18.13-.35,1.18-1.17,2.36-.83,1.18-1.64,2.04-1.82,1.91-.18-.13.35-1.18,1.17-2.36s1.64-2.04,1.82-1.91Z"/>
      <path class="cls-10" d="M211.69,808.89c.08.2-1.03.85-2.49,1.44-1.46.59-2.7.91-2.78.71s1.03-.85,2.49-1.44c1.45-.59,2.7-.91,2.78-.71Z"/>
      <path class="cls-10" d="M216.96,824.43c.09.19-1.39,1.03-3.41,1.49-2.02.46-3.71.34-3.72.13-.01-.23,1.6-.45,3.54-.9,1.94-.43,3.49-.92,3.58-.72Z"/>
      <path class="cls-10" d="M192.75,820.02c-.21-.06-.06-1.14.34-2.4s.88-2.23,1.09-2.16c.21.06.06,1.14-.34,2.4-.4,1.26-.88,2.23-1.09,2.16Z"/>
      <path class="cls-10" d="M196.12,839.53c-.2-.09.24-1.53.97-3.23s1.5-3,1.7-2.92c.2.09-.24,1.53-.97,3.23-.73,1.7-1.5,3-1.7,2.92Z"/>
      <path class="cls-10" d="M187.78,844.87c-.09.2-1.45-.17-3.09-.68-1.65-.52-2.98-.99-2.93-1.21.04-.21,1.48-.08,3.17.45,1.68.53,2.94,1.24,2.86,1.43Z"/>
      <path class="cls-10" d="M192.59,860.78c.13.18-.79,1.05-2.06,1.95s-2.39,1.49-2.52,1.31c-.13-.18.79-1.05,2.06-1.95,1.26-.9,2.39-1.49,2.52-1.31Z"/>
      <path class="cls-10" d="M196.45,876.64c.05.21-1.09.67-2.54,1.02-1.46.36-2.68.47-2.73.26-.05-.21,1.09-.67,2.54-1.02,1.46-.36,2.68-.47,2.73-.26Z"/>
      <path class="cls-10" d="M217.39,837.68c.11.18-.86.96-2.28,1.49-1.42.54-2.66.6-2.7.39-.04-.22,1.07-.61,2.42-1.13,1.35-.5,2.45-.94,2.56-.75Z"/>
      <path class="cls-10" d="M220.38,862.36c-.09.2-1.25-.15-2.59-.78-1.34-.63-2.35-1.3-2.25-1.5.09-.2,1.25.15,2.59.78,1.34.63,2.35,1.3,2.25,1.5Z"/>
      <path class="cls-10" d="M225.66,880.01c-.08.2-1.61-.21-3.42-.92-1.81-.71-3.21-1.45-3.13-1.65s1.61.21,3.42.92c1.81.71,3.21,1.45,3.13,1.65Z"/>
      <path class="cls-10" d="M197.29,893.85c-.11-.2,1.3-1.15,2.93-2.43,1.64-1.28,2.89-2.42,3.06-2.27.16.14-.87,1.57-2.57,2.89-1.69,1.33-3.32,2-3.42,1.81Z"/>
      <path class="cls-10" d="M211.26,884.87c-.23.03-.53-1.16-1.07-2.54-.53-1.38-1.1-2.47-.92-2.6.17-.13,1.08.82,1.65,2.31.58,1.49.54,2.81.33,2.82Z"/>
      <path class="cls-10" d="M207.55,863.63c-.13.18-1.03-.25-2.01-.96-.98-.71-1.68-1.42-1.55-1.6s1.03.25,2.01.96c.98.71,1.68,1.42,1.55,1.6Z"/>
      <path class="cls-10" d="M240.1,830.35c.13.18-.75,1.04-1.96,1.94-1.21.89-2.3,1.48-2.43,1.3-.13-.17.75-1.04,1.96-1.94,1.21-.9,2.3-1.48,2.43-1.3Z"/>
      <path class="cls-10" d="M245,843.76c.02.21-1.36.5-3.06.31-1.7-.18-2.99-.76-2.92-.96.06-.22,1.38,0,3,.17,1.62.18,2.95.25,2.97.47Z"/>
      <path class="cls-10" d="M223.92,846.77c.05.21-1.23.67-2.87.77-1.65.11-2.97-.17-2.95-.38.02-.22,1.31-.3,2.9-.41,1.58-.1,2.88-.2,2.92.02Z"/>
      <path class="cls-10" d="M225.73,834.09c-.02.21-1.3.24-2.71-.41-1.41-.64-2.22-1.64-2.08-1.79.15-.17,1.12.49,2.41,1.07,1.28.6,2.41.9,2.38,1.13Z"/>
      <path class="cls-10" d="M246.81,858.16c-.12.18-1.43-.44-2.94-1.39-1.51-.95-2.64-1.87-2.52-2.06s1.43.44,2.94,1.39c1.51.95,2.64,1.87,2.52,2.06Z"/>
      <g>
        <rect class="cls-7" x="185.78" y="895.78" width="112.48" height="19.94"/>
        <polygon class="cls-7" points="194.18 911.76 207.85 971.34 274.89 971.34 289.85 911.76 194.18 911.76"/>
        <path class="cls-10" d="M298.19,915.74c0,.22-25.37.4-56.66.4s-56.67-.18-56.67-.4,25.37-.4,56.67-.4,56.66.18,56.66.4Z"/>
      </g>
      <path class="cls-10" d="M235.64,847.2c-.18.12-.95-.78-1.72-2-.76-1.22-1.23-2.31-1.05-2.42s.95.78,1.72,2c.77,1.22,1.23,2.31,1.05,2.42Z"/>
      <path class="cls-10" d="M235.68,863.24c-.21-.07.06-1.42.59-3.03s1.13-2.85,1.34-2.78c.21.07-.06,1.42-.59,3.03-.53,1.6-1.13,2.85-1.34,2.78Z"/>
      <path class="cls-10" d="M241.17,880.08c-.2.1-1.04-1.25-1.88-3.01-.84-1.76-1.36-3.25-1.16-3.35.2-.09,1.04,1.25,1.88,3.01.84,1.75,1.36,3.25,1.16,3.35Z"/>
      <path class="cls-10" d="M229.29,893.63c-.16-.14.51-1.19,1.5-2.33.99-1.14,1.93-1.95,2.1-1.81.16.14-.51,1.19-1.5,2.33-.99,1.14-1.93,1.95-2.1,1.81Z"/>
      <path class="cls-10" d="M226.8,869.03c-.04.22-1.12.2-2.42-.02-1.3-.23-2.32-.59-2.28-.8.04-.22,1.12-.2,2.42.02,1.3.23,2.32.59,2.28.8Z"/>
    </g>
  </g>
  <g id="Floor">
    <path class="cls-10" d="M949.44,970.7c0,.29-201.23.53-449.41.53s-449.46-.24-449.46-.53,201.19-.53,449.46-.53,449.41.24,449.41.53Z"/>
  </g>
  <g id="Screens">
    <g>
      <polygon class="cls-6" points="548.95 383.71 561.82 383.67 561.39 232.74 341.56 233.37 341.99 384.31 524.23 383.78 547.4 408.54 548.95 383.71"/>
      <g>
        <path class="cls-10" d="M358.48,368.12c-.27,0-.55-25.6-.65-57.18-.09-31.59.05-57.19.32-57.19.27,0,.55,25.6.65,57.18.09,31.58-.05,57.18-.32,57.18Z"/>
        <path class="cls-9" d="M549.2,351.82c0,.27-42.87.6-95.75.76-52.89.15-95.76.06-95.76-.2s42.86-.6,95.76-.76c52.87-.15,95.75-.06,95.75.2Z"/>
        <path class="cls-9" d="M549.15,335.04c0,.27-42.87.6-95.75.76-52.89.15-95.76.06-95.76-.2s42.86-.6,95.76-.76c52.87-.15,95.75-.06,95.75.2Z"/>
        <path class="cls-9" d="M549.11,318.26c0,.27-42.87.6-95.75.76-52.89.15-95.76.06-95.76-.2s42.86-.6,95.76-.76c52.87-.15,95.75-.06,95.75.2Z"/>
        <path class="cls-9" d="M549.06,301.48c0,.27-42.87.6-95.75.76-52.89.15-95.76.06-95.76-.2s42.86-.6,95.76-.76c52.87-.15,95.75-.06,95.75.2Z"/>
        <path class="cls-9" d="M549.01,284.7c0,.27-42.87.6-95.75.76-52.89.15-95.76.06-95.76-.2s42.86-.6,95.76-.76c52.87-.15,95.75-.06,95.75.2Z"/>
        <path class="cls-9" d="M548.96,267.92c0,.27-42.87.6-95.75.76-52.89.15-95.76.06-95.76-.2s42.86-.6,95.76-.76c52.87-.15,95.75-.06,95.75.2Z"/>
        <path class="cls-9" d="M548.91,251.15c0,.27-42.87.6-95.75.76-52.89.15-95.76.06-95.76-.2s42.86-.6,95.76-.76c52.87-.15,95.75-.06,95.75.2Z"/>
        <rect class="cls-7" x="370.67" y="341.91" width="13.73" height="26.15" transform="translate(-1.03 1.1) rotate(-.17)"/>
        <rect class="cls-7" x="470.41" y="341.61" width="13.73" height="26.15" transform="translate(-1.03 1.39) rotate(-.17)"/>
        <rect class="cls-7" x="397.57" y="322.61" width="13.73" height="45.38" transform="translate(-1 1.17) rotate(-.17)"/>
        <rect class="cls-7" x="447.88" y="310.64" width="13.73" height="57.18" transform="translate(-.98 1.32) rotate(-.17)"/>
        <rect class="cls-7" x="422.99" y="275.98" width="13.73" height="91.93" transform="translate(-.93 1.25) rotate(-.17)"/>
        <rect class="cls-7" x="496.94" y="292.77" width="13.73" height="74.92" transform="translate(-.96 1.46) rotate(-.17)"/>
        <path class="cls-10" d="M527.14,367.63c0,.27-37.68.59-84.16.72-46.49.13-84.17.03-84.17-.24s37.68-.59,84.17-.72c46.47-.13,84.16-.03,84.16.24Z"/>
      </g>
    </g>
    <g>
      <polygon class="cls-6" points="316.37 155.81 54.49 156.3 54.49 363.25 281.97 363.25 304.36 387.17 305.85 363.25 316.21 363.25 316.37 155.81"/>
      <g>
        <path class="cls-10" d="M298.61,343.82s-.3.02-.9.04c-.62,0-1.5.02-2.64.04-2.35.02-5.77.04-10.16.07-8.85.03-21.6.06-37.36.11-31.56.03-75.13.06-123.25.11-18.66,0-36.64-.01-53.15-.02h-.34v-.34c.05-35.21.1-65.5.13-87,.04-10.72.08-19.26.1-25.14.02-2.91.04-5.16.05-6.71.01-.74.02-1.32.03-1.73.01-.39.03-.59.03-.59,0,0,.02.2.03.59,0,.41.02.98.03,1.73.01,1.55.03,3.8.05,6.71.02,5.88.06,14.41.1,25.14.03,21.51.08,51.79.13,87l-.34-.34c16.51,0,34.49-.01,53.15-.02,48.12.04,91.68.08,123.25.11,15.76.05,28.51.09,37.36.11,4.39.03,7.81.05,10.16.07,1.14.02,2.02.03,2.64.04.6,0,.9.03.9.03Z"/>
        <rect class="cls-7" x="89.65" y="313.88" width="22.98" height="22.98"/>
        <rect class="cls-1" x="123.33" y="297.46" width="22.98" height="39.4"/>
        <rect class="cls-7" x="157.15" y="278.8" width="22.98" height="58.06"/>
        <rect class="cls-1" x="189.93" y="258.03" width="22.98" height="78.83"/>
        <rect class="cls-7" x="223.48" y="231.44" width="22.98" height="105.42"/>
        <rect class="cls-1" x="256.78" y="211.16" width="22.98" height="124.61"/>
        <g class="cls-13">
          <rect class="cls-12" x="123.33" y="297.46" width="22.98" height="39.4"/>
        </g>
        <g class="cls-13">
          <rect class="cls-12" x="189.93" y="258.03" width="22.98" height="78.83"/>
        </g>
        <g class="cls-13">
          <rect class="cls-12" x="256.78" y="211.16" width="22.98" height="124.61"/>
        </g>
        <path class="cls-10" d="M89.65,290.33s.09-.09.29-.23c.23-.16.52-.36.89-.62.83-.55,2-1.34,3.5-2.34,3.1-2.04,7.57-4.99,13.17-8.68,11.31-7.39,27.18-17.76,45.59-29.8l.53-.34v.63c0,3.25,0,6.74,0,10.28l-.55-.29c5.8-3.89,11.81-7.92,17.97-12.05,24.75-16.53,47.15-31.5,63.4-42.36,8.11-5.38,14.68-9.73,19.26-12.77,2.26-1.48,4.02-2.63,5.26-3.44.58-.37,1.04-.66,1.38-.88.31-.19.48-.29.48-.28s-.14.13-.44.34c-.33.23-.77.54-1.34.94-1.22.83-2.96,2.03-5.18,3.55-4.55,3.08-11.08,7.5-19.13,12.96-16.22,10.9-38.58,25.93-63.29,42.53-6.16,4.12-12.17,8.15-17.98,12.04l-.55.37v-.66c0-3.55,0-7.03,0-10.28l.53.29c-18.47,11.95-34.39,22.25-45.73,29.58-5.65,3.62-10.15,6.51-13.28,8.51-1.53.97-2.72,1.72-3.56,2.25-.39.24-.69.42-.93.57-.2.13-.31.18-.32.18Z"/>
        <path class="cls-10" d="M260.83,196.89c-.09,0-.18-1.07-.24-2.83-.06-1.76-.11-4.2-.11-6.94l.36.36c-.28,0-.58,0-.88,0-2.94,0-5.61-.04-7.53-.11-1.93-.06-3.12-.15-3.12-.25s1.19-.19,3.12-.25c1.93-.06,4.59-.11,7.53-.11.3,0,.6,0,.88,0h.36v.36c0,2.74-.05,5.18-.11,6.94-.06,1.76-.15,2.83-.24,2.83Z"/>
        <rect class="cls-10" x="54.49" y="155.16" width="261.88" height="19.28"/>
        <path class="cls-11" d="M69.51,164.08c0,1.81-1.47,3.27-3.27,3.27s-3.27-1.47-3.27-3.27,1.47-3.27,3.27-3.27,3.27,1.47,3.27,3.27Z"/>
        <path class="cls-11" d="M80.03,164.08c0,1.81-1.47,3.27-3.27,3.27s-3.27-1.47-3.27-3.27,1.47-3.27,3.27-3.27,3.27,1.47,3.27,3.27Z"/>
        <circle class="cls-11" cx="87.27" cy="164.08" r="3.27"/>
      </g>
    </g>
    <g>
      <polygon class="cls-6" points="815.46 26 418.35 26 418.35 209.58 713.06 209.58 714.67 235.48 738.91 209.58 815.46 209.58 815.46 26"/>
      <g>
        <g>
          <g>
            <g>
              <path class="cls-10" d="M446.29,152.81v5.8h-.6v-5.27h-1.37v-.53h1.96Z"/>
              <path class="cls-10" d="M447.68,155.71c0-1.85.97-2.95,2.31-2.95s2.32,1.1,2.32,2.95-.98,2.95-2.32,2.95-2.31-1.1-2.31-2.95ZM451.69,155.71c0-1.55-.69-2.4-1.71-2.4s-1.71.85-1.71,2.4.7,2.4,1.71,2.4,1.71-.85,1.71-2.4Z"/>
            </g>
            <g>
              <path class="cls-10" d="M448.64,122.04v.53h-4.07v-.42l2.41-2.36c.65-.65.78-1.03.78-1.43,0-.67-.47-1.09-1.36-1.09-.68,0-1.2.21-1.58.65l-.42-.37c.44-.53,1.17-.83,2.05-.83,1.18,0,1.92.6,1.92,1.57,0,.55-.17,1.05-.95,1.81l-1.97,1.94h3.19Z"/>
              <path class="cls-10" d="M449.36,119.67c0-1.85.97-2.95,2.31-2.95s2.32,1.1,2.32,2.95-.98,2.95-2.32,2.95-2.31-1.1-2.31-2.95ZM453.37,119.67c0-1.55-.69-2.4-1.71-2.4s-1.7.85-1.7,2.4.7,2.4,1.7,2.4,1.71-.85,1.71-2.4Z"/>
            </g>
            <g>
              <path class="cls-10" d="M448.51,84.86c0,.97-.71,1.71-2.1,1.71-.84,0-1.64-.29-2.09-.74l.29-.47c.37.39,1.04.67,1.8.67.96,0,1.49-.45,1.49-1.17s-.49-1.15-1.57-1.15h-.41v-.44l1.61-2.01h-2.96v-.53h3.73v.42l-1.64,2.06c1.24.06,1.86.72,1.86,1.65Z"/>
              <path class="cls-10" d="M449.36,83.63c0-1.85.97-2.95,2.31-2.95s2.32,1.1,2.32,2.95-.98,2.95-2.32,2.95c-1.34,0-2.31-1.1-2.31-2.95ZM453.37,83.63c0-1.55-.69-2.4-1.71-2.4s-1.7.85-1.7,2.4.7,2.4,1.7,2.4,1.71-.85,1.71-2.4Z"/>
            </g>
          </g>
          <g>
            <path class="cls-10" d="M471.87,174.72c0-1.85.97-2.95,2.31-2.95s2.32,1.1,2.32,2.95-.98,2.95-2.32,2.95-2.31-1.1-2.31-2.95ZM475.89,174.72c0-1.55-.69-2.4-1.71-2.4s-1.71.85-1.71,2.4.7,2.4,1.71,2.4c1.01,0,1.71-.85,1.71-2.4Z"/>
            <path class="cls-10" d="M514.77,171.82v5.8h-.6v-5.27h-1.37v-.53h1.96Z"/>
            <path class="cls-10" d="M559.99,177.09v.53h-4.07v-.42l2.41-2.36c.66-.65.78-1.03.78-1.43,0-.67-.47-1.09-1.36-1.09-.68,0-1.2.21-1.58.65l-.42-.36c.44-.53,1.17-.83,2.05-.83,1.18,0,1.92.6,1.92,1.56,0,.55-.17,1.05-.95,1.81l-1.97,1.94h3.19Z"/>
            <path class="cls-10" d="M602.74,175.95c0,.97-.71,1.71-2.1,1.71-.84,0-1.64-.29-2.09-.74l.29-.47c.37.39,1.04.67,1.8.67.96,0,1.49-.45,1.49-1.17s-.49-1.15-1.57-1.15h-.41v-.44l1.61-2.01h-2.96v-.53h3.73v.42l-1.64,2.06c1.25.06,1.87.72,1.87,1.65Z"/>
            <path class="cls-10" d="M646.7,176.1h-1.16v1.52h-.59v-1.52h-3.27v-.43l3.07-3.84h.66l-2.96,3.74h2.52v-1.34h.58v1.34h1.16v.53Z"/>
            <path class="cls-10" d="M688.57,175.91c0,.99-.69,1.76-2.1,1.76-.84,0-1.63-.29-2.08-.74l.29-.47c.37.39,1.03.67,1.78.67.98,0,1.51-.48,1.51-1.18,0-.74-.46-1.21-1.94-1.21h-1.24l.3-2.91h3.17v.53h-2.65l-.2,1.85h.74c1.75,0,2.41.69,2.41,1.71Z"/>
            <path class="cls-10" d="M731.86,175.89c0,1.08-.85,1.78-1.98,1.78-1.54,0-2.38-1.07-2.38-2.9,0-1.97,1.08-3,2.65-3,.52,0,1.01.09,1.37.31l-.24.48c-.3-.2-.69-.27-1.13-.27-1.25,0-2.05.8-2.05,2.38,0,.13,0,.3.02.47.29-.64.97-.99,1.77-.99,1.15,0,1.96.68,1.96,1.74ZM731.27,175.91c0-.76-.56-1.25-1.46-1.25s-1.49.55-1.49,1.27c0,.64.53,1.24,1.53,1.24.84,0,1.41-.49,1.41-1.26Z"/>
            <path class="cls-10" d="M774.46,171.82v.42l-2.43,5.37h-.65l2.39-5.27h-2.98v1.09h-.59v-1.62s4.25,0,4.25,0Z"/>
          </g>
          <g>
            <path class="cls-10" d="M774.77,155.99c0,.31-67.09.56-149.82.56s-149.84-.25-149.84-.56,67.07-.56,149.84-.56c82.74,0,149.82.25,149.82.56Z"/>
            <path class="cls-10" d="M774.77,119.76c0,.31-67.09.56-149.82.56s-149.84-.25-149.84-.56,67.07-.56,149.84-.56,149.82.25,149.82.56Z"/>
            <path class="cls-10" d="M774.77,83.54c0,.31-67.09.56-149.82.56s-149.84-.25-149.84-.56,67.07-.56,149.84-.56,149.82.25,149.82.56Z"/>
            <g>
              <path class="cls-7" d="M475.11,155.45c0,1.06-.86,1.93-1.92,1.93s-1.92-.86-1.92-1.93.86-1.92,1.92-1.92c1.06,0,1.92.86,1.92,1.92Z"/>
              <path class="cls-7" d="M518.19,155.45c0,1.06-.86,1.93-1.92,1.93s-1.92-.86-1.92-1.93.86-1.92,1.92-1.92,1.92.86,1.92,1.92Z"/>
              <path class="cls-7" d="M561.28,155.45c0,1.06-.86,1.93-1.92,1.93s-1.92-.86-1.92-1.93.86-1.92,1.92-1.92,1.92.86,1.92,1.92Z"/>
              <path class="cls-7" d="M604.36,155.45c0,1.06-.86,1.93-1.92,1.93s-1.92-.86-1.92-1.93.86-1.92,1.92-1.92,1.92.86,1.92,1.92Z"/>
              <path class="cls-7" d="M647.44,155.45c0,1.06-.86,1.93-1.92,1.93s-1.92-.86-1.92-1.93.86-1.92,1.92-1.92c1.06,0,1.92.86,1.92,1.92Z"/>
              <path class="cls-7" d="M733.61,155.45c0,1.06-.86,1.93-1.92,1.93s-1.92-.86-1.92-1.93.86-1.92,1.92-1.92c1.06,0,1.92.86,1.92,1.92Z"/>
              <path class="cls-7" d="M690.53,155.45c0,1.06-.86,1.93-1.92,1.93s-1.92-.86-1.92-1.93.86-1.92,1.92-1.92,1.92.86,1.92,1.92Z"/>
              <path class="cls-7" d="M776.7,155.45c0,1.06-.86,1.93-1.92,1.93s-1.92-.86-1.92-1.93.86-1.92,1.92-1.92c1.06,0,1.92.86,1.92,1.92Z"/>
            </g>
            <g>
              <path class="cls-3" d="M494.74,155.99c0,.7-.57,1.26-1.26,1.26s-1.26-.57-1.26-1.26.57-1.26,1.26-1.26,1.26.57,1.26,1.26Z"/>
              <path class="cls-3" d="M537.99,155.99c0,.7-.57,1.26-1.26,1.26s-1.26-.57-1.26-1.26.57-1.26,1.26-1.26,1.26.57,1.26,1.26Z"/>
              <path class="cls-3" d="M581.23,155.99c0,.7-.57,1.26-1.26,1.26s-1.26-.57-1.26-1.26.57-1.26,1.26-1.26,1.26.57,1.26,1.26Z"/>
              <path class="cls-3" d="M624.48,155.99c0,.7-.57,1.26-1.26,1.26s-1.26-.57-1.26-1.26.57-1.26,1.26-1.26,1.26.57,1.26,1.26Z"/>
              <path class="cls-3" d="M667.73,155.99c0,.7-.57,1.26-1.26,1.26s-1.26-.57-1.26-1.26.57-1.26,1.26-1.26,1.26.57,1.26,1.26Z"/>
              <path class="cls-3" d="M710.97,155.99c0,.7-.57,1.26-1.26,1.26s-1.26-.57-1.26-1.26.57-1.26,1.26-1.26,1.26.57,1.26,1.26Z"/>
              <path class="cls-3" d="M754.22,155.99c0,.7-.57,1.26-1.26,1.26s-1.26-.57-1.26-1.26.57-1.26,1.26-1.26,1.26.57,1.26,1.26Z"/>
            </g>
          </g>
          <g>
            <path class="cls-7" d="M520.99,139.97c0,2.61-2.11,4.72-4.72,4.72s-4.72-2.11-4.72-4.72,2.11-4.72,4.72-4.72,4.72,2.11,4.72,4.72Z"/>
            <path class="cls-7" d="M558.58,117.79c0,2.61-2.11,4.72-4.72,4.72s-4.72-2.11-4.72-4.72,2.11-4.72,4.72-4.72,4.72,2.11,4.72,4.72Z"/>
            <path class="cls-7" d="M605.23,119.76c0,2.61-2.11,4.72-4.72,4.72s-4.72-2.11-4.72-4.72,2.11-4.72,4.72-4.72,4.72,2.11,4.72,4.72Z"/>
            <path class="cls-7" d="M650.78,79.44c0,2.61-2.11,4.72-4.72,4.72s-4.72-2.11-4.72-4.72,2.11-4.72,4.72-4.72c2.61,0,4.72,2.11,4.72,4.72Z"/>
            <path class="cls-7" d="M693.32,105.08c0,2.61-2.11,4.72-4.72,4.72s-4.72-2.11-4.72-4.72,2.11-4.72,4.72-4.72,4.72,2.11,4.72,4.72Z"/>
            <path class="cls-7" d="M736.41,111.91c0,2.61-2.11,4.72-4.72,4.72s-4.72-2.11-4.72-4.72,2.11-4.72,4.72-4.72,4.72,2.11,4.72,4.72Z"/>
            <path class="cls-7" d="M776.7,139.97s-.38.04-1.11,0c-.73-.05-1.82-.14-3.22-.43-2.76-.57-7.01-1.76-11.21-5.32-2.09-1.76-3.99-4.21-5.51-7.16-1.52-2.9-3.35-5.97-5.77-8.93-2.43-2.87-5.57-5.8-9.74-6.79-2.06-.5-4.29-.41-6.44.23-2.15.67-4.17,1.85-5.98,3.38-3.67,3.07-6.37,7.43-9.94,11.38-1.78,1.96-3.86,3.88-6.47,5.03-2.6,1.12-5.62,1.47-8.51.7-2.95-.79-5.19-3.26-6.47-5.95-1.34-2.71-2.08-5.66-2.79-8.6-.73-2.94-1.31-5.98-2.57-8.73-.63-1.36-1.5-2.63-2.76-3.31-1.29-.7-2.82-.85-4.35-.85-3.11.16-6.23,1.06-9.47,1.67-1.63.29-3.28.58-5,.57-1.69,0-3.48-.2-5.08-.99-1.67-.67-2.94-2-4.03-3.38-.97-1.45-1.82-2.98-2.47-4.58-1.37-3.19-2.27-6.53-3.51-9.74-.64-1.58-1.32-3.18-2.28-4.56-.96-1.37-2.21-2.53-3.74-3.11-.39-.11-.78-.26-1.18-.36l-1.24-.12c-.82-.05-1.58.11-2.31.47-1.44.73-2.53,2.14-3.45,3.6-1.78,3.01-2.97,6.44-4,9.9-1.03,3.47-1.89,7.03-2.73,10.62-1.38,5.94-2.61,11.87-4.14,17.67-.77,2.9-1.6,5.77-2.65,8.56-1.08,2.77-2.31,5.55-4.47,7.77-1.1,1.07-2.61,1.9-4.25,1.89-1.57,0-3.07-.56-4.35-1.32-2.59-1.56-4.49-3.85-6.12-6.19-3.27-4.72-5.36-9.98-7.39-15-2.07-4.98-4.4-9.9-8.25-13.28-3.78-3.35-9.2-4.6-13.85-3.38-2.35.59-4.56,1.64-6.59,2.9-2.06,1.23-3.96,2.66-5.76,4.16-3.59,3.01-6.8,6.29-9.61,9.66l-.02.02h0c-4.6,4.6-9.41,8.49-14.23,11.83-4.82,3.32-9.7,6.05-14.57,7.9-4.86,1.8-9.76,2.87-14.27,2.38-4.48-.44-8.42-1.66-11.89-2.88-6.92-2.51-12.01-5.22-15.43-7.06-1.71-.94-2.99-1.69-3.85-2.21-.86-.52-1.27-.83-1.27-.83,0,0,.46.23,1.34.71.92.5,2.22,1.19,3.91,2.09,3.46,1.76,8.57,4.39,15.48,6.81,3.45,1.17,7.38,2.35,11.77,2.74,4.38.44,9.18-.63,13.96-2.44,4.79-1.85,9.6-4.57,14.37-7.89,4.75-3.33,9.54-7.24,14.05-11.78l-.03.03c2.85-3.45,6.06-6.76,9.7-9.83,1.82-1.53,3.75-3,5.86-4.26,2.08-1.3,4.37-2.4,6.85-3.03,4.99-1.31,10.7,0,14.77,3.56,4.09,3.58,6.47,8.64,8.56,13.65,2.05,5.05,4.12,10.2,7.31,14.79,1.57,2.27,3.43,4.46,5.78,5.86,1.17.69,2.47,1.17,3.81,1.16,1.29,0,2.49-.64,3.47-1.58,1.93-1.97,3.16-4.67,4.2-7.37,1.03-2.73,1.85-5.57,2.61-8.45,1.52-5.76,2.74-11.68,4.12-17.63.83-3.6,1.7-7.17,2.74-10.69,1.05-3.5,2.24-6.99,4.12-10.17.98-1.55,2.14-3.11,3.91-4.02.87-.44,1.9-.65,2.85-.59l1.41.14c.46.11.91.27,1.36.41,1.79.68,3.22,2.03,4.26,3.52,1.04,1.51,1.73,3.16,2.39,4.8,1.26,3.28,2.16,6.62,3.49,9.72,1.31,3.05,2.99,6.15,5.95,7.41,2.88,1.39,6.29.9,9.43.36,3.19-.59,6.33-1.5,9.63-1.67,1.65,0,3.36.15,4.89.98,1.54.84,2.52,2.33,3.18,3.77,1.33,2.94,1.89,6,2.61,8.93.7,2.93,1.43,5.83,2.69,8.4,1.23,2.57,3.23,4.76,5.87,5.48,2.61.71,5.48.41,7.88-.63,2.44-1.06,4.44-2.87,6.19-4.79,3.51-3.86,6.25-8.25,10.07-11.41,1.88-1.58,4.02-2.81,6.27-3.5,2.27-.66,4.65-.74,6.83-.2,4.41,1.1,7.6,4.16,10.06,7.09,2.43,3.02,4.25,6.14,5.76,9.08,1.47,2.93,3.29,5.32,5.32,7.08,4.06,3.55,8.24,4.8,10.96,5.43,1.38.32,2.46.45,3.18.54.73.07,1.11.08,1.11.11Z"/>
          </g>
        </g>
        <path class="cls-10" d="M521.44,58.71c0,.31-16.73.56-37.36.56s-37.36-.25-37.36-.56,16.72-.56,37.36-.56c20.63,0,37.36.25,37.36.56Z"/>
      </g>
    </g>
    <g>
      <polygon class="cls-6" points="905.98 243.83 741.82 243.83 741.82 398.11 760.49 398.11 760.49 425.57 786.19 398.11 905.98 398.11 905.98 243.83"/>
      <g>
        <g>
          <g>
            <path class="cls-10" d="M823.17,261.31c-27.97,0-50.65,22.68-50.65,50.65s22.68,50.65,50.65,50.65,50.65-22.68,50.65-50.65-22.68-50.65-50.65-50.65ZM823.94,342.32c-17.18,0-31.12-13.93-31.12-31.12s13.93-31.12,31.12-31.12,31.12,13.93,31.12,31.12c0,17.18-13.93,31.12-31.12,31.12Z"/>
            <g>
              <path class="cls-7" d="M823.95,261.33c0,5.39,0,12.66,0,18.75,17.18,0,31.11,13.93,31.11,31.12,0,3.29-.51,6.46-1.46,9.43l18.36,4.98c1.21-4.34,1.88-8.92,1.88-13.65,0-27.71-22.26-50.22-49.88-50.63Z"/>
              <path class="cls-5" d="M792.82,311.2c0-12.67,7.58-23.56,18.44-28.42l-7.79-17.5c-18.19,7.68-30.95,25.69-30.95,46.68,0,.71.02,1.42.05,2.13h20.39c-.09-.95-.14-1.92-.14-2.89Z"/>
              <path class="cls-7" d="M823.94,342.32c-2.26,0-4.46-.25-6.58-.7-.78,4.52-2.26,13.26-3.42,20.15,3,.55,6.08.86,9.24.86,23.24,0,42.82-15.66,48.78-37l-18.36-4.98c-4,12.57-15.76,21.68-29.66,21.68Z"/>
              <g class="cls-14">
                <path class="cls-2" d="M823.94,342.32c-2.26,0-4.46-.25-6.58-.7-.78,4.52-2.26,13.26-3.42,20.15,3,.55,6.08.86,9.24.86,23.24,0,42.82-15.66,48.78-37l-18.36-4.98c-4,12.57-15.76,21.68-29.66,21.68Z"/>
              </g>
            </g>
          </g>
          <g>
            <path class="cls-10" d="M817.22,313.72h-1.88v2.42h-2.6v-2.42h-6.2v-1.79l5.43-7.3h2.8l-5.03,6.92h3.09v-2.15h2.52v2.15h1.88v2.17Z"/>
            <path class="cls-10" d="M818,310.38c0-3.8,2.1-5.95,4.93-5.95s4.93,2.16,4.93,5.95-2.09,5.95-4.93,5.95-4.93-2.16-4.93-5.95ZM825.19,310.38c0-2.61-.92-3.7-2.25-3.7s-2.24,1.09-2.24,3.7.92,3.7,2.24,3.7c1.33,0,2.25-1.09,2.25-3.7Z"/>
            <path class="cls-10" d="M828.97,307.67c0-1.94,1.18-3.17,2.86-3.17s2.85,1.22,2.85,3.17-1.17,3.17-2.85,3.17-2.86-1.23-2.86-3.17ZM833.03,307.67c0-1.23-.48-1.82-1.2-1.82s-1.2.61-1.2,1.82.49,1.83,1.2,1.83c.72,0,1.2-.59,1.2-1.83ZM838.69,304.63h1.96l-7.86,11.51h-1.96l7.86-11.51ZM836.8,313.1c0-1.94,1.18-3.17,2.85-3.17s2.86,1.23,2.86,3.17-1.18,3.17-2.86,3.17-2.85-1.23-2.85-3.17ZM840.84,313.1c0-1.22-.48-1.83-1.2-1.83s-1.2.59-1.2,1.83.49,1.83,1.2,1.83,1.2-.61,1.2-1.83Z"/>
          </g>
        </g>
        <g>
          <path class="cls-10" d="M865.09,375.4c0,.27-18.77.48-41.91.48s-41.91-.22-41.91-.48,18.76-.48,41.91-.48,41.91.22,41.91.48Z"/>
          <path class="cls-10" d="M846.42,383.1c0,.27-10.41.48-23.25.48s-23.25-.22-23.25-.48,10.41-.48,23.25-.48,23.25.22,23.25.48Z"/>
        </g>
      </g>
    </g>
  </g>
  <g id="Desk">
    <g>
      <g>
        <rect class="cls-5" x="73.38" y="641.55" width="592.43" height="25.24"/>
        <path class="cls-10" d="M198.88,641.92s-.05.1-.19.27c-.14.17-.33.43-.62.76-.59.62-1.53,1.51-2.98,2.32-1.44.8-3.38,1.52-5.72,1.87-2.33.39-5.03.44-7.98.34-2.97-.1-6.19-.54-9.61-1.08-3.42-.52-7.07-1.16-10.94-1.27-7.76-.27-16.2,1.71-24.63,4.65-8.45,2.94-16.35,6.29-23.91,8.33-3.77,1.03-7.43,1.76-10.9,2.11-3.47.35-6.74.29-9.69-.02-5.92-.63-10.46-2.48-13.28-4.14-2.84-1.68-4.11-2.99-4.11-2.99,0-.01.11.05.29.18.21.15.47.34.79.57.69.51,1.74,1.22,3.17,2,2.84,1.57,7.35,3.32,13.2,3.88,2.92.28,6.14.3,9.57-.07,3.43-.37,7.05-1.11,10.78-2.15,7.49-2.06,15.35-5.41,23.85-8.37,8.47-2.96,17.01-4.95,24.9-4.63,3.93.13,7.6.8,11.02,1.34,3.42.56,6.6,1.03,9.53,1.16,2.93.13,5.6.11,7.9-.23,2.31-.31,4.21-.97,5.65-1.72,2.87-1.56,3.84-3.21,3.92-3.11Z"/>
        <path class="cls-10" d="M134.08,642.31s-.61.57-1.79,1.49c-1.2.91-3.02,2.12-5.4,3.39-2.41,1.22-5.38,2.53-8.84,3.5-3.46.96-7.39,1.63-11.55,1.76-8.35.29-15.79-1.79-20.65-4.15-2.44-1.21-4.14-2.71-4.98-3.97-.44-.62-.67-1.16-.81-1.52-.12-.38-.17-.57-.15-.58.08-.03.29.79,1.2,1.94.88,1.16,2.57,2.55,4.98,3.68,4.84,2.21,12.18,4.17,20.4,3.89,4.09-.13,7.96-.77,11.39-1.68,3.43-.92,6.37-2.17,8.78-3.32,2.39-1.2,4.24-2.34,5.48-3.17,1.23-.85,1.93-1.3,1.96-1.26Z"/>
        <path class="cls-10" d="M273.09,658.3s.32.1.92.32c.61.2,1.51.5,2.74.71,2.39.4,6.26.54,10.37-1.58l-.03.32c-3.11-2.36-7.53-4.41-12.86-4.88-5.26-.49-11.47.6-16.72,4.23-.63.44-1.23.98-1.29,1.64-.09.66.43,1.26,1.11,1.63.68.39,1.46.61,2.3.78.83.18,1.67.37,2.52.56,3.39.73,6.89,1.47,10.52,1.98,3.62.52,7.37.86,11.19.74,1.91-.04,3.83-.23,5.74-.54.96-.16,1.91-.34,2.86-.58.96-.2,1.88-.49,2.77-.87,1.39-.59,2.69-1.41,3.59-2.53.91-1.1,1.19-2.59.69-3.88-.48-1.3-1.62-2.29-2.82-3.06-1.22-.78-2.58-1.34-3.93-1.87-5.44-2.09-11.09-3-16.46-3.33-10.78-.61-20.49,1.41-28.09,4.24-7.63,2.84-13.27,6.33-16.91,9-1.81,1.36-3.2,2.44-4.09,3.23-.43.36-.78.65-1.04.86-.24.19-.37.29-.37.28s.1-.12.32-.33c.25-.23.58-.54,1-.92.86-.83,2.22-1.94,4.01-3.34,3.61-2.75,9.24-6.33,16.9-9.25,7.63-2.91,17.42-5,28.31-4.43,5.42.31,11.14,1.21,16.68,3.33,1.37.54,2.77,1.11,4.06,1.93,1.27.82,2.53,1.89,3.1,3.41.6,1.5.24,3.31-.79,4.55-1.01,1.26-2.41,2.12-3.87,2.75-.93.4-1.91.71-2.88.91-.97.25-1.94.43-2.91.59-1.95.31-3.9.5-5.84.54-3.88.12-7.66-.23-11.31-.77-3.65-.53-7.17-1.27-10.56-2.02-.85-.19-1.69-.38-2.52-.57-.84-.18-1.71-.42-2.48-.86-.39-.22-.76-.5-1.04-.89-.28-.38-.44-.89-.38-1.36.13-1,.92-1.61,1.57-2.08,5.43-3.72,11.78-4.78,17.15-4.25,5.43.52,9.91,2.65,13.05,5.09l.24.19-.27.13c-4.24,2.12-8.18,1.91-10.59,1.44-2.47-.51-3.62-1.23-3.62-1.23Z"/>
        <path class="cls-10" d="M349.32,642.58s.3.41.58,1.27c.29.85.54,2.17.39,3.79-.19,3.25-2.24,7.52-5.77,11.01-1.71,1.79-3.56,3.31-5.39,4.46-1.84,1.15-3.64,1.94-5.2,2.46-1.56.52-2.87.77-3.77.92-.91.13-1.41.16-1.42.12-.03-.13,1.99-.4,5.01-1.51,1.5-.56,3.24-1.38,5.01-2.53,1.76-1.16,3.55-2.64,5.23-4.4,3.45-3.42,5.47-7.47,5.79-10.58.4-3.12-.64-4.97-.46-5Z"/>
        <path class="cls-10" d="M455.71,665.46c-.07.06-.83-1.06-2.72-2.58-1.86-1.49-4.96-3.41-9.27-4.07-2.14-.36-4.52-.24-7.05.2-2.53.39-5.28,1.05-8.27.74-3.04-.27-5.76-2.06-8.23-3.93-2.48-1.92-5.13-3.73-8.27-4.78-6.26-2.18-12.88-1.81-18.37-.28-5.55,1.54-10.07,4.22-13.59,6.71-3.53,2.52-6.11,4.9-7.88,6.55-.83.8-1.5,1.44-2.01,1.93-.46.44-.71.67-.73.65-.02-.02.19-.27.62-.75.42-.48,1.07-1.16,1.92-2.03,1.71-1.72,4.25-4.17,7.77-6.76,3.52-2.56,8.06-5.33,13.71-6.93,5.59-1.6,12.36-2,18.8.24,3.23,1.07,6.01,2.98,8.46,4.89,2.46,1.88,5.03,3.57,7.88,3.83,2.82.32,5.54-.3,8.09-.67,2.55-.42,5.04-.52,7.23-.11,4.42.75,7.54,2.78,9.37,4.35,1.85,1.61,2.53,2.79,2.53,2.79Z"/>
        <path class="cls-10" d="M550.7,641.79s-.2.31-.65.86c-.46.54-1.07,1.39-2.03,2.35-1.8,2-4.71,4.66-8.65,7.49-3.94,2.82-9,5.73-15,8.1-3,1.19-6.23,2.25-9.68,3.01-3.44.76-7.07,1.34-10.82,1.36-7.53.04-14.56-1.77-20.54-4.16-5.99-2.42-11.02-5.38-14.93-8.25-3.91-2.87-6.79-5.55-8.59-7.55-.95-.96-1.57-1.81-2.03-2.34-.45-.55-.67-.84-.65-.86.02-.01.28.25.77.77.5.51,1.14,1.32,2.12,2.24,1.86,1.93,4.77,4.54,8.69,7.33,3.91,2.8,8.93,5.68,14.87,8.04,5.93,2.34,12.88,4.1,20.28,4.06,3.69-.02,7.28-.58,10.67-1.32,3.41-.73,6.61-1.78,9.59-2.94,5.96-2.31,11.01-5.15,14.96-7.9,3.95-2.75,6.89-5.33,8.74-7.27.98-.92,1.62-1.74,2.12-2.25.47-.52.74-.78.76-.77Z"/>
        <path class="cls-10" d="M537.12,641.55s-.16.16-.51.4c-.35.24-.85.6-1.53,1.01-1.35.86-3.36,2.01-5.93,3.27-2.58,1.25-5.73,2.61-9.38,3.72-3.64,1.1-7.79,2.03-12.23,2.04-8.9-.05-16.59-2.87-21.72-5.35-2.58-1.27-4.57-2.46-5.88-3.37-.67-.43-1.16-.82-1.5-1.07-.33-.25-.5-.4-.49-.42.03-.05.78.43,2.14,1.25,1.36.83,3.37,1.95,5.95,3.15,5.14,2.34,12.76,5.04,21.49,5.09,4.33,0,8.43-.89,12.03-1.95,3.62-1.06,6.76-2.36,9.35-3.55,2.59-1.2,4.62-2.27,6.01-3.06,1.39-.77,2.16-1.22,2.19-1.17Z"/>
        <path class="cls-10" d="M597.36,644.13s-.24.02-.68,0c-.53-.03-1.17-.07-1.94-.12-.43-.03-.9-.07-1.4-.1-.52,0-1.08,0-1.67-.01-1.2-.01-2.56-.05-4.06.06-.75.04-1.54.08-2.36.12-.82.09-1.67.19-2.54.29-1.76.15-3.61.55-5.57.87-3.89.82-8.1,1.99-12.38,3.6-4.27,1.66-8.17,3.6-11.6,5.56-1.67,1.05-3.31,1.98-4.72,3.02-.72.5-1.41.99-2.08,1.46-.64.5-1.25.99-1.84,1.45-1.2.89-2.18,1.81-3.07,2.6-.44.39-.85.75-1.24,1.09-.35.35-.68.68-.98.98-.55.53-1,.98-1.37,1.34-.32.3-.5.45-.52.44-.02-.02.12-.2.41-.53.35-.39.77-.87,1.28-1.44.29-.32.6-.66.94-1.03.38-.36.78-.74,1.2-1.14.86-.82,1.83-1.77,3.02-2.69.58-.48,1.19-.98,1.82-1.5.67-.48,1.36-.98,2.07-1.5,1.41-1.07,3.05-2.03,4.72-3.11,3.44-2.01,7.37-3.99,11.68-5.66,4.32-1.63,8.59-2.78,12.52-3.58,1.98-.3,3.85-.69,5.64-.82.89-.09,1.74-.17,2.57-.25.83-.03,1.62-.05,2.38-.08,1.52-.09,2.89-.01,4.09.04.59.02,1.15.05,1.68.07.5.06.97.12,1.4.17.77.1,1.41.18,1.93.25.44.06.67.11.66.14Z"/>
        <path class="cls-10" d="M466.35,664.95c-.08.06-.91-1.56-3.26-3.78-2.33-2.21-6.36-4.81-11.94-6.5-2.78-.85-5.92-1.48-9.32-2-3.4-.53-7.06-.94-10.89-1.58-3.84-.61-7.8-1.69-11.83-2.89-4.04-1.17-8.21-2.43-12.62-2.97-8.85-1.09-17.38.73-24.58,3.31-3.63,1.29-6.93,2.85-10,4.38-3.06,1.53-5.87,3.04-8.42,4.44-5.1,2.81-9.16,5.2-11.96,6.87-1.36.81-2.43,1.45-3.22,1.92-.34.2-.61.36-.84.49-.19.11-.29.16-.3.15,0-.01.08-.08.26-.21.22-.15.48-.33.8-.55.71-.48,1.77-1.17,3.15-2.04,2.75-1.74,6.78-4.2,11.85-7.07,2.54-1.43,5.34-2.97,8.4-4.53,3.06-1.55,6.39-3.15,10.04-4.47,7.26-2.64,15.9-4.51,24.91-3.4,4.49.55,8.7,1.82,12.73,3.01,4.03,1.21,7.93,2.28,11.74,2.91,3.8.66,7.46,1.09,10.87,1.65,3.41.55,6.57,1.21,9.38,2.11,5.63,1.77,9.69,4.48,11.98,6.78,2.33,2.31,3.06,3.98,3.06,3.98Z"/>
        <path class="cls-10" d="M332.92,641.92s.05.58-.09,1.61c-.13,1.03-.48,2.51-1.16,4.26-1.36,3.44-4.17,8.11-9.11,11.35-4.93,3.08-9.91,4.86-13.5,6.05-1.8.58-3.28,1-4.31,1.26-1.03.26-1.61.37-1.62.33-.01-.05.54-.25,1.54-.59,1.14-.4,2.55-.89,4.22-1.47,3.52-1.3,8.44-3.15,13.27-6.17,4.74-3.11,7.58-7.62,9.03-10.94,1.48-3.37,1.58-5.7,1.73-5.68Z"/>
        <path class="cls-10" d="M195.38,666.79s.48-.52,1.44-1.35c.95-.84,2.39-1.99,4.22-3.36,3.64-2.74,8.96-6.18,15.11-9.48,6.16-3.3,11.91-5.93,16.08-7.8,2.09-.93,3.79-1.67,4.97-2.16,1.18-.5,1.84-.75,1.86-.7s-.6.38-1.74.95c-1.27.62-2.91,1.41-4.87,2.37-4.12,1.98-9.82,4.69-15.95,7.97-6.13,3.29-11.45,6.64-15.15,9.27-1.85,1.31-3.34,2.4-4.34,3.17-1.01.76-1.59,1.17-1.62,1.13Z"/>
        <path class="cls-10" d="M223.3,642.96c0,.08-1.37-.17-3.82.01-2.44.19-5.97.97-9.88,2.93-3.96,1.88-8.14,5-12.84,8.39-2.36,1.68-4.9,3.41-7.73,4.88-2.83,1.48-5.97,2.62-9.25,3.47-6.6,1.65-13.08,2.04-18.93,2.22-5.86.17-11.12.05-15.53.23-4.41.15-7.96.57-10.39.99-1.21.22-2.15.4-2.78.54-.64.14-.97.19-.98.17,0-.02.32-.13.94-.31.62-.19,1.56-.42,2.77-.68,2.42-.51,5.99-1,10.42-1.22,4.43-.24,9.7-.18,15.53-.38,5.82-.22,12.26-.62,18.76-2.25,3.23-.84,6.31-1.95,9.1-3.4,2.79-1.44,5.3-3.14,7.67-4.8,4.7-3.35,8.96-6.47,13.01-8.31,4-1.92,7.61-2.65,10.09-2.75,1.24-.05,2.21.01,2.86.09.65.09.99.15.98.17Z"/>
        <path class="cls-10" d="M592.78,641.45c0,.2-24.76.36-55.29.36s-55.3-.16-55.3-.36,24.75-.36,55.3-.36,55.29.16,55.29.36Z"/>
      </g>
      <g>
        <polygon class="cls-5" points="95.63 970.7 87.22 970.7 82.42 664.84 100.43 664.84 95.63 970.7"/>
        <polygon class="cls-5" points="638.4 971.13 629.98 971.13 634.19 665.71 652.2 665.71 638.4 971.13"/>
      </g>
      <rect class="cls-5" x="590.7" y="641.55" width="75.12" height="25.24"/>
    </g>
    <g>
      <g>
        <path class="cls-10" d="M147.86,500.71c-.32-2.19-2.1-3.87-4.31-4.07-3.09-.28-5.63,2.42-5.16,5.49l20.99,128.11h9.58l-21.1-129.53Z"/>
        <path class="cls-10" d="M140.37,502.29l86.53-95.06.63,1.04,4.19,6.94-84.25,93.5c-2.08,2.31-5.77,2.05-7.52-.52-1.24-1.83-1.07-4.27.42-5.91Z"/>
        <path class="cls-5" d="M146.73,504.75c.06,0,.15-.2.11-.6-.03-.39-.23-.98-.8-1.47-.55-.49-1.52-.81-2.5-.47-.97.3-1.84,1.33-1.82,2.55-.01,1.22.85,2.25,1.82,2.55.98.33,1.95.02,2.5-.47.57-.49.77-1.09.8-1.47.04-.4-.05-.6-.11-.6-.15-.03-.16.89-1.1,1.53-.45.3-1.14.44-1.78.18-.64-.24-1.17-.92-1.16-1.7,0-.78.52-1.46,1.16-1.7.64-.26,1.33-.12,1.78.18.95.64.95,1.56,1.1,1.53Z"/>
        <path class="cls-5" d="M145.41,496.76c-.1-.09-1.09.83-2.61,2.39-.75.79-1.68,1.67-2.59,2.86-.88,1.16-1.73,2.84-1.36,4.72.42,1.9,2.05,3.07,3.52,3.46,1.53.44,3.01.03,3.98-.55,1.94-1.22,2.62-2.46,2.56-2.51-.12-.14-1.03.95-2.88,1.9-.92.45-2.14.71-3.41.3-1.24-.37-2.52-1.38-2.82-2.8-.29-1.44.35-2.9,1.14-4,.8-1.12,1.7-2.08,2.38-2.92,1.39-1.67,2.19-2.75,2.09-2.84Z"/>
      </g>
      <path class="cls-10" d="M206.94,641.55h-78.78s10.06-12.54,36.28-12.54c24.43,0,38.98,7.19,42.5,12.54Z"/>
      <g>
        <polygon class="cls-10" points="226.4 392.16 222.4 386.15 227.35 382.36 231.6 388.4 226.4 392.16"/>
        <path class="cls-7" d="M219.62,395.78l17.24-12.5,16.56,19.91c28.71,4.63,40.28,22.69,40.28,22.69l-51.4,39.36c-17.59-19.45-9.26-47.23-9.26-47.23l-13.43-22.22Z"/>
        <path class="cls-10" d="M233.05,418.01c.16.22,4.85-2.92,10.47-7.02,5.63-4.09,10.06-7.58,9.9-7.8-.16-.22-4.85,2.92-10.47,7.02-5.63,4.09-10.06,7.58-9.9,7.8Z"/>
      </g>
    </g>
    <g>
      <path class="cls-10" d="M515.14,534.19l-45.17,99.92c-1.87,4.14-7.55,7.5-12.09,7.56l-208.43-.28h0c.52-4.38,4.18-7.7,8.59-7.79l79.09-1.74,40.48-97.16c1.29-3.1,4.31-5.13,7.66-5.15l126.22-.96c2.89-.02,4.84,2.96,3.64,5.6Z"/>
      <path class="cls-5" d="M341.01,642.52s.25-.36.61-1.09c.41-.87.9-1.94,1.5-3.23,1.33-3.01,3.12-7.05,5.29-11.97,4.41-10.13,10.39-24.18,16.82-39.76,6.44-15.59,12.11-29.76,16.06-40.09,1.96-5.17,3.53-9.35,4.54-12.28.46-1.35.83-2.46,1.14-3.37.25-.78.36-1.19.32-1.21s-.23.37-.56,1.11c-.37.89-.82,1.97-1.37,3.28-1.24,3.05-2.9,7.14-4.92,12.12-4.27,10.39-10.03,24.42-16.4,39.93-6.4,15.5-12.19,29.52-16.47,39.9-2.02,4.98-3.68,9.08-4.91,12.13-.51,1.33-.93,2.42-1.28,3.32-.28.76-.41,1.17-.36,1.19Z"/>
      <path class="cls-12" d="M422.74,582.63c0,3.57,2.89,6.46,6.46,6.46s6.46-2.89,6.46-6.46-2.89-6.46-6.46-6.46-6.46,2.89-6.46,6.46Z"/>
    </g>
  </g>
  <g id="Character">
    <g>
      <g>
        <path class="cls-10" d="M606.14,280.86c2.36-5.42-.35-12.25-4.71-16.24-4.36-3.99-11.12-5-16.56-2.69-2.34.99-4.49,2.61-5.68,4.86-1.93,3.65-.89,8.37,1.74,11.55,2.63,3.18,6.56,5.03,10.55,6.1,2.84.76,5.86,1.17,8.72.49,2.86-.68,5.55-2.59,6.56-5.36"/>
        <path class="cls-10" d="M717.94,353.46c-4.04,1.34-8.42-2.22-9.38-6.32-.96-4.1.56-8.35,2.33-12.17s3.88-7.65,4.19-11.85c.53-7.16-4.19-13.54-6.25-20.42-4.27-14.31,2.93-31.06-4.56-44.01-3.64-6.29-8.68-11.06-15.46-13.83-8.05-3.29-17.2-2.37-22.59.73-9.44-6.02-21.48-7.91-32.35-5.07-10.86,2.84-20.38,10.37-25.55,20.22-3.48,6.62-5.06,14.17-9.18,20.43-3.15,4.78-7.87,9.05-8.34,14.74-.59,7.2,5.94,13.25,6.6,20.45.78,8.5-6.74,16.96-3.61,24.92,2.16,5.5,8.91,8.79,9.6,14.65.19,1.66-.12,3.46.71,4.91,1.51,2.64,5.89,4.49,8.96,4.31,35.92-2.18,66.35,3.18,98.4-5.05,1.69-.43,3.43-.95,4.77-2.05,1.35-1.1,2.22-2.94,1.7-4.58Z"/>
        <path class="cls-8" d="M619.38,272.51l-.38-7.54,45.02-10.02c13.92-1.91,29.45,11.62,30.77,25.6,1.46,15.54,2.64,34.57,1.15,46.24-2.99,23.47-20.8,27-20.8,27l.62,28.55-51.58-1.84-4.8-108Z"/>
        <path class="cls-10" d="M688.58,297.9c.11,1.58-1.15,2.97-2.79,3.11-1.65.14-3.07-1.02-3.17-2.61-.11-1.58,1.15-2.97,2.79-3.11,1.65-.14,3.07,1.03,3.18,2.61Z"/>
        <path class="cls-10" d="M690.15,290.64c-.36.4-2.68-1.21-5.91-1.1-3.22.06-5.54,1.79-5.9,1.41-.18-.17.18-.89,1.19-1.67.99-.78,2.7-1.56,4.71-1.61,2.01-.05,3.72.64,4.71,1.36,1.02.73,1.38,1.42,1.2,1.61Z"/>
        <path class="cls-10" d="M658.56,299.28c.11,1.58-1.15,2.97-2.79,3.11-1.65.14-3.07-1.02-3.17-2.61-.11-1.58,1.15-2.97,2.79-3.11,1.65-.14,3.07,1.02,3.17,2.61Z"/>
        <path class="cls-10" d="M658.48,292.22c-.36.4-2.68-1.21-5.91-1.1-3.22.06-5.54,1.79-5.9,1.41-.18-.17.18-.88,1.19-1.67.99-.78,2.7-1.56,4.71-1.61,2.01-.05,3.72.64,4.72,1.36,1.01.73,1.37,1.42,1.2,1.61Z"/>
        <path class="cls-10" d="M670.93,315.76c-.02-.18,1.97-.59,5.21-1.11.82-.11,1.6-.3,1.71-.86.17-.6-.2-1.48-.63-2.42-.84-1.97-1.71-4.03-2.63-6.19-3.66-8.82-6.33-16.08-5.98-16.23.36-.14,3.61,6.89,7.27,15.71.88,2.18,1.72,4.25,2.53,6.23.34.93.91,1.97.53,3.22-.2.62-.79,1.09-1.32,1.25-.52.18-.98.2-1.39.24-3.26.28-5.29.36-5.3.17Z"/>
        <path class="cls-4" d="M675.13,353.87s-16.48,1.48-32.34-7.4c0,0,8.4,16.11,32.51,13.22l-.16-5.83Z"/>
        <path class="cls-4" d="M669.8,323.58c-1.21-1.5-3.26-2.28-5.27-2-1.39.19-2.79.91-3.6,2.08-.82,1.16-.94,2.79-.14,3.85.91,1.2,2.73,1.42,4.26.94s2.82-1.54,4.04-2.59c.34-.29.69-.59.89-.98.2-.39.24-.89-.04-1.2"/>
        <path class="cls-10" d="M661.51,318.29c.52-.05.64,3.45,3.71,5.84,3.07,2.4,6.79,1.89,6.83,2.38.05.22-.81.71-2.38.8-1.54.1-3.81-.32-5.69-1.79-1.88-1.47-2.72-3.47-2.89-4.91-.18-1.46.18-2.34.42-2.32Z"/>
        <path class="cls-10" d="M658.92,283.09c-.29.89-3.52.57-7.29,1.14-3.78.5-6.8,1.7-7.32.93-.24-.37.27-1.21,1.48-2.1,1.2-.88,3.12-1.75,5.38-2.07,2.26-.32,4.35-.02,5.75.5,1.41.51,2.13,1.18,2,1.6Z"/>
        <path class="cls-10" d="M689.71,279.58c-.54.75-2.79.06-5.46.11-2.67-.05-4.92.65-5.46-.11-.24-.37.09-1.11,1.06-1.83.95-.72,2.56-1.34,4.4-1.34,1.84,0,3.45.61,4.4,1.34.97.73,1.3,1.47,1.06,1.83Z"/>
        <path class="cls-10" d="M658.98,252.18c-12.86,2.2-25.58,5.26-38.03,9.14-1.91.6-3.96,1.31-5.1,2.97-1.15,1.68-1.06,3.88-.96,5.92.63,12.27.1,24.6-1.57,36.77-.77,5.58-.42,11.22.75,16.72,2.21,10.41.64,41.56,8.91,41.09,30.98-6.59,9.6-29.47,6.42-40.18-1.07-3.6.13-7.74,2.61-10.55,1.87-2.12,4.5-3.44,6.48-5.46,4.16-4.25,4.78-11.64.84-16.32-1.48-1.75-2.61-3.82-2.76-6.11-.38-5.91,5.46-6.88,9.92-8.3,9.34-2.98,22.1-17.72,19.42-26.96l-6.93,1.27Z"/>
        <path class="cls-5" d="M601.97,276.78c.06-.24,3.84,1.63,10.4,1.78,6.51.22,15.6-1.58,24.48-6.12,8.9-4.55,15.88-10.49,20.67-14.94,2.41-2.23,4.27-4.13,5.57-5.43,1.28-1.32,2.02-2.03,2.07-1.98s-.58.85-1.77,2.26c-1.21,1.39-3,3.38-5.36,5.69-4.69,4.61-11.66,10.71-20.71,15.34-9.04,4.62-18.35,6.34-24.99,5.93-3.33-.17-5.97-.8-7.73-1.39-.88-.3-1.55-.56-1.99-.78-.44-.2-.67-.32-.66-.36Z"/>
        <path class="cls-5" d="M662.18,245.84c.05.04-.44.83-1.45,2.17-1.01,1.35-2.57,3.22-4.69,5.36-4.21,4.28-10.89,9.52-19.39,13.15-8.49,3.64-16.9,4.87-22.9,4.97-3.01.06-5.45-.1-7.11-.3-1.67-.19-2.58-.38-2.57-.45.02-.2,3.71.3,9.66,0,5.93-.28,14.16-1.61,22.51-5.19,8.35-3.57,14.99-8.62,19.28-12.72,4.32-4.1,6.51-7.12,6.67-6.99Z"/>
        <path class="cls-5" d="M706.9,265.38c0,.07-.6.1-1.69.07-1.09,0-2.65-.14-4.58-.39-3.85-.52-9.14-1.8-14.53-4.35-5.39-2.56-9.76-5.75-12.75-8.22-1.49-1.24-2.66-2.29-3.43-3.06-.77-.76-1.18-1.2-1.13-1.26.11-.12,1.94,1.41,5.02,3.73,3.08,2.3,7.46,5.34,12.74,7.85,5.28,2.5,10.43,3.87,14.2,4.57,3.77.7,6.16.88,6.15,1.06Z"/>
        <path class="cls-5" d="M596.02,325.1c-.08-.03.16-.87.49-2.4.31-1.52.81-3.79.5-6.53-.16-1.36-.56-2.82-1.3-4.26-.71-1.46-1.72-2.88-2.71-4.51-1.9-3.26-3.37-7.45-2.81-11.94.28-2.22,1.21-4.33,2.45-5.99,1.22-1.69,2.54-3.12,3.61-4.62,2.18-2.98,3.77-5.94,5.03-8.45,1.25-2.52,2.19-4.6,2.86-6.03.67-1.43,1.07-2.21,1.13-2.18.07.03-.2.86-.75,2.34-.56,1.48-1.39,3.61-2.57,6.19-1.19,2.57-2.73,5.61-4.91,8.69-2.15,3.09-5.39,5.93-5.8,10.18-.53,4.14.82,8.16,2.6,11.31.93,1.57,1.95,3.07,2.66,4.62.74,1.53,1.13,3.12,1.25,4.56.22,2.91-.42,5.19-.85,6.7-.46,1.52-.83,2.32-.88,2.3Z"/>
      </g>
      <g>
        <path class="cls-8" d="M736.76,479.96l-28.91,18.74-2.63,29.21s8.51,3.97,20.98-7.37c12.48-11.34,28.73-34.35,28.73-34.35l-18.18-6.23Z"/>
        <polygon class="cls-8" points="735.48 491.96 726 443.92 700.74 453.93 707.2 517.19 735.48 491.96"/>
        <g>
          <path class="cls-10" d="M803.96,431.15c-.38-1.02-1.26-1.77-2.33-1.98l-18.16-3.51c-1.6-.28-3.25.13-4.53,1.14l-54.85,43.15,2.25,2.49,19.39,5.91,58.54-46.34-.32-.86Z"/>
          <path class="cls-12" d="M789.23,434.17c.26.45.96.53,1.56.19.6-.35.88-.99.61-1.44-.26-.45-.96-.53-1.56-.19-.6.35-.87.99-.61,1.44Z"/>
          <path class="cls-5" d="M804.28,432.01c-.01.08-1.29-.1-3.58-.47-2.47-.43-5.73-1.01-9.68-1.7-2.06-.38-4.29-.79-6.67-1.23-1.13-.27-2.29-.04-3.22.67-1.02.81-2.06,1.64-3.13,2.49-4.32,3.41-9.05,7.14-14.02,11.06-9.97,7.82-19.03,14.86-25.62,19.91-3.2,2.42-5.84,4.42-7.84,5.93-1.87,1.38-2.92,2.12-2.97,2.06-.05-.06.92-.91,2.7-2.39,1.94-1.58,4.52-3.68,7.63-6.21,6.47-5.21,15.46-12.34,25.42-20.16,4.98-3.89,9.73-7.6,14.07-10.99,1.09-.84,2.15-1.66,3.18-2.46,1.15-.88,2.72-1.12,3.95-.8,2.38.48,4.6.94,6.66,1.36,3.92.83,7.17,1.52,9.62,2.05,2.27.5,3.52.82,3.5.89Z"/>
        </g>
        <g>
          <path class="cls-8" d="M778.3,445.28s-1.45-.8-3.74,3.14c-2.28,3.94-9.13,15.15-9.13,15.15l-6.64-7.06-10.59-2.12s-2.91,1.29-1.66,2.95c1.25,1.66,7.26,4.98,7.26,4.98l2.42,8.4-11.34-11.15s-4.93-.36-4.54,2.86c.39,3.21,6.6,14.96,6.6,14.96l-6.62-2.82-6.41-7.65s-2.52-.73-2.31,1.7c.21,2.43,6.02,12.91,6.02,12.91l8.51,8.41s5.71,1.45,6.8,0,2.02-3.74,2.02-3.74c0,0,3.22.21,4.26-1.04,1.04-1.25,1.45-3.63,1.45-3.63,0,0,4.36,2.39,5.81,0s2.7-7.64,2.91-9.79c.21-2.15,8.93-19.79,8.93-20.41s3.32-6.28,0-6.04Z"/>
          <path class="cls-4" d="M753.27,490.07c0,.13-1.14.23-2.94-.08-1.79-.3-4.24-1.1-6.61-2.59-2.37-1.5-4.15-3.35-5.2-4.84-1.06-1.49-1.46-2.55-1.35-2.61.28-.2,2.56,3.7,7.13,6.52,4.53,2.89,9.02,3.25,8.97,3.59Z"/>
          <path class="cls-4" d="M752.1,485.6c-.24.18-1.72-1.38-3.11-3.62-1.4-2.24-2.14-4.26-1.87-4.39.28-.14,1.44,1.62,2.81,3.81,1.36,2.19,2.42,4.01,2.18,4.2Z"/>
          <path class="cls-4" d="M760.45,478.63c-.23.18-1.71-1.35-2.95-3.64-1.25-2.28-1.73-4.36-1.44-4.46.29-.11,1.21,1.73,2.41,3.93,1.19,2.2,2.23,3.98,1.98,4.16Z"/>
          <path class="cls-4" d="M768.49,473.46c-.32.02-.69-2.24-1.6-4.87-.89-2.64-1.97-4.66-1.7-4.83.23-.17,1.8,1.68,2.75,4.48.96,2.79.85,5.22.56,5.22Z"/>
        </g>
      </g>
      <path class="cls-7" d="M690.16,376.59s17.15,7.68,23.04,17.39c5.9,9.71,21.85,65.27,21.85,65.27l-22.45,4.44-22.45-87.1Z"/>
      <g>
        <polygon class="cls-8" points="678.65 373.14 623.67 368.91 630.76 399.2 680 415.61 686.54 404.56 678.65 373.14"/>
        <g>
          <path class="cls-7" d="M713.59,438.58c-4.43-15.25-23.42-61.99-23.42-61.99l-14.62-4.38s.01,15.25-5.4,16.23-31.39,1.15-44.14-15.3l-2.34-4.23-36.3,23.25h0c-6.04,3.72-14.96,12.41-16.25,30.16-1.17,16.21-3.14,59.2-3.14,59.2l35.46-1.24,2.89,15.86-2.46,18.7s-4.92,26.44-1.97,30.44c2.95,4,7.87,4.49,7.87,4.49l95.46-7.38,3.16-52.54s9.63-36.02,5.2-51.28Z"/>
          <path class="cls-8" d="M574.87,481.53s-3.4,32.85.38,47.93c3.91,15.59,11.64,15.36,18.15,15.83,6.52.46,109.14-53.32,109.14-53.32l-11.39-20.22-77.27,23.27.72-15.09-39.73,1.6Z"/>
          <g>
            <g>
              <path class="cls-8" d="M690.51,472.34l18.53-23.19,16.72-3.87,20.39,2.24s.82,3.06-2.45,4.69l7.13.41s1.43,3.67-2.65,5.3l5.1.89s-2.24,5.22-7.95,4.2c-5.71-1.02-15.09-1.02-15.09-1.02l-9.99,5.5,14.88-.61,10.8,2.04s1.43,2.76-1.02,3.42c-2.45.66-11.82,0-11.82,0l-14.27,3.72s-3.06,9.17-4.89,11.21c-1.83,2.04-12.03,4.69-12.03,4.69l-11.39-19.62Z"/>
              <path class="cls-4" d="M750.83,452.61c-.02.15-2.13.06-5.54-.2s-8.11-.71-13.3-1.27c-1.73-.19-3.4-.38-4.98-.56l.2-.02c-3.86,1.09-7.21,1.99-9.61,2.59-2.4.6-3.84.9-3.87.78s1.34-.64,3.68-1.42,5.66-1.81,9.5-2.96l.1-.03h.11c1.58.18,3.25.35,4.98.53,5.19.56,9.87,1.13,13.26,1.59,3.39.46,5.48.83,5.46.98Z"/>
              <path class="cls-4" d="M752.06,458.6c-.02.15-1.94.01-5.02-.34-3.08-.35-7.33-.91-12.02-1.6-1.62-.25-3.18-.48-4.66-.7l.27-.03c-6.7,2.61-11.64,4.36-11.73,4.13-.09-.23,4.69-2.38,11.34-5.11l.13-.05.15.02c1.48.21,3.04.43,4.67.66,4.68.69,8.91,1.37,11.97,1.92,3.05.55,4.93.96,4.91,1.11Z"/>
            </g>
            <path class="cls-4" d="M701.9,491.96s.55-.21,1.63-.55c1.08-.34,2.67-.84,4.71-1.57,1.01-.38,2.14-.8,3.32-1.37.6-.27,1.19-.61,1.76-1,.54-.38.9-1.03,1.27-1.7,1.42-2.72,2.63-6.09,3.9-9.82l.06-.18.19-.05c4.24-1.13,9.04-2.4,14.25-3.79l.06-.02h.07c2.43.15,5,.27,7.67.26,1.31-.02,2.72-.02,3.96-.28.59-.15.99-.47,1.09-.99.1-.52-.07-1.21-.33-1.75l.34.26c-3.42-.64-7.06-1.31-10.81-2.01h.12c-4.75.21-9.74.42-14.88.64l-2.28.1,2-1.11c3.17-1.75,6.55-3.62,9.98-5.51l.13-.07h.14c3.77.03,7.75.16,11.79.56,1.11.12,2.22.26,3.32.45,1.03.16,2.05.18,3.02-.08,1.94-.48,3.55-2.04,4.4-3.78l.41.75c-1.71-.3-3.41-.6-5.1-.9l-1.88-.33,1.77-.71c.96-.38,1.79-1,2.21-1.84.44-.82.43-1.9.14-2.77l.47.34c-2.41-.14-4.79-.28-7.13-.42l-1.95-.11,1.74-.88c.79-.4,1.47-.97,1.85-1.7.4-.71.49-1.64.33-2.38l.44.38c-7.23-.82-14.05-1.58-20.38-2.3h.15c-6.09,1.37-11.69,2.64-16.73,3.79l.21-.13c-5.76,7.1-10.42,12.84-13.71,16.89-1.59,1.92-2.84,3.43-3.75,4.54-.4.47-.73.85-1,1.16-.23.26-.35.38-.37.37s.08-.16.28-.44c.24-.33.54-.73.91-1.23.87-1.13,2.07-2.69,3.59-4.66,3.22-4.1,7.79-9.91,13.44-17.1l.08-.1.13-.03c5.03-1.19,10.62-2.51,16.7-3.95l.08-.02h.08c6.33.69,13.16,1.42,20.39,2.19l.37.04.07.34c.23,1.09.1,2.16-.41,3.13-.5.97-1.37,1.69-2.3,2.16l-.2-.99c2.34.13,4.72.26,7.13.4l.36.02.11.32c.4,1.19.4,2.48-.18,3.64-.57,1.15-1.67,1.92-2.77,2.36l-.11-1.04c1.68.29,3.38.59,5.1.89l.71.13-.31.63c-1.01,2.08-2.8,3.81-5.13,4.42-1.14.3-2.35.29-3.49.1-1.07-.18-2.15-.32-3.24-.44-3.97-.4-7.94-.53-11.67-.56l.26-.07c-3.44,1.89-6.82,3.75-9.99,5.5l-.28-1.01c5.14-.2,10.13-.4,14.88-.59h.06s.06,0,.06,0c3.75.72,7.38,1.41,10.8,2.06l.25.05.1.21c.34.74.56,1.5.41,2.38-.14.92-1.04,1.59-1.79,1.73-1.49.3-2.84.27-4.2.28-2.7-.01-5.28-.15-7.73-.32h.14c-5.23,1.32-10.04,2.55-14.29,3.63l.25-.23c-1.33,3.75-2.58,7.09-4.08,9.87-.39.67-.79,1.38-1.45,1.84-.63.42-1.25.75-1.86,1.02-1.22.55-2.37.95-3.4,1.3-2.07.68-3.68,1.12-4.78,1.4-.5.12-.91.22-1.25.3-.28.06-.42.08-.43.06Z"/>
          </g>
          <path class="cls-10" d="M566.95,481.53s.34-.08,1-.13c.76-.05,1.72-.11,2.9-.19,2.66-.13,6.3-.3,10.81-.52,9.35-.36,22.23-.85,37.03-1.42l-.52.52c.14-5.19.05-10.72-.24-16.42-.47-9.4-1.29-18.34-1.81-26.5-.29-4.08-.4-7.96-.73-11.56-.32-3.6-.82-6.93-1.54-9.91-1.4-5.98-3.78-10.43-5.78-13.2-2.01-2.78-3.5-4.01-3.42-4.1.02-.02.41.26,1.08.88.67.62,1.62,1.59,2.68,2.96,2.13,2.73,4.67,7.22,6.19,13.27.78,3.01,1.33,6.38,1.69,10.01.37,3.63.52,7.51.83,11.58.58,8.14,1.43,17.08,1.9,26.51.29,5.71.37,11.28.21,16.5l-.02.5h-.5c-14.8.43-27.69.79-37.04,1.05-4.51.08-8.16.15-10.82.2-1.18,0-2.13,0-2.9,0-.66,0-1-.03-1-.06Z"/>
        </g>
      </g>
      <g>
        <g>
          <polygon class="cls-8" points="828.58 842.7 865.07 929.7 828.25 947.58 778.71 862.93 828.58 842.7"/>
          <g>
            <path class="cls-5" d="M860.57,918.1l1.23,2.43s49.57-4.03,53.92,3.59l-82.19,40.51-12.36-27.9c15.01-.36,28.11-6.03,39.41-18.62Z"/>
            <g class="cls-15">
              <path class="cls-12" d="M833.79,941.36c-1.38,1.22-1.59,3.55-.43,4.97s3.53,1.67,4.93.47c1.4-1.19,1.75-3.98.43-5.27-1.31-1.29-4.11-1.42-5.18.08"/>
            </g>
            <g class="cls-15">
              <path class="cls-12" d="M833.52,964.62l-2.97-6.71,79.86-36.36s4.44-.21,5.3,2.57l-82.19,40.5Z"/>
            </g>
            <path class="cls-10" d="M862.2,920.61c.18.41-1.73,1.58-3.07,3.84-1.4,2.23-1.56,4.47-2.01,4.49-.41.1-.99-2.59.68-5.3,1.65-2.73,4.31-3.44,4.4-3.03Z"/>
            <path class="cls-10" d="M872.58,919.93c.28.34-1.12,1.88-1.65,4.25-.6,2.35-.04,4.36-.44,4.54-.35.25-1.78-1.96-1.07-4.9.68-2.94,2.96-4.27,3.16-3.89Z"/>
            <path class="cls-10" d="M882.56,927.84c-.32.27-1.87-1.47-1.92-4.17-.07-2.71,1.39-4.51,1.73-4.26.39.22-.25,2-.17,4.22.02,2.22.74,3.97.36,4.21Z"/>
          </g>
        </g>
        <polygon class="cls-10" points="755.66 806.43 788.67 898.46 847.21 870.3 787.16 727.98 755.66 806.43"/>
        <polygon class="cls-8" points="771.75 822.7 719.81 942.69 680.95 929.84 719.53 797.9 771.75 822.7"/>
        <g>
          <path class="cls-5" d="M724.67,931.24l-.82,2.6s38.34,31.67,36.15,40.16l-87.16-28.27,10.59-28.62c11.01,10.21,24.36,15.28,41.24,14.13Z"/>
          <g class="cls-15">
            <path class="cls-12" d="M689.26,929.24c-1.84-.09-3.62,1.43-3.78,3.26-.16,1.83,1.37,3.66,3.2,3.77,1.83.12,4.03-1.64,3.98-3.48-.04-1.84-1.96-3.88-3.77-3.56"/>
          </g>
          <g class="cls-15">
            <path class="cls-12" d="M672.85,945.73l2.55-6.88,82.61,29.62s3.33,2.95,2.01,5.54l-87.16-28.27Z"/>
          </g>
          <path class="cls-10" d="M724.08,934.18c-.15.42-2.34-.08-4.88.61-2.55.62-4.23,2.12-4.57,1.82-.37-.21,1.09-2.55,4.18-3.33,3.08-.81,5.49.54,5.27.9Z"/>
          <path class="cls-10" d="M732,940.93c-.04.44-2.11.57-4.14,1.9-2.07,1.27-3.06,3.1-3.48,2.94-.42-.06.09-2.65,2.65-4.26,2.54-1.63,5.1-1,4.98-.59Z"/>
          <path class="cls-10" d="M733.64,953.55c-.42-.03-.32-2.35,1.53-4.33,1.83-1.99,4.14-2.26,4.2-1.84.13.43-1.57,1.26-3.06,2.91-1.53,1.61-2.23,3.36-2.67,3.27Z"/>
        </g>
        <path class="cls-10" d="M696.16,589.5c-3.97-6.81-10.21-9.07-10.21-9.07l-.57-36.5-75.61,5.85s-27.04,36.89-27.04,51.64,0,44.22,32.61,65.46l75.71-54.12s9.07-16.45,5.11-23.25Z"/>
        <polyline class="cls-10" points="755.66 683.63 690.16 617.07 667.86 545.28 705.23 542.39 709.8 581.28"/>
        <path class="cls-10" d="M642.78,548.31c.07-.01.32.8.62,2.31.3,1.51.65,3.71.8,6.47.13,2.75.05,6.07-.7,9.68-.73,3.6-2.22,7.45-4.67,10.95-2.46,3.48-5.67,6.21-9.07,7.73-3.39,1.54-6.8,1.94-9.58,1.74-2.79-.22-4.96-1-6.33-1.72-.68-.37-1.2-.68-1.52-.94-.33-.24-.49-.38-.47-.42.09-.25,2.91,2.07,8.35,2.3,2.67.1,5.91-.38,9.11-1.89,3.2-1.49,6.24-4.1,8.59-7.44,4.79-6.78,5.57-14.62,5.49-19.97-.12-5.44-.84-8.77-.64-8.8Z"/>
        <path class="cls-5" d="M695.87,574.68c.08.1-1.21,1.28-3.59,2.78-2.37,1.5-5.88,3.24-10.01,4.44-4.13,1.19-8.03,1.6-10.84,1.6-2.81,0-4.53-.3-4.52-.43,0-.36,6.95.16,15.05-2.23,8.12-2.31,13.71-6.47,13.9-6.16Z"/>
        <path class="cls-5" d="M691.68,548.62c-.06-.11,1.31-.47,2.94.76.77.6,1.55,1.72,1.5,3.14-.02,1.35-.78,2.91-2.32,3.6-1.57.65-3.25.08-4.19-.95-1.01-1.06-.95-2.6-.48-3.47.45-.93,1.18-1.42,1.71-1.58.54-.17.84-.09.85-.02.07.15-1.24.32-1.83,1.91-.28.75-.23,1.76.5,2.47.69.71,1.98,1.09,3.01.64,1.05-.46,1.68-1.61,1.74-2.63.09-1.04-.42-1.94-1-2.51-1.22-1.18-2.46-1.17-2.43-1.35Z"/>
        <path class="cls-5" d="M703.12,594.86c-.28.02-.4-3.38,1.41-7.05,1.78-3.69,4.53-5.69,4.68-5.46.23.24-2.03,2.48-3.69,5.94-1.7,3.44-2.07,6.6-2.4,6.57Z"/>
        <path class="cls-5" d="M770.47,700.22c.2.23-9.21,8.88-21.01,19.32-11.81,10.45-21.54,18.73-21.75,18.5-.2-.23,9.2-8.88,21.02-19.33,11.8-10.44,21.54-18.73,21.74-18.5Z"/>
        <path class="cls-5" d="M768.65,703.9c.12.08-.77,1.7-2.46,4.16-1.69,2.46-4.21,5.73-7.3,9.09-3.09,3.35-6.15,6.14-8.46,8.02-2.31,1.89-3.85,2.91-3.94,2.8-.21-.26,5.49-4.91,11.59-11.57,6.13-6.63,10.29-12.69,10.57-12.5Z"/>
        <path class="cls-5" d="M646.83,551.85c.07.02-.04.64-.31,1.77-.25,1.13-.78,2.72-1.59,4.62-.79,1.91-1.98,4.08-3.51,6.36-1.57,2.24-3.5,4.57-5.81,6.74-2.33,2.14-4.8,3.9-7.15,5.3-2.38,1.35-4.64,2.38-6.6,3.03-1.95.67-3.58,1.08-4.72,1.24-1.14.19-1.77.25-1.78.18-.04-.2,2.46-.66,6.23-2.15,1.89-.73,4.06-1.8,6.35-3.17,2.27-1.41,4.65-3.15,6.92-5.23,2.25-2.11,4.15-4.36,5.73-6.51,1.53-2.19,2.77-4.27,3.63-6.1,1.76-3.65,2.41-6.12,2.61-6.06Z"/>
        <path class="cls-10" d="M615.35,666.87c.54.47,107.36,93.11,107.36,93.11l-33.9,125.97,65.28,19.61s41.09-143.42,42.64-167.51c1.55-24.09-14.31-30.16-21.48-39.84-7.17-9.68-86.32-85.11-86.32-85.11l-73.58,53.77"/>
        <path class="cls-5" d="M660.04,598.58s1.31-.15,3.76.28c2.44.45,5.96,1.57,10.14,3.72,4.15,2.15,9.21,5.12,13.93,9.9,4.81,4.62,10.27,9.88,16.31,15.68,12.05,11.68,26.38,25.57,42.29,41,7.91,7.77,16.21,15.92,24.82,24.37,4.28,4.26,8.64,8.57,12.97,13.06,4.36,4.46,8.25,9.8,10.25,16,1.11,3.05,1.68,6.24,2.09,9.41.29,3.18.31,6.36.08,9.5-.54,6.29-1.97,12.27-3.45,18.14-3.05,11.67-6,22.93-8.8,33.66-5.71,21.41-10.85,40.7-15.18,56.92-4.37,16.15-7.9,29.24-10.36,38.34-1.24,4.48-2.2,7.98-2.87,10.41-.33,1.15-.59,2.05-.77,2.7-.18.61-.3.91-.3.91,0,0,.05-.32.19-.94.16-.66.39-1.56.67-2.73.63-2.44,1.53-5.95,2.68-10.46,2.38-9.12,5.81-22.23,10.04-38.42,4.26-16.23,9.33-35.54,14.96-56.97,2.79-10.73,5.71-21.99,8.74-33.67,1.46-5.82,2.89-11.83,3.41-17.97.23-3.08.2-6.19-.08-9.3-.41-3.09-.96-6.2-2.04-9.17-1.95-6.04-5.69-11.2-10.01-15.61-4.32-4.47-8.68-8.8-12.94-13.06-8.59-8.47-16.87-16.63-24.77-24.41-15.85-15.48-30.13-29.43-42.13-41.16-6-5.85-11.43-11.14-16.2-15.8-4.64-4.78-9.6-7.75-13.71-9.96-4.13-2.2-7.6-3.36-10-3.88-1.2-.24-2.14-.36-2.76-.41-.63-.04-.96-.09-.96-.09Z"/>
      </g>
    </g>
  </g>
</svg>