<?xml version="1.0" encoding="UTF-8"?>
<svg id="Layer_2" data-name="Layer 2" xmlns="http://www.w3.org/2000/svg" viewBox="0 0 1000 1000">
  <defs>
    <style>
      .cls-1 {
        fill: #ff735d;
      }

      .cls-1, .cls-2, .cls-3, .cls-4, .cls-5, .cls-6, .cls-7, .cls-8, .cls-9, .cls-10, .cls-11, .cls-12, .cls-13 {
        stroke-width: 0px;
      }

      .cls-2 {
        fill: #000;
      }

      .cls-3 {
        fill: #e1e1e1;
      }

      .cls-4 {
        fill: #ffc19d;
      }

      .cls-14 {
        opacity: .2;
      }

      .cls-5 {
        fill: #f5f5f5;
      }

      .cls-15 {
        opacity: .3;
      }

      .cls-6 {
        fill: #ff9c6a;
      }

      .cls-7 {
        fill: #7c4235;
      }

      .cls-8 {
        fill: #ececec;
      }

      .cls-9 {
        fill: #375a64;
      }

      .cls-10 {
        fill: #c27460;
      }

      .cls-11 {
        fill: #fff;
      }

      .cls-12 {
        fill: #fafafa;
      }

      .cls-13 {
        fill: #1a2e35;
      }
    </style>
  </defs>
  <polygon class="cls-3" points="199.88 796.62 119.5 796.62 109.12 688.12 209.65 688.12 199.88 796.62"/>
  <g>
    <g>
      <path class="cls-3" d="M791.84,624.77c-7.9-4.96-16.96-8.08-26.24-9.03-4.29-.44-8.97-.32-12.41,2.28-.73.55-1.44,1.37-1.28,2.27.12.66.68,1.14,1.21,1.55,10.68,8.14,26.82,9.17,38.71,2.93"/>
      <path class="cls-3" d="M791.17,624.03c-5.94-4.64-11.91-9.3-16.95-14.91-5.03-5.61-9.12-12.27-10.63-19.65-.46-2.24-.6-4.8.84-6.58,13.51,10.55,24.12,24.2,26.73,41.14"/>
      <path class="cls-3" d="M791.7,624.67c-1.02-7.39-1.38-14.99.31-22.25,1.7-7.26,5.65-14.22,11.85-18.36,2.33,5.46,1.33,11.74-.31,17.44-2.54,8.81-6.53,17.21-11.75,24.74"/>
      <path class="cls-3" d="M804.94,648.4c-8.04.98-15.04,5.21-21.04,10.65-6,5.44-10.27,12.76-12.04,20.66,7.89-.49,14.57-6.05,19.43-12.28,4.85-6.23,8.21-13.08,13.54-18.91"/>
      <path class="cls-3" d="M807.82,652.19c-6.47-15.95-4.13-35.17,5.99-49.09,4.58,16.29,2.9,34.69-5.99,49.09"/>
      <path class="cls-3" d="M825.32,673.03c-7.3-.45-14.71,1.28-21.05,4.93-6.33,3.65-11.56,9.19-14.83,15.72-.45.89-.84,2.02-.24,2.81.52.69,1.52.76,2.38.7,7.07-.46,13.34-4.71,18.51-9.56,5.17-4.84,9.68-10.44,15.39-14.63"/>
      <path class="cls-3" d="M824.76,671.89c-3.76-12.04-4-25.16-.67-37.33,1.32-4.81,3.52-9.86,7.97-12.12.38-.19.82-.36,1.22-.21.38.14.6.53.77.89,1.58,3.3,2.04,7.05,1.88,10.71-.16,3.66-.92,7.26-1.68,10.84-1.4,6.63-2.14,13.75-5.78,19.46-.86,1.36-1.62,2.82-2.31,4.27-.69,1.45-.69,1.96-1.32,3.12"/>
      <path class="cls-3" d="M871.07,678.79c-3.43-13.05.21-28.88,8.44-39.58.61-.79,1.41-1.63,2.4-1.54,1.51.14,1.91,2.16,1.84,3.68-.59,13.34-5.04,26.48-12.67,37.44"/>
      <path class="cls-3" d="M875.25,681.65c15.86,4.13,34.05.12,47.24-9.61-7.82-3.96-17.03-5.09-25.57-3.14-8.54,1.95-16.35,5.78-21.67,12.75"/>
      <path class="cls-3" d="M878.77,672.96c8.88-14.48,25.91-23.93,42.87-24.79-1.95,6.9-7.62,12.26-14.02,15.5-6.4,3.24-13.54,4.65-20.58,6.02-2.74.53-6.5,1.12-8.27,3.27"/>
      <path class="cls-3" d="M871.96,630.79c2.4-8.24,4.82-16.55,5.48-25.11.66-8.56-.56-17.49-5-24.84-8.3,16.05-9.14,34.81-.73,50.81"/>
      <path class="cls-3" d="M899.89,616.67c9.7-17.63,29.5-31.72,49.52-33.69-7.73,19.24-28.8,34.1-49.52,33.69"/>
      <path class="cls-3" d="M893.79,620.12c14.47,2.2,26.8,11.45,40.32,17.05,2.89,1.2,6.01,2.15,9.11,1.75,3.1-.41,6.17-2.49,6.86-5.54.58-2.53-.58-5.22-2.39-7.08-1.82-1.86-4.22-3.02-6.62-4.02-14.73-6.13-30.52-6.28-46.03-2.57"/>
      <path class="cls-3" d="M885.41,630.27c3.28.94,4.39,2.63,6.99,4.84,8.8,7.5,19.36,12.92,30.57,15.71,1.17.29,2.7.41,3.28-.65.51-.92-.13-2.04-.79-2.86-4.7-5.88-11.4-9.9-18.46-12.53-7.06-2.63-13.17-5.79-21.59-5.12"/>
      <path class="cls-3" d="M875.96,568.98c11.77,10.98,28.34,16.62,44.36,15.09.73-.07,1.52-.19,2.02-.72,1.12-1.21-.22-3.09-1.52-4.1-13.04-10.17-28.84-14.38-44.86-10.26"/>
      <path class="cls-3" d="M887.17,564.88c15.55-11.66,36.88-15.18,55.35-9.13-6.97,6.87-16.64,10.57-26.38,11.58-9.73,1.01-19.48-.07-28.98-2.45"/>
      <path class="cls-3" d="M882.71,536.72c-1.28-13.02-.45-23.29-1.35-36.37-.07-1.04-.3-2.3-1.27-2.68-1.36-.52-2.5,1.15-2.94,2.54-3.88,12.06-1.76,25.88,5.55,36.23"/>
      <path class="cls-3" d="M881.78,538.15c8.82-5.46,15.44-12.58,21.56-20.96,4.26-5.83,7.85-12.81,6.88-19.96-5.98-.12-11.66,3.18-15.55,7.72-3.89,4.54-6.2,10.23-7.93,15.95-1.73,5.73-2.94,11.61-4.96,17.24"/>
      <path class="cls-3" d="M902.96,532.27c19.36-7.16,37.43-17.81,53.07-31.29-6.34-2.55-13.6-1.03-19.93,1.53-14.48,5.84-26.31,15.71-33.41,29.62"/>
      <path class="cls-3" d="M887.73,545.28c9.8,1.07,19.75,1.77,29.47.14,9.55-1.6,18.58-5.38,27.51-9.14.74-.31,1.54-.68,1.87-1.42.35-.8-.02-1.77-.67-2.35-.65-.58-1.51-.86-2.35-1.1-9.71-2.71-20.18-1.44-29.73,1.78-9.55,3.22-17.38,7.05-26.1,12.09"/>
      <path class="cls-3" d="M831.8,569.43c-6.68-13.49-6.25-29.23-.48-43.14,4.06,6.19,4.56,14.08,3.82,21.45-.74,7.37-2.99,14.96-3.13,22.36"/>
      <path class="cls-3" d="M805.1,555.96c-16.69-.32-33.38,6.79-44.71,19.05,8.33,1.31,16.91-.84,24.48-4.54,7.58-3.7,14.31-8.89,20.98-14.04"/>
      <path class="cls-3" d="M787.15,549.96c-8.16-.66-16.02-1.67-23.87.73-7.85,2.41-14.99,7.86-18.19,15.42,7.64.86,15.38-1.05,22.38-4.23,7-3.17,13.36-7.56,19.68-11.93"/>
      <path class="cls-3" d="M813.72,550.23c-7.34-4.81-14.89-9.71-23.44-11.71-8.55-1.99-18.46-.52-24.42,5.92,6.92,4.06,15.32,4.54,23.35,4.54,8.03,0,17.86-.1,25.43,2.58"/>
      <path class="cls-3" d="M813.77,550.62c-12.56-12.33-17.31-34.48-12.26-51.33,9.87,14.99,14.29,33.49,12.26,51.33"/>
      <path class="cls-3" d="M848.29,515.69c2.37-5.5,4.03-11.28,6.16-16.89,2.12-5.6,4.76-11.12,8.78-15.57,4.01-4.45,9.56-7.76,15.55-8.06-3.75,16.96-15.01,32.12-30.18,40.6"/>
      <path class="cls-3" d="M842.04,522.97c-3.92-5.39-8.45-12.71-13.76-16.74-5.31-4.03-12.23-6.46-18.72-4.92,6.6,11.79,19.06,20.1,32.48,21.66"/>
      <path class="cls-3" d="M843.29,516.14c-2.57-6.53-5.16-13.12-6.19-20.06-1.04-6.94-.41-14.34,3.14-20.4,6.89,13.03,9.11,27.01,3.41,40.6"/>
      <path class="cls-3" d="M848.35,475.68c3.9-12.91,15.73-22.42,28.5-26.79,1.61-.55,3.32-1.01,5-.75,1.68.26,3.33,1.41,3.68,3.07.47,2.2-1.35,4.17-3.06,5.62-9.94,8.5-21.63,14.95-34.12,18.84"/>
      <path class="cls-3" d="M848.5,465.12c.5-8.33,1.02-16.77,3.72-24.66s7.93-15.29,15.52-18.74c1.29,8.41-2.42,16.78-6.89,24.01-4.47,7.24-9.87,14.07-12.56,22.14"/>
      <path class="cls-3" d="M848.29,470.85c-3.23-9.41-3.56-21.37-9.2-29.57-3.94-5.73-10.25-9.64-13.64-15.71-2.26,5.67-1.57,12.2.79,17.83,2.36,5.63,6.26,10.47,10.43,14.93,4.17,4.45,7.74,7.8,11.62,12.52"/>
      <path class="cls-3" d="M848.35,748.03c-.25,0-.47-62.79-.49-140.22-.02-77.46.17-140.23.42-140.23s.47,62.77.49,140.23c.02,77.43-.17,140.22-.42,140.22Z"/>
      <path class="cls-3" d="M903.22,559.95c.02.06-.82.37-2.36.89-1.7.57-3.88,1.31-6.5,2.19-5.48,1.87-13,4.57-21.17,7.92-8.09,3.47-15.71,6.29-20.06,10.05-2.17,1.86-3.42,3.87-4.03,5.33-.62,1.47-.73,2.38-.82,2.36-.03,0-.02-.23.03-.66.07-.42.18-1.06.46-1.83.53-1.55,1.74-3.7,3.93-5.68,2.18-1.99,5.22-3.78,8.7-5.41,3.48-1.62,7.34-3.32,11.44-5,8.19-3.36,15.78-5.97,21.32-7.69,2.77-.86,5.03-1.5,6.59-1.92,1.57-.41,2.44-.61,2.46-.55Z"/>
      <path class="cls-3" d="M921.21,515.78s-.21.27-.66.71c-.53.5-1.2,1.13-2.01,1.89-1.87,1.7-4.42,4.01-7.52,6.83-6.49,5.78-15.3,13.62-25.03,22.29-9.77,8.7-18.22,17.01-24.07,23.27-2.93,3.13-5.24,5.71-6.81,7.52-.73.84-1.34,1.53-1.82,2.08-.42.47-.65.71-.68.69-.02-.02.16-.3.54-.8.38-.5.93-1.26,1.69-2.19,1.49-1.88,3.73-4.54,6.61-7.73,5.75-6.39,14.15-14.79,23.94-23.51,9.81-8.68,18.73-16.47,25.21-22.09,3.18-2.73,5.79-4.97,7.71-6.62.86-.71,1.56-1.3,2.13-1.76.49-.4.76-.59.78-.57Z"/>
      <path class="cls-3" d="M875.43,556.34c-.26-.11,1.79-4.83,3.82-10.79,2.05-5.96,3.02-10.99,3.28-10.95.24.02-.34,5.2-2.42,11.24-1.02,3.01-2.15,5.66-3.04,7.55-.89,1.88-1.53,3-1.64,2.95Z"/>
      <path class="cls-3" d="M848.41,594.34c-.05.04-.58-.59-1.51-1.75-1.02-1.31-2.31-2.97-3.86-4.95-3.24-4.19-7.72-9.97-12.74-16.3-5.02-6.33-9.64-12-12.98-16.11-1.58-1.95-2.9-3.59-3.94-4.88-.92-1.16-1.41-1.82-1.36-1.86.05-.04.62.54,1.63,1.63,1.01,1.09,2.43,2.69,4.16,4.7,3.47,4,8.17,9.62,13.2,15.96,5.03,6.34,9.43,12.19,12.54,16.48,1.56,2.14,2.8,3.9,3.63,5.12.83,1.23,1.27,1.92,1.22,1.96Z"/>
      <path class="cls-3" d="M836.38,578.9c-.15.16-3.36-3.65-5.04-9.44-1.24-4.08-1.3-7.81-1.14-9.51l.4.03c-.18.73-.31,1.11-.38,1.1-.07-.01-.08-.42-.02-1.16l.4.03c.15,1.69.4,5.29,1.61,9.25,1.62,5.61,4.41,9.54,4.17,9.69Z"/>
      <path class="cls-3" d="M820.85,559.36c-.12.13-1.15-1.18-3.52-2.04-2.35-.91-5.89-1.11-9.77-.78-3.88.29-7.36.98-9.84,1.59-2.48.62-4,1.1-4.05.97-.04-.11,1.4-.81,3.88-1.59,2.47-.78,5.99-1.58,9.94-1.87,3.93-.34,7.65-.04,10.08,1.09,2.46,1.09,3.36,2.62,3.28,2.64Z"/>
      <path class="cls-3" d="M817.17,554.63c-.07.14-2.05-.82-5.39-1.96-3.34-1.15-8.09-2.35-13.45-2.77-5.37-.4-10.25.07-13.72.7-3.48.62-5.58,1.27-5.63,1.12-.02-.06.49-.27,1.43-.61.94-.35,2.33-.75,4.07-1.14,3.48-.8,8.45-1.38,13.91-.97,5.46.42,10.28,1.75,13.6,3.07,1.66.65,2.98,1.26,3.85,1.75.88.48,1.35.76,1.32.82Z"/>
      <path class="cls-3" d="M848.29,534.6c-.24.06-2-6.05-3.93-13.66-1.93-7.61-3.3-13.82-3.05-13.88.24-.06,2,6.05,3.93,13.66,1.93,7.6,3.29,13.82,3.05,13.88Z"/>
      <path class="cls-3" d="M848.54,534.6c-.27.09-1.4-4-4.36-8.18-2.88-4.27-6.55-6.41-6.41-6.62.05-.1,1.06.28,2.48,1.28,1.42.99,3.17,2.66,4.68,4.82,3.07,4.35,3.83,8.68,3.62,8.7Z"/>
      <path class="cls-3" d="M848.35,714.56c-.1.01-.28-1.51-.99-4.18-.7-2.67-2.02-6.45-4.2-10.87-4.34-8.86-12.23-20.1-22.26-31.36-4.97-5.68-9.79-11.04-13.88-16.16-4.1-5.12-7.47-10-9.93-14.32-2.47-4.31-4.07-8.02-5.01-10.63-.46-1.31-.8-2.33-.98-3.04-.2-.7-.29-1.08-.26-1.08.08-.03.54,1.44,1.57,4,1.03,2.56,2.72,6.19,5.24,10.43,2.51,4.24,5.91,9.05,10.03,14.12,4.11,5.08,8.94,10.4,13.92,16.09,10.06,11.29,17.93,22.67,22.16,31.68,2.12,4.5,3.36,8.35,3.96,11.06.29,1.36.49,2.42.56,3.15.09.73.12,1.11.09,1.11Z"/>
      <path class="cls-3" d="M897.93,658.56c.03.07-.92.55-2.6,1.46-1.67.94-4.03,2.38-6.74,4.46-2.71,2.07-5.74,4.8-8.85,8.07-3.11,3.28-6.31,7.09-9.57,11.18-6.53,8.19-12.64,15.44-16.3,21.23-1.86,2.87-3.21,5.29-4.09,6.99-.89,1.69-1.36,2.65-1.43,2.62-.03-.01.05-.27.24-.74.19-.47.46-1.17.87-2.04.79-1.75,2.06-4.24,3.87-7.18,3.55-5.93,9.61-13.28,16.13-21.46,3.27-4.09,6.51-7.91,9.68-11.19,3.17-3.27,6.28-5.98,9.07-8.01,2.79-2.03,5.23-3.41,6.96-4.25.86-.43,1.56-.7,2.03-.9.47-.19.72-.28.73-.25Z"/>
      <path class="cls-3" d="M898.91,676.72c.01.13-2.1.39-5.49.8-3.38.44-8.09,1-13.03,2.57-4.92,1.6-9,4.04-11.66,6.12-2.69,2.08-3.96,3.8-4.08,3.7-.04-.03.22-.5.81-1.26.59-.77,1.55-1.8,2.86-2.93,2.62-2.26,6.74-4.84,11.79-6.49,5.05-1.6,9.83-2.06,13.24-2.34,3.43-.25,5.55-.28,5.56-.16Z"/>
      <path class="cls-3" d="M866.25,687.91c-.29-.16,2.19-3.94,4.11-9.03,1.8-5.13,2.22-9.63,2.55-9.58.12.01.11,1.14-.09,2.95-.22,1.8-.65,4.31-1.6,6.94-.96,2.63-2.22,4.83-3.19,6.37-.98,1.53-1.67,2.41-1.78,2.35Z"/>
      <path class="cls-3" d="M913.99,609.78s-.29.19-.88.47c-.68.31-1.54.7-2.58,1.17-1.13.48-2.5,1.1-4.05,1.91-1.55.8-3.36,1.63-5.25,2.76-.96.54-1.96,1.11-3,1.7-1.04.6-2.07,1.31-3.16,1.99-2.21,1.34-4.42,2.99-6.78,4.67-4.62,3.51-9.48,7.66-14.16,12.45-4.63,4.84-8.62,9.84-11.97,14.58-1.6,2.42-3.18,4.69-4.44,6.94-.65,1.12-1.32,2.17-1.88,3.23-.56,1.06-1.09,2.08-1.6,3.05-1.07,1.92-1.83,3.76-2.58,5.34-.76,1.57-1.33,2.97-1.78,4.11-.44,1.06-.8,1.93-1.08,2.62-.26.6-.41.9-.44.89-.03-.01.06-.34.26-.96.24-.71.55-1.6.93-2.69.4-1.17.92-2.59,1.64-4.19.71-1.6,1.43-3.47,2.47-5.42.5-.99,1.02-2.02,1.56-3.1.55-1.07,1.21-2.14,1.85-3.27,1.24-2.29,2.8-4.58,4.4-7.03,3.33-4.8,7.33-9.86,12-14.74,4.72-4.83,9.63-9,14.31-12.49,2.39-1.68,4.64-3.32,6.88-4.64,1.11-.68,2.15-1.37,3.21-1.96,1.06-.58,2.07-1.13,3.04-1.66,1.92-1.1,3.76-1.89,5.34-2.65,1.57-.77,2.97-1.35,4.13-1.78,1.08-.41,1.95-.75,2.65-1.02.61-.22.93-.33.95-.3Z"/>
      <path class="cls-3" d="M874.75,636.07c-.08-.01.36-1.54,2.16-3.21,1.76-1.67,4.96-3.22,8.69-3.34,3.72-.1,6.95.94,9.15,1.79,2.21.87,3.5,1.58,3.46,1.68-.05.13-1.43-.37-3.67-1.07-2.23-.68-5.38-1.58-8.91-1.49-3.51.11-6.55,1.46-8.3,2.91-1.8,1.45-2.43,2.82-2.58,2.73Z"/>
      <path class="cls-3" d="M868.89,642.12c-.25-.14,1.96-3.38,2.47-8.03.58-4.64-.83-8.31-.55-8.38.1-.04.59.81,1.02,2.34.43,1.52.71,3.73.43,6.15-.29,2.42-1.07,4.5-1.84,5.88-.77,1.39-1.44,2.1-1.53,2.04Z"/>
    </g>
    <path class="cls-3" d="M804.99,723.55c1.35,23.99,8.58,48.4,19.71,73.07h48.36c10.61-24.43,17.34-48.79,18.53-73.07h-86.6Z"/>
    <path class="cls-12" d="M883.75,762.38c0,.25-15.92.45-35.56.45s-35.57-.2-35.57-.45,15.92-.45,35.57-.45,35.56.2,35.56.45Z"/>
    <path class="cls-12" d="M882.67,771.07c0,.25-14.93.45-33.34.45s-33.34-.2-33.34-.45,14.92-.45,33.34-.45,33.34.2,33.34.45Z"/>
    <path class="cls-12" d="M825.48,739.31c.25,0,.45,4.99.45,11.14s-.2,11.14-.45,11.14-.45-4.99-.45-11.14.2-11.14.45-11.14Z"/>
    <path class="cls-12" d="M851.39,739.31c.25,0,.45,5.17.45,11.54s-.2,11.54-.45,11.54-.45-5.16-.45-11.54.2-11.54.45-11.54Z"/>
    <path class="cls-12" d="M875.71,739.11c.25,0,.45,5.27.45,11.77s-.2,11.77-.45,11.77-.45-5.27-.45-11.77.2-11.77.45-11.77Z"/>
    <path class="cls-12" d="M890.06,739.31c0,.25-18.68.45-41.71.45s-41.71-.2-41.71-.45,18.67-.45,41.71-.45,41.71.2,41.71.45Z"/>
  </g>
  <g>
    <g>
      <rect class="cls-12" x="82.77" y="231.82" width="166.49" height="150.87"/>
      <path class="cls-3" d="M249.26,382.7s-.03-.97-.04-2.8c0-1.85-.02-4.56-.04-8.08-.02-7.08-.06-17.44-.1-30.63-.05-26.36-.11-64.03-.19-109.36l.38.38c-47.95.02-105.17.04-166.47.07h-.02l.45-.45c-.02,54.89-.04,106.54-.05,150.87l-.39-.4c49.67.08,91.24.15,120.42.2,14.6.04,26.09.08,33.96.1,3.92.02,6.93.04,8.99.05,1.01,0,1.78.02,2.32.02.52,0,.8.02.8.02,0,0-.25.01-.75.02-.53,0-1.29.01-2.28.02-2.04.01-5.03.03-8.91.05-7.85.02-19.31.06-33.87.1-29.24.05-70.9.12-120.67.2h-.39s0-.4,0-.4c-.02-44.33-.03-95.98-.05-150.87v-.45h.46c61.3.03,118.52.05,166.47.07h.38v.38c-.08,45.44-.15,83.19-.19,109.61-.04,13.15-.08,23.48-.1,30.54-.02,3.49-.03,6.18-.04,8.01-.01,1.81-.04,2.72-.04,2.72Z"/>
    </g>
    <rect class="cls-3" x="102.27" y="285.42" width="7.75" height="7.74"/>
    <rect class="cls-3" x="121.34" y="285.42" width="7.74" height="7.74"/>
    <rect class="cls-3" x="140.75" y="285.06" width="7.74" height="7.74"/>
    <rect class="cls-3" x="159.47" y="285.42" width="7.74" height="7.74"/>
    <rect class="cls-3" x="178.53" y="285.42" width="7.74" height="7.74"/>
    <rect class="cls-3" x="197.59" y="285.42" width="7.74" height="7.74"/>
    <rect class="cls-8" x="216.66" y="285.42" width="7.74" height="7.74"/>
    <rect class="cls-8" x="102.27" y="301.88" width="7.75" height="7.74"/>
    <rect class="cls-3" x="121.34" y="301.88" width="7.74" height="7.74"/>
    <rect class="cls-8" x="140.4" y="301.88" width="7.75" height="7.74"/>
    <rect class="cls-3" x="159.47" y="301.88" width="7.74" height="7.74"/>
    <rect class="cls-3" x="178.53" y="301.88" width="7.74" height="7.74"/>
    <rect class="cls-3" x="197.95" y="301.53" width="7.74" height="7.74"/>
    <rect class="cls-3" x="216.66" y="301.88" width="7.74" height="7.74"/>
    <rect class="cls-3" x="102.27" y="318.35" width="7.75" height="7.74"/>
    <rect class="cls-3" x="121.69" y="317.99" width="7.74" height="7.75"/>
    <rect class="cls-3" x="140.4" y="318.35" width="7.75" height="7.74"/>
    <rect class="cls-8" x="159.47" y="318.35" width="7.74" height="7.74"/>
    <rect class="cls-3" x="178.53" y="318.35" width="7.74" height="7.74"/>
    <rect class="cls-3" x="197.59" y="318.35" width="7.74" height="7.74"/>
    <rect class="cls-3" x="216.66" y="318.35" width="7.74" height="7.74"/>
    <rect class="cls-3" x="102.27" y="334.81" width="7.75" height="7.75"/>
    <rect class="cls-3" x="121.34" y="334.81" width="7.74" height="7.75"/>
    <rect class="cls-3" x="140.4" y="334.81" width="7.75" height="7.75"/>
    <rect class="cls-3" x="159.82" y="334.46" width="7.74" height="7.74"/>
    <rect class="cls-3" x="178.53" y="334.81" width="7.74" height="7.75"/>
    <rect class="cls-8" x="197.59" y="334.81" width="7.74" height="7.75"/>
    <rect class="cls-3" x="216.66" y="334.81" width="7.74" height="7.75"/>
    <rect class="cls-3" x="102.27" y="351.28" width="7.75" height="7.74"/>
    <rect class="cls-8" x="121.34" y="351.28" width="7.74" height="7.74"/>
    <rect class="cls-3" x="140.4" y="351.28" width="7.75" height="7.74"/>
    <rect class="cls-3" x="159.47" y="351.28" width="7.74" height="7.74"/>
    <rect class="cls-3" x="178.53" y="351.28" width="7.74" height="7.74"/>
    <rect class="cls-3" x="197.95" y="350.92" width="7.74" height="7.74"/>
    <rect class="cls-3" x="216.66" y="351.28" width="7.74" height="7.74"/>
    <path class="cls-3" d="M222.64,273.33h-120.93c-1.23,0-2.23-1-2.23-2.23h0c0-1.23,1-2.23,2.23-2.23h120.93c1.23,0,2.23,1,2.23,2.23h0c0,1.23-1,2.23-2.23,2.23Z"/>
    <path class="cls-3" d="M108.96,257.73h-7.25c-1.23,0-2.23-1-2.23-2.23h0c0-1.23,1-2.23,2.23-2.23h7.25c1.23,0,2.23,1,2.23,2.23h0c0,1.23-1,2.23-2.23,2.23Z"/>
    <path class="cls-3" d="M142.04,257.73h-23.53c-1.23,0-2.23-1-2.23-2.23h0c0-1.23,1-2.23,2.23-2.23h23.53c1.23,0,2.23,1,2.23,2.23h0c0,1.23-1,2.23-2.23,2.23Z"/>
  </g>
  <g>
    <g>
      <path class="cls-5" d="M343.18,511.36c-1.88-2.53-4.77-4.12-7.74-5.17-2.97-1.05-6.08-1.64-9.08-2.61-1.43-.47-3.05-1.28-3.24-2.77-.13-1.02.49-2,1.29-2.65.8-.65,1.76-1.05,2.64-1.57,4.67-2.76,6.58-9.35,4.12-14.18-2.46-4.83-8.93-7.15-13.9-4.99-.44.19-.9.44-1.12.87-.34.68.06,1.53.65,2.01.59.49,1.33.74,1.96,1.17,2.56,1.73,2.45,5.8.54,8.23-1.91,2.43-5,3.56-7.97,4.4-2.97.84-6.09,1.54-8.53,3.44-2.44,1.89-3.95,5.41-2.51,8.14.96,1.81,2.96,2.83,4.91,3.46,1.95.63,4.02,1.01,5.79,2.07s3.19,3.04,2.8,5.06c-.51,2.67-3.62,3.8-6.22,4.58-3,.9-5.96,1.97-8.85,3.19-1.92.82-3.9,1.77-5.14,3.44-1.25,1.68-1.48,4.29.03,5.73l35.51,1.06c-1.33-.33-3.19-5.28-2.45-6.44s2.14-1.7,3.48-2.02c2.52-.61,5.14-.74,7.65-1.39,2.51-.64,5.03-1.92,6.32-4.17,1.57-2.73.93-6.35-.95-8.88ZM310.31,504.11c-.3.74-1.03,1.26-1.81,1.42-.78.16-1.61,0-2.34-.31-1.03-.45-1.94-1.28-2.23-2.36-.21-.79.19-2.13.82-2.96h0s0,0,0,0c.13-.18.28-.33.43-.45.49-.43,1.08-.69,1.75-.7.88-.01,1.73.44,2.32,1.1.59.66.93,1.5,1.12,2.36.14.63.19,1.31-.05,1.91Z"/>
      <path class="cls-5" d="M314.46,478.83c0,.81-.66,1.47-1.47,1.47s-1.47-.66-1.47-1.47.66-1.47,1.47-1.47,1.47.66,1.47,1.47Z"/>
    </g>
    <g>
      <g>
        <path class="cls-3" d="M288.22,534.05h42.98l-3.22,23.64s-2.81,11.64-9.34,11.64h-18.63s-7.53-4.25-9.05-12.74l-2.74-22.54Z"/>
        <path class="cls-3" d="M327.97,546.24c.21-.06.42-.1.63-.15.05-.01.41-.08.08-.02-.35.06.1,0,.19-.01.47-.03.93,0,1.4.02-.46-.01-.07-.01.16.04.25.05.49.11.73.18.21.06.41.14.62.21.28.08-.08-.04-.12-.06.13.06.26.12.39.19.42.21.81.47,1.2.73.24.16-.07-.05-.1-.08.08.07.16.14.24.21.19.17.37.34.54.53.13.14.4.5.14.14.15.21.29.41.42.63.11.19.2.39.31.58.15.25-.03-.07-.04-.12.05.14.1.27.15.41.08.24.15.49.21.74.02.1.13.72.09.41-.04-.3.02.32.03.42.01.26.01.51,0,.77,0,.15-.02.29-.03.44,0,.05-.06.41,0,.09.05-.3-.07.32-.09.41-.05.21-.11.43-.17.64-.05.17-.3.76-.09.31-.2.43-.42.85-.69,1.25-.06.09-.12.18-.19.27.03-.04.26-.29.06-.1-.21.2-.39.43-.61.63-.08.07-.54.43-.32.28.23-.16-.28.17-.36.22-.18.11-.37.22-.56.32-.1.05-.19.09-.29.14.32-.16.16-.06-.08.03-.48.17-.97.26-1.46.39-.29.07.12-.01.15-.01-.14.01-.29.03-.43.04-.29.02-.58.02-.86.01-.11,0-.22,0-.32-.02-.06,0-.53-.06-.19-.01.33.04-.03,0-.08-.02-.14-.03-.28-.06-.42-.09-.28-.07-.55-.16-.82-.25-.04-.01-.37-.15-.09-.03.32.14-.28-.15-.28-.15-1.2-.62-2.87-.35-3.55.93-.63,1.19-.36,2.88.93,3.54,5.03,2.58,11.62,1.01,14.53-3.98,1.43-2.45,1.81-5.41,1.22-8.17-.59-2.74-2.38-5.08-4.72-6.57-2.59-1.65-5.88-2.14-8.83-1.33-1.31.36-2.24,1.86-1.81,3.19.43,1.34,1.79,2.19,3.19,1.81h0Z"/>
      </g>
      <path class="cls-5" d="M327.09,536.16c0,.09-8.3.16-18.53.16s-18.53-.07-18.53-.16,8.3-.16,18.53-.16,18.53.07,18.53.16Z"/>
    </g>
  </g>
  <g>
    <g>
      <polygon class="cls-3" points="602.57 52.73 602.57 213.71 394.64 213.71 387.15 53.85 602.57 52.73"/>
      <rect class="cls-5" x="411.09" y="29.72" width="160.05" height="207.93" transform="translate(357.42 624.8) rotate(-90)"/>
      <path class="cls-3" d="M595.87,214.51h-209.51V52.87h209.51v161.64ZM387.94,212.92h206.34V54.46h-206.34v158.46Z"/>
      <path class="cls-3" d="M387.15,53.29c.07-.09,1.41.74,3.52,2.16,2.11,1.42,4.99,3.43,8.12,5.74,3.13,2.31,5.89,4.49,7.84,6.12,1.95,1.63,3.11,2.71,3.04,2.79-.07.09-1.36-.82-3.4-2.33-2.27-1.69-4.98-3.7-7.97-5.92-2.99-2.23-5.7-4.24-7.97-5.93-2.02-1.54-3.24-2.54-3.18-2.64Z"/>
      <path class="cls-3" d="M595.07,53.66c.13.18-4.8,4.02-11.02,8.56-6.22,4.54-11.37,8.08-11.5,7.89-.13-.18,4.8-4.02,11.02-8.56,6.22-4.54,11.37-8.07,11.5-7.89Z"/>
      <path class="cls-3" d="M387.15,213.71c-.15-.17,4.71-4.81,10.87-10.37,6.16-5.56,11.27-9.92,11.42-9.75.15.17-4.71,4.81-10.87,10.37-6.15,5.55-11.27,9.92-11.42,9.75Z"/>
      <path class="cls-3" d="M571.73,192.64c.15-.17,5.5,4.41,11.95,10.23,6.45,5.82,11.55,10.67,11.4,10.84s-5.5-4.41-11.95-10.23c-6.45-5.82-11.55-10.67-11.4-10.84Z"/>
    </g>
    <g>
      <rect class="cls-11" x="409.67" y="70.11" width="162.89" height="122.53"/>
      <path class="cls-3" d="M572.55,70.11s-.27.01-.79.02c-.53,0-1.3.01-2.29.02-2.03,0-5.01.02-8.87.04-7.76.02-19.08.06-33.41.1-28.64.05-69.32.11-117.53.19l.37-.37c.01,36.75.03,78.47.04,122.52h0s-.41-.4-.41-.4c60.66.03,116.89.05,162.89.07l-.34.34c.07-37.03.13-67.62.18-88.97.04-10.68.07-19.05.09-24.77.02-2.85.03-5.03.04-6.52.01-1.48.04-2.26.04-2.26,0,0,.02.73.04,2.19,0,1.48.02,3.64.04,6.46.02,5.71.05,14.05.09,24.7.04,21.41.1,52.07.18,89.19v.34s-.34,0-.34,0c-46,.02-102.23.05-162.89.07h-.41v-.41h0c.01-44.06.03-85.78.04-122.53v-.37s.37,0,.37,0c48.31.08,89.06.14,117.77.19,14.3.04,25.58.08,33.32.1,3.83.02,6.78.03,8.8.04.98,0,1.72.02,2.25.02.5,0,.75.02.75.02Z"/>
      <line class="cls-11" x1="595.07" y1="213.71" x2="571.73" y2="192.64"/>
      <path class="cls-3" d="M528.82,92.7c0,.24-16.11.43-35.99.43s-35.99-.19-35.99-.43,16.11-.43,35.99-.43,35.99.19,35.99.43Z"/>
      <path class="cls-3" d="M545.03,133.22c0,.24-24.14.43-53.92.43s-53.93-.19-53.93-.43,24.14-.43,53.93-.43,53.92.19,53.92.43Z"/>
      <path class="cls-3" d="M545.03,143.23c0,.24-24.14.43-53.92.43s-53.93-.19-53.93-.43,24.14-.43,53.93-.43,53.92.19,53.92.43Z"/>
      <g>
        <path class="cls-3" d="M431.85,112.86c0-3.79,2.9-6.48,6.85-6.48,2.3,0,4.15.84,5.36,2.35l-2.24,2.03c-.78-.94-1.74-1.46-2.94-1.46-2.05,0-3.47,1.42-3.47,3.56s1.42,3.56,3.47,3.56c1.19,0,2.15-.52,2.94-1.46l2.24,2.03c-1.21,1.51-3.06,2.35-5.36,2.35-3.95,0-6.85-2.69-6.85-6.48Z"/>
        <path class="cls-3" d="M455.63,116.37v2.72h-10v-12.46h9.77v2.72h-6.28v2.1h5.54v2.63h-5.54v2.28h6.51Z"/>
        <path class="cls-3" d="M463.03,115.78h-1.92v3.31h-3.52v-12.46h5.7c3.4,0,5.54,1.76,5.54,4.61,0,1.83-.89,3.19-2.44,3.93l2.69,3.92h-3.77l-2.26-3.31ZM463.07,109.41h-1.96v3.65h1.96c1.46,0,2.19-.68,2.19-1.82s-.73-1.83-2.19-1.83Z"/>
        <path class="cls-3" d="M473.23,109.42h-3.83v-2.79h11.16v2.79h-3.81v9.66h-3.52v-9.66Z"/>
        <path class="cls-3" d="M481.89,106.63h3.52v12.46h-3.52v-12.46Z"/>
        <path class="cls-3" d="M491.45,109.35v2.74h5.5v2.72h-5.5v4.27h-3.52v-12.46h9.77v2.72h-6.25Z"/>
        <path class="cls-3" d="M499.35,106.63h3.52v12.46h-3.52v-12.46Z"/>
        <path class="cls-3" d="M504.74,112.86c0-3.79,2.9-6.48,6.85-6.48,2.3,0,4.15.84,5.36,2.35l-2.24,2.03c-.78-.94-1.74-1.46-2.94-1.46-2.05,0-3.47,1.42-3.47,3.56s1.42,3.56,3.47,3.56c1.19,0,2.15-.52,2.94-1.46l2.24,2.03c-1.21,1.51-3.06,2.35-5.36,2.35-3.95,0-6.85-2.69-6.85-6.48Z"/>
        <path class="cls-3" d="M526.65,116.67h-5.27l-.98,2.42h-3.6l5.5-12.46h3.47l5.52,12.46h-3.67l-.98-2.42ZM525.62,114.07l-1.6-3.99-1.6,3.99h3.2Z"/>
        <path class="cls-3" d="M534.33,109.42h-3.83v-2.79h11.16v2.79h-3.81v9.66h-3.52v-9.66Z"/>
        <path class="cls-3" d="M552.98,116.37v2.72h-10v-12.46h9.77v2.72h-6.28v2.1h5.54v2.63h-5.54v2.28h6.51Z"/>
      </g>
      <g>
        <path class="cls-3" d="M505.25,168.11c0,6.93-5.62,12.55-12.55,12.55s-12.55-5.62-12.55-12.55,5.62-12.55,12.55-12.55,12.55,5.62,12.55,12.55Z"/>
        <path class="cls-3" d="M492.71,180.7c-6.94,0-12.59-5.65-12.59-12.59s5.65-12.59,12.59-12.59,12.59,5.65,12.59,12.59-5.65,12.59-12.59,12.59ZM492.71,155.61c-6.9,0-12.51,5.61-12.51,12.51s5.61,12.51,12.51,12.51,12.51-5.61,12.51-12.51-5.61-12.51-12.51-12.51Z"/>
      </g>
      <path class="cls-3" d="M467.18,168.11c0,.24-6.77.43-15.12.43s-15.12-.19-15.12-.43,6.77-.43,15.12-.43,15.12.19,15.12.43Z"/>
      <path class="cls-3" d="M550.09,168.11c0,.24-7.57.43-16.91.43s-16.91-.19-16.91-.43,7.57-.43,16.91-.43,16.91.19,16.91.43Z"/>
      <path class="cls-8" d="M459.37,165.75s-.12-.35-.18-1.04c-.06-.69-.08-1.72.17-3.02.27-1.29.75-2.86,1.91-4.41.31-.37.73-.74,1.29-.88.56-.15,1.2,0,1.66.36.97.67,1.42,2.07,1.05,3.27-.32,1.22-1.09,2.25-1.85,3.27-.78,1.02-1.67,2.05-2.78,2.93-1.1.87-2.43,1.62-3.98,1.83-1.52.2-3.19-.05-4.56-1.02-1.43-.93-2.14-2.78-2-4.47.12-1.71.66-3.29,1.35-4.88.37-.79.88-1.57,1.65-2.15.77-.56,1.75-.88,2.76-.69,1.03.18,1.86,1.08,2.07,2.06.23.98.08,1.94-.17,2.83-.58,1.78-1.43,3.33-2.48,4.79-1.06,1.43-2.39,2.67-4,3.42-1.59.75-3.39.99-5.07.64-1.69-.32-3.19-1.42-4.01-2.83-.84-1.4-1.15-3.02-1.06-4.53.09-1.52.53-2.94,1.1-4.21.56-1.21,1.26-2.65,2.79-3.05.77-.17,1.57.28,1.92.89.36.6.47,1.25.5,1.86.05,2.41-.59,4.53-1.49,6.18-.88,1.67-2.01,2.87-3,3.73-1.01.85-1.91,1.35-2.54,1.64-.63.27-.98.38-.99.36-.05-.09,1.38-.52,3.3-2.25.93-.87,1.99-2.07,2.8-3.7.84-1.6,1.4-3.67,1.31-5.92-.04-.54-.16-1.11-.44-1.55-.27-.44-.76-.69-1.26-.58-.5.1-.97.51-1.34,1-.38.48-.65,1.08-.93,1.69-1.08,2.39-1.57,5.51-.02,8.04.74,1.24,2.01,2.16,3.5,2.44,1.48.3,3.11.08,4.54-.6,2.89-1.39,4.9-4.5,6.01-7.69.23-.8.34-1.65.16-2.39-.17-.73-.71-1.3-1.41-1.43-.7-.14-1.49.09-2.09.53-.6.45-1.05,1.12-1.39,1.84-.65,1.47-1.19,3.05-1.29,4.56-.11,1.51.46,2.99,1.65,3.79,1.15.83,2.65,1.09,4,.92,1.36-.17,2.6-.84,3.64-1.65,1.05-.82,1.92-1.79,2.69-2.77.77-.99,1.5-1.97,1.78-3.02.33-1.04-.03-2.11-.79-2.68-.75-.63-1.73-.28-2.27.4-1.1,1.39-1.64,2.94-1.94,4.17-.56,2.52-.21,3.99-.32,3.98Z"/>
      <path class="cls-8" d="M546.13,163.74s-.11.07-.33.18c-.22.1-.55.27-1,.45-.89.38-2.23.88-4.01,1.38-1.78.49-4,.98-6.62,1.22-1.31.12-2.72.19-4.22.16-1.49.03-3.11-.3-4.66-.12-.77.1-1.52.44-2.03,1.04-.53.58-.61,1.41-.25,2.17.34.76.96,1.46,1.54,2.2.59.73,1.21,1.46,1.86,2.18.65.73,1.33,1.45,2.03,2.16.71.71,1.42,1.46,2.29,1.77.86.34,1.81-.05,2.38-.84.6-.77.74-1.81.71-2.87-.9-8.78-.2-18.86,3.15-28.73l.37-1.08.43,1.05c.94,2.28,1.53,4.86,1.69,7.49.18,3.61-.4,7.21-1.71,10.45-.66,1.62-1.48,3.15-2.44,4.56-.95,1.37-2.13,2.85-3.94,3.33-.91.26-2.05-.11-2.59-.92-.55-.8-.63-1.7-.68-2.51-.1-1.61-.05-3.21.15-4.76.38-3.11,1.31-6.03,2.62-8.61l.27-.54.36.48c2.07,2.79,1.14,6.93-1.61,8.48-2.7,1.54-6.24.66-7.73-1.69-1.49-2.33-1.08-5.33.5-7.06.38-.44.87-.82,1.45-1,.58-.2,1.31-.03,1.69.47.38.49.43,1.08.4,1.59-.03.51-.15,1.01-.31,1.45-1.24,3.56-3.22,5.87-4.64,7.25-.72.69-1.33,1.16-1.75,1.46-.42.29-.65.43-.66.42-.01-.02.19-.19.59-.51.39-.33.97-.82,1.66-1.53,1.35-1.41,3.23-3.73,4.39-7.22.28-.81.47-1.89-.05-2.58-.57-.72-1.73-.23-2.36.58-1.4,1.56-1.74,4.33-.39,6.37,1.3,2.04,4.52,2.81,6.87,1.43,2.37-1.32,3.17-5.06,1.36-7.43l.63-.06c-1.25,2.52-2.14,5.36-2.5,8.37-.18,1.51-.22,3.05-.13,4.62.05.77.16,1.54.54,2.08.39.54,1.05.77,1.73.59.69-.17,1.35-.61,1.92-1.13.58-.51,1.02-1.21,1.52-1.87.93-1.36,1.72-2.84,2.35-4.4,1.27-3.12,1.82-6.6,1.65-10.08-.16-2.54-.73-5.03-1.62-7.21l.8-.03c-3.31,9.77-4.05,19.63-3.19,28.44.03,1.12-.13,2.38-.88,3.34-.36.47-.84.87-1.42,1.09-.58.22-1.24.19-1.79-.01-1.12-.42-1.85-1.25-2.56-1.96-.71-.73-1.39-1.47-2.04-2.2-.65-.74-1.27-1.48-1.86-2.22-.57-.75-1.2-1.45-1.61-2.35-.44-.88-.32-2.1.37-2.81.63-.73,1.55-1.11,2.41-1.21.87-.11,1.7-.03,2.48.04.78.06,1.54.12,2.28.14,1.48.05,2.87,0,4.17-.09,2.6-.19,4.81-.63,6.58-1.07,1.77-.45,3.12-.9,4.03-1.23.91-.33,1.38-.51,1.39-.48Z"/>
    </g>
  </g>
  <path class="cls-13" d="M944.55,796.62c0,.29-201.62.53-450.27.53s-450.31-.24-450.31-.53,201.58-.53,450.31-.53,450.27.24,450.27.53Z"/>
  <g>
    <rect class="cls-1" x="177.64" y="430.13" width="79.63" height="9.95"/>
    <polygon class="cls-1" points="185.16 437.95 185.68 440.08 197.28 487.83 242.94 487.83 253.59 437.5 185.16 437.95"/>
    <path class="cls-13" d="M184.78,439.98c0-.2,16.08-.36,35.91-.36s35.91.16,35.91.36-16.08.36-35.91.36-35.91-.16-35.91-.36Z"/>
    <g>
      <path class="cls-9" d="M163.21,412.94c-4.76,5.68-9.8,11.57-16.68,14.33-1.67.67-3.79,1.06-5.09-.19-1.51-1.46-.8-3.98.12-5.87,3.87-7.95,10.05-15.24,18.39-18.16,1.69-.59,3.74-.95,5.15.16,1.62,1.28,1.51,3.84.57,5.69-.93,1.84-2.47,3.33-3.4,5.17"/>
      <g class="cls-15">
        <path class="cls-2" d="M154.44,405.78s1.96,4.57,11.91.53c0,0,.64-2.86-1.25-3.11-1.89-.24-6-1.19-10.66,2.57Z"/>
      </g>
      <path class="cls-13" d="M205.19,437.95c-.15.06-.87-2.93-3.29-7.17-2.37-4.21-6.76-9.6-13.2-13.32-6.45-3.72-13.31-4.81-18.14-4.76-4.88.02-7.83.9-7.85.74,0-.02.17-.09.52-.19.35-.09.86-.26,1.54-.38,1.34-.3,3.32-.59,5.79-.67,4.9-.18,11.91.85,18.5,4.65,6.58,3.8,10.99,9.36,13.28,13.69,1.17,2.17,1.9,4.03,2.32,5.35.23.65.34,1.17.44,1.52.09.35.12.54.1.55Z"/>
      <path class="cls-13" d="M140.84,421.71c-.06-.07.69-.82,2.04-1.85,1.35-1.03,3.33-2.32,5.68-3.45,2.35-1.13,4.59-1.87,6.24-2.28,1.65-.41,2.7-.53,2.72-.44.05.22-4.04,1.13-8.65,3.37-4.62,2.21-7.89,4.84-8.03,4.66Z"/>
    </g>
    <path class="cls-9" d="M211.53,354.34c3.46-1.97,5.28-6.44,4.18-10.27-.72-2.54-2.53-4.63-4.53-6.34-6.96-5.94-17.03-8-25.76-5.27-2.63.82-5.21,2.11-7.01,4.2-3.24,3.79-3.21,9.69-.71,14.01,2.5,4.31,7.04,7.15,11.82,8.58,7.62,2.28,15.69-.08,22.01-4.91"/>
    <g class="cls-15">
      <path class="cls-2" d="M192.46,359.9s2.87-5.19,11.14-6.46c8.27-1.27,9.2,0,9.2,0,0,0-4.84,4.24-8.84,5.4s-11.5,1.07-11.5,1.07Z"/>
    </g>
    <path class="cls-9" d="M285.29,451.17c-.94-4.1-3.68-7.93-7.62-9.4l-2.28-.87c-7.13-1.26-14.82,1.44-19.6,6.88-4.78,5.43-6.47,13.41-4.32,20.32,1.68,5.38,5.89,10.19,11.38,11.47,4.77,1.11,9.92-.58,13.67-3.73,3.75-3.15,6.22-7.6,7.74-12.26,1.31-4,1.97-8.32,1.04-12.41Z"/>
    <path class="cls-9" d="M285.68,360.53c-7.75-1.04-15.89,1.17-22.05,5.99-2.13,1.67-4.06,3.66-5.35,6.04s-1.91,5.18-1.41,7.85c.52,2.74,2.19,5.18,4.31,7,2.12,1.82,4.66,3.08,7.25,4.12,7.82,3.11,16.41,4.27,24.78,3.36,2.99-.33,5.99-.93,8.71-2.23,2.72-1.3,5.15-3.35,6.49-6.04,1.85-3.7,1.44-8.27-.46-11.94-1.9-3.67-4.43-6.76-8-8.85-3.57-2.08-4.78-3.99-14.29-5.3"/>
    <path class="cls-13" d="M214.32,433.01c-.17.05-.69-2.92-2.75-7.25-.53-1.07-1.1-2.25-1.86-3.44-.69-1.23-1.56-2.45-2.48-3.74-1.9-2.53-4.13-5.2-6.75-7.76-5.2-5.15-10.46-9.24-14.22-12.23-1.89-1.49-3.42-2.7-4.46-3.56-1.04-.86-1.6-1.35-1.57-1.39.03-.04.65.38,1.74,1.17,1.19.87,2.73,2.01,4.59,3.38,3.85,2.89,9.18,6.92,14.42,12.12,2.64,2.58,4.89,5.3,6.78,7.88.91,1.32,1.78,2.57,2.46,3.82.75,1.21,1.3,2.42,1.81,3.52.56,1.08.85,2.14,1.19,3.04.35.9.55,1.7.69,2.36.31,1.32.46,2.05.41,2.06Z"/>
    <path class="cls-13" d="M261.7,445.4s-.55-.31-1.46-.98c-.9-.68-2.24-1.62-3.92-2.72-3.36-2.22-8.22-4.96-13.95-7.18-5.74-2.2-11.18-3.43-15.16-4.04-1.99-.31-3.61-.51-4.73-.61-1.12-.11-1.74-.2-1.74-.25,0-.05.63-.06,1.76-.03,1.13.02,2.77.14,4.78.39,4.02.48,9.55,1.65,15.35,3.87,5.79,2.24,10.67,5.09,13.97,7.43,1.66,1.17,2.96,2.17,3.81,2.92.86.74,1.32,1.16,1.29,1.2Z"/>
    <path class="cls-13" d="M275.23,420.41s-.72.16-2.04.31c-1.45.17-3.32.39-5.58.66-4.7.58-11.18,1.52-18.28,2.93-7.09,1.41-13.44,3.02-18.01,4.28-2.19.62-4,1.13-5.41,1.52-1.28.36-1.99.54-2,.5-.02-.05.67-.31,1.92-.76,1.25-.45,3.08-1.05,5.35-1.74,4.54-1.39,10.9-3.08,18.01-4.5,7.12-1.41,13.63-2.28,18.36-2.73,2.36-.23,4.28-.37,5.61-.44,1.33-.07,2.06-.08,2.07-.03Z"/>
    <path class="cls-13" d="M261.96,387.91s-.5.62-1.48,1.66c-.99,1.03-2.4,2.54-4.12,4.42-3.46,3.76-8.07,9.09-13.15,15-5.08,5.91-9.77,11.21-13.33,14.88-1.77,1.85-3.24,3.3-4.29,4.27-1.05.97-1.64,1.5-1.68,1.46-.03-.04.5-.62,1.48-1.66.99-1.03,2.4-2.54,4.12-4.42,3.46-3.76,8.07-9.09,13.15-15,5.08-5.91,9.77-11.2,13.32-14.88,1.77-1.85,3.24-3.3,4.29-4.27,1.05-.98,1.64-1.5,1.68-1.46Z"/>
    <g>
      <path class="cls-9" d="M209.71,354.78c.07,0,.13,0,.2,0,0,0,0,0,0,0h-.21Z"/>
      <path class="cls-9" d="M238.17,369.04c-1.07-5.68-5.95-10.05-11.35-12.1-5.34-2.02-11.19-2.16-16.9-2.16-3.63.06-11.34,2.3-17.15,7.59-3.45,3.14-6.18,7.37-6.47,12.02-.31,4.91,2.07,9.57,4.75,13.68,2.19,3.35,4.72,6.62,8.17,8.63,4.88,2.85,11.09,2.79,16.4.87,5.32-1.92,9.87-5.53,13.91-9.49,2.6-2.55,5.05-5.3,6.75-8.52,1.69-3.22,2.58-6.96,1.91-10.54Z"/>
    </g>
    <path class="cls-13" d="M217.84,431.56c-.2,0-.75-7.77-1.23-17.37-.48-9.6-.72-17.39-.52-17.4.2,0,.75,7.76,1.23,17.37.48,9.6.72,17.39.52,17.4Z"/>
    <path class="cls-13" d="M255.36,353.44s-.1.29-.35.8c-.29.58-.66,1.31-1.11,2.22-.97,1.92-2.38,4.71-4.05,8.18-3.38,6.93-7.84,16.6-12.67,27.33-4.83,10.73-9.2,20.46-12.5,27.43-1.64,3.49-3.01,6.3-3.98,8.23-.47.91-.84,1.64-1.14,2.21-.27.5-.42.76-.44.75-.02-.01.09-.29.31-.81.26-.59.6-1.34,1.02-2.27.93-2.05,2.21-4.87,3.77-8.32,3.18-7.11,7.52-16.81,12.31-27.51,4.83-10.73,9.36-20.39,12.87-27.26,1.73-3.45,3.21-6.2,4.26-8.09.5-.89.91-1.6,1.23-2.16.29-.49.45-.74.47-.73Z"/>
    <g>
      <path class="cls-9" d="M159.8,405.12c3.58-.07,8.71-1.23,11.73-3.16,5.83-3.74,11.9-6.76,15.13-12.89.78-1.49,1.37-3.32.6-4.81-1.01-1.95-3.66-2.22-5.85-2.08-8.88.53-17.99,3.65-23.81,10.38-1.81,2.09-3.32,4.69-3.15,7.46.17,2.76,2.6,5.49,5.34,5.11"/>
      <path class="cls-13" d="M180.24,390.21c-.01.12-1.49.01-3.87.08-2.38.06-5.65.37-9.17,1.23-3.52.87-6.56,2.12-8.7,3.17-2.14,1.05-3.4,1.83-3.46,1.73-.05-.07,1.12-1,3.23-2.17,2.1-1.18,5.18-2.53,8.76-3.42,3.58-.88,6.94-1.11,9.34-1.05,2.41.06,3.88.35,3.87.43Z"/>
    </g>
    <g>
      <g class="cls-15">
        <path class="cls-2" d="M187.77,448.68c2.71-2.16,4.16-5.35,4.7-8.77.54-3.42.05-6.85-1.86-9.74l-7.67.03,4.83,18.48Z"/>
      </g>
      <path class="cls-9" d="M188.7,434.66c-.52-3.1-2.41-6.05-5.24-7.41l-4.08-2.25c-4.67-2.13-10.18-1.59-15.03.1-4.62,1.61-8.97,4.31-11.86,8.25s-4.17,9.22-2.68,13.87c1.5,4.66,5.63,8.22,10.32,9.61,4.69,1.39,9.83.76,14.34-1.14,5.46-2.3,10.17-6.5,12.69-11.86,1.34-2.85,2.06-6.06,1.54-9.17Z"/>
      <path class="cls-13" d="M171.59,434.79c.08.07-.77,1.2-2.06,3.07-1.29,1.87-2.98,4.51-4.6,7.57-1.61,3.07-2.83,5.96-3.64,8.08-.81,2.12-1.26,3.46-1.36,3.43-.08-.02.19-1.42.89-3.6.69-2.18,1.85-5.14,3.48-8.24,1.63-3.1,3.42-5.73,4.82-7.54,1.41-1.81,2.4-2.83,2.46-2.77Z"/>
    </g>
    <g>
      <g class="cls-15">
        <path class="cls-2" d="M225.89,432.69c-6.84-2.77-15.1.74-19.37,6.76-4.27,6.02-5.11,13.9-4.16,21.22.53,4.06,1.59,8.11,3.72,11.61,2.13,3.5,5.4,6.41,9.34,7.53,4.3,1.21,9.03.17,12.83-2.18,3.8-2.35,6.72-5.91,8.96-9.78,3.54-6.13,5.48-13.48,3.85-20.36-1.64-6.88-8.13-14.18-15.17-14.81"/>
      </g>
      <path class="cls-9" d="M222.45,428.23c-6.84-2.77-15.1.74-19.37,6.76s-5.11,13.9-4.16,21.22c.53,4.06,1.59,8.11,3.72,11.61,2.13,3.5,5.4,6.41,9.34,7.53,4.3,1.21,9.03.17,12.83-2.18,3.8-2.35,6.72-5.91,8.96-9.78,3.54-6.13,5.48-13.48,3.85-20.36-1.64-6.88-8.13-14.18-15.18-14.81"/>
      <path class="cls-13" d="M218.43,475.45s-.14-.46-.25-1.29c-.12-.84-.25-2.05-.38-3.56-.27-3.01-.5-7.18-.51-11.79-.01-4.61.19-8.79.43-11.8.12-1.51.24-2.72.36-3.56.11-.84.19-1.3.24-1.29.1,0,.02,1.87-.1,4.88-.12,3.01-.24,7.17-.22,11.76.02,4.59.17,8.75.3,11.76.14,3.01.23,4.87.13,4.88Z"/>
    </g>
    <path class="cls-13" d="M274.26,477.19c-.12-.06.59-1.27,1.01-3.42.44-2.14.43-5.23-.55-8.43-.98-3.2-2.53-5.86-3.68-7.75-1.16-1.89-1.92-3.04-1.84-3.1.07-.05.98.99,2.26,2.83,1.26,1.83,2.92,4.51,3.93,7.82,1.01,3.32.94,6.56.36,8.75-.28,1.1-.64,1.95-.95,2.5-.3.55-.52.83-.55.81Z"/>
    <g class="cls-15">
      <path class="cls-2" d="M270.54,440.63s2.64,13.39,14.75,10.53c0,0,.44-11.86-14.75-10.53Z"/>
    </g>
    <path class="cls-9" d="M282.5,409.85c-1.95-.62-3.93-1.24-5.98-1.22-2.04.02-4.19.78-5.37,2.45-.93,1.31-1.16,2.98-1.28,4.59-.56,7.05.26,14.22,2.41,20.96.74,2.34,1.67,4.67,3.2,6.59,1.53,1.92,3.76,3.39,6.21,3.54,3.7.23,6.95-2.54,9-5.63,3.25-4.91,4.53-11.14,3.29-16.9-1.24-5.76-5.02-10.96-10.21-13.76"/>
    <path class="cls-13" d="M306.82,373.53c0,.1-1.49.18-3.88.34-2.4.15-5.7.41-9.34.84-3.64.44-6.91.98-9.27,1.4-2.36.42-3.83.69-3.85.59-.02-.09,1.4-.54,3.75-1.09,2.35-.55,5.63-1.17,9.29-1.61,3.66-.44,6.99-.62,9.4-.64,2.41-.03,3.9.07,3.9.16Z"/>
    <path class="cls-13" d="M204.49,398.64c-.09,0-.31-1.61-.44-4.23-.12-2.62-.13-6.29.53-10.28.34-1.99.85-3.86,1.43-5.51.61-1.64,1.28-3.08,1.96-4.21.67-1.14,1.28-2.02,1.76-2.58.47-.57.74-.87.78-.84.11.08-.9,1.36-2.1,3.67-.61,1.15-1.22,2.57-1.79,4.19-.54,1.63-1.01,3.46-1.35,5.41-.66,3.91-.72,7.53-.73,10.15,0,2.62.04,4.24-.06,4.25Z"/>
    <path class="cls-13" d="M199.48,344.35c-.15.16-3.34-3.03-7.97-6.01-4.61-3.01-8.82-4.62-8.74-4.83.03-.08,1.12.21,2.81.9,1.69.69,3.96,1.81,6.31,3.33,2.34,1.52,4.29,3.14,5.61,4.4,1.32,1.26,2.03,2.14,1.97,2.2Z"/>
    <path class="cls-9" d="M290.84,344.94c-.96-.8-2.2-1.18-3.41-1.51-12.06-3.24-25.17-2.41-36.77,2.22-1.03.41-2.08.87-2.84,1.69-.75.82-1.13,2.08-.61,3.06l.23.19c1.34,2.07,6.01,3.53,9.51,3.8,10.81.84,22,.56,32.04-3.53,1.29-.53,2.7-1.27,3.09-2.61.35-1.2-.28-2.52-1.25-3.32Z"/>
  </g>
  <g>
    <polygon class="cls-7" points="552.87 693.19 565.7 852.91 552.87 852.91 534.3 693.19 552.87 693.19"/>
    <polygon class="cls-7" points="438.18 692.75 425.34 852.48 438.18 852.48 456.74 692.75 438.18 692.75"/>
    <rect class="cls-10" x="404.85" y="772.61" width="178.9" height="12.42"/>
    <polygon class="cls-10" points="590.57 693.19 603.4 852.91 590.57 852.91 572.01 693.19 590.57 693.19"/>
    <path class="cls-9" d="M615.02,452.25c-14.94-19.12-37.53-28.37-59.66-34.17-20.68-5.42-41.84-8.41-63.07-9.06v-.14c-.9.01-1.79.05-2.68.07-.89-.02-1.79-.06-2.68-.07v.14c-21.23.64-42.4,3.64-63.08,9.06-22.12,5.8-44.72,15.05-59.66,34.17-19.58,25.07-25.33,101.19-16.68,133.02,8.65,31.83,15.47,66.96,33.07,93.8l111.57-16.96,117.1,16.96c5.08-6.84,17.62-68.52,26.27-100.35,8.65-31.83-.92-101.41-20.5-126.48Z"/>
    <path class="cls-9" d="M594.79,693.19h-201.05c-10.27,0-18.6-8.33-18.6-18.6h0c0-10.27,8.33-18.6,18.6-18.6h201.05c10.27,0,18.6,8.33,18.6,18.6h0c0,10.27-8.33,18.6-18.6,18.6Z"/>
    <path class="cls-13" d="M597.7,656.34c0,.29-45.93.53-102.58.53s-102.59-.24-102.59-.53,45.92-.53,102.59-.53,102.58.24,102.58.53Z"/>
    <polygon class="cls-10" points="402.1 692.75 389.27 852.48 402.1 852.48 420.67 692.75 402.1 692.75"/>
    <path class="cls-13" d="M404.97,451.81c.05.1-1.1,1.29-3.1,3.54-2.01,2.24-4.81,5.68-7.96,10.35-6.29,9.24-13.7,24.24-17.46,43.14-3.75,18.91-2.93,37.11-.95,49.56.97,6.27,2.11,11.23,3,14.6.89,3.37,1.43,5.22,1.35,5.27-.03.02-.21-.42-.51-1.27-.28-.86-.76-2.11-1.23-3.79-1.02-3.32-2.27-8.28-3.35-14.58-2.19-12.52-3.16-30.98.66-50.18,3.81-19.2,11.44-34.33,17.94-43.47,3.25-4.63,6.15-7.96,8.25-10.08,1.02-1.1,1.89-1.83,2.45-2.36.57-.52.88-.77.9-.72Z"/>
    <path class="cls-13" d="M409.15,658.99s-.18-.39-.41-1.17c-.26-.89-.58-2.01-.99-3.39-.85-3.09-2.03-7.34-3.46-12.52-2.92-10.57-6.91-25.19-12.08-41.1-1.28-3.97-2.69-7.79-4.46-11.27-1.79-3.46-3.96-6.59-6.69-8.87-2.68-2.32-5.93-3.6-9.03-4.02-3.14-.35-6.11.1-8.71.84-5.21,1.55-9.05,3.88-11.69,5.38-1.23.74-2.24,1.34-3.03,1.81-.69.42-1.07.62-1.09.59-.02-.03.31-.29.97-.77.66-.47,1.64-1.15,2.93-1.99,2.59-1.62,6.39-4.07,11.7-5.75,2.65-.8,5.72-1.33,9.02-.99,3.27.4,6.72,1.72,9.56,4.14,2.88,2.37,5.14,5.61,6.98,9.14,1.83,3.55,3.26,7.43,4.55,11.42,5.18,15.94,9.06,30.61,11.8,41.23,1.3,5.22,2.36,9.5,3.14,12.61.32,1.4.59,2.55.79,3.44.17.79.24,1.21.21,1.22Z"/>
    <path class="cls-13" d="M571.74,450.86s.34.18.93.65c.58.49,1.48,1.13,2.55,2.15,2.19,1.93,5.23,5.02,8.67,9.36,6.88,8.57,15.16,23.02,19.81,41.85,4.65,18.84,4.5,37.35,2.85,50.03-.8,6.38-1.84,11.44-2.71,14.84-.4,1.72-.82,3-1.06,3.89-.26.88-.42,1.33-.45,1.31-.08-.04.38-1.93,1.12-5.37.74-3.44,1.66-8.49,2.36-14.83,1.44-12.6,1.46-30.83-3.12-49.38-4.58-18.55-12.63-32.88-19.31-41.57-3.34-4.39-6.29-7.58-8.4-9.65-2.1-2.08-3.3-3.16-3.25-3.27Z"/>
    <path class="cls-13" d="M578.06,658.24s.01-.43.13-1.23c.15-.91.34-2.06.58-3.49.58-3.16,1.38-7.49,2.36-12.78,2.08-10.77,5.05-25.65,9.25-41.88,1.04-4.06,2.23-8.02,3.84-11.68,1.62-3.64,3.68-7.01,6.41-9.55,2.68-2.59,6.05-4.12,9.28-4.72,3.27-.54,6.37-.2,9.07.44,5.4,1.35,9.34,3.57,12.03,5.02,1.34.75,2.36,1.37,3.04,1.8.68.43,1.03.68,1.01.71-.02.03-.4-.15-1.12-.52-.82-.42-1.86-.96-3.13-1.62-2.73-1.34-6.71-3.43-12-4.66-2.64-.58-5.63-.85-8.74-.3-3.08.61-6.23,2.08-8.77,4.56-2.58,2.43-4.56,5.7-6.13,9.26-1.56,3.58-2.73,7.48-3.76,11.52-4.19,16.19-7.28,31.03-9.54,41.76-1.11,5.26-2.02,9.57-2.69,12.71-.32,1.41-.57,2.55-.78,3.45-.19.79-.31,1.2-.34,1.19Z"/>
  </g>
  <g>
    <g>
      <path class="cls-3" d="M600.02,385.42h187.77c4.95,0,8.97,4.02,8.97,8.97v136.56c0,4.95-4.02,8.97-8.97,8.97h-187.77c-4.95,0-8.97-4.02-8.97-8.97v-136.56c0-4.95,4.02-8.97,8.97-8.97Z"/>
      <path class="cls-13" d="M787.79,539.91s.62,0,1.8-.24c1.15-.27,2.92-.88,4.55-2.55.8-.84,1.54-1.94,2-3.29.52-1.35.49-2.93.47-4.65-.01-3.44-.03-7.4-.05-11.85-.04-17.87-.1-43.67-.17-75.54-.01-7.97-.02-16.33-.03-25.03,0-4.35-.01-8.79-.02-13.32,0-2.26,0-4.54,0-6.85-.02-1.15.05-2.33-.1-3.4-.15-1.09-.53-2.16-1.1-3.12-1.13-1.92-3.06-3.39-5.26-3.93-1.1-.29-2.23-.27-3.46-.26-1.2,0-2.41,0-3.62,0-4.84,0-9.77,0-14.76.01-9.99,0-20.27.01-30.81.02-42.17.01-88.53.03-137.19.04-2.88-.01-5.68,1.53-7.17,3.98-.76,1.2-1.2,2.6-1.26,4.02-.05,1.45-.01,3-.02,4.49,0,6.01,0,11.98,0,17.9,0,11.85,0,23.53,0,35-.01,22.95-.02,45.09-.03,66.17,0,2.64,0,5.26,0,7.86,0,1.3,0,2.6,0,3.89,0,1.31-.06,2.56.26,3.73.58,2.36,2.21,4.43,4.36,5.51,1.07.55,2.25.86,3.44.92,1.21.05,2.5.01,3.74.03,9.99,0,19.69.02,29.06.03,18.75.02,36.22.04,52.17.06,31.88.07,57.68.13,75.54.17,8.9.04,15.81.08,20.54.1,2.33.02,4.11.04,5.34.05,1.2.02,1.82.05,1.82.05,0,0-.62.04-1.82.05-1.23.01-3.01.03-5.34.05-4.72.02-11.64.06-20.54.1-17.86.04-43.66.1-75.54.17-15.95.02-33.42.04-52.17.06-9.38,0-19.08.02-29.06.03-1.26,0-2.48.03-3.78-.02-1.32-.06-2.63-.41-3.82-1.02-2.39-1.19-4.21-3.49-4.86-6.12-.35-1.33-.28-2.7-.29-3.96,0-1.29,0-2.59,0-3.89,0-2.6,0-5.22,0-7.86,0-21.09-.02-43.23-.03-66.17,0-11.47,0-23.15,0-35,0-5.93,0-11.9,0-17.9.01-1.51-.02-2.98.02-4.54.07-1.6.57-3.17,1.42-4.52,1.67-2.75,4.84-4.49,8.07-4.48,48.66.01,95.02.03,137.19.04,10.54,0,20.82.02,30.81.02,4.99,0,9.92,0,14.76.01,1.21,0,2.42,0,3.62,0,1.17,0,2.46-.03,3.68.3,2.43.61,4.55,2.23,5.8,4.35.62,1.06,1.03,2.24,1.2,3.44.16,1.23.08,2.37.1,3.53,0,2.3,0,4.59,0,6.85,0,4.52-.01,8.96-.02,13.32-.01,8.7-.02,17.06-.03,25.03-.07,31.88-.13,57.68-.17,75.54-.02,4.46-.03,8.42-.05,11.85,0,1.7.02,3.36-.53,4.74-.49,1.39-1.26,2.51-2.1,3.35-1.7,1.69-3.51,2.28-4.68,2.51-1.2.2-1.82.13-1.82.13Z"/>
    </g>
    <path class="cls-3" d="M678.97,491.17l9.88,71.78s-47.65-3.13-49.97,5.51h104.6l-19.76-78.76-44.74,1.46Z"/>
    <path class="cls-13" d="M638.87,568.47s0-.09.03-.26c.05-.16.06-.45.28-.73.32-.63,1.14-1.31,2.31-1.88,2.35-1.16,6.06-1.94,10.65-2.55,9.19-1.56,22.2-1.2,36.72-.62l-.55.61c-.31-2.22-.63-4.56-.96-6.93-2.14-15.98-4.07-30.44-5.5-41.08-.64-5.15-1.16-9.38-1.55-12.46-.15-1.38-.27-2.5-.37-3.4-.07-.78-.09-1.19-.06-1.19.04,0,.13.4.27,1.17.15.88.33,2,.56,3.37.47,3.07,1.1,7.28,1.88,12.41,1.5,10.62,3.54,25.06,5.8,41.02.33,2.37.65,4.71.95,6.93l.09.63-.63-.03c-14.52-.61-27.42-1.1-36.59.27-4.58.51-8.26,1.18-10.57,2.2-1.15.5-1.96,1.09-2.31,1.64-.38.52-.42.9-.48.88Z"/>
    <path class="cls-13" d="M685.5,494.22s.26-.06.77-.09c.6-.02,1.33-.05,2.22-.08,2.08-.04,4.87-.09,8.31-.15,7.25-.05,17.22-.11,28.79-.19h.4s.09.39.09.39c1.33,5.48,2.77,11.43,4.27,17.63,3.69,15.58,7.03,29.68,9.49,40.06,1.14,5.03,2.08,9.16,2.76,12.17.28,1.35.51,2.45.7,3.32.15.76.21,1.17.17,1.18-.04,0-.17-.38-.38-1.12-.23-.86-.53-1.94-.89-3.27-.76-2.99-1.81-7.09-3.09-12.09-2.54-10.36-5.99-24.44-9.8-40-1.48-6.2-2.91-12.16-4.22-17.64l.49.39c-11.57-.08-21.54-.14-28.79-.19-3.44-.06-6.24-.11-8.31-.15-.88-.03-1.61-.06-2.22-.08-.5-.03-.77-.06-.77-.09Z"/>
    <g class="cls-14">
      <path class="cls-2" d="M591.05,396.53v132.26c0,6.14,4.98,11.12,11.12,11.12v-154.49c-6.14,0-11.12,4.98-11.12,11.12Z"/>
    </g>
  </g>
  <g>
    <g>
      <rect class="cls-9" x="702.92" y="113.19" width="164.39" height="212.32"/>
      <path class="cls-13" d="M867.31,113.19s-.14.21-.45.57c-.36.41-.83.93-1.41,1.59-1.32,1.44-3.17,3.48-5.55,6.08l-.07.07h-.1c-14.29.15-42.37.25-74.61.25s-60.33-.1-74.62-.25h-.1s-.07-.07-.07-.07c-2.38-2.61-4.23-4.64-5.55-6.08-.58-.66-1.05-1.18-1.41-1.59-.31-.36-.46-.55-.45-.57.02-.01.2.15.54.48.38.39.88.88,1.5,1.51,1.36,1.41,3.27,3.39,5.71,5.93l-.17-.07c14.29-.15,42.37-.24,74.62-.24s60.32.1,74.61.25l-.17.07c2.45-2.54,4.36-4.53,5.71-5.93.62-.63,1.11-1.12,1.5-1.51.34-.33.52-.5.54-.48Z"/>
      <path class="cls-13" d="M702.92,325.51s.14-.21.45-.57c.36-.41.83-.93,1.41-1.59,1.32-1.44,3.17-3.48,5.55-6.08l.07-.07h.1c14.29-.15,42.37-.25,74.61-.25s60.33.1,74.62.25h.1s.07.07.07.07c2.38,2.61,4.23,4.64,5.55,6.08.58.66,1.05,1.18,1.41,1.59.31.36.46.55.45.57-.02.01-.2-.15-.54-.48-.38-.39-.88-.88-1.5-1.51-1.36-1.41-3.27-3.39-5.71-5.93l.17.07c-14.29.15-42.37.25-74.62.25s-60.32-.1-74.61-.25l.17-.07c-2.45,2.54-4.36,4.53-5.71,5.93-.62.63-1.11,1.12-1.5,1.51-.34.33-.52.5-.54.48Z"/>
    </g>
    <g>
      <rect class="cls-11" x="710.5" y="121.27" width="149.23" height="196.15"/>
      <path class="cls-1" d="M733.86,260.06c4.44-4.23,10.99-5.43,17.12-5.27,6.13.15,12.2,1.45,18.33,1.37,9.8-.12,19.57-3.75,29.23-2.08,3.09.54,6.22,1.61,9.28.96,2.68-.57,4.94-2.4,7.57-3.19,6.81-2.03,14.46,3.29,21,.52v43.78h-102.53v-36.09Z"/>
      <path class="cls-13" d="M735.92,261.82c-.26,0-.48-25.94-.48-57.92s.21-57.93.48-57.93.48,25.93.48,57.93-.21,57.92-.48,57.92Z"/>
      <path class="cls-13" d="M740.59,261.82c-.26,0-.48-25.94-.48-57.92s.21-57.93.48-57.93.48,25.93.48,57.93-.21,57.92-.48,57.92Z"/>
      <path class="cls-13" d="M745.26,261.82c-.26,0-.48-25.94-.48-57.92s.21-57.93.48-57.93.48,25.93.48,57.93-.21,57.92-.48,57.92Z"/>
      <path class="cls-13" d="M749.92,261.82c-.26,0-.48-25.94-.48-57.92s.21-57.93.48-57.93.48,25.93.48,57.93-.21,57.92-.48,57.92Z"/>
      <path class="cls-13" d="M754.59,261.82c-.26,0-.48-25.94-.48-57.92s.21-57.93.48-57.93.48,25.93.48,57.93-.21,57.92-.48,57.92Z"/>
      <path class="cls-13" d="M759.26,261.82c-.26,0-.48-25.94-.48-57.92s.21-57.93.48-57.93.48,25.93.48,57.93-.21,57.92-.48,57.92Z"/>
      <path class="cls-13" d="M763.93,261.82c-.26,0-.48-25.94-.48-57.92s.21-57.93.48-57.93.48,25.93.48,57.93-.21,57.92-.48,57.92Z"/>
      <path class="cls-13" d="M768.6,261.82c-.26,0-.48-25.94-.48-57.92s.21-57.93.48-57.93.48,25.93.48,57.93-.21,57.92-.48,57.92Z"/>
      <path class="cls-13" d="M773.26,261.82c-.26,0-.48-25.94-.48-57.92s.21-57.93.48-57.93.48,25.93.48,57.93-.21,57.92-.48,57.92Z"/>
      <path class="cls-13" d="M777.93,261.82c-.26,0-.48-25.94-.48-57.92s.21-57.93.48-57.93.48,25.93.48,57.93-.21,57.92-.48,57.92Z"/>
      <path class="cls-13" d="M782.6,261.82c-.26,0-.48-25.94-.48-57.92s.21-57.93.48-57.93.48,25.93.48,57.93-.21,57.92-.48,57.92Z"/>
      <path class="cls-13" d="M787.27,261.82c-.26,0-.48-25.94-.48-57.92s.21-57.93.48-57.93.48,25.93.48,57.93-.21,57.92-.48,57.92Z"/>
      <path class="cls-13" d="M791.94,261.82c-.26,0-.48-25.94-.48-57.92s.21-57.93.48-57.93.48,25.93.48,57.93-.21,57.92-.48,57.92Z"/>
      <path class="cls-13" d="M796.6,261.82c-.26,0-.48-25.94-.48-57.92s.21-57.93.48-57.93.48,25.93.48,57.93-.21,57.92-.48,57.92Z"/>
      <path class="cls-13" d="M801.27,261.82c-.26,0-.48-25.94-.48-57.92s.21-57.93.48-57.93.48,25.93.48,57.93-.21,57.92-.48,57.92Z"/>
      <path class="cls-13" d="M805.94,261.82c-.26,0-.48-25.94-.48-57.92s.21-57.93.48-57.93.48,25.93.48,57.93-.21,57.92-.48,57.92Z"/>
      <path class="cls-13" d="M810.61,261.82c-.26,0-.48-25.94-.48-57.92s.21-57.93.48-57.93.48,25.93.48,57.93-.21,57.92-.48,57.92Z"/>
      <path class="cls-13" d="M815.28,261.82c-.26,0-.48-25.94-.48-57.92s.21-57.93.48-57.93.48,25.93.48,57.93-.21,57.92-.48,57.92Z"/>
      <path class="cls-13" d="M819.94,261.82c-.26,0-.48-25.94-.48-57.92s.21-57.93.48-57.93.48,25.93.48,57.93-.21,57.92-.48,57.92Z"/>
      <path class="cls-13" d="M824.61,261.82c-.26,0-.48-25.94-.48-57.92s.21-57.93.48-57.93.48,25.93.48,57.93-.21,57.92-.48,57.92Z"/>
      <path class="cls-13" d="M829.28,261.82c-.26,0-.48-25.94-.48-57.92s.21-57.93.48-57.93.48,25.93.48,57.93-.21,57.92-.48,57.92Z"/>
      <path class="cls-13" d="M833.95,261.82c-.26,0-.48-25.94-.48-57.92s.21-57.93.48-57.93.48,25.93.48,57.93-.21,57.92-.48,57.92Z"/>
    </g>
  </g>
  <g>
    <circle class="cls-1" cx="214.85" cy="115.98" r="64.98"/>
    <g>
      <circle class="cls-11" cx="214.85" cy="115.98" r="60.3"/>
      <g class="cls-15">
        <path class="cls-2" d="M160.33,114.52c0-25.01,14.9-46.53,36.3-56.19-24.4,7.72-42.09,30.54-42.09,57.49,0,33.3,27,60.3,60.3,60.3,1.18,0,2.36-.04,3.53-.11-32.36-1.85-58.04-28.67-58.04-61.5Z"/>
      </g>
      <path class="cls-13" d="M275.14,115.98s-.02-.33-.05-.98c-.04-.65-.02-1.61-.13-2.87-.15-2.51-.57-6.23-1.73-10.87-.62-2.31-1.36-4.87-2.48-7.56-1.09-2.7-2.43-5.57-4.2-8.48-3.49-5.82-8.49-11.9-15.3-17.09-3.39-2.6-7.25-4.94-11.49-6.86-4.25-1.93-8.88-3.47-13.83-4.36-4.94-.91-10.16-1.27-15.5-.85-2.67.16-5.36.59-8.06,1.13-2.69.58-5.37,1.35-8.04,2.29-10.6,3.84-20.68,11.01-27.94,20.96-1.84,2.46-3.45,5.12-4.9,7.89-.74,1.38-1.37,2.81-2.02,4.25-.58,1.46-1.18,2.93-1.66,4.44-2.03,6.01-3.04,12.45-3.07,18.97.03,6.52,1.04,12.96,3.07,18.97.48,1.51,1.08,2.98,1.66,4.44.65,1.44,1.28,2.87,2.02,4.25,1.45,2.76,3.06,5.43,4.9,7.89,7.26,9.95,17.34,17.12,27.94,20.96,2.66.95,5.35,1.72,8.04,2.29,2.7.53,5.38.97,8.06,1.13,5.34.42,10.57.06,15.5-.85,4.95-.89,9.59-2.44,13.83-4.36,4.25-1.93,8.1-4.26,11.49-6.87,6.81-5.19,11.81-11.28,15.3-17.09,1.76-2.91,3.11-5.78,4.2-8.48,1.11-2.69,1.86-5.25,2.48-7.56,1.15-4.65,1.57-8.36,1.72-10.87.11-1.26.09-2.22.13-2.87.02-.65.05-.98.05-.98,0,0,.03,1.33-.09,3.85-.13,2.52-.52,6.24-1.65,10.91-.61,2.32-1.34,4.89-2.45,7.6-1.08,2.71-2.42,5.6-4.18,8.53-3.48,5.85-8.48,11.98-15.32,17.21-3.4,2.62-7.27,4.98-11.54,6.93-4.27,1.94-8.93,3.51-13.9,4.41-4.97.92-10.22,1.29-15.6.88-2.69-.16-5.39-.59-8.11-1.13-2.71-.58-5.41-1.35-8.09-2.3-10.68-3.86-20.83-11.07-28.15-21.09-1.85-2.48-3.47-5.16-4.94-7.94-.75-1.39-1.38-2.83-2.03-4.28-.58-1.47-1.19-2.95-1.67-4.47-2.04-6.06-3.06-12.55-3.09-19.11.04-6.56,1.05-13.04,3.1-19.1.48-1.52,1.09-3,1.67-4.47.65-1.45,1.29-2.89,2.03-4.28,1.46-2.78,3.08-5.46,4.94-7.94,7.31-10.01,17.46-17.23,28.14-21.08,2.68-.95,5.38-1.72,8.09-2.3,2.72-.54,5.42-.97,8.11-1.13,5.37-.41,10.63-.05,15.59.88,4.97.9,9.64,2.47,13.9,4.41,4.27,1.95,8.14,4.3,11.54,6.92,6.83,5.23,11.84,11.36,15.32,17.21,1.76,2.92,3.1,5.82,4.18,8.53,1.1,2.71,1.84,5.28,2.45,7.6,1.13,4.67,1.52,8.39,1.65,10.91.13,2.52.09,3.85.09,3.85Z"/>
    </g>
    <g>
      <g>
        <path class="cls-13" d="M215.06,65.38v9.88h-1.02v-8.98h-2.33v-.9h3.35Z"/>
        <path class="cls-13" d="M224.17,74.36v.9h-6.93v-.72l4.11-4.02c1.11-1.1,1.33-1.76,1.33-2.44,0-1.14-.8-1.85-2.31-1.85-1.16,0-2.05.35-2.7,1.1l-.72-.62c.76-.9,1.99-1.41,3.5-1.41,2,0,3.27,1.02,3.27,2.67,0,.95-.3,1.79-1.62,3.09l-3.36,3.3h5.44Z"/>
      </g>
      <path class="cls-13" d="M241.61,72.74v9.88h-1.02v-8.98h-2.33v-.9h3.35Z"/>
      <g>
        <path class="cls-13" d="M191.56,72.74v9.88h-1.02v-8.98h-2.33v-.9h3.35Z"/>
        <path class="cls-13" d="M196.65,72.74v9.88h-1.02v-8.98h-2.33v-.9h3.35Z"/>
      </g>
      <path class="cls-13" d="M260.4,95.75v.9h-6.93v-.72l4.11-4.02c1.11-1.1,1.33-1.76,1.33-2.44,0-1.14-.8-1.85-2.31-1.85-1.16,0-2.05.35-2.7,1.1l-.72-.62c.76-.9,1.99-1.41,3.5-1.41,2,0,3.27,1.02,3.27,2.67,0,.95-.3,1.79-1.62,3.09l-3.36,3.3h5.44Z"/>
      <g>
        <path class="cls-13" d="M173.02,87.93v9.88h-1.02v-8.98h-2.33v-.9h3.35Z"/>
        <path class="cls-13" d="M175.38,92.87c0-3.15,1.65-5.03,3.94-5.03s3.95,1.88,3.95,5.03-1.67,5.03-3.95,5.03-3.94-1.88-3.94-5.03ZM182.23,92.87c0-2.64-1.19-4.09-2.91-4.09s-2.91,1.45-2.91,4.09,1.19,4.09,2.91,4.09,2.91-1.45,2.91-4.09Z"/>
      </g>
      <path class="cls-13" d="M264.57,118.25c0,1.65-1.2,2.92-3.59,2.92-1.42,0-2.79-.49-3.56-1.27l.49-.81c.64.66,1.78,1.14,3.06,1.14,1.64,0,2.54-.76,2.54-1.99s-.83-1.96-2.67-1.96h-.71v-.75l2.74-3.43h-5.05v-.9h6.35v.72l-2.8,3.51c2.12.11,3.18,1.23,3.18,2.81Z"/>
      <path class="cls-13" d="M172.3,116.06c0,3.36-1.84,5.11-4.52,5.11-.89,0-1.72-.16-2.34-.54l.41-.82c.51.34,1.19.47,1.92.47,2.13,0,3.5-1.37,3.5-4.05,0-.23-.01-.51-.04-.8-.49,1.09-1.65,1.69-3.02,1.69-1.96,0-3.33-1.16-3.33-2.96s1.45-3.03,3.37-3.03c2.63,0,4.05,1.82,4.05,4.94ZM170.9,114.1c0-1.09-.9-2.12-2.61-2.12-1.43,0-2.41.83-2.41,2.15s.96,2.13,2.48,2.13,2.54-.93,2.54-2.16Z"/>
      <path class="cls-13" d="M180.37,138.19c0,1.75-1.48,2.84-3.84,2.84s-3.81-1.09-3.81-2.84c0-1.19.68-2.02,1.91-2.43-1-.4-1.55-1.14-1.55-2.17,0-1.61,1.37-2.61,3.46-2.61s3.49,1,3.49,2.61c0,1.03-.56,1.78-1.58,2.17,1.24.41,1.93,1.26,1.93,2.43ZM179.33,138.18c0-1.21-1.04-1.98-2.79-1.98s-2.78.76-2.78,1.98,1.03,1.99,2.78,1.99,2.79-.76,2.79-1.99ZM176.53,135.4c1.54,0,2.46-.69,2.46-1.76s-.97-1.79-2.46-1.79-2.44.68-2.44,1.78.9,1.78,2.44,1.78Z"/>
      <path class="cls-13" d="M196.18,148.69v.72l-4.14,9.16h-1.1l4.07-8.98h-5.08v1.85h-1v-2.75h7.26Z"/>
      <path class="cls-13" d="M241.71,155.66c0,1.68-1.17,2.99-3.59,2.99-1.43,0-2.78-.49-3.54-1.27l.49-.81c.63.66,1.76,1.14,3.03,1.14,1.68,0,2.57-.82,2.57-2.02,0-1.27-.79-2.06-3.3-2.06h-2.1l.51-4.95h5.41v.9h-4.52l-.34,3.15h1.27c2.98,0,4.11,1.17,4.11,2.92Z"/>
      <path class="cls-13" d="M219.07,162.05c0,1.85-1.45,3.03-3.37,3.03-2.63,0-4.05-1.82-4.05-4.94,0-3.36,1.84-5.11,4.52-5.11.89,0,1.72.16,2.34.54l-.41.82c-.51-.34-1.19-.47-1.92-.47-2.13,0-3.5,1.37-3.5,4.05,0,.23.01.51.04.8.49-1.09,1.65-1.69,3.02-1.69,1.96,0,3.33,1.16,3.33,2.96ZM218.07,162.08c0-1.3-.96-2.13-2.48-2.13s-2.54.93-2.54,2.16c0,1.09.9,2.12,2.61,2.12,1.43,0,2.41-.83,2.41-2.15Z"/>
      <path class="cls-13" d="M260.4,138.35h-1.98v2.6h-1.02v-2.6h-5.58v-.73l5.24-6.55h1.13l-5.05,6.38h4.29v-2.29h.99v2.29h1.98v.9Z"/>
    </g>
    <path class="cls-13" d="M214.38,86.2c-.2.29-2.26,36.98-2.26,36.98l4.01.23s-.31-36.89-.44-37.07l-1.31-.14Z"/>
    <polygon class="cls-13" points="205.44 111.56 204.06 115.34 248.8 131.37 249.4 130.11 205.44 111.56"/>
    <path class="cls-1" d="M225.23,108.49c-.2-.26-.58-.32-.84-.12l-7.13,5.31.17.22-27.01,20.54s.15.31.21.33c.06.03,27.19-20.35,27.19-20.35l.18.23,7.12-5.32c.27-.2.32-.58.12-.85h0Z"/>
    <path class="cls-9" d="M214.83,118.02c-.53.39-1.27.27-1.66-.25-.39-.53-.27-1.27.25-1.66.53-.39,1.27-.27,1.66.25.39.53.27,1.27-.25,1.66Z"/>
  </g>
  <g>
    <rect class="cls-13" x="788.4" y="577.88" width="15.56" height="296.92"/>
    <rect class="cls-13" x="164.81" y="580.46" width="15.56" height="295.25"/>
    <rect class="cls-10" x="120.4" y="568.47" width="723.3" height="33.77"/>
    <g>
      <rect class="cls-9" x="149.09" y="554.96" width="123.12" height="13.88"/>
      <rect class="cls-5" x="149.09" y="556.7" width="121.12" height="10.36"/>
      <g class="cls-15">
        <rect class="cls-2" x="248.29" y="554.96" width="23.92" height="13.88"/>
      </g>
      <path class="cls-13" d="M270.21,558.96s-.11,0-.31,0c-.21,0-.52,0-.92,0-.81,0-2,0-3.53.01-3.07,0-7.51.01-12.99.02-10.97,0-26.13.01-42.86.02-16.74,0-31.9-.02-42.87-.02-5.48,0-9.92-.02-12.99-.02-1.53,0-2.72-.01-3.53-.01-.4,0-.71,0-.92,0-.21,0-.31,0-.31,0,0,0,.11,0,.31,0,.21,0,.52,0,.92,0,.81,0,2,0,3.53-.01,3.07,0,7.51-.01,12.99-.02,10.97,0,26.13-.01,42.87-.02,16.74,0,31.89.02,42.86.02,5.48,0,9.92.02,12.99.02,1.53,0,2.72.01,3.53.01.4,0,.71,0,.92,0,.21,0,.31,0,.31,0Z"/>
      <path class="cls-13" d="M270.21,561.73s-.11,0-.31,0c-.21,0-.52,0-.92,0-.81,0-2,0-3.53.01-3.07,0-7.51.01-12.99.02-10.97,0-26.13.01-42.86.02-16.74,0-31.9-.02-42.87-.02-5.48,0-9.92-.02-12.99-.02-1.53,0-2.72-.01-3.53-.01-.4,0-.71,0-.92,0-.21,0-.31,0-.31,0,0,0,.11,0,.31,0,.21,0,.52,0,.92,0,.81,0,2,0,3.53-.01,3.07,0,7.51-.01,12.99-.02,10.97,0,26.13-.01,42.87-.02,16.74,0,31.89.02,42.86.02,5.48,0,9.92.02,12.99.02,1.53,0,2.72.01,3.53.01.4,0,.71,0,.92,0,.21,0,.31,0,.31,0Z"/>
      <path class="cls-13" d="M270.21,564.5s-.11,0-.31,0c-.21,0-.52,0-.92,0-.81,0-2,0-3.53.01-3.07,0-7.51.01-12.99.02-10.97,0-26.13.01-42.86.02-16.74,0-31.9-.02-42.87-.02-5.48,0-9.92-.02-12.99-.02-1.53,0-2.72-.01-3.53-.01-.4,0-.71,0-.92,0-.21,0-.31,0-.31,0,0,0,.11,0,.31,0,.21,0,.52,0,.92,0,.81,0,2,0,3.53-.01,3.07,0,7.51-.01,12.99-.02,10.97,0,26.13-.01,42.87-.02,16.74,0,31.89.02,42.86.02,5.48,0,9.92.02,12.99.02,1.53,0,2.72.01,3.53.01.4,0,.71,0,.92,0,.21,0,.31,0,.31,0Z"/>
      <path class="cls-13" d="M248.36,568.62s-.08-3.02-.08-6.75.03-6.75.08-6.75.08,3.02.08,6.75-.03,6.75-.08,6.75Z"/>
    </g>
    <g>
      <g>
        <rect class="cls-8" x="241.55" y="521.19" width="38.94" height="13.66" transform="translate(522.03 1056.04) rotate(180)"/>
        <rect class="cls-9" x="159.82" y="518.85" width="122.29" height="2.86" transform="translate(441.92 1040.56) rotate(180)"/>
        <rect class="cls-9" x="159.82" y="534.24" width="121.72" height="2.86" transform="translate(441.36 1071.35) rotate(180)"/>
        <polygon class="cls-9" points="241.55 519.53 241.36 536.56 159.82 536.56 159.82 519.53 241.55 519.53"/>
        <g>
          <ellipse class="cls-13" cx="226.14" cy="528.03" rx="4.41" ry="4.24"/>
          <path class="cls-3" d="M221.04,528.03c0-2.67,2.28-4.85,5.09-4.85s5.09,2.17,5.09,4.85-2.28,4.85-5.09,4.85-5.09-2.17-5.09-4.85ZM222.41,528.03c0,2,1.67,3.63,3.72,3.63s3.72-1.63,3.72-3.63-1.67-3.63-3.72-3.63-3.72,1.63-3.72,3.63Z"/>
        </g>
        <path class="cls-13" d="M244.47,531.5c0,.18,8,.32,17.87.32s17.87-.14,17.87-.32-8-.32-17.87-.32-17.87.14-17.87.32Z"/>
        <path class="cls-13" d="M244.47,529.12c0,.18,8,.32,17.87.32s17.87-.14,17.87-.32-8-.32-17.87-.32-17.87.14-17.87.32Z"/>
        <path class="cls-13" d="M244.47,526.74c0,.18,8,.32,17.87.32s17.87-.14,17.87-.32-8-.32-17.87-.32-17.87.14-17.87.32Z"/>
        <path class="cls-13" d="M244.47,524.36c0,.18,8,.32,17.87.32s17.87-.14,17.87-.32-8-.32-17.87-.32-17.87.14-17.87.32Z"/>
        <g>
          <rect class="cls-11" x="168.86" y="523.15" width="36.75" height="9.11" transform="translate(374.47 1055.41) rotate(180)"/>
          <path class="cls-3" d="M199.88,531.34c.2,0,.36-1.63.36-3.63s-.16-3.63-.36-3.63-.36,1.63-.36,3.63.16,3.63.36,3.63Z"/>
          <path class="cls-3" d="M195.02,531.34c.2,0,.36-1.63.36-3.63s-.16-3.63-.36-3.63-.36,1.63-.36,3.63.16,3.63.36,3.63Z"/>
          <path class="cls-3" d="M190.17,531.34c.2,0,.36-1.63.36-3.63s-.16-3.63-.36-3.63-.36,1.63-.36,3.63.16,3.63.36,3.63Z"/>
          <path class="cls-3" d="M185.31,531.34c.2,0,.36-1.63.36-3.63s-.16-3.63-.36-3.63-.36,1.63-.36,3.63.16,3.63.36,3.63Z"/>
          <path class="cls-3" d="M180.45,531.34c.2,0,.36-1.63.36-3.63s-.16-3.63-.36-3.63-.36,1.63-.36,3.63.16,3.63.36,3.63Z"/>
          <path class="cls-3" d="M175.59,531.34c.2,0,.36-1.63.36-3.63s-.16-3.63-.36-3.63-.36,1.63-.36,3.63.16,3.63.36,3.63Z"/>
        </g>
        <path class="cls-13" d="M240.99,537.07c.2,0,.36-4.05.36-9.04s-.16-9.04-.36-9.04-.36,4.05-.36,9.04.16,9.04.36,9.04Z"/>
      </g>
      <g>
        <g>
          <polygon class="cls-5" points="163.96 492.28 163.96 487.83 268.48 488.03 274.52 488.03 274.52 492.35 268.48 492.35 268.48 518.98 155.6 518.98 155.6 492.28 163.96 492.28"/>
          <polygon class="cls-8" points="189.59 518.98 189.59 487.83 163.96 487.83 163.96 492.28 155.6 492.28 155.6 518.98 189.59 518.98"/>
          <path class="cls-3" d="M163.96,487.83c0,.18,24.54.32,54.8.32s54.81-.14,54.81-.32-24.53-.32-54.81-.32-54.8.14-54.8.32Z"/>
          <path class="cls-3" d="M156.44,501.82c0,.18,24.99.32,55.81.32s55.81-.14,55.81-.32-24.98-.32-55.81-.32-55.81.14-55.81.32Z"/>
          <path class="cls-3" d="M155.6,511.37c0,.18,25.18.32,56.23.32s56.23-.14,56.23-.32-25.17-.32-56.23-.32-56.23.14-56.23.32Z"/>
        </g>
        <path class="cls-3" d="M273.57,492.28c0-.18-24.54-.32-54.8-.32s-54.81.14-54.81.32,24.53.32,54.81.32,54.8-.14,54.8-.32Z"/>
      </g>
      <g>
        <rect class="cls-8" x="236.37" y="538.95" width="38.94" height="13.66" transform="translate(511.68 1091.55) rotate(180)"/>
        <rect class="cls-1" x="154.64" y="536.6" width="122.29" height="2.86" transform="translate(431.58 1076.06) rotate(180)"/>
        <rect class="cls-1" x="154.64" y="552" width="121.72" height="2.86" transform="translate(431.01 1106.85) rotate(180)"/>
        <polygon class="cls-1" points="236.37 537.28 236.19 554.31 154.64 554.31 154.64 537.28 236.37 537.28"/>
        <g>
          <path class="cls-13" d="M216.55,545.78c0,2.34,1.97,4.24,4.41,4.24s4.41-1.9,4.41-4.24-1.97-4.24-4.41-4.24-4.41,1.9-4.41,4.24Z"/>
          <path class="cls-3" d="M215.87,545.78c0-2.67,2.28-4.85,5.09-4.85s5.09,2.17,5.09,4.85-2.28,4.85-5.09,4.85-5.09-2.17-5.09-4.85ZM217.24,545.78c0,2,1.67,3.63,3.72,3.63s3.72-1.63,3.72-3.63-1.67-3.63-3.72-3.63-3.72,1.63-3.72,3.63Z"/>
        </g>
        <path class="cls-13" d="M239.3,549.26c0,.18,8,.32,17.87.32s17.87-.14,17.87-.32-8-.32-17.87-.32-17.87.14-17.87.32Z"/>
        <path class="cls-13" d="M239.3,546.88c0,.18,8,.32,17.87.32s17.87-.14,17.87-.32-8-.32-17.87-.32-17.87.14-17.87.32Z"/>
        <path class="cls-13" d="M239.3,544.5c0,.18,8,.32,17.87.32s17.87-.14,17.87-.32-8-.32-17.87-.32-17.87.14-17.87.32Z"/>
        <path class="cls-13" d="M239.3,542.12c0,.18,8,.32,17.87.32s17.87-.14,17.87-.32-8-.32-17.87-.32-17.87.14-17.87.32Z"/>
        <g>
          <rect class="cls-11" x="163.69" y="540.9" width="36.75" height="9.11" transform="translate(364.12 1090.92) rotate(180)"/>
          <path class="cls-3" d="M194.71,549.09c.2,0,.36-1.63.36-3.63s-.16-3.63-.36-3.63-.36,1.63-.36,3.63.16,3.63.36,3.63Z"/>
          <path class="cls-3" d="M189.85,549.09c.2,0,.36-1.63.36-3.63s-.16-3.63-.36-3.63-.36,1.63-.36,3.63.16,3.63.36,3.63Z"/>
          <path class="cls-3" d="M184.99,549.09c.2,0,.36-1.63.36-3.63s-.16-3.63-.36-3.63-.36,1.63-.36,3.63.16,3.63.36,3.63Z"/>
          <path class="cls-3" d="M180.13,549.09c.2,0,.36-1.63.36-3.63s-.16-3.63-.36-3.63-.36,1.63-.36,3.63.16,3.63.36,3.63Z"/>
          <path class="cls-3" d="M175.27,549.09c.2,0,.36-1.63.36-3.63s-.16-3.63-.36-3.63-.36,1.63-.36,3.63.16,3.63.36,3.63Z"/>
          <path class="cls-3" d="M170.42,549.09c.2,0,.36-1.63.36-3.63s-.16-3.63-.36-3.63-.36,1.63-.36,3.63.16,3.63.36,3.63Z"/>
        </g>
        <path class="cls-13" d="M235.82,554.82c.2,0,.36-4.05.36-9.04s-.16-9.04-.36-9.04-.36,4.05-.36,9.04.16,9.04.36,9.04Z"/>
      </g>
    </g>
    <g class="cls-14">
      <path class="cls-2" d="M508.16,602.24s51.18-33.77,33.15-33.77h-25.16l-8,33.77Z"/>
    </g>
  </g>
  <g>
    <g>
      <g>
        <path class="cls-13" d="M359.35,848.09l-25.35,53.43-31.9,36.26c-2.3,2.61-1.96,6.69.74,8.89h0c1.51,1.23,3.48,1.63,5.33,1.08,11.72-3.53,54.79-16.75,56.43-20.77,1.9-4.65,30.38-54.52,30.38-54.52l-35.62-24.37Z"/>
        <g class="cls-15">
          <path class="cls-2" d="M359.35,848.09l-25.35,53.43-31.9,36.26c-2.3,2.61-1.96,6.69.74,8.89h0c1.51,1.23,3.48,1.63,5.33,1.08,11.72-3.53,54.79-16.75,56.43-20.77,1.9-4.65,30.38-54.52,30.38-54.52l-35.62-24.37Z"/>
        </g>
        <path class="cls-9" d="M302.83,946.67l63.55-23.25-1.12,2.24c-.97,1.93-.96,2.56-2.92,3.38-5.24,2.19-23.05,9.91-55.62,19.88-1.89.58-3.89-2.25-3.89-2.25h0Z"/>
      </g>
      <path class="cls-13" d="M369.03,798.95s12.25-33.39,13.27-43.48c1.02-10.09,5.91-32.86,9.89-53.76,3.98-20.91,18.09-75.65,18.09-75.65l17.19-132.99,95.38-2.49s-.08,61.65-10.7,96.6c-8.98,29.53-62.09,136.56-67.19,168.23-5.11,31.67-67.35,155.77-67.35,155.77l-45.11-22.65,36.55-89.57Z"/>
      <g>
        <g>
          <path class="cls-13" d="M339.51,850.02l16.65,46.35s-41.47,30.91-39.62,39.85l89.35-25.64-23.11-71.41-43.27,10.85Z"/>
          <path class="cls-9" d="M339.51,850.02s.22-.08.71-.21c.54-.14,1.26-.34,2.17-.58,1.99-.52,4.84-1.27,8.49-2.22,7.52-1.94,18.34-4.72,31.8-8.18l.33-.09.11.33c6.16,18.9,14.2,43.58,23.25,71.36l.16.5-.51.15c-12.08,3.47-24.98,7.18-38.27,11-17.94,5.14-35.17,10.07-51.08,14.63l-.55.16-.08-.54c-.24-1.61.38-2.97,1-4.17.63-1.23,1.41-2.33,2.21-3.4,1.62-2.12,3.37-4.06,5.16-5.9,3.58-3.68,7.26-7.02,10.87-10.17,7.24-6.27,14.21-11.77,20.64-16.6l-.13.44c-5.06-14.36-9.17-26-12.02-34.1-1.38-3.96-2.46-7.05-3.21-9.21-.34-1.01-.61-1.79-.81-2.38-.18-.53-.26-.8-.24-.79.02,0,.13.29.34.84.22.59.53,1.4.91,2.42.8,2.17,1.95,5.27,3.42,9.23,2.93,8.02,7.14,19.53,12.34,33.73l.1.26-.23.17c-6.38,4.86-13.32,10.39-20.51,16.67-3.58,3.15-7.24,6.49-10.77,10.16-1.76,1.83-3.49,3.76-5.06,5.83-.77,1.04-1.52,2.12-2.11,3.27-.6,1.12-1.09,2.4-.9,3.51l-.63-.38c15.91-4.58,33.13-9.53,51.06-14.69,13.3-3.81,26.2-7.51,38.28-10.97l-.35.65c-8.94-27.82-16.89-52.53-22.97-71.45l.44.24c-13.41,3.27-24.19,5.91-31.68,7.73-3.71.89-6.6,1.58-8.62,2.07-.95.22-1.7.4-2.26.53-.51.12-.78.17-.8.16Z"/>
        </g>
        <path class="cls-9" d="M405.89,910.58l-2.26-7.38-84.82,27.35s-3.5,2.92-2.27,5.68l89.35-25.64Z"/>
      </g>
      <g>
        <path class="cls-13" d="M350.02,561.58c-1.11,2.68-47.34,121.15-46.28,138.73,1.05,17.59,42.02,192.62,42.02,192.62l53.59-17.46s-6.88-49.65-15.27-92.81c-7.91-40.69-6.51-49.83-6.51-49.83,0,0-11.17-14.05-9.23-13.51,1.94.54,6.32-.38,6.13-3.64-.19-3.26-2.44-9.01-2.44-9.01l38.3-76.11,31.78-138.54-72.22,3.6-19.87,65.94Z"/>
        <path class="cls-9" d="M428.32,557.12s-.01.41-.14,1.17c-.13.76-.31,1.89-.64,3.33-.61,2.88-1.58,7.02-2.84,12.12-2.52,10.2-6.19,24.24-10.32,39.73-7.93,29.73-13.51,50.65-14.96,56.08-.04,0,.01-.41.14-1.17.13-.76.31-1.89.64-3.33.61-2.88,1.58-7.02,2.84-12.12,2.52-10.2,6.19-24.24,10.32-39.74,7.93-29.72,13.51-50.65,14.96-56.08Z"/>
        <path class="cls-9" d="M422.46,580.32c-.19.22-5.22-3.76-11.24-8.89-6.02-5.14-10.75-9.48-10.56-9.7s5.22,3.76,11.24,8.89c6.02,5.13,10.74,9.48,10.55,9.7Z"/>
      </g>
      <path class="cls-9" d="M372.03,706.68s.09.17.24.53c.15.39.35.92.61,1.6.48,1.43,1.3,3.53,1.71,6.45.1.72.05,1.6-.44,2.33-.46.73-1.23,1.27-2.09,1.6-.86.34-1.82.51-2.84.47-.25-.02-.51-.04-.77-.1-.14-.05-.27,0-.12-.08,0-.04.01.09.05.19.17.44.44.89.72,1.33,2.3,3.53,5.32,7.38,8.7,11.66l.07.09v.14c-.25,3.85.17,8.15.62,12.66.49,4.53,1.17,9.33,1.96,14.4,1.55,10.14,3.8,21.27,6.09,33.34,4.49,24.15,9.04,52.01,13.33,82.12l.06.43-.42.14c-11.45,3.73-23.39,7.63-35.58,11.6-6.17,2.01-12.28,4-18.01,5.87l-.55.18-.13-.56c-12.55-53.9-23.42-101.98-30.87-136.66-3.71-17.34-6.6-31.32-8.38-41-.87-4.84-1.54-8.6-1.86-11.17-.14-1.25-.24-2.22-.32-2.92-.07-.66-.08-.99-.08-.99,0,0,.08.33.18.99.1.69.24,1.66.42,2.9.38,2.55,1.11,6.29,2.04,11.12,1.9,9.65,4.9,23.61,8.7,40.92,7.63,34.63,18.62,82.68,31.2,136.57l-.68-.38c5.74-1.87,11.84-3.86,18.01-5.87,12.19-3.97,24.13-7.85,35.58-11.58l-.36.57c-4.26-30.1-8.75-57.96-13.16-82.1-2.24-12.06-4.45-23.23-5.95-33.39-.77-5.08-1.43-9.9-1.89-14.45-.42-4.56-.83-8.79-.54-12.82l.06.22c-3.36-4.32-6.34-8.18-8.63-11.78-.28-.46-.55-.9-.74-1.42-.03-.14-.12-.27-.02-.54.14-.19.27-.16.38-.15.11.01.13.03.2.04.23.06.47.08.7.1.94.05,1.87-.11,2.68-.41.81-.3,1.52-.79,1.94-1.43.44-.65.5-1.4.42-2.11-.36-2.87-1.13-5-1.55-6.43-.23-.69-.4-1.22-.53-1.62-.12-.36-.18-.55-.17-.55Z"/>
      <g class="cls-15">
        <polygon class="cls-2" points="353.96 890.26 355.43 894.35 397.16 883.61 394.97 876.9 353.96 890.26"/>
      </g>
      <g class="cls-15">
        <path class="cls-2" d="M366.72,718.73c-5.48-3.8-12.16-5.83-18.82-5.71-.71.01-1.45.06-2.07.4s-1.08,1.08-.88,1.76c.26.9,1.39,1.17,2.32,1.28,6.6.79,13.21,1.59,19.81,2.38"/>
      </g>
    </g>
    <g>
      <path class="cls-11" d="M370.31,307.01l39.18-14.9,10.47-12.23,49.04-4.76,20.42,18.02s40.01,9.56,41.86,14.17c1.84,4.61-18.71,128.88-18.71,128.88,0,0-1.11,68.51-7.1,71.27-5.99,2.76-85.95,32.18-120.1-2.5-.65-.66-10.43-155.71-10.89-157.1-.46-1.38-4.17-40.84-4.17-40.84Z"/>
      <g class="cls-15">
        <polygon class="cls-2" points="408.55 489.45 423.51 513.5 443.27 489.45 441.54 440.19 439.9 450.31 408.55 489.45"/>
      </g>
      <polygon class="cls-1" points="432.44 321.68 406.59 486.78 421.48 507.06 440.84 487.69 443.27 321.68 432.44 321.68"/>
      <polyline class="cls-1" points="428.3 313.62 432.44 321.68 443.27 321.68 446.79 313.94 440.23 305.5 434.79 305.5 428.74 313.59"/>
      <path class="cls-13" d="M465.7,304.61s-.34.43-1.05,1.11c-.85.79-1.9,1.76-3.15,2.92-2.91,2.6-6.79,6.05-11.33,10.1l-.4.36-.31-.46c-2.74-4.09-6.1-8.63-9.95-13.19-.84-.97-1.68-1.93-2.5-2.87l.81-.02c-4.39,5.44-8.42,10.43-11.78,14.59l-.28.35-.33-.29c-3.45-3.08-5.82-6.05-7.33-8.19-.75-1.07-1.29-1.94-1.64-2.54-.34-.6-.5-.94-.47-.96.08-.05.89,1.17,2.49,3.22,1.61,2.04,4.05,4.88,7.5,7.84l-.61.05c3.31-4.2,7.29-9.24,11.62-14.72l.39-.5.41.47c.83.95,1.67,1.91,2.52,2.89,3.88,4.59,7.23,9.19,9.93,13.35l-.71-.1c4.65-3.93,8.61-7.28,11.59-9.81,1.32-1.08,2.43-1.98,3.33-2.71.78-.62,1.22-.93,1.25-.89Z"/>
    </g>
    <g>
      <path class="cls-1" d="M472.19,276.69s-20.66,107.58-18.7,126.87c1.96,19.29,8.24,69.75,11.79,93.51,3.22,21.52,10.56,54.36,14.23,70.3,1.13,4.91,6.92,14.36,11.64,12.96,23.92-7.11,47.74-20.96,52.52-23.62,0,0-5.28-51.8-19.63-86.21-1.67-4.01-10.14-25.56-10.14-25.56l8.39-145.93-18.85-5.26-14.83-3.6-16.43-13.45Z"/>
      <path class="cls-13" d="M454.89,420.15s.04-.53.23-1.55c.15-1.03.61-2.47,1.1-4.35,1.09-3.74,2.8-9.11,5.06-15.68,4.49-13.17,11.05-31.23,18.47-51.11,3.81-10.08,7.43-19.67,10.73-28.38.83-2.17,1.64-4.29,2.43-6.34.37-1.03.87-2.05,1.03-2.97.15-.96.02-1.96-.38-2.82-.38-.87-1.01-1.6-1.77-2.11-.74-.48-1.71-.83-2.56-1.23-1.73-.78-3.4-1.53-4.98-2.24l-.72-.32.71-.35c1.52-.75,2.97-1.46,4.35-2.13,1.3-.61,2.11-1.86,2.26-3.11.19-1.28-.32-2.39-1-3.31-.64-.93-1.35-1.7-2.01-2.36-1.34-1.31-2.53-2.17-3.31-2.79-.8-.58-1.13-1.05-1.06-1.09.03,0,.07.11.27.26.2.16.5.37.91.65.82.56,2.05,1.37,3.47,2.66.7.65,1.45,1.42,2.14,2.37.71.89,1.37,2.22,1.17,3.66-.13,1.43-1.06,2.9-2.54,3.63-1.37.7-2.8,1.43-4.32,2.2l-.02-.67c1.6.69,3.27,1.42,5.01,2.18.87.41,1.76.69,2.7,1.27.89.58,1.64,1.44,2.1,2.45.47,1.01.64,2.18.47,3.32-.2,1.18-.7,2.12-1.05,3.17-.77,2.06-1.57,4.18-2.39,6.36-3.27,8.72-6.86,18.32-10.64,28.41-7.42,19.88-14.09,37.89-18.76,50.99-2.35,6.54-4.17,11.86-5.38,15.56-.56,1.86-1.08,3.28-1.29,4.28-.25.99-.41,1.51-.44,1.5Z"/>
    </g>
    <g class="cls-15">
      <path class="cls-2" d="M366.1,558.89s5.86-1.81,9.48-9.32c3.62-7.51,23.57-91.01,23.57-91.01l-33.05,100.33"/>
    </g>
    <g>
      <path class="cls-1" d="M339.27,550.52s12.79,14.91,22.26,11.83,13.28-26.56,19.64-44.74c6.36-18.18,17.91-57.59,23.57-79.79,5.66-22.2,8.13-38.05,9.37-55.8,1.23-17.75,1.43-79.54,2.63-90.24.36-3.19,1.17-9.53,1.17-9.53l-9.9,10.43-38.65,9.8,7.32,138.9-37.41,109.15Z"/>
      <path class="cls-13" d="M407.66,293.14s-.31.46-.95,1.29c-.64.83-1.6,2.04-2.77,3.65-.58.8-1.21,1.71-1.86,2.72-.6,1.01-1.39,2.17-1.59,3.42-.07,1.23.94,2.53,1.94,3.69,1.04,1.18,2.28,2.34,3.63,3.45l1.3,1.06-1.64-.39c-1.51-.36-3.22-.55-4.86-.25-.82.16-1.62.46-2.25.99-.17.12-.29.29-.44.43-.11.09-.06.12-.09.14l-.05.27c-.04.42-.05.88-.04,1.34.13,3.74.65,7.76,1.15,11.96,1.06,8.41,2.41,17.6,3.85,27.22,3.1,19.93,5.91,37.96,7.97,51.15,1,6.46,1.82,11.73,2.41,15.5.25,1.75.46,3.15.61,4.22.13.97.18,1.48.14,1.48-.04,0-.16-.49-.35-1.45-.2-1.06-.47-2.45-.81-4.19-.67-3.76-1.6-9.01-2.74-15.45-2.24-13.06-5.26-31.12-8.28-51.11-1.44-9.63-2.76-18.83-3.78-27.26-.48-4.22-.97-8.23-1.07-12.07,0-.48,0-.96.06-1.47.03-.14.04-.26.08-.41.07-.19.19-.39.27-.45.18-.18.35-.38.55-.53.79-.64,1.74-.97,2.65-1.14,1.85-.31,3.59-.08,5.23.33l-.35.67c-1.38-1.17-2.61-2.35-3.67-3.59-.52-.62-1.01-1.25-1.4-1.94-.37-.68-.72-1.44-.62-2.26.3-1.55,1.13-2.6,1.76-3.65.68-1.01,1.35-1.9,1.96-2.69,1.23-1.58,2.24-2.75,2.94-3.53.7-.78,1.09-1.17,1.12-1.15Z"/>
    </g>
    <g class="cls-15">
      <path class="cls-2" d="M373.44,454.59s26.56,3.55,40.13-3.29c0,0,56.78,15.76,73.99,15.77,18.93,0,26.78-6.9,30.87-17.77l-89.51-9.12-55.48,14.41Z"/>
    </g>
    <g>
      <g>
        <path class="cls-1" d="M500.4,349.45c-1,2.04-18.71,66.42-18.71,66.42l-79.04-10.89-15.06,30.76c1.23.72,78.89,24.29,109.88,24.43,24.06.11,36.17-27.48,41.89-57.81,5.86-31.09,7.07-45.1,7.42-55.83,1.44-44.07-5.93-42.05-24.48-47.54"/>
        <path class="cls-13" d="M522.3,299s.42.08,1.23.3c.85.23,2.04.54,3.59.96,1.58.43,3.54.92,5.81,1.7,2.25.77,4.93,1.79,7.25,3.96,2.36,2.13,3.99,5.37,4.98,9.02,1.07,3.67,1.48,7.79,1.8,12.19.25,4.41.34,9.14.25,14.15-.07,5-.21,10.31-.7,15.85-.93,11.09-2.77,23.13-5.03,36-2.23,12.83-4.81,26.73-10.77,40.28-2.96,6.73-6.88,13.41-12.55,18.79l-1.05,1.02c-.37.32-.77.6-1.16.9l-2.35,1.78c-1.74.92-3.38,2.1-5.29,2.7-.94.32-1.84.81-2.83,1l-2.94.66c-.98.26-2,.19-3.01.3-1.01.05-2.03.19-3.02.1-8.05-.16-16.12-1.44-24.26-2.85-8.15-1.41-16.33-3.21-24.59-5.1-10.52-2.43-20.81-5.11-30.87-7.84-5.03-1.37-9.99-2.77-14.9-4.19-4.94-1.47-9.65-2.77-14.57-4.48l-.45-.16.25-.51c5.19-10.59,10.23-20.86,15.08-30.75l.16-.32.35.05c30,4.18,56.82,7.91,79.03,11.01l-.4.27c5.73-20.64,10.41-37.25,13.69-48.68,1.65-5.72,2.94-10.14,3.85-13.13.46-1.46.82-2.59,1.07-3.39.28-.76.44-1.13.44-1.13,0,0-.1.4-.34,1.16-.23.81-.55,1.94-.97,3.41-.85,3.05-2.08,7.48-3.67,13.18-3.16,11.51-7.71,28.14-13.37,48.77l-.09.31-.32-.04c-22.22-3.03-49.05-6.68-79.06-10.77l.5-.27c-4.84,9.9-9.86,20.18-15.04,30.77l-.37-.38c.21-.35.18-.3.18-.29h.01s.03.01.03.01l.05.02.1.03.2.07.4.14.87.28,1.78.56c1.2.36,2.4.73,3.6,1.1,2.42.71,4.85,1.43,7.29,2.15,4.9,1.41,9.86,2.81,14.88,4.17,10.05,2.73,20.33,5.4,30.83,7.83,8.25,1.89,16.42,3.69,24.54,5.1,8.1,1.4,16.16,2.69,24.09,2.85,1,.1,1.97-.05,2.94-.09.97-.11,1.96-.04,2.9-.29l2.84-.63c.95-.18,1.81-.65,2.72-.96,1.85-.57,3.43-1.71,5.11-2.6l2.28-1.72c.37-.29.77-.56,1.13-.87l1.02-.99c5.52-5.23,9.41-11.79,12.35-18.45,5.93-13.41,8.54-27.21,10.8-40.04,2.3-12.84,4.18-24.86,5.15-35.91.51-5.52.68-10.8.77-15.8.11-5,.06-9.71-.17-14.1-.3-4.38-.68-8.48-1.7-12.1-.95-3.61-2.51-6.77-4.78-8.86-2.23-2.13-4.85-3.17-7.08-3.96-2.24-.81-4.2-1.33-5.76-1.79-1.54-.46-2.73-.81-3.57-1.06-.8-.25-1.2-.4-1.2-.4Z"/>
      </g>
      <path class="cls-13" d="M491.16,428.53c-.28.13-1.9-2.99-4.46-6.45-2.54-3.47-5.05-5.94-4.84-6.17.17-.21,3.07,1.96,5.69,5.54,2.64,3.56,3.86,6.97,3.61,7.07Z"/>
      <path class="cls-13" d="M512.31,308.34c.29.15-2.52,5.78-4.79,13.15-2.31,7.36-3.19,13.59-3.51,13.55-.14-.02-.09-1.6.27-4.13.36-2.53,1.07-6,2.23-9.73,1.16-3.73,2.54-6.99,3.68-9.28,1.14-2.29,2-3.62,2.12-3.56Z"/>
    </g>
    <g>
      <path class="cls-4" d="M478.85,392.61c-5.85-1.75-22.55,3.7-22.55,3.7v1.21l2.91,22.63,11.49-4.74,10.64-.04,5.17-18.17s-1.81-2.83-7.66-4.58Z"/>
      <polygon class="cls-3" points="456.26 395.79 448.4 396.22 451 428.37 459.84 426.2 456.26 395.79"/>
      <path class="cls-1" d="M369.36,302.47c-4.76,1.49-7.54,6.42-14.41,31.13-3.67,13.22-12.03,35.14-15.47,45.83-2.03,6.32-15.98,44.95-12.42,55.63,3.56,10.68,19.7,23.87,51.62,18.39,31.55-5.41,72.85-20.56,72.85-20.56l-3.01-37.11-74.95,6.58.74-15.81-4.95-84.09Z"/>
      <path class="cls-13" d="M374.98,402.37c-.29.01-1.22-16.25-2.07-36.31-.85-20.07-1.3-36.35-1.01-36.36.29-.01,1.22,16.24,2.07,36.31.85,20.06,1.3,36.34,1.01,36.36Z"/>
      <path class="cls-13" d="M370.98,402.37c.19.24-2.97,3.05-6.74,6.64-3.78,3.58-6.74,6.6-6.97,6.4-.21-.19,2.42-3.55,6.24-7.16,3.8-3.63,7.29-6.09,7.47-5.87Z"/>
      <path class="cls-13" d="M367.91,454.59s.14-.05.43-.09c.34-.05.76-.11,1.26-.18,1.11-.17,2.76-.3,4.88-.64,4.23-.66,10.36-1.74,17.9-3.53,15.08-3.56,35.88-9.62,58.97-17.75l-.35.54c-.37-4.55-.76-9.33-1.15-14.18-.64-7.92-1.26-15.63-1.84-22.93l.56.47c-22.2,1.81-41.56,3.39-55.47,4.52-6.85.52-12.35.93-16.24,1.23-1.84.12-3.29.21-4.36.28-.99.05-1.51.07-1.51.04s.51-.11,1.5-.22c1.07-.11,2.52-.26,4.35-.46,3.88-.37,9.37-.88,16.21-1.53,13.9-1.23,33.25-2.93,55.44-4.89l.52-.05.04.52c.6,7.3,1.23,15,1.87,22.92.39,4.86.78,9.64,1.14,14.19l.03.4-.38.13c-23.15,8.11-44,14.05-59.17,17.44-7.58,1.7-13.75,2.68-18.01,3.23-2.13.28-3.79.35-4.91.45-.51.03-.93.06-1.27.08-.29.01-.43.01-.44,0Z"/>
    </g>
    <g>
      <path class="cls-4" d="M437.48,165.97l-2.05.08c-20.58.85-37.06,17.35-37.87,37.94-.75,19.15-1.33,40.32-.79,50.55,1.14,21.19,22.47,23.61,22.47,23.61.05,0,.05,5.88.05,5.88l18.86,16.97,30.78-23.69,1.68-69.88c.99-22.09-11.04-41.07-33.15-41.45Z"/>
      <path class="cls-6" d="M419.25,278.14s13.39.23,27.26-9.3c0,0-5.98,16.21-27.21,15.17l-.05-5.88Z"/>
      <g>
        <path class="cls-4" d="M469.54,223.18c.35-.17,14.39-4.91,14.52,9.6.14,14.51-14.46,11.65-14.49,11.24-.03-.42-.03-20.84-.03-20.84Z"/>
        <path class="cls-6" d="M473.96,238.48c.06-.05.25.17.68.37.42.19,1.14.31,1.89.02,1.53-.58,2.8-3.02,2.84-5.64.02-1.32-.26-2.58-.74-3.61-.45-1.06-1.15-1.79-1.92-1.92-.77-.17-1.31.3-1.49.71-.19.41-.1.7-.17.72-.04.04-.31-.24-.2-.84.06-.29.22-.63.56-.91.35-.29.86-.44,1.39-.38,1.12.07,2.14,1.09,2.66,2.22.59,1.14.94,2.55.91,4.04-.07,2.92-1.54,5.68-3.63,6.3-1.02.28-1.87-.02-2.32-.36-.45-.35-.53-.68-.48-.7Z"/>
      </g>
      <path class="cls-13" d="M388.87,197.49c9.1,1.4,18.43.73,25.7-4.92,2.09-1.63,4.04-3.48,5.82-5.5,3.22-3.65,5.74-8.21,10.08-10.42,5.6-2.85,12.33-.9,18.29,1.1l-.25-.22c3.1,1.39,5.94,3.39,8.29,5.84-1.43,13.99.76,28.33,6.39,41.23.46,1.06,1.3,1.93,2.38,2.36,3.4,1.35,2.35-3.17,4.87-4.04,1.94-.67,2.88-.26,6.73-.37,1.34-3.65,2.12-13.58,3.26-18.95,3.18-3.36,6.12-9.6,6.24-14.48.12-4.87-2.59-11.09-2.59-11.09-3.68-6.98-5.81-10.55-11.45-12.49l-.13.06c-5.07-1.97-11.29-1.93-15.39,1.62-1.11-7.56-7.81-13.47-15.22-15.33-7.41-1.85-19.24-.56-26.29,2.37-4.81,2-9.46,5.81-14.86,11.28h0s0,0,0,0c-.72.73-1.45,1.48-2.19,2.27-.06.07-.12.14-.18.2-1.56,1-3.5,1.47-5.5,1.69-3.22.36-5.23-.65-7.42-3.04-.67-.73-1.5-1.64-2.44-1.34-.59.19-.93.81-1.12,1.4-1.04,3.15.35,6.71,2.72,9.03,1.15,1.12,2.5,1.99,3.93,2.7,0,0-2.15,2.66-5.84,3.26-1.98.32-3.78,1.47-4.9,3.14-.55.81-.94,1.77-.94,2.83,0,6.12,6.1,8.9,12.03,9.82Z"/>
      <path class="cls-9" d="M384.98,191.14s.05.06.17.14c.14.1.32.23.53.38.23.17.53.37.91.57.37.21.79.46,1.3.67,1.98.91,5.16,1.81,9.11,1.53,3.91-.27,8.6-1.71,12.76-4.88,4.21-3.1,7.88-7.64,10.87-12.82,1.52-2.59,2.74-5.24,4.1-7.69,1.35-2.45,2.85-4.72,4.67-6.52,1.8-1.81,3.9-3.15,6.08-3.78,1.08-.34,2.18-.42,3.22-.41,1.05.04,2.04.24,2.96.53,1.84.59,3.33,1.59,4.46,2.62,1.14,1.04,1.9,2.14,2.43,3.08.99,1.94,1.06,3.19,1.13,3.17,0,0,0-.08-.02-.22-.03-.18-.06-.39-.11-.65-.11-.57-.37-1.39-.83-2.39-.51-.98-1.27-2.12-2.41-3.2-1.14-1.07-2.65-2.11-4.54-2.75-.94-.31-1.97-.53-3.06-.58-1.08-.03-2.23.06-3.35.4-2.26.64-4.43,2.01-6.28,3.85-1.88,1.83-3.41,4.14-4.78,6.61-1.38,2.47-2.61,5.11-4.11,7.68-2.96,5.14-6.58,9.63-10.71,12.7-4.09,3.14-8.66,4.59-12.52,4.9-3.89.32-7.02-.51-9-1.36-2-.86-2.95-1.64-2.99-1.58Z"/>
      <path class="cls-9" d="M382.94,181.83s.26.21.77.52c.51.32,1.28.71,2.27,1.12.98.42,2.2.81,3.58,1.13,1.39.3,2.94.51,4.57.55,1.64.02,3.2-.13,4.59-.36,1.39-.27,2.63-.6,3.63-.98,1-.37,1.79-.73,2.31-1.03.52-.29.8-.46.79-.49-.04-.08-1.21.53-3.21,1.18-1,.33-2.22.63-3.59.86-1.37.21-2.9.34-4.51.32-1.6-.04-3.12-.24-4.49-.5-1.36-.29-2.57-.64-3.55-1.01-1.98-.73-3.12-1.4-3.16-1.31Z"/>
      <path class="cls-9" d="M464.12,192.87c-.06,0-.14.48-.2,1.37-.05.89-.07,2.18.08,3.79.11.82.11,1.65.44,2.68.15.5.72,1.11,1.45,1.06.7-.05,1.18-.44,1.61-.8,1.61-1.49,3.35-3.1,5.19-4.8l-.76-.44c-.24,1-.49,2.05-.75,3.12-.68,2.93-1.33,5.71-1.93,8.26l-.32,1.38,1.03-.97c2.73-2.58,4.61-5.18,5.76-7.09,1.15-1.92,1.63-3.13,1.56-3.17-.22-.15-2.46,4.65-7.89,9.63l.7.41c.62-2.54,1.3-5.32,2.01-8.24.25-1.07.5-2.12.74-3.12l.36-1.51-1.12,1.07c-1.81,1.73-3.52,3.36-5.1,4.87-.36.34-.77.61-1.11.63-.33.03-.59-.19-.75-.57-.28-.76-.37-1.72-.5-2.47-.43-3.14-.34-5.08-.48-5.09Z"/>
      <g>
        <path class="cls-13" d="M423.77,238.11c0-.19-2.03-.45-5.33-.74-.84-.05-1.63-.18-1.79-.75-.22-.59.09-1.5.45-2.49.7-2.04,1.43-4.19,2.2-6.44,3.04-9.16,5.21-16.68,4.84-16.8-.37-.12-3.14,7.21-6.18,16.37-.73,2.26-1.43,4.41-2.09,6.47-.28.96-.77,2.05-.3,3.28.25.61.88,1.04,1.42,1.16.54.14,1.01.13,1.42.14,3.31.04,5.36-.03,5.36-.21Z"/>
        <path class="cls-13" d="M408.23,222.27c0,1.64,1.39,2.98,3.07,3,1.68.02,3.05-1.29,3.04-2.92,0-1.64-1.39-2.98-3.07-3-1.69-.02-3.05,1.29-3.04,2.93Z"/>
        <path class="cls-13" d="M403.87,213.14c.4.39,2.64-1.44,5.93-1.57,3.28-.18,5.77,1.44,6.11,1.01.17-.19-.25-.9-1.33-1.63-1.07-.73-2.86-1.41-4.91-1.31-2.05.1-3.74.93-4.7,1.76-.98.83-1.29,1.57-1.1,1.75Z"/>
        <path class="cls-13" d="M437.68,222.27c0,1.64,1.39,2.98,3.07,3,1.68.02,3.05-1.29,3.04-2.92,0-1.64-1.39-2.98-3.07-3-1.69-.02-3.05,1.29-3.04,2.93Z"/>
        <path class="cls-13" d="M436.14,212.56c.4.39,2.64-1.44,5.93-1.57,3.28-.18,5.77,1.44,6.11,1.01.17-.19-.24-.9-1.33-1.63-1.07-.73-2.86-1.41-4.91-1.31-2.05.1-3.74.93-4.7,1.76-.98.83-1.29,1.57-1.1,1.75Z"/>
        <path class="cls-13" d="M434.65,202.19c.48.83,3.64-.2,7.52-.44,3.88-.33,7.15.23,7.5-.67.16-.42-.53-1.16-1.93-1.79-1.38-.63-3.49-1.08-5.82-.92-2.32.17-4.35.93-5.63,1.76-1.29.83-1.86,1.66-1.65,2.06Z"/>
        <path class="cls-13" d="M403.32,203.35c.7.74,3.36-.12,6.58-.24,3.22-.22,5.96.35,6.57-.46.26-.39-.18-1.14-1.39-1.82-1.19-.68-3.17-1.21-5.39-1.1-2.21.12-4.11.86-5.21,1.66-1.12.81-1.47,1.6-1.16,1.96Z"/>
        <path class="cls-13" d="M435.42,240.55c-.51,0-.33,3.39-3.1,5.95-2.76,2.57-6.4,2.39-6.4,2.87-.04.22.84.61,2.37.57,1.5-.03,3.66-.63,5.35-2.2,1.69-1.57,2.34-3.58,2.38-4.98.05-1.42-.37-2.24-.6-2.21Z"/>
      </g>
    </g>
    <g>
      <path class="cls-4" d="M393.06,386.63s-1.62-7.96-3.14-9.94c-1.51-1.98-15.25-15.6-15.25-15.6,0,0-3.61,1.4-2.1,4.77,1.51,3.38,2.68,5.47,2.68,5.47,0,0-11.88-8.64-13.39-7.99-1.51.65-2.05,3.7-1.11,4.98.93,1.28,1.2,2.19,1.2,2.19,0,0-3.21-1.21-4.98-1.05-1.32.12-2.56,3.18-1.28,4.39,1.28,1.2,5.71,4.46,5.71,4.46,0,0-2.91-1.63-3.73.7-.82,2.33-.23,3.98.35,5.08.58,1.09,10.95,10.18,11.99,11.81,1.05,1.63,1.88,6.47,1.88,6.47,2.84-.13,22.81-2.41,22.81-2.41,0-.35-1.65-13.33-1.65-13.33Z"/>
      <path class="cls-6" d="M387.6,385.52c-.13.07-.74-.84-1.67-2.34-.94-1.46-2.14-3.65-3.7-5.67-1.76-1.83-3.82-3.25-5.17-4.34-1.39-1.08-2.23-1.77-2.15-1.9.08-.12,1.07.35,2.58,1.28,1.49.97,3.57,2.21,5.55,4.26,1.73,2.24,2.75,4.42,3.55,6.01.76,1.6,1.14,2.63,1.01,2.7Z"/>
      <path class="cls-6" d="M381.24,386.28s-.22-.25-.6-.77c-.51-.72-1.04-1.45-1.58-2.21-.67-.91-1.48-2.07-2.46-3.09-1.06-.83-2.59-1.73-4.04-2.66-5.96-3.7-10.76-6.77-10.61-7.03.14-.24,5.19,2.41,11.17,6.13,1.5.97,2.87,1.77,4.17,2.87,1.08,1.21,1.77,2.37,2.39,3.36,1.18,1.97,1.8,3.35,1.55,3.4Z"/>
      <path class="cls-6" d="M378.1,392.61c-.13.07-.9-1.11-2.05-3.09-.3-.53-.61-1.07-.93-1.62l-.24-.26-.38-.31c-.25-.22-.56-.42-.85-.64-1.21-.86-2.58-1.76-4.03-2.72-5.8-3.78-10.5-6.86-10.34-7.12.15-.24,5.1,2.44,10.93,6.23,1.45.96,2.82,1.89,4.03,2.82.3.25.6.45.87.71l.41.37c.14.16.3.37.4.53.27.57.54,1.12.8,1.67.97,2.04,1.5,3.35,1.38,3.42Z"/>
    </g>
  </g>
</svg>