<?xml version="1.0" encoding="UTF-8"?>
<svg id="Layer_2" data-name="Layer 2" xmlns="http://www.w3.org/2000/svg" viewBox="0 0 1000 1000">
  <defs>
    <style>
      .cls-1 {
        isolation: isolate;
      }

      .cls-1, .cls-2, .cls-3, .cls-4, .cls-5, .cls-6, .cls-7, .cls-8, .cls-9, .cls-10, .cls-11, .cls-12 {
        stroke-width: 0px;
      }

      .cls-1, .cls-3 {
        fill: #000;
      }

      .cls-1, .cls-13 {
        opacity: .3;
      }

      .cls-2 {
        fill: #ff9a6c;
      }

      .cls-4 {
        fill: #e0e0e0;
      }

      .cls-5 {
        fill: #455a64;
      }

      .cls-6 {
        fill: #f5f5f5;
      }

      .cls-7 {
        fill: #09f;
      }

      .cls-8 {
        fill: #ebebeb;
      }

      .cls-9 {
        fill: #263238;
      }

      .cls-10 {
        fill: #ffbf9d;
      }

      .cls-11 {
        fill: #fafafa;
      }

      .cls-12 {
        fill: #fff;
      }
    </style>
  </defs>
  <g id="freepik--background-complete--inject-2">
    <g>
      <g>
        <rect class="cls-11" x="65.42" y="382.82" width="110.11" height="98.51"/>
        <path class="cls-4" d="M175.55,481.35s-.01-.64-.03-1.83c0-1.2-.01-2.97-.03-5.28-.01-4.63-.04-11.38-.07-19.99-.03-17.22-.07-41.82-.13-71.41l.25.25c-31.72,0-69.56.03-110.11.04h0l.3-.3c0,35.84-.03,69.57-.03,98.51l-.25-.25c32.85.06,60.35.1,79.64.13,9.66.03,17.26.06,22.46.07,2.59,0,4.59.03,5.95.03.67,0,1.18,0,1.53.01.34,0,.52.01.52.01,0,0-.17,0-.5.01-.35,0-.85,0-1.5.01-1.35,0-3.33.01-5.89.03-5.2.01-12.77.04-22.4.07-19.34.03-46.89.07-79.81.13h-.25v-.25c0-28.94-.03-62.67-.03-98.51v-.3h.3c40.54.01,78.39.03,110.11.04h.25v.25c-.06,29.67-.1,54.32-.13,71.57-.03,8.58-.06,15.34-.07,19.94,0,2.28-.03,4.04-.03,5.23s-.03,1.77-.03,1.77h-.03Z"/>
      </g>
      <path class="cls-4" d="M107.65,400.33c0,.16-5.79.3-12.94.3s-12.94-.13-12.94-.3,5.79-.3,12.94-.3,12.94.13,12.94.3Z"/>
      <path class="cls-4" d="M154.31,407.73c0,.16-15.92.3-35.56.3s-35.57-.13-35.57-.3,15.92-.3,35.57-.3,35.56.13,35.56.3Z"/>
      <rect class="cls-4" x="81.95" y="420.26" width="4.64" height="4.64"/>
      <rect class="cls-4" x="93.36" y="420.26" width="4.64" height="4.64"/>
      <rect class="cls-4" x="105" y="420.05" width="4.64" height="4.64"/>
      <rect class="cls-4" x="116.2" y="420.26" width="4.64" height="4.64"/>
      <rect class="cls-4" x="127.63" y="420.26" width="4.64" height="4.64"/>
      <rect class="cls-4" x="139.04" y="420.26" width="4.64" height="4.64"/>
      <rect class="cls-8" x="150.47" y="420.26" width="4.64" height="4.64"/>
      <rect class="cls-8" x="81.95" y="430.11" width="4.64" height="4.64"/>
      <rect class="cls-4" x="93.36" y="430.11" width="4.64" height="4.64"/>
      <rect class="cls-8" x="104.79" y="430.11" width="4.64" height="4.64"/>
      <rect class="cls-4" x="116.2" y="430.11" width="4.64" height="4.64"/>
      <rect class="cls-4" x="127.63" y="430.11" width="4.64" height="4.64"/>
      <rect class="cls-4" x="139.26" y="429.9" width="4.64" height="4.64"/>
      <rect class="cls-4" x="150.47" y="430.11" width="4.64" height="4.64"/>
      <rect class="cls-4" x="81.95" y="439.98" width="4.64" height="4.64"/>
      <rect class="cls-4" x="93.57" y="439.77" width="4.64" height="4.64"/>
      <rect class="cls-4" x="104.79" y="439.98" width="4.64" height="4.64"/>
      <rect class="cls-8" x="116.2" y="439.98" width="4.64" height="4.64"/>
      <rect class="cls-4" x="127.63" y="439.98" width="4.64" height="4.64"/>
      <rect class="cls-4" x="139.04" y="439.98" width="4.64" height="4.64"/>
      <rect class="cls-4" x="150.47" y="439.98" width="4.64" height="4.64"/>
      <rect class="cls-4" x="81.95" y="449.84" width="4.64" height="4.64"/>
      <rect class="cls-4" x="93.36" y="449.84" width="4.64" height="4.64"/>
      <rect class="cls-4" x="104.79" y="449.84" width="4.64" height="4.64"/>
      <rect class="cls-4" x="116.41" y="449.63" width="4.64" height="4.64"/>
      <rect class="cls-4" x="127.63" y="449.84" width="4.64" height="4.64"/>
      <rect class="cls-8" x="139.04" y="449.84" width="4.64" height="4.64"/>
      <rect class="cls-4" x="150.47" y="449.84" width="4.64" height="4.64"/>
      <rect class="cls-4" x="81.95" y="459.71" width="4.64" height="4.64"/>
      <rect class="cls-8" x="93.36" y="459.71" width="4.64" height="4.64"/>
      <rect class="cls-4" x="104.79" y="459.71" width="4.64" height="4.64"/>
      <rect class="cls-4" x="116.2" y="459.71" width="4.64" height="4.64"/>
      <rect class="cls-4" x="127.63" y="459.71" width="4.64" height="4.64"/>
      <rect class="cls-4" x="139.26" y="459.5" width="4.64" height="4.64"/>
      <rect class="cls-4" x="150.47" y="459.71" width="4.64" height="4.64"/>
    </g>
    <g>
      <circle class="cls-4" cx="192.58" cy="289.75" r="52.2"/>
      <circle class="cls-12" cx="193.12" cy="289.22" r="47.24"/>
      <path class="cls-8" d="M145.4,286.39s0,.27.01.78v3.94c.03.61.11,1.27.17,2,.07.72.14,1.5.21,2.34.04.84.3,1.7.45,2.63.59,3.72,2.02,8.16,4.42,12.93,2.42,4.74,6.05,9.78,11.13,14.19.64.55,1.29,1.09,1.94,1.66.68.52,1.42.99,2.12,1.5.74.48,1.42,1.06,2.21,1.49.78.44,1.57.89,2.38,1.33l1.2.68c.42.18.85.37,1.27.57.85.38,1.71.76,2.59,1.15.88.35,1.81.61,2.73.92.93.27,1.84.67,2.82.84,1.93.41,3.88.93,5.92,1.08,1.02.1,2.04.27,3.07.33,1.03.01,2.08.03,3.13.04.52,0,1.05.04,1.59,0,.52-.04,1.06-.1,1.59-.14,1.06-.1,2.14-.16,3.21-.31,2.12-.42,4.3-.71,6.41-1.43l1.6-.47c.27-.08.54-.16.81-.24l.78-.31c1.05-.42,2.1-.85,3.14-1.27,1.03-.48,2.02-1.05,3.06-1.56.51-.28,1.03-.51,1.52-.82l1.46-.95c2.01-1.19,3.79-2.72,5.65-4.19.85-.82,1.71-1.66,2.58-2.48l.65-.62.59-.68,1.18-1.37,1.18-1.37,1.05-1.49,1.05-1.5.52-.75c.16-.25.3-.54.45-.79.61-1.08,1.2-2.14,1.83-3.21.5-1.13,1.01-2.27,1.52-3.41,1.86-4.63,3-9.6,3.41-14.71.27-5.13-.23-10.21-1.46-15.04-.35-1.2-.71-2.39-1.05-3.58-.47-1.15-.92-2.29-1.39-3.43l-.35-.85-.42-.82-.85-1.63-.85-1.61-.99-1.53-.99-1.52-.5-.75-.57-.71c-.75-.93-1.49-1.87-2.22-2.8-1.66-1.7-3.21-3.46-5.06-4.9l-1.32-1.13c-.44-.38-.93-.68-1.4-1.02-.95-.65-1.86-1.35-2.82-1.95-.99-.57-1.97-1.12-2.95-1.67l-.74-.41c-.25-.13-.51-.23-.76-.34l-1.53-.68c-2-.99-4.12-1.56-6.17-2.27-1.05-.28-2.1-.48-3.14-.72-.52-.11-1.03-.23-1.56-.34-.52-.1-1.05-.14-1.57-.21-1.05-.13-2.08-.24-3.12-.37-1.03-.08-2.07-.06-3.09-.08-2.04-.13-4.05.16-6.02.3-.99.04-1.94.31-2.9.45-.95.2-1.91.33-2.83.57-.92.27-1.83.54-2.72.79-.45.13-.89.25-1.35.4-.42.17-.86.34-1.29.51-.85.34-1.7.68-2.53,1.02-.84.31-1.6.79-2.39,1.18-.78.41-1.56.79-2.31,1.22-.72.47-1.43.93-2.14,1.39-5.62,3.71-9.87,8.23-12.89,12.62-3,4.42-5,8.64-6.07,12.23-.27.91-.64,1.73-.79,2.55-.18.81-.35,1.57-.51,2.28s-.33,1.36-.42,1.95c-.07.61-.14,1.16-.2,1.66-.13.98-.23,1.73-.28,2.24-.07.51-.11.76-.11.76,0,0,0-.25.06-.76.06-.52.13-1.27.24-2.25.06-.5.11-1.05.18-1.66.1-.61.25-1.26.41-1.97s.31-1.47.5-2.29c.14-.84.5-1.66.76-2.56,1.05-3.64,3.03-7.89,6.02-12.35,3.02-4.43,7.28-9.01,12.93-12.76.71-.47,1.43-.93,2.15-1.4.75-.42,1.54-.82,2.32-1.23.79-.4,1.56-.88,2.41-1.2.84-.34,1.69-.68,2.55-1.03.42-.17.86-.34,1.29-.52.45-.13.89-.27,1.35-.4.91-.27,1.81-.54,2.75-.81.93-.24,1.9-.38,2.86-.58.96-.16,1.93-.42,2.93-.47,1.98-.16,4.01-.44,6.07-.31,1.03.03,2.07,0,3.12.07,1.03.11,2.08.24,3.14.37.52.07,1.06.1,1.59.2.52.11,1.05.23,1.57.34,1.05.24,2.12.44,3.17.72,2.07.71,4.22,1.27,6.23,2.27l1.54.68c.25.11.52.23.78.35l.74.42c.99.55,1.98,1.12,2.99,1.69.98.61,1.9,1.3,2.86,1.97.47.34.98.64,1.42,1.02l1.33,1.15c1.86,1.46,3.44,3.23,5.11,4.94.75.93,1.5,1.88,2.25,2.83l.57.71.5.76.99,1.53,1.01,1.54.86,1.63.85,1.64.42.82.35.86c.47,1.15.93,2.31,1.4,3.47.35,1.2.71,2.41,1.06,3.61,1.25,4.89,1.74,10.03,1.47,15.21-.41,5.17-1.59,10.2-3.46,14.88-.51,1.15-1.02,2.31-1.53,3.44-.62,1.09-1.23,2.18-1.84,3.26-.16.27-.3.54-.47.81l-.54.76-1.06,1.52-1.06,1.5-1.19,1.39-1.19,1.39-.59.69-.65.64c-.86.84-1.74,1.67-2.61,2.51-1.88,1.49-3.68,3.03-5.71,4.23l-1.47.96c-.48.33-1.02.55-1.53.84-1.03.52-2.04,1.09-3.09,1.57-1.06.42-2.12.85-3.17,1.27l-.79.31c-.27.08-.54.16-.81.24l-1.61.47c-2.12.72-4.33,1.01-6.49,1.43-1.08.14-2.17.2-3.24.31-.54.04-1.08.08-1.6.14-.54.03-1.06,0-1.6,0-1.06-.01-2.11-.03-3.16-.06-1.05-.06-2.07-.23-3.1-.33-2.07-.16-4.02-.69-5.98-1.1-.99-.17-1.9-.57-2.83-.85-.92-.33-1.87-.58-2.76-.95-.88-.4-1.76-.78-2.62-1.16-.42-.2-.86-.38-1.29-.57-.41-.23-.81-.45-1.22-.68-.81-.45-1.6-.91-2.39-1.36-.79-.42-1.49-1.01-2.22-1.5-.72-.51-1.46-1.01-2.14-1.53-.65-.57-1.3-1.12-1.95-1.67-5.11-4.46-8.74-9.54-11.14-14.34-2.39-4.81-3.79-9.29-4.36-13.03-.14-.93-.4-1.8-.42-2.65-.07-.84-.13-1.61-.18-2.34s-.13-1.4-.14-2.01c0-.61.03-1.18.04-1.67.03-.98.04-1.74.06-2.27.01-.51.04-.76.04-.76h-.01Z"/>
      <g>
        <path class="cls-4" d="M214.63,290.51s-.59.07-1.69.11c-1.19.03-2.73.06-4.62.1-3.92.06-9.37.08-15.55.1h-.31v-3.4c0-6.88.03-13.11.08-17.63.04-2.18.07-3.98.1-5.34.04-1.26.07-1.95.11-1.95s.08.69.11,1.95c.03,1.37.06,3.17.1,5.34.06,4.52.08,10.75.08,17.63v3.09l-.31-.31c6.16,0,11.63.04,15.55.1,1.88.04,3.43.07,4.62.1,1.09.03,1.69.07,1.69.11h.03Z"/>
        <path class="cls-4" d="M192.94,249.34c.17,0,.31,1.78.31,3.99s-.14,3.99-.31,3.99-.31-1.78-.31-3.99.14-3.99.31-3.99Z"/>
        <path class="cls-4" d="M214.59,255.74c.11.13-1.03,1.46-2.56,3-1.54,1.54-2.87,2.69-3,2.56-.11-.11,1.03-1.46,2.56-3,1.53-1.54,2.87-2.69,3-2.56Z"/>
        <path class="cls-4" d="M227.25,269.58c.08.16-1.43,1.06-3.27,2.18-1.86,1.12-3.34,2.04-3.46,1.9-.1-.13,1.26-1.29,3.13-2.42,1.87-1.13,3.53-1.81,3.6-1.66Z"/>
        <path class="cls-4" d="M234.67,290.1c0,.17-2.44.31-5.44.31s-5.44-.14-5.44-.31,2.44-.31,5.44-.31,5.44.14,5.44.31Z"/>
        <path class="cls-4" d="M159.19,289.37c0,.17-2.31.31-5.14.31s-5.14-.14-5.14-.31,2.31-.31,5.14-.31,5.14.14,5.14.31Z"/>
        <path class="cls-4" d="M164.53,304.65c.11.13-1.63,1.7-3.88,3.53-2.25,1.81-4.16,3.19-4.28,3.04-.1-.14,1.64-1.71,3.88-3.53,2.25-1.81,4.16-3.17,4.28-3.04Z"/>
        <path class="cls-4" d="M177.7,316.48c.14.1-1.15,2.08-2.65,4.59-1.5,2.49-2.65,4.56-2.8,4.49s.76-2.28,2.28-4.8,3.04-4.36,3.17-4.26h0Z"/>
        <path class="cls-4" d="M192.94,331.71c-.17,0-.31-2.44-.31-5.44s.14-5.44.31-5.44.31,2.44.31,5.44-.14,5.44-.31,5.44Z"/>
        <path class="cls-4" d="M216.4,324.46c-.08.14-2.22-1.09-4.49-3.07-2.28-1.98-3.78-3.92-3.65-4.02.13-.11,1.81,1.61,4.06,3.57,2.24,1.95,4.18,3.38,4.08,3.54h0Z"/>
        <path class="cls-4" d="M227.42,312.6c-.11.11-1.73-1.3-3.61-3.17s-3.29-3.48-3.17-3.61c.11-.11,1.73,1.3,3.61,3.17,1.87,1.87,3.29,3.48,3.17,3.61Z"/>
        <path class="cls-4" d="M164.04,274.73c-.11.11-1.54-1.1-3.19-2.75s-2.86-3.06-2.75-3.19c.11-.11,1.54,1.1,3.19,2.75s2.86,3.06,2.75,3.19Z"/>
        <path class="cls-4" d="M177.62,260.43c-.11.11-1.52-1.08-3.13-2.68s-2.82-2.99-2.69-3.12c.11-.11,1.52,1.08,3.13,2.68,1.6,1.6,2.82,2.99,2.69,3.12Z"/>
      </g>
      <path class="cls-6" d="M150.82,289.68c0-25.15,19.65-45.7,44.44-47.15-.93-.06-1.87-.08-2.8-.08-26.08,0-47.24,21.16-47.24,47.24s21.16,47.24,47.24,47.24c.95,0,1.88-.04,2.8-.08-24.78-1.46-44.44-22.01-44.44-47.15Z"/>
    </g>
    <g>
      <rect class="cls-4" x="393.05" y="306.46" width="144.01" height="227.59"/>
      <rect class="cls-6" x="396.93" y="310.74" width="135.76" height="219.57"/>
      <g>
        <rect class="cls-12" x="464.82" y="323.53" width="54.14" height="84"/>
        <path class="cls-4" d="M494.77,330.96c0,1.12-.91,2.02-2.02,2.02s-2.02-.91-2.02-2.02.91-2.02,2.02-2.02,2.02.91,2.02,2.02Z"/>
      </g>
      <g>
        <rect class="cls-12" x="410.26" y="430.91" width="54.14" height="84"/>
        <path class="cls-4" d="M440.21,438.33c0,1.12-.91,2.02-2.02,2.02s-2.02-.91-2.02-2.02.91-2.02,2.02-2.02,2.02.91,2.02,2.02Z"/>
      </g>
      <g>
        <rect class="cls-12" x="409.54" y="323.53" width="46.23" height="65.59"/>
        <path class="cls-4" d="M434.33,329.49c0,.92-.75,1.69-1.67,1.69s-1.69-.75-1.69-1.69.75-1.69,1.69-1.69,1.67.75,1.67,1.69Z"/>
      </g>
      <g>
        <rect class="cls-12" x="472.7" y="434.72" width="49.76" height="27.57" transform="translate(-47.17 58.64) rotate(-6.44)"/>
        <path class="cls-4" d="M498.31,440.04c0,.95-.76,1.71-1.71,1.71s-1.71-.76-1.71-1.71.76-1.71,1.71-1.71,1.71.76,1.71,1.71Z"/>
      </g>
      <path class="cls-4" d="M457.17,450.07c0,.23-8.5.4-18.99.4s-18.99-.18-18.99-.4,8.5-.4,18.99-.4,18.99.18,18.99.4Z"/>
      <path class="cls-4" d="M457.17,456.07c0,.23-8.5.4-18.99.4s-18.99-.18-18.99-.4,8.5-.4,18.99-.4,18.99.18,18.99.4Z"/>
      <path class="cls-4" d="M457.17,462.09c0,.23-8.5.4-18.99.4s-18.99-.18-18.99-.4,8.5-.4,18.99-.4,18.99.18,18.99.4Z"/>
      <path class="cls-4" d="M457.17,468.09c0,.23-8.5.4-18.99.4s-18.99-.18-18.99-.4,8.5-.4,18.99-.4,18.99.18,18.99.4Z"/>
      <path class="cls-4" d="M457.17,474.11c0,.23-8.5.41-18.99.41s-18.99-.18-18.99-.41,8.5-.4,18.99-.4,18.99.18,18.99.4Z"/>
      <path class="cls-4" d="M457.17,480.11c0,.23-8.5.4-18.99.4s-18.99-.18-18.99-.4,8.5-.4,18.99-.4,18.99.18,18.99.4Z"/>
      <path class="cls-4" d="M457.17,486.13c0,.23-8.5.4-18.99.4s-18.99-.18-18.99-.4,8.5-.4,18.99-.4,18.99.18,18.99.4Z"/>
      <path class="cls-4" d="M516.09,443.62c.03.23-8.35,1.59-18.73,3.06-10.38,1.46-18.82,2.48-18.86,2.25-.03-.23,8.35-1.59,18.75-3.06,10.38-1.46,18.82-2.48,18.85-2.25h0Z"/>
      <path class="cls-4" d="M516.86,447.39c.03.23-8.35,1.59-18.73,3.06-10.38,1.46-18.82,2.48-18.86,2.25-.03-.23,8.35-1.59,18.75-3.06,10.38-1.46,18.82-2.48,18.85-2.25h0Z"/>
      <path class="cls-4" d="M517.54,450.86c.03.23-8.35,1.59-18.73,3.06-10.38,1.46-18.82,2.48-18.86,2.25-.03-.23,8.35-1.59,18.75-3.06,10.38-1.46,18.82-2.48,18.85-2.25h0Z"/>
      <path class="cls-4" d="M514.2,341.1c0,.23-9.6.4-21.45.4s-21.45-.18-21.45-.4,9.6-.4,21.45-.4,21.45.18,21.45.4Z"/>
      <path class="cls-4" d="M514.2,344.67c0,.23-9.6.4-21.45.4s-21.45-.18-21.45-.4,9.6-.4,21.45-.4,21.45.18,21.45.4Z"/>
      <path class="cls-4" d="M514.2,348.25c0,.23-9.6.4-21.45.4s-21.45-.18-21.45-.4,9.6-.4,21.45-.4,21.45.18,21.45.4Z"/>
      <path class="cls-4" d="M514.2,351.82c0,.23-9.6.4-21.45.4s-21.45-.18-21.45-.4,9.6-.4,21.45-.4,21.45.18,21.45.4Z"/>
      <path class="cls-4" d="M514.2,355.39c0,.23-9.6.4-21.45.4s-21.45-.18-21.45-.4,9.6-.4,21.45-.4,21.45.18,21.45.4Z"/>
      <path class="cls-4" d="M514.2,358.97c0,.23-9.6.4-21.45.4s-21.45-.18-21.45-.4,9.6-.4,21.45-.4,21.45.18,21.45.4Z"/>
      <path class="cls-4" d="M514.2,362.54c0,.23-9.6.4-21.45.4s-21.45-.18-21.45-.4,9.6-.4,21.45-.4,21.45.18,21.45.4Z"/>
      <path class="cls-4" d="M514.2,373.15c0,.23-9.6.4-21.45.4s-21.45-.18-21.45-.4,9.6-.4,21.45-.4,21.45.18,21.45.4Z"/>
      <path class="cls-4" d="M514.49,376.93c0,.23-9.6.4-21.45.4s-21.45-.18-21.45-.4,9.6-.4,21.45-.4,21.45.18,21.45.4Z"/>
      <path class="cls-4" d="M514.79,380.69c0,.23-9.6.4-21.45.4s-21.45-.18-21.45-.4,9.6-.4,21.45-.4,21.45.18,21.45.4Z"/>
      <path class="cls-4" d="M515.1,384.47c0,.23-9.6.4-21.45.4s-21.45-.18-21.45-.4,9.6-.4,21.45-.4,21.45.18,21.45.4Z"/>
      <path class="cls-4" d="M515.4,388.24c0,.23-9.6.4-21.45.4s-21.45-.18-21.45-.4,9.6-.4,21.45-.4,21.45.18,21.45.4Z"/>
      <path class="cls-4" d="M515.7,392.02c0,.23-9.6.4-21.45.4s-21.45-.18-21.45-.4,9.6-.4,21.45-.4,21.45.18,21.45.4Z"/>
    </g>
    <g>
      <path class="cls-6" d="M897.53,801.78c-1.87-1.6-6.03-6.68-2.82-12.59,1.18-2.17,3.68-3.23,5.95-4.19,2.27-.95,4.64-1.78,6.51-3.37,3.54-3,4.5-8,6.85-12.01,2.69-4.6,7.72-8.06,13.03-7.82,6.09.28,11.16,5.24,13.45,10.9s2.38,11.95,2.42,18.07c.03,3.38-.13,7.19-2.61,9.47-2.29,2.11-5.73,2.14-8.84,2.04-11.07-.34-22.16-.68-33.23-1.02"/>
      <path class="cls-4" d="M961.1,710.39h-87.41l15.75,93.9c.69,4.11,3.65,7.26,7.46,8.35.1.03.2.06.31.08.25.07.51.16.78.2.58.11,1.18.18,1.78.2v.08l.44-.07h38.96c.74,0,1.44-.07,2.14-.21,4.6-.71,8.28-4.4,8.85-9.18l7.59-64.7.34-2.58h-.04l3-25.62.06-.48h0ZM944.6,770.28h-8.96l.91-27.24h10.39l-2.32,27.24h-.01ZM947.8,743.03h8.6l-3.2,27.24h-7.72l2.32-27.24ZM922.17,800.49l-.55-23.68h12.91l-.79,23.68h-11.58.01ZM908.21,776.82h12.55l.54,23.68h-11.26l-1.84-23.68h.01ZM909.17,800.49h-10.52c-1.01-6.39-2.31-14.7-3.71-23.68h12.39l1.84,23.68ZM907.7,770.29l-2.12-27.24h14.4l.62,27.24h-12.91.01ZM921.48,770.29l-.62-27.24h14.81l-.91,27.24h-13.28ZM920.7,736.5l-.58-25.23h16.61l-.84,25.23h-15.19ZM919.84,736.5h-14.76l-1.95-25.23h16.14l.58,25.23h-.01ZM904.2,736.5h-15.62c-.55-3.48-1.08-6.78-1.54-9.76-1.63-10.21-2.24-14.03-2.58-15.48h17.79l1.97,25.23h-.01ZM904.71,743.03l2.12,27.24h-12.91c-.44-2.76-.88-5.57-1.32-8.35-1.01-6.43-2.02-12.86-2.97-18.89h15.08,0ZM893.04,770.28h-8.44l-4.57-27.24h8.71c1.33,8.43,2.8,17.8,4.29,27.24h.01ZM894.06,776.8c1.29,8.18,2.55,16.27,3.71,23.68h-8.1l-3.96-23.68h8.37-.01ZM934.63,800.48l.79-23.68h8.62l-2.02,23.68h-7.39ZM936.76,736.49l.84-25.23h12.05l-2.15,25.23h-10.73ZM883.64,711.26c.34,1.83,1.94,11.75,4.08,25.23h-8.78l-4.23-25.23h8.94ZM949.66,800.48h-6.75l2.02-23.68h7.51l-2.78,23.68h0ZM957.16,736.49h-8.79l2.15-25.23h9.6l-2.96,25.23Z"/>
    </g>
    <g>
      <rect class="cls-4" x="803.03" y="240.45" width="146.18" height="241.96"/>
      <rect class="cls-8" x="798.17" y="240.45" width="146.18" height="241.96"/>
      <rect class="cls-12" x="804.4" y="245.35" width="133.73" height="232.15"/>
      <g>
        <rect class="cls-8" x="829.86" y="275.52" width="82.23" height="171.82"/>
        <path class="cls-4" d="M829.86,386.54c-.18-16.04,14.25-31.72,30.13-33.96,7.58-1.06,15.63.44,22.71-2.46,12.65-5.18,16.67-21.98,29.38-26.96l.58,124.19h-82.81v-60.8Z"/>
      </g>
    </g>
    <g>
      <rect class="cls-8" x="917.61" y="577.65" width="58.71" height="15.01"/>
      <path class="cls-4" d="M951.5,608.46s0-.1-.01-.27c0-.2,0-.45-.01-.76,0-.71-.03-1.69-.04-2.96-.03-2.59-.06-6.32-.1-11.02l.18.17c-13.41.03-34.72.07-58.71.11.13-.13-.3.28.3-.28h0v15.01l-.3-.28c16.72.06,31.35.1,41.83.13,5.23.03,9.42.06,12.35.08,1.43.01,2.53.03,3.34.04.35,0,.65,0,.88.01.2,0,.3,0,.31.01s-.08,0-.27.01h-.84c-.78.03-1.88.04-3.27.06-2.92.01-7.08.04-12.28.08-10.55.03-25.25.07-42.04.13h-.3v-15.26h0v-.03h0c.59-.58.17-.17.3-.3,23.97.04,45.3.08,58.71.11h.18v.17c-.04,4.74-.08,8.5-.1,11.12-.01,1.25-.03,2.22-.04,2.92,0,.3,0,.55-.01.74,0,.17,0,.24-.01.24h-.04Z"/>
    </g>
    <g>
      <rect class="cls-8" x="377.73" y="625.7" width="58.71" height="15.01"/>
      <path class="cls-4" d="M411.6,656.53s0-.1-.01-.27c0-.2,0-.45-.01-.76,0-.71-.03-1.69-.04-2.96-.03-2.59-.06-6.32-.1-11.02l.18.17c-13.41.03-34.72.07-58.71.11.13-.13-.3.28.3-.28h0v15.01l-.3-.28c16.72.06,31.35.1,41.83.13,5.23.03,9.42.06,12.35.08,1.43.01,2.53.03,3.34.04.35,0,.65,0,.88.01.2,0,.3,0,.31.01,0,0-.08,0-.27.01-.21,0-.5,0-.84.01-.78,0-1.88.03-3.27.04-2.92.01-7.08.04-12.28.08-10.55.03-25.25.07-42.04.13h-.3v-15.26h0v-.03h0c.59-.58.17-.17.3-.3,23.97.04,45.3.08,58.71.11h.18v.17c-.04,4.74-.08,8.5-.1,11.12-.01,1.25-.03,2.22-.04,2.92,0,.3,0,.55-.01.74,0,.17,0,.24-.01.24h-.04Z"/>
    </g>
    <g>
      <rect class="cls-8" x="527.18" y="731.56" width="58.71" height="15.01"/>
      <path class="cls-4" d="M561.07,762.37s0-.1-.01-.27c0-.2,0-.45-.01-.76,0-.71-.03-1.69-.04-2.96-.03-2.59-.06-6.32-.1-11.02l.18.17c-13.41.03-34.72.07-58.71.11.13-.13-.3.28.3-.28h0v15.01l-.3-.28c16.72.06,31.35.1,41.83.13,5.23.03,9.42.06,12.35.08,1.43.01,2.53.03,3.34.04.35,0,.65,0,.88.01.2,0,.3,0,.31.01s-.08,0-.27.01c-.21,0-.5,0-.84.01-.78,0-1.88.03-3.27.04-2.92.01-7.08.04-12.28.08-10.54.03-25.25.07-42.04.13h-.3v-15.26h0v-.03h0c.59-.58.17-.17.3-.3,23.97.04,45.3.08,58.71.11h.18v.17c-.04,4.74-.08,8.5-.1,11.12-.01,1.25-.03,2.22-.04,2.92,0,.3,0,.55-.01.74,0,.17,0,.24-.01.24h-.04Z"/>
    </g>
    <g>
      <rect class="cls-8" x="373.99" y="211.63" width="58.71" height="15.01"/>
      <path class="cls-4" d="M407.88,242.46s0-.1-.01-.27c0-.2,0-.45-.01-.76,0-.71-.03-1.69-.04-2.96-.03-2.59-.06-6.32-.1-11.02l.18.17c-13.41.03-34.72.07-58.71.11.13-.13-.3.28.3-.28h0v15.01l-.3-.28c16.72.06,31.35.1,41.83.13,5.23.03,9.42.06,12.35.08,1.43.01,2.53.03,3.34.04.35,0,.65,0,.88.01.2,0,.3,0,.31.01,0,0-.08,0-.27.01-.21,0-.5,0-.84.01-.78,0-1.88.03-3.27.04-2.92.01-7.08.04-12.28.08-10.55.03-25.25.07-42.04.13h-.3v-15.26h0v-.03h0c.59-.58.17-.17.3-.3,23.97.04,45.3.08,58.71.11h.18v.17c-.04,4.74-.08,8.5-.1,11.12-.01,1.25-.03,2.22-.04,2.92,0,.3,0,.55-.01.74,0,.17,0,.24-.01.24h-.04Z"/>
    </g>
    <g>
      <rect class="cls-8" x="48.77" y="557.44" width="58.71" height="15.01"/>
      <path class="cls-4" d="M82.66,588.27s0-.1-.01-.27c0-.2,0-.45-.01-.76,0-.71-.03-1.69-.04-2.96-.03-2.59-.06-6.32-.1-11.02l.18.17c-13.41.03-34.72.07-58.71.11.13-.13-.3.28.3-.28h0v15.01l-.3-.28c16.72.06,31.35.1,41.83.13,5.23.03,9.42.06,12.35.08,1.43.01,2.53.03,3.34.04.35,0,.65,0,.88.01.2,0,.3,0,.31.01,0,0-.08,0-.27.01-.21,0-.5,0-.84.01-.78,0-1.88.03-3.27.04-2.92.01-7.08.04-12.28.08-10.55.03-25.25.07-42.04.13h-.3v-15.26h0v-.03h0c.59-.58.17-.17.3-.3,23.99.04,45.3.08,58.71.11h.18v.17c-.04,4.74-.08,8.5-.1,11.12-.01,1.25-.03,2.22-.04,2.92,0,.3,0,.55-.01.74,0,.17,0,.24-.01.24h-.04Z"/>
    </g>
    <g>
      <path class="cls-4" d="M772.26,221.86s0-.11-.01-.31c0-.23,0-.52-.01-.88,0-.81-.03-1.94-.04-3.38-.03-2.96-.06-7.24-.11-12.6l.2.2c-14.73.03-38.16.07-64.53.13.14-.14-.33.33.33-.33h0v17.19l-.33-.33c18.38.06,34.45.11,45.98.14,5.75.04,10.35.07,13.58.1,1.57.01,2.79.03,3.67.04.4,0,.71.01.96.01.21,0,.34.01.34.01,0,0-.1,0-.3.01-.24,0-.54,0-.92.01-.86,0-2.07.03-3.6.04-3.2.03-7.79.06-13.49.1-11.58.04-27.74.08-46.21.14h-.33v-17.47h0v-.03h0c.65-.67.18-.18.33-.34,26.35.06,49.79.1,64.53.13h.2v.2c-.04,5.42-.08,9.73-.11,12.73-.01,1.43-.04,2.53-.04,3.34,0,.35-.01.62-.01.85,0,.18,0,.28-.01.27h-.04Z"/>
      <path class="cls-4" d="M781.01,204.68s-.01-.11-.03-.33c0-.24-.01-.55-.03-.91-.01-.85-.03-2-.06-3.44-.03-3.02-.07-7.26-.13-12.5l.24.24c-10.04.03-23.7.06-38.77.1-.3.3.4-.4.33-.33h0v17.18l-.31-.31c11.19.06,20.83.11,27.74.16,3.41.04,6.13.07,8.09.08.91.01,1.63.03,2.18.04.5,0,.76.03.78.04,0,0-.23.03-.71.04-.54,0-1.23.03-2.11.04-1.93.01-4.63.06-8,.08-6.95.04-16.67.08-27.94.16h-.31v-17.46h0v-.03h0c-.07.07.62-.64.33-.34,15.07.04,28.72.07,38.77.1h.24v.24c-.06,5.3-.1,9.6-.13,12.65-.03,1.43-.04,2.56-.06,3.38-.01.76-.03,1.16-.06,1.15l-.06-.04Z"/>
    </g>
    <g>
      <path class="cls-4" d="M110.76,253.01s0-.11-.01-.31c0-.23,0-.52-.01-.88,0-.81-.03-1.94-.04-3.38-.03-2.96-.06-7.24-.11-12.6l.2.2c-14.73.03-38.16.07-64.53.13.14-.14-.33.33.33-.33h0v17.19l-.33-.33c18.38.06,34.45.11,45.98.14,5.75.04,10.35.07,13.58.1,1.57.01,2.79.03,3.67.04.4,0,.71.01.96.01.21,0,.34,0,.34.01s-.1,0-.3.01c-.24,0-.54,0-.92.01-.86,0-2.07.03-3.6.04-3.2.03-7.79.06-13.49.1-11.58.04-27.74.08-46.21.14h-.33v-17.47h0v-.03h0c.65-.67.18-.18.33-.34,26.35.06,49.79.1,64.53.13h.2v.2c-.04,5.42-.08,9.73-.11,12.73-.01,1.43-.04,2.53-.04,3.34,0,.35-.01.62-.01.85,0,.18,0,.28-.01.27h-.04Z"/>
      <path class="cls-4" d="M119.52,235.82s-.01-.11-.03-.33c0-.24-.01-.55-.03-.91-.01-.85-.03-2-.06-3.44-.03-3.02-.07-7.26-.13-12.5l.24.24c-10.04.03-23.7.06-38.77.1-.3.3.4-.4.33-.33h0v17.18l-.31-.31c11.19.06,20.83.11,27.74.16,3.41.04,6.13.07,8.09.08.91.01,1.63.03,2.18.04.5,0,.76.03.78.04,0,0-.23.03-.71.04-.54,0-1.23.03-2.11.04-1.93.01-4.63.06-8,.08-6.95.04-16.67.08-27.94.16h-.31v-17.46h0v-.03h0c-.07.07.62-.64.33-.34,15.07.04,28.72.07,38.77.1h.24v.24c-.06,5.3-.1,9.6-.13,12.65-.03,1.43-.04,2.56-.06,3.38-.01.76-.03,1.16-.06,1.15l-.06-.04Z"/>
    </g>
    <g>
      <path class="cls-4" d="M315.88,382.75s0-.11-.01-.31c0-.23,0-.52-.01-.88,0-.81-.03-1.94-.04-3.38-.03-2.96-.06-7.24-.11-12.6l.2.2c-14.73.03-38.16.07-64.53.13.14-.14-.33.33.33-.33h0v17.19l-.33-.33c18.38.06,34.45.11,45.98.14,5.75.04,10.35.07,13.58.1,1.57.01,2.79.03,3.67.04.4,0,.71.01.96.01.21,0,.34.01.34.01,0,0-.1,0-.3.01-.24,0-.54,0-.92.01-.86,0-2.07.03-3.6.04-3.2.03-7.79.06-13.49.1-11.58.04-27.74.08-46.21.14h-.33v-17.47h0v-.03h0c.65-.67.18-.18.33-.34,26.35.06,49.79.1,64.53.13h.2v.2c-.04,5.42-.08,9.73-.11,12.73-.01,1.43-.04,2.53-.04,3.34,0,.35-.01.62-.01.85,0,.18,0,.28-.01.27h-.04Z"/>
      <path class="cls-4" d="M324.63,365.57s-.01-.11-.03-.33c0-.24-.01-.55-.03-.91-.01-.85-.03-2-.06-3.44-.03-3.02-.07-7.26-.13-12.5l.24.24c-10.04.03-23.7.06-38.77.1-.3.3.4-.4.33-.33h0v17.18l-.31-.31c11.19.06,20.83.11,27.74.16,3.41.04,6.13.07,8.09.08.91.01,1.63.03,2.18.04.5,0,.76.03.78.04,0,0-.23.03-.71.04-.54,0-1.23.03-2.11.04-1.93.01-4.63.06-8,.08-6.95.04-16.67.08-27.94.16h-.31v-17.46h0v-.03h0c-.07.07.62-.64.33-.34,15.07.04,28.72.07,38.77.1h.24v.24c-.06,5.3-.1,9.6-.13,12.65-.03,1.43-.04,2.56-.06,3.38-.01.76-.03,1.16-.06,1.15l-.06-.04Z"/>
    </g>
    <g>
      <path class="cls-4" d="M185.32,745.37s0-.11-.01-.31c0-.23,0-.52-.01-.88,0-.81-.03-1.94-.04-3.38-.03-2.96-.06-7.24-.11-12.6l.2.2c-14.73.03-38.16.07-64.53.13.14-.14-.33.33.33-.33h0v17.19l-.33-.33c18.38.06,34.45.11,45.98.14,5.75.04,10.35.07,13.58.1,1.57.01,2.79.03,3.67.04.4,0,.71.01.96.01.21,0,.34,0,.34.01s-.1,0-.3.01c-.24,0-.54,0-.92.01-.86,0-2.07.03-3.6.04-3.2.03-7.79.06-13.49.1-11.58.04-27.74.08-46.21.14h-.33v-17.47h0v-.03h0c.65-.67.18-.18.33-.34,26.35.06,49.79.1,64.53.13h.2v.2c-.04,5.42-.08,9.73-.11,12.73-.01,1.43-.04,2.53-.04,3.34,0,.35-.01.62-.01.85,0,.18,0,.28-.01.27h-.04Z"/>
      <path class="cls-4" d="M194.07,728.19s-.01-.11-.03-.33c0-.24-.01-.55-.03-.91-.01-.85-.03-2-.06-3.44-.03-3.02-.07-7.26-.13-12.5l.24.24c-10.04.03-23.7.06-38.77.1-.3.3.4-.4.33-.33h0v17.18l-.31-.31c11.19.06,20.83.11,27.74.16,3.41.04,6.13.07,8.09.08.91.01,1.63.03,2.18.04.5,0,.76.03.78.04,0,0-.23.03-.71.04-.54,0-1.23.03-2.11.04-1.93.01-4.63.06-8,.08-6.95.04-16.67.08-27.94.16h-.31v-17.46h0v-.03h0c-.07.07.62-.64.33-.34,15.07.04,28.72.07,38.77.1h.24v.24c-.06,5.3-.1,9.6-.13,12.65-.03,1.43-.04,2.56-.06,3.38-.01.76-.03,1.16-.06,1.15l-.06-.04Z"/>
    </g>
    <g>
      <path class="cls-4" d="M612.48,635.79s0-.11-.01-.31c0-.23,0-.52-.01-.88,0-.81-.03-1.94-.04-3.38-.03-2.96-.06-7.24-.11-12.6l.2.2c-14.73.03-38.16.07-64.53.13.14-.14-.33.33.33-.33h0v17.19l-.33-.33c18.38.06,34.45.11,45.98.14,5.75.04,10.35.07,13.58.1,1.57.01,2.79.03,3.67.04.4,0,.71.01.96.01.21,0,.34.01.34.01,0,0-.1,0-.3.01-.24,0-.54,0-.92.01-.86,0-2.07.03-3.6.04-3.2.03-7.79.06-13.49.1-11.58.04-27.74.08-46.21.14h-.33v-17.47h0v-.03h0c.65-.67.18-.18.33-.34,26.35.06,49.79.1,64.53.13h.2v.2c-.04,5.42-.08,9.73-.11,12.73-.01,1.43-.04,2.53-.04,3.34,0,.35-.01.62-.01.85,0,.18,0,.28-.01.27h-.04Z"/>
      <path class="cls-4" d="M621.23,618.62s-.01-.11-.03-.33c0-.24-.01-.55-.03-.91-.01-.85-.03-2-.06-3.44-.03-3.02-.07-7.26-.13-12.5l.24.24c-10.04.03-23.7.06-38.77.1-.3.3.4-.4.33-.33h0v17.18l-.31-.31c11.19.06,20.83.11,27.74.16,3.41.04,6.13.07,8.09.08.91.01,1.63.03,2.18.04.5,0,.76.03.78.04,0,0-.23.03-.71.04-.54,0-1.23.03-2.11.04-1.93.01-4.63.06-8,.08-6.95.04-16.67.08-27.94.16h-.31v-17.46h0v-.03h0c-.07.07.62-.64.33-.34,15.07.04,28.72.07,38.77.1h.24v.24c-.06,5.3-.1,9.6-.13,12.65-.03,1.43-.04,2.56-.06,3.38-.01.76-.03,1.16-.06,1.15l-.06-.04Z"/>
    </g>
  </g>
  <g id="freepik--Floor--inject-2">
    <path class="cls-5" d="M954.12,813.49c0,.2-204.68.37-457.11.37s-457.16-.17-457.16-.37,204.63-.37,457.16-.37,457.11.17,457.11.37Z"/>
  </g>
  <g id="freepik--Plant--inject-2">
    <g>
      <g>
        <path class="cls-9" d="M509.38,777.64s-5.24-36.02-4.8-56.98c.44-20.96-.03-44.53-.03-44.53h2.41s-1.63,41.6.14,66.68c1.78,25.06,6.46,34.82,6.46,34.82h-4.19"/>
        <path class="cls-5" d="M524.99,635.6c-.48-1.23-1.08-2.51-2.19-3.21-1.53-.98-3.54-.57-5.25.04-7.29,2.58-13.76,16.19-16.71,23.34l9.69,32.63c17.47-16.21,20.5-37.5,14.47-52.79h0Z"/>
        <path class="cls-9" d="M522.22,633.68s-.04.16-.14.42c-.13.31-.28.71-.47,1.19-.42,1.03-1.02,2.52-1.73,4.38-1.43,3.71-3.24,8.89-4.87,14.73-1.61,5.83-2.73,11.22-3.41,15.12-.34,1.95-.61,3.54-.76,4.64-.08.51-.16.93-.21,1.26-.06.28-.08.44-.1.44,0,0,0-.16.01-.45.03-.34.08-.75.13-1.27.11-1.1.34-2.7.65-4.67.62-3.94,1.69-9.33,3.31-15.19,1.63-5.85,3.5-11.03,4.98-14.71.75-1.84,1.39-3.33,1.86-4.33.23-.47.4-.85.54-1.16.13-.27.2-.4.21-.4h0Z"/>
        <path class="cls-5" d="M506.21,696.2c-9.08-5.01-14.43-14.46-14.93-24.81-.35-7.24,1.87-14.34,4.39-21.14.21-.59.48-1.23,1.02-1.53.76-.42,1.71-.04,2.48.38,6.6,3.75,10.59,10.92,12.72,18.21,1.42,4.84,2.15,9.95,1.49,14.97-.65,5.01-3.51,10.45-7.18,13.93"/>
        <path class="cls-9" d="M506.21,696.2s-.03-.16-.04-.44c0-.33,0-.75-.03-1.25,0-1.09-.04-2.66-.14-4.6-.17-3.88-.68-9.23-1.69-15.08s-2.22-11.07-3.13-14.87c-.44-1.86-.81-3.37-1.08-4.47-.11-.5-.21-.91-.28-1.22-.06-.28-.08-.42-.07-.44,0,0,.07.14.16.41.1.31.21.72.35,1.2.3,1.05.71,2.56,1.2,4.45.98,3.77,2.24,9.01,3.24,14.87,1.01,5.86,1.47,11.24,1.57,15.14.06,1.95.06,3.53,0,4.62l-.06,1.25c-.01.28-.03.44-.04.44h.03Z"/>
        <g class="cls-13">
          <path class="cls-3" d="M506.21,696.2c-9.08-5.01-14.43-14.46-14.93-24.81-.35-7.24,1.87-14.34,4.39-21.14.21-.59.48-1.23,1.02-1.53.76-.42,1.71-.04,2.48.38,6.6,3.75,10.59,10.92,12.72,18.21,1.42,4.84,2.15,9.95,1.49,14.97-.65,5.01-3.51,10.45-7.18,13.93"/>
        </g>
        <path class="cls-5" d="M516.45,751.32c8.94,1.97,16.28,8.27,24.91,11.33,5.71,2.02,12.15,2.75,16.71,6.73-1.09-2.76-3.68-4.6-6.2-6.17-7.09-4.43-14.68-8.06-22.57-10.78-4.05-1.4-8.45-2.56-12.59-1.42"/>
        <path class="cls-5" d="M503.53,759.27c-11.19-.18-22.97-9.7-34.11-10.28,11.65-3.77,28.35-.69,34.11,10.28"/>
        <path class="cls-5" d="M507.91,732.43c5.68-2.05,11.92-2.14,17.88-1.22,5.96.92,11.72,2.85,17.46,4.74-.58-3.88-3.72-6.8-6.67-9.39-2.22-1.94-4.46-3.89-7.01-5.4-2.55-1.49-5.47-2.49-8.41-2.38-3.55.16-6.95,1.98-9.28,4.67-2.34,2.69-3.58,5.4-3.98,8.94"/>
        <path class="cls-5" d="M484.94,720.08c-7.04-6.02-17.71-5.42-26.98-5.21,14.23,6.81,29.57,16.13,41.83,26.07.38-6.54-5.96-13.25-14.85-20.84h0Z"/>
        <g class="cls-13">
          <path class="cls-3" d="M484.94,720.08c-7.04-6.02-17.71-5.42-26.98-5.21,14.23,6.81,29.57,16.13,41.83,26.07.38-6.54-5.96-13.25-14.85-20.84h0Z"/>
        </g>
        <path class="cls-5" d="M511.07,711.78c3.54-2.36,7.12-4.62,10.83-6.3s7.17-4.36,10.75-6.3c4.64-2.52,8.67-6,12.93-9.12s8.95-5.93,14.16-6.75c-4.25-.88-8.69-.4-12.89.75s-8.17,2.93-12.12,4.72c-5.49,2.48-11.09,5.01-15.58,9.03s-8.55,7.99-8.07,13.99"/>
        <path class="cls-9" d="M541.16,759.27s-.13-.04-.35-.16c-.27-.14-.58-.3-.98-.51-.85-.45-2.05-1.12-3.58-1.88-.75-.4-1.59-.81-2.49-1.23-.89-.44-1.87-.89-2.9-1.33-2.07-.88-4.38-1.8-6.9-2.41-2.51-.61-5.01-.75-7.18-.18-1.09.27-2.12.52-3.04.91-.92.37-1.74.81-2.45,1.26-1.43.91-2.44,1.86-3.09,2.55s-.96,1.12-.99,1.1c0,0,.06-.13.2-.33.14-.21.37-.51.68-.88.62-.72,1.6-1.73,3.04-2.68.72-.48,1.54-.93,2.48-1.33.93-.41,1.98-.68,3.09-.96,2.22-.61,4.81-.48,7.35.16,2.55.61,4.87,1.54,6.94,2.45,1.03.45,2.01.91,2.9,1.37.91.44,1.74.88,2.48,1.29,1.52.79,2.7,1.5,3.53,2,.38.23.68.41.93.57.21.13.33.21.31.23h.03Z"/>
        <path class="cls-9" d="M495.19,753.72s.25.04.69.2c.44.16,1.08.42,1.83.79,1.5.74,3.48,2.01,5.35,3.79,1.86,1.78,3.2,3.71,4.01,5.2.41.74.69,1.35.86,1.78s.25.68.23.69c-.07.03-.48-.92-1.35-2.34-.85-1.42-2.21-3.29-4.04-5.04s-3.75-3.03-5.2-3.82c-1.46-.81-2.42-1.18-2.39-1.25h0Z"/>
        <path class="cls-9" d="M470.43,719.51s.17.04.48.14c.34.13.79.28,1.35.48.59.23,1.3.48,2.12.78.82.31,1.73.76,2.73,1.2,4.02,1.83,9.39,4.9,14.57,9.28,2.55,2.22,4.86,4.47,6.8,6.68,1.93,2.21,3.55,4.29,4.81,6.1,1.27,1.81,2.25,3.31,2.9,4.36.31.5.57.89.76,1.2.17.27.25.42.25.44,0,0-.11-.13-.31-.38s-.48-.65-.84-1.16c-.71-1.02-1.71-2.49-3.02-4.28-1.29-1.78-2.95-3.84-4.87-6.03-1.94-2.18-4.23-4.42-6.78-6.63-5.14-4.35-10.45-7.45-14.43-9.33-1.01-.47-1.88-.93-2.7-1.26-.81-.33-1.5-.61-2.08-.84-.54-.23-.98-.41-1.32-.55-.3-.13-.45-.2-.45-.21h.01Z"/>
        <path class="cls-9" d="M524.69,726.14s-.33-.01-.89-.11l-1.03-.18c-.4-.07-.86-.08-1.37-.13-2.01-.14-4.94.01-7.69,1.52-1.39.71-2.55,1.64-3.5,2.59-.96.93-1.7,1.93-2.25,2.78-1.12,1.71-1.47,2.96-1.54,2.93-.03,0,.04-.33.23-.88.21-.54.52-1.33,1.08-2.21.52-.89,1.26-1.91,2.22-2.89.96-.99,2.15-1.97,3.57-2.69,2.83-1.54,5.86-1.67,7.9-1.44.51.07.99.1,1.39.2.38.1.72.18,1.02.25.57.14.86.24.86.27h.01Z"/>
        <path class="cls-9" d="M535.93,691.26s-.14.1-.42.25c-.33.17-.74.4-1.25.68-1.09.58-2.65,1.44-4.55,2.56-1.88,1.13-4.12,2.52-6.49,4.22-2.36,1.7-4.9,3.67-7.24,6.06-1.16,1.2-2.22,2.46-2.96,3.84-.74,1.4-1.43,2.76-2.08,4.08-1.29,2.61-2.35,5.01-3.12,7.08s-1.23,3.78-1.52,4.98c-.28,1.2-.4,1.87-.42,1.87,0,0,0-.17.04-.5s.11-.79.23-1.4c.24-1.22.67-2.96,1.4-5.04.74-2.1,1.77-4.52,3.04-7.14.64-1.32,1.33-2.68,2.07-4.09.76-1.43,1.86-2.7,3.02-3.94,2.36-2.42,4.93-4.4,7.31-6.09,2.39-1.69,4.64-3.06,6.56-4.16,1.93-1.09,3.51-1.91,4.62-2.46.52-.25.95-.45,1.29-.61.3-.14.45-.2.45-.18h.01Z"/>
        <path class="cls-9" d="M504.57,725.13s-.1-.33-.23-.95c-.13-.69-.3-1.56-.5-2.59-.42-2.18-1.08-5.18-2.11-8.4-1.03-3.23-2.28-6.03-3.2-8.04-.44-.95-.79-1.76-1.09-2.39-.25-.57-.38-.89-.35-.91.03,0,.2.28.5.84.3.55.71,1.35,1.2,2.34.98,2,2.28,4.8,3.31,8.04,1.05,3.24,1.66,6.27,2.01,8.47.17,1.1.3,2,.37,2.61.07.62.1.96.07.96v.03Z"/>
        <path class="cls-5" d="M503.76,699.69c-.28-4.23-1.66-8.34-3.64-12.08-5.44-10.27-15.63-17.88-27.03-20.15,8.34,12.43,16.68,24.87,25.02,37.3l3.23,6.66c2.21-3.61,2.69-7.49,2.41-11.71h.01Z"/>
      </g>
      <g>
        <rect class="cls-7" x="481.46" y="773.18" width="58.19" height="10.31"/>
        <polygon class="cls-7" points="485.8 781.45 490.76 813.44 529.39 813.44 535.29 781.45 485.8 781.45"/>
        <path class="cls-9" d="M539.61,783.5c0,.11-13.13.2-29.31.2s-29.31-.08-29.31-.2,13.13-.2,29.31-.2,29.31.08,29.31.2Z"/>
      </g>
    </g>
  </g>
  <g id="freepik--Speech_Bubble--inject-2" data-name="freepik--Speech Bubble--inject-2">
    <g>
      <g>
        <path class="cls-12" d="M260.74,468.83l-9.39-1.63c-4.02,3.65-9.09,6.27-14.83,7.35-16.51,3.09-32.38-7.79-35.47-24.3-3.09-16.51,7.79-32.38,24.3-35.47,16.51-3.09,32.38,7.79,35.47,24.3,1.29,6.9.14,13.66-2.83,19.46h0l2.75,10.29h0Z"/>
        <path class="cls-9" d="M260.74,468.83s-.08-.24-.21-.69c-.14-.48-.33-1.13-.57-1.98-.5-1.76-1.2-4.3-2.12-7.6l.25.06h0l-.75.85.51-1.01c1.77-3.54,3.44-8.54,3.26-14.59-.07-3-.67-6.23-1.86-9.46-1.18-3.23-2.97-6.46-5.48-9.35-4.93-5.81-12.87-10.15-21.81-10.45-8.86-.4-18.47,3.64-24.51,11.31-3.06,3.91-5.23,8.45-6.05,13.17-.88,4.7-.61,9.47.61,13.82,1.2,4.38,3.46,8.27,6.22,11.46,2.78,3.19,6.1,5.66,9.59,7.36,7.01,3.4,14.43,3.7,20.26,2.24,5.9-1.42,10.28-4.3,13.17-6.9l.06-.04h.07c3,.58,5.31,1.01,6.92,1.3.76.14,1.37.27,1.81.35.41.08.64.13.64.13,0,0-.18-.01-.58-.08l-1.78-.28c-1.64-.27-4.01-.65-7.05-1.13l.13-.03c-2.87,2.65-7.28,5.64-13.25,7.11-5.9,1.52-13.47,1.27-20.62-2.17-3.55-1.71-6.97-4.22-9.8-7.46-2.83-3.24-5.13-7.22-6.37-11.7-1.26-4.45-1.54-9.33-.65-14.13.84-4.81,3.04-9.47,6.17-13.47,6.19-7.86,16.02-11.97,25.08-11.54,4.53.17,8.88,1.35,12.66,3.26,3.79,1.9,7.02,4.52,9.56,7.48,2.53,2.96,4.36,6.26,5.54,9.54,1.19,3.29,1.77,6.57,1.81,9.63.14,6.13-1.6,11.19-3.44,14.74l-.24-.17h0l.18-.21.07.27c.85,3.37,1.52,5.96,1.97,7.75l.48,1.95c.11.44.16.65.14.64v.03Z"/>
      </g>
      <g>
        <path class="cls-7" d="M234.67,432.27l-1.36,15.56c-.11,1.27-1.15,2.27-2.44,2.31h0c-1.35.04-2.49-.96-2.61-2.31l-1.36-15.7c-.1-1.19.86-2.19,2.05-2.15l3.79.14c1.13.04,2,1.02,1.9,2.15h.01Z"/>
        <path class="cls-7" d="M227.33,458.83c.61,2.01,2.75,3.14,4.76,2.52,2.01-.61,3.14-2.75,2.52-4.76-.61-2.01-2.75-3.14-4.76-2.52-2.01.61-3.14,2.75-2.52,4.76Z"/>
      </g>
    </g>
  </g>
  <g id="freepik--Character_2--inject-2" data-name="freepik--Character 2--inject-2">
    <g>
      <g>
        <path class="cls-10" d="M449.34,448.31c.4.89,8.38,13.51,15.19,16.85,6.81,3.34,16.28,9.28,20.72,18.48,4.43,9.19,7.09,16.62,10.95,16.17,3.85-.44.45,31.32-6.87,31.44-7.32.11-21.33-4.83-29.03-10.25s-13.49-9.53-18.2-15.17c-4.7-5.64-2.36-9.54-2.36-9.54,0,0-5.31-4.42-4.64-8.86s.67-4.49.67-4.49v.04c-2.92-2.61-5.44-6.85.74-10.51,0,0-8.94-4.9-6.74-9.35,2.18-4.45,8.38-2.86,8.38-2.86l5.73-4.04s-2.04-2.31.04-6.75,5.42-1.15,5.42-1.15h0Z"/>
        <polygon class="cls-4" points="501.25 497.77 494.65 493.58 476.66 536.26 484.49 540.51 501.25 497.77"/>
        <path class="cls-2" d="M478.41,513.35s-.45-.06-1.22-.35c-.76-.28-1.84-.82-3.04-1.67-2.44-1.66-5.24-4.77-7.14-8.84-1.9-4.08-2.7-8.06-3.23-10.9-.5-2.86-.69-4.64-.59-4.66.11-.01.48,1.74,1.1,4.56.65,2.8,1.54,6.73,3.38,10.69,1.84,3.96,4.49,7.02,6.78,8.74,2.28,1.74,4.01,2.31,3.95,2.44h0Z"/>
      </g>
      <g>
        <path class="cls-9" d="M830.16,681.12l-8.45-62.89-180.4,14.5s-7.96,30.8-5.07,68.32c.37,4.74,5.95,52.56,13.16,112.45h88.15l-3.64-73.78,5.42,1.18s7.7,34.41,15.93,72.22l89.17.38-14.25-132.39h-.01Z"/>
        <path class="cls-5" d="M744.32,701.22c.04.08-.93.65-2.76,1.56-1.84.86-4.53,2.18-8.2,2.86-1.83.34-3.91.42-6.09.04-2.17-.38-4.49-1.3-6.37-3.06s-3.09-4.21-3.87-6.75c-.78-2.56-1.23-5.24-1.77-7.96-2.11-10.89-3.54-20.84-4.38-28.07-.42-3.61-.69-6.54-.85-8.57-.14-2.02-.18-3.16-.08-3.16s.31,1.09.62,3.1c.35,2.29.78,5.14,1.29,8.5,1.08,7.17,2.66,17.06,4.76,27.92,1.06,5.37,1.8,10.83,5.15,14.05,3.36,3.14,8.01,3.47,11.43,2.97,3.51-.52,6.24-1.69,8.13-2.39,1.88-.75,2.93-1.15,2.97-1.06h.01Z"/>
        <path class="cls-5" d="M724.41,650.01s.42-.34,1.36-.4c.92-.07,2.32.21,3.7,1.19,1.32.98,2.73,2.72,2.79,5.11.11,2.42-1.77,4.8-4.23,5.68-2.44.95-5.42.4-6.92-1.49-1.53-1.84-1.61-4.08-1.26-5.68.4-1.64,1.26-2.78,2.01-3.33.74-.57,1.26-.65,1.29-.59.18.18-1.86,1.1-2.32,4.11-.2,1.42.03,3.29,1.26,4.64,1.18,1.39,3.46,1.8,5.47,1.03,2.02-.75,3.47-2.55,3.44-4.38.03-1.83-1.02-3.4-2.11-4.32-2.32-1.95-4.46-1.32-4.45-1.57h-.01Z"/>
      </g>
      <g>
        <g>
          <path class="cls-10" d="M724,360.32l-19.16-112.65c-3.85-28.18-23.46-49.42-51.52-44.79l-2.56.58c-25.84,5.83-42.89,30.53-39.15,56.76,3.47,24.4,7.63,51.32,10.69,64.15,6.33,26.55,33.9,24.68,33.9,24.68.06,0,3.14,16.28,4.57,24.17l-2.95,19.56,21.08-9.4,45.1-23.04h-.01Z"/>
          <path class="cls-2" d="M656.18,349.03s17.01-2.8,32.34-18.07c0,0-3.82,21.89-30.93,25.49l-1.42-7.42Z"/>
          <path class="cls-9" d="M624.93,282.66c.38,2.02,2.41,3.37,4.53,3,2.11-.35,3.53-2.29,3.14-4.32s-2.41-3.37-4.53-3.02-3.53,2.29-3.14,4.32h0Z"/>
          <path class="cls-9" d="M619.92,270.68c.58.38,2.99-2.39,7.08-3.3,4.08-.98,7.55.45,7.89-.14.17-.27-.51-1.06-2.04-1.71-1.5-.65-3.91-1.09-6.44-.5-2.55.59-4.47,2.01-5.49,3.24-1.03,1.25-1.26,2.24-.98,2.41h-.01Z"/>
          <path class="cls-9" d="M660.25,277.01c.59.37,2.89-2.51,6.94-3.57,4.04-1.12,7.56.17,7.87-.45.16-.28-.55-1.03-2.1-1.63-1.53-.59-3.94-.93-6.46-.25-2.52.69-4.39,2.18-5.37,3.46-.99,1.29-1.18,2.29-.89,2.45h0Z"/>
          <path class="cls-9" d="M652.64,297.33c-.03-.24-2.68-.1-6.91.3-1.08.13-2.11.14-2.44-.52-.41-.69-.23-1.93,0-3.26.41-2.75.84-5.64,1.29-8.65,1.74-12.29,2.73-22.3,2.24-22.37s-2.31,9.84-4.04,22.13c-.4,3.03-.79,5.9-1.15,8.67-.13,1.27-.5,2.78.38,4.22.45.72,1.35,1.1,2.07,1.13.72.06,1.3-.07,1.83-.16,4.19-.71,6.77-1.27,6.74-1.52v.03Z"/>
          <path class="cls-9" d="M656.3,267.52c.82.89,4.47-1.2,9.26-2.52,4.74-1.43,8.96-1.6,9.18-2.8.08-.57-.96-1.29-2.87-1.7-1.88-.41-4.63-.41-7.49.41-2.85.82-5.17,2.29-6.56,3.65s-1.9,2.53-1.52,2.97h0Z"/>
          <path class="cls-9" d="M616.8,258.5c1.05.75,4.19-.92,8.2-1.81,3.98-1.01,7.55-.93,8.13-2.07.24-.54-.48-1.36-2.17-1.94-1.64-.57-4.25-.78-7-.13-2.75.65-4.96,2-6.16,3.24-1.22,1.26-1.49,2.31-1.01,2.69h0Z"/>
          <path class="cls-10" d="M707.12,267.86c.41-.3,17.06-9.53,20.59,8.79,3.53,18.32-15.6,18.08-15.73,17.57-.13-.52-4.86-26.37-4.86-26.37Z"/>
          <path class="cls-2" d="M716.24,286.2c.07-.07.37.16.95.31.57.14,1.52.13,2.39-.41,1.8-1.08,2.83-4.47,2.29-7.79-.27-1.67-.93-3.2-1.77-4.4-.82-1.23-1.87-2-2.87-1.98-1.02-.04-1.59.68-1.71,1.23-.14.57.04.91-.06.95-.04.06-.45-.23-.45-1.02,0-.38.14-.85.5-1.29.37-.44.98-.75,1.67-.81,1.43-.17,2.96.88,3.88,2.19,1.01,1.32,1.78,3.02,2.1,4.9.59,3.71-.64,7.53-3.13,8.81-1.23.58-2.38.4-3.02.07-.65-.34-.84-.74-.78-.78h.01Z"/>
        </g>
        <g>
          <path class="cls-9" d="M721.93,224.5c1.98-.76,3.81-1.95,5.28-3.5.55-.58,1.09-1.36.85-2.12-.24-.78-1.12-1.1-1.88-1.37-4.33-1.52-8.23-4.13-11.36-7.46-.18-.38-.37-.76-.55-1.13-3.5-6.83-8.99-13.54-16.57-14.68l-.14.1c-6.87-1.32-14.73.17-19.1,5.61-3.16-9.3-13-15.24-22.8-15.87-9.8-.64-24.48,3.74-32.72,9.08-5.62,3.64-10.63,9.53-16.2,17.71h0c-.74,1.09-1.49,2.21-2.25,3.38-.07.1-.11.2-.18.3-1.74,1.63-4.09,2.66-6.57,3.41-3.99,1.2-6.77.38-10.08-2.14-1.01-.76-2.28-1.73-3.4-1.13-.71.38-.99,1.25-1.09,2.02-.58,4.22,2,8.41,5.54,10.79,1.71,1.15,3.61,1.94,5.61,2.51-4.67,3.64-10.15,6.24-15.94,7.48-2.32.5-4.77.79-6.64,2.45-.85.75-1.46,1.8-1.54,2.93-.18,2.49,2.02,3.91,4.12,4.62,3.2,1.08,6.71,1.15,9.97.25-1.44.99-2.38,2.8-2.19,4.57.28,2.59,2.66,4.7,5.27,4.98,2.59.28,5.23-1.1,6.75-3.23-.75.81-1.36,1.74-1.84,2.73-2.36,5.03,4.73,9.37,8.11,4.97.01-.03.04-.06.06-.08,1.1,1.26,2.02,2.58,2.96,3.88v.03l.2.24c.59.81,1.19,1.63,1.88,2.41v-.06l9.37,13.85c-1.08-7.62-3.33-20.91-3.85-29.21,11.55-2.76,19.5-9.11,25.63-19.27,3.23-5.37,5.48-9.03,10.46-12.83,6.36-4.84,26.65-.68,34.82.52,1.29,14.91,5.75,29.54,13.06,42.61,1.12,2.01,5.89,9.35,8.16,9.74,4.43.79,2.14-4.59,5.1-6.26,2.29-1.29,3.58-.99,8.43-2.02.85-4.93-.45-17.67-.25-24.74,2.63.27,5.34-.04,7.82-.99-1.16-1.74-2.32-3.48-3.48-5.23,1.16.45,2.35.91,3.6.85,1.23-.06,2.53-.78,2.86-1.97.42-1.54-.84-2.99-1.91-4.19-1.25-1.42-2.34-2.93-3.33-4.53h0Z"/>
          <path class="cls-5" d="M670.6,204.64c-.04.08,1.26.5,3.17,1.94,1.88,1.44,4.22,4.13,5.85,8.1.82,1.97,1.53,4.21,2.01,6.68.5,2.46.81,5.15,1.16,7.97.37,2.82.74,5.81,1.5,8.84.38,1.52.88,3.03,1.5,4.52.64,1.46,1.36,3.04,2.76,4.13,1.13.89,2.76,1.06,4.04.54,1.29-.5,2.35-1.44,3.03-2.59,1.33-2.35,1.27-4.98,1.26-7.32l-.55.18c1.32,1.84,2.65,3.65,4.35,4.98,1.69,1.35,3.79,2.02,5.76,1.83.98-.1,1.93-.44,2.68-1.02.76-.58,1.25-1.4,1.52-2.21.25-.84.3-1.7.11-2.49-.2-.79-.65-1.49-1.26-1.91l-.24.31c2.52,1.95,4.96,2.79,6.6,3.2.84.2,1.49.3,1.93.35.44.04.67.06.67.03,0-.01-.23-.06-.65-.14-.42-.08-1.08-.21-1.88-.44-1.61-.47-3.98-1.35-6.41-3.3l-.24.31c1.09.78,1.47,2.45.95,3.95-.27.74-.71,1.47-1.37,1.97-.67.51-1.53.81-2.42.89-1.81.17-3.78-.48-5.37-1.76-1.61-1.27-2.9-3.03-4.21-4.89l-.55-.78v.96c0,2.34.03,4.87-1.19,7-.61,1.02-1.59,1.88-2.72,2.31-1.13.45-2.45.31-3.43-.45-1.23-.93-1.94-2.44-2.56-3.87-.62-1.46-1.1-2.95-1.49-4.43-.76-2.97-1.15-5.93-1.53-8.75-.37-2.82-.71-5.51-1.22-8-.51-2.49-1.26-4.76-2.11-6.75-1.7-4.01-4.15-6.73-6.12-8.13-1.98-1.42-3.31-1.74-3.31-1.74v-.03Z"/>
          <path class="cls-5" d="M592.72,246.85s.08.06.25.14c.21.1.45.21.76.35.34.16.76.34,1.27.51s1.1.4,1.8.54c2.72.69,6.94,1.1,11.88-.17,4.89-1.25,10.49-4.15,15.02-9.12,4.62-4.9,8.21-11.48,10.79-18.73,1.32-3.63,2.27-7.26,3.41-10.68s2.51-6.63,4.4-9.33c1.86-2.7,4.21-4.89,6.81-6.19,1.29-.68,2.66-1.03,3.98-1.26,1.33-.18,2.65-.17,3.87,0,2.46.33,4.57,1.25,6.24,2.28,1.67,1.05,2.9,2.27,3.79,3.34,1.7,2.22,2.07,3.79,2.17,3.75,0,0-.01-.1-.07-.28-.07-.21-.17-.48-.28-.79-.27-.69-.78-1.67-1.6-2.83-.88-1.12-2.1-2.38-3.79-3.48-1.69-1.09-3.84-2.05-6.37-2.42-1.26-.17-2.61-.21-4.01-.03-1.37.21-2.8.59-4.15,1.27-2.7,1.33-5.14,3.57-7.07,6.33-1.95,2.75-3.36,6.03-4.52,9.46-1.18,3.44-2.11,7.07-3.43,10.66-2.56,7.19-6.1,13.71-10.62,18.54-4.45,4.93-9.9,7.8-14.71,9.09-4.84,1.3-9.01.98-11.71.37-2.73-.64-4.12-1.39-4.15-1.3h.01Z"/>
          <path class="cls-5" d="M587.97,235.55s.37.21,1.09.48c.71.28,1.78.59,3.13.89,1.35.31,2.97.51,4.8.61,1.83.06,3.84-.03,5.92-.35,2.08-.35,4.02-.89,5.72-1.53,1.7-.65,3.19-1.37,4.36-2.08,1.19-.71,2.1-1.33,2.69-1.83.59-.48.91-.76.88-.81-.07-.1-1.4.95-3.79,2.24-1.19.65-2.66,1.32-4.35,1.93-1.69.58-3.6,1.1-5.62,1.44-2.04.31-4.01.42-5.79.4-1.78-.06-3.4-.21-4.73-.45-2.68-.47-4.26-1.05-4.3-.93h0Z"/>
        </g>
        <path class="cls-9" d="M666.26,304.45c.08.37-3.12,1.69-6.9,3.79-3.81,2.05-6.78,3.89-7.04,3.58-.25-.33,2.42-2.78,6.33-4.89,3.87-2.17,7.51-2.95,7.59-2.51h.01Z"/>
      </g>
      <g>
        <path class="cls-9" d="M624.76,381.87l-20.08,7.65s-3.71,13.18-3.71,22.9c0,6-33.5,101.67-33.5,101.67l-68.28-17.69-18.55,48.73c3.81,1.73,83.35,34.4,109.09,35.76,26.9,1.42,45.85-77.92,45.85-77.92l-10.83-121.09h.01Z"/>
        <path class="cls-5" d="M578.92,549.25c-.11,0-.41-2.1-1.05-5.48-.64-3.38-1.67-8.01-3.23-13.01s-3.33-9.42-4.73-12.56c-1.39-3.14-2.35-5.06-2.24-5.11.04-.03.33.42.82,1.26.48.84,1.15,2.07,1.9,3.63,1.52,3.1,3.38,7.52,4.96,12.56,1.56,5.04,2.53,9.73,3.03,13.16.25,1.71.42,3.1.5,4.06.07.96.1,1.5.04,1.5h0Z"/>
      </g>
      <g>
        <g>
          <path class="cls-4" d="M745.8,471.87c-.82-6.64,1.46-55.62,1.32-56.44-.14-.82-21.79-68.59-21.79-68.59l-5.86-21.38-43.93,37.41s-21.1-12.8-20.75-13.72l-2.02,13.11-3.64,2.04,3.44,56.26,7.72,216.92s14.53,10.49,45.71,9.87c38.88-.78,90.41-29.65,90.41-29.65,0,0-49.8-139.2-50.62-145.84h.01Z"/>
          <polygon class="cls-7" points="666.48 383.1 674.04 391.05 683.14 389.52 686.53 379.76 679.26 369.32 672.11 370.92 666.48 383.1"/>
          <path class="cls-9" d="M722.86,354.96s-.61.78-1.87,2c-1.49,1.39-3.3,3.09-5.42,5.08-4.62,4.25-11.06,10.07-18.22,16.41-2.34,2.07-4.62,4.06-6.74,5.95l-.47.41-.4-.45c-4.96-5.66-8.21-11.24-10.62-15.14-1.18-1.95-2.1-3.54-2.7-4.63s-.92-1.7-.86-1.74c.13-.08,1.7,2.14,4.23,5.95,2.58,3.75,5.98,9.26,10.88,14.73l-.86-.04c2.12-1.88,4.38-3.89,6.71-5.98,7.17-6.36,13.69-12.06,18.47-16.14,2.24-1.88,4.13-3.47,5.69-4.79,1.36-1.1,2.14-1.69,2.21-1.63h-.01Z"/>
          <path class="cls-9" d="M654.51,375.74c.1-.1,1.29.93,3.19,2.75,1.91,1.83,4.53,4.43,7.53,7.49l-.99.14c.76-1.54,1.54-3.23,2.34-4.98,2.31-5.11,4.36-9.77,5.99-13.08,1.61-3.31,2.8-5.28,2.96-5.2s-.74,2.17-2.14,5.57c-1.42,3.4-3.33,8.1-5.65,13.24-.81,1.76-1.6,3.46-2.41,5.01l-.4.76-.59-.62c-2.95-3.12-5.47-5.83-7.21-7.8-1.76-1.97-2.73-3.19-2.63-3.29h.01Z"/>
          <polygon class="cls-7" points="674.04 391.05 674.04 603.73 699.81 629.68 718.76 601.37 683.14 389.52 674.04 391.05"/>
        </g>
        <g>
          <path class="cls-1" d="M758.27,584.63l31.59,115.18c1.57,5.75,8.11,8.52,13.35,5.65l27.88-15.32"/>
          <path class="cls-9" d="M805.16,537.29l11.14-186.95-69.95-10.45s-23.22-11.64-25.15-12.67l3.13,20.05s7.89,102.2,13.85,143.18c5.96,40.97,5.83,53.26,20.08,94.2,11.55,33.21,32.46,89.08,39.95,108.99,1.47,3.91,6,5.65,9.71,3.75l56.78-29.17-59.54-130.91h0Z"/>
          <path class="cls-5" d="M749.34,531.16s-.1-.69-.17-2.01c-.06-1.32-.18-3.27-.2-5.79-.06-5.03,0-12.29.27-21.27.5-17.96,1.66-42.74,3.23-70.09,1.26-21.93,2.59-42.18,3.74-58.43l.25.48c-3.7-2.21-7.11-4.26-10.27-6.16l-.42-.25.3-.4c2.9-3.82,5.45-7.17,7.66-10.08v.38c-2.59-4.29-4.64-7.72-6.12-10.17-.65-1.12-1.16-2.01-1.57-2.7-.34-.62-.51-.95-.48-.96.03-.01.24.28.65.86.44.68,1.02,1.54,1.73,2.61,1.54,2.42,3.68,5.78,6.39,10l.13.2-.14.2c-2.17,2.96-4.66,6.34-7.51,10.21l-.13-.65c3.17,1.86,6.61,3.87,10.32,6.05l.27.16v.31c-.99,16.3-2.19,36.53-3.51,58.43-1.59,27.34-2.87,52.11-3.61,70.05-.38,8.96-.57,16.23-.67,21.24-.07,2.51,0,4.46-.04,5.78-.01,1.32-.04,2.01-.08,2.02h-.01Z"/>
        </g>
        <path class="cls-9" d="M652.54,700.46c5.38,1.97,10.99-2.29,10.54-8l-1.6-144.31-7.58-193.12-6.78,11.78-42.42,22.73s2.99,20.65,8.79,54.72c5.57,32.68,16.65,112.77,16.65,112.77l-8.6,131.98,31,11.47h0Z"/>
        <g>
          <path class="cls-5" d="M609.48,420.03s.04.11.1.34c.06.27.13.59.2,1.01.17.95.41,2.24.72,3.88.59,3.44,1.44,8.31,2.48,14.3,2.05,12.08,4.81,28.8,7.69,47.28,2.87,18.49,5.3,35.26,6.85,47.42.79,6.07,1.37,11,1.74,14.42.17,1.66.3,2.97.4,3.92.03.41.06.75.08,1.02.01.23.01.35,0,.35,0,0-.04-.11-.08-.34-.04-.27-.1-.61-.16-1.02-.13-.95-.31-2.27-.54-3.91-.47-3.46-1.15-8.35-1.97-14.39-1.7-12.14-4.21-28.89-7.07-47.38-2.92-18.45-5.55-35.15-7.48-47.31-.95-6-1.71-10.89-2.25-14.34-.24-1.64-.44-2.96-.58-3.91-.06-.41-.1-.75-.13-1.02-.03-.23-.03-.35-.01-.35v.03Z"/>
          <g class="cls-13">
            <path class="cls-3" d="M612.1,435.85c-5.79,27.13-.28,59.28,11.74,81.25-3.91-24.44-7.83-56.81-11.74-81.25h0Z"/>
          </g>
        </g>
        <path class="cls-5" d="M662.48,638.8s.06.37.11,1.06c.04.76.1,1.78.17,3.06.11,2.75.27,6.57.47,11.27.33,9.59.78,22.71,1.29,37.2.03.91.06,1.81.08,2.7,0,.92-.06,1.88-.35,2.76-.51,1.78-1.73,3.3-3.2,4.3-1.49,1.01-3.29,1.49-5,1.35-.86-.04-1.7-.28-2.48-.57-.75-.3-1.49-.59-2.22-.88-5.83-2.32-11.1-4.43-15.55-6.2-4.36-1.77-7.92-3.21-10.45-4.23-1.18-.5-2.11-.89-2.83-1.19-.64-.28-.98-.44-.96-.47,0-.03.35.08,1.02.33.72.27,1.69.62,2.87,1.06,2.56.98,6.15,2.35,10.54,4.02,4.46,1.73,9.74,3.78,15.6,6.05,1.49.54,2.93,1.32,4.5,1.37,1.57.13,3.2-.33,4.56-1.25,1.35-.92,2.44-2.29,2.9-3.92.54-1.59.24-3.4.23-5.23-.41-14.5-.79-27.61-1.06-37.2-.1-4.7-.18-8.54-.24-11.29,0-1.27-.01-2.29-.03-3.07,0-.71.01-1.08.04-1.08v.03Z"/>
      </g>
      <g>
        <g>
          <path class="cls-9" d="M805.29,430.55l73.04,33.89-52.41,76.23,41.56,29.96s51.37-64.42,68.68-99.99c3.84-7.9,6.56-33.49-9.83-46.33-8.81-6.91-24.57-16.3-53.27-36.19-17.29-11.99-52.79-31.37-52.79-31.37l-3.98-6.43-11,80.22h0Z"/>
          <path class="cls-5" d="M804.57,428.1s-.16-.24-.4-.72c-.27-.57-.61-1.27-1.02-2.15-.23-.48-.47-1.01-.72-1.56-.24-.58-.47-1.23-.72-1.91-.5-1.39-1.15-2.93-1.59-4.73-.25-.89-.51-1.83-.78-2.8s-.42-2.02-.65-3.09c-.5-2.12-.74-4.45-1.05-6.88-.44-4.89-.5-10.29.14-15.92.69-5.62,2.01-10.88,3.57-15.52.88-2.29,1.64-4.49,2.62-6.44.47-.98.88-1.95,1.36-2.85.5-.88.96-1.73,1.42-2.53.85-1.64,1.86-3,2.65-4.23.41-.61.78-1.19,1.15-1.7.38-.48.74-.93,1.08-1.35.61-.75,1.1-1.36,1.5-1.86.35-.41.54-.62.57-.61.01.01-.13.25-.44.71-.37.51-.82,1.15-1.39,1.93-.31.42-.65.88-1.01,1.39s-.69,1.1-1.09,1.71c-.76,1.25-1.73,2.61-2.53,4.26-.44.81-.89,1.66-1.36,2.55s-.85,1.86-1.3,2.85c-.95,1.94-1.7,4.13-2.53,6.41-1.52,4.62-2.79,9.81-3.48,15.39-.62,5.58-.59,10.93-.2,15.77.3,2.41.51,4.72.98,6.83.21,1.06.37,2.1.61,3.07.25.96.5,1.9.74,2.79.41,1.8,1.03,3.34,1.47,4.73.24.69.44,1.35.67,1.93.24.57.45,1.09.67,1.59.37.89.67,1.63.89,2.19.2.51.3.78.27.79l-.07-.04Z"/>
          <path class="cls-5" d="M909.3,453.82c-.03.14-1.93-.28-5.01-.35-1.54-.04-3.38.06-5.4.33-2.01.31-4.21.81-6.43,1.59-2.21.81-4.22,1.8-5.99,2.82-1.74,1.06-3.23,2.14-4.4,3.16-2.35,2.01-3.55,3.53-3.67,3.43-.04-.03.24-.42.78-1.12.27-.35.61-.76,1.05-1.2.44-.45.91-.99,1.5-1.5,1.15-1.08,2.63-2.22,4.39-3.34,1.77-1.08,3.82-2.12,6.09-2.93,2.27-.79,4.52-1.29,6.57-1.56,2.07-.24,3.95-.3,5.51-.18.78.01,1.49.14,2.11.21.62.07,1.15.17,1.57.28.85.2,1.32.33,1.3.38h.03Z"/>
          <polygon class="cls-4" points="822.75 549.51 853.82 579.25 863.05 567.43 828.26 542.15 822.75 549.51"/>
        </g>
        <g>
          <path class="cls-10" d="M754.09,550.12s21.54-8.07,24.91-7.28,21.72,9.25,25.46,9.05c3.74-.2,8.43,0,8.43,0,0,0-4.12-5.51-3.74-7.87.08-.52.35-.99.74-1.4,1.64-1.76,4.42-1.44,5.86.5,2.93,3.92,8.96,10.38,10.58,9.81l21.58,20.66s-5.81,11.97-16.67,12.16c-10.86.2-39.32-1.97-41.58-1.18-2.25.79-6.56,2.56-6.56,2.56,0,0-11.23,9.05-13.3,8.86-2.05-.2-4.3-.59-4.12-3.14.18-2.56,11.61-12.8,13.66-14.57s8.99-4.53,8.99-4.53l-13.86,2.56s-14.6,8.07-18.54,7.08c-3.94-.98-4.69-2.36-3.55-4.13s18.54-12.01,18.54-12.01l3.13-1.94s-18.31,9.23-22.13,9.03c-3.84-.2-5.52-2.17-4.21-4.33s18.17-12.01,19.65-13.38c1.5-1.37,5.64-2.17,5.64-2.17,0,0-5.25,2.17-13.11,1.77s-6.74-3.34-5.81-6.1h0Z"/>
          <path class="cls-2" d="M791.3,563.41c-.03.25-5.14-1.08-11.38.1-6.26,1.09-10.59,4.11-10.71,3.88-.04-.07.95-.91,2.8-1.91,1.84-1.01,4.59-2.11,7.76-2.69,3.19-.57,6.13-.5,8.21-.18,2.1.3,3.33.74,3.3.82h.01Z"/>
          <path class="cls-2" d="M788.44,552.64c-.03.25-5.01-1.32-11.16-.21-6.16,1.02-10.32,4.16-10.44,3.94-.04-.06.91-.93,2.7-1.97,1.78-1.03,4.47-2.15,7.62-2.7,3.13-.54,6.05-.38,8.07,0,2.04.37,3.23.88,3.2.95Z"/>
        </g>
      </g>
    </g>
    <g>
      <path class="cls-5" d="M499.17,547.91h0c-3.88,2.49-9.03,1.36-11.53-2.51l-72.4-112.76c-2.49-3.88-1.36-9.03,2.51-11.53h0c3.88-2.49,9.03-1.36,11.53,2.51l72.4,112.76c2.49,3.88,1.36,9.03-2.51,11.53h0Z"/>
      <g>
        <polygon class="cls-1" points="440.18 440.62 425.68 448.92 428.91 453.93 443.28 445.44 440.18 440.62"/>
        <g>
          <path class="cls-4" d="M400.49,360.54c23.85,43.43,34.96,82.91,24.89,88.45-10.07,5.54-37.51-24.99-61.36-68.42-23.85-43.43-35.02-83.11-24.95-88.64,10.07-5.52,37.55,25.19,61.41,68.62h0Z"/>
          <path class="cls-5" d="M415.62,352.56c-23.85-43.43-51.35-74.14-61.41-68.62l-20.09,10.71c10.07-5.52,37.55,25.19,61.41,68.62,23.85,43.43,35.02,83.11,24.95,88.64l17.66-10.11,4.3-2.46.07-.04-.03-.04c6.27-9.84-4.89-46.63-26.88-86.66v-.03Z"/>
          <path class="cls-9" d="M370.25,375.65c-18.62-33.91-29.45-65.45-28.55-80.32-3.07-1.44-5.66-1.76-7.6-.69-10.07,5.52,1.1,45.21,24.95,88.64s51.35,74.14,61.41,68.62c2.21-1.22,3.43-4.04,3.68-8.21-12.91-6.09-34.64-32.95-53.91-68.03h.01Z"/>
          <path class="cls-5" d="M389.37,401.31c-.2,0-.06-8.95.34-19.95.4-11.02.88-19.94,1.08-19.94s.06,8.94-.34,19.95-.88,19.94-1.08,19.92h0Z"/>
          <path class="cls-5" d="M377.97,380.25c-.1,0-.14-1.47-.13-3.85.01-2.38.1-5.65.23-9.28s.28-6.9.44-9.26.3-3.84.4-3.82c.1,0,.14,1.47.13,3.85-.01,2.38-.1,5.65-.23,9.28s-.28,6.9-.44,9.26-.3,3.84-.4,3.82Z"/>
          <path class="cls-5" d="M384.34,383.65c-.2-.01-.07-4.29.31-9.54.37-5.25.84-9.5,1.05-9.49.2.01.07,4.29-.31,9.54-.37,5.25-.84,9.5-1.03,9.49h-.01Z"/>
        </g>
        <g>
          <g>
            <path class="cls-10" d="M432.97,460.28c.1.35,20.67,4.94,22.88,8.62,2.28,3.79-.76,5.24-3.4,5.93-2.66.69-3.41.55-3.41.55,0,0,12.99,2.05,13.32,6.8s-5.11,5.11-5.11,5.11c0,0,4.66,1.97,4.77,6.15.11,4.16-3.89,4.59-3.89,4.59,0,0,4.89,1.64.82,5.47-4.06,3.82-14.08,1.69-14.08,1.69"/>
            <path class="cls-2" d="M444.88,505.15s.54.06,1.54.17,2.49.27,4.38.24c1.86-.04,4.25-.14,6.57-1.32,1.12-.58,2.21-1.57,2.78-2.83.25-.64.16-1.33-.27-1.88-.44-.55-1.12-.96-1.83-1.23-.16-.06-.24-.24-.18-.4.04-.11.13-.18.24-.2h0c1.01-.17,2.08-.65,2.75-1.5.69-.84.93-2.02.81-3.19-.21-2.36-2.24-4.35-4.53-5.42-.18-.08-.25-.3-.17-.48.06-.11.17-.2.28-.21,1.73-.18,3.68-.99,4.45-2.68.34-.79.45-1.87.18-2.68-.3-.85-1.03-1.54-1.84-2.11-1.66-1.12-3.57-1.83-5.44-2.41-1.88-.58-3.77-1.02-5.59-1.33l.13-.71c1.1.01,2.48-.33,3.65-.64,1.18-.34,2.35-.82,3.06-1.67.74-.84.58-2.04.1-3.03-.25-.52-.5-.95-.92-1.27-.41-.34-.86-.64-1.35-.91-1.9-1.06-3.85-1.78-5.66-2.45-1.81-.65-3.53-1.2-5.08-1.69-6.23-1.9-10.01-2.86-9.93-3.09,0,0,.93.25,2.66.68,1.73.44,4.26,1.06,7.39,1.97,1.57.45,3.29.98,5.13,1.6,1.84.64,3.81,1.35,5.79,2.44.5.27.98.58,1.44.96.48.37.84.96,1.09,1.49.24.57.48,1.16.48,1.83.01.67-.21,1.36-.64,1.9-.88,1.06-2.15,1.53-3.38,1.91-.62.18-1.25.33-1.9.47-.67.11-1.26.27-2.08.21-.2,0-.35-.18-.34-.38,0-.2.18-.34.38-.34h.07c1.87.33,3.78.76,5.69,1.35,1.91.59,3.87,1.3,5.64,2.51.86.61,1.73,1.37,2.12,2.46.23.55.18,1.12.17,1.64-.03.27-.08.54-.13.81-.07.25-.17.52-.25.78-.45,1.01-1.29,1.76-2.19,2.24-.92.48-1.87.75-2.87.85l.11-.68c1.27.59,2.38,1.4,3.29,2.42.89,1.01,1.53,2.27,1.64,3.6.14,1.29-.13,2.66-.98,3.67-.84,1.01-2,1.52-3.19,1.7l.07-.59c.82.33,1.56.76,2.1,1.46.55.69.67,1.7.33,2.45-.68,1.46-1.84,2.45-3.07,3.07-2.49,1.19-4.9,1.22-6.8,1.22-1.91-.03-3.4-.24-4.4-.41s-1.53-.33-1.52-.35h.03Z"/>
          </g>
          <path class="cls-2" d="M457.62,487.22c-.03.1-1.26-.13-3.23-.51-2.25-.44-4.86-.93-7.73-1.49-3.02-.57-5.76-1.09-7.73-1.5-1.97-.41-3.19-.72-3.17-.82s1.26.03,3.26.3c2,.28,4.76.72,7.77,1.29,3.03.57,5.75,1.19,7.7,1.7s3.14.92,3.12,1.02h.01Z"/>
          <path class="cls-2" d="M436.71,472.35c.03-.2,2.89.06,6.34.85,3.46.79,6.13,1.81,6.07,2-.06.2-2.82-.5-6.24-1.29-3.41-.79-6.2-1.36-6.17-1.57h0Z"/>
          <path class="cls-2" d="M440.63,496.13c0-.1.98-.18,2.56-.2s3.78.03,6.2.24c4.86.4,8.64,1.66,8.57,1.86-.06.2-3.85-.72-8.64-1.12-4.79-.41-8.71-.55-8.69-.78h0Z"/>
        </g>
      </g>
    </g>
  </g>
  <g id="freepik--Character_1--inject-2" data-name="freepik--Character 1--inject-2">
    <g>
      <g>
        <path class="cls-5" d="M380.08,684.69c.03-.3.06-.61.07-.91.25-5.81-2.1-11.37-4.38-16.72-6.09-14.34-11.98-29.58-10.27-45.06,2.27-20.48,17.32-37.41,22.7-57.22.64-2.34,2.78-3.94,5.2-3.94h0c3.64,0,6.27,3.53,5.15,6.97-5.99,18.52-19.64,34.76-21.79,54.19-1.71,15.49,4.18,30.71,10.27,45.06,2.27,5.35,4.63,10.92,4.38,16.72s-3.99,11.91-9.74,12.84h-85.57c-2.99,0-5.4-2.41-5.4-5.38v-1.16c0-2.97,2.42-5.38,5.4-5.38h83.99Z"/>
        <path class="cls-4" d="M397.29,812.98h-124.19c-1.74,0-3.34-.85-4.43-2.34-1.23-1.7-1.57-3.95-.91-6l35.34-108.33,1.84.61-35.34,108.33c-.48,1.46-.24,3.06.64,4.26.71.98,1.76,1.54,2.86,1.54h124.19c1.09,0,2.08-.52,2.8-1.47.86-1.15,1.15-2.69.75-4.13l-30.37-108.55,1.87-.52,30.37,108.55c.57,2.02.17,4.21-1.06,5.83-1.08,1.42-2.66,2.24-4.35,2.24h-.01Z"/>
      </g>
      <g>
        <g>
          <path class="cls-2" d="M223.11,616.37s4.52-10.99,8.99-13.31c4.46-2.32,10.15-3.81,10.15-3.81h19.9l.2,12.87s-2.87,2.87-6.81,2.34-13.76-2.97-13.76-2.97l-4.86.27-4.47,5.73s-3.63,1.1-2.35-2.34,1.84-4.94,1.84-4.94c0,0-4.29,6.68-5.95,7-1.64.31-2.89-.82-2.89-.82h.01Z"/>
          <path class="cls-10" d="M305.32,574.92l-15.83,22.77-27.34,1.56-.37,12.49,20.6,4.05c10.71,2.11,21.75-1.18,29.57-8.78h0l3.02-27.53-9.64-4.56h0Z"/>
        </g>
        <g>
          <path class="cls-9" d="M284.46,759.36l22.02,21.54s-15.9,30.7-12.25,35.09l45.98-43.26-32.85-35.03-22.9,21.67h0Z"/>
          <path class="cls-4" d="M318.91,765.65c1.1-.61,2.62-.24,3.21.79.59,1.05.16,2.59-.95,3.21-1.09.62-2.93.24-3.4-.86-.47-1.1.16-2.9,1.35-3.26"/>
          <path class="cls-5" d="M340.21,772.74l-3.46-3.4-42.78,42.75s-1.25,2.76.27,3.91l45.98-43.26h-.01Z"/>
          <path class="cls-12" d="M305.53,781.38c.21.2,1.42-.75,3.17-1.12,1.74-.4,3.19-.03,3.31-.3.17-.24-1.37-1.19-3.48-.72-2.11.45-3.23,1.98-3,2.12h0Z"/>
          <path class="cls-12" d="M302.48,787.81c.14.25,1.46-.3,3.07-.13,1.61.13,2.73.92,2.95.69.24-.17-.78-1.56-2.79-1.74-2.01-.2-3.41.95-3.23,1.16h0Z"/>
          <path class="cls-12" d="M304.9,795.82c.24-.14-.44-1.5-2.12-2.11-1.67-.62-3.16-.08-3.09.17.04.3,1.3.27,2.68.81,1.37.5,2.29,1.33,2.53,1.13Z"/>
          <path class="cls-12" d="M301.08,775.88c.28.1,1.03-1.16,2.38-2.27,1.33-1.13,2.69-1.67,2.63-1.95-.01-.27-1.73-.16-3.29,1.18-1.57,1.32-2,2.99-1.73,3.04h0Z"/>
        </g>
        <path class="cls-9" d="M295.2,635.51c-3.37,0-85.32,23.87-94.18,31.95-8.86,8.07-15.51,107.93-15.51,107.93l34.37,11.78s7.24-48.77,11.63-64.51c3.48-12.52,2.69-24.21,2.69-24.21l68.04-29.62-7.04-33.29h0Z"/>
        <g>
          <path class="cls-9" d="M297.27,640.78c-1.53.67-61.07,26.1-66.67,43.12-4.56,13.88.74,26.1,7.11,35.66,7.19,10.78,59.93,58.91,59.93,58.91l29.77-21.28-51.03-52.71s26.78-16.53,27.68-16.53,28.75-1.84,37.57-2.83c8.24-.93,12.74-12.74,12.74-12.74l7.35-33.87-55.23-12.74-9.25,15.02h.03Z"/>
          <path class="cls-5" d="M297.27,640.78s.18-.34.58-.99c.4-.65.98-1.61,1.76-2.89,1.56-2.55,3.85-6.3,6.84-11.2l.03-.06h.07c12.32,2.83,31.29,7.18,55.24,12.67l.17.04-.04.17c-2.19,10.18-4.67,21.62-7.32,33.87h0v.03c-1.26,3.03-2.96,5.95-5.25,8.5-1.15,1.26-2.49,2.39-4.04,3.21-.38.21-.76.42-1.19.55-.42.14-.82.35-1.26.4-.44.08-.88.18-1.3.24l-1.3.14c-6.97.69-14.17,1.2-21.59,1.74-3.71.25-7.46.51-11.27.76-.95.06-1.91.11-2.87.17h-.37c-.08,0-.07.04-.1.04s-.1.04-.14.06c-.2.08-.42.21-.62.31l-1.26.69c-1.67.95-3.34,1.94-5.03,2.95-6.71,4.01-13.52,8.18-20.45,12.46l.04-.38c12.7,13.13,26.1,26.95,39.85,41.15,3.75,3.88,7.49,7.73,11.19,11.55l.2.21-.24.17c-10.15,7.25-20.09,14.36-29.77,21.28l-.17.11-.14-.14c-10.66-9.77-20.89-19.33-30.6-28.62-4.86-4.64-9.59-9.22-14.12-13.76-4.55-4.55-8.95-9.01-12.93-13.65-.52-.57-.95-1.2-1.42-1.8-.47-.61-.93-1.2-1.33-1.86-.82-1.26-1.61-2.53-2.34-3.84-1.46-2.59-2.72-5.24-3.7-7.96-.98-2.72-1.7-5.48-2.05-8.26s-.35-5.54-.06-8.21c.3-2.69.91-5.27,1.86-7.7,1.05-2.41,2.7-4.4,4.39-6.22,3.47-3.57,7.28-6.46,10.99-9.05,7.45-5.14,14.56-9.12,20.83-12.48,6.29-3.36,11.77-6.03,16.26-8.16,4.49-2.12,8-3.7,10.38-4.74,1.19-.51,2.1-.91,2.7-1.18.61-.25.93-.38.93-.38,0,0-.31.16-.91.42-.61.27-1.52.68-2.69,1.22-2.36,1.08-5.86,2.66-10.34,4.83-4.47,2.15-9.94,4.86-16.21,8.23-6.26,3.38-13.35,7.38-20.77,12.52-3.7,2.58-7.48,5.47-10.9,9.02-1.67,1.8-3.3,3.78-4.3,6.12-.92,2.38-1.53,4.96-1.81,7.6-.3,2.65-.28,5.38.07,8.13s1.08,5.48,2.04,8.17c.98,2.69,2.22,5.32,3.68,7.89.72,1.29,1.5,2.56,2.32,3.81.38.64.85,1.23,1.32,1.83.47.59.89,1.22,1.4,1.77,3.96,4.62,8.37,9.08,12.91,13.61,4.55,4.53,9.28,9.11,14.13,13.75,9.71,9.28,19.95,18.83,30.61,28.59h-.31c9.67-6.94,19.61-14.05,29.77-21.3l-.03.38c-3.7-3.81-7.42-7.66-11.19-11.55-13.75-14.2-27.13-28.02-39.83-41.15l-.21-.23.25-.16c6.94-4.26,13.75-8.44,20.46-12.45,1.69-1.01,3.36-1.98,5.04-2.95l1.27-.71c.23-.11.42-.23.67-.33.07-.03.1-.06.18-.08s.2-.06.24-.06h.35c.96-.07,1.91-.13,2.86-.18,3.81-.25,7.56-.51,11.27-.76,7.41-.54,14.63-1.05,21.58-1.73,1.76-.11,3.41-.47,4.91-1.29,1.49-.79,2.8-1.88,3.92-3.12,2.24-2.48,3.94-5.38,5.17-8.35v.03c2.66-12.25,5.15-23.69,7.36-33.86l.13.21c-23.93-5.57-42.89-9.97-55.2-12.83l.1-.04c-3.03,4.89-5.35,8.64-6.92,11.17-.78,1.26-1.37,2.21-1.78,2.86-.4.64-.61.95-.61.95l-.04.03Z"/>
        </g>
        <g>
          <path class="cls-9" d="M192.39,759.84l-4.39,30.49s-34.17,5.28-35.56,10.82l62.05,11.58,8.89-47.2-31.01-5.71h.01Z"/>
          <path class="cls-4" d="M207.64,791.36c1.15.54,1.74,1.97,1.25,3.07-.5,1.09-2,1.66-3.16,1.13-1.15-.51-1.93-2.22-1.3-3.26.62-1.03,2.44-1.6,3.43-.84"/>
          <path class="cls-5" d="M214.49,812.74l.69-4.8-59.76-9.32s-2.97.62-3,2.52l62.05,11.58h.01Z"/>
          <path class="cls-12" d="M187.03,789.85c-.04.28,1.44.71,2.78,1.9,1.36,1.18,1.9,2.56,2.19,2.49.28,0,.16-1.8-1.47-3.23-1.61-1.44-3.51-1.44-3.48-1.16h-.01Z"/>
          <path class="cls-12" d="M180.07,791.18c-.11.27,1.1,1.01,1.91,2.41.85,1.39.86,2.75,1.18,2.79.27.1.79-1.54-.24-3.27-1.02-1.74-2.79-2.19-2.85-1.93h0Z"/>
          <path class="cls-12" d="M175.01,797.86c.27.11.95-1.25.45-2.96-.48-1.73-1.8-2.61-1.97-2.39-.21.2.55,1.22.93,2.63.41,1.4.28,2.63.58,2.72h0Z"/>
          <path class="cls-12" d="M188.85,783.02c.08.28,1.54.16,3.23.58,1.7.4,2.93,1.19,3.14.98.21-.17-.89-1.49-2.89-1.95-2-.5-3.58.16-3.48.41h0Z"/>
        </g>
        <g>
          <g>
            <path class="cls-9" d="M313.74,454.87c-1.71-1.69-4.55-2.1-6.67-.96-3.31-1.25-7.42.17-9.28,3.19-2.38-.54-5.01.25-6.68,2.02-1.69,1.76-2.35,4.43-1.7,6.77-2.44.38-4.52,2.44-4.93,4.87s.89,5.06,3.07,6.2c-2.25,1.63-2.99,5.06-1.59,7.46s4.73,3.48,7.26,2.32l21.54-25.23c1.12-2.12.68-4.97-1.03-6.66h0Z"/>
            <g>
              <g>
                <path class="cls-10" d="M292.68,487.78c-2.89-12.23,4.11-24.65,16.07-28.5l1.19-.38c13.07-3.38,23.25,5.81,26.27,18.96l11.46,44.41-.06.52-12.23,23.97-4.66-.67-10.03-8.4-3.14-9.83s-12.94,2.07-17.08-10.21c-2-5.93-5.11-18.48-7.8-29.86h.01Z"/>
                <path class="cls-2" d="M317.58,527.86s7.9-2.07,14.5-9.94c0,0-.98,10.22-13.51,13.08l-.99-3.14h0Z"/>
                <path class="cls-9" d="M303.05,497.89c.27.93,1.29,1.49,2.27,1.23.99-.25,1.57-1.23,1.3-2.17s-1.29-1.49-2.27-1.23c-.99.25-1.57,1.23-1.3,2.18h0Z"/>
                <path class="cls-9" d="M297.34,493.62c.3.16,1.3-1.26,3.2-1.87,1.88-.64,3.6-.11,3.72-.41.07-.14-.28-.48-1.03-.72-.74-.24-1.9-.34-3.07.04s-2.02,1.15-2.46,1.77c-.44.64-.5,1.12-.35,1.18h0Z"/>
                <path class="cls-9" d="M320.52,491.61c.27.93,1.29,1.49,2.27,1.23.99-.25,1.57-1.23,1.3-2.17s-1.29-1.49-2.27-1.23c-.99.25-1.57,1.23-1.3,2.18h0Z"/>
                <path class="cls-9" d="M315.38,487.51c.3.16,1.3-1.26,3.2-1.87,1.88-.64,3.58-.11,3.72-.41.07-.14-.28-.48-1.03-.72-.74-.24-1.9-.34-3.07.04s-2.02,1.15-2.46,1.77c-.44.64-.5,1.12-.35,1.18h0Z"/>
                <path class="cls-9" d="M313.67,503.56c-.03-.11-1.27.07-3.26.44-.5.11-.99.16-1.18-.14-.23-.31-.2-.91-.14-1.54.07-1.32.16-2.7.24-4.15.3-5.89.34-10.66.1-10.68-.24,0-.67,4.76-.96,10.63-.06,1.44-.11,2.83-.17,4.15,0,.61-.11,1.33.37,1.98.24.33.68.47,1.02.45.34,0,.61-.08.86-.16,1.95-.51,3.14-.89,3.12-1.01h0Z"/>
                <path class="cls-9" d="M311.89,480.03c.38.42,1.87-.55,3.87-1.16,1.98-.65,3.78-.72,3.82-1.29,0-.27-.47-.61-1.29-.79-.82-.2-2-.2-3.19.17-1.19.38-2.12,1.06-2.66,1.69-.54.64-.71,1.18-.54,1.37h-.01Z"/>
                <path class="cls-9" d="M295.66,487.76c.44.35,1.67-.41,3.27-.81,1.59-.45,3.03-.4,3.24-.93.08-.25-.23-.65-.92-.92-.68-.28-1.74-.38-2.83-.1-1.09.3-1.95.92-2.41,1.5-.47.58-.54,1.08-.34,1.26h-.01Z"/>
                <path class="cls-9" d="M292.05,481.74s.76-8.77,3.89-11.77c3.81-3.64,7.34.68,11.24-1.9,3.91-2.59,7.53-6.06,13-4.16,5.98,2.08,4.55,5.35,6.61,10.73,8.35,21.78,14.43,26.75,12.22,15.93-.24-1.19,2.63-3.12,1.54-8.1-1.42-6.47-3.63-14.16-6.47-18.15-2.39-3.37-5.37-5.27-10.12-6.88-7.51-2.55-15.85.03-21.31,2.42s-14.25,12.4-10.62,21.91v-.03Z"/>
                <path class="cls-10" d="M338.12,490.48c-.54-1.93.62-3.96,2.58-4.39,2.36-.52,5.35-.04,6.73,4.76,2.45,8.51-6.6,9.22-6.68,8.98-.06-.16-1.61-5.78-2.62-9.35Z"/>
                <path class="cls-2" d="M341.66,496.09s.18.06.47.1c.27.04.72,0,1.12-.3.81-.59,1.15-2.24.75-3.78-.2-.78-.58-1.47-1.02-2-.44-.55-.96-.86-1.44-.82-.48.03-.72.38-.76.67-.04.27.06.42.01.45-.01.03-.23-.08-.25-.47,0-.18.03-.41.18-.62.16-.23.44-.4.76-.45.67-.14,1.43.3,1.93.88.54.58.98,1.35,1.2,2.22.44,1.73.03,3.58-1.1,4.3-.55.33-1.1.3-1.42.17-.33-.14-.42-.31-.4-.34h-.03Z"/>
              </g>
              <path class="cls-9" d="M332.69,474.21c-.85,1.1-1.76,2.24-3.04,2.8-1.27.55-3.03.28-3.67-.95-.28-.55-.37-1.27-.89-1.61-.64-.4-1.43.06-2.11.35-2.36,1.05-5.44.13-6.83-2.05-.33,1.13-1.8,1.57-2.93,1.26-1.15-.3-2.07-1.1-3.09-1.71-1.02-.61-2.29-1.03-3.36-.51-.59.28-1.06.85-1.7.99-1.13.25-2.1-.86-2.62-1.91-.52-1.05-1.06-2.28-2.19-2.58-1.05-.27-2.07.41-3.04.89-.98.48-2.36.67-2.95-.24-.31-.48-.25-1.1-.11-1.66.65-2.49,3.21-4.33,5.78-4.15-.07-3.04,1.83-6.06,4.62-7.29s6.3-.62,8.51,1.47c1.26-2.19,3.63-3.71,6.15-3.92,2.52-.23,5.11.85,6.74,2.79,1.87-1.2,4.47-1.16,6.3.1,1.84,1.26,2.82,3.65,2.38,5.85,1.8.38,3.58,1.46,4.18,3.2.59,1.73-.54,4.02-2.38,4.11,1.12,1.13,1.16,3.16.08,4.35-1.08,1.19-3.09,1.35-4.33.34"/>
            </g>
            <path class="cls-5" d="M337.02,469.21s.38.65,0,1.78c-.2.54-.62,1.18-1.36,1.56-.72.37-1.71.48-2.63.07l.34-.17c-.18.86-.5,1.77-1.01,2.65-.33.55-.72,1.06-1.23,1.44-.48.4-1.1.62-1.64.71-1.1.23-2.22-.04-2.89-.61-.67-.54-1.02-1.13-1.25-1.53-.23-.41-.31-.65-.28-.67s.18.18.45.55c.27.35.67.89,1.29,1.35,1.19.95,3.99.72,5.1-1.52.47-.81.78-1.67.96-2.49l.07-.3.27.13c.75.35,1.61.28,2.24,0,.64-.3,1.05-.82,1.26-1.3.42-.99.2-1.67.28-1.67h.03Z"/>
            <path class="cls-5" d="M314.89,455.09s-.2.13-.52.41c-.31.28-.75.78-.95,1.53l-.04.2-.17-.11c-1.13-.81-2.89-1.73-5.14-1.98-1.12-.11-2.35-.04-3.55.34-1.2.38-2.35,1.13-3.24,2.17-.69.81-1.19,1.74-1.47,2.7-.27.96-.3,1.94-.11,2.85l.06.27h-.28c-1.37.07-2.59.74-3.37,1.57-.79.84-1.15,1.84-1.25,2.68-.2,1.7.37,2.65.28,2.66-.01,0-.17-.2-.33-.65s-.31-1.15-.24-2.04c.07-.88.41-1.97,1.25-2.9.82-.92,2.11-1.67,3.64-1.76l-.21.28c-.23-.96-.2-2.04.08-3.07.3-1.03.82-2.04,1.57-2.9.95-1.1,2.18-1.91,3.47-2.31,1.29-.41,2.59-.45,3.75-.31,2.35.3,4.13,1.33,5.25,2.21l-.21.07c.25-.84.76-1.32,1.12-1.57.37-.25.61-.31.62-.3v-.03Z"/>
            <path class="cls-2" d="M320.64,504.9c-.92-.44-2.34-.03-3.14.88-.82.89-.2,2.51.72,2.95s2.39-.13,3.02-1.13.33-2.25-.59-2.69Z"/>
            <path class="cls-9" d="M319.76,508.55c-.01-.11.45-.21.93-.69.5-.44.82-1.42.21-2.21-.55-.76-1.64-.57-2.27-.3-.67.27-1.09.51-1.15.41-.04-.07.24-.44.92-.88.34-.21.81-.42,1.37-.45.57-.06,1.3.2,1.71.78.42.55.54,1.25.38,1.83s-.52.99-.86,1.22c-.71.48-1.27.38-1.26.3Z"/>
          </g>
          <path class="cls-7" d="M318.23,538.67l.95-5.14,28.77-14.29,2.69,4.21s11.55,9.4,15.99,17.56c4.42,8.16-.82,74.99-1.56,84.75-1.49,19.65-8.84,45.38-8.84,45.38,0,0-9.91-6.9-39.05-18.86-29.16-11.97-30.71-17.39-30.71-17.39l17.18-21.78,14.6-74.43h-.01Z"/>
          <path class="cls-7" d="M318.17,538.98c-.17.96-15.93,37.17-15.93,37.17,0,0,7.25,4.05,8.27,4.25,1.01.2,7.66-41.42,7.66-41.42Z"/>
          <path class="cls-9" d="M314.96,547.16c.14.03-1.1,8.54-2.76,19.02-1.67,10.48-3.13,18.96-3.27,18.95-.14-.03,1.1-8.54,2.76-19.02,1.67-10.48,3.13-18.96,3.27-18.95Z"/>
        </g>
        <g>
          <g>
            <path class="cls-10" d="M220.25,613.9s6.57-11.97,11.47-14.12,11.05-3.33,11.05-3.33l20.69,2.79-.37,12.49s-3.26,2.87-7.38,2c-4.13-.88-14.36-4.21-14.36-4.21l-5.15-.08-5.15,5.81s-3.92.91-2.32-2.68c1.6-3.58,2.32-5.15,2.32-5.15,0,0-5.86,6.74-7.63,6.95s-3.14-.47-3.14-.47h-.01Z"/>
            <path class="cls-10" d="M326.73,565.06l-14.34,33.7-49.11.48-.37,12.49s47.35,16.88,59.97,13.61c12.62-3.29,33.53-48.36,33.53-48.36l-29.67-11.91h-.01Z"/>
            <g>
              <path class="cls-7" d="M338.34,536.63c-1.35,1.23-5.78,6.5-10.52,17.96s-11.38,24.84-11.38,24.84l33.86,13.64s7.72-17.96,11.3-25.94c2.73-6.07,4.63-18.04,2.15-23.83-2.49-5.79-13.62-17.47-25.42-6.67h.01Z"/>
              <path class="cls-9" d="M338.34,536.63s.1-.11.31-.3.52-.48.95-.84c.86-.69,2.21-1.69,4.18-2.49,1.95-.76,4.63-1.29,7.59-.57,2.96.67,6.03,2.51,8.68,5.24,1.32,1.37,2.56,2.96,3.54,4.83.95,1.9,1.36,4.09,1.47,6.33.21,4.5-.42,9.32-1.76,14.19-.65,2.45-1.76,4.81-2.8,7.22-1.05,2.41-2.12,4.87-3.21,7.38-2.18,5.01-4.45,10.21-6.75,15.53l-.1.23-.23-.08c-.16-.06-.33-.13-.5-.2-11.99-4.84-23.35-9.43-33.36-13.47l-.23-.08.11-.23c3.16-6.4,5.96-12.38,8.37-17.73,2.42-5.34,4.25-10.17,6.24-13.92,1.94-3.78,3.78-6.6,5.17-8.43.69-.91,1.27-1.57,1.67-2.01.41-.42.65-.61.65-.61,0,0-.04.06-.16.17-.11.13-.27.28-.45.5-.38.44-.95,1.12-1.61,2.04-1.35,1.84-3.14,4.67-5.04,8.47-1.95,3.77-3.74,8.6-6.15,13.95-2.38,5.37-5.15,11.36-8.3,17.77l-.11-.31c10.01,4.02,21.38,8.6,33.38,13.42l.5.2-.33.13c2.32-5.32,4.59-10.52,6.77-15.53,1.09-2.51,2.17-4.97,3.23-7.38,1.05-2.42,2.14-4.73,2.79-7.15,1.35-4.81,1.98-9.6,1.8-14.03-.1-2.21-.5-4.36-1.4-6.19-.93-1.81-2.15-3.4-3.44-4.76-2.59-2.7-5.61-4.53-8.48-5.23-2.89-.72-5.52-.25-7.46.48-1.95.78-3.3,1.73-4.18,2.39-.44.33-.76.62-.98.79-.23.18-.34.25-.34.25h-.03Z"/>
            </g>
            <path class="cls-2" d="M240.3,602.77c0,.16-2.55-.07-5.24,1.35-2.72,1.36-4.05,3.57-4.18,3.47-.04-.03.2-.62.85-1.42.64-.81,1.7-1.78,3.1-2.49s2.82-1.01,3.82-1.05c1.02-.04,1.64.1,1.63.16h.01Z"/>
          </g>
          <path class="cls-2" d="M319.5,580.87s-.03.13-.11.35c-.1.25-.23.58-.38.98-.37.91-.88,2.14-1.52,3.68-1.36,3.2-3.24,7.67-5.48,12.97l-.06.14h-.16c-4.52.06-9.64.11-15.08.17-9.52.07-18.14.13-24.44.17h-7.41c-.84,0-1.5-.01-2.01-.03-.47,0-.71-.03-.71-.04s.24-.04.71-.06c.51-.01,1.18-.04,2.01-.07,1.81-.04,4.32-.08,7.41-.16,6.3-.08,14.93-.18,24.44-.31,5.42-.04,10.56-.08,15.08-.13l-.21.14c2.31-5.27,4.25-9.71,5.65-12.9.68-1.53,1.23-2.75,1.63-3.64.18-.38.33-.71.45-.95.1-.21.17-.33.18-.33h0Z"/>
        </g>
      </g>
      <g>
        <rect class="cls-4" x="185.09" y="620.9" width="63.82" height="3.02"/>
        <g>
          <rect class="cls-5" x="79.24" y="625.75" width="9.56" height="186.99"/>
          <rect class="cls-5" x="278.38" y="627.07" width="9.56" height="185.69"/>
          <rect class="cls-5" x="66.16" y="623.91" width="231.24" height="11.29"/>
        </g>
        <g>
          <path class="cls-4" d="M167.46,457.33l-8.75,1.44s-9.54,34.79-2.49,84.14c6.63,46.4,19.27,63.93,19.27,63.93l9.16-2.21-17.19-147.31h0Z"/>
          <path class="cls-4" d="M162.29,537.87l-2.14-7.94c-.5.21-10.99,2.83-13.34,9.13s0,77.87,0,77.87l.27,6.97h7.28s-2.46-77.33-.81-80.71c2.19-4.47,4.04-5.03,8.75-5.32h-.01Z"/>
          <rect class="cls-4" x="147.03" y="619.67" width="34.15" height="4.25"/>
          <path class="cls-5" d="M175.51,606.85c-.17.01-4.06-33.12-8.69-74-4.63-40.9-8.26-74.06-8.09-74.07s4.06,33.11,8.69,74c4.63,40.88,8.26,74.06,8.09,74.07Z"/>
        </g>
        <g>
          <rect class="cls-7" x="76.98" y="615.35" width="61.74" height="8.57"/>
          <rect class="cls-6" x="76.98" y="616.42" width="60.73" height="6.39"/>
          <g class="cls-13">
            <rect class="cls-3" x="126.72" y="615.35" width="11.99" height="8.57"/>
          </g>
          <path class="cls-9" d="M137.71,617.81h-2.39c-1.54,0-3.77,0-6.51.01h-42.99c-2.75,0-4.97,0-6.51-.01h-2.39,2.39c1.54,0,3.77,0,6.51-.01h42.99c2.75,0,4.97,0,6.51.01h2.39Z"/>
          <path class="cls-9" d="M137.71,619.52h-2.39c-1.54,0-3.77,0-6.51.01h-42.99c-2.75,0-4.97,0-6.51-.01h-2.39,2.39c1.54,0,3.77,0,6.51-.01h42.99c2.75,0,4.97,0,6.51.01h2.39Z"/>
          <path class="cls-9" d="M126.75,623.77s-.04-1.87-.04-4.16.01-4.16.04-4.16.04,1.87.04,4.16-.01,4.16-.04,4.16Z"/>
          <g>
            <rect class="cls-5" x="87.19" y="607.42" width="42.69" height="7.93"/>
            <rect class="cls-5" x="121.98" y="607.47" width="11.63" height="7.83"/>
            <rect class="cls-6" x="123.07" y="608.54" width="10.52" height="5.62"/>
            <g class="cls-13">
              <rect class="cls-3" x="121.98" y="607.47" width="11.63" height="7.83"/>
            </g>
            <path class="cls-9" d="M118.85,613.6v-3.31h.01c-4.94.03-16.1.03-29.04.04h0l.04-.04v3.31l-.04-.04c8.14,0,15.41.01,20.63.01h8.44-8.38c-5.23,0-12.49,0-20.66.01h-.04v-3.4h.04c12.96,0,24.1.03,29.04.03h.01v3.34l-.06.04Z"/>
            <path class="cls-9" d="M121.99,615.29s-.04-1.77-.04-3.96.01-3.96.04-3.96.04,1.77.04,3.96-.01,3.96-.04,3.96Z"/>
          </g>
        </g>
        <path class="cls-9" d="M293.22,635.2c0,.14-50.78.25-113.41.25s-113.41-.11-113.41-.25,50.77-.25,113.41-.25,113.41.11,113.41.25Z"/>
      </g>
    </g>
  </g>
</svg>