<?xml version="1.0" encoding="UTF-8"?>
<svg id="Layer_2" data-name="Layer 2" xmlns="http://www.w3.org/2000/svg" viewBox="0 0 1000 1000">
  <defs>
    <style>
      .cls-1 {
        fill: #ff735d;
      }

      .cls-1, .cls-2, .cls-3, .cls-4, .cls-5, .cls-6, .cls-7, .cls-8, .cls-9 {
        stroke-width: 0px;
      }

      .cls-2 {
        fill: #ffc19d;
      }

      .cls-3 {
        fill: #09f;
      }

      .cls-4 {
        fill: #f5f5f5;
      }

      .cls-5 {
        fill: #ff9c6a;
      }

      .cls-6 {
        fill: #ececec;
      }

      .cls-7 {
        fill: #375a64;
      }

      .cls-8 {
        fill: #fff;
      }

      .cls-9 {
        fill: #1a2e35;
      }
    </style>
  </defs>
  <polygon class="cls-6" points="880.95 501.26 814.61 434.92 879.28 366.94 845.53 334.84 781.66 401.97 716.14 336.45 683.2 369.38 749.54 435.73 684.87 503.7 718.62 535.81 782.49 468.67 848.01 534.2 880.95 501.26"/>
  <polygon class="cls-6" points="298.06 264.34 231.51 197.79 296.39 129.61 262.54 97.4 198.46 164.74 132.74 99.01 99.7 132.05 166.25 198.6 101.37 266.79 135.22 299 199.3 231.65 265.02 297.38 298.06 264.34"/>
  <polygon class="cls-6" points="255.18 843.97 199.62 788.4 253.78 731.48 225.52 704.59 172.03 760.81 117.15 705.94 89.57 733.52 145.13 789.08 90.97 846.01 119.23 872.9 172.72 816.67 227.6 871.55 255.18 843.97"/>
  <polygon class="cls-4" points="132.83 501.94 110.6 479.71 132.27 456.93 120.96 446.17 99.56 468.67 77.6 446.71 66.56 457.75 88.8 479.98 67.12 502.76 78.43 513.52 99.84 491.02 121.79 512.98 132.83 501.94"/>
  <polygon class="cls-4" points="870.87 846.26 848.64 824.03 870.31 801.26 859.01 790.5 837.6 812.99 815.65 791.04 804.61 802.07 826.84 824.3 805.17 847.08 816.48 857.84 837.88 835.34 859.84 857.3 870.87 846.26"/>
  <polygon class="cls-4" points="897.85 128.28 875.62 106.05 897.29 83.27 885.98 72.51 864.58 95.01 842.62 73.05 831.59 84.09 853.82 106.32 832.15 129.1 843.45 139.85 864.86 117.36 886.81 139.32 897.85 128.28"/>
  <path class="cls-9" d="M959.82,942.46c0,.3-205.88.54-459.79.54s-459.84-.24-459.84-.54,205.84-.54,459.84-.54,459.79.24,459.79.54Z"/>
  <g>
    <path class="cls-8" d="M622.16,248.86l12.58-21.15c-4.08-15.31-4.11-31.9.79-48.18,14.09-46.82,63.52-73.34,110.41-59.23,46.89,14.11,73.47,63.5,59.38,110.32-14.09,46.82-63.52,73.34-110.41,59.23-19.58-5.89-35.6-17.95-46.61-33.39l.02.05-26.16-7.65Z"/>
    <path class="cls-9" d="M622.16,248.86s.61.15,1.75.47c1.17.33,2.85.8,5.05,1.42,4.44,1.27,10.96,3.12,19.43,5.54l-.28.3-.02-.05c-.05-.12.01-.25.13-.29.1-.04.21,0,.27.08,6.54,9.06,17.02,19.98,32.75,27.74,3.91,1.93,8.14,3.62,12.62,5.03,2.24.73,4.6,1.17,6.95,1.79,1.19.26,2.36.64,3.58.82,1.22.17,2.46.34,3.7.52,9.93,1.42,20.77,1.23,31.72-1.26,10.94-2.46,21.95-7.21,31.9-14.35,9.94-7.11,18.79-16.63,25.28-28.02,13.25-22.59,15.73-53.37,3.65-79.66-6.09-13.31-15.21-25-26.46-33.46-11.14-8.58-24.03-14.23-37.09-16.83-13.09-2.51-26.27-1.91-38.29,1.14-12.03,3.03-22.9,8.48-31.91,15.35-9.04,6.86-16.23,15.13-21.54,23.73-2.79,4.24-4.77,8.75-6.7,13.06-.8,2.23-1.59,4.41-2.36,6.56-.78,2.14-1.31,4.32-1.83,6.44-4.06,17.12-2.3,32.11.49,42.73.02.06,0,.12-.02.17-4.1,6.77-7.26,12.01-9.42,15.58-1.08,1.77-1.9,3.12-2.47,4.06-.56.92-.87,1.4-.87,1.4,0,0,.24-.45.77-1.36.55-.94,1.33-2.29,2.36-4.06,2.13-3.64,5.24-8.96,9.27-15.84l-.02.17c-2.89-10.64-4.76-25.72-.75-43,.52-2.14,1.05-4.34,1.82-6.5.77-2.17,1.55-4.37,2.35-6.62,1.93-4.35,3.91-8.91,6.71-13.2,5.33-8.7,12.57-17.07,21.69-24.03,9.09-6.96,20.06-12.49,32.22-15.58,12.14-3.1,25.48-3.73,38.73-1.2,13.21,2.61,26.26,8.32,37.54,17,11.39,8.56,20.63,20.38,26.79,33.86.38.83.81,1.63,1.15,2.48l.94,2.56c.62,1.7,1.24,3.4,1.86,5.1.46,1.75.91,3.49,1.37,5.23.46,1.74.94,3.47,1.15,5.25.28,1.77.56,3.53.84,5.29.34,1.75.27,3.54.43,5.3.07,1.77.28,3.53.24,5.29-.07,1.76-.14,3.51-.21,5.26l-.11,2.62c-.08.87-.23,1.73-.34,2.59-.24,1.72-.49,3.44-.73,5.15-.16,1.73-.75,3.37-1.11,5.04-.41,1.67-.82,3.33-1.23,4.98-1.15,3.21-2.2,6.44-3.49,9.54-.72,1.52-1.44,3.03-2.16,4.54-.71,1.51-1.4,3.03-2.32,4.41-6.59,11.52-15.55,21.13-25.61,28.31-10.07,7.2-21.21,11.98-32.27,14.44-11.07,2.48-22.02,2.65-32.03,1.18-1.25-.18-2.5-.36-3.73-.54-1.23-.18-2.42-.57-3.61-.84-2.37-.63-4.75-1.09-7-1.83-4.52-1.44-8.77-3.16-12.71-5.13-15.82-7.9-26.31-18.96-32.8-28.12l.4-.21.02.05c.05.12-.01.25-.13.29-.05.02-.1.02-.15,0-8.5-2.55-15.04-4.51-19.5-5.84-2.16-.66-3.81-1.16-4.96-1.5-1.11-.34-1.64-.52-1.64-.52Z"/>
  </g>
  <g>
    <path class="cls-9" d="M713.13,185.3v41.79h-11.58l-15.88-18.99v18.99h-13.73v-41.79h11.58l15.88,18.99v-18.99h13.73Z"/>
    <path class="cls-9" d="M717.8,210.74c0-9.91,7.94-16.9,18.99-16.9s18.99,6.99,18.99,16.9-7.88,16.96-18.99,16.96-18.99-7.05-18.99-16.96ZM742.1,210.74c0-4.24-2.33-6.39-5.31-6.39s-5.31,2.15-5.31,6.39,2.33,6.45,5.31,6.45,5.31-2.21,5.31-6.45Z"/>
    <path class="cls-9" d="M758.35,185.3h16.12l-2.69,25.79h-10.75l-2.69-25.79ZM758.53,220.53c0-4,3.22-7.05,7.88-7.05s7.88,3.04,7.88,7.05-3.22,7.17-7.88,7.17-7.88-3.22-7.88-7.17Z"/>
  </g>
  <path class="cls-2" d="M172.37,535.66s1.55,42.17,5.7,58c4.28,16.35,15.07,44.51,37.46,48.09,27.53,4.41,53.51-10.56,58.41-17.3s35.52-43.44,35.52-43.44l-28.17-77.64-108.92,32.29Z"/>
  <g>
    <path class="cls-2" d="M717.8,480.79c.84,2.51,137.44,134.85,137.45,171.7.01,54.39-124.41,202.06-124.41,202.06l-37.67-45.74,68.53-131.16-98.3-104.67,54.39-92.18Z"/>
    <path class="cls-5" d="M804.61,666.77c.03.16-2.53.74-6.66,1.72-4.12.97-9.81,2.37-16.02,4.12-6.22,1.76-11.79,3.54-15.82,4.86-4.03,1.32-6.51,2.16-6.57,2.01-.05-.13,2.34-1.22,6.32-2.74,3.97-1.51,9.53-3.42,15.78-5.18,6.25-1.76,11.98-3.04,16.16-3.83,4.18-.79,6.79-1.11,6.81-.97Z"/>
  </g>
  <g>
    <path class="cls-9" d="M558.83,185.29c11.73,1.34,23.88-6.39,27.64-17.59,1.13-3.37,1.54-7.12.32-10.46-1.22-3.34-4.35-6.12-7.9-6.18,4.65-3.38,8.1-8.56,8.84-14.27.73-5.71-1.47-11.84-6.04-15.33-4.57-3.5-11.43-3.91-16.1-.55-.05-6.21-4.01-12.23-9.7-14.73l-25.16,6.51,28.1,72.6Z"/>
    <g>
      <path class="cls-2" d="M528.46,431.89l-2.62-55.3s52.72-10.08,51.54-63.09c-.57-25.6-6.03-78.23-11.53-125.8-5.91-51.15-50.11-89.17-101.56-87.39l-5.11.18c-55.02,5.13-81.4,54.72-74.75,109.58l29.69,228.42,87.56,38.49,26.8-45.08Z"/>
      <path class="cls-5" d="M525.83,376.58s-33.31,3.96-69.61-12.29c0,0,17.53,32.31,70.24,25.71l-.64-13.42Z"/>
    </g>
    <path class="cls-9" d="M507,277.67c-.05-.46,4.98-1.51,13.14-2.85,2.07-.28,4.03-.77,4.33-2.2.44-1.52-.51-3.73-1.6-6.12-2.13-4.96-4.36-10.17-6.7-15.62-9.32-22.25-16.14-40.57-15.24-40.94.9-.37,9.18,17.37,18.5,39.61,2.25,5.49,4.4,10.72,6.44,15.73.87,2.34,2.31,4.97,1.36,8.12-.51,1.57-1.99,2.76-3.31,3.16-1.32.45-2.49.52-3.51.61-8.24.73-13.36.94-13.4.48Z"/>
    <g>
      <path class="cls-9" d="M470.9,243.27c.28,3.99-2.87,7.52-7.03,7.89-4.16.37-7.76-2.56-8.04-6.55-.28-3.99,2.87-7.52,7.03-7.89,4.16-.37,7.76,2.57,8.04,6.56Z"/>
      <path class="cls-9" d="M475.36,222.5c-.91,1.02-6.79-3.02-14.93-2.72-8.14.19-13.97,4.58-14.89,3.62-.45-.43.44-2.24,2.98-4.22,2.5-1.98,6.8-3.96,11.87-4.12,5.07-.15,9.4,1.57,11.92,3.4,2.56,1.84,3.48,3.59,3.03,4.05Z"/>
      <path class="cls-9" d="M476.88,211.18c-1.29,1.95-8.29-1.03-17.12-2.21-8.81-1.38-16.42-.53-17.04-2.75-.26-1.05,1.48-2.74,4.83-4.06,3.31-1.32,8.25-2.1,13.54-1.34,5.29.78,9.74,2.92,12.48,5.12,2.77,2.21,3.89,4.31,3.31,5.25Z"/>
    </g>
    <g>
      <path class="cls-9" d="M545.27,242.24c.28,3.99-2.87,7.52-7.03,7.89-4.16.37-7.76-2.56-8.04-6.55-.28-3.99,2.87-7.52,7.02-7.89,4.16-.37,7.77,2.57,8.04,6.56Z"/>
      <path class="cls-9" d="M554.51,218.26c-.9,1.02-6.78-3.03-14.93-2.72-8.14.19-13.97,4.58-14.88,3.62-.45-.43.44-2.24,2.98-4.23,2.5-1.98,6.8-3.96,11.88-4.12,5.07-.15,9.4,1.57,11.92,3.4,2.57,1.84,3.48,3.59,3.03,4.05Z"/>
      <path class="cls-9" d="M550.88,180.31c-.91,2.34-7.78,2.95-15.25,5.76-7.54,2.58-13.27,6.5-15.42,5.26-.97-.63-.66-2.74,1.46-5.44,2.08-2.68,6.09-5.77,11.25-7.63,5.16-1.85,10.19-2.01,13.47-1.25,3.31.75,4.87,2.19,4.5,3.3Z"/>
    </g>
    <g>
      <path class="cls-2" d="M394.71,261.34c-.62-8.17-7.89-14.38-16.01-13.32-9.85,1.28-20.65,7.27-19.3,27.67,2.41,36.19,38.24,26.3,38.24,25.26,0-.71-1.79-24.48-2.93-39.61Z"/>
      <path class="cls-5" d="M388.86,287.86c-.17-.11-.6.48-1.63,1.04-1.01.54-2.77.99-4.71.41-3.92-1.15-7.54-7-8.15-13.51-.31-3.29.17-6.47,1.16-9.14.93-2.72,2.52-4.68,4.42-5.15,1.89-.57,3.32.49,3.84,1.48.55.98.37,1.72.57,1.77.11.08.74-.66.34-2.13-.2-.71-.68-1.53-1.57-2.17-.92-.65-2.22-.92-3.55-.69-2.78.38-5.12,3.11-6.21,6.05-1.25,2.96-1.86,6.54-1.51,10.23.72,7.28,4.91,13.85,10.24,15.01,2.59.5,4.66-.41,5.7-1.34,1.06-.97,1.2-1.79,1.07-1.85Z"/>
    </g>
    <path class="cls-1" d="M510.08,158.6c.09,0,.17.02.26.02.22,0,.44,0,.65.02l-.91-.04Z"/>
    <path class="cls-9" d="M574.2,93.1c-3.57-9.07-12.57-15.25-22.09-17.3-9.52-2.06-19.5-.49-28.81,2.38.13-13.18-14.9-22.32-28.03-21.06-13.13,1.26-24.34,9.6-34.8,17.62-16.58-8.84-39.99-.12-46.74,17.42-9.86-4.67-22.19-3.67-31.16,2.55-8.97,6.21-14.25,17.39-13.35,28.27-8.46,2.18-15.45,9.29-17.49,17.77-2.04,8.49.95,18,7.48,23.79-5.82,4.22-8.44,12.36-6.18,19.19.79,2.37,2.16,4.49,3.9,6.28-2.58,1.84-4.52,4.56-5.09,7.68-1.18,6.46,3.73,13.4,10.22,14.45-3.14,3.04-4.08,7.99-2.75,12.16,1.33,4.17,4.68,7.53,8.65,9.38,2.04.96,4.24,1.53,6.48,1.81,3.32,19.23,17.78,22.78,18.47,27.55,6.5,44.73,25.22,17.24,23.34-78.46-.17-8.36-1.42-15.09-2.07-21.03,5.32-4.86,8.83-11.69,8.75-18.92,11.23,3.57,24.45-.35,31.93-9.47,2.82,6.6,9.08,11.61,16.13,12.92,7.05,1.32,14.69-1.1,19.7-6.24,1.52,9.66,9.03,18.12,18.44,20.79,9.41,2.66,20.24-.61,26.6-8.04,6.01,4.39,14.12,5.3,21.21,3.11,1.89,3.55,2.97,5.88,2.97,5.88.04-2.34-.09-4.63-.34-6.88,3.12-1.37,5.94-3.36,8.15-5.99,7.6-9.05,6.82-23.97-1.7-32.17,8.59-4.6,11.75-16.37,8.19-25.43Z"/>
    <path class="cls-7" d="M421.47,150.77c.13.02.13,1.13-.49,3.03-.63,1.88-1.96,4.59-4.65,7.15-2.63,2.52-6.81,4.88-11.93,5-5.02.16-10.82-1.79-14.91-6.34l2.09-.2c-1.62,2.73-3.92,5.18-6.69,7.05-5.93,3.97-13.24,4.99-19.18,3.19-6.02-1.76-10.14-5.99-12.48-9.87-2.37-3.95-3.03-7.71-3.12-10.22-.04-2.54.38-3.89.52-3.87.53-.1-.58,5.85,4.18,13.09,2.35,3.46,6.24,7.12,11.57,8.53,5.25,1.48,11.77.5,17.04-3.03,2.46-1.66,4.49-3.81,5.93-6.18l.93-1.52,1.16,1.32c3.44,3.93,8.51,5.8,12.94,5.79,4.49.04,8.28-1.84,10.85-3.99,5.22-4.49,5.84-9.13,6.27-8.92Z"/>
    <path class="cls-5" d="M508.81,305.07c0,3.62-2.93,6.55-6.55,6.55s-6.55-2.93-6.55-6.55,2.93-6.55,6.55-6.55,6.55,2.93,6.55,6.55Z"/>
    <path class="cls-9" d="M506.27,310c.03.06-.35.34-1.11.72-.76.37-1.94.82-3.51.94-1.55.1-3.53-.28-5.21-1.6-.82-.63-1.63-1.55-1.98-2.7-.37-1.14-.37-2.38-.11-3.57.53-2.39,1.94-4.37,3.68-5.57,1.73-1.23,3.86-1.47,5.37-.96,1.54.45,2.53,1.4,2.99,2.14.46.76.5,1.25.44,1.27-.09.03-.26-.41-.78-1.02-.52-.59-1.46-1.34-2.84-1.65-1.36-.35-3.1-.07-4.6,1.04-1.49,1.08-2.74,2.9-3.2,4.98-.22,1.04-.22,2.1.07,3.02.27.93.88,1.65,1.6,2.25,1.43,1.19,3.14,1.61,4.56,1.61,2.89-.08,4.57-1.11,4.64-.89Z"/>
  </g>
  <g>
    <path class="cls-3" d="M793.16,548.2s-109.75-107.47-117.4-113.73c-7.64-6.25-37.62-13.88-37.68-13.9-39.31-11.01-110.22-23.02-110.22-23.02,0,0-5.44,28.22-54.61,29.36-51.47,1.19-64.48-29.36-64.48-29.36,0,0-62.78,23.09-90.83,33.21-25.42,9.17-30.54,14-30.54,14l-49.6,88.81s29.73,9.94,41.85,36.3c12.12,26.35-5.48,59.12-5.48,59.12l31.39-27.72,22.93,313.09-5.44,28.1h365.92l-11.65-36.56-20.16-86.51-4.08-235.23,49.63,58.39,90.43-94.36Z"/>
    <path class="cls-9" d="M296.07,525.2c.07-.01.35,1.25.8,3.55.44,2.3,1.02,5.64,1.65,9.77,1.28,8.27,2.74,19.74,4.13,32.42,1.32,12.61,2.52,24.01,3.41,32.49.41,4.02.75,7.34,1,9.85.23,2.33.32,3.62.24,3.63-.07,0-.31-1.26-.66-3.58-.36-2.31-.82-5.67-1.34-9.81-1.06-8.3-2.34-19.78-3.73-32.46-1.39-12.68-2.72-24.15-3.81-32.43-.53-4.01-.97-7.32-1.3-9.81-.31-2.32-.45-3.6-.38-3.62Z"/>
    <path class="cls-9" d="M658.97,519.69s.02.41-.06,1.16c-.1.87-.22,1.96-.37,3.29-.34,2.86-.82,6.99-1.29,12.12-.99,10.24-1.89,24.43-2.36,40.12-.5,15.7-.57,29.92-.65,40.22-.04,5.03-.08,9.16-.1,12.19-.03,1.34-.05,2.44-.07,3.32-.03.76-.06,1.16-.1,1.16-.04,0-.08-.4-.12-1.15-.03-.88-.08-1.97-.13-3.31-.09-2.88-.18-7.05-.24-12.19-.11-10.3-.16-24.53.33-40.25.47-15.71,1.49-29.93,2.68-40.17.57-5.12,1.17-9.25,1.64-12.1.23-1.32.42-2.4.58-3.27.14-.75.24-1.13.27-1.13Z"/>
    <path class="cls-9" d="M583.53,740.4s-.09.16-.31.44c-.27.32-.6.72-1.01,1.22-.96,1.12-2.28,2.66-3.95,4.62-3.43,4.01-8.52,9.7-14.93,16.62-6.4,6.93-14.2,15.01-23.05,23.81-8.89,8.75-18.84,18.2-29.56,27.8-10.75,9.58-21.25,18.41-30.95,26.26-9.73,7.81-18.64,14.66-26.24,20.24-7.6,5.59-13.82,10.02-18.18,12.98-2.13,1.44-3.81,2.58-5.03,3.41-.54.35-.97.63-1.32.86-.3.19-.46.28-.47.26-.01-.02.13-.14.41-.35.34-.25.75-.57,1.26-.95,1.19-.87,2.83-2.06,4.91-3.57,4.29-3.06,10.44-7.58,17.97-13.25,7.54-5.65,16.39-12.56,26.07-20.4,9.65-7.88,20.12-16.73,30.85-26.3,10.71-9.6,20.66-19,29.58-27.71,8.88-8.74,16.73-16.76,23.19-23.62,6.48-6.85,11.65-12.45,15.18-16.37,1.73-1.9,3.1-3.39,4.1-4.48.44-.47.8-.84,1.09-1.15.25-.25.38-.38.4-.37Z"/>
    <path class="cls-9" d="M532.3,824.17c.05.06-.58.69-1.75,1.78-1.17,1.1-2.92,2.63-5.12,4.47-4.4,3.69-10.69,8.54-17.98,13.4-7.3,4.86-14.2,8.8-19.29,11.45-2.55,1.32-4.63,2.35-6.1,3.01-1.46.67-2.28,1-2.32.93-.03-.07.73-.53,2.13-1.31,1.6-.89,3.58-2,5.92-3.31,4.99-2.81,11.79-6.84,19.06-11.68,7.26-4.84,13.59-9.58,18.1-13.1,2.11-1.66,3.89-3.06,5.33-4.19,1.26-.99,1.98-1.51,2.03-1.46Z"/>
  </g>
  <g>
    <path class="cls-2" d="M565.76,864.16c-1.84-6.44,12.37-14.29,21.81-17.88,8.96-3.4,29.01-11.13,42.92-15.42,5.46-1.68,15.76-5.06,26.8-8.86l-.22-9.64c11.23-4,33.91-1.2,33.91-1.2l12.67-22.42,40.57,50.07s-29.17,41.86-41.06,48.83c-11.89,6.97-27.83,15.94-32.32,19.43-4.48,3.49-28.31,28.69-35.37,33.87-6.02,4.42-13.29-1.57-8.47-8.47,4.62-6.59,21.95-23.27,25.82-29.16,2.74-4.16,1.07-7.69-3.91-6.2-4.98,1.49-44.33,32.38-48.32,32.38s-9.46-3.49-6.48-10.46c2.99-6.97,45.45-36.07,41.89-41-2.54-3.51-37.71,22.56-46.69,27.1-10.69,5.39-16.41-8.62-2.5-18.41,11.42-8.03,40.8-22.36,37.09-28.99-4.99-8.92-26.03,2.06-36.59,5.94-10.09,3.7-19,9.5-21.57.5Z"/>
    <path class="cls-5" d="M664.36,818.96c.11.28-2.86,1.67-6.62,3.11-3.76,1.44-6.9,2.38-7.01,2.1-.11-.28,2.86-1.67,6.62-3.11,3.76-1.44,6.9-2.38,7.01-2.1Z"/>
  </g>
  <g>
    <g>
      <path class="cls-2" d="M189.42,576.09s-11.6-5.27-15.81-35.31c-4.22-30.04,3.69-50.07,4.22-57.98.53-7.91,2.11-22.14,21.08-18.45,0,0,5.62,1.56,9.27-2.3s11.38-5.16,16.33-3.65,10.95,4.51,14.39,1.5c3.44-3.01,9.67-5.37,13.1-4.94s9.02,5.58,11.38,6.66c2.36,1.07,7.52.86,8.81-2.15s24.7-54.13,27.07-61c2.36-6.87,9.67-21.27,18.9-17.18,9.24,4.08,3.44,28.57-7.3,56.92-10.74,28.35-17.83,49.4-18.9,57.57-1.07,8.16-7.52,29.86-10.74,39.09-3.22,9.24-7.3,12.24-7.73,16.11-.43,3.87-5.16,19.55-22.98,26.42-17.83,6.87-54.27,2.54-61.08-1.31Z"/>
      <path class="cls-5" d="M189.42,576.09s.48.18,1.4.57c.94.33,2.35.79,4.25,1.21,3.79.87,9.46,1.82,16.83,2.4,7.36.53,16.45.89,26.85-.41,5.17-.72,10.72-1.91,15.92-4.77,5.22-2.73,10.09-6.94,13.65-12.45,1.76-2.75,3.24-5.8,4.19-9.08.24-.82.43-1.66.55-2.49.11-.9.38-1.82.77-2.64.77-1.66,1.8-3.13,2.71-4.67,3.85-6.08,5.69-13.44,8.04-20.84,2.22-7.44,4.45-15.18,6.2-23.25,1.1-8.2,3.66-16.49,6.37-24.77,2.74-8.32,5.75-16.76,8.92-25.36,3.14-8.61,6.62-17.28,9.54-26.32,1.47-4.52,2.85-9.1,4.01-13.78,1.15-4.68,2.14-9.45,2.5-14.31.16-2.42.17-4.87-.25-7.24-.43-2.32-1.4-4.7-3.41-5.83-2.04-1.07-4.57-1.28-6.72-.21-2.16,1.01-3.96,2.76-5.5,4.68-2.27,2.86-4.01,6.12-5.44,9.46-.71,1.66-1.26,3.42-1.99,5.13-.71,1.69-1.42,3.38-2.13,5.06-2.9,6.7-5.84,13.28-8.76,19.79-2.93,6.5-5.83,12.92-8.7,19.25-1.44,3.16-2.86,6.31-4.28,9.43-.7,1.56-1.4,3.11-2.1,4.66-.3.79-.93,1.71-1.72,2.2-.78.53-1.65.84-2.53,1.02-1.76.33-3.55.29-5.27-.37-1.66-.79-2.9-1.85-4.28-2.8-1.34-.96-2.69-1.91-4.09-2.7-1.42-.82-2.82-1.37-4.38-1.22-3.12.27-6.18,1.5-8.87,3.07-.68.4-1.32.84-1.93,1.32-.55.46-1.3,1.07-2.09,1.4-1.64.62-3.38.52-4.95.21-3.17-.61-6.06-1.94-8.96-2.73-2.89-.7-5.97-.52-8.82.2-1.42.37-2.8.9-4.05,1.61-.62.36-1.21.77-1.75,1.23-.5.45-1.03,1.03-1.66,1.51-2.53,1.93-5.82,2.2-8.73,1.53h.03c-1.21-.15-2.41-.38-3.62-.49-1.2,0-2.41-.19-3.59,0-2.37.1-4.67.83-6.58,2.06-3.92,2.52-5.6,7.19-6.28,11.52-.39,2.22-.41,4.39-.72,6.64-.35,2.2-.83,4.31-1.27,6.4-.91,4.17-1.76,8.22-2.39,12.18-2.57,15.84-1.87,29.97.08,41.26,1.86,11.32,5.17,19.88,8.57,24.97,1.67,2.57,3.28,4.3,4.47,5.33,1.19,1.04,1.92,1.43,1.92,1.43,0,0-.78-.3-2.01-1.32-1.23-1.01-2.89-2.72-4.61-5.29-3.5-5.09-6.91-13.67-8.86-25.03-2.04-11.32-2.81-25.52-.29-41.46.61-3.98,1.45-8.06,2.35-12.23.44-2.09.91-4.21,1.24-6.35.28-2.11.31-4.41.7-6.65.36-2.25.94-4.53,1.97-6.67,1.02-2.13,2.58-4.11,4.65-5.45,2.06-1.34,4.51-2.11,6.99-2.22,1.24-.19,2.48,0,3.73,0,1.24.11,2.47.34,3.72.5h.04c2.63.61,5.72.34,7.92-1.38.54-.42,1.02-.93,1.61-1.48.59-.5,1.22-.95,1.89-1.34,1.34-.77,2.79-1.33,4.28-1.72,2.98-.76,6.17-.96,9.29-.22,3.04.83,5.88,2.12,8.9,2.7,1.49.29,3.05.35,4.4-.17.68-.3,1.18-.7,1.85-1.26.65-.5,1.32-.97,2.03-1.39,2.82-1.65,5.92-2.92,9.32-3.22,1.74-.19,3.54.5,4.94,1.34,1.47.83,2.84,1.79,4.19,2.76,1.35.94,2.7,2.03,4.08,2.68,1.41.55,3.12.61,4.66.31,1.56-.32,2.98-1.1,3.5-2.62.7-1.55,1.4-3.11,2.1-4.68,1.41-3.12,2.84-6.27,4.27-9.43,2.86-6.34,5.75-12.76,8.68-19.26,2.91-6.51,5.86-13.09,8.75-19.78.71-1.68,1.41-3.36,2.12-5.04.7-1.66,1.25-3.42,1.99-5.14,1.46-3.42,3.24-6.74,5.59-9.72,1.61-1.99,3.5-3.86,5.9-4.99,2.41-1.19,5.36-1,7.71.26,2.44,1.4,3.48,4.13,3.93,6.57.44,2.51.43,5.04.26,7.51-.37,4.96-1.38,9.77-2.54,14.49-1.17,4.71-2.56,9.32-4.04,13.86-2.94,9.08-6.44,17.76-9.58,26.35-3.17,8.58-6.2,17.02-8.94,25.31-2.74,8.32-5.26,16.4-6.39,24.65-1.77,8.13-4.03,15.86-6.27,23.31-1.13,3.72-2.29,7.37-3.51,10.93-1.17,3.59-2.79,6.98-4.68,10.08-.93,1.56-1.96,3.03-2.68,4.58-.36.78-.6,1.56-.71,2.4-.12.9-.33,1.76-.58,2.61-.98,3.37-2.51,6.47-4.32,9.28-3.65,5.61-8.64,9.89-13.97,12.64-5.3,2.89-10.96,4.07-16.16,4.76-10.49,1.25-19.6.82-26.97.23-7.38-.64-13.06-1.66-16.85-2.61-1.9-.46-3.31-.96-4.24-1.32-.91-.43-1.36-.67-1.36-.67Z"/>
    </g>
    <path class="cls-5" d="M230.74,484.15s.02.6-.04,1.75c-.08,1.24-.19,2.9-.33,4.99-.35,4.43-.84,10.67-1.44,18.32-.68,7.76-1.49,16.96-2.38,27.16-.25,2.55-.51,5.17-.77,7.84-.33,2.69-.45,5.37-1.08,8.23-.43,1.39-1,2.8-2.03,3.93-1.01,1.14-2.34,1.98-3.78,2.47-2.92.94-6.07.6-8.95-.24-1.47-.41-2.84-1.01-4.19-1.68-1.38-.78-2.51-1.91-3.27-3.22-1.57-2.62-2.04-5.56-2.38-8.35-.6-5.63-.05-11.06-.13-16.13.27-10.34,1.18-19.5,1.75-27.25.67-7.65,1.22-13.88,1.6-18.31.21-2.08.37-3.74.5-4.97.13-1.14.2-1.73.24-1.73.04,0,.04.61-.02,1.75-.07,1.24-.17,2.9-.29,4.99-.31,4.44-.73,10.67-1.26,18.33-.48,7.73-1.31,16.99-1.52,27.16.11,5.18-.41,10.55.19,16.04.33,2.71.82,5.55,2.25,7.9.69,1.19,1.68,2.15,2.85,2.82,1.26.63,2.6,1.21,3.99,1.6,2.75.81,5.7,1.1,8.31.26,1.29-.43,2.43-1.17,3.32-2.15.9-.98,1.41-2.25,1.81-3.5.59-2.6.75-5.42,1.08-8.06.27-2.67.54-5.28.8-7.83.98-10.19,1.87-19.37,2.61-27.13.74-7.64,1.35-13.87,1.78-18.29.22-2.08.4-3.74.53-4.97.13-1.14.22-1.73.26-1.73Z"/>
    <g>
      <path class="cls-2" d="M233.03,469.1s-1.87,14.26-2.29,16.56c-.42,2.31-13.82,48.07-1.23,51.22,12.59,3.15,16.53-7.34,22.41-28.12,5.88-20.78,10.28-32.32,10.07-37.78"/>
      <path class="cls-5" d="M261.99,470.99s.04.13.05.39c0,.26.05.64,0,1.15-.03,1.01-.25,2.48-.64,4.35-.78,3.74-2.34,9.03-4.27,15.55-1.97,6.52-4.13,14.3-6.63,22.95-1.33,4.3-2.68,8.86-4.89,13.31-1.08,2.22-2.43,4.43-4.35,6.24-1.89,1.83-4.55,3-7.28,3.04-.67,0-1.34-.06-2.01-.09-.66-.05-1.3-.23-1.95-.34-1.29-.2-2.73-.88-3.56-1.97-1.79-2.13-2.26-4.78-2.6-7.21-.53-4.96-.11-9.72.45-14.2,1.18-8.96,3.07-16.86,4.76-23.46.43-1.64.85-3.2,1.24-4.69.29-1.46.45-2.93.67-4.25.4-2.64.75-4.93,1.04-6.84.29-1.79.52-3.23.7-4.32.17-.99.28-1.5.32-1.5s0,.53-.1,1.53c-.13,1.1-.29,2.55-.5,4.35-.24,1.93-.53,4.23-.86,6.88-.19,1.35-.31,2.76-.59,4.31-.37,1.49-.76,3.06-1.17,4.71-1.6,6.6-3.4,14.5-4.51,23.39-.52,4.43-.91,9.16-.38,13.94.32,2.34.84,4.85,2.36,6.63.74.93,1.76,1.41,2.98,1.62.61.1,1.22.27,1.84.32.62.02,1.24.09,1.86.09,2.49-.04,4.82-1.07,6.57-2.74,1.77-1.66,3.08-3.77,4.14-5.93,2.17-4.32,3.54-8.85,4.89-13.12,2.54-8.6,4.79-16.41,6.85-22.89,2.02-6.49,3.69-11.74,4.59-15.42.44-1.84.74-3.29.83-4.28.12-.99.11-1.51.16-1.52Z"/>
    </g>
    <path class="cls-5" d="M200.8,520.61s.04.21,0,.62c0,.21-.06.45-.16.73-.07.3-.23.61-.44.94-.78,1.36-2.96,2.75-5.8,2.65-1.4-.05-2.96-.48-4.33-1.47-1.42-.99-2.32-2.57-3.17-4.13-1.73-3.24-2.52-7.13-3.81-10.98-.62-1.94-1.31-3.8-2-5.6-.7-1.84-1.2-3.66-1.61-5.41-.78-3.5-1.15-6.71-1.36-9.39-.21-2.69-.25-4.87-.22-6.38.02-1.51.11-2.34.18-2.34.08,0,.13.83.24,2.33.11,1.5.26,3.66.57,6.32.31,2.66.75,5.82,1.57,9.24.43,1.71.93,3.48,1.62,5.25.71,1.8,1.42,3.7,2.05,5.66,1.3,3.91,2.07,7.77,3.67,10.85.81,1.54,1.63,3.01,2.83,3.87,1.18.9,2.56,1.34,3.83,1.42,2.57.18,4.61-.96,5.41-2.13.85-1.17.82-2.08.95-2.05Z"/>
    <g>
      <path class="cls-2" d="M263.71,525.2l-12.73,6.41s-19.25-10.36-29.37,3.8c-7.75,10.85,10.13,18.31,12.08,19.87,1.95,1.56,11.72,5.04,11.72,5.04"/>
      <path class="cls-5" d="M245.41,560.32c-.02.07-1.19-.26-3.25-.98-1.03-.36-2.29-.81-3.74-1.38-1.45-.6-3.09-1.18-4.84-2.29-3.21-1.97-7.66-3.97-11.29-7.86-1.77-1.91-3.34-4.62-3.07-7.67.24-3.07,2.23-5.59,4.31-7.76,2.07-2.02,4.63-3.36,7.22-4.16,2.62-.8,5.28-.84,7.75-.68,4.97.42,9.25,1.98,12.67,3.71h-.37c3.83-1.85,7-3.38,9.39-4.53,2.23-1.05,3.48-1.59,3.52-1.52.04.07-1.15.75-3.32,1.92-2.35,1.23-5.47,2.87-9.23,4.85l-.17.09-.2-.1c-3.33-1.59-7.58-3.06-12.36-3.41-2.38-.12-4.92-.07-7.37.7-2.43.77-4.82,2.02-6.76,3.92-1.98,2.06-3.8,4.42-4,7.06-.26,2.63,1.08,5.07,2.75,6.91,3.44,3.76,7.66,5.75,11.01,7.92,1.53,1.03,3.22,1.71,4.61,2.34,1.38.59,2.6,1.1,3.66,1.55,2.02.84,3.13,1.3,3.1,1.37Z"/>
    </g>
  </g>
  <g>
    <path class="cls-9" d="M347.14,401.65c-.37.03.26-8.47-3.33-18.07-3.46-9.65-9.44-15.73-9.13-15.94.08-.08,1.68,1.3,3.77,3.97,2.09,2.67,4.58,6.71,6.38,11.6,1.78,4.89,2.5,9.59,2.62,12.97.13,3.4-.19,5.48-.31,5.47Z"/>
    <path class="cls-9" d="M358.64,392.1c-.34.03-.6-5.91-3.04-12.7-2.38-6.82-5.91-11.59-5.63-11.78.11-.08,1.13,1.01,2.47,3.01,1.34,1.99,2.95,4.94,4.18,8.41,1.23,3.48,1.83,6.77,2.04,9.17.21,2.4.1,3.89-.03,3.89Z"/>
    <path class="cls-9" d="M260.42,390.23c-.11-.03.16-1.83,1.25-4.56,1.08-2.72,3.09-6.32,6.14-9.64,3.05-3.31,6.47-5.62,9.1-6.93,2.63-1.31,4.4-1.74,4.44-1.63.18.32-6.81,2.74-12.74,9.29-6.02,6.45-7.85,13.63-8.19,13.47Z"/>
    <path class="cls-9" d="M252.76,379.73c-.27-.04.91-4.39,4.56-8.39,3.61-4.04,7.82-5.65,7.89-5.39.16.29-3.64,2.26-7.08,6.11-3.49,3.81-5.06,7.8-5.36,7.67Z"/>
  </g>
</svg>