<svg width="530" height="247" viewBox="0 0 530 247" fill="none" xmlns="http://www.w3.org/2000/svg">
<path d="M0 10C0 4.47716 4.47715 0 10 0H520C525.523 0 530 4.47715 530 10V237C530 242.523 525.523 247 520 247H9.99999C4.47715 247 0 242.523 0 237V10Z" fill="#F9F19A"/>
<path d="M461.003 19.0146H410.44V71.7197H461.003V19.0146Z" fill="#E0E0E0"/>
<path d="M457.577 19.0146H407.015V71.7197H457.577V19.0146Z" fill="#FAFAFA"/>
<path d="M457.562 71.7421H407V19H457.562V71.7421ZM407 71.705H457.562V19.0593H407.03L407 71.705Z" fill="#E0E0E0"/>
<path d="M450.785 26.1035H413.814V64.6387H450.785V26.1035Z" fill="#FAFAFA"/>
<path d="M413.814 64.8906C413.551 65.2776 413.245 65.6334 412.902 65.9509C412.309 66.5738 411.478 67.4339 410.551 68.3385C409.625 69.2432 408.764 70.0662 408.134 70.652C407.813 70.9878 407.455 71.2863 407.066 71.5418C407.325 71.1536 407.628 70.7977 407.971 70.4814C408.564 69.8586 409.395 68.9985 410.329 68.0939C411.263 67.1892 412.116 66.3588 412.746 65.7804C413.068 65.4446 413.426 65.1461 413.814 64.8906Z" fill="#E0E0E0"/>
<path d="M450.785 64.8018C451.173 65.0638 451.529 65.3698 451.846 65.7138C452.468 66.2996 453.328 67.13 454.226 68.0643C455.123 68.9986 455.961 69.8439 456.539 70.4742C456.875 70.7955 457.173 71.1536 457.429 71.5419C457.036 71.2894 456.68 70.9851 456.369 70.6373C455.746 70.0441 454.886 69.2136 453.981 68.2793C453.076 67.3451 452.246 66.4924 451.668 65.8621C451.331 65.5462 451.035 65.1901 450.785 64.8018Z" fill="#E0E0E0"/>
<path d="M450.681 26.1996C450.955 25.8126 451.273 25.4592 451.63 25.1466C452.223 24.5238 453.053 23.6637 453.98 22.7665C454.907 21.8693 455.767 21.0314 456.398 20.453C456.717 20.1151 457.075 19.8165 457.465 19.5632C457.206 19.9524 456.899 20.3085 456.553 20.6236C455.967 21.2464 455.137 22.1065 454.203 23.0112C453.268 23.9158 452.408 24.7462 451.778 25.3246C451.45 25.661 451.082 25.9549 450.681 26.1996Z" fill="#E0E0E0"/>
<path d="M413.71 26.2964C413.321 26.0366 412.965 25.7303 412.65 25.3843C412.027 24.7986 411.167 23.9681 410.27 23.0338C409.372 22.0996 408.535 21.2468 407.956 20.6166C407.618 20.2972 407.32 19.9388 407.066 19.5488C407.45 19.8124 407.804 20.1183 408.119 20.4609C408.742 21.0466 409.602 21.8845 410.507 22.8114C411.412 23.7382 412.249 24.6058 412.828 25.2361C413.164 25.5519 413.461 25.908 413.71 26.2964Z" fill="#E0E0E0"/>
<path d="M450.681 64.6385C450.681 64.6385 450.681 64.5718 450.681 64.4532C450.681 64.3345 450.681 64.1418 450.681 63.9119C450.681 63.4299 450.681 62.7329 450.681 61.8283C450.681 60.0042 450.681 57.3794 450.644 53.9759C450.644 47.2284 450.599 37.6113 450.57 26.1034L450.71 26.2443H413.844L414.007 26.0811C414.007 40.2213 414.007 53.4569 414.007 64.6385L413.866 64.4977L440.559 64.5718L448.056 64.6089H450.043H448.086H440.619L413.836 64.683H413.695V64.5422C413.695 53.4198 413.695 40.1472 413.695 25.9847V25.8142H413.814H450.681H450.822V25.9625C450.822 37.5075 450.77 47.1543 450.748 53.9315C450.748 57.2904 450.748 59.9301 450.71 61.7467C450.71 62.6439 450.71 63.3261 450.71 63.8007C450.71 64.0231 450.71 64.2011 450.71 64.3271C450.711 64.4317 450.701 64.536 450.681 64.6385Z" fill="#E0E0E0"/>
<path d="M438.469 39.1982H426.131V51.5366H438.469V39.1982Z" fill="#EBEBEB"/>
<path d="M461.003 84.2214H410.44V136.926H461.003V84.2214Z" fill="#E0E0E0"/>
<path d="M457.577 84.2214H407.015V136.926H457.577V84.2214Z" fill="#FAFAFA"/>
<path d="M457.562 136.949H407V84.2065H457.562V136.949ZM407 136.912H457.562V84.2659H407.03L407 136.912Z" fill="#E0E0E0"/>
<path d="M450.785 91.3101H413.814V129.845H450.785V91.3101Z" fill="#FAFAFA"/>
<path d="M413.814 130.104C413.549 130.49 413.243 130.845 412.902 131.165C412.309 131.788 411.478 132.648 410.551 133.545C409.625 134.442 408.764 135.28 408.134 135.858C407.813 136.194 407.455 136.493 407.066 136.748C407.325 136.36 407.628 136.004 407.971 135.688C408.564 135.065 409.395 134.205 410.329 133.3C411.263 132.396 412.116 131.565 412.746 130.987C413.064 130.649 413.422 130.352 413.814 130.104Z" fill="#E0E0E0"/>
<path d="M450.785 130.009C451.173 130.271 451.529 130.577 451.846 130.921C452.468 131.506 453.328 132.337 454.226 133.271C455.123 134.205 455.961 135.051 456.539 135.681C456.878 136.002 457.177 136.363 457.429 136.756C457.04 136.496 456.684 136.19 456.369 135.844C455.746 135.258 454.886 134.42 453.981 133.494C453.076 132.567 452.246 131.699 451.668 131.069C451.331 130.753 451.035 130.397 450.785 130.009Z" fill="#E0E0E0"/>
<path d="M450.681 91.4139C450.939 91.0213 451.245 90.6625 451.593 90.3461C452.186 89.7233 453.016 88.8631 453.943 87.9659C454.87 87.0687 455.73 86.2383 456.36 85.6525C456.68 85.3146 457.038 85.0159 457.428 84.7627C457.168 85.1519 456.862 85.508 456.516 85.823C455.93 86.4459 455.1 87.306 454.166 88.2106C453.231 89.1152 452.371 89.9457 451.741 90.5241C451.421 90.8585 451.066 91.1569 450.681 91.4139Z" fill="#E0E0E0"/>
<path d="M413.71 91.5028C413.321 91.2431 412.965 90.9368 412.65 90.5908C412.027 90.005 411.167 89.1746 410.27 88.2403C409.372 87.306 408.535 86.4607 407.956 85.8304C407.62 85.5091 407.322 85.151 407.066 84.7627C407.454 85.0188 407.808 85.3228 408.119 85.6673C408.742 86.2531 409.602 87.091 410.507 88.0178C411.412 88.9447 412.249 89.8122 412.828 90.4425C413.164 90.7584 413.461 91.1145 413.71 91.5028Z" fill="#E0E0E0"/>
<path d="M450.682 129.845C450.682 129.845 450.682 129.778 450.682 129.66C450.682 129.541 450.682 129.348 450.682 129.118C450.682 128.636 450.682 127.939 450.682 127.042C450.682 125.211 450.682 122.593 450.645 119.183C450.645 112.435 450.6 102.818 450.571 91.3099L450.712 91.4508H413.845L414.008 91.2877C414.008 105.428 414.008 118.663 414.008 129.845L413.815 129.697L440.509 129.771H448.005H449.992H448.035H440.568L413.785 129.845H413.645V129.704C413.645 118.582 413.645 105.309 413.645 91.1468V91.1394H413.815H450.682H450.823V91.2877C450.823 102.833 450.771 112.479 450.749 119.257C450.749 122.616 450.749 125.255 450.712 127.079C450.712 127.969 450.712 128.651 450.712 129.126C450.712 129.348 450.712 129.526 450.712 129.652C450.706 129.717 450.696 129.782 450.682 129.845Z" fill="#E0E0E0"/>
<path d="M438.469 104.405H426.131V116.743H438.469V104.405Z" fill="#EBEBEB"/>
<path d="M300.684 77.4817L301.121 78.2232C301.615 79.0382 302.33 79.6965 303.183 80.1214L303.924 80.4921L303.183 80.937C302.364 81.4268 301.705 82.1426 301.284 82.9984L300.906 83.7399L300.469 82.9984C299.977 82.1817 299.262 81.523 298.408 81.1002L297.666 80.722L298.408 80.2845C299.224 79.7928 299.883 79.0775 300.306 78.2232L300.684 77.4817Z" fill="#E0E0E0"/>
<path d="M378.828 57.0237L379.266 57.7652C379.752 58.5916 380.468 59.2589 381.327 59.6856L382.069 60.0638L381.327 60.5013C380.511 60.993 379.852 61.7083 379.429 62.5626L379.051 63.3041L378.613 62.5626C378.12 61.7475 377.405 61.0893 376.552 60.6644L375.811 60.2862L376.552 59.8488C377.369 59.357 378.027 58.6417 378.45 57.7874L378.828 57.0237Z" fill="#E0E0E0"/>
<path d="M339.011 32.2507L339.234 32.6141C339.479 33.0225 339.837 33.3519 340.264 33.5632L340.65 33.756L340.286 33.971C339.874 34.2172 339.542 34.5778 339.33 35.0091L339.145 35.3872L338.922 35.0239C338.678 34.6138 338.32 34.2839 337.891 34.0748L337.506 33.882L337.877 33.6596C338.285 33.4135 338.614 33.0559 338.826 32.6289L339.011 32.2507Z" fill="#E0E0E0"/>
<path d="M369.265 57.2981L369.48 57.6614C369.729 58.0701 370.089 58.3994 370.518 58.6105L370.896 58.8033L370.533 59.0183C370.124 59.267 369.795 59.6271 369.584 60.0564L369.391 60.4346L369.176 60.0713C368.927 59.6626 368.567 59.3333 368.138 59.1222L367.76 58.9294L368.123 58.7143C368.532 58.4657 368.861 58.1056 369.072 57.6763L369.265 57.2981Z" fill="#E0E0E0"/>
<path d="M340.583 84.0364L340.806 84.3997C341.052 84.8079 341.409 85.1372 341.836 85.3488L342.222 85.5416L341.851 85.7566C341.443 86.0053 341.113 86.3654 340.902 86.7947L340.709 87.1729L340.494 86.8095C340.247 86.4007 339.89 86.0693 339.464 85.853L339.078 85.6676L339.441 85.4452C339.852 85.1996 340.184 84.8421 340.398 84.4145L340.583 84.0364Z" fill="#E0E0E0"/>
<path d="M375.53 106.244C375.797 104.294 373.039 102.685 370.963 102.536C369.967 102.577 368.971 102.493 367.997 102.284C365.965 101.543 365.157 98.955 363.177 98.1171C361.694 97.4943 359.989 98.0504 358.55 98.7696C357.112 99.4889 355.695 100.401 354.101 100.505C352.707 100.594 351.187 100.075 349.971 100.757C349.059 101.268 348.585 102.314 347.747 102.937C346.872 103.47 345.864 103.743 344.84 103.723C343.817 103.696 342.798 103.862 341.837 104.212C341.364 104.399 340.963 104.734 340.696 105.167C340.429 105.6 340.309 106.108 340.354 106.615L375.53 106.244Z" fill="#EBEBEB"/>
<path d="M194.186 76.3964C194.452 74.4463 191.694 72.8373 189.618 72.689C188.623 72.7298 187.626 72.6451 186.652 72.4369C184.62 71.6954 183.812 69.1076 181.832 68.2697C180.349 67.6469 178.644 68.203 177.205 68.9222C175.767 69.6415 174.351 70.5535 172.757 70.6573C171.363 70.7463 169.842 70.2272 168.626 70.9094C167.714 71.421 167.24 72.4665 166.402 73.0894C165.528 73.6225 164.519 73.8952 163.495 73.8754C162.472 73.8487 161.454 74.0147 160.492 74.3647C160.019 74.5516 159.619 74.8865 159.351 75.3195C159.084 75.7525 158.964 76.2603 159.009 76.7672L194.186 76.3964Z" fill="#EBEBEB"/>
<path d="M244.318 35.5577C244.689 32.8736 240.9 30.6639 238.06 30.4415C236.695 30.3303 235.287 30.5379 234.004 30.0856C231.216 29.1142 230.104 25.518 227.39 24.3687C225.358 23.516 223.015 24.2797 221.043 25.2659C219.07 26.2521 217.128 27.4904 214.925 27.6461C213.012 27.7721 210.936 27.0603 209.26 27.9946C208.007 28.6916 207.355 30.13 206.205 30.9605C205.007 31.6964 203.622 32.0722 202.216 32.0431C200.815 32.0086 199.419 32.2348 198.101 32.7104C196.833 33.2962 195.78 34.6383 196.04 36.0101L244.318 35.5577Z" fill="#F5F5F5"/>
<path d="M126.667 22H40.8545V164.04H126.667V22Z" fill="#E0E0E0"/>
<path d="M123.812 22H38V164.04H123.812V22Z" fill="#EBEBEB"/>
<path d="M120.158 24.8772H41.6562V161.155H120.158V24.8772Z" fill="#FAFAFA"/>
<path d="M104.874 42.584H56.6035V143.449H104.874V42.584Z" fill="#EBEBEB"/>
<path d="M56.589 107.761C56.4778 98.3364 64.9456 89.1345 74.2809 87.8221C78.7298 87.1918 83.4531 88.0816 87.6277 86.3391C95.0426 83.2916 97.4079 73.4372 104.875 70.5083L105.216 143.411H56.589V107.761Z" fill="#E0E0E0"/>
<path d="M233.591 107.386L249.392 104.338L279.704 111.293L295.068 114.497L295.29 135.488L261.019 141.798L237.892 134.947L229.149 122.082L233.591 107.386Z" fill="#FFBE9D"/>
<path d="M222.365 109.477L237.276 105.962C237.276 105.962 247.82 138.588 273.839 137.156C295.046 136.007 295.068 114.497 295.068 114.497L310.572 117.233C310.572 117.233 317.075 156.598 309.95 184.211C304.018 207.197 298.753 238.696 298.753 238.696H195.753L222.365 109.477Z" fill="#F9B01C"/>
<path d="M373.457 210.341C373.457 210.341 330.977 135.918 323.333 126.368C314.961 115.913 308.281 117.121 308.281 117.121L303.787 167.253L339.905 218.498L348.514 221.605L373.457 210.341Z" fill="#F9B01C"/>
<path d="M224.144 109.061C224.144 109.061 200.001 110.989 191.341 150.585C187.426 168.477 182.443 189.446 181.049 203.534C180.011 213.759 186.321 224.392 196.516 225.697L209.314 228.07C212.695 228.698 216.189 228.005 219.074 226.135C221.96 224.264 224.019 221.358 224.826 218.016L229.149 200.116L217.634 196.246L220.296 142.925L224.144 109.061Z" fill="#F9B01C"/>
<path d="M312.544 144.905C312.6 145.083 312.637 145.267 312.655 145.454C312.722 145.854 312.796 146.388 312.9 147.048C312.951 147.396 313.003 147.789 313.07 148.205C313.137 148.62 313.159 149.087 313.204 149.584C313.307 150.57 313.426 151.697 313.478 152.95C313.657 155.881 313.677 158.819 313.537 161.752C313.364 165.341 313.008 168.92 312.469 172.474C311.913 176.255 311.216 179.829 310.512 183.062C309.808 186.295 309.103 189.194 308.503 191.626C307.902 194.058 307.375 196.008 307.02 197.358C306.842 198.003 306.701 198.522 306.589 198.908C306.545 199.089 306.488 199.268 306.419 199.441C306.434 199.256 306.466 199.072 306.515 198.893C306.604 198.492 306.73 197.973 306.879 197.321L308.243 191.53C308.814 189.09 309.496 186.191 310.171 182.958C310.846 179.725 311.543 176.159 312.099 172.385C312.655 168.61 313.033 164.97 313.189 161.7C313.344 158.43 313.359 155.427 313.189 152.935C313.189 151.69 313.055 150.563 312.974 149.569C312.937 149.08 312.9 148.62 312.87 148.19C312.84 147.76 312.774 147.389 312.736 147.033C312.662 146.373 312.61 145.839 312.566 145.439C312.547 145.262 312.539 145.083 312.544 144.905Z" fill="#263238"/>
<path d="M230.276 202.029C230.225 201.924 230.183 201.815 230.15 201.703C230.076 201.458 229.972 201.147 229.846 200.747L229.371 199.212C229.238 198.513 228.943 197.856 228.511 197.291C227.876 196.682 227.117 196.217 226.287 195.927C225.31 195.558 224.302 195.275 223.276 195.082C220.83 194.628 218.349 194.38 215.861 194.34H215.661V194.147L217.841 179.933C219.243 170.983 220.518 162.879 221.445 156.947C221.927 154.04 222.312 151.675 222.587 149.999C222.72 149.206 222.831 148.575 222.913 148.108C222.913 147.916 222.98 147.752 223.009 147.619C223.015 147.562 223.03 147.507 223.054 147.456C223.065 147.512 223.065 147.57 223.054 147.626C223.054 147.76 223.054 147.923 222.994 148.123C222.935 148.59 222.846 149.221 222.742 150.021C222.498 151.705 222.149 154.077 221.727 156.991C220.822 162.923 219.591 171.013 218.227 179.978C217.426 185.094 216.677 189.936 216.002 194.184L215.832 193.984C218.35 194.049 220.858 194.329 223.328 194.822C224.369 195.03 225.389 195.33 226.376 195.719C227.241 196.036 228.023 196.543 228.667 197.202C228.932 197.5 229.129 197.852 229.245 198.233L229.52 199.219C229.69 199.82 229.831 200.339 229.95 200.769C230.068 201.199 230.142 201.51 230.202 201.74C230.235 201.834 230.26 201.931 230.276 202.029Z" fill="#263238"/>
<path d="M197.021 208.08C197.044 207.742 197.109 207.408 197.213 207.086C197.446 206.193 197.759 205.322 198.148 204.484C199.412 201.683 201.383 199.26 203.868 197.451C206.352 195.643 209.264 194.512 212.317 194.169C213.232 194.058 214.156 194.028 215.076 194.08C215.416 194.084 215.754 194.127 216.084 194.207C214.845 194.214 213.607 194.29 212.377 194.436C209.393 194.848 206.556 195.991 204.12 197.763C201.685 199.535 199.724 201.882 198.415 204.595C197.888 205.731 197.423 206.894 197.021 208.08Z" fill="#263238"/>
<path d="M202.604 188.371C202.792 188.323 202.988 188.305 203.182 188.319C203.714 188.309 204.247 188.334 204.776 188.393C206.527 188.569 208.243 188.999 209.87 189.669C211.497 190.342 213.02 191.243 214.393 192.345C214.809 192.675 215.203 193.031 215.572 193.413C215.832 193.687 215.973 193.843 215.95 193.865C215.928 193.888 215.298 193.346 214.23 192.56C211.43 190.509 208.173 189.17 204.739 188.66C203.427 188.467 202.604 188.438 202.604 188.371Z" fill="#263238"/>
<path d="M227.592 137.156C227.544 136.805 227.526 136.45 227.54 136.096C227.54 135.414 227.496 134.435 227.407 133.227C227.184 130.073 226.643 126.95 225.79 123.906C224.926 120.866 223.761 117.921 222.313 115.112C221.749 114.037 221.275 113.177 220.926 112.598C220.731 112.302 220.562 111.99 220.422 111.664C220.659 111.928 220.87 112.213 221.052 112.517C221.445 113.08 221.957 113.918 222.535 114.986C225.621 120.586 227.372 126.824 227.651 133.212C227.703 134.428 227.696 135.436 227.651 136.096C227.667 136.451 227.647 136.806 227.592 137.156Z" fill="#263238"/>
<g opacity="0.3">
<path d="M311.447 178.116C317.601 167.684 317.735 154.129 312.359 143.266C314.088 154.84 313.716 166.63 311.262 178.072" fill="black"/>
</g>
<g opacity="0.3">
<path d="M256.65 189.913C251.979 191.285 245.528 191.619 240.953 189.913C244.52 194.978 251.393 196.809 257.355 195.163C263.316 193.517 268.818 187.548 269.278 181.371C266.394 185.272 261.329 188.564 256.65 189.913Z" fill="black"/>
</g>
<path d="M273.839 173.067C273.817 173.209 273.78 173.348 273.727 173.482C273.638 173.749 273.535 174.157 273.327 174.646C272.786 176.063 272.114 177.426 271.317 178.717C270.144 180.642 268.726 182.406 267.098 183.967C263.106 187.853 257.953 190.326 252.424 191.011C250.189 191.301 247.926 191.301 245.692 191.011C244.182 190.823 242.693 190.498 241.243 190.04C240.724 189.884 240.345 189.713 240.079 189.617C239.943 189.571 239.812 189.514 239.686 189.446C240.224 189.568 240.756 189.716 241.28 189.891C247.558 191.637 254.253 191.082 260.158 188.327C266.004 185.453 270.622 180.574 273.171 174.58C273.601 173.616 273.801 173.052 273.839 173.067Z" fill="#263238"/>
<path d="M221.757 224.978C221.757 224.978 221.705 225.06 221.572 225.178C221.385 225.364 221.184 225.535 220.971 225.69C220.195 226.269 219.335 226.724 218.42 227.04C217.06 227.492 215.641 227.742 214.209 227.781C212.476 227.836 210.742 227.774 209.018 227.596C205.311 227.277 202.019 226.736 199.638 226.313C198.445 226.098 197.481 225.912 196.821 225.772C196.469 225.724 196.124 225.64 195.79 225.52C196.143 225.525 196.495 225.56 196.843 225.623L199.683 226.039C202.07 226.402 205.377 226.891 209.055 227.21C210.779 227.388 212.513 227.46 214.246 227.425C215.649 227.396 217.042 227.171 218.383 226.758C219.591 226.337 220.728 225.737 221.757 224.978Z" fill="#263238"/>
<path d="M305.5 29.8851L308.548 26.9191C312.604 28.6839 314.48 33.3923 315.169 37.7671C315.859 42.1419 315.755 46.7391 317.616 50.758C319.04 53.85 321.628 56.6899 321.324 60.1082C321.035 63.3336 318.113 65.9437 318.098 69.184C318.098 72.3056 320.694 74.7007 322.206 77.4293C325.268 82.9534 327.256 105.554 325.654 111.671C312.181 110.507 288.32 109.069 274.84 105.969C278.392 82.7458 293.347 49.972 305.5 29.8851Z" fill="#263238"/>
<path d="M311.529 50.5876C312.463 34.8013 301 20.3571 285.02 18.4515C268.063 16.4347 253.062 28.5802 251.653 45.1006L247.679 111.79C247.606 113.079 247.967 114.355 248.702 115.416C252.617 121.14 259.706 125.619 266.046 126.501C272.178 127.354 278.399 125.76 283.619 122.853C284.485 122.364 285.207 121.655 285.713 120.799C286.22 119.943 286.492 118.969 286.503 117.974L286.778 103.048C286.777 103.035 286.778 103.022 286.783 103.01C286.787 102.998 286.794 102.986 286.804 102.977C286.813 102.968 286.824 102.961 286.836 102.957C286.848 102.952 286.861 102.95 286.874 102.952C288.271 103.057 289.675 103.017 291.064 102.833C295.008 101.869 305.07 97.9984 308.451 83.228C309.579 78.3341 310.706 64.4312 311.529 50.5876Z" fill="#FFBE9D"/>
<path d="M289.595 72.3948C289.595 72.2465 291.248 72.0834 293.925 71.9351C294.6 71.9351 295.245 71.8239 295.408 71.379C295.508 70.6988 295.394 70.0045 295.082 69.3918L293.421 64.2014C291.122 56.8458 289.506 50.8175 289.802 50.7359C290.099 50.6544 292.212 56.5344 294.511 63.89C295.06 65.7066 295.586 67.4343 296.09 69.0804C296.298 69.8219 296.676 70.7265 296.268 71.6978C296.155 71.9242 295.991 72.1216 295.789 72.2745C295.587 72.4275 295.353 72.5321 295.104 72.5802C294.726 72.6555 294.34 72.6829 293.955 72.6618C291.256 72.6469 289.602 72.5431 289.595 72.3948Z" fill="#263238"/>
<path d="M307.169 56.1711C306.879 56.49 305.129 55.0218 302.623 54.9477C300.117 54.8735 298.248 56.186 297.981 55.8449C297.848 55.6892 298.152 55.1034 298.968 54.4954C300.045 53.7209 301.349 53.3246 302.675 53.3683C304 53.414 305.271 53.9022 306.286 54.7549C307.065 55.4222 307.354 56.0303 307.169 56.1711Z" fill="#263238"/>
<path d="M281.706 56.8086C281.365 57.1275 279.541 55.4739 276.805 55.2367C274.068 54.9994 271.94 56.2525 271.666 55.8818C271.533 55.7112 271.903 55.1403 272.83 54.5323C274.072 53.7964 275.516 53.4744 276.953 53.6128C278.391 53.7403 279.749 54.331 280.823 55.296C281.632 56.0152 281.869 56.6677 281.706 56.8086Z" fill="#263238"/>
<path d="M286.778 102.944C286.778 102.944 276.561 103.055 264.341 94.6617C264.341 94.6617 267.5 108.142 286.697 107.719L286.778 102.944Z" fill="#EB996E"/>
<path d="M288.075 78.5491C287.609 77.8926 286.987 77.3634 286.264 77.0098C285.541 76.6561 284.741 76.4894 283.937 76.5248C283.357 76.5333 282.784 76.6585 282.253 76.8929C281.722 77.1273 281.243 77.4661 280.845 77.8892C280.466 78.2944 280.222 78.8082 280.149 79.3586C280.076 79.9091 280.177 80.4686 280.438 80.9589C281.083 81.9896 282.551 82.3233 283.834 82.0563C285.104 81.7087 286.293 81.1141 287.333 80.3064C287.642 80.1088 287.913 79.8577 288.134 79.5649C288.239 79.4282 288.3 79.2636 288.31 79.092C288.321 78.9203 288.28 78.7494 288.194 78.601" fill="#EB996E"/>
<path d="M281.737 73.6333C282.167 73.6333 281.996 76.451 284.309 78.6161C286.623 80.7813 289.685 80.6774 289.685 81.0704C289.685 81.2558 288.944 81.5746 287.683 81.5153C286.012 81.4225 284.425 80.7545 283.19 79.6245C282.014 78.5491 281.306 77.0559 281.217 75.4648C281.18 74.2858 281.544 73.6333 281.737 73.6333Z" fill="#263238"/>
<path d="M282.143 46.4723C281.832 47.1545 279.229 46.628 276.122 46.7541C273.015 46.8801 270.457 47.4956 270.087 46.8653C269.931 46.5464 270.405 45.9236 271.466 45.3156C272.876 44.5811 274.433 44.1731 276.022 44.1218C277.611 44.0705 279.191 44.3771 280.645 45.019C281.721 45.5529 282.247 46.146 282.143 46.4723Z" fill="#263238"/>
<path d="M307.71 47.0286C307.176 47.6218 305.063 47.0286 302.519 47.0286C299.976 47.0286 297.841 47.4512 297.329 46.8358C297.107 46.5392 297.44 45.946 298.375 45.3528C299.668 44.675 301.112 44.3358 302.572 44.3669C304.032 44.398 305.46 44.7984 306.724 45.5308C307.643 46.1314 307.947 46.7394 307.71 47.0286Z" fill="#263238"/>
<path d="M287.335 15.1148C285.955 12.7717 283.397 11.7039 280.535 11.2738C268.849 9.50169 255.814 16.5384 249.267 26.3706C242.719 36.2027 242.371 50.8768 247.161 61.6728L254.45 57.1201C269.079 51.0844 279.408 36.9887 288.818 22.4258C290.13 20.4461 288.558 17.1539 287.335 15.1148Z" fill="#263238"/>
<path d="M305.337 21.5433C300.451 15.9821 296.899 10.421 286.755 14.3064C285.272 17.1463 288.238 20.8315 290.789 22.9818C294.497 26.1405 297.678 28.2686 300.095 30.5301C304.974 35.0903 310.52 50.4317 311.002 58.8031C311.002 59.3296 311.929 51.6181 312.485 51.5365C313.167 51.4327 315.918 48.0664 315.54 43.4691C314.235 27.757 310.224 27.0971 305.337 21.5433Z" fill="#263238"/>
<path d="M280.565 11.2738C281.327 11.1251 282.115 11.1919 282.841 11.4666C284.636 12.0171 286.236 13.0693 287.453 14.4993C287.801 14.9012 288.108 15.3358 288.373 15.7969C288.603 16.2423 288.782 16.7124 288.906 17.1983C289.171 17.9816 289.372 18.785 289.507 19.6007C289.707 21.0318 289.366 21.8993 289.292 21.8771C289.218 21.8548 289.329 21.0021 289.018 19.6897C288.812 18.9132 288.564 18.1483 288.276 17.3985C288.144 16.9601 287.971 16.5355 287.757 16.1305C287.506 15.7056 287.219 15.3036 286.897 14.9293C285.749 13.5993 284.296 12.5665 282.663 11.9189C281.403 11.4666 280.55 11.3924 280.565 11.2738Z" fill="#455A64"/>
<path d="M304.855 61.0279C304.855 61.5967 304.638 62.1442 304.248 62.5579C303.858 62.9717 303.324 63.2202 302.756 63.2524C302.474 63.2788 302.19 63.2486 301.92 63.1637C301.649 63.0788 301.399 62.9407 301.183 62.7577C300.967 62.5747 300.789 62.3504 300.661 62.0979C300.532 61.8455 300.456 61.5699 300.435 61.2875C300.421 60.7098 300.632 60.1492 301.023 59.7243C301.415 59.2994 301.957 59.0436 302.534 59.0111C302.82 58.9836 303.109 59.0147 303.383 59.1024C303.657 59.1902 303.91 59.3327 304.127 59.5214C304.344 59.71 304.521 59.9409 304.646 60.1999C304.771 60.4589 304.842 60.7406 304.855 61.0279Z" fill="#263238"/>
<path d="M280.431 61.1463C280.445 61.724 280.234 62.2846 279.843 62.7094C279.451 63.1343 278.909 63.3901 278.332 63.4227C278.051 63.4501 277.767 63.4209 277.497 63.3368C277.226 63.2528 276.976 63.1155 276.759 62.933C276.543 62.7506 276.366 62.5268 276.237 62.2747C276.109 62.0226 276.032 61.7473 276.012 61.4651C275.995 60.8862 276.205 60.3237 276.597 59.8972C276.989 59.4708 277.532 59.2139 278.11 59.1813C278.392 59.1539 278.677 59.1833 278.948 59.2679C279.218 59.3524 279.469 59.4904 279.686 59.6736C279.902 59.8568 280.079 60.0815 280.207 60.3344C280.335 60.5874 280.411 60.8635 280.431 61.1463Z" fill="#263238"/>
<path d="M213.221 79.7059C214.601 77.4369 216.187 75.3014 218.708 74.3597C221.23 73.418 224.092 72.8768 226.071 71.0379C229.178 68.1831 229.037 63.4376 228.756 59.3001C228.474 55.1626 228.4 50.4022 231.573 47.6217C234.228 45.3008 238.447 45.0932 240.746 42.4312C242.28 40.6591 242.584 38.2122 243.118 35.9506C244.601 29.8927 247.916 19.3116 265.771 13.224L249.977 73.2401C251.156 73.5738 253.974 76.258 254.129 78.0746C254.27 79.7726 253.536 81.4929 253.521 83.1983C253.521 85.2819 255.79 86.5276 257.229 88.0699C259.053 90.0348 259.616 92.8673 259.335 95.4848C258.75 99.0621 257.793 102.569 256.48 105.947C241.828 104.464 220.444 103.99 209.277 94.6469C207.252 92.9563 210.152 84.7554 213.221 79.7059Z" fill="#263238"/>
<path d="M254.479 57.1202C254.204 56.9719 243.416 52.6713 242.726 64.0531C242.036 75.435 253.581 73.7444 253.618 73.4255C253.656 73.1067 254.479 57.1202 254.479 57.1202Z" fill="#FFBE9D"/>
<path d="M250.415 68.9171C250.363 68.8726 250.207 69.0431 249.859 69.1692C249.377 69.3456 248.845 69.327 248.376 69.1173C247.204 68.5982 246.307 66.6333 246.374 64.5868C246.411 63.6117 246.665 62.657 247.115 61.7914C247.245 61.4437 247.455 61.1322 247.73 60.8831C248.005 60.6341 248.336 60.4548 248.695 60.3603C248.926 60.3141 249.166 60.3503 249.373 60.4628C249.581 60.5752 249.742 60.7567 249.829 60.9757C249.963 61.302 249.874 61.5244 249.933 61.5467C249.992 61.5689 250.192 61.3687 250.126 60.8942C250.083 60.6078 249.941 60.3454 249.725 60.1527C249.428 59.8965 249.042 59.7685 248.65 59.7968C248.179 59.8595 247.731 60.0424 247.35 60.3281C246.97 60.6138 246.669 60.9926 246.478 61.428C245.936 62.3843 245.635 63.4584 245.603 64.5571C245.536 66.8483 246.574 69.058 248.19 69.6289C248.489 69.7375 248.809 69.7766 249.125 69.7432C249.441 69.7098 249.745 69.6048 250.015 69.4361C250.378 69.184 250.452 68.9393 250.415 68.9171Z" fill="#EB996E"/>
<path d="M294.853 60.0935C294.913 59.2382 295.034 58.3882 295.216 57.5502C295.559 56.148 296.191 54.8327 297.071 53.6883C297.951 52.544 299.06 51.5958 300.327 50.9043C301.594 50.2128 302.991 49.7932 304.43 49.6722C305.869 49.5513 307.316 49.7318 308.681 50.2021C309.621 50.5191 310.507 50.9793 311.306 51.5664C312.16 52.1567 312.912 52.8831 313.531 53.7167C314.859 55.4565 315.595 57.5764 315.63 59.7652C315.664 61.954 314.996 64.0962 313.723 65.8771C313.136 66.7284 312.415 67.4795 311.588 68.1016C310.809 68.7157 309.938 69.2036 309.008 69.5475C307.287 70.2102 305.421 70.3997 303.602 70.0962C302.016 69.8345 300.515 69.2019 299.22 68.2499C297.324 66.8707 295.948 64.8935 295.312 62.6368C295.108 61.8024 294.959 60.9552 294.867 60.101C294.864 60.1578 294.864 60.2147 294.867 60.2715C294.867 60.4124 294.867 60.5755 294.867 60.7757C294.874 61.0468 294.901 61.317 294.949 61.5839C294.99 61.9521 295.059 62.3166 295.157 62.6739C295.752 64.9956 297.126 67.0425 299.049 68.4724C300.474 69.5382 302.145 70.2264 303.907 70.4727C305.668 70.719 307.464 70.5155 309.126 69.8812C311.099 69.1355 312.806 67.819 314.027 66.0996C315.35 64.2546 316.044 62.0335 316.008 59.7639C315.972 57.4943 315.207 55.2964 313.827 53.4943C313.185 52.6348 312.409 51.8838 311.529 51.2698C310.707 50.6797 309.799 50.2195 308.837 49.9055C307.156 49.3245 305.355 49.1783 303.602 49.4804C301.85 49.7825 300.202 50.523 298.812 51.6332C296.931 53.1253 295.622 55.2203 295.105 57.5651C295.02 57.9263 294.96 58.293 294.927 58.6625C294.89 58.9328 294.873 59.2053 294.875 59.4781C294.875 59.6783 294.875 59.8414 294.875 59.9749C294.866 60.0141 294.858 60.0537 294.853 60.0935Z" fill="#455A64"/>
<path d="M266.202 60.5533C266.261 59.6983 266.38 58.8484 266.558 58.01C267.115 55.7355 268.421 53.7143 270.265 52.2709C271.53 51.2787 273.011 50.598 274.588 50.2837C276.396 49.9262 278.267 50.0568 280.008 50.6618C280.947 50.9819 281.832 51.4419 282.633 52.0262C283.486 52.6185 284.237 53.3446 284.858 54.1765C286.185 55.9152 286.92 58.0331 286.956 60.2201C286.992 62.407 286.327 64.548 285.058 66.3295C284.467 67.1805 283.743 67.9315 282.915 68.5539C282.136 69.1683 281.265 69.6563 280.335 69.9998C278.614 70.6626 276.748 70.852 274.929 70.5485C273.346 70.2871 271.846 69.6544 270.554 68.7022C268.657 67.323 267.278 65.3462 266.639 63.0892C266.435 62.255 266.289 61.4077 266.202 60.5533C266.194 60.6098 266.194 60.6673 266.202 60.7238C266.202 60.8573 266.202 61.0278 266.202 61.228C266.202 61.4992 266.226 61.7697 266.276 62.0363C266.316 62.4051 266.388 62.7698 266.491 63.1262C267.08 65.4506 268.455 67.4995 270.384 68.9247C271.695 69.9097 273.219 70.5749 274.833 70.8674C276.708 71.1905 278.636 71.0062 280.416 70.3335C282.392 69.5934 284.1 68.2757 285.317 66.5519C286.64 64.7069 287.334 62.4858 287.298 60.2162C287.262 57.9467 286.497 55.7487 285.117 53.9466C283.842 52.2657 282.094 51.0033 280.097 50.3207C278.296 49.7052 276.363 49.5849 274.499 49.9722C272.514 50.3803 270.689 51.352 269.242 52.7711C267.796 54.1901 266.789 55.9962 266.343 57.9729C266.251 58.3326 266.191 58.6999 266.165 59.0703C266.121 59.3398 266.103 59.613 266.113 59.8859V60.3827C266.13 60.4454 266.16 60.5036 266.202 60.5533Z" fill="#455A64"/>
<path d="M286.666 59.7748C286.725 59.8118 287.022 59.3299 287.712 58.7738C288.595 58.0407 289.703 57.6303 290.851 57.61C291.999 57.5898 293.12 57.961 294.029 58.6625C294.77 59.189 295.052 59.6636 295.104 59.6191C294.92 59.1507 294.606 58.7444 294.2 58.4475C293.271 57.6346 292.072 57.197 290.838 57.2203C289.604 57.2436 288.423 57.7261 287.526 58.5736C287.132 58.8854 286.834 59.3016 286.666 59.7748Z" fill="#455A64"/>
<path d="M251.868 56.3937C252.551 56.6102 253.254 56.7543 253.967 56.8238C255.279 57.0314 257.096 57.2242 259.098 57.4022L264.236 57.8619C264.94 57.9703 265.652 58.0248 266.364 58.025C265.682 57.8068 264.979 57.6601 264.266 57.5875C262.961 57.3873 261.144 57.1946 259.135 57.0166L254.004 56.5569C253.298 56.4438 252.583 56.3893 251.868 56.3937Z" fill="#455A64"/>
<path d="M311.402 66.5073C312.328 65.438 313.078 64.2293 313.627 62.9259C314.057 61.5763 314.275 60.1679 314.272 58.7513C314.437 59.1503 314.513 59.5805 314.494 60.0118C314.521 61.0504 314.35 62.0846 313.99 63.0593C313.631 64.0342 313.088 64.9306 312.389 65.699C311.847 66.2774 311.432 66.5443 311.402 66.5073Z" fill="white"/>
<path d="M313.197 54.7919C313.257 54.7029 313.679 54.9179 313.939 55.4221C314.198 55.9263 314.087 56.3861 313.983 56.3786C313.879 56.3712 313.79 55.9931 313.59 55.5853C313.39 55.1774 313.13 54.8734 313.197 54.7919Z" fill="white"/>
<path d="M285.227 64.2606C285.168 64.2606 285.375 63.6674 285.546 62.7109C285.983 60.202 285.501 57.6195 284.189 55.4369C283.692 54.6064 283.292 54.1467 283.336 54.1022C283.773 54.421 284.141 54.8245 284.419 55.2886C285.164 56.3667 285.675 57.5881 285.922 58.875C286.168 60.1618 286.144 61.4859 285.85 62.7628C285.746 63.299 285.534 63.8085 285.227 64.2606Z" fill="white"/>
<path d="M245.81 73.2699C245.81 73.2699 245.654 73.4923 245.432 73.9001C245.113 74.4794 244.945 75.1296 244.943 75.7909C244.931 76.2704 245.018 76.7471 245.199 77.1912C245.38 77.6353 245.652 78.0371 245.995 78.3713C246.41 78.7836 246.917 79.0919 247.473 79.271C248.03 79.4501 248.621 79.495 249.199 79.402C249.772 79.2839 250.311 79.0343 250.771 78.6727C251.232 78.3111 251.602 77.8475 251.853 77.3184C252.056 76.8837 252.168 76.4122 252.182 75.9328C252.196 75.4534 252.112 74.9762 251.935 74.5304C251.701 73.9135 251.319 73.3635 250.823 72.9288C250.467 72.6248 250.229 72.4987 250.244 72.4691C250.489 72.5319 250.717 72.6484 250.912 72.8101C251.477 73.2215 251.918 73.7808 252.187 74.4266C252.402 74.9046 252.513 75.4226 252.513 75.9466C252.513 76.4707 252.402 76.9887 252.187 77.4667C251.932 78.0626 251.533 78.5858 251.025 78.9894C250.518 79.3929 249.918 79.6642 249.28 79.7789C248.642 79.8936 247.986 79.848 247.37 79.6463C246.754 79.4447 246.197 79.0932 245.751 78.6234C245.381 78.2528 245.094 77.8081 244.909 77.3186C244.724 76.8291 244.644 76.3059 244.676 75.7835C244.701 75.0854 244.919 74.4079 245.306 73.826C245.565 73.4182 245.81 73.255 245.81 73.2699Z" fill="#E0E0E0"/>
<path d="M308.444 82.0193C309.072 82.2703 309.764 82.312 310.417 82.138C311.115 81.9424 311.745 81.5544 312.233 81.0183C312.836 80.3682 313.242 79.5611 313.405 78.6901C313.575 77.8186 313.466 76.9157 313.093 76.1097C312.788 75.4488 312.334 74.8676 311.766 74.4117C311.218 74.011 310.62 73.6844 309.987 73.4403C310.175 73.4234 310.365 73.4488 310.543 73.5145C311.044 73.6536 311.517 73.8822 311.937 74.1892C312.566 74.652 313.075 75.2599 313.42 75.9614C313.843 76.8283 313.973 77.8094 313.79 78.7568C313.609 79.7037 313.156 80.5772 312.485 81.2704C311.942 81.8376 311.243 82.2321 310.476 82.4049C309.962 82.5262 309.425 82.4979 308.926 82.3233C308.578 82.1825 308.43 82.0342 308.444 82.0193Z" fill="#E0E0E0"/>
<path d="M267.313 229.249L278.31 232.504C278.31 232.504 284.375 235.107 287.326 235.782C290.989 236.62 293.488 235.485 293.621 233.446C293.755 231.407 290.907 231.148 290.907 231.148C288.487 230.226 286.134 229.138 283.863 227.892C282.215 226.747 280.866 225.221 279.933 223.444L283.863 223.985C283.863 223.985 292.131 229.917 295.245 231.711C298.359 233.505 299.042 230.354 299.308 229.405C299.575 228.456 290.099 218.839 290.099 218.839C290.099 218.839 299.175 224.667 300.799 226.12C302.423 227.574 304.87 228.048 305.411 227.106C305.952 226.165 307.443 226.157 305.411 222.138C303.379 218.12 287.118 207.309 287.118 207.309L291.567 206.36L296.446 208.532C296.786 210.206 297.479 211.789 298.478 213.174C300.235 215.784 303.357 213.174 303.357 213.174L301.422 203.164L291.782 197.128C291.782 197.128 281.757 198.352 280.267 199.026C278.777 199.701 277.145 202.541 277.145 202.541L274.439 203.638C270.235 204.854 270.376 209.059 269.019 209.192C267.662 209.326 228.111 201.614 228.111 201.614L224.529 200.68C218.597 205.181 216.232 212.618 215.187 219.217C215.187 219.217 214.097 222.45 215.187 224.229L267.313 229.249Z" fill="#FFBE9D"/>
<path d="M260.055 222.213C260.008 222.001 259.995 221.783 260.018 221.567C260.015 221.319 260.037 221.07 260.084 220.826C260.119 220.49 260.183 220.157 260.277 219.832C260.834 217.96 261.776 216.225 263.043 214.738C264.273 213.244 265.644 211.871 267.136 210.638C267.727 210.099 268.37 209.619 269.056 209.207C268.508 209.775 267.926 210.31 267.314 210.808C265.888 212.087 264.559 213.47 263.339 214.946C262.108 216.401 261.16 218.073 260.544 219.877C260.107 221.293 260.136 222.22 260.055 222.213Z" fill="#EB996E"/>
<path d="M277.183 202.541C277.183 202.541 276.857 202.711 276.353 203.119C275.65 203.713 275.042 204.41 274.551 205.188C274.196 205.714 273.893 206.272 273.646 206.856C273.418 207.543 273.274 208.255 273.216 208.977C273.114 209.816 272.814 210.619 272.341 211.32C271.804 211.998 271.363 212.747 271.029 213.545C270.521 214.892 270.521 216.379 271.029 217.727L271.081 217.867L270.955 217.949C269.235 219.059 267.991 220.769 267.462 222.746C267.28 223.526 267.168 224.32 267.128 225.119C267.068 224.912 267.043 224.697 267.054 224.481C267.046 223.88 267.111 223.28 267.247 222.694C267.72 220.618 268.98 218.805 270.762 217.638L270.688 217.86C270.151 216.426 270.151 214.845 270.688 213.411C271.03 212.59 271.489 211.823 272.052 211.135C272.503 210.47 272.788 209.708 272.882 208.91C272.972 207.497 273.489 206.144 274.365 205.032C274.889 204.244 275.546 203.554 276.308 202.993C276.513 202.839 276.738 202.712 276.975 202.615C277.041 202.582 277.111 202.557 277.183 202.541Z" fill="#EB996E"/>
<path d="M286.703 206.975C285.754 207.098 284.79 206.995 283.888 206.676C282.986 206.356 282.172 205.829 281.513 205.136C281.587 205.047 282.58 205.811 284.012 206.308C285.443 206.804 286.703 206.864 286.703 206.975Z" fill="#EB996E"/>
<path d="M289.239 217.927C287.807 217.525 286.415 216.994 285.079 216.34C283.692 215.807 282.352 215.157 281.075 214.397C282.503 214.81 283.895 215.341 285.235 215.984C286.622 216.517 287.962 217.167 289.239 217.927Z" fill="#EB996E"/>
<path d="M280.319 223.34C278.88 222.852 277.473 222.272 276.107 221.604C276.881 221.639 277.639 221.836 278.332 222.183C279.071 222.419 279.749 222.813 280.319 223.34Z" fill="#EB996E"/>
<path d="M287.874 218.631C287.236 218.974 286.675 219.443 286.225 220.011C285.774 220.578 285.445 221.232 285.257 221.931C285.205 221.931 285.161 221.672 285.257 221.256C285.362 220.712 285.596 220.202 285.939 219.767C286.282 219.332 286.725 218.986 287.229 218.757C287.593 218.602 287.86 218.587 287.874 218.631Z" fill="#EB996E"/>
<path d="M291.849 212.618C291.894 212.722 291.167 213.092 290.678 213.923C290.429 214.45 290.22 214.995 290.055 215.554C289.95 215.248 289.922 214.921 289.974 214.601C290.025 214.282 290.155 213.98 290.352 213.723C290.915 212.774 291.835 212.514 291.849 212.618Z" fill="#EB996E"/>
<path d="M290.731 201.725C290.694 201.725 290.545 201.555 290.434 201.199C290.301 200.713 290.301 200.201 290.434 199.716C290.563 199.236 290.82 198.801 291.176 198.455C291.443 198.196 291.665 198.107 291.687 198.144C291.334 198.662 291.047 199.222 290.835 199.812C290.724 200.443 290.689 201.086 290.731 201.725Z" fill="#EB996E"/>
<path d="M370.893 205.136C370.893 205.136 370.396 195.408 360.312 193.391C350.227 191.374 332.565 199.946 332.565 199.946L283.078 234.432L284.561 238.696L334.79 231.696L339.387 233.461L374.667 210.282L407.96 186.213L404.252 183.314C404.252 183.314 394.924 189.743 388.755 192.508C382.586 195.274 373.666 200.124 370.893 205.136Z" fill="#F5F5F5"/>
<path d="M282.313 240.105L324.193 214.086L368.467 206.975C368.467 206.975 370.691 210.193 374.451 209.407L410.858 184.196L411.548 185.716L340.943 235.322C339.906 235.701 338.786 235.789 337.702 235.577C336.619 235.366 335.614 234.862 334.796 234.121L282.313 240.105Z" fill="#455A64"/>
<path d="M368.468 206.975C368.368 207.084 368.253 207.179 368.127 207.257L367.104 207.998C366.214 208.636 364.931 209.563 363.396 210.734C360.252 213.07 355.981 216.399 351.369 220.174C346.757 223.948 342.612 227.455 339.646 230.013L336.109 233.053L335.145 233.869C335.041 233.972 334.924 234.062 334.797 234.136C334.797 234.136 334.886 234.017 335.093 233.817L336.006 232.942C336.806 232.2 337.97 231.118 339.439 229.82C342.36 227.21 346.46 223.681 351.095 219.892C355.729 216.103 359.993 212.811 363.203 210.527C364.79 209.377 366.103 208.488 367.022 207.887L368.082 207.205C368.204 207.117 368.333 207.04 368.468 206.975Z" fill="#263238"/>
<path d="M368.015 201.562C364.003 197.254 357.686 195.719 351.813 196.179C345.941 196.639 340.372 198.826 334.893 200.999L283.663 236.064L284.123 237.384L335.627 202.534C335.627 202.534 347.135 198.826 352.229 198.189C360.741 197.128 368.015 201.562 368.015 201.562Z" fill="#E0E0E0"/>
<path d="M376.053 206.174L400.685 189.557C400.685 189.557 380.502 200.057 376.053 206.174Z" fill="#E0E0E0"/>
<path d="M283.663 236.064C283.726 236 283.796 235.942 283.871 235.893L284.508 235.441L286.963 233.713L296.039 227.425L326.069 206.805L334.789 200.873C339.75 198.634 344.986 197.061 350.36 196.194C354.701 195.581 359.127 196.205 363.128 197.996C364.625 198.692 366.004 199.617 367.214 200.739C368.119 201.583 368.89 202.561 369.498 203.638C369.88 204.314 370.179 205.034 370.388 205.781C370.44 206.026 370.484 206.219 370.521 206.367C370.537 206.433 370.55 206.5 370.558 206.567C370.292 205.567 369.898 204.605 369.387 203.705C368.763 202.656 367.989 201.704 367.088 200.88C365.874 199.793 364.504 198.893 363.025 198.211C359.061 196.488 354.697 195.902 350.419 196.52C345.089 197.394 339.894 198.956 334.967 201.169H335.004L326.284 207.101L296.231 227.648L287.081 233.839L284.59 235.5L283.93 235.93C283.846 235.984 283.756 236.029 283.663 236.064Z" fill="#263238"/>
<path d="M328.509 209.555C328.626 209.459 328.755 209.379 328.894 209.318C329.154 209.177 329.539 208.962 330.036 208.71C331.037 208.191 332.498 207.464 334.337 206.634C339.105 204.399 344.165 202.849 349.367 202.029C354.596 201.24 359.939 201.728 364.938 203.453C366.441 203.995 367.884 204.688 369.246 205.522C369.736 205.803 370.084 206.078 370.329 206.263C370.458 206.343 370.58 206.435 370.692 206.538C370.692 206.538 370.151 206.226 369.172 205.67C367.793 204.895 366.346 204.248 364.849 203.735C359.873 202.102 354.583 201.658 349.404 202.437C344.239 203.254 339.206 204.75 334.433 206.886C332.587 207.687 331.111 208.369 330.088 208.851L328.917 209.392C328.786 209.46 328.65 209.515 328.509 209.555Z" fill="#263238"/>
<path d="M406.639 185.168C406.639 185.168 406.535 185.264 406.32 185.413L405.364 186.05L401.812 188.334C398.801 190.262 394.656 192.924 390.111 195.92C385.566 198.915 381.502 201.666 378.536 203.668L375.029 206.026L374.065 206.656C373.958 206.735 373.841 206.8 373.717 206.849C373.809 206.752 373.911 206.665 374.021 206.59L374.948 205.9C375.748 205.307 376.92 204.469 378.381 203.438C381.302 201.384 385.366 198.589 389.918 195.593C394.471 192.598 398.646 189.973 401.686 188.104C403.206 187.17 404.444 186.429 405.304 185.924L406.305 185.346C406.411 185.276 406.522 185.217 406.639 185.168Z" fill="#263238"/>
<path d="M384.232 211.832C383.729 213.042 383.089 214.192 382.326 215.257C381.377 216.384 378.278 217.956 378.033 220.099C377.788 222.242 378.292 227.269 374.941 231.096C372.78 233.476 370.046 235.262 366.999 236.286L353.779 234.996L332.661 226.684C332.189 226.564 331.783 226.264 331.531 225.848C331.278 225.432 331.199 224.933 331.312 224.459C331.443 223.944 331.724 223.48 332.12 223.126C332.517 222.772 333.01 222.544 333.536 222.472L334.04 222.391C334.04 222.391 332.824 221.397 334.567 219.654C336.05 218.171 339.216 219.009 340.847 219.551C342.478 220.092 352.044 224.089 353.756 224.704C355.277 225.245 356.448 225.727 356.448 225.727C356.448 225.727 344.206 217.467 344.036 216.384C343.835 215.087 343.969 214.494 345.222 213.589C346.705 212.514 349.137 213.663 351.495 214.657C353.252 215.398 364.456 220.93 364.456 220.93C364.456 220.93 364.96 220.44 364.456 219.447C363.952 218.453 360.23 213.663 359.644 212.773C359.058 211.884 358.902 211.379 359.488 210.631C360.304 209.57 362.454 209.066 364.434 210.875C365.687 212.032 370.143 215.028 370.143 215.028L390.712 200.02C390.712 200.02 393.27 199.953 392.381 203.52C391.491 207.086 384.232 211.832 384.232 211.832Z" fill="#FFBE9D"/>
<path d="M368.897 224.341C368.074 224.158 367.307 223.779 366.662 223.237C366.017 222.695 365.512 222.005 365.189 221.226C365.286 221.167 365.886 222.087 366.91 222.939C367.933 223.792 368.949 224.229 368.897 224.341Z" fill="#EB996E"/>
<path d="M370.588 215.391C370.588 215.346 370.862 215.265 371.329 215.324C371.912 215.409 372.46 215.652 372.914 216.027C373.368 216.403 373.71 216.896 373.902 217.452C374.043 217.882 374.021 218.194 373.969 218.194C373.658 217.501 373.215 216.877 372.664 216.355C372.041 215.902 371.336 215.574 370.588 215.391Z" fill="#EB996E"/>
<path d="M371.56 219.521C371.448 219.521 371.396 218.416 370.959 217.156C370.521 215.895 369.906 214.968 369.995 214.931C370.647 215.487 371.11 216.23 371.322 217.059C371.654 217.836 371.737 218.696 371.56 219.521Z" fill="#EB996E"/>
<path d="M383.727 210.764C383.727 210.801 383.468 210.653 383.201 210.297C382.862 209.824 382.651 209.273 382.586 208.695C382.521 208.118 382.605 207.533 382.83 206.997C383.008 206.597 383.208 206.397 383.245 206.426C382.981 207.137 382.887 207.899 382.971 208.652C383.054 209.406 383.314 210.129 383.727 210.764Z" fill="#EB996E"/>
<path d="M365.138 229.516C364.662 229.625 364.168 229.625 363.692 229.516C362.54 229.312 361.434 228.9 360.43 228.3C359.429 227.712 358.488 227.03 357.619 226.261C357.233 225.977 356.89 225.638 356.604 225.253C357.03 225.467 357.429 225.734 357.79 226.046C358.694 226.744 359.64 227.385 360.622 227.967C361.595 228.543 362.647 228.975 363.744 229.249C364.589 229.427 365.138 229.457 365.138 229.516Z" fill="#EB996E"/>
<path d="M368.579 227.395C368.683 227.395 368.691 228.137 368.068 228.752C367.445 229.368 366.689 229.338 366.703 229.234C366.718 229.131 367.289 228.982 367.793 228.493C368.298 228.003 368.468 227.381 368.579 227.395Z" fill="#EB996E"/>
<path d="M373.628 223.688C373.673 223.688 373.673 223.888 373.532 224.155C373.337 224.484 373.044 224.744 372.694 224.897C372.346 225.066 371.955 225.123 371.574 225.06C371.278 225.001 371.129 224.882 371.152 224.838C371.174 224.793 371.834 224.897 372.531 224.548C373.228 224.2 373.524 223.651 373.628 223.688Z" fill="#EB996E"/>
<path d="M355.818 232.104C355.781 232.201 350.865 230.154 344.844 227.522C338.823 224.89 333.974 222.672 334.048 222.583C334.122 222.495 339.008 224.541 345.029 227.173C351.05 229.806 355.862 232.008 355.818 232.104Z" fill="#EB996E"/>
<path d="M118.067 159.727L134.157 238.718H273.817C274.556 238.718 275.265 238.424 275.788 237.901C276.311 237.379 276.605 236.669 276.605 235.93C276.606 235.563 276.534 235.2 276.395 234.861C276.255 234.522 276.05 234.213 275.791 233.954C275.532 233.694 275.224 233.488 274.885 233.347C274.547 233.207 274.183 233.135 273.817 233.135H245.699L230.781 159.646C230.642 158.96 230.272 158.343 229.732 157.898C229.191 157.454 228.514 157.209 227.815 157.206L121.092 156.064C120.637 156.059 120.186 156.157 119.773 156.349C119.36 156.541 118.995 156.822 118.705 157.174C118.415 157.525 118.208 157.936 118.097 158.378C117.987 158.82 117.976 159.281 118.067 159.727Z" fill="#F9B01C"/>
<path d="M118.067 159.727L118.023 159.49C117.992 159.244 117.992 158.995 118.023 158.749C118.075 158.276 118.237 157.822 118.494 157.422C118.751 157.022 119.097 156.687 119.506 156.443C119.789 156.268 120.1 156.143 120.425 156.072C120.788 156.012 121.155 155.989 121.522 156.005H124.036L130.324 156.057L170.683 156.435L198.815 156.724L214.579 156.88L222.839 156.969L227.066 157.014C227.429 157.014 227.763 157.014 228.149 157.014C228.525 157.056 228.892 157.164 229.231 157.332C229.916 157.666 230.458 158.235 230.759 158.934C230.898 159.28 230.997 159.641 231.055 160.009L231.27 161.07C231.411 161.811 231.559 162.493 231.708 163.205C231.994 164.634 232.286 166.072 232.583 167.521C233.171 170.412 233.767 173.341 234.37 176.307C235.576 182.239 236.812 188.302 238.077 194.496C240.591 206.879 243.216 219.758 245.907 233.053L245.722 232.905H273.372C273.737 232.891 274.102 232.914 274.462 232.972C275.204 233.131 275.857 233.569 276.286 234.195C276.72 234.819 276.898 235.587 276.783 236.338C276.715 236.793 276.543 237.227 276.279 237.604C276.015 237.981 275.667 238.291 275.263 238.511C274.855 238.728 274.404 238.849 273.943 238.867H199.727H134.157H134.039V238.748C129.115 214.464 125.141 194.718 122.346 181.03C120.966 174.194 119.899 168.87 119.172 165.252C118.816 163.442 118.544 162.071 118.356 161.136C118.171 160.202 118.089 159.727 118.089 159.727C118.089 159.727 118.201 160.202 118.393 161.121C118.586 162.041 118.883 163.435 119.254 165.229C119.995 168.848 121.1 174.164 122.509 181.001C125.311 194.681 129.353 214.42 134.328 238.689L134.18 238.57L199.75 238.533H273.913C274.312 238.517 274.702 238.413 275.055 238.229C275.406 238.036 275.708 237.765 275.938 237.437C276.168 237.11 276.32 236.734 276.382 236.338C276.478 235.681 276.325 235.012 275.952 234.462C275.573 233.921 275.004 233.543 274.358 233.402C274.024 233.351 273.687 233.332 273.35 233.342H245.544V233.194C242.852 219.914 240.235 207.034 237.729 194.637C236.468 188.438 235.232 182.373 234.021 176.441L232.242 167.654C231.952 166.208 231.656 164.77 231.367 163.346C231.226 162.604 231.077 161.915 230.937 161.21L230.721 160.143C230.666 159.799 230.577 159.461 230.455 159.134C230.251 158.666 229.926 158.261 229.515 157.958C229.103 157.656 228.619 157.468 228.111 157.414C227.785 157.414 227.414 157.414 227.066 157.414L222.839 157.362L214.572 157.273L198.815 157.088L170.676 156.754L130.317 156.257L124.036 156.176L121.522 156.139C121.161 156.116 120.797 156.136 120.44 156.198C120.121 156.264 119.816 156.382 119.535 156.546C119.135 156.78 118.794 157.102 118.537 157.487C118.28 157.873 118.114 158.312 118.052 158.771C118.023 159.089 118.028 159.41 118.067 159.727Z" fill="#EE7411"/>
<path d="M177.809 200.487C180.356 200.487 182.421 198.422 182.421 195.875C182.421 193.328 180.356 191.263 177.809 191.263C175.262 191.263 173.197 193.328 173.197 195.875C173.197 198.422 175.262 200.487 177.809 200.487Z" fill="white"/>
<path d="M118.2 160.387C118.2 160.387 118.363 160.387 118.682 160.387H125.519L145.487 160.484L211.368 160.944L220.896 161.025H223.239C223.639 161.01 224.039 161.035 224.433 161.099C225.037 161.222 225.594 161.509 226.044 161.929C226.495 162.35 226.82 162.886 226.984 163.479C227.162 164.221 227.288 164.962 227.444 165.704L230.847 182.862C233.005 193.799 234.955 203.624 236.586 211.921C238.218 220.218 239.552 226.877 240.427 231.511C240.872 233.817 241.213 235.611 241.45 236.842C241.562 237.443 241.651 237.91 241.71 238.236C241.769 238.563 241.784 238.711 241.784 238.711C241.784 238.711 241.74 238.555 241.673 238.244C241.606 237.932 241.502 237.458 241.376 236.857L240.279 231.57C239.345 226.936 237.995 220.255 236.319 212.002C234.644 203.75 232.686 193.888 230.499 182.958C229.409 177.494 228.274 171.754 227.073 165.808C226.917 165.066 226.784 164.325 226.621 163.583C226.425 162.879 225.976 162.272 225.36 161.878C225.055 161.682 224.715 161.546 224.359 161.477C223.987 161.417 223.609 161.394 223.232 161.411H220.896L211.368 161.337L145.487 160.758L125.519 160.536L120.091 160.387H118.675H118.2Z" fill="#EE7411"/>
<path d="M475.727 176.77C478.975 175.095 482.793 174.88 486.397 175.473C488.332 175.792 490.349 176.37 491.669 177.831C492.989 179.291 493.233 181.842 491.728 183.088C490.752 183.752 489.573 184.051 488.399 183.933C485.581 183.933 482.467 183.407 480.198 185.105C478.908 186.069 478.055 187.678 476.491 188.152C475.722 188.331 474.917 188.254 474.196 187.934C473.475 187.615 472.877 187.069 472.494 186.38C471.764 184.964 471.602 183.322 472.042 181.79C472.227 180.726 472.657 179.719 473.296 178.848C473.935 177.978 474.767 177.266 475.727 176.77Z" fill="#EBEBEB"/>
<path d="M468.312 162.415C470.3 165.248 474.155 164.313 475.942 162.578C477.729 160.843 478.486 158.344 479.175 155.949C480.747 150.485 482.334 144.753 481.162 139.192C480.881 137.505 480.142 135.928 479.027 134.632C478.459 133.996 477.734 133.519 476.925 133.25C476.116 132.981 475.251 132.928 474.415 133.097C472.472 133.616 471.264 135.514 470.389 137.331C467.813 142.68 466.462 148.537 466.437 154.474C466.437 157.24 466.755 160.131 468.312 162.415Z" fill="#EBEBEB"/>
<path d="M462.863 166.478C465.02 163.928 465.428 160.19 464.464 156.987C463.5 153.784 461.343 151.055 458.844 148.831C455.902 146.222 452.482 144.208 448.774 142.899C447.338 142.328 445.795 142.075 444.251 142.157C443.478 142.2 442.726 142.432 442.063 142.833C441.4 143.234 440.845 143.791 440.447 144.456C439.387 146.473 440.403 148.905 441.508 150.922C443.443 154.446 445.652 157.813 448.114 160.991C450.102 163.549 452.371 166.07 455.388 167.227C458.406 168.384 461.55 168.199 463.122 166.122" fill="#EBEBEB"/>
<path d="M468.179 205.177C468.283 204.754 468.343 204.322 468.357 203.886C468.446 202.952 468.564 201.773 468.698 200.372C468.871 198.641 469.136 196.921 469.491 195.218C469.953 193.142 470.58 191.107 471.367 189.131C472.137 187.157 473.183 185.302 474.474 183.622C475.526 182.256 476.868 181.141 478.404 180.359C479.444 179.842 480.561 179.494 481.711 179.328C482.144 179.314 482.574 179.251 482.994 179.143C482.56 179.095 482.122 179.095 481.689 179.143C480.495 179.234 479.327 179.538 478.241 180.04C476.621 180.803 475.202 181.933 474.096 183.34C472.747 185.04 471.66 186.931 470.87 188.953C470.073 190.957 469.451 193.026 469.009 195.137C468.677 196.864 468.449 198.61 468.327 200.364C468.216 201.847 468.171 203.063 468.149 203.901C468.114 204.326 468.124 204.754 468.179 205.177Z" fill="#E0E0E0"/>
<path d="M468.424 202.47C468.446 202.273 468.446 202.074 468.424 201.877V200.164C468.424 198.681 468.424 196.538 468.498 193.884C468.631 188.582 469.083 182.88 469.981 174.835C470.819 167.272 471.938 158.47 473.117 152.746C473.369 151.441 473.629 150.27 473.859 149.246C474.089 148.223 474.289 147.333 474.474 146.614L474.875 144.953C474.933 144.76 474.968 144.561 474.978 144.36C474.891 144.54 474.821 144.729 474.771 144.923C474.637 145.353 474.474 145.895 474.274 146.562C474.074 147.229 473.829 148.149 473.569 149.18C473.31 150.21 473.021 151.367 472.746 152.665C471.281 159.432 470.18 166.274 469.447 173.159C468.564 181.227 468.164 188.56 468.127 193.876C468.127 196.538 468.127 198.689 468.223 200.172C468.223 200.869 468.297 201.432 468.327 201.877C468.332 202.078 468.365 202.278 468.424 202.47Z" fill="#E0E0E0"/>
<path d="M468.453 188.315C468.498 187.72 468.498 187.123 468.453 186.528C468.386 185.386 468.223 183.725 467.904 181.694C467.513 179.318 466.989 176.966 466.332 174.65C465.558 171.797 464.567 169.009 463.367 166.308C461.325 161.326 458.393 156.758 454.713 152.828C454.076 152.153 453.395 151.521 452.674 150.937C452.363 150.67 452.088 150.41 451.807 150.195L451.021 149.647C450.55 149.29 450.055 148.968 449.538 148.683C449.449 148.801 451.666 150.106 454.461 153.08C458.016 157.044 460.87 161.585 462.899 166.508C464.073 169.194 465.064 171.956 465.865 174.776C466.541 177.072 467.1 179.401 467.541 181.753C467.912 183.762 468.119 185.401 468.283 186.543C468.293 187.137 468.35 187.73 468.453 188.315Z" fill="#E0E0E0"/>
<path d="M454.773 213.289L456.19 232.723H481.156L482.579 213.289H454.773Z" fill="#E0E0E0"/>
<path d="M485.552 205.629H452.363V213.288H485.552V205.629Z" fill="#E0E0E0"/>
<path d="M452.363 231.974V234.102H453.92H485.004V231.974H452.363Z" fill="#EBEBEB"/>
<path d="M455.447 237.839L453.92 234.102H483.817L482.03 237.839H455.447Z" fill="#E0E0E0"/>
<path d="M482.112 219.636C482.112 219.636 482.075 219.703 481.993 219.821L481.622 220.311C481.266 220.763 480.784 221.393 480.139 222.172L480.072 222.253L480.013 222.172L476.469 217.226H476.676L473.154 222.209L473.043 222.364L472.925 222.216L468.75 217.256H468.987C468.92 217.352 468.839 217.448 468.757 217.545L465.05 222.224L464.931 222.379L464.813 222.216C463.545 220.429 462.366 218.753 461.298 217.241H461.498L457.168 222.179L457.086 222.268L457.027 222.164L455.67 219.888L455.322 219.28C455.28 219.212 455.245 219.14 455.218 219.065C455.218 219.065 455.27 219.124 455.366 219.258L455.744 219.843C456.093 220.385 456.575 221.134 457.175 222.068H457.034L461.305 217.07L461.409 216.944L461.506 217.078L465.057 222.038H464.82L468.528 217.352L468.757 217.063L468.876 216.915L468.995 217.063L473.154 222.038H472.925L476.476 217.085L476.58 216.937L476.684 217.085L480.176 222.075H480.05L481.533 220.259L481.941 219.792C481.992 219.733 482.049 219.681 482.112 219.636Z" fill="#F5F5F5"/>
<path d="M482.92 213.162C482.92 213.244 476.669 213.318 468.95 213.318C461.231 213.318 454.98 213.244 454.98 213.162C454.98 213.081 461.239 213.007 468.95 213.007C476.662 213.007 482.92 213.073 482.92 213.162Z" fill="#F5F5F5"/>
<path d="M484.18 234.31C484.18 234.399 477.388 234.466 469.002 234.466C460.616 234.466 453.816 234.399 453.816 234.31C453.816 234.221 460.616 234.154 469.002 234.154C477.388 234.154 484.18 234.191 484.18 234.31Z" fill="#F5F5F5"/>
</svg>
