<svg width="530" height="247" viewBox="0 0 530 247" fill="none" xmlns="http://www.w3.org/2000/svg">
<path d="M0 10C0 4.47716 4.47715 0 10 0H520C525.523 0 530 4.47715 530 10V237C530 242.523 525.523 247 520 247H9.99999C4.47715 247 0 242.523 0 237V10Z" fill="#D9D9D9"/>
<path d="M458.003 19.0146H407.44V71.7197H458.003V19.0146Z" fill="#E0E0E0"/>
<path d="M454.577 19.0146H404.015V71.7197H454.577V19.0146Z" fill="#FAFAFA"/>
<path d="M454.562 71.7421H404V19H454.562V71.7421ZM404 71.705H454.562V19.0593H404.03L404 71.705Z" fill="#E0E0E0"/>
<path d="M447.785 26.1035H410.814V64.6387H447.785V26.1035Z" fill="#FAFAFA"/>
<path d="M410.814 64.8906C410.551 65.2776 410.245 65.6334 409.902 65.9509C409.309 66.5738 408.478 67.4339 407.551 68.3385C406.625 69.2432 405.764 70.0662 405.134 70.652C404.813 70.9878 404.455 71.2863 404.066 71.5418C404.325 71.1536 404.628 70.7977 404.971 70.4814C405.564 69.8586 406.395 68.9985 407.329 68.0939C408.263 67.1892 409.116 66.3588 409.746 65.7804C410.068 65.4446 410.426 65.1461 410.814 64.8906Z" fill="#E0E0E0"/>
<path d="M447.785 64.8018C448.173 65.0638 448.529 65.3698 448.846 65.7138C449.468 66.2996 450.328 67.13 451.226 68.0643C452.123 68.9986 452.961 69.8439 453.539 70.4742C453.875 70.7955 454.173 71.1536 454.429 71.5419C454.036 71.2894 453.68 70.9851 453.369 70.6373C452.746 70.0441 451.886 69.2136 450.981 68.2793C450.076 67.3451 449.246 66.4924 448.668 65.8621C448.331 65.5462 448.035 65.1901 447.785 64.8018Z" fill="#E0E0E0"/>
<path d="M447.681 26.1996C447.955 25.8126 448.273 25.4592 448.63 25.1466C449.223 24.5238 450.053 23.6637 450.98 22.7665C451.907 21.8693 452.767 21.0314 453.398 20.453C453.717 20.1151 454.075 19.8165 454.465 19.5632C454.206 19.9524 453.899 20.3085 453.553 20.6236C452.967 21.2464 452.137 22.1065 451.203 23.0112C450.268 23.9158 449.408 24.7462 448.778 25.3246C448.45 25.661 448.082 25.9549 447.681 26.1996Z" fill="#E0E0E0"/>
<path d="M410.71 26.2964C410.321 26.0366 409.965 25.7303 409.65 25.3843C409.027 24.7986 408.167 23.9681 407.27 23.0338C406.372 22.0996 405.535 21.2468 404.956 20.6166C404.618 20.2972 404.32 19.9388 404.066 19.5488C404.45 19.8124 404.804 20.1183 405.119 20.4609C405.742 21.0466 406.602 21.8845 407.507 22.8114C408.412 23.7382 409.249 24.6058 409.828 25.2361C410.164 25.5519 410.461 25.908 410.71 26.2964Z" fill="#E0E0E0"/>
<path d="M447.681 64.6385C447.681 64.6385 447.681 64.5718 447.681 64.4532C447.681 64.3345 447.681 64.1418 447.681 63.9119C447.681 63.4299 447.681 62.7329 447.681 61.8283C447.681 60.0042 447.681 57.3794 447.644 53.9759C447.644 47.2284 447.599 37.6113 447.57 26.1034L447.71 26.2443H410.844L411.007 26.0811C411.007 40.2213 411.007 53.4569 411.007 64.6385L410.866 64.4977L437.559 64.5718L445.056 64.6089H447.043H445.086H437.619L410.836 64.683H410.695V64.5422C410.695 53.4198 410.695 40.1472 410.695 25.9847V25.8142H410.814H447.681H447.822V25.9625C447.822 37.5075 447.77 47.1543 447.748 53.9315C447.748 57.2904 447.748 59.9301 447.71 61.7467C447.71 62.6439 447.71 63.3261 447.71 63.8007C447.71 64.0231 447.71 64.2011 447.71 64.3271C447.711 64.4317 447.701 64.536 447.681 64.6385Z" fill="#E0E0E0"/>
<path d="M435.469 39.1982H423.131V51.5366H435.469V39.1982Z" fill="#EBEBEB"/>
<path d="M458.003 84.2214H407.44V136.926H458.003V84.2214Z" fill="#E0E0E0"/>
<path d="M454.577 84.2214H404.015V136.926H454.577V84.2214Z" fill="#FAFAFA"/>
<path d="M454.562 136.949H404V84.2065H454.562V136.949ZM404 136.912H454.562V84.2659H404.03L404 136.912Z" fill="#E0E0E0"/>
<path d="M447.785 91.3101H410.814V129.845H447.785V91.3101Z" fill="#FAFAFA"/>
<path d="M410.814 130.104C410.549 130.49 410.243 130.845 409.902 131.165C409.309 131.788 408.478 132.648 407.551 133.545C406.625 134.442 405.764 135.28 405.134 135.858C404.813 136.194 404.455 136.493 404.066 136.748C404.325 136.36 404.628 136.004 404.971 135.688C405.564 135.065 406.395 134.205 407.329 133.3C408.263 132.396 409.116 131.565 409.746 130.987C410.064 130.649 410.422 130.352 410.814 130.104Z" fill="#E0E0E0"/>
<path d="M447.785 130.009C448.173 130.271 448.529 130.577 448.846 130.921C449.468 131.506 450.328 132.337 451.226 133.271C452.123 134.205 452.961 135.051 453.539 135.681C453.878 136.002 454.177 136.363 454.429 136.756C454.04 136.496 453.684 136.19 453.369 135.844C452.746 135.258 451.886 134.42 450.981 133.494C450.076 132.567 449.246 131.699 448.668 131.069C448.331 130.753 448.035 130.397 447.785 130.009Z" fill="#E0E0E0"/>
<path d="M447.681 91.4139C447.939 91.0213 448.245 90.6625 448.593 90.3461C449.186 89.7233 450.016 88.8631 450.943 87.9659C451.87 87.0687 452.73 86.2383 453.36 85.6525C453.68 85.3146 454.038 85.0159 454.428 84.7627C454.168 85.1519 453.862 85.508 453.516 85.823C452.93 86.4459 452.1 87.306 451.166 88.2106C450.231 89.1152 449.371 89.9457 448.741 90.5241C448.421 90.8585 448.066 91.1569 447.681 91.4139Z" fill="#E0E0E0"/>
<path d="M410.71 91.5028C410.321 91.2431 409.965 90.9368 409.65 90.5908C409.027 90.005 408.167 89.1746 407.27 88.2403C406.372 87.306 405.535 86.4607 404.956 85.8304C404.62 85.5091 404.322 85.151 404.066 84.7627C404.454 85.0188 404.808 85.3228 405.119 85.6673C405.742 86.2531 406.602 87.091 407.507 88.0178C408.412 88.9447 409.249 89.8122 409.828 90.4425C410.164 90.7584 410.461 91.1145 410.71 91.5028Z" fill="#E0E0E0"/>
<path d="M447.682 129.845C447.682 129.845 447.682 129.778 447.682 129.66C447.682 129.541 447.682 129.348 447.682 129.118C447.682 128.636 447.682 127.939 447.682 127.042C447.682 125.211 447.682 122.593 447.645 119.183C447.645 112.435 447.6 102.818 447.571 91.3099L447.712 91.4508H410.845L411.008 91.2877C411.008 105.428 411.008 118.663 411.008 129.845L410.815 129.697L437.509 129.771H445.005H446.992H445.035H437.568L410.785 129.845H410.645V129.704C410.645 118.582 410.645 105.309 410.645 91.1468V91.1394H410.815H447.682H447.823V91.2877C447.823 102.833 447.771 112.479 447.749 119.257C447.749 122.616 447.749 125.255 447.712 127.079C447.712 127.969 447.712 128.651 447.712 129.126C447.712 129.348 447.712 129.526 447.712 129.652C447.706 129.717 447.696 129.782 447.682 129.845Z" fill="#E0E0E0"/>
<path d="M435.469 104.405H423.131V116.743H435.469V104.405Z" fill="#EBEBEB"/>
<path d="M297.684 77.4817L298.121 78.2232C298.615 79.0382 299.33 79.6965 300.183 80.1214L300.924 80.4921L300.183 80.937C299.364 81.4268 298.705 82.1426 298.284 82.9984L297.906 83.7399L297.469 82.9984C296.977 82.1817 296.262 81.523 295.408 81.1002L294.666 80.722L295.408 80.2845C296.224 79.7928 296.883 79.0775 297.306 78.2232L297.684 77.4817Z" fill="#E0E0E0"/>
<path d="M375.828 57.0237L376.266 57.7652C376.752 58.5916 377.468 59.2589 378.327 59.6856L379.069 60.0638L378.327 60.5013C377.511 60.993 376.852 61.7083 376.429 62.5626L376.051 63.3041L375.613 62.5626C375.12 61.7475 374.405 61.0893 373.552 60.6644L372.811 60.2862L373.552 59.8488C374.369 59.357 375.027 58.6417 375.45 57.7874L375.828 57.0237Z" fill="#E0E0E0"/>
<path d="M336.011 32.2507L336.234 32.6141C336.479 33.0225 336.837 33.3519 337.264 33.5632L337.65 33.756L337.286 33.971C336.874 34.2172 336.542 34.5778 336.33 35.0091L336.145 35.3872L335.922 35.0239C335.678 34.6138 335.32 34.2839 334.891 34.0748L334.506 33.882L334.877 33.6596C335.285 33.4135 335.614 33.0559 335.826 32.6289L336.011 32.2507Z" fill="#E0E0E0"/>
<path d="M366.265 57.2981L366.48 57.6614C366.729 58.0701 367.089 58.3994 367.518 58.6105L367.896 58.8033L367.533 59.0183C367.124 59.267 366.795 59.6271 366.584 60.0564L366.391 60.4346L366.176 60.0713C365.927 59.6626 365.567 59.3333 365.138 59.1222L364.76 58.9294L365.123 58.7143C365.532 58.4657 365.861 58.1056 366.072 57.6763L366.265 57.2981Z" fill="#E0E0E0"/>
<path d="M337.583 84.0364L337.806 84.3997C338.052 84.8079 338.409 85.1372 338.836 85.3488L339.222 85.5416L338.851 85.7566C338.443 86.0053 338.113 86.3654 337.902 86.7947L337.709 87.1729L337.494 86.8095C337.247 86.4007 336.89 86.0693 336.464 85.853L336.078 85.6676L336.441 85.4452C336.852 85.1996 337.184 84.8421 337.398 84.4145L337.583 84.0364Z" fill="#E0E0E0"/>
<path d="M372.53 106.244C372.797 104.294 370.039 102.685 367.963 102.536C366.967 102.577 365.971 102.493 364.997 102.284C362.965 101.543 362.157 98.955 360.177 98.1171C358.694 97.4943 356.989 98.0504 355.55 98.7696C354.112 99.4889 352.695 100.401 351.101 100.505C349.707 100.594 348.187 100.075 346.971 100.757C346.059 101.268 345.585 102.314 344.747 102.937C343.872 103.47 342.864 103.743 341.84 103.723C340.817 103.696 339.798 103.862 338.837 104.212C338.364 104.399 337.963 104.734 337.696 105.167C337.429 105.6 337.309 106.108 337.354 106.615L372.53 106.244Z" fill="#EBEBEB"/>
<path d="M191.186 76.3964C191.452 74.4463 188.694 72.8373 186.618 72.689C185.623 72.7298 184.626 72.6451 183.652 72.4369C181.62 71.6954 180.812 69.1076 178.832 68.2697C177.349 67.6469 175.644 68.203 174.205 68.9222C172.767 69.6415 171.351 70.5535 169.757 70.6573C168.363 70.7463 166.842 70.2272 165.626 70.9094C164.714 71.421 164.24 72.4665 163.402 73.0894C162.528 73.6225 161.519 73.8952 160.495 73.8754C159.472 73.8487 158.454 74.0147 157.492 74.3647C157.019 74.5516 156.619 74.8865 156.351 75.3195C156.084 75.7525 155.964 76.2603 156.009 76.7672L191.186 76.3964Z" fill="#EBEBEB"/>
<path d="M242.318 35.5577C242.689 32.8736 238.9 30.6639 236.06 30.4415C234.695 30.3303 233.287 30.5379 232.004 30.0856C229.216 29.1142 228.104 25.518 225.39 24.3687C223.358 23.516 221.015 24.2797 219.043 25.2659C217.07 26.2521 215.128 27.4904 212.925 27.6461C211.012 27.7721 208.936 27.0603 207.26 27.9946C206.007 28.6916 205.355 30.13 204.205 30.9605C203.007 31.6964 201.622 32.0722 200.216 32.0431C198.815 32.0086 197.419 32.2348 196.101 32.7104C194.833 33.2962 193.78 34.6383 194.04 36.0101L242.318 35.5577Z" fill="#F5F5F5"/>
<path d="M123.667 22H37.8545V164.04H123.667V22Z" fill="#E0E0E0"/>
<path d="M120.812 22H35V164.04H120.812V22Z" fill="#EBEBEB"/>
<path d="M117.158 24.8772H38.6562V161.155H117.158V24.8772Z" fill="#FAFAFA"/>
<path d="M101.874 42.584H53.6035V143.449H101.874V42.584Z" fill="#EBEBEB"/>
<path d="M53.589 107.761C53.4778 98.3364 61.9456 89.1345 71.2809 87.8221C75.7298 87.1918 80.4531 88.0816 84.6277 86.3391C92.0426 83.2916 94.4079 73.4372 101.875 70.5083L102.216 143.411H53.589V107.761Z" fill="#E0E0E0"/>
<path d="M230.591 107.386L246.392 104.338L276.704 111.293L292.068 114.497L292.29 135.488L258.019 141.798L234.892 134.947L226.149 122.082L230.591 107.386Z" fill="#BABBBB"/>
<path d="M219.365 109.477L234.276 105.962C234.276 105.962 244.82 138.588 270.839 137.156C292.046 136.007 292.068 114.497 292.068 114.497L307.572 117.233C307.572 117.233 314.075 156.598 306.95 184.211C301.018 207.197 295.753 238.696 295.753 238.696H192.753L219.365 109.477Z" fill="#363637"/>
<path d="M370.457 210.341C370.457 210.341 327.977 135.918 320.333 126.368C311.961 115.913 305.281 117.121 305.281 117.121L300.787 167.253L336.905 218.498L345.514 221.605L370.457 210.341Z" fill="#363637"/>
<path d="M221.144 109.061C221.144 109.061 197.001 110.989 188.341 150.585C184.426 168.477 179.443 189.446 178.049 203.534C177.011 213.759 183.321 224.392 193.516 225.697L206.314 228.07C209.695 228.698 213.189 228.005 216.074 226.135C218.96 224.264 221.019 221.358 221.826 218.016L226.149 200.116L214.634 196.246L217.296 142.925L221.144 109.061Z" fill="#363637"/>
<path d="M309.544 144.905C309.6 145.083 309.637 145.267 309.655 145.454C309.722 145.854 309.796 146.388 309.9 147.048C309.951 147.396 310.003 147.789 310.07 148.205C310.137 148.62 310.159 149.087 310.204 149.584C310.307 150.57 310.426 151.697 310.478 152.95C310.657 155.881 310.677 158.819 310.537 161.752C310.364 165.341 310.008 168.92 309.469 172.474C308.913 176.255 308.216 179.829 307.512 183.062C306.808 186.295 306.103 189.194 305.503 191.626C304.902 194.058 304.375 196.008 304.02 197.358C303.842 198.003 303.701 198.522 303.589 198.908C303.545 199.089 303.488 199.268 303.419 199.441C303.434 199.256 303.466 199.072 303.515 198.893C303.604 198.492 303.73 197.973 303.879 197.321L305.243 191.53C305.814 189.09 306.496 186.191 307.171 182.958C307.846 179.725 308.543 176.159 309.099 172.385C309.655 168.61 310.033 164.97 310.189 161.7C310.344 158.43 310.359 155.427 310.189 152.935C310.189 151.69 310.055 150.563 309.974 149.569C309.937 149.08 309.9 148.62 309.87 148.19C309.84 147.76 309.774 147.389 309.736 147.033C309.662 146.373 309.61 145.839 309.566 145.439C309.547 145.262 309.539 145.083 309.544 144.905Z" fill="#263238"/>
<path d="M227.276 202.029C227.225 201.924 227.183 201.815 227.15 201.703C227.076 201.458 226.972 201.147 226.846 200.747L226.371 199.212C226.238 198.513 225.943 197.856 225.511 197.291C224.876 196.682 224.117 196.217 223.287 195.927C222.31 195.558 221.302 195.275 220.276 195.082C217.83 194.628 215.349 194.38 212.861 194.34H212.661V194.147L214.841 179.933C216.243 170.983 217.518 162.879 218.445 156.947C218.927 154.04 219.312 151.675 219.587 149.999C219.72 149.206 219.831 148.575 219.913 148.108C219.913 147.916 219.98 147.752 220.009 147.619C220.015 147.562 220.03 147.507 220.054 147.456C220.065 147.512 220.065 147.57 220.054 147.626C220.054 147.76 220.054 147.923 219.994 148.123C219.935 148.59 219.846 149.221 219.742 150.021C219.498 151.705 219.149 154.077 218.727 156.991C217.822 162.923 216.591 171.013 215.227 179.978C214.426 185.094 213.677 189.936 213.002 194.184L212.832 193.984C215.35 194.049 217.858 194.329 220.328 194.822C221.369 195.03 222.389 195.33 223.376 195.719C224.241 196.036 225.023 196.543 225.667 197.202C225.932 197.5 226.129 197.852 226.245 198.233L226.52 199.219C226.69 199.82 226.831 200.339 226.95 200.769C227.068 201.199 227.142 201.51 227.202 201.74C227.235 201.834 227.26 201.931 227.276 202.029Z" fill="#263238"/>
<path d="M194.021 208.08C194.044 207.742 194.109 207.408 194.213 207.086C194.446 206.193 194.759 205.322 195.148 204.484C196.412 201.683 198.383 199.26 200.868 197.451C203.352 195.643 206.264 194.512 209.317 194.169C210.232 194.058 211.156 194.028 212.076 194.08C212.416 194.084 212.754 194.127 213.084 194.207C211.845 194.214 210.607 194.29 209.377 194.436C206.393 194.848 203.556 195.991 201.12 197.763C198.685 199.535 196.724 201.882 195.415 204.595C194.888 205.731 194.423 206.894 194.021 208.08Z" fill="#263238"/>
<path d="M199.604 188.371C199.792 188.323 199.988 188.305 200.182 188.319C200.714 188.309 201.247 188.334 201.776 188.393C203.527 188.569 205.243 188.999 206.87 189.669C208.497 190.342 210.02 191.243 211.393 192.345C211.809 192.675 212.203 193.031 212.572 193.413C212.832 193.687 212.973 193.843 212.95 193.865C212.928 193.888 212.298 193.346 211.23 192.56C208.43 190.509 205.173 189.17 201.739 188.66C200.427 188.467 199.604 188.438 199.604 188.371Z" fill="#263238"/>
<path d="M224.592 137.156C224.544 136.805 224.526 136.45 224.54 136.096C224.54 135.414 224.496 134.435 224.407 133.227C224.184 130.073 223.643 126.95 222.79 123.906C221.926 120.866 220.761 117.921 219.313 115.112C218.749 114.037 218.275 113.177 217.926 112.598C217.731 112.302 217.562 111.99 217.422 111.664C217.659 111.928 217.87 112.213 218.052 112.517C218.445 113.08 218.957 113.918 219.535 114.986C222.621 120.586 224.372 126.824 224.651 133.212C224.703 134.428 224.696 135.436 224.651 136.096C224.667 136.451 224.647 136.806 224.592 137.156Z" fill="#263238"/>
<g opacity="0.3">
<path d="M308.447 178.116C314.601 167.684 314.735 154.129 309.359 143.266C311.088 154.84 310.716 166.63 308.262 178.072" fill="black"/>
</g>
<g opacity="0.3">
<path d="M253.65 189.913C248.979 191.285 242.528 191.619 237.953 189.913C241.52 194.978 248.393 196.809 254.355 195.163C260.316 193.517 265.818 187.548 266.278 181.371C263.394 185.272 258.329 188.564 253.65 189.913Z" fill="black"/>
</g>
<path d="M270.839 173.067C270.817 173.209 270.78 173.348 270.727 173.482C270.638 173.749 270.535 174.157 270.327 174.646C269.786 176.063 269.114 177.426 268.317 178.717C267.144 180.642 265.726 182.406 264.098 183.967C260.106 187.853 254.953 190.326 249.424 191.011C247.189 191.301 244.926 191.301 242.692 191.011C241.182 190.823 239.693 190.498 238.243 190.04C237.724 189.884 237.345 189.713 237.079 189.617C236.943 189.571 236.812 189.514 236.686 189.446C237.224 189.568 237.756 189.716 238.28 189.891C244.558 191.637 251.253 191.082 257.158 188.327C263.004 185.453 267.622 180.574 270.171 174.58C270.601 173.616 270.801 173.052 270.839 173.067Z" fill="#263238"/>
<path d="M218.757 224.978C218.757 224.978 218.705 225.06 218.572 225.178C218.385 225.364 218.184 225.535 217.971 225.69C217.195 226.269 216.335 226.724 215.42 227.04C214.06 227.492 212.641 227.742 211.209 227.781C209.476 227.836 207.742 227.774 206.018 227.596C202.311 227.277 199.019 226.736 196.638 226.313C195.445 226.098 194.481 225.912 193.821 225.772C193.469 225.724 193.124 225.64 192.79 225.52C193.143 225.525 193.495 225.56 193.843 225.623L196.683 226.039C199.07 226.402 202.377 226.891 206.055 227.21C207.779 227.388 209.513 227.46 211.246 227.425C212.649 227.396 214.042 227.171 215.383 226.758C216.591 226.337 217.728 225.737 218.757 224.978Z" fill="#263238"/>
<path d="M302.5 29.8851L305.548 26.9191C309.604 28.6839 311.48 33.3923 312.169 37.7671C312.859 42.1419 312.755 46.7391 314.616 50.758C316.04 53.85 318.628 56.6899 318.324 60.1082C318.035 63.3336 315.113 65.9437 315.098 69.184C315.098 72.3056 317.694 74.7007 319.206 77.4293C322.268 82.9534 324.256 105.554 322.654 111.671C309.181 110.507 285.32 109.069 271.84 105.969C275.392 82.7458 290.347 49.972 302.5 29.8851Z" fill="#263238"/>
<path d="M308.529 50.5876C309.463 34.8013 298 20.3571 282.02 18.4515C265.063 16.4347 250.062 28.5802 248.653 45.1006L244.679 111.79C244.606 113.079 244.967 114.355 245.702 115.416C249.617 121.14 256.706 125.619 263.046 126.501C269.178 127.354 275.399 125.76 280.619 122.853C281.485 122.364 282.207 121.655 282.713 120.799C283.22 119.943 283.492 118.969 283.503 117.974L283.778 103.048C283.777 103.035 283.778 103.022 283.783 103.01C283.787 102.998 283.794 102.986 283.804 102.977C283.813 102.968 283.824 102.961 283.836 102.957C283.848 102.952 283.861 102.95 283.874 102.952C285.271 103.057 286.675 103.017 288.064 102.833C292.008 101.869 302.07 97.9984 305.451 83.228C306.579 78.3341 307.706 64.4312 308.529 50.5876Z" fill="#BABBBB"/>
<path d="M286.595 72.3948C286.595 72.2465 288.248 72.0834 290.925 71.9351C291.6 71.9351 292.245 71.8239 292.408 71.379C292.508 70.6988 292.394 70.0045 292.082 69.3918L290.421 64.2014C288.122 56.8458 286.506 50.8175 286.802 50.7359C287.099 50.6544 289.212 56.5344 291.511 63.89C292.06 65.7066 292.586 67.4343 293.09 69.0804C293.298 69.8219 293.676 70.7265 293.268 71.6978C293.155 71.9242 292.991 72.1216 292.789 72.2745C292.587 72.4275 292.353 72.5321 292.104 72.5802C291.726 72.6555 291.34 72.6829 290.955 72.6618C288.256 72.6469 286.602 72.5431 286.595 72.3948Z" fill="#263238"/>
<path d="M304.169 56.1711C303.879 56.49 302.129 55.0218 299.623 54.9477C297.117 54.8735 295.248 56.186 294.981 55.8449C294.848 55.6892 295.152 55.1034 295.968 54.4954C297.045 53.7209 298.349 53.3246 299.675 53.3683C301 53.414 302.271 53.9022 303.286 54.7549C304.065 55.4222 304.354 56.0303 304.169 56.1711Z" fill="#263238"/>
<path d="M278.706 56.8086C278.365 57.1275 276.541 55.4739 273.805 55.2367C271.068 54.9994 268.94 56.2525 268.666 55.8818C268.533 55.7112 268.903 55.1403 269.83 54.5323C271.072 53.7964 272.516 53.4744 273.953 53.6128C275.391 53.7403 276.749 54.331 277.823 55.296C278.632 56.0152 278.869 56.6677 278.706 56.8086Z" fill="#263238"/>
<path d="M283.778 102.944C283.778 102.944 273.561 103.055 261.341 94.6617C261.341 94.6617 264.5 108.142 283.697 107.719L283.778 102.944Z" fill="#9B9D9C"/>
<path d="M285.075 78.5491C284.609 77.8926 283.987 77.3634 283.264 77.0098C282.541 76.6561 281.741 76.4894 280.937 76.5248C280.357 76.5333 279.784 76.6585 279.253 76.8929C278.722 77.1273 278.243 77.4661 277.845 77.8892C277.466 78.2944 277.222 78.8082 277.149 79.3586C277.076 79.9091 277.177 80.4686 277.438 80.9589C278.083 81.9896 279.551 82.3233 280.834 82.0563C282.104 81.7087 283.293 81.1141 284.333 80.3064C284.642 80.1088 284.913 79.8577 285.134 79.5649C285.239 79.4282 285.3 79.2636 285.31 79.092C285.321 78.9203 285.28 78.7494 285.194 78.601" fill="#9B9D9C"/>
<path d="M278.737 73.6332C279.167 73.6332 278.996 76.4509 281.309 78.616C283.623 80.7812 286.685 80.6774 286.685 81.0704C286.685 81.2557 285.944 81.5746 284.683 81.5153C283.012 81.4224 281.425 80.7544 280.19 79.6245C279.014 78.549 278.306 77.0558 278.217 75.4647C278.18 74.2858 278.544 73.6332 278.737 73.6332Z" fill="#263238"/>
<path d="M279.143 46.4723C278.832 47.1545 276.229 46.628 273.122 46.7541C270.015 46.8801 267.457 47.4956 267.087 46.8653C266.931 46.5464 267.405 45.9236 268.466 45.3156C269.876 44.5811 271.433 44.1731 273.022 44.1218C274.611 44.0705 276.191 44.3771 277.645 45.019C278.721 45.5529 279.247 46.146 279.143 46.4723Z" fill="#263238"/>
<path d="M304.71 47.0286C304.176 47.6218 302.063 47.0286 299.519 47.0286C296.976 47.0286 294.841 47.4512 294.329 46.8358C294.107 46.5392 294.44 45.946 295.375 45.3528C296.668 44.675 298.112 44.3358 299.572 44.3669C301.032 44.398 302.46 44.7984 303.724 45.5308C304.643 46.1314 304.947 46.7394 304.71 47.0286Z" fill="#263238"/>
<path d="M284.335 15.1148C282.955 12.7717 280.397 11.7039 277.535 11.2738C265.849 9.50169 252.814 16.5384 246.267 26.3706C239.719 36.2027 239.371 50.8768 244.161 61.6728L251.45 57.1201C266.079 51.0844 276.408 36.9887 285.818 22.4258C287.13 20.4461 285.558 17.1539 284.335 15.1148Z" fill="#263238"/>
<path d="M302.337 21.5433C297.451 15.9821 293.899 10.421 283.755 14.3064C282.272 17.1463 285.238 20.8315 287.789 22.9818C291.497 26.1405 294.678 28.2686 297.095 30.5301C301.974 35.0903 307.52 50.4317 308.002 58.8031C308.002 59.3296 308.929 51.6181 309.485 51.5365C310.167 51.4327 312.918 48.0664 312.54 43.4691C311.235 27.757 307.224 27.0971 302.337 21.5433Z" fill="#263238"/>
<path d="M277.565 11.2738C278.327 11.1251 279.115 11.1919 279.841 11.4666C281.636 12.0171 283.236 13.0693 284.453 14.4993C284.801 14.9012 285.108 15.3358 285.373 15.7969C285.603 16.2423 285.782 16.7124 285.906 17.1983C286.171 17.9816 286.372 18.785 286.507 19.6007C286.707 21.0318 286.366 21.8993 286.292 21.8771C286.218 21.8548 286.329 21.0021 286.018 19.6897C285.812 18.9132 285.564 18.1483 285.276 17.3985C285.144 16.9601 284.971 16.5355 284.757 16.1305C284.506 15.7056 284.219 15.3036 283.897 14.9293C282.749 13.5993 281.296 12.5665 279.663 11.9189C278.403 11.4666 277.55 11.3924 277.565 11.2738Z" fill="#455A64"/>
<path d="M301.855 61.0279C301.855 61.5967 301.638 62.1442 301.248 62.5579C300.858 62.9717 300.324 63.2202 299.756 63.2524C299.474 63.2788 299.19 63.2486 298.92 63.1637C298.649 63.0788 298.399 62.9407 298.183 62.7577C297.967 62.5747 297.789 62.3504 297.661 62.0979C297.532 61.8455 297.456 61.5699 297.435 61.2875C297.421 60.7098 297.632 60.1492 298.023 59.7243C298.415 59.2994 298.957 59.0436 299.534 59.0111C299.82 58.9836 300.109 59.0147 300.383 59.1024C300.657 59.1902 300.91 59.3327 301.127 59.5214C301.344 59.71 301.521 59.9409 301.646 60.1999C301.771 60.4589 301.842 60.7406 301.855 61.0279Z" fill="#263238"/>
<path d="M277.431 61.1463C277.445 61.724 277.234 62.2846 276.843 62.7094C276.451 63.1343 275.909 63.3901 275.332 63.4227C275.051 63.4501 274.767 63.4209 274.497 63.3368C274.226 63.2528 273.976 63.1155 273.759 62.933C273.543 62.7506 273.366 62.5268 273.237 62.2747C273.109 62.0226 273.032 61.7473 273.012 61.4651C272.995 60.8862 273.205 60.3237 273.597 59.8972C273.989 59.4708 274.532 59.2139 275.11 59.1813C275.392 59.1539 275.677 59.1833 275.948 59.2679C276.218 59.3524 276.469 59.4904 276.686 59.6736C276.902 59.8568 277.079 60.0815 277.207 60.3344C277.335 60.5874 277.411 60.8635 277.431 61.1463Z" fill="#263238"/>
<path d="M210.221 79.7059C211.601 77.4369 213.187 75.3014 215.708 74.3597C218.23 73.418 221.092 72.8768 223.071 71.0379C226.178 68.1831 226.037 63.4376 225.756 59.3001C225.474 55.1626 225.4 50.4022 228.573 47.6217C231.228 45.3008 235.447 45.0932 237.746 42.4312C239.28 40.6591 239.584 38.2122 240.118 35.9506C241.601 29.8927 244.916 19.3116 262.771 13.224L246.977 73.2401C248.156 73.5738 250.974 76.258 251.129 78.0746C251.27 79.7726 250.536 81.4929 250.521 83.1983C250.521 85.2819 252.79 86.5276 254.229 88.0699C256.053 90.0348 256.616 92.8673 256.335 95.4848C255.75 99.0621 254.793 102.569 253.48 105.947C238.828 104.464 217.444 103.99 206.277 94.6469C204.252 92.9563 207.152 84.7554 210.221 79.7059Z" fill="#263238"/>
<path d="M251.479 57.1202C251.204 56.9719 240.416 52.6713 239.726 64.0531C239.036 75.435 250.581 73.7444 250.618 73.4255C250.656 73.1067 251.479 57.1202 251.479 57.1202Z" fill="#BABBBB"/>
<path d="M247.415 68.9171C247.363 68.8726 247.207 69.0431 246.859 69.1692C246.377 69.3456 245.845 69.327 245.376 69.1173C244.204 68.5982 243.307 66.6333 243.374 64.5868C243.411 63.6117 243.665 62.657 244.115 61.7914C244.245 61.4437 244.455 61.1322 244.73 60.8831C245.005 60.6341 245.336 60.4548 245.695 60.3603C245.926 60.3141 246.166 60.3503 246.373 60.4628C246.581 60.5752 246.742 60.7567 246.829 60.9757C246.963 61.302 246.874 61.5244 246.933 61.5467C246.992 61.5689 247.192 61.3687 247.126 60.8942C247.083 60.6078 246.941 60.3454 246.725 60.1527C246.428 59.8965 246.042 59.7685 245.65 59.7968C245.179 59.8595 244.731 60.0424 244.35 60.3281C243.97 60.6138 243.669 60.9926 243.478 61.428C242.936 62.3843 242.635 63.4584 242.603 64.5571C242.536 66.8483 243.574 69.058 245.19 69.6289C245.489 69.7375 245.809 69.7766 246.125 69.7432C246.441 69.7098 246.745 69.6048 247.015 69.4361C247.378 69.184 247.452 68.9393 247.415 68.9171Z" fill="#9B9D9C"/>
<path d="M291.853 60.0935C291.913 59.2382 292.034 58.3882 292.216 57.5502C292.559 56.148 293.191 54.8327 294.071 53.6883C294.951 52.544 296.06 51.5958 297.327 50.9043C298.594 50.2128 299.991 49.7932 301.43 49.6722C302.869 49.5513 304.316 49.7318 305.681 50.2021C306.621 50.5191 307.507 50.9793 308.306 51.5664C309.16 52.1567 309.912 52.8831 310.531 53.7167C311.859 55.4565 312.595 57.5764 312.63 59.7652C312.664 61.954 311.996 64.0962 310.723 65.8771C310.136 66.7284 309.415 67.4795 308.588 68.1016C307.809 68.7157 306.938 69.2036 306.008 69.5475C304.287 70.2102 302.421 70.3997 300.602 70.0962C299.016 69.8345 297.515 69.2019 296.22 68.2499C294.324 66.8707 292.948 64.8935 292.312 62.6368C292.108 61.8024 291.959 60.9552 291.867 60.101C291.864 60.1578 291.864 60.2147 291.867 60.2715C291.867 60.4124 291.867 60.5755 291.867 60.7757C291.874 61.0468 291.901 61.317 291.949 61.5839C291.99 61.9521 292.059 62.3166 292.157 62.6739C292.752 64.9956 294.126 67.0425 296.049 68.4724C297.474 69.5382 299.145 70.2264 300.907 70.4727C302.668 70.719 304.464 70.5155 306.126 69.8812C308.099 69.1355 309.806 67.819 311.027 66.0996C312.35 64.2546 313.044 62.0335 313.008 59.7639C312.972 57.4943 312.207 55.2964 310.827 53.4943C310.185 52.6348 309.409 51.8838 308.529 51.2698C307.707 50.6797 306.799 50.2195 305.837 49.9055C304.156 49.3245 302.355 49.1783 300.602 49.4804C298.85 49.7825 297.202 50.523 295.812 51.6332C293.931 53.1253 292.622 55.2203 292.105 57.5651C292.02 57.9263 291.96 58.293 291.927 58.6625C291.89 58.9328 291.873 59.2053 291.875 59.4781C291.875 59.6783 291.875 59.8414 291.875 59.9749C291.866 60.0141 291.858 60.0537 291.853 60.0935Z" fill="#455A64"/>
<path d="M263.202 60.5533C263.261 59.6983 263.38 58.8484 263.558 58.01C264.115 55.7355 265.421 53.7143 267.265 52.2709C268.53 51.2787 270.011 50.598 271.588 50.2837C273.396 49.9262 275.267 50.0568 277.008 50.6618C277.947 50.9819 278.832 51.4419 279.633 52.0262C280.486 52.6185 281.237 53.3446 281.858 54.1765C283.185 55.9152 283.92 58.0331 283.956 60.2201C283.992 62.407 283.327 64.548 282.058 66.3295C281.467 67.1805 280.743 67.9315 279.915 68.5539C279.136 69.1683 278.265 69.6563 277.335 69.9998C275.614 70.6626 273.748 70.852 271.929 70.5485C270.346 70.2871 268.846 69.6544 267.554 68.7022C265.657 67.323 264.278 65.3462 263.639 63.0892C263.435 62.255 263.289 61.4077 263.202 60.5533C263.194 60.6098 263.194 60.6673 263.202 60.7238C263.202 60.8573 263.202 61.0278 263.202 61.228C263.202 61.4992 263.226 61.7697 263.276 62.0363C263.316 62.4051 263.388 62.7698 263.491 63.1262C264.08 65.4506 265.455 67.4995 267.384 68.9247C268.695 69.9097 270.219 70.5749 271.833 70.8674C273.708 71.1905 275.636 71.0062 277.416 70.3335C279.392 69.5934 281.1 68.2757 282.317 66.5519C283.64 64.7069 284.334 62.4858 284.298 60.2162C284.262 57.9467 283.497 55.7487 282.117 53.9466C280.842 52.2657 279.094 51.0033 277.097 50.3207C275.296 49.7052 273.363 49.5849 271.499 49.9722C269.514 50.3803 267.689 51.352 266.242 52.7711C264.796 54.1901 263.789 55.9962 263.343 57.9729C263.251 58.3326 263.191 58.6999 263.165 59.0703C263.121 59.3398 263.103 59.613 263.113 59.8859V60.3827C263.13 60.4454 263.16 60.5036 263.202 60.5533Z" fill="#455A64"/>
<path d="M283.666 59.7748C283.725 59.8118 284.022 59.3299 284.712 58.7738C285.595 58.0407 286.703 57.6303 287.851 57.61C288.999 57.5898 290.12 57.961 291.029 58.6625C291.77 59.189 292.052 59.6636 292.104 59.6191C291.92 59.1507 291.606 58.7444 291.2 58.4475C290.271 57.6346 289.072 57.197 287.838 57.2203C286.604 57.2436 285.423 57.7261 284.526 58.5736C284.132 58.8854 283.834 59.3016 283.666 59.7748Z" fill="#455A64"/>
<path d="M248.868 56.3937C249.551 56.6102 250.254 56.7543 250.967 56.8238C252.279 57.0314 254.096 57.2242 256.098 57.4022L261.236 57.8619C261.94 57.9703 262.652 58.0248 263.364 58.025C262.682 57.8068 261.979 57.6601 261.266 57.5875C259.961 57.3873 258.144 57.1946 256.135 57.0166L251.004 56.5569C250.298 56.4438 249.583 56.3893 248.868 56.3937Z" fill="#455A64"/>
<path d="M308.402 66.5073C309.328 65.438 310.078 64.2293 310.627 62.9259C311.057 61.5763 311.275 60.1679 311.272 58.7513C311.437 59.1503 311.513 59.5805 311.494 60.0118C311.521 61.0504 311.35 62.0846 310.99 63.0593C310.631 64.0342 310.088 64.9306 309.389 65.699C308.847 66.2774 308.432 66.5443 308.402 66.5073Z" fill="white"/>
<path d="M310.197 54.7919C310.257 54.7029 310.679 54.9179 310.939 55.4221C311.198 55.9263 311.087 56.3861 310.983 56.3786C310.879 56.3712 310.79 55.9931 310.59 55.5853C310.39 55.1774 310.13 54.8734 310.197 54.7919Z" fill="white"/>
<path d="M282.227 64.2606C282.168 64.2606 282.375 63.6674 282.546 62.7109C282.983 60.202 282.501 57.6195 281.189 55.4369C280.692 54.6064 280.292 54.1467 280.336 54.1022C280.773 54.421 281.141 54.8245 281.419 55.2886C282.164 56.3667 282.675 57.5881 282.922 58.875C283.168 60.1618 283.144 61.4859 282.85 62.7628C282.746 63.299 282.534 63.8085 282.227 64.2606Z" fill="white"/>
<path d="M242.81 73.2699C242.81 73.2699 242.654 73.4923 242.432 73.9001C242.113 74.4794 241.945 75.1296 241.943 75.7909C241.931 76.2704 242.018 76.7471 242.199 77.1912C242.38 77.6353 242.652 78.0371 242.995 78.3713C243.41 78.7836 243.917 79.0919 244.473 79.271C245.03 79.4501 245.621 79.495 246.199 79.402C246.772 79.2839 247.311 79.0343 247.771 78.6727C248.232 78.3111 248.602 77.8475 248.853 77.3184C249.056 76.8837 249.168 76.4122 249.182 75.9328C249.196 75.4534 249.112 74.9762 248.935 74.5304C248.701 73.9135 248.319 73.3635 247.823 72.9288C247.467 72.6248 247.229 72.4987 247.244 72.4691C247.489 72.5319 247.717 72.6484 247.912 72.8101C248.477 73.2215 248.918 73.7808 249.187 74.4266C249.402 74.9046 249.513 75.4226 249.513 75.9466C249.513 76.4707 249.402 76.9887 249.187 77.4667C248.932 78.0626 248.533 78.5858 248.025 78.9894C247.518 79.3929 246.918 79.6642 246.28 79.7789C245.642 79.8936 244.986 79.848 244.37 79.6463C243.754 79.4447 243.197 79.0932 242.751 78.6234C242.381 78.2528 242.094 77.8081 241.909 77.3186C241.724 76.8291 241.644 76.3059 241.676 75.7835C241.701 75.0854 241.919 74.4079 242.306 73.826C242.565 73.4182 242.81 73.255 242.81 73.2699Z" fill="#E0E0E0"/>
<path d="M305.444 82.0193C306.072 82.2703 306.764 82.312 307.417 82.138C308.115 81.9424 308.745 81.5544 309.233 81.0183C309.836 80.3682 310.242 79.5611 310.405 78.6901C310.575 77.8186 310.466 76.9157 310.093 76.1097C309.788 75.4488 309.334 74.8676 308.766 74.4117C308.218 74.011 307.62 73.6844 306.987 73.4403C307.175 73.4234 307.365 73.4488 307.543 73.5145C308.044 73.6536 308.517 73.8822 308.937 74.1892C309.566 74.652 310.075 75.2599 310.42 75.9614C310.843 76.8283 310.973 77.8094 310.79 78.7568C310.609 79.7037 310.156 80.5772 309.485 81.2704C308.942 81.8376 308.243 82.2321 307.476 82.4049C306.962 82.5262 306.425 82.4979 305.926 82.3233C305.578 82.1825 305.43 82.0342 305.444 82.0193Z" fill="#E0E0E0"/>
<path d="M264.313 229.249L275.31 232.504C275.31 232.504 281.375 235.107 284.326 235.782C287.989 236.62 290.488 235.485 290.621 233.446C290.755 231.407 287.907 231.148 287.907 231.148C285.487 230.226 283.134 229.138 280.863 227.892C279.215 226.747 277.866 225.221 276.933 223.444L280.863 223.985C280.863 223.985 289.131 229.917 292.245 231.711C295.359 233.505 296.042 230.354 296.308 229.405C296.575 228.456 287.099 218.839 287.099 218.839C287.099 218.839 296.175 224.667 297.799 226.12C299.423 227.574 301.87 228.048 302.411 227.106C302.952 226.165 304.443 226.157 302.411 222.138C300.379 218.12 284.118 207.309 284.118 207.309L288.567 206.36L293.446 208.532C293.786 210.206 294.479 211.789 295.478 213.174C297.235 215.784 300.357 213.174 300.357 213.174L298.422 203.164L288.782 197.128C288.782 197.128 278.757 198.352 277.267 199.026C275.777 199.701 274.145 202.541 274.145 202.541L271.439 203.638C267.235 204.854 267.376 209.059 266.019 209.192C264.662 209.326 225.111 201.614 225.111 201.614L221.529 200.68C215.597 205.181 213.232 212.618 212.187 219.217C212.187 219.217 211.097 222.45 212.187 224.229L264.313 229.249Z" fill="#BABBBB"/>
<path d="M257.055 222.213C257.008 222.001 256.995 221.783 257.018 221.567C257.015 221.319 257.037 221.07 257.084 220.826C257.119 220.49 257.183 220.157 257.277 219.832C257.834 217.96 258.776 216.225 260.043 214.738C261.273 213.244 262.644 211.871 264.136 210.638C264.727 210.099 265.37 209.619 266.056 209.207C265.508 209.775 264.926 210.31 264.314 210.808C262.888 212.087 261.559 213.47 260.339 214.946C259.108 216.401 258.16 218.073 257.544 219.877C257.107 221.293 257.136 222.22 257.055 222.213Z" fill="#9B9D9C"/>
<path d="M274.183 202.541C274.183 202.541 273.857 202.711 273.353 203.119C272.65 203.713 272.042 204.41 271.551 205.188C271.196 205.714 270.893 206.272 270.646 206.856C270.418 207.543 270.274 208.255 270.216 208.977C270.114 209.816 269.814 210.619 269.341 211.32C268.804 211.998 268.363 212.747 268.029 213.545C267.521 214.892 267.521 216.379 268.029 217.727L268.081 217.867L267.955 217.949C266.235 219.059 264.991 220.769 264.462 222.746C264.28 223.526 264.168 224.32 264.128 225.119C264.068 224.912 264.043 224.697 264.054 224.481C264.046 223.88 264.111 223.28 264.247 222.694C264.72 220.618 265.98 218.805 267.762 217.638L267.688 217.86C267.151 216.426 267.151 214.845 267.688 213.411C268.03 212.59 268.489 211.823 269.052 211.135C269.503 210.47 269.788 209.708 269.882 208.91C269.972 207.497 270.489 206.144 271.365 205.032C271.889 204.244 272.546 203.554 273.308 202.993C273.513 202.839 273.738 202.712 273.975 202.615C274.041 202.582 274.111 202.557 274.183 202.541Z" fill="#9B9D9C"/>
<path d="M283.703 206.975C282.754 207.098 281.79 206.995 280.888 206.676C279.986 206.356 279.172 205.829 278.513 205.136C278.587 205.047 279.58 205.811 281.012 206.308C282.443 206.804 283.703 206.864 283.703 206.975Z" fill="#9B9D9C"/>
<path d="M286.239 217.927C284.807 217.525 283.415 216.994 282.079 216.34C280.692 215.807 279.352 215.157 278.075 214.397C279.503 214.81 280.895 215.341 282.235 215.984C283.622 216.517 284.962 217.167 286.239 217.927Z" fill="#9B9D9C"/>
<path d="M277.319 223.34C275.88 222.852 274.473 222.272 273.107 221.604C273.881 221.639 274.639 221.836 275.332 222.183C276.071 222.419 276.749 222.813 277.319 223.34Z" fill="#9B9D9C"/>
<path d="M284.874 218.631C284.236 218.974 283.675 219.443 283.225 220.011C282.774 220.578 282.445 221.232 282.257 221.931C282.205 221.931 282.161 221.672 282.257 221.256C282.362 220.712 282.596 220.202 282.939 219.767C283.282 219.332 283.725 218.986 284.229 218.757C284.593 218.602 284.86 218.587 284.874 218.631Z" fill="#9B9D9C"/>
<path d="M288.849 212.618C288.894 212.722 288.167 213.092 287.678 213.923C287.429 214.45 287.22 214.995 287.055 215.554C286.95 215.248 286.922 214.921 286.974 214.601C287.025 214.282 287.155 213.98 287.352 213.723C287.915 212.774 288.835 212.514 288.849 212.618Z" fill="#9B9D9C"/>
<path d="M287.731 201.725C287.694 201.725 287.545 201.555 287.434 201.199C287.301 200.713 287.301 200.201 287.434 199.716C287.563 199.236 287.82 198.801 288.176 198.455C288.443 198.196 288.665 198.107 288.687 198.144C288.334 198.662 288.047 199.222 287.835 199.812C287.724 200.443 287.689 201.086 287.731 201.725Z" fill="#9B9D9C"/>
<path d="M367.893 205.136C367.893 205.136 367.396 195.408 357.312 193.391C347.227 191.374 329.565 199.946 329.565 199.946L280.078 234.432L281.561 238.696L331.79 231.696L336.387 233.461L371.667 210.282L404.96 186.213L401.252 183.314C401.252 183.314 391.924 189.743 385.755 192.508C379.586 195.274 370.666 200.124 367.893 205.136Z" fill="#F5F5F5"/>
<path d="M279.313 240.105L321.193 214.086L365.467 206.975C365.467 206.975 367.691 210.193 371.451 209.407L407.858 184.196L408.548 185.716L337.943 235.322C336.906 235.701 335.786 235.789 334.702 235.577C333.619 235.366 332.614 234.862 331.796 234.121L279.313 240.105Z" fill="#363637"/>
<path d="M365.468 206.975C365.368 207.084 365.253 207.179 365.127 207.257L364.104 207.998C363.214 208.636 361.931 209.563 360.396 210.734C357.252 213.07 352.981 216.399 348.369 220.174C343.757 223.948 339.612 227.455 336.646 230.013L333.109 233.053L332.145 233.869C332.041 233.972 331.924 234.062 331.797 234.136C331.797 234.136 331.886 234.017 332.093 233.817L333.006 232.942C333.806 232.2 334.97 231.118 336.439 229.82C339.36 227.21 343.46 223.681 348.095 219.892C352.729 216.103 356.993 212.811 360.203 210.527C361.79 209.377 363.103 208.488 364.022 207.887L365.082 207.205C365.204 207.117 365.333 207.04 365.468 206.975Z" fill="#263238"/>
<path d="M365.015 201.562C361.003 197.254 354.686 195.719 348.813 196.179C342.941 196.639 337.372 198.826 331.893 200.999L280.663 236.064L281.123 237.384L332.627 202.534C332.627 202.534 344.135 198.826 349.229 198.189C357.741 197.128 365.015 201.562 365.015 201.562Z" fill="#E0E0E0"/>
<path d="M373.053 206.174L397.685 189.557C397.685 189.557 377.502 200.057 373.053 206.174Z" fill="#E0E0E0"/>
<path d="M280.663 236.064C280.726 236 280.796 235.942 280.871 235.893L281.508 235.441L283.963 233.713L293.039 227.425L323.069 206.805L331.789 200.873C336.75 198.634 341.986 197.061 347.36 196.194C351.701 195.581 356.127 196.205 360.128 197.996C361.625 198.692 363.004 199.617 364.214 200.739C365.119 201.583 365.89 202.561 366.498 203.638C366.88 204.314 367.179 205.034 367.388 205.781C367.44 206.026 367.484 206.219 367.521 206.367C367.537 206.433 367.55 206.5 367.558 206.567C367.292 205.567 366.898 204.605 366.387 203.705C365.763 202.656 364.989 201.704 364.088 200.88C362.874 199.793 361.504 198.893 360.025 198.211C356.061 196.488 351.697 195.902 347.419 196.52C342.089 197.394 336.894 198.956 331.967 201.169H332.004L323.284 207.101L293.231 227.648L284.081 233.839L281.59 235.5L280.93 235.93C280.846 235.984 280.756 236.029 280.663 236.064Z" fill="#263238"/>
<path d="M325.509 209.555C325.626 209.459 325.755 209.379 325.894 209.318C326.154 209.177 326.539 208.962 327.036 208.71C328.037 208.191 329.498 207.464 331.337 206.634C336.105 204.399 341.165 202.849 346.367 202.029C351.596 201.24 356.939 201.728 361.938 203.453C363.441 203.995 364.884 204.688 366.246 205.522C366.736 205.803 367.084 206.078 367.329 206.263C367.458 206.343 367.58 206.435 367.692 206.538C367.692 206.538 367.151 206.226 366.172 205.67C364.793 204.895 363.346 204.248 361.849 203.735C356.873 202.102 351.583 201.658 346.404 202.437C341.239 203.254 336.206 204.75 331.433 206.886C329.587 207.687 328.111 208.369 327.088 208.851L325.917 209.392C325.786 209.46 325.65 209.515 325.509 209.555Z" fill="#263238"/>
<path d="M403.639 185.168C403.639 185.168 403.535 185.264 403.32 185.413L402.364 186.05L398.812 188.334C395.801 190.262 391.656 192.924 387.111 195.92C382.566 198.915 378.502 201.666 375.536 203.668L372.029 206.026L371.065 206.656C370.958 206.735 370.841 206.8 370.717 206.849C370.809 206.752 370.911 206.665 371.021 206.59L371.948 205.9C372.748 205.307 373.92 204.469 375.381 203.438C378.302 201.384 382.366 198.589 386.918 195.593C391.471 192.598 395.646 189.973 398.686 188.104C400.206 187.17 401.444 186.429 402.304 185.924L403.305 185.346C403.411 185.276 403.522 185.217 403.639 185.168Z" fill="#263238"/>
<path d="M381.232 211.832C380.729 213.042 380.089 214.192 379.326 215.257C378.377 216.384 375.278 217.956 375.033 220.099C374.788 222.242 375.292 227.269 371.941 231.096C369.78 233.476 367.046 235.262 363.999 236.286L350.779 234.996L329.661 226.684C329.189 226.564 328.783 226.264 328.531 225.848C328.278 225.432 328.199 224.933 328.312 224.459C328.443 223.944 328.724 223.48 329.12 223.126C329.517 222.772 330.01 222.544 330.536 222.472L331.04 222.391C331.04 222.391 329.824 221.397 331.567 219.654C333.05 218.171 336.216 219.009 337.847 219.551C339.478 220.092 349.044 224.089 350.756 224.704C352.277 225.245 353.448 225.727 353.448 225.727C353.448 225.727 341.206 217.467 341.036 216.384C340.835 215.087 340.969 214.494 342.222 213.589C343.705 212.514 346.137 213.663 348.495 214.657C350.252 215.398 361.456 220.93 361.456 220.93C361.456 220.93 361.96 220.44 361.456 219.447C360.952 218.453 357.23 213.663 356.644 212.773C356.058 211.884 355.902 211.379 356.488 210.631C357.304 209.57 359.454 209.066 361.434 210.875C362.687 212.032 367.143 215.028 367.143 215.028L387.712 200.02C387.712 200.02 390.27 199.953 389.381 203.52C388.491 207.086 381.232 211.832 381.232 211.832Z" fill="#BABBBB"/>
<path d="M365.897 224.341C365.074 224.158 364.307 223.779 363.662 223.237C363.017 222.695 362.512 222.005 362.189 221.226C362.286 221.167 362.886 222.087 363.91 222.939C364.933 223.792 365.949 224.229 365.897 224.341Z" fill="#9B9D9C"/>
<path d="M367.588 215.391C367.588 215.346 367.862 215.265 368.329 215.324C368.912 215.409 369.46 215.652 369.914 216.027C370.368 216.403 370.71 216.896 370.902 217.452C371.043 217.882 371.021 218.194 370.969 218.194C370.658 217.501 370.215 216.877 369.664 216.355C369.041 215.902 368.336 215.574 367.588 215.391Z" fill="#9B9D9C"/>
<path d="M368.56 219.521C368.448 219.521 368.396 218.416 367.959 217.156C367.521 215.895 366.906 214.968 366.995 214.931C367.647 215.487 368.11 216.23 368.322 217.059C368.654 217.836 368.737 218.696 368.56 219.521Z" fill="#9B9D9C"/>
<path d="M380.727 210.764C380.727 210.801 380.468 210.653 380.201 210.297C379.862 209.824 379.651 209.273 379.586 208.695C379.521 208.118 379.605 207.533 379.83 206.997C380.008 206.597 380.208 206.397 380.245 206.426C379.981 207.137 379.887 207.899 379.971 208.652C380.054 209.406 380.314 210.129 380.727 210.764Z" fill="#9B9D9C"/>
<path d="M362.138 229.516C361.662 229.625 361.168 229.625 360.692 229.516C359.54 229.312 358.434 228.9 357.43 228.3C356.429 227.712 355.488 227.03 354.619 226.261C354.233 225.977 353.89 225.638 353.604 225.253C354.03 225.467 354.429 225.734 354.79 226.046C355.694 226.744 356.64 227.385 357.622 227.967C358.595 228.543 359.647 228.975 360.744 229.249C361.589 229.427 362.138 229.457 362.138 229.516Z" fill="#9B9D9C"/>
<path d="M365.579 227.395C365.683 227.395 365.691 228.137 365.068 228.752C364.445 229.368 363.689 229.338 363.703 229.234C363.718 229.131 364.289 228.982 364.793 228.493C365.298 228.003 365.468 227.381 365.579 227.395Z" fill="#9B9D9C"/>
<path d="M370.628 223.688C370.673 223.688 370.673 223.888 370.532 224.155C370.337 224.484 370.044 224.744 369.694 224.897C369.346 225.066 368.955 225.123 368.574 225.06C368.278 225.001 368.129 224.882 368.152 224.838C368.174 224.793 368.834 224.897 369.531 224.548C370.228 224.2 370.524 223.651 370.628 223.688Z" fill="#9B9D9C"/>
<path d="M352.818 232.104C352.781 232.201 347.865 230.154 341.844 227.522C335.823 224.89 330.974 222.672 331.048 222.583C331.122 222.495 336.008 224.541 342.029 227.173C348.05 229.806 352.862 232.008 352.818 232.104Z" fill="#9B9D9C"/>
<path d="M115.067 159.727L131.157 238.718H270.817C271.556 238.718 272.265 238.424 272.788 237.901C273.311 237.379 273.605 236.669 273.605 235.93C273.606 235.563 273.534 235.2 273.395 234.861C273.255 234.522 273.05 234.213 272.791 233.954C272.532 233.694 272.224 233.488 271.885 233.347C271.547 233.207 271.183 233.135 270.817 233.135H242.699L227.781 159.646C227.642 158.96 227.272 158.343 226.732 157.898C226.191 157.454 225.514 157.209 224.815 157.206L118.092 156.064C117.637 156.059 117.186 156.157 116.773 156.349C116.36 156.541 115.995 156.822 115.705 157.174C115.415 157.525 115.208 157.936 115.097 158.378C114.987 158.82 114.976 159.281 115.067 159.727Z" fill="#868687"/>
<path d="M115.067 159.727L115.023 159.49C114.992 159.244 114.992 158.995 115.023 158.749C115.075 158.276 115.237 157.822 115.494 157.422C115.751 157.022 116.097 156.687 116.506 156.443C116.789 156.268 117.1 156.143 117.425 156.072C117.788 156.012 118.155 155.989 118.522 156.005H121.036L127.324 156.057L167.683 156.435L195.815 156.724L211.579 156.88L219.839 156.969L224.066 157.014C224.429 157.014 224.763 157.014 225.149 157.014C225.525 157.056 225.892 157.164 226.231 157.332C226.916 157.666 227.458 158.235 227.759 158.934C227.898 159.28 227.997 159.641 228.055 160.009L228.27 161.07C228.411 161.811 228.559 162.493 228.708 163.205C228.994 164.634 229.286 166.072 229.583 167.521C230.171 170.412 230.767 173.341 231.37 176.307C232.576 182.239 233.812 188.302 235.077 194.496C237.591 206.879 240.216 219.758 242.907 233.053L242.722 232.905H270.372C270.737 232.891 271.102 232.914 271.462 232.972C272.204 233.131 272.857 233.569 273.286 234.195C273.72 234.819 273.898 235.587 273.783 236.338C273.715 236.793 273.543 237.227 273.279 237.604C273.015 237.981 272.667 238.291 272.263 238.511C271.855 238.728 271.404 238.849 270.943 238.867H196.727H131.157H131.039V238.748C126.115 214.464 122.141 194.718 119.346 181.03C117.966 174.194 116.899 168.87 116.172 165.252C115.816 163.442 115.544 162.071 115.356 161.136C115.171 160.202 115.089 159.727 115.089 159.727C115.089 159.727 115.201 160.202 115.393 161.121C115.586 162.041 115.883 163.435 116.254 165.229C116.995 168.848 118.1 174.164 119.509 181.001C122.311 194.681 126.353 214.42 131.328 238.689L131.18 238.57L196.75 238.533H270.913C271.312 238.517 271.702 238.413 272.055 238.229C272.406 238.036 272.708 237.765 272.938 237.437C273.168 237.11 273.32 236.734 273.382 236.338C273.478 235.681 273.325 235.012 272.952 234.462C272.573 233.921 272.004 233.543 271.358 233.402C271.024 233.351 270.687 233.332 270.35 233.342H242.544V233.194C239.852 219.914 237.235 207.034 234.729 194.637C233.468 188.438 232.232 182.373 231.021 176.441L229.242 167.654C228.952 166.208 228.656 164.77 228.367 163.346C228.226 162.604 228.077 161.915 227.937 161.21L227.721 160.143C227.666 159.799 227.577 159.461 227.455 159.134C227.251 158.666 226.926 158.261 226.515 157.958C226.103 157.656 225.619 157.468 225.111 157.414C224.785 157.414 224.414 157.414 224.066 157.414L219.839 157.362L211.572 157.273L195.815 157.088L167.676 156.754L127.317 156.257L121.036 156.176L118.522 156.139C118.161 156.116 117.797 156.136 117.44 156.198C117.121 156.264 116.816 156.382 116.535 156.546C116.135 156.78 115.794 157.102 115.537 157.487C115.28 157.873 115.114 158.312 115.052 158.771C115.023 159.089 115.028 159.41 115.067 159.727Z" fill="#868687"/>
<path d="M174.809 200.487C177.356 200.487 179.421 198.422 179.421 195.875C179.421 193.328 177.356 191.263 174.809 191.263C172.262 191.263 170.197 193.328 170.197 195.875C170.197 198.422 172.262 200.487 174.809 200.487Z" fill="white"/>
<path d="M115.2 160.387C115.2 160.387 115.363 160.387 115.682 160.387H122.519L142.487 160.484L208.368 160.944L217.896 161.025H220.239C220.639 161.01 221.039 161.035 221.433 161.099C222.037 161.222 222.594 161.509 223.044 161.929C223.495 162.35 223.82 162.886 223.984 163.479C224.162 164.221 224.288 164.962 224.444 165.704L227.847 182.862C230.005 193.799 231.955 203.624 233.586 211.921C235.218 220.218 236.552 226.877 237.427 231.511C237.872 233.817 238.213 235.611 238.45 236.842C238.562 237.443 238.651 237.91 238.71 238.236C238.769 238.563 238.784 238.711 238.784 238.711C238.784 238.711 238.74 238.555 238.673 238.244C238.606 237.932 238.502 237.458 238.376 236.857L237.279 231.57C236.345 226.936 234.995 220.255 233.319 212.002C231.644 203.75 229.686 193.888 227.499 182.958C226.409 177.494 225.274 171.754 224.073 165.808C223.917 165.066 223.784 164.325 223.621 163.583C223.425 162.879 222.976 162.272 222.36 161.878C222.055 161.682 221.715 161.546 221.359 161.477C220.987 161.417 220.609 161.394 220.232 161.411H217.896L208.368 161.337L142.487 160.758L122.519 160.536L117.091 160.387H115.675H115.2Z" fill="#868687"/>
<path d="M472.727 176.77C475.975 175.095 479.793 174.88 483.397 175.473C485.332 175.792 487.349 176.37 488.669 177.831C489.989 179.291 490.233 181.842 488.728 183.088C487.752 183.752 486.573 184.051 485.399 183.933C482.581 183.933 479.467 183.407 477.198 185.105C475.908 186.069 475.055 187.678 473.491 188.152C472.722 188.331 471.917 188.254 471.196 187.934C470.475 187.615 469.877 187.069 469.494 186.38C468.764 184.964 468.602 183.322 469.042 181.79C469.227 180.726 469.657 179.719 470.296 178.848C470.935 177.978 471.767 177.266 472.727 176.77Z" fill="#EBEBEB"/>
<path d="M465.312 162.415C467.3 165.248 471.155 164.313 472.942 162.578C474.729 160.843 475.486 158.344 476.175 155.949C477.747 150.485 479.334 144.753 478.162 139.192C477.881 137.505 477.142 135.928 476.027 134.632C475.459 133.996 474.734 133.519 473.925 133.25C473.116 132.981 472.251 132.928 471.415 133.097C469.472 133.616 468.264 135.514 467.389 137.331C464.813 142.68 463.462 148.537 463.437 154.474C463.437 157.24 463.755 160.131 465.312 162.415Z" fill="#EBEBEB"/>
<path d="M459.863 166.478C462.02 163.928 462.428 160.19 461.464 156.987C460.5 153.784 458.343 151.055 455.844 148.831C452.902 146.222 449.482 144.208 445.774 142.899C444.338 142.328 442.795 142.075 441.251 142.157C440.478 142.2 439.726 142.432 439.063 142.833C438.4 143.234 437.845 143.791 437.447 144.456C436.387 146.473 437.403 148.905 438.508 150.922C440.443 154.446 442.652 157.813 445.114 160.991C447.102 163.549 449.371 166.07 452.388 167.227C455.406 168.384 458.55 168.199 460.122 166.122" fill="#EBEBEB"/>
<path d="M465.179 205.177C465.283 204.754 465.343 204.322 465.357 203.886C465.446 202.952 465.564 201.773 465.698 200.372C465.871 198.641 466.136 196.921 466.491 195.218C466.953 193.142 467.58 191.107 468.367 189.131C469.137 187.157 470.183 185.302 471.474 183.622C472.526 182.256 473.868 181.141 475.404 180.359C476.444 179.842 477.561 179.494 478.711 179.328C479.144 179.314 479.574 179.251 479.994 179.143C479.56 179.095 479.122 179.095 478.689 179.143C477.495 179.234 476.327 179.538 475.241 180.04C473.621 180.803 472.202 181.933 471.096 183.34C469.747 185.04 468.66 186.931 467.87 188.953C467.073 190.957 466.451 193.026 466.009 195.137C465.677 196.864 465.449 198.61 465.327 200.364C465.216 201.847 465.171 203.063 465.149 203.901C465.114 204.326 465.124 204.754 465.179 205.177Z" fill="#E0E0E0"/>
<path d="M465.424 202.47C465.446 202.273 465.446 202.074 465.424 201.877V200.164C465.424 198.681 465.424 196.538 465.498 193.884C465.631 188.582 466.083 182.88 466.981 174.835C467.819 167.272 468.938 158.47 470.117 152.746C470.369 151.441 470.629 150.27 470.859 149.246C471.089 148.223 471.289 147.333 471.474 146.614L471.875 144.953C471.933 144.76 471.968 144.561 471.978 144.36C471.891 144.54 471.821 144.729 471.771 144.923C471.637 145.353 471.474 145.895 471.274 146.562C471.074 147.229 470.829 148.149 470.569 149.18C470.31 150.21 470.021 151.367 469.746 152.665C468.281 159.432 467.18 166.274 466.447 173.159C465.564 181.227 465.164 188.56 465.127 193.876C465.127 196.538 465.127 198.689 465.223 200.172C465.223 200.869 465.297 201.432 465.327 201.877C465.332 202.078 465.365 202.278 465.424 202.47Z" fill="#E0E0E0"/>
<path d="M465.453 188.315C465.498 187.72 465.498 187.123 465.453 186.528C465.386 185.386 465.223 183.725 464.904 181.694C464.513 179.318 463.989 176.966 463.332 174.65C462.558 171.797 461.567 169.009 460.367 166.308C458.325 161.326 455.393 156.758 451.713 152.828C451.076 152.153 450.395 151.521 449.674 150.937C449.363 150.67 449.088 150.41 448.807 150.195L448.021 149.647C447.55 149.29 447.055 148.968 446.538 148.683C446.449 148.801 448.666 150.106 451.461 153.08C455.016 157.044 457.87 161.585 459.899 166.508C461.073 169.194 462.064 171.956 462.865 174.776C463.541 177.072 464.1 179.401 464.541 181.753C464.912 183.762 465.119 185.401 465.283 186.543C465.293 187.137 465.35 187.73 465.453 188.315Z" fill="#E0E0E0"/>
<path d="M451.773 213.289L453.19 232.723H478.156L479.579 213.289H451.773Z" fill="#E0E0E0"/>
<path d="M482.552 205.629H449.363V213.288H482.552V205.629Z" fill="#E0E0E0"/>
<path d="M449.363 231.974V234.102H450.92H482.004V231.974H449.363Z" fill="#EBEBEB"/>
<path d="M452.447 237.839L450.92 234.102H480.817L479.03 237.839H452.447Z" fill="#E0E0E0"/>
<path d="M479.112 219.636C479.112 219.636 479.075 219.703 478.993 219.821L478.622 220.311C478.266 220.763 477.784 221.393 477.139 222.172L477.072 222.253L477.013 222.172L473.469 217.226H473.676L470.154 222.209L470.043 222.364L469.925 222.216L465.75 217.256H465.987C465.92 217.352 465.839 217.448 465.757 217.545L462.05 222.224L461.931 222.379L461.813 222.216C460.545 220.429 459.366 218.753 458.298 217.241H458.498L454.168 222.179L454.086 222.268L454.027 222.164L452.67 219.888L452.322 219.28C452.28 219.212 452.245 219.14 452.218 219.065C452.218 219.065 452.27 219.124 452.366 219.258L452.744 219.843C453.093 220.385 453.575 221.134 454.175 222.068H454.034L458.305 217.07L458.409 216.944L458.506 217.078L462.057 222.038H461.82L465.528 217.352L465.757 217.063L465.876 216.915L465.995 217.063L470.154 222.038H469.925L473.476 217.085L473.58 216.937L473.684 217.085L477.176 222.075H477.05L478.533 220.259L478.941 219.792C478.992 219.733 479.049 219.681 479.112 219.636Z" fill="#F5F5F5"/>
<path d="M479.92 213.162C479.92 213.244 473.669 213.318 465.95 213.318C458.231 213.318 451.98 213.244 451.98 213.162C451.98 213.081 458.239 213.007 465.95 213.007C473.662 213.007 479.92 213.073 479.92 213.162Z" fill="#F5F5F5"/>
<path d="M481.18 234.31C481.18 234.399 474.388 234.466 466.002 234.466C457.616 234.466 450.816 234.399 450.816 234.31C450.816 234.221 457.616 234.154 466.002 234.154C474.388 234.154 481.18 234.191 481.18 234.31Z" fill="#F5F5F5"/>
</svg>
