<svg width="530" height="247" viewBox="0 0 530 247" fill="none" xmlns="http://www.w3.org/2000/svg">
<path d="M0 10C0 4.47716 4.47715 0 10 0H520C525.523 0 530 4.47715 530 10V237C530 242.523 525.523 247 520 247H9.99999C4.47715 247 0 242.523 0 237V10Z" fill="#D9D9D9"/>
<mask id="mask0_119_768" style="mask-type:alpha" maskUnits="userSpaceOnUse" x="0" y="0" width="530" height="247">
<path d="M0 10C0 4.47716 4.47715 0 10 0H520C525.523 0 530 4.47715 530 10V237C530 242.523 525.523 247 520 247H9.99999C4.47715 247 0 242.523 0 237V10Z" fill="#F9F19A"/>
</mask>
<g mask="url(#mask0_119_768)">
<path d="M278.253 91.3032C278.673 91.1543 279.122 91.1018 279.565 91.1495H280.005L279.862 91.293C279.862 90.7808 279.944 90.4222 280.005 90.4222C280.067 90.4222 280.128 90.7808 280.148 91.293V91.4261H279.595C279.145 91.4885 278.685 91.4464 278.253 91.3032Z" fill="#263238"/>
<path d="M274.74 91.3031C274.74 91.2212 275.129 91.1495 275.621 91.1495C276.112 91.1495 276.491 91.2212 276.491 91.3031C276.491 91.3851 276.102 91.4568 275.621 91.4568C275.139 91.4568 274.74 91.3851 274.74 91.3031Z" fill="#263238"/>
<path d="M271.226 91.3031C271.226 91.2212 271.626 91.1495 272.107 91.1495C272.588 91.1495 272.988 91.2212 272.988 91.3031C272.988 91.3851 272.588 91.4568 272.107 91.4568C271.626 91.4568 271.226 91.3851 271.226 91.3031Z" fill="#263238"/>
<path d="M267.723 91.3031C267.723 91.2212 268.112 91.1495 268.593 91.1495C269.075 91.1495 269.474 91.2212 269.474 91.3031C269.474 91.3851 269.085 91.4568 268.593 91.4568C268.102 91.4568 267.723 91.3851 267.723 91.3031Z" fill="#263238"/>
<path d="M264.229 91.3031C264.229 91.2212 264.619 91.1495 265.1 91.1495C265.582 91.1495 265.981 91.2212 265.981 91.3031C265.981 91.3851 265.592 91.4568 265.1 91.4568C264.609 91.4568 264.229 91.3851 264.229 91.3031Z" fill="#263238"/>
<path d="M260.696 91.3031C260.696 91.2212 261.085 91.1495 261.577 91.1495C262.068 91.1495 262.447 91.2212 262.447 91.3031C262.447 91.3851 262.058 91.4568 261.577 91.4568C261.095 91.4568 260.696 91.3851 260.696 91.3031Z" fill="#263238"/>
<path d="M257.182 91.3031C257.182 91.2212 257.582 91.1495 258.063 91.1495C258.545 91.1495 258.944 91.2212 258.944 91.3031C258.944 91.3851 258.545 91.4568 258.063 91.4568C257.582 91.4568 257.182 91.3851 257.182 91.3031Z" fill="#263238"/>
<path d="M253.679 91.3031C253.679 91.2212 254.068 91.1495 254.549 91.1495C255.031 91.1495 255.43 91.2212 255.43 91.3031C255.43 91.3851 255.041 91.4568 254.549 91.4568C254.058 91.4568 253.679 91.3851 253.679 91.3031Z" fill="#263238"/>
<path d="M250.165 91.3031C250.165 91.2212 250.554 91.1495 251.046 91.1495C251.538 91.1495 251.917 91.2212 251.917 91.3031C251.917 91.3851 251.527 91.4568 251.046 91.4568C250.565 91.4568 250.165 91.3851 250.165 91.3031Z" fill="#263238"/>
<path d="M246.651 91.3031C246.651 91.2212 247.051 91.1495 247.532 91.1495C248.014 91.1495 248.413 91.2212 248.413 91.3031C248.413 91.3851 248.014 91.4568 247.532 91.4568C247.051 91.4568 246.651 91.3851 246.651 91.3031Z" fill="#263238"/>
<path d="M243.148 91.3031C243.148 91.2212 243.538 91.1495 244.019 91.1495C244.501 91.1495 244.9 91.2212 244.9 91.3031C244.9 91.3851 244.511 91.4568 244.019 91.4568C243.527 91.4568 243.148 91.3851 243.148 91.3031Z" fill="#263238"/>
<path d="M239.645 91.3031C239.645 91.2212 240.034 91.1495 240.526 91.1495C241.018 91.1495 241.397 91.2212 241.397 91.3031C241.397 91.3851 241.007 91.4568 240.526 91.4568C240.045 91.4568 239.645 91.3851 239.645 91.3031Z" fill="#263238"/>
<path d="M236.121 91.3031C236.121 91.2212 236.521 91.1495 237.002 91.1495C237.483 91.1495 237.883 91.2212 237.883 91.3031C237.883 91.3851 237.483 91.4568 237.002 91.4568C236.521 91.4568 236.121 91.3851 236.121 91.3031Z" fill="#263238"/>
<path d="M232.607 91.3031C232.607 91.2212 233.007 91.1495 233.488 91.1495C233.97 91.1495 234.369 91.2212 234.369 91.3031C234.369 91.3851 233.97 91.4568 233.488 91.4568C233.007 91.4568 232.607 91.3851 232.607 91.3031Z" fill="#263238"/>
<path d="M229.104 91.3031C229.104 91.2212 229.494 91.1495 229.975 91.1495C230.457 91.1495 230.856 91.2212 230.856 91.3031C230.856 91.3851 230.467 91.4568 229.975 91.4568C229.483 91.4568 229.104 91.3851 229.104 91.3031Z" fill="#263238"/>
<path d="M225.591 91.3031C225.591 91.2212 225.98 91.1495 226.472 91.1495C226.963 91.1495 227.342 91.2212 227.342 91.3031C227.342 91.3851 226.953 91.4568 226.472 91.4568C225.99 91.4568 225.591 91.3851 225.591 91.3031Z" fill="#263238"/>
<path d="M222.077 91.3031C222.077 91.2212 222.477 91.1495 222.958 91.1495C223.44 91.1495 223.839 91.2212 223.839 91.3031C223.839 91.3851 223.44 91.4568 222.958 91.4568C222.477 91.4568 222.077 91.3851 222.077 91.3031Z" fill="#263238"/>
<path d="M218.574 91.3031C218.574 91.2212 218.963 91.1495 219.444 91.1495C219.926 91.1495 220.325 91.2212 220.325 91.3031C220.325 91.3851 219.936 91.4568 219.444 91.4568C218.953 91.4568 218.574 91.3851 218.574 91.3031Z" fill="#263238"/>
<path d="M217.478 88.8856C217.56 88.8856 217.632 89.2748 217.632 89.7665C217.632 90.2582 217.56 90.6372 217.478 90.6372C217.396 90.6372 217.324 90.248 217.324 89.7665C217.324 89.2851 217.396 88.8856 217.478 88.8856Z" fill="#263238"/>
<path d="M217.478 85.3515C217.56 85.3515 217.632 85.751 217.632 86.2325C217.632 86.7139 217.56 87.1134 217.478 87.1134C217.396 87.1134 217.324 86.7139 217.324 86.2325C217.324 85.751 217.396 85.3515 217.478 85.3515Z" fill="#263238"/>
<path d="M217.478 81.8687C217.56 81.8687 217.632 82.2579 217.632 82.7394C217.632 83.2208 217.56 83.6203 217.478 83.6203C217.396 83.6203 217.324 83.2311 217.324 82.7394C217.324 82.2477 217.396 81.8687 217.478 81.8687Z" fill="#263238"/>
<path d="M217.478 78.3551C217.56 78.3551 217.632 78.7444 217.632 79.2361C217.632 79.7277 217.56 80.1068 217.478 80.1068C217.396 80.1068 217.324 79.7175 217.324 79.2361C217.324 78.7546 217.396 78.3551 217.478 78.3551Z" fill="#263238"/>
<path d="M217.478 74.8416C217.56 74.8416 217.632 75.2411 217.632 75.7225C217.632 76.204 217.56 76.6035 217.478 76.6035C217.396 76.6035 217.324 76.204 217.324 75.7225C217.324 75.2411 217.396 74.8416 217.478 74.8416Z" fill="#263238"/>
<path d="M217.478 71.328C217.56 71.328 217.632 71.7275 217.632 72.209C217.632 72.6904 217.56 73.0899 217.478 73.0899C217.396 73.0899 217.324 72.6904 217.324 72.209C217.324 71.7275 217.396 71.328 217.478 71.328Z" fill="#263238"/>
<path d="M217.478 67.8247C217.56 67.8247 217.632 68.214 217.632 68.6954C217.632 69.1769 217.56 69.5764 217.478 69.5764C217.396 69.5764 217.324 69.1871 217.324 68.6954C217.324 68.2037 217.396 67.8247 217.478 67.8247Z" fill="#263238"/>
<path d="M217.478 64.3112C217.56 64.3112 217.632 64.7004 217.632 65.1921C217.632 65.6838 217.56 66.0628 217.478 66.0628C217.396 66.0628 217.324 65.6736 217.324 65.1921C217.324 64.7107 217.396 64.3112 217.478 64.3112Z" fill="#263238"/>
<path d="M217.478 60.7669C217.56 60.7669 217.632 61.1664 217.632 61.6479C217.632 62.1293 217.56 62.5288 217.478 62.5288C217.396 62.5288 217.324 62.1293 217.324 61.6479C217.324 61.1664 217.396 60.7669 217.478 60.7669Z" fill="#263238"/>
<path d="M217.478 57.2943C217.56 57.2943 217.632 57.6835 217.632 58.165C217.632 58.6464 217.56 59.0459 217.478 59.0459C217.396 59.0459 217.324 58.6567 217.324 58.165C217.324 57.6733 217.396 57.2943 217.478 57.2943Z" fill="#263238"/>
<path d="M217.478 53.7807C217.56 53.7807 217.632 54.17 217.632 54.6617C217.632 55.1533 217.56 55.5324 217.478 55.5324C217.396 55.5324 217.324 55.1431 217.324 54.6617C217.324 54.1802 217.396 53.7807 217.478 53.7807Z" fill="#263238"/>
<path d="M217.478 50.2672C217.56 50.2672 217.632 50.6667 217.632 51.1481C217.632 51.6296 217.56 52.0291 217.478 52.0291C217.396 52.0291 217.324 51.6296 217.324 51.1481C217.324 50.6667 217.396 50.2672 217.478 50.2672Z" fill="#263238"/>
<path d="M217.478 46.7639C217.56 46.7639 217.632 47.1531 217.632 47.6346C217.632 48.116 217.56 48.5155 217.478 48.5155C217.396 48.5155 217.324 48.1263 217.324 47.6346C217.324 47.1429 217.396 46.7639 217.478 46.7639Z" fill="#263238"/>
<path d="M217.478 43.2503C217.56 43.2503 217.632 43.6396 217.632 44.1313C217.632 44.6229 217.56 45.002 217.478 45.002C217.396 45.002 217.324 44.6127 217.324 44.1313C217.324 43.6498 217.396 43.2503 217.478 43.2503Z" fill="#263238"/>
<path d="M217.478 39.7368C217.56 39.7368 217.632 40.126 217.632 40.6177C217.632 41.1094 217.56 41.4884 217.478 41.4884C217.396 41.4884 217.324 41.0992 217.324 40.6177C217.324 40.1363 217.396 39.7368 217.478 39.7368Z" fill="#263238"/>
<path d="M217.478 36.1821C217.56 36.1821 217.632 36.5816 217.632 37.0631C217.632 37.5445 217.56 37.944 217.478 37.944C217.396 37.944 217.324 37.5445 217.324 37.0631C217.324 36.5816 217.396 36.1821 217.478 36.1821Z" fill="#263238"/>
<path d="M217.478 32.7199C217.56 32.7199 217.632 33.1092 217.632 33.5906C217.632 34.0721 217.56 34.4716 217.478 34.4716C217.396 34.4716 217.324 34.0823 217.324 33.5906C217.324 33.0989 217.396 32.7199 217.478 32.7199Z" fill="#263238"/>
<path d="M217.478 29.2062C217.56 29.2062 217.632 29.5954 217.632 30.0871C217.632 30.5788 217.56 30.9578 217.478 30.9578C217.396 30.9578 217.324 30.5686 217.324 30.0871C217.324 29.6057 217.396 29.2062 217.478 29.2062Z" fill="#263238"/>
<path d="M220.551 28.7657C220.551 28.8579 220.162 28.9194 219.67 28.9194C219.178 28.9194 218.799 28.8579 218.799 28.7657C218.799 28.6735 219.189 28.6223 219.67 28.6223C220.151 28.6223 220.551 28.6838 220.551 28.7657Z" fill="#263238"/>
<path d="M224.064 28.7657C224.064 28.8579 223.665 28.9194 223.183 28.9194C222.702 28.9194 222.302 28.8579 222.302 28.7657C222.302 28.6735 222.702 28.6223 223.183 28.6223C223.665 28.6223 224.064 28.6838 224.064 28.7657Z" fill="#263238"/>
<path d="M227.568 28.7657C227.568 28.8579 227.178 28.9194 226.697 28.9194C226.215 28.9194 225.816 28.8579 225.816 28.7657C225.816 28.6735 226.205 28.6223 226.697 28.6223C227.189 28.6223 227.568 28.6838 227.568 28.7657Z" fill="#263238"/>
<path d="M231.081 28.7657C231.081 28.8579 230.692 28.9194 230.2 28.9194C229.709 28.9194 229.33 28.8579 229.33 28.7657C229.33 28.6735 229.719 28.6223 230.2 28.6223C230.682 28.6223 231.081 28.6838 231.081 28.7657Z" fill="#263238"/>
<path d="M234.595 28.7657C234.595 28.8579 234.195 28.9194 233.714 28.9194C233.233 28.9194 232.833 28.8579 232.833 28.7657C232.833 28.6735 233.233 28.6223 233.714 28.6223C234.195 28.6223 234.595 28.6838 234.595 28.7657Z" fill="#263238"/>
<path d="M238.098 28.7657C238.098 28.8579 237.709 28.9194 237.228 28.9194C236.746 28.9194 236.347 28.8579 236.347 28.7657C236.347 28.6735 236.736 28.6223 237.228 28.6223C237.719 28.6223 238.098 28.6838 238.098 28.7657Z" fill="#263238"/>
<path d="M241.612 28.7657C241.612 28.8579 241.223 28.9194 240.731 28.9194C240.239 28.9194 239.86 28.8579 239.86 28.7657C239.86 28.6735 240.25 28.6223 240.731 28.6223C241.213 28.6223 241.612 28.6838 241.612 28.7657Z" fill="#263238"/>
<path d="M245.125 28.7657C245.125 28.8579 244.726 28.9194 244.244 28.9194C243.763 28.9194 243.363 28.8579 243.363 28.7657C243.363 28.6735 243.763 28.6223 244.244 28.6223C244.726 28.6223 245.125 28.6838 245.125 28.7657Z" fill="#263238"/>
<path d="M248.639 28.7657C248.639 28.8579 248.239 28.9194 247.758 28.9194C247.276 28.9194 246.877 28.8579 246.877 28.7657C246.877 28.6735 247.276 28.6223 247.758 28.6223C248.239 28.6223 248.639 28.6838 248.639 28.7657Z" fill="#263238"/>
<path d="M252.142 28.7657C252.142 28.8579 251.753 28.9194 251.272 28.9194C250.79 28.9194 250.391 28.8579 250.391 28.7657C250.391 28.6735 250.78 28.6223 251.272 28.6223C251.763 28.6223 252.142 28.6838 252.142 28.7657Z" fill="#263238"/>
<path d="M255.656 28.7657C255.656 28.8579 255.267 28.9194 254.775 28.9194C254.283 28.9194 253.904 28.8579 253.904 28.7657C253.904 28.6735 254.294 28.6223 254.775 28.6223C255.256 28.6223 255.656 28.6838 255.656 28.7657Z" fill="#263238"/>
<path d="M259.169 28.7657C259.169 28.8579 258.77 28.9194 258.288 28.9194C257.807 28.9194 257.407 28.8579 257.407 28.7657C257.407 28.6735 257.807 28.6223 258.288 28.6223C258.77 28.6223 259.169 28.6838 259.169 28.7657Z" fill="#263238"/>
<path d="M262.673 28.7657C262.673 28.8579 262.283 28.9194 261.802 28.9194C261.32 28.9194 260.921 28.8579 260.921 28.7657C260.921 28.6735 261.31 28.6223 261.802 28.6223C262.294 28.6223 262.673 28.6838 262.673 28.7657Z" fill="#263238"/>
<path d="M266.186 28.7657C266.186 28.8579 265.797 28.9194 265.305 28.9194C264.814 28.9194 264.435 28.8579 264.435 28.7657C264.435 28.6735 264.824 28.6223 265.305 28.6223C265.787 28.6223 266.186 28.6838 266.186 28.7657Z" fill="#263238"/>
<path d="M269.7 28.7657C269.7 28.8579 269.3 28.9194 268.819 28.9194C268.338 28.9194 267.938 28.8579 267.938 28.7657C267.938 28.6735 268.338 28.6223 268.819 28.6223C269.3 28.6223 269.7 28.6838 269.7 28.7657Z" fill="#263238"/>
<path d="M273.203 28.7657C273.203 28.8579 272.814 28.9194 272.332 28.9194C271.851 28.9194 271.451 28.8579 271.451 28.7657C271.451 28.6735 271.84 28.6223 272.332 28.6223C272.824 28.6223 273.203 28.6838 273.203 28.7657Z" fill="#263238"/>
<path d="M276.716 28.7657C276.716 28.8579 276.327 28.9194 275.836 28.9194C275.344 28.9194 274.965 28.8579 274.965 28.7657C274.965 28.6735 275.354 28.6223 275.836 28.6223C276.317 28.6223 276.716 28.6838 276.716 28.7657Z" fill="#263238"/>
<path d="M280.005 29.0116C280.005 29.0116 279.933 28.9297 279.902 28.7863L280.005 28.8887C279.787 28.9086 279.567 28.9086 279.349 28.8887C278.868 28.8887 278.468 28.8272 278.468 28.735C278.468 28.6428 278.868 28.5916 279.349 28.5916C279.569 28.5887 279.788 28.6058 280.005 28.6428H280.118V28.7146C280.077 28.9092 280.046 29.0116 280.005 29.0116Z" fill="#263238"/>
<path d="M280.005 32.5047C279.923 32.5047 279.851 32.1155 279.851 31.6238C279.851 31.1321 279.923 30.7531 280.005 30.7531C280.087 30.7531 280.158 31.1423 280.158 31.6238C280.158 32.1052 280.087 32.5047 280.005 32.5047Z" fill="#263238"/>
<path d="M280.005 36.0183C279.923 36.0183 279.851 35.6188 279.851 35.1374C279.851 34.6559 279.923 34.2564 280.005 34.2564C280.087 34.2564 280.158 34.6559 280.158 35.1374C280.158 35.6188 280.087 36.0183 280.005 36.0183Z" fill="#263238"/>
<path d="M280.005 39.5216C279.923 39.5216 279.851 39.1324 279.851 38.6509C279.851 38.1695 279.923 37.77 280.005 37.77C280.087 37.77 280.158 38.1592 280.158 38.6509C280.158 39.1426 280.087 39.5216 280.005 39.5216Z" fill="#263238"/>
<path d="M280.005 43.0352C279.923 43.0352 279.851 42.6459 279.851 42.1542C279.851 41.6625 279.923 41.2835 280.005 41.2835C280.087 41.2835 280.158 41.6728 280.158 42.1542C280.158 42.6357 280.087 43.0352 280.005 43.0352Z" fill="#263238"/>
<path d="M280.005 46.5487C279.923 46.5487 279.851 46.1595 279.851 45.6678C279.851 45.1761 279.923 44.7971 280.005 44.7971C280.087 44.7971 280.158 45.1863 280.158 45.6678C280.158 46.1492 280.087 46.5487 280.005 46.5487Z" fill="#263238"/>
<path d="M280.005 50.0623C279.923 50.0623 279.851 49.6628 279.851 49.1813C279.851 48.6999 279.923 48.3004 280.005 48.3004C280.087 48.3004 280.158 48.6999 280.158 49.1813C280.158 49.6628 280.087 50.0623 280.005 50.0623Z" fill="#263238"/>
<path d="M280.005 53.5963C279.923 53.5963 279.851 53.207 279.851 52.7256C279.851 52.2441 279.923 51.8446 280.005 51.8446C280.087 51.8446 280.158 52.2339 280.158 52.7256C280.158 53.2173 280.087 53.5963 280.005 53.5963Z" fill="#263238"/>
<path d="M280.005 57.0792C280.09 57.0792 280.158 56.6847 280.158 56.1982C280.158 55.7117 280.09 55.3173 280.005 55.3173C279.92 55.3173 279.851 55.7117 279.851 56.1982C279.851 56.6847 279.92 57.0792 280.005 57.0792Z" fill="#263238"/>
<path d="M280.005 60.5927C279.923 60.5927 279.851 60.1932 279.851 59.7118C279.851 59.2303 279.923 58.8308 280.005 58.8308C280.087 58.8308 280.158 59.2303 280.158 59.7118C280.158 60.1932 280.087 60.5927 280.005 60.5927Z" fill="#263238"/>
<path d="M280.005 64.096C279.923 64.096 279.851 63.7068 279.851 63.2253C279.851 62.7439 279.923 62.3444 280.005 62.3444C280.087 62.3444 280.158 62.7336 280.158 63.2253C280.158 63.717 280.087 64.096 280.005 64.096Z" fill="#263238"/>
<path d="M280.005 67.6096C280.09 67.6096 280.158 67.2151 280.158 66.7286C280.158 66.2421 280.09 65.8477 280.005 65.8477C279.92 65.8477 279.851 66.2421 279.851 66.7286C279.851 67.2151 279.92 67.6096 280.005 67.6096Z" fill="#263238"/>
<path d="M280.005 71.1231C279.923 71.1231 279.851 70.7236 279.851 70.2422C279.851 69.7607 279.923 69.3612 280.005 69.3612C280.087 69.3612 280.158 69.7607 280.158 70.2422C280.158 70.7236 280.087 71.1231 280.005 71.1231Z" fill="#263238"/>
<path d="M280.005 74.6264C279.923 74.6264 279.851 74.2372 279.851 73.7557C279.851 73.2743 279.923 72.8748 280.005 72.8748C280.087 72.8748 280.158 73.264 280.158 73.7557C280.158 74.2474 280.087 74.6264 280.005 74.6264Z" fill="#263238"/>
<path d="M280.005 78.181C279.923 78.181 279.851 77.7918 279.851 77.3103C279.851 76.8289 279.923 76.4294 280.005 76.4294C280.087 76.4294 280.158 76.8186 280.158 77.3103C280.158 77.802 280.087 78.181 280.005 78.181Z" fill="#263238"/>
<path d="M280.005 81.6537C279.923 81.6537 279.851 81.2644 279.851 80.7727C279.851 80.2811 279.923 79.902 280.005 79.902C280.087 79.902 280.158 80.2913 280.158 80.7727C280.158 81.2542 280.087 81.6537 280.005 81.6537Z" fill="#263238"/>
<path d="M280.005 85.1672C280.09 85.1672 280.158 84.7728 280.158 84.2863C280.158 83.7998 280.09 83.4053 280.005 83.4053C279.92 83.4053 279.851 83.7998 279.851 84.2863C279.851 84.7728 279.92 85.1672 280.005 85.1672Z" fill="#263238"/>
<path d="M280.005 88.6705C279.923 88.6705 279.851 88.2813 279.851 87.7998C279.851 87.3184 279.923 86.9189 280.005 86.9189C280.087 86.9189 280.158 87.3081 280.158 87.7998C280.158 88.2915 280.087 88.6705 280.005 88.6705Z" fill="#263238"/>
<path d="M282.32 88.353H277.69V92.9831H282.32V88.353Z" fill="#263238"/>
<path d="M219.793 88.988H215.163V93.6181H219.793V88.988Z" fill="#263238"/>
<path d="M282.32 26H277.69V30.6301H282.32V26Z" fill="#263238"/>
<path d="M219.793 26.4507H215.163V31.0809H219.793V26.4507Z" fill="#263238"/>
<path d="M130.141 400.855C152.359 382.898 155.535 352.239 152.677 325.052C152.205 320.514 152.369 315.69 149.931 311.848C147.493 308.007 142.249 305.641 138.315 307.843C135.047 309.666 133.859 313.702 132.169 317.062C129.954 321.573 126.505 325.364 122.222 327.992C119.436 329.703 115.922 330.871 113.003 329.488C108.906 327.603 108.086 322.215 107.799 317.697C107.267 309.27 106.73 300.84 106.191 292.406C105.904 287.888 105.597 283.269 103.886 279.089C102.175 274.91 98.7644 271.13 94.4108 270.218C90.0573 269.306 84.8843 272.164 84.2901 276.661C84.034 278.526 84.5462 280.411 84.5462 282.295C84.5462 284.18 83.8292 286.321 82.0775 286.967C80.3258 287.612 78.4103 286.465 76.9557 285.235C71.9875 281.005 68.4125 275.34 65.0424 269.737C61.6722 264.133 58.384 258.315 53.7744 253.634C49.1647 248.952 43.0595 245.439 36.5548 245.5C30.0501 245.562 23.4327 250.069 22.2138 256.533C20.9948 262.996 25.1947 269.225 29.5994 274.101C36.132 281.341 43.6819 287.593 52.0125 292.662C53.508 293.574 55.0856 294.557 55.7821 296.196C56.9806 299.146 54.3275 302.342 51.4286 303.53C48.1301 304.893 44.4527 304.801 40.9596 305.456C37.4665 306.112 33.7891 307.945 32.652 311.367C31.1257 316.12 35.3256 320.689 39.3513 323.598C47.4212 329.416 56.4298 333.806 65.9848 336.576C69.3959 337.601 72.9709 338.379 75.8186 340.53C78.6664 342.682 80.5614 346.625 79.1683 349.924C77.7752 353.222 73.6777 354.533 70.1539 354.134C66.6301 353.734 63.3726 352.085 59.9718 351.061C53.59 349.145 45.6307 350.139 41.9942 355.783C39.6279 359.502 39.7406 364.429 41.3591 368.547C42.9776 372.665 45.9073 376.096 48.9906 379.241C59.7669 390.222 73.1656 398.704 87.9164 402.73C102.667 406.755 116.127 407.134 130.089 400.896" fill="#F5F5F5"/>
<path d="M377.934 240.778C378.118 240.778 378.262 241.639 378.262 242.694C378.262 243.749 378.118 244.609 377.934 244.609C377.749 244.609 377.606 243.749 377.606 242.694C377.606 241.639 377.739 240.778 377.934 240.778Z" fill="#263238"/>
<path d="M377.934 233.126C378.118 233.126 378.262 233.987 378.262 235.042C378.262 236.097 378.108 236.957 377.934 236.957C377.76 236.957 377.606 236.097 377.606 235.042C377.606 233.987 377.739 233.126 377.934 233.126Z" fill="#263238"/>
<path d="M377.934 225.484C378.118 225.484 378.262 226.335 378.262 227.39C378.262 228.445 378.118 229.305 377.934 229.305C377.749 229.305 377.606 228.445 377.606 227.39C377.606 226.335 377.739 225.484 377.934 225.484Z" fill="#263238"/>
<path d="M377.934 217.832C378.118 217.832 378.262 218.683 378.262 219.748C378.262 220.813 378.118 221.653 377.934 221.653C377.749 221.653 377.606 220.803 377.606 219.748C377.606 218.693 377.739 217.832 377.934 217.832Z" fill="#263238"/>
<path d="M377.934 210.18C378.118 210.18 378.262 211.041 378.262 212.096C378.262 213.151 378.118 214.001 377.934 214.001C377.749 214.001 377.606 213.151 377.606 212.096C377.606 211.041 377.739 210.18 377.934 210.18Z" fill="#263238"/>
<path d="M377.934 202.528C378.118 202.528 378.262 203.389 378.262 204.444C378.262 205.499 378.118 206.36 377.934 206.36C377.749 206.36 377.606 205.499 377.606 204.444C377.606 203.389 377.739 202.528 377.934 202.528Z" fill="#263238"/>
<path d="M377.934 194.876C378.118 194.876 378.262 195.737 378.262 196.792C378.262 197.847 378.118 198.708 377.934 198.708C377.749 198.708 377.606 197.847 377.606 196.792C377.606 195.737 377.739 194.876 377.934 194.876Z" fill="#263238"/>
<path d="M377.934 187.235C378.118 187.235 378.262 188.085 378.262 189.14C378.262 190.195 378.118 191.056 377.934 191.056C377.749 191.056 377.606 190.195 377.606 189.14C377.606 188.085 377.739 187.235 377.934 187.235Z" fill="#263238"/>
<path d="M377.934 179.593C378.118 179.593 378.262 180.443 378.262 181.498C378.262 182.553 378.118 183.414 377.934 183.414C377.749 183.414 377.606 182.564 377.606 181.498C377.606 180.433 377.739 179.593 377.934 179.593Z" fill="#263238"/>
<path d="M377.934 171.931C378.118 171.931 378.262 172.791 378.262 173.846C378.262 174.901 378.118 175.752 377.934 175.752C377.749 175.752 377.606 174.901 377.606 173.846C377.606 172.791 377.739 171.931 377.934 171.931Z" fill="#263238"/>
<path d="M378.497 164.852C378.497 164.945 378.272 165.027 377.924 165.088L378.159 164.852C378.227 165.296 378.258 165.745 378.252 166.194C378.252 167.219 378.108 168.11 377.924 168.11C377.739 168.11 377.596 167.249 377.596 166.194C377.59 165.745 377.621 165.296 377.688 164.852V164.586H377.883C378.272 164.678 378.497 164.76 378.497 164.852Z" fill="#263238"/>
<path d="M386.129 164.852C386.129 165.037 385.268 165.18 384.213 165.18C383.158 165.18 382.298 165.037 382.298 164.852C382.298 164.668 383.158 164.525 384.213 164.525C385.268 164.525 386.129 164.668 386.129 164.852Z" fill="#263238"/>
<path d="M393.791 164.852C393.791 165.037 392.941 165.18 391.886 165.18C390.831 165.18 389.97 165.037 389.97 164.852C389.97 164.668 390.831 164.525 391.886 164.525C392.941 164.525 393.791 164.668 393.791 164.852Z" fill="#263238"/>
<path d="M401.494 164.852C401.494 165.037 400.644 165.18 399.589 165.18C398.534 165.18 397.673 165.037 397.673 164.852C397.673 164.668 398.524 164.525 399.589 164.525C400.654 164.525 401.494 164.668 401.494 164.852Z" fill="#263238"/>
<path d="M409.095 164.852C409.095 165.037 408.245 165.18 407.179 165.18C406.114 165.18 405.274 165.037 405.274 164.852C405.274 164.668 406.124 164.525 407.179 164.525C408.234 164.525 409.095 164.668 409.095 164.852Z" fill="#263238"/>
<path d="M416.747 164.852C416.747 165.037 415.886 165.18 414.831 165.18C413.776 165.18 412.926 165.037 412.926 164.852C412.926 164.668 413.776 164.525 414.831 164.525C415.886 164.525 416.747 164.668 416.747 164.852Z" fill="#263238"/>
<path d="M424.399 164.852C424.399 165.037 423.539 165.18 422.483 165.18C421.428 165.18 420.568 165.037 420.568 164.852C420.568 164.668 421.428 164.525 422.483 164.525C423.539 164.525 424.399 164.668 424.399 164.852Z" fill="#263238"/>
<path d="M432.051 164.852C432.051 165.037 431.19 165.18 430.135 165.18C429.08 165.18 428.22 165.037 428.22 164.852C428.22 164.668 429.08 164.525 430.135 164.525C431.19 164.525 432.051 164.668 432.051 164.852Z" fill="#263238"/>
<path d="M439.693 164.852C439.693 165.037 438.843 165.18 437.788 165.18C436.733 165.18 435.872 165.037 435.872 164.852C435.872 164.668 436.733 164.525 437.788 164.525C438.843 164.525 439.693 164.668 439.693 164.852Z" fill="#263238"/>
<path d="M447.345 164.852C447.345 165.037 446.495 165.18 445.439 165.18C444.384 165.18 443.524 165.037 443.524 164.852C443.524 164.668 444.374 164.525 445.439 164.525C446.505 164.525 447.345 164.668 447.345 164.852Z" fill="#263238"/>
<path d="M454.997 164.852C454.997 165.037 454.136 165.18 453.081 165.18C452.026 165.18 451.176 165.037 451.176 164.852C451.176 164.668 452.026 164.525 453.081 164.525C454.136 164.525 454.997 164.668 454.997 164.852Z" fill="#263238"/>
<path d="M462.649 164.852C462.649 165.037 461.788 165.18 460.733 165.18C459.678 165.18 458.817 165.037 458.817 164.852C458.817 164.668 459.678 164.525 460.733 164.525C461.788 164.525 462.649 164.668 462.649 164.852Z" fill="#263238"/>
<path d="M470.301 164.852C470.301 165.037 469.44 165.18 468.385 165.18C467.33 165.18 466.47 165.037 466.47 164.852C466.47 164.668 467.33 164.525 468.385 164.525C469.44 164.525 470.301 164.668 470.301 164.852Z" fill="#263238"/>
<path d="M471.356 171.449C471.171 171.449 471.018 170.589 471.018 169.534C471.018 168.479 471.171 167.628 471.356 167.628C471.54 167.628 471.683 168.479 471.683 169.534C471.683 170.589 471.53 171.449 471.356 171.449Z" fill="#263238"/>
<path d="M471.356 179.101C471.171 179.101 471.018 178.241 471.018 177.186C471.018 176.13 471.171 175.27 471.356 175.27C471.54 175.27 471.683 176.13 471.683 177.186C471.683 178.241 471.53 179.101 471.356 179.101Z" fill="#263238"/>
<path d="M471.356 186.763C471.171 186.763 471.018 185.903 471.018 184.848C471.018 183.793 471.171 182.932 471.356 182.932C471.54 182.932 471.683 183.793 471.683 184.848C471.683 185.903 471.53 186.763 471.356 186.763Z" fill="#263238"/>
<path d="M471.356 194.395C471.171 194.395 471.018 193.545 471.018 192.49C471.018 191.435 471.171 190.574 471.356 190.574C471.54 190.574 471.683 191.435 471.683 192.49C471.683 193.545 471.53 194.395 471.356 194.395Z" fill="#263238"/>
<path d="M471.356 202.047C471.171 202.047 471.018 201.197 471.018 200.142C471.018 199.087 471.171 198.226 471.356 198.226C471.54 198.226 471.683 199.076 471.683 200.142C471.683 201.207 471.53 202.047 471.356 202.047Z" fill="#263238"/>
<path d="M471.356 209.699C471.171 209.699 471.018 208.849 471.018 207.783C471.018 206.718 471.171 205.878 471.356 205.878C471.54 205.878 471.683 206.728 471.683 207.783C471.683 208.838 471.53 209.699 471.356 209.699Z" fill="#263238"/>
<path d="M471.356 217.351C471.171 217.351 471.018 216.49 471.018 215.435C471.018 214.38 471.171 213.53 471.356 213.53C471.54 213.53 471.683 214.38 471.683 215.435C471.683 216.49 471.53 217.351 471.356 217.351Z" fill="#263238"/>
<path d="M471.356 225.003C471.171 225.003 471.018 224.142 471.018 223.087C471.018 222.032 471.171 221.172 471.356 221.172C471.54 221.172 471.683 222.032 471.683 223.087C471.683 224.142 471.53 225.003 471.356 225.003Z" fill="#263238"/>
<path d="M471.356 232.655C471.171 232.655 471.018 231.794 471.018 230.739C471.018 229.684 471.171 228.824 471.356 228.824C471.54 228.824 471.683 229.684 471.683 230.739C471.683 231.794 471.53 232.655 471.356 232.655Z" fill="#263238"/>
<path d="M471.356 240.297C471.171 240.297 471.018 239.446 471.018 238.391C471.018 237.336 471.171 236.476 471.356 236.476C471.54 236.476 471.683 237.336 471.683 238.391C471.683 239.446 471.53 240.297 471.356 240.297Z" fill="#263238"/>
<path d="M471.356 247.949C471.171 247.949 471.018 247.098 471.018 246.043C471.018 244.988 471.171 244.128 471.356 244.128C471.54 244.128 471.683 244.978 471.683 246.043C471.683 247.109 471.53 247.949 471.356 247.949Z" fill="#263238"/>
<path d="M474.808 160.724H467.894V167.639H474.808V160.724Z" fill="#263238"/>
<path d="M381.376 161.39H374.461V168.304H381.376V161.39Z" fill="#263238"/>
<path d="M457.742 135.842C457.742 135.719 458.326 135.617 459.043 135.617C459.76 135.617 460.334 135.719 460.334 135.842C460.334 135.965 459.75 136.068 459.043 136.068C458.336 136.068 457.742 135.965 457.742 135.842Z" fill="#263238"/>
<path d="M452.569 135.842C452.569 135.719 453.153 135.617 453.87 135.617C454.587 135.617 455.161 135.719 455.161 135.842C455.161 135.965 454.577 136.068 453.87 136.068C453.163 136.068 452.569 135.965 452.569 135.842Z" fill="#263238"/>
<path d="M447.396 135.842C447.396 135.719 447.98 135.617 448.697 135.617C449.414 135.617 449.988 135.719 449.988 135.842C449.988 135.965 449.404 136.068 448.697 136.068C447.99 136.068 447.396 135.965 447.396 135.842Z" fill="#263238"/>
<path d="M442.223 135.842C442.223 135.719 442.807 135.617 443.524 135.617C444.241 135.617 444.815 135.719 444.815 135.842C444.815 135.965 444.231 136.068 443.524 136.068C442.817 136.068 442.223 135.965 442.223 135.842Z" fill="#263238"/>
<path d="M437.05 135.842C437.05 135.719 437.634 135.617 438.341 135.617C439.047 135.617 439.641 135.719 439.641 135.842C439.641 135.965 439.058 136.068 438.341 136.068C437.623 136.068 437.05 135.965 437.05 135.842Z" fill="#263238"/>
<path d="M431.877 135.842C431.877 135.719 432.461 135.617 433.168 135.617C433.874 135.617 434.469 135.719 434.469 135.842C434.469 135.965 433.885 136.068 433.168 136.068C432.451 136.068 431.877 135.965 431.877 135.842Z" fill="#263238"/>
<path d="M426.704 135.842C426.704 135.719 427.288 135.617 427.994 135.617C428.701 135.617 429.295 135.719 429.295 135.842C429.295 135.965 428.711 136.068 427.994 136.068C427.277 136.068 426.704 135.965 426.704 135.842Z" fill="#263238"/>
<path d="M421.531 135.842C421.531 135.719 422.104 135.617 422.821 135.617C423.539 135.617 424.122 135.719 424.122 135.842C424.122 135.965 423.539 136.068 422.821 136.068C422.104 136.068 421.531 135.965 421.531 135.842Z" fill="#263238"/>
<path d="M416.358 135.842C416.358 135.719 416.932 135.617 417.649 135.617C418.366 135.617 418.939 135.719 418.939 135.842C418.939 135.965 418.366 136.068 417.649 136.068C416.932 136.068 416.358 135.965 416.358 135.842Z" fill="#263238"/>
<path d="M411.185 135.842C411.185 135.719 411.758 135.617 412.475 135.617C413.192 135.617 413.766 135.719 413.766 135.842C413.766 135.965 413.192 136.068 412.475 136.068C411.758 136.068 411.185 135.965 411.185 135.842Z" fill="#263238"/>
<path d="M406.012 135.842C406.012 135.719 406.585 135.617 407.302 135.617C408.019 135.617 408.593 135.719 408.593 135.842C408.593 135.965 408.019 136.068 407.302 136.068C406.585 136.068 406.012 135.965 406.012 135.842Z" fill="#263238"/>
<path d="M400.839 135.842C400.839 135.719 401.413 135.617 402.13 135.617C402.847 135.617 403.42 135.719 403.42 135.842C403.42 135.965 402.847 136.068 402.13 136.068C401.413 136.068 400.839 135.965 400.839 135.842Z" fill="#263238"/>
<path d="M397.151 134.357C397.274 134.357 397.376 134.931 397.376 135.648V135.842L397.161 135.617C397.786 135.617 398.257 135.73 398.257 135.842C398.257 135.955 397.786 136.047 397.161 136.068H396.936V135.648C396.926 134.931 397.028 134.357 397.151 134.357Z" fill="#263238"/>
<path d="M397.151 129.184C397.274 129.184 397.376 129.758 397.376 130.475C397.376 131.192 397.274 131.765 397.151 131.765C397.028 131.765 396.925 131.192 396.925 130.475C396.925 129.758 397.028 129.184 397.151 129.184Z" fill="#263238"/>
<path d="M397.151 124.011C397.274 124.011 397.376 124.585 397.376 125.302C397.376 126.019 397.274 126.592 397.151 126.592C397.028 126.592 396.925 126.019 396.925 125.302C396.925 124.585 397.028 124.011 397.151 124.011Z" fill="#263238"/>
<path d="M397.151 118.838C397.274 118.838 397.376 119.412 397.376 120.129C397.376 120.846 397.274 121.419 397.151 121.419C397.028 121.419 396.925 120.846 396.925 120.129C396.925 119.412 397.028 118.838 397.151 118.838Z" fill="#263238"/>
<path d="M397.151 113.655C397.274 113.655 397.376 114.239 397.376 114.956C397.376 115.673 397.274 116.246 397.151 116.246C397.028 116.246 396.925 115.663 396.925 114.956C396.925 114.249 397.028 113.655 397.151 113.655Z" fill="#263238"/>
<path d="M397.151 108.482C397.274 108.482 397.376 109.066 397.376 109.783C397.376 110.5 397.274 111.073 397.151 111.073C397.028 111.073 396.925 110.489 396.925 109.783C396.925 109.076 397.028 108.482 397.151 108.482Z" fill="#263238"/>
<path d="M397.151 103.309C397.274 103.309 397.376 103.893 397.376 104.61C397.376 105.327 397.274 105.9 397.151 105.9C397.028 105.9 396.925 105.316 396.925 104.61C396.925 103.903 397.028 103.309 397.151 103.309Z" fill="#263238"/>
<path d="M397.151 98.1357C397.274 98.1357 397.376 98.7196 397.376 99.4366C397.376 100.154 397.274 100.727 397.151 100.727C397.028 100.727 396.925 100.143 396.925 99.4366C396.925 98.7298 397.028 98.1357 397.151 98.1357Z" fill="#263238"/>
<path d="M397.151 92.9626C397.274 92.9626 397.376 93.5465 397.376 94.2533C397.376 94.9602 397.274 95.5543 397.151 95.5543C397.028 95.5543 396.925 94.9704 396.925 94.2533C396.925 93.5363 397.028 92.9626 397.151 92.9626Z" fill="#263238"/>
<path d="M397.151 87.7897C397.274 87.7897 397.376 88.3736 397.376 89.0804C397.376 89.7872 397.274 90.3813 397.151 90.3813C397.028 90.3813 396.925 89.7974 396.925 89.0804C396.925 88.3633 397.028 87.7897 397.151 87.7897Z" fill="#263238"/>
<path d="M397.151 82.6165C397.274 82.6165 397.376 83.2004 397.376 83.9072C397.376 84.614 397.274 85.2082 397.151 85.2082C397.028 85.2082 396.925 84.6243 396.925 83.9072C396.925 83.1902 397.028 82.6165 397.151 82.6165Z" fill="#263238"/>
<path d="M397.151 77.4435C397.274 77.4435 397.376 78.0274 397.376 78.7342C397.376 79.4411 397.274 80.0352 397.151 80.0352C397.028 80.0352 396.925 79.4513 396.925 78.7342C396.925 78.0172 397.028 77.4435 397.151 77.4435Z" fill="#263238"/>
<path d="M397.54 72.6597C397.54 72.7212 397.386 72.7724 397.151 72.8134L397.304 72.6597C397.354 72.9576 397.378 73.2592 397.376 73.5612C397.376 74.2782 397.274 74.8519 397.151 74.8519C397.028 74.8519 396.925 74.2782 396.925 73.5612C396.921 73.2595 396.942 72.958 396.987 72.6597V72.4753H397.12C397.397 72.5368 397.54 72.5983 397.54 72.6597Z" fill="#263238"/>
<path d="M402.713 72.6597C402.713 72.7827 402.129 72.8851 401.412 72.8851C400.695 72.8851 400.122 72.7827 400.122 72.6597C400.122 72.5368 400.705 72.4344 401.412 72.4344C402.119 72.4344 402.713 72.5368 402.713 72.6597Z" fill="#263238"/>
<path d="M407.886 72.6597C407.886 72.7827 407.302 72.8851 406.585 72.8851C405.868 72.8851 405.294 72.7827 405.294 72.6597C405.294 72.5368 405.878 72.4344 406.585 72.4344C407.292 72.4344 407.886 72.5368 407.886 72.6597Z" fill="#263238"/>
<path d="M413.059 72.6597C413.059 72.7827 412.476 72.8851 411.769 72.8851C411.062 72.8851 410.468 72.7827 410.468 72.6597C410.468 72.5368 411.052 72.4344 411.769 72.4344C412.486 72.4344 413.059 72.5368 413.059 72.6597Z" fill="#263238"/>
<path d="M418.232 72.6597C418.232 72.7827 417.648 72.8851 416.942 72.8851C416.235 72.8851 415.641 72.7827 415.641 72.6597C415.641 72.5368 416.225 72.4344 416.942 72.4344C417.659 72.4344 418.232 72.5368 418.232 72.6597Z" fill="#263238"/>
<path d="M423.405 72.6597C423.405 72.7827 422.821 72.8851 422.114 72.8851C421.408 72.8851 420.813 72.7827 420.813 72.6597C420.813 72.5368 421.397 72.4344 422.114 72.4344C422.831 72.4344 423.405 72.5368 423.405 72.6597Z" fill="#263238"/>
<path d="M428.578 72.6597C428.578 72.7827 427.995 72.8851 427.288 72.8851C426.581 72.8851 425.987 72.7827 425.987 72.6597C425.987 72.5368 426.571 72.4344 427.288 72.4344C428.005 72.4344 428.578 72.5368 428.578 72.6597Z" fill="#263238"/>
<path d="M433.751 72.6597C433.751 72.7827 433.178 72.8851 432.461 72.8851C431.744 72.8851 431.17 72.7827 431.17 72.6597C431.17 72.5368 431.744 72.4344 432.461 72.4344C433.178 72.4344 433.751 72.5368 433.751 72.6597Z" fill="#263238"/>
<path d="M438.924 72.6597C438.924 72.7827 438.351 72.8851 437.633 72.8851C436.916 72.8851 436.343 72.7827 436.343 72.6597C436.343 72.5368 436.916 72.4344 437.633 72.4344C438.351 72.4344 438.924 72.5368 438.924 72.6597Z" fill="#263238"/>
<path d="M444.097 72.6597C444.097 72.7827 443.524 72.8851 442.807 72.8851C442.09 72.8851 441.516 72.7827 441.516 72.6597C441.516 72.5368 442.09 72.4344 442.807 72.4344C443.524 72.4344 444.097 72.5368 444.097 72.6597Z" fill="#263238"/>
<path d="M449.27 72.6597C449.27 72.7827 448.697 72.8851 447.98 72.8851C447.263 72.8851 446.689 72.7827 446.689 72.6597C446.689 72.5368 447.263 72.4344 447.98 72.4344C448.697 72.4344 449.27 72.5368 449.27 72.6597Z" fill="#263238"/>
<path d="M454.444 72.6597C454.444 72.7827 453.87 72.8851 453.153 72.8851C452.436 72.8851 451.862 72.7827 451.862 72.6597C451.862 72.5368 452.436 72.4344 453.153 72.4344C453.87 72.4344 454.444 72.5368 454.444 72.6597Z" fill="#263238"/>
<path d="M459.617 72.6597C459.617 72.7827 459.043 72.8851 458.326 72.8851C457.609 72.8851 457.035 72.7827 457.035 72.6597C457.035 72.5368 457.609 72.4344 458.326 72.4344C459.043 72.4344 459.617 72.5368 459.617 72.6597Z" fill="#263238"/>
<path d="M460.334 77.1566C460.211 77.1566 460.108 76.583 460.108 75.8659C460.108 75.1489 460.211 74.5753 460.334 74.5753C460.457 74.5753 460.559 75.1489 460.559 75.8659C460.559 76.583 460.457 77.1566 460.334 77.1566Z" fill="#263238"/>
<path d="M460.334 82.2785C460.211 82.2785 460.108 81.7048 460.108 80.9878C460.108 80.2707 460.211 79.6971 460.334 79.6971C460.457 79.6971 460.559 80.2707 460.559 80.9878C460.559 81.7048 460.457 82.2785 460.334 82.2785Z" fill="#263238"/>
<path d="M460.334 87.4619C460.211 87.4619 460.108 86.8882 460.108 86.1712C460.108 85.4541 460.211 84.8805 460.334 84.8805C460.457 84.8805 460.559 85.4541 460.559 86.1712C460.559 86.8882 460.457 87.4619 460.334 87.4619Z" fill="#263238"/>
<path d="M460.334 92.6349C460.211 92.6349 460.108 92.0612 460.108 91.3442C460.108 90.6271 460.211 90.0535 460.334 90.0535C460.457 90.0535 460.559 90.6271 460.559 91.3442C460.559 92.0612 460.457 92.6349 460.334 92.6349Z" fill="#263238"/>
<path d="M460.334 97.8181C460.211 97.8181 460.108 97.2342 460.108 96.5171C460.108 95.8001 460.211 95.2264 460.334 95.2264C460.457 95.2264 460.559 95.8103 460.559 96.5171C460.559 97.2239 460.457 97.8181 460.334 97.8181Z" fill="#263238"/>
<path d="M460.334 102.991C460.211 102.991 460.108 102.407 460.108 101.69C460.108 100.973 460.211 100.4 460.334 100.4C460.457 100.4 460.559 100.983 460.559 101.69C460.559 102.397 460.457 102.991 460.334 102.991Z" fill="#263238"/>
<path d="M460.334 108.164C460.211 108.164 460.108 107.58 460.108 106.863C460.108 106.146 460.211 105.573 460.334 105.573C460.457 105.573 460.559 106.156 460.559 106.863C460.559 107.57 460.457 108.164 460.334 108.164Z" fill="#263238"/>
<path d="M460.334 113.337C460.211 113.337 460.108 112.753 460.108 112.036C460.108 111.319 460.211 110.746 460.334 110.746C460.457 110.746 460.559 111.329 460.559 112.036C460.559 112.743 460.457 113.337 460.334 113.337Z" fill="#263238"/>
<path d="M460.334 118.51C460.211 118.51 460.108 117.926 460.108 117.219C460.108 116.513 460.211 115.919 460.334 115.919C460.457 115.919 460.559 116.502 460.559 117.219C460.559 117.937 460.457 118.51 460.334 118.51Z" fill="#263238"/>
<path d="M460.334 123.683C460.211 123.683 460.108 123.099 460.108 122.393C460.108 121.686 460.211 121.092 460.334 121.092C460.457 121.092 460.559 121.676 460.559 122.393C460.559 123.11 460.457 123.683 460.334 123.683Z" fill="#263238"/>
<path d="M460.334 128.856C460.211 128.856 460.108 128.272 460.108 127.566C460.108 126.859 460.211 126.265 460.334 126.265C460.457 126.265 460.559 126.849 460.559 127.566C460.559 128.283 460.457 128.856 460.334 128.856Z" fill="#263238"/>
<path d="M460.334 134.029C460.211 134.029 460.108 133.445 460.108 132.739C460.108 132.032 460.211 131.438 460.334 131.438C460.457 131.438 460.559 132.022 460.559 132.739C460.559 133.456 460.457 134.029 460.334 134.029Z" fill="#263238"/>
<path d="M462.679 132.862H457.998V137.543H462.679V132.862Z" fill="#263238"/>
<path d="M399.487 133.507H394.805V138.188H399.487V133.507Z" fill="#263238"/>
<path d="M462.679 69.8633H457.998V74.5446H462.679V69.8633Z" fill="#263238"/>
<path d="M399.487 70.314H394.805V74.9954H399.487V70.314Z" fill="#263238"/>
<path d="M104.542 227.123C104.542 227.001 105.116 226.898 105.833 226.898C106.55 226.898 107.123 227.001 107.123 227.123C107.123 227.246 106.55 227.349 105.833 227.349C105.116 227.349 104.542 227.246 104.542 227.123Z" fill="#263238"/>
<path d="M99.3687 227.123C99.3687 227.001 99.9423 226.898 100.659 226.898C101.376 226.898 101.95 227.001 101.95 227.123C101.95 227.246 101.376 227.349 100.659 227.349C99.9423 227.349 99.3687 227.246 99.3687 227.123Z" fill="#263238"/>
<path d="M94.1855 227.123C94.1855 227.001 94.7592 226.898 95.4762 226.898C96.1933 226.898 96.7669 227.001 96.7669 227.123C96.7669 227.246 96.1933 227.349 95.4762 227.349C94.7592 227.349 94.1855 227.246 94.1855 227.123Z" fill="#263238"/>
<path d="M89.0635 227.123C89.0635 227.001 89.6371 226.898 90.3542 226.898C91.0712 226.898 91.6449 227.001 91.6449 227.123C91.6449 227.246 91.0712 227.349 90.3542 227.349C89.6371 227.349 89.0635 227.246 89.0635 227.123Z" fill="#263238"/>
<path d="M83.8394 227.123C83.8394 227.001 84.4232 226.898 85.1403 226.898C85.8573 226.898 86.431 227.001 86.431 227.123C86.431 227.246 85.8471 227.349 85.1403 227.349C84.4335 227.349 83.8394 227.246 83.8394 227.123Z" fill="#263238"/>
<path d="M78.6665 227.123C78.6665 227.001 79.2504 226.898 79.9674 226.898C80.6845 226.898 81.2581 227.001 81.2581 227.123C81.2581 227.246 80.6743 227.349 79.9674 227.349C79.2606 227.349 78.6665 227.246 78.6665 227.123Z" fill="#263238"/>
<path d="M73.4932 227.123C73.4932 227.001 74.077 226.898 74.7941 226.898C75.5112 226.898 76.0848 227.001 76.0848 227.123C76.0848 227.246 75.5009 227.349 74.7941 227.349C74.0873 227.349 73.4932 227.246 73.4932 227.123Z" fill="#263238"/>
<path d="M68.3203 227.123C68.3203 227.001 68.9042 226.898 69.6212 226.898C70.3383 226.898 70.9119 227.001 70.9119 227.123C70.9119 227.246 70.3281 227.349 69.6212 227.349C68.9144 227.349 68.3203 227.246 68.3203 227.123Z" fill="#263238"/>
<path d="M63.147 227.123C63.147 227.001 63.7309 226.898 64.4377 226.898C65.1445 226.898 65.7386 227.001 65.7386 227.123C65.7386 227.246 65.1547 227.349 64.4377 227.349C63.7206 227.349 63.147 227.246 63.147 227.123Z" fill="#263238"/>
<path d="M57.9741 227.123C57.9741 227.001 58.558 226.898 59.2648 226.898C59.9716 226.898 60.5658 227.001 60.5658 227.123C60.5658 227.246 59.9819 227.349 59.2648 227.349C58.5478 227.349 57.9741 227.246 57.9741 227.123Z" fill="#263238"/>
<path d="M52.8013 227.123C52.8013 227.001 53.3852 226.898 54.092 226.898C54.7988 226.898 55.3929 227.001 55.3929 227.123C55.3929 227.246 54.809 227.349 54.092 227.349C53.3749 227.349 52.8013 227.246 52.8013 227.123Z" fill="#263238"/>
<path d="M47.6284 227.123C47.6284 227.001 48.2123 226.898 48.9191 226.898C49.6259 226.898 50.2201 227.001 50.2201 227.123C50.2201 227.246 49.6362 227.349 48.9191 227.349C48.2021 227.349 47.6284 227.246 47.6284 227.123Z" fill="#263238"/>
<path d="M43.9919 225.689C44.1148 225.689 44.2172 226.273 44.2172 226.98V227.175L43.9919 226.959C44.6167 226.959 45.0879 227.062 45.0879 227.175C45.0879 227.287 44.6167 227.379 43.9919 227.4H43.7767V226.98C43.7153 226.222 43.8177 225.689 43.9919 225.689Z" fill="#263238"/>
<path d="M43.992 220.465C44.1149 220.465 44.2173 221.049 44.2173 221.756C44.2173 222.463 44.1149 223.057 43.992 223.057C43.869 223.057 43.7666 222.473 43.7666 221.756C43.7666 221.039 43.8178 220.465 43.992 220.465Z" fill="#263238"/>
<path d="M43.992 215.292C44.1149 215.292 44.2173 215.866 44.2173 216.583C44.2173 217.3 44.1149 217.873 43.992 217.873C43.869 217.873 43.7666 217.3 43.7666 216.583C43.7666 215.866 43.8178 215.292 43.992 215.292Z" fill="#263238"/>
<path d="M43.992 210.119C44.1149 210.119 44.2173 210.693 44.2173 211.41C44.2173 212.127 44.1149 212.7 43.992 212.7C43.869 212.7 43.7666 212.127 43.7666 211.41C43.7666 210.693 43.8178 210.119 43.992 210.119Z" fill="#263238"/>
<path d="M43.992 204.946C44.1149 204.946 44.2173 205.52 44.2173 206.237C44.2173 206.954 44.1149 207.527 43.992 207.527C43.869 207.527 43.7666 206.954 43.7666 206.237C43.7666 205.52 43.8178 204.946 43.992 204.946Z" fill="#263238"/>
<path d="M43.992 199.773C44.1149 199.773 44.2173 200.346 44.2173 201.064C44.2173 201.781 44.1149 202.354 43.992 202.354C43.869 202.354 43.7666 201.781 43.7666 201.064C43.7666 200.346 43.8178 199.773 43.992 199.773Z" fill="#263238"/>
<path d="M43.992 194.6C44.1149 194.6 44.2173 195.174 44.2173 195.891C44.2173 196.608 44.1149 197.181 43.992 197.181C43.869 197.181 43.7666 196.608 43.7666 195.891C43.7666 195.174 43.8178 194.6 43.992 194.6Z" fill="#263238"/>
<path d="M43.992 189.427C44.1149 189.427 44.2173 190.001 44.2173 190.718C44.2173 191.435 44.1149 192.008 43.992 192.008C43.869 192.008 43.7666 191.435 43.7666 190.718C43.7666 190.001 43.8178 189.427 43.992 189.427Z" fill="#263238"/>
<path d="M43.992 184.244C44.1149 184.244 44.2173 184.827 44.2173 185.544C44.2173 186.262 44.1149 186.835 43.992 186.835C43.869 186.835 43.7666 186.251 43.7666 185.544C43.7666 184.838 43.8178 184.244 43.992 184.244Z" fill="#263238"/>
<path d="M43.992 179.071C44.1149 179.071 44.2173 179.654 44.2173 180.371C44.2173 181.089 44.0637 181.642 43.992 181.642C43.9203 181.642 43.7666 181.058 43.7666 180.351C43.7666 179.644 43.8178 179.071 43.992 179.071Z" fill="#263238"/>
<path d="M43.992 173.898C44.1149 173.898 44.2173 174.481 44.2173 175.199C44.2173 175.916 44.0637 176.52 43.992 176.52C43.9203 176.52 43.7666 175.936 43.7666 175.229C43.7666 174.522 43.8178 173.898 43.992 173.898Z" fill="#263238"/>
<path d="M43.992 168.725C44.1149 168.725 44.2173 169.309 44.2173 170.026C44.2173 170.743 44.1149 171.316 43.992 171.316C43.869 171.316 43.7666 170.732 43.7666 170.026C43.7666 169.319 43.8178 168.725 43.992 168.725Z" fill="#263238"/>
<path d="M44.33 163.941C44.33 164.002 44.1763 164.064 43.9407 164.105L44.1046 163.941C44.1494 164.239 44.17 164.541 44.1661 164.842C44.1661 165.559 44.0636 166.143 43.9407 166.143C43.8178 166.143 43.7153 165.559 43.7153 164.842C43.7165 164.541 43.737 164.24 43.7768 163.941V163.756H43.8997C44.1763 163.818 44.33 163.879 44.33 163.941Z" fill="#263238"/>
<path d="M49.5028 163.941C49.5028 164.064 48.9189 164.166 48.2121 164.166C47.5053 164.166 46.9111 164.064 46.9111 163.941C46.9111 163.818 47.495 163.715 48.2121 163.715C48.9291 163.715 49.5028 163.818 49.5028 163.941Z" fill="#263238"/>
<path d="M54.6756 163.941C54.6756 164.064 54.102 164.166 53.3849 164.166C52.6679 164.166 52.0942 164.064 52.0942 163.941C52.0942 163.818 52.6679 163.715 53.3849 163.715C54.102 163.715 54.6756 163.818 54.6756 163.941Z" fill="#263238"/>
<path d="M59.849 163.941C59.849 164.064 59.2753 164.166 58.5583 164.166C57.8412 164.166 57.2676 164.064 57.2676 163.941C57.2676 163.818 57.8412 163.715 58.5583 163.715C59.2753 163.715 59.849 163.818 59.849 163.941Z" fill="#263238"/>
<path d="M65.0218 163.941C65.0218 164.064 64.4482 164.166 63.7311 164.166C63.0141 164.166 62.4404 164.064 62.4404 163.941C62.4404 163.818 63.0141 163.715 63.7311 163.715C64.4482 163.715 65.0218 163.818 65.0218 163.941Z" fill="#263238"/>
<path d="M70.1952 163.941C70.1952 164.064 69.6215 164.166 68.9045 164.166C68.1874 164.166 67.6138 164.064 67.6138 163.941C67.6138 163.818 68.1874 163.715 68.9045 163.715C69.6215 163.715 70.1952 163.818 70.1952 163.941Z" fill="#263238"/>
<path d="M75.368 163.941C75.368 164.064 74.7944 164.166 74.0773 164.166C73.3603 164.166 72.7866 164.064 72.7866 163.941C72.7866 163.818 73.3603 163.715 74.0773 163.715C74.7944 163.715 75.368 163.818 75.368 163.941Z" fill="#263238"/>
<path d="M80.5409 163.941C80.5409 164.064 79.9672 164.166 79.2502 164.166C78.5331 164.166 77.9595 164.064 77.9595 163.941C77.9595 163.818 78.5331 163.715 79.2502 163.715C79.9672 163.715 80.5409 163.818 80.5409 163.941Z" fill="#263238"/>
<path d="M85.7142 163.941C85.7142 164.064 85.1406 164.166 84.4235 164.166C83.7065 164.166 83.1328 164.064 83.1328 163.941C83.1328 163.818 83.7065 163.715 84.4235 163.715C85.1406 163.715 85.7142 163.818 85.7142 163.941Z" fill="#263238"/>
<path d="M90.8973 163.941C90.8973 164.064 90.3134 164.166 89.5964 164.166C88.8793 164.166 88.3057 164.064 88.3057 163.941C88.3057 163.818 88.8895 163.715 89.5964 163.715C90.3032 163.715 90.8973 163.818 90.8973 163.941Z" fill="#263238"/>
<path d="M96.0702 163.941C96.0702 164.064 95.4863 164.166 94.7692 164.166C94.0522 164.166 93.4785 164.064 93.4785 163.941C93.4785 163.818 94.0624 163.715 94.7692 163.715C95.476 163.715 96.0702 163.818 96.0702 163.941Z" fill="#263238"/>
<path d="M101.243 163.941C101.243 164.064 100.66 164.166 99.9426 164.166C99.2255 164.166 98.6519 164.064 98.6519 163.941C98.6519 163.818 99.2357 163.715 99.9426 163.715C100.649 163.715 101.243 163.818 101.243 163.941Z" fill="#263238"/>
<path d="M106.416 163.941C106.416 164.064 105.832 164.166 105.115 164.166C104.398 164.166 103.825 164.064 103.825 163.941C103.825 163.818 104.409 163.715 105.115 163.715C105.822 163.715 106.416 163.818 106.416 163.941Z" fill="#263238"/>
<path d="M107.123 168.407C107 168.407 106.898 167.823 106.898 167.106C106.898 166.389 107 165.815 107.123 165.815C107.246 165.815 107.349 166.399 107.349 167.106C107.349 167.813 107.246 168.407 107.123 168.407Z" fill="#263238"/>
<path d="M107.123 173.58C107 173.58 106.898 172.996 106.898 172.279C106.898 171.562 107 170.988 107.123 170.988C107.246 170.988 107.349 171.572 107.349 172.279C107.349 172.986 107.246 173.58 107.123 173.58Z" fill="#263238"/>
<path d="M107.123 178.753C107 178.753 106.898 178.169 106.898 177.452C106.898 176.735 107 176.161 107.123 176.161C107.246 176.161 107.349 176.745 107.349 177.452C107.349 178.159 107.246 178.753 107.123 178.753Z" fill="#263238"/>
<path d="M107.123 183.926C107 183.926 106.898 183.342 106.898 182.635C106.898 181.928 107 181.334 107.123 181.334C107.246 181.334 107.349 181.918 107.349 182.635C107.349 183.352 107.246 183.926 107.123 183.926Z" fill="#263238"/>
<path d="M107.123 189.099C107 189.099 106.898 188.515 106.898 187.808C106.898 187.102 107 186.507 107.123 186.507C107.246 186.507 107.349 187.091 107.349 187.808C107.349 188.525 107.246 189.099 107.123 189.099Z" fill="#263238"/>
<path d="M107.123 194.272C107 194.272 106.898 193.688 106.898 192.981C106.898 192.275 107 191.68 107.123 191.68C107.246 191.68 107.349 192.264 107.349 192.981C107.349 193.698 107.246 194.272 107.123 194.272Z" fill="#263238"/>
<path d="M107.123 199.445C107 199.445 106.898 198.861 106.898 198.155C106.898 197.448 107 196.854 107.123 196.854C107.246 196.854 107.349 197.438 107.349 198.155C107.349 198.872 107.246 199.445 107.123 199.445Z" fill="#263238"/>
<path d="M107.123 204.618C107 204.618 106.898 204.045 106.898 203.328C106.898 202.611 107 202.037 107.123 202.037C107.246 202.037 107.349 202.611 107.349 203.328C107.349 204.045 107.246 204.618 107.123 204.618Z" fill="#263238"/>
<path d="M107.123 209.791C107 209.791 106.898 209.217 106.898 208.5C106.898 207.783 107 207.21 107.123 207.21C107.246 207.21 107.349 207.783 107.349 208.5C107.349 209.217 107.246 209.791 107.123 209.791Z" fill="#263238"/>
<path d="M107.123 214.964C107 214.964 106.898 214.391 106.898 213.674C106.898 212.956 107 212.383 107.123 212.383C107.246 212.383 107.349 212.956 107.349 213.674C107.349 214.391 107.246 214.964 107.123 214.964Z" fill="#263238"/>
<path d="M107.123 220.137C107 220.137 106.898 219.564 106.898 218.847C106.898 218.13 107 217.556 107.123 217.556C107.246 217.556 107.349 218.13 107.349 218.847C107.349 219.564 107.246 220.137 107.123 220.137Z" fill="#263238"/>
<path d="M107.123 225.31C107 225.31 106.898 224.737 106.898 224.02C106.898 223.303 107 222.729 107.123 222.729C107.246 222.729 107.349 223.303 107.349 224.02C107.349 224.737 107.246 225.31 107.123 225.31Z" fill="#263238"/>
<path d="M109.469 224.142H104.788V228.824H109.469V224.142Z" fill="#263238"/>
<path d="M46.2863 224.788H41.605V229.469H46.2863V224.788Z" fill="#263238"/>
<path d="M109.469 161.144H104.788V165.826H109.469V161.144Z" fill="#263238"/>
<path d="M46.2863 161.605H41.605V166.287H46.2863V161.605Z" fill="#263238"/>
<path d="M410.621 183.168H128.297V446.89H410.621V183.168Z" fill="white"/>
<path d="M410.621 182.891H128.297V201.064H410.621V182.891Z" fill="#727272"/>
<path d="M141.358 193.412C141.329 193.925 141.152 194.419 140.846 194.833C140.54 195.247 140.12 195.562 139.637 195.739C139.154 195.917 138.63 195.949 138.129 195.831C137.628 195.714 137.173 195.453 136.819 195.08C136.465 194.706 136.228 194.238 136.137 193.731C136.047 193.225 136.107 192.703 136.309 192.23C136.512 191.758 136.849 191.355 137.278 191.071C137.708 190.788 138.21 190.636 138.725 190.635C139.441 190.657 140.12 190.961 140.613 191.481C141.107 192.001 141.374 192.695 141.358 193.412Z" fill="#263238"/>
<path d="M150.884 193.412C150.856 193.925 150.678 194.419 150.372 194.833C150.066 195.247 149.646 195.562 149.163 195.739C148.68 195.917 148.156 195.949 147.655 195.831C147.154 195.714 146.699 195.453 146.345 195.08C145.991 194.706 145.754 194.238 145.664 193.731C145.573 193.225 145.633 192.703 145.836 192.23C146.039 191.758 146.375 191.355 146.805 191.071C147.234 190.788 147.737 190.636 148.251 190.635C148.968 190.657 149.647 190.961 150.14 191.481C150.633 192.001 150.9 192.695 150.884 193.412Z" fill="#263238"/>
<path d="M159.642 191.445C160.136 191.979 160.41 192.679 160.41 193.406C160.41 194.134 160.136 194.834 159.642 195.368C159.405 195.625 159.118 195.83 158.798 195.97C158.478 196.11 158.132 196.182 157.783 196.182C157.434 196.182 157.088 196.11 156.768 195.97C156.448 195.83 156.161 195.625 155.924 195.368C155.425 194.836 155.148 194.135 155.148 193.406C155.148 192.678 155.425 191.976 155.924 191.445C156.162 191.191 156.45 190.988 156.77 190.85C157.09 190.712 157.434 190.64 157.783 190.64C158.131 190.64 158.476 190.712 158.796 190.85C159.116 190.988 159.404 191.191 159.642 191.445Z" fill="#263238"/>
<path d="M410.621 446.614C410.621 445.231 410.55 341.381 410.457 182.891L410.621 183.055H128.328L128.522 182.861C128.522 279.059 128.522 369.438 128.522 446.583L128.358 446.419L410.683 446.583L128.358 446.747H128.194V446.583C128.194 369.438 128.194 279.059 128.194 182.861V182.666H128.42H410.714H410.877V182.83C410.714 341.381 410.621 445.231 410.621 446.614Z" fill="#263238"/>
<path d="M262.59 214.739H248.495V228.834H262.59V214.739Z" fill="#363637"/>
<path d="M280.558 214.739H266.463V228.834H280.558V214.739Z" fill="#363637"/>
<path d="M298.515 214.739H284.42V228.834H298.515V214.739Z" fill="#363637"/>
<path opacity="0.4" d="M298.515 214.739H284.42V228.834H298.515V214.739Z" fill="white"/>
<path opacity="0.2" d="M262.59 214.739H248.495V228.834H262.59V214.739Z" fill="black"/>
<path d="M215.06 147.909C215.06 148.012 213.534 147.52 211.045 147.182C209.591 146.995 208.126 146.916 206.66 146.946C204.863 147 203.074 147.209 201.313 147.571C199.563 147.968 197.85 148.513 196.191 149.2C194.838 149.779 193.533 150.464 192.289 151.249C190.158 152.57 188.99 153.635 188.929 153.554C188.867 153.472 189.175 153.246 189.697 152.765C189.963 152.529 190.291 152.232 190.721 151.935C191.152 151.638 191.572 151.259 192.114 150.911C193.352 150.075 194.661 149.352 196.027 148.749C197.711 148.031 199.456 147.469 201.241 147.069C203.035 146.698 204.86 146.495 206.691 146.465C208.184 146.455 209.675 146.575 211.147 146.823C211.713 146.911 212.273 147.028 212.827 147.172C213.247 147.261 213.661 147.378 214.067 147.52C214.411 147.613 214.744 147.743 215.06 147.909Z" fill="#FAFAFA"/>
<path d="M344.816 120.231L316.267 110.745C296.477 103.688 285.434 105.501 266.524 114.638C265.295 115.232 263.185 116.154 261.177 117.045L227.813 131.776L203.956 142.193C187.884 149.2 179.464 165.19 178.695 182.707L257.295 182.779L360.827 182.727L378.815 150.972C374.441 128.856 352.151 123.693 344.816 120.231Z" fill="#363637"/>
<path d="M365.816 130.618L430.924 190.4C433.629 192.888 435.771 195.924 437.208 199.306C438.644 202.689 439.342 206.339 439.254 210.013C439.165 213.686 438.293 217.299 436.696 220.608C435.099 223.918 432.813 226.848 429.992 229.203L396.024 257.506L372.075 243.943L400.122 207.661L360.827 182.728L365.816 130.618Z" fill="#363637"/>
<path d="M280.364 182.318C280.352 182.223 280.352 182.126 280.364 182.031C280.364 181.816 280.364 181.55 280.292 181.211C280.292 180.433 280.179 179.368 280.097 178.015C279.944 175.198 279.728 171.203 279.462 166.276L279.616 166.461C268.212 163.908 256.955 160.742 245.894 156.975C239.194 154.752 232.987 152.109 227.148 150.399C224.39 149.568 221.561 148.995 218.697 148.688C216.203 148.429 213.686 148.494 211.209 148.883C207.605 149.404 204.188 150.812 201.262 152.98C200.485 153.589 199.756 154.257 199.08 154.978L198.568 155.551C198.445 155.684 198.384 155.746 198.374 155.736C199.142 154.631 200.071 153.647 201.129 152.816C204.047 150.55 207.495 149.065 211.147 148.504C213.655 148.08 216.207 147.99 218.738 148.237C221.632 148.526 224.493 149.089 227.281 149.917C233.181 151.618 239.379 154.24 246.068 156.463C258.924 160.847 270.868 164.023 279.698 166.071H279.841V166.276C280.036 171.203 280.189 175.209 280.302 178.026C280.302 179.378 280.374 180.453 280.394 181.222V182.051C280.394 182.141 280.384 182.23 280.364 182.318Z" fill="#263238"/>
<path d="M266.545 163.008C266.401 163.008 266.452 158.03 266.678 151.894C266.903 145.758 267.19 140.78 267.333 140.78C267.477 140.78 267.426 145.768 267.21 151.904C266.995 158.04 266.698 163.019 266.545 163.008Z" fill="#263238"/>
<path d="M360.52 183.188C360.469 182.77 360.469 182.347 360.52 181.929C360.52 181.017 360.602 179.88 360.653 178.528C360.755 175.659 360.817 171.695 360.848 167.26C360.878 162.824 360.96 158.901 361.104 155.992C361.175 154.558 361.247 153.39 361.319 152.591C361.332 152.17 361.387 151.751 361.483 151.341C361.547 151.758 361.564 152.18 361.534 152.601C361.534 153.513 361.534 154.65 361.483 156.002C361.483 158.993 361.421 162.906 361.38 167.27C361.339 171.634 361.227 175.639 361.022 178.538C360.929 179.972 360.827 181.14 360.725 181.939C360.704 182.362 360.635 182.781 360.52 183.188Z" fill="#263238"/>
<path d="M312.774 132.38C312.114 132.918 311.404 133.391 310.654 133.794C309.506 134.552 308.666 135.32 308.554 135.218C308.441 135.115 309.148 134.193 310.367 133.343C311.051 132.782 311.892 132.445 312.774 132.38Z" fill="#263238"/>
<path d="M315.858 141.691C315.753 140.689 315.984 139.681 316.513 138.823C317.271 137.338 318.357 136.488 318.449 136.6C318.541 136.713 317.691 137.625 316.995 139.069C316.298 140.513 316.011 141.691 315.858 141.691Z" fill="#263238"/>
<path d="M326.316 143.279C325.83 141.588 325.934 139.781 326.613 138.157C326.737 139.007 326.737 139.869 326.613 140.718C326.638 141.582 326.538 142.444 326.316 143.279Z" fill="#263238"/>
<path d="M337.389 141.691C337.051 140.748 336.777 139.783 336.57 138.803C336.202 137.873 335.901 136.918 335.668 135.945C336.379 136.699 336.868 137.635 337.082 138.649C337.468 139.614 337.575 140.669 337.389 141.691Z" fill="#263238"/>
<path d="M344.499 134.029C344.355 134.091 343.853 133.23 343.116 132.267C342.378 131.304 341.692 130.587 341.784 130.465C341.876 130.342 342.809 130.915 343.546 131.94C344.284 132.964 344.632 133.978 344.499 134.029Z" fill="#263238"/>
<path d="M349.18 127.863C349.047 127.945 348.278 126.838 346.926 125.906C345.574 124.974 344.283 124.626 344.314 124.472C345.379 124.45 346.416 124.814 347.233 125.496C348.153 126.017 348.847 126.86 349.18 127.863Z" fill="#263238"/>
<path d="M308.861 125.302C308.861 125.455 307.837 125.66 306.812 126.234C305.788 126.808 304.958 127.484 304.846 127.381C304.733 127.279 305.358 126.357 306.566 125.752C307.242 125.306 308.067 125.144 308.861 125.302Z" fill="#263238"/>
<path d="M307.724 118.94C307.642 119.063 306.853 118.684 305.819 118.5C304.784 118.316 303.903 118.408 303.872 118.254C303.842 118.1 304.743 117.773 305.921 117.977C307.099 118.182 307.816 118.828 307.724 118.94Z" fill="#263238"/>
<path d="M280.066 178.19C278.838 178.451 277.58 178.541 276.327 178.456C275.074 178.535 273.816 178.442 272.588 178.179C273.816 177.917 275.075 177.827 276.327 177.913C277.58 177.834 278.838 177.927 280.066 178.19Z" fill="#263238"/>
<path d="M279.851 173.058C278.696 173.364 277.502 173.502 276.307 173.467C275.119 173.602 273.917 173.557 272.742 173.334C275.086 172.894 277.481 172.801 279.851 173.058Z" fill="#263238"/>
<path d="M279.595 168.694C278.393 168.916 277.164 168.961 275.949 168.827C274.727 168.868 273.506 168.733 272.322 168.427C273.525 168.205 274.753 168.16 275.969 168.294C277.191 168.253 278.412 168.388 279.595 168.694Z" fill="#263238"/>
<path d="M418.017 211.348C417.945 211.41 417.198 210.621 415.753 209.627C414.91 209.057 414.019 208.56 413.09 208.142C411.949 207.647 410.762 207.266 409.546 207.005C408.324 206.763 407.083 206.639 405.837 206.636C404.806 206.65 403.778 206.752 402.764 206.943C401.054 207.281 400.04 207.712 400.009 207.619C399.978 207.527 400.234 207.455 400.685 207.251C401.326 206.958 401.995 206.731 402.682 206.575C403.689 206.326 404.719 206.182 405.756 206.144C407.041 206.116 408.326 206.23 409.587 206.482C410.841 206.75 412.061 207.159 413.223 207.701C414.17 208.148 415.07 208.691 415.907 209.32C416.471 209.743 416.995 210.216 417.474 210.733C417.884 211.112 418.048 211.348 418.017 211.348Z" fill="#263238"/>
<path d="M389.622 244.712C388.287 247.16 386.536 249.357 384.449 251.206C385.152 250.011 385.972 248.889 386.897 247.856C387.692 246.715 388.605 245.661 389.622 244.712Z" fill="#263238"/>
<path d="M383.568 240.399C382.735 241.643 381.759 242.784 380.659 243.8C379.682 244.949 378.575 245.98 377.36 246.873C378.194 245.627 379.171 244.482 380.27 243.462C381.248 242.318 382.354 241.29 383.568 240.399Z" fill="#263238"/>
<g opacity="0.3">
<path d="M399.63 207.486C401.741 205.774 404.207 204.551 406.848 203.908C409.49 203.265 412.241 203.217 414.903 203.768C416.747 204.167 418.734 205.048 419.41 206.841C419.64 207.362 419.669 207.95 419.491 208.49C419.313 209.031 418.941 209.487 418.447 209.771C417.423 210.211 416.255 209.473 415.282 208.879C413.037 207.519 410.509 206.695 407.894 206.471C405.279 206.247 402.647 206.63 400.204 207.589L401.761 207.302" fill="black"/>
</g>
<g opacity="0.2">
<path d="M206.865 150.163C211.772 146.066 218.523 144.754 224.884 145.318C231.245 145.881 237.309 148.166 243.21 150.583C247.307 152.273 251.405 154.045 255.625 155.418C259.517 156.67 263 158.949 265.705 162.015L266.575 163.039C250.462 157.979 248.291 157.129 232.177 152.068C227.947 150.595 223.588 149.522 219.158 148.862C214.705 148.209 210.158 148.819 206.036 150.624" fill="black"/>
</g>
<path d="M353.779 124.021C353.779 124.021 353.779 124.103 353.728 124.267L353.523 124.974C353.257 125.874 352.935 126.757 352.56 127.617C351.227 130.82 349.402 133.796 347.152 136.437C343.822 140.399 339.534 143.442 334.695 145.277C328.74 147.555 322.196 147.789 316.093 145.943C310.011 143.976 304.855 139.861 301.588 134.367C300.175 131.987 299.207 129.37 298.73 126.644C298.33 124.273 298.296 121.855 298.627 119.473C299.081 116.02 300.333 112.719 302.284 109.834C302.978 108.767 303.8 107.79 304.733 106.925C304.689 106.998 304.637 107.067 304.579 107.13L304.108 107.693C303.846 107.985 303.603 108.293 303.381 108.615C303.047 109.042 302.735 109.487 302.448 109.947C300.592 112.839 299.412 116.113 298.996 119.524C298.694 121.869 298.753 124.245 299.17 126.572C299.655 129.239 300.616 131.796 302.008 134.122C305.239 139.477 310.301 143.48 316.257 145.389C322.246 147.202 328.665 146.99 334.521 144.785C339.297 142.991 343.542 140.021 346.865 136.15C349.119 133.552 350.976 130.635 352.376 127.494C352.867 126.388 353.216 125.445 353.4 124.892C353.503 124.615 353.595 124.39 353.656 124.206C353.694 124.142 353.735 124.08 353.779 124.021Z" fill="#FAFAFA"/>
<path d="M385.954 149.518C385.947 149.643 385.923 149.767 385.883 149.886C385.76 150.238 385.58 150.567 385.35 150.86C384.877 151.402 384.29 151.833 383.632 152.121C382.973 152.41 382.258 152.549 381.539 152.529C380.492 152.514 379.454 152.327 378.466 151.976C377.391 151.638 376.274 151.157 375.035 150.788C372.21 149.962 369.267 149.616 366.328 149.764C362.764 149.953 359.234 150.551 355.807 151.546C352.089 152.57 348.207 153.933 344.037 155.182C339.689 156.519 335.234 157.479 330.721 158.051C325.855 158.675 320.927 158.633 316.072 157.928C311.203 157.213 306.5 155.639 302.182 153.277C300.137 152.146 298.212 150.811 296.435 149.292C294.745 147.827 293.179 146.223 291.754 144.498C288.957 141.149 286.683 137.686 284.44 134.552C282.418 131.608 280.153 128.84 277.669 126.275C275.607 124.176 273.229 122.413 270.621 121.051C268.649 120.033 266.525 119.341 264.332 119.002C262.946 118.782 261.538 118.744 260.142 118.889C259.179 118.981 258.687 119.104 258.677 119.074C259.153 118.935 259.64 118.835 260.132 118.777C261.536 118.584 262.959 118.584 264.362 118.777C266.592 119.102 268.751 119.794 270.754 120.825C273.409 122.171 275.83 123.935 277.925 126.05C280.446 128.61 282.742 131.383 284.788 134.337C287.052 137.471 289.336 140.913 292.123 144.222C294.978 147.731 298.475 150.665 302.428 152.867C306.696 155.184 311.339 156.73 316.144 157.436C320.95 158.138 325.83 158.186 330.649 157.579C335.143 157.017 339.581 156.071 343.914 154.752C348.073 153.523 351.966 152.15 355.715 151.157C359.177 150.17 362.742 149.589 366.338 149.426C369.312 149.302 372.286 149.676 375.137 150.532C376.397 150.921 377.514 151.423 378.569 151.761C379.515 152.113 380.51 152.313 381.519 152.355C382.213 152.38 382.905 152.257 383.548 151.994C384.191 151.731 384.77 151.334 385.247 150.829C385.567 150.443 385.808 149.997 385.954 149.518Z" fill="#FAFAFA"/>
<path d="M266.217 154.127C266.065 154.156 265.908 154.156 265.756 154.127C265.316 154.117 264.877 154.069 264.445 153.984C262.839 153.664 261.316 153.019 259.968 152.089C257.973 150.718 256.212 149.033 254.754 147.1C253.054 144.99 251.435 142.49 249.407 140.165C247.497 137.975 245.202 136.152 242.636 134.787C240.541 133.676 238.299 132.866 235.978 132.38C233.819 131.988 231.626 131.807 229.432 131.837C229.581 131.788 229.736 131.76 229.893 131.755C230.19 131.755 230.631 131.663 231.204 131.653C232.828 131.592 234.453 131.712 236.05 132.011C241.383 132.99 246.231 135.74 249.807 139.817C251.855 142.183 253.484 144.693 255.144 146.803C256.558 148.708 258.254 150.386 260.173 151.781C261.474 152.71 262.936 153.388 264.486 153.779C265.582 154.066 266.217 154.076 266.217 154.127Z" fill="#FAFAFA"/>
<path d="M359.27 182.42C359.27 182.42 359.27 182.348 359.137 182.195L358.798 181.519C358.655 181.211 358.46 180.853 358.215 180.433C357.945 179.938 357.648 179.459 357.323 178.999C355.313 176.032 352.72 173.505 349.702 171.572C347.641 170.218 345.435 169.098 343.126 168.233C340.473 167.266 337.726 166.579 334.931 166.184C328.47 165.384 321.937 165.35 315.468 166.082C308.564 166.686 301.967 167.464 295.933 167.454C290.561 167.561 285.206 166.818 280.066 165.252C276.606 164.197 273.348 162.57 270.427 160.437C269.353 159.666 268.358 158.791 267.456 157.825C267.456 157.825 267.538 157.825 267.671 157.979L268.245 158.471C268.491 158.696 268.808 158.962 269.197 159.259C269.587 159.556 270.027 159.915 270.55 160.284C273.489 162.334 276.741 163.894 280.179 164.904C285.279 166.393 290.58 167.084 295.892 166.952C301.905 166.952 308.472 166.153 315.355 165.539C321.866 164.801 328.442 164.853 334.941 165.692C337.776 166.11 340.558 166.831 343.238 167.843C345.572 168.737 347.798 169.888 349.876 171.275C352.91 173.26 355.492 175.86 357.457 178.907C358.195 180.003 358.804 181.183 359.27 182.42Z" fill="#FAFAFA"/>
<path d="M400.787 163.203C400.787 163.326 398.431 163.5 394.785 164.607L393.371 165.057C392.869 165.221 392.347 165.436 391.865 165.641C390.841 166.02 389.745 166.573 388.618 167.106C383.763 169.611 379.496 173.121 376.1 177.401C375.352 178.425 374.605 179.347 374.052 180.3C373.754 180.781 373.447 181.222 373.191 181.672C372.935 182.123 372.699 182.553 372.474 182.973C370.692 186.333 370.057 188.638 369.934 188.597C370.045 188.051 370.196 187.513 370.384 186.989C370.571 186.364 370.797 185.752 371.06 185.155C371.378 184.352 371.737 183.565 372.136 182.799L372.833 181.468C373.078 180.996 373.386 180.546 373.683 180.064C374.315 179.043 374.999 178.055 375.731 177.104C379.121 172.719 383.456 169.155 388.413 166.676C389.49 166.136 390.594 165.654 391.722 165.231C392.254 165.037 392.746 164.822 393.258 164.668L394.703 164.238C395.531 163.995 396.373 163.797 397.223 163.644C397.857 163.497 398.5 163.394 399.148 163.336C399.69 163.242 400.238 163.198 400.787 163.203Z" fill="#FAFAFA"/>
<path d="M419.544 181.119C419.077 181.302 418.593 181.436 418.099 181.519C417.157 181.734 415.805 182.082 414.155 182.543C412.506 183.004 410.57 183.711 408.47 184.592C406.197 185.543 403.981 186.623 401.832 187.829C399.71 189.059 397.658 190.407 395.686 191.865C393.873 193.227 392.306 194.538 391.036 195.706C389.765 196.874 388.782 197.847 388.116 198.544C387.785 198.916 387.422 199.259 387.03 199.568C387.3 199.141 387.612 198.743 387.962 198.38C388.851 197.346 389.791 196.358 390.779 195.419C392.223 194.016 393.749 192.699 395.348 191.476C397.33 189.981 399.403 188.613 401.556 187.378C403.728 186.17 405.972 185.095 408.276 184.162C410.159 183.409 412.085 182.766 414.043 182.236C415.712 181.785 417.116 181.488 418.038 181.334C418.533 181.224 419.037 181.152 419.544 181.119Z" fill="#FAFAFA"/>
<path d="M438.934 216.214C438.449 216.482 437.942 216.708 437.418 216.89C436.824 217.142 436.215 217.358 435.595 217.535C434.782 217.807 433.954 218.033 433.116 218.211L431.651 218.529C431.139 218.642 430.627 218.693 430.053 218.775C428.868 218.943 427.675 219.049 426.478 219.092C423.733 219.176 420.987 218.973 418.283 218.488C415.597 217.961 412.971 217.161 410.447 216.101C409.3 215.569 408.204 215.077 407.241 214.513C406.749 214.237 406.268 213.991 405.827 213.704L404.577 212.885C403.869 212.408 403.185 211.895 402.529 211.348C402.008 210.964 401.515 210.542 401.054 210.088C400.634 209.73 400.246 209.336 399.896 208.91C399.978 208.818 401.637 210.508 404.803 212.567L406.052 213.356C406.493 213.622 406.974 213.858 407.456 214.124C408.419 214.677 409.505 215.149 410.652 215.651C415.652 217.743 421.04 218.749 426.458 218.601C427.636 218.573 428.812 218.485 429.982 218.334C430.535 218.263 431.067 218.222 431.569 218.129L433.024 217.843C436.732 217.064 438.883 216.101 438.934 216.214Z" fill="#FAFAFA"/>
<path d="M403.225 250.069C403.08 249.681 402.973 249.28 402.908 248.871C402.713 247.979 402.467 246.883 402.191 245.572C401.465 241.943 400.324 238.409 398.79 235.042C397.215 231.701 394.818 228.814 391.824 226.652C390.528 225.818 389.156 225.109 387.727 224.532C388.142 224.575 388.549 224.678 388.935 224.839C390.02 225.204 391.053 225.706 392.008 226.335C395.139 228.457 397.641 231.383 399.251 234.806C400.801 238.213 401.9 241.808 402.518 245.5C402.774 246.904 402.959 248.041 403.072 248.83C403.169 249.236 403.22 249.652 403.225 250.069Z" fill="#FAFAFA"/>
<path d="M249.981 182.84C249.889 182.538 249.844 182.224 249.847 181.908C249.794 181.055 249.794 180.2 249.847 179.347C250.128 173.655 252.116 168.179 255.553 163.633C256.059 162.943 256.614 162.289 257.213 161.677C257.643 161.247 257.889 161.011 257.909 161.042C257.93 161.072 257.079 162.066 255.86 163.848C252.655 168.44 250.709 173.79 250.216 179.368C250.022 181.508 250.073 182.84 249.981 182.84Z" fill="#FAFAFA"/>
<path d="M210.829 182.666C210.778 182.165 210.778 181.661 210.829 181.16C210.836 180.574 210.877 179.989 210.952 179.408C211.034 178.732 211.096 177.944 211.27 177.104C211.444 176.264 211.598 175.321 211.874 174.338C212.151 173.354 212.458 172.289 212.817 171.265C213.662 168.929 214.722 166.676 215.982 164.535C217.275 162.416 218.756 160.417 220.407 158.563C221.196 157.733 221.933 156.924 222.702 156.258C223.384 155.607 224.102 154.995 224.853 154.424C225.455 153.932 226.084 153.474 226.738 153.052C227.213 152.707 227.709 152.392 228.223 152.109C228.641 151.834 229.084 151.598 229.544 151.402C229.606 151.505 227.731 152.539 225.089 154.721C224.433 155.264 223.716 155.869 223.04 156.586C222.364 157.303 221.585 158.061 220.817 158.89C219.202 160.733 217.752 162.714 216.484 164.811C215.24 166.922 214.181 169.136 213.319 171.429C212.95 172.453 212.581 173.477 212.294 174.502C212.007 175.526 211.813 176.387 211.639 177.227C210.963 180.504 210.963 182.666 210.829 182.666Z" fill="#FAFAFA"/>
<path d="M309.302 113.696C309.199 113.808 308.41 113.163 307.314 112.671C306.218 112.18 305.266 111.862 305.266 111.708C306.062 111.581 306.877 111.757 307.55 112.2C308.707 112.733 309.384 113.604 309.302 113.696Z" fill="#263238"/>
<path d="M319.617 56.8333C318.996 53.2901 318.724 49.6943 318.808 46.098C318.906 42.4798 320.068 38.9707 322.147 36.008C323.198 34.5529 324.585 33.3737 326.191 32.571C327.796 31.7684 329.572 31.366 331.366 31.3984C333.579 31.5418 335.73 32.4945 337.943 32.2896C340.504 32.054 342.634 30.3331 344.898 29.1243C348.468 27.2222 352.558 26.5285 356.555 27.1473C358.658 27.4038 360.644 28.2529 362.282 29.5955C363.09 30.2768 363.713 31.1516 364.093 32.1385C364.473 33.1253 364.597 34.1922 364.453 35.2398C367.032 34.963 369.635 35.0249 372.197 35.4241C374.787 35.8451 377.107 37.2648 378.661 39.3782C379.397 40.4473 379.775 41.7217 379.742 43.019C379.709 44.3163 379.266 45.5698 378.477 46.5999C379.677 46.3594 380.924 46.5716 381.978 47.1957C383.031 47.8199 383.817 48.8118 384.182 49.9803C384.489 51.1659 384.45 52.4147 384.069 53.5785C383.687 54.7424 382.98 55.7724 382.031 56.5465C379.732 58.185 376.926 58.9545 374.113 58.7182C371.685 58.4108 368.899 57.9192 366.86 56.567" fill="#263238"/>
<path d="M322.884 138.014C327.71 138.935 332.705 137.909 336.777 135.161C340.85 132.413 343.669 128.165 344.621 123.345C345.728 117.742 346.619 113.101 346.619 113.101C346.619 113.101 361.165 114.648 365.057 100.737C368.95 86.8265 375.076 54.1289 375.076 54.1289C368.053 48.5872 359.676 45.0232 350.814 43.8057C341.951 42.5882 332.924 43.7615 324.667 47.2042L322.178 48.2286L308.133 115.929C307.627 118.349 307.609 120.846 308.079 123.274C308.55 125.702 309.499 128.011 310.873 130.068C312.246 132.124 314.016 133.886 316.078 135.25C318.141 136.615 320.455 137.554 322.884 138.014Z" fill="#BABBBB"/>
<path d="M346.701 112.856C340.223 111.256 334.368 107.765 329.881 102.827C329.881 102.827 331.499 114.023 345.769 116.482L346.701 112.856Z" fill="#9B9D9C"/>
<path d="M320.068 63.1638C319.853 62.9999 311.227 57.7757 308.994 67.3945C306.761 77.0132 316.872 77.2796 316.954 77.0132C317.036 76.7469 320.068 63.1638 320.068 63.1638Z" fill="#BABBBB"/>
<path d="M314.864 72.6802C314.864 72.6802 314.669 72.7621 314.352 72.8236C313.916 72.9017 313.468 72.8061 313.102 72.5572C312.17 71.9529 311.688 70.1397 312.077 68.3881C312.243 67.5562 312.593 66.772 313.102 66.0935C313.262 65.8118 313.486 65.5721 313.757 65.394C314.028 65.2159 314.337 65.1046 314.659 65.0691C314.864 65.0646 315.064 65.1317 315.225 65.2588C315.386 65.386 315.497 65.5652 315.54 65.7657C315.612 66.0628 315.54 66.2369 315.54 66.2676C315.54 66.2984 315.786 66.155 315.806 65.7452C315.804 65.4921 315.717 65.247 315.56 65.0487C315.454 64.9173 315.321 64.8087 315.172 64.7295C315.022 64.6503 314.858 64.6021 314.69 64.5877C314.276 64.5757 313.867 64.6691 313.499 64.859C313.132 65.049 312.819 65.3293 312.59 65.6735C311.969 66.4178 311.543 67.3049 311.35 68.2549C310.961 70.2012 311.524 72.2499 312.825 72.9772C313.069 73.1086 313.339 73.1842 313.615 73.1983C313.891 73.2125 314.168 73.165 314.423 73.0592C314.792 72.9055 314.894 72.7109 314.864 72.6802Z" fill="#9B9D9C"/>
<path d="M364.853 76.4499C364.724 76.9742 364.393 77.4265 363.933 77.7084C363.473 77.9904 362.92 78.0793 362.394 77.9557C362.136 77.9067 361.89 77.8069 361.67 77.6621C361.451 77.5174 361.262 77.3305 361.116 77.1123C360.969 76.8941 360.867 76.6489 360.816 76.3911C360.764 76.1332 360.765 75.8677 360.817 75.6099C360.945 75.0857 361.276 74.6334 361.736 74.3514C362.197 74.0694 362.75 73.9806 363.275 74.1041C363.535 74.1505 363.782 74.2487 364.003 74.3927C364.224 74.5368 364.414 74.7238 364.561 74.9427C364.708 75.1615 364.81 75.4077 364.86 75.6667C364.91 75.9256 364.908 76.192 364.853 76.4499Z" fill="#263238"/>
<path d="M367.198 73.0592C366.881 73.2538 365.672 71.7275 363.521 71.1641C361.37 70.6007 359.516 71.2563 359.352 70.9285C359.27 70.7851 359.649 70.3754 360.468 70.0578C361.568 69.6609 362.764 69.6179 363.89 69.9349C365.006 70.2247 366 70.8636 366.727 71.7583C367.25 72.3934 367.352 72.926 367.198 73.0592Z" fill="#263238"/>
<path d="M342.952 70.8875C342.821 71.4099 342.489 71.8597 342.029 72.1396C341.569 72.4195 341.017 72.5069 340.493 72.3831C340.234 72.3366 339.986 72.2385 339.765 72.0944C339.544 71.9504 339.354 71.7634 339.207 71.5445C339.06 71.3257 338.958 71.0795 338.908 70.8205C338.858 70.5616 338.861 70.2952 338.916 70.0373C339.047 69.5149 339.378 69.0651 339.838 68.7852C340.298 68.5053 340.85 68.4178 341.374 68.5417C341.633 68.5894 341.88 68.6884 342.1 68.8328C342.32 68.9773 342.509 69.1642 342.656 69.3827C342.803 69.6012 342.905 69.8469 342.956 70.1053C343.007 70.3637 343.005 70.6296 342.952 70.8875Z" fill="#263238"/>
<path d="M346.005 67.7837C345.687 67.9783 344.468 66.4623 342.327 65.8886C340.186 65.315 338.322 65.9808 338.158 65.653C338.076 65.5096 338.455 65.1101 339.274 64.7926C340.374 64.3977 341.569 64.3512 342.696 64.6594C343.813 64.9526 344.807 65.5951 345.533 66.493C346.056 67.1691 346.179 67.7018 346.005 67.7837Z" fill="#263238"/>
<path d="M349.549 85.7715C350.772 85.7195 351.997 85.8193 353.196 86.0686C353.759 86.1608 354.312 86.1915 354.507 85.8433C354.695 85.2879 354.716 84.6897 354.568 84.1223C354.404 82.6575 354.24 81.1209 354.066 79.5127C353.39 72.9773 353.042 67.6608 353.329 67.6301C353.616 67.5993 354.353 72.8851 355.019 79.4307C355.162 81.039 355.316 82.5755 355.449 84.0404C355.614 84.7922 355.513 85.578 355.162 86.2632C355.031 86.4359 354.863 86.5764 354.669 86.6741C354.476 86.7717 354.262 86.8239 354.046 86.8266C353.721 86.8278 353.397 86.7865 353.083 86.7037C351.871 86.5411 350.684 86.228 349.549 85.7715Z" fill="#263238"/>
<path d="M342.839 85.5667C343.198 85.6384 342.583 87.974 344.13 90.1559C345.676 92.3378 348.227 92.7475 348.166 93.0753C348.166 93.229 347.49 93.3826 346.435 93.0753C345.064 92.7334 343.859 91.9168 343.034 90.7705C342.243 89.6719 341.909 88.3098 342.101 86.9701C342.265 86.0175 342.685 85.5155 342.839 85.5667Z" fill="#263238"/>
<path d="M367.414 69.0232C366.901 69.4022 365.56 68.511 363.798 67.9988C362.036 67.4866 360.428 67.4559 360.212 66.8515C360.13 66.5647 360.499 66.1345 361.237 65.8272C362.267 65.5103 363.368 65.5067 364.4 65.8168C365.433 66.1268 366.349 66.7365 367.035 67.5686C367.567 68.2651 367.69 68.8285 367.414 69.0232Z" fill="#263238"/>
<path d="M345.277 59.2918C344.97 59.4864 344.448 59.2303 343.772 58.9025C342.951 58.4905 342.098 58.1478 341.221 57.8781C340.333 57.622 339.425 57.4438 338.506 57.3455C337.759 57.243 337.185 57.1611 337.031 56.823C336.878 56.485 337.267 55.9626 338.178 55.5426C339.387 55.0697 340.719 55.0145 341.963 55.3857C343.206 55.757 344.29 56.5333 345.042 57.5913C345.574 58.4415 345.574 59.1074 345.277 59.2918Z" fill="#263238"/>
<path d="M374.625 58.544C367.412 58.5824 360.375 56.318 354.537 52.0803C348.033 47.4501 340.032 44.3771 337.984 45.4936C335.935 46.6102 334.378 53.8422 327.033 54.8358C327.033 54.8358 325.281 68.8183 319.811 67.4252C314.341 66.0321 321.286 45.0736 321.286 45.0736L335.935 40.6381L351.198 40.2796L365.057 42.5127L377.299 48.4745L374.625 58.544Z" fill="#263238"/>
<path d="M367.864 267.319C367.864 267.319 359.198 270.392 352.499 273.25C351.63 273.638 350.684 273.824 349.733 273.793C349.259 273.796 348.792 273.673 348.381 273.435C347.971 273.197 347.631 272.854 347.397 272.441C346.824 271.243 348.33 270.7 349.364 269.87C350.399 269.04 351.966 267.883 353.277 266.858C354.724 265.793 355.756 264.257 356.197 262.515C358.071 254.925 366.072 246.258 373.672 248.092L375.557 245.941L391.732 255.099" fill="#BABBBB"/>
<path d="M279.851 167.874C279.851 167.874 315.97 167.751 320.733 182.717L280.527 182.85L279.851 167.874Z" fill="#BABBBB"/>
<path d="M181.953 54.9894H64.6323V140.667H181.953V54.9894Z" fill="white"/>
<path d="M181.953 54.9894H64.6323V65.694H181.953V54.9894Z" fill="#363637"/>
<path d="M71.0041 60.6439C71.0197 60.8141 70.9996 60.9857 70.9452 61.1476C70.8908 61.3096 70.8032 61.4584 70.688 61.5847C70.5728 61.7109 70.4326 61.8117 70.2762 61.8807C70.1199 61.9496 69.9509 61.9853 69.78 61.9853C69.6091 61.9853 69.4401 61.9496 69.2838 61.8807C69.1275 61.8117 68.9872 61.7109 68.872 61.5847C68.7569 61.4584 68.6692 61.3096 68.6148 61.1476C68.5604 60.9857 68.5403 60.8141 68.5559 60.6439C68.5403 60.4738 68.5604 60.3022 68.6148 60.1403C68.6692 59.9783 68.7569 59.8294 68.872 59.7032C68.9872 59.577 69.1275 59.4762 69.2838 59.4072C69.4401 59.3382 69.6091 59.3026 69.78 59.3026C69.9509 59.3026 70.1199 59.3382 70.2762 59.4072C70.4326 59.4762 70.5728 59.577 70.688 59.7032C70.8032 59.8294 70.8908 59.9783 70.9452 60.1403C70.9996 60.3022 71.0197 60.4738 71.0041 60.6439Z" fill="white"/>
<path d="M75.9723 60.6439C75.9505 60.8801 75.8608 61.105 75.7141 61.2914C75.5674 61.4777 75.3698 61.6177 75.1453 61.6943C74.9208 61.7709 74.679 61.781 74.4489 61.7232C74.2188 61.6654 74.0104 61.5423 73.8487 61.3687C73.6871 61.1951 73.5791 60.9785 73.5378 60.7449C73.4965 60.5113 73.5237 60.2707 73.6161 60.0523C73.7085 59.8338 73.8621 59.6467 74.0584 59.5136C74.2548 59.3804 74.4854 59.307 74.7226 59.302C74.893 59.3073 75.0607 59.3463 75.216 59.4167C75.3712 59.4872 75.511 59.5877 75.6272 59.7124C75.7434 59.8372 75.8337 59.9838 75.893 60.1437C75.9522 60.3035 75.9792 60.4736 75.9723 60.6439Z" fill="white"/>
<path d="M80.9304 60.6439C80.946 60.8141 80.9259 60.9857 80.8715 61.1476C80.817 61.3096 80.7294 61.4584 80.6143 61.5847C80.4991 61.7109 80.3588 61.8117 80.2025 61.8807C80.0462 61.9496 79.8772 61.9853 79.7063 61.9853C79.5354 61.9853 79.3664 61.9496 79.2101 61.8807C79.0537 61.8117 78.9135 61.7109 78.7983 61.5847C78.6831 61.4584 78.5955 61.3096 78.5411 61.1476C78.4867 60.9857 78.4666 60.8141 78.4822 60.6439C78.4666 60.4738 78.4867 60.3022 78.5411 60.1403C78.5955 59.9783 78.6831 59.8294 78.7983 59.7032C78.9135 59.577 79.0537 59.4762 79.2101 59.4072C79.3664 59.3382 79.5354 59.3026 79.7063 59.3026C79.8772 59.3026 80.0462 59.3382 80.2025 59.4072C80.3588 59.4762 80.4991 59.577 80.6143 59.7032C80.7294 59.8294 80.817 59.9783 80.8715 60.1403C80.9259 60.3022 80.946 60.4738 80.9304 60.6439Z" fill="white"/>
<path d="M92.5057 76.1835H75.7881V118.244H92.5057V76.1835Z" fill="#363637"/>
<path d="M118.289 76.1835H101.571V118.244H118.289V76.1835Z" fill="#EBEBEB"/>
<path d="M144.072 76.1835H127.354V118.244H144.072V76.1835Z" fill="#FAFAFA"/>
<path d="M169.855 76.5114H153.138V118.572H169.855V76.5114Z" fill="#263238"/>
<path d="M175.192 122.894H73.8521V132.503H175.192V122.894Z" fill="#363637"/>
<path d="M167.489 130.536L169.671 142.111L171.463 138.875L175.305 144.642L177.23 143.351L173.389 137.584L176.923 137.041L167.489 130.536Z" fill="#263238"/>
<path d="M181.953 140.667C181.953 140.667 181.953 140.124 181.953 139.1C181.953 138.076 181.953 136.539 181.953 134.552C181.953 130.557 181.953 124.718 181.891 117.25C181.891 102.325 181.83 80.9366 181.779 54.9997L181.994 55.2148L64.6839 55.2661L64.9502 54.9997C64.9502 85.7306 64.9502 114.874 64.9502 140.667L64.7044 140.432L149.327 140.554L173.41 140.616H179.812H182.025H181.492H179.863H173.512L149.491 140.677L64.7044 140.8H64.4688V140.667C64.4688 114.874 64.4688 85.7306 64.4688 54.9997V54.7231H64.7453L182.055 54.7744H182.281V54.9895C182.229 80.9878 182.188 102.428 182.158 117.373C182.158 124.82 182.158 130.69 182.107 134.623C182.107 136.59 182.107 138.106 182.107 139.131C182.107 140.155 181.953 140.667 181.953 140.667Z" fill="#263238"/>
<path d="M174.383 213.551H91.4912V355.732H174.383V213.551Z" fill="white"/>
<path d="M174.383 213.551H91.4912V225.536H174.383V213.551Z" fill="#363637"/>
<path d="M111.405 240.481L112.409 253.747L116.128 248.912L122.325 248.655L111.405 240.481Z" fill="#363637"/>
<path d="M147.237 240.481C147.307 240.518 147.372 240.562 147.432 240.614L148.026 241.044L150.29 242.694L158.239 248.532L158.587 248.789H158.147L152.165 249.045H151.949L152.072 248.973L148.354 253.808L148.108 254.136V253.736C147.852 249.905 147.637 246.566 147.473 244.117C147.401 243.021 147.35 242.069 147.299 241.393C147.299 241.126 147.299 240.891 147.299 240.676C147.292 240.601 147.292 240.525 147.299 240.45V240.727C147.299 240.942 147.299 241.188 147.37 241.475C147.432 242.212 147.514 243.134 147.616 244.251C147.821 246.678 148.098 249.936 148.415 253.705L148.149 253.623L151.847 248.778H151.898H152.185L158.167 248.543L158.085 248.819L150.362 242.919L148.098 241.177L147.483 240.696L147.237 240.481Z" fill="#363637"/>
<path d="M174.383 355.722C174.383 355.722 174.383 355.486 174.383 355.025C174.383 354.564 174.383 353.888 174.383 352.977C174.383 351.184 174.383 348.562 174.383 345.15C174.383 338.308 174.383 328.351 174.311 315.782C174.311 290.665 174.25 255.16 174.199 213.52L174.444 213.766H91.5632L91.8295 213.499C91.8295 267.729 91.8295 317.482 91.7681 355.671L91.5632 355.466L152.001 355.578H168.595H172.939H174.434C174.434 355.578 173.953 355.578 172.98 355.578H168.677L152.134 355.64L91.5427 355.742H91.3378V355.537C91.3378 317.349 91.3378 267.596 91.2764 213.366V213.09H91.5529H174.434H174.68V213.346C174.629 255.047 174.588 290.613 174.557 315.782C174.557 328.33 174.557 338.267 174.496 345.089C174.496 348.48 174.496 351.092 174.496 352.864C174.496 353.735 174.496 354.4 174.496 354.913C174.496 355.425 174.383 355.722 174.383 355.722Z" fill="#263238"/>
</g>
<path fill-rule="evenodd" clip-rule="evenodd" d="M520 3H10C6.13401 3 3 6.13401 3 10V237C3 240.866 6.134 244 9.99999 244H520C523.866 244 527 240.866 527 237V10C527 6.134 523.866 3 520 3ZM10 0C4.47715 0 0 4.47716 0 10V237C0 242.523 4.47714 247 9.99999 247H520C525.523 247 530 242.523 530 237V10C530 4.47715 525.523 0 520 0H10Z" fill="#575656"/>
</svg>
