<svg width="530" height="248" viewBox="0 0 530 248" fill="none" xmlns="http://www.w3.org/2000/svg">
<path d="M0 10.127C0 4.60411 4.47715 0.126953 10 0.126953H520C525.523 0.126953 530 4.60411 530 10.127V237.127C530 242.65 525.523 247.127 520 247.127H9.99999C4.47715 247.127 0 242.65 0 237.127V10.127Z" fill="#CDEAFC"/>
<path d="M512 72.5983V172.731H368.183L363.001 73.2909L512 72.5983Z" fill="#E0E0E0"/>
<path d="M363.001 73.293V172.523H506.818V73.293L363.001 73.293Z" fill="white"/>
<path d="M507.51 173.2H362.321V72.6102H507.51V173.2ZM363.681 171.84H506.138V73.9707H363.681V171.84Z" fill="#E0E0E0"/>
<path d="M491.246 85.624H378.584V160.192H491.246V85.624Z" fill="white"/>
<path d="M491.246 85.6235H490.689H489.094H482.91L459.695 85.7101L378.597 85.8708L378.919 85.5493C378.919 108.331 378.919 133.575 378.919 160.104L378.572 159.746L491.234 159.82L490.949 160.104C491.011 137.409 491.06 118.807 491.098 105.845C491.098 99.3769 491.159 94.3183 491.172 90.8428C491.172 89.136 491.172 87.825 491.172 86.9098C491.172 86.0069 491.172 85.5369 491.172 85.5369C491.172 85.5369 491.172 85.9698 491.172 86.8479C491.172 87.7261 491.172 89.0495 491.172 90.7315C491.172 94.1946 491.172 99.2284 491.246 105.672C491.246 118.671 491.333 137.335 491.394 160.092V160.376H491.11L378.449 160.451H378.09V160.092C378.09 133.562 378.09 108.319 378.09 85.5369V85.2153H378.424L459.967 85.4627L483.108 85.5493H489.23H490.788L491.246 85.6235Z" fill="#E0E0E0"/>
<path d="M363.001 73.019C363.888 73.4468 364.719 73.9827 365.475 74.6145C366.946 75.6782 368.95 77.1871 371.114 78.9186C373.279 80.6502 375.184 82.2828 376.519 83.5196C377.295 84.1288 377.99 84.8355 378.585 85.6222C375.844 83.695 373.202 81.631 370.669 79.4381C367.984 77.4582 365.423 75.3144 363.001 73.019Z" fill="#E0E0E0"/>
<path d="M506.83 73.2905C504.461 75.613 501.931 77.7662 499.261 79.7343C496.73 81.8817 494.052 83.8489 491.246 85.6216C493.612 83.2958 496.142 81.1423 498.815 79.1778C501.346 77.0304 504.024 75.0632 506.83 73.2905Z" fill="#E0E0E0"/>
<path d="M506.707 172.533L490.628 159.534L506.707 172.533Z" fill="white"/>
<path d="M490.677 159.534C493.559 161.408 496.311 163.474 498.914 165.718C501.664 167.796 504.267 170.061 506.706 172.496C503.824 170.623 501.072 168.557 498.469 166.312C495.719 164.234 493.116 161.97 490.677 159.534Z" fill="#E0E0E0"/>
<path d="M363.001 172.522C365.344 170.219 367.849 168.086 370.496 166.14C372.993 164.011 375.642 162.068 378.424 160.327C376.082 162.628 373.578 164.757 370.929 166.697C368.431 168.828 365.781 170.775 363.001 172.522Z" fill="#E0E0E0"/>
<path d="M401.454 108.851V133.822H472.348V108.851H401.454Z" fill="#E0E0E0"/>
<path d="M167.885 70.1006H34.1978V189.701H167.885V70.1006Z" fill="#FAFAFA"/>
<path d="M167.885 189.7C167.885 189.7 167.885 188.933 167.885 187.474C167.885 186.014 167.885 183.862 167.885 181.067C167.885 175.452 167.885 167.252 167.799 156.788C167.799 135.898 167.712 106.079 167.65 70.0999L167.947 70.3968H34.2721L34.6308 70.0381C34.6308 113.549 34.6308 154.488 34.6308 189.638L34.3092 189.316L131.003 189.477L158.275 189.564H165.498H167.353H167.996H167.39H165.56H158.411L131.201 189.638L34.3092 189.799H34V189.49C34 154.339 34 113.401 34 69.8897V69.531H34.371H168.046H168.355V69.8402C168.281 105.856 168.231 135.775 168.194 156.726C168.194 167.153 168.132 175.279 168.12 180.931C168.12 183.701 168.12 185.878 168.12 187.288C168.12 188.698 167.885 189.7 167.885 189.7Z" fill="#E0E0E0"/>
<path d="M85.4758 91.3504C85.4758 91.5483 78.4383 91.709 69.7559 91.709C61.0734 91.709 54.0483 91.5483 54.0483 91.3504C54.0483 91.1525 61.0734 90.9917 69.7559 90.9917C78.4383 90.9917 85.4758 91.1525 85.4758 91.3504Z" fill="#E0E0E0"/>
<path d="M142.11 100.305C142.11 100.503 122.779 100.664 98.933 100.664C75.0873 100.664 55.793 100.528 55.793 100.305C55.793 100.082 75.1244 99.9463 98.9701 99.9463C122.816 99.9463 142.11 100.132 142.11 100.305Z" fill="#E0E0E0"/>
<path d="M59.8863 115.542H54.2588V121.17H59.8863V115.542Z" fill="#E0E0E0"/>
<path d="M73.7505 115.542H68.123V121.17H73.7505V115.542Z" fill="#E0E0E0"/>
<path d="M87.8756 115.281H82.248V120.909H87.8756V115.281Z" fill="#E0E0E0"/>
<path d="M101.48 115.542H95.8525V121.17H101.48V115.542Z" fill="#E0E0E0"/>
<path d="M115.345 115.542H109.718V121.17H115.345V115.542Z" fill="#E0E0E0"/>
<path d="M129.21 115.542H123.583V121.17H129.21V115.542Z" fill="#E0E0E0"/>
<path d="M143.075 115.542H137.447V121.17H143.075V115.542Z" fill="#EBEBEB"/>
<path d="M59.8863 127.514H54.2588V133.142H59.8863V127.514Z" fill="#EBEBEB"/>
<path d="M73.7505 127.514H68.123V133.142H73.7505V127.514Z" fill="#E0E0E0"/>
<path d="M87.6158 127.514H81.9883V133.142H87.6158V127.514Z" fill="#EBEBEB"/>
<path d="M101.48 127.514H95.8525V133.142H101.48V127.514Z" fill="#E0E0E0"/>
<path d="M115.345 127.514H109.718V133.142H115.345V127.514Z" fill="#E0E0E0"/>
<path d="M129.457 127.255H123.829V132.882H129.457V127.255Z" fill="#E0E0E0"/>
<path d="M143.075 127.514H137.447V133.142H143.075V127.514Z" fill="#E0E0E0"/>
<path d="M59.8863 139.486H54.2588V145.113H59.8863V139.486Z" fill="#E0E0E0"/>
<path d="M74.0113 139.226H68.3838V144.854H74.0113V139.226Z" fill="#E0E0E0"/>
<path d="M87.6158 139.486H81.9883V145.113H87.6158V139.486Z" fill="#E0E0E0"/>
<path d="M101.48 139.486H95.8525V145.113H101.48V139.486Z" fill="#EBEBEB"/>
<path d="M115.345 139.486H109.718V145.113H115.345V139.486Z" fill="#E0E0E0"/>
<path d="M129.21 139.486H123.583V145.113H129.21V139.486Z" fill="#E0E0E0"/>
<path d="M143.075 139.486H137.447V145.113H143.075V139.486Z" fill="#E0E0E0"/>
<path d="M59.8863 151.459H54.2588V157.087H59.8863V151.459Z" fill="#E0E0E0"/>
<path d="M73.7505 151.459H68.123V157.087H73.7505V151.459Z" fill="#E0E0E0"/>
<path d="M87.6158 151.459H81.9883V157.087H87.6158V151.459Z" fill="#E0E0E0"/>
<path d="M101.74 151.212H96.1123V156.839H101.74V151.212Z" fill="#E0E0E0"/>
<path d="M115.345 151.459H109.718V157.087H115.345V151.459Z" fill="#E0E0E0"/>
<path d="M129.21 151.459H123.583V157.087H129.21V151.459Z" fill="#EBEBEB"/>
<path d="M143.075 151.459H137.447V157.087H143.075V151.459Z" fill="#E0E0E0"/>
<path d="M59.8863 163.431H54.2588V169.059H59.8863V163.431Z" fill="#E0E0E0"/>
<path d="M73.7505 163.431H68.123V169.059H73.7505V163.431Z" fill="#EBEBEB"/>
<path d="M87.6158 163.431H81.9883V169.059H87.6158V163.431Z" fill="#E0E0E0"/>
<path d="M101.48 163.431H95.8525V169.059H101.48V163.431Z" fill="#E0E0E0"/>
<path d="M115.345 163.431H109.718V169.059H115.345V163.431Z" fill="#E0E0E0"/>
<path d="M129.457 163.183H123.829V168.811H129.457V163.183Z" fill="#E0E0E0"/>
<path d="M143.075 163.431H137.447V169.059H143.075V163.431Z" fill="#E0E0E0"/>
<path d="M235.061 157.994L186.553 149.408L180.765 182.108L229.273 190.694L235.061 157.994Z" fill="#EBEBEB"/>
<path d="M235.131 158.439C234.969 158.58 234.791 158.701 234.6 158.8L233.046 159.748C231.64 160.568 229.671 161.73 227.262 163.149C222.335 165.978 215.542 169.916 208.049 174.259L207.893 174.353L207.733 174.258L207.441 173.927L192.635 156.994L188.181 151.822L186.99 150.411C186.841 150.251 186.709 150.077 186.595 149.889C186.759 150.032 186.912 150.186 187.056 150.349L188.316 151.715L192.871 156.789L207.847 173.606L208.139 173.938L207.848 173.895C215.381 169.605 222.17 165.722 227.136 162.901L232.984 159.611L234.594 158.739C234.763 158.623 234.943 158.523 235.131 158.439Z" fill="#E0E0E0"/>
<path d="M180.831 182.548C180.736 182.491 185.189 178.618 190.757 173.982C196.324 169.347 200.905 165.621 200.957 165.753C201.009 165.884 196.593 169.693 191.074 174.271C185.555 178.85 180.938 182.611 180.831 182.548Z" fill="#E0E0E0"/>
<path d="M217.157 168.211C217.267 168.147 220.085 173.24 223.452 179.565C226.819 185.89 229.453 191.075 229.343 191.139C229.233 191.203 226.415 186.11 223.054 179.775C219.693 173.439 217.053 168.265 217.157 168.211Z" fill="#E0E0E0"/>
<path d="M321.76 150.594C322.938 149.879 324.207 149.326 325.533 148.949L326.312 145.238L332.62 145.127L333.535 148.837C334.871 149.164 336.157 149.672 337.357 150.346L340.548 148.256L345.087 152.634L343.108 155.9C343.822 157.056 344.375 158.304 344.753 159.61L348.463 160.377L348.574 166.697L344.864 167.6C344.534 168.938 344.031 170.227 343.367 171.434L345.458 174.613L341.067 179.152L337.814 177.185C336.633 177.891 335.365 178.44 334.042 178.818L333.263 182.528L326.955 182.64L326.04 178.929C324.705 178.597 323.42 178.09 322.218 177.42L319.027 179.51L314.488 175.12L316.467 171.867C315.75 170.69 315.196 169.421 314.822 168.095L311.111 167.315L311 161.008L314.71 160.092C315.038 158.758 315.541 157.473 316.207 156.271L314.117 153.08L318.507 148.541L321.76 150.519V150.594ZM325.124 158.992C324.191 159.955 323.564 161.173 323.324 162.492C323.083 163.812 323.239 165.173 323.773 166.404C324.306 167.634 325.192 168.679 326.32 169.405C327.447 170.132 328.764 170.508 330.105 170.485C331.446 170.463 332.75 170.043 333.853 169.279C334.955 168.515 335.806 167.441 336.297 166.193C336.789 164.945 336.899 163.58 336.615 162.269C336.33 160.959 335.663 159.762 334.697 158.831C334.062 158.209 333.31 157.719 332.485 157.388C331.659 157.057 330.777 156.892 329.888 156.902C328.999 156.912 328.12 157.098 327.303 157.448C326.486 157.798 325.745 158.306 325.124 158.942V158.992Z" fill="#369FFF"/>
<path d="M324.993 159.332C325.344 158.902 325.762 158.53 326.229 158.231C327.044 157.702 327.962 157.353 328.922 157.206C329.883 157.059 330.863 157.118 331.799 157.379C332.734 157.639 333.604 158.096 334.35 158.719C335.095 159.341 335.7 160.115 336.124 160.989C336.736 162.221 336.964 163.608 336.779 164.971C336.581 166.44 335.923 167.808 334.899 168.88C333.869 169.943 332.526 170.649 331.065 170.896C330.377 171.007 329.676 171.007 328.987 170.896C328.321 170.813 327.67 170.629 327.058 170.352C325.929 169.839 324.956 169.037 324.238 168.026C323.623 167.142 323.225 166.125 323.076 165.058C322.841 163.515 323.156 161.939 323.966 160.605C324.248 160.14 324.603 159.722 325.017 159.369C325.017 159.369 324.609 159.814 324.09 160.742C323.363 162.065 323.102 163.593 323.348 165.083C323.508 166.101 323.907 167.067 324.51 167.903C325.201 168.857 326.131 169.612 327.206 170.092C327.785 170.348 328.397 170.519 329.025 170.599C329.68 170.704 330.348 170.704 331.004 170.599C332.383 170.364 333.652 169.697 334.627 168.694C335.595 167.675 336.218 166.377 336.408 164.984C336.564 163.714 336.353 162.427 335.802 161.273C335.289 160.21 334.504 159.301 333.527 158.639C332.671 158.068 331.692 157.708 330.67 157.588C329.176 157.394 327.66 157.708 326.365 158.478C325.425 158.96 325.03 159.418 324.993 159.332Z" fill="#E0E0E0"/>
<path d="M321.882 150.724L321.671 150.612L321.05 150.252L318.565 148.784H318.64L314.267 153.386V153.262L316.379 156.459C315.716 157.663 315.219 158.952 314.901 160.29V160.364H314.826L311.099 161.297L311.199 161.16C311.199 163.151 311.286 165.278 311.323 167.504L311.211 167.355L314.938 168.126H315.025V168.213C315.404 169.524 315.955 170.779 316.665 171.945V172.032V172.119L314.727 175.564V175.34L319.298 179.744H319.075L322.267 177.629L322.366 177.567L322.466 177.629C323.661 178.293 324.94 178.795 326.267 179.122H326.379V179.234L327.286 182.965L327.099 182.828L333.435 182.716L333.248 182.866C333.497 181.622 333.77 180.378 334.031 179.134V179.022H334.143C335.454 178.654 336.709 178.106 337.87 177.393H337.981H338.081L341.348 179.383H341.112L345.509 174.818V175.054C344.801 173.972 344.093 172.902 343.41 171.845L343.348 171.746V171.646C344.016 170.45 344.522 169.17 344.851 167.84V167.728H344.963L348.689 166.82L348.553 167.006C348.553 164.842 348.516 162.728 348.441 160.663L348.59 160.837L344.863 160.041H344.764V159.929C344.394 158.619 343.851 157.364 343.149 156.197V156.11V156.023L345.137 152.739V152.938L340.59 148.523H340.776L337.571 150.612H337.497H337.422C336.223 149.945 334.941 149.439 333.609 149.107H333.534V149.033C333.211 147.677 332.913 146.458 332.627 145.301L332.752 145.388L326.404 145.463H326.491C326.168 146.955 325.907 148.187 325.683 149.194C324.683 149.467 323.713 149.843 322.789 150.314L322.106 150.662L321.87 150.787C321.933 150.728 322.004 150.678 322.081 150.637L322.752 150.252C323.673 149.76 324.643 149.364 325.646 149.07C325.845 148.05 326.093 146.819 326.391 145.338V145.264H326.466L332.801 145.127H332.901V145.214C333.186 146.371 333.497 147.59 333.832 148.946L333.733 148.859C335.091 149.188 336.399 149.698 337.621 150.376H337.472L340.677 148.274L340.776 148.199L340.863 148.286L345.422 152.69L345.522 152.777L345.447 152.889L343.472 156.172V155.998C344.199 157.193 344.759 158.482 345.137 159.829L345.012 159.705L348.739 160.476H348.876V160.613C348.876 162.678 348.963 164.792 349 166.957V167.106H348.851L345.124 168.026L345.261 167.89C344.927 169.25 344.413 170.559 343.733 171.783V171.559L345.845 174.768L345.919 174.893L345.82 175.005L341.41 179.57L341.311 179.681L341.174 179.607L337.894 177.617H338.093C336.899 178.343 335.612 178.904 334.267 179.283L334.404 179.134C334.13 180.378 333.87 181.709 333.621 182.866V183.027H333.472L327.137 183.127H326.988V182.978C326.665 181.734 326.354 180.415 326.068 179.246L326.205 179.383C324.848 179.044 323.541 178.529 322.317 177.853H322.516L319.311 179.955L319.186 180.03L319.087 179.93L314.528 175.515L314.429 175.427L314.503 175.303C315.199 174.159 315.87 173.039 316.491 172.032V172.206C315.769 171.005 315.214 169.712 314.839 168.362L314.95 168.474L311.224 167.691H311.099V167.566C311.099 165.34 311.025 163.225 311 161.223V161.111H311.099L314.826 160.203L314.727 160.364C315.061 159.008 315.575 157.703 316.255 156.483V156.608C315.497 155.451 314.801 154.369 314.168 153.386L318.59 148.846L321.075 150.339L321.683 150.737C321.82 150.662 321.882 150.712 321.882 150.724Z" fill="#E0E0E0"/>
<path d="M63.9172 55.1268L17 70.1451L27.1241 101.773L74.0413 86.7544L63.9172 55.1268Z" fill="#369FFF"/>
<path d="M64.196 55.433C64.1103 55.6316 64.0068 55.822 63.8868 56.0019C63.6518 56.3977 63.3426 56.9172 62.9469 57.5603L59.4219 63.2744L47.6104 82.0616L47.5114 82.21H47.3383L46.9301 82.0492L25.9043 73.9852L19.5594 71.5116L17.8402 70.8189C17.6346 70.7462 17.4359 70.6552 17.2466 70.5468C17.4582 70.5887 17.6653 70.6508 17.865 70.7324L19.6213 71.3508L26.0156 73.7131L47.0414 81.6658L47.4619 81.8142L47.1898 81.9132L59.1251 63.1878C60.6464 60.8379 61.8832 58.9208 62.7737 57.5603L63.7755 56.039C63.897 55.8247 64.0377 55.6218 64.196 55.433Z" fill="#263238"/>
<path d="M27.3635 102.086C27.2522 102.086 29.3919 96.5701 32.1376 89.8789C34.8834 83.1877 37.2209 77.7952 37.3322 77.8447C37.4436 77.8942 35.3162 83.3609 32.5581 90.0521C29.8 96.7432 27.5119 102.136 27.3635 102.086Z" fill="#263238"/>
<path d="M52.8422 72.4515C52.9164 72.3525 57.7894 75.5435 63.7014 79.5755C69.6134 83.6075 74.3875 86.9964 74.3133 86.9964C74.239 86.9964 69.366 83.9167 63.454 79.8847C57.542 75.8527 52.768 72.5628 52.8422 72.4515Z" fill="#263238"/>
<path d="M344.593 136.764L297.808 116.993C296.279 116.322 295.075 115.078 294.455 113.528C293.835 111.978 293.849 110.246 294.494 108.706L321.938 43.9404C322.605 42.4085 323.849 41.2014 325.4 40.5809C326.952 39.9604 328.685 39.9766 330.224 40.6259L359.906 53.1879L372.833 86.5984L352.946 133.549C352.257 135.076 350.994 136.271 349.43 136.873C347.866 137.475 346.128 137.435 344.593 136.764Z" fill="#369FFF"/>
<path d="M359.89 53.0229L352.168 71.2529C351.862 71.9675 351.701 72.7355 351.693 73.5128C351.685 74.29 351.831 75.0611 352.122 75.7819C352.413 76.5026 352.843 77.1587 353.389 77.7125C353.934 78.2663 354.584 78.7068 355.3 79.0089L372.817 86.4334L359.89 53.0229Z" fill="#369FFF"/>
<g opacity="0.2">
<path d="M351.719 72.9583C351.157 74.3444 351.081 75.8799 351.502 77.315C351.923 78.7502 352.818 80.0007 354.039 80.8634C354.204 80.9997 354.375 81.1269 354.553 81.2446C356.675 82.6201 370.596 91.6853 370.745 91.3373L372.816 86.3655L355.299 78.941C355.299 78.941 350.957 77.002 351.719 72.9583Z" fill="black"/>
</g>
<g opacity="0.3">
<path d="M359.89 53.0229L352.168 71.2529C351.862 71.9675 351.701 72.7355 351.693 73.5128C351.685 74.29 351.831 75.0611 352.122 75.7819C352.413 76.5026 352.843 77.1587 353.389 77.7125C353.934 78.2663 354.584 78.7068 355.3 79.0089L372.817 86.4334L359.89 53.0229Z" fill="white"/>
</g>
<path d="M348.553 68.9317C344.783 67.834 341.103 66.4432 337.549 64.772C333.877 63.3856 330.315 61.7236 326.893 59.8002C330.673 60.8873 334.358 62.2784 337.914 63.9599C341.585 65.3357 345.143 66.9981 348.553 68.9317Z" fill="#FAFAFA"/>
<path d="M358.166 85.0728C358.067 85.3049 350.013 82.1229 340.168 77.9466C330.324 73.7703 322.436 70.2238 322.535 69.9752C322.635 69.7266 330.689 72.9417 340.533 77.1014C350.377 81.2611 358.266 84.8408 358.166 85.0728Z" fill="#FAFAFA"/>
<path d="M357.735 95.0512C357.635 95.2833 348.852 91.7367 338.129 87.2455C327.407 82.7543 318.789 78.8763 318.889 78.5946C318.988 78.3129 327.755 81.9091 338.494 86.4003C349.233 90.8915 357.834 94.8026 357.735 95.0512Z" fill="#FAFAFA"/>
<path d="M354.272 103.171C354.173 103.403 345.406 99.8564 334.683 95.3652C323.961 90.874 315.343 86.9463 315.426 86.7143C315.509 86.4822 324.309 90.0288 335.031 94.52C345.754 99.0112 354.388 102.922 354.272 103.171Z" fill="#FAFAFA"/>
<path d="M350.858 111.275C350.758 111.524 341.975 107.961 331.252 103.486C320.53 99.0114 311.912 95.0671 312.012 94.8351C312.111 94.6031 320.878 98.1496 331.617 102.641C342.356 107.132 350.957 111.043 350.858 111.275Z" fill="#FAFAFA"/>
<path d="M347.41 119.396C347.311 119.644 338.527 116.081 327.805 111.607C317.082 107.132 308.464 103.188 308.564 102.956C308.663 102.724 317.447 106.27 328.169 110.745C338.892 115.219 347.51 119.164 347.41 119.396Z" fill="#FAFAFA"/>
<path d="M265.269 176.048C290.782 176.048 311.464 155.366 311.464 129.853C311.464 104.341 290.782 83.6583 265.269 83.6583C239.756 83.6583 219.074 104.341 219.074 129.853C219.074 155.366 239.756 176.048 265.269 176.048Z" fill="white"/>
<path d="M311.464 129.853C311.464 129.853 311.464 129.606 311.389 129.111C311.315 128.617 311.303 127.875 311.241 126.91C311.241 126.427 311.179 125.896 311.142 125.302C311.105 124.708 310.957 124.065 310.858 123.372C310.651 121.764 310.328 120.173 309.893 118.611C308.814 114.29 307.088 110.158 304.773 106.354C301.419 100.766 296.919 95.9511 291.571 92.2269C286.222 88.5027 280.146 85.9534 273.741 84.7468C271.825 84.3906 269.887 84.1675 267.94 84.0789C266.951 84.0789 265.949 83.9429 264.947 83.9552L261.905 84.116C261.397 84.116 260.878 84.116 260.371 84.215L258.837 84.45C257.823 84.6231 256.784 84.7468 255.758 84.9571C251.547 85.9028 247.477 87.3912 243.649 89.3849C242.684 89.9043 241.757 90.5227 240.792 91.0917C240.322 91.3885 239.827 91.6482 239.37 91.9822L238.022 92.9964C234.277 95.7159 231.002 99.0288 228.325 102.804L227.274 104.214L226.346 105.723L225.419 107.183C225.092 107.68 224.802 108.201 224.553 108.741C224.046 109.817 223.526 110.893 222.994 111.981L221.758 115.37C220.248 120.053 219.448 124.934 219.383 129.853C219.448 134.768 220.248 139.646 221.758 144.324C222.166 145.462 222.586 146.6 222.994 147.725C223.403 148.851 224.033 149.89 224.553 150.953C224.799 151.499 225.089 152.024 225.419 152.524L226.346 154.045L227.261 155.554L228.325 156.964C229.697 158.839 231.197 160.616 232.815 162.283C234.451 163.872 236.19 165.351 238.022 166.71L239.37 167.725C239.827 168.059 240.322 168.318 240.792 168.615C241.757 169.184 242.684 169.852 243.649 170.322C247.477 172.316 251.547 173.804 255.758 174.75C256.784 174.972 257.823 175.084 258.85 175.257L260.371 175.492C260.89 175.492 261.397 175.492 261.905 175.591L264.997 175.776C265.998 175.776 267 175.69 267.99 175.665C269.937 175.572 271.875 175.345 273.79 174.985C280.197 173.783 286.275 171.235 291.624 167.511C296.974 163.786 301.472 158.969 304.822 153.378C307.118 149.578 308.827 145.455 309.893 141.146C310.328 139.583 310.651 137.992 310.858 136.384C310.957 135.691 311.08 135.048 311.142 134.454C311.204 133.861 311.216 133.329 311.241 132.846C311.307 131.89 311.357 131.16 311.389 130.657C311.389 130.163 311.464 129.903 311.464 129.903C311.464 129.903 311.464 130.163 311.464 130.657C311.464 131.152 311.464 131.894 311.389 132.846C311.389 133.341 311.39 133.873 311.315 134.479C311.241 135.085 311.154 135.716 311.056 136.409C310.865 138.008 310.559 139.591 310.14 141.146C309.092 145.501 307.386 149.672 305.082 153.514C301.731 159.182 297.212 164.072 291.825 167.859C286.439 171.647 280.308 174.244 273.84 175.479C271.904 175.843 269.945 176.075 267.977 176.172C266.976 176.172 265.961 176.308 264.947 176.296L261.867 176.147C261.348 176.147 260.829 176.147 260.309 176.048L258.813 175.776C257.774 175.603 256.722 175.492 255.683 175.269C253.583 174.809 251.517 174.206 249.499 173.463C247.417 172.721 245.388 171.836 243.427 170.817C242.449 170.285 241.497 169.666 240.532 169.085C240.05 168.776 239.543 168.516 239.085 168.182L237.725 167.156C235.869 165.78 234.104 164.285 232.444 162.678C230.801 160.987 229.277 159.185 227.88 157.286L226.804 155.864L225.864 154.33L224.936 152.784C224.6 152.281 224.307 151.752 224.058 151.201C223.539 150.112 223.007 149.024 222.487 147.923L221.25 144.473C219.726 139.729 218.917 134.786 218.851 129.804C218.889 124.839 219.669 119.907 221.164 115.172L222.401 111.734L223.984 108.444C224.231 107.895 224.52 107.365 224.85 106.861L225.79 105.327L226.717 103.794L227.793 102.359C229.193 100.466 230.718 98.6688 232.357 96.9789C234.018 95.3729 235.782 93.8772 237.638 92.5016L238.999 91.4751C239.456 91.1411 239.963 90.8814 240.446 90.5722C241.411 90.0033 242.363 89.3354 243.34 88.853C247.22 86.8422 251.344 85.3415 255.609 84.3881C256.648 84.1779 257.699 84.0542 258.738 83.881L260.284 83.646C260.804 83.646 261.323 83.646 261.843 83.5471L264.922 83.3987C265.937 83.3987 266.938 83.4853 267.94 83.5224C269.911 83.6252 271.874 83.8566 273.815 84.215C280.283 85.4502 286.414 88.0477 291.8 91.835C297.187 95.6222 301.706 100.512 305.057 106.181C307.362 110.023 309.068 114.193 310.116 118.549C310.533 120.124 310.835 121.728 311.018 123.348C311.117 124.053 311.229 124.696 311.278 125.29L311.352 126.91C311.352 127.862 311.414 128.592 311.427 129.111C311.439 129.631 311.464 129.853 311.464 129.853Z" fill="#263238"/>
<path d="M287.172 128.555C286.568 128.777 285.948 128.955 285.317 129.086L280.16 130.323C275.794 131.337 269.733 132.71 262.956 134.194L262.572 134.281V132.488C262.572 125.252 262.572 118.697 262.659 113.935C262.659 111.66 262.745 109.767 262.77 108.32C262.752 107.634 262.793 106.947 262.894 106.267C262.987 106.947 263.028 107.634 263.018 108.32C263.018 109.767 263.079 111.66 263.116 113.935C263.116 118.685 263.215 125.24 263.215 132.488V133.836L262.82 133.514C269.597 132.042 275.67 130.744 280.061 129.804L285.255 128.777C285.886 128.644 286.528 128.569 287.172 128.555Z" fill="#263238"/>
<path d="M314.766 148.901C314.81 148.643 314.881 148.39 314.976 148.146C315.112 147.664 315.396 146.909 315.644 146.044C316.439 143.449 317.043 140.799 317.449 138.116C318.863 129.249 318.017 120.169 314.991 111.716C311.964 103.263 306.854 95.7104 300.134 89.7563C298.12 87.9553 295.979 86.3019 293.727 84.809C292.936 84.2525 292.28 83.8814 291.872 83.5722C291.646 83.4416 291.431 83.2927 291.229 83.127C291.48 83.2018 291.717 83.3144 291.934 83.4609C292.367 83.7083 293.047 84.0422 293.863 84.574C296.188 86.0041 298.389 87.6259 300.443 89.4223C307.307 95.3607 312.517 102.974 315.569 111.521C318.62 120.068 319.409 129.26 317.858 138.202C317.419 140.882 316.761 143.521 315.891 146.093C315.594 147.008 315.273 147.701 315.1 148.171C315.016 148.426 314.904 148.671 314.766 148.901Z" fill="#263238"/>
<path d="M323.621 126.169C323.523 126.169 323.461 124.326 323.09 121.382C322.594 117.555 321.724 113.785 320.492 110.127C319.249 106.485 317.645 102.976 315.706 99.6515C314.197 97.0913 313.109 95.6071 313.232 95.5453C313.565 95.8239 313.857 96.1488 314.098 96.51C314.605 97.1779 315.335 98.155 316.126 99.4041C318.231 102.693 319.933 106.223 321.197 109.917C322.471 113.611 323.301 117.443 323.671 121.333C323.807 122.817 323.844 124.029 323.844 124.87C323.838 125.312 323.763 125.75 323.621 126.169Z" fill="#263238"/>
<path d="M219.148 103.101C219.074 103.348 218.97 103.585 218.838 103.806C218.616 104.264 218.232 104.907 217.837 105.785C213.179 115.038 211.3 125.441 212.426 135.739C213.552 146.037 217.635 155.788 224.181 163.816C225.886 165.924 227.737 167.908 229.722 169.753C230.415 170.421 230.959 170.891 231.367 171.237C231.566 171.405 231.752 171.586 231.924 171.781C231.692 171.66 231.476 171.511 231.281 171.336C230.885 171.027 230.279 170.582 229.562 169.938C227.496 168.153 225.581 166.201 223.835 164.101C217.998 157.149 214.061 148.803 212.408 139.878C210.754 130.952 211.44 121.751 214.398 113.169C215.271 110.584 216.359 108.076 217.651 105.674C218.084 104.808 218.505 104.177 218.752 103.744C218.866 103.519 218.998 103.304 219.148 103.101Z" fill="#263238"/>
<path d="M206.792 124.14C206.903 124.14 206.668 125.983 206.569 128.951C206.438 132.806 206.699 136.664 207.349 140.466C208.011 144.272 209.055 148.001 210.465 151.597C211.542 154.355 212.383 156 212.284 156.05C212.005 155.715 211.772 155.345 211.591 154.949C211.183 154.219 210.639 153.143 210.045 151.77C208.492 148.206 207.371 144.469 206.706 140.639C206.049 136.793 205.85 132.882 206.112 128.988C206.223 127.492 206.372 126.292 206.508 125.463C206.542 125.011 206.638 124.566 206.792 124.14Z" fill="#263238"/>
<path d="M303.511 137.436C301.767 137.077 300.357 136.768 300.357 136.756C300.357 136.743 301.779 137.016 303.523 137.374C305.267 137.733 306.677 138.03 306.665 138.042C306.652 138.054 305.242 137.844 303.511 137.436Z" fill="#263238"/>
<path d="M299.034 149.123C297.5 148.22 296.263 147.478 296.263 147.466C296.263 147.453 297.5 148.171 299.058 149.073C300.617 149.976 301.829 150.718 301.816 150.731C301.804 150.743 300.555 150.026 299.034 149.123Z" fill="#263238"/>
<path d="M290.97 158.672C289.807 157.311 288.879 156.198 288.892 156.198C288.904 156.198 289.856 157.274 291.007 158.672C292.157 160.069 293.097 161.145 293.072 161.145C293.047 161.145 292.206 160.02 290.97 158.672Z" fill="#263238"/>
<path d="M280.321 165.103C279.666 163.446 279.146 162.098 279.158 162.098C279.171 162.098 279.715 163.421 280.395 165.078C281.075 166.736 281.57 168.072 281.545 168.084C281.521 168.096 280.977 166.748 280.321 165.103Z" fill="#263238"/>
<path d="M268.125 167.712C268.051 165.931 268.002 164.497 268.014 164.497C268.026 164.497 268.113 165.931 268.187 167.712C268.261 169.493 268.323 170.928 268.311 170.928C268.299 170.928 268.212 169.493 268.125 167.712Z" fill="#263238"/>
<path d="M255.745 166.216C256.24 164.509 256.648 163.136 256.673 163.136C256.698 163.136 256.302 164.533 255.807 166.24C255.313 167.947 254.892 169.32 254.867 169.32C254.843 169.32 255.238 167.922 255.745 166.216Z" fill="#263238"/>
<path d="M244.503 160.798C245.529 159.339 246.37 158.176 246.395 158.189C246.42 158.201 245.579 159.426 244.552 160.835C243.525 162.245 242.734 163.408 242.734 163.408C242.734 163.408 243.476 162.245 244.503 160.798Z" fill="#263238"/>
<path d="M235.659 152.018C237.094 150.967 238.269 150.138 238.281 150.15C238.293 150.163 237.131 151.016 235.684 152.067C234.237 153.119 233.074 153.935 233.062 153.923C233.049 153.91 234.212 153.057 235.659 152.018Z" fill="#263238"/>
<path d="M230.119 140.837C231.825 140.318 233.211 139.909 233.211 139.922C233.211 139.934 231.838 140.379 230.131 140.899C228.424 141.418 227.051 141.814 227.051 141.802C227.051 141.789 228.424 141.356 230.119 140.837Z" fill="#263238"/>
<path d="M228.523 128.469C230.304 128.469 231.739 128.592 231.739 128.617C231.739 128.642 230.292 128.617 228.523 128.531C226.754 128.444 225.295 128.395 225.307 128.382C225.32 128.37 226.742 128.395 228.523 128.469Z" fill="#263238"/>
<path d="M231.021 116.237C232.691 116.88 234.027 117.4 234.027 117.474C234.027 117.548 232.666 116.979 230.997 116.349C229.327 115.718 228.003 115.186 228.003 115.174C228.003 115.161 229.364 115.606 231.021 116.237Z" fill="#263238"/>
<path d="M237.366 105.488C238.727 106.638 239.84 107.578 239.84 107.591C239.84 107.603 238.714 106.688 237.366 105.538C236.018 104.387 234.893 103.46 234.893 103.448C234.893 103.435 235.993 104.35 237.366 105.488Z" fill="#263238"/>
<path d="M246.84 97.4C247.755 98.9213 248.497 100.158 248.485 100.17C248.473 100.183 247.706 98.9336 246.791 97.4247C245.875 95.9158 245.133 94.6666 245.146 94.6543C245.158 94.6419 245.925 95.8787 246.84 97.4Z" fill="#263238"/>
<path d="M258.429 92.7997C258.8 94.5436 259.097 95.9535 259.085 95.9535C259.072 95.9535 258.751 94.5559 258.367 92.812C257.984 91.0681 257.699 89.6705 257.724 89.6582C257.749 89.6458 258.058 91.0681 258.429 92.7997Z" fill="#263238"/>
<path d="M270.883 92.2296C270.673 93.9982 270.488 95.4206 270.475 95.4206C270.463 95.4206 270.611 93.9859 270.834 92.2172C271.057 90.4486 271.23 89.0262 271.242 89.0262C271.255 89.0262 271.106 90.4362 270.883 92.2296Z" fill="#263238"/>
<path d="M282.868 95.7311C282.102 97.3266 281.458 98.6253 281.446 98.6129C281.434 98.6005 282.04 97.3019 282.806 95.694C283.573 94.0861 284.216 92.7999 284.241 92.8122C284.266 92.8246 283.635 94.148 282.868 95.7311Z" fill="#263238"/>
<path d="M293.048 102.929C291.811 104.165 290.772 105.204 290.759 105.192C290.747 105.18 291.761 104.141 293.01 102.879C294.26 101.618 295.286 100.603 295.299 100.616C295.311 100.628 294.309 101.667 293.048 102.929Z" fill="#263238"/>
<path d="M300.345 113.032C298.749 113.824 297.451 114.455 297.451 114.442C297.451 114.43 298.688 113.774 300.32 112.983C301.953 112.191 303.214 111.56 303.214 111.573C303.214 111.585 301.94 112.241 300.345 113.032Z" fill="#263238"/>
<path d="M303.981 124.969L300.778 125.352C300.778 125.352 302.2 125.129 303.969 124.907C305.737 124.684 307.16 124.499 307.16 124.511C307.16 124.523 305.737 124.734 303.981 124.969Z" fill="#263238"/>
<path d="M326.837 120.702C326.151 122.79 325.265 124.807 324.19 126.725L324.116 126.861L323.869 127.368L323.56 126.898C322.315 125.161 321.246 123.305 320.369 121.357C321.795 122.953 323.063 124.685 324.153 126.527H323.597L323.671 126.379C324.54 124.388 325.601 122.487 326.837 120.702Z" fill="#263238"/>
<path d="M260.831 244.986C257.372 219.569 251.649 180.563 251.649 180.563H251.664L249.983 166.113L233.182 166.375L220.268 213.78L225.682 244.986H260.831Z" fill="#455A64"/>
<path d="M224.938 240.423L238.296 165.497L202.801 164.986C202.798 164.989 197.487 170.736 194.871 176.253C192.255 181.754 190.571 194.897 190.571 194.897C190.571 194.897 183.214 211.401 184.326 219.834C184.749 223.049 186.097 233.399 187.605 244.986H224.803L224.938 240.423Z" fill="#455A64"/>
<path d="M224.069 244.986C225.619 233.424 226.906 223.841 227.828 217.003C228.296 213.363 228.676 210.509 228.936 208.539C229.057 207.586 229.143 206.836 229.212 206.317C229.282 205.8 229.282 205.549 229.282 205.549C229.282 205.549 229.23 205.8 229.143 206.301C229.057 206.802 228.953 207.57 228.815 208.521C228.52 210.491 228.123 213.347 227.585 216.97L223.648 244.986H224.069Z" fill="#263239"/>
<path d="M200.007 244.986L203.366 197.168H203.35L168.629 195.409L165.056 244.986H200.007Z" fill="#263239"/>
<path d="M176.635 244.986C176.708 243.471 176.778 241.994 176.839 240.594C177.101 234.316 177.288 229.218 177.363 225.684C177.401 223.95 177.45 222.586 177.45 221.627V220.197C177.45 220.197 177.401 220.265 177.401 220.516C177.388 220.786 177.351 221.139 177.351 221.576C177.313 222.519 177.263 223.882 177.188 225.633C177.076 229.151 176.851 234.249 176.552 240.527C176.483 241.949 176.405 243.449 176.324 244.986H176.635Z" fill="#455A64"/>
<path d="M174.586 244.986L177.138 220.113L186.465 196.309L138.031 194.315L138.014 194.282V209.876L140.416 244.986H174.586Z" fill="#263239"/>
<path d="M227.028 107.521H209V125.55H227.028V107.521Z" fill="#EE7160"/>
<path d="M212.059 28.6481C212.059 28.6481 209.897 48.307 212.656 59.0706L239.422 57.9157C239.422 57.9157 233.694 38.5253 237.211 29.9619L212.059 28.6481Z" fill="#EBEBEB"/>
<path d="M234.915 36.5644C234.915 36.6588 230.888 36.9737 225.917 37.2728C220.931 37.5719 216.903 37.7293 216.887 37.6348C216.887 37.5404 220.915 37.2098 225.885 36.9107C230.871 36.6116 234.899 36.4699 234.915 36.5644Z" fill="white"/>
<path d="M234.915 41.0699C234.915 41.1645 230.888 41.4798 225.917 41.7787C220.93 42.0788 216.887 42.2365 216.887 42.1419C216.887 42.0473 220.915 41.732 225.885 41.4319C230.871 41.1329 234.899 40.9753 234.915 41.0699Z" fill="white"/>
<path d="M230.408 45.6229C229.866 45.8189 229.323 45.9169 228.782 45.9423C227.784 46.0892 226.367 46.2362 224.793 46.3578C223.235 46.4811 221.8 46.5791 220.803 46.6027C220.26 46.7007 219.701 46.7007 219.141 46.6027C219.684 46.4068 220.225 46.3088 220.785 46.2852C221.783 46.1382 223.2 45.9913 224.774 45.8679C226.332 45.7463 227.767 45.6483 228.764 45.6229C229.307 45.5249 229.867 45.5249 230.408 45.6229Z" fill="white"/>
<path d="M212.537 187.504C212.478 187.222 212.459 186.925 212.449 186.609C212.41 186.046 212.39 185.218 212.38 184.19C212.38 181.522 212.478 178.855 212.655 176.204C212.871 173.188 213.047 170.454 213.214 168.267C213.263 167.173 213.342 166.064 213.469 164.986C213.528 166.097 213.518 167.206 213.44 168.317C213.361 170.354 213.175 173.171 212.979 176.27C212.783 179.368 212.645 182.186 212.606 184.207C212.567 186.229 212.586 187.504 212.528 187.521L212.537 187.504Z" fill="#455A64"/>
<path d="M215.747 174C215.232 172.591 214.927 171.083 214.843 169.559C214.607 168.051 214.565 166.51 214.746 164.986C215.01 166.477 215.191 167.969 215.288 169.477C215.524 170.969 215.677 172.477 215.761 173.984L215.747 174Z" fill="#455A64"/>
<path d="M230.398 169.989C230.283 169.989 230.321 169.387 229.417 168.939C229.168 168.812 228.879 168.742 228.572 168.714C228.264 168.686 227.977 168.714 227.688 168.812C227.342 168.911 227.054 169.064 226.842 169.289C226.632 169.499 226.535 169.765 226.535 170.032C226.535 170.298 226.65 170.55 226.842 170.774C227.054 170.985 227.342 171.152 227.688 171.251C227.977 171.321 228.284 171.35 228.572 171.322C228.861 171.294 229.148 171.209 229.399 171.083C230.283 170.606 230.206 169.976 230.321 170.004C230.437 170.032 230.417 170.143 230.378 170.395C230.301 170.76 230.052 171.097 229.668 171.335C229.379 171.531 229.015 171.658 228.63 171.714C228.246 171.77 227.842 171.756 227.477 171.658C227.034 171.546 226.632 171.335 226.343 171.055C226.055 170.774 225.901 170.438 225.901 170.087C225.901 169.737 226.035 169.401 226.304 169.107C226.573 168.812 226.958 168.588 227.4 168.476C227.765 168.378 228.149 168.335 228.533 168.391C228.918 168.434 229.284 168.56 229.571 168.742C229.976 168.967 230.245 169.303 230.321 169.653C230.437 169.892 230.378 170.032 230.36 170.032L230.398 169.989Z" fill="#455A64"/>
<path d="M186.272 87.2396C182.445 90.69 179.286 94.802 176.99 99.3964C173.864 105.733 154.781 142.477 157.418 146.476C160.056 150.474 167.839 153.828 168.621 153.716C169.403 153.602 184.025 144.896 184.025 144.896C184.025 144.896 193.127 116.148 193.224 116.083C193.322 116.003 186.255 87.2552 186.255 87.2552L186.272 87.2396Z" fill="#E0E0E0"/>
<path d="M261.016 136.834C261.016 136.834 264.584 190.557 264.179 193.394C263.773 196.231 256.701 210.057 256.701 210.057L251.964 193.833L255.825 185.959L249.563 141.693L261.016 136.817L261.016 136.834Z" fill="#B78876"/>
<path d="M236.461 82.8001L228.741 81.6058C228.741 81.6058 229.103 95.3085 217.133 95.8159C203.551 96.3719 201.196 81.9655 201.196 81.9655C201.196 81.9655 188.075 84.3698 185.671 86.561C183.267 88.7521 194.66 146.293 194.66 146.293L193.574 183.443C193.574 183.443 208.127 190.704 225.151 190.9C230.139 190.949 235.096 190.017 239.721 188.12C244.348 186.24 248.53 183.443 252.053 179.911L255.197 171.851L249.254 142.042L236.461 82.8001Z" fill="#E0E0E0"/>
<path d="M236.042 82.7325C236.042 82.7325 245.645 85.5503 248.568 89.4211C251.476 93.2931 261.958 137.509 261.958 137.509L249 142.451L236.042 82.7496V82.7325Z" fill="#E0E0E0"/>
<path d="M242.819 98.5072C242.803 98.6686 242.803 98.8132 242.819 98.9746C242.819 99.3296 242.931 99.7659 242.996 100.298C243.173 101.509 243.43 103.138 243.735 105.123C244.377 109.27 245.245 114.854 246.193 121.035C247.141 127.215 247.929 132.83 248.523 136.978C248.812 138.962 249.053 140.593 249.229 141.803L249.454 143.126C249.503 143.433 249.535 143.578 249.551 143.578C249.567 143.433 249.567 143.272 249.551 143.126C249.551 142.771 249.471 142.319 249.422 141.803C249.31 140.657 249.118 138.995 248.876 136.946C248.379 132.847 247.607 127.199 246.675 120.97C245.744 114.741 244.795 109.125 244.073 105.074C243.719 103.041 243.398 101.395 243.156 100.266C243.06 99.7492 242.963 99.3463 242.884 98.9746C242.884 98.83 242.852 98.6686 242.803 98.5227L242.819 98.5072Z" fill="#263239"/>
<path d="M210.127 121.042C210.371 121.474 210.663 121.872 210.971 122.27C211.524 123.051 212.384 124.162 213.488 125.423C219.302 132.178 226.414 137.654 234.389 141.487C235.898 142.217 237.165 142.765 238.042 143.097C238.496 143.296 238.952 143.445 239.423 143.578C239 143.328 238.561 143.096 238.107 142.93C237.247 142.549 236.028 141.985 234.534 141.188C226.724 137.205 219.676 131.796 213.748 125.241C212.612 123.98 211.718 122.95 211.118 122.204C210.825 121.789 210.5 121.408 210.143 121.076L210.127 121.042Z" fill="#263239"/>
<path d="M243.93 99.6182C243.978 99.7461 245.695 99.0748 247.858 98.4674C250.021 97.86 251.833 97.5557 251.817 97.3805C249.05 97.4598 246.331 98.2282 243.93 99.6182Z" fill="#455A64"/>
<path d="M187.591 104.129C187.788 104.145 187.984 104.145 188.164 104.129L189.816 104.045L195.836 103.694L215.744 102.304C223.531 101.685 230.565 101.199 235.669 101.099C238.204 101.032 240.282 101.015 241.705 101.032H243.357C243.554 101.049 243.733 101.049 243.929 101.032C243.75 100.982 243.554 100.949 243.357 100.965C242.981 100.965 242.424 100.898 241.722 100.864C240.298 100.797 238.221 100.748 235.669 100.764C230.548 100.764 223.498 101.216 215.728 101.835L195.82 103.359L189.783 103.877L188.147 104.045C187.951 104.045 187.771 104.062 187.591 104.112L187.591 104.129Z" fill="#455A64"/>
<path d="M245.056 109.77C246.558 109.8 248.076 109.682 249.563 109.433C251.081 109.315 252.599 109.05 254.07 108.652C252.567 108.623 251.049 108.741 249.563 108.991C248.029 109.109 246.526 109.359 245.056 109.77Z" fill="#455A64"/>
<path d="M189.845 119.89C190.042 119.924 190.221 119.924 190.418 119.89L192.037 119.822C193.444 119.735 195.473 119.615 197.992 119.427C202.998 119.05 209.95 118.451 217.557 117.252C221.352 116.652 224.951 115.916 228.223 115.299C231.479 114.665 234.439 114.133 236.943 113.808C239.445 113.5 241.458 113.397 242.864 113.346C244.254 113.312 245.04 113.345 245.056 113.294C244.876 113.242 244.68 113.226 244.483 113.226C244.108 113.226 243.551 113.157 242.864 113.157C240.869 113.141 238.889 113.226 236.893 113.465C234.391 113.723 231.429 114.219 228.157 114.836C224.886 115.453 221.287 116.172 217.491 116.789C209.917 118.004 202.998 118.655 197.992 119.119L192.054 119.667L190.434 119.838C190.238 119.838 190.042 119.838 189.862 119.89L189.845 119.89Z" fill="#455A64"/>
<path d="M222.521 132.286C222.847 132.318 223.188 132.318 223.513 132.286C224.149 132.286 225.06 132.159 226.2 132.046C228.446 131.823 231.571 131.457 234.989 131.01C238.423 130.547 241.483 130.1 243.746 129.67C244.853 129.478 245.764 129.302 246.383 129.175C246.691 129.127 247.017 129.047 247.31 128.936C246.984 128.919 246.643 128.936 246.317 129L243.664 129.351L234.891 130.563L226.118 131.744L223.465 132.127C223.14 132.142 222.83 132.206 222.521 132.302V132.286Z" fill="#455A64"/>
<path d="M193.226 139.058C193.634 139.089 194.059 139.058 194.468 139.013L197.852 138.722C200.712 138.463 204.652 138.065 209.017 137.607C213.381 137.148 217.304 136.735 220.181 136.353L223.548 135.91C223.958 135.88 224.383 135.803 224.775 135.696C224.366 135.681 223.941 135.695 223.533 135.742L220.148 136.033C217.304 136.292 213.348 136.689 208.984 137.163C204.603 137.621 200.696 138.035 197.819 138.417L194.452 138.844C194.043 138.875 193.618 138.952 193.226 139.058Z" fill="#455A64"/>
<path d="M194.352 154.845C194.551 154.845 194.733 154.845 194.932 154.794L196.57 154.522L202.564 153.435C207.613 152.552 214.616 151.279 222.363 150.48C226.254 150.09 229.979 149.835 233.373 149.767C236.75 149.699 239.83 149.767 242.379 149.767C244.929 149.767 247.032 149.649 248.472 149.513C249.184 149.445 249.73 149.393 250.111 149.325C250.309 149.309 250.491 149.275 250.69 149.225C250.491 149.207 250.293 149.207 250.111 149.225L248.454 149.325C247.015 149.393 244.946 149.445 242.379 149.411C239.814 149.377 236.717 149.275 233.356 149.325C229.996 149.377 226.221 149.597 222.314 149.988C214.5 150.786 207.514 152.11 202.464 153.095C199.948 153.605 197.911 154.064 196.504 154.336L194.898 154.692C194.716 154.726 194.534 154.777 194.369 154.845H194.352Z" fill="#455A64"/>
<path d="M194.352 172.512C194.55 172.578 194.749 172.612 194.947 172.627C195.343 172.693 195.938 172.758 196.714 172.808C198.878 172.938 201.059 172.873 203.223 172.627C208.707 172.072 216.042 170.13 224.285 168.904C232.529 167.68 240.062 166.701 245.463 165.867C247.611 165.59 249.742 165.214 251.857 164.707C252.434 164.544 252.98 164.365 253.525 164.136C253.723 164.071 253.905 163.973 254.07 163.859C253.872 163.908 253.674 163.956 253.492 164.038C252.947 164.25 252.401 164.447 251.84 164.594C250.37 164.953 248.156 165.214 245.447 165.59C240.029 166.341 232.512 167.206 224.236 168.497C215.959 169.786 208.625 171.696 203.206 172.316C201.075 172.595 198.911 172.71 196.747 172.66C195.195 172.579 194.352 172.464 194.352 172.512Z" fill="#455A64"/>
<path d="M246.183 123.296C248.29 123.186 250.361 122.893 252.415 122.434C254.505 122.141 256.558 121.683 258.577 121.042C256.471 121.152 254.381 121.444 252.328 121.903C250.238 122.196 248.184 122.654 246.183 123.296Z" fill="#455A64"/>
<path d="M248.454 136.787C248.454 136.787 248.655 136.855 249.007 136.787C249.494 136.703 249.963 136.533 250.415 136.295L254.726 134.19C258.113 132.559 260.88 131.285 260.83 131.183C260.176 131.303 259.522 131.507 258.918 131.812C257.778 132.254 256.202 132.917 254.507 133.748C252.814 134.563 251.305 135.361 250.232 135.989C249.677 136.345 249.074 136.617 248.437 136.805L248.454 136.787Z" fill="#455A64"/>
<path d="M252.944 177.394C252.749 177.408 252.537 177.45 252.359 177.491L250.688 177.869C249.244 178.19 247.135 178.622 244.522 179.041C241.91 179.46 238.762 179.837 235.273 180.158C231.801 180.479 227.874 180.619 223.818 180.87C215.689 181.373 208.306 181.665 202.968 181.512C200.307 181.457 198.149 181.303 196.672 181.205L194.969 181.066C194.774 181.051 194.563 181.051 194.352 181.066C194.547 181.122 194.741 181.149 194.936 181.163C195.326 181.219 195.861 181.303 196.64 181.386C198.116 181.54 200.274 181.735 202.952 181.833C209.929 181.986 216.906 181.82 223.85 181.303C227.907 181.051 231.801 180.884 235.322 180.549C238.843 180.214 241.991 179.795 244.619 179.335C247.248 178.874 249.325 178.399 250.769 178.036C251.483 177.869 252.035 177.701 252.408 177.589C252.587 177.534 252.765 177.464 252.927 177.38L252.944 177.394Z" fill="#455A64"/>
<path d="M257.451 193.886C254.535 198.072 251.533 202.209 248.462 206.312C248.324 206.478 248.169 206.676 247.945 206.676C247.721 206.676 247.496 206.345 247.427 206.081C247.134 204.261 247.392 202.407 248.186 200.72C248.98 199.065 249.653 197.36 250.222 195.607C250.688 193.771 250.67 191.834 251.498 190.08C251.947 189.138 252.568 188.295 253.034 187.384C253.69 185.945 254.88 184.786 256.381 184.141" fill="#B78876"/>
<path d="M187.591 107.521C187.607 108.026 187.669 108.548 187.763 109.038L188.417 113.147C188.978 116.622 189.803 121.417 190.738 126.717C191.673 132.018 192.514 136.796 193.199 140.253C193.511 141.917 193.791 143.287 193.994 144.348C194.071 144.853 194.196 145.342 194.352 145.831C194.336 145.326 194.274 144.804 194.181 144.315C194.009 143.271 193.807 141.869 193.526 140.205C192.95 136.731 192.14 131.936 191.205 126.636C190.271 121.335 189.429 116.572 188.744 113.115C188.417 111.451 188.152 110.066 187.95 109.022C187.872 108.516 187.763 108.011 187.591 107.538L187.591 107.521Z" fill="#263239"/>
<path d="M171.817 109.775C172.592 110.209 173.415 110.549 174.254 110.796C175.773 111.343 177.862 112.081 180.204 112.856C182.562 113.632 184.667 114.312 186.202 114.766C187.025 115.068 187.864 115.276 188.718 115.409C187.943 114.955 187.12 114.595 186.281 114.33C184.762 113.783 182.673 113.045 180.331 112.27C177.973 111.495 175.884 110.814 174.333 110.36C173.51 110.077 172.671 109.869 171.817 109.775Z" fill="#455A64"/>
<path d="M162.803 126.676C163.043 126.906 163.332 127.101 163.637 127.224C164.439 127.614 165.289 127.932 166.156 128.128C168.337 128.659 171.337 129.278 174.626 130.144C177.914 130.994 180.882 131.845 183.016 132.482L185.55 133.226C185.839 133.349 186.16 133.42 186.465 133.437C186.176 133.26 185.871 133.118 185.55 133.03C184.973 132.8 184.107 132.482 183.048 132.128C180.93 131.402 177.978 130.481 174.674 129.632C171.369 128.782 168.337 128.197 166.172 127.772C165.321 127.595 164.471 127.349 163.653 127.03C163.38 126.889 163.091 126.764 162.803 126.676Z" fill="#455A64"/>
<path d="M180.297 142.494L194.352 179.001L190.369 194.282L165.056 152.256C165.056 152.256 174.092 141.692 180.297 142.494Z" fill="#B78876"/>
<path d="M193.764 178.507L206.746 198.267L206.439 203.362L189.916 210.056L188.718 191.278L193.747 178.524L193.764 178.507Z" fill="#B78876"/>
<path d="M186.498 212.31C186.498 212.31 187.802 211.496 189.997 210.418C190.591 210.12 191.201 209.854 191.829 209.622C192.489 209.372 193.248 209.191 194.024 208.941C195.591 208.443 197.275 207.83 199.008 207.049C202.457 205.507 205.494 203.98 207.705 202.901L210.313 201.575C210.643 201.425 210.957 201.242 211.254 201.042C210.907 201.109 210.56 201.243 210.23 201.409L207.557 202.586L198.793 206.602C197.077 207.349 195.393 207.98 193.859 208.494C193.099 208.759 192.34 208.942 191.664 209.224C191.02 209.473 190.393 209.755 189.782 210.087C188.924 210.551 188.082 211.065 187.29 211.613C186.993 211.812 186.712 212.045 186.465 212.31H186.498Z" fill="#263239"/>
<path d="M241.659 47.4315C241.659 41.0029 234.073 29.5499 227.576 29.7783L210.938 36.8263C209.981 36.8589 209.074 37.2505 208.398 37.9194C207.722 38.5883 207.326 39.4693 207.277 40.4155L205.628 84.2535C205.512 87.305 206.617 90.2743 208.712 92.5257C210.806 94.7772 213.708 96.115 216.792 96.2455C219.876 96.3591 222.893 95.2993 225.201 93.2762C227.51 91.2532 228.945 88.4144 229.192 85.3798C229.407 82.2631 229.473 78.6907 229.473 78.7065C229.473 78.7234 237.833 77.875 240.241 67.3187C241.478 62.0979 241.676 54.5774 241.676 47.4315L241.659 47.4315Z" fill="#B78876"/>
<path d="M238.296 54.5848C238.283 54.8924 238.149 55.1721 237.934 55.3814C237.72 55.5917 237.437 55.7035 237.142 55.689C236.995 55.689 236.861 55.6611 236.727 55.6051C236.593 55.5492 236.472 55.4653 236.364 55.3534C236.257 55.2415 236.177 55.1162 236.123 54.9763C236.069 54.8365 236.042 54.6821 236.042 54.5423C236.056 54.2346 236.191 53.9549 236.405 53.7457C236.62 53.5354 236.901 53.4235 237.196 53.438C237.344 53.438 237.478 53.466 237.612 53.5219C237.747 53.5779 237.867 53.6618 237.974 53.7591C238.081 53.871 238.162 53.9974 238.216 54.1372C238.269 54.2771 238.296 54.4304 238.296 54.5702L238.296 54.5848Z" fill="#263239"/>
<path d="M239.37 51.1688C239.188 51.2804 238.175 50.7119 236.681 50.645C235.171 50.5781 234.042 51.035 233.843 50.9127C233.66 50.7896 233.958 50.645 234.474 50.4219C235.154 50.1542 235.95 50.0204 236.731 50.065C237.511 50.098 238.241 50.2988 238.856 50.6334C239.337 50.8904 239.503 51.1242 239.387 51.1688H239.37Z" fill="#263239"/>
<path d="M223.648 54.5842C223.634 54.8918 223.5 55.1714 223.285 55.3816C223.071 55.5908 222.79 55.7027 222.494 55.6892C222.346 55.6892 222.212 55.6612 222.078 55.6053C221.944 55.5494 221.824 55.4655 221.716 55.3537C221.609 55.2418 221.529 55.1155 221.475 54.9757C221.421 54.8359 221.395 54.6826 221.395 54.5428C221.407 54.2352 221.542 53.9557 221.756 53.7454C221.971 53.5362 222.253 53.4244 222.548 53.4379C222.695 53.4379 222.829 53.4658 222.963 53.5217C223.098 53.5777 223.219 53.6615 223.326 53.7734C223.433 53.8852 223.514 54.0116 223.568 54.1514C223.621 54.2912 223.648 54.4444 223.648 54.5842Z" fill="#263239"/>
<path d="M224.745 51.1541C224.561 51.3793 223.546 50.2319 222.048 50.1185C220.55 50.0068 219.401 50.9073 219.201 50.6372C219.001 50.367 219.318 50.0968 219.834 49.6683C220.517 49.1062 221.299 48.8578 222.098 48.9478C222.881 49.0162 223.629 49.4214 224.228 50.0968C224.694 50.6138 224.845 51.0858 224.745 51.1758L224.745 51.1541Z" fill="#263239"/>
<path d="M229.296 62.3049C230.002 62.127 230.723 62.0297 231.444 62.0297C231.775 62.0297 232.092 61.9648 232.165 61.7052C232.207 61.3159 232.165 60.9265 232.005 60.5852L231.184 57.6651C230.045 53.512 229.253 50.1051 229.397 50.0571C229.541 50.0078 230.593 53.3341 231.717 57.4548L232.496 60.3906C232.683 60.8616 232.712 61.3808 232.582 61.8675C232.524 61.9972 232.453 62.1102 232.352 62.1919C232.251 62.2724 232.136 62.3373 232.005 62.3698C231.819 62.419 231.617 62.419 231.43 62.419C230.709 62.4839 229.987 62.4515 229.282 62.3049H229.296Z" fill="#263239"/>
<path d="M229.282 78.119C224.042 77.8908 218.954 76.3588 214.634 73.7185C214.634 73.7185 217.9 80.7593 229.112 80.4704L229.282 78.1336L229.282 78.119Z" fill="#AB6550"/>
<path d="M228.09 65.889C227.83 65.4967 227.488 65.1893 227.081 64.9843C226.674 64.7793 226.236 64.6768 225.78 64.7109C225.455 64.7109 225.13 64.7957 224.837 64.9324C224.544 65.069 224.267 65.274 224.056 65.5309C223.844 65.77 223.698 66.0775 223.666 66.4192C223.618 66.7431 223.666 67.0847 223.828 67.3758C224.039 67.6655 224.333 67.8705 224.659 67.9907C224.984 68.1097 225.34 68.1097 225.683 68.0249C226.398 67.8199 227.066 67.4606 227.634 66.9658C227.814 66.8456 227.96 66.7089 228.074 66.5381C228.122 66.4533 228.155 66.3508 228.155 66.2483C228.155 66.1458 228.122 66.0433 228.074 65.9573" fill="#AB6550"/>
<path d="M225.04 62.4509C225.274 62.4509 225.181 64.0719 226.412 65.28C227.66 66.4868 229.298 66.4538 229.281 66.6853C229.281 66.9169 228.907 66.9831 228.221 66.95C227.317 66.901 226.475 66.5199 225.82 65.8754C225.196 65.2469 224.807 64.3856 224.775 63.4764C224.759 62.8307 224.946 62.4509 225.056 62.4509L225.04 62.4509Z" fill="#263239"/>
<path d="M224.769 46.3891C224.606 46.6312 223.138 46.4496 221.41 46.5101C219.664 46.5707 218.229 46.8128 218.033 46.5707C217.936 46.4601 218.213 46.2381 218.8 45.9959C219.583 45.7336 220.447 45.5819 221.344 45.552C222.241 45.5318 223.121 45.6327 223.937 45.8547C224.556 46.0662 224.817 46.2784 224.769 46.3891Z" fill="#263239"/>
<path d="M238.264 46.6049C238.017 46.7976 237.129 46.5442 236.038 46.494C234.946 46.4332 234.014 46.5442 233.81 46.3118C233.723 46.2001 233.898 45.9985 234.32 45.826C234.873 45.6034 235.528 45.5127 236.154 45.5629C236.795 45.6034 237.406 45.7751 237.901 46.0584C238.264 46.2916 238.366 46.5142 238.25 46.6049H238.264Z" fill="#263239"/>
<path d="M229.306 80.9551L229.521 78.4984C229.521 78.4984 234.22 77.3116 236.661 74.2956C239.581 70.751 241.312 63.3833 240.751 58.8337C240.256 54.8275 240.669 49.3549 234.253 47.9214C231.434 47.2779 231.995 42.185 230.493 39.4646C228.96 36.6458 229.191 35.7062 226.008 35.0799C222.907 34.6842 219.791 34.7172 216.707 35.1788C217.647 35.97 218.307 36.8601 218.158 37.6513C217.96 38.7063 216.278 41.3279 215.668 42.2009C213.359 45.5306 212.007 49.4208 211.759 53.46C211.479 58.0755 212.65 62.6739 214.118 67.0586C215.585 71.4433 217.531 79.6034 218.504 84.1359C219.477 88.6525 219.642 97.4219 216.361 100.703C210.72 106.34 198.302 103.736 200.726 102.037C204.602 99.7138 207.999 97.5538 207.175 91.4059C206.482 93.268 205.163 94.8345 203.464 95.8394C201.749 96.8456 199.753 97.2571 197.791 96.9775C200.38 93.3998 201.534 88.9663 200.99 84.5816C200.166 85.3728 199.209 85.9821 198.154 86.3936C197.098 86.8063 195.96 87.0041 194.822 86.9711C192.563 86.8893 190.304 86.5096 188.143 85.8502C186.494 85.4216 184.581 84.6963 184.251 83.0321C183.888 81.054 186.082 79.6193 188.011 79.043C189.941 78.4654 192.25 77.8561 192.876 75.9599C193.585 73.8341 191.623 71.707 191.623 69.4652C191.623 66.6471 194.443 64.8668 196.323 62.8057C199.671 59.0474 200.182 53.6737 200.726 48.7285C201.254 43.7675 202.244 38.2942 206.103 35.1128C206.993 34.437 207.966 33.8765 208.989 33.4479C209.665 31.0413 211.182 28.9479 213.26 27.5302C215.503 26.0467 218.026 25.0576 220.697 24.6455C225.926 23.5906 231.351 24.2005 236.232 26.3764C238.657 27.4808 240.817 29.0632 242.598 31.0248C244.379 33.0029 245.732 35.3106 246.573 37.8327C247.216 39.9096 247.513 42.1679 248.733 43.9323C249.954 45.6955 252.757 46.6686 254.325 45.168C254.325 47.2621 253.896 49.339 253.055 51.267L255.99 50.9215C256.403 52.6846 256.122 54.5479 255.215 56.1304C254.292 57.6958 252.823 58.8655 251.075 59.3771C252.955 61.0255 253.104 63.9437 252.196 66.2515C251.29 68.5592 249.525 70.3883 247.777 72.1515C249.162 72.3994 250.4 73.1247 251.257 74.2297C252.131 75.3335 252.559 76.7023 252.46 78.1028C252.247 78.9599 252.181 79.8501 252.28 80.7243C252.609 82.076 253.995 82.8172 254.934 83.8392C255.528 84.4985 255.957 85.2898 256.172 86.1469C256.385 87.0041 256.37 87.9113 256.155 88.7685C255.924 89.6256 255.495 90.4169 254.885 91.0591C254.276 91.7026 253.516 92.18 252.675 92.4609L250.795 93.2521C250.795 93.2521 249.327 89.9052 247.81 88.6696C246.292 87.4327 239.482 83.5754 234.37 82.7512L229.257 81.927L229.389 80.9551H229.306Z" fill="#263239"/>
<path d="M205.203 101.741C205.448 101.839 205.726 101.888 205.988 101.888C206.757 101.888 207.51 101.691 208.164 101.314C209.932 100.379 211.83 98.0166 213.09 94.7033C213.417 93.8345 213.63 92.9318 213.761 91.9974C213.875 90.9963 213.875 89.9806 213.761 88.9794C213.433 86.7814 212.713 84.6491 211.633 82.7136C210.57 80.6469 209.212 78.596 207.903 76.4636C206.528 74.2657 205.366 71.9535 204.417 69.543C203.484 67.1482 202.912 64.638 202.732 62.0622C202.683 60.8484 202.732 59.6188 202.912 58.4051C203.092 57.2569 203.386 56.1087 203.795 55.0103C205.432 50.6959 208.263 47.5308 210.57 44.9222C211.764 43.6428 212.861 42.4946 213.81 41.4618C214.661 40.5919 215.282 39.5421 215.626 38.3611C215.822 37.6066 215.806 36.8193 215.561 36.0976C215.479 35.8516 215.364 35.6055 215.184 35.4087C215.184 35.4087 215.331 35.6383 215.462 36.1304C215.675 36.8521 215.675 37.6066 215.462 38.3119C215.086 39.4437 214.448 40.4443 213.597 41.2808C212.664 42.2978 211.502 43.3961 210.308 44.6755C207.952 47.2343 205.072 50.4334 203.37 54.8463C202.944 55.9775 202.634 57.1414 202.437 58.3224C202.257 59.5532 202.208 60.8156 202.257 62.0622C202.421 64.6866 202.994 67.2782 203.959 69.7386C204.908 72.1832 206.086 74.5294 207.493 76.7431C208.819 78.8924 210.177 80.9093 211.224 82.9432C212.288 84.846 213.008 86.9127 213.352 89.045C213.597 90.9319 213.384 92.8504 212.746 94.6547C211.568 97.9024 209.735 100.264 208.083 101.199C207.444 101.594 206.741 101.806 205.988 101.839C205.464 101.789 205.203 101.725 205.186 101.741H205.203Z" fill="#455A64"/>
<path d="M202.258 48.9297C202.258 48.9297 202.608 47.8781 203.341 46.2765C203.771 45.3422 204.312 44.492 204.965 43.7073C205.777 42.7903 206.749 42.039 207.848 41.489C208.962 40.9385 210.061 40.3045 211.096 39.5871C211.956 38.9699 212.641 38.1357 213.103 37.1681C213.422 36.5174 213.565 35.7667 213.485 35.0326C213.485 34.7657 213.39 34.4987 213.246 34.2819C213.246 34.5321 213.262 34.799 213.294 35.0493C213.294 35.7166 213.103 36.3673 212.8 36.9512C212.307 37.8354 211.638 38.5861 210.826 39.1534C209.791 39.8207 208.708 40.4213 207.609 40.9552C206.478 41.5224 205.459 42.3232 204.631 43.3069C203.962 44.1744 203.42 45.126 203.038 46.1603C202.767 46.8104 202.544 47.495 202.369 48.1784C202.258 48.6295 202.21 48.8964 202.258 48.9124V48.9297Z" fill="#455A64"/>
<path d="M252.944 50.671C252.369 51.0401 251.763 51.3461 251.125 51.5866C249.338 52.214 247.391 52.214 245.604 51.5866C244.296 51.1044 243.098 50.365 242.094 49.4006C241.088 48.4362 240.275 47.2956 239.701 46.0098C238.999 44.5144 238.535 42.9071 238.312 41.2521C238.137 39.4359 237.69 37.6518 237.02 35.9641C236.27 34.3568 235.185 32.9263 233.844 31.7529C232.504 30.5957 230.94 29.7277 229.249 29.2134C226.473 28.4097 223.537 28.4579 220.793 29.3902C218.942 29.9688 217.266 30.9814 215.878 32.3476C215.511 32.7173 215.176 33.1352 214.889 33.5692C214.777 33.7138 214.698 33.8746 214.634 34.0514C215.049 33.4888 215.495 32.9584 215.99 32.4601C217.394 31.1904 219.054 30.2581 220.873 29.7116C223.554 28.8598 226.409 28.8276 229.09 29.6313C230.717 30.1456 232.217 30.9814 233.493 32.1065C234.77 33.2317 235.823 34.6139 236.541 36.157C237.211 37.8125 237.626 39.5484 237.801 41.3331C238.025 43.0202 238.52 44.6597 239.254 46.2027C239.844 47.5207 240.705 48.7101 241.758 49.6899C242.828 50.671 244.072 51.4258 245.428 51.8926C247.279 52.5033 249.289 52.439 251.108 51.7318C251.603 51.5389 252.05 51.2818 252.48 50.977C252.625 50.8794 252.752 50.7675 252.863 50.6389L252.944 50.671Z" fill="#455A64"/>
<path d="M250.69 86.0639C250.69 86.0639 250.146 85.8816 249.2 85.4851C247.886 84.9406 246.677 84.1636 245.625 83.2227C244.083 81.818 242.892 80.1001 242.174 78.1839C241.28 75.8554 241.193 73.3274 241.946 70.9647C242.77 68.471 244.137 66.1755 244.399 63.7968C244.644 61.7155 244.277 59.6011 243.331 57.718C242.7 56.4455 241.824 55.3063 240.737 54.3482C240.439 54.0839 240.123 53.8527 239.791 53.6373C239.563 53.4893 239.441 53.4232 239.422 53.4391C239.422 53.4562 239.861 53.8025 240.579 54.4804C241.578 55.4715 242.384 56.6107 242.962 57.8661C243.821 59.7162 244.153 61.7485 243.908 63.7638C243.611 66.0262 242.296 68.2728 241.42 70.8497C240.632 73.3103 240.719 75.9704 241.683 78.3821C242.454 80.3485 243.698 82.0994 245.328 83.5029C246.414 84.461 247.693 85.2049 249.078 85.7005C249.445 85.8485 249.831 85.9476 250.216 86.0467C250.34 86.0969 250.48 86.1128 250.62 86.1128L250.69 86.0639Z" fill="#455A64"/>
<path d="M197.284 36.2143C197.102 31.5829 195.165 27.1971 191.853 23.9241C188.558 20.651 184.121 18.7036 179.451 18.5072H178.507C168.076 18.6708 162.38 27.508 162.827 37.8017L162.91 79.0255C162.91 79.0255 179.203 88.5172 179.816 88.8445L187.084 94.0002L187.002 70.8259C187.002 70.8259 197.069 69.7143 197.632 59.8298C197.88 55.0184 197.632 45.1339 197.284 36.1979V36.2143Z" fill="#F8BC9E"/>
<path d="M187.591 70.1606C182.727 69.9653 178.035 68.4679 174.07 65.8312C174.07 65.8312 176.961 73.0421 187.436 72.5695L187.591 70.1606Z" fill="#EC9A6E"/>
<path d="M194.339 43.2889C194.339 43.5893 194.209 43.8897 194 44.094C193.792 44.3125 193.505 44.4227 193.219 44.4227C193.076 44.4227 192.932 44.4085 192.802 44.3539C192.672 44.2993 192.542 44.2174 192.437 44.1081C192.333 43.9989 192.255 43.8765 192.19 43.74C192.138 43.6034 192.099 43.4527 192.099 43.303C192.099 43.0026 192.229 42.7022 192.45 42.4969C192.659 42.2784 192.945 42.1692 193.232 42.1692C193.375 42.1692 193.518 42.1834 193.649 42.238C193.779 42.2926 193.909 42.3745 194.013 42.4696C194.118 42.5788 194.196 42.7022 194.261 42.8388C194.326 42.9753 194.352 43.125 194.352 43.2757L194.339 43.2889Z" fill="#263239"/>
<path d="M195.45 41.0074C195.268 41.2559 194.23 40.1039 192.698 40.0136C191.165 39.9232 190.012 40.9171 189.88 40.646C189.748 40.375 189.996 40.0813 190.506 39.607C191.182 39.0197 191.989 38.7486 192.78 38.7938C193.571 38.839 194.346 39.223 194.972 39.9006C195.4 40.4201 195.548 40.8719 195.45 40.9848V41.0074Z" fill="#263239"/>
<path d="M179.704 43.2894C179.704 43.6031 179.574 43.8904 179.352 44.0949C179.144 44.3134 178.858 44.4227 178.571 44.4227C178.428 44.4227 178.284 44.4096 178.154 44.3549C178.024 44.3003 177.894 44.2183 177.789 44.109C177.685 43.9997 177.607 43.8763 177.542 43.7397C177.49 43.6031 177.451 43.4533 177.451 43.3025C177.451 43.002 177.581 42.7015 177.789 42.497C177.998 42.2785 178.284 42.1692 178.571 42.1692C178.714 42.1692 178.858 42.1823 178.988 42.237C179.118 42.2916 179.248 42.3736 179.352 42.4697C179.457 42.579 179.535 42.7015 179.6 42.8381C179.652 42.9747 179.691 43.1255 179.691 43.2752L179.704 43.2894Z" fill="#263239"/>
<path d="M179.675 39.8982C179.493 40.0224 178.439 39.4464 176.923 39.4012C175.407 39.3561 174.237 39.853 174.105 39.7175C173.974 39.582 174.221 39.4351 174.731 39.198C175.407 38.9043 176.214 38.7688 177.005 38.7914C177.796 38.8139 178.571 39.006 179.197 39.3448C179.625 39.6045 179.774 39.8417 179.675 39.8869V39.8982Z" fill="#263239"/>
<path d="M185.479 52.1726C186.164 51.9474 186.863 51.8272 187.562 51.8093C187.891 51.8093 188.192 51.7236 188.261 51.4473C188.302 51.0328 188.233 50.6005 188.083 50.2206C187.822 49.2369 187.534 48.1484 187.233 47.0432C186.054 42.5368 185.204 38.8413 185.355 38.7895C185.506 38.7377 186.575 42.3462 187.754 46.836L188.535 50.0313C188.727 50.5314 188.768 51.1019 188.658 51.6366C188.604 51.7747 188.535 51.9129 188.439 51.9999C188.343 52.1035 188.233 52.1726 188.11 52.2071C187.932 52.2583 187.74 52.2762 187.562 52.2762C186.877 52.3452 186.178 52.3107 185.492 52.1546L185.479 52.1726Z" fill="#263239"/>
<path d="M181.074 52.3101C181.298 52.3101 181.238 53.9526 182.48 55.1734C183.722 56.3929 185.338 56.2965 185.338 56.5243C185.338 56.752 184.979 56.8171 184.291 56.8171C183.408 56.7846 182.57 56.4266 181.912 55.7759C181.283 55.1577 180.894 54.3117 180.834 53.3838C180.804 52.668 180.984 52.3101 181.089 52.3101L181.074 52.3101Z" fill="#263239"/>
<path d="M180.823 34.677C180.664 35.1457 179.187 34.8527 177.456 35.0089C175.725 35.1847 174.296 35.6729 174.089 35.2238C173.994 35.0089 174.264 34.5598 174.836 34.1106C175.614 33.5638 176.471 33.2514 177.361 33.1732C178.25 33.0951 179.139 33.2709 179.965 33.681C180.569 34.0325 180.886 34.4426 180.823 34.677Z" fill="#263239"/>
<path d="M194.335 36.3686C194.079 36.7919 193.197 36.288 192.101 36.1872C191.006 36.0864 190.081 36.3484 189.868 35.8848C189.782 35.6631 189.939 35.2599 190.351 34.8769C190.906 34.4334 191.546 34.2319 192.187 34.2924C192.827 34.3528 193.439 34.6955 193.951 35.2599C194.321 35.7235 194.392 36.167 194.335 36.3686Z" fill="#263239"/>
<path d="M163.93 44.8283C163.766 44.7476 157.235 42.5702 157.17 49.1986C157.088 55.8116 163.881 54.5307 163.897 54.3386C163.913 54.1465 163.93 44.8283 163.93 44.8283Z" fill="#F8BC9E"/>
<path d="M162.786 51.8263C162.786 51.8263 162.701 51.9047 162.554 51.9821C162.444 52.0444 162.322 52.0756 162.212 52.0756C162.102 52.0756 161.98 52.0444 161.87 51.9821C161.552 51.7177 161.283 51.3438 161.112 50.9075C160.941 50.4712 160.856 49.9725 160.88 49.4889C160.88 48.928 160.953 48.3832 161.137 47.8845C161.186 47.6664 161.271 47.4794 161.393 47.3236C161.516 47.1678 161.662 47.0581 161.833 46.9958C161.931 46.9646 162.041 46.9808 162.139 47.0269C162.237 47.0893 162.31 47.1828 162.347 47.3074C162.42 47.4944 162.383 47.6191 162.408 47.6352C162.432 47.6502 162.518 47.5256 162.481 47.2612C162.456 47.1054 162.383 46.9496 162.285 46.8561C162.151 46.7153 161.968 46.653 161.797 46.6841C161.589 46.7315 161.393 46.8561 161.235 47.0269C161.076 47.1989 160.953 47.4321 160.868 47.6814C160.648 48.2273 160.538 48.8345 160.55 49.4578C160.55 50.7667 161.076 51.9821 161.809 52.2626C161.943 52.3099 162.09 52.3249 162.224 52.2937C162.359 52.2626 162.493 52.2002 162.615 52.0917C162.774 51.9821 162.835 51.8424 162.786 51.8263Z" fill="#EC9A6E"/>
<path d="M157.163 195.409C157.18 195.728 157.163 196.049 157.061 196.369C156.89 197.195 156.652 198.004 156.345 198.779C155.322 201.391 153.634 203.684 151.418 205.437C149.218 207.189 146.576 208.335 143.78 208.756C142.944 208.891 142.092 208.941 141.239 208.924C140.915 208.941 140.592 208.924 140.268 208.823C140.268 208.738 141.597 208.823 143.677 208.436C146.371 207.913 148.911 206.767 151.06 205.082C153.191 203.363 154.879 201.172 155.97 198.678C156.856 196.723 157.078 195.409 157.129 195.426L157.163 195.409Z" fill="#455A64"/>
<path d="M178.577 199.368C178.577 199.699 178.518 200.032 178.385 200.298C178.267 200.585 178.089 200.785 177.882 200.918C177.675 201.051 177.454 201.072 177.232 201.006C177.01 200.939 176.818 200.785 176.655 200.541C176.492 200.298 176.389 200.009 176.345 199.678C176.3 199.345 176.33 199.014 176.404 198.704C176.492 198.394 176.64 198.128 176.818 197.951C177.01 197.774 177.217 197.662 177.439 197.662C177.587 197.662 177.734 197.708 177.868 197.797C178.001 197.885 178.134 198.016 178.237 198.172C178.341 198.326 178.429 198.504 178.489 198.725C178.548 198.925 178.577 199.146 178.577 199.368Z" fill="#455A64"/>
<path d="M199.969 211.183C199.294 210.726 198.689 210.166 198.17 209.522C195.524 206.538 193.846 202.86 193.344 198.943C193.206 198.147 193.189 197.333 193.292 196.535C193.379 196.535 193.413 197.451 193.69 198.909C194.365 202.706 196.008 206.284 198.447 209.318C199 209.912 199.519 210.539 199.986 211.183H199.969Z" fill="#455A64"/>
<path d="M187.591 82.7326C187.932 83.7506 188.385 84.7547 188.936 85.6995C189.747 87.3574 190.848 88.4487 190.962 88.3615C191.075 88.2742 190.168 87.1247 189.374 85.5249C188.58 83.9251 187.737 82.6604 187.608 82.7476L187.591 82.7326Z" fill="#263239"/>
<path d="M183.459 81.5961L163.388 64.7045L159.158 71.2159C159.158 71.2159 141.651 84.0285 138.336 87.6687L142.712 145.885C142.712 145.885 138.058 176.503 137.731 178.919C137.405 181.334 134.661 202.47 134.661 202.47C134.302 206.468 137.601 211.332 138.27 211.332C138.27 211.332 141.651 207.284 145.276 207.611C148.902 207.937 173.497 214.564 173.497 214.564L203.366 207.922L200.198 149.051L199.136 109.685L196.54 94.6202L190.628 88.7289L187.117 79.5396C187.117 79.5396 186.006 91.275 185.859 90.818C185.696 90.361 183.459 81.6287 183.459 81.6287L183.459 81.5961Z" fill="#0166AB"/>
<path d="M159.422 71.465C159.654 71.863 159.918 72.2279 160.233 72.5768C160.795 73.2733 161.622 74.2512 162.68 75.4121C164.78 77.7671 167.855 80.8691 171.162 84.3519C172.799 86.0767 174.354 87.7352 175.677 89.3101L175.842 89.4931L176.007 89.3273C178.256 87.0718 179.876 84.9317 181.117 83.5055L182.572 81.847C182.77 81.6652 182.936 81.4661 183.084 81.2499C182.853 81.3826 182.654 81.5485 182.473 81.7475C182.092 82.0964 181.53 82.6431 180.918 83.3236C179.612 84.6996 177.925 86.8224 175.693 88.9956H176.024C174.701 87.4035 173.147 85.7118 171.51 84.003C168.17 80.5202 165.061 77.4686 162.895 75.164C161.82 74.019 160.944 73.0743 160.348 72.4269C160.067 72.0792 159.77 71.7635 159.422 71.465Z" fill="#263239"/>
<path d="M193.225 177.38V176.48C193.225 175.858 193.149 174.991 193.088 173.911C192.951 171.652 192.753 168.427 192.51 164.484C191.992 156.53 191.246 145.532 190.348 133.388C189.449 121.244 188.566 110.278 187.835 102.324C187.47 98.3467 187.135 95.1389 186.891 92.9301C186.754 91.8657 186.632 90.9989 186.556 90.377L186.465 89.7223L186.511 90.3927C186.571 91.0146 186.648 91.8657 186.754 92.9458C186.952 95.2044 187.226 98.4122 187.546 102.357C188.201 110.311 189.038 121.292 189.936 133.436C190.835 145.58 191.672 156.514 192.22 164.5C192.525 168.444 192.769 171.652 192.936 173.927C193.027 175.007 193.104 175.858 193.149 176.48C193.149 176.742 193.195 176.971 193.225 177.151C193.225 177.217 193.21 177.298 193.21 177.38H193.225Z" fill="#263239"/>
<path d="M171.817 189.772C171.884 189.881 178.237 186.699 186.027 182.661C193.8 178.624 200.052 175.254 199.985 175.13C199.919 175.02 193.566 178.204 185.776 182.242C178.003 186.279 171.751 189.648 171.817 189.772Z" fill="#263239"/>
<path d="M192.046 210.057C192.116 209.653 192.116 209.25 192.046 208.847L191.813 205.59C191.626 202.833 191.603 199.06 191.673 194.853C191.743 190.661 191.766 186.84 191.743 184.099V180.843C191.743 180.44 191.743 180.036 191.626 179.634C191.509 180.021 191.463 180.423 191.463 180.827C191.463 181.698 191.369 182.778 191.299 184.084C191.183 186.841 191.089 190.646 190.996 194.836C190.926 199.028 190.996 202.85 191.346 205.606C191.486 206.977 191.673 208.09 191.813 208.847C191.813 209.25 191.906 209.636 192.023 210.023L192.046 210.057Z" fill="#263239"/>
<path d="M251.412 166.105L200.899 167.24L199.986 150.338L260.831 155.321L251.412 166.122V166.105Z" fill="#F8BC9E"/>
<path d="M288.445 113.155L289 114.4C284.671 122.796 268.926 153.209 268.926 153.209L249.572 162.733L203.366 160.841V158.303L227.146 148.746L256.857 149.492L272.813 117.354C273.009 116.955 273.303 116.59 273.663 116.325C274.022 116.042 274.431 115.86 274.871 115.777L288.445 113.155Z" fill="#455A64"/>
<path d="M249.563 162.733C250.07 162.151 250.525 161.521 250.893 160.841C251.644 159.629 252.659 157.954 253.743 156.113C254.827 154.271 255.79 152.53 256.455 151.285C256.856 150.621 257.189 149.941 257.451 149.211C256.944 149.791 256.506 150.422 256.14 151.102C255.387 152.313 254.373 153.988 253.288 155.831C252.204 157.656 251.243 159.414 250.578 160.675C250.175 161.323 249.843 162.019 249.58 162.733H249.563Z" fill="#263239"/>
<path d="M245.358 158.226L225.901 157.614L240.598 150.338L256.324 150.675L245.373 158.226H245.358Z" fill="#263239"/>
<path d="M203.366 158.226C203.529 158.268 203.692 158.283 203.855 158.268L205.239 158.311L210.32 158.442C214.603 158.542 220.53 158.731 227.012 158.962C233.51 159.178 239.47 159.323 243.753 159.352H250.202C250.364 159.352 250.527 159.352 250.69 159.308C250.527 159.295 250.364 159.295 250.202 159.308L248.834 159.266L243.753 159.135C239.47 159.035 233.558 158.832 227.061 158.63C220.563 158.413 214.619 158.253 210.369 158.239H203.92C203.741 158.225 203.562 158.225 203.399 158.239L203.366 158.226Z" fill="#263239"/>
<path d="M252.959 161.572C253.088 161.389 253.201 161.205 253.281 161.004L254.15 159.332C254.908 157.828 255.986 155.739 257.258 153.165L267.334 132.72L274.819 117.291L274.674 117.407L285.088 115.201L287.986 114.549C288.34 114.482 288.678 114.398 289 114.282C288.646 114.298 288.292 114.349 287.953 114.432L285.04 114.967L274.593 116.99H274.497L274.449 117.09C272.26 121.537 269.668 126.819 266.883 132.486L256.936 152.996L253.957 159.249L253.169 160.971C253.073 161.171 252.992 161.389 252.944 161.606L252.959 161.572Z" fill="#263239"/>
<path d="M264.021 150.146C264.021 150.146 263.213 149.331 261.582 151.433C259.95 153.537 257.253 159.635 257.253 159.635L254.264 161.004C254.264 161.004 256.881 157.906 256.881 156.635C256.881 155.363 254.91 155.363 253.811 157.189C252.503 159.063 251.098 160.874 249.563 162.569C249.563 162.569 250.565 166.286 250.839 166.107C251.114 165.928 256.073 165.667 256.073 165.667L257.43 165.031C257.43 165.031 260.774 165.031 260.951 164.102C261.13 163.172 266.654 159.374 266.654 158.526V153.276C266.654 153.276 269.19 147.064 268.641 146.444C268.091 145.809 265.83 144.44 264.037 150.178L264.021 150.146Z" fill="#F8BC9E"/>
<path d="M264.596 150.391C264.596 150.391 264.695 150.391 264.844 150.455C264.942 150.503 265.024 150.567 265.074 150.663C265.123 150.759 265.156 150.855 265.14 150.966C264.925 151.622 264.662 152.645 264.382 153.892C264.101 155.139 263.804 156.625 263.327 158.128C262.98 159.135 262.436 160.063 261.711 160.862C261.1 161.629 260.539 162.333 260.029 162.972C259.484 163.595 258.989 164.266 258.578 164.986C259.204 164.426 259.781 163.819 260.292 163.164L262.056 161.118C262.419 160.717 262.749 160.286 263.046 159.839C263.359 159.343 263.606 158.816 263.788 158.256C264.2 156.833 264.547 155.395 264.778 153.939C264.991 152.82 265.189 151.846 265.338 150.998C265.338 150.855 265.288 150.71 265.206 150.599C265.107 150.486 264.991 150.407 264.844 150.375C264.662 150.311 264.58 150.343 264.58 150.375L264.596 150.391Z" fill="#EC9A6E"/>
<path d="M265.338 160.479C266.414 157.947 267.17 155.295 267.591 152.592C266.515 155.124 265.758 157.776 265.338 160.479Z" fill="#EC9A6E"/>
<path d="M255.826 156.095C255.826 156.095 255.96 156.095 256.168 156.168C256.437 156.168 256.705 156.272 256.899 156.449C257.108 156.669 257.033 157.096 256.795 157.538L256.079 159.023L255.363 160.481C255.11 160.908 254.842 161.319 254.647 161.599C254.216 162.246 254.021 162.703 254.081 162.733C254.395 162.438 254.677 162.129 254.931 161.776C255.229 161.422 255.512 161.069 255.781 160.687C256.035 160.231 256.303 159.73 256.556 159.2C256.824 158.67 257.019 158.185 257.242 157.7C257.361 157.465 257.421 157.199 257.451 156.949C257.451 156.816 257.451 156.698 257.406 156.566C257.361 156.449 257.301 156.331 257.212 156.243C257.078 156.139 256.929 156.051 256.75 156.007C256.586 155.962 256.407 155.964 256.243 155.993C255.945 156.022 255.84 156.066 255.84 156.095H255.826Z" fill="#EC9A6E"/>
<path d="M166.15 92.8571C166.051 92.5406 165.886 92.2242 165.672 91.9559C165.161 91.1965 164.584 90.4839 163.925 89.8359C162.969 88.8702 161.963 87.969 160.891 87.1299C159.639 85.9908 158.171 85.0732 156.589 84.4252C154.94 83.9189 153.209 83.7443 151.478 83.9341C150.094 84.0607 148.725 84.2506 147.374 84.5353C146.203 84.7416 145.263 84.9314 144.637 85.058C144.291 85.0896 143.961 85.1846 143.648 85.3111C143.994 85.3111 144.34 85.2947 144.687 85.2314C145.329 85.1682 146.286 85.0416 147.44 84.8681C148.61 84.6935 149.978 84.4568 151.528 84.3771C153.176 84.2189 154.858 84.3935 156.44 84.8834C157.974 85.5009 159.391 86.3705 160.628 87.4463C161.699 88.269 162.721 89.1398 163.71 90.0726C164.584 90.975 165.408 91.9078 166.183 92.8735L166.15 92.8571Z" fill="#263239"/>
<path d="M197.732 139.087L197.039 151.615C197.039 151.615 178.24 160.309 165.928 163.443C153.615 166.573 139.141 166.085 139.141 166.085L144.307 145.71L197.732 139.071V139.087Z" fill="#F8BC9E"/>
<path d="M233.88 141.159C233.929 140.661 233.814 140.146 233.581 139.695C233.331 139.245 232.965 138.875 232.5 138.634C230.854 137.653 227.412 135.48 227.412 135.48L217.005 134.564L197.304 138.634L196.605 150.99C196.605 150.99 206.647 151.537 208.975 151.457C211.302 151.376 217.787 149.364 217.787 149.364C217.787 149.364 228.658 150.7 229.141 150.121C229.623 149.542 230.355 148.866 229.657 148.448C228.959 148.029 220.58 145.938 220.58 145.938L226.198 145.52C226.198 145.52 234.412 147.193 235.011 146.935C235.609 146.695 236.39 145.68 235.874 144.925L235.359 144.168C235.509 143.782 235.492 143.348 235.343 142.962C235.177 142.576 234.876 142.254 234.495 142.077L233.713 141.819L233.88 141.143V141.159Z" fill="#F8BC9E"/>
<path d="M219.141 141.354C219.948 141.626 220.822 141.747 221.681 141.731C223.261 141.837 225.515 141.61 227.768 142.199C228.827 142.546 229.87 142.938 230.879 143.391C231.737 143.723 232.611 144.01 233.52 144.252C234.327 144.523 235.184 144.674 236.042 144.704C236.042 144.644 235.083 144.417 233.62 143.95C232.88 143.708 232.006 143.407 231.064 143.014C230.038 142.546 228.995 142.139 227.919 141.777C226.793 141.49 225.649 141.354 224.488 141.369H221.697C220.116 141.429 219.158 141.278 219.141 141.339L219.141 141.354Z" fill="#EC9A6E"/>
<path d="M220.268 138.094C220.998 138.375 221.762 138.488 222.526 138.413C224.303 138.225 226.113 138.488 227.79 139.201C229.734 140.122 231.494 141.004 232.79 141.605C233.47 141.981 234.185 142.263 234.915 142.451C234.3 141.963 233.62 141.568 232.923 141.249C231.66 140.573 229.933 139.615 227.956 138.695C227.01 138.244 225.997 137.981 224.967 137.944C224.021 137.944 223.207 137.999 222.509 138.037C221.098 138.187 220.284 138.112 220.268 138.112L220.268 138.094Z" fill="#EC9A6E"/>
<path d="M138.317 86.7619C138.317 86.7619 133.123 95.0525 132.301 99.1068C131.48 103.161 129.491 145.846 130.296 146.654C131.003 147.313 131.742 147.924 132.515 148.484C132.515 148.484 127.831 149.489 129.277 151.928C130.132 153.396 131.069 154.813 132.088 156.164C132.088 156.164 132.778 164.058 133.649 164.256C135.621 165.146 137.544 166.152 139.418 167.24C139.418 167.24 153.552 159.592 154.834 155.554C156.116 151.5 159.14 143.408 159.14 143.408L156.707 137.771L163.972 103.375C163.972 103.375 167.883 92.3655 160.849 87.8668C153.831 83.3668 140.946 82.1973 138.317 86.746V86.7619Z" fill="#0166AB"/>
<path d="M162.803 109.791C162.737 109.955 162.688 110.136 162.655 110.3C162.572 110.677 162.44 111.169 162.292 111.808C161.996 113.17 161.567 115.073 161.024 117.484L156.676 137.482V137.613L159.097 143.223V143.042C157.713 146.881 156.28 151.065 154.683 155.314L154.436 155.855L154.057 156.347C153.81 156.691 153.546 157.003 153.233 157.283C152.937 157.594 152.624 157.872 152.294 158.152C151.981 158.43 151.668 158.709 151.355 158.956C150.071 160.006 148.72 160.957 147.386 161.843C144.701 163.631 142.016 165.221 139.447 166.632H139.661C138.426 165.943 137.223 165.287 136.054 164.681C135.461 164.368 134.884 164.074 134.275 163.828L134.044 163.729C134.044 163.729 133.83 163.663 133.83 163.648C133.764 163.565 133.698 163.467 133.665 163.368C133.55 163.089 133.468 162.795 133.385 162.515C132.908 160.301 132.578 158.037 132.397 155.773V155.724C131.672 154.789 131.03 153.853 130.519 153C130.223 152.558 129.959 152.147 129.712 151.721C129.597 151.524 129.498 151.327 129.416 151.115C129.35 150.918 129.334 150.704 129.366 150.507C129.531 149.687 130.305 149.227 130.931 148.915C131.508 148.637 132.117 148.424 132.727 148.26H132.891L132.743 148.162C131.952 147.604 131.392 147.176 131.03 146.865C130.668 146.553 130.487 146.406 130.47 146.423C130.47 146.423 130.47 146.471 130.585 146.57C130.701 146.652 130.799 146.782 130.964 146.947C131.508 147.423 132.068 147.882 132.644 148.309V148.162C132.002 148.293 131.376 148.506 130.767 148.784C130.404 148.965 130.075 149.162 129.762 149.407C129.399 149.687 129.152 150.08 129.037 150.524C128.988 150.769 128.988 151.016 129.037 151.262C129.136 151.491 129.235 151.721 129.366 151.935C129.614 152.361 129.877 152.788 130.157 153.23C130.717 154.166 131.343 155.035 132.035 156.036V155.953C132.2 158.234 132.512 160.514 132.974 162.761C133.04 163.073 133.138 163.385 133.27 163.696C133.336 163.893 133.468 164.073 133.649 164.188L133.88 164.27L134.094 164.352C134.67 164.598 135.247 164.91 135.84 165.206C137.009 165.829 138.211 166.485 139.43 167.174L139.529 167.24L139.644 167.174C142.23 165.763 144.932 164.188 147.633 162.384C149.017 161.482 150.367 160.514 151.652 159.48C151.981 159.217 152.311 158.956 152.591 158.644C152.871 158.348 153.233 158.086 153.53 157.758C153.843 157.446 154.139 157.119 154.386 156.774C154.518 156.594 154.65 156.428 154.781 156.249L155.078 155.625C156.659 151.327 158.092 147.21 159.476 143.339V143.158L157.038 137.547V137.679C158.751 129.509 160.184 122.586 161.205 117.648C161.699 115.237 162.078 113.301 162.342 111.94C162.457 111.3 162.556 110.808 162.638 110.414C162.688 110.201 162.737 109.988 162.753 109.775L162.803 109.791Z" fill="#263239"/>
<path d="M132.38 148.585C132.38 148.585 132.61 148.737 133.085 148.889C133.757 149.109 134.479 149.226 135.184 149.21C135.692 149.192 136.184 149.057 136.643 148.839C137.151 148.585 137.626 148.297 138.102 147.977C139.085 147.302 140.069 146.492 141.184 145.716C143.38 144.147 145.446 142.831 146.921 141.869C147.757 141.396 148.544 140.839 149.282 140.197C148.397 140.569 147.56 141.025 146.757 141.549C145.233 142.46 143.118 143.725 140.905 145.311C139.79 146.087 138.79 146.931 137.856 147.59C137.085 148.247 136.151 148.686 135.167 148.855C134.495 148.889 133.807 148.855 133.134 148.686C132.889 148.601 132.643 148.551 132.38 148.551V148.585Z" fill="#263239"/>
<path d="M132.38 155.752C132.68 155.895 132.997 155.957 133.331 155.957C134.198 156.021 135.064 155.879 135.865 155.531C138.382 154.346 140.749 152.922 142.95 151.294C145.134 149.649 147.218 147.878 149.185 145.981C149.952 145.254 150.535 144.669 150.935 144.258C151.169 144.068 151.369 143.831 151.535 143.578C150.618 144.242 149.752 144.969 148.935 145.744C147.368 147.119 145.217 149.017 142.65 150.914C140.466 152.527 138.149 153.966 135.715 155.231C134.981 155.594 134.164 155.784 133.347 155.784C133.031 155.768 132.714 155.752 132.38 155.769V155.752Z" fill="#263239"/>
<path d="M196.622 151.694C197.022 151.822 197.422 151.863 197.822 151.885L201.121 152.142L206.002 152.441L208.851 152.592C209.384 152.549 209.901 152.419 210.401 152.248L211.933 151.778C214.066 151.093 216.065 150.411 217.882 149.79H217.798C220.514 150.111 222.813 150.366 224.446 150.517L226.346 150.667C226.579 150.688 226.795 150.688 227.028 150.667C226.812 150.559 226.595 150.494 226.362 150.474L224.462 150.154C222.847 149.897 220.548 149.576 217.815 149.211H217.731L211.8 151.158L210.267 151.629C209.801 151.8 209.318 151.906 208.818 151.949L205.969 151.82L201.087 151.649L197.788 151.586C197.389 151.564 197.005 151.586 196.605 151.649L196.622 151.694Z" fill="#EC9A6E"/>
<path d="M172.944 25.1278H172.882C171.379 26.2775 170.403 27.9292 170.139 29.7428V29.9209C169.768 32.528 169.845 35.135 169.442 37.7583C169.039 40.3653 168.11 42.973 166.111 44.7218C165.29 45.4499 163.834 45.9524 163.168 45.1104C162.935 44.7542 162.827 44.3488 162.827 43.9277C162.316 37.6935 160.534 32.1555 160.549 25.646C160.549 24.7716 160.751 23.9134 161.154 23.1199C161.572 22.3427 162.161 21.6626 162.904 21.1444C164.33 20.1728 166.08 19.1527 167.676 19.8814C169.272 20.6101 171.317 23.4438 172.556 24.6421" fill="#263239"/>
<path d="M166.507 21.8826C164.982 19.5793 169.164 16.2505 172.215 15.3986C175.265 14.5467 179.3 15.8877 182.334 16.8185C184.253 17.4179 186.171 18.2383 188.189 18.1594C189.534 18.0332 190.862 17.7177 192.108 17.2286C193.355 16.7396 194.716 16.4872 196.077 16.5029C196.75 16.5029 197.422 16.708 197.996 17.0393C198.57 17.3706 199.029 17.8597 199.341 18.4276C199.849 19.595 199.128 21.2042 197.766 21.3777C198.193 21.1569 198.685 21.0464 199.16 21.0307C199.636 21.0149 200.128 21.1253 200.571 21.3304C201.014 21.5355 201.391 21.8353 201.67 22.1981C201.949 22.5609 202.145 23.0027 202.211 23.4444C202.277 23.9019 202.227 24.3594 202.08 24.7854C201.916 25.2113 201.653 25.6057 201.293 25.9213C200.932 26.2368 200.505 26.4576 200.03 26.5839C199.554 26.7101 199.062 26.7258 198.586 26.6312C199.456 26.0001 200.817 27.0414 200.702 28.051C200.587 28.5559 200.325 29.0291 199.948 29.4078C199.57 29.7864 199.111 30.0862 198.586 30.2439C195.979 31.3009 192.994 30.9538 190.321 30.1177C187.647 29.2816 185.171 27.9721 182.481 27.0729C179.808 26.1737 175.38 24.5487 172.74 25.448C170.788 26.0948 168.312 27.8144 168.312 27.8144L166.999 26.7416C166.655 26.2841 166.442 25.7793 166.36 25.2271C166.212 24.1543 166.261 23.05 166.475 21.9772" fill="#263239"/>
<path fill-rule="evenodd" clip-rule="evenodd" d="M520 3.12695H10C6.13401 3.12695 3 6.26096 3 10.127V237.127C3 240.993 6.134 244.127 9.99999 244.127H520C523.866 244.127 527 240.993 527 237.127V10.127C527 6.26096 523.866 3.12695 520 3.12695ZM10 0.126953C4.47715 0.126953 0 4.60411 0 10.127V237.127C0 242.65 4.47714 247.127 9.99999 247.127H520C525.523 247.127 530 242.65 530 237.127V10.127C530 4.60411 525.523 0.126953 520 0.126953H10Z" fill="#0099FF"/>
</svg>
