<?xml version="1.0" encoding="UTF-8"?>
<svg id="Layer_2" data-name="Layer 2" xmlns="http://www.w3.org/2000/svg" viewBox="0 0 1000 1000">
  <defs>
    <style>
      .cls-1, .cls-2, .cls-3, .cls-4, .cls-5, .cls-6, .cls-7, .cls-8, .cls-9, .cls-10, .cls-11, .cls-12, .cls-13, .cls-14, .cls-15 {
        stroke-width: 0px;
      }

      .cls-1, .cls-13, .cls-14 {
        fill: #000;
      }

      .cls-2 {
        fill: #e0e0e0;
      }

      .cls-3 {
        fill: #b26752;
      }

      .cls-4 {
        fill: #eb996e;
      }

      .cls-5 {
        fill: #455a64;
      }

      .cls-6 {
        fill: #f5f5f5;
      }

      .cls-7 {
        fill: #09f;
      }

      .cls-8 {
        fill: #ffbe9d;
      }

      .cls-9 {
        fill: #ebebeb;
      }

      .cls-10 {
        fill: #40bbff;
      }

      .cls-11 {
        fill: #cc8b75;
      }

      .cls-12 {
        fill: #263238;
      }

      .cls-13 {
        opacity: .3;
      }

      .cls-13, .cls-14 {
        isolation: isolate;
      }

      .cls-14, .cls-16 {
        opacity: .4;
      }

      .cls-15 {
        fill: #fff;
      }
    </style>
  </defs>
  <g id="freepik--background-complete--inject-13">
    <rect class="cls-15" x="839.24" y="571.12" width="78.46" height="116.42" transform="translate(49.96 1323.11) rotate(-75.56)"/>
    <path class="cls-2" d="M925.05,681.84s0-.5.31-1.42l1-4.06,3.82-15.28c3.36-13.23,8.14-32.2,13.99-55.27l.33.55-112.75-28.9.68-.41h0v.61l-.17.63-.33,1.27-.63,2.51-1.31,5.04c-.84,3.35-1.7,6.67-2.55,9.95-1.7,6.58-3.38,13.05-5.02,19.43-3.27,12.7-6.55,24.93-9.43,36.5l-.37-.63,81.05,21.13,23.05,6.02,6.18,1.66,1.59.44.57.17-.52-.11-1.55-.37-6.11-1.51-23.16-5.81-81.51-20.67-.5-.13.13-.5c2.97-11.57,6.09-23.79,9.36-36.52,1.64-6.36,3.31-12.84,5-19.43.83-3.3,1.7-6.55,2.55-9.95.44-1.68.85-3.36,1.29-5.04l.65-2.51.33-1.27.15-.63v-.61h0l.7-.41,112.68,29.14.46.11-.13.44c-6.05,23.16-11.02,42.15-14.52,55.45l-4.02,15.28c-.46,1.7-.83,3.01-1.07,3.95l-.22,1.18Z"/>
    <path class="cls-2" d="M944.61,605.85c-.37.31-.78.58-1.22.79l-3.65,2.07-13.56,7.49-45.27,24.43-.41.22-.31-.37-2.18-2.9-32.74-42.79c-4.1-5.41-7.44-9.85-9.82-13.1-1.09-1.48-1.96-2.69-2.64-3.58-.32-.41-.61-.85-.85-1.31.38.36.73.75,1.05,1.16.7.9,1.64,2.03,2.79,3.45l10.11,12.84,33.03,42.57,2.18,2.9-.72-.15,45.43-24.01,13.71-7.14,3.75-1.9c.42-.26.87-.48,1.33-.65Z"/>
    <path class="cls-2" d="M165.77,756.83c1.09-.37,2.06-1.03,2.82-1.9.88-1.07,1.37-2.41,1.38-3.8-.04-.88-.19-1.76-.46-2.6-.22-.94-.48-1.94-.74-2.99-2.18-8.47-5.11-20.65-8.84-35.67-.92-3.75-1.9-7.71-2.9-11.83l-1.53-6.29c-.22-1.05-.52-2.09-.9-3.1-.48-.9-1.2-1.66-2.07-2.18-.9-.55-1.95-.82-3.01-.76-1.13.2-2.24.46-3.34.79l-6.94,1.79-14.52,3.78-64.62,16.7c-2.68.75-4.35,3.42-3.86,6.16.68,2.82,1.33,5.63,2.01,8.43,1.35,5.6,2.69,11.12,4.02,16.55,2.62,10.91,5.13,21.33,7.55,31.3l.9,3.71c.21,1.15.78,2.2,1.62,3.01.81.8,1.86,1.31,2.99,1.44,1.17.04,2.33-.13,3.43-.52l13.71-3.49,24.58-6.33,35.65-8.99,9.69-2.38,2.53-.59.87-.17-.85.28-2.49.7-9.65,2.6-35.54,9.34-24.56,6.4-13.69,3.51c-1.22.44-2.51.63-3.8.57-1.36-.15-2.62-.75-3.6-1.7-.98-.95-1.65-2.18-1.92-3.51-.28-1.22-.59-2.47-.9-3.71-2.42-9.98-4.98-20.43-7.62-31.28-1.31-5.41-2.66-10.91-4.02-16.55-.68-2.82-1.35-5.65-2.05-8.51-.58-3.33,1.46-6.55,4.72-7.44l64.64-16.61,14.52-3.71,6.96-1.79c1.15-.34,2.33-.6,3.51-.76,1.25-.08,2.5.23,3.56.9,1.04.64,1.87,1.56,2.4,2.66.41,1.06.73,2.16.94,3.27.52,2.18,1.03,4.26,1.51,6.31.98,4.13,1.94,8.08,2.84,11.85,3.58,15.04,6.55,27.24,8.49,35.76l.7,2.99c.26.87.4,1.78.41,2.69-.05,1.46-.59,2.85-1.55,3.95-.6.67-1.35,1.18-2.18,1.51-.25.12-.51.21-.79.26Z"/>
    <polygon class="cls-2" points="115.04 725.46 128.9 729.63 118.51 739.98 108.12 750.3 104.65 735.78 101.2 721.27 115.04 725.46"/>
    <path class="cls-2" d="M293.87,79.57c6.73-2.92,11.08-9.56,11.07-16.9.79-9.49-6.27-17.82-15.76-18.61-9.49-.79-17.82,6.27-18.61,15.76-.07.8-.08,1.61-.03,2.41-.21,7.4,4.06,14.19,10.81,17.22-26.5,3.75-25.52,32.48-25.52,32.48l62.63.83s1.64-29.03-24.58-33.2Z"/>
  </g>
  <g id="freepik--device-3--inject-13">
    <rect class="cls-5" x="640.24" y="191.84" width="222.46" height="155.03" rx="8.1" ry="8.1"/>
    <rect class="cls-15" x="655.45" y="196.73" width="185.79" height="145.25"/>
    <circle class="cls-12" cx="851.49" cy="269.29" r="5.94"/>
    <path class="cls-12" d="M649.12,247.28v44.23c-.01.68-.57,1.22-1.24,1.22h0c-.68,0-1.22-.55-1.22-1.22v-44.23c-.01-.68.53-1.23,1.2-1.24,0,0,.01,0,.02,0h0c.69,0,1.24.56,1.24,1.24h0Z"/>
    <rect class="cls-2" x="730.24" y="121.76" width="113.91" height="155.88"/>
    <rect class="cls-7" x="701.36" y="141.39" width="113.91" height="155.88"/>
    <rect class="cls-15" x="681.85" y="165.34" width="113.91" height="155.88"/>
    <path class="cls-12" d="M795.82,321.18v-11.48c0-7.44,0-18.29-.15-32,0-27.44-.2-66.34-.35-112.38l.52.52-113.91.13h0l.57-.57v155.88l-.46-.48,82.71.2h31.26-7.99l-22.92.13-82.95.31h-.65v-.46c0-43.66-.15-97.67-.22-155.88v-.57h115v.52c0,46.17-.13,85.14-.17,112.71,0,13.67,0,24.47-.13,31.89v10.61c-.02.31-.07.62-.15.92Z"/>
    <path class="cls-12" d="M751.48,196.66c0,.31-12.4.57-27.68.59-15.28.02-27.68-.24-27.68-.55s12.4-.59,27.68-.59,27.68.22,27.68.55Z"/>
    <path class="cls-12" d="M781.43,210.17c0,.33-19.1.59-42.65.61-23.55.02-42.63-.24-42.63-.55s19.08-.59,42.63-.59,42.65.22,42.65.52Z"/>
    <path class="cls-12" d="M781.43,224.32c0,.31-19.08.57-42.63.59-23.55.02-42.65-.22-42.65-.55s19.1-.57,42.65-.59,42.63.22,42.63.55Z"/>
    <path class="cls-12" d="M781.45,238.55c0,.31-19.1.59-42.65.59s-42.63-.22-42.63-.52,19.08-.59,42.63-.61c23.55-.02,42.65.13,42.65.55Z"/>
    <path class="cls-12" d="M781.45,252.57c0,.33-19.08.59-42.63.61-23.55.02-42.65-.24-42.65-.55s19.1-.59,42.65-.59,42.63.22,42.63.52Z"/>
    <path class="cls-12" d="M781.48,266.71c0,.31-19.1.57-42.65.59s-42.63-.22-42.63-.55,19.08-.57,42.63-.59c23.55-.02,42.65.22,42.65.55Z"/>
    <path class="cls-12" d="M781.48,280.84c0,.31-19.08.59-42.63.59s-42.65-.22-42.65-.52,19.1-.59,42.65-.61c23.55-.02,42.63.24,42.63.55Z"/>
    <path class="cls-12" d="M742.05,295c0,.31-10.26.57-22.92.57s-22.94-.24-22.94-.55,10.28-.57,22.94-.59c7.64-.2,15.3,0,22.92.57Z"/>
  </g>
  <g id="freepik--device-2--inject-13">
    <path class="cls-12" d="M344.08,723.36h316.51c8.45,0,15.3,6.86,15.3,15.3v198.93c0,8.45-6.86,15.3-15.3,15.3h-316.51c-8.45,0-15.3-6.86-15.3-15.3v-198.93c0-8.45,6.86-15.3,15.3-15.3Z"/>
    <path class="cls-12" d="M670.25,956h-335.85c-11.08.01-20.07-8.96-20.08-20.04v-.04h376.01c0,11.09-8.99,20.08-20.08,20.08Z"/>
    <rect class="cls-5" x="338.1" y="732.47" width="327.51" height="193.85"/>
    <polygon class="cls-5" points="468.11 935.92 472.78 943.34 538.47 943.34 542.79 935.92 468.11 935.92"/>
    <rect class="cls-15" x="349.03" y="745.39" width="301.53" height="180.86"/>
    <path class="cls-9" d="M502.28,768.53l2.88,52.87c.09,1.88,1.65,3.36,3.54,3.36l94.96.7c1.95.05,3.57-1.49,3.62-3.45,0-.06,0-.12,0-.18l.31-41.08c.01-1.97-1.57-3.57-3.54-3.58,0,0-.01,0-.02,0h-58.39c-.95-.02-1.85-.39-2.53-1.05l-10.04-10.13c-.67-.66-1.57-1.02-2.51-1.03l-24.62-.2c-1.98-.04-3.61,1.53-3.65,3.51,0,.08,0,.16,0,.25Z"/>
    <rect class="cls-6" x="524.5" y="749.7" width="62.02" height="103.78" transform="translate(-250.12 1351.21) rotate(-89.58)"/>
    <path class="cls-9" d="M495.55,775.71l7.44,64.72c.09,1.14,1.04,2.01,2.18,2.01l101.11.74c1.2.07,2.24-.84,2.31-2.05,0-.04,0-.09,0-.13l5.57-64.62c.1-1.27-.85-2.39-2.13-2.49-.02,0-.04,0-.05,0l-114.15-.83c-1.2-.09-2.25.82-2.34,2.02-.02.21,0,.42.04.62Z"/>
    <path class="cls-7" d="M428.99,796.88l3.97,72.85c.14,2.59,2.27,4.63,4.87,4.65l131.09.96c2.71.02,4.93-2.16,4.96-4.87h0s.41-56.76.41-56.76c.02-2.71-2.16-4.93-4.87-4.96-.01,0-.03,0-.04,0h-80.62c-1.3,0-2.55-.52-3.47-1.44l-13.93-13.91c-.9-.92-2.14-1.44-3.43-1.44l-33.99-.26c-2.72-.02-4.95,2.18-4.96,4.91,0,.09,0,.18,0,.27Z"/>
    <rect class="cls-6" x="459.68" y="770.87" width="85.59" height="143.25" transform="translate(-343.68 1338.78) rotate(-89.58)"/>
    <path class="cls-7" d="M419.72,806.77l10.28,89.35c.18,1.59,1.52,2.79,3.12,2.79l139.58,1.03c1.66,0,3.04-1.25,3.19-2.9l7.68-89.2c.14-1.74-1.15-3.27-2.89-3.42-.08,0-.17-.01-.25-.01l-157.54-1.16c-1.75-.01-3.17,1.4-3.18,3.15,0,.12,0,.25.02.37Z"/>
    <path class="cls-12" d="M526.94,835.96s.5.24,1.27.92c1.14,1,2.14,2.13,2.99,3.38,3.19,4.67,4.61,10.32,4.02,15.94-.99,8.39-5.44,15.98-12.29,20.93-4,2.98-8.7,4.87-13.64,5.48-5.36.55-10.76-.52-15.5-3.08-4.76-2.49-8.68-6.34-11.26-11.05-2.33-4.43-3.36-9.42-2.99-14.41.28-4.48,1.61-8.83,3.89-12.7,1.98-3.35,4.6-6.27,7.73-8.58,4.48-3.37,9.73-5.56,15.28-6.37,1.48-.23,2.98-.34,4.48-.33,1.03,0,1.55,0,1.55.17s-2.18.22-5.87,1.03c-5.24,1.12-10.16,3.44-14.36,6.77-2.87,2.26-5.28,5.07-7.07,8.25-2.04,3.64-3.22,7.71-3.45,11.88-.62,13.86,10.11,25.61,23.97,26.23,1.13.05,2.26.03,3.38-.08,4.57-.53,8.93-2.24,12.64-4.96,6.48-4.56,10.8-11.59,11.94-19.43.69-5.3-.43-10.69-3.17-15.28-1.99-3.19-3.67-4.56-3.51-4.72Z"/>
    <path class="cls-12" d="M500.92,817.95c.46-.83,5.74,2.86,11.74,7.95l1,.83-.98.87-.74.65c-6.31,5.48-11.74,9.54-12.16,9.08s4.37-5.3,10.65-10.81l.74-.63v1.72c-2.99-2.58-5.61-4.96-7.47-6.7-1.04-.88-1.98-1.87-2.79-2.97Z"/>
  </g>
  <g id="freepik--device-1--inject-13">
    <path class="cls-12" d="M165.4,506.57l-87.03-10.11c-10.46-1.16-18-10.59-16.84-21.05,0-.01,0-.03,0-.04l25.21-217.6c1.2-10.44,10.65-17.93,21.09-16.73.02,0,.04,0,.06,0l87.03,10.11c10.45,1.21,17.95,10.65,16.77,21.11l-25.21,217.6c-1.22,10.43-10.66,17.9-21.09,16.7Z"/>
    <path class="cls-15" d="M194.04,258.68l-16.87-1.96c-2.3-.23-4.35,1.46-4.58,3.76,0,.01,0,.02,0,.04l-.37,3.06c-.21,2.31-2.24,4.01-4.55,3.8-.01,0-.02,0-.04,0l-32.9-3.82c-2.27-.39-3.84-2.47-3.6-4.76l.35-3.06c.32-2.29-1.28-4.41-3.57-4.73-.01,0-.02,0-.03,0l-5.92-.7-14.78-1.7c-7.33-.85-13.96,4.4-14.82,11.72,0,.02,0,.04,0,.06l-24.6,212.29c-.81,7.31,4.44,13.89,11.74,14.73l86.82,10.13c7.32.86,13.96-4.38,14.82-11.7l24.65-212.36c.84-7.33-4.41-13.96-11.74-14.8,0,0,0,0,0,0Z"/>
    <rect class="cls-6" x="68.32" y="283.01" width="72.04" height="48.55" transform="translate(-14.99 5.51) rotate(-2.82)"/>
    <path class="cls-2" d="M139.12,281.25c-.76.93-1.6,1.81-2.49,2.62l-7.09,6.79c-6.02,5.7-14.39,13.51-23.73,22.14l-.33.33-.28-.35-.55-.37c-10.41-7.51-19.8-14.36-26.57-19.36l-7.99-5.98c-1.01-.7-1.95-1.47-2.84-2.31,1.09.56,2.12,1.21,3.1,1.94l8.19,5.7c6.9,4.82,16.35,11.57,26.78,19.1l.52.37h-.72c9.32-8.62,17.79-16.35,24.01-21.83l7.33-6.55c.82-.81,1.71-1.55,2.64-2.23Z"/>
    <path class="cls-2" d="M69.57,333.29c3.4-5.42,7.12-10.62,11.15-15.59,3.72-5.19,7.74-10.17,12.05-14.89-3.41,5.41-7.13,10.62-11.15,15.59-3.73,5.19-7.75,10.16-12.05,14.89Z"/>
    <path class="cls-2" d="M116.68,301.03c4.55,4.38,8.84,9.03,12.84,13.93,4.29,4.66,8.29,9.58,11.98,14.73-4.55-4.41-8.83-9.08-12.84-13.99-4.28-4.65-8.28-9.55-11.98-14.67Z"/>
    <rect class="cls-7" x="123.02" y="330.72" width="84.39" height="125.21" transform="translate(-253.23 476.37) rotate(-78.44)"/>
    <path class="cls-12" d="M235.02,364.53c-.43.32-.89.61-1.38.85l-4.02,2.31-14.93,8.25-49.57,26.94-.39.22-.31-.35-.72-.87-36.5-44.01-10.91-13.43-2.95-3.67c-.36-.42-.69-.87-.96-1.35.41.36.79.77,1.14,1.2l3.1,3.54c2.75,3.21,6.55,7.71,11.24,13.21l36.76,43.79.72.87-.7-.15,49.71-26.63,15.06-7.9,4.13-2.18c.47-.26.97-.47,1.48-.63Z"/>
    <path class="cls-12" d="M95.44,422.12c-.2-.24,11.33-9.69,25.76-21.09s26.2-20.45,26.5-20.21-11.35,9.69-25.78,21.11c-14.43,11.42-26.3,20.45-26.48,20.19Z"/>
    <path class="cls-12" d="M188.67,388.13c.28-.15,7.12,12.97,15.28,29.27,8.16,16.31,14.47,29.67,14.19,29.82s-7.09-13.1-15.28-29.3-14.45-29.67-14.19-29.8Z"/>
  </g>
  <g id="freepik--Character--inject-13">
    <path class="cls-12" d="M465.15,290.38c11.44-5.76,20.39-1.94,24.7,1.62s6.82,8.87,8.29,14.26c1.47,5.39,2.03,10.98,3.19,16.42.72,3.14,1.22,6.33,1.48,9.55.53,4.67.09,12.95-2.4,16.94-2.39,3.83-4.94,7.23-8.81,9.6-1.38.85-3.01,1.74-4.54,1.21-1.11-.38-1.85-1.42-2.5-2.4-11.78-17.82-20.87-37.28-26.98-57.75"/>
    <path class="cls-9" d="M654.49,630.52c19.65.22,25.69-26.92,7.64-34.71l-.44-.17c-14.92-6.11-31.88-4.63-45.51,3.97-7.27-30.8-38.14-49.87-68.94-42.6-5.77,1.36-11.29,3.61-16.37,6.67-3.56-36.98-22.31-72.76-52.39-94.65-30.08-21.89-71.08-28.73-105.72-15.28-34.64,13.45-61.12,47.46-62.85,84.55-19.69-2.02-39.35,4.04-54.49,16.79-.48.39-.94.81-1.42,1.27-26.52,24.97-8.16,69.85,28.38,70.16l372.11,4.02Z"/>
    <path class="cls-2" d="M397.56,534.08c-.95.08-1.91,0-2.84-.24,1.88-.29,3.79-.29,5.68,0-.93.23-1.89.32-2.84.24Z"/>
    <path class="cls-7" d="M682.72,617.64l.37-17.31-32.39-.94-.83,25.32,1.99.17c8.93.76,45.45,3.21,51.5,1.57,6.72-1.83-20.63-8.82-20.63-8.82Z"/>
    <g class="cls-16">
      <path class="cls-15" d="M696.06,621.53s9.58,3.06,8.32,4.61-38.25.48-54.57-1.42v-.72l43.14,1.62s1.24-4.06,3.12-4.08Z"/>
    </g>
    <path class="cls-12" d="M649.43,623.95h.55l1.59.13,5.89.44c4.96.31,11.83.68,19.43.9s14.47.28,19.47.26h8.06-8.06c-4.98,0-11.85-.13-19.45-.37s-14.47-.52-19.45-.79l-5.87-.31h-1.62l-.55-.26Z"/>
    <path class="cls-12" d="M693.04,626.11c.3-.96.7-1.89,1.2-2.77.63-.82,1.37-1.55,2.18-2.18-1.02.32-1.88,1.03-2.4,1.96-.69.84-1.04,1.91-.98,2.99Z"/>
    <path class="cls-12" d="M683.68,620.98s.57-.48,1.05-1.2.83-1.38.74-1.44-.57.48-1.07,1.22-.85,1.38-.72,1.42Z"/>
    <path class="cls-12" d="M681.06,619.52s.59-.24,1.16-.72.98-.94.92-1.03-.59.24-1.18.72-.98.96-.9,1.03Z"/>
    <path class="cls-12" d="M679.49,616.42c.53.21,1.11.3,1.68.26.57.09,1.15.05,1.7-.13-.54-.21-1.11-.3-1.68-.26-.57-.09-1.15-.05-1.7.13Z"/>
    <path class="cls-12" d="M678.96,614.24c.55.39,1.2.61,1.88.61.66.12,1.34.05,1.96-.2-.63-.13-1.28-.19-1.92-.2-.63-.13-1.28-.21-1.92-.22Z"/>
    <path class="cls-12" d="M684.81,618.19c.72.14,1.46.14,2.18,0,.74-.08,1.47-.23,2.18-.44.45-.11.88-.27,1.29-.48.24-.14.43-.37.52-.63.07-.31-.04-.64-.28-.85-1.62-.85-3.61-.44-4.76.98-.34.4-.59.87-.72,1.38-.04.19-.04.38,0,.57.21-.64.55-1.23.98-1.75.49-.53,1.12-.91,1.81-1.11.83-.25,1.72-.16,2.49.24.33.26.17.63-.2.85-.37.2-.77.35-1.18.46-.71.23-1.44.4-2.18.5-1.35.24-2.14.22-2.14.28Z"/>
    <path class="cls-12" d="M685.36,618.38c.26-.43.36-.94.28-1.44-.06-.55-.24-1.08-.52-1.55-.35-.63-.99-1.05-1.7-1.11-.45.09-.74.51-.68.96.04.33.15.66.33.94.26.47.57.9.94,1.29.31.39.72.69,1.18.87,0,0-.41-.39-.96-1.07-.33-.39-.62-.81-.85-1.27-.26-.46-.44-1.24,0-1.33s1.05.5,1.35.94c.28.41.46.87.55,1.35.06.47.09.94.09,1.42Z"/>
    <path class="cls-12" d="M650.35,615.11s.92,0,2.38.15c3.89.52,7.13,3.26,8.3,7.01.22.77.4,1.55.55,2.34.04-.22.04-.44,0-.65-.04-.6-.15-1.19-.31-1.77-.53-1.92-1.63-3.63-3.14-4.91-1.52-1.28-3.39-2.08-5.37-2.29-.6-.06-1.19-.06-1.79,0-.21,0-.42.05-.61.13Z"/>
    <path class="cls-12" d="M654.1,601.71c-.29,2.21-.45,4.43-.48,6.66-.12,2.18-.12,4.37,0,6.55.29-2.17.45-4.36.48-6.55.13-2.22.13-4.44,0-6.66Z"/>
    <path class="cls-12" d="M665.78,621.75c1.54.42,3.12.62,4.72.61,1.59.13,3.19.05,4.76-.24,0,0-2.18,0-4.74-.15s-4.72-.33-4.74-.22Z"/>
    <path class="cls-12" d="M659.43,621.55s.17.46.37.96.31.92.41.92.17-.5,0-1.07-.7-.87-.79-.81Z"/>
    <path class="cls-12" d="M657.13,618.52s.11.41.44.76.65.57.74.5-.13-.41-.46-.79-.65-.61-.72-.48Z"/>
    <path class="cls-12" d="M653.75,617.05c0,.11.44.11.92.28s.81.46.9.39-.17-.55-.76-.74-1.09-.04-1.05.07Z"/>
    <path class="cls-12" d="M651.33,616.33c0,.11.13.26.39.39s.52.11.57,0-.15-.28-.41-.39-.5-.13-.55,0Z"/>
    <polygon class="cls-13" points="650.41 614.24 682.81 614.65 682.87 610.74 650.21 612.19 650.41 614.24"/>
    <path class="cls-7" d="M648.4,617.29l.39-17.29-32.42-.94-.83,25.3,2.01.2c8.93.74,45.45,3.19,51.47,1.55,6.72-1.83-20.63-8.82-20.63-8.82Z"/>
    <g class="cls-16">
      <path class="cls-15" d="M661.85,621.2s9.56,3.06,8.32,4.61-38.25.48-54.57-1.44v-.72l43.16,1.64s1.11-4.06,3.1-4.08Z"/>
    </g>
    <path class="cls-12" d="M615.11,623.62h.57l1.59.15,5.87.41c4.98.33,11.85.68,19.45.92s14.47.28,19.45.26h7.51c.18.03.37.03.55,0h-8.06c-4.98,0-11.85-.15-19.45-.37s-14.45-.55-19.43-.79l-5.89-.31h-1.59l-.57-.28Z"/>
    <path class="cls-12" d="M658.75,625.79c.29-.97.68-1.9,1.18-2.77.61-.8,1.31-1.53,2.07-2.18-1.01.35-1.86,1.06-2.4,1.99-.64.85-.94,1.91-.85,2.97Z"/>
    <path class="cls-12" d="M649.32,620.57c.11,0,.57-.48,1.07-1.22s.83-1.35.74-1.42-.57.48-1.07,1.2-.83,1.44-.74,1.44Z"/>
    <path class="cls-12" d="M646.74,619.19s.59-.24,1.16-.72.98-.96.92-1.05-.59.26-1.16.74-.98.94-.92,1.03Z"/>
    <path class="cls-12" d="M645.17,616.2c.54.21,1.11.3,1.68.26.57.08,1.15.03,1.7-.13-.53-.23-1.11-.32-1.68-.26-.57-.09-1.15-.05-1.7.13Z"/>
    <path class="cls-12" d="M644.67,614.02c.55.39,1.2.6,1.88.61.65.13,1.33.06,1.94-.22-.63-.11-1.26-.17-1.9-.17-.63-.13-1.28-.21-1.92-.22Z"/>
    <path class="cls-12" d="M650.52,617.86c.69.13,1.39.13,2.07,0,.74-.06,1.47-.2,2.18-.41.45-.11.88-.28,1.29-.5.25-.13.44-.35.55-.61.08-.32-.04-.65-.31-.85-1.62-.84-3.61-.43-4.76.98-.33.41-.57.87-.72,1.38-.04.18-.04.37,0,.55.25-.63.59-1.22,1-1.75.48-.53,1.11-.91,1.81-1.09.83-.26,1.73-.17,2.49.24.31.24.17.63-.2.85-.39.19-.79.34-1.2.46-.72.21-1.45.38-2.18.5-1.24.22-2.03.2-2.03.26Z"/>
    <path class="cls-12" d="M651.04,617.97s.35-.48.28-1.42c-.05-.55-.23-1.08-.52-1.55-.35-.63-.99-1.05-1.7-1.11-.44.08-.74.49-.68.94.05.33.16.65.33.94.26.47.58.91.96,1.29.31.38.71.69,1.16.9,0,0-.39-.39-.96-1.07-.32-.39-.59-.82-.83-1.27-.26-.46-.44-1.24,0-1.33s1.03.5,1.33.92c.28.41.48.88.57,1.38.07.46.09.93.07,1.4Z"/>
    <path class="cls-12" d="M616.01,614.76s.94,0,2.4.15c3.89.55,7.11,3.29,8.3,7.03.44,1.4.46,2.34.55,2.34.04-.22.04-.44,0-.65-.04-.6-.14-1.19-.31-1.77-.54-1.92-1.64-3.63-3.14-4.93-1.53-1.24-3.4-2-5.37-2.18-.59-.06-1.2-.06-1.79,0l-.63.02Z"/>
    <path class="cls-12" d="M619.78,601.38c-.28,2.21-.43,4.43-.46,6.66-.14,2.22-.14,4.44,0,6.66.28-2.21.44-4.43.48-6.66.13-2.22.12-4.44-.02-6.66Z"/>
    <path class="cls-12" d="M631.48,621.42c1.54.4,3.12.6,4.72.61,1.59.12,3.19.04,4.76-.24,0-.13-2.18,0-4.74-.15s-4.72-.33-4.74-.22Z"/>
    <path class="cls-12" d="M625.13,621.22s.15.46.35.94.33.94.44.92.17-.5,0-1.07-.72-.87-.79-.79Z"/>
    <path class="cls-12" d="M622.82,618.17s.13.41.46.76.65.59.72.5-.11-.41-.44-.76-.65-.57-.74-.5Z"/>
    <path class="cls-12" d="M619.44,616.7s.46.13.92.31.81.44.9.37-.17-.52-.74-.74-1.09-.02-1.07.07Z"/>
    <path class="cls-12" d="M617.01,616.01s.15.26.41.37.5.13.55,0-.13-.26-.39-.37-.52-.11-.57,0Z"/>
    <polygon class="cls-13" points="616.12 613.91 648.49 614.3 648.56 610.42 615.9 611.84 616.12 613.91"/>
    <path class="cls-12" d="M485.03,552.9l183.37-107.68c8.03-4.71,17.69-5.76,26.54-2.88h0c11.75,3.63,21.03,12.71,24.91,24.38,2.66,8.21,2.75,17.04.26,25.3l-31.15,120.41-55.58,1.27,30.56-101.68-90.94,61.95c-26.69,19.29-63.98,13.29-83.27-13.4-1.76-2.43-3.33-5-4.7-7.66Z"/>
    <path class="cls-5" d="M455.17,551.52l183.26-107.6c8.03-4.72,17.7-5.76,26.54-2.86h0c11.75,3.62,21.03,12.69,24.91,24.36,2.66,8.21,2.75,17.04.26,25.3l-31.41,121.39-55.29.31,30.56-101.7-90.83,61.95c-26.69,19.28-63.96,13.27-83.24-13.42-1.77-2.45-3.36-5.04-4.74-7.74h-.02Z"/>
    <path class="cls-10" d="M550,441.94s4.67,49.92,0,54.7l-11.02,5.68-24.69-16.72,35.71-43.66Z"/>
    <path class="cls-14" d="M550,441.94s4.67,49.92,0,54.7l-11.02,5.68-24.69-16.72,35.71-43.66Z"/>
    <path class="cls-10" d="M468.61,378.52c6.99-1.05-53.18-7.05-55.21,43.2s41.76,131.17,41.76,131.17l83.8-50.64s-20.11-14.12-23.38-23.58c-3.03-9.12,2.62-94.59-46.98-100.15Z"/>
    <path class="cls-10" d="M429.54,388.43c-2.55.63-21.83,17.94-21.98,52.5-.2,27.46,1.92,88.43,20.67,97.49,8.49,4.1,18.75,2.66,29.95-4.58,31.54-20.39,90.07-84.72,90.07-84.72l-25.02-26.63s-64.94,66.06-67.67,63.63c-4.17-3.65-3.54-37.96-7.07-69.16-2.58-22.16-3.08-32.48-18.95-28.53Z"/>
    <path class="cls-12" d="M522.32,476.49s0,.17-.31.46l-.98,1.22c-.87,1.09-2.18,2.66-3.93,4.65-3.47,3.99-8.6,9.67-15.28,16.35-7.83,7.83-16.12,15.17-24.84,21.98-5.16,4.03-10.55,7.76-16.13,11.18-5.95,3.83-12.46,6.73-19.3,8.58-1.79.43-3.64.6-5.48.5-.94-.04-1.86-.21-2.75-.5-.86-.3-1.69-.67-2.49-1.11-3.11-1.69-5.84-4-8.01-6.79-3.96-5.3-6.85-11.32-8.49-17.73-1.55-5.73-2.68-11.57-3.36-17.46-.74-5.5-1.35-10.63-1.83-15.28-.98-9.41-1.4-17.05-1.53-22.33v-7.66c-.14-.04-.22-.18-.19-.32.04-.14.18-.22.32-.19s.22.18.19.32c-.02.09-.1.16-.19.19v1.59c0,1.46.15,3.49.28,6.07.26,5.26.79,12.88,1.86,22.24.55,4.67,1.2,9.8,1.99,15.28.72,5.84,1.87,11.62,3.43,17.29,1.63,6.26,4.46,12.15,8.34,17.33,4.1,5.06,10.54,9.74,17.64,7.49,6.71-1.83,13.11-4.66,18.97-8.4,5.55-3.38,10.91-7.08,16.04-11.07,8.73-6.79,17.05-14.07,24.93-21.83,6.75-6.55,11.96-12.16,15.52-16.07l4.08-4.5,1.07-1.16.44-.33Z"/>
    <path class="cls-12" d="M523.23,422.49c-.36.5-.75.96-1.18,1.4-.81.9-1.96,2.18-3.54,3.89-3.12,3.34-7.73,8.1-13.56,13.91s-12.88,12.66-20.85,20.19l-12.6,11.79c-4.48,4.04-8.95,8.27-14.01,12.36l-.83.68v-1.11c-.15-2.42-.31-5-.46-7.62-.76-13.64-1.53-26.65-2.18-38.49-.39-5.92-.46-11.55-1.05-16.74-.44-4.83-1.72-9.54-3.8-13.93-1.72-3.6-4.32-6.7-7.57-9.02-2.49-1.69-5.37-2.73-8.36-3.03-1.9-.2-3.82-.04-5.65.48-1.27.35-1.88.68-1.9.61.57-.36,1.19-.64,1.83-.83,1.85-.62,3.8-.86,5.74-.72,3.11.24,6.12,1.26,8.73,2.97,3.4,2.32,6.13,5.48,7.95,9.17,2.18,4.45,3.54,9.26,4.02,14.19.63,5.26.74,10.91,1.16,16.81.72,11.83,1.48,24.82,2.18,38.49.15,2.6.31,5.2.46,7.62l-.9-.44c4.89-3.95,9.47-8.25,13.93-12.25l12.64-11.72c8.01-7.49,15.11-14.28,21-20,5.89-5.72,10.59-10.41,13.8-13.67l3.69-3.73c.4-.46.83-.87,1.31-1.24Z"/>
    <path class="cls-12" d="M538.6,459.51c-1.46-1.06-2.8-2.28-3.99-3.65-2.36-2.36-5.54-5.65-9.04-9.34-3.49-3.69-6.55-7.09-8.73-9.58-1.27-1.26-2.42-2.63-3.43-4.1,1.46,1.07,2.8,2.29,3.99,3.65,2.34,2.34,5.54,5.65,9.02,9.34s6.55,7.07,8.73,9.58c1.29,1.25,2.44,2.62,3.45,4.1Z"/>
    <path class="cls-12" d="M451.22,501.05c.25-2.86.99-5.66,2.18-8.27.82-2.74,2.12-5.31,3.84-7.6-.69,2.75-1.62,5.43-2.77,8.01-.84,2.71-1.93,5.34-3.25,7.86Z"/>
    <path class="cls-12" d="M445.61,496.64c3.65-4.36,7.88-8.2,12.57-11.42-1.7,2.28-3.68,4.33-5.89,6.11-1.98,2.06-4.23,3.84-6.68,5.3Z"/>
    <path class="cls-12" d="M521.88,430.15c.11.13-.37.61-.26,1.46.04.44.3.83.7,1.03.45.27,1.01.27,1.46,0,.38-.35.55-.89.44-1.4-.1-.44-.42-.79-.85-.92-.79-.31-1.38,0-1.46-.11s.39-.85,1.66-.68c.76.14,1.39.67,1.66,1.4.31.94.02,1.97-.74,2.6-.79.59-1.85.63-2.69.11-.65-.43-1.02-1.17-.98-1.94.15-1.38,1.03-1.68,1.07-1.55Z"/>
    <g class="cls-16">
      <path class="cls-1" d="M450.43,538.97c29.98-6.35,54.74-27.37,65.86-55.93-19.89,20.8-40.32,42.02-65.99,55.03"/>
    </g>
    <g class="cls-16">
      <path class="cls-1" d="M453.2,417.82c3.54,14.83,7.08,29.64,10.63,44.44,1.32,4.23,1.77,8.69,1.33,13.1-.52,4.5-3.67,8.25-8.01,9.54l-4.37-66.65"/>
    </g>
    <path class="cls-8" d="M479.22,381.99c.26-6.55.61-12.33.61-12.33,0,0,14.47-1.83,15.11-16.61.63-14.78-.85-48.79-.85-48.79l-26.52-12.79-25.28,23.49.98,67.43c.65,9.78,9.01,17.24,18.8,16.79h0c9.3-.43,16.74-7.88,17.16-17.18Z"/>
    <path class="cls-12" d="M469.75,328.16c0,1.02-.83,1.86-1.86,1.86-1.02,0-1.86-.83-1.86-1.86,0-1.02.82-1.84,1.83-1.86,1.03,0,1.87.83,1.88,1.86Z"/>
    <path class="cls-12" d="M471.41,327.4c-.22.26-1.62-.9-3.58-.98s-3.47.94-3.67.65.13-.57.76-1.03c.86-.61,1.9-.91,2.95-.85,1.05.04,2.06.43,2.86,1.11.59.52.81.98.68,1.09Z"/>
    <path class="cls-12" d="M478.87,344.47c1.05-.32,2.14-.49,3.23-.5.5,0,.98-.13,1.07-.48.06-.56-.05-1.13-.31-1.64l-1.44-4.19c-1.35-3.55-2.41-7.2-3.19-10.91,1.59,3.45,2.92,7.01,3.99,10.65l1.38,4.21c.31.68.39,1.45.22,2.18-.13.38-.44.67-.83.76-.28.08-.58.11-.87.11-1.09.07-2.18,0-3.25-.2Z"/>
    <path class="cls-4" d="M479.84,369.66c-6.87-.18-13.53-2.36-19.17-6.29,0,0,4.52,10.78,18.93,9.91l.24-3.62Z"/>
    <path class="cls-11" d="M445.1,332.9c-2.69-2.95-6.88-.41-8.45,1.29-3.17,3.45-2.95,8.82.51,12,2.14,1.97,5.14,2.7,7.94,1.95"/>
    <path class="cls-3" d="M442.42,343.7c0,.15-.65.31-1.72,0-1.46-.34-2.66-1.39-3.19-2.79-.29-.82-.25-1.72.11-2.51.28-.61.74-1.13,1.31-1.48.96-.61,1.68-.52,1.7-.39s-.55.39-1.2,1.03c-.86.74-1.19,1.91-.85,2.99.44,1.09,1.31,1.96,2.4,2.4.85.39,1.46.61,1.44.76Z"/>
    <path class="cls-7" d="M440.5,346.63c-.9.17-1.49,1.05-1.31,1.95s1.05,1.49,1.95,1.31,1.49-1.05,1.31-1.95c-.13-.66-.65-1.18-1.31-1.31"/>
    <polygon class="cls-12" points="526.2 426.22 565.69 378.52 569.03 381.71 530 429.78 526.2 426.22"/>
    <path class="cls-8" d="M529.37,423.77s6.2-17.66,7.6-21.41c1.4-3.75,3.78-10.33,4.74-10.48s4.37.31.2,11.53c-4.17,11.22,5.54,4.17,5.54,4.17l8.58-9.82s8.6,22.92,4.37,29.88c-4.41,6.7-9.25,13.11-14.49,19.19l-18.88-20.24,2.36-2.82Z"/>
    <path class="cls-4" d="M476.1,346.24c-1.22.1-2.31.81-2.88,1.9-.53,1.1-.45,2.4.22,3.43.68,1.02,1.85,1.6,3.08,1.53.71-.03,1.39-.33,1.9-.83.75-.96.99-2.23.65-3.41-.11-.72-.43-1.4-.92-1.94-.5-.53-1.28-.71-1.96-.44"/>
    <path class="cls-12" d="M479.84,350.14c0,.31-2.18.74-4.63-.52s-3.41-3.36-3.12-3.49,1.51,1.42,3.65,2.49,4.1,1.27,4.1,1.53Z"/>
    <path class="cls-12" d="M490.75,328.05c.04,1.02-.76,1.88-1.79,1.92,0,0-.02,0-.02,0-1.03,0-1.87-.83-1.88-1.86-.11-1.02.62-1.93,1.64-2.05,1.02-.11,1.93.62,2.05,1.64.01.13.01.27,0,.4v-.07Z"/>
    <path class="cls-12" d="M492.54,327.2c-.24.26-1.62-.9-3.6-.98-1.99-.09-3.45.94-3.67.65s.13-.57.79-1.03c.85-.61,1.88-.91,2.93-.85,1.05.04,2.06.43,2.86,1.11.61.52.81.98.7,1.09Z"/>
    <path class="cls-12" d="M469.95,320.96c0,.33-1.88.22-4.02.63-2.14.41-3.8,1.18-3.97.92s1.35-1.57,3.75-2.03c2.4-.46,4.3.2,4.23.48Z"/>
    <path class="cls-9" d="M585.9,582.19c-21.76-12.83-49.5-8.9-66.84,9.47-11.41-18.13-35.36-23.58-53.49-12.18-1.93,1.22-3.76,2.6-5.45,4.14-2.18-16.11-9.8-31.94-22.92-41.48-13.12-9.54-31.94-11.88-45.84-3.47l-19.65,49.33,70.36,28.53,93.12,6.81,50.71-41.17Z"/>
    <path class="cls-2" d="M391.27,538.62c-.15-.22,1.83-2.18,6.4-4.04,6.63-2.59,13.83-3.35,20.85-2.18,4.93.73,9.71,2.24,14.17,4.48,5.16,2.65,9.82,6.19,13.75,10.46,8.98,10.07,14.68,22.63,16.35,36.02l-4.65-1.68c5.78-5.26,12.91-8.8,20.59-10.22,8.47-1.6,17.24-.45,25.02,3.27,7.19,3.44,13.25,8.86,17.46,15.63l-4.13-.41c7.17-7.39,16.23-12.67,26.2-15.28,7.74-1.99,15.83-2.25,23.69-.74,5.05.94,9.91,2.68,14.41,5.15,3.1,1.72,4.54,3.01,4.37,3.23s-1.88-.5-5.11-1.7c-4.58-1.73-9.35-2.92-14.21-3.54-7.38-.91-14.87-.28-22,1.83-9.03,2.73-17.17,7.79-23.62,14.67l-2.18,2.44-1.86-2.86c-3.8-5.82-9.17-10.45-15.48-13.36-6.73-3.16-14.29-4.12-21.59-2.73-6.64,1.23-12.81,4.25-17.86,8.73l-3.97,3.58-.68-5.28c-1.44-12.33-6.47-23.97-14.47-33.46-3.44-3.98-7.55-7.33-12.14-9.91-3.99-2.21-8.3-3.8-12.77-4.72-6.5-1.39-13.24-1.21-19.65.55-4.34,1.18-6.66,2.44-6.88,2.07Z"/>
    <path class="cls-12" d="M443.63,368.61c-8.37,1.21-16.13-4.59-17.35-12.95-.41-2.86-.5-3.27.68-5.91.28-.78,1.62-2.21,2.3-2.68,1.5-.87,3.02-1.59,4.43-.57l10.19,7.31"/>
    <path class="cls-15" d="M436.1,367.29c.04-.05-.65-.61-1.53-1.71-.51-.64-.96-1.34-1.33-2.07-.43-.9-.75-1.85-.96-2.83-.36-1.8-.33-3.66.09-5.45.33-1.37.69-2.18.63-2.21-.11.17-.21.36-.28.55-.23.52-.42,1.05-.57,1.6-.78,2.84-.48,5.86.86,8.49.39.75.86,1.45,1.4,2.1.21.25.42.49.66.71.17.18.35.34.54.49.15.13.31.24.49.33Z"/>
    <path class="cls-12" d="M436.21,308.85c2.89-7.16,8.51-12.99,14.98-17.2,3.47-2.25,7.33-4.13,11.45-4.5,4.13-.37,8.56.92,11.21,4.1l.72.8c-4.94,10.21-8.46,18.88-14.72,28.34-2.3,3.48-3.58,15.5-4.21,19.62-2.19,14.07-10.09,19.91-10.09,19.91-16.7-.44-12.24-43.92-9.35-51.08Z"/>
    <path class="cls-15" d="M434.86,346.67c.01-.06.01-.12,0-.18v-.53c-.03-.24-.03-.53-.03-.88l.02-1.21c.1-2.53.5-5.04,1.21-7.46,1.07-3.58,2.61-6.99,4.59-10.13,2.46-3.83,5.28-7.39,8.42-10.64,3.3-3.52,6.61-6.66,9.55-9.63,2.62-2.61,5.1-5.35,7.43-8.23,1.57-1.95,3-4.01,4.29-6.17.47-.77.78-1.37.99-1.79l.24-.48c.03-.05.05-.11.07-.17-.04.05-.08.1-.11.15-.06.12-.15.27-.26.46-.22.41-.58,1.01-1.04,1.76-1.32,2.13-2.77,4.16-4.35,6.09-2.36,2.85-4.85,5.58-7.48,8.17-2.94,2.96-6.26,6.11-9.57,9.63-3.16,3.26-5.98,6.84-8.44,10.69-1.98,3.17-3.52,6.61-4.56,10.23-.69,2.44-1.07,4.97-1.12,7.51,0,.45,0,.85.01,1.21s.04.64.06.87.03.4.04.54c0,.06,0,.12.02.18Z"/>
    <path class="cls-5" d="M436.03,314.03c.16-.55.38-1.07.64-1.58.35-.58.77-1.11,1.27-1.57.66-.61,1.39-1.13,2.18-1.57,1.7-1.01,3.95-1.84,6.31-2.97,2.36-1.13,4.96-2.45,7.58-3.98,4.49-2.61,8.78-5.58,12.81-8.88,1.55-1.27,2.76-2.34,3.58-3.1l.94-.89c.11-.1.22-.21.31-.33-.13.08-.25.17-.36.28l-.97.84c-.85.75-2.09,1.77-3.64,3.03-4.07,3.23-8.36,6.15-12.83,8.75-2.62,1.53-5.19,2.87-7.56,4-2.37,1.13-4.58,1.99-6.3,3.04-.78.45-1.51,1-2.17,1.63-.49.48-.91,1.03-1.25,1.64-.12.21-.22.44-.31.67-.07.17-.13.35-.17.53-.04.15-.07.3-.08.46Z"/>
    <path class="cls-5" d="M436.86,341.67c.04.22.11.43.19.63.13.41.35.98.64,1.69.75,1.85,1.68,3.6,2.79,5.23.62.89,1.31,1.73,2.05,2.5.61.63,1.27,1.21,1.96,1.73.46.36.94.69,1.44,1,.17.12.35.23.55.31.02-.04-.75-.52-1.89-1.46-.66-.55-1.3-1.13-1.9-1.76-.73-.78-1.4-1.61-2.01-2.49-1.1-1.62-2.05-3.34-2.83-5.14-.28-.66-.52-1.21-.71-1.65-.07-.21-.16-.41-.27-.59Z"/>
    <path class="cls-12" d="M473.69,289.44c27.23-3.1,23.63,37.86,23.63,37.86h0c-2.3-15.19-22.93-31.57-22.93-31.57l-4.26-.83,3.56-5.46Z"/>
    <path class="cls-5" d="M489.33,358.8l.2-.1.58-.33c.74-.43,1.45-.9,2.13-1.41,1.07-.81,2.08-1.7,3.01-2.66,1.24-1.27,2.34-2.67,3.29-4.16,2.49-3.88,3.98-8.27,4.34-12.8.38-5.56-.72-11.1-3.18-16.11-1.25-2.59-2.8-5.03-4.64-7.27-1.73-2.06-3.6-4-5.62-5.8-1.9-1.74-3.77-3.33-5.51-4.83s-3.31-2.93-4.71-4.27c-2.23-2.11-4.2-4.46-5.89-6.99-.28-.46-.56-.85-.76-1.21s-.36-.67-.5-.92l-.31-.56c-.03-.07-.07-.13-.12-.19.02.07.05.14.09.21l.28.57c.13.26.29.57.47.94s.46.77.74,1.24c1.66,2.58,3.62,4.96,5.85,7.09,1.4,1.36,2.95,2.8,4.7,4.31,1.75,1.5,3.58,3.12,5.48,4.84,1.99,1.8,3.86,3.73,5.57,5.79,1.82,2.23,3.36,4.66,4.59,7.23,2.42,4.96,3.5,10.44,3.13,15.94-.35,4.49-1.8,8.85-4.24,12.71-1.64,2.6-3.73,4.91-6.18,6.83-.89.66-1.58,1.15-2.09,1.45l-.58.36s-.1.08-.14.12Z"/>
  </g>
  <g id="freepik--speech-bubble--inject-13">
    <path class="cls-7" d="M365.23,251.8c1.41.8,2.59,1.95,3.43,3.34,2.57,3.69,3.73,8.18,3.27,12.66-.77,6.69-4.31,12.75-9.76,16.7-3.19,2.39-6.96,3.9-10.91,4.37-4.28.45-8.59-.4-12.38-2.44-3.81-1.99-6.94-5.07-8.99-8.84-1.85-3.54-2.68-7.52-2.38-11.5.23-3.57,1.3-7.03,3.12-10.11,1.57-2.67,3.66-4.99,6.16-6.83,3.55-2.65,7.71-4.36,12.09-4.98,1.58-.32,3.2-.32,4.78,0,0,.2-1.68.24-4.61.9-4.12.93-7.97,2.78-11.26,5.41-2.26,1.79-4.14,4.02-5.52,6.55-1.6,2.85-2.51,6.03-2.66,9.3-.23,3.58.53,7.15,2.18,10.33,3.87,6.83,11.36,10.79,19.19,10.13,3.57-.42,6.98-1.75,9.89-3.86,5.09-3.59,8.48-9.12,9.39-15.28.55-4.16-.3-8.39-2.42-12.01-1.44-2.55-2.75-3.67-2.6-3.82Z"/>
    <path class="cls-7" d="M344.69,237.59c.41-.76,4.67,2.07,9.43,6.09l1,.83-1,.87-.59.52c-4.98,4.37-9.34,7.44-9.76,6.99s3.3-4.37,8.27-8.73l.59-.5v1.7c-2.95-2.26-5.62-4.87-7.95-7.77Z"/>
    <path class="cls-12" d="M408.13,315.5s-.61-.11-1.92-.41l-5.92-1.38c-5.2-1.2-13.1-2.97-22.88-5.39h.5c-7.95,5.11-17.16,7.92-26.61,8.1-5.6.05-11.17-.76-16.52-2.38-5.85-1.84-11.33-4.72-16.15-8.51-10.87-8.43-17.93-20.83-19.65-34.47-.89-7.33-.24-14.77,1.92-21.83,2.31-7.3,6.19-14.01,11.37-19.65,19.25-21.06,51.94-22.53,73-3.27,10.72,9.8,16.82,23.67,16.81,38.2.02,9.42-2.57,18.66-7.49,26.7v-.63c4.48,8.08,7.86,14.45,10.11,18.69,1.11,2.05,1.96,3.65,2.55,4.76.3.51.57,1.03.81,1.57,0,0-.41-.63-1.07-1.75s-1.66-2.75-2.9-4.82c-2.51-4.21-6.13-10.17-10.57-17.83l-.17-.31.17-.31c14.06-23.75,6.2-54.4-17.55-68.45-6.76-4-14.36-6.35-22.2-6.86-15.01-1-29.66,4.87-39.82,15.96-18.59,20.22-17.27,51.67,2.95,70.26.94.86,1.91,1.69,2.9,2.47,4.62,3.67,9.86,6.49,15.48,8.32,5.16,1.6,10.53,2.43,15.94,2.44,9.17-.08,18.15-2.67,25.96-7.49l.24-.15h.26c9.43,2.49,16.9,4.63,22.16,6.09l6.05,1.68c1.44.39,2.2.61,2.25.65Z"/>
  </g>
  <g id="freepik--Arrows--inject-13">
    <path class="cls-12" d="M307.58,771.76c-1.12-.16-2.23-.43-3.3-.81-1.09-.33-2.42-.68-3.97-1.18l-5.33-1.88c-11.25-4.22-22.1-9.43-32.42-15.59-6.55-3.86-13.53-8.43-20.78-13.64-7.25-5.22-14.73-11.22-22.22-17.94-7.84-7.02-15.31-14.44-22.4-22.22-7.56-8.39-14.66-17.18-21.28-26.33-6.56-9.21-12.63-18.76-18.16-28.62-5.08-9.21-9.68-18.68-13.77-28.38-11.56-27.54-18.58-56.77-20.78-86.55-.17-4.21-.31-7.49-.39-9.78-.09-1.13-.09-2.27,0-3.41.26,1.11.42,2.24.46,3.38.17,2.29.46,5.54.81,9.71,1.24,11.88,3.13,23.69,5.68,35.36,3.8,17.29,9.22,34.19,16.18,50.47,4.15,9.57,8.78,18.93,13.88,28.03,11,19.58,24.13,37.89,39.16,54.57,7.29,8.08,14.76,15.43,22.14,22.16s14.84,12.62,21.94,17.97,14.04,9.87,20.5,13.77c10.17,6.24,20.84,11.65,31.89,16.15l5.24,2.07,3.89,1.38c1.05.35,2.07.78,3.06,1.29Z"/>
    <path class="cls-12" d="M288.72,776.74c0-.61,9.63-2.66,21.83-4.58l-.7,1.83-.39-.48c-7.97-9.82-14.06-18.12-13.56-18.51s7.33,7.25,15.28,17.09l.37.46,1.27,1.55-1.96.28c-12.16,1.92-22.05,2.95-22.14,2.36Z"/>
    <path class="cls-12" d="M816.36,394.5s.17.31.39.94.5,1.62.9,2.82.85,2.79,1.35,4.63.98,3.99,1.55,6.4c3.01,13.64,4.81,27.52,5.37,41.48.41,8.86.37,18.58,0,28.99s-1.57,21.5-3.36,33.09c-1.79,11.59-4.21,23.64-7.42,36-3.4,12.72-7.46,25.25-12.16,37.55-4.8,12.26-10.25,24.25-16.33,35.93-3.08,5.59-6,11.13-9.26,16.35s-6.44,10.28-9.67,15.17c-11.61,17.25-24.88,33.34-39.6,48.02-9.92,9.86-20.45,19.07-31.54,27.59l-9.26,6.55-2.44,1.68c-.57.37-.85.55-.87.5.21-.27.46-.5.74-.7l2.29-1.86,8.99-6.96c10.83-8.76,21.17-18.12,30.95-28.03,14.46-14.76,27.52-30.84,39.01-48.02,3.19-4.89,6.55-9.85,9.54-15.15s6.09-10.7,9.12-16.24c6-11.57,11.38-23.44,16.11-35.58,4.67-12.21,8.71-24.66,12.12-37.28,3.23-12.27,5.63-24.25,7.51-35.76,1.88-11.5,2.86-22.53,3.56-32.88s.68-20,.35-28.81c-.4-13.93-1.94-27.8-4.61-41.48-.5-2.42-.96-4.56-1.35-6.42s-.83-3.38-1.14-4.67-.52-2.18-.68-2.88c-.09-.31-.15-.63-.17-.96Z"/>
    <path class="cls-12" d="M833.23,409.76c-.46.41-8.58-7.84-18.27-18.56l1.92-.41-.22.65c-4.5,14.06-8.73,25.3-9.26,25.1s2.58-11.72,7.09-25.78l.22-.68.61-1.88,1.31,1.46c9.67,10.74,17.05,19.67,16.59,20.08Z"/>
    <path class="cls-12" d="M661.63,165.07c-.39-.2-.77-.43-1.11-.7l-3.03-2.23-4.96-3.71c-1.96-1.46-4.37-2.88-7.05-4.65-15.16-9.56-31.25-17.56-48.02-23.88-10.61-4.02-22.42-8.01-35.3-11.57-6.44-1.75-13.1-3.49-20.08-5-3.47-.79-7.01-1.53-10.59-2.18-1.79-.35-3.6-.68-5.41-.96l-5.57-.7c-32.26-4.67-65.02-4.67-97.27,0-32.32,4.62-63.87,13.52-93.84,26.46-24.48,10.56-47.69,23.83-69.2,39.58l-6.55,5c-2.18,1.62-4.37,3.14-6.22,4.87l-10.91,9.39-2.53,2.18-2.29,2.18-4.37,4.21-7.57,7.4-9.8,10.91-2.6,2.82c-.28.33-.6.63-.94.9.21-.38.47-.73.76-1.05l2.42-2.95,9.5-11.2,7.47-7.55,4.37-4.37,2.18-2.18,2.51-2.18,10.91-9.56c1.9-1.77,4.04-3.32,6.18-4.96,2.14-1.64,4.37-3.34,6.55-5.09,21.47-15.98,44.7-29.44,69.24-40.12,30.06-13.12,61.75-22.14,94.22-26.81,32.46-4.76,65.44-4.76,97.91,0l5.59.72c1.83.31,3.67.63,5.48,1,3.6.7,7.16,1.46,10.63,2.18,6.99,1.57,13.69,3.34,20.15,5.15,12.92,3.65,24.75,7.75,35.39,11.88,16.85,6.47,32.95,14.73,48.02,24.65,2.62,1.83,5.04,3.32,6.96,4.85l4.85,3.89,2.95,2.42c.37.29.7.61,1,.96Z"/>
    <path class="cls-12" d="M207.1,202.64c.61,0-.41,11.64-2.34,25.96l-1.55-1.2.63-.26c13.64-5.65,24.91-9.76,25.15-9.19s-10.63,5.63-24.27,11.29l-.63.26-1.83.76.26-1.96c1.94-14.32,3.97-25.72,4.58-25.65Z"/>
  </g>
</svg>