<?xml version="1.0" encoding="UTF-8"?>
<svg id="Layer_2" data-name="Layer 2" xmlns="http://www.w3.org/2000/svg" viewBox="0 0 1000 1000">
  <defs>
    <style>
      .cls-1 {
        fill: #ff9a6c;
      }

      .cls-1, .cls-2, .cls-3, .cls-4, .cls-5, .cls-6, .cls-7, .cls-8, .cls-9, .cls-10, .cls-11, .cls-12, .cls-13, .cls-14 {
        stroke-width: 0px;
      }

      .cls-2 {
        fill: #000;
      }

      .cls-3 {
        fill: #e0e0e0;
      }

      .cls-4 {
        fill: #eb996e;
      }

      .cls-5 {
        fill: #455a64;
      }

      .cls-6 {
        fill: #f5f5f5;
      }

      .cls-7 {
        fill: #09f;
      }

      .cls-8 {
        fill: #ffbe9d;
      }

      .cls-9 {
        fill: #ebebeb;
      }

      .cls-10 {
        isolation: isolate;
        opacity: .5;
      }

      .cls-10, .cls-14 {
        fill: #fff;
      }

      .cls-11 {
        fill: #263238;
      }

      .cls-12 {
        fill: #ffbf9d;
      }

      .cls-13 {
        fill: #fafafa;
      }

      .cls-15 {
        opacity: .3;
      }

      .cls-16 {
        opacity: .4;
      }
    </style>
  </defs>
  <g id="freepik--background-complete--inject-7">
    <rect class="cls-6" x="300.19" y="66.33" width="631.8" height="355.76" rx="25.19" ry="25.19"/>
    <path class="cls-3" d="M906.81,424.41H325.42c-15.18.01-27.51-12.26-27.56-27.44V91.51c.01-15.19,12.32-27.5,27.51-27.51h581.38c15.22-.05,27.6,12.24,27.65,27.46,0,.02,0,.03,0,.05v305.46c-.06,15.19-12.41,27.47-27.6,27.44ZM325.42,68.6c-12.62.01-22.85,10.24-22.86,22.86v305.51c.01,12.62,10.24,22.85,22.86,22.86h581.38c12.64.04,22.91-10.18,22.95-22.81,0-.02,0-.03,0-.05V91.51c-.01-12.62-10.24-22.85-22.86-22.86l-581.48-.05Z"/>
    <path class="cls-3" d="M298.63,284.6h100v51.91h91.11v60.88h309.3v-96.51h63.84v-125.72h67.58v211.62c0,19.19-15.56,34.74-34.74,34.74H336.47c-20.88.01-37.82-16.91-37.84-37.79v-99.14Z"/>
    <path class="cls-9" d="M334.42,472.13c0,3.58-.81,64.21-2.16,166.95v.19H33.31v-208.51h166.42v.16c.55,5.75,2.57,11.26,5.88,16,3.11,4.53,7.01,8.47,11.51,11.63,8.38,5.53,17.94,9.05,27.91,10.28,8.67,1.14,17.4,1.74,26.14,1.79l22.07.53,41.09,1.02-41.07-.79-22.02-.49c-8.75-.03-17.49-.61-26.16-1.74-10.04-1.21-19.65-4.73-28.09-10.3-4.54-3.15-8.48-7.08-11.63-11.63-3.36-4.82-5.41-10.43-5.95-16.28l.19.16H33.54l.23-.23v208.11l-.23-.26,298.55.09-.19.19c1.56-102.67,2.51-163.3,2.51-166.88Z"/>
    <path class="cls-3" d="M523.51,914.15v-48.25c0-30.88-.14-75.42-.26-130.07l.47.47-304.41.14h0l.6-.6v178.37l-.56-.56,219,.26,62.79.16h22.58-22.33l-62.79.14-219.37.28h-.58v-179.53h.63l304.41.14h.49v.47c0,54.77-.21,99.39-.26,130.37,0,15.42,0,27.42-.12,35.6v9.3c0,2.16-.3,3.33-.3,3.33Z"/>
    <path class="cls-3" d="M509.98,746.57c0,.19-1.42.23-2.33,1.93-.57.92-.69,2.05-.33,3.07.89,1.61,2.92,2.18,4.52,1.29.64-.35,1.14-.91,1.43-1.57.25-1.05.02-2.16-.63-3.02-.66-.82-1.57-1.41-2.58-1.7,0,0,.33-.21.95-.14.91.14,1.73.6,2.33,1.3.95,1.04,1.33,2.48,1.02,3.86-.79,2.27-3.26,3.47-5.53,2.69-1.13-.39-2.04-1.23-2.54-2.31-.43-1.34-.19-2.8.65-3.93.52-.75,1.28-1.28,2.16-1.51.51-.14.86-.02.86.05Z"/>
    <path class="cls-3" d="M232.1,746.57c0,.19-1.42.23-2.33,1.93-.57.92-.69,2.05-.33,3.07.55,1.17,1.78,1.86,3.07,1.72,1.29.03,2.46-.78,2.88-2,.26-1.05.03-2.16-.63-3.02-.66-.82-1.56-1.42-2.58-1.7,0,0,.33-.21.95-.14.91.14,1.73.6,2.33,1.3.95,1.04,1.34,2.48,1.05,3.86-.8,2.28-3.3,3.47-5.58,2.66-1.11-.39-2.02-1.22-2.51-2.29-.43-1.34-.19-2.8.65-3.93.52-.75,1.3-1.29,2.19-1.51.49-.14.84-.02.84.05Z"/>
    <path class="cls-3" d="M510.33,897.66c0,.21-1.42.26-2.33,1.95-.57.92-.69,2.05-.33,3.07.55,1.17,1.78,1.86,3.07,1.72,1.29,0,2.44-.8,2.88-2,.25-1.05.02-2.16-.63-3.02-1.16-1.6-2.63-1.51-2.58-1.72s.33-.21.95-.14c.91.16,1.73.63,2.33,1.33.94,1.04,1.32,2.47,1.02,3.84-.78,2.27-3.25,3.48-5.52,2.7-1.13-.39-2.05-1.22-2.55-2.31-.43-1.34-.19-2.8.65-3.93.52-.75,1.28-1.29,2.16-1.53.51-.12.86,0,.86.05Z"/>
    <path class="cls-3" d="M550.49,746.57c0,.19-1.42.23-2.33,1.93-.56.92-.69,2.04-.35,3.07.88,1.61,2.9,2.21,4.51,1.33.66-.36,1.17-.92,1.47-1.61.25-1.05.02-2.16-.63-3.02-.67-.83-1.58-1.42-2.6-1.7,0,0,.33-.21.98-.14.9.15,1.73.61,2.33,1.3.94,1.05,1.32,2.48,1.02,3.86-.79,2.27-3.26,3.47-5.53,2.69-1.13-.39-2.04-1.23-2.54-2.31-.44-1.34-.2-2.81.65-3.93.51-.75,1.28-1.29,2.16-1.51.53-.14.86-.02.86.05Z"/>
    <path class="cls-3" d="M550.84,897.66c0,.21-1.42.26-2.33,1.95-.54.93-.66,2.05-.33,3.07.55,1.17,1.78,1.86,3.07,1.72,1.29.01,2.46-.79,2.91-2,.25-1.05.02-2.16-.63-3.02-1.16-1.6-2.63-1.51-2.6-1.72s.33-.21.95-.14c.91.15,1.73.62,2.33,1.33.95,1.03,1.34,2.46,1.05,3.84-.8,2.28-3.29,3.48-5.57,2.68-1.12-.39-2.03-1.22-2.52-2.29-.42-1.34-.17-2.81.67-3.93.52-.75,1.28-1.3,2.16-1.53.49-.12.84,0,.84.05Z"/>
    <path class="cls-3" d="M652.3,746.57c0,.19-1.42.23-2.33,1.93-.56.92-.69,2.04-.35,3.07.88,1.61,2.9,2.21,4.51,1.33.66-.36,1.17-.92,1.47-1.61.25-1.05.02-2.16-.63-3.02-.67-.83-1.58-1.42-2.6-1.7,0,0,.33-.21.98-.14.91.14,1.73.61,2.33,1.3.94,1.05,1.32,2.48,1.02,3.86-.79,2.27-3.26,3.47-5.53,2.69-1.13-.39-2.04-1.23-2.54-2.31-.43-1.34-.19-2.8.65-3.93.51-.75,1.28-1.29,2.16-1.51.53-.14.88-.02.86.05Z"/>
    <path class="cls-3" d="M652.65,897.66c0,.21-1.42.26-2.33,1.95-.56.92-.69,2.04-.35,3.07.88,1.61,2.9,2.21,4.51,1.33.66-.36,1.17-.92,1.47-1.61.29-1.08.06-2.23-.6-3.12-1.16-1.6-2.63-1.51-2.6-1.72s.33-.21.98-.14c.9.16,1.73.63,2.33,1.33.93,1.04,1.31,2.47,1.02,3.84-.78,2.27-3.25,3.48-5.52,2.7-1.13-.39-2.05-1.22-2.55-2.31-.44-1.34-.2-2.81.65-3.93.52-.75,1.28-1.3,2.16-1.53.51-.02.84.09.84.14Z"/>
    <path class="cls-3" d="M231.75,897.66c0,.21-1.42.26-2.33,1.95-.57.92-.69,2.05-.33,3.07.89,1.61,2.92,2.18,4.52,1.29.64-.35,1.14-.91,1.43-1.57.3-1.08.06-2.24-.63-3.12-1.16-1.6-2.63-1.51-2.6-1.72s.33-.21.95-.14c.91.15,1.73.62,2.33,1.33.95,1.03,1.34,2.46,1.05,3.84-.8,2.28-3.29,3.48-5.57,2.68-1.12-.39-2.03-1.22-2.52-2.29-.42-1.34-.18-2.8.65-3.93.53-.75,1.3-1.29,2.19-1.53.51-.02.86.09.86.14Z"/>
    <path class="cls-3" d="M621.35,914.15v-13.37c0-8.65,0-21.21-.16-37,0-31.58-.16-76.09-.26-127.9l.56.56h-86.35l.6-.6c0,68.98-.12,131.79-.16,178.37l-.44-.44,63.02.23,17.26.12h6.07-5.91l-17.14.12-63.3.23h-.44v-.44c0-46.51-.12-109.3-.16-178.37v-.6h87.53v.58c-.12,52.07-.21,96.7-.28,128.39,0,15.72-.12,28.23-.16,36.86v12.28c-.06.34-.16.68-.28,1Z"/>
    <path class="cls-3" d="M619.37,821.89c0,.35-18.35.6-40.93.6s-40.95-.26-40.95-.6,18.33-.6,40.95-.6,40.93.28,40.93.6Z"/>
    <path class="cls-3" d="M886.16,914.15v-12.74c0-8.3,0-20.44-.12-35.98,0-31.02-.16-75.56-.26-129.65l.49.49-250.69.12h0l.6-.6v178.37l-.56-.56,180.74.28,51.51.14h18.46-18.23l-51.37.16-181.11.28h-.56v-179.53h.63l250.69.12h.49v.49c0,54.21-.21,98.86-.26,129.97,0,15.46,0,27.58-.14,35.86v9.3c0,2.09-.33,3.49-.33,3.49Z"/>
    <path class="cls-3" d="M40.38,110.07v273.97h203.88V110.02s-203.88,2.26-203.88.05Z"/>
    <polygon class="cls-9" points="40.38 110.65 40.38 153.25 244.33 154.51 244.33 110.07 40.38 110.65"/>
    <path class="cls-14" d="M114.15,129.67v8.35h65.3v-7.23s-63.63-1.12-65.3-1.12Z"/>
    <rect class="cls-13" x="51.75" y="172.88" width="63.84" height="68.46"/>
    <path class="cls-13" d="M106.68,313.04h40.58l-.19.19v-94.14h58.93l-.19.19c.21-12.7.37-23.05.49-30.23,0-3.51,0-6.28.16-8.28.16-2,0-2.91,0-2.91v11.19c0,7.28-.19,17.63-.33,30.23v.19h-58.88l.26-.26v94.04h-37.95l-2.88-.21Z"/>
    <path class="cls-9" d="M226.87,333.32h-67.56v-99.46h40.49l-.19.21v-63.07,63.28h-40.46l.23-.23v99.23l-.21-.21h62.51l5.19.26Z"/>
    <polygon class="cls-13" points="52.17 256.3 52.17 262.72 103.82 262.72 103.82 255.02 52.17 256.3"/>
    <polygon class="cls-13" points="51.75 267.48 51.75 273.93 103.4 273.93 103.4 266.21 51.75 267.48"/>
    <path class="cls-9" d="M964.64,639.08c0-3.47,0-62.79-.19-163.65l.19.19h-356.25l.26-.23v163.65l-.23-.23,356.27.23-356.27.23h-.23v-164.07h356.67v.19c-.07,100.81-.21,160.23-.21,163.69Z"/>
  </g>
  <g id="freepik--Floor--inject-7">
    <path class="cls-11" d="M966.69,934.4c0,.33-208.14.6-464.8.6s-464.85-.28-464.85-.6,208.09-.6,464.85-.6,464.8.37,464.8.6Z"/>
  </g>
  <g id="freepik--Bench--inject-7">
    <rect class="cls-11" x="178.08" y="686.15" width="19.84" height="248.23"/>
    <rect class="cls-11" x="799.16" y="686.15" width="19.84" height="248.25"/>
    <rect class="cls-5" x="157.01" y="657.27" width="692.87" height="31.42" rx="13.81" ry="13.81"/>
  </g>
  <g id="freepik--Shield--inject-7">
    <path class="cls-7" d="M656.86,130.7l-78.72-28.26-77.93,27.91c-9.95,4.65-18.6,7.51-18.6,16.77v46.14c-.17,32.4,8.69,64.21,25.58,91.86,16.88,27.94,41.91,50.05,71.72,63.35,31.86-10.35,55.65-37.95,70.18-61.53,16.93-27.64,25.83-59.45,25.7-91.86v-41.51c0-13.23-7.02-19.67-17.93-22.86Z"/>
    <g class="cls-15">
      <path class="cls-2" d="M578.91,321.67c-23.62-10.67-43.41-28.29-56.74-50.51-13.38-21.88-20.41-47.05-20.3-72.7v-32.37c0-7.33,4.42-14.21,13.21-18.3l63.09-23.58v-21.77l-77.93,27.91c-8.19,3.56-18.6,7.51-18.6,16.77v46.14c-.17,32.4,8.69,64.21,25.58,91.86,16.88,27.94,41.91,50.05,71.72,63.35l-.02-26.79Z"/>
    </g>
    <g class="cls-16">
      <path class="cls-2" d="M578.91,348.46c5.34-1.75,10.52-3.97,15.46-6.63,12.14-6.88,23.17-15.56,32.72-25.74,8.68-9.34,16.31-19.59,22.77-30.58,17.16-27.83,25.82-60.06,24.93-92.74v-38.12c0-18.98-9.79-20.37-17.98-23.95l-78.67-28.26v21.77l63.86,23.93c8.79,4.12,13.21,10.98,13.21,18.33v32.37c.11,25.64-6.93,50.81-20.33,72.67-13.02,22.1-32.58,39.62-55.98,50.14v26.81Z"/>
    </g>
    <path class="cls-10" d="M599.02,196.39v-6.23c-.38-11.28-9.84-20.12-21.12-19.74-10.75.36-19.38,8.99-19.74,19.74v6.35c-5.61.83-9.76,5.64-9.77,11.3v36.74c.01,6.31,5.13,11.42,11.44,11.42h38.14c6.31.01,11.43-5.09,11.44-11.4v-36.77c.01-5.92-4.5-10.88-10.4-11.42ZM584.14,235.37h-9.98l1.56-7.19c-2.82-1.82-3.63-5.57-1.81-8.39,1.82-2.82,5.57-3.63,8.39-1.81,2.82,1.82,3.63,5.57,1.81,8.39-.47.72-1.08,1.34-1.81,1.81l1.84,7.19ZM594.63,196.35h-32.07v-6.19c.34-8.86,7.79-15.76,16.65-15.42,8.38.32,15.1,7.04,15.42,15.42v6.19Z"/>
    <path class="cls-14" d="M514.6,195.95c-.66-2.07-1.06-4.22-1.16-6.4-.6-5.2-.82-10.44-.65-15.67,0-3.07.3-5.98.58-8.63.11-2.42.7-4.79,1.74-6.98.76-1.49,1.96-2.7,3.44-3.47,1.07-.51,1.74-.49,1.74-.4-1.9.88-3.42,2.4-4.3,4.3-.86,2.11-1.32,4.35-1.37,6.63-.21,2.63-.37,5.51-.47,8.56-.16,6.07,0,11.63.23,15.53.26,2.16.33,4.34.21,6.51Z"/>
    <path class="cls-14" d="M515.81,216.04c-.37,0-.72-1.88-.77-4.23s.23-4.26.6-4.28c.37-.02.72,1.91.77,4.26s-.28,4.26-.6,4.26Z"/>
    <path class="cls-7" d="M683.58,107.35c2.13.51,4.21,1.19,6.23,2.02,2.47.99,4.81,2.27,6.98,3.81,3.06,2.09,5.59,4.86,7.4,8.09,2.18,4.11,3.34,8.68,3.4,13.33v16.49c0,11.84.12,25.37,0,40.46-.22,16.59-2.36,33.09-6.37,49.19-4.72,18.74-12,36.74-21.65,53.49-10.8,18.75-24.18,35.88-39.74,50.91-16.28,15.56-36.37,29.33-59.84,36.63h-.42c-8.22-3.51-16.24-7.47-24.02-11.86-7.96-4.61-15.63-9.72-22.95-15.28-15.12-11.57-28.58-25.16-40-40.39-24.7-32.56-39.4-71.6-42.3-112.37-.74-9.65-.53-19.19-.56-28.56v-41.21c-.07-2.24,0-4.49.23-6.72.34-2.27,1.27-4.41,2.7-6.21,2.93-3.31,6.56-5.91,10.63-7.63,3.88-1.84,7.79-3.44,11.63-5.14h0l103.7-34.88h.26l76.93,26.3,20.53,6.98,5.28,1.84,1.79.67s-.63-.16-1.81-.56l-5.33-1.74-20.6-6.98-76.86-25.84h.26l-103.6,35.19h0c-3.81,1.7-7.74,3.3-11.63,5.14-3.92,1.65-7.43,4.17-10.26,7.35-1.31,1.65-2.16,3.63-2.47,5.72-.21,2.17-.28,4.35-.21,6.53v41.09c0,9.35-.16,18.88.58,28.46,2.9,40.54,17.52,79.37,42.09,111.74,11.36,15.15,24.75,28.66,39.79,40.16,7.28,5.53,14.9,10.61,22.81,15.19,7.77,4.42,15.79,8.4,24,11.93h-.4c23.26-7.21,43.14-20.93,59.42-36.32,15.52-14.93,28.86-31.97,39.65-50.6,9.6-16.63,16.89-34.49,21.65-53.09,4.04-16.02,6.22-32.46,6.49-48.98,0-15.07,0-28.63.14-40.46v-16.46c0-4.58-1.12-9.1-3.23-13.16-1.75-3.19-4.21-5.94-7.19-8.05-2.17-1.55-4.51-2.84-6.98-3.86-1.52-.64-3.07-1.2-4.65-1.67l-1.49-.67Z"/>
  </g>
  <g id="freepik--Character--inject-7">
    <path class="cls-7" d="M438.61,474.67l5.79,109.3,145.49,3.33-10.77-84.93,11.12-86.79c-7.3-40.65-64.3-43.46-64.3-43.46l-44.72-.72c-15.31-1.11-30.61,2.29-44.02,9.77,0,0-45.39,24.72-45,87.53"/>
    <path class="cls-11" d="M526.37,370.85c-1,3.08-2.31,6.04-3.93,8.84-4.42,6.48-11.76,10.34-19.6,10.3-7.85.15-15.25-3.67-19.67-10.16-1.25-2-2.19-4.18-2.79-6.46-.17-.86-.42-1.7-.77-2.51-.07.89.01,1.79.23,2.65.43,2.4,1.28,4.71,2.51,6.81,1.85,3.17,4.51,5.79,7.7,7.6,3.87,2.29,8.29,3.49,12.79,3.47,4.5.01,8.91-1.22,12.74-3.56,3.14-1.88,5.78-4.49,7.7-7.6,1.25-2.09,2.17-4.37,2.72-6.74.28-.85.41-1.74.37-2.63Z"/>
    <path class="cls-8" d="M560.56,407.44c-14.03,11.19-22.51,27.91-23.26,45.84-1.12,27.77-2.84,66.32-3.86,68.25-3.19,5.95-87.35.88-96.21.26l-10.7-3.3s-19.67-17.02-23.26-11.91c-3.58,5.12,10.33,8.4,13.02,18.44s-25.26,2.19-27.07.95l-7.21-2.05s4.28,13.72,7.93,18.07c11.63,13.95,38.35,20.93,38.35,20.93,0,0,109,35.42,153.02,6.19,14.4-9.56,16.84-103.25,11.4-139.53-2.16-14.31-14.55-24.84-29.02-24.65l-3.14,2.51Z"/>
    <path class="cls-4" d="M398.86,539.39c-2.12-1.32-4.34-2.47-6.63-3.47-2.15-1.25-4.39-2.36-6.7-3.3,1.88,1.67,4.02,3.04,6.33,4.05,2.18,1.26,4.54,2.18,7,2.72Z"/>
    <path class="cls-7" d="M578.6,394.34c13.42,12.84,26.42,38.6,21.6,90.16l-71.51-2.95,1.84-70.56c.21-7.16,3.63-13.84,9.3-18.21h0c11.55-9.09,27.99-8.43,38.77,1.56Z"/>
    <path class="cls-7" d="M436.09,920.22l-1.91-27.05,50.63-3.93,3.23,39.53-3.12.44c-13.95,1.86-70.88,8.49-80.44,6.37-10.65-2.35,31.6-15.37,31.6-15.37Z"/>
    <g class="cls-15">
      <path class="cls-14" d="M469.65,929.8c.42-4.33,2.42-8.36,5.63-11.3,3.15-2.96,7.3-4.62,11.63-4.65l1.12,14.14-18.37,1.81Z"/>
    </g>
    <g class="cls-15">
      <path class="cls-14" d="M415.51,927.33s-14.74,5.51-12.67,7.86,59.88-2.19,85.21-6.42l-.16-1.12-67.44,5.84s-1.98-6.3-4.93-6.16Z"/>
    </g>
    <path class="cls-11" d="M488.67,927.56l-.86.16-2.49.35-9.19,1.12c-7.74.88-18.46,1.95-30.23,2.91s-22.65,1.53-30.44,1.88l-9.3.33h-2.51c-.29.04-.59.04-.88,0h.88l2.51-.16,9.3-.53c7.79-.44,18.6-1.12,30.42-2.07,11.81-.95,22.58-1.95,30.23-2.72l9.3-.93,2.49-.23c.25-.06.51-.09.77-.09Z"/>
    <path class="cls-11" d="M420.47,934.29c-.85-3.09-2.79-5.76-5.47-7.53,1.62.45,3.01,1.49,3.91,2.91,1.08,1.29,1.64,2.94,1.56,4.63Z"/>
    <path class="cls-11" d="M434.91,925.54c-.14,0-.91-.72-1.74-1.81s-1.4-2.09-1.26-2.19.93.7,1.74,1.81,1.4,2.07,1.26,2.19Z"/>
    <path class="cls-11" d="M438.84,923.05c0,.14-.93-.35-1.86-1.05s-1.63-1.42-1.51-1.56.95.35,1.88,1.07,1.72,1.4,1.49,1.53Z"/>
    <path class="cls-11" d="M441.07,918.08c-.83.36-1.72.54-2.63.53-.88.2-1.79.2-2.67,0,.82-.37,1.72-.56,2.63-.53.88-.22,1.8-.22,2.67,0Z"/>
    <path class="cls-11" d="M441.7,914.63c-.83.63-1.84,1.01-2.88,1.07-1.02.27-2.1.21-3.09-.16.99-.23,1.99-.38,3-.44.98-.24,1.97-.4,2.98-.47Z"/>
    <path class="cls-11" d="M432.86,921.26c-1.07.26-2.17.33-3.26.23-1.19-.05-2.38-.22-3.53-.51-.71-.13-1.39-.35-2.05-.65-.4-.2-.72-.54-.88-.95-.14-.48.02-1,.4-1.33,2.46-1.46,5.61-.97,7.51,1.16.55.6.97,1.32,1.23,2.09.11.27.16.57.16.86-.41-.97-.99-1.87-1.7-2.65-.8-.8-1.82-1.35-2.93-1.58-1.31-.34-2.7-.14-3.86.56-.49.42-.23,1.02.37,1.3.6.28,1.24.5,1.88.65,1.12.29,2.26.49,3.42.6,1.98.19,3.21.09,3.23.21Z"/>
    <path class="cls-11" d="M432.09,921.47c-.48-.67-.68-1.51-.56-2.33.04-.86.28-1.71.7-2.47.49-1.02,1.46-1.72,2.58-1.86.69.07,1.19.69,1.12,1.38,0,.01,0,.03,0,.04-.03.52-.17,1.03-.42,1.49-.37.76-.84,1.46-1.4,2.09-.93,1.09-1.72,1.53-1.77,1.47s.6-.63,1.42-1.72c.48-.64.9-1.34,1.23-2.07.37-.72.58-1.98-.23-2.07s-1.58.86-2.05,1.56c-.4.67-.66,1.41-.74,2.19-.04.77,0,1.54.12,2.3Z"/>
    <path class="cls-11" d="M486.56,913.77s-1.47,0-3.72.44c-6.05,1.14-10.9,5.67-12.44,11.63-.6,2.33-.56,3.7-.67,3.7-.07-.34-.07-.69,0-1.02.02-.94.14-1.88.35-2.79,1.37-6.24,6.45-10.98,12.77-11.93.92-.14,1.86-.19,2.79-.14.31,0,.63.04.93.12Z"/>
    <path class="cls-11" d="M479.65,893.12c.64,3.43,1.06,6.89,1.26,10.37.42,3.46.64,6.94.65,10.42-.64-3.43-1.06-6.89-1.26-10.37-.42-3.46-.64-6.94-.65-10.42Z"/>
    <path class="cls-11" d="M462.91,925.36c-4.81,1.33-9.82,1.77-14.79,1.3,0-.19,3.33-.23,7.4-.6s7.35-.86,7.4-.7Z"/>
    <path class="cls-11" d="M472.81,924.56c.14.12-.21.72-.49,1.51s-.4,1.49-.58,1.49-.33-.79,0-1.7c.33-.91.95-1.4,1.07-1.3Z"/>
    <path class="cls-11" d="M476.28,919.63c.12,0-.16.65-.65,1.23s-.98.93-1.09.84.14-.67.63-1.23.91-.95,1.12-.84Z"/>
    <path class="cls-11" d="M481.4,917.08c0,.19-.7.23-1.42.56s-1.23.74-1.37.65.21-.84,1.12-1.23,1.7-.14,1.67.02Z"/>
    <path class="cls-11" d="M485.12,915.77c0,.16-.19.44-.6.63s-.79.23-.86,0,.19-.44.6-.63.79-.21.86,0Z"/>
    <path class="cls-7" d="M280.47,921.5l.67-27.09,50.79.95-.58,39.65-3.16.16c-13.95.51-71.35,1.6-80.67-1.4-10.37-3.37,32.95-12.28,32.95-12.28Z"/>
    <g class="cls-15">
      <path class="cls-14" d="M312.93,934.17c.85-4.27,3.23-8.07,6.7-10.7,3.4-2.61,7.66-3.85,11.93-3.47l-.26,14.19-18.37-.02Z"/>
    </g>
    <g class="cls-15">
      <path class="cls-14" d="M259.28,926.61s-15.21,4.07-13.37,6.6,59.81,3.58,85.44,1.79v-1.12l-67.63-.67s-1.4-6.44-4.44-6.6Z"/>
    </g>
    <path class="cls-11" d="M332.1,933.87h-.88l-2.51.12-9.3.23c-7.81.14-18.6.19-30.49,0-11.88-.19-22.67-.63-30.46-1.05l-9.3-.56-2.49-.19c-.29.03-.59.03-.88,0,.29-.03.59-.03.88,0h2.51l9.3.35c7.79.3,18.6.65,30.46.86,11.86.21,22.65.23,30.46.21h11.74c.32-.03.64-.03.95.02Z"/>
    <path class="cls-11" d="M263.66,934.01c-.38-1.53-.94-3.01-1.65-4.42-.88-1.32-1.92-2.53-3.09-3.6,3.06,1.45,4.91,4.64,4.65,8.02h.09Z"/>
    <path class="cls-11" d="M278.77,926.68c-.14,0-.84-.79-1.56-1.98s-1.19-2.21-1.05-2.33.84.81,1.56,1.98,1.19,2.23,1.05,2.33Z"/>
    <path class="cls-11" d="M282.91,924.59c0,.12-.91-.42-1.77-1.23s-1.47-1.56-1.35-1.67.91.42,1.77,1.23,1.47,1.56,1.35,1.67Z"/>
    <path class="cls-11" d="M285.59,919.84c-.85.29-1.76.39-2.65.28-.9.11-1.81,0-2.65-.33,1.74-.4,3.56-.4,5.3,0v.05Z"/>
    <path class="cls-11" d="M286.56,916.47c-.88.57-1.92.86-2.98.81-1.04.15-2.1,0-3.05-.47,1-.15,2.01-.2,3.02-.16.99-.14,2-.2,3-.19Z"/>
    <path class="cls-11" d="M277.12,922.22c-1.08.19-2.18.19-3.26,0-1.18-.17-2.34-.45-3.47-.84-.69-.21-1.35-.5-1.98-.86-.38-.23-.66-.6-.79-1.02-.09-.49.12-.99.53-1.28,2.59-1.23,5.69-.44,7.37,1.88.48.65.83,1.4,1.02,2.19.06.29.06.59,0,.88-.32-1.01-.81-1.96-1.44-2.81-.72-.87-1.68-1.52-2.77-1.86-1.27-.45-2.66-.38-3.88.19-.53.4-.33,1,.23,1.35.58.33,1.19.6,1.81.81,1.09.4,2.21.71,3.35.93,2.02.33,3.26.35,3.26.44Z"/>
    <path class="cls-11" d="M276.28,922.38c-.4-.71-.52-1.53-.35-2.33.13-.84.46-1.64.95-2.33.57-.98,1.61-1.59,2.74-1.6.68.16,1.11.83.98,1.51-.09.52-.29,1.02-.58,1.47-.45.7-.98,1.35-1.58,1.93-.53.56-1.17,1.01-1.88,1.3,0,0,.65-.58,1.58-1.6.53-.59,1-1.24,1.4-1.93.47-.67.79-1.91,0-2.07s-1.67.7-2.19,1.35c-.46.62-.79,1.34-.95,2.09-.11.73-.14,1.47-.12,2.21Z"/>
    <path class="cls-11" d="M331.31,919.96c0,.12-1.47-.16-3.74,0-6.13.56-11.38,4.6-13.51,10.37-.81,2.16-.91,3.63-1.02,3.6-.07-.34-.07-.69,0-1.02.1-.93.31-1.84.6-2.72,1.97-6.11,7.54-10.36,13.95-10.65.93-.11,1.86-.11,2.79,0,.34.07.65.21.93.42Z"/>
    <path class="cls-11" d="M326.42,898.73c.28,3.47.37,6.96.26,10.44.08,3.48-.04,6.96-.37,10.42-.28-3.47-.37-6.96-.26-10.44-.07-3.48.05-6.96.37-10.42Z"/>
    <path class="cls-11" d="M306.65,929.19c-4.92.85-9.95.81-14.86-.12,0-.19,3.35,0,7.42.12s7.42-.16,7.44,0Z"/>
    <path class="cls-11" d="M316.61,929.38c0,.12-.3.7-.65,1.44s-.53,1.42-.72,1.42-.26-.81.16-1.67,1.09-1.33,1.21-1.19Z"/>
    <path class="cls-11" d="M320.47,924.87c.14.12-.21.65-.74,1.16s-1.07.86-1.19.72.23-.63.77-1.16,1-.93,1.16-.72Z"/>
    <path class="cls-11" d="M325.84,922.73c0,.19-.72.16-1.47.42s-1.3.63-1.42.51.3-.81,1.23-1.12,1.7,0,1.65.19Z"/>
    <path class="cls-11" d="M329.77,921.8c0,.16-.23.42-.65.58s-.84.14-.88,0,.23-.4.65-.56.72-.19.88-.02Z"/>
    <path class="cls-11" d="M325.12,580.85l174.16-2.19-36.39,81.88-111.39.44-10.72,250.86h-68.05l6.49-279.81c.61-26.04,20.1-47.75,45.93-51.16l-.02-.02Z"/>
    <path class="cls-5" d="M343.03,892.52c0-.37-15.79-.67-35.28-.67s-35.26.3-35.26.67,15.79.7,35.26.7,35.28-.33,35.28-.7Z"/>
    <path class="cls-11" d="M490.65,667.22l4.91,240.9-78.72,3.86s-12.53-236.02-6.28-302.99c4.28-45.84,179.21-26.14,179.21-26.14,2.53,91.28-99.11,84.37-99.11,84.37"/>
    <path class="cls-5" d="M495.56,889.12c-1-.16-2.01-.2-3.02-.12l-8.26.19c-6.98.23-16.58.65-27.19,1.19s-20.23,1.09-27.19,1.56l-8.21.65c-1.02.01-2.04.15-3.02.42,1.01.15,2.03.18,3.05.12l8.26-.21c6.98-.21,16.58-.63,27.19-1.16,10.6-.53,20.23-1.09,27.19-1.58l8.21-.63c1.01-.02,2.02-.16,3-.42Z"/>
    <path class="cls-5" d="M491.65,646.99c-.89,3.81-1.34,7.71-1.35,11.63-.45,3.86-.45,7.76,0,11.63.89-3.81,1.35-7.71,1.35-11.63.45-3.86.45-7.76,0-11.63Z"/>
    <path class="cls-5" d="M494.7,579.13c-.49-.06-.99-.06-1.49,0h-4.26c-3.7.12-9.07.3-15.67.67s-14.49.95-23.26,2.33c-9.53,1.29-18.69,4.58-26.86,9.65-2.12,1.42-4.05,3.1-5.74,5-1.67,1.89-2.95,4.08-3.77,6.46-1.4,4.41-2.33,8.95-2.77,13.56-.72,7.73-1.05,15.49-.98,23.26v19.93c-.06.49-.06.99,0,1.49.13-.49.2-.99.21-1.49,0-.95.21-2.33.3-4.26.21-3.7.33-9.05.44-15.65s.26-14.49,1.26-23.14c.47-4.51,1.41-8.96,2.79-13.28,1.76-4.47,4.93-8.24,9.02-10.74,8-4.96,16.94-8.21,26.26-9.53,8.6-1.35,16.46-2.02,23.05-2.53l15.63-1.09,4.23-.35c.54-.02,1.08-.12,1.6-.28Z"/>
    <path class="cls-8" d="M502.16,389.3h0c-13.07-.06-23.62-10.71-23.56-23.79,0-.05,0-.09,0-.14,0-8.21.23-2.33.23-2.33,0,0-19-1.77-20.39-20.58-1.4-18.81-.79-62.23-.79-62.23h0c21.21-10.7,46.55-9.09,66.23,4.21l2.93,1.98-.91,79.46c-.12,13.01-10.73,23.48-23.74,23.42Z"/>
    <path class="cls-4" d="M478.61,362.79c8.7-.37,17.1-3.33,24.12-8.49,0,0-4.98,13.95-23.86,13.35l-.26-4.86Z"/>
    <polygon class="cls-3" points="526.37 581.97 340.47 581.97 309.82 463.25 464.93 463.25 489.49 574.22 526.37 575.11 526.37 581.97"/>
    <path class="cls-11" d="M600.11,484.5c-.42.04-.84.04-1.26,0h-3.56l-13.14-.49c-11.09-.47-26.39-1.19-43.3-2.07l-8.67-.44h-.58v-.56c0-14.79.14-27.91.19-37.49,0-4.65.14-8.35.19-11.12v-3c0-.35.04-.7.12-1.05.1.34.14.69.12,1.05,0,.81,0,1.79.12,3,0,2.77,0,6.51.16,11.12,0,9.6.14,22.7.21,37.49l-.56-.6,8.65.44c16.91.88,32.23,1.74,43.3,2.33l13.12.88,3.56.3c.46,0,.91.06,1.35.21Z"/>
    <path class="cls-11" d="M566.98,383.02c-2.77-.34-5.56-.43-8.35-.26-6.68.73-12.92,3.72-17.67,8.46-4.65,4.87-7.81,10.97-9.09,17.58-1.02,5.07-.81,8.35-1.05,8.33-.2-.76-.29-1.54-.26-2.33-.14-9.09,3.29-17.88,9.53-24.49,4.93-4.97,11.49-7.98,18.46-8.49,2.09-.14,4.18,0,6.23.42.77.13,1.51.39,2.19.77Z"/>
    <path class="cls-11" d="M438.56,419.11c.35,2.24.49,4.5.42,6.77,0,4.19.14,10.07,0,16.51-.14,6.09-.26,11.63-.37,16.14v6.28-7.12c0-4.65-.23-10.05-.35-16.28-.12-6.23,0-11.63,0-15.79-.1-2.18,0-4.35.3-6.51Z"/>
    <path class="cls-6" d="M402.72,522.55c.01,5.82-4.69,10.55-10.51,10.56s-10.55-4.69-10.56-10.51c-.01-5.82,4.69-10.55,10.51-10.56h.02c5.81,0,10.52,4.7,10.53,10.51Z"/>
    <path class="cls-11" d="M463.45,315.08c-.09,1.55,1.08,2.88,2.62,3,1.52.22,2.92-.84,3.14-2.35,0,0,0-.01,0-.02.09-1.55-1.08-2.88-2.62-3-1.51-.22-2.92.82-3.14,2.33,0,.01,0,.03,0,.04Z"/>
    <path class="cls-11" d="M461.55,306.63c.34.39,2.63-1.02,5.76-.89,3.12.13,5.31,1.83,5.67,1.48.17-.15-.15-.84-1.11-1.6-1.31-.99-2.88-1.56-4.52-1.63-1.62-.1-3.23.3-4.61,1.16-.99.67-1.36,1.31-1.2,1.49Z"/>
    <path class="cls-11" d="M490.43,316.94c-.08,1.54,1.08,2.87,2.62,2.99,1.51.22,2.92-.83,3.14-2.34,0-.02,0-.05,0-.07.09-1.55-1.08-2.88-2.62-3-1.51-.22-2.91.83-3.13,2.34,0,.03,0,.05-.01.08Z"/>
    <path class="cls-11" d="M492.2,308.91c.34.39,2.63-1.08,5.75-.89,3.11.18,5.32,1.82,5.67,1.48.17-.15-.14-.84-1.11-1.6-1.31-.99-2.88-1.56-4.52-1.64-1.62-.09-3.22.32-4.6,1.17-1,.67-1.37,1.31-1.2,1.49Z"/>
    <path class="cls-11" d="M479.54,330.77c0-.17-1.9-.61-5.02-1.18-.79-.12-1.54-.32-1.64-.86-.02-.81.21-1.6.67-2.26l2.7-5.77c3.77-8.19,6.55-14.98,6.21-15.12s-3.68,6.39-7.45,14.61l-2.6,5.8c-.57.92-.78,2.01-.59,3.07.21.57.66,1.02,1.24,1.21.44.13.89.22,1.34.26,3.15.32,5.12.41,5.14.25Z"/>
    <path class="cls-11" d="M492.09,296.98c.26.84,3.4.62,7.03,1.26,3.63.64,6.55,1.77,7.07,1.02.25-.34-.23-1.15-1.37-2.05-3.14-2.17-7.08-2.82-10.75-1.76-1.37.56-2.09,1.13-1.98,1.53Z"/>
    <path class="cls-11" d="M463.22,297.91c.51.73,2.7.13,5.29.25,2.58.11,4.74.73,5.3,0,.24-.34-.06-1.02-1.02-1.75-2.55-1.75-5.89-1.84-8.52-.22-.91.69-1.26,1.37-1.03,1.72Z"/>
    <path class="cls-1" d="M488.39,335.73c.47,1.47.74,3,.79,4.54.19,1.59-.5,2.71-1.52,3.97-1.12,1.31-2.76,2.06-4.49,2.05h-.05c-3.16.03-5.88-2.24-6.4-5.36l-.54-3.35c3.26-.88,11.97-1.62,12.21-1.85Z"/>
    <path class="cls-11" d="M479.91,345.3c0-.06.41,0,1.11.11.97.15,1.97.15,2.94,0,1.4-.22,2.67-.95,3.56-2.05,1.04-1.35,1.54-3.04,1.4-4.73-.08-.94-.36-1.84-.82-2.66l.43.22c-3.07.45-5.84.82-7.8,1.02-1.04.2-2.09.27-3.14.22,1-.35,2.03-.6,3.07-.73,1.93-.37,4.64-.83,7.75-1.33h.29l.14.25c1.41,2.69,1.1,5.97-.79,8.35-1.04,1.2-2.51,1.96-4.1,2.11-1.03.1-2.08,0-3.07-.29-.36-.09-.69-.25-.98-.48Z"/>
    <path class="cls-11" d="M454.1,251.06c8.07-1.51,15.59,6.33,23.85,5.65,5.02-.4,9.18-3.87,13.82-5.77,3.63-1.47,7.56-2.08,11.47-1.8,3.91.28,7.71,1.45,11.08,3.41,6.3,3.97,10.09,8.09,10.27,15.51,6.46-2.78,15.76,5.85,18.38,13.49,2.63,7.64.91,15.03-2.02,22.61-4.89,13.04-12.34,25.02-21.91,35.25-.85.91-2.14,1.86-3.21,1.23-.33-.28-.58-.63-.75-1.03-.16-.4-.22-.83-.18-1.25-.37-7.24,1.39-14.38,2.83-21.5,1.43-7.12,2.58-14.46,1.05-21.56-1.53-7.1-6.25-13.88-13.29-16.09-5.32-1.34-10.95-.79-15.9,1.57-5.02,2.08-9.56,5.12-14.39,7.58-4.72,2.73-10.12,4.14-15.59,4.07-5.43-.36-10.93-3.51-12.69-8.57-1.76-5.06,1.59-11.62,7.02-12.14-2.42-.5-4.59-1.81-6.14-3.7-1.55-1.89-2.39-4.25-2.37-6.69s.89-4.78,2.47-6.65c1.58-1.87,3.77-3.15,6.2-3.61h0Z"/>
    <path class="cls-11" d="M462.01,269.7c2.59-3.63,6.05-6.58,10.09-8.57,8.54-4.7,18.37-6.63,28.09-5.51,9.75,1.18,18.64,6.04,24.82,13.55,4.7,6.15,7.46,13.53,7.93,21.21.68,8.39-.21,16.82-2.6,24.89-1.07,3.17-3.13,4.09-5.81,6.15-1.68,1.29-4.34,1.98-5.81.4-.77-.98-1.18-2.19-1.17-3.43-1.11-11.11-2.02-23.01,3.47-32.75-2.05-3.94-4.92-7.41-8.41-10.19-1.75-1.39-3.76-2.42-5.92-3.04-2.16-.62-4.42-.8-6.65-.55-6.6.99-11.36,6.45-17.01,9.92-4.08,2.44-8.69,3.89-13.45,4.23-4.76.35-9.54-.42-13.93-2.25l6.38-14.04h0Z"/>
    <path class="cls-3" d="M545,302.3c0-.19-1.86-.24-4.71-.84-7.5-1.61-14.12-5.88-18.6-12-1.68-2.4-2.44-3.98-2.63-3.91.38,1.56,1.05,3.04,2,4.34,2.12,3.26,4.91,6.05,8.2,8.19,3.29,2.13,7,3.55,10.89,4.18,1.6.33,3.25.35,4.85.05h0Z"/>
    <path class="cls-3" d="M541.1,303.34c0-.16-1.51-.2-3.87-.69-6.2-1.31-11.68-4.85-15.38-9.92-1.41-1.98-2.02-3.29-2.18-3.23.3,1.3.86,2.52,1.65,3.59,1.75,2.7,4.06,5,6.78,6.77,2.72,1.76,5.78,2.94,9,3.45,1.31.26,2.67.27,3.99.04h0Z"/>
    <path class="cls-12" d="M522.73,325.64c.33-3.01,3.04-5.19,6.05-4.86.07,0,.14.02.2.03,3.76.56,7.85,2.89,7.17,10.48-1.24,13.47-14.89,9.48-14.88,9.1s.88-9.12,1.45-14.74Z"/>
    <path class="cls-1" d="M524.74,335.56c.06,0,.23.19.61.41.56.28,1.2.35,1.8.19,1.52-.4,2.95-2.55,3.25-4.97.14-1.15.01-2.32-.37-3.42-.19-.89-.81-1.62-1.65-1.96-.56-.2-1.18.02-1.49.52-.22.36-.15.64-.24.65s-.28-.25-.11-.8c.11-.33.33-.61.62-.79.41-.25.9-.33,1.37-.23,1.12.31,2,1.19,2.33,2.3.48,1.21.65,2.53.49,3.82-.34,2.71-2.05,5.12-4.1,5.51-.77.15-1.57-.05-2.18-.54-.35-.37-.4-.69-.35-.71Z"/>
  </g>
</svg>