<?xml version="1.0" encoding="UTF-8"?>
<svg id="Layer_2" data-name="Layer 2" xmlns="http://www.w3.org/2000/svg" viewBox="0 0 1000 1000">
  <defs>
    <style>
      .cls-1 {
        fill: #ff9a6c;
      }

      .cls-1, .cls-2, .cls-3, .cls-4, .cls-5, .cls-6, .cls-7, .cls-8, .cls-9, .cls-10, .cls-11, .cls-12, .cls-13, .cls-14 {
        stroke-width: 0px;
      }

      .cls-2 {
        fill: #000;
      }

      .cls-3 {
        fill: #e0e0e0;
      }

      .cls-15 {
        opacity: .2;
      }

      .cls-4 {
        fill: #455a64;
      }

      .cls-5 {
        fill: #f5f5f5;
      }

      .cls-6 {
        fill: #09f;
      }

      .cls-7 {
        fill: #ebebeb;
      }

      .cls-8 {
        fill: #666;
      }

      .cls-9 {
        fill: #e2323d;
      }

      .cls-10 {
        fill: #e30613;
      }

      .cls-11 {
        fill: #263238;
      }

      .cls-12 {
        fill: #ffbf9d;
      }

      .cls-13 {
        fill: #fafafa;
      }

      .cls-16 {
        opacity: .3;
      }

      .cls-14 {
        fill: #fff;
      }

      .cls-17 {
        opacity: .4;
      }
    </style>
  </defs>
  <g id="freepik--background-complete--inject-15">
    <rect class="cls-13" x="362.13" y="223.62" width="550.77" height="368.89"/>
    <rect class="cls-7" x="362.13" y="223.62" width="550.77" height="36.84"/>
    <path class="cls-13" d="M386,242.05c.21,2.49-1.64,4.67-4.12,4.88s-4.67-1.64-4.88-4.12,1.64-4.67,4.12-4.88c.12-.01.24-.02.36-.02,2.38-.12,4.4,1.71,4.51,4.09,0,.02,0,.04,0,.05Z"/>
    <path class="cls-13" d="M400.34,242.05c.21,2.49-1.64,4.67-4.12,4.88s-4.67-1.64-4.88-4.12,1.64-4.67,4.12-4.88c.12-.01.24-.02.36-.02,2.38-.12,4.4,1.71,4.51,4.09,0,.02,0,.04,0,.05Z"/>
    <path class="cls-13" d="M414.72,242.05c.21,2.49-1.64,4.67-4.12,4.88s-4.67-1.64-4.88-4.12c-.21-2.49,1.64-4.67,4.12-4.88.12-.01.24-.02.36-.02,2.38-.12,4.4,1.71,4.51,4.09,0,.02,0,.04,0,.05Z"/>
  </g>
  <g id="freepik--Plant--inject-15">
    <path class="cls-6" d="M864.89,640.62c-28.79-20.1-35.31-57.43-34.18-90.97.2-5.6-.42-11.5,2.24-16.43,2.67-4.92,8.88-8.27,13.9-5.9,4.16,1.96,6.02,6.79,8.3,10.8,3.11,5.33,7.66,9.68,13.13,12.54,3.57,1.85,7.98,3.01,11.5,1.04,4.83-2.67,5.41-9.34,5.36-14.91-.06-10.39-.13-20.77-.2-31.15,0-5.57,0-11.25,1.69-16.56s5.56-10.19,10.86-11.67c5.3-1.48,11.85,1.51,12.98,7.02.21,2.31.26,4.63.15,6.94.17,2.3,1.23,4.86,3.43,5.51s4.52-.93,6.11-2.56c5.75-5.62,9.65-12.87,13.3-20.07,3.64-7.2,7.18-14.59,12.41-20.72,5.22-6.13,12.44-10.99,20.4-11.44,7.96-.45,16.49,4.52,18.5,12.3,2.02,7.78-2.56,15.82-7.53,22.18-7.4,9.43-16.13,17.74-25.9,24.68-1.75,1.23-3.66,2.59-4.32,4.65-1.22,3.72,2.3,7.41,6.02,8.63,4.16,1.37,8.66.95,13.01,1.51,4.35.56,9.03,2.42,10.69,6.53,2.27,5.69-2.48,11.65-7.17,15.57-9.39,7.83-20.05,13.98-31.53,18.19-4.1,1.51-8.4,2.82-11.71,5.69-3.31,2.88-5.28,7.89-3.3,11.82,1.99,3.93,7.12,5.18,11.41,4.38,4.29-.8,8.13-3.13,12.23-4.67,7.65-2.89,17.54-2.36,22.45,4.25,3.22,4.35,3.49,10.4,1.87,15.6-1.87,5.11-4.74,9.79-8.45,13.76-12.26,14.39-27.98,25.99-45.73,32.13-17.75,6.14-34.21,7.83-51.86,1.37"/>
    <path class="cls-11" d="M864.45,665.53c1.53-15.56,4.56-30.93,9.03-45.91,5.57-18.28,12.19-36.22,19.81-53.74l5.92-13.82c1.96-4.52,3.88-9.03,6.02-13.31,4.18-8.2,8.8-16.17,13.85-23.86,4.77-7.38,9.56-14.21,14.09-20.57,4.53-6.35,8.9-12.17,13.1-17.32,6.62-8.18,13.87-15.81,21.7-22.84,2.76-2.47,4.95-4.34,6.46-5.57l1.72-1.4.6-.45c-.16.2-.34.38-.54.54l-1.66,1.51c-1.51,1.28-3.6,3.19-6.31,5.71-7.68,7.1-14.81,14.77-21.35,22.93-4.14,5.16-8.45,11.02-12.96,17.38-4.52,6.35-9.26,13.2-14,20.58-4.99,7.68-9.56,15.63-13.69,23.8-2.14,4.26-4.05,8.7-6.02,13.25l-5.92,13.82c-7.61,17.48-14.24,35.38-19.84,53.6-4.52,14.9-7.63,30.19-9.31,45.67"/>
    <path class="cls-11" d="M905.62,538.7c-.26-.77-.44-1.57-.54-2.38-.29-1.51-.63-3.78-1.02-6.55-.8-5.56-1.63-13.25-2.5-21.74-.87-8.49-1.81-16.16-2.68-21.67-.42-2.76-.8-5-1.07-6.53-.19-.79-.3-1.6-.32-2.41.32.75.56,1.53.71,2.33.39,1.51.87,3.73,1.39,6.49,1.05,5.5,2.11,13.17,3.01,21.68.9,8.51,1.61,15.96,2.18,21.74.29,2.62.53,4.83.71,6.59.14.81.19,1.62.14,2.44Z"/>
    <path class="cls-11" d="M977.24,525.31c-.94.19-1.9.3-2.86.33-1.84.17-4.52.39-7.77.77-6.56.71-15.58,2-25.49,3.87-9.91,1.87-18.78,3.97-25.16,5.66-3.19.83-5.77,1.51-7.53,2.06-.91.32-1.85.55-2.8.69.86-.45,1.75-.81,2.68-1.08,1.75-.6,4.29-1.51,7.53-2.38,6.34-1.88,15.24-4.08,25.16-6.02,8.47-1.62,17.01-2.81,25.6-3.57,3.3-.29,6.02-.41,7.83-.44.94-.05,1.88-.02,2.82.11Z"/>
    <path class="cls-11" d="M874.43,618.27s-.21-.29-.5-.87-.74-1.51-1.22-2.59c-1.05-2.26-2.5-5.56-4.23-9.67-3.45-8.19-7.86-19.68-12.57-32.42-4.71-12.74-9.03-24.26-12.29-32.51l-3.9-9.79-1.05-2.67c-.14-.31-.24-.63-.3-.96.2.27.36.56.48.87.33.71.74,1.51,1.23,2.59,1.05,2.26,2.48,5.56,4.22,9.67,3.45,8.21,7.87,19.68,12.57,32.43s9.03,24.24,12.29,32.51l3.91,9.77,1.04,2.67c.15.31.25.63.32.96Z"/>
    <path class="cls-11" d="M969.59,587.6c-.3.17-.62.3-.95.39l-2.76.92-10.19,3.31c-8.61,2.79-20.45,6.78-33.52,11.2-13.07,4.43-24.96,8.31-33.64,10.92-4.34,1.31-7.84,2.33-10.3,3.01l-2.82.74c-.32.11-.66.17-.99.2.29-.17.61-.3.93-.39l2.77-.92,10.19-3.31c8.6-2.79,20.43-6.78,33.52-11.2,13.08-4.43,24.96-8.31,33.64-10.93,4.32-1.31,7.84-2.33,10.28-3.01l2.82-.74c.33-.11.67-.17,1.01-.18Z"/>
  </g>
  <g id="freepik--Sparkles--inject-15">
    <path class="cls-11" d="M233.74,398.07c0,.33-2.39.59-5.35.59s-5.35-.26-5.35-.59,2.39-.59,5.35-.59,5.35.27,5.35.59Z"/>
    <path class="cls-11" d="M239.4,383.54c.33,0,.6,2.42.6,5.42s-.27,5.42-.6,5.42-.59-2.42-.59-5.42.27-5.42.59-5.42Z"/>
    <path class="cls-11" d="M245.46,397.72c0-.33,2.38-.59,5.33-.59s5.35.26,5.35.59-2.39.59-5.35.59-5.33-.26-5.33-.59Z"/>
    <path class="cls-11" d="M239.78,412.25c-.33,0-.59-2.42-.59-5.42s.26-5.42.59-5.42.59,2.42.59,5.42-.26,5.42-.59,5.42Z"/>
    <path class="cls-11" d="M248.41,406.02c-.24.21-1.29-.63-2.35-1.9s-1.7-2.44-1.51-2.65,1.31.65,2.35,1.9,1.76,2.44,1.51,2.65Z"/>
    <path class="cls-11" d="M247.91,389.54c.24.23-.47,1.31-1.51,2.41s-2.15,1.79-2.39,1.51.47-1.31,1.51-2.41c1.04-1.1,2.17-1.73,2.39-1.51Z"/>
    <path class="cls-11" d="M235.67,393.75c-.21.24-1.22-.26-2.26-1.11s-1.7-1.76-1.51-2.02,1.22.24,2.24,1.11c1.02.87,1.73,1.76,1.52,2.02Z"/>
    <path class="cls-11" d="M235.19,401c.24.23-.36,1.28-1.36,2.36-.99,1.08-1.99,1.78-2.23,1.51s.38-1.28,1.36-2.36c.98-1.08,1.99-1.73,2.23-1.51Z"/>
    <path class="cls-11" d="M20.76,558.41c-.97.34-1.99.46-3.01.35-1.02.11-2.05,0-3.01-.35.97-.32,2-.43,3.01-.33,1.02-.1,2.04.01,3.01.33Z"/>
    <path class="cls-11" d="M23.93,550.17c.44,2.02.44,4.12,0,6.14-.46-2.02-.46-4.12,0-6.14Z"/>
    <path class="cls-11" d="M27.4,558.21c.97-.32,2-.43,3.01-.33,1.02-.1,2.04,0,3.01.33-.97.34-1.99.46-3.01.35-1.02.11-2.05,0-3.01-.35Z"/>
    <path class="cls-11" d="M24.2,566.46c-.33-.97-.45-1.99-.35-3.01-.11-1.04,0-2.1.35-3.09.32.99.44,2.05.33,3.09.1,1.02-.02,2.04-.33,3.01Z"/>
    <path class="cls-11" d="M29.09,562.92c-.14.12-.74-.36-1.34-1.07s-.96-1.39-.81-1.51.74.36,1.34,1.07.95,1.39.81,1.51Z"/>
    <path class="cls-11" d="M28.81,553.57c.14.12-.26.74-.87,1.37s-1.23,1.01-1.36.89.26-.74.87-1.37,1.22-1.02,1.36-.89Z"/>
    <path class="cls-11" d="M21.86,555.95c-.12.15-.69-.14-1.28-.63s-.98-.99-.86-1.14.69.15,1.28.63.96,1.01.86,1.14Z"/>
    <path class="cls-11" d="M21.58,560.14c.15.12-.2.72-.77,1.34s-1.11,1.01-1.25.89.2-.72.77-1.34,1.11-1.07,1.25-.89Z"/>
    <path class="cls-11" d="M247.88,531.53l.35.84c.61,1.46,1.78,2.62,3.25,3.21l.9.38-.87.35c-1.48.61-2.66,1.79-3.27,3.27l-.24.62-.38-.77c-.66-1.4-1.84-2.48-3.3-3.01l-.8-.29,1.04-.51c1.29-.63,2.32-1.7,2.89-3.01l.42-1.07Z"/>
    <path class="cls-11" d="M85.87,424.16l.35.84c.61,1.46,1.77,2.61,3.24,3.21l.9.36-.86.36c-1.49.6-2.67,1.78-3.27,3.27l-.26.62-.36-.77c-.66-1.4-1.85-2.49-3.31-3.01l-.78-.29,1.02-.51c1.3-.62,2.32-1.69,2.89-3.01l.44-1.07Z"/>
  </g>
  <g id="freepik--Device--inject-15">
    <rect class="cls-11" x="264.52" y="295" width="605.34" height="400.3" rx="21.94" ry="21.94"/>
    <path class="cls-11" d="M239.24,665.7h655.79v8.24c0,14.8-12,26.8-26.8,26.8H265.96c-14.8,0-26.8-12-26.8-26.8v-8.24h.08Z"/>
    <rect class="cls-4" x="280.76" y="310.92" width="571.15" height="338.05"/>
    <polygon class="cls-4" points="507.5 665.7 515.65 678.65 630.15 678.65 637.71 665.7 507.5 665.7"/>
    <rect class="cls-7" x="292.52" y="322.36" width="548.79" height="325.53" rx="4.92" ry="4.92"/>
    <rect class="cls-13" x="292.52" y="346.21" width="548.79" height="301.68"/>
    <path class="cls-11" d="M337.54,334.93c0,2.43-1.97,4.4-4.4,4.4s-4.4-1.97-4.4-4.4,1.97-4.4,4.4-4.4,4.4,1.97,4.4,4.4h0Z"/>
    <path class="cls-11" d="M310.97,334.93c0,2.42-1.98,4.37-4.4,4.37-2.42,0-4.37-1.98-4.37-4.4,0-2.41,1.97-4.37,4.38-4.37,2.42,0,4.38,1.96,4.38,4.38,0,0,0,.01,0,.02Z"/>
    <path class="cls-11" d="M323.72,334.93c0,2.42-1.98,4.37-4.4,4.37-2.42,0-4.37-1.98-4.37-4.4,0-2.41,1.97-4.37,4.38-4.37,2.42,0,4.38,1.96,4.38,4.38,0,0,0,.01,0,.02Z"/>
    <path class="cls-4" d="M864.65,665.7c0,.23-134.35.39-300.05.39s-300.08-.17-300.08-.39,134.32-.39,300.08-.39,300.05.23,300.05.39Z"/>
    <rect class="cls-3" x="330.56" y="498.18" width="125.23" height="8.37"/>
    <rect class="cls-3" x="492.31" y="381.87" width="125.23" height="8.37"/>
    <path class="cls-3" d="M803.86,413.06c0,.21-69.74.39-155.73.39s-155.76-.18-155.76-.39,69.73-.39,155.76-.39,155.73.18,155.73.39Z"/>
    <path class="cls-3" d="M803.86,431.36c0,.21-69.74.39-155.73.39s-155.76-.18-155.76-.39,69.73-.39,155.76-.39,155.73.18,155.73.39Z"/>
    <path class="cls-3" d="M803.86,449.65c0,.21-69.74.39-155.73.39s-155.76-.18-155.76-.39,69.73-.39,155.76-.39,155.73.17,155.73.39Z"/>
    <path class="cls-3" d="M803.86,467.94c0,.21-69.74.39-155.73.39s-155.76-.18-155.76-.39,69.73-.39,155.76-.39,155.73.17,155.73.39Z"/>
    <path class="cls-3" d="M803.86,486.24c0,.21-69.74.39-155.73.39s-155.76-.18-155.76-.39,69.73-.39,155.76-.39,155.73.17,155.73.39Z"/>
    <path class="cls-3" d="M613.91,504.53c0,.21-27.22.39-60.8.39s-60.8-.18-60.8-.39,27.22-.39,60.8-.39,60.8.17,60.8.39Z"/>
    <path class="cls-3" d="M801.53,540.04c0,.21-45.85.39-102.39.39s-102.39-.18-102.39-.39,45.83-.39,102.39-.39,102.39.17,102.39.39Z"/>
    <path class="cls-3" d="M801.53,559.44c0,.23-45.85.39-102.39.39s-102.39-.17-102.39-.39,45.83-.39,102.39-.39,102.39.18,102.39.39Z"/>
    <path class="cls-3" d="M801.53,578.87c0,.21-45.85.39-102.39.39s-102.39-.18-102.39-.39,45.83-.39,102.39-.39,102.39.18,102.39.39Z"/>
    <path class="cls-3" d="M801.53,598.29c0,.21-45.85.39-102.39.39s-102.39-.18-102.39-.39,45.83-.39,102.39-.39,102.39.17,102.39.39Z"/>
    <path class="cls-3" d="M456.05,538.17c0,.23-27.33.39-61.02.39s-61.02-.17-61.02-.39,27.31-.39,61.02-.39,61.02.18,61.02.39Z"/>
    <path class="cls-3" d="M456.05,553.42c0,.21-27.33.39-61.02.39s-61.02-.18-61.02-.39,27.31-.39,61.02-.39,61.02.18,61.02.39Z"/>
    <path class="cls-3" d="M456.05,568.67c0,.21-27.33.39-61.02.39s-61.02-.18-61.02-.39,27.31-.39,61.02-.39,61.02.17,61.02.39Z"/>
    <path class="cls-3" d="M456.05,583.93c0,.21-27.33.39-61.02.39s-60.93-.18-60.93-.39,27.31-.39,61.02-.39,60.93.17,60.93.39Z"/>
    <path class="cls-3" d="M456.05,599.16c0,.23-27.33.41-61.02.41s-61.02-.18-61.02-.41,27.31-.39,61.02-.39,61.02.18,61.02.39Z"/>
    <rect class="cls-5" x="492.24" y="530.76" width="88.85" height="85.96"/>
    <polygon class="cls-7" points="499.13 609.37 523.7 565.14 543.8 593.41 556.03 578.4 574.2 609.37 499.13 609.37"/>
    <path class="cls-7" d="M552.42,556.54c0,3.53-2.86,6.4-6.4,6.4s-6.4-2.86-6.4-6.4,2.86-6.4,6.4-6.4c3.53,0,6.39,2.84,6.4,6.37,0,.01,0,.02,0,.03Z"/>
    <path class="cls-7" d="M574.2,609.61c-.01-.12-.01-.24,0-.36v-4.86c0-3.42,0-8.34-.09-14.61,0-12.56-.11-30.43-.18-51.9l.36.36h-75.07c-.11.09.8-.8.42-.41h0v71.7l-.36-.38,54.28.2,15.31.09h5.48-5.33l-15.24.11-54.51.18h-.38v-71.82h0c-.39.36.51-.53.42-.44h75.43v.36c0,21.56-.15,39.52-.18,52.14,0,6.22,0,11.13-.11,14.51,0,1.63,0,2.89,0,3.79v.96c-.08.13-.17.25-.27.36Z"/>
    <rect class="cls-5" x="332.92" y="367.56" width="120.51" height="116.58"/>
    <polygon class="cls-3" points="342.27 474.18 375.61 414.18 402.87 452.53 419.44 432.16 444.08 474.18 342.27 474.18"/>
    <path class="cls-3" d="M414.48,402.51c0,4.79-3.88,8.67-8.67,8.67s-8.67-3.88-8.67-8.67,3.88-8.67,8.67-8.67,8.67,3.88,8.67,8.67h0Z"/>
    <path class="cls-3" d="M444.08,474.49v-7.08c0-4.62-.08-11.31-.14-19.8,0-17.03-.15-41.29-.26-70.41l.5.5h-101.81l.57-.56v97.27l-.5-.5,73.61.26,20.76.14h7.51c-.14.03-.29.03-.44,0h-6.79l-20.66.14-73.93.26h-.51v-97.48l.59-.59,101.81.08h.5v.48c-.11,29.26-.2,53.6-.26,70.77,0,8.43-.09,15.06-.12,19.68v6.46c-.13.15-.28.28-.45.39Z"/>
  </g>
  <g id="freepik--Padlock--inject-15">
    <path class="cls-11" d="M627.43,454.45l-12.05-.17.45-32.79c-.02-24.22-19.68-43.84-43.91-43.82-24.22.02-43.84,19.68-43.82,43.91l-.45,32.87-12.05-.17.45-32.79c.02-30.88,25.07-55.89,55.95-55.86,30.88.02,55.89,25.07,55.86,55.95h0l-.45,32.87Z"/>
    <rect class="cls-6" x="489.16" y="438.48" width="166.92" height="163.08" rx="27.54" ry="27.54"/>
    <g class="cls-16">
      <path class="cls-2" d="M589.25,511.41c.03-9.19-7.39-16.66-16.58-16.7-9.19-.03-16.66,7.39-16.7,16.58-.02,5.79,2.97,11.17,7.89,14.21l-4.26,19.71h27.28s-3.01-12.39-5-20.03c4.59-3.08,7.35-8.25,7.36-13.78Z"/>
    </g>
    <g class="cls-15">
      <path class="cls-14" d="M499.84,552.11c-1.08,0-1.51-19.05-1.07-42.49s1.76-42.44,2.85-42.41c1.08.03,1.51,19.05,1.07,42.49-.44,23.44-1.76,42.43-2.85,42.41Z"/>
    </g>
    <g class="cls-15">
      <path class="cls-14" d="M499.96,570.98c-1.08,0-1.97-1.84-2-4.14s.81-4.17,1.9-4.19,1.99,1.84,2.02,4.14c.03,2.3-.83,4.17-1.91,4.19Z"/>
    </g>
    <g class="cls-15">
      <path class="cls-14" d="M552.33,547.93c-.86-.29,1.17-8.96,4.71-20.49l.45,1.9c-1.61-1.6-3.28-3.27-5.03-5.12-2.7-3.08-4.29-6.98-4.52-11.07-.18-3.29.59-6.55,2.23-9.41,1.04-1.89,2.48-3.52,4.23-4.77,1.23-.86,2.06-1.08,2.2-.87.39.47-2.15,2.48-3.94,6.87-2.29,5.59-1.25,11.99,2.7,16.56l4.85,5.12.8.86-.36,1.05c-3.96,11.46-7.45,19.65-8.31,19.38Z"/>
    </g>
    <g class="cls-15">
      <path class="cls-14" d="M621.23,449.8c0,.54-6.67.99-17.44,1.26-10.77.27-25.6.38-42.16.26-8.22,0-16.05-.18-23.17-.33-7.12-.15-13.55-.59-18.69,0-4.07.3-8.01,1.62-11.43,3.85-2.39,1.64-3.37,3.01-3.64,2.83s.38-1.82,2.68-4.01c3.39-2.95,7.58-4.84,12.05-5.42,2.99-.46,6.01-.7,9.03-.71l10.12-.11h23.17c16.44.12,31.32.47,42.08.9,10.77.44,17.39.92,17.39,1.46Z"/>
    </g>
  </g>
  <g id="freepik--Character--inject-15">
    <g id="freepik--Character--inject-2">
      <path class="cls-6" d="M84.73,768.96l3.04-12.95,25.23.62-2.11,18.42-1.6.13c-7.14.48-36.35,1.95-41.2.57-5.24-1.57,16.64-6.79,16.64-6.79Z"/>
      <g class="cls-17">
        <path class="cls-2" d="M101.49,774.96c.35-2.19,1.51-4.18,3.24-5.57,1.69-1.38,3.84-2.08,6.03-1.95l.09,7.24-9.36.28Z"/>
      </g>
      <g class="cls-17">
        <path class="cls-2" d="M74.02,771.9s-7.69,2.35-6.71,3.53,30.6.88,43.55-.42v-.58l-34.49.73s-.85-3.23-2.35-3.26Z"/>
      </g>
      <path class="cls-11" d="M111.24,774.44c-.15.04-.3.06-.45.06l-1.27.09-4.71.26c-3.97.2-9.42.39-15.54.47-6.12.08-11.57,0-15.55,0l-4.71-.14h-1.72c.15-.02.3-.02.45,0h21.52c6.12,0,11.56-.25,15.53-.39l4.71-.15h1.28l.46-.2Z"/>
      <path class="cls-11" d="M76.36,775.61c-.22-.78-.52-1.53-.91-2.24-.47-.66-1.02-1.26-1.64-1.79.81.29,1.48.86,1.9,1.61.5.7.73,1.56.65,2.41Z"/>
      <path class="cls-11" d="M83.95,771.65c-.07,0-.45-.39-.84-.99s-.64-1.11-.57-1.18.45.4.84.99.65,1.11.57,1.18Z"/>
      <path class="cls-11" d="M86.04,770.48c0,.06-.47-.21-.92-.6-.45-.39-.78-.78-.72-.84s.47.2.92.6.78.84.72.84Z"/>
      <path class="cls-11" d="M87.33,768.03c-.43.17-.89.24-1.35.2-.46.05-.92.01-1.35-.13.43-.16.89-.23,1.35-.19.45-.06.92-.02,1.35.12Z"/>
      <path class="cls-11" d="M87.77,766.3c-.94.52-2.06.62-3.07.27.51-.08,1.03-.12,1.54-.12.5-.09,1.02-.15,1.53-.15Z"/>
      <path class="cls-11" d="M83.05,769.38c-.55.09-1.12.09-1.67,0-.6-.07-1.2-.19-1.78-.36-.35-.1-.69-.24-1.01-.41-.2-.1-.35-.27-.44-.48-.06-.25.04-.52.25-.67,1.3-.66,2.89-.3,3.79.85.26.32.45.7.55,1.11.07.28.07.44,0,.45-.17-.51-.44-.99-.78-1.41-.38-.44-.88-.75-1.44-.91-.65-.21-1.37-.15-1.98.16-.26.19-.15.51.14.67.3.17.61.3.94.39.56.19,1.14.33,1.72.42,1.06.12,1.7.12,1.7.2Z"/>
      <path class="cls-11" d="M82.61,769.48c-.21-.35-.28-.77-.2-1.18.05-.42.2-.82.44-1.18.28-.51.8-.84,1.38-.87.35.07.58.41.52.77-.03.26-.12.52-.27.74-.21.37-.48.72-.78,1.02-.52.52-.92.72-.94.68s.33-.31.78-.84c.26-.31.49-.65.68-1.01.22-.35.38-.98,0-1.05s-.85.38-1.09.72c-.23.32-.39.69-.46,1.08-.05.37-.06.74-.05,1.11Z"/>
      <path class="cls-11" d="M110.63,767.37c0,.06-.74-.06-1.92.09-3.11.37-5.73,2.51-6.71,5.49-.39,1.12-.41,1.87-.47,1.86-.04-.17-.04-.35,0-.52.04-.47.13-.94.27-1.4.91-3.13,3.65-5.37,6.9-5.65.47-.05.95-.05,1.42,0,.18,0,.35.05.51.13Z"/>
      <path class="cls-11" d="M107.8,756.62c.2,1.77.29,3.54.29,5.32.1,1.77.1,3.55,0,5.32-.2-1.76-.3-3.53-.29-5.31-.1-1.78-.1-3.56,0-5.33Z"/>
      <path class="cls-11" d="M98.16,772.48c-2.49.51-5.06.56-7.57.16,0-.09,1.71,0,3.79,0s3.78-.26,3.78-.16Z"/>
      <path class="cls-11" d="M103.27,772.41c.07.06-.13.35-.29.74s-.26.74-.35.73-.13-.4.06-.85.54-.69.59-.62Z"/>
      <path class="cls-11" d="M105.15,770c.07.06-.09.33-.36.61s-.53.45-.59.39.11-.33.36-.61.53-.45.59-.39Z"/>
      <path class="cls-11" d="M107.88,768.88c0,.08-.36.09-.74.22s-.65.35-.72.29.14-.42.61-.59.87-.01.85.07Z"/>
      <path class="cls-11" d="M109.83,768.34c0,.08-.12.22-.33.31s-.41.08-.45,0,.12-.22.33-.31.41-.08.45,0Z"/>
      <path class="cls-6" d="M187.95,769.02l.08-13.82-25.9-.32-.33,20.23,1.61.12c7.13.48,36.35,1.95,41.14.57,5.33-1.55-16.61-6.78-16.61-6.78Z"/>
      <g class="cls-17">
        <path class="cls-2" d="M171.14,775.02c-.36-2.19-1.51-4.17-3.24-5.57-1.7-1.38-3.84-2.08-6.03-1.95l-.09,7.24,9.36.28Z"/>
      </g>
      <g class="cls-17">
        <path class="cls-2" d="M198.66,771.96s7.69,2.35,6.71,3.53c-.98,1.18-30.55.88-43.55-.42v-.59l34.49.74s.85-3.21,2.35-3.26Z"/>
      </g>
      <path class="cls-11" d="M161.44,774.52h.45l1.27.09,4.71.27c3.97.19,9.42.38,15.54.47,6.12.09,11.57,0,15.55-.06l4.71-.13h1.73c-.15-.02-.3-.02-.45,0h-21.54c-6.07,0-11.56-.25-15.53-.38l-4.71-.16h-1.28l-.45-.11Z"/>
      <path class="cls-11" d="M196.32,775.67c.22-.78.52-1.53.91-2.24.47-.66,1.02-1.26,1.64-1.78-.81.28-1.49.85-1.9,1.61-.5.7-.73,1.55-.65,2.4Z"/>
      <path class="cls-11" d="M188.73,771.65c.07,0,.45-.39.84-.98s.64-1.11.57-1.18-.45.39-.84.98-.64,1.18-.57,1.18Z"/>
      <path class="cls-11" d="M186.64,770.56c.06.06.47-.2.93-.6s.77-.77.71-.84-.47.2-.92.6-.78.75-.72.84Z"/>
      <path class="cls-11" d="M185.35,768.12c.43.16.89.22,1.35.19.46.06.92.02,1.35-.13-.43-.16-.89-.22-1.34-.19-.46-.06-.93-.02-1.37.13Z"/>
      <path class="cls-11" d="M184.93,766.37c.94.52,2.05.62,3.06.27-.5-.09-1.02-.13-1.53-.13-.5-.1-1.02-.15-1.53-.14Z"/>
      <path class="cls-11" d="M189.63,769.44c.55.1,1.12.1,1.67,0,.6-.06,1.2-.18,1.78-.36.35-.1.69-.24,1.01-.4.2-.12.35-.3.42-.52.06-.25-.04-.52-.25-.67-1.3-.65-2.88-.3-3.78.85-.27.32-.46.7-.57,1.11-.03.15-.03.3,0,.45.17-.51.44-.99.78-1.41.38-.43.88-.75,1.44-.91.65-.21,1.37-.15,1.98.16.26.2.15.51-.14.68-.3.16-.62.29-.94.38-.56.19-1.13.34-1.72.44-1.05.16-1.68.16-1.68.21Z"/>
      <path class="cls-11" d="M190.07,769.54c.21-.35.28-.77.2-1.18-.05-.42-.2-.82-.44-1.18-.28-.51-.8-.84-1.38-.87-.35.08-.58.41-.52.77.03.27.13.53.27.75.22.37.48.71.78,1.01.52.52.92.72.94.68s-.33-.29-.78-.84c-.26-.31-.49-.64-.68-1-.22-.35-.38-.99,0-1.06s.84.38,1.08.72c.23.32.39.69.46,1.08.05.37.07.74.06,1.11Z"/>
      <path class="cls-11" d="M162.05,767.43s.75-.06,1.92.09c3.11.38,5.73,2.52,6.71,5.5.39,1.11.41,1.86.47,1.85.04-.17.04-.35,0-.52-.04-.48-.13-.95-.27-1.4-.45-1.52-1.34-2.88-2.57-3.9-1.24-1-2.75-1.61-4.33-1.75-.47-.05-.95-.05-1.42,0-.17.02-.34.07-.51.13Z"/>
      <path class="cls-11" d="M164.88,756.68c-.2,1.77-.29,3.54-.29,5.32-.1,1.78-.1,3.56,0,5.33.2-1.77.3-3.54.29-5.32.1-1.78.1-3.56,0-5.33Z"/>
      <path class="cls-11" d="M174.48,772.54c2.49.51,5.06.56,7.57.16,0-.08-1.71,0-3.79-.06s-3.77-.2-3.78-.11Z"/>
      <path class="cls-11" d="M169.41,772.47c-.07.06.13.35.29.75s.26.73.35.73.14-.41-.06-.86-.54-.68-.59-.62Z"/>
      <path class="cls-11" d="M167.53,770.07c-.07.06.09.33.36.6s.53.45.59.39-.11-.33-.36-.6-.51-.46-.59-.39Z"/>
      <path class="cls-11" d="M164.8,768.94c0,.09.36.09.74.24s.65.34.72.28-.14-.42-.61-.59-.87-.01-.85.07Z"/>
      <path class="cls-11" d="M162.9,768.39c0,.08.12.22.33.31s.41.09.45,0-.12-.21-.33-.31-.45-.07-.45,0Z"/>
      <polygon class="cls-11" points="202.68 516.6 190.89 765.76 158.56 766.52 161.1 550.49 112.71 766.93 85.18 765.69 128.35 517.11 202.68 516.6"/>
      <path class="cls-4" d="M169.03,519.97c0,1.37-.09,2.74-.29,4.1-.27,2.52-.68,5.99-1.18,9.83-.17,1.82-.47,3.63-.89,5.41-.37,1.5-1.2,2.85-2.35,3.87-.78.69-1.73,1.15-2.74,1.35-.37.09-.75.09-1.12,0,2.81-.48,5.04-2.63,5.64-5.41.38-1.76.65-3.55.82-5.34.51-3.83.99-7.3,1.38-9.79.13-1.36.38-2.7.74-4.01Z"/>
      <path class="cls-4" d="M161.07,521.45c.09.06-.21.47,0,1.12.1.35.34.64.67.8.41.15.87.05,1.18-.27.34-.29.48-.75.33-1.18-.15-.33-.42-.59-.77-.72-.64-.25-1.06,0-1.12-.06s.34-.58,1.25-.41c.51.12.95.47,1.18.94.33.91-.14,1.92-1.05,2.24-.42.15-.89.14-1.3-.04-.48-.26-.8-.73-.87-1.27-.08-.85.48-1.24.51-1.15Z"/>
      <path class="cls-4" d="M140.54,525.75c-1.02-2.23-.84-4.83.48-6.9.19.07-.32,1.55-.44,3.43-.12,1.87.15,3.37-.05,3.47Z"/>
      <path class="cls-4" d="M145.15,525.28c-.99-2.31-.91-4.94.24-7.18,0,1.18-.09,2.36-.24,3.53.07,1.22.07,2.43,0,3.65Z"/>
      <path class="cls-4" d="M184.95,524.82c-.07-1.24-.05-2.48.08-3.72-.1-1.24-.1-2.49,0-3.73.92,2.41.88,5.07-.11,7.45h.02Z"/>
      <path class="cls-4" d="M189.98,524.36c-.19-.07.35-1.71.41-3.79s-.35-3.75-.16-3.81c.71,1.14,1,2.49.84,3.83.07,1.35-.31,2.68-1.08,3.78Z"/>
      <path class="cls-12" d="M148.12,415.92l26.16-1.18c.15-2.78-1.27-20.01-1.27-20.01,0,0,9.89-1.53,10.02-11.42.13-9.89-1.6-32.58-1.6-32.58h0c-11.44-4.92-24.65-3.26-34.52,4.33l-1.46,1.18,2.68,59.68Z"/>
      <path class="cls-1" d="M173.02,394.63c-4.58.1-9.09-1.18-12.95-3.66,0,0,3.05,7.06,12.95,6.23v-2.57Z"/>
      <path class="cls-11" d="M179.24,366.26c.01.76-.59,1.4-1.35,1.42-.75.06-1.4-.5-1.46-1.24,0-.01,0-.02,0-.03,0-.76.59-1.39,1.35-1.42.74-.07,1.39.48,1.46,1.22,0,.02,0,.04,0,.05Z"/>
      <path class="cls-11" d="M179.55,364.67c-.16.19-1.24-.61-2.75-.6-1.52.01-2.64.77-2.8.58s.09-.41.58-.77c.66-.46,1.45-.7,2.25-.69.79,0,1.56.24,2.2.71.46.36.62.69.53.78Z"/>
      <path class="cls-11" d="M164.36,366.62c.01.76-.59,1.4-1.35,1.42-.75.06-1.4-.5-1.46-1.24,0-.01,0-.02,0-.03,0-.77.6-1.4,1.37-1.42.74-.06,1.39.49,1.45,1.23,0,.01,0,.03,0,.04Z"/>
      <path class="cls-11" d="M164.62,364.96c-.18.19-1.25-.61-2.77-.6-1.52.01-2.64.77-2.8.58s.09-.41.59-.77c.66-.46,1.44-.7,2.24-.69.79,0,1.56.24,2.2.71.47.36.62.69.54.78Z"/>
      <path class="cls-11" d="M170.13,376.22c.8-.25,1.63-.4,2.47-.45.39,0,.75-.12.82-.38.03-.41-.06-.82-.26-1.18l-1.18-2.95c-1.06-2.5-1.92-5.08-2.58-7.72,1.27,2.41,2.33,4.92,3.19,7.5l1.11,2.98c.24.47.31,1,.2,1.52-.11.28-.35.48-.64.57-.21.06-.44.09-.66.09-.82.12-1.66.13-2.48.02Z"/>
      <path class="cls-11" d="M165.66,377.33c.25,0,.26,1.64,1.67,2.81s3.17.99,3.18,1.18-.4.33-1.18.34c-.96.02-1.9-.31-2.65-.92-.72-.59-1.18-1.43-1.29-2.35-.02-.72.16-1.06.27-1.06Z"/>
      <path class="cls-11" d="M165.01,359c-.15.41-1.66.22-3.45.44-1.79.21-3.23.71-3.46.33-.11-.18.14-.57.73-.97.77-.5,1.65-.81,2.57-.89.91-.11,1.84,0,2.7.32.66.27.99.59.92.78Z"/>
      <path class="cls-11" d="M178.99,360.27c-.27.35-1.32,0-2.58,0s-2.35.24-2.57-.13c-.11-.18.06-.52.53-.85,1.28-.8,2.92-.75,4.14.13.45.33.59.68.47.85Z"/>
      <path class="cls-6" d="M127.77,450.66l-.55-40.67,10.59-3.53c3.33-.64,6.57-1.85,10.49-2.01h0c7.35,5.82,17.7,5.95,25.2.32l.35-.27c1.01.12,2.35.25,4.04.45h.33c4.19.53,8.17,2.11,11.57,4.61h0l52.64,31.43,30.91-23.54,15.66,12.28s-40.49,40.49-44.42,41.46c-2.72.67-29.73-14.13-46.11-23.21.67,9.81,4.33,64.3,4.16,71.8h-75.22l-.06-34.37v-9.36l.42-25.38Z"/>
      <path class="cls-11" d="M197.45,424.72c-.09.6-.11,1.21-.06,1.81,0,1.31.09,2.95.14,4.9.15,4.14.42,9.85.77,16.16.34,6.31.68,12.02.98,16.15.15,1.94.28,3.53.38,4.88.03.61.11,1.21.25,1.8.09-.6.11-1.2.06-1.8,0-1.32-.09-2.95-.15-4.91-.15-4.14-.41-9.85-.75-16.16-.34-6.31-.68-12.03-.98-16.16-.15-1.94-.28-3.53-.39-4.88-.02-.6-.1-1.2-.24-1.79Z"/>
      <path class="cls-11" d="M265.06,424.18c-.18.19,3.23,3.4,7.57,7.19,4.34,3.79,7.97,6.73,8.11,6.57s-3.27-3.34-7.62-7.14c-2.17-1.9-4.16-3.53-5.61-4.78-.76-.69-1.58-1.3-2.45-1.84Z"/>
      <path class="cls-11" d="M261.47,426.86c-.14.16,3.31,3.39,7.66,7.25,2.18,1.93,4.18,3.64,5.65,4.85.75.72,1.59,1.34,2.5,1.85-.62-.83-1.33-1.59-2.13-2.25-1.39-1.32-3.33-3.1-5.52-5.03-2.19-1.93-4.18-3.64-5.66-4.84-.75-.71-1.59-1.33-2.5-1.84Z"/>
      <path class="cls-11" d="M127.38,463.02c-.18,0-.22-6.47-.12-14.44.11-7.97.33-14.42.51-14.42s.21,6.46.11,14.43c-.11,7.97-.28,14.43-.49,14.43Z"/>
      <path class="cls-13" d="M138.29,519.01c-.06-.07-.12-.15-.16-.24l-.46-.73-1.7-2.83c-.92-1.48-1.75-3.02-2.51-4.59-1.07-2.11-1.44-4.5-1.06-6.84.48-2.59,2.02-5.04,3.15-7.78.59-1.41.92-2.91.98-4.44.03-1.63-.14-3.25-.51-4.84-.68-3.28-1.97-6.66-2.3-10.39-.26-3.83.09-7.68,1.01-11.41.86-3.83,1.92-7.5,2.67-11.09.36-1.76.64-3.53.82-5.32,0-.87.12-1.74.15-2.6s0-1.72,0-2.55c-.43-5.96-1.42-11.88-2.95-17.66-1.18-4.98-2.01-9.05-2.35-11.9-.2-1.42-.31-2.53-.35-3.28v-.86c-.01-.1-.01-.2,0-.29,0,0,0,.11.06.29s.07.51.12.85c.07.75.22,1.85.46,3.26.45,2.83,1.34,6.86,2.58,11.83,1.61,5.8,2.64,11.74,3.1,17.74v2.59c0,.87-.08,1.75-.13,2.65-.18,1.78-.46,3.53-.82,5.39-.75,3.63-1.81,7.29-2.66,11.09-.91,3.66-1.25,7.45-1.01,11.22.31,3.64,1.57,6.99,2.25,10.33.37,1.63.53,3.31.48,4.98-.06,1.58-.41,3.14-1.04,4.6-1.18,2.8-2.72,5.19-3.19,7.67-.39,2.25-.06,4.57.94,6.62.71,1.58,1.49,3.12,2.35,4.61l1.59,2.88.4.75c.06.18.09.27.08.27Z"/>
      <path class="cls-13" d="M154.66,409c.04.09.07.19.08.28l.19.84c.15.73.35,1.81.59,3.23.63,3.98.97,7.99,1.02,12.02.08,5.97-.43,11.94-1.54,17.81-1.18,6.63-3.13,13.8-3.77,21.51-.64,7.71.54,15.08,1.46,21.73.97,5.89,1.57,11.83,1.78,17.8.1,4.03-.37,8.06-1.41,11.96l-.26.98-.29.84-.49,1.31-.31.79c-.07.18-.12.27-.12.27-.01-.1-.01-.2,0-.29l.26-.81.42-1.32c.08-.26.18-.53.27-.84s.14-.64.22-.98c.93-3.89,1.33-7.9,1.18-11.9-.28-5.92-.92-11.82-1.92-17.66-.94-6.65-2.08-14.04-1.51-21.86s2.61-14.96,3.83-21.55c1.13-5.84,1.69-11.77,1.66-17.72-.02-4.01-.3-8.01-.82-11.98-.19-1.41-.35-2.51-.48-3.24,0-.34-.09-.62-.12-.85,0-.12.02-.24.08-.35Z"/>
      <path class="cls-13" d="M182.31,519.06l-.16-.25-.44-.75c-.24-.41-.44-.84-.6-1.29-.09-.26-.22-.54-.32-.86s-.16-.65-.26-1c-.38-1.74-.5-3.53-.38-5.31.18-2.35.49-4.68.93-6.99.55-2.77.9-5.58,1.05-8.4.05-3.22-.51-6.41-1.66-9.42-1.33-3.36-2.42-6.81-3.27-10.32-.6-3.86-.52-7.8.22-11.64.61-3.94,1.41-7.73,1.64-11.45.16-3.58-.12-7.16-.84-10.66-1.32-6.73-3.14-12.7-3.77-17.92-.64-4.09-.51-8.27.38-12.31.32-1.48.85-2.92,1.55-4.26-.02.1-.05.2-.09.29l-.31.81c-.38,1.05-.68,2.12-.92,3.2-.8,4.02-.86,8.16-.18,12.21.66,5.16,2.53,11.09,3.88,17.87.74,3.55,1.04,7.18.88,10.81-.21,3.78-1.02,7.6-1.64,11.51-.73,3.77-.81,7.63-.24,11.43.83,3.49,1.91,6.91,3.21,10.25.56,1.6,1,3.23,1.32,4.9.28,1.58.39,3.18.32,4.78-.18,2.85-.58,5.68-1.18,8.48-.46,2.29-.8,4.6-1.01,6.92-.15,1.75-.06,3.52.27,5.25.36,1.44.89,2.83,1.59,4.14Z"/>
      <path class="cls-13" d="M192.26,413.3c.04.09.07.18.09.27l.22.79c.21.69.44,1.73.69,3.08.6,3.84.75,7.73.46,11.61-.28,4.9-1.24,10.68-2.12,17.08-.91,6.95-1.35,13.95-1.31,20.96.27,12.74,1.41,25.45,3.39,38.04.72,4.8,1.31,8.71,1.72,11.48.2,1.31.34,2.35.46,3.12,0,.33.07.59.11.81.01.09.01.19,0,.28-.04-.09-.07-.18-.08-.27,0-.22-.09-.48-.15-.81-.14-.75-.33-1.79-.58-3.1-.47-2.7-1.18-6.6-1.91-11.44-2.1-12.6-3.28-25.34-3.53-38.11-.04-7.04.41-14.07,1.37-21.05.92-6.42,1.9-12.16,2.24-17.03.33-3.84.25-7.71-.26-11.54-.21-1.34-.4-2.35-.58-3.1l-.16-.8c-.04-.09-.06-.18-.07-.28Z"/>
      <path class="cls-13" d="M210.39,455.38c-.11-.38-.17-.78-.18-1.18-.07-.78-.15-1.91-.22-3.31-.15-2.79-.28-6.65-.29-10.92s.07-8.13.2-10.92c.07-1.4.13-2.53.2-3.31,0-.4.06-.79.15-1.18.08.39.11.78.08,1.18v14.22c0,4.18.08,7.97.12,10.91v3.31c.03.4,0,.8-.06,1.2Z"/>
      <path class="cls-13" d="M221.76,428.87c-.16.37-.34.73-.54,1.07-.47.97-.7,2.03-.68,3.11,0,1.35.28,3,.47,4.81s.62,3.79.89,5.89c.26,1.99.3,4.01.12,6.01-.13,1.65-.52,3.28-1.18,4.8-.45,1.01-1.03,1.96-1.73,2.83-.49.61-.81.91-.85.88.83-1.23,1.56-2.52,2.18-3.87,1.11-3.42,1.39-7.05.82-10.59-.26-2.08-.65-4.07-.85-5.89-.21-1.62-.32-3.26-.34-4.9.02-1.13.33-2.24.91-3.21.2-.36.46-.68.78-.94Z"/>
      <g class="cls-16">
        <path class="cls-2" d="M233.98,437.36c-.79.63-1.42,1.44-1.84,2.35-2.55,4.03-7.6,5.65-10.98,9-2.58,2.58-4.64,5.63-4.65,9.28l5.52,2.51,14.36-22.36c-.13-1.02-1.55-1.34-2.41-.78Z"/>
      </g>
      <path class="cls-12" d="M293.56,402.21c.06-2.88,1.68-5.49,4.23-6.83.4-.23.85-.36,1.31-.36.47,0,.89.27,1.08.69.13.48-.01.99-.38,1.33-.37.33-.76.63-1.18.91-1.19.99-1.74,2.54-1.45,4.06"/>
      <path class="cls-12" d="M297.09,404.31c-.02.6-.4,1.13-.97,1.34l-7.06,2.67c-1.08.41-2.53.72-3.2-.22-.41-.71-.29-1.6.28-2.18.57-.54,1.25-.94,2-1.18,2.72-1.18,5.7-2.28,8.45-3.43.2-.09.44.01.52.22.02.06.03.12.03.19l-.06,2.59Z"/>
      <path class="cls-12" d="M297.36,406.67c.32,1.45-.46,2.91-1.85,3.45l-6.56,2.52c-1.08.41-2.53.72-3.2-.21-.41-.71-.29-1.6.28-2.18.57-.54,1.25-.94,2-1.18,2.6-1.08,5.44-2.18,8.07-3.26.44-.19.94.02,1.13.45.02.05.04.1.05.16l.07.25Z"/>
      <path class="cls-12" d="M296.18,410.19c.51,2.13-.64,4.3-2.68,5.07l-5.46,2.08c-1.08.41-2.53.72-3.2-.22-.4-.71-.28-1.59.28-2.18.58-.53,1.26-.94,2.01-1.18,2.91-1.18,6.12-2.45,9.02-3.66l.04.08Z"/>
      <path class="cls-11" d="M181.55,336.6c-3.98-.74-7.68,3.12-11.75,2.78-2.47-.2-4.52-1.91-6.81-2.84-1.79-.72-3.72-1.03-5.65-.89-1.93.14-3.8.71-5.46,1.68-3.1,1.95-4.97,3.99-5.06,7.64-3.18-1.37-7.76,2.88-9.06,6.64-1.29,3.76-.45,7.41.99,11.14,2.41,6.43,6.08,12.33,10.8,17.37.42.45,1.05.92,1.58.61.16-.14.29-.31.37-.51.08-.2.11-.41.09-.62.18-3.57-.69-7.09-1.39-10.59s-1.27-7.12-.52-10.62c.76-3.5,3.08-6.84,6.55-7.93,2.62-.66,5.4-.39,7.83.77,2.47,1.03,4.71,2.52,7.09,3.73,2.33,1.35,4.98,2.04,7.68,2,2.67-.18,5.39-1.73,6.25-4.22s-.78-5.73-3.46-5.98c1.19-.25,2.26-.89,3.03-1.82s1.18-2.1,1.17-3.3-.44-2.36-1.22-3.28c-.78-.92-1.86-1.55-3.05-1.78h0Z"/>
      <path class="cls-11" d="M177.66,345.78c-1.28-1.79-2.98-3.24-4.97-4.22-4.21-2.32-9.05-3.27-13.84-2.72-4.8.58-9.19,2.98-12.23,6.67-2.31,3.03-3.67,6.66-3.91,10.45-.33,4.13.1,8.29,1.28,12.27.53,1.56,1.54,2.01,2.86,3.03.83.63,2.14.98,2.86.2.38-.48.58-1.08.58-1.69.55-5.47.99-11.34-1.71-16.13,1.01-1.94,2.42-3.65,4.15-5.02.86-.68,1.85-1.19,2.92-1.5,1.06-.3,2.18-.4,3.28-.27,3.25.49,5.6,3.18,8.38,4.89,2.01,1.2,4.28,1.92,6.63,2.09,2.34.17,4.7-.21,6.86-1.11l-3.14-6.92h0Z"/>
      <path class="cls-3" d="M137.88,360.41c0-.08.76-.1,1.92-.34,3.05-.65,5.75-2.4,7.58-4.89.69-.98.99-1.62,1.07-1.59-.15.64-.43,1.24-.81,1.77-.86,1.33-2,2.47-3.34,3.33-1.34.87-2.85,1.45-4.43,1.7-.65.13-1.32.14-1.98.02h0Z"/>
      <path class="cls-3" d="M138.69,362.36c0-.08.74-.1,1.91-.34,3.05-.65,5.76-2.39,7.58-4.89.7-.98.99-1.62,1.07-1.59-.15.64-.42,1.24-.81,1.77-.86,1.33-2,2.47-3.34,3.33-1.34.87-2.85,1.45-4.43,1.7-.65.13-1.32.13-1.97.02h0Z"/>
      <path class="cls-12" d="M146.65,366.47c-.16-.07-6.79-2.01-6.57,4.71.22,6.72,6.96,5.16,6.96,4.96s-.39-9.66-.39-9.66Z"/>
      <path class="cls-1" d="M144.89,373.68s-.12.09-.32.19c-.28.11-.59.11-.87,0-.91-.53-1.46-1.52-1.44-2.58-.04-.58.06-1.16.28-1.7.12-.43.43-.77.85-.93.28-.08.58.05.71.31.09.19.06.32.09.33s.14-.12.08-.4c-.05-.16-.15-.31-.28-.41-.19-.14-.43-.19-.66-.15-.55.14-1,.55-1.18,1.09-.27.59-.39,1.24-.35,1.9-.03,1.23.69,2.36,1.81,2.86.37.09.76.02,1.07-.21.19-.18.22-.28.2-.29Z"/>
    </g>
    <g>
      <path class="cls-14" d="M169.86,472.06h2.68s9.39,0,9.39,0h2.68,0s.02,0,.03,0c.25,0,.46.21.46.46,0,.25-.21.46-.46.46-.04,0-.07-.01-.1-.02l-1.63,19.31h-.98s-9.39,0-9.39,0h-.98s-1.63-19.3-1.63-19.3c-.03,0-.05.02-.08.02-.25,0-.46-.21-.46-.46,0-.25.21-.46.46-.46Z"/>
      <g>
        <polygon class="cls-9" points="170.57 480.36 183.93 480.36 184.24 476.76 170.26 476.76 170.57 480.36"/>
        <polygon class="cls-6" points="171.17 487.55 183.31 487.55 183.62 483.95 170.87 483.95 171.17 487.55"/>
      </g>
      <g>
        <path class="cls-6" d="M174.32,481.46c-.36,0-.71,0-1.07,0-.03,0-.03,0-.03.03,0,.31,0,.62,0,.93,0,0,0,0,0,0,0,.05.02.06.06.06.08,0,.15,0,.23,0,0,0,.02,0,.03,0,.02,0,.02,0,.01-.02,0-.02-.01-.04-.02-.06-.01-.06-.02-.12-.02-.19,0-.05.01-.09.03-.14.06-.22.21-.36.42-.43.1-.03.2-.03.31,0,.22.05.37.18.45.39.04.1.05.21.03.31,0,.04,0,.07-.02.11,0,.01,0,.02.01.02,0,0,.01,0,.02,0,.2,0,.4,0,.59,0,.04,0,.06-.03.06-.06,0-.31,0-.63,0-.94,0-.03,0-.03-.03-.03-.29,0-.57,0-.86,0-.07,0-.14,0-.22,0h0Z"/>
        <path class="cls-6" d="M181.27,481.9c0,.28,0,.56,0,.84,0,.03,0,.03-.03.03-.11,0-.22,0-.33,0-.1,0-.2-.02-.29-.05-.13-.05-.23-.12-.32-.22-.1-.1-.17-.22-.21-.36-.04-.15-.04-.3,0-.44.03-.12.08-.22.15-.32.1-.13.23-.23.38-.29.04-.01.08-.03.12-.03.04,0,.08-.02.12-.02.09,0,.17,0,.26,0,.04,0,.08,0,.12,0,.02,0,.02,0,.02.02,0,0,0,0,0,.01,0,.28,0,.56,0,.83h0ZM180.93,481.9c0-.16,0-.32,0-.49,0-.04,0-.03-.03-.03-.14,0-.26.07-.35.18-.06.06-.09.14-.11.22-.02.09-.02.17,0,.26.05.17.15.28.31.35.05.02.11.03.16.03.03,0,.03,0,.03-.03,0-.17,0-.33,0-.5h0Z"/>
        <path class="cls-6" d="M176.89,482.8c-.22-.46-.44-.92-.67-1.38.01,0,.02,0,.03,0,.2,0,.39,0,.59,0,0,0,.01,0,.02,0,.01,0,.01,0,.01-.01,0-.02,0-.03,0-.05,0-.09,0-.17,0-.26,0-.03,0-.03-.03-.03-.28,0-.56,0-.83,0-.11,0-.21,0-.32,0,0,0-.01,0-.02,0,.22.46.44.92.66,1.38-.01,0-.02,0-.03,0-.19,0-.39,0-.58,0,0,0-.01,0-.02,0-.02,0-.03,0-.02.03,0,.08,0,.15,0,.23,0,.03,0,.05,0,.08,0,.02,0,.02.02.02,0,0,0,0,.01,0h1.17s0,0,0,0Z"/>
        <path class="cls-10" d="M174.32,481.36c-.35,0-.71,0-1.06,0,0,0-.01,0-.02,0-.01,0-.02,0-.02-.02,0-.07,0-.14,0-.22,0-.03.02-.05.05-.05,0,0,.01,0,.02,0,.69,0,1.38-.01,2.07-.02.05,0,.07.03.07.06,0,.06,0,.12,0,.18,0,.04,0,.03-.03.03-.36,0-.71,0-1.07,0h0ZM173.9,481.23s-.02-.05-.06-.06c-.03,0-.06.03-.06.06,0,.03.03.06.06.06.03,0,.06-.03.06-.06h0ZM173.64,481.29s.06-.03.06-.06c0-.03-.03-.06-.06-.06-.01,0-.03,0-.04.01-.01.01-.01.03-.02.04,0,.03.03.06.06.06h0ZM173.43,481.29s.05-.03.05-.06c0-.03-.03-.06-.06-.06-.01,0-.03,0-.04.01-.01.01-.01.03-.02.04,0,.03.03.06.06.06Z"/>
        <path class="cls-6" d="M178.53,482.78c-.27-.58-.53-1.15-.79-1.73,0,0-.01,0-.01.01-.05.12-.11.24-.16.37,0,.01,0,.02,0,.03.09.2.17.4.26.6.1.22.21.45.31.67.01.03.04.04.07.04h.32s0,0,0,0Z"/>
        <path class="cls-6" d="M180.18,482.77c-.26-.58-.53-1.15-.79-1.72-.01,0-.01.01-.02.02-.05.12-.1.24-.16.35,0,.01,0,.02,0,.04.05.12.1.24.15.36.11.24.22.48.33.72.03.07.07.15.1.22,0,.01.01.02.03.02.11,0,.22,0,.33,0,0,0,0,0,.02,0h0Z"/>
        <path class="cls-8" d="M174.13,481.74c.08,0,.16.01.22.04.08.04.15.09.2.16.05.07.09.15.1.24.01.11,0,.21-.04.31,0,.02-.01.02.01.04.19.14.38.28.57.41.06.04.11.08.17.12.04.03.06.09.04.14-.04.1-.15.1-.2.06-.03-.03-.06-.05-.09-.08-.2-.17-.4-.33-.6-.5t-.04,0c-.07.06-.15.1-.25.11-.08.01-.15.01-.23-.01-.1-.03-.19-.08-.25-.16-.09-.1-.13-.23-.13-.36,0-.14.06-.26.15-.36.06-.06.13-.11.22-.13.05-.02.1-.03.14-.02h0ZM173.72,482.27c0,.24.19.43.43.42.24,0,.42-.2.42-.44,0-.24-.19-.42-.43-.42-.23,0-.42.19-.42.43Z"/>
        <path class="cls-6" d="M176.97,482.8h.07c.09,0,.19,0,.28,0,.02,0,.03,0,.03-.02.03-.07.06-.14.09-.21,0-.02.02-.03.04-.03.08,0,.16,0,.24,0,0,0,.02,0,.03,0-.11-.26-.22-.51-.32-.77,0,0,0,0-.01,0-.15.34-.3.68-.45,1.03Z"/>
        <path class="cls-10" d="M179.08,481.74s-.02.01-.02.02c-.01.04-.03.07-.04.1-.01.03-.02.05-.04.08-.01.03-.03.06-.04.09-.01.03-.03.06-.04.09-.01.03-.02.05-.03.08-.01.03-.03.07-.04.1-.01.03-.02.06-.04.09-.01.03-.03.06-.04.09-.01.03-.02.05-.04.08-.01.03-.03.06-.04.1-.01.03-.02.06-.04.09,0,0-.01.02,0,.03,0,0,.02,0,.02,0,.11,0,.21,0,.32,0,.02,0,.03,0,.03-.02.02-.04.03-.08.05-.11.02-.04.04-.08.05-.12,0,0,0,0,.01,0,0,0,.01,0,.02,0,.08,0,.16,0,.24,0,0,0,.02,0,.03,0,0-.02,0-.03-.01-.04-.03-.06-.05-.12-.08-.19-.02-.06-.05-.11-.07-.17-.03-.06-.05-.12-.08-.18-.02-.06-.05-.11-.07-.17,0,0,0-.02-.01-.03h0Z"/>
        <path class="cls-6" d="M174.41,482.47s0-.07-.04-.09c-.02-.02-.04-.04-.05-.05,0,0-.02-.01-.03-.01-.02,0-.05,0-.07,0-.01,0-.02,0-.02.02,0,0,0,0,0,0,0,.03,0,.06,0,.08,0,.02.04.04.05.06.01.01.03.02.04.04,0,0,.01.01.03.01.02,0,.05,0,.07,0,.01,0,.02,0,.02-.02,0-.01,0-.03,0-.04h0Z"/>
        <path class="cls-10" d="M173.95,482.53s.05,0,.08-.04c.02-.02.04-.04.06-.06,0,0,.01-.01.01-.03,0-.03,0-.05,0-.08,0-.01,0-.02-.02-.02-.03,0-.05,0-.08,0,0,0-.02,0-.02.01-.03.03-.06.06-.08.09,0,0,0,.01,0,.02,0,.03,0,.05,0,.08,0,.01,0,.02.02.02.01,0,.03,0,.05,0Z"/>
        <path class="cls-10" d="M174.35,482s-.06,0-.08.04c-.02.02-.04.04-.05.06,0,0-.01.01-.01.02,0,.03,0,.05,0,.08,0,0,0,.01.01.01.03,0,.05,0,.08,0,0,0,.01,0,.02,0,.03-.03.06-.06.09-.09,0,0,0-.01,0-.02,0-.03,0-.05,0-.08,0,0,0-.01-.01-.01-.01,0-.03,0-.05,0Z"/>
        <path class="cls-6" d="M174.04,482.21s.02,0,.04,0c.01,0,.02,0,.02-.02,0-.03,0-.05,0-.08,0,0,0-.01-.01-.02-.03-.03-.06-.06-.09-.08,0,0-.01,0-.02,0-.03,0-.05,0-.08,0,0,0-.01,0-.01.01,0,.03,0,.06,0,.08,0,.01,0,.02.01.02.03.03.05.05.08.08,0,0,.02.01.03.01.01,0,.02,0,.03,0h0Z"/>
        <path class="cls-6" d="M181.13,483.17s-.03-.03-.04-.04c0-.02-.01-.04-.01-.07,0-.03,0-.05.01-.07,0-.02.02-.03.04-.04.02-.01.04-.02.06-.02h.08s0,.26,0,.26h-.08s-.05,0-.07-.01ZM181.25,482.96h-.05s-.04,0-.05.01c-.01,0-.02.02-.03.04,0,.02,0,.03,0,.05,0,.02,0,.04.01.05s.02.03.03.03c.01,0,.03.01.05.01h.05s0-.2,0-.2ZM180.94,483.19s-.01,0-.02-.01c0,0,0,0-.01-.01h0v.03s-.03,0-.03,0v-.13s0-.03,0-.04c0,0,.01-.02.02-.02,0,0,.02,0,.02,0,0,0,.02,0,.02,0,0,0,.02,0,.03,0,.01,0,.02,0,.03.01,0,0,.02.02.02.03h-.03s0,0-.02,0c0,0-.02,0-.03,0-.01,0-.02,0-.03.01,0,0-.01.02,0,.03h0s0,0,0,.01c0,0,0,0,.02,0,0,0,.02,0,.03,0,0,0,.02,0,.03,0,0,0,.02,0,.02,0,0,0,.01,0,.02.02,0,0,0,.02,0,.03,0,.01,0,.02,0,.03,0,0-.01.02-.02.02,0,0-.02,0-.03,0-.01,0-.02,0-.03,0ZM181,483.16s.01-.01.01-.02c0,0,0-.01,0-.02,0,0,0,0-.02,0,0,0-.01,0-.02,0,0,0,0,0-.01,0,0,0-.01,0-.02,0,0,0-.01,0-.01,0,0,0,0,0,0,0v.03s0,.02,0,.02c0,0,.01.01.02.02,0,0,.02,0,.03,0,.01,0,.02,0,.03,0ZM180.84,483v.03s-.1,0-.1,0v-.03s.1,0,.1,0ZM180.82,483.14s0,.02,0,.03c0,0-.01.01-.02.02,0,0-.02,0-.02,0,0,0-.01,0-.01,0,0,0,0,0,0,0v-.03s0,0,.01,0c0,0,0,0,0,0,0,0,0,0,.01,0,0,0,0,0,0,0,0,0,0-.01,0-.02v-.18s.03,0,.03,0v.19ZM180.61,483.19s-.01,0-.02-.01c0,0,0,0-.01-.01h0s0,.03,0,.03h-.03s0-.13,0-.13c0-.02,0-.03,0-.04s.01-.02.02-.02c0,0,.02,0,.02,0,0,0,.02,0,.02,0,0,0,.02,0,.03,0,.01,0,.02,0,.03.01,0,0,.02.02.02.03h-.03s0,0-.02,0c0,0-.02,0-.03,0-.01,0-.02,0-.03.01,0,0-.01.02,0,.03h0s0,0,0,.01c0,0,0,0,.02,0,0,0,.02,0,.03,0,0,0,.02,0,.03,0,0,0,.02,0,.02,0,0,0,.01,0,.02.02,0,0,0,.02,0,.03,0,.01,0,.02,0,.03,0,0-.01.02-.02.02,0,0-.02,0-.03,0-.01,0-.02,0-.03,0ZM180.67,483.16s.01-.01.01-.02c0,0,0-.01,0-.02,0,0,0,0-.02,0,0,0-.01,0-.02,0,0,0,0,0-.01,0,0,0-.01,0-.02,0,0,0-.01,0-.01,0,0,0,0,0,0,0v.03s0,.02,0,.02c0,0,.01.01.02.02,0,0,.02,0,.03,0,.01,0,.02,0,.03,0ZM180.31,482.98h0l-.08.22h-.03s.09-.26.09-.26h.03s.1.26.1.26h-.03s-.08-.22-.08-.22ZM180.37,483.12h-.13s0-.03,0-.03h.13s0,.03,0,.03ZM180.04,483.19s-.02-.01-.03-.02c0,0-.01-.02-.01-.03h.03s0,.01,0,.02c0,0,0,0,.02.01,0,0,.01,0,.02,0,.01,0,.02,0,.03,0,0,0,.02-.01.02-.03,0-.01,0-.02,0-.04,0-.01,0-.03,0-.04,0-.01-.01-.02-.02-.03,0,0-.02,0-.03,0-.01,0-.02,0-.03.01,0,0-.01.01-.01.02h-.03s0-.02.01-.03c0,0,.02-.02.03-.02s.02,0,.04,0c.02,0,.03,0,.05.01.01,0,.02.02.03.04,0,.01.01.03.01.05,0,.02,0,.04-.01.05,0,.02-.02.03-.03.04-.01,0-.03.01-.05.01-.01,0-.03,0-.04,0ZM179.85,483.19s-.02-.01-.03-.02c0,0-.01-.02-.01-.03h.03s0,.01,0,.02c0,0,0,0,.02.01s.01,0,.02,0c.01,0,.02,0,.03,0,0,0,.02-.01.02-.03,0-.01,0-.02,0-.04,0-.01,0-.03,0-.04,0-.01-.01-.02-.02-.03,0,0-.02,0-.03,0-.01,0-.02,0-.03.01,0,0-.01.01-.01.02h-.03s0-.02.01-.03c0,0,.02-.02.03-.02.01,0,.02,0,.04,0,.02,0,.03,0,.05.01.01,0,.02.02.03.04,0,.01.01.03.01.05,0,.02,0,.04-.01.05,0,.02-.02.03-.03.04-.01,0-.03.01-.05.01-.01,0-.03,0-.04,0ZM179.64,483.19s-.02-.02-.03-.03c0-.01-.01-.03-.01-.05,0-.02,0-.04.01-.05,0-.02.02-.03.03-.04.01,0,.03-.01.05-.01.02,0,.03,0,.05.01.01,0,.02.02.03.03,0,.01.01.03.01.05,0,.02,0,.04-.01.05,0,.02-.02.03-.03.04-.01,0-.03.01-.05.01-.02,0-.03,0-.05-.01ZM179.72,483.17s.01-.02.02-.03c0-.01,0-.02,0-.04,0-.01,0-.02,0-.04,0-.01-.01-.02-.02-.03,0,0-.02-.01-.03-.01-.01,0-.02,0-.03.01,0,0-.01.02-.02.03s0,.02,0,.04c0,.01,0,.02,0,.04,0,.01.01.02.02.03,0,0,.02.01.03,0,.01,0,.02,0,.03-.01ZM179.44,483.15s.01.01.02.02c0,0,.02,0,.02,0,.01,0,.02,0,.03-.01,0,0,.01-.02.01-.03v-.12s.03,0,.03,0v.12s0,.03,0,.04c0,.01-.01.02-.02.02,0,0-.02,0-.03,0-.01,0-.03,0-.04,0,0,0-.02-.02-.02-.02h0s0,.03,0,.03h-.03s0-.19,0-.19h.03s0,.11,0,.11c0,.01,0,.02,0,.03ZM179.31,483.06s-.01-.01-.02-.02c0,0-.02,0-.03,0-.01,0-.02,0-.03.01,0,0-.01.02-.01.04v.12s-.03,0-.03,0v-.12s0-.03,0-.04c0-.01.01-.02.02-.02,0,0,.02,0,.03,0,.01,0,.03,0,.04,0,0,0,.02.01.02.02h0s0-.03,0-.03h.03s0,.19,0,.19h-.03s0-.12,0-.12c0-.01,0-.02,0-.03ZM179.15,483.01v.03s-.1,0-.1,0v-.03s.1,0,.1,0ZM179.12,483.16s0,.02,0,.03c0,0-.01.01-.02.02,0,0-.02,0-.02,0,0,0-.01,0-.01,0,0,0,0,0,0,0v-.03s0,0,.01,0c0,0,0,0,0,0,0,0,0,0,.01,0,0,0,0,0,0,0,0,0,0-.01,0-.02v-.18s.03,0,.03,0v.19ZM178.92,483.21s-.01,0-.02-.01c0,0,0,0-.01-.01h0v.03s-.03,0-.03,0v-.13s0-.03,0-.04.01-.02.02-.02c0,0,.02,0,.02,0,0,0,.02,0,.02,0,0,0,.02,0,.03,0,.01,0,.02,0,.03.01,0,0,.02.02.02.03h-.03s0,0-.02,0c0,0-.02,0-.03,0-.01,0-.02,0-.03.01,0,0-.01.02,0,.03h0s0,0,0,.01c0,0,0,0,.02,0,0,0,.02,0,.03,0,0,0,.02,0,.03,0,0,0,.02,0,.02,0,0,0,.01,0,.02.02,0,0,0,.02,0,.03,0,.01,0,.02,0,.03,0,0-.01.02-.02.02,0,0-.02,0-.03,0-.01,0-.02,0-.03,0ZM178.98,483.18s.01-.01.01-.02c0,0,0-.01,0-.02,0,0,0,0-.02,0,0,0-.01,0-.02,0,0,0,0,0-.01,0,0,0-.01,0-.02,0,0,0-.01,0-.01,0,0,0,0,0,0,0v.03s0,.02,0,.02c0,0,.01.01.02.02,0,0,.02,0,.03,0,.01,0,.02,0,.03,0ZM178.78,483.21v-.03s0,0,0,0c0,0,0,0,0,.01,0,0,0,.01-.02.01,0,0-.02,0-.03,0-.02,0-.03,0-.04-.01-.01,0-.02-.02-.03-.03,0-.01-.01-.03-.01-.05,0-.02,0-.04.01-.05,0-.01.02-.03.03-.03.01,0,.03-.01.04-.01.01,0,.02,0,.03,0,0,0,.01,0,.02.01,0,0,0,0,0,.01h0s0-.1,0-.1h.03s0,.26,0,.26h-.03ZM178.77,483.07s-.01-.02-.02-.03c0,0-.02,0-.03,0-.01,0-.02,0-.03,0,0,0-.01.02-.02.03,0,.01,0,.02,0,.04,0,.01,0,.03,0,.04,0,.01.01.02.02.03,0,0,.02,0,.03,0,.01,0,.02,0,.03,0,0,0,.01-.02.02-.03,0-.01,0-.02,0-.04,0-.01,0-.03,0-.04ZM178.56,483.21v-.19s.03,0,.03,0v.19s-.03,0-.03,0ZM178.56,482.98s0,0,0-.01c0,0,0-.01,0-.01,0,0,0,0,.01,0s.01,0,.02,0c0,0,0,0,0,.01,0,0,0,.01,0,.01,0,0,0,0-.01,0,0,0-.01,0-.01,0ZM178.5,482.95v.26s-.03,0-.03,0v-.26s.03,0,.03,0ZM178.39,483.21v-.19s.03,0,.03,0v.19s-.03,0-.03,0ZM178.39,482.98s0,0,0-.01c0,0,0-.01,0-.01,0,0,0,0,.01,0,0,0,.01,0,.02,0,0,0,0,0,0,.01,0,0,0,.01,0,.01,0,0,0,0-.01,0,0,0-.01,0-.01,0ZM178.35,483.02v.03s-.1,0-.1,0v-.03s.1,0,.1,0ZM178.32,483.16s0,.02,0,.03c0,0-.01.01-.02.02,0,0-.02,0-.02,0,0,0-.01,0-.01,0,0,0,0,0,0,0v-.03s0,0,.01,0c0,0,0,0,0,0,0,0,0,0,.01,0,0,0,0,0,0,0,0,0,0-.01,0-.02v-.18s.03,0,.03,0v.19ZM178.16,483.28s-.01,0-.02-.01c0,0-.01-.01-.01-.02l-.08-.22h.03s.05.15.05.15h0l.05-.15h.03s-.07.2-.07.2v.02s.01.02.02.02c0,0,0,0,.01,0,0,0,.01,0,.02,0v.03s0,0,0,0c0,0,0,0-.01,0,0,0-.02,0-.02,0ZM177.93,483.02v.03s-.1,0-.1,0v-.03s.1,0,.1,0ZM177.87,483.21v-.21s0-.02,0-.02c0,0-.01,0-.02,0,0,0,0,0-.01,0,0,0,0,0,0,0v-.03s0,0,0,0c0,0,.01,0,.02,0,0,0,.02,0,.03,0,0,0,.02,0,.02.02,0,0,0,.02,0,.03v.22s-.03,0-.03,0ZM177.75,483.21v-.12s0-.02,0-.02c0,0-.01-.01-.02-.02,0,0-.02,0-.03,0,0,0,0,0-.01,0,0,0,0,0,0,0v-.03s0,0,0,0c0,0,0,0,0,0,.01,0,.02,0,.03,0,0,0,.02.01.02.02h0v-.03s.03,0,.03,0v.19s-.03,0-.03,0ZM177.53,483.21s-.02-.02-.03-.03c0-.01-.01-.03-.01-.05,0-.02,0-.04.01-.05,0-.02.02-.03.03-.04.01,0,.03-.01.05-.01.02,0,.03,0,.05.01.01,0,.02.02.03.03,0,.01.01.03.01.05,0,.02,0,.04-.01.05,0,.02-.02.03-.03.04-.01,0-.03.01-.05.01-.02,0-.03,0-.05-.01ZM177.61,483.18s.01-.02.02-.03,0-.02,0-.04c0-.01,0-.02,0-.04,0-.01-.01-.02-.02-.03,0,0-.02-.01-.03-.01-.01,0-.02,0-.03.01,0,0-.01.02-.02.03s0,.02,0,.04c0,.01,0,.02,0,.04,0,.01.01.02.02.03,0,0,.02.01.03,0,.01,0,.02,0,.03-.01ZM177.41,483.22v-.12s0-.02,0-.03c0,0,0-.01-.02-.02,0,0-.01,0-.02,0-.01,0-.02,0-.03.01,0,0-.01.02-.01.03v.13s-.03,0-.03,0v-.13s0-.02-.01-.03c0,0-.02-.01-.03-.01-.01,0-.02,0-.03,0,0,0-.01.02-.01.03v.13s-.03,0-.03,0v-.13s0-.04.02-.05c.01-.01.03-.02.04-.02.01,0,.03,0,.04,0,0,0,.02.01.02.02h0s.01-.02.02-.02c0,0,.02,0,.03,0,.01,0,.02,0,.03,0,0,0,.02.01.02.02h0v-.03s.03,0,.03,0v.19s-.03,0-.03,0ZM176.94,483h0l-.08.22h-.03s.09-.26.09-.26h.03s.1.26.1.26h-.03s-.08-.22-.08-.22ZM177.01,483.15h-.13s0-.03,0-.03h.13s0,.03,0,.03ZM176.71,483.03v.03s-.1,0-.1,0v-.03s.1,0,.1,0ZM176.68,483.18s0,.02,0,.03c0,0-.01.01-.02.02,0,0-.02,0-.02,0,0,0-.01,0-.01,0,0,0,0,0,0,0v-.03s0,0,.01,0c0,0,0,0,0,0,0,0,0,0,.01,0,0,0,0,0,0,0,0,0,0-.01,0-.02v-.18s.03,0,.03,0v.19ZM176.44,483.22s-.02-.02-.03-.03c0-.01-.01-.03-.01-.05,0-.02,0-.04.01-.05,0-.02.02-.03.03-.04.01,0,.03-.01.05-.01.02,0,.03,0,.05.01.01,0,.02.02.03.03,0,.01.01.03.01.05,0,.02,0,.04-.01.05,0,.02-.02.03-.03.04-.01,0-.03.01-.05.01-.02,0-.03,0-.05-.01ZM176.52,483.19s.01-.02.02-.03c0-.01,0-.02,0-.04s0-.02,0-.04c0-.01-.01-.02-.02-.03,0,0-.02-.01-.03-.01-.01,0-.02,0-.03.01,0,0-.01.02-.02.03s0,.02,0,.04c0,.01,0,.02,0,.04,0,.01.01.02.02.03,0,0,.02.01.03,0,.01,0,.02,0,.03-.01ZM176.08,483.23v-.03s.14,0,.14,0l-.14-.21v-.02s.18,0,.18,0v.03s-.14,0-.14,0l.14.21v.02s-.18,0-.18,0ZM175.92,483.23s-.02,0-.03-.02c0,0-.01-.02-.02-.03h.03s0,0,.01,0c0,0,.01,0,.02,0,0,0,.01,0,.02,0,.01,0,.02,0,.03,0,0,0,.02-.01.02-.02,0-.01,0-.02,0-.04v-.02s0-.02,0-.03c0,0-.01-.02-.02-.02,0,0-.02,0-.03,0-.01,0-.02,0-.03,0,0,0-.01.01-.02.02,0,0,0,.02,0,.03h.12s0,.02,0,.02h-.15s0-.01,0-.01c0-.02,0-.03,0-.05,0-.01.01-.02.02-.03,0,0,.02-.01.03-.02,0,0,.02,0,.03,0,.02,0,.03,0,.05.01.01,0,.02.02.03.04,0,.02.01.03.01.05,0,.02,0,.04-.01.05,0,.01-.02.03-.03.04-.01,0-.03.01-.05.01-.01,0-.02,0-.04,0ZM175.79,483.08s-.01-.01-.02-.02c0,0-.02,0-.03,0-.01,0-.02,0-.03.01,0,0-.01.02-.01.04v.12s-.03,0-.03,0v-.12s0-.03,0-.04c0-.01.01-.02.02-.02,0,0,.02,0,.03,0,.01,0,.03,0,.04,0,0,0,.02.01.02.02h0s0-.03,0-.03h.03s0,.19,0,.19h-.03s0-.12,0-.12c0-.01,0-.02,0-.03Z"/>
      </g>
    </g>
    <path class="cls-12" d="M157.45,479.59s4.48-5.56,6.83-6.13c1.87-.36,3.78-.51,5.68-.44l.53,3.53s11.03.4,12.24.69,1.85,1.99,1.29,2.78c-.57.78-.71.71-3.35.71s-5.63,0-5.7.64-.07,1.21.93,1.21,5.34.43,6.06.29c.71-.14,2.56.36,2.28,1.78-.29,1.42-2.28,2.42-3.34,2.35-.45-.06-.9-.06-1.35,0,0,0,.35,2.57-2.14,2.7-.32.73-.94,1.27-1.71,1.48-1.35.43-8.62,2.21-11.98,2.14-3.35-.07-6.98-2.14-6.98-2.14l.73-11.59Z"/>
    <path class="cls-1" d="M171.52,489.71c.26-.13.54-.21.83-.23.54-.03,1.31.05,2.15.09,1.02.12,2.04.16,3.07.14-1-.23-2.03-.36-3.05-.4-.73-.06-1.46-.06-2.19,0-.59.06-.85.38-.81.39Z"/>
    <path class="cls-12" d="M157.45,479.59s-15.24-1.55-19.03-2.52c-5.51-1.4-14.73-5.58-14.73-5.58l-5.91-2.9-10.5,2.52s-.4,8.8,1.3,11.77c1.85,3.01,4.79,5.19,8.21,6.07,3.18.78,39.93,2.24,39.93,2.24l.73-11.59Z"/>
    <path class="cls-1" d="M174.28,486.57c.86.19,1.73.3,2.61.32.87.1,1.76.12,2.63.06-.86-.19-1.74-.29-2.61-.32-.87-.11-1.76-.13-2.63-.06Z"/>
    <path class="cls-6" d="M127.96,409.67s-5.9,1.71-11.35,6.04c-3.31,2.63-7.42,16.68-7.67,20.99-.25,4.3-4.41,32.35-4.18,33.62s18.39,3.95,23.21,2.55l4.82-1.4-4.82-61.79Z"/>
    <path class="cls-11" d="M129.59,431.18s0,.07-.01.1l-.03.31c-.03.29-.03.68-.05,1.18-.05,1.04-.11,2.53-.19,4.34-.13,3.69-.31,8.75-.51,14.34s-.38,10.67-.55,14.34c-.1,1.82-.18,3.3-.24,4.34-.06.49-.07.89-.09,1.18l-.03.3s0,.07-.01.1c0-.04,0-.07.01-.1,0-.08.02-.18,0-.31,0-.29.02-.69.03-1.18.03-1.05.08-2.53.14-4.35.12-3.69.29-8.75.45-14.35.16-5.6.39-10.67.59-14.34.11-1.83.2-3.31.29-4.36l.13-1.18.03-.3s.02-.06.04-.08Z"/>
    <path class="cls-6" d="M331.33,360.49l-39.92-1.12h-40.7c-5.44.11-9.76,4.6-9.67,10.04v27.68c-.14,19.13,4.42,37.99,13.28,54.94,7.52,14.12,19.16,28.65,37.09,37.88,16.48-6.18,28.78-22.69,36.31-36.83,8.86-16.95,13.42-35.82,13.28-54.94v-27.62c.1-5.44-4.23-9.93-9.67-10.03Z"/>
    <polygon class="cls-14" points="290.04 425.1 275.26 412.88 280.24 406.85 289.15 414.22 303.71 397.51 309.6 402.63 290.04 425.1"/>
    <g class="cls-16">
      <path class="cls-2" d="M331.33,360.49l-39.92-1.12h-40.7c-5.44.11-9.76,4.6-9.67,10.04v27.68c-.14,19.13,4.42,37.99,13.28,54.94,7.52,14.12,19.16,28.65,37.09,37.88,16.48-6.18,28.78-22.69,36.31-36.83,8.86-16.95,13.42-35.82,13.28-54.94v-27.62c.1-5.44-4.23-9.93-9.67-10.03ZM330.02,400.18c.11,15.13-3.5,30.05-10.51,43.46-5.95,11.16-14.7,22.67-28.88,29.98-14.17-7.31-22.6-18.81-28.55-29.98-6.99-13.41-10.59-28.33-10.48-43.46v-21.84c-.07-4.3,3.34-7.85,7.63-7.95h63.17c4.3.09,7.72,3.64,7.64,7.95l-.02,21.84Z"/>
    </g>
  </g>
</svg>