<?xml version="1.0" encoding="UTF-8"?>
<svg id="Layer_2" data-name="Layer 2" xmlns="http://www.w3.org/2000/svg" viewBox="0 0 1000 1000">
  <defs>
    <style>
      .cls-1 {
        fill: #000;
      }

      .cls-1, .cls-2, .cls-3, .cls-4, .cls-5, .cls-6, .cls-7, .cls-8, .cls-9, .cls-10, .cls-11 {
        stroke-width: 0px;
      }

      .cls-2 {
        fill: #e0e0e0;
      }

      .cls-3 {
        fill: #eb996e;
      }

      .cls-4 {
        fill: #455a64;
      }

      .cls-5 {
        fill: #f5f5f5;
      }

      .cls-6 {
        fill: #09f;
      }

      .cls-7 {
        fill: #ffbe9d;
      }

      .cls-8 {
        fill: #ebebeb;
      }

      .cls-9 {
        fill: #263238;
      }

      .cls-10 {
        fill: #fafafa;
      }

      .cls-12 {
        opacity: .3;
      }

      .cls-13 {
        opacity: .6;
      }

      .cls-11 {
        fill: #fff;
      }
    </style>
  </defs>
  <g id="freepik--background-complete--inject-6">
    <rect class="cls-8" x="61.26" y="97.81" width="240.9" height="432.75"/>
    <rect class="cls-10" x="70.89" y="110.36" width="219.16" height="407.3"/>
    <polygon class="cls-2" points="312.34 534.45 302.16 530.55 302.16 90.47 312.34 90.47 312.34 534.45"/>
    <path class="cls-5" d="M124.62,373.46l56.92-52.92c7.2-6.7,16.63-13.92,25.91-10.62,4.47,1.59,7.82,5.41,12.19,7.22,8.75,3.64,18.73-1.61,25.44-8.27,6.72-6.66,12.07-15.02,20.11-19.85s20.78-4.22,24.8,4.34v57.59l-82.73,35.4-82.65-12.89Z"/>
    <path class="cls-2" d="M70.89,340.36c20.98-8.53,41.9-1.27,56.9,15.69,3.18,3.56,6.03,7.68,10.38,9.65,5.89,2.68,12.67.66,19.09,0,17.97-1.77,35.41,6.68,45.16,21.88l-70.04,34.31-61.49-.46v-81.08Z"/>
    <path class="cls-8" d="M289.99,340.66c-13.82-6.68-25.97,1.39-38.72,9.94-12.75,8.55-24.6,19.49-39.54,22.93-10.06,2.29-20.7,1.03-30.35,4.47-19.67,7-31.04,31.98-51.89,33.17-11.32.64-21.46-6.22-31.58-11.36-10.12-5.15-18.1-10.06-27.07-3.14v121h219.16v-177Z"/>
    <rect class="cls-2" x="70.89" y="227.52" width="223.93" height="4.34"/>
    <rect class="cls-2" x="70.89" y="324.53" width="223.93" height="4.34"/>
    <rect class="cls-2" x="70.89" y="421.52" width="223.93" height="4.34"/>
    <rect class="cls-2" x="174.94" y="229.71" width="11.08" height="299.51"/>
    <rect class="cls-2" x="113.09" y="110.36" width="5.01" height="119.33"/>
    <rect class="cls-2" x="156.36" y="110.36" width="5.01" height="119.33"/>
    <rect class="cls-2" x="199.62" y="110.36" width="5.01" height="119.33"/>
    <rect class="cls-2" x="242.89" y="110.36" width="5.01" height="119.33"/>
    <rect class="cls-2" x="51.08" y="90.47" width="10.2" height="442.76"/>
    <rect class="cls-2" x="51.08" y="86" width="261.28" height="11.81"/>
    <rect class="cls-2" x="43.84" y="535.92" width="275.4" height="11"/>
    <polygon class="cls-8" points="302.16 530.55 319.24 535.92 43.84 535.92 61.26 530.55 302.16 530.55"/>
    <path class="cls-8" d="M95.71,769.48c-7.58-3.56-16.1-4.59-24.32-2.96-4.43.72-9.01,2.01-12.07,5.37s-3.56,9.15-.12,12.07c2.21,1.54,4.9,2.25,7.58,2.01,6.44,0,13.56-1.21,18.71,2.66,2.92,2.21,4.87,5.87,8.39,6.96,3.59.84,7.31-.8,9.11-4.02,1.66-3.23,2.03-6.97,1.03-10.46-.78-4.97-3.86-9.28-8.31-11.63Z"/>
    <path class="cls-8" d="M112.67,736.76c-4.53,6.48-13.32,4.32-17.4.38-4.08-3.94-5.79-9.65-7.36-15.11-3.58-12.45-7.2-25.52-4.55-38.22.65-3.84,2.34-7.43,4.89-10.38,2.63-2.96,6.63-4.29,10.5-3.5,4.45,1.17,7.2,5.51,9.19,9.65,5.89,12.19,8.99,25.54,9.07,39.08,0,6.3-.72,12.89-4.26,18.1"/>
    <path class="cls-8" d="M125.06,746.03c-4.93-5.83-5.85-14.32-3.66-21.62,2.47-7.26,6.91-13.7,12.81-18.61,6.72-5.97,14.55-10.57,23.03-13.54,3.27-1.32,6.79-1.92,10.32-1.75,3.57.21,6.81,2.18,8.65,5.25,2.41,4.61,0,10.18-2.39,14.74-4.42,8.03-9.46,15.71-15.09,22.95-4.51,5.83-9.67,11.57-16.57,14.2-6.9,2.63-14.08,2.33-17.68-2.45"/>
    <path class="cls-2" d="M112.99,834.23c-.24-.96-.37-1.95-.4-2.94-.22-2.13-.48-4.81-.78-8.05-.4-3.94-1.01-7.86-1.81-11.75-1.05-4.73-2.47-9.37-4.26-13.88-1.75-4.5-4.14-8.72-7.08-12.55-2.4-3.11-5.45-5.66-8.95-7.44-2.37-1.18-4.92-1.98-7.54-2.35-.99-.04-1.97-.19-2.94-.42.99-.11,1.99-.11,2.98,0,2.72.19,5.38.88,7.86,2.01,3.69,1.74,6.93,4.32,9.45,7.52,3.07,3.88,5.54,8.19,7.34,12.79,1.81,4.56,3.23,9.27,4.24,14.08.76,3.93,1.27,7.91,1.55,11.91.26,3.4.36,6.15.4,8.05.09,1,.07,2.02-.06,3.02Z"/>
    <path class="cls-2" d="M112.43,828.07c-.06-.45-.06-.91,0-1.37v-3.9c0-3.38,0-8.27-.16-14.3-.3-12.07-1.35-25.1-3.36-43.43-2.01-17.24-4.47-37.31-7.14-50.28-.58-2.98-1.17-5.65-1.71-8.05s-.99-4.36-1.41-6.03-.66-2.8-.91-3.78c-.13-.44-.21-.89-.24-1.35.21.4.36.83.46,1.27l1.15,3.74c.5,1.61,1.01,3.62,1.59,6.03s1.27,4.99,1.89,8.05c3.34,15.42,5.85,31.01,7.52,46.7,2.01,18.38,2.92,35.12,3,47.23,0,6.03,0,10.96-.2,14.34-.1,1.59-.18,2.88-.24,3.88-.04.42-.12.84-.24,1.25Z"/>
    <path class="cls-2" d="M112.35,795.81c-.12-1.34-.12-2.68,0-4.02.23-3.69.64-7.37,1.25-11.02.89-5.43,2.09-10.8,3.58-16.09,1.76-6.48,4.02-12.81,6.74-18.95,4.67-11.35,11.35-21.75,19.73-30.71,1.45-1.53,3.01-2.97,4.65-4.3.7-.6,1.35-1.21,2.01-1.69l1.81-1.25c1.09-.8,2.23-1.54,3.42-2.19-3.94,3.13-7.69,6.48-11.22,10.06-8.11,8.99-14.62,19.29-19.25,30.47-2.68,6.12-4.94,12.42-6.76,18.85-1.54,5.23-2.82,10.53-3.82,15.89-.84,4.59-1.33,8.33-1.63,10.92-.07,1.36-.24,2.71-.5,4.04Z"/>
    <polygon class="cls-2" points="143.53 852.71 140.29 897 83.39 897 80.17 852.71 143.53 852.71"/>
    <rect class="cls-2" x="73.37" y="835.25" width="75.65" height="17.46"/>
    <polygon class="cls-8" points="149.02 895.31 149.02 900.16 145.48 900.16 74.62 900.16 74.62 895.31 149.02 895.31"/>
    <polygon class="cls-2" points="141.98 908.67 145.48 900.16 77.33 900.16 81.39 908.67 141.98 908.67"/>
    <path class="cls-5" d="M81.21,867.2s0,.14.26.4.5.68.86,1.13l3.3,4.24.16.2.14-.2,8.15-11.26h-.48c2.43,3.42,5.13,7.24,8.05,11.34l.26.36.26-.34,9.51-11.3h-.54l.52.66,8.51,10.66.28.36.26-.38,8.05-11.34h-.48l9.9,11.26.16.2.14-.22,3.1-5.21.78-1.39c.11-.15.19-.31.24-.48-.12.14-.23.28-.32.44l-.89,1.33-3.24,5.11h.3l-9.71-11.38-.24-.28-.22.3-8.05,11.3h.54l-8.47-10.68-.52-.64-.28-.34-.28.32-9.47,11.34h.52l-8.05-11.3-.24-.32-.24.32-8.05,11.38h.28l-3.44-4.14-.93-1.07c-.11-.15-.24-.28-.4-.38Z"/>
    <path class="cls-5" d="M79.36,852.43c0,.2,14.26.34,31.84.34s31.96-.14,31.96-.34-14.26-.36-31.86-.36-31.94.26-31.94.36Z"/>
    <path class="cls-5" d="M76.49,900.6c0,.18,15.51.34,34.62.34s34.6-.16,34.6-.34-15.49-.36-34.6-.36-34.62.2-34.62.36Z"/>
  </g>
  <g id="freepik--Floor--inject-6">
    <path class="cls-9" d="M956.16,908.65c0,.3-203.89.52-455.35.52s-455.39-.2-455.39-.52,203.85-.52,455.39-.52,455.35.26,455.35.52Z"/>
  </g>
  <g id="freepik--Device--inject-6">
    <rect class="cls-4" x="346.57" y="86.82" width="572.42" height="821.46" rx="23.23" ry="23.23"/>
    <rect class="cls-11" x="364.33" y="145.44" width="536.31" height="686.02"/>
    <circle class="cls-9" cx="632.78" cy="867" r="21.96"/>
    <rect class="cls-9" x="546.56" y="110.48" width="172.39" height="9.07" rx="2.45" ry="2.45"/>
    <circle class="cls-9" cx="612.8" cy="781.71" r="4.97"/>
    <path class="cls-9" d="M637.74,781.71c0,2.74-2.22,4.97-4.97,4.97s-4.97-2.22-4.97-4.97,2.22-4.97,4.97-4.97,4.97,2.22,4.97,4.97h0Z"/>
    <path class="cls-9" d="M657.69,781.71c0,2.74-2.22,4.97-4.97,4.97-2.74,0-4.97-2.22-4.97-4.97s2.22-4.97,4.97-4.97c0,0,.01,0,.02,0,2.73,0,4.95,2.22,4.95,4.95,0,0,0,.01,0,.02Z"/>
    <path class="cls-9" d="M436.54,202.92h-25.26c-.53.08-1.02-.29-1.09-.82-.08-.53.29-1.02.82-1.09.09-.01.19-.01.28,0h25.26c.53-.08,1.02.29,1.09.82.08.53-.29,1.02-.82,1.09-.09.01-.19.01-.28,0Z"/>
    <path class="cls-9" d="M421.09,210.99c-.2,0-.4-.06-.56-.18l-11.34-8.05c-.43-.29-.55-.88-.26-1.31.07-.1.16-.19.26-.26l11.69-8.05c.44-.29,1.03-.17,1.33.26.3.43.19,1.02-.24,1.31,0,0-.01,0-.02.01l-10.54,7.2,10.22,7.28c.43.29.54.88.25,1.31,0,0,0,0-.01.01-.17.26-.45.42-.76.44Z"/>
    <path class="cls-9" d="M844.47,203.02h-25.26c-.56,0-1.01-.45-1.01-1.01s.45-1.01,1.01-1.01h25.26c.56,0,1.01.45,1.01,1.01s-.45,1.01-1.01,1.01h0Z"/>
    <path class="cls-9" d="M834.33,210.99c-.32,0-.62-.16-.8-.42-.29-.44-.17-1.03.26-1.33l10.54-7.2-10.22-7.26c-.44-.3-.55-.9-.24-1.34,0,0,0,0,0,0,.32-.42.91-.52,1.35-.22l11.34,8.05c.26.18.41.47.4.78,0,.32-.16.61-.42.78l-11.67,8.05c-.17.09-.35.13-.54.12Z"/>
    <path class="cls-9" d="M605.15,203.89v2.68h-11.12v-14.36h10.86v2.68h-7.54v3.12h6.66v2.65h-6.66v3.32l7.8-.08Z"/>
    <path class="cls-9" d="M621.39,192.2l-6.22,14.36h-3.36l-6.03-14.36h3.58l4.36,10.26,4.43-10.26h3.24Z"/>
    <path class="cls-9" d="M633.7,203.89v2.68h-11.1v-14.36h10.84v2.68h-7.54v3.12h6.66v2.65h-6.66v3.32l7.8-.08Z"/>
    <path class="cls-9" d="M649.5,192.2v14.36h-2.72l-7.16-8.71v8.71h-3.28v-14.36h2.74l7.14,8.73v-8.73h3.28Z"/>
    <path class="cls-9" d="M655.88,194.92h-4.59v-2.72h12.51v2.72h-4.59v11.65h-3.34v-11.65Z"/>
    <path class="cls-9" d="M664.35,205.15l1.15-2.51c1.39.97,3.03,1.5,4.73,1.51,2.01,0,2.78-.66,2.78-1.55,0-2.68-8.35-.84-8.35-6.17,0-2.43,2.01-4.47,6.03-4.47,1.75-.03,3.47.41,4.99,1.27l-1.03,2.53c-1.22-.72-2.61-1.11-4.02-1.13-2.01,0-2.72.72-2.72,1.63,0,2.66,8.35.82,8.35,6.03,0,2.39-2.01,4.45-6.03,4.45-2.07.07-4.12-.48-5.87-1.59Z"/>
    <rect class="cls-5" x="522.31" y="256.64" width="342.7" height="124.04"/>
    <path class="cls-9" d="M606.06,284.42l1.05-2.33c1.31.89,2.86,1.37,4.45,1.39,1.85,0,2.61-.6,2.61-1.43,0-2.53-7.84-.8-7.84-5.79,0-2.29,1.85-4.2,5.69-4.2,1.63-.03,3.25.38,4.67,1.19l-.97,2.37c-1.13-.67-2.41-1.03-3.72-1.07-1.85,0-2.57.7-2.57,1.55,0,2.47,7.84.76,7.84,5.71,0,2.25-1.87,4.18-5.73,4.18-1.94.05-3.85-.5-5.47-1.57Z"/>
    <path class="cls-9" d="M631.08,277.18c0,3-2.25,4.87-5.85,4.87h-2.72v3.7h-3.12v-13.46h5.83c3.6,0,5.85,1.85,5.85,4.89ZM627.92,277.18c0-1.49-.97-2.35-2.88-2.35h-2.53v4.67h2.53c1.91,0,2.86-.86,2.86-2.31h.02Z"/>
    <path class="cls-9" d="M632.65,279.09c-.22-4.07,2.9-7.55,6.97-7.77,4.07-.22,7.55,2.9,7.77,6.97.22,4.07-2.9,7.55-6.97,7.77-.14,0-.27.01-.41.01-3.84.22-7.13-2.71-7.35-6.55,0-.14-.01-.29-.01-.43ZM644.24,279.09c-.06-2.33-1.99-4.18-4.32-4.12-2.33.06-4.18,1.99-4.12,4.32.05,2.29,1.93,4.12,4.22,4.12,2.22.12,4.11-1.59,4.23-3.8,0-.17,0-.35,0-.52Z"/>
    <path class="cls-9" d="M658.31,285.75l-2.59-3.74h-2.88v3.74h-3.1v-13.46h5.81c3.6,0,5.85,1.85,5.85,4.89.08,1.86-1.04,3.57-2.78,4.24l3.04,4.32h-3.36ZM655.4,274.83h-2.55v4.69h2.55c1.89,0,2.86-.89,2.86-2.33s-.97-2.35-2.86-2.35h0Z"/>
    <path class="cls-9" d="M666.48,274.83h-4.38v-2.53h11.73v2.53h-4.3v10.92h-3.12l.08-10.92Z"/>
    <path class="cls-9" d="M675.59,272.29h3.12v13.46h-3.12v-13.46Z"/>
    <path class="cls-9" d="M694.28,272.29v13.46h-2.55l-6.72-8.17v8.17h-3.08v-13.46h2.57l6.7,8.17v-8.17h3.08Z"/>
    <path class="cls-9" d="M706.57,278.81h2.84v5.47c-1.59,1.12-3.49,1.72-5.43,1.71-3.85.21-7.14-2.75-7.34-6.59-.21-3.85,2.75-7.14,6.59-7.34.25-.01.5-.01.75,0,2.13-.1,4.2.76,5.63,2.33l-2.01,1.85c-.88-1-2.15-1.56-3.48-1.53-2.38-.16-4.45,1.64-4.61,4.02-.16,2.38,1.64,4.45,4.02,4.61.2.01.39.01.59,0,.85.02,1.69-.19,2.43-.58l.02-3.94Z"/>
    <path class="cls-9" d="M727.12,284.6v1.15h-8.91v-12.69h8.65v1.17h-7.32v4.49h6.52v1.13h-6.52v4.69l7.58.08Z"/>
    <path class="cls-9" d="M740.54,273.06l-5.57,12.61h-1.33l-5.55-12.61h1.43l4.83,10.96,4.87-10.96h1.33Z"/>
    <path class="cls-9" d="M751.3,284.6v1.15h-8.91v-12.69h8.65v1.17h-7.32v4.49h6.52v1.13h-6.52v4.69l7.58.08Z"/>
    <path class="cls-9" d="M764.98,273.06v12.61h-1.11l-8.05-10.22v10.22h-1.33v-12.61h1.11l8.05,10.24v-10.24h1.33Z"/>
    <path class="cls-9" d="M771.53,274.3h-4.43v-1.25h10.2v1.17h-4.45v11.44h-1.33v-11.36Z"/>
    <path class="cls-9" d="M872.89,387.26h-465.11v-140.11h465.11v140.11ZM409.79,385.25h461.09v-136.09h-461.09v136.09Z"/>
    <path class="cls-6" d="M471.4,302.44h-21.7c-2.08,0-3.77-1.68-3.78-3.76v-19.43c.01-2.08,1.7-3.76,3.78-3.76h21.7c2.08,0,3.76,1.68,3.76,3.76v19.43c0,2.08-1.68,3.76-3.76,3.76ZM449.7,277.4c-1.02,0-1.85.83-1.85,1.85v19.43c0,1.02.83,1.85,1.85,1.85h21.7c1.02,0,1.85-.83,1.85-1.85v-19.43c0-1.02-.83-1.85-1.85-1.85h-21.7Z"/>
    <rect class="cls-6" x="450.44" y="270.48" width="4.36" height="8.13" rx="2.07" ry="2.07"/>
    <rect class="cls-6" x="465.4" y="270.48" width="4.36" height="8.13" rx="2.07" ry="2.07"/>
    <rect class="cls-6" x="453.74" y="283.25" width="4.36" height="4.36"/>
    <rect class="cls-6" x="462.43" y="283.25" width="4.36" height="4.36"/>
    <rect class="cls-6" x="453.74" y="291.5" width="4.36" height="4.36"/>
    <rect class="cls-6" x="462.43" y="291.5" width="4.36" height="4.36"/>
    <path class="cls-9" d="M453.36,320.95v26.01h-6.03v-21.18h-5.19v-4.83h11.22Z"/>
    <path class="cls-9" d="M477.31,342.07v4.89h-19.65v-3.9l10.06-9.47c2.29-2.19,2.72-3.52,2.72-4.79,0-2.01-1.43-3.24-4.16-3.24-2.12-.08-4.13.89-5.39,2.59l-4.38-2.82c2.42-3.23,6.29-5.04,10.32-4.83,5.81,0,9.67,2.98,9.67,7.68,0,2.53-.7,4.83-4.34,8.23l-6.03,5.65h11.2Z"/>
    <path class="cls-9" d="M484.53,355c0,.3-11.71.52-26.15.52s-26.15-.22-26.15-.52,11.71-.52,26.15-.52,26.15.24,26.15.52Z"/>
    <path class="cls-9" d="M479.48,362.8c-5.57.52-11.16.69-16.75.52-5.6.17-11.2,0-16.77-.52,5.57-.53,11.18-.7,16.77-.52,5.59-.18,11.19,0,16.75.52Z"/>
    <path class="cls-9" d="M517.06,380.71c-.28,0-.52-27.78-.52-62.03s.24-62.03.52-62.03.52,27.78.52,62.03-.3,62.03-.52,62.03Z"/>
    <path class="cls-2" d="M522.31,378.51c76.43-83.65,245.27-33.69,245.27-33.69l-2.76-18.54c-140.19-48.55-242.51-37.97-242.51-37.97v90.21Z"/>
    <path class="cls-9" d="M763.75,368.26c0,.3-46.5.52-103.85.52s-103.87-.22-103.87-.52,46.48-.52,103.87-.52,103.85.24,103.85.52Z"/>
    <circle class="cls-4" cx="809.28" cy="326.74" r="48.07"/>
    <path class="cls-9" d="M779.94,354.9c-2.76-.14-5.53.07-8.25.62,5.5.63,11.05.56,16.53-.2-2.74-.47-5.52-.61-8.29-.42Z"/>
    <path class="cls-9" d="M848.43,334.85c-1.31-1.75-3.84-4.89-6.88-8.43-2.63-3.22-5.47-6.26-8.49-9.11l2.37-15c1.99-.42,3.96-.94,5.89-1.57,2.29-.54,4.48-1.42,6.52-2.59-2.34.22-4.64.76-6.84,1.61-2.29.72-4.3,1.45-5.47,2.01v-.14l-16.55-8.45h0c-.89-1.46-1.89-2.86-2.98-4.18-1.65-2.07-3.54-3.93-5.63-5.55l4.59-4.34s-3.2-.93-11.32,0c-8.13.93-7.76,4.26-7.76,4.26l13.92.3c.93,1.07,3.08,3.26,5.35,6.03,1.23,1.51,2.29,2.96,3.16,4.14l-12.27,12.29c-2.85.09-5.69.33-8.51.72-3.27.23-6.51.82-9.65,1.75,3.27.09,6.55-.15,9.78-.72,3.66-.46,6.8-.95,8.43-1.27l8.05,15.67-1.11,1.69c-1.35,2.13-3.1,5.15-4.83,8.59s-2.96,6.24-3.86,8.53l-12.75-1.31c-.62-1.47-1.35-3.12-2.13-4.89-1.75-3.88-3.36-7.16-4.26-8.81l2.76-17.48-11.77-9.39c1.23-.68,5.29-3.72,10.06-7.5,3.48-2.55,6.75-5.37,9.78-8.45-3.66,2.28-7.15,4.83-10.42,7.64-4.81,3.82-8.69,7.16-9.57,8.05l-.56-.44-11.67,11.79,5.89,17.14c-.56,1.19-1.67,4.24-3,7.82-1.2,2.77-2.15,5.64-2.86,8.57,1.65-2.54,2.94-5.3,3.82-8.21,1.01-2.61,1.81-5.3,2.39-8.05l14.74-1.11c.68,1.85,2.01,5.07,3.66,8.69.8,1.77,1.55,3.38,2.23,4.81l-2.41,15.27,14.26,11.34h0c.91,1.56,1.95,3.03,3.12,4.4,1.09,1.62,2.45,3.05,4.02,4.2-.79-1.79-1.88-3.43-3.24-4.85-1.09-1.44-2.3-2.79-3.62-4.02l10.96-8.43-7.28-16.71-1.47-.14c1.05-2.21,2.39-5.05,4.02-8.17,2.17-4.28,4.2-8.05,5.37-10.22l18.3-2.9.38-2.39c2.4,3.35,4.98,6.58,7.72,9.65,2.88,3.36,5.49,6.26,7.06,7.88h-.26l-10.62,17.12.12.16c-2.21.38-6.24,1.23-10.84,2.31-3.48.82-6.6,1.61-8.85,2.21-1.23.27-2.44.65-3.6,1.13,0,.38,5.75-.7,12.67-2.33,4.77-1.13,8.83-2.19,10.92-2.86l5.53,8.29c8.43-6.85,13.45-17.04,13.76-27.9v-.18l-8.27,2.01Z"/>
    <path class="cls-9" d="M571.87,332.05v3.72h-14.9v-2.98l7.6-7.18c1.75-1.65,2.01-2.68,2.01-3.62,0-1.55-1.07-2.45-3.16-2.45-1.59-.03-3.1.72-4.02,2.01l-3.34-2.23c1.84-2.45,4.77-3.82,7.82-3.66,4.4,0,7.34,2.25,7.34,5.83,0,2.01-.54,3.66-3.3,6.24l-4.55,4.28,8.49.04Z"/>
    <path class="cls-9" d="M581.36,316.04v19.73h-4.57v-16.09h-4.02v-3.66l8.59.02Z"/>
    <path class="cls-9" d="M584.66,323.12c0-1.51,1.22-2.74,2.74-2.74s2.74,1.22,2.74,2.74-1.22,2.74-2.74,2.74-2.74-1.22-2.74-2.74ZM584.66,333.18c0-1.51,1.22-2.74,2.74-2.74s2.74,1.22,2.74,2.74-1.22,2.74-2.74,2.74-2.74-1.22-2.74-2.74Z"/>
    <path class="cls-9" d="M592.18,325.9c0-6.5,3.6-10.2,8.45-10.2s8.47,3.7,8.47,10.2-3.58,10.2-8.47,10.2-8.45-3.68-8.45-10.2ZM604.49,325.9c0-4.47-1.57-6.34-3.86-6.34s-3.82,1.87-3.82,6.34,1.57,6.34,3.82,6.34,3.86-1.85,3.86-6.34Z"/>
    <path class="cls-9" d="M611.31,325.9c0-6.5,3.62-10.2,8.47-10.2s8.45,3.7,8.45,10.2-3.58,10.2-8.45,10.2-8.47-3.68-8.47-10.2ZM623.64,325.9c0-4.47-1.59-6.34-3.86-6.34s-3.84,1.87-3.84,6.34,1.59,6.34,3.84,6.34,3.86-1.85,3.86-6.34Z"/>
    <path class="cls-9" d="M661.13,332.05v3.72h-14.9v-2.98l7.62-7.18c1.73-1.65,2.01-2.68,2.01-3.62,0-1.55-1.07-2.45-3.16-2.45-1.59-.04-3.1.71-4.02,2.01l-3.36-2.23c1.84-2.45,4.78-3.82,7.84-3.66,4.38,0,7.32,2.25,7.32,5.83,0,2.01-.52,3.66-3.3,6.24l-4.53,4.28,8.47.04Z"/>
    <path class="cls-9" d="M677.58,329.74c0,3.32-2.55,6.36-8.17,6.36-2.66.05-5.28-.68-7.52-2.11l1.77-3.48c1.65,1.17,3.63,1.79,5.65,1.77,2.27,0,3.68-.93,3.68-2.53s-1.09-2.43-3.68-2.43h-2.01v-3.02l4.02-4.59h-8.41v-3.66h13.82v2.96l-4.59,5.07c3.05.1,5.47,2.62,5.43,5.67Z"/>
    <path class="cls-9" d="M679.57,323.12c.13-1.51,1.45-2.62,2.96-2.49,1.33.11,2.38,1.17,2.49,2.49.13,1.51-.99,2.83-2.49,2.96-1.51.13-2.83-.99-2.96-2.49-.01-.16-.01-.31,0-.47ZM679.57,333.18c.13-1.51,1.45-2.62,2.96-2.49,1.33.11,2.38,1.17,2.49,2.49.13,1.51-.99,2.83-2.49,2.96s-2.83-.99-2.96-2.49c-.01-.16-.01-.31,0-.47Z"/>
    <path class="cls-9" d="M687.1,325.9c0-6.5,3.6-10.2,8.45-10.2s8.45,3.7,8.45,10.2-3.58,10.2-8.45,10.2-8.45-3.68-8.45-10.2ZM699.41,325.9c0-4.47-1.59-6.34-3.86-6.34s-3.82,1.87-3.82,6.34,1.57,6.34,3.82,6.34,3.86-1.85,3.86-6.34Z"/>
    <path class="cls-9" d="M706.23,325.9c0-6.5,3.6-10.2,8.45-10.2s8.47,3.7,8.47,10.2-3.58,10.2-8.47,10.2-8.45-3.68-8.45-10.2ZM718.54,325.9c0-4.47-1.57-6.34-3.86-6.34s-3.82,1.87-3.82,6.34,1.57,6.34,3.82,6.34,3.86-1.85,3.86-6.34Z"/>
    <path class="cls-9" d="M766.16,290.52c0,.3-38.58.54-86.17.54s-86.17-.24-86.17-.54,38.58-.52,86.17-.52,86.17.24,86.17.52Z"/>
    <path class="cls-9" d="M738.79,357.72c0,.3-26.45.52-59.09.52s-59.11-.22-59.11-.52,26.47-.52,59.11-.52,59.09.34,59.09.52Z"/>
    <rect class="cls-5" x="522.31" y="436.6" width="342.7" height="124.04"/>
    <path class="cls-9" d="M872.89,567.22h-465.11v-140.09h465.11v140.09ZM409.79,565.21h461.09v-136.07h-461.09v136.07Z"/>
    <path class="cls-6" d="M471.4,482.42h-21.7c-2.08-.01-3.77-1.7-3.78-3.78v-19.41c0-2.09,1.69-3.78,3.78-3.78h21.7c2.08.01,3.76,1.7,3.76,3.78v19.41c0,2.08-1.68,3.77-3.76,3.78ZM449.7,457.36c-1.03.01-1.85.85-1.85,1.87v19.41c0,1.02.83,1.85,1.85,1.85h21.7c1.02,0,1.85-.83,1.85-1.85v-19.41c0-1.03-.83-1.86-1.85-1.87h-21.7Z"/>
    <rect class="cls-6" x="450.44" y="450.46" width="4.36" height="8.13" rx="2.07" ry="2.07"/>
    <rect class="cls-6" x="465.4" y="450.46" width="4.36" height="8.13" rx="2.07" ry="2.07"/>
    <rect class="cls-6" x="453.74" y="463.23" width="4.36" height="4.36"/>
    <rect class="cls-6" x="462.43" y="463.23" width="4.36" height="4.36"/>
    <rect class="cls-6" x="453.74" y="471.46" width="4.36" height="4.36"/>
    <rect class="cls-6" x="462.43" y="471.46" width="4.36" height="4.36"/>
    <path class="cls-9" d="M453.36,500.91v26.03h-6.03v-21.2h-5.19v-4.83h11.22Z"/>
    <path class="cls-9" d="M478.66,513.36c0,8.99-5.39,14.08-13.28,14.08-2.52.07-5.01-.55-7.2-1.79l2.23-4.43c1.45.92,3.15,1.38,4.87,1.31,4.3,0,7.12-2.57,7.32-7.58-1.76,1.62-4.09,2.46-6.48,2.33-5.01,0-8.95-3.2-8.95-8.05,0-5.31,4.34-8.65,9.84-8.65,7.22-.12,11.65,4.38,11.65,12.77ZM471.92,508.83c0-2.23-1.67-3.86-4.53-3.86-2.12-.27-4.05,1.23-4.31,3.35-.02.17-.03.34-.03.51.06,2.22,1.9,3.98,4.12,3.92.1,0,.2,0,.3-.02,2.21.23,4.19-1.37,4.42-3.58.01-.11.02-.22.02-.33Z"/>
    <path class="cls-9" d="M484.53,534.96c0,.3-11.71.54-26.15.54s-26.15-.24-26.15-.54,11.71-.52,26.15-.52,26.15.24,26.15.52Z"/>
    <path class="cls-9" d="M479.48,542.76c-5.57.52-11.16.69-16.75.52-5.6.17-11.2,0-16.77-.52,5.57-.53,11.18-.7,16.77-.52,5.59-.18,11.19,0,16.75.52Z"/>
    <path class="cls-9" d="M517.06,560.68c-.28,0-.52-27.78-.52-62.03s.24-62.03.52-62.03.52,27.78.52,62.03-.3,62.03-.52,62.03Z"/>
    <rect class="cls-5" x="522.31" y="616.58" width="342.7" height="124.04"/>
    <path class="cls-9" d="M547.03,638.66h2.43v4.49c-1.3.93-2.86,1.43-4.47,1.41-3.15.27-5.93-2.08-6.19-5.23-.26-3.15,2.08-5.93,5.23-6.19.32-.03.64-.03.96,0,1.74-.08,3.43.62,4.61,1.91l-1.63,1.53c-.72-.81-1.77-1.27-2.86-1.25-1.95-.15-3.65,1.31-3.8,3.26s1.31,3.65,3.26,3.8c.18.01.36.01.53,0,.7.02,1.4-.14,2.01-.48l-.1-3.24Z"/>
    <path class="cls-9" d="M558.99,641.98h-5.13l-.99,2.37h-2.61l4.93-11.04h2.51l4.95,11.04h-2.7l-.97-2.37ZM558.19,639.97l-1.75-4.24-1.75,4.24h3.5Z"/>
    <path class="cls-9" d="M573.84,644.36v-6.64l-3.26,5.43h-1.17l-3.22-5.33v6.5h-2.41v-11.04h2.11l4.14,6.86,4.02-6.86h2.11v11.04l-2.33.04Z"/>
    <path class="cls-9" d="M587.39,642.3v2.01h-8.55v-11.04h8.35v2.01h-5.81v2.39h5.13v2.01h-5.13v2.55l6.01.06Z"/>
    <path class="cls-9" d="M596.45,644.36l-2.13-3.08h-2.33v3.08h-2.57v-11.04h4.79c2.96,0,4.81,1.53,4.81,4.02.06,1.53-.85,2.92-2.27,3.48l2.47,3.56-2.76-.02ZM594.05,635.39h-2.01v3.86h2.01c1.57,0,2.35-.74,2.35-2.01s-.68-1.85-2.35-1.85h0Z"/>
    <path class="cls-9" d="M613.82,643.35v1.01h-7.82v-11.04h7.58v1.01h-6.42v3.92h5.71v1.01h-5.71v4.02l6.66.08Z"/>
    <path class="cls-9" d="M625.51,633.31l-4.89,11.04h-1.15l-4.89-11.04h1.25l4.24,9.59,4.24-9.59h1.19Z"/>
    <path class="cls-9" d="M634.9,643.35v1.01h-7.8v-11.04h7.56v1.01h-6.4v3.92h5.67v1.01h-5.71v4.02l6.68.08Z"/>
    <path class="cls-9" d="M646.87,633.31v11.04h-.86l-7.1-8.97v8.97h-1.17v-11.04h.97l7.12,8.95v-8.95h1.05Z"/>
    <path class="cls-9" d="M652.6,634.32h-3.88v-1.01h8.93v1.01h-3.88v10.06h-1.17v-10.06Z"/>
    <path class="cls-9" d="M872.89,747.2h-465.11v-140.11h465.11v140.11ZM409.79,745.19h461.09v-136.09h-461.09v136.09Z"/>
    <path class="cls-6" d="M476.27,662.4h-21.7c-2.08-.01-3.77-1.7-3.78-3.78v-19.49c0-2.09,1.69-3.78,3.78-3.78h21.7c2.08.01,3.76,1.7,3.76,3.78v19.41c.04,2.09-1.61,3.82-3.7,3.86-.02,0-.04,0-.06,0ZM454.56,637.34c-1.03.01-1.85.85-1.85,1.87v19.41c0,1.02.83,1.85,1.85,1.85h21.7c1.02,0,1.85-.83,1.85-1.85h0v-19.49c0-1.03-.83-1.86-1.85-1.87l-21.7.08Z"/>
    <rect class="cls-6" x="455.31" y="630.44" width="4.36" height="8.13" rx="2.07" ry="2.07"/>
    <rect class="cls-6" x="470.27" y="630.44" width="4.36" height="8.13" rx="2.07" ry="2.07"/>
    <rect class="cls-6" x="458.61" y="643.21" width="4.36" height="4.36"/>
    <rect class="cls-6" x="467.3" y="643.21" width="4.36" height="4.36"/>
    <rect class="cls-6" x="458.61" y="651.44" width="4.36" height="4.36"/>
    <rect class="cls-6" x="467.3" y="651.44" width="4.36" height="4.36"/>
    <path class="cls-9" d="M462.75,701.98v4.91h-19.65v-3.9l10.06-9.47c2.29-2.19,2.7-3.54,2.7-4.81,0-2.01-1.41-3.22-4.16-3.22-2.11-.09-4.13.89-5.37,2.59l-4.4-2.84c2.42-3.24,6.3-5.05,10.34-4.83,5.79,0,9.67,2.98,9.67,7.7,0,2.51-.7,4.83-4.36,8.21l-6.03,5.65h11.22Z"/>
    <path class="cls-9" d="M484.89,698.7c0,4.61-3.38,8.63-10.82,8.63-3.51.06-6.96-.91-9.92-2.8l2.37-4.61c2.16,1.55,4.75,2.37,7.4,2.35,3.02,0,4.87-1.27,4.87-3.38s-1.33-3.4-6.03-3.4h-6.66l1.35-14.64h15.87v4.85h-10.86l-.4,4.93h2.11c7.68,0,10.72,3.46,10.72,8.07Z"/>
    <path class="cls-9" d="M484.53,714.93c0,.28-11.71.52-26.15.52s-26.15-.24-26.15-.52,11.71-.52,26.15-.52,26.15.22,26.15.52Z"/>
    <path class="cls-9" d="M479.48,722.72c-5.57.52-11.16.69-16.75.52-5.6.17-11.2,0-16.77-.52,5.58-.52,11.18-.69,16.77-.52,5.59-.17,11.19,0,16.75.52Z"/>
    <path class="cls-9" d="M517.06,740.62c-.28,0-.52-27.78-.52-62.01s.24-62.03.52-62.03.52,27.76.52,62.03-.3,62.01-.52,62.01Z"/>
    <path class="cls-9" d="M806.23,631.91c.27-2.43,1.8-4.55,4.02-5.57,2.19-.99,4.54-1.56,6.94-1.67,3.7-.44,7.44-.54,11.16-.3,1.86.06,3.67.56,5.29,1.47,3.4,2.15,4.24,6.86,3.56,10.82-.16,1.58-.87,3.06-2.01,4.16-.7.51-1.49.88-2.33,1.11-7.06,2.29-14.56,2.9-21.9,1.79-2.19-.32-4.73-1.13-5.43-3.24"/>
    <path class="cls-9" d="M738.77,629.77c-.27-2.43-1.8-4.55-4.02-5.57-2.19-.99-4.54-1.55-6.94-1.65-3.7-.45-7.44-.54-11.16-.28-1.86.06-3.67.56-5.29,1.47-3.4,2.17-4.24,6.86-3.54,10.82.15,1.59.86,3.06,2.01,4.16.7.51,1.48.88,2.31,1.11,7.07,2.27,14.58,2.87,21.92,1.77,2.19-.34,4.73-1.15,5.41-3.26"/>
    <path class="cls-4" d="M772.72,633.09c-13.56.36-30.63-1.51-35.24-2.82-4.61-1.31-24.5-7.2-34.19,2.21s-19.19,71.81-18.52,84.72c.66,12.91,17.08,21.86,26.93,16.09,9.86-5.77,23.39-32.4,26.67-32.85,3.28-.44,12.69,3.92,18.81-.46,3.33-2.3,6.41-4.94,9.19-7.88,0,0,12.25-.44,13.36-.44s5.25,8.31,11.16,10.06,16.63-1.55,18.1-2.21c1.47-.66,11.83,19.47,22.35,29.53,10.52,10.06,29.99,3.92,31.06-12.07,1.07-15.99-17.56-73.94-23.92-82.24-6.36-8.31-29.1-5.89-38.74-3.04-9.63,2.86-18.44,1.15-27.01,1.41Z"/>
    <path class="cls-9" d="M831.47,718.8c-10.52-10.06-20.82-30.17-22.35-29.53s-12.27,4.02-18.1,2.19c-5.83-1.83-10.06-10.06-11.18-10.06s-13.34.46-13.34.46c-2.79,2.94-5.87,5.58-9.19,7.88-6.03,4.38-15.53,0-18.83.44-3.3.44-16.82,27.15-26.67,32.85-9.23,5.35-24.26-2.21-26.63-13.84-.25,2.67-.35,5.36-.28,8.05.66,12.91,17.08,21.86,26.93,16.09,9.86-5.77,23.39-32.4,26.67-32.85,3.28-.44,12.69,3.92,18.81-.46,3.33-2.3,6.41-4.94,9.19-7.88,0,0,12.25-.44,13.36-.44s5.25,8.31,11.16,10.06,16.63-1.55,18.1-2.21c1.47-.66,11.83,19.47,22.35,29.53s29.99,3.92,31.06-12.07c.1-2.48-.03-4.97-.4-7.42-3.06,13.82-20.8,18.65-30.65,9.21Z"/>
    <circle class="cls-9" cx="727.51" cy="656.87" r="19.41"/>
    <path class="cls-4" d="M745,655.22c0,10.72-8.69,19.41-19.41,19.41s-19.41-8.69-19.41-19.41,8.68-19.4,19.39-19.41c10.7-.03,19.4,8.61,19.43,19.31,0,.03,0,.07,0,.1Z"/>
    <path class="cls-9" d="M745,655.22c-.17-1.58-.44-3.14-.8-4.69-1.12-4.18-3.63-7.86-7.1-10.44-2.37-1.79-5.12-2.99-8.05-3.5-3.34-.61-6.77-.31-9.96.86-1.72.61-3.34,1.49-4.79,2.59-1.54,1.12-2.9,2.48-4.02,4.02-4.9,6.64-4.9,15.69,0,22.33,1.11,1.55,2.47,2.91,4.02,4.02,1.45,1.09,3.06,1.96,4.77,2.57,9.94,3.61,20.92-1.53,24.53-11.47.19-.53.36-1.08.51-1.63.36-1.54.63-3.11.8-4.69.13,1.61,0,3.22-.4,4.79-1.76,7.5-7.76,13.26-15.33,14.7-3.49.68-7.09.41-10.44-.78-3.7-1.34-6.92-3.74-9.27-6.9-5.19-6.99-5.19-16.56,0-23.55,1.17-1.63,2.59-3.06,4.22-4.22,1.53-1.15,3.24-2.06,5.05-2.7,10.16-3.71,21.41,1.51,25.12,11.68.26.72.48,1.46.66,2.2.42,1.56.57,3.18.46,4.79Z"/>
    <path class="cls-9" d="M840.65,657.85c0,10.72-8.69,19.41-19.41,19.41s-19.41-8.69-19.41-19.41,8.68-19.4,19.39-19.41c10.71-.02,19.41,8.64,19.43,19.35,0,.02,0,.04,0,.06Z"/>
    <circle class="cls-6" cx="823.25" cy="655.11" r="19.41"/>
    <circle class="cls-4" cx="823.25" cy="655.11" r="19.41"/>
    <path class="cls-9" d="M842.68,655.08c-.17-1.58-.44-3.14-.8-4.69-1.12-4.18-3.63-7.86-7.1-10.44-2.37-1.79-5.12-2.99-8.05-3.5-3.34-.61-6.77-.31-9.96.86-1.72.61-3.34,1.49-4.79,2.59-1.54,1.12-2.9,2.48-4.02,4.02-4.9,6.64-4.9,15.69,0,22.33,1.11,1.55,2.47,2.91,4.02,4.02,1.45,1.09,3.06,1.96,4.77,2.57,9.94,3.61,20.92-1.53,24.53-11.47.19-.53.36-1.08.51-1.63.36-1.54.63-3.11.8-4.69.13,1.61,0,3.22-.4,4.79-1.76,7.5-7.76,13.26-15.33,14.7-3.49.68-7.09.41-10.44-.78-3.7-1.34-6.92-3.74-9.27-6.9-5.19-6.99-5.19-16.56,0-23.55,1.17-1.63,2.59-3.06,4.22-4.22,1.53-1.15,3.24-2.06,5.05-2.7,6.34-2.3,13.42-1.19,18.75,2.94,3.53,2.73,6.02,6.6,7.04,10.94.42,1.56.57,3.18.46,4.79Z"/>
    <path class="cls-9" d="M808.93,684.36c.01,7.22-5.83,13.08-13.05,13.09s-13.08-5.83-13.09-13.05c-.01-7.22,5.83-13.08,13.05-13.09h.02c7.21-.01,13.06,5.82,13.07,13.03v.02Z"/>
    <path class="cls-4" d="M808.93,684.36c-.12,0,0-1.17-.6-3.14-.79-2.78-2.47-5.21-4.79-6.94-3.47-2.59-8.01-3.24-12.07-1.73-4.94,1.84-8.23,6.55-8.25,11.83.02,2.67.87,5.26,2.43,7.42,1.46,2.01,3.49,3.54,5.83,4.38,4.02,1.49,8.53.84,11.97-1.73,2.32-1.72,4-4.17,4.77-6.96.54-2.01.48-3.14.6-3.14s0,.28,0,.84c0,.81-.08,1.61-.26,2.39-.66,2.96-2.33,5.59-4.73,7.44-5.87,4.55-14.33,3.49-18.88-2.39-.06-.08-.13-.17-.19-.25-3.56-4.77-3.56-11.32,0-16.09,4.37-5.97,12.75-7.27,18.72-2.9.11.08.22.16.33.25,2.4,1.84,4.07,4.47,4.73,7.42.2.79.29,1.6.28,2.41.22.58.2.86.1.86Z"/>
    <circle class="cls-9" cx="748.38" cy="684.46" r="13.05"/>
    <path class="cls-4" d="M761.42,684.4c-.1,0,0-1.17-.6-3.14-.77-2.78-2.46-5.23-4.79-6.94-5.62-4.13-13.53-2.93-17.66,2.69-1.57,2.14-2.43,4.71-2.45,7.36,0,2.67.85,5.27,2.43,7.42,1.45,2.01,3.48,3.54,5.81,4.38,4.03,1.48,8.53.83,11.97-1.73,2.32-1.72,4-4.17,4.77-6.96.54-2.01.5-3.14.6-3.14.05.28.05.57,0,.84,0,.81-.09,1.61-.28,2.39-.65,2.95-2.32,5.58-4.71,7.44-3.63,2.81-8.44,3.56-12.75,2.01-2.53-.88-4.74-2.52-6.32-4.69-1.73-2.33-2.66-5.15-2.66-8.05,0-2.89.92-5.71,2.63-8.05,4.39-5.98,12.8-7.28,18.78-2.89.1.07.19.14.29.22,2.39,1.85,4.07,4.49,4.73,7.44.18.79.27,1.59.28,2.39.04.32,0,.65-.08.97Z"/>
    <path class="cls-10" d="M735.73,649.77h-4.75v-4.75c0-2.22-1.8-4.02-4.02-4.02h-2.88c-2.22,0-4.02,1.8-4.02,4.02v4.75h-4.75c-2.22,0-4.02,1.8-4.02,4.02v2.86c0,2.22,1.8,4.02,4.02,4.02h4.77v4.61c0,2.22,1.8,4.02,4.02,4.02h2.88c2.22,0,4.02-1.8,4.02-4.02v-4.75h4.77c2.22,0,4.02-1.8,4.02-4.02v-2.88c-.09-2.17-1.89-3.89-4.06-3.86Z"/>
    <path class="cls-10" d="M829.16,645.32c0,3.15-2.56,5.71-5.71,5.71s-5.71-2.56-5.71-5.71,2.56-5.71,5.71-5.71h0c3.15.01,5.7,2.56,5.71,5.71Z"/>
    <path class="cls-10" d="M840.73,655.4c.02,3.17-2.53,5.75-5.69,5.77-3.17.02-5.75-2.53-5.77-5.69-.02-3.17,2.53-5.75,5.69-5.77.01,0,.03,0,.04,0,3.15,0,5.71,2.54,5.73,5.69Z"/>
    <path class="cls-10" d="M829.18,664.69c0,3.15-2.56,5.71-5.71,5.71s-5.71-2.56-5.71-5.71,2.56-5.71,5.71-5.71h0c3.15.01,5.7,2.56,5.71,5.71Z"/>
    <path class="cls-10" d="M817.13,655.58c0,3.15-2.56,5.71-5.71,5.71s-5.71-2.56-5.71-5.71,2.56-5.71,5.71-5.71h0c3.15.01,5.7,2.56,5.71,5.71Z"/>
    <path class="cls-9" d="M799.57,632.89c-9.63,2.86-18.61,1.11-27.13,1.35-7.87.13-15.74-.22-23.57-1.05.03.82.11,1.64.24,2.45l2.53,17.54c.07,1.38.54,2.72,1.35,3.84,1.26,1.11,2.88,1.73,4.57,1.75,6.93.83,13.9,1.28,20.88,1.37,4.89.24,9.8-.3,14.52-1.59.69-.18,1.33-.51,1.87-.99.39-.48.69-1.03.86-1.63,2.7-7.49,4.28-15.33,4.71-23.27l-.82.22Z"/>
    <path class="cls-9" d="M549.46,711.66c-.28,1.71-1.15,2.55-2.55,2.57-.47,0-.93-.13-1.31-.4-.83-.61-1.29-1.61-1.21-2.63l5.83-43.24c.02-.35.06-.69.14-1.03.35-.9,1.23-1.48,2.19-1.45.4,0,.8.12,1.15.32.8.42,1.31,1.23,1.33,2.13l-2.01,16.88c10.34-11.56,15.76-17.56,16.27-18,.54-.64,1.32-1.03,2.15-1.11.46,0,.9.14,1.29.38.73.4,1.19,1.17,1.19,2.01-.02.72-.26,1.42-.68,2.01-.56.72-7.04,7.89-19.43,21.5l4.59,4.16c8.81,7.92,13.82,12.5,15.02,13.72.66.56,1.08,1.35,1.19,2.21,0,.48-.15.95-.42,1.35-.42.71-1.18,1.15-2.01,1.15-.73,0-1.43-.24-2.01-.68-.7-.5-6.91-6.14-18.63-16.94-.99,7.86-1.65,12.95-2.07,15.09Z"/>
    <path class="cls-9" d="M587.05,711.72c-.3,1.71-1.15,2.57-2.49,2.59-.48,0-.95-.14-1.35-.42-.85-.6-1.32-1.6-1.23-2.63l5.81-43.24c.02-.31.06-.62.12-.93.35-.96,1.29-1.58,2.31-1.53.41,0,.82.09,1.19.28.77.38,1.27,1.15,1.31,2.01-3.58,28.24-5.47,42.86-5.67,43.87Z"/>
    <path class="cls-9" d="M629.59,711.78c-.22,1.63-1.05,2.43-2.49,2.45-1.16-.08-2.19-.79-2.68-1.85l-15.89-36.31c-.2,1.71-.44,3.64-.72,5.77-2.09,17.43-3.35,27.37-3.76,29.81-.28,1.71-1.15,2.55-2.57,2.57-.48,0-.95-.13-1.35-.4-.85-.6-1.32-1.6-1.23-2.63,3.78-28.76,5.69-43.18,5.71-43.26.06-.35.18-.69.34-1.01.48-.83,1.38-1.32,2.33-1.29,1.37,0,2.23.4,2.63,1.23l15.83,35.54,4.61-34.35c.02-.38.13-.75.3-1.09.32-.84,1.12-1.39,2.01-1.39.44,0,.87.12,1.25.34.76.44,1.22,1.27,1.19,2.15,0,.7-.18,1.47-.28,2.29-3,24.77-4.75,38.57-5.23,41.41Z"/>
    <path class="cls-9" d="M658.23,689.61h11.69c.44,0,.87.11,1.25.32.81.42,1.31,1.28,1.27,2.19,0,.25-.03.5-.1.74-.22.99-.48,2.01-.78,3-1.39,4.91-3.9,9.43-7.32,13.21-2.44,3.05-6.06,4.92-9.96,5.15-.47.03-.94.03-1.41,0-3.42-.59-6.38-2.71-8.05-5.75-2.47-4.27-3.68-9.15-3.5-14.08,0-3.4.48-6.78,1.39-10.06,1.25-4.98,3.62-9.61,6.94-13.54,2.55-3.34,6.45-5.37,10.64-5.53,1.53-.01,3.05.33,4.43,1.01,3.31,1.83,5.76,4.9,6.82,8.53.18.36.28.76.28,1.17,0,.44-.12.87-.34,1.25-.43.8-1.27,1.28-2.17,1.25-.27,0-.53-.04-.78-.12-.77-.21-1.38-.81-1.61-1.57l-.12-.22c-.35-.98-.83-1.91-1.41-2.78-1.17-2-3.28-3.26-5.59-3.34-1.41.05-2.77.55-3.88,1.43-2.92,2.42-5.12,5.58-6.38,9.15-1.77,4.18-2.71,8.66-2.76,13.19-.12,3.56.57,7.1,2.01,10.36,1.49,3.06,3.5,4.59,6.03,4.59,2.27-.32,4.31-1.56,5.65-3.42,2.72-3.17,4.77-6.86,6.03-10.84-5.37,0-8.17,0-8.39-.1-1.81-.3-2.76-1.25-2.8-2.84.04-.29.13-.58.26-.84.47-1.02,1.54-1.62,2.65-1.51Z"/>
    <path class="cls-2" d="M680.2,637.6l1.01,1.83c1.12,2.07,2.82,3.77,4.89,4.89l1.83,1.03-1.83,1.01c-2.07,1.12-3.77,2.82-4.89,4.89l-1.01,1.83-1.01-1.83c-1.14-2.06-2.84-3.76-4.91-4.89l-1.83-1.01,1.83-1.03c2.07-1.13,3.77-2.82,4.91-4.89l1.01-1.83Z"/>
    <path class="cls-2" d="M763.47,716.22l1.01,1.85c1.13,2.06,2.82,3.76,4.89,4.89l1.83,1.01-1.83,1.01c-2.06,1.13-3.76,2.82-4.89,4.89l-1.01,1.85-1.01-1.85c-1.14-2.06-2.84-3.75-4.91-4.89l-1.83-1.01,1.83-1.01c2.06-1.13,3.77-2.83,4.91-4.89l1.01-1.85Z"/>
    <path class="cls-2" d="M849.15,629.07l1.01,1.83c1.12,2.07,2.82,3.77,4.89,4.89l1.83,1.01-1.83,1.01c-2.06,1.14-3.76,2.84-4.89,4.91l-1.01,1.83-1.01-1.83c-1.14-2.07-2.84-3.77-4.91-4.91l-1.83-1.01,1.83-1.01c2.07-1.13,3.77-2.82,4.91-4.89l1.01-1.83Z"/>
    <path class="cls-2" d="M659.06,723.91l.5.93c.58,1.02,1.43,1.87,2.45,2.43l.93.5-.93.5c-1.03.58-1.88,1.43-2.45,2.45l-.5.93-.5-.93c-.56-1.03-1.41-1.88-2.43-2.45l-.93-.5.93-.5c1.03-.56,1.87-1.41,2.43-2.43l.5-.93Z"/>
    <path class="cls-2" d="M774.19,707.33l.5.93c.58,1.02,1.43,1.87,2.45,2.43l.93.5-.93.5c-1.02.58-1.85,1.43-2.41,2.45l-.5.91-.5-.91c-.55-1.04-1.4-1.89-2.43-2.45l-.93-.5.93-.5c1.03-.56,1.87-1.41,2.43-2.43l.46-.93Z"/>
    <g>
      <path class="cls-1" d="M584.56,502.12c-.43-8.02-.94-17.66-.85-24.83h-.26c-1.96,6.74-4.35,13.91-7.25,21.84l-10.15,27.9h-5.63l-9.3-27.39c-2.73-8.11-5.03-15.53-6.66-22.36h-.17c-.17,7.17-.6,16.81-1.11,25.43l-1.54,24.66h-7.08l4.01-57.51h9.47l9.81,27.82c2.39,7.08,4.35,13.4,5.8,19.37h.26c1.45-5.8,3.5-12.12,6.06-19.37l10.24-27.82h9.47l3.58,57.51h-7.25l-1.45-25.26Z"/>
      <path class="cls-1" d="M634.48,500.41h-22.36v20.73h24.92v6.23h-32.34v-57.51h31.06v6.23h-23.64v18.17h22.36v6.14Z"/>
      <path class="cls-1" d="M676.46,500.41h-22.36v20.73h24.92v6.23h-32.34v-57.51h31.06v6.23h-23.64v18.17h22.36v6.14Z"/>
      <path class="cls-1" d="M700.95,476.18h-17.49v-6.31h42.58v6.31h-17.58v51.2h-7.51v-51.2Z"/>
      <path class="cls-1" d="M739.86,469.87v57.51h-7.42v-57.51h7.42Z"/>
      <path class="cls-1" d="M752.83,527.38v-57.51h8.11l18.43,29.1c4.27,6.74,7.59,12.8,10.32,18.69l.17-.09c-.68-7.68-.85-14.68-.85-23.64v-24.06h7v57.51h-7.51l-18.26-29.18c-4.01-6.4-7.85-12.97-10.75-19.2l-.26.09c.43,7.25.6,14.16.6,23.72v24.57h-7Z"/>
      <path class="cls-1" d="M852.75,524.82c-3.33,1.19-9.9,3.16-17.66,3.16-8.7,0-15.87-2.22-21.5-7.59-4.95-4.78-8.02-12.46-8.02-21.42.09-17.15,11.86-29.69,31.14-29.69,6.66,0,11.86,1.45,14.33,2.65l-1.79,6.06c-3.07-1.37-6.91-2.47-12.71-2.47-13.99,0-23.12,8.7-23.12,23.12s8.79,23.21,22.18,23.21c4.86,0,8.19-.68,9.9-1.54v-17.15h-11.69v-5.97h18.94v27.65Z"/>
    </g>
    <rect class="cls-6" x="434.25" y="415.36" width="420.05" height="138.3" transform="translate(-158.7 555.7) rotate(-42.01)"/>
    <path class="cls-11" d="M524.58,597.51c-7.28-7.92-6.42-19.19,1.77-26.73,3.97-3.98,9.54-5.93,15.13-5.29l-.6,7.2c-3.44-.48-6.92.62-9.45,3-4.5,4.44-4.55,11.69-.11,16.18,4.22,4.28,11.03,4.56,15.6.65,2.59-2.33,3.97-5.71,3.76-9.19h7.22c.2,5.65-2.21,11.07-6.54,14.7-8.17,7.5-19.47,7.42-26.77-.52Z"/>
    <path class="cls-11" d="M577.56,562.69l-12.21,11.22,2.86,7.78-6.24,5.75-12.57-37.07,6.03-5.53,35.98,15.49-6.4,5.87-7.46-3.52ZM571.39,559.84l-13.44-6.26,5.11,13.92,8.33-7.66Z"/>
    <path class="cls-11" d="M594.08,509.31l24.14,26.33-4.99,4.59-27.82-3.9,14.7,15.97-6.03,5.53-24.14-26.31,5.05-4.63,27.78,4.02-14.7-16.09,6.01-5.51Z"/>
    <path class="cls-11" d="M610.75,518.26c-7.28-7.92-6.42-19.21,1.77-26.73,3.98-3.96,9.54-5.9,15.13-5.27l-.6,7.2c-3.45-.47-6.92.63-9.45,3.02-4.5,4.44-4.55,11.69-.11,16.18,4.22,4.28,11.03,4.56,15.6.65,2.6-2.33,3.98-5.73,3.76-9.21h7.22c.2,5.64-2.21,11.06-6.54,14.68-8.17,7.48-19.47,7.4-26.77-.52Z"/>
    <path class="cls-11" d="M667.93,480.95l4.51,4.87-20.46,18.75-24.14-26.35,19.89-18.28,4.49,4.89-13.82,12.71,5.25,5.71,12.21-11.22,4.36,4.73-12.27,11.28,5.59,6.03,14.38-13.11Z"/>
    <path class="cls-11" d="M653.07,455.07l6.03-5.61,19.63,21.36,13.19-12.07,4.57,4.95-19.29,17.74-24.14-26.37Z"/>
    <path class="cls-11" d="M675.78,434.19l6.03-5.59,19.65,21.34,13.19-12.07,4.55,4.95-19.27,17.74-24.16-26.37Z"/>
    <path class="cls-11" d="M738.47,416.01l4.49,4.89-20.38,18.73-24.14-26.31,19.89-18.28,4.49,4.89-13.84,12.71,5.27,5.71,12.21-11.22,4.36,4.73-12.21,11.24,5.61,6.03,14.24-13.11Z"/>
    <path class="cls-11" d="M723.69,390.12l11.95-11c8.61-7.9,19.27-8.05,26.61-.18,7.34,7.86,6.19,18.59-2.41,26.51l-11.95,10.98-24.2-26.31ZM754.94,400.72c5.21-4.81,5.77-11.08,1.13-16.09-4.65-5.01-10.92-5.01-16.09-.2l-5.53,5.09,15,16.31,5.49-5.11Z"/>
  </g>
  <g id="freepik--Character--inject-6">
    <path class="cls-6" d="M202.96,845.45l-2.94,41.17s40.93,13.8,41.13,21.46l-80.11.2,2.01-64.36,39.91,1.53Z"/>
    <g class="cls-13">
      <path class="cls-11" d="M175.34,882.28c-1.61.44-2.64,2.01-2.39,3.66.38,1.62,1.96,2.67,3.6,2.39,1.7-.43,2.8-2.08,2.55-3.82-.58-1.64-2.36-2.53-4.02-2.01"/>
    </g>
    <g class="cls-13">
      <path class="cls-11" d="M161.04,908.29l.2-6.5,77.36,2.51c1.66.87,2.77,2.51,2.96,4.36l-80.52-.38Z"/>
    </g>
    <path class="cls-9" d="M201.33,886.26c0,.38-2.01.5-4.02,1.69-2.01,1.19-3.04,2.8-3.4,2.63s.32-2.41,2.72-3.82c2.39-1.41,4.87-.86,4.71-.5Z"/>
    <path class="cls-9" d="M209.54,890.02c0,.38-1.63.99-3.02,2.59s-1.83,3.34-2.21,3.32-.56-2.25,1.19-4.22c1.75-1.97,4.04-2.05,4.04-1.69Z"/>
    <path class="cls-9" d="M214.02,900.24c-.36,0-.82-1.89.24-4.02s2.94-2.9,3.1-2.55-1.03,1.43-1.87,3.18c-.84,1.75-1.09,3.38-1.47,3.4Z"/>
    <path class="cls-9" d="M200.97,876.81c-.18.34-2.01-.26-4.18-.18s-4.02.7-4.14.36,1.51-1.67,4.12-1.73c2.61-.06,4.4,1.21,4.2,1.55Z"/>
    <g class="cls-12">
      <polygon class="cls-1" points="200.85 875.02 200.31 882.6 161.85 880.91 162.05 874.28 200.85 875.02"/>
    </g>
    <path class="cls-9" d="M201.49,868.42c-1.33.31-2.72.25-4.02-.16-1.43-.31-2.83-.79-4.14-1.43-.78-.39-1.54-.82-2.27-1.31-.43-.27-.83-.6-1.17-.99-.44-.6-.44-1.41,0-2.01.4-.55,1.05-.86,1.73-.82.51.01,1.02.1,1.51.26.85.23,1.67.55,2.45.95,1.33.66,2.56,1.52,3.62,2.55,1.79,1.77,2.37,3.26,2.23,3.34s-1.05-1.15-2.88-2.61c-1.07-.87-2.24-1.59-3.5-2.15-.74-.32-1.5-.58-2.27-.78-.84-.26-1.57-.28-1.81,0s0,.2,0,.46c.26.27.55.51.86.7.64.47,1.32.9,2.01,1.29,1.22.66,2.5,1.21,3.82,1.63,1.3.28,2.57.64,3.82,1.09Z"/>
    <path class="cls-9" d="M200.87,869.03c-.72-1.17-1.04-2.54-.93-3.9-.02-1.49.22-2.97.7-4.38.3-.83.67-1.63,1.11-2.39.46-1.09,1.46-1.86,2.63-2.01.73.04,1.36.51,1.63,1.19.19.47.31.96.36,1.47.11.9.08,1.82-.1,2.72-.28,1.47-.91,2.85-1.85,4.02-1.63,2.01-3.28,2.41-3.32,2.29s1.27-.91,2.53-2.86c.74-1.13,1.22-2.41,1.41-3.74.11-.77.11-1.55,0-2.31,0-.84-.38-1.55-.7-1.47s-1.11.58-1.45,1.27c-.42.67-.78,1.39-1.07,2.13-.5,1.29-.82,2.64-.93,4.02-.18,2.43.18,3.92-.04,3.96Z"/>
    <path class="cls-6" d="M286.25,852.33l-6.8,37.39s36.06,16.73,35.48,23.75l-73.21-7.9,8.05-58.69,36.49,5.45Z"/>
    <g class="cls-13">
      <path class="cls-11" d="M257.35,883.21c-1.52.23-2.62,1.58-2.55,3.12.18,1.53,1.52,2.65,3.06,2.55,1.6-.25,2.76-1.68,2.68-3.3-.34-1.58-1.87-2.6-3.46-2.31"/>
    </g>
    <g class="cls-13">
      <path class="cls-11" d="M241.72,905.57l.82-5.91,70.54,10.06c1.44.95,2.29,2.56,2.27,4.28l-73.64-8.43Z"/>
    </g>
    <path class="cls-9" d="M280.68,889.44c0,.36-1.87.26-3.78,1.15-1.91.89-3.08,2.25-3.38,2.01s.52-2.17,2.86-3.22,4.43-.24,4.3.06Z"/>
    <path class="cls-9" d="M287.98,893.73c0,.36-1.61.72-3.04,2.01-1.43,1.29-2.01,2.88-2.35,2.8s-.28-2.11,1.53-3.72,3.86-1.43,3.86-1.09Z"/>
    <path class="cls-9" d="M290.9,903.52c-.34,0-.56-1.83.62-3.66s2.98-2.35,3.1-2.01-1.09,1.23-2.01,2.74-1.35,2.94-1.71,2.94Z"/>
    <path class="cls-9" d="M281.28,880.75c-.18.3-1.75-.42-3.78-.58-2.03-.16-3.7.26-3.84,0s1.55-1.39,4.02-1.17,3.82,1.49,3.6,1.75Z"/>
    <g class="cls-12">
      <polygon class="cls-1" points="282.37 873.43 280.54 883.79 245.36 878.24 246.19 872.2 282.37 873.43"/>
    </g>
    <path class="cls-9" d="M282.53,873.19c-1.25.14-2.51-.05-3.66-.56-1.29-.42-2.52-1-3.66-1.73-.7-.42-1.38-.89-2.01-1.41-.38-.29-.71-.64-.99-1.03-.41-.59-.36-1.38.12-1.91.44-.44,1.05-.66,1.67-.58.47.06.92.19,1.35.38,2.03.8,3.83,2.11,5.21,3.8.89.9,1.49,2.04,1.73,3.28-.18.1-.84-1.13-2.39-2.68-.89-.89-1.89-1.67-2.98-2.31-.64-.38-1.31-.69-2.01-.95-.74-.32-1.41-.42-1.65-.1s-.1.16,0,.42c.21.28.45.53.72.74.58.5,1.19.97,1.77,1.39,1.06.72,2.17,1.34,3.34,1.85,1.18.37,2.33.84,3.44,1.39Z"/>
    <path class="cls-9" d="M281.95,873.63c-.55-1.14-.71-2.44-.46-3.68.14-1.36.51-2.68,1.09-3.92.35-.71.77-1.38,1.25-2.01.55-.91,1.53-1.48,2.59-1.51.66.11,1.2.6,1.39,1.25.12.45.18.92.18,1.39.02.84-.11,1.68-.36,2.47-.37,1.33-1.06,2.54-2.01,3.54-1.71,1.69-3.26,1.89-3.28,1.77s1.27-.7,2.61-2.35c.78-.96,1.34-2.08,1.65-3.28.17-.66.26-1.33.24-2.01,0-.8-.2-1.47-.5-1.43s-1.07.44-1.45,1.01c-.46.58-.86,1.2-1.21,1.85-.57,1.12-.99,2.32-1.23,3.56-.5,1.93-.26,3.32-.5,3.36Z"/>
    <polygon class="cls-9" points="287 878.22 315.72 707.11 257.13 714.93 243.39 871.8 287 878.22"/>
    <polygon class="cls-9" points="232.55 528.88 157.2 526.21 157.2 526.21 155.47 875.92 206.86 876.89 235.2 604.45 232.55 528.88"/>
    <polygon class="cls-9" points="269.66 521.74 315.72 707.11 258.03 723.3 230.68 630.44 210.02 541.64 269.66 521.74"/>
    <path class="cls-4" d="M239.51,579.33c.05.37.05.75,0,1.13-.1.86-.22,2.01-.38,3.22-.38,2.94-.91,6.94-1.55,11.83-1.35,10.06-3.18,23.81-5.21,38.96s-3.66,29.04-4.71,39.04c-.54,5.01-.93,9.05-1.17,11.85-.1,1.31-.2,2.37-.28,3.24-.01.38-.07.76-.18,1.13-.03-.38-.03-.76,0-1.15v-3.24c.12-2.82.38-6.88.82-11.91.86-10.06,2.43-23.85,4.43-39.08,1.99-15.23,4.02-29,5.51-38.94.76-4.87,1.41-8.85,1.87-11.79.24-1.29.42-2.33.58-3.18.04-.38.13-.75.26-1.11Z"/>
    <path class="cls-11" d="M165.49,534.54c.28,0,1.43,76.43,2.55,170.56,1.13,94.13,1.81,170.6,1.51,170.6s-1.43-76.43-2.55-170.58c-1.13-94.15-1.71-170.58-1.51-170.58Z"/>
    <path class="cls-11" d="M175.95,536.55c.28,0,.62,75.51.76,168.63.14,93.13,0,168.65-.3,168.65s-.62-75.49-.74-168.65c-.12-93.17,0-168.63.28-168.63Z"/>
    <path class="cls-4" d="M238.28,542.1c.74-.37,1.55-.58,2.37-.62,2.25-.26,4.52.01,6.64.8,1.48.52,2.85,1.33,4.02,2.37.36.34.62.77.76,1.25.14.55.05,1.13-.26,1.61-.65.83-1.62,1.33-2.68,1.39-4.29.38-8.43-1.69-10.7-5.35l-.12-.2h.91c-.95,1.9-2.14,3.67-3.54,5.27-1.35,1.59-3.29,2.56-5.37,2.68-1.03-.03-2-.46-2.72-1.21-.67-.74-.95-1.75-.76-2.74.42-1.59,1.44-2.95,2.86-3.78,1.91-1.22,4.15-1.83,6.42-1.75.82-.03,1.63.13,2.37.48,0,0-.86-.12-2.37,0-2.16.07-4.26.77-6.03,2.01-1.21.75-2.08,1.94-2.43,3.32-.14.73.07,1.48.58,2.01.54.53,1.26.83,2.01.86,1.8-.16,3.46-1.04,4.61-2.43,1.32-1.52,2.44-3.2,3.34-5.01l.44-.78.48.76v.18c2.08,3.32,5.81,5.22,9.71,4.95.77-.04,1.49-.38,2.01-.95.32-.59.17-1.33-.36-1.75-1.09-.98-2.35-1.76-3.72-2.29-2.01-.82-4.18-1.19-6.36-1.09-1.25-.14-2.09.08-2.11,0Z"/>
    <path class="cls-4" d="M192.24,548.25c-.83,3.74-2.33,7.31-4.43,10.52-1.79,3.39-4.16,6.44-7.02,8.99-.24-.2,2.98-4.02,6.03-9.51s5.11-10.1,5.41-10Z"/>
    <path class="cls-4" d="M278.15,554.91c-3.44-1.46-6.61-3.5-9.35-6.03-2.96-2.22-5.51-4.95-7.54-8.05.22-.22,3.56,3.44,8.23,7.32s8.83,6.5,8.67,6.76Z"/>
    <path class="cls-6" d="M192.16,325.96c-7.38-2.34-15.44-.31-20.84,5.23-1.57,2.02-3.33,3.88-5.27,5.55-4.75,3.32-11.44,1.83-16.67,4.32-5.36,2.87-8.16,8.95-6.86,14.88,1.5,5.83,5.91,10.46,11.67,12.23,5.73,1.66,11.87,1.12,17.22-1.51,5.3-2.62,9.95-6.4,13.6-11.06,6.68-8.05,11.2-18.56,10.06-29.02"/>
    <path class="cls-6" d="M190.97,326.44l-6.22,15.83-36.89,22.97,17.98,116.66s-15.15,25.32-14.84,43.99v.14c.05,2.55,1.88,4.71,4.38,5.19,11.46,2.31,49.3,9.27,74.86,6.8,29.39-2.74,41.64-7.5,41.64-7.5l4.02-17.34-4.97-14.84-6.8-118.17s-2.63-20.11-7.16-25.5l-13.01-10.06-7.04-12.51-45.96-5.65Z"/>
    <path class="cls-6" d="M246.23,346.37c14.84,4.91,29.27,11.71,29.63,40.89s2.61,95.16,2.61,95.16l-26.33-12.07-5.91-107.07v-16.92Z"/>
    <g class="cls-12">
      <path class="cls-1" d="M154.69,506.38c6.77,1.74,13.68,2.88,20.66,3.4,6.72.48,13.45-.91,19.43-4.02,4.09-2.59,7.91-5.57,11.4-8.91,9.76-8.43,20.82-15.17,31.84-21.86l17.76-10.8c1.55-.82,2.92-1.95,4.02-3.32,1.11-1.42,1.24-3.37.34-4.93-1.04-1.24-2.68-1.81-4.26-1.47-1.55.34-3.03.96-4.34,1.85l-19.39,11.32c-23.75,13.86-48.27,28-75.43,32.18l-2.03,6.56Z"/>
    </g>
    <path class="cls-6" d="M180.15,449.23c.15-.42.42-.79.78-1.05l3.64-2.61c.6-.41.94-1.11.89-1.83l-.99-17v-.16c0-1.89.84-39.18-3.38-51.39-4.02-11.83-14.34-18.28-32.91-11.61-1.59,1.52-3.07,3.15-4.45,4.87h0c-3.58,5.85-5.59,12.53-5.81,19.39l-1.33,40.09s-3.68,36.97-4.2,41.98c-1.33,12.47,3.2,32.66,13.8,34.19,4.79.66,35.78-5.77,41.92-7.46,1.85-1.27,3.34-3.01,4.32-5.03l3.88-38.22c.18-1.84-1.16-3.47-3-3.65-.07,0-.13-.01-.2-.01l-12.97-.5Z"/>
    <path class="cls-9" d="M185.58,395.25c.14.75.21,1.51.2,2.27,0,1.65.14,3.74.24,6.22.16,5.25.32,12.51.44,20.54,0,4.02,0,7.8.12,11.3.31,3.15-.31,6.32-1.77,9.13-1.15,1.78-2.7,3.28-4.53,4.36-.61.43-1.29.75-2.01.95,0,0,.7-.4,1.89-1.25,1.69-1.15,3.11-2.66,4.16-4.4,1.31-2.73,1.83-5.76,1.49-8.77,0-3.5-.14-7.32-.2-11.3-.12-8.05-.18-15.29-.16-20.54v-6.24c-.05-.76-.01-1.52.12-2.27Z"/>
    <path class="cls-9" d="M164.75,467.38c-.03-1.1.16-2.2.54-3.24.76-2.54,1.97-4.93,3.58-7.04,1.63-2.14,3.68-3.92,6.03-5.23.92-.63,1.96-1.04,3.06-1.21-3.15,1.82-5.94,4.18-8.27,6.98-2.09,3-3.76,6.28-4.95,9.74Z"/>
    <path class="cls-9" d="M157.52,458.47c.52-1.06,1.24-2,2.13-2.78,2.03-2,4.44-3.58,7.08-4.65,2.64-1.06,5.46-1.58,8.31-1.53,1.18-.06,2.36.13,3.46.54-1.14.11-2.29.14-3.44.1-5.52.28-10.79,2.4-14.96,6.03-.81.81-1.67,1.57-2.57,2.27Z"/>
    <g class="cls-12">
      <path class="cls-1" d="M177.84,449.55c-9.07-2.96-19.03-.86-26.15,5.49-.89.8-1.77,2.01-1.43,3.04.31.85,1.11,1.43,2.01,1.47.87.05,1.74-.11,2.53-.46,3.92-1.74,7.71-3.75,11.34-6.03,3.67-2.32,7.98-3.41,12.31-3.1"/>
    </g>
    <path class="cls-6" d="M268.21,439.74c4.51,19.57,10.74,38.84,12.65,58.83.86,8.99.66,18.69-4.32,26.15-1.89,2.97-4.57,5.36-7.74,6.9"/>
    <path class="cls-9" d="M264.43,379.38c.09.31.13.63.12.95,0,.74.1,1.65.16,2.72,0,2.53.26,5.91.42,10.06.36,8.45.86,20.11,1.77,32.95s2.21,24.46,3.34,32.81c.56,4.18,1.05,7.58,1.41,9.92l.38,2.7c.05.31.05.63,0,.95-.13-.29-.22-.61-.26-.93-.16-.72-.34-1.59-.58-2.66-.48-2.31-1.07-5.69-1.73-9.86-1.33-8.37-2.72-19.97-3.66-32.85-.95-12.87-1.29-24.56-1.45-33.01,0-4.22-.12-7.64-.1-10.06v-2.74c.01-.32.07-.64.18-.95Z"/>
    <path class="cls-9" d="M181.76,338.45s-.46.52-1.41,1.33c-.95.8-2.35,2.01-4.02,3.26-3.54,2.68-8.57,6.17-14.08,10.06s-10.38,7.58-13.76,10.42-5.37,4.71-5.49,4.59c.34-.55.75-1.05,1.23-1.49.84-.91,2.13-2.17,3.78-3.66,4.33-3.84,8.88-7.42,13.64-10.72,5.53-3.88,10.6-7.28,14.24-9.8,1.88-1.44,3.84-2.77,5.87-3.98Z"/>
    <polygon class="cls-6" points="195.88 452.39 204.93 448.59 204.93 487.57 189.2 493.48 195.88 452.39"/>
    <path class="cls-9" d="M173.62,452.55c.81-.25,1.65-.42,2.49-.48l6.8-.89,4.73-.56,2.61-.3c.96-.15,1.93-.2,2.9-.16,1.14.06,2.2.63,2.88,1.55.58.98.83,2.12.72,3.26-.2,2.19-.66,4.24-.99,6.44-1.41,8.73-2.49,16.67-3.48,22.41-.48,2.86-.93,5.17-1.25,6.76-.1.84-.31,1.67-.62,2.45,0-.84.07-1.68.22-2.51.24-1.81.54-4.02.93-6.8.78-5.75,1.75-13.72,3.18-22.47.3-2.17.8-4.36.99-6.32.11-.92-.07-1.85-.52-2.66-.51-.68-1.3-1.1-2.15-1.15-1.78,0-3.56.13-5.33.36l-4.73.44-6.84.56c-.84.1-1.69.12-2.53.06Z"/>
    <path class="cls-9" d="M204.39,457.74c-1.39,1.26-3,2.25-4.75,2.92-1.6.99-3.38,1.67-5.23,2.01,1.4-1.26,3.01-2.25,4.77-2.92,1.6-.99,3.36-1.67,5.21-2.01Z"/>
    <path class="cls-9" d="M204.93,474.5c-1.97,1.18-4.05,2.16-6.22,2.92-2.05,1.11-4.3,1.79-6.62,2.01,1.97-1.18,4.05-2.16,6.22-2.92,2.05-1.1,4.3-1.78,6.62-2.01Z"/>
    <path class="cls-9" d="M191.07,492.78c1.18-.67,2.42-1.23,3.7-1.67,2.39-.99,5.85-2.35,10.06-4.02l-.28.42v-17c0-8.55,0-16.31.14-21.98l.52.34-6.7,2.63c-.81.35-1.64.62-2.49.82.73-.5,1.51-.91,2.33-1.23l6.58-2.92.5-.24v.58c0,5.67.14,13.44.14,21.98v17.3l-.28.12c-4.2,1.51-7.68,2.76-10.06,3.6-1.35.53-2.74.95-4.16,1.25Z"/>
    <path class="cls-9" d="M229.25,349.49c-.43.31-.92.53-1.43.66-1.36.48-2.78.78-4.22.91-4.77.36-9.55-.52-13.88-2.53-4.27-2.02-8.27-4.58-11.89-7.62-1.58-1.15-3.05-2.44-4.38-3.86,1.69.97,3.29,2.08,4.79,3.32,3.69,2.81,7.66,5.24,11.85,7.24,4.2,1.95,8.79,2.89,13.42,2.76,1.93-.19,3.85-.47,5.75-.86Z"/>
    <path class="cls-9" d="M233.67,345.06c.2.2-.14.93-.76,1.65s-1.33,1.15-1.55.95.12-.93.76-1.65,1.25-1.13,1.55-.95Z"/>
    <path class="cls-9" d="M225.97,487.21s0,.56-.24,1.55c-.33,1.38-.78,2.72-1.35,4.02-3.76,8.78-10.89,15.68-19.79,19.15-1.31.51-2.65.91-4.02,1.21-1.01.18-1.55.26-1.57.18s2.13-.66,5.37-2.01c8.46-3.76,15.3-10.43,19.25-18.81,1.61-3.2,2.17-5.33,2.35-5.29Z"/>
    <path class="cls-9" d="M262.5,479.42c-1.37.62-2.81,1.09-4.28,1.39-2.7.7-6.44,1.57-10.6,2.35-4.16.78-8.05,1.35-10.74,1.67-1.48.28-3,.37-4.51.26,1.42-.48,2.89-.82,4.38-1.01l10.66-2.01,10.64-2.01c1.45-.39,2.94-.6,4.45-.64Z"/>
    <path class="cls-7" d="M304.62,403.21l-12.19,5.65-5.71,5.79s13.3-1.57,13.66.66.4,4.77-.48,5.47c-.83.84-1.56,1.78-2.17,2.8,0,0,3.2,3.56,2.01,5.39-.79,1.16-1.47,2.39-2.01,3.68l-1.89-.16s.2,6.92-1.25,7.86c-.89.75-1.98,1.22-3.14,1.33-2,.29-4.01.48-6.03.56l-2.19-.2s-11.4,14.36-15.49,14.08c-4.08-.28-11.61-.48-11.61-.48-18,17.4-39.96,30.16-63.98,37.19l2.92-33.27.4-6.03,62.84-22.61,22.35-24.92,10.46-5.13,15.23-3.34c.67,2.06-.01,4.32-1.71,5.67Z"/>
    <path class="cls-3" d="M256.1,455.59h2.29l6.58.16h2.25c.79.08,1.58-.1,2.25-.5,1.59-.95,3.05-2.09,4.36-3.4,3.24-3.15,6.28-6.51,9.09-10.06l.12-.14h.18l2.17.18h0c1.33,0,2.7-.16,4.02-.32.68-.06,1.35-.15,2.01-.28.67-.09,1.32-.3,1.91-.64l.93-.62c.21-.21.36-.46.44-.74.22-.69.37-1.41.44-2.13.15-1.54.2-3.1.16-4.65v-.48h.48l1.89.16-.42.26c.31-.78.66-1.54,1.07-2.27.34-.74,1.07-1.53,1.11-2.01-.01-.79-.25-1.55-.68-2.21-.41-.72-.89-1.4-1.45-2.01l-.22-.26.16-.28c.5-.8,1.05-1.56,1.65-2.29.18-.18.34-.36.54-.54.14-.1.25-.24.32-.4.15-.39.24-.79.26-1.21.09-.92.09-1.84,0-2.76l-.1-.7c0-.12,0-.14-.2-.26-.38-.19-.79-.32-1.21-.38-3.92-.32-7.87-.21-11.77.32l-1.27.12.89-.91.22-.2,5.51-5.59h0l12.19-5.63h0c1.59-1.25,2.22-3.37,1.57-5.29l.5.28-15.25,3.32h0l-10.48,5.09.1-.1-16.41,18.1-4.55,4.93-1.21,1.27-.44.42s.1-.18.36-.48l1.13-1.35,4.4-5.05c3.88-4.4,9.41-10.66,16.19-18.28h0l10.44-5.15h.1l15.21-3.38h.4l.1.36c.82,2.27.09,4.81-1.81,6.3h0l-12.17,5.63h.12l-5.51,5.59-.2.2-.38-.76c2.01-.24,4.02-.4,6.03-.5,2.01-.12,4.03-.06,6.03.18.54.08,1.06.25,1.53.52.32.19.55.51.6.89l.1.72c.1.98.1,1.97,0,2.96-.04.52-.16,1.03-.36,1.51-.13.27-.31.51-.54.7-.16.14-.31.29-.44.44-.52.61-1,1.27-1.43,1.95v-.52c.6.69,1.12,1.44,1.57,2.23.5.82.77,1.76.76,2.72-.08.49-.28.95-.58,1.35-.22.34-.42.68-.62,1.05-.39.71-.73,1.43-1.05,2.17l-.12.3h-.3l-2.01-.18.46-.42c.03,1.58-.03,3.17-.2,4.75-.08.79-.24,1.57-.48,2.33-.14.44-.41.83-.76,1.13l-.93.62c-.68.4-1.43.65-2.21.74-.71.13-1.43.23-2.15.28-1.41.14-2.8.22-4.12.28h0l-2.17-.2.3-.12c-2.85,3.56-5.95,6.92-9.25,10.06-1.36,1.33-2.88,2.48-4.53,3.42-.4.2-.82.35-1.25.46-.42.06-.85.06-1.27,0l-2.25-.12-6.54-.36-1.71-.12-.52-.16Z"/>
    <path class="cls-3" d="M297.8,423.31c0,.1-.76-.38-2.01-.8-1.62-.53-3.34-.69-5.03-.48-1.71.24-3.39.62-5.03,1.15-1.31.4-2.01.6-2.17.48s.68-.54,2.01-1.09c1.65-.73,3.39-1.21,5.17-1.45,1.8-.22,3.63.05,5.29.78,1.29.62,1.85,1.33,1.77,1.41Z"/>
    <path class="cls-3" d="M295.89,432.84c-.05-.63-.39-1.21-.91-1.57-1.5-.53-3.11-.68-4.69-.44-2.3.36-4.56.99-6.72,1.87,1.78-1.71,4.14-2.7,6.62-2.76.95-.11,1.91-.11,2.86,0,.82.05,1.61.32,2.29.78.47.36.76.91.78,1.51-.1.44-.1.62-.24.6Z"/>
    <path class="cls-3" d="M289.77,437.81c0,.12-.54.36-1.51.46-1.19.04-2.37.2-3.52.48-1.05.26-1.81,1.16-1.89,2.23,0,.84.48,1.23.4,1.35s-.82-.16-1.05-1.27c-.11-.65.05-1.31.42-1.85.45-.62,1.08-1.09,1.81-1.35,1.24-.32,2.53-.41,3.8-.24.93.06,1.49.06,1.53.18Z"/>
    <path class="cls-7" d="M189.97,265.01l2.15,63.26,22.41,14.7c6.79,4.45,15.91,2.55,20.36-4.24,1.15-1.76,1.91-3.74,2.23-5.81h0v-7.56s17.98-1.85,19.13-19.67c.56-8.67.26-26.65-.2-42.84-.47-17.85-15.03-32.1-32.89-32.18h0c-18.26-.08-33.13,14.66-33.21,32.92,0,.48,0,.96.02,1.43Z"/>
    <path class="cls-3" d="M237.15,325.35c-8.24-.28-16.22-3-22.91-7.82,0,0,4.83,13.11,22.71,12.45l.2-4.63Z"/>
    <path class="cls-9" d="M251.78,275.61c-.07,1.38-1.21,2.46-2.59,2.43-1.35.03-2.48-1.04-2.51-2.39,0-.01,0-.03,0-.04.07-1.38,1.21-2.46,2.59-2.43,1.35-.03,2.48,1.04,2.51,2.39,0,.01,0,.03,0,.04Z"/>
    <path class="cls-9" d="M251.78,271.95c-.32.3-2.19-1.23-4.93-1.37-2.74-.14-4.83,1.15-5.11.78s.22-.74,1.13-1.33c1.21-.74,2.61-1.1,4.02-1.03,1.43.05,2.8.57,3.9,1.49.99.68,1.13,1.31.99,1.45Z"/>
    <path class="cls-9" d="M224.86,275.39c-.05,1.38-1.19,2.47-2.57,2.45-1.35.03-2.48-1.04-2.51-2.39,0-.02,0-.04,0-.06.07-1.38,1.21-2.46,2.59-2.43,1.33-.04,2.45,1,2.49,2.33,0,.03,0,.07,0,.1Z"/>
    <path class="cls-9" d="M224.78,271.05c-.34.32-2.19-1.21-4.93-1.35s-4.83,1.13-5.11.78.22-.74,1.13-1.35c1.21-.74,2.61-1.1,4.02-1.03,1.43.07,2.79.59,3.9,1.49.88.68,1.15,1.31.99,1.45Z"/>
    <path class="cls-9" d="M233.67,291.9c1.46-.38,2.97-.58,4.49-.58.7,0,1.39-.14,1.53-.6.09-.72-.03-1.46-.36-2.11l-1.79-5.43c-2.47-7.74-4.24-14.08-4.02-14.18,2.05,4.47,3.74,9.1,5.05,13.84l1.71,5.45c.39.87.47,1.85.22,2.78-.24.49-.68.84-1.21.97-.4.06-.81.06-1.21,0-1.47.13-2.95.09-4.4-.12Z"/>
    <path class="cls-9" d="M226.05,260.35c-.3.72-3.02.22-6.26.44s-5.89.97-6.28.28c-.18-.34.3-1.01,1.39-1.69,1.45-.82,3.07-1.29,4.73-1.37,1.65-.12,3.31.16,4.83.82,1.17.54,1.73,1.15,1.59,1.51Z"/>
    <path class="cls-9" d="M251.17,263.95c-.52.6-2.37-.14-4.65-.28s-4.22.2-4.63-.48c-.18-.32.16-.93,1.03-1.47,2.38-1.32,5.32-1.08,7.46.6.76.68,1.01,1.35.78,1.63Z"/>
    <path class="cls-3" d="M235.93,298.64c-1.67-1.47-4.21-1.31-5.68.36-1.47,1.67-1.31,4.21.36,5.68,1.52,1.34,3.8,1.34,5.32,0"/>
    <path class="cls-9" d="M234.74,305.06s-.68.8-2.25.66c-.92-.11-1.77-.53-2.41-1.19-1.48-1.65-1.35-4.2.31-5.68.14-.13.3-.25.46-.35.79-.48,1.72-.67,2.63-.54,1.55.24,2.01,1.17,2.01,1.21s-.78-.44-2.01-.46c-.72-.02-1.42.19-2.01.6-1.41,1.06-1.7,3.07-.64,4.48.02.02.03.05.05.07.48.54,1.11.93,1.81,1.11,1.17.28,1.99-.06,2.05.1Z"/>
    <path class="cls-11" d="M229.03,438.93c-.4-1.66-.49-3.38-.26-5.07.6-4.61,2.24-9.03,4.79-12.91,2.94-5.07,7.66-10.26,11.3-16.96.92-1.7,1.69-3.49,2.29-5.33.29-.95.49-1.93.6-2.92.07-.39,0-.8-.2-1.15-.16-.24-.44-.32-.93-.26-4.18.79-8.18,2.34-11.81,4.57-3.82,2.19-7.4,4.65-11.12,6.64-.93.52-1.85.99-2.82,1.43-1.02.55-2.22.67-3.34.34-1.11-.5-1.81-1.64-1.75-2.86.03-1.04.25-2.08.66-3.04,2.98-6.15,6.28-12.14,9.88-17.94,3.06-4.95,5.73-8.83,7.64-11.46.95-1.31,1.71-2.33,2.23-3,.25-.36.53-.7.84-1.01-.18.4-.4.78-.66,1.13l-2.01,3.12c-1.79,2.7-4.36,6.62-7.34,11.61s-6.36,11.06-9.61,17.92c-.35.84-.54,1.74-.56,2.66-.08.85.38,1.65,1.15,2.01,1.55.54,3.5-.86,5.29-1.73,3.64-2.01,7.22-4.45,11.1-6.66,3.74-2.3,7.87-3.89,12.19-4.69.71-.13,1.43.13,1.89.68.33.55.47,1.19.38,1.83-.17,1.04-.42,2.06-.76,3.06-.63,1.9-1.43,3.74-2.39,5.49-3.78,6.82-8.55,11.93-11.53,16.88-2.55,3.79-4.25,8.07-5.01,12.57-.19,1.68-.23,3.36-.14,5.05Z"/>
    <path class="cls-9" d="M260.75,215.8c-7.68-1.43-14.83,6.02-22.68,5.38-4.78-.38-8.73-3.68-13.14-5.49-3.45-1.39-7.19-1.98-10.91-1.71-3.72.27-7.33,1.38-10.54,3.24-5.99,3.77-9.59,7.7-9.77,14.75-6.14-2.64-14.98,5.56-17.48,12.83-2.49,7.26-.86,14.3,1.92,21.5,4.65,12.4,11.73,23.79,20.84,33.52.81.87,2.03,1.77,3.05,1.17.31-.27.56-.6.71-.98.15-.38.21-.79.17-1.19.35-6.88-1.32-13.68-2.69-20.45-1.36-6.77-2.46-13.75-1-20.5,1.46-6.75,5.95-13.2,12.64-15.3,5.06-1.27,10.42-.75,15.12,1.49,4.78,1.98,9.09,4.87,13.68,7.21,4.49,2.6,9.62,3.93,14.83,3.87,5.16-.34,10.4-3.34,12.07-8.15,1.67-4.81-1.52-11.05-6.68-11.54,2.3-.47,4.37-1.72,5.84-3.52,1.48-1.8,2.27-4.05,2.25-6.36-.02-2.31-.85-4.55-2.35-6.33-1.5-1.78-3.59-2.99-5.9-3.43Z"/>
    <path class="cls-9" d="M253.23,233.53c-2.46-3.46-5.76-6.26-9.59-8.15-8.12-4.47-17.47-6.31-26.71-5.24-9.27,1.12-17.73,5.74-23.6,12.88-4.47,5.85-7.09,12.86-7.54,20.16-.64,7.97.19,15.99,2.47,23.67,1.02,3.02,2.97,3.89,5.53,5.85,1.59,1.23,4.13,1.89,5.53.38.73-.94,1.12-2.08,1.11-3.26,1.06-10.56,1.92-21.88-3.3-31.14,1.95-3.74,4.68-7.05,8-9.7,1.66-1.32,3.58-2.3,5.63-2.89,2.05-.59,4.2-.76,6.33-.53,6.27.94,10.8,6.13,16.17,9.43,3.88,2.32,8.26,3.7,12.79,4.03,4.53.33,9.07-.41,13.25-2.14l-6.06-13.35Z"/>
    <path class="cls-2" d="M176.44,261.76c0-.15,1.46-.19,3.7-.66,5.89-1.26,11.1-4.62,14.62-9.43,1.32-1.89,1.92-3.13,2.07-3.07-.29,1.23-.83,2.39-1.57,3.41-1.66,2.57-3.86,4.76-6.45,6.43-2.59,1.67-5.5,2.79-8.56,3.28-1.26.26-2.56.27-3.82.04Z"/>
    <path class="cls-2" d="M178.02,265.52c0-.15,1.44-.19,3.68-.66,5.9-1.25,11.11-4.61,14.62-9.43,1.34-1.89,1.92-3.13,2.07-3.07-.28,1.23-.82,2.39-1.57,3.41-1.66,2.57-3.86,4.76-6.45,6.43-2.59,1.67-5.5,2.79-8.56,3.28-1.25.25-2.54.26-3.8.04Z"/>
    <path class="cls-7" d="M196.02,280.04c-.3-.14-12.07-4.26-12.33,7.94-.26,12.21,12.07,10.06,12.07,9.59s.26-17.54.26-17.54Z"/>
    <path class="cls-3" d="M192.16,292.89s-.22.14-.58.3c-.51.19-1.08.19-1.59,0-1.59-1.05-2.49-2.89-2.33-4.79-.01-1.05.21-2.08.64-3.04.25-.77.87-1.36,1.65-1.59.5-.12,1.02.13,1.23.6.16.34,0,.58.14.6s.26-.2.18-.7c-.06-.3-.22-.57-.46-.76-.33-.26-.75-.38-1.17-.34-1.03.18-1.89.88-2.27,1.85-.54,1.05-.81,2.22-.8,3.4-.16,2.22,1.02,4.31,3,5.33.68.23,1.42.13,2.01-.28.32-.3.4-.56.36-.58Z"/>
  </g>
  <g id="freepik--speech-bubble--inject-6">
    <path class="cls-11" d="M160.92,291.82l-15.59-26.31c15.27-25.54,6.95-58.63-18.59-73.9-25.54-15.27-58.63-6.95-73.9,18.59-15.27,25.54-6.95,58.63,18.59,73.9,17.61,10.53,39.67,10.15,56.91-.99v.18l32.58,8.53Z"/>
    <path class="cls-9" d="M160.92,291.82l-32.5-8.05h.24c-8.4,5.32-18.1,8.23-28.04,8.41-5.89.03-11.75-.83-17.38-2.55-6.14-1.94-11.88-4.98-16.94-8.97-11.36-8.88-18.73-21.9-20.5-36.2-2.4-20.2,6.6-40.06,23.37-51.57,1.75-1.09,3.48-2.21,5.29-3.18l2.78-1.33,1.37-.66,1.43-.52c7.44-2.87,15.42-4.08,23.37-3.56,14.81.95,28.58,7.95,38.08,19.37,4.21,5.05,7.46,10.82,9.59,17.04,1.94,5.65,2.95,11.57,3,17.54.06,9.93-2.63,19.67-7.78,28.16v-.3l14.62,26.35-15.13-26.15v-.28c4.96-8.39,7.52-17.97,7.42-27.72-.09-5.88-1.12-11.72-3.04-17.28-7.01-20.23-25.48-34.28-46.84-35.64-7.79-.5-15.61.7-22.89,3.52l-1.41.5-1.35.66-2.72,1.29c-1.77.95-3.46,2.01-5.19,3.12-3.36,2.34-6.46,5.04-9.23,8.05-10.64,11.45-15.66,27.03-13.72,42.54,2.56,20.68,16.85,38.01,36.67,44.47,5.54,1.7,11.3,2.56,17.1,2.57,9.81-.1,19.4-2.88,27.74-8.05h.24l32.34,8.43Z"/>
    <path class="cls-6" d="M95.29,213.78l1.71,27.09c.19,2.19,1.95,3.9,4.14,4.02h0c2.34.14,4.38-1.59,4.63-3.92l3.02-27.27c.21-1.89-1.15-3.59-3.04-3.8-.15-.02-.3-.02-.44-.02h-6.62c-1.92.03-3.45,1.61-3.42,3.53,0,.12.01.25.03.37Z"/>
    <path class="cls-6" d="M108.33,260.31c-1.15,3.47-4.9,5.34-8.37,4.19-3.47-1.15-5.34-4.9-4.19-8.37s4.9-5.34,8.37-4.19c0,0,0,0,0,0,3.46,1.16,5.34,4.9,4.18,8.37Z"/>
  </g>
</svg>