<?xml version="1.0" encoding="UTF-8"?>
<svg id="Layer_2" data-name="Layer 2" xmlns="http://www.w3.org/2000/svg" viewBox="0 0 1000 1000">
  <defs>
    <style>
      .cls-1 {
        fill: #975b01;
      }

      .cls-1, .cls-2, .cls-3, .cls-4, .cls-5, .cls-6, .cls-7, .cls-8, .cls-9, .cls-10, .cls-11, .cls-12, .cls-13, .cls-14, .cls-15 {
        stroke-width: 0px;
      }

      .cls-2, .cls-14 {
        fill: #000;
      }

      .cls-3 {
        fill: #e0e0e0;
      }

      .cls-16 {
        opacity: .2;
      }

      .cls-4 {
        fill: #eb996e;
      }

      .cls-5 {
        fill: #455a64;
      }

      .cls-6 {
        fill: #004d80;
      }

      .cls-7 {
        fill: #f5f5f5;
      }

      .cls-8 {
        fill: #09f;
      }

      .cls-9 {
        fill: #ffbe9d;
      }

      .cls-10 {
        fill: #ebebeb;
      }

      .cls-11 {
        fill: #263238;
      }

      .cls-12 {
        fill: #c77802;
      }

      .cls-13 {
        fill: #fafafa;
      }

      .cls-17, .cls-14 {
        opacity: .3;
      }

      .cls-14 {
        isolation: isolate;
      }

      .cls-15 {
        fill: #fff;
      }
    </style>
  </defs>
  <g>
    <g id="freepik--background-complete--inject-6">
      <rect class="cls-3" x="544.88" y="209.03" width="23.65" height="94.42"/>
      <rect class="cls-3" x="579.65" y="229.63" width="23.65" height="73.82"/>
      <rect class="cls-3" x="614.94" y="246.49" width="23.65" height="56.96"/>
      <rect class="cls-3" x="647.6" y="269.64" width="23.65" height="33.83"/>
      <path class="cls-7" d="M633.2,420.89c-32.91-30.44-84.19-28.71-114.98,3.88-30.49,32.45-28.91,83.47,3.53,113.96.12.12.25.23.37.34,32.92,30.44,84.21,28.7,115-3.9,30.48-32.44,28.9-83.45-3.54-113.93-.13-.12-.25-.24-.38-.35ZM606.07,506.46c-14.72,15.58-39.23,16.4-54.97,1.86-15.61-14.49-16.51-38.9-2.02-54.51.05-.05.1-.1.14-.15,14.73-15.57,39.24-16.4,54.99-1.86,15.59,14.5,16.47,38.89,1.97,54.48-.03.03-.06.06-.09.1l-.02.08Z"/>
      <path class="cls-10" d="M518.23,424.77c30.78-32.59,82.07-34.32,114.98-3.88l-28.97,30.78c-15.75-14.54-40.26-13.71-54.99,1.86-14.58,15.53-13.81,39.94,1.73,54.52.05.05.1.1.15.14l-28.99,30.85c-32.63-30.3-34.51-81.32-4.21-113.94.1-.11.2-.22.3-.33Z"/>
      <path class="cls-13" d="M629.88,407.66c40.16,37.3,44.98,97.92,7.45,137.75l-40.74-35.29c17.95-19.08,21.83-44.56,2.63-62.4l30.66-40.05Z"/>
      <path class="cls-7" d="M48.23,290.55c-.58-50.41,39.82-91.75,90.23-92.33,50.41-.58,91.75,39.82,92.33,90.23.58,50.25-39.57,91.52-89.81,92.33-50.5.63-91.98-39.73-92.75-90.22ZM183.14,288.46c-.51-24.1-20.46-43.22-44.55-42.71-24.1.51-43.22,20.46-42.71,44.55.51,24.01,20.32,43.1,44.33,42.71,24.18-.49,43.4-20.48,42.93-44.66v.1Z"/>
      <path class="cls-3" d="M48.23,290.55c-.86-50.48,39.27-92.14,89.74-93.17l.77,47.84c-24.21.39-43.52,20.32-43.13,44.53.39,24.21,20.32,43.52,44.53,43.13l.77,47.86c-50.46.6-91.91-39.72-92.69-90.18Z"/>
      <path class="cls-10" d="M129.83,190.01c58.9-.96,105.86,44.75,106.79,103.89l-55.72.9c-.44-28.28-21.96-46.08-50.09-45.62l-.98-59.17Z"/>
    </g>
    <g id="freepik--Screens--inject-6">
      <rect class="cls-13" x="163.05" y="293.55" width="292" height="333.26"/>
      <path class="cls-11" d="M455.08,626.79v-24.19c0-15.74,0-38.76-.13-68,0-58.44-.15-141.69-.23-241.06l.48.48H163.22l.54-.54v333.24l-.46-.46,211.46.31,59.23.13h21-20.81l-59.13.13-212.09.23h-.46v-333.99h293.04v.48c-.1,99.49-.19,182.85-.25,241.37,0,29.22-.1,52.18-.13,67.87v22.48c0,1.04-.1,1.52-.1,1.52Z"/>
      <path class="cls-8" d="M429.97,463.71c0,.21-3.23-1.63-9.39-3.57-8.7-2.71-17.91-3.43-26.92-2.09-6.19.96-12.18,2.89-17.76,5.72-6.34,3.4-12.22,7.61-17.47,12.52-5.72,5.05-11.42,10.79-17.97,16.09-6.69,5.72-14.51,9.94-22.96,12.4-4.36,1.15-8.91,1.43-13.38.81-4.31-.65-8.49-1.94-12.42-3.82-7.18-3.74-14.15-7.87-20.87-12.38-5.98-3.99-12.58-6.94-19.53-8.74-6.08-1.48-12.36-1.97-18.6-1.44-9.08.79-17.86,3.64-25.67,8.35-5.51,3.36-8.1,5.89-8.35,5.72.54-.69,1.16-1.3,1.86-1.84,1.86-1.68,3.86-3.2,5.97-4.55,13.33-8.62,29.59-11.46,45.06-7.89,7.15,1.8,13.95,4.77,20.12,8.81,6.66,4.43,13.56,8.48,20.66,12.15,7.55,3.87,16.24,4.89,24.48,2.88,8.24-2.33,15.89-6.37,22.46-11.85,6.47-5.2,12.17-10.89,17.99-15.97,5.4-4.98,11.42-9.23,17.93-12.65,14.22-7.06,30.67-8.12,45.69-2.96,2.37.8,4.68,1.79,6.89,2.96.77.37,1.51.82,2.19,1.34Z"/>
      <rect class="cls-8" x="243.43" y="508.48" width="24.82" height="67.14"/>
      <rect class="cls-8" x="348.78" y="508.48" width="24.82" height="67.14"/>
      <rect class="cls-8" x="383.89" y="469.03" width="24.82" height="106.57"/>
      <rect class="cls-8" x="211.31" y="554.47" width="24.82" height="22.6"/>
      <rect class="cls-8" x="278.55" y="538.78" width="24.84" height="36.82"/>
      <rect class="cls-8" x="313.66" y="530.33" width="24.82" height="45.27"/>
      <path class="cls-11" d="M269.26,583.53c0,.54-6.01,1-13.42,1s-13.42-.46-13.42-1,6.01-1,13.42-1,13.42.44,13.42,1Z"/>
      <path class="cls-11" d="M238.38,583.53c0,.54-6.01,1-13.42,1s-13.42-.46-13.42-1,6.01-1,13.42-1,13.42.44,13.42,1Z"/>
      <path class="cls-11" d="M413.61,583.53c0,.54-6.78,1-15.15,1s-15.17-.46-15.17-1,6.78-1,15.17-1,15.15.44,15.15,1Z"/>
      <ellipse class="cls-11" cx="361.57" cy="583.53" rx="15.15" ry="1"/>
      <path class="cls-11" d="M338.49,583.53c0,.54-6.01,1-13.42,1s-13.42-.46-13.42-1,6.01-1,13.42-1,13.42.44,13.42,1Z"/>
      <path class="cls-11" d="M302.2,583.53c0,.54-5.99,1-13.4,1s-13.42-.46-13.42-1,6.01-1,13.42-1,13.4.44,13.4,1Z"/>
      <rect class="cls-3" x="210.72" y="342.14" width="202.88" height="84.25"/>
      <path class="cls-11" d="M252.88,368.75c.01,5.23-4.22,9.48-9.45,9.5-5.23.01-9.48-4.22-9.5-9.45-.01-5.23,4.22-9.48,9.45-9.5,0,0,.01,0,.02,0,5.22,0,9.46,4.23,9.48,9.45Z"/>
      <rect class="cls-11" x="262.34" y="362.21" width="65.91" height="3.65"/>
      <rect class="cls-15" x="262.34" y="370.54" width="128.21" height="3.65"/>
      <path class="cls-8" d="M252.88,397.84c.01,5.23-4.22,9.48-9.45,9.5-5.23.01-9.48-4.22-9.5-9.45-.01-5.23,4.22-9.48,9.45-9.5,0,0,.01,0,.02,0,5.22-.01,9.46,4.21,9.48,9.43,0,0,0,.01,0,.02Z"/>
      <rect class="cls-8" x="262.34" y="391.31" width="33.64" height="3.65"/>
      <rect class="cls-15" x="262.34" y="399.62" width="128.21" height="3.65"/>
      <rect class="cls-13" x="630.44" y="262.57" width="320.66" height="365.97"/>
      <path class="cls-11" d="M951.1,628.54v-26.57c0-17.28,0-42.56-.13-74.65,0-64.18-.15-155.61-.23-264.74l.48.48h-320.64l.56-.54c0,134.93,0,260.76-.1,365.97l-.46-.46,232.6.23,65.01.13h23.06-22.87l-64.95.35-232.9.23h-.46v-366.93h321.7v.48c0,109.26-.19,200.8-.25,265.06,0,32.08,0,57.31-.13,74.57v24.67c-.31,1.17-.31,1.73-.31,1.73Z"/>
      <rect class="cls-3" x="656.11" y="291.83" width="259.76" height="208.39"/>
      <rect class="cls-11" x="674.25" y="463.18" width="8.52" height="2.46"/>
      <rect class="cls-11" x="693.55" y="476.31" width="10.89" height="2.46"/>
      <rect class="cls-11" x="731.5" y="476.31" width="10.89" height="2.46"/>
      <rect class="cls-11" x="769.46" y="476.31" width="10.89" height="2.46"/>
      <rect class="cls-11" x="807.4" y="476.31" width="10.89" height="2.46"/>
      <rect class="cls-11" x="845.37" y="476.31" width="10.89" height="2.46"/>
      <rect class="cls-11" x="883.31" y="476.31" width="10.89" height="2.46"/>
      <rect class="cls-11" x="674.25" y="430.35" width="8.52" height="2.46"/>
      <rect class="cls-11" x="674.25" y="368.61" width="8.52" height="2.46"/>
      <rect class="cls-11" x="674.25" y="337.58" width="8.52" height="2.46"/>
      <rect class="cls-11" x="674.69" y="399.48" width="8.52" height="2.46"/>
      <path class="cls-11" d="M893.91,465.62c-.31.03-.61.03-.92,0h-13.11l-37.92.19-125.22.15h-30.05v-.54c0-41.74.15-78.66.19-105.08,0-13.15.13-23.71.17-31.03v-10.44c-.03-.24-.03-.49,0-.73.03.24.03.49,0,.73v10.44c0,7.33.1,17.89.17,31.03,0,26.42,0,63.26.19,105.08l-.54-.52h29.66l125.22.17,37.92.17,10.44.1h2.67l1.15.29Z"/>
      <path class="cls-11" d="M896.31,400.71c0,.29-44.96.54-100.41.54s-100.43-.25-100.43-.54,44.96-.54,100.43-.54,100.41.25,100.41.54Z"/>
      <path class="cls-11" d="M896.31,369.93c0,.31-44.96.54-100.41.54s-100.43-.23-100.43-.54,44.96-.54,100.43-.54,100.41.15,100.41.54Z"/>
      <path class="cls-11" d="M896.31,338.79c0,.31-44.96.54-100.41.54s-100.43-.23-100.43-.54,44.96-.54,100.43-.54,100.41.25,100.41.54Z"/>
      <path class="cls-11" d="M896.31,431.58c0,.31-44.96.54-100.41.54s-100.43-.23-100.43-.54,44.96-.54,100.43-.54,100.41.25,100.41.54Z"/>
      <path class="cls-5" d="M697.54,458.98v-27.4l17.07-26.51,11.6,8.89,23.77-36.94,14.02,9.87,19.51-34.08,15.86,12.92,23.77-45.21,25.67,50.53,20.72-25.27,24.4-6.99v120.19h-196.41Z"/>
      <path class="cls-8" d="M896.31,329.06h-6.66l-18.78.15.25-.13-20.04,26.23-.13.17h-50.26l.44-.25c-6.62,11-13.73,22.96-21.1,35.15l-20.75,34.46-.4.67-.48-.63c-9.89-13.65-19.08-26.28-27.13-37.42h.67l-24.94,38.82-6.95,10.66-1.86,2.78c-.42.63-.67.94-.67.94,0,0,.17-.35.56-1l1.73-2.86,6.76-10.79,24.52-38.84.35-.56.38.54,27.24,37.38h-.88l20.7-34.48,21.14-35.13.15-.25h50.53l-.33.17,20.22-26.07v-.13h.15l18.78.15h6.22l.54.27Z"/>
      <path class="cls-8" d="M739.74,396.25c.05,1.07-.78,1.98-1.86,2.02-1.07.05-1.98-.78-2.02-1.86s.78-1.98,1.86-2.02c.03,0,.05,0,.08,0,1.05-.02,1.92.81,1.94,1.86h0Z"/>
      <path class="cls-8" d="M797.66,363.31c.06,1.07-.76,1.98-1.83,2.04-1.07.06-1.98-.76-2.04-1.83-.06-1.07.76-1.98,1.83-2.04.04,0,.08,0,.12,0,1.03-.01,1.89.8,1.92,1.84Z"/>
      <path class="cls-8" d="M842.7,355.32c.05,1.07-.78,1.98-1.86,2.02-1.07.05-1.98-.78-2.02-1.86-.05-1.07.78-1.98,1.86-2.02.03,0,.05,0,.08,0,1.05-.02,1.92.81,1.94,1.86h0Z"/>
      <path class="cls-11" d="M904.16,531.2c0,.31-54.81.54-122.41.54s-122.43-.23-122.43-.54,54.81-.54,122.43-.54,122.41.25,122.41.54Z"/>
      <path class="cls-11" d="M904.16,544.43c0,.31-54.81.54-122.41.54s-122.43-.23-122.43-.54,54.81-.54,122.43-.54,122.41.25,122.41.54Z"/>
      <path class="cls-11" d="M904.16,557.76c0,.29-54.81.54-122.41.54s-122.43-.25-122.43-.54,54.81-.54,122.43-.54,122.41.15,122.41.54Z"/>
      <path class="cls-11" d="M904.16,570.91c0,.29-54.81.54-122.41.54s-122.43-.25-122.43-.54,54.81-.54,122.43-.54,122.41.23,122.41.54Z"/>
      <rect class="cls-13" x="280.31" y="443.64" width="557.93" height="365.97"/>
      <path class="cls-11" d="M838.25,809.6c0-3.53-.17-142.75-.44-365.97l.44.44H280.36l.54-.54v365.97l-.5-.5,557.93.5-557.93.5h-.5v-367.01h.58l557.89.13h.44v.42c-.4,223.32-.56,362.52-.56,366.07Z"/>
      <path class="cls-5" d="M450.83,645.73l54.87.77c-.42,29.22-25.04,53.07-54.87,53.07h-.33l.33-53.85Z"/>
      <path class="cls-11" d="M541.57,720.05c-.4.04-.79.04-1.19,0h-3.34l-12.27.15h-.1l-.1-.13c-4.9-6.16-11.21-14.13-18.09-22.81l-14.61-18.6.29.13-16.15-.15-4.55.1c-.53.06-1.07.06-1.61,0,.53-.08,1.07-.11,1.61-.1h4.51l16.15-.15h.17v.13l14.61,18.55,17.95,22.96-.25-.13,12.27.15h3.34c.45-.09.92-.13,1.38-.1Z"/>
      <path class="cls-11" d="M561.25,726.37c0,.23-7.95.42-17.76.42s-17.76-.19-17.76-.42,7.95-.42,17.76-.42,17.76.19,17.76.42Z"/>
      <path class="cls-11" d="M561.25,733.01c0,.23-7.95.42-17.76.42s-17.76-.19-17.76-.42,7.95-.42,17.76-.42,17.76.13,17.76.42Z"/>
      <path class="cls-8" d="M442.14,637.92l-.77,53.85c-29.8-.42-54.12-24.59-54.12-53.85s24.77-53.83,54.89-53.83,54.89,24.29,54.89,53.83h-54.89Z"/>
      <path class="cls-11" d="M420.71,620.31c-.3.11-.62.18-.94.21l-2.73.44-9.85,1.4h-.17l-.13-.13-13.15-12.79c-6.26-6.26-12-11.83-16.09-15.95l-4.8-4.9c-.62-.57-1.18-1.2-1.69-1.88.69.49,1.33,1.04,1.92,1.65l4.99,4.7c4.17,4.01,9.93,9.58,16.26,15.78l13.04,12.9h-.29l9.91-1.09,2.73-.25c.32-.09.65-.12.98-.08Z"/>
      <path class="cls-11" d="M357.26,584.37c0,.23-7.95.42-17.76.42s-17.74-.19-17.74-.42,7.93-.42,17.74-.42,17.76.19,17.76.42Z"/>
      <path class="cls-11" d="M357.26,590.94c0,.23-7.95.42-17.76.42s-17.74-.19-17.74-.42,7.93-.42,17.74-.42,17.76.19,17.76.42Z"/>
      <path class="cls-8" d="M634.13,531.57l-.21-33.39c-10.19.19-19.98,4-27.61,10.77-9.9,8.63-14.87,21.61-13.29,34.65.18,1.63.44,3.26.79,4.86,0,.04,0,.08,0,.13h0l40.3-9.08.02-7.93Z"/>
      <g class="cls-17">
        <path class="cls-15" d="M634.13,531.57l-.21-33.39c-10.19.19-19.98,4-27.61,10.77-9.9,8.63-14.87,21.61-13.29,34.65.18,1.63.44,3.26.79,4.86,0,.04,0,.08,0,.13h0l40.3-9.08.02-7.93Z"/>
      </g>
      <path class="cls-8" d="M675.69,521.28c-5.99-12.87-18.4-21.55-32.54-22.77l-1.27-.13h-3.46l.23,33.39v7.85l40.47,8.74h0c.62-2.84.92-5.75.9-8.66-.06-6.39-1.54-12.68-4.32-18.43Z"/>
      <g class="cls-17">
        <path class="cls-2" d="M675.69,521.28c-5.99-12.87-18.4-21.55-32.54-22.77l-1.27-.13h-3.46l.23,33.39v7.85l40.47,8.74h0c.62-2.84.92-5.75.9-8.66-.06-6.39-1.54-12.68-4.32-18.43Z"/>
      </g>
      <path class="cls-8" d="M636.3,543.61l-40.32,9.08c5.02,22.26,27.13,36.25,49.4,31.23,15.66-3.53,27.86-15.81,31.29-31.5l-40.32-8.81"/>
      <path class="cls-11" d="M793.21,537.6c0,.29-20.87.54-46.54.54s-46.56-.25-46.56-.54,20.87-.56,46.56-.56,46.54.25,46.54.56Z"/>
      <path class="cls-11" d="M793.21,526.97c0,.29-20.87.54-46.54.54s-46.56-.25-46.56-.54,20.87-.54,46.56-.54,46.54.25,46.54.54Z"/>
      <path class="cls-11" d="M793.21,516.37c0,.29-20.87.54-46.54.54s-46.56-.25-46.56-.54,20.87-.54,46.56-.54,46.54.23,46.54.54Z"/>
      <path class="cls-11" d="M793.21,547.47c0,.29-20.87.54-46.54.54s-46.56-.25-46.56-.54,20.87-.56,46.56-.56,46.54.35,46.54.56Z"/>
      <path class="cls-11" d="M764.39,558.2c0,.31-14.32.54-31.97.54s-31.97-.23-31.97-.54,14.32-.54,31.97-.54,31.97.25,31.97.54Z"/>
      <rect class="cls-8" x="602.49" y="635.02" width="9.58" height="107.09"/>
      <rect class="cls-8" x="621.01" y="671.38" width="9.58" height="70.71"/>
      <rect class="cls-8" x="639.52" y="648.32" width="9.58" height="94.31"/>
      <rect class="cls-8" x="658.03" y="639.15" width="9.58" height="102.95"/>
      <rect class="cls-8" x="676.52" y="673.55" width="9.58" height="68.54"/>
      <rect class="cls-8" x="695.03" y="686.99" width="9.58" height="55.1"/>
      <rect class="cls-8" x="713.55" y="646" width="9.58" height="96.09"/>
      <rect class="cls-8" x="732.06" y="663.32" width="9.58" height="78.77"/>
      <rect class="cls-8" x="750.57" y="649.48" width="9.58" height="92.6"/>
      <rect class="cls-8" x="769.08" y="679" width="9.58" height="63.09"/>
      <rect class="cls-8" x="787.6" y="666.99" width="9.58" height="75.09"/>
      <path class="cls-11" d="M801.1,749.56c0,.21-45.48.4-101.58.4s-101.58-.19-101.58-.4,45.48-.4,101.58-.4,101.58.17,101.58.4Z"/>
      <path class="cls-11" d="M616.16,758.05c-4.73.5-9.5.5-14.23,0,4.73-.53,9.5-.53,14.23,0Z"/>
      <path class="cls-11" d="M639.77,758.41c-5.66.53-11.35.53-17.01,0,5.66-.53,11.35-.53,17.01,0Z"/>
      <path class="cls-11" d="M659.91,758.41c-5.66.53-11.35.53-17.01,0,5.66-.53,11.35-.53,17.01,0Z"/>
      <path class="cls-11" d="M680.03,758.41c-5.66.53-11.35.53-17.01,0,5.66-.53,11.35-.53,17.01,0Z"/>
      <path class="cls-11" d="M700.17,758.41c-5.66.53-11.35.53-17.01,0,5.66-.53,11.35-.53,17.01,0Z"/>
      <path class="cls-11" d="M720.29,758.41c-5.66.53-11.35.53-17.01,0,5.66-.53,11.35-.53,17.01,0Z"/>
      <path class="cls-11" d="M740.43,758.41c-5.66.53-11.35.53-17.01,0,5.66-.53,11.35-.53,17.01,0Z"/>
      <path class="cls-11" d="M760.5,758.41c-5.66.53-11.35.53-17.01,0,5.66-.53,11.35-.53,17.01,0Z"/>
      <path class="cls-11" d="M780.69,758.41c-5.66.53-11.35.53-17.01,0,5.66-.53,11.35-.53,17.01,0Z"/>
      <path class="cls-11" d="M800.83,758.41c-5.66.53-11.35.53-17.01,0,5.66-.53,11.35-.53,17.01,0Z"/>
      <g class="cls-17">
        <rect class="cls-15" x="621.01" y="671.38" width="9.58" height="70.71"/>
      </g>
      <g class="cls-17">
        <rect class="cls-15" x="658.03" y="639.15" width="9.58" height="102.95"/>
      </g>
      <g class="cls-17">
        <rect class="cls-15" x="695.03" y="686.99" width="9.58" height="55.1"/>
      </g>
      <g class="cls-17">
        <rect class="cls-15" x="732.06" y="663.32" width="9.58" height="78.77"/>
      </g>
      <g class="cls-17">
        <rect class="cls-15" x="769.08" y="679" width="9.58" height="63.09"/>
      </g>
      <path class="cls-8" d="M348.1,512.43c.01,5.11-4.12,9.25-9.22,9.27-5.11.01-9.25-4.12-9.27-9.22-.01-5.11,4.12-9.25,9.22-9.27.01,0,.03,0,.04,0,5.09,0,9.22,4.13,9.22,9.22Z"/>
      <path class="cls-8" d="M506.78,505.14c0,.31-31.12.54-69.5.54s-69.5-.23-69.5-.54,31.1-.54,69.5-.54,69.5.25,69.5.54Z"/>
      <path class="cls-8" d="M423.57,516.31c-.68.16-1.39.23-2.09.21l-5.86.19c-4.97,0-11.81.15-19.37.15s-14.42,0-19.37-.15l-5.89-.19c-.7.02-1.4-.05-2.09-.21.69-.15,1.39-.22,2.09-.21,1.4,0,3.4-.13,5.89-.17,4.95,0,11.79-.17,19.37-.17s14.4,0,19.37.17c2.48,0,4.49.1,5.86.17.7-.01,1.4.06,2.09.21Z"/>
    </g>
  </g>
  <g id="freepik--Character--inject-179">
    <path class="cls-12" d="M403.69,86.53c-1.78-1.54-3.02-3.61-3.52-5.91-.5-2.3-.25-4.7.73-6.84.98-2.14,2.62-3.91,4.69-5.03,2.07-1.13,4.44-1.55,6.77-1.22,2.63-2.18,5.91-3.43,9.33-3.54,3.42-.11,6.77.93,9.53,2.94,1.97-1.31,4.25-2.08,6.61-2.24,2.36-.16,4.72.3,6.85,1.34,2.13,1.03,3.95,2.6,5.29,4.56,1.34,1.95,2.14,4.22,2.33,6.58,2.34-.51,4.79-.27,6.98.7,2.2.96,4.03,2.59,5.25,4.66,1.21,2.07,1.74,4.46,1.51,6.85-.23,2.39-1.21,4.64-2.79,6.44,2.54.77,4.71,2.43,6.11,4.69,1.4,2.25,1.93,4.94,1.5,7.55-.43,2.62-1.8,4.99-3.86,6.67-2.05,1.68-4.64,2.56-7.3,2.47"/>
    <path class="cls-5" d="M331.1,843.91l-4.87,58.39-17.14,45.09c-1.15,3.17.5,6.67,3.67,7.82.06.02.12.04.18.06h0c1.86.55,3.87.19,5.42-.98,9.79-7.59,45.11-35.46,45.52-39.11.51-4.7,9.51-62.11,9.51-62.11l-42.28-9.16Z"/>
    <path class="cls-11" d="M312.94,955.27l51.87-46.72-.51,4.32c-.35,2.36-.39,3.64-1.93,5.13-13.78,13.24-28.3,25.7-43.49,37.3-1.59,1.22-4.07.61-5.97,0l.02-.02Z"/>
    <path class="cls-15" d="M354.64,890.33c-1.61.93-2.25,2.93-1.49,4.62.88,1.63,2.88,2.29,4.56,1.51,1.69-.99,2.36-3.1,1.55-4.89-1.09-1.62-3.27-2.09-4.93-1.06"/>
    <path class="cls-11" d="M328.97,931.23c-.35.12-1.32-3.07-4.62-5.07-3.3-2-6.54-1.63-6.58-2.04s.75-.53,2.14-.57c1.82-.02,3.6.49,5.13,1.47,1.55.99,2.78,2.4,3.54,4.07.55,1.22.55,2.1.39,2.14Z"/>
    <path class="cls-11" d="M324.1,938.6c-.31.22-2.04-1.87-4.91-3.05-1.84-.57-3.71-1.01-5.6-1.34-.14-.33,2.79-1.26,6.11.14s4.62,4.11,4.4,4.25Z"/>
    <path class="cls-11" d="M337.76,922.05c-.31.24-2.85-2.99-7.23-5.23s-8.47-2.54-8.45-2.93,4.36-.67,9.04,1.79c4.68,2.46,6.94,6.23,6.64,6.37Z"/>
    <path class="cls-11" d="M340.71,904.42c-.18.33-3.26-1.36-7.43-2.04-4.17-.67-7.59,0-7.7-.31s3.4-1.65,7.88-.96,7.47,3.05,7.25,3.3Z"/>
    <path class="cls-11" d="M342.59,887.32c-.22.31-3.26-2.04-7.7-2.24s-7.78,1.47-7.94,1.12.63-.79,2.04-1.45c3.83-1.58,8.18-1.26,11.75.86,1.34.81,1.95,1.59,1.85,1.71Z"/>
    <path class="cls-11" d="M335.34,881.82c-.12-.73-.07-1.49.14-2.2.41-2.01,1.22-3.91,2.38-5.6.73-1.31,1.88-2.34,3.26-2.93.97-.31,2.02.02,2.65.81.53.81.75,1.77.63,2.73-.69,3.99-4.1,6.93-8.14,7.02-3.98-.02-7.56-2.43-9.08-6.11-.36-.93-.31-1.96.14-2.85.57-.85,1.62-1.25,2.61-.98,1.4.47,2.65,1.29,3.62,2.4,1.45,1.43,2.63,3.11,3.5,4.95.37.62.6,1.32.67,2.04-1.27-2.37-2.89-4.53-4.8-6.41-.89-.93-1.99-1.63-3.22-2.04-.53-.16-1.11.06-1.4.53-.27.6-.27,1.28,0,1.87,1.38,3.15,4.48,5.19,7.92,5.23,3.44-.06,6.37-2.5,7.06-5.86.11-.66-.02-1.34-.37-1.91-.33-.46-.91-.65-1.45-.47-1.17.5-2.15,1.34-2.81,2.42-1.54,2.23-2.67,4.72-3.32,7.35Z"/>
    <path class="cls-5" d="M479.64,844.4l-2.16,49.45s49.53,18.81,50.02,27.99l-96.03-.75.2-77.18,47.97.49Z"/>
    <path class="cls-3" d="M447.82,889.48c-1.92.55-3.11,2.47-2.75,4.44.49,1.95,2.43,3.17,4.4,2.77,2.04-.58,3.29-2.64,2.87-4.72-.72-1.98-2.88-3.04-4.89-2.38"/>
    <path class="cls-11" d="M431.47,921.09l.33-7.78,91.96,3.62s4.25,1.89,3.75,4.91l-96.03-.75Z"/>
    <path class="cls-11" d="M479.03,893.38c0,.47-2.36.67-4.68,2.16s-3.56,3.44-4.07,3.26.29-2.89,3.14-4.64c2.85-1.75,5.74-1.2,5.62-.77Z"/>
    <path class="cls-11" d="M489,897.62c0,.47-2.04,1.24-3.54,3.22-1.51,1.97-2.04,4.07-2.57,4.07s-.73-2.67,1.3-5.09,4.8-2.65,4.8-2.2Z"/>
    <path class="cls-11" d="M494.7,909.73c-.43,0-1.06-2.26.16-4.82,1.22-2.57,3.42-3.56,3.62-3.16s-1.18,1.75-2.16,3.87-1.22,4.07-1.63,4.11Z"/>
    <path class="cls-11" d="M478.28,882.06c-.2.43-2.34-.24-4.99,0s-4.72.98-4.97.57,1.75-2.04,4.89-2.2,5.31,1.26,5.07,1.63Z"/>
    <path class="cls-11" d="M495.11,472.75c0,3.07-12.22,415.62-12.22,415.62l-59.81,2.26-15.51-371.89s-15.15,190.9-15.15,195.02-17.02,178.32-17.02,178.32l-55.86-2.48,4.07-392.92,7.27-56.35,158.66,1.61,5.58,30.82Z"/>
    <path class="cls-5" d="M400.93,505.25c.82.47,1.7.83,2.61,1.08,1.69.63,4.07,1.49,7.23,2.52l.59.2v-.61c.37-5.13.75-12.01,1.14-19.52.41-8.14.71-15.55.86-20.91,0-2.67.12-4.82.12-6.33.08-.78.03-1.56-.14-2.32-.22.75-.35,1.52-.37,2.3-.14,1.49-.33,3.64-.51,6.31-.39,5.35-.81,12.72-1.22,20.89-.39,7.53-.67,14.39-.81,19.54l.61-.41c-3.09-.94-5.62-1.67-7.37-2.14-.88-.33-1.79-.53-2.73-.61Z"/>
    <path class="cls-5" d="M405.8,460.84s-.2-.33-.86-.55c-.94-.28-1.95-.2-2.83.24-1.34.63-2.16,2.02-2.04,3.5.18,1.87,1.56,3.41,3.4,3.79,1.86.3,3.72-.54,4.72-2.14.79-1.24.79-2.83,0-4.07-.46-.8-1.18-1.42-2.04-1.77-.63-.22-1.02-.2-1.02-.12s1.45.49,2.34,2.28c.52.98.45,2.17-.16,3.09-.77,1.13-2.11,1.72-3.46,1.53-1.31-.3-2.31-1.37-2.5-2.71-.12-1.09.44-2.14,1.4-2.65.94-.45,2-.6,3.03-.43Z"/>
    <path class="cls-5" d="M376.38,465.22c.35,0,.83-1.81,1.08-4.07.24-2.26.16-4.21-.18-4.25s-.83,1.83-1.08,4.07c-.24,2.24-.18,4.23.18,4.25Z"/>
    <path class="cls-5" d="M371.92,464.79c.35,0,.65-2.04.65-4.4s-.24-4.4-.61-4.4-.63,2.04-.65,4.4.26,4.4.61,4.4Z"/>
    <path class="cls-5" d="M449.2,467.75c.8-1.53,1.21-3.22,1.2-4.95.41-1.67.41-3.42,0-5.09-.8,1.53-1.22,3.22-1.22,4.95-.4,1.67-.39,3.42.02,5.09Z"/>
    <path class="cls-5" d="M443.81,468.17c.33.12,1.45-2.14,1.57-5.19s-.79-5.4-1.12-5.29c-.21,1.74-.26,3.5-.14,5.25-.27,1.73-.37,3.48-.31,5.23Z"/>
    <path class="cls-5" d="M464.09,462.45c-.03.63.04,1.27.22,1.87.3,1.7.73,3.37,1.28,5.01,1.8,5.47,4.48,10.61,7.94,15.21,3.5,4.71,7.73,8.83,12.52,12.22,1.46,1.04,2.98,1.98,4.56,2.81.56.35,1.16.62,1.79.81.1-.18-2.32-1.55-5.86-4.21-4.56-3.5-8.63-7.61-12.07-12.22-3.4-4.53-6.15-9.52-8.14-14.82-1.47-4.09-2.04-6.72-2.24-6.68Z"/>
    <path class="cls-5" d="M325.48,491.22c.62.21,1.28.31,1.93.31,1.79.12,3.59.09,5.37-.1,5.9-.63,11.54-2.73,16.41-6.11,4.75-3.33,8.53-7.86,10.95-13.13.72-1.56,1.27-3.18,1.67-4.85.21-.59.3-1.22.26-1.85-.2,0-.73,2.57-2.67,6.37-2.55,5.02-6.29,9.35-10.89,12.6-4.74,3.22-10.16,5.31-15.84,6.11-4.42.73-7.21.45-7.21.65Z"/>
    <path class="cls-9" d="M377.15,124.76l6.74,95.03c1.16,16.16,6.11,39.66,31.6,36.65h0c21.91-4.23,26.02-25.65,24.94-40.72-.53-7.17-.94-13.13-.94-13.86,0,0,24.02-4.07,24.06-28.05,0-11.62-1.89-35.59-3.87-57.23-2.12-23.26-21.76-40.98-45.11-40.72h-2.32c-25.04,1.75-37.52,23.96-35.1,48.9Z"/>
    <path class="cls-4" d="M439.49,201.86c-11.12.09-22.03-3.01-31.43-8.94,0,0,7.84,17.51,31.82,15.09l-.39-6.15Z"/>
    <path class="cls-12" d="M419.66,129.77c-.43.53-3.38-1.47-7.39-1.24s-6.84,2.44-7.29,2.04.18-1.14,1.4-2.16c1.65-1.36,3.69-2.15,5.82-2.26,2.09-.12,4.16.45,5.9,1.61,1.3.92,1.77,1.79,1.55,2.02Z"/>
    <path class="cls-11" d="M416.22,139.5c.04,1.76-1.34,3.23-3.09,3.32-1.71.15-3.22-1.12-3.37-2.83,0-.03,0-.05,0-.08-.05-1.76,1.33-3.23,3.09-3.3,1.7-.16,3.21,1.09,3.37,2.79,0,.03,0,.07,0,.1Z"/>
    <path class="cls-11" d="M432,156.79c1.94-.63,3.95-1.01,5.99-1.14.96-.12,1.83-.31,2.04-.96.08-.97-.15-1.95-.65-2.79l-2.87-7.17c-4.07-10.18-6.88-18.59-6.47-18.73s4.07,7.98,7.96,18.16l2.75,7.21c.6,1.14.79,2.45.53,3.71-.27.67-.83,1.19-1.53,1.4-.53.14-1.08.21-1.63.2-2.02.29-4.08.32-6.11.1Z"/>
    <path class="cls-12" d="M416.71,114.87c-.33.92-3.58.53-7.39,1.04s-6.92,1.63-7.43.81c-.22-.39.31-1.26,1.55-2.16,3.32-2.25,7.51-2.77,11.28-1.4,1.4.57,2.12,1.28,2,1.71Z"/>
    <path class="cls-12" d="M455.33,119.1c-.35.77-3.54.22-7.33.43s-6.9.94-7.37.22c-.2-.35.37-1.06,1.65-1.73,1.71-.87,3.6-1.35,5.52-1.4,1.94-.09,3.87.22,5.68.92,1.36.57,2.02,1.22,1.85,1.57Z"/>
    <path class="cls-9" d="M379.29,142.56c-.41-.16-16.57-4.7-15.88,11.73.69,16.43,17.06,12.36,17.08,11.89s-1.2-23.62-1.2-23.62Z"/>
    <path class="cls-4" d="M375.2,160.15s-.29.22-.75.47c-.64.28-1.36.33-2.04.12-1.77-.55-3.34-3.26-3.54-6.11-.1-1.39.11-2.78.61-4.07.27-1.05,1.03-1.9,2.04-2.3.67-.2,1.38.1,1.71.71.24.45.16.79.24.81s.35-.29.18-.96c-.12-.4-.36-.76-.69-1.02-.47-.32-1.05-.44-1.61-.35-1.35.34-2.44,1.36-2.87,2.69-.65,1.45-.93,3.04-.81,4.62.24,3.3,2.04,6.33,4.48,6.92.91.22,1.86.01,2.61-.55.43-.59.51-.96.45-1Z"/>
    <path class="cls-12" d="M456.29,128.18c-.45.51-3.38-1.47-7.39-1.24s-6.84,2.44-7.31,2.04.2-1.14,1.43-2.16c1.66-1.32,3.69-2.09,5.8-2.2,2.1-.11,4.18.46,5.92,1.63,1.28.88,1.69,1.75,1.55,1.93Z"/>
    <path class="cls-11" d="M450.59,139.5c.01,1.76-1.36,3.22-3.11,3.32-1.73.14-3.24-1.15-3.38-2.87,0-.01,0-.03,0-.04-.03-1.76,1.34-3.22,3.09-3.3,1.71-.16,3.23,1.1,3.39,2.81,0,.03,0,.05,0,.08Z"/>
    <path class="cls-4" d="M434.16,166.86l-11.79-5.23c-1.01,1.53-1.81,3.18-2.38,4.93-.54,1.77-.32,3.68.61,5.27,1.08,1.38,2.57,2.39,4.25,2.89,1.39.66,2.94.88,4.46.63,1.7-.52,3.06-1.78,3.73-3.42.63-1.62,1.02-3.33,1.14-5.07"/>
    <path class="cls-11" d="M429.31,175.33s-.43.29-1.3.33c-1.24,0-2.47-.26-3.62-.73-1.83-.53-3.4-1.7-4.44-3.3-1.03-2.14-1.03-4.62,0-6.76.55-1.22,1.19-2.4,1.91-3.52l.24-.39.39.18c3.38,1.53,6.31,2.91,8.37,3.93,1.14.45,2.23,1.04,3.22,1.77-1.21-.25-2.38-.66-3.48-1.2-2.14-.86-5.11-2.04-8.51-3.58l.63-.2c-.68,1.09-1.28,2.23-1.81,3.4-.94,1.85-1.01,4.02-.2,5.92.9,1.43,2.27,2.51,3.87,3.05,1.06.51,2.19.86,3.36,1.02.9.1,1.36,0,1.38.08Z"/>
    <path class="cls-3" d="M381.67,212.06s17.04,18.63,61.63,3.77l28.18,41.25,28.09,227.63-94.26,10.79-73.8-10.42,23.58-228.02,26.59-44.99Z"/>
    <path class="cls-5" d="M494.83,230.89s16.29,2.77,25.49,21.6c9.2,18.83,15.51,95.2,15.51,95.2l47.09-34.96,24.17,9.18s-39.19,84.47-65.15,90.64c-21.48,5.09-33.53,7.45-45.16-10.81s-20.05-149.25-20.05-149.25l18.1-21.6Z"/>
    <path class="cls-6" d="M513.68,535.36s-12.22-125.57-11.56-127.08c.65-1.51-1.32-73.49,0-74.61s-7.29-102.71-7.29-102.71l-44.79-13.82h.59l-10.18-10.83s-12.5,41.51-12.34,42.18c3.62,14.25,16.59,226.82,16.59,226.82,0,1.51,5.11,59.98,5.11,59.98l63.87.08Z"/>
    <path class="cls-11" d="M500.14,340.18c-.47.44-.98.83-1.53,1.18l-4.52,3.18h-.24l-23.76-11.5-.26-.12v-.26c-.57-7.72-1.22-16.47-1.93-25.71-.61-8.67-1.2-16.92-1.73-24.31v-.43h.41c8.39-1.73,17.05-1.67,25.41.18,2.37.52,4.71,1.2,6.98,2.04.83.26,1.63.61,2.38,1.04-.84-.19-1.66-.44-2.46-.73-2.31-.7-4.65-1.27-7.02-1.71-8.29-1.63-16.82-1.56-25.08.2l.39-.51c.55,7.39,1.18,15.62,1.83,24.29.65,9.24,1.28,18,1.83,25.71l-.26-.39,23.55,11.91h-.26l4.66-2.97c.5-.42,1.05-.78,1.63-1.08Z"/>
    <path class="cls-11" d="M500.85,266.97c.2,1,.31,2.01.33,3.03.14,2.04.29,4.82.41,8.33.24,7.04.31,16.78.24,27.5-.06,10.73-.1,20.46,0,27.48v8.33c.06,1.03.03,2.05-.1,3.07-.2-1.01-.31-2.03-.33-3.05-.14-2.04-.29-4.8-.41-8.33-.24-7.04-.31-16.78-.24-27.5.06-10.73.1-20.36,0-27.48v-8.33c-.06-1.02-.03-2.04.1-3.05Z"/>
    <path class="cls-11" d="M450.67,217.15c.05.93,0,1.87-.14,2.79-.16,1.79-.43,4.38-.77,7.57-.73,6.37-1.83,15.17-3.36,24.84-.53,3.48-1.1,6.84-1.67,9.96l-.26,1.49-.69-1.34c-1.54-3-3.24-5.92-5.09-8.73-.83-1.28-1.65-2.46-2.42-3.56-.66-1.01-1.45-1.92-2.34-2.73-.69-.64-1.6-.98-2.54-.96-.71.07-1.37.38-1.87.88-.42.44-.65,1.02-.65,1.63,0,0-.47-.77.39-1.87.53-.6,1.25-1,2.04-1.12,1.09-.11,2.18.23,3.01.94.98.81,1.84,1.74,2.57,2.79.81,1.08,1.67,2.24,2.52,3.52,1.92,2.81,3.67,5.74,5.25,8.75l-.96.14,1.63-9.94c1.53-9.67,2.73-18.44,3.66-24.78.45-3.01.81-5.54,1.12-7.51.1-.93.3-1.85.59-2.75Z"/>
    <g class="cls-17">
      <path class="cls-2" d="M443.89,261.57c-.73,3.01-1.45,6.11-2.16,9.04-2.16-6.01-4.31-12.03-6.45-18.04-.36-1.2-.91-2.34-1.61-3.38-1.21-1.16-2.77-1.88-4.44-2.04,1.75-1.41,4.27-1.28,5.86.31,2.61,2.75,8.79,14.11,8.79,14.11Z"/>
    </g>
    <g class="cls-17">
      <path class="cls-2" d="M501.79,340.85c5.6-20.09,4.44-45.26-.94-65.43l.94,65.43Z"/>
    </g>
    <path class="cls-11" d="M500.96,294.35c-1.65-.04-3.29-.23-4.91-.57-2.99-.43-7.15-.92-11.77-1.18s-8.79-.22-11.83-.14c-1.64.16-3.29.16-4.93,0,1.59-.46,3.23-.72,4.89-.77,7.94-.66,15.94-.22,23.76,1.32,1.65.24,3.25.69,4.78,1.34Z"/>
    <path class="cls-11" d="M502.91,441.24c-.72-.23-1.4-.54-2.04-.94-1.28-.65-3.09-1.67-5.29-2.95-5.75-3.41-11.33-7.11-16.69-11.1-5.37-3.97-10.53-8.23-15.45-12.74-1.89-1.73-3.38-3.18-4.38-4.19-.56-.5-1.05-1.06-1.49-1.67.65.37,1.25.83,1.77,1.36l4.58,3.95c3.89,3.3,9.34,7.8,15.62,12.44,6.27,4.64,12.22,8.55,16.43,11.3l5.11,3.26c.67.34,1.28.77,1.83,1.28Z"/>
    <path class="cls-14" d="M326.14,403.66l-2.67,20.16s94.95,20.7,104.66,20.09c9.71-.61,15.9-10.18,15.9-10.18l1.55-10.83s57,3.22,59.47-3.5l-89.46-13.09-26.34,4.87-63.11-7.51Z"/>
    <path class="cls-8" d="M438.96,228.9c18.45-51.91,75.5-79.03,127.41-60.58,51.91,18.45,79.03,75.5,60.58,127.41-12.9,36.3-45.55,61.92-83.88,65.83l-8.41,23.76-82.49-29.11s4.21-13.52,8.14-25.47c-25.66-27.25-33.91-66.57-21.36-101.83Z"/>
    <path class="cls-15" d="M464.57,360.46s.2-.37.57-1.1l1.59-3.3c1.38-2.89,3.4-7.19,5.92-12.74,5.01-11.14,12.01-27.38,19.5-47.9,1.87-5.11,3.79-10.51,5.68-16.16.96-2.83,1.91-5.7,2.87-8.65,1.15-2.97,1.84-6.1,2.04-9.28.04-1.67-.33-3.33-1.08-4.82-.72-1.6-2.07-2.83-3.73-3.4-1.73-.44-3.57-.1-5.03.94-1.48,1.01-2.64,2.42-3.34,4.07-1.28,3.35-.94,7.11.92,10.18,1.83,3.17,4.59,5.69,7.92,7.21,3.4,1.57,7.19,2.11,10.89,1.55,3.79-.63,7.32-2.33,10.18-4.91,2.91-2.58,5.15-5.83,6.54-9.47.73-1.85,1.14-3.8,1.22-5.78.16-2.06-.46-4.1-1.73-5.72-.7-.8-1.63-1.36-2.67-1.61-1.02-.24-2.08-.24-3.09,0-2.02.48-3.83,1.61-5.15,3.22-1.31,1.58-2.38,3.34-3.18,5.23-.81,1.86-1.52,3.77-2.14,5.7-1.33,3.94-2.06,8.06-2.16,12.22-.16,4.23.86,8.41,2.95,12.09,1.07,1.83,2.45,3.46,4.07,4.82,1.64,1.35,3.57,2.3,5.64,2.79,2.07.42,4.22.34,6.25-.24,2-.58,3.88-1.54,5.54-2.81,3.18-2.53,5.93-5.56,8.14-8.98,1.14-1.65,2.2-3.34,3.22-5.05,1.06-1.69,1.98-3.47,2.75-5.31.78-1.88.97-3.96.53-5.94-.23-1.01-.71-1.95-1.38-2.73-.71-.79-1.69-1.29-2.75-1.4-1.03-.1-2.06.11-2.97.61-.87.47-1.68,1.06-2.38,1.75-1.37,1.37-2.53,2.94-3.44,4.64-3.91,6.44-5.54,14.02-4.62,21.5.59,3.59,2.09,6.97,4.36,9.81,2.18,2.83,5.24,4.85,8.69,5.74,3.4.76,6.97.2,9.98-1.57,2.95-1.59,5.31-4.08,6.74-7.11.71-1.47,1.12-3.07,1.22-4.7.15-1.64-.27-3.27-1.18-4.64-1.02-1.39-2.87-1.89-4.46-1.2-1.41.68-2.61,1.72-3.48,3.01-1.61,2.47-2.92,5.12-3.89,7.9l-3.18,7.76c-8.31,20.2-14.72,36.65-18.93,48.11-2.04,5.72-3.68,10.18-4.72,13.25l-1.16,3.46-.37,1.2s.16-.41.45-1.18l1.22-3.44c1.08-3.01,2.69-7.49,4.85-13.19,4.3-11.42,10.77-27.85,19.14-48.03,1.04-2.52,2.04-5.09,3.22-7.74.95-2.73,2.24-5.34,3.83-7.76.81-1.22,1.94-2.2,3.26-2.83,1.34-.59,2.91-.16,3.77,1.02.84,1.26,1.21,2.77,1.06,4.28-.1,1.55-.5,3.06-1.18,4.46-1.38,2.92-3.65,5.31-6.49,6.84-2.88,1.67-6.28,2.2-9.53,1.49-3.32-.87-6.25-2.82-8.33-5.54-2.19-2.76-3.63-6.03-4.19-9.51-.94-7.35.63-14.79,4.46-21.13.89-1.64,2-3.15,3.32-4.48,1.21-1.39,2.96-2.18,4.8-2.18,1.82.33,3.24,1.77,3.54,3.6.4,1.86.22,3.79-.53,5.54-.75,1.8-1.65,3.54-2.69,5.19-1,1.69-2.04,3.38-3.2,5.01-2.17,3.35-4.88,6.33-8,8.82-1.59,1.21-3.38,2.12-5.29,2.69-1.92.56-3.95.64-5.9.22-3.96-1.05-7.31-3.68-9.28-7.27-2.03-3.56-3.02-7.61-2.85-11.71.08-4.06.77-8.08,2.04-11.93,1.05-3.84,2.8-7.45,5.17-10.65,1.22-1.5,2.89-2.55,4.76-3.01,1.82-.51,3.78.02,5.09,1.38,1.15,1.49,1.71,3.36,1.55,5.23-.07,1.9-.46,3.77-1.16,5.54-1.34,3.53-3.51,6.69-6.33,9.2-2.74,2.48-6.13,4.14-9.77,4.76-3.57.56-7.23.04-10.51-1.49-3.21-1.45-5.88-3.87-7.63-6.92-1.8-2.92-2.14-6.51-.92-9.71.67-1.5,1.75-2.79,3.11-3.71,1.29-.95,2.94-1.27,4.5-.88,1.49.53,2.71,1.64,3.38,3.07.69,1.42,1.04,2.98,1,4.56-.19,3.12-.88,6.19-2.04,9.1-.96,2.95-1.91,5.84-2.83,8.67-1.9,5.63-3.79,11.02-5.66,16.16-7.41,20.52-14.25,36.79-19.26,47.94-2.48,5.58-4.46,9.89-5.8,12.81-.67,1.45-1.18,2.57-1.55,3.32l-.28,1.14Z"/>
    <g id="freepik--2ggvdetif--inject-179">
      <path class="cls-11" d="M487.84,449.85c-2.75.68-5.39,1.75-7.84,3.18-1.71,1.06-3.81,1.28-5.7.59l-18.32-6.54c-2.06-.73-3.63-2.43-4.19-4.54-.61-2.85-2.22-5.38-4.54-7.15l40.6,14.45Z"/>
    </g>
    <path class="cls-3" d="M526,405.57c-.14.37-14.62,27.63-20.16,38.05-2.23,4.32-6.48,7.22-11.32,7.72-1.91.18-3.84-.06-5.64-.71l-40.29-14.25s-10.55-3.73-9.96-12.93c.59-9.69,8.14-45.95,8.14-45.95l79.22,28.07Z"/>
    <rect class="cls-3" x="470.98" y="389.71" width="4.48" height="78.73" rx="2.12" ry="2.12" transform="translate(-90.41 729.66) rotate(-70.27)"/>
    <path class="cls-11" d="M437.44,418.64c-.49-.24-.89-.63-1.14-1.12-.27-.59-.27-1.28,0-1.87.35-.79,1.17-1.28,2.04-1.2,3.83,1.3,9.45,3.46,16.29,5.94l54.11,19.52c.57.19.99.66,1.12,1.24.07.28.07.57,0,.86-.08.29-.2.56-.37.81-.35.48-.92.74-1.51.71-.63-.14-1.25-.33-1.85-.57l-7.59-2.73-14.39-5.15-24.43-8.65-16.45-5.78-4.5-1.53-1.16-.39-.41-.1.39.16,1.14.45,4.44,1.67,16.29,6.11,24.33,8.79,14.37,5.17,7.59,2.75.98.35c.35.15.72.24,1.1.29.8,0,1.55-.36,2.04-1,.23-.32.4-.69.49-1.08.09-.4.09-.81,0-1.2-.19-.82-.79-1.49-1.59-1.77l-54.17-19.32c-6.96-2.42-12.52-4.48-16.51-5.72-.99-.11-1.94.45-2.3,1.38-.31.64-.31,1.39,0,2.04.37.57.99.92,1.67.94Z"/>
    <rect class="cls-3" x="474.2" y="379.05" width="4.48" height="81.88" rx="2.12" ry="2.12" transform="translate(-79.73 726.67) rotate(-70.27)"/>
    <path class="cls-11" d="M439.17,409.13c-.52-.22-.94-.64-1.16-1.16-.24-.63-.19-1.34.14-1.93.43-.82,1.36-1.25,2.26-1.04l17,6.21,56.21,20.36c.58.21,1.01.7,1.14,1.3.08.29.08.6,0,.9-.08.31-.23.59-.43.83-.4.45-1.01.67-1.61.57-.55-.14-1.3-.45-2.04-.67l-7.88-2.97-14.94-5.33-25.33-9.04-17.08-5.99-4.66-1.61-1.22-.39-.41-.12s.12,0,.39.18l1.2.47,4.6,1.73,17.02,6.23,25.27,9.14,14.92,5.37,7.9,2.83c.67.27,1.35.51,2.04.71.84.13,1.69-.18,2.26-.81.26-.32.46-.68.57-1.08.1-.41.1-.85,0-1.26-.17-.85-.78-1.55-1.61-1.83l-56.29-20.09c-7.21-2.54-13.03-4.6-17.1-5.99-1.01-.24-2.05.26-2.5,1.2-.33.63-.37,1.38-.1,2.04.22.65.77,1.12,1.45,1.24Z"/>
    <rect class="cls-3" x="477.4" y="368.98" width="4.48" height="83.88" rx="2.12" ry="2.12" transform="translate(-69.08 723.69) rotate(-70.27)"/>
    <path class="cls-11" d="M441.43,399.65c-.52-.26-.93-.69-1.16-1.22-.27-.67-.2-1.43.18-2.04.48-.82,1.46-1.2,2.36-.92l17.41,6.37,57.57,20.75c.59.23,1.02.74,1.14,1.36.08.63-.12,1.26-.55,1.73-.43.45-1.06.64-1.67.51-.63-.2-1.36-.49-2.04-.73l-8.14-2.89-15.25-5.29-25.92-9.22-17.49-6.11-4.76-1.65-1.26-.41h-.43l.41.18,1.22.47,4.72,1.77,17.43,6.37,25.86,9.34,15.29,5.52,8.14,2.91c.71.24,1.32.49,2.04.73.86.2,1.76-.06,2.38-.69.28-.31.48-.68.61-1.08.14-.41.18-.85.12-1.28-.16-.88-.77-1.61-1.61-1.91l-57.53-20.81-17.51-6.11c-1.02-.3-2.11.15-2.63,1.08-.37.65-.43,1.44-.14,2.14.23.53.66.93,1.2,1.12Z"/>
    <rect class="cls-3" x="480.62" y="358.31" width="4.48" height="87.11" rx="2.12" ry="2.12" transform="translate(-58.42 720.71) rotate(-70.27)"/>
    <path class="cls-11" d="M443.12,390.04c-.54-.26-.96-.71-1.18-1.26-.23-.69-.12-1.44.29-2.04.55-.83,1.62-1.14,2.52-.73l18.06,6.62,59.71,21.52c.62.23,1.06.77,1.16,1.43.06.66-.18,1.31-.65,1.77-.49.43-1.18.55-1.79.33l-2.14-.75-8.39-3.01-15.86-5.68-26.89-9.55-18.14-6.39-4.95-1.71-1.3-.41c-.14-.07-.29-.11-.45-.12l.43.18,1.26.49,4.91,1.83,18.08,6.6,26.83,9.71,15.84,5.72,8.39,3.01,2.04.77c1.33.46,2.78-.25,3.23-1.58,0,0,0,0,0,0,.16-.41.21-.86.16-1.3-.12-.93-.75-1.72-1.63-2.04l-59.77-21.34-18.14-6.39c-1.02-.43-2.21-.06-2.81.88-.42.65-.51,1.47-.24,2.2.17.44.49.81.9,1.04.16.12.34.19.53.22Z"/>
    <path class="cls-8" d="M549.51,375.13c-.26.73-8.14,17.77-12.22,26.47-1.5,3.2-4.38,5.55-7.82,6.37l-5.05,1.2-77.91-27.65-3.11-4.07c-2.19-2.84-2.94-6.53-2.04-10l7.37-28.16,100.78,35.83Z"/>
    <g class="cls-17">
      <path class="cls-2" d="M504.99,442.68c-8.17-1.23-16.18-3.39-23.86-6.43-6.64-2.4-13.21-4.52-20.36-7.25-5.25-2.04-10.04-3.97-15.23-6.11-2.12-.74-4.05-1.93-5.66-3.5l65.11,23.29Z"/>
    </g>
    <g class="cls-17">
      <path class="cls-2" d="M510.99,434.56c-8.79-1.45-17.39-3.83-25.67-7.11-7.15-2.59-14.25-4.89-21.99-7.8-5.66-2.14-10.81-4.28-16.41-6.51-2.26-.8-4.34-2.04-6.11-3.66l70.18,25.08Z"/>
    </g>
    <g class="cls-17">
      <path class="cls-2" d="M514.19,425.56c-8.78-1.43-17.39-3.8-25.67-7.06-7.17-2.59-14.25-4.89-21.99-7.8-5.66-2.14-10.81-4.25-16.43-6.51-2.26-.8-4.34-2.05-6.11-3.66l70.2,25.04Z"/>
    </g>
    <g class="cls-17">
      <path class="cls-2" d="M517.38,416.56c-8.79-1.43-17.39-3.8-25.67-7.06-7.17-2.59-14.25-4.89-21.99-7.8-5.66-2.04-10.81-4.25-16.43-6.51-2.26-.79-4.34-2.04-6.11-3.66l70.2,25.04Z"/>
    </g>
    <path class="cls-11" d="M534.67,355.14c.41.04.83.04,1.24,0,.79,0,2.04,0,3.52-.1,4.32-.25,8.61-.83,12.85-1.71,6.29-1.29,12.43-3.23,18.32-5.8,14.54-6.25,27.22-16.15,36.81-28.75,3.91-5.07,7.29-10.53,10.08-16.29,1.88-3.9,3.47-7.92,4.76-12.05.49-1.47.73-2.63.96-3.4.12-.39.22-.8.29-1.2-.19.37-.33.76-.43,1.16-.26.75-.55,1.91-1.08,3.34-1.4,4.08-3.06,8.07-4.97,11.93-9.75,20-26.3,35.88-46.68,44.79-5.85,2.57-11.94,4.55-18.18,5.92-4.21.91-8.47,1.55-12.76,1.91-1.53.16-2.71.18-3.52.24h-1.2Z"/>
    <path class="cls-11" d="M625.86,266.4c-.51,1.66-.79,3.38-.86,5.11-.29,1.71-.34,3.45-.14,5.17.51-1.66.79-3.38.86-5.11.29-1.71.34-3.45.14-5.17Z"/>
    <path class="cls-15" d="M441.65,254.41c.09-.34.16-.69.2-1.04.1-.75.24-1.75.43-3.01l.29-2.18c.14-.77.35-1.63.53-2.54.41-1.83.73-3.93,1.45-6.11.33-1.12.65-2.32,1.02-3.54.37-1.22.88-2.48,1.32-3.79.86-2.63,2.04-5.29,3.38-8.14,2.93-6.08,6.44-11.86,10.51-17.24,4.15-5.32,8.8-10.23,13.88-14.66,2.42-2.04,4.66-3.89,6.98-5.4,1.14-.79,2.2-1.61,3.3-2.28l3.16-1.89c2.04-1.28,3.93-2.16,5.6-3.03.83-.41,1.59-.83,2.32-1.16l2.04-.86,2.79-1.2c.33-.13.65-.28.96-.47-.34.08-.68.19-1,.33l-2.85,1.08-2.04.79c-.73.33-1.51.73-2.36,1.12-1.67.86-3.64,1.69-5.66,2.95l-3.22,1.87c-1.1.67-2.18,1.47-3.34,2.24-2.34,1.53-4.62,3.44-7.06,5.4-5.16,4.42-9.86,9.36-14.03,14.72-4.08,5.44-7.61,11.27-10.55,17.41-1.24,2.87-2.5,5.58-3.34,8.14-.45,1.32-.94,2.59-1.3,3.83-.37,1.24-.65,2.44-.96,3.58-.57,2.05-1.02,4.13-1.36,6.23-.16.94-.35,1.79-.47,2.59s-.14,1.53-.22,2.18c-.12,1.26-.22,2.28-.31,3.03-.08.35-.1.7-.08,1.06Z"/>
    <g class="cls-16">
      <path class="cls-15" d="M560.69,195.9c3.03-3.4,8.43-4.72,14.25-4.44,8.22.53,15.9,4.26,21.4,10.38,16.39,17.79,23.29,34.61,22.27,60-.35,8.57-3.68,21.74-10.18,27.97-3.2,3.2-7.58,4.92-12.09,4.76-11.71-.67-16.49-13.99-16.29-25.02.18-10.28,2.75-21.05-1.24-30.54-3.3-7.8-10.44-13.17-15.64-19.89s-8.14-16.94-2.48-23.23Z"/>
    </g>
    <g class="cls-16">
      <path class="cls-15" d="M524.25,178.86c5.6-4.8,15.21-4.21,19.46-.12,3.51,3.55,5.2,8.51,4.58,13.46-.93,6-5.41,10.83-11.32,12.22-5.98,1.15-12.03-1.67-14.98-7-2.73-5.21-2.22-14.7,2.26-18.55Z"/>
    </g>
    <path class="cls-14" d="M549.51,375.13c-.26.73-8.14,17.77-12.22,26.47-1.5,3.2-4.38,5.55-7.82,6.37l-5.05,1.2-77.91-27.65-3.11-4.07c-2.19-2.84-2.94-6.53-2.04-10l7.37-28.16,100.78,35.83Z"/>
    <path class="cls-11" d="M448.12,339.16c0,.2,22.39,8.37,50.35,18.32s50.51,17.75,50.57,17.57-22.39-8.37-50.35-18.32c-27.95-9.96-50.41-17.75-50.57-17.57Z"/>
    <path class="cls-11" d="M441.91,371.96c0,.2,20.7,7.74,46.42,16.86,25.71,9.12,46.6,16.29,46.66,16.16s-20.7-7.72-46.42-16.84c-25.71-9.12-46.6-16.37-46.66-16.19Z"/>
    <path class="cls-11" d="M511.4,144.47c-.29,0-3.42-16.29-7-36.3-3.58-20.01-6.27-36.42-5.99-36.48s3.44,16.29,7.02,36.3,6.35,36.48,5.97,36.48Z"/>
    <path class="cls-11" d="M625.41,44c.29.1-9.47,24.98-21.76,55.56-12.3,30.58-22.39,55.27-22.76,55.17s9.47-24.98,21.76-55.56c12.3-30.58,22.44-55.27,22.76-55.17Z"/>
    <path class="cls-11" d="M694.08,137.61c.16.24-15.13,10.18-34.14,22.23-19.01,12.05-34.53,21.6-34.73,21.27s15.15-10.18,34.16-22.25c19.01-12.07,34.57-21.5,34.71-21.25Z"/>
    <path class="cls-11" d="M706.11,236.19c0,.31-13.5-.86-30.05-2.59-16.55-1.73-29.97-3.36-29.95-3.64s13.48.86,30.05,2.59c16.57,1.73,29.97,3.36,29.95,3.64Z"/>
    <path class="cls-11" d="M553.93,137c-.31,0,.75-12.52,2.32-27.89s3.09-27.75,3.38-27.75-.75,12.52-2.32,27.89-3.16,27.79-3.38,27.75Z"/>
    <path class="cls-11" d="M647.25,113.06c-.27.72-.64,1.4-1.08,2.04-.75,1.26-1.87,3.01-3.32,5.17-2.89,4.32-7.08,10.18-12.07,16.29-4.99,6.11-9.81,11.48-13.44,15.21-1.79,1.85-3.28,3.34-4.36,4.34-.52.54-1.09,1.03-1.71,1.47.39-.65.87-1.24,1.43-1.75,1.12-1.26,2.48-2.77,4.07-4.56,3.46-3.85,8.14-9.22,13.13-15.35,4.99-6.13,9.24-11.87,12.22-16.06l3.64-5.03c.42-.64.92-1.23,1.49-1.75Z"/>
    <path class="cls-11" d="M675.31,192.19c-5.24,2.01-10.61,3.68-16.06,5.01-5.34,1.7-10.78,3.06-16.29,4.07,5.25-2.01,10.62-3.69,16.08-5.03,5.33-1.69,10.77-3.04,16.27-4.05Z"/>
    <path class="cls-9" d="M452.24,386.31c2.39-3.28,5.47-5.99,9.02-7.96,6.11-3.44,18.18-4.62,20.52-8.63,2.34-4.01,5.97.2,3.87,5.37-1.32,3.3-10.18,10.83-10.18,10.83,0,0,7.84,3.75,13.99,1.69s26.47-3.85,28.07-.73c1.71,3.5-3.54,3.5-5.94,4.3-1.85.59-15.94,4.36-15.94,4.36,0,0,25.65,4.3,28.62,6.11s-.98,4.38-2.59,4.07c-1.04-.16,1.75,3.22-1.93,5.48-2.48,1.53-13.4,1.69-16.29,1.16l-5.94-1.12,17.61,5.54s2.52,3.46-2.04,4.07c-2.04.26-58.19-2.93-62.46-3.54-7.39-1.06-17.87-2.93-17.87-2.93l6.01-30.38,13.48,2.32Z"/>
    <path class="cls-4" d="M495.64,395.53c.91-.05,1.83.01,2.73.18,1.75.2,4.28.53,7.37,1.02s6.8,1.1,10.87,2.04c2.15.44,4.26,1.05,6.31,1.81.59.22,1.15.53,1.65.92.15.14.28.3.39.47l.2.43c.14.29.25.6.33.92.15.71-.02,1.46-.47,2.04-.49.5-1.11.86-1.79,1.02-1.2.21-2.42.32-3.64.33h-9.98c-4.17-.14-7.9-.45-11.03-.81s-5.64-.75-7.35-1.1c-.91-.1-1.81-.32-2.67-.63.91-.02,1.83.06,2.73.22,1.73.2,4.25.49,7.37.77s6.84.49,10.97.57h6.47l3.44-.12c1.14,0,2.28-.1,3.4-.29.48-.11.93-.35,1.28-.69.26-.34.34-.79.22-1.2-.06-.24-.14-.48-.24-.71l-.16-.37s0-.1-.16-.18c-.42-.3-.87-.54-1.34-.73-1.99-.74-4.03-1.36-6.11-1.83-4.07-.94-7.7-1.63-10.77-2.22l-7.31-1.34c-.91-.09-1.82-.25-2.71-.49Z"/>
    <path class="cls-9" d="M613.19,321.33l5.62-12.81s-11.56-14.66-11.58-20.36l-.22-3.32s-6.84-6.72-3.95-11.4c-.88-3.75-.2-5.99,2.99-5.82,0,0-5.23-4.97-.39-9.55s23.82,18.73,23.82,18.73c0,0,8.65,10.53,4.28,13.46,0,0,2.83,7.11-4.36,9.41,0,0,2.69,5.03-2.2,10.81l-2.04,2.54c-2.36,2.88-5.33,5.19-8.69,6.78l-3.28,1.53Z"/>
    <path class="cls-4" d="M626.47,297.45s.47,0,1.14.29c.91.54,1.63,1.36,2.04,2.34.65,1.5.75,3.18.29,4.74-.58,1.92-1.52,3.71-2.77,5.27-2.15,2.89-4.68,5.48-7.51,7.7-1.12,1-2.4,1.8-3.79,2.38,3.84-3.18,7.35-6.75,10.46-10.65,1.18-1.46,2.09-3.12,2.69-4.91.47-1.37.47-2.86,0-4.23-.49-1.24-1.38-2.28-2.54-2.93Z"/>
    <path class="cls-4" d="M625.14,285.33c-.26.18-3.75-4.72-9.1-9.81s-10.4-8.37-10.18-8.63c1.25.44,2.43,1.08,3.48,1.89,5.33,3.55,9.99,8.01,13.78,13.17.84,1.02,1.52,2.16,2.02,3.38Z"/>
    <path class="cls-4" d="M622.37,291.32c-.24.2-4.07-4.3-9.43-9.22s-10.06-8.49-9.87-8.73c7.62,4.57,14.19,10.69,19.3,17.96Z"/>
    <path class="cls-4" d="M629.03,286.27c0-.29,2.04-.14,3.73,1.67s1.63,3.87,1.34,3.85-.69-1.65-2.04-3.14-3.09-2.1-3.03-2.38Z"/>
    <path class="cls-4" d="M616.55,296.77c-1.75-1.73-3.34-3.63-4.74-5.66-1.67-1.8-3.17-3.76-4.48-5.84,3.96,3.03,7.13,6.98,9.22,11.5Z"/>
    <path class="cls-6" d="M384.58,368.7c4.82-52.2,13.5-127.57,13.5-127.57,0,0-6.72-18.06-10.34-26l-4.85-11.6h0l-10.63,13.54-39.8,13.82c-5.83,3.18-10.93,7.54-14.98,12.81-7.17,9.71-11.28,18.32-13.44,34.32-5.94,44.08-15.23,105.25-6.74,119.42,2.26,3.79,12.7,9.71,27.69,15.15l-15.41,108.51c20.58,15.82,36.06,14.07,66.02,4.48,0,0,4.34-64.5,5.52-98.74,27.16,5.82,50.02,10.3,50.02,10.3l8.69-52.26-55.25-16.19Z"/>
    <path class="cls-11" d="M351.34,358.24c-3.75,1.04-7.34,2.61-10.65,4.66-3.11,2.35-5.85,5.15-8.14,8.31.28-1.15.81-2.23,1.55-3.16,3.24-4.76,8.14-8.14,13.74-9.49,1.13-.35,2.32-.47,3.5-.33Z"/>
    <path class="cls-11" d="M341.95,283.58c-.43-1.82-.7-3.69-.79-5.56-.37-3.44-.88-8.14-1.55-13.44-1.02-8.14-2.04-15.21-2.38-17.77h.35v1.18s-.16-.37-.35-1.14h.37c1.37,5.85,2.4,11.77,3.09,17.73.67,5.25,1.06,10.04,1.24,13.5.19,1.83.2,3.67.02,5.5Z"/>
    <path class="cls-11" d="M351.52,305.83c.03.3.03.61,0,.92v2.71c0,2.42,0,5.92-.18,10.4-.2,9.08-.51,22.15-.88,38.32l-.26-.37,89.58,26.08.45.12v.47l-3.32,20.05-5.35,32.19v.51h-.51c-37.56-6.11-70.26-13.07-93.1-20.03-9.03-2.64-17.83-6.02-26.3-10.1l-3.89-2.04-2.67-1.73-1.63-1.1c-.19-.12-.36-.25-.53-.39.21.09.41.2.59.33l1.67,1,2.71,1.65,3.89,1.91c8.49,3.87,17.27,7.09,26.26,9.61,22.82,6.78,55.52,13.6,93.06,19.67l-.61.43,5.35-32.21c1.14-6.86,2.26-13.64,3.34-20.05l.37.59-89.58-26.34h-.29v-.18c.51-16.16.92-29.24,1.2-38.32.16-4.48.31-7.96.39-10.38,0-1.16,0-2.04.12-2.71.01-.34.05-.67.12-1Z"/>
    <path class="cls-14" d="M372.82,218.54c.33,1.63,13.48,45.26,13.48,45.26.93-5.96,2.4-11.83,4.38-17.53,2.83-6.8,1.55-7.11,1.55-7.11,0,0-4.56,1.63-6.23,8.55-.31,1.24-.94,5.31-.94,5.31l-12.24-34.49Z"/>
    <path class="cls-11" d="M397.02,246.59c-.12-.67-.18-1.35-.18-2.04.04-1.81-.7-3.56-2.04-4.78-.92-.78-2.22-.91-3.28-.35-1.2.82-2.19,1.9-2.91,3.16-1.88,2.9-2.97,6.25-3.16,9.71l-.14,2.87-.88-2.73c-.55-1.69-1.12-3.44-1.75-5.21-2.95-8.39-6.11-15.84-7.96-21.38-.96-2.77-1.67-5.03-2.14-6.6-.27-.81-.46-1.64-.57-2.48.4.76.72,1.55.98,2.36l2.44,6.45c2.04,5.46,5.29,12.87,8.27,21.3.61,1.79,1.2,3.54,1.73,5.23l-1.04.14c.22-3.64,1.42-7.16,3.46-10.18.81-1.37,1.94-2.52,3.3-3.36,1.34-.68,2.95-.47,4.07.53.88.73,1.5,1.73,1.77,2.85.2.81.3,1.63.29,2.46.01.69-.08,1.37-.26,2.04Z"/>
    <path class="cls-12" d="M424.42,75.11c-11.49-.57-28.12.45-39.99,10.16-7.46,6.15-11.49,11.59-13.51,19.28-2.37,9.12-1.12,24.46.74,37.04,1.42,9.71,7.93,11.14,8.31,13.51,3.37,20.97,10.9,7.91,11.11-36.95.05-10.99-4.75-15.93,4.58-23.75,8.45-7.12,17.34-3.35,26.12-1.35,8.79,1.99,12.21-8.17,21.54-4.23,7.67,3.25,15.01,18.52,15.01,18.52.07-19.57-22.42-31.68-33.91-32.25Z"/>
    <path class="cls-12" d="M381.04,121.03c-.77,1.37-2.04,2.39-3.55,2.84-1.51.45-3.13.3-4.53-.42-1.4-.72-2.46-1.95-2.97-3.44-.51-1.49-.42-3.12.25-4.54-3.4,1.12-7.12-2.23-7.12-5.75.09-1.77.62-3.48,1.55-4.99.93-1.5,2.23-2.75,3.77-3.61-1.15-1.83-1.74-3.96-1.69-6.12.05-2.16.74-4.26,1.97-6.04,1.24-1.77,2.97-3.14,4.98-3.94,2.01-.79,4.21-.98,6.33-.53.81-2.3,2.16-4.38,3.94-6.05,1.78-1.67,3.94-2.89,6.29-3.54,2.35-.66,4.83-.74,7.21-.24,2.39.5,4.62,1.57,6.51,3.11,1.28-2.67,3.32-4.89,5.87-6.4,2.55-1.5,5.48-2.22,8.43-2.05,2.95.17,5.79,1.2,8.15,2.98,2.36,1.78,4.14,4.22,5.12,7.01,2.27-.99,4.82-1.18,7.21-.54,2.4.64,4.51,2.07,5.99,4.06.35.42.62.9.78,1.42.16.52.21,1.07.15,1.62-.38,1.97-3.06,2.59-5.13,2.37-2.02-.55-4.17-.38-6.08.47-1.83,1.38-1.95,3.89-2.18,6.13-.24,2.23-1.19,4.92-3.42,5.22-1.27-.08-2.53-.29-3.75-.64-1.14.03-2.25.35-3.24.91-.99.56-1.83,1.36-2.44,2.32-1.22,1.92-2.7,3.66-4.39,5.18-.88.73-1.99,1.11-3.13,1.05-1.14-.05-2.22-.53-3.02-1.34-.58,2.43-1.97,4.59-3.95,6.11-1.98,1.52-4.43,2.32-6.92,2.25-1.42-.1-3.3-.19-4.04.78-.74.97-.38,2.33-.52,3.51-.31,1.3-1.09,2.45-2.19,3.22-1.1.77-2.44,1.12-3.77.98-2.66-.36-5.2-1.38-7.36-2.97"/>
    <path class="cls-1" d="M431.71,88.66c-.86,1.59-2.07,2.96-3.54,4.01-1.92,1.39-4.23,2.13-6.6,2.11h-.43s.17.4.17.4c.25.69.37,1.42.34,2.15-.03.73-.2,1.45-.51,2.12-.68,1.49-1.57,2.88-2.64,4.13-.51.69-1.08,1.34-1.71,1.92-.7.51-1.52.84-2.38.97-.88.17-1.78.12-2.64-.13-.86-.26-1.64-.72-2.28-1.34l-.57-.62v.83c-.15,1.68-.66,3.3-1.47,4.78-.82,1.47-1.93,2.76-3.28,3.77-1.42,1.19-3.2,1.89-5.06,1.97-1.81,0-3.61-.3-5.32-.88h-.33s-.12.33-.12.33c-.74,1.99-1.95,3.77-3.54,5.18-.7.67-1.53,1.18-2.45,1.49-.92.31-1.89.41-2.85.29-1.68-.27-3.25-1.03-4.52-2.18-1.26-1.15-2.17-2.63-2.61-4.28v-.36s-.31.21-.31.21c-1.64,1-3.58,1.41-5.49,1.16-1.44-.16-2.83-.65-4.06-1.42-1.02-.72-1.91-1.6-2.64-2.61.14.29.3.58.48.85.55.78,1.24,1.45,2.02,1.99,1.24.86,2.66,1.41,4.16,1.61,2.01.29,4.06-.12,5.79-1.16l-.38-.17c.44,1.78,1.39,3.39,2.74,4.63,1.35,1.24,3.03,2.06,4.84,2.35,1.05.14,2.13.04,3.14-.29,1.01-.33,1.94-.88,2.71-1.61,1.69-1.48,2.99-3.36,3.78-5.46l-.45.24c1.79.61,3.67.93,5.56.93,2.02-.09,3.95-.83,5.51-2.11,1.42-1.09,2.59-2.46,3.45-4.02.85-1.57,1.37-3.29,1.52-5.07l-.64.21c.72.72,1.61,1.25,2.58,1.54s2,.34,3,.15c.97-.15,1.88-.53,2.66-1.12.67-.63,1.27-1.32,1.81-2.07,1.11-1.3,2.01-2.75,2.68-4.32.32-.75.48-1.56.48-2.37,0-.82-.16-1.62-.48-2.37l-.26.38c2.49,0,4.9-.85,6.86-2.37,1.5-1.1,2.72-2.54,3.56-4.2.55-1.05.91-2.18,1.07-3.35.03-.3.03-.6,0-.9v-.31c-.21,1.52-.67,3-1.35,4.37Z"/>
  </g>
</svg>