<?xml version="1.0" encoding="UTF-8"?>
<svg id="Layer_2" data-name="Layer 2" xmlns="http://www.w3.org/2000/svg" viewBox="0 0 1000 1000">
  <defs>
    <style>
      .cls-1 {
        fill: #ff9a6c;
      }

      .cls-1, .cls-2, .cls-3, .cls-4, .cls-5, .cls-6, .cls-7, .cls-8, .cls-9, .cls-10, .cls-11, .cls-12 {
        stroke-width: 0px;
      }

      .cls-2 {
        fill: #000;
      }

      .cls-3 {
        fill: #e0e0e0;
      }

      .cls-13 {
        opacity: .5;
      }

      .cls-4 {
        fill: #455a64;
      }

      .cls-5 {
        fill: #f5f5f5;
      }

      .cls-6 {
        fill: #09f;
      }

      .cls-7 {
        fill: #ebebeb;
      }

      .cls-8 {
        fill: #e30613;
      }

      .cls-9 {
        fill: #263238;
      }

      .cls-10 {
        fill: #ffbf9d;
      }

      .cls-11 {
        fill: #b56f57;
      }

      .cls-14 {
        opacity: .3;
      }

      .cls-12 {
        fill: #fff;
      }
    </style>
  </defs>
  <g id="freepik--background-complete--inject-2">
    <rect class="cls-7" x="476.03" y="556.6" width="99.31" height="26.27"/>
    <path class="cls-3" d="M533.36,610.55c-.01-.16-.01-.33,0-.49v-6.51c0-4.53-.1-11.06-.16-19.29l.31.33-99.31.18.51-.51h0v26.27l-.49-.51,70.77.22,20.88.14h7.66-7.41l-20.78.14-71.12.22h-.51v-26.48h0l.51-.49,99.31.18h.31v.31c0,8.31-.12,14.9-.16,19.47v6.39c-.09.14-.19.28-.31.41Z"/>
    <rect class="cls-7" x="835.79" y="113.5" width="99.31" height="26.27"/>
    <path class="cls-3" d="M893.11,167.45v-7c0-4.53,0-11.06-.16-19.27l.31.31-99.31.18.51-.49h0v26.23l-.49-.51,70.77.22,20.88.14h7.66-7.41l-20.78.14-71.12.22h-.49v-26.42h0l.51-.51,99.31.18h.31v.31c0,8.29-.12,14.88-.16,19.45v6.39c-.09.15-.2.29-.33.41Z"/>
    <rect class="cls-7" x="78.01" y="240.65" width="99.31" height="26.27"/>
    <path class="cls-3" d="M135.33,294.65v-7c0-4.53,0-11.06-.18-19.27l.31.31-99.31.2c.22-.24-.51.49.51-.51h0v26.23l-.49-.49,70.77.22,20.9.14h7.63-7.41l-20.78.14-71.12.22h-.49v-26.44h0l.51-.51,99.31.2h.33v.31c0,8.29-.14,14.88-.18,19.45v6.39c-.08.14-.19.27-.31.39Z"/>
    <path class="cls-3" d="M911.62,536.53c0-.16,0-.31,0-.47v-6.51c0-4.55-.1-11.06-.18-19.29l.31.31-99.31.2.51-.51h0v26.25l-.49-.49,70.77.22,20.9.14h7.63-7.41l-20.78.14-71.12.22h-.49v-.51c0-4.23,0-8.54,0-12.92v-13.33h0l.51-.51,99.31.2h.33v.31c0,8.31-.12,14.88-.16,19.47v6.39c-.31.55-.31.69-.33.67Z"/>
    <path class="cls-3" d="M925.1,510.26c-.02-.16-.02-.33,0-.49v-6.68c0-4.59-.12-11.11-.2-19.11l.37.37-59.89.14.51-.51h0v26.25l-.47-.47,42.69.22,12.43.12h4.55c-.36.03-.72.03-1.08,0h-3.25l-12.25.14-43.01.22h-.49v-26.74h0c0,.12.96-.96.51-.51l59.67.14h.37v.37c0,8.17-.14,14.68-.2,19.33v5.19c0,1.27-.22,2.02-.24,2Z"/>
    <path class="cls-3" d="M503.88,72.01c-.01-.16-.01-.33,0-.49v-6.51c0-4.53,0-11.06-.18-19.27l.33.31-99.31.18.49-.49h0v26.27l-.51-.51,70.77.22,20.9.14h7.66-.47l-1.55.27h-5.55l-20.78.14-71.12.22h-.53v-26.72h0c1.02-1.02.29-.29.53-.51l99.31.18h.31v.31c0,8.29-.14,14.88-.18,19.45v6.39c-.03.14-.06.27-.1.41Z"/>
    <path class="cls-3" d="M517.33,45.74v-7.17c0-4.61-.12-11.13-.2-19.13l.37.37-59.67.14c-.45.45.61-.61.51-.49h0v26.23l-.49-.49,42.69.22,12.43.14h4.55c-.36.02-.72.02-1.08,0h-3.25l-12.25.14-43.01.22h-.84v-26.44h0l.51-.51,59.67.14h.37v.35c0,8.17-.14,14.68-.2,19.35v5.19c0,.57-.03,1.15-.1,1.71Z"/>
    <path class="cls-5" d="M780.77,700.47v48.87h-8.17v5.31h8.17v32.66h152.53v-29.72h-11.29v-6.47h11.29v-9.74h5.02v-4.41h-5.96v-36.5h-151.59Z"/>
    <polygon class="cls-3" points="892.8 700.62 892.8 786.8 933.3 786.8 933.3 757.04 921.99 757.04 921.99 751.1 933.3 751.3 933.3 741.59 938.43 741.59 938.32 736.57 932.36 736.42 932.36 700.47 892.8 700.62"/>
    <path class="cls-3" d="M895.68,753.96c0,.31-27.6.55-61.63.55s-61.65-.24-61.65-.55,27.6-.53,61.65-.53,61.63.22,61.63.53Z"/>
    <path class="cls-3" d="M895.68,748.98c0,.31-27.6.55-61.63.55s-61.65-.24-61.65-.55,27.6-.53,61.65-.53,61.63.25,61.63.53Z"/>
    <path class="cls-3" d="M903.6,735.59c0,.29-27.6.53-61.63.53s-61.65-.24-61.65-.53,27.6-.55,61.65-.55,61.63.29,61.63.55Z"/>
    <path class="cls-3" d="M904.38,772.02c0,.31-27.62.55-61.65.55s-61.65-.24-61.65-.55,27.6-.53,61.65-.53,61.65.24,61.65.53Z"/>
    <path class="cls-5" d="M792.28,784.95v48.87h-8.17v5.31h8.17v32.66h152.53v-29.72h-11.31v-6.45h11.31v-9.74h5.02v-4.41h-5.96v-36.52h-151.59Z"/>
    <polygon class="cls-3" points="904.3 785.09 904.3 871.28 944.82 871.28 944.82 841.51 933.51 841.51 933.51 835.57 944.82 835.78 944.82 826.06 949.92 826.06 949.82 821.04 943.86 820.89 943.86 784.95 904.3 785.09"/>
    <path class="cls-3" d="M907.19,838.41c0,.31-27.6.55-61.65.55s-61.63-.24-61.63-.55,27.58-.53,61.63-.53,61.65.25,61.65.53Z"/>
    <path class="cls-3" d="M907.19,833.45c0,.31-27.6.55-61.65.55s-61.63-.24-61.63-.55,27.58-.53,61.63-.53,61.65.24,61.65.53Z"/>
    <path class="cls-3" d="M915.11,820.1c0,.29-27.6.53-61.65.53s-61.59-.24-61.59-.53,27.58-.55,61.63-.55,61.61.24,61.61.55Z"/>
    <path class="cls-3" d="M915.87,856.5c0,.31-27.6.55-61.63.55s-61.65-.24-61.65-.55,27.6-.53,61.65-.53,61.63.24,61.63.53Z"/>
    <path class="cls-5" d="M778.91,868.28v48.87h-8.17v5.31h8.17v32.66h152.53v-29.68h-11.31v-6.47h11.31v-9.86h5.02v-4.41h-5.96v-36.42h-151.59Z"/>
    <polygon class="cls-3" points="890.92 868.42 890.92 954.6 931.45 954.6 931.45 924.84 920.14 924.84 920.14 918.92 931.45 919.11 931.45 909.39 936.55 909.39 936.47 904.37 930.51 904.22 930.51 868.28 890.92 868.42"/>
    <path class="cls-3" d="M893.82,921.76c0,.29-27.6.53-61.63.53s-61.65-.24-61.65-.53,27.6-.55,61.65-.55,61.63.24,61.63.55Z"/>
    <path class="cls-3" d="M893.82,916.78c0,.31-27.6.55-61.63.55s-61.65-.24-61.65-.55,27.6-.53,61.65-.53,61.63.24,61.63.53Z"/>
    <path class="cls-3" d="M901.74,903.43c0,.31-27.6.53-61.65.53s-61.63-.22-61.63-.53,27.58-.55,61.63-.55,61.65.24,61.65.55Z"/>
    <path class="cls-3" d="M902.5,939.83c0,.31-27.6.55-61.63.55s-61.65-.24-61.65-.55,27.6-.53,61.65-.53,61.63.25,61.63.53Z"/>
    <path class="cls-5" d="M806.7,625.51v48.83h-8.17v5.31h8.17v32.66h152.57v-29.68h-11.29v-6.49h11.29v-9.72h5.02v-4.33h-5.96v-36.58h-151.63Z"/>
    <polygon class="cls-3" points="918.71 625.64 918.71 711.84 959.21 711.84 959.21 682.08 947.92 682.08 947.92 676.14 959.21 676.34 959.21 666.63 964.33 666.63 964.23 661.61 958.27 661.46 958.27 625.51 918.71 625.64"/>
    <path class="cls-3" d="M921.61,678.98c0,.31-27.6.55-61.65.55s-61.65-.24-61.65-.55,27.6-.53,61.65-.53,61.65.25,61.65.53Z"/>
    <path class="cls-3" d="M921.61,674.02c0,.31-27.6.55-61.65.55s-61.65-.24-61.65-.55,27.6-.53,61.65-.53,61.65.22,61.65.53Z"/>
    <path class="cls-3" d="M929.53,660.67c0,.29-27.62.53-61.65.53s-61.65-.24-61.65-.53,27.6-.55,61.65-.55,61.65.24,61.65.55Z"/>
    <path class="cls-3" d="M930.28,697.06c0,.31-27.6.55-61.65.55s-61.65-.24-61.65-.55,27.6-.53,61.65-.53,61.65.27,61.65.53Z"/>
    <path class="cls-5" d="M300.13,785.48v48.87h-8.17v5.35h8.17v32.66h152.53v-29.76h-11.31v-6.49h11.31v-9.72h5.02v-4.43h-5.96v-36.48h-151.59Z"/>
    <polygon class="cls-3" points="412.14 785.6 412.14 871.81 452.64 871.81 452.64 842.04 441.35 842.04 441.35 836.1 452.64 836.31 452.64 826.59 457.76 826.59 457.66 821.57 451.7 821.43 451.7 785.46 412.14 785.6"/>
    <path class="cls-3" d="M415.04,838.94c0,.31-27.6.55-61.65.55s-61.63-.24-61.63-.55,27.58-.53,61.63-.53,61.65.24,61.65.53Z"/>
    <path class="cls-3" d="M415.04,833.98c0,.31-27.6.55-61.65.55s-61.65-.24-61.65-.55,27.58-.55,61.63-.55,61.67.24,61.67.55Z"/>
    <path class="cls-3" d="M422.96,820.61c0,.31-27.6.55-61.65.55s-61.65-.24-61.65-.55,27.6-.53,61.65-.53,61.65.25,61.65.53Z"/>
    <path class="cls-3" d="M423.71,857.03c0,.31-27.6.55-61.63.55s-61.65-.24-61.65-.55,27.6-.53,61.65-.53,61.63.22,61.63.53Z"/>
    <path class="cls-5" d="M311.64,869.95v48.87h-8.17v5.31h8.17v32.66h152.51v-29.72h-11.29v-6.49h11.29v-9.72h5.02v-4.43h-5.96v-36.48h-151.57Z"/>
    <polygon class="cls-3" points="423.65 870.07 423.65 956.28 464.15 956.28 464.15 926.52 452.86 926.52 452.86 920.58 464.15 920.78 464.15 911.06 469.28 911.06 469.18 906.04 463.21 905.9 463.21 869.93 423.65 870.07"/>
    <path class="cls-3" d="M426.47,923.39c0,.31-27.6.55-61.65.55s-61.65-.24-61.65-.55,27.6-.53,61.65-.53,61.65.27,61.65.53Z"/>
    <path class="cls-3" d="M426.47,918.45c0,.31-27.6.55-61.65.55s-61.65-.24-61.65-.55,27.6-.55,61.65-.55,61.65.24,61.65.55Z"/>
    <path class="cls-3" d="M434.45,905.02c0,.31-27.6.55-61.63.55s-61.65-.24-61.65-.55,27.6-.53,61.65-.53,61.63.31,61.63.53Z"/>
    <path class="cls-3" d="M435.23,941.5c0,.31-27.6.55-61.65.55s-61.65-.24-61.65-.55,27.6-.53,61.65-.53,61.65.22,61.65.53Z"/>
    <path class="cls-5" d="M326.03,710.5v48.99h-8.17v5.29h8.17v32.66h152.53v-29.8h-11.27v-6.49h11.29v-9.72h5.04v-4.43h-5.96v-36.5h-151.63Z"/>
    <polygon class="cls-3" points="438.04 710.64 438.04 796.85 478.57 796.85 478.57 767.08 467.26 767.08 467.26 761.14 478.57 761.35 478.57 751.61 483.67 751.63 483.59 746.61 477.63 746.45 477.63 710.5 438.04 710.64"/>
    <path class="cls-3" d="M440.94,763.98c0,.31-27.6.55-61.63.55s-61.65-.24-61.65-.55,27.6-.53,61.65-.53,61.63.22,61.63.53Z"/>
    <path class="cls-3" d="M440.94,759.02c0,.31-27.6.53-61.63.53s-61.65-.22-61.65-.53,27.6-.55,61.65-.55,61.63.24,61.63.55Z"/>
    <path class="cls-3" d="M448.92,745.65c0,.31-27.6.55-61.63.55s-61.65-.24-61.65-.55,27.6-.53,61.65-.53,61.63.25,61.63.53Z"/>
    <path class="cls-3" d="M449.62,782.07c0,.31-27.6.53-61.63.53s-61.65-.22-61.65-.53,27.6-.55,61.65-.55,61.63.24,61.63.55Z"/>
    <path class="cls-5" d="M550.79,870.09v47.36h-7.96v5.14h7.9v31.7h147.84v-28.87h-10.8v-6.29h10.96v-9.43h4.86v-4.27h-5.78v-35.36h-147.02Z"/>
    <polygon class="cls-3" points="659.35 870.21 659.35 953.77 698.61 953.77 698.61 924.92 687.66 924.92 687.66 919.17 698.61 919.35 698.61 909.94 703.57 909.94 703.48 905.06 697.69 904.92 697.69 870.09 659.35 870.21"/>
    <path class="cls-3" d="M662.17,921.92c0,.29-26.76.51-59.75.51s-59.75-.22-59.75-.51,26.7-.57,59.75-.57,59.75.27,59.75.57Z"/>
    <path class="cls-3" d="M662.17,917.1c0,.29-26.76.53-59.75.53s-59.75-.24-59.75-.53,26.74-.53,59.75-.53,59.75.24,59.75.53Z"/>
    <path class="cls-3" d="M669.82,904.16c0,.29-26.74.51-59.73.51s-59.75-.22-59.75-.51,26.74-.53,59.75-.53,59.73.22,59.73.53Z"/>
    <path class="cls-3" d="M670.58,939.44c0,.29-26.76.53-59.75.53s-59.83-.24-59.83-.53,26.76-.53,59.75-.53,59.83.25,59.83.53Z"/>
    <path class="cls-5" d="M69.39,870.09v47.36h-7.92v5.14h7.92v31.7h147.82v-28.87h-10.94v-6.29h10.94v-9.43h4.88v-4.27h-5.88v-35.36H69.39Z"/>
    <polygon class="cls-3" points="177.95 870.21 177.95 953.77 217.21 953.77 217.21 924.92 206.25 924.92 206.25 919.17 217.21 919.35 217.21 909.94 222.17 909.94 222.07 905.06 216.29 904.92 216.29 870.09 177.95 870.21"/>
    <path class="cls-3" d="M180.75,921.92c0,.29-26.74.51-59.73.51s-59.75-.22-59.75-.51,26.74-.57,59.75-.57,59.73.27,59.73.57Z"/>
    <path class="cls-3" d="M180.75,917.1c0,.29-26.74.53-59.73.53s-59.75-.24-59.75-.53,26.74-.53,59.75-.53,59.73.24,59.73.53Z"/>
    <path class="cls-3" d="M188.42,904.16c0,.29-26.74.51-59.73.51s-59.75-.22-59.75-.51,26.74-.53,59.75-.53,59.73.22,59.73.53Z"/>
    <path class="cls-3" d="M189.16,939.44c0,.29-26.74.53-59.73.53s-59.75-.24-59.75-.53,26.74-.53,59.75-.53,59.73.25,59.73.53Z"/>
  </g>
  <g id="freepik--Floor--inject-2">
    <path class="cls-9" d="M950.33,954.93c0,.31-203.48.53-454.43.53s-454.47-.22-454.47-.53,203.42-.53,454.47-.53,454.43.24,454.43.53Z"/>
  </g>
  <g id="freepik--Plant--inject-2">
    <path class="cls-4" d="M819.48,561.9c-20.41,10.59-36.19,28.87-47.48,48.99-11.29,20.13-18.58,42.17-25.78,64.1l-6.31,112.99c23.82-40.54,42.87-88.21,48.12-134.94l-15.84-1.43c10.62-1.61,19.56-9.33,25.23-18.37,5.68-9.04,8.59-19.66,11.45-30.03l-19.35,2.86c15.3-10.32,26.03-26.15,29.97-44.18Z"/>
    <g class="cls-14">
      <path class="cls-2" d="M819.48,561.9c-20.41,10.59-36.19,28.87-47.48,48.99-11.29,20.13-18.58,42.17-25.78,64.1l-6.31,112.99c23.82-40.54,42.87-88.21,48.12-134.94l-15.84-1.43c10.62-1.61,19.56-9.33,25.23-18.37,5.68-9.04,8.59-19.66,11.45-30.03l-19.35,2.86c15.3-10.32,26.03-26.15,29.97-44.18Z"/>
    </g>
    <path class="cls-4" d="M736.37,814.44s-51.73-61.92-51.03-121.01h20.8s-22.7-14.92-20.9-23.29,2.41-39.99,2.41-39.99l19.09,4.78s-14.29-7.17-16.11-18.52,4.18-63.87,4.18-63.87c0,0,23.27,24.5,30.44,49.56,7.17,25.07,25.97,54.32,20.41,130.65s-9.29,81.7-9.29,81.7Z"/>
    <path class="cls-4" d="M762.6,820.28s56.04-37.34,68.49-84.98l-16.76-4.57s21.52-7.02,21.88-14.15,6.84-32.66,6.84-32.66l-16.33-.33s13.09-2.63,17-11.35c3.92-8.72,10.62-52.28,10.62-52.28,0,0-24.07,14.6-35.32,33.17-11.25,18.58-32.76,38.01-45.03,100.64s-11.39,66.51-11.39,66.51Z"/>
    <path class="cls-9" d="M708.94,606.53c.09.2.15.41.18.63.12.49.27,1.1.45,1.9.41,1.76.96,4.21,1.65,7.35.71,3.18,1.55,7.1,2.47,11.66.92,4.55,2.04,9.72,3.04,15.47,2.23,11.47,4.57,25.21,6.98,40.48,2.41,15.27,4.65,32.11,6.72,49.83s3.61,34.7,4.82,50.05c1.2,15.35,2.04,29.31,2.45,40.99.29,5.84.43,11.13.57,15.78s.22,8.64.27,11.9c.04,3.27,0,5.74,0,7.53v2.04c.02.22.02.45,0,.67-.02-.22-.02-.44,0-.65v-2.04c0-1.8-.14-4.31-.27-7.53-.12-3.23-.22-7.25-.43-11.88-.2-4.63-.39-9.92-.73-15.76-.55-11.68-1.47-25.56-2.67-40.95s-2.86-32.32-4.88-50.01c-2.02-17.7-4.37-34.54-6.65-49.81s-4.61-28.99-6.74-40.48c-1-5.76-2.04-10.94-2.9-15.49-.86-4.55-1.61-8.49-2.29-11.7s-1.1-5.63-1.45-7.39c-.14-.8-.27-1.43-.35-1.92-.12-.21-.2-.44-.24-.67Z"/>
    <path class="cls-4" d="M729.21,852.35s-47.34-53.71-62.04-86.15l11.11-4.74c-8.04,1.33-16.33-2.04-22.46-7.37s-10.82-12.25-15.31-18.96l14.62-2.47c-13.43-3.83-24.88-12.69-31.95-24.74,17.25,2.84,32.87,12.25,45.73,24.17,10.19,9.8,19.44,20.54,27.62,32.07,4.15,5.53,7.75,11.45,10.76,17.68,7.96,16.41,21.94,50.77,21.92,70.51Z"/>
    <path class="cls-9" d="M831.83,651.22c-.05.18-.12.36-.2.53-.2.41-.43.94-.73,1.57l-2.88,5.96c-2.53,5.16-6.12,12.66-10.45,21.97-8.72,18.62-20.17,44.6-31.5,73.84-11.33,29.23-20.29,56.18-26.37,75.82-3.04,9.8-5.43,17.78-7.02,23.29-.82,2.69-1.43,4.82-1.9,6.35l-.51,1.63c-.05.19-.12.38-.2.55.01-.19.04-.39.1-.57.1-.45.24-.98.41-1.67.41-1.53.98-3.67,1.69-6.41,1.47-5.55,3.76-13.55,6.72-23.39,5.9-19.7,14.8-46.71,26.11-75.98,11.31-29.27,22.9-55.22,31.78-73.76,4.45-9.29,8.17-16.74,10.78-21.84l3.06-5.88c.33-.61.59-1.12.82-1.51s.29-.51.31-.49Z"/>
    <path class="cls-9" d="M733.21,875.36c-.1-.32-.18-.65-.22-.98-.12-.78-.29-1.71-.47-2.86-.37-2.47-1-6.12-1.86-10.43-.86-4.31-2.04-9.59-3.63-15.29s-3.57-11.9-5.96-18.37-5.04-12.25-7.61-17.68-5.12-10-7.39-13.86-4.08-6.96-5.49-9.06l-1.53-2.45c-.2-.28-.36-.58-.49-.9,0,0,.27.24.65.78l1.69,2.33c1.49,2.04,3.47,5.08,5.82,8.92,2.35,3.84,4.94,8.51,7.61,13.82,2.67,5.31,5.29,11.31,7.74,17.72s4.35,12.68,5.9,18.37c1.55,5.7,2.67,10.98,3.43,15.41.76,4.43,1.29,8.02,1.53,10.51.1,1.16.2,2.04.27,2.88.08.38.09.76.02,1.14Z"/>
    <rect class="cls-6" x="692.07" y="862.72" width="103.6" height="21.13"/>
    <polygon class="cls-6" points="701.93 883.85 713.14 954.93 775.75 954.93 786.2 883.85 701.93 883.85"/>
    <path class="cls-9" d="M789.32,883.85c0,.31-19.6.53-43.77.53s-43.77-.22-43.77-.53,19.58-.53,43.77-.53,43.77.24,43.77.53Z"/>
  </g>
  <g id="freepik--Levels--inject-2">
    <path class="cls-3" d="M847.44,444.38h-174.35c0-87.78-71.84-161.27-159.6-161.27s-159.43,73.49-159.43,161.27h-174.6c0-184.13,149.82-336.07,333.95-336.07s334.03,151.94,334.03,336.07Z"/>
    <path class="cls-6" d="M513.6,130.05c-33.48-.03-66.75,5.32-98.54,15.84l42.87,133.12c37.75-12.7,78.71-12.13,116.09,1.63l44.48-132.57c-33.68-11.96-69.16-18.05-104.91-18.03Z"/>
    <path class="cls-6" d="M827.93,444.38c.06-62.04-18.34-122.69-52.85-174.23l-112.28,83.9c16.55,27.23,25.29,58.49,25.25,90.35l139.88-.02Z"/>
    <path class="cls-6" d="M199.24,444.38h139.83c-.03-32.09,8.84-63.57,25.62-90.92l-111.15-85.47c-35.44,51.99-54.37,113.47-54.3,176.4Z"/>
    <path class="cls-6" d="M253.54,267.99l111.15,85.47c21.42-34.93,54.38-61.26,93.17-74.45l-42.87-133.12c-65.76,21.88-122.49,64.78-161.45,122.09Z"/>
    <path class="cls-6" d="M618.5,148.08l-44.54,132.57c37.06,13.79,68.38,39.68,88.88,73.49l112.28-83.9c-37.71-56.5-92.63-99.34-156.61-122.16Z"/>
    <g class="cls-13">
      <path class="cls-12" d="M199.24,444.38h139.83c-.03-32.09,8.84-63.57,25.62-90.92l-111.15-85.47c-35.44,51.99-54.37,113.47-54.3,176.4Z"/>
    </g>
    <g class="cls-14">
      <path class="cls-12" d="M253.54,267.99l111.15,85.47c21.42-34.93,54.38-61.26,93.17-74.45l-42.87-133.12c-65.76,21.88-122.49,64.78-161.45,122.09Z"/>
    </g>
    <g class="cls-14">
      <path class="cls-2" d="M618.5,148.08l-44.54,132.57c37.06,13.79,68.38,39.68,88.88,73.49l112.28-83.9c-37.71-56.5-92.63-99.34-156.61-122.16Z"/>
    </g>
    <g class="cls-13">
      <path class="cls-2" d="M827.93,444.38c.06-62.04-18.34-122.69-52.85-174.23l-112.28,83.9c16.55,27.23,25.29,58.49,25.25,90.35l139.88-.02Z"/>
    </g>
    <path class="cls-9" d="M775.08,270.15s2.39,3.53,6.78,10.47c6.32,10.29,12.05,20.93,17.17,31.87,1.63,3.61,3.43,7.39,5.06,11.49l2.59,6.25c.82,2.18,1.63,4.39,2.47,6.68,1.78,4.51,3.23,9.37,4.92,14.29.76,2.53,1.51,5.1,2.27,7.74l1.16,4.08c.33,1.37.67,2.74,1.02,4.08,3.06,11.84,5.38,23.86,6.94,35.99,1.82,13.69,2.76,27.49,2.8,41.3v.33h-140.49v-.41c.01-39.69-13.6-78.19-38.56-109.05-13.54-16.73-30.02-30.86-48.63-41.68-9.68-5.54-19.84-10.18-30.38-13.84-33.26-11.45-69.22-12.52-103.11-3.06-23.57,6.59-45.48,18.09-64.3,33.72-39.97,32.98-63.12,82.09-63.1,133.91v.53h-140.86v-.53c-.06-81.83,31.87-160.44,88.96-219.06,8.72-9.01,17.98-17.48,27.72-25.37,9.53-7.68,19.46-14.85,29.76-21.45,19.86-12.57,41.07-22.88,63.22-30.74,20.8-7.45,42.35-12.62,64.26-15.43,71.9-9.46,144.86,6.35,206.38,44.75,11.24,6.95,22.02,14.64,32.25,23.01,8.6,6.99,16.83,14.43,24.66,22.27,7,7.12,12.94,13.68,17.88,19.56l6.7,8.17,5.29,7c1.59,2.04,2.92,3.94,4.08,5.59l2.82,4.08c1.53,2.2,2.29,3.35,2.29,3.35,0,0-.82-1.1-2.37-3.29l-2.86-4.08c-1.14-1.63-2.47-3.51-4.08-5.55-15.76-21.15-34.13-40.23-54.67-56.79-10.24-8.33-21.01-15.98-32.25-22.9-61.48-38.15-134.28-53.79-206-44.28-21.85,2.84-43.34,8.02-64.08,15.45-22.08,7.83-43.22,18.1-63.02,30.62-10.24,6.64-20.11,13.84-29.56,21.56-9.71,7.88-18.94,16.33-27.64,25.31-56.96,58.43-88.8,136.83-88.72,218.43l-.53-.51h139.83l-.53.53c0-52.14,23.29-101.55,63.51-134.73,9.5-7.93,19.84-14.81,30.82-20.52,10.78-5.64,22.13-10.14,33.85-13.41,34.09-9.48,70.25-8.38,103.7,3.14,10.62,3.68,20.87,8.35,30.62,13.94,18.7,10.89,35.25,25.1,48.85,41.93,25.07,31.03,38.73,69.73,38.68,109.62l-.41-.39h139.83l-.33.31c0-13.78-.91-27.55-2.72-41.22-1.54-12.11-3.83-24.11-6.86-35.93-.33-1.39-.67-2.76-1-4.08-.33-1.33-.78-2.67-1.14-3.98-.78-2.63-1.51-5.23-2.25-7.76-1.69-4.98-3.12-9.84-4.88-14.29l-2.45-6.68-2.57-6.25c-1.61-4.08-3.41-7.88-5.02-11.49-5.16-10.99-10.91-21.69-17.23-32.05-2.04-3.49-3.86-6.12-4.96-7.88l-1.63-2.65Z"/>
    <path class="cls-12" d="M219.45,408.17l1.27-5.16,18.15,4.47,2.76-11.23,4.21,1.04-4.08,16.33-22.29-5.45Z"/>
    <path class="cls-12" d="M246.71,390.29c-1.49,1.49-3.36,2.54-5.41,3.04-4.25.94-8.68-.45-11.64-3.65-1.4-1.57-2.34-3.5-2.72-5.57-.73-4.46.69-9,3.84-12.25,4.76-4.55,12.31-4.37,16.86.39.07.07.14.15.21.23,1.39,1.58,2.33,3.51,2.72,5.57.41,2.21.25,4.48-.45,6.61-.64,2.14-1.81,4.08-3.41,5.63ZM245.99,379.43c-.26-1.22-.86-2.34-1.74-3.23-1.9-1.91-4.62-2.77-7.27-2.29-1.23.24-2.36.83-3.27,1.69-1.89,1.81-2.72,4.46-2.2,7.02.26,1.22.86,2.35,1.74,3.25,1.9,1.91,4.62,2.76,7.27,2.27,1.23-.23,2.36-.81,3.27-1.67,1.88-1.82,2.71-4.47,2.2-7.04Z"/>
    <path class="cls-12" d="M245.99,328.88l18.52,15.62-2.04,5.31-16.33-1.16,12.49,10.7-2.14,5.29-24.17-1.63,2.04-5.12,16.94,1.27-12.96-11.11,1.84-4.57,17.11,1.25-13.11-11.08,1.82-4.74Z"/>
    <path class="cls-12" d="M461.17,178.55l-2.92-13.49-4.25,12.55-2.35.49-8.86-9.41,2.84,13.21-4.88,1.04-4.84-22.46,4.31-.92,11.43,12.25,5.29-15.76,4.29-.92,4.9,22.46-4.96.96Z"/>
    <path class="cls-12" d="M488.1,170.57l.51,4.25-17.7,2.04-2.72-22.86,17.27-2.04.51,4.25-12.02,1.43.59,4.96,10.62-1.27.49,4.08-10.62,1.27.63,5.49,12.43-1.59Z"/>
    <path class="cls-12" d="M491.47,151.49l10.45-.43c2.29-.14,4.57.26,6.68,1.16,1.88.8,3.49,2.14,4.63,3.84,2.28,3.66,2.47,8.25.49,12.08-.99,1.79-2.48,3.26-4.29,4.23-2.03,1.06-4.28,1.64-6.57,1.69l-10.45.41-.94-22.99ZM502.41,169.69c2.02.02,3.97-.75,5.43-2.14,1.35-1.41,2.03-3.34,1.86-5.29,0-1.95-.82-3.81-2.27-5.12-1.57-1.27-3.58-1.88-5.59-1.69l-4.86.18.57,14.29,4.86-.22Z"/>
    <path class="cls-12" d="M519.7,150.73l5.33.12-.57,23.01h-5.31l.55-23.13Z"/>
    <path class="cls-12" d="M532.46,171.72c-1.78-2.25-2.57-5.13-2.18-7.98l.94-12.86,5.31.39-.92,12.66c-.31,4.08,1.27,6.31,4.67,6.55,1.42.2,2.85-.25,3.9-1.22,1.09-1.27,1.68-2.9,1.65-4.57l.92-12.66,5.25.37-.92,12.86c-.02,2.87-1.22,5.61-3.31,7.57-4.73,3.27-11.1,2.81-15.31-1.1Z"/>
    <path class="cls-12" d="M575.69,179.31l2.29-13.62-8.61,10.06-2.37-.41-4.78-12.06-2.27,13.33-4.88-.84,3.9-22.7,4.27.71,6.12,15.56,10.78-12.68,4.31.73-3.82,22.7-4.94-.8Z"/>
    <path class="cls-12" d="M790.26,351.34l-21.41,8.45-2.04-4.96,8.8-3.47-3.76-9.76-8.8,3.45-1.94-4.94,21.41-8.45,2.04,4.96-8.45,3.33,3.84,9.72,8.43-3.33,1.88,5Z"/>
    <path class="cls-12" d="M792.24,357.3l1.71,5.04-21.8,7.41-1.71-5.04,21.8-7.41Z"/>
    <path class="cls-12" d="M789.63,386.31l1.35,4.67-8.96,2.61c-1.3-.99-2.42-2.2-3.31-3.57-.9-1.41-1.59-2.94-2.04-4.55-.66-2.14-.77-4.42-.33-6.61.41-2.06,1.39-3.96,2.82-5.49,3.05-3.15,7.54-4.46,11.8-3.43,2.03.55,3.88,1.64,5.33,3.16,1.56,1.65,2.69,3.65,3.29,5.84.51,1.8.67,3.68.47,5.53-.19,1.71-.77,3.35-1.69,4.8l-3.98-2.41c1.18-1.93,1.49-4.27.84-6.43-.38-1.32-1.08-2.53-2.04-3.51-.88-.91-2.01-1.54-3.25-1.82-1.31-.31-2.68-.26-3.96.14-1.29.37-2.46,1.08-3.39,2.04-.88.9-1.5,2.03-1.78,3.27-.28,1.32-.22,2.69.18,3.98.36,1.38,1.06,2.66,2.04,3.69l6.61-1.92Z"/>
    <path class="cls-12" d="M807.72,414.42l-22.46,4.9-1.14-5.21,9.23-2.04-2.23-10.21-9.23,2.04-1.14-5.21,22.46-4.92,1.14,5.21-8.88,1.94,2.25,10.21,8.86-1.94,1.14,5.23Z"/>
    <path class="cls-12" d="M219.45,408.17l1.27-5.16,18.15,4.47,2.76-11.23,4.21,1.04-4.08,16.33-22.29-5.45Z"/>
    <path class="cls-12" d="M246.71,390.29c-1.49,1.49-3.36,2.54-5.41,3.04-4.25.94-8.68-.45-11.64-3.65-1.4-1.57-2.34-3.5-2.72-5.57-.73-4.46.69-9,3.84-12.25,4.76-4.55,12.31-4.37,16.86.39.07.07.14.15.21.23,1.39,1.58,2.33,3.51,2.72,5.57.41,2.21.25,4.48-.45,6.61-.64,2.14-1.81,4.08-3.41,5.63ZM245.99,379.43c-.26-1.22-.86-2.34-1.74-3.23-1.9-1.91-4.62-2.77-7.27-2.29-1.23.24-2.36.83-3.27,1.69-1.89,1.81-2.72,4.46-2.2,7.02.26,1.22.86,2.35,1.74,3.25,1.9,1.91,4.62,2.76,7.27,2.27,1.23-.23,2.36-.81,3.27-1.67,1.88-1.82,2.71-4.47,2.2-7.04Z"/>
    <path class="cls-12" d="M245.99,328.88l18.52,15.62-2.04,5.31-16.33-1.16,12.49,10.7-2.14,5.29-24.17-1.63,2.04-5.12,16.94,1.27-12.96-11.11,1.84-4.57,17.11,1.25-13.11-11.08,1.82-4.74Z"/>
    <path class="cls-12" d="M461.17,178.55l-2.92-13.49-4.25,12.55-2.35.49-8.86-9.41,2.84,13.21-4.88,1.04-4.84-22.46,4.31-.92,11.43,12.25,5.29-15.76,4.29-.92,4.9,22.46-4.96.96Z"/>
    <path class="cls-12" d="M488.1,170.57l.51,4.25-17.7,2.04-2.72-22.86,17.27-2.04.51,4.25-12.02,1.43.59,4.96,10.62-1.27.49,4.08-10.62,1.27.63,5.49,12.43-1.59Z"/>
    <path class="cls-12" d="M491.47,151.49l10.45-.43c2.29-.14,4.57.26,6.68,1.16,1.88.8,3.49,2.14,4.63,3.84,2.28,3.66,2.47,8.25.49,12.08-.99,1.79-2.48,3.26-4.29,4.23-2.03,1.06-4.28,1.64-6.57,1.69l-10.45.41-.94-22.99ZM502.41,169.69c2.02.02,3.97-.75,5.43-2.14,1.35-1.41,2.03-3.34,1.86-5.29,0-1.95-.82-3.81-2.27-5.12-1.57-1.27-3.58-1.88-5.59-1.69l-4.86.18.57,14.29,4.86-.22Z"/>
    <path class="cls-12" d="M519.7,150.73l5.33.12-.57,23.01h-5.31l.55-23.13Z"/>
    <path class="cls-12" d="M532.46,171.72c-1.78-2.25-2.57-5.13-2.18-7.98l.94-12.86,5.31.39-.92,12.66c-.31,4.08,1.27,6.31,4.67,6.55,1.42.2,2.85-.25,3.9-1.22,1.09-1.27,1.68-2.9,1.65-4.57l.92-12.66,5.25.37-.92,12.86c-.02,2.87-1.22,5.61-3.31,7.57-4.73,3.27-11.1,2.81-15.31-1.1Z"/>
    <path class="cls-12" d="M575.69,179.31l2.29-13.62-8.61,10.06-2.37-.41-4.78-12.06-2.27,13.33-4.88-.84,3.9-22.7,4.27.71,6.12,15.56,10.78-12.68,4.31.73-3.82,22.7-4.94-.8Z"/>
    <path class="cls-12" d="M790.26,351.34l-21.41,8.45-2.04-4.96,8.8-3.47-3.76-9.76-8.8,3.45-1.94-4.94,21.41-8.45,2.04,4.96-8.45,3.33,3.84,9.72,8.43-3.33,1.88,5Z"/>
    <path class="cls-12" d="M792.24,357.3l1.71,5.04-21.8,7.41-1.71-5.04,21.8-7.41Z"/>
    <path class="cls-12" d="M789.63,386.31l1.35,4.67-8.96,2.61c-1.3-.99-2.42-2.2-3.31-3.57-.9-1.41-1.59-2.94-2.04-4.55-.66-2.14-.77-4.42-.33-6.61.41-2.06,1.39-3.96,2.82-5.49,3.05-3.15,7.54-4.46,11.8-3.43,2.03.55,3.88,1.64,5.33,3.16,1.56,1.65,2.69,3.65,3.29,5.84.51,1.8.67,3.68.47,5.53-.19,1.71-.77,3.35-1.69,4.8l-3.98-2.41c1.18-1.93,1.49-4.27.84-6.43-.38-1.32-1.08-2.53-2.04-3.51-.88-.91-2.01-1.54-3.25-1.82-1.31-.31-2.68-.26-3.96.14-1.29.37-2.46,1.08-3.39,2.04-.88.9-1.5,2.03-1.78,3.27-.28,1.32-.22,2.69.18,3.98.36,1.38,1.06,2.66,2.04,3.69l6.61-1.92Z"/>
    <path class="cls-12" d="M807.72,414.42l-22.46,4.9-1.14-5.21,9.23-2.04-2.23-10.21-9.23,2.04-1.14-5.21,22.46-4.92,1.14,5.21-8.88,1.94,2.25,10.21,8.86-1.94,1.14,5.23Z"/>
  </g>
  <g id="freepik--Character--inject-2">
    <circle class="cls-9" cx="548.24" cy="404.42" r="31.56" transform="translate(28 844.28) rotate(-76.63)"/>
    <path class="cls-9" d="M300.33,321.19h0c-1.49,4.12.64,8.68,4.77,10.17.04.01.07.03.11.04l243.05,90.78,13.41-31.89-251.56-73.84c-4-1.25-8.28.83-9.78,4.74Z"/>
    <circle class="cls-9" cx="548.24" cy="404.42" r="31.56" transform="translate(28 844.28) rotate(-76.63)"/>
    <path class="cls-9" d="M300.33,321.19h0c-1.49,4.12.64,8.68,4.77,10.17.04.01.07.03.11.04l243.05,90.78,13.41-31.89-251.56-73.84c-4-1.25-8.28.83-9.78,4.74Z"/>
    <path class="cls-11" d="M493.39,398.41c-.07-1.21-.07-2.42,0-3.63,0-.65.12-1.29.18-1.92-.12,1.1,0-.39.14-.76.23-1.2.52-2.38.88-3.55.18-.61.39-1.22.61-1.82l.31-.8c.35-.92-.2.37,0-.16,1.01-2.21,2.23-4.32,3.63-6.31,0,0,.63-.8.24-.33s.2-.24.29-.33c.41-.49.82-.96,1.27-1.43.88-.94,1.82-1.82,2.8-2.65,1.98-2,1.98-5.22,0-7.23-2.02-1.91-5.18-1.91-7.21,0-8.92,7.74-13.86,19.1-13.43,30.91,0,2.82,2.28,5.1,5.1,5.1s5.1-2.28,5.1-5.1h.08Z"/>
    <path class="cls-9" d="M493.43,393.45c-1.67-.22-3.32-.52-4.96-.9-1.69-.03-3.37-.16-5.04-.37,1.59-.84,3.42-1.07,5.16-.67,1.79.04,3.51.73,4.84,1.94Z"/>
    <path class="cls-9" d="M495.88,385.18c-1.52-.71-3.01-1.5-4.45-2.37-2.47-1.18-4.7-1.59-4.65-1.9,1.76-.32,3.57.02,5.1.94,2.74,1.25,4.27,3.16,4,3.33Z"/>
    <path class="cls-9" d="M499.63,379.24c-.27.14-1.45-1.78-3.45-3.65-2-1.88-3.94-3.02-3.82-3.31,1.77.26,3.39,1.16,4.55,2.53,2.14,2.04,3.04,4.33,2.72,4.43Z"/>
    <path class="cls-11" d="M460.36,386.63c-.07-1.21-.07-2.42,0-3.63,0-.65.12-1.29.18-1.92-.12,1.1,0-.39.14-.76.23-1.19.52-2.37.88-3.53.18-.63.39-1.22.61-1.84l.31-.8c.35-.92-.2.39,0-.16,1.01-2.21,2.23-4.31,3.63-6.29,0,0,.63-.82.24-.35s.2-.24.29-.33c.41-.49.84-.96,1.27-1.43.88-.94,1.82-1.82,2.8-2.65,1.99-1.99,1.99-5.21,0-7.21-2.01-1.93-5.19-1.93-7.21,0-8.92,7.73-13.86,19.09-13.43,30.89,0,2.82,2.28,5.1,5.1,5.1s5.1-2.28,5.1-5.1h.08Z"/>
    <path class="cls-9" d="M460.4,381.67c-1.67-.22-3.32-.52-4.96-.9-1.69-.03-3.37-.16-5.04-.37,3.33-1.35,7.12-.87,10,1.27Z"/>
    <path class="cls-9" d="M462.91,373.4c-1.52-.71-3.01-1.5-4.45-2.37-2.47-1.18-4.7-1.59-4.65-1.9,1.76-.32,3.57.02,5.1.94,2.67,1.25,4.31,3.16,4,3.33Z"/>
    <path class="cls-9" d="M466.6,367.46c-.27.14-1.47-1.78-3.45-3.65-1.98-1.88-3.94-3.02-3.82-3.31,1.77.28,3.38,1.18,4.55,2.53,2.14,2.04,2.98,4.33,2.72,4.43Z"/>
    <path class="cls-11" d="M506.45,403.07c-.07-1.21-.07-2.42,0-3.63,0-.65.12-1.29.18-1.92-.12,1.1,0-.39.14-.76.23-1.19.52-2.37.88-3.53.19-.61.39-1.22.61-1.84l.31-.8c.35-.92-.2.39,0-.16,1.01-2.2,2.23-4.31,3.63-6.29,0-.1.63-.82.24-.35s.2-.24.27-.31c.43-.51.84-.98,1.29-1.45.88-.94,1.82-1.82,2.8-2.65,1.99-1.99,1.99-5.21,0-7.21-2.02-1.93-5.21-1.93-7.23,0-8.91,7.74-13.84,19.09-13.41,30.89,0,2.82,2.28,5.1,5.1,5.1s5.1-2.28,5.1-5.1h.08Z"/>
    <path class="cls-9" d="M506.47,398.1c-1.67-.21-3.32-.51-4.96-.9-1.68-.03-3.36-.16-5.02-.37,1.59-.84,3.42-1.07,5.16-.67,1.79.04,3.5.73,4.82,1.94Z"/>
    <path class="cls-9" d="M509,389.86c-.22.2-2.04-1.25-4.45-2.39s-4.7-1.59-4.67-1.9c1.77-.32,3.59.02,5.12.94,2.67,1.25,4.21,3.16,4,3.35Z"/>
    <path class="cls-9" d="M512.7,383.92c-.27.12-1.47-1.8-3.45-3.67-1.98-1.88-3.94-3.02-3.82-3.31,1.77.28,3.38,1.18,4.55,2.53,2.23,2.04,2.98,4.33,2.72,4.45Z"/>
    <path class="cls-9" d="M208.47,921.51l21.01,29.05h0s-44.71,21.82-44.38,30.44l89.7-8.9-.86-9.23c-.27-2.8-1.08-5.53-2.39-8.02l-27.23-52.1-35.85,18.76Z"/>
    <path class="cls-4" d="M274.8,972.1l-.96-7.25-85.74,11.25s-3.82,2.14-3.08,4.9l89.78-8.9Z"/>
    <path class="cls-12" d="M228.99,950.6c0,.43,2.27.41,4.57,1.61s3.61,2.92,4.08,2.69-.51-2.67-3.33-4.08c-2.82-1.41-5.45-.61-5.33-.22Z"/>
    <path class="cls-12" d="M219.53,955.71c0,.43,1.92,1,3.59,2.69,1.67,1.69,2.29,3.61,2.72,3.55s.47-2.55-1.63-4.63c-2.1-2.08-4.7-2.04-4.67-1.61Z"/>
    <path class="cls-12" d="M215.35,967.89c.41,0,.82-2.18-.55-4.47-1.37-2.29-3.51-3.04-3.65-2.65s1.25,1.53,2.33,3.43c1.08,1.9,1.45,3.69,1.88,3.69Z"/>
    <path class="cls-12" d="M225.39,944.4c.35.27,1.88-1.18,4.08-2.04s4.39-1.12,4.43-1.57-2.35-1.02-5.04.16-3.82,3.23-3.47,3.45Z"/>
    <path class="cls-9" d="M482.14,873.68l36.38,44.09,38.79,26.54c2.66,1.82,3.35,5.45,1.54,8.11-.08.12-.16.23-.25.34h0c-1.17,1.49-2.99,2.32-4.88,2.23-12.08-.61-56.46-3.14-58.96-6.51-2.88-3.9-41.48-43.95-41.48-43.95l28.87-30.85Z"/>
    <path class="cls-4" d="M558.65,952.81l-66.37-7.21,1.59,1.84c1.37,1.58,3.26,2.63,5.33,2.96,5.53.84,20.86,2.88,54.42,4.76,1.96.1,3.84-.78,5.02-2.35Z"/>
    <path class="cls-12" d="M532.42,942.46c-.12-2.25.18-4.5.9-6.63,1.41-3.49,4.33-4.94,4.08-5.27s-.9,0-2.04.73c-2.97,2.06-4.49,5.64-3.9,9.21.35,1.27.84,2.02.96,1.96Z"/>
    <path class="cls-12" d="M540.5,945.6c.64-1.77,1.38-3.5,2.23-5.19,1.63-2.61,3.92-3.86,3.76-4.08s-2.94.55-4.82,3.51c-1.27,1.63-1.7,3.76-1.16,5.76Z"/>
    <path class="cls-12" d="M520.37,940.01c.39,0,.63-3.98,2.9-8.17,2.27-4.18,5.35-6.74,5.12-7.04s-3.88,1.9-6.25,6.47c-1.6,2.61-2.23,5.71-1.78,8.74Z"/>
    <path class="cls-12" d="M508.12,927.48c.35.16,1.88-2.9,4.88-5.7,3-2.8,6.12-4.18,5.98-4.53s-3.63.57-6.84,3.61c-2.07,1.67-3.49,4.01-4.02,6.61Z"/>
    <path class="cls-12" d="M497.08,914.86c1.35-2.26,3-4.32,4.92-6.12,3.35-2.76,7.04-3.14,6.98-3.51s-.96-.29-2.45,0c-1.95.4-3.78,1.27-5.33,2.53-1.56,1.25-2.8,2.85-3.61,4.67-.59,1.43-.65,2.39-.51,2.43Z"/>
    <path class="cls-12" d="M499.84,906.43s-.35-.71-1.35-1.69c-1.45-1.37-3.16-2.44-5.02-3.16-1.31-.63-2.8-.82-4.23-.53-.95.29-1.62,1.15-1.67,2.14.02.94.37,1.84,1,2.53,2.8,2.82,7.21,3.27,10.51,1.06,3.18-2.25,4.69-6.19,3.84-9.98-.22-.95-.84-1.75-1.69-2.2-.92-.38-1.99-.1-2.61.67-.87,1.15-1.41,2.51-1.57,3.94-.35,1.95-.35,3.95,0,5.9.07.72.28,1.41.63,2.04-.28-2.6-.19-5.23.29-7.8.2-1.24.7-2.4,1.45-3.41.34-.42.92-.57,1.43-.37.54.33.92.88,1.04,1.51.63,3.29-.72,6.65-3.45,8.59-2.78,1.87-6.49,1.55-8.92-.76-.45-.47-.73-1.08-.78-1.74,0-.55.37-1.04.9-1.2,1.22-.24,2.48-.1,3.61.39,2.42.96,4.65,2.34,6.59,4.06Z"/>
    <path class="cls-6" d="M183.67,700s-79.47,85.29-72.1,106.01c11.9,33.56,101.62,135.94,101.62,135.94l46.5-22.46-57.93-95.48-15.98-23.35,63.81-60.04,5.43-.55s122.48,78.92,123.67,78.27,94.48,112.11,94.48,112.11l43.81-27.48s-94.33-123.65-96.29-126.57c-1.96-2.92-109.74-84.76-109.74-84.76l-32.36-43.85-91.21,16.13-3.69,36.07Z"/>
    <path class="cls-9" d="M247.95,737.85c-.16.1-1.65-2.74-4.74-6.84-1.82-2.38-3.8-4.63-5.92-6.74-2.62-2.57-5.45-4.91-8.45-7.02-3.04-2.06-6.23-3.89-9.55-5.45-2.72-1.25-5.52-2.31-8.39-3.16-4.92-1.45-8.17-1.84-8.17-2.04.75-.05,1.51,0,2.25.14.88.08,1.75.21,2.61.41,1.02.2,2.18.39,3.41.76,2.95.77,5.83,1.77,8.61,3,6.87,3.03,13.1,7.33,18.37,12.68,2.13,2.17,4.07,4.51,5.82,7,.8,1.02,1.37,2.04,1.92,2.92.48.74.92,1.51,1.31,2.31.39.64.7,1.33.92,2.04Z"/>
    <path class="cls-9" d="M298.41,694.76c0,.22-3.25,1.16-8.04,3.84-2.79,1.59-5.45,3.39-7.96,5.39-3.05,2.51-5.92,5.24-8.57,8.17-4.76,5.33-8.87,11.21-12.25,17.52-2.61,4.84-3.84,8.02-4.08,7.96.15-.79.39-1.57.71-2.31.24-.73.61-1.61,1.06-2.61s.94-2.16,1.57-3.39c3.26-6.49,7.38-12.5,12.25-17.88,2.71-2.94,5.63-5.67,8.76-8.17,2.56-1.99,5.3-3.75,8.17-5.27,1.1-.6,2.23-1.13,3.39-1.59.87-.39,1.76-.72,2.67-.98.75-.3,1.53-.53,2.33-.67Z"/>
    <path class="cls-6" d="M203.43,499.91s9.29,1.33,23.78,10.21l55.95,34.7,47.5-43.83,21.94,19.96s-47.58,56.95-50.67,59.81c-11.7,10.47-22.64,4.65-22.64,4.65l-47.99-23.21-27.89-62.3Z"/>
    <path class="cls-6" d="M263.91,619.78l-59.44-119.95-41.93,5.08-12.9-4.31-44.91,12.25-1.53,23.17s-31.5,31.62-30.62,33.6h0l100.25,103.66s.63,38.93,1.14,37.93c10.21-19.52,32.4-8.98,63.28,1.9l2.94-46.44,21.66,40.62,54.5-28.58-52.44-58.93Z"/>
    <polygon class="cls-3" points="107.67 522.53 183.28 579.73 154.97 504.48 147.58 497.23 104.32 513.54 107.67 522.53"/>
    <path class="cls-10" d="M126.82,424.34c-10.5-15.61-31.24-20.52-47.63-11.29l-1.63.92c-17,10.9-17.23,31.42-5.86,48.09l34.54,56.63,42.38,6.8-1.02-28.23-2.04-4.9s15.41-12.13,6.12-29.11c-4.49-8.25-15.09-24.39-24.86-38.91Z"/>
    <path class="cls-1" d="M145.66,492.23c-7.84,4.41-16.78,6.48-25.76,5.96,0,0,11.7,10.04,27.7-.96l-1.94-5Z"/>
    <path class="cls-9" d="M130.31,442.06c.75,1.3.32,2.96-.96,3.74-1.21.81-2.84.49-3.65-.71-.01-.02-.03-.04-.04-.06-.77-1.29-.35-2.96.94-3.74,1.22-.82,2.87-.49,3.68.73.01.02.02.03.03.05Z"/>
    <path class="cls-9" d="M128.43,435.38c-.12.49-2.69.16-5.29,1.63-2.59,1.47-3.78,3.82-4.23,3.67s-.24-.82.24-1.88c.69-1.4,1.78-2.55,3.14-3.31,1.35-.77,2.91-1.08,4.45-.9,1.22.14,1.82.55,1.67.78Z"/>
    <path class="cls-9" d="M108.36,455.14c.74,1.3.31,2.95-.96,3.74-1.22.82-2.87.49-3.68-.73-.01-.02-.02-.03-.03-.05-.74-1.3-.31-2.95.96-3.74,1.22-.82,2.87-.49,3.68.73.01.02.02.03.03.05Z"/>
    <path class="cls-9" d="M103.46,448.98c-.12.49-2.72.16-5.31,1.63-2.59,1.47-3.76,3.82-4.21,3.65s-.24-.8.24-1.86c.69-1.41,1.79-2.57,3.16-3.33,1.35-.77,2.91-1.08,4.45-.9,1.12.16,1.71.57,1.65.8Z"/>
    <path class="cls-9" d="M122.81,463.41c1.13-1.19,2.41-2.24,3.8-3.12.61-.45,1.18-.94,1.04-1.45s-.8-1.12-1.55-1.71l-4.8-3.94c-6.76-5.65-12.04-10.45-11.82-10.74s5.9,4.08,12.66,9.76l4.74,4.08c.86.57,1.5,1.42,1.8,2.41.07.58-.13,1.16-.55,1.57-.31.31-.66.58-1.04.8-1.32.96-2.75,1.75-4.27,2.35Z"/>
    <path class="cls-9" d="M116.18,469.49c.41-.27,2.04,2.55,5.53,3.2,3.49.65,6.35-1.37,6.59-.98s-.37.92-1.61,1.67c-1.63.95-3.55,1.29-5.41.96-1.79-.31-3.4-1.3-4.47-2.78-.63-1.12-.82-1.98-.63-2.08Z"/>
    <path class="cls-9" d="M101.89,443.08c-.24.82-2.88.47-5.96.92s-5.57,1.43-5.98.71c-.18-.35.24-1.1,1.22-1.9,1.29-.98,2.82-1.61,4.43-1.82,1.59-.23,3.21-.03,4.7.57,1.14.49,1.74,1.12,1.59,1.51Z"/>
    <path class="cls-9" d="M123.9,428.6c0,.86-2.04,1.41-4.21,2.78s-3.51,2.92-4.31,2.59c-.37-.16-.47-.9,0-1.94.57-1.34,1.54-2.46,2.78-3.23,1.22-.78,2.64-1.17,4.08-1.12,1.04.1,1.67.51,1.65.92Z"/>
    <path class="cls-9" d="M185.32,585.26c-.39-.03-.77-.12-1.12-.27l-3.12-.98-11.45-3.82-37.66-12.96-10.72-3.76-.45-.14v-.47l3.23-13.86.49.57-15.76.59h-.27v-.24c-1.63-4.25-2.96-7.7-3.92-10.21-.41-1.1-.73-2.04-1.02-2.76-.12-.33-.22-.66-.29-1,.2.28.37.59.49.92.31.71.69,1.61,1.18,2.69,1.04,2.51,2.47,5.92,4.21,10.21l-.35-.22,15.76-.82h.61l-.12.61c-.98,4.33-2.04,8.98-3.14,13.9l-.35-.61,10.76,3.51,37.56,13.25,11.33,4.08,3.08,1.16c.36.18.71.38,1.04.61Z"/>
    <path class="cls-9" d="M240.34,666.59c-.21-.29-.38-.61-.51-.94l-1.29-2.76c-1.1-2.39-2.59-5.92-4.59-10.21-2.36-4.98-4.99-9.82-7.88-14.51-1.63-2.65-3.43-5.39-5.41-8.17-1.98-2.78-4.08-5.51-6.29-8.39-8.7-11.49-16.51-21.92-22.15-29.52l-6.63-8.98c-.71-.98-1.29-1.82-1.76-2.47-.23-.28-.42-.59-.55-.92.27.23.51.49.71.78l1.92,2.37c1.74,2.2,4.08,5.19,6.88,8.82,5.78,7.47,13.72,17.82,22.46,29.31,2.16,2.88,4.33,5.65,6.29,8.45,1.96,2.8,3.76,5.53,5.39,8.17,2.87,4.74,5.45,9.65,7.74,14.7,1.92,4.35,3.29,7.9,4.29,10.35l1.08,2.84c.16.34.26.71.31,1.08Z"/>
    <path class="cls-9" d="M308.58,682.71c-.25.19-.53.36-.82.49l-2.43,1.33-9.33,4.96-14.68,7.76-9.1,4.8-4.92,2.65-2.55,1.39-1.29.71-.65.37-.31.18h-.14s0-.76-.2-.63l-.51.61-21.76-40.5.96-.29c.73,9.8,1.51,20.21,2.31,30.93.41,5.33.8,10.57,1.16,15.7v.98l-.88-.47-4.59-2.59c-1.52-.9-3.08-1.7-4.7-2.41-3.09-1.48-6.29-2.75-9.55-3.8-3.14-1.06-6.34-1.89-9.59-2.51-1.59-.31-3.2-.41-4.78-.61-1.56-.21-3.13-.3-4.7-.29-11.25-.45-22.3,3.06-31.23,9.92l-.61.49v-.8c-.31-12.15-.53-22.03-.71-28.93,0-3.37,0-6-.12-7.86v-2.04c-.02-.23-.02-.46,0-.69.02.23.02.46,0,.69v2.04l.35,7.86c.24,6.9.61,16.78,1.04,28.93l-.63-.27c9.04-7.08,20.29-10.73,31.76-10.31,1.6-.02,3.19.07,4.78.27,1.59.2,3.23.31,4.86.61,3.3.62,6.55,1.46,9.74,2.51,3.3,1.07,6.53,2.34,9.68,3.82,1.65.65,3.14,1.61,4.74,2.43l4.74,2.59-.8.49c-.39-5.12-.78-10.37-1.18-15.7-.78-10.72-1.55-21.13-2.27-30.93l-.18-2.45,1.14,2.16,21.76,40.68v.12l-.57.49c-.12.1-.45-.57-.2-.69h0l.16-.12.33-.18.65-.39,1.31-.69,2.57-1.39,4.94-2.59,9.15-4.74,14.78-7.57,9.45-4.76,2.49-1.22c.36-.24.75-.42,1.16-.55Z"/>
    <path class="cls-9" d="M189.3,583.81c-.14-.31-.23-.64-.27-.98-.12-.78-.31-1.74-.51-2.88-.43-2.65-1-6.23-1.71-10.57-1.39-8.94-3.27-21.31-5.25-34.97-.51-3.47-1-6.86-1.47-10.21l.47.45-13.47-1.22h-.69l.31-.61,5.25-10.06.1.47-8.72-6.55-2.25-1.76c-.53-.43-.8-.65-.78-.69.32.14.62.31.9.53l2.45,1.65,8.92,6.29.27.2-.14.29-5.08,10.21-.37-.69,13.49,1.12h.41v.41c.47,3.27.96,6.65,1.47,10.1,2.04,13.68,3.74,26.05,4.96,35.03.55,4.35,1.02,7.94,1.37,10.62.12,1.16.24,2.04.33,2.9.05.31.06.63.02.94Z"/>
    <path class="cls-9" d="M208.51,514.4c.24-.12,12.11,21.88,26.54,49.16,14.43,27.27,25.8,49.5,25.56,49.65s-12.13-21.86-26.54-49.16c-14.41-27.29-25.82-49.5-25.56-49.65Z"/>
    <path class="cls-8" d="M148.45,527.02c0-.14,0,7.23,0,7.23l5.9,2.47,3.74-2.04-1.08-6.41-7.35-2.39-1.2,1.14Z"/>
    <polygon class="cls-8" points="154.37 536.71 161.07 562.93 183.28 579.73 171.87 549.37 158.01 534.2 154.37 536.71"/>
    <path class="cls-9" d="M148.66,526.32c.24,2.2.31,4.41.2,6.61v5.98c0,.53-.76.47-.69.43h-.12l-.96-.27-8.45-2.43c-5.98-1.74-11.37-3.37-15.25-4.61-2.12-.55-4.17-1.33-6.12-2.33.59.04,1.18.17,1.74.37l4.67,1.22c3.94,1.08,9.37,2.59,15.35,4.33l8.41,2.47.96.29h.12c0-.33-.12.47,0,.39h-.41v-2.55c0-1.16.1-2.29.16-3.33-.05-2.2.08-4.4.39-6.57Z"/>
    <path class="cls-9" d="M161.19,520.67c.46,2.7.62,5.43.49,8.17v.65l-.59-.08-2.33-.61c-3.46-.74-6.84-1.84-10.08-3.27,3.51.42,6.98,1.17,10.35,2.25l2.33.63-.65.49c-.16-2.75,0-5.51.49-8.23Z"/>
    <path class="cls-9" d="M257.67,632.6c-.69.51-1.43.94-2.23,1.27-1.47.76-3.61,1.82-6.27,3.06-5.31,2.53-12.74,5.86-21.05,9.25s-15.94,6.25-21.52,8.17c-2.78.96-5.04,1.71-6.61,2.2-.79.32-1.62.53-2.47.65.75-.42,1.53-.77,2.35-1.04l6.49-2.53c5.47-2.04,13.04-5.04,21.35-8.45s15.76-6.59,21.15-8.94l6.39-2.76c.77-.37,1.58-.66,2.41-.88Z"/>
    <polygon class="cls-10" points="334.2 505.34 357.94 486.74 367.76 497.23 349.1 517.91 334.2 505.34"/>
    <path class="cls-1" d="M384.19,467.1s-1.06-4.08-5.39-1.69c-1.57.88-11.19,8.53-11.19,8.53,0,0-6.51,4.74-6.74,5.08.12,1.39.39,2.75.8,4.08l8.04-3.33,14.47-12.68Z"/>
    <path class="cls-11" d="M188.08,824.9c-8.98-43.9-23.61-86.44-43.54-126.57-9.01-18.21-4.11-40.23,11.78-52.89l356.02-281.38,7.59,9.61-356.02,281.38c-11.36,9.05-14.86,24.8-8.41,37.81,20.56,41.15,35.58,84.84,44.64,129.93l-12.06,2.1Z"/>
    <path class="cls-9" d="M162.36,707.23c-2.14-.12-4.27.22-6.27,1-1.87,1.05-3.5,2.48-4.78,4.21-.12,0,0-.84.63-1.92,1.81-2.9,5.12-4.49,8.51-4.08,1.27.27,1.94.67,1.9.8Z"/>
    <path class="cls-9" d="M155.09,692c-2.14-.1-4.27.25-6.27,1.02-1.87,1.04-3.5,2.47-4.78,4.18-.12,0,0-.84.63-1.92,1.82-2.88,5.13-4.46,8.51-4.08,1.27.27,1.94.67,1.9.8Z"/>
    <path class="cls-9" d="M200.98,626c-.38-2.1-1.21-4.1-2.41-5.86-1.44-1.59-3.2-2.85-5.16-3.69,0-.12.8-.2,2.04.18,1.61.53,3.02,1.52,4.08,2.84,1.03,1.31,1.67,2.88,1.86,4.53-.02,1.35-.29,2.02-.41,2Z"/>
    <path class="cls-9" d="M211.53,617.43c-.49-4.38-3.44-8.1-7.59-9.57,0-.12.82-.18,2.04.2,1.61.52,3.04,1.51,4.08,2.84,1.04,1.3,1.69,2.87,1.86,4.53-.02,1.27-.27,2.02-.39,2Z"/>
    <path class="cls-9" d="M234.78,599.4c-.38-2.1-1.21-4.1-2.41-5.86-1.44-1.59-3.2-2.85-5.16-3.69,0-.12.8-.2,2.04.18,3.2,1.13,5.47,3.99,5.84,7.37.06,1.27-.18,2.02-.31,2Z"/>
    <path class="cls-9" d="M245.97,590.65c-.39-2.11-1.22-4.11-2.43-5.88-1.44-1.58-3.2-2.84-5.16-3.69,0-.12.82-.2,2.04.18,1.61.54,3.03,1.53,4.08,2.86,1.04,1.29,1.69,2.86,1.86,4.51-.02,1.31-.27,2.02-.39,2.02Z"/>
    <path class="cls-9" d="M258.06,581.16c-.48-4.38-3.42-8.1-7.57-9.57,0-.12.82-.2,2.04.18,3.19,1.14,5.46,4,5.84,7.37.08,1.31-.18,2.02-.31,2.02Z"/>
    <path class="cls-9" d="M270.16,571.62c-.38-2.1-1.21-4.1-2.41-5.86-1.44-1.59-3.2-2.85-5.16-3.69,0-.12.82-.2,2.04.18,1.57.54,2.96,1.53,3.98,2.84,1.03,1.31,1.68,2.88,1.86,4.53.08,1.27-.18,2.02-.31,2Z"/>
    <path class="cls-9" d="M282.27,562.07c-.38-2.1-1.21-4.1-2.41-5.86-1.45-1.58-3.2-2.85-5.16-3.72,0-.12.8-.18,2.04.2,1.61.52,3.03,1.51,4.08,2.84,1.04,1.3,1.68,2.88,1.86,4.53-.02,1.31-.29,2-.41,2Z"/>
    <path class="cls-9" d="M294.05,552.74c-.5-2.04-1.34-3.97-2.47-5.74-1.32-1.62-2.94-2.97-4.78-3.98,0-.12.8-.14,1.94.33,1.49.66,2.77,1.7,3.72,3.02.95,1.3,1.57,2.81,1.8,4.41.12,1.22-.06,1.98-.2,1.96Z"/>
    <path class="cls-9" d="M305.23,543.82c-.52-2.03-1.36-3.98-2.47-5.76-1.33-1.62-2.96-2.96-4.8-3.96,0-.12.8-.14,2.04.33,1.48.66,2.76,1.7,3.69,3.02.95,1.3,1.57,2.81,1.8,4.41.06,1.22-.14,1.96-.27,1.96Z"/>
    <path class="cls-9" d="M316.87,534.43c-.5-2.04-1.34-3.99-2.47-5.76-1.32-1.62-2.94-2.96-4.78-3.96,0-.12.8-.14,2.04.33,1.49.64,2.77,1.69,3.69,3.02.97,1.29,1.59,2.81,1.82,4.41.02,1.22-.16,1.96-.31,1.96Z"/>
    <path class="cls-9" d="M328.85,525.32c-.52-2.03-1.36-3.98-2.47-5.76-1.32-1.62-2.95-2.97-4.8-3.96,0-.12.82-.14,2.04.33,1.48.65,2.76,1.7,3.69,3.02.97,1.29,1.59,2.81,1.8,4.41.06,1.31-.14,2.06-.27,1.96Z"/>
    <path class="cls-9" d="M341.47,515.12c-.52-2.03-1.36-3.96-2.47-5.74-1.32-1.63-2.95-2.98-4.8-3.98,0-.12.8-.14,2.04.33,1.48.66,2.75,1.71,3.69,3.02.96,1.3,1.58,2.81,1.8,4.41.06,1.16-.14,1.96-.27,1.96Z"/>
    <path class="cls-9" d="M354.06,504.73c-.5-2.04-1.33-3.99-2.47-5.76-1.32-1.65-2.94-3.04-4.78-4.08,0-.12.8-.14,2.04.33,1.48.65,2.76,1.7,3.69,3.02.96,1.3,1.59,2.81,1.82,4.41.02,1.33-.16,2.08-.31,2.08Z"/>
    <path class="cls-9" d="M366.68,494.38c-.52-2.05-1.35-4-2.47-5.8-1.32-1.62-2.95-2.97-4.8-3.96,0-.12.82-.14,2.04.33,1.48.66,2.76,1.7,3.69,3.02.97,1.29,1.59,2.81,1.8,4.41.06,1.27-.14,2-.27,2Z"/>
    <path class="cls-9" d="M396.69,471.21c-.52-2.03-1.36-3.98-2.47-5.76-1.32-1.62-2.95-2.97-4.8-3.96,0-.14.82-.16,2.04.33,1.48.64,2.76,1.68,3.69,3,.97,1.29,1.58,2.81,1.8,4.41.06,1.22-.14,1.98-.27,1.98Z"/>
    <path class="cls-9" d="M409.26,460.92c-.5-2.04-1.33-3.99-2.47-5.76-1.33-1.61-2.95-2.96-4.78-3.98,0-.12.8-.14,1.94.35,1.48.64,2.76,1.68,3.69,3,.97,1.29,1.58,2.81,1.8,4.41.14,1.22-.06,1.98-.18,1.98Z"/>
    <path class="cls-9" d="M421.92,451.18c-.52-2.03-1.36-3.96-2.47-5.74-1.32-1.66-2.95-3.05-4.8-4.08,0-.12.82-.14,2.04.33,1.48.66,2.76,1.7,3.69,3.02.97,1.29,1.59,2.81,1.8,4.41.06,1.33-.14,2.08-.27,2.06Z"/>
    <path class="cls-9" d="M434.45,441.46c-.5-2.04-1.34-3.97-2.47-5.74-1.31-1.66-2.93-3.05-4.78-4.08,0-.12.8-.14,1.94.33,1.49.64,2.77,1.69,3.69,3.02.99,1.35,1.61,2.93,1.8,4.59.14,1.14,0,1.9-.18,1.88Z"/>
    <path class="cls-9" d="M447.09,431.75c-.52-2.03-1.36-3.98-2.47-5.76-1.32-1.62-2.95-2.97-4.8-3.96,0-.12.82-.14,2.04.33,1.48.66,2.76,1.7,3.69,3.02.97,1.29,1.59,2.81,1.8,4.41.06,1.22-.14,1.96-.27,1.96Z"/>
    <path class="cls-9" d="M459.13,421.03c-.5-2.04-1.33-3.99-2.47-5.76-1.31-1.66-2.94-3.04-4.78-4.08,0-.12.8-.14,1.94.33,1.48.65,2.76,1.7,3.69,3.02.96,1.3,1.59,2.81,1.82,4.41.16,1.33-.02,2.08-.2,2.08Z"/>
    <path class="cls-9" d="M472.07,411.37c-.5-2.04-1.33-3.99-2.47-5.76-1.32-1.65-2.94-3.04-4.78-4.08,0-.12.8-.14,2.04.33,1.48.65,2.76,1.7,3.69,3.02.96,1.3,1.59,2.81,1.82,4.41.02,1.33-.16,2.08-.31,2.08Z"/>
    <path class="cls-9" d="M484.73,401.64c-.52-2.03-1.36-3.96-2.47-5.74-1.33-1.62-2.96-2.97-4.8-3.98,0-.12.8-.14,2.04.33,1.48.66,2.75,1.71,3.69,3.02.96,1.3,1.58,2.81,1.8,4.41.06,1.22-.14,1.98-.27,1.96Z"/>
    <path class="cls-9" d="M497.53,391.41c-.52-2.03-1.36-3.98-2.47-5.76-1.33-1.65-2.96-3.03-4.8-4.08,0-.12.8-.14,2.04.33,1.48.66,2.75,1.71,3.69,3.02.95,1.3,1.56,2.82,1.8,4.41.12,1.27-.14,2.08-.27,2.08Z"/>
    <path class="cls-9" d="M223.54,607.86c-.48-4.38-3.42-8.1-7.57-9.57,0-.12.8-.18,2.04.2,1.57.54,2.96,1.53,3.98,2.84,1.04,1.3,1.68,2.88,1.86,4.53.08,1.27-.18,2.02-.31,2Z"/>
    <path class="cls-9" d="M168.17,719.99c-2.14-.09-4.27.25-6.27,1.02-1.87,1.05-3.49,2.47-4.78,4.18-.12,0,0-.82.65-1.92.89-1.41,2.16-2.53,3.67-3.23,1.5-.73,3.17-1,4.82-.78,1.27.18,1.94.61,1.9.71Z"/>
    <path class="cls-9" d="M174.4,734.67c-2.14-.12-4.27.22-6.27,1-1.87,1.05-3.5,2.48-4.78,4.21-.12,0,0-.84.65-2.04.89-1.41,2.16-2.53,3.67-3.23,1.51-.72,3.18-.99,4.84-.78,1.25.31,1.92.71,1.88.84Z"/>
    <path class="cls-9" d="M180.14,750.85c-2.13-.22-4.28.02-6.31.69-1.92.95-3.61,2.3-4.98,3.94,0,0,0-.84.76-1.88.93-1.35,2.22-2.41,3.74-3.04,1.54-.64,3.24-.83,4.88-.53,1.25.25,1.98.69,1.92.82Z"/>
    <path class="cls-9" d="M185.44,765.9c-2.13-.19-4.28.05-6.31.71-1.92.94-3.62,2.28-4.98,3.94-.12,0,0-.84.73-1.9.96-1.36,2.3-2.41,3.84-3.04,1.53-.64,3.22-.83,4.86-.53,1.25.27,2,.71,1.86.82Z"/>
    <path class="cls-9" d="M190.1,781.95c-2.09-.44-4.26-.44-6.35,0-2,.77-3.81,1.94-5.33,3.45-.12,0,.1-.82.92-1.8,2.23-2.55,5.73-3.61,9-2.74,1.2.47,1.82.98,1.76,1.08Z"/>
    <path class="cls-9" d="M195.02,799.91c-2.06-.59-4.22-.72-6.33-.39-2.05.61-3.95,1.65-5.57,3.04-.12,0,.16-.82,1.04-1.74,1.17-1.18,2.66-1.99,4.29-2.35,1.63-.36,3.33-.26,4.9.31,1.18.45,1.76,1.02,1.67,1.12Z"/>
    <path class="cls-9" d="M199.59,819.71c-2.06-.59-4.22-.72-6.33-.39-2.07.61-3.99,1.64-5.63,3.04,0,0,.16-.82,1.04-1.74,2.42-2.39,5.99-3.18,9.19-2.04,1.25.45,1.82,1.02,1.74,1.12Z"/>
    <path class="cls-10" d="M379.91,466.78c3.32-1.48,7.16-1.18,10.21.8,2.17,1.44,4.04,3.3,5.51,5.45.7,1.51.23,3.31-1.12,4.29-2.35,1.78-8.61,1.61-8.61,1.61l2.78-2.33-4.43-4.08c-2.01.5-4.12-.32-5.27-2.04-1.49-2.96.94-3.69.94-3.69Z"/>
    <path class="cls-10" d="M361.49,477.94c1.42-1.78,3.49-2.93,5.76-3.2,2.6.18,5.17.73,7.61,1.63,0,0,7.51,8.17,8.17,9.82.65,1.65-2.98,4.31-2.98,4.31,0,0,.96,4.25-.73,6.47-1.69,2.23-17.33,12.25-17.33,12.25l-10.49-3.12s10.31-12.02,13-14.17,1.53-1.16,1.53-1.16l-.8-2.18c-.69-1.9-2.27-3.35-4.23-3.88l-1.2-.33-5.19,4.08c-.67-1.62-.46-3.48.57-4.9,1.83-2.16,3.95-4.05,6.31-5.61Z"/>
    <path class="cls-10" d="M372.76,479.54s-3.04-4.27-.71-5.86c2.33-1.59,4.61-.45,7.08.29,2.82.94,5.07,3.1,6.12,5.88.63,2.55,1.31,6.12-2.27,6.35s-10.23-6.65-10.23-6.65Z"/>
    <path class="cls-1" d="M360.92,478.49c1.04-.85,2.35-1.3,3.69-1.25,3.22-.1,6.36,1.03,8.78,3.16,2.43,2.03,4.38,4.59,5.7,7.47.63,1.14,1,2.41,1.08,3.72-.64-1.1-1.23-2.23-1.76-3.39-1.46-2.65-3.39-5.01-5.7-6.96-2.26-2.01-5.14-3.17-8.17-3.29-1.22.07-2.44.25-3.63.53Z"/>
    <path class="cls-1" d="M383.01,487.09c-.18,0-.24-1.08-.73-2.72-.63-2.1-1.75-4.01-3.29-5.57-1.74-1.35-3.73-2.34-5.86-2.92-.93-.19-1.82-.5-2.67-.92.95-.17,1.93-.1,2.86.18,2.34.41,4.53,1.4,6.39,2.88,1.69,1.67,2.84,3.8,3.31,6.12.3.96.3,1.98,0,2.94Z"/>
    <path class="cls-10" d="M343.32,512.67s12.47,1.12,19.19-3.76-2.25-12.7-2.25-12.7l-16.94,16.45Z"/>
    <path class="cls-1" d="M367.88,494.09c-.27.14-.92-.55-1.45-1.55s-.78-1.9-.51-2.04.9.55,1.45,1.53.76,1.92.51,2.06Z"/>
    <path class="cls-6" d="M72.64,569.54s-15.66,89.56-14.47,105.36c1.35,17.94,8.74,19.09,18.92,20.01,9.49.84,81.33-9.21,81.33-9.21l-8.35-33.21-47.4,2.41,11.64-48.85-41.66-36.5Z"/>
    <path class="cls-9" d="M173.6,674c-.2.2-20.31-20.41-44.91-46.07s-44.38-46.63-44.16-46.83,20.41,20.41,44.91,46.09c24.5,25.68,44.38,46.6,44.16,46.81Z"/>
    <path class="cls-10" d="M154.97,652.91s2.76-14.7,9.17-19.52,23.33-10.33,23.33-10.33c0,0,.51,1.92-1.9,5.41s-10.64,7.98-10.64,7.98l18.13-3.47,16.47-8.9c.61-.36,1.38-.24,1.86.29.88,1,1.65,2.88-1.31,5.51-4.51,4.08-17.92,13.21-17.92,13.21,0,0,1.37,15.29-3.51,17.72s-24.5,8.9-24.5,8.9l-9.19,2.96-4.7-19.45,4.7-.31Z"/>
    <path class="cls-9" d="M82.7,669.77c-.03-1.41.27-2.81.88-4.08,2.6-6.65,8.96-11.07,16.11-11.19,1.43-.14,2.88.07,4.21.63,0,.16-1.63-.1-4.08.12-6.72.51-12.63,4.62-15.45,10.74-1.18,2.23-1.47,3.8-1.65,3.78Z"/>
    <path class="cls-9" d="M115.68,386.27c-7.48,1.68-11.06,11.17-18.39,13.62-4.46,1.51-9.3.06-13.98.13-3.65.08-7.25.99-10.51,2.67-3.26,1.68-6.09,4.08-8.26,7-3.94,5.72-5.68,10.66-3.11,17.09-6.56,0-11.37,10.82-10.81,18.34.56,7.52,4.75,13.24,10.05,18.66,9,9.39,19.79,16.93,31.77,22.19,1.06.47,2.52.81,3.21-.13.18-.36.27-.76.26-1.16,0-.4-.11-.79-.3-1.14-2.35-6.35-6.48-11.83-10.33-17.42-3.85-5.59-7.54-11.46-8.83-18.12-1.29-6.66.26-14.22,5.49-18.7,4.08-3.11,9.11-4.7,14.22-4.5,5.08-.06,10.09.87,15.13,1.21,5.06.61,10.2-.17,14.88-2.25,4.53-2.3,8.09-7.03,7.74-12.02s-5.64-9.39-10.49-7.84c1.89-1.32,3.28-3.24,3.91-5.44.64-2.2.48-4.53-.43-6.61s-2.53-3.78-4.57-4.8c-2.04-1.03-4.39-1.31-6.65-.81h0Z"/>
    <path class="cls-9" d="M115.74,405.18c-3.56-2.17-7.62-3.42-11.81-3.64-9.06-.9-18.2,1.06-26.13,5.6-7.93,4.6-13.78,12.04-16.32,20.75-1.77,7.01-1.42,14.35.99,21.12,2.5,7.45,6.36,14.36,11.39,20.41,2.08,2.33,4.19,2.36,7.25,3.14,1.91.49,4.45.11,5.13-1.8.3-1.12.2-2.31-.26-3.38-3.13-9.94-6.73-20.49-15.02-26.83.31-4.14,1.49-8.17,3.47-11.84.99-1.83,2.34-3.46,3.96-4.78,1.63-1.32,3.5-2.32,5.51-2.92,6.03-1.58,12.12,1.35,18.24,2.25,4.4.59,8.89.14,13.1-1.31,4.21-1.45,8.03-3.87,11.13-7.06l-10.64-9.71h0Z"/>
    <path class="cls-3" d="M57.37,460.37c-.06-.14,1.24-.73,3.09-2.03,4.83-3.42,8.23-8.47,9.55-14.17.47-2.21.52-3.57.68-3.58.21,1.22.18,2.48-.1,3.69-.51,2.96-1.64,5.79-3.33,8.3-1.68,2.51-3.88,4.65-6.45,6.27-1.04.72-2.2,1.24-3.43,1.51h0Z"/>
    <path class="cls-3" d="M60.24,463.15c-.06-.14,1.22-.72,3.07-2.02,4.84-3.41,8.24-8.46,9.55-14.17.48-2.22.52-3.57.68-3.58.22,1.22.19,2.47-.1,3.69-.51,2.96-1.64,5.79-3.33,8.3-1.68,2.51-3.88,4.65-6.45,6.27-1.03.71-2.19,1.22-3.41,1.5h0Z"/>
    <path class="cls-10" d="M83.64,476.96c-1.5-2.48-4.72-3.28-7.2-1.78-.08.05-.15.1-.23.15-2.98,2.04-5.47,5.82-1.61,12.25,6.86,11.33,16.82,2.04,16.66,1.78s-4.7-7.68-7.61-12.39Z"/>
    <path class="cls-1" d="M86.19,486.54s-.1.27-.35.61c-.35.49-.88.82-1.47.94-2.05-.06-3.92-1.21-4.9-3.02-.62-.95-1.02-2.04-1.16-3.16-.21-.85,0-1.74.57-2.41.39-.42,1.02-.49,1.49-.16.35.22.41.49.49.47s.12-.35-.24-.76c-.24-.24-.55-.39-.88-.43-.45-.06-.91.08-1.27.37-.83.76-1.21,1.89-1,3,.11,1.27.53,2.5,1.22,3.57,1.13,2.13,3.43,3.38,5.84,3.16.73-.2,1.33-.72,1.63-1.41.16-.49.08-.78.02-.78Z"/>
  </g>
</svg>