<?xml version="1.0" encoding="UTF-8"?>
<svg id="Layer_2" data-name="Layer 2" xmlns="http://www.w3.org/2000/svg" viewBox="0 0 1000 1000">
  <defs>
    <style>
      .cls-1 {
        fill: #e0e0e0;
      }

      .cls-1, .cls-2, .cls-3, .cls-4, .cls-5, .cls-6, .cls-7, .cls-8, .cls-9, .cls-10, .cls-11 {
        stroke-width: 0px;
      }

      .cls-2 {
        fill: #455a64;
      }

      .cls-3 {
        fill: #f5f5f5;
      }

      .cls-4 {
        fill: #09f;
      }

      .cls-5, .cls-8 {
        opacity: .2;
      }

      .cls-5, .cls-8, .cls-9, .cls-10 {
        isolation: isolate;
      }

      .cls-5, .cls-9, .cls-10 {
        fill: #000;
      }

      .cls-6 {
        fill: #ebebeb;
      }

      .cls-7 {
        fill: #263238;
      }

      .cls-8, .cls-11 {
        fill: #fff;
      }

      .cls-9 {
        opacity: .3;
      }

      .cls-10 {
        opacity: .4;
      }
    </style>
  </defs>
  <g id="freepik--background-complete--inject-2">
    <path class="cls-1" d="M167.74,544.12s-14.89-102.39-13.65-161.96,0-126.58,0-126.58h6.72s-4.63,118.23.43,189.54c5.06,71.31,18.28,98.99,18.28,98.99h-11.78"/>
    <path class="cls-6" d="M212.1,140.38c-1.38-3.49-3.07-7.15-6.26-9.16-4.35-2.76-10.16-1.6-14.91,0-20.74,7.43-39.12,46.1-47.51,66.44l27.54,92.76c49.68-46.1,58.29-106.57,41.13-150.03Z"/>
    <path class="cls-1" d="M204.24,134.98c-.08.42-.21.83-.39,1.22-.37.87-.81,2.03-1.36,3.37-1.2,2.92-2.88,7.17-4.92,12.43-4.06,10.54-9.22,25.27-13.83,41.84-4.61,16.57-7.78,31.89-9.73,43-.97,5.57-1.71,10.16-2.17,13.2-.24,1.46-.45,2.64-.59,3.57-.05.43-.15.85-.28,1.26-.05-.43-.05-.85,0-1.28,0-.95.22-2.15.39-3.62.35-3.15.95-7.68,1.83-13.26,4.68-29.13,12.61-57.64,23.64-85,2.03-5.24,3.94-9.44,5.26-12.33l1.54-3.29c.16-.39.37-.77.61-1.12Z"/>
    <path class="cls-1" d="M158.78,312.66c-25.79-14.22-41.01-41.09-42.41-70.54-1-20.57,5.32-40.76,12.49-60.1.43-1.74,1.46-3.28,2.9-4.35,2.17-1.24,4.87-.14,7.05,1.08,18.75,10.68,30.1,31.03,36.15,51.75,4.29,13.75,5.69,28.23,4.12,42.55-2.34,15.04-9.46,28.93-20.31,39.61"/>
    <path class="cls-6" d="M158.78,312.66c-.04-.42-.04-.84,0-1.26v-3.55c0-3.09-.12-7.56-.39-13.08-.73-14.36-2.33-28.67-4.79-42.83-2.86-16.61-6.34-31.5-8.9-42.25-1.26-5.26-2.3-9.57-3.05-12.73-.32-1.35-.59-2.51-.79-3.47-.13-.4-.2-.82-.2-1.24.19.38.33.77.43,1.18l1,3.43c.85,2.97,2.03,7.29,3.41,12.63,2.76,10.72,6.36,25.59,9.22,42.25,2.48,14.22,3.98,28.59,4.49,43.02.14,5.52.14,10.01,0,13.1,0,1.44,0,2.62-.14,3.57-.05.42-.14.84-.28,1.24Z"/>
    <path class="cls-6" d="M187.85,469.29c25.39,5.59,46.29,23.5,70.8,32.21,16.25,5.75,34.53,7.8,47.47,19.13-3.11-7.84-10.46-13.06-17.61-17.53-20.17-12.6-41.7-22.88-64.18-30.65-11.52-4.06-24.03-7.29-35.77-4.06"/>
    <path class="cls-6" d="M151.13,491.92c-31.81-.51-65.28-27.58-96.94-29.25,33.13-10.68,80.55-2.03,96.94,29.21"/>
    <path class="cls-6" d="M163.56,415.63c16.25-5.81,33.88-6.09,50.78-3.45,16.9,2.64,33.35,8.12,49.64,13.49-1.65-11.03-10.58-19.34-18.97-26.67-6.14-5.73-12.81-10.86-19.92-15.33-7.17-4.47-15.46-6.81-23.91-6.74-10.24.67-19.77,5.47-26.4,13.3-6.42,7.02-10.39,15.94-11.29,25.41"/>
    <path class="cls-6" d="M98.28,380.52c-20.01-17.08-50.33-15.42-76.65-14.83,40.46,19.36,84.04,45.86,118.88,74.09,1.08-18.6-16.94-37.68-42.23-59.27Z"/>
    <path class="cls-6" d="M172.55,356.94c9.76-6.79,20.06-12.77,30.79-17.89,10.54-4.79,20.31-12.43,30.47-17.93,13.18-7.15,24.62-17.08,36.74-25.94,12.13-8.86,25.41-16.86,40.24-19.19-12.18-2.19-24.7-1.5-36.56,2.03-11.84,3.56-23.38,8.05-34.53,13.4-15.62,7.05-31.5,14.22-44.28,25.67-12.78,11.46-24.37,22.69-22.95,39.77"/>
    <path class="cls-1" d="M258.06,491.92c-.36-.1-.7-.24-1.02-.43l-2.76-1.44c-2.4-1.28-5.83-3.17-10.16-5.34-2.13-1.14-4.51-2.32-7.09-3.51-2.58-1.2-5.32-2.52-8.27-3.8-6.32-2.82-12.87-5.11-19.58-6.82-6.63-1.83-13.6-2-20.31-.51-2.94.64-5.84,1.5-8.65,2.58-2.42.99-4.75,2.18-6.97,3.57-3.22,2.04-6.17,4.47-8.77,7.25-1.85,2.03-2.74,3.19-2.82,3.13.15-.33.34-.65.57-.93.6-.86,1.24-1.69,1.93-2.48,2.51-2.94,5.42-5.51,8.65-7.64,2.24-1.46,4.61-2.73,7.07-3.78,2.84-1.14,5.77-2.05,8.75-2.72,6.89-1.61,14.08-1.46,20.9.43,6.78,1.72,13.39,4.05,19.74,6.97,2.95,1.3,5.71,2.6,8.25,3.9s4.94,2.48,7.07,3.66c4.29,2.27,7.68,4.27,9.99,5.67l2.68,1.62c.29.18.55.39.79.63Z"/>
    <path class="cls-1" d="M127.4,476.16c.7.11,1.38.31,2.03.59,1.76.62,3.47,1.34,5.14,2.17,11.21,5.66,20.47,14.55,26.57,25.53.93,1.64,1.75,3.33,2.46,5.08.33.64.56,1.32.67,2.03-.18,0-1.36-2.62-3.82-6.64-6.38-10.56-15.43-19.25-26.24-25.21-4.14-2.27-6.89-3.37-6.8-3.55Z"/>
    <path class="cls-1" d="M57.05,378.93c.46.08.91.21,1.34.39l3.82,1.36,6.09,2.23c2.34.85,4.89,2.15,7.76,3.41,14.92,6.91,28.85,15.79,41.41,26.4,6.85,5.9,13.3,12.25,19.29,19.01,4.87,5.54,9.45,11.34,13.71,17.37,3.64,5.14,6.4,9.42,8.27,12.39l2.07,3.39c.28.38.52.8.69,1.24-.33-.35-.62-.72-.89-1.12-.55-.73-1.36-1.83-2.36-3.29-2.03-2.88-4.85-7.09-8.55-12.19-3.7-5.1-8.35-10.93-13.83-17.14-6.01-6.68-12.45-12.96-19.25-18.83-12.49-10.54-26.27-19.45-41.01-26.53-2.86-1.3-5.36-2.64-7.68-3.57l-5.93-2.38-3.74-1.56c-.42-.16-.83-.36-1.22-.59Z"/>
    <path class="cls-1" d="M211.27,397.68c-.86,0-1.71-.11-2.54-.32l-2.92-.55c-1.12-.2-2.46-.22-3.9-.37-7.55-.66-15.12.83-21.85,4.31-3.69,1.92-7.05,4.42-9.95,7.39-2.42,2.38-4.56,5.03-6.38,7.9-1.66,2.67-3.13,5.46-4.39,8.35.1-.85.32-1.69.65-2.48.81-2.19,1.83-4.3,3.05-6.3,1.77-2.99,3.89-5.75,6.34-8.23,8.42-8.83,20.5-13.19,32.62-11.74,1.46.2,2.8.26,3.94.55l2.9.73c.84.14,1.66.4,2.44.75Z"/>
    <path class="cls-1" d="M243.23,298.6c-.37.29-.78.54-1.2.75l-3.55,1.91c-3.09,1.67-7.54,4.06-12.92,7.31s-11.7,7.17-18.42,11.98c-7.35,5.13-14.23,10.89-20.57,17.22-3.27,3.24-6.1,6.9-8.41,10.89-2.03,4.06-4.06,7.88-5.91,11.6-3.3,6.54-6.25,13.25-8.84,20.11-1.71,4.65-3.15,9.4-4.31,14.22-.81,3.41-1.1,5.32-1.22,5.3,0-.47.05-.94.14-1.4.1-.91.3-2.27.65-4.06,1.01-4.87,2.37-9.66,4.06-14.34,2.49-6.93,5.38-13.71,8.65-20.31,1.81-3.74,3.78-7.62,5.85-11.64,2.35-4.09,5.24-7.85,8.59-11.17,6.38-6.38,13.34-12.17,20.78-17.28,6.8-4.79,13.18-8.69,18.62-11.84s9.97-5.44,13.12-6.99l3.66-1.75c.38-.22.79-.39,1.22-.51Z"/>
    <path class="cls-1" d="M154.05,394.9c-.3-.87-.51-1.77-.63-2.68-.37-2.03-.83-4.43-1.38-7.35-1.56-8.07-3.6-16.04-6.09-23.86-2.57-7.8-5.61-15.44-9.1-22.87-1.22-2.72-2.25-5-3.09-6.8-.44-.81-.78-1.67-1.02-2.56.55.73,1.02,1.52,1.4,2.36.85,1.54,2.03,3.82,3.43,6.66,3.72,7.38,6.87,15.02,9.44,22.87,2.5,7.87,4.41,15.92,5.73,24.07.49,3.13.85,5.67,1.04,7.43.2.9.29,1.82.26,2.74Z"/>
    <path class="cls-6" d="M151.76,322.53c-1-12.05-4.52-23.75-10.34-34.35-15.87-29.51-44-50.49-76.81-57.28l71.09,106,9.18,18.91c6.3-10.26,7.68-21.27,6.89-33.29Z"/>
    <rect class="cls-6" x="88.41" y="531.44" width="165.37" height="29.31"/>
    <polygon class="cls-6" points="100.76 554.94 114.83 645.89 224.63 645.89 241.43 554.94 100.76 554.94"/>
    <path class="cls-1" d="M253.67,560.79c0,.32-37.29.59-83.27.59s-83.27-.26-83.27-.59,37.29-.59,83.27-.59,83.27.26,83.27.59Z"/>
    <rect class="cls-1" x="625.78" y="58.01" width="287.13" height="416.18"/>
    <rect class="cls-3" x="611.4" y="58.01" width="287.13" height="416.18"/>
    <rect class="cls-11" x="647.07" y="103.07" width="215.78" height="326.04"/>
    <path class="cls-1" d="M862.85,429.12v-24.11c0-15.62-.12-38.39-.2-67.15,0-57.5-.2-138.9-.35-234.79l.71.73h-215.76l.77-.79c0,123-.1,236.39-.14,326.04l-.63-.63,157.06.32,43.4.16h15.31-15.07l-43.26.14-157.45.35h-.63v-.63c0-89.65-.1-203.11-.14-326.04v-.77h217.08v1.22c-.16,96.07-.28,177.64-.37,235.26,0,28.7-.14,51.41-.18,67.02,0,7.72,0,13.67-.1,17.73v4.55c0,1.06-.06,1.38-.06,1.38Z"/>
    <path class="cls-1" d="M899.32,58.01c-1.47,2.63-3.18,5.12-5.12,7.43-3.33,4.47-8.12,10.52-13.47,17.08-5.34,6.56-10.46,12.39-14.22,16.51-1.9,2.34-4.02,4.49-6.32,6.44,1.63-2.53,3.47-4.93,5.48-7.17l13.83-16.76,13.81-16.8c1.81-2.41,3.82-4.66,5.99-6.74Z"/>
    <path class="cls-11" d="M863.94,428.14c10.74,17.06,23.36,32.85,37.64,47.08"/>
    <path class="cls-1" d="M901.58,475.14c-2.38-1.77-4.58-3.77-6.56-5.97-5.01-5.1-9.75-10.45-14.22-16.02-4.46-5.57-8.63-11.37-12.49-17.37-1.72-2.41-3.19-5-4.39-7.72,1.94,2.23,3.72,4.61,5.3,7.11,3.17,4.43,7.62,10.52,12.82,17,5.2,6.48,10.16,12.19,13.77,16.25,2.09,2.09,4.02,4.34,5.77,6.72Z"/>
    <path class="cls-11" d="M611.34,473.86c12.55-15.45,25.09-30.92,37.62-46.41"/>
    <path class="cls-1" d="M648.96,427.45c.35.28-7.8,10.89-18.28,23.7-10.48,12.82-19.07,22.97-19.42,22.71s7.82-10.89,18.28-23.7c10.46-12.82,19.09-22.97,19.42-22.71Z"/>
    <path class="cls-1" d="M611.4,58.01c.32-.26,8.51,9.51,18.28,21.81,9.77,12.31,17.39,22.54,17.04,22.81s-8.51-9.51-18.28-21.83c-9.77-12.33-17.39-22.52-17.04-22.79Z"/>
    <rect class="cls-1" x="723.38" y="169.29" width="72.24" height="205.16"/>
  </g>
  <g id="freepik--Shadows--inject-2">
    <path class="cls-1" d="M939.5,834.01c-5.06-8.39-14.91-10.56-23.82-12.37-10.02-1.89-20.15-3.19-30.32-3.9-27.93-2.1-55.98-1.94-83.88.49-27.08,2.23-54.21,4.04-81.38,5.4-34.53,1.73-69.18,3.03-103.69,1.34-12.19-.61-24.78-1.36-36.72-4.33-3.41-.7-6.71-1.9-9.77-3.55-.3-.17-.58-.36-.85-.57l-.3-.3c5-2.32,12.19-2.42,18-2.74,12.19-.71,24.37-.85,36.56-.97,32.37-.32,64.77-.18,97.12-1.28,15.05-.53,30.12-1.26,45.11-2.84,10.7-1.12,21.73-2.4,31.99-5.85,3.55-1.2,20.92-7.94,15.52-13.83-2.38-2.62-7.31-2.9-10.54-3.27-6.46-.65-12.95-.93-19.44-.85-14.22,0-28.58.51-42.86.59l-20.72-95.72-388.07,91.91c-50.31-4.31-101.02-7.88-151.27-1.58-6.5.81-12.96,1.77-19.4,2.95-5.14.91-10.68,2.15-14.22,6.28-3.11,3.3-3.72,8.23-1.5,12.19,2.6,4.41,7.64,7.03,12.19,9.18,21.24,10.16,45.7,8.73,68.61,7.74,27.66-1.22,55.37-.87,82.99,1.06,6.56.47,13.87.3,20.17,2.38,5.44,1.79,11.43,8.47,6.24,13.85-.89.89-1.92,1.62-3.05,2.17h-154.36c-12.53-.97-25.06-1.75-37.59-1.91-23.5-.35-50.39-.16-71.09,12.47-8.23,5.02-14.95,14.5-8,23.52,3.43,3.99,7.63,7.23,12.35,9.55,5.15,2.77,10.6,4.92,16.25,6.42,1.48.41,2.99.73,4.49,1.04-6.09,10.01-12.57,19.74-19.34,29.37h0v.95h-.55.55c0,4.57.49,23.05,0,23.05l694.96-4.69v-19.38h0c-10.89-11.74-20.34-24.75-28.15-38.73l-.63-1.2c-.63-1.2-1.28-2.4-1.89-3.62-.61-1.22-1.16-2.38-1.73-3.57l-.63-1.28c-4.72-10.2-8.25-20.91-10.5-31.93h-389.76c1.3-1.12,2.25-2.59,2.76-4.22.98-4.23-.61-8.65-4.06-11.29-3.94-3.35-9.3-4.06-14.22-4.51-6.82-.65-13.69-1.12-20.55-1.52-13.46-.79-26.95-1.21-40.46-1.26-13.04,0-26.08.41-39.1.95-11.56.73-23.16.63-34.71-.32-11.56-1.18-23.4-4.06-33.31-10.34-5.06-3.19-9.14-8.75-4.45-14.22,4.06-4.77,11.33-5.34,17.1-6.32,52.81-8.81,106.69-5.54,159.76-1.08l6.22.53v7.41h408.63v-3.57l11.68-.2c15.27-.28,30.65-1.04,45.9,0,3.88.26,9.34.2,12.75,2.4.83.55.97.81.73,1.32-.98,1.52-2.35,2.76-3.96,3.57-8.41,5.4-18.14,7.49-27.89,9.06-13.66,2.01-27.42,3.3-41.21,3.86-32.66,1.75-65.38,1.73-98.08,1.93-13.89,0-27.81.16-41.72.59-8.81-.04-17.6.64-26.3,2.03-1.98.16-3.87.91-5.4,2.17-1.38,1.58-.26,3.27,1.18,4.31,2.64,1.68,5.55,2.9,8.59,3.62,5.01,1.37,10.12,2.37,15.27,2.99,14.32,1.76,28.73,2.69,43.16,2.78,17.51.28,35.02,0,52.52-.57,32.19-1.04,64.34-2.95,96.45-5.36,20.49-1.54,40.82-3.43,61.42-3.41,22.06,0,44.48.83,66.23,4.69,8.92,1.58,20.31,3.19,25.53,11.5,3.95,5.89,2.38,13.86-3.51,17.81-.25.16-.5.32-.75.47-6.09,3.94-13.63,3.96-20.62,4.69-6.09.63-12.19,1.83-16.76,6.09-.82.77-1.57,1.61-2.23,2.52-1.12-.45-2.25-.85-3.37-1.24s-2.74-.93-4.06-1.34c-1.32-.41-2.8-.61-4.18-.93l-8.12-1.71-4.06-.85c-1.34-.24-2.7-.43-4.06-.65-5.34-.77-10.5-1.79-15.62-2.03l-7.51-.71-7.33-.18-3.55-.1-3.51.18c-2.32.14-4.59.18-6.8.43l-6.5.93c-2.03.35-4.06.97-6.09,1.44-7.84,2.23-14.73,5.83-18.93,10.91-2.03,2.29-3.54,4.99-4.43,7.92-.14,2.54-.14,5.08,0,7.62.01,2.04.15,4.07.41,6.09.25,1.47.7,2.91,1.32,4.27.5,1.13,1.19,2.16,2.03,3.07h0l.55.69,1.69,1.91c.77.81,1.87,1.69,3.09,2.8,1.22,1.12,2.82,2.03,4.59,3.33,4.4,2.78,9.01,5.2,13.79,7.25,6.36,2.69,12.87,4.99,19.5,6.91,17.38,4.87,35.21,7.94,53.21,9.16,5.24.43,10.5.43,15.74,0,5.5-.39,10.91-1.59,16.07-3.55,2.67-1.02,5.19-2.38,7.49-4.06,2.36-1.81,4.15-4.26,5.18-7.05.52-1.4.85-2.87.97-4.37.12-1.52,0-2.95,0-4.41v-8.92c-.49-3.36-1.7-6.57-3.53-9.42-3.49-5.17-8-9.56-13.26-12.9-5-3.3-10.31-6.12-15.84-8.43l-2.25-.93c2.33-2.62,5.35-4.53,8.71-5.52,6.72-2.03,13.87-1.48,20.7-2.95,5.97-1.3,11.94-4.22,15.03-9.77,2.7-4.91,2.43-10.91-.69-15.56ZM103.11,872.5l-.61,1.24-.81,1.54c-1.91,3.68-3.94,7.31-6.09,10.91-8.31-1.53-16.29-4.52-23.56-8.84-4.63-2.76-10.34-6.46-11.37-12.19s3.8-10.87,8.29-13.89c9.67-6.48,21.77-9.51,33.17-11.15,4.69-.67,9.44-1.12,14.22-1.4-3.31,11.66-7.74,22.97-13.22,33.78Z"/>
  </g>
  <g id="freepik--Table--inject-2">
    <path class="cls-7" d="M980.85,645.89c0,.3-215.29.55-480.83.55s-480.87-.24-480.87-.55,215.29-.55,480.87-.55,480.83.24,480.83.55Z"/>
  </g>
  <g id="freepik--Keyboard--inject-2">
    <path class="cls-7" d="M94.46,870.91c-12.32-.36-24.34-3.85-34.93-10.16-4.63-2.76-10.34-6.46-11.39-12.19s3.82-10.87,8.31-13.87c9.67-6.5,21.77-9.53,33.17-11.17,12.42-1.57,24.94-2.17,37.45-1.81,51.93.67,103.58,11.19,155.54,7.76,6.34-.43,12.65-1.06,18.95-1.93,5.58-.54,11.09-1.59,16.47-3.15,3.74-1.3,7.56-3.57,8.75-7.6.97-4.23-.62-8.64-4.06-11.29-4.06-3.35-9.3-4.06-14.22-4.51-6.82-.65-13.69-1.12-20.55-1.52-13.46-.79-26.95-1.2-40.46-1.24-13.06,0-26.08.39-39.1.93-11.56.73-23.16.63-34.71-.3-11.56-1.2-23.4-4.06-33.31-10.36-5.06-3.19-9.14-8.75-4.47-14.22,4.06-4.77,11.35-5.34,17.12-6.3,52.81-8.84,106.69-5.57,159.76-1.1l19.25,1.67c1.69.14,1.67-2.48,0-2.62-54.55-4.75-109.68-9.57-164.31-2.72-6.5.81-12.97,1.79-19.42,2.95-5.12.91-10.66,2.15-14.22,6.28-3.1,3.3-3.7,8.24-1.48,12.19,2.5,4.41,7.54,7.07,11.96,9.1,21.24,10.16,45.72,8.73,68.63,7.74,27.65-1.22,55.35-.87,82.97,1.06,6.58.47,13.87.3,20.19,2.38,5.44,1.79,11.41,8.47,6.24,13.85-3.64,3.76-10.16,4.31-14.91,5.12-6.68,1.14-13.43,2.03-20.19,2.52-53.46,4.49-106.57-6.62-159.92-7.37-23.52-.35-50.39-.16-71.09,12.47-8.23,5.04-14.95,14.5-8,23.52,3.49,3.99,7.76,7.22,12.55,9.49,5.15,2.77,10.6,4.92,16.25,6.42,5.65,1.49,11.45,2.33,17.28,2.5.72-.09,1.24-.75,1.15-1.47-.07-.6-.55-1.07-1.15-1.15l-.1.12Z"/>
    <path class="cls-4" d="M62.33,901.38c19.25-26.4,34.41-53.09,41.76-80.39h609.62c5.69,28.54,20.62,55.26,43.59,80.39H62.33Z"/>
    <path class="cls-8" d="M62.33,901.38c17.59-25.04,33.92-50.78,41.76-80.39h609.62c5.99,29.59,21.33,56.14,43.59,80.39H62.33Z"/>
    <path class="cls-4" d="M62.33,901.38s.59,24.07,0,24.07l694.96-4.69v-19.38H62.33Z"/>
    <path class="cls-5" d="M62.33,901.38s.59,24.07,0,24.07l694.96-4.69v-19.38H62.33Z"/>
    <polygon class="cls-4" points="138.11 891.91 99.33 891.91 99.33 878.47 101.75 870.34 135.67 870.34 138.11 878.29 138.11 891.91"/>
    <rect class="cls-9" x="99.33" y="878.47" width="38.77" height="13.45"/>
    <polygon class="cls-4" points="180.72 891.91 141.95 891.91 141.95 878.47 142.84 870.34 178.3 870.34 180.72 878.29 180.72 891.91"/>
    <rect class="cls-9" x="141.95" y="878.47" width="38.77" height="13.45"/>
    <polygon class="cls-4" points="151.57 868.21 112.8 868.21 112.8 854.79 113.69 846.66 149.16 846.66 151.57 854.58 151.57 868.21"/>
    <rect class="cls-9" x="112.8" y="857.43" width="38.77" height="10.78"/>
    <polygon class="cls-4" points="487.83 891.91 449.06 891.91 449.06 878.47 449.98 870.34 485.42 870.34 487.83 878.29 487.83 891.91"/>
    <rect class="cls-9" x="449.06" y="878.47" width="38.77" height="13.45"/>
    <polygon class="cls-4" points="207.79 891.91 184.94 891.91 184.94 878.47 185.47 870.34 206.35 870.34 207.79 878.29 207.79 891.91"/>
    <rect class="cls-9" x="184.94" y="878.47" width="22.85" height="13.45"/>
    <polygon class="cls-4" points="180.72 868.17 157.87 868.17 157.87 854.75 158.4 846.62 179.28 846.62 180.72 854.54 180.72 868.17"/>
    <rect class="cls-9" x="157.87" y="857.39" width="22.85" height="10.78"/>
    <polygon class="cls-4" points="209.64 868.17 186.79 868.17 186.79 854.75 187.32 846.62 208.22 846.62 209.64 854.54 209.64 868.17"/>
    <rect class="cls-9" x="186.79" y="857.39" width="22.85" height="10.78"/>
    <polygon class="cls-4" points="238.56 868.17 215.71 868.17 215.71 854.75 216.26 846.62 237.14 846.62 238.56 854.54 238.56 868.17"/>
    <rect class="cls-9" x="215.71" y="857.39" width="22.85" height="10.78"/>
    <polygon class="cls-4" points="267.49 868.17 244.66 868.17 244.66 854.75 245.18 846.62 266.06 846.62 267.49 854.54 267.49 868.17"/>
    <rect class="cls-9" x="244.66" y="857.39" width="22.85" height="10.78"/>
    <polygon class="cls-4" points="296.43 868.17 273.58 868.17 273.58 854.75 274.11 846.62 294.99 846.62 296.43 854.54 296.43 868.17"/>
    <rect class="cls-9" x="273.58" y="857.39" width="22.85" height="10.78"/>
    <polygon class="cls-4" points="325.35 868.17 302.5 868.17 302.5 854.75 303.03 846.62 323.91 846.62 325.35 854.54 325.35 868.17"/>
    <rect class="cls-9" x="302.5" y="857.39" width="22.85" height="10.78"/>
    <polygon class="cls-4" points="354.27 868.17 331.42 868.17 331.42 854.75 331.95 846.62 352.83 846.62 354.27 854.54 354.27 868.17"/>
    <rect class="cls-9" x="331.42" y="857.39" width="22.85" height="10.78"/>
    <polygon class="cls-4" points="139.47 842.01 121.98 842.01 121.98 831.73 122.39 825.52 138.37 825.52 139.47 831.57 139.47 842.01"/>
    <rect class="cls-9" x="121.98" y="834.88" width="17.49" height="7.13"/>
    <polygon class="cls-4" points="183.72 842.01 166.24 842.01 166.24 831.73 166.64 825.52 182.63 825.52 183.72 831.57 183.72 842.01"/>
    <rect class="cls-9" x="166.24" y="834.88" width="17.49" height="7.13"/>
    <polygon class="cls-4" points="205.86 842.01 188.38 842.01 188.38 831.73 188.78 825.52 204.77 825.52 205.86 831.57 205.86 842.01"/>
    <rect class="cls-9" x="188.38" y="834.88" width="17.49" height="7.13"/>
    <polygon class="cls-4" points="227.98 842.01 210.51 842.01 210.51 831.73 210.92 825.52 226.88 825.52 227.98 831.57 227.98 842.01"/>
    <rect class="cls-9" x="210.51" y="834.88" width="17.49" height="7.13"/>
    <polygon class="cls-4" points="250.12 842.01 232.63 842.01 232.63 831.73 233.04 825.52 249.02 825.52 250.12 831.57 250.12 842.01"/>
    <rect class="cls-9" x="232.63" y="834.88" width="17.49" height="7.13"/>
    <polygon class="cls-4" points="272.26 842.01 254.77 842.01 254.77 831.73 255.18 825.52 271.16 825.52 272.26 831.57 272.26 842.01"/>
    <rect class="cls-9" x="254.77" y="834.88" width="17.49" height="7.13"/>
    <polygon class="cls-4" points="294.5 842.01 277.03 842.01 277.03 831.73 277.44 825.52 293.4 825.52 294.5 831.57 294.5 842.01"/>
    <rect class="cls-9" x="277.03" y="834.88" width="17.49" height="7.13"/>
    <polygon class="cls-4" points="316.76 842.01 299.27 842.01 299.27 831.73 299.68 825.52 315.66 825.52 316.76 831.57 316.76 842.01"/>
    <rect class="cls-9" x="299.27" y="834.88" width="17.49" height="7.13"/>
    <polygon class="cls-4" points="339.02 842.01 321.53 842.01 321.53 831.73 321.94 825.52 337.92 825.52 339.02 831.57 339.02 842.01"/>
    <rect class="cls-9" x="321.53" y="834.88" width="17.49" height="7.13"/>
    <polygon class="cls-4" points="361.26 842.01 343.79 842.01 343.79 831.73 344.18 825.52 360.16 825.52 361.26 831.57 361.26 842.01"/>
    <rect class="cls-9" x="343.79" y="834.88" width="17.49" height="7.13"/>
    <polygon class="cls-4" points="386.67 842.01 369.18 842.01 369.18 831.73 369.59 825.52 385.57 825.52 386.67 831.57 386.67 842.01"/>
    <rect class="cls-9" x="369.18" y="834.88" width="17.49" height="7.13"/>
    <polygon class="cls-4" points="412.08 842.01 394.59 842.01 394.59 831.73 394.99 825.52 410.98 825.52 412.08 831.57 412.08 842.01"/>
    <rect class="cls-9" x="394.59" y="834.88" width="17.49" height="7.13"/>
    <polygon class="cls-4" points="437.46 842.01 420 842.01 420 831.73 420.4 825.52 436.39 825.52 437.46 831.57 437.46 842.01"/>
    <rect class="cls-9" x="420" y="834.88" width="17.49" height="7.13"/>
    <polygon class="cls-4" points="462.87 842.01 445.39 842.01 445.39 831.73 445.79 825.52 461.78 825.52 462.87 831.57 462.87 842.01"/>
    <rect class="cls-9" x="445.39" y="834.88" width="17.49" height="7.13"/>
    <polygon class="cls-4" points="488.28 842.01 470.79 842.01 470.79 831.73 471.2 825.52 487.18 825.52 488.28 831.57 488.28 842.01"/>
    <rect class="cls-9" x="470.79" y="834.88" width="17.49" height="7.13"/>
    <polygon class="cls-4" points="513.69 842.01 496.2 842.01 496.2 831.73 496.61 825.52 512.59 825.52 513.69 831.57 513.69 842.01"/>
    <rect class="cls-9" x="496.2" y="834.88" width="17.49" height="7.13"/>
    <polygon class="cls-4" points="539.08 842.01 521.61 842.01 521.61 831.73 522.02 825.52 537.98 825.52 539.08 831.57 539.08 842.01"/>
    <rect class="cls-9" x="521.61" y="834.88" width="17.49" height="7.13"/>
    <polygon class="cls-4" points="564.49 842.01 547 842.01 547 831.73 547.4 825.52 563.39 825.52 564.49 831.57 564.49 842.01"/>
    <rect class="cls-9" x="547" y="834.88" width="17.49" height="7.13"/>
    <polygon class="cls-4" points="589.89 842.01 572.41 842.01 572.41 831.73 572.81 825.52 588.8 825.52 589.89 831.57 589.89 842.01"/>
    <rect class="cls-9" x="572.41" y="834.88" width="17.49" height="7.13"/>
    <polygon class="cls-4" points="615.28 842.01 597.82 842.01 597.82 831.73 598.22 825.52 614.21 825.52 615.28 831.57 615.28 842.01"/>
    <rect class="cls-9" x="597.82" y="834.88" width="17.49" height="7.13"/>
    <polygon class="cls-4" points="383.19 868.17 360.34 868.17 360.34 854.75 360.87 846.62 381.75 846.62 383.19 854.54 383.19 868.17"/>
    <rect class="cls-9" x="360.34" y="857.39" width="22.85" height="10.78"/>
    <polygon class="cls-4" points="412.12 868.17 389.27 868.17 389.27 854.75 389.8 846.62 410.69 846.62 412.12 854.54 412.12 868.17"/>
    <rect class="cls-9" x="389.27" y="857.39" width="22.85" height="10.78"/>
    <polygon class="cls-4" points="441.04 868.17 418.19 868.17 418.19 854.75 418.74 846.62 439.62 846.62 441.04 854.54 441.04 868.17"/>
    <rect class="cls-9" x="418.19" y="857.39" width="22.85" height="10.78"/>
    <polygon class="cls-4" points="469.96 868.17 447.13 868.17 447.13 854.75 447.66 846.62 468.54 846.62 469.96 854.54 469.96 868.17"/>
    <rect class="cls-9" x="447.13" y="857.39" width="22.85" height="10.78"/>
    <polygon class="cls-4" points="498.9 868.17 476.05 868.17 476.05 854.75 476.58 846.62 497.46 846.62 498.9 854.54 498.9 868.17"/>
    <rect class="cls-9" x="476.05" y="857.39" width="22.85" height="10.78"/>
    <polygon class="cls-4" points="573.81 866.93 550.96 866.93 550.96 853.49 551.49 845.36 572.37 845.36 573.81 853.3 573.81 866.93"/>
    <rect class="cls-9" x="550.96" y="856.15" width="22.85" height="10.78"/>
    <polygon class="cls-4" points="442.38 891.91 419.53 891.91 419.53 878.47 420.06 870.34 440.94 870.34 442.38 878.29 442.38 891.91"/>
    <rect class="cls-9" x="419.53" y="878.47" width="22.85" height="13.45"/>
    <polygon class="cls-4" points="544.16 891.91 521.31 891.91 521.31 878.47 521.83 870.34 542.71 870.34 544.16 878.29 544.16 891.91"/>
    <rect class="cls-9" x="521.31" y="882" width="22.85" height="9.91"/>
    <polygon class="cls-4" points="573.81 891.91 550.96 891.91 550.96 878.47 551.49 870.34 572.37 870.34 573.81 878.29 573.81 891.91"/>
    <rect class="cls-9" x="550.96" y="882" width="22.85" height="9.91"/>
    <polygon class="cls-4" points="604.09 891.91 581.24 891.91 581.24 878.47 581.77 870.34 602.67 870.34 604.09 878.29 604.09 891.91"/>
    <rect class="cls-9" x="581.24" y="882" width="22.85" height="9.91"/>
    <polygon class="cls-4" points="656.09 892.5 631.86 892.5 631.86 879.4 632.42 871.48 654.56 871.48 656.09 879.22 656.09 892.5"/>
    <rect class="cls-9" x="631.86" y="883.28" width="24.23" height="9.22"/>
    <polygon class="cls-4" points="687.53 892.5 663.3 892.5 663.3 879.4 663.87 871.48 686.02 871.48 687.53 879.22 687.53 892.5"/>
    <rect class="cls-9" x="663.32" y="883.28" width="24.23" height="9.22"/>
    <polygon class="cls-4" points="721.93 892.5 697.7 892.5 697.7 879.4 698.27 871.48 720.41 871.48 721.93 879.22 721.93 892.5"/>
    <rect class="cls-9" x="697.7" y="883.28" width="24.23" height="9.22"/>
    <polygon class="cls-4" points="653.55 867.36 632.57 867.36 632.57 854.93 633.05 847.43 652.23 847.43 653.55 854.77 653.55 867.36"/>
    <rect class="cls-9" x="632.57" y="858.22" width="20.98" height="9.16"/>
    <polygon class="cls-4" points="684.83 867.36 661.98 867.36 661.98 854.93 662.52 847.43 683.4 847.43 684.83 854.77 684.83 867.36"/>
    <rect class="cls-9" x="661.98" y="858.22" width="22.85" height="9.16"/>
    <polygon class="cls-4" points="716.47 867.36 693.64 867.36 693.64 854.93 694.17 847.43 715.05 847.43 716.47 854.77 716.47 867.36"/>
    <rect class="cls-9" x="693.64" y="858.22" width="22.85" height="9.16"/>
    <polygon class="cls-4" points="651.88 843.31 630.98 843.31 630.98 832.57 631.47 826.07 650.58 826.07 651.88 832.4 651.88 843.31"/>
    <rect class="cls-9" x="630.98" y="834.68" width="20.9" height="8.63"/>
    <polygon class="cls-4" points="679.02 843.31 658.12 843.31 658.12 832.57 658.6 826.07 677.72 826.07 679.02 832.4 679.02 843.31"/>
    <rect class="cls-9" x="658.12" y="834.68" width="20.9" height="8.63"/>
    <polygon class="cls-4" points="706.13 843.31 685.23 843.31 685.23 832.57 685.72 826.07 704.83 826.07 706.13 832.4 706.13 843.31"/>
    <rect class="cls-9" x="685.23" y="834.68" width="20.9" height="8.63"/>
    <polygon class="cls-4" points="415.51 891.91 213.8 891.91 213.8 878.47 218.5 870.34 410.67 870.34 415.51 878.29 415.51 891.91"/>
    <rect class="cls-9" x="213.8" y="878.47" width="201.7" height="13.45"/>
    <path class="cls-7" d="M755.67,902.39c0,.28-155.36.53-346.92.53s-346.94-.24-346.94-.53,155.31-.55,346.94-.55,346.92.24,346.92.55Z"/>
  </g>
  <g id="freepik--Computer--inject-2">
    <polygon class="cls-4" points="318.91 658.63 355.59 593.7 679.97 593.7 727.62 658.63 318.91 658.63"/>
    <polygon class="cls-5" points="318.91 658.63 355.59 593.7 679.97 593.7 727.62 658.63 318.91 658.63"/>
    <polygon class="cls-4" points="374.07 640.61 399.48 585.16 640.43 585.16 671.44 640.61 374.07 640.61"/>
    <path class="cls-4" d="M437.99,585.18v23.01s22.61,13.02,85.47,13.02,79.72-16.51,79.72-16.51v-19.52h-165.19Z"/>
    <path class="cls-5" d="M437.99,585.18v23.01s22.61,13.02,85.47,13.02,79.72-16.51,79.72-16.51v-19.52h-165.19Z"/>
    <path class="cls-4" d="M412.22,573.45s36.21,26.4,119.83,22.79c83.62-3.62,101.23-25.92,101.23-25.92h-221.06v3.13Z"/>
    <path class="cls-10" d="M412.22,573.45s36.21,26.4,119.83,22.79c83.62-3.62,101.23-25.92,101.23-25.92h-221.06v3.13Z"/>
    <rect class="cls-4" x="267.97" y="129.58" width="510.97" height="443.26"/>
    <rect class="cls-9" x="309.2" y="175.91" width="423.07" height="315.56"/>
    <rect class="cls-7" x="317.45" y="184.26" width="406.8" height="299.7"/>
    <path class="cls-2" d="M317.45,395.36s166.55-22.81,176.19-61.26c9.65-38.45,7.88-149.85,7.88-149.85h-184.07v211.11Z"/>
    <polygon class="cls-9" points="309.2 175.91 317.45 184.26 724.25 184.26 732.27 175.91 309.2 175.91"/>
    <path class="cls-7" d="M778.94,534.57c0,.3-114.51.53-255.71.53s-255.73-.22-255.73-.53,114.47-.55,255.73-.55,255.71.24,255.71.55Z"/>
    <path class="cls-7" d="M318.91,573.45c-.52-6.42-.7-12.86-.53-19.29-.17-6.44,0-12.88.53-19.29.55,6.42.73,12.86.55,19.29.18,6.44,0,12.88-.55,19.29Z"/>
    <path class="cls-7" d="M420.06,573.45c-.55-6.42-.73-12.86-.55-19.29-.18-6.44,0-12.88.55-19.29.55,6.42.73,12.86.55,19.29.18,6.44,0,12.88-.55,19.29Z"/>
    <path class="cls-7" d="M621.86,572.84c-.55-6.31-.73-12.65-.55-18.99-.18-6.34,0-12.68.55-18.99.52,6.32.7,12.66.53,18.99.17,6.34,0,12.67-.53,18.99Z"/>
    <rect class="cls-9" x="667.99" y="534.57" width="24.15" height="38.26"/>
    <rect class="cls-7" x="674.26" y="534.86" width="11.6" height="28.31"/>
    <path class="cls-7" d="M724.31,572.71c-.55-6.38-.73-12.79-.55-19.19-.18-6.4,0-12.81.55-19.19.55,6.38.73,12.79.55,19.19.18,6.4,0,12.81-.55,19.19Z"/>
    <rect class="cls-10" x="374.07" y="640.61" width="297.37" height="12.8"/>
    <rect class="cls-4" x="318.91" y="658.63" width="408.69" height="116.18"/>
    <path class="cls-7" d="M522.75,706.09c0-.16,0-.31,0-.47v-6.7c0-4.69,0-11.52-.14-20.31l.26.26-170.73.26h0c-.12.12,1.02-1.02.55-.53h0v27.44l-.53-.53,121.4.22,36.11.16h13.22c-.27.02-.54.02-.81,0h-12.15l-36.13.49-121.86.24h-.55v-27.99h0l.55-.55h0l170.73.26h.28v.28c0,8.86-.12,15.74-.16,20.47v6.58c0,.32-.02.41-.04.39Z"/>
    <path class="cls-10" d="M359.05,678.61c.24,0,0,19.09,0,19.09h163.7v8.39h-170.73v-27.48h7.03Z"/>
    <path class="cls-7" d="M511.88,718.75c.53-.16,1.03-.4,1.48-.71.45-.38.75-.9.85-1.48.03-.41.03-.81,0-1.22,0-.41-.11-.82-.32-1.18-.48-.83-1.43-1.28-2.38-1.14h-12.25c-1.2,0-2.17.99-2.16,2.19,0,.04,0,.08,0,.13-.09.6,0,1.22.28,1.77.27.48.72.84,1.24,1.02.59.08,1.18.08,1.77,0h5.04c2.15-.06,4.29.07,6.42.39-2.13.31-4.27.43-6.42.39h-5.04c-.68.06-1.36.03-2.03-.1-.77-.23-1.43-.74-1.85-1.42-.38-.71-.54-1.51-.47-2.32-.08-1.8,1.32-3.33,3.12-3.41.03,0,.07,0,.1,0h12.25c1.26-.1,2.46.55,3.07,1.67.24.48.35,1.01.32,1.54.03.44.03.88,0,1.32-.16.73-.6,1.37-1.22,1.79-1.14,1.08-1.85.81-1.83.79Z"/>
    <path class="cls-7" d="M706.35,718.04c.87-.15,1.69-.48,2.42-.97.79-.62,1.35-1.49,1.56-2.48.06-.63.06-1.27,0-1.91.03-.7-.1-1.39-.39-2.03-.69-1.42-2.14-2.32-3.72-2.3h-19.25c-2.14.01-3.87,1.76-3.86,3.9,0,0,0,.01,0,.02-.12,1.01,0,2.04.39,2.99.41.87,1.14,1.54,2.03,1.89.89.3,1.83.41,2.76.32h7.94l7.39.18c.9-.02,1.81.05,2.7.2-.89.18-1.8.26-2.7.22l-7.39.16h-7.94c-1.06.1-2.13-.02-3.15-.35-1.1-.46-2-1.29-2.54-2.36-.27-.55-.44-1.14-.49-1.75v-1.71c-.02-2.74,2.18-4.97,4.91-5h19.25c1.91-.02,3.65,1.11,4.41,2.86.3.74.43,1.54.39,2.34.03.68-.03,1.36-.16,2.03-.28,1.1-.96,2.05-1.91,2.68-.61.4-1.31.64-2.03.69-.39.45-.63.39-.63.35Z"/>
    <rect class="cls-7" x="689.17" y="727.4" width="15.03" height="3.27"/>
    <path class="cls-7" d="M702.09,742.73c0,2.98-2.42,5.4-5.4,5.4s-5.4-2.42-5.4-5.4,2.42-5.4,5.4-5.4,5.4,2.42,5.4,5.4h0Z"/>
    <polygon class="cls-9" points="309.2 491.47 317.45 483.96 724.25 483.96 732.27 491.47 309.2 491.47"/>
    <rect class="cls-9" x="724.31" y="534.33" width="9.89" height="38.39"/>
    <rect class="cls-9" x="309.2" y="534.33" width="9.87" height="39.12"/>
    <path class="cls-7" d="M648.57,572.82c0,.3-58.58.69-130.82.85-72.24.16-130.82,0-130.82-.22s58.56-.69,130.82-.85c72.26-.16,130.82-.08,130.82.22Z"/>
    <path class="cls-7" d="M399.48,585.18c.26.12-5.2,12.63-12.19,27.93-6.99,15.29-12.94,27.62-13.2,27.5s5.18-12.63,12.19-27.95c7.01-15.31,12.92-27.62,13.2-27.48Z"/>
    <path class="cls-7" d="M640.43,585.18c.26-.16,7.41,12.19,15.98,27.44,8.57,15.25,15.29,27.85,15.03,27.99s-7.41-12.19-15.98-27.46c-8.57-15.27-15.31-27.83-15.03-27.97Z"/>
    <ellipse class="cls-10" cx="600.66" cy="696.41" rx="23.09" ry="21.63"/>
    <rect class="cls-7" x="541.13" y="689.44" width="119.08" height="8.96"/>
    <rect class="cls-7" x="682.65" y="689.44" width="28.09" height="8.96"/>
  </g>
  <g id="freepik--Mouse--inject-2">
    <path class="cls-7" d="M880.72,860.49c-2.03-7.31,4.77-13.24,11.13-15.13,6.7-2.03,13.87-1.48,20.7-2.95,5.97-1.3,11.94-4.22,15.03-9.77,2.59-4.81,2.34-10.65-.63-15.23-5.06-8.39-14.91-10.56-23.82-12.35-10.02-1.9-20.15-3.21-30.32-3.92-27.93-2.09-55.98-1.93-83.88.49-27.08,2.23-54.22,4.03-81.4,5.4-34.53,1.73-69.16,3.03-103.58,1.34-12.19-.61-24.78-1.36-36.72-4.31-3.42-.71-6.72-1.92-9.79-3.57-.29-.17-.57-.36-.83-.57-.14-.12-.24-.26-.39-.37s0,0,0,0c0,0-.18.14,0,0,4.98-2.34,12.19-2.42,18.04-2.76,12.19-.71,24.37-.83,36.56-.97,32.37-.32,64.77-.16,97.12-1.28,15.05-.53,30.12-1.26,45.11-2.84,10.7-1.12,21.73-2.4,31.99-5.85,3.55-1.2,20.92-7.94,15.52-13.83-2.38-2.6-7.31-2.88-10.56-3.27-6.45-.65-12.93-.94-19.42-.85-15.76,0-31.5.65-47.26.63-10.4,0-34.24,1.22-30.18-15.27.94-3.6,2.56-6.98,4.79-9.95,1-1.34-1.26-2.66-2.25-1.32-5.85,7.86-9.2,20.78,1.69,26,6.09,2.9,13.3,2.95,19.9,3.09,7.39.16,14.77,0,22.16-.12,15.25-.28,30.65-1.04,45.9,0,3.88.26,9.34.2,12.73,2.42.85.53,1,.79.75,1.3-.98,1.52-2.35,2.76-3.96,3.57-8.41,5.4-18.14,7.49-27.89,9.06-13.66,2.01-27.41,3.31-41.21,3.88-32.66,1.73-65.4,1.71-98.08,1.91-13.91,0-27.83.16-41.72.61-8.84-.05-17.67.63-26.4,2.03-1.97.16-3.85.91-5.38,2.17-1.38,1.6-.26,3.29,1.18,4.31,2.64,1.68,5.54,2.91,8.59,3.64,5.01,1.36,10.12,2.36,15.27,2.97,14.32,1.73,28.72,2.62,43.14,2.68,17.51.3,35.02,0,52.52-.57,32.17-1.02,64.34-2.95,96.45-5.36,20.49-1.54,40.82-3.43,61.42-3.39,22.06,0,44.48.81,66.23,4.67,8.92,1.58,20.31,3.19,25.53,11.5,3.95,5.89,2.38,13.86-3.51,17.81-.25.16-.5.32-.75.47-6.09,3.94-13.65,3.96-20.62,4.69-6.09.63-12.19,1.83-16.76,6.09-4.04,3.34-5.85,8.68-4.65,13.79.19.7.91,1.1,1.6.91.7-.19,1.1-.91.91-1.6h0Z"/>
    <path class="cls-4" d="M776.08,882.9c-2.08-2.75-3.25-6.08-3.35-9.53-.2-4.61-.43-11.88.2-12.51s8.29-34.69,99.52-13.2c0,0,42.04,11.66,45.11,35v11.78c.04,5.08-2.38,9.86-6.5,12.84-6.09,4.24-17.12,8.59-37.09,7.29-45.37-2.92-85.81-16.41-97.9-31.66Z"/>
    <path class="cls-7" d="M776.08,882.9l.63.61,1.75,1.85c.79.79,1.91,1.62,3.13,2.7,1.22,1.08,2.86,2.03,4.63,3.23,4.41,2.7,9.02,5.06,13.79,7.07,6.36,2.6,12.87,4.84,19.48,6.72,17.35,4.75,35.13,7.73,53.07,8.9,5.18.42,10.39.42,15.58,0,5.4-.39,10.72-1.58,15.78-3.51,2.57-1.04,5-2.41,7.23-4.06,2.19-1.71,3.86-3.99,4.81-6.6.49-1.31.79-2.67.91-4.06.1-1.38,0-2.88,0-4.33v-8.77c-.47-3.21-1.62-6.27-3.37-9-3.4-5.04-7.81-9.32-12.94-12.57-4.95-3.27-10.19-6.06-15.66-8.35-10.64-4.89-21.89-6.58-32.5-8.61-5.3-.79-10.46-1.81-15.54-2.15l-7.47-.73-7.29-.22-3.53-.1-3.47.16c-2.3.14-4.57.16-6.76.39l-6.44.89c-2.03.35-4.06.95-6.09,1.4-7.76,2.15-14.52,5.63-18.67,10.56-1.99,2.18-3.49,4.76-4.39,7.58-.17,2.51-.21,5.02-.12,7.54,0,2.04.11,4.07.32,6.09.21,1.45.61,2.86,1.18,4.2.51,1.1,1.1,2.16,1.79,3.17-.85-.9-1.54-1.94-2.03-3.07-.63-1.35-1.08-2.79-1.32-4.27-.25-2.02-.4-4.06-.43-6.09-.13-2.54-.13-5.08,0-7.62.9-2.92,2.41-5.62,4.45-7.9,4.2-5.1,11.09-8.69,18.93-10.93,2.03-.45,4.06-1.1,6.09-1.44l6.5-.93c2.21-.24,4.49-.28,6.8-.43l3.49-.18,3.57.1,7.33.18,7.51.71c5.1.35,10.28,1.34,15.62,2.03,1.32.22,2.68.41,4.06.65l4.06.85,8.12,1.73c1.38.3,2.76.53,4.06.91,1.3.39,2.74.85,4.06,1.34,2.74.93,5.46,2.03,8.12,3.15,5.53,2.31,10.83,5.13,15.84,8.43,5.26,3.34,9.78,7.73,13.26,12.9,1.83,2.86,3.03,6.07,3.51,9.42h0v13.24c-.13,1.49-.46,2.96-.97,4.37-1.04,2.79-2.83,5.24-5.18,7.07-2.31,1.67-4.83,3.04-7.49,4.06-5.15,1.99-10.58,3.18-16.09,3.55-5.23.44-10.49.44-15.72,0-18-1.22-35.84-4.28-53.21-9.14-6.63-1.92-13.14-4.24-19.5-6.93-4.79-2.04-9.4-4.46-13.79-7.25-1.77-1.2-3.31-2.3-4.59-3.33s-2.32-2.03-3.09-2.8l-1.69-1.91c-.06-.15-.12-.31-.16-.47Z"/>
    <path class="cls-7" d="M917.48,882.65s0,.63-.75,1.32c-1.15.92-2.47,1.61-3.88,2.03-5.16,1.65-10.49,2.7-15.88,3.13-6.8.73-14.93,1.2-23.95,1.28-9.82.01-19.61-.82-29.29-2.48-9.67-1.63-19.21-3.9-28.58-6.8-8.65-2.64-16.25-5.38-22.63-7.98-6.38-2.6-11.35-4.87-14.77-6.56-1.71-.85-3.05-1.52-3.92-2.03-.46-.24-.9-.5-1.32-.79.49.14.97.34,1.42.59l4.06,1.83c3.47,1.56,8.53,3.74,14.87,6.22,6.34,2.48,13.99,5.18,22.63,7.76,9.33,2.83,18.82,5.06,28.43,6.68,17.52,2.79,35.32,3.3,52.97,1.52,5.36-.37,10.66-1.3,15.82-2.76,1.39-.4,2.71-1.04,3.88-1.89.39-.26.69-.62.87-1.06Z"/>
    <path class="cls-7" d="M836.34,841.89c0,.2-3.39,0-8.71.93-14.02,2.34-26.34,10.62-33.8,22.73-2.84,4.57-3.96,7.78-4.06,7.7.11-.81.33-1.59.67-2.34.77-2.01,1.7-3.96,2.78-5.83,7.26-12.61,19.95-21.13,34.37-23.07,2.13-.3,4.28-.44,6.44-.41.78,0,1.56.1,2.32.28Z"/>
  </g>
</svg>