<?xml version="1.0" encoding="UTF-8"?>
<svg id="Layer_2" data-name="Layer 2" xmlns="http://www.w3.org/2000/svg" viewBox="0 0 1000 1000">
  <defs>
    <style>
      .cls-1 {
        fill: #000;
      }

      .cls-1, .cls-2, .cls-3, .cls-4, .cls-5, .cls-6, .cls-7, .cls-8, .cls-9, .cls-10, .cls-11 {
        stroke-width: 0px;
      }

      .cls-2 {
        fill: #e0e0e0;
      }

      .cls-12 {
        opacity: .5;
      }

      .cls-13 {
        opacity: .2;
      }

      .cls-3 {
        fill: #eb996e;
      }

      .cls-4 {
        fill: #455a64;
      }

      .cls-5 {
        fill: #09f;
      }

      .cls-6 {
        fill: #ffbe9d;
      }

      .cls-7 {
        fill: #ebebeb;
      }

      .cls-8 {
        fill: #40bbff;
      }

      .cls-9 {
        fill: #263238;
      }

      .cls-10 {
        fill: #fafafa;
      }

      .cls-14 {
        opacity: .3;
      }

      .cls-11 {
        fill: #fff;
      }

      .cls-15 {
        opacity: .4;
      }
    </style>
  </defs>
  <g id="freepik--background-complete--inject-6">
    <rect class="cls-7" x="168.78" y="468.68" width="184.5" height="273.73" transform="translate(-396.64 653.49) rotate(-70.85)"/>
    <path class="cls-2" d="M420.56,563.26c-1.02.6-2.09,1.1-3.21,1.49l-9.39,3.8-34.73,13.59-115.17,44.08-.96.35-.54-.86-1.33-2.08-66.37-105.9-19.88-32.24-5.29-8.83c-.65-1.01-1.22-2.07-1.68-3.17.79.9,1.5,1.87,2.1,2.91l5.69,8.58,20.54,31.89,67.01,105.52c.44.72.89,1.43,1.31,2.08l-1.49-.5,115.44-43.38,35.02-12.91,9.56-3.36c1.09-.46,2.22-.81,3.38-1.04Z"/>
    <path class="cls-2" d="M101.48,647.85c-.35-.59,27.39-17.72,61.95-38.27,34.56-20.56,62.88-36.73,63.23-36.14s-27.39,17.72-61.97,38.27c-34.58,20.56-62.86,36.64-63.21,36.14Z"/>
    <path class="cls-2" d="M313.37,601.01c.64-.22,11.62,30.23,24.52,67.86,12.9,37.64,22.82,68.45,22.17,68.67s-11.62-30.23-24.52-67.86c-12.9-37.64-22.82-68.45-22.17-68.67Z"/>
    <rect class="cls-2" x="681.99" y="448.6" width="259.52" height="174.93" transform="translate(-78.17 143.19) rotate(-9.62)"/>
    <path class="cls-7" d="M925.04,428.22c-.57.96-1.24,1.87-1.98,2.7l-6.06,7.44-22.67,27.14c-19.46,22.96-46.1,54.38-75.57,89.18l-.62.74-.84-.47-2.05-1.13-103.48-57.74-31.22-17.73-8.4-4.92c-1.01-.52-1.97-1.15-2.85-1.86,1.07.39,2.1.88,3.09,1.44l8.65,4.55,31.59,17.06,103.82,57.1,2.05,1.13-1.46.27,76.14-88.72,23.23-26.65c2.67-2.97,4.79-5.36,6.4-7.17.69-.84,1.44-1.63,2.25-2.35Z"/>
    <path class="cls-7" d="M698.4,644.04c-.55-.34,14.68-27.24,34.02-60.09,19.35-32.85,35.5-59.22,36.06-58.88.55.34-14.68,27.22-34.02,60.09-19.35,32.87-35.5,59.2-36.06,58.88Z"/>
    <path class="cls-7" d="M853.18,508.46c.44-.47,23.51,19.77,51.34,45.23,27.83,25.46,50.2,46.49,49.74,47.02s-23.41-19.8-51.34-45.23c-27.93-25.43-50.25-46.5-49.74-47.02Z"/>
    <rect class="cls-7" x="670.23" y="153.37" width="125.94" height="186.85" transform="translate(235.17 838.79) rotate(-68.53)"/>
    <path class="cls-2" d="M843.13,223.95c-.71.39-1.46.7-2.23.92l-6.5,2.35-24.07,8.31-79.79,26.87-.65.22-.34-.6-.84-1.44-42.3-74.08c-5.29-9.39-9.59-17.05-12.66-22.54l-3.36-6.16c-.43-.7-.79-1.45-1.07-2.22.52.63.98,1.31,1.38,2.03.91,1.53,2.12,3.53,3.64,6.01l13.13,22.29c11.02,19.03,26.11,45.06,42.77,73.89l.84,1.46-.99-.39,79.92-26.4,24.18-7.88,6.6-1.96c.76-.29,1.54-.52,2.33-.69Z"/>
    <path class="cls-2" d="M623.17,272.79c-.24-.4,19.16-11.34,43.31-24.4,24.15-13.07,43.9-23.31,44.12-22.91s-19.15,11.34-43.31,24.35c-24.17,13.02-43.9,23.38-44.12,22.96Z"/>
    <path class="cls-2" d="M768.97,246.74c.45-.13,7.1,20.91,14.85,47.02,7.74,26.11,13.69,47.33,13.23,47.46s-7.1-20.89-14.85-47.02c-7.74-26.13-13.69-47.33-13.23-47.46Z"/>
  </g>
  <g id="freepik--Floor--inject-6">
    <path class="cls-9" d="M981.28,842.79c0,.24-215.5.44-481.27.44s-481.3-.2-481.3-.44,215.45-.44,481.3-.44,481.27.18,481.27.44Z"/>
  </g>
  <g id="freepik--Character--inject-6">
    <path class="cls-9" d="M211.65,271.21c11.59-5.83,20.65-1.96,25.02,1.64,4.37,3.61,6.91,8.98,8.4,14.44,1.49,5.46,2.06,11.12,3.23,16.63.73,3.18,1.23,6.42,1.5,9.67.53,4.73.09,13.12-2.43,17.16-2.42,3.88-5.01,7.32-8.92,9.73-1.4.87-3.05,1.76-4.6,1.22-1.13-.39-1.88-1.44-2.53-2.44-11.93-18.05-21.14-37.77-27.34-58.5"/>
    <path class="cls-4" d="M236.14,340.52l.2-.1.59-.34c.75-.44,1.47-.91,2.16-1.43,1.09-.82,2.1-1.72,3.04-2.7,1.26-1.29,2.37-2.7,3.33-4.21,2.52-3.93,4.03-8.38,4.4-12.97.38-5.63-.73-11.25-3.23-16.32-1.26-2.62-2.84-5.1-4.7-7.36-1.75-2.09-3.65-4.05-5.69-5.88-1.93-1.76-3.82-3.37-5.58-4.89-1.75-1.52-3.36-2.96-4.77-4.32-2.26-2.14-4.26-4.51-5.97-7.09-.29-.46-.57-.86-.77-1.23-.2-.37-.36-.67-.51-.93l-.32-.57c-.03-.07-.07-.13-.12-.19.02.07.05.14.09.21l.29.57c.13.26.29.57.48.95s.46.78.75,1.25c1.68,2.61,3.67,5.02,5.92,7.18,1.41,1.38,2.99,2.84,4.76,4.36,1.77,1.52,3.63,3.16,5.55,4.91,2.02,1.82,3.91,3.78,5.65,5.86,1.84,2.26,3.4,4.72,4.65,7.33,2.46,5.02,3.55,10.58,3.17,16.15-.35,4.55-1.82,8.96-4.3,12.87-1.66,2.64-3.78,4.98-6.26,6.92-.9.67-1.6,1.17-2.12,1.47l-.59.37c-.05.04-.1.08-.14.13Z"/>
    <path class="cls-6" d="M66.21,384.96l24.02-8.51-10.33-13.79c-.51-3.05-.76-6.13-.74-9.22,0-1.59.28-3.17.81-4.67.58-1.89,1.43-3.68,2.5-5.34.7-.73.67-1.89-.07-2.59-.43-.41-1.03-.58-1.61-.47-1.68.42-4.84,4.25-6.26,9.93-1.43,5.68-5.32-2.69-6.72-5.69s-6.47-12.14-7.76-12.43c-1.88-.42-2.67,1.53-1.13,4.5,1.55,2.97,5.53,12.24,3.88,12.95-1.65.71-8.88-14.78-8.88-14.78,0,0-1.01-3.56-2.92-2.8-3.46,1.34,5.49,17.21,6.38,18.69.62,1.04-1.13,1.86-1.68.72s-6.9-15.6-10.43-14.26c-2.7,1.02,7.24,13.12,6.89,16.79s-6.6-9.93-9.15-8.85c-.94.4-1.68.84,3.12,8.16,2.35,3.43,4.88,6.73,7.57,9.89h0l12.55,21.73"/>
    <path class="cls-8" d="M282.37,414.31s-11.86-27.68-20.04-41.13c-7.71-12.66-17.92-14.71-23.36-15.11-2.26-.69-4.57-1.17-6.92-1.43l-44.42-.35c-9.71.09-19.09,3.53-26.55,9.74-2.07,1.68-17.43,19.51-37.84,44.91l-35.69-38.63-21.28,12.6s23.11,79.79,52.06,74.31c17.23-3.21,30.67-15.16,30.67-15.16l22.59-18.2.52,3.02c.45,3.68,1.6,9.62,2.47,13.22,2.72,11.4,4.25,26.42-1.68,36.36,0,0-8.04,6.16-1.68,12.93h83.72s11.86-8.04,1.02-16.98l-6.72-16.98,4.38-20.72,1.68-8.3,7.37,12.63s14.58,18.34,29.74,16.09c18.22-2.72,28.78-35.92,12.34-79.82l-19.82,6.03-2.59,30.98Z"/>
    <g class="cls-15">
      <polygon class="cls-1" points="66.21 384.96 68.31 391.61 91.96 377.18 87.49 372.36 66.21 384.96"/>
    </g>
    <g class="cls-13">
      <path class="cls-1" d="M172.89,478.45c7.11-1.06,13.48-4.98,17.63-10.85,4.35-5.91,6.17-13.31,5.04-20.56-.19-2.58-1.45-4.96-3.49-6.55-2.64-1.68-6.25-.81-8.98-2.27-2.25-1.19-3.44-3.64-5.04-5.66s-3.73-5.14-6.05-4.13c0,0,2.8,14.78,4.03,21.36,1.23,6.58,1.68,16.04-.69,22.94-.61,1.99-1.43,3.9-2.45,5.71Z"/>
    </g>
    <path class="cls-9" d="M119.82,424.49c.02-2.37.44-4.71,1.24-6.94.51-2.3,1.22-4.54,2.12-6.72,0,2.37-.42,4.71-1.24,6.94-.51,2.3-1.22,4.54-2.12,6.72Z"/>
    <path class="cls-9" d="M125.12,420.88c-1.27-3.17-1.95-6.54-2.02-9.96.77,1.53,1.26,3.19,1.44,4.89.48,1.65.67,3.36.57,5.07Z"/>
    <polygon class="cls-4" points="284.77 323.12 254.37 372.36 278.29 379.03 304.82 338.1 284.77 323.12"/>
    <path class="cls-6" d="M282.87,365.07l1.02,7.2,4.25,5.46.42,4.47,15.25-4.64-6.16-21.83c.49-2.94.7-5.92.6-8.9l-4.2,5.56-1.16-9.07-8.58-6.9c-.93-.69-2.25-.49-2.93.45,0,0,0,0,0,0h0c-.6.83-.51,1.98.22,2.7l6.9,6.08.45,7.51-5.04-4.64c-.49-.46-1.1-.77-1.76-.91l-6.94-1.39c-.98-.19-1.94.45-2.13,1.44-.01.05-.02.11-.02.16h0c-.09.86.44,1.66,1.26,1.91l6.31,1.93,6.38,6.45-6.25-2.38-8.48,1.19c-.82.13-1.42.85-1.41,1.68h0c0,.93.75,1.68,1.68,1.68l5.39-.3,3.17.99-7.29,1.93c-.68.17-1.14.8-1.09,1.49h0c.03.81.72,1.43,1.52,1.4.02,0,.04,0,.06,0l8.55-.72Z"/>
    <g class="cls-15">
      <polygon class="cls-1" points="284.87 383.33 284.21 391.39 307.34 385.02 304.69 377.3 284.87 383.33"/>
    </g>
    <path class="cls-9" d="M254.37,372.43s-2.05-2.77-1.88-3.24,28.92-47.81,28.92-47.81l3.36,1.81-30.4,49.24Z"/>
    <path class="cls-9" d="M292.38,335.48c.41-.41,1.08-.41,1.5,0,.41.41.41,1.08,0,1.5-.26.26-.62.36-.98.29-.58-.18-.91-.8-.73-1.39.03-.1.08-.2.14-.29"/>
    <path class="cls-10" d="M273.28,396.26c-.21.45-.51.85-.87,1.19-1.05.98-2.34,1.65-3.75,1.95-2.22.45-4.5.45-6.72,0-2.82-.67-5.74-.8-8.62-.39-3.37.98-6.47,2.7-9.09,5.04-3.01,2.3-6.18,5.16-10.45,6.5-2.18.62-4.47.8-6.72.52-2.31-.35-4.56-.98-6.72-1.86-4.4-1.68-8.62-4.16-13.25-5.84-4.47-1.74-9.36-2.08-14.02-.97-4.55.94-8.82,2.52-13.07,3.36-7.59,1.64-15.52.54-22.39-3.09-4.65-2.4-8.68-5.85-11.76-10.08-1.12-1.53-2.06-3.18-2.8-4.92.12,0,.92,1.81,3.09,4.72,3.15,4.06,7.16,7.37,11.76,9.67,6.77,3.49,14.55,4.5,21.98,2.85,4.18-.91,8.4-2.5,13.07-3.48,4.82-1.16,9.89-.81,14.51.99,4.74,1.68,8.97,4.16,13.28,5.88,2.09.86,4.28,1.48,6.52,1.83,2.14.26,4.31.1,6.38-.47,4.03-1.24,7.19-4,10.21-6.3,2.72-2.37,5.94-4.09,9.42-5.04,2.95-.4,5.95-.23,8.83.5,2.14.49,4.35.54,6.52.17,1.36-.23,2.63-.81,3.69-1.68.33-.33.65-.69.94-1.06Z"/>
    <path class="cls-9" d="M282.85,428.25c-.53-2.44-.76-4.94-.69-7.44-.23-2.49-.16-5,.22-7.47.53,2.44.76,4.94.69,7.44.23,2.49.16,5-.22,7.47Z"/>
    <path class="cls-6" d="M230.47,737.04c.72,2.92,17.85,98.97,17.85,98.97l26.25-1.96-4.8-98.08-39.3,1.07Z"/>
    <path class="cls-5" d="M275.36,835.57l-.08-2.77-27.96.59.17,9.1h1.68c7.69.25,39.13.77,44.22-.76,5.74-1.66-18.02-6.16-18.02-6.16Z"/>
    <g class="cls-14">
      <path class="cls-1" d="M257.58,842.09c-.5-2.21-1.81-4.16-3.68-5.44-1.91-1.34-4.23-1.96-6.55-1.76l.15,7.24,10.08-.03Z"/>
    </g>
    <g class="cls-14">
      <path class="cls-1" d="M286.99,838.16s8.4,2.07,7.34,3.36-32.8,1.88-46.84.99v-.59l37.08-.37s.81-3.31,2.42-3.39Z"/>
    </g>
    <path class="cls-9" d="M247.08,841.9h1.85l5.04.12c4.28,0,10.18.08,16.71,0,6.53-.08,12.43-.34,16.71-.55l5.04-.29,1.36-.1h.49-1.86l-5.04.18c-4.27.15-10.18.35-16.69.45s-12.43.13-16.71.13h-6.89v.05Z"/>
    <path class="cls-9" d="M284.6,841.94c.2-.79.5-1.55.89-2.27.48-.68,1.05-1.29,1.68-1.83-.85.29-1.56.89-1.98,1.68-.5.7-.71,1.57-.59,2.42Z"/>
    <path class="cls-9" d="M276.3,838.21s.45-.4.86-1.01.64-1.13.55-1.18-.45.4-.84,1.01-.65,1.13-.57,1.18Z"/>
    <path class="cls-9" d="M274.02,837.13s.5-.22.97-.62.79-.79.74-.86-.5.22-.97.62-.81.81-.74.86Z"/>
    <path class="cls-9" d="M272.54,834.72c.47.16.97.21,1.46.15.49.05.98,0,1.44-.17-.47-.15-.97-.2-1.46-.15-.49-.04-.98.02-1.44.17Z"/>
    <path class="cls-9" d="M272.02,833c.5.31,1.09.46,1.68.42.57.09,1.16,0,1.68-.25-.56-.04-1.12-.04-1.68,0-.55-.11-1.12-.16-1.68-.17Z"/>
    <path class="cls-9" d="M277.19,835.94c.6.09,1.2.09,1.8,0,.64-.08,1.27-.23,1.88-.44.38-.1.75-.24,1.09-.44.21-.11.36-.3.42-.52.06-.26-.05-.53-.29-.65-1.4-.65-3.07-.25-4.03.96-.26.33-.45.72-.55,1.13v.45c.16-.52.42-1.01.77-1.43.4-.46.93-.79,1.51-.96.7-.24,1.46-.2,2.13.1.29.18.18.5-.12.67-.32.17-.66.31-1.01.42-.6.21-1.21.37-1.83.49-1.09.22-1.78.22-1.78.22Z"/>
    <path class="cls-9" d="M277.66,835.94c.19-.35.25-.76.17-1.16-.06-.44-.24-.85-.5-1.21-.33-.51-.9-.82-1.51-.82-.36.06-.6.39-.54.75,0,0,0,.01,0,.02.04.27.15.52.32.74.25.37.54.7.87.99.29.3.65.53,1.04.65,0,0-.37-.29-.87-.81-.29-.3-.55-.63-.77-.99-.25-.34-.44-.97,0-1.06.48.05.91.3,1.19.69.26.31.44.68.52,1.07.07.37.09.75.08,1.13Z"/>
    <path class="cls-9" d="M247.49,834.82s.81-.08,2.07,0c1.63.16,3.18.74,4.52,1.68,1.28.91,2.29,2.17,2.89,3.63.45,1.11.5,1.85.57,1.85.04-.17.04-.35,0-.52-.06-.47-.17-.94-.32-1.39-.57-1.54-1.58-2.87-2.92-3.81-1.38-.99-3.01-1.57-4.7-1.68-.51-.05-1.02-.05-1.53,0-.39.17-.57.22-.57.25Z"/>
    <path class="cls-9" d="M261.02,839.5c1.34.27,2.71.37,4.08.3,1.36.04,2.73-.08,4.06-.37,0-.1-1.83,0-4.08,0s-4.05-.02-4.06.07Z"/>
    <path class="cls-9" d="M255.56,839.6s.15.35.35.74.3.72.4.72.13-.42-.1-.86-.59-.67-.65-.6Z"/>
    <path class="cls-9" d="M253.46,837.25s.12.34.4.6.59.44.65.37-.12-.34-.42-.6-.59-.42-.64-.37Z"/>
    <path class="cls-9" d="M250.49,836.23c0,.08.39.08.81.2s.71.32.77.27-.17-.42-.67-.57-.94.02-.91.1Z"/>
    <path class="cls-9" d="M248.38,835.76s.13.2.37.29.45.08.49,0-.13-.22-.37-.3-.45-.07-.49.02Z"/>
    <path class="cls-6" d="M163.7,729.03c-.13,3.01-11.03,96.53-11.03,96.53l25.68,5.69,23.7-95.29-38.34-6.94Z"/>
    <path class="cls-5" d="M179.5,833.74l.59-2.69-27.31-6.1-2,8.88,1.68.47c7.41,2.08,37.82,10.08,43.14,9.79,5.91-.32-16.11-10.36-16.11-10.36Z"/>
    <g class="cls-14">
      <path class="cls-1" d="M160.76,835.94c.05-2.27-.76-4.47-2.27-6.16-1.54-1.76-3.64-2.92-5.95-3.27l-1.58,7.07,9.79,2.37Z"/>
    </g>
    <g class="cls-14">
      <path class="cls-1" d="M190.18,839.03s7.61,4,6.33,5.04c-1.28,1.04-32.29-6-45.73-10.19l.17-.55,36.11,8.4s1.53-2.99,3.12-2.69Z"/>
    </g>
    <path class="cls-9" d="M150.53,833.17l.45.15,1.33.39,4.89,1.31c4.15,1.07,9.87,2.5,16.24,3.95,6.36,1.44,12.16,2.64,16.36,3.44l5.04.92,1.36.22h.49l-.47-.12-1.34-.29-5.04-1.02c-4.2-.87-9.98-2.08-16.34-3.53-6.36-1.44-12.09-2.84-16.26-3.86l-4.87-1.14-1.34-.32c-.16-.06-.32-.09-.49-.1Z"/>
    <path class="cls-9" d="M186.96,842.14c.39-.72.86-1.39,1.41-2,.64-.54,1.34-1,2.08-1.38-.89.1-1.71.51-2.32,1.16-.66.56-1.08,1.35-1.18,2.22Z"/>
    <path class="cls-9" d="M179.79,836.55s.55-.29,1.07-.79.89-.94.82-.99-.54.29-1.06.77-.91.94-.84,1.01Z"/>
    <path class="cls-9" d="M177.82,834.97c.39-.04.77-.17,1.09-.39.55-.29.97-.59.92-.65s-.54.08-1.09.37-.96.59-.92.67Z"/>
    <path class="cls-9" d="M176.97,832.26c-3.79-.07-6.92,2.95-6.99,6.74-.07,3.79,2.95,6.92,6.74,6.99,3.79.07,6.92-2.95,6.99-6.74.06-3.23-2.14-6.06-5.28-6.81-.47-.16-.97-.22-1.46-.18Z"/>
    <path class="cls-9" d="M176.87,830.47c.4.4.92.68,1.48.79.53.21,1.11.27,1.68.17-.51-.21-1.04-.36-1.58-.47-.51-.2-1.04-.36-1.58-.49Z"/>
    <path class="cls-9" d="M181.2,834.55c.54.21,1.1.33,1.68.37.65.06,1.3.06,1.95,0,.39-.02.77-.07,1.14-.17.23-.06.43-.2.55-.4.11-.24.06-.53-.12-.72-1.22-.96-2.93-.96-4.15,0-.34.25-.62.58-.82.96-.13.25-.15.42-.13.42.28-.46.66-.87,1.09-1.19.49-.35,1.08-.54,1.68-.57.73-.07,1.47.15,2.05.6.24.25,0,.52-.29.62-.35.1-.7.16-1.06.18-.63.04-1.27.04-1.9,0-1.01-.02-1.66-.15-1.68-.1Z"/>
    <path class="cls-9" d="M181.64,834.72s.37-.32.45-1.07c.04-.44-.04-.89-.22-1.29-.21-.57-.68-1.01-1.28-1.16-.36-.02-.67.26-.69.62,0,0,0,.01,0,.02-.02.27.03.54.13.79.15.41.35.8.6,1.16.21.36.51.66.86.89,0,0-.29-.37-.65-.99-.21-.36-.38-.75-.52-1.14-.17-.4-.18-1.06.27-1.02s.81.55.99.94c.18.37.27.77.27,1.18-.03.37-.11.74-.22,1.09Z"/>
    <path class="cls-9" d="M152.62,826.39s.79.1,2,.52c1.54.52,2.92,1.44,4,2.65,1.03,1.2,1.7,2.67,1.95,4.23.07.64.1,1.27.1,1.91,0,0,.08-.18.12-.5.05-.48.05-.96,0-1.44-.18-1.62-.85-3.15-1.91-4.38-1.12-1.27-2.58-2.2-4.2-2.69-.49-.15-1-.25-1.51-.3-.18-.03-.36-.03-.54,0Z"/>
    <path class="cls-9" d="M164.64,834.16c1.23.58,2.54,1.01,3.88,1.26,1.32.36,2.68.57,4.05.6,0-.08-1.8-.39-3.96-.91-2.17-.52-3.93-1.04-3.96-.96Z"/>
    <path class="cls-9" d="M159.32,832.95s0,.39.17.81.12.77.22.79.24-.37.12-.84-.44-.81-.5-.76Z"/>
    <path class="cls-9" d="M157.82,830.18s0,.35.27.67.47.55.54.52,0-.35-.25-.67-.47-.57-.55-.52Z"/>
    <path class="cls-9" d="M155.19,828.47c0,.1.37.17.74.39s.62.49.71.45,0-.45-.54-.72-.91-.2-.91-.12Z"/>
    <path class="cls-9" d="M153.25,827.54s.08.24.29.37.42.18.47.1,0-.24-.29-.37-.42-.2-.47-.1Z"/>
    <path class="cls-6" d="M241.96,325.74c1.31-8.26.91-21.83.2-32.93-.6-9.68-8.94-17.04-18.63-16.44-.25.02-.5.04-.75.06l-28.87,3.06c-3.02.31-5.29,2.89-5.22,5.93l2.97,70.92h-6.72v12.85c0,14.69,11.91,26.6,26.6,26.6s26.6-11.91,26.6-26.6v-11.12s-6.92-2.27-11.12-2.03h-1.02c0-6.5.54-11.59.54-11.59,0,0,12.78-2.07,15.42-18.71Z"/>
    <path class="cls-9" d="M237.85,303.57c0,1.16-.91,2.1-2.07,2.15-1.12.09-2.1-.74-2.2-1.85,0-.03,0-.05,0-.08,0-1.16.91-2.1,2.07-2.15,1.13-.09,2.11.76,2.2,1.89,0,.01,0,.03,0,.04Z"/>
    <path class="cls-9" d="M239.22,299.88c-.27.27-1.88-.92-4.18-.92s-3.98,1.16-4.23.87.15-.62.89-1.16c.99-.68,2.16-1.04,3.36-1.04,1.21,0,2.38.37,3.36,1.07.69.54.94,1.04.81,1.18Z"/>
    <path class="cls-9" d="M215.39,303.57c0,1.15-.9,2.1-2.05,2.15-1.12.09-2.1-.74-2.2-1.85,0-.03,0-.05,0-.08-.02-1.16.89-2.11,2.05-2.15,1.13-.09,2.11.76,2.2,1.89,0,.01,0,.03,0,.04Z"/>
    <path class="cls-9" d="M216.65,300.3c-.27.29-1.88-.91-4.18-.91s-3.98,1.16-4.23.87.15-.62.89-1.16c.98-.69,2.16-1.06,3.36-1.04,1.21-.02,2.39.36,3.36,1.07.69.54.94,1.07.81,1.16Z"/>
    <path class="cls-9" d="M224.98,317.33c1.21-.38,2.46-.6,3.73-.67.59,0,1.14-.17,1.24-.57.04-.59-.1-1.17-.39-1.68-.55-1.41-1.13-2.91-1.68-4.47-2.4-6.35-4.15-11.57-3.88-11.67,1.9,3.65,3.51,7.44,4.82,11.34.57,1.58,1.13,3.06,1.68,4.5.37.71.48,1.52.3,2.3-.18.42-.54.73-.97.86-.32.09-.66.13-.99.13-1.29.14-2.58.12-3.86-.07Z"/>
    <path class="cls-3" d="M226.58,344.5c-7.84.12-15.55-1.94-22.29-5.95,0,0,5.41,11.44,22.05,9.87l.24-3.93Z"/>
    <path class="cls-3" d="M224.01,322.87c-.89-1.12-2.29-1.7-3.71-1.55-1.02.1-1.96.61-2.6,1.41-.63.78-.71,1.88-.18,2.74.76.83,1.94,1.13,3.01.76,1.08-.37,2.08-.94,2.94-1.68.26-.19.48-.42.65-.69.18-.26.18-.6,0-.86"/>
    <path class="cls-9" d="M218.23,318.92c.37,0,.37,2.47,2.5,4.23s4.79,1.49,4.8,1.85-.59.49-1.68.52c-1.46.02-2.87-.48-4-1.41-1.09-.88-1.79-2.15-1.95-3.54-.05-1.04.15-1.66.32-1.65Z"/>
    <path class="cls-9" d="M217.68,296.28c-.22.62-2.52.32-5.21.65s-4.87,1.06-5.22.49c-.17-.25.22-.84,1.09-1.44,1.16-.76,2.49-1.23,3.88-1.36,1.38-.17,2.78,0,4.08.47.99.4,1.56.89,1.38,1.19Z"/>
    <path class="cls-9" d="M238.38,295.18c-.4.52-2,0-3.9,0s-3.51.35-3.88-.2c-.17-.27,0-.79.79-1.28.94-.6,2.04-.9,3.16-.86,1.12.02,2.2.38,3.11,1.04.67.5.89,1.04.72,1.29Z"/>
    <path class="cls-9" d="M131.46,732.79s11.24,21.83,40.52,11.22c0,0,28.68,15.58,56.13-1.86,0,0,35.52,4.75,54.85-4.6l-24.79-214.36-3.16-32.92h-78.44s-23.28,10.6-27.02,62.34c-3.75,51.74-11.76,122.81-11.76,122.81l-6.33,57.37Z"/>
    <path class="cls-4" d="M226.43,742.8v-.65c0-.44-.1-1.09-.17-1.9-.13-1.68-.32-4.18-.57-7.32-.47-6.35-1.09-15.55-1.76-26.87-1.36-22.74-2.8-54.21-3.56-89.01s-.67-66.29-.3-89.01c.18-11.4.39-20.62.6-26.99.1-3.16.18-5.61.25-7.34v-1.91c-.02-.21-.02-.43,0-.64.03.21.03.43,0,.64v1.91c0,1.68,0,4.2-.08,7.34,0,6.42-.18,15.64-.32,26.99-.2,22.79-.2,54.28.55,89.01.76,34.73,2.12,66.22,3.36,89.01.62,11.35,1.13,20.54,1.49,26.87.17,3.14.3,5.61.4,7.32,0,.81,0,1.44.08,1.91.02.21.03.43.02.64Z"/>
    <path class="cls-4" d="M233.31,681.44s.17-.24.6-.35c.65-.14,1.32-.06,1.91.24.91.45,1.57,1.28,1.8,2.27.18,1.79-1.12,3.39-2.91,3.57-.8.08-1.61-.14-2.26-.62-.74-.7-1.11-1.71-1.02-2.72.05-.66.32-1.28.77-1.76.32-.32.59-.39.6-.35-.45.63-.71,1.38-.76,2.15,0,.79.34,1.54.92,2.07,1.18.74,2.73.39,3.47-.79.27-.42.4-.91.39-1.41-.14-.78-.62-1.45-1.31-1.85-.68-.37-1.45-.52-2.22-.44Z"/>
    <path class="cls-4" d="M231.56,617.79s.17-.22.6-.34c.65-.15,1.32-.07,1.91.24.93.43,1.59,1.27,1.8,2.27.17,1.79-1.15,3.38-2.94,3.54-.79.07-1.57-.14-2.21-.61-.75-.69-1.13-1.69-1.02-2.7.05-.63.32-1.22.76-1.68.34-.34.59-.39.6-.35-.45.63-.71,1.37-.76,2.13,0,.79.34,1.54.92,2.07,1.16.75,2.71.42,3.46-.74.28-.43.42-.93.4-1.45-.15-.78-.62-1.45-1.29-1.86-.68-.38-1.46-.56-2.23-.52Z"/>
    <path class="cls-4" d="M230.54,561.49s.17-.22.62-.34c.64-.15,1.31-.07,1.9.24.93.43,1.6,1.27,1.81,2.27.17,1.79-1.14,3.38-2.93,3.56-.8.08-1.6-.14-2.24-.62-.74-.69-1.12-1.69-1.02-2.7.05-.66.31-1.28.76-1.76.34-.32.59-.39.62-.35-.46.62-.72,1.36-.77,2.13,0,.79.34,1.55.94,2.07,1.17.74,2.71.4,3.45-.77.27-.42.41-.92.39-1.42-.15-.78-.62-1.45-1.29-1.86-.69-.35-1.46-.5-2.23-.44Z"/>
    <path class="cls-4" d="M228.54,501.27s.17-.24.6-.35c.65-.14,1.33-.05,1.91.25.92.43,1.59,1.27,1.8,2.27.18,1.3-.5,2.57-1.68,3.14-1.11.69-2.52.6-3.54-.2-.74-.7-1.11-1.71-1.02-2.72.07-.63.34-1.22.77-1.68.34-.32.59-.39.6-.35-.45.63-.71,1.38-.76,2.15,0,.79.34,1.54.92,2.07,1.18.74,2.73.39,3.47-.79.27-.42.4-.91.39-1.41-.14-.78-.62-1.45-1.31-1.85-.65-.39-1.41-.57-2.17-.52Z"/>
    <path class="cls-9" d="M190.85,350.45c-8.48,1.23-16.34-4.65-17.57-13.12-.42-2.9-.51-3.31.69-5.99.28-.79,1.64-2.24,2.33-2.72,1.52-.89,3.06-1.61,4.49-.58l10.32,7.4"/>
    <path class="cls-11" d="M183.23,349.12c.04-.05-.66-.61-1.55-1.74-.52-.65-.97-1.35-1.35-2.1-.44-.91-.76-1.87-.97-2.86-.36-1.83-.33-3.71.09-5.53.33-1.39.7-2.21.64-2.23-.12.18-.21.36-.28.56-.23.52-.43,1.06-.57,1.62-.79,2.87-.48,5.94.87,8.6.39.76.87,1.47,1.42,2.12.21.25.43.49.67.72.17.18.35.35.55.5.15.13.32.24.5.34Z"/>
    <path class="cls-9" d="M182.33,289.92c2.93-7.25,8.62-13.16,15.18-17.42,3.52-2.28,7.42-4.18,11.6-4.56,4.18-.38,8.67.93,11.36,4.16l.73.81c-5.01,10.35-8.57,19.12-14.92,28.71-2.33,3.53-3.62,15.7-4.27,19.88-2.22,14.25-10.22,20.17-10.22,20.17-16.91-.44-12.4-44.49-9.47-51.75Z"/>
    <path class="cls-11" d="M180.96,328.23c.01-.06.01-.12,0-.18v-.54c-.03-.24-.03-.54-.03-.89l.02-1.23c.1-2.56.51-5.1,1.23-7.55,1.08-3.63,2.65-7.08,4.65-10.27,2.49-3.88,5.35-7.48,8.53-10.77,3.34-3.56,6.69-6.75,9.67-9.76,2.65-2.64,5.16-5.42,7.53-8.33,1.59-1.98,3.04-4.07,4.35-6.25.48-.78.79-1.39,1-1.81l.25-.48c.03-.05.05-.11.08-.17-.04.05-.08.1-.11.16-.06.12-.15.27-.27.46-.23.42-.59,1.02-1.05,1.79-1.34,2.15-2.81,4.21-4.41,6.17-2.39,2.89-4.92,5.65-7.58,8.28-2.98,3-6.34,6.19-9.7,9.75-3.2,3.3-6.06,6.93-8.55,10.83-2.01,3.21-3.56,6.7-4.62,10.36-.7,2.47-1.08,5.03-1.13,7.61,0,.46,0,.86.01,1.22s.04.65.06.88.03.4.04.55c0,.06,0,.13.02.19Z"/>
    <path class="cls-4" d="M182.14,295.16c.17-.55.38-1.09.65-1.6.35-.59.78-1.12,1.28-1.59.67-.62,1.41-1.15,2.21-1.59,1.72-1.02,4-1.86,6.39-3.01s5.02-2.49,7.68-4.04c4.55-2.65,8.89-5.65,12.98-8.99,1.57-1.29,2.8-2.37,3.63-3.14l.95-.9c.12-.1.22-.21.32-.33-.13.08-.25.18-.36.28l-.98.85c-.86.76-2.11,1.79-3.69,3.07-4.12,3.27-8.46,6.23-13,8.87-2.66,1.55-5.25,2.9-7.66,4.05-2.4,1.15-4.64,2.02-6.38,3.08-.79.46-1.53,1.01-2.2,1.65-.5.49-.93,1.04-1.27,1.66-.12.22-.23.44-.31.67-.07.17-.13.35-.17.53-.04.15-.07.31-.08.46Z"/>
    <path class="cls-4" d="M180.96,328.23c.04.22.11.44.19.64.13.41.36,1,.65,1.71.75,1.87,1.7,3.65,2.83,5.3.63.9,1.32,1.75,2.08,2.54.62.64,1.28,1.22,1.98,1.76.47.36.95.7,1.45,1.01.17.13.36.23.55.31.02-.04-.76-.53-1.91-1.47-.67-.55-1.32-1.15-1.93-1.78-.74-.79-1.42-1.63-2.04-2.52-1.11-1.64-2.07-3.38-2.87-5.21-.29-.67-.53-1.22-.72-1.67-.07-.21-.16-.41-.27-.6Z"/>
    <path class="cls-9" d="M220.3,270.25c27.59-3.14,23.94,38.35,23.94,38.35h0c-2.33-15.39-23.23-31.98-23.23-31.98l-4.31-.85,3.6-5.53Z"/>
  </g>
  <g id="freepik--Message--inject-6">
    <polygon class="cls-5" points="330.78 436.08 726.9 433.2 737.94 702.51 327.76 698.72 330.78 436.08"/>
    <path class="cls-5" d="M330.77,436.08l187.49-151.7c7.94-6.42,19.3-6.38,27.19.1l181.46,148.73"/>
    <g class="cls-14">
      <path class="cls-1" d="M330.77,436.08l187.49-151.7c7.94-6.42,19.3-6.38,27.19.1l181.46,148.73"/>
    </g>
    <path class="cls-9" d="M327.76,698.72c-.49-.47,31.22-35.1,70.84-77.34,39.62-42.24,72.11-76.11,72.62-75.66s-31.22,35.08-70.84,77.34c-39.62,42.25-72.11,76.11-72.62,75.66Z"/>
    <path class="cls-9" d="M737.94,702.51c-.5.45-31.39-33.47-68.97-75.76-37.58-42.29-67.65-76.95-67.18-77.4s31.39,33.47,68.97,75.77c37.58,42.3,67.71,76.93,67.18,77.39Z"/>
    <g class="cls-12">
      <polyline class="cls-1" points="726.9 433.2 527.98 592.11 330.78 436.08"/>
    </g>
    <polygon class="cls-10" points="350.72 450.79 350.11 327.08 696.96 322.97 700.87 453.14 527.96 590.03 350.72 450.79"/>
    <path class="cls-9" d="M350.72,450.79s1.13.84,3.26,2.5l9.4,7.32,35.86,28,128.99,101.13h-.44l172.86-136.94-.17.35c-.74-24.82-1.53-50.89-2.33-77.39-.52-17.85-1.06-35.49-1.58-52.78l.44.42-346.85,3.95.27-.27c.13,38.91.25,69.83.32,91.02v32.68-8.33c0-5.53-.12-13.67-.2-24.25-.13-21.23-.34-52.16-.59-91.12v-.29h.27l346.86-4.25h.42v.44c.52,17.28,1.04,34.91,1.58,52.77.81,26.52,1.58,52.57,2.33,77.4v.22l-.17.13-172.98,136.82-.22.17-.22-.17-128.91-101.47-35.64-28.13-9.4-7.39c-2.12-1.68-3.17-2.55-3.17-2.55Z"/>
    <path class="cls-9" d="M642.14,385.27c0,.24-53.05.76-118.46,1.14s-118.48.54-118.48.29,53.04-.76,118.48-1.16,118.46-.52,118.46-.27Z"/>
    <path class="cls-9" d="M642.14,420.21c0,.25-53.05.77-118.46,1.16-65.41.39-118.48.52-118.48.29s53.04-.76,118.48-1.16c65.45-.4,118.46-.52,118.46-.29Z"/>
    <path class="cls-9" d="M642.14,460.5c0,.24-53.05.76-118.46,1.16-65.41.4-118.48.52-118.48.27s53.04-.76,118.48-1.14c65.45-.39,118.46-.54,118.46-.29Z"/>
    <path class="cls-9" d="M642.14,500.77c0,.25-50.6.74-113.02,1.13-62.42.39-113.02.49-113.04.25s50.6-.74,113.04-1.13c62.44-.39,113.02-.49,113.02-.25Z"/>
    <path class="cls-9" d="M597.77,536.12c-.45.08-.92.11-1.38.1l-4,.12-14.64.24-48.35.69c-18.88.32-35.99.42-48.37.44h-18.64c-.46,0-.92-.02-1.38-.08.45-.08.92-.11,1.38-.1l4-.1,14.64-.25,48.35-.69c18.88-.32,35.99-.42,48.35-.44h18.66c.46,0,.92.03,1.38.08Z"/>
    <path class="cls-9" d="M553.12,570.11c0,.24-11.3.44-25.19.44s-25.19-.2-25.19-.44,11.32-.44,25.19-.44,25.19.18,25.19.44Z"/>
    <circle class="cls-9" cx="669.87" cy="500.77" r="41.9"/>
    <circle class="cls-4" cx="658.97" cy="500.77" r="41.9"/>
    <path class="cls-7" d="M664.3,481.27v34.83h-6.43v-29.47h-7.37v-5.42l13.8.07Z"/>
  </g>
  <g id="freepik--speech-bubble--inject-6">
    <path class="cls-5" d="M353.44,270.57h38.32l-5.19-5.95v-14.26c0-7.72-6.26-13.97-13.97-13.97h0c-7.71,0-13.96,6.25-13.96,13.96v13.57l-5.21,6.65Z"/>
    <path class="cls-5" d="M367.33,268.69c.17,3.26,2.94,5.77,6.2,5.6,3.26-.17,5.77-2.94,5.6-6.2-.02-.47-.1-.93-.24-1.38"/>
    <rect class="cls-5" x="370.97" y="230.59" width="3.76" height="7.99"/>
    <path class="cls-9" d="M428.47,244.36c-.11-.33-.2-.67-.27-1.01-.17-.72-.39-1.68-.67-2.96-.35-1.61-.8-3.19-1.36-4.74-.34-.91-.57-1.93-1.02-2.96l-1.43-3.26c-2.58-5.5-6.01-10.57-10.16-15.01-5.45-5.74-12.05-10.28-19.36-13.3-4.17-1.75-8.53-2.99-13-3.69-4.82-.7-9.71-.78-14.54-.24-2.55.27-5.07.71-7.56,1.31-1.26.27-2.49.76-3.76,1.14-1.28.36-2.53.81-3.75,1.36-5.15,2.08-9.93,4.95-14.19,8.51-9.45,7.79-16.11,18.44-18.98,30.35-1.51,6.38-1.88,12.97-1.09,19.48.69,6.73,2.65,13.27,5.76,19.28l.97,1.83.12.24v.25c-3.11,10.08-6.13,20.15-9.09,29.78l-.79-.72,24-12.51.29-.15.27.2c20.67,15.94,49.61,15.43,69.71-1.21,5-4.18,9.27-9.18,12.61-14.78,2.67-4.68,4.73-9.68,6.13-14.88.94-3.95,1.5-7.98,1.68-12.04v-4.42c0-1.29-.2-2.32-.27-3.21s-.13-1.48-.17-1.96c-.03-.22-.03-.45,0-.67.06.21.1.43.12.65,0,.49.08,1.15.25,1.96.1.89.22,1.95.37,3.22.15,1.28,0,2.77,0,4.43-.09,4.09-.6,8.17-1.51,12.16-1.34,5.28-3.37,10.36-6.05,15.11-3.35,5.72-7.64,10.83-12.7,15.11-12.53,10.46-28.95,15.02-45.08,12.53-9.38-1.49-18.25-5.28-25.81-11.03h.57l-23.96,12.55-1.21.64.4-1.36,9.07-29.78v.49l-.99-1.86c-3.18-6.14-5.17-12.82-5.88-19.7-.82-6.66-.44-13.41,1.14-19.93,2.94-12.14,9.75-22.99,19.4-30.92,4.36-3.6,9.25-6.51,14.49-8.62,1.23-.56,2.51-1.02,3.81-1.38,1.29-.37,2.54-.86,3.83-1.13,2.52-.62,5.09-1.06,7.67-1.31,4.92-.54,9.89-.44,14.78.3,4.53.75,8.94,2.04,13.17,3.83,7.4,3.11,14.05,7.76,19.51,13.64,4.15,4.53,7.55,9.69,10.08,15.28.49,1.18.96,2.27,1.38,3.36s.67,2.08.99,3.01c.54,1.56.97,3.16,1.26,4.79.24,1.26.44,2.25.57,2.99.1.31.18.62.24.94Z"/>
  </g>
  <g id="freepik--Plant--inject-6">
    <path class="cls-5" d="M891.82,643.16c5.49,18.56,1.33,42.42-5.32,60.59-6.76,18.35-19.2,34.06-35.5,44.86-1.81,1.19-4.15,2.35-6.06,1.33-1.43-1.14-2.29-2.85-2.33-4.69-8.07-41.21,12.01-82.81,49.29-102.14"/>
    <g class="cls-13">
      <path class="cls-1" d="M891.82,643.16c5.49,18.56,1.33,42.42-5.32,60.59-6.76,18.35-19.2,34.06-35.5,44.86-1.81,1.19-4.15,2.35-6.06,1.33-1.43-1.14-2.29-2.85-2.33-4.69-8.07-41.21,12.01-82.81,49.29-102.14"/>
    </g>
    <path class="cls-5" d="M809.33,555.08c11.55-.32,19.18,12.53,20.34,24.05,1.16,11.52-1.39,23.51,1.98,34.53,4.23,14.04,17.43,24.12,21.4,38.27,4.7,16.68-4.45,33.99-4.89,51.31-.22,8.4,1.68,16.95.08,25.19-3.17,16.83-19.39,27.91-36.22,24.74-12.33-2.32-22.05-11.85-24.62-24.14-2.7-12.96,3.02-26.75-.4-39.57-2.54-9.46-9.89-17.5-10.5-27.27-.71-11.64,8.3-21.7,9.98-33.24,1.68-11.54-4.16-22.81-5.04-34.44-1.56-20.86,7.07-37.23,27.88-39.47"/>
    <path class="cls-9" d="M834.65,792.63c.16-.37.28-.76.35-1.16.2-.87.45-2,.76-3.36.62-2.91,1.68-7.12,2.85-12.31,6.56-27.04,15.92-53.31,27.93-78.41,2.3-4.82,4.22-8.68,5.58-11.35l1.53-3.07c.2-.35.35-.72.47-1.11-.26.3-.48.64-.65.99l-1.68,2.99c-1.48,2.6-3.51,6.43-5.89,11.22-12.42,24.98-21.82,51.35-28,78.56-1.16,5.22-2.02,9.47-2.52,12.43-.22,1.36-.4,2.49-.55,3.36-.1.4-.16.81-.17,1.23Z"/>
    <path class="cls-9" d="M809.8,611.98c0,.62.06,1.24.17,1.85.15,1.29.37,3.06.64,5.27l2.57,19.4c2.17,16.37,5.16,38.98,8.3,63.99,3.14,25.01,5.84,47.66,7.78,64.07.97,8.11,1.76,14.73,2.33,19.41.29,2.22.5,3.98.67,5.27.06.62.16,1.23.3,1.83.05-.61.05-1.23,0-1.85-.12-1.31-.27-3.07-.47-5.31-.49-4.7-1.16-11.32-1.98-19.46-1.68-16.42-4.32-39.1-7.46-64.1s-6.25-47.61-8.63-63.97c-1.21-8.08-2.2-14.66-2.89-19.33-.37-2.22-.65-3.96-.86-5.26-.1-.62-.26-1.23-.47-1.81Z"/>
    <rect class="cls-9" x="787.23" y="769.94" width="87.77" height="10.24"/>
    <polygon class="cls-9" points="795.37 780.19 805.67 842.36 860.11 842.36 867.23 780.19 795.37 780.19"/>
    <path class="cls-4" d="M867.52,779.77c0,.25-16.21.64-36.21.89-20,.25-36.21.25-36.21,0s16.21-.64,36.21-.89c20-.25,36.21-.24,36.21,0Z"/>
    <path class="cls-4" d="M864.53,810.88h-1.95c-1.87.07-3.75,0-5.61-.22-2.99-.3-5.85-1.37-8.3-3.12-1.53-1.11-2.77-2.57-3.61-4.27-.97-1.94-1.16-4.18-.52-6.25.75-2.38,2.98-3.99,5.47-3.96,1.29.11,2.5.71,3.36,1.68.84,1.02,1.42,2.23,1.68,3.53,1.06,5.31-2.67,11.22-8.4,13.07-5.73,1.85-12.71-1.34-15.57-7.14-.75-1.46-1.18-3.06-1.28-4.7-.11-1.71.33-3.41,1.28-4.84,1.01-1.47,2.6-2.42,4.37-2.62,1.83-.1,3.59.77,4.62,2.28,1.02,1.44,1.54,3.16,1.49,4.92-.03,1.7-.47,3.37-1.26,4.87-1.55,2.91-4,5.23-6.99,6.62-2.82,1.33-5.85,2.19-8.95,2.54-2.99.43-6.03.17-8.9-.77-2.77-.93-5.14-2.78-6.72-5.24-1.48-2.37-1.8-5.29-.87-7.93.79-2.53,2.92-4.43,5.53-4.92,2.41-.37,4.83.53,6.42,2.38,1.31,1.8,1.53,4.17.57,6.18-.78,1.74-2.07,3.2-3.69,4.2-1.36.87-2.82,1.58-4.35,2.12-1.39.54-2.69.96-3.86,1.29-1.79.52-3.62.94-5.46,1.24l-1.44.22h-.49s.15,0,.47-.13l1.43-.29c1.24-.27,3.09-.69,5.41-1.41,1.14-.35,2.42-.81,3.8-1.34,1.49-.55,2.91-1.26,4.23-2.13,1.49-.98,2.66-2.38,3.36-4.01.86-1.82.66-3.96-.54-5.58-1.45-1.66-3.65-2.46-5.83-2.12-2.35.48-4.24,2.21-4.94,4.5-.85,2.43-.54,5.12.84,7.29,1.49,2.29,3.71,4.01,6.3,4.89,2.75.88,5.67,1.12,8.53.71,3-.35,5.93-1.18,8.67-2.47,2.82-1.32,5.14-3.52,6.6-6.26,1.6-2.76,1.54-6.17-.17-8.87-.85-1.28-2.31-2.02-3.85-1.93-1.5.18-2.86,1-3.71,2.25-.84,1.27-1.24,2.78-1.13,4.3.09,1.52.48,3,1.16,4.37,2.67,5.42,9.24,8.55,14.56,6.72s8.85-7.27,7.88-12.14c-.21-1.18-.73-2.29-1.51-3.21-.72-.86-1.76-1.4-2.89-1.49-2.2-.03-4.17,1.38-4.85,3.48-.61,1.92-.46,4,.44,5.81.77,1.62,1.92,3.03,3.36,4.11,2.37,1.73,5.14,2.82,8.04,3.17,1.84.24,3.7.36,5.56.37h1.46l.76.27Z"/>
  </g>
</svg>