<?xml version="1.0" encoding="UTF-8"?>
<svg id="Layer_2" data-name="Layer 2" xmlns="http://www.w3.org/2000/svg" viewBox="0 0 1000 1000">
  <defs>
    <style>
      .cls-1, .cls-2, .cls-3, .cls-4, .cls-5, .cls-6, .cls-7, .cls-8, .cls-9, .cls-10, .cls-11, .cls-12, .cls-13, .cls-14, .cls-15, .cls-16 {
        stroke-width: 0px;
      }

      .cls-1, .cls-13 {
        fill: #000;
      }

      .cls-2 {
        fill: #e0e0e0;
      }

      .cls-3 {
        fill: #eb996e;
      }

      .cls-4 {
        fill: #455a64;
      }

      .cls-5 {
        fill: #8b5d54;
      }

      .cls-6 {
        fill: #f5f5f5;
      }

      .cls-7 {
        fill: #09f;
      }

      .cls-8 {
        fill: #ffb394;
      }

      .cls-9 {
        fill: #ffbe9d;
      }

      .cls-10 {
        fill: #ebebeb;
      }

      .cls-11 {
        fill: #c78976;
      }

      .cls-12 {
        fill: #263238;
      }

      .cls-17, .cls-13, .cls-16 {
        opacity: .3;
      }

      .cls-13, .cls-16 {
        isolation: isolate;
      }

      .cls-18 {
        opacity: .6;
      }

      .cls-14 {
        fill: #ffd6bd;
      }

      .cls-15, .cls-16 {
        fill: #fff;
      }
    </style>
  </defs>
  <g id="freepik--background-complete--inject-19">
    <path class="cls-10" d="M67.41,745.43s-13.31,5.37,2.13,33.61c15.44,28.23,25.82,42.12,25.82,42.12,0,0,2.75,6.57-2.81,7.74s-17.91-.47-20.22,6.4c-2.3,6.87,2.92,13.71,13.52,19.32,10.6,5.61,33.35,18.7,35.42,19.9,2.07,1.19,4.07,4.26.43,5.63-3.65,1.36-31.26,5.01-28.77,18,2.49,12.99,34.57,23.76,38.06,24.99s4.26,2.69,4.12,4.58c-.15,1.9-9.64,2.13-17.44,3.58-7.8,1.45-16.63,4.26-14.56,11.66,2.07,7.4,21.32,22.48,67.15,25.78l21.32.13,11.15-18.3c21.32-40.64,18.79-64.97,13.6-70.63-5.18-5.65-12.3.28-17.59,6.18s-10.51,13.71-12.26,12.79-2.49-2.3-1.71-5.91c.79-3.6,8.53-36.53-1.07-45.53-9.6-9-27.38,12.54-30.51,14.93s-4.61-1-4.54-3.35.98-28.64,1.83-40.52c.85-11.88-1.9-19.96-9.23-21.71-7.34-1.75-12.22,9.68-16.16,13.78s-8.06-1.73-8.06-1.73c0,0-6.25-16.23-22.09-44.16-15.84-27.93-27.72-19.19-27.72-19.19"/>
    <path class="cls-2" d="M192.71,973.9c-11.56-20.56-31.47-57.45-48.73-89.03-17.25-31.58-32.92-60.16-44.38-80.78l-13.58-24.39-3.69-6.63c-.41-.75-.73-1.32-.94-1.75-.14-.2-.27-.42-.38-.64l.36.58,1,1.71,3.8,6.57c3.28,5.71,8,14.01,13.75,24.31,11.56,20.56,27.27,49.05,44.55,80.67,17.27,31.62,37.13,68.51,48.56,89.13"/>
    <path class="cls-2" d="M89.41,838.32c.51.08,1.01.21,1.49.38.96.28,2.32.73,4.01,1.28,3.35,1.13,7.95,2.81,12.99,4.78l12.79,5.03,3.9,1.51c.5.15.98.35,1.43.6-.52-.06-1.02-.18-1.51-.36-.94-.28-2.3-.73-3.99-1.3-3.35-1.17-7.93-2.92-12.97-4.86l-12.92-4.95-3.82-1.51c-.49-.14-.97-.34-1.41-.6Z"/>
    <path class="cls-2" d="M127.54,850.52c-.17,0,2.9-9.7,6.85-21.52,3.94-11.81,7.27-21.32,7.44-21.32s-2.88,9.7-6.82,21.52c-3.94,11.81-7.27,21.37-7.46,21.32Z"/>
    <path class="cls-2" d="M151.87,900.2c.22-.48.5-.93.83-1.34l2.43-3.52c2.13-2.99,4.88-7.1,7.83-11.75,2.94-4.65,5.48-8.98,7.27-12.11l2.13-3.71c.24-.46.52-.91.83-1.32-.15.51-.35.99-.62,1.45-.45.92-1.11,2.13-1.96,3.82-1.68,3.2-4.26,7.55-7.12,12.22-2.86,4.67-5.84,8.76-8,11.69-1.09,1.45-1.96,2.6-2.6,3.39-.3.43-.64.83-1.02,1.19Z"/>
    <path class="cls-2" d="M114.96,896.77c.48-.05.97-.05,1.45,0l3.94.21c3.35.21,7.95.55,13.03.96,5.08.41,9.68.81,13.01,1.13l3.94.43c.48.02.96.1,1.43.23-.48.05-.97.05-1.45,0l-3.94-.21c-3.35-.21-7.95-.53-13.03-.94s-9.68-.81-13.01-1.15l-3.94-.41c-.48-.03-.96-.12-1.43-.26Z"/>
    <path class="cls-2" d="M130.85,943.4c.62-.06,1.25-.06,1.88,0l5.05.26c4.26.23,10.19.62,16.72,1.09,6.53.47,12.41.9,16.68,1.26l5.05.47c.62.03,1.24.12,1.86.26-.62.06-1.24.06-1.86,0l-5.08-.26c-4.26-.23-10.19-.62-16.72-1.07-6.53-.45-12.41-.92-16.68-1.28l-5.05-.47c-.63-.02-1.25-.11-1.86-.26Z"/>
    <path class="cls-2" d="M176.97,946.28c.29-.6.62-1.17,1-1.71l2.94-4.58c2.47-3.86,5.84-9.21,9.43-15.23,3.58-6.01,6.67-11.54,8.89-15.57,1.07-1.92,1.96-3.52,2.62-4.76.3-.6.65-1.17,1.04-1.71-.22.63-.49,1.25-.81,1.83-.55,1.15-1.39,2.81-2.43,4.86-2.13,4.07-5.16,9.64-8.74,15.67s-7.04,11.34-9.62,15.14c-1.28,1.9-2.35,3.43-3.11,4.46-.35.57-.76,1.1-1.22,1.58Z"/>
    <circle class="cls-10" cx="576.42" cy="177.3" r="95.66" transform="translate(43.46 459.52) rotate(-45)"/>
    <path class="cls-6" d="M496.83,177.29c0-43.98,35.65-79.62,79.62-79.62s79.62,35.65,79.62,79.62-35.65,79.62-79.62,79.62h0c-43.96-.05-79.58-35.67-79.62-79.62ZM510.46,177.29c0,36.45,29.55,66,66,66,36.45,0,66-29.55,66-66s-29.55-66-66-66c-36.44.04-65.98,29.56-66.04,66h.04Z"/>
    <path class="cls-6" d="M547.63,175.18c0-16.19,13.13-29.32,29.32-29.32s29.32,13.13,29.32,29.32-13.13,29.32-29.32,29.32h0c-16.18-.02-29.3-13.14-29.32-29.32ZM561.25,175.18c0,8.67,7.03,15.69,15.69,15.69s15.69-7.03,15.69-15.69-7.03-15.69-15.69-15.69h0c-8.66.01-15.68,7.03-15.69,15.69h0Z"/>
    <polygon class="cls-2" points="576.95 175.18 614.01 175.18 607.55 186.63 694.79 226.62 691.84 231.52 604.31 191.99 598.31 203.35 576.95 175.18"/>
    <path class="cls-2" d="M694.79,226.62l.92-.92c4.59-4.44,11.21-6.07,17.34-4.26l34.78,10.13-19.36,8.53,7.78,20.71-32.56-11.71c-7.36-2.63-12.13-9.77-11.75-17.57h0l2.86-4.9Z"/>
    <path class="cls-2" d="M122.25,351.53c4.13-2.51,8.59-4.45,13.24-5.76l2.73-13.11,22.13-.38,3.2,13.01c4.69,1.17,9.2,2.95,13.41,5.31l11.2-7.34,15.93,15.37-6.93,11.45c2.49,4.14,4.43,8.6,5.76,13.24l13.09,2.73.41,22.11-12.99,3.2c-1.17,4.69-2.95,9.21-5.29,13.43l7.34,11.2-15.4,15.93-11.43-6.93c-4.15,2.48-8.6,4.42-13.24,5.76l-2.73,13.09-22.16.41-3.18-13.01c-4.69-1.15-9.21-2.93-13.43-5.29l-11.2,7.34-15.93-15.4,6.93-11.43c-2.5-4.14-4.44-8.59-5.76-13.24l-13.11-2.73-.38-22.16,13.01-3.18c1.15-4.69,2.93-9.21,5.29-13.43l-7.34-11.2,15.44-15.93,11.45,6.93h-.06ZM134.05,381.02c-9.13,9.44-8.88,24.49.56,33.62,9.44,9.13,24.49,8.88,33.62-.56,9.13-9.44,8.88-24.49-.56-33.62,0,0,0,0-.01-.01-9.44-9.12-24.48-8.86-33.61.58Z"/>
    <path class="cls-10" d="M82.93,479.18c2.48-1.5,5.15-2.66,7.93-3.45l1.64-7.85,13.24-.23,1.92,7.78c2.8.68,5.51,1.73,8.04,3.11l6.7-4.26,9.55,9.19-4.26,6.87c1.5,2.47,2.65,5.13,3.43,7.91l7.85,1.64.23,13.26-7.78,1.9c-.69,2.81-1.75,5.51-3.16,8.04l4.5,6.63-9.11,9.55-6.85-4.26c-2.52,1.54-5.24,2.74-8.08,3.56l-1.64,7.85-13.24.21-1.92-7.78c-2.81-.69-5.51-1.75-8.04-3.16l-6.7,4.39-9.53-9.21,4.14-6.85c-1.5-2.48-2.65-5.15-3.43-7.93l-7.85-1.62-.23-13.26,7.78-1.92c.71-2.78,1.78-5.46,3.2-7.95l-4.39-6.7,9.21-9.53,6.85,4.26v-.19ZM90.01,496.83c-5.45,5.65-5.29,14.66.36,20.11,5.65,5.45,14.66,5.29,20.11-.36,5.45-5.65,5.29-14.66-.36-20.11,0,0,0,0,0,0-5.65-5.45-14.66-5.29-20.11.36Z"/>
    <path class="cls-10" d="M90.01,496.83c.74-.92,1.64-1.71,2.64-2.32,2.75-1.77,6.03-2.52,9.28-2.13,2.27.19,4.46.93,6.4,2.13,2.18,1.43,3.93,3.41,5.1,5.74.63,1.26,1.07,2.61,1.3,4.01.21,1.41.21,2.85,0,4.26-.76,6.42-5.65,11.58-12.03,12.67-1.41.22-2.85.22-4.26,0-1.39-.18-2.75-.57-4.03-1.15-4.52-2.02-7.68-6.23-8.38-11.13-.49-3.23.17-6.54,1.86-9.34.56-1.02,1.28-1.94,2.13-2.73-.71.92-1.36,1.88-1.96,2.88-1.52,2.78-2.07,5.98-1.58,9.11.75,4.66,3.81,8.62,8.12,10.51,1.21.56,2.51.92,3.84,1.07,1.37.22,2.77.22,4.14,0,2.9-.5,5.56-1.91,7.61-4.01,2.04-2.12,3.35-4.83,3.73-7.74.22-1.37.22-2.77,0-4.14-.2-1.32-.61-2.6-1.22-3.8-2.04-4.25-6.11-7.17-10.79-7.74-3.14-.41-6.32.26-9.04,1.88-.99.61-1.94,1.27-2.86,1.98Z"/>
    <path class="cls-10" d="M82.93,479.16c-.15-.05-.29-.13-.43-.21l-1.32-.77-5.16-3.05h.17l-9.17,9.6v-.26l4.44,6.67v.26c-1.38,2.51-2.43,5.19-3.11,7.98v.17h-.15l-7.78,1.92.21-.28c0,4.26.17,8.53.28,13.24l-.26-.3,7.85,1.62h.19v.19c.78,2.75,1.93,5.38,3.41,7.83l.13.19-.13.19-4.14,6.85v-.45l9.55,9.19h-.47l6.7-4.39.19-.13.21.11c2.5,1.38,5.18,2.43,7.95,3.11h.21v.23l1.92,7.78-.41-.3,13.26-.23-.38.32,1.62-7.85v-.26h.23c2.74-.77,5.37-1.91,7.8-3.39h0l.21-.13.21.13,6.85,4.16h-.51l9.21-9.55v.51l-4.31-6.55-.13-.21.11-.21c1.4-2.49,2.45-5.16,3.13-7.93v-.23h.23l7.85-2.07-.3.38c0-4.52-.15-8.96-.21-13.26l.3.36-7.85-1.64h-.21v-.21c-.78-2.75-1.92-5.39-3.39-7.85v-.36l4.26-6.85v.43l-9.53-9.23h.38l-6.7,4.26h-.32c-2.5-1.4-5.17-2.46-7.95-3.16h-.17v-.15c-.68-2.84-1.3-5.37-1.9-7.78l.26.17-13.26.19.17-.15c-.66,3.11-1.22,5.69-1.68,7.83h0c-2.09.59-4.11,1.36-6.06,2.32l-1.43.75c-.15.1-.32.18-.49.23l.45-.3,1.41-.79c1.92-1.04,3.94-1.87,6.03-2.47h0c.43-2.13.96-4.73,1.58-7.87v-.13h.15l13.24-.28h.19v.17l1.94,7.78-.19-.19c2.84.69,5.57,1.75,8.12,3.16h-.51l6.67-4.41.21-.13.17.17,9.57,9.51.19.19-.15.23-4.14,6.85v-.36c1.51,2.51,2.68,5.21,3.5,8.02l-.28-.26,7.85,1.62h.3v.41c.09,4.26.16,8.68.23,13.24v.32h-.3l-7.78,1.92.28-.28c-.69,2.84-1.77,5.57-3.2,8.12v-.41l4.39,6.7.17.28-.23.23-9.19,9.53-.23.23-.28-.17-6.85-4.16h.41c-2.5,1.52-5.2,2.69-8.02,3.48l.3-.3c-.58,2.69-1.13,5.35-1.64,7.83v.32h-.32l-13.26.21h-.32v-.3c-.64-2.69-1.3-5.35-1.9-7.78l.3.28c-2.85-.7-5.58-1.77-8.15-3.2h.41l-6.82,4.41-.26.17-.23-.21-9.51-9.23-.21-.19.15-.26c1.45-2.37,2.88-4.71,4.26-6.85v.36c-1.51-2.5-2.67-5.2-3.45-8.02l.23.26-7.93-1.62h-.26v-.26c0-4.65-.15-9.08-.21-13.26v-.23h.23l7.78-1.9-.19.19c.71-2.82,1.79-5.54,3.2-8.08v.09l-4.37-6.72v-.26l9.28-9.49h0l5.05,3.13,1.3.81.62.34Z"/>
    <polygon class="cls-6" points="837.72 452.67 837.98 417.68 871.73 425.85 837.72 452.67"/>
    <rect class="cls-6" x="867.01" y="427.12" width="19.72" height="79.77" transform="translate(-100.87 643.13) rotate(-38.25)"/>
    <polygon class="cls-10" points="793.6 538.37 798.34 467.54 865.72 488.11 793.6 538.37"/>
    <rect class="cls-10" x="851.22" y="491.15" width="40.05" height="161.91" transform="translate(-170.65 600.82) rotate(-34.87)"/>
  </g>
  <g id="freepik--Floor--inject-19">
    <path class="cls-12" d="M965.3,970.02c0,.3-208.34.55-465.27.55s-465.33-.26-465.33-.55,208.29-.55,465.33-.55,465.27.26,465.27.55Z"/>
  </g>
  <g id="freepik--Plant--inject-19">
    <path class="cls-4" d="M736.03,877.66c4.45,1.68,8.02,5.1,9.89,9.47,1.84,4.34,2.65,9.05,2.39,13.75-.28,9.08-4.61,18.59-9.51,26.25-8.12-5.97-10.85-17.36-11.86-23.22-1.6-9.25,1.11-26.97,9.08-26.25"/>
    <path class="cls-4" d="M748.86,941.27c-1.49-5.14-.12-10.69,3.6-14.54,3.76-3.75,8.87-5.83,14.18-5.78,2.45-.24,4.88.62,6.63,2.35,1.35,1.86,1.59,4.3.64,6.4-.98,2.06-2.49,3.83-4.37,5.12-6.21,4.67-13.07,8.04-20.68,6.4"/>
    <path class="cls-12" d="M741.48,969.63c-.05-.62-.05-1.25,0-1.88.13-1.32.3-3.03.49-5.08.39-5.63,1.67-11.16,3.82-16.38,2.25-5.22,5.84-9.76,10.41-13.14,1.4-.99,2.91-1.82,4.5-2.47.55-.23,1.02-.34,1.32-.45l.47-.11c-2.11.93-4.12,2.07-6.01,3.39-4.4,3.43-7.87,7.91-10.09,13.03-2.11,5.17-3.44,10.62-3.94,16.18-.28,2.13-.51,3.86-.7,5.05-.03.62-.12,1.23-.26,1.83Z"/>
    <path class="cls-12" d="M735.15,891.35c.09.25.14.52.15.79,0,.6.21,1.36.34,2.3.28,2,.64,4.9,1.07,8.53.83,7.19,1.88,17.06,2.75,28.13.87,11.07,1.45,21,1.77,28.23.15,3.6.26,6.55.3,8.53v3.16c-.02-.27-.02-.54,0-.81,0-.6,0-1.36-.17-2.32-.13-2.13-.3-5.01-.51-8.53-.43-7.23-1.09-17.19-1.96-28.19-.87-11-1.83-20.94-2.56-28.15-.34-3.54-.64-6.4-.85-8.53l-.21-2.32c-.07-.26-.1-.54-.11-.81Z"/>
    <path class="cls-4" d="M736.22,947.82c-2.79-10.9-10.65-19.79-21.13-23.88-2.64-.98-6.01-1.49-7.93.55s-1.17,5.42,0,7.93c5.49,10.72,16.89,17.08,28.89,16.14"/>
    <path class="cls-12" d="M717.03,932.38c.57.13,1.13.31,1.66.55.65.23,1.28.5,1.9.81.83.38,1.64.8,2.43,1.26.97.54,1.91,1.13,2.81,1.77,1.06.71,2.07,1.49,3.03,2.32,4.48,3.79,7.95,8.63,10.13,14.07.47,1.19.86,2.4,1.19,3.63.31,1.07.56,2.15.75,3.24.16.9.28,1.81.34,2.73.09.71.14,1.42.13,2.13.05.59.05,1.18,0,1.77-.15,0-.11-2.52-.9-6.4-.21-.98-.43-2.13-.79-3.18-.35-1.2-.77-2.38-1.24-3.54-2.21-5.33-5.62-10.07-9.96-13.86-1.02-.85-1.98-1.66-2.96-2.32-.88-.65-1.79-1.26-2.73-1.81-3.5-2.22-5.86-3.05-5.8-3.18Z"/>
  </g>
  <g id="freepik--speech-bubble--inject-19">
    <path class="cls-15" d="M757.09,367.97l24.93-14.14c31.41,19.36,72.57,9.6,91.93-21.81,19.36-31.41,9.6-72.57-21.81-91.93-31.41-19.36-72.57-9.6-91.93,21.81-14.6,23.68-12.99,53.93,4.03,75.94h0l-7.14,30.13Z"/>
    <path class="cls-12" d="M757.09,367.97c.45-1.9,2.54-11.17,6.85-30.22v-.43l.34.28h0l-.38.38c-7.27-9.28-11.94-20.31-13.54-31.99-.5-3.53-.69-7.1-.55-10.66.11-1.83.15-3.69.32-5.54.17-1.86.55-3.75.83-5.65,3.31-16.82,12.89-31.75,26.8-41.77,7.7-5.56,16.5-9.41,25.8-11.3,9.89-1.94,20.08-1.67,29.85.79,10.17,2.53,19.59,7.44,27.49,14.33,8.09,7,14.39,15.83,18.38,25.76,3.75,9.48,5.33,19.68,4.61,29.85-.67,9.65-3.44,19.03-8.12,27.49-8.42,15.27-22.39,26.71-39.02,31.96-7.05,2.06-14.38,3.04-21.73,2.9-11.73-.35-23.15-3.8-33.12-10h.26l-25.06,13.9,24.8-14.37h.28c9.92,6.04,21.25,9.39,32.86,9.7,7.26.1,14.49-.9,21.45-2.96,16.33-5.18,30.06-16.4,38.38-31.37,4.6-8.34,7.32-17.58,7.95-27.08.71-10.04-.85-20.11-4.56-29.47-3.93-9.76-10.13-18.45-18.08-25.33-7.77-6.77-17.04-11.6-27.04-14.1-9.57-2.42-19.57-2.69-29.26-.79-9.16,1.83-17.83,5.61-25.42,11.07-13.73,9.86-23.2,24.56-26.51,41.13-.3,1.88-.58,3.73-.87,5.57-.3,1.83-.21,3.67-.32,5.48-.14,3.49.02,6.99.49,10.45,1.53,11.57,6.08,22.54,13.2,31.79l1.32,1.71-1.71-1.32h0l.43-.15-7.4,29.96Z"/>
    <path class="cls-7" d="M806.03,290.89h3.9l8.53-11.86v-7.76s6.03-.38,5.31,9.81c-.73,10.19,0,7.61,0,7.61,0,0,12.79,0,13.86,1.15s1.13,13.52,1.26,20.43c.17,3.42-2.01,6.52-5.29,7.51-.44.13-.9.19-1.36.19-3.2,0-19.51-2.6-19.51-2.6h-6.7v-24.48Z"/>
    <polygon class="cls-7" points="794.9 288.78 797.31 315.45 803.99 315.45 803.99 289.31 794.9 288.78"/>
  </g>
  <g id="freepik--Characters--inject-19">
    <path class="cls-7" d="M269.2,408.51l-31.99,11.73-16.87,35.53c-.79,7.34-19.19,81.39-19.19,81.39l-18.45,65.91c35.31,16.14,82.14,39.17,129.03,37.32l5.97-56.55,32.16-122.89-24.54-48.75-8.4-1.13-47.72-2.56Z"/>
    <path class="cls-4" d="M120.42,890.37l-24.12,31.43s23.88,35.06,19.98,41.3l-62.63-44.52,35.53-50.54,31.24,22.33Z"/>
    <g class="cls-18">
      <path class="cls-15" d="M78.88,905.32c-1.52-.51-3.18.21-3.86,1.66-.54,1.51.16,3.18,1.62,3.84,1.61.53,3.36-.24,4.05-1.79.43-1.63-.52-3.31-2.13-3.8"/>
    </g>
    <g class="cls-18">
      <path class="cls-15" d="M53.65,918.58l3.77-5.03,58.64,44.57s1.94,3.2.21,4.93l-62.63-44.46Z"/>
    </g>
    <path class="cls-12" d="M97.56,922.21c-.23.3-1.86-.64-4.07-.73-2.22-.09-3.9.62-4.12.3s1.51-1.77,4.26-1.6,4.18,1.9,3.92,2.03Z"/>
    <path class="cls-12" d="M102.19,929.61c-.13.34-1.83,0-3.8.47-1.96.47-3.22,1.71-3.52,1.49s.75-2.13,3.18-2.75c2.43-.62,4.29.49,4.14.79Z"/>
    <path class="cls-12" d="M100.33,940.12c-.32-.13.34-1.96,2.32-3.07,1.98-1.11,3.88-.77,3.82-.43s-1.58.62-3.18,1.56-2.64,2.13-2.96,1.94Z"/>
    <path class="cls-12" d="M102.34,914.45c-.32.17-1.43-1.24-3.24-2.35s-3.54-1.54-3.52-1.9,2.13-.55,4.26.79c2.13,1.34,2.73,3.31,2.49,3.45Z"/>
    <g class="cls-17">
      <polygon class="cls-1" points="109.46 905.58 105.17 911.18 74.57 889.01 78.22 883.8 109.46 905.58"/>
    </g>
    <path class="cls-12" d="M107.01,908.01c0,.13-1.45-.53-3.13-2.13-.99-1.01-1.85-2.13-2.56-3.35-.42-.69-.8-1.4-1.13-2.13-.21-.45-.35-.92-.43-1.41-.09-.74.33-1.45,1.02-1.73.62-.2,1.29-.1,1.83.26.41.27.77.61,1.07,1,1.43,1.66,2.43,3.64,2.92,5.78.4,1.26.4,2.6,0,3.86-.21,0-.23-1.45-.94-3.6-.61-2.01-1.66-3.86-3.07-5.42-.53-.64-1.11-1.04-1.49-.87s-.17.11-.17.41c.05.36.16.7.32,1.02.28.73.61,1.44.98,2.13.61,1.17,1.33,2.28,2.13,3.33,1.64,1.77,2.75,2.69,2.64,2.86Z"/>
    <path class="cls-12" d="M106.28,908.16c.06-1.31.52-2.57,1.32-3.6.77-1.2,1.75-2.26,2.88-3.13.66-.52,1.38-.97,2.13-1.34.94-.6,2.13-.67,3.13-.17.56.42.83,1.13.68,1.81-.1.48-.27.95-.49,1.39-1.05,2.07-2.88,3.65-5.08,4.39-1.23.52-2.62.52-3.86,0,1.2-.26,2.38-.58,3.54-.96,1.17-.52,2.23-1.29,3.09-2.24.49-.56.9-1.19,1.24-1.86.36-.75.49-1.45.21-1.56-.62-.2-1.29-.12-1.83.23-.69.32-1.36.71-1.98,1.15-1.1.76-2.08,1.69-2.9,2.75-1.41,1.83-1.77,3.22-2.09,3.13Z"/>
    <path class="cls-4" d="M310.95,911.42l-13.88,34.93s39.88,14.44,40.39,21.77l-76.77.62,11.98-57.13,38.28-.19Z"/>
    <g class="cls-18">
      <path class="cls-15" d="M273.27,943.28c-1.51.5-2.43,2.04-2.13,3.6.45,1.53,2,2.46,3.56,2.13,1.62-.5,2.59-2.16,2.24-3.82-.62-1.6-2.41-2.4-4.01-1.79"/>
    </g>
    <g class="cls-18">
      <path class="cls-15" d="M260.58,968.8l1.3-6.21,72.5,1.71s3.43,1.47,3.07,3.88l-76.87.62Z"/>
    </g>
    <path class="cls-12" d="M298.31,946.03c0,.36-1.9.55-3.73,1.77-1.83,1.22-2.79,2.81-3.16,2.67s.21-2.32,2.45-3.75c2.24-1.43,4.5-1.04,4.44-.68Z"/>
    <path class="cls-12" d="M306.39,949.29c0,.36-1.54,1.02-2.79,2.6-1.26,1.58-1.62,3.28-1.98,3.28s-.64-2.13.98-4.09,3.8-2.15,3.8-1.79Z"/>
    <path class="cls-12" d="M311.04,958.91c-.34,0-.87-1.79,0-3.86.87-2.07,2.69-2.9,2.86-2.58s-.92,1.41-1.66,3.11c-.75,1.71-.81,3.28-1.19,3.33Z"/>
    <path class="cls-12" d="M301.27,938.88c-.15.34-1.88-.15-4.01,0s-3.75.85-3.97.53,1.39-1.68,3.88-1.83,4.26,1,4.09,1.3Z"/>
    <path class="cls-12" d="M301.99,934.3c-1.26.34-2.58.34-3.84,0-1.39-.24-2.74-.64-4.03-1.19-.78-.33-1.52-.72-2.24-1.17-.43-.23-.82-.54-1.15-.9-.51-.54-.59-1.36-.19-1.98.38-.53.99-.85,1.64-.87.48,0,.97.06,1.43.19.83.19,1.63.45,2.41.79,1.3.58,2.5,1.36,3.56,2.3,1.81,1.64,2.43,3.05,2.3,3.11s-1.04-1.04-2.88-2.39c-1.06-.78-2.23-1.42-3.45-1.9-.69-.29-1.4-.51-2.13-.68-.81-.19-1.49-.19-1.71.17s0,.19,0,.43c.26.25.54.48.85.66.69.42,1.4.79,2.13,1.13,1.2.58,2.45,1.06,3.73,1.41,1.21.2,2.4.5,3.56.9Z"/>
    <path class="cls-12" d="M301.91,934.3c-.74-1.09-1.11-2.39-1.04-3.71-.09-1.44.08-2.88.49-4.26.24-.81.56-1.6.96-2.35.41-1.04,1.33-1.78,2.43-1.96.7,0,1.34.42,1.62,1.07.2.45.34.92.41,1.41.14.85.14,1.73,0,2.58-.18,1.44-.73,2.82-1.6,3.99-1.49,2-3.05,2.47-3.09,2.35s1.17-.92,2.32-2.84c.65-1.11,1.05-2.35,1.17-3.63.12-.74.12-1.5,0-2.24-.13-.81-.43-1.47-.75-1.39s-1.02.62-1.32,1.28c-.39.67-.7,1.39-.94,2.13-.42,1.24-.67,2.53-.73,3.84-.15,2.18.26,3.67.06,3.73Z"/>
    <path class="cls-14" d="M400.87,281.65l-11.81,80.33-54.14,51.9,20.07,34.57,61.43-57.34c4.63-3.52,7.89-8.55,9.21-14.22v-83.1l-.41-27.04-24.35,14.91Z"/>
    <path class="cls-12" d="M184.14,596.82c-1.58,3.26-30.62,154.17-30.62,154.17l-81.27,132.21,42.24,30.77,100.42-130.87,54.89-166.33-85.66-19.96Z"/>
    <path class="cls-12" d="M294.49,612.52c2.37,1.58,64.55,131.31,63.76,140.74-.79,9.43-47.66,182.64-47.66,182.64l-47.74-8.79,29.58-168.95-56.1-78.77,18.32-71.67,39.85,4.8Z"/>
    <polygon class="cls-7" points="359.61 385.25 328.8 410.83 323.04 411.75 346.24 462.99 389.02 428.47 359.61 385.25"/>
    <path class="cls-7" d="M269.2,408.51l-31.99,11.73-16.87,35.53c-.79,7.34-19.19,81.39-19.19,81.39l-18.45,65.91c35.31,16.14,82.14,39.17,129.03,37.32l5.97-56.55,32.46-124-24.84-47.64-8.4-1.13-47.72-2.56Z"/>
    <path class="cls-14" d="M316.15,418.19c.77-5.93,1.43-10.85,1.54-11.45,0,0,20.26.75,24.29-18.87,1.96-9.49,4.39-29.32,6.4-47.32,2.12-19.31-10.93-37.02-30-40.71l-1.9-.36c-20.68-2.75-34.59,13.26-36.78,34.01l-9.94,75.76s19.19,17.06,30.34,22.62c14.44,7.1,16.06-13.69,16.06-13.69Z"/>
    <path class="cls-8" d="M317.71,406.46c-9.11-1.59-17.54-5.85-24.22-12.24,0,0,3.33,15.31,23.29,17.34l.94-5.1Z"/>
    <path class="cls-12" d="M343.53,349.78c-.41.34-3.07-.81-6.76-.55-3.69.26-6.4,1.73-6.78,1.45s.21-.73,1.39-1.41c1.66-.91,3.5-1.44,5.39-1.54,1.84-.16,3.69.13,5.39.83,1.13.53,1.58,1.07,1.36,1.22Z"/>
    <path class="cls-12" d="M312.61,347.18c-.51.13-2.39-2.13-5.8-3.45s-6.4-1.28-6.67-1.73.49-.53,1.83-.62c1.89-.06,3.76.29,5.5,1.02,1.71.68,3.23,1.75,4.46,3.11.81.98.94,1.62.68,1.66Z"/>
    <path class="cls-12" d="M310.76,352.28c-.18,1.16-1.27,1.96-2.43,1.78-.03,0-.06,0-.09-.01-1.17-.14-2-1.21-1.86-2.38,0,0,0,0,0-.01.18-1.16,1.27-1.96,2.43-1.78.03,0,.06,0,.09.01,1.17.14,2,1.21,1.86,2.38,0,0,0,0,0,.01Z"/>
    <path class="cls-12" d="M340.55,357.61c-.17,1.17-1.25,1.98-2.41,1.81-.03,0-.07-.01-.1-.02-1.17-.14-2-1.21-1.86-2.38,0,0,0,0,0-.01.17-1.17,1.25-1.98,2.41-1.81.03,0,.07.01.1.02,1.17.14,2,1.21,1.86,2.38,0,0,0,0,0,.01Z"/>
    <path class="cls-12" d="M319.12,368.74c1.68-.22,3.39-.22,5.08,0,.79,0,1.54,0,1.77-.45.24-.78.24-1.61,0-2.39-.36-2-.75-4.12-1.15-6.4-1.56-8.98-2.52-16.29-2.13-16.36s1.92,7.16,3.45,16.14c.38,2.13.73,4.26,1.04,6.4.31,1.03.25,2.13-.17,3.11-.34.5-.89.82-1.49.87-.45.06-.9.06-1.34,0-1.72-.09-3.42-.41-5.05-.94Z"/>
    <path class="cls-12" d="M313.6,332.02c-.41.68-2.99-.17-6.18-.38s-5.91.17-6.21-.58c0-.36.47-.98,1.62-1.51,1.52-.64,3.18-.9,4.82-.75,1.64.11,3.23.62,4.63,1.47,1.04.7,1.51,1.41,1.32,1.75Z"/>
    <path class="cls-12" d="M344.39,341.89c-.41.58-2.92-.41-6.06-.87-3.13-.47-5.78-.38-6.03-1.04-.11-.32.47-.79,1.62-1.13,1.54-.42,3.16-.5,4.73-.23,1.59.25,3.12.82,4.48,1.68,1.02.7,1.45,1.34,1.26,1.6Z"/>
    <path class="cls-14" d="M278.5,348.46c-.32-.21-12.79-6.61-14.93,6.91s11.86,12.9,11.94,12.52,2.99-19.43,2.99-19.43Z"/>
    <path class="cls-8" d="M272.23,362.02s-.28.13-.7.26c-.6.14-1.23.05-1.77-.26-1.59-1.42-2.3-3.59-1.86-5.67.16-1.16.57-2.28,1.22-3.26.4-.84,1.21-1.41,2.13-1.51.59-.07,1.15.3,1.3.87.11.41,0,.66,0,.68s.34-.17.32-.75c-.03-.35-.17-.68-.41-.94-.32-.35-.77-.55-1.24-.55-1.16.05-2.22.69-2.79,1.71-.77,1.08-1.26,2.33-1.43,3.65-.53,2.44.45,4.96,2.49,6.4.68.31,1.46.31,2.13,0,.51-.3.64-.58.6-.62Z"/>
    <path class="cls-12" d="M314.79,377.76c.19-.32-2.39-1.43-3.94-4.26-.66-1.18-1.16-2.45-1.47-3.77-.28-1.02-.51-1.68-.66-1.64s-.19.68,0,1.79c.09,1.5.53,2.96,1.28,4.26.75,1.29,1.84,2.35,3.16,3.07.9.55,1.6.66,1.64.55Z"/>
    <path class="cls-12" d="M376.78,325.9c-.12-.85-.58-1.62-1.28-2.13-1.5-.9-3.22-1.38-4.97-1.41-5.27-.73-10.24-2.91-14.35-6.29-1.73-3.23-3.72-6.32-5.95-9.23-5.27-6.91-9.7-11.71-14.56-14.37-7.53-3.78-15.95-5.43-24.35-4.78-7.1.98-13.95,5.84-15.76,12.79-3.48-3.73-9.28-4.39-14.2-3.05h-.13c-5.46,1.24-9.08,6.4-11.28,11.6-2.2,5.2-3.52,10.79-6.91,15.25-.73.94-1.56,2.13-1.17,3.16.36.84,1.22,1.35,2.13,1.28.91-.08,1.79-.35,2.58-.81-.75,1.34-1.51,2.67-2.26,3.99,1.87.55,3.84.65,5.76.3.42,4.89,1.13,9.74,2.13,14.54,2,.03,3.92.79,5.39,2.13,1.64,1.88,2.13,5.08,5.29,4.26,1.62-.43,3.43-3.52,4.14-5.03,4.72-10.19,7.19-21.27,7.23-32.5,2.45-2.07,5.28-3.64,8.34-4.63l-.28.17c5.78-1.26,12.26-2.41,17.21.81,3.84,2.49,5.74,7.02,8.38,10.66,4.95,6.93,12.51,11.55,20.94,12.79-.36,5.61-1.77,13.43-2.13,19.04l5.76-8.38h0c.45-.62.85-1.24,1.24-1.86l.13-.19h0c.62-1,1.22-2.13,1.96-3.01h0c1.36,1.39,3.59,1.41,4.98.04,1.09-1.07,1.37-2.73.68-4.1-.4-.7-.9-1.34-1.49-1.9,1.24,1.5,3.17,2.26,5.1,1.98,1.95-.32,3.43-1.95,3.56-3.92,0-1.32-.7-2.53-1.83-3.2,2.44.48,4.96.23,7.25-.73,1.49-.36,3.03-1.49,2.75-3.31Z"/>
    <path class="cls-4" d="M301.53,303.49c-.75.48-1.46,1.01-2.13,1.6-1.79,1.7-3.1,3.84-3.82,6.21-.54,1.62-.91,3.29-1.11,4.99-.23,1.81-.32,3.8-.41,5.86-.09,2.19-.3,4.36-.64,6.53-.2,1.14-.48,2.27-.85,3.37-.31,1.19-.93,2.28-1.79,3.16-.79.71-1.89.95-2.9.62-.95-.3-1.78-.91-2.35-1.73-.9-1.61-1.36-3.42-1.32-5.27l.41.11c-.77,1.42-1.75,2.72-2.9,3.86-1.1,1.06-2.57,1.64-4.09,1.64-.71,0-1.4-.22-2-.6-.55-.38-.98-.91-1.24-1.54-.22-.58-.29-1.2-.21-1.81.1-.57.39-1.08.83-1.45l.19.21c-1.34,1.21-2.93,2.13-4.65,2.69-.45.14-.9.25-1.36.34-.16.03-.33.03-.49,0l.47-.13c.3,0,.77-.21,1.34-.43,1.67-.61,3.2-1.54,4.5-2.75l.19.21c-.77.77-.97,1.94-.49,2.92.23.56.61,1.03,1.11,1.36.55.34,1.17.51,1.81.51,1.43,0,2.79-.56,3.82-1.56,1.11-1.13,2.06-2.4,2.81-3.8l.36-.6v.7c-.03,1.76.4,3.49,1.24,5.03.53.73,1.27,1.27,2.13,1.54.86.27,1.79.07,2.47-.51.79-.83,1.36-1.85,1.66-2.96.36-1.08.64-2.18.83-3.31.35-2.12.56-4.25.64-6.4.13-2.13.23-4.05.47-5.91.22-1.71.61-3.4,1.17-5.03.76-2.4,2.15-4.55,4.01-6.25.68-.6,1.45-1.09,2.28-1.45Z"/>
    <path class="cls-4" d="M360.55,330.06h-.17l-.53.3c-.29.18-.6.33-.92.45-.42.19-.84.35-1.28.49-2.8.89-5.77,1.07-8.66.51-4.29-.8-8.26-2.82-11.43-5.82-3.82-3.71-6.83-8.16-8.87-13.07-1.17-2.56-2.13-5.16-3.07-7.59-.93-2.35-2.17-4.56-3.71-6.57-1.4-1.8-3.22-3.22-5.31-4.14-.94-.39-1.94-.63-2.96-.7-.94-.06-1.89.01-2.81.21-1.6.34-3.11,1.02-4.44,1.98-1,.74-1.87,1.63-2.58,2.64-.57.89-1.03,1.85-1.36,2.86v-.21l.15-.6c.27-.74.61-1.46,1.02-2.13.71-1.05,1.58-1.98,2.58-2.75,2.11-1.65,4.75-2.49,7.42-2.35,1.06.07,2.11.31,3.09.7,2.16.93,4.05,2.4,5.48,4.26,1.59,2.02,2.87,4.26,3.82,6.65,1.02,2.43,1.92,5.03,3.07,7.57,2,4.86,4.97,9.26,8.72,12.94,3.1,2.98,7,5,11.22,5.82,2.83.57,5.76.44,8.53-.36,2-.55,2.99-1.17,3.01-1.11Z"/>
    <path class="cls-4" d="M363.39,321.55s-.26.19-.77.43c-.69.32-1.4.59-2.13.81-1.14.33-2.3.56-3.48.7-1.42.12-2.85.12-4.26,0-1.44-.14-2.87-.41-4.26-.81-1.14-.33-2.24-.76-3.31-1.28-.74-.33-1.46-.73-2.13-1.19-.25-.14-.48-.32-.68-.53,0,0,1.07.62,2.88,1.43,1.06.47,2.15.86,3.26,1.17,1.4.36,2.83.61,4.26.75,1.42.12,2.85.12,4.26,0,1.16-.12,2.3-.32,3.43-.6,1.77-.45,2.9-.94,2.92-.87Z"/>
    <path class="cls-13" d="M228.75,473.25s26.76,38.75,45.97,38.38h6.74l3.2-5.76s42.65,8.53,52.12,5.16l-52.76-19.58-10.15,5.91-45.12-24.12Z"/>
    <path class="cls-14" d="M261.69,490.99s95.96,27.96,107.26,25.35c11.3-2.6,81.39-58.77,81.39-58.77l-15.82-19.04-72.4,40-86.87-27.57-13.56,40.03Z"/>
    <path class="cls-7" d="M237.6,420.09s-16.04,3.54-18.4,29.85c-2.81,31.45,59.3,56.06,59.3,56.06l30.69-51.31-71.59-34.61Z"/>
    <path class="cls-12" d="M270.8,440.6c.25.05.48.14.7.26l1.94.87,7.31,3.43,26.04,12.5.47.21-.26.45c-6.06,10.49-13.22,22.9-20.9,36.25l-6.78,11.69-.23.38-.43-.15c-8.55-2.86-16.8-6.57-24.61-11.09-6.23-3.68-12.01-8.07-17.23-13.09-4.75-4.48-9.04-9.42-12.79-14.76.34.29.65.62.92.98l2.49,2.94c3.12,3.61,6.43,7.06,9.92,10.32,5.26,4.88,11.04,9.17,17.23,12.79,7.79,4.41,15.99,8.05,24.48,10.88l-.64.26,6.76-11.71c7.72-13.22,14.93-25.59,21.03-36.08l.21.66-25.87-12.79-7.21-3.67-1.88-1-.68-.53Z"/>
    <path class="cls-12" d="M345.43,448.45c-.32.11-2.96-6.4-6.85-14.01-3.88-7.61-7.48-13.63-7.21-13.8,1.08,1.1,2,2.34,2.73,3.69,3.98,6.22,7.31,12.83,9.96,19.72.64,1.4,1.1,2.88,1.36,4.39Z"/>
    <path class="cls-4" d="M114.45,914c.11-.24.26-.46.43-.66l1.34-1.86c1.26-1.64,3.01-4.01,5.27-7.04l19.53-25.74,64.8-84.7c2.94-3.84,5.84-7.63,8.53-11.2v.15l30.62-92.21,9.25-27.47c1.09-3.18,1.94-5.65,2.54-7.42l.7-1.9c.06-.22.14-.44.26-.64-.03.23-.09.45-.17.66-.15.49-.34,1.13-.58,1.96-.55,1.75-1.34,4.26-2.37,7.46-2.13,6.55-5.16,15.93-8.93,27.59l-30.32,92.29v.17h0l-8.53,11.22-65.04,84.49-19.83,25.59-5.54,6.87-1.45,1.77c-.15.21-.32.41-.51.6Z"/>
    <path class="cls-4" d="M310.44,749.36c-2.98,1.64-6.14,2.95-9.4,3.9-3.14,1.31-6.41,2.27-9.77,2.86,2.98-1.66,6.12-3,9.38-3.99,3.16-1.26,6.44-2.19,9.79-2.77Z"/>
    <path class="cls-4" d="M309.84,762.83c-2.84-.23-5.63-.83-8.32-1.77-2.78-.6-5.47-1.56-8-2.86,2.83.23,5.62.83,8.3,1.77,2.78.61,5.48,1.57,8.02,2.86Z"/>
    <path class="cls-12" d="M311.31,574.5c-.76.64-1.58,1.21-2.45,1.68-1.6,1.07-3.99,2.45-7.02,4.05-7.85,4.17-16.11,7.52-24.65,10-8.59,2.44-17.41,3.99-26.31,4.61-3.41.23-6.18.3-8.1.26-.99.04-1.98,0-2.96-.15.98-.19,1.97-.29,2.96-.28,1.9,0,4.65-.28,8.04-.6,8.82-.87,17.55-2.51,26.08-4.9,8.51-2.45,16.79-5.65,24.74-9.57,3.07-1.49,5.5-2.77,7.16-3.71.79-.54,1.63-1.01,2.52-1.39Z"/>
    <path class="cls-4" d="M627.57,912.72l14.27,34.8s-39.73,14.93-40.17,22.18l76.77-.19-12.58-56.98-38.28.19Z"/>
    <g class="cls-18">
      <path class="cls-15" d="M665.59,944.13c1.52.48,2.43,2.02,2.13,3.58-.44,1.52-1.97,2.45-3.52,2.13-1.62-.5-2.61-2.15-2.28-3.82.59-1.57,2.31-2.39,3.9-1.86"/>
    </g>
    <g class="cls-18">
      <path class="cls-15" d="M678.54,969.53l-1.36-6.21-72.5,2.47s-3.41,1.49-3.03,3.9l76.89-.17Z"/>
    </g>
    <path class="cls-12" d="M640.58,947.14c0,.36,1.9.53,3.75,1.75s2.84,2.77,3.18,2.62-.21-2.32-2.49-3.73-4.52-.98-4.44-.64Z"/>
    <path class="cls-12" d="M632.54,950.48c0,.36,1.54,1,2.81,2.58,1.28,1.58,1.64,3.26,2.13,3.24s.6-2.13-1.02-4.07c-1.62-1.94-3.92-2.11-3.92-1.75Z"/>
    <path class="cls-12" d="M627.98,960.14c.34,0,.85-1.79-.11-3.84-.96-2.05-2.73-2.88-2.88-2.56s.92,1.41,1.68,3.11.94,3.24,1.3,3.28Z"/>
    <path class="cls-12" d="M637.57,940.04c.15.34,1.88-.17,3.99,0,2.11.17,3.77.81,3.99.49s-1.41-1.66-3.9-1.79-4.29,1-4.07,1.3Z"/>
    <path class="cls-12" d="M636.76,935.45c1.26.35,2.58.35,3.84,0,1.39-.24,2.74-.66,4.03-1.24.73-.35,1.45-.74,2.13-1.17.43-.25.81-.56,1.15-.92.51-.55.59-1.38.17-2-.39-.52-.99-.83-1.64-.85-.49,0-.98.08-1.45.21-2.21.55-4.24,1.63-5.93,3.16-1.79,1.66-2.39,3.07-2.26,3.13s1.02-1.04,2.84-2.41c1.06-.79,2.21-1.45,3.43-1.96.69-.28,1.41-.51,2.13-.68.81-.21,1.49-.21,1.71.15s0,.19,0,.43c-.25.26-.54.48-.85.66-.65.43-1.33.82-2.03,1.17-1.19.59-2.43,1.07-3.71,1.43-1.21.21-2.4.51-3.56.9Z"/>
    <path class="cls-12" d="M636.87,935.45c.72-1.11,1.07-2.41,1-3.73.07-1.44-.11-2.89-.53-4.26-.27-.81-.6-1.59-1-2.35-.43-1.03-1.35-1.76-2.45-1.94-.7.02-1.32.44-1.6,1.09-.2.45-.33.92-.41,1.41-.32,2.32.28,4.68,1.66,6.57,1.51,1.98,3.07,2.43,3.11,2.3s-1.19-.9-2.35-2.81c-.67-1.11-1.09-2.34-1.24-3.63-.1-.71-.1-1.42,0-2.13.11-.81.41-1.47.73-1.39s1.02.6,1.34,1.26c.38.68.71,1.39.96,2.13.44,1.24.69,2.53.75,3.84.21,2.18-.19,3.58.02,3.65Z"/>
    <path class="cls-12" d="M677.88,624.2c-2.13,1.11-81.03,111.53-103.83,141.91-4.34,5.5-5.95,12.66-4.39,19.49,10.09,39.24,51.48,159.82,51.48,159.82l55.44-11.52-34.74-144.04,86.02-92.27-9.72-73.33-40.26-.06Z"/>
    <path class="cls-4" d="M640.98,792c-2.54-.84-4.96-2.01-7.19-3.5-2.41-1.17-4.64-2.67-6.63-4.46,2.54.84,4.96,2.01,7.19,3.5,2.41,1.17,4.64,2.67,6.63,4.46Z"/>
    <path class="cls-11" d="M449.24,366.95c.36.21,3.58,1.81,6.61,3.31,3.51,1.75,6.44,4.49,8.4,7.89,2.28,3.94,5.08,8.72,5.31,8.91l11.41,8.85-15.52,21.32-4.26-3.45s-15.48-.81-21.32-3.65c-5.84-2.84-11.24-7.44-10.56-9.47l.9-2.67c-1.36-2.04-1.89-4.53-1.49-6.95,0,0-3.54-4.09-2.9-6.99.57-2.72,2.73-4.83,5.46-5.35,0,0-1.73-4.76,0-7.31,1.33-1.65,3.17-2.8,5.22-3.28l14.52,6.27-1.77-7.42Z"/>
    <path class="cls-4" d="M843.93,918.39l25.35,30.43s-22.41,36-18.27,42.07l60.77-47.04-37.57-49.05-30.28,23.58Z"/>
    <g class="cls-18">
      <path class="cls-15" d="M886.04,931.63c1.5-.58,3.19.08,3.9,1.51.62,1.47-.02,3.17-1.45,3.88-1.59.61-3.38-.1-4.14-1.62-.5-1.61.37-3.32,1.96-3.88"/>
    </g>
    <g class="cls-18">
      <path class="cls-15" d="M911.78,943.85l-3.99-4.71-56.79,46.91s-1.79,3.28,0,4.95l60.77-47.15Z"/>
    </g>
    <path class="cls-12" d="M868.06,949.27c.23.3,1.81-.73,4.01-.9,2.2-.17,3.94.47,4.14.13s-1.6-1.68-4.26-1.43-4.07,1.98-3.88,2.2Z"/>
    <path class="cls-12" d="M863.71,956.84c.17.34,1.83-.15,3.82.32,1.98.47,3.31,1.58,3.58,1.34s-.83-2.13-3.31-2.6-4.2.66-4.09.94Z"/>
    <path class="cls-12" d="M866.02,967.27c.3-.13-.43-1.94-2.45-2.96-2.03-1.02-3.9-.62-3.84-.28s1.6.55,3.24,1.43,2.77,2.03,3.05,1.81Z"/>
    <path class="cls-12" d="M863.05,941.7c.32.17,1.36-1.3,3.13-2.47,1.77-1.17,3.48-1.66,3.43-2.13s-2.13-.47-4.26.96c-2.13,1.43-2.64,3.52-2.3,3.65Z"/>
    <g class="cls-17">
      <polygon class="cls-1" points="855.48 933.13 860 938.56 889.64 915.17 885.81 910.1 855.48 933.13"/>
    </g>
    <path class="cls-12" d="M858.04,935.45c0,.13,1.41-.6,3.03-2.37.95-1.04,1.77-2.19,2.43-3.43.4-.73.74-1.5,1.02-2.28.2-.45.33-.94.36-1.43.08-.75-.37-1.45-1.09-1.68-.62-.17-1.29-.06-1.81.32-.39.3-.73.65-1.02,1.04-.53.67-.99,1.38-1.39,2.13-.66,1.26-1.13,2.61-1.39,4.01-.36,1.27-.31,2.62.13,3.86.21,0,.17-1.45.77-3.65.35-1.27.87-2.49,1.54-3.63.39-.67.84-1.31,1.34-1.9.51-.66,1.04-1.09,1.43-.94s.19,0,.19.38c-.03.36-.12.71-.26,1.04-.27.77-.57,1.48-.9,2.13-.61,1.2-1.32,2.34-2.13,3.41-1.3,1.86-2.39,2.81-2.26,2.96Z"/>
    <path class="cls-12" d="M858.77,935.58c-.12-1.31-.64-2.56-1.49-3.56-.82-1.17-1.82-2.18-2.99-3.01-.67-.48-1.38-.9-2.13-1.24-.97-.56-2.16-.56-3.13,0-.55.44-.79,1.15-.62,1.83.12.48.3.94.55,1.36.41.79.94,1.51,1.58,2.13,1.05,1.01,2.33,1.74,3.73,2.13,1.24.51,2.64.51,3.88,0-1.21-.2-2.4-.47-3.58-.81-1.2-.47-2.29-1.2-3.18-2.13-.52-.54-.96-1.15-1.3-1.81-.41-.7-.58-1.43-.28-1.54s1.19-.15,1.83.17c.71.29,1.39.65,2.03,1.07,1.1.71,2.09,1.58,2.94,2.58,1.41,1.54,1.94,2.9,2.15,2.81Z"/>
    <path class="cls-12" d="M789.31,621.67c1.19,3.33,15.31,173.77,15.31,173.77l95.02,125.92-40.3,28.17-107.41-110.29c-5.15-5.23-8.7-11.82-10.21-19l-39.71-188.83,87.3-9.75Z"/>
    <polygon class="cls-7" points="564.6 443.1 648.26 444.91 654.01 445.81 630.81 497.07 545.39 484.79 461.5 422.73 483.91 391.34 564.6 443.1"/>
    <path class="cls-7" d="M698.28,440.97l32.11,8.34c8.18,2.43,14.73,8.59,17.66,16.61l9.02,32.63,18.89,72.69,18.45,65.91c-32.84,14.93-58.88,35.48-100.1,36.76-5.76.19-11.5-.88-16.8-3.13l-26.95-11.45,8.79-41.41-32.16-122.89,24.54-48.77,8.38-1.13,38.17-4.16Z"/>
    <path class="cls-12" d="M578.1,400.96c-.2-1.26.05-2.55.7-3.65,1.74-2.37,4.21-4.1,7.04-4.93.38-3.88.11-7.79-.79-11.58-1.29.53-2.71.66-4.07.38-.23.02-.46.02-.68,0-3.07-.19-4.84-3.99-4.09-6.99,1.05-2.92,2.91-5.47,5.37-7.36-1.92.9-3.09,2.84-4.76,4.26-1.66,1.43-4.56,1.68-5.54-.19-.26-.59-.39-1.23-.38-1.88,0-1.3-.15-2.6-.23-3.9-.19-1.05.03-2.13.6-3.03.56-.48,1.17-.9,1.81-1.26,1.98-1.43,2.13-4.56,4.05-6.01,1.61-.83,3.4-1.23,5.2-1.17,1.79-.23,3.82-1.41,3.71-3.2-2.64-.26-5.19-1.14-7.42-2.58-2.28-1.52-3.17-4.44-2.13-6.97,1.24-1.67,3.06-2.83,5.1-3.26,2.13-.75,5.08-1.28,6.4.58,2.71-1.9,6.45-1.24,8.35,1.47.06.09.13.18.18.28l5.33-2.71c-2.13-1.07-4.78-1.24-6.85-2.56-2.07-1.32-3.07-4.73-1.02-6.08.75-.49,1.73-.55,2.39-1.17s.75-1.11,1.32-1.36c.45-.14.93-.14,1.39,0l14.67,3.13-6.01-6.14c-1.86-1.9-3.8-4.71-2.32-6.91,1.47-2.2,5.05-1.26,6.4.94,1.88-1.25,4.42-.74,5.68,1.14.12.18.23.37.32.57,1.65-1.59,4.26-1.54,5.85.11,1.06,1.1,1.43,2.7.95,4.16,1.99-.73,4.15-.89,6.23-.49-.54-1.92.58-3.91,2.5-4.44.67-.19,1.38-.18,2.05.03-.52-1.15-.67-2.43-.43-3.67.34-1.19,1.81-2.13,2.88-1.49-1.29-1.97-.75-4.61,1.22-5.91,1.08-.71,2.43-.89,3.66-.49l1.02-3.07c1.95-.97,4.28-.71,5.97.66,1.27,1.25,1.28,3.29.04,4.55-.26.27-.57.49-.91.65,1.36-.55,1.92,1.79,1.54,3.22-.51,2-1.04,4.03-1.58,6.03.92-1.96,3.08-3.02,5.2-2.56.78-1.83,2.9-2.68,4.73-1.89.04.02.09.04.13.06.38-1.58,1.97-2.55,3.55-2.17.67.16,1.26.55,1.68,1.11,0-1.02,1.22-1.58,2.13-1.83,1.4-.54,2.95-.6,4.39-.17,1.36.6,2.13,2.64,1.02,3.63.92-1.13,2.96-.41,3.5.94.42,1.44.2,3-.62,4.26-.79,1.23-1.35,2.59-1.66,4.01.89-1.18,2.16-2,3.6-2.32,2.39-1.07,5.02-1.53,7.63-1.32,0-1.13,1.36-1.68,2.47-1.86,3.47-.58,7.03-.12,10.24,1.32,1.49.68,3.09,1.96,2.88,3.58-.17.74-.52,1.42-1.02,1.98-1.9,2.52-3.82,5.03-5.71,7.57,4.6-.3,9.18.86,13.09,3.31,1.86-.06,3.72.01,5.57.21,1.77.55,2.77,3.48,1.04,4.14,1.43.48,2.39,1.84,2.35,3.35-.05.64-.29,1.24-.68,1.75-.09.44-.24.87-.47,1.26-.41.71-.95,1.33-1.6,1.83-.4,1.34-1.44,2.4-2.77,2.84,1.89.65,3.66,1.61,5.22,2.86,2.09,1.64,3.1,4.29,2.64,6.91,0,.15-.11.26-.15.41.14.92-.09,1.87-.64,2.62.51.46.85,1.08.98,1.75,4.35-.03,7.89,3.47,7.92,7.81.01,1.57-.45,3.1-1.31,4.4-1.26,1.9-4.56,2.9-5.54.85-.17,2.03-1.34,3.84-3.11,4.84,2.41,2.21,2.58,5.96.37,8.38-.12.13-.24.25-.37.37,3.22,1.46,4.65,5.25,3.19,8.46-.32.71-.77,1.35-1.32,1.9,1.73,2.04,1.47,5.1-.58,6.82-2.04,1.73-5.1,1.47-6.82-.58-.04,1.98-.65,3.9-1.75,5.54-1.18,1.57-3.41,1.89-4.99.72-.06-.04-.12-.09-.18-.14-.07,3.67-3.1,6.6-6.77,6.53-.4,0-.8-.05-1.2-.13,1.04,2.13.16,4.69-1.96,5.74-2.13,1.04-4.69.16-5.74-1.96l-10.41,3.9c-2.28.92-4.63,1.63-7.04,2.13-3.11.53-6.3.32-9.32-.62-.93-.4-1.93-.58-2.94-.53-1.12.31-2.15.89-2.99,1.71-4.99,3.75-11.56,4.65-17.38,2.39-.87-.43-1.79-.73-2.75-.87-1.11.04-2.21.29-3.22.75-2.56.94-5.24,1.56-7.95,1.83-2.32.46-4.73-.06-6.65-1.45-1.75-1.56-1.75-5.01.45-5.8-.29-1.52-1.28-2.81-2.67-3.5-1.44-.65-3.13-.07-3.88,1.32-.6,1.39.73,3.31,2.13,2.94-1.73,2.52-6.23,1.64-7.4-1.17-.93-3.03.65-6.26,3.6-7.4-1.35-1.83-2.24-3.96-2.58-6.21-.85,2.47-3.48,3.84-5.99,3.13-.4,2.32-1.74,4.38-3.71,5.67-2.06,1.27-4.73.92-6.4-.83-1.24-1.62-.94-3.93.68-5.17.27-.21.56-.37.88-.5-1.79-1.64-1.92-4.41-.28-6.21.45-.5,1.02-.88,1.65-1.13-1.51-2.72-.98-6.12,1.28-8.25-1.29,1.51-3.57,1.69-5.08.4-.14-.12-.28-.26-.4-.4-.53,2.58-3.92,3.33-6.55,2.88-2.14-.16-3.91-1.73-4.33-3.84Z"/>
    <path class="cls-4" d="M578.1,400.96c.04.31.11.61.21.9.29.89.9,1.65,1.71,2.13,1.34.72,2.85,1.07,4.37,1.02.98,0,1.95-.2,2.86-.58,1.07-.44,1.87-1.37,2.13-2.49h-.23c1.34,1.58,3.71,1.77,5.29.42.15-.13.29-.27.42-.42l-.23-.21c-2.35,2.2-2.91,5.71-1.34,8.53l.11-.28c-1.46.5-2.54,1.76-2.81,3.28-.44,1.61.11,3.33,1.39,4.39v-.38c-1.65.57-2.68,2.21-2.47,3.94.17,1.85,1.58,3.35,3.41,3.63,1.85.38,3.77-.16,5.16-1.45,1.4-1.35,2.35-3.1,2.73-5.01l-.34.19c2.67.77,5.48-.68,6.4-3.31h-.55c.34,2.32,1.24,4.51,2.62,6.4l.13-.43c-1.4.58-2.56,1.61-3.31,2.92-.82,1.35-1.03,2.99-.58,4.5.55,1.57,1.89,2.74,3.52,3.07,1.68.48,3.48-.11,4.54-1.49l.47-.7-.81.21c-.83.23-1.73-.58-1.92-1.49-.13-.96.47-1.87,1.41-2.13,1-.35,2.11-.15,2.92.53.85.71,1.44,1.69,1.68,2.77l.21-.38c-.8.3-1.42.94-1.68,1.75-.28.77-.33,1.61-.15,2.41.17.81.57,1.55,1.15,2.13.61.57,1.34,1,2.13,1.26,1.53.46,3.15.59,4.73.38,1.59-.14,3.16-.4,4.71-.77,3.16-.51,6.1-3.03,9.06-1.04,3.17,1.31,6.65,1.69,10.02,1.09,1.71-.3,3.38-.84,4.95-1.58,1.55-.82,3.01-1.8,4.37-2.9.62-.44,1.38-.64,2.13-.58.84.18,1.66.41,2.47.68,1.75.49,3.56.75,5.37.77,3.68-.11,7.3-.95,10.66-2.45l10.45-3.9-.51-.17c1.18,2.36,4.04,3.31,6.4,2.13s3.31-4.04,2.13-6.4l-.51.58c3.83.8,7.58-1.65,8.38-5.48.1-.47.15-.95.15-1.43l-.77.32c.78.76,1.9,1.08,2.96.85,1.08-.15,2.06-.67,2.79-1.47,1.24-1.72,1.92-3.77,1.96-5.89l-.79.26c1.89,2.23,5.23,2.51,7.46.62,2.23-1.89,2.51-5.23.62-7.46h0v.64c1.68-1.47,2.46-3.73,2.03-5.93-.27-2.35-1.82-4.36-4.03-5.22l.15.79c2.61-2.38,2.79-6.43.41-9.04-.13-.14-.27-.28-.41-.41v.77c1.91-1.07,3.18-3.02,3.37-5.2l-.87.15c.25.53.68.95,1.22,1.19.52.19,1.09.25,1.64.17,1.04-.16,2.02-.63,2.79-1.34,1.46-1.55,2.23-3.63,2.13-5.76-.05-2.15-.97-4.18-2.54-5.65-1.57-1.51-3.66-2.35-5.84-2.35l.47.38c-.13-.77-.52-1.48-1.11-2v.64c.64-.86.91-1.93.75-2.99v.21c.72-2.43.08-5.05-1.68-6.87-1.74-1.8-3.9-3.14-6.29-3.88v.9c1.5-.48,2.65-1.67,3.09-3.18l-.15.23c1.08-.84,1.83-2.02,2.13-3.35v.17c.74-.94.96-2.19.58-3.33-.38-1.19-1.31-2.12-2.49-2.49v.9c.56-.21.98-.68,1.13-1.26.12-.53.08-1.07-.11-1.58-.34-1-1.13-1.79-2.13-2.13-1.87-.22-3.75-.3-5.63-.23h.19c-4-2.49-8.68-3.68-13.39-3.39l.43.77c.81-1.09,1.71-2.28,2.62-3.45l1.98-2.62c.71-.88,1.36-1.8,1.94-2.77.29-.59.37-1.26.23-1.9-.21-.61-.57-1.16-1.04-1.6-.83-.81-1.84-1.42-2.94-1.79-2.08-.83-4.29-1.28-6.53-1.3-1.11-.01-2.23.08-3.33.26-.58.11-1.15.32-1.66.62-.62.35-1.03.98-1.09,1.68l.55-.45c-2.12-.23-4.26.04-6.25.79-.98.32-1.94.64-2.92,1.04-1.07.4-1.97,1.15-2.56,2.13l.9.28c.19-2,1.9-3.67,2.39-5.99.35-1.22.01-2.54-.87-3.45-.48-.43-1.09-.71-1.73-.79-.7-.08-1.39.19-1.86.73l.66.64c.49-.44.75-1.07.7-1.73-.05-.59-.26-1.16-.6-1.64-.34-.49-.82-.86-1.39-1.07-.52-.2-1.07-.31-1.62-.3-1.04.04-2.07.21-3.07.51-.53.14-1.03.37-1.49.66-.56.34-.92.94-.94,1.6l.87-.21c-1.05-1.53-3.15-1.92-4.69-.87-.72.49-1.22,1.25-1.39,2.1l.68-.36c-2.01-.98-4.44-.15-5.42,1.86-.04.09-.09.18-.12.28l.58-.3c-2.33-.52-4.71.64-5.74,2.79l.85.32,1.34-5.1c.32-.89.42-1.84.3-2.77-.06-.51-.24-1-.53-1.43-.18-.26-.44-.46-.75-.55-.31-.1-.63-.1-.94,0l.3.87c1.21-.4,2.05-1.5,2.13-2.77.16-1.21-.25-2.42-1.11-3.28-1.82-1.44-4.31-1.71-6.4-.68h-.19v.19l-1.02,3.09.58-.3c-2.42-.85-5.07.43-5.92,2.86-.48,1.38-.29,2.9.52,4.11l.6-.64c-.72-.39-1.59-.34-2.26.13-.63.38-1.1.99-1.3,1.71-.25,1.31-.09,2.66.45,3.88l.6-.55c-2.11-.69-4.39.46-5.09,2.57-.26.78-.27,1.63-.03,2.42l.49-.6c-2.14-.41-4.35-.24-6.4.49l.58.53c.69-2.42-.71-4.95-3.14-5.64-1.55-.44-3.22-.03-4.39,1.08l.7.15c-1-2.27-3.66-3.3-5.93-2.3-.25.11-.49.25-.72.4h.62c-.6-.98-1.5-1.73-2.58-2.13-1.06-.43-2.24-.43-3.31,0-1.06.55-1.73,1.63-1.77,2.81-.12,1.19.14,2.38.75,3.41,1.14,1.66,2.48,3.18,3.97,4.54l4.09,4.26.38-.68-9.06-1.92-4.44-.94c-.76-.22-1.54-.34-2.32-.36-.47.07-.89.32-1.19.68-.26.32-.45.64-.66.85-.56.4-1.19.7-1.86.9-.79.31-1.4.96-1.66,1.77-.36,1.58.1,3.22,1.22,4.39,1.07,1.05,2.42,1.79,3.88,2.13,1.35.33,2.67.78,3.94,1.32v-.68l-5.33,2.71.49.15c-1.88-2.99-5.82-3.9-8.82-2.03-.1.06-.19.13-.29.19h.49c-.93-1.08-2.36-1.61-3.77-1.39-1.29.15-2.55.46-3.75.94-1.22.38-2.36.98-3.37,1.75-1.04.83-1.68,2.06-1.75,3.39.02,2.54,1.43,4.88,3.67,6.08,2.07,1.05,4.31,1.72,6.61,2l-.26-.3c-.03.91-.56,1.74-1.39,2.13-.83.48-1.75.75-2.71.79-.99.06-1.97.18-2.94.38-1.01.2-1.91.76-2.54,1.58-1.24,1.6-1.56,3.54-2.75,4.8-.55.66-1.43.87-2.13,1.56-.65.72-.96,1.68-.85,2.64,0,1.75.19,3.48.3,5.14,0,.92.41,1.79,1.13,2.37.74.48,1.63.67,2.49.53.82-.12,1.61-.41,2.3-.85.64-.46,1.24-.99,1.77-1.58.93-1.14,2.06-2.1,3.33-2.84l-.26-.38c-1.36,1.19-2.6,2.51-3.71,3.94-1.05,1.34-1.7,2.94-1.88,4.63-.1,1.58.38,3.14,1.34,4.39.87,1.21,2.33,1.86,3.82,1.68h0c1.43.3,2.91.17,4.26-.38l-.23-.13c.91,3.77,1.2,7.66.85,11.52v-.11c-1.76.65-3.42,1.54-4.95,2.64-1.06.79-1.9,1.84-2.45,3.05-.29.72-.43,1.49-.41,2.26.02.25.05.5.11.75-.12-1,.02-2.02.43-2.94.54-1.18,1.38-2.2,2.43-2.96,1.52-1.07,3.18-1.93,4.93-2.56h0c.39-3.88.13-7.8-.77-11.6v-.19h-.17c-1.27.51-2.65.63-3.99.34h0c-1.36.15-2.69-.44-3.48-1.56-.89-1.19-1.33-2.65-1.24-4.14.18-1.61.82-3.13,1.83-4.39,1.09-1.4,2.32-2.68,3.67-3.84l1.09-1-1.34.6c-1.33.74-2.51,1.74-3.48,2.92-.52.55-1.09,1.05-1.71,1.49-.65.41-1.37.67-2.13.77-.74.13-1.5-.03-2.13-.45-.59-.49-.92-1.22-.9-1.98,0-1.66-.19-3.37-.3-5.1-.08-.81.17-1.62.7-2.24.58-.53,1.54-.81,2.13-1.56,1.34-1.45,1.68-3.41,2.79-4.82s3.16-1.58,5.1-1.73c1.04-.05,2.06-.35,2.96-.87,1.04-.51,1.7-1.57,1.71-2.73v-.23h-.23c-2.23-.26-4.4-.92-6.4-1.94-2.03-1.08-3.31-3.18-3.33-5.48.07-1.13.62-2.18,1.51-2.88.96-.72,2.03-1.28,3.18-1.64,1.15-.44,2.36-.73,3.58-.87,1.17-.2,2.35.22,3.13,1.11l.23.3.28-.23c2.57-1.79,6.11-1.15,7.89,1.42.05.07.1.14.14.22l.17.3.32-.15,5.33-2.69.68-.34-.68-.34c-1.32-.55-2.67-1.01-4.05-1.36-1.33-.29-2.55-.94-3.54-1.88-.93-.97-1.32-2.33-1.07-3.65.21-.6.67-1.08,1.26-1.3.77-.21,1.5-.56,2.13-1.04.6-.64.87-1.28,1.41-1.3.72.04,1.43.16,2.13.34l4.41.96,9.06,1.94,1.32.28-.94-.96-4.09-4.26c-1.44-1.31-2.73-2.79-3.84-4.39-.5-.78-.77-1.68-.79-2.6.02-.89.51-1.71,1.3-2.13,1.79-.65,3.79.04,4.8,1.66l.26.41.36-.28c1.68-1.11,3.94-.65,5.05,1.03.11.16.2.33.28.5l.23.6.47-.45c1.5-1.39,3.85-1.3,5.24.2.87.94,1.2,2.27.86,3.51l-.23.83.79-.3c1.92-.69,3.99-.85,5.99-.47l.83.17-.34-.77c-.43-1.7.6-3.43,2.3-3.86.54-.14,1.11-.13,1.65.02l.92.43-.32-.96c-.46-1.06-.61-2.23-.43-3.37.23-.96,1.47-1.77,2.24-1.28l1.77,1.11-1.15-1.75c-1.12-1.75-.6-4.07,1.14-5.18.93-.59,2.07-.75,3.12-.42l.43.15.15-.45c.34-1.02.68-2.03,1.02-3.07l-.23.26c1.75-.87,3.85-.66,5.39.53,1.34,1.15,1.09,4.01-.62,4.48l.3.87c.22-.11.48-.02.6.19.2.3.33.64.38,1,.1.82,0,1.64-.3,2.41l-1.34,5.1.87.32c.85-1.73,2.76-2.67,4.65-2.3l.43.13.13-.41c.69-1.6,2.54-2.34,4.15-1.65.04.02.08.04.12.05l.66.36v-.68c.39-1.31,1.77-2.05,3.08-1.65.46.14.87.41,1.18.78l1.04,2.13-.15-2.35c0-.62.87-1.11,1.75-1.34.91-.28,1.85-.45,2.79-.49.87-.08,1.72.29,2.26.98.53.61.53,1.52,0,2.13l.68.66c.45-.6,1.58-.43,2.13.17.65.68.87,1.66.58,2.56-.34,1.98-2.13,3.63-2.41,6.08l-.3,2.32,1.19-2.13c.9-1.54,3.07-1.98,4.95-2.67,1.85-.69,3.84-.94,5.8-.75h.55v-.53c0-.73,1.02-1.24,1.96-1.41,3.14-.52,6.36-.18,9.32.98.97.33,1.86.87,2.6,1.58.7.61.92,1.6.55,2.45-.57.9-1.19,1.77-1.86,2.6l-1.98,2.62-2.62,3.45-.64.83h1.04c4.5-.28,8.97.86,12.79,3.24h0c1.83-.05,3.66.01,5.48.19.72.28,1.28.87,1.51,1.6.26.75.11,1.47-.47,1.64l-1.45.47,1.47.45c.89.29,1.58.99,1.88,1.88.29.85.12,1.78-.45,2.47h0v.11c-.27,1.14-.94,2.14-1.9,2.81h-.13v.15c-.34,1.19-1.25,2.13-2.43,2.52l-1.39.38,1.34.51c2.24.71,4.27,1.96,5.93,3.63,1.54,1.56,2.12,3.82,1.51,5.93v.23c.13.8-.06,1.62-.53,2.28l-.28.34.32.3c.43.38.72.89.83,1.45v.41h.41c1.94.02,3.79.78,5.18,2.13,1.39,1.3,2.2,3.11,2.24,5.01.11,1.84-.52,3.65-1.75,5.03-.63.59-1.43.98-2.28,1.11-.75.19-1.53-.15-1.9-.83l-.75-1.66-.13,1.83c-.17,1.87-1.25,3.53-2.88,4.46l-.62.32.53.43c2.22,2.06,2.35,5.52.29,7.74-.09.1-.19.2-.29.29l-.64.53.79.26c1.89.74,3.21,2.46,3.43,4.48.38,1.88-.27,3.82-1.71,5.1l-.36.3.3.34c1.57,1.85,1.35,4.62-.5,6.19-1.85,1.57-4.62,1.35-6.19-.5h0l-.66-.81-.13,1.04c-.02,1.93-.62,3.81-1.73,5.39-1.05,1.35-2.99,1.58-4.34.53-.02-.01-.04-.03-.05-.04l-.85-1.02v1.32c.02,1.92-.88,3.73-2.43,4.86-1.4,1.15-3.25,1.58-5.01,1.17l-.83-.23.34.81c.81,1.98-.14,4.25-2.12,5.06-1.79.73-3.86.03-4.83-1.65l-.17-.3-.34.13-10.45,3.9c-3.27,1.48-6.8,2.3-10.38,2.41-1.75,0-3.48-.25-5.16-.73-.85-.29-1.72-.53-2.6-.7-.97-.11-1.94.15-2.73.73-1.33,1.08-2.76,2.03-4.26,2.84-1.51.72-3.11,1.23-4.76,1.51-3.23.58-6.56.24-9.6-1-.77-.37-1.58-.63-2.41-.79-.87-.09-1.75.03-2.56.36-1.48.58-3,1.06-4.54,1.45-1.52.36-3.06.62-4.61.77-1.49.19-3,.07-4.44-.36-1.39-.37-2.46-1.46-2.79-2.86-.44-1.32.15-2.76,1.39-3.39h.28v-.3c-.29-1.23-.96-2.34-1.92-3.16-.99-.82-2.35-1.06-3.56-.62-1.28.36-2.06,1.64-1.81,2.94.2,1.29,1.4,2.17,2.69,1.98l-.34-.49c-.91,1.17-2.44,1.66-3.86,1.24-1.43-.27-2.6-1.28-3.09-2.64-.65-2.8.85-5.65,3.52-6.7l.36-.15-.23-.3c-1.33-1.79-2.2-3.88-2.54-6.08l-.17-1.22-.36,1.17c-.81,2.32-3.28,3.62-5.65,2.96h-.28v.3c-.35,1.8-1.23,3.45-2.54,4.73-1.27,1.2-3.04,1.71-4.76,1.36-1.62-.24-2.88-1.54-3.05-3.18-.2-1.52.69-2.98,2.13-3.5l.41-.11-.34-.28c-1.69-1.64-1.73-4.34-.09-6.03.39-.4.85-.72,1.37-.94h.23l-.13-.21c-1.46-2.65-.96-5.95,1.24-8.04l-.23-.23c-1.24,1.45-3.42,1.62-4.87.37-.13-.12-.26-.24-.37-.37l-.19-.26v.32c-.25,1.06-1.01,1.93-2.03,2.32-.88.38-1.82.58-2.77.6-1.48.06-2.95-.27-4.26-.96-.78-.45-1.38-1.15-1.71-1.98-.19-.62-.23-.94-.26-.94Z"/>
    <path class="cls-11" d="M699.05,443.16l-25.38-73.23c-6.03-19.94-22.67-33.03-42.41-26.46l-1.79.73c-18.01,7.19-27.48,27.02-21.75,45.55,5.31,17.25,11.41,36.25,15.1,45.14,7.63,18.47,27.34,13.95,27.34,13.95,0,0,1.6,4.26,3.54,9.89h0s3.16,18.57,17.68,14.12c14.52-4.46,27.68-29.68,27.68-29.68Z"/>
    <path class="cls-5" d="M650.03,448.88c8.57-3.44,15.96-9.27,21.32-16.78,0,0,0,16.42-19.19,22.13l-2.13-5.35Z"/>
    <path class="cls-12" d="M617.91,402.6c.56,1.45,2.17,2.18,3.63,1.66,1.44-.45,2.24-1.98,1.79-3.42,0-.02-.01-.04-.02-.05-.56-1.45-2.17-2.18-3.63-1.66-1.44.45-2.24,1.98-1.79,3.42,0,.02.01.04.02.05Z"/>
    <path class="cls-12" d="M614.61,395.89c.47.21,1.9-2.13,4.73-3.2s5.52-.53,5.69-1-.49-.7-1.66-1.02c-1.58-.35-3.23-.22-4.73.38-1.48.59-2.74,1.64-3.58,2.99-.62,1.02-.66,1.77-.45,1.86Z"/>
    <path class="cls-12" d="M644.48,394.1c.56,1.45,2.17,2.18,3.63,1.66,1.44-.45,2.24-1.98,1.79-3.42,0-.02-.01-.04-.02-.05-.56-1.45-2.17-2.18-3.63-1.66-1.44.45-2.24,1.98-1.79,3.42,0,.02.01.04.02.05Z"/>
    <path class="cls-12" d="M643.01,385.91c.47.21,1.88-2.13,4.73-3.22,2.86-1.09,5.52-.53,5.69-1s-.49-.7-1.68-1c-1.57-.36-3.22-.23-4.71.38-1.49.58-2.75,1.63-3.6,2.99-.6,1-.64,1.75-.43,1.86Z"/>
    <path class="cls-12" d="M641.52,411.9c-1.68.13-3.35.46-4.95,1-.77.21-1.51.34-1.83-.11-.36-.73-.49-1.54-.38-2.35v-6.4c-.15-9.11-.58-16.44-.94-16.44s-.53,7.38-.38,16.46c0,2.13.11,4.26.17,6.4-.1,1.06.17,2.12.77,3.01.42.43,1.02.65,1.62.58.45-.05.88-.16,1.3-.32,1.61-.42,3.16-1.04,4.63-1.83Z"/>
    <path class="cls-12" d="M638.49,376.52c.6.66,3.28-.83,6.8-1.75,3.52-.92,6.57-1.09,6.74-1.96,0-.41-.68-.96-2.13-1.28-3.69-.69-7.5.36-10.32,2.84-.98.98-1.36,1.81-1.09,2.15Z"/>
    <path class="cls-12" d="M611.98,385.84c.75.47,2.47-.96,4.84-1.88,2.37-.92,4.56-1.19,4.78-2.13,0-.43-.47-.96-1.6-1.24-1.43-.31-2.92-.16-4.26.41-1.39.55-2.57,1.51-3.39,2.75-.73,1.09-.75,1.86-.36,2.09Z"/>
    <path class="cls-5" d="M641.6,420.32c.73.99,1.61,1.87,2.6,2.6,1.01.75,2.3,1.01,3.52.73,1.29-.37,2.29-1.39,2.64-2.69.32-1.29.21-2.64-.3-3.86-.43-1.11-1.39-2.28-2.54-2.03-.48.13-.91.39-1.26.75l-5.1,4.26"/>
    <path class="cls-12" d="M645.55,424.4c1.08-.29,2.1-.77,3.01-1.43.9-.74,1.49-1.79,1.66-2.94.17-1.4-.27-2.8-1.19-3.86-.24-.27-.51-.5-.81-.7-.32-.17-.28-.17-.51,0s-.53.47-.81.68l-.85.73c-1.09.92-2.13,1.75-2.92,2.41-.85.82-1.82,1.51-2.88,2.03-.11,0,.81-1.11,2.37-2.6.77-.75,1.71-1.64,2.77-2.6l.81-.75c.3-.26.51-.49.92-.79.26-.19.57-.29.9-.28.29.03.57.13.81.3.37.26.72.56,1.02.9,1.15,1.31,1.66,3.06,1.39,4.78-.24,1.36-1.01,2.58-2.13,3.39-.73.54-1.61.87-2.52.94-.68-.02-1.02-.13-1.02-.19Z"/>
    <path class="cls-12" d="M596.8,376.18c-.28-.97-.5-1.95-.66-2.94,0-1.56.4-3.09,1.15-4.46,2.13-4.86,4.56-9.92,8.53-12.79,2.47-1.75,5.42-2.58,7.89-4.26,1.49-1.16,2.91-2.4,4.26-3.71,5.95-4.87,13.09-8.08,20.68-9.3,4.19-.99,8.52-1.22,12.79-.68,4.85.98,9.49,2.78,13.73,5.33,6.89,3.52,13.11,8.22,18.38,13.88,4.31,4.61,7.18,10.37,8.27,16.59.85,6.27-1.22,12.99-5.89,15.69l-2.62-1.68-4.12-2.43c.98,1.22.49,1.28-.43,2.41-.94,1.04-2.55,1.11-3.58.17-.06-.05-.11-.11-.17-.17-.55,1.51-3.05.85-3.24-.85-.96.98-2.92-.13-2.96-1.68-1.19.92-2.6-1-3.73-2.13-.63-.65-1.3-1.25-2-1.81-2.18-1.97-3.75-4.52-4.52-7.36-2.25-1.86-3.93-4.32-4.82-7.1-.73-1.71-1.45-3.41-2.13-5.1l-1.34-.94c.38,1.22-.06,2.55-1.09,3.31-.98.57-2.09.87-3.22.87l-3.35.32-1.79,1.15c.89,1.62,1.22,3.48.94,5.31.07,1.22-.28,2.42-.98,3.41-.65.56-1.63.49-2.2-.17-.2-.23-.32-.51-.36-.82-.51.82-1.59,1.07-2.41.56-.1-.06-.19-.13-.28-.21-.86-.82-1.44-1.88-1.66-3.05-.73-2.77-.64-5.69.28-8.4l-3.97,6.65c-.23.51-.62.94-1.11,1.22.37.74.07,1.63-.67,2-.12.06-.26.11-.39.13-.87.03-1.73-.24-2.43-.77-1.75-1-3.86-2.99-3.13-4.9-.66,0-1.3-.9-1.04-1.6l-4.82,6.57c.51-.53,1.47.23,1.58,1.07.02.81-.25,1.6-.75,2.24.8.72,1.35,1.68,1.58,2.73.83-1.32,3.05,0,3.16,1.75.04,1.61-.99,3.05-2.52,3.54-1.26.61-2.78.09-3.39-1.17-1.3.7-3.16-.79-3.13-2.47-.79.94-2.13-.58-2.62-1.9-.79-2.32-1.14-4.78-1.04-7.23,0,.21-.26.38-.47.3-.09-.05-.16-.13-.21-.21-.3,2.99-.62,5.97-.92,8.96-.42,2.55-.37,5.15.17,7.68.28,1.02.58,2.47-.26,2.81-.24.06-.49.06-.73,0-3-.71-5.66-2.44-7.53-4.88-.73-.81-1.32-1.74-1.75-2.75-.49-2.2-.81-4.44-.96-6.7Z"/>
    <path class="cls-4" d="M622.37,363.39c-.53-.29-.96-.74-1.24-1.28-.31-.61-.31-1.33,0-1.94.41-.79,1.24-1.28,2.13-1.24h.53l-.34-.43c-.63-.81-.69-1.92-.15-2.79.67-.95,1.94-1.27,2.99-.77l.28-.47c-.09-.07-.17-.16-.23-.26-.23-.35-.28-.78-.15-1.17.14-.38.42-.7.79-.87.37-.21.79-.31,1.22-.3.46.09.94.09,1.41,0,.53-.28.66-.77.9-1.04.22-.3.47-.58.75-.83.53-.44,1.14-.77,1.79-.98.95-.33,1.97-.38,2.94-.15.7.17,1.04.38,1.09.34-.3-.26-.65-.44-1.02-.55-1.02-.32-2.11-.32-3.13,0-.7.21-1.36.55-1.94,1-.33.27-.62.58-.87.92-.26.34-.43.75-.7.85-.4.07-.81.07-1.22,0-.5,0-1,.11-1.45.34-.5.24-.88.67-1.07,1.19-.18.56-.11,1.17.21,1.66.11.16.25.29.41.41l.28-.49c-1.43-.65-3.11-.01-3.75,1.41-.42.93-.31,2.03.3,2.85l.19-.41c-1.05,0-2.01.61-2.47,1.56-.54,1.2-.07,2.61,1.09,3.24.28.19.47.19.47.19Z"/>
    <path class="cls-4" d="M610.13,370.55c-.57-.27-1.07-.67-1.45-1.17-.43-.62-.59-1.39-.45-2.13.17-.94.78-1.73,1.64-2.13l.36-.15-.34-.21c-.97-.55-1.62-1.53-1.75-2.64,0-.58.26-1.13.73-1.49.44-.41,1.08-.51,1.62-.26l1.98,1.17-1.66-1.6c-.6-.59-.89-1.42-.81-2.26.07-.9.58-1.7,1.36-2.13.55-.32,1.2-.44,1.83-.34l.7.13-.45-.58c-.47-.88-.13-1.98.76-2.45.05-.02.09-.05.14-.07.98-.33,2.03-.33,3.01,0l.6.13-.32-.51c-.41-.65-.41-1.48,0-2.13.39-.59.93-1.06,1.58-1.34,1.08-.51,2.24-.82,3.43-.92,1.06-.04,2.11.02,3.16.19-.26-.12-.53-.21-.81-.26-1.99-.46-4.09-.25-5.95.6-.73.3-1.36.82-1.81,1.47-.52.78-.56,1.78-.11,2.6l.26-.38c-1.1-.35-2.28-.31-3.35.11-.58.29-1.04.78-1.28,1.39-.3.65-.23,1.41.19,1.98l.26-.45c-.73-.11-1.48.03-2.13.38-.95.52-1.57,1.48-1.66,2.56-.09,1,.28,1.99,1,2.69l.32-.43c-.75-.33-1.62-.21-2.24.32-.58.47-.9,1.18-.87,1.92.14,1.27.9,2.38,2.03,2.99v-.38c-.97.47-1.65,1.39-1.81,2.45-.18,1.32.53,2.6,1.75,3.16.28.19.55.21.55.19Z"/>
    <path class="cls-4" d="M582.3,381.3c-.13-.56-.03-1.15.28-1.64.36-.57.92-.98,1.58-1.15.89-.21,1.81-.25,2.71-.13h.32l-.13-.32c-.31-1.1.2-2.26,1.22-2.77,1.24-.54,2.61-.71,3.94-.49l1.83.15-1.73-.64c-.94-.57-1.24-1.79-.67-2.72,0-.02.02-.03.03-.05.75-.98,1.87-1.6,3.09-1.73h.15l1.09-.21-1.04-.32c-1.06-.52-1.49-1.8-.97-2.86.07-.14.16-.28.26-.41.92-.91,2.31-1.17,3.5-.66l1.34.53-1.07-.96c-1.27-1.19-1.78-2.98-1.34-4.67.36-1.31,1.3-2.39,2.56-2.92.82-.37,1.71-.51,2.6-.41.62,0,.94.21.96.17l-.23-.13c-.23-.1-.46-.17-.7-.21-.9-.16-1.83-.08-2.69.23-1.38.53-2.44,1.67-2.86,3.09-.52,1.85.02,3.85,1.41,5.18l.26-.45c-1.4-.61-3.03-.3-4.09.79-.54.62-.76,1.46-.6,2.26.13.86.72,1.59,1.54,1.9v-.55h-.17c-1.41.17-2.67.95-3.45,2.13-.35.6-.46,1.31-.3,1.98.13.68.59,1.25,1.22,1.54l.13-.51c-1.45-.23-2.93-.02-4.26.6-1.2.64-1.77,2.05-1.34,3.35l.19-.28c-.95-.09-1.91-.01-2.84.23-.71.22-1.3.7-1.66,1.34-.24.4-.33.86-.26,1.32.04.28.21.41.21.38Z"/>
    <path class="cls-4" d="M589.38,349.81c.25.06.52.06.77,0,.73-.08,1.44-.24,2.13-.49.99-.39,2.06-.53,3.11-.41.6.09,1.13.45,1.43.98.36.53.31,1.24-.11,1.73l.45.15c0-.73.64-1.39,1.26-2.13.62-.7,1.34-1.31,2.13-1.81.8-.47,1.75-.59,2.64-.34.83.19,1.48.84,1.68,1.66l.11.68.36-.6c.73-1.12,1.81-1.97,3.07-2.43.99-.38,2.06-.53,3.11-.45.94.11,1.86.39,2.71.81,0,0-.19-.21-.62-.47-.66-.35-1.39-.58-2.13-.66-1.11-.15-2.25-.03-3.31.34-1.38.46-2.56,1.37-3.35,2.58l.47.11c-.2-1.04-.99-1.88-2.03-2.13-1.03-.31-2.14-.18-3.07.36-.87.52-1.65,1.16-2.32,1.92-.34.34-.65.71-.94,1.09-.34.39-.5.91-.45,1.43v.53l.36-.38c.58-.65.64-1.61.15-2.32-.37-.64-1.01-1.08-1.75-1.19-1.13-.11-2.27.08-3.31.55-.66.26-1.33.47-2.03.62-.28.26-.55.23-.55.28Z"/>
    <path class="cls-4" d="M612.88,331.87c.48-.14.97-.21,1.47-.21.56.02,1.1.18,1.58.47.62.34,1.1.88,1.36,1.54l.11.28.26-.17c.78-.38,1.73-.16,2.26.53.58.87.91,1.88.96,2.92l.15,1.09.41-1.04v-.17c.31-.65.9-1.12,1.6-1.28.67-.18,1.38-.09,1.98.26,1.03.62,1.75,1.65,1.98,2.84.14.82.14,1.65,0,2.47-.03.31-.03.63,0,.94,0,0,.17-.3.3-.9.2-.85.23-1.72.11-2.58-.19-1.34-.97-2.52-2.13-3.22-1.47-.85-3.35-.34-4.19,1.13-.02.04-.05.09-.07.13v.21h.53c-.05-1.14-.44-2.25-1.11-3.18-.7-.89-1.95-1.14-2.94-.58h.36c-.32-.75-.91-1.35-1.64-1.71-.54-.28-1.14-.42-1.75-.41-.39.01-.77.1-1.13.26-.34.28-.45.36-.45.38Z"/>
    <path class="cls-4" d="M640.94,341.32c.24-.07.46-.19.64-.36.54-.43.98-.98,1.28-1.6.48-.94.63-2.01.45-3.05-.16-.51-.16-1.05,0-1.56.19-.47.77-.9,1-1.62.4-1.41-.35-2.9-1.73-3.41l.13.38c.75-1.16,1.21-2.47,1.36-3.84.12-.51.12-1.04,0-1.56,0,0,0,.58-.26,1.51-.24,1.29-.74,2.52-1.47,3.6l-.19.28.32.11c1.09.44,1.68,1.62,1.36,2.75-.15.53-.66.92-.96,1.58-.22.61-.22,1.27,0,1.88.17.93.07,1.9-.3,2.77-.42.8-.97,1.53-1.64,2.13Z"/>
    <path class="cls-4" d="M649.17,344.03c.16.03.31.03.47,0,.43-.13.84-.29,1.24-.49,1.44-.74,2.59-1.93,3.28-3.39l-.34.11c1.06.72,2.37.99,3.63.75.69-.13,1.34-.41,1.92-.81.67-.41,1.14-1.07,1.32-1.83v-.83c0-.21.07-.42.19-.6.29-.37.65-.67,1.07-.9.46-.25.87-.58,1.22-.96.39-.41.53-1,.36-1.54l-.26.32c1.16.11,2.33-.2,3.28-.87.74-.5,1.34-1.17,1.75-1.96.26-.51.43-1.05.49-1.62.05-.2.05-.41,0-.62-.11.75-.35,1.47-.7,2.13-.43.72-1.02,1.32-1.73,1.77-.88.58-1.94.83-2.99.73h-.41l.13.36c.09.38-.02.77-.3,1.04-.32.34-.69.62-1.11.83-.48.26-.91.63-1.24,1.07-.18.27-.28.58-.3.9.02.25.02.5,0,.75-.17.61-.56,1.13-1.09,1.47-.51.36-1.09.61-1.71.73-1.12.24-2.28.03-3.24-.6l-.23-.17-.11.26c-.64,1.39-1.69,2.56-3.01,3.35-.98.43-1.62.58-1.6.64Z"/>
    <path class="cls-4" d="M696.17,348.23v-.21c.03-.19.03-.38,0-.58-.15-.76-.45-1.49-.87-2.13-.65-.97-1.42-1.84-2.3-2.6-.52-.5-1.09-.94-1.68-1.34-.35-.22-.73-.37-1.13-.45-.48-.1-.97.05-1.32.38l.41.13c-.38-2.01-2.32-3.34-4.33-2.96-.96.18-1.81.73-2.36,1.53l.49.11c-.22-.79-.81-1.43-1.58-1.73-.8-.28-1.7-.14-2.37.38-.37.28-.66.67-.81,1.11h.53c-.12-.5-.47-.91-.94-1.11-.42-.19-.89-.24-1.34-.15-.8.24-1.54.67-2.13,1.26h.36c-.77-.66-1.76-.99-2.77-.94-.92.03-1.82.29-2.62.75-1.32.86-2.49,1.93-3.45,3.18l.34.17c.05-.34-.09-.69-.36-.9-.24-.18-.52-.29-.81-.32-.51-.07-1.02,0-1.49.19-.71.32-1.36.76-1.94,1.28-.37.31-.71.66-1,1.04-.11.14-.2.29-.28.45.45-.47.92-.91,1.41-1.32.59-.47,1.25-.86,1.94-1.15.42-.15.86-.19,1.3-.13.47,0,.92.34.83.79l-.11.68.47-.51c.96-1.18,2.11-2.21,3.39-3.03.73-.41,1.55-.64,2.39-.66.88-.04,1.74.26,2.41.83l.17.15.19-.15c.52-.52,1.17-.91,1.88-1.13.67-.18,1.37.18,1.62.83l.19.96.34-.92c.39-.98,1.47-1.49,2.47-1.17.59.24,1.05.73,1.24,1.34l.15.58.34-.49c1-1.46,2.99-1.83,4.45-.83.69.47,1.17,1.2,1.33,2.03v.45l.32-.32c.47-.51,1.3-.26,1.9,0,.59.37,1.14.79,1.64,1.26.88.71,1.66,1.54,2.32,2.45.61.87,1.02,1.87,1.19,2.92Z"/>
    <path class="cls-4" d="M697.73,364.75s0-.13.17-.41c.13-.41.23-.83.32-1.26.14-.71.09-1.45-.15-2.13-.16-.42-.42-.8-.75-1.11-.4-.36-.91-.56-1.45-.55l.19.26c.3-.95.05-1.99-.66-2.69-.85-.78-2.1-.94-3.11-.38l.36.32c.28-.87-.03-1.82-.77-2.37-.76-.51-1.72-.66-2.6-.41-.39.14-.79.26-1.19.34-.36.04-.71-.13-.92-.43-.3-.37-.65-.68-1.04-.94-.43-.27-.94-.39-1.45-.34-.98.15-1.95.41-2.88.77-.8.34-1.7.34-2.49,0-.34-.19-.66-.53-1.04-.81-.39-.29-.84-.47-1.32-.53-.91-.11-1.82.22-2.45.87l.41.23c.23-.92-.18-1.89-1-2.37-.68-.43-1.51-.59-2.3-.43-1.2.28-2.34.77-3.37,1.45-.66.43-1.28.92-1.86,1.45-.38.38-.58.6-.55.62s.85-.79,2.56-1.81c1.01-.62,2.12-1.06,3.28-1.3.69-.13,1.4,0,1.98.38.63.38.95,1.13.79,1.86l-.32,1,.73-.75c.56-.56,1.35-.82,2.13-.68.39.05.77.19,1.09.43.34.3.7.59,1.07.85.46.23.96.34,1.47.34.5-.05.99-.14,1.47-.28.88-.34,1.8-.59,2.73-.75.4-.02.8.06,1.15.26.35.24.66.54.92.87.34.4.86.62,1.39.58.43-.09.85-.21,1.26-.36.72-.22,1.5-.11,2.13.3.56.39.81,1.09.62,1.75l-.26.68.62-.36c.81-.5,1.86-.39,2.56.26.55.56.78,1.37.6,2.13v.28h.28c.85.04,1.6.59,1.9,1.39.23.62.3,1.29.21,1.94-.3,1.24-.47,1.83-.43,1.83Z"/>
    <path class="cls-4" d="M710.2,392.28c.17-.09.33-.19.47-.32.39-.38.71-.83.94-1.32.35-.8.43-1.69.23-2.54-.27-1.12-.98-2.08-1.96-2.67v.28c.42-.97.63-2.02.62-3.07-.04-.6-.25-1.18-.62-1.66-.38-.54-.98-.89-1.64-.96l.19.45c.73-.89.92-2.1.51-3.18-.2-.61-.56-1.16-1.04-1.58-.48-.4-1.08-.65-1.71-.7-.58,0-.9-.26-1.07-.77-.18-.54-.45-1.04-.81-1.47-.71-.74-1.61-1.28-2.6-1.56l-2.43-.85c-1.19-.44-2.46-.64-3.73-.58-.34.02-.68.09-1,.19-.21,0-.32.15-.32.17.44-.08.89-.13,1.34-.15,1.23.02,2.45.27,3.58.75l2.39.92c.91.25,1.74.76,2.39,1.45.32.39.56.84.7,1.32.1.31.29.59.55.79.27.18.58.29.9.32,1.57.22,2.67,1.67,2.46,3.25-.07.48-.25.93-.54,1.32l-.36.43h.55c1.04.17,1.8,1.08,1.79,2.13.01.99-.17,1.97-.55,2.88v.19h.15c.9.52,1.56,1.37,1.83,2.37.21.77.17,1.58-.13,2.32-.25.68-.62,1.31-1.09,1.86Z"/>
    <path class="cls-4" d="M649.09,363.39c.54-.27,1.02-.65,1.41-1.11.48-.46.85-1.03,1.07-1.66.31-.81.26-1.71-.15-2.47-.1-.18-.23-.35-.38-.49v.41c.58-.55.87-1.34.81-2.13-.06-.64-.37-1.23-.85-1.64-.83-.68-1.56-.55-1.54-.51.47.19.9.45,1.28.79.86.8.9,2.15.1,3.01-.03.03-.07.07-.1.1l-.19.19.19.21c.12.1.21.22.28.36.35.66.4,1.43.15,2.13-.19.57-.49,1.1-.87,1.56-.77.64-1.26,1.11-1.19,1.26Z"/>
    <path class="cls-4" d="M634.97,361.26c-.5-.5-.83-1.15-.94-1.86-.14-.8.15-1.61.77-2.13.78-.65,1.88-.76,2.77-.28l.43.21v-.47c-.06-.59,0-1.18.15-1.75.15-.58.54-1.06,1.07-1.34.81-.36,2,.15,1.98.92h.53c-.18-1.08.07-2.19.68-3.09.54-.72,1.28-1.27,2.13-1.56.77-.23,1.57-.31,2.37-.23-.2-.12-.41-.19-.64-.21-.61-.09-1.24-.04-1.83.13-.93.26-1.74.82-2.3,1.6-.74.99-1.05,2.24-.85,3.45h.53c-.02-.62-.4-1.16-.98-1.39-.56-.25-1.19-.25-1.75,0-.69.32-1.19.94-1.36,1.68-.2.63-.25,1.3-.15,1.96l.36-.26c-1.07-.48-2.32-.29-3.2.49-.66.61-.97,1.52-.81,2.41.1.56.36,1.09.77,1.49.06.04.26.21.28.21Z"/>
    <path class="cls-11" d="M677.53,384.33c.26-.28,11.24-8.87,15.89,3.99,4.65,12.86-9.19,14.93-9.34,14.5s-6.55-18.49-6.55-18.49Z"/>
    <path class="cls-5" d="M686.23,396.53s.28,0,.73.13c.61.02,1.21-.18,1.68-.58,1.3-1.69,1.59-3.95.75-5.91-.36-1.11-.97-2.13-1.77-2.99-.55-.72-1.42-1.13-2.32-1.09-.58.05-1.04.51-1.09,1.09,0,.43.13.64,0,.68s-.34,0-.43-.68c-.05-.34.03-.69.21-.98.25-.4.65-.67,1.11-.77,1.15-.18,2.31.25,3.07,1.13.97.91,1.7,2.05,2.13,3.31.97,2.29.48,4.95-1.26,6.74-.62.44-1.4.58-2.13.41-.55-.19-.73-.45-.68-.49Z"/>
    <path class="cls-13" d="M649.66,580.89s25.59,3.05,42.65-8.21c17.06-11.26,38.38-55.06,38.38-55.06,0,0-42.75,49.39-83.16,55.74l2.13,7.53Z"/>
    <path class="cls-7" d="M698.2,475.57c-14.56,18.96-42.01,54.76-42.01,54.76l-101.57,14.93,5.31,33.65,100.91-5.78c14.87-1.34,28.67-8.27,38.62-19.4,12.35-13.82,29.15-32.97,39.64-46.25,8.87-11.22,6.97-27.52-4.25-36.39-.64-.5-1.29-.97-1.97-1.41h0c-11.33-7.38-26.43-4.81-34.67,5.91Z"/>
    <path class="cls-4" d="M741.63,820.24c-.3,0-6.85-29.85-14.61-66.81-7.76-36.95-13.82-66.96-13.52-67.02s6.85,29.85,14.61,66.81c7.76,36.95,13.82,66.96,13.52,67.02Z"/>
    <path class="cls-4" d="M801.87,795.91c.23.21-1.28,2.13-3.35,4.26s-3.97,3.75-4.26,3.54c.84-1.63,1.98-3.07,3.37-4.26,2.18-2.15,4.14-3.75,4.24-3.54Z"/>
    <path class="cls-12" d="M714.51,456.36s-.32.49-1,1.39l-3.03,3.97-11.66,14.93-42.26,53.97v.15h-.19l-101.55,14.93.47-.62c1,6.18,2.13,12.79,3.16,19.4.79,4.95,1.6,9.87,2.39,14.71l-.6-.47,107.54-6.67h0c6.57-1.48,12.84-4.08,18.53-7.7,5.14-3.23,9.76-7.2,13.73-11.79l19.4-22.35,12.47-14.29,3.31-3.73c.75-.83,1.17-1.24,1.17-1.24,0,0-.34.47-1.07,1.34l-3.2,3.82-12.28,14.44c-5.35,6.23-11.81,13.8-19.19,22.5-8.48,9.96-19.93,16.93-32.67,19.9h0l-107.52,6.87h-.51v-.51c-.79-4.84-1.58-9.77-2.39-14.71-1.07-6.65-2.13-13.22-3.16-19.4v-.55h.55l101.59-14.8-.3.17,42.65-53.67,11.86-14.93,3.13-3.88c.23-.72.62-1.15.62-1.15Z"/>
    <path class="cls-12" d="M727.13,571.06c-.33.79-.76,1.54-1.26,2.24-.87,1.41-2.13,3.37-4.01,5.69-9.44,12.21-21.62,22.02-35.57,28.64-2.08,1.01-4.22,1.92-6.4,2.71-.78.34-1.6.6-2.43.77,0-.19,3.31-1.51,8.53-4.26,13.62-6.92,25.64-16.6,35.31-28.43,3.69-4.44,5.59-7.46,5.82-7.36Z"/>
    <path class="cls-12" d="M736.39,586.16c.15.26-8.89,5.67-20.17,12.09-11.28,6.42-20.58,11.41-20.73,11.15s8.87-5.69,20.17-12.11c11.3-6.42,20.58-11.41,20.73-11.13Z"/>
    <path class="cls-12" d="M635.01,526.35c-.32-.68-.56-1.4-.73-2.13-.47-1.64-1.04-3.6-1.73-5.93-1.47-5.27-3.37-12.07-5.48-19.58-2.11-7.51-3.97-14.59-5.27-19.64l-1.47-5.97c-.21-.69-.34-1.41-.41-2.13.37.67.64,1.39.81,2.13.47,1.39,1.09,3.39,1.83,5.89,1.47,4.99,3.45,11.9,5.57,19.58,2.11,7.68,3.92,14.61,5.18,19.66.81,2.65,1.38,5.37,1.68,8.12Z"/>
    <g class="cls-17">
      <path class="cls-1" d="M687.41,617.76c10-1.04,20.19-1.3,29.51-5.08s17.91-10.41,21.9-19.64c-16.39,9.71-33.59,17.98-51.41,24.71Z"/>
    </g>
    <path class="cls-9" d="M510.52,589.13c-.21.23-2.13,2.13-3.84,3.75-2.02,1.93-3.49,4.36-4.26,7.04-.83,3.01-1.36,5.35-1.49,5.54l-4.09,13.2,15.35,11.26,2.45-11.11c3.54-1.41,6.85-3.37,9.79-5.8,3.39-3.26,4.93-4.73,5.8-7.55.34-1.06.18-2.22-.43-3.16,0,0-.19-6.06-2.39-6.25.63-1.54.78-3.24.43-4.86-1.41-3.05-5.65-2.81-5.65-2.81.63-.47.76-1.37.29-2-.12-.16-.27-.29-.44-.39-.92-.57-2.12-.36-2.79.49l-8.53,7.61-.19-4.97Z"/>
    <path class="cls-7" d="M387.59,627.51c-6.28,9.9-4.4,22.91,4.44,30.62,20.24,17.66,75.06,48.36,83.29,46.91,11.88-1.98,42.97-71.18,42.97-71.18l-23.14-19.06-28.92,46.91s-23.88-22.54-42.65-37.32c-11.34-8.98-28.32-9.17-36.1,3.05l.11.06Z"/>
    <path class="cls-12" d="M422.56,623.54c.29.19.57.4.83.64l2.3,1.94,8.81,7.57,31.99,27.72-.64.11,28.83-46.91.32-.51.47.38,23.14,19.04.32.28-.17.38c-2.45,5.42-5.14,11.11-7.93,16.85-4.88,10.04-9.87,19.77-15.08,28.94-2.62,4.58-5.29,9.02-8.12,13.24-1.43,2.13-2.88,4.26-4.48,6.1-1.52,1.99-3.31,3.76-5.33,5.25-1.06.78-2.37,1.17-3.69,1.09-1.22-.14-2.42-.4-3.58-.79-2.28-.7-4.46-1.58-6.57-2.45-4.26-1.83-8.23-3.77-12.07-5.74-7.68-3.92-14.67-7.89-20.98-11.6-12.6-7.46-22.45-14.07-29.04-18.94-3.28-2.43-5.78-4.41-7.42-5.8-.83-.68-1.45-1.26-1.86-1.62-.21-.17-.41-.37-.6-.58.24.14.47.3.68.49l1.9,1.54c1.68,1.32,4.26,3.24,7.55,5.63,6.65,4.73,16.55,11.24,29.19,18.59,6.4,3.67,13.33,7.57,20.98,11.45,3.84,1.94,7.85,3.88,12.05,5.65,2.13.87,4.26,1.73,6.4,2.41,1.09.36,2.22.61,3.37.75,1.09.05,2.17-.28,3.05-.94,1.92-1.44,3.63-3.14,5.08-5.05,1.56-1.9,2.99-3.94,4.41-6.01,2.79-4.26,5.46-8.53,8.06-13.2,5.18-9.15,10.13-18.85,14.93-28.87,2.79-5.74,5.48-11.43,7.93-16.82l.15.64-23.09-19.06.77-.13-29,46.91-.28.43-.38-.34-31.75-28.08-8.64-7.74c-.96-.87-1.71-1.54-2.13-2.13-.24-.21-.46-.44-.66-.68Z"/>
    <path class="cls-14" d="M395.74,248.07c-.22.76-.56,1.48-1,2.13-2.55,4.41-2.41,9.88.36,14.16l4.86,7.42.58,11.43,24.78,5.93-1.15-20.13s4.09-8.53,4.14-14.24c.04-5.71-1.47-11.83-3.37-12.09l-2.45-.34c-1.08-1.89-2.84-3.29-4.93-3.92,0,0-1.49-7.42-4.05-8.06-2.56-.64-4.84,1.98-4.84,1.98,0,0-3.18-6.06-5.86-5.65-3.18.45-5.53,3.19-5.5,6.4l-1.64,15.69.09-.7Z"/>
    <path class="cls-2" d="M337.93,13.29c-1.11-3.29-4.67-5.07-7.97-3.96-3.2,1.07-4.98,4.48-4.04,7.71l298.86,951.95,13.07.53L337.93,13.29Z"/>
    <path class="cls-7" d="M345.65,25.89s-79.41,54.14-140.74,59.03c-61.33,4.88-131.04,9.57-167.59,50.6,0,0,135,21.17,142.59,39.13,0,0-80.69,64.1-92.91,100.88,0,0,58.04-20.56,70.03-25.59,39.79-16.87,117.15-9.36,146.62-19.98,32.63-11.79,63.52-44.91,90.39-50.05l-48.41-154.02Z"/>
    <polygon class="cls-16" points="253.74 94.96 278.84 120.19 313.85 113.83 297.6 145.5 314.47 176.82 279.35 171.17 254.74 196.89 249.28 161.73 217.21 146.29 248.96 130.23 253.74 94.96"/>
    <path class="cls-12" d="M321.25,81.21c-.12.5-.27.98-.47,1.45l-1.56,4.09c-.66,1.77-1.54,3.94-2.64,6.4-1.11,2.45-2.28,5.31-3.84,8.32-1.56,3.01-3.13,6.4-5.12,9.87s-4.09,7.16-6.4,11.02c-5.23,8.24-10.93,16.18-17.06,23.78-6.17,7.54-12.77,14.71-19.77,21.47-3.31,3.05-6.4,5.99-9.47,8.53s-5.93,4.93-8.53,7.02-5.18,3.86-7.38,5.44c-2.2,1.58-4.12,2.88-5.71,3.9l-3.69,2.35c-.42.29-.86.55-1.32.77.36-.36.76-.68,1.19-.94l3.58-2.54c1.56-1.07,3.45-2.39,5.59-4.03,2.13-1.64,4.65-3.39,7.25-5.57s5.52-4.44,8.53-7.1c3.01-2.67,6.12-5.52,9.38-8.53,6.94-6.78,13.51-13.94,19.66-21.45,6.12-7.56,11.81-15.44,17.06-23.63,2.35-3.82,4.61-7.42,6.5-10.92,1.9-3.5,3.67-6.74,5.2-9.77,1.54-3.03,2.81-5.8,3.97-8.23s2.13-4.56,2.81-6.4l1.75-4.01c.12-.45.28-.88.47-1.3Z"/>
    <path class="cls-12" d="M366.22,163.71c-.21-.37-.37-.76-.47-1.17l-1.13-3.37c-.98-3.11-2.32-7.36-3.99-12.54-3.31-10.66-7.8-25.25-12.67-41.45-4.86-16.21-9.15-30.94-12.13-41.65-1.49-5.33-2.64-9.68-3.39-12.79-.36-1.51-.62-2.69-.75-3.5-.07-.31-.12-.62-.13-.94,0,0,0-.28.13-.21h0c-.17-.21,0,.21.17,1l.96,3.43,3.71,12.6c3.24,10.66,7.61,25.38,12.45,41.54l12.35,41.56c1.51,5.2,2.75,9.49,3.67,12.62.38,1.39.68,2.54.94,3.43.13.47.23.95.28,1.43Z"/>
    <g class="cls-17">
      <path class="cls-1" d="M338.42,67.39c.9,19.51,1.81,39.13,6.18,58.17,4.37,19.04,12.39,37.62,25.89,51.73-12.2-36.18-22.9-72.83-32.11-109.95"/>
    </g>
    <path class="cls-11" d="M501.82,535.56h15.84c2.68,0,5.27.98,7.27,2.77l12.07,10.85,17.61-2,4.9,29.11-24.31-.92c-5.52,1.6-11.2,2.58-16.93,2.92-6.4,0-13.35-1.96-13.58-4.09-.23-2.13-.32-2.79-.32-2.79-2.09-1.27-3.61-3.29-4.26-5.65,0,0-8.36-1.88-9.02-4.8-.66-2.92,2.37-5.42,2.37-5.42,0,0-6.72-3.71-6.25-6.76.46-1.97,1.7-3.66,3.43-4.69l13.2-1.77-2.03-6.76Z"/>
    <path class="cls-12" d="M462.82,523.83c5.8,7.95,7.36,18.24,4.16,27.55-1.58,4.44-4.26,9.25-2.13,13.5,2.13,4.24,7.72,5.65,9.55,9.94,2.13,5.01-2.26,10.43-2.47,15.91-.05,5.31,3.76,9.88,9,10.77-7.09,3.16-14.91,4.3-22.6,3.31l-3.69-8.81c1.19,3.35-.05,7.08-3.01,9.06-2.93,1.85-6.34,2.8-9.81,2.73-16.75.56-32.79-6.73-43.39-19.7"/>
    <path class="cls-12" d="M367.03,540.72c2.35-2.96,4.54-6.03,6.57-9.21,3.71-7.23,2.32-16.87,7.91-22.75,3.97-4.26,10.26-5.05,16.04-5.25,5.78-.19,11.88,0,16.91-2.88,3.69-2.13,6.4-5.57,10.11-7.66,5.25-2.99,11.73-2.71,17.66-1.49,6.14,1.04,11.91,3.66,16.74,7.59,4.86,4.03,7.51,10.12,7.14,16.42-.68,2.95-1.13,5.94-1.34,8.96.17,3.33,1.92,6.4,2.62,9.6,1.36,7.12-2.27,14.26-8.83,17.36l-55.44,41.84c-9.49.92-29.3-8.7-34.23-16.87-4.93-8.17-7.1-27.68-1.86-35.65Z"/>
    <path class="cls-9" d="M459.3,544.37c1.58-12.47-3.71-29.17-16.25-30.22l-40.24,2.39c-3.81-.32-7.23,2.33-7.87,6.1l-13.54,93.34h-.26s3.69,27.72,30.6,24.69c5.33-.62,7.1,1.64,9.19-3.82h0l.13-.66c1.64-6.91,4.71-21.17,4.71-21.17h0c1.49-7.46,2.13-10.53,2.13-10.45s16.27.38,23.46-19.55c3.5-9.89,6.18-26.76,7.93-40.64Z"/>
    <path class="cls-12" d="M425.06,556.76c-.28,1.41-1.63,2.35-3.05,2.13-1.41-.15-2.42-1.41-2.27-2.82,0-.03,0-.05.01-.08.28-1.41,1.63-2.35,3.05-2.13,1.41.15,2.42,1.41,2.27,2.82,0,.03,0,.05-.01.08Z"/>
    <path class="cls-12" d="M452.05,560.79c-.29,1.41-1.63,2.34-3.05,2.13-1.42-.15-2.44-1.43-2.29-2.84,0-.02,0-.04,0-.06.29-1.41,1.63-2.34,3.05-2.13,1.42.15,2.44,1.43,2.29,2.84,0,.02,0,.04,0,.06Z"/>
    <path class="cls-12" d="M455.02,552.96c-.41.38-2.41-1.77-5.54-2.13-3.13-.36-5.61,1.15-5.91.66s.32-.96,1.41-1.68c2.95-1.93,6.88-1.41,9.21,1.24.79.9,1.02,1.75.83,1.92Z"/>
    <path class="cls-12" d="M426.21,548.61c-.47.32-2.37-2.03-5.65-2.77-3.28-.75-6.06.47-6.4,0s.43-.92,1.64-1.49c1.63-.72,3.45-.89,5.18-.49,1.72.4,3.26,1.36,4.37,2.73.92,1.02,1.11,1.88.85,2.03Z"/>
    <path class="cls-12" d="M432.29,570.62c1.59-.19,3.19-.19,4.78,0,.75,0,1.45,0,1.66-.41.23-.73.23-1.51,0-2.24-.34-1.9-.7-3.86-1.09-5.93-1.13-5.05-1.84-10.19-2.13-15.35,1.5,4.95,2.6,10.01,3.28,15.14.36,2.13.68,4.05,1,5.95.29.96.23,2-.17,2.92-.31.47-.82.77-1.39.83-.42.05-.84.05-1.26,0-1.6-.11-3.17-.42-4.69-.92Z"/>
    <path class="cls-3" d="M427.85,604.59c-9.71-1.7-18.76-6.06-26.14-12.6,0,0,4.01,15.4,24.95,17.4l1.19-4.8Z"/>
    <path class="cls-7" d="M429.79,577.23c-.85-1.6-2.46-2.65-4.26-2.77-1.29-.13-2.58.28-3.56,1.13-.96.81-1.31,2.15-.85,3.33.73,1.22,2.13,1.88,3.54,1.66,1.43-.22,2.8-.73,4.03-1.49.37-.16.7-.39.98-.68.27-.28.35-.69.19-1.04"/>
    <path class="cls-12" d="M423.56,571c.47,0,0,3.13,2.13,5.82,2.13,2.69,5.57,2.99,5.5,3.41s-.83.47-2.24.23c-1.81-.32-3.44-1.26-4.63-2.67-1.13-1.36-1.69-3.1-1.56-4.86.11-1.3.6-2,.79-1.94Z"/>
    <path class="cls-12" d="M428.6,539.06c-.43.73-3.18-.19-6.59-.43s-6.27.17-6.59-.62c-.13-.36.47-1,1.71-1.54,3.29-1.3,7-1.01,10.04.79,1.04.73,1.54,1.45,1.43,1.79Z"/>
    <path class="cls-12" d="M454.5,543.98c-.68.53-2.79-.55-5.48-1.11s-5.03-.51-5.44-1.28c-.17-.36.32-.94,1.43-1.36,3.07-.97,6.42-.24,8.81,1.92.81.85,1,1.58.68,1.83Z"/>
    <path class="cls-12" d="M393.88,517.22c2.87-2.1,6.33-3.25,9.89-3.28,15.19-1.58,30.52-1.34,45.65.7,1,3.5-1.79,7.12-5.12,8.53-3.44,1.11-7.04,1.68-10.66,1.68-3.6.34-7.48,1.32-9.72,4.26-2.24,2.94-2.26,7.44-4.48,10.66-3.8,5.44-12.79,5.1-16.53,10.66-2.86,4.12-1.54,9.7-2.13,14.69-1.25,9.85-10.25,16.82-20.1,15.56-.77-.1-1.54-.25-2.29-.44,3.71-17.59,7.41-35.17,11.11-52.76.7-3.86,1.58-7.78,4.37-10.28Z"/>
    <path class="cls-12" d="M347.12,551.49c3.41-1.71,7.4-2.88,9.45-6.1,2.99-4.67.51-11.79,4.41-15.74,3.56-3.58,10.66-1.43,14.01-5.16,2.67-2.92,1.47-6.4,2.94-9.25,2.12-2.92,5.88-4.16,9.32-3.07l14.35,40.69c-.92,12.09-.36,18.81-4.67,24.86-2.58,3.15-4.82,6.57-6.67,10.19-1.85,3.72-1.56,8.15.77,11.6-14.44-2.73-25.59-13.73-36-24.2l-10.9-11.09c-1.23-1.06-2.17-2.41-2.75-3.92-1.04-3.67,2.35-7.12,5.74-8.81Z"/>
    <path class="cls-4" d="M355.63,571.75c.45.29.93.52,1.43.7,1.44.55,2.96.84,4.5.87,7.78.13,14.2-6.07,14.33-13.86,0-.16,0-.33,0-.49-.14-2.03-.54-4.04-1.19-5.97-.72-1.99-1.14-4.07-1.24-6.18-.12-2.19.76-4.31,2.39-5.78,1.75-1.39,4.26-1.15,6.72-1.45,2.77-.11,5.1-2.13,5.59-4.86.38-2.58.51-5.2.41-7.8.04-1.26.36-2.49.94-3.6.63-1.09,1.64-1.92,2.84-2.32,2.51-.68,5.15-.68,7.66,0,2.6.59,5.3.54,7.87-.17,2.46-.75,4.67-2.15,6.4-4.05,1.54-1.89,2.78-3.99,3.69-6.25.82-2.1,1.86-4.11,3.09-5.99,1.26-1.69,2.86-3.09,4.69-4.12,6.25-3.42,13.99-2.44,19.19,2.43,1.74,1.61,3.18,3.52,4.26,5.63.93,1.82,1.64,3.75,2.13,5.74,0-.13,0-.27,0-.41,0-.26,0-.66-.21-1.17-.33-1.48-.84-2.91-1.51-4.26-1.06-2.18-2.5-4.16-4.26-5.82-2.37-2.26-5.32-3.8-8.53-4.46-3.9-.72-7.93-.1-11.43,1.75-1.94,1.05-3.63,2.5-4.95,4.26-1.27,1.92-2.35,3.96-3.22,6.1-.87,2.19-2.07,4.23-3.56,6.06-1.65,1.8-3.76,3.11-6.1,3.8-2.44.68-5.02.73-7.48.13-2.65-.72-5.45-.72-8.1,0-1.37.47-2.53,1.43-3.26,2.69-.66,1.23-1.03,2.59-1.07,3.99.11,2.56-.01,5.12-.36,7.66-.4,2.4-2.45,4.19-4.88,4.26-1.19.17-2.41.17-3.63.32-1.24.12-2.43.56-3.45,1.28-1.81,1.62-2.78,3.97-2.64,6.4.11,2.19.55,4.34,1.3,6.4.65,1.87,1.06,3.81,1.22,5.78.05,1.81-.26,3.62-.92,5.31-1.11,2.95-3.21,5.42-5.95,6.97-2.08,1.14-4.43,1.74-6.8,1.73-2.01-.03-4.01-.44-5.86-1.22Z"/>
    <path class="cls-12" d="M343.3,542.26c-.33.29-.6.65-.79,1.04-.55,1.14-.67,2.44-.34,3.67.49,2.01,2.08,3.56,4.09,4.01,2.65.67,5.44-.2,7.25-2.24,1.02-1.16,1.76-2.55,2.13-4.05.39-1.61.49-3.28.28-4.93-.28-3.37-1.51-6.91-.6-10.49.35-1.81,1.42-3.4,2.96-4.41,1.76-.8,3.77-.88,5.59-.21,2.02.72,4.15,1.07,6.29,1.02,1.16-.14,2.24-.64,3.09-1.43.83-.8,1.47-1.76,1.88-2.84.66-2.07,1.06-4.22,1.19-6.4.23-2.03.88-3.98,1.92-5.74,1.99-3.34,5.18-5.79,8.91-6.85,3.45-.72,7.03-.57,10.41.43,3.04.83,6.19,1.17,9.34,1.02,2.6-.26,5.12-1.03,7.42-2.28,1.73-.92,3.31-2.11,4.67-3.52,1.2-1.16,2.18-2.52,2.9-4.03-.92,1.36-1.97,2.63-3.13,3.8-1.38,1.34-2.95,2.46-4.67,3.33-2.24,1.2-4.7,1.92-7.23,2.13-3.09.11-6.18-.26-9.15-1.11-3.5-1.04-7.19-1.21-10.77-.49-3.95,1.1-7.32,3.67-9.43,7.19-1.14,1.84-1.86,3.91-2.13,6.06-.13,2.11-.52,4.21-1.15,6.23-.62,1.94-2.26,3.39-4.26,3.75-2.04,0-4.07-.33-5.99-1-2.02-.71-4.24-.59-6.18.32-1.73,1.12-2.93,2.9-3.31,4.93-.42,1.85-.47,3.76-.15,5.63.26,1.77.62,3.48.79,5.12.22,1.56.15,3.15-.19,4.69-.36,1.41-1.05,2.72-2,3.82-1.67,1.89-4.24,2.71-6.7,2.13-.99-.23-1.9-.73-2.62-1.45-1.45-1.53-1.87-3.76-1.09-5.71.23-.39.49-.77.77-1.13Z"/>
    <path class="cls-12" d="M490.09,591.15c.07,1.31-.3,2.61-1.04,3.69-.88,1.22-2.25,2-3.75,2.13-2.01.04-3.87-1.06-4.8-2.84-.53-1.01-.68-2.17-.43-3.28.29-1.23.81-2.39,1.51-3.43,1.41-2.13,3.65-4.37,4.26-7.55.63-3.27-.14-6.66-2.13-9.34-1.03-1.4-2.31-2.59-3.77-3.52-1.51-.92-3.14-1.64-4.84-2.13-1.64-.47-3.23-1.09-4.76-1.86-1.42-.72-2.54-1.92-3.16-3.39-.5-1.47-.59-3.05-.26-4.56.31-1.49.84-2.92,1.56-4.26,1.5-2.49,2.68-5.15,3.52-7.93.53-2.53.3-5.15-.66-7.55-.86-1.93-2.06-3.68-3.56-5.16-1.09-1.1-2.09-2.28-2.99-3.54-.73-1.09-1.24-2.32-1.51-3.6v.26c-.02.26-.02.53,0,.79.21.98.6,1.91,1.15,2.75.87,1.3,1.85,2.53,2.92,3.67,1.41,1.47,2.53,3.18,3.33,5.05.89,2.29,1.08,4.79.53,7.19-.84,2.71-2.02,5.31-3.52,7.72-.75,1.4-1.31,2.9-1.64,4.46-.38,1.66-.29,3.4.26,5.01.68,1.66,1.94,3.03,3.54,3.84,1.56.79,3.2,1.44,4.88,1.92,1.63.45,3.19,1.12,4.65,1.98,1.39.86,2.6,1.99,3.56,3.31,1.86,2.48,2.58,5.64,1.98,8.68-.51,2.92-2.6,5.03-4.07,7.34-.74,1.12-1.27,2.37-1.56,3.69-.27,1.26-.08,2.58.53,3.71,1.05,1.95,3.14,3.12,5.35,3.01,1.64-.15,3.12-1.07,3.99-2.47.58-.83.9-1.82.92-2.84.04-.3.04-.61,0-.92Z"/>
    <path class="cls-7" d="M212.8,905.9l41.5-8.81,6.91,34.12-30.49.68.3,27.51c13.69,3.86,15.61,10.79,15.61,10.79l-28.62-.66-24.91-50.64,19.7-12.99Z"/>
    <g class="cls-18">
      <polygon class="cls-15" points="193.09 918.8 218 969.44 246.62 970.1 243.5 965.73 220.24 963.92 197.27 916.05 193.09 918.8"/>
    </g>
    <path class="cls-12" d="M231.11,946.71c-.21.3-1.86-.68-4.07-.66s-3.86.9-4.07.6,1.39-1.9,4.09-1.86c2.71.04,4.31,1.71,4.05,1.92Z"/>
    <path class="cls-12" d="M230.79,939.89c-.28.19-1.51-1.51-3.8-2.13s-4.12.51-4.26.21.26-.6,1.07-1.02c1.09-.54,2.33-.68,3.52-.41,1.18.26,2.24.91,3.01,1.86.51.75.62,1.41.47,1.49Z"/>
    <path class="cls-12" d="M231.18,931.12c-.32.17-1.26-1.51-3.22-2.26-1.96-.75-3.8-.11-3.92-.43s.3-.55,1.09-.83c2.19-.71,4.58.17,5.78,2.13.41.87.43,1.34.28,1.39Z"/>
    <path class="cls-12" d="M233.29,931.12c-.34,0-.13-1.9-1-3.84-.87-1.94-2.24-3.05-2.13-3.37s2.13.49,3.24,2.88.19,4.48-.11,4.33Z"/>
    <path class="cls-12" d="M236.68,927.88c-.44-1.23-.67-2.53-.68-3.84-.13-1.36-.26-2.77-.38-4.26-.13-.89-.13-1.8,0-2.69.16-.59.54-1.09,1.07-1.41.59-.39,1.35-.39,1.94,0,.78.67,1.35,1.55,1.64,2.54.29.84.46,1.72.51,2.6.08,1.46-.17,2.92-.75,4.26-1.02,2.32-2.47,3.18-2.52,3.07.62-1.1,1.18-2.23,1.68-3.39.41-1.27.55-2.6.43-3.92-.08-.77-.26-1.53-.53-2.26-.22-.73-.62-1.39-1.17-1.92-.18-.13-.42-.13-.6,0-.23.16-.4.39-.47.66-.1.76-.1,1.52,0,2.28v4.26c.16,1.34.1,2.69-.17,4.01Z"/>
    <path class="cls-12" d="M237.15,929.14c-.13,0,.73-1.32,2.92-2.13,3.05-.97,6.38.22,8.12,2.9.13.37.08.78-.13,1.11-.17.29-.43.5-.75.62-.43.16-.88.24-1.34.26-2.09.19-4.19-.14-6.12-.96-2.13-.9-2.99-1.94-2.9-2.13,1.1.35,2.17.75,3.22,1.22,1.16.36,2.35.58,3.56.64.71.05,1.42.05,2.13,0,.33-.02.66-.08.98-.19.23-.15.17-.11.17-.19s-.3-.43-.58-.68c-.25-.25-.53-.47-.83-.66-.56-.39-1.18-.69-1.83-.9-1.12-.35-2.31-.42-3.45-.19-1.08.37-2.14.81-3.18,1.3Z"/>
    <g class="cls-18">
      <path class="cls-15" d="M215.95,918.43c-.02,1.88-1.57,3.39-3.46,3.37-1.88-.02-3.39-1.57-3.37-3.46s1.57-3.39,3.46-3.37c.01,0,.03,0,.04,0,1.87.05,3.35,1.59,3.33,3.45Z"/>
    </g>
    <path class="cls-7" d="M527.73,909.63l-.41,37.49s39.92,14.93,40.52,21.77h-74.63l-1.79-58.43,36.31-.83Z"/>
    <g class="cls-18">
      <path class="cls-15" d="M504.77,944.53c-1.43.49-2.27,1.96-1.96,3.43.42,1.46,1.91,2.34,3.39,1.98,1.55-.47,2.48-2.06,2.13-3.65-.59-1.48-2.26-2.22-3.75-1.66"/>
    </g>
    <g class="cls-18">
      <path class="cls-15" d="M493.21,968.99v-5.91l69.69.43s5.22,3.2,4.9,5.48h-74.59Z"/>
    </g>
    <path class="cls-12" d="M528.5,946.71c0,.36-1.77.55-3.5,1.75-1.73,1.19-2.6,2.71-2.92,2.56s.13-2.13,2.24-3.58,4.24-1.04,4.18-.73Z"/>
    <path class="cls-12" d="M536.22,949.67c0,.34-1.45.98-2.6,2.52-1.15,1.54-1.47,3.13-1.83,3.11s-.64-2,.85-3.88,3.56-2.09,3.58-1.75Z"/>
    <path class="cls-12" d="M540.78,958.69c-.32,0-.87-1.68,0-3.65.87-1.96,2.49-2.79,2.64-2.49s-.83,1.34-1.51,2.99-.79,3.11-1.13,3.16Z"/>
    <path class="cls-12" d="M527.65,938.16c-.15.32-1.79-.13-3.8,0s-3.54.85-3.73.55,1.28-1.6,3.65-1.79c2.37-.19,4.05.96,3.88,1.24Z"/>
    <g class="cls-17">
      <polygon class="cls-1" points="527.65 917.05 527.58 923.72 491.84 924.32 491.63 918.31 527.65 917.05"/>
    </g>
    <path class="cls-12" d="M527.58,930.61c-1.19.33-2.45.33-3.65,0-1.32-.2-2.61-.57-3.84-1.09-.73-.3-1.45-.65-2.13-1.04-.42-.22-.8-.5-1.13-.83-.49-.51-.57-1.27-.21-1.88.35-.51.92-.83,1.54-.85.47-.02.93.03,1.39.15.78.17,1.55.41,2.28.73,1.24.53,2.39,1.25,3.41,2.13,1.73,1.51,2.32,2.84,2.13,2.9s-1-.96-2.77-2.13c-1.01-.72-2.12-1.31-3.28-1.75-.69-.25-1.41-.45-2.13-.58-.77-.19-1.43-.17-1.62.17s0,.19,0,.41c.25.23.53.43.83.6.66.41,1.32.75,1.96,1.07,1.14.52,2.32.94,3.54,1.26,1.25.15,2.48.4,3.69.75Z"/>
    <path class="cls-12" d="M527.13,931.12c-.71-1.03-1.08-2.25-1.04-3.5-.17-2.15.26-4.31,1.26-6.23.37-1,1.24-1.72,2.28-1.9.66-.01,1.26.36,1.54.96.2.42.34.88.41,1.34.13.81.13,1.64,0,2.45-.18,1.37-.68,2.67-1.47,3.8-1.36,1.92-2.84,2.39-2.88,2.26s1.11-.9,2.13-2.73c.61-1.06.97-2.24,1.07-3.45.07-.71.04-1.43-.11-2.13-.15-.77-.45-1.39-.73-1.28s-.96.6-1.26,1.22c-.33.65-.61,1.32-.85,2-.37,1.18-.57,2.41-.6,3.65.04,2.15.45,3.48.26,3.54Z"/>
    <path class="cls-12" d="M329.72,830.39c2.56,0,14.8,49.92,14.8,49.92l-113.19,16.87,7.19,45.14s133.64-8.93,142.87-11.02c16.29-3.71,28.62-19.47,28.08-40.15-.62-23.82-14.54-79.92-14.54-79.92l-65.21,19.17Z"/>
    <path class="cls-13" d="M400.87,838.53l-65.68,4.76s5.46,11.34,23.95,12.67c18.49,1.32,45.46,0,45.46,0l-3.73-17.42Z"/>
    <path class="cls-12" d="M541,792.2c-1.76-20.5-18.98-36.2-39.56-36.06h-20.13l-108.75,5.63-59.11-17.98s-20.54,36.7-8.72,67.36c7.07,18.75,23.6,32.31,43.37,35.57,24.59,4.26,137.2-19.51,137.2-19.51v100.22l51.18-1.32,4.63-131.97c-.02-.64-.06-1.28-.11-1.94Z"/>
    <path class="cls-4" d="M485.34,827.21l-.66.17-1.98.41-7.63,1.43-28.08,5.05-41.67,7.38-24.63,4.26c-8.85,1.64-17.87,2.15-26.85,1.51-4.56-.32-9.08-1.03-13.52-2.13-4.34-1.03-8.53-2.57-12.5-4.61-7.42-4.09-13.64-10.05-18.04-17.29-4.05-6.45-6.86-13.61-8.3-21.09-1.26-6.51-1.5-13.17-.73-19.75,1.38-9.45,3.86-18.7,7.4-27.57,1.26-3.13,2.39-5.5,3.2-7.08.43-.79.75-1.39.98-1.77s.36-.6.38-.58c-.07.21-.17.42-.28.62-.23.47-.51,1.07-.87,1.83-.75,1.6-1.81,3.99-3.01,7.12-3.36,8.88-5.71,18.11-7.02,27.51-.72,6.49-.44,13.06.83,19.47,1.45,7.36,4.26,14.39,8.27,20.73,4.33,7.1,10.44,12.93,17.72,16.93,3.89,1.98,8.01,3.49,12.26,4.5,4.38,1.09,8.85,1.81,13.35,2.13,8.89.61,17.82.1,26.59-1.49l24.63-4.26,41.71-7.12,28.15-4.71,7.66-1.24,2-.28c.2-.05.41-.08.62-.09Z"/>
    <path class="cls-4" d="M351.17,934.51h-.55l-1.62.15-6.4.53-23.46,1.77-80.65,5.74h-.49v-.47c-1.86-11.62-3.84-24.03-5.89-36.81l-1.32-8.34v-.55h.55l113.23-16.63h0c6.06,2.96,11.73,6.67,16.85,11.07,1.77,1.54,3.05,2.81,3.88,3.69l.94,1.02c.19.23.3.36.28.36s-.13,0-.34-.3l-1-.96c-.87-.83-2.13-2.13-3.97-3.56-5.19-4.22-10.86-7.8-16.91-10.66h.19l-113.15,17.06.47-.64,1.32,8.34c2.03,12.79,3.99,25.18,5.84,36.81l-.58-.47,80.67-5.33,23.46-1.45,6.4-.34h1.62l.62-.02Z"/>
    <path class="cls-4" d="M496.68,814.95c-2.51,1.39-4.84,3.08-6.93,5.03-1.82,2.2-3.36,4.62-4.58,7.21-.13,0,0-1.04.45-2.58,1.48-4.06,4.57-7.32,8.53-9.04,1.49-.62,2.49-.75,2.54-.62Z"/>
    <path class="cls-4" d="M405.27,760.4c-1,.25-2.02.4-3.05.45-1.96.23-4.8.45-8.32.64-7.04.41-16.78.6-27.53.7-10.75.11-20.47.28-27.49.68-3.52.17-6.4.38-8.32.55-1.01.14-2.03.19-3.05.17.98-.31,1.99-.51,3.01-.6,1.96-.3,4.8-.64,8.32-.92,7.02-.6,16.76-.87,27.53-1s20.45-.17,27.49-.38l8.34-.28c1.02-.09,2.05-.1,3.07-.02Z"/>
    <path class="cls-7" d="M383.5,601.69l-1.13,1.34c-15.15,3.19-27.25,14.55-31.39,29.47-4.14,14.63-5.42,41.67-13.88,78.32,0,0-20.79,18.81-24.67,32.97l60.07,18.1,32.78-1.83,12.67-39.32c12.26,0,17.49-6.14,21.9-16.21,5.86-13.39-13.48-74.83-13.48-74.83l1.39,10.49-44.25-38.51Z"/>
    <path class="cls-13" d="M434.99,653.5l14.65,29.75-8.98,1.36s-5.54-28.89-5.67-31.11Z"/>
    <path class="cls-12" d="M423.84,720.74c0-.11,1.04-.34,2.81-1.13,2.49-1.14,4.74-2.75,6.61-4.76,2.76-2.98,4.82-6.55,6.03-10.43,1.4-4.79,1.87-9.81,1.39-14.78-.46-5.03-1.28-10.02-2.45-14.93-1-4.52-1.92-8.64-2.49-12.11-.46-2.75-.75-5.53-.85-8.32-.09-1.01-.05-2.03.11-3.03.17,1,.28,2.01.32,3.03.26,2.76.66,5.5,1.22,8.21.66,3.45,1.64,7.51,2.71,12.05,1.24,4.9,2.1,9.89,2.56,14.93.48,5.11-.03,10.27-1.51,15.18-1.29,4-3.47,7.65-6.4,10.66-1.99,2.02-4.38,3.6-7.02,4.63-.69.27-1.41.47-2.13.62-.62.17-.9.21-.9.17Z"/>
    <path class="cls-13" d="M354.2,658.41s20.3,69.99,33.56,80.65c7.02,6.3,17.68,6.21,24.61-.19l2.45-12.05-60.62-68.41Z"/>
    <path class="cls-9" d="M545.88,652.82c-2.32-2.13-3.67-1.32-3.67-1.32,0,0,1.24-5.67-1.73-7.66-.9-.62-1.41-.94-1.66-1.09-.3-.75-2.13-4.82-5.18-5.5,0,0-.41-5.33-2.64-5.82-4.26-.94-6.03,3.6-6.03,3.6l-7.66,14.63-3.65,14.93-62.69,29.11,6.7,28.74,70.37-36.25,12.54-12.03s7.61-19.28,5.31-21.35Z"/>
    <path class="cls-7" d="M358.85,637.32c0,2.24,35.38,94.57,52.12,101.01,6.38,2.49,102.93-33.76,102.93-33.76l-11.75-35.59s-67.51,22.69-69.77,22.6-23.35-58.49-23.35-58.49c0,0-13.24-27.72-33.14-19.09-12.75,5.57-17.04,23.31-17.04,23.31Z"/>
    <path class="cls-12" d="M432.35,691.63l1.26-.47,3.67-1.26,14.05-4.69,50.64-16.61.45-.15.15.43c3.56,10.79,7.55,22.8,11.79,35.57l.15.47-.47.19c-15.14,5.82-31.73,12.07-49.05,18.25-10.66,3.77-21.05,7.36-31.2,10.51-5.1,1.54-10.09,3.07-15.12,4.26-1.24.31-2.5.54-3.77.7l-1.92.28c-.72.08-1.44.02-2.13-.17-2.38-.97-4.48-2.52-6.12-4.5-3.14-3.62-5.94-7.53-8.36-11.66-2.39-3.99-4.54-7.93-6.55-11.79-4.01-7.72-7.42-15.08-10.43-21.81-6.01-13.5-10.43-24.61-13.41-32.31-1.49-3.86-2.62-6.87-3.35-8.91-.36-.98-.64-1.75-.83-2.32-.1-.27-.18-.54-.26-.81.15.24.27.5.36.77l.92,2.3,3.56,8.81c3.11,7.66,7.63,18.72,13.73,32.16,3.05,6.72,6.4,14.03,10.51,21.71,2,3.84,4.26,7.76,6.57,11.71,2.4,4.07,5.17,7.91,8.27,11.47,1.51,1.86,3.46,3.33,5.67,4.26,1.17.2,2.37.16,3.52-.13,1.24-.16,2.48-.4,3.69-.73,4.97-1.09,9.96-2.64,14.93-4.26,10.13-3.16,20.51-6.76,31.13-10.51,17.38-6.18,33.97-12.39,49.05-18.19l-.32.64c-4.26-12.79-8.12-24.8-11.69-35.59l.6.3-50.77,16.25-14.14,4.44-3.71,1.13c-.58.19-1.09.28-1.09.28Z"/>
    <path class="cls-12" d="M381.45,613.24c.32-.1.65-.14.98-.13.94-.06,1.89-.06,2.84,0,3.52.13,6.96,1.13,10,2.9,2.07,1.28,3.93,2.87,5.5,4.73,1.84,2.06,3.52,4.25,5.03,6.57,3.29,5.38,6.14,11.01,8.53,16.85,5.33,12.28,9.21,23.78,11.94,31.99,1.36,4.26,2.41,7.55,3.11,9.89.43,1.19.76,2.42.98,3.67-.54-1.15-1.01-2.33-1.39-3.54l-3.45-9.77c-2.92-8.25-6.91-19.68-12.22-31.99-2.41-5.78-5.26-11.37-8.53-16.72-1.46-2.29-3.08-4.47-4.86-6.53-1.49-1.82-3.25-3.4-5.22-4.67-2.92-1.78-6.21-2.86-9.62-3.16-2.26-.06-3.63,0-3.63-.11Z"/>
    <path class="cls-3" d="M533.62,637.45c.28.15-.51,2.13-1.75,4.26s-2.47,3.82-2.73,3.67.51-2.13,1.75-4.26c1.24-2.13,2.47-3.82,2.73-3.67Z"/>
    <path class="cls-3" d="M537.97,642.56c.26.17-.66,1.86-1.86,3.88-1.19,2.03-2.13,3.65-2.49,3.52s.32-2,1.54-4.07,2.58-3.52,2.81-3.33Z"/>
    <path class="cls-3" d="M542.21,651.46c.28.13,0,1.45-.81,2.96-.81,1.51-1.54,2.6-1.81,2.45s.11-1.45.83-2.94,1.54-2.67,1.79-2.47Z"/>
    <path class="cls-12" d="M432.5,690.71c.28.19-1.81,3.41-3.35,7.83-1.54,4.41-1.98,8.21-2.32,8.19-.3-2.91.14-5.84,1.28-8.53.79-2.83,2.31-5.41,4.39-7.48Z"/>
    <path class="cls-11" d="M452.05,368.98l-16.8-6.8c-1.6,2.8-.86,6.36,1.73,8.3,3,2.65,6.36,4.85,9.98,6.55,0,0,1.92,8.53,6.23,12.79s14.03-2.52,14.03-2.52c0,0-.09-12.67-15.16-18.32Z"/>
    <path class="cls-14" d="M477.19,423.63c-2-2.81-4.01-1.13-4.01-1.13,0,0,2.39-5.97-.49-8.68-.87-.83-1.36-1.28-1.62-1.49-.21-.87-1.47-5.65-4.69-6.97,0,0,0-5.61-2.39-6.53-3.77-1.43-8,2.88-8,2.88l-9.72,14.31-14.46,23.99,8.06,25.59,22.94-14.27,4.56-4.44s12.15-19.98,9.81-23.26Z"/>
    <path class="cls-8" d="M466.57,405.12c.26.17-.45,1.79-1.58,3.63-1.13,1.83-2.26,3.2-2.54,3.03s.45-1.77,1.6-3.6c1.15-1.83,2.26-3.22,2.52-3.05Z"/>
    <path class="cls-8" d="M471.03,411.71c-.06,2.04-.81,4.01-2.13,5.57-1.92,2.77-4.26,4.16-4.48,3.9s1.79-1.94,3.56-4.54c1.77-2.6,2.75-5.03,3.05-4.93Z"/>
    <path class="cls-8" d="M473.08,421.56c.26.13-.21,1.79-1.51,3.45s-2.79,2.52-2.96,2.28.9-1.43,2.13-2.96c1.24-1.54,2.05-2.9,2.35-2.77Z"/>
    <path class="cls-11" d="M429.17,391.26c2.76,3.29,6.25,5.88,10.19,7.57,1.56.8,3.32,1.09,5.05.85,1.76-.32,3.05-1.85,3.05-3.65-.28-1.26-1-2.37-2.03-3.16l-7.61-7.34c.82,1.37,1.84,2.61,3.03,3.67,1.2,1.09,2.83,1.58,4.44,1.34,1.62-.32,2.77-1.76,2.73-3.41-.22-.97-.69-1.86-1.36-2.58l-9.92-12.58"/>
    <path class="cls-5" d="M447.4,396.87s.13.38-.13.96c-.41.81-1.06,1.47-1.86,1.9-1.16.66-2.46,1.02-3.8,1.04-1.62-.05-3.2-.53-4.58-1.39-3.54-1.91-6.37-4.9-8.1-8.53,2.55,2.89,5.46,5.44,8.66,7.59,1.22.76,2.61,1.22,4.05,1.32,1.17.02,2.33-.22,3.39-.7,1-.46,1.83-1.23,2.37-2.2Z"/>
    <path class="cls-5" d="M447.79,388.42s0,.36-.34.9c-.5.74-1.26,1.25-2.13,1.45-2.91.39-5.85-.44-8.12-2.28-2.16-1.85-3.87-4.15-5.03-6.74-.6-.99-1.02-2.08-1.24-3.22.15,0,.83,1.04,1.92,2.86,1.31,2.34,3,4.45,5.01,6.23,2.08,1.64,4.67,2.48,7.31,2.37,1.96-.26,2.49-1.71,2.62-1.56Z"/>
    <path class="cls-5" d="M444.95,399.64s.43,0,.96.51c.74.71,1.21,1.66,1.3,2.69.09,1.58-.69,3.09-2.03,3.94-1.68.89-3.68.93-5.39.13-2.99-1.12-5.64-2.99-7.7-5.44-.93-.94-1.62-2.09-2-3.35.15,0,.94,1.15,2.58,2.81,2.11,2.17,4.67,3.85,7.51,4.93,1.41.67,3.05.67,4.46,0,1.08-.65,1.75-1.79,1.79-3.05-.02-.87-.31-1.71-.83-2.41-.38-.49-.68-.77-.64-.77Z"/>
    <path class="cls-5" d="M456.32,391.24c-2-.18-3.84-1.14-5.12-2.69-1.47-1.57-2.55-3.45-3.18-5.5-.38-1.2-.66-2.42-.83-3.67-.04-.57-.2-1.13-.47-1.64-.34-.44-.81-.77-1.34-.94-2.4-.98-4.67-2.25-6.76-3.77-1.65-1.37-2.9-3.15-3.63-5.16-.59-1.34-.75-2.83-.47-4.26.08-.53.32-1.03.68-1.43,0,0-.15.53-.26,1.49-.1,1.35.17,2.69.77,3.9.81,1.84,2.07,3.44,3.67,4.65,2.05,1.43,4.26,2.63,6.57,3.58.74.25,1.38.73,1.83,1.36.35.66.56,1.39.62,2.13.14,1.18.37,2.35.7,3.5.95,3.85,3.67,7.02,7.34,8.53l-.13-.09Z"/>
    <path class="cls-9" d="M509.44,589.59l13.07-10.13c2.14,2.04,2.38,5.37.55,7.7-1.99,3.07-4.4,5.84-7.16,8.23,0,0,.43,7.95-2.28,12.79-2.71,4.84-12.94,1.28-12.94,1.28,0,0-3.16-11.17,8.76-19.87Z"/>
    <path class="cls-9" d="M529.52,602.77c-1.6,2.64-3.79,4.89-6.4,6.55-1.29.5-2.69.63-4.05.36-1.29-.13-2.3-1.16-2.41-2.45.16-.92.62-1.76,1.3-2.39l5.05-5.69c-.52,1.03-1.19,1.98-1.98,2.81-.81.84-1.95,1.28-3.11,1.22-1.18-.14-2.08-1.12-2.13-2.3.11-.71.4-1.37.83-1.94l6.4-9.6"/>
    <path class="cls-9" d="M529.52,607.27c-1.36,2.75-3.56,4.99-6.29,6.4-1.03.63-2.27.85-3.45.62-1.01-.34-1.77-1.19-1.98-2.24-.16-1.06.26-2.12,1.11-2.77"/>
    <path class="cls-3" d="M518.9,609.21c.15.11-.85.85-.75,2.39.1.85.63,1.59,1.41,1.96,1.02.37,2.15.26,3.07-.3,1.95-.93,3.68-2.25,5.1-3.88,1.09-1.28,1.62-2.13,1.79-2.13s-.17,1.11-1.17,2.58c-1.33,1.91-3.14,3.44-5.25,4.44-1.23.69-2.72.76-4.01.19-1.06-.56-1.72-1.66-1.73-2.86-.02-.79.28-1.56.83-2.13.38-.23.68-.32.7-.26Z"/>
    <path class="cls-3" d="M516.98,607.36c.5.59,1.15,1.05,1.88,1.32.77.28,1.6.38,2.41.28,1-.16,1.95-.55,2.77-1.15,2.13-1.76,4.1-3.71,5.89-5.82-.91,2.79-2.77,5.18-5.27,6.74-.96.7-2.1,1.14-3.28,1.26-.98.07-1.96-.13-2.84-.58-.61-.27-1.12-.73-1.45-1.32-.21-.43-.17-.7-.11-.73Z"/>
    <path class="cls-3" d="M516.2,601.92c.17-.13.66.83,2.13.85,1.86-.11,3.62-.86,4.99-2.13,1.34-1.38,2.44-2.96,3.26-4.69.7-1.34,1.17-2.13,1.3-2.13s0,.98-.58,2.43c-.68,1.96-1.78,3.73-3.24,5.2-1.56,1.48-3.67,2.25-5.82,2.13-.68-.08-1.31-.44-1.73-.98-.32-.38-.36-.66-.32-.68Z"/>
    <path class="cls-3" d="M511.04,610.24c1.31-1.1,2.39-2.45,3.18-3.97.75-1.67,1.13-3.48,1.13-5.31,0-1.09-.09-2.18-.23-3.26-.15-.65-.15-1.33,0-1.98.24-.68.69-1.27,1.28-1.68,1.79-1.4,3.43-2.99,4.88-4.73,1.12-1.45,1.85-3.16,2.13-4.97.21-1.21.11-2.46-.3-3.63-.3-.79-.64-1.17-.58-1.24s.49.23.98,1.07c.61,1.2.84,2.55.66,3.88-.17,1.98-.87,3.87-2.03,5.48-1.46,1.85-3.14,3.53-4.99,4.99-.43.27-.77.68-.96,1.15-.1.5-.1,1.01,0,1.51.16,1.14.22,2.29.19,3.43-.05,1.97-.54,3.9-1.45,5.65-.76,1.68-2.17,2.98-3.9,3.6Z"/>
    <path class="cls-8" d="M416.44,240.07c.5,1.86.74,3.77.73,5.69.09,2.12-.16,4.25-.77,6.29-.35,1.26-.98,2.42-1.83,3.41-.52.54-1.17.94-1.9,1.13-.81.21-1.66.08-2.37-.36-1.12-.94-1.88-2.25-2.13-3.69-.3-1.27-.53-2.48-.7-3.65-.32-2.07-.47-4.16-.45-6.25-.11-1.93.11-3.86.66-5.71.17,0,0,2.13.13,5.69.1,2.04.32,4.08.66,6.1.21,1.15.45,2.32.77,3.54.19,1.17.77,2.24,1.66,3.03.97.52,2.17.26,2.86-.6.76-.86,1.32-1.87,1.64-2.96.61-1.93.93-3.94.96-5.97-.08-1.9-.05-3.8.09-5.69Z"/>
    <path class="cls-8" d="M424.12,245.4c.29,1.01.37,2.07.26,3.11.02,2.57-.59,5.11-1.77,7.4-.38.67-.84,1.28-1.39,1.81-.56.57-1.33.9-2.13.92-1.33-.1-2.48-.99-2.9-2.26-.43-1.01-.48-2.13-.15-3.18.21,0,.19,1.24.87,2.86.37.87,1.19,1.47,2.13,1.56.96,0,1.88-1.07,2.56-2.26,1.09-2.15,1.74-4.49,1.94-6.89.03-1.05.23-2.08.58-3.07Z"/>
    <path class="cls-14" d="M400.87,279.76c6.78-4.26,1.11-27.32-3.11-32.73,4.63-4.69,6.74-9.96,3.45-15.67-4.26,4.26-11.54,9.57-12.79,21.32l1.32,8.98,11.13,18.1Z"/>
    <path class="cls-8" d="M402.58,270.18c.34-2.03.58-4.07.7-6.12.04-4.93-1.61-9.73-4.67-13.6-.69-.88-1.45-1.7-2.28-2.45l-.49-.47.55-.38c3.39-2.4,5.45-6.26,5.57-10.41-.04-1.68-.23-3.36-.58-5.01.29.36.5.79.62,1.24.42,1.21.65,2.49.68,3.77.05,1.95-.33,3.89-1.11,5.67-.99,2.24-2.56,4.19-4.54,5.63v-.85c.88.79,1.68,1.65,2.41,2.58,3.23,4.05,4.86,9.15,4.56,14.33-.07,1.54-.35,3.07-.81,4.54-.1.55-.31,1.07-.62,1.54Z"/>
  </g>
</svg>