<?xml version="1.0" encoding="UTF-8"?>
<svg id="Layer_2" data-name="Layer 2" xmlns="http://www.w3.org/2000/svg" viewBox="0 0 1000 1000">
  <defs>
    <style>
      .cls-1 {
        fill: #000;
      }

      .cls-1, .cls-2, .cls-3, .cls-4, .cls-5, .cls-6, .cls-7, .cls-8, .cls-9, .cls-10, .cls-11 {
        stroke-width: 0px;
      }

      .cls-2 {
        fill: #e0e0e0;
      }

      .cls-3 {
        fill: #eb996e;
      }

      .cls-4 {
        fill: #f5f5f5;
      }

      .cls-5 {
        fill: #09f;
      }

      .cls-6 {
        fill: #ffbe9d;
      }

      .cls-7 {
        fill: #ebebeb;
      }

      .cls-8 {
        isolation: isolate;
        opacity: .5;
      }

      .cls-8, .cls-11 {
        fill: #fff;
      }

      .cls-9 {
        fill: #263238;
      }

      .cls-10 {
        fill: #fafafa;
      }

      .cls-12 {
        opacity: .3;
      }

      .cls-13 {
        opacity: .4;
      }
    </style>
  </defs>
  <g id="freepik--background-complete--inject-2">
    <path class="cls-7" d="M180.62,795.87c29.94-24.51,33.82-65.71,29.58-102.1-.71-6.08-.56-12.55-3.94-17.66-3.38-5.11-10.52-8.2-15.84-5.17-4.33,2.51-5.97,7.94-8.18,12.51-2.97,6.13-7.6,11.31-13.37,14.93-3.76,2.34-8.52,3.96-12.59,2.16-5.56-2.47-6.77-9.67-7.23-15.73-.87-11.29-1.72-22.6-2.55-33.9-.14-6.09-1.27-12.12-3.33-17.85-2.38-5.58-7.03-10.58-12.98-11.71-5.95-1.13-12.98,2.77-13.67,8.81-.03,2.53.12,5.06.43,7.57.25,2.57-1.04,5.04-3.29,6.3-2.38.91-4.98-.61-6.97-2.16-6.84-5.58-11.79-13.11-16.44-20.62-4.65-7.51-9.22-15.15-15.51-21.42-6.3-6.27-14.69-10.82-23.52-10.6-8.83.22-17.76,6.38-19.28,15.15s4.22,16.98,10.28,23.43c9.02,9.52,19.37,17.7,30.72,24.28,2.18.97,3.99,2.61,5.17,4.67,1.67,3.94-1.88,8.27-5.8,9.93-4.46,1.88-9.48,1.82-14.22,2.77-4.74.95-9.76,3.46-11.21,8.07-1.99,6.49,3.79,12.46,9.28,16.29,11.08,7.67,23.37,13.4,36.37,16.94,4.65,1.25,9.52,2.29,13.41,5.13,3.89,2.83,6.49,8.09,4.7,12.55-1.8,4.46-7.38,6.27-12.18,5.8-4.8-.48-9.24-2.66-13.89-3.96-8.65-2.44-19.47-.97-24.36,6.66-2.93,5.28-3.18,11.64-.67,17.14,2.52,5.39,6.09,10.21,10.52,14.19,14.73,14.79,33.11,25.42,53.27,30.81,20.12,5.08,38.4,5.41,57.29-3.2"/>
    <path class="cls-2" d="M183.24,822.89c-3.11-16.78-7.84-33.22-14.13-49.09-7.77-19.38-16.66-38.3-26.63-56.64l-7.81-14.45c-2.55-4.76-5.08-9.48-7.85-13.93-5.31-8.54-11.09-16.79-17.31-24.69-5.91-7.59-11.81-14.6-17.31-21.1s-10.82-12.44-15.95-17.68c-7.98-8.28-16.6-15.92-25.77-22.85-3.25-2.47-5.84-4.33-7.59-5.5l-2.01-1.38c-.23-.16-.47-.3-.71-.43,0,0,.22.19.65.52l1.97,1.45c1.73,1.25,4.33,3.12,7.49,5.63,9.07,7.02,17.6,14.72,25.51,23.02,5.04,5.24,10.32,11.21,15.86,17.72,5.54,6.51,11.38,13.52,17.31,21.12,6.22,7.89,12,16.12,17.31,24.64,2.75,4.44,5.26,9.13,7.81,13.89l7.75,14.47c9.89,18.32,18.75,37.18,26.53,56.49,6.29,15.81,11.08,32.18,14.28,48.9"/>
    <path class="cls-2" d="M126.63,688.66c.2-.87.32-1.75.35-2.64.17-1.69.35-4.18.52-7.23.37-6.1.58-14.54.8-23.8.22-9.26.56-17.74,1.06-23.8.22-3.05.45-5.5.63-7.2.13-.87.18-1.76.17-2.64-.27.84-.45,1.71-.54,2.6-.28,1.69-.61,4.15-.91,7.18-.67,6.1-1.13,14.54-1.34,23.8s-.37,17.59-.5,23.8c-.11,2.92-.17,5.37-.24,7.23-.09.9-.09,1.81,0,2.7Z"/>
    <path class="cls-2" d="M46.51,680.61h3.18c2.03,0,4.98,0,8.65.11,7.29.15,17.31.71,28.45,1.86,11.14,1.15,21.05,2.62,28.24,3.89,3.59.63,6.49,1.19,8.5,1.58l2.29.45c.54,0,.82.13.82,0-.24-.13-.51-.22-.78-.26l-2.27-.63c-1.97-.5-4.87-1.17-8.46-1.86-7.16-1.45-17.16-3.03-28.26-4.2-11.1-1.17-21.2-1.6-28.54-1.58-3.66,0-6.49,0-8.65.19l-2.34.15c-.29.05-.58.14-.84.28Z"/>
    <path class="cls-2" d="M168.11,772.41c.17-.33.31-.67.43-1.02.3-.76.65-1.73,1.1-2.92.95-2.55,2.16-6.3,3.76-10.82,3.05-9.24,6.88-22.13,10.95-36.44,4.07-14.3,7.77-27.2,10.67-36.48,1.45-4.54,2.62-8.27,3.48-10.99.39-1.21.69-2.16.93-2.99.13-.34.23-.7.28-1.06-.19.31-.35.65-.45,1-.28.78-.65,1.75-1.1,2.94-.95,2.55-2.16,6.27-3.74,10.82-3.07,9.24-6.9,22.13-10.95,36.44-4.05,14.3-7.7,27.24-10.69,36.48-1.43,4.54-2.62,8.27-3.46,10.97-.39,1.23-.69,2.16-.95,3.01-.12.34-.21.7-.26,1.06Z"/>
    <path class="cls-2" d="M60.49,747.68c.34.16.69.27,1.06.32l3.14.74,11.55,2.64c9.74,2.16,23.15,5.47,37.97,9.11,14.82,3.63,28.26,6.79,38.04,8.87,4.89,1.04,8.85,1.84,11.6,2.34l3.16.56c.37.08.75.14,1.13.15-.34-.16-.71-.27-1.08-.32l-3.14-.74-11.53-2.64c-9.74-2.16-23.15-5.47-37.95-9.11s-28.26-6.79-38.04-8.87c-4.89-1.04-8.85-1.84-11.6-2.34l-3.18-.58c-.37-.07-.75-.12-1.13-.13Z"/>
    <rect class="cls-11" x="320.82" y="198.81" width="163.36" height="110.11" transform="translate(-56.06 126.69) rotate(-16.74)"/>
    <path class="cls-2" d="M496.6,282.95s-.24-.67-.63-1.93-.97-3.16-1.73-5.58c-1.49-4.89-3.7-12.05-6.49-21.18-5.58-18.33-13.57-44.61-23.3-76.61l.56.3-156.39,47.23h0l.39-.71,31.68,105.46-.65-.35,112.68-33.64,32.26-9.54,8.65-2.53,2.16-.65.78-.19-.69.24-2.16.69-8.48,2.6-32.07,9.8-112.86,34.21-.5.15-.15-.5c-9.67-32.13-20.45-67.85-31.76-105.43l-.15-.54.52-.15h0l156.45-46.95.43-.13.13.43c9.58,32.17,17.44,58.59,22.93,77,2.68,9.13,4.8,16.27,6.23,21.18.71,2.38,1.23,4.22,1.62,5.52.39,1.3.52,1.82.52,1.82Z"/>
    <path class="cls-2" d="M464.88,177.58c-.06.16-.13.32-.22.48l-.74,1.34c-.71,1.23-1.69,2.94-2.9,5.11l-10.93,18.76-36.65,62.16-.26.41-.43-.17-4.78-1.84-70.47-27.5-21.31-8.44-5.76-2.36-1.49-.63c-.18-.06-.35-.15-.5-.26.19.02.37.07.54.15l1.51.52,5.86,2.16,21.42,8.11,70.58,27.18,4.8,1.86-.69.24c14.5-24.34,27.52-46.15,36.96-62.01l11.23-18.56c1.3-2.16,2.34-3.79,3.07-5.02l.84-1.28c.17-.28.28-.43.3-.41Z"/>
    <path class="cls-7" d="M920.07,598.85s-10.15-10.04-29.92,15.04c-10.37,12.69-19.89,26.06-28.5,40.01,0,0-4.93,5.11-8.18.48-3.25-4.63-6.6-16.57-13.83-15.97-7.23.61-11.38,8.05-12.35,19.93-.97,11.88-4.02,37.86-4.33,40.2s-2.16,5.39-4.95,2.6c-2.79-2.79-16.83-26.55-27.76-19.23-10.93,7.31-8.16,40.94-7.92,44.59.24,3.66-.76,5.04-2.57,5.56s-5.82-7.92-10.13-14.52-10.43-13.54-16.36-8.76-12.22,28.3,2.75,71.51l8.24,19.47,21.1,3.01c45.59,3.66,66.79-8.31,69.93-15.25,3.14-6.95-5.08-11.14-12.57-13.65-7.49-2.51-16.66-4.33-16.6-6.17.06-1.84,1.13-3.18,4.74-3.87,3.61-.69,36.78-6.49,41.11-18.85,4.33-12.35-22.18-20.1-25.57-22.05-3.4-1.95-.89-4.61,1.28-5.45,2.16-.84,26.57-10.34,37.84-14.24,11.27-3.89,17.48-9.56,16.21-16.96s-13.63-7.38-18.93-9.39c-5.3-2.01-1.58-8.03-1.58-8.03,11.4-11.8,22-24.34,31.74-37.54,19.32-25.44,6.73-32.87,6.73-32.87"/>
    <path class="cls-2" d="M902.24,621.18c-.1.19-.21.37-.35.54l-1.1,1.56c-1.04,1.38-2.49,3.35-4.33,5.86-3.79,5.08-9.3,12.4-16.18,21.4-13.74,18-32.95,42.71-54.29,69.89l-54.57,69.69-16.47,21.18-4.5,5.73-1.19,1.47c-.28.32-.41.5-.43.48.1-.19.21-.37.35-.54l1.1-1.54,4.33-5.89c3.76-5.08,9.3-12.4,16.16-21.4,13.74-18,32.97-42.71,54.33-69.89,21.36-27.18,40.55-51.8,54.55-69.69,6.9-8.89,12.53-16.1,16.47-21.16,1.9-2.44,3.42-4.33,4.48-5.76l1.21-1.47c.26-.32.41-.5.43-.48Z"/>
    <path class="cls-2" d="M843.67,655.3c.47,1.86.74,3.76.8,5.67.32,3.51.61,8.37.8,13.76.19,5.39.28,9.84.39,13.76.16,1.9.16,3.81,0,5.71-.47-1.85-.73-3.76-.78-5.67-.28-3.53-.52-8.39-.71-13.76-.19-5.37-.32-9.84-.48-13.76-.17-1.9-.18-3.81-.02-5.71Z"/>
    <path class="cls-2" d="M847.47,694.96c7.4-1.2,14.86-2.01,22.35-2.44,12.35-1.02,22.42-1.6,22.44-1.3-7.4,1.18-14.86,1.99-22.35,2.42-12.35,1.04-22.39,1.62-22.44,1.32Z"/>
    <path class="cls-2" d="M811.58,736.67c1.94.15,3.87.46,5.76.93,3.55.67,8.42,1.6,13.83,2.47s10.32,1.51,13.89,1.97c1.95.16,3.88.47,5.78.93-1.95.17-3.9.12-5.84-.13-3.61-.26-8.65-.78-14-1.67-5.34-.89-10.32-1.93-13.83-2.79-1.92-.37-3.79-.94-5.58-1.71Z"/>
    <path class="cls-2" d="M800.24,701.58c.9,1.57,1.62,3.23,2.16,4.95,1.15,3.14,2.68,7.46,4.33,12.27,1.64,4.8,3.03,9.17,4,12.38.61,1.69,1.06,3.44,1.34,5.21-.91-1.57-1.64-3.24-2.16-4.98-1.17-3.12-2.68-7.44-4.33-12.25-1.64-4.8-3.03-9.2-4-12.38-.64-1.68-1.09-3.43-1.34-5.21Z"/>
    <path class="cls-2" d="M763.87,734.38c1.04,2.06,1.92,4.19,2.64,6.38,1.49,4,3.48,9.54,5.63,15.69,2.14,6.14,4,11.73,5.32,15.77.81,2.16,1.44,4.39,1.88,6.66-1.06-2.09-1.94-4.26-2.64-6.49-1.49-3.98-3.48-9.52-5.63-15.66-2.14-6.14-4.02-11.73-5.32-15.79-.81-2.13-1.44-4.32-1.88-6.56Z"/>
    <path class="cls-2" d="M779.28,777.71c2.46.14,4.92.46,7.33.95,4.5.71,10.82,1.69,17.63,2.6s13.15,1.6,17.68,2.16c2.46.16,4.91.49,7.33.97-2.47.15-4.94.09-7.4-.17-4.57-.3-10.82-.87-17.76-1.8s-13.15-2.01-17.63-2.9c-2.44-.41-4.84-1.02-7.18-1.82Z"/>
    <rect class="cls-4" x="799.37" y="410.4" width="167.88" height="122.68" transform="translate(384.81 1340.23) rotate(-88.25)"/>
    <rect class="cls-11" x="776.8" y="432.71" width="167.88" height="122.68" transform="translate(340.63 1339.29) rotate(-88.25)"/>
    <path class="cls-2" d="M919.46,579.78c-.01-.27-.01-.55,0-.82v-2.36c0-2.16.11-5.19.22-9.17.22-8.03.52-19.69.91-34.47.84-29.53,2.03-71.4,3.44-120.97l.5.52-122.61-3.7h0l.58-.54c-1.97,62.75-3.76,120.71-5.24,167.79l-.45-.48,89.06,2.96,24.77.87,6.49.26,2.27.11h-2.16l-6.49-.15-24.67-.63-89.34-2.49h-.45v-.45c1.41-47.1,3.14-105.13,5.02-167.81v-.56h.58l122.59,3.81h.52v.52c-1.62,49.76-2.99,91.7-3.96,121.29-.5,14.71-.91,26.35-1.17,34.34-.15,3.94-.26,6.97-.35,9.07,0,1,0,1.77-.11,2.32s.04.76.04.76Z"/>
    <path class="cls-2" d="M876.79,447.09c0,.32-13.35.15-29.79-.35-16.44-.5-29.79-1.17-29.79-1.47s13.37-.15,29.82.35c16.44.5,29.77,1.17,29.77,1.47Z"/>
    <path class="cls-2" d="M908.47,462.67c0,.3-20.55,0-45.91-.84-25.36-.84-45.91-1.67-45.89-1.97s20.55,0,45.93.84c25.38.84,45.89,1.64,45.87,1.97Z"/>
    <path class="cls-2" d="M908.01,477.88c0,.3-20.58,0-45.93-.84-25.36-.84-45.89-1.67-45.89-1.97s20.58,0,45.93.84c25.36.84,45.89,1.64,45.89,1.97Z"/>
    <path class="cls-2" d="M907.54,493.09c0,.3-20.55,0-45.91-.84-25.36-.84-45.89-1.67-45.89-1.97s20.58,0,45.93.84c25.36.84,45.89,1.71,45.87,1.97Z"/>
    <path class="cls-2" d="M907.08,508.3c0,.3-20.58,0-45.91-.84-25.34-.84-45.91-1.67-45.91-1.97s20.58,0,45.93.84c25.36.84,45.89,1.64,45.89,1.97Z"/>
    <path class="cls-2" d="M906.63,523.51c0,.3-20.58,0-45.93-.84-25.36-.84-45.89-1.67-45.89-1.97s20.58,0,45.93.84c25.36.84,45.89,1.58,45.89,1.97Z"/>
    <path class="cls-2" d="M906.15,538.72c0,.3-20.58,0-45.91-.84-25.34-.84-45.91-1.67-45.89-1.97s20.55,0,45.91.84c25.36.84,45.91,1.64,45.89,1.97Z"/>
    <path class="cls-2" d="M863.23,552.63c0,.3-11.06.22-24.69-.19s-24.67-1.02-24.67-1.32,11.06-.22,24.69.19,24.67,1,24.67,1.32Z"/>
    <rect class="cls-11" x="545.47" y="262.07" width="103.73" height="129.73" transform="translate(72.63 760.96) rotate(-68.29)"/>
    <path class="cls-2" d="M676.76,302.75l-.58-.22-1.69-.65-6.49-2.6-24.73-9.84-87.11-34.62.26-.11-38.34,96.35h0l-.13-.3,120.52,48.03h-.24c11.6-29.04,21.23-53.1,27.93-69.91,3.38-8.39,6.01-14.99,7.81-19.47l2.16-5.13.71-1.77-.67,1.75c-.45,1.17-1.13,2.88-2.01,5.11-1.77,4.5-4.33,11.1-7.7,19.47-6.69,16.83-16.27,40.96-27.8,70.06v.17h-.17l-120.69-47.75h-.22v-.22h0c13.87-34.79,26.96-67.68,38.38-96.35v-.19h.17l87.32,34.88,24.6,9.87,6.49,2.6,1.67.67.54.17Z"/>
    <rect class="cls-7" x="551.84" y="266.69" width="90.66" height="120.62" transform="translate(72.46 760.86) rotate(-68.29)"/>
    <polygon class="cls-2" points="524.81 347.06 584.81 310.28 596.02 352.69 619.43 341.74 636.89 391.68 524.81 347.06"/>
    <path class="cls-2" d="M621.89,317.57c-1.94,4.87-7.46,7.25-12.34,5.31-4.87-1.94-7.25-7.46-5.31-12.34,1.94-4.87,7.46-7.25,12.34-5.31,0,0,0,0,.01,0,4.86,1.93,7.24,7.44,5.31,12.3,0,0,0,.02-.01.03Z"/>
    <path class="cls-2" d="M245.98,451.42c.81.34,1.7.48,2.57.41,1.05-.12,2.03-.6,2.77-1.36.86-1.19,1.62-2.44,2.27-3.74l14.04-24.49,4.67-8.09,2.49-4.33c.43-.69.81-1.41,1.13-2.16.23-.75.23-1.55,0-2.29-.19-.77-.63-1.46-1.23-1.97-.69-.49-1.42-.94-2.16-1.34l-4.82-2.68-10.04-5.63-44.7-25.08c-1.83-.98-4.1-.42-5.26,1.3l-3.35,5.76c-2.16,3.81-4.33,7.59-6.49,11.29l-12.55,21.44c-.5.84-1,1.69-1.47,2.53-.48.73-.73,1.59-.71,2.47.03.85.35,1.67.89,2.34.61.64,1.35,1.14,2.16,1.49l9.46,5.37,16.92,9.61,24.49,14,6.64,3.85,1.71,1.02c.39.24.58.37.56.39l-.61-.28-1.77-.93-6.73-3.68-24.69-13.67-16.92-9.58-9.48-5.3c-.92-.41-1.75-.99-2.44-1.71-.68-.84-1.06-1.87-1.1-2.94-.05-1.07.24-2.13.82-3.03.48-.84.97-1.69,1.47-2.53l12.4-21.4,6.49-11.29,3.4-5.82c1.48-2.2,4.39-2.92,6.73-1.67l44.66,25.16,10.04,5.67,4.78,2.73c.83.42,1.62.9,2.38,1.43.75.64,1.29,1.51,1.54,2.47.26.92.26,1.89,0,2.81-.34.82-.76,1.61-1.23,2.36l-2.53,4.33-4.72,8.07c-6.04,10.21-10.93,18.5-14.34,24.32-.71,1.31-1.52,2.56-2.42,3.74-.81.79-1.86,1.27-2.99,1.36-.68.05-1.36-.06-1.99-.32-.25-.09-.49-.21-.71-.37Z"/>
    <polygon class="cls-2" points="234.56 407.06 240.01 416.73 228.76 416.95 217.51 417.14 223.31 407.26 229.1 397.37 234.56 407.06"/>
  </g>
  <g id="freepik--Table--inject-2">
    <path class="cls-9" d="M968.31,819.54c0,.32-206.95.58-462.15.58s-462.22-.22-462.22-.58,206.91-.61,462.22-.61,462.15.32,462.15.61Z"/>
  </g>
  <g id="freepik--Character--inject-2">
    <path class="cls-5" d="M272.72,682.12l-65.32-65.62,32.84-60.32c32.84-42.06,102.38-39.36,102.38-39.36,34.31-2.33,68.77-.22,102.54,6.3,55.24,10.82,50.78,47.3,50.78,47.3l7.4,135.38,7.94,110.24-203.71,4.11-34.86-137.93"/>
    <path class="cls-5" d="M382.46,813.7l-182.46,2.16c-32.75.38-59.61-25.86-59.99-58.61-.1-8.98,1.83-17.86,5.66-25.99l78.02-144.68,71.08,48.03-48.49,100.54,147.69,2.64-11.51,75.9Z"/>
    <path class="cls-5" d="M489.5,548.35l146.41,226.06-85.42,5.58s-51.02-80.38-49.87-78.74c2.03,3.03-11.12-152.9-11.12-152.9Z"/>
    <path class="cls-9" d="M291.09,647.61c0-.4.07-.79.19-1.17.22-.87.45-1.95.78-3.29.67-2.83,1.67-6.95,2.68-12.05,1.02-5.11,2.16-11.25,2.88-18.09.88-7.41.88-14.9,0-22.31-1.17-7.35-3.74-14.4-7.55-20.79-3.07-5.26-6.69-10.17-10.82-14.65-2.78-3.06-5.74-5.95-8.87-8.65-1.19-.93-2.33-1.93-3.42-2.99.35.17.69.39,1,.63.61.45,1.58,1.08,2.7,2.01,3.25,2.57,6.32,5.37,9.17,8.37,4.26,4.44,8.01,9.36,11.16,14.65,3.95,6.49,6.59,13.68,7.79,21.18.86,7.5.8,15.08-.17,22.57-.73,6.09-1.77,12.14-3.12,18.13-1.13,5.13-2.16,9.22-3.05,12.03-.39,1.41-.74,2.49-.97,3.22-.09.41-.22.81-.39,1.19Z"/>
    <path class="cls-9" d="M285.21,655.4c-.31,1.13-.73,2.22-1.25,3.27-.87,2.16-2.16,5.06-3.83,8.65-3.31,7.33-8.01,17.42-13.41,28.45-5.41,11.03-10.52,20.92-14.3,28.13-1.9,3.55-3.46,6.49-4.57,8.37-.53,1.05-1.13,2.05-1.82,3.01.39-1.1.87-2.18,1.43-3.2,1.1-2.16,2.53-5.06,4.33-8.55l14-28.13c5.3-10.97,10.13-20.88,13.72-28.3,1.69-3.48,3.07-6.38,4.15-8.65.43-1.06.95-2.08,1.56-3.05Z"/>
    <path class="cls-9" d="M382.46,813.7v-1.49c.11-1.04.26-2.49.43-4.33.43-3.85,1.04-9.33,1.8-16.23,1.6-14,3.89-33.69,6.49-56.9l.52.56h-53.9l-94.14-.15-28.56-.17-7.77-.11h-2.73c.23-.03.46-.03.69,0h2.03l7.77-.11,28.56-.17,94.29-.15h54.48v.56c-2.86,23.19-5.26,42.88-6.99,56.86-.87,6.88-1.58,12.35-2.16,16.21-.23,1.82-.43,3.26-.58,4.33l-.17,1.1c-.02.06-.04.19-.06.19Z"/>
    <path class="cls-9" d="M247.56,736.76c-1.31-1.44-2.52-2.97-3.63-4.57-5.83-7.32-13.05-13.42-21.25-17.94-1.75-.85-3.45-1.79-5.11-2.81,1.92.45,3.76,1.18,5.47,2.16,8.54,4.22,15.92,10.45,21.51,18.15,1.23,1.52,2.24,3.2,3.01,5Z"/>
    <path class="cls-9" d="M506.38,751.08c-.16-.62-.26-1.25-.3-1.88-.15-1.32-.35-3.12-.61-5.39-.5-4.67-1.17-11.45-1.88-19.82-1.49-16.77-3.2-39.96-4.72-65.58-1.51-25.62-2.57-48.86-3.18-65.67-.3-8.42-.52-15.15-.61-19.93,0-2.27,0-4.07-.11-5.41-.03-.63-.03-1.26,0-1.88.12.62.18,1.25.19,1.88,0,1.32.17,3.14.3,5.41.24,4.8.56,11.58.97,19.88.8,16.81,1.99,40.01,3.51,65.65,1.51,25.64,3.12,48.79,4.33,65.58.65,8.29,1.17,15.15,1.54,19.86.17,2.16.3,4.07.41,5.39.11.63.16,1.27.15,1.9Z"/>
    <path class="cls-2" d="M343.5,628.08c0-.99.09-1.98.24-2.96.26-2.06.58-4.8,1-8.18.95-7.14,2.16-16.92,3.76-28.26l.82.52-14,9.8-14.24,9.91-1.02.71.17-1.23c1.73-11.23,3.2-20.92,4.33-28.13.56-3.31,1-6.04,1.34-8.07.12-.98.32-1.94.61-2.88,0,.99-.09,1.97-.26,2.94-.26,2.03-.58,4.76-1.02,8.11-.97,7.1-2.34,16.81-3.89,28.13l-.82-.52,14.22-9.95,14.02-9.76,1.02-.71-.17,1.23c-1.67,11.29-3.12,21.07-4.15,28.13-.54,3.35-.97,6.1-1.3,8.14-.13,1.03-.34,2.04-.65,3.03Z"/>
    <path class="cls-2" d="M424.94,636.84c-.78-.62-1.5-1.31-2.16-2.06-1.41-1.51-3.31-3.53-5.65-5.99l-19.32-20.94.93-.32c-.45,5.3-.93,11.06-1.43,17.03-.5,5.97-1.02,11.9-1.47,17.31l-.11,1.25-.82-.93-18.8-21.2-5.37-6.19c-.68-.71-1.29-1.48-1.82-2.32.78.66,1.5,1.39,2.16,2.16l5.58,5.97,19.08,20.92-.93.32c.45-5.39.93-11.23,1.45-17.31.52-6.08,1-11.73,1.45-17.03l.11-1.23.82.91,19.04,21.23,5.43,6.21c.66.69,1.27,1.42,1.82,2.21Z"/>
    <path class="cls-2" d="M465.92,633.94c-.4.91-.9,1.78-1.47,2.6l-4.33,6.97-15.45,23.97-.52-.82,16.79-2.9,17.09-2.88,1.23-.22-.58.93-15.79,23.5-4.76,6.79c-.53.83-1.12,1.62-1.77,2.36.43-.89.92-1.74,1.47-2.55l4.33-6.92,15.47-23.8.54.82-17.09,2.96-16.85,2.86-1.23.19.69-1.02,15.77-23.8,4.63-6.82c.57-.78,1.18-1.52,1.84-2.23Z"/>
    <path class="cls-2" d="M411.41,675.87c-.41.9-.9,1.77-1.47,2.57l-4.33,6.99-15.43,23.95-.54-.82,16.83-2.9,17.11-2.9,1.23-.19-.71,1.02-15.79,23.52-4.65,6.75c-.52.83-1.11,1.62-1.77,2.34.43-.88.92-1.74,1.47-2.55,1.13-1.73,2.6-4.05,4.33-6.9l15.47-23.8.54.82-17.09,2.96-16.85,2.83-1.23.22.69-1.04,15.77-23.8c1.9-2.81,3.46-5.11,4.65-6.82.54-.79,1.13-1.54,1.77-2.25Z"/>
    <path class="cls-2" d="M529.18,633.46c-.43.89-.92,1.75-1.47,2.57l-4.33,6.99-15.43,23.95-.54-.82,16.83-2.9,17.11-2.9,1.23-.19-.69,1.02-15.82,23.52c-1.9,2.77-3.46,5.04-4.65,6.73-.51.84-1.11,1.63-1.77,2.36.44-.89.94-1.74,1.49-2.55l4.33-6.9,15.47-23.8.54.82-17.09,2.94-16.85,2.86-1.21.22.67-1.04,15.77-23.8,4.65-6.82c.51-.81,1.1-1.56,1.75-2.25Z"/>
    <path class="cls-2" d="M597.12,742.38c-.77-.59-1.5-1.24-2.16-1.95l-5.93-5.71-20.36-19.95.91-.37c-.17,5.32-.35,11.08-.54,17.07-.19,5.99-.43,11.94-.63,17.31v1.25l-.89-.89-19.82-20.23-5.67-5.91c-.7-.67-1.36-1.39-1.95-2.16.77.59,1.49,1.24,2.16,1.95l5.89,5.69,20.12,19.95-.93.37c.17-5.41.37-11.25.56-17.31.19-6.06.43-11.75.63-17.07v-1.23l.87.87,20.06,20.25,5.73,5.93c.71.66,1.36,1.37,1.95,2.14Z"/>
    <path class="cls-2" d="M253.42,598.72c-.42.89-.92,1.76-1.47,2.57l-4.33,6.99-15.43,23.97-.54-.82,16.83-2.92,17.11-2.88,1.23-.22-.69,1.04-15.82,23.5-4.63,6.75c-.53.83-1.12,1.61-1.77,2.34.41-.89.91-1.73,1.47-2.53l4.33-6.92c3.92-5.99,9.28-14.22,15.47-23.8l.54.82-17.09,2.96-16.85,2.86-1.21.19.67-1.02c6.34-9.52,11.79-17.74,15.77-23.8l4.65-6.82c.52-.8,1.11-1.56,1.75-2.27Z"/>
    <path class="cls-2" d="M167.87,760.51c.73.66,1.4,1.38,1.99,2.16l5.28,6.34,17.94,22.13-.95.26c.78-5.26,1.6-10.97,2.49-16.92.89-5.95,1.75-11.81,2.55-17.16l.17-1.23.78,1,17.44,22.33,4.95,6.49c.63.75,1.19,1.55,1.69,2.4-.71-.67-1.37-1.39-1.97-2.16l-5.19-6.32-17.63-22.09.95-.24c-.78,5.34-1.62,11.14-2.51,17.16-.89,6.01-1.73,11.64-2.53,16.9l-.17,1.23-.78-.97-17.66-22.37-5.04-6.49c-.65-.77-1.25-1.59-1.8-2.44Z"/>
    <path class="cls-2" d="M363.25,655.75c-.97.21-1.95.34-2.94.39l-8.22.71-28.43,2.16.35-.91,12.46,11.68,12.61,11.9.91.87h-1.25l-28.28,1.56-8.18.35c-.98.08-1.96.08-2.94,0,.96-.19,1.94-.32,2.92-.37l8.16-.65,28.26-1.95-.32.91-12.66-11.86-12.42-11.73-.91-.87h1.23l28.45-1.71,8.22-.41c.99-.1,1.99-.13,2.99-.09Z"/>
    <path class="cls-2" d="M315.3,764.8c.72.68,1.4,1.4,2.03,2.16l5.39,6.23,18.41,21.77-.95.26c.67-5.28,1.41-10.99,2.16-16.94.76-5.95,1.54-11.86,2.16-17.2l.17-1.25.78.97,17.91,21.96,5.08,6.49c.63.75,1.21,1.55,1.73,2.38-.73-.66-1.4-1.39-2.01-2.16l-5.32-6.21-18.17-21.64.93-.28c-.67,5.37-1.41,11.16-2.16,17.2s-1.51,11.68-2.16,16.96l-.17,1.23-.78-.95-18.11-22.03-5.15-6.49c-.67-.76-1.27-1.59-1.77-2.47Z"/>
    <path class="cls-2" d="M229.6,684.83c-.97.21-1.95.34-2.94.39l-8.2.69-28.43,2.16.32-.93,12.48,11.71,12.61,11.9.91.87h-1.25l-28.28,1.56-8.18.35c-.96.08-1.92.08-2.88,0,.96-.21,1.94-.33,2.92-.37l8.16-.65,28.26-1.97-.32.93-12.66-11.86-12.44-11.73-.89-.87h1.23l28.45-1.73,8.22-.39c.96-.09,1.93-.12,2.9-.06Z"/>
    <path class="cls-2" d="M303.23,762.35c-.97.21-1.95.33-2.94.37l-8.22.71-28.43,2.16.35-.93,12.46,11.71,12.61,11.9.91.87h-1.23l-28.3,1.54-8.18.37c-.98.08-1.96.08-2.94,0,.96-.21,1.94-.33,2.92-.37l8.16-.65,28.26-1.97-.32.93-12.66-11.86-12.42-11.68-.91-.84h1.23l28.45-1.73,8.24-.39c.98-.13,1.97-.18,2.96-.13Z"/>
    <path class="cls-2" d="M469.42,565.11c-.97.21-1.95.34-2.94.39l-8.22.69-28.41,2.16.32-.91,12.46,11.68,12.61,11.9.91.87h-1.23l-28.3,1.56-8.18.35c-.98.08-1.96.08-2.94,0,.96-.21,1.94-.33,2.92-.37l8.16-.65,28.28-1.95-.35.91-12.61-11.84-12.42-11.73-.91-.87h1.23l28.45-1.73,8.24-.39c.97-.1,1.95-.13,2.92-.09Z"/>
    <path class="cls-6" d="M388.59,762.35s36.39-10.49,48.44-13.57c4.7-1.19,24.8,9.41,38.69,18.24,0,0,19.13,11.34,17.59,14.82-1.71,3.85-8.65,3.07-20.01-2.16,0,0,3.94,11.4-3.79,11.14,0,0,3.83,12.33-3.4,13.61s-8.91-14.45-15.28-15.3c-6.36-.84-19.47-1.71-19.47-1.71,0,0-10.97,18.17-19.47,19.47-8.5,1.3-28.13-1.02-28.13-1.02l4.82-43.53Z"/>
    <path class="cls-3" d="M450.71,764.86c3.56,1.59,6.97,3.51,10.17,5.73,3.4,1.92,6.6,4.17,9.56,6.71-6.97-3.49-13.58-7.66-19.73-12.44Z"/>
    <path class="cls-3" d="M448.56,771.94c4.16,1.31,8.2,2.97,12.07,4.95,4.01,1.63,7.87,3.59,11.55,5.86-4.16-1.29-8.2-2.94-12.07-4.93-4.02-1.62-7.88-3.59-11.55-5.89Z"/>
    <path class="cls-3" d="M452.46,788.84c5.5-.02,10.97.71,16.27,2.16-5.5.02-10.97-.71-16.27-2.16Z"/>
    <path class="cls-6" d="M382.98,550.55h0c23.03-.05,41.66-18.75,41.61-41.78,0-.17,0-.33,0-.5l-.54-11.77s33.41-3.35,35.61-36.46c2.21-33.1.63-109.5.63-109.5h0c-37.43-18.57-81.97-15.45-116.45,8.16l-5.11,3.53,2.49,147.13c.27,22.86,18.9,41.23,41.76,41.2Z"/>
    <path class="cls-9" d="M450.55,415.63c-2.72-.31-4.67-2.77-4.36-5.49.26-2.29,2.07-4.09,4.36-4.36.26-.07.54-.07.8,0,2.72.31,4.67,2.77,4.36,5.49-.26,2.29-2.07,4.09-4.36,4.36-.27.04-.54.04-.8,0Z"/>
    <path class="cls-9" d="M458.04,399.94c-.54.56-3.66-2.16-8.22-2.4s-8.01,1.9-8.46,1.3c-.45-.61.32-1.28,1.84-2.29,4.15-2.67,9.56-2.31,13.33.89,1.36,1.21,1.8,2.38,1.51,2.51Z"/>
    <path class="cls-9" d="M404.27,406.06c2.19,1.52,2.74,4.52,1.22,6.71-1.52,2.19-4.52,2.74-6.71,1.22-2.19-1.52-2.74-4.52-1.22-6.71,0,0,0,0,0,0,1.52-2.18,4.52-2.73,6.71-1.21Z"/>
    <path class="cls-9" d="M408.28,401.26c-.56.56-3.68-2.16-8.22-2.4-4.54-.24-8.01,1.9-8.48,1.3-.24-.28.35-1.28,1.84-2.29,4.15-2.67,9.56-2.31,13.33.89,1.36,1.21,1.8,2.27,1.54,2.51Z"/>
    <path class="cls-9" d="M424.59,439.9c0-.35,2.83-.78,7.46-1.17,1.19,0,2.16-.28,2.27-.91.09-1.19-.14-2.39-.67-3.46-1.02-3.09-2.03-6.21-3.12-9.48-4.33-13.48-7.16-24.58-6.49-24.8s4.7,10.54,8.96,24.02c1,3.29,1.97,6.49,2.9,9.52.69,1.58.82,3.34.39,5-.39.91-1.2,1.58-2.16,1.8-.67.15-1.37.2-2.06.15-4.67-.09-7.49-.3-7.49-.67Z"/>
    <path class="cls-11" d="M409.44,444.14c6.95,3.57,14.37,6.17,22.03,7.72-3.46,4.75-9.74,6.49-15.15,4.2-9.76-4.18-6.88-11.92-6.88-11.92Z"/>
    <path class="cls-3" d="M424.18,496.03c-15.32-.55-30.12-5.64-42.54-14.63,0,0,8.91,24.38,42.13,23.22l.41-8.59Z"/>
    <path class="cls-9" d="M436.27,388.99c-.13-.26.84-1.06,2.68-1.8,4.88-1.89,10.3-1.83,15.15.15,1.82.78,2.79,1.58,2.66,1.84-.28.61-4.65-1.1-10.26-1.1s-9.97,1.58-10.23.91Z"/>
    <path class="cls-9" d="M385.64,384.27c-.13-.26.84-1.04,2.68-1.8,2.42-.94,5-1.4,7.59-1.36,2.61,0,5.19.51,7.59,1.51,1.82.78,2.77,1.58,2.66,1.86s-4.65-1.1-10.28-1.13c-5.63-.02-9.95,1.51-10.26.91Z"/>
    <path class="cls-6" d="M560.62,789.79c9.93,18.43,29.74,29.33,50.63,27.85h0c24.88-1.74,45.22-20.53,48.92-45.2l12.55-143.64-50.26-12.42-20.53,112.51s-10.73,47.15-41.3,60.91Z"/>
    <path class="cls-6" d="M622,626.78l1.67-25.21s7.12-56.56,7.12-62.1c0-6.36,3.05-7.92,5.41-7.75,3.66.24,6.25,4.76,6.49,10.23,0,1.88-.17,31.78-.17,31.78,1.73-2.83,3.66-5.52,5.78-8.07,4.33-5.6,14.8-8.81,25.47-8.46,10.67.35,13.59,1.38,13.65,5.52-.08,1.6-.87,3.08-2.16,4.02-1.97,1.64-4.47,2.5-7.03,2.42-17.07-.3-21.64,8.81-21.64,8.81l-.22,3.31s10.36-7.42,18.63-4.33c1.22.45,2.34,1.14,3.29,2.03,7.37.03,13.33,6.03,13.3,13.4,0,2.28-.6,4.52-1.72,6.5-.91,2.13-3.05,3.47-5.37,3.35-1.14-.34-2.18-.98-3.01-1.84-.48-.41-1-.79-1.54-1.13l-1.9,9.15s-5.39,20.34-6.73,29.47"/>
    <path class="cls-6" d="M626.91,624.81c3.12.87,6.34-1.43,8.03-4.2,1.69-2.77,2.4-6.04,3.87-8.94,4.46-8.65,15.15-12.77,19.23-21.64.56-1.23.87-2.92-.22-3.74-1.08-.82-2.42-.15-3.53.45l-28.13,15.58"/>
    <path class="cls-3" d="M626.16,602.29c.88-.78,1.84-1.45,2.88-1.99,1.9-1.19,4.7-2.83,8.16-4.85l12.22-6.99,3.53-1.99c1.31-1.04,2.99-1.51,4.65-1.32,1.05.34,1.78,1.3,1.84,2.4.06.89-.1,1.78-.45,2.6-.65,1.44-1.46,2.81-2.42,4.07-3.89,5.06-8.94,8.24-12.57,11.94-1.77,1.67-3.27,3.61-4.46,5.73-1.06,1.99-1.73,4.07-2.55,5.95-1.02,3.18-3.4,5.75-6.49,7.01-2.32.69-3.61,0-3.53-.13,1.12.03,2.24-.15,3.29-.54,2.74-1.4,4.76-3.88,5.58-6.84.69-2.1,1.49-4.15,2.4-6.17,1.19-2.3,2.75-4.4,4.61-6.21,3.72-3.89,8.65-7.16,12.29-11.86.86-1.13,1.58-2.36,2.16-3.66.54-1.23.45-2.47-.24-2.6s-2.06.45-3.25,1.13l-3.59,1.95-12.4,6.75c-3.55,1.88-6.49,3.35-8.44,4.33-1.01.58-2.09,1.01-3.22,1.28Z"/>
    <path class="cls-3" d="M655.97,581.54c.19-2.05.87-4.02,1.97-5.76,1.28-1.78,3.1-3.1,5.19-3.76,2.62-.86,5.36-1.3,8.11-1.3,2.83.03,5.66-.22,8.44-.74,2.33-.48,4.5-1.56,6.27-3.14,1.2-1.11,1.82-2.7,1.69-4.33-.03-.59-.23-1.16-.56-1.64-.11,0,0,.63.11,1.67-.02,1.47-.68,2.85-1.82,3.79-1.73,1.36-3.76,2.28-5.93,2.68-2.72.45-5.48.65-8.24.61-2.86-.03-5.7.41-8.42,1.32-2.27.79-4.21,2.31-5.52,4.33-.85,1.36-1.34,2.9-1.43,4.5-.12.59-.08,1.21.13,1.77Z"/>
    <path class="cls-3" d="M642.53,539.84c-.18,1.98-.18,3.97,0,5.95,0,4.07,0,8.94.15,14.3s0,10.23,0,14.3c-.13,1.98-.09,3.97.13,5.95.47-1.94.71-3.93.71-5.93.26-3.66.43-8.65.41-14.32-.02-5.67-.24-10.69-.5-14.34-.09-2-.39-3.98-.91-5.91Z"/>
    <path class="cls-3" d="M662.72,588.18c.6-.15,1.19-.37,1.73-.67,1.43-.73,3.1-.81,4.59-.22.92.5,1.51,1.44,1.56,2.49.07,1.29-.03,2.58-.28,3.85-.36,1.59-.1,3.26.71,4.67,1.05,1.47,2.74,2.36,4.54,2.38,1.77-.01,3.46-.75,4.67-2.03,1.13-1.13,1.88-2.58,2.16-4.15.34-2.54.3-5.13-.11-7.66-.22-1.71-.74-3.38-1.54-4.91-.61-1.08-1.17-1.49-1.21-1.45s.35.58.8,1.64c.59,1.56.97,3.19,1.1,4.85.28,2.44.25,4.91-.11,7.33-.57,2.83-2.93,4.94-5.8,5.19-1.43,0-2.77-.69-3.61-1.84-.65-1.19-.86-2.57-.58-3.89.24-1.36.3-2.75.17-4.13-.13-1.34-.95-2.51-2.16-3.09-1.71-.65-3.62-.44-5.15.56-1.02.61-1.62.93-1.49,1.08Z"/>
    <path class="cls-3" d="M679.75,597.74c-.15.56-.09,1.17.17,1.69.62,1.5,1.89,2.64,3.46,3.07,2.37.51,4.83-.26,6.49-2.03,1.95-2.14,3-4.96,2.92-7.85,0-2.86-.89-5.65-2.55-7.98-1.36-1.9-3.2-3.4-5.34-4.33-1.4-.63-2.92-.99-4.46-1.06-1.08,0-1.67,0-1.67.17,2,.26,3.94.81,5.78,1.64,1.92.95,3.57,2.38,4.8,4.13,1.44,2.18,2.19,4.74,2.16,7.36.07,2.59-.82,5.12-2.51,7.1-1.39,1.58-3.51,2.32-5.58,1.97-1.38-.31-2.55-1.2-3.22-2.44-.3-.82-.3-1.43-.45-1.43Z"/>
    <path class="cls-3" d="M659.19,617.73c-.93-.29-1.93-.29-2.86,0-2.44.53-4.63,1.86-6.23,3.76l1,.3c-.13-1.34-.35-2.67-.65-3.98-.86-4.65-3-8.97-6.17-12.48,2.12,4.06,3.8,8.33,5.02,12.74.3,1.34.52,2.64.67,3.85l.17,1.34.84-1.06c1.43-1.77,3.35-3.08,5.52-3.79,1.62-.5,2.68-.54,2.68-.69Z"/>
    <path class="cls-3" d="M659.74,566.87c-.28.13.87,2.16,3.51,3.4,2.64,1.23,4.98.52,4.87.22s-2.16-.28-4.33-1.3c-2.16-1.02-3.76-2.53-4.05-2.32Z"/>
    <path class="cls-5" d="M613.35,643.09l63.16,4.52s-9.71,111.75-11.6,129.08c-1.88,17.33-12.98,43.47-51.56,43.47s-45.76-13.13-62.92-40.18c20.23-14.02,52.36-55.89,52.36-55.89l10.56-81.01Z"/>
    <path class="cls-2" d="M643.12,658.13c-.32.94-.72,1.86-1.17,2.75l-3.53,7.44-12.46,25.73-.63-.76,16.38-4.87,16.64-4.89,1.21-.35-.58,1.1-12.98,25.21-3.83,7.25c-.42.89-.92,1.73-1.49,2.53.33-.93.72-1.83,1.17-2.7.91-1.86,2.16-4.33,3.55-7.38l12.57-25.38.63.76-16.62,4.93-16.4,4.8-1.19.35.56-1.1,12.92-25.47c1.58-3.01,2.86-5.47,3.81-7.31.41-.92.89-1.8,1.45-2.64Z"/>
    <path class="cls-2" d="M637.15,765.62c-.97.21-1.95.34-2.94.39l-8.22.71-28.43,2.16.35-.93,12.46,11.68,12.61,11.9.91.87h-1.25l-28.28,1.56-8.18.35c-.98.08-1.96.08-2.94,0,.96-.19,1.94-.31,2.92-.35l8.16-.67,28.26-1.95-.32.93-12.66-11.88-12.42-11.73-.91-.84h1.23l28.45-1.71,8.24-.41c.98-.1,1.98-.13,2.96-.09Z"/>
    <path class="cls-9" d="M466.84,298.08c-14.1-2.63-27.25,11.06-41.67,9.88-8.78-.69-16.04-6.76-24.15-10.09-6.34-2.56-13.2-3.64-20.04-3.15-6.84.49-13.47,2.53-19.37,5.96-11,6.93-17.63,14.14-17.95,27.1-11.28-4.85-27.53,10.22-32.12,23.57-4.58,13.34-1.59,26.27,3.53,39.51,8.55,22.79,21.56,43.71,38.29,61.59,1.48,1.59,3.74,3.26,5.61,2.15.57-.49,1.02-1.11,1.3-1.8.28-.69.39-1.44.32-2.19.63-12.65-2.43-25.13-4.94-37.57-2.5-12.44-4.51-25.27-1.83-37.67,2.68-12.41,10.93-24.26,23.23-28.11,9.3-2.34,19.14-1.37,27.78,2.74,8.78,3.64,16.71,8.94,25.14,13.24,8.25,4.77,17.68,7.23,27.25,7.1,9.48-.62,19.11-6.13,22.17-14.97,3.07-8.84-2.78-20.31-12.27-21.21,4.23-.87,8.02-3.16,10.74-6.47,2.71-3.31,4.18-7.44,4.14-11.69-.03-4.25-1.56-8.36-4.32-11.62-2.76-3.27-6.59-5.49-10.83-6.3Z"/>
    <path class="cls-9" d="M453.02,330.66c-4.52-6.35-10.58-11.5-17.63-14.97-14.91-8.22-32.09-11.59-49.07-9.64-17.03,2.06-32.58,10.55-43.36,23.67-8.21,10.75-13.02,23.63-13.85,37.05-1.18,14.65.36,29.39,4.55,43.5,1.87,5.55,5.46,7.14,10.15,10.74,2.93,2.25,7.58,3.47,10.15.69,1.34-1.72,2.06-3.83,2.04-6,1.94-19.41,3.53-40.2-6.06-57.22,3.59-6.88,8.59-12.95,14.7-17.81,3.05-2.43,6.57-4.23,10.34-5.31,3.77-1.08,7.72-1.41,11.62-.97,11.53,1.73,19.85,11.26,29.72,17.33,7.13,4.26,15.18,6.8,23.5,7.4,8.32.6,16.66-.75,24.34-3.93l-11.14-24.54Z"/>
    <path class="cls-2" d="M311.94,382.55c0-.28,2.68-.35,6.8-1.21,10.82-2.32,20.39-8.49,26.86-17.33,2.43-3.47,3.53-5.75,3.81-5.65-.54,2.26-1.52,4.39-2.89,6.27-3.06,4.72-7.09,8.74-11.85,11.82-4.75,3.08-10.11,5.13-15.72,6.03-2.31.48-4.69.5-7.01.07Z"/>
    <path class="cls-2" d="M314.83,389.44c0-.28,2.64-.35,6.77-1.21,10.83-2.29,20.41-8.47,26.86-17.33,2.47-3.47,3.53-5.75,3.81-5.65-.52,2.26-1.5,4.4-2.89,6.27-3.06,4.72-7.09,8.74-11.84,11.82-4.75,3.08-10.11,5.13-15.72,6.03-2.3.45-4.67.48-6.98.07Z"/>
    <path class="cls-6" d="M340.94,396.84c-.54-.28-22.39-7.98-22.89,14.71s22.37,18.52,22.42,17.87.48-32.58.48-32.58Z"/>
    <path class="cls-3" d="M333.72,420.67s-.41.28-1.08.56c-.95.39-2.01.39-2.96,0-2.38-.93-4.33-4.78-4.33-8.87,0-1.95.42-3.88,1.23-5.65.47-1.43,1.61-2.53,3.05-2.96.94-.17,1.88.3,2.32,1.15.28.63.13,1.08.24,1.13s.5-.37.35-1.3c-.12-.57-.42-1.08-.87-1.45-.61-.48-1.39-.71-2.16-.63-1.9.33-3.5,1.62-4.22,3.42-1,1.95-1.52,4.11-1.51,6.3,0,4.57,2.29,8.91,5.54,9.93,1.23.38,2.56.18,3.63-.52.78-.54.78-1.06.78-1.1Z"/>
  </g>
  <g id="freepik--Shield--inject-2">
    <path class="cls-5" d="M749.59,366.41l-64.41-23.13-63.7,22.83c-8.14,3.83-15.28,6.14-15.28,13.72v37.78c-.15,26.53,7.09,52.58,20.92,75.23,13.82,22.85,34.29,40.94,58.68,51.82,25.96-8.46,45.44-31.05,57.44-50.35,13.87-22.63,21.15-48.69,21.03-75.23v-33.97c0-10.82-5.76-16.1-14.69-18.69Z"/>
    <g class="cls-12">
      <path class="cls-1" d="M685.81,522.66c-19.33-8.72-35.52-23.14-46.41-41.33-10.96-17.9-16.72-38.49-16.64-59.48v-26.4c0-6.01,3.63-11.64,10.82-14.99l51.62-19.3v-17.81l-63.72,22.74c-6.69,2.92-15.28,6.14-15.28,13.72v37.78c-.15,26.53,7.09,52.58,20.92,75.23,13.82,22.85,34.29,40.94,58.68,51.82v-21.98Z"/>
    </g>
    <g class="cls-13">
      <path class="cls-1" d="M685.81,544.58c4.37-1.43,8.61-3.24,12.66-5.41,9.96-5.64,19.02-12.74,26.87-21.07,7.1-7.65,13.34-16.04,18.63-25.03,14.03-22.8,21.09-49.21,20.32-75.97v-31.18c0-15.53-8.01-16.68-14.71-19.6l-64.41-23.13v17.81l52.23,19.62c7.18,3.35,10.82,8.98,10.82,14.97v26.5c.09,20.98-5.68,41.57-16.64,59.46-10.66,18.11-26.66,32.47-45.8,41.11l.04,21.92Z"/>
    </g>
    <path class="cls-8" d="M702.27,420.17v-5.11c0-9.24-7.51-16.72-16.74-16.71-9.22,0-16.7,7.48-16.71,16.71v5.19c-4.57.69-7.96,4.61-7.96,9.24v30.07c0,5.16,4.18,9.35,9.35,9.35h31.33c5.16,0,9.35-4.18,9.35-9.35h0v-30.07c0-4.88-3.75-8.94-8.61-9.33ZM690.09,452.06h-8.18l1.28-5.91c-2.29-1.49-2.94-4.56-1.45-6.86,1.49-2.29,4.56-2.94,6.86-1.45,2.29,1.49,2.94,4.56,1.45,6.86-.38.58-.87,1.07-1.45,1.45.56,2.21,1.49,5.91,1.49,5.91ZM698.75,420.13h-26.31v-5.06c.29-7.25,6.41-12.88,13.66-12.59,6.83.28,12.31,5.75,12.59,12.59l.06,5.06Z"/>
    <path class="cls-11" d="M633.21,419.8c-.56-1.69-.89-3.45-.97-5.24-.48-4.26-.66-8.55-.52-12.83,0-2.51.24-4.89.45-7.05.11-1.97.6-3.91,1.45-5.69.61-1.22,1.6-2.22,2.81-2.83.89-.41,1.43-.39,1.43-.32-1.55.71-2.8,1.96-3.53,3.51-.69,1.73-1.07,3.57-1.13,5.43-.17,2.16-.3,4.52-.37,7.01-.15,4.95,0,9.46.19,12.72.2,1.76.25,3.53.17,5.3Z"/>
    <path class="cls-11" d="M634.14,436.23c-.3,0-.58-1.54-.63-3.46-.04-1.93.19-3.48.5-3.48s.58,1.54.63,3.46c.04,1.93-.17,3.48-.5,3.48Z"/>
  </g>
  <g id="freepik--Device--inject-2">
    <polygon class="cls-9" points="570.25 633.96 498.44 811.55 368.94 811.55 368.94 819.58 754.65 819.58 833.56 633.96 570.25 633.96"/>
    <path class="cls-10" d="M680.03,738.81c-2.6,8.94-10.17,14.58-16.92,12.64s-10.1-10.82-7.51-19.75,10.19-14.58,16.94-12.64,10.1,10.82,7.49,19.75Z"/>
  </g>
</svg>