<?xml version="1.0" encoding="UTF-8"?>
<svg id="Layer_2" data-name="Layer 2" xmlns="http://www.w3.org/2000/svg" viewBox="0 0 1000 1000">
  <defs>
    <style>
      .cls-1 {
        fill: #ff9a6c;
      }

      .cls-1, .cls-2, .cls-3, .cls-4, .cls-5, .cls-6, .cls-7, .cls-8, .cls-9, .cls-10, .cls-11, .cls-12 {
        stroke-width: 0px;
      }

      .cls-2, .cls-11 {
        fill: #000;
      }

      .cls-3 {
        fill: #e0e0e0;
      }

      .cls-13 {
        opacity: .2;
      }

      .cls-4 {
        fill: #455a64;
      }

      .cls-5 {
        fill: #f5f5f5;
      }

      .cls-6 {
        fill: #09f;
      }

      .cls-7 {
        fill: #ebebeb;
      }

      .cls-8 {
        fill: #263238;
      }

      .cls-9 {
        fill: #ffbf9d;
      }

      .cls-10 {
        fill: #fafafa;
      }

      .cls-14, .cls-11 {
        opacity: .3;
      }

      .cls-11 {
        isolation: isolate;
      }

      .cls-12 {
        fill: #fff;
      }
    </style>
  </defs>
  <g id="freepik--background-complete--inject-2">
    <path class="cls-3" d="M741.57,28.61l-59.86,30.02c-4.48,1.9-7.39,6.3-7.39,11.17v27.99c-.05,25.45,7.37,50.35,21.34,71.62,10.78,16.37,25.09,37.43,48.89,49.44h10.72c26.5-8.19,46.27-29.61,58.34-48.03,13.97-21.27,21.39-46.17,21.34-71.62v-29.41c0-4.86-2.9-9.26-7.37-11.17l-68.18-29.06c-3.05-1.29-14.82-2.25-17.84-.96Z"/>
    <path class="cls-5" d="M739.16,29.57l-68.18,29.06c-4.48,1.9-7.39,6.3-7.39,11.17v27.99c0,53.04,31.97,100.85,80.97,121.12,26.48-8.19,46.25-29.61,58.34-48.03,13.98-21.29,21.4-46.22,21.34-71.68v-29.41c0-4.87-2.91-9.27-7.39-11.17l-68.18-29.06c-3.04-1.28-6.47-1.28-9.52,0Z"/>
    <path class="cls-3" d="M824.02,91.62c.09.42.13.86.12,1.29,0,.96.1,2.19.16,3.7s.16,3.58,0,5.87c-.16,2.29,0,4.91-.37,7.78s-.47,6.14-1.06,9.39c-.27,1.68-.47,3.42-.82,5.2-.35,1.78-.78,3.58-1.17,5.44-1.89,8.08-4.52,15.96-7.88,23.55-3.45,7.55-7.56,14.78-12.28,21.61-2.27,3.07-4.38,6.14-6.63,8.57-1.11,1.29-2.05,2.6-3.17,3.74l-3.11,3.29c-1.94,2.05-3.93,3.85-5.59,5.44-1.66,1.6-3.17,2.84-4.42,3.85l-2.68,2.33c-.32.29-.67.55-1.04.76.27-.34.58-.65.92-.92l2.76-2.48c1.21-1.04,2.68-2.35,4.28-4.09s3.56-3.34,5.44-5.5l3.05-3.34c1.04-1.15,2.05-2.46,3.11-3.74,2.21-2.56,4.26-5.53,6.49-8.59,4.63-6.8,8.67-13.98,12.07-21.47,3.32-7.53,5.95-15.35,7.88-23.35l1.21-5.4c.37-1.76.59-3.5.88-5.16.61-3.32.86-6.45,1.17-9.31s.35-5.44.51-7.74.14-4.24.14-5.85v-3.7c-.03-.4-.03-.79.02-1.19Z"/>
    <polygon class="cls-12" points="738.83 152.48 699.73 121.39 710.57 107.74 736.81 128.6 775.11 85.72 788.11 97.35 738.83 152.48"/>
    <path class="cls-7" d="M923.58,181.8h-7.41v-40.29c-.01-9.49-7.72-17.18-17.21-17.17-9.48.01-17.16,7.69-17.17,17.17v40.29h-7.41v-40.29c0-13.56,10.99-24.56,24.56-24.56s24.56,10.99,24.56,24.56l.08,40.29Z"/>
    <rect class="cls-7" x="865.83" y="154.46" width="66.28" height="51.96" rx="6.3" ry="6.3"/>
    <path class="cls-10" d="M904.05,181.78c1.33-1.35,2.07-3.18,2.05-5.07.03-4.03-3.22-7.33-7.25-7.36-4.03-.03-7.33,3.22-7.36,7.25-.02,3.29,2.15,6.19,5.32,7.08l-1.56,6.92h6.94l-1.39-6.92c1.21-.35,2.31-1,3.19-1.9"/>
    <path class="cls-3" d="M82.3,769.88c-7.95-4.97-16.93-8.06-26.25-9.02-4.3-.45-8.98-.33-12.42,2.27-.81.46-1.31,1.34-1.29,2.27.21.65.65,1.2,1.23,1.56,11.36,8.11,26.29,9.23,38.74,2.93"/>
    <path class="cls-3" d="M81.62,769.15c-6.08-4.47-11.76-9.46-16.96-14.92-5.22-5.5-8.89-12.29-10.62-19.67-.7-2.21-.39-4.62.84-6.59,13.51,10.56,24.13,24.23,26.75,41.17"/>
    <path class="cls-3" d="M82.15,769.78c-1.25-7.39-1.13-14.94.33-22.28,1.5-7.41,5.73-13.98,11.85-18.42,2.33,5.46,1.33,11.77-.31,17.46-2.54,8.84-6.52,17.2-11.77,24.76"/>
    <path class="cls-3" d="M95.42,793.54c-7.95,1.29-15.31,5.01-21.06,10.66-6.04,5.49-10.25,12.71-12.05,20.67,7.9-.49,14.59-6.14,19.44-12.28,4.85-6.14,8.19-13.08,13.57-18.91"/>
    <path class="cls-3" d="M98.3,797.33c-6.44-16.33-4.18-34.81,6-49.11,4.58,16.37,2.89,34.79-6,49.11"/>
    <path class="cls-3" d="M115.8,818.18c-15.03-.91-29.16,7.23-35.91,20.69-.43.88-.84,2.05-.23,2.8.63.61,1.52.88,2.37.7,7.08-.45,13.34-4.71,18.52-9.56,5.18-4.85,9.7-10.46,15.41-14.65"/>
    <path class="cls-3" d="M115.24,817.07c-3.77-12.14-4-25.1-.68-37.37,1.33-4.81,3.54-9.86,7.98-12.11.36-.24.81-.32,1.23-.23.36.19.63.51.76.9,1.5,3.36,2.15,7.03,1.88,10.7-.26,3.66-.82,7.3-1.68,10.87-1.39,6.63-2.05,13.75-5.79,19.48-.85,1.38-1.63,2.81-2.31,4.28-.68,1.45-.68,2.05-1.31,3.11"/>
    <path class="cls-3" d="M161.59,823.95c-3.15-13.81-.06-28.3,8.45-39.62.59-.8,1.39-1.64,2.39-1.56,1.51.14,1.9,2.17,1.84,3.68-.63,13.43-5.02,26.42-12.69,37.47"/>
    <path class="cls-3" d="M165.77,826.81c16.41,3.87,33.7.36,47.29-9.62-7.91-3.98-16.96-5.09-25.6-3.13-8.55,2.05-16.37,5.77-21.69,12.75"/>
    <path class="cls-3" d="M169.29,818.12c8.9-14.49,25.95-23.94,42.97-24.82-2.05,6.92-7.63,12.28-14.04,15.53-6.57,2.95-13.51,4.97-20.63,6.02-2.74.53-6.51,1.13-8.19,3.27"/>
    <path class="cls-3" d="M162.47,775.9c2.7-8.16,4.54-16.58,5.48-25.13.95-8.6-.79-17.28-4.99-24.84-8.31,16.06-9.15,34.79-.74,50.85"/>
    <path class="cls-3" d="M190.43,761.82c9.72-17.64,29.53-31.74,49.56-33.72-7.74,19.26-28.81,34.13-49.56,33.72"/>
    <path class="cls-3" d="M184.33,765.24c14.47,2.21,26.81,11.46,40.33,17.07,2.84,1.36,5.99,1.96,9.13,1.74,3.94-.05,7.1-3.29,7.05-7.23-.03-2.09-.96-4.06-2.57-5.39-1.91-1.79-4.17-3.18-6.63-4.09-14.73-6.14-30.55-6.28-46.06-2.56"/>
    <path class="cls-3" d="M175.94,775.39c3.27.94,4.4,2.64,7,4.85,8.88,7.54,19.39,12.92,30.7,15.72,1.17.29,2.7.41,3.29-.63s-.14-2.05-.8-2.86c-4.9-5.76-11.26-10.1-18.42-12.54-7.06-2.64-13.18-5.81-21.61-5.12"/>
    <path class="cls-3" d="M166.49,714.06c12.01,11.07,28.14,16.56,44.41,15.1.75.02,1.48-.23,2.05-.72,1.13-1.23-.23-3.11-1.51-4.09-13.06-10.23-28.87-14.32-44.9-10.23"/>
    <path class="cls-3" d="M177.7,709.95c15.94-11.73,36.53-15.12,55.39-9.13-7.25,6.71-16.55,10.79-26.4,11.58-9.73.89-19.55.06-29-2.46"/>
    <path class="cls-3" d="M173.24,681.77c-1.27-13.04-.45-23.31-1.35-36.4,0-1.04-.29-2.29-1.27-2.68-1.37-.51-2.5,1.15-2.95,2.54-3.85,12.3-1.8,25.68,5.55,36.26"/>
    <path class="cls-3" d="M172.3,683.2c8.55-5.48,15.91-12.61,21.67-20.98,4.26-5.83,7.86-12.81,6.9-19.97-6.08.16-11.77,2.99-15.57,7.74-3.72,4.72-6.42,10.15-7.94,15.96-1.72,5.73-2.93,11.62-4.97,17.25"/>
    <path class="cls-3" d="M193.52,677.31c19.46-7.18,37.48-17.78,53.21-31.31-6.34-2.56-13.61-1.02-19.95,1.53-14.4,5.45-26.3,16.01-33.44,29.65"/>
    <path class="cls-3" d="M178.27,690.34c9.78,1.39,19.7,1.44,29.49.14,9.56-1.6,18.6-5.4,27.52-9.15.78-.23,1.45-.74,1.88-1.43.28-.85,0-1.78-.68-2.35-.69-.54-1.5-.92-2.35-1.11-9.72-2.7-20.2-1.43-29.75,1.78-9.1,3.12-17.85,7.18-26.11,12.11"/>
    <path class="cls-3" d="M122.35,714.51c-6.69-13.51-6.14-29.26-.47-43.18,4.09,6.14,4.56,14.08,3.83,21.47-.74,7.39-2.99,14.96-3.15,22.37"/>
    <path class="cls-3" d="M95.56,701.02c-16.93-.23-33.17,6.7-44.73,19.07,8.46,1.01,17.02-.57,24.56-4.54,7.46-3.96,14.49-8.67,21-14.06"/>
    <path class="cls-3" d="M77.59,695.01c-8.19-.65-16.02-1.66-23.88.74-8.02,2.26-14.66,7.9-18.19,15.45,7.71.62,15.44-.85,22.39-4.24,6.91-3.38,13.5-7.38,19.69-11.95"/>
    <path class="cls-3" d="M104.19,695.29c-7.35-4.81-14.9-9.72-23.45-11.73-8.55-2.01-18.42-.51-24.43,5.93,6.92,4.09,15.33,4.54,23.37,4.54s17.86-.1,25.44,2.58"/>
    <path class="cls-3" d="M104.24,695.68c-12.56-12.28-17.31-34.5-12.28-51.36,9.91,15.18,14.25,33.34,12.28,51.36"/>
    <path class="cls-3" d="M138.72,660.73c2.37-5.53,4.09-11.3,6.14-16.9,1.94-5.69,4.91-10.97,8.78-15.57,3.92-4.67,9.51-7.61,15.57-8.19-3.92,17.19-14.88,31.93-30.2,40.64"/>
    <path class="cls-3" d="M132.58,668.02c-3.91-5.4-8.45-12.73-13.77-16.76-5.32-4.03-12.28-6.47-18.72-4.93,6.82,11.94,18.85,19.98,32.5,21.69"/>
    <path class="cls-3" d="M133.78,661.18c-2.79-6.44-4.84-13.18-6.14-20.07-1.29-6.98-.18-14.19,3.15-20.46,6.9,13.04,9.13,27.03,3.42,40.64"/>
    <path class="cls-3" d="M138.86,620.62c3.91-12.91,15.74-22.51,28.53-26.81,1.58-.65,3.29-.9,4.99-.74,1.74.18,3.19,1.39,3.68,3.07.47,2.19-1.35,4.09-3.07,5.63-9.98,8.53-21.6,14.94-34.13,18.85"/>
    <path class="cls-3" d="M139,610.12c.49-8.35,1-16.8,3.72-24.7,2.72-7.9,7.94-15.29,15.53-18.74,1.29,8.41-2.41,16.78-6.9,24.02-4.48,7.24-9.88,14.08-12.56,22.16"/>
    <path class="cls-3" d="M138.72,615.85c-3.23-9.41-3.56-21.38-9.21-29.59-3.95-5.73-10.23-9.64-13.65-15.72-2.05,5.83-1.77,12.22.8,17.84,2.57,5.56,6.1,10.62,10.44,14.94,4.09,4.46,7.74,7.82,11.62,12.52"/>
    <path class="cls-3" d="M138.86,893.24c-.25,0-.47-62.82-.49-140.32s.18-140.34.43-140.34.47,62.8.49,140.34c.02,77.54-.18,140.32-.43,140.32Z"/>
    <path class="cls-3" d="M193.76,705.01c-.75.38-1.54.68-2.35.9l-6.51,2.19c-5.48,1.86-13.01,4.56-21.18,7.92-8.16,3.36-15.74,6.28-20.07,10.05-1.76,1.44-3.16,3.27-4.09,5.34-.63,1.47-.74,2.37-.82,2.37s0-.25,0-.68c.1-.62.26-1.23.47-1.82.82-2.19,2.17-4.15,3.93-5.69,2.62-2.22,5.56-4.04,8.72-5.4,3.48-1.64,7.35-3.34,11.44-5.01,8.19-3.36,15.78-5.98,21.32-7.69,2.78-.86,5.03-1.49,6.61-1.92.83-.26,1.68-.45,2.54-.55Z"/>
    <path class="cls-3" d="M211.77,660.81c-.19.26-.42.5-.68.7l-2.05,1.9-7.53,6.83-25.05,22.31c-9.78,8.72-18.23,17.03-24.09,23.29-2.95,3.13-5.26,5.73-6.83,7.53l-1.82,2.05c-.19.26-.42.49-.68.68.15-.29.34-.55.55-.8.37-.51.92-1.27,1.68-2.19,1.49-1.88,3.74-4.54,6.63-7.74,7.56-8.26,15.55-16.12,23.94-23.53,9.82-8.68,18.74-16.49,25.23-22.1,3.19-2.74,5.81-4.97,7.71-6.63l2.05-1.76c.28-.22.59-.4.92-.53Z"/>
    <path class="cls-3" d="M165.95,701.41c-.27-.12,1.78-4.83,3.83-10.8s3.01-10.99,3.27-10.95c-.21,3.85-1.03,7.64-2.41,11.23-.88,2.55-1.9,5.05-3.05,7.49-.41,1.08-.96,2.09-1.64,3.03Z"/>
    <path class="cls-3" d="M138.92,739.43c-.57-.52-1.08-1.1-1.51-1.74l-3.87-4.95c-3.23-4.2-7.71-9.99-12.75-16.37-5.03-6.38-9.64-12.01-12.99-16.13l-3.87-4.83c-.52-.57-.98-1.2-1.37-1.86.6.49,1.15,1.04,1.64,1.64,1,1.08,2.44,2.7,4.09,4.71,3.48,4.09,8.19,9.62,13.22,15.96,5.03,6.34,9.43,12.28,12.54,16.49,1.58,2.05,2.8,3.91,3.64,5.14.47.6.89,1.26,1.23,1.94Z"/>
    <path class="cls-3" d="M126.87,723.98c-2.43-2.68-4.16-5.92-5.03-9.43-.96-3.08-1.35-6.31-1.15-9.54h.41c-.06.39-.19.77-.39,1.11v-1.17h.41c.19,3.14.73,6.25,1.6,9.27,1.15,3.35,2.54,6.61,4.15,9.76Z"/>
    <path class="cls-3" d="M111.34,704.52c-1.09-.82-2.27-1.51-3.52-2.05-3.17-.96-6.5-1.22-9.78-.78-3.32.24-6.61.77-9.84,1.58-1.34.41-2.71.74-4.09.98,1.19-.74,2.5-1.28,3.87-1.6,3.24-1,6.58-1.63,9.97-1.88,3.39-.45,6.85-.08,10.07,1.08,1.39.47,2.57,1.41,3.34,2.66Z"/>
    <path class="cls-3" d="M107.65,699.69c0,.14-2.05-.82-5.4-2.05-8.75-2.98-18.1-3.68-27.2-2.05-3.48.61-5.57,1.27-5.63,1.13.44-.28.92-.49,1.43-.61,1.34-.47,2.71-.85,4.09-1.15,4.57-1,9.27-1.33,13.94-.98,4.66.36,9.24,1.4,13.61,3.07,1.32.51,2.6,1.09,3.85,1.76.48.22.92.52,1.31.88Z"/>
    <path class="cls-3" d="M138.72,679.66c-1.6-4.47-2.91-9.03-3.93-13.67-1.32-4.56-2.35-9.2-3.07-13.89,1.6,4.47,2.92,9.03,3.95,13.67,1.31,4.56,2.33,9.2,3.05,13.89Z"/>
    <path class="cls-3" d="M139.04,679.66c-1.26-2.83-2.71-5.56-4.36-8.19-1.84-2.48-4-4.71-6.43-6.63.91.23,1.76.68,2.48,1.29,1.82,1.33,3.41,2.95,4.69,4.81,1.96,2.54,3.2,5.54,3.62,8.72Z"/>
    <path class="cls-3" d="M138.86,859.74s-.29-1.51-1-4.09c-1-3.75-2.37-7.4-4.09-10.89-6.05-11.37-13.53-21.91-22.26-31.37-4.97-5.69-9.8-11.05-13.89-16.19-3.68-4.51-7.01-9.3-9.95-14.32-1.97-3.4-3.65-6.96-5.01-10.64-.47-1.31-.8-2.33-.98-3.03-.12-.35-.21-.72-.27-1.08,0,0,.53,1.43,1.58,3.99,1.49,3.6,3.24,7.09,5.24,10.44,3,4.95,6.35,9.67,10.03,14.14,4.09,5.07,8.96,10.4,13.94,16.08,8.8,9.52,16.26,20.19,22.18,31.72,1.71,3.54,3.03,7.25,3.95,11.07.24,1.04.43,2.09.55,3.15.03.34.03.68,0,1.02Z"/>
    <path class="cls-3" d="M188.48,803.71c-.84.53-1.71,1.01-2.6,1.45-2.36,1.32-4.62,2.81-6.75,4.46-3.17,2.45-6.13,5.15-8.86,8.08-3.11,3.27-6.3,7.08-9.58,11.17-6.53,8.19-12.65,15.47-16.37,21.26-1.86,2.86-3.21,5.28-4.09,6.98-.42.9-.9,1.78-1.43,2.62,0,0,0-.27.25-.74s.45-1.17.86-2.05c1.16-2.46,2.47-4.84,3.93-7.14,4.97-7.46,10.36-14.64,16.15-21.49,3.27-4.09,6.53-7.9,9.7-11.19,2.79-2.92,5.82-5.59,9.07-8,2.21-1.65,4.57-3.11,7.04-4.34.66-.34,1.35-.64,2.05-.9.42-.16.64-.23.65-.18Z"/>
    <path class="cls-3" d="M189.45,821.88c-1.81.4-3.65.66-5.5.8-4.42.45-8.78,1.32-13.04,2.58-4.21,1.37-8.15,3.44-11.66,6.14-2.68,2.05-3.95,3.79-4.09,3.7s.2-.51.8-1.27c.85-1.07,1.81-2.05,2.86-2.93,3.48-2.91,7.49-5.12,11.81-6.51,4.31-1.29,8.75-2.07,13.24-2.33,1.85-.23,3.72-.29,5.59-.18Z"/>
    <path class="cls-3" d="M156.77,833.08c-.29-.16,2.19-3.95,4.09-9.04,1.9-5.1,2.23-9.64,2.54-9.58.17.97.17,1.97,0,2.95-.28,2.37-.81,4.7-1.6,6.96-.84,2.23-1.91,4.36-3.19,6.36-.48.88-1.1,1.68-1.84,2.35Z"/>
    <path class="cls-3" d="M204.55,754.88c-.27.2-.56.36-.88.47l-2.58,1.17c-1.15.49-2.52,1.11-4.09,1.92s-3.38,1.64-5.26,2.76l-2.99,1.7c-1.04.61-2.05,1.31-3.17,2.05-2.21,1.33-4.42,2.99-6.79,4.67-5.02,3.81-9.75,7.97-14.16,12.46-4.33,4.54-8.32,9.4-11.93,14.53-1.62,2.44-3.19,4.71-4.46,6.96-.63,1.11-1.31,2.17-1.88,3.23l-1.49,3.07c-1.06,1.92-1.82,3.77-2.58,5.34s-1.33,2.97-1.78,4.09-.8,1.92-1.08,2.62c-.11.31-.26.62-.43.9.04-.33.13-.66.27-.96l.92-2.68c.41-1.17.92-2.6,1.64-4.2.72-1.6,1.43-3.48,2.48-5.42.49-1,1.02-2.05,1.56-3.11s1.21-2.05,1.86-3.27c1.25-2.29,2.8-4.58,4.4-7.04,7.18-10.5,16.09-19.72,26.34-27.26,2.39-1.68,4.65-3.32,6.88-4.62,1.13-.68,2.17-1.39,3.21-2.05l3.05-1.68c1.92-1.08,3.77-1.88,5.34-2.64,1.33-.66,2.7-1.26,4.09-1.78l2.66-1.02c.29-.1.58-.17.88-.2Z"/>
    <path class="cls-3" d="M165.32,781.2c.32-1.26,1.04-2.39,2.05-3.21,2.42-2.11,5.51-3.29,8.72-3.34,3.14-.01,6.25.59,9.15,1.78,1.23.39,2.39.96,3.46,1.68-1.25-.24-2.48-.59-3.66-1.06-2.87-.99-5.89-1.5-8.92-1.49-3.01.06-5.92,1.09-8.31,2.93-.9.84-1.72,1.75-2.48,2.72Z"/>
    <path class="cls-3" d="M159.4,787.26c1.16-2.56,2-5.27,2.48-8.04.17-2.81-.02-5.63-.55-8.39.53.69.88,1.5,1.02,2.35,1.06,4.05.55,8.34-1.41,12.03-.78,1.39-1.45,2.11-1.53,2.05Z"/>
    <path class="cls-3" d="M95.46,868.74c1.35,24.02,8.59,48.44,19.73,73.14h48.4c10.62-24.45,17.35-48.83,18.54-73.14h-86.66Z"/>
    <path class="cls-10" d="M174.28,907.6c0,.25-15.94.45-35.59.45s-35.59-.2-35.59-.45,15.92-.49,35.61-.49,35.57.25,35.57.49Z"/>
    <path class="cls-10" d="M173.2,916.3c0,.25-14.94.45-33.36.45s-33.38-.2-33.38-.45,14.94-.45,33.38-.45,33.36.2,33.36.45Z"/>
    <path class="cls-10" d="M115.96,884.6c.6,7.42.6,14.87,0,22.28-.6-7.42-.6-14.87,0-22.28Z"/>
    <path class="cls-10" d="M141.89,884.6c.6,7.68.6,15.4,0,23.08-.6-7.68-.6-15.4,0-23.08Z"/>
    <path class="cls-10" d="M166.24,884.32c.6,7.84.6,15.71,0,23.55-.6-7.84-.6-15.71,0-23.55Z"/>
    <path class="cls-10" d="M180.58,884.6c0,.25-18.68.45-41.73.45s-41.77-.2-41.77-.45,18.7-.45,41.77-.45,41.73.1,41.73.45Z"/>
    <path class="cls-7" d="M931.46,660.59c9.05-4,14.85-13,14.75-22.9,0-13.67-10.23-24.8-23.1-24.84-12.87-.04-23.27,10.97-23.31,24.56-.19,9.98,5.64,19.09,14.77,23.1-35.71,5.38-34.09,44.18-34.09,44.18l84.45.39s1.92-39.15-33.48-44.49Z"/>
    <path class="cls-7" d="M551.81,96.37c6.36-1.25,11.38-6.13,12.81-12.44,2.37-8.07-2.25-16.53-10.32-18.9-8.07-2.37-16.53,2.25-18.9,10.32-.15.52-.28,1.04-.37,1.58-1.61,6.35.77,13.03,6.02,16.94-23.59-1.86-28.28,23.14-28.28,23.14l53.82,12.75s7.04-24.82-14.77-33.4Z"/>
    <path class="cls-5" d="M933.77,304.68c5.28-3.3,8.08-9.42,7.12-15.57-.62-8.05-7.65-14.06-15.69-13.44-8.05.62-14.06,7.65-13.44,15.69.05.62.14,1.23.26,1.84.77,6.23,5.22,11.38,11.28,13.04-21.71,6.57-17.23,30.55-17.23,30.55l52.55-7.35s-2.35-24.62-24.84-24.76Z"/>
    <polygon class="cls-5" points="90.59 312.11 62.2 289.54 70.06 279.64 89.11 294.76 116.9 263.68 126.34 272.11 90.59 312.11"/>
  </g>
  <g id="freepik--Floor--inject-2">
    <path class="cls-8" d="M950.43,942.6c0,.31-204.94.53-457.67.53s-457.71-.23-457.71-.53,204.88-.53,457.71-.53,457.67.25,457.67.53Z"/>
  </g>
  <g id="freepik--Icon--inject-2">
    <path class="cls-6" d="M129.3,344.79l-62.76,31.49c-4.65,2.03-7.65,6.63-7.63,11.71v29.37c-.07,26.71,7.71,52.86,22.37,75.18,11.32,17.23,26.32,39.25,51.26,51.83h11.25c27.79-8.47,48.52-31.04,61.19-50.36,14.67-22.33,22.45-48.47,22.39-75.18v-30.84c0-5.1-3.05-9.7-7.74-11.71l-71.6-30.47c-3.17-1.35-15.45-2.37-18.72-1.02Z"/>
    <path class="cls-11" d="M129.3,344.79l-62.76,31.49c-4.65,2.03-7.65,6.63-7.63,11.71v29.37c-.07,26.71,7.71,52.86,22.37,75.18,11.32,17.23,26.32,39.25,51.26,51.83h11.25c27.79-8.47,48.52-31.04,61.19-50.36,14.67-22.33,22.45-48.47,22.39-75.18v-30.84c0-5.1-3.05-9.7-7.74-11.71l-71.6-30.47c-3.17-1.35-15.45-2.37-18.72-1.02Z"/>
    <path class="cls-6" d="M126.79,345.82l-71.52,30.47c-4.69,2-7.73,6.61-7.74,11.71v29.37c0,55.62,33.52,105.75,84.9,127.02,27.77-8.47,48.5-31.04,61.19-50.36,14.67-22.33,22.45-48.47,22.39-75.18v-30.84c0-5.09-3.04-9.69-7.71-11.71l-71.62-30.47c-3.16-1.33-6.72-1.33-9.88,0Z"/>
    <circle class="cls-11" cx="131.79" cy="435.3" r="46.88" transform="translate(-269.2 220.68) rotate(-45)"/>
    <circle class="cls-12" cx="131.76" cy="418.44" r="19.46"/>
    <path class="cls-12" d="M96.23,465.86c6.39-13.37,19.97-21.81,34.79-21.61,15.16,0,29.1,8.29,36.34,21.61,0,0-11.48,16.98-36.83,16.37-13.31-.05-25.89-6.06-34.3-16.37Z"/>
    <path class="cls-8" d="M178.64,435.3c-.02-.25-.02-.51,0-.76,0-.55,0-1.29-.18-2.21v-1.64c0-.59-.2-1.25-.31-2.05-.21-1.62-.54-3.23-.98-4.81-1.11-4.37-2.87-8.55-5.22-12.4-3.08-5.11-7.11-9.58-11.87-13.18-5.75-4.37-12.45-7.33-19.56-8.64-8.16-1.5-16.58-.8-24.37,2.05-2.11.73-4.16,1.62-6.14,2.66-1.98,1.08-3.88,2.3-5.69,3.64-1.84,1.39-3.6,2.88-5.26,4.48-1.63,1.69-3.15,3.48-4.54,5.36-2.86,3.88-5.1,8.19-6.61,12.77-3.19,9.49-3.19,19.77,0,29.26,1.5,4.58,3.74,8.89,6.61,12.77,1.4,1.89,2.91,3.69,4.54,5.38,1.66,1.6,3.41,3.09,5.26,4.46,3.55,2.71,7.51,4.84,11.73,6.32,7.8,2.84,16.21,3.55,24.37,2.05,13.11-2.47,24.54-10.41,31.43-21.83,2.32-3.83,4.05-7.98,5.14-12.32.44-1.59.77-3.2.98-4.83,0-.7.25-1.35.31-2.05s0-1.15,0-1.64l.18-2.23c-.02-.25-.02-.51,0-.76.02.25.02.51,0,.76v3.89c0,.59-.16,1.27-.27,2.05-.16,1.65-.46,3.29-.9,4.89-1.04,4.43-2.76,8.68-5.1,12.59-11.47,19.59-35.3,28.2-56.64,20.46-2.11-.76-4.16-1.66-6.14-2.7-2.01-1.13-3.94-2.41-5.77-3.83-1.9-1.4-3.71-2.92-5.4-4.56-1.63-1.7-3.15-3.51-4.54-5.4-2.95-3.96-5.24-8.37-6.79-13.06-1.55-4.84-2.37-9.88-2.44-14.96.06-5.08.88-10.13,2.46-14.96,1.54-4.69,3.83-9.1,6.77-13.06,1.44-1.92,3-3.76,4.67-5.48,1.69-1.64,3.49-3.17,5.38-4.56,1.81-1.38,3.72-2.64,5.71-3.77,1.98-1.05,4.03-1.96,6.14-2.72,7.96-2.88,16.54-3.59,24.86-2.05,13.36,2.57,24.95,10.77,31.82,22.51,2.34,3.91,4.06,8.17,5.1,12.61.44,1.6.74,3.22.9,4.87,0,.72.23,1.37.27,2.05v3.89c.05.22.09.45.1.68Z"/>
    <path class="cls-8" d="M215.76,410.87c.1.45.14.91.14,1.37,0,.98,0,2.27.16,3.89.16,1.62.16,3.74,0,6.14v3.85c0,1.37,0,2.8-.27,4.3-.29,3.01-.49,6.32-1.13,9.84-.27,1.76-.49,3.58-.86,5.44s-.82,3.77-1.23,5.73c-1.97,8.46-4.71,16.72-8.19,24.68-3.59,7.92-7.89,15.5-12.83,22.65-2.37,3.21-4.56,6.32-6.94,9-1.15,1.35-2.21,2.72-3.34,3.93l-3.25,3.44c-2.05,2.27-4.09,4.09-5.85,5.71-1.47,1.45-3.02,2.81-4.65,4.09l-3.03,2.46c-.33.3-.7.56-1.08.78.29-.34.61-.66.96-.94l2.89-2.6c1.29-1.11,2.82-2.48,4.5-4.09s3.72-3.52,5.71-5.79l3.19-3.48c1.11-1.21,2.05-2.58,3.27-3.93,2.31-2.68,4.46-5.79,6.81-9.02,4.86-7.12,9.09-14.66,12.65-22.51,3.46-7.92,6.2-16.14,8.19-24.56l1.27-5.69c.37-1.84.61-3.66.92-5.4.65-3.48.9-6.77,1.23-9.76.18-1.49.31-2.93.35-4.28l.18-3.83c.18-2.39.14-4.46.14-6.14v-3.89c-.01-.46,0-.93.06-1.39Z"/>
  </g>
  <g id="freepik--Device--inject-2">
    <path class="cls-8" d="M713.35,942.6H229.47c-13.32-.22-23.94-11.21-23.72-24.53,0,0,0-.02,0-.03V178.44c-.24-13.32,10.37-24.32,23.69-24.56,0,0,.02,0,.03,0h483.88c13.31.22,23.92,11.2,23.7,24.51,0,.02,0,.03,0,.05v739.64c.23,13.31-10.38,24.29-23.69,24.52,0,0,0,0,0,0Z"/>
    <path class="cls-4" d="M480.68,906.72c.21,12.43-9.69,22.68-22.12,22.9-12.43.21-22.68-9.69-22.9-22.12s9.69-22.68,22.12-22.9c.13,0,.26,0,.39,0,12.32-.1,22.4,9.8,22.51,22.12Z"/>
    <path class="cls-4" d="M525.85,195.59h-108.46c-4.25-.07-7.64-3.57-7.57-7.82,0,0,0,0,0,0h0c-.07-4.25,3.32-7.76,7.57-7.84h108.46c4.25.08,7.64,3.58,7.57,7.84h0c.07,4.25-3.32,7.75-7.57,7.82,0,0,0,0,0,0Z"/>
    <rect class="cls-12" x="222.06" y="210.18" width="497.8" height="658.64"/>
    <rect class="cls-5" x="698.62" y="210.18" width="21.24" height="658.64"/>
    <path class="cls-3" d="M709.22,446.82h0c-3.65-.01-6.61-2.98-6.61-6.63v-145.68c0-3.65,2.96-6.62,6.61-6.63h0c3.66,0,6.63,2.97,6.63,6.63v145.68c0,3.66-2.97,6.63-6.63,6.63Z"/>
    <path class="cls-3" d="M654.93,360.08h-367.04c-5.83,0-10.56-4.73-10.56-10.56h0c0-5.83,4.73-10.56,10.56-10.56h367.04c5.83,0,10.56,4.73,10.56,10.56h0c0,5.83-4.73,10.56-10.56,10.56h0Z"/>
    <path class="cls-6" d="M598.47,282.97h-230.89c-5.83,0-10.56-4.73-10.56-10.56h0c0-5.83,4.73-10.56,10.56-10.56h230.89c5.83,0,10.56,4.73,10.56,10.56h0c0,5.83-4.73,10.56-10.56,10.56h0Z"/>
    <path class="cls-3" d="M602.81,402.58h-262.79c-5.83,0-10.56-4.73-10.56-10.56h0c0-5.83,4.73-10.56,10.56-10.56h262.79c5.83,0,10.56,4.73,10.56,10.56h0c0,5.83-4.73,10.56-10.56,10.56h0Z"/>
    <path class="cls-3" d="M484.16,587.88h-202.2c-5.83,0-10.56-4.73-10.56-10.56h0c0-5.83,4.73-10.56,10.56-10.56h202.2c5.83,0,10.56,4.73,10.56,10.56h0c0,5.83-4.73,10.56-10.56,10.56h0Z"/>
    <path class="cls-3" d="M649,543.62h-367.04c-5.83,0-10.56-4.73-10.56-10.56h0c0-5.82,4.72-10.54,10.54-10.54h367.06c5.82-.01,10.55,4.7,10.56,10.52v.02h0c0,5.83-4.73,10.56-10.56,10.56h0Z"/>
    <path class="cls-3" d="M327.74,664.93h321.26c5.83,0,10.56,4.73,10.56,10.56h0c0,5.83-4.73,10.56-10.56,10.56h-321.26c-5.83,0-10.56-4.73-10.56-10.56h0c0-5.83,4.73-10.56,10.56-10.56Z"/>
    <path class="cls-3" d="M649,731.13h-367.04c-5.83,0-10.56-4.73-10.56-10.56h0c.02-5.82,4.74-10.52,10.56-10.52h367.04c5.83,0,10.56,4.73,10.56,10.56h0c-.02,5.82-4.74,10.52-10.56,10.52Z"/>
    <path class="cls-3" d="M649,777h-367.04c-5.83,0-10.56-4.73-10.56-10.56h0c0-5.83,4.73-10.56,10.56-10.56h367.04c5.83,0,10.56,4.73,10.56,10.56h0c0,5.83-4.73,10.56-10.56,10.56h0Z"/>
    <path class="cls-6" d="M298.48,675.48c0,6.06-4.91,10.97-10.97,10.97s-10.97-4.91-10.97-10.97,4.91-10.97,10.97-10.97h.02c6.05.01,10.95,4.92,10.95,10.97Z"/>
    <path class="cls-3" d="M649,502.38h-321.28c-5.83,0-10.56-4.73-10.56-10.56h0c0-5.83,4.73-10.56,10.56-10.56h321.28c5.83,0,10.56,4.73,10.56,10.56h0c0,5.83-4.73,10.56-10.56,10.56h0Z"/>
    <circle class="cls-6" cx="287.53" cy="491.82" r="10.97"/>
    <path class="cls-6" d="M638.74,844.15h-82.37c-9.29,0-16.82-7.53-16.82-16.82h0c0-9.29,7.53-16.82,16.82-16.82h82.37c9.29,0,16.82,7.53,16.82,16.82h0c0,9.29-7.53,16.82-16.82,16.82h0Z"/>
  </g>
  <g id="freepik--Padlock--inject-2">
    <path class="cls-6" d="M214.43,50.4l-85.37,42.83c-6.39,2.72-10.53,8.98-10.54,15.92v39.94c-.1,36.35,10.49,71.93,30.45,102.32,15.39,23.37,35.77,53.33,69.72,70.44h15.31c37.78-11.52,65.97-42.24,83.23-68.49,19.96-30.38,30.55-65.96,30.45-102.32v-41.89c0-6.92-4.1-13.18-10.46-15.92l-97.32-41.5c-4.34-1.78-21.12-3.17-25.46-1.33Z"/>
    <path class="cls-11" d="M214.43,50.4l-85.37,42.83c-6.39,2.72-10.53,8.98-10.54,15.92v39.94c-.1,36.35,10.49,71.93,30.45,102.32,15.39,23.37,35.77,53.33,69.72,70.44h15.31c37.78-11.52,65.97-42.24,83.23-68.49,19.96-30.38,30.55-65.96,30.45-102.32v-41.89c0-6.92-4.1-13.18-10.46-15.92l-97.32-41.5c-4.34-1.78-21.12-3.17-25.46-1.33Z"/>
    <path class="cls-6" d="M210.99,51.73l-97.26,41.5c-6.38,2.72-10.52,8.98-10.52,15.92v39.94c.01,75.64,45.59,143.82,115.48,172.75,37.78-11.52,65.97-42.24,83.2-68.49,19.97-30.38,30.56-65.96,30.45-102.32v-41.89c0-6.94-4.14-13.2-10.52-15.92l-97.16-41.5c-4.36-1.87-9.31-1.87-13.67,0Z"/>
    <path class="cls-8" d="M332.04,140.28c.03.16.03.31,0,.47v1.37c0,1.31.1,3.07.18,5.3.08,2.23.2,5.1,0,8.37,0,1.64,0,3.38-.16,5.22v2.86c0,.98-.18,2.05-.29,3.01-.41,4.09-.68,8.59-1.53,13.36-.39,2.37-.7,4.87-1.19,7.39-.49,2.52-1.11,5.12-1.68,7.78-2.7,11.5-6.46,22.73-11.23,33.54-4.88,10.76-10.7,21.07-17.39,30.8-3.23,4.38-6.14,8.62-9.41,12.28-1.58,1.84-3.01,3.7-4.54,5.34l-4.42,4.71c-2.74,3.07-5.57,5.5-7.92,7.78-1.21,1.11-2.29,2.17-3.34,3.09l-2.86,2.31-4.09,3.36-1.08.86c-.25.18-.39.27-.39.25s0-.12.31-.35l1.02-.92,3.95-3.5,2.89-2.52c1.04-.92,2.05-2.05,3.27-3.15,2.31-2.29,5.07-4.75,7.78-7.84l4.36-4.75c1.51-1.64,2.93-3.5,4.46-5.34,3.17-3.64,6.14-7.88,9.29-12.28,6.63-9.71,12.4-19.98,17.25-30.7,4.73-10.76,8.49-21.91,11.23-33.34.59-2.64,1.15-5.22,1.72-7.71s.82-4.99,1.23-7.37c.9-4.75,1.21-9.23,1.66-13.3.12-1,.23-2.05.33-2.97s0-1.92.12-2.84c.08-1.84.16-3.58.25-5.22.23-3.25.16-6.14.16-8.35v-6.53c0-.16.02-.32.08-.47Z"/>
    <path class="cls-5" d="M256.3,193.96h-10.38v-56.46c-.39-13.31-11.49-23.78-24.8-23.39-12.76.37-23.02,10.63-23.39,23.39v56.46h-10.38v-56.46c.46-19.04,16.27-34.09,35.31-33.63,18.38.45,33.18,15.25,33.63,33.63v56.46Z"/>
    <rect class="cls-12" x="175.39" y="155.65" width="92.9" height="72.81" rx="11.89" ry="11.89"/>
    <path class="cls-8" d="M256.4,228.46c1.04-.11,2.07-.29,3.09-.53,5.1-1.47,8.58-6.16,8.53-11.46v-49.77c-.31-4.2-2.91-7.88-6.75-9.6-2.01-.83-4.19-1.17-6.36-.98h-6.88l-60.76-.02c-5.26,0-9.83,3.6-11.05,8.72-.27,1.24-.38,2.5-.33,3.77v40.72c.18,4.62-.78,9.39,1.6,13.04,2.14,3.65,6.11,5.82,10.33,5.67h23.02l33.34.18h11.4c.27-.03.55-.03.82,0-.27.03-.55.03-.82,0h-11.4l-33.34.16h-23.02c-6.83.31-12.62-4.98-12.92-11.81-.01-.26-.02-.53-.01-.79v-47.09c-.06-1.37.06-2.75.35-4.09.66-2.68,2.22-5.06,4.4-6.75,2.2-1.74,4.93-2.69,7.74-2.7h67.41c2.31-.18,4.62.2,6.75,1.11,4.15,1.85,6.93,5.84,7.24,10.38v49.83c0,2.24-.62,4.44-1.8,6.34-1.6,2.65-4.18,4.56-7.18,5.32-1.1.33-2.25.46-3.4.37Z"/>
    <path class="cls-6" d="M228.96,193.94c1.89-1.89,2.95-4.45,2.95-7.12.04-5.65-4.52-10.26-10.17-10.3-5.65-.04-10.26,4.52-10.3,10.17-.03,4.6,3.02,8.66,7.45,9.91l-2.19,9.7h9.72l-2.05-9.7c1.7-.49,3.24-1.4,4.48-2.66"/>
  </g>
  <g id="freepik--Character--inject-2">
    <path class="cls-9" d="M862.76,266.95v82.92c.18,14.32,2.29,36.83-20.46,36.1h0c-19.62-2.05-24.84-20.73-24.99-34.11,0-6.34-.14-11.64-.2-12.28,0,0-21.49-1.76-23.31-23-.88-10.23-.96-31.53-.82-50.79.18-20.68,16.21-37.76,36.83-39.25l2.05-.14c22.24-.33,31.27,18.36,30.9,40.56Z"/>
    <path class="cls-1" d="M817.17,339.57c9.82-.75,19.21-4.3,27.07-10.23,0,0-5.61,16.02-26.95,15.65l-.12-5.42Z"/>
    <path class="cls-8" d="M829.34,274.5c.43.43,2.89-1.56,6.43-1.64s6.14,1.64,6.59,1.19-.25-1-1.41-1.8c-1.56-1.05-3.4-1.58-5.28-1.51-1.86.06-3.65.71-5.12,1.86-1.06.9-1.41,1.7-1.21,1.9Z"/>
    <path class="cls-8" d="M829.28,284.55c.09,1.57,1.42,2.77,2.99,2.7,1.51.01,2.75-1.21,2.76-2.72,0-.03,0-.06,0-.08-.1-1.55-1.41-2.75-2.97-2.7-1.54,0-2.78,1.25-2.78,2.78,0,0,0,.01,0,.02Z"/>
    <path class="cls-8" d="M820.44,299.34c-1.76-.41-3.57-.6-5.38-.57-.84,0-1.64-.14-1.82-.7-.14-.86,0-1.74.37-2.52.65-2.05,1.31-4.24,2.05-6.53,2.76-9.29,4.71-16.9,4.34-17.01s-2.93,7.33-5.69,16.62c-.65,2.29-1.29,4.48-1.9,6.57-.44,1.04-.51,2.21-.18,3.29.28.58.82,1,1.45,1.13.48.06.96.06,1.43,0,1.79.12,3.58.02,5.34-.29Z"/>
    <path class="cls-8" d="M830.86,259.36c.35.8,3.19.2,6.61.37,3.42.16,6.14.92,6.61.16.16-.35-.37-1.08-1.51-1.78-3.1-1.74-6.84-1.89-10.07-.41-1.21.59-1.78,1.29-1.64,1.66Z"/>
    <path class="cls-8" d="M797.07,264.68c.39.65,3.15,0,6.53-.16,3.38-.16,6.14.33,6.51-.35.14-.33-.41-.9-1.58-1.41-1.58-.63-3.28-.91-4.97-.82-1.72.05-3.41.47-4.95,1.23-1.15.59-1.7,1.21-1.53,1.51Z"/>
    <path class="cls-8" d="M764.9,246.73c.24-.87.82-1.61,1.62-2.05,1.7-.77,3.57-1.08,5.42-.88,5.67-.1,11.19-1.78,15.96-4.85,2.23-3.2,4.71-6.21,7.43-9,6.45-6.63,11.73-11.15,17.21-13.36,7.08-2.84,18.93-4.09,26.32-2.05s14.02,7.94,15.06,15.49c4.09-3.5,10.35-3.46,15.41-1.43h.12c5.61,2.05,8.8,7.94,10.46,13.67,1.66,5.73,2.37,11.87,5.4,17.01.63,1.06,1.39,2.35.84,3.48-.52.83-1.51,1.26-2.48,1.06-.95-.2-1.84-.61-2.62-1.19.63,1.51,1.25,3.01,1.88,4.5-2.05.36-4.15.22-6.14-.39-1.03,5.11-2.36,10.15-3.99,15.1-2.1-.25-4.21.27-5.95,1.45-2.05,1.78-2.84,5.12-6.14,3.85-1.66-.65-3.17-4.09-3.74-5.83-3.7-11.33-4.92-23.33-3.58-35.18-2.33-2.48-5.11-4.49-8.19-5.93l.25.23c-5.93-2.05-12.65-4.09-18.27-1.31-4.36,2.17-6.92,6.69-10.23,10.23-6.06,6.8-14.65,10.82-23.76,11.11-.31,5.98.18,14.43-.12,20.46l-5.03-9.58h0c-.4-.66-.76-1.35-1.08-2.05v-.2h0c-.5-1.17-1.07-2.31-1.7-3.42h0c-1.61,1.3-3.97,1.04-5.26-.57-1.02-1.27-1.1-3.06-.2-4.42.5-.7,1.11-1.31,1.8-1.82-1.49,1.45-3.63,2-5.63,1.45-2-.61-3.35-2.49-3.27-4.58.17-1.39,1.07-2.59,2.35-3.15-2.63.21-5.27-.37-7.57-1.68-1.64-.88-3.11-2.29-2.56-4.17Z"/>
    <path class="cls-4" d="M847.19,232.51c.74.62,1.42,1.31,2.05,2.05,1.68,2.02,2.8,4.45,3.25,7.04.37,1.78.56,3.59.55,5.4,0,2.05-.14,4.09-.31,6.26-.19,2.31-.24,4.64-.14,6.96.06,1.24.21,2.47.47,3.68.19,1.29.7,2.52,1.49,3.56.76.84,1.9,1.22,3.01,1,1.04-.19,1.98-.72,2.68-1.51,1.16-1.58,1.86-3.45,2.05-5.4h-.43c.63,1.61,1.5,3.11,2.58,4.46,1.03,1.24,2.49,2.05,4.09,2.25.75.07,1.51-.06,2.19-.39.63-.33,1.15-.84,1.49-1.47.31-.58.46-1.23.45-1.88-.03-.61-.28-1.19-.7-1.64l-.23.2c1.27,1.45,2.82,2.61,4.56,3.42.61.27,1.08.46,1.41.55l.51.12-.47-.2c-.33-.14-.8-.33-1.37-.61-1.69-.86-3.19-2.04-4.42-3.48l-.23.2c.71.91.77,2.18.14,3.15-.3.55-.77,1-1.33,1.29-.64.31-1.35.42-2.05.33-1.49-.17-2.87-.9-3.85-2.05-1.03-1.33-1.86-2.8-2.48-4.36l-.31-.68-.14.74c-.22,1.87-.92,3.65-2.05,5.16-.64.69-1.49,1.17-2.41,1.35-.94.19-1.91-.13-2.56-.84-.74-.98-1.21-2.12-1.37-3.34-.25-1.19-.42-2.39-.49-3.6-.1-2.31-.05-4.62.14-6.92.12-2.21.27-4.3.25-6.28-.01-1.84-.22-3.67-.61-5.46-.5-2.64-1.69-5.1-3.46-7.12-.55-.76-1.22-1.41-1.99-1.94Z"/>
    <path class="cls-4" d="M781.48,253.16l.18.14c.17.14.35.27.53.39.28.23.58.43.9.59.42.25.85.47,1.29.68,2.85,1.29,5.97,1.85,9.09,1.64,4.64-.31,9.09-1.96,12.81-4.75,4.5-3.43,8.25-7.75,11.01-12.69,1.56-2.56,2.8-5.2,4.09-7.63,1.32-2.38,2.98-4.56,4.91-6.47,1.7-1.74,3.81-3.02,6.14-3.72,1.05-.29,2.14-.42,3.23-.37.99.08,1.97.28,2.91.61,1.65.56,3.17,1.47,4.44,2.66.96.9,1.77,1.95,2.39,3.11.5,1.01.86,2.09,1.08,3.19v-.23c0-.23,0-.39-.1-.65-.17-.83-.45-1.63-.82-2.39-1.43-2.82-3.9-4.97-6.88-6.02-.98-.34-2.01-.56-3.05-.63-1.13-.05-2.26.08-3.36.37-2.39.71-4.57,2.01-6.32,3.79-1.93,1.93-3.56,4.14-4.85,6.55-1.41,2.46-2.68,5.07-4.2,7.63-2.74,4.88-6.44,9.15-10.87,12.56-3.64,2.76-8.01,4.42-12.56,4.77-3.07.24-6.15-.26-8.98-1.47-1.04-.49-2.05-1.04-3.03-1.66Z"/>
    <path class="cls-4" d="M779.55,243.83s.25.23.76.53c.72.44,1.47.82,2.25,1.15,1.16.49,2.36.88,3.58,1.17,1.5.35,3.03.56,4.56.61,1.54.04,3.08-.06,4.6-.31,1.23-.21,2.44-.52,3.62-.94.8-.27,1.58-.61,2.33-1,.28-.13.55-.28.8-.47,0,0-1.21.51-3.23,1.15-1.18.35-2.38.63-3.6.82-1.49.21-3,.3-4.5.27-1.51-.07-3-.25-4.48-.55-1.21-.27-2.39-.62-3.54-1.06-1.96-.76-3.11-1.43-3.15-1.35Z"/>
    <path class="cls-8" d="M796.93,274.5c.41.43,2.86-1.56,6.43-1.64s6.14,1.64,6.59,1.19-.27-1-1.41-1.8c-1.57-1.05-3.42-1.57-5.3-1.51-1.85.06-3.64.71-5.1,1.86-1.08.9-1.43,1.7-1.21,1.9Z"/>
    <path class="cls-8" d="M800.55,284.55c.1,1.55,1.41,2.75,2.97,2.7,1.53.01,2.77-1.22,2.78-2.74,0-.02,0-.04,0-.06-.11-1.56-1.43-2.75-2.99-2.7-1.53,0-2.76,1.24-2.76,2.76,0,.01,0,.03,0,.04Z"/>
    <path class="cls-9" d="M862.21,282.81c.35-.18,14.32-5.38,14.88,9.17.55,14.55-14.14,12.13-14.18,11.73s-.7-20.89-.7-20.89Z"/>
    <path class="cls-1" d="M867.22,298.01s.27.16.7.35c.61.24,1.29.24,1.9,0,1.86-1.29,2.88-3.49,2.66-5.75,0-1.25-.29-2.48-.84-3.6-.32-.93-1.09-1.63-2.05-1.86-.6-.12-1.21.2-1.45.76-.18.41,0,.7-.16.74s-.31-.23-.23-.84c.08-.36.26-.69.53-.94.4-.31.89-.46,1.39-.43,1.22.2,2.26,1.01,2.74,2.15.69,1.26,1.04,2.66,1.04,4.09,0,2.93-1.35,5.73-3.44,6.43-.78.26-1.64.16-2.33-.29-.47-.45-.61-.78-.47-.8Z"/>
    <path class="cls-8" d="M830.8,302.25c.12,0,.12.86-.37,2.05-.71,1.6-1.88,2.95-3.36,3.89-1.44.97-3.14,1.45-4.87,1.39-1.33-.12-2.05-.57-2.05-.68s.82,0,2.05,0c1.56-.12,3.07-.62,4.38-1.47,1.32-.85,2.44-1.99,3.25-3.34.55-1.13.8-1.88.96-1.84Z"/>
    <path class="cls-4" d="M904.05,877.62l4.34,49.11,15.39,37.98c.98,2.58-.31,5.46-2.89,6.45-.19.07-.39.14-.59.19h0c-1.65.49-3.43.19-4.83-.82-8.78-6.38-40.44-29.88-40.78-32.93-.45-3.97-8.53-52.33-8.53-52.33l37.9-7.65Z"/>
    <path class="cls-8" d="M920.43,971.41l-46.49-39.35.47,3.64c.31,2.05.35,3.07,1.74,4.32,12.36,11.19,25.34,21.67,38.88,31.39,1.69.79,3.63.79,5.32,0h.08Z"/>
    <path class="cls-12" d="M882.98,916.71c1.41.73,2.01,2.44,1.35,3.89-.85,1.4-2.6,1.95-4.09,1.29-1.47-.78-2.08-2.58-1.39-4.09,1.03-1.37,2.92-1.75,4.4-.88"/>
    <path class="cls-8" d="M905.98,951.15c.31.12,1.19-2.58,4.09-4.26,1.85-.9,3.83-1.48,5.87-1.7,0-.12-.68-.43-1.9-.47-1.62-.01-3.21.42-4.6,1.25-1.36.79-2.45,1.95-3.15,3.36-.45,1.06-.45,1.8-.31,1.82Z"/>
    <path class="cls-8" d="M910.44,957.35c.27.2,1.76-1.58,4.38-2.56,1.65-.48,3.33-.85,5.03-1.13-1.74-.8-3.76-.75-5.46.12-2.99,1.15-4.2,3.46-3.95,3.56Z"/>
    <path class="cls-8" d="M898.1,943.44c2.05-1.63,4.22-3.1,6.49-4.4,2.45-1,4.98-1.83,7.55-2.48-2.79-.42-5.64.11-8.08,1.51-4.22,2.03-6.14,5.24-5.95,5.36Z"/>
    <path class="cls-8" d="M895.46,928.58c.16.29,2.93-1.15,6.65-1.64,3.72-.49,6.81,0,6.9-.27-2.2-1.05-4.68-1.34-7.06-.82-2.41.14-4.7,1.1-6.49,2.72Z"/>
    <path class="cls-8" d="M893.82,914.17c4.35-2.18,9.39-2.52,14-.94,0-.12-.55-.68-1.84-1.21-1.7-.67-3.52-.95-5.34-.82-1.82.1-3.58.63-5.16,1.53-1.23.7-1.78,1.33-1.66,1.43Z"/>
    <path class="cls-8" d="M900.27,909.55s.12-.68-.12-1.86c-.36-1.69-1.06-3.29-2.05-4.71-.67-1.12-1.69-1.99-2.91-2.48-.86-.26-1.79.02-2.37.7-.49.66-.7,1.5-.57,2.31.73,3.48,3.82,5.95,7.37,5.91,3.52.06,6.73-1.98,8.19-5.18.33-.77.28-1.66-.12-2.39-.54-.73-1.46-1.06-2.33-.84-1.24.4-2.36,1.1-3.25,2.05-1.27,1.17-2.33,2.56-3.13,4.09-.33.54-.54,1.15-.61,1.78,1.17-2,2.62-3.81,4.32-5.38.8-.79,1.79-1.38,2.86-1.72.48-.13.98.05,1.27.45.23.5.23,1.08,0,1.58-1.33,2.71-4.08,4.42-7.1,4.42-3,.01-5.63-2.04-6.34-4.95-.1-.56.02-1.14.33-1.62.31-.39.83-.54,1.31-.39,1.03.41,1.9,1.13,2.52,2.05,1.29,1.87,2.23,3.97,2.76,6.18Z"/>
    <path class="cls-4" d="M780.17,880.16l1.92,41.64s-44.39,15.84-44.82,23.57l86.05-.63-.18-65.01-42.97.43Z"/>
    <path class="cls-3" d="M808.67,918.1c1.68.42,2.75,2.06,2.46,3.77-.51,1.67-2.22,2.68-3.93,2.31-1.77-.44-2.9-2.17-2.58-3.97.7-1.72,2.61-2.61,4.38-2.05"/>
    <path class="cls-8" d="M823.33,944.74l-.29-6.55-82.41,3.05s-3.81,1.6-3.36,4.09l86.05-.59Z"/>
    <path class="cls-8" d="M780.7,921.44c0,.39,2.05.55,4.09,1.8,2.05,1.25,3.19,2.91,3.58,2.74s-.27-2.44-2.8-3.91c-2.54-1.47-4.97-1.02-4.87-.63Z"/>
    <path class="cls-8" d="M771.7,924.98c0,.39,1.74,1.04,3.17,2.7,1.43,1.66,1.88,3.44,2.29,3.42s.68-2.27-1.17-4.3c-1.84-2.03-4.28-2.19-4.3-1.82Z"/>
    <path class="cls-8" d="M766.66,935.17c.39,0,.94-1.88-.14-4.09s-3.07-2.99-3.25-2.66,1.06,1.47,1.92,3.25,1.06,3.48,1.47,3.5Z"/>
    <path class="cls-8" d="M781.38,911.86c.18.37,2.05-.18,4.48,0s4.24.82,4.44.49-1.56-1.74-4.36-1.86c-2.8-.12-4.67,1.06-4.56,1.37Z"/>
    <path class="cls-8" d="M765.19,581.09c0,2.39,9.99,335.3,9.99,335.3h53.21l10.78-284.77s12.59,148.89,12.59,152.11,11.09,134.26,11.09,134.26l49.32-3.79-3.25-299.71-6.02-43.96-137.7,10.56Z"/>
    <path class="cls-4" d="M844.71,621.07c-.67.38-1.4.67-2.15.86-1.41.49-3.48,1.17-6.02,2.05l-.47.14v-.47c-.29-3.99-.63-9.35-.94-15.22-.35-6.36-.59-12.11-.72-16.37,0-2.05-.1-3.79-.1-4.95-.06-.61-.02-1.23.12-1.82.17.59.27,1.19.29,1.8.14,1.17.29,2.86.43,4.93.33,4.09.7,9.92,1.02,16.37.33,5.87.55,11.23.68,15.25l-.51-.33c2.58-.72,4.67-1.29,6.14-1.66.72-.26,1.47-.46,2.23-.57Z"/>
    <path class="cls-4" d="M840.62,586.47s.16-.27.72-.45c.78-.21,1.6-.13,2.33.2,1.13.41,1.85,1.52,1.78,2.72-.14,1.52-1.28,2.76-2.78,3.03-1.52.23-3.03-.41-3.93-1.66-.63-.96-.63-2.21,0-3.17.42-.63,1.04-1.12,1.76-1.37.53-.18.84-.14.86-.1s-1.21.39-1.94,1.78c-.44.76-.39,1.71.12,2.41.67.89,1.78,1.35,2.89,1.19,1.04-.2,1.85-1.01,2.05-2.05.08-.86-.38-1.68-1.17-2.05-.82-.44-1.76-.62-2.68-.49Z"/>
    <path class="cls-4" d="M865.05,589.93c-.29,0-.7-1.43-.9-3.23-.2-1.8-.14-3.29.14-3.32s.7,1.41.9,3.21.14,3.34-.14,3.34Z"/>
    <path class="cls-4" d="M868.73,589.54c-.29,0-.53-1.53-.53-3.44s.2-3.44.51-3.44.53,1.53.53,3.44-.2,3.44-.51,3.44Z"/>
    <path class="cls-4" d="M804.62,591.83c-.29,0-.74-1.7-1-3.85s-.25-3.95,0-3.97.74,1.7,1,3.87.29,3.93,0,3.95Z"/>
    <path class="cls-4" d="M809.1,592.16c-.95-1.15-1.41-2.61-1.31-4.09-.22-1.43.11-2.89.92-4.09.31,0,0,1.88.14,4.09s.53,4.01.25,4.09Z"/>
    <path class="cls-4" d="M792.28,587.72c.02.49-.04.98-.18,1.45-.26,1.33-.61,2.63-1.06,3.91-1.52,4.3-3.74,8.31-6.59,11.87-2.95,3.67-6.46,6.86-10.4,9.45-1.21.8-2.47,1.52-3.77,2.17-.47.27-.97.48-1.49.63,0-.12,1.92-1.19,4.85-3.29,3.76-2.67,7.14-5.85,10.03-9.45,2.79-3.51,5.06-7.4,6.73-11.56,1.25-3.17,1.72-5.22,1.88-5.18Z"/>
    <path class="cls-4" d="M907.29,610.14c-.53.16-1.07.24-1.62.25-1.48.12-2.98.12-4.46,0-4.86-.47-9.53-2.1-13.63-4.75-3.88-2.54-7.01-6.07-9.07-10.23-.6-1.21-1.06-2.48-1.39-3.79-.17-.46-.24-.94-.23-1.43.16,0,.61,2.05,2.23,4.97,2.16,3.96,5.26,7.32,9.02,9.8,3.97,2.56,8.46,4.21,13.14,4.83,3.66.41,5.98.18,6,.35Z"/>
    <path class="cls-4" d="M820.62,778.72c0,.23-8.88-1.7-19.69-4.26-10.8-2.56-19.52-4.85-19.44-5.07s8.88,1.68,19.69,4.26c10.8,2.58,19.5,4.85,19.44,5.07Z"/>
    <path class="cls-4" d="M906.33,766.61c.12.2-7.55,4.2-17.13,8.94s-17.48,8.41-17.6,8.19,7.55-4.22,17.13-8.94c9.58-4.73,17.48-8.39,17.6-8.19Z"/>
    <path class="cls-9" d="M739.36,468.35l7.26,9.11v-15.65h22.92s2.54,35.83,2.05,43.46c-.54,3.98-1.48,7.89-2.8,11.68-2.2,7.09-9.73,11.06-16.82,8.86-2.07-.64-3.95-1.77-5.48-3.29-2.57-2.5-4.96-5.16-7.16-7.98-10.23-13.1-27.09-45.02-27.09-45.02l17.68-10.56,9.45,9.39Z"/>
    <path class="cls-1" d="M737.91,466.67c.87,1.45,1.87,2.82,2.99,4.09,2.05,2.39,4.62,5.69,7.67,9.25,3.05,3.56,5.95,6.71,8.19,8.86,1.13,1.24,2.44,2.3,3.89,3.15-1.04-1.3-2.16-2.53-3.36-3.68-2.05-2.25-4.87-5.46-7.92-9.02-6.04-7.24-11.19-12.89-11.46-12.65Z"/>
    <polygon class="cls-9" points="791.63 358.28 815.8 348.78 860.3 346.27 881.22 354.23 852.55 370.15 827.83 369.25 791.63 358.28"/>
    <path class="cls-4" d="M763.12,585.63c2.19.37,148.01,6.57,148.01,6.57l-5.03-131.19-.43-25.74-8.19-77.99s-21.81-7.51-32.93-11.09c0,0-11.71,12.28-33.97,11.87-21.75-.31-26.3-5.22-26.3-5.22l-30.41,11.66s-21.63,7.76-25.35,17.33-10.23,62.52-10.23,62.52h31.53l-.84,94.07-5.87,47.21Z"/>
    <g class="cls-13">
      <polyline class="cls-2" points="854.82 410.62 859.34 443.69 881.22 453.45 897.38 439.68 897.38 408.99 854.82 410.62"/>
    </g>
    <path class="cls-8" d="M896.81,420.08c0,.27-9.09.49-20.3.49s-20.32-.23-20.32-.49c6.76-.51,13.54-.68,20.32-.51,6.77-.17,13.55,0,20.3.51Z"/>
    <path class="cls-8" d="M753.3,395.52c.1.29.19.58.25.88.14.65.33,1.47.57,2.52.79,3.16,1.76,6.27,2.91,9.31,1.45,3.91,3.5,8.51,6.02,13.67,2.52,5.16,4.52,11.32,6.75,17.86h0c0,7.86,0,16.37-.16,25.44-.2,20.05-.41,38.21-.53,51.45-.12,6.51-.2,11.81-.29,15.59,0,1.76-.04,3.17-.12,4.24,0,.49-.02.99-.1,1.47-.04-.5-.04-1,0-1.49,0-1.04,0-2.45,0-4.24v-15.59c0-13.24.16-31.39.27-51.43,0-8.98.16-17.58.23-25.44v.14c-2.19-6.55-4.3-12.63-6.59-17.84-2.19-4.49-4.14-9.1-5.85-13.79-1.11-3.07-2-6.22-2.68-9.41-.2-1.13-.37-2.05-.45-2.58-.09-.25-.16-.5-.2-.76Z"/>
    <path class="cls-8" d="M907.9,380.22c.07.93.07,1.87,0,2.8,0,2.05-.16,4.54-.29,7.61-.27,6.59-.61,15.39-1,25.11-.39,9.72-.84,18.54-1.13,25.13-.18,3.07-.33,5.63-.45,7.61,0,.93-.1,1.87-.29,2.78-.07-.93-.07-1.87,0-2.8,0-2.05,0-4.54.14-7.61.16-6.45.45-15.33.86-25.13s.86-18.7,1.27-25.11c.2-3.21.41-5.81.59-7.61.01-.93.11-1.87.29-2.78Z"/>
    <g class="cls-14">
      <path class="cls-2" d="M753.38,400.33c-.56,14.4,4.59,28.44,14.32,39.07-2.97-13.53-10.38-26.11-14.32-39.07Z"/>
    </g>
    <g class="cls-14">
      <path class="cls-2" d="M817.43,530.13c6.86-.91,13.11-4.39,17.5-9.74,4.62-5.16,8.57-10.87,11.77-17.01,4.13-8.35,6.47-17.46,6.88-26.77-8.49,22.78-20.93,40.78-36.14,53.51Z"/>
    </g>
    <path class="cls-8" d="M856.27,466.69c-.01.28-.05.56-.12.84-.14.65-.33,1.43-.53,2.37s-.53,2.27-.98,3.7c-.45,1.43-.88,3.07-1.53,4.85-1.43,4.19-3.11,8.29-5.03,12.28-4.7,9.77-10.72,18.84-17.91,26.95-2.93,3.31-6.08,6.43-9.41,9.33-1.37,1.29-2.74,2.31-3.91,3.25s-2.19,1.7-3.07,2.29l-2.05,1.37c-.47.29-.72.45-.74.41.18-.22.39-.41.61-.57l1.9-1.51c.84-.61,1.84-1.41,2.97-2.39s2.46-2.05,3.81-3.34c3.23-2.97,6.3-6.11,9.19-9.41,3.5-4.08,6.76-8.35,9.76-12.81,2.94-4.49,5.61-9.14,8.02-13.94,1.94-3.94,3.66-7.98,5.18-12.09.7-1.74,1.19-3.38,1.66-4.79s.86-2.64,1.15-3.64.49-1.68.7-2.31.31-.86.35-.84Z"/>
    <path class="cls-8" d="M852.06,425.64c-.03.45-.09.9-.18,1.35-.16.96-.39,2.23-.65,3.81s-.68,3.66-1.27,5.98-1.13,4.99-2.05,7.86c-.41,1.43-.86,2.95-1.33,4.52-.47,1.58-1.08,3.17-1.66,4.83-1.08,3.38-2.56,6.86-4.09,10.54-6.72,15.9-15.76,30.72-26.81,43.98-2.6,2.99-5.03,5.89-7.53,8.39-1.23,1.27-2.37,2.54-3.56,3.66s-2.31,2.23-3.42,3.25c-2.05,2.05-4.26,3.83-6.14,5.38s-3.4,2.84-4.75,3.85l-3.09,2.33c-.34.3-.71.55-1.11.76.3-.33.63-.63.98-.9l2.97-2.48c1.31-1.04,2.91-2.33,4.65-3.95,1.74-1.62,3.85-3.34,5.95-5.48l3.36-3.27c1.17-1.15,2.29-2.41,3.5-3.68,2.48-2.52,4.87-5.42,7.45-8.43,10.96-13.24,19.97-27.97,26.77-43.75,1.51-3.66,2.99-7.1,4.09-10.44.59-1.68,1.21-3.25,1.7-4.81s.94-3.05,1.39-4.48c.94-2.84,1.53-5.48,2.17-7.8.63-2.31,1.08-4.3,1.41-5.93s.63-2.8.84-3.77c.09-.45.23-.89.41-1.31Z"/>
    <path class="cls-3" d="M736.83,384.86l56.15,85.37c.77,1.16.46,2.72-.7,3.49-.51.34-1.13.48-1.73.4l-64.66-8.19c-.69-.1-1.31-.46-1.72-1.02l-61.76-84.35c-.86-1.1-.67-2.7.43-3.56.51-.4,1.15-.59,1.8-.53l66.53,4.91c2.33.21,4.43,1.5,5.67,3.48Z"/>
    <path class="cls-8" d="M736.83,384.86c-.14-.28-.31-.54-.51-.78-.57-.71-1.26-1.3-2.05-1.76-1.33-.7-2.81-1.05-4.32-1.04l-5.98-.49-38.35-3.01-12.71-.98-6.75-.51h-1.78c-.69.02-1.35.29-1.86.76-1.07.98-1.28,2.59-.49,3.81l17.97,24.66c12.69,17.33,26.6,36.38,41.23,56.4.94,1.25,1.78,2.46,2.8,3.77.31.35.71.61,1.15.78.4.14.82.22,1.25.25l2.29.29,9.04,1.15,17.68,2.21,33.44,4.09c.7,0,1.27.18,2.05.23.81,0,1.58-.31,2.15-.88.54-.55.85-1.28.88-2.05-.03-.75-.3-1.47-.78-2.05l-4.34-6.63-8.19-12.28-14.65-22.16c-8.96-13.49-16.21-24.43-21.26-32.03l-5.83-8.7c-.65-.94-1.17-1.7-1.56-2.23-.16-.27-.35-.52-.55-.76.14.28.3.56.47.82l1.45,2.29c1.31,2.05,3.21,5.01,5.65,8.8l21,32.23,14.55,22.22,8.19,12.38,4.26,6.49c.37.43.58.97.61,1.53-.02.54-.24,1.05-.61,1.43-.38.38-.9.59-1.43.59-.55,0-1.31-.16-1.94-.23l-33.5-4.28-17.68-2.23-9.04-1.15-2.27-.29c-.34-.03-.68-.09-1-.18-.29-.11-.55-.29-.76-.51-.9-1.23-1.8-2.44-2.7-3.68-14.65-19.97-28.65-39-41.3-56.34-6.36-8.64-12.38-16.86-18.03-24.56-.64-.93-.41-2.2.51-2.85.33-.23.72-.36,1.12-.36.47,0,1.13,0,1.68.1l6.75.49,12.73.9,38.47,2.66,6.02.41c1.47-.05,2.92.27,4.24.92,1.02.58,1.91,1.38,2.6,2.33Z"/>
    <path class="cls-8" d="M662.4,380.62c.44.11.89.18,1.35.2l3.93.41,14.61,1.29,49.69,4.09-.39-.23c3.11,4.62,6.32,9.41,9.54,14.32,13.12,20.16,24.56,38.7,33.21,51.88,4.3,6.61,7.88,11.89,10.38,15.53l2.91,4.09c.31.5.68.97,1.08,1.39-.27-.52-.57-1.03-.9-1.51l-2.74-4.28-10.09-15.7c-8.47-13.28-19.83-31.86-32.95-52.04-3.21-4.97-6.45-9.76-9.58-14.32l-.14-.2h-.14l-49.71-3.68-14.63-.98-3.95-.23c-.49-.05-.98-.06-1.47-.04Z"/>
    <path class="cls-12" d="M700.89,393.66c.16-.69.85-1.13,1.54-.98.02,0,.04,0,.06.01.66.15,1.26.48,1.74.96.63.57.76,1.51.31,2.23-.63.8-2.05.49-2.74-.16-.64-.49-.98-1.27-.9-2.07Z"/>
    <path class="cls-9" d="M731.1,441.5s2.54-6.14-3.93-6.88c-7.82-.41-15.65-.41-23.47,0,0,0-9.31.98-7.35,7.65,0,0-5.48,4.91-2.54,10.23,2.95,5.32,4.09,3.72,4.09,3.72,0,0-.78,6.49,4.09,7.45,0,0,5.32,6.28,10.23,5.89,4.91-.39,25.68-10.4,27.05-12.28,1.37-1.88,3.34-3.07,2.17-5.26,0,0,2.54-5.75-2.95-6.63.04-.1-.35-4.87-7.41-3.91Z"/>
    <path class="cls-1" d="M701.59,443.69c1.44.3,2.91.41,4.38.33h10.54c3.54.1,7.09-.1,10.6-.61,2.78-.65,3.89-2.29,3.77-2.33-1.2.76-2.53,1.3-3.93,1.58-2.56.43-6.34.16-10.46.31s-7.84.18-10.54.31c-1.46-.03-2.93.11-4.36.43Z"/>
    <path class="cls-1" d="M706.21,453.52c.43.25.91.41,1.41.47,1.35.27,2.72.36,4.09.27,2-.15,3.97-.52,5.89-1.08,2.17-.59,4.48-1.43,6.92-2.17,2.26-.75,4.6-1.24,6.98-1.45,2.05.19,4.11-.22,5.93-1.19.71-.48,1.21-1.21,1.41-2.05.13-.62.04-1.27-.25-1.84-.51-.92-1.21-.98-1.19-.94s.49.29.8,1.13c.41,1.18-.11,2.47-1.21,3.05-1.75.77-3.67,1.06-5.57.84-2.46.15-4.89.62-7.22,1.39l-6.88,2.27c-1.86.58-3.76,1-5.69,1.27-1.81.12-3.63.14-5.44.04Z"/>
    <path class="cls-1" d="M713.17,461.8c1.49-.09,2.96-.37,4.38-.84,2.66-.68,6.3-1.72,10.23-3.01,3.93-1.29,7.53-2.62,10.07-3.66,1.44-.45,2.82-1.09,4.09-1.9-.12-.29-6.51,2.05-14.32,4.52-7.82,2.48-14.53,4.6-14.45,4.89Z"/>
    <path class="cls-1" d="M711.51,469.5c1.22.11,2.45-.03,3.62-.41,2.85-.69,5.63-1.67,8.29-2.93,3.11-1.41,5.83-2.86,7.8-3.91,1.12-.47,2.17-1.11,3.11-1.88-3.92,1.27-7.72,2.88-11.36,4.81-6.12,2.95-11.5,4.01-11.46,4.32Z"/>
    <path class="cls-9" d="M918.24,410.99s-13.22,52.96-29.73,72.52c-16,18.95-41.07,10.23-49.75-14.32-8.68-24.56-24.15-80.44-24.15-80.44l18.99-14.53,32.74,63.62,14.8-43.36,37.1,16.51Z"/>
    <path class="cls-9" d="M815.49,390.26l-13.94-20.2c-2.03-.44-4.01-1.05-5.93-1.84-1.58-.92-3.13-8.94-3.09-10.5s-2.7-5.22-1.6-6.26c1.11-1.04,4.83-1.11,4.62-2.6,0-.33-2.76-3.68-.59-6.14,1.2-.79,2.53-1.35,3.93-1.66l-.23-7.71s4.09-9.09,8.41-5.79c0,0,16.02,12.28,17.64,14.32,1.62,2.05,7.8,27.61,8.88,32.41"/>
    <path class="cls-1" d="M833.6,374.26c-.02-.46-.09-.91-.2-1.35-.23-.98-.49-2.25-.84-3.85-.74-3.36-1.86-8.19-3.38-14.14-.78-2.99-1.62-6.14-2.7-9.72-.27-.86-.55-1.74-.92-2.64-.42-.92-1.07-1.71-1.88-2.31-1.47-1.29-3.01-2.56-4.58-3.85-3.17-2.56-6.55-5.22-10.05-7.94-.88-.79-1.88-1.44-2.95-1.94-1.27-.3-2.61.02-3.6.86-1.83,1.59-3.29,3.56-4.28,5.77h0v2.48c0,1.8,0,3.6.16,5.36l.37-.49c-.97.23-1.91.55-2.82.94-.51.21-.97.52-1.37.9-.35.41-.62.89-.78,1.41-.26,1.02-.18,2.1.25,3.07.17.46.38.91.63,1.33l.35.59v.14h0s0,.1,0,.14c0,.16-.41.41-.8.55s-.82.29-1.25.43c-.44.12-.88.26-1.31.43-.54.15-1.01.49-1.33.94-.21.52-.21,1.11,0,1.64.12.44.28.87.47,1.29.35.82.74,1.6,1.02,2.35.15.34.23.71.25,1.08,0,.44.05.88.12,1.31.12.84.27,1.66.45,2.48.32,1.58.75,3.13,1.29,4.65.26.79.68,1.52,1.23,2.15.67.43,1.4.76,2.17.96,1.41.43,2.8.78,4.09,1.08l-.23-.14,10.23,14.65,2.86,3.97c.32.48.67.93,1.06,1.35-.26-.51-.56-1-.88-1.47l-2.7-4.09c-2.44-3.62-5.85-8.68-10.05-14.86v-.12h.02c-1.31-.33-2.68-.7-4.09-1.13-.66-.19-1.28-.46-1.86-.82-.44-.54-.77-1.16-.98-1.82-.52-1.48-.93-3-1.23-4.54-.16-.8-.31-1.6-.43-2.41v-1.19c-.02-.48-.11-.95-.29-1.39-.31-.84-.7-1.62-1.02-2.41-.18-.37-.32-.77-.43-1.17-.11-.3-.11-.64,0-.94.24-.24.53-.42.86-.51.41-.16.82-.3,1.25-.41.43-.14.88-.27,1.33-.45.56-.17,1.03-.56,1.31-1.08.07-.17.11-.35.1-.53,0-.13-.04-.26-.1-.37v-.16l-.35-.59c-.22-.39-.41-.79-.57-1.21-.33-.77-.4-1.62-.2-2.44.11-.39.3-.76.57-1.06.31-.27.66-.49,1.04-.63.86-.37,1.75-.67,2.66-.9l.37-.1v-.39c0-1.76-.1-3.54-.16-5.34v-2.35.23c.91-2.07,2.26-3.91,3.95-5.4.74-.68,1.77-.95,2.74-.72.95.47,1.84,1.06,2.64,1.76,3.52,2.72,6.9,5.36,10.07,7.9,1.6,1.27,3.13,2.52,4.58,3.77.74.52,1.32,1.23,1.7,2.05.35.84.63,1.72.92,2.56,1.08,3.44,2.05,6.69,2.78,9.64,1.53,5.87,2.8,10.64,3.68,14.06.43,1.58.76,2.84,1,3.81-.04.44-.03.89.02,1.33Z"/>
    <path class="cls-1" d="M798.89,341.07c0,.16,1.62,0,4.09.29,1.48.23,2.95.56,4.38,1,1.88.27,3.79.27,5.67,0,3.27-.46,6.57.61,8.94,2.91.91,1.01,1.63,2.16,2.15,3.42.02-1.47-.57-2.89-1.64-3.91-1.06-1.17-2.38-2.09-3.85-2.68-1.8-.7-3.75-.95-5.67-.72-1.8.22-3.62.22-5.42,0-1.48-.41-2.99-.68-4.52-.8-1.4-.11-2.8.06-4.13.49Z"/>
    <path class="cls-1" d="M804.56,340.64c.23.12.88-.82.8-2.15-.08-1.33-.84-2.17-1.04-2.05s0,1.02,0,2.05-.02,2.05.25,2.15Z"/>
    <path class="cls-1" d="M795.07,349.15c4.05.39,8.13.07,12.07-.94,1.43-.47,2.94-.66,4.44-.57,1.16.26,2.19.93,2.89,1.9.6.96,1.14,1.97,1.6,3.01.07-1.24-.28-2.47-1-3.48-.74-1.19-1.91-2.04-3.27-2.37-1.62-.19-3.27-.03-4.83.47-6.49,1.47-11.89,1.7-11.89,1.98Z"/>
    <path class="cls-1" d="M792.94,356.44c.98.23,1.99.23,2.97,0,1.82-.2,4.28-.84,6.94-1.37,1.23-.27,2.49-.4,3.74-.37.98.02,1.92.36,2.68.98.68.63,1.14,1.45,1.33,2.35,0,0,.18-.27.16-.82-.08-.78-.44-1.5-1-2.05-.83-.82-1.93-1.3-3.09-1.37-1.37-.09-2.75,0-4.09.31-2.74.53-5.12,1.27-6.88,1.64-.94.14-1.87.37-2.76.7Z"/>
    <path class="cls-1" d="M797.64,362.21c-.16.12,1.21,1.56,3.7,1.56l-.49-.43c0,.43,0,.86.14,1.29.07,1.75.45,3.48,1.15,5.1.27-1.73.22-3.49-.16-5.2l-.18-1.29v-.45h-.43c-1.26-.05-2.51-.24-3.72-.57Z"/>
    <path class="cls-4" d="M897.32,357.36s27.07,6.55,27.01,42.46c-.06,35.91-8.19,53.64-8.19,53.64l-49.91-27.24,11.21-27.89,19.87-40.97Z"/>
    <path class="cls-8" d="M916.15,453.45c-.36-.1-.7-.26-1.02-.45l-2.91-1.47-10.64-5.61-35.59-19.17-.41-.2.16-.43,2.68-7c3.19-8.29,6.14-16.19,9-23.37,1.39-3.58,2.7-7,3.95-10.23,1.09-3,2.41-5.92,3.95-8.72,2.06-4.19,5.16-7.78,9-10.42,1.08-.68,2.27-1.15,3.52-1.41.32-.07.64-.11.96-.12h.35c-1.64.34-3.2.98-4.6,1.88-3.69,2.7-6.64,6.29-8.57,10.44-1.47,2.79-2.74,5.68-3.79,8.66-1.21,3.21-2.5,6.63-3.87,10.23l-8.92,23.41-2.68,7-.25-.65,35.52,19.5,10.48,5.89,2.8,1.64c.31.17.6.38.86.61Z"/>
  </g>
</svg>