<?xml version="1.0" encoding="UTF-8"?>
<svg id="Layer_2" data-name="Layer 2" xmlns="http://www.w3.org/2000/svg" viewBox="0 0 1000 1000">
  <defs>
    <style>
      .cls-1, .cls-2, .cls-3, .cls-4, .cls-5, .cls-6, .cls-7, .cls-8, .cls-9, .cls-10, .cls-11, .cls-12, .cls-13, .cls-14, .cls-15, .cls-16 {
        stroke-width: 0px;
      }

      .cls-1, .cls-13 {
        fill: #000;
      }

      .cls-2, .cls-15 {
        fill: #e0e0e0;
      }

      .cls-17 {
        opacity: .2;
      }

      .cls-3 {
        fill: #eb996e;
      }

      .cls-4 {
        fill: #455a64;
      }

      .cls-5 {
        fill: #f5f5f5;
      }

      .cls-6 {
        fill: #09f;
      }

      .cls-7 {
        fill: #ffbe9d;
      }

      .cls-8, .cls-16 {
        fill: #ebebeb;
      }

      .cls-9 {
        fill: none;
      }

      .cls-10 {
        fill: #44baff;
      }

      .cls-11 {
        fill: #263238;
      }

      .cls-12 {
        fill: #fafafa;
      }

      .cls-18 {
        opacity: .3;
      }

      .cls-13 {
        isolation: isolate;
      }

      .cls-13, .cls-19 {
        opacity: .4;
      }

      .cls-20 {
        opacity: .6;
      }

      .cls-14 {
        fill: #fff;
      }

      .cls-15, .cls-16 {
        fill-rule: evenodd;
      }
    </style>
  </defs>
  <g id="freepik--background-complete--inject-2">
    <path class="cls-9" d="M743.4,526.97c-4.89,1.5-9.96,2.35-15.08,2.52l-6.18,12.82-22.94-5.32v-14.24c-4.55-2.4-8.76-5.4-12.52-8.92l-13.44,4.7-12.45-19.99,10.1-10.02c-1.51-4.89-2.36-9.96-2.52-15.08l-12.82-6.18,5.23-23.09h14.24c2.4-4.54,5.4-8.75,8.92-12.5l-4.7-13.36,19.99-12.47,10.02,10.1c4.89-1.5,9.96-2.35,15.08-2.52l6.2-12.82,22.94,5.32v14.24c4.55,2.4,8.75,5.4,12.49,8.92l13.44-4.7,12.47,19.99-10.1,10.02c1.5,4.89,2.35,9.96,2.52,15.08l12.82,6.18-5.3,22.96h-14.24c-2.41,4.54-5.41,8.74-8.92,12.5l4.67,13.44-19.97,12.47-9.97-10.06ZM738.82,493.47c11.84-7.39,15.45-22.98,8.06-34.82-7.39-11.84-22.98-15.45-34.82-8.06-11.84,7.39-15.45,22.98-8.06,34.82,0,0,0,0,0,0,7.38,11.82,22.94,15.43,34.77,8.06h.04Z"/>
    <path class="cls-2" d="M738.77,493.47c-1.68,1.26-3.56,2.23-5.56,2.87-5.5,1.9-11.49,1.82-16.93-.22-3.78-1.38-7.17-3.63-9.91-6.57-3.15-3.4-5.33-7.58-6.31-12.11-.55-2.44-.73-4.94-.52-7.43.18-2.6.77-5.16,1.74-7.58,4.17-10.55,14.74-17.15,26.05-16.27,5.12.4,10.01,2.31,14.05,5.49,3.64,2.87,6.43,6.67,8.1,10.99,1.45,3.75,1.98,7.79,1.57,11.78-.58,5.79-3.14,11.2-7.26,15.32-1.46,1.51-3.15,2.77-5.02,3.73,1.62-1.27,3.17-2.63,4.63-4.07,3.84-4.14,6.18-9.45,6.64-15.08.34-3.83-.23-7.68-1.66-11.25-1.63-4.09-4.32-7.68-7.8-10.38-1.86-1.46-3.93-2.64-6.14-3.49-2.3-.92-4.73-1.47-7.2-1.62-10.68-.81-20.65,5.41-24.62,15.36-.93,2.29-1.5,4.71-1.68,7.17-.22,2.36-.07,4.73.43,7.04,1.72,8.2,7.47,14.98,15.27,18.01,5.25,2.04,11.03,2.26,16.42.62,3.88-1.18,5.62-2.48,5.71-2.33Z"/>
    <path class="cls-2" d="M743.4,526.97l.65.58,1.94,1.87,7.58,7.48h-.28l19.91-12.6-.15.43c-1.44-4.05-3.04-8.62-4.74-13.42v-.24l.17-.19c3.49-3.72,6.45-7.91,8.81-12.43l.13-.26h14.54l-.52.39c1.66-7.22,3.43-14.91,5.26-22.96l.3.65-12.82-6.16-.32-.15v-.37c-.17-5.12-1.01-10.19-2.52-15.08l-.11-.37.26-.26c3.15-3.1,6.59-6.46,10.1-10.04v.82l-12.75-19.88.8.28-13.42,4.7-.41.13-.3-.28c-3.71-3.47-7.86-6.43-12.34-8.81l-.39-.19v-14.67l.56.71-22.86-5.28.82-.39-6.2,12.93-.17.39h-.45c-5.06.16-10.08,1-14.93,2.48h0l-.73-.19h0l-.15-.15-.32-.32-.62-.65-1.25-1.27-2.52-2.52-5-5.04.9.11-19.99,12.47.3-.86c1.57,4.52,3.12,9.01,4.67,13.44l.15.41-.3.32c-3.48,3.7-6.45,7.85-8.81,12.34l-.22.37h-14.65l.67-.54c-1.81,7.81-3.58,15.46-5.32,22.94l-.37-.75,12.82,6.2.34.17v.39c.14,5.12.97,10.19,2.48,15.08l.11.37-.28.26-10.13,10v-.75l12.43,20.01-.65-.22,13.44-4.65.3-.11.24.22c3.71,3.49,7.87,6.48,12.37,8.88l.26.13v.3c0,5.17,0,9.82-.11,14.22l-.34-.41,22.92,5.41-.37.17,6.29-12.78v-.13h.13c3.86-.11,7.69-.58,11.46-1.42l2.78-.67.93-.19-.9.32c-.6.19-1.51.47-2.76.78-3.76.95-7.61,1.5-11.48,1.66l.19-.15-6.1,12.93-.13.24h-.24l-22.99-5.19h-.32v-14.58l.24.43c-4.59-2.41-8.83-5.43-12.62-8.96l.52.11-13.42,4.72-.41.15-.24-.37-12.52-19.97-.26-.41.34-.34,10.08-10.02-.15.62c-1.54-4.97-2.4-10.12-2.56-15.32l.37.56-12.93-6.16-.47-.24.11-.52,5.36-23.46.11-.54h14.8l-.62.37c2.43-4.6,5.47-8.86,9.03-12.67l-.15.73c-1.55-4.44-3.12-8.92-4.7-13.44l-.19-.54.5-.3,19.97-12.47.5-.32.41.41,5,5.04,2.5,2.54,1.27,1.27.62.65.32.3.15.17h0c-1.46-.37-.41-.11-.73-.19h0c4.97-1.52,10.12-2.38,15.32-2.54l-.62.41,6.2-12.93.24-.52.56.13,22.94,5.3.56.13v14.82l-.37-.62c4.6,2.43,8.85,5.47,12.65,9.03l-.69-.15,13.44-4.65.5-.19.3.47,12.45,19.99.26.43-.37.37c-3.51,3.49-6.98,6.89-10.13,10l.17-.62c1.51,4.97,2.36,10.12,2.52,15.32l-.34-.52,12.82,6.23.41.19-.11.43c-1.87,8.06-3.68,15.73-5.36,22.94v.41h-14.65l.41-.26c-2.43,4.57-5.47,8.8-9.03,12.56v-.43c1.68,4.85,3.23,9.39,4.63,13.46l.11.28-.26.15-20.06,12.37h-.15l-.13-.13-7.35-7.58-1.87-1.98c-.18-.15-.34-.3-.5-.47Z"/>
    <path class="cls-15" d="M790.26,356.52c-6.95,2.14-14.15,3.34-21.41,3.58l-8.77,18.12-32.44-7.5v-20.14c-6.43-3.39-12.38-7.63-17.69-12.6l-19,6.64-17.62-28.26,14.28-14.15c-2.14-6.95-3.33-14.16-3.55-21.44l-18.14-8.75,7.6-32.51h20.12c3.4-6.43,7.65-12.38,12.62-17.69l-6.64-18.94,28.26-17.62,14.15,14.28c6.95-2.14,14.15-3.33,21.41-3.55l8.77-18.14,32.44,7.52v20.12c6.42,3.4,12.36,7.64,17.67,12.6l19-6.61,17.64,28.24-14.33,14.26c2.15,6.94,3.36,14.15,3.58,21.41l18.12,8.77-7.5,32.44h-20.12c-3.41,6.42-7.65,12.36-12.62,17.67l6.64,19-28.33,17.64-14.15-14.3v-.09ZM783.8,309.13c16.74-10.45,21.84-32.5,11.39-49.24-10.45-16.74-32.5-21.84-49.24-11.39-16.74,10.45-21.84,32.49-11.39,49.24,10.42,16.76,32.46,21.9,49.22,11.48,0,0,.02,0,.02-.01v-.06Z"/>
    <path class="cls-16" d="M866.7,463.85c-3.7,1.13-7.53,1.77-11.4,1.9l-4.65,9.63-17.23-3.99v-10.77c-3.42-1.81-6.59-4.06-9.41-6.7l-10.1,3.51-9.37-15.08,7.6-7.52c-1.15-3.69-1.79-7.53-1.9-11.4l-9.65-4.67,3.99-17.23h10.77c1.82-3.41,4.08-6.57,6.72-9.39l-3.53-10.1,15.08-9.39,7.54,7.6c3.7-1.13,7.53-1.77,11.4-1.9l4.65-9.65,17.23,4.01v10.77c3.42,1.8,6.58,4.06,9.39,6.7l10.13-3.51,9.37,15.08-7.6,7.54c1.15,3.69,1.79,7.53,1.9,11.4l9.65,4.65-3.99,17.23h-10.77c-1.82,3.42-4.08,6.59-6.72,9.41l3.53,10.1-15.08,9.39-7.54-7.6v-.02ZM863.27,438.66c8.92-5.56,11.64-17.29,6.09-26.2-5.56-8.92-17.29-11.64-26.2-6.09-8.92,5.56-11.64,17.29-6.09,26.2,0,0,0,0,0,.01,5.56,8.91,17.28,11.63,26.2,6.08Z"/>
    <path class="cls-2" d="M205.6,273.21c.24.22-9.87,10.58-22.56,23.12-12.69,12.54-23.14,22.53-23.35,22.32s9.89-10.58,22.58-23.12c12.69-12.54,23.12-22.53,23.33-22.32Z"/>
    <path class="cls-2" d="M205.71,318.54c-.22.22-10.77-9.74-23.44-22.21-12.67-12.47-22.9-22.77-22.68-23.01s10.77,9.72,23.46,22.21c12.69,12.5,22.9,22.77,22.66,23.01Z"/>
    <path class="cls-2" d="M251.3,559.93c0,.3-12.93-.82-28.78-2.48-15.86-1.66-28.7-3.3-28.67-3.6s12.93.8,28.78,2.48,28.72,3.27,28.67,3.6Z"/>
    <path class="cls-2" d="M249.01,581.56c0,.3-12.93-.8-28.78-2.48s-28.72-3.27-28.67-3.58,12.93.8,28.78,2.46,28.72,3.3,28.67,3.6Z"/>
    <path class="cls-8" d="M93.66,512.43s-17.06-1.23-15.49,37.05c1.57,38.28,5.47,58.64,5.47,58.64,0,0-.5,8.49-7.07,6.83-6.57-1.66-18.94-9.93-25.05-3.75-6.12,6.18-4.07,16.22,4.31,27.79,8.38,11.57,25.85,37.57,27.45,39.92,1.59,2.35,2.15,6.66-2.5,6.25s-36.11-11.07-40.26,4.16c-4.16,15.23,24.54,43.52,27.62,46.75s3.25,5.17,2,7.09-11.48-2.67-20.55-5.34c-9.07-2.67-20.06-4.16-21.72,4.83-1.66,8.98,10.97,35.27,58.3,62.91l22.77,11.31,21.54-13.74c44.31-32.31,54.27-59.65,51.7-68.44-2.56-8.79-13.34-6.18-22.08-2.61-8.75,3.58-18.48,9.13-19.91,7.35-1.42-1.79-1.46-3.77,1.27-7.24,2.74-3.47,28.46-34.47,22.79-49.29-5.67-14.82-35.89-.97-40.48,0s-4.31-3.51-3.1-5.97,16.09-30.16,23.31-42.48c7.22-12.32,8.44-22.34,1.51-28.01s-18.23,3.83-24.52,6.14c-6.29,2.31-7.71-6.08-7.71-6.08,0,0,1.83-20.68-.43-58.9s-19.52-35.16-19.52-35.16"/>
    <path class="cls-2" d="M94.96,546.7c.02.27.02.53,0,.8,0,.58,0,1.36.17,2.35.15,2.15.34,5.15.62,9.05.52,7.84,1.18,19.22,1.96,33.24,1.55,28.01,3.38,66.91,5.26,109.87,1.87,42.96,3.6,81.71,5,109.87.71,14,1.29,25.38,1.7,33.26.19,3.9.34,6.94.45,9.05v2.35c.01.27.01.53,0,.8v-.8c0-.54,0-1.34-.17-2.35-.15-2.15-.37-5.13-.62-9.03-.52-7.84-1.18-19.22-1.96-33.26-1.57-28.01-3.38-66.89-5.26-109.87-1.87-42.98-3.6-81.69-5.02-109.87-.71-14.02-1.29-25.38-1.68-33.26-.19-3.9-.34-6.94-.45-9.05v-2.35c0-.56,0-.8,0-.8Z"/>
    <path class="cls-2" d="M68.37,623.44c.51.34.98.74,1.4,1.18.88.8,2.15,1.98,3.62,3.47,2.99,2.97,7.04,7.2,11.42,11.93l11.14,12.19,3.38,3.66c.46.42.85.9,1.18,1.42-.51-.34-.99-.73-1.42-1.16-.86-.82-2.15-2-3.6-3.51-2.97-2.99-7-7.26-11.31-12l-11.22-12.11-3.4-3.66c-.46-.42-.86-.89-1.18-1.42Z"/>
    <path class="cls-2" d="M102.78,656.55c-.17-.17,8.16-8.9,18.59-19.39,10.43-10.49,19.07-19.04,19.24-18.87s-8.16,8.9-18.61,19.39c-10.45,10.49-19.04,19.04-19.22,18.87Z"/>
    <path class="cls-2" d="M102.69,722.54c.48-.4,1.01-.74,1.57-1.01l4.46-2.5c3.77-2.15,8.94-5.04,14.54-8.49s10.58-6.72,14.15-9.11l4.31-2.82c.5-.39,1.04-.71,1.62-.97-.43.46-.9.87-1.42,1.23-.95.75-2.35,1.81-4.09,3.08-3.51,2.52-8.44,5.9-14.07,9.33-5.62,3.43-10.77,6.31-14.69,8.29-1.94.97-3.49,1.74-4.59,2.26-.57.29-1.17.53-1.79.71Z"/>
    <path class="cls-2" d="M64.97,699.44c.55.17,1.08.42,1.57.73.99.52,2.39,1.31,4.14,2.31,3.45,1.96,8.21,4.74,13.44,7.84,5.23,3.1,9.93,5.97,13.31,8.08l3.99,2.52c.51.28.98.63,1.4,1.03-.55-.19-1.08-.43-1.57-.73-.97-.54-2.39-1.31-4.11-2.31-3.47-1.96-8.23-4.74-13.46-7.84-5.23-3.1-9.93-5.97-13.31-8.08l-3.99-2.48c-.51-.3-.98-.66-1.4-1.08Z"/>
    <path class="cls-2" d="M57.49,757.68c.69.26,1.35.59,1.98.97l5.32,2.93c4.46,2.5,10.6,6.01,17.23,9.93,6.64,3.92,12.82,7.5,17.23,10.15l5.17,3.17c.65.36,1.26.78,1.83,1.25-.71-.24-1.38-.56-2-.97l-5.3-2.91c-4.46-2.5-10.58-6.01-17.23-9.93-6.66-3.92-12.82-7.52-17.23-10.15l-5.15-3.17c-.67-.34-1.29-.77-1.85-1.27Z"/>
    <path class="cls-2" d="M105.32,785.08c.6-.53,1.27-.97,1.98-1.34l5.52-3.36c4.67-2.87,11.12-6.81,18.1-11.37,6.98-4.57,13.23-8.83,17.73-11.96l5.32-3.68c.61-.51,1.28-.93,2-1.27-.55.57-1.16,1.08-1.81,1.53-1.21.97-2.97,2.31-5.17,3.94-4.31,3.25-10.58,7.63-17.58,12.17-7,4.55-13.51,8.44-18.27,11.16-2.39,1.36-4.31,2.43-5.69,3.15-.68.4-1.4.75-2.13,1.03Z"/>
    <polygon class="cls-2" points="139.53 824.37 76.54 824.37 97.09 980 118.98 980 139.53 824.37"/>
    <path class="cls-5" d="M79.88,843.5s0,.22.32.54c.41.48.94.86,1.53,1.1,2.23.76,4.68.46,6.66-.82,2.54-1.4,4.76-4.16,8.16-5.39,3.78-1.21,7.86-1.13,11.59.24,3.79,1.3,7.4,3.05,10.77,5.21,2.8,1.79,5.71,3.39,8.72,4.78,2.06.92,4.23,1.55,6.46,1.87.61.09,1.22.13,1.83.13h.62c-2.98-.46-5.88-1.34-8.62-2.61-2.96-1.46-5.84-3.08-8.62-4.85-3.41-2.26-7.1-4.07-10.97-5.41-3.95-1.43-8.26-1.48-12.24-.13-1.68.69-3.23,1.65-4.59,2.84-1.14,1.01-2.35,1.95-3.62,2.8-1.78,1.24-4.02,1.63-6.12,1.06-.72-.33-1.37-.8-1.92-1.38Z"/>
    <path class="cls-5" d="M82.03,872.16s.5-.65,1.46-1.66c1.43-1.42,3.15-2.51,5.04-3.21,2.81-1.01,5.79-1.46,8.77-1.31,3.67.28,7.33.79,10.94,1.51,3.7.71,7.48.86,11.22.45,3.05-.39,6.03-1.24,8.83-2.52,1.92-.85,3.74-1.9,5.43-3.15.63-.42,1.2-.94,1.68-1.53-2.33,1.5-4.76,2.84-7.28,4.01-2.76,1.11-5.66,1.84-8.62,2.15-3.65.36-7.34.18-10.94-.54-3.66-.72-7.37-1.2-11.09-1.42-3.1-.1-6.19.44-9.07,1.59-1.95.77-3.68,2.01-5.04,3.6-.36.44-.69.91-.97,1.4-.24.43-.37.6-.37.62Z"/>
    <path class="cls-5" d="M132.4,887.49c-.52-.4-1.12-.7-1.74-.88-1.67-.63-3.43-1.01-5.21-1.12-2.64-.18-5.29-.02-7.88.45-2.95.47-6.1,1.27-9.39,1.98-3.08.72-6.23,1.08-9.39,1.06-2.56-.07-5.09-.62-7.45-1.62-2.16-1.03-4.08-2.5-5.64-4.31.25.61.61,1.17,1.08,1.64,1.2,1.36,2.66,2.46,4.31,3.23,2.42,1.14,5.04,1.79,7.71,1.9,3.24.08,6.48-.25,9.63-.99,3.36-.71,6.46-1.55,9.35-2.15,2.53-.5,5.11-.73,7.69-.67,2.37.22,4.71.71,6.96,1.49Z"/>
    <path class="cls-5" d="M87.68,909.08c1.93-.82,4.07-1.04,6.12-.6,2.24.54,4.41,1.34,6.46,2.37,2.6,1.26,5.41,2.04,8.29,2.31,5.27.45,10.55-.77,15.08-3.49,1.31-.83,2.53-1.8,3.64-2.89.75-.82,1.16-1.29,1.1-1.34-1.67,1.29-3.41,2.49-5.21,3.58-4.45,2.46-9.54,3.54-14.61,3.1-5.97-.34-10.56-3.9-14.69-4.31-1.59-.27-3.22-.12-4.74.43-1.03.34-1.49.82-1.44.84Z"/>
    <path class="cls-5" d="M91.19,938.96c1.81.04,3.6-.32,5.26-1.06,3.17-1.06,7.07-3.47,11.65-5.3,2.13-.86,4.4-1.33,6.7-1.4,1.86,0,3.69.42,5.36,1.23,1.53.82,2.87,1.96,3.9,3.36-.08-.49-.29-.95-.6-1.34-.76-1.11-1.77-2.02-2.95-2.67-1.75-.97-3.71-1.49-5.71-1.53-2.42,0-4.82.48-7.07,1.4-4.74,1.87-8.62,4.31-11.57,5.58s-5,1.55-4.98,1.72Z"/>
    <path class="cls-5" d="M94.27,952.86c1.26.61,2.6,1.05,3.99,1.29,3.28.79,6.61,1.35,9.97,1.68,3.36.33,6.73.43,10.1.3,1.41.03,2.82-.14,4.18-.5,0-.32-6.46,0-14.18-.82-7.71-.82-13.98-2.24-14.07-1.96Z"/>
  </g>
  <g id="freepik--Floor--inject-2">
    <path class="cls-11" d="M978.81,977.48c0,.32-214.4.56-478.8.56s-478.82-.24-478.82-.56,214.33-.56,478.82-.56,478.8.26,478.8.56Z"/>
  </g>
  <g id="freepik--Character--inject-2">
    <path class="cls-7" d="M291.78,304.13s5.86-35.14,7.26-37.81c1.4-2.67,17.58-19.09,19.5-19.39s27.45-8.36,26.02-4.31c-1.42,4.05-19.39,9.35-19.39,9.35l-1.7,2.15s15.32-5,19.11-4.87,4.14,3.77,1.4,4.8-16.22,4.98-16.74,5.84,15.08-3.6,16.98-3.51c2.63.11,4.52,3.43,1.85,4.57-1.59.65-16.59,4.09-16.59,4.09,4.62-.61,9.28-.97,13.94-1.08,2.31.62,2.15,3.43-.43,4.09-1.74.45-10.9.86-13.23,1.49,0,0-1.74,1.46-1.68,6.12.06,4.65-5.97,17-5.97,17l-30.33,11.46Z"/>
    <path class="cls-3" d="M344.53,242.51c-1.03,1.32-2.3,2.42-3.75,3.25-1.51,1.02-3.11,1.9-4.78,2.63-1.9.71-4.01,1.44-6.2,2.15l-4.72,1.59.26-.15c-2.69,2.92-5.61,5.62-8.72,8.08,2.4-3.14,5.03-6.1,7.88-8.83v-.11h.15l4.65-1.64,6.18-2.15c1.63-.66,3.22-1.44,4.74-2.33,2.71-1.44,4.2-2.65,4.31-2.5Z"/>
    <path class="cls-6" d="M684.68,690.01l-347.75-35.83c-10.61-1.13-18.31-10.62-17.23-21.24L379.86,48.3c1.57-15.09,15.06-26.07,30.16-24.54l331.59,34.15c15.09,1.57,26.07,15.06,24.54,30.16l-60.32,584.64c-1.1,10.6-10.55,18.33-21.16,17.3Z"/>
    <path class="cls-13" d="M684.68,690.01l-347.75-35.83c-10.61-1.13-18.31-10.62-17.23-21.24L379.86,48.3c1.57-15.09,15.06-26.07,30.16-24.54l331.59,34.15c15.09,1.57,26.07,15.06,24.54,30.16l-60.32,584.64c-1.1,10.6-10.55,18.33-21.16,17.3Z"/>
    <path class="cls-10" d="M649.58,686.39l-347.81-35.8c-10.62-1.13-18.33-10.64-17.23-21.26L344.86,44.68c1.55-15.1,15.05-26.09,30.15-24.54,0,0,0,0,0,0l331.51,34.08c15.1,1.55,26.09,15.05,24.54,30.15,0,0,0,0,0,0l-60.32,584.66c-1.08,10.62-10.53,18.37-21.16,17.34Z"/>
    <rect class="cls-6" x="380.92" y="484.37" width="57.86" height="130.98" rx="5.21" ry="5.21" transform="translate(-179.1 901.23) rotate(-84.12)"/>
    <g class="cls-19">
      <rect class="cls-1" x="380.92" y="484.37" width="57.86" height="130.98" rx="5.21" ry="5.21" transform="translate(-179.1 901.23) rotate(-84.12)"/>
    </g>
    <rect class="cls-12" x="462.33" y="1.29" width="130.23" height="331.98" transform="translate(307 674.81) rotate(-84.12)"/>
    <path class="cls-11" d="M685.91,249.06s0-.8.19-2.31c.19-1.51.37-3.77.65-6.7.58-5.9,1.44-14.56,2.56-25.74,2.15-22.34,5.49-54.68,9.54-94.79l.34.43-330.23-33.89h0l.62-.5c-4.67,45.24-9.2,89.08-13.38,129.54l-.47-.6,236.65,24.65,68.72,7.22,18.42,1.98,4.76.52,1.64.19s-.54,0-1.59-.13l-4.7-.45-18.31-1.81-68.72-6.92-236.97-24.17h-.54v-.52c4.16-40.48,8.62-84.26,13.31-129.56v-.56h.56l330.32,34.19h.39v.39c-4.31,40.22-7.65,72.64-10,95.03-1.18,11.12-2.15,19.76-2.74,25.61-.32,2.91-.56,5.13-.73,6.64l-.3,2.26Z"/>
    <rect class="cls-6" x="365.76" y="271.32" width="56.42" height="56.42" rx="4.48" ry="4.48" transform="translate(55.65 660.75) rotate(-84.12)"/>
    <g class="cls-19">
      <rect class="cls-1" x="365.76" y="271.32" width="56.42" height="56.42" rx="4.48" ry="4.48" transform="translate(55.65 660.75) rotate(-84.12)"/>
    </g>
    <rect class="cls-11" x="357.11" y="270.44" width="56.42" height="56.42" rx="4.48" ry="4.48" transform="translate(48.76 651.35) rotate(-84.12)"/>
    <path class="cls-14" d="M390.49,287.13l-2.39,23.46-5.43-.56,1.96-19.04-4.67-.5.45-4.31,10.08.95Z"/>
    <rect class="cls-6" x="444.04" y="279.41" width="56.42" height="56.42" rx="4.48" ry="4.48" transform="translate(117.87 745.86) rotate(-84.12)"/>
    <g class="cls-19">
      <rect class="cls-1" x="444.04" y="279.41" width="56.42" height="56.42" rx="4.48" ry="4.48" transform="translate(117.87 745.86) rotate(-84.12)"/>
    </g>
    <rect class="cls-11" x="435.36" y="278.5" width="56.42" height="56.42" rx="4.48" ry="4.48" transform="translate(110.98 736.43) rotate(-84.12)"/>
    <path class="cls-14" d="M475.26,315.05l-.45,4.31-17.67-1.81.37-3.51,9.89-7.6c2.28-1.74,2.78-2.91,2.89-4.05.19-1.83-.97-3.04-3.45-3.3-1.9-.27-3.8.43-5.08,1.85l-3.68-2.95c2.47-2.69,6.13-3.96,9.74-3.38,5.21.54,8.42,3.55,7.97,7.8-.22,2.28-1.08,4.31-4.65,6.98l-5.9,4.52,10.04,1.14Z"/>
    <rect class="cls-6" x="525.18" y="287.76" width="56.42" height="56.42" rx="4.48" ry="4.48" transform="translate(182.39 834.08) rotate(-84.12)"/>
    <g class="cls-19">
      <rect class="cls-1" x="525.18" y="287.76" width="56.42" height="56.42" rx="4.48" ry="4.48" transform="translate(182.39 834.08) rotate(-84.12)"/>
    </g>
    <rect class="cls-11" x="516.53" y="286.86" width="56.42" height="56.42" rx="4.48" ry="4.48" transform="translate(175.52 824.66) rotate(-84.12)"/>
    <path class="cls-14" d="M556.5,320.63c-.41,3.94-3.81,7.24-10.47,6.57-3.14-.28-6.14-1.47-8.62-3.43l2.52-3.94c1.81,1.59,4.07,2.57,6.46,2.8,2.71.28,4.5-.65,4.7-2.56.19-1.92-1.01-2.99-4.07-3.32l-2.48-.26.37-3.58,5.36-4.95-9.95-1.01.45-4.31,16.37,1.68-.37,3.51-5.9,5.47c3.53.54,6.01,3.77,5.62,7.32Z"/>
    <rect class="cls-6" x="606.34" y="296.12" width="56.42" height="56.42" rx="4.48" ry="4.48" transform="translate(246.92 922.31) rotate(-84.12)"/>
    <g class="cls-19">
      <rect class="cls-1" x="606.34" y="296.12" width="56.42" height="56.42" rx="4.48" ry="4.48" transform="translate(246.92 922.31) rotate(-84.12)"/>
    </g>
    <rect class="cls-11" x="597.86" y="295.21" width="56.42" height="56.42" rx="4.48" ry="4.48" transform="translate(240.21 913.06) rotate(-84.12)"/>
    <rect class="cls-14" x="624.71" y="309.89" width="2.15" height="25.21" transform="translate(240.88 911.95) rotate(-84.12)"/>
    <path class="cls-14" d="M631.01,312.01c-.23,2.25-2.23,3.89-4.48,3.66-2.25-.23-3.89-2.23-3.66-4.48.23-2.25,2.23-3.89,4.48-3.66h0c2.25.23,3.89,2.23,3.66,4.48Z"/>
    <path class="cls-14" d="M628.75,333.88c-.23,2.25-2.23,3.89-4.48,3.66-2.25-.23-3.89-2.23-3.66-4.48.23-2.25,2.23-3.89,4.48-3.66,0,0,.01,0,.02,0,2.24.24,3.87,2.24,3.64,4.48Z"/>
    <rect class="cls-6" x="357.29" y="353.57" width="56.42" height="56.42" rx="4.48" ry="4.48" transform="translate(-33.76 726.14) rotate(-84.12)"/>
    <g class="cls-19">
      <rect class="cls-1" x="357.29" y="353.57" width="56.42" height="56.42" rx="4.48" ry="4.48" transform="translate(-33.76 726.14) rotate(-84.12)"/>
    </g>
    <rect class="cls-11" x="348.64" y="352.68" width="56.42" height="56.42" rx="4.48" ry="4.48" transform="translate(-40.65 716.74) rotate(-84.12)"/>
    <path class="cls-14" d="M386.95,388.53l-3.81-.39-.52,4.91-5.28-.54.52-4.91-12.6-1.31.37-3.64,12.56-13.7,5.69.6-11.68,12.93,6.29.65.45-4.31,5.11.52-.45,4.31,3.81.39-.45,4.5Z"/>
    <rect class="cls-6" x="435.57" y="361.63" width="56.42" height="56.42" rx="4.48" ry="4.48" transform="translate(28.48 811.24) rotate(-84.12)"/>
    <g class="cls-19">
      <rect class="cls-1" x="435.57" y="361.63" width="56.42" height="56.42" rx="4.48" ry="4.48" transform="translate(28.48 811.24) rotate(-84.12)"/>
    </g>
    <rect class="cls-11" x="426.92" y="360.72" width="56.42" height="56.42" rx="4.48" ry="4.48" transform="translate(21.62 801.83) rotate(-84.12)"/>
    <path class="cls-14" d="M464.51,394.07c-.41,4.14-3.83,7.43-10.51,6.74-3.14-.29-6.14-1.48-8.62-3.43l2.56-3.92c1.8,1.59,4.07,2.57,6.46,2.78,2.71.28,4.5-.67,4.7-2.59s-.88-3.17-5.13-3.6l-5.99-.62,2.56-12.93,14.26,1.46-.43,4.31-9.76-1.01-.84,4.42,1.92.19c6.83.65,9.24,4.03,8.81,8.19Z"/>
    <rect class="cls-6" x="516.73" y="369.98" width="56.42" height="56.42" rx="4.48" ry="4.48" transform="translate(93.02 899.48) rotate(-84.12)"/>
    <g class="cls-19">
      <rect class="cls-1" x="516.73" y="369.98" width="56.42" height="56.42" rx="4.48" ry="4.48" transform="translate(93.02 899.48) rotate(-84.12)"/>
    </g>
    <rect class="cls-11" x="508.06" y="369.08" width="56.42" height="56.42" rx="4.48" ry="4.48" transform="translate(86.13 890.04) rotate(-84.12)"/>
    <path class="cls-14" d="M547.36,402.56c-.5,4.78-4.72,7.39-9.65,6.87-6.46-.67-10.04-5.13-9.26-12.67.84-8.1,6.18-12.11,13.23-11.37,2.29.17,4.48.96,6.36,2.28l-2.41,3.77c-1.24-.97-2.74-1.54-4.31-1.64-3.92-.39-6.66,1.66-7.28,6.12,1.72-1.28,3.87-1.81,5.99-1.49,4.12.04,7.42,3.41,7.38,7.53,0,.2-.01.39-.03.59ZM542.08,402.28c.21-1.94-1.18-3.69-3.12-3.9-.16-.02-.32-.02-.47-.02-1.99-.42-3.95.85-4.37,2.84-.02.09-.03.18-.05.27-.22,2,1.14,3.62,3.75,3.9,1.9.39,3.76-.83,4.15-2.73.02-.12.04-.23.05-.35h.06Z"/>
    <rect class="cls-6" x="597.85" y="378.34" width="56.42" height="56.42" rx="4.48" ry="4.48" transform="translate(157.52 987.67) rotate(-84.12)"/>
    <g class="cls-19">
      <rect class="cls-1" x="597.85" y="378.34" width="56.42" height="56.42" rx="4.48" ry="4.48" transform="translate(157.52 987.67) rotate(-84.12)"/>
    </g>
    <rect class="cls-11" x="589.2" y="377.43" width="56.42" height="56.42" rx="4.48" ry="4.48" transform="translate(150.65 978.25) rotate(-84.12)"/>
    <rect class="cls-14" x="604.79" y="404.58" width="25.21" height="2.15" transform="translate(-118.59 469.44) rotate(-38.26)"/>
    <rect class="cls-14" x="616.34" y="393.15" width="2.15" height="25.21" transform="translate(-117.6 480.51) rotate(-39.12)"/>
    <rect class="cls-6" x="348.9" y="435.13" width="56.42" height="56.42" rx="4.48" ry="4.48" transform="translate(-122.43 791) rotate(-84.12)"/>
    <g class="cls-19">
      <rect class="cls-1" x="348.9" y="435.13" width="56.42" height="56.42" rx="4.48" ry="4.48" transform="translate(-122.43 791) rotate(-84.12)"/>
    </g>
    <rect class="cls-11" x="340.24" y="434.25" width="56.42" height="56.42" rx="4.48" ry="4.48" transform="translate(-129.32 781.6) rotate(-84.12)"/>
    <path class="cls-14" d="M377.34,451.29l-.37,3.51-10.77,19-5.88-.62,10.34-18.12-7.76-.8-.39,3.81-4.83-.5.86-8.21,18.79,1.92Z"/>
    <rect class="cls-6" x="427.17" y="443.19" width="56.42" height="56.42" rx="4.48" ry="4.48" transform="translate(-60.19 876.1) rotate(-84.12)"/>
    <g class="cls-19">
      <rect class="cls-1" x="427.17" y="443.19" width="56.42" height="56.42" rx="4.48" ry="4.48" transform="translate(-60.19 876.1) rotate(-84.12)"/>
    </g>
    <rect class="cls-11" x="418.5" y="442.29" width="56.42" height="56.42" rx="4.48" ry="4.48" transform="translate(-67.08 866.66) rotate(-84.12)"/>
    <path class="cls-14" d="M457.96,476.47c-.45,4.31-4.67,6.79-10.62,6.16-5.95-.62-9.54-3.79-9.09-8.19.21-2.39,1.83-4.42,4.11-5.15-1.59-1.18-2.42-3.14-2.15-5.11.43-4.11,4.31-6.29,9.67-5.75,5.36.54,8.79,3.51,8.38,7.63-.18,1.99-1.42,3.72-3.25,4.52,2.08,1.19,3.24,3.51,2.95,5.88ZM452.49,475.74c.22-2.15-1.36-3.51-4.05-3.79-2.69-.28-4.48.82-4.7,2.89-.22,2.07,1.31,3.55,4.01,3.83s4.55-.95,4.83-3.02l-.09.09ZM445.51,464.97c-.19,1.77,1.1,3.02,3.3,3.25,2.2.24,3.79-.73,3.99-2.5.19-1.77-1.16-3.1-3.38-3.32-2.22-.22-3.73.67-3.9,2.5v.06Z"/>
    <rect class="cls-6" x="508.31" y="451.55" width="56.42" height="56.42" rx="4.48" ry="4.48" transform="translate(4.32 964.31) rotate(-84.12)"/>
    <g class="cls-19">
      <rect class="cls-1" x="508.31" y="451.55" width="56.42" height="56.42" rx="4.48" ry="4.48" transform="translate(4.32 964.31) rotate(-84.12)"/>
    </g>
    <rect class="cls-11" x="498.4" y="446.93" width="56.14" height="56.14" rx="4.46" ry="4.46" transform="translate(.96 951.08) rotate(-84.23)"/>
    <path class="cls-14" d="M538.75,479.23c-.84,8.1-6.14,12.11-13.23,11.37-2.27-.17-4.45-.95-6.31-2.26l2.41-3.77c1.24.97,2.74,1.53,4.31,1.62,3.88.39,6.66-1.66,7.28-6.14-1.73,1.29-3.9,1.83-6.03,1.51-4.13-.08-7.41-3.49-7.33-7.62,0-.17.01-.34.03-.5.5-4.78,4.72-7.39,9.67-6.87,6.44.67,10,5.13,9.2,12.67ZM533.12,474.53c.19-2-1.16-3.62-3.73-3.9-1.92-.37-3.77.88-4.14,2.8-.37,1.92.88,3.77,2.8,4.14.23.04.46.07.7.06,1.98.42,3.92-.84,4.35-2.82.02-.09.04-.19.05-.28h-.02Z"/>
    <rect class="cls-6" x="589.45" y="459.9" width="56.42" height="56.42" rx="4.48" ry="4.48" transform="translate(68.84 1052.52) rotate(-84.12)"/>
    <g class="cls-19">
      <rect class="cls-1" x="589.45" y="459.9" width="56.42" height="56.42" rx="4.48" ry="4.48" transform="translate(68.84 1052.52) rotate(-84.12)"/>
    </g>
    <rect class="cls-11" x="580.8" y="459" width="56.42" height="56.42" rx="4.48" ry="4.48" transform="translate(61.98 1043.11) rotate(-84.12)"/>
    <rect class="cls-14" x="607.94" y="474.66" width="2.15" height="25.21" transform="translate(61.93 1043.16) rotate(-84.12)"/>
    <rect class="cls-6" x="499.84" y="533.83" width="56.42" height="56.42" rx="4.48" ry="4.48" transform="translate(-85.13 1029.74) rotate(-84.12)"/>
    <g class="cls-19">
      <rect class="cls-1" x="499.84" y="533.83" width="56.42" height="56.42" rx="4.48" ry="4.48" transform="translate(-85.13 1029.74) rotate(-84.12)"/>
    </g>
    <rect class="cls-11" x="491.17" y="532.93" width="56.42" height="56.42" rx="4.48" ry="4.48" transform="translate(-92.02 1020.3) rotate(-84.12)"/>
    <rect class="cls-6" x="580.98" y="542.19" width="56.42" height="56.42" rx="4.48" ry="4.48" transform="translate(-20.61 1117.96) rotate(-84.12)"/>
    <g class="cls-19">
      <rect class="cls-1" x="580.98" y="542.19" width="56.42" height="56.42" rx="4.48" ry="4.48" transform="translate(-20.61 1117.96) rotate(-84.12)"/>
    </g>
    <rect class="cls-4" x="572.33" y="541.29" width="56.42" height="56.42" rx="4.48" ry="4.48" transform="translate(-27.48 1108.54) rotate(-84.12)"/>
    <rect class="cls-14" x="599.79" y="553.88" width="2.15" height="25.21" transform="translate(-24.19 1106.16) rotate(-84.12)"/>
    <rect class="cls-14" x="598.83" y="563.41" width="2.15" height="25.21" transform="translate(-34.54 1113.75) rotate(-84.12)"/>
    <rect class="cls-11" x="367.78" y="480.39" width="57.86" height="136.22" rx="5.39" ry="5.39" transform="translate(-189.54 886.94) rotate(-84.12)"/>
    <path class="cls-14" d="M391.65,546.88c.8-7.73,5.54-11.65,11.29-11.07,5.75.58,9.57,5.41,8.77,13.14s-5.49,11.65-11.27,11.05c-5.77-.6-9.59-5.41-8.79-13.12ZM406.26,548.38c.56-5.32-1.1-7.71-3.79-7.99-2.69-.28-4.78,1.72-5.32,7.04-.54,5.32,1.1,7.71,3.77,7.99,2.67.28,4.8-1.74,5.34-7.04Z"/>
    <rect class="cls-14" x="506.76" y="560.05" width="25.21" height="2.15" transform="translate(-98.76 1011.16) rotate(-83.27)"/>
    <rect class="cls-14" x="518.32" y="548.56" width="2.15" height="25.21" transform="translate(-92.03 1020.34) rotate(-84.12)"/>
    <path class="cls-11" d="M495.23,164.61l-3.6,34.96-1.66-.17,3.53-33.41-8.79-.9.15-1.55,10.36,1.08Z"/>
    <path class="cls-11" d="M523.97,201.35l-.17,1.55-23.7-2.43.13-1.21,16.55-13.55c4.74-3.86,5.88-6.31,6.18-9.16.47-4.65-2.46-7.97-8.62-8.62-3.92-.71-7.95.44-10.92,3.1l-1.03-1.21c3.34-2.91,7.8-4.17,12.17-3.45,6.68.69,10.58,4.57,10,10.21-.34,3.32-1.68,6.1-6.76,10.21l-15.08,12.34,21.26,2.2Z"/>
    <path class="cls-11" d="M551.67,195.96c-.6,5.82-5.11,9.48-12.8,8.62-4.59-.25-8.84-2.47-11.65-6.1l1.03-1.1c2.59,3.36,6.53,5.43,10.77,5.64,6.68.69,10.51-2.15,11.05-7.28.54-5.13-2.54-8.62-9.95-9.46l-1.94-.22.13-1.18,12.34-13.08-19.28-1.98.15-1.55,21.54,2.15-.13,1.18-12.41,13.12c8.1.9,11.74,5.39,11.14,11.22Z"/>
    <path class="cls-11" d="M586.14,199.11l-7.6-.78-1.03,10.1-1.66-.17,1.03-10.1-20.08-2.15.13-1.21,21.78-21.67,1.94.19-21.54,21.41,17.9,1.85.9-8.9,1.66.17-.93,8.88,7.6.8-.11,1.57Z"/>
    <path class="cls-11" d="M593.4,208.54c-.1.63-.27,1.24-.5,1.83l-2.5,6.46-1.29-.13,2.26-6.74c-.9-.15-1.52-1-1.37-1.91.15-.9,1-1.52,1.91-1.37h0c.92.11,1.58.93,1.49,1.85Z"/>
    <path class="cls-11" d="M628.04,203.44l-7.58-.78-1.03,10.08-1.66-.17,1.03-10.08-20.08-2.15.13-1.21,21.76-21.61,1.94.22-21.54,21.41,17.9,1.83.9-8.9,1.66.17-.86,8.9,7.6.78-.17,1.51Z"/>
    <path class="cls-11" d="M654.02,206.32c-.6,5.69-5,9.67-12.93,8.85-4.56-.26-8.79-2.48-11.59-6.1l1.08-1.1c2.58,3.38,6.52,5.44,10.77,5.64,6.83.71,10.56-2.54,11.07-7.5.56-5.39-2.33-8.92-12.32-9.95l-6.79-.69,3.45-16.31,18.03,1.87-.15,1.55-16.65-1.72-2.87,13.23,5.39.56c10.69,1.1,14.13,5.45,13.51,11.65Z"/>
    <polygon class="cls-6" points="271.87 922.78 258.17 973.43 302.7 977.48 312.05 929.27 271.87 922.78"/>
    <path class="cls-11" d="M303.93,973.36c-2.16.15-4.32.08-6.46-.22-4.01-.32-9.52-.95-15.62-1.72l-15.55-2.15c-2.19-.16-4.35-.54-6.46-1.12,2.16-.12,4.32-.04,6.46.26,4.01.32,9.52.95,15.62,1.72l15.55,2.15c2.18.17,4.34.54,6.46,1.08Z"/>
    <g class="cls-20">
      <polyline class="cls-14" points="258.17 973.43 302.7 977.48 303.41 973.77 259.46 968.19 258.23 972.91"/>
    </g>
    <path class="cls-11" d="M280.23,971.17c2.5-13.01,5.67-25.88,9.48-38.56-1.1,6.53-2.53,13.01-4.31,19.39-1.39,6.48-3.12,12.88-5.17,19.17Z"/>
    <path class="cls-11" d="M301.53,973.04c.7-3.1.7-6.32,0-9.41-.78-3.33-2.47-6.38-4.87-8.81-3-2.92-6.91-4.73-11.07-5.11-4.16-.43-8.35.52-11.91,2.71-2.89,1.84-5.28,4.37-6.94,7.37-1.48,2.81-2.43,5.87-2.82,9.03-.03-.22-.03-.45,0-.67,0-.64.03-1.28.11-1.92.31-2.37,1.04-4.67,2.15-6.79,1.64-3.18,4.07-5.88,7.07-7.84,3.73-2.36,8.15-3.39,12.54-2.93,4.4.4,8.53,2.33,11.65,5.45,2.48,2.59,4.18,5.82,4.91,9.33.48,2.35.48,4.76,0,7.11-.14.63-.33,1.25-.56,1.85-.06.22-.14.43-.26.62Z"/>
    <path class="cls-6" d="M455.52,917.01l-2.65,39.88s39.68,13.16,39.92,20.57l-77.56.56,1.57-62.3,38.71,1.29Z"/>
    <g class="cls-20">
      <path class="cls-14" d="M429,952.81c-1.56.43-2.55,1.96-2.31,3.55.37,1.58,1.91,2.6,3.51,2.31,1.65-.46,2.68-2.08,2.41-3.77-.55-1.6-2.27-2.49-3.9-2"/>
    </g>
    <g class="cls-20">
      <path class="cls-14" d="M415.24,978.06l.41-6.29,74.67,2.15c1.6.83,2.68,2.41,2.87,4.2l-77.94-.06Z"/>
    </g>
    <path class="cls-11" d="M454.15,956.54c0,.39-1.92.5-3.83,1.66-1.92,1.16-2.93,2.71-3.27,2.56s.28-2.33,2.61-3.71c2.33-1.38,4.59-.86,4.5-.52Z"/>
    <path class="cls-11" d="M462.16,960.16c0,.37-1.57.95-2.91,2.52-1.34,1.57-1.77,3.23-2.15,3.21s-.56-2.15,1.14-4.09c1.7-1.94,3.94-2,3.92-1.64Z"/>
    <path class="cls-11" d="M466.49,970.03c-.34,0-.82-1.85.22-3.88s2.84-2.82,2.99-2.5-.99,1.4-1.81,3.08-1.01,3.27-1.4,3.3Z"/>
    <path class="cls-11" d="M453.74,947.38c-.17.34-1.9-.24-4.03-.15s-3.83.71-4.03.37,1.46-1.62,3.99-1.68c2.52-.06,4.27,1.18,4.07,1.46Z"/>
    <g class="cls-18">
      <polygon class="cls-1" points="454.99 924.91 454.51 932.02 416.42 930.52 416.57 924.12 454.99 924.91"/>
    </g>
    <path class="cls-11" d="M454.12,939.33c-1.28.3-2.62.26-3.88-.13-1.39-.29-2.75-.76-4.03-1.38-.75-.36-1.47-.78-2.15-1.25-.43-.25-.82-.57-1.14-.95-.5-.57-.54-1.41-.11-2.03.41-.51,1.02-.82,1.68-.82.49,0,.98.1,1.44.26.82.22,1.63.53,2.39.9,1.29.63,2.48,1.45,3.51,2.46,1.74,1.72,2.33,3.15,2.15,3.21s-1.01-1.08-2.8-2.52c-1.04-.83-2.18-1.52-3.4-2.05-.69-.31-1.42-.57-2.15-.75-.82-.24-1.51-.28-1.74,0s0,.19,0,.43c.25.27.53.51.84.71.68.46,1.34.87,2,1.23,1.18.63,2.43,1.15,3.71,1.55,1.25.3,2.48.67,3.68,1.12Z"/>
    <path class="cls-11" d="M453.61,939.87c-.68-1.14-1-2.46-.9-3.79-.04-2.27.56-4.51,1.72-6.46.45-1.03,1.41-1.75,2.52-1.9.71.03,1.34.48,1.59,1.14.18.46.31.93.37,1.42.27,2.35-.4,4.72-1.87,6.57-1.57,1.98-3.17,2.37-3.19,2.15s1.23-.88,2.43-2.78c.7-1.09,1.16-2.32,1.34-3.6.11-.75.11-1.51,0-2.26,0-.82-.39-1.49-.69-1.42s-1.06.58-1.4,1.23c-.4.69-.74,1.41-1.03,2.15-.46,1.23-.75,2.52-.86,3.83-.17,2.22.19,3.64-.02,3.71Z"/>
    <path class="cls-6" d="M287.36,295.81s-8.42,45.89-15.08,73.66c-5.26,21.54-18.83,62,5.75,73.74s57.54-35.68,57.54-35.68l14.02-108.02c-9.76,1.83-20.83,13.16-32.62,29.82l2.15-40.93-31.78,7.41Z"/>
    <path class="cls-7" d="M625.63,363.61l-12.93,6.16-11.91-18.68,6.96-14.41c.67-1.34,1.38-2.82,2.15-4.55.86-2.02,1.38-4.17,1.53-6.36.3-2.7.23-5.42-.19-8.1-.65-2.41,1.9-4.31,3.62-2.97,1.72,1.34,3.66,7.97,2.39,15.92-1.27,7.95,7.95-.47,11.37-3.49s14.43-11.81,16.18-11.46c2.52.5,2.46,3.38-1.03,6.29-3.49,2.91-13.34,12.45-11.72,14.22h0c4.14.47,7.53,3.5,8.44,7.56.86,3.9,1.57,9.31-.62,11.09-4.55,3.23-9.31,6.15-14.24,8.77Z"/>
    <path class="cls-7" d="M375.02,189.5l-.34,112.26,48.13,2.37,1.4-27.3s17.11,3.4,21.54-12.5c2.82-10.15,2.15-88.59,2.15-88.59l-72.88,13.74Z"/>
    <path class="cls-11" d="M458.71,186.74c-3.25,6.7-18.7,18.98-18.7,18.98l-6.98,18.7c-6.05-4.74-14.2-4.46-15.73,6.18-1.12,7.71,8.44,9.26,8.44,9.26-5.58,9.48-9.35,17.23-17.45,26.15-8.79,9.78-13.7,10.77-23.22,10.92h-10.51s-21.54-17.97-17.23-65.25,46.77-33.48,56.92-45.24c16.52-19.3,55.3-2.09,44.47,20.29Z"/>
    <path class="cls-4" d="M359.72,251.22h1.34c1.28-.02,2.56-.17,3.81-.43,4.61-1.05,8.86-3.28,12.34-6.46,5-4.91,9.21-10.55,12.5-16.74,2.15-3.38,4.18-6.98,6.76-10.45,2.6-3.64,5.8-6.83,9.46-9.41,3.76-2.44,7.92-4.21,12.28-5.23,4.18-1.08,8.29-1.74,12.17-2.5,7.76-1.44,14.71-3.6,19.39-7.28,3.83-2.8,6.6-6.81,7.86-11.37.31-1.24.46-2.51.47-3.79v-1.36s0,.47.15,1.36c.03,1.29-.1,2.58-.39,3.83-1.23,4.64-3.99,8.73-7.84,11.59-4.78,3.75-11.81,5.97-19.56,7.41-3.9.78-7.99,1.44-12.15,2.54-4.31,1.02-8.42,2.77-12.15,5.17-3.6,2.57-6.76,5.72-9.35,9.31-2.56,3.45-4.7,7.02-6.74,10.41-3.32,6.21-7.59,11.86-12.65,16.76-3.53,3.22-7.85,5.45-12.52,6.46-1.27.25-2.56.37-3.86.37-.88-.11-1.34-.17-1.34-.17Z"/>
    <path class="cls-4" d="M357.24,212.76s.75-.3,2.15-.78c2.14-.75,4.36-1.28,6.61-1.57,3.59-.55,7.25.22,10.32,2.15,1.91,1.27,3.24,3.26,3.68,5.52.52,2.56-.29,5.21-2.15,7.04-1.05.92-2.38,1.45-3.77,1.51-1.45.02-2.87-.36-4.11-1.1-2.64-1.57-4.6-4.05-5.52-6.98-1.04-3.09-1.18-6.4-.41-9.57.79-3.34,2.61-6.35,5.19-8.62,2.7-2.42,6.1-3.93,9.72-4.31,3.74-.23,7.49.25,11.05,1.42,3.66,1.18,7.41,2.08,11.2,2.69,3.92.52,7.89.52,11.81,0,3.92-.47,7.75-1.53,11.35-3.15,3.57-1.44,6.34-4.34,7.6-7.97,1.05-3.58.08-7.44-2.52-10.1-2.66-2.4-6.5-2.97-9.74-1.44-1.54.68-2.8,1.86-3.58,3.36-.73,1.47-1.01,3.13-.78,4.76.44,3.15,2.23,5.96,4.89,7.71,2.53,1.55,5.45,2.38,8.42,2.37,2.74.05,5.47-.36,8.08-1.21,4.52-1.42,8.62-3.92,11.96-7.28,2.54-2.5,4.63-5.41,6.18-8.62.98-2.07,1.74-4.23,2.26-6.46.28-1.51.47-2.31.47-2.31l-.39,2.33c-.48,2.23-1.2,4.39-2.15,6.46-1.52,3.26-3.61,6.23-6.16,8.77-3.34,3.41-7.47,5.96-12.02,7.41-2.64.85-5.41,1.28-8.19,1.25-3.04.02-6.02-.81-8.62-2.39-2.77-1.8-4.62-4.7-5.08-7.97-.25-1.71.02-3.45.8-5,.82-1.58,2.15-2.83,3.77-3.55,3.4-1.61,7.43-1.01,10.21,1.51,2.71,2.77,3.72,6.79,2.65,10.51-1.31,3.75-4.16,6.77-7.84,8.27-3.65,1.63-7.52,2.7-11.48,3.19-3.96.51-7.97.51-11.93,0-3.81-.62-7.57-1.52-11.25-2.69-3.51-1.15-7.21-1.64-10.9-1.44-9.25.99-15.95,9.28-14.97,18.54.13,1.21.39,2.39.77,3.55.89,2.84,2.79,5.26,5.34,6.79,1.18.71,2.54,1.08,3.92,1.08,1.32-.05,2.58-.55,3.58-1.42,1.77-1.77,2.54-4.31,2.05-6.76-.43-2.17-1.7-4.09-3.53-5.34-3.02-1.92-6.63-2.68-10.17-2.15-2.24.27-4.45.77-6.59,1.49l-2.2.52Z"/>
    <polygon class="cls-11" points="325.49 518.37 261.38 939.5 314.63 946.24 389.75 593.04 408.69 948.63 466.4 947.62 456.84 519.37 325.49 518.37"/>
    <path class="cls-11" d="M407.66,949.71v-1.03l-18.48-347.45-73.7,346.22-55.32-7.02,64.41-423.02,133.33.99,9.61,430.39-59.85.93ZM390.42,584.83l19.39,362.7,55.6-.97-9.52-426.12-129.47-.88-63.81,418.99,51.16,6.46,76.65-360.18Z"/>
    <path class="cls-4" d="M449.26,946.93c-.32,0-.56-84.36-.56-188.42s.24-188.46.56-188.46.56,84.36.56,188.46-.26,188.42-.56,188.42Z"/>
    <path class="cls-4" d="M302.91,945.4c.01-.3.06-.61.13-.9,0-.67.28-1.55.5-2.67.45-2.39,1.12-5.84,1.96-10.23,1.81-8.94,4.31-21.76,7.56-37.59,6.46-31.73,15.62-75.51,26.13-123.77,10.51-48.26,20.4-91.9,27.73-123.42,3.68-15.73,6.68-28.46,8.77-37.33,1.06-4.31,1.9-7.76,2.46-10.13.28-1.12.52-1.98.67-2.63.07-.3.17-.6.28-.88,0,0,0,.3-.17.9s-.3,1.53-.54,2.65c-.54,2.39-1.29,5.82-2.26,10.19-2,8.88-4.87,21.54-8.42,37.4-7.13,31.58-16.89,75.23-27.4,123.49s-19.8,92.01-26.45,123.68c-3.34,15.81-6.03,28.61-7.91,37.53-.93,4.31-1.66,7.8-2.15,10.19l-.6,2.65c-.06.3-.14.6-.26.88Z"/>
    <path class="cls-4" d="M408.69,592.65c-.79.21-1.61.32-2.43.32l-6.66.47c-5.62.37-13.4.75-21.93,1.59-8.53.84-16.22,2-21.8,2.74l-6.61.84c-.81.16-1.63.21-2.46.15.77-.28,1.57-.48,2.39-.58,1.53-.32,3.77-.73,6.46-1.21,5.56-.93,13.25-2.15,21.82-3.06,8.57-.9,16.37-1.1,22-1.27,2.82,0,5.11-.11,6.68-.11.85-.06,1.7-.02,2.54.11Z"/>
    <path class="cls-4" d="M457.96,565.32c-.53.23-1.09.37-1.66.41-1.54.22-3.1.3-4.65.22-10.56-.56-19.82-7.24-23.7-17.08-.57-1.45-1-2.95-1.27-4.48-.19-1.08-.22-1.68-.13-1.7s.56,2.37,2.15,5.86c2.06,4.56,5.27,8.5,9.31,11.46,4.08,2.89,8.84,4.66,13.81,5.15,3.71.39,6.1-.04,6.14.17Z"/>
    <path class="cls-6" d="M314.52,526.65l147.53-.47-8.08-97.35c-.88-22.28-.75-24.95-1.31-45.5,0,0,20.94,25.31,37.42,43.09,9.97,10.72,25.73,13.74,38.95,7.48l86.17-60.13-16.14-41.3-78.31,47.93c-3.6-2.15-34.08-45.74-55.15-66.96-13.49-13.58-31.69-21.46-50.82-22-15.88-.37-31.77.27-47.57,1.92-23.74,2.54-42.33,21.58-44.31,45.37-1.53,18.2-.3,39.34-.3,75.25l-8.08,112.67Z"/>
    <path class="cls-11" d="M321.46,348.57v16.39c0,10.13.45,24.09.9,39.53.45,15.45.52,29.45.13,39.55-.17,5.06-.41,9.16-.65,11.98,0,1.31-.19,2.39-.26,3.25s-.13,1.12-.13,1.12v-1.12c0-.73.11-1.96.17-3.25.19-2.82.37-6.92.5-11.98.3-10.13.17-24.11-.26-39.55s-.8-29.41-.78-39.53c0-5.06,0-9.16.15-12,0-1.31,0-2.37.11-3.25s.11-1.14.11-1.14Z"/>
    <path class="cls-11" d="M517.53,394.33c.03-.68.13-1.36.3-2.03.26-1.25.62-2.97,1.08-4.85.45-1.87.86-3.6,1.18-4.8.13-.68.34-1.34.62-1.96-.03.69-.14,1.37-.32,2.03-.24,1.25-.62,2.95-1.06,4.85-.43,1.9-.86,3.58-1.18,4.8-.14.67-.35,1.33-.62,1.96Z"/>
    <path class="cls-11" d="M525.39,395.54c-.82-2.54-1.49-5.13-2-7.76-.66-2.59-1.19-5.22-1.57-7.86.81,2.55,1.48,5.13,2,7.76.66,2.59,1.19,5.22,1.57,7.86Z"/>
    <path class="cls-11" d="M456.3,386.96l-.8-.73-2.26-2.15c-1.94-1.9-4.74-4.67-8.1-8.23-3.94-4.13-7.61-8.51-10.99-13.12-4.18-5.64-7.55-11.83-10.02-18.4-2.5-6.58-3.62-13.61-3.3-20.64.11-5.74,1.37-11.41,3.71-16.65,1.67-3.51,4.16-6.57,7.26-8.92.83-.63,1.7-1.21,2.61-1.72l.97-.54s-1.34.73-3.47,2.39c-3.02,2.38-5.45,5.44-7.09,8.92-2.27,5.22-3.49,10.85-3.58,16.55-.3,6.98.83,13.94,3.32,20.47,2.46,6.53,5.79,12.69,9.91,18.31,3.36,4.6,7,8.99,10.9,13.14,3.32,3.58,6.08,6.46,7.99,8.34l2.15,2.15c.54.56.78.84.78.84Z"/>
    <path class="cls-12" d="M360.41,346.91c-1.95-1.57-3.65-3.42-5.06-5.49-1.68-1.84-3.09-3.92-4.18-6.16,1.94,1.57,3.65,3.41,5.06,5.47,1.69,1.84,3.1,3.93,4.18,6.18Z"/>
    <path class="cls-12" d="M393.93,384.96c-2.04,2.83-4.38,5.43-6.98,7.76-2.34,2.6-4.94,4.94-7.78,6.98,4.38-5.42,9.33-10.36,14.76-14.74h0Z"/>
    <path class="cls-12" d="M426.38,439.57c-.3,0-1.49-3.23-3.68-6.96-2.2-3.73-4.48-6.46-4.31-6.61,2.22,1.54,4.02,3.63,5.21,6.05,1.54,2.24,2.49,4.82,2.78,7.52Z"/>
    <path class="cls-12" d="M342.27,433.39c-3.28-6.88-4.62-14.52-3.88-22.1.34,0,.43,5.04,1.53,11.12,1.1,6.08,2.78,10.86,2.35,10.99Z"/>
    <path class="cls-12" d="M386.93,457.43c-2.68-5.78-3.26-12.32-1.64-18.48.32,0-.15,4.2.32,9.29s1.64,9.09,1.31,9.2Z"/>
    <path class="cls-12" d="M369.27,492.35c-3.55-1.55-6.95-3.45-10.13-5.67-3.38-1.9-6.58-4.11-9.54-6.61,3.56,1.55,6.96,3.45,10.15,5.67,3.38,1.9,6.57,4.11,9.52,6.61Z"/>
    <path class="cls-12" d="M438.72,482.03c.15.3-4.85,2.78-10.64,6.46-5.8,3.68-10.21,7.11-10.43,6.85,2.86-3.08,6.18-5.71,9.82-7.8,3.45-2.4,7.24-4.26,11.25-5.52Z"/>
    <path class="cls-12" d="M351.32,521.52c-3.63-.17-7.24-.7-10.77-1.59-3.63-.53-7.2-1.44-10.64-2.71,3.64.17,7.25.71,10.77,1.62,3.63.53,7.2,1.44,10.64,2.69Z"/>
    <path class="cls-12" d="M397.94,513.94c-4.11-3.99-6.9-9.14-7.99-14.76.3,0,1.64,3.4,3.86,7.45,2.22,4.05,4.39,7.09,4.14,7.3Z"/>
    <path class="cls-12" d="M450.42,517.58c-.81,1.82-1.95,3.48-3.36,4.89-2.15,2.5-3.96,4.31-4.31,4.18.79-1.85,1.93-3.52,3.36-4.93,2.15-2.46,3.99-4.31,4.31-4.14Z"/>
    <path class="cls-12" d="M354.49,369.49c.17.26-1.74,1.85-4.31,3.53-1.46,1.19-3.13,2.09-4.93,2.63-.17-.26,1.77-1.85,4.31-3.55,1.45-1.19,3.13-2.08,4.93-2.61Z"/>
    <path class="cls-12" d="M390.85,328.88c-1.73-3.53-3.03-7.26-3.88-11.09-1.17-3.74-1.89-7.61-2.15-11.53,1.35,3.67,2.45,7.43,3.27,11.25,1.19,3.72,2.11,7.52,2.76,11.37Z"/>
    <path class="cls-12" d="M425.77,365.85c-.15.3-3.3-.9-7.32-1.66-4.03-.75-7.41-.82-7.41-1.16,5.09-.89,10.33.12,14.74,2.82Z"/>
    <path class="cls-12" d="M449.77,334.44c-2.68.78-5.51.88-8.23.28-2.78-.24-5.44-1.18-7.76-2.74.13-.3,3.53.97,7.93,1.62s8.01.52,8.06.84Z"/>
    <path class="cls-12" d="M474.31,369.47c-.4-3.96-.2-7.97.6-11.87.46-3.96,1.54-7.83,3.19-11.46.3,0-1.06,5.21-2.15,11.63-1.1,6.42-1.29,11.72-1.64,11.7Z"/>
    <path class="cls-12" d="M503.18,410.74c-5.37-4.49-10.24-9.54-14.52-15.08,5.36,4.5,10.22,9.56,14.52,15.08Z"/>
    <path class="cls-12" d="M527.18,407.53c-2.23,4.87-5.13,9.4-8.62,13.46.96-2.52,2.26-4.89,3.88-7.04,1.27-2.35,2.87-4.51,4.74-6.42Z"/>
    <path class="cls-12" d="M555.03,393.98c-1.88-2.56-3.44-5.34-4.65-8.27-1.55-2.78-2.77-5.73-3.64-8.79,1.87,2.57,3.43,5.36,4.65,8.29,1.55,2.77,2.77,5.71,3.64,8.77Z"/>
    <path class="cls-12" d="M592.95,378.3c-6.65-.42-13.22-1.59-19.6-3.49,3.34.03,6.66.44,9.91,1.21,3.31.39,6.56,1.16,9.69,2.28Z"/>
    <path class="cls-12" d="M291.78,418.65c2.3-6.69,5.32-13.11,9.01-19.15-.98,3.4-2.33,6.69-4.01,9.8-1.33,3.28-3.01,6.42-5,9.35Z"/>
    <path class="cls-12" d="M311.87,383.19c-2.41-1.88-4.58-4.05-6.46-6.46-2.17-2.16-4.09-4.57-5.71-7.17,2.42,1.88,4.59,4.05,6.46,6.46,2.18,2.15,4.1,4.56,5.71,7.17Z"/>
    <path class="cls-12" d="M310.19,440.13c.19.24-1.29,1.81-3.32,3.51-2.03,1.7-3.86,2.87-4.07,2.63s1.31-1.81,3.34-3.49c2.03-1.68,3.86-2.93,4.05-2.65Z"/>
    <path class="cls-12" d="M316.98,345.51c.26.19-.65,1.72-2,3.43-1.36,1.7-2.67,2.91-2.91,2.71s.67-1.72,2.03-3.43c1.36-1.7,2.76-2.91,2.89-2.71Z"/>
    <g class="cls-18">
      <path class="cls-1" d="M429.59,355.29c9.11,28.63,16.14,58.68,25.25,87.31l-2.15-59.29c-8.86-8.32-16.62-17.74-23.09-28.03Z"/>
    </g>
    <path class="cls-11" d="M281.35,392.76c.07-.24.17-.47.28-.69l.86-2c.78-1.72,1.92-4.18,3.38-7.22,2.93-6.08,7.15-14.37,12.24-23.33,5.08-8.96,10.02-16.85,13.72-22.47,1.85-2.82,3.38-5.08,4.46-6.61l1.25-1.77c.3-.41.45-.62.47-.6l-.39.65-1.18,1.81-4.31,6.7c-3.64,5.67-8.62,13.57-13.59,22.51s-9.35,17.23-12.32,23.25l-3.51,7.17c-.37.73-.69,1.38-.95,1.94-.11.24-.25.46-.41.67Z"/>
    <path class="cls-11" d="M295.89,365.33c-.77.38-1.56.71-2.37.99-1.87.82-3.66,1.81-5.34,2.97-1.67,1.17-3.22,2.51-4.63,3.99-1.1,1.14-1.7,1.9-1.74,1.85s0-.22.34-.58c.36-.52.75-1.01,1.16-1.49,1.36-1.57,2.9-2.96,4.61-4.14,1.71-1.18,3.55-2.15,5.49-2.89.58-.23,1.18-.42,1.79-.58.22-.07.45-.12.69-.13Z"/>
    <path class="cls-12" d="M297.91,321.15c-1.84,3.53-4.01,6.88-6.46,10.02-2.19,3.35-4.69,6.48-7.48,9.35,1.85-3.52,4.02-6.86,6.46-10,2.19-3.35,4.7-6.49,7.48-9.37Z"/>
    <path class="cls-7" d="M313.47,286.12c2.19.39,4.38-.65,5.47-2.59,1.21-1.81,1.77-3.96,2.82-5.86,3.21-5.62,10.49-8.08,13.42-13.85.41-.82.65-1.94,0-2.5s-1.62-.17-2.37.19l-19.17,9.61"/>
    <path class="cls-3" d="M313.6,271.12c.59-.51,1.25-.93,1.96-1.25,1.29-.73,3.21-1.74,5.58-2.99l8.32-4.31,2.43-1.23c.91-.64,2.02-.91,3.12-.75.69.26,1.15.92,1.16,1.66,0,.6-.12,1.19-.39,1.72-.47.95-1.05,1.84-1.72,2.65-2.7,2.73-5.58,5.27-8.62,7.6-1.22,1.07-2.27,2.31-3.12,3.68-.78,1.31-1.27,2.67-1.87,3.9-.77,2.1-2.44,3.75-4.55,4.5-.77.31-1.63.24-2.35-.17.73.03,1.46-.07,2.15-.28,1.84-.84,3.26-2.4,3.92-4.31.52-1.37,1.11-2.72,1.77-4.03.87-1.49,1.96-2.84,3.23-4.01,3.02-2.35,5.9-4.87,8.62-7.56.6-.74,1.13-1.55,1.57-2.39.39-.8.39-1.64,0-1.74s-1.38.26-2.15.67l-2.43,1.21-8.44,4.09c-2.41,1.14-4.31,2.15-5.75,2.65-.77.35-1.59.59-2.43.69Z"/>
  </g>
  <g id="freepik--Plant--inject-2">
    <rect class="cls-11" x="778.54" y="862.93" width="136.37" height="18.74"/>
    <path class="cls-11" d="M915.12,881.89h-136.82v-19.19h136.82v19.19ZM778.78,881.48h135.87v-18.27h-135.87v18.27Z"/>
    <polygon class="cls-11" points="791.19 875.43 810.81 972.24 883.44 972.24 902.39 881.66 791.19 875.43"/>
    <polygon class="cls-4" points="791.19 963.09 801.66 977.48 889.92 977.48 902.39 963.09 791.19 963.09"/>
    <path class="cls-11" d="M841.6,878.25c-.28,0-.62-44.85-.78-100.18s0-100.2.22-100.2.6,44.85.75,100.2c.15,55.34.06,100.18-.19,100.18Z"/>
    <path class="cls-11" d="M871.97,765.99c-.09.36-.21.72-.37,1.06l-1.23,2.89c-.26.65-.56,1.34-.88,2.15l-.9,2.56c-.32.9-.69,1.87-1.06,2.91s-.65,2.15-1.01,3.34c-1.62,5.48-2.89,11.06-3.81,16.7-1.07,6.92-1.79,13.88-2.15,20.88-.5,12.72-.14,25.46,1.08,38.13.45,4.87.88,8.81,1.21,11.53.15,1.27.26,2.31.34,3.12.03.37.03.73,0,1.1-.14-.34-.23-.69-.26-1.06-.13-.82-.3-1.85-.52-3.12-.45-2.69-.99-6.64-1.51-11.5-1.37-12.72-1.76-25.52-1.16-38.3.34-7.03,1.06-14.03,2.15-20.98.97-5.67,2.32-11.27,4.05-16.76.37-1.16.69-2.28,1.08-3.32l1.12-2.91c.37-.9.69-1.74.99-2.54s.69-1.44.97-2.15l1.4-2.82c.13-.31.28-.61.47-.88Z"/>
    <path class="cls-11" d="M868.48,729.71c-.11.5-.26,1-.43,1.49-.37,1.03-.84,2.41-1.42,4.16-.32.93-.67,1.92-1.03,3.02l-1.1,3.62c-.8,2.61-1.72,5.54-2.54,8.88-.45,1.64-.9,3.38-1.38,5.17s-.84,3.73-1.27,5.69c-.95,3.9-1.64,8.14-2.52,12.56-1.51,8.92-2.82,18.76-3.75,29.15-.93,10.38-1.23,20.34-1.36,29.38s0,17.23.45,24c.13,3.43.34,6.46.52,9.22s.32,5.04.5,6.96.26,3.3.34,4.31c.05.51.05,1.02,0,1.53-.12-.49-.2-1-.24-1.51l-.52-4.31c-.24-1.9-.47-4.31-.67-6.94s-.5-5.8-.67-9.22c-.45-6.83-.65-15.08-.67-24.06s.43-19.02,1.29-29.43c.86-10.41,2.28-20.32,3.83-29.23.9-4.44,1.62-8.62,2.61-12.6.47-1.96.9-3.86,1.34-5.67s.99-3.53,1.44-5.19c.86-3.32,1.83-6.27,2.69-8.85l1.16-3.6c.41-1.08.8-2.15,1.12-2.99l1.59-4.09c.19-.49.42-.96.67-1.42Z"/>
    <path class="cls-11" d="M832.96,886.18v-.52c0-.41,0-.9-.13-1.55-.11-1.42-.24-3.4-.41-5.92-.32-5.23-.78-12.69-1.36-21.87-1.18-18.44-2.91-43.93-6.01-71.95-1.57-14-3.43-27.32-5.32-39.38-1.03-6.01-1.94-11.74-2.99-17.08-1.06-5.34-1.98-10.3-2.95-14.82-.97-4.52-1.9-8.62-2.69-12.17s-1.55-6.64-2.15-9.16c-.6-2.52-1.08-4.31-1.4-5.77-.15-.62-.26-1.12-.34-1.51s-.11-.52,0-.52c.07.16.13.33.17.5,0,.39.26.86.43,1.49.39,1.38.93,3.3,1.59,5.73.67,2.43,1.53,5.54,2.37,9.11.84,3.58,1.9,7.63,2.84,12.17.95,4.55,2.15,9.46,3.06,14.8s2.03,11.07,3.08,17.11c1.96,12.06,3.83,25.38,5.41,39.4,3.1,28.01,4.72,53.58,5.73,72.04.5,9.22.84,16.7,1.06,21.87,0,2.52.17,4.52.22,5.95v1.55c-.03.18-.1.36-.19.52Z"/>
    <path class="cls-6" d="M840.48,699.44c-.58-6.36-7-11.16-13.4-11.22-6.47.29-12.46,3.54-16.22,8.81-3.67,5.25-6.32,11.14-7.82,17.36-4.66,14.92-6.29,30.61-4.8,46.17,1.83,15.47,8.1,30.7,19.19,41.62,1.81,1.79,4.16,3.55,6.64,3.04,1.33-.4,2.53-1.14,3.49-2.15,21.97-20.13,34.19-48.77,33.52-78.57-.17-5.88-.95-12-4.2-16.89-3.25-4.89-10.77-10.1-16.39-8.14"/>
    <path class="cls-6" d="M792.82,648.54l-8.98,16.29c-.22.37-.5.8-.93.84s-.82-.41-1.08-.8c-7.93-12.16-15.83-24.33-23.7-36.49l5.47-3.1,29.21,23.27Z"/>
    <g class="cls-17">
      <path class="cls-1" d="M792.82,648.54l-8.98,16.29c-.22.37-.5.8-.93.84s-.82-.41-1.08-.8c-7.93-12.16-15.83-24.33-23.7-36.49l5.47-3.1,29.21,23.27Z"/>
    </g>
    <path class="cls-6" d="M841.04,677.88l-81.07-47.85c-.89-.38-1.6-1.09-1.98-1.98-.32-1.21.58-2.35,1.44-3.25,11.28-11.71,27.09-17.92,43.32-17.02,16.27,1.18,30.92,10.29,39.17,24.37,7.82,13.98,8.08,32.47-.88,45.74"/>
    <path class="cls-11" d="M771.65,614.78c.34-.1.7-.15,1.06-.15.71,0,1.74-.15,3.06-.13,3.77-.05,7.55.25,11.27.88,25.21,4.27,45.66,22.75,52.46,47.39,1.01,3.63,1.69,7.34,2.03,11.09.04.79.04,1.58,0,2.37-.05.63-.27,1.24-.62,1.77.25-1.35.29-2.73.13-4.09-.47-3.7-1.23-7.36-2.28-10.94-8.36-28-33.8-47.42-63.01-48.11-2.61-.06-4.07,0-4.07-.09Z"/>
    <path class="cls-11" d="M830.05,644.85c-1.29.78-2.66,1.41-4.09,1.87-2.59,1.01-6.18,2.31-10.23,3.6s-7.73,2.31-10.43,2.95c-1.44.44-2.92.73-4.42.86,1.37-.67,2.82-1.17,4.31-1.51l10.34-3.23,10.28-3.32c1.37-.55,2.79-.96,4.24-1.23Z"/>
    <path class="cls-11" d="M817.3,610.56c.72,2.96,1.04,6,.95,9.05.23,3.04.07,6.1-.5,9.09-.4-3.01-.56-6.04-.47-9.07-.23-3.02-.23-6.05.02-9.07Z"/>
    <path class="cls-11" d="M759.26,629.13c1.9-.87,3.87-1.59,5.88-2.15,3.68-1.14,8.81-2.56,14.54-3.94,5.73-1.38,10.92-2.43,14.74-3.1,2.03-.46,4.1-.74,6.18-.84-1.98.64-4,1.14-6.05,1.51-3.75.84-8.94,2-14.65,3.36-5.71,1.36-10.77,2.71-14.56,3.68-1.99.63-4.02,1.13-6.08,1.49Z"/>
    <path class="cls-6" d="M806.83,685.66c-6.96-5.3-14.35-6.33-23.07-5.99-8.75.56-17.32,2.76-25.27,6.46-13.68,5.99-26.52,14.8-34.68,27.3-8.16,12.5-11.03,29.04-4.91,42.63.48,1.42,1.47,2.62,2.78,3.36,1.51.45,3.14.32,4.57-.34,15.55-5.06,31.22-10.19,45.5-18.14,14.28-7.95,27.32-18.98,34.99-33.41,1.97-3.41,3.22-7.18,3.68-11.09.42-3.94-.89-7.87-3.58-10.77"/>
    <path class="cls-11" d="M806.98,684.02c-.36.17-.74.32-1.12.45l-3.25,1.12-2.37.78-2.76,1.08c-1.96.8-4.31,1.59-6.66,2.76l-3.81,1.74c-1.31.6-2.63,1.36-4.03,2.15-2.82,1.38-5.67,3.15-8.62,4.95-13.04,8.06-24.64,18.25-34.3,30.16-2.15,2.8-4.31,5.39-6.03,8.01-.88,1.29-1.79,2.5-2.56,3.75-.78,1.25-1.51,2.41-2.15,3.55-1.46,2.15-2.56,4.31-3.6,6.25-.5.93-.99,1.79-1.42,2.61l-1.08,2.15c-.62,1.25-1.12,2.28-1.51,3.08-.18.37-.38.72-.6,1.06.1-.39.23-.78.41-1.14.36-.82.81-1.87,1.36-3.17.32-.69.65-1.46,1.01-2.28s.86-1.7,1.36-2.65c.99-1.87,2.05-4.07,3.47-6.33l2.15-3.62c.75-1.25,1.66-2.48,2.54-3.79,1.7-2.67,3.81-5.3,5.97-8.12,4.87-5.97,10.2-11.55,15.94-16.7,5.82-5.05,12.04-9.62,18.59-13.68,3.06-1.79,5.95-3.53,8.81-4.89,1.4-.71,2.74-1.44,4.07-2.05l3.86-1.68c2.46-1.14,4.76-1.9,6.74-2.63,1.01-.37,1.94-.73,2.8-1.01l2.39-.71,3.32-.95c.35-.12.71-.21,1.08-.26Z"/>
    <path class="cls-11" d="M752.5,713.45c-5.55,2.12-11.21,3.94-16.95,5.45-5.66,1.84-11.41,3.35-17.23,4.55,5.55-2.13,11.21-3.96,16.95-5.47,5.66-1.82,11.41-3.33,17.23-4.52Z"/>
    <path class="cls-11" d="M751.81,750.93c-.29-1.74-.42-3.51-.37-5.28-.11-3.27-.11-7.78,0-12.78.11-5,.41-9.5.69-12.75.05-1.77.27-3.53.67-5.26.14,1.76.14,3.54,0,5.3-.13,3.58-.26,7.93-.41,12.73-.15,4.8-.22,9.18-.32,12.75.06,1.76-.03,3.53-.26,5.28Z"/>
    <path class="cls-11" d="M783.86,734.6c-.26,0-1.12-9.16-1.9-20.49-.78-11.33-1.21-20.55-.95-20.57s1.12,9.16,1.92,20.51c.8,11.35,1.21,20.53.93,20.55Z"/>
    <path class="cls-11" d="M743.97,692.66c1.8-.22,3.62-.28,5.43-.17,3.36,0,7.97.13,13.08.3,5.11.17,9.74.37,13.1.56,1.82,0,3.63.18,5.41.54-1.8.21-3.62.26-5.43.15-3.36,0-7.99-.11-13.1-.28s-9.74-.39-13.08-.58c-1.81,0-3.62-.18-5.41-.52Z"/>
    <path class="cls-11" d="M820.96,804.32c-.08-.35-.12-.72-.11-1.08,0-.82,0-1.85-.15-3.12-.13-2.71-.15-6.64,0-11.48s.41-10.62.99-17c.58-6.38,1.55-13.38,2.87-20.68s2.95-14.18,4.61-20.38c1.66-6.2,3.43-11.7,5.06-16.29,1.64-4.59,3.02-8.25,4.09-10.77l1.23-2.89c.12-.35.29-.68.5-.99-.07.36-.18.72-.32,1.06l-1.06,2.95c-.97,2.52-2.26,6.23-3.79,10.77-1.53,4.55-3.19,10.13-4.85,16.31-1.66,6.18-3.19,13.06-4.52,20.32s-2.15,14.24-2.91,20.6c-.75,6.36-1.03,12.11-1.21,16.93s-.43,8.9-.43,11.55v3.12c.04.36.04.72,0,1.08Z"/>
    <path class="cls-11" d="M825.27,751.23c-.93,1.31-2.01,2.51-3.23,3.55-2.15,2.15-5.06,4.89-8.47,7.88-3.4,2.99-6.46,5.56-8.92,7.37-1.21,1.06-2.53,1.98-3.94,2.74,1.06-1.2,2.24-2.3,3.51-3.27l8.62-7.56,8.62-7.65c1.18-1.13,2.45-2.15,3.81-3.06Z"/>
    <path class="cls-11" d="M850.86,771.92c-1.28-1.49-2.44-3.09-3.45-4.78l-8.01-11.68c-3.1-4.42-5.92-8.38-8.19-11.59-1.21-1.55-2.31-3.18-3.27-4.89,1.4,1.39,2.68,2.89,3.83,4.48,2.15,2.87,5.26,6.87,8.42,11.44s5.88,8.77,7.78,11.87c1.11,1.63,2.07,3.35,2.89,5.15Z"/>
    <path class="cls-11" d="M837.42,706.98c.13.24-8.38,5.97-19.04,12.93s-19.39,12.24-19.56,12,8.38-5.97,19.02-12.93c10.64-6.96,19.43-12.3,19.58-12Z"/>
    <path class="cls-11" d="M861.44,732.84c-8.81-7.71-17.19-15.89-25.1-24.52,4.52,3.74,8.83,7.72,12.93,11.91,4.29,3.97,8.35,8.18,12.17,12.6Z"/>
    <path class="cls-6" d="M867.49,732.32l7.3-.6c5.2-.42,10.24-1.97,14.78-4.52,2.22-1.3,4.52-2.45,6.89-3.45,9.05-3.64,19.15-2.99,28.87-3.49,15.95-.8,31.57-4.8,45.95-11.74.84-.39,1.54-1.02,2-1.81,1.49-2.74-1.29-5.17-3.71-6.66-12.32-7.6-24.86-15.3-38.78-19.07-13.92-3.77-29.86-3.12-41.79,5.08-14,9.63-19.09,29.43-21.54,46.25"/>
    <path class="cls-11" d="M973.44,705.8c-.43-.15-.84-.35-1.23-.58l-3.47-1.81c-3.02-1.57-7.35-3.92-12.93-6.46-6.37-3.12-13-5.67-19.82-7.63-8.34-2.41-17.08-3.14-25.7-2.15-8.64.97-16.79,4.47-23.44,10.06-5.19,4.86-9.34,10.72-12.19,17.23-1.99,4.36-3.76,8.82-5.3,13.36-.56,1.53-.99,2.76-1.31,3.68-.13.44-.3.87-.52,1.27.08-.45.18-.9.32-1.34.3-.95.67-2.15,1.14-3.75,1.4-4.6,3.09-9.11,5.04-13.51,2.81-6.63,6.98-12.59,12.24-17.51,6.75-5.76,15.07-9.37,23.89-10.36,8.75-1.05,17.61-.31,26.07,2.15,6.86,2,13.52,4.64,19.88,7.88,5.45,2.71,9.74,5.13,12.69,6.83l3.38,1.96c.44.18.85.41,1.25.67Z"/>
    <path class="cls-11" d="M955.88,715.24c-.15.24-9.74-5.97-21.37-13.81-11.63-7.84-20.98-14.41-20.83-14.65s9.72,5.97,21.37,13.83c11.65,7.86,20.98,14.41,20.83,14.63Z"/>
    <path class="cls-11" d="M945.67,686.28c-2.25.76-4.6,1.19-6.98,1.25-2.35.35-4.74.35-7.09,0,2.32-.42,4.67-.66,7.02-.71,2.33-.37,4.69-.55,7.04-.54Z"/>
    <path class="cls-11" d="M903.77,680.83c-.78,1.79-1.84,3.44-3.15,4.89-1.09,1.69-2.43,3.22-3.96,4.52.78-1.76,1.85-3.38,3.15-4.8,1.09-1.72,2.43-3.27,3.96-4.61Z"/>
    <path class="cls-11" d="M912.35,720.88c-1.62-.67-3.16-1.51-4.61-2.5-2.76-1.68-6.46-4.14-10.49-7.02-4.03-2.89-7.5-5.64-10.04-7.65-1.42-1.01-2.75-2.15-3.96-3.4,1.52.81,2.97,1.76,4.31,2.84l10.21,7.41c3.96,2.89,7.63,5.43,10.3,7.24,1.51.91,2.94,1.94,4.29,3.08Z"/>
    <path class="cls-6" d="M878.26,763.41c-6.98-1.83-15.3,4.95-16.74,12.02-1.44,7.07,1.21,14.3,4.31,20.83,6.63,14.63,16.5,27.57,28.87,37.83,12.46,10.25,28.02,15.97,44.14,16.24-2.95-13.7.78-28.01-.86-41.94-2.99-25.26-23.03-45.1-48.32-47.85-4.46-.47-9.63-1.18-11.4,2.93"/>
    <path class="cls-11" d="M938.84,850.27c-.35-.12-.68-.28-.99-.47-.93-.49-1.81-1.08-2.63-1.74-2.92-2.55-5.27-5.69-6.87-9.22-1.12-2.15-2.37-4.5-3.58-7.09l-3.77-8.32c-1.34-3.06-2.88-6.02-4.61-8.88-1.9-3.02-4.01-5.91-6.33-8.62-4.78-5.62-9.91-10.47-14.37-15.08-4.01-4.05-7.67-8.44-10.92-13.12-2.19-3.18-3.99-6.61-5.36-10.21-.43-1.29-.75-2.28-.93-2.99-.12-.35-.19-.71-.22-1.08,0,0,.47,1.42,1.51,3.94,1.49,3.51,3.35,6.85,5.56,9.95,3.31,4.6,6.99,8.92,11.01,12.93,4.46,4.59,9.63,9.44,14.46,15.08,2.38,2.75,4.54,5.68,6.46,8.77,1.72,2.9,3.26,5.91,4.61,9.01l3.68,8.34c1.16,2.59,2.37,4.95,3.45,7.13,1.5,3.49,3.7,6.63,6.46,9.24,2.05,1.68,3.43,2.35,3.38,2.43Z"/>
    <path class="cls-11" d="M902.82,838.87c.06-1.58.27-3.16.65-4.7.56-2.87,1.44-6.81,2.65-11.12s2.52-8.12,3.55-10.77c.48-1.5,1.11-2.94,1.9-4.31-.27,1.56-.69,3.09-1.25,4.57-.86,2.78-2.05,6.64-3.25,10.9-1.21,4.27-2.15,8.19-2.93,11.01-.29,1.51-.73,2.99-1.31,4.42Z"/>
    <path class="cls-11" d="M937.51,805.24c-1.67-.24-3.31-.62-4.91-1.14-2.99-.78-7.15-1.85-11.78-2.89s-8.83-1.85-11.89-2.43c-1.67-.21-3.31-.58-4.91-1.1,1.68-.02,3.36.12,5.02.41,3.1.41,7.37,1.12,12,2.15s8.79,2.15,11.76,3.19c1.64.42,3.22,1.03,4.72,1.81Z"/>
    <path class="cls-11" d="M876.84,815c.08-1.83.33-3.65.75-5.43.62-3.34,1.59-7.91,2.91-12.93s2.69-9.5,3.77-12.69c.51-1.77,1.18-3.48,2-5.13-.3,1.81-.74,3.59-1.34,5.32-.93,3.25-2.15,7.73-3.51,12.73-1.36,5-2.37,9.52-3.17,12.82-.31,1.81-.79,3.58-1.42,5.3Z"/>
    <path class="cls-11" d="M921.5,775.92c0,.26-8.75-.43-19.39-1.57-10.64-1.14-19.39-2.28-19.39-2.54s8.75.43,19.39,1.57c10.64,1.14,19.41,2.28,19.39,2.54Z"/>
    <path class="cls-4" d="M915.12,881.59c0,.26-30.63.47-68.4.47s-68.42-.22-68.42-.47,30.63-.5,68.42-.5,68.4.22,68.4.5Z"/>
    <path class="cls-4" d="M893.82,920.99c0,.28-20.64.5-46.1.5s-46.08-.22-46.08-.5,20.64-.47,46.08-.47,46.1.22,46.1.47Z"/>
    <path class="cls-4" d="M893,926.72c0,.26-20.27.47-45.24.47s-45.24-.22-45.24-.47,20.27-.5,45.24-.5,45.24.13,45.24.5Z"/>
    <path class="cls-4" d="M894.62,916.36c0,.26-21.35.47-47.67.47s-47.67-.22-47.67-.47,21.35-.5,47.67-.5,47.67.22,47.67.5Z"/>
  </g>
  <g id="freepik--numerical-signs--inject-2">
    <path class="cls-11" d="M885.59,86.26c0,.32-14.46.5-32.31.41-17.86-.09-32.31-.43-32.31-.73s14.46-.5,32.31-.41,32.31.43,32.31.73Z"/>
    <path class="cls-11" d="M853.51,118.38c-.3,0-.69-14.43-.88-32.31-.19-17.88,0-32.31.24-32.31s.71,14.43.88,32.31c.17,17.88.09,32.31-.24,32.31Z"/>
    <path class="cls-11" d="M919.54,568.42c-6.76-2.82-13.38-5.98-19.82-9.48-6.64-3.17-13.11-6.68-19.39-10.51.13-.26,9.01,3.99,19.82,9.5,10.81,5.52,19.54,10.23,19.39,10.49Z"/>
    <path class="cls-11" d="M890.29,578.16c2.71-6.81,5.79-13.48,9.2-19.97,3.06-6.63,6.46-13.11,10.19-19.39-2.72,6.81-5.79,13.47-9.2,19.97-3.07,6.63-6.47,13.1-10.19,19.39Z"/>
    <path class="cls-11" d="M146.23,416.73c0,.3-10.21,4.67-23.03,9.78-12.82,5.11-23.33,9.03-23.44,8.75s10.19-4.67,23.03-9.78c12.84-5.11,23.31-9.03,23.44-8.75Z"/>
    <path class="cls-11" d="M122.45,402.73s-.37-.62-1.14-1.62c-1.1-1.37-2.61-2.35-4.31-2.8-4.07-1.09-8.25,1.33-9.33,5.4-1.09,4.07,1.33,8.25,5.4,9.33,3.25.87,6.69-.5,8.45-3.36.94-1.5,1.36-3.26,1.21-5.02,0-1.25-.37-1.92-.28-1.96.39.57.64,1.23.71,1.92.35,1.88.01,3.82-.95,5.47-1.44,2.55-4.1,4.18-7.02,4.31-4.76.18-8.75-3.54-8.93-8.29-.1-2.59.98-5.08,2.92-6.79,2.19-1.93,5.22-2.59,8.01-1.74,1.83.53,3.42,1.7,4.46,3.3.41.55.68,1.18.8,1.85Z"/>
    <path class="cls-11" d="M138.6,443.25c-.11,0-.37-.62-1.14-1.62-1.09-1.38-2.61-2.36-4.31-2.8-2.51-.64-5.18.01-7.11,1.74-3.12,2.81-3.37,7.62-.55,10.74,1.48,1.65,3.61,2.56,5.83,2.51,2.63-.02,5.06-1.38,6.46-3.6.93-1.5,1.35-3.26,1.21-5.02,0-1.25-.39-1.92-.28-1.96.39.56.64,1.21.71,1.9.34,1.89,0,3.84-.97,5.49-1.43,2.55-4.08,4.18-7,4.31-4.76.18-8.75-3.54-8.93-8.29-.1-2.59.98-5.08,2.92-6.79,2.2-1.9,5.22-2.57,8.01-1.77,1.83.55,3.41,1.72,4.46,3.32.37.55.61,1.17.69,1.83Z"/>
  </g>
  <g id="freepik--speech-bubble--inject-2">
    <path class="cls-11" d="M266.68,192.79s.24.58.65,1.7,1.01,2.82,1.79,4.98c1.55,4.31,3.83,10.77,6.74,19.13l.15.39h-.43l-27.66-3.83h.28c-9.65,7.58-21.08,12.57-33.2,14.5-3.41.55-6.86.84-10.32.88-1.77,0-3.55-.15-5.36-.19l-2.69-.13c-.9,0-1.81-.26-2.71-.39-7.57-.92-14.93-3.11-21.78-6.46-7.31-3.54-13.98-8.27-19.76-13.98-28.33-28.29-28.37-74.19-.08-102.52,3.53-3.54,7.42-6.7,11.61-9.44,6.44-4.24,13.54-7.39,21-9.33l2.74-.71,1.36-.34,1.38-.22,5.52-.82c1.83-.17,3.66-.22,5.49-.32,1.81-.13,3.62-.13,5.43,0,1.79.15,3.6,0,5.34.39l5.23.82c1.72.28,3.4.82,5.08,1.23l2.5.65c.82.26,1.62.58,2.41.86,17.71,6.14,32.32,18.95,40.74,35.7,4.39,8.73,6.97,18.25,7.58,28.01.82,12.07-1.5,24.14-6.72,35.05-.71,1.44-1.27,2.52-1.66,3.21s-.65,1.08-.65,1.08c0,0,.15-.37.52-1.1s.93-1.83,1.57-3.27c1.92-4.22,3.44-8.61,4.52-13.12,1.75-7.13,2.35-14.49,1.77-21.8-1.85-28.71-20.74-53.5-47.93-62.88-.8-.28-1.57-.58-2.39-.84l-2.46-.65c-1.66-.39-3.32-.93-5.02-1.18l-5.17-.8c-1.72-.3-3.49-.24-5.28-.37-1.78-.14-3.56-.14-5.34,0-1.79,0-3.6.15-5.41.3l-5.43.84-1.36.22-1.36.34-2.69.69c-7.35,1.92-14.33,5.03-20.66,9.22-33.01,21.48-42.35,65.66-20.86,98.66,7.11,10.92,17.07,19.68,28.81,25.34,6.77,3.35,14.05,5.53,21.54,6.46.88.13,1.77.3,2.67.39l2.67.13c1.79,0,3.53.26,5.28.22,3.41-.03,6.82-.31,10.19-.84,11.99-1.85,23.32-6.72,32.9-14.18h.15l27.7,3.96-.28.32c-2.82-8.34-5-14.82-6.46-19.39l-1.66-4.98c-.39-.99-.54-1.57-.54-1.57Z"/>
    <path class="cls-6" d="M207.33,141.31c1,.49,1.63,1.5,1.64,2.61v14.35c-.01,1.59-1.32,2.88-2.91,2.86-.25,0-.51-.04-.75-.11-2.39-.61-4.93-.22-7.02,1.08-1.92,1.12-3.31,2.97-3.83,5.13-.37,2.2.16,4.46,1.46,6.27,1.38,2.04,3.51,3.45,5.92,3.92,5.01.5,9.69-2.53,11.29-7.3.57-1.49,2.24-2.23,3.73-1.67,1.37.52,2.13,1.99,1.77,3.41-2.48,7.47-9.87,12.17-17.69,11.25-3.98-.7-7.5-2.99-9.76-6.33-2.22-3.12-3.08-7.01-2.37-10.77.85-3.71,3.19-6.91,6.46-8.85,2.39-1.44,5.14-2.18,7.93-2.15v-11.07c0-1.59,1.28-2.87,2.87-2.89.44,0,.87.09,1.27.28Z"/>
    <path class="cls-6" d="M203.36,135.27c-.04-1.31,1-2.4,2.3-2.43,1.31-.04,2.4,1,2.43,2.3.04,1.31-1,2.4-2.3,2.43,0,0-.01,0-.02,0-1.3.01-2.37-1.01-2.41-2.31Z"/>
  </g>
</svg>