<?xml version="1.0" encoding="UTF-8"?>
<svg id="Layer_2" data-name="Layer 2" xmlns="http://www.w3.org/2000/svg" viewBox="0 0 1000 1000">
  <defs>
    <style>
      .cls-1, .cls-2, .cls-3, .cls-4, .cls-5, .cls-6, .cls-7, .cls-8, .cls-9, .cls-10, .cls-11, .cls-12, .cls-13 {
        stroke-width: 0px;
      }

      .cls-1, .cls-12 {
        fill: #000;
      }

      .cls-2 {
        fill: #e0e0e0;
      }

      .cls-3 {
        fill: #eb996e;
      }

      .cls-4 {
        fill: #455a64;
      }

      .cls-5 {
        fill: #f5f5f5;
      }

      .cls-6 {
        fill: #09f;
      }

      .cls-7 {
        fill: #ffbe9d;
      }

      .cls-8 {
        fill: #ebebeb;
      }

      .cls-9 {
        fill: #40bbff;
      }

      .cls-10 {
        fill: #263238;
      }

      .cls-11 {
        fill: #fafafa;
      }

      .cls-14 {
        opacity: .3;
      }

      .cls-12 {
        isolation: isolate;
      }

      .cls-12, .cls-15 {
        opacity: .4;
      }

      .cls-13 {
        fill: #fff;
      }
    </style>
  </defs>
  <g id="freepik--background-complete--inject-7">
    <rect class="cls-2" x="429.38" y="77" width="200.07" height="290.01"/>
    <rect class="cls-5" x="419.34" y="77" width="200.07" height="290.01"/>
    <rect class="cls-13" x="444.21" y="108.42" width="150.36" height="227.19"/>
    <path class="cls-2" d="M594.57,335.61v-16.8c0-10.88,0-26.75-.14-46.81,0-40.05-.14-96.78-.24-163.58l.5.5h-150.34l.54-.54v227.19l-.44-.44,109.45.22,30.17.12h10.68-10.52l-30.17.12-109.71.22h-.44v-.42c0-62.46,0-141.49-.1-227.19v-.54h151.41v.5c-.1,66.92-.2,123.77-.26,163.92,0,19.99-.1,35.81-.12,46.67v15.53c0,.72-.26,1.33-.26,1.33Z"/>
    <path class="cls-2" d="M619.98,77c-1.04,1.85-2.26,3.59-3.64,5.19-2.31,3.12-5.61,7.34-9.39,11.91s-7.28,8.63-9.88,11.51c-1.33,1.62-2.81,3.12-4.41,4.49,1.13-1.77,2.41-3.44,3.82-4.99l9.8-11.69,9.62-11.71c1.24-1.67,2.6-3.25,4.08-4.71Z"/>
    <path class="cls-13" d="M595.33,334.86c7.44,11.89,16.22,22.9,26.15,32.81"/>
    <path class="cls-2" d="M621.56,367.69c-1.67-1.22-3.21-2.62-4.59-4.16-2.68-2.72-6.26-6.62-9.9-11.16-3.1-3.87-6.01-7.9-8.71-12.07-1.2-1.68-2.22-3.48-3.04-5.37,1.34,1.56,2.58,3.21,3.68,4.95,2.21,3.1,5.31,7.32,8.93,11.85,3.62,4.53,7.06,8.49,9.6,11.33,1.45,1.45,2.79,3.01,4.02,4.65Z"/>
    <path class="cls-13" d="M419.32,366.78l26.15-32.35"/>
    <path class="cls-2" d="M445.53,334.44c-3.94,5.72-8.18,11.23-12.69,16.51-4.24,5.5-8.75,10.78-13.52,15.83,3.92-5.73,8.15-11.24,12.67-16.51,4.23-5.51,8.75-10.79,13.54-15.83Z"/>
    <path class="cls-2" d="M419.34,77c4.51,4.84,8.76,9.91,12.73,15.21,4.23,5.09,8.19,10.39,11.87,15.89-4.5-4.83-8.73-9.91-12.67-15.21-4.26-5.08-8.24-10.38-11.93-15.89Z"/>
    <rect class="cls-2" x="497.37" y="154.55" width="50.35" height="142.94"/>
    <polygon class="cls-2" points="927.36 108.86 927.36 262.22 707.12 262.22 699.17 109.95 927.36 108.86"/>
    <rect class="cls-13" x="699.17" y="109.95" width="220.27" height="151.95"/>
    <path class="cls-2" d="M920.48,262.95h-222.36V108.9h222.36v154.04ZM700.22,260.94h218.17V111h-218.17v149.94Z"/>
    <rect class="cls-13" x="723.03" y="128.82" width="172.55" height="114.2"/>
    <path class="cls-2" d="M895.58,128.82h-12.77l-35.56.14-124.29.36.5-.5v114.2h0l-.54-.54h172.55l-.44.44c0-34.76.18-63.26.24-83.1v-31.02,8.05c0,5.29,0,13.01.1,22.87,0,19.91.14,48.5.24,83.38v.42h-.44l-172.21.06h-.54v-.6h0v-114.66h.54l124.54.24,35.44.12h11.79l.86.14Z"/>
    <path class="cls-2" d="M699.17,109.53c1.36.66,2.63,1.48,3.78,2.45,2.25,1.61,5.33,3.92,8.65,6.58s6.22,5.15,8.27,7.04c1.18.94,2.24,2.02,3.16,3.22-4.18-2.93-8.21-6.07-12.07-9.41-4.13-3.05-8.07-6.34-11.79-9.88Z"/>
    <path class="cls-2" d="M919.44,109.95c-3.63,3.55-7.5,6.84-11.59,9.86-3.87,3.29-7.97,6.3-12.27,9.01,3.63-3.55,7.5-6.84,11.59-9.86,3.87-3.29,7.97-6.3,12.27-9.01Z"/>
    <path class="cls-13" d="M919.25,261.92l-24.56-19.89"/>
    <path class="cls-2" d="M894.69,242.03c4.43,2.87,8.65,6.05,12.63,9.51,4.21,3.19,8.19,6.65,11.93,10.38-4.42-2.88-8.64-6.07-12.61-9.53-4.21-3.19-8.2-6.65-11.95-10.36Z"/>
    <path class="cls-2" d="M699.17,261.9c3.58-3.52,7.41-6.78,11.47-9.76,3.8-3.26,7.83-6.24,12.07-8.91-3.59,3.52-7.42,6.78-11.47,9.76-3.8,3.26-7.83,6.24-12.07,8.91Z"/>
    <rect class="cls-2" x="758.07" y="164.4" width="108.56" height="38.24"/>
    <polygon class="cls-2" points="302.09 108.84 302.09 262.18 81.82 262.18 73.88 109.91 302.09 108.84"/>
    <rect class="cls-13" x="73.88" y="109.91" width="220.27" height="151.95"/>
    <path class="cls-2" d="M295.19,262.91H72.83V108.86h222.36v154.04ZM74.92,260.9h218.17V110.96H74.92v149.94Z"/>
    <rect class="cls-13" x="97.73" y="128.8" width="172.55" height="114.2"/>
    <path class="cls-2" d="M270.35,128.8h-12.77l-35.56.14-124.21.24.5-.48v114.18h0l-.54-.54,172.55.1-.42.44c0-34.76.16-63.24.22-83.1v-31.02,30.94c0,19.89.14,48.48.24,83.36v.42h0l-172.55.12h-.54v-.62h0v-114.66h.5l124.54.24,35.44.14h11.79l.82.1Z"/>
    <path class="cls-2" d="M73.88,109.49c1.37.65,2.64,1.48,3.8,2.45,2.25,1.63,5.31,4.02,8.63,6.58,3.32,2.55,6.22,5.17,8.27,7.04,1.19.93,2.25,2.02,3.16,3.24-.2.22-5.49-4.14-12.07-9.43-4.13-3.05-8.07-6.34-11.79-9.88Z"/>
    <path class="cls-2" d="M294.14,109.91c-3.63,3.55-7.5,6.85-11.59,9.86-3.88,3.29-7.98,6.31-12.27,9.03,3.62-3.56,7.49-6.87,11.59-9.88,3.87-3.29,7.97-6.3,12.27-9.01Z"/>
    <path class="cls-13" d="M293.96,261.88l-24.54-19.89"/>
    <path class="cls-2" d="M269.42,241.99c4.42,2.88,8.64,6.07,12.61,9.53,4.21,3.18,8.19,6.64,11.93,10.36-4.42-2.88-8.63-6.06-12.61-9.51-4.21-3.18-8.2-6.65-11.93-10.38Z"/>
    <path class="cls-2" d="M73.88,261.86c3.59-3.52,7.42-6.78,11.47-9.76,3.81-3.25,7.84-6.23,12.07-8.91-3.58,3.52-7.41,6.78-11.47,9.76-3.79,3.27-7.83,6.25-12.07,8.91Z"/>
    <rect class="cls-2" x="132.78" y="164.36" width="108.56" height="38.24"/>
    <path class="cls-2" d="M736.42,753.55s-67.79,37.78-68.23,53.31c-.16,5.01-2.01,88.65-2.01,113.07h77.93l1.31-83.18,7.54,83.18h80.62l1.49-80.58s45.4-7.93,59.82-17.08c14.42-9.15-5.87-74.21-5.87-74.21l-152.6,5.49Z"/>
    <path class="cls-5" d="M753.82,639.25c-2.15,0-17.2,27.26-28.16,47.75-7.33,13.62-21.97,21.67-37.39,20.58h0c-18.41-1.26-33.47-15.15-36.21-33.39l-9.27-106.07,37.15-9.33,15.15,83.06,9.31-26.39,49.42,23.8Z"/>
    <path class="cls-5" d="M680.26,566.47l-1.23-18.61s-5.25-41.78-5.25-45.86c0-4.71-2.27-5.85-4.02-5.73-2.7.18-4.63,3.52-4.75,7.56,0,1.39.12,23.47.12,23.47-1.27-2.11-2.7-4.13-4.26-6.03-3.28-4.14-10.94-6.5-18.81-6.26-7.87.24-10.06,1.03-10.06,4.02.06,1.17.62,2.26,1.55,2.98,1.46,1.21,3.3,1.84,5.19,1.79,12.61-.24,15.99,6.5,15.99,6.5l.16,2.43s-7.66-5.47-13.76-3.16c-.9.34-1.73.85-2.43,1.51-5.45.04-9.85,4.49-9.81,9.94.01,1.67.44,3.31,1.26,4.76.69,1.59,2.3,2.58,4.02,2.47.85-.26,1.62-.73,2.23-1.37.35-.3.73-.58,1.13-.82l1.41,6.76s4.02,15.03,4.97,21.74"/>
    <path class="cls-5" d="M676.68,564.96c-2.48.39-4.92-.88-6.03-3.12-1.25-2.01-1.77-4.45-2.86-6.58-3.28-6.38-11.22-9.43-14.2-15.95-.42-.93-.64-2.17.16-2.78s1.79-.1,2.59.34l20.78,11.51"/>
    <path class="cls-2" d="M677.18,548.39c-.63-.59-1.34-1.09-2.11-1.47-1.41-.89-3.46-2.01-6.03-3.58l-9.01-5.17-2.61-1.47c-.97-.76-2.19-1.12-3.42-.99-.78.26-1.32.97-1.37,1.79-.04.66.07,1.31.34,1.91.48,1.07,1.08,2.08,1.79,3.02,2.88,3.74,6.58,6.03,9.27,8.81,1.3,1.24,2.41,2.66,3.3,4.22.78,1.47,1.27,3.02,1.87,4.41.77,2.36,2.53,4.25,4.83,5.19.84.36,1.8.32,2.61-.1-.83,0-1.65-.13-2.43-.4-1.99-1.05-3.45-2.88-4.02-5.05-.54-1.35-.99-2.94-1.79-4.57-.89-1.69-2.04-3.23-3.4-4.57-2.76-2.9-6.44-5.29-9.07-8.77-.65-.84-1.19-1.75-1.63-2.72-.4-.89-.34-1.81.18-1.91s1.51.34,2.39.84l2.64,1.43,9.15,4.91c2.64,1.39,4.75,2.47,6.24,3.22.72.43,1.49.77,2.29,1.01Z"/>
    <path class="cls-2" d="M655.18,533c-.15-1.51-.65-2.96-1.45-4.24-.95-1.32-2.29-2.3-3.84-2.8-1.96-.59-3.99-.88-6.03-.86-2.09.04-4.18-.14-6.24-.54-1.72-.34-3.32-1.14-4.63-2.31-.91-.83-1.37-2.04-1.25-3.26.12-.82.38-1.23.42-1.21s0,.46,0,1.23c0,1.08.49,2.11,1.33,2.8,1.27,1.03,2.78,1.72,4.39,2.01,1.99.34,4.01.49,6.03.46,2.11-.03,4.22.3,6.22.99,1.66.59,3.08,1.71,4.02,3.2.63,1,.99,2.14,1.07,3.32.09.41.08.83-.04,1.23Z"/>
    <path class="cls-2" d="M665.09,502.26c.15,1.46.15,2.94,0,4.41,0,3,0,6.6-.12,10.56s0,7.54,0,10.56c.11,1.46.07,2.93-.1,4.39-.33-1.43-.5-2.9-.52-4.37-.18-2.7-.3-6.46-.3-10.58s.18-7.89.38-10.6c.07-1.47.3-2.94.66-4.37Z"/>
    <path class="cls-2" d="M650.19,537.97c-.44-.12-.87-.28-1.27-.5-1.06-.54-2.3-.6-3.4-.16-.68.37-1.11,1.06-1.15,1.83-.04.96.03,1.92.22,2.86.24,1.18.05,2.41-.54,3.46-.77,1.09-2.02,1.74-3.36,1.75-1.31,0-2.55-.55-3.44-1.51-.84-.83-1.41-1.9-1.63-3.06-.28-1.87-.28-3.78,0-5.65.17-1.27.55-2.5,1.13-3.64.2-.43.5-.8.89-1.07,0,0-.24.42-.58,1.23-.44,1.14-.72,2.34-.82,3.56-.2,1.8-.17,3.62.1,5.41.38,2.1,2.13,3.68,4.26,3.84,1.05,0,2.05-.5,2.68-1.35.49-.87.65-1.9.44-2.88-.18-1.01-.22-2.04-.12-3.06.09-.99.69-1.85,1.59-2.27,1.26-.47,2.67-.32,3.8.4.87.44,1.25.76,1.21.8Z"/>
    <path class="cls-2" d="M637.62,545.03s.16.46-.12,1.25c-.45,1.12-1.41,1.96-2.57,2.27-1.76.39-3.6-.19-4.83-1.51-1.44-1.58-2.21-3.66-2.15-5.79,0-2.11.66-4.18,1.89-5.89,1.03-1.4,2.42-2.49,4.02-3.16,1.04-.46,2.16-.73,3.3-.78.41-.05.83,0,1.23.12-1.47.22-2.9.63-4.26,1.23-1.42.71-2.63,1.76-3.54,3.06-1.09,1.6-1.67,3.49-1.67,5.43-.05,1.92.62,3.79,1.87,5.25,1.01,1.13,2.52,1.67,4.02,1.45,1.02-.23,1.89-.89,2.39-1.81.34-.66.34-1.11.42-1.11Z"/>
    <path class="cls-2" d="M652.8,559.79c.69-.21,1.42-.21,2.11,0,1.79.4,3.4,1.37,4.59,2.78l-.74.22c.11-.99.28-1.97.5-2.94.65-3.4,2.22-6.55,4.55-9.11-1.57,3-2.81,6.15-3.7,9.41-.22.99-.38,2.01-.5,2.84l-.14.99-.6-.76c-1.04-1.3-2.44-2.28-4.02-2.82-1.27-.46-2.03-.5-2.03-.6Z"/>
    <path class="cls-2" d="M652.4,522.22c.2.1-.64,1.69-2.59,2.51-1.1.64-2.45.7-3.6.16,0-.24,1.59-.2,3.26-.97s2.74-1.85,2.94-1.71Z"/>
    <path class="cls-2" d="M887.99,655.08l65.01-15.99s-4.12-10.06-15.59-44.05c-10.6-31.42-19.75-42.24-19.75-42.24,0,0-33.21-18.33-52.7-28.93l-13.66-14.42v1.45l-12.69,5.65-20.12,8.83-19.31-7.08-8.05-2.98-2.84,5.63-34.46,9.47s-24.58,8.95-40.41,45.08c-19.49,44.52-20.88,52.3-20.88,52.3l50.89,29.55-8.43,99.45,155.77.1-3.08-76.2.28-25.63Z"/>
    <path class="cls-8" d="M879.02,576.67c0-.54.07-1.08.18-1.61.27-1.45.68-2.86,1.23-4.22,1.87-4.51,4.94-8.43,8.87-11.33,3.94-2.86,8.51-4.77,13.32-5.55,1.44-.26,2.9-.41,4.37-.44.53-.06,1.07-.06,1.61,0,0,.12-2.29.12-5.89.84-4.69.91-9.13,2.82-13.01,5.61-3.84,2.84-6.89,6.63-8.83,11-.73,1.86-1.34,3.76-1.83,5.69Z"/>
    <path class="cls-8" d="M953.01,639.09l-.34.12-.99.26-3.86,1.01-14.22,3.5-46.99,11.37h-.6v-.34c-3.14-18.53-6.03-35.28-8.05-47.47l-2.35-14.38c-.26-1.67-.46-2.98-.62-3.92l-.14-1.01v-.36c0,.11,0,.23,0,.34,0,.26.14.6.22,1.01.16.95.42,2.25.72,3.9.6,3.44,1.49,8.33,2.55,14.34,2.11,12.19,5.03,28.93,8.23,47.45l-.38-.26h.28l47.03-11.16,14.26-3.32,3.88-.86,1.03-.2h.34Z"/>
    <path class="cls-8" d="M788.28,520.95c.1.33.18.66.22,1.01.14.74.3,1.67.48,2.82h0c4.26,5.2,9.02,9.95,14.22,14.2l1.91,1.53c.6.48,1.31.95,1.81.68s.8-1.11,1.19-1.73l1.11-2.01c1.47-2.49,2.88-4.69,4.02-6.48,1.15-1.79,2.27-3.24,3.04-4.18.39-.48.69-.84.91-1.09l.36-.34c-.32.55-.68,1.07-1.07,1.57-.7,1.01-1.69,2.45-2.86,4.28-1.17,1.83-2.53,4.02-4.02,6.54l-1.09,1.91-.54,1.01c-.2.41-.51.75-.91.99-.45.21-.96.21-1.41,0-.38-.19-.74-.43-1.07-.7l-2.01-1.53c-5.25-4.26-9.98-9.13-14.08-14.5h0c-.12-1.15-.24-2.01-.32-2.84-.03-.38,0-.76.1-1.13Z"/>
    <path class="cls-8" d="M862.83,523.06s-.16.12-.5.34l-1.53.86-5.59,3.2c-4.73,2.7-11.2,6.52-18.1,10.98-3.02,2.01-5.87,3.82-8.49,5.57l-.26.18-.16-.28c-2.9-5.07-5.27-9.45-6.84-12.63-.78-1.59-1.37-2.86-1.73-3.74-.21-.45-.38-.92-.5-1.41.26.43.49.87.68,1.33.42.84,1.07,2.01,1.89,3.66,1.65,3.1,4.02,7.46,7.02,12.49h-.42c2.57-1.77,5.43-3.68,8.45-5.61,7.02-4.47,13.54-8.25,18.33-10.84,2.39-1.31,4.34-2.31,5.71-3.02l1.57-.76.48-.32Z"/>
    <path class="cls-5" d="M851.3,510.95l.16-82.27c.07-24.31-19.57-44.07-43.88-44.15-.39,0-.79,0-1.18.01h-.66c-23.93,2-42.32,22.05-42.24,46.06,0,21,.4,43.79,1.47,54.94,2.25,23.66,26.25,25.39,26.25,25.39v4.32l27.4,10.06,32.69-14.36Z"/>
    <path class="cls-8" d="M791.12,510.65c10.96-.7,21.46-4.64,30.17-11.33,0,0-5.89,17.64-29.71,17.46l-.46-6.14Z"/>
    <path class="cls-2" d="M772.79,443.55c.13,1.84,1.7,3.23,3.54,3.14,1.79,0,3.24-1.45,3.24-3.24,0-.03,0-.07,0-.1-.13-1.84-1.7-3.23-3.54-3.14-1.79,0-3.24,1.45-3.24,3.24,0,.03,0,.07,0,.1Z"/>
    <path class="cls-2" d="M769.53,440.11c.46.4,2.86-1.69,6.5-2.01s6.46,1.31,6.82.82-.32-.97-1.55-1.71c-1.66-.97-3.58-1.4-5.49-1.23-1.9.15-3.7.91-5.15,2.15-1.05,1.01-1.35,1.83-1.13,1.97Z"/>
    <path class="cls-2" d="M808.22,442.12c.14,1.84,1.72,3.23,3.56,3.14,1.78,0,3.22-1.44,3.22-3.22,0-.04,0-.08,0-.12-.13-1.84-1.7-3.23-3.54-3.14-1.8.01-3.25,1.48-3.24,3.28,0,.02,0,.04,0,.06Z"/>
    <path class="cls-2" d="M805.42,437.87c.44.4,2.86-1.71,6.5-2.01s6.46,1.31,6.82.82-.3-.99-1.55-1.73c-1.67-.96-3.59-1.38-5.51-1.21-1.89.15-3.69.9-5.13,2.13-1.13.99-1.39,1.81-1.13,1.99Z"/>
    <path class="cls-2" d="M794.4,465.95c-1.98-.43-4.01-.62-6.03-.56-.95,0-1.83-.14-2.01-.76-.16-.95-.02-1.93.4-2.8.68-2.33,1.41-4.77,2.15-7.32,3-10.38,5.07-18.91,4.65-19.01s-3.18,8.21-6.16,18.61c-.72,2.55-1.41,4.99-2.01,7.34-.49,1.17-.55,2.47-.18,3.68.33.64.94,1.1,1.65,1.23.53.07,1.06.07,1.59,0,1.99.12,3.99-.01,5.95-.4Z"/>
    <path class="cls-2" d="M805.42,467.58c-.6,0-.28,4.02-3.42,7.06-3.14,3.04-7.4,3-7.38,3.56,0,.24,1.01.68,2.78.58,2.32-.15,4.51-1.12,6.18-2.74,1.61-1.55,2.56-3.66,2.64-5.89-.1-1.67-.62-2.62-.78-2.57Z"/>
    <path class="cls-2" d="M803.25,423.67c.44.97,4.02.2,8.35.36s7.87,1.03,8.37.1c.22-.44-.46-1.33-2.01-2.17-3.96-2.08-8.66-2.2-12.73-.34-1.43.76-2.15,1.61-1.97,2.05Z"/>
    <path class="cls-2" d="M770,429.51c.7.76,3.14-.3,6.16-.58s5.61.1,6.14-.82c.22-.44-.24-1.23-1.43-2.01-1.57-.83-3.37-1.16-5.13-.93-1.76.16-3.43.86-4.77,2.01-1.01,1.07-1.29,1.95-.97,2.33Z"/>
    <path class="cls-2" d="M823.52,404.84h.14c4.01,2.67,6.85,6.78,7.93,11.49.02.16.06.31.1.46,1.49,6.7,1.89,13.58,3.44,20.24,1.55,6.66,1.27,11.77,7.93,13.28,3.59.77,7.28-.73,9.31-3.78.49-.98.69-2.07.58-3.16-.1-16.43,3.22-22.81,1.77-39.87-.37-4.64-2.96-8.81-6.94-11.2-3.78-2.27-8.37-4.57-12.17-2.35-3.8,2.21-8.35,10.06-11.16,13.46"/>
    <path class="cls-5" d="M844.36,440.11c.4-.2,15.89-6.16,16.72,10.06.82,16.21-15.65,13.72-15.71,13.26s-1.01-23.31-1.01-23.31Z"/>
    <path class="cls-8" d="M850.02,457s.3.18.78.36c.68.28,1.44.28,2.11,0,1.69-.7,3-3.5,2.92-6.44-.01-1.4-.35-2.78-.99-4.02-.38-.99-1.21-1.74-2.23-2.01-.68-.16-1.38.21-1.63.86-.2.46,0,.78-.16.8s-.36-.24-.28-.93c.07-.41.29-.78.6-1.05.42-.36.97-.54,1.53-.5,1.37.2,2.54,1.1,3.1,2.37.76,1.38,1.17,2.91,1.21,4.49,0,3.26-1.47,6.42-3.78,7.22-.87.3-1.82.18-2.59-.3-.52-.48-.64-.84-.58-.86Z"/>
    <path class="cls-2" d="M836.44,392.47c3.46-6.8-8.25-15.21-16.45-17.06-8.21-1.85-18.41,2.9-26.15,6.2-4.89,2.01-9.7,4.83-15.01,5.05-3.56-.07-7.09-.67-10.48-1.77-3.39-1.11-6.97-1.51-10.52-1.19-3.59.37-6.68,2.69-8.05,6.03-1.07,3.38,1.23,7.72,4.79,7.93-4.02-1.9-8.81-.19-10.72,3.83-1.9,4.02-.19,8.81,3.83,10.72,1.87.89,4.02,1.02,5.99.36-2.45-1.55-5.75,1.63-5.23,4.49s3.32,4.73,6.03,5.67c7,2.39,14.81.8,21.58-2.13,6.78-2.94,12.99-7.14,19.71-10.24s17.94-8.59,25.1-6.72c5.27,1.39,9.35,7.26,12.07,5.65,2.66-1.7,4.34-4.56,4.53-7.7.14-3.1-.23-6.21-1.09-9.19"/>
    <path class="cls-5" d="M947.34,640.62l23.03,54.96c4.21,10.07,3.47,21.54-2.01,30.98h0c-7.07,12.18-20.78,18.91-34.74,17.06l-80.46-7.82,1.49-31.82,59.4-9.45-16.51-41.76,49.81-12.13Z"/>
    <path class="cls-5" d="M855.57,704.14s-13.01-2.88-18.59-4.02c-1.81-.36-3.4-1.37-5.17-1.85-8.73-2.25-19.41-7.87-21.83-10.24-4.2-4.12-7.3,2.23-3.12,7.42,2.05,2.74,4.55,5.11,7.4,7l-17.8,4.67c-.92.24-1.72.82-2.23,1.63l-13.74,21.68c-1.3,1.76-1.08,4.21.5,5.71.77.82,2.04.92,2.92.22l-1.77,2.96c-2.92,4.89,4.24,9.68,7.44,4.97l.12-.16,3.44,4.65s1.63,4.55,6.9,1.63c4.34-2.43,18.99-13.2,18.99-13.2,0,0,41.3.93,43.35-5.15l-6.82-27.92Z"/>
    <path class="cls-2" d="M789.59,744.29c1.29-1.63,2.45-3.36,3.46-5.17,2.01-3.2,5.21-7.58,8.27-12.53,1.63-2.33,3.4-4.67,4.91-6.48.75-.76,1.75-1.23,2.82-1.31l3.12-.46c2.05-.17,4.08-.59,6.03-1.25-2.09-.19-4.19-.12-6.26.2l-3.14.26c-1.36.07-2.65.62-3.64,1.55-1.86,2.11-3.59,4.32-5.19,6.64-3.1,5.05-6.03,9.39-7.93,12.81-1.11,1.77-1.94,3.7-2.45,5.73Z"/>
    <path class="cls-2" d="M783.92,736.37c.48.34,5.13-7.68,11.79-16.8,1.29-2.2,3.05-4.08,5.15-5.51,1.96-.85,3.97-1.56,6.03-2.11,1.39-.4,2.81-.68,4.24-.82h1.59s-.5-.4-1.59-.5c-1.5-.07-3.01.05-4.49.36-2.18.44-4.31,1.07-6.38,1.89-2.39,1.46-4.39,3.48-5.81,5.89-2.88,3.93-5.51,8.04-7.89,12.29-1.08,1.67-1.97,3.45-2.66,5.31Z"/>
    <path class="cls-2" d="M822.16,727.15c-1.83-.21-3.69-.17-5.51.1l-2.76.24c-1.14.01-2.27.25-3.32.7-1.12.57-2.09,1.4-2.84,2.41l-2.51,2.84c-6.82,7.8-12.07,14.34-11.77,14.6s6.03-5.81,12.87-13.58l2.47-2.86c.62-.89,1.43-1.64,2.37-2.19.91-.39,1.87-.63,2.86-.7l2.74-.4c1.84-.14,3.66-.53,5.39-1.17Z"/>
    <path class="cls-2" d="M832.48,701.71c0-.62-5.71-.91-12.63-.16s-12.47,2.21-12.35,2.68,5.59-.52,12.51-1.17l8.81-.89c1.23-.03,2.46-.19,3.66-.46Z"/>
    <path class="cls-2" d="M546.35,433.07c-1.87-4.85-.04-10.35,4.37-13.12,4.42-2.57,9.76-2.98,14.52-1.13,8.59,3.16,14.58,11,15.39,20.12,3.67.99,6.91,3.17,9.21,6.2,6.58,8.33,5.57,21.44-1.75,29.11-7.77,7.64-19.53,9.53-29.31,4.73-9.56-5.1-15.52-15.07-15.47-25.91"/>
    <path class="cls-2" d="M538.45,411.18c.16-5.19-4.61-9.21-9.43-11.14-4.83-1.93-10.2-2.68-14.48-5.59-3.8-2.57-6.36-6.6-9.57-9.88-12.32-12.63-32.54-12.89-45.17-.57-4.21,4.11-7.21,9.3-8.66,15-1.89,7.38-.66,16.09,5.15,21.06,6.74,5.73,16.76,4.51,25.45,2.78,8.69-1.73,18.49-3.44,25.71,1.69,4.34,3.1,6.82,8.05,9.47,12.73,2.66,4.69,6.03,9.35,11,11.12,4.97,1.77,11.89-1.21,12.07-6.54"/>
    <path class="cls-2" d="M538.08,413.96c-.6,4.34,2.53,8.25,5.65,11.35,3.12,3.1,6.66,6.36,7.18,10.72.62,5.07-3.12,10.06-2.01,15.09.66,3.18,3.12,5.65,4.61,8.55,1.98,4.17,2.29,8.94.86,13.34-1.31,4.39-3.42,14.08-6.48,17.54-9.22,9.88-21.09,16.9-34.2,20.22-12.42,2.44-25.13,3.08-37.74,1.89-10.32-.68-22.13-.26-30.72-14.5-4.43-7.36-6.6-17.16-8.93-25.45-2.01-7.12-3.72-14.74-1.57-21.85,1.25-4.02,3.76-7.78,4.99-11.93,1.55-5.15,1.03-10.68,1.65-16.09,2.4-20.2,20.72-34.63,40.92-32.23,4.03.48,7.96,1.62,11.62,3.38"/>
    <path class="cls-5" d="M446.22,431.46c1.03-14.83,10.98-32.93,25.73-31.26l46.02,11.95c4.48.51,7.83,4.36,7.7,8.87l-5.69,111.14h.32s-10.64,31.32-41.08,21.6c-6.03-2.01-8.75-8.55-9.92-15.37h-.32v-2.31c-.57-5.07-.6-10.19-.1-15.27h0c0-8.99,0-12.65,0-12.57s-18.91-3.28-22.67-28c-1.91-12.19-1.15-32.33,0-48.78Z"/>
    <path class="cls-2" d="M453.58,445.84c-.02,1.72,1.32,3.14,3.04,3.22,1.68.14,3.16-1.12,3.3-2.8,0-.01,0-.03,0-.04.02-1.72-1.32-3.14-3.04-3.22-1.68-.14-3.16,1.12-3.3,2.8,0,.01,0,.03,0,.04Z"/>
    <path class="cls-2" d="M450.52,441.96c.38.42,2.8-1.35,6.2-1.31,3.4.04,5.89,1.75,6.28,1.33s-.22-.93-1.31-1.73c-1.47-1.02-3.22-1.58-5.01-1.59-1.77,0-3.5.54-4.95,1.57-1.05.8-1.41,1.55-1.21,1.73Z"/>
    <path class="cls-2" d="M486.85,446.42c-.03,1.71,1.3,3.14,3.02,3.22,1.68.14,3.16-1.12,3.3-2.8,0-.01,0-.03,0-.04.02-1.72-1.32-3.14-3.04-3.22-1.66-.15-3.12,1.08-3.27,2.74,0,.03,0,.06,0,.1Z"/>
    <path class="cls-2" d="M484.01,442.82c.38.42,2.8-1.35,6.22-1.31s5.89,1.75,6.26,1.33-.2-.93-1.29-1.73c-1.47-1.02-3.22-1.57-5.01-1.59-1.77-.01-3.51.54-4.95,1.57-1.07.8-1.43,1.55-1.23,1.73Z"/>
    <path class="cls-2" d="M471.5,468.01c-1.79-.56-3.64-.9-5.51-1.03-.89-.1-1.71-.28-1.85-.86-.06-.9.15-1.8.6-2.57.82-2.11,1.71-4.3,2.62-6.62,3.64-9.41,6.28-17.16,5.89-17.3s-3.62,7.36-7.26,16.78c-.89,2.33-1.73,4.55-2.51,6.66-.55,1.05-.73,2.26-.48,3.42.25.62.78,1.09,1.43,1.27.48.14.97.22,1.47.22,1.86.25,3.75.27,5.61.04Z"/>
    <path class="cls-8" d="M468.85,508.34c11.63.26,23.1-2.72,33.13-8.61,0,0-8.15,16.92-32.85,14.44l-.28-5.83Z"/>
    <path class="cls-8" d="M472.85,476.31c1.34-1.64,3.43-2.49,5.53-2.23,1.51.13,2.9.85,3.86,2.01.9,1.16,1,2.76.24,4.02-1.13,1.24-2.9,1.68-4.49,1.11-1.61-.58-3.09-1.48-4.34-2.64-.38-.28-.7-.62-.97-1.01-.25-.38-.25-.88,0-1.27"/>
    <path class="cls-2" d="M481.56,470.44c-.54,0-.58,3.66-3.76,6.28-3.18,2.61-7.12,2.15-7.16,2.68s.89.72,2.53.78c2.19.06,4.32-.65,6.03-2.01,1.62-1.3,2.67-3.19,2.92-5.25.02-1.57-.38-2.49-.56-2.47Z"/>
    <path class="cls-2" d="M482.53,436.85c.32.93,3.72.5,7.72,1.03s7.22,1.61,7.76.78c.24-.4-.32-1.27-1.63-2.17-3.51-2.25-7.85-2.76-11.79-1.39-1.47.58-2.21,1.31-2.07,1.75Z"/>
    <path class="cls-2" d="M451.83,432.06c.6.78,2.96,0,5.77,0s5.21.54,5.77-.26c.24-.38-.14-1.17-1.17-1.91-1.39-.9-3.03-1.35-4.69-1.29-1.66,0-3.27.53-4.61,1.51-1.01.82-1.35,1.61-1.09,1.95Z"/>
    <path class="cls-2" d="M534.85,493.49c-11.89,2.34-23.43-5.41-25.76-17.31-.46-2.33-.53-4.72-.23-7.07.8-6.03,4.02-12.21,2.01-17.96-2.74-7.6-13.38-10.06-16.09-17.58-1.63-4.41-.12-9.55-2.01-13.88-1.89-4.32-6.03-6.42-10.06-7.93s-8.59-2.59-12.07-5.31c-3.48-2.72-5.63-7.87-3.36-11.65,18.44,2.3,36.53,6.78,53.91,13.36,4.02,1.53,8.25,3.36,10.62,6.94s2.35,8.71,2.13,13.26c-1.15,22.17-2.29,44.34-3.42,66.52"/>
    <path class="cls-5" d="M533.26,501.98l.38-.26,1.11-.82c.97-.74,2.37-1.85,4.02-3.38,2.14-1.82,4.1-3.84,5.85-6.03,2.37-2.95,3.97-6.44,4.65-10.16.99-4.58-.16-9.36-3.12-12.99-1.78-1.8-3.7-3.45-5.73-4.95-2.05-1.57-3.6-3.7-4.47-6.14-1.79-5.05-.95-10.86-1.63-16.84-.68-6.21-3.08-12.11-6.92-17.04-2-2.49-4.48-4.54-7.3-6.03-2.77-1.27-5.66-2.26-8.63-2.96-2.76-.7-5.34-1.98-7.56-3.76-2.1-1.75-3.95-3.78-5.49-6.03-3.08-4.43-5.35-9.13-8.29-13.06-1.39-1.93-3.02-3.67-4.85-5.19-1.71-1.4-3.66-2.48-5.75-3.18-3.61-1.4-7.68-1.01-10.96,1.05-2.35,1.76-3.82,4.45-4.02,7.38-.15,1.82.37,3.63,1.47,5.09.28.37.62.7,1.01.97.24.2.38.28.38.26-.09-.12-.2-.24-.32-.34-.33-.3-.63-.64-.89-1.01-.99-1.45-1.43-3.2-1.23-4.95.25-2.74,1.65-5.25,3.86-6.9,3.14-1.88,6.98-2.19,10.38-.82,1.99.71,3.84,1.75,5.47,3.1,1.76,1.49,3.32,3.19,4.65,5.07,2.86,3.86,5.07,8.57,8.21,13.1,1.58,2.36,3.47,4.49,5.63,6.34,2.33,1.89,5.03,3.26,7.93,4.02,2.9.69,5.72,1.66,8.43,2.9,2.69,1.41,5.06,3.37,6.96,5.75,3.72,4.77,6.04,10.48,6.7,16.49.7,5.75-.16,11.67,1.77,17.04.93,2.6,2.59,4.87,4.79,6.54,2.01,1.46,3.9,3.06,5.67,4.79,2.81,3.43,3.92,7.95,3.04,12.29-.63,3.62-2.15,7.02-4.41,9.92-1.69,2.18-3.57,4.2-5.63,6.03-1.67,1.55-3.04,2.72-4.02,3.5-.41.38-.79.79-1.13,1.23Z"/>
    <path class="cls-2" d="M593.54,456.2c.22.09.42.2.6.34.53.4,1.02.86,1.45,1.37,1.55,1.94,2.44,4.32,2.53,6.8.01,3.67-1.05,7.25-3.06,10.32-2.29,3.85-5.61,6.98-9.58,9.05-4.02,2.06-8.64,2.65-13.05,1.65-1.9-.43-3.72-1.2-5.35-2.27-1.41-.96-2.66-2.13-3.7-3.48-1.51-1.94-2.5-4.23-2.9-6.66-.1-.67-.14-1.34-.12-2.01v-.68s0,.97.36,2.62c.48,2.33,1.52,4.51,3.02,6.36,1.03,1.27,2.25,2.38,3.62,3.28,1.59.99,3.34,1.71,5.17,2.11,4.23.91,8.64.33,12.49-1.65,3.84-2,7.06-5.01,9.31-8.71,1.97-2.94,3.05-6.38,3.12-9.92-.02-2.38-.79-4.69-2.19-6.62-.53-.67-1.11-1.3-1.73-1.89Z"/>
    <polygon class="cls-2" points="456.25 535.51 470.76 524.51 525.39 521.03 527.58 528.35 509.82 639.25 521.67 732.22 445.45 732.22 456.25 535.51"/>
    <path class="cls-2" d="M468.06,537.75l-1.69-15.87c-.29-2.76,1.72-5.24,4.48-5.53.02,0,.05,0,.07,0l50.29-4.55c1.29-.12,2.44.83,2.56,2.12,0,.06,0,.11,0,.17l.58,18.87-14.56,24.72-14.99,4.77h-18.31l-10.52-11.24,2.07-13.46Z"/>
    <path class="cls-8" d="M516.94,526.9s-.7,0-2.01-.2c-1.82-.17-3.65-.2-5.47-.1-2.71.19-5.4.58-8.05,1.17-3.02.62-6.28,1.51-9.74,2.35-3.25.85-6.56,1.44-9.9,1.77-2.75.25-5.53.06-8.23-.56-1.81-.43-3.53-1.15-5.11-2.13-.43-.26-.84-.56-1.23-.89-.26-.22-.4-.34-.38-.36s.6.4,1.73,1.05c1.6.88,3.31,1.52,5.09,1.91,2.65.54,5.36.68,8.05.4,3.31-.36,6.59-.96,9.82-1.79,3.44-.84,6.72-1.71,9.76-2.31,2.68-.57,5.41-.92,8.15-1.05,1.85-.07,3.7.03,5.53.3.64.1,1.15.2,1.47.28s.54.14.52.16Z"/>
    <path class="cls-8" d="M478.86,515.84c-.7.38-1.29.94-1.71,1.63-.69,1.85-.92,3.84-.68,5.79.12,4.69.91,8.45.72,8.49-.35-.77-.58-1.59-.68-2.43-.39-1.99-.61-4.01-.66-6.03-.07-1.12-.07-2.24,0-3.36.06-.95.36-1.87.86-2.68.35-.55.84-.99,1.43-1.27.46-.18.72-.18.72-.14Z"/>
    <path class="cls-8" d="M492.16,529.62c.01-2.57-.11-5.13-.36-7.68-.45-2.52-1.05-5.01-1.79-7.46.47.6.81,1.28,1.03,2.01.66,1.73,1.13,3.52,1.39,5.35.27,1.82.32,3.67.16,5.51,0,.78-.14,1.55-.42,2.27Z"/>
    <path class="cls-8" d="M508.35,513.15c.46.54.79,1.18.97,1.87,1.12,3.26.88,6.83-.66,9.92-.27.66-.68,1.25-1.21,1.73,1-2.11,1.63-4.36,1.89-6.68.07-2.32-.27-4.63-.99-6.84Z"/>
    <path class="cls-2" d="M405.87,678.09s6.78-86.92,10.32-103.23c4.51-20.74,21.64-32.18,21.64-32.18l7.02,160.78-13.7,20.28-16.56,6.36c-3.81,1.47-8.02,1.53-11.87.18l-15.93-5.55-1.35-30.33,13.46-3.9,6.96-12.39Z"/>
    <polyline class="cls-2" points="453.44 732.59 455.29 612.17 458.71 534.57 466.92 527.43 437.83 542.63 430.97 565.18 424.85 630.54 436.36 707.14 428.43 732.36"/>
    <path class="cls-8" d="M430.02,674.71c-.13-.3-.22-.62-.28-.95-.18-.66-.4-1.59-.68-2.74s-.66-2.66-.99-4.37c-.32-1.71-.78-3.64-1.13-5.81s-.78-4.53-1.11-7.1c-.32-2.57-.66-5.29-.97-8.19-.52-5.77-.89-12.07-.89-18.87s.4-13.08.95-18.87c.32-2.88.6-5.63,1.01-8.17.4-2.53.74-4.95,1.13-7.1.38-2.15.8-4.02,1.15-5.81s.7-3.18,1.01-4.37.52-2.01.68-2.74.26-.95.28-.95c0,.33-.06.67-.16.99-.14.68-.32,1.61-.56,2.76-.24,1.15-.58,2.66-.91,4.39-.32,1.73-.72,3.64-1.05,5.81s-.74,4.53-1.07,7.08-.62,5.29-.93,8.17c-.52,5.77-.86,12.07-.91,18.81-.04,6.74.34,13.05.82,18.83.3,2.88.54,5.61.91,8.17.36,2.55.68,4.93,1.05,7.08.36,2.15.7,4.12,1.03,5.83.32,1.71.6,3.18.86,4.39l.58,2.76c.08.32.13.64.16.97Z"/>
    <path class="cls-2" d="M571.56,540.8c12.4,4.82,21.58,15.49,24.5,28.46,9.51,41.92,25.79,97.66,26.03,115.64.32,22.93-9.7,38.6-22.77,41.5-7.48,1.65-58.34.82-85.99.24-10.24-.22-18.75-7.94-19.97-18.1h0c-1.4-11.11,6.34-21.3,17.42-22.93l55.98-8.25-10.4-58.09,10.3-80.46,4.91,1.99Z"/>
    <path class="cls-2" d="M515.49,591.42l10.52-54.88c1.16-5.19.38-10.62-2.19-15.27l.12-2.86,21.7,11.91,21,8.59.5,63.81-12.65,129.34-44.5.16v-57.73c-1.63-27.81.22-55.72,5.49-83.08Z"/>
    <path class="cls-8" d="M555.75,613.5c.08.21.14.42.16.64.1.48.22,1.11.36,1.85.32,1.71.74,4.02,1.27,6.86,1.03,5.89,2.41,13.86,4.02,22.69,1.61,8.83,2.82,16.82,3.78,22.69.44,2.86.82,5.19,1.09,6.9.1.76.18,1.39.26,1.87.04.22.04.44,0,.66-.09-.2-.14-.41-.16-.62-.1-.5-.22-1.13-.38-1.87-.32-1.71-.74-4.02-1.27-6.86-1.07-5.79-2.45-13.82-4.02-22.67s-2.84-16.9-3.76-22.71c-.44-2.84-.78-5.17-1.07-6.9l-.24-1.87c-.04-.22-.05-.44-.04-.66Z"/>
    <path class="cls-8" d="M576.75,549.88c-.55.25-1.13.46-1.71.62-1.56.58-3.07,1.25-4.55,2.01-4.86,2.5-9.08,6.1-12.33,10.5-.92,1.27-1.73,2.62-2.41,4.02-.61,1.29-1.1,2.64-1.47,4.02-.62,2.37-1.03,4.8-1.23,7.24-.16,2.01-.2,3.8-.22,4.97.04.61.04,1.22,0,1.83-.14-.6-.2-1.21-.2-1.83-.09-1.67-.09-3.34,0-5.01.14-2.48.51-4.94,1.11-7.34.37-1.43.86-2.83,1.47-4.18.7-1.41,1.53-2.76,2.47-4.02,3.28-4.5,7.62-8.12,12.63-10.54,1.5-.72,3.07-1.32,4.67-1.79.57-.23,1.16-.4,1.77-.5Z"/>
    <path class="cls-8" d="M509.5,685.94c.26.03.52.03.78,0l2.23-.28,8.17-1.15,26.95-4.02,19.59-3.04h0c2.5.38,4.84,1.42,6.8,3.02,1.51,1.22,2.77,2.72,3.7,4.43.8,1.51,1.36,3.13,1.67,4.81v-.34c0-.22,0-.56-.14-1.01-.23-1.26-.65-2.47-1.25-3.6-.91-1.78-2.17-3.36-3.72-4.63-1.99-1.7-4.42-2.8-7-3.2h0l-19.61,2.94-26.91,4.18-8.15,1.33-2.21.4-.91.16Z"/>
    <path class="cls-8" d="M429.74,673.77c-.03.21-.03.42,0,.62l.3,1.69c.3,1.49.68,3.62,1.15,6.28,1.2,6.9,1.84,13.89,1.91,20.9,0,3.85-.24,7.7-.7,11.53-.41,3.12-.97,6.21-1.69,9.27-.28,1.31-.64,2.47-.93,3.5s-.52,2.01-.76,2.64-.36,1.21-.48,1.67c-.06.19-.11.39-.14.58,0,0,.12-.18.26-.54l.6-1.63c.26-.7.56-1.59.86-2.61s.7-2.19,1.01-3.5c.79-3.07,1.41-6.18,1.85-9.31.49-3.84.74-7.71.74-11.59-.06-7.04-.77-14.07-2.11-20.98-.5-2.64-.97-4.77-1.33-6.24-.16-.68-.3-1.23-.42-1.69-.02-.2-.06-.39-.12-.58Z"/>
    <path class="cls-2" d="M344.77,720.82c-.3,0-1.91.95-.62,3.46s10.7,10.96,13.6,8.15-1.37-6.4-1.37-6.4l-11.61-5.21Z"/>
    <path class="cls-5" d="M356.84,726.15c5.45.75,10.83,1.92,16.09,3.5,4.94,1.72,10.4,1.05,14.78-1.81,2.29-1.45,4.44-3.12,6.42-4.99h14.81c4.45-4.99,5.71-12.06,3.28-18.29-.76-2.12-1.87-4.1-3.28-5.85-2.49-2.48-5.74-4.05-9.23-4.47l-17.68,3.44s-27.22-2.51-32.18-.34c0,0-6.18,3.5-8.05,4.97-.72.56-3.02,7.44,1.33,11.14,0,0-3.92,3-1.89,5.79l.99,1.23s-2.68,3.32-1.37,4.81c1.31,1.49,12.81,8.57,17.02,7.02,4.2-1.55.84-5.47-.99-6.22"/>
    <path class="cls-2" d="M346.06,707.64c.5.15.98.33,1.45.54.91.38,2.23.91,3.88,1.47l2.76.86c.99.28,2.01.52,3.18.91,1.22.37,2.31,1.07,3.16,2.01.97,1.1,1.26,2.64.76,4.02-.29.66-.81,1.2-1.47,1.51-.63.3-1.31.47-2.01.5-1.23.05-2.47-.04-3.68-.28-2.06-.37-4.08-.93-6.03-1.69-1.65-.62-2.96-1.21-3.84-1.61-.48-.19-.94-.42-1.39-.68.5.12.98.29,1.45.5.93.36,2.25.89,3.9,1.47,1.93.7,3.91,1.23,5.93,1.59,1.18.2,2.38.28,3.58.24.61-.05,1.21-.21,1.77-.46.56-.27,1-.72,1.25-1.29.4-1.18.14-2.48-.68-3.42-.8-.87-1.81-1.52-2.94-1.87-1.09-.38-2.17-.64-3.16-.95s-1.91-.62-2.74-.93c-1.67-.62-2.98-1.19-3.86-1.61-.45-.24-.88-.52-1.27-.84Z"/>
    <path class="cls-2" d="M347.29,699.21c.49.14.97.33,1.43.54.91.38,2.21.91,3.86,1.51,1.65.6,3.64,1.23,5.87,1.81,1.24.22,2.41.72,3.42,1.47.53.46.87,1.1.97,1.79.08.69-.04,1.39-.34,2.01-.64,1.23-1.76,2.14-3.1,2.51-1.2.36-2.47.44-3.7.22-2.02-.44-4-1.06-5.91-1.85l-3.9-1.45c-.48-.17-.95-.37-1.41-.6.5.1.99.25,1.47.42l4.02,1.31c1.9.73,3.86,1.31,5.85,1.73,1.17.2,2.37.12,3.5-.22,1.21-.34,2.22-1.16,2.8-2.27.6-1.09.4-2.45-.5-3.32-.96-.69-2.06-1.17-3.22-1.39-2.23-.6-4.22-1.29-5.87-1.91-1.65-.62-2.94-1.23-3.82-1.65-.49-.18-.96-.4-1.41-.66Z"/>
    <path class="cls-2" d="M352.82,701.73c-.23-.76-.39-1.54-.48-2.33-.25-.76-.43-1.54-.54-2.33.99,1.34,1.36,3.04,1.03,4.67h0Z"/>
    <path class="cls-5" d="M393.8,702.94l-10.28-4.2s-28.44-14.08-28.95-13.3-2.01.6-1.79,4.12c.22,3.52,16.86,10.92,17.36,12.07s-.5,7.34,5.59,11.85c3.02,2.52,6.67,4.15,10.56,4.73"/>
    <path class="cls-2" d="M386.29,718.28h-.97c-.91-.15-1.81-.39-2.68-.7-1.39-.49-2.74-1.1-4.02-1.83-1.69-.94-3.27-2.08-4.69-3.4-1.7-1.68-2.88-3.81-3.4-6.14-.27-1.27-.44-2.56-.52-3.86.01-.15.01-.31,0-.46-.07-.1-.16-.2-.26-.28-.26-.2-.54-.38-.82-.56l-1.81-1.05c-2.45-1.37-5.09-2.78-7.72-4.37-1.33-.8-2.66-1.65-4.02-2.59-.65-.49-1.26-1.03-1.83-1.61-.3-.3-.56-.64-.78-1.01-.1-.21-.17-.44-.22-.66v-.62c-.08-.86.09-1.73.48-2.49.24-.37.56-.68.95-.91.15-.09.28-.2.4-.32l.1-.1h.72c1.48.52,2.94,1.12,4.37,1.79,2.82,1.25,5.51,2.51,8.05,3.72,5.11,2.43,9.68,4.69,13.52,6.58.97.46,1.87.95,2.74,1.35l2.51,1.05,4.02,1.69,2.51,1.09.66.28.22.12h-.24l-.66-.26-2.57-1.01-4.02-1.61-2.51-1.01c-.91-.4-1.79-.86-2.76-1.33l-13.58-6.48c-2.55-1.19-5.25-2.45-8.05-3.7-1.41-.6-2.86-1.27-4.32-1.75h-.36v-.12h0c.32.24,0,0,.14.14h0c-.15.17-.33.32-.52.44-.32.19-.59.45-.78.76-.35.68-.5,1.45-.42,2.21-.03.37.05.74.22,1.07.19.33.42.64.68.93.55.56,1.14,1.08,1.77,1.55,1.27.93,2.59,1.77,3.9,2.57,2.64,1.59,5.23,3,7.7,4.39.62.34,1.23.7,1.81,1.07.31.18.59.38.86.6.18.11.32.27.4.46.06.18.1.36.12.54.07,1.29.24,2.57.48,3.84.49,2.28,1.62,4.37,3.26,6.03,1.39,1.31,2.93,2.45,4.59,3.4,1.25.74,2.55,1.37,3.9,1.89.86.32,1.74.59,2.64.78l.7.14c.04-.28.12-.28.12-.26Z"/>
    <path class="cls-2" d="M354.57,718.97c.38.06.74.18,1.09.34.97.41,1.87.96,2.68,1.63.58.45,1.09.97,1.55,1.55.58.67.86,1.55.76,2.43-.22,1-1.01,1.79-2.01,2.01-.99.24-2.04.18-3-.16-3.27-1.04-6.44-2.39-9.45-4.02-1.15-.64-2.01-1.23-2.66-1.65-.32-.2-.62-.43-.89-.7.34.16.67.34.99.54.64.38,1.55.91,2.72,1.51,3.04,1.52,6.19,2.81,9.41,3.86.88.32,1.83.38,2.74.16.83-.19,1.47-.83,1.67-1.65.06-.77-.18-1.53-.68-2.11-.41-.57-.89-1.08-1.43-1.53-1.06-.88-2.23-1.62-3.48-2.21Z"/>
    <path class="cls-5" d="M517.57,690.67l-18.26.38s-27.38-9.9-33.01-8.95c-5.07.84-23.64,13.18-27.28,15.63-.4.27-.71.66-.89,1.11h0c-.73,2.01.25,4.23,2.21,5.07l.38.16-.16.54c-.22.72-.31,1.48-.28,2.23.1,1.47,1.38,2.59,2.86,2.48.89-.06,1.69-.56,2.13-1.34l-.7,1.25c-.28.5-.42,1.07-.4,1.65v1.15c.05,1.23.85,2.31,2.01,2.72h0c1.13.38,2.38.06,3.18-.82,2.35-2.59,7.44-7.78,10.88-8.37,3.73-.44,7.49-.63,11.24-.56,1.57.01,2.97.98,3.54,2.43h0c-2.01.16-16.27,7.58-21.3,10.24-1.59.77-2.69,2.28-2.94,4.02-.18,1.57.6,3.24,3.72,2.49,6.5-1.88,12.86-4.25,19.01-7.08,0,0,6.2-1.77,10.22,1.07,5.67,4.02,8.27,5.47,13.12,3.86,2.95-.99,5.79-2.31,8.45-3.92l16.49,1.61s10.06-16.51-4.22-29.05Z"/>
    <path class="cls-2" d="M475.28,695.67c-1.7-.33-3.42-.57-5.15-.72-4.16-.28-8.34.41-12.19,2.01-3.84,1.65-7.25,4.18-9.94,7.38-2.01,2.45-2.96,4.26-3.06,4.2.16-.44.37-.87.62-1.27.61-1.13,1.34-2.19,2.15-3.18,5.39-6.77,13.83-10.37,22.45-9.58,1.28.1,2.54.32,3.78.64.46.1.91.27,1.33.5Z"/>
    <path class="cls-2" d="M472.39,689.02c-1.74-.53-3.54-.84-5.35-.95-4.41-.02-8.73,1.21-12.47,3.54-3.71,2.38-7.09,5.23-10.06,8.49l-2.74,2.92c-.32.38-.68.74-1.07,1.05.27-.41.57-.8.91-1.17.6-.74,1.49-1.79,2.64-3.04,2.9-3.38,6.29-6.31,10.06-8.69,3.81-2.38,8.24-3.58,12.73-3.46,1.37.07,2.72.31,4.02.72.46.14.78.32,1.03.4l.3.18Z"/>
    <path class="cls-2" d="M428.45,732.45s-82.78,36.51-85.53,57.31.72,130.17.72,130.17h62.96l6.66-96.55,6.42,96.55h61.88v-93.94s64.37-10.56,78.81-19.71c14.44-9.15-5.87-74.21-5.87-74.21l-126.04.38Z"/>
    <path class="cls-2" d="M130.8,481.02c-8.27,1.29-14.6,8.04-15.35,16.37-.32,5.21,1.59,10.76-.62,15.49-2.21,4.73-7.32,6.64-11.55,9.41-5.67,3.72-10.32,10.22-9.15,16.92.83,2.88,1.82,5.72,2.98,8.49,1.65,5.49.6,11.37.66,17.1-.08,6.22,1.64,12.32,4.95,17.58,3.37,5.29,8.89,8.83,15.11,9.7,3.15,0,6.3.17,9.43.52,2.64.83,5.2,1.86,7.68,3.08,10.06,4.02,22.55.5,29.85-7.64,7.18-8.51,9.73-19.99,6.84-30.74-2.01-7.82-6.46-14.74-9.84-22.13-3.38-7.38-.52-20.02-2.01-26.87-12.77-5.21-18.65-15.11-25.02-27.32"/>
    <path class="cls-2" d="M229.37,411.18c.18-5.19-4.61-9.21-9.43-11.14-4.83-1.93-10.2-2.68-14.48-5.59-3.8-2.57-6.36-6.6-9.58-9.88-12.34-12.63-32.57-12.86-45.2-.52-4.19,4.1-7.18,9.27-8.63,14.95-1.89,7.38-.66,16.09,5.15,21.06,6.74,5.73,16.78,4.51,25.45,2.78,8.67-1.73,18.49-3.44,25.71,1.69,4.34,3.1,6.82,8.05,9.47,12.73,2.66,4.69,6.03,9.35,11,11.12,4.97,1.77,11.91-1.21,12.07-6.54"/>
    <path class="cls-2" d="M229.01,413.96c-.58,4.34,2.53,8.25,5.65,11.35s6.66,6.36,7.18,10.72c.62,5.07-3.12,10.06-2.01,15.09.66,3.18,3.14,5.65,4.61,8.55,1.99,4.17,2.3,8.95.86,13.34-1.31,4.39-3.4,14.08-6.48,17.54-9.22,9.88-21.09,16.9-34.2,20.22-12.42,2.44-25.12,3.08-37.72,1.89-10.32-.68-22.13-.26-30.74-14.5-4.43-7.36-6.6-17.16-8.91-25.45-2.01-7.12-3.74-14.74-1.59-21.85,1.25-4.02,3.76-7.78,4.99-11.93,1.55-5.15,1.03-10.68,1.65-16.09,2.41-20.21,20.75-34.64,40.96-32.23,4.03.48,7.95,1.62,11.6,3.38"/>
    <path class="cls-5" d="M137.14,431.46c1.05-14.83,10.98-32.93,25.73-31.26l46.02,11.95c4.48.51,7.83,4.36,7.7,8.87l-5.69,111.14h.32s-10.64,31.32-41.06,21.6c-6.03-2.01-8.77-8.55-9.94-15.37h-.3v-2.31c-.58-5.07-.62-10.19-.12-15.27h0c0-8.99,0-12.65,0-12.57s-18.91-3.28-22.67-28c-1.91-12.19-1.15-32.33,0-48.78Z"/>
    <path class="cls-2" d="M145.37,446.42c-.03,1.72,1.32,3.15,3.04,3.22,1.67.13,3.13-1.13,3.26-2.8,0-.01,0-.02,0-.03.02-1.72-1.32-3.14-3.04-3.22-1.66-.14-3.12,1.1-3.25,2.76,0,.03,0,.05,0,.08Z"/>
    <path class="cls-2" d="M141.45,441.96c.38.42,2.8-1.35,6.2-1.31,3.4.04,5.89,1.75,6.28,1.33s-.22-.93-1.29-1.73c-1.48-1.02-3.23-1.58-5.03-1.59-1.77,0-3.5.54-4.95,1.57-1.05.8-1.41,1.55-1.21,1.73Z"/>
    <path class="cls-2" d="M179.04,446.42c-.02,1.72,1.32,3.14,3.04,3.22,1.66.15,3.12-1.08,3.27-2.74,0-.03,0-.06,0-.1.03-1.71-1.3-3.14-3.02-3.22-1.68-.14-3.16,1.12-3.3,2.8,0,.01,0,.03,0,.04Z"/>
    <path class="cls-2" d="M174.94,442.82c.38.42,2.8-1.35,6.22-1.31s5.89,1.75,6.26,1.33-.2-.93-1.29-1.73c-1.47-1.02-3.22-1.57-5.01-1.59-1.77-.01-3.51.54-4.95,1.57-1.05.8-1.41,1.55-1.23,1.73Z"/>
    <path class="cls-2" d="M162.41,468.01c-1.8-.56-3.65-.9-5.53-1.03-.89-.1-1.69-.28-1.85-.86-.06-.9.15-1.8.6-2.57.84-2.11,1.71-4.3,2.62-6.62,3.64-9.41,6.3-17.16,5.91-17.3s-3.64,7.36-7.28,16.78l-2.51,6.66c-.55,1.05-.73,2.26-.48,3.42.25.62.78,1.09,1.43,1.27.48.14.98.22,1.49.22,1.86.25,3.75.27,5.61.04Z"/>
    <path class="cls-8" d="M159.71,508.34c11.63.26,23.1-2.72,33.13-8.61,0,0-8.05,16.92-32.85,14.44l-.28-5.83Z"/>
    <path class="cls-8" d="M163.73,476.31c1.34-1.64,3.43-2.49,5.53-2.23,1.51.13,2.9.85,3.86,2.01.9,1.16,1,2.76.24,4.02-1.13,1.24-2.9,1.68-4.49,1.11-1.6-.58-3.08-1.47-4.32-2.64-.39-.27-.72-.61-.99-1.01-.25-.38-.25-.88,0-1.27"/>
    <path class="cls-2" d="M172.4,470.44c-.54,0-.58,3.66-3.76,6.28-3.18,2.61-7.12,2.15-7.16,2.68s.89.72,2.55.78c2.19.07,4.32-.65,6.03-2.01,1.62-1.3,2.67-3.19,2.94-5.25.06-1.57-.34-2.49-.6-2.47Z"/>
    <path class="cls-2" d="M173.45,436.85c.32.93,3.74.5,7.72,1.03s7.22,1.61,7.76.78c.24-.4-.32-1.27-1.61-2.17-3.52-2.25-7.87-2.76-11.81-1.39-1.47.58-2.21,1.31-2.07,1.75Z"/>
    <path class="cls-2" d="M142.75,432.06c.6.78,2.96,0,5.77,0s5.21.54,5.77-.26c.24-.38-.12-1.17-1.17-1.91-2.86-1.8-6.52-1.71-9.29.22-1.01.82-1.35,1.61-1.09,1.95Z"/>
    <path class="cls-2" d="M225.77,493.49c-11.89,2.34-23.43-5.41-25.76-17.31-.46-2.33-.53-4.72-.23-7.07.8-6.03,4.02-12.21,2.01-17.96-2.76-7.6-13.38-10.06-16.09-17.58-1.63-4.41-.12-9.55-2.01-13.88-1.89-4.32-6.03-6.42-10.06-7.93s-8.59-2.59-12.07-5.31-5.63-7.87-3.36-11.65c18.44,2.29,36.53,6.78,53.91,13.36,4.02,1.53,8.25,3.36,10.62,6.94,2.37,3.58,2.35,8.71,2.13,13.26-1.15,22.17-2.29,44.34-3.42,66.52"/>
    <polygon class="cls-8" points="147.18 535.51 161.68 524.51 216.32 521.03 218.51 528.35 200.75 639.25 212.59 732.22 136.38 732.22 147.18 535.51"/>
    <path class="cls-8" d="M158.99,537.75l-1.69-15.87c-.28-2.77,1.74-5.25,4.52-5.53,0,0,.02,0,.03,0l50.29-4.55c1.31-.12,2.46.84,2.59,2.14,0,.05,0,.1,0,.15l.56,18.87-14.56,24.72-14.87,4.77h-18.31l-10.52-11.24,1.95-13.46Z"/>
    <path class="cls-8" d="M207.99,526.9c-.67-.03-1.34-.1-2.01-.2-1.83-.17-3.66-.2-5.49-.1-2.71.19-5.4.58-8.05,1.17-3.02.62-6.28,1.51-9.74,2.35-3.25.85-6.56,1.44-9.9,1.77-2.75.25-5.52.06-8.21-.56-1.81-.43-3.55-1.15-5.13-2.13-.43-.26-.84-.56-1.23-.89-.14-.1-.27-.23-.38-.36,0,0,.6.4,1.73,1.05,1.6.88,3.32,1.52,5.11,1.91,2.65.55,5.36.68,8.05.4,3.31-.36,6.59-.96,9.82-1.79,3.44-.84,6.72-1.71,9.76-2.31,2.65-.57,5.34-.92,8.05-1.05,1.85-.07,3.7.03,5.53.3.64.1,1.15.2,1.49.28.21.02.41.07.6.16Z"/>
    <path class="cls-8" d="M169.77,515.84c-.72.37-1.32.94-1.73,1.63-.68,1.85-.91,3.84-.68,5.79.12,4.69.91,8.45.72,8.49-.35-.77-.58-1.59-.68-2.43-.39-1.99-.61-4.01-.66-6.03-.07-1.12-.07-2.24,0-3.36.06-.95.36-1.87.86-2.68.35-.55.84-.99,1.43-1.27.5-.18.74-.18.74-.14Z"/>
    <path class="cls-8" d="M183.09,529.62c.03-2.57-.09-5.13-.36-7.68-.47-2.52-1.06-5.01-1.77-7.46.45.61.79,1.29,1.03,2.01.65,1.73,1.11,3.52,1.37,5.35.27,1.82.32,3.67.16,5.51,0,.78-.14,1.55-.42,2.27Z"/>
    <path class="cls-8" d="M199.28,513.15c.46.54.79,1.18.97,1.87,1.12,3.26.88,6.83-.66,9.92-.27.65-.67,1.24-1.19,1.73.99-2.11,1.62-4.37,1.89-6.68.05-2.32-.29-4.63-1.01-6.84Z"/>
    <path class="cls-2" d="M95.86,745.86l12.37-56.1s-4.67-98.57-1.13-114.82c4.51-20.74,21.64-32.18,21.64-32.18l7.02,160.66-6.96,37.54"/>
    <polyline class="cls-2" points="144.36 732.59 146.23 612.17 149.63 534.57 157.84 527.43 128.75 542.63 121.89 565.18 115.78 630.54 127.3 707.14 119.36 732.36"/>
    <path class="cls-8" d="M120.95,674.71c-.13-.3-.22-.62-.28-.95-.18-.66-.4-1.59-.68-2.74s-.64-2.66-.99-4.37-.78-3.64-1.13-5.81-.78-4.53-1.11-7.1c-.32-2.57-.66-5.29-.97-8.19-.52-5.77-.89-12.07-.89-18.87s.4-13.08.95-18.87c.32-2.88.6-5.63,1.01-8.17s.74-4.95,1.13-7.1c.38-2.15.8-4.02,1.15-5.81.34-1.79.7-3.18,1.01-4.37s.52-2.01.7-2.74c.07-.32.16-.64.28-.95-.03.33-.08.66-.16.99-.16.68-.34,1.61-.58,2.76s-.58,2.66-.91,4.39-.72,3.64-1.05,5.81c-.32,2.17-.74,4.53-1.07,7.08s-.62,5.29-.93,8.17c-.5,5.77-.86,12.07-.91,18.81-.04,6.74.34,13.05.82,18.83.3,2.88.54,5.61.91,8.17.36,2.55.68,4.93,1.05,7.08.36,2.15.72,4.12,1.03,5.83.3,1.71.6,3.18.89,4.39.28,1.21.42,2.01.56,2.76.08.32.13.64.16.97Z"/>
    <path class="cls-2" d="M196.46,713.05l61.21-35.58-10.38-58.09,10.28-80.46,16.76,6.48c5.16,1.99,8.95,6.47,10.06,11.89,8.73,42.5,28.34,107.88,28.62,127.63.34,22.93-9.7,38.6-22.77,41.5-7.46,1.65-52.94,11.61-83.58,14.46"/>
    <path class="cls-2" d="M206.42,591.42l10.52-54.88c1.16-5.18.39-10.61-2.17-15.27l.12-2.86,21.68,11.91,21,8.59.5,63.81-12.65,129.34-44.5.16.1-57.73c-1.66-27.81.15-55.72,5.39-83.08Z"/>
    <path class="cls-8" d="M246.67,613.5c.08.21.14.42.16.64,0,.48.22,1.11.38,1.85.3,1.71.72,4.02,1.25,6.86,1.03,5.89,2.41,13.86,4.02,22.69s2.82,16.82,3.8,22.69l1.07,6.9c.1.76.2,1.39.26,1.87.03.22.03.44,0,.66,0,0,0-.2-.18-.62s-.22-1.13-.38-1.87c-.32-1.71-.74-4.02-1.27-6.86-1.05-5.79-2.45-13.82-4.02-22.67-1.57-8.85-2.86-16.9-3.78-22.71-.42-2.84-.78-5.17-1.05-6.9,0-.76-.2-1.39-.26-1.87-.02-.22-.02-.44,0-.66Z"/>
    <path class="cls-8" d="M267.69,549.88c-.56.24-1.14.45-1.73.62-1.56.58-3.07,1.25-4.55,2.01-4.86,2.5-9.08,6.1-12.33,10.5-.92,1.27-1.73,2.62-2.41,4.02-.61,1.29-1.1,2.64-1.47,4.02-.62,2.37-1.02,4.8-1.21,7.24-.18,2.01-.22,3.8-.24,4.97.04.61.04,1.22,0,1.83-.14-.6-.2-1.21-.2-1.83-.1-1.67-.1-3.34,0-5.01.12-2.48.49-4.94,1.11-7.34.35-1.44.84-2.84,1.45-4.18.7-1.41,1.53-2.76,2.47-4.02,3.29-4.49,7.62-8.11,12.63-10.54,1.5-.72,3.07-1.32,4.67-1.79.58-.24,1.19-.41,1.81-.5Z"/>
    <path class="cls-8" d="M120.67,673.77c-.03.21-.03.42,0,.62l.3,1.69c.3,1.49.68,3.62,1.15,6.28,1.24,6.9,1.91,13.89,2.01,20.9,0,3.85-.23,7.7-.7,11.53-.41,3.12-.97,6.21-1.69,9.27-.28,1.31-.64,2.47-.91,3.5-.26,1.03-.54,2.01-.76,2.64l-.58,1.59c-.06.19-.11.39-.14.58,0,0,.12-.18.26-.54l.6-1.63c.26-.7.56-1.59.86-2.61s.7-2.19,1.01-3.5c.79-3.07,1.41-6.18,1.85-9.31.5-3.84.75-7.71.74-11.59-.04-7.04-.71-14.06-2.01-20.98-.52-2.64-.99-4.77-1.35-6.24-.16-.68-.3-1.23-.42-1.69-.06-.17-.13-.34-.22-.5Z"/>
    <path class="cls-2" d="M118.76,732.45s-67.19,28.95-69.92,49.75c-2.74,20.8,11.3,140.81,11.3,140.81l140.29-5.65-9.6-93.98s45.32-7.95,59.82-17.16c14.5-9.21-5.85-74.21-5.85-74.21l-126.04.44Z"/>
    <path class="cls-5" d="M199.24,713.05l-17.76,4.26s-28.87-3.82-34.2-1.69c-4.77,1.91-20.28,17.94-23.31,21.1-.34.35-.55.8-.62,1.29h0c-.27,2.12,1.16,4.08,3.26,4.47h.4v.56c-.06.75,0,1.51.2,2.23.44,1.41,1.94,2.2,3.35,1.76.84-.26,1.5-.92,1.76-1.76l-.42,1.37c-.17.56-.17,1.15,0,1.71l.3,1.09c.33,1.21,1.37,2.09,2.62,2.21h0c1.19.13,2.34-.45,2.94-1.49,1.75-3.04,5.61-9.19,8.85-10.5,3.55-1.23,7.18-2.21,10.86-2.94,1.55-.36,3.15.29,4.02,1.61h0c-2.01.58-14.28,10.88-18.65,14.54-1.38,1.11-2.13,2.82-2.01,4.59.16,1.59,1.29,3.02,4.18,1.65,5.82-3.19,11.41-6.8,16.72-10.8,0,0,5.69-3.06,10.24-1.15,6.38,2.7,9.21,3.56,13.62.97,2.68-1.6,5.17-3.49,7.42-5.65l16.53-2.01s6.38-18.22-10.3-27.42Z"/>
    <path class="cls-2" d="M159.01,726.97c0,.1-2.01,0-5.19.4-8.39,1.25-15.67,6.44-19.59,13.96-1.51,2.84-2.01,4.79-2.01,4.75.08-.46.19-.92.34-1.37.37-1.22.84-2.41,1.41-3.56,3.85-7.73,11.32-13.02,19.89-14.08,1.27-.17,2.55-.23,3.82-.18.44-.02.89,0,1.33.08Z"/>
    <path class="cls-2" d="M154.74,721.1c-1.81-.16-3.64-.08-5.43.22-4.29.9-8.24,2.99-11.41,6.03-3.14,3.11-5.84,6.62-8.05,10.44-.82,1.39-1.53,2.53-2.01,3.44-.24.43-.51.85-.8,1.25.15-.47.36-.93.62-1.35.44-.84,1.09-2.01,2.01-3.52,2.15-3.92,4.86-7.51,8.05-10.64,3.23-3.11,7.3-5.21,11.71-6.03,1.33-.22,2.68-.26,4.02-.14.46,0,.82.14,1.09.18s.2.1.2.12Z"/>
  </g>
  <g id="freepik--Lectern--inject-7">
    <path class="cls-4" d="M908.81,919.48v-231.33h-386.22s-8.99,231.33,0,231.33h386.22Z"/>
    <polygon class="cls-4" points="908.81 688.15 742.42 841.97 365.65 841.97 521.01 686.62 908.81 688.15"/>
    <rect class="cls-4" x="365.65" y="841.97" width="376.76" height="77.51"/>
    <polygon class="cls-4" points="518.53 841.97 521.01 686.62 908.81 688.15 742.42 841.97 518.53 841.97"/>
    <path class="cls-10" d="M866.41,708.91l-2.01-.42c3.94-22.3,4.11-45.09.5-67.45-5.57-32.65-23.25-75.37-75.8-93.52l.64-1.91c53.51,18.49,71.49,61.96,77.14,95.15,3.64,22.59,3.48,45.62-.48,68.15Z"/>
    <rect class="cls-10" x="767.15" y="520.74" width="19.51" height="37.5" rx="9.23" ry="9.23" transform="translate(-50.96 996.94) rotate(-63.7)"/>
    <path class="cls-10" d="M742.42,919.48v-5.59c0-3.68,0-9.01-.14-15.75,0-13.62-.1-32.99-.18-56.16v-.2l.14-.12,54.71-50.67,78.87-72.88,24.14-22.01,6.58-5.93,1.73-1.53c.19-.18.39-.35.6-.5,0,0-.16.22-.54.58l-1.65,1.61-6.44,6.03-23.82,22.25-78.85,73.1-54.86,50.71.14-.34c0,23.17-.14,42.54-.18,56.16,0,6.74-.1,12.07-.12,15.75v5.23c0,.28-.14.26-.14.26Z"/>
    <path class="cls-10" d="M739.38,842.42c0,.28-83.74.52-187.07.52s-187.07-.24-187.07-.52,83.74-.54,187.07-.54,187.07.2,187.07.54Z"/>
    <path class="cls-10" d="M722.22,842.42s.22-.26.7-.72l2.17-2.01,8.49-8.05,32.18-30.29,114.08-106.95.32.8h-351.14l.32-.14-107.5,106.71-30.35,30.01-8.05,7.91-2.01,2.01c-.46.46-.72.68-.72.68,0,0,.22-.26.68-.72l2.01-2.01,8.05-8.05,30.17-30.17,107.22-106.97.14-.12h352.53l-.86.8-114.28,106.61-32.37,30.07-8.59,7.95-2.21,2.01-.99.64Z"/>
    <path class="cls-10" d="M521.03,843.18c-.28,0-.52-31.64-.52-70.67s.24-70.69.52-70.69.52,31.64.52,70.69-.22,70.67-.52,70.67Z"/>
    <g class="cls-15">
      <path class="cls-13" d="M737.03,912.64l-2.43-3.06c-.84-.99-1.91-2.15-3.2-3.52-1.29-1.37-2.88-2.84-4.81-4.34-4.6-3.74-9.66-6.87-15.07-9.31-7.16-3.23-14.74-5.44-22.51-6.58-9.43-1.34-18.99-1.41-28.44-.22-10.84,1.37-21.55,3.67-32,6.86-11.06,3.22-22.49,7.28-34.42,11.24-12.27,4.23-24.82,7.59-37.56,10.06-12.8,2.25-25.84,2.88-38.8,1.89-12.55-.84-24.56-2.66-35.97-4.45-11.41-1.79-22.25-3.58-32.45-4.77-9.45-1.11-18.97-1.64-28.48-1.57-13.81-.03-27.52,2.34-40.51,7.02-2.27.86-4.28,1.67-6.03,2.51-1.45.6-2.88,1.27-4.26,2.01l-3.44,1.87,3.4-2.01c1.11-.66,2.55-1.33,4.24-2.13,1.69-.8,3.7-1.67,6.03-2.55,13.03-4.63,26.78-6.94,40.61-6.82,9.53-.09,19.06.41,28.52,1.51,10.22,1.19,21.06,2.94,32.47,4.73,11.41,1.79,23.39,3.58,35.93,4.43,12.94.98,25.94.35,38.72-1.89,12.72-2.5,25.24-5.9,37.48-10.16,11.93-4.02,23.35-8.05,34.46-11.22,10.48-3.17,21.2-5.46,32.06-6.84,9.48-1.16,19.07-1.07,28.52.28,7.79,1.17,15.39,3.41,22.57,6.66,5.41,2.46,10.47,5.62,15.07,9.39,2.01,1.53,3.44,3.1,4.81,4.39,1.37,1.29,2.33,2.57,3.16,3.56l2.33,3.04Z"/>
    </g>
    <g class="cls-15">
      <path class="cls-13" d="M548.28,859.68l-4.37,2.49c-2.9,1.61-7.24,3.84-13.01,6.36-16.38,7-33.81,11.2-51.58,12.43-12.26.86-24.59.27-36.71-1.75-1.73-.14-3.33-.94-4.49-2.23-.51-.77-.6-1.74-.24-2.59.35-.83.95-1.53,1.71-2.01,1.5-.89,3.09-1.6,4.75-2.13l4.91-1.89c6.64-2.35,13.56-4.55,20.76-6.42,28.83-7.52,61.86-10.06,96.11-7.74,4.32.17,8.52,1.49,12.17,3.8,1.76,1.23,3.22,2.85,4.26,4.73,1.06,1.88,1.49,4.05,1.23,6.2-.72,4.23-3.3,7.92-7.02,10.06-3.59,2.01-7.47,3.45-11.51,4.26-15.12,3.71-30.48,6.4-45.96,8.05-26.22,2.65-52.6,3.41-78.93,2.27-22.49-.82-40.63-2.21-53.19-3.16-12.55-.95-19.47-1.57-19.47-1.57l19.49,1.41c12.53.89,30.7,2.23,53.17,3.04,26.32,1.08,52.69.29,78.89-2.37,15.47-1.64,30.8-4.33,45.9-8.05,3.97-.82,7.8-2.25,11.35-4.22,3.59-2.08,6.09-5.63,6.82-9.72.31-4.22-1.74-8.28-5.33-10.52-3.59-2.27-7.71-3.56-11.95-3.74-34.2-2.35-67.21.22-95.97,7.72-7.2,1.85-14.08,4.02-20.74,6.4l-4.91,1.85c-1.61.51-3.17,1.19-4.65,2.01-.7.44-1.26,1.07-1.61,1.81-.3.74-.22,1.59.22,2.25,1.11,1.18,2.63,1.9,4.24,2.01,12.1,2.03,24.39,2.63,36.63,1.79,17.74-1.19,35.16-5.34,51.54-12.29,5.77-2.47,10.06-4.69,13.03-6.28l4.45-2.25Z"/>
    </g>
    <g class="cls-15">
      <path class="cls-13" d="M733.97,858.51s-6.4,1.11-16.88,1.85c-5.23.38-11.49.58-18.43.52s-14.56-.52-22.53-1.39c-7.97-.86-15.49-2.19-22.29-3.6-6.8-1.41-12.83-3.02-17.86-4.57-10.06-3.02-16.09-5.49-16.09-5.49l1.11.34,3.2,1.11c1.39.5,3.08,1.09,5.07,1.69s4.22,1.39,6.76,2.01c5.03,1.51,11.08,3.02,17.86,4.47,6.78,1.45,14.3,2.66,22.25,3.56s15.57,1.29,22.49,1.43,13.18,0,18.41-.44c2.61-.1,4.99-.36,7.06-.52s3.86-.36,5.31-.54l3.36-.38,1.21-.04Z"/>
    </g>
    <g class="cls-15">
      <path class="cls-13" d="M877.96,913.16s.36-.6,1.13-1.73,1.85-2.8,3.22-4.97c1.65-2.65,3.15-5.4,4.47-8.23,1.77-3.72,2.93-7.71,3.42-11.81.55-4.99-.53-10.03-3.08-14.36-3.05-4.89-7.48-8.76-12.73-11.12-5.82-2.53-12.14-3.73-18.49-3.52-6.79.2-13.54,1.16-20.12,2.88-3.42.76-6.7,1.89-9.94,2.92-3.24,1.03-6.38,2.31-9.35,3.74-5.81,2.58-11.43,5.56-16.82,8.93-9.11,5.73-17.71,12.24-25.69,19.47-6.82,6.16-12.07,11.53-15.51,15.27l-4.02,4.39-1.41,1.51s1.83-2.17,5.27-6.03c3.44-3.86,8.63-9.19,15.43-15.39,7.96-7.26,16.54-13.8,25.65-19.55,5.4-3.38,11.02-6.37,16.84-8.95,3-1.45,6.2-2.53,9.39-3.76,3.2-1.23,6.56-2.17,10.06-2.94,6.62-1.74,13.43-2.71,20.28-2.88,6.41-.21,12.79,1.01,18.67,3.58,5.31,2.4,9.8,6.33,12.87,11.28,2.57,4.4,3.65,9.5,3.08,14.56-.52,4.13-1.7,8.14-3.5,11.89-1.35,2.83-2.86,5.57-4.55,8.21-2.86,4.26-4.57,6.62-4.57,6.62Z"/>
    </g>
    <g class="cls-15">
      <path class="cls-13" d="M858.53,922.62s-.26-.44-.66-1.33c-.53-1.29-.9-2.64-1.09-4.02-.26-2.23-.21-4.48.14-6.7.47-2.92,1.11-5.82,1.91-8.67,1.01-3.43,1.62-6.96,1.83-10.52.36-4.09-.93-8.16-3.58-11.3-3.25-3.18-7.71-4.82-12.25-4.51-4.86.19-9.67,1.14-14.24,2.8-16.34,5.19-31.66,13.17-45.28,23.58-4.11,3.15-8.06,6.5-11.83,10.06-1.35,1.25-2.33,2.27-3.04,2.94s-1.07,1.03-1.07,1.03c0,0,1.37-1.51,4.02-4.02,3.74-3.6,7.67-7,11.77-10.18,13.58-10.52,28.91-18.57,45.28-23.8,4.61-1.67,9.46-2.62,14.36-2.8,4.65-.32,9.21,1.37,12.53,4.65,2.72,3.22,4.03,7.39,3.64,11.59-.22,3.59-.86,7.14-1.89,10.58-.83,2.84-1.51,5.72-2.01,8.63-.36,2.19-.43,4.43-.2,6.64.17,1.38.51,2.73,1.01,4.02l.64,1.35Z"/>
    </g>
    <g class="cls-15">
      <path class="cls-13" d="M831.03,917.03c-.88-1.11-1.85-2.13-2.92-3.06-2.65-2.16-5.95-3.37-9.37-3.44-3.42.02-6.72,1.19-9.39,3.32-1.09.91-2.08,1.92-2.98,3.02.71-1.25,1.65-2.35,2.78-3.24,5.53-4.71,13.68-4.66,19.15.12,1.11.91,2.04,2.02,2.74,3.28Z"/>
    </g>
    <g class="cls-15">
      <path class="cls-13" d="M910.5,781.59l-1.81.8c-1.73.8-3.4,1.7-5.01,2.72-5.84,3.87-10.98,8.7-15.21,14.28-5.57,6.9-10.84,16.09-17.9,25.47-3.71,4.91-7.97,9.38-12.69,13.32-5.09,4.21-10.64,7.83-16.56,10.78-11.43,5.68-23.75,9.36-36.43,10.88-10.32,1.25-20.74,1.55-31.12.89-8.87-.52-15.99-1.43-20.9-2.11-4.91-.68-7.6-1.17-7.6-1.17,0,0,.68,0,2.01.24l5.65.76c4.91.64,12.07,1.49,20.9,2.01,10.35.62,20.74.29,31.04-.99,12.63-1.54,24.91-5.21,36.31-10.86,5.87-2.95,11.4-6.55,16.47-10.72,4.7-3.93,8.94-8.37,12.65-13.24,7.06-9.33,12.35-18.55,17.98-25.43,4.26-5.59,9.45-10.41,15.35-14.24,1.62-1.01,3.3-1.9,5.05-2.66l1.81-.74Z"/>
    </g>
    <g class="cls-15">
      <path class="cls-13" d="M869.53,771.03s-.48.6-1.43,1.69c-.95,1.09-2.35,2.7-4.32,4.63-2.34,2.4-5.06,4.39-8.05,5.89-4.1,2-8.82,2.26-13.12.72-2.5-.9-4.61-2.66-5.93-4.97-1.33-2.57-1.73-5.52-1.13-8.35.62-3.02,2-5.84,4.02-8.17,2.14-2.46,4.57-4.64,7.24-6.5,5.57-4.3,12.06-7.26,18.97-8.63,3.7-.62,7.48-.52,11.14.3,3.81.84,7.34,2.63,10.26,5.21h.1v.12c-.96,4.45-2.31,8.81-4.02,13.03-6.23,15.06-16.86,27.88-30.5,36.79-5.93,3.85-12.36,6.86-19.11,8.95-6.32,1.87-12.89,2.27-18.1-.14-4.7-2.16-8.27-6.21-9.82-11.14-1.13-3.71-.99-7.69.4-11.3.84-2.29,2.14-4.37,3.82-6.14.57-.62,1.21-1.18,1.89-1.67l-.48.42c-.48.41-.93.84-1.35,1.31-1.64,1.77-2.91,3.86-3.72,6.14-1.36,3.59-1.48,7.52-.34,11.18,1.49,4.84,4.94,8.84,9.51,11.02,5.13,2.33,11.65,2.01,17.9,0,6.72-2.09,13.11-5.1,18.99-8.95,13.58-8.83,24.17-21.56,30.39-36.51,1.72-4.2,3.06-8.54,4.02-12.97v.2c-5.83-4.88-13.55-6.88-21.02-5.45-6.86,1.33-13.3,4.25-18.83,8.53-2.65,1.84-5.06,3.99-7.18,6.42-2.02,2.29-3.4,5.06-4.02,8.05-.57,2.73-.2,5.56,1.07,8.05,1.29,2.25,3.33,3.97,5.77,4.85,4.22,1.53,8.88,1.29,12.91-.66,2.98-1.48,5.69-3.44,8.05-5.79,2.01-2.01,3.4-3.52,4.37-4.59l1.63-1.57Z"/>
    </g>
    <path class="cls-10" d="M414.29,842.58h309.36v-11.51h-297.83c-6.36,0-11.52,5.15-11.53,11.51Z"/>
    <rect class="cls-10" x="486.65" y="660.87" width="237" height="179.25" rx="6.72" ry="6.72"/>
    <rect class="cls-11" x="496.55" y="669.4" width="217.21" height="159.64"/>
    <path class="cls-10" d="M496.55,829.04v-43.85c0-27.88,0-67.75.14-115.79l-.26.22h217.25l-.3-.26v159.64l.28-.24-157.12.12h-44.37,201.84v-160.14h-217.87v.68c0,48.1.12,88.03.14,115.95v40.79c0,1.93.28,2.88.28,2.88Z"/>
    <path class="cls-2" d="M529.05,712.37h42.93l107.1.1-.26-.26v73.88l.26-.26h-148.94,42.58l106.35.1h.26v-74.23h-149.54l-.74.66Z"/>
    <path class="cls-2" d="M529.05,724.78c0,.14,33.57.26,75.01.26s75.01-.12,75.01-.26-33.57-.28-75.01-.28-75.01.12-75.01.28Z"/>
    <path class="cls-2" d="M530.14,734.66c0,.14,33.59.26,75.01.26s75.01-.12,75.01-.26-33.57-.26-75.01-.26-75.01.12-75.01.26Z"/>
    <path class="cls-2" d="M529.05,745.08c0,.14,33.57.26,75.01.26s75.01-.12,75.01-.26-33.57-.26-75.01-.26-75.01.12-75.01.26Z"/>
    <path class="cls-2" d="M529.05,755.24c0,.14,33.57.26,75.01.26s75.01-.12,75.01-.26-33.57-.28-75.01-.28-75.01.12-75.01.28Z"/>
    <path class="cls-2" d="M529.05,765.37c0,.16,33.57.28,75.01.28s75.01-.12,75.01-.28-33.57-.26-75.01-.26-75.01.12-75.01.26Z"/>
    <path class="cls-2" d="M679.07,775.53c0-.14-33.59-.26-75.01-.26s-75.01.12-75.01.26,33.57.26,75.01.26,75.01-.12,75.01-.26Z"/>
    <path class="cls-2" d="M649.36,787.18c.14,0,.26-16.74.26-37.39s-.12-37.41-.26-37.41-.26,16.74-.26,37.41.12,37.39.26,37.39Z"/>
    <path class="cls-2" d="M619.29,787.18c.14,0,.26-16.74.26-37.39s-.12-37.41-.26-37.41-.28,16.74-.28,37.41.12,37.39.28,37.39Z"/>
    <path class="cls-2" d="M589.2,787.18c.16,0,.28-16.74.28-37.39s-.12-37.41-.28-37.41-.26,16.74-.26,37.41.12,37.39.26,37.39Z"/>
    <path class="cls-2" d="M559.13,787.18c.14,0,.26-16.74.26-37.39s-.12-37.41-.26-37.41-.26,16.74-.26,37.41.12,37.39.26,37.39Z"/>
    <path class="cls-2" d="M529.05,787.18c.14,0,.26-16.74.26-37.39s-.12-37.41-.26-37.41-.28,16.74-.28,37.41.12,37.39.28,37.39Z"/>
    <path class="cls-6" d="M529.05,724.78c.35.32.73.61,1.13.86l3.36,2.39,12.59,8.69c10.72,7.34,25.73,17.56,42.79,29.09l.2.14h.26l12.77-4.3,17.3-5.85h-.46l30.17,20.22h0l21.77,7.52,6.03,2.01,1.57.48.54.14-.5-.26-1.53-.6-5.91-2.19-21.62-7.87h.1l-30.03-20.4-.2-.14h-.26l-17.3,5.83-12.77,4.3h.46c-17.08-11.51-32.18-21.6-42.97-28.81l-12.67-8.29-3.48-2.23c-.41-.3-.86-.55-1.33-.74Z"/>
    <path class="cls-6" d="M647.53,775.53c0,1.01.82,1.83,1.83,1.83s1.83-.82,1.83-1.83-.82-1.83-1.83-1.83-1.83.82-1.83,1.83h0Z"/>
    <path class="cls-6" d="M617.46,755.24c0,1.01.82,1.83,1.83,1.83s1.83-.82,1.83-1.83-.82-1.83-1.83-1.83-1.83.82-1.83,1.83h0Z"/>
    <path class="cls-6" d="M587.37,765.21c0,1.01.82,1.83,1.83,1.83s1.83-.82,1.83-1.83-.82-1.83-1.83-1.83-1.83.82-1.83,1.83Z"/>
    <path class="cls-6" d="M556.99,745.16c0,1.01.82,1.83,1.83,1.83s1.83-.82,1.83-1.83-.82-1.83-1.83-1.83-1.83.82-1.83,1.83h0Z"/>
    <path class="cls-4" d="M529.05,775.53c.2-.08.39-.18.56-.3l1.61-1.01,6.03-4.02,22.13-14.54h-.44c8.55,5.77,18.81,12.65,30.01,20.12l.4.28.3-.4c4.97-6.68,10.3-13.88,15.81-21.32l14.26-19.27h-.78l30.17,30.37h0l22.35,7.26,6.03,1.91,1.59.48c.18.07.37.11.56.12l-.52-.24-1.57-.56-6.03-2.13-22.25-7.58.16.1c-8.29-8.47-18.57-18.91-29.99-30.56l-.42-.42-.36.48c-4.57,6.03-9.35,12.61-14.28,19.27l-15.79,21.34.7-.12-30.17-20.12-.22-.16-.22.16-21.64,15.33-6.03,4.12-1.53,1.11c-.26.14-.44.28-.42.3Z"/>
    <path class="cls-4" d="M617.46,734.92c0,1.01.82,1.83,1.83,1.83s1.83-.82,1.83-1.83-.82-1.83-1.83-1.83-1.83.82-1.83,1.83Z"/>
    <path class="cls-4" d="M647.53,765.37c0,1.01.82,1.83,1.83,1.83s1.83-.82,1.83-1.83-.82-1.83-1.83-1.83-1.83.82-1.83,1.83h0Z"/>
    <path class="cls-4" d="M587.37,775.53c0,1.01.82,1.83,1.83,1.83s1.83-.82,1.83-1.83-.82-1.83-1.83-1.83-1.83.82-1.83,1.83h0Z"/>
    <path class="cls-4" d="M557.3,757.07c0,1.01.82,1.83,1.83,1.83s1.83-.82,1.83-1.83-.82-1.83-1.83-1.83-1.83.82-1.83,1.83h0Z"/>
    <path class="cls-2" d="M661.92,794.46c.94.28,1.92.38,2.9.28.97.1,1.96,0,2.9-.28-.94-.26-1.92-.35-2.9-.26-.97-.08-1.95,0-2.9.26Z"/>
    <path class="cls-2" d="M631.18,794.46c.94.28,1.92.38,2.9.28.97.1,1.96,0,2.9-.28-.94-.26-1.92-.35-2.9-.26-.97-.08-1.95,0-2.9.26Z"/>
    <path class="cls-2" d="M600.44,794.46c.94.28,1.92.38,2.9.28.97.09,1.96,0,2.9-.28-.94-.25-1.92-.34-2.9-.26-.97-.08-1.95,0-2.9.26Z"/>
    <path class="cls-2" d="M569.69,794.46c.94.28,1.92.38,2.9.28.97.1,1.96,0,2.9-.28-.94-.26-1.92-.35-2.9-.26-.97-.08-1.95,0-2.9.26Z"/>
    <path class="cls-2" d="M538.95,794.46c.94.28,1.92.38,2.9.28.97.09,1.96,0,2.9-.28-.92-.27-1.88-.38-2.84-.32-1-.07-2,.04-2.96.32Z"/>
    <path class="cls-2" d="M683.32,785.65c1.53.38,3.13.38,4.67,0-1.54-.35-3.13-.35-4.67,0Z"/>
    <path class="cls-2" d="M683.32,773.84c1.53.38,3.13.38,4.67,0-1.54-.35-3.13-.35-4.67,0Z"/>
    <path class="cls-2" d="M683.32,761.95c1.53.38,3.13.38,4.67,0-1.54-.35-3.13-.35-4.67,0Z"/>
    <path class="cls-2" d="M683.32,750.23c1.53.38,3.13.38,4.67,0-1.54-.35-3.13-.35-4.67,0Z"/>
    <path class="cls-2" d="M683.32,738.42c1.53.38,3.13.38,4.67,0-1.54-.35-3.13-.35-4.67,0Z"/>
    <path class="cls-2" d="M683.32,726.61c1.53.38,3.13.38,4.67,0-1.54-.35-3.13-.35-4.67,0Z"/>
    <path class="cls-2" d="M683.32,714.8c1.53.38,3.13.38,4.67,0-1.54-.35-3.13-.35-4.67,0Z"/>
    <rect class="cls-6" x="636.75" y="686.84" width="43.11" height="3.06"/>
    <path class="cls-10" d="M559.77,695.75c0,.16,26.95.26,60.19.26s60.19-.1,60.19-.26-26.93-.18-60.19-.18-60.19,0-60.19.18Z"/>
    <path class="cls-10" d="M603.76,809.21c0,.14,16.43.26,36.71.26s36.69-.12,36.69-.26-16.43-.26-36.69-.26-36.71.12-36.71.26Z"/>
    <path class="cls-10" d="M659.54,814.76c5.22.35,10.45.35,15.67,0-5.22-.38-10.45-.38-15.67,0Z"/>
    <path class="cls-10" d="M537.22,808.22c0,.16,11.69.28,26.15.28s26.15-.12,26.15-.28-11.69-.26-26.15-.26-26.15.12-26.15.26Z"/>
    <path class="cls-10" d="M565.6,811.82c5.43.35,10.88.35,16.31,0-5.43-.38-10.88-.38-16.31,0Z"/>
  </g>
  <g id="freepik--Character--inject-7">
    <rect class="cls-10" x="175.22" y="836.82" width="215.32" height="81.65"/>
    <path class="cls-7" d="M533.24,539.13s-7.64-6.98-10.06-14.95c-2.12-6.05-5.79-11.44-10.64-15.63-1.33-1.01-6.64-6.98-6.64-6.98,0,0-.66-6.03,6.98-5.33,7.71.63,14.93,4.06,20.28,9.66,5.31,5.65,8.31,2.31,11.97.32,3.66-1.99,14.62-5.65,16.62-12.29,1.99-6.64,12.63-26.93,12.63-26.93,0,0,10.96-18.61,14.3-17.94,3.34.66,5.23,2.88,3.9,7.54-1.33,4.67-11.55,31.34-9.55,34.68,1.99,3.34,4.02,2.66,5.65.99,1.63-1.67,29.75-34.76,35.75-34.38,5.99.38,5.81,5.45,2.82,9.45-3,4-27.26,33.89-27.26,33.89l15.29-10.64s15.97-14.64,19.51-14.08c5.23.95,3,8.59-1.57,13.7-4.26,4.77-15.61,17.28-15.61,17.28l-10.98,14.3s26.33-11.39,27.98-8.73,2.01,6.66,0,8.31c-2.01,1.65-24.98,14.38-24.98,14.38l-27.6,30.17-48.78-26.79Z"/>
    <path class="cls-7" d="M204.95,438.82l96.21-1.25,2.98-82.19s6.58-1.41,7.02-37.07c.44-35.66,2.01-96.31,2.01-96.31h0c-41.3-17.74-88.97-11.75-124.6,15.67l-5.29,4.02,21.6,120.69.06,76.44Z"/>
    <path class="cls-7" d="M194.53,285.62c-.6-.26-24.52-7.26-23.74,17.14.78,24.4,25.12,18.67,25.12,17.88s-1.39-35.02-1.39-35.02Z"/>
    <path class="cls-7" d="M309.09,280.51c.62-.26,22.37-6.03,21.58,18.29-.78,24.32-25.1,18.57-25.12,17.86s3.54-36.15,3.54-36.15Z"/>
    <path class="cls-10" d="M336.47,210.04c.51-4.49-1.32-8.94-4.85-11.77-3.7-2.69-8.81-2.31-12.07.91,1.32-5.88-2.38-11.71-8.25-13.03-.37-.08-.75-.15-1.12-.19-5.81-.36-10.78,4.02-16.41,5.57s-11.37.2-16.66-2.01c-5.29-2.21-10.26-4.89-15.61-6.9-23.5-8.57-49.53,3.38-58.34,26.79-7.8-2.45-16.66,1.51-21.48,8.05-4.83,6.54-6.03,15.29-5.09,23.41.75,5.5,2.09,10.89,4.02,16.09v1.37c.38,19.61,10.6,81.61,18.97,81.75,14.6.22,3.12-66.24,3.12-66.24,17.9-6.9,11.22-33.73,15.71-37.8s13.84-13.54,51.31,5.63c14.56,7.44,33.91,7.2,44.48,4.81l.95-.2h.22c.1-.03.2-.08.3-.12,3.39-.83,6.64-2.19,9.62-4.02,3.51-2.02,6.29-5.1,7.93-8.81,1.59-3.79.8-8.16-2.01-11.16,2.91-3.43,4.75-7.66,5.27-12.13Z"/>
    <path class="cls-10" d="M186.63,282.88c3.64,20.44,2.92,31.18,6.3,44.84,5.33,21.6,16.09,38.22,35.52,48.96,19.43,10.74,45.78,10.6,62.52-4.02,11.57-10.26,19.81-21.79,21.62-37.15,1.81-15.37,3.44-42.52,3.54-57.95.2-27.86,2.01-54.49,2.01-54.49l-79.6-14.28-45.28,26.83-6.64,47.27Z"/>
    <path class="cls-10" d="M268.7,388.99c.12.58-6.14,2.13-13.94,1.25-7.8-.89-13.58-3.72-13.34-4.24s6.03,1.23,13.58,2.01c7.54.78,13.6.34,13.7.99Z"/>
    <path class="cls-13" d="M289.4,205.12c-1.21.43-2.49.67-3.78.68-3.54.04-7.04-.78-10.2-2.37-4.59-2.42-8.9-5.32-12.87-8.65-4.81-4.05-10.62-6.72-16.82-7.74-11.54-1.7-23,3.6-29.17,13.5-2.47,4.05-4.08,8.56-4.73,13.26,0-1.28.14-2.57.4-3.82,1.74-8.7,7.22-16.19,14.99-20.48,5.7-3.05,12.22-4.22,18.63-3.34,6.36,1.06,12.3,3.84,17.18,8.05,3.92,3.32,8.17,6.25,12.67,8.73,3.06,1.61,6.44,2.49,9.9,2.59,1.27-.06,2.54-.19,3.8-.4Z"/>
    <path class="cls-4" d="M212.96,215.15c-1.84-.88-3.75-1.6-5.71-2.13-9.8-2.45-19.73,3.5-22.18,13.3-.05.19-.09.37-.13.56-.38,1.99-.59,4.01-.62,6.03-.17-.53-.27-1.09-.28-1.65-.12-1.53-.02-3.07.3-4.57,1.86-9.97,11.45-16.54,21.42-14.68.55.1,1.09.23,1.63.38,1.48.4,2.9.99,4.22,1.77.5.26.95.59,1.35.99Z"/>
    <path class="cls-4" d="M210.6,302.15c-.56.24-3.56-5.35-6.68-12.51s-5.19-13.16-4.63-13.4,3.54,5.35,6.66,12.51c3.12,7.16,5.21,13.16,4.65,13.4Z"/>
    <path class="cls-4" d="M231.44,316.15c-.32.48-6.4-3.72-11.26-11.24-4.87-7.52-6.34-14.74-5.77-14.85s2.92,6.48,7.64,13.62c4.73,7.14,9.84,11.97,9.39,12.47Z"/>
    <path class="cls-4" d="M252.02,320.66c-.32.52-4.85-1.77-9.51-5.85-4.67-4.08-7.58-8.27-7.12-8.65s4.02,3.02,8.57,6.96c4.55,3.94,8.41,7.02,8.07,7.54Z"/>
    <path class="cls-4" d="M288.45,287.61c.58,0,.52,5.73-2.15,12.07-2.68,6.34-6.66,10.5-7.08,10.06s2.53-4.89,5.01-10.96c2.47-6.07,3.48-11.24,4.22-11.16Z"/>
    <path class="cls-4" d="M300.66,268.34c.58,0,1.17,6.9-1.39,14.95s-6.96,13.44-7.4,13.08,2.9-6.03,5.27-13.74c2.37-7.7,2.88-14.3,3.52-14.28Z"/>
    <path class="cls-4" d="M310.12,219.04c-.94.96-2.01,1.79-3.18,2.45-3.2,1.86-6.79,2.97-10.48,3.24-5.48.39-10.98-.46-16.09-2.47-6.16-2.51-12.12-5.48-17.82-8.89-5.67-3.38-11.75-6.01-18.1-7.8-5.19-1.44-10.67-1.44-15.85,0-3.49.97-6.68,2.8-9.29,5.31-1.81,1.83-2.49,3.1-2.57,3.04.6-1.21,1.39-2.31,2.33-3.28,2.57-2.68,5.79-4.63,9.35-5.67,5.28-1.58,10.9-1.67,16.23-.28,6.43,1.78,12.59,4.41,18.33,7.82,5.68,3.4,11.59,6.37,17.7,8.91,4.99,2.01,10.36,2.89,15.73,2.59,4.97-.23,9.75-1.96,13.72-4.97Z"/>
    <path class="cls-4" d="M317.2,230.6c-.39.34-.82.63-1.29.84-1.22.71-2.49,1.34-3.8,1.87-4.3,1.82-8.86,2.96-13.52,3.38-4.66.42-9.35.13-13.92-.86-1.36-.3-2.71-.69-4.02-1.15-.51-.13-.99-.34-1.43-.62,0-.14,2.15.52,5.61,1.15,4.53.79,9.14.99,13.72.6,4.57-.44,9.07-1.47,13.38-3.08,3.26-1.25,5.21-2.27,5.27-2.13Z"/>
    <path class="cls-6" d="M89.97,457.08s21,97.64,34.2,138.09c18.65,57.49,39.21,109.87,39.21,109.87,0,0-14.08,127.96-21.77,174.66l-7.18,40.05h66.76l15.97-66.74,8.39,66.74,194.42-.52-24.78-220.83-5.35-92.07,11.67-149.26-93.72-36.43-112.85-3.62-104.96,40.05Z"/>
    <path class="cls-6" d="M57.66,730.07c-9.71-17.25-13.73-37.12-11.47-56.79,4.18-31.78,29.19-157.85,29.19-157.85l14.58-58.34,56.32,128.16-9.37,109.41,27.3,14.08-8.85,65.72s-91.77-31.78-97.7-44.39Z"/>
    <path class="cls-6" d="M349.64,568.46c2.19,3.04,98.99,139.12,126.27,154.31,24.64,13.7,48.62,10.2,55.92-.22,7.3-10.42,52.02-147.67,52.02-147.67,0,0-16.6-39.31-52-35.14l-34.4,70.4s-40.69-60.95-45.9-75.25c-5.21-14.3-48.7-79.74-50.03-77.87-5.15,7.34-64.39,94.12-51.88,111.44Z"/>
    <path class="cls-6" d="M194.93,419.37l9.03-23.27s96.98,2.7,98.57,3.24l6.8,21.95-66.92,8.33-47.47-10.24Z"/>
    <polygon class="cls-5" points="203.95 396.09 204.95 391.71 301.77 396.09 302.55 399.33 203.95 396.09"/>
    <g class="cls-14">
      <path class="cls-1" d="M141.1,645.16c-23.01-42.1-38.22-96.33-49.54-142.96-2.72,43.81-1.23,94.26,12.21,136.04,4.57,14.18,19.99,36.51,34.5,39.95.66.48,1.59-21.77,2.84-33.03"/>
    </g>
    <path class="cls-10" d="M152.35,799.11c-.03-.15-.03-.3,0-.44l.12-1.33c0-1.21.26-2.92.48-5.09.46-4.53,1.13-11.02,2.01-19.23,1.75-16.53,4.24-39.91,7.2-67.47v.2c-6.62-18.65-14.52-39.35-22.91-61.09-7.91-20.54-15.45-40.11-21.89-58.05-6.44-17.94-11.91-34.2-16.09-48.06-8.41-27.62-11.77-45.18-11.77-45.18.1.26.18.53.24.8.14.56.34,1.35.6,2.33.54,2.11,1.31,5.13,2.27,8.99.97,3.86,2.33,8.65,3.82,14.18,1.49,5.53,3.36,11.77,5.53,18.65,4.22,13.78,9.72,30.03,16.25,47.96,6.54,17.92,14.08,37.46,21.97,57.99,8.37,21.77,16.25,42.46,22.83,61.15v.2c-3.1,27.56-5.73,50.91-7.58,67.43-.95,8.19-1.71,14.68-2.23,19.19-.28,2.19-.48,3.88-.64,5.09l-.18,1.31c0,.15-.02.31-.04.46Z"/>
    <path class="cls-10" d="M390.26,622.17s-.12-.1-.3-.32l-.86-1.07c-.72-.93-1.87-2.27-3.18-4.12-3.8-5.15-7.28-10.52-10.42-16.09-4.7-8.25-8.59-16.94-11.59-25.95-3.72-11.04-5.86-22.56-6.36-34.2-.38-11.67,1.18-23.32,4.61-34.48,2.77-9.11,6.91-17.75,12.27-25.63,3.59-5.31,7.8-10.17,12.53-14.48,1.63-1.57,3.1-2.57,4.02-3.34l1.07-.82c.26-.18.38-.28.4-.26-.09.13-.2.24-.32.34l-1.01.91c-.86.82-2.29,1.87-3.86,3.48-4.6,4.4-8.69,9.3-12.21,14.6-5.21,7.86-9.23,16.45-11.95,25.49-3.35,11.08-4.86,22.63-4.49,34.2.52,11.53,2.63,22.94,6.28,33.89,2.95,8.97,6.74,17.63,11.33,25.89,3.06,5.58,6.41,10.99,10.06,16.21,1.25,1.87,2.33,3.26,3,4.24l.78,1.11c.09.12.15.26.2.4Z"/>
    <g class="cls-14">
      <path class="cls-1" d="M358.43,544.1c5.67,52.3,16.25,104.3,36.77,152.74l-4.79-72.21c-15.57-24.62-26.41-51.93-31.98-80.52Z"/>
    </g>
    <g class="cls-14">
      <path class="cls-1" d="M183.85,650.23c32.52,50.17,76.73,91.71,128.84,121.04"/>
    </g>
    <path class="cls-10" d="M137.04,692.5c0,.2-2.25-.6-6.03-1.05-2.15-.27-4.33-.33-6.5-.18-2.65.2-5.27.67-7.82,1.41-2.52.78-4.95,1.82-7.26,3.08-1.89,1.07-3.68,2.31-5.35,3.7-2.7,2.39-4.2,4.16-4.37,4.16s.26-.52.89-1.39c.38-.52.79-1.01,1.25-1.47.55-.65,1.15-1.27,1.79-1.83,1.63-1.53,3.43-2.88,5.35-4.02,2.37-1.37,4.89-2.46,7.5-3.26,2.62-.76,5.32-1.22,8.05-1.37,2.23-.1,4.46.04,6.66.4.84.13,1.68.31,2.49.54.63.14,1.25.34,1.85.58.54.14,1.05.37,1.51.68Z"/>
    <path class="cls-10" d="M513.36,652.59c-.73-2.22-1.33-4.47-1.79-6.76-1.05-4.18-2.59-9.94-4.65-16.09-2.05-6.16-4.18-11.81-5.81-15.79-.97-2.12-1.83-4.3-2.55-6.52.4.49.73,1.03.99,1.61.56,1.07,1.35,2.64,2.25,4.61,2.33,5.14,4.38,10.41,6.14,15.77,1.76,5.36,3.21,10.81,4.37,16.33.42,2.13.74,3.86.91,5.05.13.59.19,1.19.16,1.79Z"/>
    <path class="cls-10" d="M503.85,677.47c-.34-.83-.6-1.68-.78-2.55-.44-1.67-1.01-4.02-1.63-7.08-1.62-7.84-2.81-15.77-3.56-23.74-.76-7.96-1.1-15.96-1.01-23.96,0-3.08.16-5.55.28-7.26-.01-.89.08-1.78.28-2.66.12.88.16,1.77.12,2.66v7.26c.1,6.03.42,14.56,1.31,23.88.89,9.31,2.17,17.64,3.24,23.68l1.31,7.12c.25.86.4,1.76.44,2.66Z"/>
    <path class="cls-10" d="M330.07,778.57l-.5-.12-1.47-.48c-1.29-.44-3.22-.99-5.61-2.01-6.83-2.54-13.49-5.52-19.93-8.93-9.57-5-18.75-10.73-27.44-17.14-10.62-7.9-20.67-16.55-30.05-25.89-16.83-17.15-32.42-35.49-46.65-54.86-5.53-7.38-9.94-13.4-12.93-17.58l-3.46-4.83-.86-1.27c-.2-.3-.3-.44-.28-.46.14.11.26.24.36.38l.97,1.23,3.66,4.71,13.2,17.36c14.37,19.21,30.01,37.44,46.81,54.57,9.35,9.31,19.34,17.95,29.89,25.87,8.63,6.45,17.72,12.26,27.2,17.38,6.4,3.44,12.98,6.51,19.73,9.19,2.37,1.01,4.28,1.61,5.53,2.13l1.45.56c.26.08.42.16.4.18Z"/>
    <g class="cls-14">
      <path class="cls-1" d="M137.02,692.76c-11.14-3.88-26.39.22-35.36,8.75-2.21,1.95-3.93,4.39-5.03,7.12-1.08,2.78-.86,5.9.62,8.49,2.37,3.72,7.66,4.75,11.83,3.28,4.1-1.75,7.56-4.7,9.94-8.47,2.35-3.74,4.92-7.34,7.68-10.78,2.82-3.47,6.98-5.58,11.45-5.81l-1.29-.68.16-1.89Z"/>
    </g>
    <g class="cls-14">
      <polygon class="cls-1" points="152.43 702.71 149.09 772.31 155.31 774.51 162.35 707.86 152.43 702.71"/>
    </g>
    <g class="cls-14">
      <path class="cls-1" d="M497.65,610.2c-.62,24.37,1.94,48.71,7.6,72.42.76,3.2,2.98,7.22,6.03,6.26,3.06-.97,2.84-5.03,2.13-8.05-2.29-9.75-4.58-19.51-6.86-29.27l-9.66-41.14"/>
    </g>
    <path class="cls-11" d="M531.85,539.74l2.66-5.87s22.83-6.82,37.44,5.87c14.6,12.69,16.09,23.45,16.09,23.45l-5.27,9.37s-15.97-33.31-50.91-32.83Z"/>
    <path class="cls-10" d="M305.91,420.13c-.36.13-.74.21-1.13.24l-3.26.44c-2.84.38-6.94.82-12.07,1.25-13.27,1.1-26.58,1.45-39.89,1.07-13.31-.38-26.58-1.49-39.77-3.34-5.05-.72-9.13-1.41-11.93-2.01l-3.24-.62c-.38-.05-.75-.16-1.11-.3.38-.04.77-.04,1.15,0l3.26.44c2.82.42,6.9.99,12.07,1.61,10.06,1.27,24.14,2.59,39.69,3.04,15.55.44,29.63,0,39.81-.74,5.09-.34,9.19-.66,12.07-.93l3.28-.26c.36.01.71.05,1.07.12Z"/>
    <path class="cls-10" d="M209.72,818.72c.28,0,4.02,22.55,8.39,50.45s7.64,50.55,7.36,50.59-4.02-22.53-8.39-50.43-7.64-50.55-7.36-50.61Z"/>
  </g>
  <g id="freepik--Dresk--inject-7">
    <path class="cls-10" d="M960.43,919.92c0,.28-209.02.52-466.68.52s-466.82-.24-466.82-.52,208.96-.52,466.82-.52,466.68.24,466.68.52Z"/>
  </g>
  <g id="freepik--speech-bubble--inject-7">
    <path class="cls-13" d="M369.52,340.39l20.78-36.59c-28.4-46.13-14.02-106.55,32.11-134.94,46.13-28.4,106.55-14.02,134.94,32.11,28.4,46.13,14.02,106.55-32.11,134.94-34.77,21.4-79.16,19.03-111.45-5.96h0l-44.27,10.44Z"/>
    <path class="cls-10" d="M369.52,340.39l44.25-10.68-.14.42h0l-1.21-1.57,1.57,1.21c6.22,4.75,12.97,8.76,20.12,11.95,8.49,3.76,17.48,6.29,26.69,7.5,5.09.7,10.23.95,15.37.74,2.66-.16,5.35-.24,8.05-.48l8.21-1.25c24.39-4.86,46.03-18.81,60.53-39.02,8.05-11.17,13.61-23.94,16.33-37.44,2.77-14.28,2.36-28.99-1.19-43.09-3.65-14.73-10.77-28.38-20.76-39.81l-4.02-4.34c-1.31-1.47-2.86-2.68-4.26-4.02-1.41-1.35-2.8-2.7-4.39-3.82l-4.65-3.48c-1.53-1.17-3.13-2.23-4.81-3.18l-4.91-3-5.17-2.51c-1.68-.87-3.42-1.64-5.19-2.31-13.79-5.45-28.62-7.74-43.41-6.7-13.99.95-27.6,4.96-39.87,11.75-22.05,12.25-38.57,32.49-46.15,56.54-3.03,10.25-4.48,20.9-4.3,31.58.23,9.28,1.79,18.48,4.65,27.32,2.39,7.34,5.62,14.38,9.64,20.98v.26c-13.46,23.39-20.12,34.92-21,36.47.89-1.55,7.38-13.18,20.56-36.71v.24c-4.08-6.61-7.37-13.68-9.8-21.06-2.91-8.88-4.53-18.14-4.79-27.48-.22-10.77,1.21-21.51,4.24-31.84,7.6-24.3,24.23-44.75,46.47-57.15,12.38-6.87,26.11-10.94,40.23-11.91,14.94-1.07,29.93,1.24,43.85,6.76,1.8.66,3.55,1.44,5.25,2.33l5.19,2.51,4.97,3.02c1.7.96,3.32,2.03,4.87,3.22l4.69,3.5c1.61,1.15,2.96,2.59,4.45,3.88,1.49,1.29,3,2.57,4.3,4.02l4.02,4.41c10.08,11.56,17.27,25.35,20.96,40.23,3.59,14.25,3.99,29.12,1.17,43.55-2.76,13.63-8.39,26.52-16.53,37.8-14.65,20.38-36.52,34.42-61.15,39.27l-8.27,1.25c-2.74.24-5.45.3-8.05.44-5.18.2-10.36-.06-15.49-.76-17.14-2.31-33.35-9.15-46.97-19.79l.36-.36h0l.26.32h-.4l-44.37,10.3Z"/>
    <path class="cls-10" d="M446.76,251.02c0,4.44-3.6,8.05-8.05,8.05s-8.05-3.6-8.05-8.05,3.6-8.05,8.05-8.05,8.05,3.6,8.05,8.05Z"/>
    <path class="cls-10" d="M479.15,251.02c0,4.44-3.6,8.05-8.05,8.05s-8.05-3.6-8.05-8.05,3.6-8.05,8.05-8.05,8.05,3.6,8.05,8.05Z"/>
    <path class="cls-10" d="M511.47,247c2.2,3.86.85,8.77-3.01,10.97-3.86,2.2-8.77.85-10.97-3.01-2.18-3.83-.88-8.69,2.92-10.92,3.83-2.25,8.76-.97,11.01,2.87.02.03.03.06.05.09Z"/>
  </g>
  <g id="freepik--Character--inject-10">
    <path class="cls-6" d="M790.63,167.9c-24.57-33.8-60.3-49.56-97.63-49.56,0,0-91.29,0-118.33,81.73-9.98,30.12-7.77,62.83,4.33,92.16,4.54,11.15,10.26,21.78,17.06,31.72,23.62,34.06,97.02,127.04,97.02,127.04h15.95c20.48-28.45,72.03-122.93,87.48-153.23,19.36-38.02,22.33-91.05-5.88-129.86ZM708.28,319.08c-43.07,0-77.99-34.92-77.99-77.99s34.92-77.99,77.99-77.99c43.07,0,77.99,34.92,77.99,77.99h0c0,43.08-34.92,77.99-77.99,77.99Z"/>
    <path class="cls-12" d="M790.63,167.9c-24.57-33.8-60.3-49.56-97.63-49.56,0,0-91.29,0-118.33,81.73-9.98,30.12-7.77,62.83,4.33,92.16,4.54,11.15,10.26,21.78,17.06,31.72,23.62,34.06,97.02,127.04,97.02,127.04h15.95c20.48-28.45,72.03-122.93,87.48-153.23,19.36-38.02,22.33-91.05-5.88-129.86ZM708.28,319.08c-43.07,0-77.99-34.92-77.99-77.99s34.92-77.99,77.99-77.99c43.07,0,77.99,34.92,77.99,77.99h0c0,43.08-34.92,77.99-77.99,77.99Z"/>
    <path class="cls-6" d="M806.68,168.53c-24.57-33.79-60.3-49.55-97.63-49.55,0,0-91.29,0-118.33,81.73-9.98,30.12-7.77,62.83,4.34,92.16,4.53,11.15,10.25,21.79,17.05,31.72,23.62,34.05,96.99,127.07,96.99,127.07,0,0,84.77-116.61,103.43-153.22,19.39-38.09,22.38-91.09-5.85-129.91ZM708.38,319.72c-43.07,0-77.99-34.92-77.99-77.99s34.92-77.99,77.99-77.99,77.99,34.92,77.99,77.99c.32,42.75-34.08,77.67-76.83,77.99-.39,0-.77,0-1.16,0Z"/>
    <path class="cls-6" d="M708.28,163.11c-33.03,0-62.47,20.8-73.51,51.93,15.21-33.62,54.8-48.55,88.42-33.33,33.62,15.21,48.55,54.8,33.33,88.42-15.21,33.62-54.8,48.55-88.42,33.33-9.88-4.47-18.52-11.27-25.18-19.83,23.5,36.09,71.81,46.3,107.9,22.81,36.09-23.5,46.3-71.81,22.81-107.9-14.39-22.1-38.97-35.43-65.35-35.43Z"/>
    <path class="cls-12" d="M708.28,163.11c-33.03,0-62.47,20.8-73.51,51.93,15.21-33.62,54.8-48.55,88.42-33.33,33.62,15.21,48.55,54.8,33.33,88.42-15.21,33.62-54.8,48.55-88.42,33.33-9.88-4.47-18.52-11.27-25.18-19.83,23.5,36.09,71.81,46.3,107.9,22.81,36.09-23.5,46.3-71.81,22.81-107.9-14.39-22.1-38.97-35.43-65.35-35.43Z"/>
    <path class="cls-7" d="M863.78,276.85c-3.14-2.16-6.94-3.11-10.73-2.7-6.39.73-15.65,1.68-15.65,1.68v.3l-44.74,2.75-13.7-27.79-20.76,13.68s2.73,4.37,14.37,25.86c4.65,8.59,14.17,13.37,23.84,11.96l52.69-7.77v-.1c5.45-.3,11.34-.81,12.2-1.6,1.64-1.49,3.13-6.92,3.13-6.92,0,0,9.39,5.55,11.19,5.7,1.81.16,2.14-1.39,3.26-2.98.8-.99-8.88-7.83-15.1-12.07Z"/>
    <path class="cls-9" d="M781.75,249.32s-8.7-16.74-16.64-32.55c-9.79-19.4-31.36-23.3-31.36-23.3l-31.26-4.1s-26.16-11.82-50.46,17.53l-19.97,22.31,4.25,3.83,19.8,17.75,3.92,3.53,8.96-9.23-4.16,23.38-7.36,32.59h0l15.9-1.92,10.75-65.73,60.62,4.83-4.84,41.48c.98-.14,8.31-1.59,10.69-11.55.77-3.18.77-6.49,0-9.67l3.51,8.98,27.65-18.14Z"/>
    <path class="cls-10" d="M684.05,233.43l-10.75,65.73-15.9,1.92c21.63,18.66,51.75,23.99,78.47,13.87l4.04-35.25,4.76-41.45-60.62-4.83Z"/>
    <path class="cls-10" d="M687.64,186.1l-1.31,53.4,10.07,1.6,1.35-54.12s-3.52-1.66-10.12-.88Z"/>
    <path class="cls-10" d="M730.42,239.77l8.33-45.86c.48-.51,7.31,1.94,9.37,4.27l-7.48,42.55-10.23-.95Z"/>
    <path class="cls-4" d="M696.8,233.24c.11.29.16.6.16.91.08.84.08,1.69,0,2.53-.08,1.29-.51,2.54-1.25,3.59-.46.63-1.06,1.14-1.76,1.49-.77.35-1.64.45-2.47.3-1.58-.33-2.96-1.31-3.79-2.7-.64-1.11-1.02-2.35-1.11-3.63-.07-.84-.07-1.69,0-2.53,0-.31.05-.63.17-.92.1,0,0,1.33.23,3.41.15,1.18.55,2.31,1.16,3.33.78,1.24,2.02,2.11,3.45,2.41,1.43.25,2.88-.34,3.72-1.53.71-.98,1.15-2.13,1.28-3.33.24-2,.12-3.33.23-3.33Z"/>
    <path class="cls-4" d="M690.86,237.96c-1.19-.47-1.76-1.82-1.29-3,.47-1.19,1.82-1.76,3-1.29h0c1.19.47,1.76,1.82,1.29,3-.47,1.19-1.82,1.76-3,1.29h0Z"/>
    <path class="cls-4" d="M738.25,238.25c0,1.28-1.03,2.32-2.31,2.33-1.28,0-2.32-1.03-2.33-2.31,0-1.28,1.03-2.32,2.31-2.33,0,0,0,0,.01,0,1.28,0,2.31,1.03,2.32,2.31Z"/>
    <path class="cls-4" d="M741.35,236.65c-.02.92-.19,1.83-.52,2.7-.31.98-.84,1.88-1.54,2.63-.91.94-2.2,1.42-3.51,1.29-1.28-.14-2.47-.75-3.33-1.72-.67-.79-1.11-1.74-1.29-2.76-.13-.67-.15-1.35-.07-2.03.01-.25.08-.5.2-.72.02.9.1,1.79.27,2.67.22.92.66,1.78,1.29,2.49.78.84,1.84,1.37,2.98,1.5,1.14.12,2.28-.29,3.08-1.11.67-.68,1.19-1.48,1.53-2.37.58-1.54.8-2.58.9-2.55Z"/>
    <path class="cls-4" d="M690.67,258.63c-.08,0-.11-.44-.09-1.11,0-.34,0-.77.06-1.22,0-.24,0-.49.06-.72v-.77h0l.32-.29h0c1.3.04,2.59.28,3.83.7-1.3.15-2.61.1-3.89-.13h0c-.07.07.61-.54.32-.28h0v.75c0,.24-.06.48-.09.73,0,.47-.12.88-.18,1.23-.14.63-.26,1.1-.33,1.1Z"/>
    <path class="cls-4" d="M689.05,273.87c-.15-1.28-.11-2.58.12-3.85.04-1.29.27-2.57.69-3.79.16,1.28.12,2.58-.11,3.85-.05,1.29-.29,2.57-.7,3.79Z"/>
    <path class="cls-4" d="M691.3,287.1c-1.27-.31-2.48-.81-3.61-1.48,0,.07-.3-.54-.17-.29h0v-.75l.1-.72c.07-.45.13-.88.19-1.22.13-.69.24-1.11.32-1.11s.11.45.09,1.11c0,.36-.02.77-.07,1.23,0,.26,0,.49-.07.73v.75h0c.14.26-.19-.36-.16-.29,1.21.51,2.35,1.19,3.36,2.03Z"/>
    <path class="cls-4" d="M701.55,292.2c-1.87-.48-3.62-1.34-5.15-2.51.95.16,1.87.5,2.68,1.02.91.33,1.75.83,2.46,1.49Z"/>
    <path class="cls-4" d="M713.76,295c-1.07.75-2.25,1.33-3.49,1.73h-.37l-.18-.09-.34-.18-.64-.33-1.11-.61c-.6-.36-.95-.61-.92-.69s.45,0,1.11.32c.32.13.71.3,1.11.5l.65.31.36.17.18.08h.09-.19c1.18-.59,2.45-.99,3.75-1.21Z"/>
    <path class="cls-4" d="M722.04,291.64c.06.16-.82.64-1.96,1.11s-2.12.72-2.22.58.82-.64,1.96-1.11c1.14-.47,2.15-.72,2.22-.58Z"/>
    <path class="cls-4" d="M730.19,284.64c.15,1.3.11,2.61-.11,3.89l-.19.24h-.09l-.19.08-.36.14-.68.26c-.44.16-.83.3-1.18.4-.67.22-1.11.32-1.11.24s.36-.3.98-.62l1.11-.52.68-.29.36-.14.18-.08h.1l-.18.24c.03-1.31.26-2.61.68-3.85Z"/>
    <path class="cls-4" d="M731.66,270.26c.15,2.42-.1,4.85-.74,7.19-.15-1.2-.12-2.42.09-3.62.03-1.22.25-2.42.65-3.57Z"/>
    <path class="cls-4" d="M728.94,258.8c1.3-.15,2.61-.1,3.89.13l.26.31h0v.75c0,.24-.06.48-.09.72-.07.47-.12.88-.19,1.23-.12.69-.24,1.11-.32,1.11s-.1-.45-.09-1.11c0-.36,0-.78.07-1.24l.06-.72v-.75h0l.26.31c-1.31-.06-2.6-.31-3.84-.74Z"/>
    <path class="cls-4" d="M715.33,257.34c2.3-.14,4.6.1,6.81.73-1.14.16-2.3.14-3.44-.08-1.15-.04-2.29-.26-3.37-.65Z"/>
    <path class="cls-4" d="M701.72,255.86c1.14-.16,2.3-.14,3.44.08,1.14.04,2.26.26,3.33.65-2.3.14-4.6-.1-6.81-.73h.04Z"/>
    <path class="cls-7" d="M630.4,237.07c-.08,1.33-.11,2.67-.11,4.03,0,5.27.53,10.53,1.59,15.69v.16c.13.64.29,1.28.44,1.91.6,2.51,1.32,4.98,2.12,7.42.1.3.2.61.31.91,2.86-.64,11.16-7.83,20.71-16.81l-19.79-17.75c-2.74,2.71-4.37,4.14-5.27,4.45Z"/>
    <path class="cls-10" d="M709.77,169.04c-4.58-3.69-7.24-10.46-7.41-16.34s4.26-16.62,7.08-21.77c3.44-6.28,4.14,3.03,6.25,4.3,1.26.75,1.9,2.26,1.98,3.73.08,1.46-.32,2.91-.73,4.32-2.4,8.59-4.81,17.18-7.21,25.77"/>
    <path class="cls-10" d="M736.21,117.47c9.76-2.55,16.02,1.86,18.76,5.32,2.73,3.45,3.79,7.95,4.04,12.35.25,4.39-.24,8.79-.25,13.17.04,2.54-.1,5.08-.43,7.6-.36,3.68-2.06,9.99-4.64,12.65-2.47,2.55-5,4.75-8.37,5.95-1.2.43-2.61.85-3.7.18-.8-.48-1.19-1.4-1.53-2.26-6.14-15.67-9.94-32.15-11.27-48.93"/>
    <path class="cls-7" d="M730.8,196.3c1.39-7.77,2.98-15.83,2.98-15.83,0,0,10.25.1,14.61-12.54,4.15-12.05,7.14-41.05,7.14-41.05h0c-13.47-8.38-30.73-7.5-43.27,2.22h0l-10.22,62.96c-1.19,7.31,4.15,14.15,11.98,15.35h0c7.89,1.29,15.4-3.75,16.76-11.12Z"/>
    <path class="cls-10" d="M747.87,148.61c-.15.9-.99,1.52-1.9,1.4-.89-.08-1.55-.87-1.47-1.76,0-.02,0-.03,0-.05.15-.91,1-1.52,1.91-1.4.89.09,1.54.88,1.46,1.77,0,.01,0,.03,0,.04Z"/>
    <path class="cls-10" d="M750.9,147.22c-.24.18-1.34-.98-3.14-1.29-1.8-.31-3.26.34-3.42.1s.2-.48.84-.79c.87-.41,1.85-.53,2.8-.36.93.17,1.78.62,2.44,1.3.48.52.6.94.48,1.03Z"/>
    <path class="cls-10" d="M729.46,145.69c-.15.91-1,1.52-1.91,1.4-.89-.09-1.54-.88-1.46-1.77,0-.01,0-.03,0-.04.15-.91,1-1.52,1.91-1.4.89.09,1.54.88,1.46,1.77,0,.01,0,.03,0,.04Z"/>
    <path class="cls-10" d="M732.07,144.57c-.24.18-1.34-.98-3.14-1.29-1.8-.31-3.26.36-3.43.1s.2-.47.85-.79c.87-.4,1.84-.52,2.78-.34.93.16,1.79.61,2.45,1.3.48.52.6.94.48,1.02Z"/>
    <path class="cls-10" d="M736.23,159.02c1-.13,2.01-.13,3.01,0,.47,0,.92,0,1.05-.28.12-.47.1-.96-.07-1.41-.23-1.19-.48-2.43-.74-3.73-1.01-5.29-1.64-9.62-1.43-9.66s1.2,4.23,2.22,9.53c.23,1.3.47,2.54.68,3.73.2.6.17,1.26-.08,1.84-.19.3-.51.5-.87.54-.27.03-.53.03-.8,0-1.01-.07-2.01-.26-2.97-.57Z"/>
    <path class="cls-3" d="M733.74,180.47c-6.14-1-11.88-3.69-16.59-7.77,0,0,2.65,9.67,15.88,10.74l.71-2.97Z"/>
    <path class="cls-3" d="M734.71,163.22c-.55-.99-1.56-1.63-2.68-1.71-.81-.06-1.61.2-2.22.73-.6.53-.8,1.38-.51,2.12.47.75,1.34,1.15,2.22,1.01.9-.16,1.76-.48,2.53-.97.23-.11.44-.26.61-.44.17-.18.21-.44.11-.67"/>
    <path class="cls-10" d="M730.8,159.33c.3,0,0,1.97,1.38,3.65,1.38,1.68,3.54,1.83,3.51,2.11s-.53.29-1.41.17c-1.14-.18-2.18-.77-2.94-1.64-.73-.84-1.1-1.94-1.03-3.05.01-.82.31-1.28.5-1.23Z"/>
    <path class="cls-7" d="M714.52,144.28c-1.34-.54-2.81-.71-4.24-.48-1.43.25-2.7,1.04-3.55,2.22-.77,1.24-1.04,2.72-.77,4.15.29,1.42.89,2.76,1.75,3.92.56.87,1.32,1.6,2.22,2.12.93.5,2.04.5,2.97,0"/>
    <path class="cls-3" d="M712.27,152.57c.14.08-.61.81-1.82.24-.64-.35-1.12-.94-1.32-1.64-.26-.78-.35-1.61-.29-2.43.05-.88.41-1.71,1.02-2.34.52-.55,1.26-.83,2.01-.75,1.32.2,1.56,1.18,1.41,1.18s-.54-.48-1.44-.42c-1.15.23-1.96,1.26-1.92,2.43-.1,1.46.22,2.87.92,3.33s1.36.28,1.43.41Z"/>
    <path class="cls-10" d="M707.5,177.58c-6.46-1.61-10.4-8.15-8.8-14.61.55-2.21,1.71-4.22,3.36-5.8.44-.49,1.01-.82,1.65-.96,1.35-.19,2.4,1.12,3.12,2.28l5.26,8.36"/>
    <path class="cls-13" d="M702.4,174.38s-.29-.63-.6-1.7c-.18-.62-.3-1.26-.36-1.91-.05-.78,0-1.57.14-2.35.28-1.42.85-2.77,1.68-3.95.65-.9,1.15-1.39,1.12-1.42-.13.09-.26.2-.37.32-.32.31-.62.64-.89,1-1.41,1.84-2.09,4.14-1.9,6.45.06.66.2,1.31.4,1.95.08.24.16.48.27.71.07.18.15.35.25.52.07.14.16.27.26.39Z"/>
    <path class="cls-10" d="M710.88,126.93c3.4-5.04,8.69-8.61,14.37-10.78,3.05-1.16,6.32-1.97,9.56-1.58s6.44,2.12,7.96,5.01l.43.74c-5.49,7.05-9.63,13.15-16.01,19.41-2.35,2.3-5.31,11.35-6.48,14.42-4.01,10.48-11.05,13.67-11.05,13.67-12.79-3.09-2.19-35.85,1.21-40.89Z"/>
    <path class="cls-13" d="M702.8,156.73s.03-.09.03-.14l.09-.41c.01-.19.07-.42.13-.68l.22-.93c.5-1.93,1.25-3.8,2.22-5.54,1.45-2.58,3.25-4.95,5.35-7.04,2.6-2.54,5.44-4.81,8.48-6.79,3.21-2.16,6.37-4.03,9.2-5.83,2.52-1.57,4.95-3.28,7.28-5.1,1.57-1.24,3.06-2.59,4.45-4.04.5-.52.85-.93,1.09-1.22l.27-.33s.06-.08.09-.12c-.04.03-.08.06-.11.1-.07.08-.17.18-.29.31-.25.28-.63.68-1.12,1.18-1.41,1.42-2.9,2.74-4.48,3.97-2.35,1.8-4.79,3.49-7.31,5.05-2.83,1.79-6,3.67-9.22,5.82-3.05,1.99-5.9,4.28-8.5,6.83-2.11,2.11-3.9,4.51-5.34,7.12-.96,1.77-1.68,3.65-2.15,5.6-.07.35-.14.66-.19.93s-.08.5-.1.68-.04.31-.06.43c-.01.05-.02.1-.01.15Z"/>
    <path class="cls-4" d="M709.89,130.88c.22-.38.47-.75.75-1.08.36-.38.78-.71,1.23-.97.61-.35,1.26-.63,1.93-.82,1.47-.48,3.34-.74,5.34-1.21s4.22-1.04,6.49-1.76c3.89-1.23,7.67-2.77,11.32-4.59,1.4-.71,2.51-1.31,3.27-1.75l.87-.51c.1-.05.2-.12.29-.19-.11.04-.22.09-.32.15l-.89.47c-.77.42-1.9.99-3.3,1.68-3.66,1.77-7.44,3.27-11.32,4.5-2.27.72-4.46,1.31-6.48,1.78-2.01.47-3.85.76-5.35,1.26-.68.21-1.33.51-1.94.87-.46.28-.87.63-1.23,1.03-.13.14-.24.29-.35.45-.08.12-.15.24-.22.37-.06.11-.1.22-.13.33Z"/>
    <path class="cls-4" d="M702.47,154.29c0,.2.02.39.05.59.04.38.14.92.27,1.59.33,1.75.86,3.45,1.58,5.08.4.89.88,1.75,1.42,2.57.45.66.94,1.29,1.48,1.88.36.4.74.78,1.14,1.14.14.14.29.26.45.37.03-.03-.6-.6-1.47-1.62-.51-.6-.99-1.23-1.43-1.89-.52-.81-.99-1.67-1.39-2.55-.71-1.61-1.25-3.29-1.63-5.01-.14-.63-.25-1.15-.34-1.57-.02-.19-.07-.38-.14-.57Z"/>
    <path class="cls-10" d="M742.95,118.15c21.49,2.1,11.97,33.06,11.97,33.06h0c.73-12.08-12.46-28.09-12.46-28.09l-3.14-1.34,3.64-3.62Z"/>
    <path class="cls-4" d="M744.2,174.19l.16-.05.48-.16c.61-.21,1.21-.45,1.79-.73.92-.44,1.8-.96,2.63-1.55,1.11-.77,2.15-1.66,3.08-2.64,2.44-2.56,4.24-5.66,5.22-9.06,1.16-4.18,1.24-8.58.22-12.8-.5-2.18-1.26-4.29-2.25-6.29-.94-1.85-2.01-3.63-3.21-5.33-1.12-1.63-2.24-3.15-3.28-4.57-1.03-1.42-1.97-2.77-2.79-4.02-1.3-1.97-2.38-4.08-3.22-6.28-.14-.39-.28-.74-.37-1.05s-.16-.57-.22-.78l-.14-.48c-.01-.06-.03-.11-.06-.16,0,.06.01.12.03.17l.12.48c.05.22.12.48.2.79s.21.66.35,1.06c.81,2.23,1.87,4.36,3.17,6.35.81,1.26,1.73,2.61,2.77,4.04s2.14,2.96,3.26,4.58c1.18,1.7,2.24,3.47,3.18,5.31.98,1.99,1.73,4.09,2.23,6.26.99,4.17.92,8.53-.23,12.66-.97,3.37-2.73,6.46-5.14,9.01-1.62,1.72-3.52,3.15-5.62,4.21-.76.36-1.35.62-1.77.77l-.48.18s-.08.05-.12.07Z"/>
  </g>
</svg>