<?xml version="1.0" encoding="UTF-8"?>
<svg id="Layer_2" data-name="Layer 2" xmlns="http://www.w3.org/2000/svg" viewBox="0 0 1000 1000">
  <defs>
    <style>
      .cls-1 {
        fill: #455a64;
      }

      .cls-1, .cls-2 {
        stroke-width: 0px;
      }

      .cls-2 {
        fill: #09f;
      }
    </style>
  </defs>
  <g id="freepik--Map--inject-2">
    <path class="cls-1" d="M936.72,722.41c-.72,3.23-2.46,6.15-4.95,8.32-1.78,1.49-7.45,4.51-8.11.23.22-2.64.75-5.23,1.59-7.74,1.39-3.33,2.88-1.16,5.13-.72s4.49-1.78,6.35-.1Z"/>
    <path class="cls-1" d="M921.28,376.76c.81,2.86,1.35,5.67,1.94,8.32-2.19,3.27-6.5,2.05-9.68,3.87-1.51.81-1.94,3.87-3.37,4.28-1.43.41-2.07-1.22-3.17-1.2-2.83,0-4.22,5.81-7.74,4.28-1.94,1.43,0,6.91-2.38,7.37-1.74.33-2.71-2.38-3.75-4.05-1.28-1.94-3.12-3.12-3.15-4.74s2.83-4.53,3.74-5.81,3.35-4.14,4.76-4.53c2.63-.7,5.3.31,7.32-.7,2.01-1.01,1.94-4.16,2.77-4.99s1.7-.52,2.38-.95c2.63-2.41,3.69-6.08,2.77-9.52-.66-2.65-4.32-5.55-1.94-8.79,4.35,1.01,7.74,4.43,8.71,8.79.21,1.65-.54,3.29-.41,4.99.33,1.15.74,2.27,1.22,3.37Z"/>
    <path class="cls-1" d="M922.05,350.94c-.45,1.22-1.34.97-2.17,1.66s-1.76,2.86-2.77,3.1c-1.59.37-3.37-1.94-4.95-1.41-1.59.52-.77,2.23-1.37,4.26-2.21-.67-3.88-2.49-4.35-4.74,0-1.37,1.43-2.21,1.78-3.87.58-2.71-.93-4.08-1.78-6.66,0-.37.19-.41.19-.7,1.94-.5,5.81,3.87,10.08,4.74,2.85.52,5.21.21,5.34,3.62Z"/>
    <path class="cls-1" d="M914.75,592.15c.21,1.94-2.67,1.74-2.96.46.06-1.53,2.61-2.01,2.96-.46Z"/>
    <path class="cls-1" d="M900.9,330.89c1.94,1.24,6.72,4.06,3.37,6.66-2.46-1.24-3.82-3.94-3.37-6.66Z"/>
    <path class="cls-1" d="M891.8,581.69c2.26-1.49,4.74-4.74,8.71-3.1-.87,2.96-3.87,2.88-5.81,4.28s-3.52,3.75-5.94,4.03c-.15-.39-.43-.73-.79-.95.08-2.65,2.26-3.25,3.83-4.26Z"/>
    <path class="cls-1" d="M886.48,536.98c2.3,0,4.51-.85,6.12.25-.31,5.94-7.97,1.41-13.05,2.38-1.08.19-1.41,1.2-2.57.7.15-2.11,1.68-3.86,3.75-4.28,1.45-.17,3.62.95,5.75.95Z"/>
    <path class="cls-1" d="M888.43,544.36c.23,3.29-3.5,3.66-4.55,6.19,1.65,3.02,2.28,7.24,4.16,9.97,0,1.82.31,4.18-.6,4.99-3.87.91-6.12-7.74-7.74-10.68-3.06.68-.27,12.39-4.35,10.94-1.94-.72,0-4.06-.41-6.66-.37-2.28-2.23-2.75-2.36-4.53-.12-1.47,1.34-3.02,1.78-4.51.62-2.17.21-6.31,2.36-6.43,1.06,0,2.48,2.69,3.17,2.86,2.4.6,5.21-2.9,8.54-2.15Z"/>
    <path class="cls-1" d="M881.12,579.78c-.72,1.8-4.8.93-5.13-.72.7-1.88,4.8-1.32,5.13.72Z"/>
    <path class="cls-1" d="M877.36,585.49c-.23.34-.5.66-.79.95-1.49-.58-3.1-1.01-3.56-2.85,1.12-1.97,4.3-.39,4.35,1.9Z"/>
    <path class="cls-1" d="M872.02,579.55c-1.01,1.7-4.49-.15-5.81,1.65-2.07,0-4.14,0-4.55-2.13.58-1.74,2.46-.54,3.87-.72,2.54-.25,5.85-2.26,6.48,1.2Z"/>
    <path class="cls-1" d="M844.13,670.59c-.36-2.06-.84-4.09-1.43-6.1,0-.81.1-1.94,0-2.86-.28-1.17-.48-2.36-.6-3.56.29-1.59,1.82-1.74,2.19-3.1.62-2.23-.75-2.57-.79-5.23,0-1.94,1.18-2.79,1.94-5.23.35-1.14.37-3.25.77-4.05s2.71-1.94,3.56-2.38c3.04-1.78,5.48-5.11,8.52-5.71.77-.14,1.82.12,2.38,0,1.78-.37,4.05-2.17,6.52-2.85,2.48-.68,4.53-.41,6.33-1.66,2.4-1.89,4.3-4.34,5.54-7.14.91-2.59.64-4.8,2.38-5.69.85-.45,1.68,0,2.57-.23,1.31-.5,2.51-1.22,3.56-2.15,1.37-1.49,1.61-3.87,3.15-5.48,1.39-1.33,2.91-2.52,4.55-3.54.96-.58,2.05-.91,3.17-.97,2.79.29,4.08,4.97,7.12,4.05,1.08-.33,2.19-3.1,3.17-4.76,1.41-2.42,2.46-5.69,4.94-6.41,1.94-.6,4.24.93,5.34-1.2.25-1.49-.93-2.38,0-3.33,2.3.17,6.19,3.87,9.68,4.05,1.94,0,5.36-2.46,5.81.95.17,1.51-1.41,2.73-1.78,4.28-.25,1.1.39,1.68-.19,2.86-1.61.75-3.31,1.16-3.37,3.33,0,2.71,3.19,3.87,5.15,5.46,1.34,1.03,2.46,2.57,3.17,3.1s1.57.64,1.94.95c1.28,1.01,2.19,3.27,3.87,3.33,1.68.06,4.03-3.02,5.15-5.94,1.01-3.66,1.66-7.4,1.94-11.19.19-1.2.91-2.36,1.2-3.56.75-3.25,1.78-7.74,4.14-8.79,2.36,3,3.17,8.85,2.77,13.8,1.59,1.43,4.37.95,4.74,4.28.14,1.14-.46,2.61-.39,3.87.14,1.94,1.37,3.75,1.59,5.46.41,3.17-.45,5.81.79,8.09,1.53,2.9,4.57,2.81,6.52,5.94.09,1.47.42,2.92.99,4.28.19.72,0,1.94.21,2.38.62,1.59,2.34,1.74,2.96,3.08.31.66.21,1.94.6,3.1.76,1.68,1.69,3.27,2.77,4.76,1.04,1.48,1.9,3.08,2.55,4.76.41,2.36-1.03,3.99-1.37,5.92-.43,2.38,0,5.42-.79,7.86-.91,2.85-3.17,5.67-4.95,9.27-1.38,3.06-3.25,5.87-5.54,8.32-1.24,1.2-2.73,1.94-3.87,3.1-1.85,2.03-3.57,4.17-5.15,6.41-1.78,2.26-3.87,3.99-5.34,5.94-2.03,2.83-3.04,7.39-6.52,7.84-1.98,0-3.94.32-5.81.97-2.92,1.39-4.86,3.97-6.33,4.03-1.47.06-2.94-2.15-4.35-2.38-1.41-.23-2.83,1.45-5.13,1.43-.95,0-1.43-.68-2.77-1.18-2.83-1.08-5.94-1.05-6.33-4.76-.23-2.03,1.06-2.94.99-4.76s-1.57-2.26-2.19-3.87c.63-1.64.24-3.5-.99-4.76-.11-1.17.17-2.34.79-3.33-1.34.53-2.64,1.18-3.87,1.94-1.43,1.05-2.48,3.45-4.14,3.08-1.57-.66-.37-2.52-.6-4.03-.71-2.48-1.85-4.82-3.37-6.91-2.08-1.35-4.34-2.39-6.72-3.1-6.12-1.14-10.01,2.79-14.85,3.35-1.24.14-2.59-.25-3.75,0-3.97.83-8.4,4.63-10.88,7.12-4.1.48-8.25-1.01-12.48.48s-6.58,5.67-13.05,4.51c-1.28-1.34-3.54-1.94-3.56-4.28,0-1.82,2.25-2.98,2.98-4.28,1.13-2.07,1.86-4.32,2.17-6.66,0-1.59-.89-3.46-.79-5.46.15-1.66.87-3.33.87-4.86Z"/>
    <path class="cls-1" d="M840.76,571.46c1.08-.17,1.94-1.14,2.96-1.18,2.32-.12,4.59,2.05,7.32,1.66.6.75.19,1.39.21,2.61,2.3,1.49,6.12,1.22,7.32,4.05-1.74,2.21-4.32.62-6.54.23-2.23-.39-4.14-.17-6.33-.48-2.77-.39-5.26-2.23-7.9-2.61-1.61-.23-3.25.29-4.76,0-1.51-.29-8.4-3.33-8.5-5.46s2.98-2.81,5.81-2.38c3.48.56,5.85,4.34,10.41,3.56Z"/>
    <path class="cls-1" d="M846.1,555.06c-1.49-.5-2.9-.23-3.56-.72-1.35-1.01-1.14-3.87-1.59-5.48s-2.07-2.52-2.96-4.74c-1.28-3.25-1.94-10.51,1.59-11.17,1.37-.29,2.79.99,3.75.7,1.94-.56,1.57-3.52,3.15-4.76.89-.68,2.52-.39,3.77-.95,1.32-.82,2.4-1.96,3.15-3.31.83-1.2,1.49-3.19,2.57-4.05s2.38-1.01,3.37-1.94c2.59-2.38,2.67-5.69,4.74-8.57,1.76-2.42,4.53,2.34,4.76,4.28.97,1.53,2.9,1.94,3.75,3.58-1.16,4.18-4.45,4.55-3.75,10.45.25,1.39.64,2.74,1.18,4.05.56,1.39,2.25,2.9,2.17,3.87-.12,1.78-3.1,1.7-3.75,3.58s0,1.94-.19,4.51c-.83,1.94-3.08,2.4-3.87,4.76-.83,2.83.14,6.48-1.76,8.55-1.32,0-2.77,1.37-4.35,1.18-1.59-.19-3.39-3.04-6.14-3.1-1.05,0-2.28.81-3.37.72-1.08-.1-1.43-1.05-2.67-1.45Z"/>
    <path class="cls-1" d="M833.29,549.76c5.03,0,5.03,9.39,0,9.39s-5.03-9.39,0-9.39Z"/>
    <path class="cls-1" d="M825.92,548.64c1.35,1.3,2.31,2.95,2.77,4.76,0,1.66-2.15,1.59-2.77,3.87-.93,3.43.43,7.3-1.18,9.04-1.23.5-2.56.66-3.87.48-3.56-3.2-6.75-6.79-9.5-10.7-1.21-1.31-2.27-2.74-3.17-4.28-1.03-2.28-1.39-4.78-2.55-6.89s-2.94-3.21-3.87-5.23c-.83-1.68-.91-3.87-1.78-5.48s-2.19-2.13-3.17-3.33c-.62-.79-.99-1.94-1.57-2.86-2.5-3.56-7.28-5.44-7.51-10.68,1.01-1.39,2.05.52,3.87.95,1.22.27,2.67-.12,3.56.23,1.8.74,3.04,4.1,4.94,5.94,1.08,1.05,2.48,1.74,3.56,2.86,1.08,1.12,2.03,2.86,2.96,3.56,1.3.95,3.08,1.57,4.76,2.85,2.28,1.76,6.37,3.58,6.93,7.14.14.89-.35,2.38-.21,3.08.29,1.26,1.59,1.8,2.38,2.86s1.18,3.31,2.57,3.56,1.35-2.01,2.86-1.74Z"/>
    <path class="cls-1" d="M732.55,498.72c1.7.66,7.37,8.96,5.81,13.55-.74,1.71-2.49,2.77-4.35,2.61-3.87-.75-3.17-11.23-1.94-15.48.07-.28.24-.52.48-.68Z"/>
    <path class="cls-1" d="M600.97,619.01c.24-2.27,1.13-4.42,2.57-6.19,1.82-1.63,4.3-1.45,6.14-2.61,1.85-1.1,3.46-2.55,4.74-4.28.95-1.49,1.01-3.17,1.78-4.28.54-.77,1.74-.97,2.38-1.94s.45-2.4,1.37-3.33c2.75-1.41,3.54,4.63,3.97,8.79.12,1.3.68,2.69.58,3.33-.27,1.94-1.94,2.28-2.55,3.58-.35,4.82-1.49,9.56-3.37,14.01-1.32,3.7-2.09,7.74-3.17,10.94-.39,1.16-1.22,2.07-1.57,3.08-1.43,4.06-1.94,10.41-4.57,12.14-1.74.85-3.61,1.41-5.54,1.66-2.56-.29-4.64-2.21-5.15-4.74-.33-1.35,0-2.77-.19-4.3-.56-1.85-.89-3.76-.99-5.69.45-4.84,4.35-7.2,4.55-11.19.15-2.96-1.2-5.94-.99-8.98Z"/>
    <path class="cls-1" d="M505.61,280.72c.23,3.99-5.07,3.48-5.81,6.91-.31,1.53.6,3.6.39,4.97-.41,2.5-2.4,1.78-4.94,3.1-1.3.68-2.55,3.15-3.87,3.33-1.32.17-2.09-.91-2.96-.72-1.3.29-.87,2.21-2.77,2.61-1.53.33-4.18-1.63-4.35.72-.12,1.51,2.38,2.32,3.87,2.13,1.24-.14,2.15-1.16,3.37-1.18,2.34,0,3.87,2.09,5.34,2.15,3.39.12,6.74-3.77,10.3-3.33,1.61.19,2.55,1.57,3.75,1.43,1.94-.23,3.52-2.86,4.94-3.87-.6-4.01,0-9.29,3.17-9.5,2.13-.15,5.34,4.39,5.81,0,.07-1.77-1.21-3.32-2.96-3.58-1.14,0-2.63,2.71-3.56.48,0-2.17,1.94-1.61,3.17-2.15.83-.39,1.43-1.49,2.36-1.94,4.7-1.94,11.23,1.94,13.06-2.85-4.18-4.28-11.28,1.55-16.03,1.18-2.44-.31-4.5-1.96-5.34-4.28-.21-.74,0-1.72-.19-3.08s-.85-3.12-.79-4.05c.19-4.3,9.1-5.11,9.1-10.47-1.7-1.94-6.68-1.63-8.3.48-.6.75-.56,2.28-1.39,3.87-1.78,3.25-7.51,3.64-9.29,7.61-.66,1.5-.93,3.13-.79,4.76.45,2.26,4.59,2.88,4.72,5.25ZM458.52,513.22c-5.69-1.01-11.61,1.76-15.48,3.87-2.26,1.18-4.55,3-6.54,3.1-1.99.1-3.72-1.2-5.54-1.41-2.59-.26-5.2-.1-7.74.46-2.28.48-4.34,2.44-6.33,2.61-3.87.35-7.49-4.16-9.89-6.43-1.49-1.37-2.98-2.5-4.35-3.87s-3.41-2.23-4.55-3.56c-1.57-1.82-1.57-4.97-2.38-7.37-.97-2.83-3.87-4.92-6.14-7.61-1.68-1.94-5.52-5.01-5.94-7.61-.21-1.32.48-2.85.41-4.28-.12-2.09-1.41-3.27-1.39-4.76,0-2.09,2.09-3.7,2.57-5.46.25-.91.14-2.17.39-3.33.56-2.42,1.94-3.87,1.59-7.37-.47-1.48-.87-2.99-1.18-4.51,0-1.26.68-1.94.6-3.1-.15-2.03-2.34-2.42-2.57-4.74s1.94-4.41,3.15-7.14c.58-1.22.87-3.1,1.39-4.05,1.1-1.94,2.92-3,3.75-4.99.62-1.47.83-3.64,1.39-4.74.72-1.43,2.17-2.19,3.56-4.05,1.12-1.53,1.59-3.37,2.36-4.05,1.13-.67,2.32-1.23,3.56-1.66,3.68-1.85,6.56-4.97,8.11-8.79-.49-2.8.07-5.68,1.59-8.09,1.22-2.44,2.09-4.78,4.16-6.17,2.48-1.68,4.8-1.84,6.52-4.99,1.11-1.82,1.85-3.84,2.19-5.94,0-2.36-1.94-5.36-3.77-5.71-1.84-.35-4.53,1.63-5.54-.72-.31-.74.12-2.5,0-3.33-.23-1.55-1.34-2.65-1.37-3.87-.1-2.25,1.82-4.57,2.36-7.14.75-3.5,0-6.17-.19-10.22,2.77-5.25,8.92-2.63,15.04-2.15.91,0,1.94-.25,2.96-.23,3.64.12,6.5,1.43,7.74-2.36.56-2.66.76-5.38.6-8.09-.9-2.49-2.32-4.76-4.16-6.66-1.94-1.49-4.82-.85-5.94-3.56.91-4.7,5.3-.79,7.92-1.94,1.34-.58,1.18-3.37,2.38-3.87.81-.31,1.84.99,2.96.95,1.92-.65,3.73-1.61,5.34-2.85,1.26-1.03,1.66-3.17,2.77-4.05.75-.6,1.76-.52,2.57-.95,1.94-1.06,3.62-2.52,4.95-4.28,1.63-2.36,2.36-5.28,4.34-5.81,2.67-.58,8.67.64,9.12-2.86s-2.44-5.92-1.39-9.5c.83-2.83,2.94-2.32,5.94-4.05,1.45,1.24,1.03,4.76,1.18,6.91,1.84,0,5.57-.66,5.94-2.61.45-2.46-2.69-4.95-3.37-6.43s-.89-4.41-2.38-4.76c-3-.7-5.92,4.99-9.68,4.99-2.66-.22-4.93-1.99-5.81-4.51-.18-1.28-.24-2.58-.19-3.87-.64-2.15-.91-4.4-.79-6.64,1.51-3.14,5.01-3.64,7.51-5.25.97-.6,1.72-1.94,2.77-2.38,1.78-.77,4.41,0,6.14-1.18,1.1-.75.79-2.05,1.59-3.56.5-.97,1.7-1.51,2.38-2.61.46-.77.52-1.94.99-2.61,1.72-2.57,4.86-3.52,6.14-6.19.56-1.16-.99-1.61-.6-3.33s3.12-.43,4.55-.72c1.94-.35,3.87-3.23,5.94-3.87s4.65-.23,6.74-1.18c1.24-.58,2.38-1.94,3.56-2.15.41,0,1.57.27,2.17.23s1.57-.58,2.57-.72c1.45-.17,3.25.45,5.15.48,3.12,0,6.1-1.12,8.69.23,1.37.72,1.22,2.57,2.98,3.33.87.39,2.05-.15,3.35,0,1.94.23,3.87,1.94,6.54,2.15.91.12,1.94-.14,2.77,0,3.02.79,5.94,1.9,8.71,3.33,2.3.93,7.22,2.11,7.32,4.74.1,3.14-4.28,4.05-6.14,4.05-3.12,0-7.24-2.19-10.49-.95-.02,4.84,3.89,8.78,8.73,8.8.19,0,.39,0,.58-.02.39-2.52-2.5-1.12-2.19-3.56,1.94-1.78,4.34,1.2,7.12.72,1.08-.35.91-2.25,1.18-3.56,2.36-1.72,5.3-4.24,8.9-2.38.16-.39.44-.72.79-.95.25-2.61-2.36-3.87-.99-6.43.7-1.68,4.37-1.1,4.95.25.29,1.61-.91,1.43-.79,2.85.44,1.35,1.74,2.24,3.15,2.15,1.94-.14,2.34-2.23,4.16-3.33.74-.46,1.82-.5,2.77-.95.95-.45,2.07-1.63,2.98-1.94s1.65,0,2.55-.23c.91-.23,2.42-1.43,3.37-1.43s2.05,1.66,3.56,1.94c.83.12,1.76-.58,2.98-.72s1.94.14,2.77,0c1.94-.33,3.17-1.53,4.74-1.43,1.1,0,3,1.94,3.75.95,1.28-1.53-1.7-2.65-.77-4.05,3.02.27,6.25.19,9.29.72,4.53.77,8.77,3.46,12.85,3.56-.39-3.29-3.52-2.34-4.94-3.87-1.03-1.51-1.77-3.21-2.19-4.99.73-1.99,1.65-3.9,2.77-5.71,1.74-1.94,7.47-1.94,9.1.72,1.12,1.82.75,4.57,2.38,4.51,1.63-.06,2.15-4.16,3.75-4.28,1.61-.12,2.03,2.65,3.37,2.63,1.65,0,2.79-3.72,4.95-3.87,1.16,0,1.55.72,3.35.95,1.24-.95-.41-2.23.21-3.56,2.21-1.94,7.26-.46,10.08-1.66.79-1.14-1.01-1.94-.19-3.1,2.44-2.05,6.52-2.23,10.68-3.08,2.54-.52,4.94-2.65,6.91-2.86s4.06,1.47,5.94,1.43c1.24-.08,2.45-.4,3.56-.95,1.12-.52,1.94-1.82,2.98-2.15,1.72-.5,3.87.25,5.92,0s4.01-1.24,5.54-.95,2.59,2.13,3.87,2.38c4.16.77,8.46-.75,12.27.46.68.23,1.35,1.08,2.17,1.43,2.54,1.12,4.28.77,4.76,4.51,1.94.85,3.15,3.06,5.54,3.87,1.57.5,3.15-.23,4.94-.23,2.45-.04,4.89.11,7.32.46,1.14.21,2.07,1.22,3.17,1.43.79.15,1.94,0,2.77,0,1.11.3,2.23.54,3.37.72,2.07,0,3.64-2.3,5.34-2.61,1,.03,2,.18,2.96.46,3.33.35,7.18-.52,9.89.25,2.06.95,3.94,2.26,5.54,3.87,1.16,1.06,1.94,2.77,2.98,3.56,1.38,1.06,3.02,1.73,4.74,1.94,1.26-.23,1.32-1.94,2.57-2.59,3.87-1.06,10.9,1.49,14.05-.25,1.22-.68.97-2.23,1.94-3.1,5.94-.35,11.85.31,17.42.48,1.93-.23,3.87-.31,5.81-.23,1.94.41,3.39,2.77,5.34,3.56,1.3.52,3.58.25,5.54.72,1.32.31,2.38,1.26,3.37,1.41,2.06.13,4.12-.03,6.14-.46,4.53-.45,10.37-.74,14.85,1.43,2.36,1.14,3.37,3.46,5.92,3.87,3.66.48,9.31-.37,13.06,0,.78.21,1.56.37,2.36.48,1.26-.12,1.94-1.39,3.56-1.43,1.94,0,5.09,3.68,7.94,3.1,1.22-1.01-.99-2.38.17-3.33,1.16-.95,2.65,0,4.35,0,.95,0,2.09-.58,2.98-.48,2.17.23,4.24,2.57,6.91,3.33,2.53.65,5.15.82,7.74.48,1.73-.51,3.54-.75,5.34-.72.87.14,1.66.91,2.57,1.18.91.27,1.66,0,2.38.23s1.3.97,1.94,1.2c3.68,1.26,8.57,1.94,12.46,3.33,2.28.85,4.63,2.55,6.52,2.61.95,0,1.78-.48,2.98-.48,5.98,0,13.01,3.04,12.45,9.68-6.79,2.26-12.6-5.48-19.96-3.19-1.38.54-2.29,1.85-2.32,3.33.27,4.14,8.96,3.87,9.68,7.74-1.43,1.28-2.98,0-4.16.23-2.28.75-4.32,2.09-5.92,3.87-1.34,1.51-2.52,5.36-3.87,5.71-1.76.41-4.47-2.11-7.12-1.43-.97.25-1.94,1.7-2.77,1.94-2.19.5-4.95-1.43-6.33,1.66.74,2.17.29,5.21,1.78,6.43.97.79,2.19.17,3.37.72s2.15,2.65,3.35,3.87,2.05.97,2.59,2.15c.12,1.74-.58,1.94-.41,3.08.31,1.94,2.9,2.46,2.96,3.87.1,1.7-1.63,1.34-1.94,3.08-.12,1.12,1.06,1.41,1.2,2.86,0,.97-.66,1.94-.6,3.08.1,1.59,1.12,2.65.99,4.05-.16,1.1-.82,2.06-1.78,2.61-3.87-2.92-7.2-6.95-11.28-10.68s-10.78-8.57-11.48-16.65c0-1.24,2.19-2.21,2.57-4.05-.02-.95-.08-1.9-.19-2.85.14-2.79,2.07-5.48,1.94-7.12-.63-2.44-2.2-4.53-4.37-5.81-1.14.72,0,2.15-.19,3.33-.3,1.57-1.44,2.85-2.96,3.33-3.74.39-4.16-5.81-10.1-4.05-2.46,1.23-3.81,3.93-3.33,6.64.17,1.03,2.54,2.15,2.38,3.56s-5.4,1.76-6.54,1.66c-3.19-.31-4.84-3.17-7.74-3.1-1.41,0-2.65,1.43-3.77,1.66-6.23,1.37-15.48-3.68-17.59,2.85-.31.93-.14,2.13-.41,3.1-.39,1.37-1.3,2.46-1.57,3.33s-.21,2.19-.6,3.33-4.1,5.09-.79,6.19c.79.25,1.16-.43,2.19-.25,1.68.27,4.51,3.56,6.52,3.56,1.18,0,2.85-1.61,3.75-1.66,1.94-.1,3.15,1.32,4.55,2.15,1.39.83,3.37,2.44,4.35,2.38,1.94-.12.97-1.68,2.77-2.38,3.43,1.22,5.03,5.57,8.3,9.04,1.2,1.24,2.96,2.32,4.55,4.03.91.97,3.66,3.54,3.77,4.76s-.77,1.63-1.01,2.61c-.31,1.45.45,2.52-.39,3.56-3.15-1.39-3.87-5.13-6.14-8.3-.83-1.2-1.68-2.59-2.96-4.3-.58-.75-2.67-3.43-3.87-2.85-2.48,1.14,1.37,5.67,1.94,6.66,1.57,2.12,2.64,4.56,3.15,7.14,0,1.41-.75,3.99-.79,6.41,0,1.65.35,3.14.21,4.51-.37,1.54-.84,3.05-1.39,4.53-.46,1.74-.56,3.87-.99,4.99-.77,2.13-3.35,4.66-5.15,4.74-1.8.08-2.34-1.51-3.87-1.41-2.44.14-2.88,2.83-4.35,4.97.12,2.34.74,3.15.39,4.76-.52,2.52-3.45,2.96-3.35,5.48s2.65,2.77,3.87,3.87c2.49,2.08,4.68,4.48,6.52,7.14,1.39,1.97,2.28,4.25,2.57,6.64-.14,2.36-5.81,5.63-8.11,4.76-2.3-.87-1.45-3.37-1.94-5.71-.41-1.8-1.59-2.57-2.17-4.03-.33-.77-.17-1.94-.6-2.86-1.2-2.42-3.29-1.08-5.81-2.61-1.61-.99-1.14-3.1-1.78-4.99-.85-2.55-4.43-3.75-7.32-3.08-2.11.48-2.77,2.61-4.74,3.08-2.9-2.07.6-7.16-2.96-7.61-2.73-.35-4.55,4.7-6.14,6.19-1.08.99-3.04,1.18-3.17,2.59-.23,2.63,2.3,2.09,4.35,3.1,2.05,1.01,2.07,3.45,3.75,3.56s2.36-1.74,3.75-1.94c2.18-.05,4.3.72,5.94,2.15-.99,2.88-6.31,4.99-6.33,8.79,0,2.21,2.13,2.59,3.75,4.05s3.19,4.7,5.15,7.12c.83,1.05,2.19,1.74,2.57,2.38.91,1.57.77,3.48,1.78,4.53.15,1.3-.5,1.63-.41,2.85.5,1.7,2.69,1.39,3.17,3.1-.41,4.1,1.01,7.95-1.78,9.5-1.3,7.35-2.75,13.1-6.93,17.11-3.75,3.6-8.73,4.66-13.26,6.43-1.18.45-2.11,1.94-3.15,2.38-2.63,1.06-7.32.41-7.51,4.28-.12,1.94,1.94,3.04,2.17,4.99.25,2.96-1.94,5.96-3.56,6.17-1.98.15-3.71-1.33-3.87-3.31,0,0,0-.01,0-.02-.15-2.85,2.94-3.99,3.17-5.71.36-2.76-1.57-5.28-4.33-5.65-.27-.04-.55-.05-.82-.04-2.61.23-8.55,6.52-8.69,9.97-.12,2.57,4.24,7.94,5.81,9.52,5.55,5.81,11.46,9.41,10.49,23.77-1.39,3.64-4.94,4.41-7.74,6.41-2.11,1.53-3.17,6.27-6.74,6.66-1.41-.58-.58-3.27-.99-4.51-.54-1.7-3.37-2.54-5.13-4.28-1.45-1.43-2.07-3.68-3.17-4.99-1.37-1.65-3.45-1.94-5.15-3.1-1.06-.7-1.94-3.14-2.96-3.08-1.74,0-1.14,2.09-1.59,5.46s-2.44,5.81-1.78,9.68c.29,1.59,1.94,2.88,2.77,4.51,1.37,2.69,1.57,5.81,2.96,7.37.93,1.01,2.52,1.24,3.56,2.13,2.11,1.8,5.81,5.81,6.54,7.86.85,2.5,0,5.44.6,8.07.66,3.06,3.87,5.23,1.94,8.32-1.85-.71-3.55-1.77-4.99-3.14-2.52-1.84-4.52-4.3-5.81-7.14-.6-.91-1.13-1.86-1.59-2.85-.7-2.13-.54-4.55-1.18-7.14-.95-2.8-2.44-5.38-4.37-7.61-1.37-1.57-3.87-2.5-3.87-4.76-.14-3.17.91-6.93.79-10.68,0-.81-.48-1.63-.58-2.61-.21-1.94.14-4.06-.21-5.81-.48-1.47-1.07-2.9-1.78-4.28-.52-1.37-1.06-2.75-1.57-4.53-.81-2.75-1.7-8.03-3.56-8.3-1.86-.27-3.87,4.45-6.54,4.51-1.63-.12-2.99-1.28-3.37-2.86-.23-1.45.64-2.92.6-4.51,0-3.17-1.94-4.41-3.37-6.66-.56-.91-.72-2.17-1.18-2.85-.91-1.3-2.61-1.94-3.75-3.33-1.12-1.29-2.05-2.73-2.79-4.28-.75-1.94-1.01-4.28-2.17-4.53s-2.4,1.7-3.56,2.15c-1.74.57-3.53.97-5.34,1.2-3.87.33-7.2-.95-6.72,4.74-.62,2.55-2.86,2.59-4.35,3.87-1.94,1.55-3.29,4.65-5.34,7.12-1.01,1.22-2.46,1.94-3.37,3.1s-.99,2.44-1.78,3.33c-2.11,2.4-5.28,2.59-6.72,5.94-.1,3.87,1.55,6.93,1.18,10.68-.17,1.72-1.24,3.23-1.39,4.99.17,1.58.24,3.17.21,4.76-.17.87-.99,1.32-1.59,2.38s-.77,2.21-1.18,2.85c-.68,1.03-1.78,1.74-2.4,2.61-.99,1.43-1.2,2.46-2.17,2.63-4.34.74-5.4-9.17-7.32-13.32-.89-1.94-2.69-3.64-3.56-5.94-.77-3.06-1.69-6.08-2.77-9.04-1.44-2.52-2.7-5.15-3.75-7.86-.72-2.25-1.32-5.09-1.94-7.59-.75-2.65-1.27-5.35-1.57-8.09-.17-3.08.48-4.99-1.59-6.17-1.94.54-2.77,2.85-4.95,2.85s-7.74-4.39-6.12-8.32c-1.39-2.36-4.88-3.64-7.53-6.43-1.53-1.59-2.9-5.36-5.54-5.69-.81.08-1.6.23-2.38.46-1.66.17-4.65-.17-6.52,0-2.75.49-5.54.65-8.32.48-1.94-.25-4.34-.7-6.33-.95-2.52-.31-5.81-1.05-7.32-2.61-.87-.99-1.22-4.1-2.77-4.53-1.55-.43-2.85,1.2-4.55,1.66-3.62,1.01-6.66-.89-9.1-2.85-1.74-1.39-3.33-2.11-4.55-3.1-3.02-2.42-3.56-9.68-8.13-9.68-2.05-.04-3.85,1.34-4.34,3.33.29,1.96,1.03,3.83,2.17,5.46,2.23,3.75,6.29,5.17,7.53,10.22.81.39,2.48-.87,3.35.25.77,2.15,0,6.17,1.78,7.12,8.23,1.63,10.57-3.77,14.25-7.61,2.15,1.68,1.43,3.14,2.19,4.99.58,1.72,1.77,3.16,3.35,4.05,1.01.45,2.28,0,3.77.7.93.43,4.84,4.88,4.95,6.43s-2.57,6.15-3.39,7.37-1.94,1.78-2.36,2.85-.19,2.57-.41,3.1c-.37.95-2.13,2.19-3.15,3.33-1.07,1.08-2.19,2.11-3.37,3.08-1.26,1.16-1.94,2.75-3.37,3.35-2.63,1.16-5.13.66-7.32,2.36-1.43,1.12-1.43,3.64-3.15,4.99-1.72,1.35-4.92,1.43-7.53,2.86-1.68.91-2.69,2.69-4.14,3.33-.6.25-1.34,0-1.94.23-1.32.41-2.52,1.53-3.75,1.94-1.24.41-1.94.15-2.96.48-3.06,1.05-5.81,4.78-8.9,2.61-1.45-4.01-1.68-9.06-3.37-12.6-.87-1.82-2.55-2.38-3.17-4.28,0-1.53,1.45-1.12,1.59-2.38-.5-2.57-2.52-3.87-3.75-5.94-.6-1.06-.89-2.57-1.59-3.87-2.36-4.12-7.01-6.25-7.92-11.4-.25-1.41,0-2.5-.19-3.56-.46-1.8-1.27-3.5-2.38-4.99-.75-1.06-2.3-1.78-3.15-3.33-.58-1.03-.7-2.48-1.2-3.58-1.92-4.25-4.59-8.11-7.9-11.4-1.63.27-3.35.41-4.16,1.66.81,2.89,1.94,5.68,3.37,8.32,1.46,2.43,2.71,4.97,3.75,7.61.31.99.25,2.28.6,3.33,1.24,3.77,5.15,4.92,5.92,9.27.52,2.9-.12,4.94.6,7.84s4.12,4.45,5.54,7.12c1.16,2.21,1.18,5.3,1.94,7.37,1.2,3.06,4.51,4.37,6.93,6.43,1.99,2.09,3.84,4.32,5.54,6.66,1.06,1.14,2.52,1.35,2.77,2.61.35,1.61-.56,2.15-.79,3.56,1.53,1.94,3,5.42,5.55,5.71,1.05.12,2.36-1.14,3.87-1.43.81-.14,1.7.15,2.38,0,1.05-.23,1.94-1.35,3.17-1.66,1.94-.52,4.35-.31,6.91-.72s4.08-2.83,5.94-2.13c2.03,2.67.58,5.81,0,8.32-.21.91-.21,1.94-.39,2.61-1.08,4.24-3.87,7.37-5.15,11.17-.41,1.16-.33,2.59-.79,3.87-1.82,3.86-4.15,7.46-6.93,10.7-1.18,1.67-2.47,3.26-3.87,4.76-1.43,1.39-3.15,2.17-4.76,3.56-3.39,3.06-6.32,6.58-8.71,10.47-.85,1.41-1.28,3.06-2.17,4.28-1.3,1.72-3.29,2.57-4.35,4.28-.93,2-1.72,4.07-2.38,6.17-1.08,2.73-3.35,4.55-2.96,8.32.15,1.43,1.22,2.34,1.59,3.87.41,2.44.34,4.94-.19,7.35,1.1,3.25,1.94,6.89,3.87,9.04.25,4.8-.33,9.48,0,13.55.21,2.59,1.05,4.51.19,6.89-1.25,2.73-3.08,5.16-5.34,7.12-1.94,1.45-4.72,1.94-6.72,3.58-1.39,1.22-2.55,3.33-3.97,4.76-2.32,2.34-5.52,4.51-5.81,6.89.2,1.62.59,3.22,1.18,4.74.77,3.52,1.53,8.57.19,12.37-1.43,4.1-8.67,3.25-9.48,7.61-.25,1.32.48,2.38.39,3.87-.41,2.36-1.06,4.68-1.94,6.91-.87,1.94-2.86,2.85-4.16,4.51-1.61,2.11-2.44,5.15-4.14,7.37-2.56,3.19-5.41,6.13-8.52,8.79-3.27,2.72-7.25,4.45-11.48,4.99-2.4.21-4.97-.68-7.51-.23-.93.15-1.94,1.18-3.17,1.41-.72.15-1.43-.14-2.17,0-1.24.25-2.4,1.45-3.56,1.43-2.55,0-5.81-3.7-5.94-7.35,0-1.41,1.01-2.75.99-4.05s-1.57-3.43-2.77-6.19c-1.2-2.77-1.61-5.65-2.77-7.74-1.16-2.09-2.85-3.41-3.75-5.23-1.82-3.66-1.94-7.99-2.57-12.37-.19-1.43-1.01-2.98-1.18-4.76-.21-2.17.21-4.61-.19-6.41-.69-1.56-1.48-3.08-2.38-4.53-1.39-3.08-2.38-7.1-3.56-9.5s-3.37-4.59-3.56-7.12c-.05-2.23.08-4.45.39-6.66.21-1.66,1.26-3,1.59-4.74.23-1.18,0-2.52.19-3.87,1.01-5.44,6-7.41,5.34-14.03-.27-2.81-1.94-4.18-2.17-7.37-.12-1.49.62-2.79.6-4.28-.39-2.39-1.13-4.71-2.19-6.89-1.94-5.25-3.23-10.05-6.14-14.01-1.57-2.19-3.64-3.72-4.94-5.71-1.17-1.81-1.98-3.83-2.38-5.94,0-1.35.87-2.21,1.18-3.58.43-1.74.45-5.07.99-7.74.69-2.08,1.09-4.24,1.2-6.43-.19-1.94-2.67-5.81-4.76-6.41-2.75-.83-5.59,1.06-9.1.72-2.96-2.55-2.73-8.55-7.08-9.31ZM567.93,598.38c.91-1.74,2.07-6.66,0-7.84h-.39c-.89,1.92-1.84,6.68.31,7.78l.08.06ZM565.16,548.69c.66-1.65,2.23-3.39,1.94-5.46-.58-4.59-7.74-2.32-8.5.95-.56,2.21.31,3.87-.41,6.17.77,1.76,2.73,2.11,5.15,1.94,1.37-.79,1.2-2.15,1.82-3.66v.06ZM553.09,573.18c.79-1.74-1.24-2.88-1.57-4.76-.41-2.19.43-4.76-1.2-5.94h-.58c-1.45,3.85.58,10.28,3.35,10.65v.06ZM688.03,337.05c-.75-1.8-2.88.52-1.94,2.15,1.3.14,1.76-.81,1.94-2.13v-.02ZM641.93,346.73c3.21-.75,0-6.91-2.38-6.19-3.15,1.05.19,6.79,2.38,6.29v-.1ZM627.29,377.38c.99-8.25-4.37-8.86-5.34-14.75.45,0,.21-.68.58-.7,1.3-.75,3.27,1.2,3.87-.72-.03-2.24-1.87-4.04-4.12-4.01-.63,0-1.25.16-1.8.45-.87-.72-.97-2.32-1.18-3.87-2.25-1.61-7.74-5.11-7.74-8.32,0-2.63,2.9-4.12,6.14-4.03,1.35-1.26.48-5.07-.79-5.96-5.11-1.34-7.84-.43-11.09,2.38-1.55,1.35-3.27,2.28-4.14,3.1-1.01,1.05-1.64,2.42-1.78,3.87.12,1.47,1.94,2.34,2.57,4.28.35,1.01.27,2.26.58,3.1.87,2.3,3.08,3.87,4.76,5.81,1.18,1.35,4.49,4.32,4.55,5.94.06,1.63-1.03,1.66-1.37,3.1-.49,1.94-.69,3.94-.6,5.94.43,2.61,2.69,2.69,4.74,3.87s4.01,3.04,6.14,3.1c2.28.12,4.5-.79,6.04-2.48v-.1ZM580.84,360.27c5.36-1.16,2.92-6.62.19-8.55-2.05-1.49-4.51-2.77-6.91-4.53-1.39-1.03-6.7-2.94-6.74-4.99s3.87-2.96,2.38-6.89c-2.71-.79-9.15.46-8.71,4.05.25,2.07,2.3.93,2.77,3.1-1.94.81-4.3,3-6.33,2.61-2.42-.46-3.04-4.05-4.35-6.19-1.94,0-3.12-2.19-5.34-1.94-2.23.25-3.56,4.35-4.74,6.43-.64,1.08-1.65,1.65-1.94,2.61-.21.58,0,1.53-.19,2.38-.68,2.63-2.59,3.6-2.38,5.94s2.05,2.98,2.17,4.74-2.55.89-2.36,3.1c3.54,3.5,3.74-1.66,5.54-2.38,1.45-.58,4.3.48,6.14,0,1.47-.39,2.65-2.09,4.34-2.85,1.19-.55,2.47-.87,3.77-.95,6.29-.33,10.35,4.61,15.83,4.74,2.28.11,4.56,0,6.81-.33l.06-.1ZM568.18,388.32c.12-2.55-.81-4.47-.99-8.07-3.66-2.65-6.39,2.44-10.08,1.94-2.28-.35-3.87-3.54-6.33-3.1-1.34.25-1.94,2.32-3.37,2.61-2.83.62-4.12-2.71-7.12-1.41-4.24-3.87-6.14-10.2-7.12-17.42-2.3-3.64-5.81-.68-7.53,1.66-1.03,0-2.32-.7-2.55.72-.79,4.39,5.17,4.86,5.13,7.84,0,1.94-2.32,1.76-3.35,3.08s-.39,2.67-1.78,3.58c-3.87.56-5.21-1.94-5.15-6.17-1.68-3.08-3.87-5.32-5.34-7.86-.78-1.17-1.32-2.49-1.59-3.87-.14-1.12.45-2.54.19-3.87-.43-2.26-3.87-3.97-6.14-5.23-2.47-1.14-4.79-2.58-6.91-4.28-1.18-1.18-1.74-3.25-2.77-4.05s-1.94-.52-2.79-1.18-.89-2.44-2.36-2.86c-.75-.33-1.94.89-2.38,1.66-.97,5.19,2.55,5.55,4.16,7.74,1.1,1.59,1.65,3.87,2.77,5.01s2.81.89,4.35,1.65c1.05.52,1.74,2.11,2.77,2.86,1.94,1.37,4.92,1.61,5.15,4.28-1.18.97-3.87-1.39-4.76.95-.23,1.55,1.03,2.34,1.01,3.87,0,2.32-2.23,4.9-4.16,4.51-.19-1.39,1.03-2.54.99-4.05-.1-3.02-5.15-7.74-7.74-9.02-1.2-.66-2.67-.7-3.75-1.43-2.49-1.79-4.69-3.96-6.52-6.43-1.43-2.25-2.63-6.41-5.81-6.17-1.26,0-2.32,1.49-3.37,2.15-1.03.58-2.02,1.23-2.96,1.94-1.14.93-2.09,1.94-3.17,1.94-2.48.12-4.59-2.23-6.72-1.66-.72.19-1.32.97-2.17,1.94,0,1.39.33,2.28.19,3.87-.64,1.34-2.55,1.24-3.97,2.13-2.1,1.72-3.97,3.72-5.54,5.94-.98.92-1.73,2.06-2.17,3.33-.12.79.54,2.28.39,3.33-.65,1.75-1.74,3.31-3.15,4.53-.72.56-1.65.64-2.38,1.18-1.57,1.1-2.26,2.55-3.56,2.85-3.46.77-9.68-.83-9.68,3.56,0,2.94,3.33,2.96,5.34,2.86,2.81-.14,5.19.72,6.74.23,1.06-.33,2.23-1.76,3.35-2.38.72-.37,1.45-.39,1.94-.72,1.2-.7,1.94-1.94,2.79-2.36,2.24-1.07,4.65-1.72,7.12-1.94,2.65-.17,5.44.33,8.9,0,1.22-.12,2.44-1.06,3.75-1.18,2.15-.21,4.99,1.03,6.72.95,1.22,0,2.55-1.45,3.97-1.43,1.6.1,2.99,1.13,3.56,2.63.15.7-.33,1.8-.19,2.85.21,1.72,1.45,2.44,1.37,3.56-.1,1.49-3.19,3.48-2.77,5.23.27,1.14,2.5,2.3,3.56,3.1,1.29,1.01,2.77,1.73,4.35,2.13,1.12.15,2.11-.37,3.17-.23,2,.39,3.88,1.2,5.54,2.38,1.94,1.57,1.59,4.1,3.75,4.99.91.39,2.57.17,3.75.48,2.88.74,5.01,3.62,7.12,3.33,3.31-.46,1.8-4.22,2.19-6.89.83-6.08,10.7-5.81,12.66-1.68,1.43.46,2.71,0,4.35.72.95.37,1.65,1.63,2.57,1.94s1.68-.14,2.55,0c3.87.5,7.24,3.87,10.49,3.31,2.07-.37,3.58-2.69,5.54-2.85,3.87-.29,6.21,3.39,10.3,1.66,3-1.28,2.34-5.01,3.37-8.79.75-2.54,2.13-4.32,2.21-6.31l.06-.1ZM781.4,307.36c.61-2.85-.11-5.82-1.94-8.09-2.28.48-.64,3.33-.79,4.99-.21,2.36-2.3,4.01-2.17,6.43-.75,1.06-2.07,1.49-2.19,3.33,1.26,1.05,1.82-.83,2.77-1.94,1.49-1.68,3.79-2.69,4.32-4.72ZM729.57,224.87c-1.64.11-3.18.79-4.35,1.94-.74.48-2.25.74-1.78,2.15,1.92-.33,5.69-1.35,6.14-4.08ZM646.09,254.17c4.65,1.3,6.83-5.01,3.75-8.57-.72-.81-3.15-1.14-4.16-3.08-1.2-2.32-1.03-5.42-3.87-4.76,0,.29,0,.68-.21.72-.27,5.21,6.04,6.5,5.94,10.7-.12,2.13-2.05,2.36-1.45,4.99Z"/>
    <path class="cls-1" d="M580.98,245.07c-.56-2.57,3.48-2.15,2.79.23-.8.71-2.02.63-2.73-.17-.02-.02-.04-.04-.06-.07Z"/>
    <path class="cls-1" d="M556.65,387.24c.1-1.94,3.87-2.69,4.55-.95-.23,1.9-3.77,3.21-4.55.95Z"/>
    <path class="cls-1" d="M488.79,374.4c2.07-1.94,6.66-.66,9.5-.72-.54,1.82-.62,4.16-1.78,5.23-3.25-.72-6.27-1.66-7.72-4.51Z"/>
    <path class="cls-1" d="M474.35,361.8c2.71-3.43,5.57-1.63,4.55,4.97-.64,1.94-3.48,4.61-4.74,1.66.31-2.2.38-4.43.19-6.64Z"/>
    <path class="cls-1" d="M478.3,354.2c.32,1.36-.22,2.77-1.37,3.56-2.61-.56-.62-6.17,1.37-3.56Z"/>
    <path class="cls-1" d="M439.92,305.92c.16-1.52-.52-3-1.78-3.87-.64-.45-1.65-.23-2.36-.72-1.94-1.28-2.63-3.87-3.75-4.53.14-2.59-.6-4.49,0-6.17,1.04-1.85,2.53-3.4,4.34-4.51,1.74-.74,3.54,0,4.57-1.66.35-.08.71,0,.99.23,0,1.49-1.06,1.74-1.2,3.1.25,2.15,3.43.81,3.75,2.85-.29,2.23-1.94,2.65-1.94,4.28s2.4,4.08,3.56,5.94c.87,1.37,2.4,2.4,3.17,3.87s.83,2.69,1.37,3.33c1.05,1.18,3.39,1.37,3.56,3.08.23,2.28-2.34,3.17-1.94,5.81-2.71,2.55-7.24,1.24-11.61,1.94-1.94.31-4.22,2.71-6.33.72-.48-1.59,1.76-1.8,1.94-3.33-.15-1.39-1.63-1.2-1.94-2.36.58-1.94,2.36-2.23,2.17-4.99.97-1.57,3.1-1.03,3.43-2.98Z"/>
    <path class="cls-1" d="M425.09,300.21c2.63-1.94,7.26-.45,7.51,1.94.19,1.78-1.39,1.94-1.94,4.03s0,3.99-.6,5.25-2.25,1.01-3.37,1.41c-2.48.89-7.28,4.41-9.29.48.29-2.11,1.94-2.54,2.57-4.28,0-1.37-1.18-2.11-.99-3.56.23-1.8,1.35-1.18,2.96-1.94,1.12-.52,1.63-2.23,3.14-3.33Z"/>
    <path class="cls-1" d="M289.96,248.63c.43,2.11-5.21,4.88-5.81,2.15-.35-2.19,4.37-4.92,5.81-2.15Z"/>
    <path class="cls-1" d="M283.43,784.5h-2.98c.95-.4,2.03-.4,2.98,0Z"/>
    <path class="cls-1" d="M274.53,231.76c.32-.33.85-.33,1.18,0,0,0,0,0,0,0-.19.56-.35,1.16-1.18.95v-.95Z"/>
    <path class="cls-1" d="M256.92,269.65c0,1.32-3.87,3.48-4.35.95-.14-.74.17-1.5.79-1.94,1.06-.83,3.52-.39,3.56.99Z"/>
    <path class="cls-1" d="M174.62,490.4c-.12.35-.29.6-.41.95-2.09-.1-.19-3.31.41-.95Z"/>
    <path class="cls-1" d="M94.3,324.23c1.37-.97,2.71,1.47,1.78,2.61-1.53.35-1.92-1.74-1.78-2.61Z"/>
    <path class="cls-1" d="M309.93,333.02c-.91-.27-2.17-.21-3.35-.46s-2.21-.58-3.17-.72c-2.44-.35-5.07.5-6.52-1.2,2.5-3.82,5.35-7.4,8.52-10.68.89-.97,2.83-1.63,2.36-3.56-1.68-1.78-3.75,0-5.34,1.18-1.64,1.36-3.52,2.41-5.54,3.1-3.27.58-7.61-1.16-10.3.95-.37,1.78,3.06,1.08,2.57,3.87-1.23.47-2.61.19-3.56-.72-.91-.99-.39-2.48-.99-3.08-1.01-1.01-4.82-1.3-6.52-.95-2.11.3-3.8,1.92-4.16,4.03,2.5,1.41,6.62-1.43,7.53,2.15-1.37,2.96-4.61,4.59-4.16,8.55.24,1.66,1.27,3.1,2.77,3.87,1.1.23,1.7-1.08,2.77-.97s.87,1.66,2.19,1.43c1.94-.97,2.94-4.18,5.13-4.05,2.63,3.87-2.36,5.69-5.13,6.91-3.17,1.37-7.3,2.11-9.68,3.33-1.28.64-6.06,6.19-6.74,1.94-.48-3.1,2.38-2.21,2.98-4.76-3.08-.72-5.92,1.59-8.71,2.86-3.99,1.8-10.72,2.94-11.61,8.32-.19,1.06.39,3.08-.19,3.87s-3.33.68-4.57,1.18c-1.94.79-3.56,2.48-4.74,2.86s-2.21.19-2.77.46c-1.57.74-2.15,3.29-3.97,4.99-.74.7-2.36,1.2-2.96,1.94-1.03,1.24-1.16,4.3-2.96,4.76-1.16.12-2.09-1.05-3.17-.23-.14,3.02.89,7.14-.19,10.22-2.45,2.22-5.1,4.2-7.92,5.94-1.66,1.12-3.14,1.41-5.15,2.61-1.41.85-2.71,2.88-4.35,4.05-3.77,2.67-8.32,5.81-8.3,12.6,0,1.47.64,3.04.79,4.76.1,1.01-.1,1.94,0,3.08.23,2.5,1.74,5.65,0,7.37-2.67-1.32-6.06-1.76-7.92-4.05-.5-2.34,1.03-4.28.79-6.41-.19-1.72-2.19-4.78-3.37-5.01s-2.3,1.32-3.56,1.2-2.85-2.59-4.74-2.85c-2.79-.41-4.84.75-7.92.23-2.98,1.94-3.87,5.32-7.51,4.99-1.3-.12-2.48-1.3-3.97-1.66-1.88-.59-3.84-.91-5.81-.95-3.37.27-5.81,3.17-8.71,4.99-2.55,1.59-6.15,3.58-6.93,6.89-.41,1.78,0,4.3-.58,5.94-.47,1.05-1,2.08-1.59,3.08-2.84,5.66-3.68,12.11-2.38,18.31.86,2.8,1.99,5.51,3.37,8.09,1.52,1.72,3.56,2.89,5.81,3.33,1.55-.24,3.08-.64,4.55-1.2,1.74-.19,3.46-.5,5.15-.95,4.28-1.65,3.45-8.59,7.74-10.94,2.31-1,4.8-1.48,7.32-1.41,1.06,1.25,1.57,2.88,1.39,4.51-.44,1.38-.97,2.73-1.59,4.05-.45,1.51-.54,3.29-.99,4.51-.6,1.61-1.94,2.77-2.38,4.28-.31.99-.14,2.21-.39,3.1-.46,1.57-2.21,2.67-1.39,4.28,4.24,1.94,9.37-.58,13.06.23,1.55.35,4.78,2.59,4.74,5.48,0,2.15-1.39,3.58-1.59,5.94-.23,2.98-1.28,6.62-1.37,9.02-.17,3.87,4.82,10.76,8.3,10.7,3.48-.06,5.96-4.49,10.49-2.13,1.49.77,3.1,3.7,4.74,3.56,1.65-.14,3.45-3,4.35-4.99,1.12-2.44,1.2-4.49,3.15-5.71s3.87-.68,6.54-1.94c1.22-.64,2.36-1.44,3.37-2.38.95-.79,1.94-2.86,3.15-1.43,1.59,1.94-1.94,2.96-.58,4.99,2.73,1.74,4.14-3.25,6.14-3.33,1.42.57,2.72,1.37,3.87,2.38,1.55,1.22,2.07,2.92,3.75,3.33,1.08.25,2.83-.5,4.35-.23,1.94.35,3.21,2.42,4.74,2.36,1.94,0,2.77-2.5,4.35-2.85,3.5-.77,4.8.46,6.33,3.1,1.72.35,1.78-2.4,3.37-1.43-.87,2.07.29,3.04.99,4.76.45,1.1.37,1.94.79,2.38.95,1.08,2.77,1.08,4.16,2.13,1.51,1.66,2.81,3.5,3.87,5.48,1.72,2.36,4.63,4.8,6.93,4.97,2.3.17,3.87-.74,5.81-.46,4.1.6,6.64,3.06,9.5,5.81,1.61,1.47,3.04,2.5,3.56,4.28.35,1.24.17,2.88.6,4.28.87,2.96,4.45,4.39,3.15,9.5.6,1.51,1.94,2.05,3.37,3.1s2.11,2.61,3.37,2.85c.79.15,1.66-.29,2.36-.23,2.06.34,4.03,1.07,5.81,2.15,1.23.36,2.42.84,3.56,1.43,1.01.81,1.14,3.54,2.38,4.26.79.48,2.59-.17,3.87,0,2.13.31,5.01,1.94,6.93,1.94,1.16,0,2.13-.58,3.15-.48,4.86.45,7.61,7.41,12.27,9.5,1.45.66,3.75.21,4.74.72,1.76.91,3.23,7.35,3.37,10.22.41,8.63-5.11,11.42-8.3,17.13-.68,1.18-1.05,3.08-1.94,4.74-1.94,3.37-4.03,4.06-3.75,10.22,0,1.7.77,3.35.77,5.25.03,2.46-.17,4.93-.58,7.35-.33,1.59-1.41,2.86-1.59,4.3s.35,2.55.19,3.87c-.53,1.82-1.25,3.57-2.17,5.23-1.84,4.06-2.25,8.83-5.94,10.45-2.19.97-5.13.43-7.51,1.43-.97.41-2.19,1.47-3.37,2.15-3.45,1.94-8.36,4.51-9.31,8.79-.83,3.87,1.18,6.83.6,11.17-.71,1.4-1.51,2.75-2.38,4.05-.85,1.35-1.28,2.94-2.17,4.28-1.2,1.8-3.04,2.59-3.75,4.99-.25.83-.1,1.8-.41,3.1-.12.48-.83,1.22-1.18,2.13s-.31,1.94-.6,2.63c-.91,2.19-3.58,7.18-5.54,7.84-4.1,1.37-8.44-2.09-11.28-1.43.41,2.38,1.94,2.13,2.79,3.87.45,1.14.97,2.24,1.57,3.31.89,1.24,1.68,1.7,1.78,3.1.07,2.62-1.02,5.14-2.96,6.89-1.78,1.03-3.76,1.69-5.81,1.94-1.45.31-5.23.33-5.92,1.45-1.03,1.65.54,5.81-.19,7.35-1.49,3.48-5.46-.1-7.53.95-.27,1.68.33,3.37,1.59,4.51,1.24.89,3.14-.25,3.87,1.43-.39,2.36-2.52,2.67-2.96,4.99,0,2.28.64,2.86.41,4.28-.52,3.06-4.47,2.92-4.35,6.19.15,4.86,7.74,2.86,7.92,7.61,0,2.86-2.19,2.9-2.98,5.69-.43,1.51.25,1.94,0,3.1-.33,1.68-1.94,2.17-1.94,4.05,0,2.26,2.77,4.78,4.14,6.66,1.35,2.15,3.02,4.07,4.95,5.71,2.79,1.84,6.91,1.41,8.11,4.74-.37,1.94-1.94,2.54-3.56,3.1h-.39c-.95-.4-2.03-.4-2.98,0h-2.77c-2.63-1.47-5.81-2.42-9.1-3.87-1.16-.48-2.48-1.68-3.75-2.36-.95-.52-2.03-.74-2.77-1.2-1.7-1.06-3.62-4.55-5.34-5.94-1.05-.83-2.69-1.28-3.37-2.15-.59-1.16-1.12-2.35-1.59-3.56-.64-1.08-1.8-1.94-2.57-3.08-1.65-2.63-3.74-6.15-3.75-8.09s1.51-3.19.99-4.99-3.52-1.32-3.87-3.33c-.27-1.22.87-3.25.79-4.99,0-.99-1.61-2.36-.99-3.87s1.94.14,3.15-.72c-.83-3.43,0-8.96-2.77-9.99-1.45,1.47,1.49,4.8-.99,5.71-2.4-1.28-1.94-5.07-2.38-7.74-.54-1.79-.93-3.62-1.18-5.48.12-1.11.19-2.22.19-3.33-.43-3.19-3.39-5.81-3.56-9.04.21-1.53.54-3.03.99-4.51.14-1.12-.14-2.38,0-3.56.17-1.51.87-2.9.99-4.28.19-3.1.06-6.2-.39-9.27-.48-2.75-2.3-5.09-2.57-8.09-.1-1.08.31-2.88.19-4.28s-.68-2.57-.77-4.05c.03-1.43.15-2.86.39-4.28.21-2.98-.48-6.31-.39-9.27,0-.87.39-1.53.39-2.38,0-2.44-.7-4.92-.79-7.35.16-3.97.1-7.94-.19-11.9-.3-3.38-.94-6.72-1.94-9.97-1.91-3.08-4.4-5.76-7.34-7.88-1.37-.93-3.04-1.24-4.55-2.15-3.21-1.94-9.46-5.9-10.88-9.68-.41-1.1-.35-2.57-.79-3.87-1.11-2.39-2.41-4.7-3.87-6.89-2.46-4.49-4.43-10.1-6.93-14.73-1.11-2.37-2.36-4.67-3.75-6.89-.81-1.12-3.43-2.15-3.75-3.87-.45-2.21-1.8-5.23-1.59-6.89.27-2.28,3.87-4.12,3.87-6.17s-1.94-2.79-2.36-4.28c-1.01-3.64.58-5.81,1.78-8.81.39-.99.77-2.59,1.18-3.33.72-1.32,2.21-1.68,3.15-3.1.54-.79.89-2.44,1.59-3.56,1.51-2.4,3.87-3.29,4.55-5.46.64-4.49.7-9.04.19-13.55-.63-1.63-1.36-3.22-2.17-4.76-.89-2.86-1.1-6-3.56-5.94-1.51,0-2.59,2.05-3.56,3.33-.23,1.68-.12,3.52-1.59,4.03-2.25.81-3.12-2.85-5.81-3.87-1.05-.39-2.71-.37-3.37-.72-1.94-1.03-2.54-4.39-4.55-5.71-1.68-1.08-3.14-.7-4.16-2.38-.23-1.57-.29-3.16-.19-4.74-2.17-1.53-4.01-7.22-6.52-8.55-1.68-.89-4.24-.81-6.33-1.66-.9-.47-1.83-.86-2.79-1.18-1.22-.17-2.41-.49-3.54-.97-3.87-2.34-6.04-9.91-10.9-9.68-2.05,0-4.05,2.38-5.92,2.38s-4.99-1.8-7.34-3.1c-2.34-1.3-5.11-2.09-7.1-3.33-1.63-.99-2.75-2.81-4.16-3.56-1.08-.58-2.67-.7-3.56-1.2-1.46-1.09-2.85-2.28-4.16-3.56-1.6-1.14-2.72-2.83-3.15-4.74,0-1.94,1.41-3.45,1.57-5.25.52-5.65-2.96-9.68-5.13-13.06-1.63-2.5-3.52-4.61-5.15-6.89.1-1.11.1-2.22,0-3.33-1.33-1.81-2.52-3.72-3.56-5.71-1.18-1.94-3.46-4.01-3.75-6.17-.37-2.67.83-5.03,0-7.63-1.41-4.3-6.39-2.36-5.81,3.33.17,1.57,1.94,3.68,2.57,5.25s.46,3.56.99,5.46,2.05,3.41,2.57,5.48c.85,3.25.81,6.75,1.59,8.79s3.17,3.52,1.78,5.81c-1.94.46-2.59-1.78-3.75-3.1-.66-.74-3-2.11-3.37-3.87s.74-3.29.39-4.99c-.68-3.37-6.31-3.45-6.33-6.89,0-2.17,2.36-2.44,2.38-4.53s-2.59-4.24-3.17-6.17c-.46-2.35-.72-4.74-.77-7.14,0-2.3-.13-4.6-.41-6.89-.77-1.91-2.08-3.56-3.75-4.76-1.74-1.14-3.12-.68-3.97-2.36-.69-2-1.1-4.1-1.22-6.21-.29-2.85,0-5.98-.19-9.02-.27-3.08-.27-6.19,0-9.27.97-2.3,2.75-3.45,3.75-5.81.7-1.59.79-3.54,1.57-5.23,1.45-3.12,4.61-5.98,6.74-9.04,2.39-3.13,4.35-6.56,5.81-10.22.88-1.87,1.41-3.88,1.59-5.94-.25-2.28-3.87-4.18-3.56-6.89.19-1.7,2.19-1.66,2.79-3.33.35-1.4.54-2.83.58-4.28,0-2.3-.97-4.68-.58-7.14.31-2.09,2.9-2.92,1.57-5.23s-3.68,1.22-5.15-.23c-1.47-1.45.27-2.98.41-5.48,0-.99-.48-2.11-.41-2.85.14-1.06,1.94-2.85,1.39-3.56-1.06-1.63-2.26-5.81-4.55-7.14-2.9-1.74-6.06-.56-10.08-1.43-2.48-.52-3.66-3.31-5.94-3.08-1.41.14-2.23,2.07-4.16,3.08s-4.41.68-6.33,1.2-2.79,2.09-4.74,1.94c-1.63-.15-1.65-1.94-3.56-2.13-1.14.15-2.26.39-3.37.72-3.86.5-7.78.42-11.61-.25-2.73-.82-5.34-2.02-7.74-3.56-2.34-1.32-6.72-2.92-6.52-4.99.12-1.34,4.14-2.75,5.81-3.33,2.59-.95,4.18-2.46,6.14-2.61.77,0,1.76.56,2.77.48s2.26-1.22,3.56-1.43c2.77-.46,6.66.15,6.33-3.1-2.09-1.94-10.65,1.47-10.88-2.85-.14-2.61,3.25-3.41,5.81-4.05,2.51-.79,5.11-1.27,7.74-1.43,2.26.14,5.25,3.17,6.54-.23.62-2.42-.77-4.45-1.2-6.43,1.68-2.79,4.78-2.44,7.12-2.85,2.62-.39,5.16-1.2,7.53-2.38,2.36-1.18,4.9-1.98,7.51-2.38,2.69-.41,5.3-1.63,7.74-1.94,1.94-.03,3.88-.19,5.81-.48,1.71-.71,3.5-1.19,5.34-1.41,1.26,0,2.32,1.16,3.56,1.41,1.24.25,2.52,0,3.87.25.95.23,1.8,1.01,2.77,1.18,1.49.27,3.1-.25,4.55,0,1.45.25,2.46,1.24,3.75,1.43,3.04.46,6.54-.19,9.5.48,1.12.25,2.13.91,3.35,1.18,1.22.27,2.44,0,3.56.23,1.59.39,2.9,2.17,4.57,2.38,3.06.39,6.48-1.61,9.68-1.94,2.38.02,4.76-.14,7.12-.48,2.06-.73,4.18-1.29,6.33-1.66,1.08,0,1.94.41,2.98.25s2.25-1.65,3.35-1.43c1.49.27,1.22,2.52,2.79,3.1,1.72-1.08,3.45,0,5.34,0s3.5-1.1,5.54-.72c3.6.68,8.63,4.92,11.48,2.61.72-.58.54-1.59,1.18-3.1.87-2.05,2.59-4.45,2.19-7.37-3.87,0-7.74,2.42-12.27,2.61-4.57-3.43,1.22-5.55,4.55-7.12,2.75-1.3,4.92-4.18,8.3-4.76,2.77-.46,5.81.74,9.1,1.2,1.65-.02,3.31.06,4.95.23,1.94.7,2.94,3.02,4.55,3.56.7.25,1.84.21,2.77.48,1.78.48,3.37,1.63,5.15,0,1.39.29,1.55,2.09,2.96,2.38,1.32-.85,2.34-3.02,4.35-3.56.89-.25,1.8.17,2.77,0,1.63-.33,3.77-2.94,4.76-.48-.41,1.7-2.57,1.94-3.77,3.33-1.33,1.46-2.22,3.28-2.55,5.23.23,2.26,3.06,1.39,3.15,4.28-.43,1.66-2.03.93-3.37,1.66-1.34.74-1.66,2.09-2.96,2.38-3.6.81-6.58-1.08-9.68-.95-.14,1.63,1.55,2.55,2.38,3.08,2.83,1.78,5.11,1.55,9.1,1.43,2.03,0,4.37.74,6.14-.72,1.1-.91,1.05-2.92,1.94-4.05,1.34-1.54,3.3-2.41,5.34-2.36,1.09.34,1.92,1.24,2.17,2.36,0,2.17-2.54,1.47-2.55,3.87,1.66,1.2,6.08-1.32,6.33-3.33.15-1.47-1.45-2.3-1.39-3.87.1-2.5,2.92-2.46,2.57-4.99-1.35-1.3-2.77.27-4.16,0-1.94-.41-3.7-3.19-4.55-5.01.85-1.28,2.65-.43,3.97-.23,1.45-2.42,4.16-3.35,7.9-3.87,1.34-.15,3.12-.79,3.87.72.31,2.25-2.77,3.6-2.19,6.17,2.67.79,3.54-3.52,5.81-5.23,1.18-.78,2.44-1.43,3.75-1.94,1.22-.56,2.55-1.94,3.56-1.94s1.3,1.12,2.38,1.66c1.08.54,2.25-.33,2.57,1.2-2.3,4.76-10.86,1.94-13.06,6.89.48,3.25-1.34,6.37.19,8.55,1.1,1.57,3.58.5,4.16,2.13.77,2.21-2.4,2.21-1.59,4.76,2.09,1.51,4.59-1.43,6.52-2.61s4.7-2.77,4.95-5.81c-1.05-2.4-4.95-.54-5.54-3.08.06-1.78.6-3.5,1.57-4.99,2.07-2.79,9.27-6.74,14.46-6.19.97.12,1.94.83,2.96.97,3.41.41,7.41-1.78,10.08,0,2.15-1.51,4.72.19,7.74-.25,2.3,1.65,1.66,5.11,5.15,6.66.95.43,2.11.12,3.35.48.93.25,1.94,1.55,2.98,2.13,1.49.83,2.65.64,2.96,1.94s-1.08,2.05-.99,3.35c.85.83.14,2.11.6,3.31.85,2.21,3,2.05,5.13,3.1,1.51.74,4.7,3,4.55,4.76,0,1.16-3,3.23-3.87,3.87s-4.01,2.34-5.15,2.15c-1.94-.33-2.59-4.88-5.13-4.76-1.29.08-2.28,1.19-2.2,2.48,0,.05,0,.09.01.14,0,3.14,2.9,3.25,2.96,5.94,0,3.23-1.47,3.46-3.75,5.48-1.55-1.05-3.31-1.78-5.15-2.15-1.26,1.82,2.09,2.46.99,4.76-3.17.81-5.59-1.08-8.5-2.15-.91-.33-2.21-.19-2.96-.7-1.12-.79-1.45-3.1-2.38-4.3-.93-1.2-3.21-3.33-4.95-3.31-2.44,0-5.98,3.64-7.92.23,1.35-5.46,7.74-1.41,11.88-3.33,1.55-.72,2.09-2.69,3.37-3.56,2.55-1.76,6.72-1.94,6.33-5.48-.19-1.74-2.23-1.72-3.37-2.61-1.55-1.22-2.73-5.5-4.94-5.81-1.14,0-1.94,1.05-3.17,1.2-2.55.27-5.4-1.24-7.74,0-1.06.74-.35,1.94-1.18,3.31s-2.32,1.49-2.96,2.63-.62,3-1.59,4.03c-1.63,1.74-5.07,1.94-7.12,2.86-.93.37-2.07,1.66-2.96,1.66-1.65,0-2.34-2.65-4.16-1.66-.15,2.54,2.23,3.58,3.75,4.74,1.79,1.1,3.16,2.78,3.87,4.76-1.61,4.1-4.16-.21-6.72-.23-2.55-.02-6.91,6.43-9.29,1.18.58-2.77,3.14-3.19,3.75-5.94-2.81.58-5.23,3.41-8.52,4.28-1.37.37-2.73.29-3.87.72-2.38.83-4.03,2.94-6.52,4.05-.99.43-2.15.31-3.17.72-2.71,1.19-5.3,2.62-7.74,4.28-2.47,1.42-4.78,3.1-6.91,4.99-1.35,1.42-2.37,3.13-2.98,4.99,0,1.41,2.32,1.94,2.38,3.33,0,.87-1.28,2.77-.41,4.03s2.44.23,4.16.48c3.02.45,4.99,3.45,7.32,4.99,1.91,1.34,4.06,2.31,6.33,2.85,2.73.41,5.81-.95,6.14,1.66s-2.55,3.43-2.77,4.99c1.47,2.32-.99,3.45-.99,5.48,0,1.65,1.68,4.12,3.15,4.28,1.94.19,4.92-2.36,5.81-4.76.99-2.85.56-6.72,2.38-8.79,9.21.29,17.01-5.03,16.41-16.41-.26-1.27-.39-2.57-.39-3.87.29-1.94,2.9-3.39,2.55-5.81,2.59-.95,2.48-5.92,5.15-6.66,2.25-.6,4.78,1.94,7.74,1.66.95,0,2.21-1.1,3.15-.95,1.94.33,3.12,3.19,4.57,4.51,1.45,1.32,2.63.81,2.96,2.38-.39,2.67-1.94,2.73-1.78,5.23-.24,1.83.58,3.64,2.11,4.66,1.76.07,3.5-.43,4.95-1.43,2.63-1.51,4.92-6.04,7.12-5.46,1.74.45,3.1,7.1,3.37,9.5s-.29,4.53-.21,6.89c.27,4.03,4.47,3.62,6.54,5.81.62.64.85,2.26,1.37,3.1,1.01,1.61,2.23,1.61,2.38,3.33.37,4.1-3.1,4.45-2.77,9.02-.72,1.78-2.52,1.68-2.38,4.05.23,3.75,4.72.87,5.94,3.87.66,1.57-.12,2.75-.6,4.99,1.53,2.19,1.53,5.69-1.18,5.69-1.63-.15-2.09-2.26-3.75-2.77ZM96.08,326.85c.93-1.14-.41-3.58-1.78-2.61-.14.87.25,2.96,1.78,2.61ZM234.17,348.49c-.83-.97-3.52-.7-5.36-.48-1.28.15-2.83.48-2.96,1.66,2.05,1.14,7.66,1.95,8.32-1.18ZM223.88,344.44c1.21-1.27,1.17-3.28-.1-4.49-.21-.2-.44-.37-.7-.51-.64-.21-1.51.58-2.57.48s-2.23-1.34-3.15-1.43c-1.49-.15-2.96.48-3.87,1.66,0,1.41.87,1.65.79,3.08-1.94,1.66-.89,7.18,1.01,7.37s3.04-6.1,5.81-6.66c.99-.19,1.49.68,2.79.48ZM221.11,353.94c-2.81-1.2-5.42.81-7.74,1.2-1.37.21-3.87-.35-3.56,2.13.25,1.94,2.85,1.28,4.35.72,2.59-.8,4.97-2.18,6.95-4.05ZM212.4,335.89c3.87-1.94-.77-8.25-2.57-8.81-3.19-1.01-7.74,2.83-11.48,4.05-2.09.68-4.06.74-4.55,2.86,1.94,3.72,5.57-.83,8.3-.25,1.39.29,2.21,2.57,3.58,2.85,2.26-.02,4.5-.25,6.72-.7ZM209.63,339.76c-.81-1.16-5.26.14-6.52,1.2-.92,1.21-1.72,2.5-2.38,3.87-.93,1.35-1.94,2.4-2.77,3.58s-4.72,7.99-1.59,8.79c1.34.33,4.1-3,4.35-4.28.49-3.74,2.4-7.16,5.34-9.52,1.63-1.34,3.29-1.18,3.56-3.72v.08ZM184.9,313.14c2.21-.1,3.72-7.94,0-6.91-2.48.62-3.08,6.97,0,6.83v.08ZM174.21,491.42c.12-.35.29-.6.41-.95-.6-2.44-2.5.77-.41.87v.08ZM90.52,292.38c0-.45-.21-.52-.19-.95-.6,0-1.3-.14-1.18.72s1.05.74,1.37.23ZM298.47,255.06c.97.14,1.51-.23,1.37-1.43-.87-.74-2.15.23-1.37,1.43ZM275.71,231.83c-.32-.33-.85-.33-1.18,0,0,0,0,0,0,0v.95c.83.1,1.06-.46,1.18-1.03v.08ZM200.54,250.14c.66-.5,1.66-1.2,1.18-2.38-2.19-1.22-5.81-.29-9.1-.72-1.82-3.1-4.88-3.58-5.15,1.43,3.68,3.52,9.25-1.74,13.06,1.59v.08ZM165.12,274.63c1.12-.46,2.69-.23,2.96-1.66-.91-.89-1.94-2.09-2.96-2.15-1.43,0-2.13,1.47-3.56,2.38-1.43.91-3.99,1.34-4.16,3.1,3.08.64,5.83-.97,7.72-1.74v.08ZM164.13,257.52c1.26-.27,2.55.43,3.37-.95-.95-5.25-6.97-2.05-10.49-1.66-.95,1.44-1.61,3.05-1.94,4.74,2.69.75,5.98-1.61,9.06-2.21v.08ZM223.49,500.46c1.55-.31,1.1-4.63-.79-3.58-1.43.74-.7,3.79.79,3.5v.08Z"/>
    <path class="cls-1" d="M90.33,291.43c0,.43.25.5.19.95s-1.08.45-1.37-.23.64-.72,1.18-.72Z"/>
    <path class="cls-1" d="M84.41,305.46c-.43,1.35-1.46,2.42-2.79,2.9-.37-.35-.71-.75-.99-1.18.1-2.32,2.77-3.99,3.77-1.72Z"/>
  </g>
  <g id="freepik--Locations--inject-2">
    <path class="cls-2" d="M151.18,359.02c0-12.19-12.79-19.92-25.84-13.8-2.96,1.37-5.37,3.69-6.87,6.58-3.29,6.37-1.84,13.55,1.14,19.65l10.16,25.74c.88,2.25,3.42,3.36,5.67,2.48,1.14-.44,2.04-1.34,2.48-2.48l9.93-25.9c3.48-7.88,3.33-12.27,3.33-12.27ZM138.93,369.6c-8.79,5.11-17.67-4.32-12.85-13.55.62-1.23,1.58-2.26,2.77-2.96,8.79-5.09,17.67,4.34,12.87,13.65-.64,1.2-1.61,2.19-2.79,2.86Z"/>
    <path class="cls-2" d="M532.88,472.15c0-12.19-12.79-19.9-25.84-13.8-2.96,1.37-5.37,3.69-6.87,6.58-3.29,6.37-1.84,13.55,1.14,19.66l10.16,25.74c.88,2.25,3.42,3.36,5.67,2.48,1.14-.44,2.04-1.34,2.48-2.48l9.95-25.84c3.45-7.95,3.31-12.35,3.31-12.35ZM520.63,482.75c-8.79,5.09-17.67-4.34-12.87-13.55.63-1.22,1.6-2.24,2.79-2.94,8.79-5.11,17.67,4.32,12.87,13.55-.64,1.22-1.6,2.24-2.79,2.94h0Z"/>
    <path class="cls-2" d="M776.62,343.57c0-12.17-12.81-19.9-25.86-13.78-2.95,1.38-5.37,3.69-6.87,6.58-3.27,6.35-1.82,13.55,1.14,19.65l10.16,25.74c.87,2.26,3.4,3.38,5.65,2.52,1.16-.44,2.07-1.36,2.52-2.52l9.95-25.88c3.45-7.92,3.31-12.31,3.31-12.31ZM764.35,354.18c-8.77,5.09-17.65-4.34-12.85-13.55.63-1.23,1.6-2.26,2.79-2.96,8.77-5.11,17.67,4.32,12.85,13.55-.63,1.23-1.59,2.26-2.79,2.96h0Z"/>
  </g>
</svg>