<?xml version="1.0" encoding="UTF-8"?>
<svg id="Layer_2" data-name="Layer 2" xmlns="http://www.w3.org/2000/svg" viewBox="0 0 1000 1000">
  <defs>
    <style>
      .cls-1 {
        fill: #ff9a6c;
      }

      .cls-1, .cls-2, .cls-3, .cls-4, .cls-5, .cls-6, .cls-7, .cls-8, .cls-9, .cls-10 {
        stroke-width: 0px;
      }

      .cls-2 {
        fill: #000;
      }

      .cls-3 {
        fill: #e0e0e0;
      }

      .cls-4 {
        fill: #455a64;
      }

      .cls-5 {
        fill: #f5f5f5;
      }

      .cls-6 {
        fill: #09f;
      }

      .cls-7 {
        fill: #ebebeb;
      }

      .cls-8 {
        fill: #263238;
      }

      .cls-9 {
        fill: #ffbf9d;
      }

      .cls-11 {
        opacity: .3;
      }

      .cls-10 {
        fill: #fff;
      }
    </style>
  </defs>
  <g id="freepik--background-complete--inject-2">
    <rect class="cls-3" x="820.53" y="233.39" width="2.08" height="110.58"/>
    <rect class="cls-3" x="785.36" y="235.09" width="2.08" height="110.58"/>
    <rect class="cls-3" x="750.2" y="233.1" width="2.08" height="110.58"/>
    <rect class="cls-3" x="715.03" y="235.09" width="2.08" height="110.58"/>
    <rect class="cls-7" x="713.72" y="321.01" width="252.22" height="651.45"/>
    <rect class="cls-3" x="847.68" y="321.01" width="118.26" height="651.45"/>
    <rect class="cls-5" x="766.62" y="366.04" width="22.67" height="55.09"/>
    <path class="cls-5" d="M847.68,442.76c0,.62-29.98,1.12-66.97,1.12s-66.99-.5-66.99-1.12,30-1.12,66.99-1.12,66.97.46,66.97,1.12Z"/>
    <rect class="cls-5" x="766.62" y="474.67" width="22.67" height="55.09"/>
    <path class="cls-5" d="M847.68,551.39c0,.62-29.98,1.12-66.97,1.12s-66.99-.5-66.99-1.12,30-1.12,66.99-1.12,66.97.5,66.97,1.12Z"/>
    <rect class="cls-5" x="766.62" y="593.61" width="22.67" height="55.09"/>
    <path class="cls-5" d="M847.68,670.32c0,.62-29.98,1.12-66.97,1.12s-66.99-.5-66.99-1.12,30-1.12,66.99-1.12,66.97.52,66.97,1.12Z"/>
    <rect class="cls-5" x="766.62" y="712.54" width="22.67" height="55.09"/>
    <path class="cls-5" d="M847.68,789.26c0,.6-29.98,1.12-66.97,1.12s-66.99-.52-66.99-1.12,30-1.12,66.99-1.12,66.97.5,66.97,1.12Z"/>
    <rect class="cls-5" x="766.62" y="831.47" width="22.67" height="55.09"/>
    <path class="cls-5" d="M847.68,908.19c0,.62-29.98,1.12-66.97,1.12s-66.99-.5-66.99-1.12,30-1.12,66.99-1.12,66.97.5,66.97,1.12Z"/>
    <rect class="cls-5" x="872.8" y="366.04" width="22.67" height="55.09"/>
    <rect class="cls-5" x="922" y="366.04" width="22.67" height="55.09"/>
    <rect class="cls-5" x="872.8" y="470.58" width="22.67" height="55.09"/>
    <rect class="cls-5" x="922" y="470.58" width="22.67" height="55.09"/>
    <rect class="cls-5" x="871.16" y="587.68" width="22.67" height="55.09"/>
    <rect class="cls-5" x="920.36" y="587.68" width="22.67" height="55.09"/>
    <rect class="cls-5" x="871.16" y="714.64" width="22.67" height="55.09"/>
    <rect class="cls-5" x="920.36" y="714.64" width="22.67" height="55.09"/>
    <rect class="cls-5" x="871.16" y="841.62" width="22.67" height="55.09"/>
    <rect class="cls-5" x="920.36" y="841.62" width="22.67" height="55.09"/>
    <polygon class="cls-3" points="847.68 326.7 847.68 296.72 872.8 296.72 872.8 280.26 906.82 280.26 906.82 265.56 965.94 265.56 965.94 324.35 847.68 326.7"/>
    <rect class="cls-3" x="846.56" y="216.74" width="2.08" height="110.58"/>
    <rect class="cls-3" x="871.76" y="216.74" width="2.08" height="110.58"/>
    <rect class="cls-3" x="905.78" y="201.17" width="2.08" height="110.58"/>
    <rect class="cls-3" x="963.16" y="201.17" width="2.08" height="110.58"/>
    <rect class="cls-3" x="934.47" y="201.17" width="2.08" height="110.58"/>
    <rect class="cls-3" x="717" y="291.49" width="130.68" height="2.08"/>
    <rect class="cls-3" x="717.27" y="264.53" width="189.82" height="2.08"/>
    <path class="cls-3" d="M233.66,68.44h.15c.4-.03.71-.37.71-.77v-.62h0v-22.34c0-7.06-5.72-12.79-12.78-12.79-2.51,0-4.97.74-7.06,2.12l-9.94-2.18c-1.23-3.71-5.23-5.73-8.94-4.5-3.71,1.23-5.73,5.23-4.5,8.94,1.04,3.16,4.15,5.17,7.47,4.82l10.23,12.21v13.64h0v.62c0,.31.18.6.48.71.1.02.19.02.29,0h.25l-5.42,84.32h3.05l1.2-18.54,11.67,15.4-2.47,3.13h2.43l1.22-1.58,1.18,1.58h2.41l-2.39-3.11,12.1-15.49,1.2,18.68h3.07l-5.6-84.26ZM222.3,68.44l7.89,16.61h-17.27l8.14-16.61h1.25ZM224.38,68.44h6.23l1,15.11-7.22-15.11ZM215.66,68.44h3.24l-6.85,13.97.89-13.97h2.72ZM211.51,91.96l9.24,14.97-11.33,17.83,2.1-32.8ZM212.71,90.28h18.68l-9.47,14.86-9.22-14.86ZM232.23,92.35l2.08,33.03-11.4-18.5,9.32-14.53ZM221.85,108.67l11.04,17.89h-22.5l11.46-17.89ZM209.39,131.9h24.85l-12.66,16.09-12.19-16.09Z"/>
    <path class="cls-3" d="M245.66,207.23h-3.03v17.73l-12.93-14.28,13.31-14.24h1.58v-4.28h-32.03v4.15h2.08l12.87,14.22-13.87,14.86v-18.29h-5.6v436.97h5.6v-3.72h28.92v3.74h5.6V207.23h-2.49ZM214.71,572.25l12.87,14.22-13.87,14.84v-29.06h1ZM216.78,572.25h24.1l-12.23,13.08-11.87-13.08ZM215.14,567.98l13.49-14.43,13.06,14.43h-26.55ZM213.71,567.27v-29.06h1l12.87,14.22-13.87,14.84ZM216.78,538.21h24.1l-12.25,13.1-11.85-13.1ZM215.14,533.95l13.49-14.43,13.06,14.41-26.55.02ZM213.71,533.23v-29.06h1l12.87,14.22-13.87,14.84ZM216.78,504.16h24.1l-12.25,13.1-11.85-13.1ZM215.14,500.01l13.49-14.53,13.06,14.41-26.55.12ZM213.71,499.29v-29.06h1l12.87,14.22-13.87,14.84ZM216.78,470.22h24.1l-12.23,13.1-11.87-13.1ZM215.14,465.95l13.49-14.43,13.06,14.43h-26.55ZM213.71,465.24v-29.06h1l12.87,14.22-13.87,14.84ZM216.78,436.18h24.1l-12.23,13.1-11.87-13.1ZM215.14,432.03l13.49-14.53,13.06,14.41-26.55.12ZM213.71,431.3v-29.06h1l12.87,14.22-13.87,14.84ZM216.78,402.24h24.1l-12.25,12.87-11.85-12.87ZM215.14,398.09l13.49-14.53,13.06,14.41-26.55.12ZM213.71,397.36v-29.06h1l12.87,14.22-13.87,14.84ZM216.78,368.3h24.1l-12.25,13.1-11.85-13.1ZM215.14,364.02l13.49-14.41,13.06,14.41h-26.55ZM213.71,363.32v-29.06h1l12.87,14.22-13.87,14.84ZM216.78,334.25h24.1l-12.23,13.1-11.87-13.1ZM215.14,330.1l13.49-14.53,13.06,14.41-26.55.12ZM213.71,329.38v-29.06h1l12.87,14.22-13.87,14.84ZM216.78,300.31h24.1l-12.23,13.1-11.87-13.1ZM215.14,296.06l13.49-14.43,13.06,14.41-26.55.02ZM213.71,295.33v-29.68h1l12.87,14.22-13.87,15.47ZM216.78,266.27h24.1l-12.25,13.1-11.85-13.1ZM215.14,602.56l13.49-14.43,13.06,14.41-26.55.02ZM229.67,586.99l12.93-13.85v28.15l-12.93-14.3ZM229.67,552.95l12.93-13.87v27.57l-12.93-13.7ZM229.67,518.88l12.93-13.87v28.15l-12.93-14.28ZM229.67,484.82l12.93-13.85v28.15l-12.93-14.3ZM229.67,450.77l12.93-13.87v28.15l-12.93-14.28ZM229.67,416.71l12.93-13.85v27.61l-12.93-13.76ZM229.67,382.64l12.93-13.85v27.63l-12.93-13.78ZM229.67,348.6l12.93-13.87v28.15l-12.93-14.28ZM229.67,314.53l12.93-13.85v28.13l-12.93-14.28ZM229.67,280.47l12.93-13.85v28.15l-12.93-14.3ZM242.13,261.97h-27.61l14.03-15.03,13.58,15.03ZM229.67,245.84l12.93-13.87v28.15l-12.93-14.28ZM213.69,260.69v-29.06h1l12.87,14.22-13.87,14.84ZM213.69,606.82h1l12.87,14.22-13.87,14.86v-29.08ZM216.76,606.82h24.12l-12.23,13.1-11.89-13.1ZM242.61,607.19v28.15l-12.91-14.72,12.91-13.43ZM228.63,244.68l-11.87-13.08h24.12l-12.25,13.08ZM228.63,622.2l13.06,14.41h-26.55l13.49-14.41ZM216.78,196.96h24.1l-12.25,12.64-11.85-12.64ZM242.21,227.33h-27.61l14.03-15.01,13.58,15.01Z"/>
    <path class="cls-3" d="M669.2,187.24l-42.08-31.14c-2.01-1.51-4.46-2.34-6.97-2.37H68.98v5.58h2.53v28.94h-2.53v5.6h598.2c1.86,0,3.36-1.51,3.36-3.36v-.56c0-1.06-.5-2.06-1.35-2.7ZM600.9,172.23l-13.87-12.95h28.15l-14.28,12.95ZM616.45,160.23v26.53l-14.53-13.47,14.53-13.06ZM586.64,161.04l13.1,12.23-13.08,11.85-.02-24.08ZM566.84,172.23l-13.87-12.95h28.15l-14.28,12.95ZM582.38,160.23v26.53l-14.43-13.47,14.43-13.06ZM552.6,161.04l13.08,12.23-13.08,11.85v-24.08ZM532.77,172.23l-13.85-12.95h28.15l-14.3,12.95ZM548.32,160.23v26.53l-14.53-13.47,14.53-13.06ZM518.53,161.04l13.1,12.23-13.08,11.85-.02-24.08ZM498.73,172.23l-13.87-12.95h28.15l-14.28,12.95ZM514.27,160.28v26.49l-14.43-13.47,14.43-13.02ZM484.47,161.08l13.2,12.23-13.08,11.85-.12-24.08ZM464.66,172.23l-13.87-12.95h28.19l-14.32,12.95ZM480.21,160.23v26.53l-14.43-13.47,14.43-13.06ZM450.42,161.04l13.1,12.23-13.1,11.85v-24.08ZM430.6,172.23l-13.89-12.91h28.15l-14.26,12.91ZM446.14,160.23v26.53l-14.43-13.47,14.43-13.06ZM416.36,161.04l13.1,12.23-13.08,11.85-.02-24.08ZM396.55,172.23l-13.87-12.95h28.15l-14.28,12.95ZM412.1,160.23v26.53l-14.43-13.47,14.43-13.06ZM382.29,161.04l13.1,12.23-13.08,11.85-.02-24.08ZM362.49,172.23l-13.87-12.95h28.15l-14.28,12.95ZM378.04,160.23v26.53l-14.43-13.47,14.43-13.06ZM348.2,161.08l13.1,12.23-13.1,11.85v-24.08ZM344.05,186.76l-14.53-13.43,14.53-13.06v26.49ZM348.31,187.22l14.16-12.91,14.8,13.95h-29.06l.1-1.04ZM382.37,187.22l14.16-12.91,14.86,13.89h-29.06l.04-.98ZM416.44,187.22l14.16-12.91,14.84,13.89h-29.06l.06-.98ZM450.48,187.22l14.16-12.91,14.86,13.89h-29.06l.04-.98ZM484.55,187.22l14.16-12.91,14.86,13.89h-29.06l.04-.98ZM518.61,187.22l14.16-12.91,14.84,13.89h-29.06l.06-.98ZM552.66,187.22l14.16-12.91,14.86,13.89h-29.06l.04-.98ZM586.72,187.22l14.16-12.91,14.84,13.89h-29.06l.06-.98ZM342.72,159.32l-14.3,12.91-13.85-12.95h28.15v.04ZM75.77,161.08l13.1,12.23-13.08,11.85-.02-24.08ZM76.16,159.32h28.15l-14.28,12.91-13.87-12.91ZM294.38,172.23l-13.87-12.95h28.25l-14.39,12.95ZM309.93,160.23v26.53l-14.43-13.47,14.43-13.06ZM280.12,161.04l13.1,12.23-13.08,11.85-.02-24.08ZM260.31,172.23l-13.83-12.91h28.13l-14.3,12.91ZM275.86,160.23v26.53l-14.43-13.47,14.43-13.06ZM246.07,161.04l13.1,12.23-13.1,11.85v-24.08ZM226.25,172.23l-13.85-12.95h28.15l-14.3,12.95ZM241.8,160.23v26.53l-14.53-13.47,14.53-13.06ZM212.01,161.04l13.1,12.23-13.08,11.85-.02-24.08ZM192.2,172.23l-13.87-12.95h28.15l-14.28,12.95ZM207.75,160.23v26.53l-14.41-13.47,14.41-13.06ZM177.98,161.08l13.1,12.23-13.1,11.85v-24.08ZM158.14,172.23l-13.85-12.95h28.13l-14.28,12.95ZM173.69,160.23v26.53l-14.53-13.47,14.53-13.06ZM143.9,161.04l13.1,12.23-13.1,11.85v-24.08ZM124.01,172.23l-13.85-12.95h28.21l-14.37,12.95ZM139.56,160.23v26.53l-14.53-13.47,14.53-13.06ZM109.77,161.04l13.1,12.23-13.08,11.85-.02-24.08ZM105.51,160.23v26.53l-14.53-13.47,14.53-13.06ZM109.79,187.22l14.22-12.91,14.84,13.89h-29.06v-.98ZM143.84,187.22l14.28-12.91,14.86,13.89h-29.06l-.08-.98ZM177.9,187.22l14.28-12.91,14.86,13.95h-29.06l-.08-1.04ZM211.97,187.22l14.28-12.91,14.84,13.89h-29.06l-.06-.98ZM246.01,187.22l14.28-12.91,14.86,13.89h-29.06l-.08-.98ZM280.07,187.22l14.28-12.91,14.86,13.89h-29.06l-.08-.98ZM314.12,161.04l13.1,12.23-13.08,11.85-.02-24.08ZM75.79,187.26l14.22-12.95,14.86,13.89h-29.06l-.02-.93ZM314.2,188.26v-1l14.22-12.95,14.84,13.89h-29.06v.06ZM620.73,188.26v-28.88c2.34.12,4.61.89,6.54,2.22l38.3,26.65h-44.84Z"/>
    <path class="cls-7" d="M191.79,153.22c.33,18.68-.27,74.92-.27,74.92h67.59l-1.83-11.11c-.21-1.13-.21-2.29,0-3.43l4.96-24.52-12.06-37.61c-.72-2.45-2.95-4.13-5.5-4.15h-47.08c-3.2-.01-5.8,2.57-5.81,5.77,0,.04,0,.08,0,.13Z"/>
    <polygon class="cls-5" points="222.8 152.68 222.8 193.86 255.14 193.86 258.49 189.4 245.95 152.68 222.8 152.68"/>
    <path class="cls-3" d="M620.14,153.74s-.52,0-1.52-.37l-4.44-1.22-17.11-4.82-62.46-17.85-205.99-59.29-128.23-37.03.52-.12c-36.81,34.33-67.88,63.25-89.8,83.47-10.96,10.11-19.64,18.06-25.6,23.44-2.99,2.7-5.31,4.71-6.89,6.08-.79.7-1.61,1.36-2.47,1.97,0,0,.21-.21.6-.54s1-.85,1.76-1.56l6.75-6.23,25.41-23.64,89.49-83.89.23-.21h.29l128.27,36.99,205.88,59.72,62.28,18.23,16.94,5.02,4.4,1.33,1.68.52Z"/>
    <path class="cls-7" d="M47.81,145.72c-2.02,0-3.94.92-5.19,2.51-3.13,3.88-7.87,11.02-8.3,11.73s-.23,24.66,0,36.54c.03,3.64,3,6.57,6.64,6.56h59.79c3.67,0,6.64-2.97,6.64-6.64v-44.09c0-3.67-2.97-6.64-6.64-6.64l-52.93.04Z"/>
    <path class="cls-7" d="M230.88,46.06c0,4.92-3.99,8.91-8.91,8.91-4.92,0-8.91-3.99-8.91-8.91s3.99-8.91,8.91-8.91h0c4.92,0,8.91,3.99,8.91,8.91Z"/>
    <path class="cls-7" d="M203.25,34.35c0,2.74-2.22,4.96-4.96,4.96-2.74,0-4.96-2.22-4.96-4.96,0-2.74,2.22-4.96,4.96-4.96,0,0,.01,0,.02,0,2.73,0,4.94,2.21,4.94,4.94,0,0,0,.01,0,.02Z"/>
    <path class="cls-7" d="M822.58,86.1c1.18-8.59-10.96-15.67-20.07-16.4-4.36-.35-8.86.31-12.99-1.12-8.93-3.11-12.46-14.53-21.19-18.31-6.5-2.76-14.01-.31-20.32,2.86-6.31,3.18-12.46,7.18-19.6,7.64-6.12.37-12.79-1.89-18.16,1.1-3.99,2.24-6.08,6.85-9.78,9.57-3.7,2.72-8.3,3.22-12.79,3.47-4.48-.13-8.96.57-13.18,2.08-4.15,1.87-7.43,6.23-6.6,10.59l154.69-1.47Z"/>
    <path class="cls-5" d="M931.52,145.7c.91-6.71-8.57-12.23-15.69-12.81-3.38-.27-6.91.25-10.13-.87-6.97-2.43-9.76-11.44-16.61-14.3-5.09-2.08-10.94-.25-15.86,2.24s-9.8,5.6-15.32,5.96c-4.8.31-9.98-1.47-14.18.87-3.13,1.74-4.75,5.33-7.64,7.47-3,1.84-6.47,2.78-9.98,2.7-3.53-.1-7.06.47-10.38,1.68-3.18,1.45-5.81,4.82-5.15,8.3l120.94-1.25Z"/>
    <path class="cls-5" d="M170.26,352c.91-6.71-8.55-12.23-15.67-12.81-3.4-.27-6.93.25-10.15-.87-6.97-2.43-9.76-11.44-16.61-14.3-5.09-2.08-10.94-.25-15.88,2.24-4.94,2.49-9.8,5.6-15.3,5.96-4.8.29-10.01-1.47-14.2.87-3.11,1.74-4.75,5.34-7.64,7.45-2.99,1.86-6.46,2.8-9.98,2.72-3.53-.09-7.06.48-10.38,1.68-3.18,1.45-5.81,4.82-5.15,8.3l120.96-1.25Z"/>
  </g>
  <g id="freepik--Floor--inject-2">
    <path class="cls-8" d="M954.86,972.46c0,.29-202.85.54-453.02.54s-453.06-.25-453.06-.54,202.79-.54,453.06-.54,453.02.23,453.02.54Z"/>
  </g>
  <g id="freepik--Character--inject-2">
    <path class="cls-9" d="M474.15,156.46l2.76,102.96c.46,17.5,4.73,43.12,32.38,41.1h0c23.85-3.55,29.31-26.47,28.85-42.8-.21-7.76-.37-14.22-.35-15.01,0,0,26.14-3.18,27.34-29.06.56-12.56-.35-38.53-1.45-62.01-1.2-25.23-21.57-45.3-46.81-46.13h-2.51c-27.07.48-41.6,23.87-40.21,50.94Z"/>
    <path class="cls-1" d="M538.15,242.81c-12-.44-23.63-4.31-33.5-11.15,0,0,7.64,19.91,33.65,18.43l-.15-7.29Z"/>
    <path class="cls-8" d="M532.23,193.66c2.12-.59,4.31-.92,6.52-.95,1.04,0,2.08-.25,2.2-.93.12-1.05-.08-2.12-.58-3.05-.87-2.49-1.79-5.13-2.76-7.87-3.82-11.21-6.54-20.41-6.1-20.55s3.92,8.8,7.74,20.01l2.64,7.91c.6,1.26.74,2.68.39,4.03-.33.71-.96,1.24-1.72,1.43-.57.14-1.16.2-1.74.19-2.19.21-4.4.14-6.58-.21Z"/>
    <path class="cls-8" d="M517.68,147.65c-.39.98-3.88.39-8.03.77-4.15.37-7.54,1.43-8.05.52-.23-.44.37-1.35,1.76-2.26,1.82-1.13,3.88-1.8,6.02-1.95,2.12-.2,4.27.14,6.23.98,1.49.69,2.24,1.47,2.08,1.95Z"/>
    <path class="cls-8" d="M559.22,154.07c-.44.79-3.86,0-7.97,0s-7.49.69-7.95-.12c-.21-.37.44-1.1,1.85-1.79,1.9-.85,3.96-1.28,6.04-1.25,2.09-.02,4.17.4,6.08,1.25,1.43.79,2.14,1.52,1.95,1.91Z"/>
    <path class="cls-9" d="M475.95,175.78c-.44-.21-17.69-5.87-17.71,11.92-.02,17.79,17.83,14.16,17.87,13.64s-.17-25.55-.17-25.55Z"/>
    <path class="cls-1" d="M470.68,194.59s-.31.23-.83.46c-.74.3-1.57.3-2.3,0-1.89-.69-3.47-3.67-3.55-6.89-.04-1.52.25-3.03.87-4.42.34-1.14,1.22-2.03,2.35-2.39.73-.18,1.5.17,1.83.85.23.5.12.85.21.89s.39-.29.25-1.04c-.11-.44-.35-.83-.71-1.12-.49-.36-1.1-.52-1.7-.46-1.49.3-2.72,1.34-3.26,2.76-.75,1.54-1.12,3.24-1.08,4.96.12,3.59,1.95,6.95,4.53,7.7.97.27,2,.09,2.82-.48.58-.35.58-.79.58-.83Z"/>
    <path class="cls-8" d="M585.25,134.49c1.6.62,2.75,2.04,3.01,3.74.19,2.55-1.36,4.91-3.78,5.75-2.42.76-5.05.18-6.93-1.52.86.57,1.63,1.27,2.28,2.08,1.54,1.98,1.18,4.84-.8,6.38-1.65,1.29-3.97,1.28-5.62-.03h0c-.7,1.35-1.33,2.73-1.89,4.15h0l-.12.25c-.37.89-.77,1.76-1.22,2.64h0l-5.69,11.92c-.66-7.29-.46-17.6-1.14-24.91-11.1.16-21.78-4.23-29.56-12.14-4.15-4.15-7.51-9.65-12.95-12.08-7-3.13-15.09-.33-22.23,2.47l.29-.29c-3.7,1.9-7.01,4.49-9.74,7.64,2.2,14.35,1.28,29.01-2.7,42.97-.58,2.08-2.28,6.44-4.28,7.29-3.92,1.7-5.17-2.32-7.64-4.38-2.18-1.37-4.78-1.9-7.33-1.49-1.87-4.36-7.08-14.88-8.8-21.36l.46-3.07.56-7.1c3.45-6.41-1.22-9.65.52-16.61,1.74-6.95,2.89-11.54,9.63-14.26h0c6.06-2.72,12.97-5.63,18.21-1.54.89-9.28,8.7-16.92,17.62-19.64,8.93-2.72,20.76,0,29.62,3.05,6.79,2.43,11.11,5.75,19.28,13.53,3.43,3.28,12.25,14.8,15.11,18.68l15.82,7.89Z"/>
    <g class="cls-11">
      <path class="cls-2" d="M460.3,159.32s16.86-15.07,49.24-19.08c32.38-4.01,66.7-3.49,73.63-6.77l-8.3-4.15-100.04,11.98-17.27,9.72,2.74,8.3Z"/>
    </g>
    <path class="cls-6" d="M495.74,82.37c-1.2.27-30.39,9.09-36.22,31.72-5.83,22.63-3.18,29.27-3.18,29.27-1.1.82-2.08,1.79-2.91,2.89-1.14,1.54,1.16,8.3,4.98,7.31,28.07-14.9,62.28-18.68,100.58-20.22l29.23-2.45c8.3-1.66-6.46-7.78-10.05-9.59-2.76-1.39-15.22-6.23-15.22-6.23h0c-3.76-5.41-8.16-10.35-13.12-14.7,0,0,2.3-3.72-.79-5.44s-29.33-17.67-53.31-12.56Z"/>
    <path class="cls-8" d="M564.1,115h-1.14l-3.26.17c-2.84,0-6.95.42-12,.89-13.17,1.4-26.19,3.96-38.9,7.66-12.7,3.71-25.18,8.14-37.37,13.29-4.69,1.91-8.47,3.55-11.09,4.67l-3.01,1.29-1.08.42,1.04-.52,2.97-1.37c2.59-1.16,6.35-2.84,11.04-4.82,12.17-5.24,24.65-9.72,37.37-13.43,12.74-3.7,25.8-6.23,39.01-7.54,10.19-.83,16.42-.71,16.42-.71Z"/>
    <g class="cls-11">
      <path class="cls-2" d="M469.58,97.33s31.62-7.45,46.42-1.6l-1.72-.71c4.65,1.66,7.78,5.13,12.46,6.79,1.96.94,4.27.77,6.06-.46-6.06-3.54-12.29-6.76-18.68-9.65-13.29-5.09-32.01-4.82-44.53,5.63Z"/>
    </g>
    <path class="cls-8" d="M469.12,97.5c.86-.76,1.77-1.46,2.74-2.08,2.58-1.76,5.37-3.21,8.3-4.3,4.33-1.65,8.89-2.64,13.51-2.95,5.66-.53,11.37.18,16.73,2.08,2.74,1.04,5.42,2.25,8.01,3.61,2.51,1.31,4.98,2.45,7.22,3.8,2.05,1.33,4.21,2.49,6.46,3.47,1.98.75,4.12,1.03,6.23.81,7.83-.48,12.46-2.45,12.12-2.91-.11.28-.31.52-.58.66-.74.42-1.53.75-2.35.98-2.99.88-6.07,1.41-9.18,1.6-2.17.25-4.36,0-6.41-.75-2.27-.97-4.46-2.14-6.54-3.49-2.22-1.29-4.71-2.43-7.22-3.74-2.57-1.36-5.23-2.56-7.95-3.59-5.33-1.86-10.99-2.57-16.61-2.08-4.58.3-9.1,1.26-13.41,2.84-2.91,1.08-5.69,2.47-8.3,4.15-.93.6-1.64,1.1-2.08,1.43l-.71.44Z"/>
    <g class="cls-11">
      <path class="cls-2" d="M457.4,123.51l.15-1.02c5.02-1.56,10.15-2.76,15.34-3.59,6.05-1.08,12.02-2.61,17.85-4.57,4.46-1.54,9.76-3.03,12.46-6.52.58,2.21-.01,4.56-1.58,6.23-1.62,1.81-7.14,4.15-9.42,5-13.02,4.57-22.05,7.66-35.75,9.59.2-1.73.52-3.44.95-5.13Z"/>
    </g>
    <path class="cls-6" d="M460.53,110.87c-3.53,1.83-6.1,3.18-5.83,6.89.21,2.57.27,4.46,2.84,4.73.79.03,1.58-.09,2.32-.35,12.99-3.59,26.57-5.96,39.57-9.55,1.37-.22,2.62-.91,3.53-1.95,1.16-1.74-.25-5.67-2.08-6.73-2.06-.8-4.3-1.02-6.48-.62-11.96.62-22.21,3.65-33.57,7.43"/>
    <path class="cls-8" d="M502.38,111.26c.47-.5.8-1.11.95-1.79.3-1.89-.5-3.79-2.08-4.88-2.48-1.3-5.32-1.72-8.08-1.2-3.18.39-6.64.85-10.28,1.47-6.2.98-12.3,2.52-18.23,4.61-2.26.79-4.15,1.56-5.29,2.08l-1.43.64-.5.19.46-.29,1.39-.71c1.22-.6,2.99-1.41,5.25-2.26,5.92-2.18,12.04-3.78,18.27-4.75,3.65-.62,7.12-1.08,10.38-1.45,2.84-.51,5.77-.02,8.3,1.37,1.62,1.2,2.39,3.24,1.97,5.21-.12.52-.37,1-.73,1.39-.21.29-.35.39-.37.37Z"/>
    <polygon class="cls-10" points="552.89 104.95 530.9 106.8 531.34 113.03 558.37 110.54 552.89 104.95"/>
    <path class="cls-8" d="M558.72,164.93c-.48.48-3.28-1.7-7.31-1.79-4.03-.08-7.06,1.87-7.49,1.37s.29-1.1,1.6-2.08c1.78-1.17,3.87-1.76,6-1.7,2.11.06,4.14.78,5.81,2.08,1.22,1,1.62,1.91,1.39,2.12Z"/>
    <path class="cls-8" d="M517.7,177.01c-.03,1.8-1.48,3.25-3.28,3.28-1.76.09-3.27-1.26-3.36-3.02,0-.02,0-.05,0-.07.03-1.77,1.44-3.21,3.22-3.28,1.76-.13,3.29,1.2,3.42,2.96,0,.04,0,.09,0,.13Z"/>
    <path class="cls-8" d="M552.6,177.01c-.03,1.8-1.48,3.25-3.28,3.28-1.76.09-3.27-1.26-3.36-3.02,0-.02,0-.05,0-.07.03-1.8,1.48-3.25,3.28-3.28,1.75-.1,3.25,1.23,3.36,2.98,0,.04,0,.07,0,.11Z"/>
    <path class="cls-8" d="M520.07,163.45c-.48.48-3.28-1.7-7.31-1.79-4.03-.08-7.06,1.87-7.47,1.37s.27-1.1,1.6-2.08c1.78-1.17,3.87-1.76,6-1.68,2.1.05,4.14.78,5.79,2.08,1.22.98,1.62,1.89,1.39,2.1Z"/>
    <path class="cls-8" d="M532.67,193.72c2.15-.61,4.37-.96,6.6-1.04,1.04,0,2.08-.27,2.2-.95.12-1.06-.09-2.13-.6-3.07-.91-2.53-1.87-5.17-2.89-7.93-3.96-11.29-6.81-20.57-6.35-20.76s4.05,8.86,8.01,20.16l2.74,7.97c.64,1.29.79,2.76.44,4.15-.32.73-.95,1.28-1.72,1.47-.58.14-1.17.21-1.76.21-2.22.21-4.46.14-6.66-.21Z"/>
    <path class="cls-8" d="M520.71,196.23c.66,0,.56,4.36,4.15,7.56s8.3,2.84,8.3,3.45c0,.29-1.08.83-3.05.85-2.57-.03-5.04-.96-7-2.64-1.85-1.58-3.02-3.81-3.28-6.23.06-1.95.66-3.03.87-2.99Z"/>
    <polygon class="cls-3" points="593.53 357.21 578.5 470.64 583.94 524.74 412.16 524.49 421.71 441.93 427.63 269.03 466.57 258.34 474.56 244.22 512.59 267.51 540.62 247.44 548.86 264.3 592.6 275.3 593.53 357.21"/>
    <path class="cls-8" d="M509.56,267.18c-.57,1.67-1.27,3.29-2.08,4.86-1.47,3.03-3.61,7.29-6.23,12.25l-.25.5-.46-.31c-3.09-2.08-6.35-4.38-9.69-6.95-6.77-5.25-12.68-10.21-17.11-13.62l-5.25-4.03c-.69-.44-1.33-.95-1.91-1.54.74.31,1.43.71,2.08,1.18,1.33.85,3.22,2.08,5.48,3.76,4.55,3.28,10.57,8.16,17.31,13.39,3.32,2.55,6.56,4.94,9.57,6.97l-.71.19c2.59-4.94,4.86-9.13,6.48-12.06.79-1.6,1.71-3.14,2.76-4.59Z"/>
    <path class="cls-8" d="M548.24,265.87c-.3.62-.68,1.2-1.14,1.72-.79,1.06-2.08,2.57-3.51,4.38-3.95,4.78-8.32,9.2-13.06,13.2-.75.56-1.41,1.1-2.2,1.64-.48.33-1.07.47-1.64.37-.54-.16-1-.5-1.31-.98l-2.64-4.15c-1.66-2.57-3.18-4.92-4.53-6.97s-2.28-3.63-2.93-4.8c-.39-.57-.7-1.19-.91-1.85.49.48.91,1.03,1.27,1.62l3.22,4.59c1.35,1.95,2.97,4.15,4.71,6.85l2.66,4.15c.48.62.85.73,1.54.31s1.39-1.04,2.08-1.56c4.67-3.98,9.06-8.28,13.14-12.87,1.65-1.98,3.41-3.87,5.25-5.67Z"/>
    <path class="cls-8" d="M509.56,339.94c-.15-.87-.21-1.75-.17-2.64v-7.22c.1-6.08.52-14.53,1.12-23.77s1.14-17.67,1.43-23.75c.15-2.86.27-5.27.37-7.2,0-.88.09-1.77.25-2.64.16.88.22,1.77.17,2.66v7.2c0,6.1-.52,14.53-1.12,23.79s-1.14,17.67-1.43,23.73c-.15,2.89-.27,5.29-.37,7.2,0,.89-.07,1.77-.25,2.64Z"/>
    <g class="cls-11">
      <path class="cls-2" d="M468,259.29c.33.23,20.76,19.08,30.54,28.21,1.72,1.52,4.34,1.35,5.86-.37.43-.49.74-1.08.91-1.71l3.61-16.94-8.12,15.63-32.8-24.83Z"/>
    </g>
    <g class="cls-11">
      <path class="cls-2" d="M515.46,270.15s7.68,22.44,9.86,20.92c2.18-1.52,14.63-12.73,19.35-20.92-5.39,6.09-11.34,11.65-17.79,16.61l-1.41-1.29-10.01-15.32Z"/>
    </g>
    <path class="cls-4" d="M445.44,338.14l126.96,3.59c3.38.08,6.08,2.84,6.08,6.23l-.79,170.53c0,3.44-2.79,6.23-6.23,6.23l-148.4,1.91c-3.44.03-6.25-2.73-6.28-6.17,0-.3.02-.59.06-.89l22.21-176.03c.43-3.18,3.19-5.51,6.39-5.4Z"/>
    <path class="cls-4" d="M466.72,383.47l86.52,2.68s7.7,61.94-39.13,62.96c-61.82,1.29-47.39-65.64-47.39-65.64Z"/>
    <path class="cls-8" d="M466.72,383.47c.03.23.03.46,0,.69,0,.5-.15,1.16-.27,2.08-.23,1.76-.54,4.36-.73,7.74-.21,4.08-.14,8.17.21,12.25.43,5.39,1.56,10.7,3.36,15.8,1.07,2.95,2.47,5.78,4.15,8.43,3.74,5.98,9.15,10.73,15.57,13.66,1.72.8,3.49,1.49,5.29,2.08,1.87.48,3.74,1.06,5.69,1.37,1.97.39,3.96.66,5.96.81,1,0,2.08.19,3.05.23h3.09c2.08,0,4.15-.12,6.23-.25,2.1-.25,4.18-.65,6.23-1.2,4.22-1.1,8.18-3.03,11.65-5.67,3.55-2.75,6.55-6.15,8.82-10.03,3.94-7.05,6.44-14.81,7.35-22.83.99-7.45,1.12-15,.39-22.48l.5.44-62.09-2.08-17.91-.69-4.8-.23h-1.7,6.31l17.81.42,62.4,1.68h.44v.44c.76,7.6.63,15.26-.37,22.83-.91,8.14-3.44,16.01-7.45,23.15-2.35,4.01-5.45,7.53-9.11,10.38-3.59,2.71-7.67,4.69-12.02,5.83-2.11.55-4.25.96-6.41,1.2-2.13.2-4.26.28-6.39.25h-3.13c-1.04,0-2.08-.19-3.09-.25-4.02-.33-7.98-1.09-11.83-2.28-1.84-.57-3.65-1.27-5.4-2.08-6.57-3.03-12.09-7.94-15.88-14.1-1.7-2.7-3.09-5.58-4.15-8.59-1.8-5.17-2.89-10.55-3.26-16-.3-4.15-.3-8.31,0-12.46.18-2.59.49-5.17.93-7.72.14-.89.26-1.58.37-2.08.05-.25.12-.49.21-.73Z"/>
    <path class="cls-4" d="M437.92,264.61l5.29,83.26c.34,5.14,4.77,9.03,9.91,8.69.2-.01.4-.03.6-.06h0c4.89-.65,8.43-5,8.05-9.92l-6.6-85.11c-5.94-.8-11.97.3-17.25,3.13Z"/>
    <path class="cls-8" d="M437.92,264.61c.33-.22.68-.41,1.04-.58,1.05-.52,2.12-.98,3.22-1.37,4.15-1.58,8.64-2.09,13.04-1.47h.23v.31c.79,9.63,1.87,22.67,3.13,37.99.6,7.7,1.27,15.96,1.95,24.64.33,4.34.69,8.8,1.06,13.35.17,2.26.35,4.57.52,6.87.14,1.18.2,2.36.19,3.55-.06,1.25-.37,2.47-.91,3.59-2.3,4.91-8.14,7.04-13.05,4.74-2.32-1.08-4.12-3.03-5.03-5.42-.32-.87-.53-1.78-.6-2.7,0-.87-.12-1.74-.17-2.59-.12-1.74-.23-3.45-.33-5.15-.21-3.38-.42-6.68-.6-9.92-.77-12.91-1.47-24.54-2.08-34.33-.6-9.8-.98-17.54-1.29-23.06-.12-2.66-.23-4.73-.31-6.23v-1.6c-.02-.18-.02-.36,0-.54.02.19.02.39,0,.58l.15,1.66c.12,1.54.29,3.65.5,6.23.39,5.54.95,13.41,1.64,23.1s1.45,21.32,2.32,34.17c.21,3.2.42,6.5.64,9.86.1,1.68.23,3.38.33,5.09-.02,1.69.23,3.37.73,4.98,1.73,4.52,6.79,6.78,11.31,5.05,2.11-.81,3.83-2.4,4.8-4.45.47-1,.75-2.09.81-3.2,0-1.14-.05-2.27-.17-3.4-.19-2.32-.37-4.61-.54-6.87-.35-4.55-.69-9.01-1.02-13.35-.66-8.7-1.29-16.96-1.87-24.64l-2.7-37.99.25.27c-4.31-.64-8.71-.24-12.83,1.18-1.45.48-2.53.93-3.24,1.22-.36.17-.74.32-1.12.44Z"/>
    <path class="cls-4" d="M561.87,266.77l-8.59,83.37c-.48,4.89,3.1,9.25,7.99,9.73.01,0,.03,0,.04,0h0c4.9.45,9.23-3.15,9.69-8.05,0-.02,0-.05,0-.07l6.64-79.46c.56-1-9.9-5.85-15.78-5.52Z"/>
    <path class="cls-8" d="M561.87,266.77c.38-.04.76-.04,1.14,0,1.12.02,2.24.16,3.34.39,1.77.35,3.52.84,5.21,1.47,1,.37,2.08.79,3.16,1.31.56.27,1.12.54,1.7.87s.56.35.83.56c.15.1.29.22.42.35.24.18.35.5.25.79v-.12c-.73,9.32-1.72,21.94-2.89,36.76-.62,7.43-1.27,15.44-1.95,23.85-.35,4.15-.71,8.51-1.06,12.91-.21,2.22-.33,4.38-.6,6.68-.8,5.16-5.63,8.7-10.78,7.9-5.16-.8-8.7-5.63-7.9-10.78.71-6.79,1.39-13.33,2.08-19.58,1.33-12.46,2.53-23.62,3.55-33.07,1.02-9.45,1.87-16.88,2.47-22.19.29-2.53.52-4.55.71-6l.19-1.54c.02-.17.05-.34.1-.5v.58c0,.37,0,.95-.12,1.62-.12,1.47-.31,3.53-.54,6.1-.52,5.36-1.25,12.95-2.08,22.32s-2.08,20.55-3.24,32.94c-.62,6.23-1.29,12.68-1.97,19.41-.44,3.29,1.07,6.54,3.88,8.3,3.87,2.46,9,1.32,11.46-2.55.62-.97,1.03-2.06,1.2-3.2.25-2.08.39-4.44.58-6.6.37-4.4.75-8.72,1.1-12.91.73-8.41,1.41-16.4,2.08-23.85,1.31-14.82,2.43-27.42,3.26-36.72h.15c-.21,0,0,0-.25-.15l-.33-.31c-.25-.19-.52-.35-.79-.52s-1.1-.62-1.64-.89c-1.08-.54-2.08-.98-3.09-1.35-1.66-.66-3.37-1.2-5.11-1.6-1.08-.26-2.17-.44-3.28-.54l-1.22-.17Z"/>
    <path class="cls-4" d="M567.44,350.47c0,2.59-2.1,4.69-4.69,4.69s-4.69-2.1-4.69-4.69,2.1-4.69,4.69-4.69,4.69,2.1,4.69,4.69h0Z"/>
    <path class="cls-8" d="M567.44,350.47c-.1,0-.12-.42-.35-1.1-.32-.94-.93-1.75-1.74-2.32-1.18-.82-2.69-1.01-4.03-.5-2.17.75-3.32,3.11-2.57,5.28.42,1.2,1.36,2.15,2.57,2.57,1.34.52,2.86.32,4.03-.52.81-.57,1.42-1.38,1.74-2.32.23-.66.25-1.08.35-1.08.13.38.13.8,0,1.18-.18,1.12-.78,2.13-1.66,2.84-1.36,1.09-3.19,1.41-4.84.83-2.68-.94-4.09-3.88-3.15-6.56.52-1.47,1.68-2.63,3.15-3.15,1.65-.59,3.48-.27,4.84.83.88.7,1.48,1.71,1.66,2.82.17.79.04,1.2,0,1.2Z"/>
    <path class="cls-4" d="M456.98,348.39c.01,2.59-2.08,4.7-4.67,4.71-2.59.01-4.7-2.08-4.71-4.67s2.08-4.7,4.67-4.71c0,0,.01,0,.02,0,2.58,0,4.68,2.09,4.69,4.67Z"/>
    <path class="cls-8" d="M456.98,348.39s-.12-.42-.35-1.08c-.32-.94-.92-1.75-1.72-2.32-1.17-.84-2.68-1.03-4.03-.52-2.17.75-3.32,3.11-2.57,5.28.42,1.2,1.36,2.15,2.57,2.57,1.34.51,2.85.32,4.03-.5.8-.58,1.4-1.39,1.72-2.32.23-.69.27-1.1.35-1.1s.17.42,0,1.2c-.21,1.11-.8,2.11-1.68,2.82-1.35,1.09-3.18,1.41-4.82.83-2.68-.91-4.12-3.82-3.22-6.5.51-1.51,1.7-2.7,3.22-3.22,1.64-.58,3.46-.26,4.82.83.88.72,1.48,1.73,1.68,2.84.17.77.06,1.18,0,1.18Z"/>
    <g class="cls-11">
      <path class="cls-2" d="M568.7,378.51c1.96-2.71,1.58-6.46-.89-8.72-2.52-2.12-5.96-2.78-9.09-1.76-3.34.95-6.95,3.32-9.96,1.6-2.43-1.37-2.91-4.59-3.34-7.33s-1.66-6-4.4-6.48c-2.22-.15-4.28,1.19-5.04,3.28-.7,2.05-.93,4.23-.66,6.37l-.52,3.34c-4.05,1.81-10.23,2.08-11.85,6.23s.1,9.74,4.36,11c1.74.18,3.43.63,5.02,1.35,2.57,1.79,1.76,5.77.54,8.68s-2.41,6.68-.15,8.88c4.15,4.03,11.83-3.88,16.38-.31,2.2,1.72,2.08,5.23,4.15,7.18,2.8,2.74,7.97.48,9.4-3.18,1.43-3.65.29-7.74-1-11.44-1.64-4.77-3.24-10.77.42-14.28,2.03-1.83,4.92-2.37,6.64-4.42Z"/>
    </g>
    <path class="cls-3" d="M430.51,268.43c-12.19,1.8-23.39,7.73-31.72,16.81-10.73,12.04-53.97,58.25-58.12,65.45s-18,24-11.4,37.2c5.2,10.45,13.91,18.73,24.6,23.42,7.84,3.22,16.03,5.56,24.39,6.95,2.86.35,9.32-3.05,10.38-5.73l17.08-43.86-1.27-5.87,2.86-1.6,17.98-7.27,5.21-85.51Z"/>
    <path class="cls-9" d="M450.5,385.53l-56.26-21.9c-1.91,0-17.71,11-20.14,32.55-.5,4.53-.64,11.44,2.08,15.17h0l67.45,5.71,6.87-31.53Z"/>
    <path class="cls-8" d="M434.17,440.37l63.75,26.99,6.81-15.24-63.31-27.59c-4.06-1.79-8.82-.22-11.02,3.63h0c-2.4,4.17-.97,9.5,3.21,11.91.19.11.38.21.57.3Z"/>
    <path class="cls-8" d="M373.7,353.27c1.75-.6,3.59-.94,5.44-1,4.49-.14,8.98.44,13.29,1.72,4.31,1.4,8.17,3.93,11.17,7.33,1.34,1.35,2.17,3.11,2.37,5-.77-1.63-1.76-3.15-2.95-4.5-3.05-3.11-6.8-5.44-10.94-6.79-4.18-1.28-8.52-1.98-12.89-2.08-3.36.17-5.44.5-5.48.31Z"/>
    <path class="cls-8" d="M399.08,336.54c.34,4.37,1.11,8.7,2.3,12.91,1.54,4.11,3.51,8.05,5.87,11.75-1.05-.8-1.95-1.8-2.64-2.93-1.83-2.61-3.27-5.47-4.28-8.49-1-3.02-1.55-6.16-1.62-9.34-.13-1.31,0-2.64.35-3.9Z"/>
    <path class="cls-8" d="M420.86,303.3c.29,0,1.27,11.96,2.18,26.74s1.41,26.82,1.12,26.84-1.29-11.96-2.2-26.76-1.33-26.82-1.1-26.82Z"/>
    <path class="cls-8" d="M368.59,360.24c.15.15-1.83,2.08-4.36,5.92-1.47,2.19-2.8,4.48-3.96,6.85-1.39,2.92-2.59,5.93-3.59,9.01-1.77,5.62-2.83,11.45-3.16,17.33-.25,4.5,0,7.33-.21,7.35-.2-.64-.32-1.3-.33-1.97-.19-1.8-.27-3.61-.23-5.42.12-5.98,1.09-11.92,2.89-17.62,1.02-3.13,2.27-6.17,3.74-9.11,1.21-2.39,2.59-4.68,4.15-6.85.59-.85,1.23-1.66,1.91-2.43.49-.6,1.02-1.18,1.58-1.72,1-.91,1.52-1.39,1.58-1.33Z"/>
    <path class="cls-8" d="M376.08,411.35c-.38-.65-.67-1.35-.85-2.08-.61-1.88-1.03-3.82-1.25-5.79-.67-6.54.33-13.14,2.93-19.18,2.35-6.16,5.87-11.8,10.38-16.61,1.39-1.41,2.94-2.65,4.63-3.7.61-.35,1.27-.62,1.95-.79-7.47,5.31-13.03,12.88-15.88,21.59-2.5,5.9-3.58,12.29-3.18,18.68.37,4.9,1.47,7.81,1.27,7.87Z"/>
    <g class="cls-11">
      <path class="cls-2" d="M384.2,348.1c-7.79-1.65-15.92-.51-22.96,3.22-1.22.64-2.57,1.72-2.3,3.07.3,1.03,1.27,1.73,2.35,1.68,1.04-.07,2.07-.34,3.01-.79,8.9-3.49,18.75-3.67,27.78-.52,4.2,1.12,8.03,3.34,11.09,6.44-2.59-7.37-11.23-11.46-18.95-13.1Z"/>
    </g>
    <path class="cls-3" d="M502.9,494.91l25.91-29.81c1.43-1.66,3.87-1.99,5.69-.77l50.05,33.42c1.55,1.09,1.92,3.22.84,4.77-.66.95-1.76,1.49-2.91,1.46l-76.45-1.93c-2.39-.11-4.25-2.14-4.14-4.53.04-.96.4-1.88,1.03-2.61Z"/>
    <path class="cls-8" d="M502.9,494.91c-.38.55-.66,1.16-.83,1.81-.2.79-.14,1.61.15,2.37.35,1.03,1.1,1.88,2.08,2.37,1.34.44,2.75.59,4.15.46h5.04l12.27.23,31.95.69,18.87.44,4.94.12c.76.08,1.53.02,2.26-.19.66-.28,1.19-.79,1.49-1.43,1.6-3.2-2.91-4.63-5.48-6.64l-32.53-21.78-7.29-4.9-3.49-2.35-1.7-1.14c-.5-.39-1.06-.68-1.66-.87-1.16-.3-2.4-.06-3.36.66-.47.39-.89.83-1.27,1.31l-1.25,1.41-4.67,5.46-14.26,16.15-3.92,4.36-1.04,1.12c-.11.14-.23.25-.37.35,0,0,0-.17.29-.44l.95-1.18,3.78-4.48c3.36-3.94,8.12-9.53,13.99-16.38,1.47-1.74,3.03-3.55,4.65-5.42l1.22-1.43c.41-.53.88-1.02,1.39-1.45,1.18-.9,2.72-1.2,4.15-.81.7.2,1.35.52,1.93.95l1.7,1.14,3.51,2.32,7.33,4.86,32.57,21.71,4.3,2.86c.85.52,1.48,1.32,1.79,2.26.27.95.19,1.97-.23,2.86-.42.89-1.16,1.59-2.08,1.95-.86.28-1.78.37-2.68.27l-5-.15-18.85-.5-31.95-.91-12.27-.39-5.04-.17c-1.41.08-2.82-.12-4.15-.6-1.06-.54-1.85-1.5-2.2-2.64-.27-.82-.27-1.7,0-2.51.13-.51.36-.98.69-1.39-.02-.25.1-.37.12-.35Z"/>
    <path class="cls-3" d="M514.27,481.54c-5.19-4.61-4.42-8.01-3.74-11.02.6-1.67.6-3.5,0-5.17-2.08-4.94-8.64-5.71-8.7-5.71l.23-2.08c.31,0,7.81.89,10.38,7,.8,2.08.85,4.38.17,6.5-.64,2.78-1.18,5.19,3.05,8.95l-1.39,1.54Z"/>
    <path class="cls-8" d="M514.27,481.66h0c-5.23-4.63-4.46-8.05-3.76-11.06.59-1.66.59-3.48,0-5.15-2.08-4.92-8.57-5.67-8.66-5.69h0l.23-2.18h0c.31,0,7.85.89,10.48,7.02.79,2.1.84,4.41.15,6.54-.62,2.76-1.16,5.15,3.05,8.88h0l-1.49,1.64ZM501.82,459.64c.62,0,6.66,1.02,8.7,5.75.59,1.68.59,3.51,0,5.19-.69,3.01-1.45,6.39,3.67,10.94l1.35-1.52c-4.15-3.76-3.67-6.23-3.05-8.95.7-2.11.65-4.4-.15-6.48-2.53-5.87-9.61-6.87-10.38-6.95l-.15,2.01Z"/>
    <path class="cls-4" d="M472.24,400.18s27.63,15.09,30.6,23.13c2.97,8.03,6.23,45.9,4.15,50.36-2.08,4.46-9.24,5.36-11.02,1.49s-5.17-30.7-5.17-30.7c0,0-.48,16.98-6.75,19.37-6.27,2.39-12.81-7.14-12.81-7.14,0,0-13.14,6.23-15.8-5.96,0,0-13.1,0-12.46-8.3s1.2-9.55,1.2-9.55l-1.22-7.14s-23.81-3.57-23.81-4.46-3.57-23.25,9.24-35.17c12.81-11.92,23.83-8.3,23.83-8.3l9.28,15.9,10.73,6.48Z"/>
    <path class="cls-8" d="M472.24,400.18c-.26-.09-.5-.22-.73-.37l-2.08-1.22-8.05-4.77h0l-9.38-15.94.19.15c-5.74-1.07-11.67.07-16.61,3.18-6.07,3.33-10.81,8.63-13.45,15.03-2.66,7.37-3.59,15.25-2.72,23.04l.17,1.56c-.37,0,.44.23.85.35,1,.25,2.08.48,3.07.69,2.08.42,4.15.79,6.35,1.14,4.28.73,8.68,1.43,13.16,2.08h.37v.37l1.2,7.14v.33c-.24.98-.42,1.97-.54,2.97-.12,1.06-.25,2.08-.33,3.2s-.19,2.18-.25,3.26c-.06,1.01.14,2.02.58,2.93,1.09,1.82,2.85,3.14,4.9,3.67,2.1.67,4.29,1.04,6.5,1.08h.44v.42c.41,2.96,2.39,5.48,5.17,6.58,3.01.82,6.21.59,9.07-.66.27,0,.56-.21.81-.33l.39-.17.27.35c1.76,2.52,4.04,4.65,6.68,6.23,1.26.73,2.7,1.07,4.15.98,1.41-.16,2.69-.92,3.51-2.08,1.63-2.51,2.7-5.34,3.16-8.3.57-2.9.92-5.85,1.04-8.8h1.06c1.27,9.51,2.45,18.68,4.15,27.44.2,1.05.5,2.09.87,3.09.41.88,1.16,1.55,2.08,1.87,1.95.59,4.06.28,5.77-.83.84-.53,1.55-1.24,2.08-2.08.42-.89.65-1.86.66-2.84.16-2.02.21-4.05.17-6.08-.15-8.05-.79-15.67-1.52-22.73-.39-3.53-.79-6.93-1.31-10.15-.37-3.09-1.06-6.13-2.08-9.07-1.42-2.4-3.27-4.51-5.46-6.23-2.08-1.74-4.03-3.26-5.94-4.63-3.82-2.74-7.22-4.92-10.01-6.66l-6.44-3.9-1.47-.85c-.39-.24-.57-.36-.56-.37l.6.29,1.72.91c1.49.83,3.72,2.08,6.54,3.76s6.23,3.84,10.11,6.54c1.93,1.35,3.94,2.86,6.02,4.59,2.28,1.78,4.21,3.97,5.69,6.46,1.06,2.98,1.8,6.07,2.2,9.22.54,3.24.95,6.64,1.37,10.19.77,7.06,1.43,14.68,1.64,22.83,0,2.08,0,4.15-.17,6.23-.03,1.11-.3,2.2-.79,3.2-.57.99-1.36,1.83-2.32,2.45-1.96,1.29-4.39,1.63-6.62.93-1.18-.43-2.12-1.33-2.59-2.49-.41-1.06-.73-2.16-.95-3.28-1.83-8.78-3.03-18-4.32-27.55h1.06c-.12,3.02-.47,6.02-1.06,8.99-.47,3.12-1.62,6.09-3.36,8.72-.97,1.38-2.48,2.29-4.15,2.51-1.68.13-3.36-.25-4.82-1.1-2.8-1.67-5.22-3.92-7.08-6.6l.69.17c-.29.14-.59.27-.89.37-3.1,1.33-6.55,1.56-9.8.66-1.62-.52-3.01-1.56-3.96-2.97-.47-.65-.87-1.34-1.18-2.08-.29-.75-.48-1.54-.71-2.28l.52.44c-2.33-.05-4.64-.44-6.85-1.16-2.3-.62-4.27-2.11-5.5-4.15-.51-1.08-.75-2.27-.69-3.47,0-1.12.17-2.2.25-3.28s.23-2.18.35-3.24c.12-1.12.33-2.24.64-3.32v.33l-1.2-7.16.44.42c-4.5-.69-8.88-1.39-13.2-2.08-2.08-.37-4.28-.77-6.37-1.18-1.04-.21-2.08-.44-3.13-.71l-.79-.25c-.17-.06-.33-.15-.48-.25-.13-.1-.22-.25-.25-.42v-.29l-.17-1.56c-.89-7.96.08-16.02,2.82-23.54,1.33-3.42,3.33-6.53,5.9-9.15,2.37-2.43,5.06-4.53,7.99-6.23,5.11-3.16,11.23-4.26,17.13-3.09h.1v.12l9.18,15.94h0l7.95,4.96,2.08,1.29.48.33Z"/>
    <path class="cls-8" d="M519.71,479.57c1.25.57,2.4,1.32,3.43,2.22l3.53,2.64,2.08,1.6c.33.31.77.44,1.16,1.1.41.86.04,1.89-.82,2.29-.13.06-.27.11-.41.13-.29.06-.6.06-.89,0-.48,0-.93-.21-1.39-.33-.85-.25-1.69-.57-2.49-.95-1.34-.67-2.63-1.44-3.84-2.32-1.16-.72-2.21-1.61-3.11-2.64,1.25.55,2.44,1.25,3.53,2.08,1.24.77,2.52,1.46,3.84,2.08.76.35,1.56.63,2.37.85l1.29.29c.48,0,.6,0,.83-.15.18-.19.23-.47.12-.71,0-.17-.5-.46-.83-.75l-2.08-1.64c-1.16-1-2.3-1.93-3.38-2.82-1.09-.87-2.07-1.86-2.93-2.97Z"/>
    <path class="cls-8" d="M457.37,438.67c-.21,2.09-.55,4.17-1.02,6.23-.12,2.09-.36,4.17-.73,6.23-.71-2.04-.83-4.23-.35-6.33.12-2.2.85-4.31,2.1-6.12Z"/>
    <path class="cls-8" d="M472.76,445.98c.48,1.7.61,3.48.39,5.23.12,1.77-.11,3.54-.69,5.21-.49-1.7-.62-3.48-.39-5.23-.12-1.77.11-3.54.69-5.21Z"/>
    <path class="cls-8" d="M458.23,394.56c-3.12,2.91-5.96,6.11-8.49,9.55-2.22,3.65-4.07,7.51-5.54,11.52-.02-1.29.21-2.58.69-3.78,1.83-5.95,5.36-11.24,10.15-15.22.92-.89,2.01-1.59,3.2-2.08Z"/>
    <path class="cls-8" d="M454.28,394.35c.15.29-2.57,1.83-5.42,4.36s-4.75,5-5,4.84c.87-2.24,2.35-4.2,4.28-5.65,1.69-1.71,3.82-2.94,6.14-3.55Z"/>
    <polygon class="cls-3" points="112.39 915.42 112.05 639.08 112.05 592.68 174.99 592.53 229.88 592.53 229.88 555.48 293.53 555.48 293.53 514.34 364.4 514.34 364.4 481.6 473.92 481.6 473.92 514.34 625.73 514.34 743.31 514.48 743.31 551.54 798.4 551.54 798.4 592.68 859.91 593.53 860.05 972.25 112.22 972.23 112.39 915.42"/>
    <path class="cls-3" d="M621.56,514.09c-10.57-6.37-25.99.27-35.62-7.45-2.22-1.79-3.88-4.15-6.1-5.98-4.15-3.01-9.37-4.12-14.39-3.07-4.97,1.09-9.65,3.21-13.74,6.23-1.7-5.27-8.05-7.78-13.56-7.2-5.5.58-10.38,3.45-15.49,5.81-16.96,7.93-52.85,7.58-72.28,7.58v4.15l172.55.89-1.37-.95Z"/>
    <path class="cls-8" d="M450.38,509.96c.61-.08,1.23-.11,1.85-.1h5.31c4.61,0,11.27-.15,19.49-.48,9.63-.29,19.23-1.19,28.75-2.68,5.58-.87,11.05-2.4,16.27-4.55,5.31-2.39,10.79-5.85,17.4-6.08,2.68-.07,5.34.56,7.7,1.83,2.37,1.22,4.19,3.3,5.07,5.81l-.81-.29c4.29-3.11,9.21-5.23,14.41-6.23,4.91-.91,9.99.21,14.05,3.11,1.71,1.46,3.3,3.04,4.77,4.73.7.78,1.5,1.48,2.37,2.08.8.59,1.66,1.09,2.57,1.49,3.42,1.34,7.06,2.05,10.73,2.08,6.73.21,12.27.23,15.92,1.33.81.2,1.6.46,2.37.79.58.19,1.14.45,1.66.77.44.23.87.49,1.29.77-1.74-.82-3.56-1.47-5.42-1.95-3.61-.98-9.05-.89-15.86-1-3.78,0-7.52-.7-11.04-2.08-.95-.43-1.86-.96-2.72-1.56-.91-.6-1.75-1.29-2.51-2.08-1.45-1.64-3.02-3.18-4.69-4.61-3.88-2.71-8.68-3.74-13.33-2.86-5.05,1.03-9.82,3.16-13.97,6.23l-.58.39-.23-.69c-.81-2.24-2.44-4.1-4.57-5.19-2.2-1.17-4.67-1.75-7.16-1.68-6.23.21-11.58,3.55-16.98,5.96-5.33,2.19-10.91,3.72-16.61,4.57-9.57,1.45-19.22,2.27-28.9,2.47-8.3.23-14.9.19-19.51.12h-5.31c-.61-.09-1.2-.24-1.79-.44Z"/>
    <rect class="cls-6" x="112.05" y="596.98" width="57.48" height="37.05"/>
    <path class="cls-8" d="M169.53,634.03c-.02-.23-.02-.47,0-.71v-1.97c0-1.83,0-4.32-.12-7.49,0-6.5-.12-15.69-.21-26.88l.42.44-57.48.1.54-.54h0v37.01l-.5-.5,41.25.25,11.89.12h4.34c-.34.03-.68.03-1.02,0h-3.09l-11.79.12-41.52.25h-.69v-37.51h0l.54-.54,57.48.12h.44v.42c0,11.31-.17,20.59-.23,27.15v9.28c0,.31-.09.61-.25.87Z"/>
    <rect class="cls-6" x="365.37" y="473.86" width="109.34" height="37.05"/>
    <path class="cls-8" d="M474.71,510.91c-.03-.22-.03-.44,0-.66v-9.26c0-6.39-.12-15.61-.21-27.13l.37.37-109.34.17.54-.54h0v37.01l-.52-.52,78.12.25,22.83.15h8.41-8.22l-22.83.15-78.47.23h-.58v-37.22h0l.54-.54,109.34.19h.35v.35c0,11.62-.15,20.9-.21,27.36v9.09c-.03.19-.07.38-.12.56Z"/>
    <rect class="cls-6" x="406.95" y="514.34" width="109.34" height="37.05"/>
    <path class="cls-8" d="M516.35,551.39v-9.92c0-6.39-.12-15.61-.21-27.13l.35.37-109.32.17c-.5.5.64-.64.52-.54h0v37.01l-.54-.52,78.14.25,22.83.15h8.22-8.14l-22.83.15-78.49.23h-.52v-37.61h0c0,.12,1.04-1.02.56-.54l109.32.19h.37v.35c0,11.62-.17,20.9-.21,27.36v9.09c.07.32.05.65-.06.96Z"/>
    <rect class="cls-6" x="520.46" y="514.48" width="109.34" height="37.05"/>
    <path class="cls-8" d="M629.8,551.54c-.02-.22-.02-.44,0-.66v-9.26c0-6.39-.1-15.61-.19-27.13l.35.35-109.34.19.54-.54h0v37.03l-.52-.52,78.12.25,22.83.15h8.41c-.17.02-.33.02-.5,0h-7.6l-22.83.17-78.57.56h-.52v-37.57h0l.54-.54,109.34.19h.35v.35c0,11.6-.15,20.9-.19,27.34v9.11c-.06.19-.13.37-.23.54Z"/>
    <rect class="cls-6" x="633.97" y="514.48" width="109.34" height="37.05"/>
    <path class="cls-8" d="M743.31,551.54c-.02-.22-.02-.44,0-.66v-9.26c0-6.39-.12-15.61-.21-27.13l.37.35-109.34.19.54-.54h0v37.03l-.52-.52,78.12.25,22.83.15h8.41-8.12l-22.83.17-78.47.23h-.52v-37.24h0l.54-.54,109.34.19h.35v.35c0,11.6-.15,20.9-.21,27.34v9.11c-.09.18-.18.37-.29.54Z"/>
    <rect class="cls-6" x="293.21" y="514.34" width="109.34" height="37.05"/>
    <path class="cls-8" d="M402.55,551.39v-9.92c0-6.39-.12-15.61-.21-27.13l.35.37-109.32.17.54-.54h0v37.01l-.54-.52,78.14.25,22.83.15h8.39-8.1l-22.83.15-78.49.23h-.52v-37.61h0c-.1.12,1.04-1.02.56-.54l109.32.19h.37v.35c0,11.62-.17,20.9-.21,27.36v9.09c0,.34-.1.67-.29.96Z"/>
    <rect class="cls-6" x="343.41" y="555.63" width="109.34" height="37.05"/>
    <path class="cls-8" d="M452.75,592.68v-9.92c0-6.39-.12-15.61-.21-27.13l.35.35-109.46.29c-.5.5.64-.66.54-.54h0v36.93l-.52-.52,78.12.25,22.83.15h8.39-8.1l-22.83.17-78.47.23h-.54v-37.24h0c-.1.12,1.04-1.02.56-.54l109.32.19h.37v.35c0,11.6-.17,20.9-.21,27.34v9.11c-.02.19-.07.37-.15.54Z"/>
    <rect class="cls-6" x="459.24" y="555.63" width="109.34" height="37.05"/>
    <path class="cls-8" d="M568.58,592.68v-2.59c0-1.72,0-4.15-.1-7.33,0-6.39-.1-15.61-.19-27.13l.35.35-109.38.29.52-.54h0v36.99l-.52-.52,78.14.25,22.83.15h8.41c-.17.02-.33.02-.5,0h-7.6l-22.83.17-78.49.23h-.52v-37.51h0l.56-.54,109.32.19h.35v.35c0,11.6-.15,20.9-.19,27.34v9.11c-.02.26-.08.51-.17.75Z"/>
    <rect class="cls-6" x="573.1" y="555.63" width="109.34" height="37.05"/>
    <path class="cls-8" d="M682.42,592.68v-2.59c0-1.72,0-4.15-.1-7.33,0-6.39-.1-15.61-.19-27.13l.35.35-109.32.19.52-.54h0v36.99l-.52-.52,78.14.25,22.83.15h8.41-8.26l-22.83.17-78.49.23h-.52v-37.51h0c-.1.12,1.04-1.02.56-.54l109.32.19h.37v.35c0,11.6-.15,20.9-.19,27.34v9.11c.02.29-.01.57-.08.85Z"/>
    <rect class="cls-6" x="689.06" y="555.63" width="109.34" height="37.05"/>
    <path class="cls-8" d="M798.4,592.68c-.02-.22-.02-.44,0-.66v-9.26c0-6.39-.1-15.61-.19-27.13l.35.35-109.5.29c-.48.5.66-.66.54-.54h0v36.99l-.52-.52,78.12.25,22.83.15h8.41-8.1l-22.83.17-78.49.23h-.37v-37.51h0l.54-.54,109.34.19h.15v.35c0,11.6-.15,20.9-.19,27.34,0,3.11,0,5.54-.1,7.27v1.85c.04.25.05.5.02.75Z"/>
    <rect class="cls-6" x="229.69" y="555.48" width="109.34" height="37.05"/>
    <path class="cls-8" d="M339.01,592.53v-9.92c0-6.39-.12-15.61-.21-27.13l.35.37-109.32.17.54-.54h0v37.01l-.52-.52,78.12.25,22.83.15h8.39-8.1l-22.83.15-78.47.23h-.54v-37.22h0c0,.12,1.04-1.02.56-.54l109.32.19h.37v.35c0,11.62-.17,20.9-.21,27.36v9.09c-.06.2-.16.39-.29.56Z"/>
    <rect class="cls-6" x="288.63" y="596.91" width="109.34" height="37.05"/>
    <path class="cls-8" d="M398.03,633.97c-.02-.23-.02-.46,0-.69v-9.24c0-6.39,0-15.61-.19-27.13l.35.35-109.34.19.54-.54h0v36.99l-.52-.52,78.12.23,22.83.17h8.41-8.32l-22.83.15-78.49.25h-.52v-37.51h0l.54-.54,109.34.19h.35v.35c0,11.6-.15,20.9-.19,27.34,0,3.11,0,5.54-.1,7.27v1.85c0,.48.02.87.02.85Z"/>
    <rect class="cls-6" x="404.46" y="596.91" width="109.34" height="37.05"/>
    <path class="cls-8" d="M513.8,633.97c-.03-.23-.03-.46,0-.69v-9.24c0-6.39-.12-15.61-.21-27.13l.37.35-109.34.19c-.48.48.64-.66.54-.54h0v36.99l-.52-.52,78.12.23,22.83.17h8.41-8.12l-22.83.15-78.47.25h-.54v-37.2h0l.54-.54,109.34.19h.35v.35c0,11.6-.15,20.9-.21,27.34v9.11c-.08.18-.17.36-.27.54Z"/>
    <rect class="cls-6" x="518.32" y="596.91" width="109.34" height="37.05"/>
    <path class="cls-8" d="M627.66,633.97c-.02-.23-.02-.46,0-.69v-9.24c0-6.39-.12-15.61-.21-27.13l.37.35-109.34.19.54-.54h0v36.99l-.52-.52,78.12.23,22.83.17h8.41-8.12l-22.83.15-78.47.25h-.52v-37.51h0l.54-.54,109.34.19h.35v.35c0,11.6-.15,20.9-.21,27.34v9.11c-.07.29-.17.58-.29.85Z"/>
    <rect class="cls-6" x="634.26" y="596.91" width="109.34" height="37.05"/>
    <path class="cls-8" d="M743.6,633.97v-9.92c0-6.39-.12-15.61-.21-27.13l.35.35-109.32.19c-.5.48.64-.66.52-.54h0v36.99l-.54-.52,78.14.23,22.83.17h8.39-8.1l-22.83.15-78.49.25h-.52v-37.59h0c-.1.12,1.04-1.02.56-.54l109.32.19h.37v.35c0,11.6-.17,20.9-.21,27.34v9.11c0,.33-.09.66-.27.93Z"/>
    <rect class="cls-6" x="749.35" y="596.91" width="110.52" height="37.05"/>
    <path class="cls-8" d="M859.87,633.97c-.02-.23-.02-.46,0-.69v-9.24c0-6.39,0-15.61-.19-27.13l.35.35-110.52.19c.25-.23-.54.54.54-.54h0v36.99l-.52-.52,78.88.23,23.1.17h8.43-8.3l-23,.15-79.32.25h-.48v-37.51h0l.54-.54,110.52.19h.35v.35c0,11.62-.15,20.9-.21,27.36v9.09c-.04.29-.1.57-.19.85Z"/>
    <rect class="cls-6" x="174.89" y="596.77" width="109.34" height="37.05"/>
    <path class="cls-8" d="M284.23,633.82c-.02-.22-.02-.44,0-.66v-9.26c0-6.39,0-15.61-.19-27.13l.35.35-109.34.19.54-.54h0v36.99l-.52-.52,78.12.25,22.83.15h8.41-8.1l-22.83.15-78.49.23h-.52v-37.51h0l.54-.54,109.34.19h.35v.35c0,11.62-.15,20.9-.19,27.34v9.11c-.06.31-.16.6-.31.87Z"/>
    <rect class="cls-6" x="283.27" y="681.3" width="109.34" height="37.05"/>
    <path class="cls-8" d="M392.61,718.35c-.02-.22-.02-.44,0-.66v-9.26c0-6.39-.1-15.61-.19-27.13l.35.35-109.34.19.54-.54h0v36.99l-.52-.52,78.12.25,22.83.15h8.41c-.17.02-.33.02-.5,0h-7.6l-22.83.17-78.49.23h-.52v-37.51h0l.54-.54,109.34.19h.35v.35c0,11.6-.15,20.9-.19,27.34v9.11c-.06.3-.16.59-.31.85Z"/>
    <rect class="cls-6" x="399.11" y="681.3" width="109.34" height="37.05"/>
    <path class="cls-8" d="M508.44,718.35c-.02-.22-.02-.44,0-.66v-9.26c0-6.39-.1-15.61-.19-27.13l.35.35-109.34.19.54-.54h0v36.99l-.52-.52,78.12.25,22.83.15h8.41-8.12l-22.83.17-78.47.23h-.52v-37.51h0l.54-.54,109.34.19h.35v.35c0,11.6-.15,20.9-.19,27.34,0,3.11,0,5.54-.1,7.27v1.85c-.05.29-.12.57-.21.85Z"/>
    <rect class="cls-6" x="512.97" y="681.3" width="109.34" height="37.05"/>
    <path class="cls-8" d="M622.22,718.35c-.02-.22-.02-.44,0-.66v-9.26c0-6.39,0-15.61-.19-27.13l.35.35-109.34.19.54-.54h0v36.99l-.52-.52,78.01.42,22.83.15h8.41-8.1l-22.83.17-78.49.23h-.52v-37.51h0l.54-.54,109.34.19h.35v.35c0,11.6-.15,20.9-.19,27.34,0,3.11,0,5.54-.1,7.27v1.85c0,.48-.1.71-.1.68Z"/>
    <rect class="cls-6" x="628.92" y="681.3" width="109.34" height="37.05"/>
    <path class="cls-8" d="M738.26,718.35c-.03-.22-.03-.44,0-.66v-9.26c0-6.39-.12-15.61-.21-27.13l.37.35-109.34.19.54-.54h0v36.99l-.52-.52,78.12.25,22.83.15h8.41-8.12l-22.83.17-78.47.23h-.6v-37.2h0l.54-.54,109.34.19h.35v.35c0,11.6-.15,20.9-.21,27.34v9.11c-.06.18-.13.36-.21.54Z"/>
    <rect class="cls-6" x="745.22" y="681.3" width="114.69" height="37.05"/>
    <path class="cls-8" d="M859.91,718.35c-.03-.22-.03-.44,0-.66v-9.24c0-6.39-.1-15.59-.19-27.15l.35.35-114.69.19.54-.54h0v36.99l-.52-.52,81.91.23,24.02.17h8.76-8.53l-23.89.15-82.27.23h-.71v-37.51h0l.54-.54,114.69.19h.35v.35c0,11.65-.17,20.92-.21,27.36v9.09c-.03.29-.09.59-.17.87Z"/>
    <rect class="cls-6" x="169.53" y="681.15" width="109.34" height="37.05"/>
    <path class="cls-8" d="M278.87,718.19c-.02-.22-.02-.44,0-.66v-9.26c0-6.39-.1-15.61-.19-27.13l.35.37-109.34.17.54-.54h0v37.01l-.52-.52,78.12.25,22.83.15h8.41c-.17.02-.33.02-.5,0h-7.6l-22.83.15-78.49.23h-.52v-37.22h0c-.12.12,1.04-1.02.54-.54l109.34.19h.35v.35c0,11.62-.15,20.9-.19,27.36v9.09c-.08.2-.19.39-.31.56Z"/>
    <rect class="cls-6" x="225.79" y="639.22" width="109.34" height="37.05"/>
    <path class="cls-8" d="M335.13,676.27c-.03-.23-.03-.46,0-.69v-9.26c0-6.39-.12-15.59-.21-27.11l.37.35-109.34.19.54-.54h0v37.03l-.52-.54,78.12.25,22.83.15h7.83c.19-.03.39-.03.58,0h-8.12l-22.83.15-78.47.25h-.52v-37.2h0l.54-.54,109.34.17h.35v.37c0,11.6-.15,20.88-.21,27.34v9.09c-.27.33-.29.54-.29.54Z"/>
    <rect class="cls-6" x="341.6" y="639.22" width="109.34" height="37.05"/>
    <path class="cls-8" d="M450.94,676.27v-9.94c0-6.39-.12-15.59-.21-27.11l.35.35-109.32.19c-.5.48.64-.66.52-.54h0v37.03l-.54-.54,78.14.25,22.83.15h7.85c.19-.03.38-.03.56,0h-8.1l-22.83.15-78.49.25h-.52v-37.2h0c-.1.1,1.04-1.04.56-.54l109.32.17h.37v.37c0,11.6-.17,20.88-.21,27.34v9.09c-.08.19-.18.37-.29.54Z"/>
    <rect class="cls-6" x="455.47" y="639.22" width="109.34" height="37.05"/>
    <path class="cls-8" d="M564.8,676.27v-9.94c0-6.39-.12-15.59-.21-27.11l.35.35-109.32.19c-.5.48.64-.66.54-.54h0v37.03l-.54-.54,78.14.25,22.83.15h7.83c.19-.03.37-.03.56,0h-8.1l-22.83.15-78.49.25h-.52v-37.2h0c0,.1,1.04-1.04.56-.54l109.32.17h.37v.37c0,11.6-.17,20.88-.21,27.34v9.09c-.07.19-.17.38-.29.54Z"/>
    <rect class="cls-6" x="571.42" y="639.22" width="109.34" height="37.05"/>
    <path class="cls-8" d="M680.76,676.27v-2.59c0-1.74,0-4.15-.1-7.35,0-6.39-.1-15.59-.19-27.11l.35.35-109.34.19.54-.54h0v37.03l-.52-.54,78.14.25,22.83.15h7.85c.19-.03.37-.03.56,0h-8.14l-22.83.15-78.49.25h-.52v-37.2h0l.54-.54,109.34.17h.35v.37c0,11.6-.15,20.88-.19,27.34v9.09c-.05.18-.11.37-.19.54Z"/>
    <rect class="cls-6" x="687.71" y="639.22" width="109.34" height="37.05"/>
    <path class="cls-8" d="M797.05,676.27v-9.94c0-6.39-.12-15.59-.21-27.11l.35.35-109.32.19c-.5.48.64-.66.52-.54h0v37.03l-.54-.54,78.14.25,22.83.15h7.85c.19-.03.37-.03.56,0h-8.24l-22.83.15-78.49.25h-.52v-37.2h0c-.1.1,1.04-1.04.56-.54l109.32.17h.37v.37c0,11.6-.17,20.88-.21,27.34v9.09c-.03.18-.08.36-.15.54Z"/>
    <rect class="cls-6" x="112.05" y="639.08" width="109.34" height="37.05"/>
    <path class="cls-8" d="M221.39,676.13c-.03-.23-.03-.46,0-.69v-9.24c0-6.41-.12-15.61-.21-27.13l.37.35-109.34.19.54-.54h0v36.99l-.52-.54,78.12.25,22.83.15h8.41-8.12l-22.83.15-78.47.25h-.62v-37.22h0l.54-.54,109.34.19h.35v.35c0,11.6-.15,20.88-.21,27.34v9.11c0,.48-.19.58-.19.58Z"/>
    <rect class="cls-6" x="112.05" y="681.36" width="53.08" height="37.05"/>
    <path class="cls-8" d="M165.13,718.42c-.02-.23-.02-.47,0-.71v-2.08c0-1.83,0-4.34-.1-7.51,0-6.52-.12-15.69-.23-26.84l.44.44h-53.08c-.12.12,1.02-1.02.54-.52h0v37.26l-.48-.48,38.13.23,10.96.15h3.99c-.31.03-.62.03-.93,0h-2.84l-10.84.12-38.47.25h-.66v-37.51h0c-.5.48.64-.66.54-.56l53.08.1h.35v.44c0,11.25-.17,20.53-.23,27.11v9.32c0,.27-.05.54-.17.79Z"/>
    <rect class="cls-6" x="804.02" y="639.22" width="55.88" height="37.05"/>
    <path class="cls-8" d="M859.91,676.27c-.02-.24-.02-.48,0-.73v-1.97c0-1.83,0-4.34-.1-7.49,0-6.5-.15-15.69-.23-26.86l.44.42-55.88.12c-.12,0,1.02-1.04.54-.54h0v37.03l-.48-.5,40.11.23,11.56.15h4.21-4.01l-11.44.15-40.44.23h-.5v-37.2h0l.54-.54,55.88.1h.44v.44c0,11.27-.17,20.55-.23,27.13v9.3c0,.52-.42.54-.42.54Z"/>
    <rect class="cls-6" x="283.27" y="765.89" width="109.34" height="37.05"/>
    <path class="cls-8" d="M392.61,802.94c-.02-.22-.02-.44,0-.66v-9.26c0-6.39-.1-15.61-.19-27.13l.35.37-109.34.17.42-.5h0v37.01l-.52-.52,78.12.25,22.83.15h8.41c-.17.02-.33.02-.5,0h-7.6l-22.83.15-78.49.23h-.52v-37.26h0l.54-.54,109.34.19h.35v.35c0,11.62-.15,20.9-.19,27.36v9.09c-.04.19-.11.38-.19.56Z"/>
    <rect class="cls-6" x="399.11" y="765.89" width="109.34" height="37.05"/>
    <path class="cls-8" d="M508.44,802.94c-.02-.22-.02-.44,0-.66v-9.26c0-6.39-.1-15.61-.19-27.13l.35.37-109.34.17.54-.54h0v37.01l-.52-.52,78.12.25,22.83.15h8.41-8.12l-22.83.15-78.47.23h-.52v-37.22h0l.54-.54,109.34.19h.35v.35c0,11.62-.15,20.9-.19,27.36,0,3.09,0,5.52-.1,7.24v1.85c-.06.19-.13.38-.21.56Z"/>
    <rect class="cls-6" x="512.97" y="765.89" width="109.34" height="37.05"/>
    <path class="cls-8" d="M622.22,802.94c-.02-.22-.02-.44,0-.66v-9.26c0-6.39,0-15.61-.19-27.13l.35.37-109.34.17.54-.54h0v37.01l-.52-.52,78.12.25,22.83.15h8.2-8.1l-22.83.15-78.49.23h-.52v-37.22h0l.54-.54,109.34.19h.35v.35c0,11.62-.15,20.9-.19,27.36,0,3.09,0,5.52-.1,7.24v1.85c0,.46,0,.58,0,.56Z"/>
    <rect class="cls-6" x="628.92" y="765.89" width="109.34" height="37.05"/>
    <path class="cls-8" d="M738.26,802.94c-.03-.22-.03-.44,0-.66v-9.26c0-6.39-.12-15.61-.21-27.13l.37.37-109.34.17.54-.54h0v37.01l-.52-.52,78.12.25,22.83.15h8.41-8.12l-23.02.52-78.47.23h-.42v-37.59h0l.54-.54,109.34.19h.35v.35c0,11.62-.15,20.9-.21,27.36v9.09c-.06.19-.13.38-.21.56Z"/>
    <rect class="cls-6" x="745.22" y="765.89" width="114.69" height="37.05"/>
    <path class="cls-8" d="M859.91,802.94c-.03-.22-.03-.44,0-.66v-9.24c0-6.37-.1-15.59-.19-27.15l.35.35-114.69.19.54-.54h0v18.91c0,6.21,0,12.25,0,18.1l-.52-.52,81.91.25,24.02.15h8.76-8.53l-23.89.15-82.27.23h-.71v-37.22h0l.54-.54,114.69.19h.35v.35c0,11.65-.17,20.92-.21,27.38v9.07c-.05.19-.1.38-.17.56Z"/>
    <rect class="cls-6" x="169.53" y="765.74" width="109.34" height="37.05"/>
    <path class="cls-8" d="M278.87,802.8c-.02-.22-.02-.44,0-.66v-9.26c0-6.39-.1-15.61-.19-27.13l.35.37-109.34.19.54-.54h0v37.01l-.52-.52,78.12.25,22.83.15h8.41c-.17.02-.33.02-.5,0h-7.6l-22.83.15-78.61.5h-.52v-37.55h0c-.12.1,1.04-1.04.54-.56l109.34.19h.35v.35c0,11.62-.15,20.9-.19,27.36v9.09c-.04.21-.1.42-.19.62Z"/>
    <rect class="cls-6" x="226.85" y="723.81" width="109.34" height="37.05"/>
    <path class="cls-8" d="M336.19,760.87v-2.59c0-1.74,0-4.15-.1-7.33,0-6.41,0-15.61-.19-27.13l.35.35-109.32.19c-.5.48.64-.66.52-.54h0v37.03l-.52-.52,78.14.23,22.83.15h8.41-8.16l-22.83.15-78.49.25h-.52v-37.55h0l.56-.54,109.32.19h.37v.35c0,11.6-.15,20.88-.19,27.34v9.11c-.02.3-.09.59-.19.87Z"/>
    <rect class="cls-6" x="341.6" y="723.81" width="109.34" height="37.05"/>
    <path class="cls-8" d="M450.94,760.87v-9.92c0-6.41-.12-15.61-.21-27.13l.35.35-109.32.19c-.5.48.64-.66.52-.54h0v37.03l-.54-.52,78.14.23,22.83.15h8.41-8.1l-22.83.15-78.49.25h-.52v-37.64h0l.56-.54,109.32.19h.37v.35c0,11.6-.17,20.88-.21,27.34v9.11c-.05.33-.15.65-.29.95Z"/>
    <rect class="cls-6" x="456.54" y="723.81" width="109.34" height="37.05"/>
    <path class="cls-8" d="M565.88,760.87c-.02-.23-.02-.46,0-.69v-9.24c0-6.41,0-15.61-.19-27.13l.35.35-109.34.19.54-.54h0v37.03l-.52-.52,78.12.23,22.83.15h8.41-8.1l-22.83.15-78.49.25h-.52v-37.55h0c-.12.1,1.04-1.02.54-.54l109.34.19h.15v.35c0,11.6-.15,20.88-.19,27.34v9.11c0,.29-.03.59-.1.87Z"/>
    <rect class="cls-6" x="572.5" y="723.81" width="109.34" height="37.05"/>
    <path class="cls-8" d="M681.84,760.87c-.02-.23-.02-.46,0-.69v-9.24c0-6.41-.12-15.61-.21-27.13l.37.35-109.34.19.54-.54h0v37.03l-.52-.52,78.12.23,22.83.15h8.41-8.12l-22.83.15-78.47.25h-.52v-37.55h0l.54-.54,109.34.19h.35v.35c0,11.6-.15,20.88-.21,27.34v9.11c-.27.66-.29.87-.29.87Z"/>
    <rect class="cls-6" x="687.71" y="723.81" width="109.34" height="37.05"/>
    <path class="cls-8" d="M797.05,760.87v-9.92c0-6.41-.12-15.61-.21-27.13l.35.35-109.32.19c-.5.48.64-.66.52-.54h0v37.03l-.54-.52,78.14.23,22.83.15h8.32-8.16l-22.83.15-78.49.25h-.52v-37.64h0l.56-.54,109.32.19h.37v.35c0,11.6-.17,20.88-.21,27.34v9.11c0,.32-.05.65-.15.95Z"/>
    <rect class="cls-6" x="112.05" y="723.67" width="109.34" height="37.05"/>
    <path class="cls-8" d="M221.39,760.72c-.03-.23-.03-.46,0-.69v-9.24c0-6.39-.12-15.61-.21-27.13l.37.35-109.34.19.54-.54h0v37.03l-.52-.52,78.12.23,22.83.15h8.41-8.12l-22.83.15-78.47.25h-.62v-37.55h0l.54-.54,109.34.19h.35v.35c0,11.6-.15,20.88-.21,27.34v9.11c0,.48-.19.87-.19.87Z"/>
    <rect class="cls-6" x="112.05" y="765.97" width="53.08" height="37.05"/>
    <path class="cls-8" d="M165.13,803.01c-.02-.23-.02-.47,0-.71v-2.08c0-1.83,0-4.34-.1-7.51,0-6.5-.12-15.69-.23-26.82l.44.44h-53.08l.54-.54h0v37.01l-.48-.48,38.13.23,10.96.15h3.99c-.31.03-.62.03-.93,0h-2.84l-10.84.12-38.47.25h-.66v-37.14h0c-.5.48.64-.66.54-.56l53.08.12h.35v.44c0,11.23-.17,20.53-.23,27.11v9.3c-.01.23-.07.46-.17.66Z"/>
    <rect class="cls-6" x="804.02" y="723.71" width="55.88" height="37.05"/>
    <path class="cls-8" d="M859.91,760.76c-.02-.24-.02-.48,0-.73v-2.08c0-1.83,0-4.34-.1-7.49,0-6.5-.15-15.69-.23-26.86l.44.44-55.88.1.54-.54h0v37.03l-.48-.5,40.11.25,11.56.12h4.21c-.33.03-.67.03-1,0h-3.01l-11.44.15-40.44.25h-.5v-37.53h0c-.5.48.64-.66.54-.54l55.88.1h.44v.44c0,11.27-.17,20.55-.23,27.13v9.3c0,.5-.42.95-.42.95Z"/>
    <rect class="cls-6" x="283.27" y="849.8" width="109.34" height="37.05"/>
    <path class="cls-8" d="M392.61,886.85c-.02-.22-.02-.44,0-.66v-9.26c0-6.39-.1-15.61-.19-27.13l.35.35-109.34.19.54-.54h0v36.99l-.52-.52,78.12.25,22.83.15h8.41c-.17.02-.33.02-.5,0h-7.6l-22.83.17-78.49.23h-.52v-37.51h0c-.12.12,1.04-1.02.54-.54l109.34.19h.35v.35c0,11.6-.15,20.9-.19,27.34v9.11c-.06.3-.16.59-.31.85Z"/>
    <rect class="cls-6" x="399.11" y="849.8" width="109.34" height="37.05"/>
    <path class="cls-8" d="M508.44,886.85c-.02-.22-.02-.44,0-.66v-9.26c0-6.39-.1-15.61-.19-27.13l.35.35-109.34.19.54-.54h0v36.99l-.52-.52,78.12.25,22.83.15h8.41-8.12l-22.83.17-78.47.23h-.52v-37.51h0l.54-.54,109.34.19h.35v.35c0,11.6-.15,20.9-.19,27.34,0,3.11,0,5.54-.1,7.27v1.85c-.05.29-.12.57-.21.85Z"/>
    <rect class="cls-6" x="512.97" y="849.8" width="109.34" height="37.05"/>
    <path class="cls-8" d="M622.22,886.85c-.02-.22-.02-.44,0-.66v-9.26c0-6.39,0-15.61-.19-27.13l.35.35-109.34.19.54-.54h0v36.99l-.52-.52,78.12.25,22.83.15h8.41-8.1l-22.83.17-78.49.23h-.52v-37.51h0l.54-.54,109.34.19h.35v.35c0,11.6-.15,20.9-.19,27.34,0,3.11,0,5.54-.1,7.27v1.85c0,.48-.21.87-.21.85Z"/>
    <rect class="cls-6" x="628.92" y="849.8" width="109.34" height="37.05"/>
    <path class="cls-8" d="M738.26,886.85c-.03-.22-.03-.44,0-.66v-9.26c0-6.39-.12-15.61-.21-27.13l.37.35-109.34.19.54-.54h0v37.01l-.52-.52,78.12.25,22.83.15h8.41-8.12l-22.83.17-78.47.23h-.6v-37.22h0l.54-.54,109.34.19h.35v.35c0,11.6-.15,20.9-.21,27.34v9.11c-.06.18-.13.36-.21.54Z"/>
    <rect class="cls-6" x="745.22" y="849.8" width="114.69" height="37.05"/>
    <path class="cls-8" d="M859.91,886.85c-.03-.22-.03-.44,0-.66v-9.24c0-6.39-.1-15.59-.19-27.15l.35.35-114.69.19.54-.54h0v36.99l-.52-.52,81.91.23,24.02.17h8.76-8.53l-23.89.17-82.27.23h-.71v-37.51h0l.54-.54,114.69.19h.35v.35c0,11.65-.17,20.92-.21,27.36v9.09c-.03.29-.09.57-.17.85Z"/>
    <rect class="cls-6" x="169.53" y="849.65" width="109.34" height="37.05"/>
    <path class="cls-8" d="M278.87,886.71c-.02-.22-.02-.44,0-.66v-9.26c0-6.39-.1-15.61-.19-27.13l.35.37-109.34.17.54-.54h0v37.01l-.52-.52,78.12.25,22.83.15h8.41c-.17.02-.33.02-.5,0h-7.6l-22.83.15-78.49.23h-.52v-37.53h0l.54-.54,109.34.19h.35v.35c0,11.62-.15,20.9-.19,27.34v9.11c-.06.31-.16.6-.31.87Z"/>
    <rect class="cls-6" x="225.79" y="807.72" width="109.34" height="37.05"/>
    <path class="cls-8" d="M335.13,844.81c-.03-.23-.03-.46,0-.69v-9.26c0-6.39-.12-15.59-.21-27.11l.37.35-109.34.19.54-.54h0v37.03l-.52-.54,78.12.25,22.83.15h7.83c.19-.03.39-.03.58,0h-8.12l-22.83.15-78.47.25h-.52v-37.3h0l.54-.54,109.34.17h.35v.37c0,11.6-.15,20.88-.21,27.34v9.09c-.27.39-.29.64-.29.64Z"/>
    <rect class="cls-6" x="341.6" y="807.72" width="109.34" height="37.05"/>
    <path class="cls-8" d="M450.94,844.81v-9.94c0-6.39-.12-15.59-.21-27.11l.35.35-109.32.19c-.5.48.64-.66.52-.54h0v37.05l-.54-.54,78.14.25,22.83.15h7.85c.19-.03.38-.03.56,0h-8.1l-22.83.15-78.49.25h-.52v-37.64h0c-.1.1,1.04-1.04.56-.54l109.32.17h.37v.37c0,11.6-.17,20.88-.21,27.34v9.09c-.05.33-.15.65-.29.95Z"/>
    <rect class="cls-6" x="455.47" y="807.72" width="109.34" height="37.05"/>
    <path class="cls-8" d="M564.8,844.81v-9.94c0-6.39-.12-15.59-.21-27.11l.35.35-109.32.19.54-.54h0v37.05l-.54-.54,78.14.25,22.83.15h7.83c.19-.03.37-.03.56,0h-8.1l-22.83.15-78.49.25h-.52v-37.64h0c0,.1,1.04-1.04.56-.54l109.32.17h.37v.37c0,11.6-.17,20.88-.21,27.34v9.09c-.02.34-.12.66-.29.95Z"/>
    <rect class="cls-6" x="571.42" y="807.72" width="109.34" height="37.05"/>
    <path class="cls-8" d="M680.76,844.81v-2.59c0-1.74,0-4.15-.1-7.35,0-6.39-.1-15.59-.19-27.11l.35.35-109.34.19.54-.54h0v37.03l-.52-.54,78.14.25,22.83.15h7.85c.19-.03.37-.03.56,0h-8.14l-22.83.15-78.49.25h-.52v-37.26h0l.54-.54,109.34.17h.35v.37c0,11.6-.15,20.88-.19,27.34v9.09c-.04.21-.11.41-.19.6Z"/>
    <rect class="cls-6" x="687.71" y="807.72" width="109.34" height="37.05"/>
    <path class="cls-8" d="M797.05,844.81v-9.94c0-6.39-.12-15.59-.21-27.11l.35.35-109.32.19c-.5.48.64-.66.52-.54h0v37.05l-.54-.54,78.14.25,22.83.15h7.85c.19-.03.37-.03.56,0h-8.24l-22.83.15-78.49.25h-.52v-37.64h0c-.1.1,1.04-1.04.56-.54l109.32.17h.37v.37c0,11.6-.17,20.88-.21,27.34v9.09c0,.32-.05.64-.15.95Z"/>
    <rect class="cls-6" x="112.05" y="807.57" width="109.34" height="37.05"/>
    <path class="cls-8" d="M221.39,844.63c-.03-.23-.03-.46,0-.69v-9.24c0-6.41-.12-15.61-.21-27.13l.37.35-109.34.19.54-.54h0v37.03l-.52-.54,78.12.25,22.83.15h8.41-2.06l-6.27.35h-22.83l-78.47.25h-.42v-37.55h0c-.12.1,1.02-1.04.54-.54l109.34.19h.35v.35c0,11.6-.15,20.88-.21,27.34v9.11c0,.48-.19.66-.19.66Z"/>
    <rect class="cls-6" x="112.05" y="849.86" width="53.08" height="37.05"/>
    <path class="cls-8" d="M165.13,886.91c-.02-.23-.02-.47,0-.71v-2.08c0-1.83,0-4.34-.1-7.51,0-6.52-.12-15.69-.23-26.84l.44.44-53.08.1c-.12.12,1.02-1.02.54-.52h0v37.01l-.48-.48,38.13.23,10.96.15h3.99c-.31.03-.62.03-.93,0h-2.84l-10.84.12-38.47.25h-.66v-37.51h0c-.5.48.64-.66.54-.56l53.08.1h.35v.44c0,11.25-.17,20.53-.23,27.11v9.32c.03.32-.03.64-.17.93Z"/>
    <rect class="cls-6" x="804.02" y="807.62" width="55.88" height="37.05"/>
    <path class="cls-8" d="M859.91,844.65c-.03-.23-.03-.47,0-.71v-1.97c0-1.83,0-4.34-.1-7.49,0-6.52-.15-15.69-.23-26.86l.44.42-55.88.12.54-.54h0v37.01l-.48-.48,40.11.23,11.56.15h4.21c-.33.03-.66.03-1,0h-3.01l-11.44.15-40.44.23h-.5v-37.53h0l.54-.54,55.88.1h.44v.44c0,11.27-.17,20.55-.23,27.13v9.3c0,.52-.42.87-.42.85Z"/>
    <rect class="cls-6" x="227.18" y="892.31" width="109.34" height="37.05"/>
    <path class="cls-8" d="M336.52,929.37c-.02-.23-.02-.46,0-.69v-9.24c0-6.41,0-15.61-.19-27.13l.35.35-109.34.19.54-.54h0v37.01l-.52-.54,78.12.25,22.83.15h8.41-8.1l-22.83.15-78.61.6h-.52v-37.55h0l.54-.54,109.34.19h.35v.35c0,11.6-.15,20.88-.19,27.34v9.11c-.05.18-.11.37-.19.54Z"/>
    <rect class="cls-6" x="341.94" y="892.31" width="109.34" height="37.05"/>
    <path class="cls-8" d="M451.27,929.37c-.02-.23-.02-.46,0-.69v-9.24c0-6.41,0-15.61-.19-27.13l.35.35-109.34.19.54-.54h0v37.01l-.52-.54,78.12.25,22.83.15h8.41-8.1l-22.83.15-78.57.6h-.52v-37.55h0l.54-.54,109.34.19h.35v.35c0,11.6-.15,20.88-.19,27.34v9.11c-.06.19-.14.37-.23.54Z"/>
    <rect class="cls-6" x="455.8" y="892.31" width="109.34" height="37.05"/>
    <path class="cls-8" d="M565.13,929.37v-2.59c0-1.74,0-4.15-.1-7.33,0-6.41-.1-15.61-.19-27.13l.35.35-109.32.19c-.5.48.64-.66.52-.54h0v37.01l-.52-.54,78.14.25,22.83.15h8.41-8.1l-22.83.15-78.49.25h-.52v-37.55h0l.56-.54,109.32.19h.37v.35c0,11.6-.15,20.88-.19,27.34v9.11c-.04.31-.13.61-.25.89Z"/>
    <rect class="cls-6" x="571.76" y="892.31" width="109.34" height="37.05"/>
    <path class="cls-8" d="M681.09,929.37c-.02-.23-.02-.46,0-.69v-9.24c0-6.41,0-15.61-.19-27.13l.35.35-109.34.19.54-.54h0v37.01l-.52-.54,78.12.25,22.83.15h8.41-8.1l-22.83.15-78.49.25h-.52v-37.55h0l.54-.54,109.34.19h.35v.35c0,11.6-.15,20.88-.19,27.34,0,3.11,0,5.54-.1,7.24v1.87c0,.48-.21.89-.21.89Z"/>
    <rect class="cls-6" x="688.05" y="892.31" width="109.34" height="37.05"/>
    <path class="cls-8" d="M797.38,929.37c-.02-.23-.02-.46,0-.69v-9.24c0-6.41-.1-15.61-.19-27.13l.35.35-109.34.19.54-.54h0v37.01l-.52-.54,78.12.25,22.83.15h8.41-8.1l-22.83.15-78.49.25h-.52v-37.55h0l.54-.54,109.34.19h.35v.35c0,11.6-.15,20.88-.19,27.34v9.11c-.06.31-.17.61-.31.89Z"/>
    <rect class="cls-6" x="112.36" y="892.17" width="109.34" height="37.05"/>
    <path class="cls-8" d="M221.7,929.22v-9.92c0-6.39-.12-15.61-.21-27.13l.35.35-109.32.19c-.5.48.64-.66.52-.54h0v37.03l-.54-.52,78.14.23,22.83.15h7.83c.19-.02.37-.02.56,0h-8.1l-22.83.15-78.49.25h-.52v-37.64h0l.56-.54,109.32.19h.37v.35c0,11.6-.17,20.88-.21,27.34v9.11c0,.34-.09.67-.27.95Z"/>
    <rect class="cls-6" x="804.34" y="892.21" width="55.88" height="37.05"/>
    <path class="cls-8" d="M860.22,929.26v-2.7c0-1.83,0-4.34-.12-7.49,0-6.5-.12-15.69-.21-26.86l.42.44h-55.86c-.12.1,1.02-1.02.52-.54h0v37.03l-.5-.5,40.13.25,11.56.12h4.19c-.33.03-.67.03-1,0h-2.99l-11.44.15-40.46.25h-.5v-37.53h0c-.48.48.66-.66.56-.54l55.86.1h.44v.44c0,11.27-.17,20.55-.23,27.13,0,3.11,0,5.6-.1,7.39v1.91c-.02.33-.11.66-.27.95Z"/>
    <rect class="cls-6" x="283.11" y="935.32" width="109.34" height="37.05"/>
    <path class="cls-8" d="M392.44,972.38v-2.57c0-1.74,0-4.15-.1-7.35,0-6.39,0-15.61-.19-27.13l.35.37-109.32.19c-.5.48.64-.66.52-.54h0v37.01l-.52-.52,78.14.25,22.83.15h8.41-8.1l-22.83.15-78.49.25h-.52v-37.55h0l.56-.56,109.32.19h.37v.35c0,11.62-.15,20.9-.19,27.36v9.09c-.04.3-.12.6-.25.87Z"/>
    <rect class="cls-6" x="398.94" y="935.32" width="109.34" height="37.05"/>
    <path class="cls-8" d="M508.28,972.38c-.02-.22-.02-.44,0-.66v-9.26c0-6.39-.1-15.61-.19-27.13l.35.37-109.34.19.54-.54h0v37.01l-.52-.52,78.12.25,22.83.15h8.41-8.1l-22.83.15-78.49.25h-.52v-37.55h0c-.12.1,1.02-1.04.54-.56l109.34.19h.35v.35c0,11.62-.15,20.9-.19,27.36,0,3.11,0,5.54-.1,7.24v1.85c-.19.69-.21.89-.21.87Z"/>
    <rect class="cls-6" x="512.8" y="935.32" width="109.34" height="37.05"/>
    <path class="cls-8" d="M622.22,972.38c-.02-.22-.02-.44,0-.66v-9.26c0-6.39-.1-15.61-.19-27.13l.35.37-109.34.19.54-.54h0v37.01l-.52-.52,78.12.25,22.83.15h8.2c-.17.02-.33.02-.5,0h-7.6l-22.83.15-78.49.25h-.6v-37.55h0c-.12.1,1.04-1.04.54-.56l109.34.19h.35v.35c0,11.62-.15,20.9-.19,27.36v9.09c.04.29.03.58-.02.87Z"/>
    <rect class="cls-6" x="628.76" y="935.32" width="109.34" height="37.05"/>
    <path class="cls-8" d="M738.1,972.38c-.02-.22-.02-.44,0-.66v-9.26c0-6.39-.12-15.61-.21-27.13l.37.37-109.34.19c-.48.48.64-.66.54-.54h0v37.01l-.52-.52,78.12.25,22.83.15h8.41-8.12l-22.83.15-78.47.25h-.52v-37.55h0c-.12.1,1.02-1.04.54-.56l109.34.19h.23v.35c0,11.62-.15,20.9-.21,27.36v9.09c-.03.29-.09.59-.17.87Z"/>
    <rect class="cls-6" x="745.05" y="935.32" width="114.69" height="37.05"/>
    <path class="cls-8" d="M859.74,972.38c-.02-.22-.02-.44,0-.66v-9.24c0-6.37,0-15.59-.19-27.15l.35.35-114.69.21.54-.54h0v37.01l-.52-.52,81.91.25,24.02.15h8.76-8.53l-23.89.15-82.27.25h-.52v-37.55h0c1.08-1.1.31-.31.54-.56l114.69.21h.35v.33c0,11.65-.15,20.92-.21,27.38v9.07c-.09.3-.21.59-.35.87Z"/>
    <rect class="cls-6" x="169.37" y="935.2" width="109.34" height="37.05"/>
    <path class="cls-8" d="M278.7,972.25v-2.59c0-1.74,0-4.15-.1-7.35,0-6.39-.1-15.59-.19-27.11l.35.35-109.32.19c-.5.48.64-.66.52-.54h0v37.01l-.52-.52,78.14.25,22.83.15h7.85c.19-.03.37-.03.56,0h-8.1l-22.83.15-78.49.25h-.56v-37.55h0c-.12,0,1.04-1.04.56-.54l109.32.17h.37v.37c0,11.6-.15,20.88-.19,27.34v9.09c-.03.31-.1.61-.21.89Z"/>
    <rect class="cls-6" x="111.89" y="935.41" width="53.08" height="37.05"/>
    <path class="cls-8" d="M164.97,972.46c-.02-.24-.02-.48,0-.73v-2.08c0-1.83,0-4.34-.12-7.49,0-6.52-.12-15.71-.23-26.84l.44.44h-53.08c-.12.1,1.02-1.04.54-.54h0v37.03l-.5-.5,38.13.25,10.96.12h3.99-3.78l-10.84.15-38.47.23h-.5v-37.51h0l.54-.54,53.08.1h.44v.44c0,11.25-.17,20.53-.23,27.11v9.32c-.04.37-.17.73-.37,1.04Z"/>
    <path class="cls-3" d="M590.02,275.07s18.68,5.73,26.34,13.93,44.9,74.54,44.9,74.54c0,0,7.18,7.91,10.86,12.46,2.57,3.13,4.46,9.45,5.54,13.8.79,3.15-.39,6.47-2.99,8.43-9.69,7.27-33.5,20.14-43.47,26.78-2.59,1.72-6.08,1.01-7.8-1.57-.02-.04-.05-.07-.07-.11-3.59-5.69-9.01-14.84-9.01-18.31-.21-3.76-1.15-7.45-2.76-10.86l-21.3-38.84-.25-80.25Z"/>
    <path class="cls-9" d="M675.86,421.34c-4.15-17.23-7.72-27.59-7.72-27.59-18.33,0-32.86,8.68-39.11,25.91h0s4.94,9.2,9.26,19.01c2.62,6,10.38,26.99,10.38,26.99l35.29,3.26s-3.24-27.11-8.1-47.58Z"/>
    <path class="cls-4" d="M688.65,483.8l1.31-31.68c-16.88-5.34-35.06-4.88-51.65,1.31,0,0,9.67,21.15,7.33,33.21l-6.35,9.96c-2.01,1.28-3.83,2.83-5.42,4.61-10.63,1.85-20.07,13.14-20.07,13.14l16.88.15-4.48,10.03-5.07,12.58c-.55,1.37-.04,2.94,1.22,3.72,2.57,1.73,6.01,1.32,8.1-.98l11.38-21.19s-11.67,29.06-2.26,29.87c5.46.48,6.83-4.77,16.15-26.82,0,0-5.5,28.54,3.38,28.56,7.83,0,6.79-12.33,9.28-19.89.44,4.63,0,13.68,5.9,14.2s5.31-15.05,7.12-19.58,10.71-16.46,10.71-16.46c1.85-4.14,2.05-8.83.56-13.12l-4.01-11.62Z"/>
    <path class="cls-8" d="M675.86,509.08c-.69,1.1-1.44,2.17-2.26,3.18-1.75,2.53-3.06,5.34-3.86,8.3-.79,3-1.08,6.11-.83,9.2.22,1.28.36,2.58.42,3.88-.66-1.16-1.06-2.46-1.16-3.8-.49-3.19-.31-6.45.52-9.57.82-3.12,2.29-6.03,4.3-8.55.77-1.07,1.75-1.97,2.89-2.64Z"/>
    <path class="cls-8" d="M662.93,506.16c-1.01,2.5-2.23,4.91-3.65,7.2h0c-1.73,3.23-2.85,6.75-3.3,10.38-.72,4.45-1.21,8.93-1.47,13.43-.03,1.88-.18,3.75-.46,5.6-.33-1.86-.44-3.76-.31-5.65.04-4.55.43-9.09,1.18-13.58.47-3.77,1.7-7.41,3.63-10.69h0c1.29-2.34,2.76-4.58,4.38-6.71Z"/>
    <path class="cls-8" d="M650.22,504.77c-1.27,1.23-2.44,2.56-3.51,3.96-1.97,2.64-3.18,7.04-4.77,11.85-1.6,4.82-2.91,8.8-4.05,12.31-.48,1.73-1.11,3.42-1.89,5.04.18-1.79.57-3.55,1.16-5.25.87-3.22,2.18-7.62,3.74-12.46.79-2.41,1.56-4.71,2.35-6.77.68-1.87,1.63-3.63,2.84-5.21,1.02-1.53,2.45-2.74,4.13-3.49Z"/>
    <path class="cls-8" d="M646.36,485.69c-.54,1.57-1.24,3.08-2.08,4.5l-5.46,10.61c-2.43,5.14-5.3,10.05-8.57,14.7.54-1.57,1.23-3.09,2.08-4.53,1.58-3.09,3.45-6.68,5.48-10.67,4.3-8.39,8.26-14.88,8.55-14.61Z"/>
    <path class="cls-8" d="M682.42,482.93c0,.35-7.24-1.04-16.19-.77-8.95.27-16.07,1.97-16.15,1.64,1.47-.66,3.02-1.12,4.61-1.37,7.59-1.6,15.4-1.8,23.06-.6,1.6.14,3.17.51,4.67,1.1Z"/>
    <path class="cls-8" d="M663.32,367.16c0,.21-3.49.69-8.91,2.37-3.17.97-6.26,2.17-9.26,3.57-7.37,3.46-14.12,8.12-19.95,13.8-2.38,2.31-4.59,4.79-6.62,7.41-3.47,4.48-5.17,7.58-5.36,7.47.29-.78.66-1.52,1.1-2.22.44-.87.93-1.71,1.47-2.51.64-1.1,1.33-2.17,2.08-3.2,1.97-2.73,4.16-5.3,6.54-7.68,2.93-2.89,6.1-5.54,9.47-7.91,3.4-2.32,6.99-4.35,10.73-6.06,3.07-1.38,6.24-2.52,9.49-3.43,1.37-.42,2.66-.64,3.76-.89.94-.23,1.9-.4,2.86-.5.85-.19,1.72-.27,2.59-.23Z"/>
    <path class="cls-8" d="M687.15,455.28c0,.46-9.98-3.11-22.67-2.66-5.39.26-10.75.95-16.03,2.08-2.18.55-4.39.96-6.62,1.22,0,0,.58-.31,1.7-.64,1.12-.33,2.74-.81,4.75-1.33,5.29-1.36,10.7-2.18,16.15-2.43,5.47-.17,10.95.39,16.27,1.66,2.08.52,3.65.98,4.75,1.39.59.15,1.16.39,1.68.71Z"/>
    <g class="cls-11">
      <path class="cls-2" d="M602.31,307.35c-3.32,20.28-3.76,34.54-8.3,53.97,6.48-7.06,8.97-14.82,9.65-24.58.79-9.82.34-19.69-1.35-29.39Z"/>
    </g>
    <path class="cls-8" d="M600.53,317.05c-.03,2.39-.25,4.78-.64,7.14-.56,4.4-1.41,10.48-2.47,17.15-1.06,6.66-2.08,12.73-3.05,17.06-.44,2.08-.85,3.92-1.16,5.13-.13.64-.33,1.26-.6,1.85.18-2.39.52-4.77,1.02-7.12.75-4.67,1.68-10.57,2.74-17.08s2.08-12.46,2.76-17.08c.3-2.38.77-4.73,1.41-7.04Z"/>
  </g>
  <g id="freepik--Plants--inject-2">
    <path class="cls-4" d="M311.73,856.07c5.33,2.53,9.39,7.13,11.25,12.73,1.81,5.56,2.32,11.46,1.49,17.25-1.27,11.21-7.64,22.5-14.53,31.45-9.42-8.3-11.58-22.59-12.23-29.93-1.02-11.62,4.15-33.21,13.97-31.49"/>
    <path class="cls-4" d="M320.95,935.97c-1.31-6.51.97-13.22,5.98-17.58,5.04-4.25,11.58-6.29,18.14-5.67,3.05-.03,5.95,1.27,7.95,3.57,1.49,2.45,1.54,5.52.12,8.01-1.43,2.44-3.48,4.46-5.94,5.85-8.18,5.13-17.02,8.59-26.26,5.81"/>
    <path class="cls-8" d="M308.87,970.3c.03-.78.14-1.55.33-2.3.29-1.62.69-3.7,1.14-6.23,1.05-6.92,3.22-13.63,6.41-19.87,3.33-6.22,8.25-11.45,14.26-15.15,1.83-1.09,3.78-1.95,5.81-2.57.55-.17,1.1-.31,1.66-.42.2-.03.4-.03.6,0-2.71.93-5.31,2.13-7.78,3.57-5.8,3.78-10.57,8.95-13.85,15.05-3.15,6.14-5.38,12.72-6.62,19.51-.56,2.62-1.04,4.73-1.39,6.23-.13.74-.33,1.47-.58,2.18Z"/>
    <path class="cls-8" d="M309.22,872.88c.07.33.11.66.12,1,0,.75,0,1.7.17,2.89.12,2.51.27,6.12.42,10.63.29,8.97.52,21.36.46,35.06-.06,13.7-.39,26.09-.75,35.06-.19,4.48-.37,8.12-.52,10.61,0,1.18-.15,2.08-.21,2.89.01.34-.03.69-.12,1.02-.03-.34-.03-.68,0-1.02v-2.89c0-2.62.17-6.23.27-10.63.21-8.97.46-21.36.52-35.04s0-26.09-.23-35.06c0-4.4-.12-8.01-.17-10.63v-2.89c-.02-.33,0-.67.04-1Z"/>
    <path class="cls-4" d="M304.61,942.8c-2.32-13.76-11.12-25.57-23.64-31.72-3.16-1.52-7.27-2.51-9.86-.17s-2.08,6.56-.75,9.82c5.66,13.83,19.08,22.89,34.02,22.98"/>
    <path class="cls-8" d="M282.52,921.62c.71.23,1.41.53,2.08.87.77.36,1.52.77,2.24,1.2.85.54,1.89,1.06,2.89,1.81,1.15.76,2.25,1.6,3.3,2.49,1.22.99,2.39,2.05,3.49,3.18,2.54,2.59,4.77,5.46,6.66,8.55,1.85,3.12,3.32,6.45,4.38,9.92.47,1.51.84,3.05,1.12,4.61.27,1.37.45,2.76.56,4.15.17,1.27.12,2.41.17,3.4.06.85.06,1.7,0,2.55,0,.73-.09,1.46-.25,2.18-.19,0,.15-3.11-.42-8.08-.14-1.35-.35-2.68-.64-4.01-.3-1.53-.69-3.04-1.16-4.53-1.1-3.39-2.57-6.65-4.38-9.72-1.86-3.04-4.03-5.87-6.48-8.45-1.16-1.16-2.28-2.26-3.4-3.2s-2.2-1.76-3.2-2.51c-4.19-2.93-7.04-4.21-6.95-4.44Z"/>
    <path class="cls-8" d="M706.13,891.17c.82.82,1.58,1.7,2.26,2.64,1.41,1.72,3.32,4.34,5.54,7.66,2.58,3.9,4.96,7.93,7.12,12.08,5.32,10.18,9.32,21,11.89,32.2,1.06,4.56,1.88,9.18,2.45,13.83.46,3.96.71,7.18.77,9.42.08,1.15.08,2.31,0,3.47-.24-1.13-.38-2.29-.42-3.45-.19-2.22-.56-5.42-1.12-9.34s-1.43-8.59-2.66-13.7c-2.66-11.08-6.63-21.82-11.81-31.97-2.39-4.67-4.73-8.78-6.87-12.12s-3.92-6.02-5.25-7.83c-.71-.91-1.35-1.87-1.91-2.89Z"/>
    <path class="cls-8" d="M750.49,872.8c0,.34-.05.69-.15,1.02-.19.77-.39,1.72-.64,2.86-.6,2.47-1.37,6.08-2.2,10.55s-1.66,9.84-2.32,15.82-1.06,12.58-1.14,19.51.25,13.56.75,19.53,1.22,11.38,2.08,15.86,1.43,8.12,1.97,10.61l.58,2.86c.1.34.14.69.12,1.04-.14-.31-.25-.64-.33-.98l-.79-2.84c-.66-2.45-1.47-6.06-2.32-10.57s-1.62-9.86-2.22-15.88-.89-12.66-.83-19.66.58-13.6,1.25-19.62,1.6-11.38,2.55-15.84,1.81-8.05,2.53-10.5l.85-2.82c.1-.64.23-.98.27-.95Z"/>
    <path class="cls-8" d="M784.3,902.34c-.51.86-1.1,1.67-1.74,2.43-.58.73-1.29,1.66-2.08,2.78s-1.7,2.32-2.59,3.76c-2.16,3.34-4.13,6.8-5.87,10.38-4.27,8.74-7.16,18.1-8.55,27.73-.57,3.93-.89,7.9-.95,11.87v4.57c0,1.35,0,2.51.15,3.47.1.98.1,1.97,0,2.95-.27-.95-.43-1.94-.48-2.93-.17-1.15-.28-2.31-.33-3.47,0-1.35-.21-2.89-.17-4.61-.04-4.01.21-8.02.75-12,.67-4.86,1.72-9.67,3.16-14.37,1.47-4.69,3.3-9.25,5.48-13.66,1.83-3.6,3.91-7.07,6.23-10.38.93-1.43,1.91-2.64,2.74-3.72s1.58-2.08,2.22-2.68c.62-.78,1.3-1.49,2.06-2.14Z"/>
  </g>
</svg>