<?xml version="1.0" encoding="UTF-8"?>
<svg id="Layer_2" data-name="Layer 2" xmlns="http://www.w3.org/2000/svg" viewBox="0 0 1000 1000">
  <defs>
    <style>
      .cls-1 {
        fill: #ff9a6c;
      }

      .cls-1, .cls-2, .cls-3, .cls-4, .cls-5, .cls-6, .cls-7, .cls-8, .cls-9, .cls-10, .cls-11, .cls-12, .cls-13, .cls-14 {
        stroke-width: 0px;
      }

      .cls-2, .cls-12 {
        fill: #000;
      }

      .cls-3 {
        fill: #e0e0e0;
      }

      .cls-4 {
        fill: #455a64;
      }

      .cls-5 {
        fill: #f5f5f5;
      }

      .cls-6 {
        fill: #09f;
      }

      .cls-7 {
        fill: #035;
      }

      .cls-8 {
        fill: #ebebeb;
      }

      .cls-9 {
        fill: #263238;
      }

      .cls-10 {
        fill: #ffbf9d;
      }

      .cls-11 {
        fill: #6f4439;
      }

      .cls-15, .cls-12 {
        opacity: .3;
      }

      .cls-12 {
        isolation: isolate;
      }

      .cls-13 {
        fill: #fff;
      }

      .cls-14 {
        fill: #ae7461;
      }
    </style>
  </defs>
  <g id="freepik--background-complete--inject-2">
    <rect class="cls-3" x="792.86" y="222.73" width="185.35" height="268.64"/>
    <rect class="cls-5" x="783.57" y="222.73" width="185.35" height="268.64"/>
    <rect class="cls-13" x="806.59" y="251.82" width="139.29" height="210.45"/>
    <path class="cls-3" d="M945.88,462.27v-15.55c0-10.09-.07-24.79-.11-43.35,0-37.11-.14-89.66-.23-151.55l.45.47h-139.26l.51-.51c0,79.38,0,152.6-.1,210.45l-.41-.4,101.38.21,28.01.1h9.89-9.74l-27.91.1-101.64.21h-.4v-.41c0-57.85,0-131.05-.1-210.45v-.5h140.25v.45c-.1,62.02-.17,114.67-.23,151.85,0,18.53-.1,33.19-.13,43.25v14.39c0,.69-.26,1.23-.26,1.23Z"/>
    <path class="cls-3" d="M969.43,222.73c-.95,1.7-2.06,3.3-3.3,4.79-2.15,2.84-5.2,6.8-8.69,11.04-3.49,4.24-6.75,7.98-9.16,10.65-1.23,1.51-2.6,2.9-4.08,4.15,1.04-1.64,2.23-3.18,3.53-4.62l8.93-10.83,8.92-10.83c1.16-1.56,2.45-3.01,3.86-4.35Z"/>
    <path class="cls-13" d="M946.59,461.53c6.93,11.02,15.08,21.21,24.3,30.39"/>
    <path class="cls-3" d="M970.89,491.98c-1.54-1.14-2.97-2.43-4.25-3.86-3.22-3.29-6.28-6.74-9.16-10.33-2.88-3.6-5.57-7.34-8.07-11.21-1.12-1.56-2.07-3.23-2.84-4.99,1.25,1.44,2.39,2.98,3.42,4.59,2.04,2.84,4.92,6.79,8.26,10.97,3.35,4.18,6.55,7.85,8.9,10.49,1.35,1.35,2.59,2.8,3.73,4.34Z"/>
    <path class="cls-13" d="M783.54,491.16l24.28-29.95"/>
    <path class="cls-3" d="M807.83,461.21c.21.17-5.05,7.02-11.75,15.3-6.71,8.28-12.32,14.83-12.53,14.66s5.05-7.09,11.75-15.3c6.71-8.21,12.3-14.83,12.53-14.66Z"/>
    <path class="cls-3" d="M783.57,222.73c.21-.17,5.5,6.14,11.78,14.08,6.28,7.94,11.21,14.54,11,14.71s-5.5-6.12-11.79-14.08c-6.29-7.95-11.2-14.54-10.99-14.71Z"/>
    <rect class="cls-3" x="855.85" y="294.56" width="46.64" height="132.42"/>
    <rect class="cls-3" x="147.15" y="222.73" width="185.35" height="268.64"/>
    <rect class="cls-5" x="137.87" y="222.73" width="185.35" height="268.64"/>
    <rect class="cls-13" x="160.89" y="251.82" width="139.29" height="210.45"/>
    <path class="cls-3" d="M300.18,462.27v-15.55c0-10.09-.07-24.79-.13-43.35,0-37.11-.13-89.66-.23-151.55l.47.47h-139.28l.51-.51c0,79.38-.09,152.6-.11,210.45l-.4-.4,101.38.21,28.01.1h9.89-9.74l-27.91.1-101.64.21h-.4v-.41c0-57.85-.07-131.05-.1-210.45v-.5h140.07v.45c-.09,62.02-.17,114.67-.23,151.85,0,18.53-.09,33.19-.11,43.25v14.39c0,.69-.07,1.23-.07,1.23Z"/>
    <path class="cls-3" d="M323.72,222.73c-.95,1.7-2.06,3.3-3.3,4.79-2.15,2.84-5.22,6.8-8.69,11.04-3.47,4.24-6.76,7.98-9.17,10.65-1.22,1.51-2.59,2.9-4.07,4.15,1.04-1.64,2.23-3.18,3.53-4.62l8.93-10.83,8.9-10.83c1.16-1.56,2.46-3.01,3.87-4.35Z"/>
    <path class="cls-13" d="M300.89,461.53c6.93,11.02,15.08,21.21,24.3,30.39"/>
    <path class="cls-3" d="M325.18,491.98c-1.55-1.14-2.97-2.43-4.25-3.86-3.23-3.28-6.29-6.73-9.17-10.33-2.87-3.6-5.57-7.34-8.07-11.21-1.12-1.56-2.07-3.23-2.84-4.99,1.25,1.44,2.39,2.98,3.42,4.59,2.04,2.84,4.92,6.79,8.26,10.97,3.35,4.18,6.55,7.85,8.9,10.49,1.35,1.35,2.6,2.8,3.74,4.34Z"/>
    <path class="cls-13" d="M137.84,491.16l24.27-29.95"/>
    <path class="cls-3" d="M162.11,461.21c.23.17-5.03,7.02-11.74,15.3-6.71,8.28-12.32,14.83-12.53,14.66s5.05-7.09,11.75-15.3c6.71-8.21,12.3-14.83,12.52-14.66Z"/>
    <path class="cls-3" d="M137.87,222.73c.21-.17,5.49,6.14,11.78,14.08,6.29,7.94,11.21,14.54,10.99,14.71s-5.49-6.12-11.78-14.08c-6.29-7.95-11.21-14.54-10.99-14.71Z"/>
    <rect class="cls-3" x="210.15" y="294.56" width="46.64" height="132.42"/>
    <rect class="cls-8" x="384.64" y="483.73" width="68.96" height="18.24"/>
    <path class="cls-3" d="M424.51,521.2c-.01-.11-.01-.22,0-.33v-4.52c0-3.16-.07-7.68-.11-13.4l.21.21-68.96.14c.16-.16-.35.35.34-.35h0v18.22l-.35-.34,49.03.24,14.5.1h5.34c-.11.01-.22.01-.33,0h-4.95l-14.43.09-49.39.16h-.34v-18.57h0l.35-.35,68.96.14h.21v.21c0,5.77-.1,10.33-.13,13.52v4.44c.02.13.03.26.03.4Z"/>
    <rect class="cls-8" x="657.83" y="536.44" width="68.96" height="18.24"/>
    <path class="cls-3" d="M697.64,573.89c0-.11,0-.22,0-.33v-4.52c0-3.16,0-7.68-.11-13.4l.21.21-68.96.14.35-.35h0v18.23l-.48-.35,49.15.16,14.5.1h5.32-5.15l-14.43.1-49.39.16h-.34v-18.37h0c.71-.69.2-.18.35-.35l68.96.14h.21v.21c0,5.77-.09,10.33-.11,13.52v4.44c0,.24-.07.28-.09.27Z"/>
    <rect class="cls-8" x="907.89" y="726.24" width="68.96" height="18.24"/>
    <path class="cls-3" d="M947.7,763.7v-4.86c0-3.15,0-7.67-.13-13.38l.21.21-68.96.14c.16-.16-.35.34.35-.35h0v18.22l-.34-.34,49.15.16,14.52.1h4.95c.12-.01.24-.01.35,0h-5.15l-14.43.1-49.39.16h-.34v-18.56h0l.35-.35,68.96.14h.23v.21c0,5.76-.1,10.33-.13,13.51v4.44c0,.23-.2.47-.21.47Z"/>
    <rect class="cls-8" x="647.2" y="210" width="68.96" height="18.24"/>
    <path class="cls-3" d="M687.01,247.48c-.01-.11-.01-.22,0-.33v-4.52c0-3.16-.07-7.68-.13-13.4l.23.21-68.96.14c.16-.16-.35.35.34-.35h0v18.24l-.35-.34,49.15.16,14.52.1h5.32-5.16l-14.43.1-49.39.16h-.34v-18.41h0l.37-.35,68.96.14h.21v.21c0,5.77-.1,10.33-.13,13.52v4.44c-.06.1-.12.2-.2.28Z"/>
    <rect class="cls-8" x="37.56" y="405.55" width="68.96" height="18.24"/>
    <path class="cls-3" d="M77.36,443.02v-4.86c0-3.15,0-7.67-.13-13.38l.21.21-68.96.14.35-.35h0v18.22l-.34-.34,49.15.16,14.52.1h5.3-5.15l-14.43.1-49.39.16h-.34v-18.56h0l.35-.35,68.96.14h.23v.21c0,5.76-.1,10.33-.13,13.51v4.45c0,.24-.2.54-.21.45Z"/>
    <path class="cls-3" d="M510.99,303.72c-.01-.11-.01-.22,0-.33v-4.54c0-3.15,0-7.67-.13-13.38l.13.28-68.96.14c.16-.16-.35.34.34-.35h0v18.22l-.35-.34,49.15.16,14.52.1h5.32-5.16l-14.43.1-49.39.16h-.34v-18.43h0c.71-.71.2-.2.37-.35l68.96.14h.21v.21c0,5.76-.1,10.33-.13,13.51v4.44c-.03.09-.06.18-.1.27Z"/>
    <path class="cls-3" d="M520.29,285.47v-4.98c0-3.2-.09-7.71-.14-13.27l.26.26-41.44.09c-.31.33.43-.43.35-.34h0v18.24l-.34-.34,29.64.16,8.63.1h3.16c-.25.02-.5.02-.75,0h-2.25l-8.51.09-30.05.28h-.34v-18.43h0l.35-.35,41.44.1h.26v.26c0,5.67-.1,10.19-.14,13.42v3.6c-.02.38-.06.75-.13,1.12Z"/>
    <path class="cls-3" d="M88.89,753.99c-.01-.11-.01-.23,0-.34v-4.52c0-3.15,0-7.68-.11-13.38l.21.21-68.96.14.35-.35h0v18.22l-.34-.34,49.15.16,14.5.1h5.23-5.19l-14.43.1-49.39.16h-.35v-18.36h0l.35-.35,68.96.14h.21v.21c0,5.76-.09,10.33-.11,13.51v4.44c-.02.09-.05.18-.09.27Z"/>
    <path class="cls-3" d="M98.25,735.75c-.02-.12-.02-.24,0-.35v-4.62c0-3.2,0-7.71-.13-13.27l.26.24-41.44.1.34-.34h0v18.22l-.34-.34,29.66.16,8.63.1h3.16c-.25.02-.5.02-.75,0h-2.27l-8.51.09-29.87.16h-.33v-18.54h0l.35-.35,41.44.1h.01v.26c0,5.67-.1,10.19-.13,13.42v3.6c0,.88-.09,1.4-.1,1.39Z"/>
    <path class="cls-3" d="M100.56,247.82c-.01-.11-.01-.22,0-.33v-4.54c0-3.15-.07-7.67-.11-13.38l.21.21-68.96.14c.16-.16-.35.34.34-.35h0v18.24l-.45-.34,49.16.16,14.5.1h5.32c-.11.01-.22.01-.33,0h-4.83l-14.42.1-49.4.16h-.34v-18.39h0l.35-.35,68.96.14h.21v.21c0,5.76-.1,10.33-.13,13.51v4.45c-.02.09-.05.17-.09.26Z"/>
    <path class="cls-3" d="M109.9,229.58v-4.98c0-3.2,0-7.71-.13-13.27l.24.26-41.44.1c-.31.31.43-.44.35-.35h0v18.22l-.34-.34,29.64.16,8.63.1h3.16c-.25.02-.5.02-.75,0h-2.25l-8.51.09-29.87.16h-.51v-18.34h0l.35-.35,41.44.1h.26v.26c0,5.67-.1,10.19-.13,13.42,0,1.52,0,2.72-.07,3.6,0,.4-.02.8-.09,1.19Z"/>
    <path class="cls-3" d="M721.82,365.04v-4.86c0-3.15,0-7.68-.11-13.38l.21.21-68.96.14.35-.35h0v18.22l-.34-.34,49.15.16,14.5.1h4.95c.12-.01.25-.01.37,0h-5.15l-14.43.1-49.39.16h-.34v-18.56h0l.35-.35,68.96.14h.21v.21c0,5.76-.09,10.33-.11,13.51v4.44c-.04.17-.12.33-.23.47Z"/>
    <path class="cls-3" d="M777.06,725.95c-.01-.11-.01-.23,0-.34v-4.52c0-3.15,0-7.68-.11-13.38l.21.21-68.96.13.34-.34h0v18.22l-.34-.34,49.15.16,14.5.09h5.32-5.16l-14.42.1-49.39.16h-.35v-18.34h0l.35-.35,68.96.14h.21v.21c0,5.76-.1,10.33-.11,13.51v4.44c-.06.09-.13.18-.2.27Z"/>
    <path class="cls-8" d="M364.65,672.94c8.11-4.18,17.63-4.72,26.64-3.23,4.83.79,9.92,2.24,13.16,5.87,3.23,3.63,3.91,10.02.14,13.14-2.25,1.86-5.39,2.13-8.31,2.1-7.09-.09-14.84-1.32-20.47,2.92-3.2,2.41-5.34,6.44-9.19,7.61-3.84,1.18-7.98-1.05-9.92-4.44-1.83-3.53-2.23-7.62-1.12-11.44.9-5.36,4.26-10,9.07-12.53Z"/>
    <path class="cls-8" d="M346.09,637.11c4.95,7.09,14.57,4.72,19.04.41s6.35-10.58,8.08-16.54c3.91-13.64,7.87-27.95,4.96-41.83-.71-4.2-2.56-8.12-5.34-11.34-2.88-3.24-7.26-4.7-11.51-3.84-4.85,1.29-7.87,6.04-10.05,10.56-6.43,13.36-9.79,27.98-9.85,42.8,0,6.89.79,14.18,4.68,19.85"/>
    <path class="cls-8" d="M333.04,669.8c5.39-6.38,6.41-15.69,4.01-23.69-2.4-8-7.8-14.8-14.03-20.36-7.33-6.53-15.86-11.56-25.12-14.83-3.6-1.45-7.47-2.1-11.34-1.91-3.9.21-7.44,2.33-9.47,5.67-2.65,5.03-.11,11.16,2.62,16.15,4.84,8.79,10.35,17.2,16.5,25.13,4.95,6.38,10.62,12.66,18.16,15.59,7.54,2.93,15.37,2.54,19.36-2.69"/>
    <path class="cls-3" d="M345.75,743.83c.27-1.05.42-2.13.45-3.22l.85-8.77c.44-4.32,1.1-8.61,1.97-12.86,1.15-5.18,2.71-10.26,4.68-15.2,1.92-4.92,4.53-9.55,7.75-13.74,2.62-3.41,5.98-6.2,9.81-8.15,2.6-1.29,5.39-2.16,8.26-2.58,1.08-.05,2.14-.2,3.19-.45-1.08-.13-2.17-.13-3.25,0-2.98.23-5.9.98-8.62,2.24-4.03,1.9-7.57,4.72-10.33,8.22-3.36,4.25-6.08,8.97-8.05,14.02-1.99,5-3.54,10.17-4.64,15.44-.83,4.3-1.4,8.65-1.72,13.03-.28,3.73-.38,6.75-.44,8.83-.09,1.06-.06,2.13.07,3.19Z"/>
    <path class="cls-3" d="M346.36,737.08c.08-.49.11-.99.09-1.49v-4.25c0-3.7,0-9.06.2-15.68.33-13.23,1.42-27.47,3.66-47.55,2.08-18.88,4.89-40.84,7.84-55.13.62-3.25,1.26-6.17,1.87-8.73.61-2.57,1.05-4.78,1.53-6.56.48-1.79.74-3.06.99-4.14.15-.46.23-.94.26-1.42-.22.45-.39.93-.51,1.42l-1.23,4.1c-.55,1.77-1.12,3.97-1.76,6.52-.64,2.55-1.42,5.47-2.07,8.7-3.66,16.89-6.4,33.97-8.24,51.16-2.2,20.12-3.19,38.43-3.29,51.7-.07,6.63.07,11.99.24,15.71.1,1.73.18,3.13.26,4.25,0,.47.06.93.17,1.39Z"/>
    <path class="cls-3" d="M347,724.3c.12-1.48.12-2.97,0-4.45-.17-2.84-.55-7-1.42-12.08-.98-5.93-2.29-11.8-3.93-17.59-1.93-7.11-4.39-14.07-7.36-20.81-5.11-12.42-12.43-23.82-21.6-33.62-1.59-1.69-3.28-3.27-5.07-4.73-.78-.65-1.42-1.32-2.18-1.83s-1.42-.95-1.97-1.42c-1.19-.9-2.44-1.7-3.74-2.41-.21.3,5.32,3.54,12.29,10.97,8.9,9.91,16.03,21.28,21.09,33.6,2.92,6.7,5.39,13.59,7.4,20.63,1.68,5.73,3.07,11.55,4.17,17.42.92,5.02,1.42,9.11,1.79,11.95.07,1.47.25,2.94.54,4.38Z"/>
    <polygon class="cls-3" points="311.53 728.36 315.06 776.86 377.37 776.86 380.91 728.36 311.53 728.36"/>
    <rect class="cls-3" x="305.51" y="709.26" width="82.84" height="19.12"/>
    <polygon class="cls-8" points="305.51 775.02 305.51 780.3 309.41 780.3 386.98 780.3 386.98 775.02 305.51 775.02"/>
    <polygon class="cls-3" points="313.22 789.63 309.41 780.3 384.01 780.3 379.56 789.63 313.22 789.63"/>
    <path class="cls-5" d="M381.77,728.04c0,.21-15.59.38-34.86.38s-34.87-.17-34.87-.38,15.59-.4,34.87-.4,34.86.2,34.86.4Z"/>
    <path class="cls-5" d="M384.92,780.83c0,.21-17.01.4-37.89.4s-37.89-.18-37.89-.4,17.01-.38,37.89-.38,37.89.17,37.89.38Z"/>
  </g>
  <g id="freepik--Table--inject-2">
    <path class="cls-9" d="M991.84,789.63c0,.21-217.84.37-486.5.37s-486.55-.16-486.55-.37,217.8-.37,486.55-.37,486.5.17,486.5.37Z"/>
  </g>
  <g id="freepik--character-1--inject-2">
    <path class="cls-9" d="M232.27,427.09c1.47,1.77,3.33,3.19,5.42,4.14-1.63,1.68-3.84,2.67-6.18,2.78,6.31,14.69,23.39,22.36,39.36,22.38,15.97.03,31.27-6.1,46.07-12.12l43-11.36c3.76-.88,5.3-5.48,5.24-9.36-.07-3.87-1.01-7.91.3-11.53,1.89-4.97,7.64-7.63,9.61-12.57,2.23-5.62-1.24-11.87-5.24-16.4-3.99-4.53-8.81-8.85-10.12-14.76-1.16-5.43.92-11.56-1.79-16.4-3.34-5.97-12.09-6.71-16.15-12.21-1.91-2.67-2.58-6.14-4.53-8.82-3.31-4.57-9.7-5.75-15.3-5.14-5.6.6-10.99,2.64-16.62,3.05-7.72.56-15.69-1.94-23.12.3-8.17,2.46-13.15,9.73-18.46,16.74l-1.7-3.57c-1.83-3.84-3.9-7.93-7.66-9.92-1.95-.96,8.56,15.71,6.41,16.03-1.15,1.32.43.35-1.15,1.83-1.53,1.53-.38-.97-.88,1.14-.5,2.11.75-1.02-.66.84-1.27,1.67.24-.29-1.04,1.24,0,1.32-2.35.1-.23.57-2.6.64,2.64.48,0,0-1.42,1.39-2.97,2.65-4.62,3.76-2.91,1.9-6.24,3.21-8.74,5.63-5.37,5.1-4.88,15.01.94,19.63-2.96,1.03-5.52,2.98-7.28,5.58-1.77,2.59-2.65,5.69-2.52,8.82.16,3.36,1.58,6.62,2.62,9.91,1.03,3.29,1.68,6.92.31,10.08-1.36,3.15-5.38,5.33-8.38,3.64.56,2.24,1.61,4.32,3.08,6.09Z"/>
    <path class="cls-10" d="M258.94,393.45l7.31,108.59-28.93,12.18,77.97,46.78,21.26-42.46-3.02-34.23s28.51-4.95,28.35-33.48c-.09-13.79-2.55-42.16-5.09-67.8-2.72-27.58-26.16-48.44-53.87-47.93h-2.75c-29.66,2.27-44.28,28.72-41.24,58.36Z"/>
    <path class="cls-1" d="M334.24,491.69c-28.42,3.08-38.01-17.78-38.01-17.78,19.38,11.72,37.38,10.31,37.38,10.31l.62,7.47Z"/>
    <path class="cls-9" d="M345.32,410.16c-.21-2.13-2.11-3.7-4.24-3.49-2.21.11-3.92,1.97-3.86,4.18,0,.02,0,.04,0,.06.19,2.15,2.1,3.74,4.25,3.55,2.2-.12,3.91-1.97,3.86-4.18,0-.04,0-.08,0-.11Z"/>
    <path class="cls-9" d="M349.32,394.84c-1.87-1.31-4.11-1.99-6.39-1.94-2.31.03-4.55.77-6.42,2.11-1.38,1.05-1.89,2.01-1.64,2.25.48.52,3.67-1.72,8.05-1.81s7.5,2.14,8,1.59c.26-.24-.23-1.19-1.59-2.2Z"/>
    <path class="cls-9" d="M306.83,412.08c-.21-2.13-2.11-3.7-4.24-3.49-2.21.11-3.92,1.97-3.86,4.18,0,.03,0,.07,0,.1.21,2.13,2.11,3.7,4.24,3.49,2.2-.11,3.91-1.96,3.86-4.17,0-.04,0-.08,0-.11Z"/>
    <path class="cls-9" d="M306.24,396.43c-1.87-1.31-4.11-1.98-6.39-1.93-2.31.02-4.55.75-6.42,2.1-1.39,1.05-1.89,2.01-1.64,2.25.48.52,3.66-1.73,8.04-1.81,4.38-.09,7.51,2.14,8.01,1.6.26-.24-.23-1.2-1.59-2.21Z"/>
    <path class="cls-9" d="M331.53,430.65c.64-.01,1.28-.11,1.9-.3.83-.25,1.49-.86,1.81-1.66.3-1.5.07-3.05-.67-4.39-1.05-2.69-2.17-5.53-3.32-8.51-4.82-12.05-9.13-21.66-9.61-21.48s3.02,10.11,7.84,22.17c1.2,2.99,2.37,5.81,3.46,8.51.6.99.88,2.15.81,3.3-.17.77-1.22,1.01-2.34,1.15-4.39.65-7.09,1.18-7.09,1.42.03.26,2.78.18,7.2-.21Z"/>
    <path class="cls-9" d="M309.33,379.1c-2.04-1.22-4.36-1.89-6.73-1.93-2.4-.08-4.79.47-6.92,1.59-1.66.91-2.45,1.93-2.27,2.48.45,1.13,4.34.28,8.96.37s8.41,1.2,8.96.09c.26-.54-.45-1.59-2-2.59Z"/>
    <path class="cls-9" d="M349.08,376.45c-2.15-1.24-4.6-1.89-7.09-1.87-2.51-.06-5,.54-7.2,1.76-1.59.98-2.15,1.98-1.77,2.48.86,1.02,4.54.28,8.89.21s8,.94,8.9-.07c.4-.5-.13-1.52-1.73-2.51Z"/>
    <path class="cls-10" d="M265.26,442.41c0,.55-19.38,5.56-20.34-13.93-.55-10.99,5.32-14.12,10.63-14.71.12-.01.25-.02.38-.03,4.27-.22,7.91,3.06,8.13,7.33.48,8.17,1.2,20.8,1.2,21.35Z"/>
    <path class="cls-1" d="M260.09,436.27c-.87.68-2,.92-3.08.67-2.85-.67-5.05-4.25-5.37-8.17-.15-1.88.16-3.77.91-5.5.5-1.58,1.79-2.79,3.4-3.19.66-.12,1.34.02,1.9.4.4.29.69.7.82,1.18.2.81-.09,1.18-.2,1.15s0-.43-.3-.95c-.39-.74-1.25-1.09-2.04-.84-1.21.46-2.12,1.48-2.42,2.74-.6,1.56-.85,3.24-.71,4.9.26,3.52,2.15,6.71,4.25,7.36.83.27,1.74.2,2.52-.18.57-.3.81-.55.89-.55.07.04-.01.48-.58.99Z"/>
    <path class="cls-9" d="M322.43,446.21c-2.74.31-5.49-.46-7.67-2.15-2.27-1.77-3.85-4.28-4.45-7.09-.44-2.08-.09-3.5.23-3.5.69-.11,1.35,5.07,5.67,8.39,4.32,3.32,9.11,2.23,9.23,2.95.11.33-.91,1.13-3.01,1.4Z"/>
    <path class="cls-9" d="M264.05,434.42c3.54-10.98,5.85-22.31,6.88-33.8.96-11.82-.67-24.14-6.64-34.39-.64-1.07,2.54-11.28,1.31-11.4-1.74-.17-6.9,10.76-7.5,12.4-4.04,10.75-4.36,22.59-2.74,33.94,1.62,11.35,5.12,22.34,8.66,33.25"/>
    <path class="cls-9" d="M342.49,351.88s-1.68,3.36-8.56,8.47c-4.79,3.55-22.87-2.28-33.46-6.2-3.29-1.22-6.84-1.54-10.29-.93-3.45.61-6.68,2.13-9.35,4.4-.56.46-1.08.98-1.54,1.53-2.03,2.58-2.17,6.2-1.47,9.41.71,3.21,2.16,6.19,3.04,9.35,1.62,5.81,1.31,11.95.97,17.97-.42,8.47-.99,17.29-5.24,24.63-1.99,3.43-6.27,6.83-9.67,3.11-1.35-1.59-2.03-3.65-1.88-5.73.3-5.75-4.7-8.44-7.32-12.64-2.08-3.4-2.5-7.64-2.5-11.57-.21-13.09,2.33-26.4,8.81-37.8,6.48-11.4,17.02-17.53,29.66-20.94,10.5-2.83,27.79.62,39.07,5.85,7.46,3.51,16.51,13.52,13.43,15.17l-3.7-4.07Z"/>
    <path class="cls-9" d="M267.89,350.59c7.41-1.93,15.23-1.6,22.45.94,6.73,2.4,12.7,6.64,19.41,9.07,8,2.88,13.22,4.03,21.31,1.41l.37-.22c5.41-2.12,7.89-8.98,6.39-14.58-1.51-5.6-6.1-9.95-11.22-12.68-9.62-5.16-21.4-5.48-31.87-2.16-10.42,3.34-19.5,10.09-26.83,18.22Z"/>
    <path class="cls-4" d="M262.98,346.54c1.77-1.41,3.73-2.56,5.82-3.43,2.58-1.12,5.39-1.63,8.21-1.47,5.07.53,9.84,2.63,13.65,6.01,1.14,1,2.17,2.12,3.06,3.35.62.88,1.01,1.32.82,1.45-.18.13-1.53-1.81-4.45-4.12-3.78-3.02-8.33-4.9-13.13-5.45-2.62-.14-5.24.3-7.67,1.31-2.03.79-3.95,1.82-5.73,3.06-3.06,2.12-4.58,3.93-4.74,3.78-.14-.07,1.16-2.12,4.15-4.5Z"/>
    <path class="cls-4" d="M266.39,373.73c6.86,7.84,15,10.93,14.78,11.3-1.83-.38-3.58-1.08-5.17-2.07-8-4.37-14.24-11.38-17.63-19.84-1.24-3.23-1.57-5.39-1.43-5.39.43-.17,2.59,8.17,9.45,16.01Z"/>
    <path class="cls-4" d="M250.8,368.64c1.65,6.11,4.66,11.76,8.82,16.52,4.16,4.76,9.35,8.51,15.18,10.97,4.46,1.87,7.43,2.4,7.43,2.62-.7.02-1.41-.07-2.08-.26-1.92-.38-3.8-.91-5.63-1.61-6.1-2.3-11.53-6.07-15.81-10.98-4.28-4.91-7.28-10.81-8.72-17.16-.44-1.91-.72-3.85-.82-5.8-.09-.72-.07-1.44.08-2.15.26,0,.26,3.04,1.54,7.85Z"/>
    <path class="cls-10" d="M175.97,751.2c3.89,12.58,6.84,25.42,8.83,38.43h34.96s2.38-48.99,0-65.63c-2.38-16.64-3.71-15.83,0-32.89,3.71-17.05,6.96-62.51,6.96-62.51l-4.86-20.71-41.82-2.03h-2.03c2.44,1.19,3.66,64.56,0,76.32-3.66,11.84-8.52,47.9-2.04,69.02Z"/>
    <path class="cls-7" d="M334.71,496.63s.62,23.94-31.19,27.27c-26.78,2.84-37.23-23.15-37.23-23.15,0,0-57.75,24.51-70.88,34.02-13.13,9.51-31.54,89.19-29.77,93.32s51.12-2.96,51.12-2.96l8.9,36.86,2.92,127.58h184.07s-11.65-131.14-11.65-131.14c0,0,5.94-33.88,7.73-33.88s41.61-4.15,45.18-7.67c3.57-3.52-31.82-86.6-32.69-88.57-4.14-9.43-86.51-31.68-86.51-31.68Z"/>
    <path class="cls-9" d="M203.97,570.35c.16.52.35,1.16.6,1.94.5,1.7,1.19,4.17,2.01,7.22,1.66,6.11,3.84,14.59,6.08,23.96,2.24,9.37,4.11,17.9,5.4,24.1.6,3.09,1.09,5.61,1.42,7.34.14.81.26,1.47.35,2.01.03.23.03.47,0,.71-.11-.22-.18-.44-.23-.68-.13-.55-.28-1.19-.48-1.97-.43-1.84-.99-4.31-1.69-7.3l-5.67-24.1c-2.28-9.31-4.34-17.75-5.87-23.99-.74-3.03-1.33-5.46-1.79-7.29-.18-.78-.33-1.45-.45-1.98-.07-.22-.11-.46-.11-.69.03-.01.27.2.43.72Z"/>
    <path class="cls-9" d="M411.16,562.2c-.04.57-.09,1.28-.16,2.14-.16,1.97-.37,4.62-.64,7.87-.48,6.63-1.2,15.83-1.9,25.97-.69,10.14-1.36,19.34-1.97,25.97-.3,3.32-.57,6.01-.79,7.85-.1.86-.2,1.56-.27,2.14-.02.25-.06.5-.14.74-.04-.25-.04-.5,0-.75.03-.58.13-1.29.13-2.15.14-1.96.33-4.62.57-7.87.45-6.75,1.03-15.83,1.74-25.98.71-10.15,1.45-19.32,2.13-25.96.34-3.32.62-6.01.86-7.85.11-.85.28-1.56.28-2.13.02-.25.08-.49.17-.72.03.25.03.49-.01.74Z"/>
    <path class="cls-10" d="M412.29,623.02l-11.21-15.81-18,26.45s20.97,51.13,28.07,61.45,19.89,18.46,30.41,21.87c10.52,3.42,17.61,1.43,20.74-10.5s8.8-14.22,7.39-32.96c-1.42-18.74-18.98-56.43-18.98-56.43l-38.4,5.93Z"/>
    <path class="cls-1" d="M401.62,607.77l1.42,1.83,5.19,6.8c2.2,2.86,4.81,6.28,7.74,10.04,3.12,4.11,6.45,8.05,9.99,11.81,1.83,1.91,3.87,3.62,6.08,5.09,2.13,1.25,4.42,2.21,6.8,2.84,4.55,1.29,8.85,1.97,12.26,3.25,2.75.9,5.29,2.34,7.46,4.25.57.53,1.1,1.11,1.57,1.73.17.21.32.44.44.68-.07.06-.68-.89-2.21-2.2-2.2-1.79-4.72-3.13-7.43-3.96-3.39-1.19-7.64-1.81-12.28-3.09-2.45-.61-4.8-1.56-6.99-2.84-2.27-1.48-4.36-3.22-6.24-5.17-3.56-3.78-6.9-7.76-10.01-11.92-2.92-3.78-5.44-7.22-7.61-10.14s-3.84-5.29-5-6.95l-1.32-1.91c-.17-.21-.31-.44-.41-.69.2.16.38.35.54.55Z"/>
    <path class="cls-10" d="M363.77,556.09c.65,2.32,2.84,3.76,4.76,5.26,1.93,1.5,3.94,3.35,3.94,5.76l14.73-1.86c-3.75-7.84-11.78-12.72-20.47-12.43-1.08-.11-2.15.33-2.84,1.18-.35.65-.39,1.41-.13,2.1Z"/>
    <path class="cls-4" d="M353.77,589.29c3.41,1.68,7.24,2.32,11.01,1.86,10.72-1.32,18.35-11.08,17.03-21.8-.01-.25-.03-.51-.06-.76-.75-6.53-6.65-11.21-13.18-10.45-3.61.25-7.17.99-10.58,2.21l-4.22,28.95ZM355.55,581.35l1.97-13.21c2.18-.57,4.55-1.93,6.83-1.98s4.79-.16,6.38,1.26c1.18,1.12,1.92,2.63,2.08,4.25.39,4.11-1.63,8.08-5.17,10.19-3.63,2.25-8.12,1.19-12.09-.51Z"/>
    <path class="cls-10" d="M383.9,635.67c-2.2-2.85-4.65-5.49-7.33-7.9-5.06-4.68-4.58-15.13-4.58-15.13l-8.65-3.97s-4.83-2.47-4.83-5.93c0-.11,0-.21,0-.32.06-2.8,2.39-5.02,5.19-4.96-6.01-5.53.4-10.45.4-10.45-2.76-1.43-4.35-4.41-4-7.5.55-4.25,6.49-5.49,6.49-5.49,0,0-3.25-1.09-3.25-6.86s11.54-7.2,19.48-5.4c7.94,1.8,19.51,5.03,20.92,8.65s-1.42,38.1-1.42,38.1l-18.43,27.13Z"/>
    <path class="cls-1" d="M368.09,573.91c2.64-.15,5.29-.15,7.94,0,2.64.11,5.28.37,7.9.78,1.1.09,2.18.33,3.22.71-1.1.04-2.19-.03-3.27-.2-2.01-.18-4.79-.37-7.87-.55s-5.87-.18-7.9-.18c-1.09.08-2.19.04-3.27-.11,1.06-.28,2.16-.43,3.26-.44Z"/>
    <path class="cls-4" d="M327.9,551.62c16.88.07,30.56,2.47,30.55,5.39s-13.71,5.23-30.59,5.17-30.55-2.47-30.55-5.39c.01-2.91,13.71-5.24,30.59-5.17Z"/>
    <path class="cls-4" d="M303.45,595.26c4.05,14.36,5.26,37.3,5.26,37.3,12.49,1.43,25.12,1.16,37.54-.81,0,0,1.36-21.56,5.81-34.22,4.45-12.66,6.39-40.53,6.39-40.53l-61.14-.3c.63,13.04,2.69,25.97,6.14,38.56Z"/>
    <path class="cls-1" d="M373.75,587.71c5.68.38,10.32.43,10.32.65-.98.23-1.99.33-3.01.31-1.87.04-4.48.01-7.34-.17s-5.44-.52-7.29-.82c-1.02-.09-2.02-.31-2.98-.65.03-.23,4.61.3,10.29.68Z"/>
    <path class="cls-1" d="M365.64,598.77c1.77.75,3.6,1.34,5.47,1.76,4.44,1.09,8.15,1.2,8.15,1.42-2.79.33-5.62.09-8.32-.68-1.94-.42-3.81-1.1-5.57-2.03-1.36-.74-1.91-1.56-1.91-1.56.09-.09.77.51,2.18,1.09Z"/>
    <path class="cls-1" d="M376.34,614.53c-1.49-.36-2.89-.99-4.15-1.86,1.51.18,2.98.56,4.38,1.15,1.48.35,2.92.91,4.25,1.64-1.54-.03-3.06-.34-4.48-.94Z"/>
    <path class="cls-9" d="M354.64,585.53c.44-3.09,1.06-6.95,1.57-11.23.51-4.28,1.02-8.17,1.42-11.26.13-1.56.39-3.12.78-4.64.04,1.57-.04,3.15-.26,4.71-.26,2.95-.67,6.95-1.25,11.34s-1.25,8.38-1.79,11.21c-.23,1.56-.59,3.1-1.08,4.59.09-1.59.29-3.17.6-4.73Z"/>
    <g class="cls-15">
      <path class="cls-2" d="M355.42,558.17c.01-2.62-12.33-4.79-27.54-4.85-15.21-.06-27.57,2.04-27.57,4.66,0,.64.69,1.26,2.11,1.83,4.04-1.74,14.06-2.96,25.62-2.92s21.38,1.29,25.52,3.02c1.23-.54,1.94-1.12,1.87-1.74Z"/>
    </g>
    <path class="cls-11" d="M353.62,559.93c-4.25-1.74-13.88-2.98-25.52-3.02s-21.58,1.16-25.62,2.92c4.17,1.73,13.96,3.02,25.43,3.02,11.64,0,21.58-1.19,25.7-2.92Z"/>
    <path class="cls-1" d="M368.29,561.66c.91-.37,1.86-.65,2.84-.84,3.29-.5,6.63-.5,9.92,0,3.29.43,6.52,1.21,9.64,2.32,1.31.4,2.57.98,3.73,1.72-.04.11-1.49-.48-3.9-1.22-3.13-.96-6.33-1.65-9.57-2.08-3.23-.47-6.51-.54-9.75-.2-2.55.33-3.97.98-3.97.85.32-.24.68-.43,1.06-.55Z"/>
    <g class="cls-15">
      <path class="cls-13" d="M302.61,559.9c8.39-2.01,16.99-2.99,25.62-2.92,7.58-.09,15.14.65,22.55,2.2,4-.81,2.48-9.03-.38-11.94s-7.16-3.77-11.16-4.51c-4-.74-8.29-1.7-11-4.75-.89-.85-1.4-2.02-1.42-3.25.13-2.28,2.71-3.6,4.96-3.88s4.69-.01,6.71-1.11c3.53-1.9,3.8-7.29,1.42-10.53-2.38-3.25-6.48-4.71-10.43-5.47-3.96-.77-8.05-1.03-11.74-2.67-2.84-1.29-5.57-4.07-4.83-7.09.58-1.56,1.56-2.93,2.84-4,1.29-1.06,2.1-2.59,2.25-4.25-.07-1.67-2.01-3.19-3.43-2.21-2.71,3.83-8.02,5-11.21,8.51-.02.02-.03.04-.05.06-3.91,4.71-3.25,11.7,1.46,15.61,2.15,1.63,5.27,2.96,5.36,5.67.06,2.27-2.24,3.91-4.45,4.38s-4.56.21-6.72.88c-.48.18-.95.4-1.39.66-4.09,2.42-5.45,7.69-3.03,11.78,1.6,1.99,3.61,3.61,5.9,4.76,2.27,1.15,4.16,2.93,5.46,5.12,1.06,2.37.55,5.56-1.77,6.62l-1.5,2.32Z"/>
    </g>
  </g>
  <g id="freepik--character-2--inject-4">
    <path class="cls-10" d="M561.46,750.83c3.89,12.58,6.84,25.42,8.83,38.43h34.96s2.38-48.99,0-65.63c-2.38-16.64-3.71-15.83,0-32.89,3.71-17.05,6.96-62.51,6.96-62.51l-4.86-20.71-41.82-2.03h-2.03c2.44,1.19,3.66,64.56,0,76.32-3.66,11.84-8.52,47.9-2.04,69.02Z"/>
    <path class="cls-6" d="M618.36,523.04s-24.59,8.27-38.05,18.95c-8.19,6.5-18.33,41.22-18.96,51.86-.63,10.63-10.91,79.94-10.34,83.09s45.44,9.77,57.34,6.3l11.9-3.47-1.9-156.73Z"/>
    <path class="cls-6" d="M551.74,667.38s-6.27,5.08-1.5,10.69c4.77,5.61,56.19,4.69,56.19,4.69l1.84-13.19-56.53-2.19Z"/>
    <path class="cls-9" d="M602.06,671.05c-.62-.06-1.22-.16-1.82-.28-1.15-.21-2.82-.5-4.9-.82-10.83-1.72-21.93-2.46-32.86-2.2-2.1.04-3.79.11-4.98.16-.6.04-1.21.06-1.83.04.58-.1,1.18-.16,1.79-.18,1.15-.09,2.83-.2,4.98-.27,10.97-.39,22.17.36,33.02,2.22,2.08.37,3.75.69,4.9.94.58.11,1.15.25,1.69.41Z"/>
    <polygon class="cls-9" points="609.13 789.63 609.13 765.41 788.79 763.69 791.28 789.63 609.13 789.63"/>
    <path class="cls-6" d="M782.98,698.45c1.76-19.21,11.06-172.94,7.51-177.96-3.54-5.02-60.36-17.42-60.36-17.42l-8.63-15.3-3.29-1.02-64.02,7.09-8.69,18.43-28.07,11.17s-20.3,30.34-17.9,51.03l5.34,107.54s.96,68.17-.37,91.28c-.22,3.64,1.55,7.11,4.62,9.07h181.45c10.92-2.18-9.41-64.7-7.6-83.91Z"/>
    <path class="cls-9" d="M675.28,780.02v-2.69c0-1.8,0-4.41-.09-7.74,0-6.75-.13-16.44-.23-28.42-.18-24.01-.44-57.18-.34-93.81.1-36.63.68-69.83,1.72-93.81.31-6,.61-11.43.86-16.19s.67-8.85.92-12.21.65-5.9.85-7.68c.1-.85.17-1.52.24-2s.1-.68.1-.68v.69c0,.45-.1,1.15-.17,2-.17,1.8-.4,4.38-.71,7.7-.31,3.32-.48,7.46-.79,12.21-.31,4.75-.48,10.19-.75,16.17-.91,23.99-1.42,57.16-1.5,93.8-.09,36.64.07,69.8.13,93.8v28.44c0,3.33,0,5.94-.07,7.74v2c-.14.47-.17.69-.17.69Z"/>
    <path class="cls-9" d="M730.13,503.07c-.22.25-.47.48-.72.69l-2.11,1.93c-1.87,1.67-4.54,4.15-7.85,7.29-3.32,3.13-7.3,6.9-11.96,10.94-5.08,4.54-10.6,8.54-16.49,11.96l-.21.11-.16-.13c-.25-.21-.47-.45-.65-.71-.18-.23-.34-.46-.5-.71-.33-.48-.6-.98-.91-1.42-.57-.99-1.13-2-1.69-3.02-1.11-2.05-2.21-4.14-3.32-6.27-1.55-2.99-3.06-5.94-4.59-8.75h.67l-4.03,10.29c-1.33,3.29-2.51,6.42-3.93,9.37l-.17.37-.33-.28-18.64-16.06c-2.2-1.94-3.96-3.47-5.2-4.56l-1.42-1.22c-.16-.13-.31-.29-.44-.45.18.11.35.23.51.37.35.3.82.68,1.42,1.15l5.33,4.42,18.81,15.86-.5.1c1.33-2.84,2.54-6.05,3.84-9.33s2.62-6.73,4-10.29l.28-.72.38.68c1.55,2.84,3.05,5.77,4.61,8.76l3.29,6.25c.55,1.02,1.12,2.01,1.69,3.01.51.94,1.12,1.82,1.81,2.64h-.37c5.85-3.38,11.35-7.34,16.42-11.81,4.68-4,8.68-7.74,12.05-10.82,3.37-3.08,6.1-5.51,8.01-7.09.95-.82,1.72-1.42,2.23-1.83.25-.28.53-.53.84-.74Z"/>
    <polygon class="cls-12" points="647.12 513.74 670.31 540.92 672.93 540.22 677.07 519.31 671.36 534.43 647.12 513.74"/>
    <path class="cls-12" d="M655.11,725.27s7.56,9.3,26.76,10.39,30.22-4.25,30.22-4.25h75.13s-1.49-14.96-2.55-14.96-127.58,7.46-127.58,7.46"/>
    <path class="cls-12" d="M764.48,587.53s3.19,36.63,7.09,47.05c3.9,10.42,14.53,22.44,14.53,22.44l-21.62-69.49Z"/>
    <path class="cls-10" d="M719.7,489.9l13.41-89.53c4.25-28.21-9.2-54.09-38.27-57.4l-2.71-.16c-27.29-1.52-51.2,17.58-54.96,43.94-3.49,24.47-7.09,51.54-7.64,64.73-1.28,27.33,26.58,33.16,26.58,33.16l-1.11,11.07,24.44,17.73,40.26-23.55Z"/>
    <path class="cls-1" d="M655.82,484.54c13.01.74,25.98-2.17,37.42-8.41,0,0-9.81,19.17-37.71,15.14l.28-6.73Z"/>
    <path class="cls-9" d="M644.98,412.09c-.12,2.14,1.49,3.99,3.63,4.15,2.1.3,4.05-1.16,4.35-3.26,0-.01,0-.02,0-.03.12-2.14-1.49-3.99-3.63-4.15-2.09-.31-4.04,1.14-4.34,3.23,0,.02,0,.04,0,.06Z"/>
    <path class="cls-9" d="M642.35,400.39c.47.54,3.64-1.42,7.97-1.23,4.32.18,7.34,2.54,7.85,2.04.24-.21-.21-1.16-1.53-2.21-1.81-1.37-3.99-2.16-6.25-2.25-2.24-.14-4.47.42-6.38,1.6-1.38.92-1.89,1.81-1.66,2.06Z"/>
    <path class="cls-9" d="M682.32,414.67c-.11,2.14,1.5,3.97,3.63,4.14,2.09.3,4.03-1.14,4.34-3.24,0-.03,0-.06.01-.1.12-2.14-1.49-3.99-3.63-4.15-2.09-.3-4.03,1.15-4.34,3.24,0,.04,0,.07-.01.11Z"/>
    <path class="cls-9" d="M684.77,403.56c.47.54,3.64-1.49,7.95-1.23s7.36,2.52,7.85,2.04c.24-.21-.2-1.16-1.53-2.21-1.81-1.37-3.99-2.16-6.25-2.27-2.24-.13-4.46.44-6.36,1.62-1.39.92-1.9,1.81-1.66,2.06Z"/>
    <path class="cls-9" d="M667.25,433.81c0-.24-2.62-.85-6.95-1.63-1.09-.17-2.13-.44-2.27-1.19-.03-1.11.3-2.21.92-3.13l3.74-7.98c5.22-11.34,9.06-20.72,8.59-20.92s-5.09,8.85-10.31,20.21l-3.6,8.02c-.79,1.27-1.08,2.78-.82,4.25.29.79.92,1.41,1.72,1.67.6.19,1.23.3,1.86.35,4.37.44,7.09.57,7.12.34Z"/>
    <path class="cls-9" d="M684.61,387.04c.35,1.16,4.71.86,9.72,1.74s9.06,2.45,9.78,1.42c.34-.47-.31-1.59-1.9-2.84-4.34-3.01-9.8-3.9-14.87-2.44-1.9.78-2.89,1.56-2.74,2.11Z"/>
    <path class="cls-9" d="M644.66,388.33c.71,1.01,3.74.18,7.31.34,3.57.16,6.56,1.01,7.33,0,.33-.47-.09-1.42-1.42-2.42-3.53-2.42-8.15-2.54-11.79-.3-1.26.95-1.74,1.9-1.43,2.38Z"/>
    <path class="cls-1" d="M679.49,440.67c.66,2.03,1.02,4.15,1.09,6.28.27,2.2-.69,3.76-2.1,5.5-1.55,1.81-3.82,2.85-6.21,2.84h-.07c-4.38.05-8.13-3.1-8.86-7.41l-.75-4.64c4.51-1.22,16.57-2.24,16.9-2.57Z"/>
    <path class="cls-9" d="M667.76,453.91c0-.09.57,0,1.53.16,1.35.2,2.72.2,4.07,0,1.94-.3,3.7-1.31,4.93-2.84,1.44-1.86,2.14-4.2,1.94-6.55-.11-1.3-.5-2.55-1.13-3.69l.6.3c-4.25.62-8.08,1.13-10.79,1.42-1.43.27-2.89.37-4.35.3,1.38-.49,2.8-.83,4.25-1.01,2.67-.51,6.42-1.15,10.73-1.84h.4l.2.34c1.95,3.73,1.52,8.26-1.09,11.55-1.45,1.66-3.48,2.71-5.67,2.92-1.43.14-2.87,0-4.25-.4-.5-.12-.96-.35-1.36-.67Z"/>
    <polygon class="cls-14" points="625.75 650.21 633.58 709.69 664.51 708.99 669.46 650.21 625.75 650.21"/>
    <rect class="cls-3" x="622.61" y="645.58" width="49.8" height="6.48"/>
    <path class="cls-3" d="M627.09,646.87c.11-.31,2.58-6.08,2.58-6.08l34.74-4.64,3.71,10.72h-41.04Z"/>
    <path class="cls-9" d="M672.41,645.58c0,.21-11.03.37-24.62.37s-24.62-.16-24.62-.37,11.01-.37,24.62-.37,24.62.17,24.62.37Z"/>
    <path class="cls-10" d="M703.55,691.9s-12.89-16-19.65-17.65c-5.39-1.04-10.88-1.47-16.36-1.28l-1.53,10.16s-31.75,1.16-35.24,1.98c-3.49.82-5.33,5.74-3.7,8,1.63,2.25,2.06,2.06,9.64,2.06s16.22,0,16.42,1.84.21,3.49-2.67,3.49-15.38,1.23-17.44.82-7.37,1.03-6.55,5.13c.82,4.1,6.55,6.97,9.63,6.78,1.29-.16,2.6-.16,3.9,0,0,0-1.02,7.39,6.15,7.78.91,2.09,2.72,3.65,4.92,4.25,3.9,1.23,24.82,6.36,34.48,6.17,9.65-.2,20.1-6.17,20.1-6.17l-2.1-33.37Z"/>
    <path class="cls-1" d="M655.11,712.01c-2.47.55-4.99.86-7.53.92-2.52.3-5.06.36-7.58.17,2.47-.54,4.99-.85,7.53-.91,2.52-.31,5.06-.37,7.58-.18Z"/>
    <path class="cls-1" d="M663.06,721.02c-.75-.37-1.56-.6-2.4-.67-1.55-.09-3.77.14-6.19.27-2.93.33-5.88.47-8.83.41,2.89-.66,5.83-1.05,8.79-1.15,2.09-.17,4.2-.17,6.29,0,1.69.17,2.44,1.09,2.34,1.13Z"/>
    <path class="cls-10" d="M703.55,691.9s43.86-4.47,54.79-7.26c15.86-4.04,42.4-16.08,42.4-16.08l17.01-8.34,30.59,15.24s.79,17.34-4.1,25.9c-5.32,8.67-13.8,14.93-23.65,17.46-9.16,2.24-114.95,6.44-114.95,6.44l-2.1-33.37Z"/>
    <path class="cls-6" d="M788.92,519.12s19.43,6.79,25.35,25.52c4.89,15.44,35.89,107.58,34.33,120.76,0,0,3.93,2.38,3.88,6.36,0,5.77-3.76,5.46-3.76,5.46-5.06-.38-45.7-9.27-57.44-4.59l-26.81-80.36c0-2.37,3.1-31.43,6.61-48.2,3.5-16.77,17.83-24.95,17.83-24.95Z"/>
    <path class="cls-9" d="M757.6,558.98c.09-.73.24-1.45.44-2.15.19-.83.42-1.66.69-2.47.34-.95.62-2.06,1.15-3.22.5-1.28,1.07-2.54,1.7-3.76.71-1.42,1.49-2.8,2.34-4.14,1.96-3.08,4.25-5.94,6.85-8.51,2.62-2.51,5.52-4.72,8.65-6.58,1.37-.8,2.79-1.52,4.25-2.15,1.25-.56,2.54-1.03,3.86-1.42,1.07-.38,2.17-.69,3.27-.94.83-.23,1.67-.4,2.52-.51.71-.14,1.44-.23,2.17-.26,0,.17-3.08.52-7.8,2.18-1.28.45-2.54.97-3.77,1.56-1.42.66-2.81,1.38-4.15,2.18-3.07,1.86-5.92,4.05-8.51,6.54-2.54,2.52-4.82,5.29-6.79,8.28-.86,1.42-1.7,2.74-2.35,4.05-.65,1.2-1.24,2.43-1.77,3.69-1.87,4.59-2.58,7.65-2.75,7.61Z"/>
    <path class="cls-9" d="M762.82,581.16c.13.3.24.61.31.92l.78,2.69c.68,2.41,1.62,5.77,2.84,9.92,2.37,8.34,5.78,19.85,9.8,32.41,4.01,12.56,7.8,23.97,10.52,32.19,1.33,4.07,2.42,7.37,3.2,9.77l.84,2.67c.11.3.2.62.24.94-.15-.29-.28-.58-.38-.89l-.96-2.62c-.84-2.37-2-5.67-3.43-9.68-2.84-8.18-6.71-19.53-10.72-32.14-4.01-12.6-7.37-24.1-9.61-32.5-1.12-4.18-2-7.58-2.55-9.92-.27-1.13-.47-2.03-.64-2.72-.11-.33-.18-.67-.23-1.02Z"/>
    <path class="cls-9" d="M844.51,665.45c-.71-.03-1.41-.14-2.1-.31-1.33-.26-3.26-.6-5.67-.95-12.51-1.91-25.26-1.76-37.72.44-2.4.41-4.32.79-5.67,1.08-.68.18-1.38.31-2.08.37.65-.29,1.33-.5,2.03-.65,1.3-.37,3.22-.84,5.67-1.32,12.5-2.48,25.35-2.63,37.91-.44,2.41.44,4.34.85,5.67,1.19.67.15,1.33.34,1.97.6Z"/>
    <path class="cls-9" d="M601.4,581.65c.01.11.01.23,0,.34v1.01c0,.94.11,2.21.2,3.83.17,3.39.43,8.19.72,14.09.69,11.95,1.64,28.35,2.69,46.48,1.05,18.13,2,34.59,2.58,46.5.26,5.9.45,10.7.61,14.09,0,1.62.09,2.91.11,3.84v.99c.02.11.02.23,0,.34-.02-.11-.02-.23,0-.34,0-.26,0-.58-.09-.99-.07-.95-.15-2.22-.26-3.83-.21-3.39-.5-8.18-.85-14.08-.72-11.95-1.7-28.35-2.84-46.48-1.13-18.13-1.97-34.59-2.48-46.5-.24-5.95-.41-10.77-.48-14.18v-4.83c.02-.1.04-.19.07-.28Z"/>
    <path class="cls-9" d="M632.04,323.49c11.17-2.08,21.58,8.76,33,7.82,6.95-.55,12.7-5.35,19.12-7.99,5.02-2.03,10.46-2.88,15.88-2.5,5.41.39,10.67,2,15.34,4.72,8.71,5.49,13.96,11.2,14.21,21.47,8.93-3.84,21.81,8.1,25.44,18.66,3.63,10.57,1.26,20.8-2.79,31.29-6.77,18.05-17.08,34.62-30.33,48.78-1.18,1.26-2.96,2.58-4.44,1.7-.45-.39-.81-.88-1.04-1.43-.22-.55-.31-1.14-.25-1.73-.51-10.02,1.93-19.9,3.91-29.76,1.98-9.86,3.58-20.01,1.45-29.84-2.12-9.82-8.66-19.21-18.4-22.26-7.37-1.85-15.16-1.09-22,2.17-6.95,2.88-13.24,7.08-19.91,10.49-6.53,3.78-14,5.72-21.58,5.63-7.51-.49-15.13-4.86-17.56-11.86-2.43-7,2.2-16.08,9.72-16.8-3.35-.69-6.36-2.5-8.5-5.12-2.15-2.62-3.3-5.89-3.28-9.26.03-3.37,1.24-6.62,3.42-9.2,2.19-2.59,5.22-4.35,8.58-4.99h0Z"/>
    <path class="cls-9" d="M642.99,349.29c3.58-5.03,8.38-9.1,13.96-11.86,11.81-6.51,25.42-9.18,38.87-7.63,13.49,1.63,25.8,8.36,34.34,18.74,6.5,8.52,10.32,18.72,10.97,29.35.94,11.61-.28,23.27-3.6,34.45-1.48,4.39-4.33,5.65-8.04,8.51-2.32,1.78-6,2.74-8.04.55-1.06-1.36-1.63-3.03-1.62-4.75-1.54-15.37-2.79-31.84,4.8-45.32-2.84-5.45-6.8-10.25-11.64-14.11-2.42-1.92-5.21-3.35-8.19-4.2-2.99-.85-6.12-1.11-9.2-.76-9.13,1.37-15.72,8.92-23.53,13.72-5.64,3.37-12.02,5.38-18.61,5.86-6.58.48-13.2-.59-19.28-3.11l8.83-19.43h0Z"/>
    <path class="cls-3" d="M754.72,390.38c0-.22-2.12-.27-5.39-.96-8.57-1.84-16.15-6.73-21.28-13.72-1.93-2.74-2.79-4.56-3.01-4.47.43,1.79,1.21,3.47,2.29,4.97,2.42,3.73,5.62,6.92,9.38,9.36,3.76,2.44,8,4.06,12.45,4.78,1.83.38,3.72.4,5.55.06h0Z"/>
    <path class="cls-3" d="M752.44,395.85c0-.22-2.09-.27-5.36-.96-8.58-1.82-16.17-6.71-21.28-13.72-1.95-2.74-2.79-4.56-3.01-4.47.41,1.79,1.19,3.48,2.29,4.97,2.42,3.73,5.62,6.92,9.38,9.36,3.76,2.44,8,4.06,12.45,4.78,1.82.36,3.7.38,5.53.06h0Z"/>
    <path class="cls-10" d="M727.03,426.7c.46-4.17,4.21-7.18,8.38-6.73.09.01.19.02.28.04,5.2.78,10.86,4,9.92,14.5-1.72,18.64-20.61,13.11-20.6,12.59s1.22-12.62,2.01-20.4Z"/>
    <path class="cls-1" d="M729.8,440.44c.09,0,.31.27.85.57.77.39,1.66.49,2.49.27,2.1-.55,4.08-3.53,4.49-6.88.19-1.6.02-3.22-.51-4.73-.26-1.23-1.12-2.24-2.28-2.71-.77-.28-1.63.03-2.06.72-.3.5-.21.88-.33.89s-.38-.34-.16-1.11c.15-.45.46-.84.86-1.09.57-.35,1.25-.46,1.9-.31,1.55.44,2.77,1.64,3.22,3.19.66,1.68.9,3.5.68,5.29-.47,3.76-2.84,7.09-5.67,7.63-1.07.2-2.17-.07-3.02-.75-.48-.51-.55-.95-.48-.98Z"/>
  </g>
</svg>