<?xml version="1.0" encoding="UTF-8"?>
<svg id="Layer_2" data-name="Layer 2" xmlns="http://www.w3.org/2000/svg" viewBox="0 0 1000 1000">
  <defs>
    <style>
      .cls-1, .cls-2, .cls-3, .cls-4, .cls-5, .cls-6, .cls-7, .cls-8, .cls-9, .cls-10, .cls-11, .cls-12, .cls-13 {
        stroke-width: 0px;
      }

      .cls-1, .cls-10, .cls-11 {
        fill: #000;
      }

      .cls-2 {
        fill: #e0e0e0;
      }

      .cls-3 {
        fill: #eb996e;
      }

      .cls-4 {
        fill: #455a64;
      }

      .cls-5 {
        fill: #f5f5f5;
      }

      .cls-6 {
        fill: #09f;
      }

      .cls-7 {
        fill: #ffbe9d;
      }

      .cls-8 {
        fill: #ebebeb;
      }

      .cls-9 {
        fill: #263238;
      }

      .cls-14, .cls-10, .cls-13 {
        opacity: .3;
      }

      .cls-10, .cls-11, .cls-13 {
        isolation: isolate;
      }

      .cls-11, .cls-15 {
        opacity: .4;
      }

      .cls-12, .cls-13 {
        fill: #fff;
      }
    </style>
  </defs>
  <g id="freepik--background-complete--inject-17">
    <path class="cls-5" d="M819.2,675.33s14.04,1.21,20.3,16.98c3.88,9.76,14.05,27.51,21.86,25.68l17.74-14.95c-6.58-6.49-11.65-14.35-14.87-23.02-4.55-13.2-23.2-24.56-23.2-24.56l-21.83,19.86Z"/>
    <path class="cls-2" d="M860.62,680.36c2.84,5.43.74,12.12-4.69,14.96-.47.25-.96.46-1.46.63-5.52,1.7-12.16-3.92-13.85-9.45-1.7-5.52,1.4-11.38,6.92-13.08,5.52-1.7,10.44,1.78,13.08,6.93Z"/>
    <path class="cls-5" d="M853.58,689.27c.15-.33.24-.68.27-1.04.05-.35.05-.7,0-1.04-.1-.53-.29-1.04-.56-1.51,1.31-1.08,2.48-2.1,3.4-2.94.44.53.83,1.04,1.1,1.43.44.6.73.94.88.88s.19-.51,0-1.28c-.22-.73-.52-1.44-.9-2.1.61-.63.93-1.06.86-1.16s-.53.11-1.23.54c-.09-.13-.11-.23-.21-.37s-.36-.36-.53-.53c.76-.76,1.18-1.27,1.1-1.43s-.73.24-1.7.88c-.28-.22-.58-.41-.9-.57-1.02-.51-2.19-.59-3.27-.23-1.27.46-2.21,1.54-2.51,2.85-.08.35-.11.71-.09,1.07.02.61.2,1.2.51,1.71-1.08.91-2.05,1.77-2.85,2.5-.27-.37-.51-.73-.73-1-.43-.61-.74-.94-.9-.87s-.16.51,0,1.27c.11.49.25.96.44,1.43,0,0,.1.14.13.21-.86.83-1.34,1.43-1.24,1.51s.71-.23,1.64-.84c.14.29.3.57.49.83l.23.23c-.23.27-.34.47-.29.53s.27,0,.63-.19c.44.44.96.79,1.53,1.03.51.22,1.07.33,1.63.3.63-.03,1.24-.22,1.77-.56.57-.38,1.02-.92,1.3-1.56ZM855.88,681.9s0,.09.1.11c-.96.68-2.11,1.57-3.34,2.57l-.27-.46-.07-.13c1.08-.9,2.08-1.74,2.85-2.5.25.12.49.25.73.4h0ZM852.71,680.98c.48-.18,1.01-.18,1.5,0-.74.54-1.54,1.17-2.4,1.85-.05-.21-.05-.42,0-.63.11-.5.44-.93.9-1.17v-.06ZM848.06,688.25c-.19-.17-.31-.36-.49-.54.83-.6,1.76-1.31,2.77-2.11l.36.59c-.94.81-1.77,1.56-2.43,2.18-.07-.06-.16-.07-.21-.11h0ZM849.56,689.1c-.15-.07-.29-.16-.43-.26.63-.44,1.34-.97,2.13-1.58.06.12.11.25.16.39.01.12.01.25,0,.37.02.1.02.21,0,.31-.08.22-.22.41-.41.54-.41.31-.95.4-1.44.23h0Z"/>
    <path class="cls-2" d="M851.9,710.32c-5.18-5.96-8.89-14.71-11.63-21.16-.67-1.61-1.31-3.12-1.9-4.41-3.91-8.56-13.85-10.49-14.67-10.2l-.43-.6,17.24-14.9.21.1c11,5.11,19.35,14.61,23.02,26.17,2.31,7.92,11.84,16.92,11.94,17.01l.3.29-16.18,13.54-.21-.09c-2.99-1.27-5.63-3.24-7.69-5.75ZM836.45,680.43c1.05,1.21,1.93,2.57,2.6,4.02.58,1.3,1.23,2.85,1.91,4.42,3.87,9.09,9.69,22.83,18.71,26.47l15.21-12.71c-1.68-1.64-9.67-9.66-11.84-17.05-3.55-11.31-11.67-20.62-22.39-25.68l-16.09,14.01c.7.09,1.39.24,2.07.44,3.77,1.09,7.17,3.19,9.83,6.08h0Z"/>
    <path class="cls-5" d="M538.53,691.68s-13.01,5.41-25.85-5.71c-7.95-6.85-25.17-17.91-31.25-12.67l-8.82,21.4c8.82,2.71,16.93,7.31,23.79,13.48,10.13,9.6,31.92,11.06,31.92,11.06l10.22-27.57Z"/>
    <path class="cls-2" d="M499.45,706.32c-5.03-3.49-6.29-10.39-2.81-15.43.32-.46.67-.89,1.05-1.3,4.12-4.05,12.6-2.13,16.65,1.98,4.06,4.11,4.02,10.73-.09,14.79,0,0,0,0,0,0-4.11,4.11-10.09,3.3-14.8-.06Z"/>
    <path class="cls-5" d="M501.56,695.17c.02.36.11.72.24,1.06.13.32.3.62.51.9.34.41.75.77,1.2,1.07-.67,1.57-1.23,3.01-1.64,4.19-.64-.27-1.23-.54-1.66-.76-.66-.34-1.07-.51-1.18-.39s.07.54.59,1.14c.52.55,1.11,1.03,1.76,1.43-.24.84-.34,1.43-.21,1.43s.41-.34.83-1.06c.14,0,.21.16.37.23.23.09.47.17.71.23-.33,1.03-.47,1.68-.34,1.74s.54-.56,1.1-1.57c.35.07.7.1,1.06.1,1.14-.02,2.22-.49,3.01-1.31.9-.99,1.25-2.37.91-3.67-.08-.35-.22-.69-.41-1-.18-.29-.39-.55-.63-.8-.19-.17-.4-.33-.61-.47.54-1.31,1.01-2.51,1.43-3.54l1.1.54c.68.34,1.1.49,1.21.36s-.1-.53-.61-1.11c-.31-.36-.65-.7-1.03-1,0,0-.14-.09-.2-.13.37-1.13.53-1.87.4-1.93s-.53.53-1.07,1.51c-.26-.2-.53-.37-.83-.51l-.3-.1c0-.36.09-.57,0-.6s-.24.13-.47.46c-.59-.18-1.21-.26-1.83-.21-.56.05-1.1.21-1.58.49-.54.32-.99.77-1.31,1.31-.35.59-.53,1.28-.5,1.97ZM502.99,702.77h-.16c.54-1.06,1.16-2.37,1.78-3.82l.46.29.1.07c-.54,1.3-1.03,2.51-1.43,3.57-.27-.02-.53-.05-.8-.1h.04ZM506.21,702.11c-.35.38-.82.63-1.33.71.4-.83.83-1.76,1.27-2.77.15.15.27.33.36.53.13.53,0,1.1-.34,1.53h.04ZM506.98,693.55c.24.07.44.17.67.26-.44.91-.94,1.97-1.43,3.15l-.6-.36c.47-1.16.87-2.2,1.16-3.05h.2ZM505.26,693.48c.17-.01.33-.01.5,0-.36.68-.74,1.43-1.16,2.38-.11-.07-.22-.16-.31-.26-.08-.1-.15-.2-.21-.31-.05-.1-.08-.2-.09-.31-.04-.23,0-.46.11-.66.2-.46.62-.78,1.11-.87l.04.03Z"/>
    <path class="cls-2" d="M493.33,675.72c7.35,2.85,14.68,8.95,20.09,13.4,1.34,1.11,2.61,2.15,3.72,3.02,7.42,5.79,17.12,2.85,17.72,2.28l.66.33-8.4,21.17h-.23c-12.14.55-23.95-4.03-32.53-12.63-5.71-5.95-18.32-9.53-18.45-9.56l-.4-.11,8.1-19.48h.23c3.24-.26,6.5.28,9.49,1.57ZM520.85,695.09c-1.49-.59-2.89-1.39-4.17-2.37-1.11-.87-2.38-1.93-3.72-3.04-7.63-6.28-19.13-15.77-28.84-14.84l-7.62,18.32c2.25.66,13.06,4.08,18.39,9.65,8.37,8.4,19.86,12.92,31.7,12.47l7.85-19.76c-.67.24-1.35.42-2.04.56-3.87.74-7.87.4-11.56-.98h0Z"/>
    <path class="cls-5" d="M944.4,309.5s-11.8,4.91-23.44-5.17c-7.13-6.22-22.83-16.24-28.35-11.41l-8,19.46c8,2.46,15.36,6.63,21.57,12.23,9.2,8.72,28.97,9.99,28.97,9.99l9.26-25.1Z"/>
    <path class="cls-2" d="M908.96,322.77c-4.55-3.12-5.72-9.33-2.6-13.88.3-.44.64-.85,1-1.24,3.74-3.68,11.41-1.94,15.11,1.8,3.68,3.73,3.64,9.74-.09,13.43-3.74,3.68-9.16,2.88-13.43-.1Z"/>
    <path class="cls-5" d="M910.87,312.64c.02.33.09.66.21.97.13.29.28.56.47.81.31.38.68.71,1.1.97-.61,1.43-1.13,2.74-1.51,3.8-.57-.23-1.1-.49-1.43-.68-.6-.3-.97-.46-1.08-.34s0,.49.53,1.04c.48.5,1.02.94,1.61,1.31-.23.76-.31,1.24-.2,1.28s.37-.31.74-.96c.13.07.2.14.34.21.21.08.42.15.64.2-.3.93-.43,1.53-.3,1.57s.49-.49.98-1.43c.32.07.64.09.97.09,1.03,0,2.02-.43,2.73-1.18.82-.9,1.13-2.16.83-3.34-.08-.31-.2-.61-.37-.88-.16-.27-.35-.52-.57-.74-.18-.16-.37-.3-.57-.43.5-1.18.93-2.28,1.27-3.21.37.19.71.37,1,.5.61.31,1,.44,1.08.31s-.09-.47-.54-1c-.28-.33-.59-.63-.93-.91l-.2-.11c.34-1.03.49-1.68.37-1.74s-.49.47-.97,1.43c-.23-.18-.48-.34-.74-.47l-.29-.09c.07-.33.09-.51,0-.56s-.21.13-.41.43c-.54-.17-1.11-.24-1.67-.2-.5.05-.99.2-1.43.44-.49.29-.89.7-1.18,1.18-.32.52-.48,1.12-.49,1.73ZM912.11,319.54h-.13c.49-.96,1.04-2.14,1.61-3.45l.41.24h.1c-.49,1.18-.93,2.28-1.28,3.24-.24,0-.48,0-.71-.03ZM915.05,318.95c-.31.35-.73.58-1.2.66.36-.76.74-1.6,1.16-2.51.13.14.24.31.31.49.13.47.03.98-.27,1.37ZM915.75,311.17c.21.06.41.14.61.23-.41.81-.87,1.78-1.34,2.85l-.54-.33c.43-1.04.78-1.98,1.06-2.77h.21ZM914.18,311.17c.15-.01.3-.01.46,0-.33.61-.67,1.34-1.06,2.15-.1-.07-.2-.15-.29-.23-.07-.09-.13-.19-.19-.3-.04-.08-.07-.18-.09-.27-.02-.21.01-.41.1-.6.19-.43.58-.74,1.04-.83v.07Z"/>
    <path class="cls-2" d="M903.41,295c6.66,2.63,13.31,8.12,18.22,12.16,1.23,1.01,2.37,1.95,3.38,2.74,6.73,5.27,15.55,2.65,16.08,2.07l.58.31-7.62,19.18h-.21c-11,.5-21.71-3.64-29.51-11.41-5.18-5.39-16.62-8.65-16.74-8.68l-.36-.1,7.35-17.68h.2c2.94-.22,5.9.26,8.62,1.41ZM928.44,312.58c-1.36-.53-2.63-1.26-3.78-2.15-1.01-.78-2.17-1.74-3.4-2.75-6.92-5.71-17.35-14.27-26.14-13.46l-6.92,16.61c2.04.6,11.83,3.71,16.68,8.76,7.6,7.6,18.03,11.67,28.77,11.24l7.13-17.92c-.6.21-1.22.38-1.84.5-3.51.71-7.15.42-10.5-.83Z"/>
    <path class="cls-5" d="M947.84,633.81s-8.56,8.38-22.09,3.74c-8.4-2.85-25.41-6.06-28.54,0l-.11,19.63c7.77-.67,15.6.36,22.93,3.02,11,4.28,28.54-1.43,28.54-1.43l-.73-24.97Z"/>
    <path class="cls-2" d="M921.83,657.68c-5.05-1.15-8.21-6.17-7.06-11.22.1-.45.23-.88.4-1.31,1.94-4.48,9.2-5.71,13.68-3.72,4.49,1.94,6.55,7.14,4.62,11.63,0,0,0,0,0,.01-1.93,4.49-6.88,5.74-11.63,4.61Z"/>
    <path class="cls-5" d="M919.95,648.22c.13.28.3.53.51.76.21.21.44.39.7.54.4.22.83.38,1.28.47v3.8c-.51,0-1.02-.02-1.53-.07-.63,0-1,0-1.06.09s.23.4.81.71c.59.27,1.22.46,1.85.57,0,.74.16,1.18.27,1.18s.21-.4.31-1.08c.12,0,.24,0,.36,0h.64c0,.9.16,1.43.29,1.43s.24-.6.36-1.57c.3-.07.59-.16.87-.27.88-.38,1.58-1.09,1.94-1.98.4-1.06.23-2.25-.44-3.17-.18-.24-.4-.46-.64-.64-.24-.17-.49-.31-.76-.43-.2-.08-.41-.14-.63-.19v-3.21l1.04.09c.64,0,1.03,0,1.06-.11s-.24-.37-.83-.68c-.36-.18-.73-.34-1.11-.46h-.21c-.07-1-.17-1.63-.29-1.63s-.26.57-.36,1.51c-.27-.07-.54-.12-.81-.14h-.27c0-.3-.11-.47-.19-.47s-.14.19-.21.51c-.52.04-1.04.17-1.51.4-.42.22-.79.53-1.08.9-.32.42-.53.91-.61,1.43-.09.59,0,1.19.24,1.73ZM923.43,653.76h-.13c.09-1,.16-2.21.19-3.55h.56v3.24c-.2.13-.4.24-.61.34v-.03ZM925.75,652.22c-.14.42-.43.77-.81.98.06-.79.1-1.65.13-2.57.17.07.32.17.44.3.29.37.38.86.24,1.31v-.03ZM923.64,645.24c.2-.01.41-.01.61,0-.07.86-.13,1.84-.16,2.94l-.58-.09v-2.77l.13-.09ZM922.22,645.74c.13-.06.27-.11.41-.14-.07.64-.11,1.43-.16,2.24-.1,0-.26,0-.33-.1-.1-.06-.19-.13-.27-.2-.07-.05-.13-.12-.16-.2-.1-.17-.15-.36-.13-.56.04-.43.29-.81.67-1.01l-.04-.03Z"/>
    <path class="cls-2" d="M907.32,635.62c6.69-.07,14.35,2.35,19.98,4.14,1.43.44,2.73.86,3.87,1.18,7.66,2.2,14.37-3.14,14.63-3.84l.63.07.11,19.26-.19.09c-9.34,4.27-20.05,4.42-29.51.41-6.36-2.85-17.39-1.67-17.51-1.66h-.34l.19-17.86.16-.09c2.48-1.21,5.23-1.8,7.99-1.71ZM935.06,642.09c-1.36.02-2.72-.17-4.02-.54-1.16-.33-2.48-.74-3.88-1.2-7.99-2.51-19.98-6.29-27.32-2.5l-.17,16.78c1.98-.2,11.53-.93,17.48,1.74,9.23,3.91,19.67,3.79,28.81-.33l-.11-17.99c-.45.4-.93.76-1.43,1.08-2.78,1.82-6.02,2.85-9.35,2.95Z"/>
    <path class="cls-5" d="M598.65,214s-1.36,14.01-17.19,20.12c-9.79,3.78-27.65,13.75-25.9,21.59l14.74,17.89c6.55-6.5,14.45-11.49,23.13-14.63,13.24-4.42,24.8-22.93,24.8-22.93l-19.58-22.04Z"/>
    <path class="cls-2" d="M593.12,255.36c-5.44,2.79-12.11.63-14.9-4.81-.25-.49-.46-.99-.64-1.51-1.64-5.54,4.05-12.11,9.59-13.75,5.55-1.63,11.37,1.55,13,7.09,0,.01,0,.03.01.04,1.67,5.48-1.87,10.36-7.06,12.94Z"/>
    <path class="cls-5" d="M584.29,248.23c.33.15.68.25,1.04.29.35.05.71.05,1.06,0,.53-.11,1.03-.29,1.5-.56,1.07,1.34,2.07,2.51,2.85,3.44-.53.44-1.04.81-1.43,1.08-.61.43-.94.71-.88.87s.5.2,1.27,0c.74-.2,1.45-.49,2.11-.87.63.61,1.04.94,1.16.86s-.11-.53-.54-1.21c.13-.1.24-.13.37-.23s.36-.34.54-.51c.74.76,1.26,1.2,1.43,1.11s-.23-.74-.87-1.7c.23-.28.42-.58.59-.9.52-1.01.62-2.19.27-3.27-.45-1.28-1.53-2.24-2.85-2.54-.35-.08-.71-.12-1.07-.1-.34.03-.67.08-1,.17-.25.09-.49.2-.71.33-.9-1.1-1.74-2.08-2.47-2.85l1.01-.71c.61-.43.94-.74.87-.9s-.51-.16-1.27,0c-.49.1-.96.25-1.43.43l-.2.13c-.83-.86-1.43-1.43-1.51-1.26s.21.71.83,1.64c-.29.14-.58.31-.84.5l-.23.21c-.27-.23-.46-.34-.53-.3s0,.29.19.63c-.44.44-.79.95-1.04,1.51-.22.52-.34,1.08-.33,1.64.03.62.22,1.23.54,1.77.39.58.94,1.03,1.58,1.3ZM591.7,250.6s-.07.08-.11.11c-.67-.97-1.54-2.13-2.53-3.38l.47-.26h.11c.88,1.08,1.73,2.08,2.47,2.93-.12.21-.26.41-.41.6ZM592.65,247.45c.16.46.16.96,0,1.43-.54-.74-1.16-1.56-1.83-2.43.2-.04.41-.04.61,0,.52.14.94.51,1.16,1h.06ZM585.45,242.72c.17-.17.35-.33.54-.47.59.81,1.28,1.76,2.08,2.85l-.6.36c-.8-.96-1.53-1.8-2.15-2.45,0-.14.01-.23.07-.29h.06ZM584.56,244.15c.07-.15.16-.3.26-.44.44.64.97,1.43,1.57,2.15-.13,0-.27.13-.39.16h-.68c-.22-.09-.41-.24-.54-.43-.29-.4-.37-.91-.21-1.37v-.07Z"/>
    <path class="cls-2" d="M563.27,246.33c6.01-5.12,14.8-8.73,21.27-11.41,1.61-.66,3.14-1.28,4.42-1.85,8.56-3.81,10.64-13.74,10.36-14.55l.61-.41,14.71,17.38-.1.21c-5.24,10.96-14.84,19.21-26.45,22.74-7.95,2.23-17.12,11.67-17.12,11.76l-.29.3-13.38-16.32.09-.2c1.31-2.99,3.33-5.61,5.88-7.63ZM593.32,231.19c-1.22,1.04-2.59,1.9-4.05,2.55-1.3.57-2.85,1.2-4.44,1.85-9.13,3.77-22.92,9.45-26.67,18.44l12.56,15.35c1.64-1.68,9.75-9.59,17.12-11.67,11.34-3.44,20.73-11.46,25.9-22.12l-13.74-16.24c-.11.7-.27,1.38-.47,2.05-1.13,3.77-3.28,7.15-6.21,9.77h0Z"/>
    <polygon class="cls-2" points="966.7 539.6 964.89 542.91 961.6 544.7 964.89 546.52 966.7 549.83 968.52 546.52 971.81 544.7 968.52 542.91 966.7 539.6"/>
    <polygon class="cls-2" points="862.43 225.16 860.62 228.47 857.31 230.28 860.62 232.08 862.43 235.39 864.23 232.08 867.54 230.28 864.23 228.47 862.43 225.16"/>
    <polygon class="cls-2" points="552.46 637.58 550.65 640.89 547.34 642.69 550.65 644.5 552.46 647.79 554.26 644.5 557.57 642.69 554.26 640.89 552.46 637.58"/>
    <polygon class="cls-2" points="469.32 614.03 465.72 620.6 459.16 624.19 465.72 627.79 469.32 634.35 472.91 627.79 479.47 624.19 472.91 620.6 469.32 614.03"/>
    <polygon class="cls-2" points="898.46 235.56 894.86 242.12 888.3 245.72 894.86 249.31 898.46 255.88 902.05 249.31 908.62 245.72 902.05 242.12 898.46 235.56"/>
  </g>
  <g id="freepik--Floor--inject-17">
    <path class="cls-9" d="M964.11,785.63c0,.2-209.52.37-467.91.37s-468.01-.17-468.01-.37,209.45-.43,467.91-.43,468.01.21,468.01.43Z"/>
  </g>
  <g id="freepik--Vault--inject-17">
    <rect class="cls-9" x="497" y="393.51" width="15.25" height="151.62"/>
    <ellipse class="cls-9" cx="311.52" cy="468.61" rx="138.13" ry="169.82"/>
    <rect class="cls-4" x="481.74" y="416" width="30.51" height="104.5"/>
    <rect class="cls-9" x="491.33" y="375.62" width="26.14" height="17.88"/>
    <rect class="cls-9" x="492.49" y="544.7" width="26.14" height="17.88"/>
    <ellipse class="cls-4" cx="353.2" cy="468.61" rx="138.13" ry="169.82"/>
    <ellipse class="cls-4" cx="362.84" cy="468.25" rx="106.47" ry="131.4"/>
    <path class="cls-9" d="M469.32,468.25s0-.64-.09-1.93,0-3.18-.19-5.71c-.38-7.26-1.24-14.49-2.55-21.65-.23-1.16-.46-2.35-.68-3.58l-.87-3.75c-.54-2.57-1.43-5.21-2.1-7.99-1.79-5.99-3.93-11.87-6.41-17.61-6.09-13.99-14.55-26.83-25.03-37.93-6.1-6.4-12.98-12-20.48-16.68-8.11-5.14-16.97-8.99-26.25-11.41-9.97-2.55-20.3-3.32-30.53-2.3-5.34.51-10.62,1.54-15.77,3.08-5.3,1.53-10.45,3.56-15.37,6.05-5.05,2.53-9.88,5.49-14.43,8.85-4.64,3.48-9.02,7.29-13.1,11.41-4.1,4.25-7.91,8.77-11.41,13.53-3.53,4.89-6.74,10-9.6,15.3-23.58,45.42-23.58,99.47,0,144.88,2.87,5.31,6.08,10.42,9.62,15.31,3.5,4.76,7.31,9.27,11.41,13.51,4.08,4.12,8.46,7.94,13.1,11.41,4.55,3.36,9.37,6.32,14.43,8.85,4.92,2.49,10.07,4.52,15.37,6.05,5.15,1.54,10.43,2.57,15.78,3.08,10.23,1.03,20.56.25,30.52-2.31,9.29-2.43,18.15-6.28,26.27-11.41,7.51-4.78,14.39-10.49,20.46-16.99,10.47-11.1,18.93-23.93,25.01-37.93,2.48-5.73,4.62-11.61,6.41-17.59.74-2.78,1.56-5.42,2.1-8,.3-1.27.59-2.53.87-3.74s.46-2.43.68-3.58c1.3-7.14,2.13-14.36,2.5-21.62.14-2.48.14-4.39.19-5.71s.09-1.94.09-1.94c0,0,0,2.63-.11,7.62-.32,7.28-1.14,14.52-2.43,21.69-.21,1.17-.44,2.37-.67,3.6s-.56,2.48-.86,3.77c-.53,2.57-1.33,5.22-2.07,8-1.78,6.01-3.9,11.91-6.36,17.68-6.07,14.06-14.54,26.96-25.03,38.13-6.11,6.47-13.02,12.15-20.55,16.89-8.15,5.19-17.05,9.09-26.38,11.57-10.03,2.59-20.44,3.38-30.75,2.35-5.39-.51-10.71-1.54-15.9-3.08-5.34-1.54-10.52-3.57-15.48-6.08-5.1-2.54-9.96-5.52-14.54-8.9-4.68-3.47-9.08-7.28-13.18-11.41-4.15-4.27-8-8.81-11.53-13.6-3.55-4.91-6.79-10.04-9.67-15.37-23.69-45.62-23.69-99.92,0-145.54,2.91-5.35,6.16-10.51,9.75-15.44,3.54-4.78,7.39-9.33,11.53-13.6,4.11-4.12,8.51-7.94,13.18-11.41,4.58-3.38,9.44-6.36,14.54-8.9,4.96-2.51,10.14-4.54,15.48-6.08,5.19-1.54,10.51-2.57,15.9-3.08,10.28-1.02,20.67-.23,30.68,2.34,9.35,2.46,18.26,6.36,26.41,11.54,7.53,4.74,14.44,10.42,20.55,16.89,10.49,11.16,18.95,24.06,25.01,38.13,2.47,5.76,4.6,11.66,6.38,17.66.74,2.85,1.53,5.44,2.07,8.02.29,1.28.57,2.54.86,3.75s.44,2.44.67,3.6c1.29,7.17,2.1,14.42,2.43,21.7.17,4.94.14,7.61.14,7.61Z"/>
    <ellipse class="cls-9" cx="391.24" cy="465.33" rx="62.44" ry="60.97"/>
    <path class="cls-9" d="M359.22,429.37h0c-3.63,3.98-9.8,4.27-13.78.64l-7.72-7.03c-3.98-3.63-4.27-9.8-.64-13.78h0c3.63-3.98,9.8-4.27,13.78-.64l7.72,7.03c3.98,3.63,4.27,9.8.64,13.78Z"/>
    <path class="cls-9" d="M391.94,411.45h0c-5.38,0-9.75-4.35-9.76-9.73h0v-10.46c0-5.39,4.37-9.76,9.76-9.76h0c5.38,0,9.75,4.36,9.75,9.75h0v10.46c0,5.38-4.36,9.75-9.75,9.75Z"/>
    <path class="cls-9" d="M430.66,428.01h0c-4.32-3.21-5.21-9.32-2-13.64,0,0,0-.01.01-.02l6.24-8.38c3.22-4.32,9.34-5.2,13.66-1.98h0c4.32,3.21,5.21,9.32,2,13.64,0,0,0,.01-.01.02l-6.24,8.36c-3.22,4.32-9.33,5.22-13.66,2Z"/>
    <path class="cls-9" d="M346.85,468.25h0c0,5.38-4.35,9.75-9.73,9.76h-10.46c-5.39,0-9.76-4.37-9.76-9.76h0c0-5.38,4.36-9.75,9.75-9.75h10.46c5.38,0,9.75,4.36,9.75,9.75Z"/>
    <path class="cls-9" d="M475.32,465.24h0c0,5.38-4.36,9.75-9.75,9.75h-10.46c-5.38,0-9.75-4.36-9.75-9.75h0c0-5.38,4.35-9.75,9.73-9.76h10.46c5.39,0,9.76,4.37,9.76,9.76Z"/>
    <path class="cls-9" d="M361.37,505.96h0c3.63,3.98,3.36,10.15-.61,13.78l-7.71,7.03c-3.97,3.64-10.13,3.37-13.77-.6,0,0,0-.01-.01-.02h0c-3.64-3.97-3.37-10.13.6-13.77,0,0,.01,0,.02-.01l7.71-7.03c3.97-3.64,10.13-3.37,13.77.6,0,0,0,.01.01.02Z"/>
    <path class="cls-9" d="M402.01,513.77h0c5.38-.26,9.94,3.89,10.2,9.27,0,0,0,0,0,0l.49,10.43c.27,5.37-3.87,9.93-9.24,10.2-.01,0-.02,0-.04,0h0c-5.38.27-9.95-3.88-10.22-9.25,0,0,0-.02,0-.02l-.49-10.43c-.25-5.38,3.91-9.95,9.29-10.2Z"/>
    <path class="cls-9" d="M434.3,500.77h0c3.63-3.98,9.8-4.27,13.78-.64l7.72,7.03c3.98,3.62,4.27,9.79.64,13.77v.02h-.01c-3.62,3.98-9.77,4.27-13.75.65,0,0-.02-.01-.02-.02l-7.72-7.03c-3.98-3.62-4.27-9.79-.64-13.77,0,0,0,0,0,0Z"/>
    <ellipse class="cls-4" cx="402.71" cy="465.63" rx="50.55" ry="56.8"/>
    <circle class="cls-8" cx="721.38" cy="473.74" r="160.64" transform="translate(-123.7 648.85) rotate(-45)"/>
    <path class="cls-2" d="M662.4,541.86v-62.51h56.79v-31.29h68.73v-64.21h65.51v45.49h22.52v-77.76l13.33,20.69s28.54,52.68-15,113.85c-43.53,61.17-125.88,96.54-211.87,55.75Z"/>
    <path class="cls-6" d="M578.38,423.04h63.08l8.99,19.35h39.14l13.13,16.12v53.71l14.92-1.36,13.21,13.2v48.36h-120.36s-59.33-50.7-32.12-149.38Z"/>
    <path class="cls-11" d="M578.38,423.04h63.08l8.99,19.35h39.14l13.13,16.12v53.71l14.92-1.36,13.21,13.2v48.36h-120.36s-59.33-50.7-32.12-149.38Z"/>
    <path class="cls-6" d="M673.29,612.45v-41.58h-37.46v-22.53h-19.98v-8.19h-29.02s26.27,55.03,86.45,72.3Z"/>
    <path class="cls-10" d="M673.29,612.45v-41.58h-37.46v-22.53h-19.98v-8.19h-29.02s26.27,55.03,86.45,72.3Z"/>
    <path class="cls-6" d="M657.09,609.17v-53.62h48.76v-26.84h58.93v-55.13h56.19v39.01h19.31v-66.65h17.75s18.12,62.92-19.18,115.4c-37.3,52.48-107.98,82.83-181.75,47.83Z"/>
    <path class="cls-6" d="M733.93,650.98v-60.83h54.81v-33.03h29.26v-11.99h42.39s-38.37,80.59-126.46,105.84Z"/>
    <path class="cls-13" d="M733.93,652.59v-60.83h54.81v-33.03h29.26v-11.99h42.39s-38.37,80.59-126.46,105.84Z"/>
    <path class="cls-4" d="M723.38,269.18c-110.17,0-199.48,89.31-199.48,199.48s89.31,199.48,199.48,199.48,199.48-89.31,199.48-199.48h0c0-110.17-89.31-199.48-199.48-199.48ZM717.09,618.99c-80.22,0-145.25-65.05-145.24-145.27,0-80.22,65.05-145.25,145.27-145.24,80.22,0,145.24,65.04,145.24,145.25s-65.03,145.25-145.25,145.25h-.01Z"/>
    <path class="cls-9" d="M723.38,316.83c-83.96,0-152.04,68.05-152.05,152.02h0c0,6.36.4,12.71,1.18,19.01-.44-4.64-.68-9.36-.68-14.13.08-80.14,65.12-145.05,145.26-144.96,80.14.08,145.05,65.12,144.96,145.26-.08,80.14-65.12,145.05-145.26,144.96-16.84-.02-33.54-2.96-49.37-8.71,78.09,30.87,166.42-7.42,197.29-85.51,30.87-78.09-7.42-166.42-85.51-197.29-17.78-7.03-36.73-10.64-55.84-10.64h.01Z"/>
    <circle class="cls-4" cx="803.5" cy="311" r="11.02" transform="translate(283.91 998.29) rotate(-74.07)"/>
    <path class="cls-9" d="M814.5,311c-.09,0,0-.97-.49-2.65-.64-2.36-2.06-4.43-4.02-5.88-1.33-1.01-2.88-1.68-4.52-1.97-1.88-.34-3.81-.17-5.61.49-1.98.72-3.7,2.02-4.94,3.72-2.76,3.74-2.76,8.84,0,12.58,1.24,1.71,2.96,3.01,4.94,3.74,5.62,2.04,11.83-.86,13.87-6.49.11-.29.2-.59.28-.89.46-1.67.4-2.65.49-2.65.04.24.04.48,0,.71,0,.68-.08,1.35-.24,2.01-.56,2.48-1.97,4.68-3.98,6.24-1.39,1.09-3.01,1.83-4.74,2.17-1.99.38-4.04.22-5.95-.46-2.12-.75-3.96-2.12-5.29-3.94-2.97-3.99-2.97-9.46,0-13.46,1.33-1.81,3.17-3.19,5.29-3.94,3.62-1.3,7.65-.66,10.69,1.7,2.01,1.56,3.41,3.77,3.98,6.25.17.66.25,1.33.24,2.01.04.23.04.47,0,.7Z"/>
    <path class="cls-9" d="M803.22,317.76s-.7-.6-1.31-1.91c-.77-1.75-1.03-3.69-.76-5.58.28-1.89,1.1-3.66,2.35-5.09.97-1.1,1.77-1.53,1.81-1.43s-.58.66-1.43,1.78c-2.18,2.91-2.75,6.72-1.51,10.14.5,1.28.94,2.03.84,2.08Z"/>
    <path class="cls-9" d="M810.79,312.91c-4.69-2.8-10.33-3.53-15.58-2.03.66-.48,1.43-.81,2.24-.96,1.91-.51,3.9-.63,5.86-.37,1.96.25,3.85.88,5.56,1.85.74.35,1.39.86,1.91,1.5Z"/>
    <circle class="cls-4" cx="674.12" cy="301.34" r="11.02" transform="translate(-63.96 279.5) rotate(-22.39)"/>
    <path class="cls-9" d="M685.14,301.35c-.09,0,0-.98-.49-2.65-.65-2.36-2.07-4.43-4.02-5.89-1.34-.99-2.88-1.67-4.52-1.97-1.88-.33-3.82-.16-5.61.5-1.98.72-3.7,2.01-4.94,3.72-2.76,3.74-2.76,8.84,0,12.58,1.23,1.71,2.95,3.01,4.94,3.72,3.4,1.28,7.22.74,10.13-1.43,1.96-1.46,3.37-3.54,4.02-5.89.44-1.67.4-2.65.49-2.65.04.24.04.48,0,.71,0,.68-.09,1.35-.24,2.01-1,4.27-4.41,7.56-8.72,8.39-4.29.83-8.67-.88-11.26-4.39-2.96-3.99-2.96-9.45,0-13.44,3.63-5.01,10.63-6.13,15.64-2.51,2.18,1.58,3.72,3.89,4.34,6.5.16.66.24,1.34.24,2.03.03.22.03.44,0,.66Z"/>
    <path class="cls-9" d="M673.86,308.12c-.07,0-.71-.6-1.31-1.93-1.6-3.56-.98-7.73,1.6-10.67.97-1.08,1.77-1.51,1.81-1.43s-.59.66-1.43,1.77c-2.18,2.92-2.75,6.73-1.53,10.16.33.68.61,1.38.86,2.1Z"/>
    <path class="cls-9" d="M681.43,303.26c-2.37-1.27-4.93-2.15-7.58-2.63-2.68-.22-5.38-.02-8,.59.67-.47,1.44-.8,2.24-.96,1.91-.5,3.9-.62,5.86-.37,1.96.26,3.85.89,5.56,1.87,1.3.77,1.97,1.43,1.91,1.5Z"/>
    <circle class="cls-4" cx="883.82" cy="390.63" r="11.02" transform="translate(-17.35 739.37) rotate(-45)"/>
    <path class="cls-9" d="M894.83,390.63c-.09,0,0-.98-.49-2.65-.65-2.36-2.07-4.43-4.02-5.89-2.92-2.16-6.74-2.7-10.14-1.43-1.98.72-3.7,2.02-4.94,3.72-2.76,3.74-2.76,8.84,0,12.58,1.24,1.71,2.96,3,4.94,3.72,1.79.66,3.73.83,5.61.5,4.13-.75,7.46-3.81,8.56-7.86.44-1.67.4-2.65.49-2.65.02.23.02.47,0,.7,0,.68-.08,1.36-.24,2.03-.56,2.48-1.97,4.69-3.98,6.24-4.92,3.81-12,2.91-15.81-2.02-.06-.07-.11-.15-.17-.22-2.97-3.99-2.97-9.45,0-13.44,3.68-5.01,10.72-6.1,15.74-2.43.08.06.16.12.25.19,2.01,1.55,3.42,3.76,3.98,6.24.16.66.24,1.33.24,2.01.02.22.02.45,0,.67Z"/>
    <path class="cls-9" d="M883.53,397.39c-.59-.52-1.04-1.18-1.3-1.93-1.6-3.56-.99-7.73,1.58-10.67.97-1.08,1.77-1.53,1.83-1.43s-.6.67-1.43,1.78c-2.17,2.92-2.74,6.73-1.51,10.16.31.68.59,1.37.83,2.08Z"/>
    <path class="cls-9" d="M891.12,392.54c-4.7-2.78-10.34-3.52-15.6-2.04.67-.47,1.44-.8,2.24-.96,3.85-1.03,7.94-.52,11.41,1.43.76.37,1.42.9,1.94,1.57Z"/>
    <circle class="cls-4" cx="564.56" cy="385.11" r="11.02"/>
    <path class="cls-9" d="M575.55,385.08c-.09,0,0-.98-.49-2.65-.65-2.36-2.07-4.43-4.02-5.89-1.34-.99-2.88-1.67-4.52-1.97-5.81-1.02-11.35,2.86-12.38,8.67-.5,2.86.18,5.8,1.89,8.15,1.24,1.71,2.97,3.01,4.95,3.72,3.4,1.28,7.22.74,10.13-1.43,1.96-1.46,3.37-3.54,4.02-5.89.44-1.67.4-2.65.49-2.65.04.24.04.48,0,.71-.01.68-.09,1.35-.24,2.01-1.01,4.27-4.42,7.55-8.72,8.39-4.29.83-8.67-.88-11.26-4.39-2.95-3.99-2.95-9.45,0-13.44,3.66-5.01,10.7-6.11,15.71-2.44.09.07.18.13.27.2,2.01,1.55,3.42,3.76,4,6.24.15.67.23,1.34.24,2.03,0,.22-.02.43-.07.64Z"/>
    <path class="cls-9" d="M564.26,391.84s-.71-.6-1.31-1.93c-1.6-3.56-.98-7.73,1.6-10.67.96-1.08,1.77-1.51,1.81-1.43s-.6.66-1.43,1.77c-1.05,1.45-1.75,3.13-2.04,4.89-.25,1.77-.08,3.58.51,5.27.33.68.61,1.38.86,2.1Z"/>
    <path class="cls-9" d="M571.84,386.99c-2.37-1.27-4.93-2.15-7.58-2.63-2.68-.22-5.38-.02-8,.59.66-.48,1.42-.8,2.23-.94,3.85-1.04,7.94-.52,11.41,1.43,1.33.83,2,1.48,1.94,1.56Z"/>
    <circle class="cls-4" cx="887.44" cy="531.01" r="11.02" transform="translate(-115.56 783.05) rotate(-45)"/>
    <path class="cls-9" d="M898.47,531.01c-.09,0,0-.97-.49-2.64-.65-2.36-2.06-4.43-4.02-5.89-1.33-1-2.88-1.68-4.52-1.97-5.8-1.07-11.36,2.76-12.44,8.55-.54,2.89.14,5.87,1.88,8.24,1.24,1.71,2.96,3.01,4.94,3.74,3.41,1.27,7.22.73,10.14-1.43,1.96-1.46,3.38-3.54,4.02-5.89.44-1.67.4-2.65.49-2.65.04.24.04.48,0,.71-.01.68-.09,1.35-.24,2.01-.56,2.48-1.98,4.69-4,6.24-1.38,1.09-3,1.83-4.72,2.17-1.99.38-4.05.22-5.96-.46-2.12-.76-3.96-2.13-5.29-3.94-2.97-3.99-2.97-9.46,0-13.46,1.33-1.81,3.18-3.18,5.29-3.94,1.91-.68,3.97-.83,5.96-.46,1.72.34,3.34,1.08,4.72,2.15,2.02,1.56,3.43,3.77,4,6.25.15.66.23,1.33.24,2.01.03.21.03.43,0,.64Z"/>
    <path class="cls-9" d="M887.17,537.77c-.07,0-.71-.59-1.31-1.91-1.6-3.56-.98-7.73,1.6-10.67.96-1.1,1.76-1.53,1.81-1.43s-.6.66-1.43,1.78c-2.17,2.92-2.73,6.72-1.51,10.14.46,1.24.94,2.03.84,2.08Z"/>
    <path class="cls-9" d="M894.75,532.92c-4.69-2.8-10.33-3.53-15.58-2.03.66-.49,1.42-.82,2.23-.96,1.91-.51,3.9-.63,5.86-.37,1.96.25,3.86.88,5.58,1.85.74.36,1.39.87,1.91,1.5Z"/>
    <circle class="cls-4" cx="558.95" cy="531.04" r="11.02"/>
    <path class="cls-9" d="M569.94,531.01c-.09,0,0-.97-.49-2.64-.65-2.36-2.06-4.43-4.02-5.89-1.33-1-2.88-1.68-4.52-1.97-5.82-1.06-11.39,2.8-12.44,8.62-.11.62-.17,1.25-.17,1.88.04,4.46,2.83,8.43,7.01,9.99,3.4,1.27,7.21.73,10.13-1.43,1.96-1.46,3.38-3.54,4.02-5.89.44-1.67.4-2.65.49-2.65.04.24.04.48,0,.71,0,.68-.09,1.35-.24,2.01-.56,2.48-1.98,4.69-4,6.24-1.38,1.09-3,1.83-4.72,2.17-1.99.38-4.05.22-5.96-.46-2.12-.76-3.96-2.13-5.29-3.94-2.95-4-2.95-9.45,0-13.46,1.33-1.81,3.18-3.18,5.29-3.94,1.91-.68,3.97-.83,5.96-.46,1.72.34,3.34,1.08,4.72,2.15,2.02,1.56,3.43,3.77,4,6.25.16.66.24,1.33.24,2.01.04.23.04.46,0,.68Z"/>
    <path class="cls-9" d="M558.65,537.77s-.71-.59-1.31-1.91c-1.6-3.56-.98-7.73,1.6-10.67.96-1.1,1.77-1.53,1.81-1.43s-.59.66-1.43,1.78c-1.06,1.44-1.76,3.11-2.04,4.88-.25,1.77-.08,3.58.51,5.27.49,1.24.96,2.03.86,2.08Z"/>
    <path class="cls-9" d="M566.23,532.92c-4.69-2.8-10.33-3.53-15.58-2.03.66-.49,1.43-.82,2.24-.96,1.91-.51,3.89-.63,5.85-.37,1.96.25,3.86.88,5.58,1.85.74.36,1.39.87,1.91,1.5Z"/>
    <circle class="cls-4" cx="802.87" cy="628.5" r="11.02" transform="translate(-209.26 751.8) rotate(-45)"/>
    <path class="cls-9" d="M813.89,628.49c-.09,0,0-.98-.49-2.65-.65-2.36-2.07-4.43-4.02-5.89-2.92-2.17-6.73-2.7-10.13-1.43-1.99.71-3.71,2.01-4.95,3.72-2.74,3.75-2.74,8.84,0,12.58,1.24,1.71,2.96,3.01,4.95,3.72,3.4,1.28,7.22.74,10.13-1.43,1.96-1.46,3.37-3.54,4.02-5.89.44-1.67.4-2.65.49-2.65.04.23.04.47,0,.7-.01.68-.09,1.36-.24,2.03-1.01,4.27-4.42,7.55-8.72,8.39-4.29.83-8.67-.88-11.26-4.39-2.95-3.99-2.95-9.45,0-13.44,3.66-5.01,10.7-6.11,15.71-2.44.09.07.18.13.27.2,2.01,1.55,3.42,3.76,4,6.24.15.66.23,1.33.24,2.01.03.21.03.42,0,.63Z"/>
    <path class="cls-9" d="M802.6,635.25c-.6-.51-1.06-1.18-1.31-1.93-1.6-3.56-.98-7.73,1.6-10.67.96-1.08,1.76-1.53,1.81-1.43s-.6.67-1.43,1.78c-1.05,1.45-1.74,3.13-2.03,4.89-.25,1.77-.08,3.58.51,5.27.32.68.6,1.37.84,2.08Z"/>
    <path class="cls-9" d="M810.18,630.4c-2.37-1.28-4.93-2.16-7.58-2.63-2.68-.23-5.38-.03-8,.59.66-.48,1.42-.8,2.23-.96,1.91-.49,3.9-.62,5.86-.37,1.96.26,3.86.89,5.58,1.87,1.3.77,1.97,1.43,1.91,1.5Z"/>
    <circle class="cls-4" cx="645.35" cy="629.9" r="11.02"/>
    <path class="cls-9" d="M656.35,629.87c-.09,0,0-.98-.49-2.65-.65-2.36-2.07-4.43-4.02-5.89-2.92-2.17-6.74-2.71-10.14-1.43-1.98.72-3.7,2.02-4.94,3.72-2.74,3.75-2.74,8.84,0,12.58,1.24,1.71,2.96,3,4.94,3.72,3.4,1.28,7.23.74,10.14-1.43,1.99-1.48,3.42-3.59,4.07-5.98.44-1.67.4-2.65.49-2.65.04.24.04.48,0,.71-.01.68-.09,1.35-.24,2.01-1.01,4.27-4.42,7.55-8.72,8.39-4.29.83-8.67-.88-11.26-4.39-2.97-3.99-2.97-9.45,0-13.44,3.66-5.01,10.7-6.11,15.71-2.44.09.07.18.13.27.2,2.01,1.55,3.42,3.76,4,6.24.15.67.23,1.34.24,2.03.02.23,0,.47-.04.7Z"/>
    <path class="cls-9" d="M645.06,636.64s-.71-.6-1.31-1.93c-1.6-3.56-.98-7.73,1.6-10.67.47-.63,1.09-1.12,1.81-1.43.07.1-.6.67-1.43,1.78-2.17,2.92-2.73,6.73-1.51,10.16.46,1.27.93,2.01.84,2.08Z"/>
    <path class="cls-9" d="M652.64,631.78c-2.37-1.28-4.94-2.16-7.59-2.63-2.68-.23-5.37-.03-7.99.59.66-.48,1.42-.8,2.23-.96,1.91-.49,3.9-.62,5.86-.37,1.96.26,3.86.89,5.58,1.87,1.3.81,1.97,1.43,1.91,1.5Z"/>
    <polygon class="cls-6" points="673.3 379.46 671.49 382.75 668.18 384.57 671.49 386.38 673.3 389.68 675.1 386.38 678.41 384.57 675.1 382.75 673.3 379.46"/>
    <polygon class="cls-6" points="726.39 351.58 725.48 353.23 723.84 354.13 725.48 355.05 726.39 356.69 727.29 355.05 728.95 354.13 727.29 353.23 726.39 351.58"/>
    <polygon class="cls-6" points="742.84 487.16 741.95 488.81 740.29 489.71 741.95 490.61 742.84 492.27 743.76 490.61 745.41 489.71 743.76 488.81 742.84 487.16"/>
    <path class="cls-6" d="M705.85,416.97c5.26-3.52,12.02-3.89,17.62-.94,6.32,3,19.33,7.03,22.32,2.6l1.85-15.35c-6.14-.17-12.17-1.69-17.66-4.44-8.22-4.37-22.47-1.43-22.47-1.43l-1.66,19.56Z"/>
    <path class="cls-6" d="M728.33,400.63c3.85,1.34,5.88,5.55,4.53,9.4-.12.35-.27.68-.44,1.01-1.93,3.34-7.72,3.61-11.06,1.68-3.34-1.93-4.48-6.19-2.55-9.53,0,0,0,0,0,0,1.93-3.34,5.89-3.87,9.52-2.55Z"/>
    <g class="cls-15">
      <path class="cls-1" d="M728.33,400.63c3.85,1.34,5.88,5.55,4.53,9.4-.12.35-.27.68-.44,1.01-1.93,3.34-7.72,3.61-11.06,1.68-3.34-1.93-4.48-6.19-2.55-9.53,0,0,0,0,0,0,1.93-3.34,5.89-3.87,9.52-2.55Z"/>
    </g>
    <path class="cls-6" d="M728.96,408.18c-.08-.23-.19-.45-.34-.64-.14-.18-.31-.35-.5-.49-.29-.21-.61-.38-.96-.49.16-1.11.26-2.14.33-2.97.46,0,.87.13,1.18.19s.78.14.83,0-.14-.33-.57-.63c-.45-.27-.93-.47-1.43-.61,0-.59,0-.94-.1-.94s-.21.29-.36.81l-.27-.09h-.5c0-.71,0-1.16-.09-1.17s-.26.44-.43,1.2c-.24,0-.47.05-.7.13-.74.22-1.36.73-1.7,1.43-.43.79-.43,1.74,0,2.53.12.21.27.39.44.56.17.15.35.29.54.41.16.07.32.13.49.19-.11.94-.2,1.8-.26,2.53-.3,0-.58-.13-.81-.16-.49-.1-.78-.13-.83,0s.16.31.58.6c.26.18.54.34.83.47h.17c0,.78,0,1.28.07,1.3s.24-.43.41-1.16c.2.09.41.15.63.19h.21c0,.23,0,.37.1.39s.13-.13.21-.39c.41.03.83-.04,1.21-.19.35-.12.67-.32.93-.59.29-.31.5-.68.61-1.08.14-.43.16-.89.04-1.33ZM726.74,403.54h.1c-.16.77-.31,1.73-.47,2.77l-.34-.1h-.09c.13-.93.23-1.8.29-2.54.17-.06.34-.1.51-.13ZM724.78,404.53c.15-.31.4-.55.71-.68-.11.6-.21,1.27-.33,2-.12-.07-.23-.17-.31-.29-.19-.31-.21-.69-.07-1.03ZM725.79,410.24h-.47c.13-.66.26-1.43.39-2.28l.44.13c-.1.81-.16,1.56-.2,2.15-.05-.01-.09-.03-.13-.06l-.03.06ZM726.92,409.98c-.11,0-.22,0-.33,0,.11-.5.21-1.08.33-1.74.07,0,.19.07.24.11.07.05.13.1.19.17.06.04.1.1.11.17.04.15.04.31,0,.46-.04.33-.24.63-.54.78v.04Z"/>
    <g class="cls-15">
      <path class="cls-1" d="M737.69,419.2c-5.22-.54-11.02-3.12-15.28-5.04l-2.93-1.28c-3.96-1.48-8.4-.85-11.79,1.68l-.49-.1,1.64-15.08h.16c7.7-2.5,16.09-1.65,23.13,2.34,4.72,2.85,13.46,2.85,13.54,2.85h.29l-1.76,13.93h-.13c-2.04.74-4.24.98-6.39.7ZM716.58,411.65c1.07.1,2.11.37,3.1.78.88.36,1.88.8,2.94,1.28,6.02,2.68,15.1,6.72,21.15,4.41l1.66-13.11c-1.57,0-9.1-.3-13.53-2.93-6.87-3.9-15.05-4.75-22.57-2.34l-1.53,14.08c.39-.27.79-.51,1.21-.73,2.34-1.18,4.97-1.68,7.58-1.46h0Z"/>
    </g>
    <path class="cls-6" d="M875.41,601.14c-6.14,1.54-12.62-.41-16.89-5.08-4.94-4.95-15.84-13.16-20.13-9.99l-6.98,13.84c5.73,2.23,10.89,5.69,15.14,10.13,6.26,6.89,20.66,8.95,20.66,8.95l8.2-17.85Z"/>
    <path class="cls-6" d="M848.72,608.9c-3.16-2.58-3.64-7.24-1.06-10.4.22-.27.47-.53.73-.77,2.94-2.48,8.48-.78,10.96,2.15,2.48,2.94,2.11,7.33-.82,9.81,0,0,0,0,0,0-2.85,2.5-6.83,1.67-9.8-.8Z"/>
    <g class="cls-15">
      <path class="cls-1" d="M848.72,608.9c-3.16-2.58-3.64-7.24-1.06-10.4.22-.27.47-.53.73-.77,2.94-2.48,8.48-.78,10.96,2.15,2.48,2.94,2.11,7.33-.82,9.81,0,0,0,0,0,0-2.85,2.5-6.83,1.67-9.8-.8Z"/>
    </g>
    <path class="cls-6" d="M850.69,601.59c0,.24.02.48.1.71.07.22.17.43.3.63.21.29.46.55.74.77-.53,1.01-.97,1.94-1.31,2.7-.4-.2-.77-.41-1.04-.59s-.7-.39-.77-.31,0,.36.33.78c.31.4.68.76,1.1,1.06-.21.54-.3.88-.21.93s.29-.2.6-.66c.09,0,.13.11.23.17.15.07.31.13.47.19-.27.67-.4,1.1-.31,1.14s.39-.34.8-.98c.23.06.46.1.7.11.76.05,1.5-.21,2.07-.71.65-.62.95-1.51.8-2.4-.05-.24-.12-.47-.23-.68-.11-.2-.24-.39-.39-.57-.12-.12-.25-.24-.39-.34.43-.84.8-1.61,1.1-2.28l.7.43c.44.26.71.37.78.29s0-.34-.34-.77c-.19-.25-.4-.49-.63-.71l-.14-.1c.3-.73.46-1.2.37-1.24s-.39.31-.78.94c-.16-.15-.34-.28-.53-.39l-.19-.07v-.4s-.17,0-.33.27c-.39-.15-.8-.23-1.21-.23-.37,0-.74.08-1.07.24-.38.19-.7.47-.94.81-.24.38-.37.82-.37,1.27ZM851.21,606.71h-.1c.41-.68.88-1.51,1.43-2.45l.29.21h0c-.43.83-.81,1.61-1.13,2.28-.14-.01-.31,0-.49-.04ZM853.38,606.43c-.24.24-.56.39-.9.41l.98-1.77c.09.11.16.24.2.37.07.35-.04.72-.29.98ZM854.33,600.72c.15.05.3.12.44.2-.34.57-.73,1.26-1.14,2.01l-.37-.26c.37-.74.68-1.43.91-1.98.07.07.07.06.16.09v-.06ZM853.18,600.58c.11,0,.23,0,.34,0-.27.44-.57.96-.9,1.53-.07-.06-.14-.12-.2-.19-.05-.07-.08-.15-.11-.23-.01-.07-.01-.13,0-.2,0-.15.03-.31.1-.44.18-.24.47-.4.77-.41v-.06Z"/>
    <g class="cls-15">
      <path class="cls-1" d="M846.18,588.29c4.74,2.28,9.32,6.66,12.68,9.9.84.8,1.63,1.56,2.33,2.2,3.22,2.73,7.62,3.63,11.66,2.38l.41.27-6.63,13.64h-.16c-8.08-.24-15.7-3.86-20.97-9.99-3.51-4.28-11.7-7.25-11.79-7.28l-.26-.1,6.35-12.54h.14c2.17-.02,4.31.5,6.24,1.51ZM863.5,602.56c-.96-.47-1.85-1.07-2.64-1.78-.7-.64-1.43-1.43-2.34-2.2-4.75-4.57-11.93-11.41-18.41-11.3l-5.98,11.79c1.43.56,8.46,3.37,11.73,7.33,5.16,5.98,12.57,9.54,20.46,9.82l6.19-12.74c-.47.12-.95.21-1.43.27-2.59.31-5.22-.1-7.59-1.18Z"/>
    </g>
    <path class="cls-6" d="M621.66,510.47s3.07-8.86,14.27-10.33c6.93-.91,20.08-4.58,20.16-9.99l-6.76-13.9c-5.26,3.18-11.14,5.18-17.25,5.85-9.27.78-19.66,10.96-19.66,10.96l9.25,17.41Z"/>
    <path class="cls-6" d="M631.76,484.55c3.97-.95,7.96,1.5,8.9,5.48.08.34.14.69.17,1.05.19,3.85-4.52,7.22-8.38,7.41-3.84.19-7.12-2.76-7.32-6.61-.19-3.85,2.87-6.46,6.62-7.32Z"/>
    <g class="cls-15">
      <path class="cls-1" d="M631.76,484.55c3.97-.95,7.96,1.5,8.9,5.48.08.34.14.69.17,1.05.19,3.85-4.52,7.22-8.38,7.41-3.84.19-7.12-2.76-7.32-6.61-.19-3.85,2.87-6.46,6.62-7.32Z"/>
    </g>
    <path class="cls-6" d="M636.37,490.55c-.19-.16-.4-.28-.63-.36-.22-.08-.45-.12-.68-.14-.36-.02-.71.03-1.06.13-.49-1.03-.96-1.95-1.36-2.68.41-.2.81-.37,1.11-.49s.73-.3.71-.41-.3-.21-.83-.23c-.48.02-.96.1-1.43.24-.31-.5-.53-.77-.61-.74s0,.36.16.88c-.09,0-.18,0-.27,0l-.43.26c-.37-.61-.63-.97-.71-.93s0,.5.29,1.23c-.18.15-.36.31-.51.49-.5.58-.74,1.33-.68,2.08.1.89.63,1.67,1.43,2.08.22.11.45.19.68.23.23.03.46.03.68,0,.17-.01.34-.04.5-.1.41.86.8,1.63,1.14,2.27l-.76.3c-.47.19-.73.33-.71.44s.31.19.83.2c.32,0,.64-.02.96-.07.05,0,.1,0,.16,0,.4.68.68,1.08.77,1.04s0-.49-.27-1.2c.21-.04.41-.1.61-.17l.19-.11c.14.2.24.3.3.27s0-.17,0-.43c.36-.21.67-.49.93-.81.22-.3.38-.65.46-1.01.1-.4.1-.82,0-1.23-.21-.43-.54-.79-.96-1.03ZM631.99,487.86h.09c.29.73.67,1.61,1.11,2.58l-.34.1h-.09c-.4-.84-.8-1.63-1.14-2.28.12-.14.24-.27.37-.4ZM630.88,489.76c-.04-.34.04-.68.23-.97.24.57.51,1.18.81,1.85-.14.03-.28.03-.41,0-.34-.17-.58-.5-.63-.88ZM634.8,493.95l-.43.23c-.24-.63-.56-1.43-.9-2.14l.43-.13c.37.74.71,1.43,1.01,1.93-.04.03-.07.09-.11.11ZM635.6,493.12c0,.09-.16.16-.23.24-.19-.49-.41-1.04-.67-1.64h.27c.08-.01.16-.01.24,0,.07.01.14.04.2.09.13.09.23.21.29.36.13.32.09.67-.1.96Z"/>
    <g class="cls-15">
      <path class="cls-1" d="M649.7,495.08c-4.69,2.37-10.96,3.34-15.58,4.05-1.14.17-2.23.34-3.15.51-4.13.9-7.52,3.84-8.99,7.8l-.46.17-6.81-13.5.1-.11c5.11-6.28,12.62-10.13,20.7-10.59,5.49-.2,12.84-4.88,12.94-4.94l.23-.14,6.09,12.67v.11c-1.35,1.71-3.09,3.07-5.08,3.95ZM627.85,500.17c.95-.48,1.97-.82,3.02-1.01.93-.17,2.03-.34,3.17-.51,6.51-1.01,16.32-2.53,20.16-7.75l-5.71-11.91c-1.33.83-7.82,4.67-12.96,4.87-7.89.45-15.23,4.17-20.25,10.27l6.35,12.67c.18-.43.39-.85.63-1.26,1.33-2.27,3.26-4.12,5.58-5.37h0Z"/>
    </g>
  </g>
  <g id="freepik--Character--inject-17">
    <path class="cls-6" d="M84.39,382.2c0,1.23-1.3,2.07-2.53,2.17-1.22-.04-2.43-.17-3.62-.39-3.58-.11-6.68,2.45-7.26,5.98-.26,1.88.24,3.94-.7,5.58-1.87,3.28-7.53,2.11-9.72,5.18-1.84,2.55,0,6.44-1.67,9.13-1.1,1.85-3.41,2.54-5.25,3.65-3.4,2.11-5.38,5.9-5.18,9.89-.03,1.62.72,3.16,2.01,4.14,1.34.61,2.85.76,4.28.41,7.11-.79,14.26-1.01,21.4-.67-1.55-3.24-.99-7.09,1.43-9.75,1.73-1.84,4.28-3.07,5.05-5.46,1.13-3.71-2.97-7.79-1.24-11.26,1-2,3.54-2.73,4.92-4.49,1.02-1.55,1.5-3.41,1.34-5.27-.17-1.84-.11-3.69.19-5.51.32-1.86,1.71-3.37,3.54-3.84"/>
    <path class="cls-7" d="M89.06,424.82l-2.07-47.61,19.09-14.45,17.35,8.48s.59,21.79,0,31.23c-.59,9.45-10.1,10.46-10.1,10.46l.59,10.7c.36,6.78-4.78,12.6-11.56,13.07h0c-6.85.48-12.8-4.69-13.28-11.54,0-.11-.01-.22-.02-.33Z"/>
    <path class="cls-9" d="M121.55,387.11c0,.67-.54,1.21-1.21,1.22-.67,0-1.21-.54-1.22-1.21h0c0-.67.55-1.22,1.22-1.22.67,0,1.21.54,1.21,1.21Z"/>
    <path class="cls-9" d="M122.72,385.79c-.16.16-1.06-.6-2.35-.67-1.3-.07-2.28.56-2.41.39s.1-.37.53-.67c.58-.37,1.26-.55,1.94-.5.68.04,1.34.3,1.85.74.39.34.51.6.44.71Z"/>
    <path class="cls-9" d="M107.53,387.11c0,.67-.55,1.21-1.22,1.21-.67,0-1.21-.54-1.21-1.21,0-.67.55-1.21,1.22-1.21.67,0,1.21.54,1.21,1.21Z"/>
    <path class="cls-9" d="M108.28,385.79c-.14.16-1.04-.6-2.34-.67-1.3-.07-2.28.56-2.43.39s.1-.37.53-.67c.58-.37,1.26-.55,1.94-.5.69.04,1.34.3,1.87.74.39.34.51.6.43.71Z"/>
    <path class="cls-12" d="M108.68,398.02c1.99,1.01,4.11,1.74,6.29,2.17-.99,1.33-2.74,1.83-4.28,1.23-1.46-.32-2.38-1.75-2.06-3.21.01-.06.03-.12.05-.19Z"/>
    <path class="cls-3" d="M113.34,412.92c-4.5-.2-8.84-1.69-12.53-4.28,0,0,2.85,6.93,12.31,6.55l.21-2.27Z"/>
    <path class="cls-9" d="M112.99,396.8c.69-.18,1.41-.27,2.13-.27.33,0,.66,0,.73-.31.04-.36-.02-.72-.19-1.04l-.9-2.71c-.61-1.91-1.14-3.67-1.51-4.94-.24-.67-.4-1.37-.47-2.08.36.62.64,1.28.83,1.97.46,1.24,1.04,2.98,1.66,4.89l.86,2.71c.21.45.26.95.13,1.43-.1.24-.3.41-.56.47-.18.03-.37.03-.56,0-.72.05-1.43,0-2.14-.11Z"/>
    <path class="cls-7" d="M88.39,394.14c.15-1.57-.03-3.16-.51-4.67-.51-1.53-1.81-2.66-3.4-2.94-1.88-.08-3.52,1.24-3.84,3.1-.24,1.87.69,3.7,2.34,4.61,1.64.84,3.57.9,5.25.14"/>
    <path class="cls-3" d="M85.63,392.81c0-.1-.51.13-1.18-.07-.86-.3-1.43-1.11-1.43-2.01-.08-.45.05-.91.34-1.26.29-.23.66-.35,1.03-.31.7,0,1.2.26,1.24.13s-.31-.43-1.16-.67c-.55-.15-1.14-.04-1.6.3-.5.48-.74,1.18-.64,1.87.03.65.28,1.26.7,1.76.36.42.87.69,1.43.74.91.04,1.34-.47,1.27-.47Z"/>
    <path class="cls-6" d="M83.55,377.2s.76,11.87,3.94,11.49c3.18-.39,5.71-9.29,5.71-9.29,0,0,14.14.14,19.8-5.82,0,0,9.1,6.58,10.7,6.45,1.6-.13,1.73-9.5,1.73-9.5l-15.81-9.1-23.33,6.09-2.74,9.69Z"/>
    <path class="cls-9" d="M118.85,366.23l-.27-3.07s8.97-11.74-1.13-12.77c-10.1-1.03-44.23,13.67-38.98,22.5l3.58,2.85,1.68,3.34c9.72-5.56,21.73-9.65,35.12-12.86Z"/>
    <path class="cls-9" d="M128.7,371.48l-32.55,1.51c7.49-3.27,15.07-5.99,22.99-6.79,0,0,25.38,3.9,9.56,5.28Z"/>
    <path class="cls-4" d="M118.58,363.16s-16.17,0-36.53,12.51l1.68,3.41s9-6.86,35.06-12.84l-.21-3.08Z"/>
    <path class="cls-6" d="M115.13,354.09c.14.21,2.3,2.94,2.3,2.94l-1.71,3.15-2.28.41-2.58-2.77,1.43-3.27,2.85-.47Z"/>
    <path class="cls-3" d="M172.2,465.94c0-2.63,0-5.24.16-7.83-.66.37-1.3.76-1.97,1.1-3.37,1.77-33.02-21.4-33.02-21.4l-18.39,23s2.15,4.88,34.53,23.99c6.18,3.65,12.84,3.8,19.7,1.7-.68-6.73-1.01-13.6-1.01-20.55Z"/>
    <path class="cls-4" d="M90.14,422.01c-6.58-.44-16.14,1.8-21.17,10.62l-2.58,19.02,7.89,31.8c2.33,9.25-6.16,17.81-3.54,32.08l62.24,16.82-.97-42.98.76-12.26,11.77,7.63,21.32-27.02-22.33-18.95c-19.56-18.69-30.86-15.14-30.86-15.14"/>
    <path class="cls-9" d="M125.9,455.1c.35.01.7.1,1.01.26.89.34,1.74.79,2.53,1.34,5.48,3.72,7.5,10.84,4.79,16.88-.37.87-.85,1.7-1.43,2.45-.41.53-.68.78-.73.76s.86-1.23,1.7-3.41c2.31-5.84.42-12.5-4.62-16.25-1.88-1.43-3.31-1.9-3.25-2.03Z"/>
    <polygon class="cls-4" points="85.65 423.71 88.69 416.36 113.6 417.83 117.77 426.02 85.65 423.71"/>
    <path class="cls-9" d="M126.14,455.6c-.05-1.63.02-3.27.2-4.89.33-3.9.33-7.83,0-11.73-.38-3.89-1.5-7.66-3.3-11.13-1.43-2.64-2.75-4-2.64-4.08.37.25.69.55.97.9.8.9,1.51,1.88,2.13,2.93,1.98,3.47,3.2,7.32,3.58,11.3.37,3.95.32,7.92-.16,11.86-.16,1.51-.33,2.73-.46,3.57-.05.44-.16.87-.33,1.28Z"/>
    <path class="cls-9" d="M121.46,462.92c.03.22.03.45,0,.67v9.07c0,6.01-.21,14.27-.6,23.49-.39,9.22-.78,17.35-1.07,23.47-.14,2.85-.27,5.31-.36,7.13,0,.77-.1,1.43-.13,1.93,0,.23-.03.45-.1.67-.02-.22-.02-.45,0-.67v-1.94c0-1.68,0-4.11.11-7.13.16-6.01.49-14.27.86-23.47s.66-17.46.83-23.47c0-2.85.14-5.31.19-7.13v-1.94c.05-.24.14-.46.27-.67Z"/>
    <polygon class="cls-6" points="113 427.06 109.59 484.12 121.62 501.18 125.9 487.84 115.03 426.77 113 427.06"/>
    <path class="cls-9" d="M86.02,421.59c1.53-.1,3.07-.08,4.59.07,2.85.14,6.73.39,11.04.7,3.45.26,6.63.51,9.17.74l-.3.19c.8-1.78,1.43-3.28,1.78-4.28.16-.57.37-1.12.63-1.64-.28,2.15-.91,4.25-1.85,6.21l-.09.19h-.16c-2.55-.14-5.71-.34-9.19-.6-4.28-.31-8.22-.64-11.03-.91-1.55-.1-3.09-.32-4.61-.66Z"/>
    <path class="cls-6" d="M88.02,422.06s-9.33.6-13.61,7.22l9.16,1.17s6.46-8.56,14.2-7.99l-9.75-.4Z"/>
    <path class="cls-9" d="M85.16,428.64c-1.58.1-3.17,0-4.72-.3-1.59-.06-3.16-.34-4.68-.83,1.58-.25,3.19-.22,4.77.09,1.6.06,3.17.42,4.64,1.04Z"/>
    <path class="cls-6" d="M122.93,779.08l-.1-12.41h-23.26v18.16l1.43.09c6.42.34,32.66,1.31,36.96,0,4.75-1.41-15.02-5.84-15.02-5.84Z"/>
    <g class="cls-14">
      <path class="cls-12" d="M107.99,784.67c-.34-1.96-1.4-3.72-2.97-4.95-1.55-1.22-3.5-1.81-5.46-1.66v6.51l8.43.1Z"/>
    </g>
    <g class="cls-14">
      <path class="cls-12" d="M132.59,781.59s6.93,1.98,6.08,3.12-27.42,1.17-39.14.16v-.51l30.98.23s.74-2.94,2.08-3Z"/>
    </g>
    <path class="cls-9" d="M99.2,784.34h1.56l4.28.19c3.57.11,8.56.23,13.95.23s10.39-.11,13.95-.24l4.28-.19h1.54-1.56l-4.28.09c-3.57.07-8.56.16-13.95.16s-10.37-.07-13.95-.14l-4.28-.09h-1.54Z"/>
    <path class="cls-9" d="M130.54,784.94c.19-.7.45-1.38.78-2.03.42-.59.9-1.13,1.43-1.61-1.42.64-2.3,2.08-2.23,3.64h.01Z"/>
    <path class="cls-9" d="M123.69,781.46c.07,0,.4-.36.73-.88s.57-1,.5-1.04-.4.36-.73.88-.59,1.01-.5,1.04Z"/>
    <path class="cls-9" d="M121.79,780.48s.41-.19.81-.56.68-.7.64-.76-.43.19-.83.56-.68.7-.63.76Z"/>
    <path class="cls-9" d="M120.59,778.28c0,.09.54.14,1.21.16.41.04.83,0,1.23-.13,0-.09-.54-.14-1.21-.16-.41-.04-.83,0-1.23.13Z"/>
    <path class="cls-9" d="M120.19,776.74c.85.44,1.84.52,2.74.2-.47-.08-.95-.11-1.43-.1-.43-.07-.87-.11-1.31-.1Z"/>
    <path class="cls-9" d="M124.46,779.49c.47.08.95.08,1.43,0,.54-.06,1.07-.17,1.58-.34.32-.09.62-.22.91-.39.18-.1.31-.26.37-.46.05-.23-.04-.46-.23-.6-1.17-.57-2.59-.24-3.38.8-.23.29-.4.63-.49,1-.04.14-.04.28,0,.41.15-.46.38-.9.67-1.28.34-.39.79-.67,1.28-.83.59-.2,1.23-.16,1.78.11.23.19.14.46-.13.61-.26.15-.54.27-.83.36-.5.18-1.02.31-1.54.41-.87.09-1.44.09-1.44.19Z"/>
    <path class="cls-9" d="M124.84,779.49s.24-.36.17-1.03c-.04-.39-.18-.77-.4-1.1-.26-.45-.74-.73-1.26-.76-.31.06-.52.37-.46.68.03.24.12.47.26.67.2.33.43.63.7.9.23.27.53.48.86.61,0,0-.29-.27-.7-.74-.24-.28-.45-.58-.63-.9-.21-.31-.36-.88,0-.96s.76.34.98.64c.21.29.35.62.41.97.06.33.08.66.06,1Z"/>
    <path class="cls-9" d="M99.67,777.98c.57-.03,1.14-.03,1.71,0,2.8.31,5.17,2.19,6.11,4.84.36,1,.39,1.67.44,1.67.03-.16.03-.32,0-.47-.04-.43-.13-.85-.26-1.26-.85-2.8-3.34-4.78-6.26-4.98-.43-.05-.86-.05-1.28,0-.3.13-.46.17-.46.2Z"/>
    <path class="cls-9" d="M102.07,768.29c-.15,1.59-.21,3.18-.19,4.78-.08,1.59-.05,3.19.09,4.78.15-1.59.21-3.18.19-4.78.07-1.59.04-3.19-.09-4.78Z"/>
    <path class="cls-9" d="M110.85,782.35c1.11.25,2.25.36,3.4.33,1.14.06,2.29-.03,3.41-.27,0-.09-1.53,0-3.41,0s-3.4-.06-3.4-.06Z"/>
    <path class="cls-9" d="M106.34,782.35s.13.31.27.67.24.66.33.66.11-.37-.07-.77-.49-.56-.53-.56Z"/>
    <path class="cls-9" d="M104.61,780.26s.1.3.34.54.47.4.53.34-.09-.3-.33-.54-.49-.4-.54-.34Z"/>
    <path class="cls-9" d="M102.16,779.29c0,.07.33.07.67.2s.59.3.64.24-.13-.37-.56-.51-.78,0-.76.07Z"/>
    <path class="cls-9" d="M100.4,778.84s.11.19.3.26.37.09.4,0-.1-.2-.3-.27-.37-.06-.4.01Z"/>
    <path class="cls-6" d="M47.05,748.2l9.89-7.52-13.98-18.55-14.55,10.86.78,1.2c3.57,5.35,18.55,26.92,22.14,29.58,4.04,2.88-4.28-15.57-4.28-15.57Z"/>
    <g class="cls-14">
      <path class="cls-12" d="M33.61,739.54c1.36-1.45,2.14-3.36,2.18-5.35.05-1.96-.63-3.87-1.91-5.35l-5.21,3.9,4.94,6.81Z"/>
    </g>
    <g class="cls-14">
      <path class="cls-12" d="M50.92,757.43s2.55,6.75,1.13,6.73-17.36-21.25-23.57-31.22l.43-.29,18.31,24.93s2.78-1.2,3.71-.16Z"/>
    </g>
    <path class="cls-9" d="M28.63,732.41c.05.12.12.24.2.34l.63.96,2.4,3.5c2.04,2.93,4.91,6.95,8.18,11.31,3.27,4.37,6.32,8.25,8.56,11.03l2.68,3.27.74.88c.08.11.17.2.27.29-.07-.12-.14-.23-.23-.33l-.7-.91-2.61-3.32c-2.2-2.85-5.22-6.72-8.49-11.07-3.27-4.35-6.16-8.36-8.25-11.26l-2.5-3.48c-.26-.34-.47-.66-.68-.93-.06-.09-.13-.19-.2-.27Z"/>
    <path class="cls-9" d="M46.92,757.81c.67-.27,1.37-.47,2.08-.59.72-.02,1.45.05,2.15.19-.65-.42-1.42-.58-2.18-.46-.77.02-1.5.33-2.05.86Z"/>
    <path class="cls-9" d="M45.58,750.23c.38.09.78.09,1.16,0,.63,0,1.14-.14,1.14-.23-.38-.09-.78-.09-1.16,0-.64.04-1.14.14-1.14.23Z"/>
    <path class="cls-9" d="M45.21,748.1c0,.09.4.23.93.33s.97.13.98,0-.4-.23-.93-.33-.98,0-.98,0Z"/>
    <path class="cls-9" d="M46.29,745.85s.2.53.6,1.07.77.94.84.9c-.12-.4-.33-.76-.61-1.07-.4-.54-.77-.94-.83-.9Z"/>
    <path class="cls-9" d="M47.28,744.59c.03.48.2.95.5,1.33.43.67.94,1.06,1,1-.22-.4-.47-.79-.76-1.16-.41-.63-.66-1.2-.74-1.17Z"/>
    <path class="cls-9" d="M47.68,749.64c.24.44.55.84.91,1.18.37.4.78.76,1.23,1.07.27.2.55.37.86.5.19.07.4.07.59,0,.21-.1.34-.31.34-.54-.24-1.28-1.36-2.22-2.67-2.23-.38-.02-.75.06-1.1.21-.24.1-.36.19-.34.2.46-.15.94-.22,1.43-.21.52.03,1.01.22,1.43.53.51.35.86.89.97,1.5,0,.29-.27.39-.56.27-.28-.12-.54-.28-.78-.46-.44-.3-.86-.64-1.26-1-.66-.6-1-1.06-1.04-1.03Z"/>
    <path class="cls-9" d="M47.85,750c.36-.05.69-.22.94-.49.28-.27.5-.61.63-.98.2-.47.14-1.01-.14-1.43-.23-.22-.6-.22-.83,0-.17.18-.3.39-.39.61-.14.35-.24.72-.3,1.1-.08.35-.08.71,0,1.06.08-.33.13-.67.17-1.01.08-.36.19-.71.34-1.04.13-.36.5-.81.78-.56.2.36.23.79.07,1.17-.1.34-.28.66-.51.93-.24.24-.5.45-.77.64Z"/>
    <path class="cls-9" d="M33.99,728.93c.36.45.69.93.98,1.43.69,1.19,1.04,2.55,1.01,3.92-.05,1.37-.48,2.71-1.24,3.85-.59.88-1.1,1.31-1.06,1.36s.14-.09.37-.29c.32-.29.6-.61.86-.96,1.71-2.37,1.8-5.54.23-8-.23-.36-.5-.69-.8-1-.21-.23-.34-.33-.36-.31Z"/>
    <path class="cls-9" d="M43.18,725.04c-1.37.82-2.68,1.72-3.94,2.7-1.31.91-2.57,1.9-3.78,2.94,1.37-.82,2.69-1.73,3.95-2.71,1.31-.9,2.57-1.88,3.77-2.93Z"/>
    <path class="cls-9" d="M37.18,740.55c.45,1.05,1.05,2.03,1.77,2.93.65.94,1.4,1.8,2.25,2.55.07,0-.93-1.21-2.03-2.73-1.1-1.51-1.93-2.8-2-2.75Z"/>
    <path class="cls-9" d="M34.45,736.9c-.09,0-.19.3-.37.63s-.39.59-.33.66.36-.13.57-.51.2-.76.13-.77Z"/>
    <path class="cls-9" d="M35.12,734.25s-.17.26-.23.6,0,.61,0,.63.19-.26.24-.59.09-.63-.01-.64Z"/>
    <path class="cls-9" d="M34.44,731.69s.13.31.24.66.1.66.19.67.21-.33,0-.76-.39-.63-.43-.57Z"/>
    <path class="cls-9" d="M33.79,730.02s-.1.2,0,.4.17.34.24.31.09-.2,0-.4-.24-.34-.24-.31Z"/>
    <polygon class="cls-6" points="110.76 423.76 113 427.06 115.03 426.77 116.35 423.25 113.54 417.78 110.76 423.76"/>
    <path class="cls-9" d="M132.98,532.4s17.82,118.43,15.25,124.04c-2.57,5.61-89.42,97.9-89.42,97.9l-26.17-31.68s72.27-80.66,71.73-82.84-25.61-117.16-25.61-117.16l54.22,9.75Z"/>
    <path class="cls-4" d="M64.14,748.66c-.42-.35-.8-.74-1.13-1.17-.7-.78-1.68-1.94-2.85-3.4-2.38-2.85-5.59-6.95-8.99-11.56s-6.31-8.89-8.36-12.03c-1.01-1.57-1.83-2.85-2.37-3.75-.32-.44-.58-.92-.78-1.43.39.38.74.81,1.03,1.27l2.57,3.61c2.15,3.07,5.14,7.28,8.56,11.89,3.42,4.61,6.52,8.7,8.8,11.67l2.67,3.54c.34.42.63.87.86,1.36Z"/>
    <path class="cls-9" d="M120.33,529.15l12.64,3.25-15.41,15.7c5.91,31.92,19.03,91.98,17.51,112.42-2.01,27.11-3.44,114.61-3.44,114.61l-38.77-1.58,2.6-114.49-30.28-101.51c-3.77-12.64-2.51-26.25,3.51-37.98l2.04-4.04,49.6,13.63Z"/>
    <path class="cls-4" d="M93.81,526.1c.14,1.17,0,2.36-.4,3.47-1.5,5.26-5.99,9.11-11.41,9.8-1.38.21-2.78.15-4.14-.16h-.41s.11-.09.39-.16h0c1.34.08,2.69,0,4.01-.23,5.13-.87,9.37-4.48,11.04-9.4.73-2,.84-3.32.93-3.32Z"/>
    <path class="cls-4" d="M131.79,766.65c-.5.07-1.01.07-1.51,0l-4.12-.23-13.56-.67c-5.31-.26-10.12-.57-13.57-.91-1.74-.17-3.14-.34-4.11-.49-.49-.04-.97-.14-1.43-.3.5-.06,1.01-.06,1.51,0l4.11.24,13.57.7c5.31.26,10.1.56,13.57.9,1.74.16,3.14.31,4.1.46.49.05.97.15,1.44.3Z"/>
    <path class="cls-4" d="M114.58,542.43s0,.1.11.33.14.57.24.97c.2.91.5,2.17.86,3.75.73,3.32,1.77,8.03,3.04,13.83,2.51,11.76,5.95,27.9,9.76,45.66,1.85,8.93,3.74,17.42,5.11,25.23,1.29,6.9,2.16,13.87,2.58,20.87.28,4.72.21,9.46-.21,14.17-.11,1.67-.33,2.97-.44,3.84-.07.4-.11.71-.16.98s-.07.34-.09.33,0-.11,0-.34,0-.59.07-1c0-.87.23-2.15.31-3.82.32-4.7.32-9.42,0-14.13-.49-6.98-1.4-13.92-2.73-20.79-1.43-7.76-3.3-16.25-5.17-25.2l-9.55-45.75c-1.17-5.81-2.13-10.54-2.85-13.88-.3-1.6-.54-2.85-.73-3.78-.06-.4-.11-.73-.17-.98-.01-.1-.02-.19,0-.29Z"/>
    <path class="cls-4" d="M93.44,652.26c.27.56.48,1.14.64,1.74.41,1.27.94,2.93,1.6,4.98h0c-.09,6.35-.29,16.62-.59,28.21-.26,9.75-.53,18.55-.77,24.94-.13,3.11-.23,5.71-.31,7.56,0,.81-.09,1.5-.11,2.05,0,.24-.03.48-.1.71-.03-.24-.03-.48,0-.71v-2.05c0-1.91,0-4.47.09-7.58.1-6.38.29-15.2.54-24.94.3-11.59.63-21.86.87-28.21v.07c-.57-2.08-1.04-3.77-1.43-5.04-.19-.57-.33-1.15-.43-1.74Z"/>
    <path class="cls-7" d="M193.82,473.09c.88-2.85,11.77-8.76,10.13-10.36-2.14-2.1-11.09,6.66-11.9,7.35s-1.8-.5-1.03-1.07c1.1-.83,12.43-9.83,10.34-11.91-1.16-1.14-2.98,1.18-2.98,1.18,0,0-9.99,9.22-10.94,8.2s4.72-6.63,6.78-8.4c2.05-1.77,2.04-3.41.56-3.7-1.01-.19-7.42,5.04-9.4,6.82s-7.36,6.78-6.65,2.11c0-.07,0-.14,0-.21.83-4.57,0-8.36-1.06-9.29-.71-.54-1.72-.41-2.26.29-.22.28-.33.62-.34.98-.04.23-.04.46,0,.68,0,.1,0,.23.07.34.06,1.59-.05,3.18-.33,4.75-.2,1.41-.65,2.78-1.31,4.04-.77,1.43-1.5,2.68-2.13,3.68-7.29,4.02-28.24,14.61-49.23,16.22-3.78.29-29.42-34.64-29.42-34.64l-19.68,19.49c2.55,4.37,10.69,14.48,23.53,31.99,20.9,28.54,86.67-18.75,86.67-18.75h0l.61-.3c4.99-2.45,9.84-5.17,14.53-8.15,5.71-3.97,5.32-4.49,4.77-5.08-1.51-1.6-10.2,6.59-9.33,3.72Z"/>
    <path class="cls-4" d="M83.92,431.72c-5.18-3.34-12.08-1.85-15.43,3.32-.54.84-.97,1.75-1.27,2.7-1.66,5.44-2.03,13.11,1.26,23.6,5.15,16.24,14.03,31.04,25.93,43.23l24.26-24.7c-8.95-12.76-16.65-24.53-24.44-37.44l-10.23-10.72h-.07Z"/>
    <path class="cls-9" d="M119.02,479.38c-.21.4-.47.78-.77,1.11-.53.68-1.31,1.66-2.31,2.85-2.01,2.35-4.89,5.51-8.25,8.82-3.35,3.31-6.55,6.14-8.93,8.12-1.18.98-2.17,1.76-2.85,2.28-.34.3-.72.55-1.13.74,1.14-1.22,2.35-2.36,3.64-3.42,2.28-2.07,5.41-4.95,8.75-8.25,3.34-3.3,6.28-6.38,8.38-8.63,1.08-1.28,2.25-2.49,3.48-3.62Z"/>
    <path class="cls-9" d="M70.17,466.28c.34.47.62.98.86,1.51.5.98,1.26,2.4,2.23,4.14,1.91,3.47,4.72,8.18,8.02,13.27,3.3,5.09,6.38,9.62,8.56,12.84l2.65,3.88c.35.45.65.92.91,1.43-.43-.39-.81-.83-1.14-1.31-.68-.87-1.67-2.15-2.85-3.75-2.35-3.21-5.54-7.69-8.82-12.84-3.28-5.15-6.05-9.87-7.86-13.43-.9-1.77-1.58-3.24-2.01-4.28-.23-.47-.41-.95-.54-1.46Z"/>
    <path class="cls-9" d="M114.11,473.59c-1.11,1.21-2.3,2.35-3.55,3.41l-8.69,8.22c-3.38,3.22-6.51,6.09-8.85,8.08-1.16,1-2.13,1.78-2.85,2.31s-1.07.8-1.11.76c1.11-1.23,2.3-2.38,3.57-3.45l8.68-8.23c3.4-3.22,6.51-6.08,8.85-8.08,1.17-1,2.13-1.78,2.85-2.31.34-.28.72-.51,1.11-.7Z"/>
    <polygon class="cls-6" points="91.92 479.11 105.04 494.19 112.53 486.64 98.77 472.75 91.92 479.11"/>
    <path class="cls-9" d="M96.98,476.83c.09.07-.14.4,0,.91.07.48.51.81.98.74.16-.02.32-.09.44-.2.39-.26.5-.79.24-1.19-.06-.1-.14-.18-.24-.24-.44-.31-.83-.21-.87-.31s.37-.44,1.11-.16c.43.18.75.55.87,1,.14.85-.43,1.66-1.29,1.81-.35.06-.7,0-1.01-.17-.39-.26-.63-.69-.66-1.16-.13-.87.37-1.13.41-1.04Z"/>
    <path class="cls-9" d="M79.68,429.91h.53c.48,0,.96.07,1.43.2,1.82.48,3.52,1.36,4.97,2.57,3.78,2.95,7.9,8.29,11.41,14.92h0l2.55,3.92c4.61,7.23,8.69,13.84,11.89,18.45,1.58,2.33,2.85,4.15,3.84,5.42.53.63,1,1.31,1.43,2.01-.58-.57-1.12-1.18-1.61-1.83-1-1.23-2.4-3.01-4.05-5.31-3.31-4.55-7.46-11.12-12.07-18.35l-2.54-3.91h0c-3.47-6.55-7.48-11.9-11.09-14.87-1.38-1.21-2.99-2.13-4.74-2.71-1.23-.44-1.94-.41-1.94-.53Z"/>
  </g>
</svg>