<?xml version="1.0" encoding="UTF-8"?>
<svg id="Layer_2" data-name="Layer 2" xmlns="http://www.w3.org/2000/svg" viewBox="0 0 1000 1000">
  <defs>
    <style>
      .cls-1 {
        fill: #f7c1a3;
      }

      .cls-1, .cls-2, .cls-3, .cls-4, .cls-5, .cls-6, .cls-7, .cls-8, .cls-9, .cls-10, .cls-11, .cls-12 {
        stroke-width: 0px;
      }

      .cls-2 {
        fill: #000;
      }

      .cls-3 {
        fill: #e0e0e0;
      }

      .cls-4 {
        fill: #455a64;
      }

      .cls-5 {
        fill: #f5f5f5;
      }

      .cls-6 {
        fill: #09f;
      }

      .cls-7 {
        fill: #ebebeb;
      }

      .cls-8 {
        fill: #40bbff;
      }

      .cls-9 {
        fill: #263238;
      }

      .cls-10 {
        fill: #fafafa;
      }

      .cls-13 {
        opacity: .3;
      }

      .cls-11 {
        fill: #fff;
      }

      .cls-12 {
        fill: #f39e78;
      }
    </style>
  </defs>
  <g id="freepik--background-complete--inject-2">
    <polygon class="cls-7" points="778.13 817.92 799.61 959 924.32 959 953.28 819.95 778.13 817.92"/>
    <path class="cls-10" d="M935.83,908.34c0,.4-31.96.72-71.37.72s-71.39-.32-71.39-.72,31.96-.74,71.39-.74,71.37.34,71.37.74Z"/>
    <path class="cls-10" d="M936.32,901.39c0,.4-32.18.74-71.85.74s-71.85-.34-71.85-.74,32.15-.72,71.85-.72,71.85.32,71.85.72Z"/>
    <path class="cls-10" d="M936.07,893.57c0,.4-32.18.72-71.85.72s-71.85-.32-71.85-.72,32.18-.74,71.85-.74,71.85.34,71.85.74Z"/>
    <path class="cls-10" d="M813.93,950.95c-.4,0-2.12-7.88-3.84-17.76-1.72-9.88-2.78-17.95-2.37-18.02s2.12,7.88,3.84,17.76c1.72,9.88,2.78,17.95,2.37,18.02Z"/>
    <path class="cls-10" d="M822.41,949.44c-.4,0-.89-7.76-1.55-17.32-.66-9.56-1.23-17.34-.81-17.38s1.63,7.65,2.27,17.27c.64,9.62.49,17.42.08,17.42Z"/>
    <path class="cls-10" d="M837.89,949.44c-.4,0-2.12-7.86-3.24-17.76-1.12-9.9-1.36-18.02-.95-18.06s1.23,8.01,2.4,17.89c1.17,9.88,2.2,17.87,1.8,17.93Z"/>
    <path class="cls-10" d="M848.74,950.18c-.4,0-1.42-8.03-1.74-18.06-.32-10.03.17-18.14.55-18.12s.59,8.1.91,18.08.68,18.06.28,18.1Z"/>
    <path class="cls-10" d="M867.94,949.44c-.4,0-.97-7.65-1.31-17.13-.34-9.47-.23-17.17.17-17.19s.97,7.65,1.29,17.13c.32,9.47.25,17.19-.15,17.19Z"/>
    <path class="cls-10" d="M881.99,950.18c-.42,0-.68-7.93-.59-17.72.08-9.79.47-17.72.87-17.72s.68,7.95.59,17.72c-.08,9.77-.47,17.72-.87,17.72Z"/>
    <path class="cls-10" d="M895.14,948.3c-.4,0,0-8.33,1.08-18.53s2.12-18.42,2.5-18.38,0,8.33-1.06,18.53c-1.06,10.2-2.12,18.42-2.52,18.38Z"/>
    <path class="cls-10" d="M912.11,946.45c-.38,0,.21-7.16,2.12-15.75,1.91-8.58,4.24-15.32,4.64-15.2s-1.38,6.97-3.22,15.52c-1.84,8.54-3.14,15.49-3.54,15.43Z"/>
    <path class="cls-7" d="M900.1,539.55c-.01.24-.06.48-.15.7l-.57,1.99c-.59,1.87-1.38,4.41-2.37,7.63-1,3.22-2.35,7.31-3.67,12.06-1.31,4.75-3.01,10.07-4.49,16.09-1.48,6.02-3.31,12.53-4.85,19.63-1.55,7.1-3.2,14.71-4.81,22.72-2.99,16.09-5.72,33.91-7.65,52.65-1.93,18.74-2.67,36.78-2.9,53.12,0,8.18,0,15.96.21,23.32.21,7.36.51,14.05.89,20.22.38,6.17.85,11.74,1.23,16.66.38,4.92.81,9.11,1.21,12.55.4,3.43.61,6,.81,7.93,0,.85.15,1.53.19,2.12.03.23.03.47,0,.7-.07-.22-.12-.45-.15-.68l-.32-2.12c-.28-1.93-.64-4.56-1.1-7.91-.47-3.35-1.02-7.63-1.46-12.55s-1.1-10.47-1.44-16.66c-.34-6.19-.89-12.95-1.06-20.24-.17-7.29-.32-15.07-.36-23.32.17-16.41.97-34.42,2.8-53.27s4.71-36.65,7.78-52.76c1.67-8.01,3.18-15.66,4.96-22.74,1.78-7.08,3.39-13.65,5.04-19.63,1.65-5.98,3.29-11.34,4.71-16.05,1.42-4.71,2.76-8.75,3.9-12.02s1.99-5.7,2.63-7.52l.72-1.95c.07-.24.17-.47.3-.68Z"/>
    <path class="cls-7" d="M877.59,626.86c3.44-10.16,10.29-18.82,19.39-24.5,3.09-1.91,6.99-3.45,10.26-1.89,4.35,2.12,4.71,8.22,3.41,12.89-2.25,7.9-7.26,14.73-14.12,19.25-6.83,4.43-13.14,6.51-21.2,5.34"/>
    <path class="cls-7" d="M870.02,685.89c3.22-12.17,12.93-29.48,23.02-37.01,1.53-1.28,3.32-2.23,5.24-2.8,1.95-.55,4.05-.1,5.6,1.21,2.12,1.97,1.87,5.3,1.25,8.1-4.21,18.09-18.26,32.26-36.31,36.63"/>
    <path class="cls-7" d="M867.92,737.82c5.03-11.64,13.08-21.72,23.32-29.21,2.37-1.74,5.19-3.41,8.1-2.88,4.41.78,6.36,6.17,6.02,10.6-.81,9.18-7.82,16.53-15.05,22.26-7.8,6.13-21.49,11.02-21.49,11.02"/>
    <path class="cls-7" d="M869.11,775.23c4.84-8.87,11.58-16.56,19.75-22.51,1.75-1.33,3.78-2.24,5.93-2.65,2.18-.41,4.41.4,5.81,2.12,1.99,2.93,0,6.85-2.12,9.67-6.97,9.71-16.84,16.94-28.19,20.67"/>
    <path class="cls-7" d="M868.13,759.97c-8.53-10.44-17.99-20.07-28.28-28.78-1.59-1.36-3.62-2.78-5.62-2.12-1.53.65-2.54,2.13-2.59,3.79-.02,1.64.35,3.25,1.06,4.73,6.19,14.84,20.73,26.6,36.39,30.61"/>
    <path class="cls-7" d="M869.02,711.41l-22.19-27.07c-1.96-2.7-4.4-5.02-7.21-6.83-2.89-1.81-6.54-1.86-9.47-.13-2.62,2.17-3.79,5.63-3.03,8.94.77,3.23,2.21,6.25,4.24,8.88,4.31,6.66,9.79,12.48,16.17,17.19,6.53,4.49,12.44,7.4,20.28,6.25"/>
    <path class="cls-7" d="M872.12,656.72c-4.37-12.96-12.09-24.53-22.38-33.53-1.61-1.63-3.62-2.8-5.83-3.39-4.45-.87-8.73,2.84-10.17,7.14-1.43,4.96-.7,10.29,2.01,14.69,2.72,4.34,6.27,8.09,10.45,11.04,7.49,5.71,15.84,10.21,24.74,13.33"/>
    <path class="cls-7" d="M880.98,607.97c-2.12-15.69-10.32-28.74-19.78-41.44-1.99-2.69-4.77-5.51-8.08-5.02-2.13.45-3.88,1.95-4.64,3.98-.75,2.03-1.05,4.2-.87,6.36.84,19.44,13.23,36.49,31.45,43.28"/>
    <path class="cls-7" d="M887.19,583.07c-1.02-8.04-1.29-16.16-.81-24.25.51-8.14,3.3-15.97,8.05-22.59,2.03-2.83,4.83-5.04,8.05-6.36,3.3-1.32,7.05-.83,9.9,1.29,2.39,2.24,3.63,5.45,3.37,8.71-.26,3.23-1.11,6.38-2.5,9.31-5.91,14.22-15.77,29.97-26.07,33.91"/>
    <path class="cls-3" d="M790.49,601.76c.1.66.14,1.33.13,1.99v5.7c0,2.35,0,5.49.13,8.99s.15,7.5.45,11.91c.38,8.84,1.23,19.33,2.56,30.92,1.34,11.59,3.41,24.27,6.15,37.45,2.73,13.18,6.15,25.63,9.56,36.8s6.87,21.2,10.05,29.34c1.5,4.24,3.09,7.82,4.41,11.09,1.31,3.26,2.48,6.04,3.48,8.29,1,2.25,1.67,3.92,2.23,5.26.3.6.53,1.22.7,1.87-.37-.55-.69-1.14-.95-1.76-.64-1.29-1.46-3.01-2.48-5.13s-2.37-4.96-3.73-8.2-3.03-6.89-4.6-11.02c-3.33-8.22-6.87-18.17-10.39-29.34-3.52-11.17-6.76-23.65-9.58-36.88-2.82-13.23-4.68-25.97-6.04-37.6-1.36-11.64-2.01-22.17-2.27-31.01-.23-4.43-.19-8.48-.21-11.95-.02-3.48,0-6.55.11-9.03.11-2.48.15-4.24.21-5.68-.04-.67,0-1.33.11-1.99Z"/>
    <path class="cls-3" d="M793.97,666.09c.14-7.66,2.95-15.03,7.93-20.86,1.7-1.97,4.01-3.86,6.57-3.5,3.41.51,4.98,4.6,5.09,8.05.18,5.86-1.76,11.59-5.47,16.13-3.17,4.37-7.94,7.31-13.27,8.18"/>
    <path class="cls-3" d="M801.51,707.87c-.45-8.99,2.46-22.85,7.69-30.16.77-1.2,1.78-2.23,2.97-3.03,1.21-.78,2.73-.93,4.07-.38,1.68,1.2,2.65,3.17,2.59,5.24,1.04,13.26-5.53,25.96-16.96,32.77"/>
    <path class="cls-3" d="M811.26,743.67c.91-8.99,4.19-17.58,9.52-24.88,1.07-1.84,2.83-3.18,4.9-3.71,3.18-.4,5.7,2.82,6.36,5.96,1.44,6.36-1.76,12.95-5.45,18.38-3.54,4.56-7.66,8.65-12.25,12.15"/>
    <path class="cls-3" d="M820.06,768.87c1.4-7.08,4.34-13.76,8.63-19.56.9-1.28,2.08-2.34,3.45-3.09,1.41-.73,3.11-.63,4.43.25,1.99,1.55,1.55,4.64.7,7.02-2.66,8.1-7.81,15.15-14.73,20.14"/>
    <path class="cls-3" d="M816.16,758.72c-8.05-5.27-16.56-9.8-25.44-13.52-1.29-.77-2.87-.86-4.24-.23-.91.76-1.29,1.99-.95,3.14.34,1.12.94,2.14,1.74,2.99,7.93,8.88,19.48,13.67,31.37,13.01"/>
    <path class="cls-3" d="M806.32,725.46l-20.94-13.65c-1.91-1.42-4.07-2.48-6.36-3.12-2.35-.6-4.84.16-6.46,1.97-1.33,2.03-1.39,4.65-.15,6.74,1.23,2.03,2.89,3.77,4.85,5.11,4.37,3.6,9.35,6.39,14.71,8.22,5.4,1.65,10.07,2.35,15.16-.11"/>
    <path class="cls-3" d="M796.74,687.56c-5.77-7.88-13.51-14.1-22.45-18.04-1.45-.74-3.06-1.11-4.68-1.06-3.26.76-5.52,3.73-5.38,7.08.09,3.68,1.74,7.16,4.54,9.56,2.78,2.36,6,4.15,9.47,5.26,6.32,2.29,12.97,3.56,19.69,3.77"/>
    <path class="cls-3" d="M792.19,652.46c-4.83-10.22-13.21-17.36-22.38-23.97-1.93-1.38-4.43-2.71-6.57-1.67-1.34.77-2.21,2.16-2.31,3.71-.07,1.53.19,3.05.76,4.47,4.77,13.08,16.92,22.02,30.82,22.7"/>
    <path class="cls-3" d="M791.06,634.17c-2.43-5.25-4.36-10.73-5.77-16.34-1.41-5.65-1.2-11.59.61-17.13.77-2.38,2.2-4.5,4.11-6.1,1.95-1.61,4.61-2.08,6.99-1.23,2.13.99,3.7,2.9,4.24,5.19.49,2.26.59,4.58.3,6.87-.97,10.96-4.24,23.8-10.45,28.74"/>
    <path class="cls-7" d="M948.17,600.41c.12.65.17,1.31.17,1.97,0,1.46.13,3.35.21,5.7.08,2.35.17,5.49.11,9.01s0,7.52-.21,11.95c-.25,8.86-1,19.37-2.27,31.01-1.27,11.64-3.31,24.38-6.06,37.62-2.76,13.25-6.15,25.67-9.56,36.88-3.41,11.21-7.06,21.2-10.39,29.31-1.57,4.13-3.22,7.8-4.6,11.02s-2.65,6-3.73,8.22l-2.48,5.13c-.27.61-.59,1.19-.95,1.74.17-.64.4-1.27.68-1.87l2.23-5.24c1.02-2.27,2.12-5.04,3.5-8.31s2.88-6.93,4.39-11.09c3.2-8.22,6.63-18.17,10.07-29.34,3.43-11.17,6.63-23.59,9.43-36.78,2.8-13.18,4.71-25.88,6.15-37.47,1.44-11.59,2.12-22.09,2.56-30.9.3-4.41.32-8.48.42-11.91s.15-6.53.15-9.01v-5.7c0-.66.06-1.32.19-1.97Z"/>
    <path class="cls-7" d="M944.69,664.71c-.16-7.66-2.96-15.03-7.93-20.86-1.7-1.95-4.03-3.86-6.59-3.48-3.41.49-4.96,4.58-5.09,8.03-.18,5.86,1.76,11.59,5.47,16.13,3.17,4.37,7.94,7.32,13.27,8.2"/>
    <path class="cls-7" d="M937.15,706.49c.42-8.97-2.46-22.85-7.69-30.14-.77-1.2-1.78-2.23-2.97-3.03-1.2-.82-2.74-.96-4.07-.38-1.7,1.19-2.68,3.16-2.61,5.24-1.01,13.25,5.56,25.94,16.96,32.77"/>
    <path class="cls-7" d="M927.4,742.29c-.91-8.98-4.2-17.56-9.52-24.86-1.07-1.85-2.83-3.19-4.9-3.73-3.18-.4-5.7,2.84-6.36,5.96-1.42,6.36,1.76,12.95,5.47,18.4,3.54,4.56,7.66,8.64,12.25,12.15"/>
    <path class="cls-7" d="M918.56,767.45c-1.39-7.08-4.33-13.76-8.61-19.56-.9-1.28-2.08-2.33-3.45-3.07-1.41-.77-3.14-.67-4.45.25-1.97,1.55-1.53,4.62-.7,6.99,2.69,8.12,7.88,15.18,14.84,20.16"/>
    <path class="cls-7" d="M922.5,757.34c8.05-5.27,16.56-9.79,25.44-13.5,1.28-.79,2.87-.88,4.24-.25.91.77,1.29,2.01.95,3.16-.3,1.13-.87,2.18-1.65,3.05-7.92,8.89-19.46,13.68-31.35,13.01"/>
    <path class="cls-7" d="M932.4,724.08l20.94-13.65c1.91-1.42,4.06-2.47,6.36-3.09,2.35-.61,4.84.14,6.46,1.95,1.33,2.03,1.39,4.65.15,6.74-1.25,2.03-2.91,3.78-4.88,5.13-4.37,3.6-9.35,6.39-14.71,8.22-5.4,1.63-10.07,2.35-15.13-.13"/>
    <path class="cls-7" d="M942,686.21c5.75-7.88,13.49-14.1,22.43-18.02,1.45-.76,3.07-1.13,4.71-1.06,3.25.77,5.5,3.72,5.38,7.06-.1,3.68-1.74,7.15-4.54,9.56-2.78,2.37-6,4.17-9.47,5.28-6.33,2.28-12.97,3.55-19.69,3.75"/>
    <path class="cls-7" d="M946.45,651.09c4.85-10.22,13.23-17.34,22.38-23.95,1.95-1.4,4.45-2.73,6.59-1.67,1.34.77,2.2,2.17,2.29,3.71.07,1.52-.18,3.04-.74,4.45-4.77,13.04-16.86,21.98-30.73,22.7"/>
    <path class="cls-7" d="M947.6,632.79c2.43-5.25,4.36-10.73,5.77-16.34,1.4-5.65,1.19-11.57-.61-17.11-.77-2.38-2.19-4.5-4.11-6.1-1.96-1.61-4.62-2.08-7.02-1.25-2.13,1.01-3.69,2.92-4.24,5.21-.51,2.25-.61,4.57-.3,6.85.95,10.98,4.24,23.82,10.45,28.74"/>
    <path class="cls-7" d="M763.83,790.07v26.41c.01,5.73,4.65,10.37,10.39,10.39h180.61c5.73-.01,10.37-4.65,10.39-10.39v-26.41h-201.38Z"/>
    <polygon class="cls-3" points="779.49 826.78 781 835.17 947.62 847.06 951.86 826.78 779.49 826.78"/>
    <rect class="cls-3" x="645.7" y="57.66" width="227.96" height="237.63"/>
    <rect class="cls-10" x="630.25" y="57.66" width="227.96" height="237.63"/>
    <path class="cls-3" d="M858.21,295.35h-228.03V57.58h228.03v237.78ZM630.25,295.23h227.96V57.83h-227.88l-.08,237.4Z"/>
    <rect class="cls-11" x="660.9" y="89.6" width="166.66" height="173.74"/>
    <path class="cls-3" d="M660.9,264.41c-1.14,1.79-2.5,3.42-4.05,4.88-2.67,2.82-6.36,6.61-10.6,10.75s-8.03,7.8-10.89,10.43c-1.44,1.52-3.05,2.87-4.81,4.01,1.17-1.74,2.55-3.34,4.09-4.77,2.67-2.8,6.36-6.61,10.6-10.77,4.24-4.15,8.08-7.82,10.92-10.43,1.42-1.54,3.01-2.91,4.75-4.09Z"/>
    <path class="cls-3" d="M827.58,264.07c1.74,1.19,3.34,2.57,4.77,4.11,2.82,2.67,6.61,6.36,10.75,10.6s7.8,8.05,10.43,10.89c1.52,1.44,2.87,3.05,4.01,4.81-1.75-1.17-3.35-2.54-4.77-4.09-2.8-2.65-6.61-6.36-10.75-10.6-4.13-4.24-7.84-8.05-10.45-10.89-1.52-1.44-2.86-3.06-3.98-4.83Z"/>
    <path class="cls-3" d="M827.12,90.07c1.18-1.75,2.56-3.35,4.11-4.79,2.67-2.8,6.36-6.61,10.6-10.75s8.05-7.8,10.89-10.41c1.44-1.52,3.06-2.88,4.81-4.03-1.16,1.75-2.53,3.36-4.09,4.77-2.67,2.82-6.36,6.61-10.6,10.77-4.24,4.15-8.08,7.82-10.92,10.43-1.44,1.52-3.05,2.87-4.81,4.01Z"/>
    <path class="cls-3" d="M660.45,90.6c-1.75-1.22-3.36-2.65-4.79-4.24-2.82-2.67-6.61-6.36-10.75-10.6s-7.8-8.05-10.41-10.89c-1.53-1.43-2.88-3.05-4.03-4.81,1.75,1.17,3.35,2.54,4.77,4.09,2.8,2.67,6.61,6.36,10.77,10.6s7.82,8.08,10.43,10.92c1.52,1.49,2.87,3.14,4.01,4.94Z"/>
    <path class="cls-3" d="M827.12,263.35v-12.65c0-8.22,0-20.2-.17-35.4,0-30.44-.19-73.78-.32-125.69l.64.64-166.2.11h0l.74-.74c0,63.78,0,123.42-.11,173.81l-.64-.64,120.35.32,33.81.17h12c-.25.02-.5.02-.74,0h-11.06l-33.66.17-120.82.32h-.64v-.64c0-50.32,0-109.97-.11-173.81v-.74h167.62v.64c-.13,52.08-.23,95.57-.32,126.1,0,15.13-.13,27.07-.17,35.27v11.62c-.02.4-.09.79-.21,1.17Z"/>
    <rect class="cls-7" x="716.43" y="148.65" width="55.62" height="55.62"/>
    <rect class="cls-7" x="68.11" y="60.03" width="388.4" height="697.73"/>
    <rect class="cls-10" x="83.65" y="80.28" width="353.36" height="656.72"/>
    <polygon class="cls-3" points="472.93 764.06 456.51 757.76 456.51 48.21 472.93 48.21 472.93 764.06"/>
    <path class="cls-5" d="M170.25,504.47l91.78-85.34c11.62-10.81,26.83-22.45,41.78-17.11,7.21,2.54,12.61,8.69,19.65,11.64,14.1,5.87,30.18-2.61,41.04-13.35,10.85-10.75,19.37-24.21,32.49-32.01s33.51-6.8,40,7.02v92.84l-133.37,57.1-133.37-20.79Z"/>
    <path class="cls-3" d="M83.65,451.1c33.81-13.76,67.55-2.12,91.76,25.29,5.09,5.74,9.73,12.4,16.72,15.58,9.5,4.24,20.43,1.08,30.78-.11,28.99-2.85,57.12,10.82,72.79,35.38l-112.89,55.53-99.16-.72v-130.95Z"/>
    <path class="cls-7" d="M436.98,451.57c-22.26-10.75-41.86,2.27-62.42,16.02-20.56,13.76-39.64,31.43-63.74,36.97-16.11,3.71-33.36,1.65-48.94,7.21-31.79,11.3-50.04,51.57-83.66,53.5-18.27,1.04-34.63-10.03-50.87-18.33-16.24-8.31-29.14-16.17-43.66-5.07v195.22h353.34l-.04-285.51Z"/>
    <rect class="cls-3" x="83.65" y="269.18" width="361.03" height="6.99"/>
    <rect class="cls-3" x="83.65" y="425.58" width="361.03" height="6.99"/>
    <rect class="cls-3" x="83.65" y="581.97" width="361.03" height="6.99"/>
    <rect class="cls-3" x="251.39" y="272.69" width="17.85" height="482.91"/>
    <rect class="cls-3" x="151.69" y="80.28" width="8.1" height="192.42"/>
    <rect class="cls-3" x="221.44" y="80.28" width="8.1" height="192.42"/>
    <rect class="cls-3" x="291.2" y="80.28" width="8.1" height="192.42"/>
    <rect class="cls-3" x="360.93" y="80.28" width="8.1" height="192.42"/>
    <rect class="cls-3" x="51.68" y="48.21" width="16.43" height="713.88"/>
    <rect class="cls-3" x="51.68" y="41" width="421.25" height="19.03"/>
    <rect class="cls-3" x="40.02" y="766.39" width="444.01" height="17.74"/>
    <polygon class="cls-7" points="456.51 757.76 484.06 766.39 40.05 766.39 68.11 757.76 456.51 757.76"/>
  </g>
  <g id="freepik--Table--inject-2">
    <path class="cls-9" d="M992.34,958.05c0,.3-220.44.55-492.32.55s-492.36-.25-492.36-.55,220.4-.53,492.34-.53,492.34.21,492.34.53Z"/>
  </g>
  <g id="freepik--Battery--inject-2">
    <path class="cls-5" d="M894.59,397.26h-16.49v-7.8c-.21-5.45-5.74-7.63-7.93-7.63h-152.82c-2.28.14-4.05,2.06-3.98,4.35v89.83c-.06,2.29,1.7,4.21,3.98,4.35h156.85c2.28-.14,4.05-2.06,3.98-4.35v-17.25h16.49c2.55-.11,4.53-2.26,4.43-4.81v-51.76c.15-2.56-1.8-4.76-4.36-4.91-.05,0-.11,0-.16,0Z"/>
    <rect class="cls-3" x="722.86" y="391.65" width="141.82" height="78.68" rx="4.32" ry="4.32"/>
    <path class="cls-9" d="M894.59,397.26c.49-.05.99.03,1.44.21,1.39.5,2.46,1.65,2.86,3.07.24,1.03.33,2.1.25,3.16v47.25c.07,1.42.01,2.83-.17,4.24-.49,2.35-2.63,3.99-5.02,3.86h-16.07l.4-.4v17.08c.03.93-.19,1.85-.64,2.67-.49.84-1.23,1.51-2.12,1.91-.79.28-1.64.38-2.48.3h-155.98c-1.37-.09-2.61-.81-3.37-1.95-.7-1.1-1.02-2.39-.91-3.69v-88.75c-.1-1.96.95-3.8,2.69-4.71.86-.37,1.8-.52,2.73-.42h72.94l59.62.13h19.99c.85.15,1.68.41,2.46.78,1.5.65,2.8,1.7,3.75,3.03.81,1.26,1.2,2.74,1.1,4.24,0,2.8.11,5.34.15,7.65l-.19-.19h15.47c.34-.02.68-.02,1.02,0h-4.09l-12.4.11h-.19v-.19c0-2.29-.15-4.85-.23-7.65.1-1.42-.26-2.83-1.04-4.03-.91-1.25-2.14-2.23-3.56-2.84-.75-.33-1.53-.56-2.33-.7-.85-.04-1.7-.04-2.54,0h-17.36l-59.62.13h-72.83c-.77-.1-1.55.01-2.27.32-3.03,1.4-1.82,5.6-2.12,8.92-.3,3.33,0,6.97,0,10.6v73.15c-.12,1.06.14,2.13.72,3.03.56.86,1.48,1.41,2.5,1.48h155.9c.8.08,1.6-.02,2.35-.3.7-.33,1.28-.87,1.65-1.55.38-.68.56-1.45.53-2.23v-17.49h14.26c1.42.14,2.86.02,4.24-.34,1.21-.55,2.09-1.65,2.37-2.95.16-1.34.22-2.7.17-4.05v-47.25c.08-1.04.02-2.08-.19-3.09-.37-1.38-1.37-2.5-2.69-3.03-.4.11-.8.27-1.17.47Z"/>
    <path class="cls-9" d="M877.88,468.44c-.32,0-.57-16.45-.57-36.75s.25-36.75.57-36.75.57,16.47.57,36.75-.25,36.75-.57,36.75Z"/>
    <rect class="cls-6" x="793.49" y="336.89" width="14.12" height="187.03" transform="translate(-107.95 457.94) rotate(-30)"/>
  </g>
  <g id="freepik--Character--inject-2">
    <path class="cls-9" d="M403.75,240.48c27-12.72,54.9-8.63,83.19.74,28.3,9.37,52.99,28.47,70.75,52.38,18.74,25.2,30.18,56.21,29.8,87.58-.38,31.37-13.08,62.93-36.27,84.08-31.67,28.89-80.54,35.4-120.44,19.59-39.89-15.81-70.07-51.78-83.07-92.65-8.97-28.13-10.22-59.12-.85-87.14,9.37-28.02,29.84-52.65,56.87-64.58"/>
    <path class="cls-9" d="M510.94,314.51c-7.14-9.69-8.88-22.23-13.69-33.26-10.6-24.29-36.58-38.94-62.89-42.29-24.44-3.09-50.66,6.36-74.72,22.13-16.47,10.87-30.69,25.77-38.7,43.81-10.58,24.48-8.67,52.56,5.13,75.37l124.17-54.62c14.84,6.68,30.1,13.44,46.33,14.96,4.76.71,9.62.16,14.1-1.59,4.53-1.84,7.57-6.16,7.78-11.04-.17-5.26-4.41-9.28-7.5-13.48Z"/>
    <path class="cls-1" d="M366.76,297.6l119.57-7.31c11.14-2.32,22.2,4.29,25.44,15.2l66.24,244.81c4.52,16.73,3.4,34.48-3.18,50.51l-6.93,16.96c-15.79,38.45-66.43,49.03-94.98,18.8-1.69-1.7-3.16-3.61-4.37-5.68-.96-1.7-1.83-3.44-2.61-5.24l-8.73-23.32c-7.12-21.45-13.37-43.54-13.33-43.32s-47.84,6.93-76.16-49.34c-14.07-27.98-28-76.79-38.15-117.11-9.09-36.27.55-87.41,37.2-94.96Z"/>
    <path class="cls-9" d="M385.33,423.14c-1.29-.66-5.45,5.62-13.54,8.48-8.1,2.86-15.45,1-15.96,2.31-.28.59,1.31,2.01,4.56,2.97,4.38,1.14,9,.91,13.25-.66,4.2-1.51,7.81-4.31,10.32-7.99,1.78-2.76,1.99-4.88,1.38-5.11Z"/>
    <path class="cls-9" d="M466.74,398.09c-1.42-.49-5.51,6.36-14.03,10.26-8.52,3.9-16.6,2.93-17.06,4.24-.25.64,1.53,1.89,5.11,2.42,4.86.62,9.8-.17,14.22-2.29,4.38-1.99,8.07-5.24,10.6-9.33,1.76-2.99,1.84-5.09,1.17-5.3Z"/>
    <path class="cls-9" d="M418.63,460.38c-.13-.47-5.49.28-14.05,1.84-2.12.45-4.24.68-5.09-.64s-.81-3.9-.57-6.63c.36-5.7.72-11.64,1.1-17.89,1.36-25.44,1.63-46,.61-46.04s-2.95,20.5-4.24,45.89c-.28,6.23-.55,12.19-.81,17.89,0,2.63-.53,5.74,1.53,8.48,1.09,1.29,2.72,2.01,4.41,1.95,1.26-.05,2.5-.27,3.71-.64,8.35-2.14,13.5-3.73,13.4-4.22Z"/>
    <path class="cls-12" d="M443.83,559.03c28.05-8.48,53.19-24.57,72.64-46.48,0,0-6.89,47.39-67.98,60.77l-4.66-14.29Z"/>
    <path class="cls-12" d="M428.36,479.02c1.9-4.99,6.23-8.64,11.47-9.69,3.75-.85,7.69-.12,10.89,2.01,3.12,2.08,4.62,5.89,3.75,9.54-1.21,3.82-5.6,6-9.86,6.15-4.3-.14-8.53-1.14-12.44-2.93-1.14-.35-2.2-.92-3.12-1.67-.9-.72-1.28-1.92-.95-3.03"/>
    <path class="cls-9" d="M419.71,365.96c1.53,1.97,9.35-1.7,19.31-3.58s18.57-1.76,19.2-4.24c.28-1.12-1.74-2.8-5.55-3.94-10.17-2.67-21-.49-29.36,5.89-3.07,2.61-4.28,4.94-3.6,5.87Z"/>
    <path class="cls-9" d="M340.03,392.15c2.01,1.4,7.04-2.31,13.8-4.58s12.91-2.73,13.61-5.09c.28-1.14-1.21-2.71-4.24-3.67-8.29-2.15-17.05.94-22.17,7.8-1.76,2.67-1.93,4.83-1,5.53Z"/>
    <path class="cls-9" d="M526.81,291.35c-21.2-31.16-85.31-63.88-120.61-50.64l-47.25,51.68c9.76,18.9,29.08,30.94,50.34,31.37,11.09,0,23.61-2.73,32.26,4.24,8.65,6.97,9.11,21.2,17.61,28.68,11.76,10.41,33.38,3.31,43.47,15.35,4.41,5.26,5.19,12.87,9.71,18.04,6,6.91,29.21,11,36.78,5.87s3.35-19.37,3.86-27.55c.87-14.14-3.03-20.16-6.68-26.81-8.67-16-9.39-35.35-19.5-50.21Z"/>
    <path class="cls-1" d="M526.58,410.17c-1.4-4.43.38-16.47,4.54-18.53,11.06-5.53,32.35-11.3,41.97,18.21,13.14,40.27-30.06,45.23-30.5,44.09s-11.17-28.45-16-43.77Z"/>
    <path class="cls-12" d="M549.92,434.65c.13-.19.87.25,2.23.42,1.9.16,3.79-.42,5.28-1.61,3.75-2.95,5.15-10.89,2.97-18.23-1.03-3.49-2.82-6.71-5.26-9.41-1.59-2.31-4.23-3.69-7.04-3.67-1.81.1-3.29,1.47-3.52,3.26-.17,1.31.36,2.12.15,2.12s-1.08-.38-1.29-2.12c-.1-1.07.17-2.14.76-3.03.84-1.2,2.12-2.03,3.56-2.31,3.18-.78,6.91,1.17,9.37,3.88,2.86,2.93,4.96,6.52,6.1,10.45,2.4,8.2.7,17.17-4.58,20.75-1.98,1.35-4.47,1.73-6.76,1.02-1.59-.57-2.1-1.42-1.97-1.53Z"/>
    <path class="cls-9" d="M367.4,276.74c.85,17.68-18.53,46-26.05,62.02-14.33,30.54-16.24,39.91-.76,95.09-15.26-16.32-28.08-32.9-33.28-54.62-5.19-21.73-3.22-45.49,7.46-65.11,10.68-19.63,30.48-34.55,52.63-37.37"/>
    <path class="cls-9" d="M456.42,470.73c.21.66-6.49,3.09-13.67,7.99s-12.02,10.09-12.53,9.67,3.71-6.51,11.28-11.55c7.57-5.04,14.79-6.66,14.92-6.1Z"/>
    <path class="cls-12" d="M467.74,414.47c-.21,1.4-.79,2.72-1.67,3.82-3.98,5.87-11.5,8.2-18.1,5.6-1.34-.38-2.56-1.11-3.52-2.12.11-.17,1.4.72,3.77,1.44,6.28,2.03,13.16-.09,17.21-5.3,1.55-2.01,2.12-3.5,2.31-3.43Z"/>
    <path class="cls-12" d="M381.9,440.71c.13,0,0,1.29-.98,3.05-1.31,2.35-3.44,4.14-5.98,5.04-2.51.87-5.24.82-7.72-.13-1.05-.3-1.98-.92-2.67-1.76,0-.15,1.12.49,2.93,1,4.76,1.41,9.89-.39,12.72-4.47,1.1-1.63,1.53-2.78,1.7-2.73Z"/>
    <path class="cls-4" d="M470.77,236.19c.3,1.92.34,3.87.13,5.81-.3,5.29-1.27,10.51-2.88,15.56-10.84,35.17-46.94,56.06-82.83,47.92-5.15-1.12-10.13-2.88-14.84-5.26-1.78-.79-3.45-1.79-4.98-2.99.21-.49,7.27,4.24,20.24,6.68,7.55,1.47,15.28,1.73,22.91.78,18.91-2.08,36.08-12.01,47.31-27.36,4.62-6.15,8.25-12.99,10.75-20.26,4.18-12.51,3.75-20.92,4.2-20.88Z"/>
    <path class="cls-4" d="M526.35,262.5c1.03,1.41,1.88,2.95,2.52,4.58,1.98,4.31,3.63,8.77,4.92,13.33,4.15,15.17,5.71,30.94,4.6,46.63-1.1,15.59-3.51,31.06-7.19,46.25-1.36,5.83-2.54,10.6-3.41,13.76-.34,1.71-.86,3.37-1.57,4.96.03-1.74.27-3.47.72-5.15.66-3.43,1.57-8.14,2.69-13.88,3.2-15.19,5.38-30.58,6.51-46.06,1.05-15.45-.26-30.96-3.88-46.02-2.95-11.57-6.32-18.23-5.91-18.4Z"/>
    <path class="cls-9" d="M441.6,140.09c-20.69-14.01-47.59-13.46-71.45-6.23-12.72,3.82-26.73,15.71-35.19,25.84-8.46,10.13-13.63,37.83-8.48,49.96,5.15,12.12,20.75,19.61,32.6,13.78-3.34,9.16-10.83,16.18-20.18,18.93,7.26,3.34,15.56,3.57,23,.66-3.57,5.34-9.42,8.71-15.83,9.11,10.49,4.94,22.77,4.3,32.68-1.72.67,12.17,11.08,21.49,23.25,20.82,2.38-.13,4.72-.65,6.94-1.53l51.29-20.14c6.91-1.85,12.68-6.59,15.85-12.99,3.09-6.37,4.48-13.43,4.03-20.5-.83-24.97.11-49.85-38.51-75.99Z"/>
    <path class="cls-4" d="M438.23,140.32c.54,1.75.85,3.56.93,5.38.48,5.01.55,10.05.19,15.07-2.15,33.94-21.03,64.6-50.36,81.82-4.33,2.57-8.87,4.77-13.57,6.59-1.69.76-3.46,1.3-5.28,1.63-.19-.4,7.33-2.88,18-9.6,28.27-17.57,46.65-47.39,49.62-80.54,1.19-12.48.02-20.31.47-20.35Z"/>
    <path class="cls-6" d="M475.35,238.97c0,.36-6.36-.59-16.32-1.25-5.02-.34-11.04-.49-17.7-.36-7.21.22-14.4.82-21.54,1.82-7.16,1.09-14.23,2.64-21.2,4.62-3.16,1.04-6.19,1.91-8.94,3.01l-3.98,1.5-3.62,1.59c-9.18,4.11-14.43,7.57-14.65,7.23,1.04-1.05,2.21-1.96,3.5-2.69l1.97-1.34,2.44-1.4c1.76-1,3.75-2.12,6.06-3.24l3.6-1.74c1.27-.57,2.63-1.08,4.03-1.65,2.73-1.21,5.81-2.12,8.99-3.26,7.03-2.17,14.2-3.83,21.47-4.96,7.24-1.03,14.54-1.59,21.85-1.67,5.96-.03,11.92.25,17.85.85,2.54.21,4.81.57,6.8.85,1.99.28,3.71.59,5.11.89,1.48.19,2.92.6,4.28,1.21Z"/>
    <circle class="cls-4" cx="559.24" cy="454.09" r="15.01"/>
    <path class="cls-5" d="M448.77,574.27s83.34,57.87,125.61-42.92l75.99,117.28,55.96,309.46-219.95-2.12s-69.04-295.47-69.04-295.49,31.43-86.2,31.43-86.2Z"/>
    <path class="cls-8" d="M505.28,821.03c-11.85-50.43-66.75-274.93-66.75-274.93l-28.64,5.74-17.68,34.46-30.27,13.33c-7.36,2.46-31.54,15.35-36.03,21.68-10.6,15.16-24.48,42.99-29.46,102.74-7.76,92.69-22.23,205.05,16.83,232.75l222.26,1.21s-18.42-86.59-30.27-136.99Z"/>
    <path class="cls-1" d="M343.47,459.41s4.62,49.6,6.51,55.11c1.89,5.51,23.32,38.7,23.32,38.7,0,0-2.27,11.34.51,13.97,2.78,2.63,21.64,23.44,29.36,29.29,7.72,5.85,28.42,18.91,28.42,18.91l39.76-31.62s-14.56-23-24.65-37.64-23.72-32.9-23.72-32.9c0,0-14.84-51.99-28.32-47.08l-1.36,1.72c-1.61,2.01-2.16,4.68-1.48,7.16l11.13,40.97-16.26-24.99s-11.7-40.53-27.75-40.61c0,0-4.43-9.01-10.6-6.74-6.17,2.27-4.88,15.75-4.88,15.75Z"/>
    <path class="cls-12" d="M343.47,459.41c-.09-.7-.14-1.41-.15-2.12-.07-2.01.05-4.03.36-6.02.22-1.46.62-2.88,1.19-4.24.64-1.75,2.02-3.13,3.77-3.77.99-.33,2.05-.38,3.07-.15,1.07.29,2.07.78,2.95,1.46,1.85,1.54,3.37,3.44,4.47,5.57l-.23-.13c3.72.27,7.19,1.96,9.69,4.73,2.89,2.92,5.38,6.21,7.4,9.79,4.68,8.33,8.42,17.15,11.15,26.3v-.11l16.3,24.97-.81.36c-2.12-7.63-4.24-15.71-6.59-24.14-1.17-4.24-2.33-8.48-3.54-12.89l-.89-3.29c-.38-1.15-.54-2.37-.45-3.58.11-1.23.47-2.42,1.06-3.5.64-1.01,1.35-1.97,2.12-2.88h.15c2.4-.69,4.99-.11,6.87,1.55,1.85,1.5,3.48,3.26,4.81,5.24,2.72,3.96,5.07,8.17,7.02,12.57,4.08,9.1,7.53,18.47,10.32,28.04v-.17l15.03,20.84,7.67,10.6c2.54,3.6,4.9,7.38,7.38,11.09,6.21,9.47,12.31,18.84,18.33,28l.28.42-.4.32-39.78,31.6-.3.23-.32-.21c-7.07-4.47-13.92-8.92-20.56-13.37-3.31-2.27-6.57-4.43-9.6-6.95s-5.68-5.24-8.35-7.88c-5.34-5.34-10.32-10.6-15.16-15.79l-3.6-3.77c-.33-.3-.64-.64-.91-1-.27-.39-.48-.82-.64-1.27-.25-.86-.4-1.74-.45-2.63-.12-3.36.15-6.73.83-10.03v.32c-8.25-13.06-15.77-24.86-21.73-35.69-.79-1.32-1.39-2.75-1.78-4.24-.34-1.46-.57-2.9-.76-4.35-.45-2.84-.76-5.57-1.1-8.2-.62-5.26-1.15-10.06-1.59-14.41-.89-8.67-1.5-15.41-1.93-20.01-.19-2.27-.34-4.01-.42-5.21s0-1.8,0-1.8c0,0,0,.61.23,1.78s.32,2.95.55,5.21c.51,4.62,1.23,11.36,2.12,19.99.51,4.24,1.08,9.14,1.7,14.39.34,2.61.7,5.34,1.14,8.18.21,1.4.45,2.86.78,4.24.38,1.43.97,2.8,1.74,4.07,6,10.75,13.57,22.55,21.85,35.57v.32c-.66,3.22-.93,6.51-.81,9.79.04.81.18,1.62.42,2.4.24.76.71,1.43,1.34,1.93l3.62,3.77c4.85,5.11,9.86,10.41,15.18,15.73,2.65,2.63,5.38,5.3,8.31,7.82s6.23,4.62,9.52,6.85c6.61,4.45,13.47,8.9,20.56,13.33h-.61l39.74-31.62-.13.72-18.33-27.96c-2.46-3.71-4.81-7.48-7.36-11.09l-7.67-10.6-14.99-20.81h0c-2.78-9.52-6.2-18.85-10.24-27.92-1.91-4.33-4.22-8.48-6.89-12.4-1.28-1.89-2.83-3.58-4.6-5.02-1.6-1.43-3.82-1.96-5.89-1.4l.23-.17c-.77.86-1.48,1.78-2.12,2.73-.54.95-.86,2.01-.95,3.09-.07,1.09.06,2.18.4,3.22l.89,3.31,3.5,12.89c2.29,8.48,4.47,16.51,6.53,24.16l.76,2.8-1.59-2.44c-5.77-8.92-11.23-17.34-16.21-25.01v-.11c-2.67-9.11-6.35-17.9-10.96-26.2-1.95-3.54-4.38-6.8-7.21-9.69-2.38-2.64-5.66-4.27-9.2-4.58h-.15v-.15c-1.03-2.08-2.47-3.93-4.24-5.43-.81-.65-1.75-1.14-2.76-1.42-.94-.25-1.92-.25-2.86,0-1.65.6-2.95,1.9-3.56,3.54-.61,1.35-1.02,2.78-1.23,4.24-.33,1.98-.5,3.97-.51,5.98-.25,1.14-.23,1.76-.23,1.76Z"/>
    <path class="cls-8" d="M780.89,827.18c-3.45-10.6-26.94-127.18-27.39-128.83-.45-1.65-40.78-134.96-40.78-134.96l-86.8-22.57-57.42-29.12,4.35,39.51,3.46,59.67s20.39,67.3,40.38,112.68c19.99,45.38,38.32,214.82,44.51,234.47h142.61s-19.46-120.29-22.91-130.84Z"/>
    <path class="cls-8" d="M822.65,876.61c-1.67-12.38-4.03-30.01-6.36-48.2-4.6-36.03-18.31-163.76-36.39-209.25-18.08-45.49-69.44-56.85-69.44-56.85v223.68l3.62,80.74,20.41,91.29h69.25s10.96,1.74,14.52-13.27c1-4.11,2.12-8.27,2.99-12.46,3.49-18.36,3.97-37.17,1.4-55.68Z"/>
    <path class="cls-9" d="M718.32,887.02v-.57l-.13-1.7c-.11-1.57-.23-3.73-.4-6.49-.32-5.72-.76-13.86-1.29-23.87-.53-10-1.1-22.11-1.78-35.4-.68-13.29-1.23-28-2.35-43.35-1.95-30.71-3.69-58.5-4.98-78.72-.59-10-1.06-18.14-1.4-23.87-.15-2.76-.25-4.92-.34-6.49-.08-1.57,0-2.35,0-2.12.43,2.87.71,5.75.85,8.65.42,5.72,1.02,13.84,1.76,23.85,1.36,20.22,3.24,48.01,5.3,78.7,1.12,15.37,1.65,30.03,2.27,43.37.61,13.33,1.1,25.31,1.53,35.42.42,10.11.72,18.17.95,23.89,0,2.76.15,4.94.19,6.51v1.7c-.03.17-.09.33-.17.49Z"/>
    <path class="cls-1" d="M422.91,602.86c-.47,4.6-70.92,161.09-70.92,161.09l104.01,45.91,21.43-195.15c1.48-13.45-2.2-26.96-10.3-37.79l-1.08-1.46-43.13,27.41Z"/>
    <path class="cls-8" d="M355.57,766.46c-2.71,5.28-52.99,103.18-52.99,112.34s59.35,72.68,59.35,72.68l56.3-3.98,52.1-151.06-114.76-29.97Z"/>
    <path class="cls-9" d="M306.61,887.02c-.83-1.74-1.41-3.59-1.72-5.49-.81-5.19-.69-10.48.36-15.62,2.25-13.14,9.47-30.14,18.84-47.95,4.66-8.92,9.37-17.27,13.59-24.93,4.22-7.65,7.8-14.6,11.26-20.24,3.45-5.64,6.36-10.13,8.48-13.16,1.06-1.5,1.91-2.67,2.48-3.45.28-.41.6-.8.95-1.14-.22.45-.47.88-.76,1.29l-2.31,3.56c-1.99,3.09-4.83,7.59-8.14,13.31-3.31,5.72-6.89,12.72-11.02,20.35-4.13,7.63-8.84,16.05-13.5,24.95-9.35,17.76-16.64,34.61-19.08,47.54-1.1,5.07-1.34,10.28-.72,15.43.57,3.62,1.42,5.51,1.29,5.55Z"/>
    <g class="cls-13">
      <path class="cls-2" d="M720.74,942.06l-99.92-139.89-25.03,8.86c29.17,33.91,42.56,79.85,74.99,110.58,12.21,11.57,26.62,20.48,40.93,29.29,3.45,2.12,23.82,10.6,26.26,7.29,2.1-2.8-15.22-13.4-17.23-16.13Z"/>
    </g>
    <path class="cls-1" d="M642.8,708.84s31.37,4.09,34.7,10.92c2,4.01,2.59,8.57,1.67,12.95l-1.99,17.38s8.67,12.27,9.67,22.83c1,10.56-6.36,12.95-6.36,12.95,1.22,4.08.9,8.47-.89,12.34-2.99,6.46-7.97,6.57-7.97,6.57l62.61,46.63,3.71,106.66s-24.16-12.72-52.18-43.24c-28.02-30.52-53.99-65.33-53.99-65.33l-27.55-37.22,38.58-103.44Z"/>
    <path class="cls-6" d="M559.35,682.48v4.51l16.02,130.99c.47,3.73,3.64,6.54,7.4,6.55h50.62c3.63,0,6.74-2.63,7.36-6.21l23.21-135.85h-104.6Z"/>
    <g class="cls-13">
      <path class="cls-2" d="M632.14,705.5c.2,5.46,2.25,10.69,5.81,14.84,3.55,4.09,7.56,7.78,11.93,10.98-12.56-2.53-25.34-3.8-38.15-3.79-2.46,0-5.26.19-6.85,2.12-1.82,2.12-1.08,5.53.15,8.12,4.02,7.65,10.48,13.75,18.36,17.32,7.83,3.51,16.03,6.14,24.44,7.84-13.24,1.68-26.7.23-39.28-4.24-3.29-1.17-7.72-2.12-9.58.74-1.5,2.35,0,5.45,1.65,7.72,8.18,11.28,19.55,19.85,32.64,24.61,2.17.61,4.22,1.59,6.06,2.9,2.33,1.43,3.05,4.47,1.63,6.79-1.12,1.83-3.3,2.72-5.38,2.22-2.33-.39-4.57-1.22-6.59-2.44-8.8-4.44-18.32-7.31-28.11-8.48,7.64,17.29,22.87,30.05,41.23,34.55.93-3.93-.65-8.02-3.96-10.32,5.87-.59,10.7-5.17,13.29-10.47,2.32-5.43,3.75-11.2,4.24-17.08,2.83-20.9,6.72-41.62,11.68-62.17"/>
    </g>
    <path class="cls-1" d="M669.27,741.87c-.4-.64-.61-5.72-9.54-8.9-8.92-3.18-52.52-8.9-53.16-8.9s-11,8.27,0,16.32c11,8.05,39.04,14.65,39.04,14.65l6.63,10.17-57.08-14.43s-8.1,10.41,1.44,16.96c9.54,6.55,43.39,17.38,43.39,17.38l4.37,6.15-1.67,6.78-38.83-12.06s-5.62,6.36-.42,12.08c5.19,5.72,30.52,17.08,30.52,17.08l8.05,4.6s-4.24,8.27,2.69,11.87c6.93,3.6,7.27,3.01,7.27,3.01,0,0,16.62-12.27,17.23-19.42s0-9.03,0-9.03l2.37-1.34"/>
    <path class="cls-1" d="M641.34,703.97c-.59-.97-8.9,0-8.9,0,0,0-4.24,8.92,8.9,16.6,13.14,7.67,18.19,11.11,18.19,11.11v2.33l15.79,15.64,1.4-25.44s2.95-8.37-4.24-11.64c-7.19-3.26-31.14-8.61-31.14-8.61Z"/>
    <g class="cls-13">
      <path class="cls-2" d="M569.71,685.02l-9.39,6.76c32.54,11.3,68.01,10.85,100.26-1.25l-90.87-5.51Z"/>
    </g>
    <rect class="cls-9" x="553.14" y="679.09" width="116.81" height="12.82"/>
    <path class="cls-9" d="M561.83,680.25c.36-1.17,5.19-15.45,5.19-15.45l89.26,1.44,6.61,15.13-101.06-1.12Z"/>
    <path class="cls-4" d="M669.95,679.09c0,.32-26.16.57-58.4.57s-58.42-.25-58.42-.57,26.16-.57,58.42-.57,58.4.25,58.4.57Z"/>
    <rect class="cls-4" x="569.84" y="670.78" width="34.46" height="4.77" rx="2.31" ry="2.31"/>
    <path class="cls-9" d="M469.63,798.21c-.12.59-.28,1.17-.49,1.74-.38,1.23-.91,2.88-1.57,4.94-1.38,4.41-3.35,10.6-5.74,18.19-4.85,15.35-11.26,36.65-19.5,59.82-8.25,23.17-17.34,43.66-26.69,56.91-3.54,5.33-7.92,10.06-12.97,13.99-1.41,1.01-2.91,1.9-4.47,2.65-.53.29-1.09.53-1.67.72,2.02-1.14,3.98-2.38,5.87-3.73,4.9-4.01,9.15-8.76,12.59-14.07,9.11-13.25,18.04-33.74,26.28-56.85,8.25-23.1,14.84-44.38,19.8-59.69,2.5-7.65,4.6-13.82,6.1-18.06.72-2.12,1.31-3.67,1.76-4.88.18-.58.42-1.14.7-1.67Z"/>
    <g class="cls-13">
      <path class="cls-2" d="M504.9,748.04c-1.61-1.25-1.19-5.09-2.69-3.69-21.66,20.31-34.38,62.27-44.51,90.25-10.13,27.98-17.66,55.47-29.89,82.66,12.59-7.46,19.9-15.98,24.42-29.91s6.93-28.57,12.97-41.9c4.94-11.6,11.13-22.63,18.48-32.88,9.09-13.33,22.36-39.98,21.56-56.11-.02-1.21.55-7.74-.34-8.44Z"/>
    </g>
    <path class="cls-8" d="M383.17,687.88s-10.73-4.24-17.23,10.6c-4.41,10.05-16.96,37.47-24.46,54.03-3.45,7.55,3.07,15.81,11.38,19.29,34.25,14.33,114.97,48.01,125.27,39.36,10.3-8.65,21.85-46.1,26.77-63.06,1.31-5.02-1.46-10.2-6.36-11.91l-115.37-48.31Z"/>
    <path class="cls-9" d="M383.17,687.88s.36,0,1.08.38l3.16,1.27,12.08,4.94,44.36,18.36,30.63,12.72,16.96,7.1,4.43,1.84c1.54.62,3.04,1.33,4.49,2.12,3.08,1.76,5.08,4.94,5.32,8.48,0,1.75-.31,3.48-.93,5.11l-1.46,4.9c-1,3.29-2.12,6.61-3.12,9.94-2.12,6.68-4.51,13.46-7.19,20.26-2.6,6.99-5.81,13.74-9.6,20.16-1.01,1.63-2.16,3.18-3.43,4.62l-1.04,1.04c-.17.17-.34.36-.53.53l-.68.4c-.44.28-.93.48-1.44.59-.48.16-.98.27-1.48.32-3.9.3-7.82.02-11.64-.83-7.51-1.52-14.92-3.48-22.19-5.87-7.21-2.27-14.22-4.71-21.2-7.19-13.71-4.98-26.81-10.15-39.23-15.2l-18.12-7.46-8.65-3.62c-2.89-1.08-5.57-2.67-7.91-4.68-2.32-1.94-4.11-4.43-5.19-7.25-1.03-2.75-.94-5.8.25-8.48,2.31-5.04,4.49-9.88,6.61-14.48,4.24-9.22,8.01-17.55,11.36-24.88l4.66-10.22c1.2-2.93,2.62-5.76,4.24-8.48,1.38-2.14,3.22-3.95,5.38-5.3,1.61-.94,3.42-1.51,5.28-1.65,1.14-.08,2.3.01,3.41.28.38.08.75.2,1.1.36l-1.14-.25c-1.1-.21-2.23-.26-3.35-.15-1.82.18-3.57.77-5.13,1.72-2.1,1.34-3.87,3.13-5.19,5.24-1.58,2.72-2.96,5.56-4.13,8.48-1.4,3.14-2.93,6.57-4.58,10.24l-11.21,24.95-6.53,14.52c-1.12,2.5-1.2,5.35-.21,7.91,1.06,2.66,2.77,5.01,4.96,6.85,2.27,1.94,4.87,3.47,7.67,4.49l8.65,3.6,18.12,7.42c12.44,5,25.44,10.15,39.23,15.11,6.85,2.48,13.86,4.9,21.05,7.16,7.23,2.37,14.6,4.31,22.07,5.81,3.7.83,7.5,1.11,11.28.83.45-.04.89-.13,1.31-.28.42-.08.83-.25,1.19-.49l.53-.3c.17-.15.34-.34.49-.49l.98-.97c1.23-1.39,2.34-2.89,3.31-4.47,3.77-6.35,6.95-13.02,9.52-19.95,2.67-6.76,5.02-13.52,7.21-20.18,1.08-3.33,2.12-6.66,3.12-9.92.51-1.65,1-3.29,1.48-4.9.58-1.52.88-3.14.89-4.77-.2-3.2-2.01-6.08-4.81-7.65-1.41-.74-2.86-1.4-4.35-1.97l-4.43-1.87-16.96-7.14-30.56-12.84-44.24-18.69-12-5.13-3.12-1.38-.89-.66Z"/>
    <path class="cls-9" d="M743.75,586.12c-.42.95-.92,1.87-1.5,2.73l-4.37,7.27c-3.65,6.17-8.48,14.84-13.5,24.48-5.02,9.64-9.01,18.74-11.85,25.31l-3.33,7.8c-.36.98-.8,1.92-1.31,2.82.22-1.02.52-2.02.91-2.99.66-1.89,1.67-4.6,2.99-7.95,2.65-6.66,6.63-15.75,11.59-25.44,4.96-9.69,9.98-18.31,13.82-24.38,1.93-3.03,3.52-5.47,4.66-7.1.54-.92,1.17-1.77,1.89-2.56Z"/>
    <path class="cls-9" d="M372.4,677.98c-.58-.64-1.08-1.35-1.48-2.12l-3.75-6.06c-3.2-5.09-7.76-12.02-13.21-19.39-5.45-7.38-10.77-13.78-14.71-18.31l-4.58-5.4c-.62-.65-1.17-1.36-1.65-2.12.72.51,1.38,1.1,1.97,1.76,1.21,1.17,2.93,2.93,4.96,5.13,5.33,5.78,10.35,11.84,15.03,18.17,4.67,6.32,9,12.89,12.97,19.67,1.5,2.61,2.69,4.75,3.45,6.25.41.78.74,1.6,1,2.44Z"/>
    <polyline class="cls-1" points="358.9 450.36 364.94 498.86 384.61 535.97"/>
    <path class="cls-12" d="M384.61,535.97c-.64-.88-1.21-1.81-1.7-2.78-1.12-1.99-2.59-4.62-4.24-7.8-3.62-6.63-8.61-15.9-14.12-26.28h0v-.11c-.13-1.08-.28-2.12-.42-3.39-1.55-12.46-2.88-23.74-3.82-31.92-.4-3.94-.76-7.21-1.02-9.69-.16-1.18-.24-2.37-.23-3.56.33,1.15.55,2.33.66,3.52.36,2.46.83,5.7,1.4,9.64,1.1,8.14,2.59,19.39,4.13,31.79.15,1.17.3,2.33.42,3.41v-.21c5.49,10.41,10.34,19.71,13.8,26.45,1.65,3.24,2.99,5.91,4.03,7.97.45.95.82,1.94,1.1,2.95Z"/>
    <path class="cls-1" d="M462.65,570.22s16.49,18.46,15.09,36.39c-1.4,17.93-11.76,112.34-11.76,112.34"/>
    <path class="cls-12" d="M467.06,719.17l-2.12-.23c.11-.95,10.39-94.68,11.76-112.34,1.36-17.25-14.67-35.4-14.84-35.57l1.61-1.46c.68.78,16.79,19.08,15.37,37.2-1.4,17.68-11.68,111.45-11.78,112.4Z"/>
    <path class="cls-12" d="M463.84,602.23c.11.64-9.5,2.69-21.45,4.64-11.95,1.95-21.7,3.01-21.81,2.4s9.5-2.69,21.45-4.62c11.95-1.93,21.7-3.03,21.81-2.42Z"/>
    <path class="cls-12" d="M647.02,834.71c-.11-.38,3.5-1.19,8.2-4.41,2.71-1.91,5.13-4.22,7.16-6.85,2.47-3.2,4.25-6.87,5.26-10.79.3-1.04.42-2.12.61-3.12.1-1.13.3-2.25.59-3.35.37-1.24,1.18-2.3,2.27-2.99.91-.54,1.86-.98,2.86-1.31,2.95-1.2,5.18-3.69,6.04-6.76.59-2.12.59-4.35,0-6.46-.45-1.5-.91-2.29-.76-2.4s.85.55,1.59,2.12c.98,2.26,1.19,4.77.61,7.16-.38,1.67-1.1,3.24-2.12,4.62-1.19,1.62-2.81,2.88-4.66,3.65-.86.33-1.69.73-2.48,1.21-.67.43-1.16,1.09-1.36,1.87-.23.97-.38,1.95-.47,2.95-.16,1.14-.38,2.27-.66,3.39-1.07,4.22-3.05,8.16-5.81,11.53-2.23,2.73-4.91,5.06-7.93,6.89-5.11,3.03-8.94,3.26-8.97,3.05Z"/>
    <path class="cls-9" d="M803.82,958.02c-.14-.6-.21-1.21-.23-1.82-.11-1.29-.25-3.03-.47-5.21-.4-4.56-1.06-11.11-2.33-19.08-1.51-9.44-3.57-18.78-6.17-27.98-2.93-10.36-6.57-21.66-10.87-33.3-4.3-11.64-10.09-22.17-17.8-29.67-1.84-1.83-3.85-3.48-6-4.94-2.06-1.32-4.24-2.44-6.51-3.35-4.07-1.63-8.35-2.66-12.72-3.05-3.63-.34-7.28-.22-10.87.36-2.71.46-5.35,1.28-7.84,2.44-2.1,1.05-4.12,2.27-6.02,3.65.43-.44.89-.85,1.38-1.23.55-.5,1.16-.94,1.8-1.31.84-.58,1.72-1.08,2.65-1.5,2.51-1.24,5.18-2.13,7.93-2.65,3.64-.66,7.35-.85,11.04-.55,4.48.34,8.89,1.35,13.08,2.99,2.34.92,4.59,2.05,6.72,3.37,2.2,1.49,4.27,3.18,6.17,5.04,7.91,7.57,13.74,18.33,18.14,29.97,4.41,11.64,7.93,23,10.83,33.43,2.55,9.22,4.54,18.58,5.96,28.04,1.14,8.1,1.72,14.69,1.97,19.25.17,2.27.21,4.05.25,5.26.03.62,0,1.25-.08,1.87Z"/>
    <path class="cls-9" d="M795.26,845.03c-.15.15-2.35-2.12-6.36-5.43-5.25-4.18-11.2-7.41-17.57-9.52-6.41-1.99-13.13-2.76-19.82-2.27-5.13.4-8.27,1.14-8.31.93.68-.3,1.39-.52,2.12-.66,2-.5,4.03-.85,6.08-1.06,6.81-.74,13.69-.06,20.22,1.99,6.51,2.14,12.53,5.52,17.74,9.96,1.57,1.31,3.05,2.73,4.43,4.24.56.54,1.05,1.14,1.46,1.8Z"/>
    <g class="cls-13">
      <path class="cls-2" d="M807.34,911.05c-2.12-35.72-17.15-79.95-62.85-81.84l6.36,1.82c20.81,10.2,24.67,22.17,31.39,37.31,6.72,15.13,10.45,31.35,15.28,47.18.33,2.02,1.52,3.8,3.26,4.88,2.28.67,4.71-.43,5.7-2.59.9-2.13,1.19-4.47.85-6.76Z"/>
    </g>
    <path class="cls-8" d="M625.93,540.82c8.82,20.73,14.67,35.16,23.49,55.89-20.76-5.93-40.55-14.87-58.73-26.52-1.78,10.48-5.65,20.49-11.38,29.44"/>
    <path class="cls-9" d="M579.29,599.64s.36-.7,1.08-1.97,1.76-3.16,2.95-5.66c3.32-6.93,5.65-14.29,6.91-21.87l.11-.68.57.36c13.16,8.31,27.13,15.26,41.69,20.75,5.79,2.12,11.49,4.05,16.96,5.62l-.66.74c-6.63-16-12.42-29.95-16.62-40.04-1.99-4.94-3.6-8.9-4.75-11.76l-1.25-3.18c-.15-.36-.27-.74-.36-1.12.22.33.4.68.55,1.04l1.4,3.12,5.07,11.64,16.96,39.89.45,1.06-1.1-.32c-5.49-1.55-11.23-3.43-16.96-5.62-14.65-5.5-28.66-12.56-41.8-21.05l.7-.3c-1.34,7.64-3.82,15.04-7.33,21.96-1.27,2.48-2.4,4.24-3.18,5.55-.4.64-.72,1.08-.95,1.4s-.4.47-.42.45Z"/>
    <g class="cls-13">
      <path class="cls-2" d="M630.65,551.97h0c-.13.19,0,.11,0,0,6.36,15.26,11.62,27.94,18.76,44.74-20.76-5.93-40.55-14.87-58.73-26.52-1.78,10.48-5.65,20.49-11.38,29.44,3.79-3.35,10.3-13.95,14.1-17.3,22,8.35,43.69,22.11,65.71,30.48-6.85-21.62-16.91-41.33-28.45-60.85Z"/>
    </g>
    <path class="cls-9" d="M587.52,562.95c-.3,0-4.24-10.32-8.97-23.32-4.73-12.99-8.18-23.57-7.91-23.68s4.24,10.32,8.97,23.32c4.73,12.99,8.18,23.57,7.91,23.68Z"/>
  </g>
  <g id="freepik--Device--inject-2">
    <path class="cls-3" d="M49.54,715.03h259.57c8.61,0,16.83,4.49,18.1,13.71l34.59,211.96h136.59c4.78.33,8.38,4.48,8.04,9.25-.3,4.31-3.73,7.74-8.04,8.04H62.15l-29.82-221.27c-1.59-11.42,6.55-21.7,17.21-21.7Z"/>
    <path class="cls-9" d="M49.54,715.03c-1.51.09-3.01.33-4.47.72-4.27,1.31-7.87,4.2-10.07,8.08-1.65,2.8-2.57,5.97-2.67,9.22-.03,1.87.11,3.75.42,5.6.28,1.95.55,3.98.85,6.08,1.14,8.48,2.48,18.19,3.98,29.12l24.99,184.13-.42-.38,421.8-.13h14.43c.89,0,1.77-.17,2.59-.51,1.67-.68,3.03-1.94,3.86-3.54,1.72-3.27,1.17-7.27-1.38-9.94-1.23-1.28-2.91-2.04-4.68-2.12h-137.44v-.45c-11.57-71.13-22.38-137.5-32.07-197.12-.61-3.7-1.21-7.4-1.8-11.09-.32-1.8-.57-3.69-.93-5.43-.4-1.73-1.12-3.37-2.12-4.83-2.07-2.89-5.06-5-8.48-5.98-1.68-.51-3.42-.82-5.17-.93h-119.52l-104.07-.17h-37.47,37.47l104.07-.17h119.57c1.83.11,3.65.44,5.4.97,3.62,1.05,6.79,3.29,8.99,6.36,1.08,1.56,1.87,3.31,2.31,5.15.4,1.87.64,3.67.95,5.51.59,3.67,1.2,7.37,1.82,11.09,9.73,59.52,20.58,125.88,32.2,197l-.53-.45h136.97c1.94-.05,3.83.61,5.32,1.84,2.89,3.02,3.52,7.56,1.57,11.26-.95,1.83-2.52,3.27-4.43,4.07-.96.38-1.98.57-3.01.57h-14.43l-421.8-.13h-.4v-.38c-10.36-77.28-18.8-140.44-24.65-184.15-1.44-10.94-2.73-20.69-3.86-29.12-.28-2.12-.55-4.24-.81-6.1-.32-1.86-.45-3.75-.4-5.64.12-3.3,1.08-6.52,2.78-9.35,2.24-3.91,5.91-6.81,10.24-8.08,1.1-.31,2.23-.49,3.37-.55l1.14-.04Z"/>
    <path class="cls-11" d="M202.83,833.88c0,9.95-8.07,18.02-18.02,18.02s-18.02-8.07-18.02-18.02,8.07-18.02,18.02-18.02h.02c9.94,0,18,8.06,18,18,0,0,0,.01,0,.02Z"/>
    <path class="cls-9" d="M348.55,955.91c-.4,0-9.56-53.33-20.45-119.25-10.89-65.92-19.37-119.42-19.08-119.48s9.56,53.31,20.45,119.25,19.48,119.42,19.08,119.48Z"/>
  </g>
</svg>