<?xml version="1.0" encoding="UTF-8"?>
<svg id="Layer_2" data-name="Layer 2" xmlns="http://www.w3.org/2000/svg" viewBox="0 0 1000 1000">
  <defs>
    <style>
      .cls-1 {
        fill: #ff9a6c;
      }

      .cls-1, .cls-2, .cls-3, .cls-4, .cls-5, .cls-6, .cls-7, .cls-8, .cls-9, .cls-10, .cls-11, .cls-12, .cls-13, .cls-14, .cls-15 {
        stroke-width: 0px;
      }

      .cls-2 {
        fill: #000;
      }

      .cls-3 {
        fill: #e0e0e0;
      }

      .cls-16 {
        opacity: .2;
      }

      .cls-4 {
        fill: #eb996e;
      }

      .cls-5 {
        fill: #455a64;
      }

      .cls-6 {
        fill: #f5f5f5;
      }

      .cls-7 {
        fill: #09f;
      }

      .cls-8 {
        fill: #ffbe9d;
      }

      .cls-9 {
        fill: #ebebeb;
      }

      .cls-10 {
        fill: #40bbff;
      }

      .cls-11 {
        fill: #263238;
      }

      .cls-12 {
        fill: #ffbf9d;
      }

      .cls-13 {
        fill: #fafafa;
      }

      .cls-14 {
        fill: #6f4439;
      }

      .cls-17 {
        opacity: .3;
      }

      .cls-18 {
        opacity: .6;
      }

      .cls-15 {
        fill: #fff;
      }

      .cls-19 {
        opacity: .4;
      }
    </style>
  </defs>
  <g id="freepik--background-complete--inject-67">
    <rect class="cls-3" x="829.53" y="203.22" width="134.56" height="195.05"/>
    <rect class="cls-6" x="822.79" y="203.22" width="134.56" height="195.05"/>
    <rect class="cls-15" x="839.5" y="224.36" width="101.13" height="152.8"/>
    <path class="cls-3" d="M940.63,377.15v-11.3c0-7.33,0-18-.09-31.48,0-26.86-.1-65.1-.16-110.02l.33.33h-101.11l.37-.36c0,57.64,0,110.78-.07,152.8l-.3-.3,73.61.15,20.34.07h7.18-27.33l-73.8.15h-.28v-153.19h101.83v.34c-.07,45.01-.13,83.25-.16,110.25,0,13.43-.07,24.09-.09,31.34v10.45c0,.49-.25.76-.25.76Z"/>
    <path class="cls-3" d="M957.74,203.22c-.69,1.23-1.5,2.4-2.4,3.49-1.57,2.09-3.78,4.93-6.31,8-2.54,3.07-4.9,5.81-6.66,7.73-.9,1.08-1.9,2.08-2.98,2.98.76-1.19,1.62-2.31,2.57-3.36l6.48-7.87c2.46-2.98,4.67-5.67,6.48-7.87.85-1.12,1.8-2.16,2.84-3.12Z"/>
    <path class="cls-15" d="M941.15,376.66c5.03,8,10.95,15.4,17.64,22.06"/>
    <path class="cls-3" d="M958.79,398.72c-1.12-.83-2.15-1.77-3.07-2.81-2.35-2.37-4.57-4.86-6.66-7.46-2.07-2.63-4.01-5.36-5.81-8.18-.81-1.13-1.49-2.34-2.04-3.61.91,1.04,1.74,2.15,2.48,3.31,1.49,2.09,3.57,4.94,5.97,7.98,2.4,3.04,4.76,5.7,6.46,7.6.97.99,1.86,2.05,2.67,3.16Z"/>
    <path class="cls-15" d="M822.77,398.12c5.88-7.25,11.76-14.5,17.63-21.75"/>
    <path class="cls-3" d="M840.4,376.38c-2.66,3.84-5.5,7.55-8.54,11.1-2.85,3.7-5.88,7.25-9.09,10.64,2.64-3.85,5.48-7.56,8.52-11.1,2.84-3.71,5.88-7.26,9.1-10.64Z"/>
    <path class="cls-3" d="M822.79,203.22c3.03,3.25,5.88,6.67,8.54,10.24,2.86,3.41,5.52,6.97,7.98,10.67-3.04-3.25-5.89-6.66-8.55-10.22-2.85-3.42-5.51-6.98-7.97-10.69Z"/>
    <rect class="cls-3" x="875.26" y="255.37" width="33.86" height="96.14"/>
    <rect class="cls-3" x="50.5" y="203.22" width="134.56" height="195.05"/>
    <rect class="cls-6" x="43.76" y="203.22" width="134.56" height="195.05"/>
    <rect class="cls-15" x="60.47" y="224.36" width="101.13" height="152.8"/>
    <path class="cls-3" d="M161.6,377.15v-11.3c0-7.33,0-18-.1-31.48,0-26.86-.09-65.1-.16-110.02l.34.33H60.56l.37-.36v152.8l-.3-.3,73.61.15,20.34.07h7.18-27.34l-73.79.15h-.28v-153.19h101.82v.34c0,45.01-.12,83.25-.16,110.25,0,13.43,0,24.09-.09,31.34v10.45c0,.49-.31.76-.31.76Z"/>
    <path class="cls-3" d="M178.69,203.22c-.68,1.24-1.48,2.41-2.39,3.49-1.57,2.09-3.79,4.93-6.31,8s-4.91,5.81-6.66,7.73c-.9,1.08-1.9,2.08-2.98,2.98.75-1.2,1.61-2.32,2.57-3.36l6.48-7.87,6.48-7.87c.86-1.11,1.8-2.16,2.82-3.12Z"/>
    <path class="cls-15" d="M162.11,376.66c5.03,7.99,10.95,15.39,17.64,22.06"/>
    <path class="cls-3" d="M179.75,398.72c-1.11-.83-2.14-1.77-3.07-2.81-1.81-1.82-4.19-4.48-6.66-7.46-2.08-2.62-4.03-5.35-5.82-8.18-.81-1.13-1.5-2.34-2.06-3.61.92,1.04,1.75,2.14,2.49,3.31,1.49,2.09,3.57,4.94,5.97,7.98,2.4,3.04,4.75,5.7,6.46,7.6.97.99,1.87,2.04,2.69,3.16Z"/>
    <path class="cls-15" d="M43.74,398.12c5.86-7.25,11.74-14.5,17.63-21.75"/>
    <path class="cls-3" d="M61.37,376.38c.15.12-3.67,5.09-8.54,11.1-2.85,3.7-5.88,7.25-9.09,10.64,2.64-3.85,5.48-7.56,8.52-11.1,2.84-3.71,5.88-7.26,9.1-10.64Z"/>
    <path class="cls-3" d="M43.76,203.22c3.01,3.26,5.85,6.68,8.51,10.24,2.85,3.41,5.52,6.97,7.98,10.67-3.04-3.24-5.9-6.66-8.55-10.22-2.84-3.41-5.49-6.98-7.94-10.69Z"/>
    <rect class="cls-3" x="96.23" y="255.37" width="33.86" height="96.14"/>
    <path class="cls-3" d="M189.93,392.94c5.6-2.16,11.46-3.58,17.43-4.19l6.16-15.49,27.15,4.3,1.13,16.6c5.5,2.42,10.64,5.57,15.3,9.36l15.25-6.57,16.16,22.24-10.94,12.49c2.17,5.6,3.57,11.46,4.18,17.43l15.39,6.24-4.28,27.16-16.58,1.09c-2.42,5.49-5.57,10.64-9.36,15.3l6.55,15.25-22.24,16.16-12.42-10.98c-5.59,2.17-11.45,3.57-17.42,4.18l-6.24,15.42-27.09-4.27-1.16-16.63c-5.47-2.42-10.6-5.55-15.25-9.31l-15.25,6.55-16.18-22.24,10.95-12.49c-2.17-5.6-3.58-11.46-4.19-17.43l-15.43-6.15,4.28-27.15,16.58-1.1c2.43-5.49,5.58-10.63,9.36-15.28l-6.54-15.27,22.24-16.16,12.49,10.95h-.04ZM198.02,431.54c-13.18,9.57-16.1,28.02-6.52,41.19,9.57,13.18,28.02,16.1,41.19,6.52,13.18-9.57,16.1-28.02,6.52-41.19h0c-9.57-13.18-28.02-16.1-41.19-6.52Z"/>
    <path class="cls-6" d="M81.78,538.23c3.57-1.38,7.3-2.28,11.1-2.67l3.93-9.84,17.3,2.75.7,10.57c3.5,1.54,6.78,3.55,9.75,5.97l9.73-4.18,10.3,14.16-6.97,7.97c1.37,3.57,2.27,7.3,2.66,11.1l9.84,3.93-2.73,17.3-10.57.7c-1.55,3.5-3.56,6.78-5.97,9.75l4.18,9.72-14.1,10.3-7.97-6.98c-3.56,1.38-7.3,2.28-11.1,2.67l-3.93,9.84-17.3-2.73-.76-10.52c-3.48-1.56-6.73-3.56-9.69-5.97l-9.72,4.18-10.3-14.16,6.97-7.97c-1.38-3.57-2.28-7.3-2.67-11.1l-9.84-3.93,2.73-17.3,10.58-.7c1.54-3.5,3.55-6.78,5.97-9.75l-4.18-9.78,14.16-10.3,7.97,6.98h-.07ZM86.93,562.8c-8.39,6.1-10.25,17.86-4.14,26.25,6.1,8.39,17.86,10.25,26.25,4.14,8.39-6.1,10.25-17.85,4.15-26.24-6.1-8.39-17.85-10.25-26.25-4.15,0,0,0,0,0,0Z"/>
    <path class="cls-6" d="M577.74,512.71c3.31-1.27,6.78-2.09,10.31-2.45l3.63-9.07,15.95,2.52.66,9.75c3.22,1.43,6.23,3.28,8.95,5.51l8.95-3.87,9.51,13.07-6.43,7.34c1.27,3.29,2.1,6.74,2.46,10.25l9.07,3.63-2.54,15.95-9.75.66c-1.43,3.22-3.27,6.23-5.49,8.95l3.85,8.95-13.07,9.51-7.34-6.43c-3.29,1.27-6.74,2.1-10.25,2.46l-3.69,9.16-15.95-2.52-.64-9.76c-3.22-1.42-6.23-3.27-8.95-5.49l-8.95,3.85-9.51-13.07,6.43-7.34c-1.27-3.29-2.1-6.74-2.45-10.25l-9.09-3.61,2.54-15.97,9.75-.64c1.43-3.21,3.28-6.22,5.49-8.95l-3.85-8.95,13.07-9.51,7.34,6.43v-.1ZM582.5,535.41c-7.75,5.63-9.47,16.47-3.84,24.22,5.63,7.75,16.47,9.47,24.22,3.84,7.75-5.63,9.47-16.47,3.84-24.22,0,0,0,0,0,0-5.63-7.75-16.47-9.46-24.22-3.84Z"/>
    <path class="cls-9" d="M830.31,497.13c5.04-1.95,10.32-3.21,15.7-3.76l5.55-13.91,24.54,3.85,1,14.92c4.94,2.19,9.57,5.03,13.78,8.43l13.75-5.97,14.57,20.04-9.87,11.25c1.96,5.05,3.23,10.33,3.78,15.72l13.91,5.54-3.87,24.48-14.92.99c-2.19,4.95-5.02,9.58-8.43,13.78l5.97,13.76-20.04,14.57-11.27-9.87c-5.04,1.95-10.32,3.22-15.7,3.78l-5.55,13.91-24.46-3.88-1-14.92c-4.95-2.19-9.58-5.02-13.78-8.43l-13.75,5.97-14.57-20.04,9.87-11.25c-1.95-5.04-3.22-10.32-3.78-15.7l-13.91-5.55,3.87-24.48,14.92-.99c2.18-4.95,5.01-9.58,8.42-13.78l-5.97-13.76,20.04-14.57,11.27,9.87h-.06ZM837.58,531.92c-11.88,8.63-14.51,25.25-5.88,37.13,8.63,11.88,25.25,14.51,37.13,5.88,11.87-8.63,14.51-25.25,5.88-37.12-8.63-11.88-25.25-14.52-37.13-5.9h0Z"/>
    <path class="cls-6" d="M280.95,269.19c3.71-1.44,7.6-2.37,11.57-2.78l4.09-10.25,18.03,2.85.73,11.01c3.64,1.61,7.06,3.7,10.15,6.21l10.13-4.36,10.73,14.78-7.27,8.28c1.43,3.72,2.37,7.62,2.78,11.58l10.24,4.09-2.87,18.03-11,.73c-1.62,3.64-3.7,7.05-6.21,10.15l4.34,10.12-14.76,10.75-8.3-7.27c-3.72,1.43-7.61,2.37-11.57,2.78l-4.09,10.24-18.03-2.85-.73-11c-3.64-1.62-7.05-3.7-10.15-6.21l-10.13,4.34-10.73-14.76,7.27-8.3c-1.43-3.72-2.37-7.61-2.78-11.57l-10.25-4.09,2.85-18.03,11.01-.73c1.62-3.64,3.7-7.05,6.21-10.15l-4.36-10.13,14.78-10.73,8.3,7.27h.01ZM286.31,294.81c-8.75,6.36-10.68,18.61-4.32,27.35,6.36,8.75,18.61,10.68,27.35,4.32,8.74-6.36,10.68-18.6,4.33-27.35-6.36-8.74-18.61-10.68-27.36-4.33h0Z"/>
    <path class="cls-3" d="M715.52,546.92c2.83-1.09,5.8-1.8,8.82-2.12l3.1-7.81,13.73,2.18.55,8.37c2.78,1.23,5.38,2.82,7.73,4.73l7.72-3.31,8.18,11.24-5.54,6.33c1.1,2.83,1.81,5.79,2.12,8.81l7.81,3.12-2.18,13.73-8.37.55c-1.24,2.77-2.83,5.37-4.73,7.73l3.31,7.72-11.25,8.18-6.24-5.54c-2.83,1.09-5.79,1.8-8.81,2.1l-3.13,7.81-13.73-2.16-.55-8.39c-2.78-1.22-5.38-2.82-7.73-4.73l-7.84,3.31-8.18-11.24,5.54-6.31c-1.09-2.83-1.8-5.8-2.12-8.82l-7.79-3.1,2.16-13.73,8.39-.55c1.22-2.78,2.81-5.38,4.73-7.73l-3.31-7.72,11.24-8.18,6.31,5.54h.06ZM719.61,566.44c-6.65,4.87-8.1,14.21-3.23,20.86,4.87,6.65,14.21,8.1,20.86,3.23,6.63-4.85,8.09-14.15,3.27-20.81-4.84-6.67-14.17-8.16-20.84-3.32-.02.01-.03.02-.05.04h0Z"/>
    <path class="cls-6" d="M323.46,510.95c2.23-.87,4.56-1.43,6.94-1.67l2.45-6.18,10.82,1.72.43,6.6c2.19.97,4.24,2.22,6.09,3.73l6.09-2.61,6.43,8.87-4.36,4.97c.87,2.23,1.43,4.56,1.67,6.94l6.15,2.46-1.72,10.82-6.6.43c-.97,2.19-2.22,4.23-3.73,6.09l2.6,6.1-8.87,6.45-4.95-4.36c-2.23.86-4.56,1.41-6.94,1.66l-2.46,6.15-10.82-1.7-.43-6.61c-2.19-.96-4.24-2.22-6.09-3.73l-6.07,2.63-6.45-8.84,4.36-4.98c-.86-2.23-1.42-4.56-1.66-6.94l-6.15-2.45,1.7-10.82,6.61-.43c.96-2.19,2.22-4.24,3.73-6.09l-2.61-6.09,8.85-6.43,4.98,4.36v-.03ZM326.67,526.32c-5.24,3.82-6.4,11.16-2.59,16.41,3.82,5.24,11.16,6.4,16.41,2.59,5.24-3.81,6.4-11.15,2.59-16.4-3.82-5.24-11.16-6.4-16.42-2.6Z"/>
    <path class="cls-3" d="M428.18,512.58c5.66-2.18,11.59-3.6,17.63-4.22l6.22-15.61,27.46,4.34,1.1,16.76c5.54,2.46,10.74,5.64,15.45,9.46l15.43-6.63,16.42,22.49-11.07,12.63c2.2,5.66,3.62,11.59,4.24,17.63l15.6,6.22-4.33,27.46-16.78,1.12c-2.45,5.55-5.63,10.74-9.46,15.45l6.63,15.43-22.48,16.42-12.63-11.12c-5.66,2.19-11.59,3.61-17.63,4.24l-6.25,15.58-27.46-4.34-1.1-16.76c-5.55-2.45-10.75-5.63-15.46-9.46l-15.43,6.63-16.34-22.48,11.06-12.64c-2.18-5.66-3.6-11.59-4.22-17.63l-15.61-6.22,4.34-27.46,16.76-1.1c2.46-5.55,5.64-10.75,9.46-15.46l-6.63-15.43,22.49-16.34,12.63,11.06h-.03ZM436.36,551.62c-13.34,9.68-16.31,28.35-6.63,41.69,9.68,13.34,28.35,16.31,41.69,6.63,13.34-9.68,16.31-28.35,6.63-41.69-.01-.02-.02-.03-.03-.05-9.69-13.3-28.33-16.25-41.65-6.58h0Z"/>
  </g>
  <g id="freepik--Floor--inject-67">
    <path class="cls-11" d="M984.06,812.92c0,.21-216.73.39-484.03.39s-484.09-.18-484.09-.39,216.69-.39,484.09-.39,484.03.16,484.03.39Z"/>
  </g>
  <g id="freepik--Target--inject-67">
    <polyline class="cls-5" points="789.98 731.34 769.64 813.86 785.52 813.86 806.52 737.49 792.34 733.43"/>
    <polyline class="cls-5" points="891.53 731.34 911.87 813.86 895.99 813.86 874.99 737.49 889.17 733.43"/>
    <circle class="cls-7" cx="843.05" cy="685.57" r="85.94"/>
    <g class="cls-17">
      <circle class="cls-2" cx="843.05" cy="685.57" r="85.94"/>
    </g>
    <circle class="cls-7" cx="840.76" cy="674.76" r="85.94" transform="translate(-230.87 792.14) rotate(-45)"/>
    <circle class="cls-15" cx="840.78" cy="674.74" r="57.56"/>
    <path class="cls-7" d="M868.92,675.39c-.38,15.56-13.31,27.86-28.86,27.47-15.56-.38-27.86-13.31-27.47-28.86.38-15.56,13.31-27.86,28.86-27.47,0,0,0,0,.01,0,15.55.39,27.85,13.31,27.46,28.86Z"/>
    <polygon class="cls-5" points="902.2 613.29 900.32 594.9 919.48 575.4 920.33 595.22 902.2 613.29"/>
    <polygon class="cls-5" points="942.62 599.71 923.72 597.69 904.29 615.47 923.23 617.98 942.62 599.71"/>
    <g class="cls-17">
      <path class="cls-2" d="M844.53,674.38l66.94-48.52c-2.37-3.62-5.04-7.05-7.97-10.24l-58.86,54.28-.1,4.48Z"/>
    </g>
    <path class="cls-11" d="M921.17,592.47l-27.42,26.07-43.49,41.39-10,9.51c-3.16,2.98,1.49,7.91,4.72,4.9l27.42-26.09,43.49-41.37,10-9.52c3.16-2.98-1.49-7.9-4.72-4.88Z"/>
  </g>
  <g id="freepik--light-bulb--inject-67">
    <path class="cls-7" d="M291.06,712.95c.95-27.56-20.63-50.68-48.19-51.62-.65-.02-1.3-.03-1.96-.03-28.27.15-51.65,23.48-52.24,52.12-.59,19.82,10.51,38.13,28.36,46.77-.13,6.15-.27,13.07-.27,13.07l44.77-.22s.43-7.34.66-13.89c17.31-8.99,28.37-26.69,28.86-46.19Z"/>
    <path class="cls-15" d="M234.15,772.83c0-16.82,1.27-33.64,1.06-50.46,0-3.4-.15-6.81-.48-10.18-.4-4.24-1.28-8.95-5.13-11.28-1.69-1.09-3.79-1.33-5.69-.66-1.81.82-3.28,2.26-4.12,4.06-1.87,3.86-2.53,8.19-1.91,12.43.9,8.35,6.4,15.48,14.24,18.49,8.12,2.9,17.17,1.08,23.54-4.73,6.19-5.82,9.66-15.85,6.85-23.98-1.21-3.51-4.15-7.46-8.3-6.95-4.15.51-5.97,4.48-6.97,8.06-.92,4.17-1.5,8.42-1.73,12.69-.45,4.9-.76,9.81-1.01,14.72-.55,10.1-.85,20.21-1.39,30.33-.12,2.22-.25,4.48-.4,6.69,0,.76,1.1.7,1.15,0,1.24-17.91,1.21-35.82,2.98-53.73.19-4.04.85-8.05,1.96-11.94.56-1.91,1.72-3.59,3.31-4.78,1.71-1.11,3.93-1.07,5.6.1,3.55,2.37,4.61,7.22,4.48,11.3-.09,4.26-1.33,8.43-3.58,12.04-4.45,7.24-12.69,11.25-21.13,10.3-8.13-.92-14.96-6.54-17.43-14.34-1.27-3.81-1.52-7.89-.72-11.82.82-3.93,3.37-9.46,8.24-7.97,4.87,1.49,5.64,6.87,6.04,11.16.28,2.98.37,5.97.43,8.95.28,15.58-.69,31.18-.99,46.77v4.73c0,.75,1.15.7,1.16,0h-.06Z"/>
    <g id="freepik--2ggvdetif--inject-67">
      <path class="cls-5" d="M228.76,799.62c1.08.73,2.05,1.62,2.88,2.63.57.72,1.44,1.14,2.36,1.13h8.95c1.03,0,1.99-.51,2.57-1.36.72-1.16,1.82-2.03,3.12-2.45l-19.88.04Z"/>
    </g>
    <path class="cls-11" d="M219.49,774.22c0,.18,1.81,14.46,2.51,19.91.24,2.23,1.61,4.18,3.63,5.16.8.36,1.67.55,2.55.55l19.75-.12s5.15,0,6.4-4.18c1.25-4.18,3.98-21.55,3.98-21.55l-38.82.22Z"/>
    <path class="cls-3" d="M255.63,793.62l-34.33.33c-.53,0-.96-.43-.96-.95,0-.01,0-.02,0-.03v-.1c0-.55.44-.99.99-1l34.33-.33c.53,0,.96.41.97.94,0,.02,0,.03,0,.05v.12c-.02.54-.46.98-1,.99Z"/>
    <path class="cls-11" d="M255.63,793.62c.25-.03.49-.14.67-.31.21-.22.31-.53.27-.84,0-.41-.3-.77-.7-.85-1.87,0-4.64,0-8.03.1l-26.57.3c-.28,0-.53.14-.69.37-.07.12-.12.25-.13.39-.03.14-.03.28,0,.42.07.26.27.46.52.54.3.02.6.02.9,0h10.79l11.94-.07h10.81-2.76l-8.04.13-11.94.15h-11.27c-.17.03-.35.03-.52,0-.36-.12-.64-.41-.75-.78-.03-.18-.03-.36,0-.54.07-.6.56-1.06,1.16-1.07l26.55-.19h8.06c.45.11.76.51.78.97.03.33-.09.66-.33.9-.16.24-.43.38-.72.39Z"/>
    <path class="cls-3" d="M256.45,789.11l-35.82.34c-.53,0-.96-.43-.96-.95,0-.01,0-.02,0-.03v-.1c0-.55.44-.99.99-1l35.82-.34c.54,0,.97.43.97.97,0,0,0,.01,0,.02v.15c-.02.53-.46.96-1,.96Z"/>
    <path class="cls-11" d="M256.45,789.11c.57-.05,1-.56.95-1.13,0-.03,0-.05,0-.08-.05-.42-.38-.76-.81-.81l-8.36.12-27.6.31c-.29,0-.55.16-.7.4-.07.12-.11.26-.12.4-.03.14-.03.29,0,.43.1.26.33.45.61.49h12.15l12.4-.09h11.22-2.87l-8.36.13-12.4.16-7.33.07h-4.9c-.39-.08-.71-.35-.85-.72-.04-.19-.04-.38,0-.57,0-.2.06-.4.16-.57.21-.35.59-.56,1-.57l27.58-.21h8.37c.48.06.85.45.9.93.04.34-.07.68-.31.93-.18.23-.46.36-.75.34Z"/>
    <path class="cls-3" d="M257,784.61l-36.77.34c-.52,0-.95-.41-.96-.92,0-.02,0-.03,0-.05v-.12c0-.54.44-.98.99-1l36.77-.34c.54,0,.97.43.97.97,0,0,0,.01,0,.02v.18c-.05.52-.48.92-1,.93Z"/>
    <path class="cls-11" d="M257,784.61c.27-.02.52-.14.7-.34.21-.26.29-.59.24-.91-.07-.43-.43-.75-.87-.76l-8.57.13-28.25.31c-.3,0-.57.16-.72.42-.07.13-.1.27-.1.42-.04.14-.04.29,0,.43.11.26.36.45.64.48h12.43l12.7-.07h11.7-3.15l-8.55.13-12.7.15-7.46.09h-4.98c-.62-.07-1.06-.62-1-1.24,0-.2.05-.4.15-.58.21-.36.6-.59,1.01-.6l28.24-.21h8.57c.49.02.9.39.96.88.06.35-.04.71-.28.97-.37.4-.72.3-.7.3Z"/>
    <path class="cls-3" d="M257.83,780.1l-38.27.37c-.53,0-.96-.43-.96-.95,0-.01,0-.02,0-.03v-.12c0-.54.44-.98.99-1l38.27-.36c.54,0,.97.43.97.97,0,0,0,.01,0,.02v.1c0,.55-.45,1-1,1Z"/>
    <path class="cls-11" d="M257.83,780.1c.58-.05,1-.55.96-1.12,0-.06-.02-.13-.03-.19-.1-.44-.52-.74-.97-.7l-8.95.13-29.31.33c-.31,0-.59.18-.73.45-.13.28-.13.6,0,.88.14.27.42.43.72.42h12.94l13.18-.09h12.13-3.25l-8.95.13-13.16.16-7.79.07h-5.16c-.42,0-.8-.23-1-.6-.09-.19-.13-.39-.13-.6,0-.21.05-.41.15-.6.2-.39.59-.64,1.03-.64l29.3-.22h8.95c.51-.04.96.31,1.06.81.08.36-.01.73-.24,1.01-.15.17-.35.28-.57.33l-.15.03Z"/>
    <path class="cls-3" d="M214.78,761.91c0,.37.63,9.12.96,13.61.11,1.63.98,3.11,2.34,4.01l1.98,1.31,38.16-.15,2.01-1.31c1.41-.92,2.32-2.43,2.49-4.1l1.4-13.58-49.36.21Z"/>
    <g class="cls-17">
      <path class="cls-2" d="M222.52,793.85c3.74.72,7.55,1,11.36.84h9.98c2.6-.07,4.98-.22,7.57-.34,1.03-.01,2.05-.24,2.98-.67l-31.89.18Z"/>
    </g>
    <g class="cls-17">
      <path class="cls-2" d="M221.25,789.34c4.04.72,8.14.99,12.24.82h10.78c2.79-.07,5.36-.21,8.15-.34,1.12,0,2.23-.23,3.25-.69l-34.42.21Z"/>
    </g>
    <g class="cls-17">
      <path class="cls-2" d="M221.33,784.88c4.04.72,8.15.99,12.25.82h10.76c2.81-.07,5.37-.22,8.16-.34,1.12-.01,2.23-.24,3.25-.69l-34.43.21Z"/>
    </g>
    <g class="cls-17">
      <path class="cls-2" d="M221.42,780.4c4.04.72,8.15,1,12.25.84h10.76c2.81-.07,5.37-.22,8.16-.36,1.12,0,2.23-.23,3.25-.67l-34.43.19Z"/>
    </g>
    <path class="cls-11" d="M261.76,777.07c0,.09-10.21.22-22.79.3-12.58.07-22.8,0-22.8,0,0,0,10.21-.22,22.8-.3,12.6-.07,22.79-.09,22.79,0Z"/>
    <path class="cls-11" d="M263.86,761.37c0,.1-11.07.3-24.76.43-13.69.13-24.76.15-24.76,0s11.07-.3,24.76-.43c13.69-.13,24.76-.07,24.76,0Z"/>
    <g class="cls-16">
      <path class="cls-15" d="M230.33,676.63c.24-2.51,1.53-4.8,3.55-6.31,3.02-2.57,6.93-3.86,10.89-3.58,11.54.67,19.4,4.24,27.25,13.43,2.66,3.1,5.73,8.81,5.48,13.16-.1,2.2-1.08,4.26-2.72,5.73-4.36,3.7-10.34.67-13.84-3.24-3.27-3.64-5.84-8.27-10.31-10.22-3.69-1.61-7.94-1.07-11.94-1.66s-8.33-3.24-8.37-7.31Z"/>
    </g>
    <g class="cls-16">
      <path class="cls-15" d="M271.49,709.91c1.26-3.28,4.55-5.31,8.04-4.97,2.3.59,4.18,2.22,5.1,4.4,1.02,2.76.32,5.85-1.78,7.91-2.15,1.99-5.34,2.36-7.88.91-2.37-1.48-4.43-5.54-3.49-8.25Z"/>
    </g>
    <path class="cls-11" d="M178.63,678.93c-.12.18-9.42-5.63-20.79-12.97-11.37-7.34-20.48-13.43-20.36-13.63s9.42,5.63,20.79,12.97c11.37,7.34,20.48,13.45,20.36,13.63Z"/>
    <path class="cls-11" d="M189.57,659.44c-3.11-3.63-6.02-7.42-8.72-11.36-2.91-3.79-5.61-7.73-8.09-11.81,3.11,3.63,6.02,7.42,8.72,11.36,2.91,3.78,5.61,7.72,8.09,11.81Z"/>
    <path class="cls-11" d="M171.48,699.54c-1.45-.05-2.89-.18-4.33-.39-2.7-.31-6.45-.78-10.57-1.34-4.12-.57-7.85-1.12-10.55-1.49-1.34-.22-2.43-.43-3.18-.6l-.85-.22c-.09-.02-.17-.05-.24-.1.09-.15.09,0,.1,0,.34,0,.69.02,1.03.07l3.22.34c2.7.33,6.43.79,10.57,1.36,8.21,1,14.97,2.09,14.79,2.37Z"/>
  </g>
  <g id="freepik--Clock--inject-67">
    <path class="cls-5" d="M557.65,481.76c-62.86-50.97-72.49-143.25-21.52-206.1,50.97-62.86,143.25-72.49,206.1-21.52,54.74,44.39,70.12,121.45,36.62,183.46l-40.21-21.76c26.47-49,8.2-110.19-40.8-136.65-49-26.47-110.19-8.2-136.65,40.8-23.05,42.68-12.45,95.72,25.23,126.27l-28.77,35.51Z"/>
    <g class="cls-17">
      <path class="cls-2" d="M733.52,294.72l3.76,4.25,13.43-11.76c-.48-.99-1-1.94-1.49-2.88v-.16s0,0-.12,0c-.79-1.34-1.66-2.63-2.61-3.87h0c-2.12-2.69-4.55-5.13-7.24-7.25h0c-.93-.75-1.88-1.49-2.88-2.16l-13.43,11.76,3.66,4.16-4.31,3.79c-14.08-13.51-32.13-22.13-51.49-24.58l.34-8,6.72.27.85-20.69c.22-.13.34-.24.33-.27s-.12,0-.31,0h0c-8.35-2.64-17.25-3.02-25.79-1.07v.18h-.13s0,.09.12.16l-.85,20.69,6.55.28-.33,7.78c-20.22.18-39.8,7.12-55.62,19.72l-4.03-5.1,4.48-3.52-11.04-13.97c-1.01.42-2,.88-2.98,1.39h-.15s0,0,0,.13c-1.38.71-2.72,1.52-4,2.4h0c-2.81,1.98-5.37,4.28-7.64,6.85h0c-.78.88-1.49,1.79-2.3,2.76l11.03,13.97,4.36-3.43,4.4,5.58c-35.58,35.63-35.54,93.36.09,128.94,35.63,35.58,93.36,35.54,128.94-.09,33.21-33.26,35.7-86.32,5.74-122.54l3.97-3.72Z"/>
    </g>
    <rect class="cls-11" x="585.2" y="281.46" width="10.58" height="16.52" transform="translate(-52.45 428.44) rotate(-38.31)"/>
    <path class="cls-7" d="M597.01,280.29l-17.12,13.51-11.03-13.97c4.4-5.95,10.3-10.62,17.1-13.52l11.04,13.98Z"/>
    <path class="cls-11" d="M582.79,291.55c-.27.21-3.09-2.85-6.28-6.85-3.19-4-5.57-7.46-5.3-7.64s3.09,2.85,6.28,6.85c3.19,4,5.58,7.42,5.3,7.64Z"/>
    <path class="cls-11" d="M586.05,288.96c-.28.21-2.98-2.98-6.21-7.21-2.03-2.45-3.81-5.09-5.33-7.88.34-.3,3.19,2.98,6.34,7.1s5.48,7.78,5.19,7.98Z"/>
    <path class="cls-11" d="M590.4,285.53c-.28.21-3.07-3.07-6.24-7.31-3.16-4.24-5.52-7.84-5.3-8.01s3.15,2.98,6.31,7.25,5.49,7.87,5.22,8.07Z"/>
    <path class="cls-11" d="M594.35,282.32c-.27.21-3.07-2.9-6.24-6.94-3.16-4.04-5.52-7.46-5.24-7.72s3.06,2.9,6.24,6.94c3.18,4.04,5.51,7.49,5.24,7.72Z"/>
    <rect class="cls-11" x="713.32" y="291.58" width="16.52" height="10.58" transform="translate(-16.36 550.34) rotate(-41.32)"/>
    <path class="cls-7" d="M731.33,302.95l-14.4-16.42,13.43-11.75c6.18,4.09,11.15,9.76,14.4,16.42l-13.43,11.75Z"/>
    <path class="cls-11" d="M719.29,289.31c-.22-.25,2.69-3.24,6.52-6.64,3.84-3.4,7.12-5.97,7.36-5.69s-2.69,3.24-6.52,6.64c-3.84,3.4-7.12,5.95-7.36,5.69Z"/>
    <path class="cls-11" d="M722.03,292.43c-.22-.27,2.88-3.19,6.9-6.57,2.33-2.15,4.87-4.07,7.57-5.73.33.31-2.75,3.33-6.76,6.7-4.01,3.37-7.48,5.84-7.7,5.6Z"/>
    <path class="cls-11" d="M725.69,296.59c-.22-.27,2.91-3.22,6.98-6.61,4.07-3.39,7.54-5.97,7.73-5.72s-2.85,3.3-6.93,6.69c-4.07,3.39-7.57,5.91-7.79,5.64Z"/>
    <path class="cls-11" d="M729.11,300.37c-.22-.25,2.73-3.21,6.6-6.58s7.21-5.97,7.46-5.64-2.72,3.21-6.6,6.58c-3.88,3.37-7.22,5.91-7.46,5.64Z"/>
    <rect class="cls-11" x="649.74" y="258.32" width="19.57" height="12.55" transform="translate(368.78 913.02) rotate(-87.71)"/>
    <path class="cls-7" d="M671.8,262.22l-25.79-1.07.87-21.06c8.54-1.94,17.44-1.57,25.79,1.07l-.87,21.06Z"/>
    <path class="cls-11" d="M672.98,241.25c.18.25-5.57,3.1-13.24,2.78-7.67-.33-13.19-3.51-13-3.73s5.69,2.25,13.04,2.48c7.36.22,13.07-1.9,13.19-1.52Z"/>
    <path class="cls-11" d="M654.53,261.44c-.36,0-.46-4.07-.25-9.06s.66-8.95,1-8.95.46,4.06.25,9.04-.66,8.98-1,8.97Z"/>
    <path class="cls-11" d="M659.42,261.77c-.34,0-.46-4.09-.25-9.1.21-5.01.66-9.06,1.01-9.04s.46,4.09.25,9.1c-.21,5.01-.66,9.06-1.01,9.04Z"/>
    <path class="cls-11" d="M664.33,261.89c-.34,0-.46-4.09-.25-9.1s.66-9.06,1.01-9.04.46,4.09.25,9.1c-.21,5.01-.66,9.06-1.01,9.04Z"/>
    <path class="cls-11" d="M668.42,262.06c-.34,0-.45-4.48-.22-9.84.22-5.36.69-9.79,1.04-9.78s.45,4.48.22,9.84c-.22,5.36-.7,9.79-1.04,9.78Z"/>
    <path class="cls-11" d="M649.89,261.16c-.34,0-.45-4.48-.22-9.84s.69-9.79,1.04-9.78.45,4.48.22,9.84c-.22,5.36-.7,9.79-1.04,9.78Z"/>
    <circle class="cls-7" cx="653.18" cy="360.33" r="91.17" transform="translate(-63.48 567.41) rotate(-45)"/>
    <circle class="cls-15" cx="653.21" cy="359.63" r="76.58" transform="translate(-62.98 567.22) rotate(-45)"/>
    <path class="cls-11" d="M729.73,362.81c-.02-.41-.02-.83,0-1.24,0-.88,0-2.09-.1-3.64v-2.69c0-.99-.22-2.04-.34-3.21-.24-2.68-.67-5.34-1.28-7.95-1.49-7.22-4.07-14.18-7.64-20.63-10.46-19.17-28.61-32.95-49.88-37.88-3.14-.72-6.34-1.22-9.55-1.49-1.64-.12-3.28-.36-4.95-.4h-7.58l-2.54.28c-1.7.21-3.43.34-5.15.61-3.47.63-6.9,1.48-10.25,2.57-3.45,1.08-6.81,2.39-10.07,3.94-1.64.79-3.22,1.75-4.85,2.63-1.63.89-3.2,1.88-4.7,2.98-3.14,2.12-6.13,4.45-8.95,6.97-2.79,2.65-5.4,5.49-7.81,8.49-4.98,6.14-8.94,13.04-11.72,20.45-5.86,15.32-6.57,32.14-2,47.89,2.15,7.61,5.52,14.82,9.97,21.36,2.15,3.19,4.52,6.23,7.07,9.1,2.6,2.74,5.38,5.31,8.31,7.69,1.41,1.22,2.91,2.34,4.48,3.34,1.49,1.01,2.98,2.09,4.6,2.98,3.13,1.81,6.38,3.4,9.73,4.76,3.26,1.35,6.6,2.49,10,3.4,1.69.42,3.39.69,5.07,1.04l2.51.49c.85.15,1.7.18,2.54.27l5.01.48c1.66.09,3.31,0,4.95,0,3.23-.02,6.46-.26,9.66-.72,21.6-3.15,40.83-15.38,52.85-33.61,4.1-6.13,7.24-12.84,9.33-19.91.84-2.56,1.49-5.17,1.94-7.82.22-1.15.48-2.19.61-3.18s.19-1.85.28-2.66c.16-1.55.29-2.76.4-3.63.09-.81.18-1.22.18-1.22v1.24c0,.82-.15,2.07-.27,3.64,0,.81-.13,1.7-.22,2.67s-.36,2.04-.57,3.21c-.44,2.72-1.09,5.41-1.94,8.03-2.04,7.15-5.16,13.95-9.27,20.15-12.01,18.57-31.42,31.08-53.3,34.33-3.24.47-6.5.72-9.78.75-1.67,0-3.36.09-5.04,0l-5.09-.46c-.85-.09-1.72-.12-2.57-.27l-2.55-.49c-1.7-.36-3.43-.63-5.15-1.04-3.46-.92-6.86-2.06-10.16-3.43-3.4-1.37-6.7-2.98-9.88-4.82-1.6-.94-3.12-2.03-4.69-2.98-1.57-1.02-3.07-2.15-4.48-3.39-2.99-2.4-5.81-5.01-8.45-7.79-2.61-2.92-5.02-6.01-7.21-9.25-4.53-6.64-7.96-13.97-10.15-21.7-4.65-16.01-3.94-33.11,2.03-48.68,2.84-7.52,6.87-14.54,11.94-20.77,2.45-3.05,5.1-5.93,7.94-8.63,2.87-2.54,5.89-4.9,9.06-7.06,1.53-1.1,3.13-2.09,4.79-2.98,1.66-.88,3.27-1.85,4.93-2.66,3.32-1.56,6.75-2.89,10.25-3.98,3.42-1.08,6.91-1.94,10.45-2.57,1.75-.28,3.51-.4,5.22-.61l2.6-.28h7.69c1.69,0,3.36.28,5.01.42,3.26.27,6.5.77,9.69,1.49,21.46,5.03,39.73,19.02,50.19,38.42,3.55,6.54,6.07,13.59,7.46,20.89.59,2.64.98,5.32,1.18,8.01.1,1.18.25,2.25.3,3.24s0,1.88,0,2.69v3.66c0,.88-.09,1.18-.09,1.18Z"/>
    <path class="cls-11" d="M718.6,361.17c-6.98-.19-12.64-.76-12.64-1.28s5.67-1.03,12.66-1.15,12.64.45,12.64,1.27-5.67,1.31-12.66,1.16Z"/>
    <path class="cls-11" d="M698.63,406.69c-4.84-5.03-8.45-9.42-8.09-9.79s4.76,3.25,9.81,8.07c5.04,4.82,8.67,9.21,8.09,9.79s-4.97-3.03-9.81-8.07Z"/>
    <path class="cls-11" d="M652.42,425.03c.1-6.98.61-12.64,1.13-12.64s1.09,5.64,1.28,12.63-.3,12.66-1.12,12.66-1.4-5.66-1.3-12.64Z"/>
    <path class="cls-11" d="M606.67,405.57c4.98-4.9,9.34-8.57,9.7-8.19s-3.19,4.79-7.97,9.89-9.1,8.76-9.7,8.19,2.98-5,7.97-9.89Z"/>
    <path class="cls-11" d="M587.82,359.56c7,0,12.66.48,12.67,1s-5.64,1.16-12.63,1.49-12.64-.18-12.67-1,5.66-1.52,12.63-1.49Z"/>
    <path class="cls-11" d="M606.78,313.56c4.94,4.94,8.66,9.24,8.3,9.61s-4.82-3.13-9.98-7.85c-5.16-4.72-8.87-8.95-8.3-9.61s5.04,2.96,9.98,7.85Z"/>
    <path class="cls-11" d="M652.59,294.25c0,6.98-.34,12.66-.87,12.67s-1.22-5.63-1.57-12.61,0-12.64.87-12.67,1.52,5.63,1.57,12.61Z"/>
    <path class="cls-11" d="M698.75,312.69c-4.88,5-9.13,8.76-9.52,8.42s3.09-4.87,7.76-10.07c4.67-5.21,8.95-8.95,9.51-8.4s-2.87,5.06-7.75,10.06Z"/>
    <path class="cls-3" d="M676.24,319.87c-.09,11.23-.9,22.45-2.42,33.58-.42,4.05-1.42,8.03-2.98,11.79-1.57,3.8-4.56,6.83-8.33,8.46-3.88,1.56-8.32.5-11.07-2.64l24.8-51.19Z"/>
    <polygon class="cls-7" points="651.81 353.53 681.56 307.87 662.59 360.03 653.9 362.24 651.81 353.53"/>
    <g class="cls-19">
      <polygon class="cls-2" points="681.56 307.87 658.95 354.86 662.59 360.03 681.56 307.87"/>
    </g>
    <path class="cls-13" d="M662.86,362.62c-.21,4.94-4.39,8.78-9.33,8.57-4.94-.21-8.78-4.39-8.57-9.33.21-4.94,4.38-8.77,9.31-8.57,4.94.2,8.78,4.37,8.58,9.31,0,0,0,.01,0,.02Z"/>
    <path class="cls-11" d="M662.86,362.62c-.12,0-.09-.81-.43-2.15-.48-1.89-1.57-3.56-3.09-4.78-2.23-1.8-5.22-2.36-7.95-1.49-4.42,1.39-6.88,6.09-5.49,10.51.75,2.39,2.53,4.32,4.85,5.26,2.64,1.11,5.66.82,8.04-.76,1.61-1.08,2.83-2.65,3.48-4.48.45-1.31.49-2.12.61-2.1.15.75.1,1.52-.13,2.24-.51,2.05-1.73,3.85-3.45,5.09-2.6,1.88-5.98,2.3-8.95,1.1-4.88-1.93-7.26-7.44-5.34-12.32,1.06-2.69,3.3-4.75,6.07-5.59,3.08-.95,6.43-.25,8.88,1.85,1.59,1.38,2.65,3.28,2.98,5.36.16.75.13,1.52-.07,2.25Z"/>
    <path class="cls-5" d="M660.56,362.51c-.16,3.67-3.27,6.52-6.94,6.36-3.67-.16-6.52-3.27-6.36-6.94.16-3.67,3.26-6.51,6.93-6.36,3.67.15,6.53,3.25,6.37,6.93,0,0,0,0,0,.01Z"/>
    <path class="cls-5" d="M706.66,385.27l-5.67,97.99c-.18,3.04,2.13,5.65,5.17,5.83.52.03,1.04-.01,1.55-.13l99.99-22.6c2.97-.68,4.83-3.65,4.15-6.62-.28-1.21-.96-2.29-1.92-3.07l-94.25-75.4c-2.34-1.94-5.81-1.61-7.75.73-.76.92-1.2,2.06-1.26,3.26Z"/>
  </g>
  <g id="freepik--character-1--inject-67">
    <path class="cls-7" d="M190.06,576.1l56.22,72.55c1.45,1.87,4.14,2.21,6.01.76.22-.17.43-.37.62-.58l58.77-68.12c1.54-1.79,1.34-4.5-.45-6.04-.73-.63-1.66-.99-2.62-1.03l-114.92-4.4c-2.35-.14-4.37,1.66-4.51,4.02-.06,1.02.25,2.04.88,2.85Z"/>
    <path class="cls-7" d="M576.88,695.76c-31.13,44.62-82.09,71.22-136.5,71.23h-145.45v45.71h145.45c67.27,0,130.56-31.93,170.54-86.02l-34.04-30.92Z"/>
    <path class="cls-7" d="M598.59,459.04c-40.2-45.12-97.77-70.92-158.2-70.91-117.05,0-212.29,95.23-212.29,212.29h45.71c-.03-91.95,74.49-166.52,166.45-166.55,47.18-.01,92.16,19.99,123.74,55.05l34.58-29.88Z"/>
    <path class="cls-7" d="M612.35,476.12l-35.82,28.54c36.11,51.21,40.35,118.37,10.97,173.71l35.62,29.85c42.94-72.62,38.69-163.81-10.82-232.12l.04.03Z"/>
    <g class="cls-17">
      <polygon class="cls-2" points="230.18 570.6 276.18 572.28 278.28 561.99 232.12 560.17 230.18 570.6"/>
    </g>
    <g class="cls-17">
      <polygon class="cls-2" points="401.99 438.31 409.42 436.75 423.91 397.58 469.32 395.03 426.81 388.14 415.81 389.56 401.99 438.31"/>
    </g>
    <path class="cls-8" d="M412.11,297.02s-1.58.69-1.84-1.49c-.25-2.18,4.16-6.52,5.58-7.92s3.43-1.1,5.22-.7,9.12,1.13,11.55,2.7,6.16,9.39,6.94,9.76,23.64,1.49,23.64,1.49l-.99,18.75s-22.39-4.28-26.86-7.06c-4.48-2.78-3.87-3.88-5.12-6.48s-2.63-5.34-2.63-5.34l-2.1-.36-3.36,1.87s-.4,4.76-3.73,4.63l-1.64-.85s-1.09,1.25-2.33-.69c-1.24-1.94-1.01-2.21-1.01-2.21,0,0-1.3,1.61-2.72-.39-1.42-2,1.39-5.7,1.39-5.7Z"/>
    <path class="cls-4" d="M436.75,304.98s-.07,0-.24.09c-.25.02-.5.02-.75,0-.95,0-1.89-.27-2.7-.76-1.25-.74-2.25-1.84-2.85-3.16-.73-1.66-1.13-3.44-1.18-5.25l.36.22c-2.81,1.28-5.96,1.57-8.95.82-.64-.1-1.24-.38-1.73-.81-.26-.32-.26-.78,0-1.1.22-.24.5-.42.81-.52,2.06-.84,3.94-1.49,5.55-1.97s2.98-.82,3.84-1.03c.49-.14.99-.22,1.49-.25-.44.19-.9.34-1.37.45-.9.27-2.19.66-3.78,1.19s-3.45,1.22-5.49,2.07c-.22.07-.43.19-.6.36-.12.14-.12.34,0,.48.43.34.95.55,1.49.63,2.86.68,5.86.41,8.55-.78l.34-.16v.39c.03,1.75.39,3.48,1.07,5.09.55,1.26,1.46,2.33,2.61,3.07.76.49,1.63.78,2.54.87.63.1.98.04.98.07Z"/>
    <path class="cls-4" d="M425.17,292.13c-.64.39-1.41.54-2.15.42-.69,0-1.49-.12-2.34,0-.91.04-1.77.47-2.34,1.18-1.19,1.33-2.66,2.38-4.3,3.09-.66.34-1.38.54-2.12.58,0,0,.78-.31,1.96-.93,1.54-.78,2.93-1.84,4.09-3.12.35-.4.78-.73,1.25-.97.47-.21.98-.33,1.49-.33.8,0,1.6.06,2.39.18.69.03,1.39,0,2.07-.1Z"/>
    <path class="cls-14" d="M420.45,297.14c-.57,1.56-1.58,2.93-2.91,3.94-1.21,1.15-2.71,1.94-4.34,2.28,1.39-.81,2.72-1.71,4-2.69,1.16-1.11,2.25-2.29,3.25-3.54Z"/>
    <path class="cls-14" d="M421.29,299.99c-.4,2.7-2.1,5.02-4.55,6.22-.09-.13,1.36-1.13,2.61-2.87s1.78-3.4,1.94-3.36Z"/>
    <polygon class="cls-3" points="490.36 260.49 469.9 297.43 438.12 296.87 435.73 315.95 468.52 323.99 482.02 309.17 490.36 260.49"/>
    <path class="cls-11" d="M472.45,303.69c-.16,0-.36-1.49-1.07-3.22-.72-1.73-1.61-2.98-1.49-2.98,1.76,1.6,2.69,3.9,2.55,6.27v-.06Z"/>
    <path class="cls-8" d="M520.7,174.63h-1.18c-11.78.22-21.42,9.46-22.13,21.22-.67,10.95-1.27,23.04-1.09,28.91.39,12.13,12.57,13.79,12.57,13.79l-.75,14.6,1.49,11.13,28-12.61,1.58-52.94c.79-12.6-5.85-23.61-18.49-24.1Z"/>
    <path class="cls-4" d="M508.76,238.56c5.64-.11,11.13-1.83,15.82-4.97,0,0-3.78,9.4-15.89,8.54l.07-3.57Z"/>
    <path class="cls-11" d="M501.79,208.33c0,.94.76,1.71,1.7,1.72.9.07,1.69-.61,1.76-1.52,0-.03,0-.05,0-.08-.02-.94-.78-1.69-1.72-1.72-.91-.05-1.69.65-1.74,1.56,0,.01,0,.02,0,.03Z"/>
    <path class="cls-11" d="M500.1,201.78c.22.22,1.49-.78,3.39-.81,1.9-.03,3.24.88,3.45.64s-.13-.51-.75-.93c-.81-.55-1.78-.83-2.76-.81-.97.02-1.91.34-2.69.93-.57.46-.75.82-.64.97Z"/>
    <path class="cls-11" d="M518.76,208.33c0,.94.76,1.71,1.7,1.72.9.07,1.69-.61,1.76-1.52,0-.03,0-.05,0-.08-.02-.94-.77-1.69-1.7-1.72-.92-.05-1.71.66-1.76,1.58,0,0,0,.01,0,.02Z"/>
    <path class="cls-11" d="M518.45,201.76c.22.22,1.49-.78,3.37-.81,1.88-.03,3.25.88,3.46.64s-.13-.51-.75-.93c-.82-.54-1.78-.82-2.76-.79-.97.02-1.91.34-2.69.93-.57.45-.75.82-.64.96Z"/>
    <path class="cls-11" d="M511.94,215.73c-.97-.29-1.97-.45-2.98-.49-.48,0-.94-.12-1.01-.45-.05-.49.04-.99.28-1.42.43-1.16.87-2.37,1.34-3.66,1.25-3.09,2.25-6.28,2.98-9.54-1.49,2.99-2.74,6.09-3.73,9.28l-1.36,3.67c-.28.58-.36,1.25-.21,1.88.15.33.44.58.79.67.27.07.54.1.82.1,1.02.11,2.06.09,3.07-.06Z"/>
    <path class="cls-11" d="M516.69,194.63c.25.46,1.85-.07,3.82-.18,1.97-.1,3.63.19,3.79-.3.07-.24-.28-.66-1-1.03-.93-.44-1.96-.63-2.98-.55-1.01.05-1.99.37-2.84.93-.61.45-.9.91-.79,1.13Z"/>
    <path class="cls-11" d="M499.87,194.16c.4.42,1.94,0,3.79-.12s3.42.22,3.78-.22c.15-.22-.1-.64-.81-1.03-.96-.48-2.02-.7-3.09-.63-1.06.03-2.09.34-2.98.91-.66.37-.87.81-.69,1.09Z"/>
    <path class="cls-8" d="M537.42,210.58c.02-1.81,1.51-3.27,3.32-3.25.06,0,.11,0,.17,0,2.27.16,4.82,1.4,4.76,6.09-.1,8.3-8.42,6.48-8.43,6.24s.07-5.58.18-9.09Z"/>
    <path class="cls-4" d="M539.09,216.55s.13.1.37.22c.35.14.74.14,1.09,0,1.1-.67,1.75-1.89,1.7-3.18.03-.71-.1-1.42-.39-2.07-.15-.53-.55-.96-1.07-1.13-.34-.09-.7.07-.85.39-.12.24-.07.4-.12.42s-.16-.15-.1-.49c.06-.2.18-.38.34-.51.23-.17.52-.25.81-.21.69.16,1.25.65,1.49,1.31.34.72.5,1.52.46,2.31.06,1.51-.78,2.92-2.15,3.57-.46.12-.94.03-1.33-.24-.25-.13-.28-.39-.25-.39Z"/>
    <path class="cls-11" d="M512.48,222.1c0-.31,2.09,0,3.88-1.4,1.79-1.4,1.98-3.7,2.27-3.66s.3.57.15,1.49c-.21,1.2-.84,2.29-1.78,3.07-.9.76-2.05,1.13-3.22,1.04-.88-.13-1.34-.42-1.3-.55Z"/>
    <path class="cls-3" d="M460.55,334.25l8.58-12.07,13.21-39.95c2.7-6.95,5.03-15.78,8.31-22.39,1.62-3.21,4.3-5.76,7.6-7.21l5.61-2.49,3.34-5.22c-1.93,12.12,15.04,13.61,33.09-1.49,0,0,5.97,4.03,14.37,11,3.67,2.98,7.01,6.39,8.4,11.43,2.52,9.13-8.33,36.19-20.13,61.64-3.54,7.61-15.91,36.13-15.91,36.13l-4.13.76s-49.55-10.27-57.24-16.82c-3.75-3.36-5.65-8.31-5.1-13.31Z"/>
    <path class="cls-11" d="M462.09,329.22c.13-.19.28-.36.45-.52l1.36-1.49,5.1-5.22h0l3.48-10.73c1.37-4.06,2.75-8.55,4.15-13.31,2.69-9.34,5.25-17.78,7.61-23.72,1.13-2.98,2.21-5.33,2.98-6.94l.93-1.84c.09-.22.2-.42.34-.61-.07.23-.15.45-.25.66-.21.48-.49,1.1-.82,1.88-.7,1.64-1.72,4-2.82,6.98-2.25,5.97-4.75,14.39-7.46,23.73-1.39,4.76-2.79,9.27-4.18,13.31-1.39,4.04-2.58,7.67-3.61,10.7h0l-5.21,5.09-1.49,1.37c-.16.24-.34.46-.55.66Z"/>
    <polygon class="cls-7" points="511.27 262.7 492.73 338.62 473.51 348.18 473.51 329.62 506.79 261.04 511.27 262.7"/>
    <g class="cls-17">
      <path class="cls-2" d="M475.84,331.78c5.18,2.17,10.09,4.94,14.61,8.27,4.53,3.32,9.36,6.2,14.43,8.63,5.11,2.43,10.84,3.23,16.42,2.3,5.63-1.02,10.33-4.88,12.43-10.21l-57.89-8.98Z"/>
    </g>
    <polygon class="cls-3" points="503.87 249.95 508.6 242.71 510.45 252.64 515.16 247.31 538.58 236.36 542.64 245.06 516.78 260.35 509.61 259.82 504.37 253.61 503.87 249.95"/>
    <path class="cls-11" d="M503.87,249.95c.17.48.29.98.34,1.49.24,1.13.51,2.4.79,3.82h-.46l1.28-2.34,1.97-3.54.25-.45.16.48c.42,1.19.63,2.18.82,2.88.13.36.21.73.24,1.1-.23-.31-.4-.66-.49-1.03-.27-.67-.57-1.66-1-2.78h.42l-1.91,3.54c-.46.81-.9,1.58-1.3,2.31l-.34.6-.16-.69c-.43-1.77-.64-3.58-.61-5.4Z"/>
    <path class="cls-7" d="M511.73,253.62l-2.98-.37c-.81.91-2.79,2.78-3.6,3.69v.09c.34,1.98.7,3.97,1.06,5.97,1.67-.07,3.34.06,4.97.4l2.73-4.81-2.18-4.97Z"/>
    <polygon class="cls-7" points="511.97 254.23 515.28 252.61 516.4 258.4 513.64 258.64 511.97 254.23"/>
    <g class="cls-17">
      <polygon class="cls-2" points="514.82 250.26 514.82 263.38 539.21 247.28 516.52 260.49 514.82 250.26"/>
    </g>
    <path class="cls-11" d="M542.64,245.06c-.44.4-.92.76-1.42,1.07-.94.64-2.31,1.49-4.07,2.61-3.48,2.13-8.48,4.76-13.86,7.85-2.28,1.33-4.48,2.66-6.36,3.97l-.33.21v-.37c-.75-4-1.39-7.46-1.87-10.1l.27.09-2.57,2.4c-.29.31-.62.58-.97.81.26-.33.54-.64.84-.94l2.48-2.51.21-.21v.3c.54,2.61,1.24,6.07,2.04,10.06l-.39-.15c1.93-1.34,4.09-2.69,6.37-4.01,5.4-3.1,10.45-5.67,13.94-7.72,1.78-1.01,3.18-1.87,4.16-2.46.48-.34.99-.64,1.52-.9Z"/>
    <polygon class="cls-7" points="508.79 254.37 507.43 251.01 505.16 255.16 506.13 256.67 508.79 254.37"/>
    <path class="cls-11" d="M512.54,253.86c.1.1-1.49,2-3.28,4.48s-2.98,4.69-3.12,4.61c1.43-3.47,3.62-6.57,6.4-9.09Z"/>
    <path class="cls-11" d="M510.88,263.49c-.85.05-1.7-.04-2.52-.25-.85-.06-1.69-.26-2.48-.6.85-.17,1.73-.15,2.57.07.86.05,1.7.32,2.43.78Z"/>
    <path class="cls-5" d="M392.02,326.02h0l-15.43-43.61c-.28-.89.22-1.84,1.11-2.11.04-.01.09-.03.13-.04l35.61-9.31c.89-.19,1.77.32,2.06,1.18l16.22,49.13,50.37,33.04-2.45,2.54-12.86-3.13-74.76-27.68Z"/>
    <path class="cls-11" d="M479.64,356.84s-.09,0-.25-.13l-.73-.46-2.79-1.84-10.19-6.87-33.58-22.6-2.66-1.81h0v-.09c-4.75-14.3-8.95-27.1-12.06-36.37-1.49-4.6-2.72-8.33-3.57-10.94-.39-1.25-.72-2.25-.94-2.98l-.22-.78c0-.18-.07-.27,0-.27.04.08.07.17.1.25l.28.76c.25.7.6,1.69,1.03,2.98.9,2.6,2.16,6.3,3.72,10.88l12.07,36.25-.1-.15,2.66,1.81,33.49,22.73,10.1,6.94,2.75,1.91.7.51.19.25Z"/>
    <path class="cls-11" d="M398.17,325.1c0-.15,7-.6,15.66-1.01,8.66-.42,15.67-.61,15.69-.46s-7,.6-15.66,1c-8.66.4-15.67.63-15.69.48Z"/>
    <path class="cls-3" d="M403.86,300.2c.63,1.97.27,3.85-.78,4.18s-2.42-1.01-2.98-2.98c-.57-1.97-.27-3.85.78-4.18s2.36,1,2.98,2.98Z"/>
    <path class="cls-8" d="M442.24,300.44s-1.33.66-1.49-1.49c-.19-1.88,4.33-4.67,5.97-5.72,1.64-1.04,5.25-.33,7.07-.09,2.46.31,8.19,2.88,10.01,5.06,1.82,2.18,3.12,7.91,3.79,8.45s23.45,9.52,23.45,9.52l-5.18,18.04s-20.89-9.22-24.61-12.94c-3.72-3.72-2.9-4.66-3.54-7.46s-1.34-5.79-1.34-5.79l-1.97-.82-3.7,1.06c-.34.91-.85,1.76-1.49,2.49-1.06,1.2-2.89,1.31-4.09.26-.09-.08-.18-.17-.26-.26h0c-1.18.36-2.43-.31-2.79-1.49-.22-.71-.25-1.47-.1-2.19,0,0-1.69.33-1.7-1.78.21-1.76.89-3.44,1.97-4.85Z"/>
    <path class="cls-4" d="M454.09,302.83c0,.09-.76,0-1.93.31-1.52.34-2.94,1.05-4.12,2.06-1.16,1.04-2.04,2.35-2.55,3.82-.4,1.12-.46,1.88-.55,1.88-.11-.67-.04-1.36.19-2,.9-3.24,3.62-5.65,6.95-6.13.66-.15,1.35-.13,2,.06Z"/>
    <path class="cls-4" d="M452.39,298.96c0,.09-.82,0-2.07.24-1.63.42-3.11,1.27-4.3,2.46-1.15,1.22-2.16,2.58-2.98,4.04-.33.63-.72,1.22-1.18,1.76.18-.69.47-1.35.85-1.96.77-1.56,1.78-2.99,2.98-4.24,1.25-1.26,2.85-2.12,4.6-2.45.7-.17,1.43-.13,2.1.13Z"/>
    <path class="cls-4" d="M452.06,294.72c0,.09-.72,0-1.81.19-1.42.29-2.76.9-3.93,1.76-1.16.9-2.23,1.89-3.21,2.98-.38.49-.83.93-1.33,1.3.28-.54.63-1.05,1.04-1.49.91-1.21,1.98-2.28,3.18-3.19,1.22-.92,2.66-1.51,4.18-1.7.62-.14,1.27-.08,1.87.15Z"/>
    <path class="cls-3" d="M549.25,253.76c6.4,1.25,10.57,6.87,11.87,13.91,1.85,9.97-21.01,57.13-25.28,67.43-3.31,8.18-11.39,13.41-20.21,13.09-5.79-.13-46.27-19.15-46.27-19.15l5.97-20.58,36.03,10.7,14.27-40.16"/>
    <path class="cls-11" d="M525.55,278.99s0,.24-.22.72l-.72,2.09-2.79,8c-2.45,6.97-5.97,17.01-10.36,29.42v.18h-.18l-36.04-10.66.31-.16c-1.9,6.58-3.88,13.43-5.97,20.58l-.13-.31c9.46,4.4,19.6,8.95,30.15,13.43,4.28,1.78,8.54,3.55,12.84,4.93l1.61.46c.54.13,1.06.18,1.6.28,1.11.02,2.22-.05,3.31-.19,2.17-.27,4.29-.87,6.28-1.78,3.9-1.76,7.13-4.73,9.19-8.48,1-1.82,1.75-3.79,2.6-5.67l2.51-5.57c6.66-14.67,12.57-27.94,16.79-39.36,2.03-5.08,3.58-10.34,4.63-15.72.18-1.14.21-2.29.07-3.43-.19-1.06-.45-2.1-.78-3.12-.58-1.79-1.41-3.5-2.46-5.06-1.48-2.18-3.55-3.89-5.97-4.94-.62-.27-1.26-.5-1.91-.67l-.67-.18.69.13c.66.15,1.31.36,1.94.63,2.42,1.04,4.49,2.74,5.97,4.91,1.08,1.57,1.94,3.28,2.54,5.09.34,1.03.62,2.08.82,3.15.14,1.18.11,2.37-.07,3.54-.96,5.39-2.43,10.67-4.4,15.78-4.19,11.45-10.06,24.74-16.7,39.42l-2.49,5.58c-.85,1.87-1.58,3.84-2.61,5.7-2.14,3.86-5.49,6.91-9.54,8.69-2.04.93-4.21,1.55-6.43,1.84-1.12.15-2.26.21-3.39.18-.58-.07-1.15-.17-1.72-.3l-1.64-.46c-4.34-1.39-8.58-3.15-12.88-4.94-10.57-4.48-20.7-9.06-30.16-13.43l-.19-.1v-.21c2.06-7.12,4.06-13.98,5.97-20.57l.07-.24.24.07,36,10.75-.24.12,10.63-29.42c1.24-3.45,2.21-6.12,2.88-7.97l.76-2.06c.18-.42.28-.66.28-.66Z"/>
    <path class="cls-11" d="M517.03,334.25c-.16,0-.72-3.58-2.33-7.75-1.61-4.16-3.57-7.25-3.42-7.34.54.59,1.01,1.24,1.39,1.94,1,1.66,1.84,3.4,2.54,5.21.68,1.81,1.2,3.67,1.57,5.57.19.78.28,1.57.25,2.37Z"/>
    <path class="cls-11" d="M546.77,253.86c0,.09-1.33.52-3.36,1.49-1.19.61-2.34,1.29-3.45,2.04-1.33.94-2.59,1.99-3.76,3.12-1.16,1.15-2.23,2.39-3.21,3.7-.78,1.08-1.49,2.2-2.12,3.37-1.07,2.01-1.49,3.37-1.64,3.33.05-.33.14-.66.27-.97.28-.86.63-1.71,1.03-2.52.6-1.22,1.29-2.39,2.07-3.51.96-1.34,2.03-2.59,3.21-3.75,1.2-1.15,2.49-2.2,3.87-3.13,1.15-.75,2.35-1.41,3.6-1.98.83-.38,1.68-.71,2.55-.99.3-.12.62-.19.94-.21Z"/>
    <path class="cls-11" d="M344.98,444.36l-25.37-18.07s55.43-80.29,61.06-86.56c4.27-4.7,13.58-11.94,24.52-11.49,10.94.45,31.15,7.37,38.46,9.39,7.31,2.01,71.07,20.13,79.26,26.69,0,0-5.72,24.7-12.42,30.48-5.25,4.48-23.88,5.31-35.82,2.01-11.94-3.3-70.15-30.01-70.15-30.01l-59.55,77.58Z"/>
    <path class="cls-11" d="M359.71,469.8l30.54,10.91,26.07-93.19,55.53,8.39-48.79-45.8s-26.57,7.91-30.88,8.63c-5.55.94-12.94,12.21-15.36,24.09-2.09,10.37-17.12,86.98-17.12,86.98Z"/>
    <path class="cls-5" d="M454.08,393.96c-.07.12-14.4-8.04-32-18.24-17.6-10.19-31.8-18.55-31.73-18.69s14.4,8.03,32,18.22c17.6,10.19,31.8,18.57,31.73,18.7Z"/>
    <g class="cls-17">
      <path class="cls-2" d="M361.69,422.61s10.18-46.91,19.67-52.55c0,0-9.12,24.34-10.03,40l-9.64,12.55Z"/>
    </g>
    <path class="cls-5" d="M396.36,360.54c-1,0-2,.09-2.98.27-2.7.59-5.18,1.91-7.18,3.81-2.92,2.87-5.11,6.39-6.4,10.27-1.69,4.73-3.11,9.55-4.24,14.45-2.37,10.45-3.75,20.04-5.07,26.86-.63,3.46-1.22,6.24-1.64,8.16-.21.91-.39,1.64-.52,2.19-.05.26-.12.51-.21.76,0-.27.04-.53.1-.79.1-.55.25-1.28.42-2.21.36-1.94.9-4.72,1.49-8.18,1.22-6.91,2.55-16.52,4.93-26.98,1.14-4.91,2.58-9.75,4.3-14.49,1.32-3.97,3.59-7.55,6.61-10.45,2.08-1.93,4.67-3.22,7.46-3.73.98-.16,1.97-.14,2.94.06Z"/>
    <path class="cls-11" d="M367.99,451.52l-6.58,29.49s-31.94,5.15-33.36,10.57l57.5,11.37,9.37-46.12-26.94-5.31Z"/>
    <path class="cls-3" d="M379.68,482.03c1.13.52,1.63,1.85,1.12,2.98s-1.85,1.63-2.98,1.12c-2.87-1.4-.55-5.64,2.06-3.98"/>
    <path class="cls-5" d="M385.56,502.95l.76-4.7-55.41-9.13s-2.78.61-2.85,2.46l57.5,11.37Z"/>
    <path class="cls-15" d="M360.53,480.54c0,.28,1.33.69,2.54,1.85s1.7,2.51,1.98,2.45c1.16-1.25-3.34-5.52-4.52-4.3Z"/>
    <path class="cls-15" d="M354.01,481.83c-.12.25,1,.97,1.72,2.36s.75,2.69,1.03,2.72c1.46-.78-1.27-5.91-2.75-5.07Z"/>
    <path class="cls-15" d="M349.16,488.37c1.4-.21,0-5.7-1.28-5.24.12.15,1.39,5.04,1.28,5.24Z"/>
    <path class="cls-15" d="M362.38,473.85c.16,0,5.78,1.4,5.9,1.49.39-1.34-5.58-2.9-5.9-1.49Z"/>
    <path class="cls-11" d="M336.17,411.38l-18.97,23.51s-30.91-9.54-34.58-5.31l46.5,35.7,27.6-38.19-20.55-15.7Z"/>
    <path class="cls-3" d="M333.13,443.91c.7,1.04.43,2.45-.61,3.15-.91.62-2.13.49-2.9-.3-1.94-2.52,2.01-5.31,3.64-2.66"/>
    <path class="cls-5" d="M329.13,465.27l2.76-3.87-45.62-32.83s-2.76-.69-3.64.94l46.5,35.76Z"/>
    <path class="cls-15" d="M316.64,434.08c-.18.22.88,1.21,1.49,2.79.61,1.58.42,2.98.69,3.07,1.55-.61-.58-6.43-2.18-5.87Z"/>
    <path class="cls-15" d="M310.2,432.34c-.22.18.46,1.33.51,2.88s-.52,2.73-.3,2.9c1.72-.03,1.54-5.87-.21-5.78Z"/>
    <path class="cls-15" d="M303,436.06c1.36.43,2.58-5.09,1.18-5.27-.01.18-1.18,5.15-1.18,5.27Z"/>
    <g class="cls-17">
      <path class="cls-2" d="M449.26,391.17s-33.68-13.19-42.59-19.4c-5.32-3.73-10.18-8.08-14.48-12.95l57.07,32.36Z"/>
    </g>
    <path class="cls-11" d="M494.98,166.4c4.63-.87,8.96,3.63,13.69,3.25,2.88-.23,5.27-2.22,7.94-3.31,2.08-.84,4.34-1.2,6.59-1.04,2.25.16,4.43.83,6.37,1.96,3.61,2.28,5.79,4.65,5.9,8.91,3.71-1.59,9.05,3.36,10.55,7.74,1.51,4.38.52,8.63-1.16,12.98-2.81,7.49-7.08,14.36-12.58,20.24-.49.52-1.23,1.07-1.84.71-.19-.16-.34-.36-.43-.59-.09-.23-.13-.47-.1-.72-.21-4.16.8-8.26,1.62-12.35.82-4.09,1.48-8.3.6-12.38-.88-4.08-3.59-7.97-7.63-9.24-3.06-.77-6.29-.45-9.13.9-2.88,1.2-5.49,2.94-8.26,4.35-2.71,1.57-5.81,2.38-8.95,2.33-3.12-.2-6.28-2.02-7.29-4.92-1.01-2.9.91-6.67,4.03-6.97-1.39-.29-2.64-1.04-3.53-2.12-.89-1.09-1.37-2.44-1.36-3.84.01-1.4.51-2.75,1.42-3.82.91-1.07,2.17-1.81,3.56-2.07Z"/>
    <path class="cls-11" d="M499.52,177.11c1.49-2.09,3.48-3.78,5.79-4.92,4.9-2.7,10.55-3.81,16.13-3.17,5.6.68,10.71,3.47,14.25,7.78,2.7,3.53,4.28,7.77,4.55,12.18.39,4.81-.12,9.66-1.49,14.29-.61,1.82-1.8,2.35-3.34,3.53-.96.74-2.49,1.14-3.34.23-.44-.56-.68-1.26-.67-1.97-.64-6.38-1.16-13.21,1.99-18.8-1.18-2.26-2.82-4.26-4.83-5.85-1-.8-2.16-1.39-3.4-1.74-1.24-.35-2.54-.46-3.82-.32-3.79.57-6.52,3.7-9.77,5.69-2.34,1.4-4.99,2.23-7.72,2.43-2.73.2-5.47-.24-8-1.29l3.66-8.06Z"/>
    <path class="cls-3" d="M545.89,194.16c0-.09-.88-.11-2.24-.4-3.56-.76-6.7-2.79-8.83-5.69-.8-1.14-1.16-1.89-1.25-1.86.18.74.5,1.44.95,2.06,1,1.55,2.33,2.87,3.89,3.88,1.56,1.01,3.32,1.69,5.17,1.98.76.16,1.54.16,2.31.02Z"/>
    <path class="cls-3" d="M544.94,196.42c0-.09-.87-.11-2.22-.4-3.56-.75-6.71-2.78-8.83-5.69-.81-1.14-1.16-1.89-1.25-1.86.17.74.49,1.44.95,2.06,1,1.55,2.33,2.87,3.89,3.88,1.56,1.01,3.32,1.69,5.17,1.98.76.15,1.53.16,2.29.02Z"/>
  </g>
  <g id="freepik--character-2--inject-67">
    <path class="cls-11" d="M427.36,554.59c9.37-4.44,16.54-1.18,19.96,1.79s5.35,7.31,6.44,11.7c1.09,4.39,1.43,8.93,2.27,13.35.52,2.56.86,5.15,1.02,7.76.34,3.79-.18,10.49-2.27,13.66-2.01,3.05-4.14,5.75-7.31,7.6-1.13.67-2.47,1.35-3.7.89-.89-.33-1.47-1.19-1.98-1.99-9.19-14.65-16.18-30.58-20.73-47.26"/>
    <rect class="cls-5" x="289.31" y="767" width="373.68" height="45.71"/>
    <path class="cls-5" d="M659.42,831.2l50.59-44.06c1.3-1.13,1.44-3.1.31-4.4-.14-.16-.29-.31-.46-.44l-52.24-40.06c-1.36-1.06-3.32-.81-4.38.55-.44.57-.67,1.27-.65,1.98l1.6,84.1c.01,1.73,1.43,3.12,3.16,3.11.76,0,1.5-.29,2.07-.8Z"/>
    <path class="cls-12" d="M441.36,559.81l-25.37,2.28c-2.41-.13-4.52,1.61-4.85,4l-6.13,53.64c-.4,3.64.4,7.31,2.28,10.45l2,3.33c3.46,5.85,11,7.78,16.85,4.33,1.46-.86,2.73-2.02,3.72-3.4.3-.41.56-.86.75-1.33.13-.48.3-.78.37-1.18l1.1-5.18c.81-4.73,1.42-9.58,1.42-9.54s10.3,0,14.45-12.82c2.07-6.33,3.45-17.04,4.28-25.85.75-7.92-2.97-18.39-10.87-18.73Z"/>
    <path class="cls-11" d="M447.42,589.16c-.11.93-.95,1.6-1.88,1.49-.89-.06-1.56-.83-1.5-1.72,0-.02,0-.05,0-.07.1-.93.93-1.6,1.86-1.5,0,0,.01,0,.02,0,.9.07,1.57.85,1.5,1.75,0,.01,0,.03,0,.04Z"/>
    <path class="cls-11" d="M449.02,583.69c-.24.18-1.36-.96-3.16-1.24-1.81-.28-3.27.4-3.43.15s.19-.48.84-.81c.87-.42,1.84-.56,2.79-.39.94.14,1.81.58,2.48,1.25.49.55.61,1.03.49,1.03Z"/>
    <path class="cls-11" d="M431.35,587.22c-.11.93-.95,1.6-1.89,1.49,0,0,0,0,0,0-.9-.07-1.56-.85-1.49-1.75,0,0,0-.02,0-.03.12-.93.96-1.6,1.9-1.49.9.08,1.57.87,1.49,1.78Z"/>
    <path class="cls-11" d="M431.85,581.22c-.24.18-1.37-.96-3.16-1.24-1.79-.28-3.28.4-3.43.15s.18-.48.84-.81c.87-.41,1.84-.55,2.79-.39.94.14,1.81.58,2.48,1.25.48.52.61.94.49,1.03Z"/>
    <path class="cls-11" d="M435.65,595.63c.99-.12,1.99-.12,2.98,0,.46,0,.91,0,1.04-.3.11-.47.08-.96-.09-1.4-.25-1.19-.52-2.43-.81-3.73-.78-3.18-1.32-6.41-1.6-9.67,1.05,3.11,1.84,6.29,2.37,9.52.25,1.3.51,2.55.75,3.73.22.6.22,1.25,0,1.85-.19.31-.51.51-.87.55-.26.04-.53.04-.79,0-1.02-.06-2.03-.24-3-.55Z"/>
    <path class="cls-1" d="M433.48,617.21c-6.17-.89-11.98-3.47-16.78-7.46,0,0,2.98,9.75,16.25,10.61l.52-3.15Z"/>
    <path class="cls-1" d="M434.18,599.89c-.55-.99-1.58-1.63-2.72-1.67-.82-.06-1.62.22-2.22.78-.59.53-.79,1.38-.49,2.12.49.76,1.38,1.15,2.27.99.9-.18,1.75-.52,2.52-1.01.23-.11.44-.26.61-.45.16-.18.2-.45.1-.67"/>
    <path class="cls-11" d="M430.14,596.05c.28,0,0,2,1.49,3.66,1.49,1.66,3.58,1.78,3.55,2.04s-.52.31-1.42.19c-1.15-.16-2.21-.73-2.98-1.6-.73-.82-1.12-1.89-1.09-2.98.01-.88.31-1.34.45-1.31Z"/>
    <path class="cls-11" d="M433.32,574.84c-.25.46-2.03,0-4.18-.15-2.15-.15-3.97.22-4.18-.25-.09-.24.28-.64,1.04-1.01,1.01-.44,2.12-.64,3.22-.58,1.11.04,2.19.35,3.15.9.72.43,1.04.88.94,1.1Z"/>
    <path class="cls-11" d="M450.58,575.83c-.39.36-1.49-.27-2.98-.52s-2.81-.18-2.98-.64c-.1-.24.16-.61.78-.91.82-.36,1.72-.46,2.6-.28.88.16,1.69.59,2.31,1.22.34.49.45.96.28,1.13Z"/>
    <path class="cls-12" d="M411.32,588.53c.15-.97.34-2.36-.54-2.81-2.63-1.31-8.18-2.28-9.25,4.22-1.49,8.95,7.76,8.57,7.82,8.31s1.45-6.36,1.97-9.73Z"/>
    <path class="cls-1" d="M407.18,594.42s-.16.09-.45.16c-.39.11-.81.05-1.16-.16-1.05-.94-1.51-2.37-1.21-3.75.11-.77.39-1.5.81-2.15.27-.54.78-.91,1.37-1,.38-.03.74.21.84.58.07.27,0,.43,0,.46s.21-.12.19-.51c-.01-.23-.1-.44-.25-.61-.22-.23-.51-.36-.82-.37-.77.03-1.47.45-1.85,1.12-.5.71-.83,1.53-.96,2.39-.36,1.61.28,3.27,1.63,4.22.47.23,1.02.23,1.49,0,.33-.16.4-.36.37-.39Z"/>
    <path class="cls-11" d="M447.45,710.09s51.24-5.81,59.59-7.22c16.01-2.72,32.04-.12,38.8,13.64,3.1,6.27-.82,18.36-10.21,27.33-7,6.7-41.79,41.86-41.79,41.86l-29.85-24.88,36.88-28.68-71.49,10.04,18.06-32.09Z"/>
    <path class="cls-11" d="M500.58,768.53l-19.16,20.24s14.48,26.6,11.31,30.68l-41.28-36.37,28.55-32.83,20.58,18.28Z"/>
    <path class="cls-3" d="M470.15,775.76c-1.03-.48-2.25-.11-2.84.87-.5,1.02-.12,2.26.88,2.82,1.08.5,2.38.1,2.98-.93.4-1.13-.15-2.37-1.25-2.84"/>
    <path class="cls-3" d="M451.45,783.09l2.88-3.31,38.8,36.34c.33,1.12.22,2.33-.31,3.37l-41.37-36.4Z"/>
    <path class="cls-15" d="M482.27,789.16c-.18.19-1.27-.61-2.82-.85-1.55-.24-2.82.13-2.98-.1s1.19-1.12,3.07-.81,2.93,1.61,2.73,1.76Z"/>
    <path class="cls-15" d="M485.08,794.74c-.12.22-1.3-.21-2.72,0-1.42.21-2.4.94-2.6.76s.67-1.42,2.45-1.67c1.78-.25,3,.72,2.87.91Z"/>
    <path class="cls-15" d="M483.02,801.99c-.21-.12.37-1.36,1.85-1.98s2.79-.22,2.73,0-1.15.3-2.36.84-2,1.31-2.22,1.15Z"/>
    <path class="cls-15" d="M486.12,784.06c-.25.1-.94-.99-2.15-1.91-1.21-.93-2.4-1.36-2.36-1.63s1.49-.21,2.98.9c1.49,1.1,1.75,2.57,1.52,2.64Z"/>
    <path class="cls-5" d="M514.42,765.01c-.11.16-.23.31-.37.45l-1.13,1.21-4.27,4.48-14.61,14.75-.18.18-.19-.16-3.72-3.09-18.3-15.48-5.52-4.73-1.49-1.31c-.18-.14-.35-.3-.49-.48.21.11.4.25.57.4l1.49,1.22,5.64,4.6,18.51,15.34,3.7,3.1h-.36l14.69-14.69,4.39-4.3,1.19-1.15c.14-.13.3-.25.46-.34Z"/>
    <path class="cls-11" d="M558.01,763.37l25.16,22.21,24.95,11.81c1.71.83,2.42,2.9,1.59,4.61-.03.06-.06.12-.09.18h0c-.54.97-1.52,1.62-2.63,1.75-7.06.75-33.01,3.39-34.76,1.66-2.03-2-28.1-21.66-28.1-21.66l13.88-20.55Z"/>
    <path class="cls-3" d="M609.67,802.17l-39.12,1.94,1.73,1.49c.77.59,1.74.84,2.7.69,3.28,0,12.37-.27,32-2.27,1.14-.12,2.15-.81,2.69-1.82v-.03Z"/>
    <g class="cls-18">
      <path class="cls-15" d="M570.53,794.55c1.03-.25,2.08.32,2.43,1.31.29,1.02-.27,2.1-1.28,2.43-1.09.26-2.2-.35-2.58-1.4-.18-1.1.53-2.16,1.63-2.39"/>
    </g>
    <path class="cls-15" d="M593.52,798.61c-.29-1.29-.32-2.62-.1-3.93.42-1.26,1.07-2.42,1.93-3.43,0-.07-.52.09-1.1.61-.74.72-1.26,1.64-1.49,2.64-.25.99-.21,2.02.12,2.98.22.79.58,1.12.66,1.12Z"/>
    <path class="cls-15" d="M598.5,799.67c.21-1.08.47-2.16.81-3.21.7-1.66,1.91-2.6,1.79-2.78s-1.66.6-2.46,2.49c-.61,1.07-.66,2.38-.13,3.49Z"/>
    <path class="cls-15" d="M586.23,798.29c.18-1.7.49-3.38.93-5.03.66-1.57,1.43-3.09,2.31-4.55-2.85,2.29-4.12,6.03-3.24,9.58h0Z"/>
    <path class="cls-15" d="M578.03,792.17c.21,0,.82-1.85,2.3-3.75,1.48-1.9,3.16-2.98,3.06-3.18-1.5.45-2.79,1.42-3.64,2.73-1.04,1.16-1.64,2.64-1.72,4.19Z"/>
    <path class="cls-15" d="M572.41,788.25c.59-1.42,1.36-2.76,2.3-3.98,1.11-1.06,2.36-1.96,3.72-2.67,0-.09-.57-.09-1.42.22-2.2.86-3.86,2.72-4.48,5-.25.87-.21,1.42-.12,1.43Z"/>
    <path class="cls-11" d="M365.68,732.94c.51,1.28-1.76,42.46,37.31,42.71,35.09.22,82.26-31.92,87.64-29.85,3.52,1.36,64.07,53.95,64.07,53.95l21.85-25.66s-56.03-53.46-61.53-57.31c-11.79-8.25-20.09-8.19-39.51-4.67-17.36,3.13-59.89,17.27-59.89,17.27l-4.09-3.48-45.85,7.03Z"/>
    <path class="cls-5" d="M462.96,716.18l.66-.28,1.96-.73c1.73-.63,4.3-1.49,7.66-2.45,4.09-1.15,8.25-2.03,12.46-2.63,2.63-.4,5.29-.58,7.95-.55,2.99.05,5.97.42,8.88,1.12,6.7,1.63,12.92,4.84,18.12,9.37,5.4,5.03,11.04,10.54,17.06,16.27l39.07,37.52.19.18-.16.19-2.98,3.54c-3.24,3.81-6.6,7.69-9.92,11.25s-6.33,7.15-9.39,10.7l.09.19-34.33-29.67-14.7-12.73-6.6-5.73-3.1-2.69c-.51-.43-1-.88-1.49-1.27-.51-.36-1.06-.67-1.64-.93-2.21-.95-4.73-.92-6.91.1l-5.79,2.85-9.22,4.48-5.79,2.82-1.49.72-.52.24.49-.27,1.49-.78,5.75-2.9,9.19-4.6,5.78-2.87c2.26-1.08,4.87-1.14,7.18-.16.6.26,1.18.59,1.72.97.54.4,1.03.85,1.49,1.28l3.1,2.67,6.64,5.7,14.73,12.69,34.33,29.61.09.19c2.98-3.6,6.16-7.28,9.18-11.1s5.97-7.46,9.22-11.22l2.98-3.49v.37l-39.06-37.52c-5.97-5.73-11.63-11.27-17-16.3-5.14-4.49-11.28-7.69-17.91-9.33-2.88-.7-5.83-1.08-8.79-1.15-2.65-.04-5.29.13-7.91.51-4.2.57-8.36,1.42-12.45,2.54-3.37.91-5.97,1.75-7.67,2.34l-1.97.69-.66.22Z"/>
    <path class="cls-10" d="M441.54,624.78s12.95,5.15,14.49,16.1c1.28,9.13-1.57,33.46-1.49,35.1-.05,1.44.44,2.84,1.37,3.94,1.58,1.7,2.46,3.93,2.45,6.25.1,1.56-.17,3.12-.79,4.55-1.49,2.51-15.82,19.12-15.82,19.12l-12.75-26.49s8.36-24.82,8.42-25.46,4.12-33.12,4.12-33.12Z"/>
    <path class="cls-12" d="M456.21,689.66c.55.07,19.24,13.36,19.24,13.36,0,0,4.57-8.82,6.61-9.07,2.04-.25,8.34,2.15,8.95,2.82.87.62,1.92.93,2.98.88,1.22.12,3.42,3.21,3.42,3.21l4.21,3.13s-1.31,2.46-1.67,2.88-3.19-.76-3.15-1.21.36,2.76-1.82,2.85c-1.75-.09-3.45-.57-5-1.39l-.73-3.7-5.42-3.52-.64,3.55s5.48,1.13,5.31,2.98c-.1,1.05-.79,1.96-1.78,2.34l-4.48-.1-9.98,2.39s-26.18-5.78-27.13-8.76c-.96-2.98,3.4-13.67,11.07-12.64Z"/>
    <path class="cls-10" d="M456.41,683.46c2.29,1.94,4.06,4.41,5.16,7.19,1.16,2.64,13.64,11.78,13.64,11.78l-10.12,8.19s-21.1.87-22.1-2.27,2.31-17.13,2.31-17.13l11.1-7.76Z"/>
    <path class="cls-3" d="M443.29,719.09h0c.25.93,1.18,1.49,2.12,1.28l36.68-8.03,31.54-5.75.27-2.79-30.15,4.31-39.15,8.75c-.96.23-1.56,1.19-1.33,2.15,0,.02.01.05.02.07Z"/>
    <path class="cls-3" d="M500.6,664.96l-17.01,43.45c-.49,1.22.11,2.61,1.33,3.1.41.16.86.21,1.3.14l37.46-6.91c.84-.13,1.54-.7,1.84-1.49l17.03-43.12c.26-.65-.06-1.39-.71-1.65-.19-.07-.39-.1-.59-.08l-38.65,5.06c-.89.09-1.66.67-1.99,1.51Z"/>
    <path class="cls-11" d="M504.48,663.45c.13,0-3.93,10.87-9.09,24.16-5.16,13.3-9.45,24.01-9.58,23.95s3.93-10.87,9.07-24.16,9.4-24.01,9.6-23.95Z"/>
    <ellipse class="cls-15" cx="515.87" cy="684.98" rx="4.25" ry="2.31" transform="translate(-328.02 837.18) rotate(-63.24)"/>
    <path class="cls-10" d="M443.85,712.33s-3.06-12.88-2.45-15.24c1.76-6.79,10.85-23.88,10.09-34.19-.76-10.31-9.95-38.12-9.95-38.12l-8.78-2.98c-3.55,7.73-17.31,5.97-28.55-3.06l-14.09,2.85-22.07,68.65-3.7,25c-8.95,11.67,1.36,17.82,1.36,17.82,0,0,17,5.34,30.43,2.98,10.04-1.79,24.7-8.88,27.98-11.46,7.87-6.16,20.33-5.73,20.33-5.73l-.6-6.52Z"/>
    <path class="cls-12" d="M419.21,712.97l9.19,3.75s5.1-2.98,5.85-3.33c4.27-.79,8.59-1.32,12.92-1.58,1.43.03,2.86-.07,4.27-.28l-12.15,7.46-7.7,10.25c-2.12.69-4.32,1.07-6.55,1.13-3.83-.33-7.62-.98-11.34-1.93l5.51-15.48Z"/>
    <path class="cls-10" d="M391.89,621.32s-16.13.96-21.8,13.84c-3.79,8.6-11.6,46.42-12.75,53.34s0,15.34,5.54,19.7,51.5,23.88,51.5,23.88l9.58-18.46-38.8-24.07h-1.25l4.64-27.77"/>
    <path class="cls-11" d="M388.57,661.81v.48c0,.31-.12.81-.21,1.4-.21,1.27-.49,3.1-.88,5.46-.78,4.79-1.91,11.73-3.33,20.46l-.16-.19h1.31l38.8,24.01.21.12-.12.21-9.55,18.46-.12.22-.22-.09c-9.33-3.98-19.27-8.33-29.46-12.94-4.03-1.82-7.98-3.66-11.87-5.52-1.94-.94-3.87-1.88-5.75-2.88-1.92-.9-3.72-2.04-5.36-3.4-1.52-1.46-2.71-3.24-3.49-5.19-.78-1.91-1.28-3.92-1.49-5.97-.21-1.98-.21-3.99,0-5.97.19-1.97.6-3.88.96-5.76,1.49-7.46,2.98-14.64,4.48-21.28,1.49-6.64,2.98-12.82,4.48-18.42.76-2.81,1.49-5.45,2.39-7.92.81-2.34,2-4.54,3.52-6.49,1.37-1.66,2.96-3.13,4.73-4.36,1.5-1.01,3.09-1.87,4.76-2.57,2.29-.97,4.69-1.67,7.15-2.09.85-.15,1.49-.22,1.93-.27h.67l-.66.09-1.91.31c-2.44.46-4.82,1.19-7.1,2.18-1.64.71-3.21,1.57-4.69,2.58-1.73,1.23-3.3,2.68-4.64,4.33-1.49,1.94-2.64,4.12-3.43,6.43-.84,2.46-1.6,5.1-2.34,7.91-1.49,5.58-2.98,11.76-4.48,18.42-1.49,6.66-2.98,13.76-4.48,21.28-.34,1.88-.75,3.78-.93,5.7-.21,1.96-.21,3.94,0,5.9.33,4.05,2.03,7.86,4.84,10.81,1.61,1.32,3.37,2.43,5.25,3.31,1.88.99,3.79,1.93,5.73,2.87,3.88,1.87,7.86,3.71,11.94,5.52,10.18,4.61,20.1,8.95,29.43,12.94l-.34.12c3.33-6.4,6.54-12.58,9.6-18.45l.09.33-38.74-24.15h.09-1.49v-.19c1.49-8.72,2.69-15.66,3.49-20.43.42-2.36.75-4.19.96-5.45.12-.6.19-1.06.27-1.4s.18-.46.18-.46Z"/>
    <path class="cls-11" d="M450.09,640.88s-.21.97-.4,2.73c-.1,1.07-.14,2.15-.1,3.22,0,1.25.21,2.69.42,4.27.61,3.69.99,7.42,1.15,11.16.19,4.62-.55,9.22-2.16,13.55-1.78,4.57-4.09,8.63-5.52,12.55-1.16,3.53-1.55,7.26-1.15,10.95.19,3.18.49,5.75.67,7.46.09.84.16,1.49.21,2.04.02.24.02.48,0,.72-.08-.23-.13-.46-.15-.7-.07-.52-.18-1.19-.31-2.03-.24-1.78-.61-4.33-.85-7.46-.46-3.75-.1-7.55,1.06-11.15,1.49-4.01,3.75-8.06,5.49-12.58,1.6-4.29,2.34-8.86,2.16-13.43-.13-3.72-.47-7.43-1.01-11.12-.19-1.43-.31-2.86-.34-4.3-.02-1.09.04-2.19.19-3.27.09-.68.23-1.35.4-2.01.06-.21.15-.42.25-.61Z"/>
    <path class="cls-11" d="M393.14,648.33c-.1,0,.4-1.49.67-3.85.12-1.4.12-2.8,0-4.19-.43-4.86-2.34-9.47-5.46-13.21-1.49-1.84-2.75-2.76-2.67-2.85.31.16.61.37.87.61.75.6,1.45,1.27,2.09,1.98,2.13,2.39,3.74,5.2,4.7,8.25.51,1.68.84,3.41.99,5.16.08,1.44.01,2.88-.19,4.3-.07.54-.18,1.08-.31,1.61-.08.41-.2.81-.34,1.19-.07.34-.18.67-.33.99Z"/>
    <path class="cls-11" d="M415.5,686.67c1.51-.41,2.98-.98,4.37-1.69.69-.39,1.35-.82,1.98-1.28.71-.55,1.39-1.15,2.03-1.79,1.49-1.46,2.78-3.1,3.84-4.9,1.95-3.25,3.34-6.81,4.09-10.52.55-2.85.58-4.67.7-4.67.04.43.04.86,0,1.28-.03,1.16-.15,2.32-.34,3.46-.65,3.8-2,7.44-4,10.73-1.08,1.83-2.4,3.5-3.94,4.97-.67.64-1.38,1.24-2.12,1.79-.66.46-1.36.88-2.07,1.25-.59.31-1.2.58-1.84.79-.48.18-.98.32-1.49.4-.39.11-.8.16-1.21.16Z"/>
    <path class="cls-11" d="M373.72,694.63c1.4-1.68,3.19-2.98,5.22-3.78,1.96-.96,4.13-1.42,6.31-1.33-2.07.45-4.11,1.06-6.09,1.82-1.9.94-3.73,2.04-5.45,3.28Z"/>
    <path class="cls-12" d="M453.85,713.95c-.1.67-.6,1.2-1.25,1.36-.14.02-.28.02-.42,0-1,0-1.49-1.9-1.49-1.9l-4.57.63s-6.51,8.25-8.81,10.6c-9.03,9.22-11.39,2.57-11.39,2.57l2.81-10.84,5.78-9.67s-.36.58-.22-.94,2.81-1.78,2.81-1.78c.18-.79,1.75-1.49,1.75-1.49l7.25-1.34c1.5-.28,3.04.13,4.19,1.13l4.4,3.78s2.6,2.9,2.58,3.76c0,.77-.58,1.42-1.34,1.49,0,0,.33,2.33-.22,2.58-.61.16-1.24.2-1.87.12v-.06Z"/>
    <path class="cls-1" d="M436.9,711.88c0,.07.94-.3,2.45-.7,1.98-.49,4.02-.72,6.06-.67,1.12.03,2.23.15,3.33.36.89.05,1.74.35,2.46.87.2.24.27.57.18.87-.07.24-.21.45-.4.61-.31.25-.58.22-.58.27s.28.13.69-.13c.25-.15.44-.39.54-.67.15-.39.09-.82-.16-1.15-.32-.35-.73-.6-1.18-.72-.46-.13-.94-.27-1.49-.37-1.13-.23-2.27-.36-3.42-.39-2.08-.07-4.16.21-6.15.82-.82.22-1.6.56-2.31,1.01Z"/>
    <path class="cls-1" d="M437.78,716.52c0,.13,2.87-.85,6.43-1.73s6.52-1.3,6.49-1.49c-.65-.05-1.31,0-1.96.12-1.57.21-3.12.49-4.66.87-1.52.38-3.01.84-4.48,1.37-.64.22-1.26.51-1.84.87Z"/>
    <path class="cls-1" d="M453.73,713.79c0-.26-.05-.53-.13-.78-.16-.69-.37-1.38-.63-2.04-.17-.47-.38-.93-.63-1.37-.3-.51-.69-.96-1.16-1.31-1.01-.85-2.18-1.49-3.45-1.88-1.25-.4-2.55-.63-3.87-.67-1.07.02-2.13.17-3.16.46-.88.24-1.49.48-2.04.64-.26.07-.5.17-.73.3.96-.14,1.92-.34,2.85-.61,2.26-.57,4.63-.46,6.82.33,1.21.38,2.34.98,3.33,1.78.8.65,1.4,1.5,1.75,2.46.7,1.64,1.06,2.73,1.06,2.7Z"/>
    <path class="cls-1" d="M439.73,704.18s1.09-.22,2.82-.55c1.73-.33,4.3-.91,6.45.87,1.94,1.22,3.7,2.7,5.22,4.4.57.76,1.07,1.57,1.49,2.42,0-.26-.07-.51-.18-.75-.25-.67-.59-1.3-1.01-1.87-1.48-1.8-3.25-3.36-5.22-4.6-.55-.4-1.16-.72-1.79-.97-.61-.2-1.24-.29-1.88-.27-1.05.04-2.1.19-3.12.45-.96.17-1.89.46-2.78.87Z"/>
    <path class="cls-1" d="M441.42,720.52c.12-.14.23-.29.31-.45l.9-1.3c1.12-1.6,2.33-3.13,3.63-4.58h-.09l4.55-.58-.19-.13c.1.36.23.7.4,1.03.17.37.46.68.81.9.21.09.43.13.66.09.22-.01.43-.06.63-.15.4-.2.72-.53.9-.94.05-.1.08-.21.1-.31h0l-.22.16h1.43l.34-.07c.14-.03.27-.1.37-.19.14-.21.23-.45.25-.7v-.67c0-.44-.04-.88-.1-1.31l-.19.25c.66-.03,1.24-.44,1.49-1.04.11-.31.11-.66,0-.97-.11-.28-.25-.55-.42-.79-.65-.97-1.36-1.89-2.15-2.75h0l-2.34-2.01-1.49-1.28c-.48-.45-1.01-.85-1.57-1.19-.59-.31-1.23-.5-1.9-.57-.64-.03-1.28.03-1.9.18l-6.84,1.28h0c-.37.18-.73.4-1.06.66-.36.25-.64.6-.79,1.01l.22-.15c-.83-.11-1.66.2-2.22.82-.45.6-.65,1.36-.57,2.1v-.1c-1.67,2.76-2.98,5.03-3.98,6.64l-1.07,1.82c-.14.21-.25.43-.34.66.16-.19.3-.4.43-.61l1.15-1.76,4.12-6.57v-.1c-.07-.65.11-1.31.51-1.84.48-.51,1.18-.77,1.88-.67h.25v-.16c.13-.32.36-.59.64-.78.32-.23.65-.44,1-.61h0l6.84-1.24c.58-.14,1.18-.2,1.78-.16.6.06,1.18.23,1.72.51.54.33,1.04.71,1.49,1.15l1.49,1.28,2.34,2.01h0c.77.85,1.47,1.74,2.12,2.69.14.22.26.45.36.69.07.22.07.45,0,.67-.2.43-.61.72-1.07.76h-.22v.22c.06.42.09.83.09,1.25.04.37-.02.74-.16,1.07l-.16.07h-1.61c.21-.15-.27.21-.22.18h0v.1c-.09.43-.38.79-.78.97-.15.07-.31.11-.48.12-.15.05-.3.05-.45,0-.53-.42-.9-1.01-1.03-1.67v-.15h-.24l-4.55.66h0c-1.29,1.49-2.47,3.06-3.55,4.7-.37.58-.64,1.03-.82,1.34-.15.16-.29.33-.4.52Z"/>
    <g class="cls-17">
      <path class="cls-2" d="M432.14,666.79c-.8,3.89-2.28,7.6-4.39,10.97-2.49,3.84-5.64,5.85-9.55,8.27l-.28.12c8.17.09,14.87-6.45,14.96-14.62.02-1.62-.23-3.24-.74-4.78v.04Z"/>
    </g>
    <g class="cls-17">
      <rect class="cls-2" x="643.38" y="769.16" width="9.27" height="40.43"/>
    </g>
    <rect class="cls-5" x="61.05" y="767.43" width="109.87" height="45.71"/>
    <path class="cls-11" d="M406.89,617.19c-6.83-.39-12.06-6.24-11.67-13.08.13-2.34.92-4.59,2.28-6.5.35-.57.87-1.02,1.48-1.29,1.33-.45,2.63.67,3.59,1.71l6.91,7.44"/>
    <path class="cls-15" d="M401.13,614.93s-.42-.59-.93-1.61c-.3-.59-.54-1.22-.72-1.86-.2-.78-.3-1.59-.3-2.4,0-1.49.33-2.96.95-4.31.48-1.04.9-1.62.86-1.65-.12.12-.22.25-.31.4-.27.37-.5.77-.71,1.18-1.08,2.13-1.32,4.58-.69,6.87.19.66.45,1.29.78,1.89.12.23.26.45.41.67.1.17.22.33.35.48.1.13.21.24.34.34Z"/>
    <path class="cls-11" d="M403.58,568.98c2.48-5.74,7.13-10.35,12.46-13.63,2.86-1.76,6.01-3.2,9.36-3.42,3.35-.22,6.91.91,9,3.54l.57.66c-4.2,8.17-7.21,15.12-12.46,22.66-1.93,2.77-3.19,12.48-3.79,15.8-2.04,11.35-8.55,15.92-8.55,15.92-13.51-.67-9.06-35.79-6.59-41.53Z"/>
    <path class="cls-15" d="M401.11,600.62s.01-.1,0-.15v-.43c-.01-.19,0-.43.01-.71l.04-.98c.14-2.05.54-4.07,1.18-6.02.97-2.89,2.34-5.62,4.06-8.13,2.14-3.06,4.57-5.9,7.27-8.48,2.83-2.8,5.66-5.29,8.18-7.65,2.24-2.07,4.37-4.25,6.38-6.54,1.35-1.56,2.59-3.2,3.72-4.93.41-.62.68-1.1.86-1.43l.21-.38s.05-.09.07-.13c-.03.04-.07.08-.09.12-.06.09-.13.22-.23.37-.2.33-.51.8-.91,1.41-1.15,1.7-2.41,3.32-3.77,4.86-2.03,2.27-4.17,4.44-6.42,6.5-2.52,2.35-5.36,4.85-8.2,7.64-2.71,2.59-5.14,5.45-7.28,8.52-1.72,2.53-3.08,5.3-4.04,8.21-.63,1.97-1,4.01-1.1,6.07,0,.37-.01.69-.02.98s.02.52.03.71.02.32.02.44c0,.05,0,.1.01.15Z"/>
    <path class="cls-5" d="M403.33,573.16c.14-.43.33-.84.55-1.23.29-.45.65-.86,1.06-1.22.55-.47,1.15-.87,1.8-1.2,1.4-.77,3.23-1.39,5.17-2.24s4.07-1.86,6.22-3.02c3.69-1.99,7.22-4.26,10.56-6.8,1.28-.98,2.28-1.81,2.96-2.39l.78-.68c.09-.08.18-.16.26-.25-.1.06-.2.13-.29.21l-.8.65c-.7.58-1.73,1.36-3.01,2.33-3.36,2.48-6.89,4.72-10.57,6.7-2.16,1.17-4.26,2.18-6.2,3.03-1.94.86-3.75,1.5-5.16,2.3-.64.34-1.24.76-1.79,1.25-.41.37-.76.8-1.05,1.27-.1.17-.19.34-.27.52-.06.13-.11.27-.15.41-.04.12-.06.24-.07.36Z"/>
    <path class="cls-5" d="M400.31,598.23c.03.2.09.4.17.58.12.37.31.9.57,1.55.67,1.7,1.53,3.32,2.56,4.83.58.83,1.22,1.6,1.93,2.32.58.58,1.2,1.12,1.86,1.61.44.34.9.65,1.37.93.16.12.34.21.52.29.02-.04-.71-.49-1.8-1.36-.63-.51-1.23-1.06-1.8-1.64-.68-.72-1.31-1.49-1.89-2.31-1.02-1.49-1.89-3.08-2.61-4.75-.26-.61-.47-1.11-.64-1.52-.06-.19-.14-.38-.25-.55Z"/>
    <path class="cls-11" d="M434.29,553.98c22.1-1.99,18.4,31.1,18.4,31.1h0c-1.57-12.34-17.95-25.99-17.95-25.99l-3.43-.76,2.98-4.35Z"/>
    <path class="cls-5" d="M446.25,610.35l.16-.08.45-.25c.58-.33,1.13-.69,1.67-1.08.84-.62,1.63-1.31,2.36-2.06.98-.99,1.85-2.08,2.61-3.25,1.98-3.05,3.2-6.53,3.55-10.15.37-4.44-.39-8.9-2.22-12.97-.93-2.1-2.09-4.09-3.48-5.92-1.3-1.69-2.73-3.28-4.26-4.77-1.44-1.43-2.87-2.75-4.18-3.99-1.32-1.24-2.52-2.42-3.58-3.52-1.69-1.74-3.18-3.66-4.45-5.73-.21-.37-.42-.69-.57-.99s-.27-.54-.37-.75l-.23-.46c-.02-.05-.05-.11-.09-.15.01.06.04.11.07.17l.21.46c.1.21.21.46.35.76s.34.63.55,1.01c1.24,2.1,2.72,4.05,4.42,5.81,1.06,1.12,2.24,2.31,3.57,3.56,1.33,1.24,2.72,2.58,4.16,4,1.52,1.49,2.93,3.08,4.22,4.76,1.37,1.83,2.53,3.8,3.44,5.89,1.8,4.02,2.55,8.44,2.19,12.83-.33,3.59-1.52,7.04-3.47,10.08-1.3,2.05-2.95,3.85-4.88,5.33-.7.51-1.24.89-1.64,1.11l-.45.28s-.08.06-.11.1Z"/>
  </g>
</svg>