<?xml version="1.0" encoding="UTF-8"?>
<svg id="Layer_2" data-name="Layer 2" xmlns="http://www.w3.org/2000/svg" viewBox="0 0 1000 1000">
  <defs>
    <style>
      .cls-1 {
        opacity: .7;
      }

      .cls-1, .cls-2, .cls-3, .cls-4, .cls-5, .cls-6, .cls-7, .cls-8, .cls-9, .cls-10, .cls-11 {
        stroke-width: 0px;
      }

      .cls-1, .cls-9, .cls-11 {
        isolation: isolate;
      }

      .cls-1, .cls-10, .cls-11 {
        fill: #fff;
      }

      .cls-2 {
        fill: #e0e0e0;
      }

      .cls-12 {
        opacity: .5;
      }

      .cls-3 {
        fill: #455a64;
      }

      .cls-13 {
        opacity: .8;
      }

      .cls-4 {
        fill: #f5f5f5;
      }

      .cls-5 {
        fill: #09f;
      }

      .cls-6 {
        fill: #ebebeb;
      }

      .cls-7 {
        fill: #263238;
      }

      .cls-8 {
        fill: #fafafa;
      }

      .cls-9 {
        fill: #000;
      }

      .cls-9, .cls-11 {
        opacity: .3;
      }

      .cls-14 {
        opacity: .6;
      }
    </style>
  </defs>
  <g id="freepik--background-complete--inject-6">
    <polygon class="cls-6" points="42.14 871.6 64.12 779.54 98.57 865.07 88.48 862.11 113.42 913.19 99.17 908.45 116.38 941.71 39.16 941.71 45.7 910.81 39.16 919.73 53.45 865.84 42.14 871.6"/>
    <polygon class="cls-6" points="142.43 871.6 164.41 779.54 198.86 865.07 188.75 862.11 213.7 913.19 199.46 908.45 216.67 941.71 139.45 941.71 145.99 910.81 139.45 919.73 153.73 865.84 142.43 871.6"/>
    <polygon class="cls-6" points="906.95 900.81 922.89 833.97 947.9 896.07 940.57 893.9 958.67 930.98 948.34 927.54 960.84 941.71 904.78 941.71 909.53 929.27 904.78 935.73 915.16 896.62 906.95 900.81"/>
    <polygon class="cls-6" points="848.31 871.6 870.29 779.54 904.72 865.07 894.63 862.11 919.59 913.19 905.32 908.45 922.55 941.71 845.33 941.71 851.87 910.81 845.33 919.73 859.62 865.84 848.31 871.6"/>
    <path class="cls-8" d="M949.47,351.05c1.13-8.25-10.49-15.02-19.21-15.72-4.17-.34-8.48.3-12.44-1.07-8.54-2.98-11.92-14.03-20.31-17.55-6.24-2.62-13.41-.3-19.45,2.76s-12.02,6.86-18.78,7.29c-5.96.38-12.26-1.81-17.39,1.07-3.84,2.13-5.84,6.56-9.38,9.16-3.54,2.6-7.95,3.08-12.24,3.32-4.29-.14-8.57.54-12.62,1.99-3.97,1.77-7.13,5.96-6.32,10.11l148.14-1.37Z"/>
    <path class="cls-6" d="M164.6,375.52c.6-4.33-5.5-7.95-10.07-8.25-2.19.09-4.38-.1-6.52-.56-4.49-1.57-6.28-7.35-10.65-9.2-3.28-1.39-7.03-.16-10.21,1.43-3.18,1.59-6.3,3.62-9.84,3.84-3.08.2-6.44-.93-9.14.56-1.99,1.13-3.06,3.44-4.91,4.81-1.93,1.19-4.15,1.8-6.42,1.75-2.25-.06-4.5.31-6.62,1.07-2.16.84-3.5,3-3.32,5.31l77.69-.76Z"/>
    <path class="cls-4" d="M248.99,233.98c1.29-9.38-11.92-17.09-21.86-17.88-4.75-.38-9.68.34-14.17-1.23-9.72-3.38-13.61-15.9-23.11-19.87-7.09-3-15.26-.34-22.14,3.12-6.88,3.46-13.69,7.83-21.38,8.33-6.68.42-13.91-1.99-19.87,1.21-4.37,2.42-6.66,7.45-10.67,10.41-4.01,2.96-9.06,3.52-13.91,3.78-4.85.26-9.94.32-14.37,2.36s-8.13,6.72-7.19,11.52l168.66-1.75Z"/>
    <path class="cls-4" d="M949.51,230.7c.6-4.35-5.54-7.95-10.15-8.31-2.21.09-4.42-.1-6.58-.58-4.51-1.57-6.32-7.41-10.73-9.26-3.3-1.39-7.07-.16-10.27,1.45s-6.36,3.64-9.94,3.85c-3.12.2-6.48-.95-9.2.56-1.99,1.13-3.08,3.48-4.95,4.85-1.94,1.2-4.19,1.81-6.48,1.75-2.27-.05-4.54.32-6.68,1.09-2.17.86-3.52,3.02-3.34,5.35l78.31-.76Z"/>
    <path class="cls-4" d="M753.25,120.79c.62-4.35-5.52-7.95-10.15-8.31-2.2.09-4.41-.1-6.56-.58-4.53-1.57-6.34-7.41-10.73-9.26-3.3-1.39-7.09-.16-10.29,1.45-3.2,1.61-6.36,3.64-9.94,3.85-3.1.2-6.48-.95-9.2.58-1.99,1.13-3.08,3.46-4.95,4.83-1.94,1.2-4.19,1.81-6.48,1.75-2.27-.04-4.52.33-6.66,1.09-2.18.85-3.53,3.04-3.34,5.37l78.29-.77Z"/>
    <path class="cls-2" d="M803.46,185.43s-.7-.18-1.99-.44c-1.76-.36-3.57-.41-5.35-.14-2.63.36-5.1,1.44-7.15,3.12-2.5,2.04-4.27,4.82-5.05,7.95h0l-.32,1.19-.46-1.13c-1.2-2.98-3.28-5.53-5.96-7.31-2.21-1.45-4.75-2.32-7.39-2.52-2.45-.13-4.9.19-7.23.93.56-.37,1.18-.64,1.83-.81,4.45-1.36,9.26-.71,13.19,1.77,2.87,1.83,5.1,4.5,6.4,7.65h-.77v-.1c.81-3.32,2.69-6.28,5.35-8.43,2.17-1.73,4.79-2.81,7.55-3.12,1.84-.22,3.71-.07,5.5.42.67.2,1.3.53,1.85.97Z"/>
    <path class="cls-2" d="M653.86,180.51s-.64.74-1.79,1.99c-1.6,1.87-3.05,3.86-4.33,5.96-4.27,6.88-6.52,14.83-6.48,22.93v.3h-.79c-1.23-7.94-4.92-15.3-10.55-21.04-2.37-2.33-4.96-4.42-7.73-6.26.23.07.44.17.64.3.6.29,1.17.63,1.73.99,2.08,1.31,4.01,2.84,5.76,4.57,5.87,5.73,9.71,13.21,10.95,21.32h-.79v-.3c-.06-8.24,2.3-16.33,6.78-23.25,1.34-2.09,2.89-4.04,4.61-5.82.6-.64,1.11-1.07,1.45-1.39s.54-.32.56-.3Z"/>
    <circle class="cls-4" cx="515.46" cy="340.38" r="252.67"/>
  </g>
  <g id="freepik--Plants--inject-6">
    <polygon class="cls-3" points="924.77 913.73 933.54 877.01 947.29 911.13 943.25 909.94 953.21 930.32 947.53 928.43 954.38 941.71 923.58 941.71 926.18 929.37 923.58 932.93 929.28 911.43 924.77 913.73"/>
    <polygon class="cls-3" points="815.9 887.1 833.03 815.39 859.86 882.02 852.01 879.69 871.44 919.49 860.33 915.8 873.75 941.71 813.6 941.71 818.68 917.65 813.6 924.58 824.73 882.59 815.9 887.1"/>
    <polygon class="cls-3" points="97.98 887.1 115.11 815.39 141.95 882.02 134.08 879.69 153.52 919.49 142.41 915.8 155.82 941.71 95.67 941.71 100.76 917.65 95.67 924.58 106.8 882.59 97.98 887.1"/>
  </g>
  <g id="freepik--Floor--inject-6">
    <path class="cls-7" d="M938.98,942.03c0,.3-194.51.52-434.43.52s-434.47-.22-434.47-.52,194.47-.52,434.47-.52,434.43.24,434.43.52Z"/>
  </g>
  <g id="freepik--Birds--inject-6">
    <path class="cls-7" d="M696.94,292.56s-1.39-.48-3.97-1.03c-3.63-.8-7.37-.95-11.05-.44-5.45.73-10.6,2.95-14.86,6.42-5.22,4.26-8.9,10.11-10.49,16.65v.18l-.3,1.19-.46-1.11c-2.56-6.21-6.95-11.51-12.58-15.18-4.59-2.99-9.87-4.75-15.34-5.11-3.68-.27-7.38.07-10.95.99-2.54.68-3.87,1.25-3.97,1.19.29-.2.61-.37.95-.48.93-.39,1.89-.73,2.86-1.01,9.08-2.68,18.87-1.29,26.85,3.8,5.78,3.72,10.28,9.12,12.9,15.48h-.76v-.2c1.63-6.72,5.43-12.71,10.81-17.05,4.38-3.53,9.67-5.75,15.26-6.4,3.73-.47,7.52-.24,11.17.68.99.24,1.97.56,2.92.93l1.01.5Z"/>
    <path class="cls-7" d="M799.55,232.82s-.77-.22-2.19-.52c-1.96-.39-3.98-.45-5.96-.18-2.97.42-5.77,1.64-8.09,3.54-2.84,2.32-4.84,5.51-5.7,9.08h0l-.32,1.19-.54-1.07c-1.38-3.38-3.76-6.26-6.82-8.27-2.5-1.64-5.38-2.62-8.37-2.84-2-.14-4.01.03-5.96.5-1.39.34-2.13.66-2.17.58.16-.12.33-.21.52-.28.51-.23,1.03-.43,1.57-.6,5-1.53,10.42-.8,14.84,1.99,3.22,2.06,5.73,5.07,7.17,8.6h-.77v-.1c.88-3.73,2.98-7.06,5.96-9.48,4.12-3.28,9.55-4.42,14.64-3.08.55.13,1.09.31,1.61.54.2.11.39.24.56.4Z"/>
    <path class="cls-7" d="M715.68,177.62s-.76.85-2.13,2.4c-1.91,2.19-3.64,4.53-5.17,6.99-5.08,8.15-7.75,17.58-7.69,27.18v.36h-.79c-.79-5.16-2.47-10.14-4.97-14.72-3.41-6.33-8.26-11.77-14.15-15.9-1.67-1.17-2.64-1.75-2.6-1.81.26.09.51.21.74.36.68.36,1.35.76,1.99,1.19,2.48,1.59,4.78,3.45,6.86,5.54,6.91,6.8,11.45,15.65,12.94,25.24h-.79v-.34c-.09-9.75,2.68-19.32,7.95-27.52,1.59-2.46,3.4-4.77,5.42-6.9.7-.76,1.31-1.27,1.71-1.65.21-.18.44-.32.7-.44Z"/>
  </g>
  <g id="freepik--Castle--inject-6">
    <polygon class="cls-5" points="715.6 524.43 715.6 542.47 708.7 542.47 708.7 524.43 690.32 524.43 690.32 542.47 681.46 542.47 681.46 524.43 663.1 524.43 663.1 542.47 651.27 542.47 651.27 524.43 632.89 524.43 632.89 542.47 621.07 542.47 621.07 524.43 602.69 524.43 602.69 542.47 590.87 542.47 590.87 524.43 572.49 524.43 572.49 542.47 560.66 542.47 560.66 524.43 542.28 524.43 542.28 542.47 530.48 542.47 530.48 524.43 512.1 524.43 512.1 542.47 500.28 542.47 500.28 524.43 481.9 524.43 481.9 542.47 470.07 542.47 470.07 524.43 451.69 524.43 451.69 542.47 439.87 542.47 439.87 524.43 421.49 524.43 421.49 542.47 409.67 542.47 409.67 524.43 391.29 524.43 391.29 542.47 379.48 542.47 379.48 524.43 361.1 524.43 361.1 542.47 349.28 542.47 349.28 524.43 330.9 524.43 330.9 542.47 319.08 542.47 319.08 524.43 300.7 524.43 300.7 542.81 301.27 542.81 340.84 582.71 340.84 721.82 693.1 721.82 693.1 583.02 693.42 583.02 733.64 542.81 733.98 542.81 733.98 524.43 715.6 524.43"/>
    <polygon class="cls-1" points="715.6 524.43 715.6 542.47 708.7 542.47 708.7 524.43 690.32 524.43 690.32 542.47 681.46 542.47 681.46 524.43 663.1 524.43 663.1 542.47 651.27 542.47 651.27 524.43 632.89 524.43 632.89 542.47 621.07 542.47 621.07 524.43 602.69 524.43 602.69 542.47 590.87 542.47 590.87 524.43 572.49 524.43 572.49 542.47 560.66 542.47 560.66 524.43 542.28 524.43 542.28 542.47 530.48 542.47 530.48 524.43 512.1 524.43 512.1 542.47 500.28 542.47 500.28 524.43 481.9 524.43 481.9 542.47 470.07 542.47 470.07 524.43 451.69 524.43 451.69 542.47 439.87 542.47 439.87 524.43 421.49 524.43 421.49 542.47 409.67 542.47 409.67 524.43 391.29 524.43 391.29 542.47 379.48 542.47 379.48 524.43 361.1 524.43 361.1 542.47 349.28 542.47 349.28 524.43 330.9 524.43 330.9 542.47 319.08 542.47 319.08 524.43 300.7 524.43 300.7 542.81 301.27 542.81 340.84 582.71 340.84 721.82 693.1 721.82 693.1 583.02 693.42 583.02 733.64 542.81 733.98 542.81 733.98 524.43 715.6 524.43"/>
    <polygon class="cls-5" points="715.6 524.43 715.6 542.47 708.7 542.47 708.7 524.43 690.32 524.43 690.32 542.47 681.46 542.47 681.46 524.43 663.1 524.43 663.1 542.47 651.27 542.47 651.27 524.43 632.89 524.43 632.89 542.47 621.07 542.47 621.07 524.43 602.69 524.43 602.69 542.47 590.87 542.47 590.87 524.43 572.49 524.43 572.49 542.47 560.66 542.47 560.66 524.43 542.28 524.43 542.28 542.47 530.48 542.47 530.48 524.43 512.1 524.43 512.1 542.47 500.28 542.47 500.28 524.43 481.9 524.43 481.9 542.47 470.07 542.47 470.07 524.43 451.69 524.43 451.69 542.47 439.87 542.47 439.87 524.43 421.49 524.43 421.49 542.47 409.67 542.47 409.67 524.43 391.29 524.43 391.29 542.47 379.48 542.47 379.48 524.43 361.1 524.43 361.1 542.47 349.28 542.47 349.28 524.43 330.9 524.43 330.9 542.47 319.08 542.47 319.08 524.43 300.7 524.43 300.7 542.81 301.27 542.81 340.84 582.71 340.84 721.82 693.1 721.82 693.1 583.02 693.42 583.02 733.64 542.81 733.98 542.81 733.98 524.43 715.6 524.43"/>
    <polygon class="cls-1" points="715.6 524.43 715.6 542.47 708.7 542.47 708.7 524.43 690.32 524.43 690.32 542.47 681.46 542.47 681.46 524.43 663.1 524.43 663.1 542.47 651.27 542.47 651.27 524.43 632.89 524.43 632.89 542.47 621.07 542.47 621.07 524.43 602.69 524.43 602.69 542.47 590.87 542.47 590.87 524.43 572.49 524.43 572.49 542.47 560.66 542.47 560.66 524.43 542.28 524.43 542.28 542.47 530.48 542.47 530.48 524.43 512.1 524.43 512.1 542.47 500.28 542.47 500.28 524.43 481.9 524.43 481.9 542.47 470.07 542.47 470.07 524.43 451.69 524.43 451.69 542.47 439.87 542.47 439.87 524.43 421.49 524.43 421.49 542.47 409.67 542.47 409.67 524.43 391.29 524.43 391.29 542.47 379.48 542.47 379.48 524.43 361.1 524.43 361.1 542.47 349.28 542.47 349.28 524.43 330.9 524.43 330.9 542.47 319.08 542.47 319.08 524.43 300.7 524.43 300.7 542.81 301.27 542.81 340.84 582.71 340.84 721.82 693.1 721.82 693.1 583.02 693.42 583.02 733.64 542.81 733.98 542.81 733.98 524.43 715.6 524.43"/>
    <path class="cls-7" d="M382.86,618.53h1.99c5.14,0,9.3,4.16,9.3,9.3v39.28h-20.59v-39.28c0-5.14,4.16-9.3,9.3-9.3h0Z"/>
    <path class="cls-7" d="M437.35,618.53h1.99c5.14,0,9.3,4.16,9.3,9.3v39.28h-20.57v-39.28c0-5.13,4.15-9.29,9.28-9.3Z"/>
    <path class="cls-7" d="M490.32,618.53h1.99c5.14,0,9.3,4.16,9.3,9.3v39.28h-20.57v-39.28c0-5.13,4.15-9.29,9.28-9.3Z"/>
    <path class="cls-7" d="M544.83,618.53h1.99c5.14,0,9.3,4.16,9.3,9.3v39.28h-20.59v-39.28c0-5.14,4.16-9.3,9.3-9.3h0Z"/>
    <path class="cls-7" d="M599.31,618.53h1.99c5.14,0,9.3,4.16,9.3,9.3v39.28h-20.63v-39.28c0-5.14,4.16-9.3,9.3-9.3.01,0,.03,0,.04,0Z"/>
    <path class="cls-7" d="M653.8,618.53h1.99c5.14,0,9.3,4.16,9.3,9.3v39.28h-20.57v-39.28c0-5.14,4.16-9.3,9.3-9.3h-.02Z"/>
    <path class="cls-3" d="M426.52,583.22c-2.84,6.27-10.22,9.05-16.49,6.21-.73-.33-1.43-.74-2.09-1.2-5.55,6.9-15.13,9.04-23.09,5.17.52,9-9.66,16.81-18.2,13.91,1.85,5.05-.72,10.79-4.51,14.6-3.8,3.82-8.72,6.28-13.09,9.4-4.37,3.12-8.46,7.37-9.26,12.7l1.05-61.38,85.68.6Z"/>
    <path class="cls-7" d="M695.84,583.78c0,.3-79.48.28-177.5,0-98.02-.28-177.5-.76-177.5-1.05s79.48-.28,177.5,0c98.02.28,177.5.77,177.5,1.05Z"/>
    <path class="cls-10" d="M394.19,667.79c-3.34.51-6.72.68-10.09.52-3.37.17-6.76,0-10.09-.52,3.34-.52,6.72-.7,10.09-.52,3.37-.18,6.76,0,10.09.52Z"/>
    <path class="cls-10" d="M448.67,667.79c-3.34.51-6.72.68-10.09.52-3.37.17-6.76,0-10.09-.52,3.34-.52,6.72-.7,10.09-.52,3.37-.18,6.76,0,10.09.52Z"/>
    <path class="cls-10" d="M501.65,667.79c-3.34.51-6.72.68-10.09.52-3.37.17-6.76,0-10.09-.52,3.34-.52,6.72-.7,10.09-.52,3.37-.18,6.76,0,10.09.52Z"/>
    <path class="cls-10" d="M556.19,667.79c-6.71.69-13.48.69-20.19,0,6.71-.69,13.48-.69,20.19,0Z"/>
    <path class="cls-10" d="M610.6,667.79c-6.71.69-13.48.69-20.19,0,6.71-.69,13.48-.69,20.19,0Z"/>
    <path class="cls-10" d="M665.07,667.79c-6.71.69-13.48.69-20.19,0,6.71-.69,13.48-.69,20.19,0Z"/>
    <path class="cls-10" d="M387.67,617.26c-.95.25-1.92.35-2.9.3-2.25,0-4.46.55-6.46,1.59-1.91,1.18-3.42,2.89-4.35,4.93-.33.9-.72,1.77-1.15,2.62-.12-.99.04-2,.48-2.9.82-2.31,2.41-4.27,4.51-5.54,2.14-1.14,4.56-1.64,6.97-1.43.99-.05,1.97.1,2.9.44Z"/>
    <path class="cls-10" d="M440.69,617.22c0,.16-.97.2-2.48.38-1.96.19-3.87.7-5.66,1.51-1.75.84-3.25,2.13-4.33,3.74-.83,1.25-1.07,2.19-1.23,2.15s-.14-1.05.6-2.5c.99-1.89,2.58-3.4,4.51-4.29,1.9-.88,3.97-1.33,6.06-1.31,1.59,0,2.54.2,2.54.34Z"/>
    <path class="cls-10" d="M494.26,617.22c0,.16-.95.2-2.48.38-1.95.19-3.86.7-5.64,1.51-1.75.84-3.25,2.13-4.35,3.74-.81,1.25-1.07,2.19-1.23,2.15s-.12-1.05.6-2.5c1.01-1.88,2.6-3.39,4.53-4.29,1.9-.88,3.97-1.33,6.06-1.31,1.59,0,2.54.2,2.52.34Z"/>
    <path class="cls-10" d="M548.25,617.18c0,.16-.97.2-2.5.38-1.95.2-3.86.72-5.64,1.53-1.75.83-3.25,2.12-4.35,3.72-.81,1.25-1.05,2.19-1.23,2.15-.09-.88.13-1.76.62-2.5,1-1.88,2.58-3.39,4.51-4.29,1.9-.88,3.97-1.33,6.06-1.31.86-.09,1.74.02,2.54.34Z"/>
    <path class="cls-3" d="M521.26,721.76c3.28-13.47,18.8-24.48,32.59-23.09.5-10.36,9.31-18.35,19.67-17.84,3.86.19,7.56,1.56,10.61,3.93,3.08-6.97,11.22-10.12,18.19-7.04,2.62,1.16,4.81,3.1,6.28,5.55,5.66-9.32,20.07-11.66,28.41-4.67,6.96-5.68,16.71-6.47,24.5-1.99,4.44-5.39,11.41-8.01,18.3-6.88-5.34-11.96-2.62-25.99,6.8-35.09-6.99-10.95-5.03-26.07,6.48-32.09v119.22l-171.82-.02Z"/>
    <path class="cls-10" d="M598.5,617.6c0,.16-.91.38-2.3.99-3.64,1.62-6.45,4.68-7.75,8.45-.5,1.43-.62,2.4-.79,2.38s-.26-.99.1-2.58c1.01-4.19,4.1-7.56,8.19-8.92,1.55-.48,2.54-.44,2.56-.32Z"/>
    <path class="cls-10" d="M653.02,618.43c0,.16-.93.24-2.3.68-1.77.57-3.39,1.53-4.75,2.8-1.35,1.28-2.4,2.85-3.08,4.59-.52,1.35-.64,2.27-.81,2.25-.22-.81-.18-1.68.12-2.46,1.05-4.02,4.28-7.09,8.35-7.95,1.53-.18,2.48.1,2.48.1Z"/>
    <path class="cls-10" d="M651.12,549.52c0,.28-74.48.52-166.34.52s-166.34-.24-166.34-.52,74.46-.52,166.34-.52,166.34.24,166.34.52Z"/>
    <path class="cls-7" d="M520.43,644.09c-.14-.8-.21-1.61-.2-2.42,0-1.61-.16-3.97-.2-6.99v-.34h.4c4.21,0,9.64-.12,15.56-.12l.52.52h0v9.86h-.48c-4.67,0-8.62-.16-11.37-.24-1.4,0-2.8-.08-4.19-.24,1.5-.17,3-.26,4.51-.26,2.76,0,6.58-.2,11.05-.24l-.48.48v-9.36h0l.52.52c-5.96,0-11.35,0-15.56-.1l.4-.42c0,2.8-.14,5.11-.22,6.74-.02.88-.11,1.76-.26,2.62Z"/>
    <path class="cls-7" d="M526.23,653.33c-.15-.81-.22-1.62-.22-2.44,0-1.63-.18-3.97-.22-6.95v-.44h9.86c0-.12.99.97.52.52h0v9.82h-.46c-2.9,0-5.33-.16-6.95-.24-.82.03-1.64-.04-2.44-.22.91-.13,1.82-.2,2.74-.22,1.65,0,3.97-.18,6.66-.22l-.44.44v-9.36h0l.52.52h-9.4l.46-.46c0,2.72-.14,5.01-.24,6.68-.05.87-.18,1.73-.38,2.58Z"/>
    <path class="cls-7" d="M615.41,602.54c-.11-.88-.17-1.76-.18-2.64,0-1.63-.14-3.97-.2-6.76l.38.36c-5.72.1-13.63.16-22.33.16l.52-.52h0v9.34l-.5-.5c6.38,0,11.92.14,15.9.24l4.69.14c.6,0,1.2.03,1.79.12-.52.1-1.04.14-1.57.12l-4.57.14c-3.97.1-9.6.2-16.19.24h-.5v-9.84h0l.52-.52c8.7,0,16.61,0,22.33.14h.32v.38c0,2.98-.12,5.37-.2,6.99,0,.81-.07,1.61-.2,2.4Z"/>
    <path class="cls-7" d="M683.37,574.2c-.1-.88-.15-1.76-.16-2.64,0-1.63-.16-3.97-.2-6.76l.36.36c-5.72.1-13.61.16-22.31.16l.46-.54h0v9.38l-.5-.5c6.38,0,11.92.14,15.9.24l4.69.12c.59,0,1.18.05,1.77.14-.51.1-1.03.14-1.55.12l-4.57.14c-3.97.1-9.62.2-16.19.24h-.5v-9.88h0c-.12.1.97-.99.52-.54,8.7,0,16.59,0,22.31.16h.38v.38c0,2.98-.14,5.37-.2,6.97.02.82-.05,1.64-.2,2.44Z"/>
    <path class="cls-7" d="M546.4,578.89c-.1-.87-.15-1.75-.16-2.62,0-1.65-.16-3.97-.2-6.78l.36.38c-5.72,0-13.61.14-22.31.14-.48.46.62-.64.52-.52h0v9.36l-.5-.5c6.38,0,11.92.14,15.9.24l4.69.14c.59,0,1.18.03,1.77.12-.51.1-1.03.14-1.55.12l-4.57.14c-3.97,0-9.62.22-16.19.24h-.5v-9.94h0l.52-.52c8.7,0,16.59,0,22.31.16h.38v.36c0,2.98-.14,5.38-.2,6.99-.01.83-.1,1.67-.26,2.48Z"/>
    <path class="cls-7" d="M533.01,569.47c-.11-.87-.17-1.75-.18-2.62,0-1.65-.14-3.97-.2-6.78l.38.38c-5.72,0-13.61.14-22.33.14l.52-.52h0v9.36l-.5-.5c6.38,0,11.92.14,15.9.24l4.69.14c.6,0,1.2.03,1.79.12-.51.1-1.03.14-1.55.12l-4.59.14c-3.97.1-9.6.22-16.19.24h-.5v-9.94h0l.52-.52c8.72,0,16.61,0,22.33.16h.38v.36c0,2.98-.12,5.38-.2,6.99-.02.83-.11,1.66-.26,2.48Z"/>
    <path class="cls-7" d="M471.88,687.36c-.1-.88-.15-1.76-.16-2.64,0-1.63-.16-3.97-.2-6.76l.36.36c-5.72.1-13.61.16-22.31.16-.48.46.62-.64.52-.52h0v9.36l-.5-.5c6.38,0,11.92.14,15.9.24l4.69.14c.59,0,1.18.03,1.77.12-.51.1-1.03.14-1.55.12l-4.57.14c-3.97.1-9.62.2-16.19.24h-.5v-9.94h0l.52-.52c8.7,0,16.59,0,22.31.14h.38v.54c0,2.98-.14,5.38-.2,6.99-.02.78-.11,1.56-.26,2.32Z"/>
    <path class="cls-7" d="M427.73,647.4c-.12-.9-.19-1.81-.2-2.72,0-1.65-.18-3.97-.24-6.7l.44.44h-11.17c0,.12.99-.97.52-.52h0v9.38l-.48-.48c3.24,0,5.96.16,7.95.24,1.08,0,2.17.08,3.24.24-.97.16-1.96.23-2.94.22-1.99,0-4.79.2-8.23.24h-.46v-9.84h0c-.46.48.64-.62.52-.52l11.17.1h.44v.42c0,2.94-.14,5.35-.22,6.97-.02.85-.13,1.7-.34,2.52Z"/>
    <path class="cls-5" d="M551.33,267.6c-.74-3.44-43.72-129.58-43.72-129.58l-42.22,129.58h85.94Z"/>
    <rect class="cls-9" x="485.61" y="209.44" width="22.33" height="9.4"/>
    <path class="cls-7" d="M515.46,209.48c-.1-.88-.15-1.76-.16-2.64,0-1.63-.16-3.97-.2-6.76l.36.36c-5.72,0-13.61.16-22.31.16l.52-.52h0v9.36l-.5-.5c6.38,0,11.92.14,15.9.24l4.69.14c.59,0,1.18.03,1.77.12-.51.1-1.03.14-1.55.12l-4.57.14c-3.97.1-9.62.2-16.19.24h-.6v-9.82h0c-.12.1.97-.99.52-.52,8.7,0,16.59,0,22.31.14h.38v.36c0,2.98-.14,5.38-.2,6.99.02.8-.04,1.6-.16,2.38Z"/>
    <rect class="cls-5" x="473.53" y="304.46" width="74.61" height="126.77"/>
    <path class="cls-5" d="M454.18,267.6c0,.81,10.95,36.86,10.95,36.86h89.42l10.97-36.86h-111.33Z"/>
    <rect class="cls-5" x="454.18" y="248.13" width="19.47" height="19.47"/>
    <rect class="cls-5" x="481.3" y="248.13" width="19.47" height="19.47"/>
    <rect class="cls-5" x="516.93" y="248.13" width="19.47" height="19.47"/>
    <rect class="cls-5" x="545.32" y="248.13" width="19.47" height="19.47"/>
    <g class="cls-12">
      <rect class="cls-10" x="473.53" y="304.46" width="74.61" height="126.77"/>
      <path class="cls-10" d="M454.18,267.6c0,.81,10.95,36.86,10.95,36.86h89.42l10.97-36.86h-111.33Z"/>
      <rect class="cls-10" x="454.18" y="248.13" width="19.47" height="19.47"/>
      <rect class="cls-10" x="481.3" y="248.13" width="19.47" height="19.47"/>
      <rect class="cls-10" x="516.93" y="248.13" width="19.47" height="19.47"/>
      <rect class="cls-10" x="545.32" y="248.13" width="19.47" height="19.47"/>
    </g>
    <path class="cls-7" d="M509.96,324.35h1.99c5.14,0,9.3,4.16,9.3,9.3h0v39.38h-20.57v-39.3c-.04-5.14,4.08-9.33,9.22-9.38.02,0,.04,0,.06,0Z"/>
    <path class="cls-3" d="M548.25,385.95c.08-.42.18-.83.32-1.23.32-1.18.55-2.38.68-3.6.43-4.48-.39-9-2.38-13.04-2.74-6.09-6.9-11.42-12.14-15.56-5.86-4.73-13.81-7.57-22.26-9.62s-16.71-3.76-23.69-6.99c-3.31-1.49-6.41-3.42-9.2-5.74-2.39-2.07-4.4-4.54-5.96-7.29-2.35-3.97-3.41-8.58-3.02-13.17.16-1.68.63-3.31,1.39-4.81-.47,1.58-.8,3.21-.99,4.85-.21,4.49.92,8.94,3.26,12.78,1.58,2.65,3.59,5.02,5.96,6.99,2.75,2.24,5.79,4.1,9.04,5.52,6.86,3.14,15.04,4.77,23.55,6.86,4.17,1.02,8.25,2.35,12.22,3.97,3.72,1.49,7.21,3.49,10.37,5.96,5.31,4.22,9.5,9.68,12.2,15.9,1.99,4.16,2.72,8.8,2.13,13.37-.17,1.23-.46,2.44-.87,3.62-.13.44-.34.85-.6,1.23Z"/>
    <path class="cls-3" d="M538.19,342.23c.28.14-.93,2.64-1.09,5.96-.16,3.32.72,5.96.42,6.06-2.18-3.79-1.91-8.52.68-12.04v.02Z"/>
    <path class="cls-3" d="M482.45,338.93s.28-.46,1.13-.48c.51,0,1.01.17,1.43.46.58.42.95,1.07.99,1.79.03.86-.29,1.69-.89,2.3-.71.71-1.71,1.05-2.7.91-1.07-.11-2.05-.65-2.72-1.49-.7-.88-1.1-1.96-1.15-3.08-.06-1.11.2-2.22.76-3.18.55-.88,1.35-1.57,2.3-1.99,1.57-.68,3.33-.75,4.95-.2,1.04.35,2.02.87,2.9,1.53.62.48.89.77.85.83-1.29-.62-2.62-1.17-3.97-1.65-1.44-.4-2.97-.28-4.33.34-1.62.77-2.6,2.46-2.44,4.25-.03,1.78,1.21,3.33,2.96,3.68,1.28.22,2.49-.64,2.71-1.91.02-.1.03-.21.03-.31-.04-.97-.77-1.76-1.73-1.89-.66-.1-1.03.16-1.07.08Z"/>
    <path class="cls-3" d="M478.16,314.55c-.92,1.5-1.76,3.05-2.5,4.65-1.03,2.7-.77,5.13-1.09,5.17-.75-1.77-.71-3.78.12-5.52,1.07-3.02,3.34-4.43,3.48-4.29Z"/>
    <path class="cls-3" d="M547.65,369.2c-.16,0-.46-.48-1.27-.89-1.08-.56-2.28-.83-3.5-.77-2.94,0-5.25.81-5.37.54,1.52-1.2,3.45-1.77,5.38-1.57.76,0,1.52.1,2.25.32.59.2,1.15.5,1.65.87.87.7.97,1.49.85,1.51Z"/>
    <path class="cls-10" d="M522.41,375.02c-3.85.51-7.73.68-11.6.52-3.88.17-7.76,0-11.6-.52,3.84-.52,7.73-.69,11.6-.52,3.88-.18,7.76,0,11.6.52Z"/>
    <path class="cls-10" d="M510.83,322.68c-1.21-.01-2.41.09-3.6.32-2.77.85-5.09,2.78-6.42,5.37-1.25,2.64-1.89,5.54-1.85,8.46.08,1.24.04,2.48-.12,3.72-.43-1.18-.64-2.44-.62-3.7-.25-3.08.32-6.17,1.65-8.96,1.44-2.83,4.07-4.88,7.17-5.58,1.26-.36,2.61-.23,3.78.38Z"/>
    <path class="cls-7" d="M551.9,304.48c0,.3-19.49.54-43.54.54s-43.58-.28-43.58-.54,19.49-.52,43.56-.52,43.56.2,43.56.52Z"/>
    <path class="cls-7" d="M533.1,363.71c-.11-.87-.17-1.75-.18-2.62,0-1.65-.14-3.97-.2-6.78l.38.38c-5.72,0-13.61.14-22.33.14-.46.48.64-.62.52-.52h0v9.36l-.5-.48c6.38,0,11.92.14,15.9.22l4.69.14c.6,0,1.2.03,1.79.12-.51.12-1.03.17-1.55.14l-4.59.14c-3.97,0-9.6.2-16.19.22h-.5v-9.82h0l.52-.52c8.72,0,16.61,0,22.33.16h.38v.36c0,3-.12,5.38-.2,6.99-.03.79-.11,1.58-.26,2.36Z"/>
    <path class="cls-7" d="M526.73,314.27c-.1-.87-.15-1.75-.16-2.62,0-1.65-.16-3.97-.2-6.78l.36.38c-5.72,0-13.61.14-22.31.14-.46.48.64-.62.52-.52h0v9.36l-.5-.48c6.38,0,11.92.12,15.9.22l4.69.14c.59,0,1.18.03,1.77.12-.51.1-1.03.15-1.55.14l-4.57.12c-3.97.1-9.62.22-16.19.24h-.5v-9.94h0l.52-.52c8.7,0,16.59,0,22.31.16h.38v.36c0,3-.14,5.38-.2,6.99,0,.83-.08,1.67-.26,2.48Z"/>
    <path class="cls-5" d="M538.89,339.43c-.23-.33-.52-.61-.85-.83-.35-.2-.78-.2-1.13,0-.6.38-.48,1.29-.12,1.99.18.35.52.58.91.62-.6.3-.97.9-.97,1.57.02.65.56,1.16,1.21,1.14.02,0,.04,0,.06,0,.56,0,.91-.64,1.15-1.15.12.38.33.74.6,1.03.29.31.74.38,1.11.18.19-.15.33-.36.4-.6.13-.56.13-1.13,0-1.69.81-.24,1.47-.54,1.37-1.19-.13-.63-.75-1.04-1.38-.92-.03,0-.06.01-.09.02.18-.41.24-.85.18-1.29-.07-.45-.39-.83-.83-.95-.53-.06-1.05.23-1.27.72-.21.48-.31,1-.3,1.53"/>
    <path class="cls-10" d="M539.11,340.38c.06-.05.12-.09.2-.12h0l-.2.12Z"/>
    <path class="cls-10" d="M540.1,340.48c-.26-.14-.52-.32-.79-.22-.33.14-.5.51-.38.85.18.35.6.49.95.32.42-.24.62-.76.22-.95Z"/>
    <path class="cls-5" d="M537.38,366.45c-.22-.34-.51-.62-.85-.83-.35-.2-.78-.2-1.13,0-.6.38-.48,1.29,0,1.87.16.36.5.61.89.64-.6.3-.97.9-.97,1.57.02.65.56,1.16,1.21,1.14.02,0,.04,0,.06,0,.56-.17,1-.61,1.17-1.17.12.39.31.75.58,1.05.29.3.74.37,1.11.18.19-.15.33-.36.4-.6.13-.56.13-1.13,0-1.69.81-.24,1.47-.54,1.37-1.19-.11-.63-.72-1.04-1.34-.93-.04,0-.09.02-.13.03.18-.41.24-.85.18-1.29-.07-.45-.39-.83-.83-.95-.53-.05-1.04.23-1.27.72-.21.48-.31,1-.3,1.53"/>
    <path class="cls-10" d="M537.62,367.41c.05-.06.12-.1.2-.12h0l-.2.12Z"/>
    <path class="cls-10" d="M538.59,367.49c-.26-.12-.52-.3-.77-.2-.34.13-.52.51-.4.85.18.35.6.49.95.32.42-.24.62-.76.22-.97Z"/>
    <path class="cls-5" d="M478.04,314.29c-.23-.34-.52-.63-.85-.85-.35-.21-.78-.21-1.13,0-.58.36-.48,1.27,0,1.87.17.35.51.59.89.64-.59.29-.97.89-.97,1.55.02.66.57,1.18,1.23,1.15.01,0,.03,0,.04,0,.58-.1.93-.66,1.17-1.17.11.39.32.75.6,1.05.28.3.73.37,1.09.18.2-.15.34-.37.4-.62.13-.56.13-1.13,0-1.69.81-.22,1.47-.54,1.37-1.19-.13-.63-.75-1.04-1.38-.92-.03,0-.06.01-.09.02.18-.41.24-.85.18-1.29-.07-.45-.39-.82-.83-.93-.53-.06-1.04.22-1.27.7-.21.48-.31,1-.3,1.53"/>
    <path class="cls-10" d="M478.28,315.23c.06-.05.13-.09.2-.12h0l-.2.12Z"/>
    <path class="cls-10" d="M479.26,315.33c-.26-.14-.52-.32-.77-.22-.35.13-.53.52-.4.87,0,0,0,0,0,0,.17.34.59.48.93.31,0,0,.01,0,.02-.01.42-.22.62-.76.22-.95Z"/>
    <path class="cls-5" d="M507.73,70.14s-22.89,6.32-20.13-.66c.83-2.11,5.29-11.35-8.25-12.32-13.53-.97-34.83,2.58-34.83,2.58l11.29,2.48-11.29,5.25s29.67-2.25,33.78,0c4.11,2.25-6.6,11.21.5,14.74,7.09,3.54,28.85.87,28.85.87l.08-12.96Z"/>
    <path class="cls-11" d="M507.73,70.14s-22.89,6.32-20.13-.66c.83-2.11,5.29-11.35-8.25-12.32-13.53-.97-34.83,2.58-34.83,2.58l11.29,2.48-11.29,5.25s29.67-2.25,33.78,0c4.11,2.25-6.6,11.21.5,14.74,7.09,3.54,28.85.87,28.85.87l.08-12.96Z"/>
    <path class="cls-7" d="M507.73,69.73c.28,0,.52,15.4.52,34.38s-.24,34.38-.52,34.38-.52-15.4-.52-34.38.22-34.38.52-34.38Z"/>
    <path class="cls-7" d="M489.01,62.49c.41,1.13.46,2.36.16,3.52-.49,2.87-2.02,5.47-4.29,7.29-1.18.94-2.29,1.96-3.32,3.06-.8.86-1.34,1.94-1.53,3.1-.1,1.09.15,2.19.7,3.14,0,0-.38-.12-.76-.64-.49-.76-.73-1.66-.68-2.56.11-1.35.65-2.63,1.53-3.66,1.02-1.18,2.15-2.25,3.38-3.22,2.09-1.71,3.59-4.05,4.25-6.68.5-2.03.4-3.36.56-3.36Z"/>
    <rect class="cls-5" x="423.14" y="399.06" width="18.38" height="18.38"/>
    <rect class="cls-5" x="448.89" y="399.06" width="18.38" height="18.38"/>
    <rect class="cls-5" x="474.65" y="399.06" width="18.38" height="18.38"/>
    <rect class="cls-5" x="500.4" y="399.06" width="18.38" height="18.38"/>
    <rect class="cls-5" x="526.15" y="399.06" width="18.38" height="18.38"/>
    <rect class="cls-5" x="551.9" y="399.06" width="18.38" height="18.38"/>
    <rect class="cls-5" x="577.65" y="399.06" width="18.38" height="18.38"/>
    <rect class="cls-5" x="451.95" y="453.98" width="117.08" height="94.54"/>
    <polygon class="cls-5" points="423.14 416.41 441.96 453.98 577.42 453.98 596.81 417.16 423.14 416.41"/>
    <g class="cls-14">
      <rect class="cls-10" x="423.14" y="399.06" width="18.38" height="18.38"/>
      <rect class="cls-10" x="448.89" y="399.06" width="18.38" height="18.38"/>
      <rect class="cls-10" x="474.65" y="399.06" width="18.38" height="18.38"/>
      <rect class="cls-10" x="500.4" y="399.06" width="18.38" height="18.38"/>
      <rect class="cls-10" x="526.15" y="399.06" width="18.38" height="18.38"/>
      <rect class="cls-10" x="551.9" y="399.06" width="18.38" height="18.38"/>
      <rect class="cls-10" x="577.65" y="399.06" width="18.38" height="18.38"/>
      <rect class="cls-10" x="451.95" y="453.98" width="117.08" height="94.54"/>
      <polygon class="cls-10" points="423.14 416.41 441.96 453.98 577.42 453.98 596.81 417.16 423.14 416.41"/>
    </g>
    <path class="cls-7" d="M509.96,464.14h1.99c5.14,0,9.3,4.16,9.3,9.3h0v39.28h-20.57v-39.34c.03-5.1,4.17-9.23,9.28-9.24Z"/>
    <path class="cls-7" d="M577.42,453.98c0,.3-30.46.48-68.04.42-37.58-.06-68.06-.32-68.06-.62s30.46-.46,68.06-.42c37.6.04,68.04.34,68.04.62Z"/>
    <path class="cls-10" d="M509.34,463.03c-1.08.24-2.14.55-3.18.91-2.38,1.1-4.31,2.99-5.46,5.35-1.08,2.43-1.63,5.05-1.61,7.71.11,1.12.11,2.24,0,3.36-.46-1.05-.68-2.19-.66-3.34-.23-2.8.26-5.61,1.43-8.17,1.23-2.6,3.43-4.61,6.12-5.6,1.06-.46,2.25-.54,3.36-.22Z"/>
    <path class="cls-3" d="M571.51,405.56c.23.58.37,1.19.42,1.81.19,1.77-.06,3.56-.74,5.21-1.05,2.62-2.71,4.95-4.85,6.8-2.83,2.36-5.81,4.53-8.92,6.5-7.97,5.3-16.2,10.2-24.66,14.66-10.37,5.44-21.03,10.31-31.93,14.6-11.51,4.67-22.35,9.58-30.96,16.02-7.83,5.45-14.04,12.9-18,21.58-2.59,5.87-3.66,12.3-3.12,18.7.29,2.33.74,4.64,1.35,6.91-.08-.13-.14-.27-.18-.42-.14-.36-.28-.77-.46-1.29-.53-1.68-.9-3.41-1.11-5.17-.71-6.48.27-13.04,2.84-19.04,3.94-8.84,10.19-16.46,18.1-22.04,8.68-6.58,19.63-11.54,31.14-16.23,10.88-4.26,21.54-9.09,31.91-14.47,9.54-4.99,17.88-9.94,24.68-14.45,3.12-1.9,6.11-4.01,8.94-6.32,2.11-1.75,3.78-3.98,4.87-6.5.68-1.6,1-3.33.91-5.07-.1-1.17-.28-1.79-.24-1.81Z"/>
    <path class="cls-3" d="M562.16,436.4c-4.43-.66-8.91-.92-13.39-.79-4.45.49-8.85,1.37-13.15,2.62,1.1-.77,2.32-1.35,3.62-1.71,3.05-1.1,6.24-1.76,9.48-1.99,3.23-.22,6.47-.01,9.64.62,1.34.19,2.63.61,3.82,1.25Z"/>
    <path class="cls-3" d="M440.05,491.86c-.59-.97-.7-2.15-.32-3.22.33-1.22,1.14-2.26,2.25-2.88,1.4-.81,3.14-.75,4.47.16,1.2.86,2.19,1.99,2.88,3.3.61,1,1.08,2.09,1.39,3.22.43,1.03.43,2.19,0,3.22-.12-1.02-.34-2.02-.64-3-.4-1.03-.9-2.02-1.51-2.94-.66-1.15-1.56-2.15-2.62-2.94-1.03-.69-2.36-.75-3.46-.18-.92.48-1.63,1.29-1.99,2.27-.27.98-.43,1.99-.46,3Z"/>
    <path class="cls-3" d="M473.51,480.29c0,.1-.56.12-1.23.76-.95.86-1.2,2.24-.62,3.38.93,1.59,2.98,2.12,4.57,1.19.04-.02.08-.05.12-.07,1.9-1.34,2.58-3.85,1.61-5.96-.97-2.16-2.87-3.77-5.17-4.35-1.89-.52-3.88-.52-5.76,0-1.74.61-3.44,1.34-5.07,2.21,0,0,.34-.44,1.13-1.01,1.15-.8,2.41-1.44,3.74-1.89,2-.69,4.16-.79,6.22-.28,2.65.59,4.86,2.4,5.96,4.89.54,1.3.63,2.75.28,4.11-.36,1.29-1.21,2.4-2.36,3.08-1.05.64-2.33.8-3.5.42-1.01-.33-1.85-1.04-2.32-1.99-.38-.79-.43-1.7-.12-2.52.23-.6.63-1.12,1.13-1.51.76-.62,1.41-.48,1.39-.44Z"/>
    <path class="cls-3" d="M508.07,435.62c.87.79,1.42,1.86,1.57,3.02.53,2.77.02,5.64-1.43,8.07-1.35,2.39-3.07,4.54-5.09,6.4-.77.83-1.7,1.51-2.72,1.99-.26-.24,3.84-3.52,6.91-8.88,1.31-2.26,1.88-4.87,1.61-7.47-.28-2.05-1.01-3.12-.85-3.12Z"/>
    <path class="cls-7" d="M559.49,495.77c-.11-.87-.17-1.75-.18-2.62,0-1.65-.14-3.97-.2-6.78l.38.38c-5.72,0-13.61.14-22.33.14l.52-.52h0v9.36l-.5-.5c6.38,0,11.92.14,15.9.24l4.71.14c.59,0,1.18.04,1.77.12-.51.1-1.03.14-1.55.12l-4.59.14c-3.97,0-9.6.22-16.19.24h-.48v-9.78h0c-.1.12.99-.97.52-.52,8.72,0,16.61,0,22.33.16h.38v.36c0,2.98-.12,5.38-.2,6.99-.03.78-.13,1.56-.28,2.32Z"/>
    <path class="cls-7" d="M546.08,486.35c-.1-.87-.15-1.75-.16-2.62,0-1.65-.16-3.97-.2-6.78l.36.38c-5.72,0-13.61.14-22.31.14l.52-.52h0v9.36l-.5-.5c6.38,0,11.92.14,15.9.24l4.69.14c.59,0,1.18.03,1.77.12-.51.1-1.03.14-1.55.12l-4.57.14c-3.97.1-9.62.22-16.19.24h-.5v-9.86h0l.52-.52c8.7,0,16.59,0,22.31.16h.38v.36c0,2.98-.14,5.38-.2,6.99-.01.81-.1,1.61-.26,2.4Z"/>
    <path class="cls-7" d="M470.89,436.6c-.11-.88-.17-1.76-.18-2.64,0-1.63-.14-3.97-.2-6.76l.38.36c-5.72.1-13.61.16-22.33.16l.52-.52h0v9.36l-.5-.5c6.38,0,11.92.14,15.9.24l4.71.14c.59,0,1.18.04,1.77.12-.51.1-1.03.14-1.55.12l-4.59.14c-3.97,0-9.6.2-16.19.24h-.48v-9.86h0l.52-.52c8.72,0,16.61,0,22.33.14h.38v.36c0,2.98-.12,5.37-.2,6.99-.03.81-.12,1.62-.28,2.42Z"/>
    <path class="cls-5" d="M479.81,461.89c-.23-.33-.52-.61-.85-.83-.35-.21-.78-.21-1.13,0-.58.36-.48,1.27-.1,1.87.17.35.51.59.89.64-.59.29-.97.89-.97,1.55.02.66.57,1.18,1.23,1.15.01,0,.03,0,.04,0,.58-.1.93-.66,1.17-1.17.12.39.31.75.58,1.05.29.3.75.36,1.11.16.2-.14.35-.35.4-.6.13-.56.13-1.13,0-1.69.81-.22,1.47-.54,1.37-1.19-.13-.63-.75-1.04-1.38-.92-.03,0-.06.01-.09.02.18-.41.24-.85.18-1.29-.07-.45-.39-.82-.83-.93-.53-.06-1.04.22-1.27.7-.21.48-.31,1-.3,1.53"/>
    <path class="cls-10" d="M480.05,462.85s.12,0,.2-.12h0l-.2.12Z"/>
    <path class="cls-10" d="M481.02,462.95c-.26-.14-.52-.32-.77-.22-.35.13-.53.52-.4.87,0,0,0,0,0,0,.18.34.61.47.95.3.42-.22.62-.76.22-.95Z"/>
    <path class="cls-5" d="M507.31,433.82c-.23-.32-.51-.6-.83-.83-.36-.21-.8-.21-1.15,0-.58.36-.46,1.27-.1,1.87.17.35.51.59.89.64-.58.31-.95.9-.97,1.55.03.67.6,1.19,1.27,1.15,0,0,.02,0,.02,0,.56-.1.91-.66,1.15-1.17.11.39.32.75.6,1.05.29.3.75.37,1.11.16.19-.15.33-.36.38-.6.13-.56.13-1.13,0-1.69.81-.22,1.47-.54,1.37-1.19-.13-.63-.75-1.04-1.38-.92-.03,0-.06.01-.09.02.19-.4.25-.85.18-1.29-.06-.45-.38-.81-.81-.93-.54-.07-1.06.21-1.29.7-.21.48-.31,1-.3,1.53"/>
    <path class="cls-10" d="M507.55,434.77c.06-.05.13-.09.2-.12h0l-.2.12Z"/>
    <path class="cls-10" d="M508.5,434.87c-.26-.14-.52-.32-.77-.22-.35.11-.54.47-.43.82.11.35.47.54.82.43.06-.02.12-.05.17-.08.44-.2.64-.76.22-.95Z"/>
    <path class="cls-5" d="M563.27,434.79c-.23-.33-.52-.61-.85-.83-.35-.21-.78-.21-1.13,0-.6.38-.48,1.29-.12,1.87.16.36.5.6.89.64-.58.31-.96.91-.97,1.57.04.67.62,1.18,1.29,1.13,0,0,0,0,0,0,.56-.1.91-.64,1.15-1.17.11.39.32.75.6,1.05.29.3.74.37,1.11.18.19-.15.33-.36.4-.6.12-.56.12-1.13,0-1.69.79-.24,1.45-.54,1.37-1.19-.13-.64-.74-1.05-1.38-.92-.04,0-.08.02-.11.03.18-.4.25-.85.18-1.29-.06-.45-.38-.82-.81-.95-.53-.06-1.05.23-1.27.72-.22.48-.33,1-.32,1.53"/>
    <path class="cls-10" d="M563.49,435.74c.05-.06.12-.1.2-.12h0l-.2.12Z"/>
    <path class="cls-10" d="M564.46,435.82c-.26-.12-.5-.3-.77-.2-.33.14-.51.51-.4.85.18.35.6.49.95.32.44-.24.64-.76.22-.97Z"/>
    <path class="cls-5" d="M438.96,490.67c-.23-.33-.52-.61-.85-.83-.35-.22-.79-.22-1.13,0-.6.36-.48,1.27-.12,1.87s.52.66.91.64c-.59.29-.97.89-.97,1.55.02.66.57,1.18,1.23,1.15.01,0,.03,0,.04,0,.56-.1.91-.66,1.15-1.17.12.39.33.75.6,1.05.29.3.74.37,1.11.18.19-.16.33-.37.4-.62.13-.56.13-1.13,0-1.69.81-.22,1.47-.54,1.37-1.17-.12-.64-.73-1.06-1.37-.94-.03,0-.07.01-.1.02.18-.41.24-.85.18-1.29-.07-.45-.39-.82-.83-.93-.53-.08-1.05.21-1.27.7-.21.48-.31,1-.3,1.53"/>
    <path class="cls-10" d="M439.08,491.6c.06-.05.13-.09.2-.12h0l-.2.12Z"/>
    <path class="cls-10" d="M440.07,491.7c-.26-.14-.52-.32-.79-.22-.34.15-.5.53-.38.87.18.35.6.49.95.32.42-.24.62-.77.22-.97Z"/>
    <path class="cls-5" d="M842.19,577.7c-.76-3.44-43.72-129.58-43.72-129.58l-42.23,129.58h85.94Z"/>
    <rect class="cls-9" x="776.48" y="519.54" width="22.33" height="9.4"/>
    <path class="cls-7" d="M806.33,519.58c-.1-.88-.15-1.76-.16-2.64,0-1.63-.16-3.97-.2-6.76l.36.36c-5.72.1-13.61.16-22.31.16-.48.46.62-.64.52-.52h0v9.34l-.48-.5c6.38,0,11.92.14,15.9.24l4.69.14c.59,0,1.18.03,1.77.12-.51.1-1.03.14-1.55.12l-4.59.14c-3.97.1-9.6.2-16.17.24h-.5v-9.84h0c-.12,0,.97-.99.52-.52,8.7,0,16.59,0,22.31.14h.38v.38c0,2.98-.14,5.37-.2,6.97-.02.81-.12,1.63-.28,2.42Z"/>
    <rect class="cls-5" x="759.51" y="615.06" width="73.5" height="326.97"/>
    <rect class="cls-5" x="759.51" y="871.84" width="79.44" height="70.18"/>
    <rect class="cls-5" x="745.74" y="577.7" width="105.65" height="37.36"/>
    <rect class="cls-5" x="832.99" y="559.32" width="18.38" height="18.38"/>
    <rect class="cls-5" x="804.34" y="559.32" width="18.38" height="18.38"/>
    <rect class="cls-5" x="775.7" y="559.32" width="18.38" height="18.38"/>
    <rect class="cls-5" x="745.68" y="559.32" width="18.12" height="18.38"/>
    <g class="cls-13">
      <rect class="cls-10" x="759.51" y="615.06" width="73.5" height="326.97"/>
      <rect class="cls-10" x="759.51" y="871.84" width="79.44" height="70.18"/>
      <rect class="cls-10" x="745.74" y="577.7" width="105.65" height="37.36"/>
      <rect class="cls-10" x="832.99" y="559.32" width="18.38" height="18.38"/>
      <rect class="cls-10" x="804.34" y="559.32" width="18.38" height="18.38"/>
      <rect class="cls-10" x="775.7" y="559.32" width="18.38" height="18.38"/>
      <rect class="cls-10" x="745.68" y="559.32" width="18.12" height="18.38"/>
    </g>
    <path class="cls-7" d="M808.39,694.54h-20.61v-39.28c0-5.14,4.16-9.3,9.3-9.3h1.99c5.14,0,9.3,4.16,9.3,9.3v39.28h.02Z"/>
    <path class="cls-7" d="M808.37,768.64h-20.61v-39.28c0-5.14,4.16-9.3,9.3-9.3h1.99c5.14,0,9.3,4.16,9.3,9.3v39.28h.02Z"/>
    <path class="cls-7" d="M808.39,842.75h-20.61v-39.28c0-5.14,4.16-9.3,9.3-9.3h1.99c5.14,0,9.3,4.16,9.3,9.3v39.28h.02Z"/>
    <path class="cls-3" d="M804.18,614.98c-.64,3.62,1.79,8.62,4.41,11.19,2.77,2.41,5.87,4.42,9.2,5.96.64.34,1.33.77,1.45,1.49.02.53-.13,1.06-.42,1.51-4.23,9.22-1.17,20.15,7.23,25.83-5.37,8.39-2.92,19.55,5.47,24.92.63.4,1.28.77,1.96,1.09v-71.91l-29.31-.08Z"/>
    <path class="cls-7" d="M851.37,614.98c0,.28-23.53.52-52.58.52s-52.58-.24-52.58-.52,23.53-.52,52.58-.52,52.58.24,52.58.52Z"/>
    <path class="cls-3" d="M834.14,716.53c.06.15.11.3.14.46,0,.38.18.81.32,1.37.39,1.75.67,3.52.83,5.31,1.59,16.65-4.28,33.15-16.04,45.05-7.79,7.95-18.36,14.27-28.26,22.16-9.42,7.34-16.97,16.81-22.02,27.64-3.92,8.92-6.48,18.38-7.57,28.06-1.03,8.27-1.33,15-1.59,19.67-.12,2.27-.22,3.97-.28,5.37,0,.56,0,1.01-.1,1.39.02.16.02.32,0,.48-.02-.16-.02-.32,0-.48v-1.41c0-1.31,0-3.1.1-5.37.12-4.67.32-11.43,1.27-19.73.99-9.79,3.5-19.36,7.43-28.38,5.06-10.99,12.68-20.61,22.22-28.06,9.94-7.95,20.51-14.17,28.24-22.02,6.91-6.87,11.89-15.45,14.43-24.86,1.73-6.34,2.37-12.92,1.89-19.47-.2-2.3-.42-4.11-.64-5.31-.1-.56-.16-1.01-.22-1.39-.09-.14-.14-.31-.16-.48Z"/>
    <path class="cls-3" d="M819.62,779.9c-8.59-.3-17.06,2.01-24.3,6.64.82-.99,1.82-1.81,2.94-2.42,2.6-1.66,5.44-2.92,8.43-3.74,2.98-.82,6.07-1.17,9.16-1.05,1.28-.05,2.56.15,3.78.58Z"/>
    <path class="cls-3" d="M821.15,748.19s.62.42.83,1.65c.3,2.04-1.11,3.94-3.15,4.24-1.1.16-2.22-.18-3.05-.92-1.04-1.01-1.6-2.42-1.55-3.87.04-3.42,2.74-6.21,6.16-6.36,1.72.1,3.31.97,4.31,2.36.92,1.18,1.6,2.53,1.99,3.97.63,2.46.58,5.04-.14,7.47-.46,1.6-1.13,3.13-1.99,4.55-.66.99-1.07,1.49-1.13,1.45,1-1.98,1.83-4.05,2.48-6.18.62-2.3.62-4.73,0-7.03-.37-1.33-1.01-2.56-1.87-3.64-.82-1.17-2.13-1.9-3.56-1.99-1.42.05-2.76.68-3.7,1.75-.93.96-1.46,2.24-1.49,3.58-.07,1.2.35,2.37,1.17,3.24.74.7,1.79.97,2.78.72,1.53-.36,2.57-1.79,2.44-3.36-.11-.57-.3-1.11-.56-1.63Z"/>
    <path class="cls-3" d="M846.19,712.94c-2.7,1.36-5.12,3.22-7.11,5.48-1.74,2.47-3.01,5.24-3.74,8.17-.26-.9-.26-1.86,0-2.76.95-4.48,3.94-8.25,8.09-10.19,1.67-.72,2.74-.81,2.76-.7Z"/>
    <path class="cls-3" d="M765.65,797.05c4.04,6.61,4.78,14.73,1.99,21.96.51-3.69.67-7.41.5-11.13-.49-3.68-1.32-7.3-2.48-10.83Z"/>
    <path class="cls-3" d="M850.16,559.24s0,.14.12.46l.24,1.37c.22,1.77.22,3.57,0,5.35-.96,6.58-4.12,12.65-8.96,17.21-5.96,5.96-15.62,9.94-26.57,10.99-10.95,1.05-23.05-.87-35.49-2.56-6.05-.9-12.16-1.34-18.28-1.33-5.82.12-11.66,1.35-15.9,4.81-3.84,3.37-6.1,8.2-6.24,13.31-.24,4.46.64,8.9,2.54,12.94,1.58,3.33,3.58,6.44,5.96,9.26,2.11,2.48,4.09,4.51,5.72,6.12l3.84,3.7.99.97c.12.11.23.23.32.36,0,0-.16,0-.4-.28l-1.05-.89c-.93-.79-2.29-1.99-3.97-3.56-2.09-1.91-4.08-3.94-5.96-6.06-2.48-2.81-4.58-5.94-6.24-9.3-2.02-4.13-2.96-8.7-2.74-13.29.14-5.34,2.5-10.38,6.5-13.91,4.37-3.68,10.43-4.95,16.37-5.09,6.17-.03,12.34.41,18.44,1.31,12.48,1.71,24.4,3.7,35.27,2.64,10.87-1.05,20.31-4.75,26.13-10.57,6.81-5.95,10.24-14.87,9.16-23.84l.2-.1Z"/>
    <path class="cls-3" d="M760.44,598.44c-1.73-1.68-3.75-3.03-5.96-3.97-2.3-.73-4.71-1.03-7.11-.87,0-.12.74-.56,2.11-.76,1.82-.21,3.67.02,5.38.68,1.71.63,3.24,1.68,4.45,3.04.95.99,1.25,1.83,1.13,1.89Z"/>
    <path class="cls-3" d="M728.89,618.43c3.06-.44,6.17.16,8.84,1.71,1.94,1.01,3.63,2.43,4.97,4.15.99,1.33,1.37,2.29,1.25,2.34-1.93-2.19-4.19-4.08-6.7-5.58-4.21-2.34-8.41-2.36-8.37-2.62Z"/>
    <path class="cls-3" d="M826.81,599.4s-.64.1-1.33-.68c-.4-.48-.65-1.07-.72-1.69-.12-.86.16-1.72.76-2.34,1.55-1.38,3.92-1.25,5.3.29.17.19.31.39.44.6.64,1.15.78,2.51.38,3.76-.44,1.32-1.37,2.41-2.6,3.06-2.35,1.13-5.1,1.09-7.41-.12-.53-.23-1.03-.52-1.49-.85-.41-.35-.8-.73-1.15-1.13-.66-.76-1.19-1.51-1.69-2.19-.74-1.08-1.56-2.1-2.46-3.04-.36-.31-.75-.58-1.15-.83,0,0,.6,0,1.41.52,1.04.85,1.98,1.82,2.78,2.9,1.04,1.59,2.47,2.88,4.15,3.76,2.05,1.02,4.45,1.02,6.5,0,1.01-.51,1.78-1.39,2.15-2.46.33-.98.25-2.06-.22-2.98-.83-1.42-2.66-1.89-4.08-1.06-.12.07-.23.14-.33.23-.84.89-.94,2.25-.24,3.26.5.81,1.05.93,1.01,1.01Z"/>
    <path class="cls-3" d="M791.84,604.86c-.3,0-1.23-3.4-3.72-6.97-2.48-3.58-5.33-5.74-5.15-5.96,2.49,1.15,4.57,3.04,5.96,5.4,1.7,2.16,2.71,4.79,2.9,7.53Z"/>
    <path class="cls-3" d="M810,582.67c1.04,4.73-1.15,9.58-5.38,11.92,1.43-1.71,2.68-3.56,3.74-5.52.77-2.07,1.32-4.21,1.65-6.4Z"/>
    <path class="cls-5" d="M765.01,795.94c-.23-.33-.52-.61-.85-.83-.35-.22-.79-.22-1.13,0-.6.36-.48,1.27-.12,1.87.17.35.51.59.89.64-.58.31-.95.9-.97,1.55.03.67.6,1.19,1.27,1.15,0,0,.02,0,.02,0,.56-.1.91-.66,1.15-1.17.11.39.32.75.6,1.05.29.3.74.37,1.11.18.19-.16.33-.37.4-.62.12-.56.12-1.13,0-1.69.79-.22,1.45-.54,1.37-1.17-.13-.65-.76-1.06-1.4-.93-.03,0-.06.01-.09.02.19-.4.25-.85.18-1.29-.06-.45-.38-.82-.81-.93-.53-.08-1.05.21-1.27.7-.21.48-.32,1-.32,1.53"/>
    <path class="cls-10" d="M765.23,796.87c.06-.05.13-.09.2-.12h0l-.2.12Z"/>
    <path class="cls-10" d="M766.21,796.97c-.18-.24-.5-.32-.77-.22-.33.15-.47.55-.32.87s.55.47.87.32c.33-.2.43-.63.23-.96,0,0,0-.01-.01-.02Z"/>
    <path class="cls-5" d="M822.34,780.8c-.23-.33-.52-.61-.85-.83-.35-.21-.78-.21-1.13,0-.58.36-.48,1.27-.1,1.87.17.35.51.59.89.64-.59.29-.97.89-.97,1.55.02.66.57,1.18,1.23,1.15.01,0,.03,0,.04,0,.58-.1.93-.66,1.17-1.17.12.39.31.75.58,1.05.29.3.74.37,1.11.18.2-.15.34-.37.4-.62.13-.56.13-1.13,0-1.69.81-.22,1.47-.54,1.37-1.19-.13-.63-.75-1.04-1.38-.92-.03,0-.06.01-.09.02.18-.41.24-.85.18-1.29-.07-.45-.39-.82-.83-.93-.53-.07-1.04.21-1.27.7-.21.48-.31,1-.3,1.53"/>
    <path class="cls-10" d="M822.58,781.75s.12,0,.2-.12h0l-.2.12Z"/>
    <path class="cls-10" d="M823.55,781.85c-.21-.31-.63-.4-.94-.19-.31.21-.4.63-.19.94.2.3.6.39.91.21.32-.2.42-.63.22-.95Z"/>
    <path class="cls-5" d="M846.82,711.83c-.24-.32-.53-.6-.85-.83-.35-.21-.78-.21-1.13,0-.6.36-.48,1.27-.12,1.87.17.35.51.59.89.64-.58.3-.95.9-.95,1.55.02.66.57,1.18,1.23,1.15.01,0,.03,0,.04,0,.56-.1.91-.66,1.15-1.17.12.39.33.75.6,1.05.29.3.74.37,1.11.18.19-.16.33-.37.4-.62.13-.56.13-1.13,0-1.69.81-.22,1.45-.54,1.37-1.19-.13-.63-.75-1.04-1.38-.92-.03,0-.06.01-.09.02.18-.41.24-.85.18-1.29-.07-.45-.39-.82-.83-.93-.53-.08-1.05.21-1.27.7-.21.48-.31,1-.3,1.53"/>
    <path class="cls-10" d="M847.04,712.76c.06-.05.13-.09.2-.12h0l-.2.12Z"/>
    <path class="cls-10" d="M848.03,712.86c-.19-.23-.51-.32-.79-.22-.34.15-.5.53-.38.87.15.34.54.5.89.36.34-.15.5-.54.36-.89-.02-.04-.04-.09-.07-.13h0Z"/>
    <path class="cls-5" d="M726.56,616.25c-.24-.32-.53-.6-.85-.83-.35-.21-.78-.21-1.13,0-.6.36-.48,1.27-.12,1.87.17.35.51.59.89.64-.58.31-.95.9-.97,1.55.03.67.6,1.19,1.27,1.15,0,0,.02,0,.02,0,.56-.1.91-.66,1.15-1.17.11.39.32.75.6,1.05.29.3.74.37,1.11.18.19-.16.33-.37.4-.62.11-.56.11-1.13,0-1.69.79-.22,1.45-.54,1.37-1.19-.14-.64-.77-1.05-1.42-.91-.02,0-.05.01-.07.02.19-.4.25-.85.18-1.29-.06-.45-.38-.82-.81-.93-.53-.08-1.05.21-1.27.7-.21.48-.32,1-.32,1.53"/>
    <path class="cls-10" d="M726.78,617.2c.06-.05.13-.09.2-.12h0l-.2.12Z"/>
    <path class="cls-10" d="M727.76,617.3c-.26-.14-.5-.32-.77-.22-.34.15-.51.52-.4.87.17.34.59.48.93.31,0,0,.01,0,.02-.01.44-.22.64-.76.22-.95Z"/>
    <path class="cls-5" d="M760.48,597.73c-.24-.32-.53-.6-.85-.83-.35-.21-.78-.21-1.13,0-.6.36-.48,1.27-.12,1.87.17.35.51.58.89.62-.58.31-.95.91-.97,1.57.03.66.59,1.17,1.25,1.14.02,0,.03,0,.05,0,.56,0,.91-.64,1.15-1.15.11.39.32.74.6,1.03.29.31.74.38,1.11.18.19-.15.33-.36.4-.6.12-.56.12-1.13,0-1.69.79-.22,1.45-.54,1.37-1.19-.13-.64-.74-1.05-1.38-.92-.04,0-.08.02-.11.03.19-.4.25-.85.18-1.29-.06-.45-.38-.82-.81-.95-.53-.06-1.04.23-1.27.72-.22.48-.32,1-.32,1.53"/>
    <path class="cls-10" d="M760.7,598.68c.06-.05.13-.09.2-.12h0l-.2.12Z"/>
    <path class="cls-10" d="M761.68,598.78c-.26-.14-.5-.32-.77-.22-.35.11-.54.47-.43.82.11.35.47.54.82.43.06-.02.12-.05.17-.08.44-.24.64-.76.22-.95Z"/>
    <path class="cls-5" d="M790.89,603.29c-.22-.33-.5-.61-.83-.83-.36-.21-.8-.21-1.15,0-.58.38-.48,1.29-.1,1.87.16.36.5.6.89.64-.59.3-.97.91-.97,1.57.03.66.59,1.17,1.25,1.13,0,0,.02,0,.02,0,.56-.17,1-.61,1.17-1.17.11.39.32.75.6,1.05.28.3.73.37,1.09.18.2-.15.34-.36.4-.6.13-.56.13-1.13,0-1.69.81-.24,1.47-.54,1.37-1.19-.11-.63-.72-1.04-1.34-.93-.04,0-.09.02-.13.03.18-.41.24-.85.18-1.29-.07-.45-.39-.83-.83-.95-.53-.06-1.04.23-1.27.72-.21.48-.31,1-.3,1.53"/>
    <path class="cls-10" d="M791.12,604.25c.05-.06.12-.1.2-.12h0l-.2.12Z"/>
    <path class="cls-10" d="M792.1,604.33c-.26-.12-.52-.3-.77-.2-.34.13-.52.51-.4.85.18.35.6.49.95.32.42-.24.62-.77.22-.97Z"/>
    <path class="cls-5" d="M809.98,580.98c-.23-.33-.52-.61-.85-.83-.35-.21-.78-.21-1.13,0-.6.38-.48,1.29-.12,1.87.16.36.5.6.89.64-.58.31-.96.91-.97,1.57.04.67.62,1.18,1.29,1.13,0,0,0,0,0,0,.56-.1.91-.66,1.15-1.17.11.39.32.75.6,1.05.29.3.74.37,1.11.18.19-.15.33-.36.4-.6.12-.56.12-1.15,0-1.71.79-.22,1.45-.52,1.37-1.17-.13-.64-.74-1.05-1.38-.92-.04,0-.08.02-.11.03.19-.41.25-.87.18-1.31-.07-.44-.38-.81-.81-.93-.53-.07-1.05.22-1.27.72-.22.47-.32.99-.32,1.51"/>
    <path class="cls-10" d="M810.2,581.93c.05-.06.12-.1.2-.12h0l-.2.12Z"/>
    <path class="cls-10" d="M811.17,582.01c-.26-.12-.5-.32-.77-.2-.33.14-.51.51-.4.85.18.35.6.49.95.32.44-.32.64-.77.22-.97Z"/>
    <path class="cls-7" d="M839.21,871.8c0,.28-17.88.52-39.98.52s-39.98-.24-39.98-.52,17.88-.54,39.98-.54,39.98.24,39.98.54Z"/>
    <path class="cls-7" d="M826.06,861.97c-.13-.87-.19-1.75-.18-2.62,0-1.65-.16-3.97-.2-6.78l.38.36c-5.74.1-13.63.16-22.33.16l.52-.52h0v9.36l-.5-.5c6.38,0,11.92.14,15.9.24l4.69.14c.6,0,1.2.04,1.79.12-.52.1-1.04.14-1.57.12l-4.57.14c-3.97.1-9.6.2-16.19.24h-.5v-9.94h0l.52-.52c8.7,0,16.59,0,22.33.14h.3v.36c0,2.98-.14,5.38-.2,6.99,0,.84-.05,1.68-.18,2.5Z"/>
    <path class="cls-7" d="M781.84,736.01c-.11-.88-.17-1.76-.18-2.64,0-1.63-.14-3.97-.2-6.78l.38.38c-5.72.1-13.61.14-22.33.14l.52-.52h0v9.38l-.5-.5c6.38,0,11.92.14,15.9.22l4.71.14c.59-.02,1.19.03,1.77.14-.51.1-1.03.14-1.55.12l-4.59.14c-3.97,0-9.6.2-16.19.22h-.48v-9.88h0l.52-.52c8.72,0,16.61,0,22.33.16h.38v.36c0,3-.12,5.38-.2,6.99-.03.82-.13,1.64-.28,2.44Z"/>
    <path class="cls-7" d="M795.5,635.94c-.1-.87-.15-1.75-.16-2.62,0-1.65-.16-3.97-.2-6.78l.36.38c-5.72,0-13.61.14-22.31.14l.52-.52h0v9.36l-.48-.48c6.36,0,11.92.12,15.9.22l4.69.14c.59,0,1.18.03,1.77.12-.51.1-1.03.15-1.55.14l-4.59.12c-3.97.1-9.6.22-16.17.24h-.48v-9.94h0l.52-.52c8.7,0,16.59,0,22.31.16h.38v.36c0,3-.14,5.38-.2,6.99-.02.84-.12,1.67-.3,2.48Z"/>
    <path class="cls-7" d="M770.06,726.49c-.15-.9-.22-1.81-.22-2.72,0-1.65-.18-3.97-.22-6.68l.44.44h-10.55l.52-.52h0v9.36l-.46-.46c3.06,0,5.62.14,7.49.22,1.02,0,2.05.09,3.06.24-.91.16-1.84.23-2.76.22-1.85,0-4.53.2-7.79.24h-.44v-9.82h0l.52-.52h10.99v.44c0,2.92-.14,5.33-.24,6.95-.02.88-.14,1.75-.34,2.6Z"/>
    <path class="cls-7" d="M851.37,604.17c-.13-.9-.19-1.81-.2-2.72,0-1.65-.18-3.97-.24-6.68l.44.44h-10.53c-.12,0,.97-.99.52-.52h0v9.36l-.46-.46c3.04,0,5.62.14,7.49.22,1.02,0,2.03.08,3.04.24-.91.16-1.84.24-2.76.22-1.83,0-4.51.2-7.77.24h-.56v-9.82h0l.52-.52h10.99v.44c0,2.92-.16,5.33-.24,6.95.04.87-.04,1.75-.24,2.6Z"/>
    <path class="cls-7" d="M814.11,871.55c-.11-.87-.17-1.75-.18-2.62,0-1.65-.14-3.97-.2-6.78l.38.38c-5.72,0-13.61.14-22.33.14-.46.48.64-.62.52-.52h0v9.36l-.5-.48c6.38,0,11.92.14,15.9.22l4.69.14c.6,0,1.2.03,1.79.12-.51.12-1.03.17-1.55.14l-4.59.14c-3.97,0-9.6.2-16.19.22h-.5v-9.86h0c-.1.12.99-.97.52-.52,8.72,0,16.61,0,22.33.16h.32v.36c0,3-.12,5.38-.2,6.99,0,.81-.07,1.61-.2,2.4Z"/>
    <path class="cls-10" d="M810.54,844.96c-8.27.69-16.59.69-24.86,0,8.27-.69,16.59-.69,24.86,0Z"/>
    <path class="cls-10" d="M793.49,793.51c-2.33,1.55-4.29,3.58-5.76,5.96-1.13,2.53-1.71,5.27-1.71,8.05-.12,0-.5-.89-.58-2.48-.19-4.28,1.97-8.33,5.64-10.55,1.37-.89,2.34-1.09,2.4-.97Z"/>
    <path class="cls-10" d="M809.35,769.97c-7.43.72-14.92.72-22.35,0,7.44-.69,14.92-.69,22.35,0Z"/>
    <path class="cls-10" d="M795.99,717.61c-5.33,2.33-8.98,7.37-9.54,13.15-.3-.83-.36-1.74-.16-2.6.5-4.33,3.22-8.09,7.17-9.94,1.47-.64,2.48-.74,2.52-.62Z"/>
    <path class="cls-5" d="M196.54,577.7c.76-3.44,43.72-129.58,43.72-129.58l42.3,129.58h-86.02Z"/>
    <rect class="cls-9" x="239.87" y="519.56" width="22.33" height="9.4"/>
    <path class="cls-7" d="M232.3,519.58c-.11-.8-.17-1.61-.16-2.42,0-1.61-.16-3.97-.2-6.97v-.38h.36c5.72,0,13.61-.14,22.33-.14-.48-.48.64.62.52.52h0v9.99h-.5c-6.6,0-12.24-.14-16.19-.24l-4.59-.14c-.52.02-1.04-.02-1.55-.12.59-.08,1.19-.12,1.79-.12l4.69-.14c3.97-.1,9.48-.2,15.9-.24l-.5.5v-9.34h0l.52.52c-8.72,0-16.61,0-22.33-.16l.38-.36c0,2.82-.14,5.13-.2,6.76-.04.83-.12,1.66-.26,2.48Z"/>
    <path class="cls-10" d="M236.65,462.93c.26,0-5.82,20.74-13.61,46.12-7.79,25.37-14.33,45.9-14.59,45.8s5.8-20.73,13.59-46.12c7.79-25.39,14.33-45.88,14.6-45.8Z"/>
    <rect class="cls-5" x="205.68" y="615.06" width="73.5" height="326.97"/>
    <rect class="cls-5" x="199.74" y="871.86" width="79.44" height="70.18"/>
    <rect class="cls-5" x="187.3" y="577.7" width="105.65" height="37.36"/>
    <rect class="cls-5" x="187.3" y="559.32" width="18.38" height="18.38"/>
    <rect class="cls-5" x="215.95" y="559.32" width="18.38" height="18.38"/>
    <rect class="cls-5" x="244.6" y="559.32" width="18.38" height="18.38"/>
    <rect class="cls-5" x="274.85" y="559.32" width="18.12" height="18.38"/>
    <g class="cls-13">
      <rect class="cls-10" x="205.68" y="615.06" width="73.5" height="326.97"/>
      <rect class="cls-10" x="199.74" y="871.86" width="79.44" height="70.18"/>
      <rect class="cls-10" x="187.3" y="577.7" width="105.65" height="37.36"/>
      <rect class="cls-10" x="187.3" y="559.32" width="18.38" height="18.38"/>
      <rect class="cls-10" x="215.95" y="559.32" width="18.38" height="18.38"/>
      <rect class="cls-10" x="244.6" y="559.32" width="18.38" height="18.38"/>
      <rect class="cls-10" x="274.85" y="559.32" width="18.12" height="18.38"/>
    </g>
    <path class="cls-7" d="M239.6,645.95h1.99c5.14,0,9.3,4.16,9.3,9.3v39.28h-20.57v-39.3c.01-5.12,4.16-9.27,9.28-9.28Z"/>
    <path class="cls-7" d="M239.6,720.05h1.99c5.14,0,9.3,4.16,9.3,9.3v39.28h-20.57v-39.28c0-5.13,4.15-9.29,9.28-9.3Z"/>
    <path class="cls-7" d="M239.6,794.15h1.99c5.14,0,9.3,4.16,9.3,9.3v39.28h-20.57v-39.28c0-5.13,4.15-9.29,9.28-9.3Z"/>
    <path class="cls-3" d="M234.49,614.98c.66,3.62-1.79,8.62-4.41,11.19-2.76,2.41-5.85,4.42-9.18,5.96-.64.34-1.33.77-1.47,1.49-.02.53.13,1.06.42,1.51,4.24,9.22,1.19,20.15-7.21,25.83,5.36,8.43,2.87,19.6-5.56,24.96-.61.39-1.24.74-1.89,1.05v-71.91l29.31-.08Z"/>
    <path class="cls-7" d="M187.3,614.98c0-.28,23.55-.52,52.58-.52s52.6.24,52.6.52-23.55.52-52.6.52-52.58-.24-52.58-.52Z"/>
    <path class="cls-3" d="M204.48,716.53c.02.16.02.32,0,.48,0,.38-.14.83-.22,1.39-.31,1.76-.53,3.53-.66,5.31-.46,6.56.21,13.14,1.99,19.47,2.52,9.42,7.5,17.99,14.43,24.86,7.71,7.85,18.22,14.07,28.22,22.02,9.54,7.44,17.16,17.06,22.22,28.06,3.94,9.01,6.45,18.59,7.45,28.38.95,8.31,1.13,15.06,1.27,19.73v6.78c.03.16.03.32,0,.48-.03-.16-.03-.32,0-.48,0-.38,0-.83-.1-1.39,0-1.31-.16-3.1-.28-5.37-.28-4.67-.56-11.41-1.61-19.67-1.09-9.68-3.64-19.14-7.57-28.06-5.05-10.82-12.59-20.29-22-27.64-9.94-7.95-20.47-14.17-28.26-22.16-7.01-7-12-15.76-14.47-25.35-1.69-6.42-2.23-13.09-1.59-19.69.18-1.78.46-3.55.83-5.31.14-.56.24-.99.34-1.37-.03-.15,0-.3,0-.46Z"/>
    <path class="cls-3" d="M219.05,779.9c1.21-.43,2.49-.62,3.78-.58,6.21-.23,12.35,1.44,17.59,4.79,1.13.62,2.13,1.44,2.96,2.42-3.69-2.14-7.6-3.87-11.66-5.17-4.15-.95-8.4-1.44-12.66-1.47Z"/>
    <path class="cls-3" d="M217.52,748.19c-.2.55-.35,1.11-.44,1.69-.13,1.57.91,3,2.44,3.36.99.26,2.05-.01,2.8-.72.81-.87,1.23-2.05,1.15-3.24-.09-2.85-2.34-5.16-5.19-5.33-1.42.09-2.72.82-3.54,1.99-.89,1.07-1.57,2.31-1.99,3.64-.6,2.31-.6,4.73,0,7.03.64,2.13,1.48,4.2,2.5,6.18,0,0-.5-.46-1.13-1.45-.88-1.41-1.55-2.95-1.99-4.55-.73-2.43-.78-5.01-.14-7.47.39-1.45,1.06-2.8,1.99-3.97,1.01-1.4,2.6-2.27,4.33-2.36,3.41.16,6.1,2.95,6.14,6.36.05,1.45-.5,2.85-1.53,3.87-.97.87-2.31,1.17-3.56.79-1.01-.27-1.86-.96-2.34-1.89-.33-.69-.45-1.47-.32-2.23.18-1.29.77-1.75.79-1.71Z"/>
    <path class="cls-3" d="M192.56,712.94c.94-.03,1.87.21,2.68.7,4.09,1.95,7.05,5.69,8.03,10.11.25.9.25,1.86,0,2.76-1.14-6-5.14-11.07-10.71-13.57Z"/>
    <path class="cls-3" d="M273.02,797.05c-1.19,3.52-2.05,7.15-2.56,10.83-.18,3.72,0,7.44.5,11.13-1.53-3.53-2.06-7.42-1.53-11.23.19-3.84,1.43-7.55,3.6-10.73Z"/>
    <path class="cls-3" d="M188.59,559.24c-.28,2.36-.28,4.75,0,7.11,1.1,6.43,4.29,12.31,9.08,16.73,5.82,5.82,15.34,9.68,26.15,10.57,10.81.89,22.77-.93,35.27-2.64,6.1-.9,12.26-1.34,18.42-1.31,5.96.14,12.02,1.41,16.39,5.09,4.01,3.53,6.35,8.57,6.48,13.91.22,4.59-.72,9.16-2.72,13.29-1.67,3.36-3.76,6.48-6.24,9.3-1.88,2.12-3.87,4.15-5.96,6.06-1.69,1.59-3.04,2.76-3.97,3.56l-1.07.89c-.24.2-.38.3-.38.28s.1-.14.32-.36l.99-.97,3.82-3.7c2.01-1.94,3.92-3.99,5.72-6.12,2.38-2.81,4.39-5.93,5.96-9.26,1.93-4.03,2.8-8.48,2.54-12.94-.13-5.11-2.39-9.94-6.24-13.31-4.13-3.46-9.94-4.69-15.8-4.81-6.11,0-12.22.44-18.26,1.33-12.46,1.69-24.48,3.68-35.51,2.56-11.03-1.11-20.67-4.97-26.55-10.99-4.85-4.56-8.01-10.62-8.98-17.21-.21-1.78-.21-3.57,0-5.35l.24-1.37c.18-.22.3-.38.3-.36Z"/>
    <path class="cls-3" d="M278.22,598.44c-.1,0,.18-.89,1.09-1.99,1.21-1.37,2.75-2.41,4.47-3.04,1.71-.66,3.55-.89,5.37-.68,1.39.2,2.15.64,2.11.76-2.4-.15-4.82.14-7.11.87-2.21.99-4.21,2.37-5.92,4.07Z"/>
    <path class="cls-3" d="M309.8,618.43c0,.36-4.07.38-8.39,2.62-2.5,1.51-4.76,3.39-6.7,5.58,0,0,.26-1.01,1.25-2.34,1.34-1.73,3.03-3.14,4.97-4.15,2.68-1.55,5.8-2.15,8.86-1.71Z"/>
    <path class="cls-3" d="M211.86,599.4s.54-.2,1.03-.93c.68-1.02.57-2.36-.26-3.26-1.28-1.01-3.15-.79-4.16.49-.09.11-.16.22-.23.34-.49.92-.57,2-.24,2.98.37,1.07,1.14,1.95,2.15,2.46,2.05,1.02,4.46,1.02,6.52,0,1.68-.88,3.11-2.17,4.15-3.76.81-1.08,1.74-2.05,2.78-2.9.79-.58,1.41-.58,1.39-.52-.4.25-.77.53-1.13.83-.92.93-1.74,1.95-2.46,3.04-.5.68-1.03,1.43-1.71,2.19-.35.41-.73.79-1.15,1.13-.46.34-.96.62-1.49.85-2.31,1.21-5.05,1.25-7.39.12-1.23-.64-2.17-1.74-2.6-3.06-.42-1.25-.29-2.61.36-3.76,1.05-1.79,3.35-2.39,5.14-1.33.21.13.42.27.6.44.6.62.88,1.49.76,2.34-.06.62-.3,1.21-.7,1.69-.77.7-1.37.64-1.35.6Z"/>
    <path class="cls-3" d="M246.83,604.86c.69-5.5,3.99-10.32,8.86-12.96.2.24-2.72,2.38-5.15,5.96s-3.4,7.07-3.72,6.99Z"/>
    <path class="cls-3" d="M228.67,582.67c.35,2.2.9,4.36,1.65,6.46,1.07,1.96,2.32,3.81,3.74,5.52-4.22-2.36-6.4-7.2-5.38-11.92v-.06Z"/>
    <path class="cls-5" d="M273.67,795.94c.22-.34.51-.62.85-.83.35-.22.79-.22,1.13,0,.58.36.48,1.27.1,1.87-.17.35-.51.59-.89.64.59.29.97.89.97,1.55-.02.66-.57,1.18-1.23,1.15-.01,0-.03,0-.04,0-.58-.1-.93-.66-1.17-1.17-.11.39-.32.75-.6,1.05-.28.3-.73.37-1.09.18-.2-.15-.34-.37-.4-.62-.13-.56-.13-1.13,0-1.69-.81-.22-1.47-.54-1.37-1.17.12-.64.73-1.06,1.37-.94.03,0,.07.01.1.02-.18-.41-.24-.85-.18-1.29.07-.45.39-.82.83-.93.53-.06,1.04.22,1.27.7.21.48.31,1,.3,1.53"/>
    <path class="cls-10" d="M273.44,796.87c-.06-.05-.13-.09-.2-.12h0l.2.12Z"/>
    <path class="cls-10" d="M272.46,796.97c.22-.3.64-.38.94-.16.26.18.35.52.23.81-.18.35-.6.49-.95.32-.32-.21-.42-.64-.22-.97Z"/>
    <path class="cls-5" d="M216.41,780.8c.24-.32.53-.6.85-.83.35-.21.78-.21,1.13,0,.6.36.48,1.27.12,1.87-.17.35-.51.59-.89.64.58.31.95.9.97,1.55-.03.67-.6,1.19-1.27,1.15,0,0-.02,0-.02,0-.56-.1-.91-.66-1.15-1.17-.11.39-.32.75-.6,1.05-.29.3-.74.37-1.11.18-.19-.16-.33-.37-.4-.62-.13-.56-.13-1.13,0-1.69-.81-.22-1.45-.54-1.37-1.19.13-.63.75-1.04,1.38-.92.03,0,.06.01.09.02-.17-.41-.23-.85-.18-1.29.07-.45.4-.81.83-.93.53-.08,1.05.21,1.27.7.21.48.32,1,.32,1.53"/>
    <path class="cls-10" d="M216.11,781.75c-.06-.05-.13-.09-.2-.12h0l.2.12Z"/>
    <path class="cls-10" d="M215.12,781.85c.19-.23.51-.32.79-.22.34.15.5.53.38.87-.16.34-.57.48-.9.31-.01,0-.02-.01-.03-.02-.33-.2-.44-.62-.24-.95Z"/>
    <path class="cls-5" d="M191.85,711.83c.24-.32.53-.6.85-.83.36-.21.8-.21,1.15,0,.58.36.46,1.27,0,1.87-.17.35-.51.59-.89.64.58.31.95.9.97,1.55-.03.67-.6,1.19-1.27,1.15,0,0-.02,0-.02,0-.56-.1-.91-.66-1.15-1.17-.11.39-.32.75-.6,1.05-.29.3-.74.37-1.11.18-.19-.16-.33-.37-.4-.62-.11-.56-.11-1.13,0-1.69-.79-.22-1.45-.54-1.37-1.19.14-.64.77-1.05,1.42-.91.02,0,.05.01.07.02-.19-.4-.25-.85-.18-1.29.06-.45.38-.81.81-.93.53-.08,1.05.21,1.27.7.21.48.32,1,.32,1.53"/>
    <path class="cls-10" d="M191.63,712.76c-.06-.05-.13-.09-.2-.12h0l.2.12Z"/>
    <path class="cls-10" d="M190.58,712.86c.18-.24.5-.32.77-.22.34.15.51.52.4.87-.17.34-.59.48-.93.31,0,0-.01,0-.02-.01-.32-.19-.43-.6-.24-.93,0,0,.01-.02.02-.03Z"/>
    <path class="cls-5" d="M312.12,616.25c.23-.33.52-.61.85-.83.35-.21.78-.21,1.13,0,.58.36.48,1.27.1,1.87-.17.35-.51.59-.89.64.59.29.97.89.97,1.55-.02.66-.57,1.18-1.23,1.15-.01,0-.03,0-.04,0-.58-.1-.93-.66-1.17-1.17-.12.39-.31.75-.58,1.05-.29.3-.74.37-1.11.18-.2-.15-.34-.37-.4-.62-.13-.56-.13-1.13,0-1.69-.81-.22-1.47-.54-1.37-1.19.13-.63.75-1.04,1.38-.92.03,0,.06.01.09.02-.18-.41-.24-.85-.18-1.29.07-.45.39-.82.83-.93.53-.06,1.04.22,1.27.7.21.48.31,1,.3,1.53"/>
    <path class="cls-10" d="M311.89,617.2s-.12,0-.2-.12h0l.2.12Z"/>
    <path class="cls-10" d="M310.91,617.3c.26-.14.52-.32.77-.22.35.13.53.52.4.87,0,0,0,0,0,0-.17.34-.59.48-.93.31,0,0-.01,0-.02-.01-.42-.22-.62-.76-.22-.95Z"/>
    <path class="cls-5" d="M278.2,597.73c.23-.33.52-.61.85-.83.35-.21.78-.21,1.13,0,.58.36.48,1.27.1,1.87-.17.35-.51.58-.89.62.59.3.97.91.97,1.57-.02.65-.56,1.16-1.21,1.14-.02,0-.04,0-.06,0-.58,0-.93-.64-1.17-1.15-.12.38-.31.73-.58,1.03-.29.31-.74.38-1.11.18-.2-.14-.34-.36-.4-.6-.13-.56-.13-1.13,0-1.69-.81-.22-1.47-.54-1.37-1.19.11-.63.72-1.04,1.34-.93.04,0,.09.02.13.03-.18-.41-.24-.85-.18-1.29.07-.45.39-.83.83-.95.53-.05,1.04.24,1.27.72.21.48.31,1,.3,1.53"/>
    <path class="cls-10" d="M278.01,598.68c-.06-.05-.13-.09-.2-.12h0l.2.12Z"/>
    <path class="cls-10" d="M276.99,598.78c.26-.14.52-.32.77-.22.35.13.53.52.4.87,0,0,0,0,0,0-.18.34-.61.47-.95.3-.42-.24-.62-.76-.22-.95Z"/>
    <path class="cls-5" d="M247.78,603.29c.23-.33.52-.61.85-.83.35-.21.78-.21,1.13,0,.6.38.48,1.29.12,1.87-.17.35-.51.6-.89.64.59.3.95.91.95,1.57-.02.65-.56,1.16-1.21,1.14-.02,0-.04,0-.06,0-.56-.1-.91-.64-1.15-1.17-.12.39-.33.75-.6,1.05-.29.3-.74.37-1.11.18-.19-.15-.33-.36-.4-.6-.13-.56-.13-1.13,0-1.69-.81-.24-1.47-.54-1.37-1.19.13-.63.75-1.04,1.38-.92.03,0,.06.01.09.02-.18-.41-.24-.85-.18-1.29.07-.45.39-.83.83-.95.53-.07,1.05.22,1.27.72.21.48.31,1,.3,1.53"/>
    <path class="cls-10" d="M247.56,604.25c-.06-.05-.12-.09-.2-.12h0l.2.12Z"/>
    <path class="cls-10" d="M246.57,604.33c.26-.12.52-.3.79-.2.33.14.5.51.38.85-.17.35-.58.49-.93.32,0,0,0,0,0,0-.44-.24-.6-.77-.24-.97Z"/>
    <path class="cls-5" d="M228.71,580.98c.22-.34.51-.62.85-.83.35-.21.78-.21,1.13,0,.58.38.48,1.29,0,1.87-.16.36-.5.6-.89.64.6.3.97.9.97,1.57-.02.65-.56,1.16-1.21,1.14-.02,0-.04,0-.06,0-.58-.1-.93-.66-1.17-1.17-.11.39-.32.75-.6,1.05-.28.3-.73.37-1.09.18-.2-.15-.34-.36-.4-.6-.13-.56-.13-1.15,0-1.71-.81-.22-1.47-.52-1.37-1.17.11-.63.72-1.04,1.34-.93.04,0,.09.02.13.03-.18-.41-.24-.87-.18-1.31.08-.44.4-.81.83-.93.53-.06,1.04.23,1.27.72.21.48.31.99.3,1.51"/>
    <path class="cls-10" d="M228.47,581.93c-.05-.06-.12-.1-.2-.12h0l.2.12Z"/>
    <path class="cls-10" d="M227.49,582.01c.26-.12.52-.32.77-.2.34.13.52.51.4.85-.18.35-.6.49-.95.32-.42-.32-.62-.77-.22-.97Z"/>
    <path class="cls-7" d="M199.46,871.8c0-.3,17.88-.54,39.98-.54s39.98.24,39.98.54-17.88.52-39.98.52-39.98-.24-39.98-.52Z"/>
    <path class="cls-7" d="M212.63,861.97c-.13-.79-.19-1.6-.18-2.4,0-1.61-.14-3.97-.2-6.99v-.36h.38c5.72,0,13.61-.14,22.31-.14l.52.52h0v9.94h-.5c-6.58,0-12.24-.14-16.17-.24l-4.59-.14c-.52.02-1.04-.02-1.55-.12.59-.09,1.18-.12,1.77-.12l4.69-.14c3.97-.1,9.48-.2,15.9-.24l-.48.5v-9.36h0l.52.52c-8.7,0-16.59,0-22.31-.16l.36-.36c0,2.82-.12,5.13-.2,6.78-.04.85-.13,1.69-.26,2.52Z"/>
    <path class="cls-7" d="M256.82,736.01c-.11-.8-.17-1.61-.16-2.42,0-1.61-.16-3.97-.2-6.99v-.36h.36c5.74-.1,13.63-.16,22.33-.16l.52.52h0v9.94h-.5c-6.6,0-12.24-.14-16.19-.22l-4.57-.14c-.53.02-1.05-.02-1.57-.12.59-.11,1.19-.16,1.79-.14l4.69-.14c3.97,0,9.48-.2,15.9-.22l-.5.5v-9.38h0c-.12-.1.97.99.52.52-8.7,0-16.59,0-22.33-.14l.38-.38c0,2.82-.14,5.15-.2,6.78-.04.86-.12,1.71-.26,2.56Z"/>
    <path class="cls-7" d="M243.17,635.94c-.11-.8-.17-1.6-.16-2.4,0-1.61-.16-3.97-.2-6.99v-.36h.38c5.72,0,13.61-.16,22.33-.16l.52.52h0v9.94h-.5c-6.6,0-12.24-.14-16.19-.24l-4.59-.12c-.52,0-1.04-.04-1.55-.14.59-.08,1.19-.12,1.79-.12l4.69-.14c3.97-.1,9.48-.2,15.9-.22l-.5.48v-9.4h0c-.12-.1.97.99.52.52-8.72,0-16.61,0-22.33-.14l.38-.38c0,2.82-.14,5.13-.2,6.78-.04.87-.13,1.73-.28,2.58Z"/>
    <path class="cls-7" d="M268.63,726.49c-.17-.8-.25-1.62-.22-2.44,0-1.63-.18-3.97-.22-6.95v-.44h10.99l.52.52h0v9.82h-.46c-3.24,0-5.96-.16-7.77-.24-.93.02-1.85-.06-2.76-.22,1.01-.15,2.02-.23,3.04-.24,1.87,0,4.45-.18,7.49-.22l-.46.46v-9.36h0c-.46-.48.64.62.52.52h-10.53l.44-.44c0,2.72-.14,5.03-.24,6.68-.06.86-.17,1.72-.34,2.56Z"/>
    <path class="cls-7" d="M187.3,604.17c-.16-.8-.23-1.62-.22-2.44,0-1.63-.18-3.97-.22-6.95v-.44h10.99l.52.52h0v9.82h-.46c-3.24,0-5.96-.16-7.77-.24-.93.02-1.85-.06-2.76-.22,1.01-.15,2.04-.23,3.06-.24,1.85,0,4.43-.18,7.47-.22l-.46.46v-9.36h0c-.46-.48.64.62.52.52h-10.53l.44-.44c0,2.72-.14,5.03-.22,6.68-.07.86-.19,1.72-.36,2.56Z"/>
    <path class="cls-7" d="M224.57,871.55c-.14-.79-.2-1.6-.18-2.4,0-1.61-.16-3.97-.2-6.99v-.36h.38c5.72-.1,13.61-.16,22.31-.16l.52.52h0v9.94h-.5c-6.58,0-12.24-.14-16.19-.22l-4.57-.14c-.52.04-1.04-.01-1.55-.14.59-.09,1.18-.12,1.77-.12l4.69-.14c3.97,0,9.48-.2,15.9-.22l-.5.48v-9.36h0c-.12,0,.97.99.52.52-8.7,0-16.59,0-22.31-.14l.36-.38c0,2.82-.14,5.13-.2,6.78-.03.85-.11,1.7-.24,2.54Z"/>
    <path class="cls-10" d="M228.17,844.96c4.12-.52,8.29-.7,12.44-.52,4.15-.18,8.3,0,12.42.52-4.12.51-8.27.68-12.42.52-4.15.17-8.31,0-12.44-.52Z"/>
    <path class="cls-10" d="M229.34,769.99c3.7-.54,7.44-.72,11.17-.54,3.73-.18,7.47,0,11.17.54-3.7.51-7.44.68-11.17.52-3.73.17-7.47,0-11.17-.52Z"/>
    <path class="cls-10" d="M254.26,696.51c-4.18.52-8.4.7-12.62.52-4.21.18-8.43,0-12.62-.52,4.19-.51,8.4-.68,12.62-.52,4.21-.17,8.43,0,12.62.52Z"/>
    <path class="cls-10" d="M239.73,793.06c.12.34-3.68.95-6.97,3.84-1.37,1.24-2.42,2.79-3.04,4.53-.48,1.35-.52,2.27-.68,2.27s-.36-.93,0-2.46c.47-1.98,1.54-3.76,3.06-5.11,1.52-1.31,3.31-2.26,5.25-2.78,1.41-.4,2.34-.42,2.38-.28Z"/>
    <path class="cls-10" d="M242.24,717.79c-3.13.87-6.04,2.38-8.56,4.43-2.25,2.33-4,5.11-5.13,8.15-.1-1,.07-2.01.5-2.92,1.62-4.65,5.46-8.18,10.23-9.4.95-.35,1.97-.44,2.96-.26Z"/>
    <path class="cls-10" d="M241.64,645.24c0,.18-1.07.12-2.72.48-4.33.87-7.79,4.12-8.92,8.39-.16.91-.37,1.8-.64,2.68-.3-.92-.3-1.92,0-2.84.83-4.78,4.72-8.43,9.54-8.96.92-.19,1.87-.1,2.74.26Z"/>
    <path class="cls-10" d="M279.58,611.06c0,.28-18.1.52-40.44.52s-40.44-.24-40.44-.52,18.1-.52,40.44-.52,40.44.24,40.44.52Z"/>
    <path class="cls-5" d="M280.41,942.03v-221.68h478.07v221.68h-478.07Z"/>
    <rect class="cls-5" x="280.41" y="699.82" width="20.55" height="20.55"/>
    <rect class="cls-5" x="313.08" y="699.82" width="20.55" height="20.55"/>
    <rect class="cls-5" x="345.76" y="699.82" width="20.55" height="20.55"/>
    <rect class="cls-5" x="378.45" y="699.82" width="20.55" height="20.55"/>
    <rect class="cls-5" x="411.12" y="699.82" width="20.55" height="20.55"/>
    <rect class="cls-5" x="443.81" y="699.82" width="20.55" height="20.55"/>
    <rect class="cls-5" x="476.49" y="699.82" width="20.55" height="20.55"/>
    <rect class="cls-5" x="509.16" y="699.82" width="20.55" height="20.55"/>
    <rect class="cls-5" x="541.85" y="699.82" width="20.55" height="20.55"/>
    <rect class="cls-5" x="574.53" y="699.82" width="20.55" height="20.55"/>
    <rect class="cls-5" x="607.2" y="699.82" width="20.55" height="20.55"/>
    <rect class="cls-5" x="639.89" y="699.82" width="20.55" height="20.55"/>
    <rect class="cls-5" x="672.58" y="699.82" width="20.55" height="20.55"/>
    <rect class="cls-5" x="705.24" y="699.82" width="20.55" height="20.55"/>
    <rect class="cls-5" x="737.93" y="699.82" width="20.55" height="20.55"/>
    <g class="cls-13">
      <path class="cls-10" d="M280.41,942.03v-221.68h478.07v221.68h-478.07Z"/>
      <rect class="cls-10" x="280.41" y="699.82" width="20.55" height="20.55"/>
      <rect class="cls-10" x="313.08" y="699.82" width="20.55" height="20.55"/>
      <rect class="cls-10" x="345.76" y="699.82" width="20.55" height="20.55"/>
      <rect class="cls-10" x="378.45" y="699.82" width="20.55" height="20.55"/>
      <rect class="cls-10" x="411.12" y="699.82" width="20.55" height="20.55"/>
      <rect class="cls-10" x="443.81" y="699.82" width="20.55" height="20.55"/>
      <rect class="cls-10" x="476.49" y="699.82" width="20.55" height="20.55"/>
      <rect class="cls-10" x="509.16" y="699.82" width="20.55" height="20.55"/>
      <rect class="cls-10" x="541.85" y="699.82" width="20.55" height="20.55"/>
      <rect class="cls-10" x="574.53" y="699.82" width="20.55" height="20.55"/>
      <rect class="cls-10" x="607.2" y="699.82" width="20.55" height="20.55"/>
      <rect class="cls-10" x="639.89" y="699.82" width="20.55" height="20.55"/>
      <rect class="cls-10" x="672.58" y="699.82" width="20.55" height="20.55"/>
      <rect class="cls-10" x="705.24" y="699.82" width="20.55" height="20.55"/>
      <rect class="cls-10" x="737.93" y="699.82" width="20.55" height="20.55"/>
    </g>
    <path class="cls-7" d="M373.76,762.77h2.98c7.56,0,13.69,6.13,13.69,13.69h0v87.29h-30.36v-87.29c0-7.56,6.13-13.69,13.69-13.69Z"/>
    <path class="cls-7" d="M425.76,762.77h2.98c7.56,0,13.69,6.13,13.69,13.69h0v87.29h-30.38v-87.29c0-7.56,6.13-13.69,13.69-13.69h.02Z"/>
    <path class="cls-7" d="M321.72,762.77h2.98c7.56,0,13.69,6.13,13.69,13.69h0v87.29h-30.32v-87.29c0-7.55,6.11-13.67,13.65-13.69Z"/>
    <path class="cls-7" d="M667.47,762.77h2.98c7.56,0,13.69,6.13,13.69,13.69h0v87.29h-30.38v-87.29c0-7.56,6.13-13.69,13.69-13.69h.02Z"/>
    <path class="cls-7" d="M722.31,762.77h2.98c7.56,0,13.69,6.13,13.69,13.69h0v87.29h-30.36v-87.29c0-7.56,6.13-13.69,13.69-13.69Z"/>
    <path class="cls-7" d="M609.33,762.77h2.98c7.56,0,13.69,6.13,13.69,13.69h0v87.29h-30.38v-87.29c0-7.56,6.13-13.69,13.69-13.69h.02Z"/>
    <path class="cls-3" d="M436.71,932.39c.24-3.5-2.4-6.54-5.9-6.79-1.8-.13-3.57.52-4.87,1.78-1.61-7.15-11.92-10.47-17.41-5.56-2.63-6.74-10.23-10.06-16.96-7.43-5.91,2.31-9.32,8.53-8.07,14.76-8.61-4.43-19.17-1.04-23.6,7.57-.97,1.89-1.6,3.95-1.83,6.06l95.2-.46c-.7-7.47-9.92-13.21-16.55-9.94Z"/>
    <path class="cls-3" d="M375.15,921.72c-1.05-.66-2.06-1.38-3.02-2.17-.31-.22-.58-.49-.77-.81-.16-.34-.25-.7-.28-1.07-.2-1.58-.29-3.18-.26-4.77.97,0,1.67.93,2.23,1.73l1.05,1.47c.4.5.72,1.05.95,1.65.2,1.26.26,2.54.2,3.82"/>
    <path class="cls-5" d="M429.88,902.36c-.53-.78-1.2-1.46-1.99-1.99-.8-.53-1.82-.58-2.66-.14-1.39.87-1.11,3-.26,4.39.36.81,1.11,1.37,1.99,1.49-1.37.71-2.24,2.11-2.27,3.66.06,1.55,1.37,2.75,2.91,2.69.03,0,.06,0,.09,0,1.31-.22,2.17-1.53,2.72-2.74.27.92.75,1.76,1.39,2.46.68.71,1.74.88,2.6.42.46-.37.78-.87.93-1.43.3-1.31.3-2.67,0-3.97,1.99-.54,3.44-1.25,3.22-2.78-.29-1.49-1.73-2.46-3.22-2.16-.08.02-.16.04-.24.06.41-.96.56-2.01.42-3.04-.17-1.06-.95-1.93-1.99-2.23-1.25-.14-2.45.53-2.98,1.67-.49,1.13-.74,2.35-.74,3.58"/>
    <path class="cls-7" d="M280.41,909.68c-.14-.79-.2-1.6-.18-2.4,0-1.61-.16-3.97-.2-6.99v-.36h.38c5.72-.1,13.61-.16,22.31-.16l.52.52h0v9.94h-.5c-6.58,0-12.24-.14-16.19-.24l-4.57-.12c-.52,0-1.04-.04-1.55-.14.59-.09,1.18-.12,1.77-.12l4.69-.14c3.97-.1,9.48-.2,15.9-.24l-.5.5v-9.36h0l.52.52c-8.7,0-16.59,0-22.31-.14l.36-.38c0,2.82-.14,5.13-.2,6.78-.03.85-.11,1.7-.24,2.54Z"/>
    <path class="cls-7" d="M292.33,919.27c-.11-.8-.17-1.61-.16-2.42,0-1.61-.16-3.97-.2-6.97v-.38h.36c5.72-.1,13.63-.16,22.33-.16-.46-.46.64.64.52.54h0v9.88h-.5c-6.6,0-12.24-.14-16.19-.24l-4.57-.14c-.53.02-1.05-.02-1.57-.12.59-.09,1.19-.13,1.79-.14l4.69-.12c3.97,0,9.48-.22,15.9-.24l-.5.5v-9.38h0l.52.52c-8.7,0-16.61,0-22.33-.16l.38-.36c0,2.82-.14,5.13-.2,6.76-.03.89-.12,1.77-.26,2.64Z"/>
    <path class="cls-7" d="M473.75,755.34c-.11-.8-.17-1.61-.16-2.42,0-1.61-.16-3.97-.2-6.97v-.34h.38c5.72-.1,13.61-.14,22.31-.14-.46-.48.64.62.52.52h0v9.84h-.5c-6.58,0-12.24-.14-16.19-.24l-4.57-.14c-.53.02-1.05-.02-1.57-.12.59-.08,1.19-.12,1.79-.12l4.69-.14c3.97,0,9.48-.2,15.9-.24l-.5.5v-9.34h0l.52.52c-8.7,0-16.59,0-22.31-.16l.36-.36c0,2.82-.14,5.13-.2,6.76-.02.87-.11,1.74-.26,2.6Z"/>
    <path class="cls-7" d="M485.69,764.92c-.11-.8-.17-1.6-.16-2.4,0-1.61-.16-3.97-.2-6.99v-.36h.38c5.72-.1,13.61-.16,22.33-.16l.52.52h0v9.96h-.5c-6.6,0-12.24-.14-16.19-.24l-4.59-.14c-.52.02-1.04-.02-1.55-.12.59-.08,1.19-.12,1.79-.12l4.69-.14c3.97,0,9.48-.2,15.9-.24l-.5.5v-9.44h0l.52.52c-8.72,0-16.61,0-22.33-.14l.38-.38c0,2.82-.14,5.13-.2,6.78-.04.87-.13,1.74-.28,2.6Z"/>
    <path class="cls-7" d="M617.51,899.09c-.14-.79-.2-1.6-.18-2.4,0-1.63-.16-3.97-.2-6.99v-.36h.38c5.72,0,13.61-.14,22.31-.14-.46-.48.64.62.52.52h0v9.86h-.5c-6.58,0-12.24-.14-16.19-.24l-4.57-.14c-.52.02-1.04-.02-1.55-.12.59-.09,1.18-.12,1.77-.12l4.69-.14c3.97-.1,9.48-.2,15.9-.24l-.5.5v-9.36h0l.52.52c-8.7,0-16.59,0-22.31-.16l.36-.36c0,2.82-.14,5.13-.2,6.76-.03.88-.11,1.75-.24,2.62Z"/>
    <path class="cls-7" d="M629.44,908.66c-.11-.8-.17-1.6-.16-2.4,0-1.61-.16-3.97-.2-6.99v-.36h.38c5.72,0,13.61-.16,22.33-.16l.52.52h0v9.86h-.5c-6.6,0-12.24-.14-16.19-.24l-4.57-.14c-.53.02-1.05-.02-1.57-.12.59-.08,1.19-.12,1.79-.12l4.69-.14c3.97-.1,9.48-.2,15.9-.24l-.5.5v-9.36h0l.52.52c-8.72,0-16.61,0-22.33-.14l.38-.38c0,2.82-.14,5.13-.2,6.78-.04.88-.13,1.76-.28,2.62Z"/>
    <path class="cls-10" d="M342.53,866.04c-6.06.51-12.14.68-18.22.52-6.09.17-12.18,0-18.24-.52,6.07-.52,12.16-.7,18.24-.52,6.08-.18,12.16,0,18.22.52Z"/>
    <path class="cls-10" d="M393.83,866.36c-5.9.51-11.82.68-17.74.52-5.92.17-11.84,0-17.74-.52,5.9-.52,11.82-.7,17.74-.52,5.92-.18,11.85,0,17.74.52Z"/>
    <path class="cls-10" d="M445.79,866.36c-5.85.51-11.72.68-17.59.52-5.87.17-11.74,0-17.59-.52,5.85-.52,11.72-.7,17.59-.52,5.87-.18,11.74,0,17.59.52Z"/>
    <path class="cls-10" d="M322.89,761.04c-1.94.02-3.86.31-5.72.85-1.97.69-3.78,1.76-5.33,3.16-1.88,1.74-3.37,3.85-4.39,6.2-1.78,4.35-2.52,9.05-2.15,13.73.22,3.62.58,5.86.42,5.96s-.24-.52-.46-1.53c-.31-1.42-.54-2.85-.68-4.29-.58-4.83.1-9.72,1.99-14.21,1.09-2.48,2.69-4.69,4.71-6.5,1.67-1.44,3.63-2.51,5.74-3.14,1.42-.43,2.9-.59,4.37-.48.51-.02,1.01.06,1.49.24Z"/>
    <path class="cls-10" d="M375.13,759.1c0,.16-1.73.36-4.33,1.37-6.93,2.64-11.89,8.82-12.98,16.15-.44,2.76-.24,4.53-.42,4.55-.45-1.51-.55-3.1-.32-4.65.72-7.77,6.02-14.36,13.45-16.73,1.45-.6,3.03-.84,4.59-.7Z"/>
    <path class="cls-10" d="M426.74,761.01c0,.16-1.59.36-3.97,1.25-6.41,2.27-11.37,7.42-13.39,13.91-.77,2.46-.93,3.97-1.09,3.97-.19-1.43-.06-2.88.4-4.25.87-3.39,2.59-6.49,5.01-9.02,2.43-2.51,5.48-4.35,8.84-5.33,1.35-.49,2.79-.68,4.21-.54Z"/>
    <path class="cls-10" d="M507.37,772.01c0,.2-3.26,1.05-7.95,3.78-12.63,7.18-20.62,20.41-21.08,34.93-.02,2.97.11,5.93.4,8.88-.3-.75-.5-1.54-.6-2.34-.37-2.16-.55-4.35-.54-6.54.06-14.9,8.31-28.56,21.46-35.57,1.91-1.04,3.9-1.9,5.96-2.58.75-.29,1.54-.48,2.34-.56Z"/>
    <path class="cls-10" d="M602.25,759.63c-2.8,2.43-5.12,5.37-6.84,8.66-1.41,3.43-2.17,7.09-2.25,10.79-.41-1.06-.57-2.19-.48-3.32.01-2.75.62-5.46,1.79-7.95,1.16-2.48,2.83-4.69,4.91-6.48.81-.78,1.79-1.37,2.86-1.71Z"/>
    <path class="cls-10" d="M628.19,865.86c-5.8.52-11.63.7-17.45.52-5.82.18-11.65,0-17.45-.52,5.8-.51,11.63-.68,17.45-.52,5.82-.17,11.65,0,17.45.52Z"/>
    <path class="cls-10" d="M689.84,866.28c-6.41.51-12.85.68-19.27.52-6.43.17-12.86,0-19.27-.52,6.41-.52,12.85-.7,19.27-.52,6.43-.18,12.86,0,19.27.52Z"/>
    <path class="cls-10" d="M671.17,758.94c0,.18-1.99.12-5.09.99-8.2,2.25-14.1,9.41-14.76,17.88-.28,3.18.18,5.15,0,5.19s-.24-.46-.44-1.37c-.24-1.28-.33-2.58-.28-3.87.26-8.95,6.56-16.59,15.3-18.56,1.26-.31,2.56-.46,3.85-.46.48-.04.96.03,1.41.2Z"/>
    <path class="cls-10" d="M717.34,762.28c0,.16-1.23.81-3.04,2.27-4.7,3.86-7.58,9.49-7.95,15.56-.12,2.3.12,3.76,0,3.8-.5-1.2-.73-2.5-.68-3.8-.02-3.16.72-6.27,2.17-9.08,1.42-2.81,3.51-5.24,6.08-7.05,1-.82,2.16-1.39,3.42-1.69Z"/>
    <path class="cls-10" d="M743.77,867.09c-6.4.51-12.83.68-19.25.52-6.43.17-12.86,0-19.27-.52,6.41-.52,12.85-.7,19.27-.52,6.42-.18,12.85,0,19.25.52Z"/>
    <path class="cls-7" d="M517.21,775.41h7.69c19.45-.03,35.24,15.7,35.27,35.15,0,.04,0,.08,0,.12v131.34h-78.09v-131.34c-.03-19.44,15.69-35.23,35.13-35.27Z"/>
    <path class="cls-3" d="M494.28,943c-.28,0-.52-35.25-.52-78.73s.24-78.71.52-78.71.52,35.23.52,78.71-.2,78.73-.52,78.73Z"/>
    <path class="cls-3" d="M507.77,942.5c-.28,0-.52-36.66-.52-81.89s.24-81.89.52-81.89.52,36.66.52,81.89-.24,81.89-.52,81.89Z"/>
    <path class="cls-3" d="M521.26,940.64c.03.16.03.32,0,.48v1.47h-.22c-.24-8.15-.4-42.15-.4-82.84,0-23.39,0-44.55.14-59.99,0-7.59.14-13.79.18-18.18v-4.93c-.01-.58.03-1.16.12-1.73.06.57.1,1.15.1,1.73v4.93c0,4.39.1,10.59.16,18.18,0,15.44,0,36.6.16,59.99,0,40.7-.18,74.69-.42,82.84h-.22v-1.47c.1-.19.23-.35.4-.48Z"/>
    <path class="cls-3" d="M534.73,941.03c-.28,0-.52-36.5-.52-81.47s.24-81.57.52-81.57.52,36.52.52,81.57-.22,81.47-.52,81.47Z"/>
    <path class="cls-3" d="M548.25,786.5c.28,0,.52,34.36.52,76.74s-.24,76.76-.52,76.76-.52-34.36-.52-76.76.22-76.74.52-76.74Z"/>
    <path class="cls-3" d="M561.2,908.78c0,.28-17.88.52-40.16.52s-40.14-.24-40.14-.52,17.88-.52,40.14-.52,40.16.28,40.16.52Z"/>
    <path class="cls-3" d="M561.2,867.09c0,.28-17.88.52-40.16.52s-40.14-.24-40.14-.52,17.88-.52,40.14-.52,40.16.24,40.16.52Z"/>
    <path class="cls-3" d="M561.2,825.41c0,.28-17.88.52-40.16.52s-40.14-.24-40.14-.52,17.88-.52,40.14-.52,40.16.2,40.16.52Z"/>
    <path class="cls-3" d="M545.07,783.7c-2.33.31-4.68.44-7.03.38-4.33.1-10.33.16-16.97.16s-12.62,0-16.97-.16c-2.34.06-4.69-.07-7.01-.38,2.33-.28,4.67-.4,7.01-.36,4.35-.1,10.35-.16,16.97-.16s12.64,0,16.97.16c2.35-.05,4.7.07,7.03.36Z"/>
    <path class="cls-10" d="M523.71,514.25c-3.89.51-7.81.68-11.72.52-3.91.17-7.82,0-11.7-.52,3.88-.52,7.79-.7,11.7-.52,3.92-.18,7.84,0,11.72.52Z"/>
    <path class="cls-7" d="M279.62,702.55c.3,0,.52,52.8.52,117.89s-.14,117.91-.52,117.91-.52-52.78-.52-117.89.24-117.91.52-117.91Z"/>
    <path class="cls-7" d="M759.13,691.95c.28,0,.52,55.36.52,123.63s-.24,123.63-.52,123.63-.52-55.36-.52-123.63.26-123.63.52-123.63Z"/>
  </g>
</svg>