<?xml version="1.0" encoding="UTF-8"?>
<svg id="Layer_2" data-name="Layer 2" xmlns="http://www.w3.org/2000/svg" viewBox="0 0 1000 1000">
  <defs>
    <style>
      .cls-1 {
        fill: #000;
      }

      .cls-1, .cls-2, .cls-3, .cls-4, .cls-5, .cls-6, .cls-7, .cls-8, .cls-9, .cls-10, .cls-11 {
        stroke-width: 0px;
      }

      .cls-2 {
        fill: #e0e0e0;
      }

      .cls-3 {
        fill: #eb996e;
      }

      .cls-4 {
        fill: #455a64;
      }

      .cls-5 {
        fill: #f5f5f5;
      }

      .cls-6 {
        fill: #09f;
      }

      .cls-7 {
        fill: #ffbe9d;
      }

      .cls-8 {
        fill: #ebebeb;
      }

      .cls-9 {
        fill: #263238;
      }

      .cls-10 {
        fill: #fafafa;
      }

      .cls-12 {
        opacity: .3;
      }

      .cls-13 {
        opacity: .6;
      }

      .cls-11 {
        fill: #fff;
      }
    </style>
  </defs>
  <g id="freepik--background-complete--inject-16">
    <rect class="cls-2" x="60.01" y="63.74" width="219.72" height="318.47"/>
    <rect class="cls-5" x="49.01" y="63.74" width="219.72" height="318.47"/>
    <rect class="cls-11" x="76.3" y="98.22" width="165.11" height="249.47"/>
    <path class="cls-2" d="M241.41,347.71v-18.46c0-11.94,0-29.37-.15-51.46,0-43.97-.15-106.28-.26-179.64l.54.56H76.45l.6-.6c0,94.12,0,180.89-.13,249.5l-.47-.49,120.19.26,33.19.13h11.73-11.47l-33.1.13-120.47.26h-.47v-.47c0-68.61,0-155.37-.13-249.5v-.6h166.27v.54c-.11,73.52-.21,135.93-.28,180.1,0,21.95-.11,39.34-.13,51.26v17.07c0,.81-.36,1.44-.36,1.44Z"/>
    <path class="cls-2" d="M269.33,63.74c-1.13,2.01-2.43,3.91-3.9,5.68-2.55,3.41-6.17,8.06-10.31,13.08s-8,9.46-10.87,12.63c-1.45,1.79-3.07,3.44-4.82,4.93,1.24-1.94,2.64-3.78,4.18-5.49l10.59-12.86c4.01-4.85,7.61-9.26,10.57-12.86,1.38-1.82,2.91-3.53,4.57-5.1Z"/>
    <path class="cls-11" d="M242.27,346.9c8.21,13.07,17.87,25.17,28.79,36.06"/>
    <path class="cls-2" d="M271.06,382.96c-1.83-1.34-3.51-2.87-5.02-4.57-3.83-3.9-7.46-7.99-10.87-12.26-3.41-4.26-6.61-8.7-9.56-13.29-1.31-1.85-2.44-3.82-3.34-5.9,1.48,1.71,2.83,3.52,4.05,5.42,2.42,3.41,5.81,8.06,9.8,13.04s7.76,9.3,10.53,12.41c1.6,1.6,3.08,3.32,4.42,5.15Z"/>
    <path class="cls-11" d="M48.97,381.95l28.79-35.44"/>
    <path class="cls-2" d="M77.76,346.51c-4.32,6.29-8.97,12.34-13.94,18.14-4.66,6.04-9.62,11.85-14.86,17.39,4.32-6.29,8.97-12.34,13.94-18.14,4.66-6.04,9.62-11.85,14.86-17.39Z"/>
    <path class="cls-2" d="M49.01,63.74c4.96,5.3,9.62,10.87,13.96,16.68,4.66,5.55,9.01,11.36,13.04,17.39-4.96-5.31-9.61-10.88-13.96-16.7-4.65-5.55-9-11.35-13.04-17.37Z"/>
    <rect class="cls-2" x="134.69" y="148.88" width="55.29" height="156.98"/>
    <rect class="cls-2" x="433.69" y="28.04" width="151.39" height="157.82"/>
    <rect class="cls-10" x="423.44" y="28.04" width="151.39" height="157.82"/>
    <path class="cls-2" d="M574.87,185.93h-151.49V28h151.49v157.93ZM423.48,185.93h151.3V28.11h-151.3v157.82Z"/>
    <rect class="cls-11" x="443.78" y="49.27" width="110.69" height="115.39"/>
    <path class="cls-2" d="M443.78,165.43c-.8,1.14-1.72,2.19-2.74,3.13-1.76,1.87-4.29,4.29-7.03,7.14-2.74,2.85-5.34,5.17-7.23,6.9-.96,1.01-2.04,1.9-3.19,2.68.76-1.17,1.67-2.23,2.7-3.17,1.78-1.87,4.29-4.29,7.05-7.14,2.77-2.85,5.36-5.21,7.25-6.95.95-1,2.02-1.87,3.19-2.59Z"/>
    <path class="cls-2" d="M554.48,165.13c1.16.79,2.23,1.71,3.17,2.74,1.87,1.76,4.4,4.29,7.14,7.03s5.19,5.34,6.9,7.23c1.02.96,1.92,2.04,2.68,3.22-1.16-.78-2.22-1.7-3.17-2.72-1.87-1.78-4.29-4.29-7.14-7.05s-5.21-5.36-6.95-7.25c-1.01-.95-1.89-2.02-2.64-3.19Z"/>
    <path class="cls-2" d="M554.18,49.57c.79-1.17,1.7-2.25,2.72-3.22,1.76-1.87,4.29-4.4,7.03-7.12,2.74-2.72,5.36-5.19,7.25-6.93.96-1.01,2.03-1.91,3.19-2.68-.78,1.16-1.7,2.22-2.72,3.17-1.76,1.87-4.29,4.29-7.05,7.14s-5.36,5.21-7.25,6.95c-.94,1.02-2.01,1.92-3.17,2.68Z"/>
    <path class="cls-2" d="M443.48,49.87c-1.16-.79-2.23-1.71-3.17-2.74-1.87-1.76-4.29-4.29-7.14-7.03s-5.19-5.34-6.93-7.23c-1.02-.95-1.92-2.03-2.66-3.22,1.14.79,2.2,1.71,3.15,2.72,1.87,1.78,4.29,4.29,7.16,7.05,2.87,2.77,5.19,5.36,6.93,7.25,1.02.95,1.91,2.02,2.66,3.19Z"/>
    <path class="cls-2" d="M554.18,164.66c-.02-.19-.02-.37,0-.56v-7.85c0-5.47,0-13.42-.11-23.58,0-20.2-.13-48.99-.21-83.47l.43.43h-110.39l.49-.49v115.39l-.41-.43,79.93.21h28.39-28.21l-80.19.24h-.43V48.24h111.32v.43c-.11,34.58-.17,63.46-.24,83.74,0,10.06,0,17.97-.11,23.41v7.72c0,.39-.26,1.11-.26,1.11Z"/>
    <rect class="cls-8" x="480.66" y="88.5" width="36.94" height="36.94"/>
    <rect class="cls-2" x="862.63" y="116.27" width="16.14" height="80.31" transform="translate(-.83 4.71) rotate(-.31)"/>
    <rect class="cls-8" x="722.71" y="116.55" width="41.79" height="44.34" transform="translate(-.74 4.03) rotate(-.31)"/>
    <rect class="cls-5" x="764.3" y="116.3" width="41.79" height="44.34" transform="translate(-.74 4.25) rotate(-.31)"/>
    <path class="cls-2" d="M722.65,128.94c27.76.24,55.62,0,83.38-.39.24-.05.4-.29.34-.54-.04-.17-.17-.3-.34-.34-27.79-.16-55.59.01-83.4.51-.21.05-.33.26-.28.47.03.14.14.25.28.28h.02Z"/>
    <rect class="cls-8" x="696.64" y="160.23" width="75.94" height="36.13" transform="translate(-.95 3.98) rotate(-.31)"/>
    <rect class="cls-5" x="772.21" y="159.82" width="75.94" height="36.13" transform="translate(-.95 4.39) rotate(-.31)"/>
    <path class="cls-2" d="M696.58,170.53c50.43.56,101.07,0,151.49-.75.25,0,.45-.2.45-.45,0-.25-.2-.45-.45-.45-50.45-.26-101.07-.24-151.52.88-.21,0-.39.17-.39.39s.17.39.39.39h.02Z"/>
    <rect class="cls-2" x="668.17" y="196.6" width="294.2" height="12.95"/>
    <rect class="cls-2" x="716.35" y="202.82" width="11.94" height="44.17"/>
    <rect class="cls-2" x="894.62" y="202.82" width="11.94" height="44.17"/>
    <rect class="cls-8" x="878.44" y="86.3" width="16.14" height="110.46" transform="translate(-.75 4.8) rotate(-.31)"/>
    <rect class="cls-5" x="894.68" y="106.9" width="25.08" height="89.51" transform="translate(-.81 4.91) rotate(-.31)"/>
    <path class="cls-2" d="M919.34,124.12c-8.35.6-16.73.6-25.08,0,8.35-.57,16.73-.57,25.08,0Z"/>
    <path class="cls-2" d="M919.34,120.36c-8.35.57-16.73.57-25.08,0,8.35-.57,16.73-.57,25.08,0Z"/>
    <path class="cls-2" d="M919.34,182.92c-8.35.57-16.73.57-25.08,0,8.35-.6,16.73-.6,25.08,0Z"/>
    <path class="cls-2" d="M919.34,179.15c-8.35.6-16.73.6-25.08,0,8.35-.57,16.73-.57,25.08,0Z"/>
    <path class="cls-2" d="M907.21,170.96c-.26,0-.45-9.05-.45-20.17s.19-20.17.45-20.17.43,9.03.43,20.17-.28,20.17-.43,20.17Z"/>
    <rect class="cls-8" x="919.6" y="128.85" width="27.29" height="67.56"/>
    <path class="cls-2" d="M890.61,105.18c0,2.57-2.08,4.65-4.65,4.65-2.57,0-4.65-2.08-4.65-4.65,0-2.55,2.06-4.63,4.61-4.65,2.56-.04,4.66,2.01,4.69,4.57,0,.03,0,.06,0,.09Z"/>
    <rect class="cls-2" x="884.55" y="117.94" width="2.87" height="65.71"/>
    <rect class="cls-5" x="145.24" y="441.82" width="79.09" height="54.8" transform="translate(-160.53 101.7) rotate(-21.72)"/>
    <path class="cls-2" d="M211.14,431.58s0,.34-.36.96-.79,1.59-1.29,2.62l-4.93,9.61c-4.29,8.06-10.08,19.19-16.62,31.43-1.35.54-.39.15-.69.26h-.6l-.62-.21-1.22-.41-2.42-.81-4.74-1.59-8.94-3-15.01-5.17-10.18-3.58-2.74-1.03c-.34-.13-.67-.3-.96-.51.34.02.68.1,1.01.21l2.81.81,10.21,3.26,15.2,4.93,8.98,2.96,4.74,1.57,2.42.81,1.22.41.6.19h.6l-.64.26c6.54-12.24,12.52-23.31,16.89-31.28l5.25-9.41,1.46-2.53c.17-.27.36-.52.58-.75Z"/>
    <path class="cls-2" d="M171.97,470.86c-1.89,6.08-4.16,12.05-6.78,17.86-2.27,5.95-4.88,11.76-7.83,17.41,1.91-6.08,4.18-12.03,6.8-17.84,2.27-5.95,4.88-11.77,7.8-17.43Z"/>
    <path class="cls-2" d="M229.6,477.92c-5.8-2.58-11.43-5.52-16.87-8.79-5.63-2.94-11.07-6.22-16.32-9.8,5.79,2.62,11.42,5.56,16.87,8.81,5.62,2.95,11.06,6.22,16.32,9.78Z"/>
    <rect class="cls-5" x="48.23" y="568.19" width="54.8" height="79.1" transform="translate(-532.83 677.29) rotate(-89.43)"/>
    <path class="cls-2" d="M114.77,585.63s-.21.3-.71.75l-2.14,1.93-8.28,6.9c-6.97,5.85-16.66,13.87-27.4,22.68h-.75l-.13-.11-.24-.21-.49-.43-.96-.84-1.93-1.69-3.77-3.28-7.1-6.2-12.01-10.57-8.02-7.2-2.14-1.99c-.27-.22-.5-.47-.71-.75,0,0,.32.17.86.58l2.27,1.84,8.25,6.93,12.16,10.38,7.16,6.17,3.77,3.26,1.93,1.67.96.86.49.43.24.19.13.11h0c-.32,0,.73,0-.71,0,10.72-8.81,20.5-16.74,27.59-22.43l8.45-6.71,2.34-1.76c.27-.21.57-.38.88-.51Z"/>
    <path class="cls-2" d="M63.55,606.81c-4.1,4.87-8.47,9.51-13.1,13.89-4.37,4.63-9.01,9-13.89,13.08,4.13-4.88,8.54-9.51,13.21-13.87,4.33-4.63,8.94-9.01,13.79-13.1Z"/>
    <path class="cls-2" d="M114.08,635.5c-4.36-4.61-8.44-9.47-12.22-14.56-4.09-4.87-7.89-9.98-11.36-15.31,4.35,4.63,8.42,9.5,12.2,14.6,4.09,4.86,7.89,9.96,11.38,15.27Z"/>
    <rect class="cls-5" x="58.95" y="758.26" width="54.8" height="79.09" transform="translate(-712.59 873) rotate(-89.2)"/>
    <path class="cls-2" d="M125.1,773.17c-.2.27-.44.52-.71.73l-2.14,1.95-8.17,6.88c-6.97,5.85-16.66,13.87-27.4,22.68h-.77l-.13-.11-.24-.21-.49-.41-.96-.86-1.93-1.67-3.77-3.28c-2.47-2.14-4.85-4.29-7.1-6.22l-12.01-10.57-8.02-7.18-2.14-2.02c-.47-.45-.73-.71-.71-.75.32.15.61.36.86.6l2.27,1.82,8.25,6.95,12.16,10.38,7.16,6.17,3.77,3.26,1.93,1.67.96.84.49.43.26.21h-.66c10.72-8.79,20.5-16.72,27.59-22.4l8.45-6.71,2.34-1.78c.27-.17.56-.3.86-.41Z"/>
    <path class="cls-2" d="M73.88,794.26c-4.1,4.87-8.47,9.5-13.1,13.87-4.37,4.63-9.01,9.01-13.89,13.1,4.09-4.88,8.47-9.52,13.1-13.89,4.38-4.62,9.02-8.99,13.89-13.08Z"/>
    <path class="cls-2" d="M124.39,822.95c-4.35-4.63-8.42-9.5-12.2-14.6-4.07-4.86-7.85-9.96-11.32-15.27,4.35,4.62,8.42,9.48,12.2,14.58,4.07,4.87,7.85,9.98,11.32,15.29Z"/>
    <rect class="cls-5" x="866.22" y="542.05" width="79.09" height="54.8" transform="translate(-86.53 169.4) rotate(-10.2)"/>
    <path class="cls-2" d="M939.11,537.88c-.15.31-.34.59-.56.86l-1.8,2.34-6.73,8.4c-5.72,7.08-13.7,16.79-22.55,27.49-1.44.26-.41,0-.73.11h-.13l-.3-.15-.56-.32-1.11-.66-2.14-1.26-4.29-2.51-8.15-4.74-13.81-8.08-9.24-5.53-2.49-1.57c-.3-.16-.57-.37-.81-.6.33.09.64.22.92.41l2.59,1.37,9.43,5.23,13.91,7.87,8.19,4.7,4.29,2.49,2.14,1.26,1.11.64.56.34.3.15h.13c-.32,0,.71,0-.69.13,8.85-10.72,16.92-20.33,22.81-27.27l7.01-8.17,1.95-2.14c.21-.28.46-.54.73-.77Z"/>
    <path class="cls-2" d="M892.86,568.44c-3.09,5.57-6.51,10.95-10.23,16.12-3.41,5.39-7.12,10.57-11.13,15.52,3.08-5.58,6.49-10.97,10.21-16.14,3.41-5.38,7.13-10.56,11.15-15.5Z"/>
    <path class="cls-2" d="M947.92,586.98c-5.15-3.71-10.07-7.72-14.75-12.01-4.93-4.01-9.61-8.31-14.04-12.86,5.15,3.71,10.09,7.72,14.77,12.01,4.92,4.02,9.6,8.31,14.02,12.86Z"/>
    <polygon class="cls-5" points="682.54 438.36 629.67 427.21 621.86 393.55 674.74 404.72 682.54 438.36"/>
    <path class="cls-2" d="M674.74,404.72c-.43.46-.91.87-1.44,1.22l-4.18,3.11c-3.6,2.59-8.68,6.22-14.56,10.33l-.32.24-.32-.26-6.43-4.97c-7.18-5.64-13.66-10.72-18.29-14.56l-5.47-4.5c-.71-.51-1.35-1.11-1.91-1.78.77.4,1.49.88,2.14,1.44l5.68,4.29c4.78,3.6,11.32,8.58,18.5,14.3l6.43,5.02h-.64c5.92-4.07,11.08-7.57,14.77-10.03l4.29-2.83c.53-.42,1.11-.76,1.74-1.01Z"/>
    <path class="cls-2" d="M645.34,413.17c-2.23,2.73-4.74,5.22-7.48,7.44-2.5,2.47-5.25,4.68-8.19,6.6,4.71-5.23,9.96-9.93,15.67-14.04Z"/>
    <path class="cls-2" d="M682.54,438.38c-4.12-3.56-8-7.4-11.6-11.49-3.86-3.82-7.44-7.91-10.72-12.24,4.11,3.56,7.98,7.39,11.58,11.47,3.85,3.84,7.44,7.94,10.74,12.26Z"/>
    <polygon class="cls-5" points="392.16 418.21 339.29 407.04 331.48 373.38 384.35 384.55 392.16 418.21"/>
    <path class="cls-2" d="M384.35,384.55s-.47.49-1.44,1.22l-4.18,3.11c-3.6,2.62-8.68,6.22-14.56,10.33l-.32.24-.32-.24-6.43-5c-7.18-5.64-13.66-10.72-18.29-14.56l-5.47-4.5c-.7-.52-1.34-1.12-1.91-1.78.77.4,1.49.88,2.14,1.44l5.68,4.29c4.78,3.62,11.32,8.58,18.5,14.3l6.43,5.02h-.64c5.92-4.07,11.08-7.57,14.77-10.01l4.29-2.85c.53-.41,1.12-.75,1.74-1.01Z"/>
    <path class="cls-2" d="M354.96,392.99c-2.23,2.73-4.73,5.22-7.46,7.44-2.5,2.48-5.25,4.7-8.21,6.6,4.71-5.23,9.96-9.93,15.67-14.04Z"/>
    <path class="cls-2" d="M392.16,418.21c-4.13-3.55-8.01-7.39-11.6-11.49-3.86-3.82-7.44-7.91-10.72-12.24,4.11,3.57,7.98,7.4,11.58,11.49,3.85,3.83,7.44,7.92,10.74,12.24Z"/>
  </g>
  <g id="freepik--Floor--inject-16">
    <path class="cls-9" d="M979.93,924.64c0,.32-214.89.56-479.91.56s-479.95-.24-479.95-.56,214.85-.56,479.95-.56,479.91.26,479.91.56Z"/>
  </g>
  <g id="freepik--Character--inject-16">
    <path class="cls-7" d="M530.74,347.88c-.28-12.65-2.98-38.59-5.68-62.18-2.9-25.3-24.74-44.12-50.19-43.27h-2.53c-27.21,2.53-40.26,27.04-37.01,54.18l6.22,86.96.21.79,19.19,34.78,30.47,27.55,15.84-24.27-1.14-23.58-.94-19.79s26.11-4.95,25.56-31.17Z"/>
    <path class="cls-3" d="M505.25,379.06c-12.09.63-24.09-2.36-34.48-8.58,0,0,8.7,18.59,34.78,15.33l-.3-6.75Z"/>
    <path class="cls-9" d="M518.33,309.03c.09,2.03-1.45,3.75-3.47,3.9-1.98.22-3.76-1.2-3.98-3.18,0-.02,0-.04,0-.06-.1-2.03,1.45-3.76,3.47-3.9,1.96-.23,3.74,1.17,3.98,3.13,0,.03,0,.07.01.1Z"/>
    <path class="cls-9" d="M520.22,297.31c-.45.49-3.34-1.5-7.38-1.35s-6.9,2.25-7.38,1.78.24-1.11,1.48-2.14c1.7-1.26,3.76-1.96,5.87-2.02,2.09-.09,4.16.5,5.9,1.67,1.27.94,1.72,1.82,1.5,2.06Z"/>
    <path class="cls-9" d="M482.85,309.21c.1,2.03-1.45,3.76-3.47,3.9-1.97.22-3.74-1.19-3.96-3.16,0-.03,0-.05,0-.08-.1-2.03,1.45-3.76,3.47-3.9,1.95-.23,3.72,1.16,3.95,3.11,0,.04,0,.08.01.12Z"/>
    <path class="cls-9" d="M480.06,297.52c-.41.56-3.52-1.11-7.5-.54-3.99.58-6.6,3-7.12,2.57s.11-1.14,1.24-2.14c1.55-1.45,3.51-2.38,5.62-2.66,2.07-.31,4.19.05,6.05,1.03,1.35.69,1.91,1.42,1.72,1.74Z"/>
    <path class="cls-9" d="M495.95,330.15c2.08-.74,4.24-1.21,6.43-1.42,1.03-.13,1.99-.36,2.14-1.07.05-1.06-.23-2.12-.79-3.02l-3.3-7.74c-4.61-11-7.98-20.07-7.53-20.24s4.52,8.58,9.13,19.6c1.11,2.7,2.14,5.3,3.17,7.78.7,1.21.94,2.63.69,4.01-.29.74-.89,1.32-1.65,1.57-.56.17-1.15.27-1.74.3-2.17.35-4.37.43-6.56.24Z"/>
    <path class="cls-9" d="M480.02,280.05c-.36,1.11-4.4.73-9.11,1.46-4.72.73-8.58,2.14-9.13,1.18-.3-.45.32-1.5,1.84-2.62,1.99-1.4,4.29-2.3,6.71-2.62,2.41-.38,4.87-.17,7.18.6,1.76.73,2.66,1.57,2.51,1.99Z"/>
    <path class="cls-9" d="M519.04,281.74c-.69.94-3.49,0-6.84.15-3.34.15-6.13.84-6.82-.11-.3-.45.13-1.39,1.33-2.29,3.32-2.25,7.68-2.25,11,0,1.2.88,1.59,1.8,1.33,2.25Z"/>
    <path class="cls-3" d="M495.71,337.33c-1.69-.88-3.73-.69-5.23.47-1.27,1.01-2.08,2.48-2.27,4.1-.3,1.19.11,2.45,1.07,3.22,1.76.91,3.82,1.02,5.66.3,2.38-1.61,3.56-6.17.77-8.08"/>
    <path class="cls-9" d="M495.2,345.37s-.19.3-.69.62c-.74.5-1.6.77-2.49.79-.6,0-1.2-.09-1.78-.24-.34-.08-.67-.19-.99-.34-.36-.18-.68-.43-.94-.73-.31-.3-.54-.67-.69-1.07-.11-.39-.19-.78-.26-1.18-.12-.84-.07-1.69.13-2.51.38-1.62,1.44-3,2.89-3.79,1.18-.67,2.58-.83,3.88-.45,2.14.71,2.77,2.14,2.64,2.14-.83-.67-1.78-1.17-2.81-1.46-1.1-.22-2.24-.01-3.19.58-1.17.7-2.01,1.84-2.32,3.17-.19.7-.23,1.43-.13,2.14.03.33.1.66.19.99.08.27.22.51.43.71.17.21.37.39.6.54.26.13.53.24.81.32.5.18,1.02.29,1.54.34.78.04,1.55-.09,2.27-.39.54-.15.84-.26.88-.19Z"/>
    <path class="cls-3" d="M649.09,610.22c5.02.26,10.05,0,15.01-.79,3.53-.95,6.89-2.47,9.95-4.48,0,0,10.85,1.52,12.59-.92,1.06-1.52,1.63-3.33,1.63-5.19l7.98-.99,7.23,1.37,3.99,4.85s2.98,0,3.11-1.8c0,0,3.99-1.8,3.6-3.04s-2.57-7.23-2.57-7.23l-3.02-6.43s-19.68-1.26-20.43-.75-25.73,12.07-25.73,12.07l-9.22,2.14-4.1,11.19Z"/>
    <path class="cls-7" d="M659.32,578.06l31.2-7.01,21.74-1.14s18.57,8.58,18.05,16.34l3.88,2.14s-.32,5.77-4.95,4.5c-2.26-.66-4.46-1.49-6.6-2.47l4.97,7.61c-2.13,1.2-4.71,1.25-6.88.13-1.54-.73-12.52-9.03-12.52-9.03l-9.26-.26s-17.15,11.81-25.19,13.1-21.59-1.46-21.59-1.46l7.16-22.47Z"/>
    <path class="cls-3" d="M729.28,592.83c0-.13.79.13,2.14,0,.74-.16,1.37-.63,1.74-1.29.44-.92.62-1.94.51-2.96l.19.3-13.46-8.88-4.05-2.66c-1.26-.81-2.68-1.74-3.69-2.29h-7.42c-2.36.12-4.73.06-7.08-.19,2.31-.39,4.65-.6,6.99-.62l3.54-.17h3.79c.16-.02.31-.02.47,0,1.38.72,2.72,1.51,4.01,2.38l4.07,2.64c5.21,3.45,9.88,6.69,13.31,9.15l.17.11v.19c.07,1.18-.21,2.36-.79,3.39-.5.78-1.33,1.29-2.25,1.39-.54.07-1.09.01-1.61-.15-.47-.24-.62-.3-.6-.34Z"/>
    <path class="cls-3" d="M727.26,597.49c-1.23-1.14-2.32-2.41-3.26-3.79-1.91-2.42-4.48-5.83-7.27-9.65h0l-.36-.3c-.94-.73-1.89-1.42-2.83-2.04-.45-.31-.91-.6-1.39-.86-.42-.24-.87-.39-1.35-.45-1.81-.3-3.64-.48-5.47-.54-1.72.02-3.45-.12-5.15-.41,1.7-.36,3.43-.5,5.17-.41,1.88-.05,3.77.05,5.64.3.59.08,1.16.26,1.69.54.49.26.99.56,1.48.88.96.62,1.95,1.33,2.92,2.14l.39.3h0c2.79,3.84,5.25,7.31,6.99,9.86,1.12,1.35,2.06,2.83,2.81,4.42Z"/>
    <path class="cls-6" d="M849.47,830.92l.73,57.74s58.68,14.47,59.84,25.13l-111.64,9.61-4.82-89.92,55.89-2.55Z"/>
    <g class="cls-13">
      <path class="cls-11" d="M815.3,885.49c-2.19.8-3.44,3.11-2.89,5.38.66,2.26,3.03,3.57,5.3,2.92,2.32-.85,3.63-3.3,3.04-5.7-.98-2.25-3.57-3.32-5.85-2.42"/>
    </g>
    <g class="cls-13">
      <path class="cls-11" d="M798.34,923.39l-.49-9.05,108.14-5.53c2.42,1.01,4.16,3.17,4.63,5.75l-112.28,8.83Z"/>
    </g>
    <path class="cls-9" d="M851.94,888c0,.56-2.72.94-5.32,2.83-2.59,1.89-3.92,4.29-4.44,4.05s.13-3.39,3.32-5.62c3.19-2.23,6.52-1.76,6.43-1.27Z"/>
    <path class="cls-9" d="M863.9,892.29c.15.54-2.14,1.57-3.92,3.97-1.78,2.4-2.14,4.89-2.7,4.89s-1.05-3.07,1.18-6.02c2.23-2.96,5.4-3.34,5.45-2.83Z"/>
    <path class="cls-9" d="M871.25,906.09c-.49.13-1.39-2.57-.13-5.62s3.75-4.29,4.01-3.94-1.26,2.14-2.25,4.65-1.09,4.76-1.63,4.91Z"/>
    <path class="cls-9" d="M850.31,874.88c-.21.49-2.74-.13-5.83.24s-5.45,1.44-5.75.99,1.91-2.51,5.55-2.89,6.26,1.22,6.02,1.67Z"/>
    <g class="cls-12">
      <polygon class="cls-1" points="849.56 842.35 849.68 852.64 794.86 858.52 794.13 845.57 849.56 842.35"/>
    </g>
    <path class="cls-9" d="M849.94,863.21c-1.81.59-3.76.68-5.62.26-2.03-.27-4.03-.78-5.94-1.52-1.13-.45-2.24-.97-3.3-1.57-.65-.31-1.24-.72-1.76-1.22-.78-.76-.94-1.96-.39-2.89.52-.8,1.38-1.31,2.34-1.37.72-.05,1.44.02,2.14.19,3.26.62,6.31,2.05,8.88,4.16,2.72,2.29,3.71,4.29,3.52,4.4s-1.59-1.46-4.29-3.3c-1.6-1.07-3.33-1.94-5.15-2.57-1.06-.37-2.15-.65-3.26-.84-1.2-.26-2.14-.21-2.49.32-.11.19-.11.28.15.62.39.35.82.66,1.29.9.98.58,2,1.09,3.04,1.54,1.77.78,3.62,1.39,5.51,1.82,1.8.23,3.57.59,5.32,1.07Z"/>
    <path class="cls-9" d="M849.26,864.03c-1.13-1.55-1.73-3.42-1.74-5.34-.19-2.07-.03-4.16.47-6.17.31-1.2.73-2.36,1.26-3.47.55-1.53,1.84-2.66,3.43-3,1.02-.02,1.97.54,2.42,1.46.32.64.55,1.32.69,2.02.25,1.25.31,2.53.17,3.79-.22,2.11-.96,4.13-2.14,5.9-2.14,3-4.29,3.77-4.29,3.58s1.65-1.42,3.19-4.29c.88-1.66,1.4-3.49,1.52-5.36.05-1.09-.04-2.17-.26-3.24-.24-1.18-.73-2.14-1.18-1.97s-1.46.96-1.87,1.93c-.51.99-.93,2.03-1.24,3.11-.53,1.83-.81,3.73-.81,5.64-.02,3.32.58,5.34.36,5.42Z"/>
    <path class="cls-9" d="M569.79,632.82s181.77-30.17,189.87-31.43c31.15-4.8,66.72-.99,78.58,21.44,0,0,8.79,20.67,10.48,51.63,1.5,27.46,12.41,190.28,12.41,190.28l-75.04,12.5-24.68-180.1h0l-42.34,7.93c2.38-.28-109.9,19.9-143.95,23.35-26.22,2.66-56.41-11.47-62.45-34.84-3.97-15.27-12.56-57.78-12.56-57.78l69.68-2.98Z"/>
    <path class="cls-4" d="M779.21,672.12c-7.56,6.69-13.48,15.02-17.3,24.36.16-1.48.56-2.93,1.18-4.29,2.65-6.76,6.92-12.77,12.44-17.49,1.08-1.06,2.32-1.93,3.69-2.57Z"/>
    <path class="cls-5" d="M439.05,369.84l-3.17,13.66,73.65,45.77-3.28-22.73c-6.71-6.87-14.26-12.87-22.47-17.84-14.15-7.95-29.15-14.28-44.72-18.87Z"/>
    <path class="cls-6" d="M433.13,387.61s-22.66,48.03-24.29,66.27c-1.63,18.25,4.65,78.86,4.65,78.86l102.23,116.63,102.05,6.78s-48.3-101.67-59.11-121.39-47.17-109.56-47.17-109.56c-2.84-7.46-7.23-14.23-12.86-19.87-13.83-14.66-40.74-23.71-64.83-28.56l-.66,10.85Z"/>
    <path class="cls-6" d="M472.13,408.02c15.16,1.76,34.63,13.21,41.38,39.84l6.43,32.91,32.67,66.34,107.05,30.55-13.87,41.94s-106.04-8.34-119.81-11.94c-13.76-3.6-70.75-84.67-70.75-84.67,0,0-28.54-49.31-21.25-85.65,3.54-18.2,19.36-31.52,38.14-29.31Z"/>
    <path class="cls-9" d="M472.13,408.02l-2.57-.11c-2.5-.08-5,.1-7.46.56-3.96.75-7.76,2.2-11.21,4.29-4.68,2.89-8.62,6.84-11.49,11.53-1.74,2.75-3.1,5.72-4.05,8.83-.29.81-.52,1.64-.69,2.49-.24.85-.42,1.72-.54,2.59-.24,1.78-.49,3.58-.75,5.45-.51,8.09.01,16.21,1.57,24.16,1.77,9.11,4.34,18.05,7.68,26.71,3.65,9.67,7.98,19.06,12.97,28.11h0c8.3,11.64,17.28,23.91,26.97,36.6,9.97,13.37,20.62,26.21,31.92,38.46,2.92,3.2,6.22,6.04,9.82,8.45,1.95.92,4.05,1.49,6.2,1.69,2.14.32,4.4.69,6.62.94,8.9,1.16,17.97,2.14,27.19,3,18.4,1.82,37.33,3.47,56.62,5.1l24.98,2.14-.6.39c4.73-14.29,9.37-28.27,13.91-41.94l.39.71-107.05-30.62h-.19l-.11-.21c-12.13-24.72-23.07-47-32.57-66.46h0c-1.42-7.25-2.74-14.11-4.03-20.6-.99-6.14-2.42-12.2-4.29-18.14-3.13-9.43-8.87-17.79-16.55-24.1-4.85-3.91-10.42-6.83-16.4-8.58-1.54-.46-3.11-.83-4.7-1.09l-1.63-.3s.56,0,1.63.19c1.61.22,3.2.55,4.76.99,6.06,1.69,11.71,4.61,16.59,8.58,7.81,6.3,13.66,14.7,16.87,24.21,1.87,5.96,3.3,12.04,4.29,18.2,1.31,6.49,2.69,13.36,4.12,20.6v-.11l32.74,66.29-.3-.26,107.07,30.49.56.15-.17.56c-4.55,13.68-9.18,27.66-13.89,41.96l-.15.43h-.45l-24.96-2.04c-19.3-1.63-38.25-3.3-56.67-5.12-9.2-.92-18.29-1.87-27.21-3.02-2.14-.26-4.46-.64-6.67-.96-1.09-.15-2.14-.41-3.3-.62-1.15-.19-2.25-.59-3.24-1.2-3.69-2.44-7.06-5.32-10.06-8.58-11.32-12.3-21.99-25.18-31.97-38.59-9.67-12.71-18.63-25-26.91-36.68h0c-4.96-9.11-9.26-18.57-12.86-28.3-3.32-8.71-5.87-17.69-7.61-26.84-1.54-8.03-2.03-16.22-1.46-24.38.26-1.87.51-3.71.77-5.49.12-.89.31-1.77.56-2.64.18-.86.42-1.7.71-2.53,1-3.14,2.4-6.15,4.16-8.94,2.95-4.72,6.97-8.68,11.73-11.58,3.51-2.1,7.36-3.55,11.38-4.29,2.48-.4,4.99-.55,7.5-.43,1.54-.21,2.47-.11,2.47-.11Z"/>
    <path class="cls-9" d="M534.3,572.81c.33-1.55.9-3.04,1.67-4.42,1.65-3.43,3.61-6.7,5.85-9.78,2.24-3.09,4.77-5.96,7.55-8.58,1.07-1.16,2.32-2.15,3.69-2.94.24.26-5.12,5.04-10.31,12.16-5.19,7.12-8.19,13.7-8.45,13.55Z"/>
    <path class="cls-9" d="M515.48,433.69c-.94-.83-1.81-1.74-2.59-2.72-.79-.9-1.78-2.02-3-3.22s-2.51-2.68-4.12-4.12c-3.65-3.48-7.51-6.74-11.56-9.76-5-3.63-10.24-6.92-15.67-9.86-9.97-5.17-20.41-9.35-31.2-12.48-4.14-1.24-7.53-2.14-9.86-2.77-1.23-.26-2.43-.61-3.6-1.05,1.25.1,2.49.31,3.71.62,2.38.45,5.79,1.26,9.97,2.4,10.93,2.95,21.5,7.1,31.52,12.37,5.49,2.96,10.76,6.31,15.76,10.03,4.09,3.03,7.97,6.34,11.6,9.91,1.59,1.48,2.85,2.98,4.01,4.29,1.16,1.31,2.14,2.42,2.87,3.37.78.95,1.51,1.94,2.17,2.98Z"/>
    <path class="cls-2" d="M829.1,463.4c-1.95-.58-4.01.53-4.59,2.48,0,0,0,0,0,0l-37.22,124.5-124.72,19.45c-4.03.64-6.78,4.42-6.15,8.45l136.59-21.31h0l38.59-128.9c.61-1.95-.47-4.04-2.43-4.65-.03,0-.05-.02-.08-.02Z"/>
    <path class="cls-9" d="M829.1,463.4c.88.19,1.65.72,2.14,1.48.62.91.81,2.05.51,3.11-.34,1.2-.75,2.62-1.22,4.29-1.87,6.43-4.57,15.63-8.02,27.38-7.01,23.58-16.98,57.22-28.94,97.49v-.15.49h-.49l.39-.34h0l-.13.47-.49-.13h.21l-134.04,20.99-2.51.32h-.56l-.11-.56c-.52-3.47,1.27-6.87,4.42-8.4.76-.35,1.57-.58,2.4-.71l2.32-.36,4.61-.73,18.22-2.83,35.16-5.34,64.32-9.95-.41.34,28.39-94.34,8.04-26.37,1.24-4.01c.39-.98,1.17-1.75,2.14-2.14.79-.31,1.67-.31,2.47,0-.8-.17-1.64-.1-2.4.19-.94.4-1.66,1.18-1.99,2.14l-1.18,4.03c-1.8,6.13-4.42,15.01-7.76,26.44-6.75,22.79-16.4,55.31-28,94.34v.3h-.3l-64.17,10.08-35.2,5.49-18.22,2.85-4.61.73c-1.5.12-2.98.45-4.4.96-2.71,1.3-4.25,4.23-3.79,7.2l-.66-.49,2.55-.39,134.09-20.84h.24l-.62.34h0v-.3h.3l-.41.58v-.19h0c12.11-40.22,22.21-73.82,29.31-97.38l8.25-27.4,1.26-4.16c.3-1,.15-2.08-.41-2.96-.47-.71-1.14-1.25-1.93-1.57Z"/>
    <path class="cls-4" d="M793.06,596.97c-.28.17-1.59-1.35-3.22-3.22s-2.94-3.41-2.72-3.64,1.93.96,3.58,2.89c1.65,1.93,2.62,3.79,2.36,3.97Z"/>
    <path class="cls-4" d="M772.48,595.21c0-.15.56-.56,1.42,0,.58.28.93.88.9,1.52-.06.81-.62,1.49-1.39,1.72-.77.19-1.58-.11-2.04-.75-.39-.51-.45-1.19-.15-1.76.54-.92,1.31-.79,1.26-.64s-.41.36-.51.94c-.07.28.01.58.21.79.22.27.58.39.92.3.32-.11.57-.38.64-.71.04-.29-.07-.57-.3-.75-.47-.66-.9-.66-.96-.66Z"/>
    <path class="cls-4" d="M780.46,593.88c-.11-.15.54-.56,1.42,0,.58.28.93.88.88,1.52-.05.8-.6,1.49-1.37,1.72-.8.24-1.67-.06-2.14-.75-.37-.51-.43-1.19-.15-1.76.54-.92,1.33-.79,1.29-.64s-.43.36-.54.94c-.06.29.03.58.24.79.31.37.86.43,1.24.12.16-.13.27-.32.31-.53,0-.28,0-.51-.3-.75s-.79-.54-.86-.66Z"/>
    <polygon class="cls-9" points="472.73 757.84 422.11 924.17 440.57 924.36 508.98 756.12 472.73 757.84"/>
    <path class="cls-9" d="M690.47,735.2c-.13,0,57.31,188.67,57.31,188.67l18.31.26-35.4-192.72-40.22,3.79Z"/>
    <path class="cls-4" d="M393.59,493.61c-5.63-5.22-13.81-6.66-20.88-3.67-14.17,6.07-34.95,18.48-30.27,38.1,5.83,24.46,72.9,184.38,94.59,235.69,4.06,9.56,13.46,15.74,23.84,15.67l281.21-2.32c11.46-.09,20.68-9.46,20.59-20.92,0-.85-.07-1.69-.18-2.54l-10.51-79.89c-3.47-26.47-24.86-46.97-51.46-49.31l-181.9-16.14-125.04-114.68Z"/>
    <path class="cls-9" d="M427.83,738.86c-.08-.18-.14-.36-.17-.56l-.34-1.72c-.3-1.59-.71-3.79-1.24-6.58-1.05-5.79-2.53-14.04-4.29-24.21s-3.94-22.43-6.32-35.91c-1.18-6.78-2.42-13.87-3.71-21.23-.62-3.69-1.29-7.44-1.95-11.23-.9-3.9-1-7.94-.3-11.88.48-2.01,1.42-3.88,2.74-5.47,1.32-1.53,2.92-2.79,4.72-3.71,3.5-1.68,7.25-2.75,11.11-3.17,7.48-.81,14.64-1.24,21.44-1.76,13.72-.94,26.07-1.57,36.45-1.97,10.38-.41,18.78-.6,24.59-.69h9.03-2.32l-6.69.28-24.57,1.03c-10.38.51-22.7,1.22-36.45,2.14-6.84.56-14.06,1.01-21.44,1.82-3.72.41-7.35,1.45-10.72,3.07-3.43,1.66-5.95,4.75-6.88,8.45-.65,3.79-.54,7.66.32,11.41.64,3.79,1.29,7.53,1.93,11.23,1.26,7.35,2.47,14.45,3.62,21.23,2.29,13.53,4.29,25.73,6.09,35.98s3.07,18.44,4.01,24.27c.45,2.81.79,5.02,1.05,6.6,0,.71.17,1.26.24,1.74.07.27.09.56.06.84Z"/>
    <path class="cls-9" d="M749.8,731.4c0,.3-72.66.56-162.26.56s-162.26-.26-162.26-.56,72.64-.58,162.26-.58,162.26.26,162.26.58Z"/>
    <path class="cls-9" d="M460.16,610.89c-.24.19-22.47-25.34-49.61-57.05s-48.99-57.59-48.75-57.89,22.45,25.34,49.61,57.05c27.16,31.71,48.99,57.67,48.75,57.89Z"/>
    <path class="cls-9" d="M536.56,219.1c-11.17-2.08-21.58,8.76-33,7.82-6.95-.55-12.7-5.35-19.12-7.99-5.02-2.03-10.46-2.88-15.88-2.5-5.41.39-10.67,2-15.34,4.72-8.71,5.49-13.96,11.2-14.21,21.47-8.93-3.84-21.81,8.1-25.44,18.66-3.63,10.57-1.26,20.8,2.79,31.29,6.77,18.05,17.08,34.62,30.33,48.78,1.18,1.26,2.96,2.58,4.44,1.7.45-.39.81-.88,1.04-1.43.22-.55.31-1.14.25-1.73.51-10.02-1.93-19.9-3.91-29.76s-3.58-20.01-1.45-29.84c2.12-9.82,8.66-19.21,18.4-22.26,7.37-1.85,15.16-1.09,22,2.17,6.95,2.88,13.24,7.08,19.91,10.49,6.53,3.78,14,5.72,21.58,5.63,7.51-.49,15.13-4.86,17.56-11.86,2.43-7-2.2-16.08-9.72-16.8,3.35-.69,6.36-2.5,8.5-5.12,2.15-2.62,3.3-5.89,3.28-9.26-.03-3.37-1.24-6.62-3.42-9.2-2.19-2.59-5.22-4.35-8.58-4.99h0Z"/>
    <path class="cls-9" d="M525.61,244.9c-3.58-5.03-8.38-9.1-13.96-11.86-11.81-6.51-25.42-9.18-38.87-7.63-13.49,1.63-25.8,8.36-34.34,18.74-6.5,8.52-10.32,18.72-10.97,29.35-.94,11.61.28,23.27,3.6,34.45,1.48,4.39,4.33,5.65,8.04,8.51,2.32,1.78,6,2.74,8.04.55,1.06-1.36,1.63-3.03,1.62-4.75,1.54-15.37,2.79-31.84-4.8-45.32,2.84-5.45,6.8-10.25,11.64-14.11,2.42-1.92,5.21-3.35,8.19-4.2,2.99-.85,6.12-1.11,9.2-.76,9.13,1.37,15.72,8.92,23.53,13.72,5.64,3.37,12.02,5.38,18.61,5.86,6.58.48,13.2-.59,19.28-3.11l-8.83-19.43h0Z"/>
    <path class="cls-2" d="M415,287.02c0-.27,2.26-.33,5.75-1.16,9.15-2.22,17.23-8.14,22.7-16.6,2.06-3.32,2.98-5.51,3.22-5.41-.46,2.16-1.29,4.2-2.44,6.01-2.58,4.52-5.99,8.38-10.01,11.33-4.01,2.95-8.54,4.91-13.29,5.78-1.95.46-3.97.48-5.92.07h0Z"/>
    <path class="cls-2" d="M416.16,291.46c0-.22,2.09-.27,5.36-.96,8.58-1.82,16.17-6.71,21.28-13.72,1.95-2.74,2.79-4.56,3.01-4.47-.41,1.79-1.19,3.48-2.29,4.97-2.42,3.73-5.62,6.92-9.38,9.36-3.76,2.44-8,4.06-12.45,4.78-1.82.36-3.7.38-5.53.06h0Z"/>
    <path class="cls-7" d="M438.15,316c-.45-.17-18.18-4.72-17,13.19,1.18,17.9,18.82,13.04,18.82,12.5s-1.82-25.68-1.82-25.68Z"/>
    <path class="cls-3" d="M434.14,335.28s-.3.24-.81.51c-.73.36-1.56.43-2.34.19-1.93-.56-3.71-3.45-4.01-6.67-.16-1.53.04-3.08.58-4.52.25-1.15,1.05-2.11,2.14-2.55.72-.24,1.51.06,1.89.73.28.49.17.86.28.88s.36-.32.17-1.05c-.13-.44-.4-.82-.77-1.09-.52-.34-1.15-.46-1.76-.32-1.48.38-2.65,1.51-3.07,2.98-.67,1.6-.93,3.34-.75,5.06.34,3.6,2.4,6.84,5.04,7.42,1,.23,2.04-.01,2.83-.66.56-.39.64-.88.58-.9Z"/>
  </g>
  <g id="freepik--Emails--inject-16">
    <rect class="cls-11" x="88.72" y="848.92" width="91.27" height="63.23" transform="translate(-196.94 53.71) rotate(-13.16)"/>
    <path class="cls-9" d="M186.03,900.9s-.13-.41-.32-1.14-.47-1.89-.81-3.28c-.71-2.92-1.74-7.1-3.02-12.41-2.57-10.72-6.24-26.03-10.72-44.64l.54.34-88.85,20.88c0,.15.79-1.26.41-.66h0v.45l.13.51.24,1.03.47,2.14.96,4.1c.62,2.7,1.26,5.4,1.89,8.08l3.67,15.76c2.4,10.29,4.7,20.2,6.88,29.54l-.62-.39,64-14.71,18.35-4.14,4.91-1.09,1.26-.26h.47l-.39.13-1.22.3-4.78,1.18-18.16,4.4-64.21,15.29-.49.11-.13-.49c-2.14-9.35-4.5-19.3-6.93-29.54-1.22-5.15-2.44-10.4-3.71-15.76-.62-2.66-1.24-5.36-1.89-8.08l-.96-4.07-.47-2.14-.24-1.03-.13-.51v-.45h0c-.39.6.49-.84.41-.69l88.89-20.67.45-.11v.43l10.27,45.02c1.2,5.3,2.14,9.48,2.79,12.37.3,1.37.51,2.42.69,3.22s.41,1.01.39.99Z"/>
    <path class="cls-9" d="M170.96,842.09c-.18.35-.38.69-.62,1.01-.51.73-1.16,1.65-1.93,2.79l-7.29,10.08-24.38,32.97c-1.42.34-.41,0-.73.15h-.15l-.34-.17-.66-.34-1.33-.66-2.62-1.35-5.15-2.62-9.69-4.97-16.38-8.58-11-5.79-2.96-1.63c-.37-.16-.71-.38-1.01-.64.39.08.75.23,1.09.43l3.07,1.44,11.02,5.45,16.49,8.28,9.71,4.91,5.15,2.62,2.64,1.33,1.33.69.66.34.32.17h.17c-.3,0,.71-.15-.69.17l24.63-32.8,7.59-9.88c.84-1.07,1.54-1.93,2.14-2.64s.86-.75.9-.73Z"/>
    <path class="cls-9" d="M119.48,880.06c-3.31,6.56-6.94,12.95-10.89,19.15-6.28,10.42-11.58,18.74-11.83,18.59,3.31-6.57,6.94-12.97,10.89-19.17,3.63-6.38,7.58-12.58,11.83-18.57Z"/>
    <path class="cls-9" d="M184.04,898.14c-6.11-4.03-12-8.38-17.67-13.01-5.9-4.34-11.57-8.98-17-13.89,6.11,4.04,12.02,8.38,17.69,13.01,5.89,4.34,11.56,8.98,16.98,13.89Z"/>
    <rect class="cls-11" x="358.12" y="435.06" width="81.17" height="56.24" transform="translate(-29.9 27.52) rotate(-3.81)"/>
    <path class="cls-9" d="M441.02,488.57s0-.39-.11-1.05l-.26-3c-.19-2.68-.49-6.43-.86-11.34-.71-9.78-1.74-23.73-2.96-40.74l.49.43-80.98,5.53c-.13.13.96-1.11.51-.58h0v1.8l.13,1.89.26,3.71c.15,2.49.32,4.93.47,7.38.33,4.87.65,9.66.96,14.36.6,9.39,1.2,18.4,1.74,26.93l-.54-.49,58.27-3.62,16.7-.96,4.48-.24h1.57-.34l-1.11.11-4.29.34-16.57,1.24-58.53,4.18h-.49v-.49c-.58-8.58-1.18-17.54-1.82-26.93-.32-4.7-.64-9.5-.96-14.36-.17-2.42-.32-4.89-.49-7.35l-.26-3.73-.13-1.87v-1.82h0l.51-.6,81-5.27h.45v.45c1.03,17.15,1.89,31.15,2.49,41.01.28,4.8.49,8.58.64,11.26,0,1.22.11,2.14.15,2.92-.02.31-.06.62-.13.92Z"/>
    <path class="cls-9" d="M436.3,434.78c-.2.3-.43.57-.69.81l-2.14,2.14-7.85,7.8c-6.65,6.54-15.89,15.54-26.14,25.45h-.75l-.13-.11-.28-.19-.54-.41-1.07-.77-2.14-1.57-4.12-3.04-7.78-5.77-13.14-9.82-8.9-6.71-2.36-1.89c-.53-.43-.79-.66-.77-.71.32.14.62.32.9.54l2.49,1.69,9,6.43c3.84,2.79,8.32,6.05,13.29,9.63l7.83,5.72c1.35.99,2.72,2.02,4.14,3.02l2.14,1.57,1.07.77.54.41.26.19h.15-.71c10.27-9.88,19.6-18.8,26.39-25.21l8.08-7.55,2.14-2.02c.33-.2.7-.34,1.07-.43Z"/>
    <path class="cls-9" d="M385.64,460.66c-3.8,5.32-7.89,10.41-12.26,15.27-4.1,5.09-8.48,9.95-13.12,14.56,3.8-5.32,7.89-10.41,12.26-15.27,4.1-5.09,8.48-9.95,13.12-14.56Z"/>
    <path class="cls-9" d="M439.69,485.87c-4.83-4.38-9.39-9.03-13.68-13.94-4.57-4.65-8.86-9.55-12.86-14.69,4.83,4.38,9.39,9.03,13.68,13.94,4.56,4.65,8.85,9.55,12.86,14.69Z"/>
    <rect class="cls-11" x="197.57" y="651.55" width="81.17" height="56.24" transform="translate(-356.65 273.62) rotate(-36.37)"/>
    <path class="cls-9" d="M287.49,678.29l-.66-.84-1.82-2.38-6.82-9.11-24.4-32.72h.62l-65.28,48.33c0,.17.21-1.48.13-.77h0l.13.19.28.39.56.75,1.11,1.52,2.14,3c1.48,1.99,2.94,3.97,4.29,5.94l8.58,11.6,15.97,21.74-.71-.11,47.17-34.41,13.57-9.82,3.62-2.59.96-.66.34-.21-.26.24-.88.66-3.49,2.66-13.29,9.95-47.17,35.03-.41.3-.3-.43-16.04-21.7-8.58-11.58-4.29-5.94-2.14-3-1.11-1.52-.56-.75-.28-.39-.13-.19h0c0,.69.13-.96,0-.79l65.43-48.03.36-.28.26.36,24.27,33.23,6.6,9.13,1.67,2.38c.2.25.38.53.54.81Z"/>
    <path class="cls-9" d="M254.56,635.5c.01.35-.03.7-.13,1.03-.15.81-.36,1.78-.6,2.96-.6,2.72-1.42,6.43-2.4,10.72-2.14,9.09-5.02,21.65-8.34,35.53-1.16.86-.34.24-.6.41h-2.64l-2.62-.17-5.1-.34-9.67-.66-16.36-1.22-11.02-.9-3-.3c-.35,0-.7-.07-1.03-.19.35-.03.7-.03,1.05,0l3,.11,11.04.56,16.38.96,9.67.6,5.12.32,2.62.17h2.62l-.56.41c3.32-13.85,6.43-26.37,8.58-35.44,1.14-4.4,2.14-8.02,2.77-10.72.3-1.16.58-2.14.79-2.89.11-.32.25-.63.43-.92Z"/>
    <path class="cls-9" d="M225.78,684.58c-.33,6.53-1.05,13.03-2.14,19.47-.72,6.49-1.79,12.93-3.22,19.3.33-6.53,1.05-13.04,2.14-19.49.71-6.48,1.79-12.91,3.22-19.27Z"/>
    <path class="cls-9" d="M284.89,676.69c-6.41-1.08-12.76-2.51-19.02-4.29-6.35-1.46-12.6-3.29-18.74-5.47,6.42,1.1,12.77,2.57,19.02,4.4,6.34,1.42,12.6,3.21,18.74,5.36Z"/>
    <rect class="cls-11" x="86.85" y="677.44" width="56.24" height="81.17" transform="translate(-607.41 634.65) rotate(-74.32)"/>
    <path class="cls-9" d="M146.43,756.01c.05-.35.13-.69.24-1.03l.77-2.92c.69-2.59,1.69-6.28,2.96-10.98l10.72-39.34.3.56-78.08-21.83.69-.39h0v.39l-.13.47-.26.9-.51,1.8c-.32,1.2-.66,2.4-1.01,3.58-.66,2.4-1.33,4.76-1.99,7.12-1.31,4.7-2.62,9.33-3.88,13.85-2.7,9.22-5.04,17.8-7.46,26.01l-.36-.62,56.15,15.99,16.08,4.65,4.29,1.26,1.11.34.39.15h-.34l-1.09-.28-4.29-1.11-16.02-4.29-56.56-15.74-.47-.15.13-.49c2.29-8.21,4.72-16.92,7.27-25.99l3.86-13.85c.66-2.36,1.33-4.72,1.99-7.12.34-1.18.69-2.38,1.01-3.58l.51-1.8.26-.92.13-.45v-.39h0c-.6.34.86-.49.71-.39l78.11,22.02.45.13-.13.43c-4.72,16.47-8.58,30.02-11.34,39.49-1.33,4.63-2.4,8.28-3.15,10.72-.34,1.18-.62,2.14-.84,2.79s-.19.99-.19.99Z"/>
    <path class="cls-9" d="M159.92,703.72s-.3.24-.9.54l-2.7,1.35-10.08,4.74c-8.45,3.97-20.17,9.37-33.15,15.27l-.71-.19h0v-.13l-.19-.28-.36-.56-.75-1.09-1.46-2.14-2.87-4.29-5.53-8.08c-3.41-5.1-6.43-9.71-9.11-13.64l-6.07-9.26-1.59-2.55c-.21-.29-.38-.6-.51-.92,0,0,.28.26.69.81s1.07,1.46,1.78,2.42l6.43,9.05,9.3,13.51,5.51,7.93,2.89,4.29,1.46,2.14.75,1.09.36.56.19.26.11.15h0l-.66-.19c12.86-5.9,24.72-11.19,33.27-15.01l10.14-4.44,2.77-1.14c.32-.1.65-.16.99-.19Z"/>
    <path class="cls-9" d="M103.53,711.23c-5.35,3.75-10.91,7.2-16.66,10.31-5.53,3.44-11.26,6.55-17.15,9.33,5.36-3.73,10.92-7.17,16.66-10.29,5.54-3.43,11.27-6.55,17.15-9.35Z"/>
    <path class="cls-9" d="M146.07,753.01c-3.07-5.74-5.82-11.66-8.23-17.71-2.76-5.9-5.17-11.96-7.23-18.14,3.07,5.74,5.82,11.66,8.23,17.71,2.76,5.9,5.17,11.96,7.23,18.14Z"/>
    <rect class="cls-11" x="363.92" y="633.49" width="81.17" height="56.24" transform="translate(-89.6 63.94) rotate(-8.14)"/>
    <path class="cls-9" d="M448.69,683.68c-.09-.35-.16-.7-.21-1.05-.11-.73-.28-1.72-.47-2.96-.41-2.66-.99-6.43-1.72-11.23-1.46-9.71-3.52-23.58-6.02-40.35l.51.36-80.34,11.62c0,.13.9-1.2.47-.64h0v.9l.13.94.28,1.84.51,3.69c.36,2.47.71,4.89,1.05,7.31.69,4.85,1.37,9.58,2.04,14.26,1.31,9.3,2.57,18.27,3.77,26.71l-.58-.43,57.89-8.02,16.57-2.14,4.44-.56,1.16-.15h.43-.36l-1.09.17-4.29.69-16.42,2.49-58.1,8.58h-.49v-.49c-1.22-8.45-2.51-17.41-3.86-26.71-.67-4.66-1.39-9.41-2.14-14.26-.34-2.4-.71-4.85-1.05-7.29-.17-1.22-.34-2.47-.54-3.69l-.26-1.87-.13-.92v-.88h0c-.43.56.56-.77.47-.64l80.36-11.38h.45v.45c2.32,16.94,4.29,30.89,5.57,40.74.64,4.78,1.14,8.58,1.48,11.17.17,1.22.28,2.14.36,2.89s.13.88.13.86Z"/>
    <path class="cls-9" d="M439.97,630.4s-.17.32-.6.86l-1.93,2.32-7.23,8.38c-6.13,7.03-14.66,16.7-24.16,27.36-1.42.19-.41,0-.73,0h-.15l-.28-.17-.56-.34-1.14-.71-2.14-1.39-4.29-2.72-8.19-5.17-13.85-8.79-9.28-6.02-2.49-1.67c-.58-.41-.86-.62-.84-.66.33.12.65.28.94.47l2.62,1.5,9.46,5.7,13.98,8.58,7.98,5.06,4.29,2.7,2.14,1.39,1.11.69.56.36.3.17h.13c-.32,0,.73,0-.69,0,9.48-10.72,18.1-20.24,24.4-27.14l7.48-8.13c.81-.88,1.5-1.59,2.14-2.14.31-.21.65-.37,1.01-.47Z"/>
    <path class="cls-9" d="M391.34,660.03c-3.38,5.6-7.08,11-11.08,16.17-3.7,5.39-7.7,10.57-11.98,15.5,3.39-5.59,7.09-10.99,11.08-16.17,3.71-5.38,7.71-10.56,11.98-15.5Z"/>
    <path class="cls-9" d="M447.15,681.08c-5.14-4-10.04-8.3-14.69-12.86-4.9-4.29-9.55-8.86-13.94-13.68,5.13,4.01,10.04,8.3,14.69,12.86,4.9,4.29,9.55,8.86,13.94,13.68Z"/>
    <polygon class="cls-2" points="376.42 571.24 306.16 605.76 267.21 574.35 337.46 539.86 376.42 571.24"/>
    <path class="cls-9" d="M376.42,571.24l-.77-.56c-.51-.43-1.22-.96-2.14-1.65l-7.93-6.26-28.43-22.58h.47l-70.19,34.63c0,.19.19-1.78.11-.94h0l.15.13.32.26.64.54,1.31,1.03,2.55,2.14,5.08,4.1,9.95,8.02,18.76,15.16h-.54l50.53-24.51,14.6-7.03,3.92-1.87,1.03-.47.39-.17-1.24.66-3.62,1.91-14.34,7.18-50.62,25.26-.3.15-.26-.21-18.8-15.01-10.01-8.1-5.08-4.1-2.57-2.14-1.29-1.05-.64-.51-.34-.26-.15-.13h0c0,.84.11-1.14.11-.94l70.22-34.43.24-.11.24.17,28.36,23.2,7.7,6.43,1.97,1.65c.22.13.44.27.64.43Z"/>
    <path class="cls-9" d="M337.46,539.86c-.13.9-.34,1.79-.62,2.66-.54,1.87-1.24,4.29-2.14,7.25-1.91,6.43-4.48,15.01-7.42,24.76l-.13.39h-12.13c-13.23,0-25.19,0-33.85-.17l-10.27-.17c-1.25.02-2.51-.05-3.75-.21,1.24-.19,2.5-.27,3.75-.24l10.27-.17c8.58,0,20.63-.15,33.85-.15h11.73l-.51.36c3.11-9.78,5.81-18.33,7.8-24.63.96-2.94,1.78-5.34,2.38-7.16.27-.87.62-1.71,1.05-2.51Z"/>
    <path class="cls-9" d="M311.48,575.75c-.34,5.05-1.06,10.07-2.14,15.01-.71,5.07-1.79,10.09-3.22,15.01.35-5.08,1.06-10.14,2.14-15.12.71-5.04,1.79-10.02,3.22-14.9Z"/>
    <path class="cls-9" d="M376.42,571.24c0,.3-10.55-1.03-23.43-2.98-12.89-1.95-23.31-3.77-23.26-4.07s10.55,1.03,23.43,2.98c12.89,1.95,23.31,3.77,23.26,4.07Z"/>
    <polygon class="cls-2" points="146.16 921.62 148 866.21 205.46 847.33 205.46 794.16 252.88 782.06 269.16 738.37 314.65 729.13 397.99 729.13 438.55 801.7 527.23 800.2 527.23 852.36 634.6 861.97 680.2 899.64 776.25 923.39 146.16 921.62"/>
    <rect class="cls-11" x="372.73" y="736.88" width="96.72" height="67.02" transform="translate(-129.77 86.74) rotate(-10.2)"/>
    <path class="cls-9" d="M474.59,794.82s-.11-.43-.28-1.22l-.66-3.49c-.6-3.13-1.44-7.61-2.51-13.31l-8.85-47.83.51.36-95.17,17.15c0,.15.86-1.22.45-.62h0v1.07l.19,1.11.41,2.14c.26,1.48.51,2.94.79,4.29.51,2.92,1.03,5.81,1.54,8.58l3.02,16.87c1.97,11.04,3.88,21.65,5.66,31.67l-.58-.41,68.61-12.09,19.64-3.39,5.25-.88,1.35-.21h.49-.41l-1.31.28-5.12.99-19.47,3.62-68.8,12.63-.49.11-.11-.51c-1.8-9.99-3.73-20.6-5.72-31.65-.99-5.51-2.02-11.15-3.04-16.87-.51-2.85-1.03-5.75-1.57-8.58l-.77-4.4-.41-2.14-.19-1.09-.11-.56v-.49h0c-.41.58.54-.79.45-.66l95.21-17h.45v.43c3.52,20.11,6.43,36.64,8.45,48.22.96,5.68,1.72,10.12,2.25,13.23.24,1.48.43,2.62.58,3.45s.26,1.22.26,1.22Z"/>
    <path class="cls-9" d="M461.86,731.76c-.19.37-.43.72-.71,1.03l-2.14,2.83-8.32,10.25-27.64,33.6c-1.42.26-.41,0-.73.11h-.17l-.34-.21-.69-.39-1.37-.79-2.7-1.57-5.27-3.04-9.99-5.79-16.87-9.88-11.41-6.9-3.04-1.89c-.37-.2-.71-.44-1.03-.71.4.12.78.3,1.14.51l3.15,1.72,11.51,6.43,17,9.67,10.01,5.75,5.3,3.04,2.7,1.54,1.37.79.69.39.34.21h.17c-.3,0,.73-.11-.69.15l27.87-33.38,8.58-10.03,2.36-2.7c.6-.45.9-.77.92-.73Z"/>
    <path class="cls-9" d="M405.3,769.13c.26.17-5.38,8.96-12.59,19.64s-13.27,19.3-13.53,19.04,5.38-8.98,12.59-19.66c7.2-10.68,13.27-19.27,13.53-19.02Z"/>
    <path class="cls-9" d="M472.64,791.8c-.19.24-8.25-6.43-17.97-14.77s-17.45-15.37-17.15-15.61,8.23,6.43,17.97,14.77,17.37,15.37,17.15,15.61Z"/>
    <rect class="cls-8" x="425.25" y="808.68" width="85.72" height="59.39" transform="translate(-141.06 96.15) rotate(-10.2)"/>
    <path class="cls-9" d="M515.5,860.04c-.11-.36-.19-.72-.24-1.09-.15-.75-.36-1.78-.62-3.11-.51-2.77-1.26-6.73-2.14-11.79-1.89-10.18-4.59-24.72-7.87-42.37l.54.36-84.49,15.27.43-.62h0v.94l.19.99.34,1.95c.24,1.29.47,2.59.69,3.88.47,2.57.92,5.12,1.39,7.65.9,5.09,1.79,10.09,2.68,15.01,1.74,9.8,3.43,19.19,5,28.06l-.58-.41,60.74-10.72,17.41-3,4.65-.77,1.22-.19h.43s-.11,0-.36.11l-1.14.24-4.55.88-17.15,3.24-61,11.21-.49.11v-.51c-1.61-8.85-3.32-18.25-5.08-28.04-.9-4.89-1.8-9.88-2.7-15.01-.47-2.55-.92-5.1-1.39-7.68-.24-1.29-.45-2.57-.69-3.88l-.36-1.95-.17-.96v-.96h0c-.41.56.56-.81.45-.66l84.39-15.01h.45v.43c3.11,17.82,5.66,32.46,7.46,42.75.86,5.02,1.52,8.96,1.99,11.73.21,1.29.36,2.29.49,3.04.05.3.08.6.09.9Z"/>
    <path class="cls-9" d="M504.29,804.15s-.17.34-.62.92l-1.93,2.51-7.33,9.11c-6.22,7.65-14.86,18.2-24.46,29.78l-.73.13h-.15l-.3-.17-.62-.36-1.2-.69-2.4-1.39-4.7-2.7-8.83-5.15-15.01-8.75-10.01-6-2.7-1.67c-.33-.17-.63-.39-.9-.64.35.11.69.26,1.01.45l2.81,1.5,10.21,5.68,15.01,8.58,8.88,5.08,4.7,2.68,2.4,1.39,1.2.69.62.36.3.17h.15l-.69.13c9.61-11.6,18.35-22.04,24.72-29.57l7.59-8.9,2.14-2.38c.25-.3.54-.57.86-.79Z"/>
    <path class="cls-9" d="M454.1,837.27c-3.39,6.01-7.1,11.84-11.11,17.45-3.72,5.82-7.74,11.43-12.05,16.83,3.39-6.02,7.1-11.84,11.13-17.45,3.7-5.82,7.72-11.44,12.03-16.83Z"/>
    <path class="cls-9" d="M513.79,857.36c-5.56-4.05-10.89-8.41-15.97-13.04-5.33-4.36-10.41-8.99-15.24-13.89,5.56,4.05,10.89,8.4,15.97,13.04,5.33,4.36,10.41,8.99,15.24,13.89Z"/>
    <rect class="cls-11" x="276.67" y="699.41" width="85.72" height="59.39" transform="translate(-124.06 68.11) rotate(-10.2)"/>
    <path class="cls-9" d="M366.94,750.78c-.11-.36-.19-.72-.26-1.09-.15-.77-.34-1.8-.6-3.11-.54-2.79-1.29-6.75-2.14-11.79-1.91-10.21-4.59-24.72-7.87-42.39l.51.36-84.34,15.29c0,.13.86-1.22.45-.64h0v.92l.17.96.36,1.95c.21,1.31.45,2.59.69,3.88.47,2.57.92,5.15,1.37,7.68.92,5.08,1.8,10.06,2.68,15.01,1.76,9.78,3.43,19.17,5.02,28.04l-.6-.41,60.76-10.72,17.49-3,4.65-.77,1.22-.19c.14-.02.29-.02.43,0h-.36l-1.16.24-4.52.88-17.26,3.24-60.98,11.23h-.49l-.11-.49c-1.61-8.88-3.3-18.27-5.08-28.04-.88-4.91-1.78-9.88-2.7-15.01-.45-2.53-.9-5.1-1.37-7.68l-.71-3.88-.34-1.93-.17-.99v-.92h0c-.41.58.54-.79.45-.66l84.39-15.01h.45v.45c3.11,17.8,5.66,32.46,7.46,42.73.84,5.02,1.52,8.96,1.97,11.73l.51,3.04c.04.36.05.73.02,1.09Z"/>
    <path class="cls-9" d="M355.67,694.87c-.17.34-.38.65-.62.94l-1.95,2.51-7.31,9.11c-6.22,7.65-14.86,18.18-24.46,29.78-1.42.26-.41,0-.73,0h0l-.15-.11-.32-.17-.6-.34-1.2-.71-2.4-1.37-4.7-2.72-8.85-5.12-15.01-8.77-10.03-5.98-2.7-1.67c-.6-.41-.92-.62-.9-.66.36.12.7.28,1.03.47l2.79,1.48,10.21,5.68,15.01,8.58,8.9,5.08,4.7,2.7,2.38,1.37,1.22.71.6.34.32.17h.15c-.3,0,.73-.11-.69.13,9.61-11.58,18.33-22.04,24.72-29.57l7.59-8.88,2.14-2.38c.58-.34.84-.62.88-.6Z"/>
    <path class="cls-9" d="M305.54,727.99c-3.4,6.01-7.12,11.83-11.13,17.45-3.7,5.82-7.72,11.44-12.03,16.83,3.39-6.01,7.1-11.84,11.11-17.45,3.71-5.82,7.73-11.44,12.05-16.83Z"/>
    <path class="cls-9" d="M365.21,748.08c-5.55-4.05-10.88-8.4-15.95-13.04-5.34-4.34-10.43-8.98-15.24-13.89,5.55,4.07,10.88,8.43,15.97,13.06,5.32,4.34,10.41,8.97,15.22,13.87Z"/>
    <rect class="cls-5" x="336.73" y="759.59" width="68.82" height="99.35" transform="translate(-493.52 1021.43) rotate(-79.15)"/>
    <path class="cls-9" d="M413.45,852.36s0-.45.19-1.26.36-2.14.64-3.62c.58-3.19,1.42-7.8,2.49-13.66,2.14-11.79,5.36-28.64,9.18-49.14l.36.54-97.57-18.48.64-.43h0v.54l-.11.58-.21,1.11-.43,2.14c-.3,1.5-.58,3-.88,4.48-.56,2.98-1.14,5.94-1.69,8.88-1.14,5.87-2.14,11.64-3.32,17.3-2.14,11.32-4.29,22.17-6.26,32.42l-.39-.58,70.15,13.7,20.09,3.99,5.34,1.07,1.39.3.49.13h-.45l-1.33-.24-5.3-.94-20.11-3.75-70.58-13.27h-.51v-.49c1.95-10.27,4.01-21.14,6.17-32.46,1.07-5.66,2.14-11.43,3.3-17.3.56-2.92,1.14-5.87,1.69-8.85.3-1.5.58-3,.86-4.48l.45-2.27.21-1.11.11-.58v-.49h0l.66-.45,97.53,18.8h.45v.43c-4.05,20.56-7.38,37.48-9.69,49.31-1.18,5.81-2.14,10.36-2.72,13.53l-.71,3.52c-.04.75-.15,1.11-.15,1.11Z"/>
    <path class="cls-9" d="M424.51,787.21c-.32.29-.68.53-1.07.73l-3.15,1.89-11.73,6.8-38.85,22c-1.44-.26-.41,0-.73-.15h0l-.13-.17-.26-.32-.51-.62-1.03-1.26-2.12-2.62-3.94-4.89-7.42-9.24c-4.72-5.87-8.96-11.17-12.54-15.67s-6.32-8-8.38-10.72l-2.14-2.92c-.28-.33-.52-.69-.73-1.07.33.28.63.59.9.92l2.4,2.79,8.58,10.42,12.74,15.52,7.48,9.2,3.94,4.87,2.04,2.49,1.01,1.26.51.64.26.3.13.17h0c-.3,0,.73.15-.69-.11l39.02-21.72,11.9-6.43,3.26-1.72c.41-.17.83-.29,1.26-.36Z"/>
    <path class="cls-9" d="M356.5,802.17c.17.26-8.47,6.6-19.3,14.17-10.83,7.57-19.79,13.53-19.96,13.27s8.47-6.6,19.3-14.17c10.83-7.57,19.81-13.53,19.96-13.27Z"/>
    <path class="cls-9" d="M412.7,848.74c-.28.15-5.53-9.18-11.77-20.8s-11.06-21.16-10.72-21.31,5.53,9.15,11.77,20.8,11,21.16,10.72,21.31Z"/>
    <rect class="cls-5" x="543.63" y="818.53" width="68.82" height="99.35" transform="translate(-383.45 1272.48) rotate(-79.15)"/>
    <path class="cls-9" d="M620.32,911.32s0-.45.19-1.29.36-2.14.64-3.6c.6-3.19,1.44-7.8,2.51-13.68,2.14-11.79,5.34-28.64,9.18-49.12l.34.54-97.57-18.59.64-.45h0v.54l-.11.56-.21,1.14-.43,2.14-.86,4.48c-.58,2.98-1.14,5.94-1.69,8.88-1.14,5.85-2.25,11.64-3.34,17.3-2.14,11.3-4.29,22.17-6.24,32.42l-.41-.6,70.17,13.72,20.07,3.97,5.36,1.09,1.39.3.47.13h-.43l-1.35-.21-5.27-.96-20-3.69-70.71-13.1h-.49v-.51c1.95-10.25,4.03-21.12,6.2-32.44,1.07-5.72,2.17-11.48,3.3-17.3.56-2.94,1.11-5.9,1.69-8.88.28-1.48.58-2.98.86-4.48l.43-2.25.21-1.14.11-.56v-.54h0c-.58.39.79-.56.66-.47l97.53,18.8h.45v.45c-4.03,20.56-7.35,37.48-9.69,49.31-1.16,5.81-2.14,10.36-2.7,13.53-.32,1.5-.56,2.66-.73,3.52s-.17,1.05-.17,1.05Z"/>
    <path class="cls-9" d="M631.38,846.17c-.32.29-.67.53-1.05.73l-3.17,1.89-11.71,6.78-38.87,22.02-.73-.15h0l-.13-.15-.26-.32-.51-.62-1.01-1.26-2.02-2.49-4.05-5.08-7.44-9.24-12.54-15.67c-3.47-4.42-6.3-8.02-8.38-10.72l-2.14-2.94c-.28-.33-.53-.69-.73-1.07.34.27.64.59.9.94l2.4,2.79,8.58,10.4,12.71,15.54,7.5,9.2,3.94,5.06,2.02,2.49,1.03,1.26.51.62.26.32.13.17h0l-.69-.13,39.02-21.72,11.88-6.43,3.28-1.69c.4-.23.82-.4,1.26-.51Z"/>
    <path class="cls-9" d="M563.38,861.07c.19.24-8.47,6.6-19.3,14.17s-19.79,13.53-19.98,13.27,8.58-6.6,19.3-14.19,19.81-13.44,19.98-13.25Z"/>
    <path class="cls-9" d="M619.57,907.7c-.26.13-5.53-9.18-11.75-20.8-6.22-11.62-11.06-21.18-10.72-21.33s5.53,9.18,11.75,20.8c6.22,11.62,11,21.18,10.72,21.33Z"/>
    <rect class="cls-2" x="269.19" y="460.25" width="56.24" height="81.17" transform="translate(-238.89 728.27) rotate(-82.29)"/>
    <path class="cls-9" d="M333.73,534.11s0-.36.11-1.05.19-1.74.34-2.98c.34-2.66.81-6.43,1.42-11.28,1.26-9.73,3.07-23.58,5.23-40.48l.39.51-80.44-10.72.62-.47h0v.88l-.11.92-.26,1.87-.51,3.71c-.32,2.44-.66,4.89-.99,7.31-.67,4.83-1.31,9.58-1.93,14.26-1.29,9.33-2.51,18.27-3.67,26.74l-.43-.58,57.89,8.08,16.55,2.38,4.44.66,1.14.17h.41-.34l-1.11-.11-4.29-.54-16.49-2.14-58.21-7.63h-.51v-.51c1.14-8.45,2.34-17.41,3.58-26.74.64-4.67,1.26-9.43,1.93-14.26.32-2.42.64-4.87.99-7.31.17-1.24.32-2.47.49-3.71l.26-1.84.13-.94v-.88h0l.62-.47,80.38,10.98h.45v.45c-2.4,16.94-4.29,30.89-5.75,40.74-.69,4.78-1.24,8.58-1.63,11.15-.17,1.22-.32,2.14-.43,2.89-.05.32-.14.64-.26.94Z"/>
    <path class="cls-9" d="M339.84,480.47c-.24.25-.52.48-.81.66l-2.49,1.69-9.24,6.09c-7.83,5.1-18.67,12.07-30.7,19.72l-.73-.11h0l-.13-.11-.21-.26-.45-.49-.88-.99-1.76-1.93-3.43-3.82-6.43-7.2-10.93-12.24c-3.19-3.54-5.57-6.35-7.48-8.49l-1.93-2.32c-.24-.26-.44-.54-.62-.84,0,0,.3.21.79.69l2.14,2.14,7.57,8.08,11.08,12.09,6.43,7.16,3.45,3.79,1.76,1.93.9.99.45.49.21.26v.13h-.71c12.03-7.65,22.94-14.51,30.89-19.45l9.41-5.79,2.59-1.52c.9-.26,1.22-.43,1.24-.39Z"/>
    <path class="cls-9" d="M285.04,495.71c-4.76,4.46-9.77,8.64-15.01,12.52-5.03,4.17-10.29,8.06-15.76,11.64,4.76-4.46,9.77-8.64,15.01-12.52,5.03-4.17,10.29-8.06,15.76-11.64Z"/>
    <path class="cls-9" d="M332.96,531.19c-3.88-5.26-7.46-10.72-10.72-16.38-3.53-5.47-6.76-11.13-9.67-16.96,3.89,5.24,7.47,10.71,10.72,16.38,3.56,5.46,6.79,11.12,9.67,16.96Z"/>
    <rect class="cls-11" x="149.37" y="538.59" width="56.24" height="81.17" transform="translate(-420.26 677.36) rotate(-82.29)"/>
    <path class="cls-9" d="M213.93,612.37c-.02-.35-.02-.7,0-1.05,0-.73.21-1.74.36-2.98.32-2.66.81-6.43,1.42-11.28,1.24-9.73,3.04-23.58,5.23-40.48l.39.51-80.44-10.72.62-.47h0v.88l-.13.94-.26,1.84c-.15,1.24-.32,2.47-.49,3.71-.32,2.44-.66,4.89-.99,7.31-.67,4.83-1.32,9.58-1.95,14.26-1.26,9.33-2.49,18.27-3.64,26.74l-.43-.58,57.89,8.08,16.55,2.38,4.42.66,1.16.17h.41-1.46l-4.29-.54-16.49-2.14-58.42-7.55h-.49v-.51c1.14-8.45,2.34-17.41,3.58-26.74.63-4.67,1.27-9.43,1.93-14.26.32-2.42.64-4.87.99-7.31.15-1.24.32-2.47.49-3.71l.26-1.84v-1.8h0l.64-.47,80.42,10.98h.45v.45c-2.4,16.94-4.29,30.89-5.75,40.74-.71,4.76-1.24,8.58-1.63,11.13l-.45,2.89c.06.25.1.5.11.75Z"/>
    <path class="cls-9" d="M220.04,558.77s-.26.26-.81.66l-2.49,1.69-9.24,6.22c-7.83,5.1-18.67,12.07-30.7,19.72l-.73-.11h0v-.11l-.21-.26-.45-.49-.9-.99-1.76-1.93-3.43-3.82-6.43-7.2-10.91-12.24c-2.98-3.41-5.45-6.24-7.29-8.32-.77-.92-1.42-1.67-1.93-2.32s-.66-.81-.62-.84.3.21.77.69l2.14,2.14,7.55,8.08,10.81,11.9,6.43,7.16,3.45,3.79,1.76,1.93.88.99.45.49.24.26v.13h-.69c12.03-7.65,22.94-14.51,30.87-19.45l9.43-5.79,2.59-1.52c.88-.32,1.2-.49,1.22-.49Z"/>
    <path class="cls-9" d="M165.24,574.05c-4.76,4.45-9.77,8.63-15.01,12.52-5.04,4.17-10.31,8.06-15.78,11.64,4.76-4.46,9.77-8.64,15.01-12.52,5.04-4.17,10.31-8.06,15.78-11.64Z"/>
    <path class="cls-9" d="M213.16,609.54c-3.84-5.26-7.38-10.73-10.61-16.38-3.54-5.47-6.77-11.13-9.67-16.96,3.89,5.25,7.47,10.72,10.72,16.38,3.51,5.46,6.71,11.12,9.56,16.96Z"/>
    <rect class="cls-8" x="235.59" y="745.01" width="98.9" height="68.52" transform="translate(-133.49 62.79) rotate(-10.2)"/>
    <path class="cls-9" d="M339.72,804.25s-.11-.45-.26-1.26l-.71-3.58c-.6-3.17-1.46-7.76-2.55-13.59-2.14-11.75-5.27-28.52-9.05-48.93l.51.36-97.29,17.62c0,.13.84-1.22.45-.64h0v.51l.11.56.19,1.11.41,2.25c.28,1.5.54,3,.81,4.48.54,2.98,1.05,5.92,1.59,8.85,1.06,5.85,2.09,11.56,3.09,17.15,2.02,11.28,3.97,22.13,5.79,32.35l-.6-.41,70.11-12.35,20.07-3.47,5.36-.9,1.39-.21c.16-.01.33-.01.49,0l-.41.11-1.35.26-5.23,1.01-19.92,3.73-70.32,12.86h-.51v-.49c-1.84-10.25-3.82-21.08-5.85-32.35-1.01-5.66-2.14-11.41-3.11-17.26-.54-2.94-1.07-5.87-1.61-8.85-.26-1.48-.54-2.98-.79-4.48l-.41-2.14-.19-1.14v-1.09h0l.47-.66,97.34-17.39h.45v.45c3.6,20.54,6.56,37.46,8.58,49.31.99,5.79,1.76,10.36,2.32,13.53.24,1.5.43,2.66.58,3.52s.06,1.18.06,1.18Z"/>
    <path class="cls-9" d="M326.72,739.76c-.21.37-.46.72-.73,1.05l-2.27,2.89-8.45,10.48-28.26,34.3c-1.42.26-.41,0-.73.11h-.17l-.51-.43-.71-.41-1.39-.79-2.77-1.61-5.42-3.13-10.21-5.92-17.15-10.08-11.66-6.8-3.13-1.93c-.37-.21-.73-.45-1.05-.73.41.12.8.3,1.16.54l3.24,1.74,11.77,6.58,17.37,9.86,10.25,5.87,5.4,3.11,2.79,1.61,1.39.79.71.41.34.19.17.11h0c-.3,0,.73,0-.69.15l28.49-34.13,8.75-10.27,2.42-2.74c.31-.32.67-.6,1.05-.84Z"/>
    <path class="cls-9" d="M268.88,777.97c.26.17-5.51,9.18-12.86,20.09s-13.57,19.64-13.83,19.47,5.53-9.18,12.86-20.09,13.57-19.64,13.83-19.47Z"/>
    <path class="cls-9" d="M337.74,801.14c-.21.24-8.43-6.54-18.37-15.12s-17.84-15.72-17.65-15.95,8.43,6.54,18.37,15.12,17.84,15.72,17.65,15.95Z"/>
    <rect class="cls-11" x="227.24" y="797.93" width="91.27" height="63.23" transform="translate(-15.44 5.24) rotate(-1.07)"/>
    <path class="cls-9" d="M319.05,860.3v-4.55c0-3-.21-7.31-.36-12.86-.26-11.02-.62-26.76-1.09-45.88l.47.43-91.25,1.82c-.13.11,1.03-1.07.54-.56h0v8.47c0,2.79,0,5.55.15,8.3,0,5.49.19,10.89.28,16.19.19,10.59.36,20.73.54,30.34l-.51-.49,65.65-.99,18.8-.21h6.8-1.65l-4.91.15-18.7.49-65.97,1.48h-.51v-.51c-.17-9.61-.39-19.75-.6-30.34-.09-5.3-.19-10.7-.3-16.19,0-2.74,0-5.51-.15-8.3v-8.47h0l.56-.58,91.25-1.61h.45v.45c.28,19.3.49,35.08.64,46.18,0,5.42,0,9.69.11,12.67v3.28c-.02.44-.09.87-.21,1.29Z"/>
    <path class="cls-9" d="M316.65,799.64c-.24.31-.51.6-.81.86l-2.36,2.29-9.24,8.34-30.77,27.16h-.79l-.15-.11-.28-.24-.6-.47-1.14-.94-2.29-1.87c-1.52-1.22-3-2.44-4.46-3.64l-8.45-6.88-14.24-11.73-9.54-7.98-2.55-2.14c-.31-.24-.6-.52-.86-.81.36.17.69.38.99.64l2.7,2.14,9.76,7.7,14.39,11.53,8.58,6.86,4.48,3.62,2.27,1.84,1.16.94.58.47.3.24.15.13h0c-.32,0,.73,0-.71,0l30.96-26.93,9.48-8.06,2.62-2.14c.47-.64.81-.88.84-.84Z"/>
    <path class="cls-9" d="M258.35,825.97c-4.61,5.73-9.5,11.21-14.66,16.44-8.32,8.88-15.24,15.91-15.46,15.69,4.59-5.73,9.48-11.22,14.64-16.44,4.89-5.49,10.06-10.73,15.48-15.69Z"/>
    <path class="cls-9" d="M317.76,857.19c-5.13-5.23-9.99-10.72-14.56-16.44-4.85-5.48-9.43-11.21-13.7-17.15,5.14,5.22,10,10.7,14.56,16.42,4.86,5.48,9.44,11.21,13.7,17.17Z"/>
    <rect class="cls-11" x="337.77" y="825.61" width="59.39" height="85.72" transform="translate(-542.46 1116.1) rotate(-82.29)"/>
    <path class="cls-9" d="M405.96,903.58c.01-.37.05-.75.11-1.11,0-.77.21-1.8.36-3.15.36-2.79.86-6.8,1.5-11.9,1.33-10.27,3.24-24.93,5.55-42.75l.39.51-84.97-11.38.62-.47h0v.92l-.13.99-.28,1.97-.51,3.9c-.36,2.59-.71,5.17-1.05,7.72-.71,5.1-1.37,10.12-2.14,15.01-1.33,9.86-2.64,19.3-3.86,28.24l-.43-.56,61.08,8.58,17.49,2.51,4.65.69,1.22.19h.43-.34l-1.16-.13-4.59-.56-17.41-2.14-61.47-8.06h-.51v-.51c1.2-8.94,2.47-18.4,3.79-28.26.66-4.91,1.33-9.95,2.02-15.01.36-2.55.71-5.12,1.05-7.72.17-1.31.34-2.62.54-3.9l.26-1.97.13-.99v-1.03h0l.64-.49,84.92,11.6h.45v.45c-2.51,17.9-4.59,32.63-6.05,42.88-.73,5.04-1.31,9-1.72,11.77-.19,1.29-.34,2.29-.45,3.04,0,.38-.06.76-.15,1.14Z"/>
    <path class="cls-9" d="M412.42,846.94c-.27.26-.56.49-.88.69l-2.62,1.78-9.76,6.43c-8.28,5.38-19.75,12.74-32.44,20.82h-.73l-.13-.13-.24-.26-.47-.51-.92-1.05-1.87-2.14-3.62-4.01-6.84-7.61-11.53-12.86-7.7-8.79-2.14-2.42c-.27-.26-.49-.57-.66-.9.31.22.59.47.84.75l2.14,2.29,7.95,8.58,11.73,12.86,6.88,7.57,3.64,4.01,1.84,2.04.94,1.05.47.51.24.26.13.13h-.69c12.69-8.08,24.23-15.33,32.61-20.54l9.95-6.13,2.74-1.61c.79-.66,1.09-.84,1.11-.79Z"/>
    <path class="cls-9" d="M354.53,863.04c-5.07,4.68-10.39,9.08-15.93,13.19-5.31,4.41-10.87,8.52-16.64,12.31,5.08-4.67,10.41-9.07,15.95-13.19,5.31-4.4,10.86-8.51,16.62-12.31Z"/>
    <path class="cls-9" d="M405.15,900.5c-4.04-5.57-7.78-11.35-11.19-17.32-3.73-5.77-7.14-11.74-10.23-17.88,4.04,5.53,7.79,11.28,11.21,17.22,3.72,5.81,7.13,11.81,10.21,17.99Z"/>
    <rect class="cls-11" x="263.33" y="844.48" width="63.23" height="91.27" transform="translate(-626.7 1062.98) rotate(-82.29)"/>
    <path class="cls-9" d="M335.92,927.53s0-.43.11-1.18.24-1.93.41-3.34c.36-2.98.9-7.25,1.59-12.67,1.44-10.93,3.45-26.56,5.92-45.52l.39.49-90.45-12.13c-.13.11,1.2-.9.62-.45h0v1.03l-.15,1.03-.28,2.14c-.19,1.39-.36,2.77-.56,4.16-.39,2.77-.75,5.49-1.11,8.21-.75,5.45-1.48,10.72-2.14,16.04-1.44,10.48-2.81,20.56-4.1,30.02l-.45-.56,65.05,9.05,18.61,2.66,4.97.73,1.29.21h.47-.41l-1.24-.15-4.89-.58-18.55-2.38-65.43-8.58h-.51v-.51c1.26-9.52,2.62-19.57,4.03-30.02.71-5.23,1.42-10.59,2.14-16.04.39-2.72.75-5.45,1.11-8.21.19-1.39.39-2.77.56-4.16l.3-2.14.13-1.05v-1.14h0c-.56.41.77-.6.62-.49l90.43,12.35h.45v.43l-6.43,45.73c-.77,5.38-1.37,9.61-1.8,12.54-.21,1.39-.39,2.47-.49,3.26l-.19,1.22Z"/>
    <path class="cls-9" d="M342.78,867.18s-.3.3-.94.73l-2.79,1.91-10.4,6.82-34.48,22.17-.73-.11h0l-.13-.15-.26-.28-.49-.54-1.01-1.11-1.97-2.14-3.86-4.29-7.29-8.08c-4.59-5.17-8.75-9.82-12.29-13.76l-8.43-9.41-2.14-2.57c-.27-.29-.51-.6-.71-.94,0,0,.32.24.88.79l2.34,2.44,8.58,9.09,12.46,13.59,7.33,8.06c1.26,1.42,2.55,2.83,3.88,4.29l1.97,2.14.99,1.11.51.56.26.28.11.13h0c-.32,0,.71.11-.71,0l34.75-21.83,10.59-6.43,2.92-1.72c.32-.29.68-.54,1.05-.75Z"/>
    <path class="cls-9" d="M281.14,884.33c.19.24-7.42,6.43-16.98,14.02-5.67,4.67-11.58,9.06-17.69,13.14,5.43-4.96,11.1-9.64,17-14.02,9.56-7.5,17.49-13.38,17.67-13.14Z"/>
    <path class="cls-9" d="M335.04,924.23c-.26.15-5.57-8.1-11.88-18.46s-11.19-18.89-10.93-19.04c4.29,5.94,8.26,12.1,11.9,18.46,3.95,6.16,7.6,12.51,10.91,19.04Z"/>
    <rect class="cls-8" x="360.55" y="858.77" width="85.72" height="59.39" transform="translate(-150.96 85.48) rotate(-10.2)"/>
    <path class="cls-9" d="M450.82,910.12c-.11-.36-.19-.72-.26-1.09-.15-.75-.34-1.8-.6-3.11-.54-2.77-1.29-6.73-2.14-11.79-1.89-10.18-4.59-24.72-7.85-42.37l.51.34-84.45,15.39c0,.15.84-1.22.45-.64h0v.94l.17.99.34,1.95.71,3.88c.45,2.57.92,5.12,1.37,7.65.9,5.09,1.79,10.09,2.68,15.01,1.76,9.8,3.43,19.19,5.02,28.06l-.6-.41,60.74-10.72,17.41-3,4.67-.77,1.2-.19h.45l-.36.11-1.16.24-4.55.88-17.15,3.24-60.98,11.21-.51.11v-.51c-1.61-8.85-3.3-18.25-5.08-28.04-.88-4.89-1.78-9.88-2.7-15.01-.45-2.55-.92-5.1-1.37-7.68l-.71-3.88-.34-1.95-.19-.96v-.96h0c-.39.56.56-.81.47-.66l84.37-15.01h.45v.45c3.11,17.82,5.66,32.46,7.44,42.75.86,5.02,1.52,8.96,1.99,11.73.21,1.29.39,2.29.49,3.04s.06.81.06.79Z"/>
    <path class="cls-9" d="M439.54,854.23c-.17.33-.38.64-.62.92l-1.95,2.51-7.31,9.11c-6.22,7.65-14.88,18.2-24.46,29.78l-.73.13h-.15l-.3-.17-.6-.36-1.22-.69-2.4-1.39-4.85-2.87-8.85-5.15-15.01-8.75-10.03-6-2.55-1.65c-.32-.18-.63-.39-.9-.64.36.1.69.25,1.01.45l2.81,1.5,10.21,5.68,15.01,8.58c2.83,1.61,5.81,3.3,8.88,5.08l4.7,2.68,2.4,1.39,1.22.69.6.36.3.17h.15l-.71.13c9.61-11.6,18.35-22.04,24.72-29.57l7.59-8.9,2.14-2.38c.6-.41.88-.66.92-.64Z"/>
    <path class="cls-9" d="M389.39,887.35c-3.39,6.01-7.1,11.84-11.11,17.45-3.71,5.82-7.72,11.44-12.03,16.83,3.38-6.01,7.09-11.84,11.11-17.45,3.7-5.82,7.72-11.44,12.03-16.83Z"/>
    <path class="cls-9" d="M449.08,907.44c-5.55-4.06-10.89-8.42-15.97-13.06-5.33-4.34-10.42-8.98-15.24-13.87,5.56,4.05,10.89,8.4,15.97,13.04,5.33,4.36,10.41,8.99,15.24,13.89Z"/>
    <rect class="cls-11" x="167.54" y="806.62" width="53.32" height="76.97" transform="translate(-669.32 924.17) rotate(-82.29)"/>
    <path class="cls-9" d="M228.76,876.63c-.02-.34-.02-.67,0-1.01,0-.71.19-1.65.34-2.83.3-2.55.75-6.13,1.33-10.72,1.18-9.24,2.89-22.4,4.95-38.38l.39.51-76.28-10.23.62-.47h0v1.72l-.26,1.76c-.15,1.18-.3,2.34-.47,3.52-.3,2.32-.62,4.63-.94,6.93-.63,4.59-1.24,9.1-1.82,13.53-1.22,8.83-2.38,17.32-3.47,25.34l-.43-.56,54.82,7.68,15.69,2.14,4.29.62,1.09.19h.39l-1.37-.13-4.12-.49-15.63-1.99-55.23-7.2h-.49v-.51c1.07-8.02,2.14-16.51,3.39-25.36.6-4.42,1.2-8.94,1.82-13.53.32-2.29.62-4.61.94-6.93.15-1.18.3-2.34.47-3.52l.24-1.76.13-.88v-.84h0l.64-.47,76.24,10.42h.45v.45c-2.27,16.06-4.14,29.29-5.45,38.59-.66,4.52-1.18,8.06-1.54,10.57-.19,1.16-.32,2.14-.43,2.74-.07.37-.17.74-.3,1.09Z"/>
    <path class="cls-9" d="M234.55,825.76c-.99.83-2.03,1.58-3.13,2.25l-8.75,5.77c-7.42,4.85-17.71,11.45-29.12,18.72-1.44-.19-.41,0-.73-.13h0v-.13l-.21-.24-.43-.47-.84-.92-1.67-1.84-3.26-3.6-6.13-6.84c-3.86-4.29-7.35-8.28-10.36-11.62s-5.15-5.9-6.9-7.89c-.88-.94-1.68-1.94-2.4-3,.98.82,1.89,1.73,2.72,2.7l7.18,7.65,10.53,11.47,6.17,6.78,3.28,3.6c.54.62,1.09,1.22,1.67,1.84l.84.94.43.45.19.24v.13h-.71c11.41-7.27,21.76-13.76,29.29-18.44l8.94-5.49c1.08-.73,2.21-1.37,3.39-1.93Z"/>
    <path class="cls-9" d="M182.69,840.21c-4.52,4.25-9.28,8.22-14.28,11.9-4.77,3.97-9.78,7.64-15.01,11,4.52-4.24,9.29-8.21,14.28-11.88,4.78-3.97,9.79-7.64,15.01-11.02Z"/>
    <path class="cls-9" d="M228.03,873.93c-3.68-4.96-7.05-10.15-10.1-15.52-3.38-5.17-6.43-10.55-9.13-16.1,3.67,4.97,7.04,10.16,10.1,15.52,3.36,5.18,6.41,10.56,9.13,16.1Z"/>
    <rect class="cls-11" x="768.81" y="499.34" width="39.92" height="38.81" transform="translate(76.15 1137.96) rotate(-74.32)"/>
    <path class="cls-9" d="M802.02,543.18c.03-.26.08-.52.15-.77.15-.56.32-1.26.54-2.14l2.14-7.89c1.84-6.84,4.44-16.38,7.53-27.87l.34.6-37.39-10.42.69-.39h0v.28l-.11.34-.17.64-.36,1.33c-.26.88-.49,1.74-.75,2.59-.47,1.74-.96,3.45-1.44,5.15-.96,3.41-1.89,6.71-2.81,9.95-1.82,6.43-3.56,12.52-5.15,18.1l-.32-.6,26.67,7.95,7.61,2.27,2.02.62.73.26-.66-.13-1.95-.49-7.57-1.99-27.31-7.42-.47-.11.13-.47c1.57-5.6,3.24-11.68,5.04-18.14.9-3.22,1.82-6.54,2.77-9.95.47-1.69.96-3.41,1.44-5.15.26-.86.49-1.74.75-2.59l.36-1.33.17-.64.11-.34v-.28h0l.69-.39,37.61,10.51.47.15-.13.45-8.1,27.87c-.96,3.24-1.74,5.81-2.29,7.72l-.62,1.99c-.09.25-.2.49-.32.73Z"/>
    <path class="cls-9" d="M808.91,520.69c-1.05.73-2.18,1.34-3.37,1.82-2.14,1.07-5.25,2.55-8.98,4.29l-.36.17-.32-.36-6.43-9.43c-3.92-5.77-7.4-11-9.88-14.84-1.43-2.04-2.71-4.19-3.82-6.43,1.64,1.85,3.14,3.82,4.48,5.9,2.64,3.71,6.22,8.88,10.14,14.64l6.43,9.5-.62-.17c3.75-1.63,6.93-2.98,9.15-3.9,1.15-.52,2.35-.91,3.58-1.18Z"/>
    <path class="cls-9" d="M789.67,516.47c-3.71,2.8-7.64,5.29-11.75,7.46-3.93,2.46-8.04,4.61-12.31,6.43,3.71-2.8,7.64-5.29,11.75-7.46,3.93-2.46,8.04-4.61,12.31-6.43Z"/>
    <polygon class="cls-11" points="765.88 511.23 698.71 497.04 688.78 454.29 755.97 468.48 765.88 511.23"/>
    <path class="cls-9" d="M765.85,511.23s0-.28-.21-.81l-.58-2.27c-.49-2.14-1.2-4.95-2.14-8.58-1.8-7.44-4.29-18.03-7.44-30.94l.34.32-67.15-14.11c-.15.13,1.24-1.29.66-.69h0v.66l.17.71.32,1.42.66,2.83,1.29,5.57c.86,3.69,1.7,7.33,2.53,10.91,1.63,7.16,3.24,14.04,4.74,20.63l-.39-.39,48.13,10.46,13.87,3.07,3.73.84,1.33.32-1.2-.19-3.62-.73-13.79-2.77-48.67-9.99h-.32v-.32c-1.52-6.59-3.12-13.46-4.8-20.63-.84-3.56-1.67-7.2-2.53-10.89-.43-1.84-.88-3.71-1.31-5.6l-.64-2.81-.17-1.42-.15-.71v-.66h0c-.58.6.79-.81.66-.66l67.15,14.3h.28v.26c2.92,13.1,5.32,23.84,7.01,31.41.79,3.62,1.42,6.43,1.87,8.58.19.92.36,1.63.47,2.14,0,.25-.05.49-.11.73Z"/>
    <path class="cls-9" d="M755.97,468.48c-.57.56-1.2,1.07-1.87,1.52l-5.4,3.9c-4.57,3.28-11.04,7.87-18.52,13.1l-.32.21-.3-.24-8.13-6.43c-9.13-7.16-17.37-13.68-23.28-18.46l-6.97-5.68c-.88-.65-1.7-1.36-2.47-2.14.97.53,1.89,1.15,2.74,1.87l7.18,5.4c6.05,4.61,14.34,11.04,23.48,18.2l8.1,6.43h-.64c7.5-5.17,14.04-9.63,18.74-12.86l5.53-3.64c.66-.48,1.37-.88,2.12-1.18Z"/>
    <path class="cls-9" d="M718.69,479.2c-2.93,3.37-6.14,6.5-9.58,9.35-3.2,3.14-6.66,6.01-10.33,8.58,6.14-6.49,12.8-12.45,19.92-17.84v-.09Z"/>
    <path class="cls-9" d="M765.85,511.23c-5.11-4.62-9.98-9.51-14.58-14.64-4.87-4.9-9.48-10.06-13.81-15.46,5.13,4.63,10.01,9.53,14.62,14.69,4.86,4.88,9.46,10.03,13.76,15.42Z"/>
    <polygon class="cls-5" points="745.4 569.12 691.14 557.65 683.14 523.11 737.4 534.58 745.4 569.12"/>
    <path class="cls-2" d="M737.4,534.58c-.44.47-.94.89-1.48,1.24l-4.29,3.19c-3.69,2.68-8.92,6.43-15.01,10.61l-.32.21-.32-.24-6.56-5.12c-7.38-5.79-14-11.06-18.78-15.01l-5.6-4.63c-.73-.53-1.39-1.14-1.97-1.82.76.42,1.48.91,2.14,1.48l5.83,4.29c4.89,3.71,11.6,8.88,18.97,14.66l6.54,5.15h-.64c6.07-4.18,11.36-7.76,15.16-10.29,1.78-1.14,3.26-2.14,4.48-2.92.57-.36,1.19-.63,1.84-.81Z"/>
    <path class="cls-2" d="M707.24,543.24c-2.3,2.8-4.87,5.35-7.68,7.63-2.56,2.55-5.39,4.82-8.43,6.78,2.3-2.79,4.87-5.34,7.68-7.61,2.57-2.55,5.39-4.83,8.43-6.8Z"/>
    <path class="cls-2" d="M745.42,569.12c-4.23-3.66-8.21-7.59-11.9-11.79-3.96-3.94-7.65-8.14-11.06-12.56,4.22,3.66,8.19,7.6,11.88,11.79,3.97,3.94,7.67,8.14,11.08,12.56Z"/>
    <polygon class="cls-11" points="676.77 560.52 609.6 546.33 599.7 503.56 666.87 517.75 676.77 560.52"/>
    <path class="cls-9" d="M676.77,560.52s0-.3-.21-.81l-.58-2.29c-.49-2.14-1.2-4.95-2.14-8.58-1.78-7.46-4.29-18.05-7.44-30.96l.34.32-67.21-14.06c-.13.13,1.24-1.29.66-.66h0v.66l.15.71.34,1.42.64,2.83,1.29,5.57c.86,3.71,1.69,7.33,2.53,10.91,1.65,7.16,3.24,14.06,4.74,20.63l-.39-.39,48.13,10.46,13.89,3.07,3.73.84c.44.09.88.2,1.31.34l-1.2-.21-3.62-.71-13.79-2.79-48.67-9.99h-.32v-.32c-1.54-6.56-3.15-13.46-4.82-20.6-.83-3.57-1.67-7.21-2.53-10.91-.43-1.84-.86-3.71-1.31-5.57l-.64-2.83-.32-1.42-.17-.71v-.66h0l.66-.66,67.15,14.3h.28v.28c2.94,13.08,5.34,23.82,7.01,31.39.79,3.64,1.44,6.43,1.89,8.58.19.92.34,1.65.45,2.14.08.23.14.47.17.71Z"/>
    <path class="cls-9" d="M666.87,517.75c-.56.57-1.18,1.08-1.84,1.52l-5.36,3.9c-4.57,3.3-11.04,7.87-18.5,13.1l-.34.24-.3-.26-8.13-6.43c-9.13-7.16-17.34-13.68-23.26-18.44l-6.99-5.7c-.89-.63-1.71-1.35-2.44-2.14.96.54,1.87,1.16,2.72,1.87,1.87,1.39,4.29,3.22,7.18,5.42,6.05,4.61,14.34,11.02,23.48,18.18l8.1,6.43h-.64c7.5-5.17,14.04-9.63,18.74-12.76l5.53-3.64c.65-.49,1.33-.92,2.06-1.29Z"/>
    <path class="cls-9" d="M629.52,528.49c-2.94,3.36-6.15,6.47-9.58,9.33-3.2,3.14-6.66,6-10.33,8.58,2.92-3.38,6.13-6.51,9.58-9.35,3.2-3.14,6.65-6,10.33-8.55Z"/>
    <path class="cls-9" d="M676.77,560.52c-5.12-4.65-9.99-9.56-14.6-14.71-4.87-4.9-9.47-10.06-13.81-15.44,5.14,4.62,10.03,9.52,14.62,14.69,4.88,4.89,9.48,10.05,13.79,15.46Z"/>
    <polygon class="cls-2" points="738.05 545.88 652.05 527.7 639.38 472.99 725.35 491.14 738.05 545.88"/>
    <path class="cls-9" d="M737.98,545.9s0-.36-.28-1.03l-.71-2.92c-.64-2.59-1.52-6.3-2.66-11.02-2.27-9.5-5.51-23.09-9.48-39.66l.34.32-85.85-18.07.64-.66h0v.39l.11.45.21.9.41,1.82.84,3.6c.56,2.4,1.11,4.78,1.65,7.14,1.09,4.74,2.14,9.39,3.24,13.98,2.14,9.15,4.14,17.99,6.09,26.39l-.41-.39,61.68,13.31,17.73,3.94,4.76,1.07,1.22.28c.16.02.31.06.45.13h-.39l-1.18-.24-4.65-.92-17.67-3.6-62.18-12.86h-.3v-.32c-1.95-8.4-4.01-17.15-6.15-26.39-1.05-4.57-2.14-9.22-3.24-13.96-.56-2.36-1.09-4.74-1.65-7.14l-.84-3.6-.43-1.82-.21-.9-.11-.45v-.34h0l.66-.69,85.95,18.29h.28v.26c3.77,16.77,6.88,30.51,9.05,40.14,1.03,4.67,1.84,8.36,2.42,10.93.26,1.2.47,2.14.62,2.83.02.27.02.54,0,.81Z"/>
    <path class="cls-9" d="M725.35,491.14c-.75.69-1.56,1.32-2.4,1.89l-6.86,4.97-23.73,16.72-.32.21-.32-.24c-3.28-2.57-6.78-5.32-10.4-8.13-11.66-9.15-22.21-17.49-29.8-23.58l-8.96-7.25-2.38-2.02c-.3-.21-.58-.45-.81-.73,0,0,.34.17.92.58l2.53,1.84,9.18,6.97c7.72,5.92,18.33,14.17,30.02,23.33l10.36,8.15h-.64l23.97-16.4,7.03-4.7c.83-.61,1.71-1.16,2.64-1.63Z"/>
    <path class="cls-9" d="M677.54,504.89c-3.87,4.2-8,8.14-12.37,11.81-4.12,3.95-8.51,7.63-13.12,11,3.88-4.19,8.01-8.15,12.37-11.83,4.14-3.93,8.52-7.6,13.12-10.98Z"/>
    <path class="cls-9" d="M737.98,545.9c-.24.19-8.58-8.25-18.59-18.91-10.01-10.66-18.01-19.47-17.77-19.68s8.58,8.25,18.59,18.91c10.01,10.66,18.05,19.45,17.77,19.68Z"/>
    <polygon class="cls-2" points="579.31 511.66 502.72 495.5 491.42 446.74 568.01 462.93 579.31 511.66"/>
    <path class="cls-9" d="M579.33,511.6c-.11-.29-.19-.59-.26-.9-.15-.66-.36-1.52-.64-2.59-.56-2.34-1.37-5.64-2.38-9.82-2.04-8.58-4.93-20.58-8.45-35.31l.32.32-76.5-16.02.64-.66h0v.39l.11.41.19.81.36,1.61.75,3.22c.49,2.14.99,4.29,1.46,6.43.99,4.29,1.95,8.36,2.89,12.44,1.87,8.15,3.69,16.02,5.4,23.58l-.39-.39,54.91,11.9,15.82,3.47,4.29.94,1.09.26h.41l-1.39-.24-4.14-.81-15.74-3.19-55.42-11.43h-.32v-.32c-1.74-7.48-3.58-15.35-5.47-23.58l-2.89-12.44-1.48-6.43-.75-3.22-.36-1.61-.19-.81v-.62h0l.66-.69,76.56,16.29h.28v.26c3.34,15.01,6.09,27.19,8.02,35.76.92,4.16,1.63,7.44,2.14,9.76l.56,2.51c-.11.54-.11.73-.11.73Z"/>
    <path class="cls-9" d="M568.01,462.93c-.67.63-1.39,1.2-2.14,1.72l-6.09,4.42-21.14,15.01-.32.21-.32-.24-9.24-7.25c-10.4-8.15-19.79-15.59-26.54-21.01l-7.95-6.43c-1.01-.76-1.96-1.6-2.83-2.51,1.08.64,2.11,1.36,3.09,2.14l8.19,6.17c6.88,5.27,16.34,12.61,26.74,20.75l9.24,7.27h-.64l21.33-14.58,6.3-4.29c.74-.53,1.52-.99,2.34-1.39Z"/>
    <path class="cls-9" d="M525.43,475.15c-3.41,3.77-7.08,7.3-10.98,10.57-3.67,3.53-7.59,6.79-11.73,9.76,7.05-7.33,14.64-14.13,22.7-20.33Z"/>
    <path class="cls-9" d="M579.33,511.6c-.24.21-7.65-7.31-16.62-16.79-8.96-9.48-15.99-17.34-15.78-17.56s7.65,7.31,16.59,16.79c8.94,9.48,15.99,17.43,15.8,17.56Z"/>
    <polygon class="cls-2" points="473.2 574.74 417.09 629.33 370.31 611.55 426.42 556.97 473.2 574.74"/>
    <path class="cls-9" d="M473.2,574.74l-.9-.3-2.53-.92-9.48-3.47-34.03-12.67h.47l-56.02,54.56c0,.21-.36-1.74-.19-.9h.19l.39.15.77.3,1.54.58,3.09,1.18,6.11,2.32,11.92,4.55,22.55,8.58-.56.11c16.49-15.84,30.51-29.35,40.48-38.96l11.68-11.21,3.15-2.98.84-.79.32-.26s-.32.34-.99,1.01l-2.98,2.98-11.41,11.3-40.37,39.66-.24.24-.3-.13-22.58-8.58-11.75-4.42-6.09-2.14-3.09-1.18-1.54-.58-.79-.3-.39-.15h-.36c.15.84-.26-1.11-.19-.92l56.17-54.76.19-.19.28.11,34.15,13.25,9.28,3.64,2.4.94.77.36Z"/>
    <path class="cls-9" d="M426.42,556.97c.16.9.24,1.81.24,2.72,0,1.93.17,4.46.28,7.53.15,6.62.36,15.59.62,25.86v.41l-.39.11-11.17,3.77c-12.56,4.1-23.95,7.74-32.16,10.33l-9.82,3c-1.18.41-2.39.73-3.62.96,1.12-.56,2.29-1.02,3.49-1.37l9.71-3.34c8.19-2.79,19.55-6.56,32.16-10.72l11.19-3.62-.39.54c0-10.27-.17-19.3-.21-25.86v-7.55c-.06-.92-.04-1.85.06-2.77Z"/>
    <path class="cls-9" d="M412.85,599.14c1.26,4.93,2.16,9.95,2.68,15.01.89,5.01,1.42,10.09,1.57,15.18-1.25-4.93-2.15-9.95-2.68-15.01-.88-5.02-1.4-10.09-1.57-15.18Z"/>
    <path class="cls-9" d="M473.2,574.74c0,.3-10.33,2.29-23.2,4.42-12.86,2.12-23.33,3.64-23.39,3.32s10.33-2.27,23.2-4.42,23.33-3.62,23.39-3.32Z"/>
    <polygon class="cls-2" points="352.24 641.7 296.13 696.28 249.37 678.51 305.45 623.92 352.24 641.7"/>
    <path class="cls-9" d="M352.24,641.7l-.9-.3-2.51-.92-9.48-3.47-34.05-12.67h.47l-56.02,54.5c0,.21-.36-1.74-.19-.9h.3l.39.15.77.3,1.54.58,3.09,1.18,6.11,2.32,11.92,4.55,22.55,8.58-.54.13,40.46-38.98,11.71-11.21,3.15-2.98.81-.77c.09-.11.2-.2.32-.28-.31.36-.64.69-.99,1.01l-2.98,2.98-11.41,11.3-40.37,39.66-.24.24-.3-.13-22.58-8.58-11.92-4.52-6.11-2.32-3.09-1.18-1.54-.58-.79-.3-.39-.15h-.3c.15.84-.24-1.11-.19-.92l56.17-54.5.21-.19.26.11,34.18,13.25,9.26,3.64,2.4.94c.28.13.54.28.79.45Z"/>
    <path class="cls-9" d="M305.45,623.92c.16.9.24,1.81.24,2.72,0,1.93.17,4.46.28,7.53.17,6.62.36,15.59.62,25.86v.41l-.39.11-11.15,3.67c-12.59,4.1-23.97,7.74-32.16,10.33l-9.8,3c-1.19.41-2.41.73-3.64.96,1.12-.55,2.29-1.01,3.49-1.37l9.71-3.34c8.19-2.79,19.55-6.56,32.16-10.72l11.17-3.62-.39.54c0-10.27-.15-19.3-.21-25.86v-7.55c-.06-.89-.04-1.78.06-2.66Z"/>
    <path class="cls-9" d="M291.9,666.09c1.25,4.93,2.14,9.95,2.66,15.01.89,5.01,1.42,10.09,1.57,15.18-1.25-4.93-2.14-9.95-2.66-15.01-.91-5.01-1.43-10.09-1.57-15.18Z"/>
    <path class="cls-9" d="M352.24,641.7c0,.3-10.33,2.29-23.2,4.42-12.86,2.12-23.33,3.64-23.39,3.32s10.33-2.27,23.2-4.42,23.35-3.62,23.39-3.32Z"/>
    <polygon class="cls-11" points="618.03 481.24 541.01 464.97 529.67 415.96 606.66 432.23 618.03 481.24"/>
    <path class="cls-9" d="M618.03,481.24c-.1-.3-.19-.61-.26-.92-.15-.66-.36-1.52-.64-2.62-.58-2.34-1.37-5.66-2.4-9.86-2.04-8.58-4.95-20.69-8.58-35.5l.34.32-77.03-16.14c-.15.13,1.24-1.29.66-.66h0v.36l.11.41.17.81.39,1.63.75,3.22c.49,2.14.99,4.29,1.48,6.43.99,4.29,1.95,8.4,2.89,12.5l5.45,23.58-.41-.39,55.21,11.94,15.91,3.49,4.29.96,1.11.26.41.11-1.39-.26-4.16-.81-15.82-3.22-55.74-11.49h-.32v-.32l-5.51-23.58c-.94-4.12-1.93-8.28-2.89-12.52-.49-2.14-1.01-4.29-1.5-6.43l-.75-3.24-.36-1.61-.19-.81v-.77h0c-.58.6.81-.81.66-.66l76.97,16.38h.28v.26l8.06,35.95,2.14,9.8c.24,1.05.41,1.89.56,2.53.06.29.11.58.13.88Z"/>
    <path class="cls-9" d="M606.66,432.27c-.67.63-1.39,1.2-2.14,1.72l-6.13,4.46-21.25,15.01-.32.24-.32-.26-9.3-7.27c-10.46-8.21-19.9-15.67-26.67-21.14l-8.02-6.43c-1.02-.75-1.96-1.59-2.83-2.51,1.09.64,2.13,1.35,3.11,2.14l8.21,6.22c6.93,5.3,16.42,12.67,26.89,20.88l9.28,7.29h-.64l21.44-14.66,6.32-4.29c.75-.54,1.54-1.01,2.38-1.39Z"/>
    <path class="cls-9" d="M563.85,444.53c-3.42,3.83-7.11,7.41-11.04,10.72-3.68,3.55-7.63,6.83-11.79,9.8,3.42-3.84,7.11-7.42,11.04-10.72,3.68-3.55,7.63-6.83,11.79-9.8Z"/>
    <path class="cls-9" d="M618.03,481.24c-.24.21-7.7-7.35-16.7-16.89-9-9.54-16.1-17.45-15.87-17.67s7.7,7.35,16.68,16.89c8.98,9.54,16.1,17.45,15.89,17.67Z"/>
    <polygon class="cls-11" points="791.39 568.39 726.21 566.25 709.88 527.91 775.03 530.06 791.39 568.39"/>
    <path class="cls-9" d="M791.39,568.39c-.14-.23-.26-.46-.36-.71l-.9-2.14c-.81-1.87-1.97-4.44-3.41-7.72l-12.09-27.7.39.28-65.16-2.04.54-.77h0v.17l.15.32.26.62.54,1.29,1.09,2.51,2.14,5.02c1.42,3.3,2.81,6.58,4.16,9.78l7.87,18.5-.47-.32,46.72,1.82,13.51.58,3.62.17h1.31c-.39.02-.77.02-1.16,0h-3.52l-13.36-.32-47.17-1.26h-.34l-.13-.3c-2.51-5.9-5.17-12.07-7.91-18.48l-4.29-9.78-2.14-5-1.07-2.53-.56-1.26-.26-.64-.15-.32v-.28h0l.54-.79,65.16,2.27h.28l.11.26c4.89,11.77,8.92,21.44,11.75,28.21,1.35,3.26,2.4,5.83,3.15,7.68l.81,1.97.36.92Z"/>
    <path class="cls-9" d="M775.03,530.06c-.42.64-.92,1.22-1.48,1.74l-4.29,4.55c-3.73,3.84-9.03,9.2-15.14,15.31l-.28.3-.36-.19-8.58-4.59c-9.71-5.19-18.48-9.93-24.81-13.4l-7.46-4.18c-.94-.46-1.83-1.02-2.66-1.67.99.35,1.95.78,2.87,1.29l7.61,3.86c6.43,3.3,15.24,7.93,24.96,13.12l8.58,4.61-.64.11c6.17-6.09,11.56-11.34,15.42-15.01l4.57-4.29c.51-.57,1.08-1.09,1.69-1.54Z"/>
    <path class="cls-9" d="M741.88,546.29c-2.16,3.65-4.64,7.11-7.4,10.33-2.47,3.45-5.24,6.67-8.28,9.63,2.17-3.65,4.64-7.1,7.4-10.33,2.47-3.44,5.24-6.66,8.28-9.63Z"/>
    <path class="cls-9" d="M791.39,568.39c-5.59-3.45-10.97-7.21-16.12-11.28-5.37-3.77-10.53-7.84-15.44-12.2,5.57,3.47,10.94,7.24,16.1,11.3,5.37,3.77,10.54,7.84,15.46,12.18Z"/>
    <polygon class="cls-11" points="580.91 571.63 515.76 569.49 499.4 531.15 564.56 533.3 580.91 571.63"/>
    <path class="cls-9" d="M580.91,571.63c-.13-.23-.24-.47-.34-.71l-.92-2.04-3.41-7.72c-2.92-6.67-7.03-16.14-12.09-27.7l.41.28-65.16-2.04c-.13.17.99-1.46.51-.77h0v.17l.15.32.26.62.56,1.29,1.07,2.51,2.14,5.02,4.18,9.78,7.85,18.5-.45-.32,46.72,1.82,13.49.58,3.62.17h1.31c-.39.03-.77.03-1.16,0h-3.52l-13.34-.3-47.17-1.29h-.32l-.13-.3-7.91-18.48-4.18-9.78c-.71-1.65-1.42-3.32-2.14-5l-1.07-2.53-.54-1.26-.28-.64-.13-.32v-.28h0l.54-.79,65.16,2.27h.28l.11.26,11.75,28.21c1.35,3.26,2.4,5.83,3.17,7.68l.79,1.97c.08.27.15.54.19.81Z"/>
    <path class="cls-9" d="M564.56,533.3s-.47.66-1.46,1.74l-4.29,4.55c-3.73,3.84-9.03,9.2-15.14,15.31l-.28.3-.36-.19-8.58-4.59c-9.71-5.19-18.48-9.93-24.81-13.4l-7.46-4.29c-.94-.47-1.83-1.03-2.66-1.67.99.35,1.95.78,2.87,1.29l7.63,3.86c6.43,3.3,15.22,7.93,24.96,13.12l8.58,4.61h-.64c6.17-6.09,11.56-11.34,15.42-15.01l4.57-4.29c.51-.49,1.06-.94,1.65-1.33Z"/>
    <path class="cls-9" d="M531.41,549.53c-4.61,7.11-9.84,13.79-15.65,19.96,2.16-3.65,4.63-7.1,7.4-10.31,2.46-3.45,5.22-6.68,8.25-9.65Z"/>
    <path class="cls-9" d="M580.91,571.63c-5.58-3.44-10.96-7.21-16.1-11.28-5.38-3.77-10.54-7.85-15.46-12.2,5.58,3.47,10.96,7.24,16.12,11.3,5.37,3.77,10.52,7.84,15.44,12.18Z"/>
    <polygon class="cls-11" points="479.52 561.62 395.29 567.21 369.28 519.92 453.54 514.3 479.52 561.62"/>
    <path class="cls-9" d="M479.52,561.62s-.19-.3-.51-.88l-1.42-2.51-5.34-9.48-19.1-34.3.41.24-84.24,5.72c-.11.17.86-1.57.45-.81h0l.11.21.21.39.43.79.86,1.57,1.72,3.11c1.13,2.07,2.27,4.13,3.41,6.17l6.6,12.07c4.29,7.91,8.58,15.57,12.52,22.83l-.49-.28,60.61-3.41,17.45-1.03,4.67-.26h1.65-1.5l-4.55.34-17.28,1.29-60.89,4.29h-.36l-.15-.28-12.56-22.79-6.58-12.01-3.39-6.17-1.72-3.11-.86-1.57-.43-.79-.24-.39-.11-.21h0c-.41.73.54-1.01.45-.84l84.26-5.49h.28l.13.26c7.87,14.51,14.3,26.41,18.8,34.75l5.1,9.48c.54,1.05.96,1.84,1.29,2.47.11.2.21.41.3.62Z"/>
    <path class="cls-9" d="M453.54,514.32c-.51.83-1.09,1.63-1.72,2.38l-5.06,6.43-17.58,21.65-.26.32-.36-.15-11.73-4.82c-13.19-5.42-25.11-10.38-33.7-14.04l-10.16-4.29-2.74-1.24c-.34-.12-.65-.29-.94-.49.36.04.7.15,1.03.3l2.81,1.05,10.31,4.03c8.68,3.47,20.65,8.32,33.83,13.74l11.71,4.85-.62.15,17.88-21.44,5.3-6.17c.61-.81,1.28-1.56,2.02-2.25Z"/>
    <path class="cls-9" d="M412.91,539.47c-2.45,4.91-5.24,9.64-8.34,14.17-2.78,4.73-5.88,9.27-9.28,13.57,2.47-4.9,5.25-9.64,8.34-14.17,2.78-4.73,5.88-9.27,9.28-13.57Z"/>
    <path class="cls-9" d="M479.52,561.62c-.15.26-10.06-5.38-22.13-12.63s-21.7-13.31-21.44-13.57,10.06,5.38,22.13,12.63,21.61,13.31,21.44,13.57Z"/>
    <rect class="cls-11" x="446.25" y="846.66" width="59.39" height="85.72" transform="translate(-420.13 1353) rotate(-89.2)"/>
    <path class="cls-9" d="M518.35,919.73v-16.27c0-10.38.21-25.15.36-43.12l.45.45-85.76-1.07c-.13.11,1.05-1.05.56-.54h0v7.83c0,2.62,0,5.21-.11,7.78,0,5.15-.15,10.23-.24,15.2-.15,9.95-.3,19.49-.43,28.49l-.49-.51,61.66,1.11,17.67.36,4.72.13h1.65-6.15l-17.56-.11-62.05-.51h-.51v-.51c.11-9,.24-18.55.34-28.49,0-4.97.15-10.03.21-15.2v-15.63h0c-.51.49.69-.69.58-.56l85.76,1.29h.45v.45c-.36,18.07-.64,32.93-.84,43.37-.13,5.08-.21,9.09-.28,11.9,0,1.29,0,2.32-.11,3.09.07.35.11.71.11,1.07Z"/>
    <path class="cls-9" d="M517.95,862.7s-.24.3-.77.79l-2.4,2.14-8.92,7.55c-7.57,6.32-18.05,15.01-29.69,24.57h-.92l-.26-.24-.54-.45-1.05-.92-2.14-1.82-4.07-3.56c-2.67-2.32-5.25-4.56-7.72-6.73-4.87-4.29-9.26-8.15-12.99-11.45l-8.64-8.06-2.34-2.14c-.51-.49-.79-.77-.77-.81.34.17.65.39.92.64l2.47,2.02,8.94,7.53,13.16,11.26,7.74,6.69,4.1,3.54,2.14,1.82,1.05.9.54.47.26.21.13.13h-.66c11.64-9.56,22.21-18.14,29.91-24.33l9.13-7.27,2.53-1.93c.27-.21.57-.39.88-.54Z"/>
    <path class="cls-9" d="M462.42,885.66c-4.47,5.26-9.22,10.27-14.24,15.01-4.74,5.02-9.75,9.77-15.01,14.24,4.47-5.25,9.23-10.26,14.24-15.01,4.75-5.01,9.76-9.76,15.01-14.24Z"/>
    <path class="cls-9" d="M517.15,916.81c-4.67-5.04-9.07-10.33-13.19-15.84-4.41-5.28-8.52-10.81-12.31-16.55,4.67,5.05,9.07,10.33,13.19,15.84,4.4,5.29,8.51,10.81,12.31,16.55Z"/>
    <rect class="cls-11" x="438.88" y="909.75" width="29.76" height="85.72" transform="translate(-505.09 1393.03) rotate(-89.2)"/>
    <path class="cls-9" d="M496.38,968.01v-8.02c0-5.17,0-12.54.11-21.74l.36.36-85.76-1.01.56-.54h0v15.2c0,4.97-.13,9.82-.21,14.49l-.51-.54,61.21,1.09,17.92.41,4.85.13h1.26c.15-.03.3-.03.45,0h-24.14l-61.58-.6h-.54v-.54c0-4.7.06-9.54.19-14.51v-15.22h0l.58-.56,85.76,1.37h.36v.45c-.21,9.3-.39,16.74-.51,21.98,0,2.47-.13,4.42-.17,5.81v1.48c-.04.17-.11.34-.19.49Z"/>
    <path class="cls-9" d="M495.56,939.43c-1.02.59-2.09,1.1-3.19,1.52l-8.92,3.73c-7.55,3.17-17.99,7.5-29.57,12.2h-.64l-.26-.11-.54-.24-1.07-.47-2.14-.92-4.12-1.89-7.76-3.43-13.12-5.9-8.81-4.05c-1.09-.46-2.15-1-3.15-1.63,1.15.31,2.27.71,3.34,1.22l8.94,3.73,13.27,5.77,7.78,3.39,4.12,1.8,2.14.92,1.07.45.54.24.26.13h.15-.3c11.56-4.7,22.06-8.9,29.67-11.9l9.05-3.47c1.05-.46,2.14-.83,3.26-1.09Z"/>
    <path class="cls-9" d="M440.2,950.54c-4.58,2.9-9.35,5.48-14.28,7.72-4.76,2.59-9.7,4.84-14.77,6.73,4.58-2.89,9.35-5.47,14.28-7.72,4.77-2.58,9.7-4.83,14.77-6.73Z"/>
    <path class="cls-9" d="M495.18,966.51c-4.57-2.26-8.97-4.85-13.16-7.74-4.39-2.55-8.59-5.42-12.56-8.58,4.57,2.25,8.97,4.83,13.16,7.72,4.39,2.56,8.59,5.44,12.56,8.6Z"/>
    <rect class="cls-8" x="188.16" y="913.67" width="29.76" height="85.72" transform="translate(-756.23 1146.19) rotate(-89.2)"/>
    <path class="cls-9" d="M245.66,971.93v-29.69l.36.36-85.76-1.01c-.51.49.66-.66.56-.54h0v15.2c-.09,4.97-.16,9.81-.21,14.51l-.54-.56,61.21,1.09,17.92.41,4.85.13h1.72c-.53.03-1.06.03-1.59,0h-22.53l-61.6-.62h-.54v-.54c0-4.69.06-9.53.19-14.51v-15.22h0l.56-.56,85.76,1.39h.36v.36c-.21,9.3-.39,16.74-.51,21.98,0,2.47-.13,4.42-.17,5.81v1.48c0,.36-.02.51-.04.51Z"/>
    <path class="cls-9" d="M244.87,943.36c-1.04.59-2.11,1.1-3.22,1.54l-8.92,3.79c-7.55,3.19-17.99,7.5-29.57,12.2h-.62l-.28-.13-.54-.24-1.05-.47-2.14-.92-4.12-1.8-7.76-3.45-13.12-5.9-8.79-4.05c-1.1-.46-2.16-1.01-3.17-1.63,1.15.31,2.27.71,3.34,1.22l8.94,3.73,13.12,5.57,7.8,3.39,4.1,1.8,2.14.92,1.05.45.54.24.28.13h.13-.3c11.56-4.7,22.06-8.9,29.67-11.9l9.05-3.47c1.11-.46,2.26-.8,3.43-1.03Z"/>
    <path class="cls-9" d="M189.49,954.46c-4.57,2.91-9.35,5.49-14.28,7.74-4.76,2.58-9.7,4.82-14.77,6.71,4.58-2.89,9.35-5.47,14.28-7.72,4.77-2.58,9.7-4.83,14.77-6.73Z"/>
    <path class="cls-9" d="M244.46,970.41c-4.57-2.26-8.97-4.85-13.16-7.74-4.39-2.56-8.58-5.42-12.56-8.58,4.61,2.25,9.04,4.84,13.27,7.74,4.35,2.55,8.52,5.42,12.46,8.58Z"/>
    <rect class="cls-11" x="507.06" y="871.07" width="72.3" height="50.08" transform="translate(-189.75 147.21) rotate(-13.16)"/>
    <path class="cls-9" d="M584.15,912.22c-.11-.29-.19-.59-.26-.9l-.66-2.59-2.42-9.84c-2.14-8.58-4.97-20.63-8.58-35.33l.56.34-70.37,16.57c0,.15.77-1.26.41-.66h0v.34l.11.41.17.81.39,1.63c.26,1.09.51,2.14.75,3.24.51,2.14,1.01,4.29,1.5,6.43.99,4.29,1.96,8.45,2.92,12.48,1.89,8.17,3.71,16.02,5.45,23.41l-.62-.39,50.68-11.58,14.54-3.28,3.9-.84,1.39-.28c-.4.16-.82.28-1.24.36l-3.77.94-14.39,3.49-50.88,12.16-.49.13-.13-.49c-1.74-7.4-3.58-15.24-5.51-23.39-.94-4.1-1.93-8.25-2.92-12.5-.49-2.14-1.01-4.29-1.5-6.43-.26-1.07-.51-2.14-.75-3.24l-.39-1.63-.19-.81-.11-.41v-.39h0l.43-.69,70.41-16.36.45-.11v.45c3.39,14.86,6.15,27.1,8.1,35.7.94,4.18,1.67,7.46,2.14,9.8l.54,2.53c.13.29.25.59.34.9Z"/>
    <path class="cls-9" d="M572.21,865.66c-.58,1.06-1.24,2.07-1.97,3.02-1.48,2.04-3.41,4.74-5.75,8-4.89,6.73-11.71,15.99-19.3,26.18-1.39.32-.39,0-.71.15h-.13l-.26-.13-.54-.28-1.05-.54-2.14-1.05-4.05-2.14-7.68-3.94-12.97-6.75-8.7-4.63c-1.08-.52-2.12-1.13-3.11-1.82,1.14.4,2.25.88,3.32,1.44l8.85,4.29,13.08,6.54,7.7,3.88,4.07,2.14,2.14,1.05,1.05.54.54.26.26.15h.15l-.69.15c7.59-10.16,14.51-19.3,19.55-25.96,2.47-3.17,4.48-5.81,6.02-7.78.68-.98,1.45-1.9,2.29-2.74Z"/>
    <path class="cls-9" d="M531.43,895.74c-2.54,5.25-5.41,10.33-8.58,15.22-2.84,5.08-6.01,9.97-9.48,14.64,2.52-5.26,5.39-10.34,8.58-15.22,2.84-5.08,6.01-9.97,9.48-14.64Z"/>
    <path class="cls-9" d="M582.59,910.04c-4.91-3.09-9.62-6.5-14.09-10.21-4.69-3.41-9.16-7.12-13.38-11.11,4.9,3.11,9.59,6.53,14.06,10.23,4.69,3.41,9.17,7.11,13.4,11.08Z"/>
    <rect class="cls-11" x="163.13" y="863.29" width="91.27" height="63.23" transform="translate(-198.26 71.03) rotate(-13.16)"/>
    <path class="cls-9" d="M260.43,915.29s-.13-.41-.32-1.16-.47-1.87-.81-3.26c-.71-2.92-1.72-7.1-3.02-12.41-2.55-10.72-6.22-26.03-10.72-44.64l.54.34-88.83,20.88c0,.15.77-1.26.41-.66h0v.45l.13.51.24,1.03.49,2.14c.3,1.37.62,2.72.94,4.07.64,2.72,1.26,5.42,1.89,8.08l3.67,15.76c2.66,10.38,4.8,20.18,6.95,29.52l-.6-.39,64-14.71,18.33-4.14,4.91-1.09,1.29-.28h.45l-.39.13-1.2.3-4.78,1.18-18.18,4.29-64.21,15.27-.49.13v-.49c-2.14-9.35-4.52-19.3-6.95-29.54-1.2-5.15-2.44-10.42-3.69-15.76-.64-2.66-1.26-5.36-1.91-8.08-.3-1.35-.62-2.7-.94-4.07l-.49-2.14-.15-.9v-.9h0v-.81l88.89-20.67.43-.11.11.43c4.29,18.78,7.8,34.3,10.29,45.02,1.18,5.3,2.14,9.46,2.77,12.37l.71,3.22c.12.36.22.72.28,1.09Z"/>
    <path class="cls-9" d="M245.36,856.48c-.15.36-.35.7-.6,1.01l-1.95,2.77c-1.8,2.51-4.29,5.94-7.29,10.1l-24.38,33c-1.39.32-.39,0-.71.15h-.17l-.34-.17-.66-.34-1.33-.69-2.62-1.33-5.12-2.62-9.84-5.12-16.4-8.58-11-5.81-2.96-1.63c-.35-.18-.69-.38-1.01-.62.39.08.77.23,1.11.43l3.07,1.44,11.15,5.49,16.49,8.28,9.73,4.91,5.15,2.62,2.62,1.33,1.33.69.66.32.34.17h.15c-.3,0,.73-.15-.66.17,9.56-12.86,18.25-24.29,24.63-32.8l7.57-9.88,2.14-2.64c.28-.24.58-.45.9-.62Z"/>
    <path class="cls-9" d="M193.88,894.45c.26.15-4.61,8.73-10.89,19.15-3.62,6.4-7.57,12.6-11.83,18.59,3.3-6.57,6.94-12.97,10.89-19.17,3.63-6.39,7.58-12.58,11.83-18.57Z"/>
    <path class="cls-9" d="M258.46,912.52c-.19.24-8.1-5.6-17.69-13.01s-17.15-13.66-16.98-13.89c6.11,4.04,12,8.38,17.67,13.01,5.9,4.34,11.58,8.97,17,13.89Z"/>
    <rect class="cls-5" x="442.98" y="663.94" width="57.36" height="82.81" transform="translate(-310.57 1034.13) rotate(-79.03)"/>
    <path class="cls-9" d="M507.68,738.86c.01-.36.06-.72.15-1.07l.51-3.02c.49-2.7,1.2-6.54,2.14-11.43,1.84-9.86,4.44-23.93,7.61-41.01l.36.54-81.47-15.5.64-.43h0v.92l-.19.94-.34,1.89c-.26,1.24-.49,2.49-.73,3.73l-1.42,7.42c-.94,4.89-1.87,9.71-2.79,14.43-1.82,9.46-3.56,18.52-5.21,27.08l-.41-.6,58.55,11.49,16.74,3.34,4.48.92,1.16.26c.15.01.29.05.43.11h-.36l-1.14-.19-4.29-.77-17.13-3.02-58.87-11.02h-.51v-.51c1.63-8.58,3.34-17.65,5.15-27.08.9-4.73,1.82-9.55,2.77-14.45.47-2.44.94-4.91,1.42-7.4l.71-3.75.36-1.89.19-.94v-.92h0l.66-.45,81.47,15.72h.45v.43c-3.39,17.15-6.17,31.28-8.15,41.19-.96,4.82-1.74,8.58-2.27,11.3-.26,1.22-.45,2.14-.62,2.92s-.06.96-.06.86Z"/>
    <path class="cls-9" d="M516.89,684.55c-.27.24-.56.45-.88.62l-2.62,1.59-9.78,5.68c-8.28,4.76-19.72,11.28-32.44,18.4-1.42-.26-.39,0-.71-.15h0l-.11-.13-.21-.28-.43-.51-.84-1.05-1.69-2.14-3.39-4.16-6.22-7.7-10.44-13.12-6.97-8.88-1.87-2.47c-.41-.56-.62-.88-.58-.9.28.22.53.47.75.75l2.02,2.34,7.25,8.58c3.07,3.73,6.67,8.13,10.72,12.86l6.24,7.68,3.3,4.07c.58.69,1.14,1.37,1.69,2.14l.86,1.05.43.54.21.26.11.13h0l-.69-.13c12.69-7.14,24.23-13.53,32.59-18.12l9.95-5.38,2.72-1.42c.33-.09.67-.14,1.01-.15Z"/>
    <path class="cls-9" d="M460.12,697.03c-5.13,4.27-10.5,8.25-16.08,11.92-5.37,3.97-10.95,7.64-16.72,11,5.13-4.27,10.5-8.25,16.08-11.92,5.37-3.97,10.95-7.64,16.72-11Z"/>
    <path class="cls-9" d="M507.03,735.9c-3.61-5.58-6.92-11.36-9.91-17.3-3.29-5.78-6.26-11.74-8.92-17.84,3.63,5.57,6.94,11.35,9.91,17.3,3.31,5.77,6.28,11.73,8.92,17.84Z"/>
  </g>
  <g id="freepik--speech-bubble-2--inject-16">
    <path class="cls-11" d="M860.68,284.08h-155.83c-2.65,0-4.8,2.15-4.8,4.8v116.08c0,2.65,2.15,4.8,4.8,4.8h109.34c1.48,0,2.88.69,3.79,1.87l11.41,14.77c.57.8,1.68.98,2.48.41.16-.11.3-.25.41-.41l10.03-14.49c.88-1.32,2.36-2.12,3.94-2.14h14.36c2.65,0,4.8-2.15,4.8-4.8v-116.08c0-2.64-2.12-4.78-4.76-4.8Z"/>
    <path class="cls-9" d="M860.68,284.08c.51-.05,1.02.02,1.5.19,1.48.45,2.66,1.58,3.15,3.04.27,1.09.37,2.21.28,3.32v13.89c0,15.01.11,36.6.17,63.29v37.93c-.36,2.15-2.01,3.85-4.14,4.29-1.01.12-2.03.16-3.04.13h-12.07c-.94-.06-1.88.2-2.66.73-.79.57-1.44,1.3-1.91,2.14l-1.78,2.57-7.23,10.46c-.31.57-.8,1.02-1.39,1.26-.66.24-1.39.17-1.99-.19-.47-.38-.88-.83-1.22-1.33l-.99-1.29-3.94-5.12-4.1-5.27c-.66-.86-1.37-1.84-2.04-2.59-.71-.72-1.65-1.17-2.66-1.26h-109.09c-1.4.12-2.79-.27-3.92-1.09-1.16-.84-1.93-2.12-2.14-3.54-.11-5.19,0-10.08,0-15.01v-101.09c-.08-1.15.17-2.31.73-3.32.61-.98,1.52-1.73,2.59-2.14,1.06-.35,2.17-.49,3.28-.39h68.05l63.29.19h23.16-23.16l-63.29.17h-68.05c-.98-.11-1.98,0-2.92.32-.9.35-1.65.99-2.14,1.82-.47.86-.67,1.85-.58,2.83v116.08c.15,1.11.74,2.12,1.63,2.81.95.67,2.1.98,3.26.86h109.17c1.26.12,2.44.68,3.32,1.59.81.94,1.42,1.8,2.14,2.68,1.35,1.78,2.72,3.54,4.07,5.27l4.01,5.23,1.01,1.29c.27.4.58.77.94,1.09.34.2.75.23,1.11.11.39-.13.58-.39.9-.9,2.47-3.54,4.89-7.01,7.27-10.46l1.78-2.55c.53-.96,1.26-1.8,2.14-2.44.94-.62,2.06-.93,3.19-.88h12.07c.95.07,1.9.07,2.85,0,1.79-.34,3.16-1.78,3.43-3.58v-37.8c0-26.69.15-48.3.19-63.29v-13.89c.1-1.08.03-2.18-.21-3.24-.46-1.42-1.55-2.54-2.96-3.02-.37,0-.73.04-1.09.11Z"/>
    <rect class="cls-2" x="736.08" y="326.88" width="80.51" height="55.77" transform="translate(-2.7 5.97) rotate(-.44)"/>
    <path class="cls-9" d="M816.82,382.32c-.02-.35-.02-.7,0-1.05v-2.98c0-2.66-.13-6.43-.21-11.28-.13-9.73-.32-23.58-.54-40.46l.45.43-80.49.75c-.13,0,1.03-1.07.54-.56h0v14.73c0,4.82,0,9.61.11,14.26,0,9.35.11,18.31.17,26.78l-.51-.51,57.89-.19h22.3-1.09l-4.29.11-16.47.26-58.25.71h-.58v-.34c0-8.58-.15-17.43-.24-26.76,0-4.67-.04-9.43-.11-14.28v-14.71h0c-.49.49.69-.69.56-.58l80.51-.49h.45v55.25c-.05.31-.11.62-.19.92Z"/>
    <path class="cls-9" d="M815.27,328.78c-.2.29-.45.55-.73.77l-2.14,2.02-8.21,7.27c-6.97,6.11-16.64,14.49-27.38,23.58h-.88l-.26-.21-.51-.41-1.01-.86-1.99-1.65-3.9-3.26-7.38-6.17-12.44-10.48-8.34-7.14-2.14-1.99c-.51-.45-.75-.71-.73-.75.31.16.6.35.86.58l2.36,1.82,8.58,6.88,12.61,10.31,7.4,6.11,3.92,3.24,1.99,1.65,1.01.84.51.43.26.21.13.11h0c-.32,0,.73,0-.71,0,10.72-9.2,20.5-17.47,27.59-23.43l8.45-7.01,2.34-1.84c.22-.23.48-.43.75-.6Z"/>
    <path class="cls-9" d="M763.71,351.46c-4.07,5.05-8.42,9.86-13.04,14.41-4.35,4.81-8.97,9.36-13.85,13.64,4.07-5.05,8.42-9.86,13.04-14.41,4.35-4.81,8.98-9.36,13.85-13.64Z"/>
    <path class="cls-9" d="M815.64,379.55c-4.51-4.62-8.76-9.49-12.71-14.6-4.25-4.87-8.21-9.97-11.88-15.29,4.52,4.61,8.77,9.48,12.74,14.58,4.25,4.87,8.2,9.98,11.86,15.31Z"/>
  </g>
  <g id="freepik--Number--inject-16">
    <rect class="cls-6" x="765.58" y="302.95" width="85.65" height="41.68" rx="20.3" ry="20.3"/>
    <path class="cls-11" d="M787.53,324.92h-2.85v2.81h-2.14v-2.81h-2.83v-1.99h2.83v-2.81h2.14v2.81h2.85v1.99Z"/>
    <path class="cls-11" d="M803.33,326.04c-.06,2.19-1.89,3.91-4.08,3.85-.07,0-.14,0-.21-.01-3.17,0-5.15-1.99-5.15-5.7-.34-3.07,1.88-5.84,4.95-6.17.31-.03.61-.04.92-.02,1.12-.03,2.22.24,3.19.79l-.99,1.95c-.64-.4-1.39-.61-2.14-.58-1.69-.11-3.15,1.16-3.27,2.85-.01.16,0,.33,0,.49.77-.72,1.8-1.09,2.85-1.03,2.01-.14,3.75,1.37,3.89,3.38,0,.07,0,.13,0,.2ZM800.76,326.19c0-.97-.8-1.75-1.77-1.75-.07,0-.14,0-.21.01-.99-.1-1.87.63-1.97,1.62,0,.04,0,.08,0,.12,0,.99.73,1.69,2.02,1.69.94.12,1.8-.55,1.92-1.49,0-.07.01-.14.01-.21Z"/>
    <path class="cls-11" d="M807.58,328.2c-.02.58-.17,1.14-.45,1.65l-.92,2.36h-1.63l.71-2.62c-.56-.23-.91-.79-.88-1.39,0-.88.71-1.59,1.59-1.59s1.59.71,1.59,1.59h0Z"/>
    <path class="cls-11" d="M817.98,323.68c.34,3.07-1.88,5.84-4.95,6.17-.31.03-.61.04-.92.02-1.12.03-2.22-.24-3.19-.79l.99-1.95c.64.41,1.39.61,2.14.58,1.69.1,3.14-1.18,3.25-2.87.01-.16,0-.33,0-.49-.78.72-1.81,1.1-2.87,1.05-2.02.17-3.79-1.34-3.95-3.35,0-.08-.01-.17-.01-.25.08-2.19,1.91-3.9,4.1-3.83.06,0,.12,0,.19.01,3.3,0,5.25,1.99,5.25,5.7ZM815,321.66c0-.99-.75-1.69-2.02-1.69-.93-.12-1.78.54-1.89,1.47,0,.08-.01.15-.01.23,0,.96.76,1.74,1.72,1.75.08,0,.15,0,.23-.01.99.1,1.87-.63,1.97-1.62,0-.04,0-.08,0-.12h0Z"/>
    <path class="cls-11" d="M828.44,323.68c.34,3.07-1.88,5.84-4.95,6.17-.31.03-.61.04-.92.02-1.11.03-2.21-.24-3.17-.79l.99-1.95c.64.41,1.39.61,2.14.58,1.69.1,3.14-1.18,3.25-2.87.01-.16,0-.33,0-.49-.77.73-1.8,1.11-2.85,1.05-2.01.18-3.77-1.3-3.95-3.31,0-.1-.01-.2-.01-.29.06-2.18,1.88-3.89,4.06-3.83.08,0,.15,0,.23.01,3.26,0,5.21,1.99,5.21,5.7ZM825.48,321.66c0-.99-.75-1.69-2.02-1.69-.94-.12-1.8.55-1.92,1.49,0,.07-.01.14-.01.21,0,.96.76,1.74,1.72,1.75.08,0,.15,0,.23-.01.99.11,1.88-.61,1.98-1.6,0-.05,0-.09,0-.14Z"/>
    <path class="cls-11" d="M838.92,323.68c.34,3.07-1.88,5.84-4.95,6.17-.31.03-.61.04-.92.02-1.12.03-2.22-.24-3.19-.79l.99-1.95c.64.4,1.39.61,2.14.58,1.69.1,3.14-1.18,3.25-2.87.01-.16,0-.33,0-.49-.77.73-1.81,1.11-2.87,1.05-2.01.17-3.77-1.33-3.93-3.33,0-.09-.01-.18-.01-.27.06-2.18,1.88-3.89,4.06-3.83.08,0,.15,0,.23.01,3.28,0,5.23,1.99,5.23,5.7ZM835.94,321.66c0-.99-.73-1.69-1.99-1.69-.94-.12-1.8.55-1.92,1.49,0,.07-.01.14-.01.21,0,.96.76,1.74,1.72,1.75.08,0,.15,0,.23-.01.98.11,1.86-.6,1.96-1.58,0-.05,0-.11.01-.16h0Z"/>
  </g>
  <g id="freepik--speech-bubble-1--inject-16">
    <polygon class="cls-11" points="258.74 215.49 291.69 181.34 299.9 235.35 344.07 233.84 316.43 270.14 344.24 306.63 298.19 297.56 291.52 343.9 254.3 315.68 207.35 340.27 217.62 292.85 164.34 284.46 205.78 260 181.62 218.34 223.02 234.53 228.06 183.16 258.74 215.49"/>
    <path class="cls-9" d="M258.74,215.49l-2.04-2.14-5.94-6.17-22.9-23.93.47-.15c-1.35,13.96-3,31.32-4.93,51.46v.49l-.47-.17-41.42-16.14.54-.62,24.23,41.66.24.41-.41.26-41.49,24.48-.19-.99,53.28,8.36h.58l-.13.58c-3.26,15.01-6.73,31.11-10.25,47.45l-.84-.64,40.74-21.29,6.28-3.28.32-.17.3.21,37.22,28.21-.9.36c2.27-15.81,4.5-31.25,6.67-46.33v-.58h.58l46.03,9.11-.51.84-27.87-36.45-.24-.3.24-.3,27.68-36.28.36.73-44.17,1.44h-.34v-.32c-3.19-21.27-5.9-39.36-8.08-54.03l.47.15-24.7,25.34-6.32,6.43-2.14,2.14s.73-.81,2.14-2.29l6.3-6.6,24.33-25.43.39-.41v.54c2.25,14.66,5.04,32.74,8.3,53.99l-.39-.32,44.17-1.57h.94l-.58.75-27.59,36.32v-.6l27.87,36.45.86,1.11-1.37-.28-46.05-9.05.64-.47c-2.16,15.08-4.37,30.53-6.65,46.35l-.13.94-.77-.58-37.24-28.19h.62l-6.28,3.28-40.74,21.29-1.07.58.26-1.2,10.29-47.43.45.66-53.11-8.19-1.46-.24,1.26-.75,41.44-24.42-.17.69-24.1-41.7-.64-1.09,1.18.47,41.38,16.25-.51.32c2.02-20.07,3.75-37.43,5.15-51.46v-.6l.39.43,22.58,24.01,5.9,6.3,2.08,2.29Z"/>
    <path class="cls-11" d="M347.15,272.46c0,5.43,4.41,9.84,9.84,9.84,5.43,0,9.84-4.41,9.84-9.84,0-5.43-4.41-9.84-9.84-9.84h0c-5.42-.01-9.83,4.37-9.84,9.8,0,.01,0,.03,0,.04Z"/>
    <path class="cls-9" d="M347.15,272.46s0-.88.43-2.36c.58-2.1,1.85-3.95,3.6-5.25,1.19-.9,2.58-1.51,4.05-1.76,1.67-.3,3.4-.15,5,.43,4.93,1.81,7.46,7.29,5.65,12.22-.31.83-.73,1.62-1.25,2.34-1.09,1.53-2.63,2.69-4.4,3.32-1.6.59-3.33.75-5.02.45-3.68-.69-6.64-3.41-7.63-7.01-.39-1.5-.36-2.38-.43-2.38-.03.21-.03.43,0,.64,0,.61.07,1.21.21,1.8.89,3.82,3.94,6.75,7.78,7.5,3.84.77,7.77-.76,10.08-3.92,2.66-3.58,2.66-8.47,0-12.05-1.19-1.62-2.84-2.85-4.74-3.52-1.7-.61-3.54-.75-5.32-.41-3.86.74-6.92,3.69-7.8,7.53-.15.59-.22,1.19-.21,1.8-.03.21-.03.42,0,.62Z"/>
    <path class="cls-6" d="M253.85,236.67l1.99,31.47c.17,2.58,2.23,4.62,4.8,4.78h0c2.72.16,5.09-1.84,5.38-4.55l3.49-31.62c.25-2.2-1.33-4.19-3.53-4.43-.17-.02-.33-.03-.5-.03l-7.7.11c-2.23.04-3.99,1.88-3.95,4.11,0,.05,0,.11,0,.16Z"/>
    <path class="cls-6" d="M268.99,290.64c-1.34,4.02-5.69,6.2-9.71,4.86-4.02-1.34-6.2-5.69-4.86-9.71,1.34-4.02,5.68-6.19,9.7-4.86,4.02,1.33,6.2,5.68,4.87,9.7,0,0,0,0,0,.01Z"/>
  </g>
</svg>