<?xml version="1.0" encoding="UTF-8"?>
<svg id="Layer_2" data-name="Layer 2" xmlns="http://www.w3.org/2000/svg" viewBox="0 0 1000 1000">
  <defs>
    <style>
      .cls-1, .cls-2 {
        fill: #ff735d;
      }

      .cls-1, .cls-2, .cls-3, .cls-4, .cls-5, .cls-6, .cls-7, .cls-8, .cls-9, .cls-10, .cls-11, .cls-12, .cls-13, .cls-14, .cls-15, .cls-16 {
        stroke-width: 0px;
      }

      .cls-2, .cls-7, .cls-11 {
        fill-rule: evenodd;
      }

      .cls-3, .cls-11 {
        fill: #000;
      }

      .cls-4, .cls-7 {
        fill: #e1e1e1;
      }

      .cls-17 {
        opacity: .5;
      }

      .cls-5 {
        fill: #ffc19d;
      }

      .cls-18 {
        opacity: .2;
      }

      .cls-6 {
        fill: #09f;
      }

      .cls-8 {
        fill: #c17560;
      }

      .cls-9 {
        fill: #f5f5f5;
      }

      .cls-19 {
        opacity: .3;
      }

      .cls-10 {
        fill: #ff9c6a;
      }

      .cls-12 {
        fill: #ececec;
      }

      .cls-13 {
        fill: #375a64;
      }

      .cls-14 {
        fill: #fff;
      }

      .cls-15 {
        fill: #fafafa;
      }

      .cls-16 {
        fill: #1a2e35;
      }
    </style>
  </defs>
  <g>
    <rect class="cls-9" x="764.52" y="276.62" width="101.44" height="321.48"/>
    <rect class="cls-12" x="815.24" y="276.62" width="50.72" height="320.59"/>
    <rect class="cls-9" x="776.1" y="245.06" width="35.82" height="31.56"/>
    <rect class="cls-12" x="803.38" y="245.06" width="8.54" height="31.56"/>
    <polyline class="cls-4" points="756.06 276.62 756.06 274.78 868.92 274.78 868.92 276.62"/>
    <rect class="cls-15" x="784.54" y="290.38" width="8.59" height="18.1"/>
    <path class="cls-4" d="M815.24,315.6c0,.19-11.35.35-25.36.35s-25.36-.15-25.36-.35,11.35-.35,25.36-.35,25.36.15,25.36.35Z"/>
    <g>
      <rect class="cls-4" x="835.7" y="290.38" width="8.59" height="18.1"/>
      <path class="cls-4" d="M866.4,315.6c0,.19-11.35.35-25.36.35s-25.36-.15-25.36-.35,11.35-.35,25.36-.35,25.36.15,25.36.35Z"/>
    </g>
    <g>
      <rect class="cls-4" x="835.7" y="326.33" width="8.59" height="18.11"/>
      <path class="cls-4" d="M866.4,351.54c0,.19-11.35.35-25.36.35s-25.36-.15-25.36-.35,11.35-.35,25.36-.35,25.36.15,25.36.35Z"/>
    </g>
    <g>
      <rect class="cls-4" x="835.7" y="363.36" width="8.59" height="18.1"/>
      <path class="cls-4" d="M866.4,388.57c0,.19-11.35.35-25.36.35s-25.36-.15-25.36-.35,11.35-.35,25.36-.35,25.36.15,25.36.35Z"/>
    </g>
    <g>
      <rect class="cls-4" x="835.7" y="400.39" width="8.59" height="18.1"/>
      <path class="cls-4" d="M866.4,425.6c0,.19-11.35.35-25.36.35s-25.36-.15-25.36-.35,11.35-.35,25.36-.35,25.36.15,25.36.35Z"/>
    </g>
    <g>
      <rect class="cls-4" x="835.7" y="436.36" width="8.59" height="18.1"/>
      <path class="cls-4" d="M866.4,461.57c0,.19-11.35.35-25.36.35s-25.36-.15-25.36-.35,11.35-.35,25.36-.35,25.36.15,25.36.35Z"/>
    </g>
    <g>
      <rect class="cls-4" x="835.7" y="472.48" width="8.59" height="18.1"/>
      <rect class="cls-4" x="835.7" y="509.07" width="8.59" height="18.11"/>
      <path class="cls-4" d="M866.4,497.69c0,.19-11.35.35-25.36.35s-25.36-.15-25.36-.35,11.35-.35,25.36-.35,25.36.15,25.36.35Z"/>
    </g>
    <rect class="cls-15" x="784.54" y="326.88" width="8.59" height="18.1"/>
    <path class="cls-4" d="M815.24,352.09c0,.19-11.35.35-25.36.35s-25.36-.15-25.36-.35,11.35-.35,25.36-.35,25.36.15,25.36.35Z"/>
    <rect class="cls-15" x="784.54" y="363.37" width="8.59" height="18.11"/>
    <path class="cls-4" d="M815.24,388.58c0,.19-11.35.35-25.36.35s-25.36-.15-25.36-.35,11.35-.35,25.36-.35,25.36.15,25.36.35Z"/>
    <rect class="cls-15" x="784.54" y="399.87" width="8.59" height="18.1"/>
    <path class="cls-4" d="M815.24,425.08c0,.19-11.35.35-25.36.35s-25.36-.15-25.36-.35,11.35-.35,25.36-.35,25.36.15,25.36.35Z"/>
    <rect class="cls-15" x="784.54" y="436.36" width="8.59" height="18.1"/>
    <path class="cls-4" d="M815.24,461.57c0,.19-11.35.35-25.36.35s-25.36-.15-25.36-.35,11.35-.35,25.36-.35,25.36.15,25.36.35Z"/>
    <rect class="cls-15" x="784.54" y="472.85" width="8.59" height="18.11"/>
    <path class="cls-4" d="M815.24,498.07c0,.19-11.35.35-25.36.35s-25.36-.15-25.36-.35,11.35-.35,25.36-.35,25.36.15,25.36.35Z"/>
    <rect class="cls-15" x="784.54" y="509.35" width="8.59" height="18.1"/>
  </g>
  <g>
    <rect class="cls-9" x="856.38" y="393.77" width="102.07" height="323.49"/>
    <rect class="cls-12" x="907.42" y="393.77" width="51.04" height="322.6"/>
    <rect class="cls-9" x="868.04" y="362.01" width="36.04" height="31.76"/>
    <rect class="cls-12" x="895.49" y="362.01" width="8.59" height="31.76"/>
    <polyline class="cls-4" points="847.88 393.77 847.88 391.92 961.44 391.92 961.44 393.77"/>
    <rect class="cls-15" x="876.53" y="407.62" width="8.64" height="18.22"/>
    <path class="cls-4" d="M907.42,432.99c0,.19-11.43.35-25.52.35s-25.52-.16-25.52-.35,11.42-.35,25.52-.35,25.52.16,25.52.35Z"/>
    <g>
      <rect class="cls-4" x="928.01" y="407.62" width="8.64" height="18.22"/>
      <path class="cls-4" d="M958.9,432.99c0,.19-11.43.35-25.52.35s-25.52-.16-25.52-.35,11.42-.35,25.52-.35,25.52.16,25.52.35Z"/>
    </g>
    <g>
      <rect class="cls-4" x="928.01" y="443.79" width="8.64" height="18.22"/>
      <path class="cls-4" d="M958.9,469.16c0,.19-11.43.35-25.52.35s-25.52-.16-25.52-.35,11.42-.35,25.52-.35,25.52.16,25.52.35Z"/>
    </g>
    <g>
      <rect class="cls-4" x="928.01" y="481.05" width="8.64" height="18.22"/>
      <path class="cls-4" d="M958.9,506.42c0,.19-11.43.35-25.52.35s-25.52-.16-25.52-.35,11.42-.35,25.52-.35,25.52.16,25.52.35Z"/>
    </g>
    <g>
      <rect class="cls-4" x="928.01" y="518.31" width="8.64" height="18.22"/>
      <path class="cls-4" d="M958.9,543.68c0,.19-11.43.35-25.52.35s-25.52-.16-25.52-.35,11.42-.35,25.52-.35,25.52.16,25.52.35Z"/>
    </g>
    <g>
      <rect class="cls-4" x="928.01" y="554.51" width="8.64" height="18.22"/>
      <path class="cls-4" d="M958.9,579.88c0,.19-11.43.35-25.52.35s-25.52-.16-25.52-.35,11.42-.35,25.52-.35,25.52.16,25.52.35Z"/>
    </g>
    <g>
      <rect class="cls-4" x="928.01" y="590.85" width="8.64" height="18.22"/>
      <rect class="cls-4" x="928.01" y="627.67" width="8.64" height="18.22"/>
      <path class="cls-4" d="M958.9,616.22c0,.19-11.43.35-25.52.35s-25.52-.16-25.52-.35,11.42-.35,25.52-.35,25.52.16,25.52.35Z"/>
    </g>
    <rect class="cls-15" x="876.53" y="444.34" width="8.64" height="18.22"/>
    <path class="cls-4" d="M907.42,469.71c0,.19-11.43.35-25.52.35s-25.52-.16-25.52-.35,11.42-.35,25.52-.35,25.52.16,25.52.35Z"/>
    <rect class="cls-15" x="876.53" y="481.07" width="8.64" height="18.22"/>
    <path class="cls-4" d="M907.42,506.43c0,.19-11.43.35-25.52.35s-25.52-.16-25.52-.35,11.42-.35,25.52-.35,25.52.16,25.52.35Z"/>
    <rect class="cls-15" x="876.53" y="517.79" width="8.64" height="18.22"/>
    <path class="cls-4" d="M907.42,543.16c0,.19-11.43.35-25.52.35s-25.52-.16-25.52-.35,11.42-.35,25.52-.35,25.52.16,25.52.35Z"/>
    <rect class="cls-15" x="876.53" y="554.51" width="8.64" height="18.22"/>
    <path class="cls-4" d="M907.42,579.88c0,.19-11.43.35-25.52.35s-25.52-.16-25.52-.35,11.42-.35,25.52-.35,25.52.16,25.52.35Z"/>
    <rect class="cls-15" x="876.53" y="591.23" width="8.64" height="18.22"/>
    <path class="cls-4" d="M907.42,616.6c0,.19-11.43.35-25.52.35s-25.52-.16-25.52-.35,11.42-.35,25.52-.35,25.52.16,25.52.35Z"/>
    <rect class="cls-15" x="876.53" y="627.95" width="8.64" height="18.22"/>
  </g>
  <g>
    <polygon class="cls-9" points="732.48 597.69 641.19 597.69 640.79 453.4 732.08 453.4 732.48 597.69"/>
    <rect class="cls-12" x="686.44" y="453.4" width="45.65" height="144.29"/>
    <rect class="cls-9" x="651.21" y="424.99" width="32.24" height="28.41"/>
    <rect class="cls-12" x="675.77" y="424.99" width="7.68" height="28.41"/>
    <rect class="cls-4" x="633.18" y="451.74" width="101.57" height="1.66"/>
    <rect class="cls-14" x="658.81" y="465.79" width="7.73" height="16.29"/>
    <path class="cls-4" d="M686.44,488.48c0,.17-10.22.31-22.82.31s-22.82-.14-22.82-.31,10.22-.31,22.82-.31,22.82.14,22.82.31Z"/>
    <g>
      <rect class="cls-9" x="704.85" y="465.79" width="7.73" height="16.29"/>
      <path class="cls-4" d="M732.48,488.48c0,.17-10.22.31-22.82.31s-22.82-.14-22.82-.31,10.22-.31,22.82-.31,22.82.14,22.82.31Z"/>
    </g>
    <g>
      <rect class="cls-9" x="704.85" y="498.14" width="7.73" height="16.29"/>
      <path class="cls-4" d="M732.48,520.83c0,.17-10.22.31-22.82.31s-22.82-.14-22.82-.31,10.22-.31,22.82-.31,22.82.14,22.82.31Z"/>
    </g>
    <g>
      <rect class="cls-9" x="704.85" y="531.47" width="7.73" height="16.29"/>
      <path class="cls-4" d="M732.48,554.16c0,.17-10.22.31-22.82.31s-22.82-.14-22.82-.31,10.22-.31,22.82-.31,22.82.14,22.82.31Z"/>
    </g>
    <g>
      <rect class="cls-9" x="704.85" y="564.79" width="7.73" height="16.29"/>
      <path class="cls-4" d="M732.48,587.48c0,.17-10.22.31-22.82.31s-22.82-.14-22.82-.31,10.22-.31,22.82-.31,22.82.14,22.82.31Z"/>
    </g>
    <rect class="cls-14" x="658.81" y="498.63" width="7.73" height="16.29"/>
    <path class="cls-4" d="M686.44,521.32c0,.17-10.22.31-22.82.31s-22.82-.14-22.82-.31,10.22-.31,22.82-.31,22.82.14,22.82.31Z"/>
    <rect class="cls-14" x="658.81" y="531.48" width="7.73" height="16.29"/>
    <path class="cls-4" d="M686.44,554.17c0,.17-10.22.31-22.82.31s-22.82-.14-22.82-.31,10.22-.31,22.82-.31,22.82.14,22.82.31Z"/>
    <rect class="cls-14" x="658.81" y="564.32" width="7.73" height="16.29"/>
    <path class="cls-4" d="M686.44,587.01c0,.17-10.22.31-22.82.31s-22.82-.14-22.82-.31,10.22-.31,22.82-.31,22.82.14,22.82.31Z"/>
  </g>
  <path class="cls-9" d="M708.97,275.28c.14-14.33-8.43-41.09-19.72-51.59-16.08-14.96-15.09-14.54-35.57-24.74-10.62-5.29-31.15-5.3-43.3-6.7-12.15-1.4-32.6,3.43-41.74,10.49-8.95,6.91-12.98,17.59-13.38,27.95-.37,9.51,4.24,17.32,6.8,26.59l-8.5-5.62v.06s-7.74-4.94-20.23.69c-12.48,5.63-11.07,17.99-11.07,17.99,0,0-36.95-19.45-76.11.39-24.53,12.42-29.6,42.25-29.98,62.79-.14,7.38.33,13.55.73,17.3-.73-1.72-2.21-4.03-5.14-6.91-7.3-7.18-18.07.39-18.07.39,0,0-1.68-8.51-7.42-17.46-5.05-7.9-13.28-16.13-26.29-19.16-13.68-3.19-29.84,6.06-42.68,16.23-13.2,10.47-21.58,33.78-21.58,33.78-44.06,24.93-38.56,65.26-38.56,65.26l7.28-14.07c22.03,7.4,43-20.46,43-20.46,0,0,.15.08.42.22,3.55,1.92,28.95,15.5,39.27,16.07,5.45.32,10.92-3.53,15.09-7.54,4.11-3.95,6.94-8.04,7.24-8.48l.03-.02c.04,1.04,1.33,29.92,24.39,38.51,10.93,4.07,18.55,3.36,23.59,1.42h.01c5.39-2.11,7.78-5.6,8.06-6.02-.18.61-1.88,6.41-1.07,12.43h.01c.67,4.97,3.06,10.09,9.41,12.6,14.5,5.75,20.56,1.59,20.56,1.59,0,0,10.3-7.16,11.64-14.23,1.34-7.07,10.98-14.36,10.98-14.36,26.88,25.96,43.47-19.28,43.47-19.28,0,0,4.98,3.55,35.18,6.1h.01c30,2.55,53.07-3.7,69.18-20.35,26.56-27.43,17.01-52.58,13.21-62.89-.82-2.26-3.12-6.24-3.12-6.24,0,0,16.59,4.59,31.65.32,0,0,41.92-4.15,42.3-43.03Z"/>
  <g>
    <rect class="cls-9" x="180.96" y="282.2" width="87.51" height="277.33"/>
    <rect class="cls-12" x="224.72" y="282.2" width="43.75" height="276.57"/>
    <rect class="cls-9" x="190.96" y="254.97" width="30.9" height="27.23"/>
    <rect class="cls-12" x="214.49" y="254.97" width="7.37" height="27.23"/>
    <polyline class="cls-4" points="173.67 282.2 173.67 280.61 271.03 280.61 271.03 282.2"/>
    <rect class="cls-15" x="198.24" y="294.07" width="7.41" height="15.62"/>
    <path class="cls-4" d="M224.72,315.82c0,.16-9.8.3-21.88.3s-21.88-.13-21.88-.3,9.79-.3,21.88-.3,21.88.13,21.88.3Z"/>
    <g>
      <rect class="cls-4" x="242.37" y="294.07" width="7.41" height="15.62"/>
      <path class="cls-4" d="M268.85,315.82c0,.16-9.8.3-21.88.3s-21.88-.13-21.88-.3,9.79-.3,21.88-.3,21.88.13,21.88.3Z"/>
    </g>
    <g>
      <rect class="cls-4" x="242.37" y="325.08" width="7.41" height="15.62"/>
      <path class="cls-4" d="M268.85,346.83c0,.16-9.8.3-21.88.3s-21.88-.13-21.88-.3,9.79-.3,21.88-.3,21.88.13,21.88.3Z"/>
    </g>
    <g>
      <rect class="cls-4" x="242.37" y="357.03" width="7.41" height="15.62"/>
      <path class="cls-4" d="M268.85,378.78c0,.16-9.8.3-21.88.3s-21.88-.13-21.88-.3,9.79-.3,21.88-.3,21.88.13,21.88.3Z"/>
    </g>
    <g>
      <rect class="cls-4" x="242.37" y="388.97" width="7.41" height="15.62"/>
      <path class="cls-4" d="M268.85,410.72c0,.16-9.8.3-21.88.3s-21.88-.13-21.88-.3,9.79-.3,21.88-.3,21.88.13,21.88.3Z"/>
    </g>
    <g>
      <rect class="cls-4" x="242.37" y="420" width="7.41" height="15.62"/>
      <path class="cls-4" d="M268.85,441.75c0,.16-9.8.3-21.88.3s-21.88-.13-21.88-.3,9.79-.3,21.88-.3,21.88.13,21.88.3Z"/>
    </g>
    <g>
      <rect class="cls-4" x="242.37" y="451.16" width="7.41" height="15.62"/>
      <rect class="cls-4" x="242.37" y="482.72" width="7.41" height="15.62"/>
      <path class="cls-4" d="M268.85,472.91c0,.16-9.8.3-21.88.3s-21.88-.13-21.88-.3,9.79-.3,21.88-.3,21.88.13,21.88.3Z"/>
    </g>
    <rect class="cls-15" x="198.24" y="325.55" width="7.41" height="15.62"/>
    <path class="cls-4" d="M224.72,347.3c0,.16-9.8.3-21.88.3s-21.88-.13-21.88-.3,9.79-.3,21.88-.3,21.88.13,21.88.3Z"/>
    <rect class="cls-15" x="198.24" y="357.04" width="7.41" height="15.62"/>
    <path class="cls-4" d="M224.72,378.79c0,.16-9.8.3-21.88.3s-21.88-.13-21.88-.3,9.79-.3,21.88-.3,21.88.13,21.88.3Z"/>
    <rect class="cls-15" x="198.24" y="388.52" width="7.41" height="15.62"/>
    <path class="cls-4" d="M224.72,410.27c0,.16-9.8.3-21.88.3s-21.88-.13-21.88-.3,9.79-.3,21.88-.3,21.88.13,21.88.3Z"/>
    <rect class="cls-15" x="198.24" y="420" width="7.41" height="15.62"/>
    <path class="cls-4" d="M224.72,441.75c0,.16-9.8.3-21.88.3s-21.88-.13-21.88-.3,9.79-.3,21.88-.3,21.88.13,21.88.3Z"/>
    <rect class="cls-15" x="198.24" y="451.49" width="7.41" height="15.62"/>
    <path class="cls-4" d="M224.72,473.23c0,.16-9.8.3-21.88.3s-21.88-.13-21.88-.3,9.79-.3,21.88-.3,21.88.13,21.88.3Z"/>
    <rect class="cls-15" x="198.24" y="482.97" width="7.41" height="15.62"/>
  </g>
  <g>
    <g>
      <path class="cls-7" d="M291.24,325.29c.19.04.3.26.24.44-.06.18-.26.29-.45.27-.19-.02-.35-.15-.44-.33-.02-.04-.03-.08-.02-.12.01-.05.05-.08.09-.11.09-.08.18-.15.29-.19.11-.03.25-.01.32.08l-.02-.05Z"/>
      <path class="cls-7" d="M288.32,333.7c0-1.03-1.41-1.74-2.24-1.12-.48,1.01.21,2.38,1.3,2.6.48-.32.76-.91.71-1.48h.23Z"/>
      <path class="cls-7" d="M257.72,332.26c.47.78-.16,1.96-1.07,2.01-.91.05-1.66-1.05-1.28-1.88.38-.83,1.7-.98,2.26-.26l.09.13Z"/>
      <path class="cls-7" d="M292.45,287.51c-.73.37-1.45.74-2.18,1.11.49.6,1.36.87,2.1.63.52-.55.4-1.57-.24-1.97l.32.23Z"/>
      <path class="cls-7" d="M343.8,347.09c-.15-.53-.67-.98-1.21-.87-.53.12-.76.97-.28,1.23.47.25.99-.22,1.31-.65l.18.28Z"/>
      <path class="cls-7" d="M316.76,301.84c.03.82-.93,1.5-1.69,1.2-.76-.3-1.01-1.45-.43-2.03.58-.58,1.73-.35,2.03.41l.09.42Z"/>
      <path class="cls-7" d="M287.87,319.72c.03.82-.93,1.5-1.69,1.2-.76-.3-1.01-1.45-.43-2.03.58-.58,1.73-.35,2.03.41l.09.42Z"/>
      <path class="cls-7" d="M325.77,334.56c-.11-.6-.86-.99-1.4-.7s-.59,1.19-.07,1.5c.52.31,1.31-.21,1.19-.8h.27Z"/>
      <path class="cls-7" d="M319.11,335.97c-.48-.57-1.22-.92-1.72-.37-.49.54-.4,1.83.16,2.21.56.38,1.31-.33,1.28-1.22l.28-.62Z"/>
    </g>
    <g>
      <path class="cls-7" d="M304.42,358.57l-.93,9.55c-9.08,7.1-2.25,15.85-10.83,24-8.58,8.15-8.39-18.25-8.39-18.25l-3.98,11.45,4.81,12.72s-5.14-3.78-11.06-14.07c-5.92-10.29,5.77-14.15,5.77-14.15,0,0,2.14-8-3.45-13.86-5.59-5.86,2.43-27.8,2.43-27.8,0,0-17.27,18.66-13.84,27.47,3.43,8.81,5.86,18.63.05,23.91-5.81,5.28-12.98-8.43-12.98-8.43,0,0,3.4,9.09,3.35,12.86-.05,3.77-9.43,16.47-9.43,16.47,2.56,2.61,19.97,12.78,19.97,12.78l.33,29.98s13.72-5.5,19.46-7.78c5.74-2.29,3.26-6.86,4.83-15.29,1.57-8.43,7.56-13.63,12.29-19.43,4.73-5.8,2.14-12.58,1.87-18.21-.27-5.64,1.27-5.5,3.34-10.79,2.06-5.29-3.6-13.11-3.6-13.11Z"/>
      <path class="cls-7" d="M290.37,307.05l-3.95-7.6c-6.65,6.34-3.36,18.52-3.36,18.52,2.16-8.91,7.32-10.92,7.32-10.92Z"/>
      <path class="cls-7" d="M312.29,342.88c1.38,4.7.6,10.7.6,10.7,6.72-5.35-.6-10.7-.6-10.7Z"/>
    </g>
  </g>
  <path class="cls-9" d="M414.36,228.7c-9.27-4.59-22.21.25-25.46,10.07l-.85-.66c-6.39-4.98-15.25-5.79-22.2-1.64-.55.33-1.08.68-1.59,1.06-5.15,3.83-8.17,10.7-6.56,16.92,1.61,6.21,8.34,10.92,14.59,9.46-1.39,9.41,6.92,19.05,16.43,19.07,9.52.02,17.86-9.58,16.51-19,3.33,2.06,7.76,1.88,11.22.04,3.46-1.84,5.98-5.14,7.45-8.77,3.88-9.59-.26-21.97-9.53-26.56Z"/>
  <path class="cls-9" d="M952.35,234.46c-5.47-8.78-19.03-11.46-26.95-4.81l-.38-1.01c-2.82-7.59-9.93-12.94-18.03-13.06-.64,0-1.28.01-1.92.07-6.39.55-12.57,4.81-14.47,10.94-1.9,6.13,1.35,13.67,7.44,15.72-6.13,7.28-4.13,19.84,3.96,24.86,8.08,5.02,20.23,1.23,24.04-7.49,1.75,3.5,5.62,5.67,9.52,5.93,3.91.25,7.79-1.23,10.94-3.54,8.34-6.12,11.32-18.83,5.85-27.6Z"/>
  <polygon class="cls-9" points="349.65 792.87 122.84 792.87 135.09 779.59 361.9 779.59 349.65 792.87"/>
  <polygon class="cls-9" points="747.57 792.87 520.76 792.87 533 779.59 759.82 779.59 747.57 792.87"/>
  <path class="cls-16" d="M969.69,676.8c0,.19-210.1.35-469.22.35s-469.26-.15-469.26-.35,210.06-.35,469.26-.35,469.22.15,469.22.35Z"/>
  <g>
    <g>
      <rect class="cls-13" x="59.01" y="367.84" width="97.48" height="308.93"/>
      <g class="cls-19">
        <rect class="cls-3" x="107.75" y="367.84" width="48.74" height="308.93"/>
      </g>
      <rect class="cls-13" x="70.14" y="337.51" width="34.42" height="30.33"/>
      <rect class="cls-16" x="96.35" y="337.51" width="8.2" height="30.33"/>
      <rect class="cls-16" x="50.88" y="366.07" width="108.46" height="1.77"/>
      <rect class="cls-16" x="78.25" y="381.07" width="8.25" height="17.4"/>
      <path class="cls-16" d="M107.75,405.29c0,.18-10.91.33-24.37.33s-24.37-.15-24.37-.33,10.91-.33,24.37-.33,24.37.15,24.37.33Z"/>
      <g>
        <rect class="cls-16" x="127.41" y="381.07" width="8.25" height="17.4"/>
        <path class="cls-16" d="M156.91,405.29c0,.18-10.91.33-24.37.33s-24.37-.15-24.37-.33,10.91-.33,24.37-.33,24.37.15,24.37.33Z"/>
      </g>
      <g>
        <rect class="cls-16" x="127.41" y="415.61" width="8.25" height="17.4"/>
        <path class="cls-16" d="M156.91,439.84c0,.18-10.91.33-24.37.33s-24.37-.15-24.37-.33,10.91-.33,24.37-.33,24.37.15,24.37.33Z"/>
      </g>
      <g>
        <rect class="cls-16" x="127.41" y="451.2" width="8.25" height="17.4"/>
        <path class="cls-16" d="M156.91,475.42c0,.18-10.91.33-24.37.33s-24.37-.15-24.37-.33,10.91-.33,24.37-.33,24.37.15,24.37.33Z"/>
      </g>
      <g>
        <rect class="cls-16" x="127.41" y="486.78" width="8.25" height="17.4"/>
        <path class="cls-16" d="M156.91,511.01c0,.18-10.91.33-24.37.33s-24.37-.15-24.37-.33,10.91-.33,24.37-.33,24.37.15,24.37.33Z"/>
      </g>
      <g>
        <rect class="cls-16" x="127.41" y="521.35" width="8.25" height="17.4"/>
        <path class="cls-16" d="M156.91,545.57c0,.18-10.91.33-24.37.33s-24.37-.15-24.37-.33,10.91-.33,24.37-.33,24.37.15,24.37.33Z"/>
      </g>
      <g>
        <rect class="cls-16" x="127.41" y="556.06" width="8.25" height="17.4"/>
        <rect class="cls-16" x="127.41" y="591.22" width="8.25" height="17.4"/>
        <path class="cls-16" d="M156.91,580.28c0,.18-10.91.33-24.37.33s-24.37-.15-24.37-.33,10.91-.33,24.37-.33,24.37.15,24.37.33Z"/>
      </g>
      <rect class="cls-16" x="78.25" y="416.14" width="8.25" height="17.4"/>
      <path class="cls-16" d="M107.75,440.36c0,.18-10.91.33-24.37.33s-24.37-.15-24.37-.33,10.91-.33,24.37-.33,24.37.15,24.37.33Z"/>
      <rect class="cls-16" x="78.25" y="451.21" width="8.25" height="17.4"/>
      <path class="cls-16" d="M107.75,475.44c0,.18-10.91.33-24.37.33s-24.37-.15-24.37-.33,10.91-.33,24.37-.33,24.37.15,24.37.33Z"/>
      <rect class="cls-16" x="78.25" y="486.28" width="8.25" height="17.4"/>
      <path class="cls-16" d="M107.75,510.5c0,.18-10.91.33-24.37.33s-24.37-.15-24.37-.33,10.91-.33,24.37-.33,24.37.15,24.37.33Z"/>
      <rect class="cls-16" x="78.25" y="521.35" width="8.25" height="17.4"/>
      <path class="cls-16" d="M107.75,545.57c0,.18-10.91.33-24.37.33s-24.37-.15-24.37-.33,10.91-.33,24.37-.33,24.37.15,24.37.33Z"/>
      <rect class="cls-16" x="78.25" y="556.42" width="8.25" height="17.4"/>
      <path class="cls-16" d="M107.75,580.64c0,.18-10.91.33-24.37.33s-24.37-.15-24.37-.33,10.91-.33,24.37-.33,24.37.15,24.37.33Z"/>
      <rect class="cls-16" x="78.25" y="591.49" width="8.25" height="17.4"/>
    </g>
    <g>
      <path class="cls-7" d="M189.31,475.47c-3.95,3.24-10.15,3.32-14.18.19-4.03-3.13-5.49-9.15-3.34-13.78-4.9,3.66-13.17.58-14.48-5.39-8.95,1.15-18.36-2.3-24.45-8.96-6.09-6.66-8.68-16.34-6.74-25.15-.18-1.66-.37-3.32-.55-4.98-12.74-4.06-26.66-9.05-33.14-20.74-6.89-12.43-2.86-27.87,1.84-41.29-4.6-3.95-4.66-12.04-.12-16.06-8.45-.43-15.69-7.5-17.73-15.71-2.04-8.21.49-17.09,5.33-24.03,4.84-6.94,11.79-12.14,19.08-16.43,9.29-5.45,19.49-9.63,30.19-10.81,10.7-1.18,21.97.81,30.9,6.83,8.93,6.01,15.21,16.3,15.15,27.06-.06,10.77-7.12,21.49-17.41,24.67,3.88-3.92,11.94-1.04,12.45,4.45,3.11-2.4,7.91-1.36,10.68,1.41s3.88,6.8,4.34,10.7c1.62,13.92-4.32,28.48-15.2,37.3,9.9,2.38,16.36,13.14,15.74,23.3-.62,10.16-7.14,19.29-15.48,25.13,4.46,1.17,6.23,7.8,2.94,11.03,3.97-4.97,12.04-5.34,17.21-1.64,5.17,3.7,7.5,10.51,6.99,16.84-.51,6.34-3.48,12.24-7.17,17.42"/>
      <g>
        <path class="cls-2" d="M164.96,423.2c-.12.03-.19.17-.15.29.04.12.17.19.29.18.12-.01.23-.1.28-.21.01-.02.02-.05.02-.08,0-.03-.03-.05-.06-.07-.06-.05-.12-.1-.19-.12-.07-.02-.16,0-.21.05v-.03Z"/>
        <path class="cls-2" d="M166.85,428.65c0-.67.91-1.13,1.45-.73.31.65-.13,1.54-.84,1.68-.31-.21-.49-.59-.46-.96h-.15Z"/>
        <path class="cls-2" d="M186.68,427.72c-.3.51.1,1.27.69,1.3.59.03,1.08-.68.83-1.22-.25-.54-1.1-.64-1.47-.17l-.06.09Z"/>
        <path class="cls-2" d="M164.17,398.71c.47.24.94.48,1.41.72-.32.39-.88.56-1.36.41-.34-.35-.26-1.01.16-1.28l-.21.15Z"/>
        <path class="cls-2" d="M130.89,437.33c.09-.34.44-.64.78-.56.35.08.49.63.18.8-.3.16-.64-.14-.85-.42l-.12.18Z"/>
        <path class="cls-2" d="M148.42,408c-.02.53.6.97,1.1.78.49-.19.65-.94.28-1.32-.37-.38-1.12-.23-1.32.27l-.06.27Z"/>
        <path class="cls-2" d="M167.14,419.59c-.02.53.6.97,1.1.78.49-.19.65-.94.28-1.32-.37-.38-1.12-.23-1.32.27l-.06.27Z"/>
        <path class="cls-2" d="M142.58,429.21c.07-.39.56-.64.9-.45.35.19.38.77.04.97-.34.2-.85-.14-.77-.52h-.18Z"/>
        <path class="cls-2" d="M146.9,430.12c.31-.37.79-.6,1.11-.24.32.35.26,1.18-.1,1.43-.36.25-.85-.22-.83-.79l-.18-.4Z"/>
      </g>
      <path class="cls-7" d="M126.62,220.85c-24.29,2-23.74,18.86-18.61,29.54,5.14,10.68,20.8,14.42,30.21,7.22,10.5,5.06,24.01,2.08,32.09-6.32s10.64-21.39,7.27-32.54c-2.46-8.13-8-15.43-15.54-19.33-7.54-3.9-17.06-4.12-24.44.08-7.38,4.2-12.14,12.93-10.98,21.34"/>
      <g class="cls-19">
        <path class="cls-3" d="M136.78,336.42c.14.21-1.88,1.95-5.74,3.8-.49.22-1,.45-1.53.69-.53.24-1.11.42-1.7.64-1.17.47-2.47.81-3.84,1.19-2.75.67-5.84,1.17-9.12,1.3-3.28.09-6.4-.19-9.19-.68-1.39-.29-2.71-.55-3.91-.93-.6-.18-1.19-.33-1.74-.53-.54-.2-1.07-.4-1.57-.59-3.98-1.58-6.11-3.18-5.98-3.4.17-.32,2.53.76,6.49,1.9.5.14,1.02.28,1.56.43.54.15,1.12.25,1.71.39,1.17.29,2.45.47,3.78.69,2.69.35,5.66.56,8.78.48,3.12-.12,6.07-.53,8.73-1.07,1.32-.31,2.58-.57,3.73-.95.58-.18,1.15-.32,1.68-.5.53-.19,1.04-.36,1.52-.54,3.87-1.41,6.16-2.64,6.35-2.34Z"/>
      </g>
      <g class="cls-19">
        <path class="cls-3" d="M171.04,385.7c.1.11-.41.74-1.44,1.8-.27.26-.56.55-.87.87-.33.3-.72.6-1.12.94-.82.65-1.73,1.45-2.85,2.14-.55.37-1.13.75-1.74,1.15-.61.39-1.29.72-1.97,1.11-1.35.79-2.89,1.44-4.5,2.15-3.26,1.3-6.99,2.4-11,3.04-4.02.59-7.91.65-11.41.38-1.75-.2-3.41-.35-4.93-.71-.76-.16-1.51-.28-2.21-.47-.69-.2-1.36-.39-2-.57-1.28-.33-2.38-.82-3.36-1.19-.49-.2-.94-.37-1.35-.56-.39-.21-.76-.4-1.09-.57-1.3-.7-1.98-1.15-1.91-1.29.07-.14.87.04,2.25.48.35.12.73.24,1.14.38.42.13.89.24,1.38.37.99.25,2.09.63,3.36.85.63.13,1.28.27,1.96.42.68.14,1.41.21,2.15.33,1.48.26,3.08.34,4.76.48,3.37.14,7.08.02,10.93-.54,3.84-.61,7.42-1.61,10.59-2.75,1.56-.63,3.07-1.19,4.4-1.88.67-.33,1.34-.62,1.95-.95.61-.34,1.19-.67,1.75-.98,1.14-.59,2.08-1.27,2.95-1.81.43-.28.84-.52,1.2-.77.35-.25.68-.49.97-.7,1.18-.83,1.9-1.24,2-1.13Z"/>
      </g>
      <g>
        <g>
          <path class="cls-2" d="M175.97,482.74s1.47-7.84-.45-9.79c0,0,7.03-9.51,7.06-12.33.04-2.82-2.51-9.63-2.51-9.63,0,0,5.36,10.26,9.72,6.31,4.35-3.96,2.53-11.3-.03-17.9-2.57-6.6,10.36-20.57,10.36-20.57,0,0-6.01,16.43-1.82,20.82,4.19,4.39,2.58,10.38,2.58,10.38,0,0-8.75,2.89-4.32,10.59,4.43,7.7,8.28,10.53,8.28,10.53l-3.6-9.52,2.98-8.58s-.14,19.76,6.28,13.66c6.43-6.1,1.31-12.65,8.11-17.97l.7-7.15s4.24,5.86,2.7,9.82c-1.55,3.96-2.7,3.86-2.5,8.08.2,4.22,2.14,9.29-1.4,13.64-3.54,4.34-8.02,8.24-9.2,14.55-1.18,6.31.68,9.74-3.62,11.45-4.3,1.71-9.97,3.58-9.97,3.58l-19.8-20.37"/>
          <g class="cls-19">
            <path class="cls-11" d="M201.14,480.15c-.66-1.14-1.88-2.3-3.12-1.85-1.21.44-1.53,2.13-2.68,2.69-.73.36-1.63.16-2.3-.31-.66-.47-1.13-1.16-1.55-1.85-2.06-3.44-3.29-7.37-3.56-11.38-1.76,1.22-2.66,3.33-3.21,5.4-.56,2.07-.88,4.23-1.88,6.12-.64,1.21-1.53,2.27-2.14,3.49-.61,1.22-.91,2.72-.29,3.94l10.7,11.97c3.8-.78,8.98-3.47,10.57-7.01,1.59-3.54,1.39-7.84-.55-11.21Z"/>
          </g>
        </g>
        <path class="cls-2" d="M204.67,410.07l-2.56-4.93c-4.31,4.11-2.18,12.01-2.18,12.01,1.4-5.78,4.74-7.08,4.74-7.08Z"/>
        <path class="cls-2" d="M218.88,433.29c.9,3.04.39,6.94.39,6.94,4.35-3.47-.39-6.94-.39-6.94Z"/>
      </g>
    </g>
    <g>
      <polygon class="cls-13" points="246.43 676.8 132.53 676.8 132.03 496.79 245.93 496.79 246.43 676.8"/>
      <g class="cls-19">
        <rect class="cls-3" x="188.98" y="496.79" width="56.95" height="180.01"/>
      </g>
      <rect class="cls-13" x="145.04" y="461.35" width="40.22" height="35.44"/>
      <g class="cls-19">
        <rect class="cls-3" x="175.67" y="461.35" width="9.59" height="35.44"/>
      </g>
      <rect class="cls-16" x="122.54" y="494.72" width="126.72" height="2.07"/>
      <rect class="cls-16" x="154.52" y="512.24" width="9.64" height="20.33"/>
      <path class="cls-16" d="M188.98,540.55c0,.21-12.75.39-28.47.39s-28.48-.17-28.48-.39,12.75-.39,28.48-.39,28.47.17,28.47.39Z"/>
      <g>
        <rect class="cls-16" x="211.96" y="512.24" width="9.64" height="20.33"/>
        <path class="cls-16" d="M246.43,540.55c0,.21-12.75.39-28.47.39s-28.48-.17-28.48-.39,12.75-.39,28.48-.39,28.47.17,28.47.39Z"/>
      </g>
      <g>
        <rect class="cls-16" x="211.96" y="552.6" width="9.64" height="20.33"/>
        <path class="cls-16" d="M246.43,580.91c0,.21-12.75.39-28.47.39s-28.48-.17-28.48-.39,12.75-.39,28.48-.39,28.47.17,28.47.39Z"/>
      </g>
      <g>
        <rect class="cls-16" x="211.96" y="594.18" width="9.64" height="20.33"/>
        <path class="cls-16" d="M246.43,622.49c0,.21-12.75.39-28.47.39s-28.48-.17-28.48-.39,12.75-.39,28.48-.39,28.47.17,28.47.39Z"/>
      </g>
      <g>
        <rect class="cls-16" x="211.96" y="635.76" width="9.64" height="20.33"/>
        <path class="cls-16" d="M246.43,664.07c0,.21-12.75.39-28.47.39s-28.48-.17-28.48-.39,12.75-.39,28.48-.39,28.47.17,28.47.39Z"/>
      </g>
      <rect class="cls-16" x="154.52" y="553.22" width="9.64" height="20.33"/>
      <path class="cls-16" d="M188.98,581.53c0,.21-12.75.39-28.47.39s-28.48-.17-28.48-.39,12.75-.39,28.48-.39,28.47.17,28.47.39Z"/>
      <rect class="cls-16" x="154.52" y="594.2" width="9.64" height="20.33"/>
      <path class="cls-16" d="M188.98,622.5c0,.21-12.75.39-28.47.39s-28.48-.17-28.48-.39,12.75-.39,28.48-.39,28.47.17,28.47.39Z"/>
      <rect class="cls-16" x="154.52" y="635.17" width="9.64" height="20.33"/>
      <path class="cls-16" d="M188.98,663.48c0,.21-12.75.39-28.47.39s-28.48-.17-28.48-.39,12.75-.39,28.48-.39,28.47.17,28.47.39Z"/>
    </g>
  </g>
  <g>
    <g>
      <rect class="cls-13" x="739.47" y="367.84" width="97.48" height="308.93"/>
      <g class="cls-19">
        <rect class="cls-3" x="788.21" y="367.84" width="48.74" height="308.93"/>
      </g>
      <rect class="cls-13" x="750.6" y="337.51" width="34.42" height="30.33"/>
      <rect class="cls-16" x="776.82" y="337.51" width="8.2" height="30.33"/>
      <rect class="cls-16" x="731.34" y="366.07" width="108.46" height="1.77"/>
      <rect class="cls-16" x="758.71" y="381.07" width="8.25" height="17.4"/>
      <path class="cls-16" d="M788.21,405.29c0,.18-10.91.33-24.37.33s-24.37-.15-24.37-.33,10.91-.33,24.37-.33,24.37.15,24.37.33Z"/>
      <g>
        <rect class="cls-16" x="807.87" y="381.07" width="8.25" height="17.4"/>
        <path class="cls-16" d="M837.37,405.29c0,.18-10.91.33-24.37.33s-24.37-.15-24.37-.33,10.91-.33,24.37-.33,24.37.15,24.37.33Z"/>
      </g>
      <g>
        <rect class="cls-16" x="807.87" y="415.61" width="8.25" height="17.4"/>
        <path class="cls-16" d="M837.37,439.84c0,.18-10.91.33-24.37.33s-24.37-.15-24.37-.33,10.91-.33,24.37-.33,24.37.15,24.37.33Z"/>
      </g>
      <g>
        <rect class="cls-16" x="807.87" y="451.2" width="8.25" height="17.4"/>
        <path class="cls-16" d="M837.37,475.42c0,.18-10.91.33-24.37.33s-24.37-.15-24.37-.33,10.91-.33,24.37-.33,24.37.15,24.37.33Z"/>
      </g>
      <g>
        <rect class="cls-16" x="807.87" y="486.78" width="8.25" height="17.4"/>
        <path class="cls-16" d="M837.37,511.01c0,.18-10.91.33-24.37.33s-24.37-.15-24.37-.33,10.91-.33,24.37-.33,24.37.15,24.37.33Z"/>
      </g>
      <g>
        <rect class="cls-16" x="807.87" y="521.35" width="8.25" height="17.4"/>
        <path class="cls-16" d="M837.37,545.57c0,.18-10.91.33-24.37.33s-24.37-.15-24.37-.33,10.91-.33,24.37-.33,24.37.15,24.37.33Z"/>
      </g>
      <g>
        <rect class="cls-16" x="807.87" y="556.06" width="8.25" height="17.4"/>
        <rect class="cls-16" x="807.87" y="591.22" width="8.25" height="17.4"/>
        <path class="cls-16" d="M837.37,580.28c0,.18-10.91.33-24.37.33s-24.37-.15-24.37-.33,10.91-.33,24.37-.33,24.37.15,24.37.33Z"/>
      </g>
      <rect class="cls-16" x="758.71" y="416.14" width="8.25" height="17.4"/>
      <path class="cls-16" d="M788.21,440.36c0,.18-10.91.33-24.37.33s-24.37-.15-24.37-.33,10.91-.33,24.37-.33,24.37.15,24.37.33Z"/>
      <rect class="cls-16" x="758.71" y="451.21" width="8.25" height="17.4"/>
      <path class="cls-16" d="M788.21,475.44c0,.18-10.91.33-24.37.33s-24.37-.15-24.37-.33,10.91-.33,24.37-.33,24.37.15,24.37.33Z"/>
      <rect class="cls-16" x="758.71" y="486.28" width="8.25" height="17.4"/>
      <path class="cls-16" d="M788.21,510.5c0,.18-10.91.33-24.37.33s-24.37-.15-24.37-.33,10.91-.33,24.37-.33,24.37.15,24.37.33Z"/>
      <rect class="cls-16" x="758.71" y="521.35" width="8.25" height="17.4"/>
      <path class="cls-16" d="M788.21,545.57c0,.18-10.91.33-24.37.33s-24.37-.15-24.37-.33,10.91-.33,24.37-.33,24.37.15,24.37.33Z"/>
      <rect class="cls-16" x="758.71" y="556.42" width="8.25" height="17.4"/>
      <path class="cls-16" d="M788.21,580.64c0,.18-10.91.33-24.37.33s-24.37-.15-24.37-.33,10.91-.33,24.37-.33,24.37.15,24.37.33Z"/>
      <rect class="cls-16" x="758.71" y="591.49" width="8.25" height="17.4"/>
    </g>
    <g>
      <polygon class="cls-13" points="926.89 676.8 812.99 676.8 812.5 496.79 926.4 496.79 926.89 676.8"/>
      <g class="cls-19">
        <rect class="cls-3" x="869.45" y="496.79" width="56.95" height="180.01"/>
      </g>
      <rect class="cls-13" x="825.5" y="461.35" width="40.22" height="35.44"/>
      <g class="cls-19">
        <rect class="cls-3" x="856.14" y="461.35" width="9.59" height="35.44"/>
      </g>
      <rect class="cls-16" x="803" y="494.72" width="126.72" height="2.07"/>
      <rect class="cls-16" x="834.98" y="512.24" width="9.64" height="20.33"/>
      <path class="cls-16" d="M869.45,540.55c0,.21-12.75.39-28.47.39s-28.48-.17-28.48-.39,12.75-.39,28.48-.39,28.47.17,28.47.39Z"/>
      <g>
        <rect class="cls-16" x="892.42" y="512.24" width="9.64" height="20.33"/>
        <path class="cls-16" d="M926.89,540.55c0,.21-12.75.39-28.47.39s-28.48-.17-28.48-.39,12.75-.39,28.48-.39,28.47.17,28.47.39Z"/>
      </g>
      <g>
        <rect class="cls-16" x="892.42" y="552.6" width="9.64" height="20.33"/>
        <path class="cls-16" d="M926.89,580.91c0,.21-12.75.39-28.47.39s-28.48-.17-28.48-.39,12.75-.39,28.48-.39,28.47.17,28.47.39Z"/>
      </g>
      <g>
        <rect class="cls-16" x="892.42" y="594.18" width="9.64" height="20.33"/>
        <path class="cls-16" d="M926.89,622.49c0,.21-12.75.39-28.47.39s-28.48-.17-28.48-.39,12.75-.39,28.48-.39,28.47.17,28.47.39Z"/>
      </g>
      <g>
        <rect class="cls-16" x="892.42" y="635.76" width="9.64" height="20.33"/>
        <path class="cls-16" d="M926.89,664.07c0,.21-12.75.39-28.47.39s-28.48-.17-28.48-.39,12.75-.39,28.48-.39,28.47.17,28.47.39Z"/>
      </g>
      <rect class="cls-16" x="834.98" y="553.22" width="9.64" height="20.33"/>
      <path class="cls-16" d="M869.45,581.53c0,.21-12.75.39-28.47.39s-28.48-.17-28.48-.39,12.75-.39,28.48-.39,28.47.17,28.47.39Z"/>
      <rect class="cls-16" x="834.98" y="594.2" width="9.64" height="20.33"/>
      <path class="cls-16" d="M869.45,622.5c0,.21-12.75.39-28.47.39s-28.48-.17-28.48-.39,12.75-.39,28.48-.39,28.47.17,28.47.39Z"/>
      <rect class="cls-16" x="834.98" y="635.17" width="9.64" height="20.33"/>
      <path class="cls-16" d="M869.45,663.48c0,.21-12.75.39-28.47.39s-28.48-.17-28.48-.39,12.75-.39,28.48-.39,28.47.17,28.47.39Z"/>
    </g>
  </g>
  <g>
    <g>
      <rect class="cls-16" x="248.81" y="512.65" width="51.55" height="3.47"/>
      <path class="cls-1" d="M306.41,513.3h-63.64c-3.43,0-5.44-3.85-3.49-6.66l3.16-4.57c.79-1.15,2.1-1.83,3.49-1.83h55.98c1.14,0,2.23.46,3.03,1.27l4.5,4.57c2.65,2.68.74,7.23-3.03,7.23Z"/>
      <g class="cls-19">
        <rect class="cls-14" x="259.5" y="500.23" width="30.17" height="13.07"/>
      </g>
    </g>
    <path class="cls-4" d="M914.91,724.67h-12.37v-5.3h12.37c3.21,0,5.83-3.4,5.83-7.57v-101.87c0-4.17-2.61-7.57-5.83-7.57h-12.37v-5.3h12.37c6.14,0,11.13,5.77,11.13,12.87v101.87c0,7.1-4.99,12.87-11.13,12.87Z"/>
    <path class="cls-4" d="M201.82,774.65h-32.18c-2.43,0-4.41-1.98-4.41-4.41v-15h41.01v15c0,2.43-1.98,4.41-4.41,4.41ZM167.88,757.88v12.35c0,.97.79,1.76,1.76,1.76h32.18c.97,0,1.76-.79,1.76-1.76v-12.35h-35.71Z"/>
    <g>
      <path class="cls-1" d="M203.5,500.23h4.79c3.02,0,5.47,2.45,5.47,5.47v4.41c0,2.15-1.74,3.89-3.89,3.89h-7.96c-2.15,0-3.89-1.74-3.89-3.89v-4.41c0-3.02,2.45-5.47,5.47-5.47Z"/>
      <g>
        <rect class="cls-4" x="192.14" y="507.12" width="27.51" height="12.36" rx="4.16" ry="4.16"/>
        <path class="cls-16" d="M215.49,519.47s.26-.03.72-.14c.46-.1,1.14-.33,1.83-.91.66-.57,1.33-1.54,1.4-2.8.01-1.27-.02-2.78-.04-4.41,0-1.54-1.12-3.23-2.9-3.68-.85-.23-1.88-.09-2.9-.12-1.03,0-2.09,0-3.17.01-4.35,0-9.12.02-14.12.03-1.15,0-2.27.54-2.97,1.42-.35.44-.6.95-.73,1.48-.14.53-.11,1.09-.12,1.7,0,1.17,0,2.33,0,3.46.05,1.05.55,2.03,1.3,2.69.76.67,1.73.99,2.71.96,1.03,0,2.03.01,2.99.02,1.92.01,3.72.03,5.37.04,3.21.05,5.84.08,7.78.11.85.03,1.55.05,2.11.06.48.02.74.05.74.07s-.25.05-.74.07c-.56.02-1.26.04-2.11.06-1.93.03-4.57.06-7.78.11-1.65.01-3.45.03-5.37.04-.97,0-1.97.01-2.99.02-1.07.04-2.26-.31-3.13-1.09-.89-.76-1.48-1.91-1.54-3.14,0-1.14-.01-2.31-.02-3.5,0-.57-.03-1.22.13-1.86.15-.63.45-1.23.86-1.75.82-1.03,2.15-1.68,3.51-1.68,5.01,0,9.77.02,14.12.03,1.08,0,2.14,0,3.17.01.51,0,1.02,0,1.52,0,.48-.01,1.05.02,1.53.17,2.03.54,3.27,2.49,3.24,4.22-.02,1.66-.01,3.11-.07,4.45-.12,1.38-.88,2.4-1.62,2.97-.76.58-1.49.78-1.97.84-.49.07-.75,0-.75,0Z"/>
      </g>
    </g>
    <g>
      <path class="cls-1" d="M130.78,654.47h4.79c3.02,0,5.47,2.45,5.47,5.47v4.41c0,2.15-1.74,3.89-3.89,3.89h-7.96c-2.15,0-3.89-1.74-3.89-3.89v-4.41c0-3.02,2.45-5.47,5.47-5.47Z" transform="translate(-528.18 794.54) rotate(-90)"/>
      <g>
        <rect class="cls-4" x="133.18" y="647.6" width="12.36" height="27.51" rx="4.16" ry="4.16"/>
        <path class="cls-16" d="M145.53,651.76s-.03-.26-.14-.72c-.1-.46-.33-1.14-.91-1.83-.57-.66-1.54-1.33-2.8-1.4-1.27-.01-2.78.02-4.41.04-1.54,0-3.23,1.12-3.68,2.9-.23.85-.09,1.88-.12,2.9,0,1.03,0,2.09.01,3.17,0,4.35.02,9.12.03,14.12,0,1.15.54,2.27,1.42,2.97.44.35.95.6,1.48.73.53.14,1.09.11,1.7.12,1.17,0,2.33,0,3.46,0,1.05-.05,2.03-.55,2.69-1.3.67-.76.99-1.73.96-2.71,0-1.03.01-2.03.02-2.99.01-1.92.03-3.72.04-5.37.05-3.21.08-5.84.11-7.78.03-.85.05-1.55.06-2.11.02-.48.05-.74.07-.74s.05.25.07.74c.02.56.04,1.26.06,2.11.03,1.93.06,4.57.11,7.78.01,1.65.03,3.45.04,5.37,0,.97.01,1.97.02,2.99.04,1.07-.31,2.26-1.09,3.13-.76.89-1.91,1.48-3.14,1.54-1.14,0-2.31.01-3.5.02-.57,0-1.22.03-1.86-.13-.63-.15-1.23-.45-1.75-.86-1.03-.82-1.68-2.15-1.68-3.51,0-5.01.02-9.77.03-14.12,0-1.08,0-2.14.01-3.17,0-.51,0-1.02,0-1.52-.01-.48.02-1.05.17-1.53.54-2.03,2.49-3.27,4.22-3.24,1.66.02,3.11.01,4.45.07,1.38.12,2.4.88,2.97,1.62.58.76.78,1.49.84,1.97.07.49,0,.75,0,.75Z"/>
      </g>
    </g>
    <g>
      <path class="cls-1" d="M130.78,721.38h4.79c3.02,0,5.47,2.45,5.47,5.47v4.41c0,2.15-1.74,3.89-3.89,3.89h-7.96c-2.15,0-3.89-1.74-3.89-3.89v-4.41c0-3.02,2.45-5.47,5.47-5.47Z" transform="translate(-595.09 861.44) rotate(-90)"/>
      <g>
        <rect class="cls-4" x="133.18" y="714.51" width="12.36" height="27.51" rx="4.16" ry="4.16"/>
        <path class="cls-16" d="M145.53,718.67s-.03-.26-.14-.72c-.1-.46-.33-1.14-.91-1.83-.57-.66-1.54-1.33-2.8-1.4-1.27-.01-2.78.02-4.41.04-1.54,0-3.23,1.12-3.68,2.9-.23.85-.09,1.88-.12,2.9,0,1.03,0,2.09.01,3.17,0,4.35.02,9.12.03,14.12,0,1.15.54,2.27,1.42,2.97.44.35.95.6,1.48.73.53.14,1.09.11,1.7.12,1.17,0,2.33,0,3.46,0,1.05-.05,2.03-.55,2.69-1.3.67-.76.99-1.73.96-2.71,0-1.03.01-2.03.02-2.99.01-1.92.03-3.72.04-5.37.05-3.21.08-5.84.11-7.78.03-.85.05-1.55.06-2.11.02-.48.05-.74.07-.74s.05.25.07.74c.02.56.04,1.26.06,2.11.03,1.93.06,4.57.11,7.78.01,1.65.03,3.45.04,5.37,0,.97.01,1.97.02,2.99.04,1.07-.31,2.26-1.09,3.13-.76.89-1.91,1.48-3.14,1.54-1.14,0-2.31.01-3.5.02-.57,0-1.22.03-1.86-.13-.63-.15-1.23-.45-1.75-.86-1.03-.82-1.68-2.15-1.68-3.51,0-5.01.02-9.77.03-14.12,0-1.08,0-2.14.01-3.17,0-.51,0-1.02,0-1.52-.01-.48.02-1.05.17-1.53.54-2.03,2.49-3.27,4.22-3.24,1.66.02,3.11.01,4.45.07,1.38.12,2.4.88,2.97,1.62.58.76.78,1.49.84,1.97.07.49,0,.75,0,.75Z"/>
      </g>
    </g>
    <path class="cls-1" d="M352.74,500.23h4.79c3.02,0,5.47,2.45,5.47,5.47v4.41c0,2.15-1.74,3.89-3.89,3.89h-7.96c-2.15,0-3.89-1.74-3.89-3.89v-4.41c0-3.02,2.45-5.47,5.47-5.47Z"/>
    <g>
      <rect class="cls-4" x="341.39" y="507.12" width="27.51" height="12.36" rx="4.16" ry="4.16"/>
      <path class="cls-16" d="M364.73,519.47s.26-.03.72-.14c.46-.1,1.14-.33,1.83-.91.66-.57,1.33-1.54,1.4-2.8.01-1.27-.02-2.78-.04-4.41,0-1.54-1.12-3.23-2.9-3.68-.85-.23-1.88-.09-2.9-.12-1.03,0-2.09,0-3.17.01-4.35,0-9.12.02-14.12.03-1.15,0-2.27.54-2.97,1.42-.35.44-.6.95-.73,1.48-.14.53-.11,1.09-.12,1.7,0,1.17,0,2.33,0,3.46.05,1.05.55,2.03,1.3,2.69.76.67,1.73.99,2.71.96,1.03,0,2.03.01,2.99.02,1.92.01,3.72.03,5.37.04,3.21.05,5.84.08,7.78.11.85.03,1.55.05,2.11.06.48.02.74.05.74.07s-.25.05-.74.07c-.56.02-1.26.04-2.11.06-1.93.03-4.57.06-7.78.11-1.65.01-3.45.03-5.37.04-.97,0-1.97.01-2.99.02-1.07.04-2.26-.31-3.13-1.09-.89-.76-1.48-1.91-1.54-3.14,0-1.14-.01-2.31-.02-3.5,0-.57-.03-1.22.13-1.86.15-.63.45-1.23.86-1.75.82-1.03,2.15-1.68,3.51-1.68,5.01,0,9.77.02,14.12.03,1.08,0,2.14,0,3.17.01.51,0,1.02,0,1.52,0,.48-.01,1.05.02,1.53.17,2.03.54,3.27,2.49,3.24,4.22-.02,1.66-.01,3.11-.07,4.45-.12,1.38-.88,2.4-1.62,2.97-.76.58-1.49.78-1.97.84-.49.07-.75,0-.75,0Z"/>
    </g>
    <g>
      <rect class="cls-1" x="151.43" y="670.56" width="742.31" height="87.12"/>
      <g class="cls-19">
        <rect class="cls-3" x="151.43" y="670.56" width="742.31" height="87.12"/>
      </g>
    </g>
    <path class="cls-1" d="M467.38,759.12c-.36.56,197.19-2.23,197.19-2.23,0,0,5.31-71.5,74.31-72.67,69-1.17,74.25,70.45,74.25,70.45h94.6v-209.23h-440.36v213.68Z"/>
    <g class="cls-19">
      <g>
        <rect class="cls-3" x="472.06" y="565.21" width="8.64" height="42.51"/>
        <rect class="cls-3" x="508.08" y="565.21" width="8.64" height="42.51"/>
        <rect class="cls-3" x="544.09" y="565.21" width="8.64" height="42.51"/>
        <rect class="cls-3" x="580.11" y="565.21" width="8.64" height="42.51"/>
        <rect class="cls-3" x="616.13" y="565.21" width="8.64" height="42.51"/>
        <rect class="cls-3" x="652.14" y="565.21" width="8.64" height="42.51"/>
        <rect class="cls-3" x="688.16" y="565.21" width="8.64" height="42.51"/>
        <rect class="cls-3" x="724.17" y="565.21" width="8.64" height="42.51"/>
        <rect class="cls-3" x="760.19" y="565.21" width="8.64" height="42.51"/>
        <rect class="cls-3" x="794.37" y="565.21" width="8.64" height="42.51"/>
        <rect class="cls-3" x="828.55" y="565.21" width="8.64" height="42.51"/>
        <rect class="cls-3" x="862.74" y="565.21" width="8.64" height="42.51"/>
      </g>
      <rect class="cls-3" x="451.14" y="607.72" width="446.88" height="5.75" rx="2.22" ry="2.22"/>
      <rect class="cls-3" x="451.14" y="564.25" width="446.88" height="5.75" rx="2.22" ry="2.22"/>
    </g>
    <path class="cls-1" d="M174.73,523.08l-34.04,105.06v129.55h66.05s.11-77.14,72.56-75.87c72.44,1.28,74.46,75.87,74.46,75.87h39.2v-231.5c0-5.56-4.51-10.06-10.06-10.06h-198.6c-4.36,0-8.23,2.81-9.57,6.96Z"/>
    <path class="cls-14" d="M382.9,516.12h-198.6c-4.36,0-8.23,2.81-9.57,6.96l-31.17,96.21,11.16,1.5h238.25v-94.61c0-5.56-4.51-10.06-10.06-10.06Z"/>
    <g>
      <path class="cls-13" d="M169.69,538.63s9.61-.79,6.76,9.76c-2.89,10.7-21.61,72.84-21.61,72.84l-13.25,4.11,28.09-86.7Z"/>
      <path class="cls-16" d="M169.69,538.63s-.03.17-.12.48c-.1.35-.23.78-.39,1.33-.38,1.21-.9,2.9-1.56,5.05-1.4,4.42-3.39,10.72-5.86,18.52-5.03,15.65-11.97,37.28-19.74,61.46l-.56-.56c2-.62,4.15-1.29,6.31-1.96,2.38-.74,4.73-1.47,6.94-2.15l-.29.3c7.25-24.24,13.72-45.89,18.4-61.54,1.18-3.89,2.24-7.41,3.18-10.5.47-1.54.74-2.99.75-4.34.02-1.35-.37-2.56-.97-3.46-.61-.91-1.45-1.49-2.23-1.82-.78-.35-1.49-.53-2.07-.62-.58-.1-1.03-.12-1.33-.14-.31-.01-.45-.02-.46-.03-.01-.01.16-.04.46-.06.3,0,.76-.02,1.36.06.59.06,1.33.22,2.15.55.82.32,1.73.91,2.4,1.86.67.95,1.1,2.24,1.11,3.65.02,1.4-.25,2.93-.7,4.48-.9,3.11-1.93,6.63-3.06,10.54-4.61,15.68-10.99,37.36-18.14,61.64l-.07.23-.23.07c-2.21.68-4.56,1.42-6.94,2.15-2.16.67-4.3,1.33-6.31,1.95l-.83.26.27-.82c7.92-24.24,15.01-45.91,20.13-61.6,2.56-7.73,4.64-13.98,6.09-18.36.71-2.1,1.27-3.75,1.67-4.93.18-.52.33-.93.45-1.26.1-.28.16-.42.17-.41Z"/>
    </g>
    <g>
      <path class="cls-13" d="M203.78,545.61l-18.43,53.11c-2.46,7.1,2.81,14.51,10.32,14.51h56.7c4.12,0,7.45-3.34,7.45-7.45v-61.05c0-3.38-2.74-6.12-6.12-6.12h-40.09c-4.44,0-8.38,2.81-9.84,7Z"/>
      <path class="cls-16" d="M203.78,545.61s.17-.96,1.15-2.48c.96-1.48,2.95-3.61,6.36-4.43,1.71-.42,3.63-.24,5.68-.3,2.07-.01,4.32-.02,6.74-.04,4.84-.02,10.35-.04,16.43-.07,3.04,0,6.23-.02,9.55-.03.83,0,1.67,0,2.52,0,.84.01,1.7-.06,2.62.1,1.81.29,3.49,1.44,4.46,3.08.48.81.8,1.74.88,2.71.06.98.02,1.85.04,2.78,0,1.85,0,3.73.01,5.63,0,3.81.01,7.74.02,11.76,0,8.05.02,16.49.03,25.25,0,4.38,0,8.83,0,13.36-.01,1.14.03,2.23-.03,3.44-.08,1.2-.45,2.39-1.08,3.43-1.22,2.11-3.49,3.58-5.94,3.84-18.59,0-36.3,0-52.42.01-2.02-.03-3.97.05-5.99-.06-2.03-.15-3.98-.84-5.6-1.97-3.25-2.28-5.06-6.18-4.82-9.88.08-1.87.78-3.58,1.33-5.19.57-1.63,1.13-3.23,1.68-4.8,1.1-3.13,2.15-6.14,3.16-9.02,4.04-11.45,7.31-20.72,9.59-27.19,1.14-3.17,2.03-5.64,2.65-7.38.3-.81.54-1.44.71-1.91.16-.43.26-.65.27-.64.01,0-.05.23-.18.67-.15.48-.36,1.12-.63,1.94-.58,1.75-1.42,4.24-2.49,7.43-2.22,6.49-5.4,15.8-9.32,27.28-.99,2.88-2.03,5.89-3.1,9.03-.54,1.57-1.09,3.17-1.65,4.81-.56,1.65-1.21,3.26-1.26,4.99-.21,3.45,1.5,7.09,4.53,9.2,1.51,1.04,3.33,1.68,5.21,1.81,1.9.1,3.93.02,5.93.04,16.09-.02,33.76-.05,52.32-.08,2.17-.23,4.19-1.53,5.27-3.4.56-.92.89-1.97.95-3.04.05-1.07.02-2.25.03-3.37,0-4.52,0-8.98,0-13.36,0-8.76.02-17.2.03-25.25,0-4.02.01-7.95.02-11.76,0-1.91,0-3.78.01-5.63,0-.91.03-1.88-.02-2.72-.07-.85-.34-1.67-.77-2.4-.85-1.45-2.34-2.48-3.94-2.75-.78-.14-1.65-.08-2.5-.1-.85,0-1.69,0-2.52,0-3.32-.01-6.51-.02-9.55-.03-6.08-.02-11.58-.05-16.43-.07-2.41-.01-4.66-.03-6.74-.04-2.07.03-3.98-.17-5.61.21-3.31.74-5.3,2.77-6.29,4.19-1.02,1.47-1.24,2.41-1.3,2.38Z"/>
    </g>
    <g class="cls-17">
      <path class="cls-16" d="M253.58,538.32l-42.29.39-3.97,2.07c3.72,3.09,5.08,5.63,4.11,10.37l-16.23,55.22-10.16-2.47c.31,7.01,8.9,9.33,8.9,9.33,0,0,29.06-.3,29.7.05l-18.46-4.49,16.85-56.28c.89-4.17,4.56-7.14,8.82-7.14h29.19v-.65c0-3.56-2.9-6.44-6.46-6.4Z"/>
    </g>
    <path class="cls-16" d="M276.53,665.65c-.25,0-.45-29.82-.45-66.59s.2-66.59.45-66.59.45,29.81.45,66.59-.2,66.59-.45,66.59Z"/>
    <path class="cls-16" d="M253.76,633.17c-.04-.12,1.1.05,2.51-1.01.68-.53,1.37-1.42,1.57-2.63.18-1.2,0-2.7-1.08-3.8-.51-.55-1.21-.98-2-1.16-.76-.21-1.7-.08-2.65-.1-1.91.01-3.94.03-6.07.04-4.29.01-8.98.02-13.9.04-2.29-.04-4.15,2.06-3.97,4.24-.04,2.15,1.83,3.94,3.79,3.97,4.23.04,8.06.07,11.34.11,3.11.06,5.69.11,7.65.14,1.81.05,2.81.11,2.81.17s-1,.12-2.81.17c-1.96.04-4.54.08-7.65.14-3.29.02-7.13.05-11.37.09-2.36,0-4.67-2.16-4.63-4.79-.06-1.22.36-2.59,1.27-3.56.88-.98,2.21-1.59,3.57-1.58,4.92.01,9.61.02,13.9.04,2.13.01,4.16.03,6.07.04.94.04,1.87-.08,2.82.18.92.24,1.72.76,2.29,1.4,1.2,1.3,1.36,3.03,1.11,4.32-.27,1.35-1.08,2.29-1.85,2.82-.77.55-1.51.7-1.99.75-.48.05-.74,0-.74-.02Z"/>
    <rect class="cls-13" x="291.4" y="538.61" width="76.15" height="76.15" rx="2.94" ry="2.94"/>
    <rect class="cls-1" x="392.97" y="625.33" width="82.82" height="114.62"/>
    <g>
      <rect class="cls-4" x="471.46" y="626.94" width="133.97" height="110.38" rx="3.79" ry="3.79"/>
      <path class="cls-16" d="M601.65,737.32s.44.03,1.21-.24c.74-.25,1.92-.98,2.36-2.53.23-.76.1-1.67.13-2.66,0-.99-.01-2.08-.02-3.25,0-2.35-.02-5.06-.03-8.11-.03-12.22-.06-29.87-.11-51.67-.01-10.91-.03-22.86-.04-35.68,0-.8,0-1.61,0-2.42,0-.75-.23-1.5-.68-2.11-.44-.61-1.1-1.06-1.82-1.28-.71-.22-1.54-.12-2.38-.14-3.31,0-6.68,0-10.1,0-6.83,0-13.86,0-21.07.01-28.84,0-60.55.02-93.84.03-.95,0-1.88.4-2.53,1.1-.65.7-.98,1.62-.93,2.61,0,2.07,0,4.13,0,6.19,0,4.11,0,8.19,0,12.25,0,8.11,0,16.09,0,23.94,0,15.7-.01,30.84-.02,45.26,0,3.61,0,7.17,0,10.68,0,.88,0,1.75,0,2.63.03.87-.09,1.77.12,2.52.4,1.57,1.96,2.68,3.58,2.57,6.83,0,13.47.01,19.88.02,12.83.02,24.77.03,35.68.04,21.8.05,39.45.08,51.67.11,6.09.03,10.82.05,14.05.06,1.59.01,2.81.03,3.65.03.82.01,1.24.04,1.24.04,0,0-.42.02-1.24.04-.84,0-2.06.02-3.65.03-3.23.01-7.96.04-14.05.06-12.22.03-29.86.06-51.67.11-10.91.01-22.86.03-35.68.04-6.41,0-13.05.01-19.88.02-1.82.13-3.71-1.17-4.17-3.02-.13-.44-.16-.95-.15-1.37v-1.31c0-.87,0-1.75,0-2.63,0-3.51,0-7.07,0-10.68,0-14.42-.01-29.57-.02-45.26,0-7.85,0-15.84,0-23.94,0-4.05,0-8.14,0-12.25,0-2.06,0-4.12,0-6.19-.06-1.08.33-2.27,1.12-3.08.77-.83,1.9-1.33,3.03-1.32,33.28,0,64.99.02,93.84.03,7.21,0,14.24,0,21.07.01,3.42,0,6.78,0,10.1,0,.81.03,1.66-.09,2.54.17.85.26,1.61.79,2.12,1.5.53.7.79,1.59.79,2.45,0,.81,0,1.61,0,2.42-.02,12.82-.03,24.77-.04,35.68-.05,21.8-.08,39.45-.11,51.67-.01,3.05-.02,5.76-.03,8.11,0,1.17-.01,2.26-.02,3.25-.04.98.08,1.9-.17,2.7-.49,1.6-1.72,2.32-2.48,2.56-.8.25-1.23.17-1.23.17Z"/>
    </g>
    <rect class="cls-9" x="477.46" y="631.14" width="121.84" height="100.95" rx=".9" ry=".9"/>
    <rect class="cls-1" x="496.96" y="662.85" width="9.76" height="23.6" rx="2.76" ry="2.76"/>
    <rect class="cls-1" x="513.38" y="662.85" width="9.76" height="23.6" rx="2.76" ry="2.76"/>
    <rect class="cls-1" x="529.79" y="662.85" width="9.76" height="23.6" rx="2.76" ry="2.76"/>
    <path class="cls-13" d="M586.56,671.63c0,7.65-6.2,13.86-13.86,13.86s-13.86-6.2-13.86-13.86,6.2-13.86,13.86-13.86,13.86,6.2,13.86,13.86Z"/>
    <g>
      <path class="cls-16" d="M513.76,711.15c0,5.18-4.2,9.38-9.38,9.38s-9.38-4.2-9.38-9.38,4.2-9.38,9.38-9.38,9.38,4.2,9.38,9.38Z"/>
      <path class="cls-4" d="M504.38,721.2c-5.54,0-10.04-4.51-10.04-10.04s4.51-10.04,10.04-10.04,10.04,4.51,10.04,10.04-4.51,10.04-10.04,10.04ZM504.38,702.43c-4.81,0-8.72,3.91-8.72,8.72s3.91,8.72,8.72,8.72,8.72-3.91,8.72-8.72-3.91-8.72-8.72-8.72Z"/>
    </g>
    <g>
      <path class="cls-16" d="M538.58,711.22c0,5.18-4.2,9.38-9.38,9.38s-9.38-4.2-9.38-9.38,4.2-9.38,9.38-9.38,9.38,4.2,9.38,9.38Z"/>
      <path class="cls-4" d="M529.2,721.26c-5.54,0-10.04-4.51-10.04-10.04s4.51-10.04,10.04-10.04,10.04,4.51,10.04,10.04-4.51,10.04-10.04,10.04ZM529.2,702.5c-4.81,0-8.72,3.91-8.72,8.72s3.91,8.72,8.72,8.72,8.72-3.91,8.72-8.72-3.91-8.72-8.72-8.72Z"/>
    </g>
    <g>
      <path class="cls-16" d="M563.4,711.29c0,5.18-4.2,9.38-9.38,9.38s-9.38-4.2-9.38-9.38,4.2-9.38,9.38-9.38,9.38,4.2,9.38,9.38Z"/>
      <path class="cls-4" d="M554.01,721.33c-5.54,0-10.04-4.51-10.04-10.04s4.51-10.04,10.04-10.04,10.04,4.51,10.04,10.04-4.51,10.04-10.04,10.04ZM554.01,702.57c-4.81,0-8.72,3.91-8.72,8.72s3.91,8.72,8.72,8.72,8.72-3.91,8.72-8.72-3.91-8.72-8.72-8.72Z"/>
    </g>
    <g>
      <path class="cls-16" d="M588.21,711.09c0,5.18-4.2,9.38-9.38,9.38s-9.38-4.2-9.38-9.38,4.2-9.38,9.38-9.38,9.38,4.2,9.38,9.38Z"/>
      <path class="cls-4" d="M578.83,721.13c-5.54,0-10.04-4.51-10.04-10.04s4.51-10.04,10.04-10.04,10.04,4.51,10.04,10.04-4.51,10.04-10.04,10.04ZM578.83,702.37c-4.81,0-8.72,3.91-8.72,8.72s3.91,8.72,8.72,8.72,8.72-3.91,8.72-8.72-3.91-8.72-8.72-8.72Z"/>
    </g>
    <path class="cls-16" d="M580.5,671.63c0,4.3-3.49,7.79-7.79,7.79s-7.79-3.49-7.79-7.79,3.49-7.79,7.79-7.79,7.79,3.49,7.79,7.79Z"/>
    <rect class="cls-4" x="808.39" y="734.79" width="107.29" height="27.45" rx="2.79" ry="2.79"/>
    <path class="cls-4" d="M350,739.95h321.77v14.39c0,3.2-2.6,5.81-5.81,5.81h-313.94c-1.12,0-2.02-.91-2.02-2.02v-18.18h0Z"/>
    <rect class="cls-4" x="135.91" y="687.44" width="30.7" height="20.36"/>
    <path class="cls-4" d="M167.05,651.02c-.73.73-.43,84.95-.43,84.95l.2,8.98h29.5l.02-1.9c.07-5.66.99-11.28,2.79-16.65,6.27-18.71,25.39-57.22,76.96-59.46v-17.71l-109.03,1.79Z"/>
    <g>
      <path class="cls-16" d="M222.9,750.57c-.47,32.64,25.6,59.47,58.24,59.94,32.64.47,59.47-25.6,59.95-58.24.47-32.64-25.6-59.47-58.24-59.95-32.64-.47-59.47,25.6-59.95,58.24Z"/>
      <path class="cls-13" d="M244.4,750.88c-.3,20.76,16.29,37.83,37.05,38.13,20.76.3,37.83-16.29,38.13-37.05.3-20.76-16.29-37.83-37.05-38.13-20.76-.3-37.83,16.29-38.13,37.05Z"/>
      <path class="cls-1" d="M256.72,751.06c-.2,13.96,10.95,25.44,24.91,25.64,13.96.2,25.44-10.95,25.64-24.91.2-13.96-10.95-25.44-24.91-25.64-13.96-.2-25.43,10.95-25.64,24.91Z"/>
      <g>
        <circle class="cls-4" cx="281.99" cy="751.42" r="10.05"/>
        <path class="cls-16" d="M292.04,751.42c-.08,0-.04-.9-.44-2.42-.4-1.5-1.42-3.69-3.67-5.37-1.12-.82-2.52-1.52-4.13-1.8-1.6-.27-3.41-.21-5.12.45-1.71.62-3.35,1.79-4.51,3.4-1.19,1.59-1.86,3.63-1.88,5.74.02,2.11.69,4.15,1.88,5.74,1.16,1.61,2.79,2.78,4.51,3.4,1.71.66,3.52.72,5.12.45,1.61-.28,3.01-.97,4.13-1.8,2.25-1.69,3.27-3.88,3.67-5.37.41-1.53.37-2.43.44-2.42.02,0,.04.22.04.64,0,.42-.04,1.05-.22,1.84-.33,1.56-1.31,3.87-3.64,5.7-1.15.89-2.62,1.65-4.32,1.97-1.69.31-3.61.27-5.44-.42-1.83-.64-3.59-1.88-4.84-3.6-1.28-1.7-2.01-3.89-2.03-6.14.02-2.25.75-4.44,2.03-6.14,1.25-1.72,3-2.95,4.84-3.6,1.83-.68,3.75-.72,5.44-.42,1.7.32,3.17,1.08,4.32,1.97,2.33,1.82,3.31,4.14,3.64,5.7.18.79.23,1.42.22,1.84,0,.42-.01.65-.04.65Z"/>
      </g>
    </g>
    <g>
      <path class="cls-16" d="M681.56,750.57c-.47,32.64,25.6,59.47,58.24,59.94,32.64.47,59.47-25.6,59.95-58.24.47-32.64-25.6-59.47-58.24-59.95-32.64-.47-59.47,25.6-59.95,58.24Z"/>
      <path class="cls-13" d="M703.06,750.88c-.3,20.76,16.29,37.83,37.05,38.13,20.76.3,37.83-16.29,38.13-37.05.3-20.76-16.29-37.83-37.05-38.13-20.76-.3-37.83,16.29-38.13,37.05Z"/>
      <path class="cls-1" d="M715.38,751.06c-.2,13.96,10.95,25.44,24.91,25.64,13.96.2,25.44-10.95,25.64-24.91.2-13.96-10.95-25.44-24.91-25.64-13.96-.2-25.43,10.95-25.64,24.91Z"/>
      <g>
        <circle class="cls-4" cx="740.65" cy="751.42" r="10.05"/>
        <path class="cls-16" d="M750.71,751.42c-.08,0-.04-.9-.44-2.42-.4-1.5-1.42-3.69-3.67-5.37-1.12-.82-2.52-1.52-4.13-1.8-1.6-.27-3.41-.21-5.12.45-1.71.62-3.35,1.79-4.51,3.4-1.19,1.59-1.86,3.63-1.88,5.74.02,2.11.69,4.15,1.88,5.74,1.16,1.61,2.79,2.78,4.51,3.4,1.71.66,3.52.72,5.12.45,1.61-.28,3.01-.97,4.13-1.8,2.25-1.69,3.27-3.88,3.67-5.37.41-1.53.37-2.43.44-2.42.02,0,.04.22.04.64,0,.42-.04,1.05-.22,1.84-.33,1.56-1.31,3.87-3.64,5.7-1.15.89-2.62,1.65-4.32,1.97-1.69.31-3.61.27-5.44-.42-1.83-.64-3.59-1.88-4.84-3.6-1.28-1.7-2.01-3.89-2.03-6.14.02-2.25.75-4.44,2.03-6.14,1.25-1.72,3-2.95,4.84-3.6,1.83-.68,3.75-.72,5.44-.42,1.7.32,3.17,1.08,4.32,1.97,2.33,1.82,3.31,4.14,3.64,5.7.18.79.23,1.42.22,1.84,0,.42-.01.65-.04.65Z"/>
      </g>
    </g>
    <path class="cls-9" d="M208.19,650.45c.15.12-9.07,11.66-20.58,25.78-11.51,14.12-20.96,25.47-21.11,25.34-.15-.12,9.06-11.66,20.58-25.78,11.51-14.12,20.96-25.46,21.11-25.34Z"/>
    <path class="cls-9" d="M189.21,650.66c.15.12-4.7,6.32-10.83,13.85-6.13,7.53-11.22,13.53-11.37,13.41-.15-.12,4.7-6.32,10.83-13.85,6.13-7.53,11.22-13.53,11.37-13.41Z"/>
    <path class="cls-9" d="M231.02,650.45s-.18.3-.59.82c-.45.57-1.04,1.33-1.79,2.28-1.57,1.96-3.87,4.78-6.73,8.24-5.73,6.92-13.74,16.39-22.62,26.83-8.87,10.4-16.9,19.82-22.77,26.7-2.88,3.37-5.22,6.13-6.9,8.09-.78.91-1.41,1.64-1.89,2.19-.44.5-.68.75-.69.73-.02-.01.18-.3.59-.82.45-.57,1.04-1.33,1.79-2.27,1.57-1.96,3.87-4.78,6.73-8.24,5.73-6.92,13.74-16.39,22.62-26.83,8.87-10.4,16.9-19.81,22.77-26.69,2.88-3.37,5.22-6.13,6.9-8.09.78-.91,1.41-1.64,1.89-2.19.44-.5.68-.75.69-.73Z"/>
    <path class="cls-9" d="M253.31,650.29c.15.12-17.6,21.42-39.64,47.55-22.04,26.15-40.03,47.24-40.17,47.11-.15-.12,17.6-21.41,39.64-47.56,22.04-26.14,40.02-47.23,40.17-47.11Z"/>
    <path class="cls-9" d="M261.6,667.39c-.15-.12,2.9-4.19,6.82-9.08,3.92-4.9,7.21-8.77,7.36-8.65.15.12-2.9,4.19-6.82,9.08-3.91,4.9-7.21,8.77-7.36,8.65Z"/>
    <path class="cls-9" d="M231.62,650.24c.15-.12,4.18,4.61,9.01,10.55,4.83,5.95,8.62,10.87,8.47,10.99s-4.18-4.61-9.01-10.56c-4.83-5.95-8.62-10.87-8.47-10.99Z"/>
    <path class="cls-9" d="M250.6,650.45c.16-.11,2.99,3.64,6.33,8.38,3.34,4.74,5.92,8.67,5.77,8.78-.16.11-2.99-3.64-6.33-8.38-3.34-4.74-5.92-8.67-5.77-8.78Z"/>
    <path class="cls-9" d="M208.78,650.24s.41.35,1.06,1.05c.73.83,1.63,1.84,2.69,3.03,2.25,2.58,5.32,6.17,8.68,10.17,3.36,4,6.37,7.64,8.52,10.3.99,1.25,1.83,2.31,2.52,3.17.58.76.89,1.19.85,1.22s-.41-.34-1.06-1.05c-.73-.83-1.63-1.84-2.69-3.03-2.25-2.58-5.32-6.17-8.68-10.17-3.36-4-6.37-7.64-8.52-10.3-.99-1.25-1.83-2.31-2.52-3.17-.58-.76-.89-1.19-.85-1.22Z"/>
    <path class="cls-9" d="M187.35,651.08c.15-.12,7.49,8.35,16.4,18.91,8.91,10.57,16.02,19.24,15.87,19.36-.15.12-7.49-8.34-16.4-18.92-8.91-10.57-16.01-19.24-15.87-19.36Z"/>
    <path class="cls-9" d="M210.83,702.51c-.14.13-10.06-11.05-22.15-24.96-12.09-13.91-21.77-25.29-21.63-25.41.14-.12,10.06,11.05,22.15,24.96,12.09,13.91,21.77,25.28,21.63,25.41Z"/>
    <path class="cls-9" d="M202.36,717.09c-.14.13-8.26-8.97-18.13-20.31-9.87-11.35-17.76-20.64-17.61-20.77s8.26,8.97,18.13,20.31c9.87,11.34,17.75,20.64,17.61,20.76Z"/>
    <path class="cls-9" d="M196.8,736.33c-.14.13-7.04-7.3-15.41-16.59-8.37-9.29-15.04-16.93-14.9-17.06.14-.13,7.04,7.3,15.42,16.59,8.37,9.29,15.04,16.93,14.9,17.06Z"/>
    <path class="cls-16" d="M363.17,738.15s-.08-.19-.19-.58c-.12-.43-.28-1-.48-1.72-.22-.75-.42-1.7-.77-2.78-.37-1.09-.79-2.34-1.26-3.74-.49-1.4-1.16-2.91-1.82-4.59-.69-1.67-1.59-3.41-2.47-5.33-1.97-3.72-4.26-7.94-7.34-12.27-6.01-8.67-14.44-18.41-26.15-26.12-2.91-1.93-6.08-3.6-9.41-5.1-3.38-1.41-6.88-2.75-10.52-3.86-3.62-1.19-7.41-2.04-11.25-2.83-3.87-.65-7.82-1.25-11.86-1.38-8.06-.45-15.97.52-23.32,2.43-7.33,2.03-14.08,5.08-19.98,8.82-11.84,7.52-20.43,17.13-26.44,25.79-3.02,4.36-5.26,8.61-7.11,12.39-.83,1.93-1.63,3.72-2.27,5.41-.58,1.71-1.18,3.25-1.59,4.67-.39,1.42-.74,2.69-1.04,3.8-.28,1.11-.42,2.06-.59,2.83-.15.73-.27,1.3-.36,1.74-.09.39-.14.59-.15.59-.02,0,0-.21.06-.6.07-.44.16-1.02.28-1.76.14-.77.25-1.74.51-2.85.28-1.12.6-2.4.97-3.84.39-1.44.97-2.99,1.53-4.72.62-1.7,1.4-3.51,2.22-5.47,1.81-3.82,4.04-8.12,7.04-12.53,5.99-8.77,14.58-18.5,26.52-26.14,5.95-3.8,12.78-6.9,20.2-8.97,7.43-1.95,15.44-2.93,23.59-2.48,4.08.13,8.07.74,11.98,1.4,3.88.8,7.7,1.67,11.35,2.87,3.67,1.12,7.19,2.48,10.6,3.91,3.38,1.53,6.59,3.23,9.53,5.19,11.81,7.84,20.24,17.68,26.22,26.45,3.06,4.37,5.32,8.65,7.26,12.4.86,1.93,1.74,3.7,2.41,5.38.64,1.7,1.29,3.22,1.75,4.64.44,1.41.84,2.67,1.18,3.78.32,1.1.5,2.06.69,2.82.16.73.29,1.3.39,1.74.08.39.12.6.1.6Z"/>
    <path class="cls-9" d="M183.56,744.96c-.14.13-4.05-3.98-8.73-9.17-4.68-5.19-8.36-9.5-8.21-9.63.14-.13,4.05,3.98,8.73,9.17,4.68,5.19,8.35,9.5,8.21,9.63Z"/>
    <path class="cls-16" d="M166.61,757.69s-.03-.2-.05-.59c-.01-.44-.03-1.01-.04-1.74-.02-1.58-.05-3.82-.08-6.68-.03-5.86-.08-14.24-.14-24.58-.03-20.8-.08-49.44-.13-81.08,0-6.89,0-13.63,0-20.1v-.06l.02-.06c7.27-25.86,13.66-48.6,18.26-64.94,2.31-8.09,4.17-14.6,5.47-19.13.65-2.2,1.15-3.91,1.51-5.14.17-.55.31-.98.41-1.32.1-.3.15-.45.17-.44s-.02.16-.09.46c-.09.35-.2.79-.33,1.35-.32,1.23-.78,2.97-1.36,5.18-1.24,4.56-3.01,11.08-5.22,19.21-4.52,16.36-10.81,39.13-17.96,65.02l.02-.12c0,6.47,0,13.22,0,20.1-.05,31.64-.1,60.28-.13,81.08-.06,10.33-.11,18.72-.14,24.58-.04,2.86-.06,5.1-.08,6.68-.02.73-.03,1.3-.04,1.74-.02.39-.03.59-.05.59Z"/>
    <path class="cls-4" d="M194.53,569.87c-1.37,0-2.49-1.12-2.49-2.49v-35.57h-5.16v35.57c0,4.22,3.43,7.65,7.65,7.65h2.6v-5.16h-2.6Z"/>
    <path class="cls-1" d="M201.51,591.62h0c-2.42,0-4.39-1.96-4.39-4.39v-37.41c0-2.42,1.96-4.39,4.39-4.39h0c2.42,0,4.39,1.96,4.39,4.39v37.41c0,2.42-1.96,4.39-4.39,4.39Z"/>
    <path class="cls-16" d="M206.22,613.29l3.5-6.46v-5.38l-11.55-6.13c-.92-.49-1.3-1.61-.86-2.55h0c.46-1,1.65-1.42,2.64-.94l33.48,16.31c.79.39,1.09,1.36.66,2.13h0c-.4.69-1.26.96-1.98.62l-12.17-5.04-4.23,2.33-2.42,5.08-7.06.04Z"/>
    <path class="cls-16" d="M393.98,531.82c0,.25-49.71.45-111.02.45s-111.03-.2-111.03-.45,49.7-.45,111.03-.45,111.02.2,111.02.45Z"/>
    <g>
      <rect class="cls-1" x="281.99" y="581.97" width="4.82" height="81.56" rx="1.86" ry="1.86"/>
      <path class="cls-16" d="M284.95,663.53s.15-.01.43-.09c.27-.08.68-.25,1-.7.16-.22.29-.5.33-.84.03-.32,0-.72,0-1.13,0-.83-.02-1.78-.03-2.85-.03-4.34-.06-10.53-.11-18.17-.02-7.69-.05-16.82-.07-26.95,0-5.07-.01-10.4-.02-15.91,0-2.76,0-5.57,0-8.42,0-1.42,0-2.86,0-4.3.06-.71-.16-1.25-.68-1.6-.25-.16-.54-.25-.84-.25h-1.1c-.6,0-1.18.38-1.4.93-.12.28-.12.55-.12.94v1.09c0,1.45,0,2.88,0,4.31,0,2.85,0,5.66,0,8.42,0,5.52-.01,10.84-.02,15.92-.03,10.13-.05,19.27-.07,26.95-.05,7.64-.08,13.83-.11,18.17,0,1.07-.03,2.04-.02,2.84.08.79.66,1.32,1.16,1.49.51.18.97.1,1.25.13.29.01.44.02.44.04s-.15.02-.44.04c-.29-.02-.72.1-1.3-.07-.55-.16-1.2-.71-1.32-1.6-.04-.85-.03-1.78-.05-2.86-.03-4.34-.06-10.53-.11-18.17-.02-7.69-.05-16.82-.07-26.95,0-5.07-.01-10.4-.02-15.92,0-2.76,0-5.57,0-8.42,0-1.43,0-2.86,0-4.31v-1.09c0-.33,0-.81.17-1.2.32-.81,1.17-1.37,2.04-1.36h1.1c.43,0,.86.13,1.22.37.36.24.64.58.81.98.18.39.18.87.17,1.2,0,1.44,0,2.88,0,4.3,0,2.85,0,5.66,0,8.42,0,5.52-.01,10.84-.02,15.91-.03,10.13-.05,19.26-.07,26.95-.05,7.64-.08,13.83-.11,18.17-.01,1.07-.02,2.02-.03,2.85-.01.42,0,.78-.04,1.15-.05.36-.2.67-.38.9-.37.47-.82.63-1.1.68-.29.05-.44.02-.44.02Z"/>
    </g>
    <g>
      <rect class="cls-1" x="378.74" y="556.22" width="4.82" height="81.56" rx="1.86" ry="1.86"/>
      <path class="cls-16" d="M381.71,637.78s.15-.01.43-.09c.27-.08.68-.25,1-.7.16-.22.29-.5.33-.84.03-.32,0-.72,0-1.13,0-.83-.02-1.78-.03-2.85-.03-4.34-.06-10.53-.11-18.17-.02-7.69-.05-16.81-.07-26.95,0-5.07-.01-10.4-.02-15.91,0-2.76,0-5.57,0-8.42,0-1.42,0-2.86,0-4.31.06-.71-.16-1.25-.68-1.6-.25-.16-.54-.25-.84-.25h-1.1c-.6,0-1.18.38-1.4.93-.12.28-.12.55-.12.94v1.09c0,1.45,0,2.88,0,4.31,0,2.85,0,5.66,0,8.42,0,5.52-.01,10.84-.02,15.92-.03,10.13-.05,19.27-.07,26.95-.05,7.64-.08,13.83-.11,18.17,0,1.07-.03,2.04-.02,2.84.08.79.66,1.32,1.16,1.49.51.18.97.1,1.25.13.29.01.44.02.44.04s-.15.02-.44.04c-.29-.02-.72.1-1.3-.07-.55-.16-1.2-.71-1.32-1.6-.04-.85-.03-1.78-.05-2.86-.03-4.34-.06-10.53-.11-18.17-.02-7.69-.05-16.82-.07-26.95,0-5.07-.01-10.4-.02-15.92,0-2.76,0-5.57,0-8.42,0-1.43,0-2.86,0-4.31v-1.09c0-.33,0-.81.17-1.2.32-.81,1.17-1.37,2.04-1.36h1.1c.43,0,.86.13,1.22.37.36.24.64.58.81.98.18.39.18.87.17,1.2,0,1.44,0,2.88,0,4.31,0,2.85,0,5.66,0,8.42,0,5.52-.01,10.84-.02,15.91-.03,10.13-.05,19.26-.07,26.95-.05,7.64-.08,13.83-.11,18.17-.01,1.07-.02,2.02-.03,2.85-.01.42,0,.78-.04,1.15-.05.36-.2.67-.38.9-.37.47-.82.63-1.1.68-.29.05-.44.02-.44.02Z"/>
    </g>
    <path class="cls-16" d="M363.17,663.53s-.02-.25-.03-.71c0-.49-.02-1.16-.03-2.02-.02-1.8-.04-4.37-.07-7.67-.03-6.64-.08-16.15-.14-27.81l.27.27c-17.49.02-40.19.05-64.93.08-.08.07.65-.65.34-.34h0v2.52c0,.84,0,1.68,0,2.51,0,1.67,0,3.33,0,4.98,0,3.3,0,6.55,0,9.74,0,6.39-.01,12.56-.02,18.44l-.32-.32c18.98.06,35.16.12,46.64.16,5.72.04,10.27.07,13.43.09,1.54.02,2.74.03,3.59.04.39,0,.69.01.94.02.21,0,.32.01.33.02,0,0-.09.01-.29.02-.23,0-.53.01-.9.02-.84,0-2.02.02-3.53.04-3.14.02-7.67.05-13.36.09-11.53.04-27.79.09-46.85.16h-.32s0-.32,0-.32c0-5.88-.01-12.05-.02-18.44,0-3.2,0-6.45,0-9.74,0-1.65,0-3.31,0-4.98,0-.84,0-1.67,0-2.51v-2.51h0c-.31.29.42-.44.35-.36,24.74.03,47.44.06,64.93.08h.27s0,.27,0,.27c-.06,11.73-.11,21.29-.14,27.97-.03,3.27-.05,5.83-.07,7.61-.01.84-.02,1.49-.03,1.97,0,.44-.02.66-.03.65Z"/>
    <path class="cls-4" d="M335.34,632.77c0,2.56-2.08,4.64-4.64,4.64s-4.64-2.08-4.64-4.64,2.08-4.64,4.64-4.64,4.64,2.08,4.64,4.64Z"/>
    <g>
      <rect class="cls-4" x="132.57" y="744.96" width="80.21" height="15.19" rx="5.85" ry="5.85"/>
      <path class="cls-16" d="M206.93,760.15c0-.05.65.02,1.78-.35,1.09-.36,2.77-1.37,3.57-3.5.44-1.05.34-2.32.34-3.71-.01-.69.01-1.43-.03-2.16-.05-.73-.25-1.48-.62-2.17-.7-1.4-2.12-2.57-3.86-2.94-.86-.19-1.81-.1-2.79-.11-.97,0-1.97,0-2.99.01-16.39.03-38.96.06-63.9.1-1.47,0-2.92.6-3.93,1.65-1.02,1.03-1.59,2.47-1.58,3.9,0,.76,0,1.52,0,2.27,0,.76-.04,1.51.1,2.18.25,1.39,1.07,2.64,2.19,3.45,1.14.84,2.5,1.12,3.94,1.05,1.44,0,2.87,0,4.29,0,2.83,0,5.6,0,8.3.01,10.8.03,20.54.05,28.73.07,8.15.05,14.75.08,19.37.11,2.25.03,4.02.05,5.27.06.57.01,1.03.03,1.37.03.31.01.47.02.47.04s-.16.02-.47.04c-.34,0-.8.02-1.37.03-1.25.02-3.01.04-5.27.06-4.62.03-11.22.06-19.37.11-8.19.02-17.92.05-28.73.07-2.7,0-5.47,0-8.3.01-1.42,0-2.85,0-4.29,0-1.44.09-3.09-.23-4.34-1.17-1.27-.9-2.18-2.31-2.47-3.88-.16-.79-.1-1.57-.11-2.31,0-.75,0-1.51,0-2.27-.01-1.6.63-3.23,1.78-4.39,1.14-1.17,2.77-1.86,4.42-1.86,24.93.04,47.51.08,63.9.1,1.02,0,2.02,0,2.99.01.96.03,1.93-.06,2.88.15,1.88.41,3.38,1.69,4.12,3.19.38.75.58,1.55.63,2.32.04.78,0,1.49,0,2.19-.02,1.37.07,2.71-.41,3.81-.87,2.22-2.65,3.21-3.78,3.54-1.18.33-1.83.22-1.83.22Z"/>
    </g>
    <path class="cls-16" d="M393.35,740.3c-.19,0-.43-26.75-.54-59.75-.11-33.01-.04-59.76.15-59.76.19,0,.43,26.75.54,59.76.11,33,.04,59.75-.15,59.75Z"/>
    <path class="cls-16" d="M462.4,692.93s-.01-.11-.02-.3c0-.22,0-.49-.02-.84,0-.77-.02-1.85-.03-3.25-.02-2.86-.04-7-.08-12.25-.04-10.54-.09-25.53-.15-43.51l.3.3c-17.49.01-38.13.03-60.15.05-.08.07.65-.65.34-.33v4.1c0,1.37,0,2.73,0,4.08,0,2.71,0,5.39,0,8.04,0,5.31,0,10.5,0,15.55-.01,10.1-.02,19.63-.03,28.37l-.3-.3c17.98.06,32.98.12,43.51.15,5.25.03,9.39.06,12.25.08,1.4.01,2.48.03,3.25.03.35,0,.63.01.84.02.19,0,.29.01.3.02,0,0-.08.01-.26.02-.21,0-.47,0-.81.02-.75,0-1.82.02-3.19.03-2.85.02-6.96.04-12.19.08-10.58.04-25.64.09-43.7.15h-.3s0-.3,0-.3c-.01-8.74-.02-18.28-.03-28.37,0-5.05,0-10.24,0-15.55,0-2.65,0-5.34,0-8.04,0-1.35,0-2.71,0-4.08v-2.05s0-1.03,0-1.03v-1.02c-.31.3.42-.43.35-.36,22.02.02,42.66.03,60.15.05h.3s0,.3,0,.3c-.06,18.06-.12,33.12-.15,43.7-.03,5.22-.06,9.34-.08,12.19-.01,1.37-.03,2.44-.03,3.19,0,.34-.01.6-.02.81,0,.18-.01.27-.02.26Z"/>
    <path class="cls-4" d="M458.59,661.36c0,2.24-1.82,4.06-4.06,4.06s-4.06-1.82-4.06-4.06,1.82-4.06,4.06-4.06,4.06,1.82,4.06,4.06Z"/>
    <path class="cls-16" d="M467.37,739.95c-.19,0-.35-28.15-.35-62.87s.15-62.87.35-62.87.35,28.14.35,62.87-.15,62.87-.35,62.87Z"/>
    <g>
      <g>
        <rect class="cls-8" x="467.88" y="561.02" width="8.64" height="42.51"/>
        <rect class="cls-8" x="503.89" y="561.02" width="8.64" height="42.51"/>
        <rect class="cls-8" x="539.91" y="561.02" width="8.64" height="42.51"/>
        <rect class="cls-8" x="575.92" y="561.02" width="8.64" height="42.51"/>
        <rect class="cls-8" x="611.94" y="561.02" width="8.64" height="42.51"/>
        <rect class="cls-8" x="647.95" y="561.02" width="8.64" height="42.51"/>
        <rect class="cls-8" x="683.97" y="561.02" width="8.64" height="42.51"/>
        <rect class="cls-8" x="719.98" y="561.02" width="8.64" height="42.51"/>
        <rect class="cls-8" x="756" y="561.02" width="8.64" height="42.51"/>
        <rect class="cls-8" x="790.18" y="561.02" width="8.64" height="42.51"/>
        <rect class="cls-8" x="824.36" y="561.02" width="8.64" height="42.51"/>
        <rect class="cls-8" x="858.55" y="561.02" width="8.64" height="42.51"/>
      </g>
      <g>
        <rect class="cls-8" x="446.96" y="603.53" width="446.88" height="5.75" rx="2.22" ry="2.22"/>
        <path class="cls-16" d="M891.62,609.28s.2,0,.57-.1c.36-.1.93-.37,1.32-1.04.41-.66.27-1.68.24-2.79-.1-.54-.43-1.1-.99-1.44-.27-.17-.59-.28-.93-.32-.34-.02-.71,0-1.09,0-6.01.01-14.87.04-26.26.06-22.82.03-55.82.06-96.6.11-81.57.03-194.24.06-318.69.1-.83-.02-1.63.58-1.83,1.38-.11.37-.05.87-.07,1.36,0,.52,0,.89.19,1.27.18.37.48.68.85.85.38.2.75.21,1.26.2h2.9c3.87,0,7.72,0,11.56,0,7.68,0,15.32,0,22.89,0,15.15,0,30.09,0,44.76,0,29.35,0,57.65.01,84.62.02,53.93.03,102.49.05,143.27.07,40.78.05,73.78.08,96.59.11,11.4.03,20.25.05,26.26.06,3,.01,5.28.03,6.83.03,1.54.01,2.33.04,2.33.04,0,0-.79.02-2.33.04-1.55,0-3.83.02-6.83.03-6.01.01-14.86.04-26.26.06-22.82.03-55.81.06-96.59.11-40.79.02-89.35.05-143.27.07-26.96,0-55.27.01-84.62.02-14.67,0-29.61,0-44.76,0-7.58,0-15.21,0-22.89,0-3.84,0-7.7,0-11.56,0h-2.9c-.44.01-1.08,0-1.57-.27-.5-.25-.92-.66-1.16-1.17-.27-.49-.27-1.13-.26-1.57.02-.48-.06-.96.09-1.54.27-1.1,1.37-1.92,2.49-1.89,124.44.04,237.11.08,318.69.1,40.78.05,73.78.08,96.6.11,11.4.03,20.25.05,26.26.06.38,0,.73,0,1.1.02.36.04.7.16.99.34.58.36.93.95,1.02,1.53.07.58.02,1.1.03,1.58.02.48-.11.93-.31,1.26-.41.68-1,.95-1.37,1.04-.38.09-.58.06-.58.06Z"/>
      </g>
      <g>
        <rect class="cls-8" x="446.96" y="560.06" width="446.88" height="5.75" rx="2.22" ry="2.22"/>
        <path class="cls-16" d="M891.62,565.82s.2,0,.57-.1c.36-.1.93-.37,1.32-1.04.41-.66.27-1.68.24-2.79-.1-.54-.43-1.11-.99-1.44-.27-.17-.59-.28-.93-.32-.34-.02-.71,0-1.09,0-6.01.01-14.87.04-26.26.06-22.82.03-55.82.06-96.6.11-81.57.03-194.24.06-318.69.1-.83-.02-1.63.58-1.83,1.38-.11.37-.05.87-.07,1.36,0,.52,0,.89.19,1.27.18.37.48.68.85.85.38.2.75.21,1.26.2h2.9c3.87,0,7.72,0,11.56,0,7.68,0,15.32,0,22.89,0,15.15,0,30.09,0,44.76,0,29.35,0,57.65.01,84.62.02,53.93.03,102.49.05,143.27.07,40.78.05,73.78.08,96.59.11,11.4.03,20.25.05,26.26.06,3,.01,5.28.03,6.83.03,1.54.01,2.33.04,2.33.04,0,0-.79.02-2.33.04-1.55,0-3.83.02-6.83.03-6.01.01-14.86.04-26.26.06-22.82.03-55.81.06-96.59.11-40.79.02-89.35.05-143.27.07-26.96,0-55.27.01-84.62.02-14.67,0-29.61,0-44.76,0-7.58,0-15.21,0-22.89,0-3.84,0-7.7,0-11.56,0h-2.9c-.44.01-1.08,0-1.57-.27-.5-.25-.92-.66-1.16-1.17-.27-.49-.27-1.13-.26-1.57.02-.48-.06-.96.09-1.54.27-1.1,1.37-1.92,2.49-1.89,124.44.04,237.11.08,318.69.1,40.78.05,73.78.08,96.6.11,11.4.03,20.25.05,26.26.06.38,0,.73,0,1.1.02.36.04.7.16.99.34.58.36.93.95,1.02,1.53.07.58.02,1.1.03,1.58.02.48-.11.93-.31,1.26-.41.68-1,.95-1.37,1.04-.38.09-.58.06-.58.06Z"/>
      </g>
    </g>
    <path class="cls-4" d="M744.25,684.68l-.93-57.77h124.26l-.76,109.41-57.54-.73s-12.99-48.11-65.03-50.92Z"/>
    <path class="cls-16" d="M910.88,734.68c0,.19-22.94.35-51.23.35s-51.23-.15-51.23-.35,22.93-.34,51.23-.34,51.23.15,51.23.34Z"/>
    <g>
      <path class="cls-9" d="M867.57,694.72c.11.16-13.05,9.27-29.38,20.35-16.34,11.09-29.66,19.94-29.77,19.78-.11-.16,13.05-9.27,29.38-20.35,16.33-11.08,29.66-19.94,29.77-19.78Z"/>
      <path class="cls-9" d="M865.84,715.32c.11.16-6.1,4.56-13.86,9.82-7.77,5.27-14.15,9.41-14.25,9.25-.11-.16,6.1-4.56,13.86-9.83,7.76-5.27,14.14-9.41,14.25-9.25Z"/>
      <path class="cls-9" d="M864,678.95c.11.16-13.24,9.4-29.8,20.64-16.57,11.24-30.08,20.23-30.19,20.07-.11-.16,13.23-9.4,29.8-20.64,16.56-11.24,30.08-20.23,30.19-20.07Z"/>
      <path class="cls-9" d="M867.19,659.57c.11.16-15.99,11.27-35.95,24.81-19.96,13.55-36.23,24.4-36.34,24.24-.11-.16,15.99-11.26,35.95-24.81,19.96-13.54,36.23-24.39,36.33-24.24Z"/>
      <path class="cls-9" d="M867.47,639.92c.11.16-18.66,13.08-41.9,28.85-23.26,15.78-42.19,28.44-42.3,28.28-.11-.16,18.65-13.07,41.91-28.85,23.25-15.77,42.18-28.44,42.29-28.28Z"/>
      <path class="cls-9" d="M857.34,628.1c.11.16-19.5,13.65-43.78,30.13-24.29,16.48-44.07,29.72-44.18,29.56-.11-.16,19.49-13.64,43.79-30.13,24.29-16.48,44.06-29.71,44.17-29.56Z"/>
      <path class="cls-9" d="M831.05,626.48c.11.16-18.95,13.27-42.56,29.29-23.62,16.03-42.84,28.88-42.95,28.73-.11-.16,18.94-13.27,42.56-29.3,23.61-16.02,42.84-28.88,42.94-28.72Z"/>
      <path class="cls-9" d="M800.66,628.1c.11.16-12.36,8.8-27.83,19.3-15.48,10.51-28.12,18.89-28.22,18.73-.11-.16,12.35-8.8,27.84-19.31,15.48-10.5,28.11-18.89,28.22-18.73Z"/>
      <path class="cls-9" d="M771.13,626.48c.11.16-5.83,4.38-13.27,9.42-7.44,5.05-13.55,9.01-13.66,8.85-.11-.16,5.83-4.37,13.27-9.42,7.43-5.04,13.55-9.01,13.65-8.85Z"/>
    </g>
    <g>
      <path class="cls-9" d="M743.31,661.7c.1-.16,25.67,16.3,57.09,36.76,31.43,20.47,56.82,37.18,56.72,37.34-.1.16-25.66-16.3-57.09-36.76-31.42-20.46-56.81-37.18-56.71-37.34Z"/>
      <path class="cls-9" d="M799.7,716.27c.11-.16,6.49,3.99,14.25,9.25,7.77,5.27,13.97,9.67,13.86,9.83-.11.16-6.49-3.98-14.25-9.25-7.76-5.27-13.97-9.67-13.86-9.82Z"/>
      <path class="cls-9" d="M743.32,639.92c.11-.16,27.86,18.59,61.98,41.88,34.13,23.29,61.71,42.29,61.6,42.45-.11.16-27.86-18.59-61.99-41.88-34.12-23.28-61.7-42.29-61.59-42.45Z"/>
      <path class="cls-9" d="M756,627.43s.11.05.31.17c.23.15.51.33.86.55.79.53,1.89,1.26,3.28,2.18,2.82,1.93,6.89,4.75,11.88,8.28,9.98,7.06,23.69,16.94,38.79,27.88,29.77,21.56,51.68,37.43,54.72,39.63,0,0-.11-.05-.31-.17-.23-.15-.51-.33-.86-.55-.79-.53-1.89-1.26-3.28-2.18-2.82-1.93-6.89-4.75-11.88-8.28-9.98-7.06-23.69-16.94-38.8-27.89-29.76-21.56-51.67-37.43-54.71-39.63Z"/>
      <path class="cls-9" d="M778.28,627.43c.11-.16,20.03,13.18,44.5,29.78,24.48,16.61,44.22,30.2,44.12,30.35-.11.16-20.03-13.17-44.51-29.78-24.47-16.6-44.22-30.19-44.11-30.35Z"/>
      <path class="cls-9" d="M808.2,629.05c.11-.16,13.33,8.63,29.54,19.63,16.21,11,29.26,20.04,29.16,20.2-.11.16-13.33-8.63-29.54-19.63-16.21-11-29.26-20.04-29.15-20.2Z"/>
      <path class="cls-9" d="M834.49,627.43c.11-.16,7.4,4.61,16.29,10.64,8.89,6.03,16.01,11.05,15.9,11.21-.11.16-7.4-4.6-16.29-10.64-8.89-6.03-16.01-11.05-15.9-11.21Z"/>
    </g>
    <path class="cls-16" d="M664.19,671.63s-.01-.09-.02-.25c0-.19,0-.42-.02-.72,0-.66-.02-1.58-.03-2.76-.02-2.44-.04-5.95-.08-10.41-.04-8.95-.09-21.68-.15-36.95l.3.3c-15.16.01-33.09.03-52.24.05-.08.07.65-.65.34-.34h0v.42s0,.44,0,.44v2.61c0,1.16,0,2.31,0,3.46,0,2.3,0,4.57,0,6.82,0,4.5,0,8.91,0,13.2-.01,8.58-.02,16.68-.03,24.12l-.3-.3c15.59.06,28.61.12,37.77.15,4.56.03,8.16.06,10.65.08,1.21.01,2.15.03,2.83.03.3,0,.54.01.73.02.17,0,.25.01.26.02s-.07.01-.23.02c-.18,0-.41,0-.7.02-.66,0-1.59.02-2.77.03-2.48.02-6.06.04-10.59.08-9.21.04-22.29.09-37.96.15h-.3s0-.3,0-.3c-.01-7.44-.02-15.54-.03-24.12,0-4.29,0-8.7,0-13.2,0-2.25,0-4.53,0-6.82,0-1.15,0-2.3,0-3.46v-1.74s0-.87,0-.87v-.85h0c-.31.29.42-.44.35-.37,19.15.02,37.08.03,52.24.05h.3s0,.3,0,.3c-.06,15.35-.12,28.14-.15,37.14-.03,4.43-.06,7.92-.08,10.34-.01,1.16-.03,2.06-.03,2.7,0,.28-.01.5-.02.68,0,.15-.01.23-.02.22Z"/>
    <path class="cls-16" d="M722.38,671.63s-.01-.09-.02-.25c0-.19,0-.42-.02-.72,0-.66-.02-1.58-.03-2.76-.02-2.44-.04-5.95-.08-10.41-.04-8.95-.09-21.68-.15-36.95l.3.3c-15.16.01-33.09.03-52.24.05-.08.07.65-.65.34-.34h0v3.48c0,1.16,0,2.31,0,3.46,0,2.3,0,4.57,0,6.82,0,4.5,0,8.91,0,13.2-.01,8.58-.02,16.68-.03,24.12l-.3-.3c15.59.06,28.61.12,37.77.15,4.56.03,8.16.06,10.65.08,1.21.01,2.15.03,2.83.03.3,0,.54.01.73.02.17,0,.25.01.26.02,0,0-.07.01-.23.02-.18,0-.41,0-.7.02-.66,0-1.59.02-2.77.03-2.48.02-6.06.04-10.59.08-9.21.04-22.29.09-37.96.15h-.3s0-.3,0-.3c-.01-7.44-.02-15.54-.03-24.12,0-4.29,0-8.7,0-13.2,0-2.25,0-4.53,0-6.82,0-1.15,0-2.3,0-3.46v-1.74s0-.87,0-.87v-.85h0c-.31.29.42-.44.35-.37,19.15.02,37.08.03,52.24.05h.3s0,.3,0,.3c-.06,15.35-.12,28.14-.15,37.14-.03,4.43-.06,7.92-.08,10.34-.01,1.16-.03,2.06-.03,2.7,0,.28-.01.5-.02.68,0,.15-.01.23-.02.22Z"/>
    <path class="cls-16" d="M663.15,734.85s-.01-.1-.02-.28c0-.21-.01-.47-.02-.8,0-.73-.02-1.76-.04-3.09-.02-2.72-.05-6.65-.08-11.63-.04-9.99-.09-24.17-.15-41.1l.3.3c-15.05.01-32.58.03-51.21.04-.08.07.65-.65.34-.33v.48s0,.49,0,.49v2.93c0,1.3,0,2.59,0,3.88,0,2.57,0,5.12,0,7.64,0,5.04,0,9.96-.01,14.74-.01,9.56-.03,18.54-.04,26.74l-.29-.29c15.35.06,28.11.11,37.07.15,4.46.03,7.98.06,10.41.08,1.18.01,2.1.03,2.76.03.63.01.97.03.97.03,0,0-.3.02-.9.03-.65,0-1.55.02-2.7.03-2.42.02-5.91.04-10.35.08-9.01.04-21.83.09-37.26.15h-.29s0-.29,0-.29c-.01-8.2-.02-17.19-.04-26.74,0-4.78,0-9.7-.01-14.74,0-2.52,0-5.07,0-7.64,0-1.29,0-2.58,0-3.88v-1.95s0-.98,0-.98v-.97c-.31.3.42-.43.35-.36,18.63.02,36.16.03,51.21.04h.3s0,.3,0,.3c-.06,17.02-.12,31.26-.15,41.3-.03,4.95-.06,8.85-.08,11.56-.02,1.3-.03,2.31-.04,3.03,0,.32-.01.57-.02.77,0,.17-.01.25-.02.25Z"/>
    <path class="cls-16" d="M673.5,713.83c0-1.24,14.06-24.33,35.47-27.95v-7.93h-40.16v35.88h4.68Z"/>
    <path class="cls-1" d="M474.49,527.82h102.97c3.92,0,7.11,3.19,7.11,7.11v12.06h-117.19v-12.06c0-3.92,3.19-7.11,7.11-7.11Z"/>
    <path class="cls-16" d="M848.99,545.48c0,.19-59.2.35-132.2.35s-132.22-.15-132.22-.35,59.18-.35,132.22-.35,132.2.15,132.2.35Z"/>
    <circle class="cls-13" cx="501.29" cy="648.44" r="4.33"/>
    <circle class="cls-13" cx="517.23" cy="648.44" r="4.33"/>
    <path class="cls-13" d="M537.5,648.44c0,2.39-1.94,4.33-4.33,4.33s-4.33-1.94-4.33-4.33,1.94-4.33,4.33-4.33,4.33,1.94,4.33,4.33Z"/>
    <circle class="cls-13" cx="549.23" cy="648.44" r="4.33"/>
    <path class="cls-13" d="M569.5,648.44c0,2.39-1.94,4.33-4.33,4.33s-4.33-1.94-4.33-4.33,1.94-4.33,4.33-4.33,4.33,1.94,4.33,4.33Z"/>
    <circle class="cls-13" cx="581.12" cy="648.44" r="4.33"/>
    <polygon class="cls-16" points="515.79 509.65 536.29 506.31 536.29 519.13 516 516.28 515.79 509.65"/>
    <rect class="cls-4" x="512.54" y="505.66" width="4.65" height="14.12" rx="1.35" ry="1.35"/>
    <rect class="cls-16" x="535.9" y="503.36" width="20.75" height="17.63"/>
    <rect class="cls-16" x="543.55" y="500.6" width="3.52" height="22.48" rx="1.02" ry="1.02"/>
    <path class="cls-1" d="M504.73,507.18h7.81v24.86h-10.75v-21.91c0-1.62,1.32-2.94,2.94-2.94Z"/>
    <path class="cls-13" d="M543.52,521.08c-.19,0-.35-4.08-.35-9.1s.15-9.1.35-9.1.34,4.08.34,9.1-.15,9.1-.34,9.1Z"/>
    <path class="cls-13" d="M547.01,521.08c-.19,0-.35-4.08-.35-9.1s.15-9.1.35-9.1.35,4.08.35,9.1-.15,9.1-.35,9.1Z"/>
    <path class="cls-13" d="M535.9,521.08c-.19,0-.35-4.08-.35-9.1s.15-9.1.35-9.1.34,4.08.34,9.1-.15,9.1-.34,9.1Z"/>
    <path class="cls-16" d="M537.05,528c0,.19-12.04.35-26.9.35s-26.9-.15-26.9-.35,12.04-.34,26.9-.34,26.9.15,26.9.34Z"/>
    <path class="cls-4" d="M454.64,780.38h-48.95c-4.01,0-7.28-3.26-7.28-7.28v-27.67h2.65v27.67c0,2.55,2.08,4.63,4.63,4.63h48.95c2.55,0,4.63-2.08,4.63-4.63v-29.2h2.65v29.2c0,4.01-3.27,7.28-7.28,7.28Z"/>
    <path class="cls-16" d="M671.77,739.95c0,.19-71.79.35-160.33.35s-160.35-.15-160.35-.35,71.78-.34,160.35-.34,160.33.15,160.33.34Z"/>
    <path class="cls-16" d="M663.15,760.15c0,.19-69.33.35-154.83.35s-154.84-.15-154.84-.35,69.31-.35,154.84-.35,154.83.15,154.83.35Z"/>
    <path class="cls-16" d="M154.72,620.8s-.23-.01-.68-.06c-.47-.06-1.15-.14-2.06-.25-1.86-.24-4.65-.6-8.43-1.08l-.13-.02.04-.12c4.15-12.92,12.49-38.85,23.49-73.06,1.38-4.28,2.8-8.69,4.27-13.21.73-2.26,1.47-4.56,2.22-6.88.38-1.16.73-2.32,1.15-3.51.44-1.19,1.09-2.32,1.95-3.28,1.7-1.94,4.17-3.22,6.81-3.46,2.61-.1,5.16-.03,7.78-.05,5.22,0,10.56,0,15.98,0,21.71,0,44.98-.01,69.16-.02,29.97,0,58.52.02,84.49.03,6.49,0,12.82,0,18.97.01,1.54.03,3.05-.08,4.61.12,1.54.22,3.02.79,4.3,1.64,2.56,1.71,4.24,4.55,4.54,7.51.11,11.6,0,22.32.02,32.15-.05,19.63-.08,35.51-.11,46.51-.03,5.48-.05,9.73-.06,12.65-.01,1.43-.03,2.53-.03,3.29-.01.74-.04,1.12-.04,1.12,0,0-.02-.38-.04-1.12,0-.76-.02-1.86-.03-3.29-.01-2.91-.04-7.17-.06-12.65-.03-11-.06-26.88-.11-46.51-.04-9.8.03-20.61-.1-32.09-.29-2.79-1.88-5.47-4.3-7.08-1.21-.8-2.6-1.33-4.06-1.53-1.44-.18-3-.08-4.53-.1-6.15,0-12.48,0-18.97.01-25.97,0-54.52.02-84.49.03-24.19,0-47.45-.01-69.16-.02-5.43,0-10.76,0-15.98,0-2.6.02-5.23-.05-7.73.04-2.47.22-4.8,1.42-6.41,3.24-.81.9-1.42,1.96-1.84,3.09-.4,1.14-.77,2.33-1.15,3.49-.75,2.32-1.5,4.61-2.24,6.88-1.47,4.52-2.9,8.93-4.29,13.21-11.15,34.16-19.6,60.05-23.82,72.95l-.09-.14c3.78.53,6.56.92,8.42,1.18.91.13,1.58.23,2.06.3.45.07.67.12.67.12Z"/>
  </g>
  <g>
    <path class="cls-16" d="M387.31,613.54c-.13-.42-.81-3.02-.81-3.02,0,0-1.52-.91-2.69-1.6-1.17-.69-6.54-5.9-6.54-5.9,0,0-.59-1.29.82-1.84,1.41-.55,5.55,1.38,6.16,1.22.61-.17.95-2.78.95-2.78,0,0-1.04-2.38-2.05-2.72-1.01-.34-5.18-.59-5.53-1.86-.35-1.27,1.18-1.69,2.42-1.86,1.24-.17,3.74.25,4.56.68s3.46.88,3.96,1.22c.5.34,5,4.94,5.72,6.38.72,1.44,3.01,5.2,3.01,5.2l1.25,1.74-10.69,7.38-.56-2.22Z"/>
    <g>
      <g>
        <path class="cls-16" d="M435.2,750.05l4.27,14.79s-13.6,9.31-13.08,12.12l28.98-7.25-5.71-23.32-14.46,3.66Z"/>
        <path class="cls-4" d="M448.12,761.35c.6.01,1.14.55,1.16,1.15s-.53,1.16-1.13,1.16c-.6,0-1.27-.62-1.22-1.22.06-.6.72-1.22,1.3-1.07"/>
        <path class="cls-13" d="M455.38,769.72l-.67-2.33-27.54,7.82s-1.15.88-.78,1.76l28.98-7.25Z"/>
        <path class="cls-13" d="M438.97,764.82c.04.14.76.03,1.57.31.82.26,1.33.78,1.45.69.12-.06-.3-.85-1.29-1.18-.98-.33-1.8.05-1.73.17Z"/>
        <path class="cls-13" d="M436.24,766.84c0,.15.67.23,1.31.71.64.46.93,1.08,1.07,1.04.14-.01.03-.86-.77-1.44-.79-.59-1.64-.44-1.61-.3Z"/>
        <path class="cls-13" d="M435.43,770.91c.14,0,.16-.76-.4-1.44-.55-.69-1.3-.83-1.33-.69-.05.14.48.44.93,1.01.46.56.65,1.14.8,1.12Z"/>
        <path class="cls-13" d="M438.37,761.34c.09.11.69-.24,1.51-.39.81-.16,1.5-.05,1.54-.19.06-.12-.68-.49-1.64-.31-.96.18-1.51.79-1.41.89Z"/>
      </g>
      <g>
        <path class="cls-16" d="M445.36,753.54l.67,15.38s-15.41,5.85-15.56,8.7l29.87-.23-.06-24.01-14.92.16Z"/>
        <path class="cls-13" d="M455.26,767.55c.58.15.98.8.85,1.39-.13.59-.78,1-1.37.86-.58-.14-1.09-.9-.9-1.47.19-.57.99-1.01,1.52-.74"/>
        <path class="cls-13" d="M460.35,777.39l-.1-2.42-28.6,1.13s-1.33.59-1.17,1.52l29.87-.23Z"/>
        <path class="cls-13" d="M445.55,768.77c0,.15.74.21,1.46.67.73.44,1.11,1.07,1.24,1.01.13-.03-.09-.9-.97-1.45-.88-.55-1.76-.37-1.73-.24Z"/>
        <path class="cls-13" d="M442.43,770.09c-.03.14.6.38,1.1,1,.52.6.65,1.26.79,1.26.14.02.23-.83-.41-1.58-.63-.76-1.49-.81-1.49-.67Z"/>
        <path class="cls-13" d="M440.68,773.86c.13.03.33-.7-.05-1.5-.38-.8-1.07-1.11-1.13-.99-.08.12.36.55.67,1.2.32.65.36,1.27.51,1.28Z"/>
        <path class="cls-13" d="M445.79,765.25c.06.13.73-.07,1.55-.02.83.03,1.47.3,1.54.18.08-.11-.55-.64-1.52-.69-.97-.05-1.65.42-1.58.53Z"/>
      </g>
      <g>
        <path class="cls-6" d="M465.77,640.97v12.16l-3.27,47.39s2.03,22.99,3.28,35.96c1.08,11.27-.69,30.89-.69,30.89h-19.01l-6.8-65.45-4.22-40.82-7.35-18.58,38.06-1.56Z"/>
        <path class="cls-6" d="M418.03,642.88l-.55,59.31c-.02,2.67,1.23,10.35,2.2,12.84l16.97,43.67.88,2.98,11.36-2.75-8.45-117.13-22.42,1.08Z"/>
        <polygon class="cls-4" points="440.07 738.35 441.29 745.27 431.67 745.88 428.92 738.82 440.07 738.35"/>
        <polygon class="cls-14" points="440.55 740.4 429.73 740.74 430.77 743.84 440.65 743.2 440.55 740.4"/>
        <path class="cls-4" d="M441.59,748.24c-.17.1.81,5.49.93,7.11l-7.01.59-2.57-6.79,8.65-.91Z"/>
        <polygon class="cls-14" points="441.77 750.06 433.69 751.13 434.73 753.88 442.23 753.09 441.77 750.06"/>
        <path class="cls-16" d="M433.18,661.6s0,.09,0,.28c0,.2,0,.47.02.81.02.73.05,1.77.1,3.1.08,2.69.27,6.58.54,11.39.57,9.61,1.64,22.88,3.31,37.47,1.64,14.6,3.46,27.78,4.78,37.32.67,4.75,1.22,8.6,1.6,11.29.19,1.32.35,2.35.45,3.07.05.34.1.6.13.8.03.18.05.27.06.27,0,0,0-.09-.02-.27-.02-.2-.05-.46-.09-.8-.09-.72-.22-1.76-.39-3.08-.35-2.69-.86-6.54-1.49-11.3-1.26-9.54-3.04-22.73-4.68-37.32-1.67-14.59-2.78-27.84-3.41-37.45-.31-4.8-.54-8.69-.66-11.38-.07-1.33-.12-2.37-.16-3.1-.02-.34-.04-.61-.05-.8-.01-.18-.02-.27-.03-.27Z"/>
        <path class="cls-13" d="M431.98,645.06c0,.54.44.98.98.98s.98-.44.98-.98-.44-.98-.98-.98-.98.44-.98.98Z"/>
        <path class="cls-13" d="M415.26,654.29s.58-.4,1.34-1.26c.76-.85,1.68-2.15,2.39-3.74.71-1.59,1.07-3.15,1.2-4.28.13-1.13.08-1.84.04-1.84-.06,0-.1.7-.29,1.8-.19,1.1-.58,2.61-1.27,4.17-.7,1.56-1.57,2.85-2.26,3.73-.69.88-1.19,1.37-1.15,1.42Z"/>
      </g>
    </g>
    <g>
      <path class="cls-16" d="M429.62,561.95s5.65,13.63,6.37,16.09c.71,2.46-1.21,6.9-1.21,6.9l-24.12,10.75s-7.76-6.7-8.28-11.25,0-23.19,0-23.19l27.25.7Z"/>
      <g>
        <path class="cls-16" d="M404.84,573.21c-2.28-3.07-3.73-6.73-4.18-10.53-.17-1.48-.18-3.04.45-4.39.67-1.42,3.54-3.32,4.8-4.26v5.12s-2.32,3.66-2.44,4.05c-.12.39,1.37,10.02,1.37,10.02Z"/>
        <g>
          <g>
            <path class="cls-16" d="M428.44,572c.46-2.86.9-5.74.85-8.64-.04-2.9-.59-5.84-2.02-8.36-.22-.38-1.93-2.91-2.36-2.8-.3.08.89,2.5.78,2.79-1.09,2.79-1.01,5.93-.3,8.85.7,2.91,1.73,5.47,3.05,8.16"/>
            <path class="cls-5" d="M427,561.04c-.9-7.21-5.84-12.7-13.03-11.6l-.66.14c-6.62,1.41-11.05,7.67-10.18,14.38.81,6.25,1.79,13.14,2.53,16.42,1.54,6.8,8.58,6.41,8.58,6.41.02,0,1.53,11.34,1.53,11.34l16.4-1.91-5.18-35.18Z"/>
            <path class="cls-10" d="M414.25,586.79s4.35-.66,8.32-4.52c0,0-1,6-7.94,6.83l-.38-2.32Z"/>
            <path class="cls-16" d="M406.4,569.44c.09.52.61.87,1.15.78.54-.09.91-.57.82-1.09-.09-.52-.61-.87-1.15-.78-.54.09-.91.57-.82,1.09Z"/>
            <path class="cls-16" d="M405.19,566.48c.15.1.77-.6,1.82-.82,1.04-.24,1.93.14,2.01-.01.04-.07-.13-.27-.51-.44-.38-.17-.99-.29-1.65-.15-.65.14-1.15.5-1.41.81-.27.32-.33.57-.26.61Z"/>
            <path class="cls-16" d="M415.91,567.59c.09.52.61.87,1.15.78.54-.09.91-.57.82-1.09-.09-.52-.61-.87-1.15-.78-.54.09-.91.57-.82,1.09Z"/>
            <path class="cls-16" d="M415.55,564.71c.15.1.77-.6,1.82-.82,1.04-.24,1.93.14,2.01-.01.04-.07-.13-.27-.52-.44-.38-.17-.99-.29-1.65-.15-.65.14-1.15.5-1.41.81-.27.32-.33.57-.26.61Z"/>
            <path class="cls-16" d="M413.51,573.57c0-.06-.68-.03-1.77.06-.27.03-.54.03-.62-.14-.1-.18-.05-.49,0-.83.11-.7.23-1.44.36-2.21.48-3.14.77-5.69.64-5.71-.13-.02-.62,2.51-1.1,5.64-.11.77-.22,1.51-.32,2.21-.04.33-.14.71.08,1.08.11.18.34.29.52.3.18.02.33-.01.47-.03,1.07-.17,1.73-.3,1.73-.37Z"/>
            <path class="cls-16" d="M414.7,561.19c.16.26,1.18-.1,2.44-.21,1.26-.14,2.33,0,2.44-.28.05-.14-.18-.37-.64-.56-.46-.19-1.15-.32-1.9-.24-.76.08-1.41.34-1.82.62-.41.28-.59.55-.52.68Z"/>
            <path class="cls-16" d="M404.75,562.59c.2.24.93-.04,1.81-.07.89-.07,1.64.12,1.81-.14.07-.13-.05-.37-.39-.59-.33-.22-.88-.39-1.49-.36-.61.04-1.13.27-1.43.53-.31.26-.4.51-.32.63Z"/>
            <path class="cls-5" d="M427.52,566.21c.11-.08,4.39-2.38,5.24,2.31.84,4.69-4.04,4.57-4.08,4.44-.03-.13-1.16-6.75-1.16-6.75Z"/>
            <path class="cls-10" d="M429.79,570.92s.09.04.24.08c.15.04.39.04.61-.1.46-.27.74-1.13.61-1.98-.07-.43-.23-.82-.44-1.13-.21-.32-.47-.52-.73-.52-.26-.01-.41.17-.44.31-.04.14,0,.23-.02.24-.01.01-.11-.06-.11-.26,0-.1.04-.22.13-.33.1-.11.25-.19.43-.2.37-.04.75.23.99.57.25.34.45.78.52,1.26.14.95-.19,1.92-.83,2.24-.31.15-.61.1-.77.01-.17-.09-.21-.19-.2-.2Z"/>
            <path class="cls-16" d="M404.84,555.65c-.83-.29,1.03-3.14,2.76-4.31,2.61-1.76,6.79-3.29,9.52-3,3.29.35,6.16,1.47,8.23,4.06,2.06,2.59,3.22,5.81,3.69,9.09.14,1,.22,2.05-.17,2.99-.48,1.15-1.63,2.02-1.33,3.45.11.52.05,1.08-.24,1.52-.7,1.06-1.9.38-2.53-.4-1.35-1.67-1.84-3.84-2.29-5.94-.32-1.49-.64-3.01-.47-4.52.1-.82.34-1.63.39-2.45.05-.83-.13-1.73-.73-2.29-.1-.09-.25-.2-.45-.32-1.53-.94-3.45-.97-5.02-.1-2.49,1.39-6.77,3.56-8.11,2.86-1.92-1-2.47-1.78-2.47-1.78l-.77,1.15Z"/>
          </g>
          <path class="cls-16" d="M416.77,547.74c-2.73-.42-5.67.12-7.87,1.79-1.17.88-2.15,2.15-2.3,3.61-.15,1.46.73,3.07,2.17,3.39l.1.04c2.12.33,3.38-.16,5.26-1.19,1.58-.87,2.9-2.16,4.49-3.03,1.69-.92,3.65-1.31,5.57-1.12-2.15-1.74-4.68-3.07-7.41-3.49Z"/>
        </g>
        <path class="cls-16" d="M428.25,567s0-.05,0-.16c-.01-.12-.03-.28-.05-.48-.05-.44-.13-1.06-.23-1.86-.21-1.65-.52-4.02-.9-7v-.03s-.02-.02-.02-.02c-1.59-1.9-3.5-4.17-5.63-6.71l-.04-.05h-.07c-4.33.38-9.34.82-14.76,1.29h-.07s-.04.07-.04.07c-1.59,2.24-3.24,4.56-4.93,6.95l-.04.06v.07c.19.94.39,1.95.58,2.97.58,3.03,1.15,5.99,1.69,8.85.14.71.27,1.42.41,2.12.12.69.28,1.43.56,2.08.53,1.32,1.38,2.49,2.44,3.34,1.07.86,2.35,1.35,3.61,1.56.63.15,1.27.13,1.89.17.62-.02,1.23-.06,1.83-.12,2.4-.32,4.44-1.43,6.05-2.66,1.62-1.24,2.85-2.62,3.85-3.88.99-1.27,1.74-2.44,2.32-3.42.57-.98.97-1.76,1.22-2.3.13-.27.22-.48.28-.62.06-.14.08-.22.08-.22,0,0-.04.07-.11.2-.08.15-.18.35-.31.6-.27.53-.69,1.3-1.27,2.27-.59.96-1.35,2.12-2.35,3.37-1,1.24-2.24,2.6-3.85,3.81-1.59,1.2-3.6,2.27-5.94,2.57-.58.05-1.18.09-1.79.11-.6-.05-1.23-.03-1.83-.18-1.22-.21-2.46-.68-3.48-1.51-1.02-.82-1.83-1.94-2.34-3.22-.27-.64-.41-1.3-.54-2.01-.13-.7-.27-1.41-.4-2.13-.54-2.86-1.11-5.82-1.69-8.85-.19-1.02-.39-2.03-.57-2.97l-.03.13c1.69-2.39,3.34-4.72,4.92-6.96l-.12.07c5.42-.49,10.43-.94,14.76-1.33l-.11-.05c2.15,2.52,4.07,4.78,5.67,6.67l-.02-.05c.42,2.96.76,5.32,1,6.96.12.8.21,1.42.28,1.86.03.2.06.36.08.48.02.11.03.16.04.16Z"/>
        <g>
          <path class="cls-16" d="M401.23,556.89l4.63-2.76s.09-.05.15-.07l7.74-2.84c.15-.06.32-.07.48-.03l5.91,1.27c.07.01.13.04.19.07l5.98,2.85c.24.11.42.33.47.59l.6,2.67s.01.07.02.11l1.06,11.13c.04.46-.28.88-.74.94h0c-.49.07-.94-.28-.99-.77l-.3-2.99c-.46-3.38-.36-9.89-5.32-11.86-4.96-1.97-9.96-.59-12.28.2-2.32.78-5.25,2.62-5.64,4.15-.32,1.3.87,10.82,1.24,13.74.06.47-.27.9-.74.97h-.02c-.45.07-.88-.23-.97-.68l-2.61-12.72c-.03-.13-.02-.25,0-.38l.74-3.03c.05-.23.2-.42.4-.54Z"/>
          <path class="cls-13" d="M401.23,556.89s-.1.04-.23.19c-.06.08-.13.18-.17.32-.04.14-.08.31-.12.49-.09.37-.21.83-.34,1.37-.07.27-.14.56-.22.88-.03.16-.09.31-.1.49,0,.18.05.35.08.53.58,2.85,1.41,6.97,2.44,12.06.04.16.05.31.11.49.06.17.17.32.32.43.29.22.71.25,1.03.07.33-.17.54-.56.49-.94-.04-.34-.09-.69-.13-1.05-.18-1.41-.35-2.87-.52-4.39-.17-1.52-.34-3.09-.47-4.71-.07-.81-.13-1.63-.15-2.46,0-.21,0-.42,0-.62,0-.1,0-.21.02-.31.01-.1.02-.2.06-.29.13-.38.38-.73.66-1.04.58-.62,1.28-1.13,2.02-1.59.74-.46,1.54-.85,2.37-1.17,1.68-.61,3.46-1.07,5.31-1.27.92-.1,1.86-.13,2.81-.08.94.06,1.89.19,2.82.42.93.24,1.85.56,2.69,1.02.83.49,1.53,1.19,2.07,2,.55.81.94,1.72,1.21,2.65.28.93.47,1.88.6,2.83.13.95.22,1.91.32,2.85.11.95.21,1.88.3,2.81l.07.7c.04.23.02.46.11.71.09.24.29.44.52.54.24.1.51.1.75,0,.24-.1.43-.29.53-.53.05-.12.07-.25.07-.37,0-.13-.02-.23-.03-.35-.04-.45-.09-.9-.13-1.35-.17-1.79-.34-3.54-.5-5.25-.08-.85-.16-1.7-.24-2.53-.04-.42-.08-.83-.12-1.24-.02-.21-.03-.4-.07-.62-.04-.2-.09-.4-.13-.6-.09-.4-.18-.79-.27-1.18-.04-.2-.09-.39-.13-.58l-.07-.29c-.02-.11-.07-.21-.12-.3-.11-.18-.31-.32-.49-.4l-.53-.25c-.35-.17-.7-.33-1.04-.5-1.38-.65-2.71-1.29-3.99-1.9-.16-.07-.31-.16-.5-.21-.18-.05-.34-.08-.51-.11-.34-.07-.68-.14-1.01-.21-.66-.14-1.32-.28-1.95-.41-.64-.13-1.26-.27-1.86-.39-.15-.03-.3-.06-.45-.1-.14-.03-.31-.07-.47-.05-.17.02-.31.09-.44.13-.14.05-.28.1-.41.15-1.1.41-2.13.79-3.1,1.15-.97.36-1.87.69-2.7,1-.41.15-.81.3-1.19.44-.2.06-.37.18-.53.28-.16.1-.32.2-.48.29-1.24.75-2.2,1.33-2.86,1.73-.32.2-.57.35-.74.45-.17.1-.25.16-.25.16,0,0,.09-.05.26-.14.18-.1.43-.25.75-.44.66-.39,1.63-.96,2.88-1.7.16-.09.32-.19.48-.28.17-.1.33-.2.52-.26.38-.14.78-.28,1.19-.43.83-.3,1.73-.63,2.7-.98.97-.35,2.01-.73,3.1-1.13.14-.05.28-.1.42-.15.14-.05.28-.11.41-.13.14-.02.27.02.43.05.15.03.3.06.45.1.6.13,1.22.26,1.86.4.63.14,1.28.28,1.95.42.33.07.67.14,1.01.22.17.04.34.07.51.11.15.04.31.13.47.2,1.28.61,2.61,1.25,3.99,1.91.34.16.69.33,1.04.5l.53.25c.18.08.32.18.41.33.05.08.08.16.1.25l.06.29c.04.19.09.39.13.58.09.39.17.79.26,1.18.04.2.09.4.13.6.03.18.04.4.06.6.04.41.08.82.12,1.24.08.83.16,1.68.24,2.53.16,1.71.33,3.46.5,5.25.04.45.09.9.13,1.35.02.23.06.44-.03.63-.08.19-.23.34-.42.42-.38.17-.87-.04-1.01-.43-.07-.18-.06-.43-.1-.66l-.07-.7c-.09-.93-.19-1.87-.3-2.81-.1-.94-.19-1.9-.32-2.86-.14-.96-.33-1.92-.61-2.86-.28-.94-.67-1.87-1.24-2.7-.56-.83-1.28-1.56-2.14-2.06-.87-.48-1.8-.81-2.74-1.04-.95-.23-1.9-.37-2.86-.42-.96-.05-1.9-.01-2.84.09-1.87.2-3.67.66-5.36,1.28-.84.33-1.65.73-2.4,1.19-.75.46-1.47.99-2.06,1.62-.29.33-.56.68-.7,1.11-.04.1-.05.21-.07.32-.02.11-.02.22-.02.32,0,.21,0,.43,0,.64.02.84.09,1.66.16,2.48.14,1.62.31,3.19.48,4.71.17,1.52.35,2.98.53,4.39.04.35.09.7.13,1.04.04.32-.13.64-.41.78-.27.15-.63.13-.87-.06-.12-.09-.22-.22-.27-.36-.05-.14-.07-.31-.11-.47-1.06-5.08-1.91-9.2-2.5-12.05-.03-.18-.09-.35-.08-.51,0-.16.07-.32.1-.48.07-.31.14-.61.21-.88.13-.54.24-1,.32-1.38.04-.18.08-.35.11-.49.04-.14.1-.24.16-.32.12-.15.22-.19.22-.2Z"/>
        </g>
        <g>
          <path class="cls-1" d="M400.51,560.42c.11-2.05,1.59-5.93,11.8-7.79,7.5-1.37,10.98,1.2,13.15,3.06.75.64,1.37,1.73,1.5,2.72,0,0,.64,3.21.78,4.23l.44,3.33,2.83-1.76c2.23-1.68,2.26-3.59,1.09-4.73h0s-.26-1.84-1.02-5.31c-.95-4.36-3.94-8.9-7.86-10.28-3.92-1.37-8.76-1.54-8.76-1.54l-.65-1.52c-.12-.27-.39-.43-.68-.39l-3.58.51c-.28.04-.51.27-.54.56l-.19,1.54s-6.41,3.44-8.3,7.07c-1.9,3.63-1.97,9.69-1.97,9.69,0,0,.2,3.18.7,5.24h0c-.93,1.23-.71,3,.51,3.95.91.71,2.32,1.54,2.32,1.54l-.68-4.27-.88-5.85Z"/>
          <path class="cls-16" d="M428.67,563.1s.07-.08.16-.24c.09-.17.22-.41.38-.74.29-.66.74-1.62.95-2.92.18-1.33-.41-2.94-1.62-4.2-.61-.63-1.36-1.14-2.13-1.66-.78-.52-1.61-1.01-2.5-1.45-.88-.44-1.78-.82-2.65-1.14-.88-.32-1.74-.55-2.53-.86-.78-.3-1.48-.7-1.98-1.23-.5-.53-.8-1.18-1.04-1.76-.46-1.19-.7-2.21-.92-2.9-.11-.35-.19-.61-.26-.79-.07-.18-.11-.27-.12-.27-.02,0,.09.39.26,1.09.18.7.38,1.72.82,2.95.24.6.52,1.28,1.06,1.86.53.58,1.27,1.01,2.07,1.33.8.33,1.67.56,2.53.88.86.32,1.74.69,2.62,1.13.87.44,1.7.92,2.47,1.43.76.52,1.51,1.01,2.09,1.61,1.16,1.18,1.75,2.72,1.61,3.95-.16,1.26-.58,2.23-.83,2.9-.27.67-.44,1.03-.42,1.04Z"/>
          <g class="cls-19">
            <path class="cls-3" d="M428.67,563.1s1.62-3.09,1.38-4.81c-.05-.32-.12-.63-.22-.92-.4-1.18-1.18-2.19-2.17-2.94-2.1-1.61-4.48-2.87-7-3.72-1.39-.47-2.89-.85-3.93-1.86-1.32-1.3-1.7-4.02-2.33-5.91,0,0,1.56,3.92,2.86,5.15,1.26,1.2,6.13,1.66,10.88,5.36,4.75,3.7,2.44,7.3,1.47,8.5-.41.51-.95,1.15-.95,1.15Z"/>
          </g>
          <path class="cls-16" d="M399.15,559.88c.08.02.1-1.17,1.08-2.7.96-1.53,2.8-3.29,5.13-4.77.58-.37,1.18-.75,1.64-1.27.46-.52.73-1.13.92-1.71.35-1.17.59-2.22.82-3.11.22-.89.36-1.61.44-2.12.08-.51.1-.79.08-.79-.02,0-.09.27-.2.77-.12.49-.3,1.21-.54,2.08-.25.87-.52,1.94-.88,3.07-.19.56-.45,1.13-.88,1.59-.42.47-.99.83-1.57,1.2-2.36,1.5-4.23,3.32-5.16,4.92-.47.8-.72,1.52-.8,2.02-.07.25-.06.45-.08.59,0,.14,0,.21,0,.21Z"/>
        </g>
        <g class="cls-19">
          <path class="cls-3" d="M401.01,554.81c1.02-1.05,2.3-1.81,3.41-2.76,2.3-1.96,3.55-5.15,4.71-7.92-.54,2.36-.74,4.34-1.73,6.09-1.1,1.94-3.41,2.79-5.13,4.22-1.34,1.12-2.33,2.64-2.82,4.31-.24-1.44.53-2.89,1.55-3.94Z"/>
        </g>
        <path class="cls-16" d="M413.93,577.08c-.1-.16.6-.76,1.55-1.33.96-.57,1.82-.91,1.92-.75.11.16-.59.76-1.55,1.33-.96.58-1.83.91-1.92.75Z"/>
      </g>
      <g class="cls-18">
        <path class="cls-14" d="M413.11,554.79c-.51.08-.87.55-.81,1.07.36,3.47,1.73,16.32,2.24,17.61.53,1.34,8.87-6.06,10.66-7.67.22-.2.34-.48.32-.78-.09-1.83-.75-8.43-5.57-9.7-3.31-.87-5.65-.73-6.85-.53Z"/>
      </g>
      <path class="cls-14" d="M413.42,578.64s.09,0,.27-.05c.18-.04.44-.09.77-.19.66-.18,1.61-.5,2.71-1.03,1.11-.53,2.37-1.29,3.62-2.33.63-.52,1.25-1.11,1.84-1.77.59-.66,1.17-1.38,1.61-2.22.22-.42.38-.87.48-1.32.09-.46.12-.91.1-1.36-.04-.89-.2-1.73-.32-2.53-.26-1.6-.53-3.03-.85-4.22-.32-1.19-.67-2.12-.96-2.74-.14-.31-.26-.55-.35-.71-.09-.16-.13-.24-.14-.24s.03.09.1.26c.08.16.18.41.31.72.26.63.59,1.56.89,2.75.3,1.18.56,2.61.81,4.21.12.8.28,1.64.31,2.51.01.43,0,.88-.1,1.31-.09.43-.25.86-.46,1.27-.42.82-.99,1.53-1.57,2.18-.58.65-1.2,1.24-1.81,1.75-1.23,1.04-2.48,1.8-3.57,2.34-1.09.55-2.02.88-2.67,1.09-.32.11-.58.18-.75.23-.17.05-.26.08-.26.09Z"/>
      <path class="cls-14" d="M404.47,560.43c.06.03.54-.89,1.49-1.72.94-.84,1.92-1.2,1.9-1.26,0-.05-1.06.23-2.03,1.1-.99.86-1.4,1.87-1.35,1.88Z"/>
    </g>
    <path class="cls-6" d="M411.04,599.78s-2.48-.64-3.12,3c-.81,4.6-1.51,17.11-1.51,17.11l-7.96-11.75-12.11,8.03s11.49,18.53,13.52,21.4c3.53,5,16.69,3.45,17.14-5.5.45-8.95-5.96-32.28-5.96-32.28Z"/>
    <path class="cls-6" d="M443.11,586.25s4.52,1.22,13.03,8.16c8.51,6.94,23.04,18.1,18.39,26.75-3.16,5.89-23.97,28.75-23.97,28.75l-14.57-9.34,17.28-22.19-19.08-13.43s-1.73-20.33,8.92-18.7Z"/>
    <path class="cls-6" d="M412.66,589.31l.87,4.18-2.61,2.77c-2.27,2.4-3.34,5.7-2.91,8.98l5.84,44.91-1.48,31.33s56.35.94,56.67,0c.32-.94-.63-13.47-2.21-25.02-1.58-11.55-6.94-32.04-6.94-32.04l-8.51-24.26-8.27-13.92-10.01-1.31-2.38-4.36-18.06,8.74Z"/>
    <g>
      <path class="cls-4" d="M413.01,667.94l55.21.36c-.32-3.07-1-9.32-1-9.32l-53.77-.09-.43,9.05Z"/>
      <polygon class="cls-14" points="413.11 665.08 467.87 665.08 467.51 661.73 413.3 661.73 413.11 665.08"/>
    </g>
    <g>
      <path class="cls-4" d="M410.27,620.11l33.37-8.51c-1.96-2.63-4.34-7.97-4.34-7.97l-30.23,7.45,1.21,9.03Z"/>
      <polygon class="cls-14" points="410.23 617.33 441.79 609.28 440.59 606.13 409.55 614.04 410.23 617.33"/>
    </g>
    <g>
      <path class="cls-8" d="M479.49,661.96s-.29,7.23-2.79,6.75c-2.49-.48-32.01-13.77-38.07-16.41-6.36-2.77-6.05-2.64-17.8-5.34l3.88-5.82s19.11,9.96,24.67,11.33c5.56,1.37,30.11,9.5,30.11,9.5Z"/>
      <g>
        <path class="cls-4" d="M425.41,639.57l-3.08-1.16,3.03-7.8s-5.7,1.65-6.94,3.67c-1.24,2.01-5.26,12.24-6.54,14.6-1.27,2.36-2.32,4.22-2.32,4.22l9.73,3.62s1.2-2.34,1.28-4.49c.08-2.15,4.84-12.67,4.84-12.67Z"/>
        <path class="cls-16" d="M425.41,639.57s-.06.1-.16.3c-.1.22-.24.52-.42.89-.36.78-.88,1.94-1.51,3.41-.63,1.48-1.39,3.27-2.14,5.37-.19.53-.37,1.07-.53,1.65-.07.29-.15.58-.18.9-.04.31-.05.6-.1.91-.19,1.21-.62,2.46-1.21,3.66l.18-.07c-2.97-1.11-6.25-2.34-9.72-3.64l.08.23c.46-.83.92-1.68,1.4-2.54.47-.86.98-1.72,1.4-2.65,1.83-4.01,3.37-7.93,4.96-11.45.2-.44.4-.87.61-1.29.21-.41.41-.85.69-1.18.58-.67,1.37-1.13,2.12-1.53,1.53-.8,3.08-1.36,4.52-1.81l-.15-.16c-1.25,3.28-2.27,5.95-2.98,7.82l-.03.07.07.02c.98.35,1.75.62,2.29.82.25.09.45.16.6.21.14.05.21.07.22.07,0,0-.06-.03-.18-.08-.15-.06-.34-.14-.58-.23-.54-.21-1.31-.52-2.3-.91l.04.09c.74-1.86,1.79-4.52,3.08-7.78l.09-.23-.24.07c-1.46.44-3.01.99-4.58,1.79-.77.42-1.58.87-2.22,1.59-.32.38-.51.81-.73,1.23-.21.43-.42.86-.62,1.3-1.61,3.52-3.16,7.44-4.98,11.44-.41.91-.92,1.77-1.39,2.63-.47.86-.94,1.71-1.39,2.54l-.09.17.17.06c3.48,1.29,6.77,2.51,9.74,3.61l.12.05.06-.11c.6-1.25,1.02-2.5,1.21-3.76.05-.31.06-.64.09-.93.03-.29.1-.57.17-.86.15-.56.33-1.11.51-1.63.73-2.1,1.47-3.9,2.08-5.38.61-1.46,1.1-2.62,1.44-3.44.16-.38.29-.68.38-.91.08-.2.13-.33.12-.32Z"/>
      </g>
    </g>
    <path class="cls-16" d="M436.36,640.81c-.21-.14-6.43,3.11-6.43,3.11l2.86,1.24s-1.62,9.02-.91,10.43c.71,1.41,3.36,5.3,3.36,5.3,0,0,2.83.18,3.18-.88l1.24-1.24s4.07,2.12,5.13,1.41c1.06-.71,2.3-7.6,2.3-7.6l2.73-3.15-13.45-8.62Z"/>
    <path class="cls-16" d="M445.83,612.98c.05-.07.89.45,2.25,1.37,1.36.92,3.25,2.23,5.39,3.77h-.38c.72-.48,1.52-.92,2.39-1.26,3.16-1.23,6.31-1.04,8.4-.52,1.06.24,1.88.59,2.43.83.54.27.83.44.81.49-.05.11-1.26-.46-3.34-.84-2.06-.38-5.07-.47-8.05.69-.82.32-1.58.73-2.27,1.17l-.2.13-.18-.14c-2.12-1.56-3.96-2.95-5.25-3.96s-2.04-1.65-1.99-1.72Z"/>
    <path class="cls-16" d="M417.07,587.32s.08.11.2.35c.14.29.31.64.52,1.08.47,1.02,1.11,2.42,1.92,4.2v.03s.01.03.01.03c.18,3.98.69,9.85,1.61,16.93.9,7.08,2.23,15.36,3.64,24.21,1.04,6.51,2,12.72,2.71,18.39.86,5.69.43,10.9.29,15.19-.2,4.31-.43,7.81-.58,10.22-.08,1.15-.15,2.07-.2,2.78-.05.63-.09.97-.12.96-.02,0-.03-.34-.02-.97.02-.7.04-1.63.07-2.78.09-2.49.21-5.96.36-10.22.08-4.32.46-9.47-.43-15.1-.75-5.66-1.73-11.86-2.76-18.37-1.41-8.85-2.7-17.14-3.54-24.24-.87-7.1-1.28-12.99-1.36-16.99v.06c-.74-1.81-1.33-3.23-1.76-4.26-.18-.45-.32-.81-.44-1.11-.09-.25-.13-.38-.12-.39Z"/>
    <path class="cls-16" d="M413.53,593.49c0-.11,1.24-.21,3.2-.33,1.96-.11,4.59-.8,7.21-2.27,2.63-1.43,4.86-3.03,6.48-4.17,1.61-1.15,2.61-1.86,2.68-1.78.06.07-.84.91-2.38,2.17-1.55,1.25-3.75,2.92-6.45,4.39-1.34.74-2.71,1.29-4.01,1.65-1.29.36-2.51.47-3.51.5-2,0-3.22-.07-3.23-.15Z"/>
    <path class="cls-16" d="M408.29,604.53c.19-.02,1.33,8.52,2.56,19.07,1.22,10.56,2.06,19.13,1.87,19.15-.19.02-1.33-8.52-2.56-19.08-1.22-10.55-2.06-19.13-1.87-19.15Z"/>
    <path class="cls-16" d="M440.42,605.84c-.06.04-.81-.85-1.53-2.56-.72-1.7-1.33-4.29-1.01-7.14.32-2.85,1.47-5.25,2.55-6.75,1.08-1.52,2.01-2.22,2.06-2.17.08.08-.71.9-1.65,2.44-.94,1.52-1.97,3.84-2.27,6.56-.3,2.72.2,5.2.78,6.9.58,1.71,1.17,2.68,1.08,2.74Z"/>
    <path class="cls-16" d="M412.37,681.48c0-.19,12.7-.3,28.36-.24,15.67.06,28.37.26,28.36.45,0,.19-12.7.3-28.37.24-15.66-.06-28.36-.26-28.36-.45Z"/>
    <polygon class="cls-16" points="435.51 697.98 448.11 697.98 451.05 724.9 438.67 727.7 435.51 697.98"/>
    <path class="cls-16" d="M417.48,702.19h11.11l5.19,22.1-9.37,2.9s-5.04-11.87-6.02-15.78c-.94-3.74-.9-9.22-.9-9.22Z"/>
    <polygon class="cls-4" points="464 738.24 464.21 745.18 441.44 746.39 440.5 739.22 464 738.24"/>
    <polygon class="cls-14" points="464.14 740.11 440.79 741.45 441.3 744.49 464.19 742.92 464.14 740.11"/>
    <path class="cls-4" d="M464.21,748.12c-.02,2.14-.1,4.67-.25,7.24l-21.16,1.36-.96-7.27,22.37-1.33Z"/>
    <polygon class="cls-14" points="464.18 749.97 442.17 751.92 442.62 754.64 464.06 753.07 464.18 749.97"/>
    <path class="cls-4" d="M458.32,640.94c-.23-.18-14.69-10.08-14.69-10.08l4.33-5.5,14.66,10.89-4.3,4.69Z"/>
    <path class="cls-14" d="M461.33,637.76c-.03-.08-14.59-10.85-14.59-10.85l-1.97,2.5,14.92,10.27,1.64-1.92Z"/>
    <path class="cls-4" d="M389.14,620.67c.24-.17,11.98-8.64,11.98-8.64l4,5.74-12.17,9-3.81-6.1Z"/>
    <path class="cls-14" d="M391.61,624.7c.09,0,12.4-8.55,12.4-8.55l-1.82-2.61-11.93,9.03,1.35,2.13Z"/>
    <path class="cls-16" d="M453.05,618.9s-.4.64-1.21,1.74c-.89,1.17-2.07,2.73-3.52,4.64-3.1,3.98-7.31,9.39-12.07,15.52l-.08-.5c1.32.85,2.71,1.73,4.12,2.63,3.7,2.38,7.22,4.65,10.45,6.73l-.41.06c3.89-4.33,7.21-8.03,9.65-10.75,1.15-1.24,2.08-2.26,2.8-3.04.66-.7,1.03-1.06,1.05-1.04.03.02-.29.43-.9,1.18-.68.81-1.57,1.86-2.67,3.16-2.39,2.76-5.65,6.52-9.46,10.91l-.18.21-.23-.15c-3.23-2.06-6.76-4.32-10.47-6.68-1.41-.9-2.79-1.79-4.11-2.64l-.32-.2.23-.29c4.83-6.07,9.11-11.43,12.25-15.37,1.51-1.85,2.75-3.37,3.68-4.51.87-1.05,1.37-1.61,1.4-1.58Z"/>
    <path class="cls-16" d="M407.83,628.89c-.19.03-.61-1.97-.94-4.45-.33-2.48-.44-4.51-.25-4.54.19-.03.61,1.97.94,4.45.33,2.48.44,4.51.25,4.54Z"/>
    <path class="cls-16" d="M385.17,599.41c-1.02.04-1.94-.82-2.94-.66-.4.06-.76.28-1.13.46-.87.41-1.85.56-2.8.44-.28-.04-.57-.1-.8-.28-.39-.31-.47-.88-.39-1.38.13-.82,1.11-1.18,1.8-1.62.7-.44,6.3-.84,7.1-.62"/>
  </g>
</svg>