<?xml version="1.0" encoding="UTF-8"?>
<svg id="Layer_2" data-name="Layer 2" xmlns="http://www.w3.org/2000/svg" viewBox="0 0 1000 1000">
  <defs>
    <style>
      .cls-1 {
        fill: #ff9a6c;
      }

      .cls-1, .cls-2, .cls-3, .cls-4, .cls-5, .cls-6, .cls-7, .cls-8, .cls-9, .cls-10, .cls-11 {
        stroke-width: 0px;
      }

      .cls-2, .cls-6, .cls-11 {
        fill: #000;
      }

      .cls-3 {
        fill: #e0e0e0;
      }

      .cls-12, .cls-6 {
        opacity: .2;
      }

      .cls-4 {
        fill: #455a64;
      }

      .cls-5 {
        fill: #09f;
      }

      .cls-6, .cls-11 {
        isolation: isolate;
      }

      .cls-7 {
        fill: #ebebeb;
      }

      .cls-8 {
        fill: none;
      }

      .cls-9 {
        fill: #263238;
      }

      .cls-10 {
        fill: #ffbf9d;
      }

      .cls-13, .cls-11 {
        opacity: .3;
      }
    </style>
  </defs>
  <g id="freepik--background-complete--inject-2">
    <path class="cls-7" d="M628.01,501.39l-240.76-2.32-72.85-.35h-25.01c-.58-.04-1.17-.04-1.75,0,.58.09,1.17.13,1.75.12l5.16.12,19.83.24,72.97.41,240.76.14c93.99,0,179.08.12,240.68.57,30.8.22,55.73.51,72.95.86,8.62.16,15.31.33,19.83.51,2.32-.05,4.64.13,6.93.53-2.29.37-4.61.52-6.93.45-4.52.12-11.23.24-19.83.31-17.24.16-42.17.2-72.97,0-61.7.12-146.72-.61-240.76-1.59Z"/>
    <path class="cls-7" d="M626.14,522.6l-237.46-39.73-72.03-11.68-19.61-3.04-5.1-.71c-.58-.12-1.16-.18-1.75-.18.56.18,1.13.31,1.71.39l5.08.94,19.55,3.32,72.01,11.74,237.83,37.55c92.84,14.57,176.88,27.92,237.66,37.93,30.39,5.01,55.03,9.17,71.93,12.23,8.5,1.51,15.06,2.71,19.53,3.59,2.29.33,4.55.87,6.75,1.61-2.32.02-4.63-.19-6.91-.61-4.5-.59-11.13-1.51-19.65-2.77-17.04-2.53-41.68-6.36-72.09-11.23-60.82-9.8-144.76-23.77-237.44-39.34Z"/>
    <path class="cls-7" d="M620.96,543.25l-228.29-76.62-69.3-22.89-18.87-6.11-4.93-1.53c-.56-.19-1.13-.33-1.71-.45.52.27,1.07.5,1.63.67l4.87,1.71,18.79,6.38,69.3,22.93,228.94,74.52c89.38,29,170.28,55.42,228.74,74.89,29.21,9.72,52.83,17.71,69.12,23.36,8.15,2.81,14.43,5.05,18.69,6.62,2.22.67,4.37,1.56,6.42,2.65-2.29-.35-4.54-.92-6.73-1.69-4.36-1.28-10.76-3.24-18.98-5.83-16.43-5.18-40.15-12.84-69.42-22.42-58.52-19.18-139.19-46.21-228.27-76.19Z"/>
    <path class="cls-7" d="M612.6,562.82l-213.35-111.58-64.82-33.49-17.69-8.99-4.63-2.26c-.51-.29-1.05-.53-1.61-.71.48.33.99.63,1.51.9l4.52,2.47,17.55,9.23,64.8,33.65,214.37,109.64c83.69,42.8,159.43,81.53,214.02,109.94,27.33,14.27,49.41,25.8,64.59,33.94,7.6,4.08,13.47,7.28,17.43,9.5,2.08,1.02,4.06,2.22,5.91,3.61-2.2-.7-4.33-1.62-6.36-2.73-4.08-2.04-10.19-4.89-17.81-8.74-15.41-7.7-37.65-19-65.02-33.1-54.73-28.27-130.16-67.65-213.41-111.27Z"/>
    <path class="cls-7" d="M601.29,580.84l-193.29-143.56-58.8-43.21-16.06-11.64-4.22-2.98c-.47-.35-.96-.67-1.47-.96.41.43.86.81,1.35,1.14l4.08,3.14,15.9,11.86,58.74,43.27,194.59,141.78c75.99,55.28,144.72,105.46,194.27,142.07,24.77,18.34,44.84,33.22,58.48,43.62,6.87,5.2,12.23,9.29,15.74,12.11,1.91,1.31,3.68,2.82,5.28,4.48-2.07-1.04-4.04-2.28-5.87-3.69-3.73-2.57-9.21-6.42-16.31-11.43-14.02-10.01-34.2-24.64-59.11-42.8-49.55-36.42-117.89-87.12-193.29-143.21Z"/>
    <path class="cls-7" d="M587.29,596.88l-168.61-171.87-51.28-51.83-14.06-14-3.71-3.59c-.4-.43-.84-.82-1.3-1.18.35.47.74.92,1.16,1.32l3.55,3.73,13.86,14.27,51.24,51.81c43.6,43.62,103.73,103.83,170.18,170.34,66.45,66.51,126.56,126.68,169.79,170.54,21.63,21.95,39.05,39.77,50.96,52.2,5.97,6.11,10.58,11.05,13.66,14.39,1.67,1.6,3.19,3.37,4.52,5.26-1.88-1.35-3.63-2.88-5.22-4.57-3.3-3.12-8.15-7.77-14.27-13.82-12.23-12.07-29.96-29.66-51.67-51.51-43.4-43.68-103.04-104.36-168.79-171.5Z"/>
    <path class="cls-7" d="M570.98,610.54l-139.83-196.02-42.66-59.11-11.72-16.02-3.1-4.08c-.33-.49-.7-.95-1.12-1.37.29.52.61,1.01.96,1.49l2.94,4.24,11.46,16.18,42.68,59.13,141.62,194.72c55.32,75.97,105.32,144.72,141.19,194.9,17.96,25.03,32.39,45.35,42.25,59.48,4.95,7.05,8.74,12.58,11.27,16.31,1.39,1.84,2.61,3.82,3.63,5.89-1.65-1.62-3.14-3.4-4.44-5.32-2.77-3.59-6.79-8.93-11.92-15.86-10.19-13.84-24.99-33.96-43.03-58.93-36.18-49.86-85.65-119.1-140.17-195.63Z"/>
    <path class="cls-7" d="M552.74,621.48c-41.95-84.14-79.92-160.27-107.46-215.47l-32.88-65.12-9.07-17.65-2.43-4.57c-.25-.52-.55-1.03-.88-1.51.18.56.41,1.1.69,1.61l2.22,4.67c2.04,4.08,5.01,10.19,8.81,17.77l32.84,65.23,109.41,214.49c42.8,83.67,81.39,159.5,109.01,214.57,13.82,27.52,24.91,49.86,32.43,65.35,3.77,7.75,6.67,13.78,8.56,17.9,1.11,2.04,2,4.18,2.67,6.4-1.36-1.87-2.55-3.86-3.55-5.95-2.18-3.97-5.32-9.89-9.31-17.53-7.97-15.27-19.36-37.44-33.29-64.92-27.86-55.01-65.92-131.14-107.78-215.26Z"/>
    <path class="cls-7" d="M533.01,629.37c-28.21-89.68-53.71-170.85-72.22-229.69-9.38-29.29-16.96-53-22.24-69.49-2.67-8.15-4.75-14.47-6.11-18.85-.71-2.04-1.26-3.71-1.67-4.87-.17-.57-.38-1.12-.63-1.65.09.58.23,1.16.43,1.71l1.47,4.95,5.89,18.94,22.18,69.51,74.32,229.02c29.09,89.36,55.28,170.32,73.91,229.04,9.29,29.35,16.73,53.16,21.73,69.65,2.51,8.15,4.4,14.66,5.65,19.02.75,2.19,1.3,4.45,1.63,6.75-1.08-2.06-1.94-4.21-2.59-6.44-1.53-4.26-3.69-10.6-6.44-18.77-5.46-16.31-13.21-40.03-22.65-69.3-18.94-58.62-44.62-139.83-72.64-229.51Z"/>
    <path class="cls-7" d="M512.26,634.18l-35.18-238.19c-4.65-30.41-8.4-55.03-11.01-72.11-1.37-8.46-2.43-15.04-3.14-19.59l-.88-5.1c-.08-.58-.21-1.15-.39-1.71.02.59.07,1.17.16,1.75.16,1.2.39,2.91.67,5.12.67,4.55,1.61,11.15,2.83,19.63,2.61,17.1,6.34,41.72,10.97,72.13,9.58,60.92,22.77,144.98,37.36,237.85,14.59,92.86,27.78,176.82,36.93,237.83,4.57,30.45,8.15,55.14,10.52,72.2,1.16,8.54,2.04,15.16,2.57,19.67.4,2.29.59,4.61.55,6.93-.72-2.2-1.23-4.47-1.53-6.77-.84-4.46-2.04-11.05-3.4-19.55-2.83-17-6.77-41.62-11.46-72.05-9.44-60.88-21.93-145-35.59-238.03Z"/>
    <path class="cls-7" d="M491.02,635.63c.86-94.03,1.61-179.1,2.18-240.76.12-30.78.22-55.67.31-72.97v-24.99c.02-.59-.01-1.19-.1-1.77-.06.59-.1,1.18-.1,1.77,0,1.22,0,2.94-.12,5.16,0,4.61-.14,11.27-.24,19.83,0,17.28-.2,42.19-.35,72.97v240.76c0,93.96,0,179.06-.43,240.66-.2,30.82-.47,55.75-.79,72.97-.16,8.6-.33,15.29-.51,19.83.05,2.31-.12,4.63-.51,6.91-.38-2.28-.54-4.6-.47-6.91-.12-4.55-.24-11.23-.33-19.85-.16-17.22-.2-42.15-.14-72.95,0-61.62.69-146.7,1.61-240.66Z"/>
    <path class="cls-7" d="M469.8,633.75c15.45-92.74,29.43-176.66,39.58-237.48,4.89-30.37,8.87-55.03,11.64-72.03,1.3-8.48,2.3-15.06,3.02-19.61.31-2.2.55-3.89.71-5.12.12-.58.18-1.16.18-1.75-.19.56-.32,1.13-.39,1.71l-.94,5.1c-.75,4.52-1.88,11.11-3.32,19.55-2.77,17.08-6.75,41.66-11.68,72.01-9.58,60.92-22.79,144.98-37.4,237.87-14.61,92.88-27.8,176.88-37.79,237.68-4.99,30.39-9.13,55.03-12.13,71.93-1.51,8.48-2.71,15.06-3.59,19.53-.32,2.29-.85,4.55-1.59,6.75-.03-2.32.17-4.63.61-6.91.57-4.5,1.49-11.13,2.75-19.65,2.51-17.04,6.32-41.68,11.19-72.09,9.7-60.84,23.62-144.8,39.13-237.48Z"/>
    <path class="cls-7" d="M449.15,628.6l76.48-228.29c9.64-29.23,17.43-52.87,22.83-69.3,2.63-8.15,4.67-14.51,6.11-18.89l1.53-4.93c.2-.55.34-1.12.43-1.69-.25.53-.47,1.07-.65,1.63l-1.71,4.87c-1.47,4.36-3.61,10.66-6.36,18.77-5.42,16.43-13.23,40.07-22.89,69.3l-74.42,228.98c-28.94,89.4-55.3,170.32-74.74,228.78-9.7,29.23-17.67,52.85-23.32,69.14-2.81,8.15-5.03,14.45-6.6,18.69-.67,2.22-1.56,4.37-2.65,6.42.38-2.31.98-4.57,1.79-6.77,1.26-4.36,3.22-10.76,5.81-18.98,5.16-16.43,12.82-40.15,22.42-69.44,19.04-58.5,46.02-139.21,75.95-228.29Z"/>
    <path class="cls-7" d="M429.57,620.26c43.52-83.35,82.92-158.76,111.45-213.43l33.45-64.86,8.97-17.71,2.28-4.63c.27-.52.51-1.06.71-1.61-.35.48-.66.98-.92,1.51l-2.45,4.55c-2.14,4.08-5.26,9.97-9.23,17.55l-33.51,64.82-109.5,214.43c-42.68,83.73-81.53,159.5-109.82,214.16-14.27,27.33-25.78,49.41-33.9,64.61-4.08,7.6-7.26,13.47-9.48,17.43-1.02,2.08-2.23,4.07-3.61,5.93.7-2.21,1.61-4.35,2.73-6.38,2.04-4.08,4.89-10.19,8.72-17.81,7.7-15.43,19-37.65,33.06-65.04,28.15-54.79,67.47-130.25,111.03-213.51Z"/>
    <path class="cls-7" d="M411.55,608.99l143.37-193.43,43.19-58.8c5.01-6.95,8.91-12.35,11.62-16.08l2.98-4.22c.35-.47.67-.96.96-1.47-.43.41-.81.86-1.14,1.35-.73.98-1.77,2.32-3.14,4.08l-11.86,15.9-43.21,58.78c-36.3,49.86-86.36,118.65-141.68,194.68-55.32,76.03-105.36,144.72-141.95,194.35-18.34,24.79-33.18,44.84-43.58,58.52-5.2,6.87-9.27,12.23-12.09,15.74-1.33,1.89-2.83,3.66-4.48,5.28,1.03-2.08,2.27-4.04,3.69-5.87,2.57-3.73,6.4-9.21,11.41-16.31,9.99-14.02,24.62-34.22,42.8-59.11,36.42-49.59,87.08-117.96,143.11-193.37Z"/>
    <path class="cls-7" d="M395.51,594.96l171.77-168.73,51.81-51.39,13.98-14.06,3.59-3.71c.43-.4.82-.83,1.16-1.3-.46.35-.9.74-1.3,1.16l-3.75,3.57-14.27,13.84-51.83,51.36-170.24,170.26c-66.39,66.51-126.6,126.64-170.44,169.91-21.93,21.65-39.75,39.07-52.16,50.96-6.11,5.99-11.05,10.6-14.39,13.68-1.6,1.67-3.37,3.19-5.26,4.52,1.36-1.88,2.88-3.63,4.57-5.22,3.12-3.3,7.77-8.15,13.8-14.27,12.07-12.23,29.66-29.96,51.49-51.71,43.74-43.39,104.4-103.08,171.48-168.87Z"/>
    <path class="cls-7" d="M381.85,578.66l195.92-139.95,59.11-42.8,16-11.72,4.08-3.1c.48-.34.93-.71,1.35-1.12-.52.27-1.02.58-1.49.94l-4.06,3.04-16.31,11.48-59.11,42.66-194.64,141.72c-75.93,55.38-144.72,105.42-194.8,141.33-25.01,17.98-45.33,32.43-59.46,42.29-7.05,4.93-12.56,8.74-16.31,11.27-1.85,1.41-3.83,2.63-5.91,3.65,1.62-1.65,3.4-3.14,5.32-4.44,3.59-2.79,8.95-6.81,15.86-11.96,13.82-10.19,33.96-24.99,58.89-43.05,49.84-36.16,119.04-85.67,195.55-140.23Z"/>
    <path class="cls-7" d="M370.88,560.41l215.39-107.58,65.12-32.92,17.63-9.09,4.57-2.43c.52-.25,1.03-.55,1.51-.88-.56.18-1.09.42-1.61.69l-4.65,2.24-17.77,8.81-65.23,32.88-214.37,109.56c-83.57,42.8-159.45,81.53-214.49,109.13-27.52,13.84-49.86,24.93-65.35,32.47-7.75,3.79-13.78,6.67-17.9,8.58-2.04,1.1-4.18,1.99-6.4,2.67,1.89-1.39,3.89-2.61,5.99-3.65,4.08-2.18,9.89-5.32,17.53-9.31,15.27-7.99,37.44-19.38,64.9-33.33,54.93-27.82,131.02-65.92,215.12-107.85Z"/>
    <path class="cls-7" d="M362.91,540.68l229.65-72.34,69.46-22.26,18.85-6.11,4.87-1.67c.57-.17,1.12-.39,1.65-.65-.58.11-1.15.26-1.71.45l-4.93,1.47-18.96,5.89-69.49,22.22-229,74.38c-89.34,29.13-170.28,55.38-228.98,74.03-29.37,9.34-53.16,16.78-69.65,21.79-8.15,2.51-14.66,4.42-19.02,5.65-2.18.78-4.45,1.33-6.75,1.63,2.06-1.05,4.21-1.91,6.42-2.57,4.28-1.53,10.6-3.71,18.77-6.46,16.31-5.48,40.01-13.25,69.3-22.71,58.68-18.92,139.85-44.54,229.49-72.73Z"/>
    <path class="cls-7" d="M358.16,519.95l238.15-35.3,72.13-11.07,19.57-3.16,5.1-.88c.58-.08,1.15-.2,1.71-.37-.59-.01-1.17.04-1.75.14l-5.12.69-19.63,2.83-72.11,11.03-237.85,37.46c-92.88,14.72-176.88,27.9-237.79,37.1-30.45,4.59-55.03,8.15-72.2,10.56-8.54,1.18-15.16,2.04-19.67,2.59-2.29.4-4.61.59-6.93.55,2.2-.72,4.47-1.23,6.77-1.53,4.46-.84,11.05-2.04,19.55-3.42,17-2.85,41.62-6.79,72.05-11.5,60.88-9.46,145.04-22.01,238.01-35.73Z"/>
    <path class="cls-7" d="M356.7,498.72l240.76,2.04,72.97.26h24.99c.59.04,1.18.04,1.77,0-.59-.09-1.18-.13-1.77-.12l-5.16-.1-19.83-.22-72.97-.31-240.76.14c-93.96.12-179.06.1-240.66-.29-30.82-.18-55.75-.43-72.97-.75-8.6-.14-15.31-.31-19.83-.49-2.31.05-4.63-.12-6.91-.51,2.28-.37,4.6-.53,6.91-.47,4.55-.12,11.23-.24,19.85-.33,17.22-.18,42.15-.24,72.95-.2,61.6-.16,146.7.49,240.66,1.35Z"/>
    <path class="cls-7" d="M358.55,477.5l237.52,39.42,72.03,11.6,19.61,3,5.12.73c.58.11,1.16.16,1.75.16-.57-.17-1.15-.3-1.73-.39l-5.08-.92-19.55-3.32-72.03-11.64-237.87-37.24c-92.86-14.47-176.92-27.7-237.7-37.65-30.41-4.95-55.03-9.09-71.97-12.09-8.48-1.49-15.06-2.69-19.51-3.57-2.29-.31-4.55-.84-6.75-1.59,2.32-.03,4.63.17,6.91.61,4.5.57,11.13,1.49,19.65,2.73,17.04,2.51,41.68,6.32,72.09,11.15,60.86,9.68,144.8,23.54,237.5,38.99Z"/>
    <path class="cls-7" d="M363.71,456.83l228.29,76.35,69.3,22.79,18.89,6.11,4.93,1.51c.55.2,1.12.35,1.69.45-.52-.28-1.07-.49-1.63-.65l-4.87-1.71-18.79-6.36-69.3-22.85-228.9-74.32c-89.42-28.9-170.36-55.2-228.82-74.6-29.25-9.68-52.87-17.65-69.16-23.28-8.15-2.81-14.45-5.03-18.71-6.6-2.22-.68-4.37-1.56-6.42-2.63,2.29.33,4.55.89,6.73,1.67,4.36,1.28,10.76,3.24,18.98,5.81,16.45,5.16,40.17,12.78,69.46,22.42,58.5,19.1,139.21,46.02,228.33,75.89Z"/>
    <path class="cls-7" d="M372.03,437.26l213.47,111.31,64.86,33.41,17.69,8.95,4.65,2.28c.52.27,1.06.51,1.61.71-.49-.34-1-.65-1.53-.92l-4.52-2.45-17.53-9.23-64.84-33.49-214.41-109.33c-83.75-42.62-159.54-81.33-214.22-109.68-27.35-14.27-49.45-25.74-64.63-33.86-7.6-4.08-13.49-7.26-17.45-9.46-2.08-1.03-4.06-2.23-5.93-3.61,2.22.69,4.35,1.6,6.38,2.73,4.08,1.94,10.19,4.87,17.83,8.72,15.41,7.66,37.65,18.94,65.06,33,54.73,28.11,130.23,67.39,213.51,110.9Z"/>
    <path class="cls-7" d="M383.34,419.22l193.47,143.31,58.82,43.15,16.1,11.6,4.2,2.98c.47.36.97.68,1.49.96-.42-.41-.87-.78-1.35-1.12l-4.08-3.14-15.92-11.86-58.74-43.17-194.76-141.56c-76.07-55.18-144.86-105.26-194.45-141.82-24.81-18.34-44.84-33.14-58.54-43.54-6.87-5.2-12.23-9.27-15.76-12.09-1.91-1.31-3.68-2.82-5.28-4.48,2.07,1.04,4.04,2.28,5.87,3.69,3.75,2.57,9.23,6.4,16.31,11.41,14.02,9.99,34.22,24.6,59.11,42.8,49.59,36.3,118.02,86.89,193.49,142.88Z"/>
    <path class="cls-7" d="M397.3,403.12l168.83,171.64,51.41,51.77,14.08,13.98,3.71,3.59c.41.43.85.83,1.32,1.18-.34-.48-.73-.92-1.16-1.32l-3.57-3.73-13.88-14.27-51.36-51.63-170.38-170.11c-66.55-66.33-126.74-126.56-170.01-170.28-21.67-21.91-39.09-39.73-50.96-52.14-5.99-6.11-10.6-11.05-13.68-14.37-1.68-1.6-3.2-3.36-4.52-5.26,1.84,1.34,3.55,2.85,5.12,4.5,3.3,3.12,8.15,7.77,14.27,13.78,12.23,12.07,29.98,29.64,51.73,51.47,43.5,43.58,103.22,104.2,169.06,171.2Z"/>
    <path class="cls-7" d="M413.61,389.5l140.07,195.82,42.8,59.11,11.74,15.98,3.1,4.08c.34.49.71.94,1.12,1.37-.26-.53-.58-1.02-.94-1.49l-2.94-4.24-11.5-16.16-42.7-59.11c-36.32-49.84-86.44-118.59-141.84-194.55-55.4-75.97-105.5-144.72-141.46-194.7-18.06-24.99-32.51-45.23-42.4-59.5-4.95-7.05-8.76-12.56-11.29-16.31-1.39-1.85-2.61-3.82-3.65-5.89,1.66,1.62,3.15,3.41,4.46,5.32,2.77,3.57,6.81,8.91,11.94,15.84,10.19,13.82,25.01,33.92,43.11,58.87,36.18,49.92,85.73,119.1,140.36,195.57Z"/>
    <path class="cls-7" d="M431.83,378.52c42.07,84.1,80.12,160.19,107.72,215.32l32.96,65.1,9.11,17.63,2.41,4.55c.26.53.56,1.04.9,1.53-.18-.56-.41-1.1-.69-1.61-.53-1.12-1.28-2.65-2.24-4.67l-8.72-17.75c-7.79-15.45-19.04-37.67-32.92-65.23l-109.76-214.22c-42.8-83.57-81.53-159.41-109.29-214.43-13.84-27.52-24.95-49.84-32.61-65.23-3.77-7.75-6.67-13.78-8.58-17.9-1.1-2.03-2-4.17-2.67-6.38,1.39,1.83,2.61,3.78,3.65,5.83,2.18,4.08,5.32,9.89,9.31,17.53,8.01,15.25,19.4,37.42,33.39,64.88,27.92,54.89,66.04,130.98,108.05,215.04Z"/>
    <path class="cls-7" d="M451.54,370.51c28.33,89.68,53.95,170.79,72.52,229.59,9.4,29.29,17.02,53,22.32,69.46,2.67,8.15,4.77,14.47,6.11,18.85.73,2.04,1.28,3.71,1.67,4.87.16.57.38,1.11.65,1.63-.1-.57-.25-1.14-.43-1.69-.37-1.18-.86-2.81-1.49-4.95l-5.91-18.94c-5.28-16.47-12.88-40.17-22.26-69.49-19.12-58.62-45.47-139.52-74.62-228.92-29.15-89.4-55.5-170.24-74.17-228.94-9.36-29.35-16.82-53.14-21.85-69.63-2.51-8.15-4.42-14.66-5.65-19.02-.76-2.18-1.32-4.44-1.65-6.73,1.07,2.05,1.94,4.2,2.59,6.42,1.55,4.28,3.71,10.6,6.46,18.77,5.5,16.31,13.29,40.01,22.75,69.3,19.04,58.68,44.74,139.81,72.95,229.39Z"/>
    <path class="cls-7" d="M472.29,365.78c13.86,92.99,26.4,177.15,35.49,238.13,4.67,30.41,8.48,55.03,11.11,72.11l3.16,19.59c.39,2.2.67,3.87.88,5.1.08.58.21,1.15.39,1.71-.02-.59-.07-1.17-.16-1.75-.16-1.22-.39-2.91-.69-5.12-.65-4.57-1.61-11.15-2.85-19.63-2.63-17.1-6.4-41.72-11.05-72.11-9.66-60.92-22.95-144.96-37.67-237.81s-28.07-176.9-37.22-237.79c-4.63-30.45-8.15-55.03-10.62-72.18-1.18-8.54-2.04-15.16-2.59-19.69-.41-2.28-.61-4.59-.57-6.91.74,2.2,1.25,4.47,1.55,6.77.84,4.46,2.04,11.05,3.42,19.55,2.85,17,6.81,41.6,11.56,72.03,9.5,60.88,22.1,145.02,35.87,237.99Z"/>
    <path class="cls-7" d="M493.53,364.39c-.73,94.01-1.39,179.08-1.88,240.76,0,30.76-.16,55.67-.2,72.97v24.99c-.04.58-.04,1.17,0,1.75.09-.58.13-1.17.12-1.75,0-1.22,0-2.94.1-5.16,0-4.61.12-11.27.22-19.83,0-17.3.14-42.21.26-72.97,0-61.68-.18-146.76-.31-240.76-.12-94.01-.22-179.08.12-240.68.16-30.8.41-55.73.71-72.95.14-8.62.31-15.31.47-19.85-.05-2.31.12-4.63.51-6.91.38,2.29.54,4.61.47,6.93.14,4.52.26,11.21.35,19.83.18,17.22.29,42.15.24,72.97.18,61.52-.41,146.61-1.2,240.66Z"/>
    <path class="cls-7" d="M514.75,366.15c-15.35,92.76-29.13,176.7-39.32,237.54-4.87,30.37-8.81,55.03-11.54,72.05-1.3,8.46-2.3,15.04-3,19.61-.31,2.2-.55,3.89-.71,5.1-.1.58-.16,1.17-.18,1.75.19-.55.32-1.13.39-1.71.23-1.2.54-2.89.92-5.08.77-4.55,1.88-11.11,3.3-19.57,2.75-17.06,6.71-41.66,11.6-72.03,9.5-60.92,22.6-145,37.1-237.89,14.49-92.88,27.62-176.94,37.55-237.75,4.95-30.39,9.07-55.03,12.05-71.95,1.49-8.48,2.69-15.06,3.55-19.53.32-2.29.85-4.55,1.59-6.75.03,2.32-.17,4.63-.59,6.91-.57,4.5-1.49,11.13-2.73,19.65-2.49,17.06-6.28,41.68-11.11,72.11-9.64,60.84-23.46,144.82-38.85,237.52Z"/>
    <path class="cls-7" d="M535.41,371.28c-29.76,89.17-56.68,169.89-76.19,228.39-9.6,29.23-17.37,52.89-22.75,69.3-2.61,8.15-4.65,14.51-6.11,18.89-.65,2.14-1.14,3.77-1.51,4.93-.19.56-.33,1.13-.45,1.71.27-.52.49-1.07.65-1.63l1.71-4.87,6.34-18.79,22.81-69.3,74.07-229.08c28.84-89.44,55.03-170.38,74.46-228.88,9.66-29.23,17.61-52.87,23.22-69.16,2.81-8.15,5.03-14.45,6.6-18.71.66-2.22,1.54-4.37,2.63-6.42-.34,2.29-.9,4.55-1.69,6.73-1.26,4.36-3.2,10.76-5.79,18.98-5.14,16.45-12.74,40.19-22.3,69.49-19.04,58.48-45.9,139.32-75.7,228.43Z"/>
    <path class="cls-7" d="M554.92,379.6l-111.11,213.57-33.37,64.88-8.95,17.71-2.26,4.57c-.28.52-.51,1.06-.71,1.61.35-.47.65-.98.9-1.51l2.47-4.55c2.04-4.08,5.22-9.99,9.21-17.57l33.41-64.86c27.99-55.03,66.57-130.78,109.23-214.57,42.66-83.79,81.23-159.52,109.54-214.24,14.17-27.35,25.72-49.45,33.82-64.65,4.08-7.6,7.26-13.49,9.46-17.45,1-2.09,2.21-4.08,3.61-5.93-.7,2.25-1.62,4.43-2.73,6.5-1.94,4.08-4.87,10.19-8.7,17.83-7.66,15.43-18.94,37.67-32.98,65.08-28.07,54.73-67.3,130.25-110.82,213.57Z"/>
    <path class="cls-7" d="M573.04,390.89l-143.21,193.64-43.09,58.87-11.6,16.1-2.98,4.22c-.35.47-.67.96-.96,1.47.42-.41.8-.86,1.12-1.35l3.14-4.08,11.84-15.92c10.19-13.94,24.97-34.02,43.15-58.85l141.42-194.84c55.14-76.11,105.18-144.94,141.7-194.53,18.34-24.83,33.12-44.84,43.52-58.58,5.18-6.87,9.25-12.23,12.07-15.76,1.31-1.91,2.82-3.68,4.48-5.28-1.04,2.06-2.28,4.01-3.69,5.83-2.57,3.75-6.4,9.23-11.39,16.31-9.99,14.04-24.58,34.24-42.8,59.11-36.24,49.67-86.79,118.22-142.72,193.64Z"/>
    <path class="cls-7" d="M589.08,404.85l-171.54,168.93-51.75,51.51c-6.11,6.11-10.72,10.82-13.96,14.08-1.53,1.61-2.73,2.83-3.59,3.71-.42.41-.81.85-1.16,1.32.47-.36.91-.74,1.32-1.16l3.73-3.57,14.27-13.88,51.67-51.47,170.01-170.5c66.31-66.59,126.37-126.8,170.24-170.12,21.89-21.67,39.69-39.14,52.1-51.1,6.11-5.97,11.03-10.6,14.27-13.68,1.65-1.68,3.46-3.2,5.4-4.53-1.35,1.88-2.88,3.63-4.57,5.22-3.1,3.3-7.75,8.15-13.76,14.27-12.07,12.23-29.62,30-51.43,51.75-43.66,43.56-104.24,103.3-171.26,169.2Z"/>
    <path class="cls-7" d="M602.78,421.14l-195.68,140.19-59.11,42.8-16,11.76-4.08,3.1c-.49.33-.94.71-1.37,1.12.52-.27,1.02-.59,1.49-.94l4.24-2.96,16.16-11.5,59.11-42.8c49.8-36.38,118.53-86.55,194.45-141.99,75.93-55.44,144.62-105.58,194.62-141.58,24.95-17.92,45.25-32.43,59.35-42.38,7.05-4.95,12.56-8.76,16.31-11.29,1.85-1.41,3.83-2.63,5.91-3.65-1.62,1.65-3.4,3.14-5.32,4.44-3.59,2.79-8.93,6.83-15.84,11.96-13.82,10.19-33.92,25.05-58.85,43.15-49.84,36.26-118.93,85.83-195.41,140.54Z"/>
    <path class="cls-7" d="M613.77,439.36l-215.26,107.85-65.06,33.02-17.63,9.11-4.55,2.43c-.53.25-1.04.55-1.53.88.56-.18,1.1-.41,1.61-.69l4.65-2.24,17.77-8.83,65.08-33.04,214.26-109.84c83.57-42.93,159.35-81.67,214.37-109.41,27.5-13.86,49.82-24.99,65.23-32.61,7.75-3.79,13.78-6.69,17.9-8.6,2.04-1.1,4.18-1.99,6.4-2.67-1.88,1.36-3.87,2.55-5.95,3.57-3.97,2.18-9.89,5.34-17.51,9.34-15.25,8.01-37.42,19.45-64.86,33.41-54.83,28.13-130.88,66.31-214.92,108.36Z"/>
    <path class="cls-7" d="M621.76,459.07l-229.55,72.64-69.44,22.42-18.85,6.22-4.87,1.67c-.57.16-1.11.38-1.63.65.57-.12,1.14-.27,1.69-.45l4.95-1.47,18.94-5.93,69.46-22.42,228.86-74.74c89.32-29.25,170.22-55.6,228.92-74.34,29.33-9.38,53.12-16.84,69.59-21.89,8.26-2.51,14.66-4.42,19.02-5.67,2.18-.78,4.45-1.33,6.75-1.63-2.06,1.06-4.22,1.93-6.44,2.59-4.26,1.53-10.6,3.71-18.75,6.46-16.31,5.52-40.01,13.31-69.3,22.81-58.62,19.04-139.72,44.78-229.33,73.07Z"/>
    <path class="cls-7" d="M626.53,479.8l-238.11,35.65-72.09,11.15-19.59,3.18-5.1.88c-.58.08-1.15.21-1.71.39.59-.02,1.17-.07,1.75-.16l5.12-.69,19.63-2.87,72.11-11.11,237.72-37.81c92.78-14.82,176.84-28.11,237.75-37.38,30.45-4.63,55.03-8.26,72.18-10.64,8.54-1.2,15.16-2.04,19.67-2.61,2.28-.41,4.59-.6,6.91-.57-2.2.73-4.45,1.24-6.75,1.55-4.46.84-11.05,2.04-19.55,3.44-17,2.85-41.6,6.83-72.03,11.6-60.84,9.52-144.96,22.2-237.91,36.02Z"/>
    <path class="cls-3" d="M722.98,138.88l2.14,3.55c2.4,3.99,5.89,7.21,10.07,9.27l3.73,1.83-3.57,2.04c-3.97,2.45-7.17,5.98-9.21,10.17l-1.83,3.73-2.24-3.57c-2.4-3.98-5.88-7.19-10.05-9.25l-3.73-1.85,3.55-2.04c3.99-2.39,7.21-5.88,9.27-10.05l1.88-3.83Z"/>
    <path class="cls-3" d="M718.55,555.77l1.3,2.18c1.46,2.43,3.58,4.4,6.11,5.67l2.28,1.12-2.18,1.32c-2.44,1.45-4.4,3.57-5.67,6.11l-1.12,2.26-1.3-2.14c-1.46-2.44-3.58-4.41-6.11-5.69l-2.26-1.12,2.16-1.3c2.44-1.46,4.41-3.58,5.69-6.11l1.1-2.3Z"/>
    <path class="cls-3" d="M930.82,785.54l1.3,2.16c1.45,2.44,3.57,4.41,6.11,5.67l2.26,1.14-2.16,1.3c-2.43,1.46-4.4,3.58-5.67,6.11l-1.14,2.28-1.3-2.18c-1.46-2.43-3.58-4.4-6.11-5.67l-2.26-1.14,2.16-1.3c2.43-1.46,4.4-3.58,5.67-6.11l1.14-2.26Z"/>
    <path class="cls-3" d="M108.64,674.21l1.3,2.16c1.46,2.43,3.58,4.4,6.11,5.67l2.26,1.14-2.16,1.3c-2.44,1.45-4.41,3.57-5.67,6.11l-1.14,2.26-1.3-2.16c-1.46-2.43-3.58-4.4-6.11-5.67l-2.28-1.14,2.18-1.3c2.43-1.46,4.4-3.58,5.67-6.11l1.14-2.26Z"/>
    <path class="cls-3" d="M364.63,66.62l1.3,2.18c1.46,2.43,3.58,4.39,6.11,5.67l2.26,1.12-2.16,1.3c-2.43,1.46-4.4,3.58-5.67,6.11l-1.12,2.32-1.28-2.22c-1.46-2.43-3.58-4.39-6.11-5.67l-2.26-1.12,2.16-1.3c2.43-1.46,4.4-3.58,5.67-6.11l1.1-2.28Z"/>
    <path class="cls-3" d="M155.42,87.98l1.3,2.18c1.46,2.43,3.58,4.4,6.11,5.67l2.28,1.14-2.18,1.3c-2.43,1.46-4.39,3.58-5.67,6.11l-1.12,2.26-1.3-2.16c-1.45-2.44-3.57-4.41-6.11-5.67l-2.28-1.14,2.18-1.3c2.43-1.46,4.4-3.58,5.67-6.11l1.12-2.28Z"/>
    <path class="cls-3" d="M253.01,300.31l1.3,2.16c1.46,2.44,3.58,4.41,6.11,5.69l2.28,1.12-2.18,1.3c-2.43,1.46-4.4,3.58-5.67,6.11l-1.14,2.28-1.3-2.18c-1.46-2.43-3.58-4.4-6.11-5.67l-2.26-1.12,2.16-1.32c2.44-1.45,4.4-3.57,5.67-6.11l1.14-2.26Z"/>
    <path class="cls-3" d="M737.51,359.66l1.32,2.16c1.45,2.44,3.57,4.42,6.11,5.69l2.26,1.12-2.16,1.3c-2.44,1.46-4.41,3.58-5.69,6.11l-1.12,2.28-1.3-2.18c-1.46-2.43-3.58-4.4-6.11-5.67l-2.28-1.12,2.18-1.32c2.44-1.45,4.4-3.57,5.67-6.11l1.12-2.26Z"/>
    <path class="cls-3" d="M718.55,790.78l1.3,2.18c1.46,2.43,3.58,4.4,6.11,5.67l2.28,1.12-2.18,1.32c-2.44,1.45-4.4,3.57-5.67,6.11l-1.12,2.26-1.32-2.16c-1.46-2.44-3.58-4.41-6.11-5.69l-2.26-1.12,2.16-1.3c2.44-1.46,4.41-3.58,5.69-6.11l1.12-2.28Z"/>
    <path class="cls-3" d="M341.7,155.27l2.63,4.38c2.97,4.92,7.28,8.89,12.43,11.43l4.52,2.28-4.38,2.63c-4.93,2.95-8.9,7.27-11.43,12.43l-2.28,4.59-2.63-4.4c-2.97-4.92-7.28-8.89-12.43-11.43l-4.53-2.34,4.38-2.65c4.93-2.95,8.91-7.26,11.46-12.41l2.26-4.5Z"/>
    <path class="cls-3" d="M911.62,133.44l2.63,4.38c2.96,4.93,7.27,8.9,12.41,11.46l4.61,2.26-4.4,2.63c-4.92,2.97-8.89,7.28-11.43,12.43l-2.26,4.59-2.65-4.38c-2.95-4.93-7.26-8.9-12.41-11.43l-4.59-2.28,4.32-2.71c4.92-2.97,8.89-7.28,11.43-12.43l2.34-4.5Z"/>
    <path class="cls-3" d="M669.63,65.03l1.53,2.53c1.71,2.87,4.22,5.18,7.22,6.64l2.67,1.32-2.55,1.53c-2.87,1.71-5.18,4.22-6.64,7.22l-1.32,2.67-1.47-2.55c-1.71-2.87-4.22-5.18-7.22-6.64l-2.65-1.32,2.53-1.53c2.87-1.71,5.18-4.22,6.64-7.22l1.26-2.65Z"/>
    <path class="cls-3" d="M147.26,583.06l2.3,3.83c2.59,4.31,6.37,7.79,10.88,10.01l4.08,2.04-3.85,2.3c-4.31,2.6-7.78,6.37-10.01,10.88l-2.04,4.08-2.3-3.85c-2.59-4.31-6.37-7.79-10.88-10.01l-4.08-2.04,3.85-2.32c4.31-2.6,7.79-6.39,10.01-10.9l2.04-4.02Z"/>
    <path class="cls-3" d="M818.21,805.76l2.3,3.85c2.59,4.31,6.37,7.79,10.88,10.01l4.08,2.04-3.85,2.3c-4.31,2.59-7.79,6.37-10.01,10.88l-2.04,4.08-2.3-3.85c-2.59-4.31-6.37-7.79-10.88-10.01l-4.08-2.04,3.85-2.3c4.31-2.59,7.79-6.37,10.01-10.88l2.04-4.08Z"/>
  </g>
  <g id="freepik--Table--inject-2">
    <path class="cls-9" d="M967.79,966.13c0,.29-207.68.53-463.81.53s-463.85-.24-463.85-.53,207.64-.45,463.83-.45,463.83.14,463.83.45Z"/>
  </g>
  <g id="freepik--character-2--inject-2">
    <path class="cls-5" d="M421.48,127.96c24.6-38.16,65.2-63.09,110.37-67.76,26.15-2.79,37.27,1.68,56.83,5.09,19.21,2.93,36.78,12.49,49.69,27.02,15.88,17.23,27.16,38.19,32.79,60.93,4.42,21.86,5.15,44.3,2.17,66.4-4.99,28.46-14.62,55.9-28.51,81.24l-39.5,8.32c-33.35,4.16-67.14,8.26-100.37,3.54-33.23-4.72-66.52-19.44-86.52-46.46-27.76-37.39-23.17-99.94,3.04-138.32Z"/>
    <polygon class="cls-5" points="657.1 879.67 654.65 875.96 357.7 865.85 319.72 966.03 675.18 965.6 657.1 879.67"/>
    <polygon class="cls-11" points="657.1 879.67 654.65 875.96 357.7 865.85 319.72 966.03 675.18 965.6 657.1 879.67"/>
    <path class="cls-5" d="M563.97,100.88l-7.01-6.62-74.83,30.19c-10.83.61-19.41,9.39-19.75,20.24l.67,244.04c-.1,16.55,3.22,30.88,13.21,44.07l10.52,13.88c23.99,31.67,73.38,29.07,92.31-5.83,1.15-1.98,2.04-4.09,2.65-6.3.46-1.8.83-3.62,1.1-5.46,2.24-19.63,2.36-36.69,2.36-36.69,1.32-21.54,1.77-30.39,1.77-30.19s45.88-5.28,58.27-64.17c6.11-29.29,5.01-69.57,3.28-109.21-2.41-54.77-40.46-88.01-84.57-87.95Z"/>
    <g class="cls-13">
      <path class="cls-2" d="M548.6,221.71c-.15,4.13-3.59,7.39-7.73,7.32-4.02.12-7.37-3.03-7.5-7.05,0-.07,0-.14,0-.21.18-4.13,3.6-7.37,7.73-7.32,4.03-.11,7.39,3.06,7.5,7.09,0,.06,0,.11,0,.17Z"/>
    </g>
    <g class="cls-13">
      <path class="cls-2" d="M626.04,223.75c-.18,4.12-3.6,7.36-7.73,7.3-4.02.12-7.37-3.03-7.5-7.05,0-.07,0-.14,0-.21.15-4.13,3.58-7.38,7.7-7.32,4.04-.11,7.41,3.07,7.52,7.11,0,.06,0,.11,0,.17Z"/>
    </g>
    <g class="cls-13">
      <path class="cls-2" d="M640.69,204.53c-.98.94-6.54-3.61-14.74-4.08-8.19-.47-14.39,3.4-15.23,2.34-.43-.45.63-2.2,3.34-4.08,3.66-2.27,7.93-3.36,12.23-3.12,4.26.2,8.35,1.75,11.68,4.42,2.55,2.24,3.2,4.08,2.71,4.5Z"/>
    </g>
    <g class="cls-13">
      <path class="cls-2" d="M557.57,205.41c-1.08.84-6.11-4.28-14.27-5.5-8.15-1.22-14.68,1.92-15.41.77-.37-.49.86-2.04,3.75-3.61,3.88-1.9,8.25-2.54,12.52-1.85,4.22.64,8.12,2.61,11.15,5.61,2.2,2.28,2.79,4.2,2.26,4.59Z"/>
    </g>
    <g class="cls-13">
      <path class="cls-2" d="M586.19,265.01c0-.47,5.12-1.08,13.43-1.73,2.04,0,4.08-.43,4.52-1.83s-.2-3.79-1.1-6.28l-5.38-16.31c-7.46-23.11-12.74-42.07-11.8-42.36s7.73,18.2,15.19,41.3c1.79,5.71,3.51,11.13,5.12,16.31.67,2.41,1.92,5.18.67,8.26-.68,1.47-2.01,2.54-3.59,2.89-1.17.26-2.37.36-3.57.31-8.34.14-13.49-.08-13.49-.55Z"/>
    </g>
    <g class="cls-12">
      <path class="cls-2" d="M586.98,362.23c-27.97-.98-55.12-9.7-78.43-25.19,0,0,17.94,42.09,77.62,39.52l.82-14.33Z"/>
    </g>
    <path class="cls-5" d="M581.72,284.57c-2.97-4.14-7.86-6.45-12.94-6.11-3.67.14-7.12,1.77-9.56,4.52-2.38,2.68-2.83,6.56-1.14,9.72,2.04,3.22,6.64,4.18,10.6,3.26,3.94-1.18,7.6-3.12,10.78-5.73.95-.61,1.79-1.39,2.47-2.3.65-.9.71-2.1.14-3.06"/>
    <g class="cls-12">
      <path class="cls-2" d="M581.72,284.57c-2.97-4.14-7.86-6.45-12.94-6.11-3.67.14-7.12,1.77-9.56,4.52-2.38,2.68-2.83,6.56-1.14,9.72,2.04,3.22,6.64,4.18,10.6,3.26,3.94-1.18,7.6-3.12,10.78-5.73.95-.61,1.79-1.39,2.47-2.3.65-.9.71-2.1.14-3.06"/>
    </g>
    <g class="cls-13">
      <path class="cls-2" d="M563.99,175.77c-1.61,1.75-8.74-2.41-18.06-5.08-9.31-2.67-17.51-3.28-17.9-5.63-.16-1.1,1.9-2.51,5.63-3.28,9.91-1.65,20.02,1.36,27.41,8.15,2.69,2.69,3.65,4.99,2.91,5.83Z"/>
    </g>
    <g class="cls-13">
      <path class="cls-2" d="M635.33,185.02c-1.28,2.04-7.07.49-13.86.94-6.79.45-12.41,2.22-13.88.39-.65-.9.1-2.81,2.47-4.77,6.55-4.9,15.42-5.34,22.42-1.1,2.49,1.71,3.42,3.57,2.85,4.55Z"/>
    </g>
    <path class="cls-5" d="M463.89,248.84s41.95,13.04,65.69-90.5c8.15-35.4,40.95-64.08,40.95-64.08l-13.33-4.08s-82.73,23.32-84.12,24.46c-1.39,1.14-20.87,42.8-20.87,42.8l11.68,91.4Z"/>
    <path class="cls-5" d="M474.22,244.99c.2-4.42-4.38-15.1-8.7-16-11.58-2.41-32.61-2.53-34.3,27.07-2.3,40.46,38.73,34.43,38.93,33.26s3.34-29.07,4.08-44.33Z"/>
    <g class="cls-13">
      <path class="cls-2" d="M458.65,273.3c-.16-.14-.73.45-2.04.92-1.71.63-3.6.56-5.26-.18-4.2-1.81-7.4-8.81-7.2-16.1.09-3.48.96-6.89,2.55-9.99.92-2.52,3.01-4.42,5.61-5.1,1.7-.37,3.42.55,4.08,2.16.47,1.16.16,2.04.39,2.04s.9-.63.67-2.32c-.17-1.01-.68-1.94-1.45-2.63-1.06-.9-2.44-1.35-3.83-1.24-3.14,0-6.11,2.75-7.73,5.85-1.93,3.41-2.99,7.24-3.08,11.15-.2,8.15,3.53,16.02,9.27,18.04,2.17.77,4.57.52,6.52-.69,1.37-.94,1.63-1.83,1.49-1.9Z"/>
    </g>
    <path class="cls-5" d="M561.79,269.47c1.35,0,.92,8.89,8.15,15.57,7.24,6.69,16.8,6.11,16.82,7.44,0,.55-2.2,1.61-6.11,1.53-5.21-.19-10.19-2.21-14.06-5.71-3.71-3.36-5.96-8.03-6.3-13.02-.18-3.75.92-5.89,1.51-5.81Z"/>
    <g class="cls-13">
      <path class="cls-2" d="M561.79,269.47c1.35,0,.92,8.89,8.15,15.57,7.24,6.69,16.8,6.11,16.82,7.44,0,.55-2.2,1.61-6.11,1.53-5.21-.19-10.19-2.21-14.06-5.71-3.71-3.36-5.96-8.03-6.3-13.02-.18-3.75.92-5.89,1.51-5.81Z"/>
    </g>
    <path class="cls-5" d="M879.6,272.08s54.08,108.8,63.19,131.67c7.95,19.79,51.89,112.51,38.3,138.24-13.6,25.72-25.64,24.46-44.58,25.42-18.94.96-142.11-4.08-174.05-5.36-40.62-1.69-85.32-13.23-85.32-13.23l20.95-111.47,162.84,30.29h0l-27.52-176.9,46.19-18.65Z"/>
    <path class="cls-5" d="M879.9,272.89s-9.38-16.67-15.19-20.67c-5.81-4-53-45.37-53-45.37,0,0-18.51-19.61-23.6-18.51s-53.38,33.37-53.83,38.48,2.18,7.97,5.1,8.7c2.91.73-1.47,4.08,6.11,11.62,0,0-7.26-.37-6.89,6.54.37,6.91,0,16.31,4.73,16.69,4.73.39,19.59,4.73,20.38-3.26l1.45-3.28c7.64,5.39,15.79,10.01,24.34,13.8,11.62,4.73,30.13,4.36,30.13,4.36,3.28,4.61,8.23,7.74,13.8,8.72,8.76,1.08,46.47-17.83,46.47-17.83Z"/>
    <g class="cls-13">
      <path class="cls-2" d="M807.54,243.07c-.16-.12-1.75,1.71-2.53,5.46-.84,4.86-.08,9.87,2.16,14.27,2.23,4.31,5.17,8.21,8.7,11.54,2.63,2.55,4.4,3.95,4.59,3.77s-1.26-1.92-3.63-4.67c-3.12-3.47-5.8-7.32-7.97-11.46-2.07-4.12-2.95-8.72-2.55-13.31.39-3.47,1.51-5.46,1.22-5.61Z"/>
    </g>
    <g class="cls-13">
      <path class="cls-2" d="M785.25,252.65c-.1,0,0,.41.39.79.64.48,1.44.7,2.24.61,2.45-.31,4.67-1.63,6.11-3.63,1.49-1.91,2.29-4.28,2.24-6.71-.1-1.83-.71-2.85-.92-2.77s-.18,1.12-.41,2.71c-.32,2.05-1.15,3.98-2.41,5.63-1.21,1.63-2.91,2.85-4.85,3.47-1.35.41-2.12-.24-2.41-.1Z"/>
    </g>
    <g class="cls-13">
      <path class="cls-2" d="M803.43,206.47c-1.52-.58-3.22-.45-4.63.37-1.69.8-3.17,1.99-4.32,3.47-1.39,1.67-2.59,3.75-4.08,5.93-3.38,5.15-7.05,10.12-10.97,14.88-2.2,2.69-4.61,5.44-7.2,8.15-1.49,1.42-2.71,3.09-3.59,4.95-.83,2.16-.58,4.59.69,6.52,1.13,1.74,2.5,3.31,4.08,4.67,1.47,1.32,2.94,2.61,4.42,3.81,2.85,2.39,5.89,4.54,9.09,6.44,1.61.92,3.43,1.42,5.28,1.45,1.75-.06,3.46-.56,4.95-1.47,2.63-1.51,4.81-3.68,6.34-6.3,1.31-2.25,1.52-4.98.57-7.4-.72-1.86-2.4-3.18-4.38-3.44-1.2-.18-2.43.11-3.42.82-.65.51-.82.92-.79.94,1.14-.93,2.63-1.31,4.08-1.04,1.65.34,3,1.54,3.53,3.14.71,2.12.43,4.45-.75,6.34-1.49,2.33-3.54,4.25-5.97,5.58-1.27.76-2.72,1.16-4.2,1.18-1.57-.06-3.09-.51-4.44-1.3-3.07-1.89-6-4.02-8.74-6.36-1.45-1.18-2.89-2.45-4.34-3.77-1.4-1.22-2.63-2.63-3.65-4.18-.98-1.44-1.19-3.27-.57-4.89.8-1.64,1.88-3.12,3.2-4.38,2.58-2.81,4.98-5.6,7.2-8.36,3.9-4.86,7.49-9.96,10.74-15.27,1.41-2.26,2.53-4.36,3.75-5.99,1.01-1.42,2.31-2.6,3.81-3.47,1.34-.67,2.82-1.02,4.32-1.02Z"/>
    </g>
    <g class="cls-13">
      <path class="cls-2" d="M794.89,241.16c-.22.12,0,.98.79,2.04,1.11,1.45,2.62,2.55,4.34,3.16,1.71.63,3.57.77,5.36.39,1.37-.35,2.04-.9,2.04-1.1s-3.24.26-6.69-1.04c-3.44-1.3-5.3-3.73-5.85-3.44Z"/>
    </g>
    <g class="cls-13">
      <path class="cls-2" d="M784.41,199.92c-1.03.85-1.96,1.81-2.77,2.87-1.69,1.92-4.08,4.73-7.01,8.15l-10.19,12.39-5.99,7.36c-2.29,2.6-4.34,5.4-6.11,8.38-2,3.19-2.28,7.16-.75,10.6,1.74,2.82,4.08,5.2,6.87,6.99,4.87,3.63,8.97,7.11,13,9.6,1.84,1.16,3.94,1.86,6.11,2.04,1.65.06,3.28-.33,4.73-1.12,2.36-1.41,2.65-3.14,2.57-3.1-.78,1.02-1.78,1.85-2.91,2.45-1.35.62-2.84.87-4.32.73-1.96-.24-3.83-.94-5.46-2.04-3.69-2.47-7.85-6.11-12.62-9.82-2.53-1.68-4.68-3.87-6.3-6.44-1.23-2.92-.93-6.25.79-8.91,1.71-2.88,3.67-5.61,5.85-8.15l5.91-7.42,9.91-12.66c2.81-3.61,5.05-6.56,6.56-8.62.85-1,1.57-2.1,2.14-3.28Z"/>
    </g>
    <g class="cls-13">
      <path class="cls-2" d="M768.67,203.65c-.47-.33-6.4,8.83-16.31,17.61-2.44,2.05-4.71,4.3-6.79,6.73-1.71,2.06-2.97,4.46-3.71,7.03-1.18,4.55.35,7.34.51,7.2-.14-2.3.12-4.6.77-6.81.83-2.33,2.11-4.48,3.77-6.32,2.09-2.29,4.33-4.44,6.71-6.42,4.31-3.83,8.18-8.13,11.54-12.82,1.51-1.85,2.69-3.95,3.51-6.2Z"/>
    </g>
    <g class="cls-13">
      <path class="cls-2" d="M745.87,255.41c0,.65,5.34,0,11.07,1.94,2.42.86,4.59,2.32,6.3,4.24,1.3,1.49,1.81,2.69,2.04,2.59s.16-1.47-1-3.38c-1.61-2.43-3.97-4.25-6.73-5.2-2.68-.93-5.52-1.27-8.34-1-2.1.18-3.36.57-3.34.82Z"/>
    </g>
    <path class="cls-11" d="M861.44,466.51c.46,2.2,1.31,4.31,2.51,6.22,2.5,4.78,5.5,9.28,8.97,13.41,3.46,4.14,7.36,7.91,11.62,11.23,1.67,1.5,3.59,2.71,5.67,3.57.35-.47-7.91-6.44-15.84-16-7.93-9.56-12.41-18.63-12.92-18.43Z"/>
    <polygon class="cls-6" points="741.65 560.41 760.09 448.86 772.71 451.2 758.16 561.82 741.65 560.41"/>
    <path class="cls-5" d="M124.23,228.64s-54.08,108.82-63.19,131.67c-7.95,19.79-51.89,112.51-38.3,138.24,13.6,25.72,25.66,24.46,44.58,25.42s142.11-4.08,174.05-5.36c40.64-1.69,85.32-13.23,85.32-13.23l-20.95-111.47-162.9,30.29h0l27.5-176.9-46.11-18.65Z"/>
    <path class="cls-5" d="M123.93,229.46s9.4-16.65,15.21-20.65c5.81-4,52.97-45.39,52.97-45.39,0,0,18.51-19.61,23.6-18.51,5.1,1.1,53.38,33.39,53.85,38.48.47,5.1-2.18,7.99-5.08,8.7s1.45,4.08-6.11,11.62c0,0,5.12-.14,6.89,6.54s2.04,12.88-4.71,16.69c-5.14,2.89-17.37,5.79-21.65-6.11l-.14-.31c-7.63,5.38-15.78,10-24.32,13.78-11.62,4.73-30.15,4.36-30.15,4.36-3.28,4.61-8.23,7.74-13.8,8.72-8.87.98-46.57-17.94-46.57-17.94Z"/>
    <g class="cls-13">
      <path class="cls-2" d="M196.28,199.64c.16-.12,1.77,1.71,2.55,5.46.82,4.87.05,9.87-2.18,14.27-2.2,4.33-5.11,8.25-8.62,11.6-1.3,1.51-2.86,2.79-4.59,3.79-.18-.2,1.26-2.04,3.63-4.69,3.12-3.47,5.8-7.32,7.97-11.46,2.03-4.09,2.88-8.66,2.47-13.21-.37-3.63-1.51-5.63-1.22-5.77Z"/>
    </g>
    <g class="cls-13">
      <path class="cls-2" d="M218.6,209.22s0,.41-.41.79c-.64.48-1.44.7-2.24.63-2.45-.33-4.66-1.64-6.11-3.63-1.51-1.91-2.31-4.29-2.26-6.73.12-1.83.71-2.83.94-2.77s.16,1.12.39,2.71c.32,2.05,1.15,3.98,2.41,5.63,1.21,1.63,2.91,2.85,4.85,3.47,1.37.43,2.14-.24,2.45-.1Z"/>
    </g>
    <g class="cls-13">
      <path class="cls-2" d="M200.42,163.03c1.51-.58,3.21-.45,4.61.37,1.7.79,3.18,1.98,4.32,3.47,1.39,1.67,2.61,3.77,4.08,5.95,3.39,5.15,7.06,10.11,10.97,14.88,2.2,2.69,4.63,5.42,7.2,8.15,1.5,1.41,2.71,3.09,3.59,4.95.83,2.17.58,4.6-.69,6.54-1.13,1.73-2.5,3.3-4.08,4.65-1.47,1.32-2.96,2.61-4.44,3.81-2.85,2.39-5.89,4.54-9.09,6.44-1.6.92-3.41,1.42-5.26,1.45-1.75-.06-3.46-.56-4.95-1.47-2.64-1.5-4.83-3.68-6.36-6.3-1.31-2.24-1.52-4.96-.57-7.38.72-1.87,2.4-3.19,4.38-3.47,1.2-.18,2.43.11,3.42.82.65.51.84.92.79.94-1.15-.92-2.63-1.29-4.08-1.02-1.66.32-3.01,1.51-3.53,3.12-.73,2.12-.45,4.45.75,6.34,1.47,2.34,3.52,4.26,5.95,5.58,1.27.75,2.72,1.17,4.2,1.2,1.57-.07,3.09-.53,4.44-1.32,3.07-1.89,5.99-4.01,8.74-6.34,1.44-1.21,2.89-2.47,4.34-3.79,1.42-1.22,2.67-2.62,3.71-4.18.99-1.44,1.2-3.28.57-4.91-.8-1.64-1.88-3.12-3.2-4.38-2.58-2.81-4.98-5.6-7.2-8.36-3.88-4.86-7.47-9.96-10.74-15.25-1.41-2.28-2.53-4.38-3.75-6.11-1-1.43-2.3-2.61-3.81-3.47-1.35-.64-2.83-.95-4.32-.92Z"/>
    </g>
    <g class="cls-13">
      <path class="cls-2" d="M208.96,197.72c.2.12,0,.98-.79,2.04-2.32,2.92-6.08,4.28-9.72,3.53-1.37-.35-2.04-.88-2.04-1.1s3.26.26,6.69-1.04c3.42-1.3,5.32-3.69,5.87-3.42Z"/>
    </g>
    <g class="cls-13">
      <path class="cls-2" d="M219.42,156.49c1.04.84,1.97,1.8,2.77,2.87,1.69,1.92,4.08,4.75,7.03,8.15l10.19,12.39,5.99,7.36c2.29,2.6,4.34,5.4,6.11,8.38,2,3.19,2.28,7.16.75,10.6-1.74,2.82-4.08,5.2-6.87,6.99-4.87,3.63-8.97,7.11-13,9.6-1.84,1.16-3.94,1.86-6.11,2.04-1.64.07-3.27-.32-4.71-1.12-2.38-1.41-2.67-3.12-2.59-3.08.79,1.01,1.78,1.84,2.91,2.45,1.36.6,2.84.85,4.32.71,1.96-.24,3.83-.94,5.46-2.04,3.69-2.45,7.85-6.11,12.62-9.8,2.53-1.69,4.68-3.89,6.3-6.46,1.24-2.91.95-6.25-.77-8.91-1.72-2.88-3.68-5.61-5.87-8.15l-5.91-7.44-9.91-12.64c-2.81-3.63-5.05-6.58-6.56-8.64-.85-1-1.57-2.09-2.16-3.26Z"/>
    </g>
    <g class="cls-13">
      <path class="cls-2" d="M235.15,160.22c.47-.33,6.4,8.83,16.31,17.61,2.44,2.06,4.71,4.31,6.79,6.73,1.72,2.06,2.98,4.45,3.71,7.03,1.18,4.55-.35,7.34-.49,7.2.12-2.3-.14-4.6-.77-6.81-.85-2.32-2.13-4.46-3.77-6.3-2.09-2.29-4.33-4.44-6.71-6.44-4.32-3.83-8.2-8.13-11.56-12.82-1.51-1.85-2.7-3.95-3.51-6.2Z"/>
    </g>
    <g class="cls-13">
      <path class="cls-2" d="M259.02,212.7c0,.67-5.32,0-11.07,2.04-2.42.86-4.58,2.31-6.3,4.22-1.3,1.49-1.79,2.69-2.04,2.61s-.16-1.49,1.02-3.38c1.61-2.43,3.97-4.26,6.73-5.22,2.68-.91,5.52-1.25,8.34-1,2.08.1,3.34.49,3.32.73Z"/>
    </g>
    <path class="cls-11" d="M142.41,423.08c-.47,2.2-1.32,4.3-2.51,6.22-5.04,9.58-12.07,17.98-20.61,24.64-1.67,1.5-3.59,2.71-5.67,3.57-.35-.47,7.91-6.42,15.84-16,7.93-9.58,12.41-18.67,12.94-18.43Z"/>
    <polygon class="cls-6" points="274.78 515.67 253.7 403.57 241.68 405.81 256.07 517.61 274.78 515.67"/>
    <path class="cls-5" d="M353.01,799.67s-26.5-179.78-26.4-205.87c0-10.19-5.46-77.78-5.46-77.78l-45.6,4.08-23.11-122.79s90.62-16.31,114.98-17.55c24.36-1.24,106.32,11.27,106.32,11.27l145.8,23.01s40.38,6.46,39.97,6.11l101.02,26.13-19.02,114.98-60.21-2.36.39,72.71c-.79,5.5,3.93,33-32.23,77.01l-6.11,76.58,27.11,139.32h-334.67l17.22-124.84Z"/>
    <g class="cls-13">
      <path class="cls-2" d="M585.37,408.66c.31.18-.49,2.26-2.89,5.4-3.48,4.37-7.66,8.13-12.37,11.13-7,4.51-14.8,7.64-22.97,9.23-2.3.35-4.67.84-7.09,1.1-2.43.26-4.93.45-7.46.53-2.53.08-5.12,0-7.75,0l-7.95-.79c-10.14-1.43-19.86-4.97-28.54-10.42-7.01-4.47-13.13-10.19-18.08-16.88-3.35-4.43-6.09-9.29-8.15-14.45-1.41-3.67-1.71-5.85-1.37-5.95s1.3,1.77,3.24,5.05c2.66,4.61,5.73,8.97,9.17,13.02,5.05,5.95,11.04,11.03,17.73,15.04,8.2,4.82,17.28,7.99,26.7,9.31,9.47,1.37,19.1,1.27,28.54-.31,7.7-1.28,15.12-3.85,21.95-7.62,4.62-2.57,8.92-5.7,12.78-9.31,2.83-2.67,4.2-4.28,4.5-4.1Z"/>
    </g>
    <g class="cls-13">
      <path class="cls-2" d="M585.33,600.24c.57-.18,3.36,6.83,3.97,18.87.33,7.05-.23,14.12-1.65,21.04-3.43,17.14-11.96,32.85-24.46,45.07-5.03,4.97-10.66,9.29-16.75,12.86-10.44,6.11-17.83,7.5-18,6.93s6.48-3.51,15.98-10.09c25.12-17.13,40.41-45.34,41.07-75.74.43-11.6-1.02-18.77-.16-18.94Z"/>
    </g>
    <path class="cls-5" d="M463.9,236.47l12.05,10.62c69.63-45.96,140.31-170.62,122.17-165.52-22.47-6.19-46.13-6.64-68.82-1.3-34.97,9.19-100.68,32.98-95.9,74.53,4.78,41.55,30.5,81.67,30.5,81.67Z"/>
    <path class="cls-5" d="M443.4,61.57c16.96,9.94,32.05,38.82,24.84,57.2,5.06,31.39-16.28,60.95-47.67,66.01-8.56,1.38-17.31.81-25.62-1.66-12.93-3.96-23.98-12.51-31.06-24.04-7.79-14.12-10.21-30.57-6.83-46.33,3.29-19.6,14.35-37.05,30.68-48.38,16.63-11.08,37.99-12.15,55.65-2.79Z"/>
    <path class="cls-2" d="M439.55,236.59c2.79-.86,5.48-2.03,8.01-3.48,5.03-2.42,12.42-6.21,20.87-11.12,22.76-12.79,43.83-28.38,62.73-46.4,18.95-18.1,34.35-39.59,45.4-63.35,3.27-7.21,5.97-14.66,8.07-22.3.94-2.75,1.54-5.61,1.8-8.51-.62,0-3.35,11.93-11.99,29.81-11.51,23.17-26.93,44.18-45.59,62.11-18.8,17.75-39.48,33.39-61.68,46.64-8.51,5.16-15.47,9.19-20.31,11.99-2.58,1.3-5.04,2.84-7.33,4.6Z"/>
    <path class="cls-2" d="M401.42,203.61c.62,0,.87-8.14,3.29-20.99,6.45-33.65,23.16-64.48,47.82-88.26,9.38-9.07,16.09-13.73,15.78-14.22-1.8.71-3.5,1.68-5.03,2.86-4.36,2.91-8.51,6.13-12.42,9.63-12.94,11.59-23.78,25.34-32.05,40.62-8.31,15.25-13.88,31.83-16.46,49-.82,5.16-1.25,10.37-1.3,15.59-.17,1.93-.04,3.88.37,5.78Z"/>
  </g>
  <g id="freepik--character-1--inject-2">
    <path class="cls-9" d="M488.75,500.97c-18.22,24.61-48.54,38.02-78.81,42.32-30.27,4.3-61.04.57-91.43-3.22l-35.98-7.58c-12.65-23.08-21.42-48.08-25.97-74-2.71-20.13-2.04-40.57,1.98-60.48,5.14-20.72,15.41-39.8,29.87-55.5,11.75-13.23,27.76-21.94,45.26-24.61,17.82-3.11,27.95-7.19,51.77-4.64,41.14,4.25,78.12,26.96,100.53,61.72,23.87,34.96,28.06,91.93,2.77,125.99Z"/>
    <path class="cls-10" d="M352.58,334l5.99-5.71,64.63,26.05c9.35.53,16.74,8.11,17.04,17.47l-.57,210.68c0,14.27-2.79,26.66-11.41,38.03l-9.07,11.99c-20.71,27.33-63.19,25.09-79.66-5.03-1.01-1.7-1.78-3.53-2.28-5.44-.41-1.55-.74-3.12-.98-4.71-1.92-16.94-2.04-31.63-2.04-31.63-1.16-18.61-1.55-26.23-1.55-26.07s-39.58-4.55-50.28-55.36c-5.32-25.27-4.32-60.05-2.81-94.25,2.08-47.45,34.94-76.05,72.99-76.01Z"/>
    <path class="cls-9" d="M365.83,438.3c.14,3.56,3.1,6.36,6.67,6.3,3.47.11,6.37-2.61,6.48-6.07,0-.06,0-.12,0-.19-.14-3.56-3.1-6.37-6.67-6.32-3.49-.09-6.39,2.66-6.48,6.15,0,.04,0,.08,0,.12Z"/>
    <path class="cls-9" d="M299.01,440.09c.14,3.56,3.1,6.36,6.67,6.3,3.47.11,6.37-2.61,6.48-6.07,0-.06,0-.12,0-.19-.15-3.56-3.1-6.35-6.67-6.32-3.49-.09-6.39,2.66-6.48,6.15,0,.04,0,.08,0,.12Z"/>
    <path class="cls-9" d="M286.36,423.5c.86.82,5.65-3.12,12.72-3.47,7.07-.35,12.43,2.96,13.15,2.04.37-.41-.55-1.9-2.87-3.44-3.17-1.95-6.86-2.88-10.58-2.67-3.72.15-7.29,1.48-10.19,3.81-1.98,1.69-2.71,3.32-2.22,3.73Z"/>
    <path class="cls-9" d="M358.1,424.2c.94.71,5.3-3.69,12.23-4.75s12.68,1.65,13.29.67c.33-.43-.73-1.83-3.22-3.12-3.35-1.64-7.12-2.19-10.8-1.59-3.64.55-7.01,2.24-9.62,4.83-1.83,1.98-2.32,3.63-1.88,3.95Z"/>
    <path class="cls-9" d="M333.4,475.64c0-.39-4.42-.94-11.58-1.49-1.81,0-3.55-.37-3.91-1.59-.25-1.85.08-3.74.94-5.4,1.49-4.46,3.02-9.13,4.65-14.02,6.44-19.93,10.99-36.3,10.19-36.55s-6.69,15.69-13.11,35.65c-1.55,4.91-3.02,9.6-4.42,14.08-1.02,2.24-1.22,4.76-.57,7.13.59,1.26,1.74,2.18,3.1,2.49,1.01.22,2.04.31,3.08.26,7.2.02,11.64-.16,11.64-.57Z"/>
    <path class="cls-1" d="M332.75,559.54c24.14-.84,47.57-8.36,67.69-21.73,0,0-15.47,36.32-66.98,34.1l-.71-12.37Z"/>
    <path class="cls-1" d="M337.25,492.54c2.55-3.58,6.78-5.59,11.17-5.3,3.17.11,6.15,1.52,8.26,3.89,2.06,2.32,2.45,5.67.98,8.4-1.77,2.79-5.73,3.61-9.15,2.81-3.39-1.02-6.55-2.69-9.29-4.93-.79-.56-1.48-1.25-2.04-2.04-.56-.77-.61-1.81-.12-2.63"/>
    <path class="cls-9" d="M354.46,479.49c-1.16,0-.79,7.66-7.07,13.43-6.28,5.77-14.51,5.34-14.51,6.42,0,.49,1.9,1.41,5.34,1.32,4.53-.14,8.86-1.88,12.23-4.91,3.2-2.91,5.15-6.94,5.44-11.25.04-3.22-.92-5.08-1.43-5.01Z"/>
    <path class="cls-9" d="M351.34,396.64c.98,1.79,7.83-.18,16.18-.45,8.36-.26,15.35.94,16.16-.92.37-.9-1.06-2.51-4.08-3.95-7.94-3.47-17.05-3.08-24.66,1.06-2.75,1.67-4.06,3.4-3.61,4.26Z"/>
    <path class="cls-9" d="M287.38,393.09c1.32,1.53,6.11-.37,11.96-.75,5.85-.39,10.86.55,11.92-1.2.47-.84-.41-2.41-2.65-3.81-6.14-3.42-13.74-2.8-19.24,1.57-2,1.75-2.59,3.42-2,4.2Z"/>
    <path class="cls-9" d="M443.06,713.59c.91-1.08,1.72-2.25,2.41-3.49,1.47-2.28,3.57-5.61,6.26-9.64,6.92-10.54,14.41-20.7,22.42-30.43,7.93-9.79,16.91-18.67,26.78-26.5,4.23-3.07,8.62-5.9,13.15-8.5-1.36.4-2.68.93-3.93,1.59-1.51.69-2.96,1.49-4.36,2.38-1.9,1.1-3.74,2.3-5.5,3.61-10.17,7.67-19.36,16.57-27.35,26.5-8.1,9.77-15.53,20.07-22.24,30.84-2.57,4.08-4.52,7.54-5.83,9.93-.71,1.18-1.31,2.42-1.79,3.71Z"/>
    <path class="cls-4" d="M471.98,886.93l57.87-257.68-59.11-31.57c-1.22-1.77-31.12-15.27-31.12-15.27-7.9,12.74-18.3,23.75-30.57,32.37-35.79,21.61-71.71,3.95-74.76-29.17h0l-32.78,9.21-63.19,10.9s-51.55,134.32-44.72,186.87c6.83,52.55-2.69,143.47-2.69,143.47l-5.32,30.06,53.79,1.1h8.85l119.97-.67,104.71-.43c-12.39-35.51-.92-79.21-.92-79.21Z"/>
    <path class="cls-10" d="M150,908.74c-20.8,1-40.4-9.73-50.77-27.78-3.4-5.84-5.25-12.46-5.36-19.22,0-27.99,17.43-68.12,23.22-82.57,8.34-20.83,87.81-165.1,97.37-163.06s14.76,2.79,14.76,2.79l-45.25,205.26,143.92,23.6-15.8,55.03-162.08,5.95Z"/>
    <path class="cls-4" d="M146.27,691.52l73.13,38.73,24.17-124.6s-30.98,2.79-41.21,15.8c-10.23,13-56.09,70.08-56.09,70.08Z"/>
    <path class="cls-10" d="M234.91,832.5l-19.71-42.8-8.6-31.63-26.19-20.38s-8.68,1.02-5.99,7.77c2.69,6.75,15.86,18.87,15.86,18.87l7.75,21.63-12.6-21.97-18.34-9.09-18.2,1.35s-3.36,8.15,5.08,8.42h9.09l13.82,11.13,8.64,20.89-13.02-20.22-19.22-6.83-12.23,3.12s-3.36,5.4,2.69,6.11c6.05.71,10.19.67,10.19.67l11.11,6.46,9.78,20.51-17.2-14.06-22.24-2.65s-3.71,5.36,2.04,7.38c5.87,2.42,11.61,5.14,17.2,8.15l12.37,17.1,67.94,10.09Z"/>
    <path class="cls-1" d="M234.91,832.5l-68.04-9.87h-.14v-.12l-12.43-17.08.14.1c-3.89-2.04-7.95-4.08-12.23-5.99-1.08-.47-2.16-.96-3.26-1.39-1.17-.38-2.3-.89-3.36-1.51-1.14-.77-1.82-2.07-1.79-3.44.07-1.33.5-2.61,1.24-3.71l.12-.2h.29l22.24,2.63h.14l17.2,14.15-.73.57-9.8-20.38.2.2-11.13-6.46h.26c-2.96,0-5.99-.24-9.11-.57-1.74.1-3.44-.59-4.63-1.88-.49-.8-.66-1.76-.45-2.67.18-.85.5-1.66.94-2.41v-.18h.2l12.23-3.14h.31l19.3,6.97h.16v.14l13.21,20.24-.92.49-4.65-11.19c-1.32-3.26-2.67-6.48-4.08-9.7l.16.2-13.82-11.13.33.12h-5.38c-1.8.08-3.59.02-5.38-.18-1.99-.23-3.66-1.58-4.32-3.47-.46-1.83-.31-3.76.43-5.5v-.29h.35l18.2-1.35h.26l18.34,9.11h.12v.14l12.6,21.97-.9.41-7.48-21.61.12.2c-4.62-4.26-8.88-8.88-12.76-13.82-.92-1.22-1.76-2.5-2.51-3.83-.82-1.36-1.22-2.92-1.16-4.5.21-1.61,1.18-3.02,2.61-3.79,1.3-.76,2.74-1.25,4.24-1.45h.31l26.15,20.38h.1v.12l8.54,31.65h0l19.4,42.99-19.98-42.66h0l-8.56-31.67.14.2-26.21-20.26h.31c-1.37.19-2.69.64-3.89,1.32-1.2.63-2.02,1.81-2.2,3.16-.14,2.73,1.83,5.34,3.53,7.73,3.85,4.88,8.09,9.45,12.68,13.66h0v.1l7.77,21.63-.88.41-12.62-21.95.22.18-18.34-9.09h.26l-18.2,1.35.45-.31c-.63,1.51-.77,3.18-.39,4.77.52,1.53,1.89,2.61,3.51,2.75,1.73.18,3.48.23,5.22.16h5.52l.14.12,13.82,11.13h.12v.12l4.08,9.7c1.57,3.83,3.16,7.64,4.63,11.19l-.94.49-13.02-20.22.26.2-19.2-6.83h.24l-12.23,3.12.33-.22c-.89,1.17-1.09,2.73-.51,4.08.4.55.99.93,1.65,1.06.73.19,1.47.31,2.22.37,3.08.31,6.11.51,9.01.55h.24l11.11,6.46h.14v.14l9.76,20.51.92,1.94-1.65-1.37-17.18-14.27h.24l-22.24-2.67.39-.18c-.64.96-1.02,2.07-1.1,3.22-.04,1.11.5,2.16,1.43,2.77,1.02.57,2.09,1.04,3.2,1.41,1.12.45,2.2.94,3.28,1.41,4.28,2.04,8.36,4.08,12.23,6.11h0l12.35,17.12-.22-.14,68.16,11.21Z"/>
    <g class="cls-13">
      <path class="cls-2" d="M473.16,903.19s-16.71,35.02-38.42,45.27c-20.16,9.52-32.96,11.58-56.95,9.82-11.72-.84-49.92-8.26-63.74-12.23l-93.09-39.95,195.68,30.84,56.52-33.75Z"/>
    </g>
    <path class="cls-10" d="M520.92,642.03s35.02-12.41,35.69,66.08c.67,78.49-91.38,210.23-107.15,223.19-15.78,12.96-33.63,21.69-80.94,14.68-59.33-8.78-144.53-39.85-144.53-39.85l52.12-48.47,105.79-4.77,86-176.78s23.68-37.5,53.04-34.08Z"/>
    <path class="cls-10" d="M312.08,902.74s26.23,16.51,55.85,15.65,55.83,8.72,59.64,6.11c3.81-2.61,4.24-7.32,0-9.44-4.24-2.12-22.16-4.65-22.16-4.65l-15.49-6.36s52.89,4.55,57.11,2.51c4.22-2.04,8.46-5.08,6.77-9.72-.82-2.64-3.18-4.49-5.93-4.67,0,0,11.43.43,11.01-4.22-.67-3.99-2.97-7.51-6.34-9.74-1.69-.84-23.89-9.87-23.89-9.87l-28.54-5.67,27.39-1.1,23.93,6.69s9.56,1.08,7.44-6.97c-2.12-8.05-31.33-16.92-31.33-16.92l-37.22-2.57s28.76-4.2,31.72-13.09c2.96-8.89-2.04-13.96-2.04-13.96,0,0-20.38,8.05-30.04,9.74-9.66,1.69-21.57,5.48-37.22,11.84-8.48,3.35-16.76,7.16-24.83,11.41"/>
    <path class="cls-1" d="M327.88,847.75l1.51-.86c1-.55,2.51-1.35,4.5-2.34,4.08-2.04,9.95-4.79,17.77-8.03,9.49-4.02,19.22-7.46,29.13-10.31,2.89-.77,5.95-1.49,9.13-2.04,3.23-.64,6.43-1.48,9.56-2.51,6.5-2.04,13.29-4.48,20.38-7.24h.24l.16.18c2.59,3.12,3.69,7.22,3,11.21l-.31,1.51-.41,1.49c-.35,1.02-.91,1.95-1.65,2.73-1.51,1.5-3.26,2.73-5.18,3.65-3.91,1.88-8.01,3.36-12.23,4.4-4.32,1.16-8.71,2.08-13.13,2.77v-.9l37.24,2.53h.1c7.69,2.33,15.15,5.34,22.32,8.97,1.83.97,3.59,2.08,5.26,3.3.86.64,1.65,1.36,2.38,2.14.78.8,1.37,1.77,1.71,2.83.3,1.08.37,2.21.2,3.32-.17,1.17-.8,2.23-1.75,2.94-1.92,1.17-4.19,1.65-6.42,1.37h0l-23.95-6.67h.16l-27.39,1.1v-1.04l20.38,4.08,8.15,1.61h.1l23.79,9.84c1.89,1.14,3.48,2.72,4.63,4.61,1.27,1.79,1.98,3.92,2.04,6.11-.19,1.22-1,2.26-2.14,2.73-.97.48-2.01.82-3.08,1-2.07.39-4.17.55-6.28.49v-1.04c1.91.1,3.69.97,4.93,2.43,1.23,1.4,1.9,3.21,1.88,5.08-.18,1.85-1.1,3.56-2.55,4.73-1.31,1.14-2.77,2.1-4.34,2.85-.4.24-.84.42-1.3.51-.43.1-.87.16-1.3.18-.86.1-1.71.12-2.55.14h-5.03c-3.34,0-6.64-.2-9.91-.37-13.05-.67-25.6-1.71-37.83-2.71l.22-.92,15.47,6.36h0c5.71.86,11.25,1.77,16.65,3,1.35.33,2.69.65,4.08,1.1,1.39.37,2.65,1.11,3.65,2.14.99,1.11,1.43,2.61,1.18,4.08-.27,1.4-.99,2.68-2.04,3.65-.24.24-.5.47-.77.67-.29.24-.61.43-.96.57-.66.19-1.35.27-2.04.24-1.3-.02-2.61-.14-3.89-.35-2.55-.35-5.01-.84-7.46-1.28-4.87-.92-9.62-1.81-14.27-2.55-8.59-1.43-17.26-2.26-25.97-2.47h-11.64c-1.85,0-3.67-.24-5.44-.43l-5.12-.71c-10.26-1.83-20.22-5.02-29.64-9.48-3.26-1.55-5.69-2.85-7.3-3.77-1.61-.92-2.41-1.49-2.41-1.49.22.1.43.22.63.35l1.83,1c1.65.88,4.08,2.16,7.36,3.65,9.42,4.34,19.37,7.44,29.6,9.21l5.1.67c1.75.18,3.57.26,5.4.41,1.83.14,3.73,0,5.67,0h5.95c8.74.17,17.46.96,26.09,2.38,4.63.71,9.38,1.59,14.27,2.51,2.45.45,4.91.92,7.42,1.26,1.26.19,2.52.3,3.79.33.61.01,1.21-.06,1.79-.22.53-.26,1.01-.61,1.41-1.04.9-.85,1.51-1.96,1.75-3.18.19-1.21-.18-2.45-1-3.36-.9-.92-2.04-1.57-3.28-1.9-1.26-.43-2.59-.73-3.91-1.06-5.34-1.2-10.9-2.04-16.57-2.94h-.12l-15.49-6.44-2.85-1.16,3.08.24c12.09,1.02,24.7,2.04,37.77,2.67,3.26.16,6.56.31,9.89.37h4.97c.84,0,1.67,0,2.49-.12.4-.04.79-.1,1.18-.18.37-.07.72-.21,1.04-.41,1.47-.73,2.83-1.64,4.08-2.71,1.26-1.01,2.06-2.47,2.22-4.08,0-1.61-.59-3.16-1.65-4.36-1.03-1.2-2.5-1.93-4.08-2.04v-1.04c2.05.05,4.1-.1,6.11-.47.97-.16,1.91-.46,2.79-.9.82-.33,1.42-1.05,1.59-1.92-.13-1.99-.83-3.91-2.04-5.5-1.06-1.72-2.5-3.17-4.22-4.24l-23.64-9.84h0l-8.15-1.61-20.38-4.08-4.38-.88,4.46-.18,27.39-1.08h.16l23.95,6.83h0c1.98.27,3.99-.14,5.71-1.16,1.43-1.3,1.9-3.36,1.16-5.16-.77-1.81-2.06-3.35-3.71-4.42-1.62-1.2-3.33-2.28-5.12-3.22-7.1-3.62-14.51-6.6-22.14-8.93h.12l-37.24-2.59-4.08-.29,4.08-.63c4.38-.68,8.73-1.59,13.02-2.71,4.13-1.04,8.14-2.49,11.99-4.32,1.83-.87,3.5-2.03,4.95-3.44.66-.7,1.16-1.53,1.47-2.45l.43-1.41.26-1.45c.67-3.74-.32-7.59-2.73-10.54h.43c-7.09,2.73-13.88,5.18-20.38,7.2-3.17,1.01-6.4,1.84-9.66,2.49-3.16.55-6.11,1.24-9.09,2.04-9.9,2.8-19.62,6.21-29.11,10.19-7.85,3.16-13.82,5.91-17.83,7.83l-4.57,2.24-1.69.63Z"/>
    <path class="cls-1" d="M391.29,883.83c2.94.44,5.91.67,8.89.69,5.46.33,13.02.96,21.28,2.22s15.67,2.87,20.99,4.18c2.84.89,5.74,1.57,8.68,2.04-2.67-1.32-5.48-2.35-8.38-3.06-6.9-2.05-13.94-3.61-21.06-4.69-7.11-1.08-14.29-1.67-21.48-1.77-2.98-.2-5.98-.07-8.93.39Z"/>
    <path class="cls-9" d="M205.84,731.75c-1.1,5.12-2.04,9.38-2.69,12.64-.39,1.53-.64,3.09-.77,4.67.6-1.47,1.06-2.99,1.39-4.55.82-3.22,1.88-7.44,3.16-12.49,2.63-10.58,6.11-25.21,9.89-41.42,6.11-26.5,11.19-49.06,12.49-56.07v-.55l-.45.31c-.79.47-1.53,1.04-2.2,1.67.86-.34,1.68-.77,2.45-1.28l-.35-.24c-2.04,6.85-7.4,29.25-13.6,55.83"/>
    <path class="cls-4" d="M424.88,737.77l118.22,52.69s45.88-141.6-21.71-164.41l-33.9,7.93-62.62,103.79Z"/>
    <line class="cls-8" x1="150" y1="908.74" x2="312.08" y2="902.74"/>
    <path class="cls-1" d="M312.08,902.74c0,.31-36.26,1.88-81.02,3.53-44.76,1.65-81.06,2.75-81.06,2.47s36.26-1.88,81.02-3.53c44.76-1.65,81.06-2.71,81.06-2.47Z"/>
    <path class="cls-1" d="M166.95,822.29c0,.18-2.32.41-5.97,1.3-4.74,1.21-9.25,3.18-13.35,5.83-4.13,2.65-7.69,6.12-10.44,10.19-2.04,3.12-2.83,5.36-3.02,5.3.05-.55.19-1.1.41-1.61.53-1.43,1.22-2.79,2.04-4.08,2.64-4.27,6.23-7.88,10.48-10.56,4.2-2.73,8.87-4.66,13.78-5.69,1.48-.29,2.98-.48,4.48-.59.52-.13,1.06-.16,1.59-.1Z"/>
    <path class="cls-9" d="M445.26,720.95c-.06.39-.18.77-.35,1.12l-1.18,3.1c-1.04,2.67-2.63,6.52-4.65,11.27-4.08,9.48-9.95,22.42-16.92,36.51-6.97,14.08-13.64,26.68-18.55,35.73-2.45,4.52-4.46,8.15-5.89,10.68l-1.65,2.87c-.17.34-.39.66-.63.96.11-.37.26-.73.45-1.06l1.47-2.98c1.41-2.69,3.28-6.36,5.61-10.82,4.73-9.15,11.27-21.77,18.34-35.85,7.07-14.08,12.96-26.95,17.18-36.34l4.95-11.13,1.39-3.02c.11-.36.25-.71.43-1.04Z"/>
    <path class="cls-9" d="M475.11,399.42c4.36-37.85-55.5-59.52-87.35-67.89-20.66-4.86-42.22-4.45-62.69,1.19-16.52-4.64,47.86,108.91,111.28,150.77l10.98-9.67s23.42-36.55,27.78-74.4Z"/>
    <path class="cls-9" d="M516.7,317.05c14.88,10.32,24.95,26.21,27.95,44.07,3.08,14.36.87,29.35-6.22,42.21-6.45,10.5-16.51,18.29-28.29,21.89-7.57,2.26-15.54,2.77-23.34,1.52-28.6-4.61-48.04-31.53-43.42-60.13-6.56-16.75,7.19-43.05,22.63-52.11,16.08-8.52,35.54-7.55,50.69,2.55Z"/>
    <path class="cls-4" d="M462.84,469.74c-4.41-2.55-10.75-6.22-18.5-10.92-20.22-12.07-39.06-26.32-56.18-42.49-16.99-16.33-31.04-35.47-41.53-56.58-7.86-16.29-10.35-27.16-10.92-27.16.24,2.64.79,5.24,1.64,7.75,1.91,6.95,4.37,13.74,7.35,20.31,10.07,21.65,24.09,41.22,41.36,57.71,17.21,16.41,36.41,30.61,57.14,42.26,7.69,4.47,14.43,7.92,19.01,10.13,2.31,1.32,4.76,2.38,7.3,3.17-2.09-1.6-4.32-3-6.68-4.19Z"/>
    <path class="cls-4" d="M504.59,438.63c-.05-4.76-.44-9.5-1.19-14.2-2.35-15.64-7.43-30.75-14.99-44.64-7.53-13.92-17.4-26.44-29.19-37-3.56-3.18-7.34-6.12-11.32-8.77-1.4-1.08-2.94-1.95-4.58-2.6-.28.45,5.83,4.7,14.37,12.96,22.47,21.66,37.69,49.74,43.56,80.39,2.21,11.71,2.43,19.12,3,19.12.38-1.73.49-3.5.34-5.26Z"/>
    <path class="cls-10" d="M430.01,458.36c-.16-3.81,3.79-13.02,7.52-13.8,9.99-2.04,28.15-2.18,29.62,23.36,2.04,34.92-33.49,29.72-33.61,28.72s-2.96-25.09-3.53-38.28Z"/>
    <path class="cls-1" d="M443.47,482.8c.14-.12.63.39,1.67.79,1.49.54,3.12.48,4.57-.16,3.61-1.55,6.38-7.58,6.11-13.88-.09-3-.84-5.95-2.2-8.62-.76-2.14-2.5-3.78-4.69-4.4-1.46-.31-2.94.47-3.51,1.85-.41,1.02-.14,1.69-.33,1.77s-.79-.55-.59-2.04c.15-.88.58-1.68,1.24-2.28.93-.77,2.12-1.16,3.32-1.08,2.95.42,5.46,2.33,6.67,5.05,1.65,2.95,2.56,6.25,2.65,9.62.18,7.05-3.04,13.84-8.01,15.57-1.87.67-3.94.45-5.63-.61-1.18-.75-1.41-1.53-1.28-1.59Z"/>
  </g>
  <g id="freepik--Plant--inject-2">
    <path class="cls-4" d="M754.67,868.83s-50.51-58.13-69.57-116.18c-19.06-58.05-9.93-51.53-9.93-51.53,0,0,25.72,56.46,45.27,83.73,19.55,27.27,54.3,67.26,54.3,67.26l-20.08,16.71Z"/>
    <path class="cls-4" d="M764.86,710.17c-.79-1.41-2.58-1.92-4-1.13-1.07.6-1.65,1.79-1.47,3,3.08,20.38,9.72,68.34,9.46,99.41-.33,40.38,0,55.97,0,55.97h21.01s-3.73-83.45-8.48-108.89c-3.38-17.83-10.42-37.65-16.53-48.37Z"/>
    <path class="cls-4" d="M776.26,860.63c8.81-19.96,14.64-41.1,17.28-62.76,1.73-14.86-1.35-34.94-5.95-61.74-1.78-9.8-2.66-19.74-2.65-29.7.03-2.77,2.3-4.99,5.07-4.96,1.82.02,3.48,1.02,4.35,2.61,2.53,4.52,9.89,19.98,11.74,29.68,5.1,26.5,10.86,39.69,6.44,64.8-4.42,25.11-20.69,63.78-20.69,63.78l-15.59-1.71Z"/>
    <path class="cls-4" d="M795.17,862.35s55.46-119.18,59.29-136.85c3.83-17.67,16.92-58.42,18.45-56.11,1.53,2.3,3.85,23.83-6.11,48.43-9.97,24.6-52.67,148.16-52.67,148.16h-18.94"/>
    <path class="cls-9" d="M770.18,857.01c-.55-.3-1.08-.66-1.57-1.06-.98-.75-2.47-1.79-4.28-3.28-3.69-2.91-8.87-7.32-14.9-13.17-15.62-15.37-29.15-32.73-40.24-51.63-11.06-18.89-20.25-38.81-27.46-59.48-2.79-7.91-4.83-14.39-6.11-18.89-.67-2.24-1.14-4.08-1.47-5.2-.19-.6-.33-1.21-.43-1.83.27.57.49,1.16.65,1.77.43,1.26.98,2.98,1.69,5.12,1.45,4.46,3.61,10.88,6.48,18.75,7.43,20.5,16.7,40.28,27.7,59.11,11.06,18.8,24.42,36.15,39.79,51.63,5.95,5.89,11.03,10.4,14.61,13.39,1.77,1.55,3.22,2.65,4.08,3.44.52.4,1,.84,1.45,1.32Z"/>
    <path class="cls-9" d="M776.24,799.83c-.26-1.15-.43-2.31-.49-3.49-.26-2.47-.61-5.69-1.02-9.56-.88-8.15-2.26-19.18-4.22-31.39-1.96-12.21-4.08-23.2-5.83-31.12-.84-3.81-1.51-6.97-2.04-9.4-.31-1.14-.51-2.31-.61-3.49.45,1.09.81,2.23,1.06,3.38.63,2.18,1.45,5.36,2.41,9.31,1.9,7.89,4.22,18.87,6.11,31.12,1.9,12.25,3.2,23.4,3.87,31.49.33,4.08.55,7.34.63,9.6.14,1.17.18,2.35.12,3.53Z"/>
    <path class="cls-9" d="M789.32,703.16c.25.49.46.99.65,1.51.41,1.12.96,2.59,1.65,4.42.69,1.83,1.59,4.28,2.38,7.09.79,2.81,1.9,5.95,2.69,9.54.45,1.79.9,3.67,1.39,5.61.49,1.94.79,4.08,1.2,6.11.92,4.24,1.47,8.83,2.04,13.64,2.52,20.98,1.76,42.23-2.24,62.98-1.02,4.77-1.92,9.29-3.12,13.45-.57,2.04-1.06,4.08-1.65,6.11l-1.77,5.48c-1.06,3.53-2.34,6.6-3.38,9.34s-2.04,5.03-2.87,6.89c-.84,1.85-1.47,3.22-2.04,4.3-.2.52-.45,1.01-.75,1.47.13-.54.31-1.07.55-1.57l1.75-4.36c.82-1.9,1.75-4.22,2.69-6.97.94-2.75,2.2-5.83,3.2-9.34.53-1.75,1.1-3.59,1.69-5.5s1.02-3.93,1.57-6.01c1.16-4.08,2.04-8.66,3-13.41,3.87-20.66,4.62-41.78,2.24-62.66-.63-4.79-1.16-9.36-2.04-13.57-.41-2.04-.71-4.18-1.14-6.11s-.88-3.81-1.3-5.61c-.73-3.59-1.75-6.75-2.51-9.54-.75-2.79-1.53-5.2-2.18-7.15s-1.08-3.34-1.45-4.48c-.14-.54-.22-1.09-.24-1.65Z"/>
    <path class="cls-9" d="M872.28,671.79c.02.18.02.35,0,.53,0,.43-.14.94-.24,1.55-.24,1.37-.55,3.36-1.1,5.93-1.06,5.14-2.85,12.49-5.63,21.44s-6.54,19.47-11.05,30.98c-4.5,11.52-9.66,24.11-14.59,37.48-4.93,13.37-8.85,26.4-12.45,38.24-3.61,11.84-6.99,22.42-10.19,31.23-2.54,6.95-5.47,13.76-8.76,20.38-1.14,2.36-2.16,4.08-2.81,5.34-.31.55-.57.98-.77,1.37s-.29.45-.31.43c.05-.17.12-.33.2-.49.18-.39.39-.86.67-1.43.59-1.24,1.53-3.04,2.61-5.42,2.22-4.71,5.24-11.66,8.38-20.38,3.14-8.72,6.48-19.4,10.01-31.27,3.53-11.86,7.4-24.93,12.41-38.32,5.01-13.39,10.19-25.97,14.7-37.46,4.5-11.5,8.4-21.93,11.25-30.84,2.85-8.91,4.77-16.2,5.97-21.3.61-2.55,1-4.52,1.3-5.87.16-.61.26-1.12.37-1.53-.02-.2-.01-.4.04-.59Z"/>
    <path class="cls-4" d="M701.31,645.47c-1.89-1.83-4.91-1.78-6.74.11-1.21,1.25-1.64,3.07-1.12,4.74,1.89,6.13,4.22,12.12,6.97,17.92,7.62,16.2,30,74.34,40.5,106.26,10.5,31.92,25.25,91.48,25.25,91.48l22.42-3.63s-20.48-97.84-40.5-133.12c-16.1-28.33-32.14-69.28-46.78-83.75Z"/>
    <path class="cls-9" d="M747.03,794.47c.48.85.87,1.76,1.16,2.69.65,1.75,1.57,4.32,2.57,7.52,2.04,6.38,4.59,15.29,7.13,25.19,2.55,9.91,4.65,18.94,6.11,25.48l1.69,7.75c.24.95.4,1.92.47,2.89-.41-.89-.71-1.82-.92-2.77l-2.04-7.68-6.5-25.38c-2.55-9.91-4.93-18.83-6.79-25.27l-2.22-7.6c-.32-.91-.55-1.85-.67-2.81Z"/>
    <path class="cls-9" d="M777.4,864.16c-.07-.2-.11-.4-.12-.61,0-.47-.14-1.04-.24-1.75-.24-1.55-.45-3.85-.92-6.79-.84-5.87-2.3-14.27-4.71-24.68-2.86-12.09-6.35-24.03-10.48-35.75-4.59-13.27-10.33-27.6-16.88-42.42-13.17-29.64-26.31-55.91-34.96-75.42-4.36-9.68-7.75-17.59-9.99-23.11-1.12-2.75-1.94-4.91-2.51-6.36l-.63-1.67c-.08-.19-.13-.39-.16-.59.12.17.21.36.29.55.18.43.43.96.73,1.61l2.71,6.28c2.36,5.46,5.85,13.31,10.31,22.95,8.85,19.32,22.12,45.54,35.3,75.19,6.52,14.86,12.23,29.23,16.82,42.54,4.07,11.78,7.47,23.77,10.19,35.93,1.86,8.19,3.31,16.47,4.34,24.81.41,2.96.53,5.26.69,6.83,0,.71.1,1.3.14,1.77.05.23.07.46.06.69Z"/>
    <path class="cls-9" d="M788.55,862.35c-.35-1.24-.6-2.5-.75-3.77l-1.75-10.29c-1.55-8.66-3.89-20.61-7.28-33.61-3.38-13-7.13-24.58-10.03-32.9l-3.51-9.84c-.49-1.19-.89-2.4-1.2-3.65.63,1.12,1.18,2.28,1.63,3.49.96,2.28,2.3,5.58,3.85,9.72,4.05,10.77,7.52,21.74,10.4,32.88,2.89,11.14,5.21,22.42,6.97,33.79.63,4.36,1.12,7.89,1.37,10.35.2,1.27.3,2.55.31,3.83Z"/>
    <rect class="cls-5" x="747.11" y="859.12" width="87.36" height="106.44"/>
    <g class="cls-13">
      <rect class="cls-2" x="747.11" y="859.12" width="87.36" height="106.44"/>
    </g>
    <rect class="cls-5" x="729.09" y="859.12" width="77.52" height="106.44"/>
  </g>
</svg>