<svg width="113" height="73" viewBox="0 0 113 73" fill="none" xmlns="http://www.w3.org/2000/svg">
<path d="M105.1 2.58838H7.795C5.9012 2.58838 4.36597 4.12358 4.36597 6.01735V68.0401C4.36597 69.9339 5.9012 71.4691 7.795 71.4691H105.1C106.994 71.4691 108.529 69.9339 108.529 68.0401V6.01735C108.529 4.12358 106.994 2.58838 105.1 2.58838Z" fill="#263238"/>
<path d="M0.0117682 66.374H112.862V68.2121C112.862 69.3231 112.42 70.3886 111.635 71.1742C110.849 71.9598 109.783 72.4012 108.672 72.4012H4.18921C3.07817 72.4012 2.01262 71.9598 1.22699 71.1742C0.441363 70.3886 0 69.3231 0 68.2121V66.374H0.0117682Z" fill="#263238"/>
<path d="M105.441 5.32312H7.16187V63.4909H105.441V5.32312Z" fill="#455A64"/>
<path d="M46.1802 66.374L47.5805 68.6004H67.2863L68.5854 66.374H46.1802Z" fill="#455A64"/>
<path d="M102.85 7.29297H9.95538C9.53035 7.29297 9.18579 7.63752 9.18579 8.06255V62.5354C9.18579 62.9605 9.53035 63.305 9.95538 63.305H102.85C103.275 63.305 103.62 62.9605 103.62 62.5354V8.06255C103.62 7.63752 103.275 7.29297 102.85 7.29297Z" fill="#EBEBEB"/>
<path d="M103.62 11.3973H9.18579V63.3073H103.62V11.3973Z" fill="#EBEBEB"/>
<path d="M16.9316 9.46307C16.9321 9.61274 16.8881 9.75917 16.8052 9.8838C16.7224 10.0084 16.6044 10.1057 16.4662 10.1632C16.328 10.2206 16.1758 10.2358 16.029 10.2067C15.8822 10.1776 15.7473 10.1056 15.6415 9.99979C15.5357 9.89396 15.4637 9.75909 15.4346 9.61228C15.4055 9.46546 15.4207 9.31332 15.4781 9.17514C15.5356 9.03696 15.6329 8.91895 15.7575 8.8361C15.8821 8.75324 16.0286 8.70925 16.1782 8.70972C16.3779 8.71034 16.5691 8.78991 16.7103 8.93106C16.8514 9.0722 16.931 9.26346 16.9316 9.46307Z" fill="#455A64"/>
<path d="M12.3613 9.46307C12.3618 9.61274 12.3178 9.75917 12.2349 9.8838C12.152 10.0084 12.034 10.1057 11.8959 10.1632C11.7577 10.2206 11.6055 10.2358 11.4587 10.2067C11.3119 10.1776 11.177 10.1056 11.0712 9.99979C10.9654 9.89396 10.8933 9.75909 10.8643 9.61228C10.8352 9.46546 10.8503 9.31332 10.9078 9.17514C10.9653 9.03696 11.0625 8.91895 11.1872 8.8361C11.3118 8.75324 11.4583 8.70925 11.6079 8.70972C11.8075 8.71034 11.9988 8.78991 12.1399 8.93106C12.2811 9.0722 12.3607 9.26346 12.3613 9.46307Z" fill="#455A64"/>
<path d="M14.5451 9.46307C14.5456 9.61274 14.5016 9.75917 14.4187 9.8838C14.3359 10.0084 14.2179 10.1057 14.0797 10.1632C13.9415 10.2206 13.7894 10.2358 13.6426 10.2067C13.4957 10.1776 13.3609 10.1056 13.255 9.99979C13.1492 9.89396 13.0772 9.75909 13.0481 9.61228C13.019 9.46546 13.0342 9.31332 13.0917 9.17514C13.1492 9.03696 13.2464 8.91895 13.371 8.8361C13.4957 8.75324 13.6421 8.70925 13.7918 8.70972C13.9914 8.71034 14.1826 8.78991 14.3238 8.93106C14.4649 9.0722 14.5445 9.26346 14.5451 9.46307Z" fill="#455A64"/>
<path d="M107.635 66.374C107.635 66.4117 84.5141 66.4399 56.0039 66.4399C27.4937 66.4399 4.36597 66.4117 4.36597 66.374C4.36597 66.3364 27.482 66.3058 56.0039 66.3058C84.5259 66.3058 107.635 66.3364 107.635 66.374Z" fill="#455A64"/>
<path d="M35.0903 40.3129L12.4502 42.4609L13.898 57.7204L36.5381 55.5723L35.0903 40.3129Z" fill="white"/>
<path d="M36.5377 55.5751C36.5377 55.5751 36.5212 55.4762 36.5024 55.2926C36.4836 55.1091 36.453 54.8219 36.4153 54.4831C36.3424 53.777 36.2365 52.7321 36.1023 51.4094C35.8387 48.7548 35.4645 44.9516 35.0056 40.3224L35.0974 40.3977L12.4615 42.5676C12.438 42.5911 12.638 42.3487 12.5556 42.4546V42.5111V42.5746L12.5674 42.7017L12.5909 42.9559L12.638 43.4642C12.671 43.8031 12.7039 44.1397 12.7345 44.4738C12.7973 45.1469 12.86 45.8137 12.9228 46.4743C13.0467 47.7969 13.1699 49.0976 13.2923 50.3763C13.5276 52.9298 13.763 55.3844 13.9819 57.7096L13.876 57.6225L30.1856 56.1258L34.855 55.7092L36.1 55.6009L36.4247 55.5774C36.4624 55.5748 36.5001 55.5748 36.5377 55.5774C36.5043 55.584 36.4705 55.5887 36.4365 55.5915L36.1235 55.6268L34.8997 55.7563L30.2586 56.227L13.9065 57.8249H13.8101V57.7285C13.5865 55.4033 13.3535 52.9486 13.104 50.3951C12.9816 49.1164 12.8577 47.8157 12.7322 46.4931C12.6678 45.8326 12.6043 45.1665 12.5415 44.495C12.5086 44.1585 12.478 43.8219 12.445 43.4854L12.398 42.9771L12.3721 42.7229V42.5958V42.5322V42.4993V42.4758L12.4686 42.3581L35.1091 40.24H35.1939V40.3247C35.6151 44.9798 35.9635 48.7971 36.2059 51.473C36.3212 52.7886 36.413 53.8264 36.4742 54.5325C36.5024 54.8737 36.5259 55.1373 36.5401 55.3279C36.5542 55.5186 36.5377 55.5751 36.5377 55.5751Z" fill="#455A64"/>
<path d="M35.0903 40.3129C35.0386 40.3964 34.9795 40.4752 34.9138 40.5482L34.3819 41.1695L32.3838 43.4382L25.6858 50.9269L25.6269 50.9952L25.5516 50.9457L24.9491 50.5621L16.0859 44.8786L13.4147 43.1346C13.1134 42.9346 12.8757 42.7722 12.6921 42.6522C12.608 42.5996 12.5292 42.5389 12.4568 42.471C12.5493 42.5114 12.6382 42.5594 12.7227 42.6145L13.4641 43.064L16.1612 44.7421L25.0574 50.3739L25.6599 50.7598L25.5257 50.7786L32.2708 43.33L34.316 41.1083L34.8785 40.5129C34.9428 40.4398 35.0137 40.3729 35.0903 40.3129Z" fill="#455A64"/>
<path d="M86.0191 12.2527L82.9604 23.0759L99.0201 27.6142L102.079 16.791L86.0191 12.2527Z" fill="white"/>
<path d="M99.014 27.6185C99.014 27.6185 99.0305 27.5455 99.0658 27.4161C99.1011 27.2866 99.1529 27.0866 99.2211 26.8395C99.36 26.3288 99.5624 25.5921 99.8213 24.6531L102.015 16.7785L102.057 16.8538L85.9945 12.3305L86.0886 12.2787V12.2952V12.3187L86.0769 12.3634L86.051 12.4528L85.9992 12.6341L85.898 12.9941L85.6956 13.7002L85.2955 15.1122C85.0296 16.0536 84.7683 16.9738 84.5118 17.8799C83.9964 19.6897 83.5045 21.4312 83.0362 23.081L82.9867 22.9916L94.5353 26.2864L97.8302 27.2396L98.7128 27.4961L98.9481 27.5667L99.0258 27.5926L98.9528 27.5761L98.7175 27.5173L97.8467 27.2819L94.5518 26.3688L82.942 23.1234L82.8738 23.1045L82.8926 23.0363C83.3633 21.3889 83.8481 19.645 84.3588 17.8328C84.613 16.9275 84.8735 16.005 85.1402 15.0652L85.5403 13.6531C85.6062 13.4178 85.6744 13.1824 85.7427 12.9471L85.8439 12.587L85.8957 12.4081L85.9192 12.3163L85.9333 12.2716V12.2481V12.2316L86.0298 12.1775L102.083 16.7291L102.144 16.7479L102.125 16.8067C101.184 20.1015 100.403 22.8104 99.8613 24.7025L99.2494 26.8701C99.1788 27.1054 99.1223 27.2984 99.0846 27.4325C99.047 27.5667 99.014 27.6185 99.014 27.6185Z" fill="#455A64"/>
<path d="M102.074 16.795C102.017 16.8361 101.957 16.8723 101.895 16.9033L101.367 17.1857L99.3999 18.2071L92.829 21.5537L92.7702 21.5843L92.7325 21.5301L92.4242 21.1089L87.8702 14.8675L86.5028 12.9659L86.1404 12.4552C86.0942 12.3971 86.0548 12.3339 86.0227 12.267C86.0754 12.3192 86.1234 12.3759 86.1663 12.4364L86.5546 12.9424L87.9667 14.8134L92.5584 21.0289L92.869 21.4501L92.7702 21.4266L99.3599 18.1318L101.349 17.1551L101.892 16.8962C101.95 16.8571 102.01 16.8232 102.074 16.795Z" fill="#455A64"/>
<path d="M13.0581 14.0745C13.0581 14.0745 14.1666 13.1778 15.8823 15.8678C16.7827 17.2355 17.5909 18.6618 18.3016 20.137C18.3016 20.137 18.7417 20.6924 19.1112 20.2664C19.4807 19.8404 19.9326 18.6849 20.6434 18.8167C21.3541 18.9485 21.6954 19.7298 21.6718 20.9207C21.6483 22.1115 21.6954 24.7215 21.7001 24.9568C21.7048 25.1922 21.8695 25.5146 22.1708 25.2651C22.472 25.0157 24.1101 22.787 25.1197 23.6295C26.1293 24.472 25.5198 27.7786 25.461 28.1411C25.4021 28.5035 25.4845 28.647 25.661 28.72C25.8375 28.793 26.32 27.9904 26.8119 27.3762C27.3037 26.7619 27.9886 26.1359 28.5252 26.6701C29.0618 27.2044 29.4666 29.6049 27.5391 33.747L26.5247 35.6085L24.4066 35.698C19.8408 35.6062 17.8545 34.2059 17.6121 33.4857C17.3697 32.7656 18.2287 32.4267 18.9959 32.2525C19.7632 32.0784 20.6928 31.9984 20.7069 31.8077C20.721 31.6171 20.6269 31.4782 20.2739 31.3747C19.9208 31.2711 16.6824 30.3674 16.3694 29.0918C16.0564 27.8163 18.7747 27.315 19.1301 27.155C19.4854 26.9949 19.2642 26.7054 19.0595 26.5995C18.8547 26.4936 16.5224 25.3075 15.4421 24.8086C14.3619 24.3096 13.7947 23.6836 13.9995 22.9611C14.2042 22.2386 15.428 22.3633 15.974 22.2174C16.52 22.0715 16.2094 21.4337 16.2094 21.4337C15.1946 20.1494 14.2668 18.7986 13.4323 17.3905C11.766 14.6676 13.091 14.058 13.091 14.058" fill="#E30613"/>
<path d="M14.5996 16.4797C14.6093 16.5 14.6204 16.5197 14.6326 16.5386L14.7314 16.708L15.1197 17.3552C15.4586 17.9153 15.9529 18.7249 16.5695 19.7087C17.8004 21.7044 19.5255 24.4438 21.4412 27.4609C23.3569 30.478 25.0868 33.2175 26.3294 35.2038C26.9484 36.1969 27.4497 36.9994 27.8003 37.5572L28.2004 38.1973C28.2451 38.2679 28.2804 38.3244 28.3063 38.3621L28.344 38.4186C28.3342 38.3983 28.3232 38.3786 28.311 38.3597L28.2122 38.1903L27.8239 37.5666C27.485 37.0065 26.9884 36.1969 26.3741 35.2014C25.1409 33.208 23.4181 30.4663 21.5024 27.4468C19.5867 24.4273 17.8545 21.6926 16.6118 19.7063L15.1433 17.3529C14.9715 17.0775 14.8373 16.861 14.7432 16.7127L14.6373 16.548C14.6137 16.4986 14.5996 16.4797 14.5996 16.4797Z" fill="#263238"/>
<path d="M20.0811 20.4547C20.062 20.5024 20.0486 20.5522 20.041 20.603C20.0199 20.6995 19.9916 20.8383 19.961 21.0125C19.8975 21.3584 19.8222 21.8385 19.7492 22.3728C19.6762 22.907 19.6174 23.3683 19.568 23.7354C19.5468 23.8978 19.5256 24.0343 19.5115 24.1473C19.5005 24.1975 19.4957 24.2489 19.4974 24.3002C19.5172 24.2526 19.5314 24.2029 19.5397 24.152C19.5609 24.0555 19.5868 23.9166 19.6174 23.7425C19.6786 23.3965 19.7469 22.9141 19.8198 22.3822C19.8928 21.8503 19.9587 21.3867 20.0104 21.0195C20.034 20.8595 20.0528 20.7207 20.0693 20.6077C20.079 20.5573 20.083 20.506 20.0811 20.4547Z" fill="#263238"/>
<path d="M19.3018 24.3567C19.3018 24.3379 18.3204 24.1378 17.1036 23.9119C15.8869 23.686 14.8937 23.5189 14.8914 23.5377C14.889 23.5565 15.8728 23.7566 17.0895 23.9825C18.3063 24.2084 19.2994 24.3873 19.3018 24.3567Z" fill="#263238"/>
<path d="M22.4533 28.8589C22.4009 28.8527 22.348 28.8527 22.2956 28.8589L21.872 28.9013C21.5142 28.9342 21.02 28.9813 20.474 29.0119C19.928 29.0425 19.4314 29.059 19.0737 29.066H18.6477C18.5949 29.0652 18.5421 29.0692 18.49 29.0778C18.5416 29.09 18.5946 29.0955 18.6477 29.0943C18.7465 29.0943 18.883 29.106 19.0737 29.1084C19.4314 29.1084 19.9303 29.1084 20.4857 29.0778C21.0412 29.0472 21.5283 28.9907 21.8861 28.9436C22.0626 28.9201 22.2085 28.8966 22.3074 28.8801C22.3566 28.8778 22.4054 28.8707 22.4533 28.8589Z" fill="#263238"/>
<path d="M23.9288 25.4862C23.9014 25.5255 23.8777 25.5672 23.8582 25.6109L23.6841 25.9663C23.5428 26.2652 23.3499 26.6723 23.1404 27.143C22.9309 27.6137 22.745 28.0232 22.6132 28.3198C22.5473 28.4727 22.4955 28.5951 22.4626 28.6822C22.4411 28.7255 22.4252 28.7713 22.4155 28.8187C22.4451 28.7808 22.4689 28.7388 22.4861 28.694C22.5285 28.6116 22.5873 28.4916 22.6603 28.3409C22.8039 28.0397 22.9968 27.6349 23.2063 27.1642C23.4158 26.6935 23.5993 26.284 23.7311 25.9875C23.797 25.8369 23.8488 25.7121 23.8841 25.6251C23.9053 25.581 23.9204 25.5343 23.9288 25.4862Z" fill="#263238"/>
<path d="M27.2166 29.1107C27.1799 29.1603 27.1491 29.214 27.1248 29.2708C27.066 29.3908 26.9907 29.5437 26.9036 29.725C26.7176 30.1062 26.4658 30.6381 26.1975 31.2265C25.9292 31.8148 25.6798 32.3514 25.5056 32.7397C25.4256 32.9257 25.3573 33.081 25.3032 33.2104C25.2765 33.2666 25.2544 33.3248 25.2373 33.3846C25.2743 33.3343 25.3051 33.2798 25.3291 33.2222L25.5527 32.7703C25.7362 32.3867 25.9881 31.8572 26.2587 31.2665C26.5294 30.6758 26.7765 30.1439 26.9506 29.7556C27.033 29.5696 27.0989 29.4143 27.153 29.2849C27.1806 29.2293 27.2019 29.1709 27.2166 29.1107Z" fill="#263238"/>
<path d="M25.2586 33.2598C25.1928 33.2541 25.1267 33.2541 25.0609 33.2598L24.5219 33.2927C24.0677 33.3209 23.4393 33.3586 22.745 33.3798C22.0508 33.401 21.42 33.4057 20.9635 33.4057H20.4245C20.3587 33.4002 20.2926 33.4002 20.2268 33.4057C20.292 33.4182 20.3582 33.4245 20.4245 33.4245C20.5516 33.4245 20.7352 33.441 20.9635 33.448C21.42 33.4598 22.0508 33.4645 22.7474 33.448C23.444 33.4316 24.0724 33.3821 24.5266 33.3421C24.762 33.3209 24.9361 33.3021 25.0632 33.2856C25.129 33.2835 25.1945 33.2748 25.2586 33.2598Z" fill="#263238"/>
<path d="M94.9822 42.6823C94.5795 42.5141 94.147 42.429 93.7106 42.4322C93.2742 42.4355 92.843 42.5269 92.4428 42.7011C91.6437 43.0542 90.9361 43.5856 90.3741 44.2544C89.2538 45.5135 88.6302 47.3492 88.3171 49.006C90.174 49.2414 91.9886 48.0435 92.8712 47.3821C94.2668 46.3349 96.1519 43.5978 94.9893 42.6752" fill="#E30613"/>
<path d="M84.9587 49.6533C85.3959 49.4365 85.768 49.1078 86.0371 48.7006C86.3062 48.2935 86.4627 47.8224 86.4908 47.3352C86.5109 46.8481 86.4338 46.3619 86.2641 45.9049C86.0944 45.4479 85.8355 45.0293 85.5023 44.6734C85.2011 44.3392 84.7963 44.038 84.3515 44.0592C84.1419 44.0824 83.9425 44.1615 83.774 44.2882C83.6055 44.4149 83.4741 44.5845 83.3936 44.7793C83.2353 45.1715 83.1834 45.5985 83.243 46.0172C83.3842 47.4528 83.7843 48.8155 84.9587 49.6533Z" fill="#E30613"/>
<path d="M82.5181 54.3389C82.5181 54.3389 82.6122 54.2519 82.7534 54.073C82.8946 53.8941 83.0923 53.6329 83.3277 53.3011C83.9585 52.443 84.4714 51.5042 84.8527 50.5099C85.2286 49.4998 85.3238 48.4067 85.1281 47.3468C85.0636 47.0286 84.9601 46.7195 84.8198 46.4266C84.782 46.3175 84.7272 46.215 84.6574 46.123C84.8103 46.5294 84.9307 46.9473 85.0175 47.3727C85.1671 48.4087 85.0538 49.4656 84.688 50.4463C84.308 51.4249 83.8185 52.3573 83.2288 53.2257C82.97 53.5824 82.7327 53.9541 82.5181 54.3389Z" fill="#263238"/>
<path d="M93.3089 44.6052C93.1421 44.7064 92.9845 44.8222 92.8382 44.9512C92.544 45.1865 92.1322 45.5278 91.605 45.9561C90.5741 46.8151 89.1668 48.0248 87.6488 49.3968C86.1308 50.7689 84.7822 52.0492 83.8243 52.9882C83.3536 53.4589 82.963 53.8425 82.7017 54.1132C82.5592 54.2459 82.4285 54.3908 82.311 54.5462C82.4687 54.4314 82.6167 54.3039 82.7535 54.1649L83.9185 53.0847C84.8975 52.1692 86.2555 50.9101 87.7758 49.5381C89.2962 48.166 90.6848 46.9493 91.6921 46.0573L92.8853 45.0077C93.0369 44.8849 93.1785 44.7503 93.3089 44.6052Z" fill="#263238"/>
<path d="M86.0273 52.1925C86.8852 51.6233 87.8665 51.2668 88.8897 51.1526C89.913 51.0384 90.9487 51.1698 91.911 51.5359C92.3958 51.7265 92.9254 52.0749 92.9324 52.5973C92.9395 53.1198 92.4217 53.4869 91.9369 53.6799C90.9162 54.0684 89.8032 54.1459 88.7385 53.9026C87.6737 53.6592 86.7049 53.1059 85.9543 52.3125" fill="#E30613"/>
<path d="M90.6424 52.4773C90.5502 52.4107 90.4476 52.3598 90.3388 52.3267C90.2184 52.2713 90.0941 52.2249 89.9669 52.1879C89.7991 52.1329 89.6287 52.0866 89.4562 52.049C89.0091 51.9448 88.5525 51.8873 88.0935 51.8772C86.9637 51.851 85.8431 52.087 84.8198 52.5668C84.4051 52.7624 84.0109 52.9989 83.6431 53.2728C83.5008 53.3759 83.3648 53.4875 83.2359 53.607C83.1337 53.6918 83.0378 53.7838 82.9488 53.8823C82.8005 54.0424 82.7135 54.1342 82.7323 54.1436C82.7511 54.153 83.0877 53.8188 83.7207 53.3811C84.0926 53.1275 84.4864 52.9078 84.8975 52.7244C85.4014 52.5038 85.9255 52.3328 86.4626 52.2138C87.0049 52.1043 87.5567 52.0491 88.11 52.049C88.5593 52.0512 89.0075 52.0937 89.4491 52.1761C90.1858 52.3314 90.6306 52.5197 90.6424 52.4773Z" fill="#263238"/>
<path d="M84.7993 22.3805L85.8665 18.5324C85.8665 18.5324 86.2487 16.9701 86.3411 16.6058C86.4617 16.1236 86.123 15.9722 85.9255 16.3006C85.8485 16.4237 85.0045 18.0142 85.0045 18.0142C85.0045 18.0142 85.6767 15.4104 85.7023 15.3155C85.9204 14.4663 85.3919 14.5459 85.238 14.8588C85.0841 15.1718 84.1272 17.7346 84.1272 17.7346C85.0225 14.3868 84.7429 14.0918 84.4889 14.0379C84.2349 13.9841 83.4627 17.0471 83.4627 17.0471C83.2595 16.6985 82.984 16.3976 82.6546 16.1646C81.8465 15.6079 80.4971 16.1646 80.433 16.5443C80.3689 16.924 80.8486 17.0317 80.8486 17.0317C81.8619 16.3775 82.9009 17.1702 82.7957 18.1348C82.6905 19.0994 81.4643 18.9685 81.3129 18.281C80.9769 16.77 80.4586 17.2549 80.4586 17.2549L80.9717 20.5898L80.4202 22.2625" fill="#EB996E"/>
<path d="M31.4788 19.9005L30.4116 16.0524C30.4116 16.0524 30.0293 14.4901 29.937 14.1259C29.8164 13.6436 30.155 13.4922 30.3526 13.8206C30.4295 13.9437 31.2735 15.5342 31.2735 15.5342C31.2735 15.5342 30.6014 12.9304 30.5758 12.8355C30.3577 11.9864 30.8862 12.0659 31.0401 12.3789C31.194 12.6918 32.1509 15.2546 32.1509 15.2546C31.2556 11.9068 31.5352 11.6118 31.7892 11.558C32.0432 11.5041 32.8154 14.5671 32.8154 14.5671C33.0185 14.2186 33.2941 13.9176 33.6234 13.6846C34.4316 13.1279 35.781 13.6846 35.8451 14.0643C35.9092 14.444 35.4295 14.5517 35.4295 14.5517C34.4162 13.8976 33.3772 14.6902 33.4824 15.6548C33.5875 16.6194 34.8138 16.4886 34.9652 15.801C35.3012 14.2901 35.8194 14.7749 35.8194 14.7749L35.3064 18.1099L35.8579 19.7825" fill="#EB996E"/>
<path d="M46.3953 38.0522L69.4454 37.8983L70.079 53.5701L46.2131 53.334L46.3953 38.0522Z" fill="#455A64"/>
<path d="M46.3953 38.0523L58.1037 28.5913L69.4454 37.8984" fill="#263238"/>
<path d="M46.226 53.334C46.1952 53.3084 48.0423 51.2946 50.3486 48.837C52.6549 46.3794 54.5481 44.4117 54.5763 44.4374C54.6046 44.463 52.76 46.4768 50.4537 48.9344C48.1475 51.3921 46.2414 53.3622 46.226 53.334Z" fill="#263238"/>
<path d="M70.0842 53.57C70.0559 53.5957 68.2602 51.6203 66.0744 49.1576C63.8887 46.6949 62.1314 44.6785 62.1648 44.6528C62.1981 44.6272 63.9888 46.6025 66.1745 49.0652C68.3602 51.528 70.1098 53.5443 70.0842 53.57Z" fill="#263238"/>
<path d="M69.4454 37.8983L57.8652 47.1387L46.3953 38.0522" fill="#263238"/>
<path d="M39.4996 29.2095L36.9547 19.5459L30.5977 19.7152L32.5756 33.2012C32.8321 36.136 34.5561 38.0549 37.4498 38.5218C39.1943 38.8014 41.085 37.139 42.4857 36.0642C43.399 35.3612 43.5606 35.4998 44.5047 34.6429L48.6093 31.6825L48.7094 32.1699H48.6837L49.3789 40.4099L57.8602 47.0798L67.9755 38.9758L67.7446 35.469C67.7703 35.469 67.7934 35.4177 67.7446 35.4177L67.4881 31.4465L72.6702 37.3904C73.2796 38.279 74.1199 38.9843 75.1007 39.4304C76.0814 39.8764 77.1653 40.0463 78.2355 39.9217C79.3057 39.7971 80.3215 39.3828 81.1735 38.7233C82.0256 38.0639 82.6814 37.1843 83.0703 36.1796L85.7383 22.5832L79.879 21.3236L77.1366 31.113L70.5974 23.5888C66.8211 18.6685 62.4137 19.0841 62.4137 19.0841L54.2866 18.9404H54.2686C54.0275 18.9404 49.4867 19.0918 46.4082 22.3806L39.4996 29.2095Z" fill="#0099FF"/>
<path d="M70.9128 24.1249C70.9128 24.1249 70.8256 24.0839 70.6563 24.03C70.4024 23.9521 70.1358 23.9242 69.8713 23.9479C69.4535 23.9928 69.0465 24.1091 68.6681 24.2917C68.2191 24.4918 67.7548 24.8047 67.2135 25.1203C66.6349 25.4998 65.963 25.7128 65.2715 25.7359C64.8869 25.714 64.5087 25.6272 64.153 25.4794C63.7887 25.3358 63.427 25.1587 63.0473 25.0074C62.2563 24.6861 61.3884 24.604 60.5512 24.7714C59.6789 24.9381 58.8785 25.4281 58.0602 25.9027C57.6548 26.1441 57.232 26.355 56.7954 26.5338C56.3674 26.7014 55.9187 26.8102 55.4614 26.857C54.5901 26.9546 53.7083 26.8329 52.896 26.503C52.1793 26.1845 51.5032 25.7814 50.8822 25.3024C50.2896 24.874 49.7431 24.4661 49.207 24.1557C48.7256 23.8743 48.2076 23.6611 47.6677 23.5221C47.2607 23.4191 46.8393 23.3844 46.4209 23.4194C46.0653 23.4591 45.7186 23.557 45.3948 23.7093L45.4538 23.6734C45.4948 23.6503 45.5564 23.617 45.6411 23.5759C45.8866 23.4709 46.1457 23.401 46.4107 23.3681C46.8356 23.3238 47.2649 23.3516 47.6805 23.4502C48.2298 23.5831 48.7575 23.793 49.248 24.0736C49.7919 24.3814 50.3434 24.7893 50.9386 25.2126C51.5543 25.683 52.2244 26.0775 52.9345 26.3875C54.1549 26.8774 55.5159 26.8848 56.7415 26.4081C57.1725 26.2315 57.5893 26.0222 57.9883 25.7821C58.8016 25.3101 59.6173 24.8099 60.5204 24.6405C61.3822 24.4734 62.2741 24.5626 63.0858 24.8971C63.8554 25.2075 64.5403 25.6077 65.2664 25.6308C65.9924 25.6539 66.6235 25.3383 67.1596 25.0433C67.6958 24.7483 68.1704 24.4251 68.6296 24.2301C69.0175 24.049 69.4344 23.9379 69.861 23.9017C70.1307 23.8811 70.4017 23.9178 70.6563 24.0095C70.7468 24.0355 70.8332 24.0744 70.9128 24.1249Z" fill="#FAFAFA"/>
<path d="M75.6254 28.9374C75.5957 29.0629 75.5491 29.1837 75.4869 29.2966C75.3113 29.6228 75.0585 29.9011 74.7506 30.1072C74.2667 30.4397 73.7042 30.6396 73.119 30.687C72.3479 30.7369 71.5737 30.7025 70.8101 30.5844C69.9738 30.4997 69.0144 30.3971 68.0729 30.7075C67.5919 30.8892 67.1352 31.1296 66.7132 31.4233C66.2612 31.7401 65.7832 32.0182 65.2843 32.2544C64.1844 32.7319 62.9679 32.8738 61.7876 32.6623C61.1659 32.5526 60.5662 32.3421 60.0124 32.0389C59.448 31.7362 58.9221 31.3617 58.3782 31.0128C57.8557 30.6493 57.2838 30.3625 56.6799 30.1611C56.0883 29.9914 55.4668 29.952 54.8585 30.0457C53.6527 30.2227 52.5496 30.7075 51.467 31.0025C50.9361 31.1625 50.387 31.2539 49.8329 31.2745C49.3077 31.295 48.7838 31.2077 48.2936 31.0179C47.347 30.628 46.6492 29.961 46.0309 29.3864C45.4946 28.8417 44.9031 28.3542 44.2659 27.9318C43.7777 27.6246 43.2241 27.4365 42.6497 27.3828C42.2873 27.3498 41.9219 27.3935 41.5774 27.5111C41.344 27.5983 41.2336 27.6727 41.2285 27.665C41.3338 27.5918 41.4475 27.5315 41.5672 27.4854C41.9138 27.3539 42.2854 27.3013 42.6549 27.3315C43.2396 27.3764 43.8051 27.5602 44.3044 27.8677C44.9526 28.286 45.5545 28.7718 46.1002 29.3171C46.7236 29.8892 47.4163 30.5408 48.3398 30.9153C48.8166 31.1018 49.3264 31.1891 49.838 31.1719C50.3821 31.1486 50.921 31.0555 51.4414 30.8948C51.9801 30.7434 52.5265 30.5536 53.0884 30.3817C53.6593 30.1736 54.2473 30.0157 54.8457 29.9097C55.4726 29.8111 56.1134 29.8505 56.7235 30.0251C57.3393 30.2317 57.923 30.5236 58.4577 30.8922C59.0042 31.2463 59.5275 31.6208 60.0791 31.9184C60.6211 32.2145 61.2077 32.4207 61.8158 32.5289C62.9712 32.7376 64.1624 32.601 65.2407 32.1364C66.2668 31.6901 67.0621 30.9153 68.0421 30.5972C68.51 30.4503 68.9986 30.3801 69.489 30.3894C69.9368 30.3974 70.3838 30.43 70.8281 30.4869C71.5827 30.6084 72.3481 30.6489 73.1113 30.6075C73.6862 30.5662 74.2409 30.378 74.7224 30.0611C75.027 29.8615 75.2809 29.5936 75.4638 29.2786C75.5843 29.0657 75.6177 28.9349 75.6254 28.9374Z" fill="#FAFAFA"/>
<path d="M83.0394 35.4689C82.9318 35.3592 82.8122 35.262 82.6828 35.179C82.3158 34.9784 81.8897 34.9139 81.4797 34.9968C80.8773 35.1531 80.3207 35.4503 79.8558 35.8639C79.5761 36.082 79.2862 36.318 78.9579 36.5309C78.6263 36.7701 78.2466 36.934 77.8451 37.0111C77.4436 37.0882 77.0302 37.0767 76.6336 36.9773C76.2687 36.897 75.9096 36.7925 75.5587 36.6643C75.2226 36.5514 74.9071 36.436 74.6044 36.3565C74.3245 36.2829 74.0386 36.2348 73.7501 36.2128C73.3338 36.1686 72.9133 36.2359 72.5315 36.4078C72.275 36.5386 72.1467 36.6643 72.1365 36.6489C72.1606 36.6161 72.189 36.5868 72.2211 36.5617C72.2568 36.5275 72.2954 36.4966 72.3366 36.4694C72.3894 36.428 72.4461 36.3919 72.5059 36.3616C72.8916 36.1625 73.3248 36.0737 73.7578 36.1051C74.0528 36.1214 74.3457 36.1652 74.6326 36.2359C74.943 36.3129 75.2637 36.4257 75.5972 36.5361C76.2616 36.7515 77.0261 37.0158 77.8214 36.867C78.2034 36.7856 78.5659 36.6305 78.8886 36.4104C79.2093 36.2026 79.4966 35.9691 79.7814 35.7536C80.263 35.3339 80.8398 35.038 81.4617 34.8917C81.8921 34.813 82.3363 34.8942 82.7111 35.12C82.8064 35.1862 82.8927 35.2647 82.9676 35.3534C82.9964 35.3887 83.0205 35.4275 83.0394 35.4689Z" fill="#FAFAFA"/>
<path d="M84.3275 28.0959C84.2633 28.1556 84.1884 28.2026 84.1068 28.2345C83.8888 28.3327 83.6552 28.3917 83.4167 28.4089C83.0642 28.4323 82.7101 28.4003 82.3675 28.314C81.954 28.2048 81.5478 28.0694 81.1515 27.9087C80.7614 27.7523 80.3578 27.6321 79.9458 27.5495C79.6064 27.4892 79.259 27.4892 78.9196 27.5495C78.61 27.6137 78.3167 27.7403 78.0576 27.9215C78.1087 27.8499 78.1732 27.7889 78.2475 27.7419C78.4438 27.605 78.6652 27.5082 78.8991 27.4572C79.2459 27.3831 79.6035 27.3744 79.9535 27.4315C80.3765 27.51 80.7907 27.6304 81.19 27.7906C81.5822 27.9475 81.982 28.0845 82.388 28.2011C82.7184 28.2888 83.0597 28.3285 83.4013 28.3191C83.7207 28.2995 84.0342 28.2239 84.3275 28.0959Z" fill="#FAFAFA"/>
<path d="M67.3162 37.793C67.0993 37.6773 66.8757 37.5745 66.6466 37.4852C66.0088 37.2712 65.3316 37.2011 64.6636 37.28C63.6776 37.412 62.7225 37.7159 61.8416 38.1778C60.8155 38.6576 59.7457 39.2989 58.4912 39.717C57.882 39.921 57.2453 40.0308 56.6031 40.0428C56.0044 40.0329 55.4108 39.9308 54.8432 39.7401C54.3345 39.5682 53.8353 39.3695 53.3476 39.145C52.8884 38.9423 52.4625 38.7448 52.0649 38.5909C51.4479 38.3233 50.794 38.1504 50.1254 38.0778L49.8099 38.0598H49.5764C49.5124 38.0659 49.448 38.0659 49.384 38.0598C49.4473 38.0455 49.5117 38.0369 49.5764 38.0342L49.8073 38.0136C49.8997 38.0136 50.0074 38.0136 50.128 38.0136C50.8055 38.0648 51.4705 38.2233 52.0982 38.4831C52.501 38.6345 52.9294 38.8269 53.3809 39.0244C53.8673 39.2435 54.3648 39.437 54.8714 39.6042C55.4272 39.7874 56.0076 39.8852 56.5928 39.8941C57.2214 39.8809 57.8442 39.7719 58.4399 39.5708C59.6738 39.1706 60.7487 38.5447 61.7749 38.0598C62.6718 37.5957 63.6452 37.2976 64.6482 37.1799C65.3286 37.1082 66.0163 37.196 66.6569 37.4364C66.8927 37.5229 67.1148 37.643 67.3162 37.793Z" fill="#FAFAFA"/>
<path d="M32.2805 31.2361C32.3168 31.2099 32.3577 31.1908 32.4011 31.1797C32.5297 31.1457 32.6655 31.151 32.791 31.1951C32.9918 31.2602 33.1698 31.3812 33.3041 31.544C33.4642 31.762 33.6001 31.9969 33.7094 32.2443C33.8471 32.5305 34.0398 32.7867 34.2764 32.9985C34.5557 33.2307 34.8783 33.4051 35.2256 33.5116C36.0373 33.7484 36.8935 33.7897 37.7243 33.6322C38.5641 33.469 39.4146 33.367 40.2692 33.3269C40.9797 33.3111 41.6791 33.5047 42.2804 33.8836C42.6902 34.1344 43.0106 34.5077 43.1963 34.9508C43.2645 35.1134 43.301 35.2875 43.304 35.4638C43.2603 35.2996 43.2081 35.1378 43.1475 34.979C42.951 34.5574 42.6306 34.2057 42.2291 33.9708C41.639 33.6143 40.9583 33.4361 40.2692 33.4577C39.4214 33.5043 38.5779 33.6097 37.7448 33.7733C36.8912 33.9347 36.0112 33.888 35.1794 33.6373C34.8175 33.5191 34.4833 33.3288 34.1969 33.078C33.9521 32.8547 33.7549 32.5842 33.6171 32.2828C33.5153 32.0384 33.388 31.8054 33.2374 31.5876C33.1178 31.4312 32.957 31.3113 32.7731 31.2413C32.6143 31.1833 32.4405 31.1814 32.2805 31.2361Z" fill="#FAFAFA"/>
<path d="M37.8447 23.3989C37.5791 23.1877 37.2751 23.03 36.9494 22.9345C36.5953 22.8431 36.2273 22.8187 35.8642 22.8627C35.4214 22.9262 34.9896 23.0514 34.5815 23.2347C34.1403 23.4245 33.7324 23.6426 33.3553 23.8273C33.0224 23.9971 32.6798 24.147 32.3291 24.2762C32.0905 24.36 31.845 24.4227 31.5954 24.4635C31.5045 24.4836 31.4111 24.4897 31.3184 24.4814C31.6494 24.4015 31.9758 24.303 32.2958 24.1864C32.6395 24.047 32.976 23.8903 33.304 23.717C33.676 23.5271 34.0864 23.3065 34.5354 23.1115C34.9582 22.9226 35.407 22.7981 35.8668 22.7421C36.2453 22.7005 36.6283 22.7354 36.993 22.8447C37.2383 22.919 37.4673 23.0391 37.6677 23.1988C37.7379 23.2546 37.7978 23.3224 37.8447 23.3989Z" fill="#FAFAFA"/>
<g opacity="0.3">
<path d="M56.4209 45.9353C59.7123 44.0267 63.5245 41.7871 65.4255 38.4958C66.6414 36.387 67.2469 33.8627 67.4778 31.441L67.9729 38.9703L57.8575 47.0743L56.4209 45.9353Z" fill="black"/>
</g>
<g opacity="0.2">
<path d="M47.8834 21.0283C47.1548 23.8769 45.5785 26.4371 43.3632 28.3704C42.8359 28.8674 42.2173 29.2576 41.5417 29.5196C41.2039 29.6483 40.8423 29.7028 40.4815 29.6793C40.1208 29.6559 39.7693 29.555 39.4509 29.3837L39.4997 29.2092L44.6305 24.1324L47.8834 21.0283Z" fill="black"/>
</g>
<path d="M40.151 33.2448C40.1305 33.2448 40.2126 33.0113 40.2818 32.6368C40.3685 32.1475 40.3729 31.6472 40.2947 31.1566C40.2128 30.6662 40.048 30.1934 39.8072 29.7584C39.62 29.425 39.4686 29.2454 39.4866 29.2249C39.6493 29.3606 39.7858 29.5249 39.8893 29.7097C40.1603 30.1442 40.3425 30.6281 40.4255 31.1335C40.5106 31.6397 40.4932 32.1579 40.3742 32.6573C40.336 32.865 40.2604 33.0641 40.151 33.2448Z" fill="#263238"/>
<path d="M38.6812 31.9629C39.2482 31.2179 39.5073 30.2836 39.4048 29.353C39.4692 29.4778 39.5043 29.6156 39.5075 29.7559C39.5772 30.4369 39.3885 31.1193 38.9788 31.6677C38.8197 31.8679 38.694 31.9629 38.6812 31.9629Z" fill="#263238"/>
<path d="M48.2269 26.6517C48.2628 26.6517 48.4834 28.704 48.6964 31.2181C48.9093 33.7321 49.0709 35.7946 49.0324 35.7972C48.9939 35.7998 48.7759 33.7449 48.5629 31.2309C48.35 28.7168 48.1884 26.6543 48.2269 26.6517Z" fill="#263238"/>
<path d="M61.9213 18.7915C61.946 18.8351 61.9649 18.8816 61.9777 18.93C62.0248 19.0639 62.0617 19.2011 62.0881 19.3405C62.1868 19.8591 62.179 20.3924 62.065 20.9079C61.8972 21.6786 61.5086 22.3838 60.9465 22.9371C60.2321 23.5952 59.3021 23.97 58.331 23.9912C57.36 24.0125 56.4145 23.6787 55.672 23.0526C55.0869 22.524 54.668 21.8369 54.4663 21.0747C54.3302 20.5647 54.2979 20.0325 54.3713 19.5098C54.393 19.3692 54.4247 19.2303 54.4663 19.0942C54.4768 19.0454 54.4931 18.998 54.515 18.9531C54.5304 18.9531 54.4663 19.1532 54.4227 19.5175C54.3698 20.0344 54.4151 20.5566 54.5561 21.0567C54.7642 21.7947 55.179 22.4578 55.7515 22.9679C56.4742 23.5675 57.3889 23.8863 58.3277 23.8655C59.2665 23.8448 60.1663 23.486 60.8618 22.855C61.3211 22.4073 61.6673 21.8567 61.8716 21.2486C62.0759 20.6406 62.1325 19.9927 62.0368 19.3584C61.9803 18.989 61.9059 18.7966 61.9213 18.7915Z" fill="#263238"/>
<path d="M76.826 34.2453C76.7444 33.713 76.7297 33.1727 76.7824 32.6368C76.7916 32.0976 76.8675 31.5617 77.0082 31.0411C77.0467 31.0411 76.9646 31.762 76.9158 32.6445C76.8671 33.527 76.8645 34.2453 76.826 34.2453Z" fill="#263238"/>
<path d="M77.8547 34.7121C77.7602 34.5512 77.6869 34.3787 77.6366 34.199C77.491 33.7663 77.3719 33.3251 77.28 32.8779C77.1875 32.4307 77.1215 31.9784 77.0825 31.5234C77.0568 31.3353 77.0568 31.1445 77.0825 30.9564C77.121 30.9564 77.1979 31.8132 77.416 32.8522C77.634 33.8912 77.8932 34.6993 77.8547 34.7121Z" fill="#263238"/>
<path d="M67.483 34.8609C67.4445 34.8609 67.3598 33.4166 67.2931 31.6312C67.2264 29.8457 67.2034 28.4014 67.2393 28.3988C67.2752 28.3962 67.3598 29.8431 67.4265 31.626C67.4932 33.4089 67.5189 34.8584 67.483 34.8609Z" fill="#263238"/>
<path d="M58.2832 23.5887C57.3568 23.5706 56.4721 23.1999 55.8095 22.5521C55.1469 21.9043 54.7563 21.0282 54.7173 20.1024C54.6583 18.6966 54.6096 17.4062 54.6096 17.4062C54.6096 17.4062 51.6671 17.0933 51.49 14.1765C51.313 11.2597 51.49 4.52818 51.49 4.52818C53.1157 3.73377 54.9239 3.38792 56.728 3.52637C58.532 3.66483 60.2663 4.28257 61.7516 5.31574L62.2006 5.62871L61.9851 19.9947C61.9794 20.4742 61.879 20.9478 61.6896 21.3883C61.5003 21.8288 61.2257 22.2276 60.8816 22.5616C60.5376 22.8956 60.1309 23.1583 59.685 23.3346C59.239 23.5109 58.7627 23.5972 58.2832 23.5887Z" fill="#EB996E"/>
<path d="M54.6072 17.3652C55.9562 17.3241 57.2625 16.883 58.3604 16.0979C58.3604 16.0979 57.5625 18.2425 54.6354 18.122L54.6072 17.3652Z" fill="#EB996E"/>
<path d="M61.9902 8.6686C62.039 8.64551 63.9682 7.97852 64.0015 9.97949C64.0349 11.9805 62.021 11.5982 62.0159 11.5418C62.0108 11.4854 61.9902 8.6686 61.9902 8.6686Z" fill="#EB996E"/>
<path d="M62.6139 10.7755C62.6139 10.7755 62.6498 10.7986 62.7089 10.8242C62.7913 10.8568 62.8831 10.8568 62.9655 10.8242C63.1759 10.7447 63.3479 10.4059 63.3504 10.0544C63.3532 9.88344 63.3172 9.71411 63.2452 9.55908C63.2255 9.49922 63.192 9.44481 63.1474 9.40024C63.1029 9.35567 63.0485 9.32218 62.9886 9.30246C62.9484 9.29289 62.9062 9.29766 62.8692 9.31594C62.8322 9.33421 62.8027 9.36484 62.7859 9.40254C62.7602 9.459 62.7859 9.49749 62.7628 9.50263C62.7397 9.50776 62.7191 9.46927 62.7345 9.38458C62.7442 9.33536 62.7704 9.29095 62.809 9.25884C62.8358 9.23744 62.8667 9.22164 62.8997 9.21239C62.9328 9.20313 62.9674 9.2006 63.0014 9.20495C63.0839 9.22018 63.1612 9.25622 63.2258 9.30966C63.2905 9.3631 63.3405 9.43217 63.371 9.51033C63.4596 9.68149 63.5045 9.8719 63.5018 10.0646C63.5018 10.4675 63.294 10.8473 63.0066 10.9371C62.9533 10.9533 62.897 10.9574 62.8419 10.9489C62.7868 10.9405 62.7344 10.9198 62.6883 10.8884C62.6191 10.8217 62.6088 10.778 62.6139 10.7755Z" fill="#EB996E"/>
<path d="M52.896 8.9434C52.8946 9.05236 52.9361 9.15751 53.0114 9.23622C53.0868 9.31493 53.19 9.36091 53.2989 9.36426C53.3518 9.36845 53.405 9.36202 53.4553 9.34535C53.5057 9.32868 53.5522 9.30211 53.5921 9.2672C53.6321 9.23229 53.6646 9.18975 53.6879 9.14207C53.7111 9.0944 53.7246 9.04256 53.7275 8.9896C53.7289 8.88082 53.6879 8.77576 53.6132 8.69671C53.5385 8.61766 53.4358 8.57084 53.3272 8.56617C53.2739 8.56199 53.2204 8.56849 53.1698 8.58528C53.1191 8.60208 53.0723 8.62884 53.0321 8.66399C52.992 8.69914 52.9592 8.74196 52.9359 8.78995C52.9125 8.83793 52.8989 8.89011 52.896 8.9434Z" fill="#263238"/>
<path d="M52.3831 8.52515C52.4344 8.58161 52.7501 8.34552 53.1992 8.34808C53.6483 8.35065 53.9691 8.57391 54.0281 8.51745C54.0871 8.461 53.9999 8.39684 53.8561 8.29163C53.662 8.1564 53.4307 8.08468 53.1941 8.08633C52.96 8.08591 52.7318 8.15957 52.5422 8.29676C52.4062 8.40197 52.36 8.50206 52.3831 8.52515Z" fill="#263238"/>
<path d="M57.2058 8.99468C57.2044 9.10363 57.2459 9.20878 57.3212 9.28749C57.3966 9.3662 57.4998 9.41218 57.6087 9.41553C57.6618 9.42008 57.7153 9.41392 57.7659 9.39741C57.8166 9.38091 57.8634 9.3544 57.9036 9.31945C57.9438 9.28451 57.9766 9.24184 58 9.19399C58.0234 9.14613 58.037 9.09406 58.0399 9.04087C58.0413 8.93166 57.9999 8.82624 57.9246 8.74711C57.8494 8.66799 57.7461 8.62145 57.637 8.61744C57.5838 8.61326 57.5303 8.61976 57.4796 8.63655C57.4289 8.65335 57.3821 8.68011 57.342 8.71526C57.3018 8.75041 57.2691 8.79324 57.2457 8.84122C57.2223 8.88921 57.2088 8.94138 57.2058 8.99468Z" fill="#263238"/>
<path d="M56.8005 8.61749C56.8518 8.67138 57.1701 8.43786 57.6192 8.43786C58.0682 8.43786 58.389 8.66368 58.4455 8.60979C58.5019 8.5559 58.4173 8.48661 58.2735 8.38397C58.0799 8.24765 57.8482 8.17582 57.6115 8.17867C57.3775 8.17878 57.1495 8.25239 56.9596 8.3891C56.8236 8.48661 56.7749 8.58413 56.8005 8.61749Z" fill="#263238"/>
<path d="M55.1715 11.9523C54.9343 11.8778 54.6887 11.833 54.4404 11.8189C54.3249 11.8189 54.2172 11.7856 54.1992 11.706C54.1889 11.5882 54.2149 11.4701 54.2736 11.3674C54.3839 11.0904 54.4968 10.7979 54.6148 10.4926C55.0843 9.24844 55.4255 8.22743 55.3844 8.20947C55.3434 8.19151 54.9098 9.18174 54.4404 10.4259C54.3275 10.7338 54.2172 11.0262 54.1146 11.3058C54.0423 11.4438 54.0214 11.6029 54.0556 11.7548C54.072 11.7953 54.0974 11.8316 54.1298 11.8609C54.1622 11.8902 54.2009 11.9118 54.2428 11.9241C54.3066 11.9403 54.372 11.9489 54.4378 11.9498C54.6813 11.9815 54.9278 11.9823 55.1715 11.9523Z" fill="#263238"/>
<path d="M56.4881 12.2525C56.4163 12.2525 56.4137 12.7349 55.9954 13.0814C55.5771 13.4278 55.0587 13.3739 55.0562 13.4432C55.0562 13.474 55.1716 13.5381 55.3923 13.5433C55.6783 13.5471 55.9564 13.4499 56.1776 13.2687C56.3894 13.0947 56.5255 12.8455 56.5574 12.5733C56.5805 12.3705 56.5266 12.2499 56.4881 12.2525Z" fill="#263238"/>
<path d="M56.685 6.85004C56.7286 6.97065 57.1777 6.9142 57.7115 6.97835C58.2453 7.04251 58.6636 7.18365 58.738 7.07587C58.7714 7.02197 58.6969 6.9065 58.525 6.78845C58.2952 6.64397 58.0357 6.55344 57.7659 6.52366C57.4961 6.49388 57.2231 6.52563 56.9673 6.61651C56.762 6.69607 56.667 6.79102 56.685 6.85004Z" fill="#263238"/>
<path d="M52.5497 7.22449C52.6292 7.32713 52.9397 7.22449 53.3195 7.22449C53.6993 7.22449 54.0073 7.29377 54.0894 7.18599C54.1202 7.13467 54.0714 7.03202 53.9329 6.92937C53.7488 6.81147 53.5328 6.75322 53.3144 6.76257C53.096 6.76583 52.8841 6.83764 52.7088 6.96787C52.5574 7.07821 52.5163 7.17573 52.5497 7.22449Z" fill="#263238"/>
<path d="M50.0048 2.59915C49.9848 2.41767 50.011 2.23407 50.0809 2.06542C50.1509 1.89678 50.2624 1.74857 50.405 1.63458C50.5523 1.52806 50.7325 1.47709 50.9138 1.49071C51.095 1.50432 51.2656 1.58164 51.3953 1.70898C51.3682 1.58677 51.3671 1.46025 51.392 1.33759C51.4169 1.21492 51.4672 1.09884 51.5397 0.996828C51.6123 0.894816 51.7054 0.809143 51.813 0.745338C51.9207 0.681533 52.0406 0.641015 52.1649 0.626397C52.6421 0.595612 53.05 0.957327 53.5092 1.08303C53.9688 1.17673 54.4464 1.12007 54.8714 0.921413C55.305 0.746969 55.7103 0.505826 56.1541 0.346774C57.0794 0.0083957 58.1008 0.048993 58.9963 0.459736C59.8918 0.87048 60.5889 1.61815 60.936 2.54015C61.2624 2.46011 61.6054 2.48102 61.9196 2.60011C62.2338 2.71921 62.5045 2.93088 62.6959 3.20714C63.0687 3.77264 63.2178 4.45666 63.114 5.12602C63.0505 5.57401 62.9378 6.01363 62.778 6.43692C62.778 6.4754 62.778 6.51132 62.778 6.5498C62.7472 8.15571 62.565 10.0438 61.8801 10.0541C60.6846 10.072 60.9694 7.81964 60.9694 7.81964C59.5019 7.25527 60.0484 5.05676 59.6867 4.72326C59.3249 4.38977 58.5527 3.61503 55.482 5.18503C54.289 5.79302 52.7036 5.77506 51.8365 5.57753C51.8114 5.57389 51.7866 5.56875 51.7621 5.56213H51.7442H51.7185C51.4403 5.49244 51.1746 5.37993 50.9309 5.22864C50.6428 5.06306 50.4154 4.80952 50.2819 4.50521C50.218 4.35323 50.1998 4.18594 50.2294 4.02377C50.259 3.8616 50.3352 3.71155 50.4486 3.59194C50.206 3.31203 50.0516 2.96661 50.0048 2.59915Z" fill="#263238"/>
</svg>
