<svg width="93" height="92" viewBox="0 0 93 92" fill="none" xmlns="http://www.w3.org/2000/svg">
<path d="M5.5664 73.4637C5.5664 73.4637 2.09831 73.2092 1.83943 67.2997C1.58055 61.3901 -0.343187 46.4822 0.0540591 43.5274C0.451305 40.5726 3.26773 40.0593 4.29432 39.0327C5.32091 38.0061 31.7891 26.6958 34.2306 27.0841C36.6721 27.4724 69.9381 38.9033 69.9381 38.9033L84.6942 80.6409C84.6942 80.6409 77.0081 83.6135 70.9691 83.743C64.9301 83.8724 46.4202 77.9628 46.4202 77.9628L43.2958 79.3286C43.2958 79.3286 44.7331 84.0643 42.1576 85.2114C39.5822 86.3585 36.8015 85.3989 36.8015 85.3989C36.8015 85.3989 36.6542 90.9826 32.414 90.8577C28.1737 90.7327 23.3175 87.0861 23.3175 87.0861C23.3175 87.0861 21.0054 88.6259 19.5905 87.4699C18.1756 86.3139 10.2173 77.9628 10.2173 77.9628L5.5664 73.4637Z" fill="#AE7461"/>
<path d="M33.7752 48.1515C33.6476 47.9936 33.5341 47.8248 33.436 47.6471C33.1483 47.1788 32.8875 46.6945 32.6549 46.1965C32.3027 45.4606 31.9971 44.7033 31.7399 43.9291C31.108 42.0283 30.7621 40.0442 30.7133 38.0418C30.6918 37.2269 30.7216 36.4114 30.8026 35.6003C30.8538 35.0531 30.9358 34.5092 31.048 33.9711C31.0766 33.7702 31.126 33.5727 31.1953 33.382C31.1956 33.5842 31.1761 33.786 31.1373 33.9845C31.0793 34.3684 31.0168 34.9218 30.9677 35.6137C30.9036 36.4228 30.8842 37.2349 30.9097 38.0462C30.9502 39.0337 31.0531 40.0176 31.2177 40.9921C31.3942 41.9656 31.6313 42.9271 31.9273 43.871C32.1721 44.6423 32.4597 45.3992 32.7888 46.1385C33.0655 46.7678 33.3155 47.2722 33.4985 47.6114C33.6082 47.7819 33.7009 47.9628 33.7752 48.1515Z" fill="#6F4439"/>
<path d="M41.7514 42.7195C41.6143 43.0226 41.4355 43.3051 41.2202 43.5587C40.7454 44.2018 40.2343 44.8172 39.6893 45.4021C39.1436 45.9862 38.5654 46.539 37.9575 47.058C37.7173 47.2875 37.4488 47.4855 37.1585 47.6472C37.1139 47.5936 38.252 46.6027 39.5197 45.2414C40.7873 43.88 41.6978 42.6794 41.7514 42.7195Z" fill="#6F4439"/>
<path d="M18.5815 70.7543C18.7779 70.9073 18.9588 71.0792 19.1216 71.2676C19.4564 71.6068 19.934 72.1067 20.5098 72.7405C21.0855 73.3743 21.755 74.142 22.4379 75.0436C23.1999 76.0154 23.8456 77.073 24.3617 78.1948C24.8542 79.3361 25.1181 80.5629 25.1383 81.8057C25.1585 82.821 24.9874 83.8309 24.634 84.7829C24.3904 85.4207 24.0352 86.0102 23.5851 86.5236C23.4669 86.6666 23.337 86.7995 23.1967 86.9208C23.1531 86.9673 23.1036 87.0078 23.0494 87.0413C23.0494 87.0413 23.2235 86.8405 23.5181 86.4656C23.9288 85.9402 24.2528 85.3526 24.4777 84.7248C24.8028 83.7886 24.954 82.8008 24.9241 81.8102C24.8928 80.5975 24.6292 79.402 24.1474 78.2886C23.64 77.1801 23.0096 76.132 22.2683 75.1641C21.5988 74.2715 20.9293 73.4859 20.3848 72.8387C19.8402 72.1915 19.3939 71.7094 19.0457 71.3167C18.8789 71.1396 18.7238 70.9517 18.5815 70.7543Z" fill="#6F4439"/>
<path d="M32.6951 66.0633C32.692 66.1089 32.683 66.1539 32.6683 66.1972C32.6412 66.324 32.6069 66.4492 32.5656 66.5721C32.411 67.0443 32.2107 67.5002 31.9675 67.9335C31.6008 68.6102 31.1411 69.2322 30.6017 69.7813C30.2691 70.1268 29.8924 70.427 29.4814 70.674C29.0258 70.9515 28.5096 71.1139 27.9772 71.1471L28.0486 70.9731C28.6725 71.7095 29.0858 72.6009 29.2448 73.5529C29.4759 74.5863 29.4406 75.6614 29.1422 76.6773C29.0202 77.0479 28.8311 77.3929 28.5842 77.695L28.5441 77.512C29.9916 78.1543 31.3856 78.9111 32.7129 79.775C33.2832 80.1587 33.8234 80.5855 34.3287 81.0515C34.7598 81.4626 35.1541 81.9106 35.507 82.3905C36.0135 83.0844 36.4067 83.8543 36.672 84.6714C36.7439 84.8922 36.802 85.1173 36.8461 85.3453C36.8715 85.4218 36.8866 85.5014 36.8907 85.5819C36.8684 85.5819 36.7836 85.265 36.5916 84.6892C36.2998 83.8901 35.8923 83.1382 35.382 82.4575C35.0277 81.9898 34.6318 81.5551 34.1992 81.1586C33.6967 80.7044 33.1611 80.2881 32.5969 79.9133C31.272 79.065 29.8843 78.3189 28.4459 77.6816L28.312 77.6191L28.4102 77.5031C28.6349 77.2215 28.8086 76.9027 28.9235 76.5613C29.2107 75.5817 29.246 74.5454 29.0261 73.5485C28.8763 72.6358 28.4866 71.7793 27.8969 71.0668L27.7451 70.9017H27.9683C28.4705 70.8693 28.9574 70.7162 29.3877 70.4553C29.7871 70.2279 30.1548 69.9488 30.4812 69.6251C31.0184 69.0941 31.4822 68.4936 31.8604 67.8397C32.1115 67.412 32.3265 66.9641 32.5031 66.5007C32.5559 66.3502 32.62 66.204 32.6951 66.0633Z" fill="#6F4439"/>
<path d="M39.0464 76.7175C38.9921 76.6024 38.9589 76.4784 38.9482 76.3515C38.9036 76.115 38.8322 75.7758 38.734 75.3562C38.4886 74.2702 38.0809 73.2274 37.5244 72.263C36.9405 71.3143 36.1941 70.4758 35.3195 69.7858C34.6499 69.2502 34.2036 68.9601 34.2215 68.9244C34.3419 68.9627 34.4562 69.0183 34.5607 69.0895C34.7705 69.2145 35.0695 69.3975 35.4221 69.6564C36.3455 70.3259 37.1281 71.1707 37.7252 72.1425C38.2968 73.1258 38.6926 74.2012 38.8947 75.3205C38.9604 75.6569 39.008 75.9966 39.0375 76.3381C39.0569 76.4637 39.0599 76.5912 39.0464 76.7175Z" fill="#6F4439"/>
<path d="M43.6259 80.6409C43.5515 80.4861 43.4917 80.3248 43.4473 80.1589C43.295 79.7244 43.0734 79.3175 42.7912 78.9537C42.1038 77.9807 40.5104 77.4183 38.8455 76.7667C38.0019 76.4498 37.1851 76.2132 36.4263 75.999C35.6676 75.7847 35.0114 75.5258 34.458 75.3205L33.1413 74.8251C32.9779 74.7743 32.8207 74.7055 32.6726 74.6198C32.844 74.6342 33.0123 74.6732 33.1725 74.7358C33.4894 74.8295 33.9447 74.9813 34.5115 75.1821C35.0784 75.383 35.739 75.5928 36.4888 75.807C37.2387 76.0213 38.0778 76.2534 38.9259 76.5613C39.7739 76.8693 40.5684 77.2175 41.2781 77.5567C41.9269 77.8496 42.4917 78.3008 42.9207 78.8689C43.2002 79.2539 43.4074 79.6864 43.5321 80.1455C43.5867 80.3054 43.6182 80.4722 43.6259 80.6409Z" fill="#6F4439"/>
<path d="M44.3001 69.5537C44.4039 69.963 44.4785 70.3791 44.5232 70.799C44.6437 71.5667 44.8357 72.6246 45.1169 73.7717C45.3981 74.9188 45.7194 75.9498 45.9649 76.6863C46.1188 77.0788 46.2455 77.4815 46.3443 77.8914C46.1232 77.5304 45.9435 77.1456 45.8087 76.7443C45.0686 74.8418 44.5809 72.8505 44.3581 70.8213C44.2906 70.4024 44.2712 69.9771 44.3001 69.5537Z" fill="#6F4439"/>
<path d="M74.7002 72.4147C74.6014 72.4557 74.5 72.4899 74.3967 72.5173L73.504 72.7717L72.8568 72.9503L72.0802 73.1243C71.5222 73.2493 70.8884 73.3921 70.1743 73.4993L69.0584 73.6823L67.8399 73.8251C67.0008 73.9456 66.0947 73.9724 65.1618 74.0438C63.0953 74.1175 61.0262 74.0399 58.971 73.8117C56.9157 73.5597 54.8861 73.1296 52.9052 72.5262C52.0125 72.2227 51.1199 71.946 50.3655 71.5978C49.9772 71.4282 49.5889 71.2899 49.2408 71.1113L48.2097 70.6293C47.6311 70.3371 47.068 70.0153 46.5225 69.6652C46.277 69.5134 46.0449 69.384 45.8441 69.2456L45.2995 68.8528L44.5542 68.2994C44.4648 68.2403 44.3811 68.1731 44.3042 68.0985C44.4029 68.1419 44.4959 68.1973 44.5809 68.2637L45.3531 68.777L45.9021 69.1519C46.1074 69.2858 46.3485 69.4108 46.5895 69.5536C47.1387 69.8916 47.7048 70.2015 48.2856 70.482L49.2943 70.9774C49.6469 71.147 50.0308 71.2809 50.4191 71.4461C51.1913 71.7853 52.0527 72.0487 52.9543 72.3388C54.9241 72.9261 56.9398 73.3472 58.98 73.5975C61.0233 73.8244 63.08 73.908 65.135 73.8474C66.0813 73.7805 66.9829 73.7626 67.8131 73.651L69.0272 73.526L70.1386 73.352C70.8483 73.2582 71.4776 73.1243 72.0444 73.0127L72.8256 72.861L73.4727 72.7003L74.3654 72.4905C74.4741 72.4538 74.5863 72.4284 74.7002 72.4147Z" fill="#6F4439"/>
<path d="M14.3504 50.2002C14.3191 50.2225 13.9308 49.6244 13.1988 48.7496C11.2721 46.4716 9.01544 44.4947 6.50365 42.8846C5.53955 42.2731 4.89682 41.9652 4.91467 41.9294C5.07695 41.9736 5.23405 42.035 5.38332 42.1124C5.79683 42.2988 6.19921 42.509 6.58846 42.7418C7.87625 43.5111 9.08959 44.3987 10.2128 45.3931C11.3466 46.3765 12.3839 47.4661 13.3104 48.6469C13.5929 49.0024 13.8551 49.3734 14.0959 49.7583C14.1985 49.8947 14.2839 50.0431 14.3504 50.2002Z" fill="#6F4439"/>
<path d="M9.9772 54.5928C9.6296 54.1773 9.25044 53.7891 8.8431 53.4319C8.39119 53.1357 7.91813 52.873 7.42773 52.6461C7.99367 52.6951 8.53396 52.9041 8.98544 53.2489C9.43692 53.5936 9.78092 54.0598 9.9772 54.5928Z" fill="#6F4439"/>
<path d="M2.20991 88.9294V88.9652C2.03027 89.6755 1.91226 90.4 1.85718 91.1306C1.92415 91.5503 2.34385 91.2691 2.34385 91.2691L3.43776 89.3938L2.20991 88.9294Z" fill="#263238"/>
<path d="M2.07568 89.0144L5.16439 75.5616L10.4268 77.7888L3.49505 89.5723L2.07568 89.0144Z" fill="#E30613"/>
<path d="M28.517 11.4174C28.517 11.4174 5.35177 74.7402 5.16431 75.5614L10.4267 77.7932C10.4267 77.7932 25.7452 40.7467 26.0041 40.0816C26.263 39.4165 35.4309 13.8991 35.4309 13.8991L28.517 11.4174Z" fill="#0099FF"/>
<path d="M28.5173 11.4174L30.3607 6.9272L31.7935 6.50317L36.2257 7.92701L36.9398 9.31514L35.4312 13.8946L28.5173 11.4174Z" fill="#E30613"/>
<path d="M31.8022 6.49876L34.3062 0C35.8463 0.0343225 37.3413 0.526931 38.6001 1.41491L36.2344 7.92706L31.8022 6.49876Z" fill="#E30613"/>
<path d="M37.1273 9.42238C36.7686 9.39509 36.4147 9.32312 36.0739 9.20813C35.4312 9.03852 34.5519 8.76179 33.5967 8.43596C32.6415 8.11013 31.8113 7.75306 31.182 7.48079C30.8457 7.35463 30.5251 7.18987 30.2268 6.98981C30.5767 7.06774 30.9178 7.18141 31.2445 7.32903C31.8649 7.56113 32.7219 7.8825 33.6726 8.22172C34.6233 8.56094 35.4892 8.8466 36.1185 9.05192C36.466 9.14245 36.8038 9.26652 37.1273 9.42238Z" fill="#263238"/>
<path d="M35.4311 13.8947C36.0528 14.1152 36.5622 14.5725 36.8481 15.167C37.1341 15.7615 37.1734 16.4449 36.9576 17.0682L29.7626 37.8768C29.6995 38.0592 29.5992 38.2266 29.468 38.3682C29.3368 38.5098 29.1776 38.6226 29.0004 38.6994C28.8233 38.7762 28.6322 38.8154 28.4391 38.8144C28.246 38.8134 28.0553 38.7722 27.879 38.6936C27.5583 38.5509 27.3035 38.2919 27.1661 37.969C27.0286 37.646 27.0186 37.2829 27.1381 36.9528L35.4311 13.8947Z" fill="#E0E0E0"/>
<g opacity="0.2">
<path d="M16.6266 80.5338C16.4452 80.3343 16.2218 80.1776 15.9725 80.0749C15.7231 79.9723 15.4541 79.9262 15.1849 79.9402C14.2922 80.0161 13.8057 80.7034 13.6316 81.5559C15.8633 83.9171 18.037 86.1622 19.6037 87.5191C19.6914 87.5915 19.7985 87.6365 19.9116 87.6485L20.1884 87.6708C19.7249 84.9946 18.4865 82.5131 16.6266 80.5338Z" fill="white"/>
</g>
<g opacity="0.2">
<path d="M32.0521 90.8577C32.1696 89.8341 32.0877 88.7973 31.8111 87.8047C31.6701 87.31 31.4252 86.851 31.0927 86.4584C30.7602 86.0659 30.3477 85.7488 29.8829 85.5284C29.4527 85.353 28.9861 85.2858 28.5239 85.3324C28.0617 85.3791 27.618 85.5384 27.2316 85.7962C26.4639 86.314 25.9863 87.8628 26.0041 88.7867C27.1827 89.4427 28.4145 89.9982 29.6865 90.4471C30.4582 90.6676 31.2512 90.8052 32.0521 90.8577Z" fill="white"/>
</g>
<g opacity="0.2">
<path d="M40.6043 85.6756C41.5907 85.3408 41.7737 83.0823 41.2068 82.203C40.7927 81.5415 40.1616 81.0445 39.4214 80.7971C38.5785 80.4343 37.6535 80.3048 36.7434 80.4221C35.6409 80.6408 35.083 81.0381 34.7527 81.6228C34.7527 81.6228 36.3952 83.3189 36.7702 85.3989C38.0112 85.7781 39.3217 85.8727 40.6043 85.6756Z" fill="white"/>
</g>
<path d="M84.6897 80.6408L69.9336 38.9032L86.7027 33.382C86.7027 33.382 95.3707 49.3834 91.6393 64.4742C88.0909 78.8956 84.6897 80.6408 84.6897 80.6408Z" fill="#AE7461"/>
<path d="M49.125 43.6747C43.693 45.8037 37.9173 46.8928 32.2309 48.2185C26.5445 49.5441 19.8225 51.2134 15.8501 54.1816C12.016 57.0516 7.28029 61.1713 5.7047 65.4741C5.35733 66.3676 5.21703 67.3282 5.29434 68.2838C5.37165 69.2393 5.66456 70.1649 6.15104 70.9909C6.44924 71.5059 6.85899 71.9477 7.35022 72.2836C7.84144 72.6196 8.40168 72.8413 8.98979 72.9325C12.3508 73.4681 15.8144 72.1782 18.363 70.8525C20.8491 69.5671 29.7224 65.184 29.7224 65.184L37.1184 65.0679L42.7958 66.6569" fill="#AE7461"/>
<path d="M51.4948 62.1934C51.4314 62.3045 51.3533 62.4066 51.2627 62.4969C51.0342 62.76 50.7913 63.0104 50.5352 63.2468C49.6896 64.0282 48.7512 64.7028 47.7411 65.2553C46.73 65.8091 45.6533 66.2335 44.5364 66.5185C44.1997 66.6071 43.8585 66.6771 43.5142 66.7283C43.3886 66.7578 43.2589 66.7669 43.1304 66.755C43.1304 66.7193 43.6571 66.6122 44.4917 66.3623C45.5742 66.0317 46.6209 65.5936 47.6161 65.0545C48.6106 64.5067 49.5468 63.8591 50.4102 63.1218C51.0887 62.5549 51.4636 62.1488 51.4948 62.1934Z" fill="#6F4439"/>
<path d="M39.609 61.0017C39.4386 61.7901 39.119 62.5385 38.6672 63.2067C38.2821 63.9164 37.7674 64.5477 37.1497 65.0679C37.1006 65.0188 37.7969 64.2109 38.4887 63.0861C39.1805 61.9614 39.5465 60.9794 39.609 61.0017Z" fill="#6F4439"/>
<path d="M27.281 62.3096C28.2208 63.1625 29.0517 64.1283 29.7546 65.185C29.2529 64.7888 28.8029 64.3313 28.4151 63.8232C27.9775 63.3662 27.5967 62.8579 27.281 62.3096Z" fill="#6F4439"/>
<path d="M22.5273 64.0637C22.403 64.0021 22.2887 63.9224 22.188 63.8271C21.8963 63.5879 21.6205 63.33 21.3623 63.0549C19.6397 61.2238 18.586 58.8646 18.3718 56.3598C18.3392 55.9828 18.3317 55.604 18.3495 55.2261C18.3486 55.0877 18.3651 54.9497 18.3986 54.8154C18.4432 54.8154 18.3986 55.4046 18.5369 56.3419C18.8308 58.7944 19.8574 61.1013 21.4828 62.9612C22.1077 63.653 22.5585 64.0324 22.5273 64.0637Z" fill="#6F4439"/>
<path d="M22.2997 61.64C22.2283 61.64 22.0096 60.0644 21.3178 58.2299C20.626 56.3954 19.76 55.0519 19.8225 55.0162C20.0699 55.2675 20.2776 55.5549 20.4385 55.8687C20.8713 56.5888 21.2388 57.3461 21.5365 58.1317C21.834 58.9245 22.0566 59.7434 22.2015 60.5777C22.2853 60.9252 22.3184 61.283 22.2997 61.64Z" fill="#6F4439"/>
<g opacity="0.2">
<path d="M9.0122 71.2945C10.0488 71.5452 11.1162 71.6445 12.1812 71.5891C13.3016 71.473 14.4442 70.8571 14.8593 69.8037C15.328 68.5941 14.7299 67.264 14.1452 66.108L12.6945 63.2424C12.3062 62.4792 11.8018 61.6267 10.7172 61.8588C10.4443 61.9176 10.1852 62.0282 9.95398 62.1846C8.29262 63.2825 7.01239 64.8684 6.2895 66.7239C6.08029 67.2473 6.01143 67.8163 6.08972 68.3745C6.168 68.9326 6.39073 69.4607 6.73584 69.9063C7.30805 70.622 8.11393 71.1135 9.0122 71.2945Z" fill="white"/>
</g>
<path d="M42.827 66.6569C42.827 66.6569 42.6931 66.6301 42.4476 66.5632L41.3407 66.2686L37.1584 65.1215L29.7625 65.2643H29.7982L23.4423 68.4512L19.8715 70.2366C18.6396 70.8436 17.3854 71.5354 16.0107 72.0532C14.6103 72.6144 13.1377 72.975 11.6365 73.1244C10.8577 73.1957 10.0735 73.1823 9.29765 73.0842C8.48173 73.0143 7.70497 72.7036 7.06593 72.1916C6.43638 71.6529 5.94895 70.9678 5.64656 70.1964C5.33532 69.4208 5.18352 68.5904 5.20022 67.7549C5.2059 66.9074 5.37094 66.0686 5.68673 65.2822C5.99881 64.4914 6.38279 63.7309 6.83384 63.0103C8.61921 60.2028 11.0161 57.9666 13.3995 55.9804C13.9947 55.4864 14.6002 55.0073 15.2162 54.5431C15.5197 54.3155 15.8187 54.0968 16.1356 53.8647L16.582 53.5389L17.064 53.2443C18.3278 52.4935 19.6539 51.8528 21.0276 51.3295C23.5607 50.3728 26.1517 49.5767 28.785 48.946C31.2533 48.3345 33.5609 47.8212 35.6676 47.3525C39.89 46.4331 43.2822 45.5672 45.5854 44.8619C46.7369 44.5093 47.6252 44.2014 48.2233 43.9693L48.9017 43.7238L49.1383 43.6479C49.1383 43.6479 47.9153 44.1924 45.6122 44.9289C43.309 45.6654 39.9213 46.5491 35.7078 47.4909C33.6011 47.9685 31.2935 48.4907 28.8341 49.1111C26.2049 49.7556 23.6186 50.5636 21.09 51.5303C19.7315 52.0571 18.4192 52.6961 17.1667 53.4407C15.8917 54.2662 14.6721 55.1742 13.5156 56.1589C11.1411 58.1407 8.7665 60.3679 6.99898 63.1352C6.13754 64.568 5.38322 66.1213 5.40108 67.7638C5.39102 68.5699 5.5428 69.3697 5.84742 70.1161C6.12978 70.8508 6.58984 71.5041 7.18645 72.0175C7.79024 72.5023 8.52574 72.7947 9.29765 72.8566C10.0586 72.9539 10.8277 72.9689 11.5919 72.9012C13.0722 72.7531 14.5248 72.4001 15.908 71.8523C17.2694 71.339 18.5146 70.6561 19.751 70.067L23.3218 68.2816L29.6911 65.1215L37.087 65.0277L41.2782 66.2284L42.3717 66.5498C42.702 66.6123 42.827 66.6569 42.827 66.6569Z" fill="#6F4439"/>
<g opacity="0.4">
<path d="M71.808 72.7138C71.3229 72.6725 70.8345 72.7349 70.3753 72.8968C66.2027 73.9851 61.8479 74.1831 57.5938 73.478C53.3398 72.7728 49.2817 71.1803 45.6835 68.8038C43.8982 67.5987 43.0769 66.7373 41.6664 66.3623L40.564 66.0633C44.6748 70.2054 49.0981 73.4146 54.6104 75.3294C60.1227 77.2442 66.4073 77.3647 71.6696 74.8429C72.174 74.6018 72.7409 74.2224 72.7364 73.6601C72.7088 73.4216 72.6026 73.1991 72.4344 73.0278C72.2663 72.8564 72.0459 72.7459 71.808 72.7138Z" fill="#6F4439"/>
</g>
</svg>
