<svg width="339" height="218" viewBox="0 0 339 218" fill="none" xmlns="http://www.w3.org/2000/svg">
<path d="M315.3 7.76538H23.3848C17.7034 7.76538 13.0977 12.371 13.0977 18.0523V204.121C13.0977 209.802 17.7034 214.407 23.3848 214.407H315.3C320.981 214.407 325.587 209.802 325.587 204.121V18.0523C325.587 12.371 320.981 7.76538 315.3 7.76538Z" fill="#263238"/>
<path d="M0.0353045 199.122H338.585V204.636C338.585 207.97 337.261 211.166 334.904 213.523C332.547 215.88 329.35 217.204 326.017 217.204H12.5676C9.23449 217.204 6.03787 215.88 3.68098 213.523C1.32409 211.166 0 207.97 0 204.636V199.122H0.0353045Z" fill="#263238"/>
<path d="M316.323 15.9695H21.4854V190.473H316.323V15.9695Z" fill="#455A64"/>
<path d="M138.541 199.122L142.741 205.801H201.859L205.756 199.122H138.541Z" fill="#455A64"/>
<path d="M308.55 21.8792H29.8664C28.5913 21.8792 27.5576 22.9128 27.5576 24.1879V187.607C27.5576 188.882 28.5913 189.915 29.8664 189.915H308.55C309.825 189.915 310.859 188.882 310.859 187.607V24.1879C310.859 22.9128 309.825 21.8792 308.55 21.8792Z" fill="#EBEBEB"/>
<path d="M310.859 34.1924H27.5576V189.922H310.859V34.1924Z" fill="#EBEBEB"/>
<path d="M50.7951 28.3897C50.7965 28.8387 50.6645 29.278 50.4159 29.6519C50.1673 30.0258 49.8133 30.3175 49.3988 30.4899C48.9842 30.6624 48.5278 30.7079 48.0873 30.6207C47.6469 30.5334 47.2423 30.3173 46.9248 29.9999C46.6073 29.6824 46.3912 29.2778 46.304 28.8373C46.2167 28.3969 46.2622 27.9405 46.4347 27.5259C46.6071 27.1114 46.8988 26.7574 47.2727 26.5088C47.6467 26.2602 48.086 26.1283 48.535 26.1296C49.1338 26.1315 49.7076 26.3702 50.131 26.7937C50.5545 27.2171 50.7932 27.7909 50.7951 28.3897Z" fill="#455A64"/>
<path d="M37.0836 28.3897C37.085 28.8387 36.9531 29.278 36.7045 29.6519C36.4559 30.0258 36.1019 30.3175 35.6873 30.4899C35.2728 30.6624 34.8164 30.7079 34.3759 30.6207C33.9355 30.5334 33.5308 30.3173 33.2134 29.9999C32.8959 29.6824 32.6798 29.2778 32.5925 28.8373C32.5053 28.3969 32.5508 27.9405 32.7232 27.5259C32.8957 27.1114 33.1874 26.7574 33.5613 26.5088C33.9352 26.2602 34.3745 26.1283 34.8235 26.1296C35.4224 26.1315 35.9962 26.3702 36.4196 26.7937C36.8431 27.2171 37.0818 27.7909 37.0836 28.3897Z" fill="#455A64"/>
<path d="M43.6354 28.3897C43.6368 28.8387 43.5048 29.278 43.2562 29.6519C43.0077 30.0258 42.6537 30.3175 42.2391 30.4899C41.8245 30.6624 41.3681 30.7079 40.9277 30.6207C40.4872 30.5334 40.0826 30.3173 39.7651 29.9999C39.4476 29.6824 39.2315 29.2778 39.1443 28.8373C39.057 28.3969 39.1025 27.9405 39.275 27.5259C39.4475 27.1114 39.7392 26.7574 40.1131 26.5088C40.487 26.2602 40.9263 26.1283 41.3753 26.1296C41.9741 26.1315 42.5479 26.3702 42.9714 26.7937C43.3948 27.2171 43.6335 27.7909 43.6354 28.3897Z" fill="#455A64"/>
<path d="M322.904 199.122C322.904 199.235 253.542 199.32 168.011 199.32C82.4809 199.32 13.0977 199.235 13.0977 199.122C13.0977 199.009 82.4456 198.917 168.011 198.917C253.577 198.917 322.904 199.009 322.904 199.122Z" fill="#455A64"/>
<path d="M105.271 120.938L37.3506 127.383L41.6941 173.161L109.614 166.717L105.271 120.938Z" fill="white"/>
<path d="M109.613 166.725C109.613 166.725 109.564 166.429 109.507 165.878C109.451 165.327 109.359 164.466 109.246 163.449C109.027 161.331 108.709 158.196 108.307 154.228C107.516 146.264 106.394 134.855 105.017 120.967L105.292 121.193L37.3845 127.703C37.3139 127.773 37.914 127.046 37.6669 127.364V127.533V127.724L37.7022 128.105L37.7728 128.868L37.914 130.393C38.0129 131.409 38.1117 132.419 38.2035 133.422C38.3918 135.441 38.5801 137.441 38.7684 139.423C39.1402 143.391 39.5097 147.293 39.8769 151.129C40.5829 158.789 41.289 166.153 41.9456 173.129L41.6279 172.868L90.5569 168.377L104.565 167.128L108.3 166.803L109.274 166.732C109.387 166.724 109.5 166.724 109.613 166.732C109.513 166.752 109.411 166.766 109.31 166.775L108.37 166.88L104.699 167.269L90.7758 168.681L41.7196 173.475H41.4302V173.185C40.7594 166.21 40.0604 158.846 39.312 151.185C38.9449 147.349 38.573 143.447 38.1965 139.479C38.0035 137.498 37.8128 135.5 37.6246 133.485C37.5257 132.475 37.4339 131.466 37.3351 130.456L37.1939 128.931L37.1162 128.169V127.787V127.597V127.498V127.427L37.4057 127.074L105.327 120.72H105.582V120.974C106.845 134.939 107.89 146.391 108.618 154.419C108.964 158.366 109.239 161.479 109.422 163.597C109.507 164.621 109.578 165.412 109.62 165.984C109.663 166.556 109.613 166.725 109.613 166.725Z" fill="#455A64"/>
<path d="M105.271 120.939C105.116 121.189 104.938 121.426 104.741 121.645L103.145 123.509L97.1511 130.315L77.057 152.781L76.8805 152.986L76.6546 152.837L74.8471 151.687L48.2574 134.636L40.2437 129.404C39.34 128.804 38.6269 128.317 38.0762 127.957C37.8237 127.799 37.5873 127.617 37.3701 127.413C37.6476 127.534 37.9144 127.678 38.168 127.844L40.392 129.192L48.4833 134.226L75.1719 151.122L76.9794 152.28L76.5769 152.336L96.8122 129.99L102.948 123.325L104.635 121.539C104.828 121.32 105.041 121.119 105.271 120.939Z" fill="#455A64"/>
<path d="M258.057 36.758L248.881 69.2278L297.06 82.8426L306.236 50.3729L258.057 36.758Z" fill="white"/>
<path d="M297.042 82.8554C297.042 82.8554 297.091 82.6365 297.197 82.2482C297.303 81.8599 297.458 81.2597 297.663 80.5184C298.08 78.9863 298.687 76.7764 299.464 73.9593L306.044 50.3354L306.171 50.5614L257.983 36.9914L258.266 36.8361V36.8855V36.9561L258.23 37.0902L258.153 37.3585L257.997 37.9022L257.694 38.9824L257.087 41.1005L255.886 45.3367C255.088 48.1608 254.305 50.9214 253.535 53.6397C251.989 59.0691 250.513 64.2937 249.108 69.243L248.96 68.9747L283.606 78.8592L293.49 81.7187L296.138 82.4882L296.844 82.7L297.077 82.7777L296.858 82.7283L296.152 82.5518L293.54 81.8457L283.655 79.1063L248.826 69.3701L248.621 69.3136L248.678 69.1089C250.09 64.1666 251.544 58.9349 253.076 53.4985C253.839 50.7826 254.62 48.0149 255.42 45.1955L256.621 40.9593C256.818 40.2533 257.023 39.5472 257.228 38.8412L257.531 37.761L257.687 37.2244L257.757 36.949L257.8 36.8149V36.7443V36.6949L258.089 36.5325L306.249 50.1872L306.432 50.2437L306.376 50.4202C303.552 60.3046 301.207 68.4311 299.584 74.1076L297.748 80.6102C297.536 81.3162 297.367 81.8952 297.254 82.2976C297.141 82.7001 297.042 82.8554 297.042 82.8554Z" fill="#455A64"/>
<path d="M306.22 50.3849C306.051 50.5082 305.871 50.6169 305.684 50.7097L304.102 51.5569L298.2 54.6211L278.487 64.6609L278.31 64.7527L278.197 64.5903L277.272 63.3265L263.61 44.6025L259.508 38.8977L258.421 37.3656C258.282 37.1912 258.164 37.0017 258.068 36.8008C258.226 36.9574 258.37 37.1275 258.499 37.3091L259.664 38.8271L263.9 44.4401L277.675 63.0864L278.607 64.3502L278.31 64.2796L298.08 54.3952L304.046 51.4651L305.677 50.6885C305.848 50.5711 306.03 50.4695 306.22 50.3849Z" fill="#455A64"/>
<path d="M39.1739 42.2234C39.1739 42.2234 42.4994 39.5334 47.6465 47.6034C50.3478 51.7065 52.7725 55.9851 54.9047 60.4108C54.9047 60.4108 56.225 62.0771 57.3335 60.7991C58.442 59.5212 59.7976 56.0546 61.9298 56.45C64.0621 56.8453 65.0859 59.1894 65.0153 62.7619C64.9447 66.3344 65.0859 74.1644 65.1 74.8704C65.1141 75.5764 65.6083 76.5437 66.5121 75.7953C67.4158 75.0469 72.3299 68.3608 75.3589 70.8884C78.3878 73.416 76.5591 83.3358 76.3826 84.423C76.2061 85.5103 76.4532 85.941 76.9828 86.1599C77.5123 86.3787 78.9597 83.9712 80.4353 82.1284C81.911 80.2857 83.9656 78.4076 85.5754 80.0103C87.1851 81.613 88.3995 88.8146 82.617 101.241L79.574 106.825L73.2195 107.094C59.5222 106.818 53.5632 102.618 52.8359 100.457C52.1087 98.2966 54.6858 97.2799 56.9875 96.7575C59.2892 96.235 62.0781 95.9949 62.1205 95.423C62.1628 94.8512 61.8804 94.4346 60.8213 94.1239C59.7623 93.8133 50.0471 91.1021 49.108 87.2754C48.169 83.4487 56.3238 81.9449 57.39 81.4648C58.4561 80.9847 57.7924 80.1162 57.1781 79.7985C56.5639 79.4808 49.5669 75.9224 46.3262 74.4256C43.0854 72.9288 41.3839 71.0507 41.9981 68.8832C42.6124 66.7157 46.2838 67.0899 47.9219 66.6522C49.5599 66.2144 48.6279 64.3011 48.6279 64.3011C45.5835 60.4481 42.8002 56.3958 40.2966 52.1714C35.2977 44.0026 39.2728 42.1739 39.2728 42.1739" fill="#1D1D1D"/>
<path d="M43.7983 49.4392C43.8276 49.5001 43.8606 49.559 43.8972 49.6157L44.1937 50.1241L45.3587 52.0657C46.3754 53.746 47.8581 56.1748 49.708 59.126C53.4006 65.1132 58.5759 73.3314 64.3231 82.3828C70.0703 91.4341 75.2598 99.6524 78.9877 105.611C80.8446 108.591 82.3485 110.998 83.4005 112.672L84.6008 114.592C84.7349 114.804 84.8409 114.973 84.9185 115.086L85.0315 115.256C85.0023 115.195 84.9693 115.136 84.9326 115.079L84.6361 114.571L83.4711 112.7C82.4544 111.02 80.9646 108.591 79.1219 105.604C75.4222 99.6241 70.2539 91.3988 64.5067 82.3404C58.7595 73.282 53.563 65.0779 49.835 59.1189L45.4293 52.0586C44.9139 51.2325 44.5114 50.583 44.229 50.1382L43.9113 49.644C43.8407 49.4957 43.7983 49.4392 43.7983 49.4392Z" fill="#263238"/>
<path d="M60.2427 61.364C60.1855 61.5071 60.1452 61.6564 60.1226 61.8088C60.0591 62.0983 59.9744 62.5149 59.8826 63.0373C59.692 64.0752 59.466 65.5155 59.2471 67.1182C59.0283 68.7209 58.8518 70.1047 58.7035 71.2061C58.6399 71.6933 58.5764 72.1028 58.534 72.4417C58.501 72.5923 58.4868 72.7465 58.4917 72.9006C58.551 72.7577 58.5936 72.6085 58.6188 72.4558C58.6823 72.1663 58.76 71.7498 58.8518 71.2273C59.0353 70.1894 59.2401 68.7421 59.459 67.1464C59.6778 65.5508 59.8755 64.1599 60.0308 63.0585C60.1015 62.5784 60.1579 62.1618 60.2074 61.8229C60.2365 61.6718 60.2484 61.5178 60.2427 61.364Z" fill="#263238"/>
<path d="M57.9052 73.07C57.9052 73.0135 54.961 72.4134 51.3107 71.7356C47.6604 71.0578 44.6809 70.5565 44.6738 70.613C44.6668 70.6695 47.6181 71.2696 51.2683 71.9474C54.9186 72.6252 57.8981 73.1618 57.9052 73.07Z" fill="#263238"/>
<path d="M67.3596 86.5765C67.2024 86.5578 67.0436 86.5578 66.8865 86.5765L65.6156 86.7036C64.5424 86.8024 63.0597 86.9436 61.4217 87.0354C59.7837 87.1272 58.2939 87.1766 57.2207 87.1978H55.9428C55.7844 87.1955 55.626 87.2073 55.4697 87.2331C55.6246 87.2698 55.7836 87.2864 55.9428 87.2825C56.2393 87.2825 56.6488 87.3178 57.2207 87.3249C58.2939 87.3249 59.7907 87.3249 61.457 87.2331C63.1233 87.1413 64.5848 86.9719 65.658 86.8307C66.1875 86.7601 66.6253 86.6895 66.9218 86.64C67.0695 86.6332 67.2161 86.6119 67.3596 86.5765Z" fill="#263238"/>
<path d="M71.786 76.4585C71.7037 76.5762 71.6328 76.7015 71.5742 76.8327L71.0517 77.8988C70.6281 78.7955 70.0491 80.0169 69.4207 81.429C68.7923 82.841 68.2346 84.0695 67.8392 84.9591C67.6415 85.4181 67.4861 85.7852 67.3873 86.0464C67.3227 86.1762 67.2752 86.3139 67.2461 86.4559C67.3348 86.3424 67.4062 86.2163 67.4579 86.0817C67.585 85.8346 67.7615 85.4745 67.9804 85.0227C68.4111 84.119 68.99 82.9046 69.6184 81.4925C70.2468 80.0804 70.7975 78.852 71.1929 77.9624C71.3906 77.5105 71.5459 77.1363 71.6518 76.8751C71.7155 76.743 71.7606 76.6029 71.786 76.4585Z" fill="#263238"/>
<path d="M81.6498 87.3323C81.5397 87.4811 81.4473 87.6422 81.3744 87.8124C81.1979 88.1725 80.972 88.6314 80.7107 89.175C80.1529 90.3188 79.3975 91.9144 78.5926 93.6795C77.7877 95.4446 77.0393 97.0544 76.5168 98.2193C76.2768 98.7771 76.072 99.2431 75.9096 99.6314C75.8294 99.7998 75.7633 99.9746 75.7119 100.154C75.8228 100.003 75.9153 99.8395 75.9873 99.6667L76.658 98.3111C77.2087 97.1603 77.9642 95.5717 78.7762 93.7996C79.5881 92.0274 80.3295 90.4318 80.8519 89.2668C81.0991 88.709 81.2967 88.2431 81.4591 87.8547C81.5418 87.6882 81.6058 87.5129 81.6498 87.3323Z" fill="#263238"/>
<path d="M75.7755 99.7794C75.5781 99.7623 75.3797 99.7623 75.1824 99.7794L73.5655 99.8782C72.2029 99.963 70.3177 100.076 68.2349 100.139C66.152 100.203 64.2598 100.217 62.8901 100.217H61.2733C61.0759 100.201 60.8775 100.201 60.6802 100.217C60.8756 100.255 61.0742 100.274 61.2733 100.274C61.6545 100.274 62.2052 100.323 62.8901 100.344C64.2598 100.38 66.152 100.394 68.2419 100.344C70.3318 100.295 72.217 100.147 73.5797 100.027C74.2857 99.963 74.8082 99.9065 75.1894 99.8571C75.3869 99.8505 75.5831 99.8245 75.7755 99.7794Z" fill="#263238"/>
<path d="M284.946 128.047C283.738 127.542 282.441 127.287 281.132 127.297C279.822 127.306 278.529 127.581 277.328 128.103C274.931 129.163 272.808 130.757 271.122 132.763C267.761 136.541 265.89 142.048 264.951 147.018C270.522 147.724 275.966 144.13 278.613 142.146C282.8 139.005 288.456 130.793 284.968 128.026" fill="#1D1D1D"/>
<path d="M254.876 148.96C256.187 148.309 257.304 147.323 258.111 146.102C258.918 144.88 259.388 143.467 259.472 142.005C259.532 140.544 259.301 139.085 258.792 137.715C258.283 136.344 257.506 135.088 256.507 134.02C255.603 133.017 254.389 132.114 253.054 132.177C252.426 132.247 251.827 132.484 251.322 132.864C250.816 133.244 250.422 133.753 250.181 134.338C249.706 135.514 249.55 136.795 249.729 138.051C250.152 142.358 251.353 146.446 254.876 148.96Z" fill="#1D1D1D"/>
<path d="M247.554 163.017C247.554 163.017 247.837 162.755 248.26 162.219C248.684 161.682 249.277 160.898 249.983 159.903C251.875 157.329 253.414 154.512 254.558 151.529C255.686 148.499 255.971 145.22 255.384 142.04C255.191 141.085 254.88 140.158 254.459 139.28C254.346 138.952 254.182 138.645 253.972 138.369C254.431 139.588 254.792 140.842 255.052 142.118C255.501 145.226 255.161 148.397 254.064 151.339C252.924 154.274 251.455 157.072 249.686 159.677C248.91 160.747 248.198 161.862 247.554 163.017Z" fill="#263238"/>
<path d="M279.926 133.815C279.426 134.119 278.953 134.466 278.514 134.853C277.632 135.559 276.396 136.583 274.814 137.868C271.722 140.445 267.5 144.074 262.946 148.19C258.392 152.306 254.346 156.147 251.472 158.964C250.06 160.376 248.888 161.527 248.105 162.339C247.677 162.737 247.285 163.172 246.933 163.638C247.406 163.294 247.85 162.911 248.26 162.495L251.755 159.254C254.692 156.507 258.766 152.73 263.327 148.614C267.888 144.498 272.054 140.848 275.076 138.172L278.655 135.023C279.11 134.654 279.535 134.251 279.926 133.815Z" fill="#263238"/>
<path d="M258.082 156.577C260.655 154.87 263.599 153.8 266.669 153.458C269.739 153.115 272.846 153.509 275.733 154.608C277.187 155.18 278.776 156.224 278.797 157.792C278.818 159.359 277.265 160.461 275.81 161.04C272.748 162.205 269.409 162.438 266.215 161.708C263.021 160.977 260.115 159.318 257.863 156.938" fill="#1D1D1D"/>
<path d="M271.927 157.432C271.65 157.232 271.342 157.079 271.016 156.98C270.655 156.814 270.282 156.674 269.9 156.563C269.397 156.399 268.886 156.26 268.368 156.147C267.027 155.834 265.657 155.662 264.28 155.631C260.891 155.553 257.529 156.261 254.459 157.7C253.215 158.287 252.032 158.996 250.929 159.818C250.502 160.128 250.094 160.462 249.708 160.821C249.401 161.075 249.113 161.351 248.846 161.647C248.401 162.127 248.14 162.402 248.197 162.43C248.253 162.459 249.263 161.456 251.162 160.143C252.278 159.382 253.459 158.723 254.692 158.173C256.204 157.511 257.776 156.998 259.387 156.641C261.014 156.313 262.67 156.147 264.33 156.147C265.678 156.153 267.022 156.281 268.347 156.528C270.557 156.994 271.892 157.559 271.927 157.432Z" fill="#263238"/>
<path d="M254.399 67.1415L257.6 55.5974C257.6 55.5974 258.747 50.9105 259.024 49.8177C259.386 48.3708 258.37 47.9167 257.777 48.9018C257.546 49.2712 255.014 54.0428 255.014 54.0428C255.014 54.0428 257.031 46.2313 257.108 45.9466C257.762 43.3992 256.176 43.6377 255.715 44.5767C255.253 45.5156 252.382 53.2039 252.382 53.2039C255.068 43.1606 254.229 42.2755 253.467 42.1139C252.705 41.9523 250.389 51.1414 250.389 51.1414C249.779 50.0958 248.953 49.193 247.965 48.4939C245.54 46.8239 241.492 48.4939 241.3 49.633C241.107 50.772 242.546 51.0952 242.546 51.0952C245.586 49.1327 248.703 51.5108 248.388 54.4045C248.072 57.2982 244.394 56.9057 243.939 54.8432C242.931 50.3102 241.377 51.7648 241.377 51.7648L242.916 61.7696L241.261 66.7875" fill="#CCCCCC"/>
<path d="M94.4368 59.7013L91.2352 48.1572C91.2352 48.1572 90.0885 43.4703 89.8114 42.3775C89.4497 40.9306 90.4656 40.4766 91.0582 41.4617C91.2891 41.8311 93.8211 46.6026 93.8211 46.6026C93.8211 46.6026 91.8047 38.7911 91.7278 38.5064C91.0736 35.959 92.659 36.1976 93.1208 37.1365C93.5825 38.0754 96.4532 45.7637 96.4532 45.7637C93.7673 35.7204 94.6061 34.8354 95.3681 34.6737C96.13 34.5121 98.4465 43.7012 98.4465 43.7012C99.0561 42.6556 99.8828 41.7528 100.871 41.0538C103.295 39.3837 107.343 41.0538 107.536 42.1928C107.728 43.3318 106.289 43.655 106.289 43.655C103.249 41.6925 100.132 44.0706 100.448 46.9643C100.763 49.8581 104.442 49.4656 104.896 47.403C105.904 42.87 107.459 44.3246 107.459 44.3246L105.92 54.3295L107.574 59.3473" fill="#CCCCCC"/>
<path d="M139.186 114.157L208.336 113.695L210.237 160.71L138.64 160.002L139.186 114.157Z" fill="#455A64"/>
<path d="M139.187 114.157L174.312 85.7737L208.337 113.695" fill="#263238"/>
<path d="M138.678 160.002C138.586 159.925 144.127 153.884 151.046 146.511C157.965 139.138 163.645 133.235 163.73 133.312C163.814 133.389 158.281 139.431 151.362 146.803C144.443 154.176 138.725 160.087 138.678 160.002Z" fill="#263238"/>
<path d="M210.253 160.71C210.169 160.787 204.781 154.861 198.224 147.473C191.667 140.085 186.395 134.036 186.495 133.959C186.595 133.882 191.967 139.808 198.524 147.196C205.081 154.584 210.33 160.633 210.253 160.71Z" fill="#263238"/>
<path d="M208.337 113.695L173.596 141.416L139.187 114.157" fill="#263238"/>
<path d="M118.499 87.6284L110.865 58.6373L91.7935 59.1452L97.7272 99.6034C98.4969 108.408 103.669 114.164 112.35 115.565C117.583 116.404 123.256 111.417 127.458 108.192C130.198 106.084 130.682 106.499 133.515 103.929L145.828 95.0474L146.129 96.5096H146.052L148.137 121.229L173.581 141.239L203.927 116.927L203.234 106.407C203.311 106.407 203.381 106.253 203.234 106.253L202.465 94.3393L218.011 112.171C219.839 114.837 222.36 116.953 225.302 118.291C228.245 119.629 231.496 120.139 234.707 119.765C237.917 119.391 240.965 118.148 243.521 116.17C246.077 114.191 248.045 111.553 249.211 108.539L257.216 67.7494L239.637 63.9707L231.41 93.3388L211.793 70.7663C200.464 56.0053 187.242 57.252 187.242 57.252L162.86 56.821H162.806C162.083 56.821 148.461 57.2751 139.225 67.1414L118.499 87.6284Z" fill="#979797"/>
<path d="M212.739 72.3747C212.739 72.3747 212.477 72.2516 211.969 72.09C211.207 71.8563 210.408 71.7726 209.614 71.8437C208.361 71.9785 207.14 72.3273 206.004 72.875C204.658 73.4753 203.265 74.4142 201.641 75.3608C199.905 76.4993 197.889 77.1383 195.815 77.2078C194.661 77.1419 193.526 76.8817 192.459 76.4382C191.366 76.0073 190.281 75.4762 189.142 75.0222C186.769 74.0583 184.165 73.8121 181.654 74.3141C179.037 74.8144 176.636 76.2843 174.181 77.7081C172.965 78.4322 171.696 79.0651 170.386 79.6013C169.103 80.1043 167.756 80.4305 166.384 80.571C163.771 80.8637 161.125 80.4986 158.688 79.509C156.538 78.5535 154.51 77.3443 152.647 75.9072C150.869 74.622 149.23 73.3983 147.621 72.4671C146.177 71.623 144.623 70.9832 143.003 70.5662C141.782 70.2572 140.518 70.1531 139.263 70.2583C138.196 70.3772 137.156 70.671 136.185 71.128L136.362 71.0202C136.485 70.951 136.669 70.8509 136.923 70.7278C137.66 70.4128 138.437 70.203 139.232 70.1044C140.507 69.9714 141.795 70.0547 143.042 70.3507C144.69 70.7494 146.273 71.379 147.744 72.2208C149.376 73.1443 151.031 74.368 152.816 75.6379C154.663 77.049 156.673 78.2325 158.804 79.1626C162.465 80.6323 166.548 80.6543 170.225 79.2242C171.518 78.6945 172.768 78.0667 173.965 77.3464C176.405 75.9303 178.852 74.4296 181.561 73.9216C184.147 73.4202 186.823 73.6878 189.258 74.6912C191.566 75.6225 193.621 76.8231 195.799 76.8923C197.977 76.9616 199.871 76.015 201.479 75.1299C203.088 74.2449 204.511 73.2752 205.889 72.6903C207.053 72.1471 208.303 71.8136 209.583 71.7052C210.392 71.6433 211.205 71.7535 211.969 72.0284C212.241 72.1065 212.5 72.2232 212.739 72.3747Z" fill="#FAFAFA"/>
<path d="M226.877 86.8123C226.788 87.1886 226.648 87.5511 226.462 87.8898C225.935 88.8685 225.176 89.7034 224.253 90.3217C222.801 91.3191 221.113 91.9187 219.358 92.061C217.045 92.2108 214.722 92.1076 212.431 91.7532C209.922 91.4992 207.044 91.1914 204.22 92.1226C202.777 92.6676 201.407 93.3888 200.141 94.2698C198.785 95.2204 197.35 96.0545 195.854 96.7633C192.554 98.1958 188.905 98.6215 185.364 97.987C183.499 97.6579 181.7 97.0262 180.038 96.1168C178.345 95.2087 176.767 94.0851 175.136 93.0384C173.568 91.948 171.852 91.0876 170.041 90.4833C168.266 89.9741 166.401 89.856 164.576 90.137C160.959 90.668 157.65 92.1226 154.402 93.0076C152.809 93.4875 151.162 93.7617 149.5 93.8234C147.924 93.8849 146.352 93.623 144.882 93.0538C142.042 91.884 139.949 89.883 138.094 88.1591C136.485 86.525 134.71 85.0626 132.799 83.7954C131.334 82.8737 129.673 82.3095 127.95 82.1485C126.863 82.0494 125.767 82.1805 124.733 82.5333C124.033 82.795 123.702 83.0182 123.687 82.9951C124.002 82.7754 124.343 82.5946 124.702 82.4563C125.742 82.0618 126.857 81.904 127.966 81.9946C129.72 82.1292 131.416 82.6807 132.914 83.603C134.859 84.8579 136.665 86.3155 138.302 87.9513C140.172 89.6675 142.25 91.6223 145.02 92.746C146.451 93.3053 147.98 93.5672 149.515 93.5156C151.147 93.4457 152.764 93.1664 154.325 92.6844C155.941 92.2303 157.581 91.6608 159.266 91.1452C160.979 90.5208 162.743 90.047 164.538 89.7291C166.419 89.4333 168.341 89.5515 170.172 90.0754C172.019 90.6951 173.77 91.5707 175.374 92.6767C177.013 93.7388 178.584 94.8624 180.238 95.7551C181.864 96.6436 183.624 97.2622 185.449 97.5868C188.915 98.2127 192.488 97.8031 195.723 96.4093C198.801 95.0702 201.187 92.746 204.127 91.7917C205.531 91.3508 206.997 91.1403 208.468 91.1683C209.811 91.1923 211.152 91.2899 212.485 91.4607C214.749 91.8253 217.045 91.9466 219.335 91.8224C221.06 91.6986 222.724 91.1341 224.168 90.1832C225.082 89.5845 225.844 88.7808 226.392 87.8359C226.754 87.1971 226.854 86.8046 226.877 86.8123Z" fill="#FAFAFA"/>
<path d="M249.119 106.407C248.796 106.078 248.437 105.786 248.049 105.537C246.948 104.935 245.67 104.742 244.44 104.991C242.633 105.46 240.963 106.351 239.568 107.592C238.729 108.246 237.859 108.954 236.874 109.593C235.88 110.31 234.74 110.802 233.536 111.033C232.332 111.265 231.091 111.23 229.902 110.932C228.807 110.691 227.73 110.378 226.677 109.993C225.669 109.654 224.722 109.308 223.814 109.07C222.974 108.849 222.117 108.705 221.251 108.639C220.002 108.506 218.741 108.708 217.595 109.223C216.826 109.616 216.441 109.993 216.41 109.947C216.482 109.848 216.568 109.76 216.664 109.685C216.771 109.583 216.887 109.49 217.01 109.408C217.169 109.284 217.339 109.176 217.518 109.085C218.676 108.488 219.975 108.221 221.274 108.315C222.159 108.364 223.038 108.496 223.899 108.708C224.83 108.939 225.792 109.277 226.792 109.608C228.786 110.255 231.079 111.047 233.465 110.601C234.611 110.357 235.699 109.892 236.667 109.231C237.629 108.608 238.491 107.907 239.345 107.261C240.79 106.002 242.52 105.114 244.386 104.675C245.677 104.439 247.01 104.683 248.134 105.36C248.42 105.559 248.679 105.794 248.904 106.06C248.99 106.166 249.062 106.282 249.119 106.407Z" fill="#FAFAFA"/>
<path d="M252.983 84.2878C252.79 84.4668 252.566 84.6078 252.321 84.7034C251.667 84.998 250.966 85.1751 250.251 85.2267C249.193 85.2969 248.131 85.2009 247.103 84.9419C245.862 84.6145 244.644 84.2083 243.455 83.726C242.285 83.257 241.074 82.8964 239.838 82.6485C238.82 82.4677 237.777 82.4677 236.759 82.6485C235.83 82.8411 234.951 83.2208 234.173 83.7644C234.327 83.5497 234.52 83.3668 234.743 83.2257C235.332 82.8149 235.996 82.5246 236.698 82.3715C237.738 82.1492 238.811 82.1231 239.861 82.2945C241.13 82.5301 242.373 82.8911 243.57 83.3719C244.747 83.8425 245.947 84.2535 247.165 84.6033C248.156 84.8663 249.179 84.9855 250.205 84.9573C251.163 84.8984 252.103 84.6718 252.983 84.2878Z" fill="#FAFAFA"/>
<path d="M201.949 113.379C201.298 113.032 200.627 112.723 199.94 112.455C198.027 111.814 195.995 111.603 193.991 111.84C191.033 112.236 188.168 113.147 185.525 114.533C182.447 115.973 179.237 117.897 175.474 119.151C173.646 119.763 171.736 120.092 169.809 120.128C168.013 120.099 166.233 119.792 164.53 119.22C163.004 118.704 161.506 118.108 160.043 117.435C158.665 116.827 157.388 116.234 156.195 115.772C154.344 114.97 152.382 114.451 150.377 114.233L149.43 114.179H148.73C148.538 114.197 148.344 114.197 148.152 114.179C148.342 114.136 148.535 114.111 148.73 114.102L149.422 114.041C149.699 114.041 150.023 114.041 150.384 114.041C152.417 114.194 154.412 114.67 156.295 115.449C157.503 115.903 158.789 116.48 160.143 117.073C161.602 117.73 163.095 118.311 164.615 118.812C166.282 119.362 168.023 119.655 169.779 119.682C171.664 119.643 173.533 119.316 175.32 118.712C179.022 117.512 182.246 115.634 185.325 114.179C188.016 112.787 190.936 111.893 193.945 111.54C195.986 111.324 198.049 111.588 199.971 112.309C200.678 112.568 201.345 112.929 201.949 113.379Z" fill="#FAFAFA"/>
<path d="M96.8418 93.7085C96.9507 93.6299 97.0734 93.5724 97.2035 93.5392C97.5893 93.4371 97.9968 93.4532 98.3733 93.5854C98.9756 93.7806 99.5096 94.1437 99.9126 94.632C100.393 95.2862 100.801 95.9907 101.129 96.7331C101.542 97.5915 102.12 98.3603 102.829 98.9957C103.667 99.6923 104.635 100.215 105.677 100.535C108.112 101.245 110.681 101.369 113.173 100.897C115.693 100.407 118.244 100.101 120.808 99.9808C122.939 99.9335 125.038 100.514 126.842 101.651C128.071 102.403 129.032 103.523 129.589 104.852C129.794 105.34 129.903 105.863 129.912 106.392C129.781 105.899 129.625 105.413 129.443 104.937C128.853 103.672 127.892 102.617 126.688 101.912C124.917 100.843 122.875 100.308 120.808 100.373C118.264 100.513 115.734 100.829 113.235 101.32C110.674 101.804 108.034 101.664 105.538 100.912C104.453 100.557 103.45 99.9866 102.591 99.2343C101.856 98.5641 101.265 97.7527 100.852 96.8485C100.546 96.1153 100.164 95.4162 99.7125 94.7629C99.3537 94.2939 98.8713 93.9341 98.3195 93.7239C97.8432 93.5499 97.3216 93.5445 96.8418 93.7085Z" fill="#FAFAFA"/>
<path d="M113.535 70.1966C112.738 69.563 111.826 69.0899 110.849 68.8036C109.787 68.5292 108.682 68.4561 107.593 68.5881C106.265 68.7785 104.969 69.1542 103.745 69.704C102.421 70.2735 101.198 70.9277 100.066 71.4818C99.0678 71.9914 98.0398 72.4411 96.9878 72.8286C96.272 73.08 95.5355 73.268 94.7867 73.3905C94.5141 73.4509 94.2338 73.4691 93.9556 73.4443C94.9488 73.2045 95.9278 72.9091 96.8878 72.5593C97.9191 72.1411 98.9286 71.671 99.9124 71.1509C101.028 70.5814 102.26 69.9195 103.607 69.3346C104.875 68.7677 106.222 68.3942 107.601 68.2264C108.736 68.1015 109.885 68.2062 110.98 68.5342C111.715 68.7569 112.402 69.1173 113.004 69.5963C113.214 69.7639 113.394 69.9671 113.535 70.1966Z" fill="#FAFAFA"/>
<g opacity="0.3">
<path d="M169.264 137.806C179.138 132.08 190.574 125.361 196.277 115.487C199.925 109.161 201.742 101.588 202.434 94.323L203.92 116.911L173.574 141.223L169.264 137.806Z" fill="black"/>
</g>
<g opacity="0.2">
<path d="M143.65 63.085C141.465 71.6306 136.736 79.3114 130.09 85.1111C128.508 86.6021 126.652 87.7729 124.625 88.5589C123.612 88.945 122.527 89.1083 121.445 89.038C120.363 88.9676 119.308 88.6651 118.353 88.151L118.499 87.6277L133.892 72.3972L143.65 63.085Z" fill="black"/>
</g>
<path d="M120.454 99.7343C120.392 99.7343 120.638 99.0339 120.846 97.9103C121.106 96.4426 121.119 94.9417 120.885 93.4697C120.639 91.9986 120.145 90.5802 119.422 89.2753C118.861 88.2749 118.407 87.7361 118.46 87.6746C118.949 88.0817 119.358 88.5746 119.669 89.1291C120.482 90.4327 121.028 91.8844 121.277 93.4004C121.533 94.9192 121.48 96.4738 121.123 97.9719C121.009 98.5951 120.782 99.1923 120.454 99.7343Z" fill="#263238"/>
<path d="M116.043 95.8888C117.745 93.6541 118.522 90.851 118.215 88.0593C118.408 88.4336 118.513 88.8469 118.522 89.268C118.731 91.311 118.165 93.3581 116.937 95.0035C116.459 95.604 116.082 95.8888 116.043 95.8888Z" fill="#263238"/>
<path d="M144.682 79.9551C144.789 79.9551 145.451 86.1119 146.09 93.6541C146.729 101.196 147.214 107.384 147.098 107.392C146.983 107.399 146.329 101.235 145.69 93.6925C145.051 86.1504 144.566 79.9628 144.682 79.9551Z" fill="#263238"/>
<path d="M185.764 56.3748C185.838 56.5055 185.895 56.6451 185.933 56.7903C186.074 57.1919 186.185 57.6035 186.264 58.0217C186.561 59.5776 186.537 61.1775 186.195 62.724C185.692 65.0362 184.526 67.1516 182.839 68.8116C180.696 70.7857 177.906 71.9101 174.993 71.9739C172.08 72.0377 169.244 71.0364 167.016 69.1579C165.261 67.5723 164.004 65.5108 163.399 63.2242C162.991 61.6942 162.894 60.0978 163.114 58.5297C163.179 58.1078 163.274 57.6911 163.399 57.2829C163.43 57.1364 163.479 56.9943 163.545 56.8596C163.591 56.8596 163.399 57.4599 163.268 58.5527C163.11 60.1034 163.245 61.6701 163.668 63.1704C164.293 65.3843 165.537 67.3736 167.255 68.9039C169.423 70.7029 172.167 71.6591 174.983 71.5969C177.8 71.5347 180.499 70.4582 182.585 68.5653C183.963 67.2222 185.002 65.5702 185.615 63.7462C186.228 61.9221 186.398 59.9783 186.11 58.0756C185.941 56.9673 185.718 56.3901 185.764 56.3748Z" fill="#263238"/>
<path d="M230.479 102.736C230.234 101.139 230.19 99.5179 230.348 97.9102C230.376 96.2928 230.603 94.6849 231.026 93.1233C231.141 93.1233 230.895 95.2859 230.748 97.9333C230.602 100.581 230.595 102.736 230.479 102.736Z" fill="#263238"/>
<path d="M233.565 104.136C233.281 103.654 233.061 103.136 232.911 102.597C232.474 101.299 232.116 99.9754 231.841 98.6337C231.563 97.2921 231.365 95.9352 231.248 94.5702C231.171 94.0059 231.171 93.4337 231.248 92.8694C231.364 92.8694 231.595 95.4399 232.249 98.5568C232.903 101.674 233.68 104.098 233.565 104.136Z" fill="#263238"/>
<path d="M202.449 104.583C202.334 104.583 202.08 100.25 201.88 94.8936C201.68 89.5371 201.61 85.2042 201.718 85.1965C201.826 85.1888 202.08 89.5294 202.28 94.8782C202.48 100.227 202.557 104.575 202.449 104.583Z" fill="#263238"/>
<path d="M174.85 70.766C172.071 70.7116 169.417 69.5994 167.429 67.6561C165.442 65.7127 164.27 63.0845 164.153 60.3071C163.976 56.0896 163.829 52.2185 163.829 52.2185C163.829 52.2185 155.002 51.2796 154.471 42.5292C153.94 33.7787 154.471 13.5843 154.471 13.5843C159.348 11.2011 164.773 10.1635 170.185 10.5789C175.597 10.9942 180.8 12.8475 185.256 15.947L186.603 16.8859L185.956 59.9838C185.939 61.4222 185.638 62.8431 185.07 64.1646C184.502 65.4862 183.678 66.6824 182.646 67.6845C181.613 68.6865 180.393 69.4746 179.056 70.0035C177.718 70.5323 176.289 70.7915 174.85 70.766Z" fill="#CCCCCC"/>
<path d="M163.822 52.0958C167.869 51.9725 171.788 50.6492 175.081 48.2939C175.081 48.2939 172.688 54.7278 163.906 54.3661L163.822 52.0958Z" fill="#CCCCCC"/>
<path d="M185.971 26.0058C186.117 25.9365 191.905 23.9355 192.005 29.9385C192.105 35.9414 186.064 34.7947 186.048 34.6254C186.033 34.4561 185.971 26.0058 185.971 26.0058Z" fill="#CCCCCC"/>
<path d="M187.842 32.3266C187.842 32.3266 187.95 32.3959 188.127 32.4729C188.374 32.5707 188.649 32.5707 188.896 32.4729C189.528 32.2342 190.044 31.218 190.051 30.1633C190.06 29.6506 189.952 29.1426 189.736 28.6775C189.676 28.4979 189.576 28.3347 189.442 28.201C189.309 28.0673 189.145 27.9668 188.966 27.9076C188.845 27.8789 188.719 27.8932 188.608 27.9481C188.496 28.0029 188.408 28.0948 188.358 28.2079C188.281 28.3772 188.358 28.4927 188.288 28.5081C188.219 28.5235 188.157 28.408 188.204 28.154C188.232 28.0063 188.311 27.8731 188.427 27.7768C188.507 27.7126 188.6 27.6652 188.699 27.6374C188.798 27.6096 188.902 27.602 189.004 27.6151C189.252 27.6608 189.484 27.7689 189.678 27.9292C189.872 28.0896 190.021 28.2968 190.113 28.5312C190.379 29.0447 190.514 29.6159 190.506 30.1941C190.506 31.4028 189.882 32.5422 189.02 32.8116C188.86 32.8603 188.691 32.8724 188.526 32.8471C188.36 32.8218 188.203 32.7597 188.065 32.6654C187.857 32.4652 187.826 32.3343 187.842 32.3266Z" fill="#CCCCCC"/>
<path d="M158.689 26.8302C158.684 27.1571 158.809 27.4725 159.035 27.7087C159.261 27.9448 159.571 28.0827 159.897 28.0928C160.056 28.1053 160.215 28.0861 160.366 28.036C160.518 27.986 160.657 27.9063 160.777 27.8016C160.897 27.6969 160.994 27.5692 161.064 27.4262C161.134 27.2832 161.174 27.1277 161.183 26.9688C161.187 26.6425 161.064 26.3273 160.84 26.0901C160.616 25.853 160.308 25.7125 159.982 25.6985C159.822 25.686 159.662 25.7055 159.51 25.7559C159.358 25.8063 159.217 25.8865 159.097 25.992C158.976 26.0974 158.878 26.2259 158.808 26.3698C158.738 26.5138 158.697 26.6703 158.689 26.8302Z" fill="#263238"/>
<path d="M157.149 25.5756C157.303 25.7449 158.25 25.0367 159.598 25.0444C160.945 25.0521 161.907 25.7219 162.084 25.5525C162.261 25.3831 162 25.1906 161.568 24.875C160.986 24.4693 160.292 24.2542 159.582 24.2591C158.88 24.2579 158.196 24.4788 157.627 24.8904C157.219 25.206 157.08 25.5063 157.149 25.5756Z" fill="#263238"/>
<path d="M171.618 26.984C171.614 27.3109 171.738 27.6263 171.964 27.8625C172.191 28.0986 172.5 28.2365 172.827 28.2466C172.986 28.2602 173.147 28.2418 173.299 28.1922C173.45 28.1427 173.591 28.0632 173.712 27.9584C173.832 27.8535 173.931 27.7255 174.001 27.582C174.071 27.4384 174.112 27.2822 174.12 27.1226C174.125 26.795 174.001 26.4787 173.775 26.2413C173.549 26.004 173.239 25.8644 172.912 25.8523C172.752 25.8398 172.591 25.8593 172.44 25.9097C172.288 25.9601 172.147 26.0403 172.027 26.1458C171.906 26.2512 171.808 26.3797 171.738 26.5237C171.668 26.6676 171.627 26.8241 171.618 26.984Z" fill="#263238"/>
<path d="M170.403 25.8523C170.557 26.014 171.511 25.3135 172.858 25.3135C174.206 25.3135 175.168 25.9909 175.337 25.8293C175.507 25.6676 175.253 25.4597 174.822 25.1518C174.241 24.7428 173.546 24.5273 172.835 24.5359C172.133 24.5362 171.449 24.757 170.88 25.1672C170.472 25.4597 170.326 25.7523 170.403 25.8523Z" fill="#263238"/>
<path d="M165.515 35.857C164.803 35.6334 164.066 35.4989 163.322 35.4568C162.975 35.4568 162.652 35.3567 162.598 35.1181C162.567 34.7647 162.645 34.4102 162.821 34.1023C163.152 33.2711 163.491 32.3937 163.845 31.4779C165.253 27.7453 166.277 24.6823 166.154 24.6284C166.031 24.5745 164.73 27.5452 163.322 31.2778C162.983 32.2013 162.652 33.0787 162.344 33.9175C162.127 34.3313 162.065 34.8086 162.167 35.2644C162.216 35.3859 162.293 35.4947 162.39 35.5827C162.487 35.6707 162.603 35.7355 162.729 35.7723C162.92 35.821 163.117 35.8468 163.314 35.8493C164.044 35.9444 164.784 35.947 165.515 35.857Z" fill="#263238"/>
<path d="M169.464 36.7574C169.249 36.7574 169.241 38.2048 167.986 39.2441C166.731 40.2834 165.176 40.1217 165.168 40.3296C165.168 40.422 165.515 40.6144 166.177 40.6298C167.035 40.6413 167.869 40.3496 168.533 39.8061C169.168 39.2841 169.576 38.5364 169.672 37.7198C169.741 37.1116 169.58 36.7497 169.464 36.7574Z" fill="#263238"/>
<path d="M170.056 20.5502C170.187 20.9121 171.534 20.7427 173.135 20.9352C174.737 21.1276 175.991 21.5511 176.215 21.2277C176.315 21.066 176.092 20.7196 175.576 20.3655C174.886 19.932 174.108 19.6604 173.298 19.5711C172.489 19.4818 171.67 19.577 170.903 19.8497C170.287 20.0883 170.002 20.3732 170.056 20.5502Z" fill="#263238"/>
<path d="M157.65 21.6733C157.888 21.9813 158.82 21.6733 159.959 21.6733C161.099 21.6733 162.023 21.8812 162.269 21.5579C162.361 21.4039 162.215 21.0959 161.799 20.788C161.247 20.4343 160.599 20.2595 159.944 20.2876C159.289 20.2974 158.653 20.5128 158.127 20.9035C157.673 21.2345 157.55 21.5271 157.65 21.6733Z" fill="#263238"/>
<path d="M150.015 7.79746C149.955 7.25302 150.033 6.70221 150.243 6.19627C150.453 5.69033 150.787 5.2457 151.215 4.90374C151.657 4.58417 152.198 4.43127 152.742 4.47212C153.285 4.51297 153.797 4.74493 154.186 5.12693C154.105 4.76031 154.102 4.38075 154.176 4.01276C154.251 3.64477 154.402 3.29652 154.619 2.99048C154.837 2.68445 155.116 2.42743 155.439 2.23601C155.762 2.0446 156.122 1.92304 156.495 1.87919C157.926 1.78684 159.15 2.87198 160.528 3.24909C161.907 3.5302 163.34 3.36021 164.614 2.76424C165.915 2.24091 167.131 1.51748 168.463 1.04032C171.238 0.0251871 174.303 0.146979 176.989 1.37921C179.676 2.61144 181.767 4.85445 182.808 7.62045C183.787 7.38032 184.816 7.44305 185.759 7.80034C186.702 8.15763 187.514 8.79265 188.088 9.62143C189.206 11.3179 189.654 13.37 189.342 15.3781C189.152 16.722 188.814 18.0409 188.334 19.3108C188.334 19.4262 188.334 19.5339 188.334 19.6494C188.242 24.4671 187.695 30.1314 185.64 30.1622C182.054 30.2161 182.908 23.4589 182.908 23.4589C178.506 21.7658 180.145 15.1703 179.06 14.1698C177.975 13.1693 175.658 10.8451 166.446 15.5551C162.867 17.3791 158.111 17.3252 155.51 16.7326C155.435 16.7217 155.36 16.7062 155.287 16.6864H155.233H155.156C154.321 16.4773 153.524 16.1398 152.793 15.6859C151.929 15.1892 151.246 14.4286 150.846 13.5156C150.654 13.0597 150.6 12.5578 150.688 12.0713C150.777 11.5848 151.006 11.1347 151.346 10.7758C150.618 9.93609 150.155 8.89984 150.015 7.79746Z" fill="#263238"/>
</svg>
