<svg width="1077" height="983" viewBox="0 0 1077 983" fill="none" xmlns="http://www.w3.org/2000/svg">
<mask id="mask0_203_7963" style="mask-type:alpha" maskUnits="userSpaceOnUse" x="0" y="0" width="1077" height="983">
<path d="M0 10C0 4.47718 4.47715 0 10 0H1067C1072.52 0 1077 4.47715 1077 10V973C1077 978.523 1072.52 983 1067 983H9.99998C4.47713 983 0 978.523 0 973V10Z" fill="#D9D9D9"/>
</mask>
<g mask="url(#mask0_203_7963)">
<path d="M316.012 -12.6091H44.7236V436.444H316.012V-12.6091Z" fill="#E0E0E0"/>
<path d="M306.988 -12.6091H35.7002V436.444H306.988V-12.6091Z" fill="#EBEBEB"/>
<path d="M295.432 -3.51489H47.2578V427.326H295.432V-3.51489Z" fill="white"/>
<path d="M247.118 52.4719H94.5049V371.339H247.118V52.4719Z" fill="#EBEBEB"/>
<path d="M94.5054 258.443C94.1502 228.649 120.936 199.567 150.421 195.399C164.489 193.433 179.433 196.227 192.577 190.828C216.023 181.212 223.507 150.046 247.047 140.786L248.137 371.268H94.5054V258.443Z" fill="#E0E0E0"/>
<path d="M1025.46 -33V214.108H670.546L657.757 -31.2711L1025.46 -33Z" fill="#E0E0E0"/>
<path d="M657.78 -31.2713V213.587L1012.69 213.587V-31.2713L657.78 -31.2713Z" fill="white"/>
<path d="M1014.35 215.268H656.075V-32.8579H1014.35V215.268ZM659.462 211.906H1010.99V-29.6607H659.462V211.906Z" fill="#E0E0E0"/>
<path d="M974.232 -0.838623H696.194V183.178H974.232V-0.838623Z" fill="white"/>
<path d="M974.233 -0.838558H972.859H968.904H953.652L896.339 -0.625411L696.195 -0.222805L697 -1.02803C697 55.1953 697 117.387 697 182.965L696.124 182.089L974.162 182.254L973.475 182.965C973.617 126.955 973.735 81.1282 973.83 49.0614C973.83 33.0991 973.972 20.6419 974.019 12.045C974.019 7.8294 974.019 4.58484 974.019 2.31127C974.019 0.108756 974.019 -1.05171 974.019 -1.05171C974.019 -1.05171 974.019 0.0140295 974.019 2.16918C974.019 4.32433 974.019 7.59258 974.019 11.6424C974.019 20.1682 974.019 32.6018 974.185 48.5167C974.185 80.5835 974.398 126.671 974.564 182.846V183.533H973.854L695.816 183.723H694.939V182.846C694.939 117.363 694.939 55.0769 694.939 -1.14644V-1.95166H695.721L896.41 -1.54905L953.51 -1.3359H968.62H972.48C973.076 -1.21328 973.661 -1.04705 974.233 -0.838558Z" fill="#E0E0E0"/>
<path d="M1012.39 213.634L972.812 181.544L1012.39 213.634Z" fill="white"/>
<path d="M972.811 181.544C973.119 181.189 982.285 188.057 993.155 196.914C1004.03 205.772 1012.69 213.255 1012.39 213.634C1012.08 214.013 1002.91 207.122 992.066 198.264C981.219 189.407 972.527 181.923 972.811 181.544Z" fill="#E0E0E0"/>
<path d="M657.757 213.587C657.473 213.208 665.738 206.174 676.254 197.861C686.769 189.549 695.508 183.13 695.816 183.509C696.124 183.888 687.834 190.922 677.343 199.235C666.851 207.548 658.065 213.966 657.757 213.587Z" fill="#E0E0E0"/>
<path d="M752.654 56.4741V118.097L927.6 118.097V56.4741L752.654 56.4741Z" fill="#E0E0E0"/>
<path d="M487.169 787.946C487.169 777.218 495.387 769.45 506.447 769.45C509.111 769.353 511.764 769.841 514.219 770.88C516.674 771.92 518.872 773.485 520.657 775.465L516.37 779.467C515.164 778.116 513.681 777.04 512.021 776.313C510.362 775.585 508.566 775.223 506.755 775.252C505.046 775.178 503.341 775.451 501.74 776.054C500.14 776.656 498.679 777.577 497.444 778.76C496.209 779.942 495.226 781.363 494.554 782.935C493.883 784.508 493.537 786.2 493.537 787.91C493.537 789.62 493.883 791.313 494.554 792.885C495.226 794.458 496.209 795.879 497.444 797.061C498.679 798.244 500.14 799.165 501.74 799.767C503.341 800.37 505.046 800.643 506.755 800.569C508.573 800.6 510.376 800.232 512.037 799.491C513.699 798.751 515.177 797.656 516.37 796.282L520.704 800.403C518.917 802.381 516.719 803.944 514.265 804.983C511.81 806.023 509.158 806.512 506.494 806.419C495.316 806.466 487.169 798.698 487.169 787.946Z" fill="#EBEBEB"/>
<path d="M450.626 816.153H406.007V771.534H450.626V816.153ZM408.375 813.784H448.257V773.902H408.375V813.784Z" fill="#EBEBEB"/>
<path d="M397.505 825.436C396.178 824.442 406.836 808.432 423.248 791.451C439.66 774.471 455.244 763.197 456.404 764.476C457.565 765.755 443.923 778.97 427.795 795.738C411.667 812.505 398.878 826.526 397.505 825.436Z" fill="#E0E0E0"/>
<path d="M457.02 824.465C455.576 825.507 443.403 810.706 427.322 793.535C411.241 776.365 397.316 763.198 398.429 761.824C399.542 760.45 415.457 771.771 431.822 789.32C448.187 806.869 458.37 823.613 457.02 824.465Z" fill="#E0E0E0"/>
<path d="M151.912 642.414L130.006 640.851L124.961 650.703L116.554 650.111L139.408 607.648L147.413 608.216L163.991 653.474L155.465 652.882L151.912 642.414ZM149.686 635.83L142.794 616.055L133.321 634.646L149.686 635.83Z" fill="#EBEBEB"/>
<path d="M80.3668 652.503L26.5117 648.69L30.3484 594.74L84.1797 598.577L80.3668 652.503ZM29.0458 646.488L78.1643 649.993L81.6457 600.851L32.5272 597.369L29.0458 646.488Z" fill="#EBEBEB"/>
<path d="M15.0725 659.49C13.841 658.424 28.4061 640.07 49.8391 620.839C71.2722 601.609 91.0238 588.986 91.9711 590.312C92.9184 591.638 75.0852 606.369 54.0784 625.41C33.0716 644.451 16.3751 660.674 15.0725 659.49Z" fill="#E0E0E0"/>
<path d="M87.6608 663.563C86.1451 664.511 72.8353 645.209 54.6705 622.876C36.5056 600.543 20.4723 583.468 21.6564 582.165C22.8406 580.862 41.0291 596.233 59.5492 618.992C78.0693 641.751 89.0581 662.734 87.6608 663.563Z" fill="#E0E0E0"/>
<path d="M1060.51 408.142C1062.57 415.389 1058.14 421.239 1047.2 424.318L1026.17 430.262L1014.33 387.964L1034.15 382.352C1044.29 379.486 1050.94 382.352 1052.84 388.935C1053.44 390.823 1053.5 392.843 1053.01 394.763C1052.51 396.683 1051.49 398.423 1050.04 399.782C1052.47 399.794 1054.83 400.626 1056.73 402.143C1058.63 403.66 1059.96 405.774 1060.51 408.142ZM1023.8 391.896L1027.12 403.571L1038.22 400.422C1043.67 398.882 1046.21 396.064 1045.12 392.204C1044.03 388.343 1040.38 387.207 1034.93 388.746L1023.8 391.896ZM1052.39 409.587C1051.18 405.371 1047.44 404.4 1041.52 406.082L1028.85 409.682L1032.28 421.878L1044.97 418.279C1050.89 416.597 1053.57 413.826 1052.39 409.587Z" fill="#EBEBEB"/>
<path d="M935.014 461.24L920.307 409.303L972.243 394.596L986.95 446.532L935.014 461.24ZM923.172 410.937L936.577 458.303L983.943 444.875L970.514 397.509L923.172 410.937Z" fill="#EBEBEB"/>
<path d="M927.933 475.307C926.393 474.692 933.853 452.501 947.471 427.113C961.089 401.724 975.393 383.157 976.72 384.104C978.046 385.052 966.299 404.922 953.037 430.026C939.774 455.129 929.543 475.97 927.933 475.307Z" fill="#E0E0E0"/>
<path d="M997.584 454.443C996.471 455.84 977.406 442.223 952.729 427.397C928.051 412.571 907.163 401.938 907.873 400.304C908.584 398.67 930.893 406.959 955.902 422.116C980.911 437.273 998.626 453.188 997.584 454.443Z" fill="#E0E0E0"/>
<path d="M1054.83 921.565C1054.83 921.897 822.377 922.181 535.742 922.181C249.107 922.181 16.5879 921.779 16.5879 921.565C16.5879 921.352 248.989 920.95 535.742 920.95C822.495 920.95 1054.83 921.092 1054.83 921.565Z" fill="black"/>
<path d="M749.671 83.7332H141.469V700.722H749.671V83.7332Z" fill="white"/>
<path d="M749.671 700.722C749.671 700.722 749.671 700.438 749.671 699.964C749.671 699.49 749.671 698.732 749.671 697.785C749.671 695.867 749.671 693.048 749.671 689.259C749.671 681.728 749.671 670.621 749.553 656.103C749.553 627.115 749.387 584.628 749.268 530.583C749.15 422.66 748.96 268.531 748.724 83.7332L749.789 84.799L141.658 84.9648L142.89 83.7332C142.89 309.834 142.89 521.631 142.724 700.698L141.658 699.656L582.303 700.177L705.952 700.461L738.587 700.58H746.995H749.126H749.86H747.113H738.824L706.378 700.698L582.99 700.982L141.658 701.503H140.593V700.438C140.593 521.371 140.593 309.669 140.427 83.4727V82.2412H141.729L749.86 82.407H750.95V83.4727C750.713 268.555 750.523 422.897 750.405 531.081C750.263 585.03 750.168 627.423 750.121 656.364C750.121 670.763 750.121 681.823 749.979 689.307C749.979 693.001 749.979 695.819 749.979 697.714V699.822C749.912 700.133 749.809 700.435 749.671 700.722Z" fill="#263238"/>
<path d="M189.214 184.362V200.727H186.159V186.92H182.701V184.362H189.214Z" fill="black"/>
<path d="M192.363 198.951C192.363 198.699 192.413 198.45 192.509 198.217C192.606 197.984 192.747 197.773 192.925 197.595C193.103 197.416 193.315 197.275 193.547 197.179C193.78 197.082 194.03 197.033 194.282 197.033C194.534 197.033 194.783 197.082 195.016 197.179C195.248 197.275 195.46 197.416 195.638 197.595C195.816 197.773 195.957 197.984 196.054 198.217C196.15 198.45 196.2 198.699 196.2 198.951C196.2 199.203 196.15 199.452 196.054 199.685C195.957 199.918 195.816 200.129 195.638 200.307C195.46 200.486 195.248 200.627 195.016 200.723C194.783 200.82 194.534 200.869 194.282 200.869C194.03 200.869 193.78 200.82 193.547 200.723C193.315 200.627 193.103 200.486 192.925 200.307C192.747 200.129 192.606 199.918 192.509 199.685C192.413 199.452 192.363 199.203 192.363 198.951Z" fill="black"/>
<path d="M393.148 118.216C393.067 116.458 393.515 114.717 394.433 113.216C395.351 111.715 396.697 110.524 398.298 109.795C399.899 109.066 401.682 108.833 403.417 109.126C405.151 109.419 406.758 110.225 408.031 111.439C409.304 112.654 410.184 114.222 410.558 115.941C410.931 117.66 410.782 119.451 410.129 121.085C409.475 122.718 408.348 124.119 406.892 125.106C405.436 126.093 403.717 126.621 401.958 126.623C400.82 126.681 399.681 126.506 398.613 126.109C397.544 125.713 396.568 125.102 395.744 124.315C394.919 123.528 394.264 122.582 393.817 121.533C393.371 120.484 393.143 119.355 393.148 118.216ZM407.713 118.216C407.713 117.077 407.375 115.965 406.743 115.018C406.111 114.072 405.212 113.334 404.16 112.899C403.109 112.463 401.952 112.349 400.835 112.571C399.719 112.793 398.693 113.341 397.889 114.146C397.084 114.951 396.536 115.977 396.314 117.093C396.091 118.209 396.205 119.366 396.641 120.418C397.077 121.47 397.814 122.368 398.761 123.001C399.707 123.633 400.82 123.971 401.958 123.971C402.718 123.99 403.474 123.855 404.18 123.572C404.886 123.29 405.526 122.866 406.063 122.327C406.599 121.789 407.02 121.146 407.3 120.439C407.58 119.732 407.712 118.976 407.689 118.216H407.713Z" fill="black"/>
<path d="M428.53 110.045V126.41H426.043L417.02 115.326V126.41H413.988V110.045H416.499L425.522 121.081V110.045H428.53Z" fill="black"/>
<path d="M432.935 110.045H435.966V123.828H444.539V126.41H432.935V110.045Z" fill="black"/>
<path d="M446.932 110.045H449.963V126.41H446.932V110.045Z" fill="black"/>
<path d="M468.933 110.045V126.41H466.422L457.423 115.326V126.41H454.415V110.045H456.925L465.925 121.081V110.045H468.933Z" fill="black"/>
<path d="M485.606 123.852V126.41H473.314V110.045H485.156V112.579H476.37V116.842H484.28V119.329H476.37V123.852H485.606Z" fill="black"/>
<path d="M498.75 112.603H493.326V110.045H507.157V112.603H501.734V126.41H498.679L498.75 112.603Z" fill="black"/>
<path d="M521.793 123.852V126.41H509.525V110.045H521.367V112.579H512.462V116.842H520.349V119.329H512.462V123.852H521.793Z" fill="black"/>
<path d="M523.735 124.681L524.801 122.313C526.363 123.474 528.255 124.104 530.201 124.113C532.759 124.113 533.824 123.189 533.824 121.981C533.824 118.452 524.091 120.773 524.091 114.687C524.091 112.034 526.198 109.808 530.698 109.808C532.613 109.773 534.5 110.273 536.145 111.253L535.174 113.621C533.816 112.796 532.263 112.347 530.674 112.319C528.14 112.319 527.122 113.313 527.122 114.545C527.122 118.026 536.808 115.753 536.808 121.768C536.808 124.397 534.677 126.505 530.201 126.505C527.905 126.61 525.638 125.97 523.735 124.681Z" fill="black"/>
<path d="M542.966 112.603H537.543V110.045H551.421V112.603H545.998V126.41H542.966V112.603Z" fill="black"/>
<path d="M264.999 256.264H256.805L255.195 260.053H252.068L259.434 243.688H262.418L269.807 260.053H266.633L264.999 256.264ZM263.981 253.895L260.902 246.79L257.847 253.895H263.981Z" fill="black"/>
<path d="M182.511 126.386C186.187 126.386 189.166 123.407 189.166 119.731C189.166 116.056 186.187 113.076 182.511 113.076C178.836 113.076 175.856 116.056 175.856 119.731C175.856 123.407 178.836 126.386 182.511 126.386Z" fill="black"/>
<path d="M202.666 126.386C206.341 126.386 209.321 123.407 209.321 119.731C209.321 116.056 206.341 113.076 202.666 113.076C198.99 113.076 196.011 116.056 196.011 119.731C196.011 123.407 198.99 126.386 202.666 126.386Z" fill="black"/>
<path d="M222.82 126.386C226.495 126.386 229.475 123.407 229.475 119.731C229.475 116.056 226.495 113.076 222.82 113.076C219.145 113.076 216.165 116.056 216.165 119.731C216.165 123.407 219.145 126.386 222.82 126.386Z" fill="black"/>
<path d="M749.671 152.651C749.671 152.982 614.205 153.267 447.121 153.267C280.038 153.267 144.548 152.982 144.548 152.651C144.548 152.319 279.991 152.035 447.121 152.035C614.252 152.035 749.671 152.319 749.671 152.651Z" fill="black"/>
<path d="M683.169 198.406C683.169 198.738 577.709 199.022 447.642 199.022C317.575 199.022 212.067 198.738 212.067 198.406C212.067 198.075 317.528 197.791 447.642 197.791C577.756 197.791 683.169 198.051 683.169 198.406Z" fill="black"/>
<path d="M393.858 214.416C393.858 214.747 353.597 215.032 303.863 215.032C254.129 215.032 213.726 214.747 213.726 214.416C213.726 214.084 253.987 213.8 303.863 213.8C353.739 213.8 393.858 214.061 393.858 214.416Z" fill="black"/>
<path d="M239.54 262.634H217.965V241.059H239.54V262.634ZM220.333 260.266H237.172V243.427H220.333V260.266Z" fill="black"/>
<path d="M268.812 296.572C268.812 299.367 266.609 301.001 262.394 301.001H254.271V284.636H261.92C265.851 284.636 267.959 286.294 267.959 288.899C267.984 289.637 267.799 290.367 267.426 291.004C267.053 291.641 266.507 292.159 265.851 292.499C266.732 292.744 267.504 293.28 268.042 294.019C268.579 294.759 268.851 295.659 268.812 296.572ZM257.302 287.099V291.599H261.612C263.696 291.599 264.904 290.865 264.904 289.373C264.904 287.881 263.696 287.004 261.612 287.004L257.302 287.099ZM265.733 296.335C265.733 294.701 264.502 293.967 262.204 293.967H257.302V298.704H262.204C264.502 298.704 265.733 297.898 265.733 296.335Z" fill="black"/>
<path d="M239.54 303.606H217.965V282.125H239.54V303.606ZM220.333 301.238H237.172V284.494H220.333V301.238Z" fill="black"/>
<path d="M253.087 333.778C253.172 332.048 253.762 330.381 254.785 328.983C255.807 327.585 257.217 326.517 258.841 325.912C260.464 325.307 262.229 325.192 263.917 325.58C265.605 325.967 267.142 326.842 268.339 328.094L266.373 329.941C265.822 329.328 265.146 328.839 264.39 328.508C263.634 328.177 262.817 328.012 261.992 328.023C260.465 328.023 259.002 328.63 257.922 329.709C256.843 330.788 256.237 332.252 256.237 333.778C256.237 335.304 256.843 336.768 257.922 337.848C259.002 338.927 260.465 339.533 261.992 339.533C262.819 339.545 263.639 339.377 264.395 339.042C265.151 338.707 265.826 338.212 266.373 337.591L268.339 339.462C267.142 340.715 265.605 341.589 263.917 341.977C262.229 342.364 260.464 342.249 258.841 341.644C257.217 341.039 255.807 339.971 254.785 338.573C253.762 337.175 253.172 335.508 253.087 333.778Z" fill="black"/>
<path d="M239.54 344.554H217.965V322.979H239.54V344.554ZM220.333 342.186H237.172V325.347H220.333V342.186Z" fill="black"/>
<path d="M254.271 366.555H261.375C266.68 366.555 270.304 369.823 270.304 374.726C270.304 379.628 266.68 382.92 261.375 382.92H254.271V366.555ZM261.375 380.339C262.142 380.389 262.91 380.281 263.633 380.022C264.355 379.763 265.017 379.358 265.578 378.833C266.138 378.308 266.585 377.674 266.89 376.97C267.195 376.265 267.353 375.505 267.353 374.738C267.353 373.97 267.195 373.21 266.89 372.506C266.585 371.801 266.138 371.167 265.578 370.642C265.017 370.117 264.355 369.712 263.633 369.454C262.91 369.195 262.142 369.087 261.375 369.137H257.302V380.339H261.375Z" fill="black"/>
<path d="M239.54 385.525H217.965V363.95H239.54V385.525ZM220.333 383.157H237.172V366.318H220.333V383.157Z" fill="black"/>
<path d="M447.618 251.859C447.618 252.19 412.094 252.474 368.138 252.474C324.183 252.474 288.635 252.19 288.635 251.859C288.635 251.527 324.159 251.243 368.138 251.243C412.118 251.243 447.618 251.503 447.618 251.859Z" fill="black"/>
<path d="M666.449 292.806C666.449 293.162 581.854 293.422 477.554 293.422C373.254 293.422 288.635 293.162 288.635 292.806C288.635 292.451 373.207 292.191 477.554 292.191C581.901 292.191 666.449 292.475 666.449 292.806Z" fill="black"/>
<path d="M340.619 374.726C340.619 375.057 328.991 375.341 314.568 375.341C300.145 375.341 288.517 375.057 288.517 374.726C288.517 374.394 300.145 374.11 314.568 374.11C328.991 374.11 340.619 374.489 340.619 374.726Z" fill="black"/>
<path d="M477.53 333.778C477.53 334.11 435.256 334.394 383.082 334.394C330.909 334.394 288.635 334.11 288.635 333.778C288.635 333.447 330.909 333.162 383.082 333.162C435.256 333.162 477.53 333.423 477.53 333.778Z" fill="black"/>
<path d="M189.805 433.033V435.591H177.727V433.554L184.24 427.397C185.827 425.881 186.111 424.91 186.111 424.01C186.111 422.494 185.069 421.642 183.056 421.642C182.331 421.605 181.607 421.74 180.944 422.036C180.282 422.332 179.698 422.782 179.243 423.347L177.111 421.713C177.862 420.807 178.814 420.089 179.891 419.616C180.969 419.143 182.141 418.929 183.316 418.989C186.869 418.989 189.166 420.789 189.166 423.726C189.14 424.736 188.884 425.726 188.416 426.621C187.948 427.516 187.281 428.292 186.466 428.889L182.085 433.057L189.805 433.033Z" fill="black"/>
<path d="M191.582 433.815C191.582 433.306 191.784 432.818 192.144 432.458C192.504 432.099 192.992 431.896 193.5 431.896C194.009 431.896 194.497 432.099 194.857 432.458C195.217 432.818 195.419 433.306 195.419 433.815C195.419 434.324 195.217 434.811 194.857 435.171C194.497 435.531 194.009 435.733 193.5 435.733C192.992 435.733 192.504 435.531 192.144 435.171C191.784 434.811 191.582 434.324 191.582 433.815Z" fill="black"/>
<path d="M259.268 491.127H251.097L249.487 494.917H246.337L253.702 478.552H256.71L264.099 494.917H260.855L259.268 491.127ZM258.273 488.759L255.194 481.654L252.116 488.759H258.273Z" fill="black"/>
<path d="M677.438 433.27C677.438 433.602 571.978 433.886 441.911 433.886C311.844 433.886 206.384 433.696 206.384 433.27C206.384 432.844 311.82 432.654 441.935 432.654C572.049 432.654 677.438 432.939 677.438 433.27Z" fill="black"/>
<path d="M388.151 449.28C388.151 449.611 347.89 449.896 298.013 449.896C248.137 449.896 207.876 449.611 207.876 449.28C207.876 448.948 248.137 448.664 298.013 448.664C347.89 448.664 388.151 448.925 388.151 449.28Z" fill="black"/>
<path d="M233.714 497.64H212.139V476.065H233.714V497.64ZM214.507 495.272H231.346V478.433H214.507V495.272Z" fill="black"/>
<path d="M263.08 531.436C263.08 534.231 260.878 535.865 256.686 535.865H248.539V519.5H256.118C260.049 519.5 262.157 521.158 262.157 523.763C262.176 524.5 261.988 525.227 261.616 525.863C261.244 526.499 260.701 527.019 260.049 527.363C260.945 527.59 261.736 528.119 262.288 528.861C262.84 529.603 263.12 530.512 263.08 531.436ZM251.594 521.963V526.486H255.881C257.989 526.486 259.173 525.729 259.173 524.237C259.173 522.745 257.989 521.868 255.881 521.868L251.594 521.963ZM260.025 531.199C260.025 529.565 258.794 528.831 256.497 528.831H251.594V533.568H256.497C258.794 533.497 260.025 532.762 260.025 531.128V531.199Z" fill="black"/>
<path d="M233.714 538.47H212.139V516.895H233.714V538.47ZM214.507 536.102H231.346V519.263H214.507V536.102Z" fill="black"/>
<path d="M247.379 568.689C247.368 567.552 247.59 566.424 248.031 565.375C248.472 564.327 249.123 563.38 249.944 562.592C250.765 561.804 251.738 561.193 252.804 560.796C253.87 560.399 255.006 560.224 256.142 560.282C257.354 560.232 258.561 560.451 259.679 560.921C260.797 561.392 261.797 562.104 262.607 563.005L260.665 564.853C260.112 564.241 259.436 563.754 258.681 563.423C257.925 563.093 257.109 562.926 256.284 562.934C254.758 562.934 253.294 563.541 252.215 564.62C251.135 565.699 250.529 567.163 250.529 568.689C250.529 570.216 251.135 571.679 252.215 572.759C253.294 573.838 254.758 574.444 256.284 574.444C257.111 574.454 257.93 574.286 258.687 573.951C259.443 573.616 260.118 573.122 260.665 572.502L262.607 574.373C261.414 575.629 259.878 576.506 258.19 576.895C256.503 577.285 254.738 577.17 253.115 576.564C251.492 575.958 250.083 574.889 249.063 573.489C248.044 572.089 247.458 570.42 247.379 568.689Z" fill="black"/>
<path d="M233.714 579.418H212.139V557.843H233.714V579.418ZM214.507 577.05H231.346V560.211H214.507V577.05Z" fill="black"/>
<path d="M248.539 601.419H255.644C260.949 601.419 264.572 604.687 264.572 609.613C264.572 614.54 260.949 617.784 255.644 617.784H248.539V601.419ZM255.644 615.226C256.424 615.298 257.211 615.206 257.954 614.957C258.697 614.707 259.38 614.306 259.959 613.778C260.538 613.249 261 612.606 261.317 611.889C261.633 611.172 261.797 610.397 261.797 609.613C261.797 608.83 261.633 608.055 261.317 607.338C261 606.621 260.538 605.978 259.959 605.449C259.38 604.921 258.697 604.52 257.954 604.27C257.211 604.021 256.424 603.929 255.644 604.001H251.689V615.226H255.644Z" fill="black"/>
<path d="M233.714 620.389H212.139V598.814H233.714V620.389ZM214.507 618.021H231.346V601.182H214.507V618.021Z" fill="black"/>
<path d="M441.911 486.723C441.911 487.054 406.386 487.338 362.407 487.338C318.428 487.338 282.903 487.054 282.903 486.723C282.903 486.391 318.428 486.107 362.407 486.107C406.386 486.107 441.911 486.391 441.911 486.723Z" fill="black"/>
<path d="M660.718 527.67C660.718 528.026 576.146 528.286 471.822 528.286C367.499 528.286 282.903 528.026 282.903 527.67C282.903 527.315 367.475 527.055 471.822 527.055C576.169 527.055 660.718 527.339 660.718 527.67Z" fill="black"/>
<path d="M334.911 609.59C334.911 609.945 323.259 610.205 308.86 610.205C294.461 610.205 282.809 609.945 282.809 609.59C282.809 609.234 294.461 608.974 308.86 608.974C323.259 608.974 334.911 609.258 334.911 609.59Z" fill="black"/>
<path d="M471.822 568.689C471.822 569.021 429.525 569.305 377.375 569.305C325.225 569.305 282.903 569.021 282.903 568.689C282.903 568.358 325.201 568.073 377.375 568.073C429.548 568.073 471.822 568.287 471.822 568.689Z" fill="black"/>
<path d="M624.767 665.79H527.264C523.334 665.79 519.443 665.015 515.812 663.511C512.181 662.006 508.883 659.8 506.105 657.02C503.327 654.24 501.124 650.94 499.623 647.308C498.121 643.677 497.349 639.784 497.353 635.854C497.353 627.921 500.504 620.313 506.113 614.704C511.723 609.094 519.331 605.943 527.264 605.943H624.767C632.7 605.943 640.308 609.094 645.918 614.704C651.527 620.313 654.678 627.921 654.678 635.854C654.682 639.784 653.91 643.677 652.408 647.308C650.907 650.94 648.704 654.24 645.926 657.02C643.148 659.8 639.85 662.006 636.219 663.511C632.588 665.015 628.697 665.79 624.767 665.79Z" fill="#E30613"/>
<path d="M551.611 628.749V645.019H548.508L540.314 635.143V645.019H536.596V628.749H539.698L547.774 638.625V628.749H551.611Z" fill="white"/>
<path d="M568.047 642.106V645.138H555.447V628.868H567.739V631.899H559.26V635.428H566.815V638.341H559.26V642.106H568.047Z" fill="white"/>
<path d="M581.12 645.019L577.188 639.383L573.328 645.019H569.018L575.033 636.754L569.325 628.749H573.588L577.33 634.03L581.001 628.749H585.075L579.391 636.612L585.477 645.019H581.12Z" fill="white"/>
<path d="M590.048 631.828H584.838V628.749H599.048V631.828H593.837V645.019H590.048V631.828Z" fill="white"/>
<path d="M619.627 643.788C619.43 643.786 619.236 643.735 619.062 643.64C618.889 643.545 618.741 643.409 618.633 643.243C618.461 642.982 618.4 642.664 618.462 642.358C618.524 642.052 618.705 641.783 618.964 641.609L626.519 636.565C626.639 636.49 626.737 636.385 626.804 636.26C626.87 636.136 626.903 635.995 626.898 635.854C626.898 635.711 626.861 635.57 626.79 635.446C626.72 635.321 626.618 635.217 626.496 635.144L619.012 630.715C618.747 630.552 618.558 630.292 618.483 629.99C618.409 629.689 618.456 629.37 618.615 629.103C618.773 628.836 619.03 628.642 619.33 628.562C619.63 628.483 619.95 628.525 620.219 628.678L627.703 633.083C628.171 633.364 628.56 633.759 628.835 634.23C629.109 634.701 629.261 635.234 629.275 635.78C629.289 636.325 629.165 636.865 628.916 637.35C628.666 637.835 628.298 638.249 627.845 638.554L620.291 643.575C620.095 643.709 619.865 643.784 619.627 643.788Z" fill="white"/>
<path d="M215.289 303.227C214.578 302.516 219.149 296.762 225.52 290.367C231.89 283.973 237.645 279.426 238.379 280.136C239.114 280.847 234.519 286.625 228.148 292.996C221.778 299.367 216.023 303.961 215.289 303.227Z" fill="#0099FF"/>
<path d="M242.311 305.477C241.601 306.211 235.467 301.238 228.623 294.393C221.778 287.549 216.781 281.439 217.539 280.704C218.297 279.97 224.407 284.944 231.228 291.788C238.048 298.632 243.045 304.766 242.311 305.477Z" fill="#0099FF"/>
<path d="M210.102 498.682C209.368 497.948 213.963 492.193 220.333 485.823C226.704 479.452 232.459 474.881 233.193 475.592C233.928 476.302 229.333 482.057 222.939 488.451C216.544 494.846 210.813 499.393 210.102 498.682Z" fill="#0099FF"/>
<path d="M237.172 500.933C236.437 501.643 230.327 496.693 223.483 489.849C216.638 483.005 211.641 476.871 212.399 476.16C213.157 475.45 219.244 480.399 226.088 487.244C232.932 494.088 237.835 500.198 237.172 500.933Z" fill="#0099FF"/>
<path d="M903.714 668.522L899.655 670.63C897.411 723.426 895.166 776.212 892.922 828.988C891.695 858.092 890.562 887.763 901.386 916.3L1075.6 962.71C1082.54 950.891 1086.73 937.665 1087.87 924.009C1093.47 865.559 1095.23 806.806 1093.16 748.126C1092.65 729.751 1094.29 687.148 1077.43 675.759C1048.89 656.597 1022.49 663.173 993.638 656.691C964.786 650.21 935.147 665.784 905.539 665.47" fill="#263238"/>
<path d="M819.863 854.725L768.514 773.422C766.374 773.422 617.046 803.376 617.046 803.376C617.046 803.376 513.026 812.375 510.478 814.074C507.929 815.773 476.245 874.422 476.245 874.422C497.2 877.851 505.758 850.887 505.758 850.887L526.745 838.899L552.419 842.045C545.088 845.38 538.89 848.716 537.002 851.044C531.433 857.872 528.444 871.149 531.873 871.59C535.303 872.03 541.533 862.151 557.674 860.011C573.815 857.872 614.749 849.313 614.749 849.313L629.443 851.044L819.863 854.725Z" fill="#B78876"/>
<path d="M578.063 831.41C573.319 833.759 568.457 835.86 563.495 837.703C558.751 840.074 553.877 842.175 548.896 843.996C553.141 840.742 557.85 838.144 562.866 836.287C567.651 833.892 572.777 832.247 578.063 831.41Z" fill="#A36957"/>
<path d="M691.301 360.395C696.335 418.132 700.74 479.612 673.461 530.773C679.548 529.512 684.933 525.993 688.532 520.924C686.298 540.086 684.064 559.499 687.211 578.503C690.357 597.508 699.796 616.26 715.937 626.675C716.158 624.283 716.409 621.892 716.629 619.532C722.922 660.247 758.728 694.542 799.694 699.01C817.377 700.961 837.703 696.399 847.079 681.296C854.221 669.78 853.372 655.212 852.176 641.746L830.151 378.739C828.106 354.26 825.589 328.554 811.588 308.417C803.65 296.926 792.467 288.062 779.466 282.959C766.466 277.855 752.239 276.744 738.604 279.767C724.969 282.79 712.545 289.81 702.92 299.929C693.295 310.048 686.905 322.808 684.568 336.577" fill="#263238"/>
<path d="M809.071 529.451C809.071 529.451 766.5 554.118 753.506 574.57C740.511 595.022 745.357 652.38 745.357 652.38C740.04 672.401 737.042 692.967 736.421 713.672C736.421 746.804 762.064 771.094 768.608 788.871C775.153 806.648 770.654 887.856 770.654 887.856L1012.93 893.772V726.824L1045.15 729.75C1045.15 729.75 1055.62 566.767 1006.92 546.158C958.21 525.549 899.624 505.098 899.624 505.098L809.071 529.451Z" fill="#0099FF"/>
<path d="M1046.4 681.926C1045.87 682.897 1045.22 683.805 1044.48 684.631C1042.41 687.056 1039.9 689.073 1037.09 690.578C1032.64 692.968 1027.72 694.384 1022.68 694.731C1015.99 695.134 1009.3 694.148 1003.01 691.837C995.473 689.029 988.197 685.554 981.273 681.454C973.44 676.741 965.168 672.8 956.574 669.686C946.974 666.635 936.719 666.287 926.935 668.679C916.467 671.538 906.291 675.372 896.541 680.132C886.689 684.953 876.38 688.779 865.769 691.554C855.69 693.94 845.143 693.428 835.343 690.075C826.713 686.746 818.499 682.428 810.864 677.206C804.267 672.701 797.394 668.614 790.287 664.967C784.369 662.024 777.978 660.15 771.409 659.429C766.491 658.905 761.519 659.3 756.746 660.593C752.67 661.766 748.857 663.71 745.514 666.319C746.276 665.511 747.119 664.783 748.031 664.148C750.625 662.303 753.506 660.9 756.558 659.995C761.398 658.547 766.472 658.045 771.503 658.516C778.147 659.187 784.622 661.018 790.633 663.928C797.842 667.473 804.811 671.488 811.494 675.947C819.081 681.042 827.218 685.264 835.752 688.533C842.837 690.904 850.338 691.772 857.777 691.082C860.326 690.798 862.874 690.358 865.423 689.855C875.923 687.077 886.125 683.273 895.88 678.496C905.728 673.702 916.011 669.856 926.589 667.012C936.637 664.554 947.17 664.935 957.014 668.113C965.698 671.286 974.045 675.312 981.934 680.132C988.77 684.238 995.95 687.744 1003.39 690.61C1009.52 692.947 1016.06 694.018 1022.62 693.756C1027.6 693.565 1032.49 692.332 1036.96 690.138C1039.75 688.728 1042.27 686.831 1044.39 684.537C1045.77 682.838 1046.4 681.863 1046.4 681.926Z" fill="#FAFAFA"/>
<path d="M1038.66 621.2C1038.49 621.412 1038.29 621.602 1038.07 621.766C1037.66 622.081 1037.09 622.616 1036.21 623.213C1033.69 624.915 1030.92 626.2 1028 627.021C1020.41 629.349 1008.33 628.971 995.275 623.434C988.762 620.696 982.029 616.921 974.729 613.145C967.129 608.876 958.914 605.809 950.376 604.052C940.868 602.539 931.163 602.784 921.744 604.776C911.578 606.867 901.602 609.793 891.916 613.522C881.879 617.204 872.125 620.979 862.372 623.811C853.03 626.713 843.33 628.302 833.551 628.531C816.948 628.303 800.638 624.118 785.977 616.323C776.051 611.259 766.577 605.353 757.66 598.671C754.513 596.28 752.122 594.424 750.517 593.102L748.724 591.624C748.315 591.278 748.095 591.089 748.126 591.057C748.157 591.026 748.378 591.057 748.818 591.498L750.706 592.851L758.037 598.137C767.013 604.584 776.482 610.318 786.355 615.285C800.899 622.827 817.011 626.847 833.393 627.021C843.005 626.732 852.532 625.134 861.711 622.269C871.339 619.469 881.093 615.662 891.13 611.981C900.897 608.231 910.958 605.295 921.209 603.202C930.82 601.194 940.719 600.98 950.408 602.573C959.092 604.415 967.435 607.6 975.138 612.012C982.438 615.851 989.108 619.658 995.527 622.427C1008.3 628.027 1020.13 628.562 1027.59 626.486C1031.58 625.447 1035.34 623.652 1038.66 621.2Z" fill="#FAFAFA"/>
<path d="M929.987 778.96C929.443 779.297 928.875 779.591 928.288 779.841C927.186 780.345 925.519 781.1 923.348 782.012C917.244 784.64 910.929 786.745 904.469 788.305C894.787 790.904 884.553 790.587 875.051 787.393C864.353 783.68 854.473 776.066 843.838 769.112C833.969 762.342 822.734 757.821 810.927 755.866C805.773 755.097 800.562 754.781 795.352 754.922C790.819 755.078 786.306 755.593 781.854 756.463C775.384 757.724 769.095 759.785 763.133 762.599C758.886 764.55 756.683 765.934 756.589 765.745C757.049 765.308 757.568 764.938 758.131 764.644C759.652 763.665 761.228 762.772 762.85 761.97C768.802 758.871 775.155 756.616 781.729 755.268C786.246 754.307 790.834 753.707 795.447 753.474C800.705 753.307 805.969 753.591 811.179 754.324C823.231 756.223 834.709 760.78 844.782 767.665C855.48 774.713 865.202 782.233 875.585 785.914C884.825 789.064 894.779 789.479 904.249 787.109C910.675 785.603 916.984 783.637 923.127 781.226L928.162 779.338C928.749 779.125 929.363 778.998 929.987 778.96Z" fill="#FAFAFA"/>
<path d="M929.451 838.584C929.451 838.741 927.217 838.144 923.159 837.546C917.424 836.764 911.62 836.617 905.853 837.105C897.336 837.906 888.911 839.486 880.682 841.825C871.243 844.374 861.175 847.803 850.288 850.792C840.062 853.792 829.48 855.411 818.824 855.606C810.075 855.611 801.412 853.879 793.338 850.509C787.91 848.224 782.974 844.912 778.802 840.755C777.67 839.613 776.618 838.394 775.656 837.105C775.306 836.675 775.001 836.212 774.743 835.721C774.9 835.721 776.222 837.483 779.18 840.283C783.43 844.207 788.369 847.311 793.747 849.439C801.708 852.586 810.201 854.167 818.761 854.096C829.271 853.808 839.699 852.159 849.785 849.188C860.608 846.261 870.771 842.895 880.242 840.378C888.606 838.078 897.172 836.592 905.822 835.941C911.671 835.562 917.545 835.889 923.316 836.917C924.878 837.205 926.422 837.583 927.941 838.049C928.469 838.148 928.979 838.329 929.451 838.584Z" fill="#FAFAFA"/>
<path d="M929.137 764.612C928.697 764.612 928.319 741.801 928.319 713.672C928.319 685.543 928.697 662.732 929.137 662.732C929.578 662.732 929.987 685.543 929.987 713.672C929.987 741.801 929.609 764.612 929.137 764.612Z" fill="#263238"/>
<path d="M906.263 795.447C905.848 795.589 905.411 795.653 904.973 795.636C904.092 795.636 902.833 795.825 901.166 795.793C896.506 795.824 891.856 795.37 887.29 794.44C872.001 791.568 857.964 784.067 847.08 772.952C836.195 761.837 828.99 747.645 826.439 732.299C825.608 727.712 825.25 723.052 825.369 718.392C825.369 716.725 825.558 715.466 825.621 714.616C825.62 714.167 825.694 713.72 825.841 713.295C825.908 719.624 826.487 725.937 827.572 732.173C830.396 747.159 837.596 760.972 848.264 771.869C858.932 782.766 872.588 790.259 887.51 793.402C893.696 794.585 899.967 795.269 906.263 795.447Z" fill="#263238"/>
<g opacity="0.3">
<path d="M778.363 872.817C813.571 851.862 860.767 855.417 892.451 829.459C907.396 817.22 917.087 799.6 922.908 781.194C928.729 762.787 930.9 743.437 933.071 724.338L939.112 831.064C939.521 838.332 939.678 846.418 934.927 851.988C930.931 856.676 924.45 858.28 918.44 859.602L841.227 876.781C820.335 881.406 798.027 885.969 778.048 878.291" fill="black"/>
</g>
<g opacity="0.2">
<path d="M879.078 607.576C872.439 615.756 865.706 624.126 862.087 634.037C858.469 643.948 858.5 655.779 864.825 664.211C871.715 673.398 884.678 676.419 895.942 674.185C907.207 671.951 917.086 665.281 926.022 658.107C930.49 654.52 935.461 650.587 941.093 650.713C944.439 651.188 947.742 651.924 950.973 652.915C960.255 654.552 969.442 648.51 974.728 640.739C980.014 632.967 982.374 623.654 985.363 614.718C988.352 605.782 992.442 596.752 999.994 591.12C1007.01 585.897 1016.8 583.789 1021.14 576.206C1026.61 566.767 1019.47 553.993 1009.43 549.556C999.396 545.12 987.912 546.63 977.088 548.172" fill="black"/>
</g>
<g opacity="0.2">
<path d="M895.817 794.22C896.415 795.132 895.66 797.02 893.142 799.223C889.441 802.19 885.025 804.132 880.337 804.855C873.329 806.036 866.134 805.397 859.444 802.998C851.374 800.013 844.15 795.111 838.395 788.714C832.888 782.636 828.47 775.653 825.338 768.073C822.89 762.227 821.056 756.143 819.863 749.919C818.006 739.378 818.384 732.739 820.492 732.11C822.6 731.481 826.344 737.144 830.875 746.237C835.406 755.33 841.101 767.601 850.414 777.701C854.593 782.366 859.582 786.236 865.14 789.123C869.7 791.382 874.619 792.83 879.676 793.402C888.517 794.314 894.495 792.206 895.817 794.22Z" fill="black"/>
</g>
<path d="M1045.27 729.751C1045.27 730.191 1019.19 728.209 987.126 725.283C955.064 722.357 929.106 719.651 929.138 719.179C929.169 718.707 955.221 720.72 987.283 723.647C1019.34 726.573 1045.3 729.279 1045.27 729.751Z" fill="#263238"/>
<path d="M852.962 273.932C867.278 286.517 878.354 296.397 893.519 305.962C908.685 315.527 924.385 326.949 930.018 344.002C934.108 356.367 932.598 371.061 940.81 381.192C947.826 389.845 959.688 392.394 969.536 397.617C978.152 402.36 985.342 409.323 990.36 417.782C995.378 426.242 998.042 435.889 998.074 445.725C998.074 458.311 993.701 471.651 999.616 482.695C1004.78 492.323 1016.32 497.043 1022.05 506.356C1027.78 515.669 1026.71 526.493 1024.91 536.75C1022.18 552.482 1016.35 569.41 1002.32 576.961C997.435 579.318 992.104 580.613 986.681 580.759C981.257 580.905 975.864 579.901 970.858 577.811C960.878 573.579 951.92 567.26 944.585 559.278C929.978 544.396 918.583 526.673 911.108 507.206C902.172 483.985 899.12 458.971 894.809 434.461C886.877 389.507 874.601 345.429 858.154 302.847C854.127 292.464 846.953 283.277 853.025 273.932" fill="#263238"/>
<path d="M971.487 470.928C971.487 470.928 972.337 470.361 973.973 469.323C976.345 467.81 978.634 466.171 980.832 464.415C984.289 461.667 987.386 458.496 990.051 454.976C993.577 450.305 995.861 444.817 996.69 439.023C997.549 431.994 995.766 424.896 991.687 419.107C989.442 415.924 986.345 413.437 982.751 411.933C978.811 410.587 974.676 409.896 970.512 409.888C965.913 409.9 961.387 408.741 957.36 406.521C953.322 403.793 950.414 399.688 949.179 394.974C947.821 390.234 947.383 385.279 947.889 380.375C948.361 375.435 949.337 370.558 950.029 365.618C950.799 360.803 950.799 355.897 950.029 351.082C949.068 346.47 947.138 342.116 944.365 338.307C938.917 331.121 931.886 325.286 923.82 321.254C916.237 317.132 908.591 313.923 901.795 310.273C886.153 302.134 871.667 291.944 858.721 279.973C856.015 277.488 854.001 275.442 852.68 274.058L851.169 272.453C850.823 272.076 850.666 271.887 850.697 271.855L851.264 272.327L852.9 273.838C854.316 275.159 856.392 276.984 859.193 279.501C866.944 286.4 875.2 292.711 883.892 298.38C889.88 302.3 896.077 305.892 902.456 309.14C909.283 312.696 916.929 315.842 924.638 319.995C932.92 324.121 940.152 330.082 945.781 337.426C948.691 341.423 950.718 345.991 951.728 350.83C952.546 355.82 952.546 360.911 951.728 365.901C951.067 370.904 950.06 375.749 949.62 380.563C949.124 385.264 949.53 390.016 950.816 394.565C951.928 398.922 954.591 402.725 958.304 405.263C962.115 407.344 966.39 408.427 970.732 408.409C975.021 408.461 979.273 409.215 983.318 410.643C987.123 412.265 990.394 414.925 992.757 418.32C996.973 424.417 998.777 431.861 997.823 439.212C996.88 445.176 994.445 450.804 990.743 455.573C988.027 459.122 984.853 462.296 981.304 465.013C979.068 466.754 976.701 468.322 974.225 469.701C973.375 470.204 972.714 470.519 972.274 470.739C972.026 470.852 971.759 470.916 971.487 470.928Z" fill="#263238"/>
<path d="M671.069 448.966L725.754 415.897C726.831 415.249 728.121 415.053 729.342 415.354C730.563 415.655 731.614 416.427 732.267 417.502C732.915 418.579 733.111 419.869 732.81 421.09C732.509 422.311 731.737 423.363 730.662 424.015L675.978 457.084L671.069 448.966Z" fill="#0099FF"/>
<g opacity="0.4">
<path d="M730.663 424.015L725.755 415.897C726.832 415.249 728.122 415.053 729.343 415.354C730.564 415.655 731.616 416.427 732.268 417.502C732.917 418.579 733.112 419.869 732.811 421.09C732.511 422.311 731.738 423.363 730.663 424.015Z" fill="black"/>
</g>
<g opacity="0.4">
<path d="M674.461 454.411L729.091 421.378L727.723 419.117L673.093 452.15L674.461 454.411Z" fill="black"/>
</g>
<path d="M675.979 457.084L662.04 459.978L671.07 448.966L675.979 457.084Z" fill="#0099FF"/>
<g opacity="0.5">
<path d="M675.979 457.084L662.04 459.978L671.07 448.966L675.979 457.084Z" fill="white"/>
</g>
<path d="M666.571 459.035L664.998 456.392L662.04 459.978L666.571 459.035Z" fill="#263238"/>
<path d="M757.564 293.692C738.687 299.893 722.925 313.128 713.55 330.647C704.175 348.166 701.909 368.623 707.222 387.769C715.78 418.604 725.597 451.955 733.085 471.274C750.548 516.205 787.486 514.411 787.486 514.411C787.486 514.411 794.408 543.421 800.481 571.046C806.239 597.413 833.896 614.278 862.276 608.803C890.342 603.36 908.654 577.968 903.337 551.759L857.022 349.76C854.611 339.29 850.044 329.438 843.612 320.832C837.18 312.227 829.024 305.057 819.665 299.781C810.306 294.504 799.949 291.238 789.256 290.189C778.564 289.141 767.77 290.334 757.564 293.692Z" fill="#B78876"/>
<path d="M725.157 403.249C725.518 404.791 726.448 406.14 727.76 407.026C729.073 407.912 730.671 408.272 732.236 408.032C733.005 407.924 733.745 407.665 734.413 407.268C735.081 406.872 735.663 406.346 736.126 405.722C736.589 405.099 736.922 404.389 737.108 403.635C737.294 402.881 737.328 402.097 737.207 401.33C736.887 399.772 735.972 398.4 734.655 397.506C733.339 396.613 731.726 396.269 730.159 396.547C729.386 396.647 728.64 396.901 727.966 397.295C727.293 397.688 726.705 398.213 726.238 398.839C725.772 399.464 725.435 400.176 725.25 400.934C725.064 401.692 725.032 402.479 725.157 403.249Z" fill="#263238"/>
<path d="M721.066 395.981C721.978 396.61 725.785 392.299 732.204 390.915C738.623 389.53 744.034 391.733 744.538 390.915C744.821 390.506 743.751 389.279 741.391 388.209C738.195 386.886 734.669 386.579 731.291 387.328C727.951 388.057 724.923 389.818 722.639 392.362C721.003 394.156 720.625 395.729 721.066 395.981Z" fill="#263238"/>
<path d="M790.917 391.513C791.237 393.072 792.153 394.444 793.469 395.337C794.785 396.23 796.399 396.574 797.965 396.296C798.739 396.196 799.485 395.942 800.158 395.548C800.832 395.155 801.419 394.63 801.886 394.005C802.353 393.379 802.689 392.667 802.875 391.909C803.061 391.151 803.092 390.364 802.968 389.594C802.606 388.052 801.676 386.704 800.364 385.817C799.052 384.931 797.454 384.572 795.888 384.811C795.117 384.915 794.375 385.172 793.705 385.567C793.035 385.962 792.451 386.488 791.988 387.113C791.524 387.737 791.191 388.449 791.007 389.204C790.823 389.96 790.792 390.745 790.917 391.513Z" fill="#263238"/>
<path d="M788.588 383.835C789.5 384.465 793.307 380.123 799.726 378.77C806.145 377.417 811.556 379.588 812.06 378.77C812.343 378.361 811.273 377.102 808.913 376.064C805.72 374.727 802.19 374.419 798.814 375.183C795.471 375.889 792.44 377.641 790.161 380.186C788.399 382.011 788.147 383.584 788.588 383.835Z" fill="#263238"/>
<path d="M775.562 436.506C771.952 436.18 768.316 436.307 764.738 436.884C763.071 437.073 761.434 437.073 760.9 436.003C760.392 434.342 760.392 432.567 760.9 430.906C761.592 426.627 762.284 422.096 763.039 417.376C765.934 398.152 767.664 382.483 766.878 382.357C766.091 382.231 763.133 397.743 760.239 416.967C759.578 421.687 758.917 426.218 758.32 430.528C757.693 432.723 757.883 435.07 758.854 437.136C759.209 437.655 759.676 438.089 760.221 438.405C760.765 438.721 761.373 438.911 762.001 438.961C762.961 439.01 763.923 438.936 764.864 438.74C768.513 438.471 772.11 437.72 775.562 436.506Z" fill="#263238"/>
<path d="M787.55 513.467C809.541 509.062 829.877 498.638 846.293 483.356C846.293 483.356 838.081 518.596 790.57 524.26L787.55 513.467Z" fill="#A36957"/>
<path d="M804.54 360.458C804.068 361.78 798.971 361.15 792.867 361.496C786.763 361.843 781.728 362.912 781.162 361.496C780.596 360.081 785.441 356.808 792.615 356.462C799.789 356.116 805.012 359.231 804.54 360.458Z" fill="#263238"/>
<path d="M738.781 366.531C738.781 367.915 733.589 369.174 727.422 371.03C721.255 372.886 716.126 374.554 715.403 373.358C714.679 372.163 719.147 368.293 726.038 366.31C732.928 364.328 738.781 365.209 738.781 366.531Z" fill="#263238"/>
<path d="M978.912 534.674C978.912 534.674 953.741 506.923 955.661 475.081C957.58 443.24 947.763 422.599 929.954 415.3C917.369 410.171 912.492 397.302 910.573 386.573C907.573 368.554 902.286 350.992 894.841 334.312C883.765 310.399 869.009 285.763 848.463 270.282C821.75 250.146 779.809 236.679 754.071 257.949C742.083 267.828 735.035 269.401 724.338 286.266C724.338 286.266 711.469 290.766 704.83 293.786C681.987 304.169 673.618 333.997 676.041 353.568C681.641 398.592 708.92 404.287 719.587 433.014C719.587 433.014 706.781 370.495 707.788 353.284C709.006 340.573 714.666 328.697 723.771 319.744C741.895 316.597 751.491 325.061 761.906 340.258C772.32 355.455 779.116 367.884 796.201 374.869C812.279 381.413 826.595 395.949 848.368 380.532C855.319 388.326 859.837 397.984 861.363 408.315C862.905 424.047 847.519 432.699 858.815 456.832C870.11 480.965 891.222 497.326 893.425 506.923" fill="#263238"/>
<path d="M787.392 449.469C788.156 447.987 789.285 446.725 790.672 445.8C792.06 444.875 793.66 444.319 795.321 444.183C796.519 444.055 797.729 444.17 798.881 444.522C800.033 444.873 801.101 445.454 802.023 446.229C802.924 446.972 803.571 447.977 803.875 449.104C804.18 450.232 804.126 451.426 803.722 452.521C803.048 453.641 802.059 454.537 800.878 455.097C799.697 455.656 798.377 455.855 797.083 455.668C794.379 455.269 791.78 454.339 789.437 452.93C788.744 452.634 788.114 452.206 787.581 451.672C787.328 451.41 787.157 451.08 787.089 450.722C787.022 450.364 787.062 449.994 787.204 449.658" fill="#FF0000"/>
<path d="M799.034 437.607C798.153 437.607 799.286 443.523 795.164 448.651C791.042 453.78 784.687 454.346 784.812 455.164C784.938 455.982 786.417 456.014 789.06 455.573C792.472 454.95 795.551 453.132 797.744 450.445C799.857 447.871 800.884 444.575 800.607 441.257C800.356 438.803 799.412 437.481 799.034 437.607Z" fill="#263238"/>
<path d="M858.657 455.196C864.797 461.415 869.192 469.14 871.401 477.596C873.61 486.051 873.555 494.939 871.243 503.367C868.096 514.411 861.017 524.227 859.412 535.586C857.43 549.43 863.817 562.897 869.135 575.828C874.452 588.76 878.92 603.579 873.257 616.354C870.928 621.703 866.964 626.234 864.541 631.551C862.118 636.868 861.615 643.822 865.674 648.007C868.807 650.653 872.773 652.113 876.875 652.128C892.054 653.19 907.203 649.678 920.366 642.044C933.53 634.411 944.103 623.008 950.721 609.306L957.014 622.993C970.714 602.31 976.922 577.561 974.604 552.86C972.285 528.16 961.581 504.998 944.271 487.226" fill="#263238"/>
<path d="M840.062 390.034C839.37 386.888 845.694 379.179 848.746 378.361C855.794 376.536 868.065 376.693 873.666 396.044C881.689 423.7 853.12 422.914 852.837 422.127C852.553 421.341 842.485 400.921 840.062 390.034Z" fill="#B78876"/>
<path d="M856.487 409.699C856.487 409.699 857.054 409.919 857.997 410.045C859.284 410.201 860.582 409.851 861.616 409.07C864.227 407.15 865.329 401.802 864.039 396.799C863.456 394.408 862.337 392.181 860.766 390.286C860.261 389.493 859.57 388.835 858.753 388.369C857.936 387.903 857.018 387.643 856.078 387.611C855.487 387.637 854.923 387.863 854.477 388.252C854.031 388.641 853.73 389.169 853.624 389.751C853.467 390.663 853.813 391.135 853.624 391.23C853.435 391.324 852.9 390.947 852.774 389.751C852.73 389.02 852.941 388.297 853.372 387.706C853.962 386.907 854.845 386.375 855.826 386.227C857.03 386.12 858.241 386.324 859.343 386.82C860.445 387.316 861.401 388.087 862.119 389.059C863.984 391.104 865.314 393.58 865.989 396.264C867.437 401.896 865.989 407.937 862.434 410.265C861.752 410.695 860.983 410.966 860.182 411.059C859.382 411.152 858.57 411.063 857.809 410.8C856.739 410.36 856.393 409.793 856.487 409.699Z" fill="#A36957"/>
<path d="M988.887 469.135C988.541 469.135 988.887 467.813 988.887 465.579C988.99 462.342 988.389 459.122 987.125 456.14C985.132 451.506 982.005 447.448 978.032 444.341C972.477 440.35 966.315 437.28 959.783 435.248C951.33 432.697 943.152 429.313 935.367 425.148C930.805 422.499 926.824 418.957 923.662 414.733C920.53 410.263 918.1 405.34 916.457 400.134C914.695 395.068 913.311 389.94 911.328 385.157C909.632 380.481 906.863 376.267 903.242 372.855C895.911 366.342 884.364 364.926 872.942 365.807C861.521 366.688 849.533 369.583 837.294 368.607C831.226 368.134 825.302 366.522 819.831 363.856C814.759 361.34 810.041 358.166 805.798 354.417C798.427 347.522 791.639 340.029 785.504 332.015C780.374 325.357 774.576 319.242 768.199 313.766C763.792 309.784 758.593 306.778 752.943 304.945C747.293 303.112 741.319 302.494 735.414 303.131C732.185 303.57 729.057 304.56 726.163 306.057C724.118 307.064 723.017 307.693 722.859 307.473C722.702 307.253 723.394 306.214 725.251 304.673C728.016 302.438 731.238 300.838 734.69 299.984C740.202 298.65 745.942 298.564 751.492 299.733C758.856 301.301 765.764 304.529 771.691 309.172C778.638 314.611 784.968 320.794 790.57 327.61C796.701 335.12 803.39 342.156 810.581 348.659C818.08 355.561 827.646 359.797 837.797 360.71C848.369 361.496 859.822 358.822 872.187 357.752C878.492 357.176 884.846 357.483 891.066 358.665C897.488 359.829 903.484 362.685 908.434 366.94C912.945 371.218 916.383 376.5 918.471 382.357C920.547 387.769 921.9 392.992 923.474 397.806C924.798 402.354 926.792 406.681 929.389 410.643C931.918 414.187 935.127 417.192 938.828 419.484C946.127 423.662 953.794 427.158 961.734 429.931C968.69 432.467 975.153 436.193 980.832 440.943C985.142 444.764 988.319 449.694 990.02 455.196C991.103 458.653 991.233 462.338 990.397 465.862C989.768 468.191 989.076 469.229 988.887 469.135Z" fill="#455A64"/>
<path d="M824.047 261.001C821.141 258.229 818.821 254.901 817.226 251.214C815.632 247.528 814.795 243.559 814.766 239.542C814.789 235.524 815.811 231.575 817.739 228.049C819.666 224.523 822.44 221.531 825.809 219.342C830.506 216.62 835.967 215.515 841.353 216.196C845.915 216.679 850.293 218.263 854.108 220.812C857.923 223.362 861.061 226.8 863.252 230.831C865.444 234.862 866.623 239.366 866.688 243.953C866.754 248.541 865.703 253.076 863.627 257.168C861.551 261.26 858.512 264.786 854.771 267.443C851.03 270.1 846.7 271.808 842.153 272.421C837.605 273.033 832.977 272.531 828.667 270.958C824.357 269.385 820.493 266.789 817.409 263.392" fill="#263238"/>
<path d="M851.547 268.678C849.661 269.187 847.693 269.315 845.757 269.055C841.035 268.745 836.414 267.549 832.133 265.531C827.869 263.51 824.018 260.715 820.775 257.288C819.331 255.971 818.183 254.362 817.408 252.568C821.746 257.383 826.998 261.287 832.859 264.053C838.72 266.818 845.072 268.39 851.547 268.678Z" fill="#0099FF"/>
<path d="M705.303 416.086C705.263 414.405 705.337 412.724 705.523 411.052C705.444 406.481 704.799 401.936 703.604 397.523C701.634 390.999 699.195 384.627 696.304 378.456C692.691 370.84 689.814 362.896 687.714 354.732C686.735 350.421 686.354 345.995 686.582 341.58C686.849 337.454 687.84 333.407 689.508 329.624C692.29 323.216 696.679 317.634 702.251 313.42C706.015 310.552 710.284 308.417 714.836 307.127C716.049 306.765 717.291 306.513 718.549 306.372C719.43 306.246 719.871 306.246 719.871 306.372C719.871 306.561 718.109 306.781 715.025 307.819C709.672 309.652 704.766 312.595 700.629 316.456C696.492 320.316 693.217 325.007 691.018 330.221C689.456 333.863 688.541 337.75 688.312 341.706C688.112 345.933 688.493 350.168 689.445 354.291C691.527 362.358 694.35 370.216 697.877 377.763C700.726 384.014 703.062 390.485 704.862 397.114C705.989 401.638 706.476 406.298 706.31 410.958C706.152 412.594 705.901 413.884 705.775 414.734C705.649 415.583 705.366 416.118 705.303 416.086Z" fill="#455A64"/>
<path d="M734.344 640.833C733.699 640.513 733.078 640.145 732.488 639.732C730.74 638.641 729.068 637.432 727.485 636.114C721.707 631.208 716.83 625.33 713.075 618.746C707.538 608.928 703.888 598.16 702.314 586.999C700.583 573.407 700.752 559.64 702.817 546.095C704.8 531.622 707.757 518.092 710.085 505.727C712.281 494.814 713.847 483.783 714.774 472.69C715.348 465.223 715.348 457.723 714.774 450.256C714.333 444.939 713.798 442.044 713.987 442.013C714.2 442.702 714.358 443.407 714.459 444.121C714.774 445.474 715.057 447.519 715.403 450.193C716.229 457.695 716.397 465.254 715.906 472.784C715.118 483.938 713.658 495.033 711.533 506.01C709.267 518.407 706.373 531.937 704.422 546.316C702.36 559.752 702.138 573.407 703.761 586.904C705.229 597.935 708.717 608.601 714.05 618.368C717.661 624.928 722.34 630.84 727.894 635.862C731.764 639.134 734.439 640.645 734.344 640.833Z" fill="#455A64"/>
<path d="M874.642 634.257C874.642 634.257 874.642 634.037 875.208 633.691L877.002 632.181C878.607 630.859 880.935 629.034 883.861 626.328C892.175 619.082 899.648 610.923 906.138 602.007C915.872 588.855 921.844 573.301 923.411 557.013C924.294 547.44 923.136 537.788 920.013 528.696C916.867 519.256 910.417 510.887 905.131 501.542C902.391 496.938 900.345 491.955 899.058 486.754C897.967 481.671 897.554 476.466 897.831 471.274C898.24 461.111 900.065 451.546 900.254 442.359C900.549 433.663 899.574 424.972 897.359 416.558C895.422 409.225 892.148 402.313 887.7 396.17C881.235 387.22 871.984 380.669 861.396 377.543C857.487 376.537 853.475 375.988 849.439 375.907H850.226H852.586C855.609 375.981 858.616 376.382 861.553 377.102C872.416 380.063 881.961 386.604 888.643 395.666C893.223 401.898 896.624 408.914 898.68 416.369C901.012 424.904 902.072 433.735 901.827 442.579C901.827 452.018 899.876 461.457 899.499 471.526C899.225 476.57 899.627 481.628 900.694 486.565C901.951 491.622 903.944 496.467 906.609 500.944C911.801 510.132 918.345 518.596 921.586 528.35C924.76 537.648 925.919 547.516 924.984 557.296C923.338 573.839 917.153 589.606 907.113 602.856C900.504 611.776 892.857 619.877 884.333 626.989C881.187 629.506 878.953 631.362 877.285 632.59L875.366 633.974C875.133 634.089 874.891 634.183 874.642 634.257Z" fill="#455A64"/>
<path d="M875.082 413.884C875.082 413.884 876.089 414.387 877.505 415.772C879.57 417.739 881.042 420.246 881.753 423.009C882.196 425.114 882.142 427.293 881.596 429.374C881.05 431.455 880.026 433.38 878.606 434.996C876.942 437.051 874.786 438.652 872.339 439.653C869.892 440.654 867.232 441.022 864.605 440.723C861.988 440.319 859.523 439.234 857.458 437.578C855.393 435.921 853.799 433.75 852.837 431.284C852.016 429.116 851.809 426.765 852.239 424.487C852.617 422.522 853.422 420.663 854.599 419.044C856.242 416.684 858.621 414.936 861.364 414.073C862.363 413.678 863.449 413.559 864.51 413.727C864.51 413.884 863.44 413.978 861.678 414.671C859.203 415.7 857.097 417.455 855.637 419.705C854.541 421.302 853.851 423.143 853.626 425.067C853.402 426.991 853.649 428.942 854.347 430.749C855.241 432.941 856.683 434.867 858.534 436.344C860.385 437.82 862.583 438.797 864.919 439.181C867.275 439.434 869.656 439.101 871.852 438.212C874.047 437.322 875.989 435.904 877.505 434.084C878.809 432.645 879.77 430.929 880.315 429.065C880.86 427.201 880.975 425.238 880.651 423.323C880.065 420.701 878.832 418.268 877.064 416.244C876.347 415.506 875.685 414.718 875.082 413.884Z" fill="#0099FF"/>
<path d="M859.539 284.253C859.516 284.731 859.442 285.206 859.318 285.669C859.318 286.203 859.067 286.77 858.909 287.399L858.154 289.696C856.316 294.527 853.474 298.913 849.816 302.565C844.428 308.082 837.533 311.89 829.994 313.514C825.528 314.434 820.93 314.52 816.433 313.766C811.661 312.896 807.012 311.449 802.589 309.455C793.496 305.428 785.63 300.236 778.047 296.524C771.484 292.943 764.276 290.697 756.84 289.916C751.822 289.457 746.765 290.146 742.052 291.93C738.906 293.283 737.175 294.51 737.081 294.384C737.401 294.018 737.772 293.7 738.182 293.44C739.325 292.634 740.536 291.928 741.801 291.332C746.56 289.29 751.736 288.406 756.903 288.752C764.523 289.351 771.941 291.492 778.708 295.045C786.448 298.758 794.44 303.886 803.25 307.819C807.539 309.846 812.062 311.336 816.716 312.256C821.01 313.06 825.417 313.06 829.711 312.256C837.006 310.755 843.713 307.183 849.03 301.967C852.667 298.472 855.576 294.291 857.588 289.664L858.5 287.462L859.035 285.826C859.287 284.788 859.476 284.253 859.539 284.253Z" fill="#455A64"/>
<path d="M797.524 971.047L600.056 1066.48L238.063 967.775L415.772 870.677L797.524 971.047Z" fill="#263238"/>
<path d="M579.793 967.02L632.212 984.325L680.761 957.958L599.961 932.032L552.797 956.479L579.793 967.02Z" fill="#455A64"/>
<path d="M192 701.212C193.636 707.788 238.063 967.775 238.063 967.775L599.899 1066.48L552.419 788.399L192 701.212Z" fill="#263238"/>
<path d="M573.721 912.965C574.161 912.965 580.423 947.198 587.691 989.58C594.959 1031.96 600.497 1066.41 600.056 1066.48C599.616 1066.54 593.354 1032.28 586.086 989.863C578.818 947.45 573.28 913.028 573.721 912.965Z" fill="#455A64"/>
<path d="M384.489 891.32C394.277 887.53 398.64 875.236 394.234 863.86C389.829 852.485 378.324 846.336 368.536 850.126C358.749 853.917 354.386 866.211 358.791 877.586C363.197 888.962 374.702 895.111 384.489 891.32Z" fill="#455A64"/>
<path d="M753.506 932.567C753.506 932.567 965.478 950.721 1000.56 925.299C1035.64 899.876 1035.67 729.215 1035.67 729.215L930.648 719.524L929.138 838.144C921.901 844.185 739.127 874.453 723.395 873.257C723.395 873.257 627.587 883.483 622.364 883.483C617.141 883.483 582.468 922.97 582.468 924.795C582.587 926.177 582.986 927.519 583.641 928.742C584.295 929.964 585.191 931.041 586.275 931.906C585.079 933.411 584.468 935.297 584.555 937.217C584.642 939.137 585.42 940.961 586.747 942.352C586.747 942.352 585.331 949.022 590.554 950.438C595.777 951.854 596.249 954.245 602.416 950.438C608.583 946.631 638.977 922.97 638.977 922.97L661.788 921.051C661.788 921.051 606.223 952.861 610.974 960.003C615.725 967.146 626.706 959.059 638.977 952.389C651.248 945.719 671.762 933.888 675.538 932.913C679.314 931.937 753.506 932.567 753.506 932.567Z" fill="#B78876"/>
<path d="M653.105 902.676C653.105 902.991 648.7 902.96 641.903 904.722C633.086 907.19 624.792 911.241 617.424 916.678C610.097 922.211 603.216 928.313 596.847 934.927C594.278 937.769 591.524 940.439 588.604 942.919C589.13 942.025 589.753 941.192 590.46 940.433C591.75 938.923 593.606 936.752 595.998 934.14C602.175 927.176 609.037 920.852 616.481 915.262C623.995 909.688 632.556 905.686 641.652 903.494C644.412 902.874 647.225 902.516 650.053 902.425C651.077 902.342 652.108 902.427 653.105 902.676Z" fill="#A36957"/>
<path d="M641.179 894.905C641.179 895.219 637.372 895.156 631.519 896.761C623.917 898.945 616.804 902.565 610.564 907.427C604.328 912.363 598.527 917.827 593.228 923.757C591.088 926.285 588.775 928.661 586.306 930.868C588.081 928.053 590.113 925.409 592.378 922.97C597.486 916.761 603.246 911.118 609.558 906.137C615.946 901.12 623.34 897.536 631.236 895.628C633.621 895.074 636.057 894.769 638.504 894.716C639.4 894.618 640.306 894.682 641.179 894.905Z" fill="#A36957"/>
<path d="M962.458 874.17C962.174 874.17 961.482 871.37 959.594 867.09C954.591 855.87 945.866 846.723 934.895 841.196C930.71 839.119 927.879 838.27 927.973 838.049C930.558 838.323 933.073 839.058 935.399 840.22C941.133 842.759 946.31 846.407 950.629 850.953C954.949 855.5 958.327 860.856 960.57 866.713C961.641 869.065 962.281 871.591 962.458 874.17Z" fill="#AA6550"/>
<path d="M954.622 280.734C1001.19 278.571 1037.18 239.068 1035.02 192.502C1032.86 145.936 993.354 109.941 946.788 112.104C900.222 114.267 864.226 153.77 866.39 200.336C868.553 246.902 908.056 282.898 954.622 280.734Z" fill="white"/>
<path d="M903.752 293.967C904.532 293.747 905.323 293.566 906.12 293.422C908.4 293.14 910.711 293.579 912.728 294.678C914.116 295.4 915.329 296.419 916.28 297.662C917.336 299.107 917.953 300.825 918.057 302.611C918.279 304.666 917.866 306.739 916.875 308.552C915.883 310.364 914.36 311.83 912.51 312.751C910.66 313.672 908.573 314.004 906.529 313.703C904.484 313.402 902.581 312.482 901.076 311.066C899.719 309.907 898.718 308.388 898.187 306.685C897.749 305.145 897.66 303.527 897.926 301.948C898.275 299.676 899.317 297.567 900.91 295.909C902.047 294.749 902.876 294.346 902.829 294.275C902.618 294.339 902.418 294.435 902.236 294.559C901.996 294.683 901.767 294.825 901.55 294.986C901.252 295.206 900.967 295.443 900.697 295.696C899.236 297.093 898.176 298.855 897.626 300.8C897.076 302.745 897.057 304.801 897.571 306.756C898.096 308.598 899.15 310.244 900.602 311.493C902.185 312.899 904.129 313.834 906.215 314.192C908.461 314.666 910.802 314.367 912.856 313.344C914.911 312.321 916.56 310.634 917.536 308.556C918.499 306.671 918.925 304.557 918.767 302.446C918.639 300.532 917.956 298.697 916.801 297.164C915.792 295.845 914.485 294.783 912.988 294.062C910.861 292.963 908.433 292.588 906.073 292.996C905.71 293.049 905.354 293.137 905.007 293.257C904.738 293.325 904.476 293.421 904.226 293.541C903.942 293.801 903.728 293.967 903.752 293.967Z" fill="#263238"/>
<path d="M880.424 244.446L879.737 243.238L877.653 239.78C877.203 238.999 876.682 238.146 876.113 237.223C875.545 236.299 875.119 235.162 874.55 233.978C873.982 232.794 873.39 231.61 872.75 230.189C872.402 229.503 872.109 228.79 871.874 228.057C871.614 227.299 871.329 226.542 871.045 225.689C868.177 218.007 866.492 209.934 866.048 201.746C865.393 190.901 866.824 180.032 870.264 169.726L871.756 165.416C872.348 163.971 873.035 162.574 873.674 161.129C873.982 160.419 874.314 159.708 874.645 158.974C874.946 158.234 875.311 157.52 875.734 156.843L878.103 152.603C878.505 151.893 878.908 151.182 879.334 150.472L880.803 148.435L883.763 144.314C884.781 142.964 885.989 141.709 887.126 140.383L888.855 138.417C889.139 138.109 889.423 137.754 889.731 137.446L890.702 136.546C893.243 133.994 895.957 131.62 898.825 129.441C900.294 128.376 901.715 127.073 903.278 126.15L908.014 123.237C908.82 122.763 909.601 122.218 910.383 121.792L912.964 120.56C914.693 119.755 916.398 118.855 918.174 118.192C921.827 116.739 925.569 115.521 929.376 114.545L932.266 113.811L933.734 113.455L935.226 113.242L941.218 112.342C943.255 112.129 945.291 112.082 947.352 111.963C948.37 111.963 949.412 111.798 950.454 111.963L953.557 112.106C957.757 112.259 961.943 112.694 966.085 113.408L972.314 114.9L973.877 115.279C974.398 115.421 974.895 115.611 975.416 115.776L978.471 116.842L981.55 117.884L984.534 119.21L987.518 120.584L989.01 121.247C989.507 121.508 989.957 121.792 990.455 122.076L996.186 125.368L1001.63 129.252C1016.25 140.206 1026.89 155.631 1031.95 173.184C1032.52 175.339 1033.06 177.518 1033.61 179.649L1034.6 186.21L1034.84 187.844V189.478L1035 192.746L1035.17 196.014L1035.03 199.259L1034.88 202.503V204.114L1034.67 205.701C1034.36 207.832 1034.08 209.94 1033.79 212.048C1032.96 216.175 1031.84 220.242 1030.46 224.221L1029.46 227.157C1029.13 228.152 1028.63 229.052 1028.23 229.999C1027.35 231.87 1026.59 233.765 1025.65 235.565C1024.7 237.365 1023.63 239.094 1022.64 240.846L1021.88 242.149C1021.6 242.575 1021.29 242.978 1021.01 243.38L1019.28 245.748C1016.99 248.939 1014.5 251.977 1011.82 254.843C1010.47 256.24 1009.02 257.495 1007.65 258.821L1005.54 260.763C1004.85 261.403 1004.05 261.948 1003.31 262.516L998.862 265.926C997.346 266.992 995.712 267.892 994.126 268.863C991.089 270.756 987.923 272.433 984.652 273.884L983.468 274.452L982.237 274.926L979.868 275.802C978.211 276.371 976.624 277.057 974.99 277.531L970.064 278.786L967.695 279.402L965.327 279.781L960.591 280.515C959.808 280.652 959.016 280.732 958.222 280.752H955.854C954.291 280.752 952.728 280.965 951.117 280.989L946.547 280.799C935.695 280.265 925.049 277.644 915.19 273.079C914.101 272.581 913.011 272.131 911.969 271.634L909.033 269.929L906.191 268.318C905.717 268.034 905.243 267.797 904.817 267.513L903.562 266.613L898.825 263.203C897.333 262.066 896.054 260.835 894.752 259.745L892.905 258.135C892.311 257.642 891.749 257.112 891.223 256.548L888.026 253.706C887.15 252.759 886.297 251.906 885.658 251.077L883.834 248.709L881.466 245.512C880.921 244.801 880.613 244.446 880.613 244.446L881.418 245.559C881.963 246.317 882.768 247.383 883.787 248.804L885.563 251.172C886.273 252.024 887.126 252.877 887.931 253.824L890.773 256.927C891.293 257.505 891.855 258.043 892.455 258.537L894.302 260.171C895.581 261.261 896.86 262.54 898.352 263.653L903.088 267.111L904.343 268.01C904.793 268.318 905.267 268.555 905.717 268.839L908.559 270.473L911.519 272.202L914.74 273.671C924.641 278.305 935.346 280.975 946.262 281.533L950.857 281.747C952.396 281.747 953.983 281.604 955.593 281.533L957.962 281.391C958.756 281.388 959.548 281.317 960.33 281.178L965.185 280.444L967.553 280.065L969.922 279.449L974.895 278.194C976.529 277.72 978.14 277.057 979.797 276.489L982.284 275.589C982.687 275.423 983.113 275.305 983.516 275.115L984.723 274.547C988.048 273.087 991.268 271.402 994.362 269.502C995.926 268.531 997.56 267.632 999.099 266.566L1003.6 263.132C1004.36 262.54 1005.14 262.019 1005.97 261.379L1008.07 259.414C1009.45 258.087 1010.94 256.808 1012.29 255.411C1015 252.522 1017.51 249.46 1019.82 246.246C1020.39 245.417 1020.98 244.612 1021.57 243.878C1021.86 243.475 1022.17 243.072 1022.45 242.646L1023.21 241.32L1026.26 236.015C1027.21 234.191 1027.99 232.273 1028.87 230.402C1029.27 229.431 1029.79 228.507 1030.12 227.536L1031.12 224.552C1032.52 220.546 1033.65 216.446 1034.48 212.284C1034.79 210.177 1035.1 208.022 1035.38 205.89L1035.62 204.28V202.645L1035.76 199.401L1035.9 196.109L1035.74 192.817L1035.55 189.525V187.844L1035.29 186.21L1034.29 179.602C1033.75 177.423 1033.2 175.244 1032.63 173.065C1027.64 155.306 1016.95 139.674 1002.23 128.565L996.731 124.634L990.928 121.318C990.455 121.034 989.981 120.75 989.484 120.489L987.968 119.802L984.96 118.429L981.953 117.103L978.85 116.037L975.748 114.971L974.208 114.45L972.621 114.095C970.537 113.574 968.43 113.077 966.346 112.603C962.166 111.87 957.94 111.427 953.699 111.277L950.573 111.135C949.531 111.135 948.489 111.135 947.446 111.135C945.362 111.277 943.302 111.3 941.265 111.513L935.202 112.437L933.71 112.674C933.213 112.674 932.716 112.911 932.242 113.029L929.305 113.787C925.47 114.757 921.703 115.983 918.032 117.458C916.232 118.216 914.504 119.139 912.751 119.945L910.17 121.2C909.317 121.626 908.535 122.171 907.801 122.668L903.065 125.605C901.502 126.647 900.057 127.855 898.589 128.944C895.698 131.123 892.96 133.496 890.394 136.049L889.423 136.973C889.115 137.281 888.831 137.636 888.547 137.967C888.263 138.299 887.386 139.294 886.794 139.933C885.658 141.283 884.426 142.538 883.431 143.888L880.447 148.056L878.979 150.117C878.553 150.827 878.15 151.561 877.748 152.272L875.379 156.535C874.968 157.224 874.611 157.944 874.313 158.69L873.319 160.869C872.679 162.313 871.993 163.734 871.424 165.179C870.856 166.624 870.429 168.092 869.932 169.537C866.496 179.907 865.097 190.844 865.811 201.746C866.284 209.974 868.017 218.081 870.95 225.784L871.803 228.152C872.037 228.885 872.331 229.598 872.679 230.283L874.527 234.073C875.119 235.233 875.592 236.323 876.137 237.294L877.7 239.828L879.855 243.262C880.139 244.043 880.424 244.446 880.424 244.446Z" fill="#263238"/>
<path d="M908.086 198.548L920.591 186.044L944.7 207.477L992.018 161.935L1003.62 174.439L942.924 231.586L908.086 198.548Z" fill="#0099FF"/>
</g>
</svg>
