<?xml version="1.0" encoding="UTF-8"?><svg id="a" xmlns="http://www.w3.org/2000/svg" viewBox="0 0 566.93 566.93"><defs><style>.b{fill:#9e8952;}.b,.c,.d,.e,.f,.g,.h,.i,.j,.k,.l,.m,.n,.o,.p{stroke-width:0px;}.c{fill:#e30613;}.q{opacity:.8;}.e{fill:#e0e0e0;}.f{fill:#f5f5f5;}.g{fill:#fff;}.h{fill:#09f;}.i{fill:#fafafa;}.j{fill:#263238;}.r{opacity:.3;}.k{fill:#ffd56a;}.l{fill:#ebebeb;}.m{fill:#ffbe9d;}.n{fill:#eb996e;}.o{fill:#455a64;}.p{fill:#ffdc84;}</style></defs><path class="f" d="M409.48,508.47c-1.93-1.65-6.23-6.89-2.91-12.98,1.21-2.23,3.79-3.33,6.12-4.32,2.41-.81,4.68-1.98,6.73-3.48,3.64-3.1,4.66-8.26,7.07-12.39,2.79-4.75,7.96-8.32,13.44-8.06,6.28.28,11.5,5.41,13.88,11.25,2.38,5.84,2.42,12.33,2.51,18.63,0,3.49-.13,7.43-2.69,9.78-2.36,2.17-5.92,2.19-9.12,2.1l-34.28-1.05"/><path class="e" d="M475.05,414.2h-90.17l16.24,96.84c.34,2.02,1.24,3.9,2.6,5.42,1.36,1.53,3.13,2.63,5.1,3.2l.32.08c.27.07.53.16.8.21.61.12,1.22.2,1.84.22v.09h40.62c.74,0,1.48-.08,2.21-.23,2.34-.37,4.5-1.49,6.15-3.2,1.65-1.71,2.69-3.9,2.98-6.26l7.84-66.79.35-2.65,3.05-26.44.06-.49ZM458.08,476.02h-9.26l.95-28.11h10.72l-2.4,28.11ZM461.38,447.91h8.86l-3.3,28.11h-7.95l2.39-28.11ZM434.94,507.17l-.56-24.41h13.33l-.85,24.37-11.93.05ZM420.54,482.76h12.95l.56,24.41h-11.6l-1.9-24.41ZM421.54,507.17h-10.91c-1.03-6.59-2.42-15.15-3.83-24.41h12.79l1.95,24.41ZM420.02,476.02l-2.24-28.16h14.85l.64,28.11-13.25.05ZM434.22,476.02l-.69-28.16h15.29l-.93,28.11-13.66.05ZM433.42,441.17l-.61-26.03h17.13l-.86,26.03h-15.66ZM432.53,441.17h-15.26l-2.01-26.03h16.64l.63,26.03ZM416.4,441.17h-16.13l-1.6-10.05c-1.68-10.53-2.32-14.49-2.67-15.98h18.35l2.05,26.03ZM416.94,447.91l2.18,28.11h-13.33c-.45-2.85-.9-5.73-1.36-8.62-1.04-6.64-2.08-13.27-3.07-19.49h15.58ZM404.89,476.02h-8.69l-4.72-28.11h8.98c1.33,8.64,2.86,18.3,4.39,28.06l.04.05ZM405.95,482.76c1.32,8.49,2.63,16.78,3.82,24.41h-8.35l-4.1-24.41h8.63ZM447.79,507.17l.81-24.41h8.9l-2.15,24.37-7.56.05ZM449.98,441.17l.86-26.03h12.44l-2.23,26.03h-11.07ZM395.19,415.14c.36,1.88,2,12.12,4.21,26.03h-9.04l-4.38-26.03h9.21ZM463.28,507.17h-6.97l2.09-24.41h7.75l-2.86,24.41ZM471.03,441.17h-9.08l2.23-26.03h9.9l-3.06,26.03Z"/><path class="e" d="M119.86,209.04s-.21-.38-.56-1.08l-1.56-3.13-5.89-11.9c-5.07-10.27-12.3-24.96-21.09-42.79l.35.12L10.37,189.81l.15-.42,28.84,59.02-.39-.13,58.28-28.35,16.62-8.05,4.49-2.06,1.14-.53.41-.18-.36.19-1.19.52-4.35,2.17-16.49,8.15-58.3,28.67-.25.13-.13-.27-28.89-58.99-.15-.29.29-.13,80.78-39.45.23-.11.11.23,20.92,43.05,5.75,11.9,1.49,3.12.49,1.04Z"/><path class="e" d="M90.98,150.03c0,.11-.03.21-.07.32-.07.24-.17.55-.29.91-.28.85-.67,2.01-1.21,3.48-1.05,3.07-2.56,7.41-4.41,12.75l-14.72,42-.41.19h-.17l-.19-.06-.39-.13-.78-.25-1.53-.51-3.01-1.07-5.93-1.98-11.21-3.75-18.97-6.38-12.78-4.35-3.45-1.21-.9-.33c-.11-.03-.21-.07-.3-.13.11,0,.21.03.32.07l.92.27,3.5,1.1,12.84,4.16,19,6.19,11.23,3.71,5.94,1.98,3.03,1.01,1.54.51.76.25.39.12.19.07h.17c-.17.09.41-.18-.38.21,5.83-16.36,11.1-31.17,14.93-41.94l4.62-12.59c.53-1.45.97-2.61,1.21-3.43l.35-.9.16-.29Z"/><path class="e" d="M50.02,202.76c.17,0-2.13,10.39-5.15,23.12-3.02,12.73-5.61,23.03-5.78,22.97-.17-.06,2.15-10.39,5.16-23.12,3.02-12.73,5.6-23.02,5.77-22.97Z"/><path class="e" d="M120.71,209.48c-.07.15-9.77-4.61-21.66-10.62-11.89-6.01-21.47-11.02-21.38-11.18.08-.16,9.78,4.59,21.67,10.62,11.89,6.02,21.44,11.02,21.37,11.18Z"/><path class="e" d="M519.27,215.97s.18-.29.55-.81l1.62-2.29,6.18-8.66,22.39-31.18v.36l-62.31-45.01.45-.07-30.97,42.77-.06-.4,44.76,32.56,12.78,9.33,3.41,2.5.87.65c.19.16.3.23.3.24l-.29-.19-.87-.61-3.39-2.42-12.81-9.18-45.05-32.43-.25-.12.17-.24,30.92-42.79.19-.25.25.18,62.25,45.11.21.15-.16.21-22.67,31.11c-2.7,3.64-4.85,6.56-6.27,8.55-.7.96-1.21,1.7-1.64,2.21-.42.51-.56.74-.56.74Z"/><path class="e" d="M550.22,173.2c-.35.08-.7.14-1.05.18l-3.02.42-11.12,1.42-36.69,4.47c-.69-.51-.19-.16-.35-.28v-.29l-.06-.33-.13-.67-.27-1.31c-.18-.87-.35-1.75-.53-2.61-.34-1.72-.69-3.42-1.02-5.09-.67-3.33-1.32-6.56-1.93-9.62-1.21-6.06-2.32-11.64-3.24-16.29-.92-4.65-1.61-8.35-2.12-11.01l-.55-2.99c-.07-.35-.12-.7-.16-1.05.12.33.22.68.28,1.03.16.73.39,1.72.67,2.97l2.32,10.91c.96,4.65,2.1,10.16,3.37,16.28.62,3.07,1.29,6.28,1.96,9.61.34,1.67.68,3.37,1.03,5.09.18.86.35,1.72.53,2.59l.27,1.32.13.65.06.34v.3c-.15-.11.35.27-.34-.23l36.72-4.28,11.14-1.21,3.03-.3c.35-.04.71-.05,1.07-.04Z"/><path class="e" d="M494.83,162.26c0,.17-8.49,2.27-18.96,4.69-10.47,2.42-19.07,4.24-19.12,4.07-.05-.17,8.49-2.27,18.97-4.69,10.49-2.42,19.07-4.24,19.1-4.07Z"/><path class="e" d="M519.31,216.76c-.17,0-.78-8.86-1.33-19.81-.56-10.95-.87-19.83-.69-19.84.18-.01.76,8.86,1.32,19.81.56,10.95.87,19.83.7,19.84Z"/><path class="e" d="M397.07,438l.95.36,2.69,1.12,10.22,4.27,36.75,15.46-.33.13,31.15-73.55.17.42-50.49-21.48.38-.16-22.62,52.89c-2.78,6.46-4.97,11.59-6.5,15.12-.75,1.73-1.33,3.08-1.75,4.01l-.45,1.04-.18.36s0-.12.13-.35c.13-.23.24-.58.41-1.02l1.66-3.99,6.38-15.12c5.49-13.01,13.26-31.43,22.43-53.18l.11-.27.27.12,50.48,21.38.29.12-.13.29c-11.75,27.63-22.61,53.13-31.28,73.51l-.1.23-.23-.1-36.8-15.76-10.11-4.36-2.62-1.14-.88-.38Z"/><path class="e" d="M447.58,459.45c-.05-.08-.09-.17-.12-.25-.08-.21-.18-.46-.32-.76-.27-.73-.64-1.72-1.12-2.97-.97-2.63-2.34-6.35-4.01-10.91l-13.02-36.15c.34-.79.11-.22.18-.4h.08l.16-.07.32-.15.64-.29,1.27-.57,2.51-1.14,4.92-2.22,9.3-4.18,15.76-7.05,10.64-4.7,2.91-1.21.76-.3c.18-.07.27-.1.27-.09l-.24.15-.73.36-2.86,1.36-10.57,4.85-15.76,7.18-9.29,4.22-4.85,2.22-2.52,1.14-1.21.58-.63.28-.33.15-.16.07h-.07c.06-.17-.18.4.15-.38,5.01,14.11,9.54,26.89,12.84,36.2,1.6,4.61,2.91,8.35,3.83,10.99.42,1.27.76,2.27,1.01,3.01.1.31.18.57.25.79.01.09.01.18,0,.27Z"/><path class="e" d="M445.84,400.81c-.16.07-4.26-8.05-9.14-18.18-4.89-10.13-8.72-18.33-8.56-18.41.16-.09,4.24,8.05,9.13,18.18,4.89,10.13,8.72,18.34,8.57,18.41Z"/><path class="e" d="M396.28,438.22c0-.17,8.8-2.82,19.76-5.93,10.96-3.1,19.92-5.49,19.92-5.31s-8.8,2.82-19.76,5.93c-10.96,3.1-19.87,5.48-19.92,5.31Z"/><path class="l" d="M475.41,45.77H112.97v304.69h362.44V45.77Z"/><path class="e" d="M113.68,66.77c0-.17,80.83-.32,180.51-.32s180.56.18,180.56.32-80.81.32-180.52.32-180.55-.11-180.55-.32Z"/><path class="e" d="M124.71,59.78c2.14,0,3.88-1.74,3.88-3.88s-1.74-3.88-3.88-3.88-3.88,1.74-3.88,3.88,1.74,3.88,3.88,3.88Z"/><path class="e" d="M135.48,59.78c2.14,0,3.88-1.74,3.88-3.88s-1.74-3.88-3.88-3.88-3.88,1.74-3.88,3.88,1.74,3.88,3.88,3.88Z"/><path class="e" d="M147.45,59.78c2.14,0,3.88-1.74,3.88-3.88s-1.74-3.88-3.88-3.88-3.88,1.74-3.88,3.88,1.74,3.88,3.88,3.88Z"/><path class="j" d="M539.78,520.85c0,.18-118.3.32-264.19.32s-264.26-.13-264.26-.32,118.28-.32,264.26-.32,264.19.15,264.19.32Z"/><path class="i" d="M461.41,382.81c0-2.22-.11-124.29-.27-312.63l.27.23H89.55l.32-.32v312.63l-.29-.28,371.9.28-371.9.28h-.32V69.78h372.48v.27c-.17,188.48-.33,310.55-.33,312.76Z"/><path class="i" d="M461.46,70.18H89.56v312.63h371.9V70.18Z"/><path class="l" d="M223.83,91.77H90.29v30.61h133.54v-30.61Z"/><path class="j" d="M123.97,116.48v-4.21c0-2.72-.07-6.47-.13-11.01l.25.25h-22.15l.32-.32v15.16l-.29-.29,15.89.15,4.58.09h1.66c-.52.06-1.04.08-1.56.07l-4.52.07-16.07.15h-.28v-15.36c-.28.28.39-.39.33-.32h22.4v.25c0,4.61-.1,8.41-.13,11.16v3.03c-.06.38-.16.75-.29,1.1Z"/><path class="j" d="M123.97,101.21s-.25.35-.79.9c-.53.55-1.32,1.31-2.3,2.25-1.96,1.89-4.72,4.47-7.77,7.27-.86,0-.24,0-.44,0h-.07l-.15-.13-.28-.27-.57-.52-1.09-1.02-2.07-1.93-3.53-3.42c-.98-.95-1.77-1.71-2.32-2.26-.3-.26-.57-.56-.79-.9,0,0,.38.22.96.72.58.5,1.42,1.21,2.42,2.11l3.56,3.2,2.09,1.9,1.1,1.01.57.52.28.27.15.12.07.07h-.39c3.06-2.81,5.84-5.35,7.89-7.15,1.02-.9,1.85-1.62,2.42-2.11.31-.26.66-.48,1.03-.64Z"/><path class="j" d="M109.19,107.99c-.99,1.61-2.15,3.1-3.47,4.45-1.16,1.49-2.48,2.84-3.94,4.04.99-1.6,2.15-3.09,3.47-4.44,1.16-1.49,2.48-2.85,3.94-4.05Z"/><path class="j" d="M124.11,116.61c-1.43-1.27-2.71-2.7-3.83-4.26-1.28-1.43-2.4-2.99-3.35-4.67,1.43,1.28,2.72,2.71,3.83,4.27,1.28,1.42,2.4,2.99,3.35,4.66Z"/><path class="j" d="M208.49,106.53c0,.18-15.64.32-34.91.32s-34.9-.13-34.9-.32,15.63-.32,34.9-.32,34.91.15,34.91.32Z"/><path class="c" d="M461.46,227.73h-239.33v52.44h239.33v-52.44Z"/><g class="q"><path class="g" d="M461.46,227.73h-239.33v52.44h239.33v-52.44Z"/></g><path class="c" d="M254.45,244.12h-14.2c-1.51,0-2.73,1.22-2.73,2.73v14.19c0,1.51,1.22,2.73,2.73,2.73h14.2c1.51,0,2.73-1.22,2.73-2.73v-14.19c0-1.51-1.22-2.73-2.73-2.73Z"/><path class="g" d="M245.87,258.3c-.26,0-.52-.08-.73-.24l-3.96-2.98c-.14-.09-.27-.21-.36-.35-.09-.14-.16-.3-.19-.46-.03-.17-.03-.34.01-.5.04-.16.11-.32.21-.45.1-.13.23-.25.38-.33.15-.08.31-.13.48-.15.17-.02.34,0,.5.06.16.05.31.14.43.25l3.09,2.32,6.21-6.74c.22-.24.52-.38.84-.39.32-.01.64.1.87.32.24.22.38.52.39.84.01.32-.1.64-.32.87l-6.95,7.54c-.11.12-.25.22-.41.29-.15.07-.32.1-.49.1Z"/><path class="h" d="M461.46,175.03h-239.33v52.44h239.33v-52.44Z"/><path class="j" d="M460.02,227.66c0,.18-52.88.31-118.09.31s-118.09-.13-118.09-.31,52.86-.32,118.09-.32,118.09.15,118.09.32Z"/><path class="h" d="M461.59,332.57h-239.33v50.25h239.33v-50.25Z"/><g class="q"><path class="g" d="M461.59,332.57h-239.33v50.25h239.33v-50.25Z"/></g><path class="h" d="M254.57,348.97h-14.2c-1.51,0-2.73,1.22-2.73,2.73v14.19c0,1.51,1.22,2.73,2.73,2.73h14.2c1.51,0,2.73-1.22,2.73-2.73v-14.19c0-1.51-1.22-2.73-2.73-2.73Z"/><path class="g" d="M245.99,363.16c-.26,0-.52-.09-.73-.24l-3.96-2.98c-.26-.19-.43-.48-.47-.8-.05-.32.04-.64.23-.9.19-.26.48-.43.8-.47.32-.05.64.04.9.23l3.09,2.33,6.21-6.74c.1-.13.23-.24.38-.31s.31-.12.47-.14.33,0,.49.06c.16.05.3.14.42.25.12.11.22.25.29.4.07.15.1.32.11.48,0,.17-.03.33-.1.48-.06.15-.16.29-.28.41l-6.98,7.55c-.11.12-.24.21-.39.28-.15.07-.31.1-.47.11Z"/><g class="q"><path class="g" d="M461.46,175.03h-239.33v52.44h239.33v-52.44Z"/></g><path class="h" d="M254.45,191.41h-14.2c-1.51,0-2.73,1.22-2.73,2.73v14.19c0,1.51,1.22,2.73,2.73,2.73h14.2c1.51,0,2.73-1.22,2.73-2.73v-14.19c0-1.51-1.22-2.73-2.73-2.73Z"/><path class="g" d="M245.87,205.61c-.26,0-.52-.09-.73-.24l-3.96-2.98c-.14-.09-.27-.21-.36-.35-.09-.14-.16-.3-.19-.46-.03-.17-.03-.34.01-.5.04-.16.11-.32.21-.45.1-.13.23-.25.38-.33.15-.08.31-.13.48-.15.17-.02.34,0,.5.06.16.05.31.14.43.25l3.09,2.32,6.21-6.74c.22-.24.52-.38.84-.39.32-.01.63.1.87.32.12.11.21.24.28.38.07.14.11.3.11.46,0,.16-.02.32-.07.47-.05.15-.14.29-.25.41l-6.95,7.54c-.11.12-.25.22-.41.29-.15.07-.32.1-.49.1Z"/><path class="h" d="M461.41,382.81c0-2.22-.11-124.29-.27-312.63l.27.23H89.55l.32-.32v312.63l-.29-.28,371.9.28-371.9.28h-.32V69.78h372.48v.27c-.17,188.48-.33,310.55-.33,312.76Z"/><path class="h" d="M90.29,91.77c0-.18,82.93-.32,185.21-.32s185.24.13,185.24.32-82.92.32-185.24.32-185.21-.15-185.21-.32Z"/><path class="h" d="M101.61,84.55c2.2,0,3.98-1.78,3.98-3.98s-1.78-3.98-3.98-3.98-3.98,1.78-3.98,3.98,1.78,3.98,3.98,3.98Z"/><path class="h" d="M112.67,84.55c2.2,0,3.98-1.78,3.98-3.98s-1.78-3.98-3.98-3.98-3.98,1.78-3.98,3.98,1.78,3.98,3.98,3.98Z"/><path class="h" d="M127.75,77.76c.56.56.93,1.26,1.09,2.04.15.77.07,1.57-.23,2.3-.3.73-.81,1.35-1.46,1.78-.65.44-1.42.67-2.21.67s-1.55-.23-2.21-.67c-.65-.44-1.16-1.06-1.46-1.78-.3-.73-.38-1.53-.23-2.3.15-.77.53-1.48,1.09-2.04.37-.37.81-.66,1.29-.86.48-.2,1-.3,1.52-.3s1.04.1,1.52.3c.48.2.92.49,1.29.86Z"/><path class="j" d="M138.96,134.66c.29-.04.57-.04.86,0l2.52-.07,9.24-.12h.12l.07.1,4.07,5.36.06.09v8.32h-20.92v-.33c0-2.74,0-5.18.07-7.27l2.84-4.45c.32-.56.67-1.1,1.07-1.61-.05.16-.13.32-.22.46l-.69,1.21-2.62,4.47v-.11c0,2.06,0,4.5.06,7.27l-.27-.27h20.35l-.32.32v-7.9l.06.17-4-5.39.21.1-9.14-.12h-2.55c-.3-.04-.6-.11-.88-.21Z"/><path class="j" d="M155.63,140.45c-.57.15-1.16.24-1.76.24-1.12.1-2.72.21-4.62.33l.25-.27c-.05,1.01-.38,1.99-.96,2.82-.32.46-.73.84-1.21,1.11-.53.25-1.11.38-1.7.4-.63.03-1.25-.09-1.82-.33-.58-.24-1.09-.61-1.51-1.08-.69-.83-1.16-1.83-1.36-2.9l.27.22c-1.77,0-3.25-.06-4.28-.11-.54.01-1.08-.05-1.61-.18.53-.11,1.07-.16,1.61-.15,1.03,0,2.51-.08,4.28-.12h.17v.23c.21.95.64,1.83,1.27,2.57.36.4.8.72,1.29.93.49.21,1.03.31,1.57.29.5,0,.98-.11,1.43-.33.42-.22.79-.53,1.07-.91.52-.73.82-1.59.9-2.49v-.25h.23c1.92-.06,3.52-.1,4.64-.11.61-.05,1.23-.03,1.84.07Z"/><path class="j" d="M201.2,135.33c.34-.08.68-.11,1.03-.1v.19c-2.42.12-9.93.22-18.73.22-5.46,0-10.4,0-13.98-.1l-4.23-.1c-.52.02-1.04-.02-1.55-.12.51-.1,1.03-.14,1.55-.12l4.23-.1c3.58-.06,8.49-.1,13.98-.1,8.8,0,16.26.1,18.73.22v.19c-.35.02-.69-.01-1.03-.1Z"/><path class="j" d="M201.2,143.27c.34-.08.68-.12,1.03-.1v.19c-2.42.12-9.93.22-18.73.22-5.46,0-10.4,0-13.98-.1l-4.23-.1c-.52,0-1.04-.03-1.55-.12.51-.1,1.03-.14,1.55-.13l4.23-.1c3.58,0,8.49-.08,13.98-.08,8.8,0,16.26.08,18.73.22v.19c-.35,0-.69-.03-1.03-.1Z"/><path class="j" d="M201.2,151.19c.34-.08.68-.11,1.03-.1v.19c-2.42.13-9.93.22-18.73.22-5.46,0-10.4,0-13.98-.09l-4.23-.11c-.52.02-1.04-.02-1.55-.12.51-.09,1.03-.13,1.55-.12l4.23-.1c3.58-.06,8.49-.1,13.98-.1,8.8,0,16.26.1,18.73.22v.19c-.35.02-.69-.01-1.03-.1Z"/><path class="j" d="M138.96,191.48c.28-.06.57-.08.86-.07l2.52-.06,9.24-.12h.12l.07.1,4.07,5.36.06.09v8.32h-20.92v-.27c0-2.74,0-5.18.07-7.27v-.06l2.84-4.45c.31-.52.65-1.02,1.03-1.5-.05.16-.13.32-.22.46l-.69,1.21-2.57,4.5v-.11c0,2.06,0,4.5.06,7.27l-.27-.27h20.35l-.32.32v-7.9l.06.17-4-5.39.21.1-9.14-.12h-2.55c-.31-.06-.61-.16-.9-.28Z"/><path class="j" d="M155.63,197.23c-.57.15-1.16.24-1.76.24-1.12.1-2.72.21-4.62.33l.25-.27c-.05,1.01-.38,1.99-.96,2.82-.32.46-.73.84-1.21,1.12-.53.25-1.11.38-1.7.4-.63.03-1.25-.09-1.82-.33-.58-.24-1.09-.61-1.51-1.08-.69-.83-1.16-1.83-1.36-2.9l.27.22c-1.77,0-3.25-.06-4.28-.11-.54.02-1.08-.03-1.61-.16.53-.12,1.07-.17,1.61-.16l4.28-.11h.17v.23c.21.95.64,1.83,1.27,2.57.36.4.8.72,1.29.93s1.03.31,1.57.28c.5,0,.98-.11,1.43-.33.42-.22.79-.53,1.07-.91.52-.73.82-1.59.9-2.49v-.25h.23c1.92,0,3.52-.1,4.64-.11.61-.06,1.23-.05,1.84.05Z"/><path class="j" d="M201.2,192.11c.34-.08.68-.11,1.03-.1v.19c-2.42.12-9.93.22-18.73.22-5.46,0-10.4,0-13.98-.1l-4.23-.1c-.52.02-1.04-.02-1.55-.12.51-.1,1.03-.14,1.55-.12l4.23-.1c3.58-.06,8.49-.1,13.98-.1,8.8,0,16.26.1,18.73.22v.19c-.35.01-.69-.02-1.03-.1Z"/><path class="j" d="M201.2,200.05c.34-.08.68-.12,1.03-.1v.17c-2.42.12-9.93.22-18.73.22-5.46,0-10.4,0-13.98-.1l-4.23-.1c-.52,0-1.04-.03-1.55-.12.51-.1,1.03-.14,1.55-.13l4.23-.1c3.58-.06,8.49-.08,13.98-.08,8.8,0,16.26.08,18.73.22v.19c-.35.01-.69-.01-1.03-.07Z"/><path class="j" d="M201.2,207.97c.34-.08.68-.11,1.03-.1v.19c-2.42.13-9.93.22-18.73.22-5.46,0-10.4,0-13.98-.08l-4.23-.11c-.52.02-1.04-.02-1.55-.12.51-.09,1.03-.13,1.55-.12l4.23-.1c3.58-.06,8.49-.1,13.98-.1,8.8,0,16.26.1,18.73.22v.19c-.35.02-.69-.01-1.03-.1Z"/><path class="j" d="M138.96,248.26c.28-.06.57-.08.86-.07l2.52-.06,9.24-.12h.12l.07.1,4.07,5.36.06.08v8.32h-20.92v-.27c0-2.74,0-5.18.07-7.27l2.84-4.45c.31-.52.65-1.02,1.03-1.5-.05.16-.13.32-.22.46l-.69,1.21-2.62,4.47v-.11c0,2.06,0,4.5.06,7.27l-.27-.27h20.35l-.32.31v-7.9l.06.17-4-5.39.21.1-9.14-.12h-2.55c-.29-.08-.58-.19-.85-.32Z"/><path class="j" d="M155.63,254.01c-.57.15-1.16.24-1.76.24-1.12.1-2.72.21-4.62.33l.25-.27c-.05,1.01-.38,1.99-.96,2.82-.32.46-.73.84-1.21,1.11-.53.25-1.11.38-1.7.39-.62.03-1.25-.08-1.82-.32-.58-.24-1.09-.61-1.51-1.07-.69-.83-1.16-1.83-1.36-2.9l.27.22c-1.77,0-3.25,0-4.28-.11-.54.02-1.08-.03-1.61-.16.53-.12,1.07-.17,1.61-.16l4.28-.11h.17v.23c.21.95.64,1.83,1.27,2.57.36.4.8.72,1.29.93s1.03.31,1.57.28c.5,0,.98-.11,1.43-.33.42-.22.79-.53,1.07-.91.52-.73.82-1.59.9-2.48v-.25h.23c1.92-.07,3.52-.1,4.64-.11.61-.06,1.23-.05,1.84.05Z"/><path class="j" d="M201.2,248.89c.34-.08.68-.11,1.03-.1v.19c-2.42.12-9.93.22-18.73.22-5.46,0-10.4,0-13.98-.1l-4.23-.1c-.52.02-1.04-.02-1.55-.12.51-.1,1.03-.14,1.55-.12l4.23-.1c3.58-.06,8.49-.1,13.98-.1,8.8,0,16.26.1,18.73.22v.19c-.35.01-.69-.02-1.03-.1Z"/><path class="j" d="M201.2,256.83c.34-.08.68-.12,1.03-.1v.19c-2.42.12-9.93.22-18.73.22-5.46,0-10.4,0-13.98-.1l-4.23-.1c-.52,0-1.04-.03-1.55-.12.51-.1,1.03-.14,1.55-.13l4.23-.1c3.58-.06,8.49-.08,13.98-.08,8.8,0,16.26.08,18.73.22v.19c-.35,0-.69-.03-1.03-.1Z"/><path class="j" d="M201.2,264.75c.34-.08.68-.11,1.03-.1v.19c-2.42.13-9.93.22-18.73.22-5.46,0-10.4,0-13.98-.09l-4.23-.11c-.52.02-1.04-.02-1.55-.12.51-.09,1.03-.13,1.55-.12l4.23-.1c3.58,0,8.49-.1,13.98-.1,8.8,0,16.26.1,18.73.22v.19c-.35.02-.69-.01-1.03-.1Z"/><path class="h" d="M442.16,211.69h-9.24c-.48,0-.96-.08-1.41-.26-.45-.18-.86-.45-1.2-.78-.34-.34-.62-.74-.8-1.19-.19-.44-.28-.92-.28-1.41v-15.4h1.21v15.35c0,.32.06.64.19.94.13.3.31.57.54.79.23.23.51.4.81.52.3.12.62.17.95.17h9.24c.64,0,1.26-.26,1.71-.71.45-.45.71-1.07.71-1.71v-14.81h1.21v14.81c0,.48-.08.96-.26,1.41-.18.45-.45.85-.78,1.2-.34.34-.74.61-1.19.8-.44.19-.92.28-1.4.28Z"/><path class="h" d="M447.38,192.75h-19.66v1.21h19.66v-1.21Z"/><path class="h" d="M433.97,193.35h-1.21v-1.35c0-.64.26-1.26.71-1.71s1.07-.71,1.71-.71h4.85c.64,0,1.26.26,1.71.71.45.45.71,1.07.71,1.71v1.08h-1.21v-1.08c0-.32-.13-.63-.36-.86-.23-.23-.54-.36-.86-.36h-4.85c-.32,0-.63.13-.86.36-.23.23-.36.54-.36.86v1.35Z"/><path class="h" d="M434.74,207.16c-.31-1.72-.42-3.47-.32-5.21-.1-1.74,0-3.49.32-5.2.32,1.71.42,3.46.31,5.2.11,1.74,0,3.5-.31,5.21Z"/><path class="h" d="M437.59,207.16c-.31-1.72-.42-3.47-.32-5.21-.1-1.74,0-3.49.32-5.2.32,1.71.42,3.46.31,5.2.11,1.74,0,3.5-.31,5.21Z"/><path class="h" d="M440.47,207.16c-.31-1.72-.42-3.47-.31-5.21-.1-1.74,0-3.49.31-5.2.32,1.71.42,3.46.32,5.2.11,1.74,0,3.5-.32,5.21Z"/><path class="c" d="M442.16,261.4h-9.24c-.98,0-1.92-.39-2.61-1.09-.69-.69-1.08-1.63-1.09-2.61v-15.35h1.21v15.35c0,.66.26,1.29.73,1.76.47.47,1.1.73,1.76.73h9.24c.65-.02,1.27-.28,1.72-.75.45-.46.71-1.09.71-1.74v-14.81h1.21v14.81c0,.48-.08.96-.26,1.41-.18.45-.45.86-.78,1.2-.34.34-.74.62-1.19.8-.44.19-.92.28-1.41.28Z"/><path class="c" d="M447.38,242.44h-19.66v1.21h19.66v-1.21Z"/><path class="c" d="M433.97,243.04h-1.21v-1.35c0-.64.26-1.26.71-1.71.45-.45,1.07-.71,1.71-.71h4.85c.64,0,1.26.26,1.71.71.45.45.71,1.07.71,1.71v1.08h-1.21v-1.08c0-.32-.13-.63-.36-.86-.23-.23-.54-.36-.86-.36h-4.85c-.32,0-.63.13-.86.36-.23.23-.36.54-.36.86v1.35Z"/><path class="c" d="M434.74,256.85c-.42-3.46-.42-6.95,0-10.41.42,3.46.42,6.95,0,10.41Z"/><path class="c" d="M437.59,256.85c-.42-3.46-.42-6.95,0-10.41.42,3.46.42,6.95,0,10.41Z"/><path class="c" d="M440.47,256.85c-.42-3.46-.42-6.95,0-10.41.42,3.46.42,6.95,0,10.41Z"/><path class="h" d="M442.16,370.63h-9.24c-.48,0-.96-.08-1.41-.26-.45-.18-.86-.45-1.2-.78-.34-.34-.62-.74-.8-1.19-.19-.45-.28-.92-.28-1.41v-15.35h1.21v15.35c0,.32.06.64.19.94.13.3.31.57.54.79.23.23.51.4.81.52.3.12.62.18.95.17h9.24c.64,0,1.26-.26,1.71-.71.45-.45.71-1.07.71-1.71v-14.86h1.21v14.81c0,.48-.08.96-.26,1.41s-.45.85-.78,1.2c-.34.34-.74.61-1.19.8s-.92.28-1.4.28Z"/><path class="h" d="M447.38,351.68h-19.66v1.21h19.66v-1.21Z"/><path class="h" d="M433.97,352.29h-1.21v-1.36c0-.64.26-1.26.71-1.71.45-.45,1.07-.71,1.71-.71h4.85c.64,0,1.26.26,1.71.71.45.45.71,1.07.71,1.71v1.09h-1.21v-1.09c0-.32-.13-.63-.36-.86-.23-.23-.54-.36-.86-.36h-4.85c-.32,0-.63.13-.86.36-.23.23-.36.54-.36.86v1.36Z"/><path class="h" d="M434.74,366.1c-.42-3.46-.42-6.95,0-10.41.42,3.46.42,6.95,0,10.41Z"/><path class="h" d="M437.59,366.1c-.42-3.46-.42-6.95,0-10.41.42,3.46.42,6.95,0,10.41Z"/><path class="h" d="M440.47,366.1c-.42-3.46-.42-6.95,0-10.41.42,3.46.42,6.95,0,10.41Z"/><path class="j" d="M447.18,154.42c-.04-.37-.06-.75-.06-1.13v-3.09c0-2.7-.09-6.46-.13-11.01l.25.25-22.2.06.32-.32v15.15l-.29-.29,15.88.15,4.59.07h1.66c-.52.03-1.04.03-1.56,0l-4.52.08-16.07.15h-.29v-15.44c-.28.28.39-.39.32-.33l22.16.07h.25v.24c0,4.61-.1,8.42-.12,11.16,0,1.21,0,2.27-.07,3.03,0,.39-.04.79-.11,1.18Z"/><path class="j" d="M447.18,139.19c-.22.33-.49.63-.79.9-.55.55-1.33,1.32-2.32,2.27-1.96,1.89-4.7,4.46-7.77,7.27h-.44l-.07-.07-.13-.13-.29-.25-.56-.52-1.1-1.02-2.06-1.93-3.48-3.3c-.98-.95-1.77-1.72-2.3-2.27-.3-.26-.57-.56-.79-.9.34.2.67.44.96.72.58.5,1.42,1.21,2.42,2.12l3.56,3.19,2.1,1.9,1.1,1.02.56.51.29.27.15.13h.07c-.19,0,.44,0-.42,0,3.05-2.82,5.85-5.35,7.89-7.15,1.03-.91,1.87-1.62,2.42-2.12.3-.25.64-.46.99-.63Z"/><path class="j" d="M432.4,146c-1,1.59-2.17,3.07-3.48,4.41-1.16,1.49-2.48,2.85-3.94,4.04.98-1.61,2.15-3.1,3.47-4.45,1.16-1.48,2.49-2.82,3.95-4Z"/><path class="j" d="M447.31,154.59c-1.43-1.28-2.71-2.7-3.83-4.25-1.28-1.43-2.39-2.99-3.33-4.65,1.43,1.28,2.71,2.7,3.83,4.25,1.28,1.42,2.4,2.98,3.33,4.65Z"/><path class="j" d="M460.02,122.38c0,.17-52.88.31-118.09.31s-118.11-.16-118.11-.31,52.87-.32,118.09-.32,118.11.15,118.11.32Z"/><path class="j" d="M460.02,175.03c0,.17-52.88.32-118.09.32s-118.11-.15-118.11-.32,52.87-.31,118.09-.31,118.11.13,118.11.31Z"/><path class="j" d="M460.02,279.23c0,.17-52.88.32-118.09.32s-118.11-.15-118.11-.32,52.87-.32,118.09-.32,118.11.13,118.11.32Z"/><path class="j" d="M460.02,332.57c0,.18-52.88.32-118.09.32s-118.09-.13-118.09-.32,52.86-.32,118.09-.32,118.09.15,118.09.32Z"/><path class="j" d="M254.46,158.9s.27,0,.73-.17c.67-.21,1.22-.68,1.55-1.3.47-.79.23-1.96.27-3.3.04-1.33,0-2.85,0-4.51v-6.97c.04-.48,0-.97-.12-1.44-.15-.46-.44-.87-.83-1.17-.39-.3-.85-.47-1.34-.5h-14.46c-.56,0-1.1.2-1.54.56-.43.36-.72.86-.83,1.41-.08,1.12,0,2.42,0,3.64v10.18c-.03.49,0,.98.07,1.47.1.46.33.88.67,1.21.32.3.71.52,1.14.63.44.07.88.1,1.32.07h2.63l7.92.1,2.16.06c.25,0,.5.01.75.06-.25.03-.5.03-.75,0l-2.16.06-7.92.11h-2.63c-.48.03-.97,0-1.44-.07-.53-.12-1.02-.38-1.41-.76-.39-.38-.67-.86-.8-1.38-.1-.53-.14-1.06-.1-1.6v-12c-.04-.63-.04-1.27,0-1.9.14-.69.52-1.3,1.06-1.74.54-.44,1.22-.68,1.92-.68h14.4c.6.04,1.17.26,1.64.63.47.37.83.87,1.01,1.43.14.53.19,1.08.15,1.62v13.33c.02.55-.11,1.08-.38,1.56-.38.65-1.01,1.12-1.73,1.31-.31.1-.64.11-.96.04Z"/><path class="j" d="M254.46,316.21s.27,0,.73-.17c.67-.21,1.22-.68,1.55-1.3.47-.79.23-1.96.27-3.3.04-1.33,0-2.85,0-4.51v-6.97c.04-.48,0-.97-.12-1.44-.15-.46-.44-.87-.83-1.17-.39-.3-.85-.47-1.34-.5h-14.46c-.56,0-1.1.2-1.53.56-.43.36-.72.85-.83,1.4-.08,1.13,0,2.42,0,3.64v10.17c-.03.49,0,.99.07,1.48.1.46.33.88.67,1.21.32.31.71.53,1.14.63.44.08.88.11,1.32.08h2.63l7.92.1,2.16.06c.25-.03.5-.03.75,0-.25.05-.5.07-.75.06l-2.16.06-7.92.1h-2.63c-.48.03-.97,0-1.44-.07-.53-.12-1.02-.38-1.41-.76-.39-.38-.67-.86-.8-1.38-.1-.53-.14-1.07-.1-1.61v-11.99c-.04-.63-.04-1.27,0-1.9.13-.7.5-1.33,1.04-1.78.54-.45,1.23-.7,1.94-.7h14.4c.6.04,1.17.26,1.64.63.47.37.83.87,1.01,1.43.14.53.19,1.08.15,1.62v13.33c.02.55-.11,1.08-.38,1.56-.19.32-.44.6-.74.82-.3.22-.64.38-1,.47-.3.12-.63.16-.96.12Z"/><path class="j" d="M222.07,378.31v-41.97c0-25.92.32-61.73.68-101.28.36-39.55.64-75.35.87-101.29.08-12.95.15-23.43.19-30.71,0-3.64,0-6.41.07-8.34v-2.91,41.96c-.06,25.92-.32,61.74-.69,101.29-.38,39.56-.64,75.34-.86,101.28-.09,12.95-.15,23.43-.19,30.71,0,3.64,0,6.41-.07,8.35v2.91Z"/><path class="j" d="M357.05,196.14c0,.17-18.18.32-40.68.32s-40.68-.15-40.68-.32,18.18-.32,40.68-.32,40.68.13,40.68.32Z"/><path class="j" d="M407.91,205.11c0,.18-29.6.32-66.1.32s-66.11-.13-66.11-.32,29.6-.31,66.11-.31,66.1.17,66.1.31Z"/><path class="j" d="M357.05,301.74c0,.17-18.18.31-40.68.31s-40.68-.15-40.68-.31,18.18-.32,40.68-.32,40.68.13,40.68.32Z"/><path class="j" d="M407.91,310.71c0,.17-29.6.32-66.1.32s-66.11-.15-66.11-.32,29.6-.32,66.11-.32,66.1.15,66.1.32Z"/><path class="j" d="M357.05,145.4c0,.18-18.18.33-40.68.33s-40.68-.15-40.68-.33,18.18-.31,40.68-.31,40.68.15,40.68.31Z"/><path class="j" d="M407.91,154.38c0,.17-29.6.31-66.1.31s-66.11-.15-66.11-.31,29.6-.32,66.11-.32,66.1.15,66.1.32Z"/><path class="j" d="M357.05,247.88c0,.17-18.18.32-40.68.32s-40.68-.15-40.68-.32,18.18-.32,40.68-.32,40.68.15,40.68.32Z"/><path class="j" d="M407.91,256.85c0,.18-29.6.32-66.1.32s-66.11-.13-66.11-.32,29.6-.31,66.11-.31,66.1.15,66.1.31Z"/><path class="j" d="M357.05,351.84c0,.17-18.18.32-40.68.32s-40.68-.15-40.68-.32,18.18-.32,40.68-.32,40.68.12,40.68.32Z"/><path class="j" d="M407.91,360.81c0,.17-29.6.31-66.1.31s-66.11-.15-66.11-.31,29.6-.32,66.11-.32,66.1.15,66.1.32Z"/><path class="e" d="M449.38,98.38h-16.01v16.01h16.01v-16.01Z"/><path class="e" d="M423.3,98.38h-16.01v16.01h16.01v-16.01Z"/><path class="e" d="M397.23,98.38h-16.01v16.01h16.01v-16.01Z"/><path class="j" d="M106.58,140.31l6.8,8.87,5.82-8.87h-12.62Z"/><path class="m" d="M172.98,408.91c.61,1.82,13.18,61.22,13.18,61.22l95.63,36.77-5.38,13.95-81.99-7.21c-47.86-7.14-50.51-30.62-47.63-56.87l4.96-44.99,21.24-2.87Z"/><path class="h" d="M35.52,376.88c9.86-14.92,24.81-23.53,38.51-28.29l50.31,3.64c5.63-.49,11.29.27,16.59,2.23,5.3,1.96,10.1,5.06,14.06,9.08l4.68,124.65,11.55,32.73H51.54l-16.01-144.04Z"/><path class="i" d="M156.83,414.68s-.11-.06-.29-.19l-.81-.61c-.42-.35-.86-.68-1.32-.98l-1.88-1.21c-.75-.4-1.58-.85-2.48-1.3-3.48-1.59-7.21-2.57-11.02-2.9-3.27-.29-6.56-.08-9.77.61-3.68.77-7.19,2.25-10.32,4.34-3.53,2.2-6.35,5.37-8.12,9.13-.89,1.98-1.27,4.15-1.1,6.32.22,2.23,1.06,4.35,2.42,6.12,1.34,1.78,3.33,2.96,5.53,3.29,1.04.19,2.11.07,3.08-.35.97-.42,1.79-1.11,2.37-1.99.45-.92.69-1.93.71-2.96.02-1.03-.19-2.04-.61-2.98-.35-.95-.84-1.85-1.43-2.67-.6-.79-1.27-1.52-2.01-2.18-2.82-2.49-6.24-4.2-9.93-4.96-3.21-.71-6.51-.89-9.77-.55-4.75.58-9.41,1.68-13.92,3.3l-3.7,1.21-.96.32c-.11.05-.22.08-.34.08l.31-.15.95-.38c.82-.32,2.06-.79,3.64-1.36,4.49-1.7,9.16-2.87,13.93-3.48,3.31-.38,6.67-.22,9.93.47,3.78.77,7.29,2.51,10.19,5.04.39.34.75.7,1.1,1.08.36.38.7.78,1.01,1.21.63.86,1.13,1.8,1.52,2.79.45,1.02.67,2.13.65,3.25-.02,1.12-.29,2.22-.78,3.22-.59,1.02-1.51,1.8-2.61,2.23-1.09.43-2.28.57-3.44.41-2.37-.34-4.51-1.6-5.95-3.52-1.43-1.87-2.3-4.1-2.51-6.45-.16-2.27.26-4.55,1.21-6.62,1.82-3.87,4.73-7.12,8.36-9.37,3.2-2.11,6.78-3.6,10.53-4.38,3.26-.67,6.6-.85,9.92-.53,2.73.24,5.42.83,8,1.77,1.06.38,2.09.81,3.1,1.3.92.47,1.75.95,2.42,1.36l1.87,1.27c.45.33.88.67,1.3,1.04l.76.65.27.23Z"/><path class="h" d="M154.99,363.48l29.7,53.41-32.95,10.12,3.25-63.53Z"/><path class="j" d="M158.98,488.54c-.06-.31-.09-.62-.1-.93,0-.67-.08-1.55-.16-2.67-.11-2.42-.25-5.75-.45-9.87-.34-8.32-.76-19.82-1.14-32.52-.38-12.7-.61-24.24-.68-32.56v-12.55c0-.31.01-.62.06-.93.06.31.08.62.07.93l.07,2.68c0,2.42.12,5.75.22,9.85.22,8.39.52,19.87.86,32.55.34,12.68.72,24.15.96,32.54.1,4.11.18,7.47.24,9.87v2.68c.04.31.06.62.04.93Z"/><path class="i" d="M163.75,379.74c-.21.19-.43.34-.68.47-.67.42-1.37.8-2.08,1.14-3.36,1.48-7.03,2.09-10.69,1.78-3.65-.31-7.17-1.52-10.24-3.54-1.07-.67-2.05-1.49-2.9-2.42-.94-1.01-1.56-2.28-1.79-3.64-.13-.71-.1-1.44.08-2.14.19-.7.53-1.35,1-1.9.52-.54,1.17-.94,1.89-1.15.72-.21,1.48-.23,2.22-.06.73.13,1.42.42,2.03.84.61.42,1.13.96,1.52,1.59.7,1.26.93,2.72.64,4.13-.25,1.33-.83,2.58-1.69,3.64-.82.99-1.83,1.82-2.97,2.42-2.1,1.05-4.39,1.69-6.73,1.89-2.01.23-4.04.25-6.06.07-2.91-.26-5.77-.95-8.49-2.05-.74-.3-1.46-.63-2.16-1.01-.26-.11-.5-.25-.72-.42.26.09.52.2.76.32.5.22,1.21.53,2.19.89,2.73,1,5.59,1.62,8.49,1.83,1.99.15,3.99.1,5.96-.15,2.27-.21,4.48-.85,6.51-1.88,1.07-.57,2.01-1.35,2.79-2.28.78-.98,1.31-2.14,1.54-3.37.25-1.26.04-2.57-.58-3.7-.34-.56-.8-1.03-1.34-1.4-.54-.37-1.15-.62-1.79-.73-.62-.15-1.28-.14-1.9.03-.62.17-1.18.51-1.63.96-.41.48-.7,1.05-.86,1.66s-.18,1.25-.06,1.87c.22,1.23.78,2.37,1.62,3.3.81.93,1.74,1.75,2.78,2.42,3.56,2.4,7.76,3.66,12.05,3.64,2.91.02,5.79-.53,8.49-1.62,1.79-.85,2.74-1.49,2.78-1.43Z"/><path class="i" d="M157.42,487.5l-.34-.23-.97-.7c-1.26-.88-2.59-1.67-3.96-2.36-5.08-2.51-10.7-3.76-16.36-3.64-7.14,0-15.59,2.42-23.77,7.13-2.1,1.19-4.07,2.59-5.87,4.19-1.89,1.63-3.46,3.61-4.63,5.82-1.19,2.28-1.58,4.9-1.1,7.43.28,1.26.93,2.41,1.87,3.3.46.43,1.02.74,1.63.89.61.15,1.25.14,1.86-.03,1.21-.42,2.21-1.28,2.8-2.42.62-1.14.96-2.41,1.01-3.71-.02-2.6-.82-5.13-2.3-7.27-1.41-2.07-3.24-3.82-5.37-5.13-2.05-1.25-4.3-2.13-6.66-2.61-4.4-.82-8.92-.87-13.33-.13-3.87.55-7.69,1.39-11.43,2.5-5.42,1.65-10.66,3.86-15.63,6.59-1.76.96-3.09,1.76-4,2.3l-1.02.63-.36.19s.1-.1.33-.25l.99-.68c.87-.58,2.21-1.41,3.95-2.42,4.95-2.79,10.19-5.03,15.63-6.69,3.76-1.15,7.6-2.02,11.49-2.58,4.47-.78,9.04-.75,13.5.07,2.42.48,4.74,1.38,6.85,2.67,2.21,1.35,4.11,3.15,5.56,5.29,1.55,2.22,2.4,4.86,2.42,7.58-.05,1.4-.42,2.77-1.09,4-.65,1.31-1.79,2.3-3.18,2.78-.71.2-1.46.22-2.17.04-.72-.17-1.37-.53-1.91-1.04-1.02-.99-1.74-2.25-2.05-3.64-.5-2.68-.07-5.45,1.21-7.86,1.2-2.28,2.82-4.32,4.78-6,1.84-1.62,3.85-3.05,5.99-4.25,8.27-4.75,16.83-7.07,24.06-7.07,5.73-.09,11.39,1.22,16.49,3.83,1.84.93,3.56,2.11,5.09,3.49Z"/><path class="m" d="M72.02,390.68c-3.64-18.63-30-19.32-34.62-.91-.07.28-.15.57-.21.86-6.8,29.01,16.17,114.72,22.34,119.67,6.17,4.95,12.29,10.55,22.84,6.17,6.17-2.56,70.24-59.18,70.24-59.18,0,0,14.81,14.2,19.76,12.96,4.95-1.24,14.38-15.76,14.38-15.76,0,0,9.16,13.73,10.32,13.94.63.1,1.27.03,1.85-.21.59-.24,1.1-.64,1.47-1.15.38-.51.6-1.11.66-1.75.05-.63-.07-1.27-.35-1.83-1.21-1.85-12.9-27.4-12.9-27.4,0,0,9.2-.99,7.35-4.08,0,0-.23-2.84-6.45-2.29-6.22.55-6.1-6.56-17.67-5.88-11.58.68-35.48,3.64-69.1,29.43l-15.58,10.98-14.33-73.58Z"/><path class="n" d="M101.89,453.28l.39-.31,1.21-.89,4.55-3.41c5.78-4.13,11.79-7.92,18.01-11.35,9.52-5.27,19.72-9.21,30.31-11.71,3.05-.64,6.22-1.21,9.5-1.59,1.65-.18,3.31-.33,5.01-.45,1.73-.13,3.47-.05,5.18.23,1.76.31,3.45.96,4.96,1.93,1.54.93,2.84,2.23,4.39,3.03.75.39,1.58.61,2.42.64.86,0,1.81-.11,2.75-.07.96,0,1.92.16,2.82.48.5.14.96.41,1.33.79.37.37.63.84.76,1.34v-.12c.25.39.33.86.24,1.31-.13.43-.4.81-.76,1.08-.67.49-1.41.87-2.21,1.12-1.58.5-3.2.85-4.85,1.03l.25-.42,8.22,17.78c1.44,3.03,2.87,6.15,4.44,9.16.25.37.45.78.59,1.21.08.46.08.94,0,1.41-.16.95-.65,1.81-1.38,2.42-.36.31-.79.54-1.24.68-.46.14-.94.19-1.41.13h-.35c-.09-.02-.17-.04-.25-.08l-.17-.12c-.18-.15-.35-.32-.51-.5-.3-.33-.59-.67-.86-1.02-3.16-4.05-5.96-8.24-8.75-12.36h.52c-2.19,3.34-4.57,6.55-7.13,9.62-1.25,1.52-2.62,2.94-4.09,4.25-.38.32-.78.61-1.15.92-.41.28-.84.53-1.28.76-.46.24-.96.39-1.47.43-.52.04-1.03-.02-1.52-.19-1.84-.58-3.58-1.44-5.16-2.53-1.59-1.03-3.09-2.13-4.56-3.27-2.91-2.29-5.64-4.68-8.23-7.13h.39c-20.32,17.87-37.71,32.88-50.15,43.28-6.22,5.2-11.2,9.24-14.69,11.9-1.75,1.33-3.12,2.33-4.07,2.95-.47.33-.98.61-1.52.84,0,0,.53-.27,1.47-.92.93-.65,2.29-1.65,4.01-3.01,3.44-2.7,8.39-6.79,14.55-12.03,12.38-10.47,29.72-25.54,50-43.45l.19-.17.19.18c2.57,2.42,5.31,4.85,8.21,7.07,1.44,1.13,2.95,2.23,4.51,3.24,1.53,1.05,3.21,1.87,4.98,2.42,1.82.68,3.44-.61,4.85-1.81,1.44-1.29,2.78-2.69,4.01-4.18,2.54-3.05,4.9-6.25,7.08-9.56l.25-.4.27.39c2.78,4.11,5.6,8.32,8.72,12.33.27.34.55.67.84.98.15.15.29.3.44.42l.1.07v.11c0,.11,0,.19,0-.1h.29c.39.05.79.01,1.17-.1.38-.11.73-.31,1.03-.56.63-.49,1.05-1.21,1.16-2.01.11-.79-.09-1.6-.55-2.25-1.61-3.09-3.02-6.17-4.46-9.21l-8.21-17.81-.17-.38h.41c1.6-.18,3.18-.52,4.72-1.01.73-.21,1.41-.55,2.02-.99.26-.19.45-.46.56-.76.05-.3,0-.6-.17-.86v-.08c-.13-.39-.35-.75-.65-1.03-.3-.29-.66-.49-1.06-.6-.84-.29-1.73-.44-2.62-.44-.91,0-1.78.08-2.75.07-.96-.04-1.89-.29-2.74-.73-1.67-.86-2.95-2.16-4.42-3.07-1.45-.92-3.06-1.55-4.75-1.85-3.36-.61-6.76-.08-10.02.21-3.26.29-6.41.92-9.46,1.55-10.58,2.45-20.77,6.33-30.31,11.54-6.23,3.39-12.26,7.12-18.07,11.18l-4.58,3.33-1.21.85-.28.21Z"/><path class="n" d="M80.59,485.11s-.13-.32-.25-.9c-.17-.84-.27-1.68-.3-2.53-.31-5.67,1.25-11.29,4.45-15.98.48-.71,1.01-1.38,1.58-2.01.41-.44.65-.67.68-.64.02.02-.76,1.09-1.88,2.9-2.93,4.73-4.45,10.2-4.39,15.76.02,2.07.23,3.39.12,3.41Z"/><path class="h" d="M54.11,358.45c-.59.4-21.93,6.78-25.29,28.64-3.36,21.87-1.38,59.96-1.38,59.96l57.87-3.98-16.6-76.88-14.61-7.75Z"/><path class="n" d="M177.07,467.23c-.1,0,.06-.79,0-1.99-.06-1.57-.48-3.11-1.21-4.5-.74-1.39-1.78-2.6-3.04-3.54-.97-.7-1.68-.99-1.65-1.1.69.08,1.34.34,1.9.74,1.42.89,2.57,2.15,3.35,3.64.79,1.49,1.17,3.16,1.08,4.85.01.66-.13,1.31-.42,1.9Z"/><path class="n" d="M182.4,460.75c-.28-1.87-.95-3.67-1.97-5.26-1.02-1.6-2.37-2.96-3.95-4,.57.1,1.11.34,1.56.7,1.17.77,2.16,1.78,2.91,2.96.76,1.18,1.26,2.5,1.47,3.89.14.56.13,1.15-.02,1.71Z"/><path class="n" d="M182.4,446.93c0-.06.55.18,1.21.78.86.79,1.55,1.75,2.02,2.82.47,1.07.72,2.22.72,3.39,0,.88-.16,1.42-.23,1.41-.18-1.55-.54-3.08-1.08-4.55-.73-1.38-1.62-2.67-2.64-3.84Z"/><path class="i" d="M78.25,406.77c-.1.02-.2.02-.3,0l-.87-.1c-1.12-.14-2.24-.21-3.37-.23-4.15-.04-8.26.72-12.12,2.24-5.73,2.24-10.66,6.15-14.15,11.23-2.07,2.93-3.14,6.46-3.03,10.05.08,1.89.64,3.72,1.62,5.33,1.03,1.63,2.6,2.85,4.44,3.44,1.83.61,3.82.51,5.58-.27.83-.4,1.56-.97,2.15-1.68.59-.71,1.01-1.53,1.25-2.42.4-1.77.33-3.61-.22-5.35-.49-1.68-1.27-3.25-2.3-4.67-1.83-2.45-4.13-4.51-6.76-6.07-2.63-1.56-5.55-2.58-8.58-3-4.11-.54-8.3.02-12.12,1.62-1.04.44-2.04.95-3.02,1.52l-.75.46-.27.13c1.2-.95,2.53-1.73,3.94-2.33,3.84-1.72,8.09-2.36,12.27-1.84,3.1.4,6.1,1.41,8.81,2.98s5.07,3.67,6.95,6.17c1.09,1.46,1.91,3.1,2.42,4.85.58,1.84.66,3.8.23,5.67-.26.98-.72,1.89-1.36,2.67-.64.78-1.45,1.41-2.36,1.84-1.91.85-4.07.95-6.06.3-1.97-.66-3.65-1.99-4.74-3.76-1.05-1.68-1.66-3.61-1.77-5.59-.08-3.73,1.05-7.39,3.24-10.42,3.57-5.15,8.61-9.1,14.47-11.31,3.91-1.5,8.07-2.2,12.26-2.06,1.53.04,3.05.23,4.53.57Z"/><path class="i" d="M76.28,375.37c-.46.28-.96.5-1.47.68-.58.26-1.18.47-1.79.64-.79.28-1.6.5-2.42.68-.99.25-1.99.44-2.99.57-1.09.18-2.25.24-3.49.33-2.68.08-5.36-.1-8-.55-2.63-.5-5.21-1.26-7.69-2.28-1.13-.51-2.21-.97-3.15-1.52-.9-.47-1.78-1-2.62-1.58-.71-.46-1.39-.95-2.04-1.48-.51-.37-.99-.78-1.44-1.21-.42-.34-.8-.72-1.14-1.14.08-.11,1.75,1.5,4.85,3.47.85.54,1.73,1.04,2.64,1.48,1.02.54,2.06,1.02,3.13,1.45,4.9,1.99,10.16,2.94,15.44,2.78,1.21-.07,2.42-.11,3.44-.27,1.02-.16,2.06-.3,2.97-.48,3.6-.76,5.72-1.7,5.77-1.58Z"/><path class="j" d="M81.05,412.45c.06.19.11.38.13.58.07.44.17.99.28,1.68.24,1.55.57,3.64.97,6.34.79,5.49,1.89,13.12,3.16,21.97v.33h-.32l-13.53.95-31.37,2.06-9.5.56-2.59.12h-.85c.29-.08.59-.12.9-.13l2.57-.23,9.5-.75,31.36-2.25,13.52-.91-.28.34c-1.21-8.86-2.21-16.5-2.93-21.99-.34-2.67-.61-4.85-.8-6.36-.08-.7-.15-1.21-.19-1.71-.04-.19-.04-.39-.02-.58Z"/><path class="j" d="M227.26,430.32l-45.94,80.22-65.06,2.25v7.15h190.06l51.73-84.73c.42-.73.65-1.56.65-2.4,0-.84-.21-1.67-.63-2.41s-1.01-1.35-1.74-1.78c-.72-.43-1.55-.67-2.39-.68h-122.51c-.84,0-1.67.22-2.4.64-.73.42-1.34,1.02-1.77,1.74Z"/><path class="e" d="M284.8,473.15c-2.89,4.49-7.27,6.78-9.92,5.1-2.64-1.67-2.36-6.65.52-11.14,2.88-4.49,7.27-6.78,9.92-5.1,2.64,1.67,2.36,6.65-.52,11.14Z"/><path class="j" d="M514.02,483.78c-.07-.21-.16-.42-.27-.62l-.84-1.79c-1-2.32-1.81-4.71-2.42-7.16-1.62-6.38-2.19-16.12.22-27.69,1.3-6.3,3.01-12.52,5.13-18.6,2.18-6.61,4.7-13.61,6.76-21.18,2.33-7.9,3.45-16.11,3.33-24.34-.3-8.61-2.86-17.2-5.66-25.76-2.8-8.56-5.69-16.97-6.56-25.37-.96-8.11.67-16.32,4.67-23.44,3.71-6.84,8.38-12.68,11.87-18.74,3.27-5.61,5.67-11.69,7.14-18.01,2.1-9.16,2.26-18.66.45-27.88-.64-3.38-1.61-6.68-2.91-9.87.04.22.1.44.17.65.15.47.34,1.1.59,1.89.73,2.43,1.33,4.89,1.81,7.38,1.67,9.18,1.42,18.61-.73,27.7-1.49,6.25-3.9,12.24-7.15,17.78-3.49,5.99-8.18,11.81-11.96,18.73-4.1,7.26-5.8,15.62-4.85,23.9.87,8.57,3.78,16.97,6.57,25.57,2.79,8.59,5.32,17.04,5.65,25.52.12,8.15-.98,16.27-3.26,24.09-2.02,7.54-4.52,14.55-6.67,21.17-2.09,6.12-3.78,12.37-5.05,18.7-2.35,11.65-1.69,21.49.07,27.88.66,2.46,1.54,4.86,2.64,7.15l.92,1.76c.09.21.2.4.34.58Z"/><path class="c" d="M525.45,295.06s7.09-22.68-5.64-35.97c-.1-.11-.22-.19-.36-.23-.14-.04-.29-.04-.43,0-.14.04-.27.12-.36.23-.1.11-.16.24-.19.39-.68,3.75-1.53,15.15,6.98,35.58Z"/><path class="j" d="M521.2,266.64c.02,1.41.18,2.82.48,4.19.46,2.87,1.01,6.27,1.61,10,.61,3.73,1.13,7.13,1.59,10.01.12,1.4.37,2.78.75,4.13.13-1.41.09-2.82-.12-4.22-.24-2.59-.69-6.16-1.35-10.07-.65-3.92-1.32-7.43-1.87-9.98-.22-1.39-.59-2.76-1.1-4.07Z"/><path class="h" d="M517.17,348.57s-4.34-23.37-21.82-29.09c-.14-.05-.29-.06-.43-.03-.14.03-.27.1-.38.2s-.18.23-.21.37c-.04.14-.03.29.02.43,1.11,3.56,5.7,14.05,22.83,28.12Z"/><path class="j" d="M500.07,325.45c.69,1.23,1.5,2.39,2.42,3.47,1.76,2.34,3.82,5.07,6.06,8.09l6.06,8.11c.77,1.18,1.64,2.29,2.61,3.31-.55-1.29-1.25-2.51-2.09-3.64-1.42-2.18-3.49-5.12-5.89-8.28-2.4-3.16-4.64-5.95-6.33-7.94-.82-1.15-1.78-2.19-2.85-3.12Z"/><path class="h" d="M521.84,407.2s2.63-23.63-12.4-34.23c-.12-.07-.25-.12-.39-.12-.14,0-.28.02-.4.09-.12.06-.23.16-.3.28-.07.12-.12.25-.12.39.01,3.82,1.36,15.18,13.61,33.6Z"/><path class="j" d="M512.24,380.12c.29,1.38.73,2.72,1.3,4.01,1.01,2.75,2.18,5.96,3.49,9.52,1.31,3.55,2.42,6.78,3.47,9.53.39,1.35.9,2.66,1.53,3.92-.14-1.4-.44-2.78-.92-4.11-.73-2.51-1.85-5.92-3.24-9.7-1.38-3.78-2.72-7.06-3.75-9.44-.49-1.31-1.12-2.56-1.88-3.72Z"/><path class="h" d="M508.69,466.18s1.79-23.71-13.6-33.77c-.12-.08-.26-.12-.4-.12-.14,0-.28.03-.41.1-.12.07-.23.17-.3.3-.07.12-.11.26-.1.41.16,3.81,1.9,15.12,14.81,33.09Z"/><path class="j" d="M498.13,439.46c.33,1.37.8,2.7,1.41,3.96l3.83,9.38c1.43,3.52,2.72,6.69,3.81,9.39.44,1.34,1,2.63,1.67,3.87-.19-1.4-.56-2.77-1.08-4.09-.81-2.42-2.06-5.84-3.58-9.52-1.52-3.67-2.97-6.95-4.07-9.29-.53-1.31-1.19-2.56-1.99-3.72Z"/><path class="h" d="M535.65,275.13s21.07-11.01,21.48-29.4c0-.14-.03-.28-.1-.41-.07-.12-.17-.23-.3-.3-.12-.07-.27-.1-.41-.1-.14,0-.28.05-.4.12-3.15,2.16-11.82,9.61-20.27,30.08Z"/><path class="j" d="M552.75,252.05c-.98,1.01-1.86,2.11-2.62,3.3-1.72,2.36-3.72,5.14-5.94,8.21-2.22,3.07-4.24,5.84-5.96,8.19-.91,1.08-1.72,2.23-2.42,3.45,1.09-.9,2.06-1.93,2.9-3.07,1.66-2,3.87-4.85,6.18-8.06,2.32-3.21,4.33-6.18,5.73-8.38.85-1.13,1.57-2.35,2.13-3.65Z"/><path class="h" d="M513.02,323.85s21.7-9.7,23.24-28.04c.02-.15,0-.3-.07-.43-.06-.13-.17-.25-.29-.33-.13-.08-.27-.12-.42-.12-.15,0-.3.05-.42.13-3.24,2.04-12.35,8.9-22.03,28.79Z"/><path class="j" d="M531.5,301.86c-1.05.94-2,1.99-2.82,3.13l-6.42,7.83-6.45,7.82c-.97,1.02-1.84,2.13-2.61,3.31,1.14-.84,2.17-1.81,3.08-2.9,1.78-1.89,4.16-4.59,6.67-7.66,2.51-3.07,4.69-5.92,6.23-8.01.9-1.08,1.68-2.26,2.33-3.52Z"/><path class="h" d="M525.5,378.19s14.9-18.52,7.92-35.53c-.05-.13-.14-.25-.26-.34-.12-.09-.25-.14-.4-.15-.14-.01-.29.01-.42.08-.13.06-.24.16-.32.28-2,3.24-6.97,13.55-6.52,35.66Z"/><path class="j" d="M531.94,350.2c-.5,1.32-.86,2.68-1.09,4.07-.62,2.85-1.35,6.19-2.15,9.9s-1.55,7.04-2.18,9.89c-.39,1.35-.67,2.73-.81,4.12.63-1.26,1.11-2.59,1.42-3.96.73-2.5,1.61-5.99,2.42-9.87.81-3.88,1.48-7.41,1.89-9.98.32-1.37.49-2.77.5-4.18Z"/><path class="c" d="M510.75,442.15s21.53-10.06,22.75-28.41c.01-.15-.01-.3-.08-.43-.07-.13-.17-.24-.3-.32-.13-.08-.27-.12-.42-.12-.15,0-.29.05-.42.13-3.21,2.02-12.21,9.1-21.54,29.15Z"/><path class="j" d="M528.86,419.85c-1.03.96-1.96,2.03-2.78,3.18l-6.29,7.95-6.25,7.95c-.95,1.04-1.8,2.16-2.55,3.36,1.12-.86,2.13-1.85,3.02-2.95,1.76-1.92,4.08-4.67,6.55-7.78s4.59-5.99,6.06-8.11c.88-1.12,1.63-2.32,2.24-3.6Z"/><path class="j" d="M467.86,348.7v2.04c.06,1.43.15,3.36.25,5.77.27,5.07.65,12.12,1.13,20.61,1.54,8.59,5.92,18.18,11.81,27.38,4.32,6.82,8.84,13.02,12.74,18.79,3.55,5.02,6.74,10.29,9.55,15.76,1.85,3.71,3.35,7.59,4.47,11.59.38,1.42.65,2.52.82,3.29.07.39.17.77.32,1.14-.01-.41-.06-.81-.15-1.21-.1-.78-.33-1.9-.67-3.35-1.01-4.06-2.43-8-4.23-11.77-2.75-5.55-5.91-10.89-9.44-15.98-3.88-5.81-8.38-12.01-12.67-18.8-5.86-9.21-10.22-18.6-11.81-27.06-.59-8.49-1.08-15.5-1.44-20.61-.19-2.42-.35-4.32-.46-5.75,0-.61-.11-1.1-.16-1.52-.02-.11-.04-.22-.07-.33Z"/><path class="c" d="M480.68,402.75s-9.12-21.94,2.35-36.37c.09-.12.21-.2.35-.26.14-.05.28-.06.43-.04.14.03.28.09.38.19.11.1.19.23.23.37,1.02,3.71,2.9,15-3.73,36.1Z"/><path class="j" d="M482.34,374.07c-.39,1.35-.63,2.75-.72,4.16-.33,2.58-.69,6.16-.97,10.11-.28,3.95-.41,7.55-.41,10.15-.09,1.41,0,2.83.25,4.22.25-1.38.37-2.79.36-4.19.19-2.91.42-6.33.68-10.11.25-3.78.51-7.2.7-10.11.18-1.4.21-2.81.1-4.22Z"/><g class="r"><path class="d" d="M480.68,402.75s-9.12-21.94,2.35-36.37c.09-.12.21-.2.35-.26.14-.05.28-.06.43-.04.14.03.28.09.38.19.11.1.19.23.23.37,1.02,3.71,2.9,15-3.73,36.1Z"/></g><path class="h" d="M508.93,455.65s-7.27-22.62,5.28-36.02c.1-.11.22-.19.36-.23.14-.04.29-.04.43,0,.14.04.27.12.37.22.1.11.17.24.2.38.72,3.73,1.66,15.14-6.64,35.64Z"/><path class="j" d="M512.91,427.2c-.51,1.32-.86,2.69-1.05,4.08-.53,2.55-1.21,6.06-1.78,9.99-.57,3.93-1.03,7.49-1.21,10.09-.2,1.4-.22,2.81-.08,4.22.37-1.36.61-2.74.71-4.15.42-2.88.93-6.28,1.49-10.01.56-3.73,1.09-7.14,1.53-10.02.27-1.38.41-2.79.4-4.19Z"/><g class="r"><path class="d" d="M508.93,455.65s-7.27-22.62,5.28-36.02c.1-.11.22-.19.36-.23.14-.04.29-.04.43,0,.14.04.27.12.37.22.1.11.17.24.2.38.72,3.73,1.66,15.14-6.64,35.64Z"/></g><path class="h" d="M469.06,375.89s-19.47-13.63-17.5-31.92c.01-.15.07-.29.15-.4.09-.12.21-.21.34-.26.14-.05.28-.07.43-.04.14.03.28.09.39.19,2.82,2.59,10.46,11.12,16.2,32.44Z"/><g class="r"><path class="d" d="M469.06,375.89s-19.47-13.63-17.5-31.92c.01-.15.07-.29.15-.4.09-.12.21-.21.34-.26.14-.05.28-.07.43-.04.14.03.28.09.39.19,2.82,2.59,10.46,11.12,16.2,32.44Z"/></g><path class="j" d="M455.08,350.83c.38,1.36.93,2.66,1.61,3.89,1.12,2.35,2.73,5.56,4.61,9.05,1.88,3.49,3.64,6.59,5.09,8.79.69,1.24,1.52,2.38,2.49,3.42-.53-1.3-1.18-2.55-1.94-3.73l-4.85-8.9-4.85-8.91c-.6-1.27-1.32-2.48-2.16-3.61Z"/><path class="h" d="M501.08,433.23s-23.49-3.64-29.78-20.95c-.05-.14-.06-.28-.03-.42.03-.14.09-.27.19-.38s.22-.18.36-.22c.14-.04.29-.04.43,0,3.72,1.01,14.28,5.32,28.84,21.98Z"/><g class="r"><path class="d" d="M501.08,433.23s-23.49-3.64-29.78-20.95c-.05-.14-.06-.28-.03-.42.03-.14.09-.27.19-.38s.22-.18.36-.22c.14-.04.29-.04.43,0,3.72,1.01,14.28,5.32,28.84,21.98Z"/></g><path class="j" d="M477.46,416.86c.95,1.04,2.02,1.97,3.18,2.78,2.02,1.62,4.85,3.79,8.12,6.06,3.27,2.27,6.22,4.29,8.49,5.65,1.16.81,2.41,1.48,3.73,1.98-1.05-.93-2.18-1.77-3.38-2.5l-8.3-5.81-8.26-5.88c-1.11-.88-2.31-1.64-3.58-2.28Z"/><path class="o" d="M528.86,476.46l-6.73,44.19-26.91-.05-9.06-44.14h42.69Z"/><path class="j" d="M490.11,493.48s.06.07.22.17.39.24.71.4c.95.46,1.96.76,3.01.9,1.66.22,3.35.07,4.95-.46,2.15-.68,4.01-2.04,5.32-3.87.72-1.1,1.14-2.38,1.21-3.7.07-.74-.06-1.49-.38-2.15-.32-.67-.82-1.24-1.45-1.64-.71-.35-1.51-.51-2.3-.44-.79.06-1.56.34-2.2.81-1.34.98-2.26,2.43-2.57,4.06-.36,1.64-.47,3.32-.34,4.99.09,1.75.46,3.47,1.09,5.1.66,1.71,1.73,3.24,3.12,4.45,1.44,1.27,3.26,2.03,5.18,2.16,1.92.04,3.8-.5,5.39-1.56,1.53-.98,2.89-2.21,4.01-3.64,1.16-1.37,1.87-3.06,2.04-4.85.07-.88-.07-1.75-.4-2.57-.33-.81-.85-1.54-1.51-2.11-.68-.5-1.49-.8-2.34-.85-.85-.05-1.69.14-2.43.56-.71.35-1.32.86-1.8,1.5-.48.63-.8,1.36-.95,2.14-.2,1.37.02,2.78.62,4.02.61,1.25,1.58,2.28,2.78,2.97,1.99,1.08,4.29,1.41,6.5.95,1.63-.34,3.19-.96,4.62-1.82.9-.53,1.77-1.11,2.59-1.75.3-.21.59-.45.84-.72-.32.18-.63.38-.92.59-.59.39-1.47.98-2.64,1.62-1.42.8-2.96,1.35-4.56,1.65-2.1.41-4.29.06-6.16-.98-1.09-.64-1.97-1.6-2.51-2.74-.55-1.14-.74-2.43-.55-3.68.13-.68.42-1.31.84-1.86.42-.54.96-.98,1.58-1.28.62-.37,1.34-.54,2.06-.5s1.41.3,1.99.74c.57.51,1.02,1.15,1.3,1.86s.4,1.48.33,2.25c-.17,1.64-.83,3.19-1.9,4.45-1.07,1.36-2.37,2.53-3.83,3.45-1.47.97-3.21,1.48-4.97,1.45-1.75-.13-3.41-.83-4.73-1.99-1.3-1.13-2.31-2.55-2.93-4.16-.6-1.55-.96-3.19-1.05-4.85-.13-1.6-.03-3.21.29-4.79.28-1.45,1.09-2.75,2.28-3.64.55-.41,1.19-.66,1.87-.72.68-.07,1.36.05,1.97.35.53.34.96.83,1.24,1.4.28.57.39,1.21.33,1.84-.07,1.23-.45,2.41-1.12,3.44-1.23,1.75-2.99,3.07-5.02,3.76-1.5.5-3.09.66-4.67.48-1.4-.18-2.77-.59-4.04-1.21Z"/><path class="k" d="M89.58,254.88c-4.26-2.71-5.3-8.99-2.99-13.48,1.28-2.19,3.05-4.06,5.17-5.45s4.53-2.28,7.05-2.6c3.63-.55,7.33-.25,10.81.9,3.48,1.15,6.65,3.1,9.23,5.71,2.76,2.83,4.96,6.61,8.73,7.83,3.3,1.14,6.92.12,10.38.56,2.3.42,4.48,1.34,6.37,2.71,1.9,1.37,3.46,3.14,4.58,5.19,2.2,4.12,3.52,8.66,3.88,13.32.51,4.25.84,8.92,3.78,12.01,2.94,3.09,7.42,3.67,10.99,5.82,3.28,2.17,5.58,5.53,6.42,9.37.84,3.84.14,7.85-1.94,11.19-1.42,2.05-3.45,3.95-3.62,6.44-.17,2.5,1.32,4.31,2.02,6.49.36,1.41.42,2.87.16,4.3-.25,1.43-.81,2.79-1.64,3.98s-1.89,2.2-3.14,2.95c-1.25.75-2.64,1.22-4.08,1.38-2.96.17-6.13-.99-8.79.33-2.66,1.32-3.62,4.51-5.32,6.92-1.73,2.34-4.21,4.01-7.02,4.74-2.82.73-5.8.47-8.44-.74-2.18-1.07-4.25-2.83-6.61-2.68-2.36.15-4.31,2.23-6.61,2.69-3.12.61-6.08-1.65-7.93-4.26-1.85-2.61-3.14-5.62-5.52-7.72-3.11-2.78-7.47-3.45-11.38-4.81-4.36-1.49-8.35-3.89-11.7-7.05-3.35-3.16-5.98-7-7.72-11.27-1.74-4.26-2.54-8.85-2.35-13.45.19-4.6,1.37-9.11,3.45-13.21"/><path class="m" d="M74.54,264.55v6.44l-.42,79.94c0,11.2,9.55,20.17,21.54,20.13,12.12,0,22.12-9.24,22.35-20.61,0-2.66.73-7.81.73-7.81,0,0,15.35-2.27,18.87-22.18,1.76-9.89,1.54-26.18.95-39.51-.13-2.84-.83-5.63-2.06-8.2-1.23-2.56-2.97-4.85-5.11-6.73-2.14-1.87-4.64-3.3-7.34-4.18s-5.56-1.21-8.39-.96l-41.11,3.66Z"/><path class="j" d="M133.88,293.2c0,.67-.27,1.31-.74,1.78-.47.48-1.11.75-1.78.76-.33.02-.66-.02-.97-.13-.31-.11-.6-.28-.84-.5-.24-.22-.44-.49-.57-.79-.14-.3-.21-.62-.22-.95,0-.67.27-1.3.74-1.78.47-.47,1.1-.75,1.77-.76.33-.03.66.02.97.12s.6.27.84.49c.24.22.44.49.58.79.14.3.21.62.22.95Z"/><path class="j" d="M134.88,289.42c-.33.33-2.23-1.15-4.99-1.21-2.76-.06-4.85,1.3-5.09.96-.15-.16.19-.75,1.08-1.37,1.2-.82,2.63-1.24,4.09-1.21,1.43.02,2.82.5,3.96,1.36.84.71,1.12,1.32.96,1.48Z"/><path class="j" d="M107.78,292.69c0,.67-.27,1.31-.74,1.78-.47.47-1.11.74-1.78.75-.33.02-.65-.02-.96-.13-.31-.11-.59-.28-.84-.5-.24-.22-.44-.49-.57-.78-.14-.3-.21-.62-.22-.95,0-.67.27-1.31.74-1.78.47-.47,1.1-.75,1.77-.76.33-.02.66.02.97.12.31.11.6.28.84.5.24.22.44.49.58.79.14.3.21.62.22.95Z"/><path class="j" d="M107.79,289.44c-.33.33-2.24-1.14-4.99-1.21-2.75-.07-4.85,1.3-5.09.96-.15-.16.19-.75,1.08-1.38,1.21-.81,2.63-1.23,4.09-1.21,1.44.02,2.83.49,3.98,1.36.82.74,1.1,1.35.95,1.49Z"/><path class="j" d="M117.43,310.06c1.46-.43,2.97-.68,4.49-.74.71,0,1.38-.18,1.5-.65.07-.73-.08-1.46-.42-2.1-.64-1.72-1.3-3.52-1.99-5.39-2.75-7.69-4.74-13.99-4.42-14.1.32-.11,2.79,6.06,5.54,13.71l1.9,5.42c.43.86.54,1.84.31,2.78-.11.25-.28.47-.49.64s-.46.3-.72.36c-.4.09-.8.14-1.21.15-1.49.15-3,.13-4.49-.07Z"/><path class="n" d="M118.75,342.69c-9.42-.01-18.66-2.65-26.67-7.61,0,0,6.1,13.97,26.12,12.46l.55-4.84Z"/><path class="n" d="M116.14,316.68c-.51-.67-1.18-1.2-1.96-1.54-.77-.34-1.62-.47-2.46-.39-.61.04-1.2.21-1.75.49s-1.03.66-1.42,1.13c-.38.45-.6,1.01-.65,1.59-.05.59.08,1.17.37,1.68.44.51,1.02.88,1.67,1.06.65.18,1.34.15,1.97-.07,1.31-.44,2.52-1.13,3.56-2.04.31-.22.58-.49.8-.8.1-.15.15-.33.15-.52s-.05-.36-.15-.52"/><path class="j" d="M109.28,311.82c.45,0,.4,2.97,2.93,5.14,2.53,2.17,5.71,1.89,5.72,2.32,0,.18-.71.57-2.06.58-1.76,0-3.45-.63-4.79-1.77-1.29-1.08-2.1-2.63-2.25-4.3-.1-1.19.25-1.99.45-1.96Z"/><path class="j" d="M108.7,278.65c-.29.74-3.03.34-6.27.67-3.24.33-5.88,1.21-6.29.49-.18-.33.28-1.02,1.35-1.72,1.41-.89,3.02-1.42,4.68-1.55,1.65-.16,3.31.07,4.85.67,1.21.51,1.81,1.1,1.68,1.45Z"/><path class="j" d="M134.01,281.41c-.5.62-2.42-.06-4.67-.13-2.24-.07-4.22.34-4.65-.32-.18-.33.13-.95.98-1.53,1.15-.69,2.48-1.03,3.82-.96,1.34.07,2.63.53,3.7,1.33.79.65,1.04,1.26.82,1.6Z"/><path class="k" d="M59.29,268.09c-1.21,1.84-1.97,3.93-2.21,6.12-.25,2.18.03,4.4.79,6.46.88,2.3,2.38,4.84,1.21,7.01-1.17,2.16-4.25,2.25-6.61,3.07-2.04.77-3.75,2.23-4.82,4.12-1.07,1.9-1.44,4.11-1.05,6.25.56,1.46.81,3.02.74,4.58-.58,1.52-1.52,2.88-2.74,3.95-1.31,1.55-2.18,3.42-2.54,5.42-.36,2-.18,4.05.5,5.96.69,1.91,1.87,3.6,3.42,4.91,1.55,1.31,3.42,2.19,5.41,2.55,1.83.08,3.64.49,5.32,1.22,1.8,1.11,2.58,3.31,3.85,4.96,1.22,1.63,2.92,2.83,4.86,3.43,1.94.61,4.02.59,5.95-.05,1.93-.64,3.61-1.87,4.81-3.51,1.2-1.65,1.84-3.62,1.86-5.66"/><path class="b" d="M139.53,276.74c.08,0,0,.99.17,2.74.25,2.47.98,4.88,2.15,7.07.79,1.52,1.79,2.91,2.97,4.15,1.39,1.39,2.94,2.61,4.63,3.62.93.61,1.79,1.32,2.56,2.12.8.87,1.37,1.94,1.65,3.09.36,2.38.36,4.81,0,7.19-.18,1.11-.14,2.25.12,3.35.26,1.1.74,2.13,1.4,3.05,1.51,1.53,3.32,2.73,5.32,3.54,1.86.8,3.6,1.87,5.14,3.19.68.65,1.24,1.43,1.65,2.28.35.8.57,1.65.64,2.51.12,1.29-.05,2.59-.5,3.81-.44,1.22-1.15,2.33-2.07,3.24-.52.47-1.1.86-1.73,1.16-.43.18-.66.26-.68.23.79-.46,1.51-1.02,2.16-1.65.83-.9,1.45-1.97,1.83-3.13.38-1.16.5-2.39.37-3.61-.17-1.66-.94-3.21-2.16-4.35-1.5-1.23-3.17-2.24-4.96-2.99-2.11-.83-4.03-2.09-5.62-3.7-.82-.94-1.39-2.08-1.65-3.3-.22-1.22-.28-2.46-.17-3.69.35-2.29.35-4.63,0-6.92-.64-2.03-2.04-3.73-3.9-4.76-1.72-1.07-3.29-2.34-4.69-3.8-1.2-1.3-2.2-2.76-2.97-4.35-1.15-2.28-1.82-4.77-1.95-7.32-.06-.69-.06-1.38,0-2.07.06-.25.15-.48.28-.69Z"/><path class="p" d="M91.65,250.51c0,2.03.43,4.05,1.29,5.89.86,1.85,2.11,3.48,3.67,4.79,1.56,1.31,3.39,2.25,5.36,2.77,1.97.52,4.03.6,6.03.23,3.09-.56,6.48-2.13,9.15-.48,2.68,1.65,2.94,5.98,5.44,8.15,3.57,3.09,9.24.18,13.76,1.54,3.5,1.02,5.68,4.38,8.01,7.19,2.33,2.81,5.8,5.49,9.3,4.45-.11-3.15-.58-6.29-1.39-9.34-.84-3.07-2.72-5.75-5.3-7.6-1.45-.94-3.12-1.52-4.48-2.59-2.89-2.35-3.57-6.43-5.37-9.7-1.18-2.11-2.84-3.9-4.86-5.23-2.01-1.33-4.31-2.17-6.71-2.43-3.98-.41-8.1.78-11.98-.2-2.86-.73-5.37-2.58-8.26-3.14-5.65-1.07-10.92,2.99-15.02,7.04"/><path class="p" d="M80.99,294.39c-.44.22-.8.58-1.02,1.03-.22.45-.28.95-.18,1.44.1.49.35.93.72,1.25.37.33.84.52,1.34.56,6.81,1.54,7.7-11.75,6.18-15.53,2.57-2.12,4.86-4.55,6.82-7.24,2.18-4.25,3.26-8.97,3.14-13.75,2.45.15,12.89-3.3,11.78-3.62-2.54-.73-7.73-2.36-9.1-4.58-1.37-2.36-3.33-4.33-5.7-5.69-2.37-1.36-5.05-2.07-7.78-2.06-2.76.21-5.38,1.31-7.47,3.14-2.09,1.83-3.52,4.28-4.1,6.99-3.31.11-6.52,1.12-9.31,2.91-2.78,1.79-5.03,4.3-6.51,7.27-1.52,3.1-2.26,6.53-2.16,9.99.1,3.45,1.04,6.83,2.74,9.84,1.1,1.45,1.81,3.16,2.07,4.96,0,2.25-1.65,4.03-2.81,5.9-3.22,5.09-2.97,12.06-.5,17.6,2.48,5.54,4.23,7.47,7.75,8.58,6.91,2.16-1.09,16.39,10.39,16.39"/><path class="b" d="M171.29,307.8s.26-.38.69-1.16c.77-1.45,1.15-3.07,1.11-4.71-.04-1.64-.49-3.24-1.33-4.66-1.56-2.16-3.78-3.75-6.33-4.53-2.74-1.11-6.1-1.78-9.04-3.98-2.95-2.52-4.83-6.06-5.27-9.91-.66-4-.33-8.26-.64-12.46-.12-2.16-.55-4.28-1.29-6.31-.72-2.08-1.97-3.93-3.62-5.39-1.72-1.36-3.8-2.2-5.98-2.43-2.15-.24-4.32-.17-6.44.2-2.1.45-4.22.74-6.36.88-1.07.07-2.14-.08-3.15-.44-1.01-.36-1.93-.92-2.72-1.64-1.31-1.5-2.42-3.17-3.31-4.96-.86-1.56-2.08-2.89-3.55-3.88-2.7-1.76-5.95-2.46-9.14-1.97-2.63.4-5.08,1.55-7.07,3.3-1.5,1.35-2.77,2.95-3.73,4.73-.79,1.54-1.41,3.16-1.87,4.83v-.35c.04-.34.1-.67.2-.99.31-1.26.76-2.48,1.34-3.64.94-1.85,2.19-3.53,3.7-4.96,2.03-1.89,4.57-3.16,7.3-3.64,3.35-.55,6.78.16,9.63,1.98,1.57,1.05,2.88,2.45,3.8,4.1.88,1.69,1.96,3.26,3.22,4.68.72.65,1.56,1.15,2.47,1.47.91.32,1.88.44,2.85.37,2.1-.14,4.18-.44,6.23-.89,2.18-.37,4.41-.44,6.61-.21,2.35.26,4.57,1.17,6.43,2.63,1.77,1.55,3.11,3.53,3.88,5.75.76,2.13,1.2,4.35,1.32,6.61.31,4.36,0,8.53.59,12.41.38,3.69,2.15,7.09,4.96,9.52,2.74,2.12,6.05,2.84,8.82,4,2.65.84,4.95,2.55,6.53,4.84,1.05,1.82,1.48,3.94,1.21,6.03-.14,1.3-.57,2.55-1.26,3.67-.22.41-.49.79-.81,1.12Z"/><path class="b" d="M52.93,327.8c-.15-.02-.3-.07-.45-.13-.42-.17-.83-.38-1.22-.61-1.47-.93-2.69-2.2-3.55-3.72-.69-1.18-1.14-2.49-1.3-3.85-.17-1.36-.06-2.74.33-4.05.52-1.71,1.46-3.27,2.73-4.54,1.27-1.26,2.84-2.19,4.55-2.7l-.18.58c-1.52-1.78-2.64-3.87-3.3-6.11-.35-1.24-.43-2.54-.22-3.81.21-1.27.7-2.48,1.43-3.54.79-1.14,1.91-2.01,3.22-2.48,1.34-.37,2.74-.44,4.11-.21,1.3.23,2.62.28,3.93.17.63-.07,1.23-.29,1.76-.64.53-.35.96-.82,1.27-1.37.82-1.75.95-3.74.38-5.59-.48-1.87-1.29-3.67-1.65-5.6-.83-3.7-.34-7.58,1.39-10.96,1.54-3.01,4-5.44,7.02-6.94,2.56-1.27,5.41-1.84,8.26-1.65l-.3.25c.3-2.09,1.34-4,2.94-5.37,1.14-1.03,2.51-1.77,4-2.15.94-.22,1.92-.26,2.88-.12.33.04.65.12.96.25-1.26-.19-2.54-.12-3.77.18-1.44.38-2.76,1.12-3.85,2.13-1.48,1.31-2.43,3.12-2.68,5.09v.26h-.28c-2.73-.15-5.44.42-7.88,1.65-2.85,1.45-5.16,3.76-6.61,6.61-1.61,3.23-2.06,6.91-1.27,10.43.41,1.82,1.22,3.6,1.74,5.59.64,2.05.47,4.26-.46,6.2-.35.67-.86,1.25-1.48,1.69-.62.44-1.34.72-2.09.83-1.39.14-2.79.08-4.16-.17-1.25-.21-2.53-.16-3.75.17-1.14.41-2.12,1.17-2.81,2.16-.66.95-1.1,2.04-1.29,3.18-.19,1.14-.14,2.31.17,3.43.6,2.14,1.64,4.13,3.04,5.85l.33.43-.51.13c-1.62.47-3.1,1.32-4.3,2.5-1.21,1.17-2.11,2.63-2.62,4.23-.38,1.24-.5,2.55-.37,3.84.13,1.29.52,2.54,1.15,3.68.79,1.49,1.92,2.77,3.3,3.73.91.81,1.5,1.04,1.49,1.09Z"/><path class="b" d="M92.99,255.29c-.96.49-1.79,1.18-2.45,2.03-1.38,2.59-1.7,5.61-.89,8.43v.31h-.3c-1.75.47-3.37,1.34-4.74,2.54-1.36,1.2-2.43,2.7-3.11,4.38-.38.95-.6,1.95-.64,2.97.03,1.11.15,2.22.38,3.3.24,1.14.4,2.3.48,3.47.08,1.28-.26,2.54-.97,3.6-1.59,2.01-3.67,3.58-6.05,4.54-2.08.92-3.99,2.17-5.67,3.7-2.75,2.71-4.38,6.37-4.54,10.23-.07,2.61.5,5.2,1.65,7.53.81,1.65,1.49,2.45,1.42,2.51-.2-.17-.37-.36-.53-.56-.45-.56-.85-1.17-1.19-1.8-1.3-2.36-1.96-5.01-1.92-7.7.11-4.04,1.76-7.88,4.63-10.72,1.71-1.62,3.68-2.93,5.83-3.88,2.24-.95,4.2-2.46,5.7-4.38,1.35-1.85.74-4.28.4-6.46-.23-1.12-.35-2.25-.38-3.39.05-1.13.29-2.25.71-3.3.75-1.78,1.9-3.37,3.37-4.62,1.47-1.26,3.21-2.15,5.09-2.61l-.23.56c-.73-3.75-.17-7.06,1.22-8.79.5-.66,1.15-1.19,1.9-1.55.26-.16.53-.27.83-.35Z"/></svg>
