<?xml version="1.0" encoding="UTF-8"?>
<svg id="a" data-name="Layer 1" xmlns="http://www.w3.org/2000/svg" viewBox="0 0 566.9291 566.9291">
  <defs>
    <style>
      .b, .c, .d, .e, .f, .g {
        fill: none;
      }

      .b, .h, .d, .i, .e, .f, .j, .k, .l, .m, .n, .g, .o {
        stroke: #2e353a;
      }

      .b, .j {
        stroke-miterlimit: 10;
        stroke-width: .9473px;
      }

      .p {
        opacity: .5;
      }

      .c {
        stroke: #09f;
      }

      .c, .h, .d, .i, .e, .f, .k, .l, .m, .n, .g, .o {
        stroke-linecap: round;
        stroke-linejoin: round;
      }

      .c, .i, .o {
        stroke-width: 1.1359px;
      }

      .h, .q, .j, .k, .o {
        fill: #fff;
      }

      .h, .n {
        stroke-width: 1.2727px;
      }

      .d {
        stroke-width: 1.2105px;
      }

      .r {
        fill: #e30613;
      }

      .r, .q, .s, .t {
        stroke-width: 0px;
      }

      .i, .l {
        fill: #09f;
      }

      .e, .k, .l, .m {
        stroke-width: 1.4364px;
      }

      .s, .m, .n {
        fill: #2e353a;
      }

      .t {
        fill: #202020;
      }

      .f {
        stroke-width: .568px;
      }

      .g {
        stroke-width: .7182px;
      }
    </style>
  </defs>
  <g>
    <path class="t" d="M208.8808,90.3988c1.8323-.7402,1.1458-.5504,1.4158-.6769-3.0559,1.2677-1.3306.6656-1.4158.6769Z"/>
    <polygon class="t" points="179.5651 104.6023 180.0431 104.2765 175.9623 106.8153 179.5651 104.6023"/>
    <path class="t" d="M154.3068,121.6155c1.177-.8334,3.4053-2.462,5.8613-4.3192,1.2449-.9047,2.4912-1.946,3.8157-2.7981,1.3096-.873,2.5798-1.7197,3.7107-2.4735l.7617-.4701,1.9741-1.4576c-1.3682.9227-2.8386,1.9146-4.335,2.9238-1.4875,1.0212-3.0413,2.0024-4.437,3.1011-2.8435,2.1249-5.4883,4.1014-7.3516,5.4937Z"/>
    <path class="t" d="M141.7499,131.947c.781-.6349-2.5718,2.4034,2.8196-2.5403-.2764.2412-.3564.3112-.5181.4519-.4873.4424-1.1589,1.0518-2.3015,2.0884Z"/>
    <path class="t" d="M144.0514,129.8586c2.3762-2.1659-1.5872,1.3801,0,0h0Z"/>
    <path class="t" d="M133.3468,140.1355l2.9539-3.0336c-.6475.6029-3.3142,3.2677-2.3425,2.2593-3.0483,3.0967-2.3931,2.4852-.6113.7743Z"/>
    <path class="t" d="M130.631,143.0897c.4795-.5524.9705-1.094,1.491-1.6077-.2808.2633-.7063.6592-1.491,1.6077Z"/>
    <path class="t" d="M135.3739,138.157l-3.252,3.3251c.4495-.4183.5281-.4316,1.4958-1.5233-.2383.2991.3816-.3804,1.7561-1.8018Z"/>
    <path class="t" d="M137.2484,136.3075c.843-.8361,1.8191-1.7826,2.238-2.1143.4175-.3335.1677-.1671-1.3264,1.3412,2.9275-2.7916,4.2268-3.9298,3.9761-3.7615-.1187.0911-.6111.5234-1.4473,1.2747-.8337.7537-2.0388,1.7976-3.4404,3.2599Z"/>
    <path class="t" d="M153.1974,122.72c.823-.6616,1.6399-1.3307,2.5093-1.9326l2.1709-1.6727c-.5522.4091-1.7764,1.3162-2.8459,2.1088-1.0579.807-1.9185,1.549-1.8342,1.4966Z"/>
    <path class="t" d="M116.099,160.0646c-.1333.2306.9128-1.0944,1.1316-1.3242.5955-.8567,1.2568-1.6622,1.9092-2.4751-1.0764,1.1976-2.8721,3.6602-3.0408,3.7993Z"/>
    <path class="t" d="M117.2306,158.7403l-2.7454,3.7876c2.4939-3.351,2.9294-3.9792,2.7454-3.7876Z"/>
    <path class="t" d="M130.2411,143.7572l1.2671-1.4423,1.3345-1.3793,2.6716-2.7577c-2.1294,2.189-4.29,4.3463-6.2644,6.678l.9912-1.0988Z"/>
    <path class="t" d="M105.8698,174.7169c.4502-.7617.939-1.499,1.4067-2.2501l-1.2708,1.9927-1.1755,2.0519,1.0396-1.7944Z"/>
    <path class="t" d="M99.839,184.923c.8816-1.7568-1.3643,2.322-.4099.4771-1.5071,2.8485-2.8127,5.2712-3.887,7.5023,1.1653-2.3584,2.5469-4.8026,4.2969-7.9794Z"/>
    <path class="t" d="M93.8041,196.6808c.5483-1.1923,1.1179-2.4304,1.738-3.7784-.583,1.2675-1.1565,2.5145-1.738,3.7784Z"/>
    <path class="t" d="M109.8666,169.0157c-.2168.2904-.644.8418-2.1211,3.0104l1.095-1.481c.3127-.4663.6667-.994,1.0261-1.5294Z"/>
    <path class="t" d="M108.8788,170.4929l-.0383.0522c-1.113,1.6572-1.885,2.8066-2.2158,3.2991.2847-.4232.9629-1.4318,2.2542-3.3513Z"/>
    <path class="t" d="M110.1249,168.6307c-.095.1415-.1648.2457-.2583.385.1055-.1423.1672-.2296.2583-.385Z"/>
    <path class="t" d="M122.1088,152.9176c-1.7048,2.1555-5.2913,6.6123-1.7244,2.3752,1.2029-1.5599-.8398.8667,1.7244-2.3752Z"/>
    <path class="t" d="M111.484,166.7943c.927-1.3708,1.9648-2.6633,2.9419-3.9987-.0764.0651-.6367.7649.1548-.3418-1.0288,1.4497-2.1184,2.8562-3.0967,4.3405Z"/>
    <polygon class="t" points="110.1532 168.8292 111.484 166.7943 110.4535 168.3194 110.1532 168.8292"/>
    <path class="t" d="M97.7086,189.119c-.5007.9517-1.0229,1.9446-1.5747,2.9937-.5132,1.0701-1.0532,2.1968-1.6262,3.3921.6365-1.2699,1.218-2.5947,1.9109-3.8555.6846-1.2651,1.3662-2.5243,2.03-3.7511.1631-.359.7029-1.4614-.74,1.2208Z"/>
    <path class="t" d="M102.9066,179.9292c-.0752.1276-.1714.2913-.2419.411.1577-.2476.281-.4478.2419-.411Z"/>
    <path class="t" d="M84.4782,219.583c.0547-.1342.1028-.2513.1587-.3881.0068-.0327.012-.058.0198-.0967l-.1785.4847Z"/>
    <path class="t" d="M98.6889,187.4861c1.0283-1.8718,1.6155-3.0048,2.1702-4.0886-.7542,1.4082-1.553,2.8998-2.4104,4.5007-.0735.1616-.082.1945.2402-.4121Z"/>
    <path class="t" d="M90.7765,203.3053c.2236-.5098.4619-1.0533.7109-1.621.2722-.5576.5559-1.1389.8467-1.7344-.2407.4877-.6353,1.2162-.9351,1.8923-.2979.6772-.5562,1.2771-.6226,1.463Z"/>
    <path class="t" d="M102.2726,180.9449c.0542-.0924.103-.1757.1619-.2759-.3772.5906-.3245.5204-.1619.2759Z"/>
    <path class="t" d="M102.2726,180.9449c-.5474.9496-.9795,1.6995-1.4136,2.4525.6606-1.1187,1.2737-2.1567,1.8057-3.0573-.1428.2203-.2874.4432-.3921.6047Z"/>
    <path class="t" d="M82.5905,227.2726c.0183-.1906.4287-1.6279,1.0256-3.5922.3047-.9799.6301-2.1002,1.0232-3.2457.428-1.1321.8718-2.3064,1.3005-3.4407,1.5828-4.4888.2686-1.6619-1.303,2.2009.0093.1593-.0757.1317-1.4709,4.8373.2932-.8076,1.0657-3.4185,1.8269-5.2592.7119-1.8575,1.1748-3.0256.4966-1.072-1.1309,3.0438-1.4995,4.3224-1.7883,5.1886-.292.8639-.4531,1.3412-.9565,2.8312.4485-1.2657-.135.7164-.7598,2.8497-.6709,2.1204-1.1482,4.459-.9204,3.7887.4248-1.8499,1.02-3.6512,1.5627-5.4681.0535-.0952-.5288,1.8833-.0366.3815Z"/>
    <path class="t" d="M87.8908,210.4277l.7759-1.8646c-.4419,1.0627-.8745,1.9537-1.2573,2.9626-.3906,1.005-.8147,2.0969-1.3645,3.5125-1.1213,3.17-1.3335,3.8344-1.3882,4.0601l1.717-4.6671c.595-1.5469,1.0928-3.132,1.7747-4.6443l-.2576.6409Z"/>
    <path class="t" d="M92.2548,200.2362c-.1594.3696-.3948.9154-.6428,1.4904-.2295.5873-.4697,1.2023-.6592,1.6874-.3745.9691-.5271,1.4142.0923.0656.5615-1.3701.9646-2.2844,1.2842-2.932.2991-.6547.4832-1.0585.6377-1.397.2998-.6761.4673-1.0853,1.2151-2.6895-4.1121,8.6312,1.1438-2.4979-1.8862,3.7125.8052-1.6996,1.5288-3.2269,2.2119-4.6688-.7566,1.5474-1.4861,3.0391-2.1736,4.4452.0396-.0776.0671-.1318.0996-.1956l.019-.0406-.0027.0089c.1877-.3673.2527-.4872.0459-.0704-.0137.0291-.0627.134-.0845.1807-.0171.0634-.0842.2274-.1572.4032-1.2131,2.4908-.2087.3839.1572-.4032.0098-.0304.0388-.1.0386-.1102-.0044.0084-.0103.02-.0164.0317-.7102,1.4314-1.3206,2.9076-1.927,4.3854l-1.8401,4.4233c.3962-.9336.8423-1.9843,1.4089-3.3197.2812-.6687.5925-1.4087.9426-2.2408.3403-.8365.7363-1.7577,1.2366-2.7664Z"/>
    <path class="t" d="M117.3578,159.4026c-.1829.2335-.1799.2192-.1982.2335-.3601.5029-.4941.6957.1982-.2335Z"/>
    <path class="t" d="M114.9718,162.5309c.4053-.5662.7227-1.0519,2.0767-2.8619,1.189-1.5592.0273.0326.1111-.0328.78-1.1177,2.843-3.8285.2131-.4614l-.3938.5505c-2.3179,3.0745-5.356,6.9884-4.9646,6.4415.7332-.8584,1.3696-1.6233,2.9575-3.6359Z"/>
    <path class="t" d="M102.5275,181.0379c-1.4067,2.2557-2.6082,4.6279-3.863,6.9691l1.9915-3.5355-.1367.1591c.5278-1.0027.9368-1.6768,1.2246-2.1506.2773-.4779.4373-.7532.5374-.9257.1887-.3439.1157-.2662.2463-.5164Z"/>
    <path class="t" d="M84.1232,220.4263l.2783-1.0234c-.5227,1.4458-.8713,2.9498-1.3113,4.4219l1.033-3.3984Z"/>
    <path class="t" d="M81.0263,230.3236l.0383-.3876c-.2517.8772-.4414,1.7721-.665,2.657l.6267-2.2694Z"/>
    <path class="t" d="M451.5639,421.321l1.4578-1.8228c-.6895.8621-1.1326,1.4164-1.4578,1.8228Z"/>
    <path class="t" d="M440.5221,434.1064l-.2495.334c.5093-.5952.7129-.844.2495-.334Z"/>
    <path class="t" d="M156.1852,458.0303c2.6973,2.0935,5.6978,4.4622,5.4182,4.1439l-.792-.6956c-1.9255-1.4093-3.3899-2.5077-4.6262-3.4484Z"/>
    <path class="t" d="M320.6276,498.6792c-.3198.0514-.6531.1049-.9834.158-.8154.142-1.5823.2755-2.2671.3949.9775-.1638,2.0974-.2889,3.2505-.5529Z"/>
    <path class="t" d="M322.9271,497.8819l4.4182-.7729c-.9958.1742-2.4158.4226-4.4182.7729Z"/>
    <path class="t" d="M491.8095,339.0948c.2036-.8844.4106-1.7675.552-2.6658-.9753,4.1431-.5315,2.3235-.552,2.6658Z"/>
    <path class="t" d="M77.9574,335.3819c.6697,2.8739,1.2014,5.1562,1.6687,7.1625-.7825-3.4663-1.3789-6.2664-1.6687-7.1625Z"/>
    <path class="t" d="M448.0507,427.06c.8972-1.1195,1.2722-1.6047,1.2305-1.5845-.9246,1.1514-1.4409,1.8077-1.2305,1.5845Z"/>
    <path class="t" d="M81.9704,350.7275c-.1404-.5007-.2781-.9911-.4207-1.5001-.3103-1.0322-.6213-2.0674-.9495-3.1594-.3184-1.0951-.6958-2.2361-.9741-3.5236.2581,1.288.6838,2.63,1.0779,4.0146.4043,1.382.8296,2.7925,1.2664,4.1685Z"/>
    <path class="t" d="M334.421,82.5708c-.2373-.0542-.5222-.1193-.7383-.1685-.075-.0028.2551.064.7383.1685Z"/>
    <path class="t" d="M237.5897,81.6597c.9373-.2271,2.4656-.5972,3.9067-.9462-.7026.1702-1.8794.4552-3.9067.9462Z"/>
    <path class="t" d="M73.4621,271.2992c.1851-2.1919-.001-.3501,0,0h0Z"/>
    <path class="t" d="M74.9582,260.7095c-.042.4655-.0691.8198-.0554.8774-.0007-.1823.02-.4883.0554-.8774Z"/>
    <path class="t" d="M89.8886,371.121c.0244.0598.0437.1075.0715.1759-.231-.6106-.1917-.5056-.0715-.1759Z"/>
    <path class="t" d="M73.839,268.0106c-.0977.821-.21,1.7656-.3325,2.7938.054-.4521.155-1.301.3325-2.7938Z"/>
    <path class="t" d="M73.7489,268.4492c.0874-.7537.156-1.3457.2212-1.9102.0164-.2773-.0198-.0339-.2212,1.9102Z"/>
    <path class="t" d="M73.276,274.3583c.0815-1.2552.1575-2.426.2305-3.5538-.0327.4308-.0488.6111-.0444.4948-.0393.6438-.0945,1.5526-.186,3.0591Z"/>
    <path class="t" d="M472.7096,188.3601c-.0659-.129-.1416-.2776-.2134-.4188-1.0696-1.9343-.6089-1.0804.2134.4188Z"/>
    <path class="t" d="M206.0656,485.5242c-.095-.0382-.1453-.0585-.2319-.0933.0942.0408.2126.092.2971.1285l-.0652-.0353Z"/>
    <path class="t" d="M213.4337,488.2715c-3.1729-1.073-4.9912-1.6594-7.303-2.712.7712.4061,1.5295.848,2.314,1.2258l4.989,1.4862Z"/>
    <path class="t" d="M473.5983,387.4643l-2.6892,4.8223c1.5442-2.9595,2.8684-5.4973,3.5112-6.7295.6062-1.2504.5901-1.1562-.6924,1.0945-.0322.2029-.6831,1.4849-1.6436,3.3068-.9712,1.8157-2.1821,4.2106-3.6111,6.4803-1.3752,2.3007-2.7498,4.6-3.8066,6.3682-1.1245,1.7234-1.8975,2.934-1.9468,3.1316l-2.0732,2.9922c.5762-.8688.6685-1.0083,1.238-1.8673-4.0237,5.8204-2.7947,4.4595-8.2385,11.786-1.9553,2.5072-3.4482,4.1547-2.0823,2.4717l-4.439,5.5221c-.6475.8024-.9309,1.072-.855.9728.0872-.1064.4858-.5945,1.1326-1.3859-1.1064,1.423-2.3765,2.7053-3.5623,4.0602l-3.6155,4.0153.0479-.0651c-.9871,1.1871-3.458,3.6602-4.6279,4.9042-1.9666,1.9176.9524-.9963.4324-.5225-1.4045,1.4166-2.7612,2.8842-4.2061,4.2604-.928.7931-.4795.349.5701-.6534,1.0081-1.0463,2.6025-2.6664,4.0649-4.1265-2.071,1.8801-2.9246,2.7788-4.3623,4.2402-1.5051,1.3879-3.5554,3.3872-8.1165,7.3259,1.4346-1.218,2.7839-2.5344,4.1797-3.7965-.6992.5837-1.4246,1.2091-2.1943,1.8849-.7695.676-1.573,1.4144-2.5022,2.1383-1.8296,1.4781-3.9229,3.1692-6.4084,5.1772,1.196-.9199,10.0195-7.9335,5.0515-3.7568-1.4343,1.1367-3.2754,2.6954-5.9834,4.9177-.0427-.0282-.7468.472-1.8689,1.2991-1.1182.8324-2.6619,1.9816-4.3782,3.2592l.1594-.2778c-1.8298,1.4153-2.7087,2.0161-3.384,2.4935-.6743.4821-1.1597.8292-2.2595,1.6157-4.2939,2.8577-5.2285,3.3792-6.3289,3.9067-7.0935,4.2195,4.9763-2.7916-3.3977,2.2457-1.4775.876-2.844,1.6863-4.1736,2.4749-1.3616.7324-2.6853,1.4446-4.0466,2.177-2.7263,1.4559-5.552,3.0911-9.2905,4.8024-4.3728,2.0009.7278-.4275-.8496.2714l-3.8164,1.9015c-.9458.4406-.6533.2689-.5049.1819-3.2698,1.4843-.2112.2537-5.4192,2.4417-.3391.1765-1.1851.527-2.363.9969-.5891.2328-1.2607.4982-1.9939.7877-.3665.1437-.7483.2935-1.1426.4482-.4019.1349-.8164.274-1.2412.4166-1.6982.5764-3.5564,1.2072-5.4023,1.8337-1.8481.6248-3.6577,1.3308-5.3357,1.8214-1.6631.452.7744-.3098.2546-.2083-4.584,1.4052-6.5479,2.0071-8.3088,2.5469-1.7654.5227-3.3523.8798-7.1621,1.8851l-3.272.7437c-1.0884.2576-2.2004.4034-3.2991.6106,4.8655-.816-1.3015.4578-6.7178,1.5702,1.7312-.2805,3.21-.5203,4.1985-.6804l-4.3296.8481c-1.4409.2968-2.9065.4442-4.3591.6736-1.0591.1233-.1841-.0404,1.2397-.2885-.5938.0924-1.1575.1803-1.5972.2488-3.1316.3794-1.5203.0851.7063-.2908,1.0669-.1193,2.1274-.2378,3.158-.3529,2.1274-.4788,4.1125-.9392,3.6541-.9293-.5652.1133-1.6438.3292-2.8315.5671.5557-.1259.9094-.2115.6487-.1755-.2988.0247-1.1873.2819-2.6133.484l-2.0046.1295-.4729.1217-5.7112.734c-1.9006.2693-3.8237.332-5.7339.5082-2.0479.2129-4.0315.4189-6.0571.6294-2.0339.1125-4.1096.2275-6.334.3506-1.1147.0583-2.2668.1187-3.4695.1816-1.2039.0441-2.4604.0137-3.7817.0209-1.3225-.0046-2.7095-.0095-4.1748-.0146-1.4661-.0079-3.0122.0055-4.6455-.1208,3.2478.0975.7039-.1273.8857-.2401,1.7786.1801,4.3159.1337,7.2495.1658,1.4673-.0079,3.0349.0404,4.6582-.0112,1.624-.0625,3.3027-.1271,4.9966-.1924-3.5356.114-2.7595.0269-1.8611-.0262-4.0234.2766-8.054.1248-12.085.1454.1377-.0488-.5037-.0763-1.5735-.1019-1.0696-.0336-2.5645-.1632-4.1392-.2723,1.1855.1742-1.0645.0675-4.2271-.1134-.7905-.048-1.6377-.0994-2.5024-.1517-.8613-.0935-1.7402-.1888-2.5969-.2817-1.7139-.1803-3.3391-.3513-4.5647-.4801-.2952-.1006.885-.0383,6.8479.6425-6.5564-.9272-8.5513-.5753-14.9458-1.8116,1.4485.2312,2.2268.3669,2.8037.425-1.6946-.2423-4.6072-.7075-6.8511-1.0801-2.2405-.3914-3.7893-.8119-2.824-.6177l1.4312.3002c-2.3799-.5037-5.3809-1.1388-8.5657-1.8129-3.1716-.73-6.489-1.6622-9.5786-2.4358-1.5522-.363-2.9934-.8788-4.3447-1.272-1.3462-.4092-2.5776-.7833-3.6411-1.1064-2.1108-.6293-3.5325-1.053-3.9316-1.1719-.0854-.0498,1.2634.2489,1.8418.3724-5.5166-1.7367-11.0425-3.5127-16.4253-5.6827,1.4661.4598-3.8054-2.1414,3.6599.9181-1.0647-.4565-2.2551-.9669-3.7397-1.6035-1.4841-.6385-3.2937-1.3352-5.4885-2.4058,1.4089.7157,3.4763,1.8715,1.5115.9733-2.6514-1.3477-3.5667-1.8131-4.6345-2.3558-.5378-.2678-1.114-.5544-1.9648-.978-.8494-.4259-1.9863-.9625-3.5652-1.8848,2.0706,1.1522-.3506.1067-3.646-1.6787.531.2474-.1665-.3467,1.0493.2819l-4.155-2.1128c-1.3833-.7087-2.708-1.5221-4.0659-2.2786,2.0139,1.1664.448.0475-1.3032-1.0822.4026.2684-1.3213-.7716-3.4128-2.0365-2.0605-1.314-4.4231-2.9558-5.4675-3.6263l3.2517,2.2413c-4.3418-2.9677-6.6091-4.2559-8.6997-5.7844-1.0642-.746-2.125-1.4896-3.4468-2.4164-1.311-.9542-2.9348-2.0447-4.9255-3.7391,1.0083.7662,2.5908,1.754-1.4956-1.632-.4885-.3629-1.2761-.9479-2.2939-1.7037-1.0146-.7643-2.292-1.6708-3.6304-2.8352-1.3616-1.1534-2.8794-2.4391-4.4922-3.8054-.7966-.7017-1.6572-1.3856-2.459-2.1665-.8054-.7804-1.6262-1.5758-2.4563-2.38l-1.2114-1.3008c-1.6924-1.6559-3.417-3.2821-4.9934-5.0511,1.4929,1.6343,4.6292,4.4562,7.8918,7.5497,1.6018,1.5786,3.4275,3.025,5.0676,4.4625,1.6614,1.4147,3.1912,2.766,4.491,3.8452-2.908-2.6515-.7683-.7861-5.1484-4.7274-1.5012-1.4404,2.4451,2.0842,3.7324,3.2434l-5.072-4.6124-1.2681-1.153-1.2109-1.2126-2.4204-2.4269c.1687.2631-1.7119-1.564-3.5994-3.4017-1.811-1.9108-3.5989-3.8605-3.468-3.6255,3.2974,3.7212,6.9609,7.0883,10.4841,10.5851.1675.2617-1.4233-1.1896-3.9187-3.5702-1.2292-1.2078-2.7622-2.5732-4.2715-4.2076-1.5049-1.6421-3.1265-3.4116-4.7703-5.2056-1.6255-1.8668,1.4248,1.2112,1.321,1.0304-.219-.2329-.7205-.7666-1.3621-1.4491-.6436-.6835-1.4197-1.5219-2.1265-2.405-1.4463-1.7382-2.8562-3.4474-3.1272-3.8026l2.6763,3.1387c-1.7-2.1053-3.1372-3.7814-4.655-5.5706-1.499-1.8031-2.9473-3.8226-4.8521-6.4585-.6492-.9153-1.6677-2.2474-2.4275-3.4771-.7754-1.2185-1.4307-2.2371-1.5715-2.3761,1.9062,3.1282,1.9202,4.0029.4646,2.0326-.2148-.3309-1.8242-2.8093-3.5559-5.4761-.4285-.6688-.8794-1.3398-1.29-2.0094-.3926-.6805-.7739-1.3416-1.126-1.9517-.6968-1.2206-1.2769-2.2363-1.5972-2.7974-1.7969-3.2378,3.0981,4.6207,1.5686,1.8625-.1008-.097-1.1885-1.8269-1.6384-2.5505-1.1841-2.0404.5994.7802-2.0459-3.6091-.5371-.6791-4.8896-9.2076-1.2468-2.0787-1.1946-2.2047-1.8142-3.3849-2.4814-4.663-.6587-1.2822-1.4277-2.6311-2.6431-5.3145.3582.8679-.27-.2958-1.26-2.2461-.9609-1.9629-2.4172-4.6543-3.3237-7.0035.144.261-.2417-.8027-.4294-1.317-.9666-2.3839-1.8215-4.4919-2.6165-6.452-.7258-1.9858-1.3398-3.8429-1.9785-5.6672-.6189-1.8312-1.2837-3.6245-1.8926-5.5579-.5698-1.946-1.1724-4.0034-1.8464-6.3052-.2361-.8527-1.4575-5.3142-.8738-3.4313-.3579-1.3308-.6899-2.5537-1.3877-5.4287-1.2234-5.5919,1.5596,6.4065.677,2.1305-.1211-.3516-2.0212-7.3816-2.7117-11.5415.0298.3242.1558,1.0847.3406,2.1078.1873,1.0226.4055,2.3136.7681,3.6671.6799,2.7131,1.4495,5.7837,1.9626,7.8312-.0396.0155-.1873-.4164-.4246-1.2256s-.5642-1.9957-.9619-3.4891c-.3792-1.4976-.908-3.285-1.3455-5.3396-.4106-2.0632-.8679-4.3602-1.3577-6.8204-.3845-1.9583-.6055-3.1521-.6726-3.8705-.0896-.7148-.106-.9413-.0942-.9635.0237-.0447.1609.7269.0554.0426-.52-3.7101-.8906-6.3529-1.1816-8.4298-.2168-2.0784-.3743-3.589-.5234-5.0214-.146-1.4349-.2837-2.7874-.4634-4.5516-.168-1.77-.1792-3.97-.2815-7.0812-.0708-4.9401.2058-.2284.2439-1.3254.1199,3.2461.2119,5.7352.2942,7.9669.1753,2.2261.3301,4.1902.5027,6.3835l-.4133-5.4052c.2126,2.0563.6106,6.3727.7817,8.7297-.0811-1.037-.2441-3.1244-.4583-5.8606-.1123-1.3683-.2378-2.8978-.3723-4.537-.0583-1.6437-.1204-3.3973-.1846-5.209-.053-1.8116-.1577-3.6805-.1711-5.5565.0269-1.8762.0542-3.7585.0806-5.5947.051-1.8352.0032-3.6279.1375-5.3156.1145-1.6877.2224-3.2778.3203-4.7189.0916-2.0497.2744-5.5892.1272-3.9194l-.2122,3.6497c-.2957,3.3499.3081-6.8782-.02-2.2609.0303-.6129.061-1.2351.0923-1.8683.0596-.6307.1204-1.2723.1821-1.9263.1311-1.3083.2671-2.6659.4092-4.0846.1511-1.4199.3091-2.9008.4746-4.4564.2524-1.5443.5166-3.1621.7954-4.8687l.3274-1.2622c-.0554.14-.7969,4.4468-1.053,6.3716.1865-1.4276.6592-4.0358,1.1094-6.6799.2246-1.3235.4502-2.6533.6528-3.8474.2471-1.1862.4524-2.2396.5757-3.0197-.3484,1.5764-.7603,3.1417-1.0098,4.7378.1562-1.224.4111-2.5039.677-3.8383.2622-1.3358.5349-2.7257.8147-4.151.2988-1.4221.5386-2.897.9167-4.3597.3826-1.462.7698-2.9414,1.158-4.4247-.8147,2.6713-.3625,1.3652-1.5649,5.557.9329-3.66-3.2129,15.3547-1.8093,9.4473-.459,2.1866-.7666,4.0974-1.1204,6.1737-.3457,2.078-.7644,4.3188-1.1089,7.2228.0601-.1752.3059-2.0487-.2839,3.0657-.0188.2363-.062.7802-.0896,1.1265-.0188.1561-.0254.2113-.0415.3451.0132-.1022.0229-.1783.0364-.2819-.0188.2225-.0198.2423.0132-.1049.1533-1.2168.2847-2.2018.3516-2.5996-.075,1.2765-.4155,3.9404-.6074,6.6432-.1479,2.7052-.2969,5.4341-.3726,6.8192-.209,3.0453.033-1.2765-.1138.3843l-.0923,2.0641.0024,2.0669c-.0952.4052-.2561,8.1095-.2139.9138l-.0894,6.4768c-.0605,1.9069.0789,4.1703.1282,6.3624.0898,2.1908.115,4.3136.2698,5.9242.2422,3.0465.7595,7.6805.4617,5.0353.1633,1.6852.2883,3.3744.4829,5.0555l.7139,5.0284-.0095.0961c.5583,4.9841,1.6907,10.0237,2.6641,15.2686,1.281,5.1796,2.4275,10.5776,4.0854,16.0643.4895,1.6146.9871,3.2561,1.5669,5.1682.6597,1.8871,1.4126,4.0408,2.344,6.7051l.291,1.0652c.6685,2.0624,1.9312,5.0612,3.0249,7.7949,1.106,2.7288,2.0684,5.1844,2.5454,5.9912.4482,1.0795,1.2278,2.8114,2.1953,4.91.4871,1.0482,1.0173,2.1891,1.574,3.3871.5864,1.1835,1.261,2.3933,1.9165,3.6382.6638,1.2406,1.3384,2.5016,2.0051,3.7478.6724,1.2429,1.3025,2.4901,2.0195,3.623,1.3757,2.2991,2.6343,4.4025,3.6133,6.0385l.2341.1938c.3367.5625.6716,1.1222,1.0063,1.6819.3633.5419.7263,1.0836,1.0911,1.6281.7319,1.0874,1.4709,2.1857,2.2322,3.317.7632,1.1293,1.5488,2.2916,2.3713,3.5087.8525,1.1956,1.7974,2.4066,2.7693,3.7114l-.1663-.3743c1.7239,2.2128,3.7656,5.1895,6.3621,8.2529,1.2664,1.557,2.5974,3.1932,3.9612,4.8701,1.4175,1.6316,2.9236,3.2567,4.4114,4.9022-.4312-.4233-1.9392-2.095-2.9954-3.2872,6.7825,8.1815,15.6357,16.0055,22.8677,22.3174,1.874,1.4939,3.209,2.6023,4.4944,3.6851-.1736-.14-.3286-.2651-.4626-.3732.1899.156.4717.3873.7605.6246.7966.6982,1.6567,1.3672,2.6023,2.0751-.7908-.6185-1.564-1.1884-2.1934-1.7404,1.4326,1.1669,3.7285,2.7798,5.9363,4.4135l.8833.7753c.1799.1323.3245.2386.512.3765,2.1453,1.6359,1.7673,1.2543.6543.3384,1.103.8344,2.1956,1.4839,3.0173,2.022.8652.6732,2.3699,1.6654,3.9558,2.7137.7913.5278,1.6018,1.0688,2.3716,1.5824.7793.4971,1.5247.953,2.1409,1.3772.8145.4436,3.7793,2.2126,6.7073,3.9463,3.0046,1.5994,5.9775,3.1534,6.6594,3.4265.072.0641.7793.4574-.5259-.2449,2.6567,1.5239,5.428,2.8214,7.9233,3.9659l1.1189.6719,3.0481,1.3693,3.1091,1.2274c3.7095,1.6458,5.2466,2.3411,1.4941.8605,2.2583.913,3.844,1.554,5.073,2.0508,1.25.446,2.137.7625,2.9812,1.0637,1.6924.5903,3.1946,1.1785,7.1243,2.4716l-.4106-.0458c2.8257.8824,7.3694,2.1951,9.053,2.7911,1.5784.4965,4.3628,1.213,7.8857,2.1558.8831.226,1.8057.4949,2.7817.7168.9795.2078,1.9993.4242,3.0525.6477,2.1072.4449,4.3484.9181,6.6689,1.4081,9.3445,1.6418,20.0591,2.954,28.5549,3.3556-1.6389-.2332.3291-.0381,2.7969.0842,2.4697.0653,5.4382.1437,5.7754.0577.9895.0681,3.3594.1305.6052.1422,1.0852.0099,2.1023.0193,3.0637.0282.9612-.0073,1.866-.0604,2.7268-.0835,1.7219-.0564,3.2673-.1071,4.7285-.1549,1.46-.0687,2.8416-.0496,4.2214-.2019,1.3767-.1399,2.762-.2806,4.26-.4329.9944-.0299-1.8438.2395-.9607.1965.6931-.0715,2.7432-.2838,3.6467-.3285.8838-.043-1.262.1549-2.6294.2965,2.2063-.2048,3.9163-.3636,5.2546-.4879,1.3269-.2008,2.2783-.3578,2.9744-.4849,1.3921-.254,1.7625-.3876,2.0708-.5101,2.2283-.267,3.8984-.475,5.4089-.6921,1.499-.288,2.8411-.5693,4.4238-.9198,1.5444-.2371,4.1179-.6649-1.2888.3698.7612-.1406,2.3049-.4255,4.1965-.7749.946-.1753,1.979-.3667,3.0447-.5642,1.0544-.2511,2.1411-.51,3.207-.7639,4.2603-1.027,8.1863-1.959,8.3027-2.1312.9392-.2428,4.1541-1.2139,4.9321-1.4584,1.6665-.4885,2.9534-.8656,4.0481-1.1864,1.0896-.3372,1.9692-.6743,2.8564-.9746,1.7681-.6207,3.5212-1.2362,6.7397-2.3662l-1.7917.6058c2.5115-.9736,5.29-2.0327,10.375-4.1254l-.1392.074c2.9478-1.1226,4.6626-1.9833,5.8401-2.5234,1.1711-.5541,1.7812-.8428,2.3872-1.1295.6062-.286,1.2068-.5693,2.3594-1.1133.5774-.2694,1.2932-.6033,2.217-1.0343.9041-.4702,2.0117-1.0464,3.3916-1.764l-.6418.2328c.4644-.3639,2.9087-1.6293,6.0317-3.2378,3.0598-1.7185,6.7463-3.8795,9.8181-5.7732-.7441.4481-1.5071.8658-2.2595,1.3,1.7017-.996,4.0103-2.4951,6.3496-3.9589,2.3279-1.4791,4.7217-2.8763,6.2871-4.0959.697-.5107-1.0627.8597-2.0552,1.5454,8.4353-6.0482,1.0156-.8922,7.2102-5.5166.5928-.3984.2507-.0903.283-.0693.0161.0105.1262-.0508.4937-.3082.3694-.2551,1.001-.7008,1.9973-1.5391,1.0137-.8086,3.9116-3.233,7.2087-6.0504,1.595-1.4722,3.2922-3.0389,4.9165-4.5381.8184-.7434,1.6184-1.47,2.3784-2.1604.7334-.7164,1.4277-1.3947,2.0645-2.0165-1.1421,1.0714-2.2737,2.1328.2329-.4373,3.9497-3.8262,10.4658-10.5865,13.4976-14.535.4546-.532.6326-.7275.6609-.7417.6609-.819,1.5276-1.8931,2.481-3.0747.9553-1.1802,2.0137-2.455,2.9343-3.7704,1.8931-2.5908,3.656-5.0162,4.374-6.059.6812-.7072,1.8357-2.4872,3.3208-4.6602,1.4663-2.1863,3.2424-4.7827,4.73-7.4137,1.5188-2.6099,3.062-5.061,4.0701-6.9421,1.0146-1.8772,1.6897-3.0735,1.7458-3.0165,1.0046-1.9082,2.0801-3.7802,3.0261-5.7178l2.7886-5.8381-.1177.318c.4478-.932.8596-1.7886,1.2395-2.5793.3704-.7952.6602-1.5463.9526-2.2275.5662-1.3698,1.0366-2.5079,1.4436-3.4926.7908-1.9761,1.3672-3.3157,1.8369-4.6918.6772-1.7867.2236-.4668.1841-.3121,2.0957-5.6658,3.324-8.7568,4.1619-11.7212.4465-1.4713.8755-2.8848,1.3772-4.5381.2354-.8302.5391-1.7052.7771-2.7037.2449-.9962.5137-2.0905.8159-3.3203l.3623-.9937c.8057-2.6185,4.2957-16.964,5.4956-28.7745-.0017.1168-.0098.3632-.1003,1.3008.7627-6.624,1.4766-14.5812,1.6221-21.5095.03-1.7324.0588-3.3983.0859-4.9611.01-.7816.0198-1.5374.0291-2.2627-.0286-.7249-.0562-1.4192-.0823-2.079-.1111-2.6378-.2295-4.7141-.3638-5.9303l-.1016-2.1969c-.0518-.7311-.1353-1.4603-.2012-2.1904l-.4209-4.3783c.9458,11.3375-.301-1.6746.0398,2.9919-.2019-2.226-.4221-5.1068-.531-6.7487-.0657-.8196-.1387-1.3253-.1125-1.2898.0098.0181.0374.1722.0862.4921.0579.3188.1077.8065.165,1.4913l.0557.8586c.0898.4983.0635-.1331-.0247-1.3564-.0981-1.2222-.3743-3.0233-.6118-4.8827-.2473-1.8583-.5017-3.7693-.6919-5.1979-.1667-1.4319-.3914-2.3605-.3254-2.2939-.5166-2.752-1.0312-5.4952-1.5444-8.2292-.563-2.7233-1.2695-5.4064-1.8923-8.0974-.3391-1.3385-.5999-2.6956-1.0015-4.0123-.3862-1.3208-.7717-2.6393-1.1565-3.9552-.3845-1.316-.7683-2.6296-1.1514-3.9406-.1975-.6537-.3696-1.3147-.5872-1.9604l-.6711-1.9291c-.8938-2.5699-1.7839-5.1293-2.6704-7.6777-.9653-2.5187-2.0105-4.995-3.0059-7.4774-.5151-1.2338-.978-2.4872-1.5337-3.6968-.563-1.2063-1.1248-2.4098-1.6851-3.6104-.561-1.2003-1.1206-2.3978-1.6787-3.5924-.5522-1.1978-1.1077-2.3901-1.7463-3.5372.3301.7365.6873,1.4586.9692,2.2178-1.0723-2.1899-2.2661-4.3193-3.3933-6.4822-.8716-1.7117-1.1104-2.3317,1.3369,2.2828-.6082-1.2318-1.6521-3.1578-2.5557-4.7891-.8706-1.6499-1.7754-2.9064-1.8054-2.9747-5.1978-8.8044,2.1978,3.3419.5916.6498l-2.1965-3.6505.4783.8329c-.9155-1.46-1.4175-2.2606-2.1033-3.3541-.3403-.5508-.7263-1.1753-1.2332-1.9952-.5381-.8019-1.2043-1.7947-2.0784-3.0977-2.1826-3.3177-1.0574-1.744-1.9216-3.0471,0,0-.062-.1091-.2644-.4139-.2043-.3035-.5403-.8026-1.0649-1.5825-1.7749-2.5101-3.6462-4.9526-5.4648-7.4324l2.1077,3.0298c-1.2317-1.6351-2.5334-3.3632-3.2102-4.2617-.3357-.4512-.5503-.6663-.4885-.5814.0618.0846.365.4962.9661,1.3751-1.8379-2.5195-7.1953-9.2588-12.8901-15.2988-1.363-1.5658-2.8613-2.9763-4.2319-4.3582-1.3792-1.3735-2.6809-2.6702-3.8413-3.826-2.3696-2.2604-4.2493-3.8793-4.9365-4.5481-1.0732-.9486-2.1416-1.8928-3.2224-2.8483-1.1199-.9121-2.2529-1.8347-3.4165-2.7825-2.3342-1.8876-4.7319-3.952-7.5801-5.9875,1.3826,1.0558,2.1387,1.7784-2.6951-1.8276.4824.2744.1736-.0055-.6213-.6282-.7966-.6196-2.0579-1.6118-3.5872-2.6084-1.5098-1.0245-3.2021-2.1731-4.7712-3.2378-.7808-.5355-1.5308-1.0498-2.2129-1.5177-.6924-.4426-1.3145-.8403-1.8337-1.1725,1.834,1.1801-1.8462-1.0288-5.2632-3.0708-1.6885-1.0564-3.407-1.903-4.2778-2.368-.8779-.4526-.9458-.4574.5369.3939-4.4216-2.4093-.2207-.233-3.5549-2.1028-10.6206-5.543-23.8411-11.4891-38.0522-15.7574-.2305-.0354,2.1216.7579-.9265-.1423-2.4556-.8909-4.988-1.5226-7.4919-2.2605-1.4187-.3621-2.0833-.4833-3.0356-.6979-.4797-.1158-1.0249-.2474-1.7766-.4288-.7595-.1595-1.7239-.3744-3.0259-.6799.7329.1847,1.8259.4607-.0972.0669-14.1565-3.1964-28.9788-4.8718-43.8625-4.9722-14.8872-.1105-29.8264,1.3535-44.3057,4.166,3.9409-.6696,1.3237-.1755-1.6721.3961,1.9514-.3562-.0266.0917.366.0649l-6.0171,1.3641-3.0085.6895c-1.0049.2228-2.0073.4548-2.9922.754-1.0618.3817-4.2344,1.3187-7.2922,2.2212-1.5386.4215-3.0112.9491-4.1829,1.3744-1.1733.4199-2.0439.7421-2.3374.8784l3.6807-1.3141c-2.4255.9412-.6938.3834,1.585-.2682,2.3005-.5858,5.1294-1.3217,4.7922-1.1224,1.3801-.4508,2.9932-.9318,4.7766-1.4449,1.7971-.4631,3.7856-.8801,5.8755-1.3647,1.0459-.2395,2.1199-.4854,3.2146-.736.5471-.1274,1.0994-.2561,1.656-.3857.562-.1052,1.1284-.2113,1.6985-.318,2.2805-.4255,4.6143-.8834,6.9438-1.3829,2.0725-.3496-1.7515.3918-.6392.228,2.3472-.5916,5.2456-.9307,10.6003-1.6388l-.6028.1028c.9397-.1292,1.8457-.2537,2.7227-.3741.8794-.1003,1.7344-.1562,2.5625-.2327,1.6572-.1406,3.217-.2729,4.7166-.4003,1.501-.1046,2.9363-.2936,4.3589-.3149,1.4209-.0459,2.8188-.0909,4.2314-.1365,1.4126-.0446,2.8396-.0896,4.3188-.1362,1.4788-.061,3.0115.0299,4.6323.0392,3.2424.0627,6.8457.0542,11.093.4099l-1.2542-.173c3.6548.2404,4.4221.3179,6.1311.448,4.2065.118-10.2654-.6473-6.4346-.5675,1.2104.1237,3.4265.286,6.1211.4666,1.3499.0577,2.8062.274,4.3215.432,1.5142.17,3.0818.3459,4.637.5206.7776.0872,1.5522.1741,2.3157.2598.7607.1041,1.5059.2388,2.2341.3531,1.4546.2396,2.832.4664,4.0674.6699,2.4688.4146,4.3684.7307,5.1543.9882,5.5112,1.1627-1.5947-.4481,3.9155.7145l1.449.3658,1.4094.219c1.8125.3604,3.1504.738,4.0562,1.0106.9075.2646,1.3838.4213,1.4443.463-.8677-.222-2.4666-.6312-3.3965-.8693,2.3076.6396,5.5725,1.4873,8.4602,2.23,1.4524.342,2.7708.7948,3.8462,1.1162,1.0715.3356,1.884.5901,2.2771.7133-1.7197-.5422-3.4292-1.1213-5.1582-1.6337,1.8462.5291,3.7236,1.1429,5.6482,1.7329.9609.2997,1.9312.6023,2.9089.9072.9814.2941,1.9624.6143,2.9316.988,3.8862,1.4622,7.9312,2.7894,11.7991,4.5214,1.9514.8223,3.8987,1.6429,5.8293,2.4564,1.8909.9021,3.7651,1.7961,5.6101,2.6763,3.7305,1.6807,7.1672,3.6515,10.4629,5.3636l-.9709-.5746c1.2512.6678,2.3228,1.2222,3.2385,1.7327.8994.5393,1.6638.9976,2.3408,1.4036,1.3484.8203,2.3484,1.4287,3.3789,2.0557,1.0181.6451,2.1064,1.2443,3.5305,2.2041,1.4272.9554,3.2505,2.1758,5.8389,3.9082l-.3823-.2432c2.134,1.2969,4.7866,3.3138,7.5276,5.3412-2.5571-1.8319,4.6912,3.6072,1.343,1.1952.6194.455,1.1807.8671,1.6902,1.2412.4919.3967.9336.7532,1.3318,1.0742.7966.6411,1.4182,1.1414,1.9146,1.5408.9963.7905,1.4893,1.1818,1.8831,1.4943.3953.3031.6909.5298,1.2874.9872.5945.4617,1.5137,1.1329,3.031,2.4856l1.3416,1.3129c1.05.9049,1.6216,1.3975,2.5142,2.1667.8809.7886,2.1375,1.809,4.3198,4.0308-3.6599-3.5585,2.7339,2.8849-1.3735-1.0908,2.283,2.3331,4.2886,4.3464,6.0776,6.1241,1.7456,1.8193,3.2068,3.4675,4.5618,4.9131,1.3267,1.4707,2.5798,2.7141,3.5981,4.0005,1.0381,1.2695,1.9849,2.4578,2.8901,3.6509,1.9839,2.2489.2117.0511-1.7869-2.3904-1.9451-2.4875-4.3918-4.9768-3.2205-3.7709-.9209-1.0625-.0598-.1726,1.3752,1.3649,1.3767,1.5878,3.2605,3.8809,4.5601,5.4667.6624.8065,1.2627,1.5625,1.8945,2.3691.6338.8053,1.2246,1.7194,1.9727,2.7605.7471,1.0468,1.6067,2.2511,2.6582,3.7245.5344.7338,1.1177,1.5342,1.76,2.4159.605.9093,1.2656,1.902,1.9919,2.9934-.585-.8633-.6255-.923-1.209-1.7839,1.0688,1.6462,2.1516,3.2341,3.2932,4.9175.5684.8438,1.1521,1.71,1.7617,2.615.5522.9401,1.1277,1.9193,1.739,2.9602,1.4917,2.2518,3.2026,5.3673,3.7395,5.9563l-4.9729-8.2413c1.4312,2.3182,2.8228,4.5728,4.4429,7.1978.8435,1.2953,1.5791,2.7788,2.458,4.3839.8533,1.6189,1.7878,3.392,2.8376,5.3833-.3577-.6044-1.6514-2.9475-2.5349-4.559.5967,1.1716,1.1975,2.2852,1.8042,3.4095.6091,1.1229,1.2329,2.2526,1.7656,3.5089-.1313-.1516-.459-.9135-1.0498-1.986-.5796-1.0797-1.3452-2.5061-2.186-4.0729-.8401-1.567-1.7549-3.2736-2.6323-4.9105-.969-1.5822-1.8955-3.0951-2.6616-4.3458.676,1.2373,2.1799,3.5586,3.1582,5.3524.9731,1.7968,1.5969,2.9645.8323,1.7095,1.0864,1.8103,2.2939,4.0956,3.6641,6.7,1.2556,2.6626,2.6255,5.6672,4.2131,8.8469l-.2856-.3854c.5288.994,1.4419,3.1357,2.217,5.0537l-1.5281-3.4175c2.2532,5.2872,4.2009,10.2534,5.9661,15.4751-1.8958-5.4498-2.1145-6.0593-2.0225-5.8965.105.1577.5339,1.0844-.3569-1.1885.7202,1.6305,1.1663,3.0262,1.584,4.1819.4026,1.1611.728,2.1,1.0042,2.8969.5417,1.5957.8662,2.6229,1.2058,3.7006.3652,1.0695.6348,2.2251,1.1497,4.0504.5229,1.827,1.2395,4.3318,2.3352,8.161-.5527-2.0837-2.2146-7.7896-1.2034-4.5693.4001,1.4631.9463,3.1389,1.2993,4.7142.3516,1.5724.6711,3.002.8755,3.9158,2.4878,10.2601-.2842-1.5986.8237,2.7581.7815,3.5101,1.1184,5.0621,2.0396,9.6033l-.0889.0494c.2739,1.4796.4885,2.6378.658,3.5535.1333.921.2312,1.5974.3054,2.1094.1541,1.0211.2273,1.3757.2952,1.6934.1357.6349.2498,1.1228.9456,6.4994l-.7522-4.5233c.2468,1.8666.5752,3.7244.7549,5.599-.0759-.3826-.125-.7679-.2234-1.1475.3325,3.0526.4988,5.0614.6775,7.0524.0833.9961.1663,1.9882.2595,3.1066.0903,1.1184.0886,2.369.1475,3.8728.0176-1.402.2034.7777.3992,6.1097-.0105,3.6368-.0386-2.0358-.1035,5.5223-.0127-.8579-.0259-1.7549-.042-2.8386.0042-.547.0085-1.1405.0134-1.8049-.0125-.662-.0261-1.3928-.0417-2.219-.0293-.3617-.1348-1.6553-.1648-2.0255.1892,3.912.0461,9.8325.0337,12.5676.022-1.0524.0481-2.3079.0615-2.9564-.0107,1.825.0164,3.6519-.0251,5.4768l-.2739,5.4709c-.1433,1.7191-.0874.3512-.0315-1.0024-.0576,1.1068-.1062,2.0447-.1616,3.1129-.0586,1.0673-.085,2.2686-.2888,3.8879.002-.8477-.0193-.6473.2083-5.2577-.1138,3.478-.5447,6.9301-.8901,10.391-.0476.3531-.2251,1.6726-.3694,2.7439-.1235,1.0747-.3276,1.8794-.2188,1.2114-.4509,2.8558-1.0039,6.3555-1.594,10.092-.3757,1.854-.7632,3.7651-1.1514,5.6814-.406,1.9137-.7559,3.8477-1.2969,5.6888-.0859.389-.2739,1.166-.6758,2.7463-.4634,1.7407-.9136,3.4323-1.3628,5.1193-.5276,1.6638-1.0537,3.3232-1.5925,5.022-.5474,1.6958-1.0676,3.4447-1.6719,5.2584-.644,1.7994-1.3176,3.6818-2.0383,5.6948-.6226,1.4916-1.1492,3.0198-1.8494,4.4785-2.5703,6.1752,2.7148-5.9806-1.5667,4.3059-1.5139,3.6436-1.8208,4.3132-1.9143,4.3761-.0784.0698.1101-.4415-.5054.7974-.8208,1.7837-1.9453,4.2263-3.2397,7.0383-1.3447,2.7943-3.0808,5.8583-4.8281,9.0308,1.135-2.1171,2.0217-3.7711,3.0808-5.7466ZM422.2763,451.4169c.6101-.5165,1.5247-1.2905,2.396-2.0283.8384-.7773,1.6433-1.5111,2.0947-1.8832-.6372.6541-1.2256,1.2086-1.9089,1.8256-.6997.5988-1.522,1.2283-2.5818,2.0859ZM308.5487,500.1622c1.1895-.1504,3.0027-.3798,5.0684-.6411-1.4944.1986-3.1829.4681-5.0684.6411ZM72.9381,295.3884c.0044.0684.0073.1157.011.1715.0918,3.5818.0608,2.3112-.011-.1715ZM72.8839,287.9514c-.0037-.7476-.0176-.6963-.0354-.3806.0225.5193-.0132,2.1901-.0239,4.0918.0112-.5284.0564-1.4899.0593-3.7112ZM461.0734,168.0138l.7834,1.2175c-1.8389-2.701-1.3098-1.9547-.7834-1.2175Z"/>
    <path class="t" d="M322.6164,497.9826c.4478-.0676.574-.073.6819-.0748.6155-.1321.625-.153-.6819.0748Z"/>
    <path class="t" d="M491.6979,339.5859l.0645-.2428c.0293-.1349.0422-.2075.0471-.2483l-.1116.4911Z"/>
    <path class="t" d="M103.4896,397.3528c.7588,1.3187,1.1829,2.0555,1.4678,2.5507.0627.0587-.2764-.5468-1.4678-2.5507Z"/>
    <path class="t" d="M76.5558,248.7488c-.353,1.5508-.5532,3.1299-.8066,4.6989.3684-2.2765.488-3.0917.7646-4.2239-.0439.0991-.2639.9843.042-.475Z"/>
    <path class="t" d="M88.8441,209.3515c.2668-.6437.5635-1.3591.8267-1.9944l-.115.1577c-1.1484,2.7297-1.9189,4.6497-.7117,1.8367Z"/>
    <path class="t" d="M77.7797,244.4963c.0784-.1763.2649-.9961.5159-2.1802.1235-.5925.2661-1.2754.4202-2.0143.1873-.7311.3887-1.5175.5957-2.325-.0508.1941-.0989.3778-.1492.5707.0691-.4891-.1118.1282-.4177,1.297-.2927,1.1719-.6086,2.9189-.9648,4.6517Z"/>
    <path class="t" d="M79.5043,237.2281c.2595-.9948.5242-2.0095.7778-2.9827.0549-.3898-.3252,1.2068-.7778,2.9827Z"/>
    <path class="t" d="M73.079,278.5187c.1191-1.5785-.042-.9973.0469-1.8898.0034-.8856-.1296,1.7517-.2026,3.5267-.0503.8871-.0244,1.561-.0122,1.4703,0-.0912.0364-.9447.168-3.1073Z"/>
    <polygon class="t" points="78.5971 241.9136 78.2531 243.0603 77.9469 244.9044 78.5971 241.9136"/>
    <path class="t" d="M74.2914,267.8464l.6172-5.2883c-.0256.0779.0396-.5956.124-1.4222-.1848,1.6299-.3787,3.3383-.5244,4.6233-.1448,1.2854-.2385,2.1481-.2168,2.0873Z"/>
    <path class="t" d="M75.0326,261.1358c.2131-1.6952.5127-3.2947.634-4.2378-.1323.9147-.4885,2.874-.634,4.2378Z"/>
    <path class="t" d="M77.1264,249.0389c-.1111.5127-.239,1.0222-.3362,1.5376l-.6038,3.709c.3174-1.7483.5227-3.5173.9399-5.2466Z"/>
    <path class="t" d="M76.2626,324.8694l1.1008,5.7061c.1431.575-.1287-.9851-.5413-3.1086-.2803-1.3624-.6914-3.479-.5596-2.5974Z"/>
    <path class="t" d="M74.298,307.421c.1138,1.566.1003,1.6732.1433,2.5585l.1387.1635-.282-2.7219Z"/>
    <path class="t" d="M76.4459,324.2019c.1409.5632,1.6516,8.2576.2866,1.0326-.0669-.2867-.3916-1.8541-.5459-2.6998-.0654-.4247-.1057-.6661-.0864-.4708.0112.1967.0925.8284.3457,2.1381Z"/>
    <polygon class="t" points="107.9242 405.1578 107.102 403.9305 107.0485 404.217 107.9242 405.1578"/>
    <path class="t" d="M161.0485,460.3457c-5.4758-4.1411-1.4043-.8458-6.3125-4.6423-.6304-.5027.313.3494,1.3364,1.0909,1.0076.762,2.0117,1.5204,1.335,1.0442,3.3611,2.4305,5.0916,3.7504,3.6411,2.5072Z"/>
    <path class="t" d="M157.4074,457.8385c-.5391-.3878-1.1106-.799-1.7192-1.2368.9744.7009,1.4336,1.0315,1.7192,1.2368Z"/>
    <path class="t" d="M221.8861,85.8213c-1.4341.3707-2.8147.9081-4.2209,1.3668l2.7246-.8823c.4907-.1865.998-.3213,1.4963-.4845Z"/>
    <path class="t" d="M213.8798,88.7198l-1.0298.2235-2.4729.9912c.9436-.3369,2.7739-.9904,3.5027-1.2147Z"/>
    <path class="t" d="M412.4936,458.8115l-.2512.2256c.5686-.3804,1.3992-.9945,3.0637-2.2247l-2.8125,1.9991Z"/>
    <polygon class="t" points="454.8624 416.8414 454.2465 417.6673 455.4877 416.1913 454.8624 416.8414"/>
    <path class="t" d="M480.0033,373.5036c-.4121.9376-.8022,1.9839-1.2837,2.9904-.4797,1.0074-.9597,2.0156-1.4021,2.9448,1.9675-4.0114,3.012-6.3981,2.6858-5.9352Z"/>
  </g>
  <g>
    <path class="i" d="M340.0964,512.8483l149.4125-56.0614,1.0774-11.9461-148.3136,56.0481-2.1762,11.9594Z"/>
    <path class="s" d="M314.9383,314.6762c-2.6248-.0205-5.1625-.9463-7.1841-2.6217-2.5408-2.0953-4.2091-5.0611-4.6812-8.3198-.0584-.5817.1075-1.1644.466-1.6263.3584-.4629.8807-.7701,1.4583-.8592.5786-.0881,1.1695.0481,1.6488.383.4803.3339.8142.8398.9319,1.4122.3052,2.1373,1.3938,4.0852,3.0539,5.4646.723.6227,1.571,1.0815,2.4875,1.3446.9166.2622,1.8803.3226,2.8224.1772.9422-.1454,1.8413-.4946,2.636-1.0221.7947-.5274,1.4655-1.2207,1.9652-2.0328.3451-.4772.8613-.8029,1.4409-.9094.5786-.1055,1.1767.0164,1.6683.3421.4916.3246.8377.8275.9678,1.402.129.5745.0307,1.1777-.2734,1.6816-.8541,1.3395-1.9837,2.4824-3.313,3.3519-1.3303.8695-2.8296,1.446-4.3985,1.6918-.5612.0932-1.1286.1403-1.6969.1403Z"/>
    <path class="s" d="M293.3727,321.3339c-5.7688,0-10.9282-4.587-11.9001-10.9292-.0461-.295-.0338-.596.0359-.8869.0696-.2898.1966-.5643.3728-.805.1762-.2417.3984-.4455.6534-.6011.255-.1557.5387-.2591.8336-.3042.5971-.0789,1.2013.0748,1.6867.4301.4864.3554.8173.8848.9227,1.4767.679,4.4579,4.4354,7.5937,8.3546,7.0213.9411-.1536,1.8393-.5059,2.634-1.0323s1.4686-1.2156,1.9765-2.0226c.3451-.4772.8613-.8029,1.4409-.9094.5786-.1055,1.1767.0164,1.6683.342.4915.3246.8377.8275.9678,1.402.129.5745.0307,1.1777-.2745,1.6816-.8541,1.3395-1.9827,2.4814-3.312,3.3519-1.3303.8695-2.8296,1.446-4.3985,1.6918-.551.0758-1.106.1075-1.6621.0932Z"/>
    <path class="s" d="M273.6444,328.9041c-2.6227-.0174-5.1604-.9391-7.1841-2.6094-2.5377-2.0974-4.205-5.0621-4.6801-8.3188-.0594-.5827.1075-1.1654.4649-1.6273.3584-.4629.8807-.7701,1.4593-.8592.5776-.0881,1.1685.0481,1.6488.383.4803.3339.8131.8398.9319,1.4133.3052,2.1363,1.3928,4.0841,3.0539,5.4636.7292.6114,1.5792,1.063,2.4947,1.3252.9145.2622,1.8751.3287,2.8173.1966.9391-.1536,1.8352-.5059,2.6278-1.0323.7937-.5264,1.4645-1.2156,1.9704-2.0216.383-.3707.8807-.6001,1.4112-.6493.5295-.0502,1.061.083,1.5065.3758.4445.2939.7753.7292.9391,1.2371.1628.5069.1485,1.0538-.042,1.5515-.8572,1.3385-1.9888,2.4804-3.3201,3.3499s-2.8316,1.447-4.4026,1.6938c-.5612.0901-1.1286.1331-1.6969.128Z"/>
    <path class="s" d="M252.0799,335.0825c-5.7688,0-10.9292-4.5982-11.9001-10.9282-.0604-.3021-.0594-.6134.0041-.9145.0625-.3011.1864-.5868.3625-.8388.1761-.253.4014-.467.6626-.6298s.552-.2714.8561-.3185c.3042-.0481.6155-.0328.9135.043s.5786.211.8224.3973c.2447.1874.4496.4209.6011.6892.1516.2683.2478.5633.2816.8695.6913,4.4579,4.4354,7.5937,8.3557,7.0202.9391-.1526,1.8352-.5028,2.6299-1.0272.7947-.5243,1.4696-1.2115,1.9796-2.0144.1546-.2724.3625-.509.6124-.6974.2489-.1884.5346-.3226.8387-.3963.3031-.0727.6196-.083.9268-.0297.3083.0543.6012.17.8623.342.2612.1721.4844.3953.6554.6575.171.2612.2857.5551.339.8633.0522.3083.042.6237-.0328.9268-.0737.3031-.2099.5889-.3984.8377-.8561,1.3395-1.9857,2.4814-3.315,3.3529-1.3283.8715-2.8275,1.4512-4.3965,1.7021-.551.0717-1.106.1024-1.6611.0932Z"/>
    <path class="s" d="M229.9992,343.859c-5.7575,0-10.9169-4.587-11.9001-10.9292.0359-.5315.2509-1.0343.6114-1.4266.3605-.3922.8439-.6503,1.3702-.7302.5264-.0809,1.064.0205,1.5249.2878.4608.2663.8172.6821,1.0098,1.1787.679,4.4579,4.4354,7.5825,8.3546,7.0202.9401-.1557,1.8372-.508,2.6319-1.0344.7947-.5264,1.4686-1.2146,1.9786-2.0195.3451-.4772.8613-.8039,1.4409-.9094.5786-.1055,1.1767.0164,1.6683.342.4916.3247.8377.8275.9678,1.402.129.5745.0307,1.1767-.2745,1.6816-.8551,1.3375-1.9847,2.4793-3.314,3.3488-1.3293.8684-2.8276,1.446-4.3965,1.6939-.5551.0717-1.1142.1024-1.6734.0942Z"/>
    <path class="s" d="M208.621,351.6873c-2.6238-.0164-5.1625-.9381-7.1851-2.6094-2.5367-2.0974-4.205-5.0621-4.6801-8.3198-.0594-.5827.1075-1.1644.466-1.6273s.8807-.7701,1.4583-.8582c.5786-.0891,1.1685.0482,1.6488.382.4803.3339.8142.8398.9319,1.4132.3052,2.1373,1.3938,4.0841,3.0539,5.4646.722.6227,1.571,1.0804,2.4875,1.3436.9166.2632,1.8792.3236,2.8224.1772.9422-.1454,1.8413-.4936,2.636-1.0211.7947-.5274,1.4645-1.2217,1.9653-2.0328.382-.3707.8797-.6001,1.4102-.6493.5305-.0502,1.062.083,1.5065.3758.4445.2939.7763.7302.9391,1.2371.1628.5069.1485,1.0538-.041,1.5515-.8582,1.3395-1.9898,2.4814-3.3212,3.3498-1.3313.8695-2.8316,1.447-4.4016,1.6939-.5612.0901-1.1286.1331-1.6969.129Z"/>
    <path class="f" d="M344.1918,505.5577l123.6471-45.5521"/>
    <path class="f" d="M340.9382,509.3612l79.1713-29.2883"/>
    <path class="i" d="M191.2215,346.4326v14.1234l148.8748,152.2922,2.1762-11.9594-151.0511-154.4562Z"/>
    <path class="f" d="M193.4326,357.5144l88.4036,88.3903"/>
    <path class="f" d="M235.1945,395.4728l92.1825,94.3588"/>
    <path class="o" d="M191.2215,346.4326l151.0511,154.4562,148.3136-56.0481-153.7198-147.3192-145.6448,48.9112Z"/>
    <path class="i" d="M189.372,343.9994L49.4724,213.4252l143.3047-44.6877,142.9893,126.4562-146.3945,48.8057Z"/>
    <path class="d" d="M70.8858,214.2906l40.9543-12.7542"/>
    <path class="d" d="M76.9352,218.9943l40.9544-12.7542"/>
    <path class="s" d="M216.1216,347.5325c-.4455.0031-.8818-.127-1.2525-.3738-.4936-.342-.8367-.8613-.9586-1.4491-.1219-.5878-.0133-1.2002.3042-1.7102,1.1685-1.8157,1.6191-4.0022,1.2637-6.1313-.1987-1.615-.8736-3.1337-1.9386-4.3627-1.0651-1.2299-2.4722-2.1148-4.0411-2.5418-.5663-.1546-1.0518-.5223-1.3539-1.0262s-.3984-1.105-.2693-1.6775c.1301-.5735.4752-1.0743.9657-1.3989.4895-.3246,1.0855-.4475,1.6642-.3431,2.4619.6308,4.6812,1.9826,6.3709,3.8813,1.6908,1.8987,2.7763,4.2593,3.1184,6.7785.5346,3.2556-.1669,6.5942-1.9663,9.3603-.2151.3062-.5008.5561-.8326.7291s-.7005.2642-1.0743.2653Z"/>
    <path class="s" d="M237.4762,339.7053c-.4455.002-.8807-.128-1.2515-.3748-.2509-.1649-.467-.3769-.6349-.6247-.168-.2478-.2857-.5274-.3451-.8213-.0604-.2929-.0614-.596-.0041-.89.0584-.2939.1741-.5745.34-.8234,1.1644-1.8178,1.614-4.0022,1.2637-6.1313-.1987-1.615-.8736-3.1338-1.9376-4.3627-1.0651-1.2299-2.4722-2.1148-4.0411-2.5408-.3062-.0512-.5991-.1639-.8602-.3318-.2611-.168-.4854-.3871-.6595-.6442-.1731-.2571-.2929-.5469-.3502-.8521-.0573-.3052-.0522-.6186.0154-.9217s.1966-.5889.3789-.8398c.1823-.2519.4137-.4629.68-.6227.2663-.1587.5633-.2612.8705-.3021.3083-.0399.6206-.0174.9196.0676,2.463.6309,4.6812,1.9827,6.372,3.8814,1.6898,1.8987,2.7753,4.2592,3.1174,6.7785.5346,3.2556-.1659,6.5942-1.9652,9.3603-.2161.3062-.5008.5571-.8326.7302-.3328.1731-.7005.2632-1.0753.2653Z"/>
    <path class="s" d="M322.4388,310.5214c-.4004-.0195-.7886-.1423-1.1286-.3564-.339-.213-.6185-.511-.8101-.8633-.1915-.3523-.2888-.7476-.2837-1.149.0062-.4014.1137-.7937.3154-1.1409,1.1705-1.8106,1.6211-3.994,1.2637-6.12-.1966-1.616-.8705-3.1379-1.9355-4.3699s-2.4732-2.1178-4.0442-2.5459c-.2919-.0635-.5684-.1843-.8131-.3554-.2458-.171-.4537-.3902-.6134-.6421-.1608-.253-.2683-.5346-.3195-.8295-.0502-.2939-.041-.596.0266-.8879.1444-.5827.509-1.0886,1.0159-1.4112.508-.3226,1.1204-.4373,1.7103-.3206,2.4629.6319,4.6812,1.9827,6.372,3.8824,1.6898,1.8987,2.7753,4.2582,3.1174,6.7775.5356,3.2587-.17,6.5983-1.9775,9.3613-.212.3052-.4956.5541-.8254.723-.3308.17-.6984.255-1.0702.2478Z"/>
    <path class="s" d="M300.8384,317.1566c-.4455.0031-.8818-.128-1.2525-.3748-.2499-.1639-.466-.3769-.6339-.6247-.169-.2478-.2857-.5264-.3462-.8203-.0594-.2939-.0604-.597-.0031-.891.0584-.2939.1731-.5735.34-.8234,1.1644-1.8168,1.615-4.0012,1.2638-6.1313-.1987-1.614-.8736-3.1327-1.9376-4.3627-1.0651-1.2289-2.4722-2.1137-4.0421-2.5408-.3062-.0512-.5981-.1638-.8592-.3308-.2612-.1679-.4854-.3871-.6595-.6452-.1731-.2571-.2929-.5469-.3503-.8521s-.0522-.6186.0154-.9217c.0676-.3021.1966-.5878.3789-.8398.1823-.2509.4137-.4629.68-.6216.2663-.1587.5633-.2622.8705-.3021.3083-.041.6206-.0185.9196.0666,2.464.6288,4.6842,1.9786,6.375,3.8783,1.6908,1.8997,2.7753,4.2613,3.1143,6.7816.5346,3.2567-.1669,6.5952-1.9663,9.3613-.2151.3062-.5008.5561-.8326.7292-.3318.1731-.7005.2642-1.0743.2652Z"/>
    <path class="s" d="M281.1101,324.7626c-.4465-.0021-.8828-.1362-1.2525-.3861-.4936-.342-.8367-.8613-.9585-1.4491s-.0133-1.2002.3042-1.7102c1.1746-1.8137,1.6293-4.0002,1.275-6.1323-.1987-1.614-.8736-3.1327-1.9386-4.3616-1.064-1.2299-2.4712-2.1148-4.0411-2.5418-.3062-.0502-.5981-.1628-.8592-.3308-.2611-.168-.4854-.3871-.6595-.6442-.1731-.2571-.2929-.5479-.3502-.8521-.0574-.3052-.0522-.6186.0154-.9217.0676-.3031.1966-.5889.3789-.8408.1823-.2509.4137-.4629.68-.6216.2663-.1587.5633-.2612.8705-.3021.3083-.0399.6206-.0174.9196.0666,2.4619.6319,4.6812,1.9827,6.3709,3.8824,1.6908,1.8987,2.7764,4.2582,3.1184,6.7775.5346,3.2567-.1669,6.5952-1.9663,9.3613-.214.3083-.4987.5612-.8305.7363-.3318.1751-.7015.2673-1.0763.2704Z"/>
    <path class="s" d="M259.5446,330.9287c-.4445-.0031-.8787-.1331-1.2515-.3748-.2509-.1639-.467-.3758-.635-.6247-.168-.2478-.2857-.5264-.3451-.8203-.0604-.2939-.0614-.596-.0031-.891.0574-.2939.1731-.5735.339-.8234,1.1644-1.8168,1.614-4.0012,1.2637-6.1313-.1987-1.614-.8725-3.1327-1.9376-4.3627-1.0651-1.2289-2.4722-2.1137-4.0411-2.5408-.3513,0-.6974-.0788-1.0139-.2304-.3154-.1516-.594-.3717-.8131-.6462-.2192-.2735-.3748-.593-.4537-.934-.0799-.342-.0809-.6964-.0051-1.0395.0768-.3421.2294-.6626.4465-.9381.2161-.2755.4926-.4987.808-.6534.3144-.1546.6595-.2355,1.0108-.2386.3502-.0031.6974.0727,1.0149.2222,2.465.6267,4.6863,1.9765,6.3771,3.8762,1.6908,1.8997,2.7753,4.2623,3.1123,6.7837.5356,3.2556-.1649,6.5952-1.9653,9.3603-.214.3093-.4987.5612-.8316.7363-.3318.1751-.7005.2683-1.0763.2704Z"/>
    <path class="f" d="M462.0353,441.2717l5.7565-2.1178"/>
    <path class="f" d="M348.3803,483.2558l108.4238-40.0424"/>
    <path class="f" d="M351.4229,465.1538l103.4743-38.2165"/>
    <path class="f" d="M335.4859,471.0393l9.0572-3.3468"/>
    <path class="f" d="M322.5914,458.8238l119.4227-44.102"/>
    <path class="f" d="M309.7082,446.6185l119.4104-44.102"/>
    <path class="f" d="M411.2162,392.1496l5.0079-1.8485"/>
    <path class="f" d="M296.8137,434.403l107.241-39.6092"/>
    <path class="f" d="M283.9182,422.1865l119.4237-44.102"/>
    <path class="f" d="M271.0237,409.9823l119.4226-44.102"/>
    <path class="f" d="M258.1405,397.7658l119.4114-44.102"/>
    <path class="f" d="M245.246,385.5503l119.4114-44.102"/>
    <path class="f" d="M347.5385,330.7997l4.2357-1.5679"/>
    <path class="f" d="M232.3516,373.3337l111.5125-41.1761"/>
    <path class="f" d="M255.1102,347.9544l83.7685-30.9269"/>
    <path class="f" d="M219.4683,361.1295l23.0628-8.5185"/>
    <path class="c" d="M260.8902,392.7118c12.0875,1.5792,11.0224-19.1087,7.9573-26.047-2.2366,2.5633-3.9039,5.5721-4.8901,8.8278-.9862,3.2556-1.2699,6.6843-.8316,10.0577.127,1.5751.6769,3.0866,1.5904,4.376.4639.638,1.105,1.1255,1.8444,1.3999.7384.2745,1.5423.3257,2.3104.1444,1.0999-.466,2.0308-1.2586,2.6678-2.2694,2.2233-2.9494,3.697-6.5993,6.0371-9.3029,3.2413,2.1885,14.7553,5.9326,13.0942-2.1179-.9125-4.4466,1.2986-3.9428,3.6745-1.7666.9821.8889,2.5275.4096,3.7441-.129l11.7014-5.1482c1.489-.7599,3.102-1.2474,4.7621-1.4399,5.6172-.2806,9.2907,4.9382,14.8024,1.2525,2.3401-1.5444,2.8788-5.7339,5.8507-7.3254,2.1178-1.1695,4.6105-1.2402,7.0202-1.5679,8.285-1.0999,12.5207-5.4759,20.1728-9.4309"/>
    <path class="c" d="M270.2751,405.6411c4.5276.7722,8.4007-3.358,12.4029-4.6801,5.1134-1.7082,7.3367-3.7912,12.2514-5.9091,6.4938-2.7856,14.1234-4.0718,12.7665-13.8899-.9248,3.5106-1.0303,7.3725-1.744,11.046,5.266,2.6094,6.6812-1.8721,7.2199-5.8507,1.7676-.044,3.5137-.3963,5.1605-1.0415,0,.7373.2335,1.5679.2222,2.2704,2.5275,1.018,3.5096.3277,4.037-1.9069,2.7958-.5274,3.7912-3.1481,6.1549-3.7912.596,6.5645,2.2694,12.3097,1.8833,19.0258-4.4815,1.1705-5.183-6.5645-4.0483-9.771,1.1695-3.3928,4.5398-5.2065,5.78-8.752.2581.4332.0584.936.1987,1.404,5.6408-3.3703,12.8719-2.4568,18.4646-6.4006,1.7553-1.2402,3.0078-3.7205,4.8686-4.5869,4.0483-1.8721,5.2536.3277,8.2727-4.0831"/>
    <path class="c" d="M311.0415,444.1965c8.1324-2.3401,11.7014-22.5477,9.3613-29.9663-2.7384-8.9752-6.5061.8654-7.3838,5.6868-.7015,3.8609-1.8249,14.0415,1.7789,16.9786,7.9921,6.4815,12.8709-6.8461,13.8541-12.8719.3513,3.7677-1.9192,8.413-.9944,12.4736,6.4703.7609,9.6768-4.6218,9.2671-10.1796.8039.7691,1.3477,1.7686,1.5577,2.8613.2099,1.0917.0748,2.2223-.3871,3.2341,6.1784-.4322,5.1604-10.8585,5.8507-15.0594-.3513,2.9371-.0819,6.3771,1.8956,8.753,1.6498,1.9652,4.7969,2.8316,6.8687,1.3109,2.0707-1.5218,1.6611-5.523-.8541-6.0504v25.3332c.0789.7333-.0676,1.4716-.4219,2.1179-.8306,1.1705-2.8665.9248-3.8148-.1987-.8347-1.2248-1.2269-2.6985-1.1112-4.1773-.1167-8.2963,2.4456-19.6577,8.8698-25.3209.3298.807.4383,1.6877.3154,2.55.6155-.2396,1.1706-.6093,1.6294-1.0835.4588-.4752.809-1.0425,1.0272-1.6662.4209,1.8608,1.5208,4.2009,3.4051,3.8732.6247-.1638,1.1972-.4854,1.6611-.936,3.0897-2.5511,6.4365-4.2357,8.5072-7.8631.2929.9125.597,1.826.9012,2.7497.4916-1.7666,2.1762-2.9248,3.8261-3.7205,2.5173-1.1839,5.2383-1.871,8.0157-2.0247,2.3401-.1168,4.8911.129,7.0202-.8777.9432-.5039,1.8475-1.0784,2.7036-1.7195,2.424-1.5986,5.2321-2.5193,8.1324-2.6688"/>
    <path class="h" d="M243.6797,167.4654s18.6632-23.5195,24.982-31.9326c6.3187-8.413,10.8934-14.8843,10.8934-14.8843,0,0,3.3703,2.6565,2.3411,5.6756-1.0303,3.0191-23.2277,33.3366-28.1649,41.0358-4.9382,7.6992-4.248,17.4466-3.8855,20.8046.3625,3.359-9.431-7.6173-6.1661-20.6992Z"/>
    <path class="n" d="M279.5561,120.6486s11.6185-16.1592,20.2424-29.6156c8.624-13.4564,21.2143-33.6645,24.2098-36.3557,2.9955-2.6913,3.7216,4.3295,2.7497,9.0333-.9708,4.7039-11.2795,17.8327-18.2413,28.5979-6.9629,10.7652-11.2692,18.5114-17.2602,25.5792-5.991,7.0673-5.6397,7.4063-9.3603,8.4366-3.7216,1.0292-2.9955-2.6565-2.3401-5.6756Z"/>
    <path class="n" d="M239.6662,169.8291c1.2873-8.7172,4.2009-24.8181,10.8586-29.8854,6.6577-5.0662,26.8079-1.1695,28.4813-.8654,1.6724.3042,28.1874,6.1784,36.2737,11.1515,8.0853,4.973,13.5151,19.3422,15.5858,27.661,2.0707,8.3198,6.5174,22.4084,7.1841,23.4028,0,0,6.7283,2.9607,10.4141,2.6094,3.6857-.3513,8.5892-17.4814,18.9101-27.6026,10.3199-10.1222,15.679-11.5027,27.0762-10.5319,11.3972.9719,54.6912,12.7081,59.0795,17.0257,4.3883,4.3176,7.1257,14.0415,6.1784,21.0617-.9483,7.0212.4332,14.744.4332,16.0784,0,1.3334,4.0596,5.6746,3.0774,9.3603-.9831,3.6857-1.5915,11.7014-4.5992,12.7665-3.0068,1.0651-25.1335.5029-41.5622-1.7317-16.4286-2.2356-39.2815-12.1459-54.4116-19.0729-15.1291-6.927-22.5128-9.9113-33.5701-9.8293-11.0583.0819-32.4948.5499-52.2927-4.0135-19.799-4.5634-33.2557-12.872-36.9763-16.5106-3.7206-3.6386-1.4163-12.3445-.1403-21.074ZM358.2225,210.9243c5.4185,8.0146,27.2524,15.9135,39.0009,19.1784,11.7475,3.2638,39.9246,9.1145,47.2726,5.055,7.349-4.0606,11.2098-28.2243,10.5319-36.6014-.679-8.3782-4.1077-13.0358-4.1077-13.0358-14.4747-8.9517-59.7697-18.3704-69.131-14.615-9.3613,3.7564-18.312,15.8674-21.6004,25.6026-3.2884,9.7351-1.9663,14.4163-1.9663,14.4163ZM263.6415,197.1511c14.4634,8.6127,37.2691,11.1402,46.314,11.4208,9.0449.2806,17.7272-4.4702,17.9966-14.8608.2694-10.3905-5.2075-27.7788-7.2547-32.7631-2.0482-4.9853-8.7643-7.9808-8.7643-7.9808-9.0684-4.2941-46.6643-13.7598-53.0301-12.7071-6.3658,1.0528-11.9349,10.7182-13.2345,24.8417-1.2986,14.1234,3.5106,23.4376,17.973,32.0493Z"/>
    <path class="h" d="M459.1345,219.6414s3.7205,5.6745,6.3771,1.6375c2.6565-4.036,36.9179-42.4634,36.9179-42.4634,0,0,1.3334-.3513,1.018,2.3401-.3164,2.6913-36.1805,50.8426-37.5149,53.1939-1.3334,2.3524-7.0202,3.0662-8.3546,2.0718-1.3334-.9954,1.5567-16.7799,1.5567-16.7799Z"/>
    <path class="n" d="M500.0884,180.1612c1.9581-3.485,3.7236-7.0755,5.2895-10.7531,3.6274-8.0628,5.8507-23.8237,6.4355-40.2524.5848-16.4288,1.1705-26.1408,4.2008-23.1453,3.0304,2.9956.4332,19.1083-.129,31.8277-.5612,12.7194-4.5163,25.4971-5.4759,32.2132-.725,5.0662-4.6105,13.0942-7.2895,13.1054-2.6801.0113-2.3401-.6554-3.0314-2.9955Z"/>
    <path class="k" d="M249.961,444.7117l14.7317,16.6744-21.9045-4.9382-155.8602-95.3532,7.1846-11.7362,155.8485,95.3532Z"/>
    <g class="p">
      <path class="i" d="M249.961,444.7117l14.7317,16.6744-21.9045-4.9382-155.8602-95.3532,7.1846-11.7362,155.8485,95.3532Z"/>
      <path class="e" d="M249.961,444.7117l14.7317,16.6744-21.9045-4.9382-155.8602-95.3532,7.1846-11.7362,155.8485,95.3532Z"/>
    </g>
    <path class="g" d="M92.4808,352.0293l-3.9145,6.3986,155.8563,95.3593,3.9151-6.3986-155.857-95.3593Z"/>
    <path class="k" d="M249.9968,444.7465l-7.1728,11.7137,21.8687,4.9259-14.6959-16.6396Z"/>
    <path class="l" d="M253.7522,458.917l10.9405,2.4691-7.3479-8.3198-3.5926,5.8507Z"/>
    <path class="k" d="M73.0737,344.5493c-.4726.7691-.7889,1.6242-.9305,2.5162-.1417.892-.1061,1.8035.1047,2.6811.2109.8787.5929,1.7062,1.1241,2.4374.5313.7302,1.2014,1.3487,1.9719,1.8198l11.5841,7.0909,7.1846-11.7014-11.5842-7.0909c-1.5522-.9534-3.4194-1.2525-5.1917-.8316-1.7724.4209-3.3055,1.528-4.2629,3.0784Z"/>
    <path class="m" d="M73.0737,344.5493c-.4726.7691-.7889,1.6242-.9305,2.5162-.1417.892-.1061,1.8035.1047,2.6811.2109.8787.5929,1.7062,1.1241,2.4374.5313.7302,1.2014,1.3487,1.9719,1.8198l5.5463,3.3929,7.1846-11.7014-5.5464-3.3929c-1.5522-.9534-3.4194-1.2525-5.1917-.8316-1.7724.4209-3.3055,1.528-4.2629,3.0784Z"/>
    <path class="j" d="M387.5912,288.6753l-4.1067-2.89c-.636-.4455-1.3631-.7425-2.1291-.8674-.766-.126-1.5495-.0778-2.294.1424-4.3412,1.2638-12.532,4.4815-14.872,7.0202-3.0426,3.1358-4.0022,8.8114-2.5398,11.4792,1.4624,2.6678,7.4657,6.0729,7.4657,6.0729l25.1458-15.3052-6.67-5.652Z"/>
    <g class="p">
      <path class="r" d="M387.5912,288.6753l-4.1067-2.89c-.636-.4455-1.3631-.7425-2.1291-.8674-.766-.126-1.5495-.0778-2.294.1424-4.3412,1.2638-12.532,4.4815-14.872,7.0202-3.0426,3.1358-4.0022,8.8114-2.5398,11.4792,1.4624,2.6678,7.4657,6.0729,7.4657,6.0729l25.1458-15.3052-6.67-5.652Z"/>
      <path class="b" d="M387.5912,288.6753l-4.1067-2.89c-.636-.4455-1.3631-.7425-2.1291-.8674-.766-.126-1.5495-.0778-2.294.1424-4.3412,1.2638-12.532,4.4815-14.872,7.0202-3.0426,3.1358-4.0022,8.8114-2.5398,11.4792,1.4624,2.6678,7.4657,6.0729,7.4657,6.0729l25.1458-15.3052-6.67-5.652Z"/>
    </g>
    <path class="j" d="M390.1535,287.4935l-19.8911,9.092s-6.7283,3.8035-4.5992,15.4455l116.4856,85.7707s4.0493,2.9484,11.3624.4557c7.3131-2.4916,14.8024-11.1156,16.3815-18.4052,1.5802-7.2906-3.5106-9.5835-4.4579-10.3916-.9483-.807-111.3486-81.1007-111.3486-81.1007-1.1675-.7445-2.5603-1.0518-3.9326-.8664Z"/>
    <g class="p">
      <path class="r" d="M390.1535,287.4935l-19.8911,9.092s-6.7283,3.8035-4.5992,15.4455l116.4856,85.7707s4.0493,2.9484,11.3624.4557c7.3131-2.4916,14.8024-11.1156,16.3815-18.4052,1.5802-7.2906-3.5106-9.5835-4.4579-10.3916-.9483-.807-111.3486-81.1007-111.3486-81.1007-1.1675-.7445-2.5603-1.0518-3.9326-.8664Z"/>
      <path class="b" d="M390.1535,287.4935l-19.8911,9.092s-6.7283,3.8035-4.5992,15.4455l116.4856,85.7707s4.0493,2.9484,11.3624.4557c7.3131-2.4916,14.8024-11.1156,16.3815-18.4052,1.5802-7.2906-3.5106-9.5835-4.4579-10.3916-.9483-.807-111.3486-81.1007-111.3486-81.1007-1.1675-.7445-2.5603-1.0518-3.9326-.8664Z"/>
    </g>
    <path class="j" d="M502.0531,392.208c-7.3367,6.8451-16.2187,9.2558-19.8922,5.3714-3.6745-3.8854-.6442-12.6026,6.6925-19.46,7.3367-6.8564,16.2187-9.2548,19.8922-5.3704,3.6745,3.8844.6319,12.6026-6.6925,19.459Z"/>
    <g>
      <path class="r" d="M502.0531,392.208c-7.3367,6.8451-16.2187,9.2558-19.8922,5.3714-3.6745-3.8854-.6442-12.6026,6.6925-19.46,7.3367-6.8564,16.2187-9.2548,19.8922-5.3704,3.6745,3.8844.6319,12.6026-6.6925,19.459Z"/>
      <path class="b" d="M502.0531,392.208c-7.3367,6.8451-16.2187,9.2558-19.8922,5.3714-3.6745-3.8854-.6442-12.6026,6.6925-19.46,7.3367-6.8564,16.2187-9.2548,19.8922-5.3704,3.6745,3.8844.6319,12.6026-6.6925,19.459Z"/>
    </g>
    <path class="n" d="M394.0737,288.3599c-1.1634-.7425-2.5521-1.0487-3.9203-.8664l-19.8911,9.092s-6.7283,3.8035-4.5992,15.4455l80.5518,59.314c-.5735-2.7384-.468-6.7396,2.6094-11.4904,2.8552-4.4354,15.679-11.5847,22.606-15.212-32.7866-23.8585-77.3566-56.2826-77.3566-56.2826Z"/>
    <path class="q" d="M486.5021,377.9094l-42.5463-30.8326c-.636-.4608-1.147-1.0743-1.4839-1.785-.3369-.7097-.4895-1.4931-.4445-2.2776.0461-.7845.2878-1.5454.7046-2.211.4168-.6667.9944-1.2177,1.6805-1.6017l6.5881-3.5925c.7732-.4178,1.6488-.6104,2.5254-.5551.8777.0563,1.7215.3584,2.4353.8715l44.9796,32.5757"/>
    <path class="b" d="M486.5021,377.9094l-42.5463-30.8326c-.636-.4608-1.147-1.0743-1.4839-1.785-.3369-.7097-.4895-1.4931-.4445-2.2776.0461-.7845.2878-1.5454.7046-2.211.4168-.6667.9944-1.2177,1.6805-1.6017l6.5881-3.5925c.7732-.4178,1.6488-.6104,2.5254-.5551.8777.0563,1.7215.3584,2.4353.8715l44.9796,32.5757"/>
    <g class="p">
      <path class="r" d="M486.5021,377.9094l-42.5463-30.8326c-.636-.4608-1.147-1.0743-1.4839-1.785-.3369-.7097-.4895-1.4931-.4445-2.2776.0461-.7845.2878-1.5454.7046-2.211.4168-.6667.9944-1.2177,1.6805-1.6017l6.5881-3.5925c.7732-.4178,1.6488-.6104,2.5254-.5551.8777.0563,1.7215.3584,2.4353.8715l44.9796,32.5757"/>
      <path class="b" d="M486.5021,377.9094l-42.5463-30.8326c-.636-.4608-1.147-1.0743-1.4839-1.785-.3369-.7097-.4895-1.4931-.4445-2.2776.0461-.7845.2878-1.5454.7046-2.211.4168-.6667.9944-1.2177,1.6805-1.6017l6.5881-3.5925c.7732-.4178,1.6488-.6104,2.5254-.5551.8777.0563,1.7215.3584,2.4353.8715l44.9796,32.5757"/>
    </g>
  </g>
</svg>
