<?xml version="1.0" encoding="UTF-8"?>
<svg id="a" data-name="Layer 1" xmlns="http://www.w3.org/2000/svg" viewBox="0 0 566.9291 566.9291">
  <defs>
    <style>
      .b, .c {
        opacity: .2;
      }

      .d {
        fill: #e30613;
      }

      .d, .e, .f, .g, .h, .i, .j, .k, .l, .c, .m, .n, .o, .p {
        stroke-width: 0px;
      }

      .f {
        fill: #e0e0e0;
      }

      .g {
        fill: #f5f5f5;
      }

      .h {
        fill: #f0f0f0;
      }

      .i {
        fill: #d78776;
      }

      .j, .c, .n {
        isolation: isolate;
      }

      .j, .q {
        opacity: .3;
      }

      .k {
        fill: #fff;
      }

      .l {
        fill: #09f;
      }

      .m {
        fill: #263238;
      }

      .n {
        opacity: .1;
      }

      .o {
        fill: #455a64;
      }

      .p {
        fill: #e5baab;
      }
    </style>
  </defs>
  <path class="h" d="M420.6226,199.1356c-6.9885,9.3751-16.5999,16.4682-27.6182,20.3815-11.0189,3.9139-22.9508,4.4734-34.2867,1.6073-11.3365-2.8661-21.5691-9.0286-29.4038-17.7088-7.8347-8.6802-12.9198-19.4887-14.6134-31.0583-1.693-11.5702.0819-23.3824,5.1009-33.9433,5.0183-10.5615,13.0559-19.398,23.0951-25.3923,10.0398-5.9943,21.6315-8.878,33.3095-8.2858,11.678.5922,22.9187,4.6334,32.3008,11.6124h.0655c6.2293,4.6428,11.4833,10.4676,15.4601,17.1418,3.9775,6.6741,6.601,14.0665,7.72,21.755,1.119,7.6885.712,15.5219-1.1977,23.0529-1.9097,7.531-5.2849,14.6121-9.9321,20.8376Z"/>
  <path class="g" d="M409.3346,190.7125c-5.3283,7.1517-12.6577,12.5626-21.0613,15.5484-8.4042,2.9858-17.504,3.4124-26.1502,1.2255-8.6462-2.1875-16.4494-6.889-22.4228-13.5114-5.9735-6.6224-9.8489-14.8673-11.1361-23.6924-1.2866-8.8251.0724-17.8336,3.9057-25.8862,3.8332-8.052,9.9687-14.7866,17.63-19.352,7.6614-4.5653,16.5048-6.7554,25.4112-6.2942,8.9064.4612,17.4763,3.5535,24.6249,8.8862,4.7487,3.5352,8.7533,7.972,11.7857,13.0565,3.033,5.0845,5.0335,10.7165,5.8878,16.5747.8544,5.8582.5456,11.8273-.9085,17.5658-1.4542,5.7391-4.0254,11.1349-7.5663,15.8791Z"/>
  <path class="f" d="M410.1757,189.5563c-.223-.1443.8014-1.853,2.2864-5.0461,2.0937-4.486,3.481-9.2693,4.113-14.1793.4077-3.367.4473-6.7686.1184-10.1444-.3862-3.8559-1.2695-7.6456-2.6279-11.2747-1.4844-4.0065-3.5617-7.7679-6.1632-11.1569-1.3552-1.8045-2.8535-3.4961-4.4809-5.0593-1.681-1.6003-3.4728-3.0797-5.3617-4.4286-1.9191-1.3092-3.9252-2.4862-6.0056-3.5213-2.025-.9911-4.1255-1.8215-6.281-2.4837-2.0773-.6565-4.2043-1.1442-6.3603-1.4586-2.064-.3308-4.1514-.4977-6.2419-.4996-3.8735-.0636-7.7389.3787-11.4984,1.3143-3.2844.8436-6.4662,2.047-9.4873,3.5875-4.3958,2.2757-8.4118,5.2193-11.906,8.7256-2.4969,2.4963-3.7318,4.0474-3.9422,3.9422s.6968-1.9317,2.9568-4.7833c3.2624-4.021,7.2411-7.4025,11.7347-9.9743,6.7397-3.8761,14.3683-5.9407,22.1425-5.9918,4.5994-.0523,9.1805.5897,13.5877,1.9053,2.3343.6962,4.6107,1.5745,6.807,2.6279,2.2487,1.1026,4.4142,2.3671,6.4782,3.7847,2.0388,1.4605,3.9706,3.0633,5.782,4.7966,1.744,1.6942,3.3481,3.527,4.7966,5.4795,1.4113,1.8769,2.6645,3.8685,3.745,5.9527,4.7273,8.8925,6.3679,19.1025,4.6655,29.0283-.8758,5.1053-2.6846,10.0052-5.3353,14.4552-1.9449,3.0879-3.3644,4.5332-3.522,4.4022Z"/>
  <path class="f" d="M361.2127,188.3208l-4.6126,6.3471-5.6245-4.113,4.4809-6.1896c-5.3611-4.4148-9.4873-10.0789-10.8281-14.7835l8.1346-4.6649c1.6079,4.6391,4.3984,8.7791,8.0949,12.0106l6.8726-9.4741c-5.1909-6.0976-10.7102-13.3117-4.823-21.4198,4.3631-6.0189,12.4838-8.0161,22.1954-2.5366l4.5729-6.2942,5.6767,4.113-4.5464,6.1896c3.8988,3.1729,6.9879,7.226,9.0141,11.8267l-7.8844,4.9276c-1.5632-3.4684-3.7961-6.5947-6.5701-9.1981l-6.991,9.527c5.2565,6.0447,10.6308,13.1409,4.8224,21.1697-4.2705,5.9659-12.2999,7.9374-21.9843,2.5624ZM373.723,159.1086l5.8475-8.0552c-3.4955-1.5109-5.8872-.7227-7.2405,1.1568-1.354,1.8788-.5261,4.2969,1.393,6.8984ZM373.5648,179.8712c1.446-1.984.5784-4.2573-1.2349-6.8858l-5.69,7.8844c3.2983,1.393,5.6112.8021,6.9249-.9986Z"/>
  <path class="h" d="M208.936,286.5884c1.9632,13.3577-.0794,26.997-5.8689,39.1941-5.7902,12.1965-15.0664,22.402-26.6574,29.3257-11.5904,6.9236-24.9739,10.2547-38.4576,9.5711s-26.4621-5.3504-37.2926-13.4106c-10.8312-8.0608-19.0288-19.1522-23.5551-31.8717-4.5267-12.7194-5.1794-26.4955-1.8755-39.586,3.3038-13.0905,10.4159-24.9077,20.4362-33.9559,10.0203-9.0481,22.4991-14.9208,35.858-16.8765h.131c8.8591-1.2973,17.8865-.8367,26.5673,1.3552,8.6815,2.1919,16.845,6.0718,24.0263,11.419,7.1813,5.3472,13.2392,12.0566,17.8273,19.7451s7.6167,16.2049,8.9133,25.064l-.0523.0265Z"/>
  <path class="g" d="M192.8641,288.9145c1.5039,10.1766-.0441,20.5699-4.4475,29.8669-4.404,9.297-11.465,17.0787-20.292,22.3624-8.8264,5.2836-19.0212,7.8309-29.2954,7.3199-10.2742-.5103-20.166-4.0563-28.4253-10.1892-8.2587-6.1329-14.5138-14.5768-17.9741-24.2645-3.4596-9.687-3.9693-20.1836-1.4642-30.1605,2.5051-9.9775,7.9128-18.9878,15.5389-25.8913,7.6261-6.9041,17.1285-11.3913,27.3045-12.8952h.1184c13.6299-1.9966,27.4947,1.5014,38.5471,9.7242,11.0517,8.2234,18.3861,20.498,20.3897,34.1273Z"/>
  <path class="f" d="M192.6146,287.3117c-.3157,0-.8543-2.1686-2.2606-5.9924-1.9582-5.3655-4.7329-10.3958-8.2259-14.9152-2.4143-3.0772-5.1544-5.884-8.1736-8.3702-3.4728-2.8169-7.2928-5.1752-11.3667-7.0175-2.197-.9993-4.4633-1.8385-6.7812-2.5101-2.408-.712-4.8684-1.2349-7.3583-1.5638-2.5775-.3522-5.179-.5015-7.7799-.4467-2.6777.063-5.3479.3182-7.9897.7624-2.6317.4965-5.2263,1.1725-7.766,2.0237-2.4635.8531-4.8577,1.8939-7.1618,3.1143-2.2222,1.1492-4.353,2.4673-6.3736,3.9422-1.9462,1.4233-3.7822,2.9915-5.4928,4.6913-3.1918,3.1339-5.9659,6.6678-8.2524,10.5124-1.9884,3.3645-3.597,6.9387-4.7966,10.6573-1.732,5.4436-2.6185,11.121-2.6279,16.8337,0,4.0739.2627,6.3471,0,6.3994-.2627.0529-1.0119-2.1415-1.4983-6.3207-.6174-5.9382-.1317-11.9388,1.4327-17.7006,2.3293-8.66,6.8562-16.5722,13.1403-22.9704,1.8026-1.8631,3.7488-3.5812,5.8217-5.1381,4.3795-3.3437,9.2573-5.9773,14.4552-7.8057,2.7332-.9476,5.5362-1.6816,8.3834-2.1945,2.8497-.4858,5.7309-.7624,8.6203-.8279,2.8094-.0265,5.6163.1581,8.3973.5519,2.6702.3913,5.3063.9885,7.8844,1.7875,2.4799.7504,4.8961,1.6948,7.2279,2.8251,4.3171,2.0804,8.3343,4.7329,11.9445,7.8844,3.1282,2.7212,5.9162,5.8097,8.3053,9.1987,3.4628,4.8653,5.9893,10.3334,7.451,16.1236,1.0383,4.1004,1.0642,6.4259.8411,6.4656Z"/>
  <path class="f" d="M151.6676,326.2217l1.4321,8.9492-7.9764,1.3137-1.393-8.6991c-7.9897.7882-15.9793-.4732-20.9202-3.2063l2.8384-10.4468c5.0971,2.4528,10.7417,3.5484,16.3863,3.1799l-2.1415-13.3514c-9.1987-.7227-19.5801-2.1025-21.4066-13.5215-1.3143-8.4628,3.6266-16.7152,16.0184-20.1717l-1.4189-8.8698,7.9897-1.3143,1.393,8.6991c5.7618-.6023,11.5841.1676,16.9912,2.2474l-2.4181,10.513c-4.1067-1.589-8.4899-2.3394-12.8915-2.2077l2.1819,13.5876c9.1987.6565,19.4087,2.0496,21.2094,13.3117,1.3533,8.3311-3.5743,16.4915-15.8741,19.9871ZM138.0926,292.2261l-1.8265-11.3403c-4.0733,1.6293-5.3876,4.2182-4.9673,6.8593.4209,2.6412,3.0356,3.929,6.7938,4.4809ZM154.913,309.3092c-.4599-2.7987-3.0091-3.9422-6.5702-4.5994l1.761,11.0252c3.7582-1.5506,5.1639-3.9422,4.7569-6.4523l.0523.0265Z"/>
  <path class="h" d="M347.1122,49.5269c-1.2034,6.5594-4.3247,12.6147-8.97,17.4001-4.6447,4.7854-10.6044,8.0857-17.1247,9.4844-6.521,1.3981-13.3098.8317-19.5089-1.628-6.1984-2.46-11.5287-6.7028-15.3159-12.1919-3.7872-5.4891-5.862-11.9781-5.9615-18.6463-.1002-6.6682,1.7799-13.2162,5.402-18.816,3.6215-5.5998,8.8226-9.9999,14.9448-12.6439,6.1228-2.644,12.8914-3.4131,19.4509-2.2101h.0794c4.3486.8,8.4968,2.4492,12.2078,4.8532,3.711,2.404,6.9117,5.5157,9.4199,9.1573,2.5076,3.6416,4.273,7.7417,5.196,12.066.9224,4.3243.9835,8.788.1802,13.136v.0394Z"/>
  <path class="g" d="M339.2271,48.0548c-.9173,4.9974-3.2964,9.6105-6.836,13.2558-3.539,3.6454-8.0804,6.1594-13.0483,7.2241-4.9679,1.0647-10.1406.6324-14.8629-1.2424-4.7222-1.8748-8.7829-5.1077-11.6679-9.2901-2.885-4.1824-4.4652-9.1264-4.5401-14.2068-.0756-5.0803,1.3571-10.069,4.1174-14.3351,2.7596-4.2661,6.7226-7.6179,11.3875-9.6319,4.6643-2.0139,9.8219-2.5993,14.8194-1.6823,3.3191.6074,6.4864,1.8631,9.3203,3.6952,2.8333,1.8322,5.2786,4.205,7.1945,6.9827,1.916,2.7778,3.2656,5.9059,3.9725,9.2057.7063,3.2998.7548,6.7064.1436,10.025Z"/>
  <path class="f" d="M339.3594,47.2669c-.1355-1.05-.1663-2.1109-.092-3.1669-.0542-2.8206-.5368-5.6166-1.4321-8.2919-.6338-1.8373-1.4668-3.5999-2.4836-5.2564-1.1801-1.8668-2.5933-3.5758-4.205-5.0855-.8638-.8246-1.7912-1.5804-2.7728-2.2602-1.0276-.7085-2.1132-1.3284-3.246-1.8528-1.1473-.5781-2.3375-1.0658-3.561-1.4586-1.2639-.3949-2.5555-.6979-3.8635-.9068-1.3048-.1947-2.6229-.2913-3.9422-.2891-1.2853,0-2.5687.1055-3.837.3154-1.2255.1865-2.4345.4722-3.614.8542-1.1398.3523-2.2518.7916-3.3241,1.314-3.7538,1.8109-7.0036,4.5189-9.4615,7.8846-1.6961,2.2668-3.0267,4.7854-3.9428,7.464-.2514,1.0265-.6036,2.0256-1.0509,2.983-.1329-1.0746-.0252-2.1653.315-3.1932.6452-2.8798,1.8265-5.6125,3.4829-8.0554,1.1246-1.6976,2.4477-3.2549,3.9422-4.6387,1.7509-1.5679,3.7041-2.8938,5.8078-3.9422,1.1391-.5842,2.3205-1.0807,3.5352-1.485,1.2878-.4227,2.6053-.7477,3.9422-.9724,1.3679-.2344,2.7521-.3574,4.1394-.3679,2.8648-.0247,5.7146.4192,8.4364,1.3141,1.3294.386,2.626.8782,3.8767,1.4718,2.3293,1.1977,4.4683,2.7344,6.3471,4.5599,3.1647,3.1054,5.501,6.9547,6.7938,11.196.843,2.8267,1.1549,5.7852.9199,8.7256-.0101,1.0855-.252,2.1563-.7101,3.1407Z"/>
  <path class="f" d="M314.0239,58.9622l-.7624,4.4416-3.9422-.6702.7359-4.2971c-3.4829-.7077-6.6974-2.3786-9.2775-4.8227l2.9826-4.4416c1.9954,1.9667,4.4677,3.3798,7.175,4.1l1.1171-6.5705c-4.1917-1.8134-8.8308-4.1-7.8844-9.7374.7094-4.1788,4.3492-7.2406,10.6964-6.8858l.7491-4.3759,3.9422.6702-.7359,4.2971c2.7962.6523,5.3957,1.9634,7.5826,3.824l-2.7993,4.5074c-1.6432-1.4352-3.561-2.5216-5.637-3.1933l-1.1568,6.7282c4.205,1.774,8.752,4.0474,7.8057,9.606-.683,4.0999-4.2837,7.1355-10.5911,6.8201ZM313.0511,40.8804l.9596-5.5981c-2.1686.1183-3.1937,1.117-3.4168,2.4179-.2237,1.3009.8279,2.3391,2.4572,3.1801ZM318.2156,51.577c.223-1.3141-.7888-2.326-2.3785-3.2064l-.9331,5.4272c2.0502-.1314,3.0879-.9987,3.3115-2.2208Z"/>
  <path class="m" d="M551.046,556.7915c0,.1972-169.7278.3415-282.7524.3415s-252.4105-.1443-252.4105-.3415,139.2933-.3415,252.4105-.3415,282.7524.1575,282.7524.3415Z"/>
  <path class="l" d="M114.1507,503.098c22.5495-15.7689,27.6743-45.0076,26.7809-71.3027-.1443-4.3889.3289-9.0148-1.7478-12.8776-2.076-3.8635-6.9646-6.4788-10.8936-4.6258-3.2592,1.5373-4.6781,5.322-6.5046,8.4628-2.4459,4.1766-6.0157,7.5826-10.3026,9.8294-2.7861,1.4453-6.2419,2.3388-9.0015.8147-3.7847-2.0893-4.2314-7.3193-4.205-11.6824.0523-8.1383.1002-16.2773.1443-24.4157,0-4.3631,0-8.8175-1.3143-12.957-1.3137-4.1394-4.3625-8.0029-8.5151-9.1987-4.1527-1.1958-9.2907,1.2355-10.1579,5.506-.1685,1.8039-.2124,3.6171-.1314,5.4273-.1183,1.8133-.9592,3.8238-2.6281,4.3234-1.6689.4996-3.4955-.7226-4.7964-1.9972-4.5073-4.4154-7.5692-10.0921-10.4208-15.7695-2.8515-5.6768-5.6374-11.4323-9.7242-16.242-4.0868-4.8092-9.7374-8.6203-15.9924-8.9751-6.2551-.3547-12.9175,3.5088-14.455,9.6454s2.0106,12.4051,5.9134,17.3856c5.798,7.3892,12.6315,13.9046,20.2895,19.3431,1.4933.8159,2.6826,2.0924,3.3904,3.6398.9461,2.9177-1.8003,5.8084-4.6781,6.768-3.259,1.0774-6.7807.7359-10.1842,1.1429-3.4035.4077-7.0961,1.9059-8.3839,5.1122-1.7871,4.4677,1.9449,9.1987,5.6112,12.2078,7.3561,6.1348,15.713,10.9572,24.7049,14.2574,3.2196,1.1832,6.5705,2.2077,9.1987,4.4683,2.6282,2.26,4.1525,6.1764,2.6282,9.1987-1.5243,3.0223-5.5849,4.06-8.949,3.4426-3.3641-.6174-6.3733-2.4572-9.5797-3.6663-5.9922-2.26-13.7454-1.853-17.5825,3.338-2.5362,3.4035-2.7464,8.1604-1.4718,12.2211,1.4483,3.9983,3.6823,7.6665,6.5705,10.7883,9.5138,11.4172,21.883,20.1093,35.8483,25.1913,13.9165,4.8224,26.8073,6.1234,40.6451,1.0642"/>
  <path class="m" d="M26.5005,351.1893c.1198.1588.2613.3005.4205.4202l1.3141,1.1568c1.1432,1.0119,2.8253,2.4963,4.941,4.4809,6.0043,5.5722,11.5787,11.5904,16.6758,18.0031,3.2589,4.0474,6.5705,8.6203,10.1579,13.6009,3.5874,4.9799,7.2669,10.3549,10.9858,16.1368,3.9216,6.0214,7.5143,12.2501,10.7624,18.6602,1.6822,3.3374,3.1931,6.8203,4.7178,10.3813l4.6384,10.8281c5.9653,13.7143,11.1557,27.7537,15.5458,42.0508,3.5453,11.6855,5.9823,23.6791,7.2796,35.8221.8518,8.19.9885,16.4386.4076,24.652-.2237,2.9177-.4467,5.1645-.6571,6.6892-.0788.7359-.1443,1.3137-.1972,1.7345-.0132.201-.0132.4032,0,.6042.0523-.194.092-.3919.1185-.591.063-.579.1594-1.1542.2892-1.7219.2495-1.5241.5255-3.7715.8014-6.6886.7031-8.2309.6502-16.5092-.1575-24.7313-1.2166-12.1946-3.6064-24.2437-7.1353-35.9796-4.377-14.3563-9.5761-28.4493-15.5723-42.2083l-4.6384-10.828c-1.538-3.561-3.0488-7.083-4.7443-10.4342-3.2712-6.4234-6.8948-12.6621-10.8542-18.686-3.7451-5.7952-7.5035-11.1437-11.0515-16.1242-3.548-4.9799-6.9778-9.5402-10.263-13.5744-5.1559-6.395-10.8111-12.371-16.9124-17.8714-2.1551-1.9449-3.8634-3.4035-5.0461-4.3631l-1.3141-1.1039-.5125-.315Z"/>
  <path class="m" d="M82.2185,423.2147c.2092-.6049.3547-1.2305.4335-1.8662.2237-1.2084.4996-2.9562.8021-5.138.6174-4.336,1.3137-10.3681,1.9576-17.0832.6439-6.7144,1.4195-12.6546,2.1025-16.978.3289-2.168.6181-3.9422.8411-5.1248.1518-.6193.2312-1.2544.2369-1.892-.2388.5897-.4196,1.2015-.5387,1.8265-.3157,1.1958-.6968,2.9304-1.0912,5.0851-.8405,4.3234-1.6558,10.3423-2.352,17.0044-.6962,6.6628-1.3143,12.497-1.7213,17.0832-.2104,2.0502-.3944,3.7715-.5519,5.1645-.1052.6338-.1449,1.2765-.1184,1.9185Z"/>
  <path class="m" d="M26.0931,412.7281c.7355.1531,1.483.2407,2.234.2627,1.4455.1317,3.5349.3024,6.0974.6042,5.1381.5519,12.221,1.5644,19.9741,3.023,7.7531,1.4586,14.7178,3.1143,19.7113,4.4412,2.5099.6439,4.5205,1.2223,5.9268,1.6167.7094.2438,1.4397.424,2.1812.5387-.666-.3509-1.366-.6326-2.0892-.8411-1.3143-.4864-3.3643-1.1435-5.861-1.8662-4.9803-1.4718-11.945-3.2063-19.7113-4.6781-6.6355-1.2847-13.3332-2.2235-20.0662-2.8119-2.6281-.2237-4.6781-.3157-6.1236-.3415-.7573-.0681-1.5199-.051-2.2733.0523Z"/>
  <path class="m" d="M106.6733,485.5807c.16-.2073.2886-.4372.3805-.683l.9596-2.0237c.8279-1.7742,1.9582-4.3625,3.3115-7.5694,2.7067-6.4385,6.1631-15.44,9.8559-25.4143,3.6921-9.9737,7.0566-19.0149,9.619-25.4798l3.0746-7.6747c.3289-.8279.5916-1.5241.8153-2.0892.1178-.2357.1972-.4883.2363-.7491-.1607.2073-.2886.4379-.3812.6836l-.9589,2.0363c-.8279,1.761-1.9582,4.3499-3.3115,7.5694-2.7073,6.4259-6.1632,15.4274-9.8559,25.4143-3.6927,9.9875-7.0566,19.0017-9.619,25.4804l-3.0753,7.6608-.8147,2.0898c-.1178.2357-.1978.4883-.2363.7485Z"/>
  <path class="m" d="M32.086,461.5727c.2308.1329.4783.2344.7359.3024l2.1683.7227,7.9897,2.6279c6.7413,2.1944,16.0188,5.2565,26.2818,8.7911,10.2629,3.5352,19.5668,6.5708,26.3606,8.568,3.4035,1.0251,6.1499,1.8265,8.0684,2.3393l2.2077.5778c.2558.0813.5204.1298.7882.1449-.235-.1329-.487-.235-.7485-.3024l-2.1554-.7226-7.9897-2.6279c-6.7409-2.1944-16.0184-5.2565-26.2817-8.7917-10.2631-3.5346-19.5668-6.5701-26.2818-8.5542-3.4035-1.0251-6.15-1.8271-8.0685-2.3526l-2.1945-.5784c-.2854-.0882-.5817-.1367-.8804-.1443Z"/>
  <path class="m" d="M328.4262,491.192l-145.864-.6704c-4.1709-.0189-8.2971-.8588-12.1436-2.4729-3.8458-1.6136-7.3369-3.9687-10.273-6.9318-2.9354-2.9625-5.259-6.4744-6.8379-10.3353-1.5783-3.8609-2.381-7.9947-2.3621-12.1656l1.6029-365.6588c.0416-8.4256,3.4275-16.4909,9.4129-22.4218,5.9848-5.931,14.0803-9.2431,22.5066-9.2081l145.8634.6702c8.425.0382,16.4903,3.4209,22.4216,9.4041,5.9313,5.9834,9.2435,14.077,9.2088,22.502l-1.5506,365.6581c-.0158,4.1716-.8531,8.299-2.4648,12.1468-1.611,3.8477-3.9649,7.3401-6.9267,10.278-2.9619,2.9373-6.4738,5.2622-10.3347,6.8417-3.8609,1.5795-7.9953,2.3828-12.1669,2.3639h-.092Z"/>
  <path class="k" d="M330.0561,74.6258l-28.2659-.1311c-.9218.0151-1.8316.2117-2.6771.579-.8455.3667-1.6104.8966-2.2506,1.5594-.6408.6628-1.1448,1.4453-1.4831,2.3022-.3383.8575-.504,1.773-.4883,2.6947v5.1381c.0315,1.8624-.6773,3.6612-1.9708,5.0013-1.2935,1.3407-3.0658,2.1126-4.9282,2.1472l-55.113-.2627c-1.8612-.0517-3.6266-.838-4.9094-2.1875-1.2834-1.3496-1.9796-3.1521-1.9374-5.0139v-5.1381c.046-1.8599-.6471-3.6625-1.928-5.0127-1.2809-1.3496-3.045-2.1365-4.9049-2.1882h-9.9479l-24.7439-.1972c-2.9222-.012-5.8172.5513-8.5208,1.6583-2.7042,1.107-5.1633,2.7357-7.238,4.7928-2.0741,2.0571-3.723,4.503-4.8526,7.1977-1.1291,2.6947-1.7163,5.5854-1.7282,8.5069l-1.5115,356.9067c0,5.8903,2.3268,11.5432,6.4731,15.7267,4.147,4.1842,9.779,6.5607,15.6693,6.6124l145.5616.6704c5.8998.0208,11.5658-2.3009,15.755-6.4549,4.1886-4.1545,6.5569-9.8011,6.5846-15.7008l1.5115-356.9067c.0139-5.8935-2.3117-11.552-6.4655-15.7323-4.1533-4.181-9.7966-6.5431-15.6901-6.5676Z"/>
  <path class="l" d="M296.9936,251.1342h-93.747v90.3044h93.747v-90.3044Z"/>
  <path class="l" d="M229.0944,225.9694l-25.8616,25.1648h93.7476l17.9237-25.1648h-85.8096Z"/>
  <path class="n" d="M229.0944,225.9694l-25.8616,25.1648h93.7476l17.9237-25.1648h-85.8096Z"/>
  <path class="l" d="M296.9798,341.4254l17.9243-25.4937v-89.9623l-17.9243,25.1648v90.2911Z"/>
  <path class="j" d="M296.9798,341.4254l17.9243-25.4937v-89.9623l-17.9243,25.1648v90.2911Z"/>
  <path class="l" d="M272.4595,288.6253h-48.9366v5.5457h48.9366v-5.5457Z"/>
  <path class="c" d="M272.4595,288.6253h-48.9366v5.5457h48.9366v-5.5457Z"/>
  <path class="l" d="M263.6148,298.3237h-31.236v5.23h31.236v-5.23Z"/>
  <path class="c" d="M263.6148,298.3237h-31.236v5.23h31.236v-5.23Z"/>
  <path class="m" d="M222.3529,222.4084c-.1222-1.1398-.3106-2.272-.5652-3.3903-.8147-3.0318-2.6242-5.7019-5.1381-7.582-1.7068-1.2985-3.6971-2.1724-5.8084-2.5498-2.4181-.4303-4.9075-.213-7.2141.6313-1.2488.4385-2.4194,1.073-3.4691,1.8788-1.1127.8128-2.0886,1.7975-2.8913,2.9171-1.7339,2.3457-2.6695,5.1853-2.6695,8.1018s.9356,5.7561,2.6695,8.1012c1.6016,2.1907,3.8137,3.8591,6.3604,4.7966,2.1617.7894,4.4866,1.0263,6.763.6893,2.277-.3377,4.433-1.2387,6.2728-2.621,2.5063-1.8794,4.3108-4.5439,5.1248-7.5694.2545-1.1227.4429-2.2587.5652-3.4035.0907,1.165-.0113,2.3375-.3024,3.469-.734,3.1364-2.5309,5.9225-5.0851,7.8851-2.7458,2.1094-6.1625,3.1553-9.6184,2.9442-3.4564-.2111-6.7201-1.6652-9.1886-4.0941-2.4685-2.4282-3.9756-5.6673-4.2434-9.12-.2678-3.4527.722-6.8852,2.7867-9.665,1.6041-2.1812,3.7942-3.8628,6.3156-4.8489,2.5214-.986,5.271-1.2368,7.9292-.7233,2.6777.5154,5.15,1.7925,7.1196,3.6782,1.9695,1.8857,3.3531,4.3001,3.9844,6.9532.2974,1.1486.3995,2.3387.3024,3.5214Z"/>
  <path class="m" d="M202.0105,220.4634c0-1.9714,1.1039-3.2851,2.7332-3.2851s2.7331,1.3137,2.7331,3.2851-1.1297,3.2851-2.7331,3.2851c-.4007-.0221-.792-.1266-1.1505-.3062-.3579-.1802-.6754-.4329-.9318-.7409-.2564-.3081-.4467-.666-.5589-1.0509-.1121-.3856-.143-.7895-.092-1.187ZM206.6099,220.4634c0-1.577-.7491-2.5101-1.8662-2.5101s-1.8662.9463-1.8662,2.5101.7227,2.4969,1.8662,2.4969,1.8662-.9331,1.8662-2.4969ZM212.0629,217.2571h1.0251l-8.2656,12.1026h-1.0251l8.2656-12.1026ZM209.435,226.1666c0-1.9714,1.1303-3.2857,2.7332-3.2857s2.7332,1.3143,2.7332,3.2857-1.1039,3.2851-2.7332,3.2851-2.7464-1.3143-2.7464-3.2851h.0132ZM214.0344,226.1666c0-1.5638-.7227-2.5101-1.8662-2.5101-1.1429,0-1.8662.9331-1.8662,2.5101s.7491,2.4962,1.8662,2.4962,1.853-.9986,1.853-2.4962h.0132Z"/>
  <path class="m" d="M282.2624,371.9777c0,2.6279-1.9059,4.8621-6.1108,4.8621-1.9809.0378-3.9284-.5104-5.598-1.577l1.3143-2.6279c1.2198.8669,2.6821,1.3269,4.1785,1.3136,1.6955,0,2.7464-.7094,2.7464-1.9053s-.7491-1.9185-3.4161-1.9185h-3.7589l.7624-8.2524h8.9492v2.7199h-6.1241l-.223,2.7861h1.1958c4.3625.0391,6.0844,1.9972,6.0844,4.5994Z"/>
  <path class="m" d="M283.6416,369.2446c0-4.8495,2.6941-7.5959,6.2948-7.5959s6.2942,2.7464,6.2942,7.5959-2.6279,7.5953-6.2942,7.5953-6.2948-2.7464-6.2948-7.5953ZM292.8403,369.2446c0-3.338-1.1694-4.7178-2.8774-4.7178s-2.8516,1.3798-2.8516,4.7178,1.1826,4.7172,2.8516,4.7172,2.8516-1.3798,2.8516-4.7172h.0258Z"/>
  <path class="m" d="M304.9833,365.1178c.0844.7655-.1373,1.5323-.6181,2.134-.4801.6011-1.1801.9866-1.945,1.073-.1613.0126-.3239.0126-.4858,0-.5784.012-1.1492-.1286-1.6558-.4077l.5122-1.0118c.3377.211.7327.3125,1.1303.2892.4196.0252.8323-.1172,1.1473-.3951.3157-.2785.5078-.6704.5349-1.09.0126-.0826.0126-.167,0-.2495-.4089.3698-.9476.5639-1.4983.5387-.2476.0214-.4971-.0057-.734-.0806-.2375-.075-.4574-.1953-.6477-.3554-.1903-.16-.3472-.356-.4618-.5765-.1147-.2205-.1852-.4612-.2067-.7088v-.1449c.0069-.269.0668-.5343.1764-.7806.109-.2457.2659-.4681.4612-.6534.1953-.1859.4253-.3308.6767-.4278.2514-.0964.5192-.1424.7882-.1355h.1972c1.6558.0265,2.6286,1.0516,2.6286,2.9827ZM303.4453,364.0801c-.0069-.2432-.1077-.4738-.2823-.6427-.1739-.1695-.4076-.2646-.6508-.264h-.1575c-.1191-.0246-.2419-.0239-.3604,0-.1191.0246-.2325.0724-.3327.1411-.0995.0687-.1852.1569-.2507.2596-.0649.1027-.109.2167-.1292.3364-.0208.1197-.0164.2426.0113.361.0283.1178.08.2293.1518.327.0718.0983.1626.1808.2671.2426.1046.0624.2199.1027.3402.1191h.3024c.1191.0208.2413.0183.3591-.0082.1178-.0265.2293-.0762.3283-.1456.0989-.0693.1833-.1581.2476-.2602.0649-.1021.109-.2161.1298-.3352.0063-.0479.0063-.0964,0-.1443l.0258.0132Z"/>
  <path class="m" d="M310.4634,365.1184c.0844.7649-.1373,1.5322-.6181,2.1333-.4807.6011-1.1801.9873-1.945,1.073-.1613.0132-.3239.0132-.4858,0-.5784.0126-1.1492-.1279-1.6558-.407l.5387-.9596c.332.213.7233.3138,1.1171.2892.206.0158.4139-.0088.6105-.0737.1972-.0649.3787-.1682.5355-.3043.1562-.1355.2841-.3005.3761-.4864.092-.1859.1462-.3875.1594-.5941.0132-.092.0132-.1846,0-.276-.1972.1865-.431.3308-.6861.4234-.2558.0926-.5274.1317-.7983.1153-.2495.0214-.5009-.0063-.7397-.0819-.2388-.0749-.4599-.1972-.6515-.3579-.1915-.1613-.3497-.3585-.465-.5809-.1153-.2218-.1859-.4643-.2073-.7138v-.1317c.0069-.269.0668-.5343.1758-.7806.1096-.2457.2665-.4681.4618-.6534.1953-.1859.4247-.3308.6767-.4278.2514-.0964.5192-.1424.7882-.1354h.1707c1.6299-.0265,2.6418.9986,2.6418,2.9304ZM308.9123,364.0801c-.0063-.2426-.1077-.4732-.2823-.6427-.1739-.1695-.4076-.264-.6502-.264h-.1052c-.2369,0-.4643.0945-.6319.2621s-.2621.3944-.2621.6313c0,.2375.0945.4643.2621.6319s.3951.2621.6319.2621c.1191.0183.2407.0132.3579-.0164.1172-.029.2274-.0813.3238-.1531.097-.0724.1783-.1632.2394-.2671.0611-.1039.1008-.2192.1166-.3389.0063-.0391.0063-.0788,0-.1184v.0132Z"/>
  <path class="m" d="M310.4099,370.3875h-10.4866v1.3275h10.4866v-1.3275Z"/>
  <path class="m" d="M250.7763,366.209h-54.1402v1.6816h54.1402v-1.6816Z"/>
  <path class="m" d="M229.5014,371.5701h-32.8653v1.6822h32.8653v-1.6822Z"/>
  <path class="d" d="M313.1172,440.9153l-108.2413-.4996c-1.1171,0-2.0237-1.2349-2.0105-2.7331l.1178-28.3189c0-1.4976.9199-2.7067,2.037-2.7067l108.2419.5122c1.1164,0,2.0237,1.2223,2.0237,2.7206l-.1184,28.3182c-.0132,1.4983-.9199,2.7073-2.0502,2.7073Z"/>
  <path class="k" d="M254.5875,425.0538c0,1.446-1.0251,2.2606-3.0488,2.2474h-3.7318v-8.4761h3.5081c1.8007,0,2.8384.8147,2.8384,2.1945.0151.4184-.1046.8304-.3409,1.1757-.2369.3453-.5778.6061-.9728.7435.5047.0655.9665.3201,1.291.7132.3245.3926.4877.8934.4568,1.4019ZM253.7332,424.975c0-1.1039-.7624-1.5896-2.1945-1.5896h-2.8648v3.1799h2.8648c1.4189.0132,2.1945-.4732,2.1945-1.5902ZM248.6871,419.5219v3.0746h2.6279c1.3143,0,2.0502-.5122,2.0634-1.5241.0132-1.0118-.7491-1.5373-2.0502-1.5506h-2.6412Z"/>
  <path class="k" d="M256.4934,423.7004v-4.8495h.8537v4.823c0,2.0105.894,2.9304,2.4711,2.9436,1.5764.0132,2.4963-.9067,2.4963-2.9171v-4.823h.8279v4.8621c0,2.4314-1.3136,3.6795-3.3374,3.6795s-3.3248-1.3269-3.3115-3.7185Z"/>
  <path class="k" d="M268.3988,424.4495v2.9562h-.8411v-2.9304l-3.2195-5.5583h.9066l2.7728,4.7701,2.7987-4.7436h.8544l-3.2719,5.506Z"/>
  <path class="l" d="M223.5884,153.8785h-40.9205v20.8937h40.9205v-20.8937Z"/>
  <path class="l" d="M191.4987,146.5592l-8.8308,7.3193h40.9205l6.0321-7.3193h-38.1218Z"/>
  <path class="c" d="M191.4987,146.5592l-8.8308,7.3193h40.9205l6.0321-7.3193h-38.1218Z"/>
  <path class="l" d="M223.5878,174.7722l6.0315-7.9632v-20.2498l-6.0315,7.3193v20.8937Z"/>
  <path class="n" d="M223.5878,174.7722l6.0315-7.9632v-20.2498l-6.0315,7.3193v20.8937Z"/>
  <path class="l" d="M216.6239,160.6723h-27.898v2.1548h27.898v-2.1548Z"/>
  <path class="n" d="M216.6239,160.6723h-27.898v2.1548h27.898v-2.1548Z"/>
  <path class="l" d="M211.5646,164.5623h-17.3194v2.1548h17.3194v-2.1548Z"/>
  <path class="n" d="M211.5646,164.5623h-17.3194v2.1548h17.3194v-2.1548Z"/>
  <path class="m" d="M212.8921,186.0343h-18.6469v2.8516h18.6469v-2.8516Z"/>
  <path class="l" d="M182.668,153.8785c.6565-.097,1.3206-.1405,1.984-.1317l5.4008-.1185c4.5603,0,10.8677-.092,17.8191-.092l15.7695.0788-.2104.092,4.4941-5.2559c.5305-.6729,1.1152-1.3017,1.7477-1.8794-.4423.7346-.9476,1.4296-1.5115,2.076l-4.3625,5.4272-.0788.092h-.1317l-15.7689.0794c-6.9513,0-13.2594,0-17.8191-.1052l-5.4008-.1052c-.6477.0132-1.2947-.0397-1.9317-.1575Z"/>
  <g class="b">
    <path class="e" d="M182.668,153.8785c.6565-.097,1.3206-.1405,1.984-.1317l5.4008-.1185c4.5603,0,10.8677-.092,17.8191-.092l15.7695.0788-.2104.092,4.4941-5.2559c.5305-.6729,1.1152-1.3017,1.7477-1.8794-.4423.7346-.9476,1.4296-1.5115,2.076l-4.3625,5.4272-.0788.092h-.1317l-15.7689.0794c-6.9513,0-13.2594,0-17.8191-.1052l-5.4008-.1052c-.6477.0132-1.2947-.0397-1.9317-.1575Z"/>
  </g>
  <path class="l" d="M223.5884,174.7722c-.344-3.4709-.4581-6.9608-.3415-10.4468-.1228-3.5081-.0088-7.02.3415-10.513.3547,3.4924.4732,7.0049.3547,10.513.1184,3.4861,0,6.9765-.3547,10.4468Z"/>
  <g class="b">
    <path class="e" d="M223.5884,174.7722c-.344-3.4709-.4581-6.9608-.3415-10.4468-.1228-3.5081-.0088-7.02.3415-10.513.3547,3.4924.4732,7.0049.3547,10.513.1184,3.4861,0,6.9765-.3547,10.4468Z"/>
  </g>
  <path class="m" d="M271.2637,186.0343h-18.647v2.8516h18.647v-2.8516Z"/>
  <path class="l" d="M246.6955,142.2913l-.2709,32.3518,29.3427.2457.2709-32.3518-29.3427-.2457Z"/>
  <path class="l" d="M255.2446,135.7709l-8.66,6.6489h29.3439l6.0315-6.6489h-26.7154Z"/>
  <path class="l" d="M275.9285,174.7728l6.0321-7.9632v-31.0388l-6.0321,6.6489v32.353Z"/>
  <path class="l" d="M267.7814,155.4946h-14.8358v2.1554h14.8358v-2.1554Z"/>
  <path class="c" d="M267.7814,155.4946h-14.8358v2.1554h14.8358v-2.1554Z"/>
  <path class="l" d="M265.1005,159.3977h-9.2113v2.1548h9.2113v-2.1548Z"/>
  <path class="c" d="M265.1005,159.3977h-9.2113v2.1548h9.2113v-2.1548Z"/>
  <path class="l" d="M246.5846,142.4198c.4977-.0964,1.0043-.1405,1.5115-.1317l4.0997-.1178c3.469-.0662,8.2524-.1052,13.548-.1052h10.1848l-.2237.092c1.8398-1.9847,3.3771-3.614,4.4677-4.7443.5368-.6282,1.1354-1.2002,1.7875-1.7081-.448.6931-.9583,1.3439-1.5247,1.945-1.0244,1.1958-2.4963,2.8781-4.2837,4.9012l-.092.1052h-10.3158c-5.2559,0-10.0789,0-13.548-.1052l-4.0997-.1046c-.5034.0504-1.0106.0416-1.5115-.0265Z"/>
  <g class="q">
    <path class="e" d="M246.5846,142.4198c.4977-.0964,1.0043-.1405,1.5115-.1317l4.0997-.1178c3.469-.0662,8.2524-.1052,13.548-.1052h10.1848l-.2237.092c1.8398-1.9847,3.3771-3.614,4.4677-4.7443.5368-.6282,1.1354-1.2002,1.7875-1.7081-.448.6931-.9583,1.3439-1.5247,1.945-1.0244,1.1958-2.4963,2.8781-4.2837,4.9012l-.092.1052h-10.3158c-5.2559,0-10.0789,0-13.548-.1052l-4.0997-.1046c-.5034.0504-1.0106.0416-1.5115-.0265Z"/>
  </g>
  <path class="l" d="M275.9279,174.7722c-.1972,0-.3547-7.2405-.3547-16.1765s.1575-16.1765.3547-16.1765.3547,7.2405.3547,16.1765-.2104,16.1765-.3547,16.1765Z"/>
  <g class="q">
    <path class="e" d="M275.9279,174.7722c-.1972,0-.3547-7.2405-.3547-16.1765s.1575-16.1765.3547-16.1765.3547,7.2405.3547,16.1765-.2104,16.1765-.3547,16.1765Z"/>
  </g>
  <path class="m" d="M323.222,186.0343h-18.647v2.8516h18.647v-2.8516Z"/>
  <path class="l" d="M300.5805,154.4172c1.5235-.2142,3.0621-.298,4.5994-.2495,2.8516,0,6.7806-.1052,11.1304-.1052,3.8502,0,7.3855,0,10.0657.0788l-.1966.092c1.1958-1.3137,2.168-2.2865,2.8642-2.9827.3283-.3919.7088-.7365,1.1303-1.0251-.2482.4448-.5532.8556-.9066,1.2223-.6175.7617-1.5373,1.8397-2.6279,3.1402l-.0794.092h-.1311c-2.6286,0-6.2161.0794-10.0663.0794-4.3492,0-8.2782,0-11.1298-.1052-1.5543.0397-3.1099-.0397-4.6523-.2369Z"/>
  <path class="l" d="M326.3892,154.4172h-25.8087v20.3682h25.8087v-20.3682Z"/>
  <path class="c" d="M326.3892,154.4172h-25.8087v20.3682h25.8087v-20.3682Z"/>
  <path class="l" d="M306.0342,150.2255l-5.4537,4.1785h25.8087l3.7847-4.1785h-24.1397Z"/>
  <path class="l" d="M326.3892,174.7728l3.7847-5.007v-19.5404l-3.7847,4.1785v20.3689Z"/>
  <path class="n" d="M326.3892,174.7728l3.7847-5.007v-19.5404l-3.7847,4.1785v20.3689Z"/>
  <path class="l" d="M319.7,162.1832h-11.8134v1.577h11.8134v-1.577Z"/>
  <path class="l" d="M317.5584,165.048h-7.3325v1.577h7.3325v-1.577Z"/>
  <path class="l" d="M326.3892,174.7728c-.3635-3.3821-.4914-6.785-.3812-10.1847-.1184-3.3941,0-6.7926.3547-10.1709.3371,3.3796.4511,6.7768.3415,10.1709.1184,3.3985.0132,6.8001-.315,10.1847Z"/>
  <path class="l" d="M363.2225,56.2816l-2.6809,4.8884-4.8885,2.6676,4.8885,2.6807,2.6809,4.8753,2.6676-4.8753,4.8885-2.6807-4.8885-2.6676-2.6676-4.8884Z"/>
  <path class="l" d="M134.6103,182.0272l-2.6802,4.8879-4.8886,2.6676,4.8886,2.6676,2.6802,4.8886,2.6676-4.8886,4.8886-2.6676-4.8886-2.6676-2.6676-4.8879Z"/>
  <path class="l" d="M382.6968,77.0181l-1.6425,2.9959-2.9959,1.6425,2.9959,1.6425,1.6425,3.0091,1.6558-3.0091,2.9965-1.6425-2.9965-1.6425-1.6558-2.9959Z"/>
  <path class="l" d="M119.9453,153.9314l-1.6425,2.9959-2.9959,1.6425,2.9959,1.6425,1.6425,3.0098,1.6425-3.0098,2.9965-1.6425-2.9965-1.6425-1.6425-2.9959Z"/>
  <path class="l" d="M491.1762,495.7397l-9.6719-7.6091,14.127-18.1996,14.2574,10.9723-.8014,1.1826c-3.614,5.2565-18.7654,26.3871-22.3397,28.9098-4.0997,2.9568,4.4287-15.256,4.4287-15.256Z"/>
  <path class="m" d="M485.4736,510.8249c-.1707-.1311,5.0196-7.0168,11.5904-15.3745,6.5701-8.3576,12.0371-15.0204,12.2078-14.8887.1708.131-5.0202,7.0168-11.5904,15.3745-6.5701,8.3576-12.0371,15.0204-12.2078,14.8887Z"/>
  <path class="m" d="M492.8981,497.6582c0,.2098-.6697.2892-1.4057.2892s-1.3798-.1053-1.4063-.3157.591-.4864,1.4063-.4732c.8147.0132,1.4057.2892,1.4057.4996Z"/>
  <path class="m" d="M492.6228,499.3133c-.0661.2104-.7623.1972-1.577.0788-.8146-.1178-1.4983-.276-1.4983-.4858,0-.2104.7226-.4076,1.6035-.2892.8802.1178,1.5373.4858,1.4718.6962Z"/>
  <path class="m" d="M504.9081,485.9619c-.1046,0-.3283-.3812-.591-1.0906-.3535-.9495-.5274-1.9569-.5129-2.97.0139-1.0591.3944-2.081,1.078-2.8907.5387-.6049,1.0377-.7491,1.0906-.6571.0523.092-.2892.3944-.6439.9854-.4643.7995-.7176,1.7043-.7359,2.6286.0019.9388.0901,1.8757.2627,2.7987.1184.6968.1575,1.1694.0523,1.1958Z"/>
  <path class="m" d="M491.0319,496.2777c-.0788-.1972.315-.5519.8279-.8802.5122-.3289,1.0119-.5387,1.1562-.3812.1449.1575-.1443.6704-.7227,1.0509-.5784.3812-1.1826.4209-1.2613.2104Z"/>
  <path class="m" d="M490.2689,495.2659c-.1575-.1575.0926-.7491.5519-1.3143.4599-.5645.9993-.9589,1.1832-.8279.184.1317-.0794.71-.5651,1.3143-.4864.6042-.9596.9721-1.17.8279Z"/>
  <path class="m" d="M427.1008,339.3626s-28.9098,76.6638-24.9676,90.9874c3.9422,14.3242,81.7105,71.1975,81.7105,71.1975l21.1174-30.4081s-60.6851-48.0299-60.8817-50.6711c-.1972-2.6412,24.1001-66.348,24.1001-66.348l-41.0786-14.7576Z"/>
  <path class="o" d="M482.5029,478.1701l-.276-.1443c-.1972-.1449-.4467-.3024-.7623-.4996l-2.8907-1.984c-2.4837-1.7477-6.0844-4.2976-10.513-7.5297-8.7514-6.4656-20.6442-15.6908-33.2597-26.4923-3.1534-2.7067-6.2154-5.3743-9.1981-7.9632l-4.2976-3.8502c-1.4668-1.1788-2.7206-2.6015-3.7053-4.2056-.8109-1.652-1.0024-3.5402-.5387-5.322.3283-1.6948.7617-3.2851,1.1693-4.8489.8279-3.0879,1.6558-5.9527,2.4049-8.5674l3.6001-12.366c.3944-1.4189.7101-2.5492.9463-3.3771l.2369-.8802c-.041-.0126-.0756-.0397-.0976-.0762-.0221-.0359-.029-.0794-.0208-.121.0101-.0422.0372-.0781.0737-.1002.0372-.022.0813-.029.1235-.0183.0416.0107.0775.0372.0996.0743.0227.0366.029.0806.0183.1229-.0063.029-.0208.0548-.0422.0763-.0208.0208-.0472.0353-.0756.0422-.0353.3024-.0964.6017-.184.8934-.1707.7749-.4341,1.9317-.8146,3.4035-.7491,2.9568-1.9191,7.2008-3.3777,12.4441-.7226,2.6286-1.5241,5.4802-2.3255,8.5813-.3944,1.5373-.8147,3.1534-1.1303,4.7966-.419,1.647-.2369,3.3891.5122,4.9144.9577,1.5279,2.1661,2.8825,3.5743,4.0078l4.3108,3.8244c2.9304,2.6279,5.9918,5.2565,9.1981,7.95,12.6023,10.789,24.4289,20.0665,33.1022,26.6234l10.3284,7.7137,2.8125,2.0898.7226.5519c.1575.1575.2892.2363.276.2363Z"/>
  <path class="o" d="M475.4596,487.4343c-.1575-.1184,3.8502-5.6509,8.9492-12.3528,5.0983-6.7018,9.3695-12.0503,9.527-11.9319s-3.8635,5.6503-8.9625,12.3654c-5.0983,6.715-9.3562,12.0371-9.5137,11.9193Z"/>
  <path class="m" d="M478.0623,193.5779c2.6279,5.1506,3.9422,9.619,9.0406,12.2734,2.2997,1.2091,5.1122,1.8921,6.5708,4.0739,1.5109,2.391.8014,5.8475,2.7067,7.8844,2.7861,3.0356,8.4628.5778,11.5772,3.2454,2.7861,2.3917,1.8927,7.5165,4.9018,9.6196,1.6822,1.1958,3.9422.9325,5.9136,1.6684,3.1534,1.2223,4.6517,4.8621,5.0593,8.2133.4341,2.6897.092,5.448-.986,7.95-.5507,1.2418-1.4057,2.3243-2.4849,3.149-1.0793.8241-2.3488,1.3641-3.6915,1.5688-3.5869.3812-7.6343-2.0892-10.5124,0-.9356.867-1.749,1.8574-2.4181,2.9436-.7328.9318-1.6426,1.7106-2.6771,2.2909-1.0339.5809-2.1724.952-3.35,1.0919-1.1775.1405-2.3715.0472-3.5131-.2734-1.1417-.3213-2.2089-.8644-3.1408-1.5978-.8405-.6729-1.5531-1.492-2.1025-2.4181-1.9972-3.338-1.8656-7.8844-4.7966-10.513-1.6621-1.1681-3.5232-2.0231-5.4928-2.5227-1.9053-.7094-3.8761-1.8927-4.4412-3.837-.6571-1.7207-1.589-3.3229-2.7596-4.7443-1.4586-2.1812-3.4036.4864-5.3485-.591-1.945-1.078-1.1958-3.1805-1.3143-5.3882"/>
  <path class="p" d="M444.0668,268.0599l-24.9676-8.3444s-11.0252,31.7482-14.4552,32.0639c-18.7125,1.7081-38.7392-4.5074-45.7567-6.9513-.7227-.8021-1.5373-1.761-2.444-2.9436-.7724-1.0138-1.3679-2.1516-1.761-3.3645-.5418-1.4888-.8777-3.045-.9986-4.6252.0365-.3869-.0806-.7718-.327-1.0723-.2457-.3005-.6011-.4908-.9873-.5311-.2199-.017-.4404.0139-.647.0914-.2067.0769-.3938.1985-.5488.3553-.8014,1.0516-1.0118,5.0593.8279,9.3827,1.8397,4.3234-4.6913.8808-7.0956-.3283-2.4049-1.2091-10.0134-4.5994-10.9729-4.1527-1.4063.6571-.9589,2.2732,1.4718,3.43,2.4314,1.1561,9.4747,5.1116,8.7653,6.3471-.7101,1.2349-12.8392-5.099-12.8392-5.099,0,0-2.3917-1.761-3.2454-.3547-1.5379,2.5359,11.8267,8.2921,13.141,8.8043.9066.368.1972,1.7345-.7491,1.3143-.9463-.4209-11.8267-6.5708-13.4566-3.9422-1.2349,1.9708,10.9862,4.8489,12.5632,7.3848,1.5764,2.5366-9.0412-3.1143-10.1318-1.1826-.4076.7094-.6174,1.3143,5.9527,3.6795,4.8155,1.4995,9.7059,2.7451,14.6524,3.7318v.0661s65.6253,29.3565,79.7914,1.0642c14.9807-30.1189,14.2183-34.8235,14.2183-34.8235Z"/>
  <path class="l" d="M468.7319,241.7654l10.8936.1972,8.6468,24.7969-7.0433,28.4102c-2.0634,8.2921,7.2928,24.9021,7.0433,34.0618l-61.0789,9.8949-1.3137-40.8026v-1.3143l-21.1438-10.5124,6.9778-17.0832c10.7361-25.1516,29.4882-26.6763,29.4882-26.6763l27.53-.9722Z"/>
  <g class="b">
    <path class="k" d="M468.7319,241.7654l10.8936.1972,8.6468,24.7969-7.0433,28.4102c-2.0634,8.2921,7.2928,24.9021,7.0433,34.0618l-61.0789,9.8949-1.3137-40.8026v-1.3143l-21.1438-10.5124,6.9778-17.0832c10.7361-25.1516,29.4882-26.6763,29.4882-26.6763l27.53-.9722Z"/>
  </g>
  <path class="o" d="M480.0722,242.0281c-.1279.0189-.2501.068-.3547.1443-.3497.1191-.7044.2199-1.0642.3024-1.3974.252-2.8125.3925-4.2314.4209l.1311-.2501,4.1659,6.768.2892.4467-.5387-.092c-2.4124-.4202-4.8722-.4996-7.3067-.2369l.2495-.315c.0914,2.7766.4883,5.5356,1.1832,8.2259l.184.5519-.5784-.1311c-2.7747-.5929-5.4512-1.5751-7.9506-2.9177l.5129-.223c-.4996,2.444-1.0119,5.0064-1.5373,7.6217l-.1185.5652-.4467-.3553c-1.1019-.8783-2.151-1.8221-3.1408-2.8251-.9772-.9772-1.8946-2.013-2.7464-3.1011l.499.0655-6.9904,5.506-.4341.3421-.1184-.5393c-.499-2.4307-.9722-4.7959-1.4321-7.0565l.4209.2369-7.4775,2.6279-.5128.184.1449-.5255c.7882-2.9833,1.5109-5.69,2.168-8.0949l.184.2892-6.4914-1.1171h-.2627l.1443-.2237,2.8384-4.152.7624-1.0648c.1707-.2363.276-.3547.2892-.3415s-.1317.2627-.2104.3944l-.683,1.1038-2.6941,4.244-.1184-.2627,6.5047.986h.2633v.2627l-2.0767,8.1207-.3679-.3547,7.4377-2.6279.3547-.1317.0794.368,1.4711,7.0565-.5513-.1972,6.9778-5.5318.276-.2237.223.276c.8166,1.0371,1.6942,2.0243,2.6279,2.9568.9715.9822,1.9979,1.9078,3.0753,2.7728l-.5519.2098c.5255-2.6279,1.0516-5.1771,1.5506-7.6217l.092-.4725.4209.2495c2.437,1.313,5.0473,2.277,7.7528,2.8648l-.3812.407c-.6912-2.7338-1.0704-5.5381-1.1297-8.3576v-.2892h.2886c2.4912-.252,5.0051-.1418,7.4642.3289l-.2495.368c-1.5902-2.6286-2.9436-4.9938-4.0474-6.8468l-.1317-.2363h.2633c1.4101.0107,2.8195-.0769,4.2182-.2627.4675-.121.9413-.2174,1.4189-.2892Z"/>
  <path class="o" d="M492.1364,252.4485c-.4265-.1815-.8657-.3308-1.3143-.4467-1.2614-.3503-2.5908-.373-3.8635-.0661l.1052-.1443c.2495,1.4453.6439,3.1799,1.1826,5.1645.5387,1.984,1.1958,4.2314,1.7874,6.7674l.092.368-.3812-.1052c-3.1143-.9067-6.7806-1.5896-10.6314-2.8907l.3553-.2892c.407,3.745.3806,7.8844.6042,12.3521v.3812h-.3944c-3.51-.6093-6.9614-1.5191-10.3152-2.7199-.4209-.1184-.9073-.2892-1.0251-.1052-.2633.3169-.4599.683-.5784,1.0774l-1.0906,2.6286c-.7226,1.7736-1.4718,3.5743-2.2209,5.3876l-.223.5519-.368-.4599-6.991-8.6733-.5261-.6439h.4732l-11.2225,7.7269-.3679.2501-.1575-.4209c-1.3136-3.653-2.4969-7.175-3.6795-10.5918l.4996.1714c-3.9265,2.5511-8.122,4.6617-12.5103,6.2942l-.4599.184v-.5387c.8014-5.69,1.5241-10.8022,2.1422-15.217l.3283.2495c-3.1937,1.262-6.6244,1.8139-10.0525,1.6161h-.2237l.0788-.2098,2.3526-6.3339c.276-.6704.4725-1.2091.6307-1.6167.0643-.1878.1481-.3686.2495-.5387-.0384.1922-.0914.3806-.1575.5652-.1449.4202-.3289.9589-.5519,1.6558-.5261,1.4976-1.3143,3.6398-2.2209,6.3862l-.1449-.223c3.3708.1355,6.7308-.4517,9.8559-1.7219l.3812-.1575v.4076c-.5916,4.428-1.3143,9.527-2.0237,15.2302l-.4077-.3156c4.3335-1.6438,8.4754-3.7545,12.3528-6.2942l.3547-.2237.1443.3944,3.706,10.513-.5255-.1581,11.2357-7.7395.276-.184.1966.2495.5261.6439,6.9778,8.6859-.5916.0788,2.2342-5.3876,1.0906-2.6279c.1575-.4965.4322-.947.8014-1.3143.1336-.1178.2974-.1953.4732-.2237h.4467c.2445.0523.4858.1178.7226.1972,3.3223,1.1914,6.7378,2.1056,10.2106,2.7332l-.3679.3289c-.1972-4.4418-.1575-8.6071-.5255-12.3263v-.4335l.407.1443c3.8111,1.3143,7.451,2.037,10.5917,2.9833l-.2892.2627c-.5519-2.5101-1.1958-4.7569-1.6948-6.7674-.4996-2.0111-.8676-3.7456-1.0906-5.2565v-.1184h.1178c1.3067-.2942,2.6689-.2306,3.9422.184.4473.1695.8714.3944,1.262.6704Z"/>
  <path class="o" d="M426.2212,296.6541c-.4807-.1411-.9274-.378-1.3143-.6962-1.1196-.7775-2.0785-1.7635-2.8251-2.9039-1.1089-1.7333-1.6123-3.7853-1.4321-5.8349.0857-2.2335.7479-4.4072,1.9223-6.3087,1.1744-1.9021,2.8207-3.4678,4.7796-4.5458l-.184.2634c.499-3.7456.9589-6.9652,1.3137-9.1987.131-1.2204.3547-2.4282.6704-3.614.0113,1.2318-.0769,2.4622-.2627,3.6795-.2237,2.2864-.6049,5.5192-1.0648,9.2775v.1575l-.1707.092c-1.8315,1.0503-3.3714,2.5416-4.4796,4.3385-1.1089,1.7975-1.7503,3.8427-1.8675,5.9508-.1985,1.9261.2249,3.8653,1.209,5.5325.6994,1.1297,1.5884,2.1302,2.6286,2.9568.3736.2659.7334.5507,1.0774.8537Z"/>
  <path class="o" d="M428.507,269.1247c-.1707.092-.7756-.7888-1.3143-1.9449-.5387-1.1562-.8934-2.168-.7094-2.26s.7756.7882,1.3143,1.9576c.5387,1.17.9066,2.1686.7094,2.2474Z"/>
  <path class="p" d="M467.996,242.1201l1.8788-42.9316-17.0832-12.9173-15.4929,7.5688s-.5255,19.4622,0,27.9118c.5255,8.4496,9.028,9.3298,9.028,9.3298,0,0-.1972,4.9541-.3944,10.1444-.1141,2.9083.928,5.7435,2.8976,7.8857,1.9701,2.1422,4.7077,3.4174,7.6154,3.5472h.5519c2.8371-.0038,5.5633-1.1013,7.6116-3.0646,2.0489-1.9626,3.2618-4.6403,3.3872-7.4743Z"/>
  <path class="m" d="M439.0207,208.0325c-.0025.2161.0586.4272.1764.608.1178.1808.286.3226.4845.4076s.4177.109.6294.0699c.2123-.0397.4076-.1411.562-.2917.1544-.1506.2608-.344.3056-.5551.0441-.2111.0252-.4303-.0548-.6307-.08-.2004-.218-.3724-.3957-.4946-.1777-.1216-.3881-.1884-.6036-.1909-.286,0-.5601.1134-.7624.3157-.2016.2022-.315.4763-.315.7617h-.0265Z"/>
  <path class="m" d="M437.9685,206.8499c.1317.1443.9331-.5387,2.0892-.6049,1.1568-.0655,2.037.4996,2.1686.3421.1311-.1581-.092-.3156-.4732-.5784-.5148-.3339-1.1221-.4952-1.7346-.4599-.6118.0359-1.1971.2659-1.669.6571-.3421.315-.4599.591-.3812.6439Z"/>
  <path class="m" d="M451.5303,208.0325c0,.213.0636.4215.1815.5986.1184.1777.2873.3156.4839.3969.1972.0819.4133.1033.6225.0617.2092-.0416.4014-.1443.5519-.2949.1506-.1512.2533-.3427.2948-.5519.0416-.2092.0202-.4259-.0611-.6225-.0819-.1972-.2199-.3654-.3969-.4839-.1777-.1184-.3856-.1815-.5986-.1815-.286,0-.5601.1134-.7623.3157-.2022.2022-.3157.4763-.3157.7617Z"/>
  <path class="m" d="M450.8473,206.8499c.1317.1443.9331-.5387,2.1025-.6049,1.17-.0655,2.0237.4996,2.1554.3421.1311-.1581-.092-.3156-.4732-.5784-.5141-.3339-1.1221-.4952-1.7339-.4599-.6124.0359-1.1971.2659-1.6696.6571-.109.0706-.1997.1651-.2659.2772-.0661.1115-.1058.2369-.1153.3667Z"/>
  <path class="k" d="M450.5058,217.77c-1.7742.9085-3.6675,1.5631-5.6245,1.9449.4297.5841,1.0408,1.0081,1.7383,1.2059.6975.1972,1.4409.1569,2.1125-.1153.31-.0712.6023-.2029.8613-.3875.2596-.1846.4795-.4184.6477-.6886.1682-.2697.2823-.5696.3346-.8833.0516-.3138.0416-.6351-.0303-.9444l-.0397-.1317Z"/>
  <path class="i" d="M446.34,231.0816c4.0109-.1638,7.892-1.4731,11.1828-3.7715,0,0-2.536,6.2022-10.9988,5.8475l-.184-2.076Z"/>
  <path class="m" d="M494.4348,223.4467c-1.0642.0416-2.1201-.1991-3.0621-.6962-1.3911-.746-2.5473-1.8656-3.3374-3.2328-.9829-1.7087-1.8177-3.498-2.4969-5.3485-1.577-3.9422-2.7596-7.5555-3.5743-10.2099-.1184-.4209-.2363-.8021-.3415-1.17-.1052-.368-.1449-.8537-.2237-1.1562-4.6126-17.5954-20.04-20.8811-23.1411-20.8811s-9.0148-1.8-17.3856,6.8858c-1.2639,1.3036-2.335,2.7817-3.1799,4.3896-1.8492,2.3211-3.1276,5.0442-3.7318,7.95-.3673,1.3666-.4347,2.7968-.1972,4.1917.1575,0,.184-1.6029.8411-4.0474.3982-1.4365.9444-2.8277,1.6293-4.152-.734,3.2511-.4354,6.6502.8543,9.7242l2.9959-.8279,10.7493-3.653c-.9728-3.338.4599-7.4642,1.3143-9.3959l.0788-.0655c.6042,3.5087,2.3066,6.7346,4.8621,9.2145,2.5548,2.4792,5.8311,4.084,9.3562,4.583l1.9841,27.5962c14.2845-3.0488,13.9556-22.1689,13.8636-26.0582.6572,2.1945,1.4983,4.704,2.5498,7.3457.7019,1.8921,1.582,3.7135,2.6279,5.4399.889,1.4535,2.1812,2.6179,3.7192,3.3512,1.0358.487,2.1926.6559,3.3241.4864.419-.0416.8184-.1959,1.1568-.4473-.4058.0977-.8191.1594-1.2355.184Z"/>
  <path class="m" d="M446.655,216.6793c-.6187-.1581-1.2544-.2375-1.8927-.2369-.3018,0-.591-.0655-.6571-.276-.0365-.3251.0227-.654.1714-.9463l.7882-2.4043c.5651-1.7219,1.0383-3.2857,1.3143-4.4154.2218-.6017.3673-1.2286.4335-1.8662-.327.5507-.579,1.1429-.7491,1.761-.3944,1.1171-.9198,2.6279-1.485,4.3757-.2627.8411-.5122,1.6558-.7617,2.4181-.172.3793-.2092.8058-.1052,1.2091.0403.1046.1058.1972.1903.2709.0851.0731.1865.1247.2955.1493.1701.0265.3428.0265.5129,0,.6477.0655,1.3004.0523,1.9449-.0391Z"/>
  <path class="p" d="M470.7682,216.3246c-.131-1.4057.0258-2.8233.46-4.1659.2243-.6698.6244-1.267,1.1587-1.7295.5336-.4625,1.182-.7731,1.8769-.8991.8096-.0334,1.6035.23,2.2329.7403.6294.511,1.0503,1.2336,1.1838,2.0325.0983.8071-.0466,1.6249-.4164,2.3482-.3699.7239-.9482,1.32-1.6596,1.7125-.7208.3774-1.5178.5853-2.3305.608-.8128.0227-1.6205-.1405-2.3608-.4763"/>
  <path class="i" d="M473.187,215.0891c0-.092.4599.1184,1.0648-.0655.378-.1235.7082-.3623.9438-.6823.2356-.3207.3648-.7069.3698-1.1045.0315-.1991.0208-.4026-.0315-.5973-.0523-.1947-.1443-.3761-.2703-.533-.2608-.2048-.5897-.3037-.9198-.276-.6307.0655-1.078.223-1.1171.1184-.0397-.1052.2892-.3944,1.0383-.6048.2419-.063.4952-.0712.7409-.0233.2457.0473.477.15.6779.2993.223.2092.3919.4687.4927.7567.1008.2886.1298.5973.0857.8991-.0302.5809-.252,1.1354-.6307,1.577-.3131.3686-.7548.6036-1.2355.6571-.8544.092-1.2091-.368-1.2091-.4209Z"/>
  <path class="l" d="M460.2956,550.6945v-12.2999l23.0491-.1449.184,17.9898-1.4195.1052c-6.3603.3944-32.353,1.5506-36.6103.2892-4.7443-1.4063,14.7967-5.9395,14.7967-5.9395Z"/>
  <path class="m" d="M444.9601,555.5043c0-.2104,8.621-.3944,19.2518-.3944s19.2379.184,19.2379.3944c0,.2098-8.6071.3938-19.2379.3938s-19.2518-.1707-19.2518-.3938Z"/>
  <path class="m" d="M459.9011,553.204c-.1966.1052-.6439-.3415-1.1039-.9325-.4599-.5916-.7617-1.1303-.6174-1.3143.1449-.184.7491.1707,1.2488.8146.499.6439.6175,1.3275.4725,1.4321Z"/>
  <path class="m" d="M458.4287,554.0193c-.2098.0788-.6174-.4864-1.0377-1.1958-.4209-.7094-.7094-1.3143-.5387-1.485s.7617.3157,1.2085,1.0906c.4473.7756.5651,1.5115.3679,1.5902Z"/>
  <path class="m" d="M476.5118,555.4249c-.0788-.0655.1052-.499.499-1.1429.5248-.8682,1.2122-1.6268,2.0237-2.2341.8405-.6408,1.8744-.9747,2.9304-.9463.8146,0,1.2355.3553,1.1958.4473-.039.092-.499-.0006-1.1826.1046-.9016.1241-1.7566.477-2.4837,1.0251-.7416.5796-1.4233,1.2311-2.037,1.9449-.5122.5387-.8537.8676-.9457.8014Z"/>
  <path class="m" d="M459.8224,550.9308c.1178-.184.6307-.092,1.2085.1052.5784.1972,1.0516.4599,1.0118.6704-.039.2098-.6174.3018-1.3136.0788-.6968-.2237-1.0119-.71-.9067-.8543Z"/>
  <path class="m" d="M460.191,549.6952c0-.2098.6307-.3806,1.3798-.368.7491.0132,1.3136.1972,1.3136.4077s-.6042.3944-1.3798.3812c-.775-.0132-1.3401-.1972-1.3137-.4209Z"/>
  <path class="o" d="M439.7162,337.2601l-12.6148,2.1157,7.267,8.936c2.0892,42.0508,1.577,82.8528,3.5081,103.182.2892,3.0879,13.3249,99.8711,12.0245,97.6502l38.3845,1.6029-11.4593-97.2425,5.4272-86.3748c5.8866-10.2062,7.6091-22.2886,4.8098-33.7328l-.9463-3.8767"/>
  <path class="m" d="M466.1689,185.2726c-.957-.3686-1.8133-.9583-2.4981-1.7213-.6855-.7624-1.1801-1.6772-1.4441-2.6676-.2394-.998-.2035-2.0426.1046-3.0217.3075-.9791.8758-1.8561,1.6432-2.5372.7869-.6565,1.7541-1.0597,2.7747-1.1561,1.0207-.0958,2.0458.1191,2.9417.6174,1.3716.9482,2.3746,2.3406,2.8384,3.9422.4335,1.0333.5526,2.1718.3415,3.2718-.2634.7926-.7271,1.5027-1.347,2.0622-.6194.5595-1.3729.9495-2.1875,1.1316-1.6363.3257-3.316.3705-4.9673.1311"/>
  <path class="m" d="M500.0334,208.6897c.1449-.562.1714-1.1479.0794-1.7213-.1499-.6502-.4618-1.2513-.9073-1.7478-.6156-.6408-1.3987-1.0956-2.26-1.3143-1.0616-.2577-2.1592-.3333-3.246-.223-1.1958.0788-2.4704.2892-3.8629.315-1.4926.092-2.9789-.2602-4.2711-1.0119-1.2935-.9696-2.2014-2.3665-2.5624-3.9422-.8682-2.7766-2.2997-5.3447-4.2049-7.543-1.5632-1.7925-3.3991-3.3267-5.4405-4.5464-1.9311-1.0528-3.9655-1.9027-6.0712-2.5366h.46c.4467.0359.8877.1241,1.3143.2634,1.5915.4045,3.1244,1.0138,4.5597,1.8133,2.1308,1.1908,4.0493,2.7275,5.6768,4.5464,1.9954,2.2316,3.4955,4.8608,4.4022,7.7137.3068,1.429,1.107,2.7036,2.2606,3.6007,1.1927.6956,2.5637,1.0251,3.9422.9463,1.3137,0,2.6279-.1972,3.837-.2495,1.1492-.0882,2.3053.0227,3.4167.3283.9363.2627,1.7767.7926,2.4175,1.5241.4694.5652.7781,1.2462.894,1.9714.0662.441.0258.8915-.1184,1.3143-.184.3806-.3024.5122-.3156.499Z"/>
  <path class="f" d="M475.8149,216.2452c0-.0655.6307.4335.6307,1.5638-.007.3327-.0819.6603-.2199.9627-.138.3024-.3358.574-.5816.7983-.2961.2885-.6565.504-1.0516.6269-.395.1235-.8134.1518-1.2216.0825-.4064-.0706-.792-.2325-1.1265-.4738s-.6099-.5557-.8052-.9193c-.1562-.2917-.2533-.6111-.2848-.9407-.0315-.3295.0025-.6616.1008-.9778.0681-.2879.2016-.557.3913-.785.189-.2281.4284-.4089.6993-.5286-.3163.4102-.5242.894-.6042,1.4056-.0933.5103,0,1.0377.2627,1.485.1644.2621.3812.487.637.6609.2552.1739.5437.2936.8481.3509.3049.0447.6156.0239.9123-.0599.2968-.0838.5721-.2287.809-.4265.3963-.3346.6578-.8014.7359-1.3137.0788-.9066-.2892-1.4586-.1317-1.5115Z"/>
  <path class="l" d="M472.3591,186.9278c-2.8138-2.8037-6.4013-4.7027-10.3026-5.4531,2.0458-.0794,4.0758.3831,5.8846,1.3408,1.8095.9577,3.3336,2.3765,4.4179,4.1123Z"/>
  <path class="f" d="M477.2596,214.6292c0-.092.3812-.1184.6181.315.058.1304.0882.2716.0882.414,0,.143-.0302.2841-.0882.4139-.0863.1632-.2148.3005-.3724.3976-.1569.097-.3371.1506-.5217.1544-.2798.0183-.5563-.075-.768-.2596s-.3415-.4454-.3617-.7258c-.0132-.0693-.0132-.1405,0-.2104,0-.4467.315-.591.3812-.5387.0655.0529,0,.2627.1178.5261.0195.1436.0926.2747.2048.3673s.2545.1399.4001.1317c.0548.0038.1103-.0038.1626-.0214.0529-.0183.1008-.046.1424-.0825.0416-.0372.0756-.0813.0995-.131.0246-.0498.0391-.104.0422-.1594v-.1046c-.0132-.2501-.1707-.3812-.1449-.4864Z"/>
  <path class="o" d="M468.272,240.8058c.1342.4606.1834.9413.1449,1.4195-.0283,1.3092-.2866,2.604-.7623,3.8238-.6137,1.5764-1.5688,2.9965-2.7968,4.1596-1.228,1.1624-2.6985,2.0388-4.3057,2.5649-1.6073.5267-3.3109.6905-4.9894.4795-1.6778-.2104-3.2882-.7901-4.7153-1.698-1.6545-1.061-3.011-2.5265-3.9422-4.2572-.6212-1.1543-1.0351-2.4087-1.2223-3.706-.092-.4687-.092-.9507,0-1.4189.2772,1.7118.8417,3.3645,1.669,4.8879.9476,1.6003,2.2631,2.9518,3.837,3.9422,1.9519,1.1738,4.2138,1.7276,6.487,1.5896,2.2739-.1386,4.4513-.9627,6.2469-2.3646,1.4472-1.1757,2.5914-2.6802,3.3374-4.3889.6099-1.611.952-3.3115,1.0119-5.0335Z"/>
  <path class="m" d="M465.513,541.9557c-.0391-.1153-.0655-.2338-.0788-.3547,0-.276-.092-.6174-.1449-1.0515-.1311-.9722-.315-2.3255-.5387-4.0342-.4467-3.5081-1.0383-8.5807-1.7345-14.8755-1.4063-12.5626-3.1276-29.9349-4.6781-49.1596-1.5506-19.2253-2.6279-36.6764-3.2328-49.3052-.3283-6.3075-.5387-11.419-.6571-14.9543-.0523-1.7522-.092-3.1055-.1178-4.06v-1.0648c-.0132-.1178-.0132-.2369,0-.3547.0126.1178.0126.2369,0,.3547-.0082.3522.0183.7044.0788,1.0516.0655.9854.1443,2.3387.2627,4.06.2104,3.5875.499,8.6733.8669,14.9416.7624,12.6148,1.9191,30.0401,3.4565,49.2649,1.5373,19.2253,3.1931,36.6109,4.4545,49.1735.6439,6.2551,1.1568,11.3277,1.5247,14.9019.1707,1.7081.3018,3.0614.3938,4.0474.0107.3516.0416.7025.092,1.0509.0372.1191.0548.2432.053.368Z"/>
  <path class="m" d="M486.9586,542.0477c-.4801.1291-.9747.1997-1.4718.2104-.9463.0788-2.3262.1707-4.021.2495-3.4035.1707-8.1081.2501-13.2985.1707-5.1909-.0788-9.8956-.2363-13.2858-.3679l-4.021-.1966c-.4996.0132-.9993-.0397-1.485-.1581.4877-.1053.9873-.1449,1.485-.1178h4.0342c3.3903,0,8.0949.0788,13.2858.1575,5.1904.0788,9.8685.0788,13.272,0h4.021c.4952-.0416.9942-.0246,1.485.0523Z"/>
  <path class="o" d="M480.0722,242.0281c-1.8095.6647-3.7223,1.0074-5.6503,1.0119l.2495-.4732,2.5366,4.113,1.6029,2.6286.3812.6439-.7359-.1449c-2.4288-.3566-4.8778-.5626-7.3325-.6175.6742-.2218,1.3798-.3327,2.0892-.3283,1.7925-.114,3.5919-.017,5.3617.2886l-.3421.4996-1.6293-2.6279-2.4572-4.1527-.276-.4599h.5255c1.6822-.0788,3.1143-.184,4.1004-.276.5204-.0876,1.0491-.1228,1.5764-.1052Z"/>
  <path class="o" d="M492.1357,252.4485c0,.1184-1.9053-.3415-5.1777-.4202l.2237-.2501c.7749,3.0753,1.8,7.175,2.9959,11.9061l.1317.5519-.5387-.1449-8.3576-2.26-2.2739-.6307.4473-.3547c.184,4.5332.3547,8.7388.499,12.3521v.3944l-.3679-.1052-8.0294-2.2468-2.2203-.6571c-.2665-.0674-.5223-.1695-.7624-.3024.2766.0038.5507.0485.8147.1317l2.26.5122,8.0558,1.9972-.3547.3024c-.184-3.614-.3944-7.8189-.6181-12.3395v-.4858l.4732.1311,2.2732.6307,8.3318,2.3261-.4076.4076c-1.1039-4.7707-2.0502-8.8969-2.7728-11.998l-.0655-.2627h.2892c1.2853.063,2.5637.2256,3.8238.4864.4524.0643.8972.1745,1.3275.3283Z"/>
  <path class="o" d="M493.7915,285.7744c-.3705-.2709-.6905-.6049-.9463-.986-.5519-.6962-1.1562-1.853-2.0231-3.1931h.3547c-2.1277,4.1533-4.6164,8.1106-7.4377,11.8267l-.2634.3547-.276-.3547c-1.3136-1.6381-2.6279-3.3903-3.9422-5.2559l-3.0223-3.9428h.4996l-4.8621,4.2843-2.1813,1.8788-1.0118.8808-.4864.4202-.1184.1052h-.1443c0,.1184-.4341-.1575-.3421-.276v-.0788s.092.2237.1317.2104l-.223.0655-.0794-.2495c-.7749-2.6286-1.3136-4.7046-1.6425-6.2028-.2243-.7624-.3131-1.5587-.2627-2.352.1405.7706.3201,1.5342.5387,2.2865.4077,1.4585,1.0251,3.5478,1.8795,6.1102l-.3024-.184c.0945-.0258.1947-.0258.2892,0,.0655.0227.1229.0649.1632.1216.0397.0567.0611.1247.0599.194.0132.0605.0132.1235,0,.184h-.0655l-.184-.0788c-.0132-.0504-.0403-.0958-.0788-.1317l-.0788-.0788.1052-.1052.4858-.4335.9993-.8934c.683-.6181,1.3924-1.3143,2.1415-1.9185l4.7966-4.2711.276-.2495.2363.3018,3.023,3.9428c1.3924,1.8133,2.7332,3.5743,3.9422,5.2559h-.5393c2.8226-3.677,5.3662-7.56,7.6091-11.6162l.184-.3156.184.3024c.8405,1.4063,1.3137,2.6279,1.8523,3.2983.5393.6704.8021,1.1038.7624,1.1435Z"/>
  <path class="o" d="M470.5584,267.0877c-.0082.4467-.0832.8903-.2237,1.3143-.1972.8147-.499,1.9714-.9198,3.4035-.8279,2.8516-2.1157,6.7674-3.7715,10.9855-1.6558,4.2182-3.3903,7.9638-4.7304,10.6182-.6704,1.3136-1.2355,2.3917-1.6558,3.1143-.184.3925-.4177.7592-.6968,1.0906.5488-1.5077,1.1845-2.982,1.9059-4.4154,1.2216-2.7067,2.8648-6.4523,4.52-10.6573,1.6558-4.205,3.0097-8.0816,3.9428-10.8936.4448-1.5537.9885-3.0765,1.6293-4.5603Z"/>
  <path class="o" d="M470.5584,267.0877c-.0082.4467-.0832.8903-.2237,1.3143-.1972.8147-.499,1.9714-.9198,3.4035-.8279,2.8516-2.1157,6.7674-3.7715,10.9855-1.6558,4.2182-3.3903,7.9638-4.7304,10.6182-.6704,1.3136-1.2355,2.3917-1.6558,3.1143-.184.3925-.4177.7592-.6968,1.0906.5488-1.5077,1.1845-2.982,1.9059-4.4154,1.2216-2.7067,2.8648-6.4523,4.52-10.6573,1.6558-4.205,3.0097-8.0816,3.9428-10.8936.4448-1.5537.9885-3.0765,1.6293-4.5603Z"/>
  <path class="l" d="M348.8253,250.3769l-30.5467,104.8006c-1.5764,5.4065,1.5298,11.0674,6.9362,12.6432l171.6898,50.043c5.4071,1.5757,11.0681-1.5298,12.6438-6.9362l30.5467-104.8006c1.5757-5.4071-1.5298-11.0674-6.9369-12.6432l-171.6898-50.043c-5.4071-1.5764-11.0674,1.5291-12.6432,6.9362Z"/>
  <g class="q">
    <path class="e" d="M348.8253,250.3763l-30.5467,104.8006c-1.5764,5.4065,1.5298,11.0675,6.9362,12.6432l171.6898,50.043c5.4071,1.5758,11.0681-1.5297,12.6438-6.9362l30.5467-104.8006c1.5757-5.4065-1.5298-11.0675-6.9369-12.6432l-171.6898-50.043c-5.4071-1.5764-11.0674,1.5291-12.6432,6.9362Z"/>
  </g>
  <path class="k" d="M418.7104,366.49l-1.3414,4.605,85.0479,24.7736,1.3414-4.605-85.0479-24.7735Z"/>
  <path class="k" d="M457.4654,387.7403l-1.3452,4.6183,43.6284,12.7081,1.3452-4.6176-43.6284-12.7087Z"/>
  <path class="k" d="M357.3423,266.6895l-2.2946,7.8725,91.7812,26.7513,2.2947-7.8725-91.7812-26.7513Z"/>
  <circle class="k" cx="372.5844" cy="298.8576" r="11.1602"/>
  <circle class="k" cx="402.996" cy="307.6484" r="11.1602"/>
  <circle class="k" cx="433.4077" cy="316.4393" r="11.1602"/>
  <circle class="k" cx="463.8193" cy="325.2301" r="11.1602"/>
  <circle class="k" cx="494.2309" cy="334.021" r="11.1602"/>
  <circle class="k" cx="363.2077" cy="327.3117" r="11.1602"/>
  <circle class="k" cx="393.6193" cy="336.1026" r="11.1602"/>
  <circle class="k" cx="424.031" cy="344.8934" r="11.1602"/>
  <circle class="k" cx="454.4426" cy="353.6843" r="11.1602"/>
  <circle class="k" cx="484.8543" cy="362.4751" r="11.1602"/>
  <path class="p" d="M494.4354,285.3667l-22.5627-14.8225s-11.0253,31.7482-14.4552,32.0639c-18.7125,1.7081-38.7392-4.5074-45.7567-6.952-.7094-.8014-1.5241-1.761-2.4308-2.9436-.7731-1.0138-1.3685-2.151-1.761-3.3638-.5481-1.4875-.884-3.0444-.9986-4.6258.0365-.3862-.0807-.7718-.327-1.0717-.2463-.3005-.6011-.4914-.9873-.5311-.2199-.0176-.4404.0139-.647.0907-.2067.0775-.3938.1985-.5488.356-.8147,1.0509-1.0251,5.0593.8279,9.3827,1.853,4.3234-4.6913.8802-7.0962-.3289-2.4043-1.2091-10.026-4.5994-10.9855-4.152-1.393.6565-.959,2.2732,1.4718,3.4294,2.4314,1.1568,9.4747,5.1122,8.7779,6.3471-.6962,1.2355-12.8518-5.0984-12.8518-5.0984,0,0-2.3785-1.761-3.2322-.3553-1.5506,2.5366,11.8267,8.2921,13.1409,8.8049.8934.3679.184,1.7345-.7624,1.3136-.9463-.4202-11.9848-6.5702-13.5744-4.021-1.2223,1.9714,10.9988,4.8489,12.5758,7.3854,1.577,2.5359-9.0545-3.1143-10.1451-1.1958-.407.7227-.6042,1.3137,5.9659,3.6921,4.8111,1.4995,9.6977,2.7458,14.6392,3.7324v.0655s67.0971,30.0401,79.7914,1.0648c13.5876-30.8813,11.9319-28.2665,11.9319-28.2665Z"/>
  <path class="l" d="M479.6261,241.962s20.4993,2.4181,18.3968,26.808c-1.3716,15.0784-5.6087,29.7566-12.4838,43.2466l-26.8861-14.1137c6.0535-12.0762,10.6081-24.8473,13.5612-38.0298l7.5429-17.9111h-.1311Z"/>
  <g class="b">
    <path class="k" d="M479.6261,241.962s20.4993,2.4181,18.3968,26.808c-1.3716,15.0784-5.6087,29.7566-12.4838,43.2466l-26.8861-14.1137c6.0535-12.0762,10.6081-24.8473,13.5612-38.0298l7.5429-17.9111h-.1311Z"/>
  </g>
  <path class="o" d="M492.1357,252.4485c0,.1184-1.9053-.3415-5.1777-.4202l.2237-.2501c.7749,3.0753,1.8,7.175,2.9959,11.9061l.1317.5519-.5387-.1449-8.3576-2.26-2.2739-.6307.4473-.3547c.184,4.5332.3547,8.7388.499,12.3521v.3944l-.3679-.1052-8.0294-2.2468-2.2203-.6571c-.2665-.0674-.5223-.1695-.7624-.3024.2766.0038.5507.0485.8147.1317l2.26.5122,8.0558,1.9972-.3547.3024c-.184-3.614-.3944-7.8189-.6181-12.3395v-.4858l.4732.1311,2.2732.6307,8.3318,2.3261-.4076.4076c-1.1039-4.7707-2.0502-8.8969-2.7728-11.998l-.0655-.2627h.2892c1.2853.063,2.5637.2256,3.8238.4864.4524.0643.8972.1745,1.3275.3283Z"/>
  <path class="o" d="M493.7915,285.7744c-.3705-.2709-.6905-.6049-.9463-.986-.5519-.6962-1.1562-1.853-2.0231-3.1931h.3547c-2.1277,4.1533-4.6164,8.1106-7.4377,11.8267l-.2634.3547-.276-.3547c-1.3136-1.6381-2.6279-3.3903-3.9422-5.2559l-3.0223-3.9428h.4996l-4.8621,4.2843-2.1813,1.8788-1.0118.8808-.4864.4202-.1184.1052h-.1443c0,.1184-.4341-.1575-.3421-.276v-.0788s.092.2237.1317.2104l-.223.0655-.0794-.2495c-.7749-2.6286-1.3136-4.7046-1.6425-6.2028-.2243-.7624-.3131-1.5587-.2627-2.352.1405.7706.3201,1.5342.5387,2.2865.4077,1.4585,1.0251,3.5478,1.8795,6.1102l-.3024-.184c.0945-.0258.1947-.0258.2892,0,.0655.0227.1229.0649.1632.1216.0397.0567.0611.1247.0599.194.0132.0605.0132.1235,0,.184h-.0655l-.184-.0788c-.0132-.0504-.0403-.0958-.0788-.1317l-.0788-.0788.1052-.1052.4858-.4335.9993-.8934c.683-.6181,1.3924-1.3143,2.1415-1.9185l4.7966-4.2711.276-.2495.2363.3018,3.023,3.9428c1.3924,1.8133,2.7332,3.5743,3.9422,5.2559h-.5393c2.8226-3.677,5.3662-7.56,7.6091-11.6162l.184-.3156.184.3024c.8405,1.4063,1.3137,2.6279,1.8523,3.2983.5393.6704.8021,1.1038.7624,1.1435Z"/>
  <path class="o" d="M480.0722,242.0281c-1.8095.6647-3.7223,1.0074-5.6503,1.0119l.2495-.4732,2.5366,4.113,1.6029,2.6286.3812.6439-.7359-.1449c-2.4288-.3566-4.8778-.5626-7.3325-.6175.6742-.2218,1.3798-.3327,2.0892-.3283,1.7925-.114,3.5919-.017,5.3617.2886l-.3421.4996-1.6293-2.6279-2.4572-4.1527-.276-.4599h.5255c1.6822-.0788,3.1143-.184,4.1004-.276.5204-.0876,1.0491-.1228,1.5764-.1052Z"/>
</svg>
