<?xml version="1.0" encoding="UTF-8"?><svg id="a" xmlns="http://www.w3.org/2000/svg" viewBox="0 0 566.93 566.93"><defs><style>.b,.c{opacity:.5;}.d{fill:#e30613;}.d,.e,.f,.g,.h,.c,.i,.j,.k,.l,.m,.n,.o{stroke-width:0px;}.f{fill:#37474f;}.g{fill:#e0e0e0;}.h,.c,.l,.n{isolation:isolate;}.h,.p{opacity:.3;}.i,.n{fill:#fff;}.j{fill:#09f;}.k{fill:#202020;}.l,.n{opacity:.2;}.m{fill:#263238;}.o{fill:#455a64;}</style></defs><ellipse class="i" cx="288.83" cy="403.34" rx="250.3" ry="144.51"/><path class="k" d="M287.36,547.58c1.86.03,1.19-.02,1.47-.02-3.12-.04-1.4.04-1.47.02Z"/><polygon class="k" points="256.63 546.47 257.17 546.49 252.64 546.2 256.63 546.47"/><path class="k" d="M228.03,543.38c2.69.4,10.32,1.46,15.43,1.92l.84.1,2.31.18c-3.1-.34-6.67-.62-9.99-1.06-3.32-.44-6.41-.85-8.59-1.14Z"/><path class="k" d="M212.92,540.75c.46.1-.35-.05-.44-.06.04,0,.11.02.67.13.57.12,1.58.31,3.28.57-.34-.06-.44-.08-.64-.11-.61-.1-1.46-.23-2.88-.52Z"/><path class="k" d="M215.8,541.27c2.99.49-1.95-.34,0,0h0Z"/><path class="k" d="M202.07,538.63c1.3.29,2.61.51,3.92.76-.81-.17-4.3-.86-3-.62-3.99-.89-3.18-.69-.91-.15Z"/><path class="k" d="M198.37,537.84l2.02.45c-.35-.09-.88-.21-2.02-.45Z"/><path class="k" d="M204.68,539.18c-1.44-.26-2.87-.57-4.29-.89.56.14.62.18,1.96.44-.35-.06.49.12,2.33.46Z"/><path class="k" d="M207.12,539.67c2.19.44,5.03,1.01,1.09.26,7.49,1.45,6.4,1.19-1.09-.26Z"/><path class="k" d="M226.56,543.26l2.96.42,2.57.32c-1.28-.16-5.71-.78-5.53-.73Z"/><path class="k" d="M177.98,532.57c-.24-.06,1.27.42,1.55.52.94.29,1.9.51,2.85.76-1.47-.36-4.22-1.2-4.4-1.28Z"/><path class="k" d="M179.53,533.09l-4.23-1.23c3.78,1.12,4.47,1.31,4.23,1.23Z"/><path class="k" d="M197.66,537.76c2.36.5,4.71,1.09,7.09,1.49-2.84-.5-5.63-1.21-8.45-1.8l1.36.31Z"/><polygon class="k" points="161.92 527.54 164.3 528.29 160.06 526.94 161.92 527.54"/><path class="k" d="M151.41,523.76c1.74.61-2.36-.93-.52-.26-1.43-.51-2.74-1.03-3.95-1.53-1.22-.49-2.36-.95-3.45-1.38,1.15.47,2.33.95,3.62,1.48.65.27,1.32.54,2.03.83.72.27,1.47.55,2.27.86Z"/><path class="k" d="M139.85,519.13c1.15.46,2.34.94,3.63,1.46-1.22-.49-2.42-.97-3.63-1.46Z"/><path class="k" d="M168.11,529.68c-.32-.12-.94-.35-3.28-1.13l1.63.59c.5.17,1.07.36,1.65.55Z"/><path class="k" d="M166.52,529.15l-.06-.02c-1.79-.59-3.02-1.01-3.55-1.18.46.15,1.54.51,3.61,1.2Z"/><path class="k" d="M168.53,529.82c-.15-.05-.26-.09-.41-.14.16.06.25.09.41.14Z"/><path class="k" d="M186.44,534.99c-2.51-.63-7.75-1.97-2.7-.62,1.81.44-1.08-.33,2.7.62Z"/><path class="k" d="M170.57,530.51l4.49,1.34c-.09-.04-.89-.29.34.06l-4.83-1.4Z"/><path class="k" d="M168.38,529.84c.73.24,1.45.47,2.19.68-.56-.16-1.11-.33-1.66-.52l-.53-.16Z"/><path class="k" d="M147.26,522.22c-1.88-.76-3.92-1.6-6.24-2.54,2.48,1.02,5.04,2.08,7.47,3.08.35.13,1.43.54-1.23-.54Z"/><path class="k" d="M156.56,525.74c-.13-.05-.3-.11-.42-.15.26.1.47.18.42.15Z"/><path class="k" d="M118.82,509.09c.12.07.22.13.34.2.03.01.05.02.08.04l-.43-.24Z"/><path class="k" d="M148.9,522.94c1.89.69,3.02,1.11,4.1,1.5-1.41-.53-2.92-1.05-4.51-1.68-.16-.06-.19-.07.41.18Z"/><path class="k" d="M133.59,516.34c.95.44,2.03.94,3.17,1.46-.93-.43-2.81-1.3-3.17-1.46Z"/><path class="k" d="M155.51,525.34c.09.03.18.07.28.1-.62-.24-.54-.2-.28-.1Z"/><path class="k" d="M155.51,525.34c-.97-.35-1.74-.62-2.51-.9,1.15.42,2.22.81,3.14,1.15-.23-.09-.46-.18-.63-.25Z"/><path class="k" d="M112.16,505.73c.34.13,4.98,2.68,8.99,4.88,2.02.99,2.39,1.13,1.81.79-.57-.35-2.1-1.11-3.79-2.12-.13-.05-.14-.04-4.2-2.25.71.4,2.95,1.65,4.58,2.57,1.63.93,2.71,1.42.95.58-5.38-2.94-4.4-2.44-7-3.89,1.11.62-.64-.26-2.45-1.32-1.81-1.07-3.74-2.22-3.19-1.84,1.55.91,3.06,1.87,4.63,2.74.08.07-1.63-.88-.33-.14Z"/><path class="k" d="M127.02,513.29l1.71.85c-1.93-.98-3.31-1.69-5.86-2.99-2.85-1.38-3.4-1.74-3.61-1.82,1.36.78,2.77,1.45,4.16,2.15l4.19,2.1-.59-.29Z"/><path class="k" d="M136.49,517.71c-1.37-.57-5.54-2.45-3.01-1.25,5.1,2.29,3.57,1.62,6.65,2.91-8.25-3.65,2.36,1.07-3.57-1.63,1.61.73,3.07,1.39,4.47,1.94-1.51-.6-2.93-1.26-4.27-1.88.07.03.13.06.19.09l.04.02h0c.35.16.47.22.07.03-.03-.01-.13-.06-.17-.08-.07-.03-.22-.09-.38-.15-2.37-1.09-.37-.18.38.15.03.01.08.03.1.04,0,0-.02,0-.03-.01-2.74-1.25-5.51-2.44-8.22-3.75,1.7.87,3.91,1.8,7.77,3.57Z"/><path class="k" d="M179.06,533.21c-.27-.08-.26-.08-.27-.09-.56-.16-.78-.22.27.09Z"/><path class="k" d="M175.5,532.13c.63.18,1.16.34,3.21.93,1.77.54-.01.02.08.06,1.23.37,4.35,1.19.46.08l-.61-.18c-3.49-1.05-7.95-2.42-7.34-2.25,1.01.34,1.9.63,4.21,1.35Z"/><path class="k" d="M155.51,525.48c-2.35-.87-4.72-1.71-7.06-2.61,1.18.49,2.38.92,3.57,1.38l-.17-.09c4.01,1.49,3.15,1.15,3.66,1.32Z"/><polygon class="k" points="118.08 508.66 118.97 509.1 115.14 507.06 118.08 508.66"/><polygon class="k" points="109.57 503.85 109.9 504 107.68 502.69 109.57 503.85"/><path class="k" d="M395.15,272.26l2.14.55c-1.01-.26-1.67-.43-2.14-.55Z"/><path class="k" d="M379.6,268.42l-.39-.07c.73.15,1.02.21.39.07Z"/><path class="k" d="M94.85,312.34c2.64-1.85,5.7-3.73,5.34-3.57l-.85.51c-1.85,1.27-3.33,2.17-4.5,3.06Z"/><path class="k" d="M249.1,260.65c-.31.03-.62.06-.94.08-.78.1-1.51.18-2.16.26.93-.1,1.99-.22,3.1-.35Z"/><path class="k" d="M251.34,260.26l4.24-.28c-.96.06-2.32.15-4.24.28Z"/><path class="k" d="M475.3,306.63l2.17,1.4c-3.37-2.24-1.9-1.24-2.17-1.4Z"/><path class="k" d="M43.55,431.44c-.79-2.66-1.49-4.75-1.98-6.63.89,3.22,1.7,5.79,1.98,6.63Z"/><path class="k" d="M388.94,271.12c1.31.33,1.87.47,1.84.45-1.35-.34-2.11-.54-1.84-.45Z"/><path class="k" d="M39.94,416.98c.07.48.09.97.21,1.45.44,1.98.88,3.97,1.42,6.39-.26-1.21-.54-2.5-.82-3.82-.15-.66-.29-1.33-.44-2-.07-.33-.16-.67-.22-1l-.14-1.01Z"/><path class="k" d="M406.53,531.14c-.22.06-.49.14-.69.2-.07.03.24-.06.69-.2Z"/><path class="k" d="M315.67,546.82c.91-.07,2.39-.18,3.78-.28-.68.05-1.82.14-3.78.28Z"/><path class="k" d="M77.89,480.71c1.54,1.38.25.22,0,0h0Z"/><path class="k" d="M85.44,487.38c-.35-.27-.61-.48-.66-.51.15.12.37.29.66.51Z"/><path class="k" d="M38.83,396.43c0-.06,0-.11,0-.18-.04.62-.03.51,0,.18Z"/><path class="k" d="M80.19,482.81c-.58-.52-1.24-1.13-1.96-1.78.32.29.91.83,1.96,1.78Z"/><path class="k" d="M79.89,482.51c.53.48.95.86,1.34,1.21.2.17.03.01-1.34-1.21Z"/><path class="k" d="M75.74,478.78c.88.79,1.7,1.53,2.49,2.25-.3-.27-.43-.39-.34-.32-.45-.41-1.09-.98-2.15-1.93Z"/><path class="k" d="M535.13,429.4c-.04.13-.09.28-.14.42-.6,2.01-.33,1.13.14-.42Z"/><path class="k" d="M141.94,286.15c-.09.04-.14.06-.22.09.09-.04.2-.08.28-.12l-.07.02Z"/><path class="k" d="M148.82,283.29c-2.92,1.26-4.59,1.94-6.82,2.84l2.33-.82,4.49-2.02Z"/><path class="k" d="M431.54,284.37l-2.42-1.01c-.81-.33-1.63-.62-2.45-.94.74.27,1.46.53,2.14.77.67.27,1.3.52,1.87.75,1.15.46,2.09.84,2.7,1.09,1.22.49,1.15.45-1.12-.51-.18-.04-1.45-.54-3.27-1.27-1.84-.68-4.22-1.56-6.61-2.44-1.19-.44-2.39-.88-3.51-1.3-1.14-.38-2.2-.73-3.13-1.04-1.86-.61-3.16-1.02-3.34-1.04l-3.27-1.11c.94.31,1.09.36,2.02.66-3.17-1.11-4.38-1.41-5.82-1.8-1.44-.39-3.11-.85-7.25-2.09-2.9-.82-4.94-1.33-2.94-.84l-6.51-1.66c-1.89-.5-1.42-.4.46.1-3.29-.91-6.65-1.57-9.97-2.35h.07c-1.43-.29-4.66-1.02-6.26-1.28-2.55-.52,1.28.24.63.09l-5.57-1.06c-2.26-.48,2.36.39,6.2,1.15-2.59-.57-3.74-.79-5.65-1.15-1.91-.34-4.56-.92-10.21-1.84l5.29.86c-3.39-.64-7.52-1.33-13.5-2.28,1.43.18,11.95,2.06,5.87,1.08-1.71-.27-3.96-.72-7.26-1.1,0-.01-.21-.05-.58-.1-.37-.05-.9-.13-1.55-.22-1.31-.17-3.12-.41-5.13-.68l.28-.03c-2.17-.29-3.18-.39-3.96-.45-.78-.07-1.35-.12-2.62-.23-4.86-.51-5.87-.66-7.01-.82-7.8-.68,5.38.5-3.86-.23-3.25-.24-6.01-.44-8.93-.66-2.93-.18-6.02-.26-9.91-.42-4.55-.22.8,0-.83-.09-1.35-.03-2.69-.11-4.04-.09-.99-.02-.67-.03-.51-.03-3.4-.03-.28.06-5.63,0-.72.04-3.47-.08-6.86-.08-3.39.02-7.44.06-10.75.15-1.63,0,.79-.05.29-.07-4.54.15-6.48.3-8.23.37-1.74.11-3.28.13-7,.41l-6.34.42c4.66-.27-1.29.15-6.49.68,1.65-.17,3.06-.22,4.01-.29-2.77.18-5.53.54-8.3.82-1,.09-.17-.02,1.19-.18-.56.06-1.1.12-1.52.17-2.97.28-1.43.09.69-.17,1.01-.09,2.02-.18,2.99-.27,2.04-.27,3.96-.46,3.53-.45-.54.04-1.58.14-2.72.27.53-.07.88-.11.63-.09-.29.03-1.15.13-2.5.28l-1.89.12-.45.08-5.43.54c-1.81.18-3.61.45-5.41.67-3.86.57-7.49,1.02-11.64,1.79-2.08.36-4.3.74-6.77,1.16-2.46.43-5.15,1.01-8.19,1.6,3.01-.64.63-.21.78-.3,1.67-.29,4.02-.77,6.75-1.29,2.74-.46,5.86-.98,9.03-1.51-3.31.54-2.59.39-1.75.24-3.76.66-7.54,1.22-11.27,2.02.24-.1-2.39.43-5.34.98,1.12-.15-.98.22-3.91.88-2.92.67-6.69,1.54-8.96,2.06-.29.03.79-.25,6.34-1.5-3.07.66-5.04,1.14-6.99,1.61-1.95.5-3.87,1.06-6.86,1.8,1.34-.35,2.07-.54,2.6-.69-1.57.41-4.27,1.12-6.35,1.67-2.09.54-3.53,1-2.64.71l1.33-.39c-4.42,1.31-11.17,3.22-16.87,5.22-1.43.48-2.8.94-4.07,1.36-1.25.47-2.39.89-3.38,1.26-1.97.74-3.31,1.26-3.62,1.4-.09.02,1.1-.52,1.61-.72-5.14,1.92-10.14,4.18-15.16,6.36.64-.33-.32.04-.57.09-.25.07.18-.26,3.71-1.71-1.01.43-2.17.84-3.56,1.48-1.39.64-3.06,1.4-5.17,2.36,1.37-.61,3.44-1.45,1.58-.59-5.14,2.26-3.6,1.5-9.82,4.55,2.01-.99-.17.23-3.34,1.81.49-.26-.32.03.84-.56l-1.96,1.02-1.92,1.09-3.84,2.18c1.92-1.08.29-.27-1.45.65.76-.51-6.57,3.89-8.57,5.13l3.22-1.92c-2.12,1.3-3.74,2.23-5.02,3.1-1.27.87-2.28,1.57-3.3,2.26-1.01.7-2.02,1.39-3.28,2.26-1.26.88-2.72,2.01-4.72,3.46.95-.73,2.3-1.87-1.76,1.1-.94.67-2.88,2.34-5.43,4.51-2.62,2.1-5.62,4.99-8.85,7.92-.43.36-.83.75-1.23,1.14l-4.7,4.78c.73-.76,1.77-1.85,3.01-3.13.62-.64,1.29-1.34,1.98-2.06.7-.72,1.49-1.41,2.26-2.14,1.56-1.45,3.18-2.94,4.69-4.34,1.59-1.32,3.08-2.56,4.3-3.59-2.9,2.35-.86.59-5.14,4.18-.74.65-.19.12.72-.68.94-.77,2.23-1.82,2.87-2.34l-2.53,2.05c-.85.68-1.63,1.44-2.44,2.15-1.61,1.46-3.24,2.89-4.83,4.36.23-.18-1.52,1.6-3.27,3.38-.88.89-1.75,1.78-2.39,2.43-.6.68-.97,1.11-.88,1.03.76-.91,1.6-1.72,2.43-2.57l2.48-2.52c.84-.82,1.63-1.71,2.51-2.49l2.61-2.38c.25-.15-1.28,1.21-3.63,3.48-2.26,2.36-5.51,5.46-8.49,8.98-1.58,1.74,1.07-1.39.93-1.26-.4.46-1.84,2.1-3.25,3.71-1.36,1.66-2.62,3.34-2.9,3.66l2.38-3.1c-1.57,2.03-2.86,3.68-4.23,5.44-.71.86-1.3,1.85-2.01,2.87-.71,1.03-1.48,2.14-2.36,3.42-.64.85-1.43,2.23-2.14,3.41-.71,1.17-1.3,2.16-1.37,2.33,1.82-2.96,2.37-3.42,1.25-1.4-.1.16-.5.84-1.07,1.8-.29.48-.61,1.03-.97,1.62-.33.61-.64,1.27-.98,1.94-1.34,2.68-2.82,5.53-3.21,6.69-.68,1.61-.22.38.26-.92.22-.66.52-1.3.66-1.61.14-.32.12-.31-.22.35-.08.1-.75,1.92-1.06,2.67-.84,2.07.29-.88-1.51,3.64-.04.2-.36.85-.59,1.67-.25.81-.54,1.74-.75,2.42-.42,1.36-.53,1.71.62-1.9-1.33,4.56-1.68,4.77-2.81,10.25.21-.86-.02.37-.43,2.4-.36,2.04-.61,4.91-.94,7.27.03-.28-.18.77-.17,1.29-.11,2.43-.21,4.58-.3,6.58.02,2,.14,3.85.21,5.67.06.91.02,1.83.17,2.74.12.91.24,1.84.36,2.79.26,1.9.43,3.93,1,6.13.16.82,1.09,5.1.66,3.29.16.63.27,1.25.5,2.03.24.78.54,1.73.96,3.07,1.55,5.2-1.85-5.97-.7-2,.07.16.62,1.89,1.3,4.05.17.54.35,1.11.53,1.68.23.56.46,1.13.68,1.69.46,1.12.9,2.22,1.27,3.14-.19-.59-1.08-2.71-2.01-5.19-.77-2.53-1.74-5.37-2.25-7.3.12.38.57,1.75,1.44,4.42.8,2.81,2.37,6.61,4.25,10.95,3.34,6.75,1.39,2.95,1.98,4.12.4.79.73,1.54,1.11,2.21.39.66.75,1.27,1.08,1.84.67,1.14,1.24,2.1,1.75,2.95.97,1.72,1.84,2.87,2.61,3.98.78,1.12,1.51,2.17,2.46,3.54.95,1.38,2.29,2.96,4.07,5.3,2.83,3.7.05.23.65,1.07-1.89-2.42-3.37-4.26-4.62-5.95-1.18-1.75-2.23-3.29-3.39-5.01l2.87,4.24c-.56-.81-1.42-2.05-2.29-3.32-.44-.64-.88-1.28-1.29-1.89-.4-.61-.72-1.21-1-1.69.25.42.58,1.08,1.11,1.86.53.78,1.17,1.73,1.9,2.8.74,1.07,1.54,2.28,2.44,3.55.96,1.23,1.98,2.53,3.04,3.88.53.68,1.06,1.36,1.61,2.05.55.69,1.16,1.33,1.74,2,1.18,1.33,2.36,2.66,3.51,3.96,2.39,2.52,4.75,4.83,6.67,6.77,1.45,1.29,3.96,3.51,2.79,2.44l-2.57-2.31c-2.33-2.16,4.87,4.31,1.64,1.37.87.77,1.76,1.56,2.69,2.39.93.82,1.87,1.7,2.94,2.52,2.11,1.67,4.34,3.57,6.94,5.55l.95.77c-.05-.05-.9-.69-1.93-1.45-.99-.8-2.15-1.74-2.86-2.32,2.05,1.79,7.91,6.12,10.35,7.82l-3.66-2.74c.94.68,1.94,1.4,2.98,2.16,1.03.76,2.18,1.45,3.32,2.22,1.15.76,2.32,1.53,3.51,2.31.59.39,1.19.79,1.79,1.19.61.37,1.23.75,1.85,1.12-2.21-1.42-1.17-.65-4.54-2.99,1.46,1.02-1.62-1.03-4.47-2.93-2.81-1.96-5.32-3.88-3.05-2.13-1.67-1.28-3.14-2.37-4.73-3.55-1.57-1.22-3.21-2.6-5.33-4.36.12.12,1.48,1.27-2.26-1.82-.17-.15-.56-.48-.8-.7-.11-.1-.15-.13-.24-.22.07.07.12.11.2.18-.16-.14-.17-.15.07.07.84.79,1.56,1.39,1.85,1.63-.98-.7-2.82-2.45-4.74-4.13-.95-.85-1.91-1.71-2.75-2.46-.8-.79-1.49-1.48-1.95-1.94-2.02-2.05.87.84-.23-.29l-2.78-2.74c-.06-.08-.42-.46-.86-.91-.43-.46-.89-1.03-1.23-1.41-.65-.78-.75-.85,1.55,1.63-1.4-1.48-2.71-3.03-4.07-4.54-.59-.68-1.24-1.42-1.9-2.18-.62-.8-1.27-1.63-1.9-2.44-1.25-1.64-2.54-3.17-3.41-4.41-1.61-2.38-4.14-5.97-2.7-3.92l-1.35-1.97-1.22-2.05-2.43-4.12-.03-.08c-4.48-8.28-8.28-17.66-10.16-28.29-.27-1.56-.45-3.17-.71-5.03-.11-.93-.29-1.93-.37-3.03-.05-1.1-.1-2.3-.15-3.63v-1.04c-.21-2.03.03-5.09.14-7.85.03-.69.07-1.36.1-2,.08-.63.16-1.22.23-1.75.13-1.06.24-1.89.29-2.33.2-1.08.32-2.87.86-4.97.24-1.06.49-2.21.76-3.42.13-.61.27-1.23.41-1.86.17-.62.38-1.24.57-1.88,1.42-5.09,3.54-10.33,5.05-13.57l.07-.26c.54-1.11,1.08-2.2,1.63-3.31.54-1.11,1.07-2.23,1.75-3.33.65-1.11,1.31-2.25,2.01-3.44.35-.6.7-1.21,1.07-1.84.39-.61.82-1.22,1.25-1.85l-.25.29c1.5-2.17,3.31-5.06,5.73-7.97.59-.74,1.19-1.5,1.8-2.28.31-.39.61-.78.93-1.17.33-.38.67-.76,1.01-1.14,1.35-1.52,2.74-3.08,4.13-4.64-.36.44-1.77,2.02-2.78,3.14,6.64-7.45,14.73-15.1,21.95-20.58,1.75-1.43,3.12-2.34,4.39-3.28-.17.13-.32.24-.45.33.19-.14.46-.34.75-.55.81-.58,1.64-1.19,2.54-1.84-.77.55-1.5,1.08-2.14,1.54.7-.52,1.58-1.17,2.55-1.88.96-.72,2.07-1.41,3.14-2.15l.94-.57c.17-.12.32-.21.5-.33,2.12-1.39,1.69-1.15.54-.43,1.08-.73,2.06-1.4,2.83-1.92,1.78-1.04,5.79-3.55,8.24-4.95,1.48-.92,11.37-6.35,12.62-6.93.08-.03.77-.37-.48.26,2.6-1.26,5.15-2.62,7.51-3.69l1.14-.45,5.71-2.68c3.52-1.51,5.03-2.03,1.52-.56,4.24-1.77,5.96-2.49,7.52-3.14,1.55-.67,2.98-1.2,6.63-2.59l-.34.17c2.62-.98,6.78-2.59,8.41-3.04,1.49-.49,4.07-1.33,7.33-2.4,3.29-1,7.3-2.17,11.59-3.43,8.65-2.32,18.53-4.74,26.42-6.2-3.07.49,7.32-1.39,7.94-1.57.93-.12,3.13-.47.58-.03,4.04-.66,7.07-1.16,9.79-1.6,2.72-.39,5.13-.72,7.94-1.12.93-.1-1.73.27-.9.18.65-.09,2.57-.37,3.42-.46.83-.09-1.18.18-2.47.36,2.07-.28,3.67-.5,4.93-.67,1.25-.15,2.15-.25,2.82-.33,1.32-.17,1.68-.25,1.98-.32,4.22-.42,6.29-.63,9.36-.94,1.47-.08,3.93-.23-1.25.15,1.46-.11,5.91-.43,10.03-.72,2.06-.18,4.05-.23,5.53-.31,1.49-.07,2.47-.12,2.55-.14.93-.04,4.08-.18,4.85-.22,6.55-.2,7.13-.12,13.57-.25l-1.79.02c2.54-.15,5.35-.02,10.55.04h-.15c5.95.09,7.23.19,8.5.24,1.26.06,2.5.12,8.37.39l-.64-.08c.27,0,1.06,0,2.19.07,1.13.09,2.6.2,4.26.33,1.65.13,3.49.28,5.33.42.92.07,1.85.14,2.75.21.9.09,1.79.18,2.64.27l-2.45-.28c1.85.17,4.44.48,7.02.78,2.58.31,5.17.6,7.02.88.81.12-1.28-.17-2.41-.29,9.69,1.33,1.26.1,8.5,1.04,1.33.21-1.73-.14,3.13.51,2.41.39,14.08,2.1,20.62,3.56-1.44-.31-2.88-.62.45.02,2.56.45,5.97,1.27,9.33,2.06,1.68.39,3.34.77,4.87,1.12,1.52.38,2.9.72,4.05,1.01.64.17.88.24.9.26,1.92.51,5.06,1.25,7.96,2.1,2.9.84,5.61,1.62,6.78,1.95,1.76.53,7.6,2.51,13.02,4.27,2.68.98,5.24,1.92,7.13,2.62.94.35,1.71.64,2.25.85.53.21.83.33.81.34,3.75,1.57,7.55,3.03,11.27,4.68l-.3-.12c3.55,1.61,5.96,2.69,7.79,3.52,1.8.87,3.04,1.47,4.28,2.06,1.61.82.42.24.29.18,5.12,2.51,7.83,4.09,10.38,5.48,1.27.71,2.51,1.34,3.92,2.16,1.4.83,3,1.79,5.05,3.01l.82.56c1.15.6,4.55,2.94,8.86,5.82,2.14,1.47,4.41,3.23,6.76,4.94,1.19.84,2.33,1.77,3.45,2.69,1.13.91,2.25,1.82,3.34,2.69-.1-.07-.28-.22-.97-.76,2.5,1.91,5.01,4.29,7.6,6.61,1.32,1.14,2.53,2.4,3.74,3.63,1.21,1.22,2.4,2.43,3.55,3.59,2.16,2.44,4.16,4.7,5.81,6.56,1.54,1.95,2.76,3.48,3.51,4.36l1.29,1.63c.42.55.79,1.13,1.19,1.7l2.36,3.41c-6.04-8.88.97,1.28-1.5-2.39,2.53,3.4,5.74,9.29,3.12,4.8l-.4-.71c-.52-.8,1.16,2.08,2.94,5.14.94,1.5,1.67,3.17,2.29,4.38.6,1.22.98,2.03.94,1.97,4.52,9.53,7.43,19.7,8.4,29.91.99,10.21.07,20.4-2.46,29.96l.56-2.21c-.42,2.27-1.18,4.44-1.85,6.64-.55,1.72-.77,2.3.68-2.39-.4,1.23-1,3.2-1.51,4.88-.59,1.65-1.14,3-1.15,3.07-3.6,8.93,1.32-3.53.22-.78l-1.48,3.73.34-.84c-.29.76-.52,1.34-.73,1.88-.21.54-.46,1-.72,1.55-.54,1.1-1.22,2.49-2.51,5.15-1.85,3.25-.99,1.64-1.73,2.92,0,0-.25.42-1.14,1.95l-1.1,1.87c-.36.63-.81,1.2-1.2,1.81l-2.45,3.59,2.01-2.84c-1.08,1.6-2.23,3.29-2.82,4.16-.3.44-.49.65-.42.58.07-.07.38-.44.95-1.27-.41.62-1.06,1.45-1.87,2.46-.8,1.02-1.75,2.22-2.8,3.55-1,1.36-2.28,2.69-3.54,4.12-.63.71-1.28,1.44-1.93,2.17l-.97,1.1c-.33.36-.69.7-1.03,1.05-1.38,1.39-2.75,2.76-4.04,4.06-1.26,1.33-2.62,2.43-3.74,3.48-2.3,2.06-4.01,3.65-4.75,4.18-2.09,1.71-4.14,3.43-6.37,5.19-2.28,1.67-4.68,3.46-7.36,5.39.68-.45,1.21-.85,1.01-.67-.19.18-1.15.87-3.53,2.43.83-.63-1.35.8-4.22,2.7-2.9,1.85-6.6,4.01-8.58,5.17,3.66-1.88-14.17,7.83-8.46,4.81-4.23,2.18-.27.1-3.51,1.7-10.04,5.22-22.58,10.6-35.77,15.23-.2.08,2.02-.67-.81.34l-7.03,2.24c-2.61.89-2.38.91-7.24,2.28.69-.19,1.71-.47-.06.06-13.14,3.87-26.77,7.11-40.6,9.61-13.83,2.47-27.85,4.16-41.73,5.11,3.76-.24,1.26-.05-1.61.16,1.87-.13-.04.05.33.04l-5.81.38-5.82.22c-1.06.07-4.18.24-7.19.33-3.01.04-5.9.09-6.51.13l3.69-.07c-2.45.07-.74.09,1.51.1,2.24.04,5-.08,4.65,0,2.74-.17,6.37-.28,10.43-.45,4.05-.28,8.55-.55,13.04-.99,1.98-.18-1.69.2-.63.12,2.27-.28,5.02-.57,10.11-1.07l-.57.07c.89-.09,1.76-.18,2.59-.27.83-.11,1.64-.22,2.42-.32,1.56-.21,3.03-.4,4.45-.59,2.83-.38,5.43-.69,8.07-1.15,2.64-.43,5.34-.86,8.38-1.35,3.03-.54,6.37-1.22,10.34-1.97l-1.18.18c3.41-.64,4.12-.81,5.71-1.16,1.93-.48-.44.07-2.86.6-2.44.47-4.91.96-3.14.57,2.28-.33,8.24-1.71,14.03-3.03,5.73-1.47,11.23-2.88,12.82-3.28,5.12-1.51-1.52.39,3.6-1.12l1.37-.37,1.28-.42c1.68-.49,2.94-.85,3.81-1.1.85-.27,1.31-.4,1.37-.41-.8.28-2.29.75-3.17,1,2.19-.59,5.21-1.68,7.9-2.55,2.68-.89,5.01-1.68,5.73-1.97-1.6.61-3.24,1.11-4.86,1.65,13.81-4.65,30.3-11.47,42.67-18.22-.32.16-.63.34-.95.49,4.71-2.59,6.6-3.63,8.6-4.73,1.97-1.16,4.05-2.39,9.07-5.49l-.35.24c1.97-1.32,4.58-3.08,7.26-4.88-1.24.83-.04.09,1-.66,1.04-.75,2-1.43.43-.26,9.36-6.95,4.68-3.38,10.62-8.27l1.4-1.09c2.04-1.66,2.12-1.89,6.51-5.82-3.57,3.26,2.83-2.48-1.16,1.18,1.14-1.04,2.27-1.96,3.22-2.93.96-.96,1.86-1.86,2.7-2.71.84-.85,1.63-1.64,2.37-2.39.74-.75,1.37-1.53,2-2.22,1.24-1.41,2.35-2.66,3.38-3.83,1.03-1.16,1.88-2.33,2.79-3.42,1.71-2.27.05-.17-1.8,2.18-1.91,2.3-4.15,4.73-3.09,3.54-1.81,1.96,3.13-3.49,5.42-6.64.61-.77,1.18-1.48,1.79-2.25.62-.75,1.17-1.62,1.88-2.6.7-1,1.5-2.15,2.48-3.56.51-.69.98-1.51,1.5-2.4.53-.89,1.1-1.87,1.73-2.94-.5.86-.53.91-1.03,1.77.47-.8.94-1.6,1.41-2.4.47-.8.96-1.6,1.36-2.49.85-1.73,1.75-3.55,2.77-5.6.94-2.38,2.22-5.5,2.43-6.21-1.16,2.81-2.13,5.7-3.57,8.39,1.21-2.29,2.05-4.66,3.12-7.38.27-.68.54-1.38.83-2.12.23-.76.48-1.54.73-2.37.48-1.66,1.13-3.46,1.65-5.52-.06.67-.88,3.07-1.35,4.75.37-1.19.73-2.34,1.08-3.49.35-1.16.54-2.37.85-3.63.1.78-2.75,10.76-5.04,15.83.5-1.25,1.47-3.68,2.19-5.48.58-1.85.94-3.06.57-1.71,1.12-3.84,2.93-9.4,3.67-16.11v.45c.05-.53.16-1.34.27-2.27.06-.46.12-.95.18-1.45l.1-.75c.01-.25.02-.5.03-.74,0,.59-.06,1.18-.14,1.77l-.2,1.77c.43-2.7.45-5.34.59-7.94l.1-1.95c.04-.65-.03-1.3-.04-1.94-.06-1.3-.11-2.59-.17-3.9.12,2.74.18,4.26.21,5.08.03.82-.04.93-.02.84-.01-.18,0-1.14-.11,1.17.12-1.69-.02-3.08-.06-4.24-.05-1.17-.09-2.11-.12-2.91-.04-.8-.04-1.46-.08-2.04-.07-.58-.13-1.1-.19-1.64-.3-2.12-.28-4.51-2.05-11.88.45,2,1.63,7.53.92,4.4-.3-1.41-.66-3.04-.98-4.54-.14-.76-.37-1.45-.55-2.08-.19-.62-.35-1.17-.47-1.59-2.98-9.59.41,1.49-.88-2.59-.43-1.66-.94-2.78-1.45-4.04-.52-1.25-1.08-2.63-1.91-4.65l.03-.05c-2.51-5.13-2.86-5.8-3.16-6.34-.27-.55-.57-.93-3.14-5.38l2.26,3.72-2.73-4.62.61.93c-.37-.63-.71-1.2-1.03-1.73-.33-.52-.67-.98-.97-1.43-.61-.89-1.15-1.68-1.69-2.46-.53-.78-1.07-1.57-1.67-2.45-.61-.88-1.37-1.79-2.24-2.92.77,1.08-.49-.57-3.69-4.48-2.27-2.6,1.32,1.42-3.45-3.94,1.09,1.2,2.32,2.48,4.32,4.87.22.27,1,1.21,1.22,1.49-.58-.72-1.17-1.59-1.92-2.4-.72-.82-1.47-1.66-2.2-2.49-1.47-1.63-2.79-3.21-3.74-4.09.72.69,1.51,1.59,1.91,2.06-1.12-1.32-2.41-2.49-3.63-3.72-1.24-1.21-2.45-2.45-3.7-3.65-1.21-1.1-.21-.28.71.63-1.52-1.46-2.65-2.38-4.94-4.46.62.51.51.35,3.78,3.27l-3.7-3.3-1.85-1.65c-.62-.54-1.28-1.04-1.92-1.56-.5-.43-3.92-3.24-2.91-2.44-4.23-3.51-10.8-8.05-16.88-12.05-.32-.21-.95-.63-2.28-1.41-5.82-3.59-11.04-6.68-18.29-10.31l-4.08-2.12c-2.84-1.41-1.46-.7-.55-.22.46.24.79.42.42.25-.38-.15-1.42-.75-3.84-1.81-6.82-3.07-2.52-1.21-4.9-2.31-.85-.38-1.86-.82-2.99-1.32-1.15-.46-2.42-.97-3.79-1.52-2.73-1.09-5.79-2.42-9.02-3.59,1.07.39,2.02.74,2.95,1.09.92.38,1.83.75,2.81,1.15ZM356.17,263.94c1.5.24,4.49.69,5.58.9-1.71-.22-3.03-.47-5.58-.9ZM237.63,261.76c1.11-.18,2.85-.31,4.81-.51-1.42.16-3.03.29-4.81.51ZM62.21,464.32c-.04-.05-.07-.08-.1-.13-2.07-2.67-1.33-1.72.1.13ZM66.75,469.66c.47.52.45.48.25.25-.33-.38-1.37-1.54-2.57-2.88.32.38.92,1.06,2.31,2.62ZM525.82,449.45l.7-1.17c-1.55,2.66-1.12,1.91-.7,1.17Z"/><path class="k" d="M251.04,260.3c.43-.02.55-.02.65-.02.59-.05.61-.06-.65.02Z"/><path class="k" d="M474.89,306.37l.2.13c.11.07.17.1.2.13l-.4-.26Z"/><path class="k" d="M45.37,369.3c.56-1.34.82-2.1,1.09-2.57.01-.04-.06.09-.25.48-.16.4-.43,1.07-.85,2.09Z"/><path class="k" d="M94.61,494.1l-3.63-2.65c1.74,1.29,2.37,1.75,3.25,2.41-.07-.07-.76-.59.38.24Z"/><path class="k" d="M128.06,514.07c.59.28,1.24.63,1.83.9l-.15-.09c-2.51-1.24-4.26-2.11-1.68-.8Z"/><path class="k" d="M97.94,496.6c.27.23,2.63,1.78,5.25,3.52-.16-.11-.31-.2-.46-.31.8.47-2-1.38-4.79-3.21Z"/><path class="k" d="M103.8,500.52c.83.5,1.68,1.01,2.49,1.51.33.17-1.01-.62-2.49-1.51Z"/><path class="k" d="M72.91,476.06c1.04,1.06.7.63,1.28,1.24,1.21,1.14-7.06-7-1.28-1.24Z"/><polygon class="k" points="99.99 498.12 99.07 497.45 97.58 496.51 99.99 498.12"/><path class="k" d="M80.19,483.1c1.22,1.16,2.56,2.17,3.85,3.24-.05-.05.45.34,1.06.84-1.2-.98-2.46-2-3.41-2.77-.94-.78-1.53-1.36-1.49-1.3Z"/><path class="k" d="M85.1,487.18c1.26,1.02,2.45,1.98,3.15,2.55-.68-.55-2.14-1.73-3.15-2.55Z"/><polygon class="k" points="94.3 494.25 93.11 493.36 90.24 491.26 94.3 494.25"/><path class="k" d="M47.14,440.81l-.61-1.23c-.19-.41-.35-.85-.52-1.27l-1.03-2.55c-.22-.51.32.88,1.09,2.78.13.3.26.65.41.98.16.32.32.64.45.89.26.51.39.77.21.39Z"/><path class="k" d="M55.18,455.32c-.81-1.23-.87-1.32-1.34-2.02l-.15-.1,1.48,2.13Z"/><path class="k" d="M47.26,441.41c-.36-.44-3.24-7.29-.49-.89.26.49,2.71,5.43.49.89Z"/><polygon class="k" points="49.12 361.67 48.5 362.93 48.68 362.79 49.12 361.67"/><path class="k" d="M98.68,309.1c-5.42,3.61-1.29.85-6.07,4.29-1.22.93,3.89-2.83,2.64-1.88,3.24-2.23,4.98-3.34,3.43-2.4Z"/><path class="k" d="M95.25,311.5c-.5.38-1.04.78-1.61,1.2.91-.68,1.34-1,1.61-1.2Z"/><polygon class="k" points="300.36 547.43 296.18 547.47 298.88 547.47 300.36 547.43"/><path class="k" d="M292.33,547.63l-.99-.05-2.51.1c.94-.01,2.77-.04,3.5-.04Z"/><path class="k" d="M344.67,262.13l-.32-.03c.66.09,1.62.23,3.56.5l-3.24-.47Z"/><polygon class="k" points="400.25 273.63 399.31 273.35 401.05 273.92 400.25 273.63"/><path class="k" d="M444.98,290.03c-1.77-.8-3.86-1.74-5.64-2.55,3.87,1.74,6.09,2.83,5.64,2.55Z"/><path class="g" d="M286.67,421.2c32.45,0,58.75-15.19,58.75-33.92s-26.3-33.92-58.75-33.92-58.75,15.19-58.75,33.92,26.31,33.92,58.75,33.92Z"/><path class="m" d="M306.84,374.3c0-2.98-1.96-5.97-5.89-8.22-7.86-4.55-20.62-4.55-28.48,0-3.94,2.27-5.91,5.25-5.91,8.22v9.2c0,2.98,1.97,5.97,5.91,8.23,7.86,4.53,20.62,4.53,28.48,0,3.94-2.28,5.89-5.25,5.89-8.23v-9.2Z"/><path class="f" d="M300.99,375.28c7.86,4.55,7.86,11.93,0,16.45-7.86,4.52-20.62,4.53-28.48,0-7.86-4.53-7.88-11.93,0-16.45s20.62-4.53,28.48,0Z"/><path class="f" d="M306.88,374.3h-40.28v9.2h40.28v-9.2Z"/><path class="o" d="M300.99,366.11c7.86,4.53,7.86,11.93,0,16.44-7.86,4.51-20.62,4.55-28.48,0-7.86-4.55-7.88-11.93,0-16.44,7.88-4.51,20.62-4.58,28.48,0Z"/><path class="m" d="M293.45,368.17c3.71,2.14,3.71,5.61,0,7.74-2.08,1.05-4.38,1.6-6.71,1.6s-4.63-.55-6.71-1.6c-3.7-2.14-3.7-5.61,0-7.74,2.08-1.05,4.38-1.6,6.71-1.6s4.63.55,6.71,1.6Z"/><path class="m" d="M296.23,198.36h-18.97v173.68h18.97v-173.68Z"/><path class="j" d="M364.22,118.15v-.13c-.18-.99-.39-1.99-.64-2.99.03.11.06.21.08.32-.15-.68-.33-1.36-.52-2.04.07.25.13.5.19.75-.19-.75-.41-1.49-.63-2.24.11.32.21.66.3.98-.12-.43-.25-.86-.38-1.29l-.22-.68v-.1.07c-1.6-4.87-3.71-9.55-6.3-13.97-.08-.15-.17-.31-.26-.46-6.5-11.06-15.93-21.17-26.45-27.44l-.51-.31c-3.02-1.75-6.22-3.17-9.54-4.22-2.76-.87-5.64-1.34-8.54-1.37h-1.61c-.5,0-.99.1-1.47.17h-.44l-.81.16c-.35.07-.69.16-1.03.25l-.93.27h-.06l-.93.33c-.31.13-.62.26-.91.41l-2.05,1.19-103.34,59.66h-.08c-5.6,3.14-8.99,9.54-8.99,18.65v56.21l-38.89,21.48c-3.85,2.12-7.07,5.23-9.33,9.01-2.26,3.78-3.47,8.08-3.51,12.48-.04,4.4,1.08,8.73,3.26,12.55,2.18,3.82,5.33,7,9.14,9.2,10.83,6.25,23.11,9.53,35.61,9.53s24.78-3.29,35.61-9.53l40.28-22.67,104.68-60.48v-56.22c-.03-2.52-.29-5.03-.76-7.51Z"/><path class="j" d="M195.4,196.42v-62.8l66.49-38.01,5.99,58.06-72.47,42.75Z"/><path class="c" d="M195.4,196.42v-62.8l66.49-38.01,5.99,58.06-72.47,42.75Z"/><path class="j" d="M195.4,196.42l72.47-42.75v68.34l-14.99,7.61-57.49-33.19Z"/><path class="h" d="M195.4,196.42l72.47-42.75v68.34l-14.99,7.61-57.49-33.19Z"/><path class="j" d="M364.23,118.15l-6.87,3.78-41.83,22.9-7.57,4.12-52.29,28.64c-3.32-5.61-11.93-31.78-16.53-36.51-4.43-4.65-9.48-8.67-15.01-11.93-6.56-3.79-12.71-5.6-18.02-5.6-3.12-.07-6.21.67-8.97,2.14l103.36-59.66,2.05-1.19c.29-.14.6-.27.91-.41l.93-.33h.06l.93-.27c.33-.1.68-.18,1.03-.25l.81-.16h.44c.48-.07.97-.13,1.47-.17h1.61c2.9.04,5.78.5,8.54,1.37,3.33,1.05,6.53,2.47,9.55,4.22l.51.31c17.29,10.08,31.63,30.74,34.89,49Z"/><g class="p"><path class="e" d="M364.23,118.15l-6.87,3.78-41.83,22.9-7.57,4.12-52.29,28.64c-3.32-5.61-11.93-31.78-16.53-36.51-4.43-4.65-9.48-8.67-15.01-11.93-6.56-3.79-12.71-5.6-18.02-5.6-3.12-.06-6.21.67-8.97,2.14l103.36-59.66,2.05-1.19c.29-.14.6-.27.91-.41l.93-.33h.06l.93-.27c.33-.1.68-.18,1.03-.25l.81-.16h.44c.48-.07.97-.13,1.47-.17h1.61c2.9.04,5.78.5,8.54,1.37,3.33,1.05,6.53,2.47,9.55,4.22l.51.31c17.29,10.08,31.63,30.74,34.89,49.01Z"/></g><path class="j" d="M355.76,96.45c.1.14.19.3.27.45-.05-.19-.13-.35-.27-.45Z"/><path class="j" d="M361.31,107.79c1.29,3.36,2.27,6.83,2.92,10.37l-6.87,3.78-41.83,22.9-7.57,4.12-52.29,28.64,4.63,64.78,104.68-60.48v-56.22c-.14-6.13-1.39-12.19-3.68-17.87Z"/><path class="j" d="M359.76,104.04c-.44-.98-.91-1.97-1.4-2.95.49.98.98,1.97,1.4,2.95Z"/><path class="j" d="M356.55,97.64c.5.91,1,1.81,1.47,2.73-.46-.87-.95-1.78-1.47-2.73Z"/><g class="b"><path class="e" d="M355.76,96.45c.1.14.19.3.27.45-.05-.19-.13-.35-.27-.45Z"/><path class="e" d="M361.31,107.79c1.29,3.36,2.27,6.83,2.92,10.37l-6.87,3.78-41.83,22.9-7.57,4.12-52.29,28.64,4.63,64.78,104.68-60.48v-56.22c-.14-6.13-1.39-12.19-3.68-17.87Z"/><path class="e" d="M359.76,104.04c-.44-.98-.91-1.97-1.4-2.95.49.98.98,1.97,1.4,2.95Z"/><path class="e" d="M356.55,97.64c.5.91,1,1.81,1.47,2.73-.46-.87-.95-1.78-1.47-2.73Z"/></g><path class="j" d="M206.12,130.97c4.16,0,9.13,1.59,14.32,4.61,17.58,10.14,32.43,33.3,32.43,50.58v43.46l-57.49-33.19v-51.96c0-11.14,5.82-13.48,10.74-13.48ZM206.12,123.59c-10.81,0-18.08,7.48-18.08,20.86v56.21l72.21,41.76v-56.27c0-19.95-16.17-45.45-36.11-56.96-6.56-3.78-12.73-5.6-18.03-5.6Z"/><path class="j" d="M188.04,200.66l-38.89,21.48c-3.85,2.12-7.07,5.23-9.33,9.01-2.26,3.78-3.47,8.08-3.51,12.48-.04,4.4,1.08,8.73,3.26,12.55,2.18,3.82,5.33,7,9.14,9.2,10.83,6.25,23.11,9.53,35.61,9.53s24.78-3.29,35.61-9.53l40.37-23.02-72.26-41.7Z"/><path class="n" d="M188.04,200.66l-38.89,21.48c-3.85,2.12-7.07,5.23-9.33,9.01-2.26,3.78-3.47,8.08-3.51,12.48-.04,4.4,1.08,8.73,3.26,12.55,2.18,3.82,5.33,7,9.14,9.2,10.83,6.25,23.11,9.53,35.61,9.53s24.78-3.29,35.61-9.53l40.37-23.02-72.26-41.7Z"/><path class="g" d="M284.34,225.24l-8.11,4.68v-78.33l8.11-4.69v78.35Z"/><path class="g" d="M299.67,153.71l-23.43,13.52v-15.64l23.43-13.53v15.65Z"/><path class="j" d="M287.84,222.49c-.14,2.64-.91,5.21-2.23,7.5-1.32,2.29-3.17,4.24-5.38,5.68-4.21,2.39-7.62.47-7.62-4.39.15-2.63.92-5.19,2.25-7.47,1.32-2.28,3.17-4.22,5.38-5.65,4.2-2.49,7.61-.53,7.61,4.33Z"/><path class="l" d="M287.84,222.49c-.14,2.64-.91,5.21-2.23,7.5-1.32,2.29-3.17,4.24-5.38,5.68-4.21,2.39-7.62.47-7.62-4.39.15-2.63.92-5.19,2.25-7.47,1.32-2.28,3.17-4.22,5.38-5.65,4.2-2.49,7.61-.53,7.61,4.33Z"/><path class="j" d="M290.37,223.96c-.15,2.63-.92,5.19-2.24,7.47-1.32,2.28-3.16,4.22-5.37,5.65-4.2,2.39-7.61.45-7.61-4.4.15-2.64.91-5.21,2.23-7.5,1.32-2.29,3.16-4.24,5.38-5.68,4.21-2.36,7.61-.39,7.61,4.46Z"/><path class="m" d="M215.37,163.9c-1.06,0-2.14,0-3.19-.13-.14,0-.29-.05-.41-.12-.13-.07-.25-.16-.34-.27-.09-.11-.16-.24-.21-.38-.04-.14-.06-.28-.04-.43.03-.29.17-.56.39-.75.22-.19.51-.28.8-.26,1.42.13,2.84.17,4.26.11.29,0,.57.1.78.3.21.2.34.47.35.76,0,.29-.1.57-.29.78-.2.21-.47.34-.76.35-.47.02-.91.02-1.35.02ZM221.03,163.45c-.28,0-.55-.1-.76-.28-.21-.19-.33-.45-.36-.72-.02-.28.06-.55.24-.77.17-.22.42-.36.7-.4,1.4-.23,2.78-.55,4.14-.97.27-.07.56-.03.81.11.25.14.43.37.51.64.08.27.06.56-.07.81-.13.25-.35.44-.61.54-1.45.45-2.92.79-4.42,1.04h-.18ZM207.91,163.14h-.21c-1.48-.32-2.93-.72-4.37-1.19-.28-.1-.5-.29-.63-.55-.13-.26-.16-.56-.07-.84.1-.28.29-.5.56-.63.26-.13.56-.15.84-.06,1.35.44,2.72.81,4.12,1.1.14.03.28.08.4.17.12.08.22.18.3.31.08.12.13.26.16.4.03.14.02.29,0,.43-.05.25-.18.47-.37.63-.19.16-.43.25-.68.26h-.02ZM229.38,160.86c-.25,0-.49-.08-.69-.24-.19-.15-.33-.37-.39-.61-.06-.24-.03-.5.08-.72.11-.23.29-.41.51-.51l.76-.37c.13-.07.27-.12.42-.14.15-.02.3,0,.44.04s.27.11.39.21c.11.1.21.21.27.35s.11.28.12.43c.01.15-.01.3-.06.44-.05.14-.13.27-.23.38-.1.11-.22.2-.36.26l-.81.41c-.14.07-.29.11-.44.12l-.02-.02ZM199.55,160.39c-.16,0-.32-.04-.46-.11-1.36-.63-2.69-1.34-3.97-2.12-.12-.08-.23-.18-.31-.3-.08-.12-.14-.26-.18-.4-.03-.14-.04-.29,0-.43.02-.14.08-.28.16-.4.08-.12.18-.23.3-.31.12-.08.25-.14.4-.18.14-.03.29-.03.43,0,.14.03.28.08.4.16,1.22.74,2.48,1.41,3.77,2.01.22.11.4.29.5.51.1.22.13.48.08.71-.05.24-.19.46-.38.62-.19.16-.43.25-.67.26h-.06ZM192.04,155.86c-.24,0-.46-.08-.66-.21-1.19-.88-2.39-1.85-3.46-2.88-.11-.1-.19-.21-.25-.35-.06-.13-.1-.27-.1-.42,0-.14.01-.29.06-.42.05-.14.12-.26.22-.37.1-.11.21-.19.34-.25.13-.06.27-.1.42-.1.14,0,.29.01.42.06.14.05.26.12.37.22,1.07.98,2.18,1.9,3.31,2.74.18.14.32.33.38.55.07.22.06.45-.01.67-.07.22-.21.41-.4.54-.19.13-.41.21-.64.21ZM185.56,149.95c-.15,0-.3-.03-.44-.09-.14-.06-.26-.15-.37-.27-.99-1.09-1.97-2.24-2.88-3.44-.09-.12-.15-.25-.19-.39-.04-.14-.05-.28-.03-.43.04-.29.19-.55.42-.73.23-.18.52-.25.81-.22.29.04.55.19.73.42.87,1.19,1.8,2.24,2.76,3.29.1.11.17.23.22.37.05.14.07.28.06.42,0,.14-.04.29-.1.42-.06.13-.15.25-.25.35-.19.17-.43.27-.68.29h-.06ZM180.27,142.98c-.18,0-.36-.05-.53-.14-.16-.09-.3-.22-.39-.38-.48-.74-.94-1.5-1.39-2.27-.3-.52-.6-1.06-.88-1.6-.11-.25-.12-.54-.03-.8.09-.26.28-.48.52-.61.24-.13.53-.16.79-.09.27.07.5.24.65.47.28.51.56,1.03.85,1.53.43.74.87,1.47,1.34,2.18.1.17.16.36.17.56s-.04.39-.14.56c-.09.17-.23.32-.4.42-.17.1-.36.16-.56.16ZM176.17,135.23c-.22,0-.43-.06-.61-.18-.18-.12-.32-.29-.41-.49-.58-1.38-1.11-2.8-1.56-4.21-.04-.14-.06-.28-.05-.43.01-.14.05-.28.12-.41.06-.13.15-.24.26-.34.11-.09.24-.17.37-.21.28-.09.58-.06.84.07.26.13.46.36.54.64.43,1.35.93,2.7,1.49,4.02.07.17.1.35.09.53-.01.18-.07.36-.17.51-.1.15-.24.28-.4.36-.16.09-.34.13-.52.13ZM173.49,126.88c-.25,0-.49-.09-.69-.25-.19-.16-.33-.38-.39-.62-.32-1.47-.56-2.96-.72-4.45-.03-.29.06-.57.24-.8.18-.22.45-.36.74-.39.15-.04.31-.04.46,0,.08-.15.19-.28.33-.37.14-.1.3-.16.47-.18,1.39-.19,2.76-.5,4.1-.91.28-.09.58-.06.84.07.26.14.45.37.54.65.09.28.06.58-.08.84-.14.26-.37.45-.65.54-1.46.44-2.95.78-4.46.99-.09.01-.18.01-.27,0,.14,1.19.35,2.39.6,3.51.03.14.03.29,0,.43-.03.14-.08.28-.16.4-.08.12-.18.23-.3.31-.12.08-.25.14-.4.17-.07.04-.15.07-.23.08h0ZM169.71,122.32c-1.51-.02-3.02-.15-4.52-.37-.29-.05-.54-.2-.71-.43-.17-.23-.24-.52-.2-.81.04-.29.2-.54.43-.72.23-.17.52-.25.81-.21,1.4.21,2.81.33,4.22.35.29,0,.57.12.78.32s.32.49.32.78-.12.57-.32.78c-.21.21-.49.32-.78.32h-.02ZM161.05,121.03c-.1.02-.2.02-.3,0-1.45-.43-2.87-.94-4.26-1.55-.27-.12-.48-.33-.59-.6-.11-.27-.1-.57.01-.84.12-.27.33-.48.6-.59.27-.11.57-.1.84.01,1.3.56,2.64,1.04,4.01,1.42.28.08.51.27.65.53.14.25.18.55.1.83-.07.23-.21.43-.4.58-.19.14-.43.22-.67.22h0ZM182.44,119.44c-.24,0-.48-.09-.67-.24-.19-.15-.32-.36-.38-.6-.06-.24-.03-.48.06-.71.1-.22.27-.4.48-.52,1.23-.63,2.38-1.4,3.44-2.29.22-.19.51-.28.8-.26.29.02.56.15.75.37.1.11.17.24.21.37.05.14.06.28.05.43-.01.15-.05.29-.12.41-.07.13-.16.24-.27.34-1.18,1.01-2.47,1.88-3.85,2.58-.16.08-.33.13-.51.13h0ZM172.6,118.15c-.29,0-.57-.13-.77-.34-.2-.21-.32-.49-.31-.78.02-1.51.14-3.02.35-4.51.02-.15.06-.29.13-.42.07-.13.17-.24.28-.33.12-.09.25-.16.39-.2.14-.04.29-.05.44-.03.15.02.29.07.41.15.13.08.24.18.32.3.09.12.15.26.18.4.03.15.04.29,0,.44-.19,1.4-.3,2.82-.32,4.24,0,.29-.12.57-.33.78-.21.21-.49.32-.78.32h0ZM152.98,117.59c-.19,0-.38-.05-.55-.14-1.31-.76-2.56-1.6-3.77-2.51-.12-.08-.21-.19-.29-.32-.07-.12-.12-.26-.14-.4-.02-.14-.01-.29.03-.43.04-.14.1-.27.19-.38.09-.12.19-.21.32-.29.12-.07.26-.12.4-.14.14-.02.29-.01.43.02.14.03.27.1.39.18,1.14.87,2.34,1.67,3.58,2.39.21.12.38.31.47.53.09.22.11.47.05.71-.06.24-.2.44-.39.59-.19.15-.43.23-.67.23l-.04-.04ZM188.92,113.68c-.19,0-.38-.05-.55-.14-.12-.07-.23-.17-.32-.29-.09-.11-.15-.25-.19-.39-.04-.14-.04-.29-.03-.43.02-.14.07-.28.14-.4.31-.54.58-1.12.79-1.71.23-.63.36-1.29.41-1.96,0-.15.05-.29.11-.42.07-.13.16-.25.27-.34.11-.1.24-.17.38-.21.14-.04.29-.06.43-.04.14.01.29.05.42.12.13.07.25.16.34.27.09.11.17.24.21.38.04.14.06.29.05.43-.06.86-.24,1.71-.53,2.53-.25.72-.57,1.41-.96,2.08-.1.17-.24.31-.42.4-.17.09-.37.14-.56.14h0ZM145.97,112.32c-.28,0-.56-.11-.76-.31l-.73-.74c-.8-.82-1.57-1.69-2.31-2.6-.18-.23-.27-.52-.24-.81.03-.29.17-.56.4-.74.23-.18.52-.27.81-.24.29.03.56.17.74.4.69.86,1.43,1.68,2.18,2.46l.68.69c.1.1.19.22.24.36s.08.28.08.42-.03.29-.08.42c-.06.13-.14.25-.24.35-.19.21-.46.33-.74.35h-.02ZM173.84,109.48c-.11.02-.22.02-.32,0-.14-.04-.27-.11-.38-.2-.11-.09-.2-.21-.27-.33-.07-.13-.11-.27-.12-.41-.01-.14,0-.29.04-.43.44-1.5,1.08-2.93,1.9-4.26.16-.25.41-.42.69-.48.29-.06.59,0,.83.15.25.16.42.41.48.69.06.29,0,.59-.15.83-.72,1.17-1.28,2.42-1.66,3.74-.08.21-.22.39-.4.52-.18.13-.4.2-.63.2h-.02ZM140.43,105.52c-.18,0-.36-.04-.52-.13-.16-.09-.3-.22-.39-.37-.82-1.26-1.57-2.56-2.26-3.89-.13-.26-.16-.56-.07-.84.09-.28.29-.51.54-.64.26-.13.56-.16.84-.07.28.09.51.28.64.54.65,1.27,1.36,2.5,2.14,3.7.11.17.17.36.18.55,0,.2-.04.39-.13.57-.09.17-.23.32-.4.42-.17.1-.36.15-.56.15ZM189.55,105.24c-.22,0-.43-.07-.61-.19-.18-.12-.32-.29-.4-.49-.46-1.17-1.25-2.18-2.28-2.9-.21-.17-.34-.41-.38-.68-.04-.27.02-.54.17-.76.15-.23.37-.39.63-.46.26-.07.54-.04.78.08,1.39.96,2.46,2.32,3.08,3.89.06.13.09.27.09.42,0,.14-.03.29-.08.42-.05.13-.13.25-.24.36-.1.1-.22.18-.36.24-.12.05-.24.09-.37.1h-.02ZM178.61,102.31c-.18,0-.35-.04-.51-.13-.16-.08-.29-.2-.4-.35-.08-.12-.14-.25-.17-.39-.03-.14-.03-.29,0-.43.03-.14.08-.28.16-.4.08-.12.18-.22.3-.31,1.37-.94,2.95-1.52,4.61-1.68.15-.02.3-.01.44.03.14.04.28.11.4.2.12.09.22.21.29.34.07.13.11.28.13.42.01.15,0,.3-.05.44s-.12.27-.22.38c-.1.11-.22.2-.35.26-.14.06-.28.1-.43.1-1.29.12-2.52.58-3.58,1.32-.17.11-.37.18-.57.19h-.02ZM136.41,97.73c-.22,0-.43-.07-.61-.19-.18-.12-.32-.3-.4-.5-.55-1.37-1.05-2.79-1.48-4.24-.05-.14-.07-.29-.06-.44,0-.15.05-.29.12-.42.07-.13.16-.25.27-.35.11-.1.25-.17.39-.21.14-.04.29-.06.44-.04.15.02.29.06.42.14.13.07.24.17.33.29.09.12.15.25.19.4.42,1.37.89,2.75,1.42,4.06.1.27.09.57-.02.84-.12.27-.33.48-.6.58-.12.06-.25.09-.38.1h-.02ZM133.87,89.37c-.25,0-.5-.09-.69-.25-.2-.16-.33-.38-.38-.63-.31-1.44-.56-2.92-.76-4.41-.02-.28.07-.55.25-.77.18-.21.43-.35.7-.39.28-.04.56.03.78.2.23.16.38.4.44.68.19,1.43.44,2.85.74,4.25.06.28,0,.58-.15.82-.16.24-.41.42-.69.47l-.23.02ZM132.67,80.68c-.28,0-.55-.11-.75-.3-.2-.19-.33-.45-.34-.73,0-1.19-.1-2.39-.1-3.58v-.92c.01-.29.14-.56.35-.76.21-.2.49-.31.78-.31.14,0,.29.03.42.08.13.06.25.14.35.24.1.1.18.23.23.36.05.13.08.28.07.42v.88c0,1.19,0,2.29.1,3.42.01.15,0,.29-.05.43-.05.14-.12.27-.21.38-.1.11-.21.2-.34.27-.13.07-.27.11-.42.12h-.07Z"/><path class="d" d="M143.68,40.73l-6.56,28.52-71.66-15.38,78.23-13.14Z"/><path class="h" d="M143.68,40.73l-6.56,28.52-71.66-15.38,78.23-13.14Z"/><path class="d" d="M65.45,53.86l89.23-2.39,20.96,32.31-110.19-29.93Z"/><path class="d" d="M65.45,53.86l78.23-13.14-18.44-21.38-59.79,34.52Z"/></svg>
