<?xml version="1.0" encoding="UTF-8"?><svg id="a" xmlns="http://www.w3.org/2000/svg" viewBox="0 0 566.93 566.93"><defs><style>.b{fill:#e30613;}.b,.c,.d,.e,.f,.g,.h,.i,.j,.k,.l,.m,.n{stroke-width:0px;}.d{fill:#6f4439;}.e{fill:#fff;}.f{fill:#09f;}.g{fill:#202020;}.h{fill:#263238;}.o{opacity:.3;}.i{fill:#d1734a;}.j{fill:#ff9a6c;}.k{fill:#455a64;}.l{fill:#cc8640;}.m{fill:#ffbf9d;}.n{fill:#e89842;}</style></defs><path class="c" d="M485.15,566.93c1.16-6.64,2.13-13.27,2.86-19.89l-19.69-1.75c13.13-2.01,24.29-11.57,31.36-22.93,7.06-11.36,10.68-24.44,14.22-37.33l-24.07,3.57c19.04-12.77,32.41-32.39,37.35-54.77-25.44,13.13-44.97,35.86-59.08,60.85-12.83,22.72-21.41,47.54-29.59,72.25h46.64Z"/><path class="g" d="M223.95,24.18c0-1.62-.04-1.04-.05-1.28,0,2.7.06,1.21.05,1.28Z"/><polygon class="g" points="224.04 50.86 224.03 50.39 224.07 54.32 224.04 50.86"/><path class="g" d="M224.04,75.81c.07-2.36-.01-9.04.01-13.49l.02-.73-.06-2.01c0,5.4.02,12.42.03,16.22Z"/><path class="g" d="M223.89,89.11c.03-.82.02,2.88,0-3.1,0,.3,0,.39,0,.56,0,.54,0,1.28,0,2.54Z"/><path class="g" d="M223.89,86.57c0-2.63-.02,1.72,0,0h0Z"/><path class="g" d="M223.9,98.71l-.02-3.46c-.02.72-.02,3.8-.03,2.66.01,3.55.03,2.82.06.8Z"/><path class="g" d="M223.96,101.99v-1.79c-.02.31-.02.79,0,1.79Z"/><path class="g" d="M223.92,96.39l.02,3.8c.01-.5.03-.55,0-1.75.02.31,0-.44-.01-2.06Z"/><path class="g" d="M223.94,94.24c.02-1.94.03-4.45.05-.98,0-6.62-.06-5.65-.05.98Z"/><path class="g" d="M224.12,77.08l.02-2.6-.02-2.25c.01,1.12-.02,5,0,4.84Z"/><path class="g" d="M223.87,120.27c.02.22.04-1.16.06-1.42l-.02-2.56c-.01,1.31-.02,3.8-.04,3.98Z"/><path class="g" d="M223.93,118.85l.03,3.83c0-3.42,0-4.04-.03-3.83Z"/><polygon class="g" points="224.04 102.61 223.98 96.32 224.04 103.82 224.04 102.61"/><polygon class="g" points="223.87 134.88 223.83 132.71 223.88 136.57 223.87 134.88"/><path class="g" d="M223.87,144.57c-.03-1.6-.05,2.2-.07.5.02,2.62.04,4.87.05,6.9,0-2.15,0-4.44.01-7.41Z"/><path class="g" d="M223.89,155.37c-.01-1.07-.02-2.19-.03-3.4.01,1.14.02,2.26.03,3.4Z"/><path class="g" d="M223.95,129.19c0,.3-.03.87-.04,3.01l.04-1.5c0-.46,0-.98,0-1.51Z"/><path class="g" d="M223.95,130.64v.05c0,1.63,0,2.77,0,3.25,0-.42,0-1.41,0-3.3Z"/><path class="g" d="M223.95,128.81c0,.14,0,.24,0,.38,0-.14,0-.23,0-.38Z"/><path class="g" d="M224,112.63c.02,2.25.05,6.93.09,2.4-.03-1.61-.05.98-.09-2.4Z"/><path class="g" d="M224,126.94v-4.06c0,.08-.02.81-.03-.3l.03,4.36Z"/><polygon class="g" points="224.01 128.93 224 126.94 224 128.45 224.01 128.93"/><path class="g" d="M223.93,148.41c0,1.76.01,3.68.02,5.84,0-2.33,0-4.73.01-7.01-.01-.32-.04-1.32-.04,1.17Z"/><path class="g" d="M223.94,139.78c0,.12,0,.28,0,.39,0-.24,0-.43,0-.39Z"/><path class="g" d="M223.95,175.6c0-.12,0-.22,0-.34,0-.03,0-.05,0-.08v.42Z"/><path class="g" d="M223.97,146.86c0-1.75-.01-2.78-.02-3.79,0,1.31,0,2.69,0,4.18,0,.14.01.17,0-.39Z"/><path class="g" d="M223.91,161.33c0-.91.01-1.94.02-3.03-.01.89-.03,2.7-.02,3.03Z"/><path class="g" d="M223.93,140.75c0-.09,0-.17,0-.26,0,.57,0,.5,0,.26Z"/><path class="g" d="M223.93,140.75c0,.9.02,1.6.03,2.32,0-1.06-.01-2.05-.01-2.9,0,.21,0,.43-.01.59Z"/><path class="g" d="M224.23,182.07c-.04-.31-.08-4.9-.03-8.87-.03-3.9-.16-1.35-.23,2.06.02.12.03.12.06,4.14.02-1.41.05-8.91.09-5.52.02,5.32-.01,4.36-.03,6.94.05-2.2.07,6.77.14,5.61l-.03-4.66c.01-.09.03,1.6.04.31Z"/><path class="g" d="M223.97,167.61v-1.65c-.02,1.88-.04,3.22-.06,5.71.02,2.75.03,3.32.05,3.51v-8.14s.01.57.01.57Z"/><path class="g" d="M223.96,158.54c.04,1.29.06,5.26.11,2.83,0-4.85-.04-3.4-.05-6.29.01,7.82-.02-2.25-.05,3.41,0-1.54,0-2.92-.01-4.23,0,1.41-.01,2.77-.02,4.05,0-.07,0-.12,0-.18v-.04h0c0-.33,0-.44,0-.06,0,.03,0,.12,0,.16,0,.07,0,.2.02.35,0,2.27-.01.36-.02-.35,0-.03,0-.08,0-.1,0,0,0,.02,0,.03l.02,7.84c0-1.66,0-3.74,0-7.42Z"/><path class="g" d="M224.18,119.21c0,.24,0,.23-.01.25,0,.51,0,.7.01-.25Z"/><path class="g" d="M224.15,122.44c0-.57,0-1.05-.02-2.9.01-1.61.02,0,.03-.08-.01-1.12-.03-3.91-.05-.41v.55c0,3.16-.06,7.21-.07,6.66.04-.92.07-1.73.1-3.83Z"/><path class="g" d="M224.07,140.71l.02,6.53.04-3.32-.02.17c0-3.71-.02-2.91-.04-3.37Z"/><polygon class="g" points="223.93 176.35 223.89 175.48 223.95 179.25 223.93 176.35"/><polygon class="g" points="223.94 184.83 223.9 184.52 223.92 186.76 223.94 184.83"/><path class="g" d="M17.81,270.98v-1.92c0,.91,0,1.49,0,1.92Z"/><path class="g" d="M17.8,284.86l.02.34c-.01-.64-.02-.91-.02-.34Z"/><path class="g" d="M195.2,363.88c-2.79-.04-5.91-.09-5.58-.05l.86.04c1.95,0,3.44,0,4.72,0Z"/><path class="g" d="M52.54,364.14c.27,0,.54,0,.82.01.68-.01,1.32-.03,1.89-.04-.81,0-1.74.02-2.7.03Z"/><path class="g" d="M50.57,364.32l-3.68-.03c.83,0,2.01.02,3.68.03Z"/><path class="g" d="M17.76,195.16l-.04-2.24c0,3.5.02,1.96.04,2.24Z"/><path class="g" d="M223.95,271.69c-.01,2.41-.02,4.33-.03,6.01.02-2.9.06-5.25.03-6.01Z"/><path class="g" d="M18.27,276.44c0-1.17-.02-1.67-.03-1.64,0,1.21.02,1.89.03,1.64Z"/><path class="g" d="M223.93,284.67c0-.43,0-.84.01-1.27,0-1.76,0-3.54-.01-5.69-.02,2.14-.03,4.6,0,6.96Z"/><path class="g" d="M120.78,22.65c.2,0,.44,0,.62,0,.06,0-.22,0-.62,0Z"/><path class="g" d="M200.9,23.09c-.79,0-2.08,0-3.29,0,.59,0,1.58,0,3.29,0Z"/><path class="g" d="M223.92,218.96c0-1.8,0-.29,0,0h0Z"/><path class="g" d="M224.09,210.21c0,.38.01.67.02.72-.01-.15-.02-.4-.02-.72Z"/><path class="g" d="M224.2,302.59v.16c0-.53,0-.44,0-.16Z"/><path class="g" d="M223.94,216.25c0,.68,0,1.45-.01,2.3,0-.37,0-1.07.01-2.3Z"/><path class="g" d="M223.92,216.61c0-.62,0-1.11,0-1.57,0-.23-.01-.03,0,1.57Z"/><path class="g" d="M223.92,221.46c0-1.03,0-1.99,0-2.91,0,.35,0,.5,0,.41,0,.53,0,1.27,0,2.51Z"/><path class="g" d="M17.91,67.5c0-.12,0-.26,0-.39-.02-1.81-.02-1.02,0,.39Z"/><path class="g" d="M148.38,364.33c.08,0,.13,0,.21,0-.08,0-.19,0-.27,0h.06Z"/><path class="g" d="M141.92,364.36c2.75-.05,4.32-.05,6.4-.04l-2.14-.12-4.26.16Z"/><path class="g" d="M17.79,237.74l-.04,4.54c-.06-5.48-.04-9.44-.1-5.18.14.64.01,17.64.15,18.27l-.03,2.99c0-.86,0-.99,0-1.84-.06,5.82.1,4.32.08,11.82-.01,2.61-.03,4.43-.05,2.65l.03,5.82c0,1.69-.03,1.28-.02-.41v8.88s0-.07,0-.07c.02,1.27.05,4.14.07,5.54-.02,2.26-.01-1.13-.03-.55l.03,4.92c-.04,2-.07-2.07-.06-5.47-.14,4.59.03,4.08-.04,13.98l-.02-4.64c-.08,2.99-.05,6.61-.1,11.86.03-1.24.12-10.5.15-5.17-.01,1.5-.01,3.48.01,6.36-.01,0-.02.19-.03.51,0,.33,0,.79,0,1.36,0,1.15,0,2.73,0,4.48l-.06-.24c.02,3.8.05,3.5.08,5.74,0,4.24-.06,5.11-.1,6.11-.01,6.78.08-4.69.09,3.35-.02,5.64,0,9.6.04,16.35-.02,3.95-.04-.69-.06.73l.05,3.5c0,.86-.02.58-.02.44.02,2.95.06.24.08,4.88.02.27.02.89.02,1.73,0,.89-.01,2.02-.02,3.3,1.61.01,3.45.02,5.3.04,1.8,0,3.6-.01,5.22-.02,1.41.02-.68.04-.25.06,7.87-.06,6.73-.06,13.22-.11l5.51.04c-4.05-.05,1.12-.1,5.65-.15-1.44-.02-2.67-.04-3.49-.05l7.23-.03c.87.01.14.03-1.04.06.49,0,.96-.01,1.32-.02,2.58.02,1.24.06-.61.1-.88-.01-1.75-.03-2.6-.04-1.78.04-3.46.08-3.08.12.47,0,1.38-.01,2.37-.02-.47.01-.77.02-.55.03.25,0,1-.01,2.18-.02l1.64.07.4-.03,9.46.04c6.77-.07,12.65-.18,23.39-.21-2.66.05-.57.09-.72.15-2.93-.07-8.32.03-13.88.01,2.9,0,2.27.04,1.53.05l9.93-.06c-.22.05,2.11.04,4.7.06-1.96-.1,7.4-.07,11.44-.1.25.03-.72.07-5.65.06,5.44.08,7.03-.12,12.36-.05-1.2,0-1.85,0-2.33.01,2.81-.03,9.68,0,8.06.02h-1.2c7.99.01,24.32,0,25.51-.08.08.01-1.05.1-1.53.12l14.25-.29c-1.26.07,3.56.25-3.06.29,1.9,0,4.25,0,8.26,0-1.3-.01-3.23-.11-1.46-.11,4.9.06,3.38.04,9.38.11-1.95-.02.22-.13,3.29-.13-.48.02.26.11-.87.12l7.65-.11c-1.91.02-.34.1,1.37.13-.79-.02,6.61,0,8.65,0l-3.24-.03c8.64.02,8.53-.16,17.1-.15-1.04.02-2.56.14,1.8.16,2-.06,8.84-.28,16.42-.32l1.45.03,5.65-.04h0s0,0,0,0c-3.64.06-13.71.24-19.17.34,3.23.03.9.04,5.74.04,1.71.03-2.64.05-4.06.05l11.27.02c-.17-.02.8-.04,2.13-.05,1.39-.01,3.15-.02,4.46-.03,0-.67-.01-1.23-.02-1.61,0-.33-.01-.49-.02-.42v2.01s-10.59.06-10.59.06c-.2-.03.9-.06,2.8-.1,1.94-.02,4.66-.05,7.7-.08,0-1.5,0-3.1,0-4.72.03-2.03.12,1.52.14,1.35-.02-1.04-.04-7.58-.03-8.31l.04,3.39c.03-4.45-.09-7.25-.02-12.6,0-1.84.09-5.51.05-5.82-.08,3.01-.31,3.59-.37,1.59,0-.65.09-9.66.11-11.79.06-3.04.14,4.56.2,1.97-.02-.11-.04-1.79-.05-2.49.02-1.94.06.8.05-3.41-.07-.7,0-8.56-.06-1.99,0-4.12,0-4.38.01-9.21-.04,1.54-.15-4.34-.17-8.46.02.24.04-.68.05-1.13.02-8.44.02-12.97.04-20.83.02-.73.04-4.52.07-2.9,0-1.13-.02-2.18-.04-4.6.06-4.7,0,5.41.08,1.83-.04-.31-.05-6.28-.08-9.73-.06,1.06-.01,7.99.01,11.45-.02,0-.04-.37-.06-1.06-.01-.71-.03-1.71-.06-2.97-.02-2.55-.05-6.11-.09-10.21-.02-6.53.05-2.83.04-3.97.01-12.27-.15-10.46-.09-20.65.05-4.04.11-.18.15-1.08-.01,5.32-.02,8.18-.03,11.78l.03-4.44c0,1.7.01,5.24.02,7.18,0-3.42.04-20.73.05-30.21-.02-1.68-.04-4.59-.06-3.21v3c-.04,2.75-.05-5.64-.07-1.85-.03-4.02-.08-8.53-.05-14.18l.06-1.06c-.02.12-.04,3.7-.02,5.29-.03-2.36.08-8.68,0-11.26l-.04,3.97c-.03-4.04-.1-9.02-.08-14.04-.03,2.33-.02,1.13-.06,4.72.09-3.09,0,12.83.09,7.87-.08,3.66-.03,6.33-.1,11.11.02-.15.04-1.69.03,2.52,0,.2.01.64.02.92,0,.13,0,.17,0,.28,0-.08,0-.15,0-.23,0,.18,0,.2,0-.09.01-1,.03-1.8.03-2.14.01,2.14.05,8.78.07,11.05,0,2.5-.02-1.04-.04.32l.04,3.38c-.04.33-.07,6.64-.1.75v5.3c-.03,3.12-.04,7.41-.02,10.05,0,2.5.05,6.31.01,4.13l.03,8.31v.08c-.02,8.2.06,16.87-.02,26.24,0,2.76,0,5.61.01,10.23l-.04.9c.01,3.54-.04,10.64,0,12.16-.1,3.82-.02,17.19-.04,23.42l.05.24c.01,4.29.02,8.4.03,13.72l.04-.33c0,4.6-.02,11.8-.03,19.06-.02-.49-.01-2.33,0-3.64-.01,1.55-.02,3.12-.03,4.71-3.54.01-7.16.02-10.67.03-3.59.02-7.08.03-10.27,0-1.96,0-3.38,0-4.75,0,.18,0,.35,0,.49,0-.2,0-.5,0-.81,0-.87,0-1.76-.02-2.72-.02.82,0,1.61.02,2.29.02-1.51,0-3.8.01-6.05.02l-.96-.05c-.18,0-.33,0-.52,0-2.21-.02-1.77.02-.6.06-1.13.01-2.16.02-2.97.03-1.79-.08-5.9.03-8.34-.06-1.51.04-11.3.03-12.5.12-.08-.01-.74-.02.47-.02-2.51,0-5,0-7.26,0l-1.06-.06-5.47.08c-3.32-.04-4.7-.06-1.4-.11-7.98.06-6.45.05-13.24.1l.33-.04c-2.42,0-6.29.05-7.76.02-5.47-.01-26.8-.05-40.72-.08,2.7.12-6.47-.05-7.02.04-.81-.03-2.75-.04-.5-.07-7.1.03-10.67-.04-15.57.03-.81-.03,1.52-.04.8-.06-.57,0-2.25.02-2.99,0-.72-.02,1.04-.02,2.16-.04-7.25,0-7.98.09-8.51.17-3.67-.04-5.51-.03-8.16.02-1.28-.03-3.41-.05,1.09-.06-1.27,0-5.14,0-8.73-.01-1.79,0-3.51,0-4.81,0-1.29,0-2.15.02-2.21.03-.81,0-3.54,0-4.21,0-5.69,0-6.19,0-11.77,0h1.55c-.4.02-.8.03-1.21.04-.39,0-.8,0-1.23.01,0-1.65,0-3.67.01-6.54v.13c.03-10.33.02-4.45.04-14.64l-.05.55c-.1-.95.06-9.02.02-14.94l-.03,2.13c-.04-3.23.14-9.02.15-12.27,0-.71.01,1.12.02,2.1.06-8.49-.06-1.1-.08-7.43.03-1.17.09,1.5.09-2.75.03-2.12-.11-12.35-.04-18.16-.03,1.28-.05,2.55-.07-.39,0-4.5.1-12.18.02-16.24,0-.57.01-.79.02-.81-.02-3.44-.07-11.14-.08-13.26.08-1.59.06-6.94.04-11.88,0-2.47-.02-4.84-.02-6.59,0-.87,0-1.59.01-2.09,0-.5.02-.77.04-.76v-10.59s0,.28,0,.28c.01-6.77-.03-9.16-.06-11.54.01-1.56.02-.42.03-.29.03-9.89.02-10.87-.05-19.16l.05-.86c-.03-2.25.08-14.3.02-24,0,.09.02.3.02,1.07-.06-10.91.14-26.13-.04-30.13l-.04-7.2c-.01,9.32-.08-1.39-.11,2.45-.01-3.66.05-9.47.06-4.97v.7c.08,1.65.02-11.58.09-11.33.02-18.33.04-36.2.05-53.38l-.07,1.98v-5.99c.02-1.57.06-2.11.06,2.16.02-1.12.01-2.92,0-4.44-.02-1.51-.05-2.75-.05-2.85.03-8.37.08,3.27.09.7v-3.48s-.01.79-.01.79c-.03-2.82-.06-3.08-.06-8.21.01-3.25.04-1.67.05-2.95,0,0,0-.42,0-1.96v-7.55s-.05,3.02-.05,3.02c-.03-3.35,0-7.1-.06-3.61,0-1.27.03-3.59.05-6.42,0-2.8,0-6.11.01-9.38,6.87,0,13.58,0,15.17,0,4.7-.01,9.31-.02,15.04-.04-1.42-.01-2.28-.08,2.66-.07-1.81.13,9.05.06,13.04.15-3.57-.06,14.05-.02,8.45-.11,4.12.01.25.05,3.38.08,9.83,0,21.63.01,33.76.02.19-.02-1.84-.04.76-.07l6.4.09c2.4,0,2.21-.1,6.58-.04-.62-.01-1.54-.04.07-.04,23.76.09,48.56-.07,72.69.09-3.27-.03-1.09-.04,1.41-.04-1.62,0,.04-.04-.28-.07l10.1.07c1.84-.07,10.83,0,11.89-.07h-3.2c4.25-.06-5.95-.15-5.33-.25-4.76.08-12.56-.13-20.38,0-1.73-.02,1.47-.03.55-.05-1.98.04-4.37.05-8.81.03h.5c-12.45-.03-17.8-.04-31.79-.07l1.04.05c-3-.02-3.64-.02-5.05-.03-3.45.07,8.45,0,5.3.08-3.99-.1-21.21,0-23.9-.11-4.63,0,1.36.05-3.27.05l-1.23-.03-1.17.04c-3.03,0-4.56-.04-4.68-.07.74,0,2.09,0,2.88,0-3.95,0-11.09,0-12.44,0l4.45.02c-12.63.02-28.03.03-40.24.05l.93.02c-9.32,0-7.46,0-17.69,0h.37c-2.06,0-4.78.01-7.58.03,2.58-.03-4.86-.05-1.47-.08-10.1.04-5,.03-11.67.12l-1.54-.04c-2.27.03-2.46.05-7.57.06,4.19-.03-3.26-.06,1.43-.1-3.97,0-7.18-.01-9.91-.02,0,2.44.02,4.5.02,6.34,0,1.8,0,3.39-.04,4.96.1,4.92.06-9.28.08-6.52.03-2.31.08,4.06.07,7.43,0,3.42-.13,5.82-.13,14.43,0-.86,0-.92,0-1.77,0,3.23,0,6.3,0,10.27.06,2.22,0,5.13.08,5.77l-.02-7.9c.02,4.48.11,8.68.07,16.06,0-.59-.03-2.78-.05-4.28,0,2.17,0,4.14,0,6.39-.08-.64-.02-9.6-.08-14.4-.03,2.32.06,9.08-.03,6.67.11,3.47-.01,8.49.07,14.32l-.05-.38c0,.92.02,2.84.03,4.53l-.06-3.08c.05,4.72-.05,9.1-.02,13.63,0-9.48.06-2.13.09-6.14.06,11.7-.12,6.73-.1,19.82,0-1.77.03-6.66.05-3.88-.02,2.49-.04,5.77-.05,7.32,0,8.68.05-1.33.08,2.36-.06,2.95.02,4.26.04,8.06l-.05.03c-.03,9.89.1,2.62.06,11.52l-.07-3.76.02,4.64-.05-.96c.04,5.05.03,6.62.01,11.57.03-1.15.09.65.09,5.03-.03,2.99-.05-1.67-.04,4.53-.03-1.4-.07-2.94-.02-5.64,0-.31-.04-1.35-.05-1.67,0,3.23,0,8.08,0,10.33,0-.86,0-1.9.01-2.43l.07,9c-.02,1.42-.03.29-.05-.82,0,1.82.02,3.09.03,5.76-.04-.69-.08-.53-.1-4.32l.04,8.57c-.02.57-.05,4.4-.06,3.29.01,4.76.03,11.66.05,17.96,0,.33,0,.99.02,2.32,0,5.92-.06,11.17,0,18.19l-.07,3.98c.02,5.5.09-5.39.12,3.76.02,6.48-.06,2.42-.08,4.69.04,3.22.11,8.83.05,14.78,0-1.98,0-3.52,0-5.36ZM17.82,305.54c0-1.31-.04-3.93-.01-4.89.06,1.5.03,2.65.01,4.89ZM62.52,364.23c-.98.02-2.49,0-4.19-.01,1.24,0,2.63,0,4.19.01ZM223.96,238.67c0,.06,0,.09,0,.14-.02,2.93-.01,1.89,0-.14ZM223.98,232.59c0-.61-.01-.57-.02-.31,0,.44,0,1.79,0,3.35.01-.43.02-1.22.01-3.04ZM18.24,48.29v1.18c-.03-2.67-.01-1.93,0-1.18Z"/><path class="g" d="M50.84,364.3c-.37,0-.47-.02-.56-.03-.52,0-.53.02.56.03Z"/><path class="g" d="M17.77,195.57v-.21c0-.11,0-.17,0-.21v.41Z"/><path class="g" d="M224.39,326.85c-.01,1.25-.02,1.95-.02,2.42.01.07.02-.5.02-2.42Z"/><path class="g" d="M223.9,200.34v3.9c.02-1.88.02-2.56.03-3.51-.01.09-.03.83-.03-.39Z"/><path class="g" d="M224.2,166.5c0-.57,0-1.21,0-1.77l-.02.16c0,2.43.02,4.12.03,1.61Z"/><path class="g" d="M224.06,196.73c.04-.31.03-2.75.02-5.48v.48c-.06-.8-.04,2.1-.02,5Z"/><path class="g" d="M224.07,190.61c0-.84,0-1.7,0-2.52-.02-.32,0,1.02,0,2.52Z"/><path class="g" d="M223.95,224.87c.01-1.29-.05-.81-.04-1.55-.05-1.45.06,8.63.04,1.55Z"/><polygon class="g" points="224.19 194.52 224.14 195.5 224.18 197.03 224.19 194.52"/><path class="g" d="M224.15,216.08v-4.36c0,.07,0-.49,0-1.17,0,1.34,0,2.75,0,3.81,0,1.06,0,1.77,0,1.72Z"/><path class="g" d="M224.15,210.55c0-1.4,0-2.73,0-3.51,0,.76,0,2.39,0,3.51Z"/><polygon class="g" points="224.21 200.48 224.2 201.77 224.19 204.85 224.21 200.48"/><path class="g" d="M224.14,262.98v4.76c.03.49.04-.81.04-2.59-.01-1.14-.02-2.91-.04-2.18Z"/><path class="g" d="M224.28,248.58c-.02,1.27-.02,1.37-.04,2.1l.06.14-.02-2.25Z"/><path class="g" d="M224.3,262.47c.02.47.05,6.91.05.88-.02-.48-.03-5.25-.05-.88Z"/><polygon class="g" points="224.22 334.22 224.22 333.01 224.11 333.18 224.22 334.22"/><path class="g" d="M190.86,364.4c5.64.02,1.34-.06,6.44-.03,1.32-.02-4.17-.02-2.81-.05-3.41.03-5.19.01-3.63.08Z"/><path class="g" d="M194.49,364.32c.55,0,1.12-.01,1.74-.02-.98,0-1.45.01-1.74.02Z"/><polygon class="g" points="214.19 23.14 217.82 23.17 215.48 23.13 214.19 23.14"/><path class="g" d="M221.16,23.07l.85.06,2.18-.06c-.82,0-2.4,0-3.03,0Z"/><path class="g" d="M17.69,315.62l.02.28c.02-.56.02-1.41.02-3.11l-.04,2.84Z"/><polygon class="g" points="17.74 266.41 17.74 267.26 17.8 265.67 17.74 266.41"/><path class="g" d="M17.67,225.11c0,1.69,0,3.67,0,5.36-.01-3.67.07-5.82,0-5.36Z"/><path class="g" d="M217.1,24.18c0-1.62-.04-1.04-.05-1.28,0,2.7.06,1.21.05,1.28Z"/><polygon class="g" points="217.2 50.86 217.18 50.39 217.22 54.32 217.2 50.86"/><path class="g" d="M217.19,75.81c.07-2.36-.01-9.04.01-13.49l.02-.73-.06-2.01c0,5.4.02,12.42.03,16.22Z"/><path class="g" d="M217.04,89.11c.03-.82.02,2.88,0-3.1,0,.3,0,.39,0,.56,0,.54,0,1.28,0,2.54Z"/><path class="g" d="M217.04,86.57c0-2.63-.02,1.72,0,0h0Z"/><path class="g" d="M217.06,98.71l-.02-3.46c-.02.72-.02,3.8-.03,2.66.01,3.55.03,2.82.06.8Z"/><path class="g" d="M217.11,101.99v-1.79c-.02.31-.02.79,0,1.79Z"/><path class="g" d="M217.08,96.39l.02,3.8c.01-.5.03-.55,0-1.75.02.31,0-.44-.01-2.06Z"/><path class="g" d="M217.09,94.24c.02-1.94.03-4.45.05-.98,0-6.62-.06-5.65-.05.98Z"/><path class="g" d="M217.27,77.08l.02-2.6-.02-2.25c.01,1.12-.02,5,0,4.84Z"/><path class="g" d="M217.02,120.27c.02.22.04-1.16.06-1.42l-.02-2.56c-.01,1.31-.02,3.8-.04,3.98Z"/><path class="g" d="M217.08,118.85l.03,3.83c0-3.42,0-4.04-.03-3.83Z"/><polygon class="g" points="217.19 102.61 217.13 96.32 217.19 103.82 217.19 102.61"/><polygon class="g" points="217.02 134.88 216.98 132.71 217.04 136.57 217.02 134.88"/><path class="g" d="M217.03,144.57c-.03-1.6-.05,2.2-.07.5.02,2.62.04,4.87.05,6.9,0-2.15,0-4.44.01-7.41Z"/><path class="g" d="M217.04,155.37c-.01-1.07-.02-2.19-.03-3.4.01,1.14.02,2.26.03,3.4Z"/><path class="g" d="M217.1,129.19c0,.3-.03.87-.04,3.01l.04-1.5c0-.46,0-.98,0-1.51Z"/><path class="g" d="M217.1,130.64v.05c0,1.63,0,2.77,0,3.25,0-.42,0-1.41,0-3.3Z"/><path class="g" d="M217.1,128.81v.38c0-.14,0-.23,0-.38Z"/><path class="g" d="M217.15,112.63c.02,2.25.05,6.93.09,2.4-.03-1.61-.05.98-.09-2.4Z"/><path class="g" d="M217.15,126.94v-4.06c0,.08-.02.81-.03-.3l.03,4.36Z"/><polygon class="g" points="217.17 128.93 217.15 126.94 217.15 128.45 217.17 128.93"/><path class="g" d="M217.08,148.41c0,1.76.01,3.68.02,5.84,0-2.33,0-4.73.01-7.01-.01-.32-.04-1.32-.04,1.17Z"/><path class="g" d="M217.1,139.78c0,.12,0,.28,0,.39,0-.24,0-.43,0-.39Z"/><path class="g" d="M217.11,175.6c0-.12,0-.22,0-.34,0-.03,0-.05,0-.08v.42Z"/><path class="g" d="M217.13,146.86c0-1.75-.01-2.78-.02-3.79,0,1.31,0,2.69,0,4.18,0,.14,0,.17,0-.39Z"/><path class="g" d="M217.06,161.33c0-.91.02-1.94.02-3.03-.01.89-.03,2.7-.02,3.03Z"/><path class="g" d="M217.09,140.75c0-.09,0-.17,0-.26,0,.57,0,.5,0,.26Z"/><path class="g" d="M217.09,140.75c.01.9.02,1.6.03,2.32,0-1.06-.01-2.05-.01-2.9,0,.21,0,.43-.01.59Z"/><path class="g" d="M217.38,182.07c-.04-.31-.08-4.9-.03-8.87-.03-3.9-.16-1.35-.23,2.06.02.12.03.12.06,4.14.02-1.41.05-8.91.09-5.52.02,5.32-.01,4.36-.04,6.94.05-2.2.07,6.77.14,5.61l-.03-4.66c.01-.09.03,1.6.04.31Z"/><path class="g" d="M217.12,167.61v-1.65c-.02,1.88-.04,3.22-.06,5.71.02,2.75.03,3.32.05,3.51v-8.14s.01.57.01.57Z"/><path class="g" d="M217.11,158.54c.04,1.29.06,5.26.11,2.83,0-4.85-.04-3.4-.05-6.29.01,7.82-.02-2.25-.05,3.41,0-1.54,0-2.92-.01-4.23,0,1.41-.01,2.77-.02,4.05,0-.07,0-.12,0-.18v-.04s0,0,0,0c0-.34,0-.45,0-.07,0,.03,0,.12,0,.16,0,.07,0,.2.02.35,0,2.27-.01.36-.02-.35,0-.03,0-.08,0-.1,0,0,0,.02,0,.03l.02,7.84v-7.42Z"/><path class="g" d="M217.33,119.21c0,.24,0,.23,0,.25,0,.51,0,.7,0-.25Z"/><path class="g" d="M217.3,122.44c0-.57,0-1.05-.02-2.9.01-1.61.02,0,.03-.08-.01-1.12-.03-3.91-.05-.41v.55c0,3.16-.06,7.21-.07,6.66.04-.92.07-1.73.1-3.83Z"/><path class="g" d="M217.22,140.71l.02,6.53.04-3.32-.02.17c0-3.71-.02-2.91-.04-3.37Z"/><polygon class="g" points="217.08 176.35 217.04 175.48 217.1 179.25 217.08 176.35"/><polygon class="g" points="217.09 184.83 217.05 184.52 217.07 186.76 217.09 184.83"/><path class="g" d="M10.96,270.98v-1.92c0,.91,0,1.49,0,1.92Z"/><path class="g" d="M10.96,284.86l.02.34c-.01-.64-.02-.91-.02-.34Z"/><path class="g" d="M188.35,363.88c-2.79-.04-5.91-.09-5.58-.05l.86.04c1.95,0,3.44,0,4.72,0Z"/><path class="g" d="M45.7,364.14c.27,0,.54,0,.82.01.68-.01,1.32-.03,1.89-.04-.81,0-1.74.02-2.7.03Z"/><path class="g" d="M43.73,364.32l-3.68-.03c.83,0,2.01.02,3.68.03Z"/><path class="g" d="M10.91,195.16l-.04-2.24c0,3.5.02,1.96.04,2.24Z"/><path class="g" d="M217.11,271.69c-.01,2.41-.02,4.33-.03,6.01.02-2.9.06-5.25.03-6.01Z"/><path class="g" d="M11.42,276.44c0-1.17-.02-1.67-.03-1.64,0,1.21.02,1.89.03,1.64Z"/><path class="g" d="M217.08,284.67c0-.43,0-.84,0-1.27,0-1.76,0-3.54-.01-5.69-.02,2.14-.03,4.6,0,6.96Z"/><path class="g" d="M113.94,22.65c.2,0,.44,0,.62,0,.06,0-.22,0-.62,0Z"/><path class="g" d="M194.05,23.09c-.79,0-2.08,0-3.29,0,.59,0,1.58,0,3.29,0Z"/><path class="g" d="M217.07,218.96c0-1.8,0-.29,0,0h0Z"/><path class="g" d="M217.24,210.21c0,.38.01.67.02.72-.01-.15-.02-.4-.02-.72Z"/><path class="g" d="M217.35,302.59c0,.05,0,.1,0,.16,0-.53,0-.44,0-.16Z"/><path class="g" d="M217.09,216.25c0,.68,0,1.45-.01,2.3,0-.37,0-1.07.01-2.3Z"/><path class="g" d="M217.07,216.61c0-.62,0-1.11,0-1.57,0-.23-.01-.03,0,1.57Z"/><path class="g" d="M217.07,221.46c0-1.03,0-1.99,0-2.91,0,.35,0,.5,0,.41,0,.53,0,1.27,0,2.51Z"/><path class="g" d="M11.07,67.5c0-.12,0-.26,0-.39-.02-1.81-.02-1.02,0,.39Z"/><path class="g" d="M141.53,364.33c.08,0,.13,0,.21,0-.08,0-.19,0-.27,0h.06Z"/><path class="g" d="M135.07,364.36c2.75-.05,4.32-.05,6.4-.04l-2.14-.12-4.26.16Z"/><path class="g" d="M10.95,237.74l-.04,4.54c-.06-5.48-.04-9.44-.1-5.18.14.64.01,17.64.15,18.27l-.03,2.99c0-.86,0-.99,0-1.84-.06,5.82.1,4.32.08,11.82-.01,2.61-.03,4.43-.05,2.65l.03,5.82c0,1.69-.03,1.28-.02-.41v8.88s0-.07,0-.07c.02,1.27.05,4.14.07,5.54-.02,2.26-.01-1.13-.03-.55l.03,4.92c-.04,2-.07-2.07-.06-5.47-.14,4.59.03,4.08-.04,13.98l-.02-4.64c-.08,2.99-.05,6.61-.1,11.86.02-1.24.12-10.5.15-5.17-.01,1.5-.02,3.48.01,6.36-.01,0-.02.19-.03.51,0,.33,0,.79,0,1.36,0,1.15,0,2.73,0,4.48l-.06-.24c.02,3.8.05,3.5.08,5.74,0,4.24-.06,5.11-.1,6.11-.01,6.78.08-4.69.09,3.35-.02,5.64,0,9.6.04,16.35-.02,3.95-.04-.69-.06.73l.05,3.5c0,.86-.02.58-.02.44.02,2.95.06.24.08,4.88.02.27.02.89.02,1.73,0,.89-.01,2.02-.02,3.3,1.61.01,3.45.02,5.3.04,1.8,0,3.6-.01,5.22-.02,1.41.02-.68.04-.25.06,7.87-.06,6.73-.06,13.22-.11l5.51.04c-4.05-.05,1.12-.1,5.65-.15-1.44-.02-2.67-.04-3.49-.05l7.23-.03c.87.01.14.03-1.04.06.49,0,.96-.01,1.32-.02,2.58.02,1.24.06-.61.1-.88-.01-1.75-.03-2.6-.04-1.79.04-3.46.08-3.08.12.47,0,1.38-.01,2.37-.02-.47.01-.76.02-.55.03.25,0,1-.01,2.18-.02l1.64.07.4-.03,9.46.04c6.77-.07,12.65-.18,23.39-.21-2.66.05-.57.09-.72.15-2.93-.07-8.32.03-13.88.01,2.9,0,2.27.04,1.53.05l9.93-.06c-.22.05,2.11.04,4.7.06-1.96-.1,7.4-.07,11.44-.1.25.03-.72.07-5.65.06,5.44.08,7.03-.12,12.36-.05-1.2,0-1.85,0-2.33.01,2.81-.03,9.68,0,8.06.02h-1.2c7.99.01,24.32,0,25.51-.08.08.01-1.05.1-1.53.12l14.25-.29c-1.26.07,3.56.25-3.06.29,1.9,0,4.25,0,8.27,0-1.3-.01-3.23-.11-1.46-.11,4.9.06,3.38.04,9.38.11-1.94-.02.22-.13,3.29-.13-.48.02.26.11-.87.12l7.65-.11c-1.91.02-.34.1,1.37.13-.79-.02,6.61,0,8.65,0l-3.24-.03c8.64.02,8.53-.16,17.1-.15-1.04.02-2.56.14,1.8.16,2-.06,8.84-.28,16.42-.32l1.45.03,5.65-.04h0s0,0,0,0c-3.64.06-13.71.24-19.17.34,3.23.03.9.04,5.74.04,1.71.03-2.64.05-4.06.05l11.27.02c-.17-.02.8-.04,2.12-.05,1.39-.01,3.15-.02,4.46-.03,0-.67-.01-1.23-.02-1.61,0-.33-.01-.49-.02-.42v2.01s-10.59.06-10.59.06c-.2-.03.9-.06,2.8-.1,1.94-.02,4.66-.05,7.7-.08,0-1.5,0-3.1,0-4.72.03-2.03.12,1.52.14,1.35-.02-1.04-.04-7.58-.03-8.31l.04,3.39c.02-4.45-.09-7.25-.03-12.6,0-1.84.09-5.51.05-5.82-.08,3.01-.31,3.59-.37,1.59,0-.65.09-9.66.11-11.79.06-3.04.14,4.56.19,1.97-.02-.11-.04-1.79-.05-2.49.02-1.94.06.8.05-3.41-.07-.7,0-8.56-.06-1.99,0-4.12,0-4.38.01-9.21-.04,1.54-.15-4.34-.17-8.46.02.24.04-.68.05-1.13.02-8.44.02-12.97.04-20.83.02-.72.04-4.52.07-2.9,0-1.13-.02-2.18-.04-4.6.06-4.7,0,5.41.08,1.83-.04-.31-.05-6.28-.08-9.73-.06,1.06-.01,7.99.01,11.45-.02,0-.04-.37-.06-1.06-.01-.71-.03-1.71-.06-2.97-.02-2.55-.05-6.11-.09-10.21-.02-6.53.05-2.83.04-3.97.02-12.27-.15-10.46-.09-20.65.05-4.04.11-.18.15-1.08-.01,5.32-.02,8.18-.03,11.78l.03-4.44c0,1.7.01,5.24.02,7.18,0-3.42.04-20.73.05-30.21-.02-1.68-.04-4.59-.06-3.21v3c-.04,2.75-.05-5.64-.07-1.85-.03-4.02-.08-8.53-.05-14.18l.06-1.06c-.02.12-.04,3.7-.02,5.29-.03-2.36.08-8.68,0-11.26l-.04,3.97c-.03-4.04-.1-9.02-.08-14.04-.03,2.33-.02,1.13-.06,4.72.09-3.09,0,12.83.09,7.87-.08,3.66-.04,6.33-.1,11.11.02-.15.04-1.69.03,2.52,0,.2.01.64.02.92,0,.13,0,.17,0,.28,0-.08,0-.15,0-.23,0,.18,0,.2,0-.09.01-1,.03-1.8.03-2.14.01,2.14.06,8.78.07,11.05,0,2.5-.02-1.04-.04.32l.04,3.38c-.04.33-.07,6.64-.1.75v5.3c-.03,3.12-.04,7.41-.02,10.05,0,2.5.05,6.31.01,4.13l.03,8.31v.08c-.02,8.2.06,16.87-.02,26.24,0,2.76,0,5.61.01,10.23l-.04.9c.01,3.54-.04,10.64,0,12.16-.1,3.82-.02,17.19-.04,23.42l.05.24c0,4.29.02,8.4.03,13.72l.04-.33c0,4.6-.02,11.8-.03,19.06-.02-.49-.01-2.33,0-3.64-.01,1.55-.02,3.12-.03,4.71-3.54.01-7.16.02-10.67.03-3.59.02-7.08.03-10.27,0-1.96,0-3.38,0-4.75,0,.18,0,.35,0,.49,0-.2,0-.5,0-.8,0-.87,0-1.76-.02-2.72-.02.82,0,1.61.02,2.29.02-1.51,0-3.8.01-6.05.02l-.96-.05c-.18,0-.33,0-.52,0-2.21-.02-1.77.02-.6.06-1.13.01-2.16.02-2.97.03-1.79-.08-5.9.03-8.34-.06-1.52.04-11.3.03-12.5.12-.08-.01-.74-.02.47-.02-2.51,0-5,0-7.26,0l-1.06-.06-5.47.08c-3.32-.04-4.7-.06-1.4-.11-7.98.06-6.45.05-13.24.1l.33-.04c-2.42,0-6.29.05-7.76.02-5.47-.01-26.8-.05-40.72-.08,2.7.12-6.47-.05-7.02.04-.81-.03-2.75-.04-.5-.07-7.1.03-10.67-.04-15.57.03-.81-.03,1.52-.04.8-.06-.57,0-2.25.02-2.99,0-.72-.02,1.04-.02,2.16-.04-7.25,0-7.98.09-8.51.17-3.67-.04-5.51-.03-8.16.02-1.28-.03-3.41-.05,1.09-.06-1.27,0-5.14,0-8.73-.01-1.79,0-3.51,0-4.81,0-1.29,0-2.15.02-2.21.03-.81,0-3.54,0-4.21,0-5.69,0-6.19,0-11.77,0h1.55c-.4.02-.8.03-1.21.04-.39,0-.8,0-1.23.01,0-1.65,0-3.67.01-6.54v.13c.03-10.33.02-4.45.04-14.64l-.05.55c-.1-.95.06-9.02.02-14.94l-.03,2.13c-.04-3.23.14-9.02.15-12.27,0-.71.01,1.12.02,2.1.06-8.49-.06-1.1-.08-7.43.03-1.17.09,1.5.09-2.75.03-2.12-.11-12.35-.04-18.16-.03,1.28-.05,2.55-.07-.39,0-4.5.1-12.18.02-16.24,0-.57.01-.79.02-.81-.02-3.44-.07-11.14-.08-13.26.08-1.59.06-6.94.04-11.88,0-2.47-.02-4.84-.02-6.59,0-.87,0-1.59.01-2.09,0-.5.02-.77.04-.76v-10.59s0,.28,0,.28c.01-6.77-.03-9.16-.06-11.54.01-1.56.02-.42.03-.29.03-9.89.02-10.87-.05-19.17l.05-.86c-.03-2.25.08-14.3.02-24,0,.09.02.3.02,1.07-.06-10.91.14-26.13-.04-30.13l-.04-7.2c-.01,9.32-.08-1.39-.11,2.45-.01-3.66.05-9.47.06-4.97v.7c.08,1.65.02-11.58.09-11.33.02-18.33.03-36.2.05-53.38l-.07,1.98v-5.99c.02-1.57.06-2.11.06,2.16.02-1.12.01-2.92,0-4.44-.02-1.51-.04-2.75-.05-2.85.03-8.37.09,3.27.09.7v-3.48s-.01.79-.01.79c-.03-2.82-.06-3.07-.06-8.21.01-3.25.05-1.67.05-2.95,0,0,0-.42,0-1.96v-7.55s-.05,3.02-.05,3.02c-.03-3.35,0-7.1-.06-3.61,0-1.27.03-3.59.05-6.42,0-2.8,0-6.11.01-9.38,6.87,0,13.58,0,15.17,0,4.7-.01,9.31-.02,15.04-.04-1.42-.01-2.28-.08,2.66-.07-1.81.13,9.05.06,13.04.15-3.57-.06,14.05-.02,8.45-.11,4.12.01.25.05,3.38.08,9.83,0,21.63.01,33.76.02.19-.02-1.84-.04.76-.07l6.4.09c2.4,0,2.21-.1,6.58-.04-.62-.01-1.54-.04.07-.04,23.76.09,48.56-.07,72.69.09-3.27-.03-1.09-.04,1.41-.04-1.62,0,.04-.04-.28-.07l10.1.07c1.84-.07,10.83,0,11.89-.07h-3.2c4.25-.06-5.95-.15-5.33-.25-4.76.08-12.56-.13-20.38,0-1.73-.02,1.47-.03.55-.05-1.98.04-4.37.05-8.81.03h.5c-12.46-.03-17.8-.04-31.79-.07l1.04.05c-3-.02-3.64-.02-5.05-.03-3.45.07,8.45,0,5.3.08-3.99-.1-21.21,0-23.9-.11-4.63,0,1.36.05-3.27.05l-1.23-.03-1.17.04c-3.03,0-4.56-.04-4.68-.07.74,0,2.09,0,2.88,0-3.95,0-11.09,0-12.44,0l4.45.02c-12.63.02-28.03.03-40.24.05l.93.02c-9.32,0-7.46,0-17.69,0h.37c-2.06,0-4.78.01-7.58.03,2.58-.03-4.86-.05-1.47-.08-10.1.04-5,.03-11.67.12l-1.54-.04c-2.27.03-2.46.05-7.57.06,4.19-.03-3.26-.06,1.43-.1-3.97,0-7.18-.01-9.91-.02,0,2.44.02,4.5.02,6.34,0,1.8,0,3.39-.04,4.96.1,4.92.06-9.28.08-6.52.03-2.31.08,4.06.07,7.43,0,3.42-.13,5.82-.13,14.43,0-.86,0-.92,0-1.77,0,3.23,0,6.3,0,10.27.06,2.22,0,5.13.08,5.77l-.02-7.9c.02,4.48.11,8.68.07,16.06,0-.59-.03-2.78-.05-4.28,0,2.17,0,4.14,0,6.39-.08-.64-.02-9.6-.08-14.4-.03,2.32.06,9.08-.03,6.67.11,3.47-.01,8.49.07,14.32l-.05-.38c0,.92.02,2.84.03,4.53l-.06-3.08c.05,4.72-.05,9.1-.02,13.63,0-9.48.06-2.13.09-6.14.06,11.7-.12,6.73-.1,19.82,0-1.77.03-6.66.05-3.88-.02,2.49-.04,5.77-.05,7.32.01,8.68.05-1.33.08,2.36-.06,2.95.02,4.26.04,8.06l-.05.03c-.03,9.89.1,2.62.06,11.52l-.07-3.76.02,4.64-.05-.96c.04,5.05.03,6.62.01,11.57.03-1.15.09.65.09,5.03-.03,2.99-.05-1.67-.04,4.53-.03-1.4-.07-2.94-.02-5.64,0-.31-.04-1.35-.05-1.67,0,3.23,0,8.08,0,10.33,0-.86,0-1.9.01-2.43l.07,9c-.02,1.42-.03.29-.05-.82,0,1.82.02,3.09.03,5.76-.04-.69-.08-.53-.1-4.32l.04,8.57c-.02.57-.05,4.4-.06,3.29.01,4.76.03,11.66.05,17.96,0,.33,0,.99.02,2.32,0,5.92-.06,11.17,0,18.19l-.07,3.98c.02,5.5.09-5.39.12,3.76.02,6.48-.06,2.42-.08,4.69.04,3.22.11,8.83.05,14.78,0-1.98,0-3.52,0-5.36ZM10.98,305.54c-.01-1.31-.04-3.93-.01-4.89.06,1.5.03,2.65.01,4.89ZM55.68,364.23c-.98.02-2.49,0-4.19-.01,1.24,0,2.63,0,4.19.01ZM217.11,238.67c0,.06,0,.09,0,.14-.02,2.93-.01,1.89,0-.14ZM217.13,232.59c0-.61-.01-.57-.02-.31,0,.44,0,1.79,0,3.35.01-.43.02-1.22.01-3.04ZM11.39,48.29v1.18c-.03-2.67-.01-1.93,0-1.18Z"/><path class="g" d="M43.99,364.3c-.37,0-.47-.02-.56-.03-.52,0-.53.02.56.03Z"/><path class="g" d="M10.92,195.57v-.21c0-.11,0-.17,0-.21v.41Z"/><path class="g" d="M217.54,326.85c-.01,1.25-.02,1.95-.02,2.42.01.07.02-.5.02-2.42Z"/><path class="g" d="M217.05,200.34v3.9c.02-1.88.02-2.56.03-3.51-.01.09-.03.83-.03-.39Z"/><path class="g" d="M217.35,166.5c0-.57,0-1.21,0-1.77l-.02.16c0,2.43.02,4.12.03,1.61Z"/><path class="g" d="M217.21,196.73c.04-.31.03-2.75.02-5.48v.48c-.06-.8-.04,2.1-.02,5Z"/><path class="g" d="M217.23,190.61c0-.84,0-1.7,0-2.52-.02-.32,0,1.02,0,2.52Z"/><path class="g" d="M217.1,224.87c.01-1.29-.05-.81-.04-1.55-.05-1.45.06,8.63.04,1.55Z"/><polygon class="g" points="217.34 194.52 217.29 195.5 217.33 197.03 217.34 194.52"/><path class="g" d="M217.31,216.08v-4.36c0,.07,0-.49,0-1.17,0,1.34,0,2.75,0,3.81s0,1.77,0,1.72Z"/><path class="g" d="M217.3,210.55c0-1.4,0-2.73,0-3.51,0,.76,0,2.39,0,3.51Z"/><polygon class="g" points="217.36 200.48 217.35 201.77 217.34 204.85 217.36 200.48"/><path class="g" d="M217.3,262.98v4.76c.03.49.04-.81.04-2.59-.01-1.14-.02-2.91-.04-2.18Z"/><path class="g" d="M217.43,248.58c-.02,1.27-.02,1.37-.04,2.1l.06.14-.02-2.25Z"/><path class="g" d="M217.45,262.47c.02.47.05,6.91.05.88-.02-.48-.03-5.25-.05-.88Z"/><polygon class="g" points="217.37 334.22 217.37 333.01 217.27 333.18 217.37 334.22"/><path class="g" d="M184.02,364.4c5.64.02,1.34-.06,6.44-.03,1.32-.02-4.17-.02-2.81-.05-3.41.03-5.19.01-3.63.08Z"/><path class="g" d="M187.65,364.32c.54,0,1.12-.01,1.74-.02-.98,0-1.45.01-1.74.02Z"/><polygon class="g" points="207.34 23.14 210.97 23.17 208.63 23.13 207.34 23.14"/><path class="g" d="M214.31,23.07l.85.06,2.18-.06c-.82,0-2.39,0-3.03,0Z"/><path class="g" d="M10.85,315.62l.02.28c.02-.56.02-1.41.02-3.11l-.04,2.84Z"/><polygon class="g" points="10.9 266.41 10.89 267.26 10.95 265.67 10.9 266.41"/><path class="g" d="M10.82,225.11c0,1.69,0,3.67,0,5.36-.01-3.67.06-5.82,0-5.36Z"/><path class="g" d="M208.34,31.03c0-1.52-.04-.98-.05-1.21,0,2.55.06,1.14.05,1.21Z"/><polygon class="g" points="208.43 56.18 208.41 55.73 208.46 59.44 208.43 56.18"/><path class="g" d="M208.43,79.7c.07-2.22-.01-8.52.01-12.71l.02-.69-.06-1.89c0,5.09.02,11.7.03,15.29Z"/><path class="g" d="M208.28,92.24c.03-.77.02,2.71,0-2.92,0,.28,0,.36,0,.53,0,.51,0,1.21,0,2.39Z"/><path class="g" d="M208.28,89.84c0-2.48-.02,1.62,0,0h0Z"/><path class="g" d="M208.29,101.28l-.02-3.26c-.02.68-.02,3.59-.03,2.51.01,3.35.03,2.66.06.76Z"/><path class="g" d="M208.35,104.37v-1.69c-.02.3-.02.74,0,1.69Z"/><path class="g" d="M208.31,99.1l.02,3.59c.01-.47.03-.52,0-1.65.02.29,0-.42-.01-1.94Z"/><path class="g" d="M208.32,97.07c.02-1.83.03-4.19.05-.92,0-6.24-.06-5.32-.05.92Z"/><path class="g" d="M208.5,80.9l.02-2.45-.02-2.12c.01,1.06-.02,4.71,0,4.56Z"/><path class="g" d="M208.26,121.6c.02.2.04-1.1.06-1.34l-.02-2.41c-.01,1.24-.02,3.59-.04,3.75Z"/><path class="g" d="M208.32,120.26l.03,3.61c0-3.22,0-3.81-.03-3.61Z"/><polygon class="g" points="208.43 104.96 208.37 99.03 208.43 106.1 208.43 104.96"/><polygon class="g" points="208.26 135.38 208.22 133.33 208.27 136.97 208.26 135.38"/><path class="g" d="M208.26,144.51c-.03-1.51-.05,2.07-.07.47.02,2.47.04,4.59.05,6.51,0-2.03,0-4.18.01-6.98Z"/><path class="g" d="M208.28,154.7c-.01-1.01-.02-2.06-.03-3.2.01,1.07.02,2.13.03,3.2Z"/><path class="g" d="M208.34,130.01c0,.28-.03.82-.04,2.84l.04-1.42c0-.43,0-.92,0-1.42Z"/><path class="g" d="M208.34,131.38v.05c0,1.54,0,2.61,0,3.06,0-.39,0-1.33,0-3.11Z"/><path class="g" d="M208.34,129.65c0,.13,0,.23,0,.36,0-.14,0-.22,0-.36Z"/><path class="g" d="M208.39,114.41c.02,2.12.05,6.53.09,2.26-.03-1.52-.05.93-.09-2.26Z"/><path class="g" d="M208.39,127.89v-3.83c0,.08-.02.77-.03-.28l.03,4.11Z"/><polygon class="g" points="208.4 129.77 208.39 127.89 208.39 129.31 208.4 129.77"/><path class="g" d="M208.32,148.14c0,1.66.01,3.47.02,5.51,0-2.19,0-4.46.01-6.61-.01-.3-.04-1.25-.04,1.1Z"/><path class="g" d="M208.33,139.99c0,.11,0,.26,0,.37,0-.23,0-.41,0-.37Z"/><path class="g" d="M208.34,173.77c0-.11,0-.21,0-.32,0-.03,0-.05,0-.08v.4Z"/><path class="g" d="M208.36,146.67c0-1.64-.01-2.62-.02-3.57,0,1.23,0,2.54,0,3.94,0,.14.01.16,0-.37Z"/><path class="g" d="M208.3,160.31c0-.86.01-1.83.02-2.85-.01.84-.03,2.55-.02,2.85Z"/><path class="g" d="M208.32,140.92c0-.08,0-.16,0-.25,0,.54,0,.47,0,.25Z"/><path class="g" d="M208.32,140.92c0,.84.02,1.51.03,2.18,0-1-.01-1.93-.01-2.74,0,.2,0,.41-.01.56Z"/><path class="g" d="M208.62,179.86c-.04-.29-.08-4.62-.03-8.36-.03-3.68-.16-1.27-.23,1.94.02.11.03.11.06,3.9.02-1.32.05-8.4.09-5.2.02,5.01-.01,4.11-.03,6.55.05-2.07.07,6.38.14,5.29l-.03-4.4c.01-.08.03,1.51.04.29Z"/><path class="g" d="M208.35,166.23v-1.56c-.02,1.77-.04,3.04-.06,5.39.02,2.59.03,3.13.05,3.31v-7.67s.01.53.01.53Z"/><path class="g" d="M208.35,157.68c.04,1.22.06,4.96.11,2.67,0-4.57-.04-3.2-.05-5.93.01,7.38-.02-2.12-.05,3.21,0-1.45,0-2.75-.01-3.98,0,1.33-.01,2.61-.02,3.81,0-.07,0-.11,0-.17v-.03h0c0-.31,0-.42,0-.06,0,.02,0,.11,0,.15,0,.07,0,.19.02.33,0,2.14-.01.34-.02-.33,0-.03,0-.07,0-.09,0,0,0,.02,0,.03l.02,7.39c0-1.56,0-3.52,0-6.99Z"/><path class="g" d="M208.57,120.61c0,.23,0,.22-.01.24,0,.48,0,.66.01-.24Z"/><path class="g" d="M208.54,123.65c0-.54,0-.99-.02-2.73.01-1.51.02,0,.03-.07-.01-1.05-.03-3.68-.05-.38v.52c0,2.97-.06,6.8-.07,6.28.04-.87.07-1.63.1-3.61Z"/><path class="g" d="M208.46,140.88l.02,6.15.04-3.13-.02.16c0-3.5-.02-2.74-.04-3.18Z"/><polygon class="g" points="208.32 174.47 208.28 173.66 208.34 177.21 208.32 174.47"/><polygon class="g" points="208.33 182.47 208.29 182.17 208.31 184.28 208.33 182.47"/><path class="g" d="M19.74,269.4v-1.81c0,.85,0,1.4,0,1.81Z"/><path class="g" d="M19.74,282.49l.02.32c-.01-.61-.02-.85-.02-.32Z"/><path class="g" d="M186.97,356.96c-2.63-.04-5.57-.09-5.26-.05l.81.04c1.84,0,3.25,0,4.45,0Z"/><path class="g" d="M52.5,357.22c.25,0,.51,0,.77.01.64-.01,1.24-.03,1.78-.04-.77,0-1.64.02-2.55.03Z"/><path class="g" d="M50.64,357.4l-3.47-.03c.78,0,1.9.02,3.47.03Z"/><path class="g" d="M19.7,197.92l-.04-2.11c0,3.3.02,1.85.04,2.11Z"/><path class="g" d="M208.34,264.35c-.01,2.28-.02,4.08-.03,5.67.02-2.74.06-4.95.03-5.67Z"/><path class="g" d="M20.2,274.55c0-1.11-.02-1.58-.03-1.55,0,1.14.02,1.78.03,1.55Z"/><path class="g" d="M208.32,276.58c0-.4,0-.79.01-1.2,0-1.66,0-3.33-.01-5.36-.02,2.02-.03,4.34,0,6.56Z"/><path class="g" d="M111.1,29.57c.19,0,.42,0,.59,0,.06,0-.2,0-.59,0Z"/><path class="g" d="M186.62,30.01c-.74,0-1.96,0-3.1,0,.56,0,1.49,0,3.1,0Z"/><path class="g" d="M208.31,214.63c0-1.7,0-.27,0,0h0Z"/><path class="g" d="M208.48,206.39c0,.36.01.63.02.68-.01-.14-.02-.38-.02-.68Z"/><path class="g" d="M208.59,293.47v.15c0-.5,0-.42,0-.15Z"/><path class="g" d="M208.33,212.08c0,.64,0,1.37-.01,2.17,0-.35,0-1.01.01-2.17Z"/><path class="g" d="M208.31,212.43c0-.58,0-1.04,0-1.48,0-.21-.01-.02,0,1.48Z"/><path class="g" d="M208.31,217c0-.97,0-1.87,0-2.74,0,.33,0,.47,0,.38,0,.5,0,1.2,0,2.36Z"/><path class="g" d="M19.85,77.59c0-.11,0-.24,0-.36-.02-1.71-.02-.96,0,.36Z"/><path class="g" d="M142.84,357.41c.08,0,.12,0,.19,0-.08,0-.18,0-.25,0h.06Z"/><path class="g" d="M136.75,357.44c2.59-.05,4.07-.05,6.03-.04l-2.01-.13-4.02.16Z"/><path class="g" d="M19.73,238.06l-.04,4.28c-.06-5.16-.04-8.9-.1-4.88.14.6.01,16.62.15,17.22l-.03,2.82c0-.81,0-.94,0-1.74-.06,5.48.1,4.07.08,11.14-.01,2.46-.03,4.18-.05,2.5l.03,5.49c0,1.6-.03,1.21-.02-.38v8.37s0-.06,0-.06c.02,1.2.05,3.9.07,5.22-.02,2.13-.01-1.07-.03-.52l.03,4.63c-.04,1.89-.07-1.95-.06-5.15-.14,4.33.03,3.84-.04,13.18l-.02-4.37c-.08,2.82-.05,6.23-.1,11.18.03-1.17.12-9.9.15-4.87-.01,1.42-.02,3.28.01,6-.01,0-.02.18-.03.48,0,.31,0,.74,0,1.28,0,1.08,0,2.57,0,4.23l-.06-.23c.02,3.58.05,3.3.08,5.41,0,3.99-.06,4.82-.1,5.76-.01,6.4.08-4.42.09,3.15-.02,5.32,0,9.05.04,15.42-.02,3.72-.04-.65-.06.68l.05,3.3c0,.81-.02.55-.02.41.02,2.78.06.23.08,4.6.02.26.02.83.02,1.63,0,.84-.01,1.91-.02,3.12,1.52.01,3.26.02,5,.04,1.7,0,3.4,0,4.92-.02,1.33.02-.64.04-.24.06,7.41-.06,6.35-.06,12.46-.11l5.19.04c-3.82-.05,1.06-.1,5.33-.15-1.36-.02-2.51-.04-3.29-.05l6.81-.03c.82.01.14.03-.98.06.46,0,.9-.01,1.25-.02,2.44.02,1.17.06-.57.1-.83-.01-1.65-.03-2.45-.04-1.68.04-3.26.08-2.91.12.45,0,1.3-.01,2.23-.02-.44.01-.72.02-.52.03.24,0,.94-.01,2.06-.02l1.55.07.38-.03,8.91.04c6.38-.07,11.93-.18,22.05-.21-2.51.05-.54.09-.68.15-2.76-.07-7.84.03-13.09.01,2.74,0,2.14.04,1.44.05l9.36-.06c-.21.05,1.99.04,4.43.06-1.85-.1,6.98-.07,10.78-.1.24.03-.68.07-5.32.06,5.13.08,6.62-.12,11.65-.05-1.13,0-1.75,0-2.19.01,2.65-.03,9.13,0,7.6.02h-1.13c7.53.01,22.92,0,24.05-.08.08.01-.99.1-1.44.12l13.44-.29c-1.18.07,3.36.25-2.88.29,1.79,0,4.01,0,7.79,0-1.22-.01-3.05-.11-1.38-.11,4.62.06,3.19.04,8.84.11-1.83-.02.2-.13,3.1-.13-.45.02.24.11-.82.12l7.21-.11c-1.8.02-.32.1,1.3.13-.75-.02,6.23,0,8.16,0l-3.06-.03c8.14.02,8.04-.16,16.12-.15-.98.02-2.41.14,1.69.16,1.88-.06,8.34-.28,15.48-.32l.99.03v-.18s-.03-5.45-.03-5.45c.02,1.17.06,3.04.11,5.71-3.72.07-9.03.16-12.45.23,3.05.03.85.04,5.41.04,1.61.03-2.49.05-3.83.05l10.71.02c-.11,0,.06-.02.46-.02,0-.77-.03-2.82-.05-4.65-.01-1.73-.03-3.24-.05-3.07l.04,7.66-4.31.02c-.12-.02.24-.04.96-.06.77-.01,1.89-.04,3.26-.06-.01-1.38-.03-3-.05-4.76,0-1.72,0-3.58-.01-5.46.03-1.91.12,1.43.14,1.28-.02-.98-.04-7.14-.03-7.84l.04,3.19c.03-4.19-.09-6.84-.02-11.87,0-1.74.09-5.19.05-5.49-.08,2.83-.31,3.39-.37,1.5,0-.61.09-9.1.11-11.11.06-2.86.14,4.3.2,1.86-.02-.1-.04-1.69-.05-2.34.02-1.83.06.76.05-3.21-.07-.66,0-8.07-.06-1.88,0-3.88,0-4.13.01-8.68-.04,1.45-.15-4.09-.17-7.98.02.23.04-.64.05-1.07.02-7.95.02-12.22.04-19.64.02-.68.04-4.26.07-2.74,0-1.07-.02-2.06-.04-4.33.06-4.43,0,5.1.08,1.73-.04-.29-.05-5.92-.08-9.17-.06,1-.01,7.53.01,10.79-.02,0-.04-.35-.06-1-.01-.67-.03-1.61-.06-2.8-.02-2.41-.05-5.76-.09-9.62-.02-6.16.05-2.67.04-3.74.01-11.57-.15-9.86-.09-19.47.05-3.81.11-.17.15-1.02-.01,5.02-.02,7.71-.03,11.11l.03-4.19c0,1.6.01,4.94.02,6.77,0-3.23.04-19.54.05-28.48-.02-1.59-.04-4.32-.06-3.03v2.82c-.04,2.6-.05-5.32-.07-1.74-.03-3.79-.08-8.04-.05-13.37l.06-1c-.02.11-.04,3.49-.02,4.99-.03-2.22.08-8.18,0-10.62l-.04,3.74c-.03-3.8-.1-8.51-.08-13.23-.06,2.15,0,1.09-.06,4.45.09-2.91,0,12.09.09,7.42-.08,3.45-.03,5.97-.1,10.47.02-.14.04-1.6.03,2.37,0,.18.01.6.02.87,0,.12,0,.16,0,.27,0-.08,0-.14,0-.22,0,.17,0,.19,0-.08.01-.94.03-1.7.03-2.02.01,2.02.05,8.27.07,10.41,0,2.35-.02-.98-.04.3l.04,3.19c-.04.32-.07,6.26-.1.71v4.99c-.03,2.94-.04,6.98-.02,9.48,0,2.35.05,5.95.01,3.9l.03,7.83v.07c-.02,7.73.06,15.9-.02,24.74,0,2.6,0,5.29.01,9.64l-.04.85c.01,3.34-.04,10.03,0,11.46-.1,3.6-.02,16.21-.04,22.08l.05.22c.01,4.04.02,7.92.03,12.94l.04-.31c0,4.34-.02,11.13-.03,17.97-.02-.47-.01-2.2,0-3.43-.01,1.7-.02,3.42-.03,5.16,0,1.66,0,3.34.01,5.01-2.41.01-4.8.02-7.12.03-2.4,0-4.71,0-6.89-.01-1.85,0-3.18,0-4.48,0,.17,0,.33,0,.46,0-.19,0-.47,0-.76,0-.82,0-1.66-.02-2.57-.02.78,0,1.52.02,2.16.02-1.42,0-3.58.01-5.71.02l-.9-.05c-.17,0-.31,0-.49,0-2.08-.02-1.67.02-.56.06-1.06.01-2.04.02-2.8.03-1.69-.08-5.56.03-7.86-.06-1.43.04-10.65.03-11.78.12-.07-.01-.7-.02.45-.02-2.36,0-4.71,0-6.84,0l-1-.06-5.16.08c-3.13-.04-4.43-.06-1.32-.11-7.52.06-6.08.05-12.48.1l.31-.04c-2.28,0-5.93.05-7.31.02-5.16-.01-25.26-.05-38.39-.08,2.54.12-6.1-.05-6.61.04-.76-.03-2.59-.04-.47-.07-6.69.03-10.05-.04-14.67.03-.77-.03,1.43-.04.75-.06-.54,0-2.13.02-2.82,0-.68-.02.98-.02,2.04-.04-6.84,0-7.53.09-8.02.17-3.46-.04-5.19-.03-7.69.02-1.21-.03-3.22-.05,1.03-.06-1.19,0-4.84,0-8.23-.01-1.69,0-3.31,0-4.53,0-1.22,0-2.02.02-2.09.03-.76,0-3.34,0-3.97,0-5.36,0-5.83,0-11.1,0h1.46c-.38.02-.75.03-1.14.04-.37,0-.75,0-1.16.01,0-1.56,0-3.46.01-6.16v.12c.03-9.74.02-4.19.04-13.8l-.05.52c-.1-.9.06-8.51.02-14.08l-.03,2.01c-.04-3.04.14-8.51.15-11.56,0-.67.01,1.05.02,1.98.06-8-.06-1.04-.08-7,.03-1.1.09,1.42.09-2.6.03-2-.11-11.64-.04-17.12-.03,1.21-.05,2.41-.07-.36,0-4.25.1-11.48.02-15.31,0-.54.01-.74.02-.77-.02-3.24-.07-10.5-.08-12.5.08-1.5.06-6.54.04-11.2,0-2.33-.02-4.56-.02-6.21,0-.82,0-1.49.01-1.97,0-.47.02-.73.04-.72v-9.98s0,.26,0,.26c.01-6.38-.03-8.64-.06-10.88.01-1.47.02-.4.03-.28.03-9.32.02-10.25-.05-18.07l.05-.81c-.03-2.12.08-13.48.02-22.62,0,.09.02.28.02,1.01-.06-10.29.14-24.63-.04-28.4l-.04-6.79c-.01,8.78-.08-1.31-.11,2.3-.01-3.45.05-8.93.06-4.69v.66c.08,1.56.02-10.91.09-10.68.02-17.28.04-34.13.05-50.32l-.07,1.86v-5.65c.02-1.48.06-1.99.06,2.04.02-1.06.01-2.75,0-4.19-.02-1.42-.05-2.59-.05-2.68.03-7.89.08,3.08.09.66v-3.28s-.01.74-.01.74c-.03-2.66-.06-2.9-.06-7.74.01-3.06.05-1.57.05-2.78,0,0,0-.4,0-1.85v-7.11s-.05,2.84-.05,2.84c-.03-3.15,0-6.69-.06-3.41.03-1.55.05-4.85.05-8.71,0-3.81,0-8.17,0-11.91,4.15,0,7.53,0,8.57,0,4.43-.01,8.78-.02,14.18-.04-1.34-.01-2.15-.08,2.51-.07-1.7.13,8.53.06,12.29.15-3.36-.06,13.24-.02,7.96-.11,3.89.01.24.05,3.19.08,9.26,0,20.39.01,31.82.02.18-.02-1.74-.04.72-.07l6.04.09c2.26,0,2.08-.1,6.2-.04-.58-.01-1.45-.04.06-.04,22.4.09,45.77-.07,68.52.09-3.08-.03-1.03-.04,1.33-.04-1.53,0,.03-.04-.27-.07l9.52.07c1.74-.07,10.21,0,11.21-.07h-3.02c4.01-.06-5.61-.15-5.03-.25-4.49.08-11.84-.13-19.21,0-1.63-.02,1.39-.03.52-.05-1.87.04-4.12.05-8.3.03h.47c-11.74-.03-16.78-.04-29.97-.07l.98.05c-2.83-.02-3.43-.02-4.76-.03-3.25.07,7.96,0,5,.08-3.76-.1-19.99,0-22.53-.11-4.36,0,1.28.05-3.08.05l-1.16-.03-1.1.04c-2.86,0-4.3-.04-4.41-.07.69,0,1.97,0,2.72,0-3.72,0-10.45,0-11.73,0l4.19.02c-11.9.02-26.42.03-37.93.05l.87.02c-8.79,0-7.03,0-16.67,0h.35c-1.94,0-4.51.01-7.14.03,2.43-.03-4.58-.05-1.39-.08-9.52.04-4.71.03-11,.12l-1.45-.04c-2.14.03-2.32.05-7.14.06,3.95-.03-3.07-.06,1.35-.1-1.29,0-2.5-.01-3.63-.02,0,4,.02,7.09.02,9.71.01,2.56.01,4.65-.04,6.69.1,4.64.06-8.74.08-6.15.03-2.18.08,3.83.07,7,0,3.23-.13,5.49-.13,13.61,0-.81,0-.86,0-1.67,0,3.05,0,5.93,0,9.68.06,2.09,0,4.84.08,5.44l-.02-7.45c.02,4.22.11,8.18.07,15.14,0-.56-.03-2.62-.05-4.03,0,2.05,0,3.91,0,6.02-.08-.6-.02-9.05-.08-13.57-.03,2.18.06,8.56-.03,6.28.11,3.27-.01,8,.07,13.5l-.05-.36c0,.87.02,2.68.03,4.27l-.06-2.9c.05,4.45-.05,8.58-.02,12.85,0-8.94.06-2.01.09-5.79.06,11.03-.12,6.34-.1,18.69,0-1.67.03-6.27.05-3.66-.02,2.34-.04,5.44-.05,6.9,0,8.18.05-1.26.08,2.23-.06,2.78.02,4.02.04,7.6l-.05.03c-.03,9.32.1,2.47.06,10.86l-.07-3.55.02,4.37-.05-.9c.04,4.76.03,6.24.01,10.9.03-1.08.09.61.09,4.74-.03,2.82-.05-1.58-.04,4.27-.03-1.32-.07-2.77-.02-5.31,0-.29-.04-1.27-.05-1.57,0,3.05,0,7.62,0,9.74,0-.81,0-1.79.01-2.29l.07,8.48c-.02,1.34-.03.28-.05-.77,0,1.72.02,2.91.03,5.43-.04-.65-.08-.5-.1-4.07l.04,8.08c-.02.54-.05,4.15-.06,3.1.01,4.48.03,10.99.05,16.93,0,.32,0,.93.02,2.19,0,5.58-.06,10.53,0,17.15l-.07,3.75c.02,5.18.09-5.08.12,3.55.02,6.11-.06,2.28-.08,4.42.04,3.04.11,8.32.05,13.93,0-1.86,0-3.31,0-5.05ZM19.76,301.98c0-1.24-.04-3.71-.01-4.61.06,1.41.03,2.5.01,4.61ZM61.91,357.31c-.92.02-2.34,0-3.95-.01,1.17,0,2.48,0,3.95.01ZM208.35,233.22c0,.05,0,.09,0,.13-.02,2.76-.01,1.78,0-.13ZM208.37,227.48c0-.58-.01-.54-.02-.29,0,.42,0,1.69,0,3.16.01-.41.02-1.15.01-2.86ZM20.17,59.48v1.12c-.03-2.52-.01-1.81,0-1.12Z"/><path class="g" d="M50.89,357.38c-.35,0-.45-.02-.53-.03-.49,0-.5.02.53.03Z"/><path class="g" d="M19.7,198.31v-.19c0-.1,0-.16,0-.2v.39Z"/><path class="g" d="M208.78,316.35c-.01,1.18-.02,1.83-.02,2.28.01.06.02-.47.02-2.28Z"/><path class="g" d="M208.29,197.08v3.68c.02-1.77.02-2.41.03-3.31-.01.08-.03.78-.03-.37Z"/><path class="g" d="M208.58,165.19c0-.54,0-1.14,0-1.67l-.02.15c0,2.29.02,3.89.03,1.52Z"/><path class="g" d="M208.45,193.68c.04-.29.03-2.6.02-5.17v.46c-.06-.76-.04,1.98-.02,4.71Z"/><path class="g" d="M208.46,187.91c0-.79,0-1.6,0-2.38-.02-.3,0,.96,0,2.38Z"/><path class="g" d="M208.34,220.21c.01-1.22-.05-.77-.04-1.46-.05-1.36.06,8.14.04,1.46Z"/><polygon class="g" points="208.58 191.6 208.53 192.52 208.57 193.96 208.58 191.6"/><path class="g" d="M208.54,211.92v-4.11c0,.06,0-.46,0-1.1,0,1.27,0,2.59,0,3.59,0,1,0,1.67,0,1.62Z"/><path class="g" d="M208.54,206.71c0-1.32,0-2.57,0-3.31,0,.71,0,2.25,0,3.31Z"/><polygon class="g" points="208.59 197.22 208.58 198.44 208.58 201.34 208.59 197.22"/><path class="g" d="M208.53,256.14v4.49c.03.46.04-.77.04-2.44-.01-1.07-.02-2.74-.04-2.05Z"/><path class="g" d="M208.67,242.56c-.02,1.19-.02,1.29-.04,1.98l.06.14-.02-2.12Z"/><path class="g" d="M208.69,255.65c.02.45.05,6.51.05.82-.02-.46-.03-4.95-.05-.82Z"/><polygon class="g" points="208.61 323.29 208.61 322.14 208.5 322.31 208.61 323.29"/><path class="g" d="M182.89,357.48c5.32.02,1.26-.06,6.07-.03,1.25-.02-3.93-.02-2.65-.05-3.21.03-4.9.01-3.42.08Z"/><path class="g" d="M186.31,357.4c.51,0,1.06-.01,1.64-.02-.93,0-1.37.01-1.64.02Z"/><polygon class="g" points="199.15 30.07 202.57 30.09 200.37 30.05 199.15 30.07"/><path class="g" d="M205.72,29.99l.81.06,2.05-.06c-.77,0-2.26,0-2.86,0Z"/><path class="g" d="M19.63,311.48l.02.26c.02-.53.02-1.33.02-2.93l-.04,2.67Z"/><polygon class="g" points="19.68 265.09 19.68 265.89 19.74 264.4 19.68 265.09"/><path class="g" d="M19.6,226.16c0,1.59,0,3.46,0,5.05-.01-3.46.07-5.48,0-5.05Z"/><path class="g" d="M171.6,73.2c0-1.06-.04-.68-.05-.84,0,1.77.06.79.05.84Z"/><polygon class="g" points="171.69 90.67 171.68 90.36 171.72 92.93 171.69 90.67"/><path class="g" d="M171.69,107c.07-1.54-.01-5.92.01-8.83l.02-.48-.06-1.31c0,3.53.02,8.12.03,10.62Z"/><path class="g" d="M171.54,115.71c.03-.54.02,1.88,0-2.03,0,.2,0,.25,0,.37,0,.35,0,.84,0,1.66Z"/><path class="g" d="M171.54,114.04c0-1.72-.02,1.13,0,0h0Z"/><path class="g" d="M171.56,121.98l-.02-2.27c-.02.47-.02,2.49-.03,1.74.01,2.32.03,1.85.06.52Z"/><path class="g" d="M171.61,124.13v-1.17c-.02.21-.02.52,0,1.17Z"/><path class="g" d="M171.58,120.47l.02,2.49c.01-.33.03-.36,0-1.14.02.2,0-.29-.01-1.35Z"/><path class="g" d="M171.59,119.06c.02-1.27.03-2.91.05-.64,0-4.33-.06-3.7-.05.64Z"/><path class="g" d="M171.77,107.83l.02-1.7-.02-1.47c.01.73-.02,3.27,0,3.17Z"/><path class="g" d="M171.52,136.1c.02.14.04-.76.06-.93l-.02-1.67c-.01.86-.02,2.49-.04,2.6Z"/><path class="g" d="M171.58,135.17l.03,2.5c0-2.24,0-2.65-.03-2.5Z"/><polygon class="g" points="171.69 124.54 171.63 120.42 171.69 125.33 171.69 124.54"/><polygon class="g" points="171.52 145.66 171.48 144.24 171.54 146.77 171.52 145.66"/><path class="g" d="M171.52,152c-.03-1.05-.05,1.44-.07.33.02,1.71.04,3.19.05,4.52-.01-1.41,0-2.91.01-4.85Z"/><path class="g" d="M171.54,159.07c-.01-.7-.02-1.43-.03-2.22.01.74.02,1.47.03,2.22Z"/><path class="g" d="M171.6,141.93c0,.19-.03.57-.04,1.97l.04-.98c0-.3,0-.64,0-.99Z"/><path class="g" d="M171.6,142.89v.03c0,1.07,0,1.81,0,2.13,0-.27,0-.92,0-2.16Z"/><path class="g" d="M171.6,141.69v.25c0-.09,0-.15,0-.25Z"/><path class="g" d="M171.65,131.1c.02,1.47.05,4.54.09,1.57-.03-1.06-.05.64-.09-1.57Z"/><path class="g" d="M171.65,140.46v-2.66c0,.05-.02.53-.03-.2l.03,2.86Z"/><polygon class="g" points="171.67 141.77 171.65 140.46 171.65 141.45 171.67 141.77"/><path class="g" d="M171.58,154.52c0,1.16.01,2.41.02,3.82,0-1.52,0-3.09.01-4.59-.01-.21-.04-.87-.04.76Z"/><path class="g" d="M171.59,148.87c0,.08,0,.18,0,.26,0-.16,0-.28,0-.26Z"/><path class="g" d="M171.6,172.32c0-.08,0-.15,0-.22,0-.02,0-.03,0-.05v.28Z"/><path class="g" d="M171.63,153.5c0-1.14,0-1.83-.02-2.48,0,.86,0,1.76,0,2.73,0,.09,0,.11,0-.26Z"/><path class="g" d="M171.56,162.97c0-.6.02-1.27.02-1.98-.01.58-.03,1.77-.02,1.98Z"/><path class="g" d="M171.58,149.51c0-.06,0-.11,0-.17,0,.37,0,.33,0,.17Z"/><path class="g" d="M171.58,149.51c.01.58.02,1.05.03,1.52,0-.69-.01-1.34-.01-1.9,0,.14,0,.28-.01.39Z"/><path class="g" d="M171.88,176.55c-.04-.2-.08-3.21-.03-5.8-.03-2.55-.16-.88-.23,1.35.02.08.03.08.06,2.71.02-.92.05-5.83.09-3.61.02,3.48-.01,2.85-.04,4.54.05-1.44.07,4.43.14,3.67l-.03-3.05c.01-.06.03,1.05.04.2Z"/><path class="g" d="M171.62,167.09v-1.08c-.02,1.22-.04,2.1-.06,3.74.02,1.8.03,2.17.05,2.3v-5.32s.01.37.01.37Z"/><path class="g" d="M171.61,161.15c.04.84.06,3.44.11,1.85,0-3.17-.04-2.22-.05-4.12.01,5.12-.02-1.47-.05,2.23,0-1.01,0-1.91-.01-2.77,0,.92-.01,1.81-.02,2.65,0-.05,0-.08,0-.12v-.02h0c0-.22,0-.29,0-.04,0,.02,0,.08,0,.11,0,.03.01.13.02.23,0,1.48-.01.23-.02-.23,0-.02,0-.05,0-.06v.02s.02,5.13.02,5.13v-4.86Z"/><path class="g" d="M171.83,135.41c0,.16,0,.15-.01.16,0,.33,0,.46.01-.16Z"/><path class="g" d="M171.8,137.52c0-.37-.02-.68-.02-1.9.01-1.05.02,0,.03-.05-.01-.73-.03-2.56-.05-.27v.36c0,2.07-.06,4.72-.07,4.36.04-.6.07-1.13.1-2.51Z"/><path class="g" d="M171.72,149.48l.02,4.27.04-2.18-.02.11c0-2.43-.02-1.9-.04-2.21Z"/><polygon class="g" points="171.58 172.81 171.54 172.24 171.6 174.71 171.58 172.81"/><polygon class="g" points="171.59 178.36 171.55 178.15 171.57 179.62 171.59 178.36"/><path class="g" d="M55.64,253.71v-1.26c0,.59,0,.97,0,1.26Z"/><path class="g" d="M55.64,262.8l.02.22c-.01-.42-.02-.59-.02-.22Z"/><path class="g" d="M171.59,314.44c-.83-.02-1.71-.04-2.35-.06-.71-.01-1.17-.02-1.06,0l.56.04c1.18,0,2.08,0,2.85,0Z"/><path class="g" d="M78.46,314.69c.17,0,.36,0,.53.01.44-.01.86-.03,1.23-.04-.53,0-1.14.02-1.77.03Z"/><path class="g" d="M77.17,314.87l-2.41-.03c.55,0,1.32.02,2.41.03Z"/><path class="g" d="M55.59,204.08l-.04-1.46c0,2.29.02,1.28.04,1.46Z"/><path class="g" d="M171.6,235.21c-.01,1.58-.02,2.84-.03,3.94.02-1.9.06-3.43.03-3.94Z"/><path class="g" d="M56.1,257.29c0-.77-.02-1.1-.03-1.07,0,.79.02,1.24.03,1.07Z"/><path class="g" d="M171.58,243.71c0-.28,0-.55.01-.83,0-1.16,0-2.31-.01-3.72-.02,1.4-.03,3.01,0,4.56Z"/><path class="g" d="M104.16,72.12c.13,0,.29,0,.41,0,.04,0-.14,0-.41,0Z"/><path class="g" d="M156.6,72.56c-.52,0-1.36,0-2.15,0,.39,0,1.03,0,2.15,0Z"/><path class="g" d="M171.57,200.69c0-1.18,0-.19,0,0h0Z"/><path class="g" d="M171.74,194.97c0,.25.01.44.02.47-.01-.1-.02-.26-.02-.47Z"/><path class="g" d="M171.85,255.43s0,.06,0,.1c0-.35,0-.29,0-.1Z"/><path class="g" d="M171.59,198.92c0,.44,0,.95-.01,1.51,0-.24,0-.7.01-1.51Z"/><path class="g" d="M171.57,199.16c0-.41,0-.73,0-1.03,0-.15-.01-.02,0,1.03Z"/><path class="g" d="M171.57,202.33c0-.67,0-1.3,0-1.91,0,.23,0,.33,0,.27,0,.35,0,.83,0,1.64Z"/><path class="g" d="M55.75,120.53c0-.08,0-.17,0-.25-.02-1.19-.02-.67,0,.25Z"/><path class="g" d="M141.19,314.89c.05,0,.08,0,.13,0-.06,0-.12,0-.17,0h.04Z"/><path class="g" d="M136.96,314.92c1.8-.05,2.82-.05,4.19-.04l-1.4-.13-2.79.16Z"/><path class="g" d="M55.63,231.95l-.04,2.97c-.06-3.58-.04-6.18-.1-3.39.14.42.01,11.54.15,11.96l-.03,1.96c0-.56,0-.65,0-1.21-.06,3.81.1,2.83.08,7.73-.01,1.71-.03,2.9-.05,1.74l.03,3.81c0,1.11-.03.84-.02-.27v5.81s0-.04,0-.04c.02.84.05,2.71.07,3.62-.02,1.48-.01-.74-.03-.36l.03,3.22c-.04,1.31-.07-1.36-.06-3.58-.14,3,.03,2.67-.05,9.15l-.02-3.04c-.08,1.96-.05,4.33-.1,7.76.03-.81.12-6.88.15-3.38-.01.98-.02,2.28.01,4.16-.02,0-.03.47-.04,1.22,0,.75,0,1.78,0,2.94l-.06-.16c.02,2.49.05,2.29.08,3.76,0,2.77-.06,3.35-.1,4-.01,4.44.08-3.07.09,2.19-.02,3.69,0,6.29.04,10.7-.02,2.58-.04-.45-.06.48l.05,2.29c0,.56-.02.38-.02.29.02,1.93.06.16.08,3.19.02.18.02.58.02,1.13,0,.59-.01,1.35-.02,2.21,1.07.01,2.29.02,3.52.04,1.18,0,2.36,0,3.42-.02.93.02-.45.04-.16.06,5.14-.06,4.4-.06,8.65-.11l3.61.04c-2.65-.05.74-.1,3.7-.15-.94-.02-1.75-.04-2.28-.05l4.73-.03c.57.01.09.03-.68.06.32,0,.63-.01.87-.02,1.69.02.81.06-.4.1-.57-.01-1.15-.03-1.7-.04-1.17.04-2.26.08-2.02.12.31,0,.9-.01,1.55-.02-.31.01-.5.02-.36.03.16,0,.65,0,1.43-.02l1.08.07.26-.03,6.19.04c4.43-.07,8.28-.18,15.31-.21-1.74.05-.38.09-.47.15-1.92-.07-5.44.03-9.09.01,1.9,0,1.48.04,1,.05l6.5-.06c-.15.05,1.38.04,3.08.06-1.28-.1,4.84-.07,7.49-.1.16.03-.47.07-3.7.06,3.56.08,4.6-.12,8.09-.05-.79,0-1.21,0-1.52.01,1.84-.03,6.34,0,5.28.02h-.79c5.23.01,15.92,0,16.7-.08.05.01-.69.1-1,.12l9.33-.29c-.82.07,2.33.25-2,.29,1.24.01,2.79.02,5.41,0-.85-.01-2.12-.11-.96-.11,3.23.06,2.22.04,6.14.11-1.27-.02.14-.13,2.15-.13-.31.02.17.11-.57.12l5.01-.11c-1.25.02-.22.1.9.13-.52-.02,4.33,0,5.66,0l-2.12-.03c4.76.01,5.43-.11,8.93-.14,0-.66,0-1.42,0-2.33.02.68.14,1.68.16-1.18-.06-1.31-.28-5.79-.32-10.75l.03-.95-.04-3.81c.09,2.37.27,9.02.34,12.66.03-2.12.04-.59.04-3.76.03-1.12.05,1.73.05,2.66l.02-7.38c-.07.33-.07-5.64-.12-5.36l.07,8.01c-.07.32-.19-4.63-.18-9.86.03-1.33.12.99.14.89-.02-.68-.04-4.96-.03-5.44l.04,2.22c.03-2.91-.09-4.75-.02-8.24,0-1.21.09-3.6.05-3.81-.08,1.97-.31,2.35-.37,1.04,0-.42.09-6.3.11-7.71.06-1.99.14,2.98.2,1.29-.02-.07-.04-1.17-.05-1.63.02-1.27.06.52.05-2.23-.07-.46,0-5.6-.06-1.3,0-2.7,0-2.87.01-6.03-.04,1.01-.15-2.84-.17-5.54.02.16.04-.45.05-.74.02-5.52.02-8.49.04-13.64.02-.47.04-2.96.07-1.9,0-.74-.02-1.44-.04-3.01.06-3.07,0,3.54.08,1.2-.04-.2-.05-4.11-.08-6.37-.06.7-.01,5.23.01,7.49-.02,0-.04-.24-.06-.69-.01-.48-.04-1.13-.06-1.94-.02-1.68-.05-4.01-.09-6.68-.02-4.28.05-1.85.04-2.6.01-8.03-.15-6.84-.09-13.52.05-2.65.11-.12.15-.71.02,3.48-.03,5.35-.03,7.71l.03-2.91c.02,1.11.03,3.43.02,4.7,0-2.27.04-13.56.05-19.77-.02-1.1-.04-3-.06-2.1v1.96c-.04,1.8-.05-3.69-.07-1.21-.03-2.63-.08-5.58-.05-9.28l.06-.7c-.02.08-.04,2.42-.02,3.46-.03-1.54.08-5.68,0-7.37l-.04,2.6c-.03-2.64-.1-5.91-.08-9.19-.06,1.49,0,.76-.06,3.09.09-2.02,0,8.4.09,5.15-.08,2.39-.04,4.14-.1,7.27.02-.1.04-1.11.03,1.65,0,.13.01.42.02.6,0,.08,0,.11,0,.19,0-.06,0-.1,0-.15,0,.12,0,.13,0-.06.01-.65.03-1.17.03-1.4.05,1.37.04,5.75.07,7.23,0,1.64-.02-.68-.04.21l.04,2.21c-.04.22-.07,4.34-.1.49v3.47c-.03,2.04-.04,4.85-.02,6.58,0,1.64.05,4.13.01,2.71l.03,5.44v.05c-.02,5.36.06,11.04-.02,17.18,0,1.81,0,3.67.01,6.69l-.04.59c.01,2.32-.04,6.96,0,7.96-.1,2.5-.02,11.25-.04,15.33l.05.15c0,2.81.02,5.5.03,8.98l.04-.21c.04,3-.03,7.72-.03,12.48-.02-.32-.01-1.53,0-2.38-.1,5.68.07,11.98,0,17.13.02,1.28.01,2.21,0,3.11,0-.12,0-.23,0-.32,0,.13,0,.33,0,.53,0,.48-.02.98-.02,1.52h0s0,0,0,0v-.15c0-.13.01-.26.01-.38,0-.25,0-.49,0-.71,0,.35,0,.77,0,1.27-.67,0-1.46,0-2.25.01l-.63-.05c-.12,0-.22,0-.34,0-1.44-.02-1.16.02-.39.06-.74.01-1.41.02-1.95.03-1.17-.08-3.86.03-5.46-.06-.99.04-7.4.03-8.18.12-.05-.01-.48-.02.31-.02-1.64,0-3.28-.02-4.75,0l-.7-.06-3.58.08c-2.18-.04-3.08-.06-.92-.11-5.23.06-4.2.05-8.67.1l.22-.04c-1.59,0-4.12.05-5.08.02-3.55-.08-17.55-.01-26.65-.08,1.77.12-4.23-.05-4.59.04-.53-.03-1.8-.04-.32-.07-4.65.03-6.98-.04-10.19.03-.53-.03.99-.04.52-.06-.37,0-1.48.02-1.96,0-.47-.02.68-.02,1.42-.04-4.75,0-5.23.09-5.57.17-2.41-.04-3.61-.03-5.34.02-.84-.03-2.23-.05.72-.06-.83,0-3.36,0-5.71-.01-1.17,0-2.3,0-3.15,0-.84,0-1.41.02-1.45.03-.52-.02-2.32,0-2.76,0-3.72,0-4.05,0-7.71,0h1.01c-.27.02-.53.03-.79.04-.25,0-.51,0-.78.01,0-1.07,0-2.39.01-4.25v.08c.03-6.77.02-2.9.04-9.58l-.05.36c-.1-.62.06-5.91.02-9.78l-.03,1.4c-.04-2.11.14-5.91.15-8.03,0-.46.01.73.02,1.38.06-5.56-.06-.72-.08-4.86.03-.76.09.98.09-1.8.03-1.39-.11-8.08-.05-11.89-.03.84-.05,1.67-.07-.25,0-2.95.1-7.97.02-10.63,0-.38.01-.52.02-.53-.02-2.25-.04-7.32-.08-8.68.08-1.04.06-4.54.04-7.78,0-1.62-.02-3.17-.02-4.31,0-1.14.01-1.88.05-1.87v-6.93s0,.18,0,.18c.01-4.43-.03-6-.06-7.55.01-1.02.02-.28.03-.19.03-6.47.02-7.12-.05-12.54l.05-.56c-.03-1.47.08-9.36.02-15.71,0,.06.02.19.02.7-.06-7.14.14-17.1-.04-19.72l-.04-4.71c-.01,6.1-.08-.91-.11,1.6-.01-2.4.05-6.2.06-3.25v.46c.08,1.08.02-7.58.09-7.41.02-12,.03-23.7.05-34.94l-.07,1.29v-3.92c.02-1.03.06-1.38.06,1.42.02-.74.01-1.91,0-2.91-.02-1-.04-1.82-.05-1.86.03-5.48.09,2.14.09.46v-2.28s-.01.51-.01.51c-.03-1.85-.06-2.01-.06-5.38.01-2.13.05-1.09.05-1.93,0,0,0-.28,0-1.28v-4.94s-.05,1.98-.05,1.98c-.03-2.19,0-4.65-.06-2.37.1-3.35.04-18.43.07-20.48-.01-1.41-.02-2.8-.03-4.26,0-1.42,0-2.91,0-4.54.24,0,.51,0,.78,0-.22,0-.42-.01-.56-.02-.09,0-.15-.02-.09-.03.07-.02.8-.03,2.4-.03-1.18.13,5.92.06,8.54.15-2.34-.06,9.19-.02,5.53-.11,2.7.01.16.05,2.21.08,6.42-.05,14.16.03,22.1.02.12-.02-1.21-.04.5-.07l4.19.09c1.57,0,1.44-.1,4.31-.04-.4-.01-1.01-.04.04-.04,15.55.09,31.78-.07,47.58.09-2.14-.03-.71-.04.92-.04-1.06,0,.02-.04-.18-.07l6.61.07c1.21-.07,7.09,0,7.78-.07h-2.09c2.79-.06-3.9-.15-3.49-.25-3.12.08-8.22-.13-13.34,0-1.13-.02.96-.03.36-.05-1.3.04-2.86.05-5.77.03h.33c-8.15-.03-11.65-.04-20.81-.07l.68.05c-1.96-.02-2.38-.02-3.3-.03-2.26.07,5.53,0,3.47.08-2.61-.1-13.88,0-15.65-.11-3.03,0,.89.05-2.14.05l-.8-.03-.77.04c-1.99,0-2.99-.04-3.06-.07.48,0,1.37,0,1.89,0-2.57-.03-7.26.01-8.14,0l2.91.02c-8.27.02-18.33.03-26.34.05l.61.02c-6.11,0-4.89,0-11.58,0h.24c-1.35,0-3.13.01-4.96.03.49,0,.43-.02.14-.02-.33,0-.91-.02-1.35-.02,0,.2,0,.38,0,.51,0,.09,0,.16,0,.19,0,.03-.01-.03-.02-.74,0,0,.04,0,.09,0-.03,0-.07,0-.09,0,.03,3.41.04,4.25.04,4.83.01.54.02.82.07,2.97l-.04,1.01c.03,1.49.05,1.61.06,4.96-.03-2.74-.06,2.13-.1-.94-.08,7.02.08,10.42-.04,13.64.1,3.22.06-6.07.08-4.27.03-1.51.08,2.66.07,4.86,0,2.24-.13,3.81-.13,9.45,0-.56,0-.6,0-1.16-.03,2.11.04,4.13,0,6.72.06,1.45,0,3.36.08,3.78l-.02-5.17c.02,2.93.11,5.68.07,10.51,0-.4-.03-1.82-.05-2.8,0,1.43,0,2.7,0,4.18-.08-.42-.02-6.28-.08-9.43-.03,1.52.06,5.94-.03,4.36.11,2.27-.01,5.55.07,9.37l-.05-.25c0,.61.02,1.86.03,2.97l-.06-2.01c.05,3.09-.05,5.96-.02,8.92,0-6.21.06-1.39.09-4.02.06,7.66-.12,4.4-.1,12.97,0-1.16.03-4.36.05-2.54-.02,1.62-.04,3.76-.05,4.79.01,5.68.05-.87.08,1.55-.06,1.93.02,2.79.04,5.28l-.05.02c-.03,6.47.1,1.72.06,7.54l-.07-2.46.02,3.04-.05-.63c.04,3.3.03,4.33.01,7.57.03-.75.09.42.09,3.29-.03,1.95-.05-1.09-.04,2.97-.03-.92-.07-1.92-.02-3.69,0-.22-.04-.87-.05-1.09-.03,2.11,0,5.29,0,6.76,0-.57,0-1.24.01-1.59l.07,5.89c-.02.93-.03.19-.05-.54,0,1.19.02,2.02.03,3.77-.04-.45-.08-.35-.1-2.83l.04,5.61c-.02.38-.05,2.88-.06,2.15.01,3.11.03,7.63.05,11.76,0,.23,0,.65.02,1.52,0,3.88-.06,7.31,0,11.91l-.07,2.61c.02,3.6.09-3.53.12,2.46.02,4.24-.06,1.58-.08,3.07.04,2.11.11,5.78.05,9.67,0-1.3,0-2.3,0-3.51ZM55.66,276.33c-.01-.86-.04-2.57-.01-3.2.06.98.03,1.74.01,3.2ZM84.99,314.79c-.64.02-1.63,0-2.74-.01.81,0,1.72,0,2.74.01ZM171.61,213.6s0,.06,0,.09c-.02,1.92-.01,1.24,0-.09ZM171.63,209.61c0-.4-.01-.37-.02-.2.01.28.01,1.17,0,2.19.01-.28.02-.8.01-1.99ZM56.07,107.95v.78c-.03-1.75-.01-1.26,0-.78Z"/><path class="g" d="M77.34,314.85c-.24,0-.31-.02-.37-.03-.34,0-.35.02.37.03Z"/><path class="g" d="M55.6,204.35v-.14c0-.07,0-.11,0-.14v.27Z"/><path class="g" d="M172.04,271.32c-.01.81-.02,1.27-.02,1.58.01.04.02-.33.02-1.58Z"/><path class="g" d="M171.55,188.51v2.55c.02-1.23.02-1.67.03-2.3-.01.06-.03.54-.03-.25Z"/><path class="g" d="M171.85,166.36c0-.38,0-.79,0-1.16l-.02.1c0,1.59.02,2.7.03,1.06Z"/><path class="g" d="M171.71,186.14c.04-.2.03-1.8.02-3.59v.32c-.06-.53-.04,1.38-.02,3.27Z"/><path class="g" d="M171.73,182.14c0-.55,0-1.11,0-1.65-.02-.21,0,.67,0,1.65Z"/><path class="g" d="M171.6,204.56c.01-.85-.05-.53-.04-1.01-.05-.95.06,5.65.04,1.01Z"/><polygon class="g" points="171.84 184.7 171.79 185.34 171.83 186.34 171.84 184.7"/><path class="g" d="M171.81,198.81v-2.86s0-.32,0-.77c0,.88,0,1.8,0,2.5s0,1.16,0,1.13Z"/><path class="g" d="M171.8,195.19c0-.92,0-1.78,0-2.3,0,.5,0,1.56,0,2.3Z"/><polygon class="g" points="171.86 188.6 171.85 189.45 171.84 191.46 171.86 188.6"/><path class="g" d="M171.8,229.51v3.12c.03.32.04-.53.04-1.69-.01-.75-.02-1.9-.04-1.42Z"/><path class="g" d="M171.93,220.08c-.01.84-.02.9-.04,1.37l.06.09-.02-1.47Z"/><path class="g" d="M171.95,229.17c.02.31.05,4.52.05.57-.02-.32-.03-3.44-.05-.57Z"/><polygon class="g" points="171.87 276.14 171.87 275.34 171.77 275.46 171.87 276.14"/><path class="g" d="M169,314.95c1.47,0,1.91,0,2.12,0,.25-.01.05-.03.96-.03,0-.31,0-.81,0-1.6,0-.27-.01-.11-.02.2,0,.37,0,.93-.01,1.38-.33,0-.61,0-.76,0-.1,0-.1,0,.08-.01-2.23.03-3.4.01-2.38.08Z"/><path class="g" d="M171.37,314.88c.21,0,.42,0,.66,0,0-.26,0-.55-.01-.85,0,.48,0,.8,0,.85-.41,0-.55,0-.66,0Z"/><polygon class="g" points="165.3 72.61 167.67 72.63 166.14 72.6 165.3 72.61"/><path class="g" d="M169.86,72.53l.56.06,1.43-.06c-.54,0-1.58,0-1.99,0Z"/><path class="g" d="M55.53,282.93l.02.18c.02-.37.02-.92.02-2.04l-.04,1.86Z"/><polygon class="g" points="55.58 250.72 55.58 251.28 55.63 250.24 55.58 250.72"/><path class="g" d="M55.5,223.69c0,1.1,0,2.4,0,3.51-.01-2.41.06-3.81,0-3.51Z"/><path class="g" d="M55.63,229.55c0-.79-.04-.51-.04-.63,0,1.32.06.59.04.63Z"/><polygon class="g" points="55.72 242.62 55.7 242.39 55.74 244.32 55.72 242.62"/><path class="g" d="M55.71,254.84c.07-1.16,0-4.43.02-6.61l.02-.36-.06-.98c0,2.65.02,6.08.02,7.95Z"/><path class="g" d="M55.55,261.36c.03-.4.02,1.41.01-1.52,0,.15,0,.19,0,.28,0,.26,0,.63,0,1.24Z"/><path class="g" d="M55.55,260.12c0-1.29-.02.84,0,0h0Z"/><path class="g" d="M55.56,266.06l-.02-1.7c-.02.35-.02,1.86-.03,1.3.01,1.74.03,1.38.06.39Z"/><path class="g" d="M55.61,267.67v-.88c-.02.15-.02.39,0,.88Z"/><path class="g" d="M55.58,264.93l.02,1.86c.01-.25.03-.27,0-.86.02.15,0-.22-.01-1.01Z"/><path class="g" d="M55.59,263.87c.02-.95.03-2.18.05-.48,0-3.24-.06-2.77-.05.48Z"/><path class="g" d="M55.78,255.47l.02-1.27-.02-1.1c.01.55-.02,2.45,0,2.37Z"/><path class="g" d="M55.51,276.63c.02.11.04-.57.06-.7l-.02-1.25c-.01.64-.02,1.86-.04,1.95Z"/><path class="g" d="M55.57,275.93l.02,1.87c0-1.67,0-1.98-.02-1.87Z"/><polygon class="g" points="55.69 267.97 55.64 264.89 55.69 268.57 55.69 267.97"/><polygon class="g" points="55.51 283.78 55.47 282.72 55.52 284.61 55.51 283.78"/><path class="g" d="M55.51,288.53c-.03-.79-.05,1.08-.07.25.02,1.27.04,2.38.05,3.38-.01-1.05,0-2.18.02-3.63Z"/><path class="g" d="M55.52,293.83c0-.52-.02-1.07-.03-1.67.01.55.02,1.1.03,1.67Z"/><path class="g" d="M55.59,281c0,.15-.03.42-.04,1.47l.04-.74c0-.23,0-.48,0-.74Z"/><path class="g" d="M55.59,281.71v.03c0,.8,0,1.35,0,1.59,0-.2,0-.69,0-1.62Z"/><path class="g" d="M55.59,280.81c0,.07,0,.12,0,.19,0-.07,0-.11,0-.19Z"/><path class="g" d="M55.65,272.89c.02,1.1.05,3.4.08,1.18-.03-.79-.05.48-.08-1.18Z"/><path class="g" d="M55.64,279.9v-1.99s-.02.4-.03-.15l.03,2.14Z"/><polygon class="g" points="55.66 280.87 55.64 279.9 55.64 280.63 55.66 280.87"/><path class="g" d="M55.56,290.42c0,.88.01,1.81.02,2.86,0-1.14.01-2.32.02-3.43-.01-.16-.04-.65-.04.57Z"/><path class="g" d="M55.58,286.18c0,.06,0,.14,0,.19,0-.12,0-.21,0-.19Z"/><path class="g" d="M55.58,303.74c0-.06,0-.11,0-.17v-.04s0,.21,0,.21Z"/><path class="g" d="M55.61,289.65c0-.86,0-1.37-.01-1.85,0,.64,0,1.32,0,2.05,0,.07,0,.08,0-.19Z"/><path class="g" d="M55.54,296.74c0-.45.02-.95.02-1.48-.01.44-.04,1.32-.02,1.48Z"/><path class="g" d="M55.57,286.66s0-.08,0-.13c0,.28,0,.25,0,.13Z"/><path class="g" d="M55.57,286.66c0,.43.02.78.02,1.13,0-.52,0-1-.01-1.42,0,.1,0,.21-.01.29Z"/><path class="g" d="M55.85,306.91c-.04-.15-.07-2.4-.03-4.34-.03-1.91-.16-.66-.23,1.01.02.06.03.06.05,2.03.02-.69.05-4.36.09-2.71.02,2.61-.02,2.14-.04,3.4.05-1.08.07,3.32.14,2.75l-.02-2.28s.03.79.04.15Z"/><path class="g" d="M55.59,299.82v-.81c-.02.91-.04,1.57-.06,2.8.02,1.35.03,1.63.05,1.72v-3.99s.01.28.01.28Z"/><path class="g" d="M55.59,295.38c.04.63.06,2.58.11,1.39,0-2.38-.03-1.66-.05-3.08,0,3.83-.02-1.1-.05,1.67,0-.76,0-1.43,0-2.07,0,.69-.01,1.35-.02,1.98,0-.03,0-.06,0-.09v-.02h0c0-.16,0-.22,0-.03,0,.01,0,.06,0,.08,0,.03.01.1.02.17-.01,1.11-.01.17-.02-.17,0-.01,0-.03,0-.05,0,0,0,0,0,.01l.02,3.84c0-.81,0-1.83,0-3.63Z"/><path class="g" d="M55.82,276.11c0,.12,0,.11-.01.12,0,.25,0,.34.01-.12Z"/><path class="g" d="M55.79,277.69c0-.28-.02-.51-.02-1.42.01-.79.02,0,.03-.04-.01-.55-.03-1.91-.05-.2v.27c-.01,1.55-.07,3.53-.07,3.26.04-.45.07-.85.11-1.88Z"/><path class="g" d="M55.7,286.64l.02,3.2.04-1.63-.02.08c.01-1.82-.02-1.43-.03-1.65Z"/><polygon class="g" points="55.55 304.1 55.51 303.68 55.57 305.53 55.55 304.1"/><polygon class="g" points="55.56 308.26 55.52 308.11 55.54 309.2 55.56 308.26"/><path class="g" d="M171.9,203.44l-.02-.94c0,.44.01.73.02.94Z"/><path class="g" d="M171.93,210.24l.02.17c-.01-.31-.02-.44-.02-.17Z"/><path class="g" d="M151.46,314.91c1.37.04,2.9.09,2.73.05l-.42-.04c-.96,0-1.68,0-2.31,0Z"/><path class="g" d="M172.43,265.98c0,.13,0,.27-.01.4.02.33.03.64.05.92-.01-.4-.02-.85-.03-1.32Z"/><path class="g" d="M172.24,265.02l.02-1.8c0,.41-.01.99-.02,1.8Z"/><path class="g" d="M171.68,166.29l-.05-1.1c0,1.72.03.96.05,1.1Z"/><path class="g" d="M91.96,314.9c1.19.01,2.12.02,2.95.03-1.42-.02-2.57-.06-2.95-.03Z"/><path class="g" d="M172.38,206.11c-.01-.57-.02-.82-.03-.8.01.59.02.93.03.8Z"/><path class="g" d="M98.32,314.93c-.21,0-.41,0-.62-.01-.87,0-1.73,0-2.79.01,1.05.02,2.25.03,3.41,0Z"/><path class="g" d="M81.15,187.63c-.08.05-.18.11-.26.16-.02.02.09-.05.26-.16Z"/><path class="g" d="M57.26,217.6c.11-.37.23-1,.43-1.56-.12.27-.22.75-.43,1.56Z"/><path class="g" d="M66.12,314.94c-.88,0-.14,0,0,0h0Z"/><path class="g" d="M61.83,314.77c.19,0,.33-.01.35-.02-.07.01-.2.02-.35.02Z"/><path class="g" d="M107.1,314.66s.05,0,.08,0c-.26,0-.22,0-.08,0Z"/><path class="g" d="M64.79,314.92c.33,0,.71,0,1.13.01-.18,0-.53,0-1.13-.01Z"/><path class="g" d="M64.97,314.94c-.3,0-.54,0-.77,0-.11,0-.01.01.77,0Z"/><path class="g" d="M67.35,314.94c-.5,0-.97,0-1.43,0,.17,0,.25,0,.2,0,.26,0,.62,0,1.23,0Z"/><path class="g" d="M146.68,164.29s-.08.09-.13.14c-.56.69-.31.39.13-.14Z"/><path class="g" d="M172.45,312.94s0,.06,0,.1c0-.04,0-.09,0-.13v.03Z"/><path class="g" d="M172.41,309.77c.06,1.35.06,2.11.05,3.14l.12-1.05-.17-2.09Z"/><path class="g" d="M171.82,187.15l-.03,2.22c-.08-2.68-.06-4.62-.11-2.54.14.31.05,8.64.19,8.95l-.02,1.47c0-.42,0-.49,0-.9-.05,2.85.11,2.12.11,5.79,0,1.28-.02,2.17-.04,1.3l.05,2.85c0,.83-.02.63-.02-.2l.03,4.35v-.03c.01.64.06,2.03.08,2.71-.01,1.1-.02-.55-.03-.27l.04,2.41c-.03.98-.07-1.01-.08-2.68-.13,2.25.04,2-.01,6.85l-.03-2.27c-.07,1.47-.03,3.24-.07,5.81.02-.61.1-5.15.14-2.53,0,.74,0,1.71.03,3.12-.02,0-.03.35-.03.92,0,.56,0,1.34.01,2.2l-.06-.12c.03,1.86.06,1.71.09,2.81,0,2.08-.04,2.51-.08,3,0,3.32.07-2.3.1,1.64-.01,2.76.02,4.71.08,8.01-.01,1.94-.04-.34-.06.36l.06,1.71c0,.42-.02.28-.02.22.03,1.45.06.12.09,2.39.07.61-.08,4.67.01,7.48-.01.69-.04-.33-.06-.12.08,3.84.07,3.28.14,6.48l-.03,2.7c.04-1.98.11.55.16,2.77.02-.71.03-1.31.05-1.71l.05,3.54c0,.43-.03.07-.06-.51,0,.24.01.47.02.65-.02,1.27-.06.61-.1-.3.01-.43.02-.86.03-1.28-.04-.87-.09-1.69-.13-1.51,0,.24.01.68.02,1.16-.01-.23-.02-.37-.03-.27,0,.12,0,.49.03,1.07l-.07.81.03.2-.02,4.63c.09,3.31.21,6.2.26,11.46-.06-1.31-.09-.28-.15-.35.06-1.44-.05-4.08-.05-6.8,0,1.42-.03,1.11-.04.75l.08,4.86c-.05-.11-.03,1.03-.05,2.3.1-.96.08,3.62.12,5.6-.03.12-.07-.35-.07-2.77-.06,2.66.13,3.44.08,6.06,0-.59,0-.91-.02-1.14.04,1.38.03,4.74,0,3.95v-.59c0,3.91.05,11.91.14,12.5-.01.04-.1-.51-.12-.75l.32,7.04c-.03-.31-.07-.05-.12.04-.16-.04-.22-.07-.1-.1,0-.04-.01-.09-.02-.14,0-.06-.01-.1-.02-.25,0-.28-.02-.63-.03-1.1,0,.4,0,.86,0,1.42-.59,0-1.3,0-2.21.02.64.01,1.58.11.72.11-2.38-.08-1.66-.04-4.59-.11.95.02-.11.13-1.61.13.24-.02-.13-.11.43-.12l-3.75.11c.94-.02.17-.1-.67-.13.39.02-3.24,0-4.24,0l1.59.03c-4.23-.02-4.18.16-8.38.15.51-.02,1.25-.14-.88-.16-.98.06-4.33.28-8.05.32l-.71-.03-2.85.04c1.77-.09,6.75-.27,9.47-.34-1.58-.03-.44-.04-2.81-.04-.84-.03,1.29-.05,1.99-.05l-5.52-.02c.25.07-4.22.07-4.01.12l6-.07c.24.07-3.47.19-7.38.18-1-.03.74-.12.66-.14-.51.02-3.71.04-4.07.03l1.66-.04c-2.18-.03-3.55.09-6.17.03-.9,0-2.7-.09-2.85-.05,1.47.08,1.76.31.78.37-.31,0-4.7-.09-5.77-.11-1.49-.06,2.23-.14.97-.2-.05.02-.88.04-1.22.05-.95-.02.39-.06-1.67-.05-.34.07-4.19,0-.97.06-2.02,0-2.15,0-4.51-.01.75.04-2.13.15-4.15.17.12-.02-.33-.04-.55-.05-4.13-.02-6.35-.02-10.21-.04-.35-.02-2.21-.04-1.42-.07-.55.01-1.06.04-2.25.04-2.3-.06,2.65,0,.9-.08-.15.04-3.07.05-4.77.08.52.06,3.91.01,5.61-.01,0,.04-.73.09-1.97.12s-2.99.07-5,.09c-3.2.02-1.39-.05-1.94-.04-6.01-.01-5.12.15-10.12.09-1.98-.05-.09-.11-.53-.15,2.61-.02,4,.03,5.77.03l-2.18-.03c.83-.02,2.57-.03,3.52-.02-1.73,0-10.15-.04-14.8-.05-.82.02-2.25.04-1.57.06h1.47c1.35.04-2.76.05-.9.07-1.97.03-4.18.08-6.95.05l-.52-.06c.06.02,1.81.04,2.59.02-1.16.03-4.25-.08-5.52,0l1.94.04c-.81.01-1.69.03-2.62.04,0-.77-.02-1.56-.03-2.36,0-.75,0-1.5,0-2.27-.06,1.12,0,.57-.07,2.31.02-.37.03-.19.04.26,0,.51,0,1.31,0,2.11.85,0,1.68,0,2.14,0,.4,0,.45-.02-.18-.04,1.79.08,3.1.03,5.44.1-.07-.02-.83-.04,1.23-.03.1,0,.32-.01.45-.02.06,0,.08,0,.14,0-.04,0-.07,0-.11,0,.09,0,.1,0-.04,0-.48-.01-.86-.03-1.05-.03,1.02-.05,4.3-.04,5.41-.07,1.22,0-.51.02.16.04l1.66-.04c.16.04,3.25.07.37.1h2.6c1.53.03,3.63.04,4.93.02,1.22,0,3.09-.05,2.03-.01l4.07-.03h.04c4.02.02,8.27-.06,12.86.02,1.35,0,2.75,0,5.01-.01l.44.04c1.74-.01,5.21.04,5.96,0,1.87.1,8.42.02,11.48.04l.12-.05c2.1-.01,4.11-.02,6.72-.03l-.16-.04c2.25-.04,5.78.03,9.34.03-.24.02-1.14.01-1.78,0,4.25.1,8.97-.07,12.82,0,.96-.02,1.66-.01,2.33,0-.09,0-.17,0-.24,0,.1,0,.24,0,.39,0,.42,0,.86.02,1.33.02-.41,0-.79-.02-1.12-.02.74,0,1.86-.01,2.97-.02l.47.05c.09,0,.16,0,.25,0,1.08.02.87-.02.29-.06.55-.01,1.05-.02,1.46-.03.88.08,2.89-.03,4.09.06.74-.04,5.54-.03,6.12-.12.04.01.36.02-.23.02,1.23,0,2.45.02,3.56,0l.52.06,2.74-.08c.08,0,.16,0,.2,0,0-.42.01-.77.02-1.04,0-.24.01-.41.02-.47.01-.14.03.11.06.89-.08-3.92-.06-3.13-.13-6.49l.04.16c0-1.19-.07-3.08-.04-3.8.06-2.66-.05-13.14-.01-19.95-.11,1.32.04-3.17-.05-3.44.03-.4.04-1.35.07-.24-.04-3.48.02-5.23-.07-7.63.03-.4.04.74.06.39,0-.28-.03-1.1-.01-1.47.01-.35.03.51.04,1.06-.02-3.55-.11-3.91-.19-4.17.03-1.8.02-2.7-.04-4,.02-.63.05-1.67.07.54,0-.62,0-2.52,0-4.28,0-1.76-.02-3.38-.05-3.44.01-.39,0-1.74-.01-2.06-.01-2.79-.01-3.03-.02-5.77v.76c-.09-1.08-.03-2.27-.05-4.48v.06c.01-5.07,0-2.16.01-7.17l-.05.27c-.11-.46.04-4.42-.01-7.32l-.02,1.05c-.04-1.58.12-4.42.12-6.01,0-.35.02.55.03,1.03.04-4.16-.06-.54-.09-3.64.03-.57.09.74.09-1.35.02-1.04-.14-6.05-.09-8.9-.02.63-.05,1.25-.07-.19-.02-2.21.07-5.97-.02-7.96,0-.28.01-.39.02-.4-.03-1.69-.06-5.48-.11-6.5.08-.78.05-3.4.01-5.82-.01-1.21-.03-2.37-.04-3.23,0-.86,0-1.41.05-1.4l-.03-5.19.02.14c0-3.32-.05-4.49-.09-5.65,0-.77.02-.21.03-.14,0-4.85,0-5.33-.1-9.39l.05-.42c-.03-1.1.04-7.01-.04-11.76,0,.05.02.15.02.52-.08-5.35.08-12.8-.11-14.76l-.03-1.83c-.01-.18.02-.44-.03-.55l-.54.26-.84.4c.58-.27,1-.46,1.31-.6l.06-.03s0,.04,0,.06c0,.04,0,.08,0,.12,0,.08,0,.15,0,.21,0,.12,0,.2,0,.26,0,.23-.02,0-.03-.28.13-.51-.4-.06-.51-.04-.15.08-.11.08.32-.12-1.64.78-4.24,1.91-2.25.97l.32-.14c.17-.11-.06-.01-.51.19-.22.11-.51.22-.81.38-.29.18-.61.37-.93.57-.64.4-1.3.8-1.8,1.11-.48.32-.78.57-.77.53-3.65,2.67-6.71,5.95-9.49,9.32-2.77,3.38-5.31,6.84-7.93,10.13l.66-.71-1.83,2.29c-.52.57-.69.77.62-.86-.37.45-.9,1.1-1.38,1.68-.47.58-.85,1.07-.86,1.1-1.34,1.55-1.13,1.2-.62.65.47-.59,1.18-1.44.77-.97-.37.43-.72.88-1.11,1.29l.27-.28c-.93,1.02-.95,1.17-2.71,2.95-1.17,1.08-.62.53-1.08.95,0,0-.16.14-.7.66-.9.83-1.9,1.54-2.85,2.32l1.19-.87c-.64.51-1.29,1.08-1.68,1.32-.38.24-.39.28.33-.17-.56.35-1.54.96-2.74,1.7-.6.38-1.33.66-2.05,1.03-.73.34-1.47.74-2.26,1-3.1,1.19-6.29,1.65-7.04,1.76-2.26.38-4.52.54-7.32.64.7-.02,1.12.04-1.3.11.88-.14-4.43.03-6.39-.03.88.02-.85.04-2.44.12-1.6.07-3.07.18-1.69.15-2.02.11-.13-.06-1.66.03-1.2.11-2.46.24-3.76.45-1.29.26-2.64.48-4.01.79-1.34.41-2.73.78-4.12,1.24-1.35.56-2.74,1.07-4.1,1.69-.08.06.82-.37-.3.23l-2.84,1.36c-1.04.56-.88.64-2.75,1.71.27-.15.66-.37,0,.05-9.88,6.22-17.97,16.16-21.92,27.37.58-1.5.22-.49-.2.66.28-.75.04.03.11-.11-.29.77-.46,1.59-.69,2.38-.21.8-.46,1.59-.63,2.4-.04.45-.24,1.77-.43,3.04-.05.32-.09.63-.14.93-.01.3-.02.58-.03.83-.02.5-.03.88-.02,1.01l.06-1.57c0,1.05.03.32.19-.62.19-.94.41-2.09.44-1.93.07-.58.16-1.25.29-1.98.2-.71.41-1.5.64-2.33.38-1.68,1.15-3.43,1.73-5.25.31-.78-.22.69-.04.27.08-.24.16-.48.24-.74.12-.26.24-.53.38-.84.29-.62.65-1.37,1.12-2.35l-.1.23c.17-.34.31-.68.48-.99.18-.31.35-.6.52-.89.34-.58.65-1.12.96-1.64.58-1.06,1.24-1.95,1.9-2.88.66-.92,1.29-1.89,2.16-2.86.86-.98,1.7-2.16,2.94-3.34l-.39.33c1.03-1.03,1.25-1.26,1.74-1.74,1.12-1.26-2.88,2.95-1.87,1.8.73-.65,2.46-2.59,4.41-4.18.47-.41.94-.82,1.39-1.21.47-.36.92-.69,1.33-.99.81-.59,1.44-1.04,1.72-1.22,1.85-1.29-.61.28,1.29-.94l.52-.29.46-.33c1.26-.78,1.91-1.14,1.97-1.15-.3.19-.86.55-1.19.75.42-.24.89-.57,1.43-.85.54-.28,1.1-.57,1.64-.84,1.06-.54,1.97-1.06,2.29-1.15-.67.27-1.3.63-1.95.95.69-.34,1.37-.76,2.12-1.04.75-.3,1.51-.61,2.28-.93.39-.16.77-.31,1.16-.47l1.21-.37c.81-.24,1.62-.49,2.44-.73.81-.26,1.66-.35,2.47-.53.82-.15,1.64-.34,2.45-.46,1.62-.21,3.2-.37,4.69-.46h-.45c4.55-.26,3.65-.13,8.65-.25h-.18c1.02-.02,2.35-.07,3.71-.11-1.27.08,2.38-.04.73.05,2.48-.14,3.09-.21,3.49-.26.4-.06.59-.06,2.21-.31l.75-.06c.55-.08.85-.16,1.31-.25.47-.09,1.11-.2,2.33-.5-2,.49,1.58-.31-.66.25,2.59-.53,4.45-1.21,5.89-1.91,1.43-.73,2.58-1.21,3.6-1.87,1-.7.02-.09-1.05.59-1.15.56-2.41,1.17-1.81.87-.52.23-.08,0,.68-.39.37-.2.85-.39,1.28-.67.43-.27.85-.55,1.2-.77.35-.22.68-.42,1.04-.64.18-.11.36-.22.55-.33.18-.13.37-.28.58-.43.81-.64,1.97-1.37,3.47-2.87-.3.29-.33.31-.63.6.59-.53,1.15-1.07,1.74-1.64.58-.58,1.15-1.24,1.83-1.93.72-.82,1.67-1.89,1.81-2.18-.81,1.01-1.69,1.96-2.57,2.91,1.5-1.61,2.78-3.23,5.06-6.04-.19.25-.83,1.09-1.26,1.68.67-.84,1.25-1.58,1.95-2.45-.07.15-.79,1.07-1.68,2.2-.91,1.1-1.98,2.37-2.76,3.3.79-.82,2.84-3.44,2.15-2.47,1-1.38,2.62-3.24,4.29-5.56l-.08.18c.27-.36.84-1.12,1.33-1.78l-.87,1.23c1.36-1.87,2.74-3.51,4.11-5.26-2.88,3.63-.7.77-1.94,2.3,1.75-2.26,2.28-2.9,2.89-3.57.31-.35.64-.71,1.13-1.25.25-.29.55-.63.91-1.05.38-.41.83-.89,1.38-1.47-.6.62-2.23,2.36-1.34,1.34.85-.87,1.95-2.05,2.5-2.55,3.09-2.88-.51.41.79-.84,1.1-.94,1.48-1.46,2.96-2.58l.04.03c.95-.74,1.49-1.15,1.85-1.35.35-.22.46-.31.57-.39.22-.13.34-.33,2.25-1.36-.56.25-1.04.65-1.55.97.63-.41,1.27-.82,1.96-1.11l-.4.25c1.04-.5,1.71-.82,2.38-1.14.03,0,.09-.07.09-.02v.13c0,.16,0,.33,0,.5,0,.45,0,.95,0,1.56.03-.56.09.32.1,2.46-.02,1.46-.05-.82-.03,2.22-.03-.69-.07-1.44-.04-2.76-.01-.18-.04-.63-.05-.82-.03,1.58.01,3.96.02,5.06,0-.42,0-.92,0-1.19l.09,4.41c-.02.69-.03.14-.05-.4.01.89.02,1.52.04,2.82-.04-.34-.08-.26-.11-2.12l.06,4.2c-.02.28-.04,2.16-.05,1.61-.01,2.33.1,5.71.09,8.8,0,.17.01.49.03,1.14,0,2.9-.03,5.47.04,8.91l-.06,1.95c.03,2.69.08-2.64.12,1.84.04,3.18-.05,1.19-.07,2.3.04,1.58.13,4.32.08,7.24,0-.97-.01-1.72-.02-2.62ZM172,220.37c-.01-.64-.05-1.93-.02-2.4.06.73.03,1.3.02,2.4ZM172.36,270.87c-.02-.48-.01-1.22,0-2.05,0,.61,0,1.28,0,2.05ZM75.78,314.9s.05,0,.07,0c1.44.02.93.01-.07,0ZM72.8,314.88c-.3,0-.28.01-.15.02.21-.01.88-.01,1.64,0-.21-.01-.6-.02-1.49-.01ZM140.06,170.97l.43-.39c-.94.91-.68.65-.43.39Z"/><path class="g" d="M172.26,265.15c0-.18.02-.23.02-.28,0-.25-.02-.26-.02.28Z"/><path class="g" d="M171.69,166.49v-.1s0-.08,0-.1v.2Z"/><path class="g" d="M118.99,314.47c.6.01.94.02,1.18.02.03-.01-.25-.02-1.18-.02Z"/><path class="g" d="M57,314.96h1.91c-.92-.02-1.25-.02-1.72-.03.04.01.41.03-.19.03Z"/><path class="g" d="M55.82,299.28c0-.28,0-.59,0-.87l-.02.08c0,1.19.02,2.02.03.79Z"/><path class="g" d="M55.67,314.09c.04-.15.03-1.35.02-2.69v.24c-.06-.39-.04,1.03-.02,2.45Z"/><path class="g" d="M55.69,311.09v-1.24c-.02-.16,0,.5,0,1.24Z"/><path class="g" d="M69.02,314.9c-.63-.01-.4.05-.76.04-.71.05,4.23-.06.76-.04Z"/><polygon class="g" points="55.81 313.01 55.75 313.49 55.79 314.24 55.81 313.01"/><path class="g" d="M64.71,314.7h-2.14s-.24,0-.57,0c.66,0,1.35,0,1.87,0,.52,0,.87,0,.84,0Z"/><path class="g" d="M62,314.71c-.68,0-1.33,0-1.72,0,.37,0,1.17,0,1.72,0Z"/><polygon class="g" points="57.07 314.65 57.7 314.66 59.21 314.66 57.07 314.65"/><path class="g" d="M87.69,314.71h2.33c.24-.03-.4-.04-1.27-.04-.56.01-1.42.02-1.07.04Z"/><path class="g" d="M80.63,314.57c.63.01.67.02,1.03.04l.07-.06-1.1.02Z"/><path class="g" d="M87.44,314.56c.23-.02,3.39-.05.43-.05-.24.02-2.57.03-.43.05Z"/><polygon class="g" points="122.59 314.64 122 314.64 122.08 314.74 122.59 314.64"/><path class="g" d="M153.58,314.4c-2.76-.02-.66.06-3.15.03-.65.02,2.04.02,1.38.05,1.67-.03,2.54-.01,1.78-.08Z"/><path class="g" d="M151.8,314.47c-.27,0-.55.01-.85.02.48,0,.71-.01.85-.02Z"/><path class="g" d="M55.92,224c-.12.59-.14,1.18-.17,1.78l.09-1.15.08-.63Z"/><path class="g" d="M55.77,227.43l-.08.42v1.07c.03-.4.06-1.19.08-1.49Z"/><path class="g" d="M171.9,225.31l.02.14c.02-.28.01-.69.01-1.53l-.03,1.39Z"/><polygon class="g" points="171.83 201.2 171.83 201.61 171.89 200.84 171.83 201.2"/><path class="g" d="M171.66,180.96c0,.83.01,1.8.02,2.63-.02-1.8.05-2.85-.02-2.63Z"/><path class="m" d="M288.36,442.57l42.35-16.56,13.98,55.93s6.32,26.26,10.45,55.69c1.36,9.7,2.47,19.74,3.05,29.31h-67.66s1.06-66.36,1.06-66.36l-3.24-58.01Z"/><path class="n" d="M121.48,187.26c-.25-7.75-4.08-33.48-4.32-41.23-3.41.07-6.79-.61-9.91-1.98-3.12-1.37-5.9-3.41-8.15-5.97-2.25-2.56-3.92-5.58-4.89-8.84-.97-3.27-1.21-6.71-.71-10.08.5-3.37,1.72-6.59,3.59-9.44,1.87-2.85,4.34-5.26,7.24-7.05,2.9-1.8,6.15-2.94,9.53-3.36,3.38-.41,6.82-.08,10.06.97-1.49-7.35-.46-14.98,2.92-21.68,3.37-6.69,8.9-12.06,15.69-15.24,6.79-3.18,14.46-3.98,21.76-2.27,7.3,1.7,13.82,5.81,18.51,11.66.5-9.04,10.29-14.56,19.13-16.69,7.4-2.19,15.32-1.86,22.51.94,3.52,1.52,6.42,4.19,8.22,7.58,1.81,3.38,2.41,7.28,1.71,11.05,3.21-4.03,7.89-6.62,13.01-7.21,2.53-.29,5.1-.07,7.55.63,2.45.7,4.74,1.88,6.74,3.47,2,1.59,3.66,3.55,4.9,5.79,1.24,2.23,2.02,4.69,2.31,7.22.29,2.53.07,5.1-.63,7.55-.71,2.45-1.88,4.74-3.47,6.74,5.05,2.4,9.07,6.54,11.32,11.66,2.25,5.12,2.58,10.88.92,16.22-1.65,5.34-5.18,9.91-9.93,12.86-4.75,2.95-10.4,4.1-15.93,3.22"/><path class="m" d="M230.75,298.3c-1.03-10.82-1.81-19.35-1.72-19.36s36.65-7.63,35.18-44.63c-.7-17.8-5.15-54.5-9.55-87.63-2.29-17.17-10.95-32.85-24.27-43.92-13.32-11.07-30.32-16.72-47.62-15.82l-3.57.18c-38.31,4.25-56.12,39.15-50.84,77.33l14.29,134.18,74.69,41.74,13.41-42.07Z"/><path class="j" d="M229.03,278.94s-23.22,2.54-48.84-11.73c0,0,12.98,26.82,49.66,21.61l-.83-9.88Z"/><path class="f" d="M291.32,390.86l-.27,176.09-238.53-.02s18.72-245.87,23.76-248.27c3.81-1.79,49.89-16.92,49.89-16.92l8.82-19.07,96.48,29.4,30.79,6.69,29.07,72.1Z"/><path class="h" d="M126.16,301.74c.08.32.19.63.34.93.25.64.62,1.53,1.08,2.64l4.11,9.86c1.73,4.22,3.81,9.32,6.01,15.13,2.53,6.39,4.71,12.91,6.51,19.54l.2.79.47-.65c2.03-2.73,4.05-5.66,6.18-8.62,2.12-3.06,4.49-5.94,7.08-8.62,1.86-1.86,3.83-3.61,5.9-5.24h-.53c12.6,13.45,24.42,24.77,33.12,32.67,4.35,3.95,7.91,7.05,10.39,9.16l2.86,2.42.75.61.28.19c-.07-.09-.14-.18-.23-.25l-.7-.66-2.77-2.54c-2.42-2.17-5.92-5.34-10.17-9.34-8.59-7.98-20.34-19.36-32.9-32.81l-.25-.27-.28.22c-5.09,3.94-9.52,8.66-13.13,13.98-2.12,2.99-4.13,5.9-6.15,8.63l.67.14c-1.83-6.66-4.05-13.2-6.64-19.6-2.26-5.81-4.39-10.88-6.19-15.09-1.8-4.21-3.27-7.51-4.3-9.77-.52-1.11-.92-1.97-1.21-2.54-.14-.31-.31-.62-.51-.9Z"/><path class="m" d="M230,294.15l2.83,43.05-20.45,36.56-74.79-91.13s91.72,11.47,92.41,11.52Z"/><path class="f" d="M250.58,309.99c.27,1.77,16.23,32.13,16.23,32.13,0,0-20.34-20.62-20.02-19.71.32.9-31.57,46.1-31.57,46.1l17.34-40.04-2.94-44.49,20.96,26.01Z"/><path class="h" d="M250.58,309.99s-.1-.17-.33-.47l-1.05-1.35c-.95-1.27-2.34-2.96-4.11-5.2l-15.25-19.07-.44-.56v.72c.8,12.32,1.77,27.47,2.86,44.49v-.14s-17.03,39.25-17.03,39.25l-.3.7-1.27,2.96,1.86-2.63c9.43-13.41,18.39-26.2,26.39-37.97l2.92-4.39,1.39-2.17c.23-.37.46-.72.66-1.11l.15-.31v-.19c.01-.08.01-.17-.01-.25,0-.06,0,.09,0,.17-.03.07-.09.12-.15.15-.03.02-.06.02-.09.02s-.06,0-.09-.02c.15.11.29.22.43.34,2.47,2.26,4.78,4.59,7.03,6.8l12.47,12.48,1.11,1.11-.74-1.39c-5.19-9.84-9.36-17.8-12.19-23.35-1.41-2.77-2.54-4.92-3.22-6.36-.36-.74-.61-1.27-.79-1.69-.18-.42-.24-.58-.24-.58,0,0,0,.2.18.61.18.41.39.97.72,1.72.67,1.5,1.73,3.67,3.11,6.46,2.76,5.58,6.86,13.59,12.01,23.46l.37-.28-12.41-12.53c-2.25-2.24-4.54-4.56-7.04-6.85-.17-.17-.36-.31-.56-.45-.07-.02-.15-.02-.23,0-.04.01-.08.04-.11.07-.03.03-.05.07-.06.11-.28.17.33.14.22.14-.08.02-.16.02-.24,0v.11l-.14.25c-.2.37-.42.72-.65,1.09l-1.4,2.16-2.92,4.36c-8.01,11.74-16.98,24.52-26.43,37.93l.57.32.3-.7c6.03-13.91,11.77-27.21,17.02-39.34v-.14c-1.14-17.01-2.17-32.16-3.01-44.49l-.41.17,15.43,18.95,4.22,5.08,1.11,1.27.38.5Z"/><g class="o"><path class="c" d="M54.83,536.12l126.73-199.02,10.94,8.35c-.44,1.01-.8,2.05-1.08,3.11-1.94,6.64-5.68,22.55-12.62,45.76-8.55,28.71-34.32,90.81-56.6,121.28-22.28,30.47-32.22,38.32-48.62,39.09-16.4.76-20.11-.19-20.11-.19l1.36-18.38Z"/></g><path class="h" d="M229.83,285.42c.21.49.46.97.76,1.41l2.21,3.81c1.84,3.18,4.28,7.63,6.7,12.71,2.42,5.08,4.32,9.77,5.62,13.21l1.53,4.08c.16.51.36,1.01.61,1.49-.06-.53-.19-1.06-.37-1.56-.28-.99-.72-2.42-1.27-4.16-1.58-4.55-3.4-9-5.47-13.35-2.06-4.36-4.36-8.61-6.9-12.71-.98-1.56-1.79-2.81-2.39-3.66-.29-.46-.64-.89-1.03-1.27Z"/><path class="f" d="M76.27,318.66s-34.93,7.13-42.82,40.78c-6.09,26.08-15.65,78.48-15.65,78.48l57.66-4.02,18.01-25.99-17.2-89.24Z"/><path class="m" d="M185.85,355.7s-54.82,122.9-73.27,149.34c-19.07,27.35-37.14,44.49-60.61,37.33-23.46-7.16-32.51-24.42-33.28-41.12-.69-16.16,6.06-65.49,6.06-65.49l50.73-1.89,68.87-99.35,41.49,21.18Z"/><path class="h" d="M99.01,378.5c.11-.72.17-1.45.15-2.19.05-.85.05-1.7,0-2.54,0-1,0-2.14-.18-3.39-.18-1.26-.23-2.63-.47-4.08-.24-1.45-.53-3.03-.88-4.65-.83-3.52-1.93-6.96-3.31-10.31-1.4-3.36-3.05-6.6-4.96-9.7-.93-1.39-1.78-2.72-2.69-3.89-.92-1.17-1.75-2.26-2.54-3.22-.79-.95-1.6-1.78-2.29-2.54-.57-.63-1.19-1.23-1.83-1.79-.51-.52-1.06-1-1.65-1.44.45.58.94,1.12,1.47,1.61.5.5,1.09,1.11,1.74,1.87.65.76,1.44,1.56,2.2,2.54.76.98,1.64,2.03,2.48,3.24.84,1.21,1.72,2.54,2.62,3.81,1.86,3.06,3.5,6.24,4.91,9.53,1.36,3.3,2.46,6.7,3.32,10.17.36,1.61.72,3.14.93,4.59.2,1.45.42,2.81.56,4.05.14,1.25.19,2.36.27,3.36s.1,1.84.1,2.54c-.04.81-.03,1.61.05,2.42Z"/><path class="j" d="M41.07,485.1c.15-.17.28-.35.39-.55l1.04-1.64c.89-1.44,2.17-3.51,3.81-6.05,3.23-5.08,7.83-12.04,13.03-19.63,5.2-7.59,10.03-14.41,13.5-19.37l4.07-5.87c.44-.65.8-1.18,1.08-1.61.14-.18.26-.37.34-.58-.16.15-.31.32-.45.51l-1.23,1.59-4.25,5.76c-3.55,4.88-8.39,11.67-13.6,19.27-5.21,7.6-9.74,14.59-12.88,19.75-1.59,2.54-2.81,4.68-3.64,6.15-.37.7-.67,1.27-.93,1.72-.13.17-.23.36-.3.56Z"/><path class="f" d="M277.79,361.6c0-.46-22.31-44.3-22.31-44.3,21.85,2.3,41.36,10.02,54.05,26.69,5.62,7.71,10.19,16.12,13.61,25.03,8.9,21.89,24.65,72.82,24.65,72.82l-63.55,33.05-6.44-113.29Z"/><path class="h" d="M291.58,378.77c-.18,0-.45,41.63-.59,92.97s-.12,92.99.06,92.99.45-41.63.6-92.99c.15-51.36.12-92.98-.07-92.97Z"/><path class="m" d="M132.81,191.65c-.64-.24-25.77-6.19-23.66,19.07,2.11,25.26,27,17.88,26.99,17.16-.01-.72-3.33-36.23-3.33-36.23Z"/><path class="j" d="M127.64,218.95c-.13-.08-.42.34-1.13.74-1.01.54-2.18.66-3.28.34-2.75-.75-5.34-4.79-5.85-9.33-.24-2.14,0-4.31.7-6.36.17-.82.54-1.58,1.08-2.22.54-.64,1.22-1.14,2-1.45.49-.18,1.03-.18,1.52,0s.91.52,1.17.98c.39.67.28,1.19.42,1.27.14.08.5-.47.22-1.5-.2-.61-.6-1.14-1.13-1.5-.74-.46-1.63-.61-2.48-.43-1.93.29-3.53,2.24-4.26,4.3-.9,2.27-1.22,4.73-.94,7.16.58,5.08,3.58,9.6,7.32,10.35.69.14,1.41.13,2.1-.05.69-.17,1.33-.5,1.87-.96.67-.67.76-1.3.67-1.33Z"/><path class="h" d="M213.16,214.56c3.28-1.19,6.69-1.96,10.16-2.31,1.6-.25,3.09-.64,3.3-1.74.09-1.67-.36-3.33-1.28-4.72l-5.29-12.04c-7.42-17.12-12.86-31.26-12.15-31.54.71-.28,7.1,13.36,14.63,30.51,1.81,4.23,3.55,8.24,5.12,12.11,1.11,1.9,1.51,4.12,1.14,6.29-.21.58-.55,1.1-1,1.52-.44.42-.98.74-1.56.93-.87.29-1.78.47-2.7.53-3.43.58-6.91.74-10.37.46Z"/><path class="l" d="M157.56,146.03c.35-1.78,6.71-1.88,13.89-3.84,7.18-1.95,12.82-4.8,14.03-3.55.53.68-.25,2.42-2.42,4.4-2.86,2.53-6.28,4.33-9.98,5.26-3.69.98-7.56,1.09-11.3.32-2.84-.6-4.37-1.74-4.23-2.59Z"/><path class="l" d="M246.87,143.16c-1.07,1.49-5.47,0-10.66.36-5.19.36-9.59,1.39-10.66,0-.46-.71.18-2.2,2.02-3.55,2.51-1.75,5.49-2.71,8.54-2.78,3.06-.06,6.07.78,8.65,2.42,1.88,1.53,2.56,2.98,2.1,3.55Z"/><path class="h" d="M185.09,187.88c.08,1.57-.46,3.1-1.49,4.28-1.03,1.18-2.49,1.91-4.05,2.04-.76.09-1.54.03-2.27-.18-.74-.21-1.43-.56-2.03-1.04s-1.1-1.07-1.46-1.75c-.37-.68-.59-1.42-.67-2.18-.09-1.56.44-3.1,1.47-4.28,1.03-1.18,2.48-1.91,4.04-2.04.76-.09,1.54-.03,2.28.17.74.21,1.43.56,2.03,1.04.6.48,1.1,1.07,1.47,1.75.37.68.6,1.42.68,2.18Z"/><path class="h" d="M239.91,186.96c.08,1.57-.46,3.1-1.49,4.28-1.03,1.18-2.49,1.91-4.05,2.04-.76.09-1.54.03-2.27-.18-.74-.21-1.43-.56-2.03-1.04-.6-.48-1.1-1.07-1.46-1.75-.37-.68-.59-1.42-.67-2.18-.08-1.57.46-3.1,1.49-4.28,1.03-1.18,2.49-1.91,4.05-2.04.76-.09,1.53-.03,2.27.18.74.21,1.43.56,2.03,1.04.6.48,1.1,1.07,1.46,1.75.37.68.59,1.42.67,2.18Z"/><path class="l" d="M246.23,164.26c-.6.89-5.19-2.24-11.08-1.56-5.9.68-9.81,4.55-10.66,3.8-.85-.75,0-1.92,1.85-3.55,2.2-2.29,5.15-3.73,8.31-4.05,3.16-.33,6.33.48,8.96,2.28,2.1,1.24,2.91,2.66,2.63,3.09Z"/><path class="l" d="M189.78,169.13c-.78.92-5.86-3.02-12.97-2.95-7.1.07-12.26,3.91-13.04,2.98-.78-.92.43-2.1,2.66-3.87,3-2.3,6.67-3.54,10.44-3.55,3.75-.02,7.39,1.23,10.34,3.55,2.2,1.74,2.95,3.41,2.56,3.84Z"/><path class="d" d="M187.93,227.1c1.21-1.12,2.64-1.98,4.2-2.51,1.56-.53,3.22-.73,4.86-.58,1.64.19,3.19.87,4.42,1.97,1.24,1.09,2.11,2.54,2.5,4.14.28,1.89.07,3.82-.6,5.61-.22,1.03-.68,1.99-1.35,2.81-.83.67-1.8,1.15-2.84,1.4-1.04.25-2.12.25-3.16.02-4.05-.33-8.08-.95-12.04-1.85-.31-.07-.6-.21-.85-.41-.25-.2-.45-.45-.59-.74s-.21-.6-.2-.92c0-.32.08-.63.22-.92,1.35-2.96,3.18-5.68,5.44-8.03Z"/><path class="h" d="M200.55,239.57c-2.53-.57-5.09-.96-7.67-1.17-2.74-.41-5.46-.98-8.13-1.71-.71-.15-1.4-.37-2.06-.67-.32-.21-.39-.5,0-1.21.75-1.51,1.64-2.93,2.66-4.26,1.95-2.64,4.7-4.56,7.85-5.47,1.25-.38,2.56-.51,3.86-.36,1.29.15,2.55.56,3.68,1.21,1.45,1.03,2.47,2.56,2.88,4.3.36,1.24.39,1.99.53,1.99s.32-.75,0-2.13c-.09-1.02-.39-2.01-.88-2.9-.49-.9-1.15-1.69-1.96-2.32-1.26-.85-2.68-1.41-4.18-1.66-1.5-.25-3.03-.18-4.49.21-3.56.92-6.7,3.04-8.88,6-1.18,1.47-2.17,3.08-2.95,4.8-.23.54-.29,1.13-.18,1.7.05.33.17.64.35.92.18.28.43.51.71.68.82.4,1.69.68,2.59.82,2.77.68,5.58,1.14,8.42,1.38,2.6.42,5.26.37,7.85-.14Z"/><path class="i" d="M148.61,267.65c.19.08,1.55-3.41,4.14-7.17,2.59-3.76,5.3-6.36,5.16-6.47-.72.41-1.36.93-1.91,1.55-2.84,2.78-5.1,6.1-6.67,9.75-.37.73-.61,1.52-.72,2.34Z"/><path class="m" d="M184.92,358.06s13.3-18.69,15.74-35.35c2.44-16.66,6.24-24.65,6.24-24.65,0,0,10.77-12.84,9.02-20.13-1.74-7.3-5.9-5.9-5.9-5.9,1.16-1.66,1.73-3.66,1.6-5.68-.13-2.02-.94-3.94-2.3-5.43-4.86-5.55-12.14-.34-12.14-.34,0,0,9.98-8.9,4.16-14.24-4.46-4.13-10.07,0-10.07,0l-12.84,7.28s14.3-15.55,14.3-20.03c0-4.49-4.73-8.59-8.9-5.81-4.17,2.78-23.11,23.1-23.11,23.1l-7,7.73-1.86-5.35c-2.05,2.94-4.44,5.64-7.11,8.03-2.54,2.4-4.72,4.72-6.27,6.36-1.5,1.61-2.34,3.73-2.35,5.94,0,6.58.09,20.78,1.67,24.48,2.08,4.87,10.47,30.77,10.47,30.77l-7.63,11.08"/><path class="i" d="M140.63,339.92l.52-.7,1.49-2.1,5.77-8.2v-.06c-1.27-3.81-2.72-8.38-4.45-13.7-1.73-5.33-3.75-11.44-6.24-18.02-.71-3.62-1.09-7.29-1.13-10.98-.15-3.81-.2-7.88-.18-12.05-.09-2.08.59-4.12,1.89-5.75,1.42-1.56,3.01-3.1,4.55-4.69,3.09-3.19,6.57-6.24,9.27-10.17h-.53s1.86,5.34,1.86,5.34l.16.48.34-.38c7.21-8.05,15.06-16.38,23.52-24.8,2.08-2.15,4.31-4.16,6.66-6.01.61-.38,1.29-.64,2-.74.71-.1,1.44-.02,2.11.23,1.38.52,2.53,1.52,3.24,2.81.38.64.65,1.33.79,2.06.07.36.12.73.13,1.09.01.36-.04.72-.15,1.06-.52,1.44-1.23,2.82-2.1,4.08-1.75,2.64-3.64,5.18-5.66,7.63-2.05,2.54-4.16,4.93-6.36,7.28l-1.4,1.54,1.88-1.23,12.84-7.3c1.84-1.33,4.1-1.92,6.36-1.68,1.1.2,2.12.69,2.95,1.44.42.36.79.76,1.13,1.19l.38.71c.06.13.13.24.18.36l.1.39c.6,2.12-.34,4.36-1.44,6.24-1.18,1.87-2.61,3.58-4.23,5.08l.39.5c1.77-1.2,3.81-1.94,5.94-2.15,1.03-.06,2.07.1,3.04.46.96.39,1.83.97,2.54,1.72,1.46,1.44,2.36,3.35,2.54,5.39.11,1.99-.44,3.96-1.58,5.61l-.45.66.78-.2c.65-.13,1.32-.08,1.94.14.62.22,1.17.61,1.58,1.13.85,1.06,1.46,2.29,1.79,3.61.88,2.61.11,5.34-.8,7.78-2.01,4.66-4.67,9-7.92,12.9-3.81,9.24-5.2,18.2-6.44,25.98-.65,3.6-1.64,7.13-2.96,10.55-1.21,3.17-2.44,6.01-3.69,8.5-1.89,3.86-3.97,7.62-6.24,11.26l-1.8,2.85-.61.97s.24-.31.67-.93c.43-.62,1.07-1.55,1.87-2.8,2.32-3.62,4.44-7.36,6.36-11.21,1.27-2.54,2.54-5.34,3.75-8.52,1.35-3.43,2.37-6.99,3.04-10.61.66-3.9,1.27-8.06,2.31-12.41,1.01-4.58,2.4-9.07,4.18-13.41,3.3-3.94,6.01-8.33,8.05-13.04l.37-.94.29-.98c.19-.66.34-1.33.45-2.01.07-.34.1-.69.1-1.04.03-.36.03-.71,0-1.07-.19-2.16-.99-4.21-2.3-5.94-.48-.6-1.13-1.06-1.86-1.32-.73-.26-1.52-.31-2.27-.14l.33.46c1.22-1.76,1.81-3.87,1.69-6-.18-2.18-1.13-4.23-2.68-5.77-.76-.81-1.68-1.45-2.71-1.88-1.06-.38-2.18-.55-3.3-.5-2.24.21-4.4.99-6.27,2.25l.39.5c1.68-1.54,3.14-3.29,4.36-5.21.61-.99,1.09-2.06,1.42-3.18.37-1.15.4-2.39.09-3.56l-.11-.45c0-.14-.14-.28-.2-.41l-.43-.81c-.39-.46-.81-.89-1.27-1.27-.92-.81-2.05-1.35-3.25-1.56-1.21-.2-2.45-.12-3.62.23-1.18.34-2.29.86-3.3,1.55l-12.85,7.28.41.51c2.14-2.36,4.26-4.8,6.36-7.31,2.03-2.44,3.93-4.98,5.69-7.63.91-1.31,1.65-2.74,2.19-4.25.13-.41.19-.84.18-1.27-.01-.41-.06-.81-.14-1.21-.16-.8-.45-1.56-.86-2.26-.79-1.43-2.07-2.53-3.6-3.1-.77-.27-1.6-.36-2.42-.25-.8.12-1.58.4-2.26.84-2.39,1.87-4.64,3.9-6.75,6.09-8.47,8.44-16.32,16.8-23.52,24.88l.51.1c-.65-1.86-1.27-3.7-1.86-5.35l-.2-.56-.33.51c-1.33,1.89-2.8,3.66-4.41,5.31-1.58,1.64-3.2,3.19-4.75,4.8-1.55,1.61-3.11,3.13-4.59,4.75-1.38,1.72-2.09,3.88-2,6.09,0,4.17,0,8.2.22,12.06.06,3.72.46,7.43,1.19,11.08,2.54,6.65,4.52,12.71,6.36,18.01l4.56,13.74v-.11c-2.47,3.61-4.37,6.36-5.66,8.27l-1.45,2.14c-.3.45-.44.7-.44.7Z"/><path class="m" d="M147.99,258.57l5.6-6.69s1.25-1.08,2.5,0,1.62,1.86,1.62,1.86l-5.45,6.01-.82.83-2.02.93-1.43-1.23v-1.7Z"/><path class="i" d="M151.91,252.57s5.75-5.4,8.31-1.64c.06-.03-.52.57-.52.57,0,0-.74-1.53-2.05-1.24-1.31.28-4.89,2.65-5.4,3.26-.1-.3-.34-.94-.34-.94Z"/><path class="n" d="M264.02,108.27c-.92-3.47-2.6-6.69-4.92-9.43-2.32-2.74-5.22-4.93-8.49-6.42-6.56-2.89-13.54-4.7-20.67-5.37-25.09-3.58-51.17-5.27-75.41,2.19-12.06,3.04-22.75,10.04-30.36,19.87-6.11,8.99-10.98,22.06-6.66,31.5l5.91,54.95c3.68.37,7.39.37,11.08,0v-43.87c3.17.47,6.4.28,9.49-.55,4.52-1.3,8.58-3.86,11.7-7.38,3.12-3.52,5.18-7.85,5.94-12.49,3.47,4.93,8.43,8.62,14.14,10.54,5.71,1.92,11.89,1.96,17.63.13,5.74-1.83,10.75-5.45,14.29-10.33,3.54-4.88,5.44-10.76,5.41-16.78,2.97,5.31,7.29,9.74,12.53,12.84,5.23,3.1,11.2,4.75,17.28,4.8,12.32-.45,23.6-12.27,21.11-24.2Z"/><path class="e" d="M503.67,189.29c13.74-6.71,21.55-25.58,16.81-40.7-4.74-15.11-21.33-24.11-35.64-19.43,1.15-16.89-10.78-38.47-28.1-44.99-17.32-6.52-46.71-11.74-64.15,15.58-10.23-6.28-17.85-9.69-26.44-10.02-11.98-.43-22.29,3.29-31.47,15.75-7.69,10.43-10.1,31.08-1.31,39.57-10.37.7-19.92,9.28-23.29,20.06-1.62,5.15-1.99,10.61-1.07,15.93.92,5.32,3.09,10.34,6.34,14.66,3.25,4.31,7.48,7.78,12.35,10.13,4.86,2.34,10.22,3.49,15.61,3.35-.76,16.11,1.35,28.63,13.52,37.36,13.42,9.65,34.13,11.43,47.95,5.44,0,0-1.74,19.59-8.67,34.44,0,0,16.11-1.55,33.33-18.24,10.23-9.9,13.37-18.4,13.37-18.4,11.45,4.9,24.25,5.69,36.22,2.23,6.21-1.94,11.93-5.18,16.78-9.5,4.86-4.32,8.73-9.63,11.38-15.57,5.26-12.25,4.23-27.61-3.52-37.65Z"/><path class="h" d="M503.67,189.29l1.23,1.64c1.12,1.64,2.07,3.4,2.84,5.24,2.88,7.13,3.6,14.96,2.05,22.49-1.04,5.48-3.2,10.69-6.32,15.32-3.72,5.53-8.61,10.17-14.31,13.62-3.16,1.93-6.52,3.48-10.04,4.62-3.76,1.13-7.64,1.82-11.55,2.05-8.57.44-17.14-1.02-25.07-4.29l.51-.2c-4.27,8.88-10.51,16.67-18.24,22.78-4.05,3.39-8.46,6.34-13.15,8.79-4.89,2.62-10.17,4.42-15.64,5.34l-.8.12.35-.76c2.35-5.27,4.19-10.74,5.5-16.36,1.42-5.89,2.46-11.87,3.09-17.89l.67.49c-6.82,2.72-14.16,3.89-21.49,3.41-7.63-.39-15.1-2.37-21.92-5.81-3.51-1.78-6.72-4.11-9.49-6.91-2.81-2.87-5.02-6.27-6.5-10-2.92-7.57-3.13-15.87-2.78-23.97l.53.55c-5.16.14-10.28-.89-14.99-3-4.71-2.11-8.88-5.25-12.21-9.19-3.33-3.94-5.73-8.58-7.02-13.58-1.29-4.99-1.45-10.22-.45-15.28,1.23-6.1,4.26-11.7,8.69-16.07,4.25-4.5,9.98-7.31,16.13-7.93l-.33.9c-1.7-1.77-3.04-3.86-3.95-6.13-.84-2.27-1.39-4.63-1.64-7.03-.44-4.72-.09-9.47,1.04-14.07,1.04-4.56,2.93-8.89,5.56-12.76,2.66-3.76,5.88-7.08,9.55-9.86,3.65-2.69,7.83-4.58,12.27-5.54,4.36-.9,8.85-1.1,13.27-.57,4.33.59,8.53,1.86,12.47,3.74,3.83,1.83,7.56,3.88,11.17,6.13l-.65.16c3.34-5.23,7.65-9.78,12.7-13.39,5.01-3.43,10.7-5.74,16.69-6.75,11.68-2.04,23.17.16,33.31,3.68,5.07,1.66,9.74,4.35,13.72,7.89,3.79,3.37,7.04,7.3,9.63,11.66,4.96,7.96,7.45,17.21,7.16,26.58l-.47-.35c6.73-2.07,14-1.47,20.31,1.66,5.59,2.7,10.23,7.02,13.31,12.41,2.59,4.69,3.88,9.98,3.76,15.34-.06,4.47-.94,8.89-2.58,13.05-2.15,5.74-5.78,10.81-10.51,14.7-1.21.99-2.52,1.85-3.91,2.58l-1.43.76,1.35-.82c1.37-.77,2.66-1.67,3.86-2.68,4.62-3.93,8.14-8.99,10.22-14.68,1.57-4.11,2.4-8.46,2.45-12.86.12-5.68-1.41-11.27-4.4-16.09-3-4.82-7.33-8.68-12.47-11.08-6.16-3.03-13.25-3.59-19.82-1.57l-.49.16v-.51c.28-9.24-2.2-18.35-7.12-26.18-5.09-8.95-13.25-15.75-22.97-19.16-10.06-3.46-21.43-5.6-32.86-3.56-5.79,1.02-11.28,3.28-16.11,6.63-4.94,3.56-9.16,8.02-12.43,13.15l-.27.39-.41-.25c-7.1-4.25-14.68-8.61-23.25-9.67-4.32-.5-8.69-.31-12.95.57-4.31.92-8.37,2.75-11.9,5.38-3.58,2.71-6.73,5.95-9.32,9.61-2.58,3.76-4.43,7.97-5.46,12.41-1.11,4.48-1.45,9.11-1.02,13.7.23,2.3.75,4.57,1.53,6.75.86,2.13,2.11,4.08,3.7,5.75l.82.82h-1.15c-5.92.59-11.43,3.29-15.52,7.61-4.23,4.3-7.08,9.77-8.18,15.71-.97,4.91-.82,9.97.43,14.81,1.25,4.84,3.58,9.34,6.81,13.16,3.23,3.82,7.28,6.86,11.84,8.91,4.57,2.04,9.53,3.03,14.53,2.89h.51v.55c-.37,8.06-.14,16.22,2.68,23.56,1.43,3.6,3.57,6.88,6.28,9.65,2.69,2.72,5.81,4.98,9.22,6.71,6.69,3.4,14.02,5.35,21.51,5.73,7.17.49,14.37-.64,21.04-3.31l.76-.33v.82c-.63,6.08-1.68,12.1-3.13,18.04-1.33,5.69-3.21,11.23-5.6,16.56l-.45-.65c5.35-.91,10.52-2.67,15.32-5.21,4.64-2.41,9.01-5.32,13.03-8.67,3.85-3.16,7.39-6.69,10.55-10.53,3.04-3.6,5.56-7.6,7.51-11.88l.14-.37.37.14c7.82,3.26,16.26,4.73,24.72,4.31,7.04-.4,13.9-2.41,20.05-5.87,6.15-3.46,11.42-8.29,15.41-14.11,3.1-4.56,5.26-9.7,6.34-15.11,1.58-7.52.91-15.35-1.92-22.49-.74-1.84-1.66-3.61-2.74-5.28-.8-.98-1.15-1.53-1.15-1.53Z"/><path class="b" d="M379.73,165.49c-3-1.58-5.52-3.94-7.27-6.84-1.75-2.9-2.68-6.23-2.68-9.62s.93-6.72,2.68-9.62c1.76-2.9,4.27-5.27,7.27-6.84,3.22-1.6,6.76-2.43,10.36-2.43s7.14.83,10.36,2.43c3,1.58,5.52,3.94,7.27,6.84,1.75,2.9,2.68,6.23,2.68,9.62s-.93,6.72-2.68,9.62c-1.75,2.9-4.27,5.27-7.27,6.84-3.22,1.6-6.76,2.43-10.36,2.43s-7.14-.83-10.36-2.43ZM395.07,158.11c1.5-.87,2.72-2.13,3.54-3.66.86-1.68,1.31-3.53,1.31-5.42s-.45-3.74-1.31-5.42c-.81-1.53-2.04-2.8-3.54-3.66-1.52-.85-3.24-1.29-4.98-1.29s-3.46.45-4.98,1.29c-1.49.87-2.72,2.14-3.54,3.66-.85,1.68-1.29,3.54-1.29,5.42s.44,3.74,1.29,5.42c.82,1.52,2.04,2.79,3.54,3.66,1.52.85,3.24,1.29,4.98,1.29s3.46-.45,4.98-1.29Z"/><path class="b" d="M450.26,130.85v36.36h-10.23v-14.19h-14.03v14.19h-10.22v-36.36h10.22v13.66h14.03v-13.66h10.23Z"/><path class="b" d="M409.75,176.59v34.77h-8.18l-15.38-18.49v18.55h-9.65v-34.77h8.18l15.38,18.57v-18.63h9.65Z"/><path class="b" d="M424.35,209.78c-2.88-1.51-5.29-3.77-6.98-6.55-1.68-2.78-2.57-5.97-2.57-9.22s.89-6.44,2.57-9.22c1.68-2.78,4.1-5.05,6.98-6.55,3.08-1.55,6.47-2.35,9.92-2.35s6.84.81,9.92,2.35c2.86,1.47,5.26,3.71,6.93,6.46,1.28,2.08,2.11,4.4,2.46,6.82.34,2.42.18,4.88-.47,7.23-.65,2.35-1.78,4.54-3.31,6.44-1.53,1.9-3.44,3.46-5.61,4.58-3.08,1.53-6.48,2.33-9.92,2.33s-6.84-.8-9.92-2.33ZM439.06,202.73c1.43-.84,2.59-2.06,3.37-3.52.82-1.61,1.25-3.39,1.25-5.19s-.43-3.59-1.25-5.19c-.8-1.42-1.96-2.6-3.37-3.42-1.46-.83-3.11-1.26-4.78-1.25-1.67-.02-3.32.41-4.77,1.25-1.43.84-2.61,2.06-3.39,3.52-.82,1.61-1.25,3.39-1.25,5.19s.43,3.59,1.25,5.19c.79,1.46,1.96,2.68,3.39,3.52,1.45.83,3.1,1.25,4.77,1.23,1.68,0,3.34-.47,4.78-1.33Z"/><path class="b" d="M461,156.78c.38.37.68.82.88,1.31.2.49.29,1.02.27,1.55,0,.55-.06,1.1-.2,1.64-.26.84-.58,1.66-.96,2.45l-2.25,5.17h-4.21l1.66-5.79c-.63-.29-1.17-.76-1.53-1.35-.36-.62-.55-1.33-.55-2.05-.02-.53.06-1.06.26-1.55.19-.49.49-.94.87-1.31.79-.74,1.84-1.14,2.92-1.1.52-.03,1.04.05,1.53.22.49.18.94.45,1.33.8Z"/><path class="b" d="M459.55,217.7c-.6-.63-1.07-1.38-1.36-2.2-.3-.82-.42-1.69-.36-2.56.04-.87.26-1.73.66-2.51.4-.78.95-1.47,1.63-2.01,1.52-1.07,3.36-1.6,5.22-1.48,1.86.12,3.62.86,5,2.12.61.62,1.07,1.37,1.36,2.19.29.82.4,1.69.32,2.56-.04.87-.26,1.73-.65,2.5-.39.78-.94,1.47-1.62,2.01-1.49,1.16-3.35,1.74-5.23,1.62-1.88-.11-3.66-.91-5-2.24h.02ZM460.16,175.16l14.13.86-4.09,27.67-9.45-.55-.59-27.98Z"/><path class="k" d="M485.15,566.93c1.16-6.64,2.13-13.27,2.86-19.89l-19.69-1.75c13.13-2.01,24.29-11.57,31.36-22.93,7.06-11.36,10.68-24.44,14.22-37.33l-24.07,3.57c19.04-12.77,32.41-32.39,37.35-54.77-25.44,13.13-44.97,35.86-59.08,60.85-12.83,22.72-21.41,47.54-29.59,72.25h46.64Z"/><path class="k" d="M360.73,566.93h72.93c-5.67-40.03-17.74-62.72-23.59-83.17-8.91-31.16-37.83-61.57-37.83-61.57,0,0-7.33,65.29-5.1,79.38,2.23,14.09,20.02,23,20.02,23l-23.74-5.93s-.67,36.2-2.69,48.29Z"/><path class="h" d="M390.32,492.51c.44,2.14.99,5.19,1.82,9.17.83,3.98,1.79,8.84,2.87,14.51,1.07,5.67,2.36,12.12,3.61,19.26,1.74,9.4,3.58,19.97,5.45,31.49h.94c-1.93-11.61-3.8-22.24-5.62-31.64-1.29-7.16-2.63-13.5-3.76-19.23-1.14-5.73-2.21-10.57-3.06-14.49-.85-3.92-1.55-6.96-2.03-9.15-.22-.99-.33-1.84-.55-2.36-.16-.39-.2-.63-.21-.73,0,.26.05.52.13.77.11.59.26,1.4.44,2.41Z"/><path class="h" d="M389.75,489.33s0-.04,0-.06c0,0,0,.02,0,.06Z"/><path class="k" d="M566.93,498.05c-9.62,7.5-32.97,36.73-40.51,49.19-3.73,6.16-8.36,12.39-13.44,19.69h53.95v-68.88Z"/><path class="h" d="M540.12,566.93c2.28-4.75,4.26-8.82,5.88-12.12l3.59-7.4c.38-.81.68-1.44.9-1.95.1-.22.2-.45.28-.68-.17.2-.32.41-.46.63l-1.01,1.88c-.89,1.73-2.16,4.18-3.77,7.31-1.72,3.33-3.81,7.48-6.2,12.32h.78Z"/><path class="i" d="M194.28,288.62c2.9-2.53,5.65-5.23,8.24-8.07,2.75-2.69,5.35-5.55,7.77-8.54-2.89,2.54-5.64,5.24-8.24,8.08-2.75,2.69-5.35,5.54-7.77,8.53Z"/><path class="i" d="M182.31,273.75c.84-.57,1.63-1.23,2.34-1.96l5.45-4.92,5.52-4.86c.81-.62,1.55-1.32,2.21-2.1-.91.48-1.76,1.07-2.54,1.74-1.5,1.16-3.51,2.81-5.66,4.72-2.15,1.91-4.03,3.72-5.34,5.08-.75.68-1.41,1.45-1.98,2.29Z"/><path class="i" d="M166.24,268.48c1.61-2.79,3.39-5.48,5.34-8.05,2.13-2.42,4.4-4.71,6.8-6.85-.87.41-1.67.94-2.39,1.58-3.63,2.89-6.59,6.52-8.69,10.65-.49.83-.84,1.73-1.06,2.67Z"/></svg>