<?xml version="1.0" encoding="UTF-8"?>
<svg id="a" data-name="Layer 1" xmlns="http://www.w3.org/2000/svg" xmlns:xlink="http://www.w3.org/1999/xlink" viewBox="0 0 566.9291 566.9291">
  <defs>
    <style>
      .c {
        fill: #aa6550;
      }

      .c, .d, .e, .f, .g, .h, .i, .j, .k, .l, .m, .n, .o {
        stroke-width: 0px;
      }

      .d {
        fill: #e30613;
      }

      .f {
        fill: #e0e0e0;
      }

      .g {
        fill: #f5f5f5;
      }

      .h {
        fill: none;
      }

      .p {
        clip-path: url(#b);
      }

      .i {
        fill: #fff;
      }

      .j {
        fill: #09f;
      }

      .k {
        fill: #fafafa;
      }

      .l {
        fill: #263238;
      }

      .q {
        opacity: .3;
      }

      .m {
        fill: #ebebeb;
      }

      .r {
        opacity: .6;
      }

      .n {
        fill: #eb996e;
      }

      .o {
        fill: #455a64;
      }
    </style>
    <clipPath id="b">
      <rect class="h" y="595.2756" width="566.9291" height="566.9291"/>
    </clipPath>
  </defs>
  <g>
    <path class="g" d="M109.7916,95.1462c.0252-6.0899-1.3565-12.1036-4.0378-17.5715-2.6813-5.4682-6.5893-10.2431-11.4197-13.9523-4.83-3.7092-10.4519-6.2524-16.4266-7.4314-5.9749-1.179-12.1413-.9619-18.0186.6345-5.8772,1.5963-11.3061,4.5287-15.8635,8.5684-4.5574,4.0398-8.1199,9.0776-10.4099,14.7207-2.29,5.6434-3.2454,11.7393-2.7918,17.8122.4536,6.0733,2.304,11.9595,5.4069,17.1999l.119.1408c1.5145,2.5637,3.4076,4.327,5.3331,7.0748l22.9553,30.3977c.6644.8826,1.5245,1.5986,2.513,2.0918.9883.4931,2.0779.7498,3.1824.7498s2.1941-.2567,3.1827-.7498c.9883-.4931,1.8487-1.2092,2.513-2.0918l22.5009-29.9002c2.0487-2.4167,3.963-4.9446,5.7332-7.5723l.0868-.1083c3.5738-6.063,5.453-12.9749,5.4414-20.013ZM70.2525,112.3682c-3.4424,0-6.8077-1.021-9.67-2.9333-2.8624-1.9126-5.0933-4.631-6.4107-7.8117-1.3174-3.1804-1.6621-6.68-.9905-10.0565.6716-3.3765,2.3294-6.4777,4.7636-8.9119,2.4342-2.4342,5.5357-4.0922,8.912-4.7638,3.3765-.6716,6.8761-.3269,10.0565.9906,3.1807,1.3175,5.8991,3.5483,7.8117,6.4108,1.9126,2.8625,2.9333,6.2276,2.9333,9.67.0013,2.2862-.4478,4.5502-1.3221,6.6625-.8743,2.1126-2.1564,4.0319-3.7729,5.6484-1.6165,1.6165-3.5358,2.8986-5.6481,3.7729-2.1126.8743-4.3766,1.3234-6.6628,1.3221Z"/>
    <path class="g" d="M536.2151,334.9327c.0033-2.68-.6094-5.3242-1.795-7.7279-1.1857-2.4034-2.9078-4.5015-5.0341-6.1306-2.1295-1.6294-4.6035-2.7462-7.2331-3.2635-2.6296-.5176-5.3421-.4216-7.9286.2802-2.5866.7018-4.9744,1.9904-6.9815,3.7656-2.007,1.7755-3.5768,3.9898-4.5903,6.4711-1.0134,2.4813-1.4373,5.1626-1.2453,7.8352.1921,2.6727.9969,5.2652,2.3547,7.5756v.0649c.6723,1.0817,1.5169,1.9365,2.3581,3.1155l10.1145,13.4031c.2948.3898.6756.7061,1.1095.9237.4372.2179.9207.3312,1.4075.3312s.9671-.1133,1.4042-.3312c.4372-.2176.8181-.5339,1.1095-.9237l9.9422-13.176c.9074-1.0694,1.752-2.1891,2.5303-3.3536v-.054c1.6063-2.6588,2.4607-5.7011,2.4773-8.8056ZM518.788,342.505c-1.5168,0-2.9972-.4497-4.2591-1.2926-1.2618-.8429-2.2455-2.0404-2.825-3.442-.5829-1.4016-.7319-2.9436-.4371-4.4313.2948-1.488,1.0267-2.8545,2.0997-3.9272,1.073-1.0727,2.4375-1.803,3.9246-2.0991,1.4903-.2958,3.0304-.1441,4.4346.4365,1.401.5806,2.5965,1.5635,3.441,2.8247.8412,1.2615,1.2916,2.7442,1.2916,4.2614.0033,1.0085-.1954,2.0077-.5796,2.94s-.9505,1.7798-1.6626,2.4942c-.7121.714-1.5566,1.281-2.4872,1.6685-.9339.3872-1.9308.5872-2.9409.5885v-.0215Z"/>
    <path class="g" d="M476.1245,472.3953c17.0429-17.0429,17.0429-44.6739,0-61.7167-17.0429-17.0396-44.6739-17.0396-61.7134,0-17.0429,17.0429-17.0429,44.6739,0,61.7167,17.0396,17.0429,44.6705,17.0429,61.7134,0Z"/>
    <path class="i" d="M445.2711,477.8665c-7.1834.0033-14.2079-2.1262-20.1858-6.117-5.9746-3.9875-10.6311-9.6607-13.3833-16.2978-2.7489-6.6403-3.4708-13.943-2.0699-20.9907,1.4009-7.0476,4.8585-13.519,9.9389-18.6028,5.0804-5.0804,11.5518-8.5413,18.5995-9.9456,7.0476-1.4009,14.3503-.6822,20.9873,2.0666,6.6403,2.7489,12.3135,7.4053,16.3043,13.38,3.9941,5.9746,6.1236,12.9958,6.1236,20.1825-.0066,9.631-3.8351,18.8611-10.6444,25.6736-6.8092,6.8092-16.0394,10.641-25.6703,10.651ZM445.2711,411.437c-5.9547,0-11.7737,1.7652-16.725,5.0738-4.9512,3.3052-8.8096,8.0081-11.0881,13.5091-2.2786,5.501-2.8747,11.5551-1.7156,17.394,1.1625,5.8421,4.0306,11.2041,8.2399,15.4167,4.2127,4.2094,9.5746,7.0775,15.4168,8.2366,5.8388,1.1625,11.8929.5664,17.394-1.7122,5.501-2.2786,10.2005-6.1369,13.5091-11.0882,3.3086-4.9512,5.0738-10.7702,5.0738-16.725-.0066-7.9816-3.1827-15.6353-8.8261-21.2788-5.6434-5.6434-13.2972-8.8195-21.2788-8.8261Z"/>
    <path class="i" d="M445.0227,453.9614c-2.6462,0-5.2327-.7849-7.4351-2.2587-2.2024-1.4705-3.9147-3.5603-4.9281-6.0044-1.0135-2.4475-1.2784-5.1367-.7617-7.7332.52-2.5965,1.795-4.9811,3.6663-6.8523,1.8745-1.8712,4.2591-3.1463,6.8556-3.6596,2.5965-.5167,5.2857-.2484,7.7332.765,2.4442,1.0168,4.534,2.7323,6.0011,4.9347,1.4705,2.2024,2.2521,4.789,2.2521,7.4351-.0033,3.547-1.4142,6.9483-3.9246,9.4554-2.5104,2.5071-5.9117,3.9179-9.4587,3.9179ZM445.0227,433.408c-1.4175,0-2.8018.4173-3.9776,1.2055-1.179.7882-2.0964,1.9043-2.6396,3.2125-.5398,1.3115-.6823,2.7489-.4074,4.1398.2782,1.3877.9605,2.6628,1.9606,3.6663,1.0035,1.0002,2.2786,1.6824,3.6663,1.9606,1.391.2749,2.8284.1325,4.1398-.4074,1.3082-.5432,2.4243-1.4605,3.2125-2.6396.7882-1.1757,1.2055-2.5601,1.2055-3.9776-.0066-1.8944-.765-3.7093-2.1063-5.0473-1.3413-1.338-3.1595-2.0898-5.0539-2.0931v-.0199Z"/>
    <path class="f" d="M445.0227,440.5881h-16.9071l2.9542,5.2162-39.7988,18.2385,1.3413,2.2388,39.928-18.0332,2.7356,5.1831,9.7468-12.8435Z"/>
    <path class="f" d="M391.271,464.0428l-.4239-.4107c-1.0234-1.0002-2.2985-1.7123-3.6861-2.0567-1.391-.3444-2.8482-.3147-4.2226.0861l-15.8672,4.6201,8.8361,3.8848-3.547,9.4422,14.8968-5.2559c1.6327-.5862,3.037-1.6824,4.0007-3.1231.9638-1.444,1.4373-3.1595,1.3545-4.8949l-1.3413-2.2918Z"/>
    <path class="f" d="M198.6916,473.1935l.3246-.106.9412-.2716,3.6129-1.083,13.5333-3.7954-.1298.2252c-.6925-2.3249-1.4715-4.9214-2.2935-7.7133v-.1159l.1083-.0994c3.7481-3.1396,6.9374-6.892,9.4329-11.0981,1.3906-2.3713,2.4531-4.9181,3.1589-7.5743.7405-2.8217.9134-5.7627.5084-8.6539-.9816-6.2793-4.1269-12.0188-8.892-16.2249-5.1516-4.5008-11.5826-7.2729-18.3902-7.9286-5.1109-.4371-10.2396.5928-14.7878,2.9642-4.3836,2.1328-8.1707,5.3155-11.0236,9.2699-2.628,3.7225-4.2591,8.0578-4.738,12.5917-.0649,1.0797-.2272,2.1627-.2057,3.2456.0219,1.0797.0543,2.1627.0868,3.1595.1716,2.0302.5339,4.0405,1.0817,6.0011.5375,1.8447,1.2625,3.6265,2.1637,5.3222.8823,1.5797,1.9262,3.0635,3.1155,4.4247,2.1696,2.4342,4.7287,4.4876,7.5723,6.0806,4.1494,2.3547,8.6966,3.9212,13.4141,4.63h.0758v.0662l1.0817,4.9115c.1083.5398.1947.9604.2487,1.2651.0543.3014.0868.4306.0868.4438-.0517-.1259-.0878-.2583-.1083-.3908l-.303-1.232-1.1681-4.9546.0974.0861c-4.7698-.6458-9.3752-2.1858-13.5764-4.5339-2.8833-1.593-5.4792-3.6596-7.6806-6.1104-1.2357-1.381-2.3233-2.8846-3.2453-4.4909-.9416-1.7189-1.703-3.5305-2.272-5.4083-.5425-1.9937-.9045-4.0305-1.0817-6.0905l-.0974-3.2457c0-1.0797.1408-2.1627.2057-3.2457.4719-4.6234,2.1262-9.0513,4.8029-12.85,2.8995-4.0372,6.7536-7.2928,11.218-9.4786,4.6578-2.4276,9.9121-3.4742,15.1449-3.0171,6.9427.6591,13.5022,3.4841,18.7472,8.0809,2.4723,2.1759,4.5287,4.7824,6.069,7.6935.4107.6922.772,1.4175,1.0817,2.1626.3342.6988.6163,1.4208.8439,2.1627.2272.7584.4759,1.4937.6812,2.2388.2057.7485.2706,1.5268.4113,2.2819.4021,2.9608.2146,5.9746-.5517,8.8626-.7273,2.6959-1.8189,5.2791-3.2453,7.6802-2.5445,4.2392-5.7888,8.0181-9.5955,11.1743l.0758-.2186,2.2392,7.7133.054.1755-.1729.053-13.6847,3.6331-3.6023.9439-.9085.2252-.4653.1623Z"/>
    <path class="f" d="M218.8672,473.2034c-3.0724,1.1525-6.2117,2.1196-9.4008,2.8913-3.138.9605-6.3316,1.7288-9.563,2.3017,3.0757-1.1393,6.2144-2.0997,9.4008-2.878,3.139-.9605,6.3323-1.7321,9.563-2.315Z"/>
    <path class="f" d="M214.6372,482.0527c-.9661.6855-2.0765,1.1359-3.2453,1.3214-1.1267.3643-2.3213.467-3.494.3014,1.0843-.4107,2.208-.7087,3.3536-.8876,1.1015-.3544,2.2358-.6027,3.3857-.7352Z"/>
    <path class="f" d="M202.5539,472.1867c-.05-.0927-.0864-.1954-.1083-.3014-.0649-.2384-.1404-.5398-.2487-.9207-.2163-.8578-.5193-2.0368-.9088-3.5371-.779-3.1264-1.8821-7.5709-3.2453-13.0554-.6816-2.7588-1.4172-5.7759-2.1637-9.0116-.159-.7982-.4792-1.5566-.9409-2.2289-.1951-.3312-.5027-.5796-.8664-.6988-.364-.1225-.7594-.1093-1.1135.0397-.3358.2252-.6064.5332-.7849.8975-.1785.361-.2583.7651-.2318,1.1691.0258.8644.3683,1.6924.9628,2.3249.6392.6591,1.4287,1.1558,2.3011,1.444.872.2881,1.801.361,2.7075.212.9508-.1457,1.8503-.5233,2.6174-1.1062.7667-.5796,1.3767-1.3413,1.7748-2.2157.8836-1.8215,1.1055-3.8948.6273-5.862-.1845-.9969-.6541-1.9176-1.3522-2.6528-.3332-.3312-.766-.5465-1.2327-.6127-.4666-.0629-.9416.0265-1.3526.2583-.354.3147-.5938.7419-.6816,1.2088-.0881.467-.0195.9505.1947,1.3744.4746.881,1.1674,1.6261,2.012,2.1627,1.5947,1.2684,3.5146,2.06,5.5388,2.2852.9648.0861,1.9364-.0596,2.8343-.4239.8475-.3941,1.589-.9836,2.1633-1.7189.5792-.7153.9263-1.593.9952-2.5104.0361-.4405-.0186-.8843-.16-1.3016-.1411-.4173-.3666-.8048-.662-1.1326-.2534-.3147-.5909-.5531-.9734-.6889-.3825-.1324-.7949-.1556-1.1903-.0662-.3862.1391-.7352.3676-1.0204.6624-.2848.2948-.4984.6524-.624,1.0466-.5299,1.5897-.0646,3.3615.1298,4.9976.5193,3.2457,1.082,6.3389,1.6553,9.1176,1.0817,5.5408,2.0229,10.0283,2.6611,13.1779.303,1.5235.5518,2.7257.725,3.5802.0649.3875.1298.6922.1729.9406.0106.1093.0106.2153,0,.3246-.0444-.0993-.0768-.2053-.0974-.3146-.0649-.2384-.1404-.5398-.2378-.9174-.2057-.8544-.4759-2.0467-.8329-3.5603-.7034-3.0933-1.7093-7.5709-2.8452-13.1448-.5624-2.7787-1.179-5.8289-1.7308-9.1275-.1189-.8346-.2596-1.6659-.3461-2.5435-.1265-.9075-.0527-1.8282.2163-2.7058.153-.467.4107-.8942.7538-1.2486.3431-.3544.7624-.6259,1.2257-.7949.5011-.1292,1.028-.1126,1.5202.0464.4918.159.929.4537,1.2602.8512.3408.3841.6014.8313.7667,1.3148.1653.4835.2322.9969.1961,1.5102-.0609,1.0333-.4388,2.0203-1.0817,2.8317-.6438.8247-1.4794,1.4804-2.4342,1.9043-.9833.4007-2.0467.563-3.1045.4769-2.1322-.2351-4.1554-1.0631-5.8415-2.3912-.9273-.6094-1.6742-1.4572-2.1637-2.4541-.3113-.5365-.412-1.1657-.2825-1.7718.1292-.6061.4796-1.1393.9823-1.5002.5027-.361,1.1217-.5233,1.7364-.4505.6147.0696,1.1807.3677,1.588.8346.7756.8147,1.3016,1.8348,1.5145,2.9409.508,2.103.2673,4.3187-.6816,6.2628-.4444.9538-1.1174,1.7851-1.959,2.4177-.8416.6325-1.8258,1.0465-2.8658,1.2055-.9982.1623-2.0206.0762-2.9784-.2484-.9578-.3246-1.8219-.8776-2.517-1.6096-.6822-.7352-1.0677-1.6924-1.082-2.6959-.0285-.5001.0792-.9969.3117-1.4407s.5809-.818,1.0081-1.0797c.2315-.1093.4825-.1722.7389-.1854.2563-.0133.5127.0232.7541.1093.4385.1855.8144.4935,1.0817.8876.4931.7352.8422,1.5599,1.0277,2.4243.768,3.2457,1.4821,6.2727,2.1637,9.0447l3.029,13.0786c.3352,1.5135.6058,2.7025.8005,3.5702.0758.3776.1408.679.1947.9273.0229.1225.0229.2484,0,.3676Z"/>
    <path class="f" d="M218.1203,477.2505c-2.4601.9869-4.9917,1.7884-7.5726,2.3912-2.5419.7915-5.1377,1.3976-7.767,1.8182,2.4601-.9869,4.9913-1.7884,7.5723-2.3912,2.5425-.7915,5.138-1.3976,7.7673-1.8182Z"/>
    <path class="l" d="M512.1775,527.2068c0,.1523-103.2311.2815-230.557.2815s-230.5805-.1292-230.5805-.2815,103.2122-.2815,230.5805-.2815,230.557.1192,230.557.2815Z"/>
    <path class="f" d="M493.1276,92.0526H70.3174v27.0875h422.8102v-27.0875Z"/>
    <path class="i" d="M493.0647,144.0211H70.2522v237.1254h422.8126v-237.1254Z"/>
    <path class="m" d="M70.3174,118.9344h58.0588l5.7444-16.7458h94.1145l5.7441,16.7458h259.1484v25.6597H70.3174v-25.6597Z"/>
    <path class="l" d="M84.2723,102.8592c0,.6289-.1865,1.2439-.5359,1.7669-.3497.5229-.8462.9306-1.4274,1.1714-.5812.2408-1.2208.3037-1.8378.1812-.6167-.1229-1.1837-.4256-1.6284-.8707-.4448-.4448-.7475-1.0114-.8704-1.6281-.1225-.617-.0596-1.2565.1812-1.8378.2408-.5812.6481-1.0777,1.1714-1.4274.5229-.3494,1.138-.5359,1.7669-.5359.418-.0013.8323.0798,1.2188.2391.3865.1593.7376.3934,1.0333.6892.2954.2958.5299.6468.6892,1.0333.1593.3865.2404.8008.2391,1.2188Z"/>
    <path class="l" d="M94.1056,102.8592c0,.6289-.1865,1.2439-.5359,1.7669-.3494.5229-.8462.9306-1.4274,1.1714-.5812.2408-1.2204.3037-1.8374.1812-.617-.1229-1.1837-.4256-1.6284-.8707-.4448-.4448-.7478-1.0114-.8704-1.6281-.1229-.617-.0599-1.2565.1808-1.8378.2408-.5812.6485-1.0777,1.1714-1.4274.5229-.3494,1.138-.5359,1.7669-.5359.4183-.0013.8323.0798,1.2188.2391.3865.1593.7379.3934,1.0333.6892.2957.2958.5299.6468.6892,1.0333.1593.3865.2408.8008.2391,1.2188Z"/>
    <path class="l" d="M103.9392,102.8592c0,.6289-.1865,1.2439-.5362,1.7669-.3494.5229-.8462.9306-1.4271,1.1714-.5812.2408-1.2208.3037-1.8378.1812-.617-.1229-1.1837-.4256-1.6284-.8707-.4448-.4448-.7475-1.0114-.8704-1.6281-.1225-.617-.0596-1.2565.1812-1.8378.2404-.5812.6481-1.0777,1.1711-1.4274.5233-.3494,1.138-.5359,1.7672-.5359.418-.0013.8323.0798,1.2188.2391.3865.1593.7376.3934,1.0333.6892.2954.2958.5296.6468.6892,1.0333.1593.3865.2404.8008.2391,1.2188Z"/>
    <path class="k" d="M446.3971,139.4882H156.3185c-2.1345,0-4.1819-.8478-5.6911-2.3574-1.5096-1.5092-2.3574-3.5566-2.3574-5.6911s.8478-4.1816,2.3574-5.6911c1.5092-1.5092,3.5566-2.3571,5.6911-2.3571h290.0787c2.1328,0,4.1796.8478,5.6898,2.3571,1.5102,1.5096,2.3581,3.5566,2.3581,5.6911s-.8479,4.1819-2.3581,5.6911c-1.5102,1.5095-3.557,2.3574-5.6898,2.3574Z"/>
    <path class="f" d="M163.2635,132.5107v2.726h-1.3741v-2.5097c0-.768-.357-1.0817-.9628-1.0817s-1.1466.411-1.1466,1.2764v2.3584h-1.3738v-6.5989h1.3738v2.2935c.4133-.3759.9558-.5776,1.5145-.5627.2746-.0182.5498.0245.8061.1255.256.101.4865.2573.675.458.1881.2007.3295.4408.414.7028.0844.262.1096.5395.0739.8124Z"/>
    <path class="f" d="M167.5689,134.9989c-.3222.2063-.6991.3117-1.0817.3027-.2348.0325-.4743.0109-.6995-.0626-.2255-.0735-.4312-.1971-.6021-.3617-.1709-.1646-.302-.3656-.3838-.5882s-.1123-.4607-.0888-.6965v-1.9474h-.7356v-1.0817h.7356v-1.1575h1.3738v1.1575h1.1794v1.0817h-1.1794v1.9474c-.0116.0821-.0046.1659.0205.2454.0255.0792.0682.1517.1255.212.057.0603.1272.107.205.1364.0778.0295.1613.0407.2441.0335.1994.0023.3938-.0623.5518-.1838l.3352.9628Z"/>
    <path class="f" d="M171.2682,134.9989c-.3236.2037-.6995.309-1.0817.3027-.2351.0325-.4743.0109-.6995-.0626-.2255-.0735-.4315-.1971-.6021-.3617-.1709-.1646-.302-.3656-.3838-.5882-.0818-.2226-.1123-.4607-.0888-.6965v-1.9474h-.7356v-1.0817h.7356v-1.1575h1.3738v1.1575h1.19v1.0817h-1.19v1.9474c-.0096.0818-.0013.1649.0248.2431.0258.0785.0689.15.1255.21.057.0599.1262.1063.203.1364s.1593.0431.2418.0378c.2027.0023.4004-.0623.5624-.1838l.3246.9628Z"/>
    <path class="f" d="M177.2617,132.8571c.0199.3196-.0275.6398-.1384.9406-.1113.3004-.2838.5743-.5067.8044s-.4912.411-.7882.5316c-.2967.1205-.6153.1778-.9356.1679-.2653.0126-.5302-.0321-.7766-.1311-.2464-.0987-.4683-.2497-.6514-.4421v2.1636h-1.3738v-6.4906h1.3413v.5518c.1871-.208.4183-.3709.6766-.4776.2583-.107.5372-.1543.8164-.1391.3242-.006.6465.0566.9449.1835.2987.1272.567.3159.7876.5537.2206.2381.3885.52.4925.827.104.3073.1421.6332.1116.9565ZM175.8665,132.8571c-.0212-.2341-.1096-.4567-.2547-.6412-.1454-.1845-.3411-.3229-.5634-.3984-.2226-.0752-.462-.0845-.6895-.0262-.2275.0583-.4332.1815-.5918.3544-.159.1729-.264.3885-.3027.62-.0384.2315-.0089.4696.0851.6846.0941.2153.2484.3984.4448.5273.1961.1292.4256.1984.6604.199.1692.0026.3368-.0308.4921-.0977.1553-.0672.2948-.1663.4094-.2908.1143-.1245.201-.2719.2543-.4325.0537-.1603.0725-.3302.056-.4984Z"/>
    <path class="f" d="M177.8456,131.2668c.0235-.2116.1245-.4067.2832-.5484.1586-.1421.364-.2202.5766-.2202.2129,0,.4183.0782.5769.2202.1586.1417.2593.3368.2832.5484.0136.1209.0017.2434-.0354.3597-.0371.1159-.098.2229-.1795.3136-.0811.0907-.1805.1636-.2918.2133-.1109.0497-.2315.0755-.3534.0755-.1215,0-.2421-.0258-.3534-.0755-.1109-.0497-.2106-.1225-.2918-.2133-.0811-.0908-.1421-.1977-.1792-.3136-.0371-.1163-.049-.2388-.0354-.3597ZM177.8456,134.4362c.0235-.2113.1245-.4067.2832-.5484.1586-.1418.364-.2202.5766-.2202.2129,0,.4183.0785.5769.2202.1586.1417.2593.3371.2832.5484.0136.1212.0017.2438-.0354.3597-.0371.1163-.098.2229-.1795.314-.0811.0908-.1805.1633-.2918.213-.1109.05-.2315.0755-.3534.0755-.1215,0-.2421-.0255-.3534-.0755-.1109-.0497-.2106-.1222-.2918-.213-.0811-.0911-.1421-.1977-.1792-.314-.0371-.1159-.049-.2385-.0354-.3597Z"/>
    <path class="f" d="M182.9519,127.7943h1.2333l-2.9207,8.3188h-1.2224l2.9098-8.3188Z"/>
    <path class="f" d="M185.7752,127.7943h1.2224l-2.9098,8.3188h-1.2333l2.9207-8.3188Z"/>
    <path class="k" d="M446.1355,186.6645h-252.7336c-3.7845,0-7.4136-1.5033-10.0896-4.1792-2.6757-2.676-4.1789-6.3052-4.1789-10.0893.0026-3.7835,1.5069-7.411,4.1822-10.0863s6.3028-4.1796,10.0863-4.1826h252.7336c3.7855.003,7.412,1.5072,10.088,4.1826,2.676,2.6753,4.1796,6.3028,4.1829,10.0863,0,3.7841-1.5036,7.4133-4.1796,10.0893-2.676,2.676-6.3058,4.1792-10.0913,4.1792Z"/>
    <path class="l" d="M446.1355,186.6645c2.017-.0437,4.0041-.4925,5.8421-1.3198,1.8083-.8329,3.4278-2.0322,4.7492-3.5218,1.3215-1.4894,2.3216-3.237,2.931-5.1324.5133-1.6914.712-3.4622.5862-5.2251-.1358-1.9732-.6789-3.8967-1.6029-5.6467-1.03-1.9172-2.4839-3.5748-4.2491-4.8463-1.9308-1.391-4.1829-2.2693-6.5476-2.5531-1.2552-.1076-2.5137-.1437-3.7722-.108h-40.2757l-210.3731.0755c-2.5263.0073-5.0036.6948-7.1722,1.9904-2.1309,1.2721-3.8848,3.0883-5.0817,5.2622-1.1972,2.1736-1.7944,4.6267-1.7308,7.1076.0639,2.4806.7866,4.8999,2.0941,7.0089,1.3075,2.1093,3.1526,3.8328,5.3457,4.9936,2.1666,1.1227,4.5813,1.6808,7.0208,1.6228h70.5101l94.5798.0649,63.8241.0864h23.3553-23.3553l-63.8241.0974-94.5798.054h-70.5101c-2.5306.0652-5.0364-.5153-7.2802-1.6874-2.8727-1.5192-5.1543-3.956-6.481-6.9225-1.3264-2.9661-1.6218-6.2912-.8389-9.4451.7826-3.1539,2.5988-5.9547,5.1586-7.9564,2.5597-2.0017,5.716-3.089,8.9656-3.0883l210.4262.357h40.2757c1.2751-.0311,2.5501.0086,3.8186.1192,2.4044.2987,4.6929,1.2032,6.6535,2.6286,1.7155,1.231,3.1396,2.8287,4.1663,4.677,1.0234,1.8484,1.6261,3.9014,1.7619,6.0107.1126,1.7904-.0994,3.5864-.6293,5.301-.4902,1.4963-1.2221,2.9029-2.1627,4.1647-1.4671,1.9891-3.4245,3.5652-5.6799,4.576-1.3744.6044-2.8349.9946-4.3253,1.1575-1.073.0974-1.593.0974-1.593.0974Z"/>
    <path class="f" d="M199.1996,175.4356l.5302-1.19c.6693.4587,1.4602.7074,2.2716.714.9412,0,1.3198-.3136,1.3198-.7356,0-1.2873-3.9918-.4004-3.9918-2.9532,0-1.1684.9412-2.1636,2.8992-2.1636.8333-.0159,1.6556.1934,2.3799.6057l-.4869,1.2115c-.5763-.3434-1.2327-.5299-1.9037-.5408-.9412,0-1.3092.357-1.3092.7899,0,1.2655,3.9918.3891,3.9918,2.9098,0,1.1466-.9518,2.1637-2.9098,2.1637-.9919.0228-1.9663-.2607-2.7912-.8114Z"/>
    <path class="f" d="M211.0236,173.9101h-3.9918c.0795.3328.2765.6256.5548.8243.2785.199.6193.2905.9598.2577.2438.0076.4865-.0348.7134-.1239.2269-.0894.4332-.2239.6064-.3954l.8114.8869c-.4126.3971-.928.6707-1.4877.7902-.5597.1199-1.1419.0808-1.6804-.1129-.5388-.1934-1.0128-.5336-1.3685-.982-.356-.4484-.5792-.9873-.6452-1.5559-.005-.3663.0653-.7296.2063-1.0677.1408-.3378.3494-.6435.613-.8978.2633-.2543.5763-.4521.9191-.5812.3428-.1288.7084-.1861,1.074-.1682.365-.0185.7296.0394,1.0707.1702.3408.1308.6508.3315.9094.5895.259.2577.461.5667.5932.9071.1321.3405.1918.7051.1745,1.0697,0,.0974-.0215.2596-.0324.3895ZM207.0103,173.0123h2.5962c-.0556-.3037-.2159-.5782-.4531-.7756-.2375-.1977-.5362-.306-.8452-.306-.3087,0-.6077.1083-.8448.306-.2371.1974-.3974.4719-.4531.7756Z"/>
    <path class="f" d="M216.5949,173.0991v3.0181h-1.4281v-.6597c-.1782.2553-.4216.4587-.7051.5879-.2835.1295-.5968.1805-.9065.1477-1.2333,0-1.9689-.6925-1.9689-1.6013s.6597-1.5791,2.2607-1.5791h1.2224c0-.6491-.4001-1.082-1.2224-1.082-.5438-.0046-1.075.1659-1.5142.4868l-.5518-1.0817c.6776-.4325,1.4678-.6548,2.2716-.6382,1.5685.0649,2.5422.8111,2.5422,2.4014ZM215.0694,174.4513v-.5408h-1.0817c-.714,0-.9412.2596-.9412.6163,0,.357.3246.6385.8548.6385.2457.0242.4928-.0325.7038-.1613.211-.1288.3739-.3229.4643-.5528Z"/>
    <path class="f" d="M221.2577,170.7622v1.4065h-.3464c-.1918-.0159-.3848.0113-.5653.0792-.1801.0682-.3428.1755-.4766.3143-.1335.1388-.2345.3054-.2958.4882-.0613.1825-.0808.3766-.0576.568v2.4988h-1.536v-5.2791h1.4602v.6925c.2203-.263.5001-.4699.816-.6034.316-.1335.6594-.1901,1.0015-.1649Z"/>
    <path class="f" d="M221.7332,173.4776c.0003-.3762.0785-.7478.2295-1.0922.151-.3444.3716-.6541.6481-.9091.2762-.255.6024-.4501.9578-.5729s.7323-.1709,1.1072-.1411c.4822-.0384.9651.0686,1.3857.308.4203.2391.7594.5991.9727,1.0336l-1.1899.6382c-.1093-.2189-.2775-.4031-.4862-.5312-.2083-.1278-.4484-.1951-.6932-.1937-.3872,0-.7588.154-1.0326.4279-.2739.2739-.4276.6452-.4276,1.0326,0,.3872.1537.7588.4276,1.0326.2739.2739.6455.4279,1.0326.4279.2454.004.4865-.0623.6955-.1908.2086-.1282.3765-.3136.4839-.5342l1.1899.6491c-.2173.4302-.5574.7866-.977,1.0234-.4199.2371-.9008.3438-1.3814.307-.3749.0301-.7518-.0179-1.1072-.1408-.3554-.1232-.6816-.3183-.9578-.5733-.2765-.255-.4971-.5643-.6481-.9088-.151-.3444-.2292-.7164-.2295-1.0923Z"/>
    <path class="f" d="M233.2761,173.0991v3.0181h-1.536v-2.7909c0-.8548-.3895-1.2443-1.0817-1.2443s-1.2658.4544-1.2658,1.4281v2.6071h-1.536v-7.2805h1.536v2.5531c.2239-.2106.4875-.3746.7753-.4825.2878-.1076.5942-.157.9015-.1451.307-.0235.6157.0215.9031.1325.2875.1113.5465.2851.7581.509.2116.2239.3706.4925.465.7859.0941.2931.1219.6041.0805.9094Z"/>
    <path class="f" d="M237.0619,175.2299c0-.2524.1-.4945.2789-.673.1785-.1785.4206-.2789.673-.2789s.4945.1003.6733.2789c.1785.1785.2785.4206.2785.673,0,.2527-.1.4948-.2785.6733-.1788.1785-.4209.2789-.6733.2789s-.4945-.1004-.673-.2789c-.1788-.1785-.2789-.4206-.2789-.6733Z"/>
    <path class="f" d="M239.6366,175.2299c.002-.1878.0596-.3706.1656-.5259.106-.155.2553-.2752.4295-.3458.1739-.0702.365-.0878.5491-.0497.1838.0381.3524.1295.4845.263.1321.1335.2216.3034.2577.4875.0358.1845.0162.3752-.056.5488-.0725.1732-.1944.3213-.3507.4252-.1563.1043-.3401.1596-.5279.1596-.1262.0016-.2517-.0222-.3686-.0702-.1169-.048-.2229-.1192-.3117-.209s-.1586-.1967-.2053-.314c-.0467-.1176-.0692-.2431-.0662-.3696Z"/>
    <path class="f" d="M242.2003,175.2299c0-.2524.1003-.4945.2789-.673s.4206-.2789.6733-.2789c.2524,0,.4945.1003.673.2789s.2789.4206.2789.673c0,.1252-.0245.2491-.0725.3643-.0477.1156-.1179.2206-.2063.309-.0884.0884-.1934.1586-.3087.2063-.1156.0477-.2394.0725-.3643.0725-.1252,0-.2491-.0248-.3643-.0725-.1156-.0477-.2206-.1179-.309-.2063-.0884-.0884-.1583-.1934-.2063-.309-.0477-.1153-.0725-.2391-.0725-.3643Z"/>
    <path class="e" d="M149.7086,211.4804c0,.1623-10.1472.2812-22.6526.2812s-22.6522-.1189-22.6522-.2812,10.1363-.2812,22.6522-.2812,22.6526.1513,22.6526.2812Z"/>
    <path class="d" d="M151.4828,224.451h-47.0789v47.0786h47.0789v-47.0786Z"/>
    <path class="e" d="M437.5478,235.5497c0,.1517-58.4148.2815-130.506.2815s-130.5159-.1298-130.5159-.2815c0-.1513,58.4158-.2812,130.5159-.2812s130.506.1192,130.506.2812Z"/>
    <path class="e" d="M247.9232,253.2692c0,.1623-15.4045.2815-34.3895.2815s-34.4004-.1192-34.4004-.2815,15.3936-.2812,34.4004-.2812,34.3895.1298,34.3895.2812Z"/>
    <path class="f" d="M395.8347,269.7124c0,.1513-48.5179.2812-108.3509.2812s-108.3506-.1298-108.3506-.2812,48.5067-.2921,108.3506-.2921,108.3509.1298,108.3509.2921Z"/>
    <path class="e" d="M149.7086,295.8589c0,.1513-10.1472.2812-22.6526.2812s-22.6522-.1298-22.6522-.2812c0-.1517,10.1363-.2815,22.6522-.2815s22.6526.0974,22.6526.2815Z"/>
    <path class="j" d="M151.4828,308.7752h-47.0789v47.0789h47.0789v-47.0789Z"/>
    <path class="e" d="M453.0606,319.8634c0,.1623-61.9121.2812-138.2624.2812s-138.2724-.1189-138.2724-.2812,61.8989-.2812,138.2724-.2812,138.2624.1298,138.2624.2812Z"/>
    <path class="e" d="M247.9232,337.5938c0,.1513-15.4045.2812-34.3895.2812s-34.4004-.1298-34.4004-.2812c0-.1517,15.3936-.2815,34.4004-.2815s34.3895.1298,34.3895.2815Z"/>
    <path class="f" d="M433.5669,354.0257c0,.1623-56.9543.2815-127.2061.2815s-127.2276-.1192-127.2276-.2815,56.9553-.2812,127.2276-.2812,127.2061.1298,127.2061.2812Z"/>
    <path class="l" d="M493.1276,381.7195c0-1.8613-.0861-113.3704-.2252-289.6673l.2252.2272H70.3499l.2812-.2812v289.6683l-.2597-.2617,422.8126.2617-422.8126.2484h-.2596V91.7171h423.3206v.2272c-.2053,176.4049-.3047,287.914-.3047,289.7753Z"/>
    <path class="e" d="M216.8108,113.0386c0,.1623-14.9283.2815-33.3403.2815s-33.3403-.1192-33.3403-.2815c0-.162,14.9286-.2812,33.3403-.2812s33.3403.1298,33.3403.2812Z"/>
    <path class="o" d="M156.6645,166.2839h-59.2163v17.8384h59.2163v-17.8384Z"/>
    <path class="j" d="M261.5208,213.0058c0,.1623-18.3902.2812-41.1073.2812s-41.1076-.1189-41.1076-.2812,18.3902-.2815,41.1076-.2815,41.1073.1298,41.1073.2815Z"/>
    <path class="j" d="M261.5208,295.8589c0,.1513-18.3902.2812-41.1073.2812s-41.1076-.1298-41.1076-.2812c0-.1517,18.3902-.2815,41.1076-.2815s41.1073.0974,41.1073.2815Z"/>
    <path class="j" d="M440.6941,177.1448c-1.3612.002-2.6926-.3997-3.8252-1.1548-1.1327-.7554-2.0169-1.8298-2.5369-3.0873-.5233-1.2575-.6624-2.6419-.3941-3.9776.265-1.3357.9174-2.5624,1.8811-3.5255.9638-.9628,2.1892-1.6182,3.5272-1.8831,1.3347-.2653,2.7191-.1282,3.9776.3941,1.2552.522,2.3316,1.4056,3.0867,2.5386.7551,1.133,1.1558,2.4647,1.1558,3.8265-.0033,1.8209-.7286,3.5662-2.017,4.8539-1.2883,1.2877-3.0336,2.0123-4.8552,2.0153ZM440.6941,164.4772c-1.1459-.0023-2.2686.3362-3.2224.972-.9538.6356-1.699,1.5407-2.1395,2.5998-.4405,1.0595-.5597,2.2256-.3345,3.351.2219,1.1254.7717,2.1597,1.5831,2.9717s1.8447,1.3652,2.9674,1.5897c1.126.2249,2.2918.1106,3.3516-.3279,1.0598-.4385,1.9673-1.1817,2.6064-2.1355.6359-.9538.977-2.0752.977-3.2225,0-1.536-.6094-3.0092-1.6957-4.0965-1.083-1.087-2.5568-1.699-4.0935-1.702Z"/>
    <path class="j" d="M449.1427,180.1954c-.1457-.0003-.2848-.0586-.3875-.1623l-4.4777-4.4462c-.053-.0503-.0927-.1103-.1192-.1762s-.0397-.1364-.0397-.2076c0-.0715.0133-.1421.0397-.208.0265-.0659.0662-.1258.1192-.1762.0497-.0503.1093-.0904.1755-.1176.0662-.0275.1358-.0414.2086-.0414.0695,0,.1391.0139.2053.0414.0662.0272.1259.0672.1789.1176l4.4776,4.4462c.0729.0768.1225.1732.1424.2772.0166.1043.0066.2116-.0331.3097-.0397.0984-.106.1828-.1921.2438-.0894.0606-.1921.0954-.298.0997Z"/>
    <path class="e" d="M335.5689,252.0577c0,.1513-17.7089.2812-39.5607.2812s-39.5712-.1298-39.5712-.2812,17.7195-.2812,39.5712-.2812,39.5607.1189,39.5607.2812Z"/>
    <path class="e" d="M386.7039,250.8353c0,.1623-9.2699.2812-20.6959.2812s-20.7035-.1189-20.7035-.2812,9.2706-.2812,20.7035-.2812,20.6959.1298,20.6959.2812Z"/>
    <path class="e" d="M335.1901,337.5938c0,.1513-17.7089.2812-39.5606.2812s-39.5606-.1298-39.5606-.2812c0-.1517,17.7089-.2815,39.5606-.2815s39.5606.1298,39.5606.2815Z"/>
    <path class="o" d="M122.8268,359.8566c-8.7838,4.5432-15.5125,12.3745-20.3481,20.9986-4.8353,8.6208-7.9617,18.063-11.0448,27.5084l-2.7045,48.4295c10.2118-17.3708,18.3902-37.7951,20.6187-57.8319l-6.7936-.6027c4.5542-.6955,8.3837-3.9941,10.8176-7.9088,2.4342-3.918,3.6782-8.4287,4.9006-12.8733l-8.2863,1.232c6.5578-4.4313,11.1567-11.2183,12.8405-18.9519Z"/>
    <g class="q">
      <path class="e" d="M122.8268,359.8566c-8.7838,4.5432-15.5125,12.3745-20.3481,20.9986-4.8353,8.6208-7.9617,18.063-11.0448,27.5084l-2.7045,48.4295c10.2118-17.3708,18.3902-37.7951,20.6187-57.8319l-6.7936-.6027c4.5542-.6955,8.3837-3.9941,10.8176-7.9088,2.4342-3.918,3.6782-8.4287,4.9006-12.8733l-8.2863,1.232c6.5578-4.4313,11.1567-11.2183,12.8405-18.9519Z"/>
    </g>
    <path class="o" d="M87.2149,468.0766s-22.1654-26.5248-21.9057-51.8473h8.946s-9.7359-6.4052-8.957-9.9853c.779-3.5801,1.0817-17.1356,1.0817-17.1356l8.1893,2.0434s-6.1445-3.0734-6.9125-7.9286c-.7684-4.8585,1.7957-27.3799,1.7957-27.3799,0,0,9.974,10.493,13.0461,21.2364,3.0721,10.7404,11.0772,23.2791,8.7192,56.0236-2.3584,32.7445-4.0027,34.9734-4.0027,34.9734Z"/>
    <path class="o" d="M98.4544,470.587s24.0154-15.9997,29.3485-36.4141l-7.2046-2.0103s9.2275-3.0072,9.3898-6.0574c.1623-3.0502,2.9207-14.0092,2.9207-14.0092l-7.0314-.1424s5.6143-1.0797,7.2911-4.8684c1.6768-3.7855,4.5545-22.3916,4.5545-22.3916,0,0-10.3201,6.2429-15.1449,14.2145-4.8247,7.9717-14.0632,16.2812-19.3099,43.1305-5.2467,26.8494-4.8138,28.5484-4.8138,28.5484Z"/>
    <path class="l" d="M75.4561,378.9806c.0381.0894.0672.1788.0864.2716l.1947.8114c.1732.7684.411,1.8183.7246,3.1496.6167,2.7356,1.439,6.7065,2.3693,11.628,1.8931,9.8329,4.1322,23.5077,5.8955,38.6959,1.7636,15.1882,2.6939,29.012,3.094,39.0304.2057,5.0076.3136,9.0546.3355,11.8996v4.0868c.0159.0927.0159.1888,0,.2815-.0149-.0927-.0149-.1854,0-.2815v-.8313c0-.7915-.0649-1.8613-.1192-3.2457-.0864-2.8018-.2596-6.8489-.519-11.8466-.4978-10.0052-1.5039-23.7991-3.2456-38.9443-1.7414-15.1419-3.9266-28.8398-5.7226-38.6926-.8869-4.9248-1.644-8.9056-2.1633-11.6512-.2596-1.3413-.4653-2.4011-.6167-3.1595-.054-.3444-.1083-.616-.1408-.8313-.0841-.1093-.1431-.2352-.1729-.3709Z"/>
    <path class="o" d="M84.1425,484.3247s-20.2832-22.9546-26.59-36.9307l4.7598-2.0235c-3.4509.563-6.9775-.9207-9.6494-3.1694-2.5668-2.3779-4.775-5.1136-6.5556-8.124l6.2635-1.083c-5.7517-1.6361-10.6547-5.4182-13.6953-10.5682,7.3993,1.2122,14.0631,5.2692,19.5909,10.343,4.3868,4.2061,8.3705,8.8129,11.8997,13.7608,1.7649,2.3746,3.3076,4.9115,4.6081,7.5709,3.3861,7.0543,9.3792,21.7756,9.3683,30.2242Z"/>
    <path class="l" d="M128.1169,398.1299c-.0166.0828-.0457.1623-.0868.2384l-.3027.669-1.2224,2.5634c-1.082,2.166-2.6071,5.4116-4.4677,9.4223-3.7212,7.975-8.6543,19.1161-13.479,31.6449-4.8247,12.5255-8.6543,24.0674-11.3153,32.453-1.3089,4.2061-2.3365,7.5709-3.029,9.982l-.8329,2.7389-.2272.7021c0,.1523-.0864.2384-.0974.2285-.0109-.0133,0-.0861,0-.2484l.1732-.7154.714-2.7489c.6273-2.3779,1.601-5.809,2.8664-10.0284,2.5207-8.4486,6.3177-20.0236,11.164-32.5723,4.8463-12.5487,9.8333-23.6666,13.6522-31.6085,1.9037-3.9709,3.494-7.1603,4.63-9.3461l1.3198-2.5204.3567-.6392c.053-.0795.1146-.1523.1841-.2153Z"/>
    <path class="l" d="M85.8623,494.1908c-.1573-.5365-.2659-1.0863-.3246-1.6427-.1623-1.0829-.4325-2.5866-.8114-4.4677-.9946-4.8949-2.3726-9.7004-4.1216-14.3768-1.7762-4.6731-3.9213-9.1938-6.4148-13.5224-.9628-1.6559-1.7632-2.9873-2.3475-3.8848-.3186-.457-.5975-.9439-.8329-1.4506.3779.4107.7183.8512,1.0167,1.3214.6382.8743,1.5039,2.1627,2.5097,3.8186,2.6081,4.2922,4.8171,8.8162,6.5989,13.5125,1.7682,4.7028,3.1009,9.5581,3.9809,14.506.3246,1.9043.5408,3.4377.6382,4.5207.0825.5531.1186,1.1095.1083,1.6659Z"/>
    <path class="j" d="M112.6256,488.7725h-44.3963v9.0546h44.3963v-9.0546Z"/>
    <path class="j" d="M72.4592,497.8371l4.8029,30.4527h26.8282l4.4786-30.4527h-36.1097Z"/>
    <path class="l" d="M109.8996,497.8371c0,.1523-8.3946.2815-18.7581.2815s-18.7469-.1292-18.7469-.2815,8.3943-.2815,18.7469-.2815,18.7581.1193,18.7581.2815Z"/>
    <path class="o" d="M303.2457,505.8221v22.4578l45.3048-.2186c-.3246-4.5538-25.1947-13.6416-25.1947-13.6416l.4978-8.6539-20.6078.0563Z"/>
    <g class="r">
      <path class="i" d="M310.5908,512.3862c-.4411.1623-.8087.4769-1.0356.8909-.2265.4107-.2967.8909-.1977,1.3479.1037.4537.3805.8445.7713,1.0929.3905.2517.8634.3345,1.3165.2384.468-.1755.8568-.5134,1.0949-.9538.2385-.4371.3107-.9472.2034-1.4373-.0798-.2219-.203-.4306-.363-.6061-.16-.1755-.353-.3179-.5686-.4173-.2153-.1026-.4484-.159-.6859-.1689-.2375-.0099-.4746.0298-.6975.1126"/>
    </g>
    <path class="l" d="M303.2457,528.2765v-3.5801l43.2709.51s2.2501,1.3513,2.0444,2.8549l-45.3154.2152Z"/>
    <path class="l" d="M323.3769,514.8535c0,.2384-1.082.3577-2.1636,1.0829-1.0817.722-1.6334,1.752-1.8391,1.6659-.2053-.0894.1083-1.4506,1.4171-2.3481,1.3092-.8975,2.6286-.616,2.5856-.4007Z"/>
    <path class="l" d="M329.3161,516.9301c0,.2285-.8982.6392-1.6338,1.6328-.7356.9969-.9303,2.0468-1.1466,2.0335-.2163-.0099-.3785-1.3181.5518-2.5402.9303-1.2221,2.2176-1.3413,2.2286-1.126Z"/>
    <path class="l" d="M331.9881,522.653c-.2057.053-.5302-1.083,0-2.3912.5299-1.3082,1.5685-1.805,1.6659-1.6129.0974.1954-.5302.8876-.9628,1.9474-.4329,1.0598-.4869,2.0335-.7031,2.0567Z"/>
    <path class="l" d="M322.9335,508.4616c-.0868.2153-1.082-.0894-2.3475,0-1.2658.0861-2.1636.5398-2.315.3345-.1517-.2053.8005-1.083,2.2607-1.1459,1.4605-.0663,2.5097.6259,2.4018.8114Z"/>
    <path class="l" d="M323.1935,515.8603c.1225-.4471.1556-.9141.0974-1.3744-.0984-1.2618-.5114-2.4773-1.2006-3.5371-.4713-.7286-1.0727-1.3645-1.7742-1.8712-.207-.1789-.4577-.2981-.7259-.3444-.2683-.0463-.5441-.0232-.7995.0729-.2653.149-.4875.361-.6448.6226-.1573.2583-.2448.5564-.253.8611.0699,1.1691.4852,2.2951,1.1936,3.2291.7087.9372,1.6785,1.6427,2.7873,2.0269,1.0853.3444,2.2491.3544,3.3407.0298,1.0916-.3212,2.0606-.9671,2.7823-1.848.3544-.4074.6296-.8743.8114-1.3844.0921-.2914.0921-.6061,0-.8975-.0507-.1457-.1318-.2782-.2381-.3908-.1063-.1126-.2355-.1987-.3785-.2583-.4693-.1391-.974-.0894-1.4062.1424-.3752.1689-.7369.3676-1.082.5928-1.0174.6822-1.8951,1.5532-2.5853,2.5634-.2822.3577-.4951.765-.6276,1.2022.9383-1.3181,2.1074-2.4541,3.451-3.3549.6057-.3444,1.4062-.8412,2.0444-.616.2812.1093.3895.4438.2596.8346-.1646.4206-.4067.8114-.714,1.1459-.6544.7783-1.5248,1.3446-2.5008,1.6261-.9763.2848-2.0146.2716-2.9837-.0364-.9687-.3411-1.8202-.9538-2.4541-1.7619-.6342-.8081-1.025-1.7818-1.1267-2.8018-.0076-.1954.0378-.3908.1308-.5597.0934-.1722.2315-.3146.3994-.414.1722-.0563.3554-.0662.5332-.0331.1775.0331.3438.1126.4835.2252.6548.457,1.2227,1.0234,1.6768,1.6791.6816.9671,1.1363,2.0766,1.3307,3.2457.1404.8975.1189,1.3843.1729,1.3843Z"/>
    <path class="o" d="M286.7052,509.0644l.768,5.7892-.5084,13.0355-16.9839.4107-.6058-13.4462,1.9255-7.9949,15.4045,2.2057Z"/>
    <path class="l" d="M278.5703,526.9054c-.1083,0,.1408-3.9808.5408-8.9056.4004-4.9215.8223-8.9222.9197-8.9355.0974-.0099-.1408,3.9941-.5412,8.9156-.4001,4.9214-.822,8.9255-.9194,8.9255Z"/>
    <path class="l" d="M287.0295,525.7131l-17.1568.2053v2.3813l17.1677-.0099-.0109-2.5766Z"/>
    <path class="l" d="M269.916,518.2184s.1189-.2716.4325-.6822c.4497-.5895.9571-1.1327,1.5145-1.6228.819-.7419,1.7411-1.3612,2.7369-1.8381,1.742-.8544,3.7116-1.1227,5.6186-.7717,1.907.3544,3.65,1.3115,4.9721,2.729.4994.5564.9184,1.179,1.2439,1.8513.1381.2352.2299.4968.2706.7651-.5279-.8346-1.1211-1.6261-1.7742-2.368-1.6987-1.6725-3.9868-2.6131-6.3717-2.6164-2.3905.0696-4.683.9638-6.4906,2.5303-1.3956,1.1558-2.0878,2.0865-2.1527,2.0235Z"/>
    <path class="n" d="M278.4944,145.2108l-.1298,58.697,25.1944,1.2009.7356-14.2795s8.9464,1.7742,11.2504-6.4906c1.4821-5.3116,1.082-46.3434,1.082-46.3434l-38.1326,7.2156Z"/>
    <path class="l" d="M319.9154,142.1171c-3.9699,1.1356-4.8353,7.5723-4.8353,7.5723l-6.2204,13.7496c-3.1695-2.4773-7.4318-2.3369-8.2323,3.2453-.5842,4.0239,4.4247,4.8353,4.4247,4.8353-2.9207,4.9655-4.8896,8.9788-9.1411,13.6953-4.5651,5.1384-7.1613,5.6471-12.1377,5.712h-5.4954s-2.6936-8.7301-7.6696-30.5494c-5.5169-24.2101,23.1066-21.0946,28.4182-27.2716,8.6433-10.0495,33.4267,5.4305,20.889,9.0113Z"/>
    <path class="l" d="M326.9034,136.838c-.2189-1.2913-.8919-2.4617-1.8974-3.3006-1.0055-.8389-2.2776-1.2913-3.5871-1.2754.4094-.6899.562-1.5023.4315-2.2938-.1305-.7915-.5362-1.5115-1.1456-2.0335-.6326-.4968-1.3655-.8508-2.1477-1.0373-.7826-.1868-1.596-.202-2.3849-.0444-1.5778.3193-3.1009.8657-4.5217,1.6228-.5312-1.5692-1.5559-2.9241-2.9211-3.862-1.4688-.8611-3.1559-1.278-4.8572-1.2009-7.7345,0-11.8018,5.2901-15.9559,10.6881-.6061,1.0055-1.4734,1.8282-2.5097,2.3799-.7541.2216-1.5413.3093-2.3259.2596-2.9552.0934-5.8332.9647-8.3443,2.526-2.5107,1.5612-4.5654,3.7573-5.9567,6.3661-2.7045,5.2248-4.7274,17.3085,2.2825,24.8808l4.219,9.4223,40.3827-31.999c.2921.1517,2.8234,1.3847,4.7704.3679,4.8356-2.5531,2.8018-6.7936,2.8018-6.7936.3895-.2702,4.0782-2.0769,3.6672-4.673Z"/>
    <path class="o" d="M289.5283,168.3283c.3372,1.4731.2888,3.0082-.1408,4.4571-.2272,1.4953-.8429,2.9055-1.7848,4.0888-.1732-.0864.6382-1.8821,1.1575-4.2296.5193-2.3475.5842-4.3164.768-4.3164Z"/>
    <path class="o" d="M292.5788,165.44c.2113,1.4436.1305,2.9151-.2378,4.327-.1609,1.4393-.6137,2.8307-1.3307,4.0892.1063-1.4211.3418-2.8297.7031-4.2081.155-1.4267.4448-2.836.8654-4.2081Z"/>
    <path class="o" d="M301.298,155.7475c.0649.0864-.6491.6057-1.5579,1.6659-1.1582,1.4042-2.0755,2.9906-2.7151,4.6949-.621,1.7235-1.1231,3.4874-1.5039,5.2791-.1066.7468-.3179,1.4754-.6273,2.1636-.0457-.773.0162-1.5486.1838-2.3044.2564-1.846.7097-3.6593,1.3522-5.409.6584-1.7745,1.6748-3.3947,2.9857-4.7598.513-.5865,1.1582-1.0426,1.8825-1.3304Z"/>
    <path class="o" d="M304.8245,149.1592c.0755,0,.3352.5627.4974,1.5794.1828,1.34.1057,2.7025-.2272,4.0133-.3166,1.3135-.8942,2.5495-1.6983,3.6348-.6167.8329-1.0817,1.2333-1.179,1.1794-.0974-.0543,1.547-2.0229,2.261-4.9655.7137-2.9423.1514-5.4196.3461-5.4414Z"/>
    <path class="o" d="M274.7623,163.8175c-.0868.1623-.8548-.1083-1.7202-.5951-.8654-.4868-1.5036-.9952-1.4171-1.1575.0868-.1623.8548.1189,1.7202.6057.8654.4868,1.5036.9952,1.4171,1.1469Z"/>
    <path class="o" d="M286.9318,157.5538c.0987.9111-.157,1.8252-.7137,2.5531-.7789,1.2873-1.8285,1.958-1.9364,1.8282-.1083-.1298.6816-.9737,1.3847-2.1636.7031-1.19,1.0817-2.2607,1.2655-2.2176Z"/>
    <path class="o" d="M290.6748,155.5418c-.0132,1.1085-.3934,2.1815-1.082,3.0506-1.0058,1.536-2.2716,2.3584-2.369,2.1636s.8978-1.082,1.8391-2.5641c.4855-.9137,1.0237-1.7987,1.6119-2.6502Z"/>
    <path class="o" d="M309.2816,130.9422s-.4759-.357-1.3844-.8763c-1.3009-.6899-2.7469-1.0605-4.219-1.0817-2.1825-.058-4.3352.5167-6.1985,1.6549-2.2382,1.4701-4.0541,3.4983-5.2685,5.8849-.9296,1.7463-1.6556,3.594-2.1633,5.5063l-.1083.3676-.3352-.1838c-1.7351-.9078-3.657-1.4003-5.6146-1.4387-1.5539-.0354-3.1019.1987-4.576.6922-1.3115.4865-2.5667,1.1141-3.7428,1.8715.2424-.2895.5269-.5408.8439-.7465.8501-.6193,1.7821-1.1181,2.769-1.4821,1.5026-.572,3.0979-.8617,4.7058-.8545,2.0537-.005,4.0789.4809,5.9064,1.4172l-.4435.1947c.5001-1.96,1.2261-3.8547,2.1637-5.6467,1.2661-2.4842,3.1751-4.5836,5.5278-6.0796,1.957-1.1661,4.2154-1.7271,6.4906-1.6119,1.5324.0656,3.0224.5239,4.327,1.3304.3481.2202.671.4779.9631.768.2702.1947.3676.303.3567.314Z"/>
    <path class="o" d="M322.5334,134.1441c-.054,0,.6922-.1947,1.4387.6491.2156.252.3782.5445.4786.8604.1004.3159.1364.6485.1057.9787-.0656.4398-.2325.8588-.4878,1.2227-.2553.3643-.5922.6644-.9833.876-.929.5269-2.0245.6779-3.0615.4219-1.1399-.3004-2.2097-.8223-3.1479-1.5364-.9846-.7856-2.0179-1.5082-3.0939-2.1633-1.1638-.6296-2.4196-1.0714-3.7212-1.3092-2.5283-.455-5.1301-.2769-7.5726.5193-2.0057.6611-3.8987,1.6241-5.6143,2.8558-2.9423,2.1097-4.3919,3.8838-4.4892,3.7865.2908-.4488.6283-.8657,1.0058-1.2443.9906-1.0671,2.0769-2.0411,3.2456-2.9098,1.7245-1.3158,3.6493-2.3458,5.7007-3.0506,2.5402-.8614,5.2576-1.0625,7.8972-.5842,1.3668.2514,2.6849.7187,3.905,1.3847,1.0879.6528,2.1322,1.3754,3.1264,2.1633.87.6846,1.8662,1.1916,2.9317,1.493.9127.251,1.8868.1467,2.726-.2921.3395-.1732.6352-.4206.8657-.724.2302-.3034.3891-.6551.465-1.0283.0775-.5789-.0739-1.1648-.4219-1.6337-.3319-.3911-.7919-.6518-1.2983-.7356Z"/>
    <path class="n" d="M439.9059,179.2002c-.9505-.8439-13.7807,4.5326-13.7807,4.5326,0,0-9.5746,7.5726-13.5125,11.9535l-2.4342,2.0229-36.4108,28.3102-44.7871-18.6283-9.7359,24.9781s50.2805,20.0239,57.9409,16.5945c8.3194-3.7212,39.3119-36.1637,39.3881-36.272l4.4777-4.327s2.368,0,4.163-.1513c1.7983-.1517,7.0543-3.6023,7.0543-3.6023.5001-.9601.8412-1.9934,1.0168-3.0615.1093-.4252.0729-.8753-.1027-1.2774-.1755-.4021-.4835-.7333-.871-.9402.1822-.8316.212-1.6894.0861-2.5313-.2053-1.4281-2.1627-3.083-2.1627-3.083.6094-.622,1.0267-1.4072,1.1989-2.261.4339-1.6553-1.6957-3.2453-1.6957-3.2453,0,0,7.4517-5.0629,9.26-5.9607,1.805-.8978,1.858-2.2067.9074-3.0506Z"/>
    <path class="l" d="M335.5689,435.0738c.1513-1.646.2272-2.9111.2272-3.7027l5.0625-80.7312s-4.2511-23.5828-6.2634-29.8353l-18.0766-6.9993-24.0909,9.3792c-.1517-1.9365-.2491-3.1373-.2491-3.1373l-35.4496,12.2675s-.9194,24.1992,0,31.5661c.303,2.369,1.2224,8.4827,2.3474,15.686,0,0,1.1466,15.6519,1.3847,16.5296.8545,3.1893,1.0817,11.012,1.0817,18.8446,0,9.9522.5408,21.7987,1.1684,27.4223.6273,5.6269.9194,67.5456.9194,67.5456h26.179l3.3645-98.6143c.5624-10.5682,1.4062-26.7301,1.9471-38.4244l6.1445,36.4141c0,1.3281,3.7428,22.1531,3.7428,22.1531-.8641,6.5542-1.3983,13.1448-1.601,19.752-.4325,18.3908-2.5853,58.7195-2.5853,58.7195h25.6163s7.7021-58.2856,9.1951-74.8351h-.0649Z"/>
    <path class="o" d="M340.0257,345.8043c-.8409-.3176-1.6374-.7432-2.369-1.2655-1.8172-1.1658-3.5132-2.5101-5.0625-4.0136-1.5496-1.5-2.9482-3.1486-4.1759-4.9218-.5531-.7074-1.0012-1.4907-1.3304-2.3259.5935.6591,1.1426,1.3565,1.6444,2.0878,1.3042,1.6871,2.7247,3.2814,4.2511,4.7707,1.5274,1.4738,3.1579,2.8366,4.879,4.0782.7581.4776,1.4811,1.0091,2.1633,1.59Z"/>
    <path class="o" d="M294.2884,360.4732c-.2053-.2401-.3733-.51-.4974-.8005-.4024-.7591-.7634-1.539-1.082-2.3368-1.0956-2.6256-1.8974-5.3649-2.3908-8.1671-.4812-2.8035-.6551-5.6511-.519-8.492.0649-1.082.1514-1.958.2487-2.5641.0189-.3189.0884-.6329.2057-.9303.0864,0,0,1.3522-.0543,3.505-.0325,2.8095.1921,5.6156.6707,8.384.4779,2.7671,1.2019,5.4858,2.1636,8.124.768,2.0229,1.3307,3.2344,1.2549,3.2778Z"/>
    <path class="o" d="M298.0961,390.8702c-.16-.4537-.2722-.9273-.3352-1.4042-.1878-1.0267-.4256-2.3117-.714-3.8616-.5627-3.3881-1.3198-7.8458-2.1637-12.7772-1.4496-9.0543-2.4339-15.2207-2.8883-18.0871.5879,1.695,1.0012,3.4457,1.233,5.2248.6276,3.2453,1.4066,7.7779,2.2286,12.7663.8223,4.9844,1.5036,9.5282,1.9798,12.807.2053,1.5566.3891,2.8548.5299,3.8948.0967.4736.1401.9538.1298,1.4373Z"/>
    <path class="n" d="M236.3161,256.2118s-3.451,24.329-4.0998,32.8535c-.3895,5.1384,4.8244,11.8996,8.8056,12.4513,3.9809.5514,17.3949,1.2979,17.3949,1.2979l1.0817-15.2637-.3461-3.04-4.165-.7786,1.2549-24.2101-19.9262-3.3102Z"/>
    <path class="c" d="M255.723,260.344c.1073.4319.162.875.1623,1.3198.0649.8544.1083,2.0878.1408,3.6238.0758,3.0506,0,7.2805-.2596,11.8996-.2596,4.6194-.6382,8.8705-.9303,11.8996-.1623,1.5145-.2921,2.7479-.4004,3.5914-.0242.4438-.1003.8833-.2272,1.3092-.049-.4421-.049-.8886,0-1.3307.0543-.9737.1298-2.1637.2166-3.6133.2053-3.1695.465-7.3126.7571-11.8992.2921-4.587.4004-8.849.4329-11.8996v-3.6132c-.0093-.4315.0271-.8631.108-1.2873Z"/>
    <g class="q">
      <path class="e" d="M257.0428,332.7581c6.8152,2.5313,14.2795,2.7369,21.5166,2.1093,7.2371-.6273,14.3984-2.0878,21.6355-2.7694,10.9679-1.025,22.0293-.2948,32.767,2.1636.7491.2275,1.5367.301,2.315.2163.3865-.049.7491-.2136,1.0406-.4723.2914-.2586.4981-.5991.5928-.9773.1947-1.2115-1.1356-2.0553-2.2607-2.5203-12.3818-5.1205-25.6928-7.6107-39.0881-7.3129-13.3955.2981-26.5824,3.3778-38.7241,9.0437"/>
    </g>
    <path class="j" d="M361.3906,218.4469l-38.4247-19.1257c-6.0591-.7107-12.1622-.9783-18.2603-.8005h-25.4326s-30.809,9.0868-35.904,17.4708l-13.2084,39.5928,26.1141,3.9378,3.2453,28.4507s-3.2453,32.9399-3.2453,37.7216c-.0709,2.2143.0629,4.4306.4001,6.6204,0,0,52.2497-7.9402,65.1121-3.7537,12.8623,4.1862,16.3348,3.7537,16.3348,3.7537,0,0-1.0817-13.6737-2.0229-21.6355l-2.9641-39.7011-2.1637-30.2897,24.1777,7.3991,6.2419-29.6406Z"/>
    <path class="l" d="M256.037,259.8357c-.0974,0-.357-1.6334-.9303-4.273-.7637-3.4331-1.7761-6.8066-3.029-10.0929-1.2794-3.3112-2.7757-6.5347-4.4786-9.6495l-1.5794-2.8343c-.2235-.3355-.4017-.6991-.5299-1.0817.2825.2908.5292.614.7356.9628.4435.6382,1.0817,1.5794,1.7417,2.7694,1.8262,3.0754,3.3897,6.2998,4.6734,9.6385,1.2655,3.3102,2.2286,6.7281,2.8774,10.2122.2381,1.3304.3895,2.4124.4653,3.1695.0666.3891.0848.7852.054,1.179Z"/>
    <path class="l" d="M305.3113,271.0752c-.0202.1828-.0676.3616-.1408.5302l-.4869,1.4605c-.2163.6382-.4865,1.4062-.8435,2.2931-.357.8872-.7356,1.904-1.2333,2.9857-.9412,2.1636-2.1636,4.7817-3.6997,7.5726-1.536,2.7909-3.3536,5.755-5.409,8.7622-2.0553,3.0075-4.327,5.7226-6.3714,8.1244-2.0448,2.4014-4.0892,4.4243-5.8418,6.0687-.8544.8439-1.6874,1.547-2.3905,2.1637-.7031.6163-1.3416,1.1681-1.8606,1.59l-1.2118.9522c-.1364.1199-.2848.2249-.4435.3136,0,0,.1189-.1517.3785-.4004l1.136-1.0817c.4974-.4329,1.0817-.9846,1.7957-1.6444s1.493-1.3737,2.3259-2.2286c1.7093-1.6659,3.6563-3.7427,5.7226-6.1227,2.0659-2.3799,4.2081-5.1278,6.3068-8.1025,2.0984-2.9751,3.8941-5.9498,5.4086-8.6542,1.5145-2.7045,2.8018-5.3007,3.7865-7.4752.519-1.0817.9194-2.0878,1.2979-2.9532.3785-.8654.6925-1.6225.9412-2.2501.2487-.6273.4219-1.0817.5842-1.4277.0626-.1686.1464-.3285.2487-.4762Z"/>
    <path class="l" d="M323.0633,201.9392c-1.0111,1.4453-1.7006,3.0903-2.0229,4.8244-.3246,1.8795-.3246,3.8004,0,5.6795.4193,2.313.9611,4.6025,1.6228,6.8586,1.3304,4.8463,2.726,9.1626,3.7967,12.2781.5087,1.4711.9303,2.7045,1.2767,3.6888.1792.4441.3166.9041.411,1.3738-.2524-.4103-.4627-.8452-.6276-1.2979-.3567-.8439-.8654-2.0772-1.4493-3.6242-1.1684-3.083-2.6396-7.41-3.9703-12.2672-.6468-2.2657-1.1635-4.5664-1.547-6.891-.3176-1.9332-.2885-3.9077.0864-5.8309.2656-1.2976.772-2.5342,1.493-3.6454.2378-.4358.5531-.8243.9303-1.1466Z"/>
    <path class="i" d="M250.5628,243.6197c-.5697.6157-1.2728,1.0933-2.0553,1.3956-1.8381.8435-3.8835,1.1304-5.8829.8247-1.9994-.3057-3.8653-1.1903-5.3676-2.5445-.6548-.5183-1.1803-1.181-1.536-1.9364.0758-.0649.6382.7031,1.7957,1.6334,1.5059,1.2174,3.3082,2.0123,5.2225,2.3031,1.9143.2908,3.8716.0672,5.6709-.6481,1.3307-.5408,2.0987-1.1032,2.1527-1.0277Z"/>
    <path class="i" d="M324.1996,225.7598c-.0758.2878-.1808.5667-.314.8329-.2378.5408-.6057,1.3198-1.1356,2.2935-1.5228,2.7611-3.4477,5.2801-5.712,7.4749-3.3844,3.2847-7.6051,5.5782-12.2023,6.6314-2.7101.621-5.5109.7422-8.2648.357-2.9466-.469-5.7815-1.4774-8.3622-2.9751-5.3116-2.9641-9.8008-6.7178-14.712-8.5135-4.3442-1.6059-9.0715-1.8659-13.5654-.7465-3.0333.7279-5.8955,2.0398-8.427,3.862-1.7742,1.3089-2.6071,2.2286-2.6505,2.1637.7574-.867,1.602-1.6536,2.5207-2.3475,3.1403-2.3799,6.8245-3.9398,10.7189-4.5386,3.8948-.5988,7.877-.2173,11.5872,1.1095,5.0304,1.8172,9.5521,5.5818,14.7988,8.5026,2.5183,1.4834,5.2861,2.4952,8.1674,2.9857,2.6912.3785,5.4285.2686,8.0806-.3246,4.5161-1.0118,8.6731-3.2287,12.0294-6.4148,2.2719-2.1401,4.2249-4.5956,5.7984-7.2911.5517-.9522.9628-1.7202,1.2224-2.2395.1189-.2845.26-.5594.4219-.822Z"/>
    <path class="i" d="M348.258,211.8808c.2139.3974.3809.8187.4978,1.2549.3564,1.1704.5673,2.3802.6273,3.6023.21,4.0971-1.0866,8.1297-3.6454,11.3369-1.4864,1.6457-3.0996,3.1721-4.8247,4.5651-1.3539,1.136-2.4587,2.5389-3.2453,4.1216-.5319,1.0658-.7813,2.2501-.725,3.4401.0649.8439.2487,1.2979.1947,1.3088-.054.0109-.0755-.0974-.1623-.3136-.1222-.3133-.206-.6402-.2487-.9737-.1484-1.2376.0503-2.4925.5733-3.6239.7607-1.6576,1.8672-3.133,3.2453-4.3273,1.6791-1.3993,3.2585-2.9138,4.7274-4.5326,2.4703-3.1148,3.7749-6.9947,3.6891-10.9689-.0831-1.6483-.3186-3.285-.7034-4.8896Z"/>
    <path class="i" d="M285.7637,303.0851c-.3408.1821-.7048.317-1.082.4001-1.0429.2987-2.1057.5226-3.1804.671-1.6198.2686-3.2791.1725-4.8572-.2815-.9359-.2974-1.801-.7833-2.5422-1.4278-.7448-.7074-1.439-1.4665-2.0769-2.2719-.6259-.7664-1.3539-1.4433-2.1637-2.012-.7707-.5024-1.6033-.9025-2.4773-1.19-1.4973-.4786-3.0801-.6299-4.6406-.4435-1.0581.1166-2.0891.409-3.0509.8654-.3468.1941-.7084.3603-1.0817.4974.2832-.2838.6124-.518.9737-.6922.9575-.5534,2.0107-.9204,3.1046-1.0817,1.6198-.26,3.2778-.1451,4.8466.3351.9296.2855,1.8146.7008,2.6286,1.2333.8641.5819,1.6371,1.2893,2.2931,2.0987.621.7826,1.2933,1.5235,2.0123,2.2176.6862.6028,1.4837,1.0658,2.3475,1.3628,1.5079.4461,3.0916.5749,4.6515.3785,2.6286-.3136,4.273-.7571,4.2948-.6597Z"/>
    <path class="i" d="M335.5146,300.781c-.1027.1113-.2189.2093-.3461.2921-.3461.2593-.7074.4978-1.0817.714-1.344.82-2.8022,1.4364-4.3273,1.8282-2.2918.5892-4.6757.7286-7.0209.411-2.8919-.3914-5.6385-1.5079-7.9833-3.2453-2.2282-1.7997-4.3591-3.7172-6.3826-5.7445-1.6556-1.6092-3.5722-2.926-5.6683-3.8941-1.4072-.6521-2.9386-.9916-4.4896-.9952-1.0817,0-1.7093.1838-1.7199.1189.1378-.0646.2832-.1119.4325-.1408.4173-.1126.8452-.1815,1.2767-.2053,1.5986-.0722,3.193.2199,4.6625.8544,2.164.9399,4.1455,2.2544,5.8524,3.8835,1.9795,1.7526,3.9484,3.8835,6.3714,5.6686,2.2709,1.6695,4.9218,2.7475,7.713,3.137,2.2835.3309,4.6085.2391,6.8586-.2702,1.5059-.3584,2.9601-.9071,4.3273-1.6334.4918-.2908,1.0012-.5511,1.5251-.7789Z"/>
    <path class="l" d="M427.4664,146.6385c-7.8591-3.7583-14.7146-9.3193-20.0169-16.2302-5.299-6.9109-8.8957-14.976-10.4887-23.5388-1.593-8.5625-1.1393-17.3804,1.3181-25.7356,2.4607-8.3552,6.8589-16.0111,12.8368-22.3443,5.9813-6.3333,13.37-11.1648,21.5702-14.1009,8.2002-2.9362,16.9767-3.894,25.6173-2.7955,8.6407,1.0985,16.9005,4.2223,24.1038,9.1169,7.2033,4.8946,13.1482,11.4218,17.3542,19.0497,5.66,10.2581,7.9187,22.0494,6.4449,33.6731-1.4771,11.6237-6.6039,22.4783-14.6484,30.9985-8.0412,8.5198-18.5829,14.2642-30.1049,16.4044-11.5187,2.1401-23.4216.5653-33.9864-4.4972ZM473.5711,50.2092c-11.0981-5.2972-23.7229-6.4555-35.596-3.2662-11.8764,3.1893-22.2227,10.5164-29.1743,20.6603-6.9483,10.1439-10.0482,22.4372-8.7334,34.6634,1.3148,12.2261,6.9516,23.5809,15.897,32.0169,8.9487,8.436,20.6131,13.3982,32.8968,13.9923,12.2805.5938,24.3721-3.2198,34.0891-10.7533,9.7203-7.5335,16.4269-18.2911,18.9141-30.3334,2.4872-12.0426.5895-24.5774-5.3487-35.3443-5.2029-9.431-13.2243-16.9967-22.9446-21.6356Z"/>
    <path class="l" d="M520.8017,207.153c-1.5533.9548-3.4212,1.2552-5.1963.8356-1.7752-.4196-3.3086-1.5254-4.269-3.0747l-36.1656-58.6215c-.1623-.2656-.2153-.5855-.1457-.8896.0729-.3044.2617-.568.5266-.7332l7.7133-4.7595c.2617-.1606.5763-.2133.8777-.1467.2981.0666.563.2471.732.5034l38.0369,57.1503c.5233.7707.8842,1.6397,1.0598,2.5541.1789.9144.1689,1.8553-.0298,2.7657s-.5763,1.7712-1.1161,2.5303c-.5398.7591-1.2287,1.4006-2.0235,1.8858Z"/>
    <path class="o" d="M428.7978,143.8476c-7.8624-3.7563-14.7279-9.317-20.0302-16.2285-5.3056-6.9119-8.9056-14.9793-10.5019-23.5448-1.5963-8.5655-1.1459-17.3873,1.3148-25.7462,2.4574-8.3588,6.8589-16.0183,12.8401-22.3545,5.9812-6.3362,13.3733-11.1698,21.5768-14.1069,8.2035-2.9371,16.9833-3.8947,25.6273-2.7948,8.644,1.1,16.9038,4.2264,24.1105,9.1245,7.2066,4.8981,13.1514,11.4294,17.3575,19.0616,5.6567,10.2587,7.9088,22.049,6.4349,33.6713-1.4771,11.622-6.6039,22.4754-14.6451,30.9952-8.0412,8.5195-18.5829,14.2649-30.0983,16.4077-11.5187,2.1431-23.4216.5726-33.9864-4.4846ZM474.9024,47.4182c-11.0981-5.2971-23.7229-6.4555-35.5993-3.2662-11.8731,3.1893-22.2193,10.5164-29.171,20.6603-6.9483,10.144-10.0482,22.437-8.7334,34.6634,1.3115,12.2261,6.9516,23.5809,15.897,32.0169,8.9487,8.436,20.6131,13.3982,32.8968,13.9923,12.2805.5938,24.3721-3.2198,34.0891-10.7533,9.7203-7.5335,16.4269-18.2911,18.9141-30.3334,2.4872-12.0426.5895-24.5774-5.3487-35.3445-5.2029-9.4309-13.2243-16.9966-22.9447-21.6355Z"/>
    <path class="o" d="M475.8827,142.4245l9.6939-5.9806,38.4575,62.3394c.7518,1.2211.9902,2.6909.6591,4.0868-.3312,1.396-1.2022,2.6031-2.421,3.3563l-.563.3468c-1.2221.7531-2.6926.9902-4.0869.6597-1.3976-.3309-2.6031-1.2025-3.3582-2.4236l-38.4542-62.3394.0729-.0454Z"/>
    <path class="f" d="M411.3575,80.8233c.053-.5773.1524-1.1492.3047-1.7089.1259-.6663.2981-1.3241.5067-1.9689.2451-.8687.5332-1.7245.8644-2.5637l.5531-1.4605c.2053-.5084.4769-1.0061.7253-1.547.4868-1.0818,1.1459-2.1635,1.805-3.2994,1.5367-2.4363,3.3119-4.7122,5.3023-6.7935,2.0269-2.0404,4.2525-3.874,6.6403-5.4738,1.0499-.685,2.1328-1.3168,3.2457-1.8931.5199-.2704,1.0167-.5517,1.5168-.7789l1.4473-.6166c.828-.3553,1.6725-.6658,2.5336-.9303.6392-.2303,1.2916-.4182,1.9573-.5625.5564-.1581,1.1227-.2774,1.699-.357-.5332.2252-1.0829.4097-1.646.5517-.6491.1792-1.2883.3959-1.9143.6491-.8412.2877-1.6692.6199-2.4773.9952l-1.4175.6383c-.4968.2272-.9836.5192-1.4936.7897-1.0797.5301-2.0766,1.2224-3.1893,1.9148-2.3316,1.5899-4.5075,3.4012-6.4913,5.4088-1.9639,2.0524-3.7292,4.2873-5.2692,6.6746-.6591,1.0818-1.3281,2.1636-1.8282,3.2453-.2484.5193-.5299,1.0061-.7452,1.5036l-.6061,1.4387c-.4107.8982-.6591,1.7636-.9306,2.5097-.2318.6336-.4272,1.2804-.5829,1.9365-.1259.5789-.2948,1.1469-.51,1.6983Z"/>
  </g>
  <g class="p">
    <g>
      <path class="f" d="M515.7846,567.0313c1.209-.7309,2.5098-1.295,3.87-1.677l.788-3.8253,6.4607-.1109.9283,3.7837c1.3656.3356,2.6771.8531,3.9077,1.5384l3.2708-2.1344,4.6418,4.4906-2.024,3.3264c.7286,1.2074,1.2953,2.5082,1.6786,3.8669l3.8267.79.1079,6.4586-3.7997.9286c-.3346,1.3606-.8528,2.6703-1.5382,3.8945l2.1373,3.2571-4.4799,4.6428-3.3247-1.9954c-1.2037.7308-2.499,1.2948-3.8537,1.677l-.8042,3.8251-6.4445.1106-.9283-3.7836c-1.3656-.3465-2.6879-.8679-3.9185-1.5523l-3.2709,2.1347-4.6471-4.4907,2.024-3.3263c-.7448-1.1992-1.3223-2.4958-1.7163-3.853l-3.7836-.8038-.1133-6.4587,3.7835-.9286c.3239-1.3634.8258-2.6777,1.5005-3.9085l-2.1373-3.2571,4.4906-4.643,3.3248,2.0235h.0432ZM519.2389,575.6243c-.9553.9848-1.5976,2.2306-1.8459,3.5798-.2429,1.3491-.0864,2.741.4588,3.9994.5451,1.2583,1.4519,2.3265,2.6069,3.0694,1.1551.7428,2.499,1.1269,3.87,1.1036,1.3709-.0233,2.7041-.4529,3.8321-1.2345,1.128-.7816,1.997-1.88,2.499-3.1561.5019-1.2762.6153-2.6726.3238-4.0127-.2915-1.34-.9769-2.5633-1.9647-3.5151-1.3169-1.2731-3.0927-1.9705-4.9224-1.9393-1.8351.0312-3.5839.7884-4.8577,2.1056Z"/>
      <path class="i" d="M473.1668,546.006H197.0091v206.4273h276.1577v-206.4273Z"/>
      <path class="f" d="M473.1668,546.006H197.0091v25.5158h276.1577v-25.5158Z"/>
      <path class="i" d="M212.1326,562.4298c2.0294,0,3.6703-1.6444,3.6703-3.6729s-1.6408-3.6728-3.6703-3.6728-3.6756,1.6444-3.6756,3.6728,1.6462,3.6729,3.6756,3.6729Z"/>
      <path class="i" d="M224.5358,562.4298c2.0294,0,3.6703-1.6444,3.6703-3.6729s-1.6408-3.6728-3.6703-3.6728-3.6702,1.6444-3.6702,3.6728,1.6408,3.6729,3.6702,3.6729Z"/>
      <path class="i" d="M236.9283,562.4298c2.0294,0,3.6702-1.6444,3.6702-3.6729s-1.6408-3.6728-3.6702-3.6728-3.6757,1.6444-3.6757,3.6728,1.6462,3.6729,3.6757,3.6729Z"/>
      <path class="l" d="M473.1668,752.4333v-14.7333c0-9.6047,0-23.7-.0702-41.704,0-35.9661-.0971-87.5382-.1511-149.99l.2915.291-276.1307.0693.3616-.3603v206.4274l-.3346-.333,199.3474.1662,56.6025.0831h18.8909-18.7776l-56.5377.0971-199.5795.1527h-.3184v-207.1064h276.8054v.3049c0,62.5216-.1079,114.1628-.1511,150.1704,0,18.0176,0,32.0438-.0702,41.5794v10.9076c0,2.4671-.1781,3.9779-.1781,3.9779Z"/>
      <path class="i" d="M121.9184,539.0068H-239.0032v260.4664H121.9184v-260.4664Z"/>
      <path class="f" d="M121.9184,539.0068H-239.0032v34.788H121.9184v-34.788Z"/>
      <path class="l" d="M121.9875,799.4732c0-2.4256-.1247-102.4792-.2909-260.4664l.2909.2911H-238.9066l.3605-.3604v260.466l-.319-.3325,360.9222.3325-360.9222.319h-.3325v-261.1454H122.3755v.2911c-.3881,158.1257-.3881,258.1794-.3881,260.605Z"/>
    </g>
  </g>
</svg>
