<?xml version="1.0" encoding="UTF-8"?><svg id="a" xmlns="http://www.w3.org/2000/svg" viewBox="0 0 566.93 566.93"><defs><style>.b{opacity:.7;}.c{fill:#ed1c24;}.c,.d,.e,.f,.g,.h,.i,.j,.k,.l,.m,.n,.o,.p,.q,.r{stroke-width:0px;}.d{fill:#414c51;}.e{fill:#e6e7e8;}.f{fill:#e30613;}.h{fill:#f5f5f5;}.i{fill:#fff;}.j{fill:#09f;}.k{fill:#fafafa;}.l{fill:#263238;}.m{fill:#d1734a;}.n{fill:#ebebeb;}.o{fill:#ffbe9d;}.p{fill:#eb996e;}.q{fill:#455a64;}.s{opacity:.78;}.r{fill:#ffdc84;}</style></defs><g class="b"><path class="e" d="M327.32,58.83c105.14-2.17,142.78,68.25,142.78,129.31,0,23.35-10.78,114.04-129.31,114.94-118.53.9-135.59-96.98-135.59-141.88s35.02-100.57,122.12-102.37Z"/><path class="d" d="M326.36,58.38c1.2-.04.77-.11.95-.13-2.01.1-.9.15-.95.13Z"/><polygon class="d" points="306.59 60.11 306.94 60.03 304.05 60.48 306.59 60.11"/><path class="d" d="M288.37,63.56c.43-.08,1.06-.22,1.8-.41.75-.16,1.61-.35,2.53-.55,1.83-.39,3.84-.93,5.48-1.15l.54-.06,1.45-.36c-.99.17-2.05.36-3.14.55-1.07.24-2.16.48-3.22.72-2.11.47-4.08.89-5.44,1.26Z"/><path class="d" d="M278.77,66.02c.6-.13-2.03.69,2.21-.68-.21.06-.28.08-.4.11-.38.12-.91.29-1.81.57Z"/><path class="d" d="M280.58,65.45c1.87-.59-1.24.34,0,0h0Z"/><path class="d" d="M272.04,68.46l2.4-.94c-.52.16-2.68.95-1.88.63-.62.24-1.05.41-1.33.51-.27.12-.39.18-.39.19s.12-.03.33-.11c.21-.07.51-.17.87-.29Z"/><path class="d" d="M269.82,69.48l1.22-.54c-.22.08-.55.21-1.22.54Z"/><path class="d" d="M273.68,67.9c-.88.35-1.77.67-2.64,1.04.35-.13.41-.09,1.21-.48-.2.12.31-.11,1.43-.56Z"/><path class="d" d="M275.19,67.36c1.37-.47,3.13-1.1.72-.16,1.15-.45,1.98-.73,2.5-.89.52-.18.72-.25.63-.24-.18.04-1.55.39-3.85,1.29Z"/><path class="d" d="M287.49,63.94l1.88-.45c.53-.16,1.07-.31,1.61-.44-.82.16-3.61.89-3.49.89Z"/><path class="d" d="M257.46,75.21c-.13.1.8-.35.99-.41l1.65-.95c-.87.45-2.5,1.33-2.64,1.36Z"/><path class="d" d="M258.44,74.8l-2.47,1.42c2.23-1.22,2.63-1.47,2.47-1.42Z"/><path class="d" d="M269.46,69.8c.71-.32,1.42-.66,2.14-.96l2.17-.86c-.86.34-1.74.67-2.59,1.03l-2.54,1.15.83-.35Z"/><polygon class="d" points="248.17 80.93 249.47 79.95 247.16 81.68 248.17 80.93"/><path class="d" d="M242.35,85.23c.91-.78-1.36.93-.38.12-.79.59-1.47,1.2-2.1,1.78-.63.57-1.22,1.11-1.78,1.62.61-.53,1.23-1.07,1.92-1.67.35-.29.71-.59,1.09-.91.4-.3.82-.61,1.26-.94Z"/><path class="d" d="M236.24,90.49c.56-.58,1.17-1.14,1.84-1.74-.64.56-1.27,1.12-1.84,1.74Z"/><path class="d" d="M251.81,78.73c-.19.11-.59.27-1.95,1.12.32-.2.66-.35.99-.53.29-.18.62-.38.96-.59Z"/><path class="d" d="M250.89,79.3l-.03.02c-1.05.62-1.71,1.15-2.02,1.34.27-.16.84-.64,2.05-1.36Z"/><path class="d" d="M252.05,78.58c-.09.05-.15.09-.24.15.1-.05.15-.08.24-.15Z"/><path class="d" d="M262.63,72.81c-.74.39-1.89.97-2.47,1.29-.56.36-.59.34.94-.36,1.05-.58-.7.23,1.53-.94Z"/><path class="d" d="M253.29,77.93c.87-.52,1.71-1.08,2.61-1.54-.06,0-.56.24.16-.18-.95.52-1.85,1.13-2.76,1.71Z"/><polygon class="d" points="252.04 78.74 253.29 77.93 252.33 78.52 252.04 78.74"/><path class="d" d="M240.2,87.12c-.99.87-2.06,1.82-3.27,2.89,1.32-1.13,2.68-2.29,3.97-3.4.16-.18.7-.7-.71.51Z"/><path class="d" d="M245.27,83.15c-.07.06-.16.13-.23.18.15-.1.26-.19.23-.18Z"/><path class="d" d="M226.05,101.61c.06-.07.11-.13.17-.19,0-.02.02-.04.02-.06l-.19.25Z"/><path class="d" d="M241.13,86.44c1.03-.79,1.64-1.28,2.21-1.76-.76.61-1.59,1.22-2.44,1.93-.07.08-.08.1.23-.18Z"/><path class="d" d="M233.06,93.6c.5-.46,1.07-.98,1.66-1.53-.5.44-1.52,1.34-1.66,1.53Z"/><path class="d" d="M244.68,83.58c.05-.04.1-.08.15-.12-.35.25-.3.22-.15.12Z"/><path class="d" d="M244.68,83.58c-.51.42-.92.76-1.33,1.1.62-.49,1.2-.95,1.7-1.35-.13.09-.26.18-.36.25Z"/><path class="d" d="M223.57,105.77c.02-.13.55-.87,1.29-1.87.76-.99,1.68-2.29,2.7-3.36,1.84-2.24.4-.98-1.34.88-.03.09,0,.11-1.79,2.52.33-.41,1.37-1.7,2.13-2.65.81-.9,1.33-1.47.54-.48-2.44,3.11-2.01,2.54-3.23,4.03.55-.61-.23.38-.94,1.53-.73,1.14-1.52,2.36-1.21,2.04l1.92-2.88c.06-.04-.63,1.01-.07.23Z"/><path class="d" d="M229.92,97.08l.84-.9c-.99,1-1.66,1.75-2.9,3.12-1.3,1.59-1.56,1.93-1.62,2.06,1.31-1.54,2.6-3.1,3.96-4.59l-.28.31Z"/><path class="d" d="M234.63,92.23c-.35.37-1,1.07-1.43,1.53-.41.48-.59.71.07.09,2.59-2.51,1.77-1.8,3.31-3.32-4.2,4.04,1.18-1.19-1.9,1.68.83-.8,1.56-1.52,2.26-2.19-.77.72-1.51,1.41-2.21,2.06.04-.04.07-.06.1-.09l.02-.02h0c.19-.16.25-.21.04-.02-.01.01-.06.06-.09.09-.02.04-.09.12-.17.21-1.23,1.15-.21.17.17-.21.01-.02.04-.05.04-.06h-.02c-1.43,1.34-2.73,2.79-4.06,4.22.43-.45.91-.95,1.52-1.59.3-.32.64-.68,1.02-1.08.4-.38.84-.81,1.33-1.28Z"/><path class="d" d="M258.44,75.37c-.16.08-.16.07-.17.07-.32.19-.45.27.17-.07Z"/><path class="d" d="M256.32,76.48c.37-.22.66-.42,1.87-1.07,1.06-.55.01.04.08.03.71-.42,2.51-1.46.21-.24l-.36.21c-1.03.54-2.22,1.16-3.11,1.63-.86.5-1.43.82-1.26.7.63-.28,1.15-.6,2.56-1.27Z"/><path class="d" d="M244.86,83.78c-1.27,1.01-2.56,1.99-3.8,3.02.64-.52,1.33-.98,1.99-1.47l-.13.04c2.19-1.68,1.69-1.35,1.94-1.59Z"/><polygon class="d" points="225.67 102.03 226 101.46 224.39 103.77 225.67 102.03"/><polygon class="d" points="221.93 107.13 222 106.89 221.09 108.29 221.93 107.13"/><path class="d" d="M413.29,286.22l1.23-.7c-.58.33-.96.55-1.23.7Z"/><path class="d" d="M404.08,290.74c-.07.05-.14.1-.21.14.43-.21.59-.32.21-.14Z"/><path class="d" d="M230.94,253.74c.28.44.56.9.83,1.33.28.42.56.81.8,1.14.47.66.78,1.08.74.95l-.32-.56c-.45-.58-.85-1.08-1.18-1.55-.32-.48-.6-.91-.86-1.31Z"/><path class="d" d="M321.36,302.23c-.2-.02-.4-.05-.6-.07-.5-.01-.98,0-1.4-.04.6.07,1.29.07,2.01.11Z"/><path class="d" d="M322.85,301.98l2.72.26c-.62-.06-1.49-.14-2.72-.26Z"/><path class="d" d="M453.11,247.85l.74-1.48c-1.28,2.24-.68,1.28-.74,1.48Z"/><path class="d" d="M204.88,168.39c.02,1.8.1,3.22.18,4.47-.1-2.16-.09-3.91-.18-4.47Z"/><path class="d" d="M410.13,288.92c.78-.39,1.12-.56,1.08-.57-.81.4-1.26.63-1.08.57Z"/><path class="d" d="M205.44,178.03c-.02-.32-.04-.63-.06-.95-.14-1.3-.25-2.62-.33-4.22.04,1.6.17,3.42.39,5.17Z"/><path class="d" d="M401.84,73.54c-.13-.07-.29-.15-.41-.21-.04,0,.14.08.41.21Z"/><path class="d" d="M344.63,58.8c.59.03,1.54.04,2.44.14-.44-.06-1.17-.1-2.44-.14Z"/><path class="d" d="M210.26,129.69c.47-1.26.07-.2,0,0h0Z"/><path class="d" d="M213,123.76c-.1.27-.18.47-.17.51.02-.11.09-.29.17-.51Z"/><path class="d" d="M207.59,191.19s.01.07.02.11c-.05-.39-.04-.33-.02-.11Z"/><path class="d" d="M211.01,127.81c-.18.47-.4,1.01-.63,1.6.1-.26.29-.75.63-1.6Z"/><path class="d" d="M210.87,128.05c.17-.43.3-.77.42-1.1.05-.16-.02-.03-.42,1.1Z"/><path class="d" d="M209.65,131.45c.22-.74.49-1.4.73-2.05-.1.25-.14.35-.12.28-.13.37-.35.88-.61,1.77Z"/><path class="d" d="M466.38,156.58c-.02-.09-.04-.19-.05-.28-.33-1.3-.19-.73.05.28Z"/><path class="d" d="M255.54,278.11s-.08-.06-.12-.09c.05.04.11.09.15.12l-.03-.03Z"/><path class="d" d="M259.46,280.83c-.87-.52-1.55-.95-2.16-1.36-.61-.41-1.12-.86-1.73-1.34l1.1,1.17c.91.54,1.86,1.01,2.79,1.52Z"/><path class="d" d="M433.37,272.17l-2.61,2.1c3.06-2.64,5.1-4.74,2.78-2.62-.06.29-2.57,2.36-5.04,4.47-2.6,1.95-5.23,3.87-5.33,4.12-.62.4-1.26.77-1.89,1.15.53-.34.62-.4,1.14-.74-1.85,1.1-2.49,1.57-3.26,2.14-.78.55-1.63,1.28-4.1,2.56-1.7.91-2.9,1.53-1.76.87-1.25.7-2.47,1.46-3.78,2.05-1.14.53-.88.35.25-.17l-5.94,2.8.04-.03c-.87.38-2.82,1.21-3.76,1.62-1.57.57.77-.33.36-.21l-3.37,1.39c-1.4.47,1.38-.69,3.72-1.6-3.27.96-2.74,1.3-9.78,3.35l3.26-1.08c-1.08.27-2.25.62-3.61,1.04-.68.21-1.41.45-2.21.67-.81.19-1.68.4-2.62.62.44-.11,2.36-.46,3.64-.83,1.29-.35,2-.51.13.13-1.05.36-2.5.64-4.54,1.24-.04-.09-2.05.45-4.57,1.1l.14-.17c-2.74.62-2.52.61-4.13.99-3.08.58-3.74.61-4.48.67-2.47.42-1.62.28-.86.24.37-.04.72-.09.6-.04-.11.05-.68.17-2.16.36-2.07.26-3.83.5-5.7.77-1.86.31-3.83.49-6.32.73-2.92.2.5-.12-.55-.07l-2.58.31c-.63.05-.43,0-.33-.02-2.18.2-.17.19-3.6.41-.46.09-2.23.09-4.41.11-1.09.02-2.29.04-3.47.05-.59.02-1.18.04-1.76.06-.57,0-1.13,0-1.67.01-1.05-.06.51-.07.19-.12-5.82,0-4.98,0-9.8.02l-4.07-.38c2.99.32-.84.15-4.21,0,1.06.12,1.97.23,2.57.3l-2.68-.16c-.89-.05-1.79-.1-2.68-.23-.64-.11-.1-.08.78-.02-.36-.04-.71-.07-.98-.1-1.9-.3-.9-.24.47-.13.64.12,1.29.21,1.91.27,1.33.02,2.57.02,2.3-.07-.35-.02-1.02-.05-1.75-.09.35,0,.57,0,.41-.02-.18-.03-.74-.04-1.62-.07-.4-.07-.8-.19-1.19-.28l-.3.02-6.93-1c-1.25-.1-2.45-.29-3.67-.5-1.22-.2-2.47-.4-3.81-.62-.67-.11-1.36-.23-2.09-.35-.36-.06-.73-.12-1.11-.19-.37-.09-.75-.18-1.15-.27-1.57-.39-3.28-.81-5.21-1.29,1.94.4.46-.06.59-.15,2.07.66,5.96,1.59,10.02,2.3-2.11-.42-1.63-.39-1.09-.31-1.2-.23-2.42-.4-3.61-.67l-3.57-.87c.19-.06-1.49-.47-3.34-.99.34.14.17.13-.31.03-.24-.06-.56-.13-.94-.22-.37-.12-.8-.25-1.25-.4-1.83-.59-4.19-1.35-5.62-1.81-.15-.12.55.04,4.01,1.2-1.89-.7-3.14-1.06-4.39-1.41-1.25-.33-2.44-.83-4.25-1.61.83.34,1.27.53,1.61.63-1.95-.73-6.65-2.7-5.51-2.3l.82.33c-.69-.26-1.45-.62-2.25-1.03-.81-.4-1.67-.82-2.56-1.25-.89-.43-1.8-.88-2.71-1.32-.92-.43-1.76-.99-2.61-1.45-1.69-.95-3.23-1.82-4.41-2.49-1.14-.72-1.92-1.22-2.13-1.3-.04-.05.76.26,1.07.43l-4.54-2.72c-.77-.43-1.48-.96-2.21-1.46l-2.18-1.51c.82.46-1.77-2.01,2.14.94-.55-.44-1.17-.93-1.94-1.54-.39-.3-.81-.63-1.29-1-.48-.36-1.01-.77-1.56-1.26.68.68,1.72,1.68.67.89-2.59-2.51-1.81-1.73-5.03-4.79,1.06.98-.33.12-1.9-1.54.27.23.03-.3.63.28-1.37-1.3-2.76-2.58-4.12-3.9,1,1,.29.07-.48-.94.37.46-3.24-3.67-4.16-4.86.46.66.99,1.26,1.49,1.88-1.06-1.19-1.77-2.16-2.4-2.92-.62-.77-1.13-1.37-1.65-1.97-.5-.61-1.05-1.18-1.62-1.99-.58-.8-1.26-1.77-2.15-3.09.47.61,1.3,1.41-.48-1.27-.49-.56-1.43-1.9-2.66-3.68-.6-.9-1.31-1.88-1.99-2.99-.65-1.11-1.34-2.31-2.02-3.54l-.45-.99c-.72-1.25-1.29-2.58-1.95-3.86.32.6.79,1.46,1.34,2.47.54,1.01,1.26,2.14,1.95,3.32.72,1.17,1.38,2.41,2.13,3.52.73,1.11,1.41,2.15,1.97,3.01-1.19-2.08-.28-.61-2.12-3.68-.59-1.12,1.08,1.63,1.63,2.53-.69-1.21-1.46-2.36-2.08-3.61l-1.94-3.69c-.03.43-2.9-5.68-2.86-5.34l1.99,4.07,2.18,3.97c.03.19-.67-.92-1.72-2.73-.55-.9-1.09-2.02-1.69-3.23-.59-1.22-1.24-2.53-1.84-3.88-.54-1.41.66.94.67.8-.39-.66-2.25-5.14-2.44-5.65l1.03,2.29c-1.26-3.04-2.15-4.93-3.39-8.69-.44-1.29-1.09-3.93-1.24-4.13.53,2.16.22,2.73-.35,1.35-.06-.23-.6-1.95-1.11-3.82-.47-1.87-.96-3.87-1.16-4.65-.49-2.2,1.19,3.18.77,1.31-.06-.07-.44-1.25-.59-1.75-.34-1.39.24.55-.51-2.47-.25-.47-1.48-6.17-.46-1.41-.77-2.95-.7-3.17-1.44-6.67.07.57-.16-.21-.5-1.5-.29-1.3-.67-3.12-.95-4.62.06.17,0-.51-.04-.84-.43-3.1-.8-5.48-1.02-7.82-.12-1.17-.24-2.33-.37-3.55-.1-1.23-.21-2.53-.34-3.98-.04-.54-.14-3.35-.02-2.16-.08-.84-.17-1.6-.28-3.4,0-1.74.02-.74.09.36.08,1.1.16,2.31.15.98-.11-.22-.34-4.64-.43-7.2-.13.79.13,5.93.37,8.48-.08.01-.25-1.1-.42-2.97-.14-1.88-.33-4.52-.37-7.58,0-4.86.14-2.11.12-2.95.03-2.28.16-3.91.23-5.18.05-1.28.12-2.2.21-3.07.07-.87.15-1.7.26-2.78.16-1.07.39-2.39.74-4.26.73-2.92.23-.09.45-.73-.35,1.95-.62,3.44-.86,4.78-.2,1.34-.36,2.53-.52,3.86l.45-3.27c-.09,1.26-.46,3.87-.54,5.31.03-.32.07-.79.13-1.39.08-.6.17-1.33.28-2.16.17-1.66.52-3.7.9-5.87.84-4.33,2.08-9.16,3.28-12.46.31-1.21,1.07-3.23.67-2.29-.27.69-.5,1.4-.71,2.11-.35.96-.06-.05.21-.96.29-.91.59-1.71.07-.4.5-1.41,1-2.92,1.62-4.54.34-.8.69-1.64,1.06-2.52.37-.88.77-1.8,1.26-2.73l.46-.66c-.08.06-1.29,2.43-1.68,3.55.16-.41.41-.98.7-1.63.33-.64.7-1.36,1.07-2.09.37-.73.73-1.47,1.06-2.13.35-.65.65-1.23.85-1.67-.5.85-1.01,1.69-1.45,2.57.6-1.38,1.44-2.84,2.25-4.42.82-1.57,1.84-3.14,2.82-4.73-1,1.38-.44.74-1.96,2.93.68-.93-.61,1.08-1.64,3.05-1.1,1.93-1.98,3.77-1.08,2.15-1.34,2.38-2.18,4.19-3.68,7.43.09-.08.54-1.14-.66,1.76-.04.14-.14.46-.21.66-.04.09-.05.12-.08.2.02-.06.04-.1.06-.16-.04.13-.04.14.02-.06.28-.69.5-1.26.63-1.47-.25.74-.79,2.29-1.36,3.84-.57,1.55-1.01,3.16-1.26,3.97-.59,1.77.19-.75-.16.2-.25.8-.44,1.62-.63,2.44-.15.21-1.43,4.74-.34.49-.34,1.27-.71,2.54-.96,3.83-.26,1.13-.62,2.47-.84,3.79-.23,1.32-.44,2.6-.59,3.57-.24,1.85-.47,4.69-.34,3.07-.13,1.03-.2,2.06-.26,3.09-.05,1.03-.16,2.06-.17,3.1l-.02.06c-.22,6.12.19,12.56.59,19.53.1,1.02.2,2.06.32,3.27.14,1.21.29,2.59.48,4.3v.68c.18,1.31.45,3.27.69,5.04.25,1.78.55,3.35.68,3.91.08.71.22,1.86.49,3.24.28,1.38.61,3,.95,4.68.79,3.34,1.67,6.88,2.32,9.11l.15.14c.43,1.54.83,3.05,1.38,4.62.53,1.57,1.03,3.26,1.73,5.11v-.26c.64,1.59,1.33,3.67,2.21,5.95.46,1.13.94,2.32,1.43,3.55.25.61.5,1.23.76,1.85.28.61.57,1.22.86,1.83-.18-.32-.79-1.55-1.13-2.46,2.43,6,6.08,12.2,9.08,17.23.77,1.24,1.41,2.09,1.95,2.96-.08-.11-.15-.21-.21-.3.08.12.21.31.33.5.35.54.71,1.1,1.1,1.71-.33-.52-.65-1.01-.92-1.44.32.46.72,1.05,1.16,1.69.43.65.92,1.34,1.45,1.99l.36.62c.08.11.15.19.24.31.97,1.33.84,1.02.36.28.53.65,1.01,1.25,1.39,1.72.64,1.2,2.82,3.36,3.89,4.85.69.9,5.83,6.08,6.56,6.59.02.06.36.42-.27-.23,1.32,1.32,2.74,2.53,4,3.62l.51.62c1.03.89,2.14,1.67,3.25,2.46,1.9,1.58,2.69,2.25.69.81,1.19.89,2.03,1.51,2.67,1.99.65.49,1.15.77,1.6,1.08.91.6,1.74,1.14,3.86,2.49l-.25-.07c.38.25.81.53,1.26.83.47.26.96.54,1.44.8.95.53,1.81,1.01,2.26,1.31.44.27,1.02.62,1.74,1.06.36.21.76.45,1.18.7.44.22.91.46,1.41.71,1,.49,2.1,1.04,3.27,1.62,1.18.57,2.41,1.24,3.77,1.75,5.31,2.29,11.52,4.47,16.5,5.88-1.88-.73,4.63,1.31,5.07,1.24.57.21,1.96.6.33.22,1.27.35,2.42.51,3.45.73,1.03.21,1.95.39,2.83.56.87.17,1.7.33,2.53.49.83.16,1.67.3,2.58.36.59.13-1.13-.07-.61.03.42.04,1.67.17,2.21.28.53.1-.77-.06-1.61-.14,5.36.7,5.92.6,6.33.49,2.7.48,4.07.47,6.04.54.94.12,2.52.29-.82.07.94.07,3.81.29,6.47.5,2.66.14,5.12.11,5.22.07.59.04,2.63.06,3.13.05,4.23.12,4.6.02,8.75-.1l-1.15.02c1.63-.21,3.45-.13,6.79-.28l-.09.02c7.65-.54,3.3-.28,10.85-.86l-.42-.04c.34-.15,2-.35,4.13-.59,1.06-.12,2.24-.26,3.42-.4.59-.08,1.19-.14,1.77-.23.57-.12,1.14-.23,1.68-.34l-1.57.25c2.34-.53,6.64-.99,9.02-1.45.52-.09-.8.21-1.53.35,1.56-.25,2.37-.49,2.81-.6.43-.12.48-.15.47-.17,0-.05-.22-.07,2.06-.66.86-.15-1.04.44,2.03-.33.39-.08,1.13-.28,2.1-.55.97-.28,2.13-.71,3.38-1.13,2.5-.85,5.35-1.76,7.36-2.56-.91.3-1.81.6.22-.24.78-.3,1.7-.65,2.69-1.03.98-.38,2.05-.73,3.06-1.22,2.03-.92,4.02-1.83,5.35-2.55.39-.17.55-.22.57-.22,2.22-1.28,7.3-4.03,8.48-5.05.54-.25,1.65-.92,3-1.78.69-.41,1.39-.95,2.12-1.49.73-.55,1.48-1.11,2.21-1.67.73-.56,1.46-1.08,2.11-1.61.64-.54,1.22-1.04,1.71-1.46,1-.84,1.65-1.35,1.69-1.29l1.51-1.27,1.42-1.37,2.84-2.73-.13.16c1.78-1.79,2.88-3.1,3.76-4.05.88-.96,1.4-1.68,1.93-2.39.75-.89.24-.21.19-.13,1.17-1.42,2.1-2.51,2.84-3.46.7-.97,1.27-1.76,1.82-2.53.54-.77,1.08-1.49,1.64-2.38.55-.9,1.17-1.93,1.98-3.24l.43-.49c.11-.18.28-.45.51-.81.21-.36.47-.81.76-1.33.59-1.03,1.37-2.32,2.19-3.78.77-1.49,1.63-3.13,2.46-4.82.76-1.72,1.56-3.46,2.24-5.14-.02.07-.04.22-.26.75,1.49-3.78,3.28-8.31,4.49-12.36,1.27-4.03,2.08-7.52,2.23-9.01.39-1.74.68-3.51.98-5.27-1.32,6.8.04-1.04-.55,1.75.53-2.67,1.27-6.92.79-3.61l-.1.51c0,.62.35-1.5.71-3.76.31-2.26.59-4.66.62-4.56.36-3.39.56-6.78.6-10.15-.02-3.37-.07-6.71-.29-10.01-.41-6.61-1.24-13.1-2.47-19.37l.12,1.48c-.23-1.47-.58-2.91-.9-4.36-.22-1.15-.23-1.56.46,1.55-.29-1.65-1.21-5.2-1.31-5.26-1.56-6.03.8,2.31.3.46l-.68-2.5.14.57c-.31-1-.48-1.56-.71-2.31-.11-.38-.24-.81-.4-1.37-.18-.56-.4-1.25-.69-2.16-.7-2.32-.29-1.21-.57-2.12,0,0-.08-.31-.44-1.39l-1.92-5.28.67,2.15c-.87-2.33-1.93-4.91-1.04-2.48-.32-.89-.99-2.55-1.81-4.57-.83-2.02-2-4.31-3.08-6.6-1.22-2.21-2.34-4.43-3.38-6.14-1.03-1.71-1.81-3-2.11-3.51-.92-1.48-1.99-2.85-3-4.37-1-1.53-2.2-3.04-3.49-4.74.62.86.9,1.44-1.31-1.49.25.23.14,0-.23-.5-.38-.48-1-1.23-1.72-2.09-.72-.85-1.52-1.8-2.26-2.69-.79-.85-1.5-1.63-1.98-2.2.86,1.01-.92-.9-2.65-2.61-1.78-1.65-3.43-3.16-1.97-1.67-2.23-2.11-.07-.2-1.73-1.84-5.51-4.79-12.5-10.21-20.41-14.6-.14-.04,1.15.76-.56-.16-.68-.41-1.34-.85-2.03-1.25l-2.09-1.14c-1.61-.77-1.55-.57-4.44-2.09.41.21,1.02.53-.08.06-7.99-3.8-16.64-6.6-25.45-8.69-1.1-.26-2.2-.55-3.31-.79l-3.34-.64c-2.23-.41-4.44-.91-6.69-1.19-2.24-.32-4.48-.65-6.71-.97-2.24-.24-4.48-.47-6.72-.71,2.42.29.8.15-1.05-.02,1.2.13-.03.08.2.15-2.49-.25-5-.34-7.49-.52-1.37-.02-8.05-.12-8.84,0l2.38-.02c-3.16.15,4.42.32,3.95.54,3.54,0,9.3.57,15.08.97,1.27.16-1.09-.04-.42.07,1.47.05,3.24.16,6.49.69l-.37-.03c2.28.33,4.25.57,6.05.88,1.8.35,3.45.68,5.14,1.01.84.17,1.69.34,2.58.52.87.22,1.78.45,2.73.69.96.24,1.96.5,3.05.77.54.14,1.1.28,1.68.43.58.16,1.17.36,1.79.54l-.71-.31c2.13.66,2.57.82,3.56,1.15,2.49.6-5.98-1.82-3.71-1.3.69.26,1.98.68,3.55,1.16,1.57.48,3.43,1.03,5.2,1.72,1.78.66,3.54,1.31,4.97,1.84,1.39.61,2.46,1.1,2.89,1.35,3.15,1.35-.88-.5,2.27.85l.81.41c.27.1.56.17.82.28,2.01,1.01,2.99,1.58,3.04,1.67-.49-.24-1.39-.68-1.92-.93,1.29.68,3.12,1.59,4.75,2.38,1.59.87,2.95,1.65,3.39,1.9l-2.84-1.66c2.02,1.17,4.2,2.33,6.34,3.66,1.06.69,2.13,1.38,3.2,2.08l1.62,1.05c.53.36,1.04.76,1.56,1.14,2.07,1.53,4.16,3.01,6.04,4.64.96.79,1.9,1.56,2.83,2.32.88.8,1.74,1.59,2.58,2.35l-.47-.5c1.27,1.17,2.17,1.97,2.86,2.64.66.7,1.15,1.22,1.65,1.75.98,1.09,2.12,2.14,4.56,5.05l-.19-.2c1.01,1.13,2.38,2.62,3.6,4.3-1.2-1.49,2.1,2.92.53.96,2.33,2.92,2.78,3.74,3.17,4.21.36.49.56.7,2.02,2.7.2.32.38.66.55,1,.93,1.41,1.04,1.5,3.01,4.74-1.64-2.64,1.13,2.13-.71-.81.99,1.72,1.74,3.28,2.49,4.61.76,1.33,1.34,2.54,1.87,3.62.53,1.08,1,2.05,1.43,2.94.42.9.73,1.78,1.03,2.64.8,1.64.16.05-.57-1.73-.77-1.76-1.73-3.65-1.26-2.74-.68-1.57,1.48,2.63,2.36,4.97.99,2.34,1.45,4.07,3.5,10.11-.2-.6-.21-.64-.41-1.24.33,1.15.7,2.25,1.09,3.43.19.59.39,1.19.59,1.82.17.64.34,1.31.51,2.02.54,1.55,1,3.67,1.24,4.09-.49-1.89-1.03-3.77-1.54-5.65.47,1.59.92,3.14,1.45,4.94.47,1.82.97,3.91,1.49,6.59-.08-.42-.51-1.99-.77-3.08.31,1.57.71,3,.93,4.64-.13-.22-.41-1.97-.92-4.08-.24-1.05-.5-2.2-.75-3.3-.27-1.1-.59-2.13-.84-2.98.44,1.65,1.69,6.5,1.13,4.8.37,1.23.76,2.75,1.06,4.52.29,1.77.68,3.74,1.06,5.86l-.13-.27c.11.67.35,2.07.52,3.32l-.43-2.24c.27,1.72.54,3.39.66,5.05.13,1.66.27,3.3.44,4.97-.67-6.98-.03-1.58-.25-4.54.24,2.15.39,3.54.45,4.56.04,1.02.05,1.68.05,2.37,0,1.38.06,2.88.14,7.72-.04-1.31-.04-4.92.05-2.87,0,1.84.05,4.28-.05,5.41-.2,6.4.15-.98.11,1.75-.2,2.18-.1,3.15-.3,5.96h-.1c-.37,3.65-.45,4.13-.43,4.53-.02.39.05.71-.51,3.96.09-.93.21-1.85.29-2.77-.14,1.14-.33,2.27-.49,3.4v-.72c-.23,1.85-.48,3.05-.69,4.25-.21,1.2-.49,2.37-.91,4.15.13-.41.14-.28.04.34-.09.63-.32,1.75-.75,3.31-.63,2.12.25-1.21-.95,3.22.26-1.01.43-2.13,1.04-4.04.02-.21.2-1,.22-1.22-.33,1.14-.71,2.59-1.06,3.95-.36,1.36-.76,2.61-.99,3.41.19-.61.42-1.33.54-1.71l-.9,3.2c-.32,1.06-.68,2.11-1.01,3.17-.38.98-.13.18.11-.6-.44,1.27-.66,2.19-1.4,4.03.06-.25.06-.36.16-.73.13-.39.33-1.02.76-2.34l-.5,1.5-.56,1.48-1.12,2.96c-.17.39-1.4,2.93-1.09,2.18-.36.8-.75,1.69-1.18,2.65-.43.95-.94,1.94-1.43,2.98-.96,2.09-2.18,4.21-3.35,6.21-.12.21-.31.66-.85,1.49-2.36,3.69-4.57,6.87-7.77,10.95l-1.97,2.19c-2.65,3.07,2.79-2.85-1.68,2.22-3.22,3.55-1.3,1.23-2.47,2.44-.79.89-1.96,2.02-3.29,3.36-1.3,1.37-2.96,2.72-4.68,4.09,1.11-.95,1.98-1.68,3.02-2.56ZM389.7,295.94c.92-.32,2.75-.97,3.44-1.13-1.02.44-1.85.66-3.44,1.13ZM314.03,301.17c.72.06,1.83.22,3.08.43-.91-.11-1.94-.25-3.08-.43ZM206.42,143.88s0,.07-.01.1c-.4,2.15-.26,1.39.01-.1ZM207.43,139.45c.1-.44.08-.42.02-.23-.07.33-.28,1.31-.53,2.44.09-.31.23-.88.51-2.21ZM463.23,142.66l.24.85c-.63-1.89-.44-1.37-.24-.85Z"/><path class="d" d="M322.65,302c.27.04.35.06.41.08.38.01.39,0-.41-.08Z"/><path class="d" d="M452.97,248.12l.08-.13c.04-.08.05-.12.06-.14l-.14.27Z"/><path class="d" d="M211.65,208.71c.24.9.36,1.4.43,1.74.04.04-.06-.37-.43-1.74Z"/><path class="d" d="M215.84,116.96c-.48.84-.86,1.74-1.29,2.61.62-1.26.83-1.72,1.2-2.33-.05.05-.35.52.09-.28Z"/><path class="d" d="M230.83,96.79c.29-.31.61-.66.89-.96l-.11.05c-1.24,1.31-2.07,2.25-.78.91Z"/><path class="d" d="M217.42,114.76c.09-.08.35-.52.71-1.17.38-.63.88-1.45,1.41-2.32-.06.1-.12.2-.19.31.11-.28-.11.04-.5.67-.39.62-.95,1.55-1.43,2.52Z"/><path class="d" d="M219.78,110.87c.33-.53.65-1.08.99-1.59.09-.23-.42.63-.99,1.59Z"/><path class="d" d="M208.93,133.89c.31-.91.09-.61.28-1.12.12-.53-.35,1.02-.64,2.06-.15.52-.22.93-.2.88.02-.08.17-.56.55-1.82Z"/><path class="d" d="M218.45,113.46c-.16.19-.3.38-.45.58l-.48,1.04c.31-.54.6-1.09.93-1.61Z"/><path class="d" d="M211.45,127.84c.37-1.02.8-2.01,1.24-2.99-.03.04.12-.34.31-.81-.4.92-.81,1.88-1.12,2.6-.28.74-.46,1.23-.43,1.2Z"/><path class="d" d="M213.01,124.04c.42-.95.78-1.87,1.04-2.39-.27.5-.71,1.62-1.04,2.39Z"/><path class="d" d="M216.33,117.35c-.16.28-.33.55-.47.84l-1.01,2.05c.5-.96.94-1.95,1.48-2.89Z"/><path class="d" d="M205.11,161.91l.07,3.54c.04.36.05-.6.02-1.92-.03-.85-.06-2.16-.09-1.62Z"/><path class="d" d="M205.96,151.26c-.13.95-.17,1.01-.26,1.54l.12.12c.03-.55.1-1.1.14-1.66Z"/><path class="d" d="M205.41,161.52c.04.35.16,5.12.1.65-.07-.36-.01-3.89-.1-.65Z"/><polygon class="d" points="212.79 214.06 212.55 213.2 212.39 213.38 212.79 214.06"/><path class="d" d="M233.65,255.74c-1.26-1.66-1.37-1.89-1.52-2.02-.14-.15-.24-.25-1.27-1.83-.59-.78,1.69,2.58,1.09,1.77.71,1.04,1.33,1.78,1.64,2.17.32.39.36.41.07-.09Z"/><path class="d" d="M231.95,253.66c-.23-.33-.48-.68-.75-1.05.42.59.62.87.75,1.05Z"/><polygon class="d" points="334.75 58.35 332.05 58.3 333.79 58.37 334.75 58.35"/><path class="d" d="M329.57,58.5l-.64-.13-1.62.12c.61,0,1.79-.02,2.26.01Z"/><path class="d" d="M382.43,297.59l-.19.08c.41-.07,1.02-.22,2.24-.53l-2.05.45Z"/><polygon class="d" points="416.19 284.48 415.64 284.78 416.72 284.32 416.19 284.48"/><path class="d" d="M439.8,265.43c-.86.9-1.78,2.04-2.71,2.87,1-.92,1.69-1.73,2.19-2.22.48-.5.69-.72.52-.65Z"/></g><g class="b"><path class="f" d="M208.3,84.26c54.91,66.46-10.96,99.07-21.52,161.98-12.34,73.47,2.97,82.92,22.76,111.49,19.79,28.57,18.41,56.77-6.72,81.89s-84.82,12.6-121.67-34.09c-36.85-46.68-66.54-130.28-28.19-217.48,26.15-59.47,114.01-153.8,155.33-103.79Z"/><path class="d" d="M207.92,83.09c.95,1.09.67.65.83.8-1.61-1.81-.8-.74-.83-.8Z"/><path class="d" d="M187.94,70.82l.42.05c-1.16-.2-2.3-.47-3.46-.57,1.03.1,2.03.32,3.04.51Z"/><path class="d" d="M165.95,71.72c1.03-.21,2.98-.7,5.18-1.09,2.2-.43,4.67-.67,6.65-.72.22,0,.44,0,.65,0l1.79-.1c-2.41-.09-5.18.17-7.74.53-1.28.21-2.51.41-3.61.68-1.11.22-2.11.48-2.92.69Z"/><path class="d" d="M154.71,75.42c.7-.23-2.34,1.04,2.55-1.07-.25.09-.32.12-.47.17-.45.17-1.05.44-2.08.89Z"/><path class="d" d="M156.79,74.53c2.17-.88-1.44.53,0,0h0Z"/><path class="d" d="M147.07,79.25c.88-.52,1.8-.99,2.7-1.49-.59.27-3.02,1.54-2.13,1.04-2.75,1.57-2.16,1.28-.57.45Z"/><path class="d" d="M144.58,80.77l1.38-.8c-.25.13-.62.32-1.38.8Z"/><path class="d" d="M148.91,78.31c-1,.52-1.98,1.09-2.95,1.66.4-.2.46-.18,1.35-.77-.22.17.34-.2,1.6-.88Z"/><path class="d" d="M150.62,77.45c1.57-.72,3.58-1.68.83-.29,2.63-1.31,3.8-1.79,3.58-1.74-.21.06-1.77.71-4.41,2.03Z"/><path class="d" d="M164.89,72.15l2.24-.55c.64-.19,1.29-.32,1.93-.48-.98.18-4.32,1.03-4.17,1.03Z"/><path class="d" d="M130.96,89.61c-.14.14.88-.55,1.09-.65.6-.46,1.2-.92,1.82-1.36-.97.65-2.75,1.96-2.91,2.01Z"/><path class="d" d="M132.05,88.96c-.9.68-1.81,1.36-2.69,2.07,2.42-1.83,2.87-2.15,2.69-2.07Z"/><path class="d" d="M144.19,81.19c1.59-.96,3.18-1.92,4.82-2.8-.98.52-1.94,1.07-2.9,1.64-.96.55-1.91,1.13-2.85,1.72l.92-.55Z"/><path class="d" d="M120.83,97.71c.47-.44.94-.87,1.42-1.3-.86.75-1.69,1.54-2.54,2.31l1.12-1.01Z"/><path class="d" d="M114.41,103.43c1.01-1.01-1.5,1.25-.42.2-1.71,1.6-3.12,3.01-4.37,4.3,1.35-1.35,2.82-2.76,4.79-4.51Z"/><path class="d" d="M107.52,110.1c.66-.68,1.35-1.39,2.1-2.16-.71.72-1.42,1.43-2.1,2.16Z"/><path class="d" d="M124.81,94.59c-.22.15-.63.44-2.11,1.64l1.08-.79c.31-.26.67-.55,1.03-.85Z"/><path class="d" d="M123.81,95.41l-.04.03c-1.11.93-1.89,1.57-2.22,1.84.29-.24.96-.8,2.26-1.87Z"/><path class="d" d="M125.07,94.38c-.1.08-.17.13-.26.21.11-.07.17-.12.26-.21Z"/><path class="d" d="M136.63,85.89c-1.62,1.17-4.98,3.61-1.65,1.35,1.14-.86-.78.41,1.65-1.35Z"/><path class="d" d="M126.43,93.43c.94-.75,1.9-1.48,2.85-2.2-.07.03-.61.39.16-.23-1.01.8-2.03,1.6-3.02,2.43Z"/><polygon class="d" points="125.07 94.55 126.43 93.43 125.38 94.26 125.07 94.55"/><path class="d" d="M112,105.85c-1.11,1.1-2.32,2.29-3.69,3.64,1.48-1.44,3.01-2.91,4.49-4.3.19-.22.8-.86-.8.66Z"/><path class="d" d="M117.65,100.68c-.08.07-.18.17-.26.23.16-.14.29-.25.26-.23Z"/><path class="d" d="M95.34,123.28c.07-.07.14-.14.21-.22.01-.02.02-.04.04-.06l-.25.28Z"/><path class="d" d="M113.06,104.97c1.14-1.05,1.81-1.68,2.44-2.3-.85.79-1.74,1.63-2.71,2.53-.08.1-.1.12.26-.23Z"/><path class="d" d="M103.85,113.9c.57-.57,1.22-1.22,1.9-1.89-.58.54-1.72,1.67-1.9,1.89Z"/><path class="d" d="M116.99,101.24c.06-.05.11-.1.17-.16-.39.32-.34.29-.17.16Z"/><path class="d" d="M116.99,101.24c-.59.54-1.04.97-1.49,1.42.69-.64,1.34-1.23,1.89-1.75-.15.12-.3.24-.41.33Z"/><path class="d" d="M92.01,127.97c.11-.26,2.7-3.41,5.1-5.97,2.28-2.6.55-1.12-1.55,1.06q-.04.11-2.32,2.84c.82-.93,5.29-5.86,3.35-3.57-3.09,3.55-2.56,2.89-4.09,4.59,1.33-1.43-3.75,4.67-2.97,3.99l2.61-3.2c.07-.04-.87,1.13-.11.26Z"/><path class="d" d="M100.1,118.03l.99-1.08c-1.15,1.2-1.98,2.06-3.51,3.66-1.6,1.84-1.9,2.25-2,2.39,1.59-1.8,3.21-3.58,4.85-5.34l-.33.37Z"/><path class="d" d="M105.64,112.2c-.75.87-3.15,3.44-1.59,1.95,2.98-3.09,2.06-2.2,3.83-4.06-4.86,4.95,1.37-1.45-2.19,2.08.95-.98,1.8-1.86,2.63-2.67-.89.88-1.75,1.72-2.56,2.52.05-.04.08-.07.12-.11l.02-.02h0c.22-.2.29-.27.05-.03-.02.02-.07.08-.1.1-.02.04-.11.14-.2.25-1.42,1.42-.24.21.2-.25.01-.02.05-.06.05-.07l-.02.02c-1.61,1.66-3.21,3.34-4.77,5.05,1.02-1.06,2.29-2.39,4.55-4.75Z"/><path class="d" d="M132.08,89.55c-.18.12-.17.11-.19.12-.35.27-.49.38.19-.12Z"/><path class="d" d="M129.76,91.21c.39-.32.7-.61,2.03-1.57,1.16-.82.02.04.1.02.78-.6,2.75-2.1.23-.3l-.39.3c-2.27,1.62-5.16,3.77-4.78,3.46.68-.45,1.29-.84,2.81-1.92Z"/><path class="d" d="M117.2,101.42c-1.43,1.29-2.83,2.62-4.23,3.94.72-.66,1.47-1.3,2.21-1.95l-.14.07c2.43-2.22,1.89-1.76,2.16-2.06Z"/><path class="d" d="M94.87,123.75l.44-.64c-.71.86-1.41,1.73-2.1,2.61l1.66-1.97Z"/><polygon class="d" points="89.99 129.47 90.11 129.21 88.88 130.77 89.99 129.47"/><path class="d" d="M189.36,447.87l1.53-.69c-.72.33-1.19.53-1.53.69Z"/><path class="d" d="M177.64,451.08l-.29.08c.56-.1.78-.14.29-.08Z"/><path class="d" d="M36.5,300.47c.27,2.46.54,5.23.6,4.91-.02-.25-.03-.51-.03-.77-.26-1.71-.43-3.03-.57-4.15Z"/><path class="d" d="M88.29,413.82c-.15-.18-.31-.37-.46-.56-.42-.43-.82-.83-1.17-1.19.49.53,1.05,1.12,1.64,1.75Z"/><path class="d" d="M89.76,414.82l2.22,2.37c-.5-.54-1.22-1.3-2.22-2.37Z"/><path class="d" d="M222.54,394.31l-.24-1.95c.24,3.05.18,1.71.24,1.95Z"/><path class="d" d="M49.67,194.75c-.88,1.95-1.41,3.57-1.95,4.97.93-2.4,1.73-4.32,1.95-4.97Z"/><path class="d" d="M185.11,450.35c1-.3,1.41-.51,1.38-.5-1.01.39-1.6.54-1.38.5Z"/><path class="d" d="M45.62,205.53c.12-.36.24-.71.37-1.07.51-1.48,1.06-2.95,1.72-4.74-.67,1.78-1.53,3.79-2.09,5.81Z"/><path class="d" d="M220.59,168.61c.08-.16.17-.35.24-.49.01-.05-.09.17-.24.49Z"/><path class="d" d="M220.45,100.94c.18.3.43.69.68,1.13.23.45.49.95.73,1.43-.25-.46-.58-1.29-1.41-2.56Z"/><path class="d" d="M71.79,153.63c.89-1.32.13-.21,0,0h0Z"/><path class="d" d="M76.49,147.46c-.19.28-.33.5-.34.54.06-.12.18-.31.34-.54Z"/><path class="d" d="M41.58,220.9s-.02.08-.03.13c.13-.46.1-.38.03-.13Z"/><path class="d" d="M73.17,151.66c-.34.49-.74,1.06-1.17,1.67.19-.27.54-.78,1.17-1.67Z"/><path class="d" d="M72.95,151.91c.32-.45.56-.8.8-1.14.1-.17,0-.03-.8,1.14Z"/><path class="d" d="M70.55,155.48c.5-.77.99-1.46,1.45-2.14-.18.26-.26.36-.21.29-.26.39-.63.94-1.23,1.85Z"/><path class="d" d="M182.11,291.34c0-.11,0-.23,0-.34-.04-.8,0-1.03-.02-.9,0,.13-.02.62.02,1.24Z"/><path class="d" d="M46.83,340.56c-.03-.07-.04-.11-.06-.17.02.07.05.16.07.22v-.05Z"/><path class="d" d="M48.77,345.93c-.92-2.25-1.34-3.57-1.93-5.32l.38,1.87c.52,1.15,1.01,2.31,1.55,3.45Z"/><path class="d" d="M211.17,429.13c-.37.55-.81,1.06-1.23,1.57l-1.28,1.53c.74-.96,1.42-1.84,1.99-2.59.52-.79.94-1.43,1.22-1.85.55-.84.5-.79-.6.72.02.36-2.37,3.41-4.86,6.37-1.32,1.42-2.63,2.84-3.64,3.94-1.02,1.07-1.8,1.75-1.84,1.91-.33.28-.65.58-.99.85l-1.06.77c.59-.46.69-.53,1.26-1-2.04,1.51-2.74,2.14-3.68,2.77-.46.33-.96.69-1.69,1.18-.76.44-1.77,1-3.24,1.73-2.11.89-3.59,1.49-2.17.84-.76.37-1.58.63-2.37.93-.8.28-1.59.61-2.42.82-1.44.38-1.1.24.33-.14-2.49.72-5.03,1.32-7.6,1.69l.06-.02c-.55.09-1.45.24-2.36.4-.92.14-1.85.2-2.47.27-1.98.11.99-.1.48-.1l-2.16.2-2.16.07c-.88-.02-.43-.06.62-.11.52-.03,1.2-.02,1.92-.09.73-.06,1.51-.12,2.25-.18-1.01,0-1.74.03-2.4.08-.66.02-1.25.04-1.99.07-1.48.06-3.55.17-7.89-.26.68.05,1.36.12,2.03.15l2.04.05c-.66-.06-1.35-.11-2.08-.15-.74-.07-1.52-.15-2.37-.23-1.69-.12-3.62-.44-5.89-.79.55.09,2.81.47,4.38.73,1.57.2,2.43.34.09.17-.66-.06-1.42-.2-2.33-.31-.91-.14-1.98-.22-3.22-.45,0-.05-.61-.18-1.6-.37-.49-.1-1.09-.19-1.74-.33-.65-.15-1.37-.32-2.12-.49l.23-.08c-3.27-.7-3.01-.67-4.93-1.12-1.8-.48-2.85-.92-3.57-1.18-.72-.27-1.1-.45-1.5-.62-5.61-2.06,3.81,1.59-2.83-.84-4.63-1.81-7.86-3.16-13.17-5.85-3.07-1.65.58.21-.51-.4-.94-.43-1.85-.91-2.75-1.4-.65-.38-.43-.28-.31-.24-2.26-1.29-.28.06-3.79-2.06-.25-.12-.82-.47-1.59-.97-.38-.25-.82-.54-1.3-.85-.46-.33-.97-.69-1.5-1.07-1.05-.77-2.24-1.55-3.36-2.42-1.13-.85-2.26-1.69-3.3-2.41-.96-.8.52.31.26.03-5.49-4.27-4.68-3.68-9.03-7.38-1.15-1.15-2.32-2.26-3.45-3.43,1.24,1.29,1.03,1.14.13.36-.87-.82-2.4-2.32-3.83-3.74.85.95,1.58,1.75,2.07,2.29l-2.25-2.28-2.16-2.36c-.5-.59-.04-.14.7.61-.3-.32-.58-.62-.8-.85-1.49-1.74-.64-.9.5.27.5.6.99,1.19,1.48,1.77,1.11,1.13,2.23,2.09,2.05,1.82-.3-.29-.87-.85-1.48-1.48.29.29.5.46.37.32-.15-.16-.61-.64-1.33-1.4l-.86-1.18-.28-.22-1.37-1.57-1.31-1.63c-.86-1.09-1.77-2.15-2.6-3.27-.94-1.16-1.85-2.29-2.78-3.44-.92-1.16-1.82-2.37-2.8-3.66-1-1.28-1.97-2.71-3.08-4.27-1.12-1.56-2.26-3.33-3.55-5.33,1.35,1.93.42.34.59.38,1.27,2.26,4.02,6.16,6.88,10.15-1.49-2.09-1.11-1.67-.71-1.15-.89-1.16-1.7-2.38-2.54-3.57-.83-1.2-1.69-2.39-2.48-3.62.19.11-.94-1.61-2.13-3.57.38.79-.53-.57-1.71-2.55-.59-.99-1.27-2.11-1.91-3.18-.62-1.09-1.21-2.12-1.65-2.89-.03-.24.39.51,2.57,4.28-1.18-2.09-1.93-3.45-2.76-4.76-.4-.66-.81-1.31-1.24-2.07-.42-.76-.87-1.63-1.38-2.69.49.94.75,1.46.97,1.81-.6-1.09-1.59-2.98-2.35-4.45-.72-1.48-1.2-2.55-.86-1.91l.46.95c-.76-1.59-1.75-3.59-2.75-5.73-.95-2.16-2.03-4.42-2.92-6.55-.9-2.13-1.72-4.08-2.35-5.57-.6-1.5-1.02-2.51-1.15-2.75,0-.07.52.79.7,1.18-1.7-3.84-3.26-7.75-4.75-11.69.49,1.01-.51-3.15,1.39,2.39-.56-1.59-1.1-3.59-2.22-6.96.32,1.1.65,2.79.17,1.3-.57-2.07-.75-2.8-.96-3.65-.21-.84-.46-1.81-1.11-4.38.45,1.66-.36-.1-.96-2.75.13.4.17-.28.42.68-.59-2.17-1.24-4.34-1.79-6.53.39,1.64.25.25,0-1.24.12.69-1.24-5.71-1.5-7.5l.45,2.83c-.66-3.76-1.05-5.6-1.45-7.44-.34-1.85-.7-3.69-1.19-7.45.06.45.23,1.01.29.97.06-.04.03-.67-.14-2.58-.15-.88-.47-2.83-.9-5.35-.29-2.56-.73-5.73-.89-9.09l.02-1.29c-.07-1.72-.18-3.43-.23-5.15.12,1.62.35,4.66.6,7.91.17,1.63.35,3.3.52,4.88.16,1.58.31,3.05.49,4.26-.24-2.84-.02-.8-.34-5.06-.04-1.51.25,2.32.35,3.57l-.33-4.96-.16-2.48-.08-2.49c-.06.22-.16-1.68-.25-3.59-.13-1.91-.08-3.83-.16-3.64,0,1.8.09,3.6.17,5.4.1,1.8.12,3.6.29,5.4-.06.22-.27-1.33-.41-3.83-.07-1.26-.15-2.74-.24-4.35-.05-1.61-.03-3.36-.03-5.12.06-1.8.24,1.35.28,1.2-.02-.46-.04-2.13-.05-3.77.02-1.64.11-3.25.13-3.57l-.05,2.99c.1-1.96.12-3.56.16-5.27,0-1.7.12-3.5.38-5.85.14-1.62.54-4.83.53-5.12-.44,2.62-.9,3.11-.89,1.33,0-.29.32-2.41.62-4.7.16-1.14.32-2.32.46-3.34.16-1.01.33-1.84.42-2.3.54-2.64-.34,4.02.12,1.78-.02-.1.16-1.57.25-2.19.3-1.69,0,.72.56-2.96-.1-.65,1.34-7.44.16-1.76.61-3.59.76-3.79,1.57-7.99-.16.66-.09-.31.23-1.86.3-1.56.75-3.73,1.16-5.51-.02.22.22-.57.33-.95,1-3.6,1.78-6.36,2.6-9.04.9-2.66,1.7-5.28,2.87-8.56.25-.59,1.46-3.73,1.02-2.37.32-.95.6-1.83,1.34-3.84,1.57-3.85-1.65,4.49-.41,1.58.02-.14.44-1.46,1.07-3.08.65-1.61,1.42-3.54,1.99-4.96-.47.82-2.78,6.5-3.72,9.42-.08-.02.3-1.3,1.01-3.43.76-2.11,1.94-5.04,3.29-8.42,2.34-5.3,1.13-2.24,1.52-3.17,2.32-4.92,3.38-6.98,4.29-8.86.94-1.86,1.75-3.54,4.07-7.41,1.89-3.05.27-.03.73-.68-2.35,4.09-3.63,6.26-5.13,9.08.62-1.16,1.27-2.29,1.9-3.44-.7,1.34-2.15,4.11-2.95,5.64.73-1.31,2.83-5.39,5.48-9.94,2.63-4.56,5.79-9.58,8.15-13.05.78-1.27,2.21-3.41,1.48-2.43l-1.46,2.21c-1.43,1.98,2.67-4.22.77-1.45,1.93-2.99,4.13-6.33,7.13-10.34l.66-.69c-.09.06-2,2.59-2.78,3.77,1.15-1.75,4.67-6.1,5.94-8.02l-2.19,2.75c2.09-2.9,4.7-6.48,7.53-9.9-1.37,1.49-.64.8-2.72,3.18.92-1.02-.86,1.2-2.46,3.29-1.61,2.09-3.06,4.04-1.66,2.34-2.09,2.49-3.41,4.46-5.98,7.83.11-.08.92-1.19-1.23,1.86-.09.15-.3.48-.44.69-.07.09-.09.13-.15.21.04-.06.08-.11.12-.17-.09.14-.09.15.05-.06.52-.72.95-1.3,1.14-1.53-1.01,1.55-4.31,6.48-5.36,8.2-1.21,1.85.46-.81-.23.19l-1.55,2.56c-.24.2-3.23,4.92-.53.46-.82,1.33-1.66,2.65-2.46,4-1.49,2.33-3.39,5.64-4.49,7.7-1.09,1.93-2.56,4.98-1.72,3.24-1.13,2.18-2.23,4.38-3.27,6.61l-.05.05c-.79,1.64-1.55,3.32-2.3,5.04-.71,1.73-1.43,3.5-2.16,5.29-.37.89-.74,1.8-1.12,2.71-.34.92-.69,1.85-1.04,2.79-.71,1.87-1.44,3.77-2.18,5.72-.74,2.33-1.51,4.74-2.75,8.65l-.29.75c-.43,1.51-1.08,3.78-1.66,5.84-.56,2.06-.97,3.93-1.1,4.59-.25.81-.6,2.15-1,3.77-.37,1.64-.73,3.58-1.13,5.58-.19,1-.4,2.02-.58,3.03-.16,1.01-.31,2.02-.46,2.98-.3,1.92-.57,3.68-.78,5.05l.08.22c-.44,3.78-.9,7.4-1.17,12.12l.11-.28c-.07,1.02-.15,2.18-.24,3.44-.06,1.27-.12,2.65-.19,4.11-.19,2.91-.2,6.12-.21,9.34-.03-.44-.02-2.07,0-3.23-.04,1.92-.11,3.9-.05,5.89.08,1.99.16,3.99.24,5.98.3,3.96.56,7.83.9,11.3.22,1.73.33,2.98.44,4.19-.02-.16-.04-.3-.05-.43.02.18.05.44.09.71.09.76.19,1.55.29,2.4-.08-.73-.16-1.42-.23-2.02.19,1.33.49,3.34.78,5.31l.02.86c.03.16.04.29.07.46.3,1.93.32,1.54.21.5.19.98.37,1.88.51,2.59.06.8.3,2.08.55,3.44.26,1.35.59,2.77.73,3.85.2.64.65,3.11,1.3,5.5.61,2.39,1.21,4.75,1.44,5.24,0,.07.14.64-.14-.4.57,2.15,1.15,4.29,1.73,6.2.05.31.08.63.14.94l1.6,4.58c.4,1.4.68,2.39.77,2.72.08.3-.12-.08-.61-1.46,2.43,6.64,1.85,5.43,4.13,10.99l-.18-.25c.73,2.02,2.16,5.14,2.6,6.36.22.56.52,1.33.89,2.26.4.92.88,2,1.41,3.21,1.04,2.43,2.46,5.31,3.96,8.41,3.08,6.16,6.94,12.97,10.16,18.23-1.08-2.15,2.96,4.91,3.45,5.18.36.63,1.3,2.07.14.44,1.76,2.61,3.13,4.54,4.37,6.26,1.21,1.74,2.39,3.21,3.77,4.89.39.61-.88-1.02-.52-.49.31.4,1.23,1.56,1.65,2.09.38.52-.63-.68-1.24-1.47,4.03,5.03,4.62,5.38,5.05,5.63,2.12,2.48,3.19,3.71,4.93,5.3.75.85,2.03,2.25-.76-.61.39.41,1.18,1.23,2.15,2.23.96,1.01,2.19,2.12,3.33,3.23,1.13,1.12,2.31,2.09,3.17,2.85.87.75,1.45,1.23,1.52,1.25.5.5,2.43,1.99,2.89,2.36,1.94,1.62,3.08,2.38,4.16,3.22,1.08.83,2.18,1.61,4.24,2.99l-1.12-.79c.85.49,1.7,1.07,2.76,1.79,1.08.69,2.38,1.52,4.06,2.59l-.1-.05c3.93,2.35,4.81,2.81,5.68,3.24.43.22.86.45,1.68.87.81.45,2.04,1.06,4.07,2.04l-.4-.3c.81.24,7.24,3.43,12.27,4.97l-1.78-.64c1.37.4,3.24,1.14,5.14,1.77,1.91.62,3.81,1.27,5.22,1.58.61.16-.97-.2-1.83-.38,1.83.46,2.81.69,3.33.81.52.11.59.11.59.08.02-.05-.21-.13,2.56.35,1.01.25-1.35-.06,2.38.61.93.14,3.66.54,6.82.71,1.57.14,3.26.1,4.87.17,1.61-.02,3.14-.04,4.44-.06-1.14-.01-2.27-.01.34-.17,1-.07,2.17-.16,3.43-.26,1.25-.17,2.59-.29,3.9-.51,1.3-.27,2.62-.45,3.79-.78,1.17-.33,2.24-.61,3.09-.92.49-.15.67-.2.7-.2.72-.27,1.68-.58,2.7-1,1.01-.46,2.13-.91,3.18-1.44,1.03-.56,2.03-1.08,2.85-1.58.8-.53,1.44-.96,1.82-1.23.67-.27,1.9-1.21,3.44-2.38.73-.63,1.49-1.36,2.3-2.1.78-.76,1.51-1.61,2.26-2.41.74-.81,1.47-1.6,2.14-2.33.67-.74,1.2-1.48,1.7-2.08.98-1.21,1.62-1.97,1.67-1.91,1.03-1.19,1.84-2.54,2.74-3.83l1.32-1.95c.43-.66.78-1.36,1.18-2.04l-.09.23c.74-1.31,1.36-2.41,1.89-3.35.44-.99.8-1.81,1.11-2.52.59-1.44,1.08-2.38,1.34-3.42.47-1.31.17-.34.14-.22.36-1.04.68-1.96.97-2.8.14-.42.28-.81.41-1.19.09-.39.18-.75.26-1.1.32-1.4.58-2.54.83-3.63.22-1.1.28-2.18.43-3.43.07-.62.14-1.3.22-2.04.03-.75.01-1.57.02-2.49l.12-.77c0-.25,0-.64.02-1.14,0-.25.01-.53.02-.84,0-.31-.04-.64-.06-.99-.05-.71-.11-1.51-.17-2.39-.08-.87-.07-1.83-.28-2.82-.17-.99-.34-2.03-.52-3.1-.1-.53-.16-1.08-.31-1.62-.14-.54-.29-1.08-.44-1.62-.3-1.09-.6-2.18-.9-3.27-.37-1.06-.78-2.1-1.16-3.11.04.08.12.24.37.88-1.56-4.61-4.25-9.79-6.72-14.18-1.36-2.12-2.59-4.1-3.68-5.68-1.12-1.55-2.03-2.76-2.61-3.43-1.25-1.72-2.54-3.41-3.81-5.11,4.83,6.69-.85-.9,1.1,1.88-1.93-2.61-4.83-6.86-2.48-3.63l.35.52c.5.54-.98-1.55-2.56-3.75-1.55-2.23-3.17-4.6-3.06-4.54-4.58-6.67-8.22-13.88-10.38-21.42-.25-.95-.5-1.89-.75-2.84-.24-.95-.53-1.88-.66-2.84-.33-1.92-.66-3.82-1-5.72-.19-1.92-.37-3.83-.56-5.73l-.14-1.42-.05-1.43c-.03-.95-.06-1.9-.09-2.85l-.09,1.75-.16-5.29c-.02-.69.06-1.16.07-.98,0,.21.04,1.02.1,2.89.01-.99-.08-2.57-.04-3.92,0-1.35-.01-2.46-.02-2.52.26-7.39.09,2.89.16.62l.07-3.08-.04.69c.02-2.49-.11-2.72.27-7.25.25-2.86.2-1.46.3-2.59,0,0,.02-.09.04-.35.02-.26.05-.7.1-1.38.13-2.22.45-4.42.7-6.63l-.43,2.64c.29-2.94.74-6.23.25-3.19.52-4.49,3.51-24.67,4.51-27.28.48-2.01.92-4.02,1.59-6.09.32-1.04.65-2.1.99-3.21.39-1.09.8-2.22,1.23-3.41-.45,1.18-.83,1.84.68-2.26-.18.79.6-1.05,1.62-3.49.49-1.23,1.11-2.57,1.68-3.81.58-1.24,1.1-2.39,1.53-3.16-.74,1.39.6-1.4,1.84-4,1.28-2.58,2.49-4.95,1.27-2.79,1.68-3.23.19-.15,1.51-2.58,3.92-7.74,9.38-16.67,14.39-26.19.05-.16-.84,1.4.19-.66.96-1.63,1.82-3.32,2.74-4.98.93-1.91.66-1.85,2.43-5.31-.26.48-.65,1.21-.05-.09,2.18-4.8,4.1-9.79,5.51-14.97,1.45-5.17,2.25-10.57,2.32-15.99.25-10.88-2.84-21.65-7.66-31.2,1.26,2.62.37.9-.64-1.08.64,1.29-.09.01,0,.29-.34-.67-.65-1.35-1.01-2l-1.13-1.94-2.27-3.87c-.52-.64-1.89-2.61-3.21-4.51-.33-.47-.65-.95-.98-1.39-.34-.42-.65-.82-.93-1.18-.56-.71-.99-1.23-1.16-1.39l1.77,2.22c-1.23-1.43-.45-.37.49,1.07.91,1.47,2.04,3.26,1.8,3.09.62.85,1.36,1.82,2.07,2.97.68,1.16,1.42,2.43,2.2,3.78.38.68.82,1.35,1.17,2.08.37.73.74,1.47,1.11,2.22.76,1.5,1.61,3,2.28,4.59.55,1.42-.56-1.17-.28-.4.38.79.77,1.67,1.26,2.8.53,1.12.97,2.56,1.56,4.42l-.16-.41c.95,2.58,1.39,4.9,1.9,7.01.06.26.12.53.18.79.04.26.08.53.11.79.07.52.15,1.03.22,1.54.13,1.02.31,2.02.41,3.03.05,1.02.11,2.05.17,3.12.02.53.07,1.08.08,1.63-.02.56-.04,1.13-.05,1.71-.06,1.17-.02,2.41-.17,3.73-.15,1.32-.29,2.73-.48,4.26.09-.29.13-.59.2-.89-.38,2.62-.58,3.15-.81,4.37-.2,1.51.13-.32.48-2.18.09-.47.17-.93.25-1.35.06-.42.09-.79.13-1.06.07-.54.1-.67.07.02-.27,1.74-1.11,6.34-2.36,10.69-1.3,4.34-2.92,8.43-3.49,9.48-1.6,3.75.57-1.06-1.03,2.7l-.48.97-.36.97c-1.15,2.42-1.79,3.61-1.88,3.68.27-.59.77-1.68,1.06-2.31-1.48,3.14-4.36,8.77-4.94,9.81.62-1.15,1.26-2.3,1.86-3.46-5.06,9.94-12.15,21.63-16.92,31.34l.41-.71c-1.87,3.68-2.55,5.19-3.34,6.76-.4.78-.79,1.6-1.29,2.74-.5,1.15-1.21,2.58-2.05,4.69l.11-.31c-.62,1.71-1.59,3.93-2.4,6.28.73-2.17-1.56,4.02-.59,1.17-.77,2.11-1.15,3.46-1.4,4.35-.25.89-.38,1.33-.48,1.69-.17.71-.32,1.03-.94,3.93l-.41,1.3c-.21.99-.33,1.53-.51,2.36-.16.85-.37,2-.79,4.23.66-3.66-.67,2.82.05-1.28-.54,2.32-.84,4.37-1.11,6.18-.26,1.81-.49,3.4-.7,4.83-.41,2.85-.74,5.07-1.08,7.22-.15,2.18.12.14.39-2.14.33-2.27.72-4.77.55-3.56.39-2.01-.45,3.57-.75,6.54-.18,1.51-.4,2.78-.68,4.62-.13.93-.29,1.99-.48,3.3-.16,1.31-.27,2.87-.42,4.78.05-.76.06-.81.11-1.57-.14,1.42-.23,2.82-.33,4.3-.08,1.48-.26,3.03-.32,4.79.07,1.97-.13,4.55.01,5.12.06-2.33.08-4.67.18-7-.08,1.98-.04,3.91-.07,6.15-.02,1.12-.03,2.33-.05,3.65.03,1.33.07,2.79.12,4.42-.05-.51-.15-2.45-.22-3.79.01,1.91.15,3.68.16,5.67-.09-.28-.16-2.41-.25-5-.08-1.3,0-2.71.02-4.06.03-1.35.05-2.65.05-3.71-.12,2.05-.11,8.05-.22,5.91.1,1.54.19,3.42.23,5.57.03,1.07.04,2.21.11,3.41.12,1.19.26,2.43.43,3.72l-.13-.33c.1.82.3,2.51.47,4-.16-.9-.27-1.8-.41-2.7.15,1.04.2,2.07.38,3.08.17,1,.34,2,.5,2.99.16.99.33,1.98.49,2.96.22.97.5,1.94.77,2.91-.27-1.02-.48-1.82-.65-2.43-.16-.62-.2-1.07-.26-1.38-.1-.62-.1-.71-.07-.65.06.13.24.85-.04-.91.42,2.57.92,4.17,1.22,5.36.3,1.19.47,1.96.65,2.77.17.81.48,1.62.92,2.94.23.66.5,1.44.84,2.4.32.97.9,2.04,1.49,3.37-.33-.72-.96-2.06-1.32-2.97-.31-.93-.45-1.38,0-.23.39,1.04.96,2.2,1.43,3.28.49,1.07.87,2.09,1.21,2.68,3.76,6.76-.49-1.08,1.15,1.77.6,1.17,1.03,2.02,1.61,2.89.58.86,1.23,1.8,2.15,3.21l-.07.07c2.4,3.68,2.82,4.09,3.11,4.46.31.36.54.64,2.83,3.85l-2.06-2.62,2.44,3.31-.59-.62c2.68,3.58,3.52,4.69,6.02,8.28-.54-.87.48.36,2.71,3.53,1.38,2.24-.88-1.19,2.11,3.4-.73-1-1.49-2.11-2.77-4.13-.17-.22-.75-.93-.93-1.15.4.59.86,1.25,1.33,1.93.45.7.92,1.42,1.37,2.13.9,1.41,1.81,2.69,2.28,3.56-.34-.68-.88-1.42-1.11-1.83.77,1.08,1.41,2.23,2.07,3.38.65,1.15,1.34,2.28,1.96,3.44.48,1.16.08.25-.42-.6.74,1.42,1.2,2.43,2.21,4.56-.33-.52-.34-.36-1.77-3.37,1.06,2.27,2.24,4.5,3.05,6.88.14.49,1.25,3.66.88,2.75,1.16,3.98,2.79,9.87,2.87,15.42.06.28.03.86.03,2.03-.05,1.3-.03,2.56-.15,3.81-.16,1.25-.33,2.49-.5,3.76-.04.32-.09.64-.13.96-.07.32-.15.64-.22.96-.15.64-.3,1.3-.45,1.97-.15.67-.3,1.36-.46,2.07-.22.69-.45,1.4-.69,2.13-.44,1.08-.79,2.19-1.29,3.24-1.95,4.41,2.1-4.25-1.14,3.1-.29.65-.52,1.17-.71,1.58-.23.39-.39.68-.52.9-.25.43-.34.55-.38.57-.07.04.08-.32-.43.53-.33.62-.73,1.37-1.17,2.2-.41.85-1.06,1.68-1.65,2.63-.62.93-1.28,1.93-1.99,2.95-.79.96-1.61,1.95-2.45,2.97.54-.68,1.02-1.28,1.49-1.88.47-.6.97-1.15,1.4-1.84ZM159.52,451.45c1.15.08,3.41.24,4.3.31-1.32.08-2.33-.12-4.3-.31ZM82.65,407.02c.58.64,1.4,1.69,2.35,2.87-.72-.83-1.49-1.79-2.35-2.87ZM62.54,168.46s-.04.07-.06.11c-1.34,2.23-.86,1.44.06-.11ZM65.34,163.85c.27-.47.24-.44.11-.26-.18.33-.81,1.37-1.52,2.55.22-.31.59-.91,1.41-2.29ZM183.53,274.38l-.11,1.04c.15-2.36.13-1.7.11-1.04Z"/><path class="d" d="M89.56,414.68c.22.25.27.32.31.39.33.32.35.31-.31-.39Z"/><path class="d" d="M222.58,394.67v-.18c-.03-.1-.04-.15-.04-.18l.04.36Z"/><path class="d" d="M37.71,242c-.19,1.09-.3,1.7-.38,2.1.01.06.11-.43.38-2.1Z"/><path class="d" d="M81.37,140.18l-2.06,2.78c.99-1.35,1.38-1.8,1.89-2.47-.06.05-.49.55.16-.31Z"/><path class="d" d="M101.11,117.63c.34-.37.72-.79,1.06-1.15l-.13.07c-1.46,1.57-2.46,2.69-.93,1.08Z"/><path class="d" d="M83.58,137.84c.23-.17,1.54-1.9,3.04-3.79-.09.11-.18.22-.27.33.36-.62-1.24,1.4-2.77,3.46Z"/><path class="d" d="M86.96,133.61c.47-.58.95-1.17,1.41-1.74.15-.25-.58.69-1.41,1.74Z"/><path class="d" d="M68.94,158.03c.65-.95.31-.66.69-1.18.59-1.14-4.04,6.51-.69,1.18Z"/><polygon class="d" points="84.99 136.46 84.38 137.08 83.61 138.2 84.99 136.46"/><path class="d" d="M73.61,151.78l2.23-3.15s.23-.37.57-.86c-.69.97-1.41,1.99-1.95,2.75-.54.77-.9,1.29-.86,1.26Z"/><path class="d" d="M76.42,147.77c.72-1.01,1.4-1.97,1.8-2.53-.4.54-1.23,1.72-1.8,2.53Z"/><path class="d" d="M81.79,140.66l-.7.9-1.64,2.18c.77-1.04,1.56-2.05,2.34-3.08Z"/><path class="d" d="M52.99,187.78l-1.6,3.9c-.13.41.33-.64.92-2.1.35-.95.97-2.38.68-1.8Z"/><path class="d" d="M58.83,176.44c-.55,1-.6,1.06-.93,1.61l.05.17.88-1.78Z"/><path class="d" d="M53.46,187.48c-.17.38-2.27,5.68-.23.74.14-.4,1.85-4.26.23-.74Z"/><polygon class="d" points="36.52 248.41 36.64 247.34 36.42 247.47 36.52 248.41"/><path class="d" d="M38.06,304.12c-.64-4.94-.29-1.15-.85-5.62-.21-1.15.46,3.65.25,2.47.47,2.97.66,4.54.6,3.15Z"/><path class="d" d="M37.46,300.96c-.08-.48-.16-.98-.24-1.52.14.86.2,1.26.24,1.52Z"/><path class="d" d="M214.11,90.98c-.58-.91-1.26-1.74-1.9-2.6l1.23,1.68.68.92Z"/><path class="d" d="M210.22,86.16l-.37-.68-1.28-1.45c.45.57,1.33,1.67,1.65,2.13Z"/><path class="d" d="M150.8,449.82l-.24-.02c.47.14,1.21.27,2.68.55l-2.44-.53Z"/><polygon class="d" points="192.92 446.06 192.27 446.4 193.55 445.86 192.92 446.06"/><path class="d" d="M216.74,419.57c-.67,1.31-1.54,2.81-2.26,4.11.78-1.41,1.43-2.5,1.85-3.21.44-.7.54-1.06.41-.9Z"/></g><g class="b"><path class="j" d="M524.65,321.5c-49.7-84.65-99.88-6.83-164.3-6.54-75.24.34-80.22-21.34-102.65-52.82-22.43-31.48-50.37-35.67-81.91-8.66-31.54,27.01-35.88,106.41-.5,163.66,35.39,57.25,108.85,113.09,204.74,82.19,65.39-21.07,182.02-114.12,144.62-177.83Z"/><path class="d" d="M524.83,322.84c-.74-1.38-.55-.84-.67-1.04,1.27,2.29.66.98.67,1.04Z"/><path class="d" d="M531.56,347.59l-.03-.46c.01,1.28.1,2.55.03,3.83.07-1.12.02-2.25,0-3.37Z"/><path class="d" d="M527.34,371.42c.47-1.06,1.14-3.16,1.79-5.53.62-2.38,1.2-5.03,1.57-7.17l.14-.7c.06-.65.15-1.3.18-1.95-.59,5.24-2.37,11.88-3.68,15.35Z"/><path class="d" d="M521.99,383.22c.21-.34-.1.28-.14.35-.03.07.23-.43,1.46-3.07-.13.26-.17.34-.25.49-.23.47-.54,1.12-1.07,2.23Z"/><path class="d" d="M523.06,381c1.1-2.31-.76,1.49,0,0h0Z"/><path class="d" d="M517.52,391.43c.57-.97,1.12-1.95,1.65-2.94-.35.61-1.89,3.19-1.34,2.22-1.75,2.99-1.36,2.39-.3.73Z"/><path class="d" d="M515.94,394.22c.31-.5.62-.99.91-1.5-.17.26-.41.65-.91,1.5Z"/><path class="d" d="M518.7,389.51c-.6,1.08-1.24,2.14-1.85,3.21.27-.41.34-.43.86-1.47-.12.28.23-.36.99-1.74Z"/><path class="d" d="M519.74,387.68c.97-1.63,2.07-3.81.55-.78,1.5-2.86,2.09-4.1,1.96-3.9-.13.24-.99,1.85-2.51,4.69Z"/><path class="d" d="M527.07,372.64l.88-2.38c.24-.69.41-1.41.61-2.11-.25,1.07-1.59,4.62-1.49,4.49Z"/><path class="d" d="M505.51,408.69c-.11.19.76-.85.95-1.02.5-.66,1-1.33,1.49-2.01-.77,1.03-2.3,2.92-2.43,3.03Z"/><path class="d" d="M506.46,407.66c-.76.99-1.49,2-2.27,2.97,2.09-2.61,2.42-3.12,2.27-2.97Z"/><path class="d" d="M515.75,394.81c1.08-1.74,2.07-3.53,3.08-5.31-1.19,2.13-2.42,4.24-3.71,6.31l.63-1Z"/><path class="d" d="M496.34,419.6l1.35-1.63c-.8.97-1.61,1.93-2.44,2.88l1.09-1.24Z"/><path class="d" d="M489.88,426.52c1.06-1.16-1.58,1.46-.44.26-1.78,1.84-3.31,3.42-4.69,4.84,1.49-1.48,3.07-3.05,5.13-5.1Z"/><path class="d" d="M482.41,433.97c.75-.74,1.53-1.49,2.35-2.35-.79.79-1.56,1.56-2.35,2.35Z"/><path class="d" d="M500.12,415.52c-.2.21-.59.61-1.99,2.16l1.04-1.05c.29-.34.62-.73.96-1.12Z"/><path class="d" d="M499.2,416.6l-.04.04c-1.06,1.2-1.79,2.02-2.1,2.38.27-.31.91-1.03,2.14-2.42Z"/><path class="d" d="M500.35,415.24c-.09.1-.15.18-.24.28.1-.1.16-.17.24-.28Z"/><path class="d" d="M510.2,402.89c-1.25,1.8-3.96,5.5-1.25,1.99.89-1.3-.64.72,1.25-1.99Z"/><path class="d" d="M501.62,413.92c.87-1,1.69-2.04,2.53-3.06-.07.05-.54.58.12-.28-.89,1.11-1.75,2.24-2.66,3.33Z"/><polygon class="d" points="500.38 415.42 501.62 413.92 500.66 415.03 500.38 415.42"/><path class="d" d="M487.33,429.28c-1.2,1.22-2.51,2.57-4.05,4.03,1.65-1.56,3.33-3.21,4.9-4.79.2-.24.85-.98-.85.76Z"/><path class="d" d="M493.21,423.23c-.08.09-.18.2-.26.28.17-.17.3-.3.26-.28Z"/><path class="d" d="M467.74,447.23c.09-.07.17-.13.27-.2.02-.02.03-.04.05-.06l-.32.27Z"/><path class="d" d="M488.46,428.26c1.2-1.21,1.92-1.94,2.56-2.67-.87.93-1.83,1.89-2.84,2.93-.09.11-.1.13.28-.26Z"/><path class="d" d="M478.19,437.98c.66-.59,1.41-1.27,2.2-1.97-.66.57-1.99,1.74-2.2,1.97Z"/><path class="d" d="M492.54,423.91c.06-.06.11-.12.17-.19-.4.39-.34.35-.17.19Z"/><path class="d" d="M492.54,423.91c-.59.65-1.05,1.16-1.52,1.68.71-.76,1.36-1.47,1.93-2.08-.15.15-.3.29-.41.4Z"/><path class="d" d="M463.19,451.66c.19-.25,3.65-3.12,6.65-5.58,2.88-2.51.8-1.1-1.83.94-.07.1-.04.14-3.05,2.66,1.11-.82,6.75-5.51,4.26-3.32-3.96,3.38-3.3,2.7-5.28,4.28,1.74-1.26-5.08,4.25-4.12,3.64,1.2-.94,2.36-1.92,3.55-2.88.08-.04-1.19,1.03-.19.25Z"/><path class="d" d="M473.68,442.16l1.21-1.08c-1.39,1.21-2.4,2.05-4.28,3.59-2.03,1.77-2.43,2.15-2.56,2.29,2.03-1.7,4.05-3.43,6.04-5.18l-.41.37Z"/><path class="d" d="M480.25,436.2c-.86.92-3.69,3.58-1.88,2.04,3.48-3.23,2.4-2.3,4.42-4.29-5.54,5.28,1.58-1.53-2.49,2.22,1.09-1.04,2.06-1.98,2.98-2.86-1.01.94-1.96,1.86-2.9,2.69.05-.05.09-.08.13-.12l.03-.02h0c.25-.21.33-.28.06-.03-.02.02-.09.08-.12.11-.03.04-.13.15-.23.26-1.64,1.49-.27.22.23-.26.02-.02.06-.06.06-.07l-.02.02c-1.85,1.76-3.73,3.49-5.63,5.2,1.21-1.08,2.74-2.42,5.36-4.88Z"/><path class="d" d="M506.63,408.25c-.15.18-.15.17-.17.18-.3.4-.41.55.17-.18Z"/><path class="d" d="M504.64,410.7c.35-.44.6-.83,1.72-2.25.99-1.23.03.03.1-.02.65-.88,2.3-3.06.16-.38l-.32.44c-1.9,2.43-4.53,5.4-4.19,4.98.63-.64,1.17-1.23,2.53-2.77Z"/><path class="d" d="M492.76,424.07c-1.44,1.56-2.92,3.1-4.4,4.62l2.33-2.27-.15.09c2.52-2.62,1.93-2.09,2.22-2.44Z"/><polygon class="d" points="467.15 447.66 467.74 447.05 464.98 449.49 467.15 447.66"/><polygon class="d" points="460.72 452.89 460.91 452.64 459.21 454.03 460.72 452.89"/><path class="d" d="M155.77,285.94l.56-1.8c-.27.85-.44,1.4-.56,1.8Z"/><path class="d" d="M152.49,299.18l-.02.34c.1-.62.13-.88.02-.34Z"/><path class="d" d="M271.94,498c-1.26-.51-2.61-1.05-3.59-1.44-.97-.43-1.59-.7-1.46-.6l.74.4c1.76.72,3.15,1.17,4.31,1.63Z"/><path class="d" d="M169.77,407.42c.12.23.24.48.35.72.34.57.66,1.11.95,1.59-.39-.69-.83-1.48-1.3-2.31Z"/><path class="d" d="M168.56,405.87l-1.53-3.28c.34.74.84,1.79,1.53,3.28Z"/><path class="d" d="M206.73,236.01l2.17-.48c-3.42.61-1.9.4-2.17.48Z"/><path class="d" d="M387.92,496.02c-2.2.83-3.98,1.43-5.53,1.97,2.69-.88,4.86-1.62,5.53-1.97Z"/><path class="d" d="M155.18,291.33c.29-1.11.4-1.58.38-1.56-.3,1.14-.46,1.79-.38,1.56Z"/><path class="d" d="M375.91,500c.4-.11.79-.22,1.2-.33.82-.25,1.65-.5,2.52-.77.86-.29,1.77-.59,2.77-.92-2,.62-4.27,1.33-6.49,2.02Z"/><path class="d" d="M440.55,288.57c.18-.07.41-.15.57-.21.05-.03-.2.06-.57.21Z"/><path class="d" d="M511.28,303.1c-.25-.29-.58-.68-.94-1.1-.38-.41-.79-.86-1.19-1.29.38.43,1.06,1.12,2.14,2.39Z"/><path class="d" d="M433.53,472.21c1.48-.95.23-.16,0,0h0Z"/><path class="d" d="M440.87,467.79c-.3.22-.53.39-.56.43.11-.1.3-.25.56-.43Z"/><path class="d" d="M359.05,504.78c-.05,0-.09.02-.15.03.52-.08.43-.07.15-.03Z"/><path class="d" d="M435.78,470.81c-.56.35-1.2.76-1.9,1.2.31-.19.9-.54,1.9-1.2Z"/><path class="d" d="M435.46,470.97c.51-.33.91-.59,1.29-.84.18-.13,0-.03-1.29.84Z"/><path class="d" d="M431.47,473.53c.85-.54,1.64-1.04,2.4-1.53-.29.18-.42.26-.34.2-.43.28-1.05.67-2.06,1.32Z"/><path class="d" d="M302.1,306.95c.11.04.23.09.35.14,1.66.6.94.33-.35-.14Z"/><path class="d" d="M231.12,477.47c.07.05.11.07.17.11-.07-.05-.15-.11-.21-.15l.04.04Z"/><path class="d" d="M225.96,473.78c2.24,1.51,3.43,2.49,5.11,3.66-.53-.46-1.06-.93-1.56-1.42l-3.54-2.24Z"/><path class="d" d="M171.18,257.32c-.51.55-1.04,1.08-1.53,1.64l-1.41,1.74c1.56-2.22,3.22-3.88,3.95-4.75.37-.43.58-.59.46-.51-.12.08-.51.46-1.24,1.23-.05.17-.84,1.04-1.92,2.32-1.01,1.34-2.41,3.01-3.58,4.86-1.27,1.77-2.3,3.7-3.14,5.14-.79,1.47-1.25,2.54-1.27,2.71-.45.87-.95,1.72-1.34,2.62.34-.77.38-.9.77-1.64-2.5,5.16-1.71,3.91-4.25,10.81-.82,2.43-1.41,4.13-.9,2.45-.58,1.82-1,3.68-1.51,5.52-.39,1.62-.37,1.2.06-.4-.69,2.82-1.37,5.65-1.86,8.52v-.07c-.09.62-.25,1.62-.41,2.64-.13,1.03-.26,2.07-.34,2.75-.36,2.18.13-1.1.02-.55-.22,1.59-.44,3.19-.57,4.79-.28,1.95.04-2.04.59-5.33-.45,2.21-.63,3.2-.75,4.85-.15,1.65-.4,3.94-.79,8.79l.3-4.55c-.18,1.46-.33,3.08-.48,4.98-.11,1.9-.21,4.08-.32,6.66.04-1.23.65-10.31.48-5.07-.05,1.47-.22,3.42-.15,6.24-.05.01-.07.71-.08,1.83-.02,1.12,0,2.68.07,4.4l-.14-.23c.16,3.73.19,3.44.4,5.62.13,2.08.18,3.33.21,4.19.05.86.05,1.32.05,1.81.64,6.63-.3-4.59.51,3.25.62,5.5,1.19,9.36,2.58,15.84.73,3.81-.21-.65.03.72.26,1.12.51,2.23.82,3.34.19.82.1.56.05.43.71,2.81.17.21,1.27,4.62.23.57.8,2.84,1.52,5.63.82,2.76,1.75,6.08,2.81,8.69.43,1.32-.3-.61-.2-.19,1.3,3.64,1.97,5.16,2.53,6.53.57,1.37,1.04,2.59,2.41,5.46.69,1.66,1.38,3.33,2.17,4.95-1.63-3.62.62.93,2.74,4.82-.64-1.25-1.11-2.36-1.45-3.09,1.01,2.13,2.22,4.16,3.33,6.24.38.76.01.16-.58-.84.24.42.46.82.64,1.13,1.19,2.23.47,1.14-.45-.43-.38-.77-.76-1.54-1.14-2.29-.45-.74-.88-1.46-1.19-1.98-.29-.51-.47-.77-.42-.59.2.41.63,1.19,1.1,2.05-.23-.39-.39-.64-.3-.45.1.22.48.86,1.05,1.86l.64,1.49.23.32c.69,1.39,1.52,2.69,2.28,4.04.77,1.34,1.53,2.69,2.37,3.99.93,1.37,1.83,2.7,2.75,4.06.96,1.33,1.94,2.69,2.98,4.14,2.13,2.88,4.57,6.14,7.86,10.25-1.69-1.99-.48-.34-.66-.37-1.68-2.33-5.04-6.41-8.1-10.94,1.6,2.36,1.19,1.88.77,1.29.93,1.33,1.93,2.61,2.9,3.91.96,1.31,1.95,2.6,2.97,3.85-.21-.11,1.21,1.68,2.74,3.71-1.05-1.62,4.68,5.55,7.43,8.41.12.22-.59-.42-3.74-4.08,3.39,4.12,4.68,5.06,8.2,8.93-.81-.86-1.24-1.33-1.59-1.64.96,1,2.6,2.7,3.87,4.02,1.29,1.3,2.19,2.22,1.6,1.68l-.84-.83c2.75,2.78,7.05,6.92,10.98,10.23.98.83,1.91,1.63,2.77,2.36.88.72,1.7,1.35,2.4,1.9,1.41,1.1,2.38,1.84,2.64,1.99.05.07-.93-.48-1.32-.75,1.85,1.41,3.8,2.7,5.72,4.02,1.9,1.34,3.89,2.56,5.86,3.8-1.1-.58,2.6,2.39-2.8-1.22.77.53,1.62,1.13,2.69,1.88,1.07.75,2.36,1.62,4.05,2.63-1.07-.7-2.57-1.87-1.09-.95,1.99,1.34,2.67,1.8,3.47,2.33.81.54,1.72,1.16,4.25,2.67-1.64-.98.32-.12,2.92,1.39-.42-.21.11.32-.86-.21l1.65.89,1.69.82,3.38,1.64c-1.68-.83-.38.02,1.08.85-.69-.36,5.86,2.8,7.7,3.57-.98-.4-1.92-.91-2.87-1.37,7.73,3.47,7.78,3.08,15.66,5.97-.48-.15-1.1-.3-1.09-.22,0,.04.16.13.57.31.41.19,1.07.43,2.09.75.95.24,3.08.78,5.82,1.48,1.4.31,2.96.65,4.61,1.02.83.19,1.69.39,2.56.6.88.17,1.78.35,2.69.53l1.38.36c1.86.36,3.71.77,5.59,1.01-1.77-.13-5.08-.77-8.65-1.37-1.78-.31-3.59-.78-5.3-1.16-1.71-.38-3.32-.75-4.62-1.15,3.01.99.82.36,5.41,1.58,1.61.48-2.53-.56-3.88-.93,3.57.93,7.11,2,10.74,2.7-.23-.12,1.85.29,3.94.7,2.1.33,4.21.63,4.01.54-1.98-.3-3.97-.56-5.92-.99-1.96-.4-3.94-.76-5.89-1.2-.23-.1,1.49.19,4.22.68,1.37.23,2.98.6,4.74.87,1.77.28,3.68.57,5.61.88,1.96.37-1.5,0-1.35.07,1,.21,7.39.86,8.1.96l-3.31-.29c2.17.26,3.94.43,5.82.57,1.89.08,3.89.17,6.5.39,1.8.14,5.4.25,5.71.2-2.95-.18-3.51-.66-1.55-.76.32,0,2.68.06,5.23.13,2.54-.05,5.26-.1,6.3-.12,2.98,0-4.45.47-1.91.47.11-.04,1.75-.15,2.43-.2.95-.02.76.01.84.03.08.03.44.03,2.5-.18.67-.2,8.36-.76,1.93-.29,2.01-.2,3.08-.29,4.23-.39,1.15-.16,2.39-.33,4.73-.65-1.51.11,4.18-.81,8.11-1.72-.23.08.67-.05,1.11-.11,8.1-1.63,12.39-2.77,19.77-4.99.7-.13,4.24-1.3,2.75-.74,1.04-.38,2.01-.74,4.23-1.56,4.36-1.47-4.98,1.83-1.63.76.26-.15,5.74-2.21,8.84-3.59-.51.14-2.31.89-4.4,1.72-2.09.84-4.47,1.73-6.07,2.31-.02-.04.32-.19.94-.46.62-.27,1.54-.64,2.69-1.1,2.29-.95,5.52-2.25,9.19-3.91,5.82-2.63,2.58-1.03,3.58-1.5,5.46-2.5,7.7-3.75,9.72-4.85,2.02-1.1,3.82-2.09,8.21-4.44,3.5-1.85.26.1,1.06-.26-4.54,2.56-7.05,3.78-10.2,5.37,1.3-.64,2.6-1.28,3.89-1.95-1.44.82-4.53,2.42-6.25,3.23,1.51-.68,6.06-2.95,11.15-5.77,5.1-2.8,10.74-6.17,14.69-8.61,1.38-.9,3.75-2.48,2.59-1.78l-2.47,1.59c-2.32,1.37,4.6-3.06,1.44-1.1,3.29-2.15,6.92-4.67,11.49-7.78l.92-.49c-.12.04-3.01,2.01-4.28,2.91,1.9-1.31,7.07-4.7,9.03-6.32l-3.21,2.19c3.19-2.33,7.04-5.33,10.95-8.29-1.84,1.27-.89.7-3.75,2.69,1.26-.83-1.24,1.05-3.59,2.76-2.35,1.71-4.54,3.25-2.51,1.92-3,1.95-5.1,3.51-9.05,6.01.14-.05,1.43-.84-2.02,1.4-.16.11-.51.36-.73.53-.11.07-.14.09-.23.15.07-.04.12-.08.19-.12-.15.1-.16.11.07-.05.83-.52,1.5-.94,1.79-1.1-1.64,1.22-7.16,4.75-9.03,5.93-2.09,1.27.84-.58-.31.09l-2.79,1.78c-.32.11-5.66,3.17-.73.21l-4.47,2.62c-2.68,1.47-6.35,3.47-8.62,4.72-2.16,1.14-5.44,2.91-3.57,1.89-2.4,1.25-4.82,2.46-7.26,3.62h-.08c-7.25,3.38-15.03,6.86-23.86,9.28-1.29.39-2.6.79-4.13,1.26-1.52.49-3.29.93-5.49,1.44l-.87.13c-3.33.97-10.16,2.11-11.61,2.48-.92.15-2.42.35-4.25.58-1.83.23-3.97.58-6.2.85-2.23.21-4.54.43-6.67.63-2.13.21-4.08.21-5.6.29l-.23.11c-1.05.04-2.08.09-3.12.13-1.05.03-2.1,0-3.19,0-1.09,0-2.21,0-3.38-.01-.59,0-1.19,0-1.8,0-.61-.03-1.24-.06-1.89-.1l.31.11c-4.48-.16-11.51-.76-18.49-1.99.48.04,2.25.34,3.51.56-8.36-1.32-17.59-3.2-24.88-5.65-1.83-.56-3.17-.93-4.42-1.43.17.06.32.11.45.16-.18-.07-.46-.17-.74-.27-.79-.3-1.6-.62-2.48-.96.75.29,1.46.57,2.08.81-1.39-.5-3.5-1.25-5.56-2l-.83-.45c-.17-.07-.3-.12-.47-.19-1.97-.86-1.62-.62-.58-.11-1.03-.4-1.97-.77-2.7-1.06-1.58-.76-5.28-2.31-7.37-3.47-1.41-.49-9.84-5-10.89-5.52-.05-.06-.61-.39.42.2-1.06-.62-2.12-1.24-3.15-1.84-1.03-.6-2-1.24-2.95-1.8l-.81-.66c-1.54-.9-3.08-1.8-4.57-2.79-2.64-1.9-3.72-2.7-1.01-.95-3.27-2.12-4.52-3.09-5.68-3.93-.58-.42-1.13-.82-1.87-1.36-.75-.52-1.67-1.21-2.98-2.23l.3.14c-1.85-1.47-4.87-3.76-5.88-4.78-.5-.44-1.17-1.05-2-1.78-.84-.72-1.81-1.59-2.87-2.6-1.07-.99-2.25-2.09-3.51-3.27-1.22-1.21-2.53-2.5-3.88-3.84-5.35-5.38-11.05-11.88-15.22-17.24,1.45,2.21-3.83-5.03-4.24-5.39-.42-.67-1.51-2.22-.18-.47-1.03-1.4-1.92-2.62-2.74-3.73-.77-1.14-1.47-2.16-2.12-3.13-1.3-1.93-2.44-3.64-3.79-5.64-.38-.7.87,1.21.52.59-.31-.46-1.23-1.83-1.59-2.46-.35-.61.59.83,1.2,1.74-.48-.74-.91-1.4-1.28-1.99-.36-.6-.68-1.12-.96-1.58-.56-.91-.97-1.56-1.29-2.03-.63-.94-.86-1.16-1.06-1.35-.84-1.6-1.46-2.78-2.03-3.86-.58-1.07-1.14-2.02-1.73-3.17-.5-1.15-1.36-3.05.58.9-.27-.56-.81-1.69-1.48-3.08-.33-.69-.7-1.45-1.07-2.23-.35-.79-.71-1.61-1.06-2.42-1.45-3.19-2.6-6.21-2.71-6.3-.25-.74-1.28-3.22-1.48-3.84-.91-2.63-1.44-4.04-1.89-5.47-.45-1.43-.89-2.85-1.71-5.46l.43,1.45c-.41-1-.72-2.1-1.08-3.47-.35-1.37-.84-3-1.34-5.14l.04.12c-.56-2.46-.9-3.96-1.13-4.97-.21-1.02-.32-1.54-.43-2.07-.11-.53-.21-1.05-.42-2.05-.22-1-.46-2.49-.83-4.95v.55c-.4-.88-1.29-8.74-1.81-14.49l.15,2.08c-.09-.78-.19-1.73-.25-2.75-.03-1.02-.07-2.12-.11-3.23-.09-2.21-.05-4.42-.08-6,0-.69.06,1.09.11,2.05-.05-2.07-.07-3.17-.09-3.76-.03-.58-.05-.65-.07-.65-.02,0-.06.06-.08-.26s-.04-1.03-.05-2.57c.07-1.14.17,1.47.19-2.69.02-.52.05-1.53.09-2.84.04-1.31.04-2.94.17-4.66.16-3.46.56-7.36.99-10.16-.12.61-.23,1.23-.26,1.33-.04.1-.03-.31.17-1.73.49-4.38,2.24-11.67,3.14-15.54.16-.54.23-.73.25-.75.22-.81.48-1.88.83-3.04.37-1.16.77-2.42,1.16-3.64.39-1.22.86-2.37,1.2-3.36.36-.98.63-1.79.83-2.26.4-.67,1.08-2.23,1.98-4.12.47-.94.99-1.96,1.53-3.03.54-1.06,1.19-2.1,1.78-3.15.57-1.06,1.25-2.03,1.85-2.94.61-.91,1.14-1.76,1.69-2.41,1.05-1.34,1.75-2.18,1.8-2.12.53-.68,1.14-1.28,1.71-1.92.59-.62,1.12-1.3,1.77-1.86,1.25-1.17,2.48-2.36,3.84-3.43l-.19.2c1.26-1.06,2.35-1.92,3.29-2.64.93-.74,1.71-1.33,2.4-1.82.68-.51,1.25-.93,1.78-1.32.53-.37,1.01-.71,1.48-1.04,1.29-.82.37-.19.27-.1,1-.67,1.93-1.2,2.76-1.69.82-.5,1.57-.92,2.27-1.28,1.37-.77,2.52-1.32,3.62-1.85,2.22-1.04,4.26-2.02,8.11-3.25l.83-.15c1.05-.27,4.43-1.24,8.81-1.45,2.18-.15,4.6-.06,7.04.18,2.43.32,4.88.79,7.13,1.49-.09-.02-.29-.05-1.01-.25,5.15,1.29,10.79,4.43,15.12,7.81,1.1.82,2.09,1.71,3.05,2.49.91.85,1.8,1.6,2.55,2.33.75.73,1.43,1.38,2.01,1.94.56.57,1.03,1.03,1.4,1.36,1.61,1.7,3.13,3.49,4.6,5.32-5.72-7.08.99.94-1.32-2.01.56.7,1.19,1.51,1.79,2.27.59.77,1.1,1.52,1.48,2.06.76,1.08.92,1.36-.4-.41l-.39-.57c-.57-.58,1.14,1.66,2.84,4.15,1.72,2.46,3.49,5.1,3.37,5.03,5.05,7.4,9.81,14.93,15.61,21.52,2.9,3.28,6.09,6.28,9.55,8.86,3.46,2.58,7.18,4.74,11.03,6.49-.57-.31-1.15-.61-1.7-.96.86.47,1.78.82,2.67,1.24.89.42,1.8.78,2.72,1.12,1.43.58,1.89.88-2.02-.69,1,.48,2.66,1.08,4.08,1.58,1.44.44,2.63.79,2.69.79,3.93,1.21,3.16.99,1.68.62-1.48-.36-3.59-1.09-2.39-.68,1.08.38,2.18.69,3.28.99l-.74-.23c2.69.7,2.93.74,7.86,1.84,3.12.65,1.59.41,2.82.65,0,0,.4.12,1.9.33l3.66.59,3.67.48-2.92-.49c1.63.19,3.36.4,4.25.51.9.07.96.09-.72-.18,1.24.2,3.58.45,6.43.74,1.43.11,2.99.22,4.61.34,1.62.11,3.3.17,4.96.25,3.33.15,6.59.2,9.22.24,2.63.02,4.61.04,5.38.04,4.6-.08,9.14-.44,14.7-1.34-1.39.17-2.22.26,2.55-.6-.84.3,1.35-.07,4.21-.71,2.86-.64,6.37-1.65,8.27-2.13-1.7.44,1.61-.54,4.62-1.61,3.02-1.05,5.77-2.12,3.16-1.25,3.8-1.39.27.01,3.16-1.01,8.96-3.52,19.52-8.27,30.37-13.08.16-.11-1.69.64.62-.43,1.94-.78,3.88-1.54,5.84-2.28,2.16-.89,1.91-1.02,5.96-2.43-.58.18-1.43.46.03-.1,5.46-1.97,11.07-3.74,16.86-4.84,5.78-1.09,11.76-1.5,17.64-.71,5.88.75,11.57,2.82,16.68,5.8,5.12,2.99,9.65,6.9,13.65,11.18-1.09-1.16-1.27-1.35-.95-1.06.32.29,1.12,1.1,1.94,2.01-1.06-1.17.09-.03-.09-.29,2.23,2.42,4.25,5.01,6.23,7.64.58.69,2.18,2.79,3.6,4.91,1.46,2.09,2.73,4.19,3.08,4.58l-1.71-2.62c1.18,1.71.48.43-.5-1.2-1.01-1.61-2.25-3.61-2.01-3.41-.73-.91-1.53-2.01-2.42-3.21-.93-1.17-1.88-2.51-3-3.82-2.17-2.69-4.79-5.53-7.73-8-1.23-1.17,1.11.93.47.29-.37-.32-.76-.65-1.19-1.02-.44-.36-.91-.74-1.45-1.17-.53-.44-1.12-.93-1.81-1.44-.69-.51-1.44-1.13-2.35-1.73l.42.26c-5.05-3.48-9.1-5.32-13.45-6.74-4.36-1.34-9.14-2.3-16.05-2.09l1.02.05c-2.96.1-3.58.18-4.97.27-1.68.28.38,0,2.5-.14,2.12-.13,4.27-.11,2.72-.02-.98-.02-2.78.02-4.95.22-2.17.24-4.71.61-7.18,1.15-4.95,1.05-9.59,2.6-10.88,2.91-4.3,1.48,1.29-.35-2.99,1.16l-1.15.36-1.05.47c-2.79,1.04-4.2,1.56-4.32,1.55.67-.27,1.9-.77,2.62-1.06-3.64,1.31-10.04,4.19-11.26,4.71l4.01-1.7c-11.36,4.92-24.99,11.41-36.18,15.54l.87-.27c-4.26,1.61-6.01,2.13-7.85,2.71-1.85.55-3.8,1.17-8.65,2.38l.35-.1c-1.93.52-4.54,1.1-7.23,1.56,2.48-.45-4.7.65-1.44.07-4.86.76-6.09.77-6.88.9-.8.05-1.17.19-4.43.36l-1.5-.04c-2.22.05-2.41.1-7.41.08,4.1,0-3.19-.15,1.4-.18-10.48-.3-15.56-.42-20.33-1.05-2.4-.15-.15.15,2.37.34,2.53.19,5.32.37,3.97.3,2.25.2-3.98-.07-7.25-.44-1.67-.17-3.08-.35-5.11-.69-2.03-.31-4.69-.73-8.83-1.48.82.16.88.17,1.7.3-1.55-.3-3.06-.58-4.66-.89-1.59-.34-3.27-.72-5.12-1.25-1.06-.23-2.26-.58-3.28-.86-1.01-.33-1.83-.6-2.15-.62,1.22.4,2.44.81,3.69,1.13,1.24.34,2.47.7,3.73.97-1.07-.23-2.11-.49-3.19-.78-1.08-.28-2.19-.55-3.37-.94-1.18-.37-2.45-.75-3.81-1.3-.68-.27-1.41-.53-2.15-.84-.74-.34-1.51-.69-2.33-1.06.53.18,2.48,1.08,3.88,1.54-.98-.38-1.91-.78-2.85-1.2-.94-.4-1.89-.82-2.84-1.35.16.03.75.33,1.64.73.91.37,2.07.94,3.4,1.46,1.33.5,2.76,1.1,4.19,1.53.71.23,1.4.45,2.05.66.66.19,1.29.35,1.86.49-1.09-.31-3.19-.97-4.75-1.48-1.55-.52-2.52-.94-1.4-.58-3.25-.95-7.67-3.1-12.51-6.05l.36.12c-.38-.24-.96-.6-1.63-1.02-.65-.43-1.36-.96-2.03-1.44.84.54,1.63,1.14,2.5,1.63-3.87-2.47-6.97-5.44-10.02-8.6,3.21,3.3,3.67,3.57,3.51,3.52-.13-.07-.77-.58.65.75-1.07-.94-1.95-1.71-2.63-2.42-.7-.69-1.27-1.25-1.71-1.76-.9-1-1.47-1.65-2.03-2.36-1.12-1.42-2.39-2.94-6.17-8.08,1,1.41,3.85,5.23,2.17,3.1-1.47-1.93-3.29-4.59-4.11-5.84-4.82-6.98.65,1.13-1.44-1.81-1.54-2.45-2.38-3.42-4.49-6.49l.07-.08c-2.69-4.03-3.11-4.52-3.44-4.92-.34-.4-.58-.72-3.1-4.28.78.96,1.5,1.95,2.25,2.93-.88-1.24-1.76-2.47-2.68-3.68l.65.69c-3.01-3.95-3.98-5.16-7.23-8.79.7.9-.5-.41-3.61-3.39-1.07-1.01-.75-.75-.73-.75,0,0-.05-.06-.41-.39-.35-.33-.98-.9-2.18-1.86,1.11.82,2.32,1.75,4.18,3.66.23.2,1,.89,1.23,1.09-.55-.57-1.17-1.21-1.85-1.86-.69-.63-1.41-1.28-2.1-1.91-.73-.59-1.43-1.17-2.06-1.68-.63-.51-1.23-.91-1.67-1.25.68.51,1.51,1.12,1.89,1.48-2.35-1.8-4.8-3.48-7.42-4.87-1.21-.71-.21-.21.75.33-.77-.46-1.45-.81-2.24-1.18-.39-.19-.8-.4-1.27-.62-.48-.2-1-.43-1.61-.69.33.1.47.12.95.29.5.15,1.31.54,2.99,1.38-2.51-1.32-5.15-2.4-7.86-3.22-.27-.09-1.31-.43-2.16-.68-.86-.21-1.51-.38-.97-.27-2.3-.57-5.2-.92-8.29-.9-3.09,0-6.35.4-9.41,1.02-.31.09-.94.26-2.23.58-5.64,1.56-10.5,3.57-16.36,7.26-1.16.62-2.25,1.34-3.38,2.01-4.42,3.13,4.43-2.92-2.89,2.33-5.03,3.92-1.97,1.34-3.75,2.7-.6.52-1.31,1.13-2.11,1.82-.8.69-1.62,1.54-2.54,2.4-1.79,1.77-3.67,3.92-5.49,6.23,1.18-1.55,2.11-2.76,3.37-4.08ZM150.18,319.34c0-1.29.18-3.86.29-4.8.02,1.47-.17,2.6-.29,4.8ZM174.4,416.04c-.51-.81-1.25-2.09-2.07-3.55.62,1.04,1.32,2.23,2.07,3.55ZM417.04,482.18s-.08.05-.12.07c-2.53,1.34-1.63.87.12-.07ZM422.23,479.27c.51-.31.47-.3.24-.19-.35.23-1.49.92-2.82,1.65.38-.19,1.06-.55,2.58-1.47ZM320.05,312.53l-1.14-.25c2.58.47,1.86.32,1.14.25Z"/><path class="d" d="M168.71,406.09c-.14-.34-.17-.43-.19-.52-.24-.45-.26-.45.19.52Z"/><path class="d" d="M206.34,236.12l.2-.05c.11-.03.17-.05.2-.06l-.4.11Z"/><path class="d" d="M335.53,508.23c-1.23.04-1.92.05-2.37.05-.07.03.49.02,2.37-.05Z"/><path class="d" d="M448.56,461.95l-3.09,2.23c1.51-1.05,2.05-1.43,2.81-1.96-.08.03-.69.43.28-.27Z"/><path class="d" d="M474.81,441.79c.41-.38.87-.8,1.28-1.17l-.14.07c-1.76,1.6-3.01,2.69-1.14,1.1Z"/><path class="d" d="M451.6,460.13c.29-.11,2.21-1.55,4.32-3.18-.13.1-.25.19-.38.29.55-.57-1.67,1.2-3.94,2.9Z"/><path class="d" d="M456.42,456.57c.65-.5,1.32-1.02,1.96-1.51.22-.23-.79.62-1.96,1.51Z"/><path class="d" d="M428.68,475.34c1.09-.65.62-.51,1.25-.86,1.16-.81-7.13,4.52-1.25.86Z"/><polygon class="d" points="453.51 459.06 452.67 459.55 451.52 460.5 453.51 459.06"/><path class="d" d="M436.16,471.08l3.58-2.33c-.06.02.38-.29.93-.67-2.17,1.49-4.61,3.02-4.51,3Z"/><path class="d" d="M440.66,468.08c1.14-.77,2.22-1.5,2.83-1.95-.61.42-1.92,1.33-2.83,1.95Z"/><path class="d" d="M448.81,462.53l-1.04.72c-.82.59-1.64,1.17-2.47,1.73,1.18-.8,2.34-1.63,3.51-2.45Z"/><path class="d" d="M395.95,493.13c-1.43.61-2.84,1.26-4.28,1.84-.43.2.77-.23,2.35-.94,1.02-.46,2.6-1.16,1.93-.9Z"/><path class="d" d="M408.79,487.32c-1.13.55-1.22.57-1.87.87l-.07.18,1.94-1.04Z"/><path class="d" d="M396.53,493.21c-.41.22-6.19,2.76-.75.43.43-.21,4.67-2.16.75-.43Z"/><path class="d" d="M328.31,508.18c.4,0,.79-.03,1.19-.04l-.17-.2c-.34.08-.67.18-1.01.23Z"/><path class="d" d="M267.6,497.49c5.17,2,1.27.35,5.95,2.14,1.24.4-3.83-1.45-2.56-1.03-3.17-1.06-4.76-1.83-3.39-1.1Z"/><path class="d" d="M270.99,498.59c.51.17,1.04.36,1.61.56-.91-.31-1.34-.46-1.61-.56Z"/><path class="d" d="M519.03,313.49c.67.97,1.27,1.99,1.91,2.98l-1.18-1.96c-.23-.35-.48-.68-.73-1.02Z"/><path class="d" d="M522.83,319.14l.32.78,1.2,1.76c-.42-.68-1.23-2.01-1.52-2.54Z"/><path class="d" d="M149.73,329.23l.03.27c.04-.55.04-1.39.05-3.06l-.08,2.79Z"/><path class="d" d="M157.07,281.63c-.1.26-.21.52-.29.78.2-.48.44-.95.66-1.42l-.37.64Z"/><path class="d" d="M180.33,248.87c-.66.51-1.37,1.07-2.08,1.62-.7.58-1.39,1.16-2.03,1.69,2.75-2.36,4.58-3.45,4.12-3.31Z"/></g><rect class="i" x="195.25" y="96.32" width="176.36" height="308.54"/><path class="h" d="M365.07,124.22h-59.97v87.93h59.97v-87.93Z"/><path class="l" d="M365.06,212.15v-6.49c0-4.22,0-10.35-.07-18.1,0-15.49-.07-37.44-.11-63.33l.23.23h-59.96l.25-.25c0,33.08,0,63.61-.06,87.93l-.19-.2,43.6.1,12.08.05h4.27-4.19l-12.04.05-43.73.1h-.2v-.2c0-24.32,0-54.85-.05-87.93v-.13h60.43v.28c0,25.95-.09,47.95-.11,63.5,0,7.72,0,13.85-.06,18.01v5.96c0,.28-.09.42-.09.42Z"/><path class="r" d="M310.76,208.79c-1.43-.67-2.64-1.73-3.48-3.07-.84-1.33-1.29-2.88-1.28-4.46,0-1.58.47-3.12,1.32-4.45s2.07-2.38,3.51-3.03c.55-.19,1.05-.51,1.45-.95.53-.7.32-1.69.34-2.57.07-1.14.57-2.22,1.39-3.02.82-.8,1.91-1.26,3.06-1.3l13.51,5.31v14.22l-19.82,3.32Z"/><path class="f" d="M305.82,211.91s10.04-7.89,22.36-9.75c12.32-1.86,26.08,0,26.08,0,3.75.7,7.38,1.95,10.76,3.72l.07,6.23-13.27-.05-45.99-.15Z"/><path class="r" d="M359.39,146.25c-1.29-3.57-7.39-6.63-10.75-8.43-5.01-2.66-9.56-1.9-12.32.66-5.22-4.09-12.05-7.96-18.41-6.08-6.36,1.89-11.37,8.63-9.96,15.17.82,3.79,3.59,7.18,3.56,11.1,0,2.66-1.35,5.11-2.39,7.58-1.04,2.47-1.81,5.3-.73,7.73,1.01,2.27,3.38,3.62,4.74,5.69,1.08,1.71,1.38,3.79,2.09,5.69,2.65,7,11.15,10.69,18.48,9.2,7.34-1.49,13.27-7.25,16.56-13.99,3.29-6.74,4.17-14.38,4.32-21.86"/><path class="o" d="M354.31,204.28l-.26-52.73-22.18-6.76c-1.62-.22-3.26-.11-4.84.31-1.57.43-3.05,1.17-4.33,2.19-1.28,1.01-2.34,2.27-3.12,3.71-.78,1.43-1.26,3.01-1.42,4.63-.8,8.17-1.46,18.44-.67,24.64,1.55,12.16,10.77,13.99,10.77,13.99,0,0-.08,4.51-.17,9.79-.06,2.86.83,5.66,2.52,7.97h21.16c1.65-2.25,2.54-4.96,2.53-7.75Z"/><path class="p" d="M328.26,194.3c5.7.2,11.35-1.16,16.35-3.91,0,0-4.33,8.64-16.41,7.13l.06-3.21Z"/><path class="l" d="M335.76,156.92c.15.46,1.83.3,3.79.6,1.96.29,3.52.88,3.79.48.12-.19-.14-.63-.77-1.09-.83-.57-1.79-.94-2.79-1.07-1-.15-2.02-.07-2.98.26-.73.27-1.05.62-1.05.82Z"/><path class="l" d="M320.36,157.85c.28.39,1.45,0,2.84,0s2.54.34,2.84,0c.12-.19-.05-.58-.55-.95-.67-.46-1.47-.7-2.28-.7s-1.61.24-2.28.7c-.52.37-.7.76-.58.95Z"/><path class="p" d="M335.33,170.56c0,.12.05.23.14.31.08.08.2.12.31.12.12,0,.23-.05.31-.14.08-.08.13-.2.13-.32s-.05-.23-.13-.31c-.08-.08-.2-.13-.31-.13s-.23.05-.32.13c-.08.08-.13.2-.13.31v.03Z"/><path class="p" d="M322.76,168.8c0,.06,0,.13.01.19.02.06.05.12.09.17.04.05.09.09.15.11.06.03.12.04.19.04s.13-.01.18-.04c.06-.03.11-.07.15-.11.04-.05.07-.11.09-.17.02-.06.02-.13.01-.19,0-.12-.05-.23-.14-.31-.08-.08-.2-.13-.32-.13-.11,0-.22.05-.3.13-.08.08-.13.19-.13.3Z"/><path class="p" d="M320.35,170.05c0,.12.06.23.14.31.08.08.2.12.31.12.12,0,.23-.05.32-.13.08-.08.13-.2.13-.32s-.05-.23-.13-.32c-.08-.08-.2-.13-.32-.13-.06,0-.12.01-.18.04-.06.02-.11.06-.15.1-.04.04-.08.09-.1.15-.02.06-.03.12-.03.18Z"/><path class="p" d="M319.54,168.22c0,.09.03.17.08.25.05.07.12.13.2.16.08.03.17.04.26.02.09-.02.16-.06.22-.13.06-.06.1-.15.11-.23.01-.09,0-.18-.03-.26-.04-.08-.1-.15-.17-.19-.07-.05-.16-.07-.25-.07-.12,0-.23.06-.31.14-.08.09-.12.2-.12.32Z"/><path class="p" d="M337.43,172.45c0,.06.01.12.04.17.02.05.06.1.1.14.04.04.09.07.15.09.05.02.11.03.17.03.09,0,.17-.03.25-.08.07-.05.13-.12.16-.2.03-.08.04-.17.02-.26-.02-.09-.07-.16-.13-.22-.06-.06-.15-.1-.23-.11-.09-.01-.18,0-.26.03-.08.04-.15.1-.19.17-.05.08-.07.16-.06.25Z"/><path class="p" d="M339.02,170.62c0,.09.03.17.09.24.05.07.12.13.21.16.08.03.17.03.26.01s.16-.07.22-.13c.06-.06.1-.15.11-.23.01-.09,0-.18-.04-.26-.04-.08-.1-.15-.17-.19-.07-.05-.16-.07-.25-.06-.12,0-.23.06-.31.15-.08.09-.12.2-.12.32Z"/><path class="r" d="M331.72,142.94c3.24-2.29,7.06-3.61,11.02-3.81,3.96-.2,7.89.72,11.34,2.67,6.87,4.05,10.62,9.89,10.98,19.52v12.27c-.36,5.59.83,8.83-1.9,9.78-3.79,1.29-6.63,11.49-9.88,10.78-3.99-3.1-4.06-4.91-4.2-11.25-.15-6.81-2.2-14.92.47-19.31-8.81-2.63-15.85-11.06-17.19-20.64"/><path class="q" d="M319.34,132.03c0,.07,1.04.07,2.66.44.44.1.88.22,1.31.38.5.16.98.34,1.46.55,1.09.5,2.12,1.1,3.08,1.8.95.72,1.83,1.53,2.62,2.43.34.43.69.82.95,1.23.26.37.51.75.73,1.15.83,1.44,1.14,2.45,1.19,2.42-.05-.24-.12-.47-.21-.69-.08-.28-.19-.55-.31-.81-.15-.35-.32-.69-.5-1.01-.21-.41-.45-.8-.71-1.18-.27-.42-.61-.82-.95-1.27-1.56-1.86-3.54-3.33-5.78-4.28-.49-.21-.98-.39-1.49-.55-.44-.14-.89-.25-1.34-.34-.37-.08-.75-.14-1.13-.18-.28-.04-.57-.06-.85-.07-.24-.02-.49-.02-.73,0Z"/><path class="q" d="M312.3,178.28l-.09-.09-.26-.29c-.34-.36-.65-.74-.95-1.13-.5-.6-.89-1.29-1.15-2.04-.14-.46-.19-.95-.15-1.43.06-.54.23-1.06.49-1.53.69-1.06,1.45-2.07,2.28-3.02,1.86-2.49,3.01-5.44,3.31-8.53.13-1.73.13-3.47,0-5.19-.14-1.71-.04-3.43.29-5.12.37-1.47,1.06-2.85,2.02-4.03.96-1.18,2.17-2.13,3.53-2.8,1.13-.54,2.36-.87,3.61-.95,1.83-.14,3.66.19,5.33.95.45.22.88.46,1.3.73l.32.21c.08,0,.11.08.11.07-.51-.44-1.08-.81-1.69-1.1-1.67-.82-3.52-1.2-5.38-1.08-1.29.07-2.55.39-3.71.95-1.4.68-2.63,1.65-3.61,2.86-.98,1.2-1.69,2.61-2.08,4.11-.36,1.71-.46,3.46-.31,5.19.13,1.72.15,3.44.05,5.16-.3,3.05-1.41,5.96-3.22,8.43-.83.96-1.59,1.99-2.27,3.06-.28.5-.45,1.05-.5,1.61-.04.5.03,1.01.19,1.49.27.76.68,1.45,1.2,2.06.42.5.78.86,1.01,1.1l.28.27.02.09Z"/><path class="l" d="M320.38,165.28c.18.21,1.37-.64,3.03-.6,1.66.04,2.84.89,3.05.69.21-.2-.09-.45-.62-.85-.71-.52-1.56-.8-2.44-.81-.87-.02-1.72.23-2.43.73-.52.38-.7.74-.61.83Z"/><path class="l" d="M337.37,165.55c.19.2,1.37-.64,3.04-.61,1.67.04,2.84.9,3.05.7.21-.2-.09-.46-.63-.86-.71-.51-1.56-.79-2.44-.8-.87-.03-1.72.23-2.43.73-.52.38-.7.74-.61.83Z"/><path class="l" d="M331.09,175.59c-.87-.29-1.78-.47-2.69-.54-.43-.05-.82-.14-.89-.44-.03-.44.08-.88.31-1.25.42-1.02.85-2.09,1.32-3.21,1.84-4.57,3.18-8.33,2.99-8.41-.19-.08-1.82,3.57-3.66,8.15-.44,1.13-.86,2.2-1.27,3.23-.28.51-.37,1.09-.25,1.66.06.15.15.29.27.4.12.11.26.19.42.24.23.06.48.1.72.11.91.14,1.83.15,2.74.06Z"/><path class="f" d="M331.71,179.62c.33-.39.74-.7,1.22-.88.47-.18.99-.25,1.49-.18.37.04.73.15,1.06.33.33.18.61.43.84.72.22.28.34.62.36.98.02.35-.07.71-.26,1.01-.27.3-.63.5-1.02.59-.39.09-.8.06-1.17-.08-.78-.29-1.5-.73-2.1-1.31-.18-.14-.34-.31-.46-.5-.06-.09-.1-.2-.1-.31s.03-.22.1-.31"/><path class="l" d="M335.96,176.84c-.27,0-.3,1.78-1.9,3.03-1.59,1.25-3.49,1.01-3.51,1.27,0,.11.42.36,1.23.4,1.06.04,2.09-.3,2.93-.95.8-.63,1.32-1.54,1.46-2.55.1-.71-.1-1.21-.22-1.2Z"/><path class="q" d="M364.45,157.95c-.45.15-.91.25-1.38.29-1.28.19-2.57.27-3.87.27-4.29-.01-8.52-1.01-12.37-2.9-3.85-1.9-7.22-4.64-9.84-8.04-.79-1.02-1.51-2.1-2.14-3.22-.24-.4-.45-.83-.62-1.27.29.37.56.76.79,1.18.69,1.08,1.44,2.11,2.25,3.1,2.66,3.28,6,5.94,9.79,7.81,3.79,1.87,7.94,2.89,12.16,3,1.27.04,2.53,0,3.79-.1.48-.07.96-.11,1.45-.1Z"/><path class="q" d="M361.13,184.91s.53-.63,1.36-1.9c1.14-1.76,1.91-3.73,2.26-5.79.46-3.08-.14-6.22-1.72-8.9-.91-1.57-2.11-2.97-3.54-4.1-1.56-1.19-3.3-2.1-5.17-2.71-1.9-.69-3.79-1.21-5.64-1.9-1.75-.64-3.42-1.49-4.98-2.52-2.62-1.77-4.87-4.02-6.63-6.63-1.21-1.76-2.16-3.67-2.84-5.69-.19-.54-.35-1.1-.47-1.66-.05-.2-.09-.4-.11-.6.06,0,.24.8.77,2.19,1.83,4.91,5.18,9.1,9.54,11.99,1.53,1,3.18,1.82,4.9,2.45,1.78.66,3.71,1.18,5.64,1.9,1.91.64,3.7,1.6,5.3,2.84,1.46,1.18,2.69,2.63,3.62,4.27,1.61,2.77,2.2,6.02,1.67,9.17-.38,2.1-1.22,4.09-2.44,5.84-.33.47-.69.92-1.08,1.35-.13.15-.27.29-.43.41Z"/><path class="r" d="M328.26,194.3s-.22.11-.63.2c-.6.11-1.22.15-1.83.13-2.03-.13-3.99-.79-5.69-1.9-1.72-1.09-3.1-2.65-3.97-4.49-.26-.55-.46-1.12-.61-1.72-.07-.22-.1-.45-.09-.67.09,0,.3.95,1,2.24.92,1.72,2.27,3.18,3.92,4.23,1.65,1.04,3.52,1.69,5.47,1.9,1.47.18,2.41,0,2.42.09Z"/><path class="p" d="M340.04,244.87c-2.5-3.79-4.13-19.25-7.38-18.38-4.15,1.1,1.68,17.56,2.09,19.07.41,1.51-1.77,2.09-2.07.71-.42-1.98-5.06-21.32-9.11-19.84-2.25.82-.81,4.92-.81,4.92,0,0,6.58,18.81,4.64,19.44-1.93.63-5.69-10.34-6.97-14.22-1.2-3.73-3.2-4.79-4.59-3.04s2.09,12.99,3.23,16.78,4.45,14-1.31,10.17c-5.76-3.83-11.61-4.66-13.33-3.79-1.72.87-1.08,3.55,1.03,3.91,2.25.61,4.42,1.53,6.43,2.72,1.59.98,3.07,2.13,4.41,3.44,1.76,1.62,3.25,3.52,4.39,5.63.93,1.65,2.19,3.09,3.72,4.22,1.52,1.13,3.27,1.92,5.12,2.33l1.73,7.08,19.71-7.34-3.28-13.38c-2.6-10.22-2.7-17.53-3.3-23.87-.95-10.1-2.28-10.06-3.42-9.69-2.51.76,1.51,16.8-.94,13.13Z"/><path class="p" d="M343.64,257.9c-.9.42-1.76.91-2.59,1.45-1.94,1.41-3.36,3.4-4.08,5.69-.21.69-.35,1.4-.42,2.11v.34l-.3-.14c-1.72-.78-3.56-1.27-5.44-1.45-1.41-.14-2.26-.09-2.27-.16.75-.18,1.53-.23,2.29-.15,1.94.09,3.85.54,5.62,1.33l-.34.2c.06-.75.2-1.5.43-2.23.4-1.29,1.05-2.5,1.9-3.56.69-.86,1.52-1.61,2.45-2.22.63-.39,1.29-.71,1.99-.95.24-.13.5-.22.77-.26Z"/><path class="p" d="M344.75,272.88c-2.75,2.26-6.11,3.64-9.65,3.97,0-.14,2.27-.63,4.94-1.74,2.66-1.12,4.63-2.35,4.71-2.23Z"/><path class="j" d="M350.49,371.75c-4.34-.42-8.45-2.15-11.78-4.97l-31.8-26.88.28,30.98,6.3.45-1.77,23.04h-98.45v-.55c-6.06-5.16-9.78-12.93-11.1-21.41-2.4-15.34-3.29-40.33-5.43-58-1.5-12.43,1.24-28.54,12.32-34.42l8.53-3.36,26.9-10.6,34.56,1.59,23.07,6.47c6.4,2.43,11.91,10.09,15.85,15.74l19.23,26.76c-.21-4.37-8.17-30.74-8.69-31.92l23.51-9.73s24.26,53.89,20.99,77.18c-2.72,19.4-22.52,19.61-22.52,19.61Z"/><path class="i" d="M304.62,328.53c0-.14,2.15.14,5.52-.35,4.3-.6,8.36-2.33,11.77-5.01,3.18-2.57,5.49-6.06,6.63-9.98.37-1.59.65-3.21.82-4.83.13.43.18.88.14,1.33,0,1.22-.14,2.44-.43,3.62-1.01,4.09-3.34,7.74-6.63,10.38-3.52,2.78-7.76,4.52-12.22,4.99-1.37.16-2.75.18-4.12.09-.5,0-1-.09-1.49-.23Z"/><path class="q" d="M307.16,371.34c.24,0,.5-13.05.61-29.14.1-16.08,0-29.15-.23-29.15-.23,0-.49,13.04-.61,29.14-.11,16.09,0,29.15.23,29.15Z"/><path class="q" d="M224.36,380.94c.15-1.11.51-2.18,1.07-3.16,1.21-2.42,2.9-4.57,4.96-6.32,2.06-1.76,4.44-3.08,7.02-3.9,1.05-.4,2.16-.6,3.28-.57,0,.12-1.21.37-3.09,1.09-4.92,1.88-9.05,5.4-11.68,9.97-1,1.74-1.44,2.93-1.56,2.89Z"/><path class="i" d="M235.97,337.88c.13.04.26.09.38.16l1.05.56c1.37.68,2.77,1.28,4.22,1.78,5.31,1.86,11.01,2.35,16.56,1.42,8.25-1.48,15.61-6.07,20.58-12.81,2.97-3.9,4.83-8.52,5.38-13.38.28-2.56,0-5.14-.79-7.58-.83-2.5-2.3-4.74-4.26-6.5-1.91-1.81-4.33-2.99-6.94-3.37-1.23-.22-2.5-.16-3.7.18-1.2.34-2.31.95-3.25,1.78-.42.41-.76.9-.99,1.44-.23.54-.36,1.12-.36,1.71.02,1.17.42,2.31,1.14,3.24,1.51,1.8,3.67,2.93,6.01,3.14,4.39.57,8.86-.07,12.91-1.85,3.24-1.37,6.14-3.44,8.49-6.06,2.35-2.62,4.1-5.73,5.11-9.1.71-2.3,1.09-4.7,1.13-7.11.02-1.53-.09-3.05-.33-4.56-.09-.47-.16-.86-.22-1.17-.04-.13-.05-.27-.05-.41.65,1.98.97,4.05.95,6.13.02,2.45-.32,4.88-1,7.23-.9,3.13-2.4,6.05-4.44,8.59-2.7,3.29-6.19,5.85-10.14,7.43-3.95,1.58-8.24,2.14-12.47,1.63-2.54-.23-4.88-1.45-6.51-3.4-.82-1.06-1.27-2.36-1.3-3.7,0-1.38.56-2.7,1.54-3.68,1.02-.91,2.23-1.59,3.54-1.96,1.31-.38,2.7-.45,4.04-.22,2.76.41,5.33,1.65,7.36,3.56,2.05,1.86,3.6,4.22,4.47,6.84.82,2.55,1.1,5.24.81,7.9-.58,5-2.5,9.75-5.57,13.73-4.21,5.75-10.19,9.95-17.02,11.98-6.83,2.03-14.13,1.76-20.8-.75-1.96-.7-3.82-1.64-5.54-2.81Z"/><path class="i" d="M197.28,322.77c.26-.45.57-.85.95-1.2.97-1.03,2.03-1.96,3.18-2.78,3.87-2.67,8.38-4.27,13.07-4.63,2.57-.29,5.16-.18,7.7.32,2.06.43,4.06,1.13,5.93,2.09,1.26.64,2.47,1.37,3.61,2.2.44.28.84.61,1.18,1-.09.13-1.9-1.2-5.03-2.68-4.14-1.92-8.73-2.66-13.27-2.13-4.56.37-8.97,1.85-12.83,4.3-2.94,1.95-4.4,3.64-4.49,3.53Z"/><path class="i" d="M206.73,282.28c1.43,1.35,3.02,2.52,4.74,3.48,1.9.96,3.96,1.57,6.08,1.78,2.59.31,5.21-.05,7.62-1.05,2.41-1,4.52-2.59,6.14-4.64,1.35-1.65,2.38-3.53,3.04-5.55.55-1.9.87-3.86.95-5.84.16.52.22,1.06.2,1.6.03,1.49-.16,2.97-.59,4.4-.61,2.13-1.63,4.12-3.01,5.86-1.67,2.16-3.88,3.85-6.4,4.89-2.53,1.04-5.28,1.39-7.99,1.03-2.2-.25-4.33-.93-6.26-2.01-1.31-.71-2.49-1.62-3.53-2.69-.4-.36-.73-.78-.99-1.25Z"/><path class="i" d="M257.01,364.36c0-.38.05-.75.12-1.12.21-1.06.56-2.09,1.04-3.06,1.19-2.54,4.16-5.73,8.84-7.68,4.68-1.94,10.97-2.47,17.36-.62,3.13.95,6.71,2.08,9.05,5.12.6.78.98,1.71,1.09,2.69.12.98-.03,1.97-.43,2.87-.91,1.76-2.4,3.16-4.21,3.97-1.74.87-3.65,1.34-5.59,1.39-1.93.1-3.83-.5-5.36-1.67-.71-.61-1.29-1.35-1.71-2.19-.41-.84-.65-1.75-.7-2.68-.1-1.74.17-3.48.81-5.11,2.29-5.54,6.66-9.96,12.17-12.32,3.65-1.62,7.64-2.31,11.62-1.99,1.45.11,2.88.41,4.25.89,0,.1-1.51-.4-4.27-.59-3.91-.19-7.81.56-11.37,2.2-2.45,1.11-4.69,2.64-6.63,4.5-2.22,2.13-3.96,4.72-5.09,7.58-.58,1.53-.84,3.17-.74,4.81.04.83.26,1.64.63,2.39.37.74.88,1.41,1.52,1.95,1.4,1.05,3.12,1.58,4.87,1.48,1.82-.05,3.61-.5,5.25-1.31,1.65-.74,3-2,3.85-3.59.33-.77.45-1.61.35-2.45-.1-.83-.42-1.62-.93-2.29-1.06-1.34-2.41-2.41-3.95-3.14-1.5-.72-3.07-1.3-4.67-1.73-6.27-1.9-12.42-1.52-16.95.44-3.69,1.33-6.8,3.92-8.79,7.3-.64,1.26-1.12,2.59-1.43,3.97Z"/><path class="i" d="M199.74,352.68c.22-.13.46-.22.71-.28.47-.16,1.19-.38,2.1-.61,2.62-.7,5.34-.98,8.05-.82,1.89.14,3.73.6,5.47,1.36,2.02.87,3.79,2.25,5.11,4.01,1.45,1.99,2.15,4.43,1.98,6.88-.09,1.3-.48,2.56-1.14,3.69-.69,1.2-1.79,2.12-3.09,2.59-.68.23-1.4.28-2.1.14-.7-.14-1.35-.46-1.89-.93-.94-1-1.46-2.32-1.45-3.7-.08-2.42.39-4.82,1.38-7.02.82-1.87,2.01-3.55,3.49-4.95,1.48-1.4,3.22-2.5,5.13-3.22,2.56-.97,5.33-1.24,8.04-.8.73.12,1.44.3,2.13.54.25.07.49.18.71.31,0,.08-1.01-.32-2.84-.55-2.64-.32-5.31.03-7.78,1.01-3.66,1.47-6.59,4.32-8.15,7.94-.93,2.1-1.37,4.39-1.29,6.69-.03,1.16.38,2.29,1.15,3.16.44.37.96.62,1.53.73.56.11,1.14.06,1.69-.12,1.12-.42,2.06-1.22,2.66-2.26.61-1.02.98-2.16,1.07-3.35.16-2.28-.48-4.54-1.81-6.4-1.23-1.65-2.86-2.95-4.74-3.79-1.66-.75-3.44-1.22-5.25-1.39-2.65-.2-5.32-.01-7.92.56-1.9.38-2.92.65-2.94.58Z"/><path class="q" d="M346.19,357.23c-.15-.1-.28-.21-.4-.34-.36-.34-.71-.7-1.04-1.07-1.21-1.38-2.26-2.91-3.1-4.54-1.25-2.42-2.18-5-2.76-7.67-.69-3.25-1.09-6.56-1.18-9.89-.14-3.54,0-6.92-.11-9.95-.14-2.7-.43-5.39-.88-8.06-.36-2.28-.73-4.11-.95-5.38-.12-.59-.22-1.07-.29-1.46-.05-.17-.07-.34-.08-.51.08.15.14.32.17.49.09.32.23.81.38,1.44.32,1.25.74,3.08,1.15,5.35.49,2.67.81,5.38.95,8.09.11,3.07,0,6.43.15,9.95.08,3.3.45,6.59,1.12,9.83.56,2.63,1.44,5.17,2.63,7.58.81,1.63,1.79,3.16,2.93,4.58.83,1,1.33,1.51,1.33,1.54Z"/><path class="i" d="M341.45,351.47c-4.14,2.14-7.82,5.07-10.83,8.62.29-.63.68-1.21,1.15-1.72,1.05-1.29,2.24-2.47,3.54-3.51,1.3-1.04,2.72-1.93,4.22-2.66.6-.34,1.25-.59,1.92-.73Z"/><path class="i" d="M369.28,322.78c-.41.21-.85.38-1.29.52-.83.28-2.06.69-3.54,1.26-3.86,1.45-7.55,3.32-10.99,5.57-4.04,2.64-7.16,5.74-9.61,7.79-.94.86-2.04,1.52-3.24,1.94-.33.11-.68.16-1.02.17h-.36c.45-.09.89-.19,1.33-.32,1.14-.49,2.19-1.18,3.08-2.04,2.36-2.08,5.47-5.25,9.56-7.92,3.47-2.3,7.21-4.15,11.14-5.51,1.5-.53,2.74-.89,3.59-1.12.44-.16.89-.28,1.35-.35Z"/><path class="i" d="M359.67,293.68c-.33.11-.67.17-1.01.19l-2.78.42c-2.34.36-5.56.95-9.1,1.69-3.54.74-6.7,1.58-8.95,2.32-2.25.74-3.56,1.37-3.6,1.31.27-.22.57-.4.89-.54.85-.41,1.71-.78,2.6-1.1,2.93-1.02,5.92-1.85,8.96-2.47,3.54-.76,6.8-1.28,9.16-1.55,1.18-.13,2.14-.22,2.84-.26.33-.04.67-.04,1,0Z"/><path class="l" d="M294.73,174.91c-5.99-1.62-11.99,3.9-18.12,2.92-3.72-.61-6.63-3.46-9.96-5.18-5.01-2.59-11.98-2.84-16.92-.08-4.94,2.77-8.08,5.55-8.53,11.17-4.66-2.47-12.09,3.54-14.5,9.18-2.41,5.64-1.56,11.37.1,17.26,2.9,10.19,7.78,19.71,14.35,28.03.58.73,1.5,1.54,2.32,1.11.26-.19.47-.44.62-.73s.21-.61.21-.93c.69-5.48-.19-11-.84-16.48-.65-5.48-1.08-11.13.47-16.42,1.55-5.29,5.5-10.21,10.86-11.46,3.97-.95,8.16.24,11.78,2.11,3.62,1.88,6.82,4.43,10.28,6.63,3.46,2.21,7.32,3.93,11.37,3.97,4.06.04,8.37-2.02,9.98-5.76,1.61-3.74-.51-8.92-4.52-9.62,1.84-.23,3.54-1.1,4.81-2.45,1.27-1.35,2.04-3.1,2.16-4.95.13-1.85-.39-3.69-1.47-5.2-1.08-1.51-2.64-2.6-4.43-3.08l-.03-.05Z"/><path class="p" d="M235.37,211.57l7.98,61.33c.32,2.47,1.14,4.85,2.41,6.99,1.27,2.14,2.96,4.01,4.97,5.48s4.3,2.52,6.73,3.08c2.43.56,4.94.62,7.4.18,4.65-.84,8.8-3.44,11.59-7.26,2.79-3.82,4-8.56,3.39-13.25-.61-4.62-1.11-8.46-1.14-8.95,0,0,15.42-3.5,14.54-19.1-.43-7.54-2.57-22.99-4.67-36.97-1.1-7.22-4.88-13.76-10.58-18.33-5.7-4.57-12.91-6.82-20.2-6.31l-1.51.1c-16.16,2.04-23.42,16.91-20.91,32.99Z"/><path class="m" d="M278.7,258.95c-7.17.62-14.36-.9-20.66-4.37,0,0,5.57,10.88,21.03,8.41l-.37-4.04Z"/><path class="l" d="M282.74,214.3c.05.58-.13,1.15-.51,1.6-.37.45-.91.73-1.48.79-.28.04-.57.02-.85-.05-.28-.07-.54-.2-.76-.38-.23-.18-.41-.4-.55-.65-.14-.25-.23-.53-.25-.82-.04-.58.14-1.15.51-1.6s.9-.73,1.48-.79c.29-.04.58-.03.85.05.28.07.54.2.77.38.23.18.42.4.55.65.14.25.22.53.25.82Z"/><path class="l" d="M285.74,211.01c-.26.3-2.03-.82-4.43-.65-2.4.17-4.07,1.49-4.35,1.21-.13-.11.11-.66.83-1.27.99-.79,2.2-1.26,3.46-1.34,1.25-.09,2.49.22,3.54.88.78.52,1.06,1.02.94,1.17Z"/><path class="l" d="M259.7,215.88c.05.58-.14,1.15-.51,1.6-.37.45-.9.73-1.48.79-.28.04-.57.03-.84-.04-.28-.07-.54-.2-.76-.37-.23-.17-.42-.39-.56-.63-.14-.25-.23-.52-.27-.8-.04-.58.14-1.15.51-1.6.37-.45.9-.73,1.48-.79.28-.04.57-.03.84.04.28.07.53.2.76.37.23.17.42.39.56.63.14.25.23.52.27.8Z"/><path class="l" d="M262.23,213.07c-.26.31-2.03-.82-4.43-.64-2.4.17-4.07,1.49-4.34,1.21-.14-.12.1-.66.83-1.27.98-.79,2.19-1.26,3.45-1.34,1.25-.09,2.49.22,3.54.88.78.48,1.06,1.02.94,1.16Z"/><path class="l" d="M272.14,230.24c0-.13,1.45-.49,3.85-.95.61-.1,1.18-.27,1.25-.69,0-.64-.18-1.26-.53-1.79-.68-1.43-1.39-2.95-2.13-4.53-2.98-6.45-5.17-11.78-4.91-11.89.26-.11,2.84,5.01,5.86,11.48.71,1.59,1.4,3.11,2.06,4.56.43.71.6,1.55.48,2.38-.08.22-.2.42-.37.58s-.36.29-.58.37c-.33.11-.68.19-1.03.22-2.42.29-3.92.45-3.94.27Z"/><path class="l" d="M265.21,232.38c.39-.05.57,2.55,2.92,4.25,2.35,1.7,5.1,1.21,5.15,1.57,0,.16-.58.55-1.74.66-1.52.13-3.04-.29-4.28-1.17-1.2-.85-2.02-2.13-2.29-3.56-.17-1.08.08-1.74.26-1.74Z"/><path class="l" d="M262.2,203.65c-.19.66-2.61.52-5.39,1.05-2.79.53-5,1.46-5.42.95-.18-.27.17-.95,1.04-1.6,1.17-.86,2.52-1.44,3.95-1.7,1.43-.26,2.9-.18,4.29.21,1.06.29,1.61.77,1.54,1.09Z"/><path class="l" d="M284.38,204.14c-.38.57-2.07.12-4.06.23-1.99.1-3.64.63-4.07.08-.19-.26,0-.82.74-1.39.94-.68,2.07-1.07,3.23-1.12,1.16-.04,2.32.26,3.31.87.75.51,1.04,1.07.84,1.34Z"/><path class="p" d="M237.43,223.03c-.27-.1-10.93-2.44-9.85,8.2,1.08,10.63,11.5,7.36,11.5,7.05s-1.65-15.25-1.65-15.25Z"/><path class="m" d="M235.44,234.58s-.17.14-.47.32c-.42.23-.92.29-1.38.17-1.16-.3-2.28-1.99-2.53-3.9-.12-.91-.03-1.84.25-2.71.07-.34.22-.66.43-.94.22-.27.5-.49.82-.63.21-.08.44-.08.65,0,.21.07.39.22.5.41.17.28.12.5.18.52.06.02.21-.21.09-.63-.09-.26-.26-.48-.49-.63-.15-.09-.33-.16-.51-.18-.18-.03-.36-.02-.54.02-.43.13-.82.37-1.13.69-.31.32-.53.72-.65,1.15-.36.97-.48,2.01-.34,3.03.28,2.13,1.58,4.03,3.17,4.31.29.05.6.04.89-.04.29-.08.56-.22.78-.42.3-.29.33-.54.29-.55Z"/><path class="l" d="M291.64,199.66c-3.39,1.13-7,1.43-10.53.89-3.53-.54-6.88-1.92-9.78-4.01-4.01-2.95-7.26-7.36-12.1-8.53-1.65-.32-3.35-.31-5,.03-1.65.34-3.21,1.01-4.6,1.96-2.76,1.92-5.1,4.39-6.87,7.25,3.55,7.71,2.14,16.69.66,25.06-.07.94-.44,1.83-1.07,2.54-1.19,1.06-3.14.44-4.31-.64-1.9-1.72-2.75-4.27-3.37-6.75-1.51-5.63-1.88-11.51-1.09-17.29.81-5.8,3.3-11.23,7.17-15.63,5.04-5.34,11.97-8.52,19.31-8.86,7.32-.28,14.54,1.75,20.63,5.81,2.91,1.74,5.33,4.18,7.06,7.09"/><path class="q" d="M299.47,178.35c.07.31.07.64,0,.95-.19.89-.67,1.7-1.35,2.3-1.09.93-2.45,1.49-3.89,1.6-.88.11-1.77.11-2.65,0-1.03-.09-2.01-.46-2.84-1.07-.46-.34-.84-.78-1.1-1.28-.27-.51-.41-1.07-.43-1.64.04-.62.26-1.22.63-1.72.37-.5.87-.89,1.45-1.12.59-.27,1.24-.4,1.9-.38.69.04,1.35.28,1.9.7.56.43,1.02.97,1.35,1.6.33.62.51,1.31.55,2.02.07,1.47-.44,2.92-1.41,4.03-1,1.13-2.28,1.98-3.71,2.45-3.01.91-6.24.78-9.17-.36-2.89-1.08-5.64-2.49-8.21-4.2-2.37-1.56-4.86-2.93-7.46-4.08-2.35-1.02-4.9-1.45-7.45-1.27-2.21.22-4.35.93-6.26,2.08-2.77,1.69-5.06,4.07-6.63,6.91-.44.76-.85,1.55-1.2,2.36-.11.29-.24.56-.39.83,0-.08.03-.16.06-.23.06-.14.12-.37.24-.64.32-.83.69-1.64,1.12-2.42,1.53-2.93,3.83-5.39,6.63-7.14,1.92-1.21,4.09-1.98,6.35-2.25,2.62-.21,5.25.22,7.67,1.26,2.64,1.14,5.18,2.5,7.58,4.08,2.52,1.68,5.23,3.07,8.07,4.14,2.82,1.11,5.93,1.24,8.83.37,1.34-.43,2.55-1.22,3.49-2.27.45-.5.8-1.07,1.02-1.7.22-.63.32-1.3.29-1.96-.02-.63-.18-1.25-.46-1.81-.28-.56-.68-1.06-1.17-1.46-.47-.35-1.04-.56-1.62-.61-.59-.05-1.18.06-1.7.32-.52.19-.97.52-1.31.96-.34.44-.54.97-.58,1.52.01.51.14,1.01.38,1.46.24.45.57.85.98,1.15.76.57,1.67.93,2.62,1.03.86.1,1.72.1,2.58,0,1.39-.08,2.71-.59,3.79-1.46.66-.57,1.14-1.33,1.37-2.17.08-.29.14-.59.18-.89Z"/><path class="q" d="M225.38,202.23c1.08.31,2.19.52,3.32.63,1.21.02,2.42-.19,3.55-.63,1.39-.54,2.69-1.28,3.86-2.2,2.12-1.69,3.63-4.01,4.31-6.63.23-1.1.39-2.22.47-3.35.1.31.14.63.12.95.02.84-.06,1.69-.24,2.51-.59,2.77-2.13,5.24-4.34,7-1.22.95-2.58,1.71-4.03,2.25-1.19.44-2.46.62-3.72.53-.85-.06-1.68-.26-2.47-.57-.3-.12-.58-.28-.82-.49Z"/><path class="q" d="M226.37,209.91c0-.09,1.27.1,3.28-.15,2.61-.31,5.09-1.32,7.17-2.92,2.09-1.6,3.71-3.72,4.69-6.16.77-1.9.95-3.14,1.01-3.12.05.29.05.6,0,.89-.13.8-.33,1.59-.61,2.36-.92,2.56-2.56,4.8-4.72,6.45-2.16,1.65-4.75,2.65-7.46,2.86-.81.08-1.63.08-2.44,0-.32-.01-.64-.09-.93-.22Z"/><path class="p" d="M254.98,223.77c-.05.02-.12.03-.17.02-.06-.01-.11-.04-.15-.09s-.07-.1-.08-.16c0-.06,0-.12.03-.17.03-.05.07-.1.12-.13.05-.03.11-.04.17-.04.06,0,.12.03.16.07.05.04.08.09.1.15.01.03.02.07.01.11,0,.04-.01.07-.03.1-.02.03-.04.06-.06.09-.03.02-.06.04-.09.05Z"/><path class="p" d="M259.48,222.46c-.06.03-.13.05-.2.04-.07,0-.14-.04-.19-.08-.05-.05-.09-.11-.11-.18-.02-.07,0-.14.02-.21.03-.07.07-.12.13-.16.06-.04.13-.06.2-.05.07,0,.14.03.19.08.06.04.1.11.11.17.01.04.02.07.02.11,0,.04,0,.08-.02.11-.01.04-.04.07-.06.1-.03.03-.06.05-.1.06Z"/><path class="p" d="M262.55,222.16c-.14,0-.29-.13-.34-.37-.05-.24,0-.45.18-.47s.29.13.34.37c.05.24-.04.45-.18.47Z"/><path class="p" d="M257.42,226.52c-.15,0-.27-.06-.27-.15s.1-.17.25-.18c.14,0,.27.06.27.15s-.1.17-.25.18Z"/><path class="p" d="M261.55,225.26c-.06.02-.12.01-.18,0-.06-.02-.11-.06-.15-.11-.04-.05-.06-.11-.06-.17,0-.06.01-.12.05-.17.03-.05.08-.09.14-.12.06-.02.12-.03.18-.02.06.01.12.04.16.09.04.04.07.1.08.16,0,.04.01.08,0,.11,0,.04-.02.07-.04.11-.02.03-.05.06-.08.08-.03.02-.07.03-.11.04Z"/><path class="p" d="M283.21,221.15c-.06.02-.12.03-.18.02-.06-.01-.12-.04-.16-.09-.04-.04-.07-.1-.08-.16,0-.06,0-.12.02-.18.03-.06.07-.1.12-.13.05-.03.12-.04.18-.04.06,0,.12.03.17.07.05.04.08.09.1.15.01.03.02.07.02.11,0,.04-.01.07-.03.11-.02.03-.04.06-.07.09-.03.02-.06.04-.1.06Z"/><path class="p" d="M286.31,220.65c-.14,0-.28-.1-.32-.28-.02-.08-.01-.16.03-.23.04-.07.1-.12.18-.14.14,0,.28.1.31.28.01.04.02.08.01.12,0,.04-.01.08-.03.11-.02.03-.04.06-.07.09-.03.02-.07.04-.1.05Z"/><path class="p" d="M280.46,221.41s-.07.03-.1.03-.07,0-.1-.02c-.03-.01-.06-.03-.09-.06-.02-.03-.04-.06-.05-.09,0-.03-.01-.07,0-.11,0-.03.02-.07.04-.1.02-.03.05-.05.08-.07.03-.02.07-.03.1-.03.03-.02.07-.03.1-.03.04,0,.07,0,.1.02.03.01.06.04.09.06.02.03.04.06.05.09,0,.03.01.07,0,.11,0,.03-.02.07-.04.1-.02.03-.05.05-.08.07-.03.02-.07.03-.1.03Z"/><path class="p" d="M282.99,224.37s-.07.02-.11.03c-.04,0-.07,0-.11-.02-.03-.01-.07-.03-.09-.06-.03-.03-.05-.06-.06-.09-.02-.03-.04-.07-.04-.1,0-.04,0-.08,0-.11,0-.04.02-.07.05-.1.02-.03.05-.06.09-.07.03-.02.07-.03.11-.03.04,0,.08,0,.11.02.04.01.07.03.09.06.03.03.05.06.06.1.04.06.05.14.03.21-.02.07-.06.14-.13.17Z"/><path class="p" d="M285.62,223.66s-.06-.01-.09-.03c-.03-.02-.05-.04-.07-.06-.02-.03-.03-.06-.04-.09,0-.03-.01-.06,0-.1,0-.05.02-.11.05-.15.03-.04.08-.07.13-.09.05-.02.11-.02.16,0,.05.02.1.05.13.09.03.04.05.09.06.15,0,.05,0,.11-.04.15-.03.05-.07.08-.12.11-.05.02-.1.03-.16.02Z"/><path class="p" d="M313.24,374.3l-1.81,20.09h9.48l8.38-.13c3.19.35,6.41.43,9.61.26.15,0,.31-.03.45-.1.5-.07.99-.19,1.46-.35.85-.31,1.73-.86,1.6-1.8-.42-2.84-2.12-3.11-2.12-3.11l-.86-.06-.07-.25c1.3,0,2.39,0,2.97-.1.28,0,.43-.07.45-.1.02-.04,3.36-.4,3.1-2.17-.41-2.84-2.12-3.11-2.12-3.11l-2.76-.18c1.34,0,2.47,0,3.07-.09.27,0,.43-.06.45-.09.02-.04,3.36-.41,3.1-2.18-.42-2.84-2.12-3.1-2.12-3.1l-2.28-.16c1.08,0,1.98,0,2.48-.08.27,0,.43-.07.45-.1s3.36-.4,3.1-2.17c-.41-2.84-2.12-3.11-2.12-3.11,0,0-5.28-.38-8.9-.52,0,0-4.11-3.72-5.69-3.54-2.42.26-16.49,5.46-16.49,5.46l-2.78.82Z"/><path class="p" d="M331.02,388.46c0,.17,2.11.37,4.69.45,2.58.09,4.66,0,4.64-.15s-2.11-.37-4.69-.45c-2.58-.09-4.64,0-4.64.15Z"/><path class="p" d="M330.96,382.78c0,.16,2.99.41,6.63.54,3.65.13,6.63.09,6.69-.07.06-.16-2.99-.42-6.63-.54-3.65-.12-6.63-.1-6.69.07Z"/><g class="s"><path class="p" d="M331.45,377c0,.17,2.98.42,6.63.54,3.66.12,6.69.1,6.69-.07s-2.98-.41-6.63-.54c-3.66-.13-6.69-.1-6.69.07Z"/></g><path class="p" d="M339.72,371.58c-.7.13-1.41.18-2.12.16l-5.13.17-5.13.18c-.71.09-1.42.09-2.13,0,.69-.19,1.4-.3,2.11-.32,1.31-.13,3.13-.27,5.13-.33,2-.07,3.79-.07,5.15,0,.71-.04,1.42,0,2.12.14Z"/><path class="q" d="M313.5,371.34h-.33l-.95-.05-3.7-.22-13.58-.83c-11.48-.7-27.34-1.7-44.85-2.59l-9.38-.43h-.23v-.23c-.14-3.79-.49-7.53-.77-11.09-.27-3.56-.6-6.99-.88-10.23-.57-6.48-1.08-12.26-1.52-17.11-.44-4.84-.76-8.68-.95-11.37-.11-1.31-.19-2.33-.26-3.06,0-.33,0-.6-.05-.8,0-.09,0-.18,0-.28.03.09.04.18.05.27,0,.21.06.46.1.8.08.73.19,1.75.33,3.06.27,2.69.66,6.56,1.15,11.37.48,4.81,1.01,10.62,1.63,17.06.28,3.24.59,6.63.95,10.23.36,3.59.64,7.26.8,11.13l-.24-.25,9.39.42c17.52.89,33.37,1.94,44.84,2.73l13.58.95,3.69.3.95.09.22.11Z"/><path class="i" d="M247.27,394.38c-.2-.32-.36-.66-.47-1.02-.18-.4-.32-.82-.44-1.24-.18-.56-.33-1.12-.45-1.7-.16-.69-.28-1.4-.35-2.1-.09-.81-.15-1.62-.16-2.44-.04-3.76.8-7.48,2.45-10.85.36-.73.76-1.44,1.19-2.13.38-.6.78-1.18,1.22-1.74.35-.49.73-.97,1.14-1.41.29-.34.61-.66.95-.95.26-.27.55-.51.86-.73.08.08-1.14,1.14-2.64,3.21-.41.56-.8,1.15-1.15,1.75-.41.64-.75,1.37-1.14,2.11-1.59,3.35-2.41,7.01-2.43,10.71,0,.8.04,1.6.11,2.4.05.7.15,1.39.28,2.08.47,2.5,1.11,3.98,1.01,4.06Z"/><path class="l" d="M372.14,394.46c0,.13-39.47.25-88.15.25s-88.15-.11-88.15-.25,39.46-.25,88.15-.25,88.15.1,88.15.25Z"/><path class="l" d="M351.17,84.44l-135.31-.12c-3.87,0-7.71.76-11.29,2.24-3.58,1.48-6.83,3.66-9.57,6.4-2.74,2.74-4.91,5.99-6.39,9.58-1.48,3.58-2.24,7.42-2.24,11.29l-.07,339.25c0,7.81,3.11,15.3,8.64,20.82,5.52,5.52,13.01,8.63,20.82,8.64l135.32.08c3.87,0,7.7-.76,11.28-2.24,3.58-1.48,6.83-3.65,9.57-6.38s4.91-5.98,6.39-9.56c1.48-3.58,2.25-7.41,2.25-11.28l.07-339.25c0-7.81-3.11-15.3-8.63-20.83-5.52-5.52-13.01-8.63-20.83-8.63ZM371.6,448.21c0,2.71-.54,5.39-1.58,7.9-1.04,2.5-2.56,4.78-4.48,6.69-1.92,1.91-4.2,3.43-6.7,4.46-2.51,1.03-5.19,1.56-7.9,1.56l-135.05-.08c-2.71,0-5.4-.54-7.9-1.57-2.5-1.04-4.78-2.56-6.7-4.48-1.92-1.92-3.44-4.2-4.47-6.7-1.04-2.51-1.57-5.19-1.57-7.9l.07-331.12c0-2.71.53-5.4,1.57-7.9,1.04-2.51,2.56-4.78,4.48-6.7,1.92-1.92,4.2-3.44,6.7-4.47,2.51-1.04,5.19-1.57,7.9-1.57h32.23c1.72.04,3.36.76,4.55,2,1.19,1.24,1.85,2.91,1.82,4.63v4.74c-.03,1.72.62,3.39,1.82,4.63,1.19,1.24,2.83,1.96,4.55,2h51.18c1.73-.03,3.37-.75,4.56-2,1.2-1.24,1.85-2.91,1.82-4.64v-4.74c-.03-1.72.62-3.39,1.81-4.63,1.19-1.24,2.83-1.96,4.56-2h26.24c2.71,0,5.39.55,7.9,1.6,2.5,1.05,4.77,2.58,6.68,4.5,1.91,1.93,3.42,4.21,4.45,6.72,1.03,2.51,1.55,5.2,1.54,7.91l-.07,331.16Z"/><path class="l" d="M322.84,394.46h-70.21v31.26h70.21v-31.26Z"/><path class="g" d="M371.61,394.46h-60.4c0,13.32-11.37,24.15-25.25,24.15s-25.24-10.83-25.24-24.15h-65.4v54.17c0,5.47,2.17,10.71,6.04,14.58,3.86,3.87,9.1,6.05,14.57,6.06l135.05.08c2.71,0,5.4-.53,7.9-1.57,2.51-1.04,4.78-2.56,6.7-4.47,1.92-1.92,3.44-4.19,4.48-6.7,1.04-2.51,1.57-5.19,1.57-7.9l-.02-54.24Z"/><path class="i" d="M277.27,426.65v5.34h-.39v-4.94h-1.3v-.35l1.69-.05Z"/><path class="i" d="M278.63,429.33c0-1.67.86-2.71,2.09-2.71s2.09,1.04,2.09,2.71-.86,2.7-2.09,2.7-2.09-1.03-2.09-2.7ZM282.42,429.33c0-1.49-.69-2.35-1.71-2.35s-1.7.86-1.7,2.35.69,2.34,1.7,2.34,1.71-.82,1.71-2.34Z"/><path class="i" d="M283.63,428.3s0-.09,0-.14c.01-.05.03-.09.06-.12.03-.04.07-.06.11-.08.04-.02.09-.03.14-.03s.09.01.14.03c.04.02.08.05.11.08.03.04.05.08.06.12.01.04.01.09,0,.14,0,.05,0,.09,0,.14-.01.05-.03.09-.06.12-.03.04-.07.06-.11.08-.04.02-.09.03-.14.03s-.09,0-.14-.03c-.04-.02-.08-.05-.11-.08-.03-.04-.05-.08-.06-.12-.01-.05-.01-.09,0-.14ZM283.63,431.7s0-.09,0-.14c.01-.05.03-.09.06-.12.03-.04.07-.06.11-.08.04-.02.09-.03.14-.03s.09,0,.14.03c.04.02.08.05.11.08.03.04.05.08.06.12.01.05.01.09,0,.14,0,.05,0,.09,0,.14-.01.05-.03.09-.06.12-.03.04-.07.06-.11.08-.04.02-.09.03-.14.03s-.09-.01-.14-.03c-.04-.02-.08-.05-.11-.08-.03-.04-.05-.08-.06-.12-.01-.04-.01-.09,0-.14Z"/><path class="i" d="M285.17,429.33c0-1.67.86-2.71,2.09-2.71s2.09,1.04,2.09,2.71-.86,2.7-2.09,2.7-2.09-1.03-2.09-2.7ZM288.96,429.33c0-1.49-.69-2.35-1.7-2.35s-1.71.86-1.71,2.35.7,2.34,1.71,2.34,1.7-.82,1.7-2.34Z"/><path class="i" d="M294.64,430.51h-1.13v1.48h-.41v-1.48h-3.04v-.28l2.9-3.57h.44l-2.84,3.52h2.55v-1.31h.37v1.31h1.13l.04.34Z"/><path class="k" d="M229.6,419.76h-12.07c-2.33,0-4.22,1.89-4.22,4.22v12.08c0,2.33,1.89,4.22,4.22,4.22h12.07c2.33,0,4.22-1.89,4.22-4.22v-12.08c0-2.33-1.89-4.22-4.22-4.22Z"/><path class="i" d="M351.52,438.87h-11.37c-1.18,0-2.31-.47-3.15-1.31-.83-.84-1.3-1.97-1.31-3.15v-11.37c0-1.18.47-2.31,1.31-3.14.84-.83,1.97-1.3,3.15-1.3h11.37c1.18,0,2.31.47,3.15,1.3s1.31,1.96,1.31,3.14v11.37c0,1.18-.47,2.31-1.31,3.15-.83.83-1.97,1.3-3.15,1.31ZM340.15,419.06c-1.05,0-2.07.42-2.81,1.16-.75.74-1.17,1.75-1.17,2.81v11.37c0,1.05.42,2.07,1.17,2.81.75.75,1.76,1.17,2.81,1.17h11.37c1.06,0,2.07-.42,2.81-1.17s1.17-1.76,1.17-2.81v-11.37c0-1.05-.42-2.06-1.17-2.81-.75-.74-1.76-1.16-2.81-1.16h-11.37Z"/><path class="j" d="M227.3,426.68h-7.48c-.25,0-.49.1-.67.28-.18.18-.28.42-.28.67v4.95c0,.25.1.49.28.67.18.18.42.28.67.28h.64v2.18l2.52-2.18h4.32c.25,0,.49-.1.67-.28.18-.18.28-.42.28-.67v-4.92c0-.13-.02-.25-.06-.37-.05-.12-.12-.23-.2-.32-.09-.09-.19-.16-.31-.21-.12-.05-.24-.08-.37-.07ZM221.19,431.04c-.15,0-.29-.04-.41-.12-.12-.08-.22-.2-.28-.33-.06-.14-.07-.29-.04-.43.03-.14.1-.28.2-.38.1-.1.24-.17.38-.2s.29-.01.43.04c.14.06.25.15.33.28.08.12.12.27.12.41,0,.19-.08.38-.21.52-.14.14-.32.21-.52.21ZM223.46,431.04c-.15,0-.29-.04-.41-.13-.12-.08-.22-.2-.27-.33-.06-.14-.07-.29-.04-.43.03-.14.1-.28.21-.38.1-.1.24-.17.38-.2.14-.03.29-.01.43.05.13.06.25.15.33.28.08.12.12.27.12.41,0,.19-.08.38-.22.52-.14.14-.33.21-.52.21ZM225.9,431.04c-.15,0-.29-.04-.41-.13-.12-.08-.22-.2-.27-.33-.06-.14-.07-.29-.04-.43s.1-.28.2-.38c.1-.1.24-.17.38-.2.14-.03.29-.01.43.05s.25.15.33.28c.08.12.12.27.12.41,0,.19-.08.38-.22.52-.14.14-.33.21-.52.21Z"/><path class="i" d="M343.23,431.35c-.06,0-.11-.03-.16-.07-.04-.04-.07-.09-.07-.15-.57-4.74,2.96-6.23,3-6.24.06-.02.12-.02.18,0,.06.02.1.07.13.12.01.03.02.06.02.09,0,.03,0,.06-.02.09-.01.03-.03.06-.05.08-.02.02-.05.04-.08.05-.13.06-3.23,1.39-2.71,5.75,0,.03,0,.06,0,.09,0,.03-.02.06-.04.08-.02.02-.04.04-.07.06-.03.01-.06.02-.09.02h-.03Z"/><path class="i" d="M343.23,431.35c-.07,0-.13-.03-.18-.09l-1.49-1.75s-.04-.05-.05-.08c-.01-.03-.02-.06-.02-.09s0-.06.02-.09c.01-.03.03-.06.05-.08.05-.04.1-.06.17-.06s.12.02.17.06l1.3,1.54,1.15-1.53s.05-.04.08-.05c.03-.01.06-.02.09-.02s.06,0,.09.02c.03.01.05.03.08.05.02.02.05.04.06.07.02.03.03.06.03.09,0,.03,0,.06,0,.09,0,.03-.02.06-.04.08l-1.33,1.75s-.05.05-.08.07c-.03.02-.06.03-.1.03h.02Z"/><path class="i" d="M345.58,432.58s-.09-.02-.13-.04c-.04-.03-.07-.07-.09-.11-.02-.06-.02-.12,0-.18.02-.06.07-.1.12-.13.13-.06,3.23-1.4,2.71-5.75,0-.03,0-.06,0-.09,0-.03.02-.06.04-.08.02-.02.04-.04.07-.06.03-.01.06-.02.09-.03.06,0,.12.02.17.05.05.04.08.09.09.15.56,4.74-2.97,6.23-3,6.25l-.09.02Z"/><path class="i" d="M347.13,428.34c-.05,0-.1-.01-.14-.05-.05-.04-.08-.09-.09-.16,0-.06,0-.13.04-.18l1.33-1.75s.05-.05.08-.07c.03-.02.07-.03.1-.03.07,0,.13.03.18.09l1.49,1.75s.07.1.07.17-.02.12-.07.17c-.05.04-.11.07-.17.07s-.12-.02-.17-.07l-1.3-1.54-1.15,1.52s-.05.05-.09.06c-.03.01-.07.02-.11.01Z"/><path class="n" d="M223.41,146.86c7.71,0,13.95-6.25,13.95-13.95s-6.25-13.95-13.95-13.95-13.95,6.25-13.95,13.95,6.25,13.95,13.95,13.95Z"/><path class="l" d="M222.67,136.98c-.06,0-.13-.03-.17-.08l-3.64-3.79s-.06-.1-.06-.17.02-.12.06-.17l3.64-3.79s.11-.07.17-.07.12.02.17.07c.02.02.04.05.05.08.01.03.02.06.02.09s0,.06-.02.09c-.01.03-.03.06-.05.08l-3.48,3.66,3.48,3.67s.04.05.05.08c.01.03.02.06.02.09s0,.06-.02.09c-.01.03-.03.06-.05.08-.06.01-.12,0-.17-.02Z"/><path class="l" d="M228.99,133.14h-9.96c-.06,0-.12-.02-.17-.07-.04-.04-.07-.1-.07-.17,0-.06.03-.12.07-.16.04-.04.1-.07.17-.07h9.96c.06,0,.12.02.17.07.04.04.07.1.07.17s-.02.12-.07.17c-.04.04-.11.07-.17.07Z"/><path class="g" d="M360.92,378.9c1.11-6.84-3.53-13.29-10.37-14.41-6.84-1.11-13.29,3.53-14.41,10.37-1.11,6.84,3.53,13.29,10.37,14.41,6.84,1.11,13.29-3.53,14.41-10.37Z"/><path class="i" d="M348.52,379.67c-.6,0-1.17-.24-1.6-.66-.42-.42-.66-1-.67-1.6v-4.94c0-.6.24-1.18.66-1.6.42-.43,1-.66,1.6-.66s1.18.24,1.6.66c.42.42.66,1,.66,1.6v4.94c0,.6-.24,1.17-.67,1.6-.42.42-1,.66-1.6.66ZM348.52,370.7c-.47,0-.93.19-1.26.52-.34.33-.53.79-.53,1.26v4.94c0,.48.19.93.52,1.27.34.34.79.53,1.27.53s.93-.19,1.27-.53c.34-.34.53-.79.53-1.27v-4.94c0-.48-.19-.93-.53-1.27s-.79-.53-1.27-.53h0Z"/><path class="i" d="M348.52,381.27c-.59.03-1.18-.06-1.73-.28-.55-.22-1.04-.55-1.45-.98-.91-1.2-1.34-2.7-1.2-4.2,0-.06.04-.12.09-.16.05-.04.11-.06.18-.05.06,0,.12.04.16.09s.06.11.05.17c-.12,1.37.27,2.73,1.08,3.84.37.38.81.67,1.3.86.49.19,1.02.27,1.54.24.52.02,1.05-.06,1.54-.25.49-.19.93-.48,1.31-.85.88-1.09,1.34-2.46,1.3-3.86,0-.06.02-.12.07-.16.04-.04.1-.07.16-.07.03,0,.06,0,.09.01.03.01.06.03.08.05.02.02.04.05.05.07.01.03.02.06.02.09.05,1.53-.46,3.02-1.43,4.2-.42.42-.92.74-1.47.96-.55.21-1.14.31-1.73.28Z"/><path class="i" d="M348.52,384.74c-.06,0-.12-.02-.17-.07-.04-.04-.07-.11-.07-.17v-3.47c0-.06.03-.12.07-.17.04-.04.1-.07.17-.07s.12.02.17.07c.04.04.07.1.07.17v3.47c0,.06-.02.12-.07.17s-.1.07-.17.07Z"/><path class="c" d="M285.96,415.45c12.19,0,22.07-9.88,22.07-22.07s-9.88-22.07-22.07-22.07-22.07,9.88-22.07,22.07,9.88,22.07,22.07,22.07Z"/><path class="i" d="M284,387.28c-.43-.34-.94-.59-1.47-.72-.54-.13-1.1-.14-1.64-.03-.54.11-1.05.34-1.5.67-.44.33-.81.75-1.08,1.24-.25.46-.34,1-.24,1.52.1.52.37.99.77,1.33,2.03,1.99,6.28,5.98,8.13,7.72.5.48,1.1.83,1.76,1.04.66.21,1.35.27,2.03.18.54-.08,1.05-.27,1.51-.55.46-.29.86-.66,1.16-1.11,2.1-2.84-2.91-5.1-2.91-5.1l-2.19,2.29-5.1-4.92,2.24-2.46-1.48-1.09Z"/></svg>
