<?xml version="1.0" encoding="UTF-8"?><svg id="a" xmlns="http://www.w3.org/2000/svg" xmlns:xlink="http://www.w3.org/1999/xlink" viewBox="0 0 566.93 566.93"><defs><style>.c{opacity:.2;}.d{fill:#e30613;}.d,.e,.f,.g,.h,.i,.j,.k,.l,.m,.n,.o,.p,.q{stroke-width:0px;}.f{fill:#e0e0e0;}.g{fill:#f5f5f5;}.h{fill:none;}.r{clip-path:url(#b);}.i{fill:#fff;}.j{fill:#09f;}.k{fill:#263238;}.s{opacity:.3;}.l{fill:#005584;}.m{fill:#ebebeb;}.n{fill:#ff9a6c;}.o{fill:#455a64;}.p{fill:#ffbf9d;}.q{fill:#e89842;}</style><clipPath id="b"><rect class="h" x="595.28" y="0" width="566.93" height="566.93"/></clipPath></defs><path class="k" d="M524.38,539.3c0,.16-107.08.28-239.3.28s-239.3-.12-239.3-.28,107.08-.28,239.3-.28,239.3.13,239.3.28Z"/><path class="k" d="M350.12,540.13l-148.6-.08c-17.88,0-32.37-13.83-32.35-30.87l.07-355.12c0-17.05,14.51-30.87,32.4-30.86l148.6.09c17.88,0,32.37,13.82,32.36,30.86l-.07,355.12c-.04,17.06-14.54,30.87-32.4,30.86Z"/><path class="i" d="M349.03,135.78h-148.32c-12.52,0-22.68,9.66-22.68,21.6l-.08,346.62c0,11.93,10.15,21.61,22.66,21.61l148.35.09c12.52,0,22.68-9.67,22.68-21.6l.08-346.63c0-12.01-10.14-21.68-22.7-21.69Z"/><path class="f" d="M420.42,208.14h-11.12v11.12h11.12v-11.12Z"/><path class="f" d="M414.22,323.01h-11.12v11.12h11.12v-11.12Z"/><path class="f" d="M431.81,354.95h-16.79v16.8h16.79v-16.8Z"/><path class="f" d="M156.46,332.77h-16.79v16.79h16.79v-16.79Z"/><path class="f" d="M132.33,318.14h-10.85v10.85h10.85v-10.85Z"/><path class="f" d="M161.89,383.8h-10.85v10.85h10.85v-10.85Z"/><path class="f" d="M116.19,239.53h-7.86v7.86h7.86v-7.86Z"/><path class="f" d="M448.7,225.31h-4.15v4.15h4.15v-4.15Z"/><path class="f" d="M409.13,190.33h-6.41v6.41h6.41v-6.41Z"/><path class="f" d="M441.68,317.38h-6.41v6.41h6.41v-6.41Z"/><path class="f" d="M153.52,216.87h-10.9v10.91h10.9v-10.91Z"/><path class="g" d="M42.54,213.31l37.69.63-18.36-23.61-19.33,22.98Z"/><path class="g" d="M60.06,231.83h-6.39v6.39h6.39v-6.39Z"/><path class="g" d="M66.16,238.82h-6.39v6.39h6.39v-6.39Z"/><path class="g" d="M58.57,247.42h-4.91v4.91h4.91v-4.91Z"/><path class="g" d="M70.43,233.36h-4.91v4.91h4.91v-4.91Z"/><path class="g" d="M53.67,239.37h-3.51v3.51h3.51v-3.51Z"/><path class="g" d="M63.84,258.5h-4.1v-4.11h4.1v4.11ZM60.33,257.89h2.9v-2.89h-2.87l-.02,2.89Z"/><path class="g" d="M69.74,244.87h-3.51v3.51h3.51v-3.51Z"/><path class="g" d="M69.98,210.23l-17.97.21-1.16,23.01h19.67l-.54-23.22ZM63.66,229.39h-3.5v-3.5h3.5v3.5Z"/><path class="m" d="M51.47,440.12l61.02,1.09-29.73-39.55-31.28,38.46Z"/><path class="m" d="M79.81,471.12h-10.34v10.69h10.34v-10.69Z"/><path class="m" d="M89.68,482.83h-10.34v10.69h10.34v-10.69Z"/><path class="m" d="M77.41,497.23h-7.94v8.22h7.94v-8.22Z"/><path class="m" d="M96.62,473.68h-7.94v8.22h7.94v-8.22Z"/><path class="m" d="M69.47,483.75h-5.67v5.87h5.67v-5.87Z"/><path class="m" d="M85.98,515.77h-6.67v-6.88h6.67v6.88ZM80.31,514.76h4.68v-4.85h-4.68v4.85Z"/><path class="m" d="M95.49,492.94h-5.67v5.87h5.67v-5.87Z"/><path class="m" d="M95.89,434.96l-29.11.36-1.85,38.52h31.79l-.83-38.88ZM85.69,467.01h-5.71v-5.86h5.71v5.86Z"/><path class="f" d="M64.93,97.83l62.98,1.09-30.66-39.5-32.32,38.41Z"/><path class="f" d="M94.21,128.78h-10.68v10.68h10.68v-10.68Z"/><path class="f" d="M104.4,140.47h-10.68v10.68h10.68v-10.68Z"/><path class="f" d="M91.73,154.85h-8.2v8.2h8.2v-8.2Z"/><path class="f" d="M111.56,131.35h-8.2v8.2h8.2v-8.2Z"/><path class="f" d="M83.53,141.4h-5.86v5.86h5.86v-5.86Z"/><path class="f" d="M100.57,173.36h-6.87v-6.87h6.87v6.87ZM94.72,172.34h4.83v-4.83h-4.83v4.83Z"/><path class="f" d="M110.39,150.57h-5.86v5.86h5.86v-5.86Z"/><path class="f" d="M110.83,92.69l-30.05.36-1.92,38.45h32.81l-.84-38.81ZM100.26,124.68h-5.82v-5.86h5.86l-.03,5.86Z"/><path class="g" d="M400.39,428.78l54.1.91-26.36-33.87-27.74,32.97Z"/><path class="g" d="M425.47,455.36h-9.17v9.17h9.17v-9.17Z"/><path class="g" d="M434.23,465.39h-9.17v9.17h9.17v-9.17Z"/><path class="g" d="M423.35,477.74h-7.05v7.05h7.05v-7.05Z"/><path class="g" d="M440.38,457.56h-7.05v7.05h7.05v-7.05Z"/><path class="g" d="M416.3,466.19h-5.03v5.03h5.03v-5.03Z"/><path class="g" d="M430.98,493.65h-5.9v-5.9h5.9v5.9ZM425.95,492.77h4.15v-4.15h-4.15v4.15Z"/><path class="g" d="M439.36,474.07h-5.03v5.03h5.03v-5.03Z"/><path class="g" d="M439.72,424.35l-25.81.31-1.66,33.03h28.2l-.73-33.34ZM430.64,451.83h-5.04v-4.99h5.04v4.99Z"/><path class="g" d="M383.05,77.11l54.1.91-26.37-33.87-27.73,32.97Z"/><path class="g" d="M408.17,103.69h-9.17v9.17h9.17v-9.17Z"/><path class="g" d="M416.92,113.72h-9.17v9.17h9.17v-9.17Z"/><path class="g" d="M406.05,126.07h-7.05v7.05h7.05v-7.05Z"/><path class="g" d="M423.08,105.89h-7.05v7.05h7.05v-7.05Z"/><path class="g" d="M399,114.52h-5.03v5.03h5.03v-5.03Z"/><path class="g" d="M413.63,141.98h-5.9v-5.9h5.9v5.9ZM408.6,141.1h4.15v-4.15h-4.15v4.15Z"/><path class="g" d="M422.07,122.4h-5.03v5.03h5.03v-5.03Z"/><path class="g" d="M422.43,72.68l-25.81.31-1.69,33.03h28.21l-.71-33.34ZM413.35,100.16h-5.03v-5.03h5.03v5.03Z"/><path class="m" d="M454.9,263.7l62.39,1.09-30.4-39.1-31.99,38Z"/><path class="m" d="M483.88,294.36h-10.58v10.58h10.58v-10.58Z"/><path class="m" d="M493.97,305.95h-10.58v10.58h10.58v-10.58Z"/><path class="m" d="M481.43,320.18h-8.13v8.13h8.13v-8.13Z"/><path class="m" d="M501.08,296.9h-8.13v8.13h8.13v-8.13Z"/><path class="m" d="M473.3,306.87h-5.8v5.8h5.8v-5.8Z"/><path class="m" d="M490.18,338.53h-6.75v-6.81h6.81l-.05,6.81ZM484.38,337.53h4.8v-4.8h-4.8v4.8Z"/><path class="m" d="M499.91,315.94h-5.8v5.8h5.8v-5.8Z"/><path class="m" d="M500.32,258.6l-29.76.36-1.91,38.09h32.53l-.85-38.45ZM489.85,290.29h-5.8v-5.8h5.8v5.8Z"/><path class="j" d="M338.15,166.47h-9.81v8.94h9.81v-8.94Z"/><path class="j" d="M232.25,165.64h-4.13v3.26h4.13v-3.26Z"/><path class="j" d="M328.38,159.61h-4.13v3.26h4.13v-3.26Z"/><path class="d" d="M295.06,143.07h-6.29v5.82h6.29v-5.82Z"/><path class="j" d="M229.46,175.56h-12.25v10.8h12.25v-10.8Z"/><path class="d" d="M269.56,151.82h-3.94v3.26h3.94v-3.26Z"/><path class="d" d="M318.98,159.67h-78.37l-.91,176.76h79.27v-176.76Z"/><path class="i" d="M283.29,158.01h-8.52v7.04h8.52v-7.04Z"/><path class="i" d="M307.74,158.12h-8.18v11.58h8.18v-11.58Z"/><path class="i" d="M314.49,157.94h-5.41v9.77h5.41v-9.77Z"/><path class="i" d="M249.13,158.48h-7.31v10.41h7.31v-10.41Z"/><path class="i" d="M260.7,159.19h-3.98v7.28h3.98v-7.28Z"/><path class="d" d="M295.42,155.27h-7.77v6.4h7.77v-6.4Z"/><path class="d" d="M276.79,111.05c-.01.65-.22,1.27-.58,1.8-.37.53-.88.94-1.48,1.18-.6.24-1.26.29-1.89.16-.63-.13-1.21-.45-1.66-.91-.45-.46-.76-1.05-.88-1.68-.12-.63-.05-1.29.2-1.88.25-.6.67-1.1,1.21-1.46.54-.36,1.17-.55,1.81-.55.44,0,.87.09,1.27.26.4.17.77.42,1.07.73.31.31.55.68.71,1.09.16.41.24.84.23,1.27Z"/><path class="d" d="M211.31,100.19c1.82,0,3.3-1.5,3.3-3.34s-1.48-3.34-3.3-3.34-3.3,1.5-3.3,3.34,1.48,3.34,3.3,3.34Z"/><path class="d" d="M241.29,161.56h-1.09l.87-56.45h-38.09l.87-.92c.25-.26,6.16-6.56,7.55-7.52l.65.87c-.91.68-4.28,4.13-6.56,6.47h36.66l-.86,57.54Z"/><path class="d" d="M221.39,89.98c.04.66-.11,1.31-.44,1.88-.33.57-.83,1.02-1.42,1.3-.59.28-1.26.38-1.91.28-.65-.1-1.25-.39-1.73-.84-.48-.45-.82-1.03-.96-1.67-.15-.64-.09-1.31.15-1.92.24-.61.66-1.14,1.2-1.51.54-.37,1.18-.57,1.84-.57.84-.03,1.66.28,2.27.85.62.57.98,1.37,1.01,2.21Z"/><path class="d" d="M227.49,82.3c.04.66-.11,1.31-.44,1.88-.33.57-.83,1.02-1.42,1.3-.59.28-1.26.38-1.91.28-.65-.1-1.25-.39-1.73-.84-.48-.45-.82-1.03-.96-1.67-.15-.64-.09-1.31.15-1.92.24-.61.66-1.14,1.2-1.51.54-.37,1.18-.57,1.84-.57.84-.03,1.66.28,2.27.85.61.57.98,1.37,1.01,2.21Z"/><path class="d" d="M246.67,67.49c1.56,0,2.83-1.37,2.83-3.06s-1.27-3.06-2.83-3.06-2.83,1.37-2.83,3.06,1.27,3.06,2.83,3.06Z"/><path class="d" d="M276.48,67.53c0,.6-.19,1.18-.52,1.68-.34.5-.81.88-1.37,1.11s-1.16.28-1.75.16c-.59-.12-1.13-.41-1.55-.84-.42-.43-.71-.97-.82-1.56-.12-.59-.05-1.2.18-1.75.23-.55.62-1.03,1.12-1.36.5-.33,1.09-.51,1.69-.51.81,0,1.58.33,2.15.9.57.57.89,1.35.89,2.16Z"/><path class="d" d="M282.76,42.55c0,.6-.19,1.18-.53,1.67-.34.49-.81.88-1.36,1.1-.55.22-1.16.28-1.75.16-.58-.12-1.12-.41-1.54-.84-.42-.42-.7-.96-.82-1.55-.11-.59-.05-1.19.18-1.74.23-.55.62-1.02,1.12-1.35s1.08-.51,1.68-.51c.81,0,1.58.33,2.15.9.57.57.88,1.35.88,2.16Z"/><path class="d" d="M298.8,50.81c1.64,0,2.96-1.37,2.96-3.06s-1.32-3.06-2.96-3.06-2.96,1.37-2.96,3.06,1.32,3.06,2.96,3.06Z"/><path class="d" d="M330.46,76.12c-.04.55-.25,1.08-.59,1.51-.34.44-.8.76-1.32.94-.52.18-1.08.2-1.62.07-.53-.13-1.02-.42-1.39-.83-.37-.41-.62-.91-.72-1.45-.09-.54-.02-1.1.2-1.61.22-.51.58-.94,1.04-1.24.46-.3,1-.47,1.55-.47.39.01.77.1,1.12.27.35.16.67.39.94.68.26.29.47.62.6.98.13.36.19.75.18,1.14Z"/><path class="d" d="M287.91,83.6c-.02.58-.21,1.14-.55,1.61-.34.47-.81.83-1.34,1.04-.54.21-1.13.25-1.7.12-.56-.13-1.08-.42-1.48-.83-.4-.42-.67-.94-.78-1.51-.11-.57-.04-1.16.18-1.69.23-.53.6-.99,1.09-1.31.48-.32,1.05-.49,1.63-.49.39,0,.78.09,1.14.25.36.16.69.39.96.67.27.28.49.62.63.99.15.37.22.76.21,1.15Z"/><path class="d" d="M301.02,82.59c-.02.58-.22,1.14-.56,1.61-.34.47-.81.83-1.35,1.03-.54.2-1.13.25-1.69.12-.56-.13-1.08-.42-1.48-.84-.4-.42-.67-.94-.77-1.51-.1-.57-.04-1.16.19-1.69.23-.53.61-.98,1.09-1.3.48-.32,1.05-.49,1.63-.48.4,0,.79.09,1.15.25.36.16.69.39.96.67.27.29.49.62.63.99.14.37.21.76.2,1.16Z"/><path class="d" d="M337.24,90.19c1.56,0,2.83-1.37,2.83-3.06s-1.27-3.06-2.83-3.06-2.83,1.37-2.83,3.06,1.27,3.06,2.83,3.06Z"/><path class="d" d="M291.74,35.99c0,.6-.19,1.18-.53,1.67-.34.49-.81.88-1.37,1.1-.55.22-1.16.28-1.75.16-.59-.12-1.12-.41-1.54-.84-.42-.43-.7-.97-.82-1.55-.11-.59-.05-1.19.18-1.75.23-.55.62-1.02,1.12-1.35.5-.33,1.08-.5,1.68-.5.81,0,1.57.34,2.14.91.56.57.88,1.35.88,2.15Z"/><path class="d" d="M261.82,165.92h-1.09v-35.96c-.92-.69-5.59-3.51-8.51-5.24l-.27-.15v-27.74l-21.72-.25-9.83-6.69.62-.91,9.52,6.56,22.48.25v28.2c8.74,5.21,8.74,5.39,8.74,5.78l.08,36.16Z"/><path class="d" d="M274.82,163.5h-1.09v-37.27l-10.53-7.39v-32.68l-23.57-15.48c-4.5,4.2-11.03,10.33-11.38,10.74l-.84-.71c.49-.58,10.63-10.05,11.78-11.12l.32-.3,24.79,16.28v32.7l10.53,7.39v37.84Z"/><path class="d" d="M274.05,111.72h-1.09v-34.1l15.32-9.92v-28.82h1.09v29.41l-15.32,9.92v33.51Z"/><path class="d" d="M273.99,67.53h-1.09v-15.28l6.29-3.11v-6.64h1.09v7.32l-6.29,3.11v14.6Z"/><path class="d" d="M284.33,164.44h-1.09v-41.62l8.76-7.74v-5.38l-7.34-6.64v-17.2h1.09v16.71l7.34,6.65v6.35l-8.76,7.74v41.13Z"/><path class="d" d="M299.55,82.59h-1.09v85.46h1.09v-85.46Z"/><path class="d" d="M308.95,169.43h-1.09l.21-73.54,14.42-9.15h15.11v1.09h-14.79l-13.65,8.66-.21,72.93Z"/><path class="d" d="M319.09,177.47h-1.09v-74.04l34.57-.89-14.61-13.35.73-.8,16.62,15.18-36.22.92v72.98Z"/><path class="d" d="M328.27,76.8l-12.9-2.38-15.51-16v-.16c-.44-2.33-1.85-9.97-1.85-10.51h1.09c0,.47,1.09,6.41,1.79,10.16l15.11,15.51,12.57,2.33-.31,1.06Z"/><path class="d" d="M248.61,63.69l-.33-1.04,8.82-2.8,7.02-6.98-5.85-3.97,21.44-22.1,8.56,7.78-.73.81-7.78-7.07-19.79,20.41,5.87,3.98-8.15,8.11-9.07,2.87Z"/><path class="j" d="M338.15,186.35h-8.31v8.3h8.31v-8.3Z"/><path class="j" d="M213.11,173.22h-9.41v-9.39h9.41v9.39ZM204.8,172.13h7.22v-7.2h-7.22v7.2Z"/><path class="k" d="M152.81,267.84h-16.61v16.61h16.61v-16.61Z"/><path class="k" d="M418.39,270.02h-16.61v16.61h16.61v-16.61Z"/><path class="k" d="M393.81,236.97h-4.15v4.15h4.15v-4.15Z"/><path class="o" d="M351.48,225.27h-8.05v8.05h8.05v-8.05Z"/><path class="o" d="M341.43,217.56h-4.92v4.92h4.92v-4.92Z"/><path class="o" d="M358.98,202.36h-6v-6.01h6v6.01ZM354.08,201.27h3.81v-3.82h-3.81v3.82Z"/><path class="k" d="M405.37,250.32h-7.52v-7.51h7.52v7.51ZM398.94,249.23h5.33v-5.32h-5.33v5.32Z"/><path class="k" d="M120.09,267.12h-7.51v-7.51h7.51v7.51ZM113.68,266.03h5.32v-5.32h-5.32v5.32Z"/><path class="o" d="M206.63,250.11h-10.9v10.91h10.9v-10.91Z"/><path class="o" d="M212.16,232.04h-5.54v5.54h5.54v-5.54Z"/><path class="k" d="M152.73,194.92h-5.54v5.54h5.54v-5.54Z"/><path class="k" d="M427.32,290.94h-5.54v5.54h5.54v-5.54Z"/><path class="k" d="M136.9,295.64h-5.54v5.54h5.54v-5.54Z"/><path class="o" d="M200.34,218.57h-9.43v9.43h9.43v-9.43Z"/><path class="o" d="M225.36,214.59h-8.54v-8.58h8.59l-.04,8.58ZM217.87,213.5h6.4v-6.39h-6.36l-.04,6.39Z"/><g class="c"><path class="e" d="M349.22,431.13c.16-.76.33-1.56.49-2.36l-.95,2.36h.46Z"/></g><path class="o" d="M332.06,272.87l27.66.47-13.47-17.33-14.18,16.86Z"/><path class="o" d="M345.22,286.46h-4.69v4.69h4.69v-4.69Z"/><path class="o" d="M349.5,291.41h-4.28v4.17h4.28v-4.17Z"/><path class="o" d="M344.35,297.35h-3.6v3.61h3.6v-3.61Z"/><path class="o" d="M353.11,287.59h-3.6v3.6h3.6v-3.6Z"/><path class="o" d="M340.31,291.41h-2.57v2.57h2.57v-2.57Z"/><path class="o" d="M348.55,306.36h-3.66v-3.66h3.66v3.66ZM345.98,305.27h1.47v-1.48h-1.47v1.48Z"/><path class="o" d="M352.25,295.84h-2.57v2.57h2.57v-2.57Z"/><path class="o" d="M353.05,270.61l-14.37.16v16.88h14.41l-.04-17.04ZM348.46,284.66h-2.57v-2.57h2.57v2.57Z"/><path class="j" d="M239.16,381.53l30.87.52-15.04-19.35-15.83,18.83Z"/><path class="j" d="M253.5,396.69h-5.23v5.23h5.23v-5.23Z"/><path class="j" d="M258.49,402.43h-5.23v5.23h5.23v-5.23Z"/><path class="j" d="M252.28,409.48h-4.02v4.02h4.02v-4.02Z"/><path class="j" d="M262.01,397.95h-4.02v4.02h4.02v-4.02Z"/><path class="j" d="M248.28,402.88h-2.87v2.87h2.87v-2.87Z"/><path class="j" d="M261.43,407.38h-2.87v2.87h2.87v-2.87Z"/><path class="j" d="M261.62,379l-14.73.17-.95,18.85h16.12l-.44-19.02ZM256.44,394.68h-2.87v-2.86h2.87v2.86Z"/><path class="o" d="M187.57,304.02l45.02.75-21.93-28.21-23.09,27.46Z"/><path class="o" d="M208.47,326.15h-7.63v7.63h7.63v-7.63Z"/><path class="o" d="M215.02,333.86h-6.54v6.54h6.54v-6.54Z"/><path class="o" d="M206.71,341.85h-5.87v5.87h5.87v-5.87Z"/><path class="o" d="M220.88,327.97h-5.87v5.87h5.87v-5.87Z"/><path class="o" d="M200.84,334.5h-4.18v4.19h4.18v-4.19Z"/><path class="o" d="M213.33,355.39h-5.25v-5.28h5.28l-.02,5.28ZM209.15,354.3h3.09v-3.09h-3.07l-.02,3.09Z"/><path class="o" d="M219.2,341.03h-4.18v4.19h4.18v-4.19Z"/><path class="o" d="M220.96,300.73l-23.3-.12-.19,27.47h23.48v-27.35ZM212.78,323.21h-4.18v-4.22h4.18v4.22Z"/><path class="j" d="M316.58,340.63l36.3.61-17.68-22.74-18.62,22.13Z"/><path class="j" d="M333.44,358.47h-6.15v6.15h6.15v-6.15Z"/><path class="j" d="M339.32,365.2h-6.15v6.15h6.15v-6.15Z"/><path class="j" d="M332.01,373.49h-4.72v4.72h4.72v-4.72Z"/><path class="j" d="M343.44,359.95h-4.72v4.72h4.72v-4.72Z"/><path class="j" d="M327.29,365.74h-3.38v3.38h3.38v-3.38Z"/><path class="j" d="M337.36,384.41h-4.47v-4.47h4.47v4.47ZM333.98,383.32h2.28v-2.28h-2.28v2.28Z"/><path class="j" d="M342.77,371.03h-3.38v3.38h3.38v-3.38Z"/><path class="j" d="M343.01,337.67l-17.32.21-1.09,22.16h18.93l-.51-22.37ZM337.92,356.24h-3.37v-3.37h3.37v3.37Z"/><path class="j" d="M45.52,302.67l45.03.75-21.94-28.21-23.09,27.46Z"/><path class="j" d="M66.43,324.8h-7.63v7.63h7.63v-7.63Z"/><path class="j" d="M72.98,332.51h-6.55v6.54h6.55v-6.54Z"/><path class="j" d="M64.66,340.5h-5.86v5.87h5.86v-5.87Z"/><path class="j" d="M78.83,326.62h-5.86v5.87h5.86v-5.87Z"/><path class="j" d="M58.8,333.14h-4.18v4.18h4.18v-4.18Z"/><path class="j" d="M70.74,349.3h-4.18v4.19h4.18v-4.19Z"/><path class="j" d="M77.16,339.68h-4.18v4.19h4.18v-4.19Z"/><path class="j" d="M78.91,299.38l-23.3-.12-.17,27.47h23.47v-27.35ZM70.75,321.86h-4.18v-4.18h4.18v4.18Z"/><path class="j" d="M461.19,460.3l34.79.59-16.93-21.8-17.87,21.21Z"/><path class="j" d="M477.36,477.4h-5.9v5.9h5.9v-5.9Z"/><path class="j" d="M482.41,483.37h-5.06v5.06h5.06v-5.06Z"/><path class="j" d="M475.99,489.53h-4.54v4.54h4.54v-4.54Z"/><path class="j" d="M486.95,478.81h-4.54v4.54h4.54v-4.54Z"/><path class="j" d="M471.45,483.86h-3.23v3.23h3.23v-3.23Z"/><path class="j" d="M480.69,496.33h-3.24v3.24h3.24v-3.24Z"/><path class="j" d="M485.65,488.91h-3.23v3.23h3.23v-3.23Z"/><path class="j" d="M486.99,457.76l-18-.1-.14,21.23h18.14v-21.13ZM480.69,475.14h-3.28v-3.28h3.28v3.28Z"/><path class="j" d="M457.56,134.12l45.02.76-21.93-28.21-23.09,27.45Z"/><path class="j" d="M478.46,156.25h-7.63v7.63h7.63v-7.63Z"/><path class="j" d="M485.01,163.96h-6.54v6.55h6.54v-6.55Z"/><path class="j" d="M476.7,171.95h-5.87v5.87h5.87v-5.87Z"/><path class="j" d="M490.87,158.09h-5.87v5.87h5.87v-5.87Z"/><path class="j" d="M470.83,164.61h-4.19v4.18h4.19v-4.18Z"/><path class="j" d="M482.77,180.76h-4.18v4.18h4.18v-4.18Z"/><path class="j" d="M489.19,171.14h-4.18v4.18h4.18v-4.18Z"/><path class="j" d="M490.95,130.84l-23.3-.13-.19,27.48h23.48v-27.35ZM482.78,153.32h-4.19v-4.18h4.19v4.18Z"/><path class="q" d="M241.97,238.88c-.16-4.84-2.55-20.92-2.7-25.76-2.13.04-4.24-.38-6.19-1.24-1.95-.86-3.69-2.13-5.09-3.73-1.41-1.6-2.45-3.48-3.05-5.52-.6-2.04-.76-4.19-.44-6.3.31-2.11,1.08-4.12,2.24-5.9,1.17-1.78,2.71-3.28,4.52-4.41,1.81-1.12,3.84-1.84,5.95-2.1,2.11-.26,4.26-.05,6.28.6-.93-4.59-.29-9.36,1.82-13.54,2.11-4.18,5.56-7.53,9.8-9.52,4.24-1.98,9.03-2.48,13.59-1.42,4.56,1.06,8.63,3.63,11.56,7.29.31-5.65,6.42-9.09,11.95-10.43,4.62-1.37,9.57-1.16,14.06.59,2.2.95,4.01,2.62,5.14,4.73,1.13,2.11,1.5,4.55,1.07,6.9,2-2.52,4.93-4.14,8.12-4.5,1.58-.18,3.19-.05,4.72.39,1.53.44,2.96,1.18,4.21,2.17,1.25.99,2.29,2.22,3.06,3.61.77,1.39,1.26,2.93,1.44,4.51.18,1.58.05,3.19-.39,4.72-.44,1.53-1.18,2.96-2.17,4.21,3.16,1.5,5.67,4.08,7.07,7.28,1.4,3.2,1.61,6.8.58,10.13-1.03,3.34-3.24,6.19-6.2,8.04-2.97,1.85-6.5,2.56-9.95,2.01"/><path class="l" d="M235.61,308.77l-48.05,22.94,9.43,118.2-1.09,75.9,148.71.09-.82-65.48,4.22-26.42,19.87-102.29-56.13-24.41-11.26-7.59-55.96.13-8.92,8.93Z"/><g class="c"><path class="e" d="M197.53,495.32c2.46,3.11,7.12,3.28,11.01,2.46,13.11-2.61,25.01-12.02,38.24-10.45,8.47,1.03,16.72,6.56,24.91,4.21,2.83-.81,5.39-2.53,8.29-2.94,4.26-.59,8.31,1.7,12.12,3.68,16.2,8.39,34.32,12.4,52.55,11.64l7.44-19.82-66.65-17.29-53.42-3.06-34.44,20.13-.05,11.44Z"/></g><path class="k" d="M268.81,524.79c-.15,0,.65-40.56,1.79-90.57,1.15-50.01,2.19-90.58,2.36-90.57.17,0-.65,40.55-1.79,90.58-1.15,50.03-2.2,90.57-2.36,90.56Z"/><path class="l" d="M365.78,331.71s12.66,3.43,19.32,30.95c2.81,11.58,17.45,108.07,15.44,121.5-2.01,13.43-22.3,27.07-52.66,22.86-16.75-2.33-45.59-17.05-45.59-17.05l22.24-29.65h21.37l8.45-6.33-6.81-26.15s13.28-87.66,18.24-96.14Z"/><path class="k" d="M385.24,454.93c-.05.1-1.58-.92-4.22-2.18-3.41-1.76-7.11-2.87-10.93-3.28-2.09-.16-4.19-.04-6.25.36l-1.38.32c-.44.12-.85.27-1.27.39-.74.25-1.47.54-2.19.86-2.67,1.22-4.15,2.33-4.22,2.19.31-.3.65-.57,1.02-.8.96-.67,1.97-1.27,3.03-1.78.73-.36,1.48-.68,2.25-.94.42-.14.84-.32,1.29-.44l1.4-.35c2.1-.44,4.26-.58,6.4-.41,3.88.39,7.63,1.56,11.05,3.44,1.03.55,2.04,1.15,3,1.81.37.23.7.5,1,.81Z"/><path class="k" d="M332.44,459.99c.31-.06.62-.09.93-.08l2.59-.08,9.28-.1h-.13l8.38-5.4-.08.07c.57-.67,1.15-1.39,1.82-2.04,1.2-1.25,2.52-2.37,3.95-3.34,3.59-2.48,7.7-4.09,12.02-4.69,1.81-.26,3.64-.32,5.46-.2.65.05,1.09.14,1.47.19.17.01.35.05.51.11-.67.01-1.33,0-2-.07-4.5-.13-8.98.81-13.05,2.74-1.43.67-2.79,1.47-4.09,2.37-1.4.96-2.7,2.05-3.87,3.28-.65.65-1.22,1.36-1.78,2l-8.51,5.45h-.08l-9.28-.1-2.59-.07c-.33,0-.66,0-.98-.05Z"/><path class="k" d="M272.96,343.64s.01.1,0,.15c0,.04-.01.07-.03.1-.02.03-.04.06-.07.07-.04.02-.09.03-.14.03s-.1,0-.14-.03c-.54-.24-1.04-.58-1.45-1-1.59-1.5-3.1-3.1-4.5-4.77-3.67-4.24-8.57-10.4-14.05-17.67h.4c-.54.74-.98,1.54-1.32,2.39-.4.87-.78,1.79-1.09,2.71-.73,1.86-1.43,3.78-2.11,5.74-1.16,3.41-2.27,6.75-3.03,9.93l-.16.68-.35-.59c-4-6.84-6.55-14.44-7.48-22.31-.27-2.29-.4-4.59-.38-6.89,0-.81,0-1.43.08-1.85,0-.22.02-.43.05-.64.03.21.03.43,0,.64v1.85c.05,2.29.23,4.58.54,6.85,1.05,7.8,3.65,15.3,7.65,22.07l-.51.08c.76-3.28,1.87-6.56,3.04-10,.68-1.97,1.38-3.9,2.12-5.76.37-.93.74-1.84,1.15-2.73.37-.91.86-1.77,1.45-2.56l.21-.24.21.27c5.46,7.29,10.29,13.48,13.88,17.77,1.79,2.19,3.28,3.81,4.37,4.86.39.44.85.81,1.35,1.09.19.08.31,0,.33-.11.02-.11,0-.14.02-.13Z"/><path class="k" d="M312.57,308.26c.04.19.06.39.05.59v1.72c0,1.49-.09,3.67-.33,6.38-.44,5.46-1.73,13-3.09,21.7l-.1.65-.39-.52c-1.96-2.59-3.85-5.46-5.8-8.5-1.53-2.34-3.04-4.61-4.62-6.72l.38.05c-7.55,5.46-14.34,10.02-18.76,13.85-2.24,1.86-3.98,3.42-5.16,4.51l-1.34,1.26c-.15.16-.31.3-.48.43,0,0,.12-.19.4-.49.28-.31.72-.77,1.29-1.33,1.09-1.09,2.84-2.74,5.06-4.66,4.37-3.9,11.12-8.53,18.67-14.02l.22-.15.16.22c1.6,2.12,3.13,4.37,4.66,6.75,1.95,2.99,3.82,5.9,5.76,8.48l-.49.12c1.41-8.74,2.75-16.23,3.28-21.65.28-2.7.44-4.86.49-6.36v-1.71c.03-.2.08-.4.14-.59Z"/><path class="k" d="M340.89,390.8c0,.15-8.66-.51-19.32-1.48-10.65-.97-19.28-1.89-19.26-2.06.02-.16,8.65.51,19.32,1.49,10.66.97,19.28,1.89,19.27,2.05Z"/><path class="p" d="M325.78,217.45c-.44-11.15-5.06-21.72-12.94-29.62-7.88-7.9-18.45-12.54-29.59-13l-2.29-.09c-24.84.43-38.34,21.75-37.24,46.56l2.32,82.13,26.9,37.28,28.41-30.87c0-6.99,0-9.1.05-9.1s23.96-2.72,25.24-26.52c.64-11.49-.01-35.27-.85-56.78Z"/><path class="n" d="M301.41,300.74s-15.05.26-30.59-10.45c0,0,6.72,18.2,30.59,17.04v-6.6Z"/><path class="k" d="M314.67,238.75c-.03.89-.41,1.72-1.05,2.33-.64.61-1.49.95-2.38.94-.43.01-.86-.06-1.27-.21-.4-.16-.77-.39-1.09-.69-.31-.3-.56-.66-.74-1.05-.17-.4-.27-.82-.28-1.26.03-.88.41-1.72,1.04-2.33s1.49-.95,2.38-.95c.43-.01.87.06,1.27.21.41.16.78.39,1.09.69.32.3.57.66.74,1.05.17.4.27.83.28,1.26Z"/><path class="q" d="M320.28,227.75c-.45.43-2.94-1.58-6.56-1.73-3.62-.14-6.41,1.57-6.8,1.09-.19-.21.27-.99,1.48-1.79,1.63-1.03,3.54-1.54,5.46-1.44,1.9.08,3.73.75,5.22,1.94,1.05.93,1.39,1.75,1.18,1.93Z"/><path class="k" d="M282.05,238.75c-.03.88-.41,1.72-1.04,2.33s-1.49.95-2.38.95c-.43.01-.86-.06-1.27-.21-.41-.16-.78-.39-1.09-.69-.32-.3-.57-.66-.74-1.05-.17-.4-.27-.82-.28-1.26.03-.88.4-1.72,1.04-2.33.64-.61,1.48-.95,2.37-.95.43-.01.87.06,1.27.21.41.16.78.39,1.09.69.32.3.57.66.74,1.05.18.4.27.83.28,1.26Z"/><path class="q" d="M285.16,227.75c-.45.43-2.94-1.58-6.56-1.73-3.62-.14-6.41,1.57-6.8,1.09-.19-.21.27-.99,1.48-1.79,1.63-1.03,3.54-1.54,5.46-1.44,1.9.08,3.73.75,5.22,1.94,1.04.93,1.39,1.75,1.18,1.93Z"/><path class="k" d="M296.34,255.78c0-.21,2.28-.51,5.99-.83.94-.05,1.84-.21,2.01-.84.12-.96-.05-1.93-.5-2.78l-2.47-7.23c-3.42-10.28-5.86-18.73-5.46-18.86.39-.13,3.53,8.09,6.94,18.38.83,2.53,1.61,4.95,2.36,7.27.53,1.15.65,2.45.33,3.68-.15.33-.37.61-.65.84-.28.22-.6.38-.95.46-.52.12-1.06.18-1.6.16-3.69.04-5.99-.03-6-.24Z"/><path class="q" d="M285.15,219.71c-.49.93-3.6-.13-7.45-.32-3.85-.18-7.09.4-7.43-.56-.14-.47.56-1.29,1.96-2.01,1.8-.86,3.8-1.24,5.79-1.09,1.98.09,3.89.71,5.55,1.79,1.26.85,1.81,1.75,1.58,2.18Z"/><path class="q" d="M320.89,213.95c-.79.81-3.75-.13-7.33-.27-3.58-.14-6.63.39-7.3-.5-.3-.43.2-1.25,1.55-2,1.86-.9,3.91-1.31,5.98-1.2,2.06.11,4.06.74,5.81,1.82,1.24.89,1.63,1.75,1.29,2.15Z"/><path class="k" d="M284.85,258.06c.57,0,.59,3.7,3.8,6.35,3.21,2.64,7.2,2.18,7.23,2.73.05.24-.89.73-2.57.79-2.19.04-4.33-.69-6.04-2.06-1.63-1.33-2.69-3.24-2.94-5.33-.15-1.59.23-2.47.51-2.47Z"/><path class="l" d="M189.5,332.45s-14.07,11.39-17.71,28.07c-3.64,16.68-23.62,93.47-24.13,104.79-.5,11.32,0,35.44,20.92,35.93s73.89-23.92,73.89-23.92l-10.11-30.59-33.02.91-9.85-115.18Z"/><path class="k" d="M232.38,446.68c-.27.06-.54.1-.81.11l-2.32.17-8.56.56-12.69.74-7.48.43c-2.67.09-5.33.36-7.97.79-1.38.22-2.78.22-4.16,0-1.34-.16-2.64-.4-3.92-.52-2.47-.16-4.95.06-7.35.64-4.08,1.05-7.86,3.06-11.01,5.85-2.15,1.87-4.04,4.01-5.62,6.38-.57.83-.97,1.5-1.23,1.96-.12.25-.27.48-.45.69.09-.26.21-.51.35-.74.34-.7.72-1.37,1.15-2.02,1.53-2.43,3.39-4.64,5.53-6.56,3.19-2.88,7.02-4.95,11.17-6.04,2.46-.62,5-.85,7.53-.7,1.31.12,2.61.36,3.94.52,1.32.2,2.66.2,3.98,0,2.66-.44,5.35-.7,8.05-.79l7.49-.38,12.69-.63,8.57-.37,2.33-.08c.27-.02.54-.02.81,0Z"/><path class="k" d="M200.25,447.57c-.06-.24-.1-.49-.11-.74-.05-.56-.13-1.27-.22-2.18-.17-1.94-.44-4.62-.74-7.9-.64-6.68-1.64-15.88-2.76-26.05-1.13-10.17-2.05-19.32-2.55-26.04-.27-3.34-.47-6.04-.57-7.92,0-.88-.08-1.61-.11-2.19-.01-.25-.01-.5,0-.75.07.24.11.49.12.74.05.55.12,1.26.21,2.18.19,1.92.44,4.61.75,7.9.63,6.67,1.64,15.88,2.75,26.05,1.11,10.17,2.05,19.38,2.6,26.06.27,3.34.46,6.05.57,7.92,0,.9.08,1.61.1,2.19.01.24,0,.49-.04.73Z"/><path class="k" d="M240.47,478.23c-.16.12-.33.23-.5.32l-1.5.81c-1.3.7-3.21,1.64-5.61,2.75-4.77,2.18-11.49,5.09-19.05,7.88-7.55,2.79-14.49,5.03-19.57,6.47-2.53.73-4.6,1.26-6.03,1.61l-1.66.37c-.19.06-.39.09-.59.09.18-.09.37-.16.57-.2l1.63-.48c1.41-.4,3.46-.99,5.98-1.77,5.04-1.54,11.94-3.82,19.48-6.62,7.54-2.8,14.21-5.57,19.08-7.7,2.4-1.09,4.37-1.96,5.67-2.59l1.54-.72c.17-.1.36-.16.56-.21Z"/><path class="k" d="M359.84,356.48c.01.09.01.18,0,.27,0,.21,0,.47-.08.79-.08.74-.19,1.76-.32,3.04-.28,2.63-.74,6.44-1.33,11.13-1.18,9.4-2.96,22.37-5.16,36.65-2.2,14.28-4.37,27.2-5.92,36.54-.81,4.63-1.47,8.39-1.93,11.05-.23,1.27-.42,2.27-.56,2.99-.07.32-.12.58-.15.79-.01.09-.04.18-.08.26-.02-.09-.02-.18,0-.27,0-.22.06-.47.11-.79.11-.74.26-1.75.45-3.01.43-2.67,1.02-6.44,1.75-11.08,1.5-9.35,3.58-22.27,5.77-36.56,2.19-14.29,4.04-27.23,5.39-36.57.63-4.66,1.15-8.44,1.51-11.11.17-1.27.32-2.28.43-3.02,0-.32.09-.58.12-.79-.01-.1,0-.2.01-.31Z"/><path class="k" d="M359.42,507.13c-.2.03-.4.03-.6,0l-1.73-.15c-1.5-.14-3.65-.43-6.31-.85-6.92-1.14-13.75-2.77-20.43-4.87-3.91-1.25-7.65-2.59-10.93-3.91-3.28-1.32-6.22-2.65-8.62-3.86-1.21-.58-2.29-1.15-3.28-1.65-.98-.5-1.76-.94-2.4-1.32l-1.5-.87c-.18-.09-.35-.21-.5-.34.2.06.39.14.57.24l1.54.78c.66.36,1.47.76,2.44,1.23.96.47,2.04,1.02,3.28,1.56,2.42,1.16,5.35,2.4,8.64,3.74,3.29,1.33,6.97,2.62,10.87,3.86,6.66,2.1,13.45,3.77,20.32,5.02,2.64.48,4.79.83,6.27,1.04l1.7.26c.22,0,.44.04.65.11Z"/><g class="c"><path class="e" d="M308.92,339.18c-3.88-4.69-6.48-10.71-9.77-15.81-9.48,5.75-18.27,12.55-26.22,20.27,7.65-4.37,15.3-8.4,22.74-13.11l13.82,17.9c.29-5.78.58-11.57.87-17.35l-1.44,8.11Z"/></g><g class="c"><path class="e" d="M358.46,365.54c-2.49,19.23-4.76,43.07-8.74,62.4,3.82-9.58,7.55-19.24,9.66-29.33,2.27-10.93,2.59-22.49-.92-33.08Z"/></g><path class="p" d="M236,427.71s-6.67,3.41-7.65,6.16c-.56,1.85-.56,3.83,0,5.68l3.61,11.86v12.34s2.9,12.53,5.65,13.81c2.75,1.28,7.65,1.09,10.93-4.07,1.87-2.93,3.34-6.1,4.37-9.42l5.68-23.55,1.63-12.02-15.43,7.96-4.37,5.99-4.26-6.8s3.47-3.41,3.2-5.53c-.27-2.12-3.35-2.41-3.35-2.41Z"/><path class="n" d="M232.4,436.61c0-.16.91-.15,1.94-.37,1.04-.22,1.85-.58,1.94-.44.09.14-.67.75-1.81.99-1.15.24-2.1-.04-2.06-.18Z"/><path class="k" d="M239.37,469.22l1.09-50.04c0-1.69.65-3.31,1.81-4.53,1.17-1.22,2.76-1.95,4.45-2.02l85.44-1.88c1.01.01,2,.25,2.91.71.9.45,1.69,1.11,2.3,1.91.61.8,1.03,1.74,1.23,2.73.2.99.16,2.01-.09,2.99l-12.81,54.46c-.31,1.46-1.13,2.77-2.3,3.7-1.17.93-2.63,1.43-4.13,1.4l-73.72-2.53c-1.73-.1-3.36-.87-4.51-2.16-1.16-1.29-1.76-2.99-1.67-4.72Z"/><path class="i" d="M293.3,425.85l-.68-.11c-.88-.05-1.76.23-2.43.81-.68.57-1.11,1.38-1.21,2.26-.1.88.15,1.76.68,2.47.54.7,1.32,1.18,2.2,1.32.87.14,1.77-.06,2.5-.56.73-.5,1.24-1.26,1.43-2.13.18-.87.03-1.77-.44-2.53-.46-.75-1.2-1.3-2.06-1.53Z"/><path class="o" d="M329.36,416.36c0,.16-18.27.6-40.81.98-22.54.38-40.81.58-40.82.41-.01-.16,18.27-.59,40.81-.98,22.54-.39,40.82-.57,40.82-.42Z"/><path class="p" d="M262.38,427.89s4.74-4.73,10.38-1.57c5.64,3.16,24.61,16.7,31.15,18.5,6.54,1.8,13.11,3.17,18.05,0,4.94-3.17,8.58-7.22,8.81-11.28.23-4.05,2.7-12.87,8.12-13.11l2.71,2.03s-1.09,13.11-1.09,18.73-5,13.56-5,13.56l-3.64,6.24,1.87,6.87s-2.26,10.38-7.9,15.8c-5.64,5.42-16.74,5.64-16.74,5.64l-36.06-22.56-33.62-9.93s.9-4.51,5.46-4.74c4.57-.23,11.96,2.82,11.96,2.82l-17.47-13.24c.3-1.37,1.14-2.57,2.32-3.34,1.18-.76,2.62-1.02,4-.73,5.46.68,24.83,12.02,24.83,12.02l-19.82-19.89s-.45-5.19,4.29-5.46c1.43-.01,2.85.31,4.13.94,1.28.64,2.4,1.56,3.26,2.71Z"/><path class="n" d="M290.4,449.89c-.43-.18-.84-.41-1.22-.69-.78-.47-1.88-1.17-3.28-2.05-2.7-1.77-6.43-4.26-10.38-7.21-3.41-2.49-6.65-5.2-9.7-8.12-1.16-1.09-2.04-2.11-2.62-2.8-.32-.33-.61-.7-.85-1.09.37.29.71.62,1.01.98.62.65,1.55,1.57,2.73,2.66,3.12,2.82,6.38,5.47,9.77,7.95,3.94,2.95,7.65,5.46,10.27,7.34l3.12,2.18c.41.24.8.52,1.15.84Z"/><path class="n" d="M278.42,454.82c-1.84-.68-3.57-1.64-5.11-2.85-1.64-1.06-3.12-2.36-4.37-3.86.12-.12,2.12,1.55,4.74,3.4,2.62,1.85,4.82,3.17,4.74,3.31Z"/><path class="n" d="M273.02,463.82c-3.2-1.42-6.32-3.02-9.35-4.77-3.12-1.59-6.15-3.34-9.07-5.27,3.2,1.43,6.32,3.02,9.34,4.77,3.12,1.59,6.15,3.34,9.08,5.27Z"/><path class="q" d="M331,189.54c-.58-2.17-1.63-4.18-3.08-5.89-1.45-1.71-3.26-3.08-5.3-4.01-4.1-1.81-8.46-2.94-12.91-3.35-15.67-2.23-31.96-3.29-47.11,1.37-7.53,1.9-14.21,6.27-18.96,12.41-3.82,5.62-6.86,13.78-4.16,19.67l3.69,34.32c2.3.23,4.62.23,6.92,0v-27.4c1.98.29,4,.18,5.93-.34,2.83-.81,5.36-2.41,7.31-4.61,1.95-2.2,3.24-4.9,3.71-7.8,2.17,3.08,5.26,5.38,8.83,6.58,3.57,1.2,7.43,1.23,11.01.08,3.59-1.15,6.72-3.41,8.93-6.45,2.21-3.05,3.4-6.72,3.38-10.48,1.85,3.32,4.55,6.08,7.83,8.02,3.27,1.94,6.99,2.97,10.8,3,7.69-.28,14.74-7.67,13.19-15.11Z"/><path class="q" d="M238.06,180.14c-.37.31-2.45-1.8-5.52-3.54-3.07-1.74-5.93-2.51-5.83-3.1.09-.59,3.26-.37,6.64,1.58,3.38,1.96,5.06,4.84,4.72,5.06Z"/><path class="q" d="M238.93,174.88c-.4.22-2.08-2.64-2.76-6.58-.67-2.35-.54-4.87.37-7.14.69,2.23,1.11,4.53,1.24,6.86.63,2.24,1.02,4.54,1.15,6.86Z"/><path class="p" d="M244.93,239.01c-.4-.18-16.16-5.46-16.31,10.79-.15,16.25,16.24,13.11,16.27,12.62.03-.49.04-23.41.04-23.41Z"/><path class="n" d="M239.97,256.19c-.08,0-.28.2-.76.42-.7.29-1.49.29-2.19,0-1.72-.65-3.14-3.4-3.19-6.34-.03-1.4.26-2.78.84-4.05.16-.52.44-.99.82-1.37.38-.38.85-.66,1.37-.82.33-.08.67-.04.98.1.3.15.55.39.69.7.21.46.1.79.19.81.09.02.36-.27.23-.94-.09-.4-.31-.77-.63-1.03-.45-.34-1.01-.5-1.56-.44-.67.13-1.3.42-1.82.86-.52.44-.93,1-1.17,1.64-.71,1.41-1.06,2.96-1.03,4.54.08,3.28,1.73,6.37,4.08,7.08.44.13.9.16,1.34.09.45-.07.88-.24,1.26-.49.53-.36.62-.72.57-.75Z"/><g class="r"><path class="m" d="M412.22,279.65c3.57-2.17,7.43-3.84,11.45-4.98l2.36-11.34,19.15-.33,2.77,11.24c4.06,1,7.98,2.53,11.63,4.57l9.7-6.35,13.78,13.31-6,9.9c2.16,3.58,3.84,7.43,4.98,11.45l11.34,2.37.33,19.14-11.24,2.77c-1,4.06-2.53,7.98-4.57,11.63l6.35,9.7-13.31,13.78-9.9-6c-3.58,2.16-7.43,3.84-11.45,4.99l-2.37,11.32-19.14.35-2.77-11.25c-4.06-1-7.98-2.53-11.63-4.57l-9.7,6.35-13.78-13.31,6-9.9c-2.16-3.58-3.84-7.43-4.99-11.45l-11.32-2.36-.35-19.15,11.25-2.77c.99-4.06,2.53-7.97,4.57-11.61l-6.35-9.7,13.31-13.78,9.9,6h0ZM422.43,305.17c-2.82,2.93-4.7,6.62-5.42,10.62-.72,4-.23,8.12,1.39,11.85,1.62,3.72,4.31,6.88,7.73,9.08,3.42,2.2,7.41,3.33,11.47,3.26,4.06-.07,8.01-1.35,11.35-3.66,3.34-2.31,5.92-5.57,7.41-9.35,1.49-3.78,1.83-7.92.97-11.89-.86-3.97-2.87-7.6-5.79-10.42-1.94-1.88-4.24-3.36-6.75-4.35-2.52-.99-5.2-1.48-7.91-1.43-2.7.05-5.37.63-7.85,1.71-2.48,1.08-4.72,2.64-6.6,4.59Z"/><path class="f" d="M282.75,20.29c2.27-1.37,4.71-2.43,7.26-3.16l1.5-7.19,12.15-.22,1.75,7.14c2.57.64,5.05,1.61,7.37,2.9l6.14-4.02,8.73,8.44-3.8,6.33c1.37,2.28,2.43,4.72,3.16,7.28l7.18,1.5.22,12.14-7.14,1.76c-.63,2.57-1.61,5.05-2.9,7.36l4.02,6.15-8.44,8.73-6.28-3.8c-2.27,1.37-4.71,2.43-7.26,3.15l-1.5,7.19-12.15.22-1.75-7.14c-2.58-.66-5.06-1.66-7.37-2.97l-6.14,4.02-8.73-8.44,3.8-6.28c-1.37-2.27-2.43-4.71-3.16-7.26l-7.18-1.44-.22-12.15,7.14-1.75c.63-2.58,1.61-5.06,2.9-7.37l-4.02-6.14,8.5-8.79,6.28,3.81h-.06ZM289.22,36.48c-1.79,1.85-2.99,4.2-3.45,6.73-.46,2.54-.15,5.15.87,7.51,1.03,2.36,2.73,4.37,4.9,5.76s4.7,2.11,7.27,2.07c2.58-.04,5.08-.85,7.2-2.32,2.12-1.47,3.75-3.53,4.7-5.93.95-2.4,1.16-5.02.61-7.54-.55-2.52-1.82-4.82-3.68-6.61-2.49-2.4-5.83-3.72-9.28-3.66-3.46.06-6.75,1.49-9.15,3.97Z"/><path class="g" d="M446.61,418.82c1.64-.99,3.4-1.76,5.24-2.27l1.08-5.18,8.75-.15,1.26,5.13c1.86.46,3.65,1.16,5.32,2.09l4.42-2.9,6.29,6.08-2.77,4.52c.99,1.64,1.76,3.4,2.29,5.24l5.17,1.08.15,8.75-5.13,1.26c-.46,1.85-1.16,3.64-2.09,5.31l2.9,4.44-6.08,6.29-4.52-2.77c-1.64.99-3.4,1.75-5.24,2.27l-1.08,5.18-8.75.15-1.27-5.11c-1.86-.45-3.64-1.15-5.31-2.08l-4.44,2.9-6.29-6.08,2.77-4.52c-.99-1.64-1.75-3.4-2.27-5.24l-5.18-1.08-.15-8.75,5.14-1.26c.45-1.86,1.15-3.65,2.08-5.32l-2.9-4.42,6.08-6.29,4.52,2.77v-.03ZM451.28,430.47c-1.29,1.34-2.16,3.03-2.49,4.86-.33,1.83-.11,3.72.63,5.42.74,1.71,1.97,3.15,3.54,4.16,1.56,1.01,3.39,1.52,5.25,1.49,1.86-.03,3.67-.62,5.19-1.68,1.53-1.06,2.71-2.55,3.39-4.28.68-1.73.83-3.62.44-5.44-.4-1.82-1.32-3.47-2.66-4.76-1.79-1.73-4.2-2.67-6.69-2.63-2.49.04-4.86,1.07-6.59,2.86Z"/><path class="k" d="M1158.57,555.56c0,.21-205.04.36-457.91.36s-457.97-.12-457.97-.36,205-.36,457.97-.36,457.91.17,457.91.36Z"/><path class="k" d="M335.22,515.96s-5.86-40.26-5.36-63.69c.5-23.42,0-49.77,0-49.77h2.69s-1.83,46.49.17,74.54c2,28.05,7.22,38.92,7.22,38.92h-4.68"/><path class="o" d="M352.67,357.19c-.43-1.43-1.29-2.69-2.47-3.6-1.71-1.08-3.95-.62-5.86,0-8.15,2.88-15.38,18.09-18.68,26.08l10.82,36.48c19.54-18.09,22.92-41.93,16.19-58.96Z"/><path class="k" d="M349.58,355.07c-.04.16-.09.32-.17.47-.14.35-.3.79-.53,1.39-.47,1.15-1.14,2.77-1.94,4.89-1.59,4.16-3.62,9.92-5.43,16.45-1.82,6.53-3.05,12.54-3.83,16.91-.39,2.19-.68,3.96-.86,5.18-.1.58-.17,1.04-.24,1.39-.02.17-.05.33-.11.48-.02-.17-.02-.33,0-.5,0-.37.08-.85.15-1.39.12-1.25.37-3.02.72-5.23.91-5.72,2.15-11.39,3.7-16.98,1.54-5.58,3.39-11.07,5.54-16.45.83-2.05,1.55-3.71,2.08-4.84.24-.53.44-.96.6-1.29.07-.18.18-.35.3-.5Z"/><path class="o" d="M331.67,424.94c-4.91-2.81-9.02-6.84-11.93-11.69-2.91-4.85-4.53-10.37-4.7-16.03-.39-8.09,2.11-16.04,4.92-23.63.17-.69.58-1.3,1.15-1.72.46-.17.96-.22,1.44-.15.49.08.94.27,1.33.57,7.37,4.16,11.85,12.2,14.22,20.35,1.7,5.4,2.27,11.1,1.66,16.73-.92,5.92-3.74,11.39-8.02,15.58"/><path class="k" d="M331.67,424.94c-.02-.16-.02-.32,0-.49v-1.39c0-1.21,0-2.97-.15-5.13-.29-5.65-.91-11.28-1.87-16.85-1.14-6.54-2.49-12.39-3.51-16.63-.5-2.07-.9-3.76-1.19-5-.14-.55-.24-1-.32-1.39-.05-.16-.07-.32-.08-.49.08.14.13.3.17.46l.4,1.39c.33,1.16.79,2.87,1.39,4.98,1.09,4.16,2.51,10.06,3.63,16.63.98,5.59,1.57,11.25,1.76,16.92v6.54c-.05.16-.13.31-.22.44Z"/><g class="s"><path class="e" d="M331.67,424.94c-4.91-2.81-9.02-6.84-11.93-11.69-2.91-4.85-4.53-10.37-4.7-16.03-.39-8.09,2.11-16.04,4.92-23.63.17-.69.58-1.3,1.15-1.72.46-.17.96-.22,1.44-.15.49.08.94.27,1.33.57,7.37,4.16,11.85,12.2,14.22,20.35,1.7,5.4,2.27,11.1,1.66,16.73-.92,5.92-3.74,11.39-8.02,15.58"/></g><path class="o" d="M343.12,486.49c9.99,2.21,18.21,9.25,27.84,12.67,6.38,2.27,13.58,3.06,18.67,7.52-1.22-3.09-4.16-5.14-6.93-6.93-7.93-4.96-16.4-9-25.24-12.06-4.53-1.57-9.44-2.87-14.07-1.58"/><path class="o" d="M328.68,495.43c-12.47-.19-25.67-10.84-38.11-11.47,13.03-4.16,31.68-.78,38.11,11.47Z"/><path class="o" d="M333.57,465.44c6.45-2.12,13.32-2.6,20-1.39,6.64,1.22,13.17,2.99,19.51,5.29-.65-4.34-4.16-7.6-7.46-10.48-2.42-2.26-5.04-4.28-7.85-6.03-2.82-1.76-6.08-2.68-9.4-2.65-1.99.13-3.93.66-5.72,1.56-1.78.9-3.36,2.15-4.65,3.67-2.53,2.76-4.1,6.27-4.45,9.99"/><path class="o" d="M307.9,451.64c-7.82-6.72-19.79-6.07-30.15-5.84,16.63,7.92,32.31,17.68,46.75,29.11.43-7.29-6.65-14.75-16.6-23.27Z"/><g class="s"><path class="e" d="M307.9,451.64c-7.82-6.72-19.79-6.07-30.15-5.84,16.63,7.92,32.31,17.68,46.75,29.11.43-7.29-6.65-14.75-16.6-23.27Z"/></g><path class="o" d="M337.1,442.35c3.85-2.66,7.9-5.02,12.11-7.04,4.16-1.87,8.01-4.88,12.02-7.04,5.18-2.77,9.7-6.72,14.44-10.2,4.74-3.48,9.99-6.62,15.83-7.55-4.8-.85-9.73-.57-14.4.83-4.65,1.4-9.18,3.17-13.55,5.28-6.14,2.77-12.39,5.54-17.41,10.09-5.02,4.55-9.56,8.93-9.04,15.63Z"/><path class="k" d="M370.77,495.43c-.14-.04-.27-.1-.39-.17l-1.1-.57c-.94-.5-2.29-1.25-3.99-2.09-.85-.44-1.77-.92-2.77-1.39s-2.09-1-3.26-1.5c-2.48-1.11-5.06-2.01-7.69-2.68-2.62-.73-5.37-.8-8.02-.21-1.15.25-2.29.59-3.4,1.01-.96.38-1.89.84-2.77,1.39-1.27.8-2.43,1.75-3.45,2.86-.72.78-1.08,1.25-1.11,1.22-.03-.03,0-.14.22-.36.22-.22.42-.57.75-.98.99-1.15,2.14-2.16,3.41-3,.88-.57,1.81-1.07,2.77-1.48,1.12-.45,2.27-.82,3.45-1.08,2.71-.63,5.54-.57,8.22.17,2.67.69,5.26,1.61,7.76,2.77,1.16.52,2.25,1.03,3.24,1.54,1.01.48,1.94.97,2.77,1.38,1.69.89,3.02,1.68,3.94,2.22l1.05.64c.21.21.36.29.36.31Z"/><path class="k" d="M319.35,489.26c.27.04.54.12.79.24.7.25,1.38.54,2.04.89,2.18,1.09,4.19,2.49,5.97,4.16,1.77,1.71,3.28,3.66,4.48,5.81.36.65.68,1.32.97,2,.12.24.21.51.25.78,0,0-.54-1.03-1.5-2.62-1.25-2.06-2.77-3.96-4.5-5.63-1.74-1.67-3.7-3.11-5.82-4.28-1.62-.86-2.7-1.33-2.67-1.33Z"/><path class="k" d="M291.69,451c.18.04.36.09.53.17l1.51.53,2.37.87c.91.35,1.91.85,3.05,1.39,5.87,2.72,11.34,6.2,16.29,10.37,2.7,2.32,5.23,4.81,7.6,7.47,1.91,2.18,3.71,4.46,5.38,6.83,1.39,2.02,2.52,3.7,3.26,4.86l.86,1.39c.11.15.21.31.28.49-.14-.13-.26-.27-.36-.43-.21-.29-.53-.72-.91-1.3-.79-1.14-1.91-2.77-3.37-4.78-1.46-2.01-3.28-4.3-5.45-6.74-2.36-2.63-4.89-5.11-7.57-7.41-4.92-4.14-10.34-7.64-16.13-10.42-1.11-.51-2.11-1.04-3.01-1.39l-2.34-1.04-1.47-.61-.5-.24Z"/><path class="k" d="M352.34,458.41c-.34-.01-.67-.06-1-.14l-1.15-.21c-.44-.08-.97-.08-1.54-.15-2.97-.25-5.95.34-8.59,1.7-1.46.75-2.79,1.73-3.94,2.9-.95.93-1.79,1.98-2.51,3.1-.65,1.06-1.23,2.15-1.73,3.28.05-.33.14-.66.26-.97.31-.87.71-1.7,1.19-2.48.7-1.18,1.53-2.26,2.5-3.23,1.16-1.21,2.51-2.23,3.99-3.01,2.71-1.41,5.79-1.97,8.83-1.61.52.04,1.04.11,1.55.21l1.15.29c.34.06.67.16.98.3Z"/><path class="k" d="M364.91,419.41c-.15.11-.3.21-.47.29l-1.39.76c-1.22.65-2.97,1.62-5.09,2.87-2.12,1.25-4.59,2.77-7.23,4.71-2.89,2.02-5.6,4.29-8.09,6.78-1.29,1.28-2.4,2.72-3.31,4.28-.82,1.58-1.59,3.09-2.31,4.56-1.3,2.57-2.46,5.21-3.48,7.9-.67,1.81-1.23,3.66-1.69,5.54-.32,1.39-.43,2.09-.47,2.09-.03-.18-.03-.37,0-.55,0-.36.12-.9.26-1.58.39-1.91.91-3.79,1.57-5.63.98-2.72,2.11-5.39,3.4-7.98.72-1.47,1.5-3.01,2.3-4.57.92-1.61,2.06-3.09,3.38-4.39,2.51-2.51,5.24-4.79,8.16-6.81,2.67-1.88,5.2-3.42,7.33-4.66,2.13-1.23,3.92-2.13,5.16-2.77l1.39-.68c.19-.08.39-.13.6-.17Z"/><path class="k" d="M329.84,457.28c-.14-.34-.22-.69-.25-1.05-.15-.76-.33-1.73-.55-2.88-.6-3.17-1.39-6.3-2.36-9.38-1.01-3.07-2.21-6.07-3.58-9-.49-1.07-.9-1.97-1.22-2.69-.17-.32-.31-.65-.4-1,.22.29.4.6.55.93.33.61.8,1.5,1.39,2.62,1.47,2.9,2.71,5.91,3.71,8.99.99,3.09,1.75,6.26,2.26,9.47.19,1.22.33,2.22.4,2.91.05.36.06.72.04,1.08Z"/><path class="o" d="M328.93,428.82c-.39-4.74-1.77-9.34-4.06-13.5-3.09-5.73-7.39-10.72-12.61-14.61-5.22-3.89-11.23-6.59-17.6-7.91,9.33,13.86,18.66,27.76,27.97,41.69l3.62,7.43c2.28-3.96,3.22-8.56,2.69-13.1Z"/><path class="j" d="M369.05,510.98h-65.03v11.53h65.03v-11.53Z"/><path class="j" d="M308.87,520.21l5.54,35.77h43.17l6.6-35.77h-55.31Z"/><path class="k" d="M369.01,522.53c0,.12-14.66.24-32.75.24s-32.76-.11-32.76-.24,14.66-.22,32.76-.22,32.75.08,32.75.22Z"/><path class="i" d="M699.3,234.72h-248.41v149.31h248.41v-149.31Z"/><path class="f" d="M699.3,234.72h-248.41v22.95h248.41v-22.95Z"/><path class="i" d="M467.79,246.19c0,.66-.19,1.3-.55,1.84-.36.55-.88.97-1.48,1.23-.61.25-1.27.32-1.91.19-.64-.13-1.23-.44-1.7-.9-.46-.46-.78-1.05-.91-1.7-.13-.64-.06-1.31.19-1.92.25-.61.68-1.12,1.22-1.49.55-.36,1.19-.56,1.84-.56.88,0,1.72.35,2.34.97.62.62.97,1.46.98,2.33Z"/><path class="i" d="M478.95,246.19c0,.66-.19,1.3-.55,1.85-.36.55-.88.97-1.49,1.23-.61.25-1.27.32-1.92.19-.64-.13-1.23-.44-1.7-.91-.46-.46-.78-1.06-.91-1.7-.13-.64-.06-1.31.19-1.92.25-.61.68-1.12,1.23-1.49s1.19-.56,1.85-.55c.87,0,1.71.35,2.33.97.62.62.97,1.46.97,2.33Z"/><path class="i" d="M490.1,246.19c0,.66-.19,1.3-.55,1.84-.36.55-.88.97-1.48,1.23-.61.25-1.27.32-1.91.19-.64-.13-1.23-.44-1.7-.9-.46-.46-.78-1.05-.91-1.7-.13-.64-.06-1.31.19-1.92.25-.61.67-1.12,1.22-1.49.55-.36,1.19-.56,1.84-.56.88,0,1.72.35,2.34.97.62.62.97,1.46.98,2.33Z"/><path class="k" d="M699.25,384.04v-10.52c0-6.93,0-16.96-.08-29.91,0-25.88-.08-63.17-.14-108.9l.28.29h-248.39l.36-.36v149.32l-.33-.35,178.79.17,51.28.1h18.39-18.24l-51.21.32-178.98.17h-.33v-150.02h.37l248.39.08h.28v.28c0,45.74-.11,83.16-.14,109.06,0,12.93,0,22.99-.08,29.85v7.78c0,1.77-.21,2.63-.21,2.63Z"/><path class="j" d="M488.66,282.82h-10.56v77.31h10.56v-77.31Z"/><path class="j" d="M509.05,309.07h-10.56v51.05h10.56v-51.05Z"/><path class="j" d="M529.42,292.43h-10.56v68.09h10.56v-68.09Z"/><path class="j" d="M549.81,285.8h-10.56v74.33h10.56v-74.33Z"/><path class="j" d="M570.18,310.64h-10.56v49.48h10.56v-49.48Z"/><g class="s"><path class="i" d="M509.05,309.07h-10.56v51.05h10.56v-51.05Z"/></g><g class="s"><path class="i" d="M549.81,285.8h-10.56v74.33h10.56v-74.33Z"/></g><path class="k" d="M687.26,360.13c0,.19-49.13.36-109.73.36s-109.74-.12-109.74-.36,49.12-.37,109.74-.37,109.73.17,109.73.37Z"/><path class="i" d="M393.61,125.54h-132.37v132.37h132.37V125.54Z"/><path class="o" d="M330.26,202.04l36.49.5c-.28,19.4-16.63,35.31-36.49,35.31h-.22l.22-35.81Z"/><path class="j" d="M324.48,196.82l-.51,35.81c-19.83-.28-36.04-16.35-36.04-35.81s16.48-35.81,36.51-35.81,36.51,16.17,36.51,35.81h-36.46Z"/><path class="f" d="M393.49,125.54h-132.25v26.04h132.25v-26.04Z"/><path class="i" d="M276.66,142.31c2.07,0,3.76-1.68,3.76-3.76s-1.68-3.76-3.76-3.76-3.76,1.68-3.76,3.76,1.68,3.76,3.76,3.76Z"/><path class="i" d="M289.32,142.31c2.07,0,3.76-1.68,3.76-3.76s-1.68-3.76-3.76-3.76-3.76,1.68-3.76,3.76,1.68,3.76,3.76,3.76Z"/><path class="i" d="M305.73,138.61c0,.74-.22,1.47-.63,2.09-.41.62-1,1.1-1.69,1.38-.69.28-1.44.36-2.17.21-.73-.14-1.4-.5-1.92-1.03-.53-.53-.88-1.19-1.03-1.92-.15-.73-.07-1.48.21-2.17.28-.69.77-1.27,1.38-1.69.62-.41,1.34-.63,2.09-.63,1,0,1.95.4,2.66,1.1.7.7,1.1,1.66,1.1,2.66Z"/><path class="k" d="M393.61,257.92v-9.59c0-6.22,0-15.34-.08-26.93,0-23.16-.1-56.2-.17-95.85l.32.3h-132.36l.36-.36v132.37l-.32-.32,95.87.15,26.93.08h9.42-9.45l-26.86.08-95.99.36h-.3V125.18h132.97v.32c0,39.72-.11,72.85-.15,96.06,0,11.55-.07,20.64-.08,26.85v8.86c0,.4-.1.65-.1.65Z"/><path class="i" d="M717.19-56.27h-360.92V204.2h360.92V-56.27Z"/><path class="m" d="M652.18,2.77h-85.53c-14.22,0-25.75,11.53-25.75,25.75v8.55c0,14.22,11.53,25.75,25.75,25.75h85.53c14.22,0,25.75-11.53,25.75-25.75v-8.55c0-14.22-11.53-25.75-25.75-25.75Z"/><path class="g" d="M382.14,69.83c-.13-11.03,3.02-21.86,9.04-31.1,6.02-9.25,14.64-16.51,24.78-20.86,10.14-4.35,21.34-5.6,32.19-3.59,10.85,2.01,20.86,7.19,28.77,14.88,7.91,7.69,13.36,17.56,15.67,28.35,2.31,10.79,1.37,22.02-2.7,32.28-4.07,10.26-11.09,19.08-20.17,25.35-9.08,6.27-19.81,9.71-30.84,9.89-14.84.19-29.14-5.52-39.77-15.87-10.63-10.35-16.73-24.49-16.95-39.32ZM464.66,68.44c-.11-5.27-1.78-10.39-4.79-14.71-3.01-4.32-7.24-7.66-12.15-9.58-4.91-1.92-10.27-2.35-15.42-1.23-5.15,1.12-9.85,3.74-13.52,7.53-3.66,3.79-6.12,8.58-7.07,13.77-.95,5.19-.33,10.53,1.76,15.37,2.09,4.84,5.57,8.95,9.99,11.82,4.42,2.87,9.6,4.36,14.87,4.29,7.1-.12,13.85-3.05,18.79-8.15,4.94-5.1,7.65-11.95,7.54-19.04v-.06Z"/><path class="o" d="M382.13,69.83c-.26-14.84,5.38-29.17,15.68-39.85,10.3-10.68,24.41-16.85,39.25-17.14l.47,29.27c-7.11.11-13.89,3.05-18.84,8.16-4.95,5.11-7.66,11.98-7.55,19.09.11,7.11,3.05,13.89,8.16,18.84,5.11,4.95,11.98,7.67,19.09,7.55l.47,29.27c-14.84.19-29.14-5.52-39.78-15.86-10.64-10.35-16.73-24.49-16.95-39.33Z"/><path class="k" d="M464.66,68.5c.02.14.02.29,0,.43v1.28c0,.69-.04,1.38-.14,2.07-.09.93-.25,1.86-.47,2.77-.54,2.54-1.48,4.99-2.77,7.25-1.68,3.02-3.94,5.68-6.65,7.83-3.52,2.84-7.71,4.74-12.16,5.51-4.46.77-9.04.4-13.31-1.09-1.22-.42-2.41-.92-3.56-1.5-1.16-.62-2.28-1.32-3.35-2.09-1.09-.79-2.12-1.64-3.1-2.56-.97-.98-1.87-2.01-2.7-3.1-1.72-2.24-3.07-4.74-3.99-7.41-.91-2.76-1.41-5.64-1.47-8.55-.02-2.91.41-5.8,1.26-8.58.83-2.7,2.09-5.25,3.74-7.54,1.55-2.24,3.45-4.22,5.63-5.86,1.03-.78,2.11-1.5,3.23-2.13,1.13-.62,2.3-1.16,3.51-1.61,5.87-2.25,12.35-2.35,18.3-.31,5.95,2.05,10.98,6.12,14.23,11.51,1.36,2.22,2.38,4.63,3.01,7.15.25.91.44,1.84.55,2.77.13.68.2,1.36.21,2.05v1.27c.02.15.02.3,0,.44-.04-.14-.07-.28-.07-.43,0-.33-.07-.75-.12-1.28-.04-.68-.12-1.37-.26-2.04-.14-.94-.35-1.86-.62-2.77-.66-2.48-1.7-4.85-3.08-7.01-1.82-2.89-4.17-5.41-6.93-7.41-3.55-2.63-7.72-4.32-12.1-4.92-4.38-.59-8.85-.06-12.97,1.54-2.38.9-4.61,2.16-6.61,3.74-2.08,1.61-3.89,3.56-5.35,5.75-1.6,2.24-2.83,4.72-3.64,7.35-.82,2.69-1.23,5.5-1.22,8.32.1,5.61,1.98,11.05,5.36,15.52,1.57,2.14,3.48,4.02,5.65,5.54,1.03.76,2.12,1.44,3.26,2.04,1.12.57,2.28,1.06,3.47,1.47,4.17,1.47,8.65,1.86,13.01,1.13,4.36-.73,8.47-2.55,11.94-5.29,2.67-2.1,4.92-4.69,6.62-7.64,1.3-2.21,2.27-4.61,2.86-7.11.25-.91.43-1.84.53-2.77.13-.68.2-1.36.21-2.05,0-.53.07-.94.08-1.28,0-.13,0-.26.03-.39Z"/><path class="k" d="M382.13,69.83s0,.3.1.9c.1.6.11,1.51.21,2.65,0,.6.1,1.25.15,1.95.06.71.25,1.5.39,2.34.14.85.3,1.75.47,2.77.21,1.02.47,2.04.78,3.04,1.38,5.21,3.55,10.18,6.42,14.75,3.74,6.08,8.62,11.38,14.37,15.62l2.43,1.76c.85.55,1.75,1.04,2.63,1.58.89.54,1.77,1.1,2.77,1.54l2.91,1.39,1.47.68,1.55.54,3.15,1.1c1.07.35,2.19.55,3.3.83,1.11.31,2.23.55,3.37.72,2.33.4,4.69.63,7.05.71,1.19,0,2.41.12,3.63.08l3.67-.25c.62,0,1.25,0,1.86-.15l1.84-.32c1.23-.24,2.49-.39,3.74-.68,5.07-1.24,9.97-3.14,14.55-5.64,1.16-.66,2.27-1.39,3.42-2.13,1.16-.72,2.27-1.51,3.31-2.38,2.19-1.7,4.26-3.56,6.2-5.54l2.77-3.16.69-.79.62-.86,1.23-1.73,1.25-1.73,1.09-1.86,1.08-1.86.54-.93.46-.98,1.82-3.95,1.39-4.16c3.63-11.45,3.43-23.76-.55-35.09l-1.58-4.16c-.64-1.3-1.29-2.61-1.94-3.89l-.49-.97-.57-.91-1.15-1.83-1.14-1.82-1.3-1.69-1.3-1.69-.64-.83-.73-.78c-.96-1.04-1.91-2.05-2.87-3.08-2-1.9-4.12-3.67-6.36-5.28-1.07-.84-2.21-1.6-3.4-2.27-1.16-.68-2.3-1.39-3.48-2.04-2.36-1.19-4.8-2.22-7.3-3.09-2.43-.85-4.92-1.54-7.44-2.07-1.25-.25-2.51-.37-3.74-.57l-1.87-.25c-.61-.08-1.23,0-1.86-.1l-3.69-.12c-1.22,0-2.43.14-3.62.19-2.36.15-4.71.46-7.03.94-1.13.2-2.25.47-3.35.82-1.1.32-2.2.57-3.26.94l-3.1,1.21-1.54.58-1.46.73-2.87,1.39c-.94.46-1.79,1.1-2.67,1.62-.89.53-1.76,1.08-2.59,1.66l-2.37,1.83c-5.61,4.42-10.31,9.88-13.86,16.08-2.72,4.66-4.72,9.7-5.93,14.95-.28,1.01-.51,2.03-.68,3.06-.14.97-.28,1.87-.39,2.77-.11.9-.26,1.62-.32,2.33-.06.71,0,1.39-.08,1.97,0,1.15-.1,2.02-.12,2.65-.03.62-.07.91-.07.91v-5.54c0-.72.18-1.5.28-2.34.1-.85.24-1.77.36-2.77.16-1.04.38-2.07.65-3.09,1.18-5.29,3.15-10.38,5.85-15.08,3.53-6.27,8.24-11.8,13.86-16.29l2.38-1.86c.85-.6,1.73-1.12,2.61-1.69.87-.57,1.75-1.18,2.7-1.65l2.9-1.39,1.39-.75,1.55-.6,3.15-1.22c1.05-.39,2.18-.64,3.28-.97,1.11-.35,2.25-.63,3.4-.85,2.34-.48,4.71-.8,7.1-.96,1.21,0,2.43-.21,3.66-.22l3.73.12c.62,0,1.25,0,1.89.1l1.87.25c1.26.19,2.54.32,3.8.55,2.56.53,5.08,1.23,7.54,2.09,2.6.86,5.14,1.91,7.6,3.13,1.19.64,2.36,1.39,3.53,2.05,1.2.68,2.35,1.45,3.44,2.29,2.27,1.64,4.43,3.43,6.46,5.35l2.9,3.1.73.79.66.85,1.3,1.7,1.39,1.72,1.15,1.83,1.16,1.86.58.93.48.97,1.98,3.95c.53,1.39,1.05,2.77,1.59,4.16,4.04,11.47,4.24,23.95.55,35.54l-1.39,4.16c-.61,1.39-1.23,2.67-1.84,4.01l-.46,1-.55.94-1.1,1.89-1.11,1.87-1.26,1.75-1.26,1.75-.62.87-.71.8c-.94,1.08-1.87,2.15-2.77,3.2-1.97,1.99-4.06,3.84-6.28,5.54-1.06.87-2.18,1.68-3.35,2.4-1.16.72-2.29,1.48-3.47,2.16-2.35,1.28-4.78,2.4-7.28,3.35-2.44.94-4.93,1.72-7.47,2.33-1.25.29-2.52.44-3.77.68l-1.87.32c-.62.1-1.26.1-1.88.15l-3.71.24c-1.23,0-2.45,0-3.67-.08-2.39-.09-4.77-.33-7.12-.73-1.15-.18-2.29-.42-3.41-.73-1.12-.29-2.25-.5-3.33-.86l-3.17-1.11-1.57-.55-1.5-.69-2.92-1.39c-.97-.44-1.84-1.05-2.77-1.57-.93-.51-1.8-1.04-2.66-1.59l-2.44-1.79c-5.82-4.25-10.75-9.6-14.54-15.73-2.86-4.61-5-9.63-6.33-14.89-.3-1.03-.54-2.07-.72-3.13l-.46-2.77c-.12-.85-.28-1.62-.35-2.34-.07-.72-.08-1.39-.11-1.97,0-1.15-.11-2.04-.15-2.66-.04-.62-.04-.83-.04-.83Z"/><path class="j" d="M432.04,8.33c36.04-.58,64.75,27.37,65.33,63.56l-34.09.54c-.28-17.3-13.43-28.19-30.66-27.91l-.58-36.19Z"/><path class="k" d="M432.04,8.33v2.58c0,1.71.1,4.16.18,7.26.14,6.28.32,15.25.57,26.33l-.28-.26c3.46-.05,6.9.37,10.24,1.26,3.68.97,7.13,2.64,10.16,4.93,3.26,2.5,5.9,5.71,7.71,9.4,1.88,3.93,2.87,8.23,2.91,12.58l-.36-.35,26.33-.43,7.69-.12-.35.36c-.19-6.85-1.36-13.65-3.48-20.17l-1.55-4.57c-.65-1.48-1.39-2.91-2.09-4.34-.68-1.44-1.46-2.83-2.33-4.16-.76-1.33-1.61-2.61-2.52-3.84-.91-1.21-1.83-2.38-2.77-3.56-.94-1.18-1.98-2.15-2.94-3.22l-1.46-1.55-1.57-1.39-3.08-2.77c-3.91-3.07-8.15-5.69-12.64-7.8l-3.02-1.39c-1.01-.4-2.01-.72-2.98-1.07l-2.77-.97c-.91-.29-1.83-.47-2.77-.69l-2.54-.61-1.19-.29-1.18-.17-4.16-.6c-1.1-.15-2.21-.24-3.33-.26l-2.45-.12h-1.46s-.54-.01-.54-.01h4.48c1.14-.02,2.27.05,3.4.19l4.16.53,1.18.17,1.21.26,2.56.6c.87.22,1.8.37,2.77.67l2.77.96c.97.35,1.98.65,2.99,1.04l3.06,1.39c4.55,2.1,8.85,4.71,12.81,7.79,1.01.9,2.05,1.8,3.1,2.77l1.59,1.39,1.47,1.57c.97,1.07,2.01,2.11,2.98,3.24l2.77,3.59c.93,1.24,1.79,2.53,2.56,3.87.88,1.33,1.67,2.72,2.36,4.16.69,1.39,1.47,2.87,2.12,4.38l1.76,4.64c2.15,6.59,3.34,13.45,3.53,20.37v.36h-.36l-7.69.12-26.33.42h-.36v-.35c-.01-4.25-.96-8.45-2.77-12.29-1.75-3.6-4.31-6.75-7.48-9.19-2.96-2.25-6.33-3.91-9.92-4.88-3.28-.89-6.67-1.32-10.08-1.29h-.28v-.26c-.12-11.09-.22-20.19-.28-26.53v-9.05c-.1-.42-.08-.62-.08-.62Z"/><path class="k" d="M661.82,22.93h-101.45c-.57,0-1.11-.22-1.51-.62-.4-.4-.64-.94-.65-1.5,0-.57.23-1.12.63-1.53.41-.41.96-.63,1.53-.63h101.45c.57,0,1.12.23,1.52.64.4.41.63.95.63,1.52-.01.56-.24,1.1-.64,1.5-.4.4-.94.62-1.51.62Z"/><path class="k" d="M661.82,34.43h-101.45c-.57,0-1.12-.23-1.53-.63-.41-.41-.63-.96-.63-1.53,0-.28.05-.57.16-.83.11-.26.27-.5.47-.71.2-.2.44-.36.7-.47.26-.11.55-.17.83-.17h101.45c.28,0,.57.06.83.17.26.11.5.27.7.47s.36.44.47.71c.11.26.16.55.16.83,0,.57-.23,1.12-.63,1.53-.41.41-.96.63-1.53.63Z"/><path class="k" d="M606.47,45.93h-46.1c-.57,0-1.12-.23-1.53-.63-.41-.41-.63-.96-.63-1.53,0-.28.05-.57.16-.83.11-.26.27-.5.47-.71.2-.2.44-.36.7-.47.26-.11.55-.17.83-.17h46.1c.28,0,.57.05.83.16s.5.27.71.47c.2.2.36.44.47.7.11.26.17.55.17.83,0,.29-.05.57-.16.83-.11.27-.27.51-.47.71s-.44.36-.71.47c-.27.11-.55.16-.84.16Z"/><path class="m" d="M652.18,76.24h-85.53c-14.22,0-25.75,11.53-25.75,25.75v8.55c0,14.22,11.53,25.75,25.75,25.75h85.53c14.22,0,25.75-11.53,25.75-25.75v-8.55c0-14.22-11.53-25.75-25.75-25.75Z"/><path class="m" d="M664.6,173.75h-113.28c-3.15,0-6.17-1.26-8.39-3.48-2.22-2.23-3.47-5.25-3.47-8.39,0-1.56.31-3.1.9-4.54.6-1.44,1.47-2.75,2.57-3.85,1.1-1.1,2.41-1.98,3.85-2.57,1.44-.6,2.98-.9,4.54-.9h113.28c3.15,0,6.17,1.25,8.39,3.47,2.23,2.22,3.48,5.24,3.48,8.39,0,3.15-1.25,6.17-3.48,8.4-2.23,2.23-5.25,3.48-8.4,3.48Z"/><path class="k" d="M661.14,96.92h-101.44c-.57,0-1.12-.23-1.53-.63-.41-.41-.63-.96-.63-1.53s.23-1.12.63-1.53c.41-.41.96-.63,1.53-.63h101.44c.28,0,.57.06.83.16.26.11.5.27.7.47.2.2.36.44.47.7.11.26.16.54.16.83s-.06.57-.16.83c-.11.26-.27.5-.47.7s-.44.36-.7.47c-.26.11-.54.16-.83.16Z"/><path class="k" d="M656.82,164.3h-101.44c-.57,0-1.12-.23-1.53-.63-.41-.41-.63-.96-.63-1.53s.23-1.12.63-1.53c.41-.41.96-.63,1.53-.63h101.44c.29,0,.59.04.86.15.27.11.52.27.73.47.21.21.37.45.48.72.11.27.16.56.16.86,0,.29-.07.57-.18.83-.12.26-.28.5-.49.7-.21.2-.45.35-.72.45s-.55.15-.84.14Z"/><path class="k" d="M661.14,108.43h-101.44c-.57,0-1.12-.23-1.53-.63-.41-.41-.63-.96-.63-1.53s.23-1.12.63-1.53c.41-.41.96-.63,1.53-.63h101.44c.28,0,.57.06.83.16.26.11.5.27.7.47.2.2.36.44.47.7.11.26.16.54.16.83s-.06.57-.16.83c-.11.26-.27.5-.47.7-.2.2-.44.36-.7.47-.26.11-.54.16-.83.16Z"/><path class="k" d="M605.8,119.93h-46.1c-.57,0-1.12-.23-1.53-.63-.41-.41-.63-.96-.63-1.53s.23-1.12.63-1.53c.41-.41.96-.63,1.53-.63h46.1c.57,0,1.12.23,1.53.63.41.41.63.96.63,1.53s-.23,1.12-.63,1.53c-.41.41-.96.63-1.53.63Z"/><path class="k" d="M533.82,15.61c-.63.1-1.26.15-1.9.14l-5.17.11c-4.37,0-10.41.11-17.06.11h-7.78l.25-.1c-3.4,3.35-6.32,6.21-8.41,8.22l-2.4,2.26c-.27.3-.59.56-.93.78.22-.34.48-.65.78-.93l2.33-2.47c2-2.09,4.86-5.02,8.22-8.41l.1-.1h7.91c6.65,0,12.7,0,17.06.1l5.17.11c.61,0,1.23.06,1.83.18Z"/><path class="k" d="M532.32,18.59c1.59,0,2.88-1.29,2.88-2.88s-1.29-2.88-2.88-2.88-2.88,1.29-2.88,2.88,1.29,2.88,2.88,2.88Z"/><path class="k" d="M532.32,105.24c1.59,0,2.88-1.29,2.88-2.88s-1.29-2.88-2.88-2.88-2.88,1.29-2.88,2.88,1.29,2.88,2.88,2.88Z"/><path class="k" d="M530.41,102.87c-1.61.19-3.22.25-4.84.21h-11.68l-11.67-.11-3.55-.08c-.43.03-.86.03-1.29,0,1.59-.32,3.21-.45,4.82-.37,2.99-.08,7.12-.12,11.68-.1,4.56.03,8.69.08,11.68.17,1.62-.03,3.24.07,4.84.29Z"/><path class="o" d="M409.65,166.21h-9.45v9.45h9.45v-9.45Z"/><path class="f" d="M441.34,166.21h-9.45v9.45h9.45v-9.45Z"/><path class="j" d="M475.73,166.21h-9.45v9.45h9.45v-9.45Z"/><path class="k" d="M717.26,204.2c0-2.43-.12-102.48-.29-260.47l.29.29h-360.89l.36-.36V204.13l-.32-.33,360.92.33-360.92.32h-.33V-56.7h361.57v.29c-.39,158.13-.39,258.18-.39,260.6Z"/></g></svg>
