<?xml version="1.0" encoding="UTF-8"?>
<svg id="a" data-name="Layer 1" xmlns="http://www.w3.org/2000/svg" xmlns:xlink="http://www.w3.org/1999/xlink" viewBox="0 0 566.9291 566.9291">
  <defs>
    <style>
      .c {
        fill: #e30613;
      }

      .c, .d, .e, .f, .g, .h, .i, .j, .k, .l, .m, .n, .o, .p {
        stroke-width: 0px;
      }

      .e {
        fill: #e0e0e0;
      }

      .f {
        fill: #f5f5f5;
      }

      .g {
        fill: none;
      }

      .q {
        clip-path: url(#b);
      }

      .r {
        opacity: .3;
      }

      .h {
        fill: #fff;
      }

      .i {
        fill: #09f;
      }

      .j {
        fill: #263238;
      }

      .k {
        fill: #005584;
      }

      .l {
        fill: #ebebeb;
      }

      .m {
        fill: #ff9a6c;
      }

      .s {
        opacity: .2;
      }

      .n {
        fill: #455a64;
      }

      .o {
        fill: #ffbf9d;
      }

      .p {
        fill: #e89842;
      }
    </style>
    <clipPath id="b">
      <rect class="g" x="595.2756" width="566.9291" height="566.9291"/>
    </clipPath>
  </defs>
  <g>
    <path class="j" d="M524.3843,539.2963c0,.165-107.083.2838-239.298.2838s-239.2963-.1188-239.2963-.2838c0-.1633,107.0826-.2838,239.2963-.2838s239.298.1303,239.298.2838Z"/>
    <g>
      <path class="j" d="M350.1231,540.1296l-148.6042-.0759c-17.8762,0-32.3651-13.8339-32.3542-30.8685l.0655-355.1211c0-17.0458,14.5109-30.8682,32.3979-30.8573l148.6038.0874c17.8777,0,32.3666,13.8224,32.3551,30.8573l-.066,355.1211c-.0429,17.056-14.5433,30.8685-32.3979,30.8569Z"/>
      <path class="h" d="M349.0309,135.7835h-148.3206c-12.5221,0-22.6842,9.6593-22.6842,21.6024l-.0764,346.6205c0,11.9317,10.151,21.6129,22.6622,21.6129l148.3529.0874c12.5223,0,22.6837-9.6697,22.6837-21.603l.0775-346.6304c0-12.0087-10.1399-21.6789-22.6952-21.6898Z"/>
    </g>
    <g>
      <path class="e" d="M420.4163,208.1402h-11.1249v11.1249h11.1249v-11.1249Z"/>
      <path class="e" d="M414.2195,323.0138h-11.1232v11.1232h11.1232v-11.1232Z"/>
      <path class="e" d="M431.8117,354.953h-16.7937v16.7954h16.7937v-16.7954Z"/>
      <path class="e" d="M156.4566,332.7726h-16.7946v16.7937h16.7946v-16.7937Z"/>
      <path class="e" d="M132.3303,318.1418h-10.8503v10.8494h10.8503v-10.8494Z"/>
      <path class="e" d="M161.8874,383.8005h-10.8503v10.8494h10.8503v-10.8494Z"/>
      <path class="e" d="M116.1916,239.5334h-7.8564v7.8565h7.8564v-7.8565Z"/>
      <path class="e" d="M448.7044,225.3068h-4.151v4.1527h4.151v-4.1527Z"/>
      <path class="e" d="M409.128,190.33h-6.4146v6.4147h6.4146v-6.4147Z"/>
      <path class="e" d="M441.6794,317.3762h-6.4146v6.4146h6.4146v-6.4146Z"/>
      <path class="e" d="M153.5174,216.8712h-10.905v10.9054h10.905v-10.9054Z"/>
      <path class="f" d="M42.5448,213.3092l37.6865.6336-18.357-23.6127-19.3295,22.9791Z"/>
      <path class="f" d="M60.0605,231.8303h-6.3922v6.3915h6.3922v-6.3915Z"/>
      <path class="f" d="M66.1575,238.824h-6.3921v6.3915h6.3921v-6.3915Z"/>
      <path class="f" d="M58.5745,247.423h-4.9061v4.9066h4.9061v-4.9066Z"/>
      <path class="f" d="M70.4301,233.3597h-4.9061v4.9066h4.9061v-4.9066Z"/>
      <path class="f" d="M53.6683,239.3701h-3.5075v3.5075h3.5075v-3.5075Z"/>
      <path class="f" d="M63.841,258.5033h-4.0975v-4.1098h4.0975v4.1098ZM60.3336,257.8912h2.8955v-2.8856h-2.8737l-.0218,2.8856Z"/>
      <path class="f" d="M69.7418,244.8657h-3.5076v3.5076h3.5076v-3.5076Z"/>
      <path class="f" d="M69.982,210.2273l-17.9746.2079-1.1582,23.012h19.6683l-.5354-23.2199ZM63.6554,229.3935h-3.4967v-3.496h3.4967v3.496Z"/>
      <path class="l" d="M51.472,440.1162l61.0152,1.0939-29.7318-39.5549-31.2834,38.4611Z"/>
      <path class="l" d="M79.8052,471.1167h-10.3368v10.686h10.3368v-10.686Z"/>
      <path class="l" d="M89.6831,482.8289h-10.3367v10.6877h10.3367v-10.6877Z"/>
      <path class="l" d="M77.4122,497.232h-7.9438v8.2162h7.9438v-8.2162Z"/>
      <path class="l" d="M96.6217,473.6838h-7.9438v8.2162h7.9438v-8.2162Z"/>
      <path class="l" d="M69.4684,483.7479h-5.671v5.8668h5.671v-5.8668Z"/>
      <path class="l" d="M85.9787,515.7746h-6.6654v-6.8848h6.6654v6.8848ZM80.3077,514.7583h4.6766v-4.8522h-4.6766v4.8522Z"/>
      <path class="l" d="M95.4851,492.9375h-5.671v5.8668h5.671v-5.8668Z"/>
      <path class="l" d="M95.8893,434.9588l-29.109.3613-1.8467,38.5172h31.786l-.8304-38.8785ZM85.6946,467.0069h-5.7147v-5.8553h5.7147v5.8553Z"/>
      <path class="e" d="M64.9337,97.8348l62.982,1.0927-30.6605-39.5003-32.3215,38.4077Z"/>
      <path class="e" d="M94.2066,128.7794h-10.6755v10.6755h10.6755v-10.6755Z"/>
      <path class="e" d="M104.4015,140.4712h-10.6755v10.6755h10.6755v-10.6755Z"/>
      <path class="e" d="M91.7263,154.8509h-8.1951v8.1951h8.1951v-8.1951Z"/>
      <path class="e" d="M111.5585,131.3474h-8.1951v8.1951h8.1951v-8.1951Z"/>
      <path class="e" d="M83.5313,141.3999h-5.8568v5.8568h5.8568v-5.8568Z"/>
      <path class="e" d="M100.5661,173.3608h-6.8729v-6.8729h6.8729v6.8729ZM94.7202,172.3446h4.8296v-4.8298h-4.8296v4.8298Z"/>
      <path class="e" d="M110.3893,150.5675h-5.8568v5.8568h5.8568v-5.8568Z"/>
      <path class="e" d="M110.8263,92.6881l-30.0487.3607-1.9231,38.4514h32.8132l-.8414-38.812ZM100.2602,124.6819h-5.8241v-5.8568h5.8568l-.0327,5.8568Z"/>
      <path class="f" d="M400.3872,428.7752l54.0983.9058-26.3562-33.8729-27.7421,32.9671Z"/>
      <path class="f" d="M425.4747,455.3591h-9.1682v9.1681h9.1682v-9.1681Z"/>
      <path class="f" d="M434.2271,465.3901h-9.1682v9.1682h9.1682v-9.1682Z"/>
      <path class="f" d="M423.3546,477.7375h-7.0481v7.0481h7.0481v-7.0481Z"/>
      <path class="f" d="M440.3794,457.5566h-7.0482v7.0465h7.0482v-7.0465Z"/>
      <path class="f" d="M416.2966,466.1886h-5.0271v5.0254h5.0271v-5.0254Z"/>
      <path class="f" d="M430.9818,493.6469h-5.9014v-5.8998h5.9014v5.8998ZM425.9548,492.7725h4.1527v-4.151h-4.1527v4.151Z"/>
      <path class="f" d="M439.363,474.0666h-5.0271v5.0254h5.0271v-5.0254Z"/>
      <path class="f" d="M439.7227,424.3487l-25.8085.3068-1.6614,33.0315h28.2024l-.7325-33.3383ZM430.6436,451.8301h-5.0386v-4.9924h5.0386v4.9924Z"/>
      <path class="f" d="M383.0457,77.1067l54.0983.9069-26.3661-33.8732-27.7322,32.9663Z"/>
      <path class="f" d="M408.1662,103.6916h-9.1665v9.1675h9.1665v-9.1675Z"/>
      <path class="f" d="M416.9186,113.7223h-9.1665v9.1677h9.1665v-9.1677Z"/>
      <path class="f" d="M406.0461,126.0695h-7.0465v7.0478h7.0465v-7.0478Z"/>
      <path class="f" d="M423.0807,105.8878h-7.0465v7.0478h7.0465v-7.0478Z"/>
      <path class="f" d="M398.9997,114.52h-5.0271v5.0264h5.0271v-5.0264Z"/>
      <path class="f" d="M413.6305,141.979h-5.9015v-5.9005h5.9015v5.9005ZM408.6034,141.1049h4.1526v-4.1522h-4.1526v4.1522Z"/>
      <path class="f" d="M422.0661,122.3981h-5.0271v5.0264h5.0271v-5.0264Z"/>
      <path class="f" d="M422.4258,72.6813l-25.8085.3059-1.6944,33.0318h28.2139l-.7111-33.3377ZM413.345,100.1622h-5.0254v-5.0264h5.0254v5.0264Z"/>
      <path class="l" d="M454.9013,263.7036l62.392,1.0922-30.4-39.0963-31.9921,38.0041Z"/>
      <path class="l" d="M483.8791,294.3643h-10.5772v10.5771h10.5772v-10.5771Z"/>
      <path class="l" d="M493.9744,305.9461h-10.5771v10.5771h10.5771v-10.5771Z"/>
      <path class="l" d="M481.4307,320.1843h-8.1288v8.1288h8.1288v-8.1288Z"/>
      <path class="l" d="M501.077,296.8984h-8.1288v8.1304h8.1288v-8.1304Z"/>
      <path class="l" d="M473.3019,306.8651h-5.8025v5.8008h5.8025v-5.8008Z"/>
      <path class="l" d="M490.1831,338.5305h-6.7528v-6.8072h6.8072l-.0545,6.8072ZM484.3806,337.5258h4.7977v-4.7977h-4.7977v4.7977Z"/>
      <path class="l" d="M499.9072,315.9442h-5.8008v5.8025h5.8008v-5.8025Z"/>
      <path class="l" d="M500.323,258.6006l-29.7648.3613-1.9122,38.0899h32.53l-.853-38.4512ZM489.8548,290.2892h-5.8008v-5.8025h5.8008v5.8025Z"/>
      <path class="i" d="M338.1469,166.4659h-9.8116v8.9382h9.8116v-8.9382Z"/>
      <path class="i" d="M232.2452,165.6355h-4.1296v3.2561h4.1296v-3.2561Z"/>
      <path class="i" d="M328.3798,159.6149h-4.1312v3.2561h4.1312v-3.2561Z"/>
      <path class="c" d="M295.063,143.0716h-6.2941v5.8239h6.2941v-5.8239Z"/>
      <path class="i" d="M229.4587,175.557h-12.2484v10.7957h12.2484v-10.7957Z"/>
      <path class="c" d="M269.5597,151.8241h-3.9448v3.2561h3.9448v-3.2561Z"/>
      <path class="c" d="M318.9824,159.6695h-78.3675l-.9074,176.7624h79.2749v-176.7624Z"/>
      <path class="h" d="M283.2946,158.0087h-8.5231v7.0369h8.5231v-7.0369Z"/>
      <path class="h" d="M307.7387,158.1179h-8.1849v11.5824h8.1849v-11.5824Z"/>
      <path class="h" d="M314.4915,157.9431h-5.4082v9.7685h5.4082v-9.7685Z"/>
      <path class="h" d="M249.1264,158.4785h-7.3088v10.4131h7.3088v-10.4131Z"/>
      <path class="h" d="M260.6984,159.1888h-3.9778v7.2771h3.9778v-7.2771Z"/>
      <path class="c" d="M295.4243,155.266h-7.7691v6.4032h7.7691v-6.4032Z"/>
      <path class="c" d="M276.7942,111.0453c-.0132.6452-.2161,1.2725-.584,1.8029-.3679.5303-.8843.9402-1.4849,1.1783-.6005.2381-1.2572.2937-1.8891.16-.6302-.1338-1.2093-.4511-1.6614-.912-.4504-.461-.7573-1.0452-.8777-1.679-.1221-.634-.0528-1.2898.1963-1.8849.2508-.5953.6698-1.1034,1.2077-1.4608.5378-.3574,1.1698-.5481,1.8148-.5482.4356,0,.8678.0869,1.2704.2557.4009.1688.7655.4161,1.0707.7276.3052.3113.5461.6804.7061,1.0858.1617.4054.2392.8386.231,1.2747Z"/>
      <path class="c" d="M211.3087,100.1947c1.8231,0,3.2997-1.4969,3.2997-3.3436s-1.4766-3.3436-3.2997-3.3436c-1.8214,0-3.2997,1.4971-3.2997,3.3436s1.4783,3.3436,3.2997,3.3436Z"/>
      <path class="c" d="M241.293,161.5598h-1.0938l.8744-56.4478h-38.0904l.8742-.9178c.2513-.2623,6.1628-6.5561,7.5503-7.5177l.6451.8741c-.9074.6776-4.283,4.1304-6.5565,6.4687h36.6595l-.8629,57.5405Z"/>
      <path class="c" d="M221.3942,89.9784c.0445.6558-.1105,1.3096-.4422,1.8767-.3333.5671-.8282,1.0211-1.4222,1.303-.5939.282-1.2588.3788-1.9089.278-.6484-.1006-1.2539-.3943-1.734-.8429-.4801-.4484-.815-1.0312-.9602-1.6721-.1452-.6411-.094-1.3111.1468-1.9229.2392-.6119.6583-1.1372,1.2011-1.5081.5428-.3707,1.1846-.5699,1.8412-.5713.8398-.0266,1.6564.2803,2.2702.8536.6154.5733.9767,1.3664,1.0081,2.206Z"/>
      <path class="c" d="M227.492,82.2968c.0445.6558-.1105,1.3098-.4438,1.8769-.3316.567-.8266,1.0209-1.4205,1.3029-.5939.282-1.2588.3788-1.9089.2782-.65-.1008-1.2539-.3945-1.734-.8429-.4801-.4486-.815-1.0312-.9602-1.6723-.1452-.6411-.0941-1.311.1452-1.9229.2409-.6118.6599-1.1372,1.2027-1.508.5428-.3709,1.1846-.5699,1.8412-.5713.8398-.0266,1.6564.2803,2.2702.8536.6137.5732.9767,1.3662,1.0081,2.2058Z"/>
      <path class="c" d="M246.6681,67.4909c1.564,0,2.8311-1.3697,2.8311-3.0595s-1.2671-3.0595-2.8311-3.0595c-1.5624,0-2.8295,1.3697-2.8295,3.0595s1.2671,3.0595,2.8295,3.0595Z"/>
      <path class="c" d="M276.4775,67.5348c-.005.5997-.1864,1.1849-.523,1.6815-.3366.4968-.8117.8827-1.3677,1.1092s-1.1648.2836-1.7538.164c-.5873-.1196-1.1268-.4106-1.5492-.8365-.4224-.4257-.7094-.9668-.8249-1.5555-.1155-.5887-.0545-1.1983.1765-1.7521.231-.5539.6203-1.0269,1.1186-1.3598.4999-.3328,1.0856-.5105,1.6861-.5105.8068.0058,1.5789.3308,2.1481.9038.5692.5732.8893,1.3481.8893,2.1558Z"/>
      <path class="c" d="M282.7601,42.5451c-.0066.5972-.1897,1.1792-.5263,1.6725-.3366.4935-.8117.8762-1.3644,1.1004-.5543.224-1.1615.2793-1.7472.1589-.584-.1206-1.1202-.4113-1.5409-.836-.419-.4245-.7045-.9638-.8183-1.5501-.1138-.5862-.0528-1.1931.1765-1.7442.231-.5512.6187-1.0219,1.1153-1.3531s1.0807-.5079,1.6779-.5079c.8068.0058,1.5789.331,2.1464.9045.5675.5735.8843,1.3484.881,2.155Z"/>
      <path class="c" d="M298.7998,50.8057c1.6366,0,2.9615-1.3697,2.9615-3.0595s-1.3248-3.0595-2.9615-3.0595c-1.635,0-2.9598,1.3699-2.9598,3.0595s1.3248,3.0595,2.9598,3.0595Z"/>
      <path class="c" d="M330.4553,76.1231c-.0445.5499-.2475,1.075-.5857,1.5111-.3382.436-.7969.7642-1.3182.9445-.5214.1802-1.084.2047-1.6185.0706-.5345-.1341-1.0196-.4214-1.3941-.8262-.3745-.405-.6236-.9102-.716-1.4542-.0924-.544-.0247-1.1031.1963-1.6089.2194-.5058.5824-.9368,1.0427-1.2399.462-.3032,1.0015-.4656,1.5525-.4674.3894.014.7705.1048,1.1236.2668.3531.1622.6715.3925.9354.6778.264.2854.4686.62.6038.985.1336.3648.1947.7525.1782,1.1409Z"/>
      <path class="c" d="M287.9059,83.597c-.0214.5784-.2128,1.1377-.5494,1.6083-.3366.4705-.8051.8317-1.3446,1.0382-.5411.2067-1.1301.2498-1.696.1239-.5643-.1259-1.0807-.4153-1.4816-.8318-.4026-.4166-.6715-.9422-.7771-1.5113-.1056-.5692-.0412-1.1567.1848-1.6894.226-.5327.6038-.9871,1.0872-1.3067.4818-.3197,1.0477-.4903,1.6268-.4907.3943.0071.7837.0919,1.145.2495.363.1576.6896.3851.9635.6692.2739.2841.49.6194.6336.9868.1452.3673.2161.7594.2079,1.1541Z"/>
      <path class="c" d="M301.0189,82.5918c-.0248.5783-.2178,1.1369-.556,1.6061-.3382.4694-.8084.8287-1.3496,1.0333-.5412.2047-1.1301.2457-1.6944.1176-.5642-.1279-1.079-.4191-1.4799-.8371-.3993-.4181-.6682-.9445-.7721-1.5141-.1023-.5695-.0363-1.1567.193-1.6886.2277-.5319.6072-.985,1.0905-1.3029.4834-.3178,1.0493-.4864,1.6284-.4847.396.0071.7853.0922,1.1467.2506.363.1585.6896.3871.9619.6725.2739.2854.4883.6222.6302.9906.1436.3686.2112.7617.2013,1.1567Z"/>
      <path class="c" d="M337.2411,90.186c1.5624,0,2.8295-1.3699,2.8295-3.0595s-1.2671-3.0596-2.8295-3.0596c-1.564,0-2.8311,1.3699-2.8311,3.0596s1.2671,3.0595,2.8311,3.0595Z"/>
      <path class="c" d="M291.7418,35.989c-.0066.5977-.1897,1.18-.5263,1.6737-.3382.4936-.8134.8765-1.3677,1.1002-.5543.2237-1.1615.2784-1.7472.157-.5857-.1213-1.1219-.4133-1.5409-.8389-.4191-.4257-.7045-.966-.8167-1.5529-.1138-.5869-.0495-1.1941.1815-1.7451.2326-.5509.622-1.021,1.1202-1.3508.4983-.3298,1.084-.5047,1.6812-.5026.8051.0086,1.5739.3351,2.1382.9083.5643.5731.881,1.3464.8777,2.1512Z"/>
      <path class="c" d="M261.8236,165.9196h-1.0922v-35.9601c-.9173-.6883-5.5946-3.5074-8.5115-5.2448l-.2739-.1529v-27.7432l-21.7218-.2513-9.8347-6.6871.6236-.9069,9.5163,6.556,22.4774.2514v28.2021c8.7409,5.212,8.7409,5.3869,8.7409,5.7802l.0759,36.1568Z"/>
      <path class="c" d="M274.8161,163.5048h-1.0922v-37.2712l-10.5342-7.3865v-32.682l-23.568-15.4833c-4.5024,4.1959-11.0259,10.3257-11.3757,10.741l-.8414-.7103c.4916-.5791,10.6316-10.0526,11.7799-11.1234l.3168-.2952,24.7922,16.281v32.704l10.5342,7.3865-.0116,37.8394Z"/>
      <path class="c" d="M274.0506,111.7227h-1.0922v-34.1026l15.3188-9.9215v-28.8249h1.0938v29.4149l-15.3204,9.9215v33.5126Z"/>
      <path class="c" d="M273.9862,67.5346h-1.0938v-15.2756l6.2941-3.1142v-6.6434h1.0922v7.321l-6.2925,3.1141v14.5981Z"/>
      <path class="c" d="M284.334,164.4445h-1.0938v-41.6202l8.764-7.7361v-5.376l-7.3434-6.6436v-17.1988h1.0938v16.7071l7.3418,6.6545v6.3484l-8.7623,7.7361v41.1286Z"/>
      <path class="c" d="M299.5538,82.5918h-1.0922v85.4585h1.0922v-85.4585Z"/>
      <path class="c" d="M308.9513,169.4272h-1.0922l.2079-73.5374,14.4229-9.1457h15.1109v1.0927h-14.7941l-13.6475,8.665-.2079,72.9255Z"/>
      <path class="c" d="M319.0912,177.4692h-1.0922v-74.0399l34.5724-.8851-14.6094-13.3525.7325-.7977,16.6188,15.1774-36.2223.9178v72.9801Z"/>
      <path class="c" d="M328.2693,76.8007l-12.9034-2.382-15.5052-15.9969v-.1638c-.4372-2.3274-1.8462-9.9654-1.8462-10.5116h1.0922c0,.4699,1.0922,6.4141,1.7917,10.1619l15.1125,15.5052,12.5652,2.3274-.3069,1.0599Z"/>
      <path class="c" d="M248.6133,63.6884l-.3267-1.0379,8.8167-2.7973,7.0151-6.9823-5.8454-3.9664,21.4381-22.1049,8.5561,7.7799-.7325.8086-7.779-7.0696-19.7899,20.4112,5.8685,3.9774-8.1519,8.1077-9.0692,2.8737Z"/>
      <path class="i" d="M338.1486,186.3528h-8.3053v8.305h8.3053v-8.305Z"/>
      <path class="i" d="M213.112,173.2187h-9.4077v-9.3861h9.4077v9.3861ZM204.797,172.126h7.2228v-7.2007h-7.2228v7.2007Z"/>
      <path class="j" d="M152.8072,267.8447h-16.6088v16.6089h16.6088v-16.6089Z"/>
      <path class="j" d="M418.3936,270.0192h-16.6073v16.609h16.6073v-16.609Z"/>
      <path class="j" d="M393.8093,236.9663h-4.1527v4.151h4.1527v-4.151Z"/>
      <path class="n" d="M351.4776,225.2738h-8.0529v8.0529h8.0529v-8.0529Z"/>
      <path class="n" d="M341.4251,217.5592h-4.9165v4.9182h4.9165v-4.9182Z"/>
      <path class="n" d="M358.9844,202.3608h-5.9988v-6.0104h5.9988v6.0104ZM354.0794,201.267h3.8128v-3.8243h-3.8128v3.8243Z"/>
      <path class="j" d="M405.3697,250.3184h-7.5183v-7.5068h7.5183v7.5068ZM398.9436,249.2262h5.3323v-5.3224h-5.3323v5.3224Z"/>
      <path class="j" d="M120.0925,267.1237h-7.5068v-7.5068h7.5068v7.5068ZM113.6784,266.0315h5.3214v-5.3224h-5.3214v5.3224Z"/>
      <path class="n" d="M206.6328,250.1106h-10.905v10.9054h10.905v-10.9054Z"/>
      <path class="n" d="M212.1617,232.0382h-5.5398v5.5402h5.5398v-5.5402Z"/>
      <path class="j" d="M152.7308,194.9201h-5.54v5.5385h5.54v-5.5385Z"/>
      <path class="j" d="M427.3208,290.9441h-5.5401v5.5402h5.5401v-5.5402Z"/>
      <path class="j" d="M136.8978,295.6429h-5.54v5.5402h5.54v-5.5402Z"/>
      <path class="n" d="M200.339,218.5656h-9.4298v9.4288h9.4298v-9.4288Z"/>
      <path class="n" d="M225.3604,214.5878h-8.5445v-8.5775h8.5891l-.0445,8.5775ZM217.8652,213.4956h6.403v-6.3931h-6.3585l-.0445,6.3931Z"/>
      <g class="s">
        <path class="d" d="M349.2157,431.1345c.165-.7639.3283-1.5624.4916-2.3593l-.9503,2.3593h.4587Z"/>
      </g>
      <path class="n" d="M332.0607,272.8718l27.6563.4685-13.4726-17.3299-14.1837,16.8614Z"/>
      <path class="n" d="M345.2165,286.4648h-4.6872v4.6872h4.6872v-4.6872Z"/>
      <path class="n" d="M349.5011,291.4143h-4.2846v4.1741h4.2846v-4.1741Z"/>
      <path class="n" d="M344.3536,297.3472h-3.6049v3.6066h3.6049v-3.6066Z"/>
      <path class="n" d="M353.106,287.59h-3.6049v3.6049h3.6049v-3.6049Z"/>
      <path class="n" d="M340.3115,291.4143h-2.5688v2.5671h2.5688v-2.5671Z"/>
      <path class="n" d="M348.5492,306.3619h-3.6594v-3.661h3.6594v3.661ZM345.982,305.2697h1.475v-1.4766h-1.475v1.4766Z"/>
      <path class="n" d="M352.2547,295.8392h-2.5688v2.5672h2.5688v-2.5672Z"/>
      <path class="n" d="M353.0516,270.6098l-14.3685.1633v16.8812h14.413l-.0445-17.0445ZM348.4617,284.6615h-2.5671v-2.5688h2.5671v2.5688Z"/>
      <path class="i" d="M239.1614,381.527l30.8685.5246-15.035-19.351-15.8335,18.8264Z"/>
      <path class="i" d="M253.4968,396.694h-5.2333v5.2333h5.2333v-5.2333Z"/>
      <path class="i" d="M258.4909,402.4305h-5.2333v5.2333h5.2333v-5.2333Z"/>
      <path class="i" d="M252.2842,409.4786h-4.0207v4.0207h4.0207v-4.0207Z"/>
      <path class="i" d="M262.01,397.9496h-4.0223v4.0223h4.0223v-4.0223Z"/>
      <path class="i" d="M248.2751,402.8776h-2.874v2.874h2.874v-2.874Z"/>
      <path class="i" d="M261.4309,407.38h-2.874v2.874h2.874v-2.874Z"/>
      <path class="i" d="M261.6157,379.0028l-14.7298.1749-.9503,18.8494h16.1173l-.4372-19.0243ZM256.4369,394.6829h-2.874v-2.8625h2.874v2.8625Z"/>
      <path class="n" d="M187.5652,304.0241l45.0182.754-21.9297-28.2139-23.0885,27.46Z"/>
      <path class="n" d="M208.4677,326.1501h-7.6264v7.6272h7.6264v-7.6272Z"/>
      <path class="n" d="M215.0242,333.8648h-6.5449v6.5449h6.5449v-6.5449Z"/>
      <path class="n" d="M206.709,341.8516h-5.8677v5.8685h5.8677v-5.8685Z"/>
      <path class="n" d="M220.8811,327.9748h-5.8668v5.8685h5.8668v-5.8685Z"/>
      <path class="n" d="M200.8413,334.4983h-4.1848v4.1856h4.1848v-4.1856Z"/>
      <path class="n" d="M213.3298,355.3902h-5.2548v-5.2778h5.2779l-.0231,5.2778ZM209.1458,354.298h3.0918v-3.0918h-3.0704l-.0214,3.0918Z"/>
      <path class="n" d="M219.1983,341.0317h-4.184v4.1856h4.184v-4.1856Z"/>
      <path class="n" d="M220.957,300.7343l-23.2954-.1204-.1858,27.4699h23.4812v-27.3494ZM212.7837,323.2101h-4.184v-4.217h4.184v4.217Z"/>
      <path class="i" d="M316.5785,340.6275l36.2982.6121-17.6797-22.7381-18.6185,22.126Z"/>
      <path class="i" d="M333.4383,358.4721h-6.1523v6.1506h6.1523v-6.1506Z"/>
      <path class="i" d="M339.3167,365.2019h-6.1523v6.1522h6.1523v-6.1522Z"/>
      <path class="i" d="M332.0062,373.4857h-4.7202v4.7202h4.7202v-4.7202Z"/>
      <path class="i" d="M343.4363,359.9471h-4.7202v4.7202h4.7202v-4.7202Z"/>
      <path class="i" d="M327.286,365.7381h-3.3756v3.3756h3.3756v-3.3756Z"/>
      <path class="i" d="M337.3616,384.4126h-4.4694v-4.4694h4.4694v4.4694ZM333.9844,383.3187h2.2834v-2.2834h-2.2834v2.2834Z"/>
      <path class="i" d="M342.7698,371.0258h-3.3772v3.3772h3.3772v-3.3772Z"/>
      <path class="i" d="M343.009,337.6676l-17.3184.2062-1.0922,22.1607h18.9253l-.5147-22.3669ZM337.9176,356.2432h-3.3657v-3.3657h3.3657v3.3657Z"/>
      <path class="i" d="M45.5168,302.6679l45.0293.754-21.9411-28.2123-23.0883,27.4583Z"/>
      <path class="i" d="M66.4307,324.7956h-7.6269v7.6272h7.6269v-7.6272Z"/>
      <path class="i" d="M72.976,332.5102h-6.5453v6.5449h6.5453v-6.5449Z"/>
      <path class="i" d="M64.6606,340.4971h-5.8568v5.8685h5.8568v-5.8685Z"/>
      <path class="i" d="M78.8324,326.6203h-5.8568v5.8668h5.8568v-5.8668Z"/>
      <path class="i" d="M58.8039,333.1438h-4.185v4.184h4.185v-4.184Z"/>
      <path class="i" d="M70.736,349.304h-4.185v4.1856h4.185v-4.1856Z"/>
      <path class="i" d="M77.1606,339.6772h-4.185v4.1856h4.185v-4.1856Z"/>
      <path class="i" d="M78.9091,299.3798l-23.2959-.1204-.1748,27.4699h23.4707v-27.3494ZM70.7469,321.8556h-4.185v-4.184h4.185v4.184Z"/>
      <path class="i" d="M461.1937,460.2987l34.7918.5907-16.9257-21.7994-17.8661,21.2087Z"/>
      <path class="i" d="M477.3556,477.3993h-5.9015v5.8998h5.9015v-5.8998Z"/>
      <path class="i" d="M482.414,483.3651h-5.0584v5.0584h5.0584v-5.0584Z"/>
      <path class="i" d="M475.9895,489.5273h-4.5354v4.5354h4.5354v-4.5354Z"/>
      <path class="i" d="M486.9494,478.8083h-4.5355v4.5354h4.5355v-4.5354Z"/>
      <path class="i" d="M471.4541,483.8568h-3.2337v3.2337h3.2337v-3.2337Z"/>
      <path class="i" d="M480.6882,496.3345h-3.2353v3.2354h3.2353v-3.2354Z"/>
      <path class="i" d="M485.6477,488.9053h-3.2337v3.2337h3.2337v-3.2337Z"/>
      <path class="i" d="M486.9923,457.7629l-17.9964-.0973-.1419,21.2301h18.1383v-21.1328ZM480.6882,475.1374h-3.2782v-3.2782h3.2782v3.2782Z"/>
      <path class="i" d="M457.5558,134.1226l45.0176.7649-21.9297-28.2129-23.0879,27.4481Z"/>
      <path class="i" d="M478.4593,156.2493h-7.6272v7.6269h7.6272v-7.6269Z"/>
      <path class="i" d="M485.0141,163.9638h-6.5449v6.5451h6.5449v-6.5451Z"/>
      <path class="i" d="M476.6989,171.9511h-5.8668v5.8677h5.8668v-5.8677Z"/>
      <path class="i" d="M490.8711,158.085h-5.8668v5.8677h5.8668v-5.8677Z"/>
      <path class="i" d="M470.8321,164.6083h-4.1856v4.185h4.1856v-4.185Z"/>
      <path class="i" d="M482.7737,180.7581h-4.184v4.185h4.184v-4.185Z"/>
      <path class="i" d="M489.1882,171.1427h-4.184v4.185h4.184v-4.185Z"/>
      <path class="i" d="M490.9486,130.8447l-23.2958-.1312-.1864,27.4809h23.4822v-27.3497ZM482.7753,153.321h-4.1857v-4.1848h4.1857v4.1848Z"/>
    </g>
    <g>
      <path class="p" d="M241.9697,238.8842c-.1566-4.8412-2.5459-20.915-2.6997-25.756-2.1273.0416-4.2404-.3807-6.1882-1.2385-1.9479-.8575-3.6879-2.1293-5.0919-3.7269-1.4068-1.5976-2.4491-3.4826-3.0528-5.5239-.6037-2.041-.7575-4.1894-.4443-6.295.3104-2.1059,1.0765-4.1185,2.2441-5.8981,1.1676-1.7796,2.7111-3.2832,4.5194-4.4061,1.8084-1.1229,3.8388-1.838,5.9519-2.096,2.113-.2577,4.2574-.0518,6.2822.6032-.9284-4.5904-.2876-9.3593,1.8226-13.541,2.1073-4.1817,5.5617-7.5335,9.8021-9.5167,4.2433-1.9835,9.0303-2.4836,13.5897-1.4196,4.5622,1.0637,8.6317,3.6295,11.5592,7.2852.3104-5.648,6.4246-9.0924,11.9465-10.4269,4.622-1.3687,9.5686-1.1611,14.0596.5895,2.1985.9509,4.0096,2.6197,5.1374,4.7336,1.1278,2.1139,1.5036,4.5479,1.0679,6.9039,2.0049-2.5186,4.9267-4.1378,8.1248-4.5015,1.5834-.1803,3.1867-.0467,4.7188.393,1.5321.4394,2.9617,1.1764,4.209,2.1689,1.2473.9922,2.2868,2.2204,3.0585,3.6144.7717,1.3943,1.2644,2.9267,1.4439,4.5101.1794,1.5834.0455,3.187-.393,4.7188-.4414,1.5318-1.1761,2.9623-2.17,4.209,3.1553,1.4982,5.6671,4.0837,7.071,7.2824,1.404,3.1983,1.609,6.796.5753,10.133-1.0337,3.3368-3.2351,6.1897-6.1996,8.0353-2.9674,1.8457-6.4986,2.5605-9.9502,2.0134"/>
      <path class="k" d="M235.6123,308.7749l-48.0471,22.9375,9.4284,118.2024-1.0916,75.9022,148.705.0883-.8159-65.4808,4.2225-26.4224,19.8722-102.2897-56.13-24.4144-11.259-7.5876-55.9635.1332-8.9213,8.9312Z"/>
      <g class="s">
        <path class="d" d="M197.5306,495.3165c2.4586,3.1132,7.1243,3.2782,11.0147,2.4582,13.1113-2.6117,25.0116-12.0191,38.2433-10.4468,8.4686,1.0278,16.7179,6.5565,24.9126,4.2071,2.8311-.8084,5.3867-2.5341,8.2938-2.9383,4.2616-.5907,8.3053,1.7043,12.1181,3.6824,16.2031,8.3878,34.3167,12.3986,52.5474,11.6363l7.4408-19.8212-66.6536-17.2854-53.4219-3.0605-34.4404,20.1281-.0548,11.44Z"/>
      </g>
      <path class="j" d="M268.8057,524.7859c-.1518,0,.6451-40.5613,1.7917-90.573,1.1483-50.0116,2.186-90.5829,2.3609-90.5713.1749.0099-.6451,40.5482-1.7917,90.5829-1.1483,50.0331-2.1959,90.5713-2.3609,90.5614Z"/>
      <path class="k" d="M365.7797,331.7124s12.6593,3.43,19.3194,30.953c2.8123,11.5803,17.4462,108.0691,15.4382,121.5009-2.0064,13.4318-22.2965,27.0718-52.6551,22.8593-16.7502-2.326-45.587-17.0483-45.587-17.0483l22.2415-29.6526h21.3707l8.4484-6.3288-6.815-26.146s13.277-87.6574,18.2388-96.1374Z"/>
      <path class="j" d="M385.2416,454.93c-.0544.099-1.5838-.9173-4.217-2.1844-3.4086-1.7588-7.1141-2.8707-10.9269-3.2783-2.0904-.1633-4.1923-.0412-6.2513.3613l-1.376.3168c-.4372.1188-.853.2722-1.2671.3926-.7441.2491-1.4733.5378-2.186.8629-2.6661,1.2242-4.1526,2.3279-4.217,2.186.3085-.3019.65-.5692,1.0163-.7985.9602-.6715,1.9716-1.2671,3.0258-1.7802.7292-.363,1.4799-.6781,2.2504-.9404.4158-.1419.8414-.3168,1.2902-.4372l1.3991-.3497c2.1035-.4421,4.2599-.5824,6.403-.4141,3.8771.3893,7.6338,1.5607,11.0474,3.4415,1.0328.5494,2.0359,1.1549,3.0044,1.8132.3663.2294.7045.4999,1.0047.8084Z"/>
      <path class="j" d="M332.4434,459.9901c.3052-.0643.617-.0907.9289-.0775l2.5902-.0759,9.2771-.0974h-.132l8.3812-5.3983-.0759.066c.5676-.6665,1.1467-1.3892,1.8247-2.0442,1.1994-1.2473,2.5242-2.3675,3.9547-3.3442,3.5851-2.4814,7.7014-4.0867,12.0191-4.6872,1.8099-.2574,3.6412-.3234,5.4643-.1963.6451.0544,1.0922.1419,1.475.1864.1749.0116.3481.0479.5131.1089-.6665.0149-1.3347-.0066-1.9996-.066-4.5041-.1287-8.9751.8117-13.0453,2.7421-1.4271.6748-2.7948,1.4683-4.0867,2.3725-1.3991.9553-2.6958,2.054-3.8689,3.2766-.655.6451-1.2242,1.3562-1.7818,1.9996l-8.5115,5.4527h-.0759l-9.2771-.0974-2.5903-.066c-.3283.0099-.6566-.0083-.9833-.0545Z"/>
      <path class="j" d="M272.9584,343.6416c.0149.0495.0149.1023,0,.1518-.0033.0363-.0148.0709-.0346.1006-.0181.0313-.0445.0561-.0742.0742-.0445.0198-.0941.0297-.1419.0297-.0495,0-.0974-.0099-.1419-.0297-.5428-.2425-1.0361-.5824-1.4535-1.0047-1.5921-1.503-3.0951-3.0968-4.5024-4.7747-3.6709-4.2401-8.566-10.4022-14.0517-17.6681h.4042c-.5378.7391-.9816,1.5426-1.3215,2.3923-.4042.8744-.7771,1.7917-1.0938,2.7107-.7309,1.8561-1.4304,3.7798-2.1085,5.7365-1.1582,3.4086-2.2718,6.7528-3.0258,9.932l-.165.6764-.3498-.589c-4.0042-6.8435-6.5515-14.4394-7.4837-22.3125-.2739-2.2883-.4026-4.5915-.3828-6.8947,0-.8084,0-1.4321.0759-1.8478.0017-.2161.0198-.4306.0544-.6434.0264.2128.0264.4306,0,.6434v1.8478c.0528,2.2916.231,4.5783.5362,6.8501,1.0476,7.7955,3.6494,15.3006,7.6487,22.0732l-.5131.0759c.7639-3.2782,1.8676-6.5565,3.0374-9.998.6764-1.9666,1.376-3.9002,2.12-5.758.3712-.9289.7424-1.8363,1.1466-2.7321.3663-.914.8563-1.7736,1.4535-2.5573l.2079-.2409.2079.2739c5.4626,7.289,10.2917,13.4842,13.8768,17.7671,1.7917,2.186,3.2782,3.8128,4.3704,4.8621.3894.4356.8464.8051,1.3545,1.0922.1864.0776.3069,0,.3283-.1089.0214-.1089,0-.1419.0214-.1303Z"/>
      <path class="j" d="M312.5678,308.2608c.0429.193.061.391.0544.589v1.7158c0,1.4865-.0874,3.6709-.3267,6.3816-.4372,5.4626-1.7274,13.0024-3.0935,21.7004l-.0973.6451-.3943-.5247c-1.9551-2.5902-3.8458-5.4643-5.8025-8.5016-1.5294-2.3378-3.0374-4.6113-4.6212-6.7198l.3828.0545c-7.5513,5.4643-14.3371,10.0211-18.762,13.8455-2.2405,1.8561-3.9778,3.4201-5.1574,4.5123l-1.3446,1.2555c-.1485.1551-.3085.297-.4801.4273,0,0,.1204-.1864.4042-.4916.2838-.3069.721-.7655,1.2902-1.3331,1.0922-1.0938,2.841-2.7437,5.0584-4.6559,4.3704-3.9002,11.1232-8.533,18.6745-14.0187l.2178-.1534.1634.2194c1.5954,2.12,3.1264,4.3704,4.6558,6.7528,1.9451,2.9945,3.8243,5.8998,5.758,8.4785l-.4917.1204c1.409-8.7409,2.7536-16.2262,3.2782-21.6459.2838-2.6991.4372-4.8621.4917-6.3585v-1.7059c.028-.1996.0759-.3976.1419-.589Z"/>
      <path class="j" d="M340.8906,390.8007c0,.1534-8.665-.5131-19.3196-1.4849-10.653-.9734-19.285-1.8907-19.2636-2.0557.0214-.1634,8.6534.5147,19.318,1.4865,10.6646.9734,19.2751,1.8908,19.2652,2.0541Z"/>
      <path class="o" d="M325.778,217.4469c-.4405-11.148-5.0617-21.7218-12.943-29.6171-7.8829-7.8961-18.4469-12.536-29.5949-12.9968l-2.2949-.0874c-24.8367.4262-38.3423,21.7451-37.2386,46.5587l2.3164,82.1258,26.9023,37.2831,28.4103-30.8685c0-6.9937,0-9.1022.0545-9.1022s23.9623-2.7206,25.2409-26.5195c.6434-11.4944-.0116-35.272-.853-56.776Z"/>
      <path class="m" d="M301.4115,300.7424s-15.0466.2623-30.5947-10.4451c0,0,6.7198,18.2027,30.5947,17.0445v-6.5994Z"/>
      <path class="j" d="M314.6664,238.7546c-.0346.886-.4125,1.7224-1.0526,2.3345-.6401.6121-1.4931.9503-2.3791.9437-.4339.0132-.8645-.0594-1.2704-.2145-.4042-.1551-.7738-.3877-1.0889-.688-.3135-.2986-.5643-.6566-.7391-1.0526-.1749-.396-.2689-.8233-.2772-1.2572.0297-.8843.4059-1.7208,1.0443-2.3329s1.4898-.952,2.3758-.9454c.4339-.0149.8662.0577,1.272.2112.4059.1551.7771.3877,1.0922.6863.3151.2986.5675.6583.7441,1.0543.1749.3976.2689.8266.2788,1.2605Z"/>
      <path class="j" d="M320.2824,227.7518c-.4488.4257-2.94-1.5839-6.5565-1.7274-3.6165-.1419-6.4129,1.574-6.7957,1.0938-.1864-.2079.2722-.9949,1.4849-1.7917,1.63-1.0312,3.5373-1.536,5.4643-1.4436,1.9023.0759,3.7303.7523,5.2234,1.9353,1.0476.9289,1.3875,1.7472,1.1796,1.9336Z"/>
      <path class="j" d="M282.049,238.7546c-.0314.8843-.4059,1.7208-1.0444,2.3329s-1.4914.952-2.3758.9454c-.4323.0132-.8645-.0594-1.2687-.2145-.4059-.1551-.7754-.3877-1.0889-.688-.3151-.2986-.5659-.6566-.7408-1.0526-.1749-.396-.2689-.8233-.2772-1.2572.0314-.8827.4042-1.7175,1.0411-2.3296.6352-.6121,1.4849-.952,2.3675-.9487.4339-.0149.8678.0577,1.2737.2112.4059.1551.7771.3877,1.0922.6863.3151.2986.5676.6583.7424,1.0543.1765.3976.2706.8266.2788,1.2605Z"/>
      <path class="j" d="M285.1639,227.7518c-.4488.4257-2.94-1.5839-6.5565-1.7274-3.6164-.1419-6.4146,1.574-6.7957,1.0938-.1864-.2079.2722-.9949,1.4849-1.7917,1.63-1.0312,3.5373-1.536,5.4643-1.4436,1.9023.0759,3.7303.7523,5.2234,1.9353,1.0377.9289,1.3875,1.7472,1.1796,1.9336Z"/>
      <path class="j" d="M296.3416,255.7793c0-.2079,2.2834-.5147,5.9873-.8315.9404-.0545,1.8363-.2062,2.0112-.8414.1221-.9569-.0545-1.9303-.5032-2.7849l-2.4682-7.2346c-3.4201-10.2818-5.8569-18.729-5.4643-18.8593.3927-.132,3.529,8.0859,6.9392,18.3792.8299,2.5342,1.6053,4.9495,2.3593,7.2659.5345,1.1516.65,2.4533.3283,3.6825-.1485.325-.3696.6104-.6467.8365-.2755.2244-.6005.3844-.9487.4636-.523.1237-1.0592.1782-1.5954.1633-3.694.0445-5.9873-.0314-5.9988-.2392Z"/>
      <path class="j" d="M285.1524,219.7088c-.4916.9288-3.6049-.1303-7.4523-.3168-3.8458-.1848-7.091.4042-7.4292-.556-.1419-.4702.5576-1.2902,1.9551-2.0112,1.8016-.8645,3.7996-1.2407,5.7909-1.0922,1.9782.0907,3.8936.7094,5.5517,1.7917,1.2555.8513,1.8132,1.7472,1.5838,2.1844Z"/>
      <path class="j" d="M320.8945,213.9509c-.787.8084-3.7484-.1303-7.3319-.2739-3.5835-.1419-6.6324.3943-7.2989-.5016-.2953-.4257.1963-1.2456,1.5509-1.9996,1.8594-.8975,3.9134-1.3116,5.9757-1.2027,2.0607.1089,4.0603.7358,5.8141,1.8247,1.2357.886,1.6284,1.7488,1.2902,2.1531Z"/>
      <path class="j" d="M284.8471,258.0627c.5675,0,.589,3.7039,3.8012,6.3486,3.2139,2.6447,7.2015,2.1844,7.2346,2.7321.0544.2392-.886.7309-2.5688.7853-2.1943.0445-4.3341-.6863-6.0417-2.064-1.6333-1.3298-2.6876-3.2419-2.94-5.3323-.1518-1.5855.2293-2.4698.5147-2.4698Z"/>
      <path class="k" d="M189.4993,332.4524s-14.0736,11.3856-17.7124,28.0704c-3.6386,16.6848-23.6238,93.4685-24.1263,104.788-.5027,11.3212,0,35.4353,20.9248,35.9269,20.9248.4916,73.8872-23.9177,73.8872-23.9177l-10.1069-30.5946-33.0212.9058-9.8451-115.1787Z"/>
      <path class="j" d="M232.3756,446.6808c-.2656.0627-.5362.099-.8084.1089l-2.3164.1749-8.5561.5576-12.6856.7424-7.4847.4273c-2.6693.0941-5.3298.3564-7.9658.787-1.3789.2178-2.7839.2178-4.1631,0-1.344-.165-2.6444-.4042-3.9227-.5246-2.4698-.1617-4.9497.0561-7.3538.6434-4.0811,1.0526-7.8552,3.0572-11.0142,5.847-2.1481,1.8676-4.0368,4.0124-5.6164,6.3816-.5682.8299-.9724,1.4964-1.2347,1.955-.1239.2458-.274.4752-.4479.688.0879-.259.2052-.5082.3496-.7424.341-.6963.7241-1.371,1.1473-2.0211,1.5302-2.4319,3.3911-4.6377,5.529-6.5565,3.1865-2.8774,7.0156-4.9495,11.1673-6.0434,2.4584-.6187,4.9979-.8546,7.5285-.6979,1.3111.1188,2.6115.3597,3.9444.523,1.3182.2029,2.6594.2029,3.9774,0,2.664-.4388,5.3542-.7012,8.053-.7853l7.4852-.3827,12.6856-.6336,8.566-.3712,2.3279-.0775c.2689-.0182.5395-.0182.8084,0Z"/>
      <path class="j" d="M200.2513,447.5668c-.0604-.2442-.097-.4933-.1092-.7441-.0546-.5576-.1312-1.2671-.2186-2.1844-.1749-1.9353-.437-4.6229-.7431-7.9011-.6446-6.6753-1.639-15.8764-2.7645-26.0493-1.1254-10.1729-2.0542-19.318-2.5459-26.0378-.2732-3.3442-.4699-6.0434-.5682-7.9225,0-.8843-.0766-1.6069-.1092-2.186-.0145-.2508-.0145-.5016,0-.754.0698.2425.1102.4916.1201.7441.0546.5461.1203,1.2555.2077,2.1844.1858,1.9237.4371,4.6113.7538,7.9011.6339,6.6653,1.6391,15.8764,2.7536,26.0493,1.1146,10.1729,2.0542,19.384,2.6006,26.0609.2732,3.3426.4588,6.0533.5682,7.9209,0,.8959.0764,1.6069.0983,2.186.0129.2442-.0018.49-.0437.7325Z"/>
      <path class="j" d="M240.473,478.2274c-.1584.1188-.3267.226-.5032.3168l-1.4964.8084c-1.3001.6995-3.2123,1.6383-5.6062,2.7536-4.7746,2.1844-11.4944,5.0914-19.0458,7.878-7.5497,2.7866-14.4881,5.0254-19.5691,6.469-2.535.7309-4.6003,1.2555-6.0317,1.6053l-1.6607.3712c-.1919.0561-.3904.0858-.5902.0874.1805-.0891.3714-.1551.5682-.1963l1.6281-.4801c1.4096-.4042,3.4638-.9949,5.9771-1.7703,5.0373-1.5409,11.9429-3.8243,19.482-6.6224,7.5398-2.7965,14.2052-5.5715,19.0788-7.7031,2.4038-1.0922,4.3704-1.9551,5.6705-2.5902l1.541-.721c.1749-.0957.363-.165.5576-.2062Z"/>
      <path class="j" d="M359.8374,356.4807c.0132.0907.0132.1815,0,.2722,0,.2079,0,.4702-.0759.787-.0775.7441-.1864,1.7587-.3184,3.0374-.2838,2.6331-.7424,6.436-1.3331,11.1348-1.1796,9.3975-2.9598,22.3669-5.1574,36.6479-2.1959,14.2827-4.3704,27.1977-5.9213,36.5407-.8084,4.6328-1.475,8.3911-1.9336,11.0457-.231,1.2687-.4157,2.2735-.5576,2.9945-.066.3168-.1204.5791-.1534.787-.0148.0907-.0396.1782-.0759.2623-.0165-.0907-.0165-.1831,0-.2739,0-.2178.0643-.4686.1089-.787.1089-.7424.2623-1.7472.4471-3.0143.4273-2.6661,1.0163-6.436,1.7488-11.0803,1.4964-9.353,3.5835-22.2696,5.7695-36.5622,2.186-14.2909,4.0438-27.229,5.3867-36.5704.6335-4.6558,1.1483-8.4357,1.508-11.1133.1749-1.2671.3168-2.2834.4257-3.0159,0-.3168.0874-.5791.1204-.787-.0132-.1023-.0099-.2046.0116-.3052Z"/>
      <path class="j" d="M359.4216,507.1277c-.1996.0264-.4009.0264-.6005,0l-1.7257-.1518c-1.4981-.1435-3.6494-.4273-6.3057-.853-6.9178-1.1368-13.7465-2.7651-20.4333-4.8736-3.9118-1.2456-7.6487-2.5902-10.9269-3.9118-3.2782-1.3215-6.2166-2.6546-8.6204-3.8574-1.2126-.5791-2.2949-1.1466-3.2782-1.6498s-1.7587-.9388-2.4038-1.3215l-1.4964-.8744c-.1798-.094-.3498-.2078-.5032-.3382.198.0577.3877.1386.5676.2392l1.5409.7771c.6566.3597,1.475.7639,2.4368,1.2341.9619.4702,2.0442,1.0163,3.2782,1.5624,2.4154,1.1582,5.3537,2.4038,8.6435,3.7369,3.2881,1.333,6.9706,2.6232,10.8725,3.8573,6.6621,2.0969,13.4495,3.7716,20.3227,5.0155,2.6447.4801,4.7862.8298,6.2727,1.0377l1.7043.2623c.2227,0,.4438.0379.655.1089Z"/>
      <g class="s">
        <path class="d" d="M308.9183,339.1837c-3.8788-4.6888-6.4789-10.7091-9.7687-15.8121-9.475,5.7513-18.272,12.5503-26.2242,20.2699,7.6487-4.3704,15.2973-8.4026,22.7381-13.1129l13.8224,17.8991c.2854-5.7844.5758-11.5687.8744-17.353l-1.442,8.109Z"/>
      </g>
      <g class="s">
        <path class="d" d="M358.4614,365.5383c-2.4913,19.2306-4.7647,43.0741-8.7425,62.4036,3.8243-9.5839,7.5513-19.2421,9.6598-29.3276,2.2718-10.9269,2.5886-22.4873-.9173-33.076Z"/>
      </g>
      <path class="o" d="M236.0036,427.7126s-6.6654,3.4086-7.6487,6.1621c-.5593,1.8528-.5593,3.8293,0,5.6821l3.6066,11.8557v12.3359s2.8955,12.5338,5.6491,13.8125c2.7536,1.277,7.6487,1.0922,10.9269-4.0652,1.8693-2.9318,3.3393-6.0995,4.3704-9.419l5.682-23.5482,1.6284-12.0191-15.4293,7.9556-4.3704,5.9872-4.2615-6.7957s3.4746-3.4102,3.2007-5.5303c-.2722-2.12-3.3541-2.4137-3.3541-2.4137Z"/>
      <path class="m" d="M232.3987,436.6069c0-.165.9058-.1534,1.9435-.3712,1.0394-.2194,1.8478-.5791,1.9353-.4372.0874.1419-.6665.7539-1.8148.9932-1.1466.2409-2.0969-.0429-2.064-.1848Z"/>
      <path class="j" d="M239.3693,469.2226l1.0922-50.0446c-.0017-1.6894.6484-3.3129,1.8148-4.5338,1.1664-1.2226,2.7602-1.9468,4.4463-2.0227l85.437-1.8792c1.0097.0116,2.0046.2541,2.907.7078.9041.4537,1.6911,1.107,2.3032,1.9105.6121.8035,1.0328,1.7373,1.2308,2.7288.1963.9899.165,2.0128-.0924,2.9911l-12.8061,54.458c-.3135,1.4634-1.1269,2.7734-2.2982,3.7039-1.1714.9305-2.6298,1.4254-4.1263,1.3991l-73.7232-2.5342c-1.7323-.0973-3.3558-.8744-4.514-2.1646-1.1598-1.2902-1.7604-2.9879-1.6713-4.7202Z"/>
      <path class="h" d="M293.3042,425.8549l-.6781-.1089c-.8843-.0544-1.7554.2343-2.4319.8051-.6781.5708-1.1104,1.3809-1.2077,2.2619-.0973.8794.1468,1.7637.683,2.4698.5378.7045,1.3248,1.1764,2.1992,1.3182.8744.1403,1.7703-.0594,2.5012-.5609.7309-.4999,1.2407-1.2622,1.4255-2.13.1848-.8662.0281-1.7703-.4356-2.5259-.4636-.754-1.1994-1.3017-2.0557-1.5294Z"/>
      <path class="n" d="M329.3631,416.3584c0,.165-18.2703.6022-40.8121.985-22.5418.3811-40.8121.5791-40.822.4141-.0116-.1633,18.2687-.589,40.8105-.9833,22.5418-.3927,40.8237-.5675,40.8237-.4158Z"/>
      <path class="o" d="M262.3812,427.8875s4.7416-4.7318,10.3808-1.574c5.6375,3.1578,24.6074,16.6964,31.1523,18.4997,6.5449,1.8016,13.1113,3.1677,18.0509,0,4.938-3.1693,8.5775-7.223,8.8069-11.2766.2293-4.0537,2.6991-12.8721,8.1189-13.113l2.709,2.0326s-1.0922,13.1129-1.0922,18.729-5.004,13.56-5.004,13.56l-3.6396,6.2397,1.8693,6.8716s-2.2619,10.3808-7.9011,15.8005c-5.6375,5.4197-16.7393,5.6392-16.7393,5.6392l-36.0589-22.5649-33.6205-9.932s.8959-4.5123,5.4626-4.7416c4.5668-.2294,11.9647,2.8179,11.9647,2.8179l-17.4718-13.2433c.3003-1.3743,1.1351-2.5737,2.318-3.336,1.1846-.7622,2.6216-1.0245,3.9976-.7276,5.4643.6764,24.8252,12.0191,24.8252,12.0191l-19.8212-19.8872s-.4471-5.1904,4.2945-5.4626c1.4337-.0149,2.8493.3085,4.1345.9421,1.2836.6352,2.4022,1.5624,3.2634,2.7074Z"/>
      <path class="m" d="M290.3972,449.893c-.4323-.1815-.8431-.4125-1.2242-.688-.7754-.4702-1.8792-1.1698-3.2766-2.0541-2.6991-1.7703-6.4261-4.2615-10.3808-7.2115-3.4102-2.4896-6.6522-5.2003-9.7027-8.1189-1.1582-1.0922-2.0442-2.1085-2.6233-2.7981-.3201-.3349-.6055-.7012-.8513-1.0922.3712.292.7111.622,1.0147.9833.6236.6451,1.5525,1.5739,2.7321,2.6562,3.1166,2.8179,6.3766,5.4726,9.7687,7.9539,3.9448,2.9499,7.6487,5.4643,10.2719,7.3434l3.1248,2.1844c.4108.2393.7969.5197,1.1467.8414Z"/>
      <path class="m" d="M278.421,454.8211c-1.8412-.6781-3.567-1.6416-5.1129-2.8509-1.6432-1.0592-3.1165-2.3593-4.3704-3.8574.1204-.1204,2.1201,1.5509,4.7416,3.397,2.6233,1.8478,4.8192,3.1693,4.7416,3.3112Z"/>
      <path class="m" d="M273.0244,463.8243c-3.2007-1.4238-6.3222-3.0176-9.3546-4.7746-3.1182-1.5855-6.1457-3.3442-9.0692-5.2663,3.1974,1.4271,6.3156,3.0208,9.343,4.7746,3.1232,1.5855,6.1539,3.3442,9.0807,5.2663Z"/>
      <path class="p" d="M331.003,189.5434c-.5753-2.1675-1.6261-4.18-3.0756-5.8918-1.4495-1.7121-3.2607-3.0808-5.3026-4.0074-4.0952-1.8061-8.4551-2.9381-12.9119-3.3516-15.6714-2.2344-31.9636-3.2895-47.1053,1.3655-7.5324,1.9006-14.2077,6.2714-18.9606,12.413-3.8189,5.617-6.8603,13.7785-4.1606,19.6748l3.6936,34.3213c2.301.2335,4.6191.2335,6.9201,0v-27.4012c1.9792.2913,3.9954.1751,5.9262-.3412,2.8251-.8139,5.3596-2.4124,7.3075-4.61,1.9507-2.1974,3.2379-4.9033,3.7107-7.8032,2.1671,3.0782,5.2627,5.384,8.831,6.5827,3.5682,1.1983,7.427,1.2268,11.0124.0809,3.5882-1.1457,6.7151-3.406,8.9278-6.452,2.2127-3.0457,3.3975-6.7185,3.3775-10.4833,1.8539,3.3177,4.5536,6.0849,7.8257,8.0202,3.2693,1.9351,6.9942,2.9688,10.796,2.9964,7.6947-.2794,14.7402-7.6651,13.1881-15.1132Z"/>
      <path class="p" d="M238.0597,180.1403c-.3731.3104-2.452-1.7998-5.5248-3.5375-3.0699-1.738-5.9262-2.5138-5.8323-3.1035.0911-.5895,3.2579-.3722,6.6411,1.5828,3.3831,1.955,5.0577,4.841,4.716,5.0583Z"/>
      <path class="p" d="M238.931,174.8769c-.4044.2173-2.0817-2.6376-2.7623-6.579-.672-2.3546-.5411-4.8652.3702-7.1374.6891,2.2278,1.1078,4.5306,1.2417,6.8583.6322,2.2375,1.0166,4.5371,1.1504,6.858Z"/>
      <path class="o" d="M244.9309,239.0054c-.4042-.1848-16.1602-5.4626-16.3136,10.785-.1534,16.2493,16.2377,13.1129,16.2707,12.6213.033-.4916.0429-23.4063.0429-23.4063Z"/>
      <path class="m" d="M239.9698,256.1934c-.0759,0-.2838.198-.7639.4158-.7012.2887-1.4865.2887-2.186,0-1.7158-.6451-3.1364-3.3987-3.1908-6.337-.0264-1.3974.2607-2.7833.8414-4.0537.1567-.5164.4372-.9866.8183-1.3677.3828-.3811.8513-.6616,1.3677-.8183.3267-.0808.6731-.0445.9783.1006.3036.1452.5494.391.6929.6979.2079.4587.099.7853.1864.8084.0874.0214.3597-.2739.2293-.9404-.0874-.4042-.3118-.7672-.6336-1.0278-.4454-.3399-1.0064-.4966-1.564-.4356-.6698.127-1.2968.424-1.8214.8612-.523.4389-.9272,1.0031-1.1714,1.6399-.7061,1.4057-1.0575,2.9631-1.0278,4.5354.0775,3.2782,1.7274,6.37,4.0768,7.0795.4355.1287.8959.16,1.3446.0907.4504-.071.8777-.2392,1.2555-.495.5346-.3597.622-.721.5676-.754Z"/>
    </g>
  </g>
  <g class="q">
    <g>
      <path class="l" d="M412.2245,279.65c3.5747-2.1654,7.4257-3.8392,11.4479-4.9753l2.3565-11.3378,19.1543-.3325,2.7716,11.2401c4.0642.9953,7.9752,2.5341,11.6287,4.5738l9.7018-6.3473,13.7763,13.3051-6.0014,9.8961c2.1633,3.5758,3.837,7.4263,4.9759,11.4479l11.3372,2.37.3325,19.1403-11.2401,2.7721c-.9953,4.0642-2.5335,7.9752-4.5738,11.6282l6.3479,9.7018-13.3056,13.7769-9.8956-6.0014c-3.5779,2.1638-7.4279,3.8419-11.4484,4.9894l-2.37,11.3237-19.1402.3465-2.7721-11.2541c-4.0637-.9953-7.9752-2.5341-11.6281-4.5738l-9.7018,6.3479-13.7763-13.3056,6.0008-9.8956c-2.1633-3.5779-3.8413-7.4279-4.9893-11.4484l-11.3232-2.356-.3465-19.1543,11.2541-2.7721c.9926-4.0605,2.5314-7.9671,4.5738-11.6141l-6.3479-9.7024,13.3051-13.7763,9.8961,6.0013v-.014ZM422.425,305.1656c-2.8174,2.927-4.7038,6.6237-5.4222,10.6221-.7178,3.9989-.2342,8.1204,1.3887,11.8451,1.6235,3.7242,4.3141,6.8839,7.7318,9.0795,3.4182,2.1962,7.4101,3.3302,11.4722,3.2584,4.0621-.0718,8.0119-1.345,11.3507-3.6605,3.3383-2.3149,5.9161-5.5674,7.4068-9.3467,1.4913-3.7787,1.8292-7.9153.9705-11.8861-.8582-3.9709-2.8741-7.5985-5.793-10.4245-1.9425-1.881-4.2375-3.3599-6.7532-4.3525-2.5152-.9926-5.202-1.4789-7.9056-1.4314-2.7041.0475-5.372.6283-7.8505,1.7088-2.479,1.0805-4.7206,2.6399-6.5961,4.5878Z"/>
      <path class="e" d="M282.7469,20.2928c2.2709-1.3693,4.713-2.4321,7.2627-3.1602l1.4967-7.1931,12.1549-.2218,1.7466,7.1375c2.5746.6369,5.0536,1.6106,7.3734,2.8968l6.1395-4.0194,8.7319,8.441-3.7976,6.3338c1.3688,2.2755,2.4315,4.7222,3.1596,7.2762l7.1796,1.4967.2218,12.1414-7.1381,1.7601c-.6337,2.5708-1.6079,5.046-2.8962,7.3593l4.0189,6.1536-8.4404,8.7319-6.2783-3.7976c-2.2674,1.3731-4.7103,2.431-7.2627,3.1461l-1.4967,7.1931-12.1549.2218-1.7466-7.1375c-2.5778-.6585-5.0574-1.6559-7.3733-2.9664l-6.1399,4.0194-8.7316-8.4404,3.7976-6.2783c-1.369-2.2712-2.4316-4.713-3.1601-7.2627l-7.1793-1.4416-.2217-12.1549,7.1377-1.7461c.6317-2.5762,1.6059-5.0563,2.8967-7.3734l-4.0193-6.1401,8.496-8.787,6.2785,3.8116h-.0554ZM289.2195,36.4806c-1.7886,1.854-2.9875,4.1965-3.4451,6.7316-.4576,2.5352-.1534,5.1486.8741,7.511,1.0276,2.3619,2.7323,4.3665,4.8988,5.7601s4.6974,2.1136,7.273,2.0694c2.5762-.0448,5.0806-.8517,7.1974-2.3193,2.1174-1.4675,3.7517-3.5299,4.6968-5.9263.9456-2.3964,1.1588-5.019.6142-7.5369-.5451-2.5179-1.8243-4.8172-3.6762-6.608-2.4871-2.4008-5.8259-3.7161-9.2824-3.6562-3.4565.0599-6.7478,1.4891-9.1507,3.9746Z"/>
      <path class="f" d="M446.6107,418.8159c1.6354-.992,3.3977-1.7569,5.2393-2.2734l1.0811-5.1831,8.7454-.1528,1.2614,5.1281c1.8589.4588,3.6486,1.1626,5.3218,2.0931l4.4216-2.8968,6.2923,6.0845-2.7721,4.5182c.991,1.6376,1.7596,3.3993,2.2869,5.2392l5.1696,1.0811.1528,8.7454-5.1281,1.2608c-.4588,1.8545-1.1626,3.64-2.0931,5.3083l2.8968,4.4351-6.0845,6.2928-4.5182-2.7721c-1.637.9888-3.3987,1.7531-5.2393,2.2728l-1.0811,5.1837-8.7454.1522-1.2749-5.1141c-1.8551-.4501-3.6411-1.1491-5.3083-2.0791l-4.435,2.8968-6.2923-6.0845,2.7716-4.5181c-.9861-1.6381-1.7504-3.3998-2.2728-5.2393l-5.1837-1.0811-.1522-8.7454,5.1421-1.2608c.4534-1.8588,1.1529-3.6486,2.0785-5.3224l-2.8962-4.4215,6.0839-6.2923,4.5187,2.7721.0135-.0275ZM451.2816,430.4715c-1.2921,1.3369-2.1584,3.0269-2.4898,4.8566-.3309,1.8292-.1123,3.7156.6288,5.4206.7411,1.705,1.9717,3.1515,3.5353,4.1571,1.5636,1.0056,3.3907,1.5248,5.2495,1.4919,1.8589-.0329,3.6659-.6164,5.1928-1.677,1.5269-1.0606,2.7052-2.5497,3.3858-4.2801.6801-1.7299.8317-3.6233.4356-5.4395-.3956-1.8168-1.3218-3.4748-2.6604-4.7648-1.7925-1.7277-4.1981-2.6733-6.6874-2.6296-2.4898.0442-4.8598,1.0746-6.5902,2.8649Z"/>
      <path class="j" d="M1158.5735,555.5551c0,.2105-205.0416.3616-457.9139.3616s-457.9678-.1241-457.9678-.3616c0-.2321,204.9995-.3616,457.9678-.3616s457.9139.1673,457.9139.3616Z"/>
      <path class="j" d="M335.2198,515.9598s-5.8626-40.2635-5.3639-63.6866c.4993-23.4231,0-49.7704,0-49.7704h2.689s-1.8297,46.4856.1662,74.538c1.996,28.054,7.2212,38.919,7.2212,38.919h-4.6849"/>
      <path class="n" d="M352.6691,357.1949c-.4307-1.4265-1.2921-2.6858-2.4666-3.6033-1.705-1.0811-3.9504-.6239-5.8626,0-8.1495,2.8828-15.3847,18.0872-18.6831,26.084l10.8245,36.4788c19.5423-18.0867,22.9238-41.9259,16.1879-58.9595Z"/>
      <path class="j" d="M349.578,355.0743c-.0367.163-.0928.3212-.1662.4712-.1387.3465-.305.7902-.5268,1.386-.4712,1.1502-1.1361,2.7721-1.9404,4.8927-1.5939,4.1576-3.6173,9.9236-5.433,16.4512-1.8157,6.5282-3.049,12.543-3.8251,16.909-.3881,2.1897-.679,3.9638-.8593,5.1837-.0971.5818-.1662,1.0396-.2359,1.386-.0173.1652-.0545.3282-.1106.4847-.0151-.1657-.0151-.3325,0-.4987,0-.374.0831-.8452.1522-1.386.1247-1.2473.3746-3.0215.7211-5.2252.9116-5.7245,2.1471-11.3933,3.7005-16.978,1.5415-5.5825,3.3923-11.0749,5.5437-16.4512.8317-2.0516,1.5523-3.7145,2.0791-4.8371.2359-.5268.4437-.9564.5959-1.2889.0739-.1819.177-.3503.305-.4993Z"/>
      <path class="n" d="M331.6716,424.9414c-4.9127-2.811-9.0217-6.8353-11.9336-11.6892-2.9119-4.8533-4.5295-10.3727-4.6979-16.0302-.3881-8.094,2.1066-16.0357,4.9203-23.6309.1738-.6881.5802-1.2954,1.1502-1.7185.4604-.1706.957-.2202,1.4416-.1452.4852.0756.9429.2731,1.3305.5748,7.3734,4.1582,11.85,12.1965,14.22,20.346,1.7034,5.4017,2.2696,11.0976,1.6629,16.7287-.9197,5.9242-3.7355,11.3901-8.0243,15.5785"/>
      <path class="j" d="M331.6716,424.9414c-.0178-.1614-.0178-.3239,0-.4853v-1.386c0-1.2057,0-2.9659-.1522-5.1281-.2882-5.65-.9132-11.2779-1.8713-16.8534-1.1367-6.5416-2.4947-12.3903-3.5067-16.6315-.4987-2.065-.9008-3.756-1.1917-5.0034-.1387-.5543-.2359-.998-.319-1.386-.0459-.1581-.0739-.3206-.0831-.4852.075.1447.1306.2985.1662.4577l.4021,1.386c.3325,1.1642.7902,2.8687,1.3861,4.9753,1.0946,4.1582,2.5087,10.0624,3.6314,16.6315.9769,5.5939,1.5652,11.2482,1.7601,16.923v6.5416c-.0518.1582-.1263.3077-.2218.4437Z"/>
      <g class="r">
        <path class="d" d="M331.6716,424.9414c-4.9127-2.811-9.0217-6.8353-11.9336-11.6892-2.9119-4.8533-4.5295-10.3727-4.6979-16.0302-.3881-8.094,2.1066-16.0357,4.9203-23.6309.1738-.6881.5802-1.2954,1.1502-1.7185.4604-.1706.957-.2202,1.4416-.1452.4852.0756.9429.2731,1.3305.5748,7.3734,4.1582,11.85,12.1965,14.22,20.346,1.7034,5.4017,2.2696,11.0976,1.6629,16.7287-.9197,5.9242-3.7355,11.3901-8.0243,15.5785"/>
      </g>
      <path class="n" d="M343.1189,486.49c9.9933,2.2075,18.2119,9.2457,27.8446,12.6731,6.3754,2.2723,13.5825,3.0603,18.6691,7.524-1.2198-3.0928-4.1582-5.1437-6.9303-6.9303-7.9299-4.9602-16.3968-9.0029-25.2382-12.0578-4.5322-1.5653-9.4384-2.8714-14.0678-1.5814"/>
      <path class="n" d="M328.6771,495.4335c-12.4734-.1943-25.6678-10.838-38.1142-11.4749,13.0282-4.1603,31.6838-.7772,38.1142,11.4749Z"/>
      <path class="n" d="M333.5704,465.4396c6.4466-2.1212,13.3219-2.5978,19.9995-1.386,6.641,1.2187,13.1686,2.9896,19.5148,5.2948-.6515-4.3384-4.1582-7.5952-7.4565-10.4779-2.4159-2.2567-5.0428-4.2758-7.8451-6.0289-2.8164-1.759-6.0764-2.6771-9.3969-2.6474-1.9906.129-3.9347.6579-5.7158,1.5561-1.7811.8976-3.3631,2.1455-4.6509,3.6691-2.5346,2.7559-4.0972,6.2653-4.4491,9.9928"/>
      <path class="n" d="M307.902,451.6358c-7.817-6.7219-19.7917-6.071-30.1451-5.8351,16.6257,7.9164,32.3078,17.6797,46.7491,29.1054.4296-7.2902-6.6528-14.7467-16.604-23.2703Z"/>
      <g class="r">
        <path class="d" d="M307.902,451.6358c-7.817-6.7219-19.7917-6.071-30.1451-5.8351,16.6257,7.9164,32.3078,17.6797,46.7491,29.1054.4296-7.2902-6.6528-14.7467-16.604-23.2703Z"/>
      </g>
      <path class="n" d="M337.1046,442.3496c3.8462-2.662,7.8964-5.0163,12.1134-7.0409,4.1582-1.8707,8.0108-4.8787,12.0162-7.0404,5.1837-2.7721,9.7018-6.7219,14.4418-10.2011,4.74-3.4786,9.9933-6.6248,15.8279-7.5537-4.7988-.8544-9.7315-.5694-14.4003.8317-4.6504,1.4001-9.1826,3.1656-13.5545,5.2808-6.1401,2.7716-12.3908,5.5437-17.4082,10.0899-5.0169,4.5457-9.5631,8.9257-9.0363,15.6336Z"/>
      <path class="j" d="M370.7692,495.4335c-.1365-.0378-.2672-.0971-.3881-.1673l-1.0951-.5668c-.9424-.502-2.2863-1.2468-3.9914-2.0942-.8452-.4426-1.7741-.9175-2.7721-1.3871s-2.0926-.9985-3.2568-1.4951c-2.4823-1.1119-5.0557-2.0078-7.6924-2.6771-2.6167-.7286-5.3736-.7988-8.0248-.2051-1.154.2537-2.2885.5937-3.3955,1.0093-.9645.3778-1.8923.842-2.7721,1.3871-1.27.7988-2.4304,1.7542-3.4511,2.8552-.7206.7772-1.0811,1.2468-1.1086,1.2198-.0275-.027,0-.1403.2218-.3616.2218-.2213.4156-.5667.7486-.9823.9942-1.1496,2.1411-2.159,3.4095-2.9955.8782-.5721,1.806-1.0687,2.7716-1.4843,1.1194-.4534,2.2734-.815,3.4511-1.0795,2.7111-.6261,5.5356-.5721,8.2192.1673,2.6652.6855,5.263,1.6138,7.7615,2.7689,1.1642.5182,2.2453,1.0309,3.2428,1.5436,1.012.4804,1.9404.9662,2.7721,1.3817,1.691.8906,3.0215,1.6786,3.9363,2.2184l1.053.6369c.2083.2105.3605.2914.3605.3077Z"/>
      <path class="j" d="M319.3499,489.2643c.2731.0432.5392.1187.7902.2375.6995.2483,1.3801.5397,2.0375.8852,2.1822,1.0903,4.1943,2.4882,5.9733,4.156,1.7725,1.7056,3.2816,3.6594,4.4766,5.8076.3595.6477.6833,1.317.9704,1.9971.1236.2429.2078.5073.2494.7772,0,0-.5403-1.0255-1.4967-2.6177-1.2549-2.0618-2.7689-3.9563-4.5047-5.6295-1.745-1.6732-3.7021-3.1143-5.8211-4.2801-1.6214-.8636-2.7025-1.3331-2.6749-1.3331Z"/>
      <path class="j" d="M291.6855,450.9979c.1814.0351.3584.0912.5268.1662l1.5107.5268,2.37.8728c.9149.3465,1.9128.8457,3.049,1.386,5.8659,2.7154,11.3432,6.2016,16.2856,10.3673,2.696,2.3176,5.2333,4.8134,7.5952,7.4705,1.9107,2.1816,3.7058,4.4626,5.3774,6.8326,1.386,2.0235,2.5227,3.7004,3.2568,4.8636l.8598,1.3871c.1123.1511.2051.313.2769.4857-.1382-.1295-.2591-.2699-.3605-.4318-.2078-.2914-.5262-.7179-.9143-1.3008-.7902-1.1367-1.9128-2.7721-3.368-4.7821-1.4551-2.0094-3.2849-4.2963-5.447-6.7359-2.3603-2.6318-4.8879-5.1086-7.5671-7.4149-4.9181-4.1382-10.3387-7.64-16.1328-10.4224-1.1092-.5128-2.1066-1.0396-3.008-1.386l-2.3419-1.0396-1.4692-.6099-.4993-.2353Z"/>
      <path class="j" d="M352.3366,458.4128c-.3363-.0129-.6709-.0594-.998-.1382l-1.1502-.2083c-.4437-.0831-.9705-.0831-1.5388-.1522-2.9675-.2515-5.9458.3395-8.5927,1.7045-1.4573.7513-2.7856,1.7293-3.9363,2.8968-.9532.9348-1.7946,1.977-2.5087,3.1046-.6498,1.0552-1.229,2.1525-1.7326,3.2849.0534-.332.142-.6569.2634-.9699.3125-.8652.7119-1.6964,1.1917-2.4812.6952-1.1755,1.5334-2.2599,2.4952-3.2292,1.1594-1.2112,2.5076-2.227,3.9914-3.0074,2.7149-1.4098,5.7909-1.97,8.8285-1.6079.5214.0394,1.0395.109,1.5523.2078l1.1507.2909c.3406.0556.6714.1582.9839.305Z"/>
      <path class="j" d="M364.9071,419.4112c-.1463.1134-.3044.211-.4712.2915l-1.3861.7621c-1.2193.6514-2.9659,1.6214-5.0865,2.8687-2.1201,1.2473-4.5872,2.7721-7.2347,4.7124-2.8898,2.0197-5.5982,4.2877-8.0939,6.7775-1.2862,1.277-2.3997,2.7165-3.3124,4.2828-.8177,1.5798-1.5939,3.0906-2.3149,4.5597-1.3024,2.5681-2.4634,5.2053-3.4786,7.9002-.6687,1.8141-1.2333,3.6648-1.691,5.5437-.3184,1.386-.4296,2.0931-.4712,2.0931-.0275-.1841-.0275-.3708,0-.5548,0-.36.1247-.9008.2634-1.5798.3886-1.9101.9122-3.7906,1.5663-5.6268.9769-2.7246,2.1104-5.3904,3.3955-7.9833.7205-1.4692,1.4967-3.008,2.3009-4.5738.9224-1.6117,2.0602-3.0895,3.3815-4.3935,2.5082-2.5125,5.2403-4.7907,8.1636-6.8056,2.6749-1.8848,5.1972-3.423,7.3318-4.6569,2.1341-1.2333,3.9223-2.1342,5.1556-2.7716l1.3861-.6795c.1927-.075.3924-.1306.5959-.1663Z"/>
      <path class="j" d="M329.8419,457.2766c-.1355-.3368-.2197-.692-.2499-1.0536-.1522-.7621-.3325-1.7325-.5543-2.8828-.5991-3.1715-1.3861-6.3047-2.356-9.3828-1.012-3.0668-2.2065-6.0705-3.5758-8.9953-.4852-1.0671-.9008-1.9679-1.2198-2.6885-.1743-.3152-.3093-.6504-.4021-.998.217.2893.4026.6008.5549.9284.3325.6099.8037,1.4972,1.3855,2.6199,1.4681,2.8978,2.71,5.9053,3.7145,8.9947.9904,3.0938,1.7455,6.2583,2.2594,9.466.1938,1.2198.3325,2.2178.4021,2.9108.0507.3578.0648.72.0416,1.0811Z"/>
      <path class="n" d="M328.9275,428.8221c-.3891-4.7351-1.773-9.3353-4.061-13.4994-3.0868-5.732-7.3912-10.7187-12.611-14.6097-5.2198-3.891-11.2282-6.5918-17.6031-7.912,9.3321,13.8595,18.655,27.7561,27.9688,41.69l3.6173,7.429c2.2777-3.9649,3.2206-8.5565,2.689-13.0978Z"/>
      <path class="i" d="M369.0507,510.9834h-65.03v11.5288h65.03v-11.5288Z"/>
      <path class="i" d="M308.8719,520.2129l5.5442,35.7739h43.1727l6.5972-35.7739h-55.3141Z"/>
      <path class="j" d="M369.0097,522.5285c0,.1241-14.6636.2375-32.7503.2375s-32.7649-.1133-32.7649-.2375,14.6636-.2213,32.7649-.2213,32.7503.081,32.7503.2213Z"/>
      <path class="h" d="M699.3016,234.7167h-248.4086v149.3108h248.4086v-149.3108Z"/>
      <path class="e" d="M699.3016,234.7167h-248.4086v22.9519h248.4086v-22.9519Z"/>
      <path class="h" d="M467.7879,246.1926c.0027.6558-.1895,1.2975-.5516,1.8438-.3622.5468-.8787.9737-1.4837,1.2263-.605.2531-1.2716.3206-1.915.1943-.6434-.1263-1.2349-.4404-1.6996-.9035-.4647-.4626-.7815-1.0525-.9105-1.6959-.129-.6428-.0642-1.3094.1862-1.9155.2504-.6061.6752-1.1242,1.2198-1.4891.5451-.3643,1.1864-.5592,1.8421-.5592.876,0,1.7164.3471,2.3371.9656.6207.618.9715,1.4573.9753,2.3333Z"/>
      <path class="h" d="M478.9454,246.1926c.0027.6563-.19,1.2986-.5527,1.8454-.3627.5468-.8803.9737-1.4859,1.2263-.6061.2521-1.2733.319-1.9172.1916-.6434-.1274-1.2349-.4431-1.6991-.9073-.4642-.4642-.7799-1.0557-.9073-1.6991-.1274-.6439-.0605-1.311.1916-1.9172.2526-.6056.6795-1.1232,1.2263-1.4859s1.189-.5554,1.8454-.5527c.8749,0,1.7142.3476,2.3327.9661.6185.6191.9661,1.4579.9661,2.3328Z"/>
      <path class="h" d="M490.1018,246.1926c.0027.6558-.1894,1.2975-.5516,1.8438-.3622.5468-.8787.9737-1.4838,1.2263-.605.2531-1.2716.3206-1.915.1943-.6434-.1263-1.2349-.4404-1.6996-.9035-.4647-.4626-.7815-1.0525-.9105-1.6959-.129-.6428-.0642-1.3094.1862-1.9155.2504-.6061.6747-1.1242,1.2198-1.4891.5451-.3643,1.1858-.5592,1.8416-.5592.8765,0,1.7169.3471,2.3376.9656.6207.618.9715,1.4573.9753,2.3333Z"/>
      <path class="j" d="M699.2455,384.0415v-10.5195c0-6.9302,0-16.9645-.0831-29.9097,0-25.8762-.0831-63.1727-.1382-108.8957l.2769.2909h-248.3946l.3605-.3605v149.3249l-.3325-.3465,178.7909.1668,51.2807.0966h18.3922-18.2394l-51.2121.319-178.9846.1662h-.3325v-150.0179h.374l248.3946.0831h.2769v.2774c0,45.737-.1107,83.1582-.1382,109.0619,0,12.9316,0,22.9934-.0831,29.8541v7.7755c0,1.7741-.2084,2.6334-.2084,2.6334Z"/>
      <path class="i" d="M488.6602,282.8236h-10.5611v77.3096h10.5611v-77.3096Z"/>
      <path class="i" d="M509.0483,309.0744h-10.5611v51.0453h10.5611v-51.0453Z"/>
      <path class="i" d="M529.4224,292.4289h-10.5611v68.093h10.5611v-68.093Z"/>
      <path class="i" d="M549.81,285.8035h-10.5611v74.3302h10.5611v-74.3302Z"/>
      <path class="i" d="M570.183,310.6402h-10.5611v49.4795h10.5611v-49.4795Z"/>
      <g class="r">
        <path class="h" d="M509.0483,309.0744h-10.5611v51.0453h10.5611v-51.0453Z"/>
      </g>
      <g class="r">
        <path class="h" d="M549.81,285.8035h-10.5611v74.3302h10.5611v-74.3302Z"/>
      </g>
      <path class="j" d="M687.2573,360.1333c0,.1943-49.1325.3605-109.7274.3605s-109.7414-.1247-109.7414-.3605c0-.2353,49.119-.374,109.7414-.374s109.7274.1662,109.7274.374Z"/>
      <path class="h" d="M393.6105,125.5436h-132.3747v132.3749h132.3747V125.5436Z"/>
      <path class="n" d="M330.2575,202.0355l36.4929.4993c-.2774,19.4036-16.6321,35.3146-36.4929,35.3146h-.2218l.2218-35.8139Z"/>
      <path class="i" d="M324.4779,196.8243l-.5128,35.8133c-19.8333-.2769-36.0357-16.3541-36.0357-35.8133s16.4793-35.8139,36.5069-35.8139,36.5064,16.1744,36.5064,35.8139h-36.4648Z"/>
      <path class="e" d="M393.4858,125.5436h-132.25v26.0424h132.25v-26.0424Z"/>
      <path class="h" d="M276.6616,142.3144c2.0744,0,3.756-1.6818,3.756-3.7561s-1.6816-3.756-3.756-3.756-3.756,1.6813-3.756,3.756,1.6816,3.7561,3.756,3.7561Z"/>
      <path class="h" d="M289.3161,142.3144c2.0742,0,3.756-1.6818,3.756-3.7561s-1.6818-3.756-3.756-3.756-3.7562,1.6813-3.7562,3.756,1.6816,3.7561,3.7562,3.7561Z"/>
      <path class="h" d="M305.7252,138.6134c0,.7432-.2202,1.4692-.6331,2.0866-.4124.618-.9991,1.0994-1.6856,1.3833-.686.2844-1.4416.3589-2.1703.2137-.7281-.1446-1.3974-.5025-1.9231-1.0277-.5252-.5252-.883-1.1944-1.0277-1.9231-.1452-.7287-.0707-1.4838.2137-2.1703.2844-.686.7659-1.2727,1.3834-1.6856.6175-.4129,1.344-.6331,2.0866-.6331.9964,0,1.9517.3956,2.6561,1.1005.7044.7044,1.1,1.6597,1.1,2.6555Z"/>
      <path class="j" d="M393.6099,257.9179v-9.5906c0-6.2232,0-15.3426-.0831-26.9298,0-23.1597-.0971-56.2009-.1662-95.854l.319.305h-132.3608l.3603-.3605v132.3749l-.3188-.319,95.8679.1528,26.9292.0831h9.4249-9.4525l-26.8601.0831-95.9926.36h-.305V125.183h132.9707v.319c0,39.7221-.1112,72.847-.1527,96.0617,0,11.5456-.0691,20.6375-.0831,26.8466v8.8561c0,.4021-.0972.6514-.0972.6514Z"/>
      <path class="h" d="M717.194-56.2688h-360.9216V204.1977h360.9216V-56.2688Z"/>
      <path class="l" d="M652.1775,2.7739h-85.5282c-14.2221,0-25.7515,11.5288-25.7515,25.751v8.5516c0,14.2221,11.5294,25.7515,25.7515,25.7515h85.5282c14.2221,0,25.7515-11.5294,25.7515-25.7515v-8.5516c0-14.2221-11.5294-25.751-25.7515-25.751Z"/>
      <path class="f" d="M382.1351,69.8268c-.1274-11.0328,3.0166-21.8562,9.0352-31.1041,6.0186-9.2479,14.642-16.5052,24.7821-20.8561,10.1395-4.3508,21.3408-5.6003,32.1901-3.5909,10.8493,2.0095,20.8599,7.1883,28.7687,14.8822,7.9083,7.6945,13.3607,17.5588,15.6676,28.3487,2.3068,10.7899,1.3661,22.0214-2.7046,32.277-4.0707,10.2556-11.0884,19.0755-20.1674,25.3456-9.0784,6.2707-19.8117,9.7115-30.8439,9.8875-14.8358.1851-29.1395-5.521-39.7734-15.8673-10.6345-10.3463-16.7319-24.4874-16.9543-39.3227ZM464.6558,68.4413c-.1101-5.27-1.7774-10.3894-4.7929-14.7128-3.015-4.3233-7.2422-7.6573-12.1495-9.582-4.9068-1.9242-10.2739-2.3527-15.4241-1.2317-5.1502,1.1216-9.8535,3.7426-13.5167,7.5326-3.6627,3.79-6.1217,8.5797-7.0663,13.7655-.9451,5.1853-.3336,10.5346,1.7574,15.3734,2.091,4.8382,5.5674,8.9494,9.9911,11.8154,4.4237,2.8655,9.5971,4.3573,14.8677,4.2877,7.096-.1204,13.854-3.0517,18.791-8.1495,4.937-5.0984,7.6497-11.9471,7.5423-19.0436v-.055Z"/>
      <path class="n" d="M382.134,69.8268c-.2558-14.8358,5.3828-29.1681,15.68-39.8517,10.2966-10.6841,24.4108-16.848,39.2466-17.1394l.4712,29.2717c-7.1127.1139-13.8891,3.049-18.838,8.1587-4.9489,5.1103-7.6648,11.9768-7.5509,19.0895.1139,7.1127,3.0485,13.8891,8.1587,18.838,5.1103,4.9489,11.9768,7.6654,19.0895,7.5509l.4712,29.2722c-14.8369.1884-29.1427-5.5161-39.7777-15.8629-10.635-10.3468-16.7314-24.4907-16.9505-39.327Z"/>
      <path class="j" d="M464.6553,68.4964c.0157.143.0157.2871,0,.4296v1.2754c.0081.6909-.0378,1.3812-.1387,2.065-.0874.9343-.245,1.861-.4712,2.7721-.5441,2.5449-1.4789,4.9899-2.7721,7.2487-1.6818,3.0215-3.9422,5.6824-6.6528,7.8305-3.5202,2.8417-7.7064,4.7389-12.1641,5.5124-4.4572.7734-9.0379.3983-13.31-1.0914-1.2176-.4226-2.4078-.9224-3.5617-1.4967-1.1642-.6212-2.2847-1.3207-3.3545-2.0926-1.0876-.788-2.1249-1.6446-3.1046-2.5643-.9661-.9759-1.8686-2.0127-2.7025-3.1046-1.7196-2.2415-3.0673-4.7448-3.9914-7.4149-.9127-2.7613-1.4082-5.6435-1.4692-8.5516-.0189-2.907.4064-5.8,1.2614-8.5792.8312-2.6987,2.0947-5.2452,3.742-7.5396,1.5485-2.2437,3.4484-4.2235,5.6268-5.8626,1.0266-.7842,2.1055-1.4978,3.2293-2.1341,1.1297-.618,2.3015-1.155,3.5067-1.6079,5.8745-2.2459,12.3514-2.3549,18.2983-.3076,5.9463,2.0472,10.9837,6.1201,14.2308,11.5062,1.3645,2.2151,2.3786,4.6272,3.0074,7.1515.251.91.4361,1.8362.5543,2.7721.1258.6768.1954,1.3628.2078,2.0515v1.2749c.0184.1474.0184.2963,0,.4437-.0421-.1398-.0658-.2839-.0691-.4296,0-.333-.0691-.7486-.1247-1.2754-.0351-.6849-.1231-1.3661-.2634-2.037-.143-.9375-.3514-1.8637-.6239-2.7721-.6612-2.4812-1.6986-4.8463-3.0765-7.0134-1.8173-2.8898-4.1695-5.4066-6.9303-7.4149-3.5536-2.6334-7.7167-4.3249-12.1009-4.9165-4.3838-.591-8.8463-.0632-12.971,1.535-2.3829.9003-4.6126,2.1627-6.6113,3.742-2.0829,1.6149-3.8899,3.5574-5.3499,5.752-1.5987,2.2383-2.8288,4.7184-3.6449,7.3453-.822,2.6949-1.2333,5.4983-1.2198,8.3158.1026,5.6111,1.9803,11.0458,5.3639,15.5229,1.5701,2.1438,3.4802,4.0167,5.6548,5.5442,1.0347.7567,2.1233,1.4373,3.2568,2.0375,1.1205.5667,2.2782,1.0579,3.4651,1.4692,4.1711,1.4676,8.6461,1.8562,13.0083,1.1291,4.3622-.727,8.469-2.546,11.939-5.2873,2.6744-2.1007,4.923-4.693,6.6248-7.6368,1.3035-2.2135,2.2658-4.6099,2.8552-7.11.2499-.9084.4259-1.8351.5268-2.7721.1258-.6768.1954-1.3628.2078-2.051,0-.5268.0696-.9424.0831-1.2754-.0032-.1295.0059-.2596.0281-.3881Z"/>
      <path class="j" d="M382.1345,69.8274s0,.305.0971.9008c.0971.5964.1107,1.5107.2078,2.6474,0,.5959.0971,1.2473.1527,1.9544.055.7065.2494,1.4967.3881,2.3419.1382.8458.3044,1.7466.4712,2.7721.2067,1.0244.4658,2.0375.7761,3.0355,1.3817,5.2112,3.545,10.1833,6.417,14.7468,3.7436,6.0807,8.6234,11.3836,14.3727,15.6195l2.4251,1.7606c.8458.5543,1.7466,1.0395,2.6334,1.5798.8873.5403,1.7741,1.0951,2.7721,1.5383l2.9103,1.386,1.4692.679,1.5523.5408,3.1461,1.0951c1.0676.346,2.1903.5543,3.2989.8312,1.1065.3109,2.2313.5516,3.368.7211,2.3322.3978,4.6893.6342,7.0544.7065,1.1923,0,2.4116.1247,3.6314.0831l3.6729-.2494c.6234,0,1.2473,0,1.8572-.1522l1.8432-.319c1.2333-.2359,2.4947-.3881,3.742-.679,5.0746-1.2425,9.9668-3.1386,14.553-5.6414,1.1642-.665,2.2728-1.3855,3.423-2.1341,1.1588-.7157,2.2658-1.5124,3.3129-2.384,2.1892-1.704,4.2591-3.5564,6.1951-5.5437l2.7721-3.1602.6925-.7902.6239-.8593,1.2333-1.7326,1.2479-1.732,1.0946-1.8572,1.0811-1.8572.5403-.9289.4577-.9839,1.8157-3.9498,1.3861-4.1582c3.6265-11.4479,3.4316-23.7647-.5543-35.0928l-1.5804-4.1582c-.6374-1.3024-1.2889-2.6053-1.9404-3.8942l-.4852-.9705-.5678-.9149-1.1507-1.8292-1.1361-1.8157-1.3029-1.691-1.3029-1.691-.6374-.8312-.7346-.7761c-.9564-1.0395-1.9128-2.0515-2.8693-3.077-1.9965-1.9042-4.122-3.6686-6.3614-5.2808-1.0735-.8409-2.2086-1.6009-3.3955-2.2728-1.1642-.679-2.3009-1.386-3.4792-2.0375-2.3646-1.1885-4.8042-2.2205-7.3037-3.0905-2.4321-.8539-4.9186-1.5437-7.443-2.065-1.2473-.2494-2.5087-.374-3.742-.5683l-1.8713-.2494c-.6094-.0831-1.2333,0-1.8567-.0971l-3.687-.1247c-1.2198,0-2.4256.1387-3.6173.1943-2.3614.1495-4.7092.4647-7.0269.9424-1.134.2019-2.2545.475-3.3539.8177-1.0951.3184-2.2038.5683-3.2573.9424l-3.1046,1.2058-1.5383.5818-1.4551.7346-2.8693,1.3861c-.9424.4577-1.7876,1.0951-2.6749,1.6219-.8868.5262-1.7601,1.0811-2.5918,1.6629l-2.37,1.8297c-5.6084,4.4199-10.3139,9.8783-13.8594,16.0772-2.723,4.6558-4.7233,9.698-5.9323,14.9546-.2817,1.0077-.5084,2.0305-.679,3.063-.1387.9705-.2774,1.8713-.3881,2.7721-.1107.9008-.2634,1.6214-.319,2.3284-.0551.7065,0,1.386-.0831,1.9679,0,1.1502-.0966,2.0235-.1247,2.6474-.0275.6234-.0691.9149-.0691.9149v-5.5442c0-.7206.1803-1.4967.2769-2.3425.0971-.8452.2359-1.7736.3605-2.7716.1603-1.0417.3778-2.0731.6515-3.0911,1.1772-5.2927,3.1494-10.377,5.8486-15.0792,3.5321-6.268,8.2375-11.7971,13.86-16.285l2.384-1.8572c.8452-.5959,1.732-1.1227,2.6053-1.691.8733-.5684,1.7466-1.1783,2.7025-1.6494l2.8968-1.3861,1.386-.7481,1.5523-.5959,3.1461-1.2198c1.0536-.3881,2.1762-.6374,3.2849-.9704,1.1145-.3465,2.2485-.6288,3.3955-.8452,2.3403-.4831,4.7114-.8026,7.0965-.9564,1.2058,0,2.425-.2078,3.6589-.2218l3.728.1247c.6239,0,1.2473,0,1.8853.0971l1.8707.2494c1.2614.1943,2.5362.319,3.7976.5543,2.5562.5327,5.0752,1.2317,7.5396,2.0931,2.6042.8598,5.1426,1.9064,7.5952,3.1321,1.1923.638,2.3565,1.386,3.5342,2.0515,1.1977.6811,2.3463,1.4454,3.4376,2.2869,2.2685,1.6381,4.4264,3.4257,6.4585,5.3499l2.8968,3.1046.7346.7896.665.8458,1.3029,1.7045,1.386,1.7185,1.1502,1.8297,1.1642,1.8572.5824.9284.4847.9704,1.9819,3.9498c.5268,1.386,1.0536,2.7721,1.5939,4.1581,4.0421,11.4705,4.237,23.9455.5549,35.5365l-1.386,4.1576c-.6099,1.386-1.2339,2.6749-1.8432,4.0054l-.4577.998-.5543.9424-1.0951,1.8853-1.1086,1.8707-1.2614,1.7466-1.2608,1.746-.6239.8733-.7071.8037c-.9424,1.0811-1.8707,2.1487-2.7716,3.2017-1.9663,1.9868-4.0637,3.8386-6.2788,5.5442-1.0617.8749-2.1822,1.6759-3.354,2.3975-1.1642.7206-2.2869,1.4832-3.4651,2.1622-2.3452,1.2835-4.7767,2.4045-7.2762,3.3539-2.4364.9392-4.9316,1.7169-7.4705,2.3284-1.2473.2909-2.5222.4437-3.7695.679l-1.8713.319c-.6234.0971-1.2614.0971-1.8848.1522l-3.7145.2359c-1.2333,0-2.4531,0-3.6729-.0831-2.3878-.088-4.768-.3335-7.124-.7346-1.1496-.1792-2.288-.4248-3.409-.7346-1.1227-.2909-2.2453-.4993-3.3264-.8593l-3.1742-1.1086-1.5658-.5549-1.4972-.693-2.9243-1.3855c-.9699-.4437-1.8432-1.0536-2.7721-1.5663-.9284-.5128-1.8016-1.0395-2.6609-1.5939l-2.4391-1.7882c-5.8173-4.2548-10.7548-9.5971-14.539-15.7307-2.8606-4.6083-4.9964-9.6289-6.3339-14.8855-.3033-1.0282-.5441-2.0742-.7211-3.1321l-.4572-2.7721c-.1247-.8452-.2774-1.6214-.3465-2.3419-.0691-.7211-.0831-1.386-.1107-1.9684,0-1.1502-.1112-2.0375-.1527-2.6609-.0416-.6239-.0416-.8317-.0416-.8317Z"/>
      <path class="i" d="M432.0431,8.3316c36.0357-.5818,64.7531,27.3734,65.3349,63.5608l-34.0948.5408c-.2774-17.297-13.4303-28.1906-30.6577-27.9137l-.5824-36.1879Z"/>
      <path class="j" d="M432.0431,8.3316v2.5778c0,1.705.0966,4.1582.1797,7.2627.1387,6.2783.319,15.2455.5684,26.3333l-.2769-.2634c3.4559-.0529,6.9022.3713,10.2421,1.2614,3.6762.9656,7.1273,2.642,10.1595,4.9338,3.2584,2.4968,5.8961,5.7126,7.7059,9.3974,1.8783,3.9315,2.872,8.2272,2.9103,12.5846l-.36-.3465,26.3333-.4296,7.6924-.1247-.3465.36c-.1867-6.8536-1.3585-13.6452-3.4792-20.1657l-1.5523-4.5738c-.6515-1.4832-1.3855-2.9103-2.0926-4.3379-.6801-1.4379-1.4578-2.8272-2.3284-4.1581-.7648-1.3283-1.6068-2.6102-2.5227-3.8392-.9143-1.2058-1.8292-2.384-2.7716-3.5617-.9424-1.1783-1.9819-2.1487-2.9383-3.2158l-1.4551-1.5523-1.5663-1.386-3.0771-2.7716c-3.905-3.0706-8.1452-5.6883-12.6401-7.803l-3.0215-1.386c-1.0115-.4021-2.0094-.7211-2.9794-1.0676l-2.7721-.9699c-.9149-.2909-1.8297-.4712-2.7721-.693l-2.5362-.6099-1.1917-.2909-1.1783-.1662-4.1582-.5959c-1.1027-.1527-2.2135-.2402-3.3264-.2634l-2.4531-.1247-1.4551-.014h-.5403,4.4766c1.1351-.0178,2.2696.047,3.3955.1938l4.1581.5268,1.1777.1662,1.2058.2634,2.5643.5959c.8733.2218,1.8017.3746,2.7721.6655l2.7716.9564c.9704.3465,1.9819.6515,2.9939,1.0395l3.063,1.3861c4.5505,2.1017,8.8469,4.7146,12.8064,7.789,1.0115.9008,2.051,1.8016,3.1046,2.7721l1.5939,1.386,1.4692,1.5658c.9699,1.0671,2.0095,2.1066,2.9799,3.2433l2.7716,3.5898c.9327,1.2355,1.7887,2.5271,2.5643,3.8667.8835,1.3283,1.6705,2.7176,2.356,4.1581.693,1.3861,1.4692,2.8687,2.1206,4.3794l1.7601,4.6428c2.1541,6.5859,3.3442,13.4481,3.5342,20.3741v.3605h-.36l-7.6924.1247-26.3333.4156h-.3605v-.3465c-.0108-4.2515-.9575-8.4485-2.7721-12.2936-1.7498-3.6011-4.3114-6.7467-7.484-9.1891-2.9599-2.2539-6.3306-3.9109-9.9237-4.8787-3.2843-.8852-6.6744-1.3191-10.0759-1.2889h-.2774v-.2634c-.1247-11.0873-.2218-20.1933-.2769-26.5271v-9.0509c-.0972-.4156-.0831-.6234-.0831-.6234Z"/>
      <path class="j" d="M661.8237,22.9262h-101.4532c-.5662,0-1.1097-.2224-1.5145-.6185-.4043-.3967-.6369-.9359-.6477-1.5021,0-.5737.2278-1.1237.6337-1.5291.4053-.4053.9553-.6331,1.5285-.6331h101.4532c.571.0038,1.1178.2332,1.5199.638.4026.4053.6288.9532.6288,1.5242-.0108.5635-.2418,1.1011-.6428,1.4972-.4016.3962-.9418.6196-1.5059.6234Z"/>
      <path class="j" d="M661.8243,34.4296h-101.4538c-.5732,0-1.1232-.2278-1.5285-.6331-.4059-.4053-.6337-.9553-.6337-1.5291-.0016-.285.0529-.5678.1608-.8317.108-.2634.2666-.5036.468-.706.2008-.2024.4399-.3627.7027-.4723.2634-.1096.5457-.1657.8307-.1657h101.4538c.285,0,.5673.0561.8301.1657.2634.1096.5025.2699.7033.4723s.36.4426.468.706c.108.2639.1624.5468.1603.8317,0,.5737-.2278,1.1237-.6331,1.5291-.4053.4053-.9553.6331-1.5285.6331Z"/>
      <path class="j" d="M606.468,45.9331h-46.0975c-.5732,0-1.1232-.2278-1.5285-.6331-.4059-.4059-.6337-.9559-.6337-1.5291-.0016-.285.0529-.5678.1608-.8317.108-.2639.2666-.5041.468-.706.2008-.2024.4399-.3627.7027-.4723.2634-.1096.5457-.1662.8307-.1662h46.0975c.285-.0016.5678.0529.8317.1608s.5041.2666.706.4679c.2024.2008.3627.4399.4723.7027.1095.2634.1662.5457.1662.8307.0016.2866-.0534.57-.1619.835-.109.265-.2688.5057-.4712.7081s-.4431.3622-.7081.4712c-.265.1085-.5484.1635-.835.1619Z"/>
      <path class="l" d="M652.1775,76.2443h-85.5282c-14.2221,0-25.7515,11.5288-25.7515,25.751v8.5516c0,14.2221,11.5294,25.7515,25.7515,25.7515h85.5282c14.2221,0,25.7515-11.5294,25.7515-25.7515v-8.5516c0-14.2221-11.5294-25.751-25.7515-25.751Z"/>
      <path class="l" d="M664.5964,173.7477h-113.2756c-3.1478-.0038-6.1655-1.2565-8.3897-3.484-2.2248-2.227-3.4743-5.2457-3.4743-8.3935,0-1.5582.3071-3.1008.903-4.5403.5964-1.4395,1.4702-2.7473,2.5719-3.8489,1.1016-1.1016,2.4094-1.9754,3.8489-2.5718,1.4395-.5964,2.9821-.903,4.5403-.903h113.2756c3.1478,0,6.1671,1.2495,8.394,3.4738,2.227,2.2248,3.4802,5.2425,3.484,8.3902,0,3.1499-1.2517,6.1714-3.4792,8.3989-2.2275,2.2275-5.2484,3.4786-8.3989,3.4786Z"/>
      <path class="j" d="M661.1447,96.9228h-101.4392c-.5737,0-1.1237-.2278-1.5291-.6331-.4053-.4053-.6331-.9553-.6331-1.5291,0-.5732.2278-1.1232.6331-1.5285.4054-.4059.9553-.6336,1.5291-.6336h101.4392c.2839,0,.5651.0561.8274.1646.2623.109.5009.2683.7017.469.2008.2008.36.4388.4685.7011.109.2623.1646.5435.1646.8274s-.0556.5651-.1646.8274c-.1085.2623-.2677.5009-.4685.7017s-.4393.36-.7017.4685c-.2623.1085-.5435.1646-.8274.1646Z"/>
      <path class="j" d="M656.8209,164.2953h-101.4397c-.5732,0-1.1232-.2278-1.5291-.6331-.4054-.4053-.6331-.9553-.6331-1.5285,0-.5737.2278-1.1237.6331-1.5291.4059-.4053.9559-.6331,1.5291-.6331h101.4397c.2931-.0097.5851.0405.8582.1479.2731.1069.5219.2682.7308.4744.2083.2062.3729.4528.4836.7249.1107.2715.1646.5629.1587.8566-.0054.2861-.0675.5684-.183.8307-.1155.2623-.2818.4987-.4896.6957-.2078.1975-.4523.3514-.72.4534s-.5527.1501-.8388.1403Z"/>
      <path class="j" d="M661.1447,108.4268h-101.4392c-.5737,0-1.1237-.2278-1.5291-.6337-.4053-.4053-.6331-.9553-.6331-1.5285,0-.5737.2278-1.1237.6331-1.5291.4054-.4053.9553-.6331,1.5291-.6331h101.4392c.2839,0,.5651.0556.8274.1646.2623.1085.5009.2677.7017.4685.2008.2008.36.4393.4685.7017.109.2623.1646.5435.1646.8274s-.0556.5651-.1646.8274c-.1085.2623-.2677.5003-.4685.7011-.2008.2008-.4393.36-.7017.469-.2623.1085-.5435.1646-.8274.1646Z"/>
      <path class="j" d="M605.8031,119.9303h-46.0975c-.5737,0-1.1237-.2278-1.5291-.6331-.4053-.4053-.6331-.9553-.6331-1.5291,0-.5732.2278-1.1232.6331-1.5285.4054-.4059.9553-.6337,1.5291-.6337h46.0975c.5732,0,1.1232.2278,1.5286.6337.4053.4053.6337.9553.6337,1.5285,0,.5737-.2283,1.1237-.6337,1.5291-.4053.4053-.9553.6331-1.5286.6331Z"/>
      <path class="j" d="M533.8153,15.6078c-.6272.1036-1.263.15-1.8988.1387l-5.1696.1106c-4.366,0-10.4089.1112-17.0612.1112h-7.7755l.2494-.0971c-3.3955,3.3539-6.3198,6.2092-8.4129,8.2186l-2.3975,2.2594c-.2742.2979-.5867.5592-.9289.7761.2175-.3422.4782-.6542.7761-.9284l2.329-2.4671c1.9954-2.0931,4.8647-5.0174,8.2186-8.4129l.0971-.0971h7.9137c6.6528,0,12.6958,0,17.0612.0971l5.1702.1106c.6142.0016,1.2268.0615,1.8292.1803Z"/>
      <path class="j" d="M532.3187,18.5877c1.5922,0,2.8828-1.2905,2.8828-2.8827s-1.2905-2.8828-2.8828-2.8828-2.8828,1.2905-2.8828,2.8828,1.2905,2.8827,2.8828,2.8827Z"/>
      <path class="j" d="M532.3187,105.2391c1.5922,0,2.8828-1.2905,2.8828-2.8828s-1.2905-2.8828-2.8828-2.8828-2.8828,1.2905-2.8828,2.8828,1.2905,2.8828,2.8828,2.8828Z"/>
      <path class="j" d="M530.4058,102.8691c-1.6052.1851-3.2217.2547-4.8372.2078h-11.6837l-11.6697-.1112-3.5482-.0831c-.4291.0302-.8598.0302-1.2889,0,1.5857-.3244,3.2061-.4501,4.8231-.374,2.9939-.0831,7.124-.1247,11.6837-.0971,4.5602.0281,8.6904.0831,11.6837.1662,1.6176-.0302,3.2352.0669,4.8372.2915Z"/>
      <path class="n" d="M409.6456,166.2081h-9.4519v9.4525h9.4519v-9.4525Z"/>
      <path class="e" d="M441.3429,166.2081h-9.4525v9.4525h9.4525v-9.4525Z"/>
      <path class="i" d="M475.7291,166.2081h-9.4525v9.4525h9.4525v-9.4525Z"/>
      <path class="j" d="M717.2631,204.1977c0-2.4256-.1247-102.4792-.2909-260.4664l.2909.2911h-360.8941l.3605-.3604V204.128l-.319-.3325,360.9222.3325-360.9222.319h-.3325V-56.6984h361.5731v.2911c-.3881,158.1257-.3881,258.1794-.3881,260.605Z"/>
    </g>
  </g>
</svg>
