<?xml version="1.0" encoding="UTF-8"?><svg id="a" xmlns="http://www.w3.org/2000/svg" xmlns:xlink="http://www.w3.org/1999/xlink" viewBox="0 0 566.93 566.93"><defs><style>.c{fill:#aa6550;}.c,.d,.e,.f,.g,.h,.i,.j,.k,.l,.m,.n,.o,.p{stroke-width:0px;}.d{fill:#e30613;}.f{fill:#e0e0e0;}.g{fill:#f5f5f5;}.h{fill:none;}.q{clip-path:url(#b);}.i{fill:#fff;}.j{fill:#09f;}.k{fill:#202020;}.l{fill:#fafafa;}.m{fill:#263238;}.r{opacity:.3;}.n{fill:#ebebeb;}.s{opacity:.6;}.o{fill:#eb996e;}.p{fill:#455a64;}</style><clipPath id="b"><rect class="h" y="595.28" width="566.93" height="566.93"/></clipPath></defs><path class="g" d="M109.79,95.15c.03-6.09-1.36-12.1-4.04-17.57-2.68-5.47-6.59-10.24-11.42-13.95-4.83-3.71-10.45-6.25-16.43-7.43-5.97-1.18-12.14-.96-18.02.63-5.88,1.6-11.31,4.53-15.86,8.57-4.56,4.04-8.12,9.08-10.41,14.72-2.29,5.64-3.25,11.74-2.79,17.81.45,6.07,2.3,11.96,5.41,17.2l.12.14c1.51,2.56,3.41,4.33,5.33,7.07l22.96,30.4c.66.88,1.52,1.6,2.51,2.09.99.49,2.08.75,3.18.75s2.19-.26,3.18-.75c.99-.49,1.85-1.21,2.51-2.09l22.5-29.9c2.05-2.42,3.96-4.94,5.73-7.57l.09-.11c3.57-6.06,5.45-12.97,5.44-20.01ZM70.25,112.37c-3.44,0-6.81-1.02-9.67-2.93-2.86-1.91-5.09-4.63-6.41-7.81-1.32-3.18-1.66-6.68-.99-10.06.67-3.38,2.33-6.48,4.76-8.91,2.43-2.43,5.54-4.09,8.91-4.76,3.38-.67,6.88-.33,10.06.99,3.18,1.32,5.9,3.55,7.81,6.41,1.91,2.86,2.93,6.23,2.93,9.67,0,2.29-.45,4.55-1.32,6.66-.87,2.11-2.16,4.03-3.77,5.65-1.62,1.62-3.54,2.9-5.65,3.77-2.11.87-4.38,1.32-6.66,1.32Z"/><path class="g" d="M536.22,334.93c0-2.68-.61-5.32-1.8-7.73-1.19-2.4-2.91-4.5-5.03-6.13-2.13-1.63-4.6-2.75-7.23-3.26-2.63-.52-5.34-.42-7.93.28-2.59.7-4.97,1.99-6.98,3.77-2.01,1.78-3.58,3.99-4.59,6.47-1.01,2.48-1.44,5.16-1.25,7.84.19,2.67,1,5.27,2.35,7.58v.06c.67,1.08,1.52,1.94,2.36,3.12l10.11,13.4c.29.39.68.71,1.11.92.44.22.92.33,1.41.33s.97-.11,1.4-.33c.44-.22.82-.53,1.11-.92l9.94-13.18c.91-1.07,1.75-2.19,2.53-3.35v-.05c1.61-2.66,2.46-5.7,2.48-8.81ZM518.79,342.5c-1.52,0-3-.45-4.26-1.29-1.26-.84-2.25-2.04-2.83-3.44-.58-1.4-.73-2.94-.44-4.43.29-1.49,1.03-2.85,2.1-3.93,1.07-1.07,2.44-1.8,3.92-2.1,1.49-.3,3.03-.14,4.43.44,1.4.58,2.6,1.56,3.44,2.82.84,1.26,1.29,2.74,1.29,4.26,0,1.01-.2,2.01-.58,2.94s-.95,1.78-1.66,2.49c-.71.71-1.56,1.28-2.49,1.67-.93.39-1.93.59-2.94.59v-.02Z"/><path class="g" d="M476.12,472.4c17.04-17.04,17.04-44.67,0-61.72-17.04-17.04-44.67-17.04-61.71,0-17.04,17.04-17.04,44.67,0,61.72,17.04,17.04,44.67,17.04,61.71,0Z"/><path class="i" d="M445.27,477.87c-7.18,0-14.21-2.13-20.19-6.12-5.97-3.99-10.63-9.66-13.38-16.3-2.75-6.64-3.47-13.94-2.07-20.99,1.4-7.05,4.86-13.52,9.94-18.6,5.08-5.08,11.55-8.54,18.6-9.95,7.05-1.4,14.35-.68,20.99,2.07,6.64,2.75,12.31,7.41,16.3,13.38,3.99,5.97,6.12,13,6.12,20.18,0,9.63-3.84,18.86-10.64,25.67-6.81,6.81-16.04,10.64-25.67,10.65ZM445.27,411.44c-5.95,0-11.77,1.77-16.72,5.07-4.95,3.31-8.81,8.01-11.09,13.51-2.28,5.5-2.87,11.56-1.72,17.39,1.16,5.84,4.03,11.2,8.24,15.42,4.21,4.21,9.57,7.08,15.42,8.24,5.84,1.16,11.89.57,17.39-1.71,5.5-2.28,10.2-6.14,13.51-11.09,3.31-4.95,5.07-10.77,5.07-16.72,0-7.98-3.18-15.64-8.83-21.28-5.64-5.64-13.3-8.82-21.28-8.83Z"/><path class="i" d="M445.02,453.96c-2.65,0-5.23-.78-7.44-2.26-2.2-1.47-3.91-3.56-4.93-6-1.01-2.45-1.28-5.14-.76-7.73.52-2.6,1.8-4.98,3.67-6.85,1.87-1.87,4.26-3.15,6.86-3.66,2.6-.52,5.29-.25,7.73.77,2.44,1.02,4.53,2.73,6,4.93,1.47,2.2,2.25,4.79,2.25,7.44,0,3.55-1.41,6.95-3.92,9.46-2.51,2.51-5.91,3.92-9.46,3.92ZM445.02,433.41c-1.42,0-2.8.42-3.98,1.21-1.18.79-2.1,1.9-2.64,3.21-.54,1.31-.68,2.75-.41,4.14.28,1.39.96,2.66,1.96,3.67,1,1,2.28,1.68,3.67,1.96,1.39.27,2.83.13,4.14-.41,1.31-.54,2.42-1.46,3.21-2.64.79-1.18,1.21-2.56,1.21-3.98,0-1.89-.77-3.71-2.11-5.05-1.34-1.34-3.16-2.09-5.05-2.09v-.02Z"/><path class="f" d="M445.02,440.59h-16.91l2.95,5.22-39.8,18.24,1.34,2.24,39.93-18.03,2.74,5.18,9.75-12.84Z"/><path class="f" d="M391.27,464.04l-.42-.41c-1.02-1-2.3-1.71-3.69-2.06-1.39-.34-2.85-.31-4.22.09l-15.87,4.62,8.84,3.88-3.55,9.44,14.9-5.26c1.63-.59,3.04-1.68,4-3.12.96-1.44,1.44-3.16,1.35-4.89l-1.34-2.29Z"/><path class="f" d="M198.69,473.19l.32-.11.94-.27,3.61-1.08,13.53-3.8-.13.23c-.69-2.32-1.47-4.92-2.29-7.71v-.12l.11-.1c3.75-3.14,6.94-6.89,9.43-11.1,1.39-2.37,2.45-4.92,3.16-7.57.74-2.82.91-5.76.51-8.65-.98-6.28-4.13-12.02-8.89-16.22-5.15-4.5-11.58-7.27-18.39-7.93-5.11-.44-10.24.59-14.79,2.96-4.38,2.13-8.17,5.32-11.02,9.27-2.63,3.72-4.26,8.06-4.74,12.59-.06,1.08-.23,2.16-.21,3.25.02,1.08.05,2.16.09,3.16.17,2.03.53,4.04,1.08,6,.54,1.84,1.26,3.63,2.16,5.32.88,1.58,1.93,3.06,3.12,4.42,2.17,2.43,4.73,4.49,7.57,6.08,4.15,2.35,8.7,3.92,13.41,4.63h.08v.07l1.08,4.91c.11.54.19.96.25,1.27.05.3.09.43.09.44-.05-.13-.09-.26-.11-.39l-.3-1.23-1.17-4.95.1.09c-4.77-.65-9.38-2.19-13.58-4.53-2.88-1.59-5.48-3.66-7.68-6.11-1.24-1.38-2.32-2.88-3.25-4.49-.94-1.72-1.7-3.53-2.27-5.41-.54-1.99-.9-4.03-1.08-6.09l-.1-3.25c0-1.08.14-2.16.21-3.25.47-4.62,2.13-9.05,4.8-12.85,2.9-4.04,6.75-7.29,11.22-9.48,4.66-2.43,9.91-3.47,15.14-3.02,6.94.66,13.5,3.48,18.75,8.08,2.47,2.18,4.53,4.78,6.07,7.69.41.69.77,1.42,1.08,2.16.33.7.62,1.42.84,2.16.23.76.48,1.49.68,2.24.21.75.27,1.53.41,2.28.4,2.96.21,5.97-.55,8.86-.73,2.7-1.82,5.28-3.25,7.68-2.54,4.24-5.79,8.02-9.6,11.17l.08-.22,2.24,7.71.05.18-.17.05-13.68,3.63-3.6.94-.91.23-.47.16Z"/><path class="f" d="M218.87,473.2c-3.07,1.15-6.21,2.12-9.4,2.89-3.14.96-6.33,1.73-9.56,2.3,3.08-1.14,6.21-2.1,9.4-2.88,3.14-.96,6.33-1.73,9.56-2.31Z"/><path class="f" d="M214.64,482.05c-.97.69-2.08,1.14-3.25,1.32-1.13.36-2.32.47-3.49.3,1.08-.41,2.21-.71,3.35-.89,1.1-.35,2.24-.6,3.39-.74Z"/><path class="f" d="M202.55,472.19c-.05-.09-.09-.2-.11-.3-.06-.24-.14-.54-.25-.92-.22-.86-.52-2.04-.91-3.54-.78-3.13-1.88-7.57-3.25-13.06-.68-2.76-1.42-5.78-2.16-9.01-.16-.8-.48-1.56-.94-2.23-.2-.33-.5-.58-.87-.7-.36-.12-.76-.11-1.11.04-.34.23-.61.53-.78.9-.18.36-.26.77-.23,1.17.03.86.37,1.69.96,2.32.64.66,1.43,1.16,2.3,1.44.87.29,1.8.36,2.71.21.95-.15,1.85-.52,2.62-1.11.77-.58,1.38-1.34,1.77-2.22.88-1.82,1.11-3.89.63-5.86-.18-1-.65-1.92-1.35-2.65-.33-.33-.77-.55-1.23-.61-.47-.06-.94.03-1.35.26-.35.31-.59.74-.68,1.21-.09.47-.02.95.19,1.37.47.88,1.17,1.63,2.01,2.16,1.59,1.27,3.51,2.06,5.54,2.29.96.09,1.94-.06,2.83-.42.85-.39,1.59-.98,2.16-1.72.58-.72.93-1.59,1-2.51.04-.44-.02-.88-.16-1.3-.14-.42-.37-.8-.66-1.13-.25-.31-.59-.55-.97-.69-.38-.13-.79-.16-1.19-.07-.39.14-.74.37-1.02.66-.28.29-.5.65-.62,1.05-.53,1.59-.06,3.36.13,5,.52,3.25,1.08,6.34,1.66,9.12,1.08,5.54,2.02,10.03,2.66,13.18.3,1.52.55,2.73.72,3.58.06.39.13.69.17.94.01.11.01.22,0,.32-.04-.1-.08-.21-.1-.31-.06-.24-.14-.54-.24-.92-.21-.85-.48-2.05-.83-3.56-.7-3.09-1.71-7.57-2.85-13.14-.56-2.78-1.18-5.83-1.73-9.13-.12-.83-.26-1.67-.35-2.54-.13-.91-.05-1.83.22-2.71.15-.47.41-.89.75-1.25.34-.35.76-.63,1.23-.79.5-.13,1.03-.11,1.52.05.49.16.93.45,1.26.85.34.38.6.83.77,1.31.17.48.23,1,.2,1.51-.06,1.03-.44,2.02-1.08,2.83-.64.82-1.48,1.48-2.43,1.9-.98.4-2.05.56-3.1.48-2.13-.24-4.16-1.06-5.84-2.39-.93-.61-1.67-1.46-2.16-2.45-.31-.54-.41-1.17-.28-1.77.13-.61.48-1.14.98-1.5.5-.36,1.12-.52,1.74-.45.61.07,1.18.37,1.59.83.78.81,1.3,1.83,1.51,2.94.51,2.1.27,4.32-.68,6.26-.44.95-1.12,1.79-1.96,2.42-.84.63-1.83,1.05-2.87,1.21-1,.16-2.02.08-2.98-.25-.96-.32-1.82-.88-2.52-1.61-.68-.74-1.07-1.69-1.08-2.7-.03-.5.08-1,.31-1.44s.58-.82,1.01-1.08c.23-.11.48-.17.74-.19.26-.01.51.02.75.11.44.19.81.49,1.08.89.49.74.84,1.56,1.03,2.42.77,3.25,1.48,6.27,2.16,9.04l3.03,13.08c.34,1.51.61,2.7.8,3.57.08.38.14.68.19.93.02.12.02.25,0,.37Z"/><path class="f" d="M218.12,477.25c-2.46.99-4.99,1.79-7.57,2.39-2.54.79-5.14,1.4-7.77,1.82,2.46-.99,4.99-1.79,7.57-2.39,2.54-.79,5.14-1.4,7.77-1.82Z"/><path class="m" d="M512.18,527.21c0,.15-103.23.28-230.56.28s-230.58-.13-230.58-.28,103.21-.28,230.58-.28,230.56.12,230.56.28Z"/><path class="f" d="M493.13,92.05H70.32v27.09h422.81v-27.09Z"/><path class="i" d="M493.06,144.02H70.25v237.13h422.81v-237.13Z"/><path class="n" d="M70.32,118.93h58.06l5.74-16.75h94.11l5.74,16.75h259.15v25.66H70.32v-25.66Z"/><path class="m" d="M84.27,102.86c0,.63-.19,1.24-.54,1.77-.35.52-.85.93-1.43,1.17-.58.24-1.22.3-1.84.18-.62-.12-1.18-.43-1.63-.87-.44-.44-.75-1.01-.87-1.63-.12-.62-.06-1.26.18-1.84.24-.58.65-1.08,1.17-1.43.52-.35,1.14-.54,1.77-.54.42,0,.83.08,1.22.24.39.16.74.39,1.03.69.3.3.53.65.69,1.03.16.39.24.8.24,1.22Z"/><path class="m" d="M94.11,102.86c0,.63-.19,1.24-.54,1.77-.35.52-.85.93-1.43,1.17-.58.24-1.22.3-1.84.18-.62-.12-1.18-.43-1.63-.87-.44-.44-.75-1.01-.87-1.63-.12-.62-.06-1.26.18-1.84.24-.58.65-1.08,1.17-1.43.52-.35,1.14-.54,1.77-.54.42,0,.83.08,1.22.24.39.16.74.39,1.03.69.3.3.53.65.69,1.03.16.39.24.8.24,1.22Z"/><path class="m" d="M103.94,102.86c0,.63-.19,1.24-.54,1.77-.35.52-.85.93-1.43,1.17-.58.24-1.22.3-1.84.18-.62-.12-1.18-.43-1.63-.87-.44-.44-.75-1.01-.87-1.63-.12-.62-.06-1.26.18-1.84.24-.58.65-1.08,1.17-1.43.52-.35,1.14-.54,1.77-.54.42,0,.83.08,1.22.24.39.16.74.39,1.03.69.3.3.53.65.69,1.03.16.39.24.8.24,1.22Z"/><path class="l" d="M446.4,139.49H156.32c-2.13,0-4.18-.85-5.69-2.36-1.51-1.51-2.36-3.56-2.36-5.69s.85-4.18,2.36-5.69c1.51-1.51,3.56-2.36,5.69-2.36h290.08c2.13,0,4.18.85,5.69,2.36,1.51,1.51,2.36,3.56,2.36,5.69s-.85,4.18-2.36,5.69c-1.51,1.51-3.56,2.36-5.69,2.36Z"/><path class="f" d="M163.26,132.51v2.73h-1.37v-2.51c0-.77-.36-1.08-.96-1.08s-1.15.41-1.15,1.28v2.36h-1.37v-6.6h1.37v2.29c.41-.38.96-.58,1.51-.56.27-.02.55.02.81.13.26.1.49.26.67.46.19.2.33.44.41.7.08.26.11.54.07.81Z"/><path class="f" d="M167.57,135c-.32.21-.7.31-1.08.3-.23.03-.47.01-.7-.06-.23-.07-.43-.2-.6-.36-.17-.16-.3-.37-.38-.59s-.11-.46-.09-.7v-1.95h-.74v-1.08h.74v-1.16h1.37v1.16h1.18v1.08h-1.18v1.95c-.01.08,0,.17.02.25.03.08.07.15.13.21.06.06.13.11.21.14.08.03.16.04.24.03.2,0,.39-.06.55-.18l.34.96Z"/><path class="f" d="M171.27,135c-.32.2-.7.31-1.08.3-.24.03-.47.01-.7-.06-.23-.07-.43-.2-.6-.36-.17-.16-.3-.37-.38-.59-.08-.22-.11-.46-.09-.7v-1.95h-.74v-1.08h.74v-1.16h1.37v1.16h1.19v1.08h-1.19v1.95c0,.08,0,.16.02.24.03.08.07.15.13.21.06.06.13.11.2.14s.16.04.24.04c.2,0,.4-.06.56-.18l.32.96Z"/><path class="f" d="M177.26,132.86c.02.32-.03.64-.14.94-.11.3-.28.57-.51.8s-.49.41-.79.53c-.3.12-.62.18-.94.17-.27.01-.53-.03-.78-.13-.25-.1-.47-.25-.65-.44v2.16h-1.37v-6.49h1.34v.55c.19-.21.42-.37.68-.48.26-.11.54-.15.82-.14.32,0,.65.06.94.18.3.13.57.32.79.55.22.24.39.52.49.83.1.31.14.63.11.96ZM175.87,132.86c-.02-.23-.11-.46-.25-.64-.15-.18-.34-.32-.56-.4-.22-.08-.46-.08-.69-.03-.23.06-.43.18-.59.35-.16.17-.26.39-.3.62-.04.23,0,.47.09.68.09.22.25.4.44.53.2.13.43.2.66.2.17,0,.34-.03.49-.1.16-.07.29-.17.41-.29.11-.12.2-.27.25-.43.05-.16.07-.33.06-.5Z"/><path class="f" d="M177.85,131.27c.02-.21.12-.41.28-.55.16-.14.36-.22.58-.22s.42.08.58.22c.16.14.26.34.28.55.01.12,0,.24-.04.36-.04.12-.1.22-.18.31-.08.09-.18.16-.29.21-.11.05-.23.08-.35.08s-.24-.03-.35-.08c-.11-.05-.21-.12-.29-.21-.08-.09-.14-.2-.18-.31-.04-.12-.05-.24-.04-.36ZM177.85,134.44c.02-.21.12-.41.28-.55.16-.14.36-.22.58-.22s.42.08.58.22c.16.14.26.34.28.55.01.12,0,.24-.04.36-.04.12-.1.22-.18.31-.08.09-.18.16-.29.21-.11.05-.23.08-.35.08s-.24-.03-.35-.08c-.11-.05-.21-.12-.29-.21-.08-.09-.14-.2-.18-.31-.04-.12-.05-.24-.04-.36Z"/><path class="f" d="M182.95,127.79h1.23l-2.92,8.32h-1.22l2.91-8.32Z"/><path class="f" d="M185.78,127.79h1.22l-2.91,8.32h-1.23l2.92-8.32Z"/><path class="l" d="M446.14,186.66h-252.73c-3.78,0-7.41-1.5-10.09-4.18-2.68-2.68-4.18-6.31-4.18-10.09,0-3.78,1.51-7.41,4.18-10.09s6.3-4.18,10.09-4.18h252.73c3.79,0,7.41,1.51,10.09,4.18,2.68,2.68,4.18,6.3,4.18,10.09,0,3.78-1.5,7.41-4.18,10.09-2.68,2.68-6.31,4.18-10.09,4.18Z"/><path class="m" d="M446.14,186.66c2.02-.04,4-.49,5.84-1.32,1.81-.83,3.43-2.03,4.75-3.52,1.32-1.49,2.32-3.24,2.93-5.13.51-1.69.71-3.46.59-5.23-.14-1.97-.68-3.9-1.6-5.65-1.03-1.92-2.48-3.57-4.25-4.85-1.93-1.39-4.18-2.27-6.55-2.55-1.26-.11-2.51-.14-3.77-.11h-40.28l-210.37.08c-2.53,0-5,.69-7.17,1.99-2.13,1.27-3.88,3.09-5.08,5.26-1.2,2.17-1.79,4.63-1.73,7.11.06,2.48.79,4.9,2.09,7.01,1.31,2.11,3.15,3.83,5.35,4.99,2.17,1.12,4.58,1.68,7.02,1.62h70.51l94.58.06,63.82.09h23.36-23.36l-63.82.1-94.58.05h-70.51c-2.53.07-5.04-.52-7.28-1.69-2.87-1.52-5.15-3.96-6.48-6.92-1.33-2.97-1.62-6.29-.84-9.45.78-3.15,2.6-5.95,5.16-7.96,2.56-2,5.72-3.09,8.97-3.09l210.43.36h40.28c1.28-.03,2.55,0,3.82.12,2.4.3,4.69,1.2,6.65,2.63,1.72,1.23,3.14,2.83,4.17,4.68,1.02,1.85,1.63,3.9,1.76,6.01.11,1.79-.1,3.59-.63,5.3-.49,1.5-1.22,2.9-2.16,4.16-1.47,1.99-3.42,3.57-5.68,4.58-1.37.6-2.83.99-4.33,1.16-1.07.1-1.59.1-1.59.1Z"/><path class="f" d="M199.2,175.44l.53-1.19c.67.46,1.46.71,2.27.71.94,0,1.32-.31,1.32-.74,0-1.29-3.99-.4-3.99-2.95,0-1.17.94-2.16,2.9-2.16.83-.02,1.66.19,2.38.61l-.49,1.21c-.58-.34-1.23-.53-1.9-.54-.94,0-1.31.36-1.31.79,0,1.27,3.99.39,3.99,2.91,0,1.15-.95,2.16-2.91,2.16-.99.02-1.97-.26-2.79-.81Z"/><path class="f" d="M211.02,173.91h-3.99c.08.33.28.63.55.82.28.2.62.29.96.26.24,0,.49-.03.71-.12.23-.09.43-.22.61-.4l.81.89c-.41.4-.93.67-1.49.79-.56.12-1.14.08-1.68-.11-.54-.19-1.01-.53-1.37-.98-.36-.45-.58-.99-.65-1.56,0-.37.07-.73.21-1.07.14-.34.35-.64.61-.9.26-.25.58-.45.92-.58.34-.13.71-.19,1.07-.17.36-.02.73.04,1.07.17.34.13.65.33.91.59.26.26.46.57.59.91.13.34.19.71.17,1.07,0,.1-.02.26-.03.39ZM207.01,173.01h2.6c-.06-.3-.22-.58-.45-.78-.24-.2-.54-.31-.85-.31s-.61.11-.84.31c-.24.2-.4.47-.45.78Z"/><path class="f" d="M216.59,173.1v3.02h-1.43v-.66c-.18.26-.42.46-.71.59-.28.13-.6.18-.91.15-1.23,0-1.97-.69-1.97-1.6s.66-1.58,2.26-1.58h1.22c0-.65-.4-1.08-1.22-1.08-.54,0-1.08.17-1.51.49l-.55-1.08c.68-.43,1.47-.65,2.27-.64,1.57.06,2.54.81,2.54,2.4ZM215.07,174.45v-.54h-1.08c-.71,0-.94.26-.94.62s.32.64.85.64c.25.02.49-.03.7-.16.21-.13.37-.32.46-.55Z"/><path class="f" d="M221.26,170.76v1.41h-.35c-.19-.02-.38.01-.57.08-.18.07-.34.18-.48.31-.13.14-.23.31-.3.49-.06.18-.08.38-.06.57v2.5h-1.54v-5.28h1.46v.69c.22-.26.5-.47.82-.6.32-.13.66-.19,1-.16Z"/><path class="f" d="M221.73,173.48c0-.38.08-.75.23-1.09.15-.34.37-.65.65-.91.28-.26.6-.45.96-.57s.73-.17,1.11-.14c.48-.04.97.07,1.39.31.42.24.76.6.97,1.03l-1.19.64c-.11-.22-.28-.4-.49-.53-.21-.13-.45-.2-.69-.19-.39,0-.76.15-1.03.43-.27.27-.43.65-.43,1.03s.15.76.43,1.03c.27.27.65.43,1.03.43.25,0,.49-.06.7-.19.21-.13.38-.31.48-.53l1.19.65c-.22.43-.56.79-.98,1.02-.42.24-.9.34-1.38.31-.37.03-.75-.02-1.11-.14-.36-.12-.68-.32-.96-.57-.28-.26-.5-.56-.65-.91-.15-.34-.23-.72-.23-1.09Z"/><path class="f" d="M233.28,173.1v3.02h-1.54v-2.79c0-.85-.39-1.24-1.08-1.24s-1.27.45-1.27,1.43v2.61h-1.54v-7.28h1.54v2.55c.22-.21.49-.37.78-.48.29-.11.59-.16.9-.15.31-.02.62.02.9.13.29.11.55.29.76.51.21.22.37.49.46.79.09.29.12.6.08.91Z"/><path class="f" d="M237.06,175.23c0-.25.1-.49.28-.67.18-.18.42-.28.67-.28s.49.1.67.28c.18.18.28.42.28.67s-.1.49-.28.67c-.18.18-.42.28-.67.28s-.49-.1-.67-.28c-.18-.18-.28-.42-.28-.67Z"/><path class="f" d="M239.64,175.23c0-.19.06-.37.17-.53.11-.15.26-.28.43-.35.17-.07.36-.09.55-.05.18.04.35.13.48.26.13.13.22.3.26.49.04.18.02.38-.06.55-.07.17-.19.32-.35.43-.16.1-.34.16-.53.16-.13,0-.25-.02-.37-.07-.12-.05-.22-.12-.31-.21s-.16-.2-.21-.31c-.05-.12-.07-.24-.07-.37Z"/><path class="f" d="M242.2,175.23c0-.25.1-.49.28-.67s.42-.28.67-.28.49.1.67.28.28.42.28.67c0,.13-.02.25-.07.36-.05.12-.12.22-.21.31-.09.09-.19.16-.31.21-.12.05-.24.07-.36.07s-.25-.02-.36-.07c-.12-.05-.22-.12-.31-.21-.09-.09-.16-.19-.21-.31-.05-.12-.07-.24-.07-.36Z"/><path class="e" d="M149.71,211.48c0,.16-10.15.28-22.65.28s-22.65-.12-22.65-.28,10.14-.28,22.65-.28,22.65.15,22.65.28Z"/><path class="d" d="M151.48,224.45h-47.08v47.08h47.08v-47.08Z"/><path class="e" d="M437.55,235.55c0,.15-58.41.28-130.51.28s-130.52-.13-130.52-.28,58.42-.28,130.52-.28,130.51.12,130.51.28Z"/><path class="e" d="M247.92,253.27c0,.16-15.4.28-34.39.28s-34.4-.12-34.4-.28,15.39-.28,34.4-.28,34.39.13,34.39.28Z"/><path class="f" d="M395.83,269.71c0,.15-48.52.28-108.35.28s-108.35-.13-108.35-.28,48.51-.29,108.35-.29,108.35.13,108.35.29Z"/><path class="e" d="M149.71,295.86c0,.15-10.15.28-22.65.28s-22.65-.13-22.65-.28,10.14-.28,22.65-.28,22.65.1,22.65.28Z"/><path class="j" d="M151.48,308.78h-47.08v47.08h47.08v-47.08Z"/><path class="e" d="M453.06,319.86c0,.16-61.91.28-138.26.28s-138.27-.12-138.27-.28,61.9-.28,138.27-.28,138.26.13,138.26.28Z"/><path class="e" d="M247.92,337.59c0,.15-15.4.28-34.39.28s-34.4-.13-34.4-.28,15.39-.28,34.4-.28,34.39.13,34.39.28Z"/><path class="f" d="M433.57,354.03c0,.16-56.95.28-127.21.28s-127.23-.12-127.23-.28,56.96-.28,127.23-.28,127.21.13,127.21.28Z"/><path class="m" d="M493.13,381.72c0-1.86-.09-113.37-.23-289.67l.23.23H70.35l.28-.28v289.67l-.26-.26,422.81.26-422.81.25h-.26V91.72h423.32v.23c-.21,176.4-.3,287.91-.3,289.78Z"/><path class="e" d="M216.81,113.04c0,.16-14.93.28-33.34.28s-33.34-.12-33.34-.28,14.93-.28,33.34-.28,33.34.13,33.34.28Z"/><path class="p" d="M156.66,166.28h-59.22v17.84h59.22v-17.84Z"/><path class="j" d="M261.52,213.01c0,.16-18.39.28-41.11.28s-41.11-.12-41.11-.28,18.39-.28,41.11-.28,41.11.13,41.11.28Z"/><path class="j" d="M261.52,295.86c0,.15-18.39.28-41.11.28s-41.11-.13-41.11-.28,18.39-.28,41.11-.28,41.11.1,41.11.28Z"/><path class="j" d="M440.69,177.14c-1.36,0-2.69-.4-3.83-1.15-1.13-.76-2.02-1.83-2.54-3.09-.52-1.26-.66-2.64-.39-3.98.26-1.34.92-2.56,1.88-3.53.96-.96,2.19-1.62,3.53-1.88,1.33-.27,2.72-.13,3.98.39,1.26.52,2.33,1.41,3.09,2.54.76,1.13,1.16,2.46,1.16,3.83,0,1.82-.73,3.57-2.02,4.85-1.29,1.29-3.03,2.01-4.86,2.02ZM440.69,164.48c-1.15,0-2.27.34-3.22.97-.95.64-1.7,1.54-2.14,2.6-.44,1.06-.56,2.23-.33,3.35.22,1.13.77,2.16,1.58,2.97s1.84,1.37,2.97,1.59c1.13.22,2.29.11,3.35-.33,1.06-.44,1.97-1.18,2.61-2.14.64-.95.98-2.08.98-3.22,0-1.54-.61-3.01-1.7-4.1-1.08-1.09-2.56-1.7-4.09-1.7Z"/><path class="j" d="M449.14,180.2c-.15,0-.28-.06-.39-.16l-4.48-4.45c-.05-.05-.09-.11-.12-.18s-.04-.14-.04-.21.01-.14.04-.21c.03-.07.07-.13.12-.18.05-.05.11-.09.18-.12.07-.03.14-.04.21-.04s.14.01.21.04c.07.03.13.07.18.12l4.48,4.45c.07.08.12.17.14.28.02.1,0,.21-.03.31-.04.1-.11.18-.19.24-.09.06-.19.1-.3.1Z"/><path class="e" d="M335.57,252.06c0,.15-17.71.28-39.56.28s-39.57-.13-39.57-.28,17.72-.28,39.57-.28,39.56.12,39.56.28Z"/><path class="e" d="M386.7,250.84c0,.16-9.27.28-20.7.28s-20.7-.12-20.7-.28,9.27-.28,20.7-.28,20.7.13,20.7.28Z"/><path class="e" d="M335.19,337.59c0,.15-17.71.28-39.56.28s-39.56-.13-39.56-.28,17.71-.28,39.56-.28,39.56.13,39.56.28Z"/><path class="p" d="M122.83,359.86c-8.78,4.54-15.51,12.37-20.35,21-4.84,8.62-7.96,18.06-11.04,27.51l-2.7,48.43c10.21-17.37,18.39-37.8,20.62-57.83l-6.79-.6c4.55-.7,8.38-3.99,10.82-7.91,2.43-3.92,3.68-8.43,4.9-12.87l-8.29,1.23c6.56-4.43,11.16-11.22,12.84-18.95Z"/><g class="r"><path class="e" d="M122.83,359.86c-8.78,4.54-15.51,12.37-20.35,21-4.84,8.62-7.96,18.06-11.04,27.51l-2.7,48.43c10.21-17.37,18.39-37.8,20.62-57.83l-6.79-.6c4.55-.7,8.38-3.99,10.82-7.91,2.43-3.92,3.68-8.43,4.9-12.87l-8.29,1.23c6.56-4.43,11.16-11.22,12.84-18.95Z"/></g><path class="p" d="M87.21,468.08s-22.17-26.52-21.91-51.85h8.95s-9.74-6.41-8.96-9.99c.78-3.58,1.08-17.14,1.08-17.14l8.19,2.04s-6.14-3.07-6.91-7.93c-.77-4.86,1.8-27.38,1.8-27.38,0,0,9.97,10.49,13.05,21.24,3.07,10.74,11.08,23.28,8.72,56.02-2.36,32.74-4,34.97-4,34.97Z"/><path class="p" d="M98.45,470.59s24.02-16,29.35-36.41l-7.2-2.01s9.23-3.01,9.39-6.06c.16-3.05,2.92-14.01,2.92-14.01l-7.03-.14s5.61-1.08,7.29-4.87c1.68-3.79,4.55-22.39,4.55-22.39,0,0-10.32,6.24-15.14,14.21-4.82,7.97-14.06,16.28-19.31,43.13-5.25,26.85-4.81,28.55-4.81,28.55Z"/><path class="m" d="M75.46,378.98c.04.09.07.18.09.27l.19.81c.17.77.41,1.82.72,3.15.62,2.74,1.44,6.71,2.37,11.63,1.89,9.83,4.13,23.51,5.9,38.7,1.76,15.19,2.69,29.01,3.09,39.03.21,5.01.31,9.05.34,11.9v4.09c.02.09.02.19,0,.28-.01-.09-.01-.19,0-.28v-.83c0-.79-.06-1.86-.12-3.25-.09-2.8-.26-6.85-.52-11.85-.5-10.01-1.5-23.8-3.25-38.94-1.74-15.14-3.93-28.84-5.72-38.69-.89-4.92-1.64-8.91-2.16-11.65-.26-1.34-.47-2.4-.62-3.16-.05-.34-.11-.62-.14-.83-.08-.11-.14-.24-.17-.37Z"/><path class="p" d="M84.14,484.32s-20.28-22.95-26.59-36.93l4.76-2.02c-3.45.56-6.98-.92-9.65-3.17-2.57-2.38-4.78-5.11-6.56-8.12l6.26-1.08c-5.75-1.64-10.65-5.42-13.7-10.57,7.4,1.21,14.06,5.27,19.59,10.34,4.39,4.21,8.37,8.81,11.9,13.76,1.76,2.37,3.31,4.91,4.61,7.57,3.39,7.05,9.38,21.78,9.37,30.22Z"/><path class="m" d="M128.12,398.13c-.02.08-.05.16-.09.24l-.3.67-1.22,2.56c-1.08,2.17-2.61,5.41-4.47,9.42-3.72,7.97-8.65,19.12-13.48,31.64-4.82,12.53-8.65,24.07-11.32,32.45-1.31,4.21-2.34,7.57-3.03,9.98l-.83,2.74-.23.7c0,.15-.09.24-.1.23-.01-.01,0-.09,0-.25l.17-.72.71-2.75c.63-2.38,1.6-5.81,2.87-10.03,2.52-8.45,6.32-20.02,11.16-32.57,4.85-12.55,9.83-23.67,13.65-31.61,1.9-3.97,3.49-7.16,4.63-9.35l1.32-2.52.36-.64c.05-.08.11-.15.18-.22Z"/><path class="m" d="M85.86,494.19c-.16-.54-.27-1.09-.32-1.64-.16-1.08-.43-2.59-.81-4.47-.99-4.89-2.37-9.7-4.12-14.38-1.78-4.67-3.92-9.19-6.41-13.52-.96-1.66-1.76-2.99-2.35-3.88-.32-.46-.6-.94-.83-1.45.38.41.72.85,1.02,1.32.64.87,1.5,2.16,2.51,3.82,2.61,4.29,4.82,8.82,6.6,13.51,1.77,4.7,3.1,9.56,3.98,14.51.32,1.9.54,3.44.64,4.52.08.55.12,1.11.11,1.67Z"/><path class="j" d="M112.63,488.77h-44.4v9.05h44.4v-9.05Z"/><path class="j" d="M72.46,497.84l4.8,30.45h26.83l4.48-30.45h-36.11Z"/><path class="m" d="M109.9,497.84c0,.15-8.39.28-18.76.28s-18.75-.13-18.75-.28,8.39-.28,18.75-.28,18.76.12,18.76.28Z"/><path class="p" d="M303.25,505.82v22.46l45.3-.22c-.32-4.55-25.19-13.64-25.19-13.64l.5-8.65-20.61.06Z"/><g class="s"><path class="i" d="M310.59,512.39c-.44.16-.81.48-1.04.89-.23.41-.3.89-.2,1.35.1.45.38.84.77,1.09.39.25.86.33,1.32.24.47-.18.86-.51,1.09-.95.24-.44.31-.95.2-1.44-.08-.22-.2-.43-.36-.61-.16-.18-.35-.32-.57-.42-.22-.1-.45-.16-.69-.17-.24,0-.47.03-.7.11"/></g><path class="m" d="M303.25,528.28v-3.58l43.27.51s2.25,1.35,2.04,2.85l-45.32.22Z"/><path class="m" d="M323.38,514.85c0,.24-1.08.36-2.16,1.08-1.08.72-1.63,1.75-1.84,1.67-.21-.09.11-1.45,1.42-2.35,1.31-.9,2.63-.62,2.59-.4Z"/><path class="m" d="M329.32,516.93c0,.23-.9.64-1.63,1.63-.74,1-.93,2.05-1.15,2.03-.22,0-.38-1.32.55-2.54.93-1.22,2.22-1.34,2.23-1.13Z"/><path class="m" d="M331.99,522.65c-.21.05-.53-1.08,0-2.39.53-1.31,1.57-1.8,1.67-1.61.1.2-.53.89-.96,1.95-.43,1.06-.49,2.03-.7,2.06Z"/><path class="m" d="M322.93,508.46c-.09.22-1.08-.09-2.35,0-1.27.09-2.16.54-2.31.33-.15-.21.8-1.08,2.26-1.15,1.46-.07,2.51.63,2.4.81Z"/><path class="m" d="M323.19,515.86c.12-.45.16-.91.1-1.37-.1-1.26-.51-2.48-1.2-3.54-.47-.73-1.07-1.36-1.77-1.87-.21-.18-.46-.3-.73-.34-.27-.05-.54-.02-.8.07-.27.15-.49.36-.64.62-.16.26-.24.56-.25.86.07,1.17.49,2.3,1.19,3.23.71.94,1.68,1.64,2.79,2.03,1.09.34,2.25.35,3.34.03,1.09-.32,2.06-.97,2.78-1.85.35-.41.63-.87.81-1.38.09-.29.09-.61,0-.9-.05-.15-.13-.28-.24-.39-.11-.11-.24-.2-.38-.26-.47-.14-.97-.09-1.41.14-.38.17-.74.37-1.08.59-1.02.68-1.9,1.55-2.59,2.56-.28.36-.5.77-.63,1.2.94-1.32,2.11-2.45,3.45-3.35.61-.34,1.41-.84,2.04-.62.28.11.39.44.26.83-.16.42-.41.81-.71,1.15-.65.78-1.52,1.34-2.5,1.63-.98.28-2.01.27-2.98-.04-.97-.34-1.82-.95-2.45-1.76-.63-.81-1.03-1.78-1.13-2.8,0-.2.04-.39.13-.56.09-.17.23-.31.4-.41.17-.06.36-.07.53-.03.18.03.34.11.48.23.65.46,1.22,1.02,1.68,1.68.68.97,1.14,2.08,1.33,3.25.14.9.12,1.38.17,1.38Z"/><path class="p" d="M286.71,509.06l.77,5.79-.51,13.04-16.98.41-.61-13.45,1.93-7.99,15.4,2.21Z"/><path class="m" d="M278.57,526.91c-.11,0,.14-3.98.54-8.91.4-4.92.82-8.92.92-8.94.1,0-.14,3.99-.54,8.92-.4,4.92-.82,8.93-.92,8.93Z"/><path class="m" d="M287.03,525.71l-17.16.21v2.38h17.17s-.01-2.59-.01-2.59Z"/><path class="m" d="M269.92,518.22s.12-.27.43-.68c.45-.59.96-1.13,1.51-1.62.82-.74,1.74-1.36,2.74-1.84,1.74-.85,3.71-1.12,5.62-.77,1.91.35,3.65,1.31,4.97,2.73.5.56.92,1.18,1.24,1.85.14.24.23.5.27.77-.53-.83-1.12-1.63-1.77-2.37-1.7-1.67-3.99-2.61-6.37-2.62-2.39.07-4.68.96-6.49,2.53-1.4,1.16-2.09,2.09-2.15,2.02Z"/><path class="o" d="M278.49,145.21l-.13,58.7,25.19,1.2.74-14.28s8.95,1.77,11.25-6.49c1.48-5.31,1.08-46.34,1.08-46.34l-38.13,7.22Z"/><path class="m" d="M319.92,142.12c-3.97,1.14-4.84,7.57-4.84,7.57l-6.22,13.75c-3.17-2.48-7.43-2.34-8.23,3.25-.58,4.02,4.42,4.84,4.42,4.84-2.92,4.97-4.89,8.98-9.14,13.7-4.57,5.14-7.16,5.65-12.14,5.71h-5.5s-2.69-8.73-7.67-30.55c-5.52-24.21,23.11-21.09,28.42-27.27,8.64-10.05,33.43,5.43,20.89,9.01Z"/><path class="m" d="M326.9,136.84c-.22-1.29-.89-2.46-1.9-3.3-1.01-.84-2.28-1.29-3.59-1.28.41-.69.56-1.5.43-2.29-.13-.79-.54-1.51-1.15-2.03-.63-.5-1.37-.85-2.15-1.04-.78-.19-1.6-.2-2.38-.04-1.58.32-3.1.87-4.52,1.62-.53-1.57-1.56-2.92-2.92-3.86-1.47-.86-3.16-1.28-4.86-1.2-7.73,0-11.8,5.29-15.96,10.69-.61,1.01-1.47,1.83-2.51,2.38-.75.22-1.54.31-2.33.26-2.96.09-5.83.96-8.34,2.53-2.51,1.56-4.57,3.76-5.96,6.37-2.7,5.22-4.73,17.31,2.28,24.88l4.22,9.42,40.38-32c.29.15,2.82,1.38,4.77.37,4.84-2.55,2.8-6.79,2.8-6.79.39-.27,4.08-2.08,3.67-4.67Z"/><path class="p" d="M289.53,168.33c.34,1.47.29,3.01-.14,4.46-.23,1.5-.84,2.91-1.78,4.09-.17-.09.64-1.88,1.16-4.23.52-2.35.58-4.32.77-4.32Z"/><path class="p" d="M292.58,165.44c.21,1.44.13,2.92-.24,4.33-.16,1.44-.61,2.83-1.33,4.09.11-1.42.34-2.83.7-4.21.15-1.43.44-2.84.87-4.21Z"/><path class="p" d="M301.3,155.75c.06.09-.65.61-1.56,1.67-1.16,1.4-2.08,2.99-2.72,4.69-.62,1.72-1.12,3.49-1.5,5.28-.11.75-.32,1.48-.63,2.16-.05-.77.02-1.55.18-2.3.26-1.85.71-3.66,1.35-5.41.66-1.77,1.67-3.39,2.99-4.76.51-.59,1.16-1.04,1.88-1.33Z"/><path class="p" d="M304.82,149.16c.08,0,.34.56.5,1.58.18,1.34.11,2.7-.23,4.01-.32,1.31-.89,2.55-1.7,3.63-.62.83-1.08,1.23-1.18,1.18-.1-.05,1.55-2.02,2.26-4.97.71-2.94.15-5.42.35-5.44Z"/><path class="p" d="M274.76,163.82c-.09.16-.85-.11-1.72-.6-.87-.49-1.5-1-1.42-1.16.09-.16.85.12,1.72.61.87.49,1.5,1,1.42,1.15Z"/><path class="p" d="M286.93,157.55c.1.91-.16,1.83-.71,2.55-.78,1.29-1.83,1.96-1.94,1.83-.11-.13.68-.97,1.38-2.16.7-1.19,1.08-2.26,1.27-2.22Z"/><path class="p" d="M290.67,155.54c-.01,1.11-.39,2.18-1.08,3.05-1.01,1.54-2.27,2.36-2.37,2.16s.9-1.08,1.84-2.56c.49-.91,1.02-1.8,1.61-2.65Z"/><path class="p" d="M309.28,130.94s-.48-.36-1.38-.88c-1.3-.69-2.75-1.06-4.22-1.08-2.18-.06-4.34.52-6.2,1.65-2.24,1.47-4.05,3.5-5.27,5.88-.93,1.75-1.66,3.59-2.16,5.51l-.11.37-.34-.18c-1.74-.91-3.66-1.4-5.61-1.44-1.55-.04-3.1.2-4.58.69-1.31.49-2.57,1.11-3.74,1.87.24-.29.53-.54.84-.75.85-.62,1.78-1.12,2.77-1.48,1.5-.57,3.1-.86,4.71-.85,2.05,0,4.08.48,5.91,1.42l-.44.19c.5-1.96,1.23-3.85,2.16-5.65,1.27-2.48,3.18-4.58,5.53-6.08,1.96-1.17,4.22-1.73,6.49-1.61,1.53.07,3.02.52,4.33,1.33.35.22.67.48.96.77.27.19.37.3.36.31Z"/><path class="p" d="M322.53,134.14c-.05,0,.69-.19,1.44.65.22.25.38.54.48.86.1.32.14.65.11.98-.07.44-.23.86-.49,1.22-.26.36-.59.66-.98.88-.93.53-2.02.68-3.06.42-1.14-.3-2.21-.82-3.15-1.54-.98-.79-2.02-1.51-3.09-2.16-1.16-.63-2.42-1.07-3.72-1.31-2.53-.46-5.13-.28-7.57.52-2.01.66-3.9,1.62-5.61,2.86-2.94,2.11-4.39,3.88-4.49,3.79.29-.45.63-.87,1.01-1.24.99-1.07,2.08-2.04,3.25-2.91,1.72-1.32,3.65-2.35,5.7-3.05,2.54-.86,5.26-1.06,7.9-.58,1.37.25,2.68.72,3.91,1.38,1.09.65,2.13,1.38,3.13,2.16.87.68,1.87,1.19,2.93,1.49.91.25,1.89.15,2.73-.29.34-.17.64-.42.87-.72.23-.3.39-.66.46-1.03.08-.58-.07-1.16-.42-1.63-.33-.39-.79-.65-1.3-.74Z"/><path class="o" d="M439.91,179.2c-.95-.84-13.78,4.53-13.78,4.53,0,0-9.57,7.57-13.51,11.95l-2.43,2.02-36.41,28.31-44.79-18.63-9.74,24.98s50.28,20.02,57.94,16.59c8.32-3.72,39.31-36.16,39.39-36.27l4.48-4.33s2.37,0,4.16-.15c1.8-.15,7.05-3.6,7.05-3.6.5-.96.84-1.99,1.02-3.06.11-.43.07-.88-.1-1.28-.18-.4-.48-.73-.87-.94.18-.83.21-1.69.09-2.53-.21-1.43-2.16-3.08-2.16-3.08.61-.62,1.03-1.41,1.2-2.26.43-1.66-1.7-3.25-1.7-3.25,0,0,7.45-5.06,9.26-5.96,1.8-.9,1.86-2.21.91-3.05Z"/><path class="m" d="M335.57,435.07c.15-1.65.23-2.91.23-3.7l5.06-80.73s-4.25-23.58-6.26-29.84l-18.08-7-24.09,9.38c-.15-1.94-.25-3.14-.25-3.14l-35.45,12.27s-.92,24.2,0,31.57c.3,2.37,1.22,8.48,2.35,15.69,0,0,1.15,15.65,1.38,16.53.85,3.19,1.08,11.01,1.08,18.84,0,9.95.54,21.8,1.17,27.42.63,5.63.92,67.55.92,67.55h26.18l3.36-98.61c.56-10.57,1.41-26.73,1.95-38.42l6.14,36.41c0,1.33,3.74,22.15,3.74,22.15-.86,6.55-1.4,13.14-1.6,19.75-.43,18.39-2.59,58.72-2.59,58.72h25.62s7.7-58.29,9.2-74.84h-.06Z"/><path class="p" d="M340.03,345.8c-.84-.32-1.64-.74-2.37-1.27-1.82-1.17-3.51-2.51-5.06-4.01-1.55-1.5-2.95-3.15-4.18-4.92-.55-.71-1-1.49-1.33-2.33.59.66,1.14,1.36,1.64,2.09,1.3,1.69,2.72,3.28,4.25,4.77,1.53,1.47,3.16,2.84,4.88,4.08.76.48,1.48,1.01,2.16,1.59Z"/><path class="p" d="M294.29,360.47c-.21-.24-.37-.51-.5-.8-.4-.76-.76-1.54-1.08-2.34-1.1-2.63-1.9-5.36-2.39-8.17-.48-2.8-.66-5.65-.52-8.49.06-1.08.15-1.96.25-2.56.02-.32.09-.63.21-.93.09,0,0,1.35-.05,3.5-.03,2.81.19,5.62.67,8.38.48,2.77,1.2,5.49,2.16,8.12.77,2.02,1.33,3.23,1.25,3.28Z"/><path class="p" d="M298.1,390.87c-.16-.45-.27-.93-.34-1.4-.19-1.03-.43-2.31-.71-3.86-.56-3.39-1.32-7.85-2.16-12.78-1.45-9.05-2.43-15.22-2.89-18.09.59,1.7,1,3.45,1.23,5.22.63,3.25,1.41,7.78,2.23,12.77.82,4.98,1.5,9.53,1.98,12.81.21,1.56.39,2.85.53,3.89.1.47.14.95.13,1.44Z"/><path class="o" d="M236.32,256.21s-3.45,24.33-4.1,32.85c-.39,5.14,4.82,11.9,8.81,12.45,3.98.55,17.39,1.3,17.39,1.3l1.08-15.26-.35-3.04-4.17-.78,1.25-24.21-19.93-3.31Z"/><path class="c" d="M255.72,260.34c.11.43.16.88.16,1.32.06.85.11,2.09.14,3.62.08,3.05,0,7.28-.26,11.9-.26,4.62-.64,8.87-.93,11.9-.16,1.51-.29,2.75-.4,3.59-.02.44-.1.88-.23,1.31-.05-.44-.05-.89,0-1.33.05-.97.13-2.16.22-3.61.21-3.17.46-7.31.76-11.9.29-4.59.4-8.85.43-11.9v-3.61c0-.43.03-.86.11-1.29Z"/><g class="r"><path class="e" d="M257.04,332.76c6.82,2.53,14.28,2.74,21.52,2.11,7.24-.63,14.4-2.09,21.64-2.77,10.97-1.03,22.03-.29,32.77,2.16.75.23,1.54.3,2.31.22.39-.05.75-.21,1.04-.47.29-.26.5-.6.59-.98.19-1.21-1.14-2.06-2.26-2.52-12.38-5.12-25.69-7.61-39.09-7.31-13.4.3-26.58,3.38-38.72,9.04"/></g><path class="j" d="M361.39,218.45l-38.42-19.13c-6.06-.71-12.16-.98-18.26-.8h-25.43s-30.81,9.09-35.9,17.47l-13.21,39.59,26.11,3.94,3.25,28.45s-3.25,32.94-3.25,37.72c-.07,2.21.06,4.43.4,6.62,0,0,52.25-7.94,65.11-3.75,12.86,4.19,16.33,3.75,16.33,3.75,0,0-1.08-13.67-2.02-21.64l-2.96-39.7-2.16-30.29,24.18,7.4,6.24-29.64Z"/><path class="m" d="M256.04,259.84c-.1,0-.36-1.63-.93-4.27-.76-3.43-1.78-6.81-3.03-10.09-1.28-3.31-2.78-6.53-4.48-9.65l-1.58-2.83c-.22-.34-.4-.7-.53-1.08.28.29.53.61.74.96.44.64,1.08,1.58,1.74,2.77,1.83,3.08,3.39,6.3,4.67,9.64,1.27,3.31,2.23,6.73,2.88,10.21.24,1.33.39,2.41.47,3.17.07.39.08.79.05,1.18Z"/><path class="m" d="M305.31,271.08c-.02.18-.07.36-.14.53l-.49,1.46c-.22.64-.49,1.41-.84,2.29-.36.89-.74,1.9-1.23,2.99-.94,2.16-2.16,4.78-3.7,7.57-1.54,2.79-3.35,5.76-5.41,8.76-2.06,3.01-4.33,5.72-6.37,8.12-2.04,2.4-4.09,4.42-5.84,6.07-.85.84-1.69,1.55-2.39,2.16-.7.62-1.34,1.17-1.86,1.59l-1.21.95c-.14.12-.28.22-.44.31,0,0,.12-.15.38-.4l1.14-1.08c.5-.43,1.08-.98,1.8-1.64.71-.66,1.49-1.37,2.33-2.23,1.71-1.67,3.66-3.74,5.72-6.12,2.07-2.38,4.21-5.13,6.31-8.1,2.1-2.98,3.89-5.95,5.41-8.65,1.51-2.7,2.8-5.3,3.79-7.48.52-1.08.92-2.09,1.3-2.95.38-.87.69-1.62.94-2.25.25-.63.42-1.08.58-1.43.06-.17.15-.33.25-.48Z"/><path class="m" d="M323.06,201.94c-1.01,1.45-1.7,3.09-2.02,4.82-.32,1.88-.32,3.8,0,5.68.42,2.31.96,4.6,1.62,6.86,1.33,4.85,2.73,9.16,3.8,12.28.51,1.47.93,2.7,1.28,3.69.18.44.32.9.41,1.37-.25-.41-.46-.85-.63-1.3-.36-.84-.87-2.08-1.45-3.62-1.17-3.08-2.64-7.41-3.97-12.27-.65-2.27-1.16-4.57-1.55-6.89-.32-1.93-.29-3.91.09-5.83.27-1.3.77-2.53,1.49-3.65.24-.44.55-.82.93-1.15Z"/><path class="i" d="M250.56,243.62c-.57.62-1.27,1.09-2.06,1.4-1.84.84-3.88,1.13-5.88.82-2-.31-3.87-1.19-5.37-2.54-.65-.52-1.18-1.18-1.54-1.94.08-.06.64.7,1.8,1.63,1.51,1.22,3.31,2.01,5.22,2.3,1.91.29,3.87.07,5.67-.65,1.33-.54,2.1-1.1,2.15-1.03Z"/><path class="i" d="M324.2,225.76c-.08.29-.18.57-.31.83-.24.54-.61,1.32-1.14,2.29-1.52,2.76-3.45,5.28-5.71,7.47-3.38,3.28-7.61,5.58-12.2,6.63-2.71.62-5.51.74-8.26.36-2.95-.47-5.78-1.48-8.36-2.98-5.31-2.96-9.8-6.72-14.71-8.51-4.34-1.61-9.07-1.87-13.57-.75-3.03.73-5.9,2.04-8.43,3.86-1.77,1.31-2.61,2.23-2.65,2.16.76-.87,1.6-1.65,2.52-2.35,3.14-2.38,6.82-3.94,10.72-4.54,3.89-.6,7.88-.22,11.59,1.11,5.03,1.82,9.55,5.58,14.8,8.5,2.52,1.48,5.29,2.5,8.17,2.99,2.69.38,5.43.27,8.08-.32,4.52-1.01,8.67-3.23,12.03-6.41,2.27-2.14,4.22-4.6,5.8-7.29.55-.95.96-1.72,1.22-2.24.12-.28.26-.56.42-.82Z"/><path class="i" d="M348.26,211.88c.21.4.38.82.5,1.25.36,1.17.57,2.38.63,3.6.21,4.1-1.09,8.13-3.65,11.34-1.49,1.65-3.1,3.17-4.82,4.57-1.35,1.14-2.46,2.54-3.25,4.12-.53,1.07-.78,2.25-.72,3.44.06.84.25,1.3.19,1.31-.05.01-.08-.1-.16-.31-.12-.31-.21-.64-.25-.97-.15-1.24.05-2.49.57-3.62.76-1.66,1.87-3.13,3.25-4.33,1.68-1.4,3.26-2.91,4.73-4.53,2.47-3.11,3.77-6.99,3.69-10.97-.08-1.65-.32-3.29-.7-4.89Z"/><path class="i" d="M285.76,303.09c-.34.18-.7.32-1.08.4-1.04.3-2.11.52-3.18.67-1.62.27-3.28.17-4.86-.28-.94-.3-1.8-.78-2.54-1.43-.74-.71-1.44-1.47-2.08-2.27-.63-.77-1.35-1.44-2.16-2.01-.77-.5-1.6-.9-2.48-1.19-1.5-.48-3.08-.63-4.64-.44-1.06.12-2.09.41-3.05.87-.35.19-.71.36-1.08.5.28-.28.61-.52.97-.69.96-.55,2.01-.92,3.1-1.08,1.62-.26,3.28-.15,4.85.34.93.29,1.81.7,2.63,1.23.86.58,1.64,1.29,2.29,2.1.62.78,1.29,1.52,2.01,2.22.69.6,1.48,1.07,2.35,1.36,1.51.45,3.09.57,4.65.38,2.63-.31,4.27-.76,4.29-.66Z"/><path class="i" d="M335.51,300.78c-.1.11-.22.21-.35.29-.35.26-.71.5-1.08.71-1.34.82-2.8,1.44-4.33,1.83-2.29.59-4.68.73-7.02.41-2.89-.39-5.64-1.51-7.98-3.25-2.23-1.8-4.36-3.72-6.38-5.74-1.66-1.61-3.57-2.93-5.67-3.89-1.41-.65-2.94-.99-4.49-1-1.08,0-1.71.18-1.72.12.14-.06.28-.11.43-.14.42-.11.85-.18,1.28-.21,1.6-.07,3.19.22,4.66.85,2.16.94,4.15,2.25,5.85,3.88,1.98,1.75,3.95,3.88,6.37,5.67,2.27,1.67,4.92,2.75,7.71,3.14,2.28.33,4.61.24,6.86-.27,1.51-.36,2.96-.91,4.33-1.63.49-.29,1-.55,1.53-.78Z"/><path class="m" d="M427.47,146.64c-7.86-3.76-14.71-9.32-20.02-16.23-5.3-6.91-8.9-14.98-10.49-23.54-1.59-8.56-1.14-17.38,1.32-25.74,2.46-8.36,6.86-16.01,12.84-22.34,5.98-6.33,13.37-11.16,21.57-14.1,8.2-2.94,16.98-3.89,25.62-2.8,8.64,1.1,16.9,4.22,24.1,9.12,7.2,4.89,13.15,11.42,17.35,19.05,5.66,10.26,7.92,22.05,6.44,33.67-1.48,11.62-6.6,22.48-14.65,31-8.04,8.52-18.58,14.26-30.1,16.4-11.52,2.14-23.42.57-33.99-4.5ZM473.57,50.21c-11.1-5.3-23.72-6.46-35.6-3.27-11.88,3.19-22.22,10.52-29.17,20.66-6.95,10.14-10.05,22.44-8.73,34.66,1.31,12.23,6.95,23.58,15.9,32.02,8.95,8.44,20.61,13.4,32.9,13.99,12.28.59,24.37-3.22,34.09-10.75,9.72-7.53,16.43-18.29,18.91-30.33,2.49-12.04.59-24.58-5.35-35.34-5.2-9.43-13.22-17-22.94-21.64Z"/><path class="m" d="M520.8,207.15c-1.55.95-3.42,1.26-5.2.84-1.78-.42-3.31-1.53-4.27-3.07l-36.17-58.62c-.16-.27-.22-.59-.15-.89.07-.3.26-.57.53-.73l7.71-4.76c.26-.16.58-.21.88-.15.3.07.56.25.73.5l38.04,57.15c.52.77.88,1.64,1.06,2.55.18.91.17,1.86-.03,2.77s-.58,1.77-1.12,2.53c-.54.76-1.23,1.4-2.02,1.89Z"/><path class="p" d="M428.8,143.85c-7.86-3.76-14.73-9.32-20.03-16.23-5.31-6.91-8.91-14.98-10.5-23.54-1.6-8.57-1.15-17.39,1.31-25.75,2.46-8.36,6.86-16.02,12.84-22.35,5.98-6.34,13.37-11.17,21.58-14.11,8.2-2.94,16.98-3.89,25.63-2.79,8.64,1.1,16.9,4.23,24.11,9.12,7.21,4.9,13.15,11.43,17.36,19.06,5.66,10.26,7.91,22.05,6.43,33.67-1.48,11.62-6.6,22.48-14.65,31-8.04,8.52-18.58,14.26-30.1,16.41-11.52,2.14-23.42.57-33.99-4.48ZM474.9,47.42c-11.1-5.3-23.72-6.46-35.6-3.27-11.87,3.19-22.22,10.52-29.17,20.66-6.95,10.14-10.05,22.44-8.73,34.66,1.31,12.23,6.95,23.58,15.9,32.02,8.95,8.44,20.61,13.4,32.9,13.99,12.28.59,24.37-3.22,34.09-10.75,9.72-7.53,16.43-18.29,18.91-30.33,2.49-12.04.59-24.58-5.35-35.34-5.2-9.43-13.22-17-22.94-21.64Z"/><path class="p" d="M475.88,142.42l9.69-5.98,38.46,62.34c.75,1.22.99,2.69.66,4.09-.33,1.4-1.2,2.6-2.42,3.36l-.56.35c-1.22.75-2.69.99-4.09.66-1.4-.33-2.6-1.2-3.36-2.42l-38.45-62.34.07-.05Z"/><path class="f" d="M411.36,80.82c.05-.58.15-1.15.3-1.71.13-.67.3-1.32.51-1.97.25-.87.53-1.72.86-2.56l.55-1.46c.21-.51.48-1.01.73-1.55.49-1.08,1.15-2.16,1.8-3.3,1.54-2.44,3.31-4.71,5.3-6.79,2.03-2.04,4.25-3.87,6.64-5.47,1.05-.68,2.13-1.32,3.25-1.89.52-.27,1.02-.55,1.52-.78l1.45-.62c.83-.36,1.67-.67,2.53-.93.64-.23,1.29-.42,1.96-.56.56-.16,1.12-.28,1.7-.36-.53.23-1.08.41-1.65.55-.65.18-1.29.4-1.91.65-.84.29-1.67.62-2.48,1l-1.42.64c-.5.23-.98.52-1.49.79-1.08.53-2.08,1.22-3.19,1.91-2.33,1.59-4.51,3.4-6.49,5.41-1.96,2.05-3.73,4.29-5.27,6.67-.66,1.08-1.33,2.16-1.83,3.25-.25.52-.53,1.01-.75,1.5l-.61,1.44c-.41.9-.66,1.76-.93,2.51-.23.63-.43,1.28-.58,1.94-.13.58-.29,1.15-.51,1.7Z"/><g class="q"><path class="h" d="M515.78,567.03c1.21-.73,2.51-1.29,3.87-1.68l.79-3.83,6.46-.11.93,3.78c1.37.34,2.68.85,3.91,1.54l3.27-2.13,4.64,4.49-2.02,3.33c.73,1.21,1.3,2.51,1.68,3.87l3.83.79.11,6.46-3.8.93c-.33,1.36-.85,2.67-1.54,3.89l2.14,3.26-4.48,4.64-3.32-2c-1.2.73-2.5,1.29-3.85,1.68l-.8,3.83-6.44.11-.93-3.78c-1.37-.35-2.69-.87-3.92-1.55l-3.27,2.13-4.65-4.49,2.02-3.33c-.74-1.2-1.32-2.5-1.72-3.85l-3.78-.8-.11-6.46,3.78-.93c.32-1.36.83-2.68,1.5-3.91l-2.14-3.26,4.49-4.64,3.32,2.02h.04ZM519.24,575.62c-.96.98-1.6,2.23-1.85,3.58-.24,1.35-.09,2.74.46,4,.55,1.26,1.45,2.33,2.61,3.07,1.16.74,2.5,1.13,3.87,1.1,1.37-.02,2.7-.45,3.83-1.23,1.13-.78,2-1.88,2.5-3.16.5-1.28.62-2.67.32-4.01-.29-1.34-.98-2.56-1.96-3.52-1.32-1.27-3.09-1.97-4.92-1.94-1.84.03-3.58.79-4.86,2.11Z"/><path class="k" d="M515.76,566.76c.06.04.09.05.11.06l-.13-.04s.02-.03.04-.04h-.04s.15.04.15.04c-.27-.15-.13-.02-.13-.03Z"/><polygon class="k" points="512.58 564.94 512.66 564.96 512.39 564.82 512.12 565.14 512.39 564.83 512.58 564.94"/><path class="k" d="M510.08,567.21c.27-.18.84-.89,1.28-1.3l.08-.06.15-.23c-.5.53-1.13,1.24-1.5,1.59Z"/><path class="k" d="M510.01,567.38l.26-.24.19-.23c-.1.12-.48.47-.45.47Z"/><path class="k" d="M526.27,561.68h-.08s.03,0,.08,0Z"/><path class="k" d="M518.56,565.51c.1-.04.27-.09.42-.15-.08.02-.21.06-.42.15Z"/><path class="k" d="M538.82,585.69l-.24.55c.2-.7.36-1.19.14-.68.05.06-.13.62-.36,1.15-.22.54-.49,1.06-.45,1.13l-.28.45c.08-.15.1-.18.17-.33-.11.19-.18.31-.24.41.1.15.21.31.26.36.04.05.1.11.15.17.11.12.25.28.47.64.18.3.3.52.16.32l.46.64c.12.19.07.16-.05-.03l.67,1h0s.07.07.12.12c-.04.06-.07.12-.16.22-.23.21.1-.12.03-.08l-.44.5c-.22.18.16-.26.45-.56-.5.32-.35.41-1.33,1.31l.42-.46c-.34.24-.66.61-1.18,1.08.13-.1,1.07-.94.6-.39-.15.14-.34.33-.59.63-.04-.03-.29.25-.62.59l-.02-.07c-.34.38-.29.38-.48.61-.4.41-.52.46-.64.53-.64.65.48-.39-.24.38l-.08.07s-.36-.22-.61-.36c-.26-.14-.55-.3-.9-.5-.45-.29.1.01-.05-.1l-.43-.2c-.1-.06-.06-.06-.04-.05-.35-.19-.06.04-.61-.27-.04,0-.11-.04-.21-.11-.1-.07-.25-.17-.43-.28-.22.11-.47.24-.69.36-.21.11-.43.22-.61.34-.18.07.06-.08,0-.07-.93.49-.8.41-1.58.79l-.71.19c.39-.08.16.04-.3.21-.02.15-.04.31-.06.47.06-.17.11-.31.14-.4.01,0,.02,0,.03,0h-.02s-.16.92-.16.92c-.03.11-.04.01-.03-.15,0,.06-.02.13-.02.18-.09.34-.09.15-.08-.1.04-.11.07-.22.11-.34,0-.12,0-.24,0-.32,0-.1,0-.17-.03-.14-.01.09-.03.22-.06.35,0-.06,0-.1-.01-.08-.01.03-.02.13-.04.29l-.12.2.02.06-.31,1.24c-.06.51-.13,1.05-.19,1.61-.3.03-.86.07-1.42.09.36-.06.08-.09.09-.15.15.02.36.02.59,0,.19-.01.43-.03.65-.04.02-.09.03-.16.07-.35-.05.21-.06.22-.07.23-.01,0-.01-.02-.02-.05l-.02.14h-.12s-.24.03-.24.03l-.53.03c.03-.05-.29-.03-.64-.05.27.1-1,.08-1.54.12-.03-.03.1-.07.76-.07-.74-.06-.95.13-1.67.08.16,0,.25,0,.31-.02-.38.04-1.31.03-1.09,0h.16c-.41,0-1,.01-1.56.02-.1-.36-.19-.71-.27-1-.09-.31-.16-.52-.2-.56,0-.01.13.11.17.17l-.74-1.8c.11.15.13-.53.38.33-.02-.11-.05-.22-.07-.35-.04-.17-.09-.35-.15-.59-.11-.03-.24-.06-.39-.09.13.04.29.12.32.15,0,.04-.01.05-.03.03-.02,0-.05,0-.1-.02-.68-.27-.45-.16-1.2-.48.24.1-.07.12-.46-.03.07,0,0-.12.15-.08-.33-.08-.66-.17-.99-.28.24.08.08-.07-.12-.19.07.06-.76-.35-1.07-.53l.41.24c-.25-.13-.43-.22-.62-.32-.19.14-.31.23-.39.3l-.26.23c-.18.15-.4.33-.78.57.1-.1.21-.31-.29,0-.09.09-.3.3-.53.52-.14.13-.29.26-.43.39-.15.13-.32.27-.6.47-.09-.08-.17-.15-.25-.22l-.13-.17-.59-.52c.23.17.61.44,1,.71.33-.29.76-.65,1.04-.87-.38.22-.12.03-.67.39-.21.1.27-.23.43-.34l-.48.31-.29.18-.1-.1c0,.1-.88-.76-.88-.68l.55.49.28.25c.09.08.09.08.14.11l.05-.04s0,.05-.06.12c-.03-.01-.08-.04-.16-.09-.11-.09-.23-.18-.34-.28-.25-.21-.54-.47-.82-.74-.18-.21.23.06.23.02-.12-.08-.77-.68-.83-.76l.35.29c-.41-.44-.77-.62-1.24-1.16-.18-.18-.47-.58-.53-.58.24.34.13.56-.1.42-.06-.07-.89-.96-1.07-1.19-.23-.31.53.32.33.05-.02,0-.21-.15-.25-.17-.08-.1.02-.03-.03-.1.02-.02.04-.06.08-.13-.03-.09.6-.98.08-.25.27-.48.32-.5.66-1.06-.15.15.18-.58.45-1.06,0,.04.08-.06.12-.1.16-.26.3-.49.44-.7-.36-.6-.59-1.07-.92-1.78-.03-.09-.21-.57-.1-.38-.07-.14-.15-.25-.26-.56-.17-.61.27.67.16.2-.06-.03-.35-.75-.51-1.22-.01.19.32,1.04.53,1.46-.04.02-.14-.13-.28-.4-.07-.13-.15-.3-.23-.49-.08-.19-.17-.43-.23-.58-.05,0-.1-.02-.15-.02-.86-.16-.36-.13-.51-.15-1.62-.36-1.41-.15-2.74-.49-.7-.2.03-.1-.12-.17.72.13,1.08.26,1.56.36l-.58-.15c.23.03.7.12.95.19-.25-.08-1.15-.27-2.07-.47,0-.66-.02-1.4,0-1.93-.02-.23-.05-.62-.07-.43v.4c-.02.37-.06-.76-.07-.25-.04-.54-.1-1.15-.09-1.91l.06-.14s-.03.5,0,.71c-.03-.32.06-1.17-.02-1.52l-.03.54c-.02-.26-.05-.59-.07-.9-.01-.17-.02-.33-.03-.49,0-.22,0-.44-.01-.67-.05.44.01.34-.05.8.08-.42.03,1.73.11,1.06-.07.5-.02.85-.08,1.5.02-.02.03-.23.03.34,0,.04.01.09.02.12,0,.02,0,.02,0,.04v-.03s0,.03,0-.01c0-.14.02-.25.03-.29.05.28.07,1.18.1,1.49,0,.34-.03-.14-.04.04l.04.46s-.06.9-.1.1v.74c0,.15,0,.3,0,.46.26.06.53.12.78.18.18.04.35.07.5.1.33.08.84.13.55.1l1.1.21h0c.17.05.35.08.53.12.13.02.27.05.4.08.12.33.24.67.36,1.01.14.37.29.73.46,1.19.18.34.36.68.67,1.23l.03.13s.04.06.06.09c-.11.16-.23.37-.34.54-.14.22-.25.4-.28.49-.14.15-.36.49-.61.89-.28.47-.6,1.01-.87,1.46.24.24.46.44.64.62h.06c.41.39.82.77,1.35,1.25v-.06c.47.4,1.12,1.13,1.83,1.81-.06-.03-.24-.21-.35-.34.2.23.43.46.66.68.27.25.55.51.84.77.29-.2.58-.4.84-.58.23-.15.45-.29.67-.42.21-.16.38-.26.54-.35l-.05.04s.06-.04.09-.06c.1-.06.21-.12.32-.18-.11.06-.2.11-.27.15.16-.11.41-.28.67-.46l.13-.03s.04-.02.06-.04c.26-.15.19-.15.04-.09l.17-.13.08-.07h.02c.04.09.64.3.87.49.2.07,1.43.58,1.62.54,0,.01.09.05-.07,0,.32.12.64.24.94.3l.12.1c.15.03.2.03.31.04.03.06.06.12.1.25.07.44.09.63-.06.21.33,1.03.23.84.52,1.71l-.05-.03c.08.32.26.81.27,1.01.01.07.03.15.04.24.03.13.06.28.1.44.62,0,1.49-.02,2.43-.03.9-.01,1.84-.02,2.62,0-.37-.11.87.04.95-.05.11.03.37.04.07.07.26,0,.48-.01.68-.02.08-.38.16-.7.22-1,.05-.25.1-.48.12-.75.05-.1,0,.21.03.12.01-.08.04-.3.08-.4.04-.09,0,.14-.03.29.2-.96.13-1.07.07-1.16.14-.46.19-.76.2-1.04v-.03c.14-.02.23-.02.06.04,0,.03-.01.07-.02.12,0-.03.02-.06.03-.11.11-.03.26-.08.43-.12.2-.06.41-.13.6-.2.39-.14.7-.28.7-.32.11-.03.44-.19.52-.23.68-.32.8-.38,1.38-.73l-.15.08c.09-.08.14-.12.23-.18.18.11.4.25.72.44h-.02c1.17.76.53.28,1.68,1.05l-.04-.08c.05,0,.17.06.34.17.17.11.42.28.67.45.3-.29.51-.49.7-.71l-.22.19c.28-.34.95-.78,1.26-1.09.07-.06-.09.12-.18.22.84-.78.06-.15.64-.77.13-.09-.08.21.32-.2.22-.19,1.08-1.28,1.67-1.79-.14.11-.28.21-.02-.09.14-.14.31-.31.5-.5-.17-.28-.36-.59-.53-.86-.15-.24-.3-.46-.43-.61-.04-.07-.05-.1-.04-.1-.27-.38-.86-1.24-1.05-1.45,0-.04-.03-.09-.05-.14-.01-.04-.03-.08-.05-.12.05-.07.18-.31.3-.57.12-.25.23-.52.33-.76.2-.49.33-.89.39-.87.16-.45.3-.92.43-1.38v.04c.02-.07.04-.13.05-.18.12-.03.22-.06.32-.08.12-.03.22-.06.32-.09.16-.05.3-.1.45-.16.21-.04.06.01.05.02.65-.14,1.01-.23,1.34-.31.15-.04.31-.09.5-.15.2-.06.43-.13.74-.23h.06s.03-.09.03-.09c-.02-.29,0-.72,0-1.34,0-.61,0-1.34-.03-2,0,.01.02.04.02.14-.03-.53-.03-1.13-.02-1.71,0-.29,0-.58,0-.84,0-.34,0-.65,0-.93-.65-.13-.78-.13-.97-.12l-.96-.15c1.23.27-.2.04.3.17-.49-.09-1.24-.31-.64-.2l.09.03c.24-.05-1.52-.35-1.48-.4l-.27-.06c-.31-1.16-1-2.77-1.58-3.73.45-.72.88-1.42,1.31-2.12l-.2.19.42-.69c.12-.17.2-.21-.11.28.1-.12.21-.33.31-.51.05-.1.1-.21.15-.29.04-.09.07-.14.06-.14.02-.03.03-.05.04-.07-.14-.15-.23-.24-.3-.31-.03-.04-.03-.05-.01-.04.03.01.24.2.4.34-.11.2-.21.37-.1.2l.12-.21-.37-.35.11.12c-.37-.32-.36-.27-.88-.77-.31-.32-.13-.19-.25-.31,0,0-.04-.04-.19-.19l-.73-.71.25.32c-.34-.29-.69-.67-.39-.29-.15-.2-.55-.61-1.01-1.06-.49-.48-1.04-1.01-1.46-1.42-.22.14-.41.26-.56.36-.12.07-.21.13-.27.16-.51.38-1.03.72-1.68,1.14.17-.09.3-.1-.26.25.03-.06-.02-.05-.14,0-.11.06-.31.18-.39.23-.14-.08-.29-.17-.44-.25-.17-.1-.33-.19-.43-.26.21.13-.23-.07-.64-.24-.41-.17-.8-.29-.46-.12-.52-.21-.01-.06-.4-.24-.24-.07-.47-.14-.71-.22-.21-.06-.43-.12-.66-.18-.1-.43-.2-.88-.31-1.34-.12-.5-.24-1-.36-1.51-.02-.02.02.25-.09-.08l-.05-.38-.09-.54h-.16c-.13,0-.22,0-.3.02-.05.01-.11.02-.16.03-.11.02-.25.03-.54,0,.08.01.21.03,0,.04-.89,0-1.8,0-2.71.02-.95.02-1.91.04-2.87.06-.14.68-.28,1.35-.43,2.04-.07.31-.14.63-.21.95l-.11.47-.06.24-.03.11c-.07.02-.14.03-.32.08.42-.09.16-.01-.17.1.21-.06,0,.04.06.05-.44.12-.88.26-1.31.42-.21.14-1.34.63-1.43.77l.38-.21c-.48.33.8-.21.76-.08.24-.15.59-.28.99-.4.46-.14.86-.26,1.37-.42.02-.15.05-.33.06-.42.07-.22,0,.2.04.08.01-.27.07-.59.21-1.17v.07c.1-.51.19-.92.27-1.32.08-.34.15-.66.23-1.01.45,0,.96,0,1.62,0l-.14-.04c.41,0,.49.01.68.02.46-.08-1.14.02-.72-.07.54.09,2.86-.05,3.23.06.62,0-.18-.05.44-.06l.17.03.16-.04c.4,0,.64.03.6.06-.09,0-.26.01-.35.02.14,0,.28,0,.43,0,.04.15.08.3.11.42.05.18.08.32.1.38l-.13-.59c.27,1.09.57,2.3.87,3.48l.62.16.48.14c.31.1.6.19.9.29l-.11-.07c.58.2.81.31,1.05.43.26.14.52.27,1.16.6,0,0,.02-.01.03-.02l-.03.03h-.03s.03,0,.03,0c.15-.11.3-.22.46-.33.15-.1.29-.2.45-.3-.28.21.58-.32.21-.04,1.12-.78.55-.4,1.25-.96l.19-.08c.11-.09.19-.15.27-.22.1-.07.22-.15.42-.3.01,0,.03.03.06.05-.03-.02-.05-.03-.06-.05-.08.07-.04.06,0,.04.05.07.09.13,0,.06-.01,0-.03.02-.04.04l.04-.02c.08.1.37.39.54.55.19.18.37.34.53.48.32.28.56.51.76.78.55.39-.86-.91-.58-.67-.2-.24.45.33.77.65.33.32.47.64,1.31,1.45-.08-.07-.1-.09-.18-.16.29.32.64.57.99.97.17.12.24.19.3.24-.03.06-.05.1-.03.14l.08-.14-.51-.48c.2.18.41.35.56.47-.05.1-.13.26-.25.46-.11.19-.24.4-.4.64.03-.07.16-.34.26-.52-.17.24-.28.49-.46.73,0-.05.11-.26.27-.54.14-.24.42-.7.45-.76-.04-.04-.08-.07-.12-.09.02.03.05.06.09.09l-.05.11c-.04.08-.09.15-.12.21-.07.12-.1.16-.07.04-.15.46-.61.97-.95,1.69v-.07c-.07.11-.19.34-.31.54l.16-.39c-.09.19-.2.36-.31.53-.13.2-.28.43-.42.64.14.24.25.43.39.68-.22-.39-.32-.57-.38-.68.19-.27-.08.23.25-.26-.05.09-.1.18-.15.26.27.43.32.53.4.7.07.15.1.25.14.36.08.23.18.49.51,1.25-.09-.22-.33-.82-.16-.49.13.31.27.72.32.92.39,1.08-.01-.18.18.27.04.18.08.31.14.44.03.06.06.13.09.21.04.12.09.24.13.36l.17.03-.02.05c.19.04.34.07.45.1.1.02.17.03.23.04.11.02.16.01.19,0,.08,0,.13-.02.72.12l-.51-.04.62.11-.14.03c.68.1.88.15,1.53.3-.07-.03-.05-.05.07-.04s.35.04.5.07h0c-.01.13-.02.1-.03.1,0,.04-.01-.06,0,.39-.01-.09-.03-.18-.04-.26-.01-.09-.01-.09,0-.16-.01,0-.03-.02-.05-.03-.03,0-.07.02-.14.02.05.02.1.03.15.05,0,.3.02.62.02.8,0-.11,0-.24,0-.33l.09,1.21c-.01.19-.03.04-.05-.11.01.23.03.44.04.78-.04-.09-.08-.07-.11-.58l.06,1.16c-.02.08-.04.59-.05.44-.01.64.1,1.57.09,2.42,0,.05.01.1.02.2v.04s-.34.07-.34.07l-.54.12c-.37.08-.75.18-1.18.31l-.54.06c-.72.19.73-.09-.47.23-.31.09-.57.14-.62.14-.07,0,0-.04-.08-.03-.01.02-.03.06-.05.13-.03.14-.06.31-.09.48-.03.14-.06.29-.11.46-.09.33-.21.69-.38,1.05.1-.27.16-.44.24-.67ZM538.2,593.21c.12-.13.34-.41.45-.48-.1.18-.23.28-.45.48ZM527.91,597.67c.01-.13.06-.33.13-.55-.03.16-.07.35-.13.55ZM505.11,584.49h.03c.38.1.26.07-.03,0ZM504.67,583.67c0-.08-.01-.08-.02-.04.01.08.02.17.02.56.01-.09.02-.3,0-.51ZM538.48,567.7l.11.12c-.27-.24-.19-.18-.11-.12Z"/><polygon class="k" points="516.86 566.16 516.41 566.37 516.71 566.25 516.86 566.16"/><path class="k" d="M516.05,566.68h-.13s-.23.2-.23.2c.09-.06.28-.18.36-.2Z"/><path class="i" d="M473.17,546.01H197.01v206.43h276.16v-206.43Z"/><path class="f" d="M473.17,546.01H197.01v25.52h276.16v-25.52Z"/><path class="i" d="M212.13,562.43c2.03,0,3.67-1.64,3.67-3.67s-1.64-3.67-3.67-3.67-3.68,1.64-3.68,3.67,1.65,3.67,3.68,3.67Z"/><path class="i" d="M224.54,562.43c2.03,0,3.67-1.64,3.67-3.67s-1.64-3.67-3.67-3.67-3.67,1.64-3.67,3.67,1.64,3.67,3.67,3.67Z"/><path class="i" d="M236.93,562.43c2.03,0,3.67-1.64,3.67-3.67s-1.64-3.67-3.67-3.67-3.68,1.64-3.68,3.67,1.65,3.67,3.68,3.67Z"/><path class="m" d="M473.17,752.43v-14.73c0-9.6,0-23.7-.07-41.7,0-35.97-.1-87.54-.15-149.99l.29.29-276.13.07.36-.36v206.43l-.33-.33,199.35.17,56.6.08h18.89-18.78l-56.54.1-199.58.15h-.32v-207.11h276.81v.3c0,62.52-.11,114.16-.15,150.17,0,18.02,0,32.04-.07,41.58v10.91c0,2.47-.18,3.98-.18,3.98Z"/><path class="i" d="M121.92,539.01H-239v260.47H121.92v-260.47Z"/><path class="f" d="M121.92,539.01H-239v34.79H121.92v-34.79Z"/><path class="m" d="M121.99,799.47c0-2.43-.12-102.48-.29-260.47l.29.29H-238.91l.36-.36v260.47l-.32-.33,360.92.33-360.92.32h-.33v-261.15H122.38v.29c-.39,158.13-.39,258.18-.39,260.6Z"/></g></svg>
