<?xml version="1.0" encoding="UTF-8"?><svg id="a" xmlns="http://www.w3.org/2000/svg" viewBox="0 0 566.93 566.93"><defs><style>.b{fill:#a36957;}.b,.c,.d,.e,.f,.g,.h,.i,.j{stroke-width:0px;}.c{fill:#e30613;}.d{fill:#fff;}.e{fill:#09f;}.f{isolation:isolate;opacity:.2;}.g{fill:#263238;}.h{fill:#ffbe9d;}.i{fill:#eb996e;}.j{fill:#455a64;}</style></defs><path class="c" d="M400.88,325.07c-5.6,0-11.17-8-13.63-12.84-2.85-5.61,1.99-8.51,7.13-11.59,1.89-1.09,3.71-2.28,5.47-3.56-5.99-1.96-13.9-1.26-20.8,2.14-.07.03-.14.05-.22.06s-.15,0-.22-.03c-.07-.02-.14-.06-.2-.11-.06-.05-.1-.11-.14-.18-.03-.07-.05-.14-.06-.22,0-.08,0-.15.03-.22.02-.07.06-.14.11-.2.05-.06.11-.1.18-.14,7.45-3.67,16-4.29,22.38-1.96,1.44-1.17,2.68-2.57,3.66-4.14l.83-1.36c3.23-5.24,6.28-10.19,4.64-14.53-1.31-3.48-5.5-6.23-12.85-8.48-2.82-.87-5.77-1.26-8.73-1.16,2.54,7.69,3.33,17.02-.34,21.68-2.68,3.42-7.18,3.93-13.41,1.52-6.95-2.71-10.02-7.14-8.29-12.13,2.13-6.15,10.73-11.41,20.41-12.18-.85-2.4-2-4.69-3.41-6.81-1-1.39-1.9-2.85-2.7-4.37-1.02-.04-2.04-.16-3.05-.35-.59,1.83-1.34,3.6-2.25,5.3-2.45,4.5-6.29,5.67-10.85,3.27-3.23-1.7-6.74-5.3-9.92-9.86-2.26-1.22-4.1-3.1-5.25-5.4-1.03-1.94-1.43-4.15-1.16-6.33-3.59-8.64-5.11-17.85-2.06-23.86,2.84-5.6,6.04-9.85,9.27-12.47-2.13-4.02-5.96-8.23-12.28-12.65-5.93-4.16-10.43-6.13-13.12-5.79,9.56,9.27,12.07,16.77,12.35,21.76.18,1.67,0,3.35-.5,4.95-.51,1.6-1.36,3.07-2.48,4.32-.53.52-1.5.83-3.09-.6-4.72-4.24-14.09-24.11-9.41-29.99.27-.34.59-.64.95-.88-1.56-1.44-3.3-2.92-5.24-4.44-4.28-3.37-7.72-4.5-10.23-3.34-1.67.76-2.97,2.57-3.84,5.28,5.43,13.45,6.69,28.18,4.04,30.72-.27.27-.63.43-1,.46-.38.03-.76-.06-1.07-.28-2.48-1.4-4.8-13.27-4.42-22.69.05-2.76.44-5.5,1.16-8.17-.65-1.6-1.37-3.18-2.16-4.72-2.51-4.95-5.17-7.33-7.89-7.14-2.72.2-5.31,2.73-7.98,7.25,2.47,3.66,4.12,7.81,4.84,12.17,1.16,7.28-1.92,11.85-4.89,13.56-.91.61-1.98.93-3.07.9-1.09-.02-2.15-.38-3.03-1.03-2.42-1.96-2.79-6.2-1.02-11.59,1.51-4.81,3.48-9.47,5.88-13.91-2.69-4.09-6.64-7.2-11.24-8.86-4.13-1.31-10.37-1.49-16.74,5.06-1.19,1.16-2.13,2.55-2.78,4.08-.65,1.53-.98,3.17-.99,4.83,4.43,2,8.52,4.67,12.13,7.91,4.06,3.75,6.18,7.47,5.96,10.43.02.59-.16,1.16-.53,1.62-.36.46-.88.78-1.45.89-1.53.16-3.07-.21-4.37-1.04-.09.47-.26.92-.49,1.34-1.61,2.89-6.69,5.32-11.1,5.32-5.67,0-14.82-6.52-20.74-13.45-1.74,0-3.57.1-5.52.2-18.02.86-27.81,3.4-29.1,7.53-1.29,4.14,5.68,9.27,11.24,13.55l1.62,1.25c6.76-5.33,15.06-8.11,20.86-6.43,3.38,1.01,4.21,2.61,4.29,3.78.17,2.32-2.48,5.14-6.77,7.11-4.64,2.17-11.53,3.35-15.39-.45-.94-.89-1.93-1.73-2.96-2.51-1.94,1.59-3.7,3.39-5.24,5.38-2.7,3.55-6.62,10.5-2.44,17.23,1.28,2.17,3.02,4.03,5.1,5.46,4.35-.07,7.08.49,7.38,1.62.06.24.02.5-.11.72-.13.22-.34.37-.58.44-1.02.45-3.89.42-7.08-1.6-1.85,0-4.18.21-7.07.56-12.91,1.6-15.16,4.63-15.35,6.26-.15,1.34.8,2.9,2.68,4.5,7.65-4.18,18.89-6.31,24.33-4.3,4.74,1.75,5.79,5.26,4.86,7.96-.52,1.2-1.32,2.26-2.33,3.09-1.01.83-2.19,1.42-3.47,1.72-2.32.66-6.21,1.03-11.59-.95-4.23-1.49-8.23-3.56-11.9-6.13-2.32,1.19-4.31,2.95-5.79,5.1-1.46,2.45-.92,4.8,1.59,6.95,11.16,9.76,31.93,3.72,32.13,3.66.08-.02.16-.03.23-.02.08,0,.16.03.22.07.07.04.13.09.18.15.05.06.09.13.11.21.02.08.03.16.02.23,0,.08-.03.15-.07.22-.04.07-.09.13-.15.18s-.13.09-.21.11c-.88.27-21.59,6.28-33.23-3.91-3.72-3.26-3.05-6.38-1.82-8.45,1.48-2.21,3.46-4.02,5.79-5.3-1.81-1.61-2.98-3.38-2.76-5.23.41-3.55,5.91-5.99,16.36-7.28,2.07-.25,3.97-.42,5.69-.51-1.65-1.41-3.06-3.08-4.17-4.95-3.36-5.43-2.47-12.02,2.51-18.54,1.53-2,3.27-3.81,5.2-5.42l-1.41-1.08c-5.79-4.47-13.13-10.03-11.59-14.82,1.54-4.79,11.34-7.45,30.13-8.34l4.63-.17c-2.72-3.41-4.58-6.84-4.79-9.56-.17-2.32.71-5.25,5.86-6.03,6.16-.94,13.02.51,19.22,3.15.16-3.51,1.64-6.82,4.16-9.27,6.79-6.95,13.5-6.77,17.93-5.35,4.68,1.68,8.71,4.78,11.53,8.88,2.46-4.03,5.38-7.11,8.61-7.36,3.23-.24,6.27,2.32,9.02,7.76.6,1.16,1.16,2.39,1.69,3.6.69-2.04,2.13-3.73,4.02-4.75,2.94-1.36,6.79-.19,11.44,3.48,2.11,1.66,3.99,3.27,5.67,4.83,3.04-.86,8.01,1.16,14.82,5.88,6.38,4.47,10.3,8.77,12.51,12.9,2.04-1.69,4.65-2.52,7.29-2.32,5.45.75,9.43,7.27,11.83,19.37.35,1.71.6,3.44.76,5.18,2.32,4.09,3.7,11.26,3.14,18.71,0,.58-.09,1.16-.16,1.73.73-3.15,3.38-5.91,7.49-9.54,2.23-1.97,4.79-2.46,7.05-1.33,1.36.78,2.47,1.94,3.18,3.34.72,1.4,1.01,2.97.85,4.53-.35,4.36-3.71,7.85-9.27,9.58-2.11.68-4.31,1.05-6.52,1.1.7,1.27,1.48,2.51,2.32,3.7,1.53,2.3,2.76,4.79,3.67,7.4,3.2-.15,6.41.25,9.48,1.16,7.71,2.32,12.14,5.38,13.58,9.19,1.84,4.88-1.51,10.3-4.74,15.55l-.82,1.34c-.95,1.51-2.12,2.87-3.48,4.03,1.41.61,2.72,1.43,3.89,2.42,4.33,3.72,5.55,9.44,3.48,16.13-1.95,6.2-4.63,9.48-8.11,9.76l-.44.14ZM401.13,297.56c-1.96,1.5-4.02,2.87-6.16,4.09-5.79,3.48-8.93,5.62-6.69,10.05,3.12,6.14,8.53,12.56,12.98,12.2,2.92-.24,5.31-3.26,7.1-8.96,1.99-6.3.92-11.46-3.09-14.9-1.24-1.04-2.63-1.88-4.14-2.48ZM387.23,266.65c-9.27.67-17.74,5.67-19.7,11.39-1.52,4.38,1.16,8.17,7.61,10.67,5.69,2.2,9.76,1.81,12.09-1.16,3.42-4.3,2.56-13.43.05-20.9h-.05ZM192.15,262.24c3.45,2.39,7.21,4.29,11.18,5.65,5.1,1.88,8.73,1.54,10.87.93,1.11-.24,2.15-.74,3.03-1.45.88-.71,1.59-1.62,2.06-2.65.96-2.63-.67-5.17-4.18-6.47-4.97-1.85-15.57.15-22.91,3.99h-.05ZM356.59,253.37c2.26,3.27,5.17,6.03,8.55,8.11,4.02,2.11,7.14,1.16,9.27-2.8.86-1.59,1.57-3.26,2.12-4.98-2.77-.67-5.35-1.99-7.51-3.86-1.54,1.44-3.36,2.56-5.34,3.28-2.28.84-4.76.93-7.09.26ZM381.47,253.11h.12c2.26,0,4.5-.36,6.65-1.04,5.05-1.59,8.11-4.72,8.42-8.58.14-1.33-.1-2.67-.71-3.87-.6-1.19-1.54-2.19-2.69-2.87-1.83-.92-3.88-.51-5.79,1.16-6.48,5.81-9,8.95-6,15.24v-.05ZM377.99,252.79c.71.13,1.42.22,2.14.27-.76-1.56-1.16-3.28-1.16-5.02-.21,1.62-.52,3.22-.94,4.8l-.05-.05ZM355.33,251.64c1.23.6,2.57.93,3.94.99,1.37.05,2.73-.18,4-.67,1.81-.66,3.48-1.68,4.89-2.99-.29-.29-.58-.6-.85-.93-4.53-5.34-5.01-12.94-1.25-20.33,2.49-4.92,4.94-5.42,6.54-4.97.89.27,1.7.78,2.32,1.47-.14-1-.31-2.02-.52-3.07-2.26-11.4-6.01-17.79-10.85-18.45-2.4-.16-4.77.62-6.61,2.18,4.42,9.37.26,17.79-3.33,24.99-1.96,3.96-3.77,7.59-4.15,11,1.6,3.81,3.58,7.45,5.91,10.87l-.05-.09ZM369.82,248.94c2.03,1.73,4.44,2.95,7.03,3.57.72-2.54,1.17-5.14,1.36-7.78.47-5.22-.14-10.49-1.81-15.46.2,9.04-2.6,15.64-6.54,19.76l-.05-.09ZM213.53,250.09c.68.27,1.38.47,2.1.59.54.09,1.1.09,1.65,0-1.2-.37-2.44-.55-3.7-.51l-.05-.08ZM349.41,243.45c.14,1.11.49,2.19,1.01,3.18.65,1.26,1.51,2.4,2.54,3.37-1.28-2.09-2.45-4.25-3.5-6.47l-.05-.08ZM371.67,223.75c-1.89,0-3.48,2.32-4.63,4.46-3.58,7.06-3.19,14,1.16,19.06.26.29.52.58.8.86,4.15-4.32,6.95-11.68,6.11-21.65-.58-1.2-1.58-2.15-2.82-2.65-.19-.02-.38,0-.57.02l-.05-.1ZM355.98,205.57c-3.67,3.37-6.64,7.42-8.76,11.92-2.75,5.4-1.62,13.5,1.38,21.36.96-3.31,2.27-6.5,3.93-9.53,3.6-7.08,7.5-14.91,3.5-23.65l-.05-.1ZM214.85,220.17c.99.76,1.94,1.57,2.84,2.42,3.22,3.18,9.4,2.41,14.09.24,3.72-1.73,6.23-4.18,6.1-5.99-.1-1.46-1.94-2.32-3.48-2.75-5.23-1.54-13.13,1.12-19.55,6.07ZM328.79,186.48c-.36.19-.68.45-.93.76-3.92,4.94,4.44,24.06,9.27,28.41.34.3,1.16.97,1.51.64.88-.87,2.91-3.48,2.63-8.35-.21-4.02-2.25-11.69-12.48-21.46ZM308.09,185c-.45,2.1-.71,4.24-.78,6.38-.39,9.83,2.1,20.66,3.82,21.63.39.22.57.1.7,0,2.02-1.92,1.17-15.16-3.74-28.02ZM237.13,196.84c5.72,6.4,14.14,12.33,19.25,12.33,3.97,0,8.69-2.21,10.08-4.73.26-.43.4-.93.38-1.44-1.69-1.1-3.24-2.38-4.63-3.84-3.93-1.41-11.3-2.57-25.08-2.31v-.02ZM288.7,179.69c-2.23,4.22-4.07,8.64-5.49,13.2-1.61,4.95-1.38,8.73.65,10.43.7.49,1.54.75,2.4.75s1.69-.26,2.4-.75c2.65-1.52,5.38-5.68,4.32-12.38-.65-4-2.11-7.82-4.3-11.23l.02-.02ZM267.91,202.27c1.21.88,2.68,1.34,4.18,1.3.39-.09.93-.34,1.01-1.44.2-2.61-1.84-6.08-5.59-9.55-3.38-3.04-7.18-5.56-11.3-7.47.29,2.59,1.12,5.1,2.42,7.36,1.15,2.05,2.55,3.94,4.17,5.64,2.62.95,3.99,2.06,4.63,3.14.21.32.36.67.46,1.04v-.02ZM240.95,195.63c9.43,0,15.67.74,19.7,1.83-1.16-1.38-2.18-2.87-3.07-4.44-1.5-2.59-2.39-5.48-2.61-8.46-6.13-2.7-12.95-4.19-19.06-3.27-3.48.52-5.09,2.1-4.88,4.8.21,2.7,2.2,6.15,5.08,9.59,1.73-.01,3.33-.03,4.84-.03v-.02Z"/><path class="c" d="M222.4,289.2h-.15c-.76-.21-13.09-3.68-22.48-11.32-1.3,3.84-3.21,7.38-6.01,9.4-1.15.83-2.47,1.38-3.87,1.6-1.4.23-2.83.12-4.17-.3-4.31-1.16-6.95-7.96-7.01-18.15-.12-13.7,4.96-34.44,16.62-37.92,4.77-1.27,9.79-1.27,14.55,0,.38-5.11,2.12-10.02,5.05-14.22,1.77-2.75,4.16-5.04,6.98-6.69,2.82-1.65,5.99-2.61,9.25-2.8-6.62-7.44-12.75-16.69-12.48-21.12.43-5.88,5.01-15.67,11.21-17.67,2.21-.71,5.57-.7,9.04,3.48,2.7,3.45,5.21,7.03,7.53,10.74,1.65-2.44,3.87-4.43,6.48-5.79,8.42-4.81,13.7-6.06,17.09-4.09.89.59,1.66,1.36,2.26,2.25.6.89,1.01,1.89,1.22,2.94,3.48-10.59,9.97-16.74,15.63-17.38,3.01-.36,8.6.51,12.03,10.32,1.61,4.66,2.96,9.41,4.07,14.22,1.44-1.61,3.08-3.02,4.88-4.21,7.93-5.33,19.8-8.05,22.18-5.96.28.26.46.61.51.99.05.38-.04.76-.25,1.08-1.4,2.76-5.61,5.28-9.68,7.72-4.07,2.43-8.11,4.84-8.19,6.85.02.36.12.7.3,1.01.18.31.44.56.74.74,2.48,1.95,9.21,1.08,16.35.15,10.49-1.36,23.54-3.05,30.46,3.02,2.72,2.39,3.87,4.28,3.61,5.93-.36,2.32-3.31,3.66-7.06,5.32-4.11,1.81-9.27,4.08-11.82,8.41-.41.67-.81,1.58-.47,2.1,1.04,1.58,7.56.67,13.85-.2,10.51-1.45,22.41-3.09,23.86,3.35,1.51,6.66-8.35,10.51-17.9,14.24-7.5,2.93-15.25,5.97-16.06,9.98-.75,3.72,13.25,9.95,25.6,15.46,15.78,7.03,25.33,11.59,24.96,15.46-.15,1.6-1.95,2.77-5.48,3.59-16.48,3.85-26.34,2.79-31.09,2.32-1.03-.2-2.09-.24-3.13-.12-.02.07-.06.14-.11.19-.05.06-.11.1-.18.13-.07.03-.14.05-.22.05-.08,0-.15,0-.22-.03-.15-.05-.26-.16-.33-.3s-.07-.3-.02-.45c.36-1.05,1.61-.93,4.33-.64,4.64.5,14.42,1.53,30.7-2.26,3.67-.86,4.53-1.88,4.63-2.58.31-3.33-12.75-9.14-24.33-14.29-13.99-6.22-27.2-12.12-26.26-16.74s8.63-7.64,16.78-10.82c9.08-3.55,18.48-7.22,17.2-12.91-1.23-5.41-13.06-3.77-22.57-2.46-8.39,1.16-13.6,1.76-14.97-.31-.56-.82-.41-1.92.44-3.34,2.78-4.63,8.11-6.95,12.34-8.88,3.29-1.45,6.13-2.7,6.4-4.43.19-1.16-.88-2.82-3.24-4.89-6.54-5.71-19.29-4.07-29.55-2.73-7.71,1-14.36,1.85-17.22-.39-.46-.29-.83-.7-1.09-1.18-.26-.48-.39-1.01-.38-1.56.16-2.62,4.14-5.01,8.74-7.76,3.94-2.32,8-4.8,9.27-7.25.24-.48.09-.61,0-.68-1.62-1.45-12.5.49-20.75,6.05-1.97,1.26-3.73,2.82-5.2,4.64,1.83,8.4,2.54,15.54.93,16.11-.72.26-1.68,0-3.85-6.15-.61-1.71-.78-3.54-.49-5.33.29-1.79,1.04-3.48,2.16-4.9-1.11-5.1-2.52-10.13-4.23-15.06-2.32-6.71-6.16-10.09-10.8-9.55-5.69.67-12.16,7.63-15.27,18.71.2,1.5.29,3.01.28,4.52,0,7.58-1.24,18.01-2.57,18.73-.11.05-.23.08-.35.08s-.24-.03-.35-.08c-.38-.26-1.16-.78.22-14.66.28-2.94.81-5.84,1.59-8.69-.51-3.33-1.63-5.46-3.41-6.49-3-1.75-7.91-.49-15.93,4.08-2.62,1.35-4.82,3.4-6.35,5.92,7.2,11.26,15.33,25.88,13.43,27.58-.76.68-2.05-.07-4.58-2.69-8.35-8.62-11.99-15.7-11.15-21.65.16-1.13.5-2.23,1-3.26-2.38-3.85-4.99-7.55-7.82-11.08-2.46-2.94-5.09-3.99-7.8-3.11-5.23,1.69-9.97,10.49-10.43,16.65-.3,4.15,6.3,13.64,12.98,21.02,2.2.04,4.39.43,6.47,1.16,4.73,1.7,7.73,4.95,7.47,8.11.01.25-.03.5-.13.73-.1.23-.24.44-.43.6-.18.17-.4.29-.64.37-.24.07-.49.09-.74.06-2.56-.2-7.64-4.43-12.63-9.87-3.25.03-6.45.87-9.29,2.44-2.85,1.57-5.26,3.83-7.01,6.57-2.84,4.11-4.5,8.92-4.8,13.9,7.59,2.14,13.9,6.77,15.52,11.03,1.02,2.62.07,4.89-2.61,6.2-3.48,1.7-7.05.82-9.85-2.41-2.8-3.23-4.45-8.32-4.32-13.91-4.63-1.25-9.5-1.25-14.13,0-10.05,2.93-15.92,20.97-15.78,36.73.08,9.49,2.43,16.01,6.16,17.03,1.19.37,2.44.46,3.67.26,1.23-.2,2.39-.69,3.39-1.42,2.7-1.94,4.52-5.46,5.79-9.27-4.33-3.48-7.49-8.21-9.04-13.55-1.85-7.29,0-10.07,1.29-11.09.85-.58,1.85-.91,2.88-.92s2.04.27,2.91.82c1.83,1.03,3.33,2.55,4.33,4.4,1,1.85,1.45,3.94,1.31,6.03-.26,4.68-1.04,9.31-2.32,13.81,9.41,7.8,22.19,11.4,22.38,11.46.07.02.14.05.21.1.06.05.11.1.15.17.04.07.06.14.07.22,0,.08,0,.15-.02.23-.04.13-.13.23-.25.3-.11.07-.25.1-.38.08ZM193.8,252.68c-.73,0-1.43.23-2.01.67-1.05.83-2.57,3.23-.88,9.9,1.44,4.92,4.33,9.3,8.3,12.55,1.16-4.27,1.86-8.65,2.1-13.07.14-1.88-.26-3.75-1.15-5.41-.89-1.66-2.23-3.03-3.87-3.95-.76-.42-1.62-.66-2.49-.68ZM211.04,234.03c-.06,5.2,1.46,9.88,3.99,12.82,2.53,2.93,5.46,3.62,8.46,2.14,2.17-1.07,2.85-2.66,2.04-4.75-1.55-3.87-7.43-8.13-14.48-10.21ZM233.92,209.98c4.52,4.82,8.9,8.48,10.98,8.66.35,0,.63,0,.68-.72.22-2.6-2.48-5.36-6.71-6.88-1.61-.57-3.3-.93-5.01-1.05h.05ZM246.6,186.44c-.28.72-.48,1.47-.59,2.24-.79,5.48,2.86,12.45,10.83,20.68.81,1,1.77,1.85,2.86,2.53.22-2.13-6.41-14.72-13.15-25.45h.05ZM304.66,189.34c-.77,1.21-1.26,2.59-1.42,4.02-.16,1.43.02,2.88.51,4.23,1.31,3.73,2.05,4.91,2.32,5.27.41-1.29-.02-6.52-1.46-13.52h.05ZM273.13,185.62c-.3,1.58-.56,3.23-.72,4.95-.46,3.97-.73,7.96-.79,11.96,1.05-5.3,1.55-10.7,1.52-16.11-.05-.26-.05-.53-.06-.8h.05Z"/><path class="c" d="M210.4,313.34c-2.06.03-4.12-.25-6.11-.82-1.01-.3-2.39-.85-2.57-2.02-.27-1.71,2.32-3.48,5.79-6,3.8-2.65,8.52-5.97,10.49-9.83.3-.61.61-1.41.3-1.81-.97-1.23-6.76.15-11.4,1.28-6.77,1.62-13.15,3.15-14.54.42-2.65-5.24,18.92-19.93,23.27-22.82.06-.04.13-.07.21-.09.07-.02.15-.02.23,0,.07.01.15.04.21.09.06.04.12.1.16.16.04.06.07.13.09.21s.02.15,0,.23-.04.15-.09.21c-.04.06-.1.12-.16.16-9.75,6.48-24.58,18-22.87,21.33.96,1.92,7.76.29,13.22-1.03,5.99-1.44,11.16-2.68,12.58-.86.57.71.51,1.7-.17,3.05-2.1,4.13-6.95,7.52-10.85,10.25-2.72,1.9-5.53,3.87-5.36,4.87,0,.22.31.65,1.76,1.09,7.95,2.41,20.57-1.16,23.69-6.66.04-.07.09-.13.15-.17.06-.05.13-.08.2-.1.07-.02.15-.03.23-.02.08,0,.15.04.21.07.13.08.23.2.27.35.04.15.02.31-.05.44-2.61,4.7-11.18,8.03-18.88,8.03Z"/><path class="c" d="M233.94,317.59c-.07.02-.14.02-.21,0-.16-.06-16.28-6.5-25.25-18.48-4-5.34-4.32-14.64-.86-24.84,3.22-9.49,8.7-17.02,13.34-18.33.15-.04.31-.02.44.06.13.08.23.2.28.35.04.15.02.3-.06.44s-.2.23-.35.27c-4.22,1.16-9.5,8.59-12.55,17.59-3.35,9.85-3.09,18.74.68,23.78,8.77,11.72,24.59,18.04,24.74,18.1.07.03.14.07.19.12.06.05.1.12.13.19.03.07.05.15.05.22s-.02.15-.04.22c-.05.1-.12.19-.22.24-.1.06-.21.09-.32.08Z"/><path class="c" d="M191.84,293.76c-1.41.06-2.82-.21-4.11-.8-1.29-.59-2.42-1.47-3.3-2.58-4.31-5.41-3.37-16.44-.38-25.49-3.45-.1-6.88.37-10.17,1.4-5.48,1.71-9.53,3.73-12.02,6.01-.12.09-.26.14-.41.13-.15-.01-.28-.08-.38-.19-.1-.11-.15-.25-.15-.4,0-.15.06-.29.17-.39,2.65-2.42,6.72-4.47,12.45-6.27,3.51-1.07,7.18-1.54,10.85-1.38,1.04-3.06,2.46-5.98,4.23-8.68,1-1.43,1.92-2.91,2.75-4.44-2.58-.06-5.14-.5-7.59-1.3-6.31-2.03-10.16-6.08-10.52-11.12-.29-3.86,1.63-7.59,4.63-9.06,2.53-1.24,5.41-.67,7.9,1.56,7.58,6.83,10.85,10.97,7.42,18.73.92-.05,1.84-.16,2.75-.32-.86-3.06-1.41-6.2-1.63-9.37-.63-8.49.92-16.86,3.59-21.65.19-2.07.48-4.13.88-6.16,3.48-17.54,9.27-21.91,13.52-22.5,2.6-.35,5.41.6,8.24,2.68,2.55-4.79,7.08-9.8,14.48-15.06,7.82-5.56,13.51-7.84,16.96-6.81,1.94-1.83,4.1-3.72,6.52-5.65,5.26-4.21,9.62-5.57,12.95-4.08,2.26,1.22,3.95,3.28,4.72,5.72.63-1.49,1.3-2.95,2.02-4.39,3.12-6.25,6.56-9.27,10.23-8.99,3.67.28,7.07,3.89,9.9,8.63,3.57-5.03,8.3-8.85,13.38-10.43,5.09-1.58,12.63-1.78,20.32,6.26,2.92,2.9,4.63,6.8,4.76,10.92,7.14-3.12,15.06-4.82,22.1-3.73,5.88.89,6.86,4.26,6.65,6.95-.24,3.2-2.41,7.22-5.58,11.22,1.75,0,3.58.13,5.49.22,21.48,1.03,32.77,4.17,34.49,9.61,1.71,5.43-6.61,11.98-13.3,17.18l-1.73,1.34c2.14,1.79,4.08,3.8,5.79,6,5.93,7.68,7.05,15.45,3.15,21.86-1.32,2.2-3,4.16-4.98,5.79,2.03.1,4.3.31,6.77.61,11.92,1.49,18.2,4.31,18.69,8.38.22,1.92-.92,4.01-3.24,6.12,2.69,1.47,4.99,3.55,6.71,6.08,1.44,2.39,2.26,6.03-2.01,9.83-13.31,11.83-37.02,4.83-38.03,4.53-.15-.05-.27-.15-.34-.29-.07-.14-.09-.3-.04-.44.05-.15.15-.27.28-.34.13-.07.29-.09.44-.04.24.07,24.1,7.11,36.93-4.29,2.94-2.62,3.55-5.43,1.77-8.37-1.71-2.47-3.99-4.48-6.65-5.88-4.16,3.05-8.76,5.46-13.64,7.14-6.95,2.61-13.45,2.22-17.38-1.02-1.01-.75-1.8-1.75-2.29-2.91-.49-1.15-.67-2.42-.52-3.66.43-2.62,2.5-4.75,5.79-5.99,6.21-2.32,19.12.17,27.89,5.03,2.21-1.91,3.35-3.77,3.15-5.38-.39-3.36-6.68-5.98-17.68-7.36-3.33-.41-6-.6-8.11-.66-3.63,2.32-6.87,2.4-8.04,1.89-.26-.07-.48-.23-.62-.46-.14-.23-.19-.5-.13-.76.35-1.29,3.48-1.92,8.44-1.82,2.42-1.66,4.44-3.82,5.94-6.34,4.9-8.05.16-16.33-3.09-20.55-1.71-2.2-3.65-4.2-5.79-5.98-1.21.93-2.37,1.92-3.48,2.98-4.31,4.32-11.99,3.06-17.27.66-5.04-2.32-8.18-5.56-8-8.32.08-1.33,1-3.18,4.84-4.32,6.51-1.96,16.13,1.32,23.88,7.52l1.94-1.51c6.41-4.98,14.4-11.17,12.9-15.92-1.51-4.75-12.75-7.81-33.43-8.81-2.24-.1-4.36-.19-6.35-.23-6.78,8.11-17.27,15.67-23.76,15.67-5.01,0-10.79-2.79-12.63-6.11-.3-.53-.5-1.11-.59-1.71-1.49,1-3.28,1.45-5.06,1.27-.62-.15-1.18-.51-1.56-1.02-.39-.51-.59-1.14-.57-1.78-.25-3.55,2.32-7.95,7.09-12.39,4.08-3.67,8.69-6.7,13.67-8.98,0-1.98-.38-3.94-1.15-5.76-.76-1.83-1.88-3.48-3.28-4.87-7.29-7.61-14.44-7.44-19.14-5.96-5.01,1.58-9.64,5.41-13.11,10.43,2.76,5.18,5.02,10.62,6.77,16.22,2.03,6.32,1.6,11.23-1.16,13.48-.99.72-2.18,1.11-3.4,1.14s-2.42-.33-3.44-1.01c-3.41-1.96-6.95-7.24-5.61-15.72.8-5.06,2.68-9.89,5.5-14.17-3.11-5.33-6.28-8.31-9.27-8.54-2.99-.23-6.22,2.57-9.12,8.37-.9,1.81-1.74,3.66-2.49,5.53.83,2.97,1.31,6.03,1.43,9.11.53,11.11-2.09,25.13-4.98,26.79-.35.25-.77.37-1.19.34-.43-.03-.82-.22-1.12-.52-2.98-2.82-1.49-20.17,4.63-35.7-1.03-3.24-2.56-5.41-4.52-6.3-2.91-1.31-6.86,0-11.76,3.93-2.26,1.81-4.28,3.57-6.1,5.27.44.28.83.63,1.16,1.03,5.37,6.72-5.48,30.13-10.83,34.9-1.74,1.56-2.78,1.16-3.36.64-2.4-2.4-3.63-6.3-3.38-10.72.32-5.79,3.23-14.59,14.28-25.4-3.15-.46-8.33,1.84-15.28,6.79-7.32,5.2-11.74,10.16-14.17,14.89,3.73,3.07,7.45,8.04,10.67,14.51,3.55,7.08,1.8,17.85-2.32,27.91.28,2.46-.17,4.95-1.31,7.15-1.3,2.65-3.38,4.84-5.96,6.29-3.7,5.35-7.81,9.58-11.59,11.59-5.1,2.63-9.41,1.26-12.16-3.87-1.04-1.98-1.9-4.04-2.56-6.18-1.2.23-2.42.37-3.65.41-.91,1.77-1.94,3.47-3.08,5.1-1.66,2.53-2.99,5.25-3.97,8.11,11.03.86,20.86,6.95,23.41,14.02,2.05,5.79-1.38,10.94-9.41,14.1-2.49,1.04-5.14,1.61-7.83,1.67ZM185.27,264.96c-2.97,8.82-3.94,19.7.07,24.69,2.71,3.41,7.38,3.84,13.91,1.27,7.47-2.94,10.59-7.44,8.75-12.64-2.21-6.16-11.58-12.6-22.72-13.33ZM388.06,254.46c-1.86-.05-3.72.22-5.49.81-2.92,1.09-4.73,2.9-5.1,5.1-.12,1.04.03,2.1.46,3.07.42.96,1.09,1.8,1.94,2.42,3.63,2.97,9.7,3.28,16.22.82,4.61-1.6,8.96-3.85,12.94-6.66-6.48-3.37-13.63-5.24-20.93-5.48l-.05-.07ZM197.44,250.05c.63,2.03,1.45,4,2.44,5.88,2.48,4.63,6.04,5.79,10.6,3.38,3.48-1.77,6.95-5.27,10.17-9.7-2.7.83-5.59.74-8.23-.26-2.34-.84-4.48-2.17-6.28-3.89-2.47,2.22-5.44,3.8-8.67,4.6h-.05ZM180.7,229.73c-.78,0-1.54.18-2.24.52-1.37.8-2.47,1.97-3.19,3.38-.71,1.41-1,3-.83,4.57.34,4.54,3.88,8.23,9.73,10.1,2.51.81,5.13,1.23,7.76,1.25,3.53-7.44.63-11.12-6.95-17.9-1.15-1.14-2.67-1.83-4.29-1.92ZM207.06,244.64c1.65,1.61,3.62,2.85,5.79,3.64,1.46.56,3.03.81,4.59.73,1.56-.08,3.09-.47,4.5-1.17,2.68-4.04,4.95-8.34,6.76-12.84-.49-3.92-2.53-8.11-4.74-12.64-4.3-8.81-8.99-18.41-3.87-29.16-2.62-1.96-5.2-2.86-7.57-2.54-5.6.75-9.93,8.22-12.55,21.57-.26,1.33-.46,2.63-.61,3.89.71-.9,1.66-1.57,2.75-1.92,1.81-.5,4.54.09,7.38,5.79,4.32,8.67,3.73,17.54-1.59,23.75-.26.28-.54.59-.83.89ZM197.79,221.24c-2.08,5.94-2.87,12.27-2.32,18.54.22,3.14.76,6.24,1.61,9.27,3.05-.74,5.88-2.21,8.23-4.3-4.55-4.95-7.8-12.87-7.51-23.51h-.01ZM379.89,246.73c.6.16,1.23.19,1.84.09,1.13-.14,2.22-.46,3.24-.95-3.13.06-4.59.54-5.08.81v.05ZM228.76,238.02c-1.29,2.83-2.77,5.57-4.41,8.2,1.32-1.19,2.41-2.61,3.21-4.2.66-1.26,1.08-2.64,1.22-4.06v.05ZM199.12,218.48c-.9,11.38,2.25,20.19,7.1,25.38.28-.28.54-.57.8-.87,5.01-5.79,5.54-14.25,1.43-22.48-1.37-2.73-3.48-5.79-6.04-5.16-1.44.59-2.61,1.68-3.28,3.08v.05ZM221.14,194.03c-4.64,10.25-.2,19.43,3.92,27.87,1.9,3.52,3.41,7.25,4.51,11.1,3.48-9.4,4.72-19.02,1.73-24.98-3.15-6.27-6.69-11.07-10.2-14.03l.05.05ZM364.45,203.37c-1.31-.01-2.61.17-3.87.53-1.77.52-3.91,1.53-4.03,3.29-.14,2.2,2.87,5.16,7.32,7.18,4.94,2.24,12.07,3.48,15.97-.42,1.07-1.03,2.19-2.01,3.36-2.92-6.01-4.79-13.07-7.72-18.8-7.72l.05.05ZM252.38,171.7c-11.78,11.41-14.14,20.38-14.39,25.08-.32,5.79,2.03,8.81,3.05,9.83.42.42,1.29-.24,1.77-.68,5.67-5.06,15.35-27.47,10.7-33.31-.31-.4-.71-.73-1.17-.95l.05.05ZM276.15,169.82c-5.71,15.13-6.72,30.77-4.37,33,.19.16.42.29.89,0,2.06-1.16,4.96-14.08,4.4-25.74-.1-2.46-.43-4.91-.97-7.31l.05.05ZM323.33,191.01c-.03.64.14,1.28.46,1.83,1.63,2.94,7.07,5.52,11.59,5.52,5.91,0,15.67-7.02,22.24-14.54-15.96-.31-24.47,1.16-29.03,2.73-1.59,1.67-3.37,3.15-5.31,4.41l.05.05ZM298.36,163.75c-2.56,3.99-4.28,8.46-5.05,13.14-1.16,7.9,1.96,12.75,5.04,14.54.81.57,1.77.88,2.76.88s1.96-.31,2.76-.88c2.38-1.94,2.68-6.38.8-12.23-1.64-5.35-3.77-10.54-6.36-15.5l.05.05ZM335.7,170.11c-4.66,2.19-8.98,5.06-12.82,8.51-4.5,4.15-6.95,8.32-6.72,11.46.1,1.51.95,1.69,1.23,1.76,1.16.26,2.91-.34,4.89-1.54.1-.44.28-.85.52-1.23.75-1.23,2.32-2.49,5.24-3.58,1.81-1.91,3.38-4.03,4.69-6.32,1.62-2.79,2.61-5.9,2.92-9.11l.05.05ZM336.86,169.56c-.26,3.59-1.35,7.08-3.18,10.19-1.02,1.79-2.2,3.48-3.53,5.05,5.39-1.51,14.2-2.48,28.42-2.13,3.33-4.03,5.66-8.11,5.9-11.25.24-3.14-1.67-5.09-5.68-5.71-6.99-1.11-14.86.65-21.92,3.81v.05Z"/><path class="c" d="M374.32,291.32c-.08,0-.15,0-.23-.02-.07-.02-.14-.05-.2-.1-.06-.05-.11-.11-.15-.17-.04-.07-.06-.14-.07-.22,0-.08,0-.15.02-.23.02-.07.05-.14.1-.2.05-.06.11-.11.17-.15s.14-.06.22-.07c.21-.06,14.94-4.28,25.75-13.4-1.48-5.27-2.37-10.68-2.65-16.14-.18-2.42.33-4.85,1.48-6.99,1.15-2.14,2.88-3.92,4.99-5.12,2.32-1.24,4.77-1.16,6.42.1,2.53,1.99,3.05,6.56,1.48,12.85-1.56,6.29-5.57,11.59-10.43,15.76,1.43,4.5,3.56,8.67,6.72,10.94,1.16.83,2.5,1.38,3.91,1.6,1.41.22,2.85.1,4.21-.34,4.3-1.16,7.03-8.83,7.13-19.92.16-18.4-6.59-39.48-18.16-42.87-5.37-1.45-11.03-1.41-16.37.1.15,6.63-1.77,12.62-5.01,16.33-3.23,3.71-7.18,4.57-11.05,2.63-3.09-1.55-4.13-4.1-2.91-7.18,1.94-4.91,9.13-10.23,17.79-12.75-.33-5.84-2.25-11.47-5.54-16.3-5.32-7.81-12.53-10.53-18.92-10.53-5.72,6.34-11.47,11.28-14.29,11.5-1.23.09-1.99-.63-2.11-1.97-.3-3.66,3.2-7.43,8.7-9.37,2.32-.81,4.76-1.25,7.22-1.31,7.68-8.62,15.3-19.7,14.95-24.6-.52-7.25-6.01-17.57-12.05-19.49-3.14-1-6.15.23-8.97,3.65-3.25,4.14-6.26,8.48-9,12.98.57,1.19.96,2.46,1.16,3.77.99,6.95-3.19,15.13-12.75,25.18-2.86,2.99-4.3,3.87-5.13,3.13-2.03-1.8,7.13-18.81,15.42-32.08-1.75-2.95-4.29-5.36-7.33-6.95-9.18-5.32-14.82-6.79-18.3-4.79-2.09,1.16-3.41,3.73-3.99,7.67.88,3.33,1.48,6.72,1.81,10.14,1.58,16.13.68,16.72.3,16.98-.11.07-.23.1-.36.1s-.25-.04-.36-.1c-1.39-.74-2.91-12.11-2.91-21.72,0-1.73.1-3.46.32-5.18-3.59-13-11.05-21.11-17.61-21.89-5.33-.63-9.75,3.35-12.45,11.19-1.97,5.74-3.59,11.58-4.87,17.51,1.29,1.66,2.15,3.62,2.48,5.7.34,2.08.14,4.21-.56,6.19-2.44,7.08-3.48,7.38-4.29,7.11-1.69-.59-1-8.75,1.16-18.7-1.76-2.23-3.88-4.15-6.27-5.69-9.4-6.32-21.79-8.52-23.64-6.88-.12.1-.34.3,0,.93,1.44,2.89,6.11,5.74,10.63,8.48,5.04,3.07,9.79,5.97,9.99,8.97,0,.62-.15,1.22-.44,1.76-.29.54-.71,1-1.23,1.34-3.24,2.6-10.86,1.6-19.7.44-11.77-1.55-26.41-3.48-33.94,3.21-2.75,2.43-3.96,4.33-3.74,5.79.31,2.05,3.58,3.48,7.37,5.23,4.88,2.18,10.95,4.9,14.13,10.3.95,1.62,1.16,2.86.49,3.8-1.65,2.47-8.45,1.51-17.07.3-10.94-1.54-24.55-3.48-25.98,2.93-1.48,6.71,9.27,11,19.78,15.15,9.27,3.71,18.1,7.2,19.18,12.54,1.08,5.34-14.14,12.11-30.14,19.31-13.26,6-28.27,12.8-27.89,16.76.12,1.22,1.96,2.32,5.34,3.08,18.68,4.43,29.85,3.21,35.22,2.63,3.08-.32,4.48-.47,4.88.68.03.07.04.15.03.22,0,.08-.03.15-.06.22-.03.07-.08.13-.14.18-.06.05-.13.09-.2.11-.14.05-.3.04-.44-.03-.14-.07-.24-.19-.29-.33-.23-.27-1.97-.08-3.65.1-5.43.58-16.74,1.81-35.61-2.66-4.02-.95-6.05-2.32-6.22-4.1-.46-4.77,12.99-10.86,28.56-17.91,14.2-6.42,30.28-13.71,29.4-18.11-.95-4.73-9.86-8.26-18.47-11.69-10.9-4.32-22.18-8.81-20.48-16.48,1.65-7.43,15.26-5.52,27.27-3.82,7.23,1.01,14.69,2.06,15.95.2.35-.52.17-1.38-.52-2.56-2.99-5.08-8.88-7.72-13.6-9.84-4.26-1.91-7.62-3.48-8.04-6.11-.29-1.9,1.02-4.08,4.13-6.84,7.91-7.05,22.85-5.08,34.86-3.48,8.55,1.16,15.94,2.1,18.81-.19.36-.23.67-.54.88-.91s.33-.79.35-1.22c-.15-2.39-4.87-5.27-9.43-8.04-4.57-2.77-9.47-5.79-11.05-8.96-.24-.36-.35-.79-.29-1.21.05-.43.26-.82.58-1.1,2.7-2.38,15.83.6,25.04,6.78,2.21,1.45,4.22,3.2,5.96,5.19,1.25-5.65,2.79-11.23,4.63-16.72,3.91-11.34,10.26-12.36,13.67-11.96,6.52.76,14,8.01,17.97,20.5.79-3.08,2.16-5.16,4.11-6.29,3.88-2.24,9.88-.75,19.47,4.8,3.02,1.62,5.59,3.97,7.45,6.85,2.67-4.35,5.58-8.56,8.7-12.6,3.93-4.76,7.73-4.82,10.22-4.02,7.12,2.32,12.36,13.66,12.85,20.51.36,5.02-6.95,15.94-14.61,24.69,6.49.27,13.62,3.22,18.92,11.03,3.4,4.96,5.39,10.74,5.77,16.73,5.48-1.5,11.26-1.5,16.74,0,13.33,3.94,19.13,28.11,18.99,44.03-.09,11.8-3.08,19.7-7.97,21.02-1.52.49-3.13.61-4.71.37-1.58-.25-3.07-.86-4.37-1.79-3.27-2.32-5.49-6.56-6.95-11.09-10.75,8.95-24.95,13-25.83,13.25-.07,0-.13,0-.2-.02ZM407.11,248.74c-1,.03-1.97.3-2.85.78-1.9,1.12-3.44,2.74-4.47,4.69-1.02,1.95-1.48,4.14-1.33,6.34.27,5.2,1.09,10.36,2.45,15.39,4.48-4.01,8.18-8.91,9.64-14.76,1.96-7.85.17-10.67-1.08-11.59-.67-.55-1.5-.84-2.36-.83ZM387.52,227.06c-8.17,2.42-14.98,7.38-16.76,11.88-1,2.53-.21,4.45,2.32,5.79,3.41,1.7,6.84.86,9.66-2.32,3.06-3.57,4.87-9.14,4.77-15.35ZM361.38,199.03c-1.95.13-3.88.52-5.74,1.16-5.01,1.77-8.19,5.06-7.93,8.18.07.9.46.95.87.93,2.43-.17,7.54-4.53,12.79-10.27ZM346.61,171.54c-7.83,12.61-15.79,27.72-15.23,29.94.28-.07,1.16-.52,3.48-2.99,9.18-9.64,13.36-17.79,12.45-24.21-.12-.94-.35-1.86-.69-2.75ZM316.1,170v1.7c-.07,6.52.57,13.03,1.89,19.41,0-4.88-.28-9.76-.87-14.6-.21-2.19-.54-4.36-.97-6.51h-.05ZM279.97,174.84c-1.75,8.58-2.23,14.91-1.67,16.22.32-.32,1.16-1.55,2.84-6.29.59-1.63.8-3.37.6-5.1-.2-1.72-.79-3.38-1.73-4.83h-.05Z"/><path class="c" d="M388.09,319.42c-8.8,0-18.54-3.86-21.61-9.27-.05-.07-.08-.14-.1-.22-.02-.08-.01-.16,0-.24.02-.08.05-.15.1-.22.05-.07.11-.12.18-.16.07-.04.15-.06.23-.07.08,0,.16,0,.24.03.08.03.15.07.21.13.06.06.11.12.14.2,3.59,6.47,18.11,10.63,27.24,7.81,1.27-.39,2.01-.87,2.09-1.34.2-1.23-3.05-3.55-6.19-5.79-4.46-3.19-10.02-7.14-12.41-11.91-.76-1.54-.83-2.66-.2-3.48,1.63-2.04,7.52-.6,14.33,1.05,6.28,1.54,14.11,3.48,15.26,1.16,1.97-3.95-15.06-17.38-26.26-24.98-.06-.04-.12-.1-.16-.16-.04-.06-.07-.13-.09-.21-.01-.07-.01-.15,0-.23s.04-.15.09-.21c.04-.06.1-.12.16-.16.06-.04.13-.07.21-.09.07-.01.15-.01.23,0,.07.02.15.04.21.09,3.05,2.06,29.72,20.3,26.65,26.45-1.55,3.13-8.85,1.34-16.57-.54-5.62-1.37-11.98-2.92-13.15-1.46-.39.5,0,1.48.34,2.22,2.26,4.52,7.68,8.38,12.04,11.48,4.04,2.89,6.95,4.96,6.66,6.95-.21,1.3-1.75,1.91-2.89,2.26-2.28.65-4.63.95-7,.9Z"/><path class="c" d="M361.1,324.39c-.08.01-.15.01-.23,0-.08-.02-.15-.05-.21-.09-.06-.04-.12-.1-.16-.16-.04-.06-.07-.14-.09-.21-.01-.08-.01-.15,0-.23.02-.08.05-.15.09-.21.04-.06.1-.12.16-.16.06-.04.14-.07.21-.09.19-.08,18.34-7.46,28.41-21.12,4.4-5.97,4.63-16.49.67-28.16-3.48-10.32-9.55-18.81-14.32-20.17-.15-.04-.27-.14-.35-.28-.08-.13-.1-.29-.06-.44.04-.15.14-.27.28-.35.13-.07.29-.09.44-.05,5.2,1.48,11.41,10.08,15.06,20.86,4.1,12.02,3.79,22.94-.85,29.22-10.27,13.91-28.73,21.43-28.91,21.49-.04.06-.1.12-.16.15Z"/><path class="c" d="M318.37,101.57c-2.32,0-4.91-.19-7.73-.37-4.68-.4-9.38-.55-14.08-.45-6.16.21-11.02-1.74-14.43-5.79-4.44-5.25-6-13.91-4.17-23.01.27-1.69.88-3.31,1.8-4.75.92-1.44,2.12-2.69,3.53-3.65,5.25-3.48,12.24-2.32,13.26-2.14,1.91-.33,3.85-.5,5.79-.51.89-.05,1.78-.15,2.65-.29,5.34-.71,16.47-2.18,25.73,3.55,3.95,2.45,6.36,6.52,6.95,11.8.86,7.44-2.09,16.65-6.87,21.44-3.26,3.36-7.37,4.19-12.43,4.19ZM299.53,99.54c4.11,0,7.83.27,11.19.5,8.62.59,14.84,1.02,19.33-3.48,3.87-3.87,7.47-12.36,6.52-20.48-.16-2.19-.82-4.32-1.93-6.22-1.11-1.9-2.65-3.51-4.49-4.72-8.91-5.52-19.76-4.08-24.96-3.38-.93.15-1.87.24-2.82.29-1.92,0-3.83.18-5.71.51-.08.02-.16.02-.23,0-.08,0-7.35-1.46-12.5,1.96-1.28.88-2.37,2.01-3.21,3.33-.83,1.32-1.38,2.79-1.63,4.33-1.76,8.82-.3,17.06,3.93,22.02,3.16,3.74,7.71,5.54,13.5,5.36,1.02.01,2.03-.01,3-.01h0Z"/><path class="c" d="M302.73,82.15c-.05.01-.11.01-.16,0l-10.92-3.21c-.07-.02-.14-.05-.2-.1-.06-.05-.11-.11-.15-.17-.04-.07-.06-.14-.07-.22,0-.08,0-.15.02-.23.05-.15.15-.27.28-.34.13-.07.29-.09.44-.05l10.92,3.21c.07.02.14.06.2.11.06.05.11.11.15.18.04.07.06.14.07.22,0,.08,0,.15-.02.23-.04.11-.12.21-.22.28-.1.07-.22.1-.34.1Z"/><path class="c" d="M305.08,79.8c-.07,0-.15-.01-.22-.04-.07-.03-.13-.07-.19-.12l-8.34-8.11c-.06-.05-.11-.12-.15-.19-.04-.07-.06-.15-.06-.23,0-.08,0-.16.04-.23.03-.07.07-.14.13-.2.06-.06.12-.1.2-.13.07-.03.15-.04.23-.04.08,0,.16.02.23.06.07.03.14.08.19.14l8.34,8.11c.08.08.14.18.16.3.02.11.01.23-.03.34-.04.11-.12.2-.21.26-.1.06-.21.1-.33.1h0Z"/><path class="c" d="M313.43,83.23c-.15,0-.29-.06-.39-.17-.11-.1-.17-.24-.17-.39,0-.08,0-.15.03-.22.03-.07.06-.14.12-.19.05-.06.11-.1.18-.13.07-.03.14-.05.22-.05l9.42-.43c.15,0,.3.05.41.16.11.1.18.25.19.4,0,.08,0,.15-.04.22-.03.07-.07.14-.12.19-.05.06-.11.1-.18.13-.07.03-.14.05-.22.05l-9.41.43h-.04Z"/><path class="c" d="M311.72,80.71c-.09,0-.17-.02-.25-.06-.08-.04-.15-.09-.2-.16-.05-.06-.09-.13-.11-.2-.02-.07-.03-.15-.02-.22,0-.08.03-.15.07-.22s.09-.13.15-.17l9.85-7.91c.06-.05.12-.09.2-.11.07-.02.15-.03.22-.02.08,0,.15.03.22.07.07.04.13.09.17.15.1.12.14.27.13.43-.02.15-.09.3-.21.39l-9.85,7.91c-.1.09-.23.13-.36.13Z"/><path class="c" d="M314.93,93.92c-.1,0-.2-.03-.29-.08-.09-.05-.16-.12-.22-.21,0,0-3.12-5.31-7.89-5.7-4.77-.39-8.9,4.04-8.93,4.09-.05.06-.11.11-.18.15-.07.04-.15.06-.23.07-.08,0-.16,0-.23-.03s-.14-.07-.2-.12c-.06-.05-.11-.12-.14-.19s-.05-.15-.05-.23c0-.08.01-.16.04-.23s.07-.14.13-.19c.17-.2,4.53-4.92,9.9-4.47,5.37.45,8.66,6.05,8.8,6.28.08.13.1.29.06.44-.04.15-.13.28-.27.36-.09.04-.19.07-.29.07Z"/><path class="c" d="M327.99,78.51c-.11,0-.21-.03-.31-.08-.09-.06-.17-.13-.22-.23-.04-.07-.06-.14-.06-.22,0-.08,0-.15.03-.22.02-.07.06-.14.11-.2.05-.06.11-.1.18-.14l2.14-1.08c.55-.3,1.02-.72,1.37-1.23.35-.51.58-1.1.67-1.72,0-.08.03-.15.06-.22.04-.07.08-.13.14-.18.06-.05.13-.09.2-.11.07-.02.15-.03.23-.02s.15.03.22.06c.07.04.13.08.18.14.05.06.09.13.11.2s.03.15.02.23c-.1.82-.39,1.59-.86,2.27-.46.68-1.08,1.23-1.81,1.62l-2.14,1.07c-.08.04-.17.06-.27.06Z"/><path class="c" d="M332.27,83.03c-.05.01-.11.01-.16,0-.07-.02-.14-.05-.2-.1-.06-.05-.11-.1-.15-.17-.04-.07-.06-.14-.07-.21,0-.07,0-.15.02-.22.08-.33.04-.68-.11-.99-.14-.31-.39-.56-.69-.71-.34-.17-.72-.23-1.1-.17-.38.06-.72.24-.99.51-.11.11-.26.17-.41.17s-.3-.06-.41-.17c-.11-.11-.17-.26-.17-.41s.06-.3.17-.41c.44-.45,1.02-.75,1.65-.84.63-.09,1.27.02,1.83.32.53.28.95.73,1.2,1.27.24.55.3,1.16.15,1.74-.04.12-.11.22-.21.29-.1.07-.22.11-.34.1Z"/><path class="c" d="M335.26,81.94c-.12,0-.25-.04-.35-.12-.1-.07-.17-.18-.21-.3-.14-.47-.19-.97-.13-1.46.05-.49.21-.97.45-1.4.09-.12.23-.2.38-.23.15-.02.31.02.43.11.12.09.2.23.23.38.02.15-.02.31-.11.43-.28.58-.32,1.24-.12,1.84.04.15.02.31-.06.44-.08.13-.2.23-.35.28l-.16.02Z"/><path class="c" d="M366.31,142.3c-.11,0-.21-.03-.31-.09-.09-.06-.17-.14-.21-.24-.64-1.31-15.7-32.01-15.7-38.32.1-2.04.62-4.04,1.51-5.87.89-1.84,2.15-3.47,3.69-4.81,1.41-1.3,3.08-2.29,4.9-2.89,1.82-.6,3.76-.8,5.66-.59,9.08,1.07,14.32,12.36,14.53,12.84.04.08.06.16.06.24v7.3c0,.1-.02.19-.07.28-.05.08-.11.16-.2.21-.08.04-.18.07-.27.07s-.19-.02-.27-.07l-3.65-1.62,2.89,12.96c.02.08.01.17,0,.26-.02.08-.06.16-.11.23-.05.07-.12.12-.2.16-.08.04-.16.06-.25.06h-5.26l-1.99,9.44c-.03.14-.11.27-.23.35s-.26.12-.41.1l-3.48-.44v9.78c0,.13-.04.26-.13.36-.08.1-.2.17-.33.2l-.17.1ZM364.23,90.59c-3.04.03-5.96,1.19-8.19,3.26-1.42,1.23-2.57,2.73-3.4,4.42-.82,1.69-1.3,3.52-1.39,5.4,0,5.1,10.94,28.18,14.49,35.54v-7.9c0-.08.02-.17.05-.24.03-.08.08-.14.15-.2.06-.05.13-.09.21-.12.08-.02.16-.03.24-.02l3.65.45,1.97-9.38c.02-.13.1-.25.2-.34.1-.09.23-.13.37-.13h5.02l-2.98-13.37c-.02-.11-.02-.21.02-.32.04-.1.1-.19.18-.26.08-.07.18-.11.29-.13.11-.01.21,0,.31.04l3.88,1.73v-6.29c-.56-1.16-5.58-11.12-13.57-12.06-.5-.06-.99-.08-1.49-.08Z"/><path class="c" d="M369.41,148.55c-.1,0-.19-.02-.28-.07-.1-.06-.18-.14-.24-.24-.05-.1-.07-.22-.05-.33l1.56-11.47c.01-.1.05-.2.11-.28.06-.08.15-.14.25-.18l3.86-1.45.99-6.95c.02-.15.1-.29.22-.38l6.48-4.98-1.47-5.89c-.03-.11-.02-.23.02-.34.04-.11.12-.2.21-.27l3.41-2.43v-10.13c0-.11.03-.22.09-.31.06-.09.15-.17.25-.21,1.84-.76,3.83-1.13,5.82-1.08,2,.05,3.96.51,5.76,1.36,2.48,1.08,4.7,2.65,6.53,4.64,1.83,1.98,3.23,4.33,4.11,6.88,3.81,10.92-11.3,19.51-20.65,23.66-5.95,2.72-11.53,6.2-16.59,10.34-.11.09-.24.14-.38.14ZM371.5,136.96l-1.32,9.68c4.83-3.8,10.09-7.02,15.68-9.58,8.98-4,23.52-12.19,20.01-22.23-.82-2.4-2.13-4.61-3.85-6.47s-3.81-3.35-6.14-4.36c-1.6-.74-3.32-1.16-5.08-1.24-1.76-.08-3.52.2-5.17.8v10.05c0,.09-.02.18-.07.27-.04.08-.1.15-.18.21l-3.33,2.32,1.46,5.88c.03.11.02.22-.01.33-.04.11-.11.2-.2.26l-6.57,5.1-1.01,7.07c-.02.1-.06.2-.12.28-.07.08-.15.14-.25.18l-3.86,1.47Z"/><path class="c" d="M367.82,152.71c-.75-.03-1.49-.12-2.22-.28l-.45-.08c-.17-.02-.33-.09-.47-.19-.14-.1-.25-.24-.31-.4-.35-.8.42-2.07.75-2.58l.05-.09,1.59-1.58c.05-.06.12-.1.19-.13.07-.03.14-.05.22-.05s.15.02.22.05c.07.03.13.07.18.13.52.51,1.01,1.06,1.46,1.63.26.41.41.88.46,1.36.05.48-.01.97-.18,1.42-.13.64-.66.79-1.47.79ZM365.42,151.23l.38.07c.79.18,1.6.25,2.41.23.11-.27.16-.57.14-.86-.02-.29-.1-.58-.24-.83-.28-.36-.66-.79-.95-1.16l-1.16,1.16c-.27.43-.47.9-.58,1.39Z"/><path class="c" d="M362.41,145.69c-.08.02-.16.02-.23,0-.43-.18-.86-.39-1.26-.63-.27-.2-.49-.45-.65-.74-.16-.29-.24-.62-.26-.95-.13-.94,1.16-1.16,2.2-1.41h.28c.14-.04.29-.04.43,0,.14.04.27.11.37.21.17.28.28.59.32.91.04.32.01.65-.08.96v.12l-.54,1.29c-.06.14-.18.25-.32.31-.09,0-.17-.03-.24-.07ZM361.19,143.37c0,.12.04.25.09.36.06.11.13.21.23.29.17.1.39.21.59.3l.29-.68c.04-.2.05-.4.06-.6-.43.08-.85.2-1.26.35h0Z"/><path class="c" d="M361.68,151.94c-.07.02-.15.02-.22,0-.43-.18-.86-.39-1.26-.63-.27-.2-.49-.45-.65-.75-.16-.29-.25-.62-.26-.96-.13-.93,1.16-1.16,2.21-1.4l.28-.06c.14-.04.28-.03.42,0,.14.04.26.11.37.21.45.44.35,1.37.23,1.88,0,.03,0,.07,0,.1l-.54,1.3c-.06.14-.17.25-.31.3-.08.02-.17.02-.26,0ZM360.52,149.63c.06.32.14.54.32.65l.58.31.29-.68c.04-.2.06-.4.06-.6-.42.08-.84.19-1.25.32Z"/><path class="c" d="M180.65,210.07h-5.89c-6.04,0-12.46-3.91-19.59-11.95-3.48-3.87-1.56-6.07.43-8.41,1.41-1.46,2.49-3.21,3.15-5.12,1.49-4.81,2.52-9.74,3.08-14.74.79-6.34,9.82-12.56,27.58-19.03,19.77-7.18,25.03-10.93,25.2-11.04.94-.74,8.97-6.95,12.75-6.3,1.97.26,3.8,1.18,5.19,2.61.75.64,1.7,1.45,3.09,2.45,4.77,3.41,3.22,7.02,1.44,11.22-1.22,2.83-2.22,3.95-2.89,4.39l4.13,10.63c.04.1.05.21.03.32-.02.11-.07.2-.14.28-.07.08-.17.14-.27.16-.1.03-.21.03-.32,0l-9.56-2.99-5.94,5.93c-.05.05-.12.1-.19.13-4.96,2.17-9.69,4.84-14.1,7.97-2.13,1.72-4.66,2.89-7.36,3.38-.72.07-1.43.29-2.06.65-.63.36-1.18.85-1.6,1.44-1.77,2.12-1.81,6.88-1.83,11.91.07,3.16-.11,6.32-.52,9.46-.95,5.93-7.52,6.66-13.8,6.66ZM226.81,134.5c-3.04,0-9.27,4.35-11.48,6.11-.21.16-5.25,3.85-25.49,11.22-17.08,6.21-26.11,12.3-26.83,18.08-.56,5.07-1.61,10.07-3.12,14.94-.7,2.07-1.86,3.97-3.38,5.54-2.01,2.32-3.21,3.78-.45,6.95,6.95,7.78,13.05,11.59,18.74,11.59h2.85c6.95.14,14.75.29,15.75-5.79.41-3.07.58-6.17.51-9.27,0-5.25.06-10.2,2.1-12.64.51-.69,1.16-1.27,1.9-1.7.75-.43,1.57-.7,2.43-.79,2.53-.46,4.9-1.55,6.89-3.18,4.46-3.18,9.22-5.89,14.23-8.11l6.11-6.1c.08-.07.17-.13.28-.15.1-.03.21-.03.32,0l8.74,2.73-3.89-10.01c-.03-.09-.05-.18-.03-.28.01-.09.05-.18.1-.26.05-.08.12-.14.21-.19.08-.04.18-.07.27-.07,0,0,1-.34,2.56-3.97,1.96-4.57,2.79-7.07-1.04-9.82-1.44-1.02-2.4-1.84-3.17-2.5-1.23-1.29-2.87-2.11-4.64-2.32-.15-.02-.29-.02-.44-.01Z"/><path class="c" d="M174.15,190.2c-.06.01-.13.01-.2,0-.14-.05-.26-.16-.33-.3-.06-.14-.07-.3-.02-.44.15-.44,3.79-10.66,8.11-16.84,3.26-4.63,8.77-6.88,12.8-8.52,1.19-.43,2.36-.94,3.48-1.54,3-1.8,8.49-7.28,8.55-7.33l.09-.08c1.87-1.16,6.95-4.63,7.87-6.01.04-.06.1-.12.16-.16.06-.04.13-.07.21-.09s.15-.02.23,0c.08.01.15.04.21.09.06.04.12.1.16.16s.07.14.09.21c.01.08.02.15,0,.23s-.04.15-.09.21c-1.24,1.85-7.24,5.72-8.11,6.32-.58.57-5.72,5.65-8.73,7.46-1.16.62-2.37,1.16-3.6,1.62-3.91,1.58-9.27,3.73-12.29,8.11-4.24,6.05-7.94,16.45-7.97,16.56-.05.12-.13.22-.25.29-.11.06-.25.08-.38.06Z"/><path class="c" d="M181.57,195.14h-.19c-.14-.05-.26-.16-.33-.3-.07-.14-.08-.3-.03-.44.15-.44,3.75-10.6,5.62-13.71,1.87-3.11,10.43-7.74,11.29-8.23l6.76-6.13,13.62-11.76c.06-.05.12-.09.2-.11.07-.02.15-.03.22-.03.08,0,.15.03.22.06.07.03.13.08.18.14.1.12.15.27.14.42-.01.15-.08.3-.2.4l-13.6,11.75-6.79,6.21-.12.08c-.09,0-9.15,4.9-10.9,7.82-1.75,2.92-5.48,13.4-5.52,13.5-.05.1-.13.19-.23.24-.1.06-.21.09-.33.08Z"/><path class="c" d="M165.84,145.26c-1.51-.02-3-.36-4.37-1.01-6.45-2.91-7.21-8.79-7.88-13.99-.19-2.1-.6-4.18-1.25-6.19-1.19-2.64-2.77-5.09-4.71-7.24-2.51-3.14-4.89-6.11-4.14-8.99.99-3.81,5.94-5.68,13.45-8.51,2.06-.78,4.41-1.66,6.95-2.66,7.39-3,7.51-6.69,7.63-10.6-.05-1.88.25-3.76.88-5.53,1.64-3.95,8.92-4.58,17.38-5.31,4.79-.31,9.55-.92,14.25-1.84,10.35-2.32,11.74-3.77,11.9-4,.01-.13.06-.25.14-.35,5.56-6.61,19.47-10.94,27.57-8.59,8.1,2.35,10.07,10.66,11.67,17.94.44,2.27,1.03,4.51,1.76,6.7,1.17,3.26,2.55,6.44,4.11,9.53,1.81,3.6,3,5.99,2.21,7.89-.79,1.9-2.75,3.09-4.63,4.23-1.13.62-2.18,1.36-3.15,2.21-.88.85-.83,3.48.13,7.35.1.38.07.78-.07,1.14-.15.36-.4.67-.74.87-.35.24-.76.35-1.18.33-.42-.02-.82-.17-1.14-.44l-9.27-7.35c-1.55.39-8.97,2.17-11.74,1.63-2.4-.46-5.2-.31-9.49,3.82-.67.64-1.32,1.3-1.99,1.97-4.51,4.84-9.87,8.82-15.81,11.74-3.94,2.17-8.27,3.52-12.75,3.96-2.69.29-5.33.87-7.89,1.74-2.82,1.14-5.44,2.73-7.75,4.7-3.28,2.47-6.36,4.82-10.09,4.82ZM216.94,69.66c-.02.09-.05.19-.1.27-.96,1.72-7.43,3.48-12.69,4.64-4.76.92-9.57,1.54-14.4,1.87-8.04.68-15,1.29-16.36,4.64-.58,1.65-.85,3.39-.8,5.13-.13,4.1-.26,8.35-8.34,11.59-2.5,1.01-4.86,1.9-6.95,2.68-7.16,2.69-11.9,4.47-12.75,7.71-.6,2.32,1.59,5.08,3.92,7.98,2.01,2.25,3.66,4.79,4.89,7.54.68,2.1,1.12,4.27,1.31,6.47.66,5.12,1.34,10.43,7.21,13.07,5.32,2.39,9-.42,13.27-3.66,2.42-2.05,5.16-3.69,8.11-4.87,2.63-.9,5.35-1.5,8.11-1.8,4.35-.43,8.57-1.74,12.4-3.85,5.83-2.87,11.08-6.77,15.5-11.52.67-.68,1.33-1.34,2-1.99,3.73-3.59,6.87-4.83,10.52-4.13,2.78.53,11.43-1.67,11.52-1.69.09-.02.18-.03.26,0,.09.02.17.06.24.11l9.55,7.53c.14.1.3.16.47.16s.34-.06.48-.16c.13-.08.23-.19.28-.33.06-.14.07-.29.03-.44-1.16-4.41-1.04-7.27.2-8.46,1.03-.89,2.16-1.67,3.36-2.32,1.81-1.09,3.48-2.11,4.16-3.67.68-1.56-.52-3.6-2.18-6.95-1.63-3.13-3.07-6.37-4.31-9.68-.75-2.24-1.35-4.53-1.81-6.85-1.53-6.95-3.27-14.86-10.86-17.07-7.59-2.21-20.93,1.92-26.24,8.05Z"/><path class="c" d="M167.57,112.85c-.08,0-.15,0-.23-.03-.07-.02-.14-.06-.2-.11-.12-.1-.19-.24-.2-.4-.01-.15.04-.31.14-.42.1-.12.24-.19.4-.2.06,0,6.55-1.07,9.73-5.5,1.1-1.63,1.88-3.45,2.32-5.37.64-2.32,1.24-4.47,4.09-5.79,2.53-1.16,5.96-1.39,9.27-1.6,2.39-.01,4.76-.36,7.05-1.03,3.66-1.46,10.33-3.85,11.17-4.15l7.8-6.21c.06-.05.13-.08.21-.1l3.94-1.04c.15-.04.3-.02.44.06.13.08.23.2.27.35.04.15.01.31-.06.44-.07.13-.2.23-.34.28l-3.82,1.01-7.78,6.19s-.1.07-.16.09c-.07,0-7.35,2.63-11.23,4.17-2.4.74-4.89,1.13-7.4,1.16-3.21.2-6.54.41-8.86,1.49-2.33,1.09-2.82,2.76-3.48,5.05-.47,2.05-1.32,3.99-2.5,5.72-3.48,4.84-10.21,5.93-10.5,5.98l-.06-.03Z"/><path class="c" d="M170.38,121.72c-.11,0-.21-.03-.3-.08-.09-.06-.17-.13-.22-.23-.07-.14-.08-.3-.03-.44.05-.15.15-.27.28-.34.12,0,11.11-5.7,13.24-9.68,2.32-4.36,8.2-9.18,13.91-9.71,5.7-.53,16.13-3.71,18.16-6.06,2.26-2.63,5.79-5.43,8.88-5.43.15,0,.3.06.41.17.11.11.17.25.17.41,0,.15-.06.3-.17.41-.11.11-.26.17-.41.17-2.71,0-6,2.71-8,5.03-2.39,2.77-13.33,5.94-18.93,6.47-5.37.5-10.83,5.02-13.04,9.1-2.32,4.29-13.27,9.93-13.73,10.16-.07.04-.14.06-.22.07Z"/><path class="c" d="M173.2,130.08c-.11,0-.22-.03-.31-.08-.09-.06-.17-.14-.21-.24-.03-.07-.05-.14-.06-.22,0-.08,0-.15.03-.22.03-.07.06-.14.11-.2s.11-.1.18-.14c3.86-1.87,14.17-7.24,15.48-9.68l.31-.59c1.92-3.64,5.93-11.23,14.17-12.25l3.37-.39c6.95-.81,13.49-1.58,17.75-4.22,3.26-2,6.66-3.76,10.17-5.27.14-.05.3-.05.44,0,.14.06.25.17.31.31.03.07.05.15.05.22,0,.08-.01.15-.04.22-.03.07-.07.14-.13.19-.05.05-.12.1-.19.13-3.47,1.48-6.82,3.21-10.03,5.18-4.48,2.78-11.16,3.56-18.23,4.38l-3.36.39c-7.65.95-11.46,8.17-13.3,11.65l-.31.59c-1.73,3.21-14.54,9.47-16,10.17-.07.03-.14.05-.21.06Z"/><path class="c" d="M151.28,172.88c-.1,0-.19-.02-.28-.07l-13.06-7.12-2.84,6.23c-.04.08-.09.15-.16.21-.07.06-.15.1-.23.12-.09.02-.18.01-.26,0-.09-.02-.17-.06-.23-.12l-10.08-8.26-3.35,4.46c-.08.11-.2.19-.33.22-.13.03-.28,0-.4-.06l-17.31-9.27c-.07-.03-.13-.08-.18-.14-.05-.06-.09-.12-.11-.19-.02-.07-.03-.15-.02-.22,0-.07.03-.15.07-.21l4.32-8.66c.03-.07.08-.13.14-.18.06-.05.12-.09.2-.11.07-.03.15-.04.22-.03.08,0,.15.02.22.06l11.9,5.92,4.07-8.11c.04-.08.1-.15.18-.21.07-.05.16-.09.25-.11.09-.01.18,0,.27.02.09.03.17.08.23.14l11.59,11.59,1.63-7.63c.02-.11.08-.21.16-.29.08-.08.19-.13.3-.15.12-.02.23,0,.34.04.11.05.2.13.26.23l12.98,21.02c.07.11.1.24.08.36-.01.13-.07.25-.15.34-.11.11-.25.17-.41.17ZM124.07,162.45c.13,0,.26.05.36.13l9.93,8.18,2.78-6.12c.04-.07.08-.13.14-.19.06-.05.13-.09.2-.12.07-.03.15-.05.23-.05s.16.02.23.05l11.67,6.41-11.08-17.94-1.55,7.25c-.02.1-.07.19-.14.27-.07.07-.16.13-.26.16-.1.03-.2.03-.3,0-.1-.03-.19-.08-.26-.15l-11.81-11.8-3.96,7.94c-.07.14-.19.24-.33.29-.14.05-.3.04-.44-.02l-11.84-5.93-3.81,7.64,16.37,8.77,3.48-4.54c.05-.06.11-.12.17-.16.07-.04.14-.07.22-.08h.01Z"/><path class="c" d="M262.02,65.9c-.11,0-.21-.05-.3-.11-.09-.07-.15-.15-.19-.26l-6.3-16.11c-.03-.1-.04-.2-.03-.3.02-.1.06-.2.12-.28.07-.08.15-.14.25-.18.1-.03.2-.04.31-.02l6.19,1.16,1.16-11.75c.01-.09.05-.19.1-.26.05-.08.13-.14.21-.19.08-.05.18-.07.27-.07s.19.02.27.07l4.99,2.78,4.71-11.16c.03-.07.07-.13.12-.19.05-.05.12-.1.18-.12.07-.03.14-.04.22-.04.07,0,.15.01.22.04l14.22,5.56c.08.03.15.08.21.14.06.06.1.13.13.21.03.07.05.16.05.24s-.02.16-.05.24l-7.42,13.6c-.07.12-.18.22-.31.26-.13.05-.28.04-.41,0l-4.38-1.63-3.48,10.56c-.04.13-.12.23-.24.31-.11.07-.24.1-.38.09l-5.2-.58-4.82,7.75c-.05.07-.11.13-.18.18-.07.04-.16.07-.24.08ZM256.69,50.01l5.39,14.02,4.33-7.05c.06-.09.14-.17.24-.21.1-.05.21-.07.32-.05l5.1.57,3.57-10.68c.02-.07.06-.14.11-.2.05-.06.11-.11.18-.14.07-.03.15-.05.23-.05s.15.02.23.05l4.48,1.68,6.86-12.58-13.08-5.12-4.73,11.23c-.03.08-.08.14-.14.2-.06.06-.13.1-.21.12-.07.03-.15.05-.23.05s-.16-.02-.23-.05l-4.76-2.72-1.16,11.53c-.02.16-.11.3-.23.41-.06.05-.14.08-.21.1-.08.02-.16.02-.24,0l-5.81-1.09Z"/><path class="c" d="M404.04,197.2h-8.05c-.15,0-.29-.06-.4-.16-.11-.1-.17-.24-.18-.39,0-.97-.41-9.58,2.65-11.38.45-.27.99-.53,1.58-.83,3.08-1.56,7.31-3.71,6.21-8.56-.75-3.31-2.32-5.64-4.02-6.06-.58-.1-1.18-.03-1.72.2-.54.23-1.01.61-1.35,1.09-.91,1.18-1.6,2.52-2.02,3.95-.8,2.21-1.55,4.31-4.53,4.63-.53.12-1.08.09-1.59-.07-.51-.17-.97-.47-1.33-.88-1-1.36-.24-3.48-.07-3.95.19-1.07,2.32-12.1,10.43-12.94,5.17-.53,10.49,3.19,13.44,7.13,2.48,3.3,3.33,6.63,2.32,9.11-2.21,5.48-7.95,10.13-9.03,10.97l-1.84,7.73c-.03.11-.09.21-.18.29-.09.07-.2.12-.31.13ZM396.54,196.04h7.05l1.78-7.49c.03-.13.11-.25.22-.32.06,0,6.54-4.98,8.81-10.6.85-2.07,0-5.06-2.17-7.98-2.68-3.56-7.69-7.16-12.4-6.68-7.51.78-9.41,11.94-9.43,12.04v.13c-.22.54-.67,2.12-.1,2.89.24.24.55.4.87.49.33.09.67.09,1,0,2.25-.22,2.79-1.74,3.56-3.85.46-1.56,1.22-3.02,2.22-4.3.46-.66,1.1-1.16,1.84-1.46.74-.3,1.56-.37,2.34-.22,2.19.53,4.01,3.13,4.87,6.95,1.31,5.74-3.58,8.22-6.81,9.85-.56.29-1.08.54-1.51.8-1.98,1.11-2.25,6.98-2.14,9.75Z"/><path class="c" d="M399,213.08h-1.16c-2.13,0-3.89-6.73-3.89-10.17-.02-.44.07-.87.24-1.27.17-.4.44-.76.77-1.04,1.95-1.71,6.1-1.22,6.27-1.16h.12c.43.14,4.18,1.46,4.18,3.89,0,.52,0,.97.06,1.4.17,1.69-.02,3.4-.56,5.02-.82,3.07-4.08,3.34-6.03,3.34ZM399.76,200.46c-1.4-.1-2.8.24-3.99.99-.2.18-.36.4-.47.65-.11.25-.16.52-.14.79,0,3.99,1.95,8.89,2.73,9.02h.44c2.55.06,4.98-.21,5.63-2.5.49-1.49.67-3.07.52-4.63,0-.45-.07-.93-.07-1.48,0-1.33-2.41-2.46-3.34-2.77-.44-.04-.88-.05-1.32-.05Z"/><path class="c" d="M121.81,116.69h-8.11c-.15,0-.29-.06-.4-.16s-.17-.25-.18-.39c0-.97-.41-9.58,2.65-11.38.44-.27.98-.53,1.56-.83,3.09-1.56,7.31-3.7,6.21-8.55-.75-3.33-2.32-5.64-4.01-6.07-.58-.09-1.17-.02-1.71.22-.54.23-1,.61-1.33,1.09-.91,1.18-1.59,2.51-2.02,3.94-.8,2.23-1.55,4.31-4.53,4.64-.53.11-1.08.08-1.59-.09s-.97-.47-1.33-.88c-1-1.34-.24-3.48,0-3.95.17-1.05,2.32-12.1,10.43-12.94,5.19-.53,10.43,3.2,13.44,7.13,2.48,3.3,3.33,6.63,2.32,9.11-2.14,5.46-7.94,10.12-8.98,10.96l-1.85,7.73c-.03.13-.1.24-.21.33-.11.08-.24.12-.37.12ZM114.31,115.54h7.03l1.8-7.49c.03-.13.1-.25.21-.34.07,0,6.54-4.98,8.82-10.6.83-2.07,0-5.05-2.18-7.98-2.66-3.56-7.68-7.16-12.39-6.66-7.52.78-9.42,11.92-9.44,12.04,0,.04,0,.09,0,.13-.22.53-.67,2.11-.09,2.89.32.42.94.58,1.88.49,2.25-.22,2.79-1.74,3.55-3.85.47-1.56,1.22-3.02,2.22-4.3.46-.66,1.1-1.17,1.85-1.46.74-.3,1.56-.37,2.35-.22,2.18.53,4,3.13,4.87,6.95,1.3,5.74-3.59,8.2-6.83,9.84-.56.29-1.08.56-1.51.8-1.95,1.14-2.19,6.99-2.11,9.77h-.02Z"/><path class="c" d="M116.79,132.57h-1.16c-2.13,0-3.89-6.74-3.89-10.19-.02-.44.07-.87.24-1.27.17-.4.44-.76.77-1.04,1.95-1.73,6.1-1.23,6.28-1.16h.1c.43.14,4.18,1.45,4.18,3.88,0,.53,0,.97.07,1.4.16,1.69-.03,3.4-.56,5.02-.85,3.07-4.1,3.36-6.04,3.36ZM117.53,119.95c-1.4-.1-2.8.25-3.99,1-.2.18-.36.4-.47.64-.11.25-.16.51-.14.78,0,3.99,1.95,8.89,2.75,9.03h.44c2.54.06,4.97-.21,5.62-2.5.5-1.49.68-3.07.52-4.63,0-.45-.07-.93-.07-1.48,0-1.33-2.41-2.44-3.34-2.77-.44-.04-.88-.06-1.32-.06Z"/><path class="c" d="M154.63,246.52h-8.05c-.15,0-.29-.06-.4-.16-.11-.1-.17-.24-.18-.39,0-.97-.39-9.58,2.65-11.38.45-.27.99-.54,1.58-.83,3.08-1.56,7.31-3.71,6.21-8.56-.75-3.31-2.32-5.64-4.02-6.06-.58-.09-1.17-.02-1.7.21-.54.23-.99.61-1.32,1.09-.91,1.18-1.59,2.52-2.02,3.95-.8,2.21-1.55,4.31-4.53,4.63-.53.12-1.08.09-1.59-.07-.51-.17-.97-.47-1.33-.88-1-1.36-.24-3.48-.07-3.95.19-1.07,2.32-12.1,10.43-12.94,5.18-.53,10.43,3.19,13.44,7.13,2.48,3.3,3.33,6.62,2.32,9.11-2.21,5.47-7.95,10.13-9.02,10.97l-1.85,7.73c-.04.12-.11.22-.21.29-.1.07-.22.11-.34.11ZM147.13,245.37h7.05l1.78-7.49c.04-.13.11-.24.22-.32.06,0,6.54-4.98,8.82-10.61.83-2.06,0-5.05-2.18-7.97-2.67-3.56-7.68-7.16-12.39-6.67-7.53.78-9.42,11.92-9.44,12.04.01.04.01.09,0,.13-.22.54-.67,2.12-.09,2.89.3.42.94.59,1.87.5,2.25-.22,2.8-1.74,3.56-3.85.47-1.56,1.22-3.02,2.22-4.31.46-.65,1.1-1.16,1.85-1.45.74-.3,1.55-.38,2.34-.23,2.19.54,4.01,3.14,4.88,6.95,1.3,5.74-3.59,8.22-6.83,9.85-.56.29-1.08.54-1.51.8-1.97,1.12-2.21,6.99-2.14,9.76Z"/><path class="c" d="M149.62,262.41h-1.16c-2.13,0-3.89-6.73-3.89-10.17-.02-.44.07-.87.24-1.27.17-.4.44-.76.77-1.04,1.95-1.71,6.1-1.16,6.27-1.16h.12c.43.14,4.18,1.46,4.18,3.89,0,.52,0,.97.07,1.4.15,1.69-.04,3.4-.57,5.02-.86,3.05-4.11,3.34-6.03,3.34ZM150.36,249.79c-1.4-.11-2.8.24-3.99.99-.2.18-.36.4-.47.65-.11.25-.16.52-.14.79,0,3.99,1.95,8.89,2.73,9.02h.45c2.54.06,4.97-.21,5.62-2.51.5-1.49.67-3.07.52-4.64,0-.45-.07-.93-.07-1.48,0-1.33-2.41-2.46-3.34-2.77-.45-.04-.9-.05-1.34-.04h.02Z"/><path class="c" d="M363.74,57.97h-5.11c-.15,0-.29-.06-.39-.16-.11-.1-.17-.24-.17-.39-.06-1.03-.22-6.23,1.78-7.42.33-.19.66-.37,1.01-.53,2.46-1.24,4.44-2.49,3.82-5.19-.46-2.03-1.38-3.48-2.39-3.7-.33-.04-.66,0-.96.14-.3.13-.56.35-.75.62-.56.73-.98,1.55-1.24,2.43-.51,1.41-1.03,2.86-3.05,3.06-.37.08-.75.06-1.11-.06-.36-.12-.68-.33-.93-.62-.22-.41-.34-.87-.36-1.33-.01-.47.08-.93.27-1.35.14-.81,1.53-7.82,6.81-8.37,3.36-.35,6.8,2.06,8.71,4.64,1.61,2.16,2.17,4.33,1.5,5.99-1.39,3.48-4.91,6.35-5.74,6.95l-1.16,4.83c-.03.13-.1.24-.2.32-.1.08-.22.13-.35.13ZM359.2,56.81h4.09l1.09-4.64c.04-.13.11-.24.22-.32,0,0,4.1-3.13,5.52-6.64.51-1.24,0-3.06-1.34-4.86-1.67-2.2-4.75-4.45-7.67-4.15-4.63.48-5.79,7.39-5.79,7.46v.13c-.15.37-.37,1.25-.09,1.62.28.37.64.27,1,.23,1.24-.13,1.56-.87,2.07-2.32.31-1.01.8-1.96,1.45-2.79.32-.45.76-.8,1.27-1,.51-.21,1.07-.26,1.61-.16,1.48.37,2.67,2.03,3.24,4.57.86,3.8-2.46,5.48-4.44,6.48l-.95.5c-.99.65-1.31,3.64-1.26,5.89Z"/><path class="c" d="M360.52,68.04h-.72c-1.65,0-2.68-4.64-2.68-6.66,0-.31.05-.61.18-.89.12-.28.3-.53.53-.73,1.29-1.16,3.86-.85,4.15-.81.03,0,.07,0,.1,0,.29.09,2.8.97,2.8,2.67v.87c.11,1.1-.01,2.21-.36,3.26-.53,2.11-2.69,2.31-4.01,2.31ZM360.96,60.03c-.81-.05-1.62.15-2.32.58-.11.09-.19.21-.24.34-.05.13-.08.27-.07.41,0,2.32,1.09,5.26,1.6,5.53h.21c1.51,0,2.99-.12,3.36-1.44.3-.92.42-1.9.32-2.86v-.95c0-.6-1.16-1.27-1.95-1.55-.29-.04-.59-.06-.88-.06h-.04Z"/><path class="c" d="M277.36,128.1h-5.11c-.15,0-.29-.06-.4-.16-.11-.1-.17-.24-.18-.39,0-1.03-.21-6.23,1.8-7.42.28-.16.63-.34,1.01-.53,2.46-1.24,4.44-2.49,3.82-5.19-.46-2.03-1.38-3.48-2.39-3.68-.33-.05-.66,0-.97.13-.3.13-.56.35-.75.62-.56.73-.98,1.56-1.24,2.44-.51,1.4-1.03,2.85-3.05,3.06-.37.07-.75.05-1.11-.07-.36-.12-.68-.34-.93-.62-.22-.41-.34-.87-.35-1.33-.01-.47.08-.93.27-1.35.14-.8,1.53-7.82,6.81-8.37,3.36-.35,6.8,2.06,8.71,4.64,1.61,2.16,2.17,4.35,1.49,5.99-1.39,3.48-4.91,6.35-5.74,6.95l-1.16,4.83c-.03.13-.1.24-.2.32-.1.08-.23.13-.36.13ZM272.82,126.94h4.09l1.09-4.63c.03-.14.11-.26.22-.34,0,0,4.09-3.13,5.52-6.64.51-1.24,0-3.06-1.34-4.86-1.67-2.2-4.77-4.44-7.67-4.14-4.63.48-5.79,7.38-5.79,7.45,0,.04,0,.09,0,.13-.14.37-.36,1.25-.08,1.62.28.37.65.27,1,.23,1.24-.12,1.56-.87,2.07-2.32.31-1.02.8-1.97,1.45-2.8.32-.45.76-.8,1.27-1,.51-.21,1.07-.26,1.61-.16,1.48.37,2.66,2.03,3.24,4.57.86,3.8-2.46,5.48-4.44,6.48l-.95.5c-1,.67-1.32,3.72-1.27,5.91Z"/><path class="c" d="M274.18,138.18h-.72c-1.65,0-2.68-4.63-2.68-6.67,0-.31.05-.61.17-.89.12-.28.3-.53.53-.73,1.29-1.16,3.86-.85,4.15-.8h.1c.29.09,2.8.97,2.8,2.66v.87c.11,1.1-.01,2.21-.36,3.26-.56,2.11-2.72,2.31-4.01,2.31ZM274.62,130.17c-.81-.05-1.62.15-2.32.58-.11.09-.19.21-.24.33-.05.13-.08.27-.07.41,0,2.32,1.09,5.26,1.6,5.53h.21c1.52,0,2.99-.12,3.36-1.44.3-.92.42-1.9.32-2.86v-.95c0-.6-1.16-1.26-1.96-1.55-.3-.03-.6-.05-.9-.05Z"/><path class="c" d="M418.68,84.19h-5.11c-.15,0-.29-.06-.39-.16-.11-.1-.17-.24-.17-.39-.06-1.03-.22-6.23,1.78-7.42l1.01-.53c2.46-1.24,4.44-2.49,3.82-5.19-.45-2.03-1.38-3.48-2.39-3.68-.33-.05-.66,0-.97.13-.3.13-.56.35-.75.62-.56.73-.98,1.56-1.24,2.45-.5,1.4-1.03,2.85-3.05,3.06-.37.07-.75.05-1.11-.07-.36-.12-.68-.34-.93-.62-.22-.41-.34-.87-.35-1.33-.01-.47.08-.93.27-1.35.14-.8,1.53-7.82,6.81-8.37,3.36-.35,6.8,2.06,8.71,4.64,1.62,2.16,2.17,4.35,1.49,5.99-1.39,3.48-4.91,6.35-5.72,6.95l-1.16,4.83c-.03.13-.1.24-.2.33-.1.08-.23.13-.36.13ZM414.14,83.03h4.09l1.09-4.64c.03-.13.11-.25.22-.34,0,0,4.1-3.13,5.52-6.64.51-1.24,0-3.06-1.34-4.86-1.66-2.2-4.75-4.45-7.67-4.14-4.63.48-5.79,7.38-5.79,7.45v.13c-.15.37-.37,1.25-.09,1.62.28.37.64.27,1,.23,1.24-.12,1.56-.87,2.07-2.32.3-.99.78-1.92,1.41-2.73.32-.45.76-.79,1.27-1,.51-.21,1.07-.26,1.61-.16,1.48.37,2.67,2.03,3.24,4.57.86,3.8-2.46,5.48-4.44,6.48l-.95.5c-.95.61-1.27,3.62-1.23,5.84Z"/><path class="c" d="M415.49,94.28h-.72c-1.63,0-2.68-4.64-2.68-6.67,0-.31.05-.61.17-.89.12-.28.3-.53.53-.73,1.29-1.16,3.86-.85,4.15-.8h.1c.29.09,2.8.97,2.8,2.67v.87c.1,1.1-.03,2.21-.37,3.26-.54,2.11-2.71,2.31-4,2.31ZM415.94,86.28c-.83-.06-1.66.14-2.38.57-.11.09-.19.21-.24.34-.05.13-.08.27-.07.41,0,2.32,1.09,5.26,1.6,5.53h.21c1.53,0,2.99-.12,3.36-1.44.3-.92.41-1.9.32-2.86v-.95c0-.6-1.16-1.27-1.95-1.55-.28-.03-.57-.05-.86-.05Z"/><path class="c" d="M185.22,228.93c-11.31,0-24.96-8.11-31.86-14.14-6.51-5.71-5.3-14.37-3.88-24.4,1.04-5.95,1.45-12,1.22-18.04-.2-2.79,1.16-5.86,3.98-9.11,14.3-16.35,61.42-33.16,77.57-34.18,15.27-.95,25.69,3.88,44.58,12.64,5.79,2.68,12.3,5.71,20,9.05,17.96,7.8,26.65,6.73,28.97,4.88.31-.21.54-.51.68-.86.14-.35.17-.73.09-1.09-.39-1.96-3.65-5.09-11.59-7.4-11.59-3.41-23.72-9.13-22.98-13.64.56-3.48,7.94-4.79,22.54-4.19,17.89.72,26.44,9.13,34.71,17.28,8.81,8.66,17.12,16.85,36.29,13.65,15.33-2.56,26.65-12.04,30.2-25.37,3.84-14.26-2.05-29.51-15.74-40.81-.06-.05-.11-.11-.15-.17s-.06-.14-.07-.22c0-.08,0-.15.02-.22s.06-.14.11-.2c.1-.12.24-.19.39-.21.15-.02.3.03.42.13,14.06,11.59,20.08,27.29,16.13,42.01-3.7,13.78-15.33,23.57-31.14,26.2-19.7,3.3-28.26-5.09-37.29-13.96-8.11-7.98-16.5-16.22-33.94-16.94-18.67-.75-21.15,2.01-21.34,3.22-.51,3.06,9.43,8.6,22.16,12.34,7.02,2.06,11.76,5.24,12.36,8.3.12.57.07,1.16-.13,1.7-.2.54-.56,1.02-1.02,1.37-3.12,2.5-12.87,2.78-30.13-4.72-7.72-3.35-14.25-6.38-20.02-9.06-18.73-8.69-29.04-13.48-44.03-12.54-15.6.97-62.91,17.95-76.76,33.79-2.63,3-3.88,5.79-3.71,8.26.46,6.38-.43,12.75-1.16,18.29-1.37,9.7-2.55,18.08,3.48,23.36,6.62,5.79,24.17,16.64,36.14,13.2,5.11-1.47,8.64-5.4,10.53-11.69,5.19-17.3,18.62-31.29,29.46-38.58.06-.04.13-.07.21-.09.07-.02.15-.02.23,0,.07.02.15.04.21.09.06.04.12.1.16.16.04.06.07.13.09.21.02.07.02.15,0,.23-.01.07-.04.15-.09.21-.04.06-.1.12-.16.16-10.67,7.2-23.89,20.94-28.97,37.95-2,6.69-5.79,10.88-11.32,12.47-1.77.49-3.6.73-5.43.71Z"/><path class="c" d="M237.84,173.54l-7.87,9.65.15-5.45-4.66-2.83,12.38-1.38Z"/><path class="c" d="M307.8,114.81c-3.2-.03-6.38-.59-9.4-1.65-11.48-3.84-22.84-14.76-28.97-27.81-9.53-20.42-19.7-38.32-38.9-33.07-5.66,1.73-11.19,3.83-16.58,6.27-.14.06-.3.06-.44,0-.14-.06-.26-.17-.32-.31-.06-.14-.06-.3,0-.44.06-.14.17-.26.31-.32,5.45-2.46,11.06-4.57,16.78-6.32,20.09-5.48,30.5,12.82,40.26,33.71,5.97,12.75,17.06,23.48,28.25,27.23,3.42,1.24,7.06,1.74,10.68,1.48,3.62-.26,7.15-1.29,10.35-3.01,5.64-3,10.34-8.2,15.31-13.73,11.85-13.16,25.3-28.09,55.12-11.59,1.3.71,2.57,1.46,3.8,2.24.13.08.22.21.25.36.03.15,0,.31-.08.44-.04.07-.09.12-.15.17-.06.05-.13.08-.21.09-.07.02-.15.02-.23,0s-.15-.04-.21-.08c-1.16-.76-2.47-1.51-3.73-2.21-29.03-16.03-41.58-2.1-53.71,11.38-5.03,5.6-9.79,10.88-15.62,13.97-3.85,2.09-8.17,3.19-12.55,3.19Z"/><path class="c" d="M400.36,92.75l-12.14-2.75,4.95-2.29.45-5.42,6.74,10.46Z"/><path class="c" d="M154.66,82.95c-.7.07-1.39-.14-1.95-.57-.56-.54-.59-1.37-.12-2.45,4.99-11.24,65.19-31.02,67.75-31.86.07-.03.15-.04.23-.03s.15.02.22.06.13.08.18.14c.05.06.09.13.11.2.02.07.03.15.03.23,0,.08-.03.15-.07.22s-.09.13-.15.18c-.06.05-.13.09-.2.11-.63.21-62.27,20.45-67.06,31.22-.14.34-.36.93-.13,1.16,2.19,2.17,23.07-7.37,39.85-15.06,4.25-1.95,8.54-3.91,12.65-5.79.07-.03.15-.05.22-.05.08,0,.15.01.22.04.07.03.14.07.19.12.05.05.1.12.13.19.06.14.07.3.01.44-.05.14-.16.26-.3.32-4.11,1.84-8.39,3.79-12.65,5.79-20.27,9.28-33.95,15.39-39.19,15.39Z"/><path class="c" d="M213.76,58.03l-8.59,9.02.57-5.41-4.43-3.19,12.45-.42Z"/><path class="c" d="M178.5,234.83c-17.81,0-40-6.65-44.45-16.54-2.32-5.3.7-10.96,3.67-16.45,4.35-8,8.45-15.56-2.82-22.25-8.6-5.1-19.41-6.74-28.97-8.19-6.73-1.03-13.09-1.99-17.56-4.07-.08-.03-.15-.07-.21-.12-.06-.06-.11-.12-.14-.2-.03-.07-.05-.16-.05-.24,0-.08.02-.16.05-.24.03-.07.08-.14.15-.19.06-.05.13-.09.21-.12.08-.02.16-.03.24-.02.08.01.16.04.23.08,4.31,1.99,10.59,2.94,17.24,3.96,9.64,1.47,20.58,3.13,29.36,8.34,12.23,7.27,7.66,15.67,3.24,23.8-2.97,5.48-5.79,10.65-3.64,15.42,5.3,11.76,38.66,18.91,55.62,14.51,14.87-3.85,25.82-14.81,35.49-35.54,8.55-18.35,23.51-34.86,30.67-36.8,7.16-1.95,79.31,15.06,90.63,19.19,6.72,2.48,10.33,5.79,14.5,9.68,3.93,3.8,8.23,7.21,12.83,10.16,4.1,2.62,7.07,3.34,8.59,2.1,2.38-1.94,1.4-8.7-.79-14.38-1.47-3.82-5.79-5.63-11.17-7.93-5.38-2.29-12.15-5.13-18.37-11.03l-5.18-4.97c-6.06-5.79-13.63-13.13-14.94-12.75,0,0-.23.45.65,2.82.54,1.45,1.16,2.91,1.75,4.31,2.07,4.94,3.87,9.2,1.96,11.37-1.52,1.7-5.08,1.68-11.2-.07-9.77-2.79-22.57-7.98-32.85-12.16-7.38-2.99-13.75-5.57-15-5.57-.09,0-.18-.02-.27-.06-.21-.12-20.66-10.71-27.41-6.66-1.97,1.16-2.32,1.85-2.32,2.2.19,1.46,6.07,3.23,15,5.91,3.02.9,6.49,1.95,10.43,3.16l14.95,4.64c.07.02.14.06.2.11.06.05.11.11.14.17.04.07.06.14.06.21,0,.08,0,.15-.03.22-.05.14-.15.27-.28.34-.13.07-.29.09-.44.04l-14.95-4.64c-3.92-1.23-7.37-2.26-10.43-3.17-10.98-3.29-15.53-4.64-15.81-6.86-.16-1.34,1.34-2.45,2.84-3.34,7.11-4.26,26.57,5.6,28.42,6.56,1.59.13,6.41,2.06,15.28,5.66,10.25,4.16,23.01,9.33,32.72,12.11,5.5,1.56,8.88,1.7,10.02.41,1.44-1.61-.31-5.79-2.16-10.14-.6-1.41-1.22-2.89-1.76-4.35-.92-2.43-.97-3.7-.19-4.21,1.65-1.08,5.79,2.65,16.36,12.84,1.68,1.62,3.42,3.3,5.17,4.96,6.06,5.79,12.75,8.56,18.01,10.81,5.68,2.4,10.16,4.29,11.81,8.58,1.75,4.53,3.8,12.94.44,15.69-1.97,1.61-5.31.94-9.94-2.02-4.66-2.99-9.01-6.44-12.99-10.29-4.25-3.93-7.6-7.05-14.11-9.43-12.91-4.76-83.57-20.86-89.92-19.15-6.88,1.94-21.46,18.16-29.87,36.23-9.83,21.07-21.01,32.23-36.25,36.18-4.1.97-8.3,1.43-12.51,1.37Z"/><path class="c" d="M296.27,163.03l-12.4,1.05,4.01-3.68-1.21-5.31,9.6,7.94Z"/><path class="c" d="M78.61,158.07c-.1,0-.2-.03-.29-.08-.13-.08-.23-.2-.27-.35-.04-.15-.02-.31.05-.44,4.95-8.64,28.87-11.08,44.68-12.69,6.22-.64,11.14-1.16,12.82-1.81,2.69-1.08,1.16-8.67-.27-16-1.56-7.93-3.19-16.11-.6-19.7,2.07-2.59,4.5-4.88,7.21-6.8,3.89-3.04,7.25-5.65,6.95-9.5-.2-2.11-1.55-4.53-2.98-7.08-2.98-5.28-6.34-11.29.78-15.72,9.99-6.25,59.1-24.86,81.2-29.14,6.74-1.31,8.82-2.63,8.98-3.2,0,0,0-.09-.13-.22-1.89-1.76-15.5-2.32-30.8,3.29-23.7,8.74-50.34,16.74-55.17,17.38-.88.12-1.07-.43-1.1-.6-.53-2.5,21.02-16.96,55.17-27.16.15-.04.3-.03.44.04.13.07.24.19.28.34.02.07.03.15.02.22,0,.08-.03.15-.06.22-.04.07-.08.13-.14.17-.06.05-.13.08-.2.1-31.73,9.48-51.1,22.14-54.01,25.42,6.25-1.16,31.63-8.82,54.37-17.18,14.66-5.4,29.28-5.57,31.99-3.06.2.16.35.38.43.62.08.25.09.51.02.76-.43,1.48-3.74,2.83-9.87,4.02-22.02,4.28-70.87,22.78-80.8,28.97-6.18,3.86-3.36,8.86-.38,14.17,1.49,2.67,2.91,5.18,3.12,7.54.41,4.47-3.35,7.4-7.33,10.52-2.61,1.85-4.95,4.07-6.95,6.57-2.32,3.14-.65,11.44.8,18.75,1.69,8.52,3.14,15.87-.44,17.31-1.83.73-6.57,1.16-13.13,1.88-15.59,1.59-39.14,3.99-43.79,12.12-.05.11-.14.19-.24.25-.1.06-.22.08-.34.07Z"/><path class="c" d="M82.06,164.93l-7.61-9.86,5.27,1.39,3.81-3.89-1.47,12.36Z"/><path class="c" d="M319.78,53.87h-.09c-8.31-1.46-16.38-4.09-23.96-7.8-3.28-1.59-4.63-2.85-4.33-4.11.63-2.9,10.43-3.29,26.33-3.59,8.22-.16,16.71-.32,18.11-1.33,0,0,.06-.27-.46-.82-5.79-6.06-47.66-22.33-98.04-14.21-8.19,1.32-16.39,3.06-24.33,5.15-.15.04-.32.02-.45-.06-.14-.08-.24-.21-.28-.37-.04-.15-.02-.32.06-.45.08-.14.21-.24.36-.28,8-2.1,16.22-3.84,24.45-5.17,52.62-8.48,97.41,9.83,99.77,15.56.13.27.17.57.09.86-.07.29-.25.54-.5.71-1.61,1.16-8.18,1.33-18.76,1.54-9.85.19-24.74.48-25.23,2.68,0,.16,0,1.02,3.71,2.83,7.48,3.66,15.44,6.26,23.65,7.69.15.03.29.11.38.23s.13.28.11.43c-.01.14-.08.28-.19.37-.11.1-.25.15-.39.15Z"/><path class="c" d="M204.95,28.8l9.94-7.51-1.44,5.26,3.85,3.85-12.35-1.6Z"/><path class="c" d="M402.33,56.63c-.14,0-.27-.05-.37-.14-.1-.09-.17-.21-.19-.35,0-.13-2.12-12.17-23.18-20.58-21.41-8.56-29.05,1.76-34.52,12.1-2.4,4.53-7.95,6.95-16.07,6.95-.08,0-.17,0-.24-.03-.08-.03-.15-.07-.21-.12-.06-.05-.11-.12-.15-.19-.04-.07-.06-.15-.06-.24,0-.15.06-.3.17-.41.11-.11.26-.17.41-.17,5.38,0,12.36-1.07,15.13-6.29,6.13-11.59,14.73-21.14,35.98-12.64,21.69,8.68,23.78,20.96,23.85,21.48.01.07.01.15,0,.22s-.05.14-.09.2c-.04.06-.1.11-.17.15-.06.04-.14.06-.21.07l-.06-.02Z"/><path class="c" d="M319.77,53.3l11.84-3.87-3.07,4.51,2.39,4.89-11.16-5.53Z"/><path class="c" d="M395.05,226.78c-6.4.11-12.61-2.2-17.38-6.47-.06-.05-.1-.12-.13-.19-.03-.07-.05-.14-.05-.22s.02-.15.05-.22c.03-.07.07-.13.13-.18.05-.06.11-.11.18-.14.07-.03.14-.05.22-.06.08,0,.15,0,.22.03.07.02.14.06.19.11,8.33,7.33,19.31,8.11,33.6,2.41,18.61-7.44,22.47-24.34,21.9-32.19-.34-4.71-2.44-5.18-5.38-5.79-2.37-.29-4.57-1.39-6.23-3.12-.64-.63-1.11-1.39-1.4-2.24-.29-.84-.37-1.75-.24-2.63.57-3.12,4.07-6.18,11.7-10.25,5.58-2.97,9.84-10.43,11.98-20.95.02-.07.04-.15.09-.21.04-.06.1-.12.16-.16.06-.04.13-.07.21-.09.07-.01.15-.01.23,0,.15.03.28.12.36.25.08.13.12.28.09.43-2.21,10.88-6.69,18.61-12.57,21.75-7.18,3.84-10.61,6.74-11.11,9.43-.09.71,0,1.43.24,2.11.24.68.64,1.29,1.15,1.78,1.5,1.54,3.48,2.51,5.61,2.75,2.89.64,5.88,1.3,6.28,6.87.58,8.17-3.4,25.66-22.63,33.35-5.53,2.37-11.45,3.67-17.46,3.82Z"/><path class="c" d="M372.65,213.74l11.25,5.33-5.33,1.16-1.62,5.19-4.3-11.68Z"/><path class="c" d="M419.26,155.43c-1.42.08-2.82-.33-3.97-1.16-.54-.44-.94-1.04-1.15-1.7-.21-.67-.21-1.38-.01-2.05.59-2.72,3.09-4.82,5.99-7.24,6.83-5.71,16.22-13.55,8.86-36.36-9.18-28.63-23.85-30.48-34.56-31.82-1.4-.17-2.72-.35-3.95-.56-6.64-1.16-12.48-5.56-14.22-10.66-.56-1.62-.65-3.37-.27-5.04.38-1.67,1.21-3.21,2.41-4.44,2.43-2.64,5.08-3.72,7.84-3.22,4.21.78,8.34,5.28,11.05,12.06.57,1.4,1.16,3.36.06,4.18-2.09,1.53-8.84-3.73-10.86-5.38-.12-.1-.19-.24-.21-.39-.02-.15.03-.3.13-.42.05-.06.11-.11.18-.15.07-.04.14-.06.22-.07.08,0,.15,0,.23.02.07.02.14.06.2.11,3.81,3.12,8.52,6.01,9.43,5.33.06,0,.5-.45-.45-2.82-2.53-6.32-6.43-10.66-10.19-11.34-2.32-.44-4.63.53-6.78,2.86-1.07,1.06-1.82,2.41-2.16,3.88-.34,1.47-.25,3.01.26,4.44,1.6,4.72,7.08,8.78,13.33,9.88,1.16.22,2.5.38,3.88.56,10.43,1.3,26.11,3.27,35.53,32.61,7.56,23.56-2.16,31.68-9.27,37.6-2.73,2.32-5.1,4.26-5.6,6.61-.15.46-.15.95-.02,1.42.13.46.4.88.77,1.19,1.63,1.34,5.34,1.16,9-.46,2.77-1.16,11.84-6.18,12.6-18.99.73-12.46-4.03-24.07-7.86-33.4-2.66-6.49-4.76-11.59-4.51-15.46.27-4.03,2.84-7.15,5.97-7.25,2.42-.09,10.61,1.73,14.36,28.85,1.5,9.94,1.86,20.02,1.08,30.05,0,.08-.03.15-.06.22-.04.07-.08.13-.14.18-.06.05-.13.09-.2.11-.07.02-.15.03-.23.02-.08,0-.15-.03-.22-.06-.07-.04-.13-.08-.18-.14-.05-.06-.09-.13-.11-.2-.02-.07-.03-.15-.02-.23.77-9.94.4-19.93-1.08-29.78-2.84-20.57-8.56-27.81-13.02-27.81h-.14c-2.54.08-4.64,2.73-4.86,6.16-.22,3.43,1.91,8.85,4.42,14.95,3.9,9.41,8.75,21.15,8,33.89-.12,4.24-1.43,8.37-3.78,11.9-2.35,3.53-5.65,6.34-9.51,8.09-1.96.89-4.07,1.37-6.22,1.43Z"/><path class="c" d="M444.9,144.77l-3.11-12.05,4.3,3.35,5.04-2.07-6.23,10.78Z"/><path class="c" d="M47.83,370.91c-.31.03-.61-.06-.86-.25-.24-.19-.39-.48-.43-.78-.03-.31.06-.61.25-.85.19-.24.48-.39.78-.43,11.21-2.32,29.54-7.43,31.07-11,.63-1.46.76-4.11.9-6.95.34-6.85.81-16.22,9.18-18.62,6.71-1.91,16.33-.17,24.04,1.22,4.77.86,9.27,1.68,10.92,1.16,2.03-.67,5.72-6.44,8.69-11.08,3.35-5.21,6.51-10.15,9.04-11.41,1.88-.94,6.37-1.3,13.77-1.16.31,0,.6.12.82.34.22.22.34.51.34.82s-.12.6-.34.82c-.22.22-.51.34-.82.34-9.05-.23-11.82.44-12.67.87-1.97.97-5.24,6.08-8.11,10.59-4.42,6.89-7.29,11.15-9.91,12.03-2.19.73-6.55-.06-12.05-1.05-7.49-1.36-16.8-3.04-23-1.26-6.78,1.94-7.16,9.68-7.5,16.5-.16,3.15-.3,5.88-1.09,7.73-2.45,5.71-27.68,11.29-32.72,12.34-.1.06-.2.09-.31.1Z"/><path class="c" d="M171.51,312.97l-23.51,8.24,5.94-9.13-4.98-9.69,22.55,10.58Z"/><path class="c" d="M79.72,431.58c-.31.02-.61-.09-.84-.3s-.36-.49-.38-.8c-.02-.31.09-.61.3-.84.21-.23.5-.36.8-.38,6.1-.64,22.43-3.29,24.75-7.93,1.04-2.1.88-4.72.7-7.76-.3-5.13-.7-11.53,4.9-18.14,5.6-6.61,11.17-4.75,16.22-3.23,3.48,1.04,6.71,2.03,9.88.59,5.79-2.65,10.58-7.59,13.72-10.85.98-1.11,2.06-2.14,3.22-3.06,1.3-.73,2.82-.98,4.29-.71,1.46.29,2.97,0,4.22-.81,1.66-1.24,5.58-5.7,10.53-11.92.2-.21.47-.34.76-.36.29-.02.58.07.8.25.23.18.38.44.42.73.04.29-.02.58-.18.82-3.01,3.8-8.45,10.43-10.95,12.34-1.69,1.17-3.77,1.63-5.79,1.26-.96-.2-1.96-.08-2.85.35-1.01.84-1.96,1.76-2.84,2.73-3.26,3.39-8.19,8.53-14.44,11.36-3.95,1.81-7.8.65-11.51-.49-4.96-1.49-9.27-2.8-13.76,2.51-4.99,5.9-4.64,11.59-4.35,16.5.2,3.23.38,6.29-.94,8.95-3.3,6.59-24.22,8.95-26.65,9.19h-.06Z"/><path class="c" d="M185.51,355.75l-11.33,22.19-1.99-10.72-10.29-3.57,23.62-7.9Z"/><path class="c" d="M497.43,391.14c-.93,0-22.94-.83-29.35-4.84-3.3-2.07-5.48-5.6-7.59-9.02-1.97-3.19-3.84-6.2-6.26-7.24-5.25-2.25-24.42-5.33-24.61-5.37-.2-.04-5.12-.92-12.31-8.11-3.7-3.7-4.13-5.01-4.37-5.7-.19-.11-.38-.2-.58-.29-.14-.06-.26-.15-.37-.26-.1-.11-.18-.24-.24-.38s-.08-.29-.07-.45c0-.15.04-.3.1-.44.06-.14.15-.26.26-.37.11-.1.24-.19.38-.24.14-.05.29-.08.45-.07.15,0,.3.04.44.1,1.16.52,1.54.82,1.83,1.69.15.45.5,1.49,3.8,4.8,6.66,6.66,11,7.45,11.04,7.46.79.13,19.64,3.16,25.16,5.52,3.09,1.33,5.14,4.64,7.31,8.11,1.97,3.19,4,6.49,6.85,8.26,5.89,3.68,27.99,4.48,28.21,4.5.31,0,.6.12.82.34.22.22.34.51.34.82s-.12.6-.34.82c-.22.22-.51.34-.82.34l-.09.02Z"/><path class="c" d="M397.08,344.86l24.89-.94-8.37,6.98,1.9,10.73-18.42-16.77Z"/><path class="c" d="M500.54,332.8c-7.06,0-25.18-4.51-25.94-4.69h-.14l-13.74-5.34c-2.12.22-14.91,1.53-19.29,1.53-2.71,0-7.81.27-11.59.49-.15,0-.3-.01-.45-.06-.14-.05-.28-.13-.39-.23s-.21-.22-.27-.36c-.07-.14-.11-.29-.12-.44,0-.15.01-.3.06-.45.05-.14.13-.28.23-.39s.22-.21.36-.27c.14-.07.29-.11.44-.12,3.82-.22,8.97-.49,11.74-.49,4.55,0,19.18-1.54,19.33-1.55.18-.02.37,0,.54.07l13.91,5.42c1.26.31,18.75,4.63,25.32,4.63s18.4-1.53,18.54-1.54c.15-.02.31,0,.45.03.15.04.29.11.41.2.12.09.22.21.3.34.08.13.13.28.15.43.02.15,0,.31-.03.46-.04.15-.11.29-.2.41-.09.12-.21.22-.34.3-.13.08-.28.13-.43.15-6.25.82-12.53,1.31-18.83,1.47Z"/><path class="c" d="M413.42,324.64l22.41-10.88-4.86,9.76,6.06,9.05-23.62-7.93Z"/><path class="c" d="M449.98,475.14c-.19,0-.38-.05-.54-.13-.17-.09-.31-.22-.42-.37-.12-.16-10.82-16.22-16.77-19.89-6.23-3.89-18.31-14.44-18.82-14.89-.2-.18-.34-.42-.38-.68l-3.06-18.38-5.05-6.49c-.09-.12-.16-.26-.2-.41-.04-.15-.05-.3-.03-.45.02-.15.07-.3.14-.43.08-.13.18-.25.3-.34.24-.19.55-.27.85-.23.3.04.58.2.77.44l5.23,6.72c.12.15.2.33.23.52l3.05,18.26c1.96,1.7,12.68,10.94,18.2,14.39,6.36,3.98,17.01,19.9,17.46,20.57.17.26.23.57.17.87-.06.3-.24.56-.49.73-.19.13-.41.2-.64.2Z"/><path class="c" d="M397.86,399.31l19.73,15.2h-10.89l-5.4,9.47-3.44-24.67Z"/><path class="c" d="M143.5,461.14c-.17,0-.33-.03-.49-.1-.28-.13-.49-.37-.6-.66-.1-.29-.09-.61.04-.89.26-.54,6.28-13.34,9.37-18.76,1.45-2.57,2.74-5.23,3.88-7.95.99-2.25,2.11-4.81,3.87-8.32,2.02-3.8,4.67-7.23,7.82-10.16.11-.11.24-.2.38-.25.14-.06.29-.09.45-.09s.3.03.45.09c.14.06.27.15.38.25.22.22.34.51.34.82s-.12.6-.34.82c-2.96,2.75-5.45,5.97-7.37,9.53-1.73,3.48-2.84,5.99-3.81,8.23-1.18,2.8-2.51,5.52-3.99,8.17-3.06,5.34-9.27,18.45-9.27,18.54-.09.22-.24.41-.44.55-.2.13-.43.2-.67.19Z"/><path class="c" d="M178.51,402.43l-7.42,23.78-3.79-10.22-10.74-1.78,21.95-11.77Z"/><path class="h" d="M276.14,307.15l-3.45-55.36,22.4-16.94,20.33,9.94s.67,25.53,0,36.6c-.67,11.06-11.84,12.25-11.84,12.25,0,0-1.1,10.65-.6,13.56l-26.84-.05Z"/><path class="g" d="M312.23,262.76c-.07-.17-.17-.33-.31-.46-.13-.13-.29-.24-.46-.31-.17-.07-.35-.11-.54-.11s-.37.04-.54.11c-.17.07-.33.18-.46.31-.13.13-.24.29-.31.46-.07.17-.11.36-.11.54s.15.73.41,1c.26.26.62.41,1,.41s.73-.15,1-.41c.27-.26.41-.62.41-1,0-.19-.04-.37-.11-.54Z"/><path class="g" d="M313.9,261.44c-.62-.52-1.39-.82-2.19-.88-.8-.05-1.6.16-2.28.6-.5.34-.79.57-.62.78.17.21,1.33-.53,2.84-.45,1.52.09,2.57.96,2.74.79.1-.09-.05-.45-.5-.84Z"/><path class="g" d="M295.84,263.05c0-.78-.63-1.41-1.41-1.41s-1.41.63-1.41,1.41c0,.78.63,1.41,1.41,1.41s1.41-.63,1.41-1.41Z"/><path class="g" d="M297.41,261.19c-.61-.52-1.38-.83-2.19-.88-.8-.05-1.6.16-2.28.6-.5.34-.76.57-.6.78.15.21,1.29-.52,2.83-.45,1.53.07,2.57.96,2.76.78.09-.07-.05-.43-.52-.83Z"/><path class="g" d="M305.68,274.81c.22.03.44.03.65,0,.15-.03.28-.1.39-.2.11-.1.2-.22.26-.35.14-.54.08-1.1-.16-1.6-.31-1-.64-2.07-1-3.17-.78-2.75-1.75-5.44-2.91-8.05.56,2.8,1.34,5.55,2.33,8.24l1.03,3.15c.19.38.27.81.22,1.24-.09.28-.47.36-.84.36-.84,0-1.68.1-2.5.31.83.12,1.68.15,2.51.07Z"/><path class="i" d="M303.34,296.37c-11.1.45-14.42-7.68-14.42-7.68,4.31,3.02,9.4,4.74,14.66,4.96l-.24,2.72Z"/><path class="g" d="M274.43,259.38l.64,30.74c-21.55-4.6-17.04-30.12-17.04-30.12l16.4-.62Z"/><path class="g" d="M257.65,263.3l20.76,3.26s13.87-7.74,17.32-23.85c.6,3.36,1.53,10.22.26,14.54l19.73,3.08c1.85-4.41,2.14-9.31.83-13.9,1.05,2.65,1.68,5.46,1.88,8.3.33,3.84-.17,6.24,0,6.24.23-.52.38-1.07.43-1.64.25-1.53.35-3.08.29-4.63-.18-5.16-1.82-10.17-4.74-14.44-2.03-2.9-4.61-5.38-7.6-7.29-8.82-7.08-15.06-5.36-18.81-5.36-2.04.1-4.06.48-6,1.12.81-6.31,2.77-10.98,2.17-11.27-.29-.19-1.29,1.03-2.34,3.26-.49,1.04-.9,2.12-1.24,3.22-.05-.4-.15-.79-.15-1.21-.29-2.7-1.31-5.26-2.95-7.43-.26.14,1.33,3.33,2.02,7.58.2,1.21.33,2.43.38,3.65-.24-.74-.54-1.45-.91-2.14-.77-1.42-1.86-2.65-3.19-3.57-1.33-.92-2.86-1.52-4.46-1.75-1.61-.17-3.24.13-4.68.88-1.44.75-2.62,1.91-3.4,3.34-.69,1.67-.85,3.52-.47,5.29.39,1.77,1.3,3.38,2.62,4.62,1.1,1.06,2.4,1.9,3.82,2.46l-1.02.28c-2.17.71-4.19,1.81-5.96,3.26-1.36,1.15-2.15,1.93-1.72,2.34.43.41,2.5-.88,5.6-2.17-3.51,4.39-6.03,9.49-7.37,14.96-.45,1.69-.79,7.08-1.09,8.96Z"/><path class="e" d="M367.36,501.11c.64.31,51.53,10.34,49.65,3.45-1.88-6.89-49.21-17.71-49.21-17.71l-.45,14.27Z"/><path class="g" d="M390.5,496.61c.24,0,.6,1.17.59,2.71-.02,1.53-.38,2.74-.62,2.7-.24-.03-.29-1.24-.28-2.7.02-1.46.07-2.69.31-2.71Z"/><path class="g" d="M387.79,495.68c.22,0,.67,1.36.5,3.15-.17,1.79-.81,3.1-1.03,3.02-.22-.09,0-1.43.14-3.1s.14-3.03.4-3.07Z"/><path class="g" d="M384.5,495.41c.24,0,.59,1.34.62,3.07.04,1.72-.26,3.1-.5,3.08-.24-.02-.36-1.38-.4-3.07-.03-1.69.04-3.07.28-3.08Z"/><path class="g" d="M378.3,490.43c.27-.01.54.01.79.09.52,0,1.28.24,2.24.46,1.95.41,4.76,1.09,8.18,2.03,3.43.95,7.49,2.14,11.94,3.65,2.22.76,4.58,1.53,6.89,2.55,2.5,1.01,4.8,2.46,6.79,4.29.31.25.56.56.74.91.11.25.13.53.05.79-.08.26-.25.49-.48.64-.66.35-1.41.51-2.15.47-1.33.1-2.64.15-3.91.19-2.57,0-5.05,0-7.41-.19-4.7-.29-8.91-.88-12.42-1.43-3.51-.55-6.34-1.1-8.29-1.5l-2.24-.47c-.27-.04-.53-.11-.78-.22,1.03.03,2.06.15,3.07.35l8.32,1.21c3.45.48,7.72,1,12.39,1.26,2.34.12,4.79.19,7.34.12,1.26,0,2.57-.09,3.86-.19.59.03,1.18-.08,1.72-.33.15-.12.17-.19.12-.34-.14-.23-.32-.44-.53-.62-1.91-1.75-4.12-3.15-6.53-4.12-2.31-1-4.65-1.72-6.89-2.58-4.43-1.53-8.46-2.81-11.85-3.83-3.39-1.02-6.18-1.72-8.1-2.31-.97-.23-1.93-.52-2.86-.88Z"/><path class="g" d="M405.33,497.99c.24.09-.26,2.02,0,4.39.26,2.38.91,4.22.67,4.34-.92-1.25-1.46-2.73-1.57-4.28-.11-1.55.23-3.09.97-4.45h-.07Z"/><path class="e" d="M199.11,491.03c-.71,0-52.07,7.08-48.09,12.85,3.98,5.77,52.29.71,52.29.71l-4.2-13.56Z"/><path class="g" d="M178.61,502.83c-.21.1-.95-.93-1.43-2.38-.48-1.45-.47-2.69-.29-2.69s.67,1.09,1.14,2.48c.47,1.4.81,2.46.59,2.58Z"/><path class="g" d="M181.48,502.81c-.21.12-1.09-1.07-1.52-2.81-.43-1.74-.24-3.2,0-3.2s.47,1.36.88,2.98c.41,1.62.86,2.91.64,3.03Z"/><path class="g" d="M184.67,502c-.22.1-.98-1.09-1.59-2.71-.6-1.62-.78-3.01-.53-3.08.24-.07.79,1.21,1.38,2.77s.96,2.91.74,3.02Z"/><path class="g" d="M192.21,504.66c-.25.1-.51.15-.78.17l-2.27.29c-1.98.24-4.84.52-8.39.74-3.55.22-7.79.41-12.49.45-2.36,0-4.82,0-7.41-.15-2.69-.12-5.34-.74-7.8-1.83-.38-.13-.72-.35-1.02-.62-.17-.21-.26-.47-.26-.74s.09-.53.26-.74c.51-.55,1.16-.95,1.88-1.15,1.22-.53,2.43-1,3.64-1.46,2.41-.88,4.79-1.6,7.06-2.24,4.55-1.26,8.72-2.07,12.22-2.69,3.5-.62,6.36-1.03,8.32-1.29l2.27-.29c.26-.04.53-.04.79,0-.99.3-1.99.53-3.02.67l-8.25,1.57c-3.45.71-7.62,1.59-12.06,2.86-2.26.65-4.6,1.38-6.89,2.27-1.19.46-2.39.93-3.6,1.45-.56.16-1.08.46-1.5.86-.1.17-.1.22,0,.36.22.18.46.32.72.41,2.37,1.02,4.91,1.61,7.49,1.72,2.52.21,5,.19,7.34.21,4.69,0,8.91-.1,12.46-.24,3.55-.14,6.41-.34,8.39-.46.96-.1,1.93-.14,2.89-.12Z"/><path class="g" d="M164.15,506.38c-.28,0-.41-1.98-1.38-4.17-.96-2.19-2.24-3.7-2.05-3.88.19-.17,1.88,1.12,2.88,3.45.77,1.41.97,3.05.55,4.6Z"/><path class="j" d="M358.36,428.68h-26.14l-96.49,2.5-27.57-3.57c-4.29-.95-7.12-1.34-8.03-1.05-3.7,1.54-6.95,4.01-9.42,7.17-10.51,12.54-3.89,31.88,11.92,36.18l14.85,4.03-32.5,10.44,10.98,31.15s48.52-10.49,95.57-21.57l75.29,20.36,10.85-34.96-12.77-4.15c8.01-2.45,13.08-4.38,13.78-5.55,4.74-7.34,13.13-41.47-20.47-40.95"/><path class="f" d="M364.51,475.33l-55.96,23.17-16.92-4.58,72.88-18.59Z"/><path class="f" d="M217.73,431.29l71.64,20.52,54.57-18.61-126.21-1.91Z"/><path class="g" d="M207.53,513.27c-.91-1.42-1.68-2.92-2.29-4.5-1.27-2.84-2.93-6.89-4.55-11.3-1.62-4.41-2.95-8.62-3.79-11.58-.55-1.59-.93-3.24-1.15-4.91.7,1.52,1.28,3.1,1.72,4.72,1,2.95,2.39,7.01,4.01,11.46,1.62,4.44,3.19,8.46,4.31,11.35.7,1.54,1.28,3.13,1.74,4.75Z"/><path class="g" d="M380.24,440.29c-.14.08-.29.15-.45.19l-1.34.5-5.17,1.83-19.11,6.49c-16.21,5.41-38.65,12.73-63.51,20.54-24.86,7.81-47.47,14.61-63.85,19.43l-19.44,5.62-5.29,1.46-1.4.36c-.16.05-.32.08-.48.09l.47-.17,1.36-.45,5.17-1.64,19.35-5.89c16.35-4.96,38.9-11.87,63.75-19.68,24.85-7.8,47.31-15.02,63.56-20.28l19.26-6.22,5.26-1.72,1.36-.41c.16-.04.33-.06.5-.05Z"/><path class="g" d="M328.07,439.03c-.35.2-.72.35-1.1.46l-3.21,1.17c-2.79,1-6.89,2.41-11.89,4.12-10.06,3.45-24,7.99-39.42,12.94-15.42,4.95-29.45,9.3-39.63,12.37-5.17,1.53-9.22,2.74-12.06,3.55l-3.29.91c-.38.11-.78.2-1.17.26.36-.19.73-.33,1.12-.43l3.24-1.07,12.06-3.82,39.52-12.61,39.49-12.7,11.97-3.84,3.27-1.02c.35-.14.71-.23,1.09-.29Z"/><path class="g" d="M289.01,451.69c0,.24-16.08-4.14-35.77-9.77-19.69-5.63-35.58-10.34-35.51-10.63.07-.29,16.08,4.13,35.75,9.77,19.68,5.63,35.6,10.39,35.53,10.63Z"/><path class="g" d="M367.25,476.99c-1.76,5.82-3.82,11.54-6.17,17.14-3.63,9.37-6.77,16.89-6.99,16.8,1.76-5.81,3.82-11.53,6.17-17.13,3.64-9.37,6.77-16.9,6.99-16.82Z"/><path class="g" d="M360.53,491.43c-4.75-.82-9.45-1.92-14.08-3.29-4.68-1.1-9.28-2.5-13.78-4.17,4.75.82,9.45,1.92,14.08,3.29,4.68,1.11,9.28,2.5,13.78,4.17Z"/><path class="g" d="M253.36,462.86c-.9-.11-1.79-.29-2.67-.53l-7.2-1.72c-6.06-1.55-14.46-3.65-23.6-6.41-7.84-2.3-15.53-5.12-23-8.43-2.84-1.31-5.17-2.45-6.65-3.29-.82-.39-1.61-.85-2.34-1.4.86.3,1.69.66,2.5,1.09,1.59.74,3.88,1.72,6.75,3.01,7.52,3.12,15.2,5.84,23,8.15,9.13,2.76,17.49,4.95,23.52,6.65l7.12,2.05c.89.19,1.75.46,2.58.83Z"/><path class="e" d="M306.33,305.67h-2.12l-.31-7.34-29.1,1.72s.29,3.45.28,5.84c-17.92,1.72-46.64,10.92-47.33,51.26l22.98.53c-1.95,18.5-1.72,29.55-3.6,36.49-3.2,11.48-13.35,35.7-11.32,36.92,2.03,1.22,96.35,2.96,100.85.52,4.5-2.45-3.69-34.06-5.74-42.64-1.29-5.48-1.57-18.02-1.6-27.72l26.4-1.19s1.91-54.55-49.38-54.39Z"/><path class="g" d="M304.05,305.38c-1.39.41-2.82.65-4.27.72-2.67.31-6.36.6-10.44.69-4.08.09-7.77,0-10.44-.24-1.45-.02-2.9-.21-4.31-.55,1.43-.17,2.88-.2,4.32-.09h10.34c4,0,7.74-.28,10.34-.41,1.48-.18,2.98-.22,4.46-.12Z"/><path class="g" d="M280.09,299.81c.26,0,.45,1.41.45,3.15s-.19,3.17-.45,3.17-.45-1.41-.45-3.17.12-3.15.45-3.15Z"/><path class="g" d="M287.79,299.26c.24,0,.48,1.55.53,3.45.16,1.16.04,2.34-.34,3.45-.26,0-.5-1.55-.55-3.45-.16-1.16-.04-2.34.36-3.45Z"/><path class="g" d="M295.82,298.99c.24,0,.59,1.52.62,3.45.03,1.93-.22,3.45-.48,3.45-.38-1.11-.52-2.28-.41-3.45.05-1.86.05-3.43.27-3.45Z"/><path class="g" d="M301.64,298.71c.26,0,.43,1.52.67,3.36.24,1.84.43,3.36.19,3.45-.24.09-.84-1.4-1.07-3.33s-.03-3.5.21-3.48Z"/><path class="g" d="M254.36,357.26c-.46-2.85-.64-5.73-.52-8.62-.18-2.88-.06-5.76.38-8.61.45,2.85.63,5.73.52,8.61.16,2.88.03,5.76-.38,8.62Z"/><path class="g" d="M328.33,360.14c-.7-3.06-1.11-6.17-1.24-9.3-.41-3.11-.52-6.26-.33-9.39,1.11,6.17,1.63,12.43,1.57,18.69Z"/><path class="g" d="M254.37,357.26c-1.31.17-2.64.21-3.96.12h-19c-1.32.09-2.64.05-3.95-.12,1.28-.33,2.6-.5,3.93-.5,2.43-.19,5.81-.33,9.53-.31,3.72.02,7.1.14,9.53.33,1.32,0,2.64.17,3.93.48Z"/><path class="g" d="M355.66,360.14c-4.67.45-9.36.6-14.04.45-4.69.16-9.39,0-14.06-.45,4.67-.44,9.37-.59,14.06-.45,4.69-.15,9.38,0,14.04.45Z"/><path class="h" d="M354.5,360.36s6.89,64.32-12.82,70.64c-19.71,6.32-58.58-23.62-58.58-23.62l11.2-22.67s25.84,17.95,31.43,13.9c5.58-4.05,2.67-38.25,2.67-38.25h26.1Z"/><path class="h" d="M228.07,357.26s-7.01,63.66,12.68,70c19.69,6.34,58.58-23.64,58.58-23.64l-11.22-22.67s-26,16.63-31.39,12.42c-3.12-2.45-3.21-35.79-3.21-35.79-9.17-.4-17.66-.79-25.45-.33Z"/><path class="g" d="M342.23,370.52l-13.08,64.09s-80.36-.62-81.19-.86c-.83-.24-8.61-63.23-8.61-63.23h102.88Z"/><path class="d" d="M284.51,403c-.07.96.16,1.93.65,2.76.49.83,1.22,1.5,2.09,1.92.87.42,1.85.56,2.81.41.96-.15,1.85-.58,2.55-1.24.71-.66,1.2-1.52,1.41-2.46.21-.94.14-1.93-.21-2.83-.35-.9-.97-1.67-1.77-2.22-.8-.55-1.74-.84-2.71-.84-1.24-.04-2.43.41-3.34,1.26-.9.84-1.44,2.01-1.49,3.24Z"/><path class="h" d="M277.36,271.9c-.89.54-1.95.76-2.98.62-1.04-.14-1.99-.63-2.71-1.4-.68-.79-1.17-1.73-1.43-2.75-.25-1.01-.27-2.08-.03-3.1.18-1.26.83-2.41,1.83-3.2.78-.36,1.63-.52,2.48-.47.85.05,1.68.31,2.41.76"/><path class="b" d="M273.24,270.04c-.59-.3-1.07-.77-1.38-1.35-.32-.58-.45-1.23-.39-1.89.06-.65.32-1.28.73-1.78.42-.51.98-.88,1.61-1.07.96-.24,1.53.02,1.52.16-.02.14-.57.12-1.29.47-.45.21-.84.53-1.12.94s-.46.88-.51,1.37c-.03.5.07,1,.29,1.45.23.45.57.83.99,1.1.64.48,1.19.57,1.19.71,0,.19-.62.28-1.62-.1Z"/><path class="g" d="M300.69,282.32c.18.2,1.43-1.03,3.38-.83,1.94.2,3.13,1.66,3.3,1.5.1-.06-.05-.54-.59-1.11-.71-.74-1.67-1.21-2.69-1.32-.98-.11-1.97.17-2.75.78-.56.45-.74.9-.65.98Z"/></svg>