<?xml version="1.0" encoding="UTF-8"?>
<svg id="a" data-name="Layer 1" xmlns="http://www.w3.org/2000/svg" viewBox="0 0 566.9291 566.9291">
  <defs>
    <style>
      .b {
        fill: #e30613;
      }

      .b, .c, .d, .e, .f, .g, .h, .i, .j, .k, .l, .m, .n, .o {
        stroke-width: 0px;
      }

      .c {
        fill: #e0e0e0;
      }

      .d {
        fill: #f5f5f5;
      }

      .e {
        opacity: .9;
      }

      .e, .h, .i, .k {
        fill: #fafafa;
      }

      .e, .h, .k {
        isolation: isolate;
      }

      .f {
        fill: #fff;
      }

      .g {
        fill: #09f;
      }

      .h {
        opacity: .4;
      }

      .j {
        fill: #263238;
      }

      .k {
        opacity: .7;
      }

      .l {
        fill: #ebebeb;
      }

      .m {
        fill: #ffbe9d;
      }

      .n {
        fill: #eb996e;
      }

      .o {
        fill: #455a64;
      }
    </style>
  </defs>
  <path class="i" d="M271.0246,103.9648l-106.9704,40.7624,32.5895,85.5224,106.9704-40.7621-32.5895-85.5227Z"/>
  <path class="c" d="M271.0222,103.9539s-.169.076-.5066.2026l-1.4938.5825-5.791,2.2285-21.8717,8.3823-77.247,29.5448.1014-.2279,32.6257,85.5026-.245-.1181,106.9777-40.7381-.0926.2112c-9.7835-25.7887-17.9041-47.1537-23.5683-62.0865-2.8279-7.479-5.065-13.3374-6.5676-17.3386-.7511-2.0006-1.3253-3.5369-1.6883-4.5752-.363-1.0383-.5825-1.5785-.5825-1.5785,0,0,.2111.5149.608,1.5363l1.7388,4.5246,6.6352,17.2795,23.7118,62.1708.0588.1519-.1519.0593-106.9606,40.7547-.1774.0676-.0759-.1774-32.5415-85.528-.0676-.1604.1602-.0676,77.3906-29.3844,21.8717-8.281,5.7739-2.1779,1.4772-.5571.4982-.2026Z"/>
  <path class="d" d="M269.2535,110.9085l-99.4607,37.9009,28.4863,74.7556,99.4607-37.9009-28.4863-74.7556Z"/>
  <path class="l" d="M198.7304,223.4582l17.0262-59.7059,32.6008,20.8673,8.6694-21.1034,41.1599,22.0319-99.4563,37.9102Z"/>
  <path class="l" d="M244.238,146.4053c.5909,1.5492.7094,3.239.34,4.8554-.3689,1.6165-1.2097,3.0872-2.4149,4.2258-1.2052,1.1391-2.7211,1.8946-4.356,2.1719-1.6349.2768-3.3149.0632-4.8283-.6149-1.5129-.6781-2.7912-1.7897-3.6726-3.1944-.8814-1.4045-1.3263-3.039-1.2787-4.6964.048-1.6575.586-3.2636,1.5467-4.6151.9608-1.3515,2.3007-2.3877,3.8504-2.9777,1.0279-.3925,2.1234-.5786,3.2233-.5474,1.1004.0311,2.1831.2788,3.1875.7288,1.0044.45,1.9103,1.0935,2.6657,1.8938.755.8003,1.3454,1.7416,1.7368,2.7702Z"/>
  <path class="i" d="M532.0158,234.562l-104.1959,27.1992,21.7452,83.3021,104.194-27.1987-21.7433-83.3026Z"/>
  <path class="c" d="M532.0109,234.5586l-.4948.1352-1.4551.3885-5.6441,1.4938-21.3073,5.6053-75.2554,19.736.1181-.2028c6.475,24.7922,13.9034,53.1809,21.7619,83.2914l-.2278-.1269,104.2086-27.1728-.1078.1774c-6.5259-25.1047-11.9299-45.9211-15.7122-60.4658l-4.3653-16.8827c-.4948-1.9499-.8427-3.4354-1.1367-4.4486-.2939-1.0132-.387-1.5364-.387-1.5364,0,0,.142.4983.4017,1.4943.2646.996.6614,2.4815,1.1759,4.4148,1.019,3.8832,2.533,9.5723,4.429,16.8322,3.8264,14.553,9.2891,35.386,15.8885,60.5162v.1519h-.142l-104.1513,27.2742-.1774.0505-.0421-.1774c-7.8507-30.0849-15.262-58.507-21.7281-83.2992l-.0421-.1607h.1602l75.3902-19.5925,21.2975-5.5206,5.6244-1.4434,1.4404-.3714.4801-.1607Z"/>
  <path class="l" d="M529.6592,240.7857l-96.8787,25.289,19.0075,72.8151,96.8758-25.289-19.0046-72.8151Z"/>
  <path class="c" d="M451.7865,338.8775l22.0236-54.0927,28.3545,22.8427,10.2588-18.8497,36.2356,24.8093-96.8724,25.2904Z"/>
  <path class="c" d="M502.215,271.4477c.3939,1.5095.3312,3.1013-.1798,4.5745-.511,1.4737-1.4473,2.7627-2.6912,3.7039-1.2435.9407-2.7382,1.4923-4.2953,1.5835-1.557.0916-3.1057-.2807-4.451-1.0695-1.3454-.7888-2.4266-1.9592-3.1067-3.3629-.68-1.4032-.9284-2.9768-.7143-4.5216.2146-1.5448.8824-2.9915,1.9186-4.1566,1.0367-1.1656,2.3958-1.997,3.9048-2.3899,1.0019-.2631,2.0455-.3258,3.0714-.1842,1.0259.1411,2.0137.4836,2.9068,1.0073.8936.5237,1.6746,1.2189,2.2983,2.0455.6242.8265,1.0788,1.7677,1.3385,2.7701Z"/>
  <path class="i" d="M300.1714,142.2331l-17.9292,84.2063,105.3257,22.4258,17.9297-84.2061-105.3262-22.426Z"/>
  <path class="c" d="M405.4936,164.6557l-.5066-.1014-1.4688-.3038-5.7151-1.1901-21.5591-4.55-76.1075-16.1231.1857-.1182c-5.3266,25.0626-11.438,53.7967-17.9042,84.2026l-.1435-.2195,105.3399,22.4625-.1774.1186c5.4363-25.3752,9.9359-46.4277,13.0842-61.0905,1.5869-7.3524,2.8279-13.118,3.6721-17.0517l.971-4.4907.3459-1.5448s-.0926.5149-.3038,1.5193c-.2112,1.0049-.5238,2.5325-.9373,4.4741-.8441,3.9254-2.0342,9.6909-3.5873,17.0262l-12.9495,61.2169v.1519h-.1431l-105.3908-22.4454h-.1774v-.1774c6.4828-30.3892,12.6031-59.1405,17.9463-84.1943v-.1604h.1607l76.175,16.3003,21.5086,4.6176,5.6725,1.2322,1.4517.3209.5575.1181Z"/>
  <path class="l" d="M302.6778,148.3076l-15.672,73.6049,97.9282,20.8511,15.672-73.6048-97.9282-20.8511Z"/>
  <path class="c" d="M287.0019,221.9139l43.9457-38.476,15.0934,33.1406,17.6254-12.2484,21.2641,38.4339-97.9286-20.8502Z"/>
  <path class="c" d="M362.2902,184.2648c-.3248,1.5252-1.0945,2.92-2.2116,4.0077-1.1175,1.0877-2.5325,1.8201-4.0655,2.1038-1.5335.2837-3.1165.1058-4.549-.51-1.4326-.6158-2.6501-1.6432-3.4991-2.9514-.8486-1.3076-1.2905-2.8382-1.2699-4.3977.0211-1.559.5041-3.0773,1.3875-4.3619.8839-1.2846,2.1288-2.2787,3.5775-2.8558,1.4482-.5776,3.0357-.7124,4.5608-.3875,2.045.4356,3.8337,1.6658,4.9719,3.4197,1.1381,1.754,1.533,3.8881,1.0974,5.9331Z"/>
  <path class="i" d="M461.0943,311.5891l-11.9956,65.4876,81.9176,15.0057,11.9985-65.4876-81.9205-15.0057Z"/>
  <path class="c" d="M543.0394,326.6036l-.3969-.0588-1.1415-.2028-4.4486-.8442-16.7656-3.0386-59.1895-10.78.1435-.1009c-3.5623,19.5332-7.6567,41.8777-12.0039,65.5302l-.1181-.1602,81.8828,15.0341-.1372.0926c3.6402-19.7272,6.6632-36.0866,8.7698-47.508,1.0583-5.7234,1.8911-10.2058,2.4595-13.2615.2841-1.5276.5046-2.701.6467-3.4947.147-.7932.2401-1.2072.2401-1.2072l-.2058,1.1905c-.1421.7849-.3527,1.9499-.6222,3.4692-.5487,3.0557-1.362,7.5381-2.4007,13.2444l-8.6326,47.6094v.1186h-.1176l-81.8828-14.9837h-.1352v-.1436c4.3389-23.6359,8.4416-45.997,12.0122-65.4798v-.1264h.1264l59.2429,10.9148,16.7313,3.0979,4.4143.8442,1.1219.2107.4067.0338Z"/>
  <path class="d" d="M463.1619,316.2234l-10.4856,57.2425,76.1647,13.9519,10.4846-57.2425-76.1638-13.9519Z"/>
  <path class="l" d="M452.6973,373.4791l33.124-30.7013,12.4007,25.2733,13.3537-9.8511,17.2898,29.2408-76.1682-13.9616Z"/>
  <path class="l" d="M510.0912,342.7186c-.2205,1.1852-.7839,2.2787-1.6217,3.1429-.8427.8642-1.9205,1.4605-3.0964,1.7123-1.1807.2523-2.4056.1494-3.5265-.2954-1.12-.4449-2.0827-1.2121-2.7672-2.2042-.6839-.9921-1.0587-2.1645-1.0769-3.3698-.0176-1.2047.3219-2.3879.9765-3.4001.6546-1.0117,1.5942-1.8069,2.7005-2.285,1.1063-.4777,2.3316-.6173,3.5172-.3998.7839.144,1.5384.4424,2.2096.877.6712.4351,1.2542.9985,1.7099,1.6574.4507.6594.7741,1.4022.9407,2.1851.1666.7834.1764,1.5918.0343,2.3796Z"/>
  <path class="i" d="M110.7312,279.8501l-82.255,13.0426,10.4264,65.7556,82.2549-13.0425-10.4263-65.7556Z"/>
  <path class="c" d="M110.7376,279.855l-.3969.0676-1.1484.1945-4.4569.7173-16.7896,2.7015-59.4529,9.4793.1013-.1431c3.1064,19.5754,6.6687,42.0124,10.442,65.7497l-.1604-.1181,82.2611-13.0166-.1009.1347c-3.115-19.8203-5.6979-36.2473-7.5043-47.7275-.8951-5.7484-1.604-10.248-2.0852-13.3287-.2366-1.5281-.4135-2.7098-.5404-3.5035-.1264-.7932-.1774-1.2155-.1774-1.2155,0,0,.0676.3968.1945,1.1817.1264.7854.3204,1.9588.5737,3.4864.4894,3.0645,1.2155,7.5553,2.1356,13.287,1.8319,11.4968,4.4658,27.941,7.5974,47.7863v.1097h-.1181l-82.1939,13.093h-.1351v-.1435c-3.7564-23.7457-7.3102-46.1832-10.4082-65.7586v-.1264h.1182l59.5117-9.37,16.8067-2.6339,4.4403-.6839,1.1396-.1769.3464-.0426Z"/>
  <path class="d" d="M108.4452,284.4516l-76.4772,12.1269,9.1137,57.4767,76.4773-12.1264-9.1138-57.4772Z"/>
  <path class="l" d="M41.0786,354.0635l21.0442-39.9615,20.0908,19.7277,9.3274-13.726,26.0082,21.8384-76.4705,12.1215Z"/>
  <path class="l" d="M84.3169,309.8773c1.6236-2.9484.5497-6.6553-2.3987-8.2789-2.9484-1.6236-6.6553-.5492-8.2789,2.3992-1.6236,2.9484-.5492,6.6548,2.3992,8.2784,2.9484,1.6236,6.6548.5497,8.2784-2.3987Z"/>
  <path class="g" d="M524.8873,402.9139c-1.0141.0833-1.9989.3689-2.9004.8402-.8966.4713-1.6952,1.1185-2.3418,1.9029-1.2836,1.5835-2.1851,3.4408-2.6309,5.428-.9897,3.7985-.3234,8.2642.7888,12.0289,4.086-1.5026,6.5847-5.9091,7.7116-8.2133,1.7687-3.6466,2.7681-11.3283-.6271-11.9867Z"/>
  <path class="g" d="M511.9383,427.7565c.6075-.9608.9505-2.0646.9897-3.2002.0441-1.1352-.2107-2.2616-.7447-3.2659-.5487-.9941-1.2934-1.8686-2.1851-2.5731-.8868-.704-1.9107-1.2238-3.0082-1.5291-.485-.1916-1.0093-.2758-1.5335-.2469-.5193.0294-1.0338.171-1.4943.4155-.387.3028-.6908.7031-.8721,1.1597-.1818.4571-.2396.9539-.1666,1.4404.1617.9705.5732,1.8813,1.2003,2.6422,2.0234,2.6844,4.4633,4.9042,7.8145,5.1575Z"/>
  <path class="j" d="M511.9383,439.6673c.2205-.6183.3968-1.2498.534-1.8906.3968-2.4477.4605-4.9381.1911-7.4034-.289-2.4938-1.2444-4.8631-2.7779-6.8542-.4654-.5909-1.0093-1.1215-1.6119-1.5786-.2107-.1832-.4508-.3317-.7055-.439.7447.6796,1.4404,1.4159,2.0773,2.2032,1.411,1.998,2.3027,4.3207,2.5819,6.7533.2597,2.4306.2401,4.8837-.0588,7.3103"/>
  <path class="j" d="M511.9236,439.7354c.3185-.8951.7398-2.0685,1.2542-3.478,1.0632-2.9377,2.533-6.9977,4.2232-11.4547,1.6854-4.4574,3.2679-8.4416,4.4143-11.3792.5585-1.4012,1.0142-2.5325,1.3571-3.4442.1862-.4145.3332-.8437.4508-1.2831-.2352.3885-.441.7947-.6075,1.216-.3626.8015-.8476,1.9583-1.4894,3.3761-1.2199,2.8788-2.8416,6.8797-4.5319,11.3371-1.6854,4.4569-3.116,8.5425-4.1008,11.5139-.4899,1.4772-.8476,2.6844-1.1317,3.5202"/>
  <path class="g" d="M516.3967,432.0111c1.2101-2.0675,2.8906-3.8176,4.914-5.1046,2.0185-1.2875,4.3164-2.0754,6.7023-2.2988,1.215-.1009,2.675.0847,3.2237,1.1734.5487,1.0891-.1518,2.3806-.9701,3.284-1.7392,1.8593-3.9832,3.1625-6.4622,3.7455-2.4742.5825-5.066.4189-7.4519-.4703"/>
  <path class="j" d="M526.215,427.8917c-.2645-.0368-.534-.0368-.7937,0-.3087.0132-.6124.05-.9162.1097-.4066.0608-.8084.145-1.2052.2533-1.0338.2631-2.043.6306-3.0033,1.0975-1.1759.5801-2.288,1.2846-3.312,2.1018-1.0141.8344-1.9352,1.7736-2.7485,2.8024-.6565.8466-1.2199,1.7574-1.6903,2.7182-.2107.4052-.3479.7937-.4899,1.1313-.1176.2739-.2156.5561-.2939.8441-.1421.4895-.0441.6668,0,.6751.0392.0088.2352-.9539,1.0778-2.5325.4851-.9176,1.0534-1.7902,1.6903-2.6079,1.6021-2.0087,3.6157-3.6471,5.9086-4.8033.9357-.4747,1.9107-.8643,2.9102-1.1651,1.7491-.4557,2.871-.5316,2.8661-.6247Z"/>
  <path class="j" d="M549.4771,439.6678c0,.1264-120.0947.2195-268.2157.2195s-268.2334-.0931-268.2334-.2195,120.0703-.2195,268.2334-.2195,268.2157.1014,268.2157.2195Z"/>
  <path class="g" d="M478.4606,175.469H115.0676c-6.9184,0-12.5271,5.6088-12.5271,12.5271v238.7731c0,6.9184,5.6088,12.5272,12.5271,12.5272h363.3929c6.9189,0,12.5271-5.6088,12.5271-12.5272v-238.7731c0-6.9184-5.6083-12.5271-12.5271-12.5271Z"/>
  <path class="g" d="M299.7823,427.1495h176.8213v-239.533h-176.8213v239.533Z"/>
  <path class="e" d="M299.7823,427.1495h176.8213v-239.533h-176.8213v239.533Z"/>
  <path class="g" d="M301.2086,427.1495h12.7887v-239.533h-12.7887v239.533Z"/>
  <path class="k" d="M301.2086,427.1495h12.7887v-239.533h-12.7887v239.533Z"/>
  <path class="g" d="M294.7679,188.4435H113.2275v239.5325h181.5404v-239.5325Z"/>
  <path class="e" d="M294.7679,188.4435H113.2275v239.5325h181.5404v-239.5325Z"/>
  <path class="g" d="M294.7679,188.4435h-13.1264v239.5325h13.1264v-239.5325Z"/>
  <path class="k" d="M294.7679,188.4435h-13.1264v239.5325h13.1264v-239.5325Z"/>
  <path class="j" d="M309.5237,413.7272c-.3038,1.2072-5.7146.8442-12.2229,1.1229-6.5088.2783-11.8775.9789-12.2655-.2028-.169-.5737,1.0044-1.5276,3.1821-2.4139,5.7572-2.1327,12.0455-2.3693,17.9468-.6756,2.2366.7516,3.4859,1.5957,3.3595,2.1694Z"/>
  <path class="j" d="M309.5237,399.647c-.3038,1.2155-5.7146.8442-12.2229,1.1313-6.5088.2871-11.8775.9789-12.2655-.2111-.169-.5654,1.0044-1.5281,3.1821-2.4144,5.7592-2.1238,12.0455-2.3576,17.9468-.6668,2.2366.6923,3.4859,1.5619,3.3595,2.1611Z"/>
  <path class="j" d="M309.5237,385.5247c-.3038,1.2155-5.7146.8441-12.2229,1.1312-6.5088.2866-11.8775.9706-12.2655-.2111-.169-.5659,1.0044-1.5281,3.1821-2.4144,5.7572-2.1327,12.0455-2.3693,17.9468-.6751,2.2366.7261,3.4859,1.5869,3.3595,2.1695Z"/>
  <path class="j" d="M309.5237,371.4272c-.3038,1.2072-5.7146.8442-12.2229,1.1229-6.5088.2788-11.8775.9794-12.2655-.2028-.169-.5737,1.0044-1.5276,3.1821-2.4139,5.7572-2.1327,12.0455-2.3694,17.9468-.6756,2.2366.7178,3.4859,1.5874,3.3595,2.1694Z"/>
  <path class="j" d="M309.5237,357.322c-.3038,1.2155-5.7146.8442-12.2229,1.1313-6.5088.2866-11.8775.9789-12.2655-.2112-.169-.5659,1.0044-1.5281,3.1821-2.4061,5.7572-2.1327,12.0455-2.3693,17.9468-.6751,2.2366.7173,3.4859,1.5869,3.3595,2.1611Z"/>
  <path class="j" d="M309.5237,343.2247c-.3038,1.2155-5.7146.8442-12.2229,1.1313-6.5088.2871-11.8775.9789-12.2655-.2112-.169-.5654,1.0044-1.5276,3.1821-2.4144,5.7572-2.1361,12.047-2.3698,17.9468-.6668,2.2366.7178,3.4859,1.5869,3.3595,2.1611Z"/>
  <path class="j" d="M309.5237,329.1273c-.3038,1.2072-5.7146.8442-12.2229,1.1313-6.5088.2871-11.8775.9711-12.2655-.2107-.169-.5659,1.0044-1.5281,3.1821-2.4144,5.7572-2.1327,12.0455-2.3693,17.9468-.6751,2.2366.7173,3.4859,1.5869,3.3595,2.1689Z"/>
  <path class="j" d="M309.5237,315.0304c-.3038,1.2072-5.7146.8442-12.2229,1.1229-6.5088.2783-11.8775.9789-12.2655-.2028-.169-.5737,1.0044-1.5276,3.1821-2.4144,5.7572-2.1322,12.0455-2.3688,17.9468-.6751,2.2366.6839,3.4859,1.5869,3.3595,2.1694Z"/>
  <path class="j" d="M309.5237,300.9252c-.3038,1.2155-5.7146.8442-12.2229,1.1313-6.5088.2871-11.8775.9789-12.2655-.2112-.169-.5654,1.0044-1.5281,3.1821-2.4144,5.7592-2.1239,12.0455-2.3576,17.9468-.6668,2.2366.7178,3.4859,1.5869,3.3595,2.1611Z"/>
  <path class="j" d="M309.5237,286.8283c-.3038,1.2155-5.7146.8442-12.2229,1.1308-6.5088.2871-11.8775.971-12.2655-.2107-.169-.5659,1.0044-1.5281,3.1821-2.4144,5.7572-2.1327,12.0455-2.3693,17.9468-.6751,2.2366.7256,3.4859,1.5869,3.3595,2.1694Z"/>
  <path class="j" d="M309.5237,272.7309c-.3038,1.2072-5.7146.8442-12.2229,1.1229-6.5088.2783-11.8775.9789-12.2655-.2028-.169-.5737,1.0044-1.5276,3.1821-2.4139,5.7572-2.1327,12.0455-2.3693,17.9468-.6756,2.2366.7178,3.4859,1.6207,3.3595,2.1694Z"/>
  <path class="j" d="M309.5237,258.6257c-.3038,1.2155-5.7146.8437-12.2229,1.1308-6.5088.2871-11.8775.9794-12.2655-.2107-.169-.5659,1.0044-1.5281,3.1821-2.4061,5.7572-2.1327,12.0455-2.3693,17.9468-.6751,2.2366.7173,3.4859,1.5869,3.3595,2.1611Z"/>
  <path class="j" d="M309.5237,244.5283c-.3038,1.2155-5.7146.8442-12.2229,1.1313-6.5088.2866-11.8775.9789-12.2655-.2112-.169-.5654,1.0044-1.5281,3.1821-2.4144,5.7572-2.1361,12.047-2.3698,17.9468-.6668,2.2366.7178,3.4859,1.5869,3.3595,2.1611Z"/>
  <path class="j" d="M309.5237,230.6254c-.3038,1.2155-5.7146.8442-12.2229,1.1308-6.5088.2871-11.8775.9794-12.2655-.2107-.169-.5659,1.0044-1.5281,3.1821-2.4144,5.7592-2.1239,12.0455-2.3576,17.9468-.6668,2.2366.7173,3.4859,1.5869,3.3595,2.1611Z"/>
  <path class="j" d="M309.5237,216.722c-.3038,1.2155-5.7146.8442-12.2229,1.1313-6.5088.2871-11.8775.9794-12.2655-.2112-.169-.5654,1.0044-1.5276,3.1821-2.4056,5.7572-2.1327,12.0455-2.3693,17.9468-.6756,2.2366.7178,3.4859,1.5874,3.3595,2.1611Z"/>
  <path class="j" d="M309.5237,202.8275c-.3038,1.2072-5.7146.8442-12.2229,1.1229-6.5088.2788-11.8775.9794-12.2655-.2028-.169-.5737,1.0044-1.5276,3.1821-2.4139,5.7572-2.1327,12.0455-2.3693,17.9468-.6756,2.2366.7178,3.4859,1.5874,3.3595,2.1694Z"/>
  <path class="i" d="M252.9554,319.5696l-119.3412,5.3775,3.8533,85.5171,119.3412-5.3775-3.8533-85.5171Z"/>
  <path class="c" d="M246.793,326.4552l-106.4222,4.7955,3.259,72.3286,106.4221-4.7955-3.259-72.3286Z"/>
  <path class="j" d="M140.9651,351.7422c4.9552-3.9841,11.0495-7.2848,17.3721-6.6097,6.7533.7178,12.1641,5.7234,17.4823,9.9863,5.3182,4.2629,12.0627,8.1711,18.571,6.255,4.9807-1.4605,8.3656-5.9091,12.1896-9.4122,2.4575-2.3752,5.405-4.1845,8.6351-5.3011,3.2659-1.1019,6.8336-.8775,9.9359.6247,2.0763,1.0974,3.7142,2.8446,5.5627,4.2967,1.8485,1.4517,4.0939,2.676,6.424,2.4056,3.2331-.3714,5.4275-3.3766,8.1794-5.0645l2.3806-1.5957.3209,11.3283-47.1116,18.3686-58.6589-3.9337-1.2831-21.3484Z"/>
  <path class="o" d="M142.0626,367.2491c9.1672-5.7318,19.7527-6.8204,30.1864-3.9592,7.302,2.0092,14.0886,6.1369,21.6438,6.6607,9.2852.6413,17.9801-4.2208,26.4467-8.2138,8.4671-3.9925,19.2971-7.1668,27.7048-3.1062l1.9754,40.1722-106.3619,4.7866-1.5952-36.3404Z"/>
  <path class="l" d="M227.7007,339.4855c-2.5746-.3038-4.626.2366-6.1791,1.8064-1.3855,1.3674-2.2968,3.1424-2.6001,5.0649-.3954,1.3596-.439,2.7975-.1264,4.1787.5007,1.506,1.5536,2.7667,2.946,3.5285,1.3752.7888,2.9406,1.1856,4.5255,1.1469,1.5854-.0387,3.1292-.5115,4.4648-1.3664,1.3032-.9005,2.3203-2.1567,2.9298-3.6187.609-1.4624.7844-3.0694.5056-4.6289-.3361-1.5502-1.1337-2.9621-2.288-4.0503-1.1543-1.0877-2.6109-1.8005-4.1782-2.044"/>
  <path class="j" d="M226.0628,365.9831c-.1181,0-.2195-4.5079-.2195-10.0794s.1014-10.0789.2195-10.0789.2195,4.5162.2195,10.0789-.1014,10.0794-.2195,10.0794Z"/>
  <path class="j" d="M230.41,348.3067c-.5987.7202-1.3047,1.3439-2.0935,1.8485-.6986.6212-1.4904,1.1283-2.3468,1.5026,1.2924-1.3527,2.7912-2.4923,4.4403-3.3766v.0255Z"/>
  <path class="o" d="M166.526,341.1483c-2.5829-.3121-4.6255.2361-6.1874,1.7981-1.3806,1.3708-2.2909,3.1439-2.6001,5.065-.4013,1.3728-.4449,2.8259-.1264,4.2208.5056,1.4967,1.558,2.748,2.946,3.503,1.3748.7908,2.9406,1.1886,4.526,1.1499,1.5854-.0387,3.1297-.5125,4.4643-1.3694,1.3072-.8966,2.3277-2.1523,2.9372-3.6157.6095-1.4634.7824-3.0719.4983-4.6313-.3336-1.5492-1.1298-2.9602-2.2826-4.0474-1.1533-1.0867-2.6089-1.7976-4.1752-2.0391"/>
  <path class="j" d="M164.8793,367.646c-.1181,0-.2195-4.5162-.2195-10.0789s.1014-10.0789.2195-10.0789.2195,4.5074.2195,10.0789-.0926,10.0789-.2195,10.0789Z"/>
  <path class="j" d="M169.2275,349.9696c-1.2929,1.3527-2.7912,2.4923-4.4403,3.3766,1.2866-1.3596,2.7863-2.5001,4.4403-3.3766Z"/>
  <path class="o" d="M207.1293,353.2198c-.6619-.1308-1.3449-.1004-1.9926.0872-.6477.1881-1.241.5286-1.73.9931-.8334.8256-1.3806,1.8965-1.5619,3.0557-.2455.8226-.2744,1.6952-.0843,2.5325.3062.903.9426,1.6565,1.7809,2.1102.826.4767,1.7672.7163,2.7206.6923.9529-.0235,1.8813-.3101,2.6819-.827.7893-.538,1.4051-1.2934,1.7741-2.1744.3684-.8809.4738-1.85.3028-2.7892-.2023-.9328-.6825-1.7819-1.3772-2.4359-.6947-.6541-1.5712-1.0823-2.5143-1.2278"/>
  <path class="j" d="M206.124,369.199c-.2219-2.0151-.2954-4.0434-.2195-6.0693-.0759-2.0259-.0025-4.0542.2195-6.0693.2175,2.0151.2905,4.0434.2195,6.0693.071,2.0259-.002,4.0542-.2195,6.0693Z"/>
  <path class="j" d="M208.749,358.5542c.0764.0931-.464.6246-1.1984,1.1817-.7344.5575-1.3929.9289-1.4688.8442-.0759-.0843.4645-.6247,1.2072-1.1817.7427-.557,1.3674-.9451,1.46-.8441Z"/>
  <path class="c" d="M213.7219,372.635c-.8839-.1739-1.7961-.1338-2.6613.1176-.8652.2509-1.6574.7055-2.3105,1.3258-1.1107,1.0994-1.8412,2.5251-2.0852,4.0689-.3224,1.098-.3572,2.261-.1009,3.3766.4062,1.2028,1.2498,2.2091,2.3634,2.8191,1.1038.634,2.361.9524,3.6334.9211,1.2728-.0309,2.5124-.411,3.5839-1.0979,1.0504-.7207,1.8701-1.7295,2.3595-2.9053.4899-1.1759.6291-2.4683.4008-3.7215-.2665-1.2459-.9044-2.3816-1.8299-3.2571-.925-.8755-2.0945-1.4497-3.3531-1.6472Z"/>
  <path class="j" d="M212.3795,393.8903c-.2175-2.6927-.2905-5.3947-.2195-8.0952-.0711-2.7005.002-5.4025.2195-8.0952.2229,2.6922.2959,5.3947.2195,8.0952.0764,2.7005.0034,5.403-.2195,8.0952Z"/>
  <path class="j" d="M215.8737,379.6915c.0676.1014-.6668.7765-1.6883,1.5198-.5595.5081-1.2092.9059-1.9161,1.1734-.0676-.1014.6668-.777,1.6883-1.5198.5575-.51,1.2082-.9083,1.9161-1.1734Z"/>
  <path class="c" d="M155.6362,370.2206c-.8838-.1734-1.7966-.1328-2.6613.1181-.8647.2513-1.6575.7055-2.311,1.3253-1.1092,1.1004-1.8392,2.5256-2.0847,4.0689-.3229,1.0979-.3577,2.261-.1014,3.3766.4067,1.2028,1.2503,2.2091,2.3634,2.8191,1.1043.634,2.361.9524,3.6333.9211,1.2729-.0314,2.5124-.411,3.5844-1.0984,1.0494-.7192,1.8691-1.7265,2.36-2.9004.4914-1.1739.633-2.4649.4086-3.7176-.2695-1.2449-.9098-2.3786-1.8368-3.2527-.9265-.8741-2.0959-1.4468-3.3546-1.6432"/>
  <path class="j" d="M154.3109,391.5014c-.2175-2.6927-.291-5.3947-.2195-8.0952-.0715-2.7005.002-5.4025.2195-8.0952.2283,2.6917.3043,5.3947.2278,8.0952.0764,2.7005.0005,5.4035-.2278,8.0952Z"/>
  <path class="j" d="M157.8056,377.3025c.0676.1014-.6668.7766-1.6878,1.5198-.5526.5169-1.2047.9162-1.9166,1.1734-.0671-.0931.6673-.777,1.6883-1.5198.558-.51,1.2087-.9083,1.9161-1.1734Z"/>
  <path class="l" d="M238.3284,360.4792c-.8451-.1666-1.7182-.1279-2.5452.1127-.827.2411-1.584.6771-2.2072,1.2719-1.0612,1.0499-1.7618,2.4095-2.0009,3.8827-.3043,1.047-.3361,2.1538-.0926,3.2164.3866,1.1513,1.1949,2.1136,2.262,2.6927,1.0558.6085,2.2581.9147,3.4766.8848,1.218-.0294,2.4041-.3944,3.4286-1.0534,1.0024-.6903,1.7843-1.654,2.2527-2.7769.4689-1.1229.6041-2.3566.3895-3.5545-.2597-1.1891-.8721-2.2718-1.7579-3.1062-.8858-.8348-2.0033-1.3821-3.2056-1.5702Z"/>
  <path class="j" d="M237.0619,380.8315c-.2171-2.5741-.2905-5.1585-.2195-7.741-.0711-2.5849.002-5.1722.2195-7.7493.2175,2.5771.2905,5.1644.2195,7.7493.071,2.5824-.002,5.1669-.2195,7.741Z"/>
  <path class="j" d="M240.3964,367.2491c.0759.1014-.6247.751-1.5698,1.4605-.5282.4968-1.1553.877-1.8402,1.1141-.0676-.0931.633-.7516,1.5781-1.4605.5326-.487,1.1548-.8657,1.8319-1.1141Z"/>
  <path class="l" d="M186.9455,360.4792c-.8451-.1661-1.7177-.1274-2.5447.1137-.827.241-1.584.6766-2.2081,1.2704-1.0588,1.0504-1.7564,2.4105-1.9921,3.8832-.3067,1.046-.3415,2.1528-.1014,3.2159.3905,1.1524,1.2013,2.1141,2.2709,2.6932,1.0543.6075,2.2557.9132,3.4722.8839,1.2165-.0299,2.4012-.3939,3.4246-1.0529,1.0039-.6884,1.7873-1.6521,2.2557-2.7755.4689-1.1229.6031-2.3581.3866-3.5554-.2572-1.1901-.8696-2.2743-1.7554-3.1091-.8863-.8348-2.0048-1.3816-3.2081-1.5673Z"/>
  <path class="j" d="M185.6878,380.8315c-.2224-2.5741-.2959-5.1585-.2195-7.741-.0764-2.5849-.0029-5.1727.2195-7.7493.217,2.5771.2905,5.1644.2195,7.7493.071,2.5824-.0025,5.1669-.2195,7.741Z"/>
  <path class="j" d="M189.0223,367.2491c.0759.1014-.633.751-1.5702,1.4605-.9368.7089-1.7638,1.2155-1.8402,1.1141-.0759-.1014.6335-.7516,1.5702-1.4605.5345-.488,1.1602-.8667,1.8402-1.1141Z"/>
  <path class="g" d="M235.0948,406.6957l3.3512,5.791,30.6846-21.0446-4.4658-4.8621-29.57,20.1157Z"/>
  <path class="h" d="M235.0948,406.6957l3.3512,5.791,30.6846-21.0446-4.4658-4.8621-29.57,20.1157Z"/>
  <path class="g" d="M123.3314,333.6102l2.7941,6.0776,32.5243-18.0727-3.9925-5.2589-31.3259,17.254Z"/>
  <path class="h" d="M123.3314,333.6102l2.7941,6.0776,32.5243-18.0727-3.9925-5.2589-31.3259,17.254Z"/>
  <path class="i" d="M351.5949,222.977v143.0815h90.1034v-143.0815h-90.1034ZM435.1645,341.2914v16.6127h-77.0951v-128.3595h77.1035l-.0083,111.7468Z"/>
  <path class="o" d="M358.0694,348.3827c-.0666-9.6586,3.0155-19.0761,8.7791-26.8269,4.4991-5.9512,10.9231-11.3116,19.6513-12.1048l-1.8064-24.0749c-2.0087.7089-6.0355,1.2238-6.8037-4.1277-.6585-4.6514,1.6883-6.1203,3.4692-6.5592l-.1602-.388c-.8442-2.2116-1.9416-4.3898-2.0852-6.7533-.1181-1.1773.026-2.3659.4213-3.481.3959-1.1151,1.0333-2.1288,1.8667-2.968,2.0935-1.874,5.1742-2.0176,7.9683-1.849-.094-1.1024.072-2.2116.4855-3.238.4135-1.0269,1.0627-1.9416,1.8951-2.6706,1.6805-1.4561,3.7784-2.3424,5.9934-2.5325,1.9838-.2112,4.0606,0,5.9091-.7765,1.8485-.777,3.1483-2.3806,4.9043-3.2586.5585-.3356,1.1974-.513,1.849-.513.6511,0,1.29.1774,1.8485.513.4929.4419.8378,1.0249.9892,1.6692.1509.6447.1,1.3204-.145,1.9352-.5213,1.216-1.2885,2.311-2.2537,3.2164.4013-.2812.8618-.4659,1.3464-.5404.484-.0745.9794-.0367,1.4468.1102.4674.147.8946.3993,1.2493.7378.3542.3385.6261.7535.7947,1.2136.1685.46.2293.9529.1774,1.4399-.0525.4875-.2156.9564-.4772,1.3703-.2621.414-.6154.7628-1.0333,1.0186-.4179.2557-.8892.4125-1.3772.4571.7281-.1122,1.4708.0652,2.069.4943.5982.4297,1.0044,1.0764,1.1303,1.802.0887.7026-.0069,1.4159-.2778,2.07-.2709.6546-.7075,1.2268-1.267,1.6609.4223,6.1707,1.1651,18.0815,1.0891,24.2356-.1014,8.3735-8.3064,9.8173-8.6273,9.8678v.3292c.0593.9877.2278,4.1194.3968,7.5974h.4135s26.1684-.5742,27.2825,33.8329v-111.7472h-77.1118v118.8381Z"/>
  <path class="c" d="M407.9158,307.4584h-.4135c0,.6075.0588,1.2238.0926,1.8402.1715,2.7828-.7697,5.5196-2.6167,7.6087-1.8466,2.0886-4.4472,3.3585-7.23,3.5295-2.7828.1715-5.5196-.7697-7.6087-2.6162-2.0886-1.8466-3.3585-4.4476-3.53-7.2305l-.0843-1.1817c-8.7282.7937-15.1522,6.1536-19.6513,12.1048-5.7817,7.7591-8.8727,17.1933-8.8046,26.869v9.5219h77.1035v-16.6127c-1.072-34.4071-27.257-33.8329-27.257-33.8329Z"/>
  <path class="l" d="M397.9295,320.2982c2.7206-.2161,5.2507-1.482,7.0541-3.5305,1.8039-2.0479,2.7402-4.7171,2.6114-7.4436,0-.6159-.0593-1.2322-.0931-1.8402-.1685-3.503-.3376-6.6347-.3964-7.5969v1.7643c-8.5175.7682-11.1514-5.3775-11.1514-5.3775,3.3149,2.1376,7.1908,3.2394,11.1343,3.166v.1181c.3209-.051,8.5258-1.4943,8.6273-9.8683.0759-6.1536-.6668-18.0644-1.0891-24.2351l-.1685.1519c-1.243.7829-2.6442,1.2792-4.1027,1.4522-8.8889,1.8652-15.4648-2.946-20.0991-3.1233-4.6343-.1774-3.9249,5.1409-3.9249,5.1409l1.0298,12.6619-2.237.1774c-.7682-3.0474-1.8823-7.4117-1.8823-7.4117-.63-.047-1.2631.0098-1.874.169-1.7897.439-4.1282,1.9078-3.4697,6.5588.7682,5.3521,4.795,4.8371,6.8037,4.1282l1.8064,24.0744.0847,1.1822c.1044,1.3816.4811,2.7289,1.1082,3.9645.6271,1.2351,1.4923,2.3345,2.5457,3.2346,1.0539.9,2.2752,1.5825,3.5937,2.0087,1.3184.4262,2.7079.5874,4.089.4743ZM399.9299,276.9772c-.1254.2117-.3116.3812-.534.487-.2229.1058-.4718.1431-.7153.1068-.244-.0363-.4713-.1445-.6536-.3101-.1818-.1661-.3106-.3826-.3694-.6222-.0583-.2391-.0446-.4904.0402-.7217.0847-.2317.2366-.4326.436-.5771.1994-.145.4375-.2273.6835-.2361.2464-.0093.4899.0554.6991.1852.2812.171.4826.4468.56.7667.0774.3199.025.657-.1465.9382v-.0167ZM412.7525,276.133c-.1646.1822-.3797.3116-.6178.3719-.2386.0603-.4889.048-.7207-.0348-.2312-.0823-.4331-.2317-.5796-.4292-.146-.1974-.2308-.4341-.2425-.6795s.0495-.4889.1759-.6996c.1269-.2102.3131-.3787.5355-.4831.2225-.1048.4708-.1406.7139-.1039.243.0368.4698.145.6511.3106.2396.221.3826.5267.3983.852.0157.3253-.097.6443-.314.8868v.0088ZM410.6002,273.6005c.5032-.3582,1.1068-.5473,1.7246-.5399.6173.0078,1.2165.2117,1.7109.5821.3714.2954.4982.5654.4306.633s-.971-.4978-2.1528-.5066c-1.1817-.0083-2.0259.5997-2.1523.4473-.1269-.1519.0676-.3459.439-.6247v.0088ZM405.7209,274.7906c.169-.0676,1.3508,2.6339,2.6339,6.0438l.8442,2.4061c.195.3949.2513.8437.1602,1.2748-.0451.1166-.1152.2214-.2058.3077-.0906.0862-.1989.1509-.3175.1901-.171.0441-.3469.0666-.5238.0676-.6487.0887-1.3081.0656-1.9499-.0676.6075-.2455,1.2532-.3826,1.9078-.4052.3042,0,.5487-.1014.5659-.27.0068-.2964-.0691-.5889-.2195-.8442l-.9289-2.3889c-1.2405-3.4526-2.1439-6.2638-1.9666-6.3226v.0083ZM408.3548,287.9845c-.3993.6168-.995,1.0798-1.6912,1.3145-.6957.2347-1.4507.2264-2.1415-.023-2.532-.9367-1.9328-2.9626-1.9328-2.9626-1.2244-.7432,3.3678,1.7809,5.7655,1.6628v.0083ZM397.8281,274.6304c.4988-.3645,1.1004-.561,1.7182-.561.6173,0,1.2189.1965,1.7177.561.363.2954.4894.5654.4302.6247-.0588.0588-.9706-.4983-2.1523-.4983s-2.0259.5992-2.1611.4473c-.1352-.1519.076-.2866.4473-.5737ZM383.1065,282.9955c-.1494.1382-.3278.2415-.5218.3028s-.3993.0789-.6011.0519c-1.0803-.1602-2.0175-1.4095-2.2703-2.8534-.1191-.6913-.0666-1.4012.1519-2.068.0652-.2964.2048-.5708.4057-.7981.2009-.2278.4561-.4003.7423-.5017.119-.0343.244-.0446.3669-.0299.1235.0147.2425.0534.3503.1142.1622.0897.2876.2327.3547.4052.1014.2954,0,.4473-.0421.439s0-.1602-.1352-.3459c-.0828-.1269-.2082-.2205-.3532-.2636-.1455-.0431-.3013-.0338-.44.0269-.2131.1019-.3978.2543-.5375.4444-.1401.1896-.2308.411-.2646.6447-.1705.6012-.2048,1.2322-.1014,1.8485.2195,1.2915,1.0382,2.4056,1.8319,2.5829.3204.0676.6546.0137.9367-.1519.2028-.1264.2788-.2533.3126-.2361.0338.0167.0083.1774-.1857.388Z"/>
  <path class="j" d="M410.9128,274.4613c-.1646.1818-.2714.4086-.3077.6511-.0358.2425.001.4904.1058.7119.1048.2219.2729.4076.4831.5335.2102.1264.4532.1876.6982.1759.245-.0118.4811-.096.6781-.242.1975-.1455.3469-.3464.4302-.5771.0828-.2308.0955-.4811.0367-.7192-.0593-.2381-.1871-.4532-.3684-.6183-.121-.1102-.2621-.195-.416-.2503-.1534-.0554-.3165-.0799-.4796-.072-.1632.0078-.3229.048-.4708.1176-.1475.0696-.2798.168-.3895.2891Z"/>
  <path class="j" d="M412.314,273.7602c1.1822,0,2.0175.6501,2.1528.5066s-.0593-.3376-.4307-.633c-.4939-.3704-1.093-.5742-1.7109-.5816-.6173-.0078-1.2214.1813-1.7245.5394-.3714.2871-.5066.5487-.439.6163.0676.0671.9794-.4728,2.1523-.4478Z"/>
  <path class="j" d="M399.5174,275.2884c-.2097-.1298-.4532-.194-.6991-.1852-.2464.0093-.4846.0916-.6839.2361-.1994.145-.3508.3459-.4356.5771-.0847.2317-.0989.4831-.0402.7222.0588.2396.1872.4556.3694.6217.1823.1661.4096.2744.6531.3106.244.0363.4929-.001.7153-.1068s.4086-.2753.5345-.4875c.1661-.2793.2156-.6129.1382-.9284-.0774-.316-.2753-.5884-.5517-.7599Z"/>
  <path class="j" d="M399.5429,274.7989c1.1817,0,2.0175.6501,2.1523.4978.1352-.1519-.0676-.3292-.4307-.6247-.4982-.364-1.0999-.5605-1.7177-.5605-.6173,0-1.2189.1965-1.7177.5605-.3714.2871-.5066.5487-.4473.6164s.9877-.5149,2.1611-.4895Z"/>
  <path class="j" d="M408.6591,283.4511c.1504.2557.2263.5478.2195.8442,0,.169-.2616.2366-.5654.2704-.6551.0225-1.3008.1597-1.9078.4052.6413.1332,1.3008.1558,1.9499.0671.1764-.001.3523-.0235.5232-.0671.1186-.0392.2268-.1044.3175-.1906.0906-.0857.1607-.1911.2058-.3077.0916-.4307.0348-.8799-.1602-1.2748l-.8441-2.4056c-1.2831-3.3766-2.4649-6.1114-2.6339-6.0438-.1685.0671.7261,2.87,2.0092,6.28l.8863,2.4227Z"/>
  <path class="f" d="M404.4971,289.2677c.6908.2494,1.4458.2572,2.142.0225.6957-.2342,1.2915-.6977,1.6908-1.314-2.3977.1181-6.9894-2.4061-5.7656-1.6883.0255.0167-.5992,2.0425,1.9328,2.9798Z"/>
  <path class="c" d="M395.9712,296.2654s2.6339,6.1453,11.1509,5.377v-2.2116c-3.9489.0769-7.8311-1.0249-11.1509-3.1655Z"/>
  <path class="j" d="M383.2589,274.5201s1.1141,4.3643,1.8823,7.4112l2.237-.1769-1.0298-12.6624s-.7089-5.3266,3.9254-5.1409,11.2102,4.989,20.0986,3.1233c1.4585-.1729,2.8602-.6688,4.1027-1.4517l.169-.1519c.5477-.4331.9754-.9999,1.2415-1.6462.266-.6457.3616-1.3493.2778-2.043-.1264-.7251-.5321-1.3723-1.1303-1.8015-.5987-.4297-1.3415-.607-2.069-.4943.488-.0451.9588-.2014,1.3767-.4576.4179-.2557.7717-.6041,1.0333-1.0186.2621-.414.4253-.8829.4772-1.3699.0519-.4875-.0083-.9799-.1769-1.4399-.1685-.46-.4409-.8755-.7952-1.2141-.3542-.3381-.7819-.5909-1.2493-.7378-.4674-.147-.9622-.1847-1.4468-.1097-.484.0745-.9446.2592-1.3463.5399.9652-.9049,1.7329-1.9999,2.2537-3.2159.2455-.6153.2959-1.2905.145-1.9352s-.4963-1.2273-.9892-1.6697c-.5581-.3356-1.1974-.513-1.8485-.513s-1.2905.1774-1.8485.513c-1.7559.8442-3.0895,2.5325-4.9047,3.2585-1.8147.7261-3.9082.5654-5.9086.7766-2.2155.1901-4.3134,1.0769-5.9934,2.5325-.8324.7295-1.4816,1.6442-1.8951,2.6706-.4135,1.0264-.5801,2.1356-.4855,3.2385-2.7941-.169-5.9091,0-7.9688,1.8485-.8334.8397-1.4708,1.8534-1.8662,2.9685-.3954,1.1151-.5394,2.3037-.4213,3.481.1435,2.3634,1.2576,4.5412,2.0852,6.7528l.1602.3885c.6173-.1911,1.2621-.2768,1.9078-.2533Z"/>
  <path class="c" d="M382.9806,282.8436c-.2827.1651-.6168.2195-.9373.1519-.7932-.1774-1.6119-1.2915-1.8314-2.5829-.1039-.6163-.0691-1.2479.1009-1.849.0338-.2332.1249-.4547.2646-.6448.1401-.1896.3248-.3425.5375-.4439.1391-.0607.295-.0701.44-.0269.1455.0431.2704.1367.3538.2631.1264.1857.1009.3376.1347.3464.0338.0083.1436-.1436.0426-.439-.0804-.1641-.2146-.2949-.3802-.3714-.1078-.0612-.2268-.1-.3503-.1142-.123-.0147-.2479-.0044-.367.0294-.2861.1019-.5414.2744-.7422.5017-.2009.2273-.3405.5022-.4062.7986-.218.6663-.2704,1.3767-.1519,2.068.2533,1.4434,1.1905,2.6927,2.2709,2.8534.2018.0269.4071.0093.6011-.0524.194-.0612.3719-.1641.5218-.3023.194-.2112.2107-.3797.1857-.3885-.0255-.0083-.0848.0759-.2871.2028Z"/>
  <path class="g" d="M346.0155,342.6088l-6.7023,5.2756,32.0942,34.9137,5.3261-6.5166-30.7179-33.6727Z"/>
  <path class="h" d="M346.0155,342.6088l-6.7023,5.2756,32.0942,34.9137,5.3261-6.5166-30.7179-33.6727Z"/>
  <path class="g" d="M417.0996,215.7681l-4.6255,7.1668,41.6748,22.6232,2.9293-7.8845-39.9787-21.9055Z"/>
  <path class="h" d="M417.0996,215.7681l-4.6255,7.1668,41.6748,22.6232,2.9293-7.8845-39.9787-21.9055Z"/>
  <path class="j" d="M368.8073,243.0257c0,.1436.0759.2788.1186.4052-.0691-.0804-.1421-.1563-.2195-.2278"/>
  <path class="m" d="M73.6623,270.1651l9.5047-11.8941s15.3296,11.9784,17.0772,11.0666c9.6316-5.0644,17.4231-14.3502,20.0653-17.7268.0926-.6163.1857-1.3336.2616-2.1949.0549-.7349-.0132-1.4737-.2028-2.1861-.2068-.8833-.5301-1.7349-.9622-2.5325-.1093-.1367-.1729-.3038-.1832-.4782-.0103-.1744.0343-.3478.1269-.4963.0926-.148.2293-.2641.3905-.3312.1612-.0676.3395-.0833.51-.0451.7261.2533,2.0852,2.1356,2.5325,4.82.4473,2.6843,2.5325-1.0465,3.3766-2.3889.8442-1.3419,3.4271-5.3854,4.0346-5.4696.8442-.1186,1.1822.8442.363,2.1273-.8187,1.2826-3.0048,5.4613-2.2704,5.8498.7344.388,4.6426-6.5171,4.6426-6.5171,0,0,.5992-1.6036,1.4605-1.1901,1.5448.7427-3.1743,7.766-3.6383,8.4416-.3209.4556.4556.9029.7765.3964.3204-.5061,3.7647-6.9639,5.3432-6.2212,1.2155.5742-3.8239,5.8077-3.7985,7.5381.025,1.7305,3.3766-4.3555,4.5584-3.7563.4218.2195.7089.439-1.7393,3.6549-1.8667,2.2468-3.8533,4.3913-5.9507,6.424,0,0-22.6992,34.8883-38.4677,25.5775-16.697-9.9442-17.8111-12.4679-17.8111-12.4679Z"/>
  <path class="b" d="M58.7549,250.1082c-1.8091-.1313-3.6257.1196-5.3316.7364-1.7059.6163-3.263,1.5849-4.5702,2.8426l-2.3804,11.7423,4.0772,16.4437c1.1987,4.8033-2.3045,11.5311-3.2415,19.4151l33.6049,5.9091,1.6883-23.4924.3885-6.3314,5.3011,3.4359,11.3199-13.1263-10.4924-8.3656c-5.0502-4.9126-11.6781-7.8767-18.7062-8.3651"/>
  <path class="o" d="M79.614,266.4088c.6761.124,1.3116.414,1.8485.8442,1.3772.9338,2.3811,2.3238,2.8348,3.9249.4542,1.6006.3287,3.3105-.3532,4.8288-.2293.6531-.6247,1.2346-1.1479,1.6883-.0593,0,.4307-.6418.8442-1.7731.5722-1.4654.6492-3.0778.2195-4.5912-.4297-1.5134-1.3429-2.8451-2.6001-3.7911-.9118-.8103-1.6712-1.0548-1.6457-1.1308Z"/>
  <path class="f" d="M84.1635,273.7441c0,.0759-.8946.0759-2.2537.4473-1.7794.4679-3.3997,1.4081-4.6882,2.7221-1.2885,1.3135-2.1974,2.9514-2.6305,4.7401-.3459,1.3674-.3292,2.262-.4052,2.262-.0603-.2023-.0828-.414-.0676-.6247-.0034-.5668.0534-1.1327.169-1.6883.3719-1.8774,1.2846-3.6054,2.6251-4.9714,1.341-1.3664,3.0513-2.311,4.9214-2.7187.5546-.1239,1.12-.1921,1.6883-.2023.2141-.0318.4321-.0206.6413.0338Z"/>
  <path class="f" d="M95.6187,264.4162c.1279.2219.17.4836.1181.7344-.1191.6786-.4973,1.2841-1.0553,1.6883-.8285.5223-1.6947.9818-2.5913,1.3757-.9902.6173-1.7927,1.4928-2.3213,2.5325-.5526,1.0475-1.0352,2.1302-1.4438,3.2419-.3454.9221-.7721,1.8118-1.2743,2.6589-.3474.5722-.7736,1.0921-1.2665,1.5448-.363.3038-.5992.4307-.6075.4052.6198-.6364,1.1612-1.3449,1.6124-2.1106.4468-.8437.8334-1.7182,1.1562-2.6167.3826-1.1435.8598-2.2532,1.4267-3.3173.5781-1.1038,1.4556-2.0229,2.5325-2.6505.8912-.3758,1.7618-.7986,2.6084-1.266.5267-.3552.9074-.8892,1.072-1.5026.0245-.2386.0358-.4782.0338-.7178Z"/>
  <path class="f" d="M81.3611,301.0011c-.3983-.2342-.8358-.3944-1.2915-.4723-.5355-.0573-1.0769-.0118-1.5952.1347-.6864.196-1.3449.4796-1.9583.8442-.756.4806-1.5555.8878-2.3889,1.2155-.9892.3425-2.0386.4747-3.0812.3885-2.3644-.2631-4.6147-1.1548-6.5171-2.5829-2.0425-1.4438-3.7562-3.0729-5.4698-4.3477-1.475-1.1705-3.1473-2.068-4.9382-2.6505-1.2101-.3817-2.487-.5056-3.748-.363-.8441.1186-1.359.3126-1.3759.2616.1067-.0627.2199-.1137.3377-.1519.3271-.1274.6666-.221,1.013-.2783,1.2829-.1891,2.5919-.0911,3.8324.2871,1.8356.5551,3.5528,1.4453,5.0648,2.6251,1.7389,1.2748,3.4777,2.8867,5.4785,4.3051,1.8382,1.386,4.0111,2.2601,6.2971,2.5325.9887.0926,1.9857-.0196,2.9293-.3292.8167-.3101,1.605-.6913,2.3551-1.1396.6423-.3728,1.3326-.6565,2.0514-.8442.5531-.1323,1.1269-.1524,1.6883-.0593.3523.0642.6884.1994.9872.3968.2533.1097.3381.2195.3292.2278Z"/>
  <path class="o" d="M71.3836,250.8509c.0696.2758.0897.5615.0588.8442-.05.8069-.2504,1.5972-.5909,2.3301-.5066,1.0984-1.2959,2.042-2.2875,2.7348-1.2381.8442-2.726,1.243-4.2208,1.1313-1.4899-.0877-2.9087-.6668-4.0348-1.6462-.8836-.8074-1.5412-1.8319-1.9078-2.9715-.2439-.7712-.3412-1.5815-.287-2.3889-.0004-.2895.0569-.5766.1688-.8442-.0558,1.0661.0844,2.1332.4136,3.1488.3934,1.0754,1.0492,2.0362,1.9078,2.7941,1.0722.8946,2.4019,1.4238,3.7957,1.5105,1.3939.0862,2.7789-.2744,3.9533-1.0294.9485-.6408,1.7182-1.5124,2.237-2.5325.4478-.9706.7168-2.0146.7937-3.0812Z"/>
  <path class="i" d="M220.821,284.9964l-22.1588-80.5987-113.7726,31.2838,22.1588,80.5899,113.7726-31.275ZM105.6046,285.3844l-12.2062-45.8113,100.4528-26.7847,18.4529,69.2194-47.2718,12.6114-34.0358,9.0746-19.1197,5.0649-6.2721-23.3743Z"/>
  <path class="j" d="M105.605,285.3844c.0465.1274.0862.2567.1181.3885l.3292,1.1479c.2812,1.0352.6923,2.5437,1.2322,4.5246l4.6681,17.3133-.1347-.0759,100.4523-26.8773-.1436.2616-12.2229-45.803c-2.119-7.9688-4.2208-15.8024-6.2383-23.4164l.27.1519-100.4523,26.7171.1097-.1857c3.7735,14.2826,6.8037,25.7377,8.8972,33.6389l2.338,9.0574c.2646,1.0298.4674,1.8152.608,2.3551.1264.5321.1857.802.1857.802,0,0-.0843-.27-.2278-.7932-.1436-.5237-.363-1.3169-.6501-2.3384-.5571-2.068-1.3841-5.1154-2.4477-9.0408l-9.0241-33.6051v-.1436h.1436l100.4523-26.8435.2112-.0593.0593.2112c2.0259,7.5974,4.1194,15.4476,6.2467,23.4164l12.1974,45.803.0509.2023-.2028.0593-100.4523,26.675h-.1097v-.1097c-1.9754-7.496-3.5202-13.3458-4.5667-17.3388-.5233-1.9838-.9118-3.503-1.1817-4.5417-.1269-.5061-.2283-.8442-.2954-1.1562-.0676-.3126-.2195-.3968-.2195-.3968Z"/>
  <path class="j" d="M220.8205,284.9964l-.5316.1519-1.5786.4473-6.1624,1.6883-23.3067,6.5-82.1346,22.682-.194.0505-.051-.1857-22.1754-80.5815-.0588-.2107.2107-.0593,113.7815-31.2328.169-.051.0505.169,16.0385,58.7437c1.8995,7.0061,3.3766,12.4845,4.4065,16.2242.5066,1.8485.8442,3.2752,1.1484,4.2208l.3797,1.4433s-.1519-.5066-.4307-1.4688c-.2783-.9622-.6668-2.3973-1.19-4.2629-1.0382-3.7397-2.5325-9.2265-4.5079-16.233-3.8744-14.021-9.4459-34.1367-16.2075-58.583l.2195.1181-113.7476,31.3176.1519-.27c7.9267,28.8356,15.4393,56.2112,22.1421,80.5899l-.245-.1436,82.0587-22.4542,23.3826-6.3731,6.2212-1.6883,1.604-.4307.5571-.1181Z"/>
  <path class="c" d="M113.4803,273.6005c4.0062-3.409,8.981-5.4755,14.2233-5.9091,2.2434-.1161,4.4927.0284,6.7028.4307.5644-.2298,1.146-.416,1.7388-.5571l-1.0298-3.2924c-.1979-.1514-.3792-.3243-.5404-.5149-.7011.9142-1.7084,1.5448-2.8367,1.777-1.1283.2322-2.3027.0505-3.308-.512-1.0053-.5629-1.7745-1.4688-2.167-2.5521-.3919-1.0832-.3812-2.2713.0309-3.3472-.8951-.2866-1.677-.8476-2.2361-1.6031-.559-.7555-.8662-1.6677-.878-2.6074-.0123-.9397.2714-1.8598.8103-2.6295.5394-.7697,1.3067-1.3507,2.1939-1.6604-.3469-.7731-.4424-1.6354-.2724-2.4653.1695-.8299.5958-1.5859,1.218-2.1606.0279-.6222.168-1.2342.4135-1.8064.2312-.5634.6158-1.0504,1.1092-1.4071.4939-.3567,1.0774-.5678,1.6849-.6105-.1901-.7761-.1377-1.5918.1504-2.337.2876-.7452.7971-1.3846,1.4595-1.8314.6619-.4473,1.4453-.6805,2.2444-.6688.7986.0118,1.5747.2685,2.2233.7349.6771-1.0877,1.7045-1.9127,2.9127-2.3384.6036-.2043,1.2484-.2607,1.8784-.1636.6306.097,1.2283.3444,1.7427.7207.5022.3944.8677.9367,1.0446,1.5502.1774.6134.1573,1.267-.0568,1.8686.5316.0505,1.0318.2734,1.4252.6345.3929.3611.6575.8407.7525,1.3664.0088.0813.0088.1632,0,.2445,5.7063-1.4772,3.9254,4.8371,3.9254,4.8371.7124.2504,1.3493.6776,1.8515,1.2415s.8525,1.2464,1.0186,1.9828c.1357.7408.0127,1.5061-.3483,2.167-.3611.6604-.9387,1.1773-1.6354,1.4629.5825.8275.9118,1.8069.947,2.8181.0353,1.0112-.2249,2.0112-.7491,2.8769-.5237.8657-1.2885,1.5604-2.2003,1.9989-.9123.438-1.9323.6011-2.9357.4689.2871.8442.7173,2.2032,1.1646,3.5795,4.6857-.7736,9.493-.2631,13.9117,1.4772,5.4025-3.9847,9.1926-10.1299,15.5236-13.1856,3.5574-1.606,7.4632-2.2855,11.3538-1.9754-.0759-.1685-.1436-.3459-.2366-.5149-.3714-.704-.8368-1.3547-1.3841-1.9328-.122-.0926-.2121-.221-.2587-.367-.0461-.146-.0465-.3028,0-.4488.0461-.146.1362-.2739.2582-.367.122-.0926.2695-.1455.4223-.1509.6585.0505,2.2287,1.3336,3.2081,3.4776.0818.2077.2087.3954.3714.5487l.4302.0676c.6585-.3126,1.2155-2.4311,1.4776-3.3766.3625-1.3086,1.6878-5.2844,2.1606-5.4951.7178-.2954,1.1734.4135.7765,1.6878-.3964,1.2748-1.2915,5.2594-.5992,5.4196s2.4482-6.5083,2.4482-6.5083c0,0,.1436-1.486.9539-1.3253,1.4688.2783-.9201,7.2256-1.1651,7.8757-.169.4557.5825.6585.7427.1602.1607-.4978,1.5957-6.6852,3.0895-6.4152,1.1479.2112-1.9161,5.7317-1.5026,7.1751.414,1.4433,1.8995-4.4231,2.9798-4.1787.4052.0931.7006.2195-.6413,3.4614-.6085,1.3816-1.2875,2.7314-2.0342,4.0434,2.144.8442,4.2203,1.8568,6.3055,2.8362l6.5421,24.5305-18.4529-69.2194-100.4523,26.7847,12.2062,45.8113c1.4987-4.5495,4.2311-8.594,7.8928-11.683ZM163.6133,232.0521c.7501-1.6129,2.0822-2.8828,3.7284-3.5559,1.6467-.6732,3.4869-.6996,5.1522-.074,2.7603.608,4.5667,5.065,3.4609,8.4416-.6379,1.6638-1.8995,3.0131-3.5172,3.7607-1.6178.7471-3.4633.8334-5.1438.2406-1.6236-.7202-2.9102-2.0347-3.5947-3.674-.6844-1.6388-.7153-3.478-.0857-5.1389Z"/>
  <path class="o" d="M190.7787,252.0919l-.4307-.0676c.0539.0578.1254.0955.2033.1078.0784.0122.1582-.002.2273-.0402Z"/>
  <path class="o" d="M174.8916,273.0939l-.6247,1.2748c.7849.1436,1.3336.1602,1.5281,0,6.9556-6.3902,11.4125-15.9459,12.873-19.4151-.0593-.5321-.1436-1.1651-.2704-1.8995-.0906-.44-.2322-.8677-.4218-1.2748-3.9048-.3175-7.8262.3621-11.3959,1.9754-6.3309,3.0303-10.1299,9.201-15.5236,13.1856,1.0705.4208,2.1111.9142,3.1145,1.4771l10.7207,4.6764Z"/>
  <path class="o" d="M125.8051,284.2199c-.3968-8.2897,2.7686-11.9446,4.963-13.4644,1.0014-1.1278,2.2454-2.0136,3.6383-2.5913-2.2096-.4027-4.4589-.5468-6.7023-.4307-5.2423.4336-10.2171,2.5001-14.2238,5.9091-3.676,3.1277-6.4039,7.2211-7.8757,11.8177l6.2383,23.4081,19.1197-5.0649c-3.0405-6.1066-4.796-12.7716-5.1575-19.5837Z"/>
  <path class="o" d="M199.4648,254.641c-.4899.8863-1.0132,1.7981-1.5198,2.676,0,0-11.2352,34.3733-26.5226,30.0594l-3.0557-.8442-.0505.1014-5.2168-1.6883,1.097,5.4025.8442,4.2801,47.2718-12.6114-6.5421-24.531c-2.068-.9872-4.1615-1.9666-6.3055-2.8446Z"/>
  <path class="o" d="M130.3458,256.2363c-.3949-.098-.7525-.3106-1.0274-.6109-.2744-.3003-.4547-.6751-.5174-1.0769-.0309-.4106.0897-.8182.3381-1.1465.2489-.3278.609-.5536,1.0127-.635.3498-.0328.7026.0279,1.0215.1764.3189.1484.5928.3787.7932.6678.1514.2195.2783.4542.3797.7006v-.7006c-.1142-2.1234-.585-4.212-1.3929-6.1791l.0676-.0843c.4503.6394,1.1107,1.1004,1.8667,1.3027.7555.2019,1.558.1318,2.2669-.1984.7094-.3297,1.2797-.8985,1.6119-1.6065.3327-.708.4052-1.5105.2058-2.2669.34.4517.7903.8084,1.3076,1.0362.5174.2273,1.0842.3185,1.6472.2641.559-.0794,1.0681-.365,1.4277-.801.3591-.4356.5424-.9902.5135-1.5541.317.4297.7653.7447,1.2768.8971.512.1524,1.0592.1338,1.56-.0529.4566-.195.8407-.5286,1.097-.9539l.4728,1.6374c.4748-.0083.9461.0804,1.3846.2616.704.3023,1.2846.8353,1.6462,1.511.099.1818.1754.3743.2278.5742.0235.0681.0377.1392.0421.2112.0338.0632.0568.1318.0676.2024.0544.1984.0828.4027.0843.608.0348.7667-.2048,1.5208-.6751,2.1273-.2837.3635-.6364.6678-1.0382.8946.3625,1.4184.6835,2.7436.8437,3.7563.8442,4.1703-3.1738,5.7063-3.1738,5.7063,0,.0676.1352.4307.3126.9794,1.0034.1323,2.0234-.0309,2.9352-.4694.9123-.438,1.677-1.1327,2.2008-1.9984.5237-.8657.7844-1.8657.7491-2.8769-.0353-1.0117-.3645-1.9906-.947-2.8181.6967-.2856,1.2738-.8025,1.6354-1.4634.3611-.6604.4841-1.4257.3484-2.1665-.1661-.7364-.5164-1.4188-1.0186-1.9828-.5022-.5639-1.1391-.9911-1.8515-1.2415,0,0,1.7809-6.3143-3.9254-4.8371.0088-.0813.0088-.1636,0-.245-.095-.5252-.3596-1.0049-.7525-1.366-.3934-.3616-.8936-.584-1.4252-.6345.2141-.6016.2342-1.2552.0568-1.8686-.1769-.6134-.5424-1.1558-1.0446-1.5502-.5149-.3763-1.1126-.6237-1.7427-.7207-.6301-.097-1.2748-.0407-1.8789.1636-1.2082.4257-2.2351,1.2503-2.9122,2.338-.6487-.4664-1.4247-.7226-2.2233-.7344-.7991-.0118-1.5825.2214-2.2449.6683-.6619.4473-1.1714,1.0867-1.459,1.8319-.2881.7452-.3405,1.5609-.1504,2.337-.6075.0426-1.191.2538-1.6849.6105-.4934.3562-.878.8437-1.1092,1.4071-.2455.5722-.3856,1.1842-.4135,1.8064-.6227.5747-1.0485,1.3307-1.218,2.1606-.17.8299-.0745,1.6922.2724,2.4653-.8873.3096-1.655.8907-2.1939,1.6604-.5394.7697-.8226,1.6893-.8108,2.6295.0123.9397.3194,1.8515.8785,2.6074.559.7555,1.341,1.3165,2.2361,1.6031-.412,1.0759-.4228,2.264-.0309,3.3472.3924,1.0832,1.1616,1.9891,2.167,2.5516,1.0053.5629,2.1797.7447,3.308.5125,1.1283-.2322,2.1351-.8633,2.8367-1.777.1612.1906.3425.3635.5404.5149l-2.6677-8.5004c-.3067.2048-.6521.3449-1.0151.412-.3625.0666-.7354.0588-1.095-.024Z"/>
  <path class="o" d="M147.5498,245.4146c-.4027-.1582-.8339-.2332-1.2665-.2195.5066,1.7809,1.1146,3.9758,1.6379,6.0017.3679-.2048.6942-.4767.9622-.802.4566-.5766.7065-1.29.7089-2.0259-.0044-.2822-.0245-.5639-.0588-.8442,0,0-.0848-.2866-.3464-.7344-.3787-.6266-.9549-1.1107-1.6374-1.3757Z"/>
  <path class="l" d="M188.6598,254.9536c-1.4605,3.4442-5.9091,12.9999-12.873,19.4151-.1945.1857-.7432.169-1.5281,0l-5.9091,12.1641,3.0562.8442c15.3124,4.2884,26.5564-30.0683,26.5564-30.0683.5066-.8442,1.0298-1.7897,1.5193-2.676.7471-1.312,1.4262-2.6613,2.0347-4.0434,1.3419-3.2414,1.0465-3.3766.6413-3.4609-1.0803-.245-2.5325,5.622-2.9798,4.1787-.4473-1.4434,2.6505-6.9644,1.5026-7.1751-1.4943-.2704-2.9293,5.9086-3.0895,6.4152-.1607.5066-.9118.2954-.7428-.1602.2445-.6501,2.6334-7.5974,1.1646-7.8757-.8442-.1607-.9539,1.3253-.9539,1.3253,0,0-1.7554,6.6602-2.4477,6.5083-.6923-.1524.2023-4.111.5992-5.4196.3968-1.3081-.0593-2.0004-.7765-1.6883-.4895.2112-1.7981,4.2208-2.1611,5.4956-.2616.9367-.8442,3.0557-1.4772,3.3766-.0691.0382-.1489.0524-.2268.0402-.0779-.0123-.1499-.0505-.2038-.1078-.1622-.1538-.2891-.341-.3714-.5487-.9794-2.144-2.5325-3.4271-3.2076-3.478-.1533.0059-.3008.0588-.4223.1514-.122.0926-.2121.221-.2587.367-.0461.146-.0461.3028.0005.4488.0461.146.1362.2739.2582.3665.5473.5786,1.0132,1.2292,1.3846,1.9333.0931.169.1602.3459.2362.5149.1901.4071.3317.8348.4223,1.2748.1097.7173.194,1.3841.2533,1.8823Z"/>
  <path class="j" d="M163.0729,284.9376l5.2168,1.6883.0509-.1014,5.9086-12.1641.6247-1.2748-10.6781-4.6764c-1.0034-.5629-2.0445-1.0563-3.115-1.4771-4.4138-1.7471-9.2181-2.2664-13.9029-1.5026.2332.7026.3248,1.4448.269,2.1827-.0558.7383-.2577,1.458-.5943,2.1175-.3361.6595-.8001,1.2459-1.365,1.7246-.5649.4787-1.219.8402-1.9245,1.0641-.706.2234-1.4492.3047-2.1866.2386-.7374-.0657-1.4541-.2778-2.1092-.6232-.6546-.3449-1.2341-.8172-1.705-1.3885-.4708-.5713-.8236-1.2302-1.0377-1.9392l-.3797-1.2238c-.5933.1411-1.1744.3273-1.7393.5571-1.3929.5776-2.6368,1.4634-3.6378,2.5913-2.1949,1.5198-5.3604,5.1747-4.9635,13.4644.3836,6.7856,2.1503,13.4213,5.1914,19.4994l34.0441-9.0746-.8442-4.2796-1.1229-5.4025Z"/>
  <path class="l" d="M140.1469,247.39c-.4684-.1876-.9745-.2631-1.4771-.2195-.5742.0495-1.1244.2508-1.5957.5825-.5379.3797-.9465.9147-1.1714,1.533-.2249.6188-.2548,1.2915-.0862,1.9279.1754.6639.5566,1.2547,1.0891,1.6883.4919.4042,1.0955.6482,1.7305.7006.537.0529,1.0783-.0309,1.5742-.243.4958-.2126.9299-.5472,1.2621-.9725.4586-.5762.7109-1.2895.7173-2.0259.0137-.2082.0137-.4169,0-.6247h-.194c-.0083,0,.0593-.0848.169-.1352,0,0-.0931-.2871-.3547-.7344-.366-.6702-.9539-1.1925-1.6628-1.4772ZM139.463,250.8592c-.0686.0186-.1401.023-.2107.0137-.0706-.0093-.1387-.0328-.1999-.0686-.0617-.0353-.1156-.0828-.1587-.1392-.0431-.0568-.075-.121-.0931-.1901-.0186-.0686-.023-.1401-.0137-.2107.0093-.0705.0328-.1386.0686-.1999.0353-.0617.0828-.1156.1396-.1587.0564-.0431.1205-.075.1896-.0931.1386-.0372.2866-.0171.4106.0549.1244.072.2151.1901.2518.3292.0372.1387.0171.2866-.0549.4106-.072.1244-.1901.2151-.3292.2518ZM139.2606,249.6437c-.5742.1097-.9284.5066-1.0049.4473-.0759-.0588,0-.1685.1524-.3459.2053-.2337.4816-.3934.7868-.4542.3052-.0612.6217-.0201.901.1166.2112.1014.3043.2195.2788.2616s-.5404-.1436-1.1141-.0255Z"/>
  <path class="l" d="M135.8414,251.9234c-.1053-.2082-.1901-.4258-.2528-.6501-.1906-.707-.146-1.4566.1264-2.1356.2469-.634.6795-1.1778,1.241-1.5619.4968-.3513,1.0808-.5585,1.6883-.5992.6472-.0431,1.2929.1014,1.8603.4155.5673.3145,1.0323.7859,1.339,1.3571.095.1832.1715.3753.2278.5742.024.0676.0382.1391.0421.2112.1093-.0485.2219-.0882.3376-.1186-.0897-.1357-.1607-.2837-.2112-.439,0,0,.1436.1352.3381.4052.1347-.0358.2739-.0554.4135-.0588v-.0421c-.1837-.7075-.1396-1.4551.1264-2.1356.2381-.6011.6408-1.1224,1.1621-1.5046.5213-.3826,1.1396-.61,1.7838-.6565h.169l-.4728-1.6378c-.2562.4253-.6403.7594-1.0974.9539-.5002.1867-1.0475.2053-1.5595.0529-.5115-.1524-.9598-.4669-1.2768-.8971.0289.5644-.1543,1.1185-.5135,1.5546-.3596.4356-.8687.7212-1.4282.8006-.5624.0544-1.1293-.0363-1.6467-.2641-.5174-.2273-.9676-.584-1.3076-1.0357.1994.7565.1269,1.5585-.2058,2.2664-.3322.7085-.9025,1.2768-1.6119,1.607-.7089.3297-1.5115.3998-2.2674.1979-.7555-.2018-1.4159-.6629-1.8662-1.3027l-.0676.0848c.8079,1.9666,1.2787,4.0557,1.3929,6.1791l.9372-.4645c1.2072-.5742,2.237-1.0382,2.5996-1.1562Z"/>
  <path class="l" d="M146.0805,245.1701c-.5737.0495-1.1244.2508-1.5952.5825-.5233.3611-.924.8735-1.1479,1.4688-.2469.6354-.2881,1.3321-.1181,1.9921.1729.6359.5355,1.2038,1.0387,1.629.5037.4253,1.1249.6874,1.7804.7516.5791.0514,1.1611-.0505,1.6883-.2954.0759,0,.1352-.0931.2112-.1269-.5232-2.0259-1.1313-4.2208-1.6379-6.0017h-.2195ZM145.5994,249.1964c-.0686.0206-.1406.0269-.2121.0186-.0711-.0083-.1396-.0309-.2024-.0661-.0622-.0353-.1166-.0833-.1597-.1401-.0436-.0573-.075-.1225-.0926-.1921-.0181-.0686-.023-.1401-.0132-.2107.0093-.0706.0323-.1387.0681-.1999.0358-.0617.0833-.1156.1396-.1587.0563-.0431.121-.075.1896-.0931.0686-.0186.1406-.023.2112-.0137.0701.0093.1382.0328.1999.0681.0612.0358.1151.0833.1587.1396.0431.0568.0745.121.0931.1901.0216.0696.0289.1431.0216.2161-.0074.0725-.0299.1431-.0652.2068-.0358.0642-.0838.12-.1416.1651-.0578.0446-.124.0774-.195.0955v-.0255ZM146.6209,247.9725c-.0505.0843-.5232-.1436-1.0974,0-.5737.1436-.9284.5066-1.0044.4473-.0759-.0588,0-.1685.1519-.3459.2033-.2298.4757-.3865.7765-.4473.3023-.0583.6154-.0201.8946.1097.2112.1009.3043.2195.2788.2616v-.0255Z"/>
  <path class="l" d="M136.5248,268.8055c.2141.7089.5669,1.3679,1.0377,1.9392.4708.5713,1.0504,1.0436,1.7055,1.389.6546.3454,1.3718.5571,2.1092.6232.7374.0657,1.4801-.0157,2.1861-.2391.7055-.2239,1.3601-.5855,1.9245-1.0642.5649-.4787,1.0289-1.0646,1.3654-1.7241.3361-.6599.538-1.3797.5938-2.1175.0559-.7383-.0358-1.4806-.269-2.1832-.4473-1.3757-.8442-2.7093-1.1651-3.579-.1769-.5487-.2954-.9118-.3121-.9794l.1685,1.0132c-4.0601,1.266-6.0943-1.4184-6.0943-1.4184,1.8921.6893,3.9425.8241,5.9086.3885,0,0,4.0184-1.5364,3.1743-5.7063-.2028-1.0132-.5232-2.3385-.8442-3.7568l-.1774.1097c-.5502.2685-1.1631.3826-1.7726.3292-.6761-.051-1.3213-.3047-1.8515-.728-.5301-.4228-.9201-.9956-1.12-1.6437-.1009.0524-.2053.0975-.3126.1352l.1097.1602c.3464.4894.7937,1.1651,1.292,1.9333l.6835,1.072c.1303.1666.2043.3709.2112.5825-.0088.0549-.0304.1068-.0622.1524-.0323.0451-.0745.0828-.1235.1093-.0754.0387-.1548.0701-.2366.0926-.3067.1014-.6237.169-.9451.2028.2807-.1602.5816-.2822.8946-.363.1436-.051.2788-.1097.2788-.2195-.0235-.1631-.0941-.3155-.2028-.439l-.7006-1.0636c-.4895-.7599-.9201-1.4605-1.2239-1.9671l-.1269-.2107c-.1274.0314-.2572.0539-.388.0676.05.1989.0784.4027.0843.6075.0191.6487-.1494,1.289-.4846,1.8441-.3351.5556-.8236,1.0024-1.4061,1.2875-.5536.267-1.169.3807-1.7814.3292-.6766-.0559-1.3209-.315-1.8485-.7428-.3704-.292-.6727-.6604-.8863-1.0803-.3126.2107-1.3169.7344-2.5325,1.3336l-1.0382.4978v.5066c-.1014-.2464-.2288-.4811-.3802-.7006-.2004-.2891-.4743-.5193-.7932-.6678-.3189-.1485-.6712-.2092-1.0215-.1764-.3973.0902-.7486.3214-.9892.6501-.2406.3288-.3537.7334-.3194,1.1396.0627.4022.243.777.5179,1.0774.2749.3003.632.5125,1.0269.6109.3606.0764.7334.0784,1.0945.0054.3616-.0725.7045-.218,1.0078-.4277l2.6672,8.5009,1.0298,3.2919.3376,1.2155ZM141.9695,254.9281c.9789.2092,1.9818.2802,2.9798.2107-.1323.34-.3743.6261-.6879.8128-.3136.1862-.6805.2631-1.0426.217-1.3757-.1519-1.2493-1.2405-1.2493-1.2405ZM130.8524,255.6625c-.2425.0333-.489-.024-.6923-.1607-.2401-.1651-.4184-.4057-.5066-.6835-.0598-.1426-.0852-.2974-.0735-.4517.0118-.1538.0603-.3033.1411-.4346.0789-.097.1778-.1754.29-.2293.1122-.0539.2352-.0823.3601-.0833.3968,0,.5909.1181.5825.1602-.0083.0426-.2366,0-.5571.0847-.1617.0323-.3057.122-.4052.2533-.0446.0921-.0671.193-.0671.2954,0,.1019.0225.2028.0671.2954.049.1906.1573.3611.3087.4865.1514.1259.339.2009.5355.2141.3121,0,.4811-.1352.5149-.1014.0333.0338-.1097.2871-.5237.3547h.0255Z"/>
  <path class="j" d="M145.3466,248.1754c-.1382.0392-.2553.1313-.3258.2557-.071.1244-.0906.2724-.0544.4111.0289.1024.0872.1945.168.2641.0808.0696.1803.1137.2861.1269.1058.0127.2136-.0054.3087-.0534.0955-.048.1744-.123.2273-.2156.0524-.0926.0769-.1989.0696-.3052-.0078-.1063-.0465-.2082-.1117-.2925s-.1538-.1475-.2553-.1818c-.1009-.0338-.2097-.0372-.3126-.0093Z"/>
  <path class="j" d="M145.4475,247.6266c-.3003.0603-.5732.2175-.7765.4473-.1519.1774-.194.3204-.1519.3459s.4307-.3292,1.0044-.4473c.5742-.1181,1.047.1098,1.0974,0,.051-.1097-.0676-.1602-.2783-.2616-.2822-.121-.5953-.1504-.8951-.0843Z"/>
  <path class="j" d="M139.1842,249.8127c-.1034.0269-.1965.0843-.2675.1646-.0711.0804-.1161.1798-.1303.2861-.0142.1058.0034.2141.0505.3101.0475.096.122.1759.2151.2293.0926.0534.1989.0784.3057.0711.1068-.0069.2092-.0456.294-.1112.0847-.0657.1484-.1548.1822-.2562.0343-.1014.0372-.2107.0088-.3141-.0377-.1372-.1279-.2543-.2508-.3253-.1235-.071-.27-.0906-.4076-.0544Z"/>
  <path class="j" d="M140.0793,249.3909c-.2797-.1367-.5963-.1778-.9015-.1171-.3047.0612-.5816.221-.7868.4547-.1519.1774-.194.3209-.1519.3459.0421.0255.4302-.3376,1.0044-.4473s1.047.1097,1.0974,0-.0593-.1181-.2616-.2361Z"/>
  <path class="f" d="M143.1938,256.1437c.3621.0456.729-.0309,1.0426-.2175.3136-.1867.5556-.4723.6884-.8123-.9985.0691-2.0014-.002-2.9803-.2112,0,0-.1009,1.1141,1.2493,1.241Z"/>
  <path class="c" d="M145.6846,260.8539c-1.9666.436-4.0165.3013-5.9091-.388,0,0,2.0342,2.6844,6.0948,1.4179l-.169-1.0127-.0167-.0171Z"/>
  <path class="j" d="M149.0103,250.4962c.4708-.606.7099-1.3605.6756-2.1273-.002-.2053-.0304-.4096-.0848-.6075-.0108-.071-.0333-.1396-.0671-.2028.0343.2802.0544.5619.0588.8442-.0025.7359-.2523,1.4492-.7089,2.0259-.268.3253-.5943.5972-.9622.802-.0759,0-.1352.0931-.2112.1269-.5272.245-1.1092.3469-1.6883.2954-.4973-.0441-.9769-.2033-1.4017-.4654s-.7824-.6193-1.0446-1.044c-.2626-.4248-.4218-.9044-.4664-1.4017-.0441-.4968.0284-.9975.2117-1.4615.2239-.5953.6247-1.1077,1.1479-1.4688.4708-.3317,1.0215-.5326,1.5952-.5825h.2028c.4326-.0132.8633.0612,1.266.2195.6879.2739,1.2645.7702,1.6379,1.4095.2616.4478.3204.7432.3459.7344-.0044-.0715-.0186-.1426-.0421-.2107-.0524-.1999-.1289-.3929-.2278-.5742-.3616-.6761-.9421-1.2087-1.6462-1.511-.4385-.1813-.9098-.2704-1.3846-.2616h-.1685c-.6448.0465-1.2631.2739-1.7843.6565-.5208.3821-.9235.9034-1.1616,1.5046-.2665.6805-.3106,1.4282-.1269,2.1356v.0421c-.1396.0034-.2783.023-.4135.0588-.194-.27-.3126-.4218-.3376-.4052.05.1553.121.3028.2107.439-.1151.0304-.2283.0701-.3376.1186,0,0-.1774.1009-.1685.1347.0083.0338.0843.0421.194,0,.0137.2082.0137.4169,0,.6247-.0064.7364-.2592,1.4497-.7178,2.0259-.3317.4253-.7658.7599-1.2616.9725-.4958.2126-1.0377.2959-1.5746.243-.6345-.0519-1.2381-.2964-1.7305-.7006-.5321-.4336-.9132-1.0245-1.0886-1.6883-.169-.6359-.1387-1.3086.0862-1.9274s.6335-1.1538,1.1714-1.5335c.4708-.3317,1.0215-.5326,1.5952-.5825.5027-.0431,1.0088.0318,1.4771.2195.6859.2739,1.2596.7707,1.6295,1.41.2616.4473.3292.7427.3542.7344-.0034-.072-.0176-.1431-.0421-.2112-.0564-.1984-.1323-.391-.2278-.5742-.3067-.5713-.7717-1.0426-1.339-1.3571-.5674-.3141-1.2131-.4586-1.8603-.4155-.607.0407-1.1915.2484-1.6883.5992-.5615.3841-.9941.9284-1.241,1.5619-.2724.6795-.317,1.4286-.1264,2.1356.0632.2244.148.4419.2533.6501-.363.1181-1.3929.5825-2.6001,1.1817l-.9368.464v.245l1.0382-.4978c1.2155-.5997,2.2199-1.1229,2.5325-1.3341.2136.4204.5159.7888.8863,1.0808.5272.4277,1.1714.6869,1.8485.7427.6124.0514,1.2278-.0622,1.7814-.3292.5825-.2851,1.0705-.7325,1.4061-1.2875.3351-.5556.5037-1.1959.4846-1.8441-.0059-.2053-.0343-.4091-.0843-.608.1308-.0137.2601-.0363.388-.0676l.1269.2112c.3038.5066.7344,1.2072,1.2238,1.9671l.7006,1.0636c.1088.123.1793.2758.2028.4385,0,.1097-.1352.169-.2788.2195-.3131.0813-.6139.2033-.8946.3631.3214-.0333.6384-.1014.9451-.2024.0818-.023.1612-.0539.2366-.0931.049-.0264.0911-.0637.123-.1093.0323-.0451.0539-.0975.0627-.1524-.0069-.2116-.0808-.4155-.2112-.5825l-.684-1.072c-.4978-.7682-.9451-1.4434-1.2915-1.9328l-.1097-.1607c.1073-.0377.2117-.0828.3126-.1347.1999.6477.5899,1.2209,1.12,1.6437.5301.4233,1.1749.6766,1.8515.728.6095.0529,1.2224-.0607,1.7726-.3292l.1774-.1097c.4214-.2259.7922-.5365,1.0886-.9118Z"/>
  <path class="c" d="M129.9661,254.7086c-.0441-.0926-.0671-.1935-.0671-.2954,0-.1024.023-.2033.0671-.2954.0999-.1313.244-.2215.4052-.2533.3209-.0509.5571,0,.5571-.0847,0-.0843-.1857-.1519-.5825-.1602-.1244.001-.2474.0294-.3596.0833-.1127.0539-.2117.1323-.29.2293-.0813.1313-.1293.2807-.1411.4346-.0118.1543.0132.3091.0735.4517.0877.2778.266.5183.5066.6835.2028.1367.4493.194.6923.1607.4135-.0676.5399-.3381.4978-.3547s-.2023.1181-.5149.1014c-.1965-.0132-.3836-.0882-.5355-.2141-.1514-.1254-.2592-.2959-.3087-.4865Z"/>
  <path class="o" d="M167.2942,240.8646c1.6815.5806,3.5231.4831,5.1335-.2714,1.6109-.755,2.8642-2.1082,3.4937-3.772,1.1058-3.3766-.7006-7.7914-3.4609-8.4411-1.6653-.6256-3.5055-.5992-5.1521.0735-1.6467.6732-2.9783,1.9431-3.7284,3.556-.6399,1.6707-.611,3.5231.0808,5.1727.6918,1.6496,1.9935,2.9685,3.6334,3.6823Z"/>
  <path class="b" d="M75.3594,435.6499l.8442-6.3648-11.8941-1.629-1.3169,9.2853.7344.1435c3.2669.633,16.6382,2.9881,18.9257,2.6256,2.5241-.3885-7.2932-4.0606-7.2932-4.0606Z"/>
  <path class="b" d="M67.298,437.4558c-.0421-1.0294-.4596-2.0082-1.1734-2.7515-.7031-.7339-1.654-1.1793-2.6677-1.2493l-.4556,3.334,4.2967.6668Z"/>
  <path class="j" d="M80.1279,437.6336s3.3766,1.511,2.8872,2.0342c-.4899.5232-14.1224-1.3419-20.0569-2.6927l.0593-.2704,15.8528,2.3218s.5654-1.4776,1.2577-1.3929Z"/>
  <path class="j" d="M62.8318,436.6625h.2028l.5825.1181,2.1523.3968c1.8235.3121,4.3389.7173,7.133,1.1058,2.7941.3885,5.3266.6751,7.1668.8441l2.1778.2028.5909.0505h.2112c-.0657-.0211-.1338-.0353-.2023-.0421l-.5909-.0676-2.1782-.2533c-1.8314-.2195-4.3639-.5316-7.1579-.9117-2.7941-.3797-5.3099-.7766-7.133-1.0637l-2.1611-.3459-.5825-.0931c-.0725.0098-.1436.0299-.2112.0593Z"/>
  <path class="j" d="M78.837,439.195c.144-.3464.3283-.6751.5487-.9789.2504-.2758.534-.5198.8442-.7261-.3895.0808-.7339.3072-.9622.633-.2695.293-.4228.6741-.4307,1.072Z"/>
  <path class="j" d="M75.5701,436.9247s.2278-.1524.439-.4057c.2112-.2528.3547-.4723.3209-.4978s-.2195.1519-.4307.4052c-.2112.2533-.363.4728-.3292.4983Z"/>
  <path class="j" d="M74.6755,436.2829s.2278-.0676.4556-.2195c.2278-.1519.3968-.3126.3797-.3464-.0167-.0338-.2278.0676-.464.2195-.2366.1519-.3968.3126-.3714.3464Z"/>
  <path class="j" d="M74.2188,435.1011s.2704.1097.608.1607c.2082.047.4248.047.633,0,0-.0426-.27-.1185-.6075-.169-.2087-.047-.4258-.0441-.6335.0083Z"/>
  <path class="j" d="M74.1174,434.257c.1881.1626.4204.2655.6673.2954.2357.0764.4899.0764.7256,0-.2259-.0671-.4576-.1151-.6918-.1435-.2273-.0774-.462-.1284-.7011-.1519Z"/>
  <path class="j" d="M76.1271,435.9453c.245.0799.5022.1142.7599.1014.2827,0,.5649-.0225.8442-.0676.1676-.0275.3317-.073.4894-.1352.05-.0182.0965-.0461.1352-.0823.0392-.0362.071-.0798.0926-.1289.0176-.0554.0196-.1141.0064-.1705-.0132-.0568-.0416-.1088-.0823-.1499-.2734-.1842-.6026-.2675-.9309-.2352-.3283.0323-.635.1783-.8672.412-.1377.1328-.2445.2939-.3121.4728-.051.1269-.0593.2028-.051.2028.1112-.2259.2597-.4316.439-.608.1989-.1769.4458-.291.7094-.3292.1553-.0304.315-.0299.4703.0019.1548.0318.3018.0946.4326.1837.1097.1097,0,.245-.1014.3043-.1465.0597-.2993.1024-.4556.1264-.2783.0534-.561.0847-.8442.0931-.4473.0083-.7344.0083-.7344.0083Z"/>
  <path class="j" d="M76.304,436.0041s.1519-.169.169-.5149c-.0005-.2048-.047-.4067-.1352-.5909-.048-.1225-.1269-.2303-.2288-.3136-.1019-.0828-.2239-.1377-.3537-.1592-.0397.002-.0789.0123-.1151.0294-.0358.0176-.0681.0417-.095.0715-.0265.0299-.047.0647-.0603.1024-.0132.0377-.0186.0774-.0167.1176.0039.1225.0328.243.0848.3542.075.1842.1744.3572.2954.5149.1019.1524.2376.2797.3964.3714,0,0-.1347-.1602-.3121-.4302-.1014-.1602-.1862-.3297-.2533-.5066-.0843-.1774-.1181-.4728.0759-.4811.194-.0083.363.2278.4645.3969.0843.1622.1333.3405.1436.5232.0025.1734-.0176.3464-.0593.5149Z"/>
  <path class="j" d="M63.5236,433.4128s.3464,0,.8442.1519c.6913.1754,1.3189.5429,1.8103,1.0592.4914.5169.8265,1.1621.9671,1.8613.1097.5321.0843.8442.1097.8442.0137-.0784.0137-.1582,0-.2361.022-.219.022-.4395,0-.6585-.1151-.7325-.4502-1.4125-.9617-1.9495s-1.1739-.9054-1.9-1.0558c-.2141-.0416-.4316-.0647-.6501-.0676-.075.0064-.1489.0235-.2195.051Z"/>
  <path class="j" d="M65.4397,428.6433c-.1955.8005-.3425,1.6129-.4385,2.431-.148.8123-.2469,1.6325-.2954,2.4566.1955-.8006.3425-1.6124.4385-2.4311.148-.8118.2469-1.6324.2954-2.4565Z"/>
  <path class="j" d="M68.952,436.4935c.5414.2151,1.1092.3547,1.6883.414.5781.1117,1.169.1455,1.7559.1009,0-.0421-.7765-.1009-1.7388-.2445-.9622-.1436-1.6883-.3043-1.7055-.2704Z"/>
  <path class="j" d="M66.6224,436.1731s.0421.1774.0926.363c.051.1857.0759.3547.1181.3547.0426,0,.0848-.1774,0-.3968-.0843-.2195-.1857-.3464-.2107-.3209Z"/>
  <path class="j" d="M65.8875,434.9576s0,.1602.1347.3038c.1352.1436.2195.2361.2533.2112.0338-.0255,0-.1607-.1347-.3043-.1352-.1431-.2195-.2361-.2533-.2107Z"/>
  <path class="j" d="M64.6975,434.257c0,.0421.1602.0593.3292.1519.1685.0931.2783.1945.3121.169.0338-.0255,0-.2028-.245-.3038-.2445-.1014-.4052-.0171-.3964-.0171Z"/>
  <path class="j" d="M63.8366,433.9277s0,.1014.1352.1524c.1347.0505.1857.0671.2023,0,.0171-.0676,0-.1097-.1347-.1607-.1352-.0504-.1857-.0338-.2028.0083Z"/>
  <path class="b" d="M35.9968,419.8304l4.972-4.0601-7.555-9.37-7.3356,5.9091.4305.6159c1.9415,2.6931,10.0621,13.5824,11.9784,14.8822,2.1356,1.4267-2.4902-7.9771-2.4902-7.9771Z"/>
  <path class="b" d="M28.8558,415.6101c.6824-.7721,1.0499-1.7726,1.0298-2.8029.0097-1.0078-.3576-1.9832-1.0298-2.7348l-2.6168,2.1102,2.6168,3.4276Z"/>
  <path class="j" d="M38.1409,424.5411s1.4435,3.4354.7091,3.4526c-.7344.0167-9.3868-10.6703-12.7718-15.6843l.2195-.1519,9.944,12.5609s1.4097-.7094,1.8993-.1774Z"/>
  <path class="j" d="M26.1882,411.9718s0,.0676.1097.1774c.1097.1097.2195.3038.3461.4811l1.3,1.7643c1.1058,1.4772,2.659,3.503,4.4317,5.6979,1.7727,2.1949,3.3766,4.1532,4.6174,5.5461l1.4435,1.6457c.1435.169.2786.3126.3967.439l.1519.1524-.1266-.169-.3799-.4556-1.4097-1.6883c-1.1818-1.41-2.811-3.3766-4.5837-5.5715-1.7727-2.1949-3.3765-4.2208-4.457-5.6642-.5318-.6839-.9792-1.266-1.3337-1.7388-.1435-.169-.2617-.3292-.3714-.4645-.0421-.0529-.0873-.1039-.1351-.1519Z"/>
  <path class="j" d="M36.098,424.7944c.3416-.1499.6981-.2631,1.0636-.3375.3752-.0245.7521-.0049,1.1227.0588-.3411-.2077-.7478-.2797-1.1396-.2024-.3945.0328-.765.2028-1.0467.4811Z"/>
  <path class="j" d="M35.2712,420.9028c0,.0421.2701.0421.5993,0,.0175.072.0609.1352.122.1779.0611.0421.1356.0607.2094.0519.0738-.0088.1418-.0446.1912-.0999.0493-.0559.0766-.1274.0766-.2018s-.0272-.146-.0766-.2018c-.0494-.0554-.1174-.0911-.1912-.1-.0738-.0088-.1483.0098-.2094.0524-.0611.0421-.1045.1053-.122.1779-.3461.0421-.5993.1009-.5993.1435Z"/>
  <path class="j" d="M35.0597,419.8225c0,.0421.211.1097.4896.1519.2785.0421.498.0504.5064,0,.0085-.051-.211-.1098-.4811-.1519-.2701-.0426-.5065-.0426-.5149,0Z"/>
  <path class="j" d="M35.5582,418.632s.1182.2616.3292.5404c.211.2783.4221.4728.4474.4473.0253-.0254-.1182-.2699-.3292-.5404-.211-.27-.3968-.4723-.4474-.4473Z"/>
  <path class="j" d="M36.0472,417.9652c.0269.2484.1268.4836.287.6751.2279.3375.498.5321.5233.4982.0253-.0338-.1857-.2616-.4052-.5825-.2195-.3209-.363-.608-.4052-.5909Z"/>
  <path class="j" d="M36.343,420.5653c.1294.2249.2948.4272.4896.5992.2052.1916.4254.3665.6584.5232.1383.1.2886.1823.4474.245.0978.0377.2061.0377.3039,0,.053-.0264.0972-.0676.1272-.1186s.0444-.1092.0416-.1685c-.0735-.3189-.2546-.6031-.5129-.8045-.2582-.2014-.5779-.3077-.9053-.3013-.1947.0073-.3863.0504-.5656.1264-.1182.0593-.1773.1097-.1688.1186.2339-.0926.4829-.1416.7344-.1436.2657.0098.5233.0946.7428.2445.2701.1739.461.4468.5318.7599,0,.1519-.135.2024-.287.1519-.1446-.0597-.2831-.1332-.4136-.2195-.2329-.1484-.4556-.3116-.6669-.4894-.3545-.3376-.5403-.5404-.5571-.5232Z"/>
  <path class="j" d="M36.4531,420.7509s.2194,0,.4727-.2704c.141-.145.2452-.3214.3039-.5149.0507-.1225.0688-.2562.0526-.3875-.0163-.1318-.0664-.2572-.1454-.3635-.0641-.048-.1438-.0701-.2235-.0627-.0797.0078-.1535.0455-.207.1048-.0869.0902-.1506.2004-.1857.3209-.0682.1847-.1136.3778-.1351.5737-.0454.1774-.0454.3631,0,.5404,0,0,0-.2028.0676-.5232.0316-.1886.0854-.3729.1604-.5488.0591-.1774.2448-.4223.3883-.2954.0553.0902.0901.1911.1018.2964.0117.1048,0,.2112-.0342.3111-.0511.1759-.1373.3395-.2532.4811-.1857.2367-.363.3381-.363.3381Z"/>
  <path class="j" d="M28.9059,410.0978s.2363.2533.5318.7089c.3771.606.5815,1.3037.5909,2.0175-.0018.7124-.2004,1.4105-.574,2.0176-.2785.4639-.5403.6923-.5233.7173.0693-.0446.1342-.0951.1942-.1519.1566-.1578.2979-.3302.4221-.5149.42-.608.6449-1.3292.6449-2.068s-.225-1.4605-.6449-2.068c-.1237-.1847-.2681-.3547-.4306-.5066-.0595-.0642-.1313-.1156-.211-.1519Z"/>
  <path class="j" d="M33.5822,407.9284c-.6923.4503-1.3576.9407-1.9922,1.4688-.6592.4934-1.2904,1.0235-1.8909,1.5869.694-.4478,1.3594-.9382,1.9922-1.4688.6613-.4909,1.2926-1.021,1.8909-1.5869Z"/>
  <path class="j" d="M30.7546,416.0569c.2549.5325.5784,1.0294.9623,1.4776.3455.4777.7544.9069,1.2156,1.2743,0,0-.4981-.6075-1.0974-1.3674-.5993-.7599-1.0467-1.4095-1.0805-1.3846Z"/>
  <path class="j" d="M29.2771,414.2172s-.0928.1519-.1773.3292c-.0844.1774-.1857.3121-.1604.3459.0253.0338.1857-.0759.287-.2783.1013-.2028.0929-.3968.0507-.3968Z"/>
  <path class="j" d="M29.581,412.8326s-.0929.1347-.1097.3121c-.0169.1774,0,.3209,0,.3292,0,.0088.0928-.1347.1097-.3121.0169-.1774.0422-.3209,0-.3292Z"/>
  <path class="j" d="M29.1766,411.5245s.076.1602.1351.3375c.0591.1774.0675.3292.1097.3376.0422.0088.1097-.1769,0-.388-.1097-.2112-.2195-.3464-.2448-.2871Z"/>
  <path class="j" d="M28.7959,410.6715c-.0422,0-.0422.1014,0,.2112.0422.1097.0928.1685.135.1602.0422-.0083.0422-.1097,0-.2107-.0422-.1014-.0759-.169-.135-.1607Z"/>
  <path class="g" d="M55.0237,223.2225c-.9908.3836-1.8195,1.096-2.3468,2.0185-.5273.9221-.721,1.998-.5486,3.0464-1.0774.0838-2.1014.5032-2.9279,1.1994-.8265.6962-1.4139,1.6339-1.6794,2.6814-.2656,1.0475-.196,2.1518.1989,3.1576.3949,1.0058,1.0953,1.8627,2.0026,2.4497-.7631,1.0754-1.1161,2.3879-.9953,3.701.1208,1.313.7075,2.5393,1.654,3.457.9465.9181,2.1902,1.4669,3.5062,1.5472,1.316.0808,2.6174-.3121,3.6687-1.1078.5201.951,1.3167,1.7216,2.2844,2.2101.9677.4885,2.0609.6712,3.1347.5247,2.1606-.3439,4.1066-1.5041,5.4363-3.2414.9054,1.1033,2.1724,1.851,3.576,2.1097,1.4037.2592,2.8539.0127,4.0934-.6947,1.2395-.7079,2.1885-1.8314,2.6795-3.1718.4904-1.3405.4904-2.8117.0005-4.1522.8613-.1112,1.6579-.5149,2.2571-1.1435.5992-.6281.9647-1.4434,1.0347-2.3091.0343-.8677-.1534-1.7299-.5448-2.5055-.3915-.7751-.9735-1.438-1.6922-1.9259,0,0,4.1703-7.0232-3.7813-6.5338"/>
  <path class="g" d="M81.5385,239.7s-.1774-.0764-.2278-.3719c-.0289-.1788.0005-.3621.0843-.5232.0578-.1122.1391-.2107.2381-.2891.099-.0789.2136-.1357.3356-.1666.2895-.0656.5928-.0142.8442.1436.1426.0955.2636.2205.3552.3655.0916.1455.1519.3087.1769.4787.0314.3866-.0715.7726-.2915,1.0921-.22.3199-.5433.5541-.9157.6634-.3586.1142-.7403.1333-1.1087.0564-.3679-.0769-.7099-.2474-.9931-.4953-.4463-.4061-.7285-.9612-.7937-1.5614-.0387-.2014-.0309-.4086.023-.606.0544-.1979.1534-.3802.2896-.5335.2361-.194.4218-.1519.4218-.1352,0,.0171-.1519.0676-.2954.2533-.0892.145-.147.3072-.1685.4762-.022.1685-.0078.34.0421.5032.0901.5036.3528.9603.7427,1.2915.2317.1911.5071.3219.802.3807.2944.0588.5987.0441.8863-.0431.2812-.0759.5286-.245.7021-.4796.1729-.2342.2616-.5203.2518-.8118-.0108-.1117-.0431-.2205-.0965-.3194-.0529-.099-.1249-.1867-.2121-.2572-.0877-.071-.1881-.1235-.2959-.1548s-.221-.0411-.3327-.0284c-.1548.0309-.2949.1142-.3959.2352-.1014.1215-.1583.2739-.1612.4321.0255.2616.1181.388.0931.4052Z"/>
  <path class="g" d="M50.1526,235.4032s0,.3719-.4052.8442c-.2633.2606-.5984.437-.9623.5066-.4915.0843-.9969-.0083-1.4266-.2616-.5214-.295-.9332-.7511-1.1733-1.2998-.2673-.6198-.3859-1.2934-.3461-1.9671.0337-.7496.2574-1.4786.65-2.1185.2151-.3503.5013-.6516.8401-.8843.3388-.2327.7226-.3915,1.1267-.4664.3943-.0843.8032-.0696,1.1905.0421.3873.1122.741.318,1.0296.5992l-.3461.2533c-.6367-1.0877-.9088-2.3507-.7766-3.6045.0649-.5095.2607-.9936.5685-1.4046.3077-.4116.7168-.7359,1.1874-.9421.3151-.1195.653-.1671.9889-.1391.3359.0274.6614.1298.9526.2998.2132.1156.3845.2959.4896.5149,0,0-.1688-.1857-.5656-.3802-.2773-.1249-.5779-.1896-.8821-.1896s-.6049.0647-.8821.1896c-.408.2038-.7581.5071-1.0178.8819-.2597.3748-.4207.8089-.4679,1.2626-.1003,1.1812.1776,2.3634.7935,3.3766l.7175,1.3586-1.072-1.1058c-.2403-.2283-.5327-.3949-.852-.4846-.3192-.0896-.6556-.0999-.9798-.0304-.3463.0647-.6754.2014-.9662.4003-.2907.1994-.5366.4566-.7221.7565-.361.5708-.5702,1.2248-.6078,1.8995-.0814.5649-.0064,1.141.2168,1.6667.2232.5252.5862.9794,1.0493,1.313.3662.2327.8009.3341,1.2325.2866.3289-.0421.6392-.1769.8948-.388.2241-.2249.4018-.4919.5233-.7854Z"/>
  <path class="f" d="M58.2824,222.9609c0,.1264-.7513.194-1.6883.2866-.5552.1195-1.1278.1338-1.6883.0426,0-.1186.7006-.3885,1.6883-.4816.9876-.0926,1.6967.0338,1.6883.1524Z"/>
  <path class="f" d="M57.2441,230.0262c.0591.1097,0,.2954-.1942.4135-.1941.1181-.3629.1436-.4474.0593-.0844-.0848,0-.2788.1942-.414.1941-.1347.3883-.1685.4474-.0588Z"/>
  <path class="o" d="M75.5113,230.744c.6227-3.2865.3812-6.6783-.7006-9.8428.5233.0608,1.0191.269,1.4287.6007.4096.3322.7163.7736.8838,1.2733.3234,1.0068.3787,2.0803.1607,3.115-.293,1.8466-.9103,3.627-1.8235,5.259"/>
  <path class="f" d="M77.3177,225.3748c.1098,0,0,.5487-.3968,1.0215s-.8863.6668-.9456.5654c-.0588-.1009.2616-.4302.6163-.8442.3547-.4135.6163-.7932.7261-.7427Z"/>
  <path class="m" d="M58.198,251.5603l-1.0721-24.6236,9.8762-7.4789,8.9736,4.3893s.2954,11.269,0,16.1483c-.2954,4.8793-5.2256,5.4108-5.2256,5.4108l.2954,5.5294c.0906,1.6834-.4845,3.335-1.6011,4.5985-1.1161,1.2635-2.6848,2.0371-4.3668,2.1542-.8564.0598-1.7158-.0529-2.5281-.3302-.8123-.2773-1.5609-.7148-2.2018-1.2856s-1.1613-1.264-1.5305-2.0391c-.3692-.7751-.5797-1.6158-.6193-2.4732Z"/>
  <path class="j" d="M74.9959,232.0604c0,.1235-.0367.244-.1053.3469s-.1661.1828-.2802.2303c-.1142.047-.2401.0593-.3611.0353-.121-.024-.2327-.0833-.3199-.171-.0872-.0872-.147-.1984-.171-.3199-.024-.121-.0118-.2464.0358-.3606.047-.1142.1274-.2117.2298-.2803.1029-.0686.2234-.1053.3474-.1053.1656,0,.3243.0657.4414.1828.1171.1171.1832.2763.1832.4419Z"/>
  <path class="j" d="M75.6034,231.377c-.0843.0843-.5404-.3126-1.2155-.3464-.6751-.0338-1.1817.2871-1.2493.1945-.0676-.0931.0505-.1857.27-.3381.2994-.1886.6497-.2788,1.0024-.2572.3532.0211.6903.1524.9647.3758.2023.1769.27.3376.2278.3714Z"/>
  <path class="j" d="M67.7527,232.0604c0,.1235-.0363.244-.1048.3469-.0691.1029-.1666.1828-.2807.2303-.1142.047-.2396.0593-.3606.0353-.1215-.024-.2327-.0833-.3199-.171-.0872-.0872-.147-.1984-.171-.3199-.024-.121-.0118-.2464.0353-.3606.0475-.1142.1274-.2117.2303-.2803.1029-.0686.2234-.1053.3469-.1053.1661,0,.3248.0657.4419.1828.1171.1171.1827.2763.1827.4419Z"/>
  <path class="j" d="M68.1417,231.377c-.0848.0843-.5487-.3126-1.2155-.3464-.6673-.0338-1.1822.2871-1.2493.1945-.0676-.0931.0505-.1857.27-.3381.2989-.1886.6497-.2788,1.0024-.2572.3528.0211.6903.1524.9642.3758.2028.1769.2621.3376.2283.3714Z"/>
  <path class="f" d="M68.3445,237.6996c1.0289.5237,2.1253.9015,3.2586,1.1224-.2513.3376-.6065.5825-1.0112.6967-.4042.1146-.8353.0921-1.2258-.0632-.1857-.0431-.3601-.1235-.5134-.2362-.1534-.1132-.2817-.2562-.3773-.4208-.096-.1646-.1568-.3469-.1793-.536-.0225-.1891-.0059-.3807.0485-.5629Z"/>
  <path class="n" d="M70.7506,245.4063c-2.3223-.099-4.5682-.8574-6.4745-2.1866,0,0,1.4688,3.5878,6.3731,3.3766l.1014-1.19Z"/>
  <path class="j" d="M70.5644,237.0666c.3606-.0975.7325-.146,1.1058-.1436.169,0,.3376,0,.3802-.1607.0171-.1857-.0176-.3728-.1014-.5399-.1436-.439-.2954-.9118-.4561-1.3929-.3204-.996-.5992-1.8995-.7849-2.5325-.1298-.3474-.2121-.7109-.245-1.0808.1818.3234.3258.6663.4307,1.0215.2278.6418.5321,1.5364.8442,2.5325.1519.4894.3038.9539.439,1.4012.1044.2185.1279.4664.0676.7006-.025.0607-.0642.1146-.1142.1573-.05.0426-.1093.0725-.1729.0877-.095.0113-.1916.0113-.2871,0-.3694.023-.7398.0059-1.1058-.0505Z"/>
  <path class="j" d="M59.2442,233.0903c1.5279-.3038,2.811-.5149,3.25-.5404-.0637-.2768-.095-.56-.0931-.8442-.002-.581.1249-1.1553.3714-1.6814.2469-.5262.6075-.9911,1.0558-1.361.4483-.3699.973-.6354,1.5364-.778.5634-.1426,1.1513-.1582,1.7216-.0456.6149.1107,1.194.3684,1.6883.7511.6991.5409,1.1886,1.3076,1.3841,2.1694.0539.2298.0818.465.0848.7011.0127.0808.0127.1636,0,.2445,0,0,0-.3376-.169-.9201-.2298-.8162-.7222-1.5345-1.4012-2.0425-.4635-.3464-1.0009-.5801-1.5702-.684-.6536-.1151-1.3258-.0568-1.9499.169-.7354.2509-1.3748.7246-1.8284,1.3552-.4537.631-.6996,1.3875-.704,2.1645.0024.7864.2538,1.5516.7178,2.1866.4213.5909,1.0093,1.0436,1.6883,1.2998.583.2141,1.2106.2793,1.825.1891.6149-.0897,1.1974-.3317,1.6952-.704.6786-.5081,1.1714-1.2263,1.4012-2.0425.0642-.2327.1093-.4699.1347-.7094-.1264,0-.2023-.0588-.2023-.0926s.0926-.0759.2278-.1014c.1543-.0142.3096-.0142.4645,0,.193-.0034.3856.0162.5737.0593v-.051c.0054-.8417.2773-1.6604.7765-2.338.4635-.6315,1.1038-1.1102,1.8402-1.3762.6668-.2327,1.3831-.2851,2.0768-.1519.6154.1097,1.1949.3675,1.6883.7516.7026.5375,1.1925,1.3057,1.3846,2.1694.0573.2288.0857.4645.0843.7006.0093.0813.0093.1632,0,.2445,0,0,0-.3376-.1774-.9201-.2259-.8162-.7158-1.5345-1.3929-2.0425-.4659-.3479-1.0063-.582-1.5786-.684-.6536-.1142-1.3258-.0559-1.9499.169-.7099.2651-1.3223.7393-1.7564,1.3606-.4341.6212-.6697,1.3596-.6746,2.117.0064.7859.2572,1.5497.7178,2.1866.4233.5889,1.0102,1.0411,1.6878,1.2998.4885.1788,1.0088.2538,1.5276.2215.5188-.0323,1.0254-.172,1.4879-.4096.4625-.2381.8706-.5693,1.1984-.9725.3283-.4037.5688-.8706.7075-1.3718.1607-.5825.1436-.9284.1774-.9284.0093.0843.0093.169,0,.2533.002.2362-.0265.4713-.0843.7006-.1916.8638-.682,1.632-1.3846,2.1694-.4934.3836-1.073.6418-1.6883.7511-.6937.1342-1.411.0789-2.0763-.1602-.7344-.2611-1.3743-.7359-1.8377-1.363-.463-.6271-.7285-1.3782-.7623-2.1572-.1896.0514-.3861.074-.5825.0676-.1489.0103-.2984.0103-.4473,0-.0024.2362-.0309.4708-.0843.7006-.196.8618-.6854,1.629-1.3846,2.1694-.5208.4081-1.1371.6776-1.7902.7824-.6536.1053-1.3233.0426-1.9455-.1818-.6227-.2244-1.1783-.6031-1.6143-1.1009-.436-.4978-.7388-1.0984-.8794-1.7451-.4138.1352-1.6885.4307-3.2079.7261-1.1098.2675-2.2387.4483-3.3766.5404,1.1146-.3807,2.2578-.6717,3.4188-.8696Z"/>
  <path class="g" d="M58.2488,225.4591c.1984.9319.7361,1.7569,1.5088,2.3149.7726.5575,1.725.8079,2.672.7031.947-.1053,1.8211-.559,2.4526-1.2728.6315-.7133.975-1.6364.9637-2.5893.244.6046.6394,1.1362,1.1479,1.5443.5085.4076,1.1131.6786,1.7559.7854.6452.074,1.2949-.0941,1.8235-.4713.5286-.3772.8985-.9372,1.0382-1.5712.1592.4331.4253.8187.7736,1.1215.3483.3023.7677.512,1.219.6085.4507.097.9191.0784,1.361-.0544.4419-.1323.8432-.3748,1.166-.704.3229-.3297.5575-.7354.6815-1.1798.1244-.4444.1337-.9127.0284-1.362-.1058-.4488-.3234-.8638-.6325-1.2062-.3091-.3425-.7001-.6012-1.1362-.7521.4125-.6075.6252-1.3282.6085-2.0621-.0167-.7334-.2616-1.4438-.7011-2.0318-.46-.5713-1.0509-1.0225-1.7221-1.3165-.6717-.294-1.4042-.4213-2.1356-.3719-1.4674.1009-2.8568.6962-3.942,1.6883-.5845-.7124-1.3733-1.2278-2.2596-1.4776-.8868-.2494-1.8284-.221-2.6986.0818-.8697.3028-1.6257.8657-2.1657,1.6119-.54.7462-.8379,1.6398-.8535,2.5609-.6877-.1337-1.3992-.073-2.054.1764-.6548.2489-1.227.6761-1.6518,1.2332-.8254,1.1386-1.3219,2.482-1.435,3.8832-.2714,1.6854-.0788,3.4129.5571,4.9973.7007,1.5531,2.5324,4.7612,2.8617,4.6598,1.0889-2.6505,1.2155-5.9346.7682-9.5474Z"/>
  <path class="g" d="M73.8651,219.0948s.2783-.3797.9789-.4811c.4625-.0627.9328.026,1.3405.2528.4076.2264.7315.5791.9221,1.0049.2224.4684.2763.999.1519,1.5026-.1088.3993-.3248.7614-.6247,1.0465-.5316.4728-.996.4899-.996.4478,0-.0426.3714-.1945.7682-.6585.2553-.2886.4209-.6457.4757-1.0269.0554-.3817-.0024-.7707-.1656-1.1195-.1631-.3493-.4253-.6428-.753-.8446-.3283-.2023-.7084-.3043-1.0935-.293-.6163.0088-.9622.2366-1.0044.169Z"/>
  <path class="m" d="M57.8512,235.6904c.0707-.8143-.0182-1.6344-.2617-2.4144-.1311-.388-.364-.7334-.6743-1.0009-.3103-.267-.6867-.4463-1.0899-.5184-.4686-.0171-.9276.1357-1.2922.4302-.3647.2949-.6103.7119-.6915,1.1734-.0557.4654.0267.9367.2368,1.3556.2101.4184.5388.7663.945.9995.4167.2161.8769.3351,1.3461.3483.4692.0132.9353-.0799,1.3635-.2719"/>
  <path class="n" d="M56.4251,234.9814c0-.0593-.2617.0671-.6078-.0426-.2151-.075-.4014-.2156-.533-.4017-.1316-.1862-.202-.4086-.2015-.6364-.0167-.1146-.0095-.2317.021-.3434.0305-.1117.0837-.2161.1563-.3062.0735-.0608.1584-.1063.2498-.1338.0913-.0279.1872-.0368.2821-.0269.363,0,.6247.1269.6415.0676.0169-.0593-.1604-.2278-.5993-.3547-.1437-.0382-.2943-.0441-.4404-.0162-.1462.0279-.2842.0882-.4037.1769-.1289.122-.2267.2729-.2854.44-.0587.1676-.0767.3464-.0523.5223.0115.3366.1398.659.363.9118.1825.2141.4383.3523.7175.388.5064.0421.7344-.1857.6922-.2445Z"/>
  <path class="o" d="M57.3878,233.2926c-.7088-1.4595-1.318-2.9656-1.8233-4.5074-.7187-1.9142-.9902-3.967-.7935-6.0022.1124-1.0127.4815-1.9798,1.0724-2.8103.5909-.8299,1.384-1.4958,2.3041-1.9338.2629-.1249.5603-.1578.8442-.0926.1755.0794.3246.2072.4293.3689s.1608.3498.1616.5428c-.001.3846-.0756.7658-.2195,1.1224-1.4183,4.3751-2.0248,8.9722-1.7896,13.5653"/>
  <path class="o" d="M60.4427,217.4403c-.0683-.341-.2207-.659-.4433-.926s-.5084-.4738-.8313-.6021c-.3683-.1592-.7813-.1823-1.1649-.0647-.3836.1176-.7128.3679-.9286.7065-.1408.2665-.1998.5693-.1698.8691.03.3003.1478.585.3386.8187.1934.2278.4437.4003.7255.4997.2818.0995.5848.122.8783.0661.5909-.1014.2617,1.8402,1.3844-1.0298"/>
  <path class="o" d="M57.6241,216.6971c-1.4807-.465-3.0763-.4057-4.5183.1676-1.4421.5737-2.6427,1.6261-3.3997,2.9813,1.0594.3018,2.1821.3018,3.2415,0,1.0549-.3096,2.0672-.7491,3.0135-1.3086.3889-.1945.7472-.4449,1.0636-.7427.1577-.1519.2825-.3341.3667-.536.0842-.2019.1261-.4189.1229-.6374"/>
  <path class="o" d="M58.0206,216.3678c-.5386-.4983-.9695-1.1014-1.2662-1.7726-.3471-.9397-.3884-1.9646-.1182-2.9293.2653-.9666.6302-1.9029,1.0889-2.7941.8965,1.1381,1.4786,2.4918,1.6883,3.9254.1026.7158.0395,1.4458-.1844,2.1337-.2239.6879-.6027,1.3155-1.1072,1.8338"/>
  <path class="f" d="M57.4966,226.1685c0,.1181-.4558.2954-1.0467.4811-.5909.1857-1.0721.2954-1.1312.1857-.0591-.1097.3883-.4218,1.0045-.608.6162-.1857,1.148-.1769,1.1733-.0588Z"/>
  <path class="f" d="M57.776,224.4973c0,.1264-.6162.2616-1.3844.439-.7682.1769-1.3928.3204-1.4435.2023s.5403-.4473,1.3422-.633,1.4857-.1269,1.4857-.0083Z"/>
  <path class="f" d="M58.6451,221.2221c0,.1264-.7682.1857-1.6883.2783-.9201.0931-1.6883.1607-1.6883,0,.5031-.3224,1.091-.487,1.6883-.4728.5696-.1034,1.1571-.0358,1.6883.1945Z"/>
  <path class="f" d="M59.244,219.7106c0,.1181-.6838.0843-1.4857.1857s-1.4266.2871-1.4772.169c-.0507-.1181.5571-.4983,1.4266-.608.8694-.1097,1.5363.1352,1.5363.2533Z"/>
  <path class="f" d="M59.7593,218.0057c0,.1264-.5487.2361-1.2156.3797-.6669.1436-1.224.2616-1.2746.1519-.0507-.1097.4643-.4302,1.1818-.5825.7175-.1519,1.3084-.0671,1.3084.051Z"/>
  <path class="f" d="M57.1932,228.0596c.0675.1009-.1604.3542-.4981.5571-.3376.2023-.6668.2871-.7344.1857-.0676-.1014.1604-.3547.5064-.5571.3461-.2028.6669-.2954.726-.1857Z"/>
  <path class="f" d="M55.4543,218.7994c-.1097,0-.3123-.4899-.2194-1.1396.0928-.6501.4221-1.0975.5233-1.0387.1013.0593,0,.5237-.0928,1.0974-.0928.5742-.0844,1.0553-.2111,1.0808Z"/>
  <path class="f" d="M53.4372,219.3309c-.1013.0505-.439-.4728-.3799-1.1989.0591-.7256.4558-1.2067.5487-1.1396.0929.0676-.0759.5575-.1182,1.1651-.0422.608.0676,1.1229-.0506,1.1734Z"/>
  <path class="f" d="M51.7231,219.9135c-.0928.0926-.5403-.3968-.4305-1.1229.1097-.7256.6753-1.0636.726-.9539s-.2195.4645-.287,1.0132c-.0676.5487.0928.996-.0085,1.0637Z"/>
  <path class="f" d="M59.1852,214.4688c0,.1181-.4727.2445-1.0552.3797-.5824.1352-1.072.2366-1.1227.1269s.3967-.4052,1.0214-.5487,1.1564-.0759,1.1564.0421Z"/>
  <path class="f" d="M59.3369,212.9236c0,.1181-.6584.0593-1.4266.0931s-1.3928.1264-1.435,0c-.0422-.1269.5824-.4223,1.4182-.4473.8357-.0255,1.4773.2361,1.4434.3542Z"/>
  <path class="f" d="M58.6784,211.0412c0,.1181-.4643.1264-.9792.1774-.5149.0505-.9539.1181-1.0045,0-.0507-.1181.363-.3885.9623-.439.5993-.051,1.0552.1436,1.0214.2616Z"/>
  <path class="j" d="M80.9133,307.189s9.2093,61.2168,7.884,64.1545c-1.3253,2.9376-46.2417,50.6485-46.2417,50.6485l-13.5062-16.3766s37.3785-41.7174,37.1419-42.8399c-.2361-1.1229-13.2443-60.626-13.2443-60.626l27.9664,5.0395Z"/>
  <path class="o" d="M35.9378,403.5469c.0844.0847,0,.3547-.2954.5997-.2955.2445-.5149.3797-.5993.2954-.0844-.0848,0-.3547.287-.608s.5233-.3797.6078-.2871Z"/>
  <path class="o" d="M39.736,399.7151c.0844.0843-.2701.5825-.7935,1.1141-.5234.5316-1.0214.8863-1.1058.8442s.2701-.5825.7935-1.1141c.5233-.5321,1.0214-.9117,1.1058-.8441Z"/>
  <path class="o" d="M43.5349,395.8907c.0844.0848-.2701.5825-.7935,1.1146-.5234.5316-1.0214.8863-1.1058.8015-.0844-.0843.2701-.5909.7935-1.1141.5233-.5232,1.0214-.8863,1.1058-.802Z"/>
  <path class="o" d="M47.3339,392.0501c.0928.0926-.2617.5909-.7935,1.1141-.5318.5232-1.0129.8863-1.1058.802-.0929-.0848.2701-.5825.7934-1.1141.5234-.5321,1.0214-.878,1.1058-.802Z"/>
  <path class="o" d="M51.1406,388.2345c.0844.0843-.2701.5825-.7935,1.1141-.5234.5316-1.0214.8863-1.1058.802-.0844-.0843.2617-.5825.7935-1.1141.5318-.5321,1.0129-.8868,1.1058-.802Z"/>
  <path class="o" d="M54.9392,384.4527c.0844.0843-.2701.5825-.7935,1.1058-.5234.5232-1.0214.8946-1.1058.802-.0844-.0931.2701-.5825.7935-1.1058.5234-.5238,1.0214-.9289,1.1058-.802Z"/>
  <path class="o" d="M58.7381,380.5783c.0844.0926-.2701.5825-.7935,1.1141-.5233.5321-1.0214.8442-1.1058.802-.0844-.0422.2701-.5825.7935-1.1141.5234-.5321,1.0214-.8868,1.1058-.802Z"/>
  <path class="o" d="M61.532,377.767c.0844.0848,0,.3547-.287.608-.287.2533-.5234.3797-.6078.2954-.0844-.0843,0-.3547.2954-.608.2954-.2528.5149-.3625.5993-.2954Z"/>
  <path class="o" d="M45.8393,419.7373c-.2313-.1837-.4384-.3968-.6162-.633-.3798-.4135-.9117-1.0382-1.5532-1.8147-1.2831-1.5619-3.0051-3.748-4.8285-6.23-1.8233-2.4815-3.3766-4.7862-4.5077-6.4745-.5487-.8442-.9876-1.536-1.2746-2.0259-.17-.2406-.309-.5012-.4137-.7766.2134.2038.4005.4336.5572.6839l1.3928,1.9416c1.1649,1.6457,2.7772,3.9082,4.6005,6.3897,1.8233,2.482,3.5032,4.6936,4.7187,6.2976.5656.7427,1.0383,1.3757,1.4351,1.9073.1963.2215.3611.4684.4896.7344Z"/>
  <path class="o" d="M74.3712,305.509l6.5421,1.6883-5.5627,8.8208c3.0557,16.503,9.1672,51.3829,8.3823,61.9601-1.0382,14.0293-3.4864,56.9961-3.4864,56.9961l-20.082-3.0724,1.3422-59.2081-15.6503-52.497c-1.9483-6.5362-1.3013-13.5717,1.8064-19.6429l1.0552-2.0597"/>
  <path class="j" d="M65.7018,425.7395c.1181,0,.194.2954.1774.6413-.0171.3464-.1436.6246-.2616.6163-.1181-.0083-.2028-.2954-.1774-.6413.0255-.3464.1352-.6246.2616-.6163Z"/>
  <path class="j" d="M66.0399,420.6324c.1181,0,.1774.5909.1352,1.2915-.0426.7006-.1862,1.2665-.3042,1.2577-.1181-.0083-.1857-.5825-.1347-1.2831.0505-.7006.1769-1.2743.3038-1.266Z"/>
  <path class="j" d="M66.3608,415.5341c.1181,0,.1857.5825.1352,1.2831-.051.7006-.1774,1.2743-.2954,1.266-.1186-.0083-.1857-.5909-.1436-1.2915s.1857-1.2665.3038-1.2577Z"/>
  <path class="j" d="M66.6729,410.4182c.1181,0,.1857.5909.1436,1.2915-.0421.7006-.1774,1.2748-.2954,1.2665-.1181-.0083-.1857-.5825-.1436-1.2915.0421-.7094.169-1.2748.2954-1.2665Z"/>
  <path class="j" d="M66.9688,405.3033c.1181,0,.1857.5909.1436,1.2915s-.169,1.2743-.2871,1.266c-.1181-.0083-.194-.5825-.1519-1.2915.0421-.7089.1685-1.266.2954-1.266Z"/>
  <path class="j" d="M67.2471,400.1957c.1186,0,.1862.5825.1524,1.2915-.0338.7089-.169,1.2665-.2871,1.2576-.1181-.0083-.194-.582-.1519-1.2831.0421-.7006.1685-1.2743.2866-1.266Z"/>
  <path class="j" d="M67.5087,395.0808c.1181,0,.194.5821.1519,1.2915-.0421.7089-.1602,1.2743-.2788,1.266-.1181-.0083-.194-.5825-.1602-1.2915.0338-.7089.169-1.2748.2871-1.266Z"/>
  <path class="j" d="M67.7448,389.9649c.1181,0,.194.5825.1602,1.2915s-.1519,1.2748-.2783,1.2665c-.1269-.0088-.1945-.5825-.1607-1.2831s.1607-1.2748.2788-1.2748Z"/>
  <path class="j" d="M67.9472,384.8495c.1186,0,.1945.5821.169,1.2915-.0255.7089-.1436,1.2743-.27,1.266-.1269-.0083-.1945-.5737-.169-1.2831.0255-.7089.1436-1.2743.27-1.2743Z"/>
  <path class="j" d="M68.0912,379.7341c.1264,0,.2112.5742.1857,1.2831-.0255.7089-.1269,1.2831-.2533,1.2748-.1264-.0083-.2028-.5742-.1857-1.2831.0167-.7089.1352-1.2748.2533-1.2748Z"/>
  <path class="j" d="M68.1417,374.6099c.1181,0,.2195.5742.2195,1.2831s-.1014,1.2831-.2278,1.2748c-.1269-.0083-.2195-.5742-.2112-1.2748.0083-.7006.1014-1.2831.2195-1.2831Z"/>
  <path class="j" d="M67.7532,369.5199c.1269-.0588.3968.5233.4556,1.2327.0593.7089,0,1.2915-.1347,1.2998-.1352.0083-.2366-.5654-.3038-1.2576-.0676-.6923-.0848-1.2239-.0171-1.2748Z"/>
  <path class="j" d="M66.0825,364.6916c.1181,0,.388.4728.6158,1.1396.2283.6668.3126,1.241.2028,1.2831s-.3968-.4728-.6163-1.1396c-.2195-.6668-.2871-1.2493-.2023-1.2831Z"/>
  <path class="j" d="M64.4785,359.8379c.1097,0,.3885.4728.608,1.1396.2195.6668.3038,1.2493.1857,1.2915-.1186.0421-.3802-.4811-.608-1.1479-.2278-.6668-.3038-1.2494-.1857-1.2831Z"/>
  <path class="j" d="M62.8827,354.9669c.1181,0,.388.4728.6075,1.1484.2195.6751.3043,1.2493.1857,1.2831-.1181.0333-.388-.4728-.6075-1.1484-.2195-.6751-.2954-1.2493-.1857-1.2831Z"/>
  <path class="j" d="M61.3037,350.0965c.1182-.0421.3883.4728.6078,1.1479.2197.6756.2957,1.2493.1859,1.2831-.1099.0338-.3885-.4728-.608-1.1479-.2195-.6751-.3039-1.2493-.1857-1.2831Z"/>
  <path class="j" d="M59.7337,345.2172c.1182,0,.3883.4811.5993,1.1567.2111.6751.3039,1.2488.1857,1.2827-.1182.0338-.3883-.4811-.5993-1.1563-.2111-.6751-.3039-1.241-.1857-1.2831Z"/>
  <path class="j" d="M58.172,340.3468c.1182-.0421.3883.4728.5993,1.1479.2111.6751.2955,1.2493.1857,1.2915s-.3883-.4811-.5993-1.1562c-.2111-.6756-.3039-1.2493-.1857-1.2831Z"/>
  <path class="j" d="M56.6187,335.4925c.1182,0,.3883.4811.5993,1.1484.211.6668.2954,1.2493.1773,1.2915-.1182.0421-.3798-.4811-.5993-1.1567-.2195-.6751-.2954-1.2831-.1773-1.2831Z"/>
  <path class="j" d="M55.0746,330.5883c.1182-.0426.3883.4811.5993,1.1479.211.6668.287,1.2577.1773,1.2915s-.3883-.4811-.5993-1.1562c-.2111-.6756-.287-1.2493-.1773-1.2831Z"/>
  <path class="j" d="M53.5464,325.7007c.1097,0,.3798.4811.5909,1.1567.2111.6751.2871,1.2493.1688,1.2827-.1182.0338-.3798-.4811-.5909-1.1563-.2111-.6751-.287-1.2493-.1688-1.2831Z"/>
  <path class="j" d="M52.0269,320.8048c.1182,0,.3798.4894.5909,1.1651.211.6751.2785,1.2493.1688,1.2827-.1097.0338-.3798-.4811-.5909-1.1562-.2111-.6751-.2786-1.2493-.1688-1.2915Z"/>
  <path class="j" d="M50.5662,315.9c.1182,0,.3714.4894.5741,1.1651.2026.6751.2617,1.2577.1435,1.2915-.1182.0338-.3714-.4894-.5656-1.1651-.1942-.6751-.2701-1.2577-.152-1.2915Z"/>
  <path class="j" d="M50.1783,310.8439c.1182,0,.152.5909.1097,1.2831-.0422.6918-.1013,1.266-.2195,1.2743-.1182.0083-.2532-.5737-.2194-1.2915.0338-.7173.211-1.2831.3292-1.266Z"/>
  <path class="j" d="M51.0733,305.8044c.1182,0,.1013.6075,0,1.2998-.1013.6923-.3546,1.2322-.4812,1.2072-.1266-.0255-.0928-.5997.0507-1.3003s.3123-1.2322.4305-1.2067Z"/>
  <path class="j" d="M52.0439,302.1157c.1182,0,.1351.3292,0,.6668-.135.3376-.2701.5825-.3883.5487-.1182-.0338-.1351-.3292,0-.6668.1351-.3376.2701-.5825.3883-.5487Z"/>
  <path class="j" d="M60.6544,303.9388c.0915.6026.0276,1.2189-.1857,1.7897-.3828,1.3287-1.1464,2.5168-2.1965,3.4168-1.05.9-2.3406,1.4727-3.7125,1.6481-.7144.1068-1.4429.0725-2.1441-.1014h-.211s.0591-.0421.1942-.0759c.6921.0211,1.3847-.024,2.0681-.1352,1.2951-.2273,2.506-.7961,3.5076-1.6481,1.0017-.8515,1.7578-1.9553,2.1903-3.1973.3714-1.021.4137-1.705.4896-1.6966Z"/>
  <path class="j" d="M80.5924,430.3061c-.9941-.0955-1.9813-.2567-2.9543-.4811-1.8152-.3292-4.3222-.7932-7.0992-1.2493-2.7774-.4556-5.3016-.8442-7.1246-1.0803-.9941-.1053-1.9808-.2719-2.9546-.4982.2799-.0411.5643-.0411.8442,0,.5149,0,1.2579.0931,2.178.1857,1.8402.1857,4.381.5066,7.1668.9627,2.7853.4556,5.2839.9622,7.082,1.3757.9034.2112,1.6295.3885,2.1273.5321.2557.0485.5032.1338.7344.2528Z"/>
  <path class="m" d="M110.475,277.2471c.4561-1.4855,6.0865-4.5329,5.2423-5.3604-1.1058-1.0803-5.7401,3.4442-6.1536,3.799-.414.3542-.9289-.2533-.5321-.5487.5659-.4307,6.424-5.0649,5.3437-6.1624-.5914-.5909-1.5364.608-1.5364.608,0,0-5.1747,4.769-5.6641,4.2203-.4899-.5482,2.4477-3.4354,3.503-4.3389,1.0553-.903,1.0637-1.7726.2954-1.9161-.5232-.1009-3.8406,2.6001-4.8621,3.5285-1.0215.9289-3.8073,3.5035-3.4442,1.0891v-.1097c.4223-2.3634,0-4.3222-.5571-4.8033-.1244-.0887-.2704-.1416-.4223-.1538-.1519-.0123-.3047.0167-.4414.0843-.1367.0676-.2528.171-.3356.2993-.0828.1279-.1293.2763-.1342.4287-.024.1142-.024.2322,0,.3464v.1857c.0279.8192-.026,1.6393-.1607,2.4477-.1068.732-.3381,1.4399-.6835,2.0935-.3968.7516-.7682,1.3846-1.0974,1.9078-3.7735,2.0768-14.6035,7.5974-25.4595,8.3823-1.9583.1519-15.1943-17.9125-15.1943-17.9125l-10.1972,10.1294c1.3168,2.2542,5.5375,7.471,12.164,16.5368,10.8557,14.7642,44.8577-9.7159,44.8577-9.7159l.3204-.1519c2.5815-1.2655,5.0894-2.6746,7.5132-4.2208,2.9288-2.0513,2.752-2.3213,2.4649-2.6339-.7854-.8525-5.2761,3.3938-4.8288,1.9416Z"/>
  <path class="o" d="M71.3238,280.0833c-.658-.6237-1.2621-1.3013-1.8069-2.0259-1.0637-1.2998-2.5325-3.1233-4.0096-5.183-1.4772-2.0597-2.8108-3.9842-3.7225-5.3942-.5301-.7369-.9933-1.5193-1.3844-2.338.5997.6776,1.1471,1.4002,1.6377,2.1606l3.8239,5.3099c1.4855,1.9921,2.8279,3.7985,3.8999,5.2506.5796.6967,1.1019,1.4389,1.5619,2.2199Z"/>
  <path class="b" d="M49.5959,252.9948s-7.8589,4.3477-3.5538,18.1491c2.6651,8.394,7.2555,16.0483,13.405,22.3528l12.1218-12.7295c-5.5554-5.5039-10.4194-11.6634-14.4854-18.3432l-7.4622-9.4376-.0253.0083Z"/>
  <path class="f" d="M86.3408,256.4224c-.1019.1328-.2146.2572-.3376.3714l-1.0215,1.0127-3.7901,3.6637c-.8863.8535-1.8593,1.6119-2.9038,2.2625-1.2307.7457-2.6378,1.1509-4.0772,1.1734-1.5766-.0059-3.1405-.292-4.6171-.8442-1.5448-.5066-3.0557-1.241-4.6093-1.925-1.4889-.6962-3.0481-1.2312-4.651-1.5952-1.4875-.3092-3.0257-.2773-4.4993.0926-2.5133.659-4.7478,2.1097-6.3732,4.1365-1.0946,1.3733-1.9637,2.9117-2.5747,4.5583-.4389,1.1563-.5909,1.8402-.6247,1.8231.0027-.1656.0283-.3307.076-.4894.076-.3292.1942-.8442.3883-1.3929.5686-1.6981,1.4253-3.2855,2.5324-4.6931,1.6417-2.1175,3.9299-3.6412,6.5168-4.3389,1.533-.391,3.1343-.4316,4.685-.1186,1.6368.3621,3.2281.9059,4.7439,1.6207,1.5702.6839,3.0645,1.41,4.5667,1.9166,1.4311.5399,2.945.8256,4.4741.8437,1.3723-.0132,2.7167-.3861,3.8999-1.0803,1.0338-.6252,1.9989-1.3581,2.8789-2.1861l3.9165-3.554,1.0803-.9456c.097-.1142.2043-.2185.3209-.3121Z"/>
  <path class="f" d="M66.3358,275.0865c-.8035.2347-1.5506.631-2.1949,1.1646-.6673.6036-1.2366,1.3071-1.6883,2.0852-.5487.8442-1.0552,1.9078-1.6883,2.9376-.6038.996-1.4053,1.8578-2.3552,2.5325-.7699.5326-1.6269.927-2.5324,1.1651-.619.1489-1.2542.22-1.8909.2107-.2325.0137-.4652-.0206-.6838-.1009.8539-.07,1.7007-.2087,2.5324-.414.8676-.2606,1.6862-.6624,2.4227-1.19.8932-.6595,1.6477-1.4884,2.2201-2.4394.6331-1.0049,1.1564-2.0347,1.7391-2.921.5017-.801,1.1317-1.5139,1.8652-2.1102.5002-.3924,1.0744-.6795,1.6883-.8442.1813-.0637.3738-.0896.5659-.0759Z"/>
  <path class="o" d="M71.7971,280.4719c-.462.728-.9902,1.412-1.5786,2.0425-1.0382,1.2243-2.5325,2.8534-4.2208,4.5667-1.6883,1.7138-3.3766,3.1743-4.6258,4.2208-.6363.5825-1.3291,1.0999-2.0682,1.5448.5769-.6389,1.2005-1.2341,1.8656-1.7809,1.1818-1.072,2.7941-2.5325,4.5246-4.2712,1.7304-1.7393,3.2414-3.3007,4.3305-4.4574.5404-.6678,1.1332-1.2915,1.7726-1.8652Z"/>
  <path class="o" d="M49.2918,280.32c1.7194,1.9661,3.3286,4.0263,4.82,6.1707,1.6074,2.0572,3.0955,4.2046,4.457,6.4324-1.715-1.9676-3.3213-4.0278-4.8116-6.1707-1.6082-2.0582-3.0991-4.2061-4.4655-6.4324Z"/>
</svg>
