<?xml version="1.0" encoding="UTF-8"?>
<svg id="a" data-name="Layer 1" xmlns="http://www.w3.org/2000/svg" viewBox="0 0 566.9291 566.9291">
  <defs>
    <style>
      .b {
        fill: #e30613;
      }

      .b, .c, .d, .e, .f, .g, .h, .i, .j, .k, .l {
        stroke-width: 0px;
      }

      .d {
        fill: #fff;
      }

      .e {
        fill: #09f;
      }

      .f {
        fill: #202020;
      }

      .g {
        fill: #263238;
      }

      .m {
        opacity: .3;
      }

      .h {
        fill: #d1734a;
      }

      .i {
        fill: #ff9a6c;
      }

      .j {
        fill: #eb996e;
      }

      .k {
        fill: #455a64;
      }

      .l {
        fill: #ffbf9d;
      }
    </style>
  </defs>
  <g>
    <path class="f" d="M27.5228,16.3931c.0073-3.0175-.0762-1.9343-.0913-2.3882.0186,5.0486.1133,2.2611.0913,2.3882Z"/>
    <polygon class="f" points="27.7132 66.2 27.679 65.3185 27.7625 72.6606 27.7132 66.2"/>
    <path class="f" d="M27.7117,112.7756c.1426-4.4032-.0234-16.8766.0273-25.1747l.0327-1.3676-.1147-3.7436c.0181,10.0847.0415,23.1818.0547,30.2859Z"/>
    <path class="f" d="M27.4026,137.6094c.0557-1.533.0479,5.3714.0176-5.791-.0078.5603-.0098.7221-.0142,1.0489-.0005,1.0045-.0015,2.3881-.0034,4.7421Z"/>
    <path class="f" d="M27.4061,132.8674c-.0039-4.9055-.0469,3.2091,0,0h0Z"/>
    <path class="f" d="M27.4378,155.5188l-.0493-6.4606c-.0332,1.3494-.0405,7.1-.0645,4.964.0273,6.628.0601,5.2645.1138,1.4966Z"/>
    <path class="f" d="M27.5423,161.6445l-.021-3.3483c-.0142.587-.0186,1.4724.021,3.3483Z"/>
    <path class="f" d="M27.4769,151.1963l.0444,7.1c.0229-.9359.0693-1.0347-.0161-3.2595.042.5809.0015-.823-.0283-3.8405Z"/>
    <path class="f" d="M27.4983,147.1763c.0312-3.6246.0508-8.3062.1001-1.8214-.0195-12.3605-.1201-10.5391-.1001,1.8214Z"/>
    <path class="f" d="M27.8592,115.1537l.042-4.845-.0479-4.1914c.0234,2.0937-.0391,9.3369.0059,9.0364Z"/>
    <path class="f" d="M27.3641,195.7669c.0303.4034.0811-2.1724.1196-2.6544l-.0347-4.7723c-.021,2.4528-.04,7.102-.085,7.4268Z"/>
    <path class="f" d="M27.4837,193.1125l.0522,7.1403c.0063-6.3779-.0186-7.5438-.0522-7.1403Z"/>
    <polygon class="f" points="27.7005 162.7963 27.5911 151.0672 27.702 165.0574 27.7005 162.7963"/>
    <polygon class="f" points="27.3602 223.0374 27.2899 218.9891 27.3963 226.2001 27.3602 223.0374"/>
    <path class="f" d="M27.3724,241.1262c-.0581-2.9953-.0986,4.1067-.1343.9399.04,4.9097.0747,9.1055.1055,12.8869-.0254-4.0139-.0186-8.2921.0288-13.8268Z"/>
    <path class="f" d="M27.409,261.2967c-.0205-2.0035-.042-4.0816-.0654-6.3436.022,2.1302.0435,4.2263.0654,6.3436Z"/>
    <path class="f" d="M27.5208,212.4156c-.0181.5527-.0664,1.6157-.0864,5.6195l.0854-2.8077c0-.8572.0005-1.8275.001-2.8118Z"/>
    <path class="f" d="M27.5223,215.1285l-.0024.0988c-.0024,3.0477-.0044,5.1616-.0049,6.0673.001-.7786.0029-2.6342.0073-6.1661Z"/>
    <path class="f" d="M27.5213,211.7076c0,.2602,0,.4518-.0005.7079.0083-.2703.0112-.4337.0005-.7079Z"/>
    <path class="f" d="M27.6233,181.5145c.0479,4.1954.0991,12.9413.1719,4.4778-.0586-3.0095-.1001,1.8355-.1719-4.4778Z"/>
    <path class="f" d="M27.6282,208.2202l.0195-7.5841c-.0225.1493-.0557,1.5168-.0791-.5607l.0596,8.1448Z"/>
    <polygon class="f" points="27.6551 211.9335 27.6282 208.2202 27.6209 211.0319 27.6551 211.9335"/>
    <path class="f" d="M27.4891,248.3049c.0137,3.2803.0288,6.8608.0464,10.9082.0083-4.3393.0171-8.8248.0254-13.0846-.0269-.6011-.0747-2.4729-.0718,2.1764Z"/>
    <path class="f" d="M27.5125,232.1827c.002.226.0039.5162.0049.7281.0073-.4478.0098-.8068-.0049-.7281Z"/>
    <path class="f" d="M27.5345,299.0659c.0054-.2215.0103-.4138.0156-.6394-.0049-.0505-.0083-.0872-.0146-.1492l-.001.7886Z"/>
    <path class="f" d="M27.577,245.4003c.0166-3.2615-.0044-5.21-.0308-7.0677.0044,2.4388.0093,5.0225.0146,7.7958.0122.2703.02.3207.0161-.7281Z"/>
    <path class="f" d="M27.449,272.4146c.0142-1.6992.0303-3.6251.0469-5.6477-.0269,1.66-.0693,5.0466-.0469,5.6477Z"/>
    <path class="f" d="M27.494,234.0101c-.0015-.1634-.0024-.3107-.0039-.4881-.0181,1.069-.0093.9359.0039.4881Z"/>
    <path class="f" d="M27.494,234.0101c.02,1.6763.0361,2.9965.0522,4.3226-.0107-1.9844-.02-3.8257-.0288-5.4218-.0083.4022-.0171.8075-.0234,1.0992Z"/>
    <path class="f" d="M28.0833,311.1399c-.0791-.5748-.1523-9.1493-.0674-16.5499-.0596-7.2836-.3198-2.5213-.4658,3.8364.0347.2259.0664.2259.1133,7.7213.0435-2.6241.1011-16.6306.1729-10.3071.041,9.9279-.0278,8.1348-.0698,12.9615.0986-4.1027.1436,12.6307.2886,10.4685l-.0508-8.7056c.0225-.1634.0586,2.9933.0791.5748Z"/>
    <path class="f" d="M27.5584,284.1458l-.0098-3.084c-.0356,3.512-.061,6.0285-.1074,10.6661.0386,5.1313.0679,6.1964.0942,6.5494l.0112-15.1863.0117,1.0549Z"/>
    <path class="f" d="M27.5482,267.2147c.0864,2.4083.123,9.8149.2163,5.2786-.0063-9.0505-.0723-6.3416-.1094-11.7493.021,14.6054-.0483-4.1954-.0972,6.3577-.0083-2.8709-.0156-5.4523-.0225-7.8887-.0137,2.6299-.0269,5.1652-.0396,7.5538.002-.1331.0034-.2258.0054-.3348l-.0005-.0685.0015.0141c.0107-.6293.0176-.8371.0112-.1271,0,.0487.0015.226.0015.3046.0122.0988.0225.3691.0327.6596-.0176,4.2297-.0225.6656-.0327-.6596-.0034-.0496-.0107-.1522-.0127-.1775,0,.0142-.0005.0343-.001.0544l.0474,14.6296c0-3.0967-.0005-6.9727-.0005-13.847Z"/>
    <path class="f" d="M27.9803,193.7963c-.0073.4539-.0137.4337-.02.468.0107.946.0181,1.305.02-.468Z"/>
    <path class="f" d="M27.9285,199.8151c-.0122-1.065-.0464-1.9505-.0376-5.4077.0259-2.9993.041.0142.0693-.1432-.0225-2.0836-.0615-7.2936-.1035-.7584l.0117,1.0347c-.0298,5.8898-.1372,13.4578-.1489,12.4291.0776-1.7186.1328-3.2354.209-7.1545Z"/>
    <path class="f" d="M27.7601,233.9355l.0425,12.1829.0747-6.2044-.0449.3146c.0176-6.9285-.0376-5.4319-.0723-6.2932Z"/>
    <polygon class="f" points="27.492 300.4597 27.4007 298.844 27.5291 305.8815 27.492 300.4597"/>
    <polygon class="f" points="27.5027 316.2914 27.4236 315.7065 27.4715 319.8858 27.5027 316.2914"/>
    <path class="f" d="M538.4444,351.027l-.0225-3.5803c.0105,1.6938.0173,2.7829.0225,3.5803Z"/>
    <path class="f" d="M538.439,376.944l.0388.6354c-.0215-1.2001-.0371-1.6923-.0388-.6354Z"/>
    <path class="f" d="M208.2205,525.4126c5.2144.0739,11.0396.1885,10.4102.0995l-1.6016-.0867c-3.6436-.0052-6.4346-.0093-8.8086-.0128Z"/>
    <path class="f" d="M474.5171,524.8945c-.4961-.0086-1.0127-.0175-1.5249-.0264-1.2666.0298-2.4585.0579-3.5217.083,1.5168-.017,3.2395-.0364,5.0466-.0566Z"/>
    <path class="f" d="M478.1961,524.5355l6.8743.0559c-1.5469-.0126-3.7571-.0306-6.8743-.0559Z"/>
    <path class="f" d="M538.3524,209.4808l-.0884-4.1773c.0005,6.5352.0449,3.6589.0884,4.1773Z"/>
    <path class="f" d="M27.5345,478.4437c-.021,4.502-.0376,8.0811-.0522,11.2269.0498-5.4218.1245-9.7947.0522-11.2269Z"/>
    <path class="f" d="M539.365,361.2252c-.0156-2.1906-.0332-3.1264-.0527-3.0619.0149,2.2551.0315,3.5298.0527,3.0619Z"/>
    <path class="f" d="M27.4827,502.6664c.0068-.7932.0132-1.5712.0205-2.3781-.0063-3.2905-.0132-6.5999-.021-10.6177-.0371,4.0038-.0601,8.5886.0005,12.9958Z"/>
    <path class="f" d="M221.0472,14.5c-.3735-.0033-.8228-.0074-1.1621-.0104-.1128.0117.4038.0124,1.1621.0104Z"/>
    <path class="f" d="M71.4935,13.6245c1.4727-.0016,3.8745-.0042,6.1396-.0067-1.1035.0012-2.9546.0032-6.1396.0067Z"/>
    <path class="f" d="M27.4647,379.9938c-.0054-3.3584-.0093-.5325,0,0h0Z"/>
    <path class="f" d="M27.8079,363.6638c.0098.7141.0225,1.2566.0425,1.3413-.021-.2763-.0342-.7443-.0425-1.3413Z"/>
    <path class="f" d="M39.2083,524.9016c.0991,0,.1777.0002.2905.0003-.9985-.017-.8271-.0138-.2905-.0003Z"/>
    <path class="f" d="M27.5042,374.941c-.0073,1.2612-.0161,2.7133-.0259,4.2943.0044-.6944.0122-1.9993.0259-4.2943Z"/>
    <path class="f" d="M27.4632,375.6208c.0034-1.1578.0059-2.0674.0083-2.9348-.0142-.4235-.0234-.0484-.0083,2.9348Z"/>
    <path class="f" d="M27.4695,384.6713c.0034-1.9202.0063-3.7111.0088-5.4359-.0059.6595-.0107.9359-.0137.7584.001.9843.0024,2.3741.0049,4.6775Z"/>
    <path class="f" d="M496.1014,14.2678c-.2219-.0025-.4775-.0054-.72-.0082-3.3867.036-1.9001.0303.72.0082Z"/>
    <path class="f" d="M295.6131,524.5115c-.1572.0018-.2402.0026-.3833.0042.1577.001.355.0022.4966.0031l-.1133-.0073Z"/>
    <path class="f" d="M307.6732,524.4468c-5.1353.108-8.0562.0947-11.9468.0719l3.9897.2502,7.957-.3221Z"/>
    <path class="f" d="M538.4192,288.9705l-.0779,8.4696c-.1282-10.2224-.084-17.6189-.1936-9.6677.2715,1.1981.0278,32.9202.2991,34.0982l-.0571,5.5831c-.0049-1.5994-.0056-1.8558-.0105-3.437-.1301,10.8577.1963,8.0662.1577,22.0564-.021,4.8752-.0603,8.278-.0925,4.9539l.0671,10.8638c-.0054,3.1608-.0525,2.3882-.0474-.7584l.0217,16.57-.0081-.123c.0315,2.3684.1021,7.7232.1367,10.3373-.0391,4.2096-.0288-2.1118-.0627-1.0347l.0657,9.1755c-.0703,3.7376-.1387-3.8666-.1284-10.2042-.2712,8.5684.0684,7.6123-.0901,26.1046l-.0344-8.6632c-.1543,5.5852-.0984,12.3463-.1943,22.1411.05-2.3237.2419-19.6097.3096-9.6516-.0205,2.8057-.0303,6.505.0244,11.8764-.0242.0126-.0408.3498-.052.9511-.0046.6035-.0115,1.4674-.0198,2.5356.001,2.138.0027,5.0898.0044,8.3715l-.1279-.4478c.0371,7.096.1021,6.5352.1597,10.7105-.0125,7.9089-.1116,9.5487-.1951,11.4105-.0203,12.665.1589-8.7459.1829,6.2448-.0488,10.533.0034,17.9295.0801,30.53-.0442,7.3723-.0784-1.2889-.115,1.3554l.1021,6.5352c-.0024,1.5995-.0337,1.0832-.0496.821.0396,5.5065.1279.4538.1626,9.111.0308.5116.0383,1.653.0327,3.2364-.012,1.5033-.0273,3.4275-.0449,5.5938-2.8306-.0215-6.0649-.046-9.3188-.0707-3.3584-.0129-6.7393-.008-9.7478.0369-2.6404-.0363,1.2749-.0784.468-.1279-14.6953.1296-12.5935.111-24.6726.2175l-10.2827-.084c7.5557.0961-2.0979.2098-10.5532.3032,2.6816.0438,4.9719.0812,6.5068.1063l-13.4939.0687c-1.6299-.021-.2703-.0649,1.9404-.1183-.9197.0114-1.7927.0222-2.4729.0306-4.825-.0472-2.3237-.1211,1.1335-.1926,1.6433.0267,3.2751.0532,4.8611.0789,3.332-.0778,6.4504-.1638,5.7566-.2387-.8799.0069-2.5667.0201-4.4233.0346.8713-.0211,1.428-.04,1.0247-.0527-.458-.0135-1.8657.0148-4.0725.0474l-3.0679-.1426-.7444.0566-17.6531-.0892c-12.6306.1436-23.6177.3549-43.665.4138,4.9741-.1046,1.0691-.1708,1.3394-.2947,5.4702.1312,15.5273-.0557,25.917-.0291-5.4219-.0137-4.2297-.0728-2.8501-.0934l-18.5305.1193c.4175-.1013-3.9353-.0759-8.7761-.1179,3.6589.2003-13.813.1334-21.3525.1948-.4678-.0673,1.3394-.1359,10.5391-.1197-10.1499-.1508-13.1147.2352-23.0771.1071,2.2471-.0016,3.4575.0087,4.3447-.0255-5.2461.0598-18.0728.0125-15.0552-.0461l2.2412-.0014c-14.9121-.0237-45.3936-.0015-47.6187.1686-.1494-.022,1.9546-.2051,2.856-.2394l-26.6064.5724c2.3438-.1461-6.6543-.4941,5.7119-.5766-3.5498-.0208-7.9429-.0451-15.4282.0065,2.4224.0208,6.0371.2112,2.7271.2246-9.085-.1627-6.3071-.087-17.5059-.2257,3.6309.0314-.4033.2604-6.1401.2531.896-.0342-.478-.2261,1.6201-.25l-14.2808.2249c3.564-.0405.6294-.1906-2.5659-.2542,1.4824.0441-12.3462-.0041-16.1523.0182l6.0532.0521c-16.1245-.0339-15.9268.3163-31.9219.3045,1.9365-.0464,4.7822-.2859-3.3525-.3142-3.7275.1152-16.5073.5541-30.6587.6428l-2.7153-.0659-10.8574.075c6.7612-.1733,25.7354-.5381,36.0967-.68-6.0327-.0521-1.6802-.0776-10.7163-.0717-3.1909-.0617,4.9258-.0936,7.584-.0973l-21.0376-.0398c.936.1345-16.0879.1348-15.2852.2468l22.8491-.1393c.9258.1342-13.2119.3817-28.1177.3579-3.792-.0535,2.8359-.2393,2.5254-.2842-1.9346.0463-14.1475.0884-15.5171.0556l6.3232-.0719c-8.2983-.0506-13.5425.1782-23.5146.0499-3.4409-.0085-10.2769-.1731-10.8721-.0935,5.6138.1534,6.7109.628,2.9692.7432-1.2056-.0122-18.0596-.1826-22.002-.2225-5.668-.1203,8.5078-.2867,3.6831-.39-.2075.0367-3.3384.082-4.6431.0966-3.6147-.0314,1.4966-.1138-6.3579-.0972-1.311.1364-15.9751-.0115-3.7134.1153-7.6846-.0099-8.166-.0105-17.187-.0221,2.8721.0881-8.1006.2998-15.7979.3387.4541-.0347-1.2744-.0798-2.1118-.1004-4.1582-.0068-7.8066-.0127-11.1675-.0182.0195-9.4537.0352-16.8741.0571-27.6589.0332-1.3535.0732-8.4393.1318-5.4218-.0244-2.1118-.0703-4.0522-.0737-8.5825.1177-8.7661.0186,10.0994.1602,3.4169-.0796-.5708-.1094-11.715-.1592-18.1655-.1221,1.9848-.0234,14.906.0264,21.3666-.0425.0076-.085-.6897-.1265-1.9797-.0283-1.2991-.0688-3.179-.1196-5.5361-.0747-4.7267-.1387-11.3759-.1777-19.0508-.042-12.199.1094-5.2887.085-7.4066.0298-22.9136-.2944-19.521-.1729-38.5478.1074-7.5498.2139-.3409.2915-2.015.041,9.938-.0684,15.257-.064,21.9919l.0508-8.2921c.0361,3.1607.063,9.7948.0317,13.4094.0967-6.3275.0186-38.7112.1079-56.3906-.0361-3.1406-.0732-8.5624-.1167-5.9967l.0151,5.5933c-.0869,5.1415-.1201-10.5269-.1606-3.4471-.0605-7.5034-.1567-15.9145-.1074-26.4778l.1226-1.9847c-.0356.2259-.0732,6.9043-.0356,9.8734-.0542-4.4032.166-16.1969.0054-21.0217l-.085,7.4046c-.0615-7.5337-.1919-16.8464-.1533-26.2075-.1211,4.26.0142,2.1582-.1274,8.8104.1763-5.7667-.0078,23.9484.1777,14.6841-.1646,6.8257-.0698,11.8138-.21,20.7372.0405-.2763.0771-3.1607.0571,4.6977.0078.358.0249,1.1931.0356,1.7246-.001.24-.0015.3247-.0029.5305.002-.1573.0029-.2744.0049-.4337.0059.3409.0073.3712.0015-.1614.0288-1.8684.0522-3.3802.0615-4.0038.0933,3.9009.0903,16.3986.1382,20.6243-.019,4.6634-.0464-1.9505-.0894.595l.0718,6.3134c-.0898.6252-.1494,12.3887-.2021,1.4039l-.0039,9.8875c-.0503,5.8212-.0703,13.8289-.0327,18.7666-.019,4.6635.0996,11.7795.0293,7.7172l.0557,15.5071-.0225.1432c-.0112,15.2993.1489,31.4962-.0132,48.988.0063,5.1526.0137,10.4738.0249,19.0913l-.0781,1.6802c.0015,1.2722.0029,2.7585.0044,4.4101,3.6313.0088,7.958.0192,11.6865.0283,3.5518.0078,6.5342.0062,7.7163-.0275,7.1343.2091,32.0972.0457,43.7275.0827l.4395-.1014c8.0054-.0199,15.6812-.039,25.6206-.0638l-.6113-.0896c8.5684-.0737,22.0283.0637,35.5811.0546-.9219.0342-4.3589.0253-6.7915.0046,16.1909.2026,34.1606-.1473,48.8447.0002,3.6587-.0326,6.3091-.0215,8.875.0011-.3408.0018-.645.0033-.9077.0047.375.0002.9316.0007,1.5024.001,1.6157.0152,3.2803.0308,5.083.0478-1.5342-.0173-3.0005-.0338-4.2759-.048,2.8213-.0089,7.1011-.0223,11.2974-.0355l1.7871.0963c.3408-.0009.6152-.0017.9702-.0027,4.1167.0356,3.3101-.0456,1.1133-.118,2.1104-.0221,4.0459-.0424,5.5488-.0581,3.3442.1555,11.0073-.0524,15.5718.1135,2.8281-.0809,21.0923-.0609,23.3271-.231.1431.0222,1.3799.0327-.8853.0341,4.6772.0194,9.3506.0388,13.5464-.0092l1.9849.1225,10.2119-.1647c6.2046.0746,8.7764.118,2.6162.2122,14.8813-.1193,12.0601-.0967,24.7212-.1982l-.6177.0792c4.5225-.003,11.7515-.1091,14.4785-.0436,10.1157.1505,50.0532.0208,76.0186.1606-5.0366-.2331,12.0698.1045,13.0986-.0762,1.5127.0551,5.1313.0862.9258.1342,13.252-.0542,19.9104.0874,29.0596-.0649,1.5168.0554-2.8359.0808-1.4866.1135,1.063-.0119,4.2097-.0479,5.5894-.015,1.3494.0328-1.9404.0463-4.0381.0703,13.5364-.0093,14.9058-.1792,15.8901-.3387,6.8601.0755,10.283.0649,15.2368-.0397,2.3882.0521,6.3718.1068-2.0393.1255,2.366.0037,9.5928.0148,16.2878.0251,3.3477-.0051,6.562-.0099,8.9707-.0135,2.408-.0114,4.0093-.0311,4.1299-.063,1.4824.0324,6.6138.0095,7.8604-.0053,10.6179.0034,11.5515.0037,21.9778.007l-2.8904-.0209c.7373-.0192,1.4792-.0384,2.2537-.0585.8335-.0065,1.7-.0133,2.625-.0206.0066-3.1643.0146-7.0332.0261-12.5273l.0159.2401c.0518-19.2764.0222-8.3142.0735-27.335l-.0959,1.0348c-.2063-1.773.1218-16.8464.043-27.8817l-.0549,3.9837c-.0706-6.027.2805-16.8464.3064-22.8995.0181-1.3192.0288,2.0836.042,3.9252.1218-15.8459-.1255-2.0533-.1548-13.8611.0679-2.1784.1724,2.8057.1851-5.1414.0547-3.9595-.2202-23.0529-.0901-33.8965-.0522,2.3902-.1045,4.7623-.1438-.7221-.0186-8.407.1975-22.728.033-30.3202.0142-1.069.0278-1.4725.0408-1.5168-.0425-6.4263-.0706-20.8845-.1597-24.7552.1655-2.9691.1252-12.957.0818-22.1848-.0159-4.6144-.031-9.0381-.0422-12.2991.0103-1.6299.0186-2.9677.0244-3.8987.0164-.928.0422-1.4437.0803-1.4258l-.0164-19.767.0312.5164c.0203-12.6348-.053-17.1025-.1265-21.5441.021-2.9207.0493-.7887.0654-.5466.0615-18.462.0486-20.2975-.1035-35.7763l.0991-1.6096c-.0576-4.1954.1553-26.6916.0398-44.7986.0112.1775.0305.5527.0444,1.9908-.1165-20.3722.2749-48.7722-.0862-56.2372l-.0889-13.4436c-.0281,17.393-.1567-2.5899-.2166,4.5646-.0212-6.8398.1089-17.6835.1274-9.2784l-.0181,1.3151c.1882,3.0881.0667-21.6126.1948-21.1447.0222-21.8128.0442-43.2757.0657-64.225-12.2634-.0126-24.3181-.025-36.196-.0373l3.6931.1463-11.1826-.0084c-2.9348-.0341-3.9392-.1144,4.0383-.1084-2.0979-.0414-5.4426-.0241-8.2915.0076-2.8486.0317-5.2017.0778-5.3157.0937-15.6199-.0593,6.1016-.1706,1.3113-.1741l-6.5051.0109,1.4666.0171c-5.2727.0598-5.7407.1232-15.3296.1159-6.0674-.0293-3.1123-.0902-5.5005-.0959,0,0-.1912-.009-.75-.0101-.5586.0011-1.4778.003-2.9131.0059l-14.0891-.0125,5.6338.1155c-6.2449.0569-13.248-.0061-6.7471.1248-9.5427-.2018-52.5542-.0724-58.4136-.1351-8.7461.0842-17.3789.0827-28.0732.0726,2.6582.024,4.25.1539-4.9741.138,3.3726-.268-16.8906-.1163-24.3457-.3091,6.6621.1279-26.2236.0316-15.769.2131-7.6973-.0217-.4683-.1003-6.3076-.1634-18.3188.1038-40.3711-.0675-63.0146-.0324-.3525.0352,3.4395.089-1.418.1413l-11.9546-.1759c-4.4722.0173-4.1172.203-12.2881.081,1.1538.0296,2.8765.0742-.123.0854-44.3589-.1714-90.644.1404-135.6929-.1816,6.1016.0682,2.0352.0749-2.624.0775,3.0298.0163-.0684.0869.5264.1346l-18.8594-.1324c-3.437.1323-20.2207.009-22.1895.1354l5.9727-.0227c-7.9434.1493,11.1138.3318,9.9521.5234,8.8931-.1697,23.4502.2514,38.0415.0084,3.2212.0391-2.7476.0617-1.0249.1061,3.6992-.0821,8.165-.0992,16.4429-.0624l-.9355.0203c23.2534.045,33.2246.0643,59.3491.1148l-1.9341-.0947c5.6104.0393,6.7944.0477,9.4233.0661,6.4429-.1436-15.7671-.0081-9.8975-.1665,7.4468.1928,39.5884.0029,44.6211.222,8.6372.0012-2.5312-.1097,6.1016-.1084l2.2896.0593,2.1821-.0764c5.6621.0126,8.5181.0867,8.73.1369-1.374.0047-3.9053.0133-5.3774.0184,7.3418.0698,20.7026-.0239,23.2241-.0011l-8.2979-.0365c23.5698-.0308,52.3394-.0684,75.1167-.0981l-1.7285-.0447c17.3887-.0827,13.9272.0491,33.019.0108l-.6938.0107c3.8198-.0445,8.9233-.067,14.1475-.0619-4.8208.0523,9.0703.1018,2.7471.1597,18.8555-.0888,9.3267-.0697,21.7803-.2358l2.8721.0741c4.2437-.0671,4.5986-.1024,14.1333-.1217-7.8198.0637,6.0854.113-2.6743.1972,20.0068.1622,29.709-.1638,38.8884.0734,9.1877-.2053-17.3142-.114-12.1687-.1579-4.3086-.0671,7.584-.1534,13.863-.1328,6.3921.0046,10.8679.2626,26.9458.2587-1.5994.0066-1.7087.0071-3.304.0137,6.0168.0523,11.7896-.0709,19.1699.0142,4.137-.1241,9.583.0071,10.7751-.1512l-14.7488.0366c8.3608-.0414,16.2009-.2267,29.9753-.1368-1.0828.0132-5.1743.0631-7.9875.0974,4.0337.0057,7.75.011,11.9309.017-1.1899.1585-17.9233.0345-26.8811.1553,4.3225.0669,16.9451-.1147,12.4431.0568,6.4707-.2182,15.8418.0276,26.73-.139l-.7183.0949c1.7234-.0117,5.2947-.0359,8.4636-.0573l-5.7405.1231c2.8572-.0341,5.6475-.0364,8.4023-.0259,2.5728.0171,5.1135.034,7.6494.0508l-.0195,3.8802c.0032,1.4748.0066,2.9525.0098,4.4402.0032-2.8019.0054-4.8164.0068-6.2307.0039-.7069.0068-1.2638.009-1.6943.0022-.1113.0042-.2063.0056-.2864.0027-.0516.0049-.0937.0066-.1273-.3623-.0192-.1746-.0463-.0251-.0745.0667-.0141.1094-.0284-.0281-.0423-.0833-.0069-.1172-.0136-.5396-.0201-.3638-.0046-.8481-.0107-1.4871-.0187.8196-.005,1.5884-.0097,2.249-.0138.0049,2.1729.009,3.9636.0125,5.4777-.0071,1.6107-.0129,2.9266-.0181,4.0599-.0364,2.2599-.061,3.7916-.0884,5.478-.0698,3.3658-.1443,7.3433-.1226,19.0362-.0132-3.31.0571-12.425.1011-7.2493-.0361,4.6509-.0835,10.7906-.1057,13.6554.0198,16.1969.0977-2.487.156,4.4073-.1157,5.5146.0469,7.9532.084,15.0532l-.0964.0504c-.062,18.456.2009,4.8933.1262,21.5098l-.1338-7.0233.0347,8.6632-.1099-1.7871c.0815,9.4236.0603,12.3584.0295,21.5925.0681-2.1462.175,1.2062.1782,9.3813-.0574,5.5751-.0918-3.1224-.0779,8.4655-.0605-2.6161-.1362-5.4824-.0474-10.525-.0156-.534-.0754-2.5635-.0916-3.1123-.0659,6.0048-.0151,15.0895-.0142,19.285.0081-1.6152.0176-3.5439.0225-4.5363l.1338,16.798c-.0364,2.6443-.0654.5466-.094-1.5309.02,3.4017.0339,5.7586.0632,10.7589-.0784-1.2949-.1594-.9843-.1963-8.0662l.0869,16.0052c-.0339,1.069-.0935,8.2134-.1226,6.1359-.0461,8.873.1521,21.7659.0913,33.5294.0059.6152.0173,1.8397.041,4.3386-.0178,11.0554-.114,20.8502-.0063,33.955l-.1406,7.4348c.032,10.2628.177-10.0651.2302,7.0234.0447,12.0982-.1201,4.5162-.1592,8.76.0708,6.0168.2151,16.4772.1006,27.5912-.0059-3.6813-.0105-6.5632-.0161-10.0005ZM538.4817,415.5422c-.0203-2.4528-.0828-7.342-.0259-9.1352.1106,2.7936.0576,4.9539.0259,9.1352ZM455.8836,524.709c1.8235-.0319,4.6433-.0161,7.8262.0204-2.3096-.006-4.9233-.0129-7.8262-.0204ZM27.5433,416.7988c.002.1048.0034.1773.0049.2622-.0376,5.4703-.0229,3.5298-.0049-.2622ZM27.5853,405.4388c-.0137-1.1417-.0269-1.063-.0405-.5809.0244.7927.0264,3.3443.0195,6.2488.0254-.8068.0425-2.2752.021-5.6679ZM460.2364,13.6184l2.2107.0253c-4.9922.0277-3.5942.0027-2.2107-.0253Z"/>
    <path class="f" d="M477.7,524.577c.6938.0163.8855.0343,1.0488.0524.9641-.0162.9844-.0349-1.0488-.0524Z"/>
    <path class="f" d="M538.3687,210.2534l.001-.3853c-.0093-.2086-.0144-.3201-.0173-.3873l.0164.7725Z"/>
    <path class="f" d="M84.5091,524.5209c2.3354.0258,3.6396.0402,4.5103.0498.127-.0236-.936-.0435-4.5103-.0498Z"/>
    <path class="f" d="M27.4212,345.238l.0254,7.2775c.0166-3.5188.0229-4.7753.0312-6.5534-.0225.1614-.0552,1.5511-.0566-.7241Z"/>
    <path class="f" d="M28.0184,282.0763c-.0044-1.0644-.0088-2.2535-.0132-3.304l-.0449.2905c.0029,4.5303.0391,7.6971.0581,3.0135Z"/>
    <path class="f" d="M27.742,338.5011c.0811-.5768.0537-5.1414.0386-10.2385v.9016c-.1138-1.5027-.0762,3.9293-.0386,9.3369Z"/>
    <path class="f" d="M27.7776,327.0806c-.0005-1.5714-.0015-3.1747-.002-4.7119-.0454-.597-.0093,1.9102.002,4.7119Z"/>
    <path class="f" d="M27.5315,391.029c.021-2.4164-.104-1.5168-.0708-2.8843-.1035-2.6989.125,16.1161.0708,2.8843Z"/>
    <polygon class="f" points="28.0091 334.3743 27.909 336.2017 27.99 339.0578 28.0091 334.3743"/>
    <path class="f" d="M27.9358,374.6224l.0278-8.1448c-.0171.123-.0269-.9117-.0342-2.1824-.0034,2.5092-.0068,5.1389-.0093,7.1174-.002,1.9785.0005,3.3057.0156,3.2099Z"/>
    <path class="f" d="M27.9295,364.2951c-.0068-2.6139-.0132-5.0989-.0166-6.5554.0034,1.4139.0112,4.457.0166,6.5554Z"/>
    <polygon class="f" points="28.0394 345.5083 28.0184 347.9167 28.011 353.6673 28.0394 345.5083"/>
    <path class="f" d="M27.9163,462.1783l.0288,8.8891c.0342.9056.0552-1.5168.0415-4.8268-.0239-2.128-.0371-5.4258-.0703-4.0623Z"/>
    <path class="f" d="M28.1907,435.2951c-.0205,2.4043-.043,2.5657-.0762,3.9211l.1245.2703-.0483-4.1914Z"/>
    <path class="f" d="M28.22,461.2181c.0342.8855.0986,12.9011.0908,1.6339-.0342-.9017-.0625-9.8049-.0908-1.6339Z"/>
    <polygon class="f" points="98.2532 524.8615 95.9925 524.8631 96.3172 525.0668 98.2532 524.8615"/>
    <path class="f" d="M216.305,524.3742c-10.5332-.0488-2.501.1257-12.0195.0648-2.4731.0482,7.7798.0497,5.2441.0913,6.3579-.0508,9.6963-.0221,6.7754-.1561Z"/>
    <path class="f" d="M209.5296,524.5303c-1.0181.0097-2.0972.02-3.2451.0309,1.8403-.0176,2.7075-.0258,3.2451-.0309Z"/>
    <polygon class="f" points="46.6775 13.515 39.9022 13.4726 44.2752 13.541 46.6775 13.515"/>
    <path class="f" d="M33.6736,13.6661l-1.5957-.1298-4.0684.1175c1.5312-.0057,4.5005-.017,5.6641.0123Z"/>
    <path class="f" d="M538.22,434.3592l.0312.5164c.0339-1.0489.0364-2.6343.0417-5.8111l-.073,5.2947Z"/>
    <polygon class="f" points="538.3172 342.4929 538.3148 344.0742 538.4319 341.1193 538.3172 342.4929"/>
    <path class="f" d="M538.1675,265.3913c.0051,3.1465.0112,6.8458.0164,10.0065-.0212-6.8599.1301-10.8577-.0164-10.0065Z"/>
  </g>
  <path class="g" d="M203.5042,203.1787c-6.6532-11.9504-13.2935-24.014-17.8001-36.9305-4.5065-12.9171-6.8287-26.8508-4.632-40.3575.3263-2.0587,3.8537-16.0423,5.9248-16.2431,1.4685-.1381.1007,12.5528,1.0797,13.6449,9.3516,10.6198,14.084,24.679,15.6909,38.7376,1.4502,13.6828,1.3619,27.4852-.2633,41.1486Z"/>
  <path class="j" d="M217.5758,275.8091l-25.4825-123.5948c-7.7198-33.4409,5.3102-65.8145,38.9138-72.6056l3.1508-.4393c15.265-2.1715,30.7874,1.486,43.4771,10.2442,12.6891,8.7582,21.6148,21.9744,24.9983,37.0172,6.5277,29.022,13.3812,61.1695,15.4152,76.9487,4.2175,32.6369-27.6166,42.3532-27.6166,42.3532,0,0,5.9629,32.9633,7.7329,42.4657l-49.2697,6.2768-11.8627,1.0668-19.4566-19.7328Z"/>
  <path class="h" d="M290.4195,245.7327s-20.3855,4.1298-44.2357-6.5277c0,0,13.6822,23.0721,45.8049,15.5153l-1.5692-8.9876Z"/>
  <path class="g" d="M296.671,158.189c.1873,1.2046-.1007,2.4339-.8034,3.43-.7027.9955-1.7654,1.6788-2.9623,1.905-.5861.1325-1.1922.1455-1.783.0395-.5914-.106-1.1551-.3293-1.6581-.6574-.503-.3275-.9354-.7528-1.2717-1.2499-.3358-.4977-.569-1.0573-.6851-1.647-.1844-1.2046.1049-2.4345.8064-3.4317.7021-.9967,1.7624-1.6829,2.9593-1.9156.5867-.1319,1.194-.1449,1.7854-.0377.592.1066,1.1563.3316,1.6593.6603.5036.3287.9354.7557,1.2711,1.2547.3352.4989.5673,1.0597.6821,1.6499Z"/>
  <path class="g" d="M297.7754,141.8708c-.4895.6904-4.3807-1.4184-9.3893-.6904-5.0086.7281-8.3226,3.7657-8.9628,3.2132-.301-.2386.1255-1.4184,1.5692-2.8115,1.9568-1.8089,4.4255-2.9664,7.0673-3.3139,2.58-.387,5.2165.0524,7.5315,1.2552,1.7577.9537,2.4351,1.9703,2.1842,2.3473Z"/>
  <path class="g" d="M253.489,164.315c.1844,1.2034-.1049,2.4321-.807,3.4264-.7027.9949-1.763,1.6788-2.9587,1.9085-.5867.1302-1.1928.142-1.7842.0342-.5908-.1078-1.1545-.3328-1.6576-.6609-.5025-.3287-.9348-.7546-1.2706-1.2529-.3363-.4983-.569-1.0585-.685-1.6475-.1797-1.2122.1196-2.4469.8341-3.4423.7145-.9961,1.7883-1.6746,2.9941-1.8926.582-.1208,1.1822-.1255,1.7665-.0136.5837.1125,1.1392.3387,1.6352.6668.496.3275.9224.7504,1.2541,1.2435.3316.4936.5625,1.0473.6792,1.6305Z"/>
  <path class="g" d="M248.8321,149.9418c-.4895.6904-4.3937-1.4184-9.4023-.7027-5.008.7157-8.322,3.7657-8.9499,3.2132-.314-.2256.1131-1.4054,1.5568-2.7991,1.9568-1.8101,4.4249-2.9717,7.0667-3.3263,2.5806-.3899,5.2177.0495,7.5321,1.2552,1.7571,1.0167,2.4351,2.0463,2.1965,2.3597Z"/>
  <path class="g" d="M272.2682,185.8933c-.063-.2886,2.9752-1.2552,7.9208-2.6236,1.2552-.314,2.4351-.7404,2.5105-1.6446.0754-.9036-.5649-2.2719-1.3931-3.665l-5.1718-9.2138c-7.2181-13.1303-12.6408-23.9887-12.1136-24.2773.5272-.2886,6.8164,10.1174,14.0463,23.2477l5.0216,9.2892c.6904,1.3807,1.7571,2.9122,1.3807,4.9208-.1231.4777-.3534.9218-.6733,1.2977-.3193.3764-.7204.675-1.1722.8741-.678.2939-1.3907.5007-2.1211.615-5.0339.9914-8.1847,1.4561-8.2348,1.1798Z"/>
  <path class="g" d="M248.2295,134.0377c-.5019,1.3807-5.5482.7157-11.4857,1.4308-5.9375.7157-10.7453,2.335-11.5358,1.0921-.3517-.5896.4895-1.8826,2.4227-3.2132,2.5882-1.6399,5.5181-2.6648,8.5641-2.9982,3.0459-.3328,6.1278.0359,9.0094,1.0773,2.1471.8789,3.2391,1.9586,3.0253,2.6112Z"/>
  <path class="g" d="M297.2735,133.5983c-.8535,1.2552-5.1093.7658-10.0425,1.4814-4.9332.7151-8.9251,2.1842-10.042,1.1421-.5148-.5148,0-1.7577,1.6063-3.1131,2.2978-1.6882,4.9856-2.7667,7.813-3.1355,2.8268-.3687,5.7013-.0159,8.3555,1.0267,1.9326.8912,2.686,1.9703,2.3096,2.5983Z"/>
  <path class="g" d="M281.5951,92.3624c3.2262-2.6361-9.6656-12.2767-19.2186-14.6491-14.4232-3.6278-35.4367-3.6278-47.0855,2.1465-14.0086,6.9166-24.9423,16.5195-29.8881,31.382-4.9458,14.8628-4.8579,31.0054-1.6067,46.2822.9917,4.6699,2.3727,9.4647,5.5983,12.9671,3.9919,4.3306,8.8627,5.9375,11.4863,13.1303.8535,2.3597,1.5185,4.8454,3.5395,6.3393,4.8454,3.5649,9.063-1.3937,10.5945-5.8751,3.2762-9.5778,1.9209-20.0845.5148-30.0511-.9914-7.1303-2.0334-14.3985-5.2719-20.8126-1.7577-3.4901-4.1427-6.6656-5.699-10.2558-1.5568-3.5901-2.2348-7.8581-.4647-11.2976.4188-.7587.9059-1.4772,1.4561-2.1465,2.5953-3.2656,6.0135-5.781,9.9029-7.2878s8.1099-1.9506,12.2279-1.2858c13.2805,2.1214,35.8001,4.7952,40.5831-.4519,6.8912-7.5316,8.0716-11.8875,8.0716-11.8875l5.2595,3.7533Z"/>
  <path class="g" d="M275.6698,199.5314c-.6132.4756-3.5448-3.789-9.2747-4.3133-5.7293-.5245-9.9617,3.01-10.3857,2.4835-.2363-.2255.4253-1.5583,2.3347-2.8923,2.4601-1.7615,5.4634-2.5966,8.48-2.3583,2.8967.2421,5.5852,1.6027,7.4963,3.793,1.4152,1.7225,1.7019,3.0912,1.3493,3.2875Z"/>
  <path class="h" d="M257.2047,294.5753c-.0624,0,0-.979-.0624-2.7614-.1096-2.4981-.4453-4.9815-1.0043-7.419-.8488-3.6173-1.9998-7.1568-3.4394-10.5821-1.5816-3.8912-3.6026-8.0587-5.5988-12.5525-1.8561-3.9719-3.4047-8.0804-4.6316-12.2891v-.2386l.2132-.1131c2.6672-1.3848,5.0151-3.3134,6.8912-5.6613l.1261-.1632.1879.1001c1.9603,1.0797,4.1639,1.6417,6.4023,1.6322h.1125v.1001c.744,1.3183,1.6228,2.5553,2.6236,3.6909.6904.8029,1.105,1.2552,1.0797,1.2552-.0253,0-.1255-.0754-.3387-.2515-.2138-.1755-.5148-.4642-.8788-.8406-1.0774-1.1003-2.0169-2.3267-2.7991-3.6532l.1632.1007c-2.3167.063-4.6092-.4777-6.6532-1.5692h.3139c-1.8861,2.4416-4.2747,4.4496-7.0043,5.8875l.1502-.3517c1.2558,4.1639,2.808,8.2336,4.6446,12.176,1.9963,4.4313,4.0043,8.6112,5.5611,12.553,1.4308,3.4618,2.5482,7.0455,3.3387,10.7076.5243,2.4763.7934,4.9998.8035,7.5315.0053.6874-.0236,1.3742-.0878,2.0587-.0059.2221-.0442.4418-.1131.6527Z"/>
  <path class="e" d="M157.2344,297.7385l51.1654-30.7167s39.6919,26.1475,65.5884,16.5573c17.4857-6.4647,17.4857-30.1265,17.4857-30.1265l50.274.1755,44.4996,136.248,11.3856,163.0481h-222.6741l-8.9753-191.3797-8.7493-63.806Z"/>
  <g class="m">
    <path class="c" d="M172.9002,512.9437c15.5528,13.1804,35.8759,19.6451,56.1489,21.7415,20.2724,2.0964,40.7086.1131,60.9939-1.8578,35.022-3.4141,70.7602-2.5105,105.7822-5.8745-.9913-8.7873-1.8702-30.6036-2.8621-39.3532l-220.0629,15.7916v9.5525Z"/>
  </g>
  <path class="j" d="M154.661,447.0667s-4.8202-2.322-7.2053.0878c-1.6524,1.8025-3.0389,3.8311-4.1173,6.0253,0,0-7.7451-2.322-10.9586,4.105,0,0-5.7868,3.6527-2.3599,10.833,0,0-6.1885,8.6365-1.2553,16.1055.5516.8942,1.2327,1.7023,2.021,2.3974,0,0,2.3222,9.0005,5.4228,10.5067,3.1005,1.5062,14.1721,4.8832,14.5486-.1885.3766-5.071-1.6067-4.6069-1.6067-4.6069,0,0,13.0925,7.0926,18.8919,12.3145,5.7994,5.2218,21.0387,12.9542,30.4404,12.9294,9.4023-.0253,5.3856-20.2353,5.3856-20.2353l-49.2072-50.274Z"/>
  <path class="l" d="M364.519,351.251c-.6155,3.0754-1.1174,19.6704-1.1174,19.6704l10.8584,68.6762c-21.4281,4.4437-126.7832,25.8088-126.7832,25.8088l-9.8293,51.7925s165.697-3.0624,184.1746-20.2848c18.4782-17.223,9.1012-86.8905,9.1012-93.6568s-4.5568-51.5416-4.5568-51.5416l-61.8475-.4648Z"/>
  <path class="h" d="M134.1497,469.1845c.5796.1708,1.1426.3935,1.6821.6656l4.4939,2.0463,6.6278,3.1001,1.9081.9042.9916.4642c.4193.1626.7667.4701.9791.8665.0561.126.085.2633.085.4011,0,.1384-.0289.2757-.085.4017-.1074.2309-.2826.4235-.5021.5525-.3828.2232-.8129.3522-1.2553.3764-.7983.1113-1.6058.1408-2.4101.0884-3.2511-.2138-6.1383-1.2559-8.7869-1.6823-1.2399-.2774-2.5259-.2774-3.7659,0-.5254.1402-1.0177.3835-1.4487.7151-.4309.3322-.7918.7457-1.0619,1.2181-.7639,1.4272-1.1036,3.043-.9791,4.657.0434.602.0434,1.2058,0,1.8078-.1581-.5867-.2507-1.1887-.2762-1.7954-.2135-1.6788.0794-3.3834.841-4.8955.2829-.5307.6681-1.0008,1.1335-1.3819.4654-.3817,1.0016-.6668,1.5779-.84,1.3177-.3022,2.6867-.3022,4.0044,0,2.7491.4141,5.6488,1.4314,8.7869,1.6322.7622.0507,1.5275.0253,2.2847-.0754.7155,0,1.4436-.4394,1.2552-.8411-.1883-.4017-1.0419-.6904-1.657-1.0167l-1.8955-.9289-6.6028-3.3139-4.406-2.2219c-.534-.2521-1.0427-.5549-1.5189-.9042Z"/>
  <path class="h" d="M154.9121,465.4064c-1.0729-.5196-2.1164-1.098-3.1256-1.7324-5.0141-2.7974-10.4625-4.7323-16.1178-5.7243-1.1826-.1473-2.356-.3611-3.5148-.6397,1.1999-.0872,2.4059-.0242,3.5901.1879,2.8796.3729,5.7115,1.0503,8.448,2.021,2.7344.9707,5.3564,2.2336,7.8204,3.7657,1.0554.5772,2.0304,1.2906,2.8997,2.1217Z"/>
  <path class="h" d="M153.6317,456.4813c-1.7467-.5048-3.4508-1.1474-5.0964-1.9203-1.1807-.4689-2.3983-.8382-3.6403-1.1051-.5302-.0524-1.0525-.1661-1.5565-.3387,0-.0878.6151-.2132,1.6319-.1255,1.2935.1414,2.5609.4624,3.7658.9537,1.7535.5867,3.4051,1.442,4.8956,2.5358Z"/>
  <path class="h" d="M150.2425,492.8716c-.7569.1108-1.5279.0766-2.272-.1001-1.804-.304-3.5682-.8094-5.2597-1.5062-1.6898-.6739-3.3373-1.4496-4.9332-2.3226-.6984-.3216-1.3456-.7446-1.9206-1.2552.1004-.2009,3.1884,1.3306,7.0923,2.9252,1.6636.6668,3.3705,1.2205,5.109,1.657.7447.1349,1.4757.3363,2.1842.602Z"/>
  <path class="h" d="M141.6187,490.1732c.1632,0-.1381,1.2552-1.2553,2.3473-1.1172,1.0921-2.385,1.2552-2.4227,1.1045-.0376-.1508.9916-.6403,1.9834-1.5816.9916-.9413,1.5188-1.9456,1.6946-1.8702Z"/>
  <path class="e" d="M340.3795,253.5905s39.14-1.5939,59.099,25.8966c19.3435,26.6617,34.5325,82.0574,34.5325,82.0574l-74.7268,9.9542-11.0716-72.0526-7.8331-45.8556Z"/>
  <path class="i" d="M403.332,471.0553c-.1255,0-.6403-2.4481-2.1842-6.1761-.4135-1.019-.8788-2.0163-1.3937-2.9876-.5142-1.0667-1.1798-2.1465-1.8572-3.2886-1.5486-2.438-3.3134-4.7318-5.2725-6.8541-1.9957-2.0911-4.1716-4.0019-6.5024-5.7113-1.1045-.7534-2.1341-1.4938-3.1755-2.0587-.9336-.582-1.8973-1.1145-2.8875-1.5946-3.6279-1.7824-6.063-2.4475-6.0129-2.5859.5814.0936,1.1533.2409,1.7076.4394.6686.1844,1.3271.4064,1.9704.6656.7534.301,1.6193.6026,2.5111,1.0668,1.0143.4565,2.0033.9672,2.9623,1.5315,1.0667.5649,2.1211,1.2552,3.2385,2.0463,4.8254,3.3705,8.8957,7.7094,11.9504,12.741.665,1.1675,1.3307,2.2719,1.8202,3.364.503.9914.9513,2.0098,1.343,3.0506.4017.9413.6527,1.8325.9036,2.6106.2509.7781.4147,1.4438.5402,1.9963.1773.5667.291,1.1522.3387,1.7447Z"/>
  <path class="j" d="M215.3033,311.1073l-7.6192,80.8275-11.6742-20.5864-60.153,7.1551c.6151,3.0754,22.0302,78.2917,31.2565,99.1667,9.2263,20.8756,35.0349,58.0317,63.9314,44.6881,28.8965-13.3435,27.0263-118.4354,27.0263-130.4235s-5.7867-83.4888-5.7867-83.4888"/>
  <path class="i" d="M252.3092,308.446s.063.5024.1508,1.4814.2132,2.4481.3764,4.356c.314,3.8411.7781,9.49,1.3807,16.7452.6026,7.2558,1.2552,16.1803,2.034,26.5115.3682,5.1718.7528,10.6911,1.1545,16.5573.364,5.8621.8288,12.063.9165,18.5907.1131,13.0549,0,27.3521-.9289,42.6795-.7663,16.3247-2.7384,32.5704-5.8998,48.6041-1.6823,8.7084-4.4355,17.1747-8.1971,25.2062-1.9603,4.1822-4.7488,7.9232-8.1971,10.9962-.9077.7451-1.8826,1.4049-2.9122,1.9709-1.0426.5384-2.1158,1.0161-3.2132,1.4308-1.0921.4394-2.2348.728-3.364,1.0673-1.1498.281-2.3155.4948-3.4901.6397-2.3673.2951-4.7624.2951-7.1297,0-2.3797-.3234-4.7194-.8954-6.9795-1.707-4.5285-1.7177-8.7632-4.1268-12.553-7.1421-7.6575-6.2503-14.2533-13.6987-19.5319-22.0554-3.0083-4.5792-5.6968-9.361-8.0463-14.3101-2.2972-4.9332-4.1675-10.0425-5.9375-15.0635-3.5399-10.042-6.7283-20.0845-9.7912-29.9256-3.0629-9.8417-5.95-19.4695-8.7117-28.8718-2.7616-9.4017-5.4605-18.6154-7.8455-27.616l-.0753-.314h.3263l60.1531-7.1173h.1632l.0878.1378,11.6112,20.5239-.4265.1008c2.4098-25.1055,4.343-45.2784,5.686-59.2245.678-6.9542,1.2558-12.3516,1.5692-16.0172.1885-1.8201.3263-3.2132.4271-4.1675.1001-.9542.1632-1.406.1632-1.406,0,0,0,.4771-.1007,1.4184-.1001.9419-.2009,2.335-.364,4.1551-.3263,3.678-.8158,9.0759-1.4431,16.0425-1.2552,13.9461-3.1637,34.1561-5.4857,59.2368v.7151l-.364-.6273-11.6995-20.574.2515.1255-60.1407,7.1928.251-.3517c2.3725,8.9505,5.0964,18.1766,7.8581,27.616,2.7616,9.44,5.6739,19.0808,8.7869,28.8718,3.1131,9.791,6.2764,19.8336,9.7912,29.8879,1.7699,5.0216,3.6403,10.0425,5.9123,14.9881,2.3196,4.9214,4.9744,9.6773,7.9459,14.2348,5.2313,8.296,11.7674,15.6926,19.3566,21.9046,3.7386,2.9805,7.9185,5.3603,12.3893,7.0549,2.2171.7899,4.5097,1.3495,6.8417,1.6693,2.3173.2886,4.6617.2886,6.9789,0,1.1445-.142,2.2802-.347,3.4017-.615,1.105-.3387,2.2348-.6273,3.3016-1.042,1.0715-.4053,2.1194-.87,3.1384-1.3931.9896-.5554,1.9303-1.194,2.8115-1.9079,3.3787-3.02,6.1119-6.6921,8.0339-10.7959,3.7469-7.978,6.4918-16.3894,8.1718-25.0424,3.162-16.0131,5.1382-32.2376,5.9128-48.5416.9036-15.3021,1.0921-29.5999,1.0043-42.6795-.063-6.5148-.5278-12.7162-.8665-18.5783-.3387-5.8621-.7658-11.3856-1.1045-16.5574-.7534-10.3306-1.3937-19.2304-1.9332-26.5115-.5396-7.2805-.9543-12.9165-1.2552-16.7576-.1384-1.9079-.2509-3.364-.314-4.356-.0624-.9919-.0377-1.4437-.0377-1.4437Z"/>
  <path class="i" d="M207.5085,389.8384c.01.3234-.0112.6474-.063.9666-.0878.615-.1255,1.5568-.3517,2.7237-.5484,3.3393-1.3884,6.6237-2.5105,9.8163-1.6764,4.7282-3.7157,9.3198-6.1007,13.7329-2.636,5.021-5.8244,10.3312-9.1254,15.9424-3.1408,5.2454-5.9741,10.6687-8.4859,16.2428-2.0413,4.5462-3.6062,9.2915-4.6696,14.1599-.701,3.3016-1.0627,6.6668-1.0795,10.042,0,1.1928.0627,2.1088.0627,2.7367.0249.3216.0249.645,0,.9666-.0788-.3122-.1209-.632-.1255-.9542,0-.6274-.2009-1.5563-.1883-2.7491-.0748-3.3693.2199-6.7368.8787-10.042,1.003-4.9208,2.535-9.7186,4.5692-14.3101,2.4861-5.6088,5.3159-11.0586,8.4734-16.3188,3.301-5.6236,6.5018-10.9337,9.1631-15.9047,2.3809-4.4072,4.4325-8.9846,6.1384-13.6946,1.1557-3.1578,2.0581-6.4029,2.699-9.7033.2639-1.1675.3517-2.084.4642-2.7119.0565-.3204.1402-.6356.2515-.9413Z"/>
  <path class="e" d="M157.2344,297.7385c-1.6444.3263-29.8631,13.3689-29.6748,56.8394.1506,32.449,8.8497,63.5798,8.8497,63.5798l68.4055-32.207-47.5804-88.2122Z"/>
  <path class="c" d="M184.388,329.4684c.1757-.063,4.7197,12.4647,10.1553,27.98,5.4351,15.5153,9.7156,28.1308,9.5401,28.1938-.1761.0624-4.7076-12.4653-10.155-27.9806-5.448-15.5153-9.7036-28.1932-9.5404-28.1932Z"/>
  <path class="e" d="M136.2177,417.3799s22.8997,72.1566,39.4796,91.8679c16.5799,19.7112,29.0243,21.2668,33.2466,22.8223,4.2222,1.5556,18.4444,2.8889,26-2.8889,16-13.4444,16.5451-16.6667,19.0504-26.6667s8.283-39.1111,9.8385-54.8889c1.5556-15.7778,2.8889-52.6667.8889-72-2-19.3333-6.5551-56.8889-6.5551-56.8889l-46.7783-4.4444-6.7703,71.2665-68.4003,31.8211Z"/>
  <path class="c" d="M204.2186,384.9794c-.7483,11.2325-3.8077,22.2937-8.3432,32.5875-1.585,3.4275-3.2759,6.7405-4.7149,10.189-5.0597,11.9828-9.1331,24.6708-9.9924,37.7168-.0589,1.8631-.0413,3.7433.3308,5.5826-.4795-1.8165-.5898-3.7117-.5972-5.5874.2938-13.1757,4.3278-26.0182,9.3436-38.1065,1.4753-3.4567,3.2189-6.8086,4.8049-10.1681,4.5748-10.2181,7.8565-21.0736,9.1685-32.2139h0Z"/>
  <path class="c" d="M204.2186,384.7229c1.7162-23.4917,4.1157-47.0689,7.1698-70.4306-1.7172,23.4998-4.116,47.073-7.1698,70.4306h0Z"/>
  <path class="e" d="M434.011,361.5445s6.1244,41.3034,5.4577,76.8034c-.6667,35.5,5.5,48.6667-10.8333,62.3333-16.3333,13.6667-69.1667,15.3687-84.6667,16.5177-15.5,1.149-114.9949,6.377-114.9949,6.377l2.8283-63.8947s73-11.5755,81.1667-13.6211c8.1667-2.0456,54.2632-11.8352,54.2632-11.8352l-9.5096-64.2104,50.0798-12.0665,26.209,3.5964Z"/>
  <path class="c" d="M348.2126,299.4208s.1632.4405.4271,1.2707c.2633.8302.6527,2.1693,1.1298,3.7286.916,3.2531,2.1335,8.0154,3.3888,14.0135,3.1178,15.6754,5.5865,31.5728,7.3936,47.618,2.2472,18.7592,3.8411,35.8238,5.0216,48.1769.5519,6.1007,1.0043,11.0825,1.2552,14.6242.1378,1.6945.2509,2.9994.3263,3.9823.0583.4588.0836.924.0754,1.39-.0984-.4485-.1655-.9081-.2009-1.3725l-.4524-3.9489c-.364-3.5417-.8912-8.4727-1.5185-14.6075-1.2552-12.319-2.9252-29.3669-5.1718-48.1086-2.2472-18.7425-4.7447-35.5868-7.1928-47.5837-1.1798-5.9989-2.335-10.7946-3.1761-14.0652l-1.0167-3.7795c-.1243-.4342-.2209-.8818-.2886-1.3383Z"/>
  <path class="c" d="M367.2318,434.225s-.3421.1686-.9874.4429c-.6453.2736-1.6868.6797-2.8993,1.1762-2.5307.9565-6.2373,2.2333-10.9103,3.5633-12.2149,3.3131-24.6138,5.98-37.1389,7.9873-14.6416,2.4811-27.9677,4.288-37.6141,5.6225-4.7644.628-8.655,1.1426-11.4221,1.4377-1.3236.159-2.3428.2884-3.1106.376-.3581.064-.7216.0952-1.0863.0927.3493-.104.7079-.1768,1.0707-.218l3.0824-.5016c2.7653-.4082,6.6149-.9969,11.4049-1.7008,9.6185-1.4089,22.9304-3.2915,37.5582-5.7718,14.6285-2.4809,27.7679-5.1885,37.1154-7.786,4.6748-1.2546,8.4086-2.4695,10.9541-3.3513l2.9409-1.0637c.3377-.1297.6864-.2319,1.0425-.3053Z"/>
  <path class="c" d="M258.0955,318.7924c2.1756,31.0652,4.0834,64.8165,4.9458,95.8276,1.0598,31.7231.0498,64.8936-13.4057,94.2281,12.7654-29.5584,13.553-62.4857,12.4214-94.2015-.7079-27.8234-2.7064-67.6705-3.9615-95.8542h0Z"/>
  <g>
    <path class="d" d="M472.9985,123.3739c-5.9155,11.8079-15.5739,21.3243-27.4677,27.0637-5.0019,2.2799-10.3276,3.7696-15.7866,4.4156-16.8449,1.9772-33.8298-2.2948-47.7347-12.0056h-.0867c-.3101-.2147-.6087-.4462-.8945-.6927-8.2725-7.0049-14.4663-16.1435-17.9081-26.4217-10.7217-31.8761,7.8067-67.1866,40.0727-76.4796,7.9509-2.2771,16.2878-2.8776,24.483-1.7636,8.1951,1.114,16.0694,3.9183,23.1239,8.2351,7.0545,4.3168,13.1353,10.052,17.857,16.8421,4.7218,6.7902,7.9815,14.4871,9.5726,22.6031,2.5238,12.9629.6845,26.3966-5.231,38.2037Z"/>
    <path class="g" d="M478.417,86.1082c.1154.6638.2742,1.5873.4762,2.7995.4888,3.6048.6578,7.2457.5051,10.8803-.3399,5.7625-1.4813,11.4497-3.3911,16.8979-2.5604,7.2271-6.4788,13.8975-11.5441,19.6538-1.4285,1.6407-2.9561,3.192-4.5744,4.6465-1.668,1.5405-3.4216,2.9855-5.2525,4.3289-.8803.6927-1.9048,1.2838-2.8861,1.9332l-1.443.9818c-.5051.3027-1.0534.5627-1.5729.8512l-3.3189,1.6739c-1.1111.5336-2.2656,1.0103-3.4344,1.443-10.1105,3.5001-20.9424,4.3838-31.4865,2.5684-8.6246-1.4701-16.9087-4.5023-24.4445-8.9463-1.313-.736-2.5684-1.5588-3.8387-2.3957-1.2635-.8586-2.4512-1.8242-3.5495-2.8859-9.3519-8.6619-15.6492-20.1183-17.9515-32.6554-1.2141-6.395-1.3069-12.9526-.2742-19.3796.4367-3.1077,1.0976-6.1797,1.9772-9.192.5194-1.443,1.0387-2.886,1.5439-4.329.2472-.7323.5464-1.446.8952-2.1357l.9663-2.0923c2.5616-5.4444,5.9385-10.466,10.0148-14.8919l1.443-1.645,1.6014-1.443c1.097-.9524,2.1072-2.0058,3.2326-2.8861,2.2163-1.7873,4.5544-3.4171,6.9988-4.8773,11.3535-6.7533,24.6134-9.5828,37.7345-8.052,1.1892.1196,2.3699.3124,3.5354.5772l3.4488.6638c2.1789.6782,4.4156,1.2554,6.5079,2.0202l3.0448,1.2554c.9925.3786,1.9569.827,2.886,1.342,6.8559,3.4227,13.0048,8.1078,18.1242,13.8096,2.0503,2.3652,3.9172,4.8834,5.5845,7.5325l1.14,1.7893c.378.5545.711,1.1384.9957,1.7461l1.6595,3.3767c.2597.5339.5772,1.0101.7648,1.544.1876.5339.3752,1.039.5628,1.5296l1.0101,2.7706c.5395,1.4384.9736,2.9142,1.2987,4.4156l.6638,2.7562c.202.6205.202.9523.202.9523,0,0-.101-.303-.2742-.9379-.1732-.6349-.4185-1.5441-.7504-2.7273-.3427-1.4751-.7961-2.9222-1.3564-4.329l-1.039-2.7417-.5772-1.443c-.2309-.5051-.5051-1.0101-.7648-1.544l-1.6883-3.3334c-.3287-.5708-.7002-1.1158-1.1111-1.6306l-1.1544-1.7749c-1.6792-2.6173-3.5506-5.1061-5.5989-7.4459-5.1064-5.6265-11.2252-10.2425-18.0376-13.6076-.9265-.5119-1.8914-.9509-2.8861-1.3132l-3.0303-1.241c-2.1213-.7504-4.2569-1.3131-6.4502-1.9769l-3.4199-.6494c-1.15-.2633-2.3168-.4466-3.4921-.5483-2.3939-.2878-4.8041-.4179-7.2151-.3896-10.5898.0238-20.973,2.9376-30.029,8.4272-2.4153,1.4461-4.725,3.0615-6.9122,4.8341-1.1112.8947-2.1066,1.9336-3.1893,2.886l-1.5872,1.443-1.443,1.6306c-4.0249,4.3741-7.3584,9.3377-9.8848,14.7187l-.952,2.0635c-.3413.6813-.6352,1.3853-.8803,2.1068-.5051,1.443-1.0103,2.886-1.5296,4.329-.8633,2.9756-1.5141,6.0087-1.9481,9.0766-.9351,6.2792-.7936,12.6717.4185,18.9035,2.2758,12.3753,8.4919,23.6834,17.7206,32.237,1.0631,1.0611,2.2169,2.0267,3.4486,2.8859,1.2554.8227,2.5108,1.6305,3.7947,2.3808,2.5359,1.4951,5.1625,2.8297,7.8649,3.9971,5.2248,2.2887,10.7102,3.9267,16.3345,4.8774,10.4267,1.8255,21.1458.9764,31.1548-2.4675,1.1544-.4618,2.2944-.9378,3.3911-1.443l3.2035-1.6739c.5194-.2885,1.0533-.5485,1.5584-.8512l1.443-.9527c.9668-.6494,1.9769-1.2263,2.886-1.919,1.8258-1.338,3.5701-2.7837,5.2237-4.3289,1.6126-1.4301,3.1354-2.9577,4.56-4.5747,5.0419-5.6967,8.959-12.2967,11.5441-19.452,1.9347-5.4008,3.1147-11.0434,3.5065-16.7674.177-3.6217.0467-7.2518-.3896-10.8515-.1732-1.2121-.2742-2.1645-.3896-2.7995-.1154-.6349-.1154-.9523-.1154-.9523,0,0,.0722.2741.1876.9379Z"/>
    <path class="g" d="M374.2604,153.9871c.0014-.6311-.0718-1.2608-.2167-1.8757-.5207-2.2955-1.8276-4.337-3.6938-5.7719-1.3922-1.0807-3.0342-1.793-4.7751-2.0707-1.7402-.277-3.5224-.1111-5.1814.4835-1.9806.6893-3.7032,1.9684-4.9356,3.6653-1.5141,2.0422-2.2386,4.5632-2.0395,7.0984.1991,2.5345,1.3082,4.9119,3.1223,6.6928,1.8147,1.7809,4.2124,2.846,6.7503,2.9977,2.5379.1517,5.0453-.6196,7.0591-2.1716,1.8662-1.4348,3.1731-3.4764,3.6938-5.7719.1449-.6148.218-1.2446.2167-1.8757.0345-.2153.0345-.4347,0-.6494-.0867-.0149-.0433.9087-.4618,2.4526-.6135,2.1716-1.9271,4.0791-3.7371,5.4259-1.0482.7841-2.2406,1.3522-3.5096,1.6718-1.2696.3196-2.5894.3833-3.8834.1889s-2.5365-.6446-3.6552-1.3231c-1.1193-.6785-2.0923-1.5723-2.8629-2.63-1.2222-1.6766-1.8804-3.6971-1.8804-5.7719s.6582-4.096,1.8804-5.7719c1.1356-1.5764,2.7194-2.7729,4.5456-3.4344,1.5479-.5695,3.213-.7448,4.8449-.5106,1.6326.2343,3.1805.8708,4.5056,1.8526,1.8113,1.3522,3.125,3.2645,3.7378,5.4401.4618,1.5439.3751,2.4533.4618,2.4533.0528-.2621.0576-.5309.0142-.7943Z"/>
    <path class="b" d="M432.5341,94.042c.2718-.6599.6712-1.2598,1.1752-1.7652s1.1028-.9063,1.762-1.1798c.6592-.2736,1.3659-.4144,2.0796-.4144,1.0725,0,2.1209.3178,3.0129.9134.8919.5955,1.5873,1.4421,1.9984,2.4327.4111.9906.5194,2.0808.3112,3.1329-.2082,1.0521-.7235,2.0189-1.4809,2.7782-.7573.7594-1.7228,1.2773-2.7743,1.4883-1.0516.211-2.142.1056-3.1337-.3029s-1.84-1.1016-2.4379-1.992c-.5979-.8904-.9185-1.9379-.9214-3.0104-.0019-.7138.1371-1.4208.4089-2.0808Z"/>
    <path class="b" d="M414.671,94.0386c.2727-.6609.6733-1.2614,1.1789-1.7669.5055-.5055,1.106-.9062,1.7669-1.179.6609-.2727,1.3692-.4121,2.0841-.4102,1.076,0,2.1278.3191,3.0225.9168.8946.5978,1.5919,1.4474,2.0036,2.4415.4118.994.5195,2.0879.3096,3.1432-.2099,1.0552-.7281,2.0246-1.4889,2.7855s-1.7301,1.2789-2.7855,1.4888c-1.0552.2099-2.1491.1022-3.1432-.3096-.994-.4117-1.8437-1.109-2.4414-2.0036-.5978-.8946-.9168-1.9464-.9168-3.0224-.002-.7149.1375-1.4232.4102-2.0841Z"/>
    <path class="b" d="M396.8212,94.0386c.2722-.6609.6731-1.2614,1.1789-1.7669.5051-.5055,1.1058-.9062,1.7666-1.179.6609-.2727,1.3692-.4121,2.0842-.4102,1.076,0,2.1275.3191,3.022.9168.8952.5978,1.5919,1.4474,2.0036,2.4415.4124.994.52,2.0879.3101,3.1432-.2099,1.0552-.7286,2.0246-1.489,2.7855-.7611.7608-1.7301,1.2789-2.7857,1.4888-1.055.2099-2.1492.1022-3.1432-.3096-.994-.4117-1.8432-1.109-2.4411-2.0036-.5979-.8946-.9168-1.9464-.9168-3.0224-.002-.7149.1375-1.4232.4103-2.0841Z"/>
  </g>
  <path class="g" d="M209.7956,111.5816l-.1927.0589c-3.9888,5.8381-5.5757,12.988-4.4316,19.9649l.2062.6743c1.6286,10.0361,4.8308,19.5916,6.3633,29.657,1.532,10.0656,1.2013,20.7007-3.9005,29.2833-2.0659,3.5811-6.6028,7.0046-9.9418,4.5843-1.2136-1.06-2.0909-2.4519-2.5231-4.0038-8.838-22.4748-21.3766-40.9734-28.6458-64.9806-1.0211-3.2143-1.2582-6.6262-.6928-9.9508.5658-3.3247,1.9183-6.4661,3.9447-9.1622,3.9427-5.1381,8.9281-10.7706,15.3634-9.8236,6.4353.947,16.8617,9.2063,22.5519,12.3124"/>
  <path class="g" d="M185.6837,101.6409c-8.4184-7.4336,2.9817-25.2804,13.2139-32.1307,10.2318-6.8502,26.7313-6.0657,39.0785-5.7674,7.8144.1742,15.849,1.2994,23.2438-1.2775,4.8181-2.0531,9.3155-4.788,13.3553-8.1211,4.0237-3.3672,8.6967-5.8716,13.729-7.3576,2.5222-.713,5.1907-.7229,7.7183-.0288,2.5271.6942,4.8163,2.066,6.6198,3.9672,3.3086,4.0448,2.5546,11.2278-2.2169,13.424,1.3234-1.3476,2.9528-2.3554,4.7498-2.9377,1.797-.5823,3.7077-.7217,5.5698-.4063,1.8625.3153,3.6212,1.0759,5.1257,2.2173,1.5049,1.1413,2.7116,2.6293,3.5175,4.3374.8059,1.7081,1.1865,3.5857,1.1105,5.4727-.0764,1.8871-.6077,3.7278-1.5487,5.3654-.941,1.6375-2.2641,3.0238-3.8559,4.0399-1.5922,1.0163-3.4065,1.6329-5.2882,1.7968,2.4556-3.4543,8.7126-.9076,9.5321,3.2661.1745,2.1314-.2091,4.2717-1.1129,6.2099-.9036,1.9387-2.296,3.6087-4.0405,4.8463-8.3587,7.1199-19.7866,9.139-30.6575,8.8457-10.8708-.2928-21.6043-2.665-32.5858-3.2052-10.9814-.5401-29.2275-1.9844-37.9333,4.5747-6.4405,4.7781-8.8222,15.022-13.4903,14.3422-2.2388-.4389-4.3432-1.3979-6.144-2.7988-1.8009-1.4013-3.2473-3.2054-4.2234-5.2676-1.8475-4.1131-3.0215-8.4964-3.4775-12.9823"/>
  <path class="k" d="M302.9278,62.7767c-.1927.0589-.6455,2.0232-2.3036,5.4446-2.359,4.7926-5.8546,8.9353-10.1822,12.0669-6.3247,4.7266-14.2406,6.8067-22.0719,5.8-8.8422-1.1241-17.6498-6.1564-27.3533-10.2124-9.1289-4.4786-19.4148-6.0412-29.4626-4.4761-4.1235.7279-8.0264,2.3875-11.4114,4.8524-3.3846,2.4648-6.1622,5.6699-8.1204,9.3707-1.2166,2.5387-1.9048,5.2981-2.0228,8.1107-.118,2.8126.3365,5.6198,1.336,8.2515.5676,1.4044,1.3363,2.719,2.2818,3.9022.6924.7715,1.0867,1.1426,1.1414,1.0907-.9917-1.694-1.8494-3.4628-2.5655-5.2903-1.5507-5.0879-1.0781-10.5781,1.3193-15.3266,1.9419-3.4166,4.6273-6.3533,7.8575-8.5929,3.2298-2.2395,6.9216-3.7245,10.8027-4.3454,9.5981-1.3433,19.3779.2301,28.07,4.5155,9.4788,4.1248,18.5406,9.1847,27.9682,10.2702,6.9335.7456,13.9229-.7626,19.9321-4.3011,6.0092-3.5386,10.7183-8.919,13.4289-15.3437.5796-1.3703,1.0144-2.7979,1.2965-4.2589.0884-.9751.1338-1.5157.0595-1.528Z"/>
  <path class="k" d="M194.5797,171.7468s.7993-.9467,1.1167-3.0101c.3305-2.9512-.1454-5.9366-1.3765-8.6384-2.7623-7.1965-11.6971-13.1031-15.6442-23.0271-2.0179-4.5245-2.5892-9.5619-1.6354-14.4234.9402-3.898,3.1323-7.3803,6.2405-9.9138,2.0999-1.7537,4.624-2.925,7.3194-3.3965,1.9289-.2386,3.0518-.1254,3.0895-.3476-.98-.47-2.0709-.6591-3.152-.5462-2.9894.1254-5.8709,1.1533-8.2645,2.948-3.5745,2.6366-6.137,6.4194-7.259,10.7168-1.1772,5.3147-.6242,10.867,1.5785,15.8454,2.1283,4.8384,5.1085,9.2554,8.7981,13.0408,2.9028,2.9329,5.3927,6.2469,7.4016,9.8515,1.7171,3.3583,2.3422,7.1694,1.7873,10.9006Z"/>
  <path class="j" d="M198.1817,175.9768c-.5902-.1632-23.3357-3.4524-19.4695,18.7409,3.8663,22.1933,25.3817,13.6828,25.2815,13.0802-.1007-.6026-5.8121-31.8211-5.8121-31.8211Z"/>
  <path class="h" d="M195.7466,200.5798c-.1007-.0624-.3393.3393-.9419.7534-.8494.5525-1.8808.7505-2.8745.5525-2.5105-.4394-5.1217-3.8288-5.9246-7.8083-.3805-1.8932-.3419-3.847.1125-5.7237.0913-.7281.357-1.4231.7746-2.0263.417-.6032.9743-1.0968,1.6234-1.4384.4271-.2109.9154-.2609,1.3766-.1408.4612.1196.8635.4017,1.1339.7934.4141.5779.3387,1.042.4642,1.0544.1255.013.4147-.4518.0754-1.343-.2174-.5342-.6114-.9778-1.1174-1.2552-.6904-.3558-1.4938-.4235-2.2342-.1885-1.6947.4147-2.9498,2.2596-3.4393,4.1427-.6039,2.0858-.6901,4.2876-.2511,6.4147.9164,4.4437,3.9413,8.2342,7.3059,8.5982.6285.0636,1.2641-.0165,1.8572-.2338.5937-.2174,1.1304-.5667,1.5692-1.0214.5525-.5896.5778-1.1045.4901-1.1298Z"/>
  <path class="j" d="M252.3092,308.446s8.0086-8.2719,8.0086-19.0802c-.2256-7.3765-1.6281-14.6694-4.1545-21.6031,0,0-1.3436-11.2978-2.1971-15.7539l3.6532-6.8918s9.9666,4.3683,11.6235-2.0711l-5.8621-8.0339c-1.3142-1.796-3.1926-3.0995-5.3349-3.7027l-8.7867-2.5105c-1.5339-.4323-3.1437-.526-4.717-.2745-1.5733.2515-3.0736.8417-4.3966,1.7306l-10.3683,7.0167,6.4394-13.2935,10.8077-2.2843s15.3651,6.6402,18.2773-2.084l-12.8794-7.5315-24.5159.4265s-5.6106,6.8541-6.8535,8.9251c-1.2429,2.0711-5.2972,9.2267-5.2972,9.2267l-6.1384-15.867s.1879-10.1303,0-18.5654c-.2639-9.3145-5.7367-12.4276-11.2978-9.3145-.5519.3016-3.0501,25.2439-1.8072,31.0683,1.2423,5.8244,11.9752,49.0435,11.9752,49.0435,0,0,3.7657,9.8417,5.2095,12.7415,2.0976,4.2959,3.1472,9.0276,3.063,13.8077.2509,4.5945-1.4938,18.8293-1.4938,18.8293"/>
  <path class="h" d="M215.1778,312.4757v-.8035c0-.5272.1384-1.3554.2515-2.385.2132-2.0964.5396-5.1971.8282-9.2261.1997-2.233.2668-4.4755.2009-6.7156-.0077-2.6731-.3281-5.3355-.9537-7.9338-.3416-1.4361-.7993-2.8427-1.3683-4.2052-.6527-1.3807-1.3683-2.8368-1.9963-4.3554-1.2552-3.0506-2.5105-6.2768-3.8788-9.741-1.7695-7.168-3.7657-15.0635-5.8115-23.6123-1.055-4.2847-2.1423-8.7113-3.2639-13.2805-.5649-2.2973-1.1298-4.6198-1.72-6.9795-.2886-1.1928-.5773-2.3727-.8659-3.5778-.1508-.602-.314-1.1922-.4394-1.8072-.1255-.6156-.1632-1.2552-.2132-1.8955-.162-5.16-.0071-10.3247.4642-15.4652.2009-2.636.4271-5.2972.7157-7.9962.1508-1.343.301-2.686.5148-4.0544,0-.3387.1001-.678.1755-1.0291-.0047-.0884-.0047-.1761,0-.2639v-.2262l.1001-.1502c.0383-.0601.096-.1043.1632-.1255h.1261l.238-.1131c.6291-.3287,1.2953-.5814,1.9839-.7534,1.4161-.3817,2.9181-.2933,4.28.2509,1.3477.6014,2.4722,1.6116,3.2138,2.8875,1.3807,2.5706,2.0322,5.4704,1.8832,8.385v17.574-.1255c1.9456,5.021,4.029,10.406,6.1378,15.8794h-.5896l5.3726-9.3269c2.0834-3.0877,4.4561-5.9375,6.8158-8.8745l.0884-.1131h.3134l4.5945-.0878,19.9213-.3269h.1755l12.8794,7.532.2262.1378-.1384.1255c-.278.8736-.7398,1.6776-1.3548,2.3573-.615.6803-1.3689,1.2205-2.2101,1.5845-1.6576.6397-3.4382.8971-5.2095.7534-3.4188-.2657-6.7722-1.0838-9.9295-2.4227h.1885l-10.8077,2.2843.2132-.1632-6.4523,13.2935-.4394-.3893,10.5945-7.0797c1.7954-1.1386,3.8747-1.7477,6.0006-1.7571,1.0385.0053,2.0722.1443,3.0754.4141l2.8869.8158,5.6866,1.6069c1.925.4883,3.6685,1.5215,5.021,2.9752,2.385,3.0377,4.4567,6.05,6.6031,8.9375l.0754.1001v.1255c-.2992,1.1975-1.0508,2.2325-2.0964,2.8875-1.0314.582-2.2066.8606-3.3893.8034-2.2366-.0783-4.4378-.5761-6.4901-1.4691l.3016-.1001c-1.2552,2.5105-2.5105,4.6946-3.6532,6.8788v-.1508c.9796,5.6365,1.5692,10.9084,2.1594,15.7792,2.0899,5.7614,3.4235,11.7702,3.9666,17.875.258,2.4698.2032,4.9627-.1632,7.419-.3481,2.0375-.9248,4.029-1.72,5.9369-1.0903,2.6083-2.5075,5.0675-4.2175,7.3182-.5902.7658-1.0544,1.3183-1.3807,1.6823-.1614.1855-.3334.3611-.5148.5272l.4648-.5649c.3263-.364.7658-.9413,1.343-1.707,1.6593-2.2708,3.0418-4.7318,4.1174-7.3306.7652-1.905,1.3206-3.8877,1.657-5.9128.3363-2.4339.374-4.9002.1131-7.343-.5843-6.0642-1.9385-12.0282-4.0296-17.7501-.615-4.8702-1.2552-10.1427-2.2219-15.7409v-.1508l3.6403-6.8912.1001-.1885.2009.0878c1.9915.84,4.1174,1.3165,6.2768,1.406,1.0897.0448,2.1712-.2115,3.1255-.7404.9325-.5955,1.6016-1.5256,1.8702-2.5989v.2262c-2.1465-2.8745-4.2806-5.9499-6.5902-8.8874-1.2812-1.3772-2.9334-2.3532-4.7571-2.8121l-5.6866-1.5939c-1.8743-.6597-3.8294-1.0609-5.8121-1.1928-2.0186.0118-3.9931.5902-5.699,1.6699l-10.5568,7.0921-.9165.615.4771-.9914,6.4394-13.3058v-.1384h.1508l10.7953-2.2973h.2009c3.1142,1.2647,6.4117,2.0192,9.7663,2.2348,1.6723.1414,3.3546-.0996,4.9202-.7033.7587-.3281,1.4379-.8152,1.9921-1.4278.5543-.6126.9707-1.3371,1.2217-2.1247l.1378.3893-12.8788-7.5315h.1632l-19.9213.3387-4.5945.0878.2509-.1255c-2.3344,2.9122-4.7447,5.8121-6.7657,8.7873-1.8201,3.1755-3.6149,6.2762-5.3603,9.3139l-.3387.5902-.2386-.6403-6.1254-15.867v-17.6365c.1526-2.8085-.4683-5.6047-1.7954-8.084-.6691-1.171-1.6935-2.0987-2.9246-2.6489-1.2387-.4942-2.6041-.5731-3.8918-.2256-.6497.1573-1.2776.3929-1.8702.7027l-.2256.1131h-.1131c.1001.2256-.2009-.3016-.1131-.1508.0878.1508.1378.1761.1378.1508v.1001c-.0059.0795-.0059.1591,0,.2386-.0748.3263-.1255.6656-.1755.9919-.2009,1.343-.3517,2.699-.5019,4.042-.3016,2.6737-.5402,5.3349-.741,7.9709-.4659,5.1117-.6291,10.2464-.4895,15.3775.0324.6102.1037,1.2181.2132,1.8201.1131.602.2763,1.2552.4147,1.8072.301,1.2552.5896,2.385.8783,3.5654.5608,2.3762,1.1257,4.7029,1.6947,6.979,1.105,4.5863,2.18,9.017,3.2262,13.2935,2.0711,8.5358,3.9919,16.4442,5.7243,23.6246,1.2552,3.4394,2.5105,6.7033,3.7657,9.741.6279,1.5315,1.3183,2.9499,1.9833,4.3683.6049,1.3842,1.0962,2.8162,1.4685,4.2806.6185,2.62.926,5.3037.9166,7.9962.0507,2.2537-.033,4.5091-.2509,6.7533-.3387,4.0167-.6904,7.1174-.9413,9.2138-.1343,1.029-.2344,1.8201-.3016,2.3721-.1378.6527-.1885.9166-.1885.9166Z"/>
  <path class="h" d="M255.3221,231.6605c-.9484.2203-1.8637.5619-2.7243,1.0173-1.9721,1.3142-3.8435,2.7744-5.5982,4.3683-2.1594,1.7824-4.1298,3.364-5.5735,4.4808-.7457.6621-1.5621,1.2388-2.4351,1.72.6303-.7687,1.3465-1.4638,2.1335-2.0711,1.3683-1.2552,3.3016-2.8498,5.461-4.6446,1.7812-1.6181,3.7245-3.0483,5.7991-4.2682.8759-.5449,1.9179-.7587,2.9375-.6026Z"/>
</svg>
