<?xml version="1.0" encoding="UTF-8"?><svg id="a" xmlns="http://www.w3.org/2000/svg" viewBox="0 0 566.93 566.93"><defs><style>.b{fill:#e0e0e0;}.b,.c,.d,.e,.f,.g{stroke-width:0px;}.c{fill:#f5f5f5;}.d{fill:#f0f0f0;}.e{fill:#fff;}.f{fill:#09f;}.g{fill:#202020;}</style></defs><path class="g" d="M511.91,281.79c.05,2.12.11,1.36.13,1.68-.11-3.55-.15-1.59-.13-1.68Z"/><polygon class="g" points="508.82 246.98 508.97 247.59 507.98 242.53 508.82 246.98"/><path class="g" d="M501.37,215.18c.39,1.5,1.18,4.35,2.11,7.52.43,1.59,1,3.24,1.35,4.89.38,1.65.74,3.24,1.07,4.66l.18.94.7,2.54c-.4-1.72-.84-3.57-1.28-5.46-.46-1.88-.85-3.81-1.42-5.63-1.05-3.66-2.03-7.06-2.71-9.46Z"/><path class="g" d="M495.76,198.67c.34,1.02-1.43-3.49,1.48,3.79-.14-.37-.18-.48-.26-.69-.26-.66-.61-1.56-1.22-3.1Z"/><path class="g" d="M496.98,201.77c1.27,3.21-.78-2.12,0,0h0Z"/><path class="g" d="M490.74,187.13l1.92,4.12c-.36-.88-2.02-4.56-1.38-3.21-1.94-4.24-1.58-3.35-.54-.91Z"/><path class="g" d="M488.82,183.28c.37.69.73,1.39,1.04,2.11-.16-.38-.39-.96-1.04-2.11Z"/><path class="g" d="M491.96,189.91l-2.1-4.53c.25.61.24.69.96,2.08-.21-.35.24.53,1.14,2.45Z"/><path class="g" d="M493.1,192.49c.52,1.16,1.1,2.5,1.27,3.05.18.54.11.23-.84-1.84,1.69,4,2.33,5.73,2.26,5.42-.05-.15-.29-.81-.73-1.94-.44-1.12-1.03-2.73-1.96-4.69Z"/><path class="g" d="M500.69,213.65c.35,1.08.71,2.15.99,3.25l.85,2.81c-.2-.71-.65-2.28-1.03-3.66-.41-1.37-.82-2.51-.8-2.41Z"/><path class="g" d="M477.31,162.25c-.18-.22.76,1.33.91,1.63.63.92,1.19,1.89,1.75,2.86-.79-1.53-2.58-4.27-2.66-4.49Z"/><path class="g" d="M478.22,163.89l-2.75-4.2c2.41,3.77,2.88,4.45,2.75,4.2Z"/><path class="g" d="M488.31,182.63l.96,1.82.87,1.86,1.75,3.73c-1.38-2.97-2.72-5.96-4.31-8.83l.72,1.41Z"/><path class="g" d="M466.51,146.43c.59.74,1.14,1.51,1.72,2.27l-1.51-2.03-1.61-1.96,1.4,1.73Z"/><path class="g" d="M458.56,136.5c1.42,1.55-1.81-2.25-.33-.59-2.28-2.59-4.21-4.83-6.04-6.76,1.92,2.07,3.85,4.38,6.37,7.34Z"/><path class="g" d="M449.07,125.97c.99,1,2.01,2.05,3.12,3.18-1.05-1.07-2.08-2.12-3.12-3.18Z"/><path class="g" d="M470.71,152.59c-.21-.33-.6-.96-2.22-3.27l1.07,1.66c.35.49.74,1.05,1.14,1.61Z"/><path class="g" d="M469.61,151.04l-.04-.06c-1.24-1.75-2.1-2.96-2.47-3.48.32.45,1.07,1.51,2.5,3.53Z"/><path class="g" d="M471,153c-.11-.15-.18-.26-.29-.41.1.16.17.25.29.41Z"/><path class="g" d="M482.21,170.99c-1.51-2.53-4.61-7.82-1.72-2.64,1.1,1.8-.56-1.17,1.72,2.64Z"/><path class="g" d="M472.33,155.06c1.02,1.45,1.92,2.98,2.89,4.47-.04-.1-.53-.93.28.29-1.06-1.58-2.06-3.21-3.17-4.76Z"/><polygon class="g" points="470.8 152.95 472.33 155.06 471.19 153.44 470.8 152.95"/><path class="g" d="M455.17,132.76c-.76-.86-1.56-1.77-2.4-2.72-.88-.92-1.8-1.89-2.78-2.92,1.03,1.12,2.14,2.21,3.14,3.38,1.01,1.17,2.01,2.33,2.99,3.46.3.3,1.19,1.26-.95-1.2Z"/><path class="g" d="M462.41,141.47c-.1-.12-.23-.28-.32-.4.19.25.34.45.32.4Z"/><path class="g" d="M429.65,107.9c.11.11.21.2.33.31.03.02.05.03.09.06l-.42-.36Z"/><path class="g" d="M456.44,134.36c1.49,1.74,2.4,2.76,3.27,3.73-1.12-1.29-2.32-2.66-3.6-4.13-.13-.14-.16-.16.32.4Z"/><path class="g" d="M443.58,120.41c.43.42.88.86,1.36,1.33.46.48.93.99,1.42,1.51-.4-.43-.98-1.1-1.54-1.66-.57-.56-1.07-1.04-1.23-1.18Z"/><path class="g" d="M461.63,140.44c.07.09.14.17.21.27-.45-.6-.4-.52-.21-.27Z"/><path class="g" d="M461.63,140.44c-.74-.91-1.33-1.63-1.92-2.35.87,1.09,1.68,2.1,2.38,2.97-.17-.23-.34-.46-.46-.62Z"/><path class="g" d="M422.68,103.06c.18.09,1.47,1.05,3.21,2.4.87.68,1.87,1.43,2.87,2.26.97.86,1.98,1.75,2.96,2.61,3.9,3.3,1.55.92-1.73-2.12-.16-.05-.1-.13-4.29-3.32.7.6,3.03,2.37,4.58,3.83,1.59,1.42,2.59,2.33.89.9-2.62-2.29-3.76-3.15-4.52-3.77-.76-.62-1.17-.96-2.48-2.03,1.1.93-.66-.41-2.56-1.85-1.87-1.48-4.03-2.85-3.44-2.37,1.69,1.13,3.27,2.41,4.89,3.65.08.09-1.69-1.25-.37-.19Z"/><path class="g" d="M437.54,114.81l1.57,1.49c-.9-.85-1.63-1.62-2.5-2.39-.86-.77-1.8-1.61-3.01-2.7-2.75-2.33-3.34-2.8-3.54-2.94l4.03,3.5c1.33,1.18,2.73,2.29,3.98,3.55l-.54-.5Z"/><path class="g" d="M446.1,123.06c-.31-.3-.77-.75-1.25-1.21-.5-.45-1.03-.93-1.44-1.31-.83-.75-1.21-1.07-.1.06.58.55,1.06,1,1.47,1.39.39.4.71.73.98,1.01.54.55.88.89,1.16,1.17.56.56.91.88,2.23,2.24-7.09-7.41,2.07,2.1-3.01-3.3,1.4,1.45,2.65,2.76,3.84,3.99-1.26-1.35-2.48-2.64-3.63-3.87.06.07.11.12.16.17l.03.03h0c.3.32.39.43.05.07-.02-.02-.11-.11-.15-.15-.06-.04-.19-.17-.34-.31-2.04-2.16-.31-.35.34.31.03.02.08.08.1.08,0,0-.02-.02-.03-.03-1.17-1.26-2.41-2.43-3.66-3.6l-3.74-3.53c.79.75,1.67,1.6,2.79,2.68.56.54,1.19,1.13,1.89,1.8.71.66,1.48,1.41,2.3,2.29Z"/><path class="g" d="M477.53,163.74c-.17-.27-.15-.26-.16-.29-.37-.55-.51-.76.16.29Z"/><path class="g" d="M475.3,160.16c.41.62.78,1.13,2.08,3.17,1.11,1.78-.04.01,0,.12.82,1.21,2.75,4.31.38.39l-.4-.6c-2.2-3.49-4.98-8.02-4.58-7.42.59,1.06,1.12,1.99,2.53,4.34Z"/><path class="g" d="M461.46,140.65c-1.73-2.27-3.65-4.38-5.52-6.53l2.79,3.34-.11-.2c.81.91,1.33,1.58,1.69,2.05.37.46.59.73.72.89.27.32.22.22.42.45Z"/><path class="g" d="M428.94,107.23l.92.67c-1.25-1.08-2.62-2-3.93-3l3.01,2.33Z"/><path class="g" d="M420.19,100.36l.37.19c-.78-.59-1.61-1.12-2.41-1.68l2.04,1.49Z"/><path class="g" d="M87.69,399.38l1.27,2.16c-.6-1.02-.99-1.68-1.27-2.16Z"/><path class="g" d="M79.07,383.44l-.24-.38c.4.74.57,1.04.24.38Z"/><path class="g" d="M163.25,89.16c-3.12,1.91-6.63,4.03-6.21,3.86l1-.54c2.15-1.39,3.8-2.45,5.22-3.33Z"/><path class="g" d="M59.92,238.61c.07-.34.14-.7.21-1.05.17-.87.33-1.69.47-2.42-.21,1.04-.51,2.21-.69,3.47Z"/><path class="g" d="M59.82,241.22l-.9,4.73c.2-1.06.49-2.58.9-4.73Z"/><path class="g" d="M154.87,471.04c.81.54,1.61,1.09,2.46,1.57-3.79-2.55-2.13-1.42-2.46-1.57Z"/><path class="g" d="M316,57.33c-3.14-.42-5.63-.75-7.82-1.05,3.77.53,6.81.99,7.82,1.05Z"/><path class="g" d="M83.33,393.64c.78,1.33,1.12,1.89,1.12,1.84-.8-1.37-1.26-2.13-1.12-1.84Z"/><path class="g" d="M299.08,55.53c.56.05,1.1.1,1.66.15,1.15.08,2.31.16,3.53.25,1.22.1,2.51.15,3.9.36-1.39-.23-2.9-.31-4.44-.44-1.54-.12-3.12-.23-4.66-.32Z"/><path class="g" d="M472.08,410.71c.14-.22.32-.48.45-.68.03-.07-.16.23-.45.68Z"/><path class="g" d="M509.77,313.9c-.13,1.03-.34,2.7-.54,4.28.1-.77.26-2.06.54-4.28Z"/><path class="g" d="M381.97,77.2c2.13,1.02.35.13,0,0h0Z"/><path class="g" d="M392.04,82.7c-.45-.22-.8-.38-.86-.39.18.07.48.21.86.39Z"/><path class="g" d="M275.62,55.68c-.07,0-.12,0-.2,0,.7,0,.58,0,.2,0Z"/><path class="g" d="M385.13,78.82c-.79-.41-1.69-.88-2.68-1.39.43.23,1.25.65,2.68,1.39Z"/><path class="g" d="M384.72,78.57c.72.37,1.29.67,1.83.95.27.12.04,0-1.83-.95Z"/><path class="g" d="M378.98,75.85c1.23.56,2.37,1.08,3.48,1.58-.42-.2-.59-.28-.48-.23-.63-.28-1.52-.69-3-1.35Z"/><path class="g" d="M313.36,509.19c.15-.02.33-.04.5-.06,2.35-.33,1.32-.2-.5.06Z"/><path class="g" d="M116.66,128.68c.07-.08.11-.12.18-.2-.08.08-.17.18-.24.25l.06-.05Z"/><path class="g" d="M111.1,135.03c2.29-2.77,3.57-4.37,5.5-6.29-.7.62-1.42,1.22-2.1,1.87l-3.41,4.42Z"/><path class="g" d="M113.28,434.37l-3.82-4.53c2.38,2.68,4.42,4.97,5.41,6.09,1.02,1.08.93,1.03-.84-1.11-.19-.11-1.22-1.26-2.69-2.91-1.45-1.67-3.39-3.79-5.13-6.09-1.78-2.26-3.57-4.51-4.94-6.24-1.3-1.78-2.22-3.02-2.39-3.15l-2.22-3.22c.65.91.76,1.05,1.4,1.95-4.32-6.25-3.4-4.51-8.68-12.75-1.77-2.91-2.86-5.04-1.69-3.03l-3.85-6.56c-.56-.95-.72-1.34-.65-1.23.07.13.41.71.96,1.66-1.01-1.65-1.81-3.41-2.72-5.12l-2.65-5.15.05.07c-.81-1.44-2.35-4.86-3.15-6.51-1.18-2.7.64,1.34.36.63-.89-1.95-1.84-3.87-2.67-5.84-.44-1.23-.17-.61.43.82.66,1.41,1.68,3.63,2.59,5.65-1.11-2.79-1.68-3.99-2.6-5.99-.82-2.04-2.04-4.86-4.26-10.93.68,1.9,1.48,3.76,2.22,5.64-.32-.92-.68-1.89-1.06-2.92-.39-1.03-.82-2.12-1.2-3.32-.79-2.4-1.69-5.14-2.76-8.4.47,1.55,4.16,13.06,1.87,6.49-.63-1.86-1.45-4.31-2.66-7.87.04-.03-.19-.93-.6-2.37-.41-1.44-.98-3.42-1.6-5.63l.21.27c-.34-1.19-.62-2.06-.8-2.74-.17-.68-.3-1.17-.41-1.61-.23-.86-.39-1.48-.76-2.88-1.23-5.39-1.41-6.53-1.53-7.83-1.54-8.72.92,6.05-.95-4.27-.32-1.82-.61-3.49-.9-5.13-.22-1.64-.43-3.24-.64-4.89-.42-3.29-.99-6.75-1.28-11.15-.35-5.15.15.89.04-.95l-.45-4.55c-.08-1.12-.02-.76,0-.58-.24-3.84-.16-.31-.38-6.37-.05-.41-.08-1.39-.1-2.75,0-.68-.02-1.45-.03-2.3,0-.42-.01-.86-.02-1.32.02-.45.03-.92.05-1.4.07-1.92.14-4.03.21-6.12.08-2.09.06-4.18.21-6.04.18-1.84.01.89.1.33.34-5.13.48-7.33.61-9.3.15-1.97.4-3.7.84-7.9l.5-3.57c.15-1.19.43-2.36.64-3.54-1.02,5.19.05-1.48,1-7.33-.37,1.84-.69,3.42-.91,4.47l.8-4.66c.25-1.56.66-3.08.98-4.63.28-1.11.11-.17-.19,1.35.13-.63.26-1.23.36-1.7.81-3.29.48-1.56,0,.82-.28,1.12-.57,2.23-.84,3.3-.33,2.31-.63,4.48-.47,4.02.1-.61.3-1.77.51-3.06-.09.6-.14.99-.07.72.09-.31.17-1.3.51-2.8l.62-2.06.06-.52,1.43-6.01c.22-1.01.51-1.99.8-2.98l.86-2.96c.57-2.13,1.12-4.2,1.68-6.31.66-2.08,1.34-4.21,2.07-6.48.37-1.14.75-2.32,1.14-3.55.41-1.22.92-2.47,1.42-3.8.51-1.32,1.04-2.71,1.6-4.18.57-1.47,1.14-3.02,1.89-4.61-1.34,3.22-.15.75-.12.97-.85,1.72-1.77,4.28-2.92,7.21-.55,1.47-1.2,3.03-1.76,4.68-.56,1.65-1.13,3.36-1.71,5.08,1.23-3.59,1.02-2.78.73-1.86,1.26-4.14,2.94-8.12,4.46-12.18,0,.16.26-.48.7-1.54.44-1.06,1.14-2.51,1.85-4.05-.62,1.13.35-1.09,1.73-4.19.35-.77.72-1.6,1.1-2.45.42-.83.85-1.67,1.27-2.5.83-1.65,1.62-3.22,2.22-4.4.21-.26-.31.9-3.26,6.62,3.41-6.23,3.84-8.35,7.51-14.3-.78,1.36-1.21,2.09-1.49,2.65.89-1.61,2.46-4.35,3.69-6.46,1.24-2.1,2.25-3.49,1.69-2.6l-.85,1.32c1.41-2.2,3.19-4.96,5.08-7.9,1.94-2.9,4.14-5.88,6.09-8.68.96-1.42,2.02-2.67,2.93-3.87.92-1.19,1.77-2.29,2.5-3.23,1.44-1.88,2.41-3.14,2.68-3.49.08-.07-.74,1.16-1.09,1.69,3.85-4.86,7.74-9.72,11.98-14.29-1.03,1.29,3.57-3.03-2.34,3.29.86-.89,1.83-1.9,3.03-3.14,1.21-1.25,2.59-2.8,4.5-4.59-1.25,1.14-3.19,2.79-1.54,1.16,2.36-2.15,3.17-2.89,4.12-3.76.47-.44.98-.91,1.73-1.6.75-.69,1.72-1.63,3.24-2.86-1.94,1.64.04-.38,3.08-3.01-.45.44.4-.05-.69.93l3.71-3.36c1.24-1.12,2.56-2.13,3.84-3.21-1.94,1.57-.23.42,1.57-.91-.42.3,1.28-1.03,3.34-2.65,2.1-1.57,4.65-3.31,5.72-4.11l-3.48,2.41c2.3-1.63,4.01-2.86,5.42-3.9.71-.51,1.33-1,1.94-1.42.61-.42,1.19-.81,1.76-1.2,1.15-.78,2.3-1.56,3.74-2.53,1.46-.95,3.17-2.16,5.63-3.52-1.15.72-2.76,1.91,2.19-.9.55-.35,1.44-.92,2.59-1.64,1.15-.72,2.55-1.66,4.23-2.55,1.68-.92,3.54-1.95,5.53-3.05,1.01-.53,2.02-1.13,3.11-1.64,1.09-.51,2.2-1.03,3.32-1.56l1.76-.73c2.31-1.07,4.59-2.18,6.97-3.08-2.21.87-6.24,2.93-10.58,5.02-2.19,1-4.34,2.28-6.41,3.37-2.05,1.12-3.99,2.14-5.57,3.03,3.76-1.91,1.08-.48,6.7-3.37,2.01-.96-3.02,1.65-4.68,2.5l6.56-3.34,1.64-.83,1.68-.75,3.35-1.51c-.33.07,2.22-1.12,4.79-2.31,2.61-1.09,5.24-2.14,4.96-2.09-4.99,1.89-9.76,4.28-14.61,6.48-.32.07,1.74-.96,5.08-2.56.84-.4,1.75-.83,2.73-1.29.98-.46,2.01-.96,3.12-1.39,2.22-.88,4.61-1.84,7.04-2.8,2.49-.92-1.76.95-1.54.91.32-.13,1.04-.43,1.97-.81.93-.38,2.07-.84,3.22-1.22,2.29-.79,4.54-1.55,5-1.69l-4.17,1.49c2.76-.91,4.99-1.71,7.36-2.55,2.38-.82,4.96-1.5,8.32-2.41,1.17-.3,2.89-.82,4.41-1.12,1.52-.32,2.79-.59,2.98-.67-3.86.73-4.73.45-2.2-.25.41-.09,3.51-.76,6.84-1.49.83-.18,1.68-.37,2.51-.53.83-.14,1.64-.27,2.39-.39,1.49-.24,2.73-.43,3.41-.54,3.93-.58-5.82,1.33-2.47.84.14-.06,2.29-.49,3.18-.67,2.5-.41-1.01.3,4.4-.69.89-.27,11.1-1.4,2.56-.45,2.67-.34,4.09-.52,5.62-.72,1.54-.17,3.18-.43,6.34-.63-1.01.03.4-.15,2.73-.4,1.17-.12,2.57-.26,4.01-.4.72-.06,1.45-.15,2.18-.19.72-.03,1.43-.05,2.11-.08-.32.04.9.06,1.48.06,2.76-.06,5.2-.12,7.47-.17,2.27.03,4.36.12,6.44.17,2.07.07,4.12.09,6.29.21,2.17.17,4.46.35,7.03.54.95.08,5.89.55,3.78.42,1.47.15,2.82.28,5.97.68,6.08.89-7.02-.87-2.39-.14.2-.01,2.24.22,4.79.52,1.27.17,2.68.27,4.03.52,1.35.23,2.67.45,3.78.64-.34-.09-1.15-.25-2.24-.46-1.1-.2-2.47-.47-3.97-.62-2.98-.35-6.35-.75-8.6-1.02,0-.04.49-.02,1.39.05.9.07,2.22.2,3.86.37,1.65.19,3.64.34,5.87.69,2.23.37,4.7.79,7.36,1.24,2.11.36,3.39.59,4.14.8.75.18.98.25,1,.27.04.04-.79-.12-.06.04,3.92.89,6.71,1.52,8.9,2.02,2.17.58,3.74.99,5.23,1.39,1.49.4,2.9.78,4.74,1.27,1.84.51,4.05,1.33,7.21,2.41,4.98,1.8.16.28,1.24.73-3.3-1.11-5.83-1.97-8.1-2.73-2.3-.67-4.33-1.26-6.6-1.92l5.58,1.64c-2.14-.57-6.62-1.82-9.05-2.54,1.07.31,3.23.94,6.05,1.77,1.42.41,3,.86,4.69,1.35,1.67.57,3.45,1.17,5.3,1.8,1.84.64,3.75,1.24,5.64,1.94,1.87.74,3.75,1.48,5.58,2.21,1.82.75,3.64,1.38,5.28,2.16,1.65.76,3.2,1.47,4.61,2.11,2.02.87,5.5,2.41,3.88,1.63l-3.58-1.6c-3.25-1.56,6.78,2.93,2.27.85.6.26,1.22.53,1.84.8.61.3,1.23.61,1.86.92,1.26.63,2.57,1.28,3.94,1.97,1.37.69,2.79,1.41,4.29,2.17,1.45.84,2.98,1.72,4.58,2.65l1.15.8c-.12-.11-4.16-2.49-5.99-3.48,1.36.73,3.8,2.19,6.28,3.65,1.24.73,2.49,1.46,3.61,2.12,1.1.7,2.07,1.31,2.81,1.73-1.45-.95-2.86-1.95-4.37-2.81,1.17.62,2.35,1.37,3.59,2.14,1.24.77,2.53,1.58,3.85,2.4,1.31.84,2.7,1.64,4.02,2.58,1.32.94,2.66,1.89,4,2.84-2.37-1.83-1.23-.88-4.98-3.68,3.32,2.32-14.18-9.06-8.78-5.42-2.02-1.29-3.82-2.32-5.77-3.46-1.95-1.14-4.04-2.41-6.83-3.85.15.12,1.94,1.08-2.96-1.45-.23-.11-.76-.36-1.09-.52-.15-.08-.2-.11-.33-.17.1.05.17.09.27.14-.22-.1-.24-.11.1.05,1.16.62,2.1,1.12,2.48,1.34-1.25-.56-3.79-1.92-6.43-3.14-2.66-1.18-5.34-2.37-6.7-2.97-2.98-1.37,1.27.52-.35-.25l-2.03-.88-2.07-.79c-.37-.24-8.04-3.33-.84-.55l-6.46-2.55c-1.89-.78-4.21-1.5-6.43-2.29-2.23-.74-4.37-1.52-6.04-1.98-3.15-.91-7.99-2.17-5.22-1.45-1.75-.48-3.49-1-5.25-1.44l-5.31-1.2-.09-.04c-5.21-1.33-10.7-2.12-16.33-3.14-5.68-.69-11.53-1.59-17.66-2.01-1.81-.12-3.64-.25-5.78-.4-2.14-.06-4.59-.12-7.62-.2l-1.18-.11c-2.32-.11-5.81.01-8.97.07-3.16.07-5.99.1-6.98.27-1.25.04-3.29.17-5.76.34-1.24.09-2.58.19-4,.29-1.41.14-2.88.35-4.38.54-1.5.19-3.02.39-4.52.58-1.5.2-2.99.36-4.4.65-2.83.51-5.42.97-7.43,1.33l-.29.15c-.69.12-1.38.25-2.07.37-.68.16-1.36.32-2.05.47-1.37.32-2.75.64-4.18.98-1.42.34-2.89.68-4.42,1.04-1.52.4-3.1.89-4.78,1.36l.44-.03c-2.88.88-6.64,1.8-10.7,3.24-2.04.68-4.19,1.39-6.39,2.12-2.18.8-4.38,1.69-6.59,2.56.59-.27,2.84-1.15,4.44-1.75-10.78,3.7-22,9.59-31.08,14.45-2.21,1.31-3.83,2.23-5.4,3.11.21-.12.39-.23.55-.32-.23.13-.57.33-.92.53-1,.53-2,1.14-3.07,1.82.92-.56,1.79-1.12,2.58-1.54-1.72.99-4.21,2.68-6.69,4.27l-1.11.6c-.2.13-.36.23-.57.37-2.46,1.53-1.93,1.29-.59.52-1.26.79-2.32,1.64-3.18,2.25-1,.62-2.57,1.75-4.22,2.94-.83.59-1.68,1.2-2.49,1.78-.79.59-1.53,1.17-2.19,1.63-.76.65-3.66,2.95-6.51,5.22-2.75,2.4-5.44,4.79-5.98,5.37-.09.05-.75.61.45-.43-2.54,2.09-4.89,4.37-6.99,6.44l-1.09.87-2.54,2.53-2.42,2.65c-3.06,3.1-4.34,4.38-1.42,1.18-1.78,1.92-3.02,3.26-3.99,4.3-.92,1.08-1.58,1.85-2.2,2.58-1.24,1.47-2.4,2.75-5.19,6.2l.21-.39c-1.96,2.5-5.01,6.55-6.24,8.02-1.1,1.4-2.87,3.92-5.16,7.09-.56.8-1.18,1.62-1.78,2.52-.58.9-1.19,1.84-1.81,2.82-1.25,1.94-2.57,4.01-3.95,6.15-5.2,8.75-10.59,19-14.22,27.37.85-1.56-.09.34-1.15,2.77-1,2.45-2.21,5.4-2.26,5.77-.44.97-1.4,3.32-.36.56-.42,1.08-.82,2.1-1.19,3.06-.36.97-.65,1.89-.95,2.77-.6,1.75-1.13,3.32-1.64,4.8-.49,1.49-1.03,2.87-1.4,4.31-.38,1.43-.77,2.88-1.19,4.44-.34,1.01.47-1.94.18-1.04-.19.72-.76,2.86-1.06,3.78-.29.9.33-1.32.71-2.75-.63,2.29-1.13,4.07-1.51,5.45-.3,1.41-.51,2.42-.65,3.17-.28,1.49-.29,1.91-.29,2.27-.58,2.34-1,4.09-1.36,5.69-.28,1.61-.51,3.07-.77,4.79-.35,1.64-.89,4.38.13-1.43-.15.82-.45,2.47-.82,4.5-.18,1.02-.38,2.12-.59,3.27-.15,1.15-.3,2.34-.45,3.51-.59,4.66-1.15,8.96-1.02,9.14-.11,1.03-.36,4.63-.41,5.5-.14,1.86-.25,3.29-.35,4.51-.08,1.22-.07,2.23-.11,3.24-.05,2.01-.1,4-.19,7.66l.07-2.03c.01,2.89.02,6.08.19,11.97l-.02-.17c0,3.38.22,5.43.31,6.82.11,1.39.17,2.11.22,2.82.06.72.11,1.43.22,2.79.05.68.11,1.53.2,2.62.13,1.09.29,2.42.48,4.07v-.73c.18.61.53,3.54.96,7.28.56,3.72,1.33,8.24,2.06,12.04-.17-.92-.3-1.84-.45-2.76.35,2.09.98,4.97,1.56,7.87.6,2.9,1.1,5.83,1.73,7.86.25.89-.46-1.39-.77-2.65,2.87,10.76.5,1.36,2.78,9.33.18.75,0,.28-.03.31-.02.01,0,.15.12.61.12.47.32,1.27.79,2.59.43,1.32,1.75,5.15,3.32,9.53.87,2.16,1.79,4.46,2.68,6.66.43,1.1.86,2.18,1.26,3.21.44,1.01.86,1.96,1.24,2.84-.64-1.55-1.28-3.09.34.4,2.33,5.42,6.65,14.52,9.45,19.06.36.66.49.91.5.94.57.97,1.32,2.25,2.14,3.66.82,1.41,1.69,2.95,2.66,4.38,1.88,2.88,3.64,5.58,4.41,6.69.46.95,1.8,2.78,3.42,5.1,1.64,2.3,3.56,5.07,5.64,7.56,2.04,2.52,3.91,5,5.41,6.72,1.5,1.73,2.44,2.86,2.37,2.89,1.53,1.73,3,3.52,4.58,5.21l4.79,5.02-.27-.24c.76.8,1.47,1.54,2.12,2.22.66.67,1.3,1.25,1.87,1.8,1.16,1.09,2.12,1.99,2.95,2.78,1.68,1.55,2.8,2.64,4,3.63,1.54,1.36.39.4.25.3,4.89,4.25,7.52,6.66,10.17,8.63,1.31,1.01,2.56,1.98,4.03,3.11.74.55,1.5,1.19,2.41,1.81.91.63,1.9,1.31,3.02,2.08l.86.74c2.32,1.81,15.39,10.75,26.77,16.45-.12-.05-.36-.15-1.26-.6,6.35,3.29,14.06,7.02,20.96,9.8,1.73.69,3.39,1.35,4.94,1.97.78.31,1.53.6,2.26.89.74.25,1.44.48,2.12.71,2.69.89,4.81,1.57,6.08,1.9l2.24.73c.75.23,1.52.42,2.27.63l4.55,1.25c-11.73-3.36,1.79.35-3.02-1.08,2.31.64,5.28,1.52,6.97,2.03.85.24,1.38.36,1.34.37-.02,0-.19-.03-.53-.1-.34-.06-.85-.2-1.56-.4l-.88-.27c-.53-.1.11.11,1.37.48,1.26.36,3.18.77,5.13,1.24,1.96.46,3.97.93,5.48,1.28,1.5.38,2.52.5,2.43.54,2.96.53,5.9,1.06,8.84,1.58,2.95.47,5.91.78,8.84,1.18,1.47.17,2.93.42,4.41.52,1.47.11,2.94.23,4.41.34,1.47.11,2.93.23,4.39.34.73.05,1.46.13,2.19.16l2.19.06c2.92.08,5.82.16,8.72.24,2.89-.01,5.77-.12,8.64-.17,1.43-.05,2.87-.04,4.29-.13,1.42-.11,2.84-.21,4.26-.32,1.42-.11,2.83-.21,4.24-.32,1.41-.1,2.82-.2,4.21-.41-.86.05-1.72.14-2.59.14,2.6-.24,5.19-.63,7.79-.94,2.05-.23,2.76-.24-2.8.46,1.47-.14,3.79-.46,5.77-.74,1.99-.24,3.59-.67,3.67-.67,10.81-1.87-4.19.92-.88.33l4.5-.81-1.02.16c1.81-.36,2.81-.56,4.16-.83.68-.13,1.46-.28,2.47-.48,1.01-.23,2.26-.53,3.9-.91,4.16-.93,2.15-.4,3.79-.78,0,0,.13-.02.52-.11.38-.09,1.01-.24,1.99-.47,3.19-.83,6.35-1.77,9.53-2.66l-3.84.97c2.11-.61,4.34-1.26,5.5-1.6.58-.16.88-.3.77-.27s-.64.18-1.75.45c3.22-.89,12.02-3.7,20.24-7.12,2.09-.77,4.07-1.74,5.98-2.59,1.9-.86,3.7-1.67,5.3-2.4,3.17-1.52,5.51-2.79,6.44-3.22,1.36-.71,2.71-1.43,4.08-2.15,1.34-.78,2.7-1.56,4.09-2.37,2.78-1.62,5.76-3.24,8.89-5.33-1.58.99-2.59,1.48,2.86-2-.46.38-.06.17.86-.39.92-.56,2.4-1.45,3.98-2.61,1.6-1.13,3.4-2.39,5.06-3.56.83-.58,1.63-1.14,2.36-1.64.71-.53,1.34-1,1.87-1.4-1.88,1.39,1.74-1.46,5.08-4.11,1.7-1.29,3.2-2.69,4-3.39.79-.71.82-.77-.59.39,4.1-3.52.31-.14,3.45-2.77,9.6-8.54,20.58-19.55,30.27-32.17.13-.22-1.56,1.84.5-.87,1.82-2.13,3.42-4.43,5.11-6.66.9-1.28,1.28-1.9,1.86-2.78.3-.44.64-.93,1.11-1.62.46-.69,1.04-1.58,1.83-2.78-.46.67-1.15,1.66-.02-.12,8.58-12.99,15.9-27.21,21.66-42.1,5.77-14.89,9.99-30.43,12.66-46.02-.82,4.21-.32,1.4.24-1.83-.38,2.09-.08-.06-.19.34.33-2.18.61-4.37.92-6.55l.45-3.28c.16-1.09.31-2.19.38-3.29.03-1.21.29-4.75.55-8.16.16-1.7.19-3.38.21-4.72.03-1.34.03-2.33.01-2.68l-.08,4.19c-.02-2.79-.11-.84-.32,1.69-.28,2.53-.61,5.65-.68,5.24-.08,1.56-.21,3.36-.37,5.34-.22,1.98-.55,4.13-.86,6.41-.16,1.14-.32,2.31-.48,3.51-.08.6-.16,1.2-.24,1.81-.11.6-.22,1.21-.33,1.82-.44,2.45-.87,4.96-1.26,7.49-.43,2.21.28-1.91.02-.73-.3,2.58-1.07,5.61-2.39,11.26l.13-.64c-.23.99-.45,1.95-.66,2.87-.23.92-.5,1.8-.74,2.66-.49,1.72-.95,3.33-1.39,4.88-.47,1.55-.82,3.06-1.34,4.49-.49,1.44-.98,2.86-1.47,4.3-.49,1.43-.99,2.88-1.5,4.38-.5,1.51-1.17,3.01-1.8,4.63-.64,1.62-1.32,3.32-2.06,5.15-.18.46-.37.92-.56,1.4-.21.46-.43.94-.65,1.42-.44.96-.9,1.96-1.37,3l.64-1.2c-1.65,3.56-2,4.31-2.78,5.98-1.73,4.17,4.55-10.05,3.01-6.24-.58,1.17-1.58,3.33-2.79,5.97-.57,1.33-1.34,2.71-2.08,4.17-.75,1.45-1.52,2.96-2.29,4.45-.38.75-.77,1.49-1.14,2.22-.39.72-.81,1.42-1.2,2.11-.79,1.37-1.54,2.66-2.22,3.83-1.35,2.32-2.39,4.11-2.95,4.8-3.26,5.09,1.05-1.43-2.21,3.65l-.91,1.32-.76,1.33c-.54.83-1,1.57-1.44,2.17-.44.6-.82,1.1-1.12,1.51-.61.81-.95,1.23-1.01,1.28.55-.79,1.57-2.23,2.17-3.08-1.52,2.07-3.61,5.03-5.45,7.64-.9,1.33-1.85,2.48-2.58,3.43-.74.95-1.31,1.67-1.58,2.01,1.2-1.52,2.43-3.01,3.6-4.55-1.23,1.65-2.56,3.3-3.89,5.01-.67.85-1.34,1.71-2.02,2.57l-1.02,1.3-1.08,1.26c-2.95,3.34-5.81,6.9-9.02,10.12-1.57,1.64-3.13,3.29-4.68,4.91-1.62,1.55-3.23,3.09-4.82,4.61-3.11,3.1-6.39,5.8-9.36,8.45l.94-.76c-1.15,1-2.11,1.86-2.97,2.59-.88.7-1.63,1.29-2.3,1.81-1.34,1.04-2.33,1.81-3.35,2.61-1.03.78-2.05,1.64-3.55,2.7-1.5,1.07-3.42,2.43-6.14,4.37l.39-.29c-2.11,1.64-5.15,3.54-8.22,5.52,2.81-1.87-5.4,3.34-1.7.9-.69.45-1.32.85-1.89,1.22-.59.34-1.11.65-1.58.93-.95.55-1.69.99-2.27,1.33-1.17.7-1.75,1.04-2.22,1.32-.46.28-.79.49-1.48.91-.69.42-1.71,1.08-3.65,2.09l-1.83.85c-1.31.71-2.02,1.09-3.13,1.69-1.13.58-2.63,1.45-5.69,2.8,4.96-2.31-3.93,1.65,1.62-.95-3.21,1.41-5.99,2.65-8.45,3.77-2.49,1.06-4.7,1.9-6.66,2.71-1.98.77-3.71,1.55-5.38,2.09-1.67.56-3.22,1.06-4.76,1.52-3.01,1.13-.13.18,3.07-.89,3.23-1.01,6.66-2.51,5.01-1.8,1.42-.52.19,0-1.9.85-2.12.78-5.13,1.79-7.22,2.49-1.06.34-2.05.66-3.1,1-1.05.33-2.19.58-3.52.94-1.33.35-2.87.76-4.75,1.26-.94.26-1.96.54-3.09.85-1.14.26-2.39.55-3.76.86,1.09-.26,1.16-.28,2.25-.53-2.06.45-4.06.93-6.19,1.43-1.06.25-2.15.5-3.29.77-1.15.2-2.35.4-3.63.62-2.83.63-6.6,1.17-7.4,1.47l10.16-1.85c-2.87.55-5.66,1.09-8.91,1.71-1.62.35-3.39.52-5.33.8-1.95.24-4.08.5-6.48.8.74-.13,3.59-.53,5.54-.8-1.4.15-2.75.33-4.11.51-1.36.18-2.73.38-4.19.44.2-.07,1.09-.11,2.39-.29,1.3-.17,3.03-.4,4.92-.64,1.89-.25,3.95-.51,5.93-.77,1.96-.37,3.83-.72,5.37-1.01-1.5.21-4.4.83-6.57,1.13-2.17.29-3.58.47-2.03.19-2.23.39-4.98.74-8.12,1.12-3.15.25-6.68.48-10.48.86l.5-.13c-1.2.15-3.69.25-5.91.3l4.01-.22c-6.16.24-11.88.32-17.79.1,6.19.17,6.88.18,6.68.21-.2.04-1.29.12,1.33.09-1.91.1-3.48.02-4.8,0-1.32-.04-2.38-.07-3.29-.09-1.81-.06-2.96-.13-4.17-.19-1.21-.04-2.47-.2-4.5-.38-2.03-.17-4.82-.4-9.08-.76,2.3.24,8.66.74,5.04.52-1.62-.15-3.51-.24-5.22-.49-1.71-.24-3.27-.47-4.26-.61-11.24-1.41,1.71.32-3.08-.23-3.82-.54-5.5-.81-10.41-1.61l-.02-.1c-1.59-.29-2.83-.51-3.82-.69-.97-.22-1.69-.38-2.23-.5-1.08-.23-1.47-.3-1.81-.35-.69-.11-1.22-.18-6.88-1.53l4.82.98c-1.97-.46-3.95-.84-5.9-1.37.41.07.82.17,1.23.22-3.19-.83-5.27-1.43-7.33-2.01-1.03-.3-2.06-.59-3.22-.92-1.16-.33-2.41-.81-3.94-1.32,1.4.55-.85-.1-6.28-1.94-3.65-1.39,2.05.74-5.5-2.2.86.31,1.77.64,2.86,1.04.55.21,1.14.44,1.81.7.67.24,1.41.5,2.24.8.37.11,1.71.5,2.09.61-4-1.29-9.88-3.69-12.62-4.75,1.05.42,2.3.92,2.94,1.18-1.83-.71-3.67-1.38-5.48-2.11l-5.38-2.36c-1.67-.8-.32-.22,1.01.36-1.09-.48-2.01-.89-3.06-1.35-1.05-.47-2.24-.95-3.79-1.77.85.33.65.24,5.19,2.22-3.44-1.44-6.74-3.19-10.08-4.85-.34-.18-1.59-.86-2.61-1.41-1.03-.53-1.76-1.04-1.13-.68-2.69-1.54-5.99-3.43-9.52-5.44-1.72-1.08-3.49-2.2-5.26-3.32-1.77-1.14-3.57-2.22-5.21-3.46-.36-.25-1.06-.73-2.5-1.72-1.57-1.13-3.1-2.22-4.62-3.31-1.47-1.16-2.93-2.32-4.43-3.51-1.49-1.19-3.05-2.38-4.64-3.68-1.56-1.33-3.19-2.72-4.94-4.21-1.26-1.19-2.6-2.3-3.8-3.55-5.22-4.93,4.98,4.99-3.71-3.22-3.08-2.91-3.63-3.47-3.66-3.58-.04-.1.4.28-.61-.8-1.48-1.5-3.5-3.56-5.82-5.93-2.29-2.41-4.7-5.32-7.22-8.28,1.69,1.94,3.01,3.46,4.59,5.28ZM68.64,358.55c.29.81.71,2.02,1.12,3.18.46,1.14.89,2.22,1.09,2.82-.41-.89-.74-1.69-1.1-2.61-.33-.93-.65-1.99-1.11-3.38ZM63.01,225.93c-.3,1.25-.76,3.16-1.28,5.33.37-1.57.74-3.37,1.28-5.33ZM358.02,67.51c-.07-.02-.12-.04-.18-.05-3.63-1.27-2.34-.82.18.05ZM365.5,70.28c.75.28.7.25.39.11-.53-.18-2.19-.85-4.09-1.58.53.21,1.47.62,3.7,1.47ZM338.18,505.21l-1.52.32c3.41-.82,2.46-.57,1.52-.32Z"/><path class="g" d="M59.84,240.87c-.1.48-.14.6-.18.71-.1.67-.09.68.18-.71Z"/><path class="g" d="M154.42,470.74l.22.16c.12.08.19.12.23.14l-.45-.3Z"/><path class="g" d="M244.13,59.32c-1.61.26-2.51.41-3.12.51-.08.04.65-.07,3.12-.51Z"/><path class="g" d="M403.41,88.88c-1.42-.94-2.93-1.75-4.4-2.6,2.14,1.24,2.92,1.66,3.95,2.37-.08-.08-.89-.64.46.23Z"/><path class="g" d="M438.28,116.15c.54.51,1.15,1.08,1.69,1.59l-.12-.17c-2.3-2.19-3.93-3.7-1.57-1.42Z"/><path class="g" d="M407.22,91.7c.15.14.9.64,1.99,1.34.55.35,1.18.75,1.86,1.19.66.47,1.37.97,2.1,1.48-.18-.12-.34-.24-.52-.37.46.26-.09-.16-1.15-.91-1.06-.74-2.7-1.72-4.3-2.74Z"/><path class="g" d="M413.86,96.19c.9.64,1.82,1.29,2.7,1.91.37.21-1.09-.78-2.7-1.91Z"/><path class="g" d="M374.88,74.06c1.54.72,1.01.34,1.88.77.89.34-1.71-.79-3.46-1.55-.87-.39-1.56-.62-1.47-.57.09.03.93.39,3.05,1.35Z"/><polygon class="g" points="409.51 93.49 408.49 92.71 406.76 91.7 409.51 93.49"/><path class="g" d="M385.14,79.31l5.07,2.63c-.07-.05.58.27,1.38.67-1.56-.8-3.2-1.65-4.44-2.28-1.23-.63-2.06-1.06-2.01-1.01Z"/><path class="g" d="M391.58,82.61c1.62.86,3.11,1.77,4.01,2.25-.87-.48-2.7-1.58-4.01-2.25Z"/><path class="g" d="M402.93,89.3c-.47-.31-.94-.63-1.42-.92l-3.49-2.02,2.47,1.44,1.23.72,1.2.78Z"/><path class="g" d="M327.19,59.6l-6.14-1.07c-.63-.08,1.04.24,3.32.64,1.47.24,3.75.63,2.82.43Z"/><path class="g" d="M345.44,64.25c-1.61-.48-1.72-.53-2.62-.82l-.21.07,2.84.76Z"/><path class="g" d="M327.79,60.02c-.62-.08-8.91-1.49-1.14-.11.31.04,2.01.31,2.92.48.45.1.71.15.5.09-.2-.06-.87-.22-2.28-.47Z"/><polygon class="g" points="234.62 60.82 236.16 60.46 235.9 60.31 234.62 60.82"/><path class="g" d="M159.04,93.09c6.24-3.92,1.39-1.08,7.06-4.56.75-.44-.47.18-1.6.93-1.15.72-2.29,1.44-1.55.94-3.72,2.44-5.7,3.68-3.91,2.69Z"/><path class="g" d="M162.94,90.4c.59-.39,1.22-.81,1.9-1.25-1.07.71-1.58,1.04-1.9,1.25Z"/><path class="g" d="M511.55,296.57c.17-1.58.16-3.17.23-4.75l-.15,3.07c0,.56-.06,1.12-.08,1.68Z"/><path class="g" d="M511.7,287.44l.16-1.12-.05-2.86c-.02,1.07-.06,3.16-.11,3.98Z"/><path class="g" d="M64.93,345.93l-.13-.34c.17.71.47,1.78,1.07,3.92l-.94-3.58Z"/><polygon class="g" points="90.93 404.4 90.33 403.47 91.35 405.27 90.93 404.4"/><path class="g" d="M124.83,446.11c-.78-.77-1.69-1.56-2.51-2.43-.83-.86-1.66-1.73-2.42-2.53,3.28,3.5,5.28,5.45,4.93,4.95Z"/><path class="d" d="M363.02,125.92c-5.98,10.05-14.8,18.11-25.35,23.14-10.55,5.04-22.36,6.84-33.93,5.16-11.57-1.67-22.39-6.74-31.09-14.56-8.69-7.82-14.88-18.04-17.76-29.37-2.89-11.33-2.35-23.26,1.54-34.29,3.89-11.03,10.97-20.65,20.33-27.66,9.36-7.01,20.59-11.08,32.27-11.7,11.68-.63,23.28,2.23,33.33,8.19h.07c6.68,3.96,12.51,9.21,17.16,15.43,4.65,6.22,8.03,13.3,9.94,20.83,1.91,7.53,2.32,15.36,1.21,23.05-1.12,7.69-3.74,15.08-7.71,21.76Z"/><path class="c" d="M350.91,118.72c-4.56,7.67-11.28,13.81-19.33,17.65-8.05,3.84-17.05,5.21-25.88,3.94-8.83-1.28-17.08-5.14-23.71-11.11-6.63-5.97-11.34-13.76-13.54-22.41-2.2-8.64-1.78-17.74,1.19-26.15,2.98-8.41,8.38-15.74,15.52-21.08,7.15-5.34,15.71-8.43,24.62-8.9,8.91-.47,17.75,1.72,25.42,6.28,5.09,3.02,9.53,7.02,13.08,11.76,3.55,4.74,6.12,10.14,7.58,15.87,1.46,5.74,1.77,11.71.92,17.57-.85,5.86-2.85,11.49-5.87,16.58Z"/><path class="b" d="M351.63,117.48c-.24-.12.6-1.93,1.75-5.26,1.62-4.68,2.5-9.58,2.62-14.53.06-3.39-.26-6.78-.94-10.1-.79-3.79-2.06-7.47-3.79-10.94-1.89-3.83-4.35-7.36-7.29-10.46-1.54-1.65-3.2-3.18-4.98-4.57-1.84-1.42-3.77-2.7-5.79-3.85-2.04-1.1-4.16-2.06-6.34-2.88-2.12-.78-4.29-1.38-6.51-1.82-2.13-.44-4.3-.7-6.48-.79-2.09-.11-4.18-.06-6.26.15-3.86.34-7.66,1.18-11.3,2.5-3.18,1.18-6.22,2.71-9.06,4.55-4.14,2.72-7.82,6.07-10.93,9.92-2.22,2.74-3.29,4.41-3.51,4.33s.49-1.99,2.44-5.06c2.83-4.34,6.43-8.12,10.63-11.14,6.3-4.56,13.67-7.4,21.4-8.26,4.57-.53,9.19-.37,13.71.48,2.39.45,4.75,1.09,7.04,1.91,2.35.86,4.64,1.9,6.84,3.09,2.18,1.24,4.27,2.63,6.25,4.17,1.91,1.5,3.7,3.16,5.34,4.95,1.6,1.72,3.05,3.57,4.34,5.53,5.63,8.35,8.32,18.34,7.66,28.39-.34,5.17-1.63,10.23-3.8,14.93-1.61,3.27-2.87,4.86-3.05,4.74Z"/><path class="d" d="M162.37,92.56c4.91,4.52,8.36,10.39,9.93,16.87,1.57,6.48,1.18,13.28-1.11,19.54-2.3,6.26-6.39,11.7-11.78,15.63-5.39,3.93-11.82,6.18-18.48,6.45-6.66.28-13.26-1.43-18.95-4.9-5.69-3.47-10.23-8.55-13.04-14.6-2.81-6.05-3.75-12.8-2.73-19.39,1.03-6.59,3.99-12.73,8.5-17.63l.04-.07c3-3.25,6.6-5.88,10.62-7.74,4.01-1.86,8.35-2.9,12.77-3.08,4.42-.18,8.83.51,12.98,2.04,4.15,1.53,7.96,3.85,11.21,6.85l.03.02Z"/><path class="c" d="M156.92,98.45c3.74,3.44,6.37,7.91,7.57,12.85,1.2,4.94.9,10.12-.85,14.89-1.75,4.77-4.87,8.92-8.98,11.91-4.1,2.99-9,4.71-14.08,4.92s-10.1-1.09-14.44-3.74c-4.34-2.65-7.79-6.52-9.93-11.13-2.14-4.61-2.86-9.75-2.07-14.77.78-5.02,3.04-9.69,6.48-13.43,2.28-2.48,5.04-4.49,8.1-5.91,3.06-1.42,6.37-2.22,9.74-2.36,3.37-.14,6.74.39,9.91,1.55,3.17,1.16,6.08,2.94,8.56,5.23Z"/><path class="b" d="M156.32,97.91c-.96-.45-1.87-.99-2.73-1.61-2.41-1.46-5.04-2.54-7.78-3.21-1.89-.44-3.83-.68-5.77-.7-2.21,0-4.41.29-6.54.84-1.16.29-2.29.67-3.39,1.14-1.15.49-2.25,1.08-3.3,1.76-1.1.66-2.15,1.41-3.13,2.23-1.01.86-1.95,1.79-2.83,2.78-.86,1-1.65,2.06-2.35,3.18-.69,1.09-1.28,2.23-1.78,3.41-.5,1.14-.9,2.31-1.2,3.51-.31,1.15-.53,2.33-.66,3.51-.47,4.14.09,8.33,1.62,12.21,1.01,2.64,2.43,5.11,4.21,7.32.73.76,1.39,1.59,1.96,2.48-.98-.46-1.85-1.13-2.53-1.97-2.09-2.08-3.77-4.54-4.96-7.24-.84-1.86-1.45-3.81-1.82-5.81-.39-2.32-.47-4.68-.24-7.02.11-1.28.32-2.54.63-3.78.33-1.31.76-2.6,1.28-3.85.53-1.28,1.17-2.52,1.9-3.7,1.51-2.44,3.4-4.61,5.61-6.44,1.04-.92,2.14-1.75,3.31-2.49,2.26-1.33,4.7-2.32,7.24-2.94,4.31-1.02,8.82-.94,13.09.22,2.84.79,5.51,2.11,7.87,3.88.91.59,1.69,1.36,2.28,2.28Z"/><path class="f" d="M428.58,96.58L60.66,203.82c-11.59,3.38-18.24,15.51-14.87,27.09l65.46,224.58c3.38,11.59,15.51,18.24,27.09,14.86l367.92-107.24c11.59-3.38,18.24-15.51,14.86-27.09l-65.46-224.58c-3.38-11.59-15.51-18.24-27.09-14.86Z"/><path class="e" d="M123.66,413.35l2.87,9.87,182.25-53.09-2.87-9.87-182.25,53.09Z"/><path class="e" d="M229.34,196.38l2.87,9.87,182.25-53.09-2.87-9.87-182.25,53.09Z"/><path class="e" d="M129.37,433.03l2.88,9.9,93.49-27.23-2.88-9.9-93.49,27.23Z"/><circle class="e" cx="404.76" cy="215.33" r="23.92"/><circle class="e" cx="339.59" cy="234.17" r="23.92"/><circle class="e" cx="274.42" cy="253.01" r="23.92"/><circle class="e" cx="209.25" cy="271.85" r="23.92"/><circle class="e" cx="144.08" cy="290.68" r="23.92"/><circle class="e" cx="424.85" cy="276.31" r="23.92"/><circle class="e" cx="359.68" cy="295.15" r="23.92"/><circle class="e" cx="294.51" cy="313.98" r="23.92"/><circle class="e" cx="229.34" cy="332.82" r="23.92"/><circle class="e" cx="164.17" cy="351.66" r="23.92"/><path class="g" d="M174.22,236.26c.17-.11.01-.2.02-.25-.25.24.02.27-.02.25Z"/><polygon class="g" points="172.09 238.56 172.08 238.47 171.86 238.9 172.09 238.56"/><path class="g" d="M169.99,240.52c.39.02.71-.76,1.16-1.03h.11s.01-.34.01-.34c-.44.45-.91,1.12-1.28,1.37Z"/><path class="g" d="M168.46,241.17c.15.01-.17.3.28-.23-.03.01-.04.02-.07.03-.04.05-.1.11-.21.21Z"/><path class="g" d="M168.68,240.97c.21-.22-.21.08,0,0h0Z"/><path class="g" d="M167.74,242.02l.2-.36c-.1.02-.36.27-.3.14-.24.34-.14.32.1.22Z"/><path class="g" d="M167.63,242.44l.11-.18s-.09.04-.11.18Z"/><path class="g" d="M167.98,241.88l-.24.38c.07-.01.14.05.12-.17.04.08.04-.03.12-.21Z"/><path class="g" d="M168.18,241.73c.2-.12.43-.3.22.06.51-.57.29-.63-.22-.06Z"/><path class="g" d="M170.09,240.83l.27-.15.12-.25c-.06.12-.47.34-.39.4Z"/><path class="g" d="M165.94,243.76c.03.06.21,0,.29.04l.15-.27c-.13.09-.35.27-.43.23Z"/><path class="g" d="M166.23,243.8l-.22.4c.27-.29.28-.37.22-.4Z"/><polygon class="g" points="167.81 242.71 168.15 242.03 167.72 242.81 167.81 242.71"/><polygon class="g" points="164.81 245.03 164.87 244.75 164.74 245.23 164.81 245.03"/><path class="g" d="M164.1,245.9c.03-.22-.31.07-.24-.13-.18.25-.27.52-.34.76.12-.23.3-.42.59-.63Z"/><path class="g" d="M163.37,246.92c.06-.11.1-.25.15-.39-.06.12-.12.25-.15.39Z"/><path class="g" d="M165.49,244.74s-.17-.01-.36.15l.24-.02s.07-.08.12-.13Z"/><path class="g" d="M165.38,244.87h0c-.13.14-.21.24-.25.28.03-.04.11-.12.26-.28Z"/><path class="g" d="M165.52,244.71l-.03.03s.03,0,.03-.03Z"/><path class="g" d="M166.91,243.45c-.1.26-.39.73.07.44.04-.22-.22-.05-.07-.44Z"/><path class="g" d="M165.82,244.69l.34-.32s-.15,0-.1-.13l-.25.45Z"/><polygon class="g" points="165.71 244.89 165.82 244.69 165.69 244.81 165.71 244.89"/><path class="g" d="M164,246.39c-.07.2-.21.38-.35.58.2-.19.38-.39.55-.6-.02-.06-.02-.21-.2.01Z"/><path class="g" d="M164.68,245.66l-.02.04s.05-.03.02-.04Z"/><polygon class="g" points="162.12 248.91 162.16 248.9 162.15 248.87 162.12 248.91"/><path class="g" d="M164.25,246.37c.15-.14.2-.26.23-.38-.09.12-.18.26-.29.39,0,.03.02.04.05-.01Z"/><path class="g" d="M162.99,247.5c.09-.06.19-.13.29-.21-.11.05-.31.16-.29.21Z"/><path class="g" d="M164.58,245.72v-.03c-.06.03-.04.03,0,.03Z"/><path class="g" d="M164.58,245.72c-.05.09-.07.18-.09.27.07-.1.13-.2.17-.29-.03.01-.06.02-.08.02Z"/><path class="g" d="M162.54,250.16c-.11-.12.1-.63.51-.88.18-.43-.41-.52-.88-.38.05.05.1.09-.11.52.17-.08.79-.69.66-.29-.31.53-.35.36-.6.55.31-.08-.24.79.08.86l.24-.49s-.02.22.1.12Z"/><path class="g" d="M162.72,248.21l.1-.16c-.15.16-.3.24-.57.39-.13.3-.13.39-.1.44l.59-.73-.02.07Z"/><path class="g" d="M163.35,247.38c.04.22-.19.62.13.52.34-.44.13-.39.29-.7-.54.73.09-.26-.4.18.09-.16.18-.29.27-.41-.12.11-.24.22-.36.31h.02s0-.01,0-.01h0s.06-.02.02.01v.02s.01.05.02.07c-.19.18-.06,0-.02-.07,0,0,0-.02-.01-.02h0s-.49.77-.49.77c.13-.14.28-.33.53-.67Z"/><path class="g" d="M166.94,244.49s-.04,0-.05,0c-.02.06-.03.08.05,0Z"/><path class="g" d="M166.61,244.7c.03-.06.01-.15.17-.3.16-.1.06.06.11.09.05-.13.21-.42-.12-.17l-.02.06c-.29.23-.76.43-.73.37.19.02.33.03.61-.05Z"/><path class="g" d="M164.98,246.06l-.42.63.36-.2-.08-.04c.3-.3.16-.3.14-.39Z"/><polygon class="g" points="161.99 248.93 161.91 248.74 161.85 249.24 161.99 248.93"/><polygon class="g" points="161.42 249.72 161.31 249.6 161.23 249.86 161.42 249.72"/><path class="g" d="M146.27,301.34l.05.22c-.02-.1-.03-.17-.05-.22Z"/><path class="g" d="M146.32,299.77l-.08-.04c.04.07.07.1.08.04Z"/><path class="g" d="M149.89,270.77c-.25.25-.6.51-.42.53l.2-.03c.05-.22.13-.38.22-.5Z"/><path class="g" d="M146.6,286.83l.07-.08c-.05-.09-.09-.17-.13-.24.02.1.04.21.06.32Z"/><path class="g" d="M147.27,287.17l-.18.39c.05-.09.11-.21.18-.39Z"/><path class="g" d="M144.68,301.03l-.16-.25c-.02.38.08.22.16.25Z"/><path class="g" d="M155.94,258.13c-.2.2-.33.39-.44.55.25-.25.51-.4.44-.55Z"/><path class="g" d="M144.45,300.7c.03.14.06.19.1.19-.03-.14-.06-.22-.1-.19Z"/><path class="g" d="M155.12,259.38s.07-.07.11-.11c.07-.19.15-.38.28-.6-.18.18-.36.41-.39.7Z"/><path class="g" d="M130.15,275.95l-.05-.06s0,.03.05.06Z"/><path class="g" d="M122.94,270.09c.09.03.23.08.36.14-.06-.04-.16-.08-.36-.14Z"/><path class="g" d="M159.07,252.89c.11-.18,0-.04,0,0h0Z"/><path class="g" d="M160.21,252.45s0,.09.02.12c-.02-.04-.03-.08-.02-.12Z"/><path class="g" d="M155.08,261.7v.02s.04-.03,0-.02Z"/><path class="g" d="M159.31,252.68c-.06.05-.13.12-.19.19.04-.03.09-.08.19-.19Z"/><path class="g" d="M159.22,252.67c.05-.06.08-.1.12-.14,0-.04-.04-.03-.12.14Z"/><path class="g" d="M158.91,253.14c.06-.1.13-.19.21-.27-.03.03-.05.04-.05.02-.03.05-.08.12-.16.24Z"/><path class="g" d="M141.87,287.34s0-.03,0-.05c-.17-.14-.11-.07,0,.05Z"/><polygon class="g" points="149.85 276.41 149.85 276.39 149.83 276.41 149.85 276.41"/><path class="g" d="M149.77,277.15c-.12-.36-.04-.52.06-.74l-.55.09.48.65Z"/><path class="g" d="M146.4,305.1l.15-.52c.27.61.19,1.06.4.57-.54-.05-.09-1.98-.64-2.04l.11-.34c0,.1.03.11.03.21.25-.66-.4-.48-.34-1.33.03-.3.12-.5.18-.3l-.12-.66c.02-.19.11-.14.09.05l-.02-1h.02c-.08-.14-.21-.47-.26-.63.08-.25.05.13.12.07l-.12-.56c.15-.22.27.24.24.63.56-.5-.12-.47.22-1.57l.06.53c.32-.32.2-.74.44-1.32-.12.13-.54,1.16-.66.55.05-.17.09-.39,0-.72.19,0,.17-.31.18-.71l.25.04c-.04-.43-.18-.41-.27-.67.06-.48.26-.56.44-.66.09-.76-.35.5-.34-.41.13-.63.07-1.08.01-1.86.14-.43.15.09.24-.06l-.16-.41c.02-.1.07-.06.1-.04-.04-.34-.25-.06-.26-.59-.26-.18.53-1.02.29-1.71.1-.15.14.1.25.06-.07-.91-.03-.77-.2-1.54l.26-.59c-.26.42-.39-.19-.5-.73-.12.15-.22.27-.27.36v-.84c.05-.09.12,0,.21.16-.01-.06-.03-.11-.04-.16.14-.28.26-.1.37.13-.07.09-.13.18-.2.27.12.23.26.44.42.43-.02-.06-.03-.16-.03-.28.03.06.07.1.09.08.03-.02-.01-.12-.05-.26l.31-.14-.1-.06c.11-.34.24-.68.37-1.02-.13-.8-.41-1.54-.28-2.77.14.34.32.14.56.21-.32.27-.08.95-.26,1.55.09-.32.19-.22.22-.13v-1.15c.18.07.19-.2.33-.47-.45.13-.07-.88-.08-1.35.14,0,.24.14.08.68.44-.53-.27-.88.13-1.41-.03.13-.07.2-.01.27-.04-.34.24-1.07.31-.87l-.03.13c.24-.87.74-2.65.44-2.88.04,0,.36.23.41.3l-.64-1.89c.24.22,1.06-.09,1,.68.1-.19.22-.44.27-.9-.09.13-.52.22-.48.02.49-.43.29-.31.77-.87-.13.19-.49-.19-.36-.51.05.07.44.12.44.25l-.15-.97c0,.23.35.16.53.02-.11.06.24-.71.29-.94l-.23.31c.41-.89-.25-1.12.12-2.03.04.14.43.48.66.04-.13-.29-.69-1.35-.5-2.22l.19-.1.12-.67c.16.53.36,1.86.42,2.55.23-.3.18-.04.37-.55.19-.13.06.34.01.5.17-.39.37-.76.56-1.14-.27-.05.13-1-.09-1.04l-.28,1.38c-.27-.05-.39-1.03,0-1.85.19-.17.37.35.46.37-.04-.14.17-.86.26-.91l-.02.41c.28-.42,0-.9.49-1.34.1-.18.58-.42.45-.52-.42.18-1.31-.16-1.42-.46.05-.06.74-.88.97-1.03.36-.21.3.72.61.54-.06-.04-.06-.25-.05-.34.15-.17.16.18.34-.26-.21-.19.46-.85-.1-.3.14-.45.28-.42.52-.91-.24.08-.31-.71-.16-1.17.05.06.18,0,.24-.02.46-.84.84-1.23,1.27-2.01.1-.04.38-.38.39-.16.02-.14,0-.29.13-.53.47-.35-.27.55.18.34-.13-.11.17-.72.29-1.11-.27-.02-.52.75-.61,1.15-.3-.17-.27-.94.09-1.83.31-.69.35-.17.38-.3.77-1.18.12-1.34.96-2.2.43-.28.37.21.56.21-.26.56-.62.71-.84,1.07l.36-.37c-.04.2-.22.57-.38.73.37-.23,1.29-1.99,2.05-2.78.05-.2.17-.51.01-.43l-.17.3c-.32.16.17-.67-.15-.35.16-.45.29-.99.74-1.47l.27.04c-.07-.03-.36.27-.4.46.06-.29.84-.63.76-1.05l-.41.27c.17-.45.3-1.06.7-1.49-.35.07-.06.12-.53.29.5-.08-.88,1.19-.25.94-.52.15-.53.52-1.08.81.08.03.24-.07-.07.31,0,.03,0,.09,0,.13-.01.01-.01.01-.02.02l.02-.02s0,.03,0,0c.09-.08.18-.13.24-.13.02.3-.42.94-.49,1.21-.19.22,0-.15-.17-.07l-.1.4c-.17-.07-.66.48-.38-.15l-.34.51c-.28.25-.58.65-.68.94-.19.22-.23.72-.21.43l-.4.88-.04-.02c-.5.81-.75,1.81-1.55,2.61-.12.3-.23.62-.53,1.06l-.19.02c-.16.38-.71,1.02-.65,1.25-.56.21-1.01,1.72-1.36,2.35l.17.11c-.22.44-.37.9-.56,1.49l.18.04c-.1.54-.68,1.19-.99,1.97-.04-.08.06-.27.16-.39-.75.77-.57,2.05-1.15,2.79-.02.24-.1.38-.2.51,0-.02.01-.04.01-.06,0,.02-.02.05-.04.09-.06.08-.13.17-.2.26.07-.07.14-.15.18-.21-.06.16-.13.42-.18.68l-.22.04s0,.04-.02.06c-.16.21.01.22.2.15-.02.13-.02.26-.01.36-.37.09-.14.67-.54.83.1.22-.3,1.28-.02,1.51-.04,0-.09.06-.05-.07-.13.26-.26.52-.25.8l-.27.04.12.7c-.25.32-.38.45-.45.03.02.97-.1.75-.05,1.58l-.14-.08c-.07.27,0,.75-.17.88-.49.51-.81,2.97-1.46,4.47.52-.2-.35.69-.01.82-.13.07-.23.28-.27,0-.06.82-.42,1.17-.23,1.79-.13.07-.12-.2-.21-.13.01.07.04.27-.04.34-.08.07-.07-.13-.09-.27-.15.83.18.97.48,1.09-.21.39-.23.6-.07.94-.13.13-.27.35-.23-.17-.06.28-.43,1.74-.18,1.8-.08.08-.08.4-.06.48-.12.64-.13.7-.18,1.34l.06-.17c.28.29,0,.54-.01,1.06l-.03-.02c-.36,1.15.05.52-.34,1.66l.2-.05c.39.14-.33,1.01-.22,1.7l.13-.24c.12.38-.63.99-.71,1.36-.04.08-.05-.13-.07-.25-.31.96.24.14.25.87-.14.13-.33-.19-.39.3-.14.24.39,1.44.11,2.1.11-.14.22-.29.29.05.02.52-.43,1.39-.11,1.87-.03.07-.06.09-.08.09.06.4.15,1.29.33,1.52-.66.38.37,2.45-.24,2.46l.03.67,1.46.09.06-.55.06.04c.14-.78.03-1.08-.08-1.37.06-.18.1-.04.13-.02.27-1.13.19-1.27-.05-2.24l.2-.09c-.07-.26.32-1.67.05-2.81.02,0,.06.03.09.12-.15-.63-.12-1.4-.1-2.08,0-.67-.12-1.24-.51-1.4l-.33-.79c.14,1.07-.34-.09-.37.37-.1-.41-.04-1.1.13-.61v.09c.4.1-.23-1.33.03-1.37-.61-2.05-1.2-4.09-2.17-5.87l-.15.35c-.11-.21-.2-.42-.32-.62-.04-.19.07-.33.32.11.01-.31-.55-.65-.61-.63-.4-.9.49.15.34-.11l-.23-.34.02.1c-.28-.22-.39-.18-.7-.7-.17-.34.04-.26-.04-.39.02-.01,0-.06-.12-.19l-.48-.74v.42c-.3-.26-.45-.69-.43-.2,0-.37-.49-1.03-.97-1.65-.51-.61-1.04-1.15-1.11-1.33-.49-.3-.87-.67-1.31-1.16.08.15-.03.4-.41-.02.53-.24-.6-.88-.68-1.48.15.46-1.27-1.03-1.02-.33-.33-.34.11-.17-.08-.5-1-.58-1.87-1.69-3.07-2.45-.06.05.07.27-.24.18l-.41-.71c-.25-.13-.44.19-.72-.29.03.09.07.22-.1.14-2.14-1.8-4.94-2.62-7.23-4.32.29.28.06.19-.21.08.16.11-.07.16-.08.26l-.98-.7c-.3.16-1.18-.45-1.39-.24l.36.09c-.56.11.41.86.19,1.2.63-.12,1.11,1,2.11.92.14.15-.2.04-.14.17.27-.06.53.03.95.31h-.07c1.28.6,1.75,1,3.07,1.87v-.22c.27.19.31.27.42.39.48-.06-.82-.48-.36-.58.21.54,2.06,1.22,2.08,1.77.44.28-.01-.27.43.01l.05.17.19-.06c.27.21.33.43.28.52-.06-.06-.21-.11-.29-.15.28.36,1.05.66,1.15.78l-.37-.34c1.23.72,2.51,1.88,3.69,2.6l-.02-.14c.91.56.57.62,1.46,1.35h-.05c.23.08.49.25.7.49-.27-.13.23.53-.11.34.91.69.49.3,1.25.61v.23c.27.1.34.07.75.48-.41-.27.07.42-.4.14.55,1.09,1.38,1.18,1.35,1.89.67.19-.46-.96-.2-.77-.06-.29.52.17.73.5.23.31-.04.85.51,1.62-.05-.08-.08-.07-.13-.15.12.35.52.5.6.97.34.08.28.5.59.4l-.52-.72c.32.39.91.59,1.15,1.42-.09-.03-.27-.21-.4-.33.05.25.27.38.31.65-.3.08-.57-.91-1.07-1.24.02.29.72.75.28.69.59.11.39.85.99,1.27l-.19.05c.07.08.25.23.33.4l-.38-.19c.44.37.25.99.56,1.39-.42-.95.12-.31.07-.77.73,1.1-.11.86.44,2.18-.09-.17-.13-.73.05-.47.05.27.1.64.06.83.35.89.14-.2.38.15-.11.38.25.41.43.8l-.18.06c.16,1.09.46.18.57,1.17l-.37-.34.2.48-.24-.05c.3.5.26.69.31,1.23.11-.15.36,0,.45.49-.06.35-.21-.15-.07.52-.14-.14-.33-.28-.2-.6-.07-.02-.15-.13-.21-.15-.06.37.13.88.15,1.12,0-.1,0-.21.02-.27l.37.96c-.06.16-.13.04-.2-.07.04.2.14.33.19.62-.16-.06-.32-.03-.44-.44l.27.92c-.07.07-.18.49-.24.37-.09.52.36,1.27.21,1.96.03.04.05.11.07.26-.08.65-.27,1.21-.14,2l-.34.41c-.01.61.43-.55.4.47,0,.73-.27.23-.38.47.05.18.12.42.15.7l1.86.11c-.07-.29-.1-.63.01-.99.06.22.02.4.04.6ZM146.29,297.43c.04.15.15.45.04.56-.22-.18-.11-.31-.04-.56ZM147.15,285.77c.04.12-.02.28-.12.46,0-.14.04-.3.12-.46ZM157.95,254.88v.02c-.25.24-.16.16,0-.02ZM158.4,254.34c.02-.07,0-.08-.05-.07.01.07-.07.2-.18.35.07-.01.15-.07.22-.27ZM141.8,284.79l.04.14c-.22-.23-.13-.18-.04-.14Z"/><path class="g" d="M147.2,287.13s-.08.04-.11.05c.02.06.06.07.11-.05Z"/><path class="g" d="M144.71,301.08v-.02s-.02-.02-.03-.02l.03.05Z"/><path class="g" d="M154.51,264.51c-.08.12-.15.17-.21.2.04.03.1-.01.21-.2Z"/><path class="g" d="M160.23,251.07l-.22.39c.12-.18.2-.22.29-.29-.04-.02-.15.01-.07-.1Z"/><path class="g" d="M163.52,248.68c.02-.07.08-.11.1-.18l-.08-.04c-.17.22-.23.42-.02.22Z"/><path class="g" d="M160.99,251.11c.15.07.27-.19.43-.46l-.03.04c-.13-.21-.27.11-.4.42Z"/><path class="g" d="M161.47,250.59c.05-.08.11-.17.17-.24-.05-.08-.08.08-.17.24Z"/><path class="g" d="M158.79,253.53c.12-.1-.12-.19-.02-.23-.08-.25-.35.96.02.23Z"/><polygon class="g" points="161.58 251.22 161.35 251.19 161.38 251.43 161.58 251.22"/><path class="g" d="M160.04,253.15l.33-.38s-.01-.08.02-.15c-.18.25-.4.51-.35.53Z"/><path class="g" d="M160.38,252.62c.09-.13.18-.26.2-.35-.05.07-.15.23-.2.35Z"/><polygon class="g" points="161.22 251.81 161.1 251.9 160.88 252.18 161.22 251.81"/><path class="g" d="M157.11,257.65l-.23.5c.03.08.14-.02.22-.21.03-.14.11-.32,0-.29Z"/><path class="g" d="M158.43,256.53c-.11.1-.16.09-.26.12l.2.14.05-.27Z"/><path class="g" d="M157.66,257.91c.03.08-.23.77.11.18-.03-.08.2-.58-.11-.18Z"/><polygon class="g" points="153.54 264.97 153.6 264.85 153.22 264.69 153.54 264.97"/><path class="g" d="M151.66,271.96c.32-.56-.18-.23.14-.73-.04-.17-.26.41-.28.23-.04.4-.17.56.15.49Z"/><path class="g" d="M151.51,271.47c0-.06.01-.13.01-.21-.02.11-.02.17-.01.21Z"/><polygon class="g" points="121.59 269.31 121.22 269.08 121.43 269.3 121.59 269.31"/><path class="g" d="M120.72,269.31v-.28s-.34.14-.34.14c.11.02.29.06.34.14Z"/><path class="g" d="M146.89,296.32l-.06-.03c-.07.06-.08.15-.11.34l.17-.31Z"/><polygon class="g" points="146.54 301.85 146.54 301.76 146.31 301.94 146.54 301.85"/><path class="g" d="M144.05,304.27c-.03.18,0,.4-.04.58,0-.4.34-.6.04-.58Z"/><path class="g" d="M215.62,231.57c.17-.16,0-.22,0-.26-.25.32.05.28,0,.26Z"/><polygon class="g" points="214.09 234.4 214.06 234.32 213.97 234.8 214.09 234.4"/><path class="g" d="M212.78,236.98c.35-.14.4-.97.73-1.38l.1-.05-.1-.31c-.25.58-.51,1.36-.72,1.74Z"/><path class="g" d="M211.61,238.17c.14-.05-.04.35.17-.32-.02.02-.04.03-.05.05-.02.06-.06.14-.12.27Z"/><path class="g" d="M211.73,237.9c.11-.29-.16.15,0,0h0Z"/><path class="g" d="M211.3,239.25l.03-.42c-.09.06-.21.4-.22.25-.08.42.01.35.19.16Z"/><path class="g" d="M211.37,239.68l.02-.21s-.06.08-.02.21Z"/><path class="g" d="M211.45,239.02l-.05.45c.06-.04.15-.02.03-.2.07.06.02-.05.02-.25Z"/><path class="g" d="M211.57,238.8c.12-.2.28-.45.22-.04.26-.73.01-.7-.22.04Z"/><path class="g" d="M212.99,237.23l.19-.24v-.28c0,.14-.28.5-.19.52Z"/><path class="g" d="M210.4,241.62c.05.04.19-.09.27-.1,0-.1,0-.21.01-.31-.09.13-.19.41-.28.4Z"/><path class="g" d="M210.67,241.52v.46c.1-.38.07-.47,0-.46Z"/><polygon class="g" points="211.65 239.85 211.67 239.09 211.61 239.99 211.65 239.85"/><polygon class="g" points="209.99 243.27 209.91 242.99 210.02 243.48 209.99 243.27"/><path class="g" d="M209.75,244.38c-.07-.21-.25.21-.28,0-.04.31.02.59.07.83,0-.26.04-.52.2-.84Z"/><path class="g" d="M209.61,245.63c0-.13-.04-.26-.07-.41,0,.14.02.27.07.41Z"/><path class="g" d="M210.46,242.7s-.15.07-.25.3l.21-.13c.01-.05.03-.11.04-.17Z"/><path class="g" d="M210.42,242.87h0c-.05.19-.08.31-.1.37.01-.05.04-.16.1-.37Z"/><path class="g" d="M210.47,242.66v.04s.02-.02,0-.04Z"/><path class="g" d="M211.15,240.91c.01.28-.06.81.24.36-.06-.21-.23.05-.24-.36Z"/><path class="g" d="M210.73,242.5l.15-.45s-.13.06-.14-.07v.52Z"/><polygon class="g" points="210.73 242.74 210.73 242.5 210.67 242.67 210.73 242.74"/><path class="g" d="M209.9,244.86c.04.21.01.43-.02.68.08-.26.14-.53.18-.79-.05-.05-.12-.18-.16.11Z"/><path class="g" d="M210.16,243.89v.05s.03-.04,0-.05Z"/><polygon class="g" points="209.49 247.98 209.53 247.95 209.5 247.93 209.49 247.98"/><path class="g" d="M210.1,244.72c.06-.19.06-.32.03-.44-.02.15-.05.31-.07.48.02.02.04.03.04-.04Z"/><path class="g" d="M209.58,246.33c.05-.1.1-.21.15-.33-.07.09-.19.29-.15.33Z"/><path class="g" d="M210.09,244v-.03c-.05.06-.03.05,0,.03Z"/><path class="g" d="M210.09,244c0,.11.02.2.04.28.02-.12.02-.24.02-.34-.02.02-.04.04-.06.06Z"/><path class="g" d="M210.5,248.85c-.16-.05-.26-.59-.01-1.01-.05-.45-.61-.24-.96.11.07.02.12.03.16.5.09-.15.36-.98.43-.58-.02.61-.13.48-.24.77.22-.23.22.8.52.7l-.06-.54s.1.19.15.05Z"/><path class="g" d="M209.69,247.08v-.19c-.05.21-.14.35-.31.62.03.32.07.4.12.43l.17-.92v.07Z"/><path class="g" d="M209.83,246.04c.15.18.15.64.38.39.08-.55-.08-.41-.1-.75-.1.9-.05-.27-.25.35,0-.18.02-.34.03-.49-.05.16-.1.31-.15.45v-.02s.01,0,.01,0h0s.04-.04.02,0v.02s.04.03.06.05c-.08.25-.05.03-.06-.05,0,0-.01-.01-.02-.02h0s-.05.91-.05.91c.05-.19.09-.42.13-.85Z"/><path class="g" d="M211.62,241.83s-.03.02-.04.02c0,.06.02.09.04-.02Z"/><path class="g" d="M211.43,242.16c0-.07-.06-.14,0-.34.09-.16.08.02.14.03-.01-.14-.02-.47-.19-.1v.07c-.13.33-.45.73-.46.66.17-.06.3-.13.51-.32Z"/><path class="g" d="M210.61,244.1c-.02.25-.07.49-.08.75.07-.12.14-.23.22-.34h-.09c.13-.4,0-.34-.05-.4Z"/><path class="g" d="M209.4,248.06l-.17-.12c.06.16.12.31.2.46-.02-.11-.02-.23-.03-.34Z"/><polygon class="g" points="209.32 249.03 209.17 248.98 209.24 249.25 209.32 249.03"/><path class="g" d="M212.38,277.25l-.12-.18c.05.09.09.14.12.18Z"/><path class="g" d="M212.91,278.71h.09c-.06-.04-.1-.06-.09,0Z"/><path class="g" d="M210.97,272.77c-.08.34-.24.74-.07.67l.15-.13c-.07-.21-.09-.38-.08-.53Z"/><path class="g" d="M216.25,288.12l.02-.1c-.08-.05-.15-.1-.22-.15.06.08.13.16.2.26Z"/><path class="g" d="M217,288.1l.02.43c0-.1,0-.24-.02-.43Z"/><path class="g" d="M208.7,269.62l-.27-.14c.18.35.18.15.27.14Z"/><path class="g" d="M209.18,259.01c-.05.28-.06.5-.06.69.08-.34.21-.61.06-.69Z"/><path class="g" d="M214.32,277.17c-.08-.12-.13-.16-.16-.14.08.12.13.18.16.14Z"/><path class="g" d="M209.17,260.5c.01-.05.02-.1.03-.15-.04-.2-.08-.4-.08-.65-.06.25-.09.54.05.8Z"/><path class="g" d="M191.25,244.22l-.03-.07s0,.03.03.07Z"/><path class="g" d="M186.45,236.33c.07.06.17.16.27.26-.04-.06-.12-.14-.27-.26Z"/><path class="g" d="M208.96,252.95c0-.21-.02-.03,0,0h0Z"/><path class="g" d="M209.69,251.98s.04.08.08.09c-.04-.02-.06-.05-.08-.09Z"/><path class="g" d="M210.37,262.45v.02c.03-.06.02-.05,0-.02Z"/><path class="g" d="M209.04,252.64c-.02.08-.04.17-.05.26.01-.04.03-.12.05-.26Z"/><path class="g" d="M208.96,252.68c0-.07.01-.13.02-.18-.03-.03-.05,0-.02.18Z"/><path class="g" d="M208.97,253.24c0-.12,0-.23.02-.33-.01.04-.02.06-.03.05,0,.06,0,.15,0,.29Z"/><path class="g" d="M201.78,257.05s0-.03-.01-.05c-.17-.13-.11-.06.01.05Z"/><polygon class="g" points="213.93 277.53 213.91 277.51 213.91 277.54 213.93 277.53"/><path class="g" d="M214.23,278.2c-.29-.25-.31-.42-.32-.66l-.42.36.74.3Z"/><path class="g" d="M210.89,273.85l.07.53c-.49-.45-.58-.89-.59-.37.53-.16.85,1.77,1.36,1.63l.02.35c-.03-.09-.07-.09-.1-.18,0,.7.55.3.79,1.1.07.29.08.5-.06.34.13.18.24.37.36.56.05.18-.05.17-.1,0l.38.92h-.02c.13.1.36.36.47.49.01.26-.1-.1-.14-.02l.31.47c-.06.26-.34-.13-.45-.49-.34.66.3.38.33,1.53l-.22-.47c-.19.41.04.76.03,1.37.06-.16.11-1.26.42-.73.01.17.06.39.26.66-.18.06-.04.34.09.71l-.25.05c.19.38.3.32.48.53.1.46-.07.61-.2.76.16.74.17-.58.45.26.07.63.29,1.03.59,1.73,0,.45-.17-.04-.21.13l.28.34c.02.09-.05.08-.09.07.15.3.26-.03.43.47.32.08-.2,1.12.21,1.69-.05.17-.17-.05-.26.01.31.74.28.73.56,1.26l1.08-.25s-.07-.05-.12-.11l-.03-.65c-.04.5-.44.02-.77-.41-.04.18-.07.34-.08.44l-.38-.74c0-.11.12-.06.26.04-.04-.04-.07-.09-.1-.12,0-.31.19-.21.39-.06-.02.11-.04.22-.06.33.21.14.43.27.56.18-.04-.04-.1-.13-.15-.23.06.04.1.06.12.03.02-.04-.06-.1-.16-.2l.21-.27h-.12s-.15-1.08-.15-1.08c-.5-.64-1.11-1.14-1.59-2.27.29.23.35-.04.59-.1-.15.39.39.86.53,1.47-.07-.32.06-.29.13-.22l-.57-.99c.2-.04.07-.27.06-.57-.32.33-.51-.72-.76-1.12.12-.07.29,0,.42.54.1-.67-.69-.62-.63-1.27.04.13.05.2.13.24-.22-.27-.33-1.04-.17-.9l.04.13c-.18-.88-.68-2.65-1.04-2.7.04-.02.43.01.51.05l-1.51-1.28c.32.07.86-.63,1.21.05-.01-.22-.03-.49-.25-.9,0,.15-.32.45-.4.27.18-.61.07-.41.17-1.13,0,.23-.51.1-.59-.24.08.04.43-.13.51-.02l-.65-.73c.13.19.38-.05.46-.26-.07.11-.13-.73-.22-.95l-.03.38c-.12-.97-.8-.81-.97-1.77.11.1.62.17.58-.32-.27-.17-1.28-.77-1.62-1.58l.1-.19-.27-.62c.42.35,1.36,1.34,1.76,1.9.03-.38.13-.13.02-.66.08-.21.24.26.28.41l-.16-1.25c-.25.1-.45-.9-.66-.82l.54,1.3c-.25.1-.9-.64-1.03-1.54.06-.24.5.09.59.05-.11-.1-.34-.81-.27-.9.06.12.12.24.2.35.02-.51-.46-.75-.29-1.38,0-.21.26-.66.1-.67-.26.38-1.19.58-1.45.39.01-.08.15-1.13.27-1.39.19-.37.64.44.8.12-.07,0-.19-.18-.23-.25.03-.22.24.06.14-.4-.28-.05-.1-.96-.26-.19-.14-.45,0-.5-.09-1.03-.15.19-.66-.42-.8-.88.07.02.15-.09.18-.15-.04-.96.06-1.48,0-2.36.06-.09.11-.52.24-.34-.06-.12-.16-.24-.18-.51.2-.54.07.61.33.19-.16-.02-.26-.69-.39-1.08-.24.13.01.9.13,1.29-.34.02-.73-.64-.95-1.57-.13-.74.2-.33.14-.46.02-1.39-.6-1.18-.35-2.35.22-.46.43-.02.58-.12.08.6-.14.93-.14,1.34l.11-.51c.07.19.12.59.06.81.2-.39.06-2.35.24-3.42-.07-.19-.14-.52-.23-.37l.03.34c-.18.31-.23-.65-.32-.22-.13-.46-.28-.99-.13-1.63l.25-.11c-.07,0-.18.41-.12.6-.09-.28.41-.96.12-1.28l-.21.44c-.08-.47-.3-1.06-.17-1.63-.26.24.02.13-.3.52.38-.32-.14,1.47.28.93-.36.4-.2.71-.52,1.25.08-.01.17-.19.09.3.02.02.05.08.07.11,0,.01,0,.02,0,.03v-.03s.02.02.01,0c.03-.11.09-.21.13-.24.17.25.17,1.01.26,1.28-.04.28-.09-.12-.18.03l.14.39c-.18.03-.3.76-.4.08v.61c-.12.36-.16.85-.09,1.16-.04.29.19.72.05.48.04.32.06.64.11.95h-.04c.04.95.42,1.92.16,3.02.06.31.14.63.12,1.17l-.15.12c.07.4-.08,1.23.12,1.39-.36.48.17,1.97.18,2.68h.2c.05.49.17.95.33,1.54l.17-.06c.21.5.03,1.36.23,2.17-.08-.04-.1-.25-.09-.41-.21,1.04.69,2,.57,2.93.11.21.12.37.1.53,0-.02-.01-.04-.02-.05,0,.02,0,.06.02.09-.01.1-.02.22-.03.32.02-.1.04-.2.04-.28.04.17.11.42.2.66l-.17.15s.01.04.02.06c-.02.26.13.18.24.02.06.12.12.23.18.31-.26.27.23.64-.04.98.17.14.43,1.22.79,1.28-.04.02-.04.1-.08-.04.03.28.07.57.22.79l-.21.18.48.52c-.05.4-.1.58-.37.26.51.81.29.69.76,1.36h-.16c.08.27.39.64.31.84-.07.34.11,1.08.33,1.94.24.85.55,1.8.66,2.6.35-.43.02.76.39.72-.08.12-.07.35-.24.13.35.74.2,1.21.66,1.65-.08.12-.21-.11-.24-.02.04.05.17.22.13.32-.04.1-.12-.08-.21-.19.27.78.62.76.94.71-.02.45.07.64.36.86-.05.17-.08.44-.28-.04.04.17.17.74.32,1.17l1.32-.31c-.06-.31-.14-.56-.24-.56.05-.1-.05-.4-.09-.47-.09-.65-.07-.71-.2-1.33v.18c-.35-.19-.18-.51-.32-1h.03c-.03-1.19-.21-.46-.21-1.66l-.17.11c-.41-.01-.03-1.05-.35-1.67l-.04.26c-.23-.32.28-1.15.22-1.52.01-.09.09.11.15.21-.05-1.01-.28-.05-.55-.73.09-.17.38.06.26-.41.02-.27-.83-1.22-.82-1.93-.05.17-.1.34-.29.05-.21-.47-.11-1.45-.58-1.77,0-.07.02-.1.04-.12-.21-.34-.61-1.14-.86-1.29.24-.29-.07-.83-.36-1.32-.31-.48-.61-.91-.33-1.03l-.53-1.09h.07c-.28-.72-.55-.9-.79-1.08-.04-.18.07-.09.1-.09-.39-1.06-.45-1.17-1.16-1.86l.13-.18c-.23-.17-.47-1.6-1.22-2.45.03,0,.07,0,.14.06-.8-.97-.99-2.88-1.85-2.9l-.57-.61c.49.94-.35.03-.23.46-.25-.33-.36-1.04-.07-.62v.09c.44-.04-.56-1.19-.33-1.3-1.11-1.77-2.05-3.58-3.15-5.2l-.11.35-.37-.57c-.04-.19.05-.33.32.08,0-.31-.57-.6-.64-.57-.45-.84.49.11.33-.13l-.25-.31.02.09c-.28-.19-.4-.14-.73-.63-.17-.34.04-.26-.04-.38.02-.01,0-.06-.12-.19l-.48-.71v.41c-.3-.24-.45-.66-.43-.19-.01-.71-1.78-2.66-1.9-3.01-.46-.32-.77-.74-1.16-1.27.06.16-.08.39-.4-.07.55-.17-.45-.95-.43-1.55.05.48-1.05-1.21-.94-.48-.26-.39.14-.15.01-.5-.86-.74-1.45-1.99-2.4-3-.07.03,0,.27-.27.12l-.2-.78c-.2-.19-.47.07-.61-.46,0,.09,0,.23-.13.11-1.51-2.27-3.85-3.94-5.28-6.37.16.36-.02.19-.22,0,.1.16-.13.12-.17.21l-.61-1.01c-.33.03-.88-.87-1.15-.77l.29.23c-.55-.13,0,.95-.32,1.17.62.15.63,1.36,1.58,1.67.08.19-.2-.04-.2.1.27.05.48.22.77.64h-.07c.99.99,1.27,1.54,2.25,2.78l.06-.21c.21.27.21.36.28.51.47.1-.62-.72-.15-.67.01.59,1.58,1.79,1.45,2.32.34.4.07-.26.41.14v.18s.2,0,.2,0c.21.27.21.5.14.58-.04-.07-.17-.16-.24-.22.18.43.84.92.91,1.07l-.27-.43c1.01,1.01,2,2.44,3.04,3.37v-.14c.79.72.46.71,1.23,1.57l-.04-.02c.21.13.44.34.62.6-.26-.17.18.56-.15.33.84.79.45.36,1.18.76v.23c.25.12.32.1.7.53-.39-.3.04.43-.41.11.47,1.15,1.33,1.25,1.28,1.97.66.21-.44-.98-.18-.78-.05-.29.52.19.71.52.22.32-.03.84.53,1.62-.05-.08-.08-.07-.14-.15.12.36.53.5.65.96.35.06.32.48.62.36l-.58-.68c.36.36.94.54,1.26,1.33-.09-.02-.3-.17-.43-.29.06.25.31.35.38.61-.31.12-.66-.86-1.18-1.16.04.29.77.71.34.68.58.07.49.82,1.14,1.17l-.18.07c.08.07.28.2.38.36l-.4-.15c.48.32.41.95.79,1.31-.59-.89.06-.33-.07-.78.93.96,0,.91.88,2.09-.13-.15-.31-.69-.07-.47.12.25.26.61.26.81.55.8.09-.23.4.06-.02.41.33.36.62.68l-.16.1c.48,1.01.5.04.9.97l-.45-.22.33.41-.24.02c.43.4.48.58.71,1.09.05-.18.34-.12.6.31.07.35-.25-.07.13.52-.19-.08-.4-.15-.41-.5-.07,0-.18-.07-.25-.07.07.38.44.79.56,1.01-.04-.09-.09-.19-.09-.26l.73.75c.01.17-.1.09-.21.01.12.17.26.25.43.5-.18,0-.31.1-.58-.23l.62.75c-.03.09.08.52-.04.44.17.51.88,1.01,1.1,1.69.04.02.1.07.19.19.29.6.35,1.22.9,1.83l-.06.52c.33.52.05-.7.6.18.4.62-.1.35-.06.61.28.27.8.72.86,1.42-.14-.18-.17-.35-.27-.53ZM213.74,280.86c-.08-.13-.29-.37-.21-.5.26.09.2.25.21.5ZM216.26,286.93c.09.09.12.26.1.46-.06-.13-.1-.28-.1-.46ZM209.1,255.22v.02c-.07.34-.04.22,0-.02ZM209.19,254.52c-.03-.07-.05-.07-.08-.04.05.05.05.21.04.38.05-.05.09-.14.04-.35ZM201.59,254.53l.04.14c-.22-.22-.13-.18-.04-.14Z"/><path class="g" d="M216.91,288.1c-.02.05-.05.07-.08.09.05.05.08.03.08-.09Z"/><path class="g" d="M208.75,269.65v-.02s-.04,0-.05,0l.05.03Z"/><path class="g" d="M211.48,265.08c0,.14-.03.23-.06.28.05,0,.08-.07.06-.28Z"/><path class="g" d="M209.01,250.8v.45c.02-.22.07-.29.11-.4-.05,0-.12.09-.11-.05Z"/><path class="g" d="M210.62,247.09c-.01-.07.02-.14,0-.2h-.09c-.04.28,0,.48.09.2Z"/><path class="g" d="M209.69,250.44c.16-.02.13-.3.13-.62v.06c-.22-.11-.18.23-.13.56Z"/><path class="g" d="M209.81,249.75c0-.1,0-.19.02-.29-.09-.05-.03.11-.02.29Z"/><path class="g" d="M209.09,253.64c.04-.15-.21-.1-.14-.18-.21-.17.24,1,.14.18Z"/><polygon class="g" points="210.24 250.23 210.03 250.33 210.18 250.51 210.24 250.23"/><path class="g" d="M209.9,252.66c.01-.16.06-.33.09-.49-.03,0-.05-.06-.06-.14-.04.3-.09.64-.03.63Z"/><path class="g" d="M209.93,252.03c.02-.16.02-.31,0-.4,0,.09-.01.27,0,.4Z"/><polygon class="g" points="210.24 250.91 210.19 251.05 210.15 251.4 210.24 250.91"/><path class="g" d="M209.88,257.98l.09.54c.07.05.1-.1.06-.3-.06-.13-.1-.33-.16-.24Z"/><path class="g" d="M210.38,256.34c-.04.15-.09.16-.15.24h.25s-.09-.24-.09-.24Z"/><path class="g" d="M210.48,257.9c.07.05.25.77.19.09-.07-.05-.16-.58-.19-.09Z"/><polygon class="g" points="210.91 265.99 210.89 265.85 210.49 265.93 210.91 265.99"/><path class="g" d="M213.1,272.83c-.03-.64-.27-.1-.27-.68-.12-.13,0,.48-.12.35.17.36.16.56.38.34Z"/><path class="g" d="M212.71,272.49c-.03-.06-.06-.12-.1-.18.05.1.08.15.1.18Z"/><polygon class="g" points="185.55 235.09 185.31 234.74 185.41 235.03 185.55 235.09"/><path class="g" d="M184.77,234.74l.11-.25h-.35c.08.05.22.16.23.25Z"/><path class="g" d="M213.58,282.08h.07c.05-.07.02-.16-.02-.34l-.04.34Z"/><polygon class="g" points="211.96 276.87 211.99 276.96 212.14 276.71 211.96 276.87"/><path class="g" d="M209.85,272.78c.08.17.21.35.28.53-.2-.36-.03-.7-.28-.53Z"/><path class="g" d="M238.12,315.3c.08.13.19,0,.23,0-.19-.21-.25.03-.23,0Z"/><path class="g" d="M236.29,313.85l.08-.03c-.12-.03-.24-.06-.37-.08.1.03.2.07.29.11Z"/><path class="g" d="M234.32,312.8c.08.17.28.21.51.25.21.06.49.11.62.26l.02.09.27-.1c-.42-.26-1.1-.35-1.43-.5Z"/><path class="g" d="M232.82,312.27c.13.09-.32.18.38-.06-.03,0-.05-.01-.07-.02-.07,0-.15.04-.31.08Z"/><path class="g" d="M233.13,312.19c.33-.05-.23-.06,0,0h0Z"/><path class="g" d="M231.82,312.83l.29-.3c-.11-.02-.44.17-.34.06-.32.29-.19.29.05.24Z"/><path class="g" d="M231.69,313.21l.11-.15s-.08.03-.11.15Z"/><path class="g" d="M232.09,312.76c-.1.1-.22.19-.3.3.07,0,.12.07.13-.14.02.09.04-.02.17-.17Z"/><path class="g" d="M232.32,312.67c.21-.06.5-.1.18.13.32-.15.47-.25.43-.29-.03-.03-.29-.03-.61.16Z"/><path class="g" d="M234.15,313.08c.07.03.14.07.2.13l.21-.04c-.1.01-.41-.19-.42-.09Z"/><path class="g" d="M230.29,314.38s.19,0,.27.01l.06-.24c-.1.08-.25.26-.33.23Z"/><path class="g" d="M230.56,314.39l-.09.35c.17-.26.15-.33.09-.35Z"/><path class="g" d="M231.85,313.49c.09-.19.21-.38.37-.55-.2.19-.33.41-.45.63l.08-.08Z"/><polygon class="g" points="229.68 315.56 229.63 315.32 229.69 315.72 229.68 315.56"/><path class="g" d="M229.4,316.35c-.06-.17-.25.11-.27-.05-.06.22-.03.44,0,.63.01-.19.09-.37.26-.58Z"/><path class="g" d="M229.19,317.25c0-.09-.03-.2-.05-.31,0,.1.01.2.05.31Z"/><path class="g" d="M230.18,315.24s-.15.01-.27.17l.21-.05s.04-.08.06-.12Z"/><path class="g" d="M230.13,315.35h0c-.06.13-.11.22-.12.25.02-.03.06-.11.13-.25Z"/><path class="g" d="M230.2,315.21v.03s.01,0,0-.03Z"/><path class="g" d="M231.11,314.08c-.07.22-.18.61.15.37,0-.18-.22-.04-.15-.37Z"/><path class="g" d="M230.45,315.16c.05-.1.14-.19.21-.29-.04-.02-.13,0-.12-.1-.03.13-.07.26-.08.39Z"/><polygon class="g" points="230.43 315.33 230.45 315.16 230.39 315.27 230.43 315.33"/><path class="g" d="M229.52,316.74c.03.16-.03.32-.06.49.08-.18.17-.36.23-.54-.04-.04-.11-.15-.17.05Z"/><path class="g" d="M229.8,316.07v.03s.03-.03,0-.03Z"/><polygon class="g" points="229.02 318.93 229.05 318.91 229.03 318.89 229.02 318.93"/><path class="g" d="M229.73,316.67c.08-.13.07-.22.05-.32-.02.11-.05.22-.09.34.02.02.03.03.04-.02Z"/><path class="g" d="M229.13,317.75c.05-.06.11-.14.16-.22-.07.06-.19.18-.16.22Z"/><path class="g" d="M229.74,316.13v-.02c-.05.03-.03.03,0,.02Z"/><path class="g" d="M229.74,316.13c0,.08.02.15.03.22.02-.09.03-.17.03-.25-.02.01-.04.02-.06.03Z"/><path class="g" d="M229.98,319.66c-.15-.05-.22-.44.01-.71-.05-.33-.6-.25-.94-.05.07.02.13.04.15.38.11-.09.35-.66.43-.36,0,.43-.13.33-.25.51.23-.13.17.59.47.55l-.02-.38s.09.15.15.06Z"/><path class="g" d="M229.21,318.3l.02-.14c-.07.14-.16.23-.32.4.03.24.08.3.12.32.06-.21.1-.43.17-.64v.05Z"/><path class="g" d="M229.38,317.58c.14.15.12.48.36.34.09-.38-.07-.3-.08-.55-.13.63-.04-.2-.26.21,0-.13.03-.24.05-.35-.05.11-.1.21-.16.3h.01s0-.01,0-.01c.03-.02.04-.03.02,0h0s.04.04.05.06c-.08.17-.05.02-.05-.05,0,0-.01-.01-.02-.01h0s-.08.65-.08.65c.06-.13.1-.29.16-.59Z"/><path class="g" d="M231.39,314.94s-.03,0-.04,0c0,.05,0,.07.04,0Z"/><path class="g" d="M231.17,315.11c0-.05-.04-.12.05-.24.11-.09.07.04.12.07,0-.1.06-.34-.16-.14v.05c-.18.19-.55.39-.54.34.17,0,.31,0,.53-.08Z"/><path class="g" d="M230.24,316.32l-.1.53.23-.2-.09-.02c.13-.27,0-.25-.04-.31Z"/><polygon class="g" points="228.92 318.97 228.76 318.86 228.95 319.21 228.92 318.97"/><polygon class="g" points="228.8 319.65 228.65 319.59 228.71 319.79 228.8 319.65"/><path class="g" d="M227.59,333.97l-.08-.13c.03.06.06.1.08.13Z"/><path class="g" d="M227.83,335h.08c-.05-.03-.08-.04-.08,0Z"/><path class="g" d="M227.71,336.2c-.15.22-.38.47-.2.44l.17-.07c-.03-.15-.01-.27.02-.37Z"/><path class="g" d="M229.13,343.71l-.06.06c.05.06.1.11.15.17-.03-.07-.06-.14-.09-.22Z"/><path class="g" d="M228.43,343.48l.15-.27c-.05.06-.1.15-.15.27Z"/><path class="g" d="M225.39,328.68l-.23-.07c.12.23.15.09.23.07Z"/><path class="g" d="M228.02,326.57c-.08.19-.12.34-.13.47.11-.22.27-.4.13-.47Z"/><path class="g" d="M229.49,333.95c-.06-.09-.1-.12-.14-.1.05.09.1.13.14.1Z"/><path class="g" d="M227.85,327.59s.03-.06.05-.1c-.02-.14-.04-.28-.01-.45-.08.17-.14.36-.03.55Z"/><path class="g" d="M210.61,314.13s-.02-.03-.03-.04c-.02.02,0,.03.03.04Z"/><path class="g" d="M205.7,309.82c.06.01.16.05.25.09-.04-.03-.11-.06-.25-.09Z"/><path class="g" d="M228.29,322.36c0-.15-.02-.03,0,0h0Z"/><path class="g" d="M229.06,321.76s.04.06.08.07c-.04-.02-.06-.04-.08-.07Z"/><path class="g" d="M228.86,329.07h0s.03-.02,0,0Z"/><path class="g" d="M228.39,322.15c-.03.05-.05.11-.07.18.02-.03.04-.08.07-.18Z"/><path class="g" d="M228.31,322.17s.02-.09.03-.12c-.03-.02-.05,0-.03.12Z"/><path class="g" d="M228.27,322.56c0-.08.03-.16.05-.23-.02.03-.03.04-.03.03,0,.04,0,.1-.02.2Z"/><path class="g" d="M220.04,320.51s0-.02-.01-.03c-.15-.04-.1-.01.01.03Z"/><polygon class="g" points="229.56 339.87 229.55 339.85 229.55 339.87 229.56 339.87"/><path class="g" d="M229.7,340.37c-.22-.21-.2-.33-.15-.5l-.5.18.65.32Z"/><path class="g" d="M226.8,331.58l-.03.38c-.38-.3-.39-.61-.49-.24.53-.14.48,1.22,1.02,1.1l-.05.25c-.01-.06-.04-.06-.06-.13-.14.5.46.21.53.78.01.2-.03.36-.13.24l.24.4c.02.13-.08.12-.1,0,.08.21.14.43.19.65h-.02c.1.08.27.27.34.36-.05.19-.07-.07-.13-.02l.2.35c-.11.18-.3-.11-.33-.36-.47.44.19.28.01,1.08l-.13-.33c-.27.27-.08.52-.25.94.11-.1.36-.85.57-.47-.01.12-.03.27.11.48-.19.03-.12.23-.08.5h-.26c.1.29.23.25.36.41,0,.32-.18.41-.34.49.01.51.28-.38.39.23-.08.44.03.73.2,1.24-.08.3-.16-.05-.23.06l.21.26c0,.07-.07.04-.1.03.08.23.26.02.33.37.3.1-.43.73-.14,1.17-.08.11-.15-.06-.25-.03.18.61.13.52.38,1.04-.07.14-.12.28-.2.41.23-.29.41.12.55.5.11-.1.2-.19.25-.25l.06.58c-.05.06-.13,0-.22-.11.02.04.03.08.05.11-.12.19-.25.07-.38-.09.06-.06.12-.12.18-.19-.14-.16-.29-.3-.44-.29.02.04.04.11.05.19-.04-.04-.07-.07-.1-.05-.03.02.02.08.07.18l-.3.09.11.04-.27.7c.11.28.26.56.38.87l.74.04c-.16-.28-.3-.59-.38-1,.22.2.34.03.59.03-.23.22.06.57.1.96l-1.36-.08s0-.08.02-.13c-.02.06-.04.1-.06.12l1.44.09c.04-.06.1-.04.14,0l-1.71-.1h0s0,0,0,0l1.72.1-.26-.76c.2,0,.15-.17.22-.38-.4.17-.29-.57-.42-.88.13-.02.27.05.25.44.29-.44-.49-.54-.25-.96,0,.09-.01.15.06.18-.13-.22-.05-.76.07-.64v.09c.03-.63-.05-1.91-.39-2,.04,0,.41.07.48.11l-1.17-1.1c.29.09.98-.3,1.16.22.04-.15.08-.34-.03-.65-.04.1-.42.26-.45.12.32-.39.17-.27.44-.74-.06.15-.52,0-.51-.25.07.04.45-.03.5.06l-.46-.6c.08.15.38.02.51-.11-.09.06,0-.52-.04-.68l-.1.26c.07-.68-.63-.67-.61-1.34.09.08.57.2.63-.14-.23-.16-1.11-.69-1.29-1.3l.13-.11-.14-.46c.34.29,1.07,1.09,1.36,1.53.1-.25.15-.07.14-.45.12-.13.19.21.2.32l.08-.88c-.27.04-.26-.68-.48-.64l.27.96c-.27.04-.77-.56-.7-1.19.11-.16.48.12.57.11-.09-.08-.17-.6-.1-.65l.14.27c.11-.35-.35-.57-.08-.99.02-.14.35-.42.19-.45-.31.23-1.26.26-1.49.09.02-.05.3-.76.47-.92.25-.23.56.37.77.18-.07-.01-.16-.14-.19-.2.07-.15.23.07.2-.26-.27-.06.05-.67-.22-.16-.07-.33.07-.34.07-.72-.18.11-.59-.36-.65-.69.07.02.16-.05.2-.08.04-.66.2-1.01.24-1.63.07-.05.17-.35.28-.21-.04-.09-.13-.18-.12-.37.26-.35.01.43.31.16-.16-.03-.19-.51-.27-.78-.25.07-.09.62,0,.9-.34-.02-.66-.52-.77-1.18-.04-.52.24-.21.2-.3.15-.96-.51-.88-.2-1.66.24-.3.43.03.59-.03.04.43-.19.63-.21.91l.13-.34c.06.14.09.42.01.57.21-.25.18-1.63.46-2.34-.06-.14-.1-.38-.2-.28v.24c-.2.19-.18-.47-.3-.19-.08-.33-.24-.72-.06-1.15l.26-.05c-.07,0-.19.27-.14.4-.08-.2.44-.63.16-.88l-.22.28c-.07-.34-.26-.78-.12-1.16-.27.14.01.1-.31.33.39-.18-.18,1.02.25.69-.37.24-.23.48-.55.82.08,0,.17-.11.09.22.02.02.05.06.06.08,0,0,0,.01,0,.02v-.02s.02.02.02,0c.04-.07.1-.13.14-.15.16.19.09.72.17.91-.06.19-.08-.09-.18,0l.11.28c-.18,0-.36.49-.41.01l-.06.42c-.13.24-.2.58-.14.79-.06.2.15.52.03.33l.05.67h-.05c-.09.65.2,1.36-.17,2.09.03.22.07.45,0,.82l-.16.06c.04.28-.19.84-.03.97-.43.29-.14,1.36-.23,1.86l.2.02c-.02.34.04.67.11,1.09l.18-.02c.14.37-.14.93-.13,1.51-.07-.04-.05-.19,0-.29-.42.68.28,1.45,0,2.07.07.16.04.27,0,.38,0-.01,0-.03,0-.04,0,.02,0,.04,0,.06-.03.07-.06.15-.09.22.04-.07.08-.13.1-.18,0,.12.03.3.07.48l-.19.08s0,.02,0,.04c-.07.18.09.14.24.05.03.09.07.17.12.23-.31.14.11.47-.22.66.16.12.14.89.48.98-.04,0-.06.06-.07-.04-.03.2-.07.4.03.57l-.24.09.34.43c-.14.27-.23.38-.42.12.3.62.12.51.42,1.04l-.16-.02c.01.19.23.49.1.61-.29.44.03,2.12-.21,3.22.46-.23-.19.52.17.55-.11.07-.16.22-.27.05.04.17.04.32.03.45l1.81.11c.07-.29.16-.51-.01-.81.12-.05.14.14.22.1-.02-.05-.07-.19,0-.25.07-.05.08.1.12.19.06-.59-.27-.69-.59-.77.19-.27.18-.42,0-.65.12-.09.25-.25.24.11.06-.2.25-1.23,0-1.27.07-.06.03-.28,0-.34.04-.45.06-.49.06-.94l-.05.12c-.3-.18-.04-.37-.1-.73h.03c.2-.82-.12-.34.12-1.17l-.19.05c-.42-.06.25-.73.02-1.2l-.09.18c-.17-.24.48-.77.51-1.04.03-.06.07.08.1.16.17-.72-.26-.06-.37-.57.12-.11.35.08.34-.27.11-.2-.6-.93-.42-1.44-.08.12-.17.24-.29.02-.1-.35.22-1.06-.2-1.3.02-.05.04-.07.06-.08-.15-.25-.37-.84-.58-.95.6-.45-.84-1.53-.25-1.72-.11-.27-.2-.53-.32-.8h.07c-.18-.52-.39-.64-.6-.76-.01-.13.08-.07.11-.07-.2-.78-.25-.86-.83-1.31l.15-.15c-.2-.1-.23-1.19-.86-1.74.02,0,.06-.01.12.03-.33-.32-.48-.85-.66-1.27-.2-.42-.41-.75-.8-.68l-.47-.37c.38.64-.32.09-.24.41-.19-.22-.27-.73-.02-.47v.07c.39-.12-.46-.81-.24-.95-.9-1.16-1.73-2.35-2.69-3.35l-.1.32-.32-.35c-.05-.13.04-.28.28-.03,0-.25-.52-.3-.56-.26-.41-.55.43-.07.28-.21l-.22-.18.02.07c-.25-.07-.35,0-.64-.28-.15-.22.02-.22-.04-.3.01-.01,0-.05-.11-.11l-.44-.42.03.33c-.28-.09-.42-.38-.38,0-.03-.59-1.63-1.55-1.76-1.79-.39-.1-.7-.31-1.05-.6.06.11-.04.35-.33.1.43-.35-.44-.61-.49-1.1.09.37-.97-.58-.8-.03-.25-.22.09-.18-.04-.42-.77-.25-1.38-1.05-2.26-1.48-.05.05.04.23-.19.21l-.27-.56c-.19-.06-.35.27-.54-.12.01.08.04.19-.09.15-1.5-1.23-3.54-1.53-5.07-2.86.19.23.02.17-.16.1.11.08-.07.16-.08.26l-.65-.55c-.23.19-.82-.29-.99-.08l.26.04c-.42.16.22.79.03,1.13.47-.19.72.82,1.46.61.09.12-.15.07-.12.18.21-.09.39-.05.68.16l-.05.02c.9.36,1.21.68,2.13,1.26v-.21c.21.13.23.2.3.29.37-.14-.58-.31-.22-.48.11.47,1.47.76,1.44,1.25.31.18.01-.24.33-.07l.03.15.15-.09c.19.14.22.32.18.42-.04-.04-.15-.05-.21-.08.2.27.77.38.83.48l-.26-.24c.9.4,1.83,1.15,2.75,1.48v-.11c.68.27.42.41,1.11.79h-.04c.18.02.38.11.55.25-.22-.03.18.39-.1.33.73.32.4.11,1.01.16v.19c.22,0,.28-.04.62.18-.33-.1.06.33-.33.24.45.76,1.17.52,1.15,1.14.56-.06-.4-.64-.18-.57-.05-.22.44-.03.61.18.19.19,0,.69.5,1.13-.05-.05-.07-.03-.12-.07.11.25.45.23.56.56.3-.06.28.28.53.09l-.5-.37c.3.18.82.13,1.09.67-.08.01-.25-.05-.37-.1.05.18.27.19.32.38-.25.18-.57-.48-1.01-.55.04.22.67.31.29.43.5-.13.42.5.97.59l-.16.11c.07.03.24.07.33.17h-.34c.4.12.36.62.66.81-.48-.54.07-.28-.04-.6.79.5-.03.72.7,1.41-.11-.08-.25-.46-.04-.35.1.17.21.41.21.56.44.49.09-.21.35-.06-.04.32.27.2.51.38l-.15.12c.37.67.44-.09.75.54l-.39-.07.27.24-.22.07c.36.21.39.34.56.69.06-.15.31-.16.51.12.04.25-.23,0,.07.37-.16-.02-.35-.03-.32-.3-.06.02-.16-.02-.22,0,.03.28.32.52.42.66-.03-.06-.07-.13-.07-.18.21.14.4.29.59.44,0,.13-.1.09-.19.05.09.11.21.14.33.31-.16.04-.29.13-.5-.08l.48.47c-.04.07.01.38-.08.34.12.34.69.62.8,1.1.04,0,.09.04.15.12.19.41.18.85.57,1.25l-.14.39c.22.36.16-.51.54.08.28.42-.15.26-.15.45.23.17.63.48.57.98-.1-.12-.1-.25-.16-.37ZM228.19,336.53c-.06-.09-.22-.27-.12-.36.24.08.15.18.12.36ZM228.66,344.44c-.05-.08,0-.2.08-.32,0,.1-.02.21-.08.32ZM228.26,323.95h0c-.1.24-.06.16,0,0ZM228.39,323.47c-.02-.05-.05-.05-.08-.03.04.04.03.15,0,.27.05-.03.1-.09.07-.24ZM219.82,318.53l.04.1c-.19-.11-.12-.1-.04-.1Z"/><path class="g" d="M228.51,343.51s.07-.03.11-.03c-.03-.04-.06-.05-.11.03Z"/><path class="g" d="M225.43,328.69h0s-.03-.02-.04-.01h.04Z"/><path class="g" d="M229.55,331c-.03.1-.07.15-.11.19.05,0,.09-.04.11-.19Z"/><path class="g" d="M228.42,320.86v.32c.01-.15.06-.2.11-.27-.05,0-.12.05-.11-.05Z"/><path class="g" d="M230.12,318.44s.02-.09.01-.14h-.09c-.05.18-.01.32.08.14Z"/><path class="g" d="M229.1,320.68c.16,0,.14-.2.15-.42,0,.01,0,.03,0,.04-.21-.1-.18.14-.14.38Z"/><path class="g" d="M229.25,320.21c0-.07,0-.14.03-.2-.08-.04-.04.08-.03.2Z"/><path class="g" d="M228.36,322.85c.05-.1-.2-.09-.12-.14-.19-.14.16.72.12.14Z"/><polygon class="g" points="229.66 320.6 229.45 320.64 229.58 320.78 229.66 320.6"/><path class="g" d="M229.25,322.25l.1-.33s-.05-.05-.06-.1c-.03.21-.1.44-.04.44Z"/><path class="g" d="M229.29,321.82c.02-.11.03-.21.01-.28,0,.06-.02.19-.01.28Z"/><polygon class="g" points="229.64 321.07 229.58 321.16 229.53 321.4 229.64 321.07"/><path class="g" d="M228.83,325.94l.03.38c.07.04.11-.06.1-.2-.04-.09-.06-.23-.13-.18Z"/><path class="g" d="M229.48,324.85c-.05.1-.1.1-.17.15l.25.03-.08-.18Z"/><path class="g" d="M229.44,325.94c.06.04.16.55.18.08-.06-.04-.09-.42-.18-.08Z"/><polygon class="g" points="228.85 331.56 228.85 331.46 228.44 331.47 228.85 331.56"/><path class="g" d="M229.79,336.53c.1-.44-.25-.1-.13-.5-.1-.1-.1.33-.18.22.1.27.05.41.31.28Z"/><path class="g" d="M229.48,336.25s-.04-.09-.06-.14c.03.08.05.11.06.14Z"/><polygon class="g" points="204.78 309.23 204.53 309.05 204.66 309.24 204.78 309.23"/><path class="g" d="M204.14,309.32l.02-.27-.25.16c.07.01.2.03.23.11Z"/><path class="g" d="M227.76,337.35h.06c.06-.04.06-.1.06-.23l-.12.23Z"/><polygon class="g" points="227.26 333.7 227.27 333.76 227.46 333.59 227.26 333.7"/><path class="g" d="M225.99,330.87c.04.12.15.23.19.35-.15-.23.07-.5-.19-.35Z"/><path class="g" d="M311.65,204.3c.19-.07.06-.19.07-.23-.3.18-.04.27-.07.23Z"/><polygon class="g" points="309.06 206.07 309.08 205.98 308.76 206.35 309.06 206.07"/><path class="g" d="M306.58,207.52c.38.1.86-.58,1.36-.75h.11s.08-.3.08-.3c-.52.34-1.14.89-1.55,1.05Z"/><path class="g" d="M304.95,207.81c.14.04-.23.26.32-.16-.03,0-.05,0-.07.01-.05.04-.12.08-.25.15Z"/><path class="g" d="M305.2,207.66c.25-.17-.22.03,0,0h0Z"/><path class="g" d="M304.06,208.48l.28-.31c-.11,0-.41.18-.33.06-.31.28-.21.28.05.24Z"/><path class="g" d="M303.86,208.87l.15-.15s-.1.02-.15.15Z"/><path class="g" d="M304.32,208.4l-.32.32c.07,0,.13.08.15-.14.02.09.04-.03.17-.18Z"/><path class="g" d="M304.55,208.3c.22-.07.49-.19.2.11.62-.44.42-.55-.2-.11Z"/><path class="g" d="M306.61,207.85l.3-.08.17-.22c-.08.11-.53.23-.47.3Z"/><path class="g" d="M301.91,209.78c.01.06.2.05.27.1l.2-.23c-.15.05-.41.19-.48.13Z"/><path class="g" d="M302.18,209.88l-.3.34c.33-.22.36-.3.3-.34Z"/><polygon class="g" points="303.97 209.17 304.45 208.58 303.86 209.25 303.97 209.17"/><polygon class="g" points="300.54 210.77 300.65 210.5 300.42 210.94 300.54 210.77"/><path class="g" d="M299.65,211.46c.08-.21-.32,0-.21-.18-.23.21-.37.45-.5.66.17-.19.38-.35.71-.48Z"/><path class="g" d="M298.71,212.29c.08-.1.15-.22.23-.35-.09.1-.17.21-.23.35Z"/><path class="g" d="M301.25,210.63s-.16-.05-.38.07l.24.03s.09-.07.14-.1Z"/><path class="g" d="M301.12,210.74h0c-.15.11-.26.18-.31.22.04-.03.13-.09.32-.22Z"/><path class="g" d="M301.29,210.61l-.04.03s.03,0,.04-.03Z"/><path class="g" d="M302.93,209.69c-.16.23-.54.62-.03.44.08-.2-.21-.1.03-.44Z"/><path class="g" d="M301.59,210.65l.41-.24s-.14-.04-.06-.15l-.34.39Z"/><polygon class="g" points="301.44 210.83 301.59 210.65 301.44 210.74 301.44 210.83"/><path class="g" d="M299.44,211.92c-.11.18-.29.33-.48.49.23-.14.46-.3.67-.46,0-.07.03-.21-.19-.03Z"/><path class="g" d="M300.26,211.35l-.03.03s.05-.01.03-.03Z"/><polygon class="g" points="297.04 213.95 297.09 213.95 297.08 213.92 297.04 213.95"/><path class="g" d="M299.69,211.94c.18-.1.25-.21.31-.31-.11.1-.23.21-.36.32,0,.03,0,.04.05,0Z"/><path class="g" d="M298.21,212.77c.11-.04.22-.09.33-.14-.11.02-.33.08-.33.14Z"/><path class="g" d="M300.15,211.39l.02-.02c-.08.01-.06.02-.02.02Z"/><path class="g" d="M300.15,211.39c-.07.08-.11.16-.15.24.09-.08.17-.17.23-.25-.03,0-.06,0-.08,0Z"/><path class="g" d="M297.17,215.27c-.08-.14.24-.59.69-.75.27-.38-.29-.59-.78-.57.03.06.07.11-.22.48.18-.04.92-.5.71-.14-.42.45-.42.28-.7.4.32-.01-.41.72-.12.86l.34-.42s-.07.21.08.14Z"/><path class="g" d="M297.78,213.4l.13-.14c-.19.12-.35.17-.65.25-.2.26-.21.35-.19.4l.74-.58-.04.06Z"/><path class="g" d="M298.59,212.73c-.01.23-.32.57.01.54.43-.35.22-.35.43-.62-.68.59.15-.24-.43.09.12-.13.24-.24.36-.34-.14.08-.28.16-.42.23h.02s0,0,0,0h0s.06,0,.02.02h-.01s.01.06,0,.09c-.23.13-.06,0,0-.08,0,0,0-.02,0-.03h0s-.65.64-.65.64c.16-.11.35-.26.67-.53Z"/><path class="g" d="M302.72,210.71s-.04,0-.05-.02c-.04.05-.04.07.05.02Z"/><path class="g" d="M302.36,210.84c.04-.06.04-.14.23-.25.18-.06.05.07.09.11.08-.11.29-.36-.08-.2l-.04.06c-.33.16-.84.25-.8.2.18.06.32.1.6.09Z"/><path class="g" d="M300.47,211.81l-.55.52.39-.11-.07-.06c.36-.23.22-.26.22-.35Z"/><polygon class="g" points="296.92 213.94 296.88 213.74 296.71 214.21 296.92 213.94"/><polygon class="g" points="296.18 214.58 296.11 214.44 295.97 214.68 296.18 214.58"/><path class="g" d="M269.96,261.56v.22c0-.1,0-.17,0-.22Z"/><path class="g" d="M270.36,260.04l-.07-.06c.02.08.05.12.07.06Z"/><path class="g" d="M280.27,232.55c-.3.19-.69.36-.52.43h.2c.1-.19.21-.33.32-.43Z"/><path class="g" d="M273.5,247.48l.08-.07c-.03-.09-.05-.18-.07-.26,0,.1,0,.21-.01.33Z"/><path class="g" d="M274.08,247.97l-.26.35c.07-.07.16-.18.26-.35Z"/><path class="g" d="M268.48,260.91l-.1-.28c-.1.37.03.23.1.28Z"/><path class="g" d="M288.98,221.57c-.24.15-.41.3-.55.44.3-.19.59-.28.55-.44Z"/><path class="g" d="M268.32,260.53c0,.14.02.2.06.21,0-.14,0-.23-.06-.21Z"/><path class="g" d="M287.89,222.61s.08-.05.13-.08c.11-.17.23-.34.41-.52-.22.13-.44.32-.54.6Z"/><path class="g" d="M259.87,233.23l-.03-.07s0,.03.03.07Z"/><path class="g" d="M254.15,225.92c.08.04.2.13.32.21-.05-.05-.14-.12-.32-.21Z"/><path class="g" d="M293.19,217.16c.15-.15.01-.04,0,0h0Z"/><path class="g" d="M294.4,216.98s-.03.09,0,.12c-.02-.04-.01-.08,0-.12Z"/><path class="g" d="M287.34,224.86h-.01c.06-.01.05,0,.01,0Z"/><path class="g" d="M293.47,217c-.07.04-.15.09-.23.14.04-.02.11-.06.23-.14Z"/><path class="g" d="M293.39,216.97c.06-.04.1-.08.14-.11,0-.04-.03-.04-.14.11Z"/><path class="g" d="M292.98,217.36c.09-.08.17-.15.26-.22-.04.02-.06.02-.05.01-.04.04-.1.1-.21.2Z"/><path class="g" d="M268.77,246.93s0-.03,0-.05c-.13-.17-.09-.09,0,.05Z"/><polygon class="g" points="278.98 238.05 278.99 238.02 278.97 238.05 278.98 238.05"/><path class="g" d="M278.74,238.75c-.04-.38.07-.52.23-.7l-.55-.04.33.74Z"/><path class="g" d="M269.25,265.25l.26-.47c.13.65-.05,1.07.26.64-.52-.17.35-1.95-.17-2.13l.18-.31c-.02.09,0,.12-.02.21.39-.59-.29-.56-.04-1.38.1-.28.23-.46.24-.25l.03-.67c.06-.18.14-.12.08.07l.21-.98h.01c-.05-.15-.1-.5-.11-.66.14-.23.02.14.11.09v-.57c.2-.18.22.3.11.66.65-.37-.02-.48.56-1.49l-.06.53c.38-.25.36-.68.72-1.19-.15.1-.78,1.01-.76.39.08-.15.17-.36.16-.7.19.05.23-.27.34-.65l.24.1c.05-.43-.08-.44-.12-.71.16-.45.38-.49.57-.55.26-.72-.46.41-.24-.47.27-.58.31-1.04.43-1.81.23-.39.12.12.24,0l-.06-.44c.04-.09.09-.04.11-.01.04-.34-.23-.11-.12-.63-.22-.23.74-.88.66-1.6.13-.12.12.13.23.12.13-.9.14-.76.15-1.55l.39-.52c-.35.35-.34-.27-.32-.83-.15.12-.27.22-.34.29l.18-.82c.08-.08.13.03.17.2v-.16c.2-.24.28-.04.33.21-.08.07-.17.14-.26.21.07.25.16.49.31.51,0-.06,0-.17.04-.28.02.07.04.11.07.1.04-.02.01-.12,0-.27l.33-.06-.09-.09c.18-.31.38-.61.59-.91.05-.81-.06-1.6.34-2.76.06.37.28.2.5.33-.37.19-.29.91-.59,1.46.16-.29.24-.17.24-.08l.25-1.12c.17.11.24-.15.43-.39-.46.03.13-.87.23-1.33.13.03.21.19-.07.68.55-.42-.06-.92.44-1.35-.06.12-.11.18-.07.26.04-.34.47-.99.49-.78l-.06.12c.42-.8,1.31-2.42,1.07-2.71.04.01.3.3.33.38l-.21-1.99c.18.27,1.05.14.83.88.14-.17.31-.38.46-.81-.11.1-.56.1-.47-.09.57-.31.35-.24.94-.68-.17.16-.43-.29-.24-.58.03.08.4.21.38.34l.07-.98c-.04.23.3.23.51.14-.12.03.39-.64.49-.85l-.29.25c.6-.78,0-1.15.57-1.95.01.15.31.56.63.18-.06-.31-.37-1.47,0-2.27l.21-.06.27-.63c.04.55-.06,1.89-.16,2.58.29-.24.18,0,.48-.46.21-.09-.02.35-.1.49.25-.34.53-.66.8-.99-.25-.11.35-.95.14-1.04l-.58,1.29c-.25-.11-.16-1.09.42-1.8.22-.12.29.42.37.46,0-.15.36-.8.46-.83l-.11.4c.37-.35.2-.87.78-1.2.14-.16.66-.28.55-.41-.45.08-1.25-.44-1.29-.77.06-.05.91-.7,1.18-.79.4-.12.13.77.47.66-.05-.06,0-.26.02-.34.19-.13.12.21.39-.18-.16-.23.64-.73-.03-.32.24-.41.36-.35.7-.77-.25.02-.14-.76.1-1.18.03.07.17.04.24.03.64-.72,1.09-1.01,1.69-1.68.1-.02.45-.29.42-.07.05-.13.06-.28.24-.49.54-.23-.39.48.1.37-.1-.14.33-.67.53-1.02-.26-.08-.67.62-.85.99-.25-.23-.05-.98.49-1.76.46-.6.38-.08.44-.21,1.01-.98.41-1.28,1.42-1.93.48-.17.31.29.5.33-.38.48-.76.56-1.05.85l.43-.28c-.09.19-.34.51-.53.63.41-.14,1.7-1.65,2.62-2.26.09-.18.28-.46.11-.42l-.23.25c-.35.09.31-.61-.06-.38.25-.4.51-.9,1.05-1.27l.25.1c-.06-.04-.41.18-.49.36.12-.27.96-.42.97-.86l-.46.17c.27-.4.53-.97,1.02-1.29-.36-.01-.08.11-.58.17.5.03-1.13.96-.45.86-.54.03-.64.38-1.23.55.07.05.25-.02-.14.28,0,.03-.02.09-.03.12-.01,0-.02.01-.03.02h.03s0,.02,0-.02c.11-.05.21-.09.27-.08-.05.3-.62.82-.75,1.07-.24.17.02-.15-.15-.1l-.18.37c-.15-.1-.75.32-.34-.23l-.44.42c-.33.18-.71.5-.88.77-.23.18-.38.65-.3.38l-.59.77-.04-.02c-.67.67-1.14,1.6-2.09,2.2-.18.27-.36.55-.75.91l-.19-.02c-.24.33-.92.83-.91,1.07-.6.08-1.37,1.46-1.85,1.99l.14.15c-.31.38-.56.8-.87,1.33l.17.08c-.21.5-.93,1-1.4,1.7-.02-.09.12-.25.24-.35-.91.58-1.01,1.87-1.74,2.47-.07.23-.18.35-.31.46.01-.02.02-.04.02-.05-.01.02-.03.05-.05.08-.08.07-.17.14-.25.21.09-.05.17-.11.23-.17-.09.15-.22.38-.33.62h-.22s-.02.02-.03.04c-.2.17-.04.22.16.19-.05.13-.08.25-.09.35-.38,0-.29.62-.71.69.05.24-.58,1.18-.36,1.47-.04-.02-.1.04-.03-.08-.18.23-.37.45-.42.72l-.27-.02-.04.7c-.31.26-.47.35-.45-.07-.19.95-.27.71-.4,1.53l-.12-.11c-.13.25-.16.74-.36.82-.6.39-1.45,2.72-2.41,4.03.55-.08-.5.59-.19.8-.14.04-.29.22-.27-.06-.24.79-.67,1.05-.62,1.69-.14.04-.08-.22-.17-.17,0,.07-.02.28-.11.33-.09.05-.04-.15-.03-.28-.33.77-.04.99.23,1.17-.3.33-.36.54-.27.9-.15.1-.34.28-.19-.21-.12.26-.81,1.6-.58,1.72-.09.06-.17.37-.17.45-.26.6-.28.66-.47,1.27l.1-.15c.21.34-.11.53-.25,1.03l-.02-.02c-.6,1.05-.07.52-.7,1.54h.2c.34.23-.54.91-.59,1.61l.18-.2c.03.39-.84.83-.99,1.17-.06.07-.02-.14-.01-.26-.52.87.2.19.05.91-.17.09-.28-.26-.45.2-.19.2.06,1.49-.36,2.07.14-.12.27-.23.27.11-.09.51-.73,1.26-.52,1.8-.04.06-.08.08-.1.07-.03.4-.14,1.29-.02,1.56-.72.22-.18,2.47-.78,2.34l-.12.66,1.41.41.18-.53.05.05c.31-.73.27-1.04.22-1.35.1-.16.11-.01.14.01.51-1.04.46-1.19.45-2.19l.22-.05c0-.27.68-1.56.67-2.73.02.01.05.04.06.14,0-.65.2-1.39.36-2.05.15-.66.16-1.23-.18-1.48l-.14-.84c-.1,1.08-.31-.16-.45.28,0-.42.2-1.09.27-.57l-.03.08c.38.19.09-1.34.34-1.33-.14-2.13-.26-4.25-.81-6.2l-.22.3c-.06-.23-.1-.46-.17-.68,0-.19.15-.3.28.18.08-.3-.39-.76-.46-.75-.19-.97.44.26.36-.03l-.15-.38v.1c-.22-.28-.34-.27-.53-.84-.09-.37.1-.24.05-.39.02,0,0-.06-.08-.22l-.31-.83-.08.42c-.25-.32-.3-.77-.39-.29.09-.36-.25-1.11-.58-1.83-.36-.71-.76-1.35-.79-1.55-.41-.4-.7-.84-1.02-1.43.04.17-.12.39-.39-.11.57-.12-.39-.99-.33-1.6.04.48-1.01-1.29-.92-.55-.25-.41.14-.14.03-.51-.84-.79-1.45-2.06-2.44-3.07-.07.03.01.28-.27.12l-.25-.78c-.22-.18-.47.09-.64-.45,0,.09.02.23-.13.11-1.69-2.23-4.24-3.65-6.09-5.82.22.34.01.2-.22.03.13.14-.11.14-.13.24l-.8-.9c-.32.09-1.05-.7-1.3-.55l.34.16c-.57-.02.2.93-.08,1.21.65.02.86,1.22,1.86,1.36.11.18-.21,0-.18.13.28,0,.51.15.86.51h-.07c1.12.85,1.49,1.35,2.58,2.49l.04-.22c.23.25.25.33.33.48.48.05-.69-.65-.22-.65.08.57,1.74,1.65,1.64,2.18.36.37.05-.26.41.11v.18s.21-.01.21-.01c.21.27.22.5.16.57-.05-.07-.18-.15-.25-.21.2.42.88.87.95,1.02l-.28-.41c1.04.97,2.03,2.39,3.02,3.35v-.14c.77.74.43.73,1.13,1.64l-.04-.02c.2.14.42.37.57.65-.24-.19.11.57-.18.31.74.87.41.4,1.08.88l-.05.23c.24.16.31.14.62.63-.34-.36-.03.43-.42.04.3,1.19,1.08,1.46.9,2.15.61.33-.24-1.03-.02-.79,0-.29.47.28.6.65.16.36-.23.82.14,1.7-.03-.09-.06-.08-.1-.17.04.37.4.6.36,1.08.31.15.17.55.49.52l-.35-.82c.22.45.76.78.81,1.64-.08-.04-.21-.26-.32-.41,0,.25.18.43.16.7-.31.01-.35-1.01-.77-1.44-.05.28.54.89.12.73.55.24.19.92.68,1.46h-.2c.05.09.19.28.24.46l-.33-.27c.35.46.02,1.02.23,1.48-.19-1.02.18-.27.24-.74.46,1.24-.3.82-.06,2.22-.05-.19.03-.74.15-.45,0,.28-.04.65-.12.82.14.94.18-.16.34.23-.2.34.16.46.24.88h-.19c-.09,1.11.41.29.3,1.28l-.28-.41.09.51-.22-.1c.18.55.1.73.03,1.27.14-.12.35.09.33.58-.13.32-.17-.2-.18.49-.11-.17-.26-.34-.06-.63-.06-.03-.11-.16-.18-.19-.14.34-.06.88-.11,1.13.02-.09.04-.21.08-.26l.15,1.02c-.09.15-.13.02-.18-.11,0,.2.07.35.05.65-.15-.1-.31-.1-.33-.52l.06.96c-.08.05-.28.44-.31.31-.2.49.07,1.32-.23,1.96.02.04.03.12,0,.27-.22.62-.53,1.12-.58,1.92l-.42.32c-.15.59.54-.44.29.54-.16.71-.32.17-.48.38,0,.18.02.44-.01.72l1.79.52c0-.3.04-.64.23-.96,0,.23-.07.39-.09.6ZM270.85,257.75c0,.16.05.47-.09.55-.17-.22-.04-.32.09-.55ZM274.28,246.58c.01.13-.09.27-.22.42.04-.14.1-.28.22-.42ZM291.65,218.85v.02c-.3.18-.19.12,0-.02ZM292.21,218.42c.03-.07,0-.08-.03-.08,0,.07-.11.18-.25.3.07,0,.16-.04.28-.22ZM269.28,244.43v.15c-.16-.27-.08-.21,0-.15Z"/><path class="g" d="M274.02,247.91s-.08.02-.12.02c0,.07.04.08.12-.02Z"/><path class="g" d="M268.5,260.96v-.02s0-.02-.02-.03l.02.05Z"/><path class="g" d="M286.17,227.47c-.11.09-.19.14-.25.15.03.04.1,0,.25-.15Z"/><path class="g" d="M294.72,215.64l-.31.33c.16-.15.24-.17.35-.22-.04-.03-.15-.02-.04-.11Z"/><path class="g" d="M298.46,214.03c.04-.06.1-.09.14-.15l-.07-.06c-.21.18-.31.36-.07.21Z"/><path class="g" d="M295.46,215.85c.13.1.31-.13.53-.36l-.04.04c-.08-.23-.28.04-.48.32Z"/><path class="g" d="M296.04,215.44c.07-.07.14-.14.22-.19-.03-.09-.1.06-.22.19Z"/><path class="g" d="M292.78,217.72c.14-.07-.07-.21.03-.22-.02-.26-.56.86-.03.22Z"/><polygon class="g" points="296 216.08 295.79 216.01 295.76 216.24 296 216.08"/><path class="g" d="M294.07,217.62l.4-.3s0-.08.05-.14c-.23.2-.5.4-.46.44Z"/><path class="g" d="M294.53,217.18c.12-.11.23-.21.27-.3-.06.06-.19.19-.27.3Z"/><polygon class="g" points="295.53 216.58 295.39 216.64 295.12 216.86 295.53 216.58"/><path class="g" d="M290.23,221.37l-.33.43c.01.09.14,0,.26-.16.06-.13.18-.29.07-.28Z"/><path class="g" d="M291.76,220.56c-.13.07-.17.05-.28.06l.17.19.11-.25Z"/><path class="g" d="M290.71,221.74c.01.09-.4.7.06.2-.01-.09.32-.52-.06-.2Z"/><polygon class="g" points="285.12 227.71 285.2 227.6 284.87 227.36 285.12 227.71"/><path class="g" d="M281.73,234.1c.43-.48-.13-.26.29-.68,0-.18-.34.34-.33.16-.13.38-.29.51.03.51Z"/><path class="g" d="M281.7,233.59c.02-.06.04-.13.06-.2-.04.11-.05.16-.06.2Z"/><polygon class="g" points="253 224.85 252.69 224.54 252.85 224.81 253 224.85"/><path class="g" d="M252.15,224.66l.05-.27-.35.06c.1.05.27.12.3.21Z"/><path class="g" d="M271.68,256.8l-.05-.05c-.08.04-.12.13-.18.31l.23-.27Z"/><polygon class="g" points="270.11 262.12 270.13 262.03 269.87 262.15 270.11 262.12"/><path class="g" d="M267.14,263.92c-.07.17-.1.39-.17.56.1-.39.46-.51.17-.56Z"/><path class="g" d="M175.83,310.03c.1-.11-.07-.17-.08-.2-.11.23.12.22.08.2Z"/><polygon class="g" points="174.93 312.11 174.89 312.04 174.86 312.41 174.93 312.11"/><path class="g" d="M173.86,313.9c.35-.03.34-.67.61-.94l.09-.02-.11-.26c-.2.4-.36.99-.59,1.22Z"/><path class="g" d="M172.78,314.56c.13,0-.03.26.16-.21-.02.01-.03.02-.05.03-.02.04-.05.09-.11.18Z"/><path class="g" d="M172.89,314.38c.1-.2-.15.08,0,0h0Z"/><path class="g" d="M172.46,315.3l.05-.3c-.09.02-.22.24-.22.14-.09.29,0,.26.17.17Z"/><path class="g" d="M172.52,315.64l.03-.15s-.06.04-.03.15Z"/><path class="g" d="M172.62,315.17l-.07.32c.06-.02.14.02.04-.14.06.06.02-.03.03-.18Z"/><path class="g" d="M172.75,315.03c.13-.11.26-.28.21.02.23-.5.01-.53-.21-.02Z"/><path class="g" d="M174.07,314.13l.18-.15v-.21c0,.1-.26.32-.18.35Z"/><path class="g" d="M171.5,316.84s.19-.01.27,0l.04-.22c-.09.08-.22.25-.3.22Z"/><path class="g" d="M171.76,316.84l-.05.33c.14-.25.12-.32.05-.33Z"/><polygon class="g" points="172.77 315.84 172.83 315.27 172.73 315.93 172.77 315.84"/><polygon class="g" points="170.95 317.93 170.9 317.71 170.95 318.09 170.95 317.93"/><path class="g" d="M170.62,318.68c-.05-.17-.26.08-.26-.08-.07.21-.06.42-.05.62.03-.19.12-.36.31-.54Z"/><path class="g" d="M170.31,319.53c.01-.09,0-.2,0-.31-.02.1-.02.2,0,.31Z"/><path class="g" d="M171.44,317.64s-.15,0-.27.15l.21-.04s.04-.07.06-.11Z"/><path class="g" d="M171.39,317.76h0c-.06.12-.11.21-.13.24.02-.03.06-.1.13-.24Z"/><path class="g" d="M171.46,317.62v.03s.01,0,0-.03Z"/><path class="g" d="M172.25,316.5c0,.21-.09.6.21.33-.04-.17-.22-.02-.21-.33Z"/><path class="g" d="M171.72,317.57l.18-.29s-.13.01-.13-.09l-.05.38Z"/><polygon class="g" points="171.7 317.74 171.72 317.57 171.65 317.68 171.7 317.74"/><path class="g" d="M170.7,319.07c0,.16-.05.31-.12.48.11-.16.21-.34.29-.51-.04-.05-.09-.16-.17.03Z"/><path class="g" d="M171.04,318.43v.03s.03-.02,0-.03Z"/><polygon class="g" points="169.86 321.18 169.9 321.17 169.87 321.15 169.86 321.18"/><path class="g" d="M170.91,319.02c.09-.12.09-.22.08-.31-.03.11-.07.22-.12.33.02.02.03.03.04-.02Z"/><path class="g" d="M170.17,320.02c.06-.05.13-.12.19-.19-.08.05-.22.15-.19.19Z"/><path class="g" d="M170.97,318.49v-.02c-.05.03-.03.03,0,.02Z"/><path class="g" d="M170.97,318.49c-.01.08,0,.15.01.22.02-.09.04-.17.05-.24-.02.01-.04.02-.06.02Z"/><path class="g" d="M170.66,322.1c-.14-.08-.12-.49.16-.72.02-.34-.54-.36-.92-.21.06.04.12.06.07.4.13-.07.48-.6.5-.29-.1.44-.19.31-.36.47.25-.09.05.63.36.65l.05-.39s.06.17.14.08Z"/><path class="g" d="M170.16,320.59l.04-.13c-.09.13-.19.21-.39.35-.02.24.02.31.06.34l.29-.62v.05Z"/><path class="g" d="M170.45,319.89c.11.17.04.5.3.39.16-.37-.01-.31.02-.56-.23.61,0-.21-.29.18.03-.13.07-.24.11-.34-.07.1-.14.19-.21.27h.02s0-.01,0-.01h0s.05-.02.02,0h0s.03.05.05.07c-.11.16-.05,0-.05-.05l-.02-.02h0s-.18.64-.18.64c.08-.12.14-.28.25-.57Z"/><path class="g" d="M172.64,317.31s-.03,0-.05,0c0,.05,0,.07.05,0Z"/><path class="g" d="M172.42,317.5c0-.05-.04-.12.04-.25.11-.09.07.04.13.06,0-.1.04-.34-.17-.12v.05c-.17.2-.51.41-.51.36.17,0,.3-.01.51-.1Z"/><path class="g" d="M171.46,318.72l-.15.53.25-.19-.09-.03c.16-.26.04-.25-.01-.31Z"/><polygon class="g" points="169.75 321.21 169.61 321.07 169.73 321.46 169.75 321.21"/><polygon class="g" points="169.5 321.87 169.36 321.78 169.38 321.99 169.5 321.87"/><path class="g" d="M172.47,359.52l.12.1c-.05-.05-.09-.08-.12-.1Z"/><path class="g" d="M171.88,358.58l-.08.02c.06.02.1.02.08-.02Z"/><path class="g" d="M165.37,338.78c-.17.22-.41.48-.23.46l.18-.06c-.02-.17.01-.29.06-.4Z"/><path class="g" d="M167.44,350.48l.03-.08c-.07-.04-.14-.07-.2-.11.05.06.11.12.17.19Z"/><path class="g" d="M168.17,350.45l-.03.32c.02-.07.03-.18.03-.32Z"/><path class="g" d="M168.57,356.67l-.25.02c.19.17.17.03.25-.02Z"/><path class="g" d="M167.18,328.75c-.12.18-.19.33-.23.46.16-.21.35-.36.23-.46Z"/><path class="g" d="M170.68,360.15c.08.07.13.08.16.06-.08-.07-.14-.1-.16-.06Z"/><path class="g" d="M166.81,329.78s.04-.06.07-.09c0-.15.02-.3.08-.47-.12.15-.21.34-.15.57Z"/><path class="g" d="M147.94,353.99s-.04,0-.05-.01c0,.02.02.02.05.01Z"/><path class="g" d="M141.13,353.91c.06-.03.16-.06.26-.09-.05,0-.13.03-.26.09Z"/><path class="g" d="M168.4,324.51c.04-.15,0-.03,0,0h0Z"/><path class="g" d="M169.3,324.06s.02.07.06.09c-.04-.03-.05-.05-.06-.09Z"/><path class="g" d="M167.5,331.48h0s.03-.02,0,0Z"/><path class="g" d="M168.56,324.32s-.08.1-.11.16c.02-.02.06-.07.11-.16Z"/><path class="g" d="M168.47,324.32s.04-.08.06-.12c-.02-.03-.04-.02-.06.12Z"/><path class="g" d="M168.34,324.71c.03-.08.06-.15.1-.22-.02.02-.03.03-.04.02-.01.04-.03.1-.06.2Z"/><path class="g" d="M159.76,352.6s-.02-.01-.03-.02c-.15.06-.09.06.03.02Z"/><polygon class="g" points="167.1 342.67 167.09 342.66 167.08 342.68 167.1 342.67"/><path class="g" d="M167.24,343.19c-.22-.21-.2-.34-.15-.51l-.5.19.65.32Z"/><path class="g" d="M170.45,359.18v.37c-.41-.26-.44-.54-.51-.18.25-.09.42.18.55.48.11.3.23.61.5.55l-.04.25c-.02-.06-.05-.06-.06-.12-.06.28.1.3.27.38l1.69-.78c-.14-.02-.29-.07-.41-.31-.08-.2-.09-.37.04-.28l-.36-.32c-.06-.12.03-.14.1-.02l-.42-.58h.02c-.13-.04-.36-.17-.47-.24-.03-.19.1.05.13-.03-.11-.09-.21-.18-.31-.28.05-.21.31.02.44.25.27-.58-.28-.22-.39-1.07l.23.29c.16-.36-.08-.56-.1-1.01-.04.13-.03.96-.35.65-.02-.13-.08-.27-.28-.43.17-.09.02-.27-.12-.51l.24-.1c-.21-.23-.32-.15-.49-.27-.12-.32.04-.47.16-.61-.18-.51-.14.47-.44-.09-.09-.45-.32-.7-.68-1.14-.03-.33.16,0,.19-.14l-.28-.19c-.02-.07.05-.07.08-.07-.15-.19-.24.07-.44-.25-.3,0,.13-.86-.33-1.19.03-.13.17,0,.25-.06-.41-.53-.3-.47-.72-.89l.04-.48c-.1.37-.43.03-.71-.29-.06.14-.11.26-.13.33l-.29-.54c.02-.08.12-.04.25.02-.03-.03-.06-.06-.09-.09.03-.23.21-.16.39-.05-.03.08-.06.16-.09.24.19.1.39.19.53.12-.04-.03-.08-.09-.12-.17.05.03.09.04.11.02.02-.03-.05-.07-.14-.15l.24-.2h-.12c-.02-.26,0-.53,0-.79-.38-.47-.92-.85-1.19-1.7.24.18.34-.01.59-.04-.23.28.24.64.28,1.09-.02-.23.11-.21.16-.16l-.4-.74c.2-.02.12-.19.18-.41-.37.22-.35-.55-.52-.86.13-.04.28.02.3.42.24-.47-.55-.5-.35-.96.02.1,0,.15.08.18-.16-.21-.13-.78,0-.66v.1c0-.65-.14-1.96-.49-2.04.04,0,.42.06.49.1-.41-.36-.78-.74-1.18-1.12.29.09.98-.31,1.16.22.04-.15.08-.34-.03-.67-.04.1-.42.27-.45.12.32-.4.17-.28.44-.76-.06.16-.53-.02-.5-.27.07.04.45-.02.5.08l-.43-.63c.08.16.38.04.51-.1-.09.06.03-.53-.01-.7l-.11.26c.09-.69-.62-.73-.53-1.43.09.09.55.25.64-.1-.22-.18-1.05-.81-1.17-1.46l.15-.11-.09-.5c.29.34.94,1.25,1.19,1.72.13-.25.16-.06.18-.45.13-.12.17.23.17.34l.16-.89c-.27.01-.18-.72-.4-.71.05.34.09.68.16,1.01-.28.01-.7-.65-.56-1.3.13-.15.46.18.55.18-.08-.09-.1-.63-.02-.68l.11.29c.15-.34-.29-.64.05-1.02.04-.15.42-.38.27-.43-.34.19-1.29.08-1.49-.12.03-.05.43-.74.61-.88.28-.2.5.47.74.3-.07-.02-.14-.17-.15-.23.09-.14.21.11.24-.24-.27-.11.17-.68-.2-.2,0-.34.13-.34.2-.73-.2.09-.51-.47-.51-.82.06.03.17-.02.22-.05.16-.68.4-1,.56-1.63.08-.04.23-.32.31-.16-.02-.1-.09-.21-.05-.4.32-.31-.08.44.27.23-.15-.07-.08-.55-.09-.85-.26.02-.23.62-.2.92-.33-.09-.55-.66-.5-1.36.07-.54.28-.16.26-.27.34-.96-.31-1.01.19-1.74.31-.25.41.12.58.1-.06.44-.34.6-.43.88l.21-.32c.02.15-.02.45-.12.58.26-.21.56-1.62.99-2.29-.02-.15,0-.4-.13-.33l-.06.24c-.24.16-.07-.52-.25-.25,0-.35-.05-.77.2-1.18h.26c-.07-.01-.24.24-.22.39-.04-.22.56-.56.34-.87l-.28.24c0-.35-.08-.84.15-1.2-.3.09,0,.1-.38.27.42-.11-.41.99.09.74-.42.16-.31.44-.72.72.08.02.19-.08.04.24.02.02.03.07.04.1,0,0,0,.01-.01.02l.02-.02s0,.02,0,0c.06-.07.13-.12.18-.13.11.23-.08.75-.06.96-.11.18-.06-.11-.18-.03l.04.31c-.18-.03-.46.43-.4-.07l-.15.42c-.18.22-.33.55-.33.78-.1.19.02.56-.05.35l-.09.7h-.04c-.22.65-.12,1.42-.62,2.1-.01.24-.02.48-.17.84l-.17.04c-.03.3-.35.84-.22,1-.48.23-.41,1.4-.56,1.9l.2.06c-.07.35-.08.71-.07,1.16h.18c.08.4-.26.96-.33,1.57-.06-.05-.02-.2.03-.3-.51.68.11,1.56-.23,2.19.05.17.02.29-.04.4,0-.02,0-.03,0-.04,0,.02,0,.04,0,.07-.04.07-.08.15-.11.22.05-.07.09-.13.11-.19,0,.13,0,.32.03.51l-.2.07s0,.03,0,.04c-.08.18.09.15.23.06.03.1.06.19.11.26-.32.14.09.5-.25.69.16.13.09.95.43,1.05-.04,0-.07.06-.07-.04-.04.21-.07.42.03.61l-.24.09.34.45c-.14.28-.23.4-.42.13.31.66.11.54.43,1.09l-.16-.02c.02.2.26.51.14.64-.13.24-.1.8-.05,1.45.08.65.18,1.38.13,1.98.42-.3-.12.57.25.55-.09.09-.12.26-.26.09.23.57.01.92.4,1.26-.09.09-.18-.09-.24-.02.03.04.13.17.08.24-.05.07-.11-.07-.17-.15.14.6.49.58.82.54-.06.33,0,.48.26.64-.07.13-.13.33-.27-.02.04.21.21,1.3.46,1.24-.04.08.06.29.11.33.15.45.14.5.32.93v-.14c.35.07.19.34.35.68h-.03c.09.89.21.32.32,1.19l.16-.12c.41-.09.08.78.43,1.17l.03-.21c.24.18-.21.94-.12,1.2,0,.07-.1-.06-.16-.12.12.75.27-.03.57.41-.07.15-.37.05-.22.38,0,.21.88.71.89,1.27.04-.15.07-.29.27-.12.23.3.21,1.07.68,1.19,0,.06-.01.09-.03.1.21.18.55.62.79.73l2.52,1.17-1.61-1.59s-.04-.04-.07-.05c.54-.47-.88-1.63-.36-1.83l-.43-.82h.07c-.25-.55-.52-.64-.75-.74-.04-.14.06-.09.09-.09-.35-.81-.52-.83-1.19-1.18l.1-.19c-.1-.04-.27-.3-.53-.62-.24-.32-.58-.68-1.01-.82.02-.01.06-.03.13-.02-.23-.09-.44-.25-.64-.43-.2-.16-.42-.34-.62-.49-.4-.32-.78-.52-1.09-.25l-.64-.08c.7.37-.23.24.02.48-.29-.09-.65-.5-.28-.4l.04.06c.27-.32-.88-.44-.78-.68-1.49-.46-2.96-.94-4.42-1.09l.14.31c-.17-.02-.33-.06-.5-.07-.13-.07-.16-.24.2-.2-.18-.18-.62.1-.63.16-.7-.16.3-.32.08-.34h-.3s.06.04.06.04c-.25.1-.27.23-.71.19-.27-.07-.13-.18-.24-.2,0-.02-.04-.03-.17-.01l-.64-.04.25.24c-.28.11-.59-.02-.31.24-.43-.43-2.36-.1-2.62-.19-.38.19-.76.21-1.24.24.12.04.22.29-.19.3.1-.55-.77-.17-1.15-.5.33.22-1.16.21-.65.51-.35,0-.05-.2-.32-.29-.78.32-1.81.14-2.79.39,0,.07.18.15-.01.29l-.59-.24c-.19.07-.1.43-.51.26.06.05.16.12.03.17-2.02.07-3.85,1.17-5.96,1.13.3.05.13.12-.07.18.14,0,.05.17.1.25h-.88c-.07.29-.86.29-.86.56l.24-.13c-.24.39.68.48.74.86.27-.44,1.12.17,1.6-.47.16.04-.08.15.02.22.11-.2.29-.29.66-.32l-.03.05c.97-.31,1.43-.27,2.56-.43l-.13-.16c.24-.03.31.01.43.03.21-.34-.67.14-.5-.22.4.29,1.69-.39,2,0,.37-.08-.15-.19.22-.27l.12.1.06-.17c.25-.02.4.1.43.2-.06,0-.16.06-.22.08.34.08.87-.22.99-.2h-.37c.99-.31,2.25-.35,3.19-.72l-.09-.08c.73-.25.61.02,1.43-.15l-.03.02c.16-.1.37-.17.6-.18-.2.12.41.17.15.31.8-.25.39-.17.91-.54l.13.14c.18-.15.19-.22.6-.28-.33.15.28.21-.1.4.88.28,1.28-.36,1.68.09.4-.42-.75-.21-.53-.3-.19-.13.33-.32.6-.28.28.01.47.53,1.16.54-.07,0-.07.03-.14.02.25.1.51-.12.82.07.19-.24.41.04.48-.27l-.64.03c.36-.05.73-.42,1.32-.18-.05.06-.24.12-.36.16.17.1.34-.03.51.09-.08.3-.77-.01-1.18.21.17.15.74-.18.52.15.32-.42.66.13,1.16-.16l-.05.18c.08-.02.24-.09.37-.07l-.28.22c.4-.18.68.29,1.04.24-.73-.12-.12-.25-.41-.45.96-.07.45.55,1.45.7-.14,0-.48-.24-.25-.27.18.09.41.22.5.34.66.12-.05-.21.26-.26.16.28.35-.01.66.02l-.06.18c.69.36.32-.32.94.05l-.37.16c.12.02.25.03.37.05l-.15.18c.41,0,.51.09.83.3-.03-.16.19-.3.51-.16.15.22-.19.1.24.31-.15.05-.32.13-.42-.12-.05.05-.15.07-.2.11.17.21.52.32.67.39-.05-.04-.12-.08-.14-.13l.73.1c.06.11-.05.12-.15.13.14.04.25.04.43.14-.13.1-.21.24-.48.14l.61.22c0,.08.15.34.05.34.23.25.83.33,1.11.72.04,0,.1,0,.18.07.25.38.39.74.83,1.05l-.08.4c.27.3.08-.53.54-.01.34.37-.1.27-.09.45.22.14.67.4.66.9-.11-.11-.13-.23-.2-.35ZM170.99,357.19c.09.07.29.2.23.32-.25,0-.2-.13-.23-.32ZM167.59,349.6c.08.06.07.19.04.34-.05-.09-.06-.21-.04-.34ZM168.01,326.12h0c-.15.22-.09.15,0,0ZM168.25,325.66c0-.06-.04-.06-.07-.05.03.05,0,.16-.05.28.06-.02.11-.07.12-.23ZM158.25,351.21l.1.05c-.23.05-.16,0-.1-.05Z"/><path class="g" d="M168.09,350.46s-.06.05-.09.07c.04.03.08.02.09-.07Z"/><path class="g" d="M168.62,356.67h0s-.03,0-.04,0h.05Z"/><path class="g" d="M167.84,333.58c-.04.09-.09.14-.13.17.05.01.09-.02.13-.17Z"/><path class="g" d="M168.87,323.01l-.07.32c.05-.15.11-.19.17-.25-.04,0-.13.02-.09-.07Z"/><path class="g" d="M171.04,320.87c0-.05.04-.09.03-.14l-.09-.02c-.07.19-.06.34.05.17Z"/><path class="g" d="M169.58,322.97c.16.04.18-.17.24-.39,0,.01,0,.03-.01.04-.19-.15-.21.11-.23.36Z"/><path class="g" d="M169.83,322.52c.02-.07.04-.14.07-.2-.07-.06-.05.07-.07.2Z"/><path class="g" d="M168.36,325.02c.08-.09-.17-.13-.09-.17-.16-.18,0,.76.09.17Z"/><polygon class="g" points="170.14 322.99 169.92 323 170.03 323.17 170.14 322.99"/><path class="g" d="M169.37,324.6l.18-.32s-.04-.06-.03-.11c-.08.21-.2.42-.15.43Z"/><path class="g" d="M169.52,324.17c.04-.11.08-.21.07-.28-.02.06-.06.19-.07.28Z"/><polygon class="g" points="170.02 323.47 169.94 323.56 169.83 323.79 170.02 323.47"/><path class="g" d="M168.12,328.27l-.06.39c.05.06.13-.03.14-.18-.02-.1,0-.25-.08-.21Z"/><path class="g" d="M168.99,327.3c-.07.09-.12.08-.2.12l.23.09-.04-.2Z"/><path class="g" d="M168.72,328.4c.05.06.03.6.15.12-.05-.06,0-.45-.15-.12Z"/><polygon class="g" points="167.06 334.05 167.08 333.95 166.67 333.89 167.06 334.05"/><path class="g" d="M167.41,339.26c.13-.45-.24-.12-.09-.52-.09-.11-.13.33-.2.21.08.28.02.42.29.31Z"/><path class="g" d="M167.12,338.95s-.03-.09-.05-.14c.02.08.03.12.05.14Z"/><polygon class="g" points="140 354.03 139.69 354.05 139.92 354.12 140 354.03"/><path class="g" d="M139.54,354.51l-.15-.22-.1.28c.07-.04.19-.1.25-.06Z"/><path class="g" d="M171.07,356.24h-.07c-.04.08-.01.14.04.26l.02-.26Z"/><polygon class="g" points="172.88 359.69 172.85 359.63 172.72 359.87 172.88 359.69"/><path class="g" d="M169.58,358.6c.06.1.18.2.21.31-.14-.22.01-.48-.21-.31Z"/><rect class="e" x="334.61" y="350.44" width="1.44" height="49.33" transform="translate(-91.66 108.96) rotate(-16.27)"/><rect class="e" x="337.18" y="349.69" width="1.44" height="49.33" transform="translate(-91.34 109.65) rotate(-16.27)"/><rect class="e" x="411.44" y="328.02" width="1.44" height="49.33" transform="translate(-82.3 129.59) rotate(-16.27)"/><rect class="e" x="414.01" y="327.27" width="1.44" height="49.33" transform="translate(-81.99 130.28) rotate(-16.27)"/><rect class="e" x="339.76" y="348.94" width="1.44" height="49.33" transform="translate(-91.03 110.34) rotate(-16.27)"/><rect class="e" x="454.55" y="315.44" width="1.44" height="49.33" transform="translate(-77.05 141.16) rotate(-16.27)"/><rect class="e" x="457.13" y="314.69" width="1.44" height="49.33" transform="translate(-76.74 141.85) rotate(-16.27)"/><rect class="e" x="459.7" y="313.94" width="1.44" height="49.33" transform="translate(-76.42 142.54) rotate(-16.27)"/><rect class="e" x="462.27" y="313.19" width="1.44" height="49.33" transform="translate(-76.11 143.23) rotate(-16.27)"/><rect class="e" x="365.86" y="341.32" width="1.44" height="49.33" transform="translate(-87.85 117.35) rotate(-16.27)"/><rect class="e" x="368.43" y="340.57" width="1.44" height="49.33" transform="translate(-87.54 118.04) rotate(-16.27)"/><rect class="e" x="342.2" y="347.31" width="7.73" height="49.33" transform="translate(-90.35 111.84) rotate(-16.27)"/><rect class="e" x="372.75" y="338.39" width="7.73" height="49.33" transform="translate(-86.63 120.05) rotate(-16.27)"/><rect class="e" x="381.69" y="336.07" width="5.77" height="49.33" transform="translate(-85.66 122.18) rotate(-16.27)"/><rect class="e" x="429.85" y="322.02" width="5.77" height="49.33" transform="translate(-79.79 135.11) rotate(-16.27)"/><rect class="e" x="388.48" y="333.29" width="11.25" height="49.33" transform="translate(-84.5 124.74) rotate(-16.27)"/><rect class="e" x="405.97" y="329.18" width="4.45" height="49.33" transform="translate(-82.78 128.52) rotate(-16.27)"/><rect class="e" x="424.89" y="324.09" width="1.44" height="49.33" transform="translate(-80.66 133.2) rotate(-16.27)"/><rect class="e" x="427.46" y="323.34" width="1.44" height="49.33" transform="translate(-80.35 133.89) rotate(-16.27)"/><rect class="e" x="419.42" y="325.25" width="4.45" height="49.33" transform="translate(-81.15 132.14) rotate(-16.27)"/><rect class="e" x="352.08" y="343.67" width="12.88" height="49.33" transform="translate(-88.83 115.19) rotate(-16.27)"/><rect class="e" x="439.1" y="318.28" width="12.88" height="49.33" transform="translate(-78.24 138.55) rotate(-16.27)"/></svg>
