<?xml version="1.0" encoding="UTF-8"?><svg id="a" xmlns="http://www.w3.org/2000/svg" viewBox="0 0 566.93 566.93"><defs><style>.b{fill:#414c51;}.b,.c,.d,.e,.f,.g,.h,.i,.j,.k,.l{stroke-width:0px;}.c{fill:#e30613;}.e{fill:#e0e0e0;}.f{fill:#f5f5f5;}.g{fill:#fff;}.h{fill:#09f;}.i{fill:#fafafa;}.j{fill:#263238;}.m{opacity:.3;}.k{fill:#ebebeb;}.l{fill:#455a64;}</style></defs><path class="b" d="M506.79,281.76c.05,2.15.11,1.38.13,1.7-.11-3.6-.15-1.61-.13-1.7Z"/><polygon class="b" points="503.66 246.43 503.81 247.04 502.8 241.91 503.66 246.43"/><path class="b" d="M496.09,214.15c.4,1.52,1.2,4.42,2.14,7.63.23.81.47,1.63.71,2.46.25.83.48,1.67.66,2.5.38,1.67.76,3.29,1.09,4.73l.19.96.71,2.57c-.41-1.75-.85-3.63-1.3-5.54-.46-1.91-.86-3.87-1.44-5.72-1.07-3.72-2.06-7.17-2.76-9.61Z"/><path class="b" d="M490.39,197.39c.35,1.04-1.45-3.55,1.5,3.85-.14-.37-.18-.48-.26-.7-.26-.67-.62-1.59-1.24-3.15Z"/><path class="b" d="M491.63,200.54c1.29,3.25-.8-2.15,0,0h0Z"/><path class="b" d="M485.3,185.67l1.94,4.18c-.37-.89-2.05-4.63-1.4-3.25-1.97-4.3-1.6-3.4-.54-.93Z"/><path class="b" d="M483.35,181.76c.38.7.74,1.41,1.06,2.14-.16-.39-.4-.97-1.06-2.14Z"/><path class="b" d="M486.54,188.5l-2.13-4.6c.25.62.24.7.97,2.11-.21-.36.24.54,1.15,2.48Z"/><path class="b" d="M487.7,191.12c.53,1.18,1.11,2.54,1.29,3.09.18.55.11.23-.85-1.87,1.71,4.06,2.37,5.82,2.29,5.5-.05-.16-.3-.82-.74-1.96-.45-1.14-1.04-2.77-1.99-4.76Z"/><path class="b" d="M495.41,212.59c.36,1.09.72,2.18,1,3.3l.86,2.86c-.2-.72-.65-2.32-1.05-3.71-.41-1.39-.84-2.55-.81-2.45Z"/><path class="b" d="M471.67,160.42c-.18-.23.77,1.35.92,1.66.64.94,1.21,1.92,1.78,2.9-.81-1.56-2.62-4.33-2.7-4.56Z"/><path class="b" d="M472.59,162.08l-2.79-4.26c2.45,3.83,2.92,4.52,2.79,4.26Z"/><path class="b" d="M482.84,181.1l.98,1.85.89,1.89,1.77,3.79c-1.4-3.01-2.76-6.05-4.37-8.96l.74,1.43Z"/><path class="b" d="M460.7,144.35c.6.75,1.16,1.54,1.74,2.3l-1.53-2.07-1.63-1.99,1.42,1.75Z"/><path class="b" d="M452.64,134.28c1.44,1.58-1.84-2.28-.34-.59-2.32-2.63-4.28-4.9-6.13-6.86,1.95,2.1,3.9,4.45,6.47,7.45Z"/><path class="b" d="M443,123.59c1,1.02,2.04,2.08,3.17,3.23-1.06-1.08-2.11-2.15-3.17-3.23Z"/><path class="b" d="M464.97,150.62c-.21-.33-.61-.98-2.25-3.32l1.09,1.68c.35.5.75,1.06,1.16,1.63Z"/><path class="b" d="M463.85,149.04l-.04-.06c-1.26-1.77-2.13-3-2.5-3.53.32.45,1.09,1.53,2.54,3.59Z"/><path class="b" d="M465.26,151.03c-.11-.15-.19-.26-.29-.41.1.16.17.26.29.41Z"/><path class="b" d="M476.64,169.29c-1.53-2.57-4.68-7.94-1.74-2.68,1.12,1.83-.57-1.18,1.74,2.68Z"/><path class="b" d="M466.62,153.11c1.04,1.47,1.95,3.03,2.94,4.54-.04-.1-.54-.94.28.29-1.08-1.61-2.09-3.26-3.22-4.83Z"/><polygon class="b" points="465.06 150.97 466.62 153.11 465.46 151.48 465.06 150.97"/><path class="b" d="M449.19,130.48c-.77-.88-1.58-1.79-2.44-2.76-.88-.95-1.83-1.92-2.83-2.97,1.05,1.14,2.17,2.24,3.19,3.43,1.02,1.19,2.04,2.36,3.04,3.51.3.31,1.21,1.28-.96-1.22Z"/><path class="b" d="M456.55,139.32c-.1-.13-.23-.29-.32-.41.19.26.35.46.32.41Z"/><path class="b" d="M423.29,105.25c.12.11.22.2.33.31.03.02.05.03.09.06l-.42-.37Z"/><path class="b" d="M450.48,132.1c1.51,1.77,2.44,2.8,3.32,3.79-1.14-1.31-2.35-2.7-3.65-4.19-.14-.14-.16-.16.33.4Z"/><path class="b" d="M437.43,117.95c.43.42.9.88,1.38,1.35.46.49.95,1,1.44,1.53-.4-.43-.99-1.11-1.57-1.68-.57-.56-1.09-1.06-1.25-1.2Z"/><path class="b" d="M455.76,138.28c.07.09.14.17.22.27-.46-.61-.4-.53-.22-.27Z"/><path class="b" d="M455.76,138.28c-.75-.93-1.35-1.66-1.95-2.39.88,1.1,1.7,2.13,2.41,3.02-.17-.23-.34-.46-.47-.63Z"/><path class="b" d="M416.22,100.32c.19.09,1.49,1.07,3.26,2.44.88.69,1.89,1.45,2.91,2.3.99.87,2.01,1.78,3,2.65,3.96,3.35,1.57.94-1.76-2.14-.16-.05-.1-.13-4.35-3.37.71.61,3.07,2.4,4.65,3.88,1.62,1.44,2.63,2.36.91.91-2.66-2.33-3.82-3.2-4.59-3.82-.77-.63-1.19-.98-2.52-2.06,1.12.94-.67-.42-2.6-1.88-1.9-1.5-4.09-2.9-3.49-2.41,1.72,1.15,3.32,2.45,4.96,3.71.08.09-1.71-1.27-.37-.19Z"/><path class="b" d="M431.29,112.26l1.6,1.51c-.91-.86-1.65-1.64-2.53-2.42-.87-.78-1.82-1.64-3.05-2.74-2.79-2.37-3.39-2.84-3.59-2.99l4.09,3.55c1.35,1.2,2.77,2.32,4.04,3.6l-.55-.51Z"/><path class="b" d="M439.99,120.63c-.31-.3-.78-.76-1.27-1.23-.51-.46-1.04-.94-1.46-1.33-.84-.76-1.23-1.09-.1.06.58.55,1.07,1.02,1.49,1.41.4.41.73.75,1,1.03.55.56.89.9,1.17,1.19.57.57.92.9,2.27,2.28-7.2-7.52,2.1,2.13-3.06-3.35,1.42,1.48,2.69,2.8,3.9,4.06-1.28-1.37-2.52-2.68-3.69-3.93.06.07.11.12.16.18l.03.04h0c.3.33.4.44.05.07-.02-.03-.11-.12-.15-.16-.06-.04-.2-.17-.35-.32-2.07-2.2-.31-.36.35.32.03.02.09.08.1.08,0,0-.02-.02-.03-.03-1.18-1.28-2.45-2.47-3.72-3.66l-3.79-3.58c.8.76,1.7,1.62,2.84,2.72.57.54,1.21,1.15,1.92,1.82.72.67,1.51,1.43,2.34,2.33Z"/><path class="b" d="M471.9,161.93c-.17-.28-.16-.27-.16-.29-.37-.56-.52-.77.16.29Z"/><path class="b" d="M469.63,158.3c.42.63.79,1.14,2.11,3.22,1.13,1.81-.04.01,0,.12.84,1.23,2.8,4.38.38.4l-.41-.61c-2.24-3.55-5.06-8.14-4.65-7.53.6,1.07,1.13,2.01,2.58,4.4Z"/><path class="b" d="M455.58,138.49c-1.75-2.3-3.7-4.44-5.6-6.63l2.84,3.39-.11-.2c.82.92,1.35,1.6,1.72,2.08.38.47.6.74.73.91.28.33.22.22.43.45Z"/><path class="b" d="M422.57,104.57l.93.68c-1.27-1.09-2.66-2.03-3.99-3.05l3.06,2.37Z"/><path class="b" d="M413.69,97.59l.38.19c-.8-.6-1.63-1.14-2.45-1.71l2.07,1.51Z"/><path class="b" d="M76.15,401.14l1.29,2.19c-.61-1.04-1-1.7-1.29-2.19Z"/><path class="b" d="M67.39,384.96l-.24-.38c.41.75.58,1.05.24.38Z"/><path class="b" d="M152.86,86.22c-3.17,1.94-6.73,4.09-6.31,3.92l1.01-.54c2.18-1.42,3.86-2.48,5.3-3.38Z"/><path class="b" d="M47.96,237.93c.07-.35.14-.71.22-1.06.17-.88.33-1.72.48-2.46-.21,1.06-.52,2.25-.7,3.52Z"/><path class="b" d="M47.85,240.57l-.91,4.8c.21-1.08.5-2.62.91-4.8Z"/><path class="b" d="M144.35,473.89c.82.55,1.64,1.11,2.5,1.6-3.84-2.59-2.16-1.44-2.5-1.6Z"/><path class="b" d="M307.92,53.92c-3.18-.43-5.71-.76-7.94-1.06,3.83.54,6.91,1,7.94,1.06Z"/><path class="b" d="M71.73,395.31c.79,1.35,1.14,1.92,1.13,1.87-.81-1.39-1.28-2.17-1.13-1.87Z"/><path class="b" d="M290.74,52.08c.56.05,1.12.1,1.69.15,1.17.08,2.34.17,3.58.25,1.24.1,2.54.16,3.96.37-1.41-.23-2.94-.32-4.5-.45-1.56-.12-3.16-.23-4.73-.32Z"/><path class="b" d="M466.38,412.64c.15-.22.32-.49.46-.69.03-.07-.16.24-.46.69Z"/><path class="b" d="M504.62,314.36c-.13,1.04-.34,2.74-.55,4.34.1-.78.26-2.09.55-4.34Z"/><path class="b" d="M374.89,74.08c2.16,1.03.36.13,0,0h0Z"/><path class="b" d="M385.11,79.66c-.46-.22-.81-.39-.87-.4.19.07.49.21.87.4Z"/><path class="b" d="M266.93,52.22c-.07,0-.13,0-.21,0,.71,0,.59,0,.21,0Z"/><path class="b" d="M378.09,75.73c-.8-.42-1.72-.89-2.72-1.41.44.23,1.27.66,2.72,1.41Z"/><path class="b" d="M377.68,75.47c.73.38,1.31.68,1.86.96.28.12.04,0-1.86-.96Z"/><path class="b" d="M371.85,72.71c1.25.57,2.41,1.1,3.53,1.61-.43-.2-.6-.28-.49-.24-.64-.29-1.54-.7-3.04-1.37Z"/><path class="b" d="M305.24,512.61c.16-.02.34-.04.51-.06,2.38-.34,1.34-.2-.51.06Z"/><path class="b" d="M105.56,126.33c.08-.08.12-.13.19-.2-.08.08-.18.18-.25.25l.06-.05Z"/><path class="b" d="M99.91,132.77c2.33-2.81,3.62-4.44,5.59-6.39-.71.63-1.44,1.24-2.12,1.9l-3.46,4.49Z"/><path class="b" d="M102.12,436.66l-3.88-4.6c2.41,2.72,4.49,5.05,5.49,6.18,1.04,1.1.95,1.05-.85-1.12-.19-.12-1.24-1.28-2.73-2.96-1.47-1.69-3.44-3.85-5.2-6.18-1.81-2.29-3.62-4.58-5.01-6.34-1.32-1.81-2.25-3.07-2.43-3.2l-2.25-3.26c.66.92.77,1.07,1.42,1.98-4.38-6.34-3.45-4.58-8.81-12.95-1.8-2.96-2.9-5.11-1.72-3.07l-3.9-6.66c-.57-.97-.73-1.36-.66-1.24.07.13.42.72.97,1.69-1.02-1.68-1.84-3.47-2.76-5.2l-2.69-5.23.05.07c-.82-1.47-2.38-4.94-3.2-6.61-1.2-2.74.64,1.36.36.64-.9-1.98-1.87-3.93-2.71-5.93-.45-1.25-.18-.62.44.84.66,1.44,1.69,3.69,2.63,5.73-1.13-2.83-1.71-4.05-2.64-6.08-.83-2.07-2.07-4.93-4.33-11.09.69,1.93,1.5,3.81,2.25,5.72-.33-.94-.69-1.92-1.08-2.96s-.84-2.15-1.21-3.37c-.8-2.43-1.72-5.22-2.8-8.52.48,1.57,4.23,13.26,1.9,6.59-.64-1.89-1.47-4.37-2.7-7.99.04-.03-.2-.94-.61-2.4-.42-1.46-.99-3.48-1.63-5.72l.21.27c-.35-1.21-.63-2.09-.81-2.78-.18-.69-.3-1.19-.42-1.63-.23-.87-.39-1.5-.77-2.93-1.25-5.48-1.43-6.63-1.55-7.95-1.56-8.85.94,6.14-.96-4.33-.32-1.84-.62-3.55-.91-5.21-.22-1.67-.43-3.29-.65-4.96-.43-3.34-1-6.85-1.3-11.32-.35-5.23.15.91.04-.97l-.45-4.62c-.08-1.13-.02-.77,0-.58-.25-3.9-.17-.31-.38-6.46-.05-.41-.08-1.41-.1-2.79-.01-.69-.02-1.48-.03-2.33,0-.43-.01-.88-.02-1.34.02-.46.04-.94.05-1.42.07-1.95.14-4.09.21-6.21.08-2.12.06-4.24.21-6.14.18-1.87,0,.91.1.34.34-5.21.49-7.44.62-9.44.15-2,.4-3.75.86-8.02l.5-3.62c.16-1.21.44-2.4.65-3.6-1.04,5.27.05-1.5,1.02-7.44-.38,1.87-.7,3.47-.92,4.54l.81-4.74c.26-1.58.67-3.13,1-4.7.28-1.13.11-.17-.19,1.37.14-.64.27-1.25.37-1.72.82-3.34.49-1.58,0,.83-.29,1.13-.57,2.26-.85,3.35-.34,2.35-.65,4.55-.49,4.08.1-.62.3-1.8.52-3.1-.09.61-.14,1.01-.08.73.09-.31.17-1.32.52-2.85l.63-2.09.06-.53,1.45-6.1c.22-1.02.52-2.02.81-3.03l.88-3.01c.58-2.17,1.14-4.27,1.71-6.41.67-2.11,1.36-4.27,2.1-6.58.37-1.16.76-2.35,1.16-3.6.42-1.24.94-2.51,1.44-3.86.52-1.34,1.06-2.75,1.63-4.24.57-1.49,1.16-3.07,1.92-4.68-1.36,3.27-.16.76-.12.98-.86,1.74-1.8,4.35-2.97,7.32-.56,1.5-1.22,3.07-1.79,4.75-.56,1.68-1.15,3.41-1.73,5.16,1.25-3.65,1.03-2.82.74-1.89,1.27-4.2,2.99-8.25,4.53-12.36,0,.16.27-.49.7-1.57.45-1.08,1.16-2.55,1.87-4.11-.63,1.14.35-1.11,1.76-4.26.35-.79.73-1.63,1.12-2.49.43-.84.86-1.7,1.29-2.54.85-1.68,1.65-3.26,2.25-4.46.21-.26-.31.91-3.31,6.72,3.46-6.33,3.91-8.48,7.62-14.52-.79,1.39-1.23,2.13-1.52,2.69.9-1.63,2.5-4.42,3.75-6.56,1.26-2.13,2.29-3.55,1.71-2.64l-.86,1.34c1.43-2.23,3.24-5.04,5.15-8.02,1.97-2.95,4.2-5.97,6.18-8.81.97-1.44,2.05-2.71,2.97-3.93.94-1.21,1.79-2.32,2.53-3.28,1.46-1.91,2.45-3.19,2.72-3.55.08-.07-.75,1.18-1.11,1.72,3.91-4.94,7.87-9.87,12.17-14.5-1.04,1.31,3.62-3.08-2.39,3.34.88-.91,1.85-1.92,3.08-3.19,1.22-1.27,2.63-2.84,4.57-4.66-1.27,1.16-3.23,2.83-1.56,1.18,2.39-2.18,3.22-2.94,4.18-3.82.48-.44.99-.92,1.75-1.63.76-.7,1.74-1.65,3.29-2.91-1.97,1.67.04-.38,3.13-3.05-.46.44.4-.05-.71.94l3.76-3.41c1.26-1.13,2.6-2.17,3.9-3.25-1.97,1.6-.23.42,1.59-.93-.43.31,1.3-1.05,3.39-2.69,2.13-1.59,4.72-3.36,5.8-4.17l-3.54,2.45c2.34-1.65,4.07-2.91,5.5-3.96.72-.52,1.35-1.01,1.96-1.44.62-.42,1.2-.82,1.79-1.22,1.17-.79,2.34-1.58,3.8-2.57,1.48-.96,3.22-2.2,5.71-3.57-1.17.73-2.8,1.94,2.23-.92.56-.36,1.46-.93,2.63-1.67,1.17-.73,2.59-1.68,4.3-2.59,1.7-.94,3.6-1.98,5.62-3.09,1.02-.54,2.05-1.15,3.16-1.66,1.11-.52,2.23-1.04,3.37-1.58l1.79-.74c2.34-1.08,4.66-2.21,7.07-3.13-2.24.88-6.33,2.97-10.75,5.09-2.23,1.02-4.41,2.31-6.51,3.42-2.08,1.14-4.05,2.17-5.66,3.08,3.82-1.94,1.09-.49,6.8-3.42,2.04-.98-3.07,1.68-4.75,2.54l6.66-3.39,1.66-.85,1.7-.77,3.41-1.53c-.33.08,2.26-1.13,4.86-2.34,2.65-1.1,5.32-2.17,5.04-2.12-5.06,1.92-9.91,4.34-14.83,6.58-.33.07,1.77-.98,5.16-2.59.85-.4,1.78-.84,2.77-1.31.99-.46,2.04-.98,3.17-1.41,2.25-.9,4.68-1.86,7.14-2.85,2.53-.94-1.79.96-1.57.92.32-.13,1.06-.44,2-.82.95-.39,2.1-.86,3.27-1.23,2.33-.8,4.61-1.58,5.08-1.72l-4.23,1.51c2.8-.92,5.06-1.73,7.47-2.59,2.42-.83,5.03-1.52,8.45-2.45,1.18-.31,2.93-.83,4.48-1.14,1.54-.32,2.83-.6,3.03-.68-3.92.75-4.8.46-2.23-.25.42-.09,3.56-.78,6.95-1.51.85-.18,1.7-.38,2.54-.54.84-.14,1.66-.27,2.42-.4,1.51-.24,2.77-.44,3.46-.55,3.99-.59-5.91,1.35-2.51.84.14-.06,2.32-.5,3.23-.68,2.53-.42-1.03.3,4.46-.7.9-.27,11.26-1.43,2.6-.46,2.71-.35,4.15-.53,5.71-.73,1.56-.18,3.23-.44,6.43-.64-1.02.03.41-.15,2.77-.4,1.19-.12,2.61-.26,4.07-.4.73-.06,1.48-.15,2.21-.19.73-.03,1.45-.05,2.14-.08-.32.04.91.06,1.51.06,2.8-.06,5.28-.12,7.58-.17,2.3.03,4.43.12,6.53.17,2.1.08,4.19.09,6.39.22,2.2.17,4.53.35,7.13.55.96.09,5.98.56,3.83.42,1.49.15,2.87.29,6.06.69,6.17.9-7.13-.89-2.43-.15.21-.01,2.27.22,4.86.53,1.29.17,2.72.28,4.1.53,1.37.23,2.71.46,3.84.65-.34-.09-1.17-.26-2.28-.46-1.11-.2-2.51-.48-4.03-.63-3.03-.36-6.45-.76-8.73-1.03,0-.04.5-.02,1.41.05s2.25.2,3.92.38c1.67.2,3.69.35,5.95.7,2.26.38,4.77.8,7.47,1.26,2.14.37,3.44.6,4.2.81.76.18,1,.25,1.02.27.04.04-.8-.12-.06.04,3.98.9,6.81,1.55,9.04,2.05,2.2.59,3.8,1.01,5.31,1.41,1.52.41,2.95.79,4.81,1.29,1.87.51,4.11,1.35,7.32,2.45,5.06,1.83.16.28,1.26.74-3.35-1.13-5.92-2-8.23-2.77-2.33-.68-4.39-1.28-6.69-1.95l5.66,1.66c-2.17-.58-6.72-1.84-9.19-2.58,1.09.32,3.28.96,6.15,1.79,1.44.41,3.04.88,4.76,1.37,1.7.58,3.51,1.19,5.38,1.82,1.87.65,3.81,1.26,5.72,1.97,1.9.75,3.81,1.51,5.67,2.24,1.85.76,3.69,1.4,5.36,2.19,1.67.77,3.25,1.49,4.68,2.15,2.05.89,5.58,2.44,3.94,1.65l-3.63-1.63c-3.3-1.59,6.88,2.98,2.3.87.61.27,1.23.54,1.87.82.62.3,1.25.61,1.89.93,1.28.64,2.61,1.3,4,2,1.39.7,2.83,1.44,4.35,2.21,1.48.85,3.02,1.75,4.65,2.69l1.16.81c-.12-.11-4.22-2.52-6.08-3.53,1.38.74,3.85,2.23,6.38,3.7,1.26.74,2.53,1.48,3.67,2.15,1.11.71,2.1,1.33,2.85,1.76-1.47-.96-2.91-1.98-4.44-2.85,1.19.63,2.39,1.39,3.64,2.18,1.26.78,2.57,1.6,3.91,2.44,1.33.85,2.74,1.67,4.08,2.62,1.34.95,2.7,1.92,4.06,2.89-2.41-1.85-1.25-.9-5.06-3.73,3.38,2.35-14.39-9.2-8.91-5.5-2.05-1.31-3.88-2.35-5.86-3.51-1.98-1.15-4.1-2.44-6.93-3.91.16.13,1.97,1.1-3.01-1.48-.23-.11-.77-.37-1.11-.53-.15-.08-.21-.11-.34-.18.1.05.17.09.27.15-.22-.11-.24-.11.1.05,1.18.62,2.13,1.14,2.51,1.36-1.27-.57-3.85-1.95-6.53-3.19-2.7-1.2-5.42-2.4-6.8-3.02-3.02-1.39,1.29.53-.35-.26l-2.06-.89-2.1-.8c-.38-.25-8.16-3.38-.85-.55l-6.56-2.59c-1.92-.8-4.28-1.53-6.53-2.32-2.27-.75-4.44-1.55-6.13-2.01-3.2-.93-8.11-2.2-5.3-1.48-1.78-.49-3.55-1.01-5.33-1.46l-5.39-1.22-.09-.04c-5.29-1.35-10.86-2.15-16.57-3.19-5.77-.7-11.71-1.61-17.93-2.04-1.83-.13-3.7-.25-5.87-.4-2.18-.06-4.66-.12-7.73-.2l-1.2-.11c-2.36-.12-5.9.01-9.1.07-3.2.07-6.08.11-7.08.28-1.27.04-3.34.17-5.85.35-1.25.09-2.62.19-4.06.3-1.43.14-2.92.36-4.44.55-1.52.2-3.06.4-4.59.59-1.52.2-3.04.36-4.47.66-2.87.51-5.5.98-7.54,1.35l-.29.15c-.7.13-1.4.25-2.1.38-.69.16-1.38.32-2.08.48-1.39.32-2.79.65-4.24.99-1.44.34-2.93.69-4.49,1.06-1.55.41-3.14.9-4.85,1.38l.44-.03c-2.92.9-6.74,1.83-10.86,3.29-2.07.69-4.25,1.41-6.49,2.16-2.21.81-4.44,1.72-6.69,2.6.6-.27,2.88-1.16,4.5-1.78-10.94,3.76-22.34,9.73-31.55,14.67-2.25,1.33-3.89,2.26-5.49,3.15.21-.12.4-.23.56-.33-.23.13-.58.33-.93.53-1.02.54-2.03,1.16-3.11,1.85.93-.57,1.81-1.14,2.62-1.56-1.74,1.01-4.27,2.72-6.79,4.34l-1.13.61c-.2.13-.37.24-.58.38-2.49,1.56-1.96,1.31-.6.53-1.28.8-2.36,1.66-3.23,2.29-1.02.63-2.61,1.77-4.29,2.98-.84.6-1.71,1.22-2.53,1.8-.81.6-1.56,1.19-2.22,1.65-.77.66-3.71,2.99-6.61,5.3-2.79,2.44-5.52,4.86-6.07,5.45-.09.05-.76.62.45-.44-2.58,2.12-4.97,4.44-7.1,6.54l-1.11.89-2.58,2.57-2.46,2.69c-3.1,3.15-4.4,4.45-1.44,1.2-1.8,1.94-3.07,3.31-4.05,4.37-.94,1.1-1.6,1.88-2.24,2.62-1.25,1.49-2.43,2.8-5.27,6.29l.21-.4c-1.99,2.54-5.09,6.65-6.34,8.14-1.11,1.42-2.92,3.98-5.23,7.2-.57.81-1.2,1.65-1.8,2.56-.59.92-1.2,1.87-1.84,2.86-1.27,1.97-2.61,4.07-4.01,6.25-5.28,8.88-10.75,19.28-14.43,27.78.86-1.58-.1.35-1.17,2.81-1.02,2.49-2.24,5.48-2.29,5.86-.45.98-1.42,3.37-.37.57-.43,1.1-.83,2.13-1.21,3.11-.36.98-.66,1.92-.97,2.81-.61,1.77-1.15,3.37-1.67,4.87-.49,1.51-1.05,2.91-1.42,4.38-.39,1.46-.78,2.92-1.21,4.5-.35,1.03.47-1.97.18-1.05-.2.73-.77,2.9-1.07,3.84-.29.92.33-1.34.72-2.79-.64,2.33-1.14,4.13-1.53,5.54-.31,1.43-.52,2.46-.66,3.21-.28,1.51-.3,1.94-.3,2.3-.58,2.37-1.02,4.15-1.38,5.78-.29,1.64-.52,3.11-.78,4.86-.35,1.66-.9,4.45.13-1.45-.15.83-.46,2.51-.83,4.57-.19,1.03-.39,2.16-.6,3.32-.15,1.17-.31,2.38-.46,3.56-.6,4.73-1.17,9.09-1.04,9.28-.11,1.05-.37,4.7-.42,5.58-.15,1.89-.26,3.34-.35,4.58-.08,1.24-.07,2.27-.11,3.28-.05,2.04-.1,4.06-.19,7.78l.07-2.06c0,2.93.02,6.17.19,12.16l-.02-.17c0,3.43.22,5.51.32,6.92.11,1.41.17,2.14.23,2.87.06.73.11,1.45.22,2.83.05.69.12,1.55.2,2.66.13,1.1.29,2.45.49,4.13v-.74c.18.61.53,3.59.97,7.39.57,3.78,1.35,8.36,2.09,12.22-.17-.93-.3-1.87-.46-2.8.35,2.12,1,5.05,1.59,7.99.61,2.94,1.12,5.91,1.76,7.98.25.91-.46-1.41-.78-2.69,2.91,10.92.51,1.38,2.82,9.47.18.76,0,.29-.03.31-.02.01,0,.15.13.62.12.47.33,1.29.8,2.63.43,1.34,1.78,5.23,3.37,9.68.88,2.19,1.82,4.53,2.72,6.76.44,1.12.87,2.21,1.28,3.26.45,1.02.87,1.99,1.26,2.88-.65-1.57-1.3-3.13.34.41,2.37,5.5,6.75,14.73,9.59,19.35.37.67.5.92.5.96.58.99,1.34,2.29,2.17,3.71.83,1.43,1.72,3,2.7,4.44,1.91,2.93,3.69,5.66,4.47,6.8.46.96,1.83,2.82,3.47,5.17,1.66,2.34,3.62,5.15,5.72,7.68,2.07,2.55,3.97,5.07,5.49,6.83,1.52,1.76,2.48,2.91,2.4,2.94,1.55,1.76,3.05,3.58,4.65,5.29l4.87,5.09-.28-.24c.78.82,1.49,1.57,2.15,2.26.67.68,1.32,1.27,1.9,1.83,1.18,1.11,2.15,2.02,3,2.82,1.71,1.57,2.84,2.68,4.06,3.69,1.56,1.38.39.4.25.3,4.96,4.32,7.63,6.76,10.33,8.76,1.32,1.02,2.6,2.01,4.09,3.16.75.56,1.53,1.21,2.45,1.84.92.63,1.93,1.33,3.06,2.12l.88.75c2.35,1.84,15.62,10.91,27.18,16.7-.12-.05-.36-.15-1.28-.61,6.45,3.34,14.28,7.13,21.27,9.95,1.75.7,3.44,1.37,5.02,2,.79.31,1.56.61,2.29.9.75.25,1.47.49,2.15.72,2.73.91,4.89,1.59,6.17,1.93l2.28.75c.76.23,1.54.43,2.31.64l4.62,1.27c-11.91-3.41,1.82.35-3.07-1.1,2.34.65,5.36,1.54,7.08,2.06.86.25,1.4.37,1.36.38-.02,0-.19-.03-.53-.1-.35-.06-.86-.2-1.58-.41l-.9-.27c-.54-.1.11.11,1.39.49,1.28.37,3.22.78,5.21,1.26,1.99.47,4.03.94,5.56,1.3,1.52.38,2.55.51,2.46.55,3,.54,5.99,1.07,8.97,1.6,2.99.48,5.99.79,8.98,1.2,1.49.17,2.98.43,4.47.53,1.49.12,2.99.23,4.47.35,1.49.12,2.97.23,4.46.35.74.05,1.48.13,2.22.16l2.22.06c2.96.08,5.91.16,8.85.24,2.94-.01,5.86-.12,8.77-.18,1.46-.05,2.91-.04,4.36-.14,1.45-.11,2.89-.22,4.33-.32,1.44-.11,2.87-.22,4.31-.32,1.43-.1,2.86-.21,4.27-.41-.88.06-1.75.15-2.63.14,2.64-.25,5.27-.64,7.91-.95,2.08-.23,2.8-.24-2.84.47,1.49-.15,3.85-.47,5.86-.75,2.02-.25,3.65-.68,3.73-.68,10.97-1.9-4.25.93-.89.34l4.56-.83-1.03.17c1.84-.37,2.85-.57,4.23-.84.69-.13,1.48-.28,2.51-.48,1.02-.24,2.29-.53,3.96-.92,4.22-.94,2.18-.41,3.84-.79,0,0,.14-.02.52-.11.39-.09,1.03-.24,2.02-.47,3.24-.84,6.45-1.8,9.68-2.7l-3.9.99c2.14-.62,4.4-1.28,5.58-1.62.59-.17.89-.3.78-.27-.11.03-.65.18-1.77.46,3.27-.91,12.2-3.76,20.55-7.23,2.12-.78,4.13-1.76,6.07-2.63,1.93-.87,3.75-1.7,5.38-2.43,3.22-1.54,5.59-2.83,6.54-3.27,1.38-.73,2.75-1.45,4.15-2.18,1.36-.79,2.74-1.58,4.15-2.4,2.82-1.65,5.85-3.29,9.02-5.41-1.61,1-2.63,1.5,2.91-2.03-.47.38-.07.17.87-.4.94-.57,2.43-1.48,4.04-2.65,1.63-1.14,3.45-2.42,5.14-3.61.85-.59,1.66-1.16,2.4-1.67.72-.54,1.36-1.02,1.9-1.42-1.91,1.42,1.76-1.48,5.16-4.17,1.73-1.31,3.25-2.73,4.06-3.44.8-.72.83-.78-.6.4,4.16-3.57.32-.14,3.5-2.82,9.75-8.67,20.9-19.84,30.73-32.66.13-.22-1.58,1.87.51-.88,1.85-2.16,3.47-4.5,5.18-6.76.92-1.3,1.3-1.93,1.89-2.82.3-.44.65-.95,1.12-1.64.46-.7,1.05-1.6,1.86-2.82-.47.68-1.17,1.68-.02-.12,8.71-13.18,16.14-27.63,21.99-42.74,5.86-15.11,10.14-30.89,12.85-46.72-.83,4.27-.33,1.42.25-1.85-.39,2.12-.08-.06-.2.35.33-2.21.62-4.44.93-6.65l.46-3.33c.16-1.11.31-2.22.38-3.34.03-1.23.3-4.82.56-8.28.16-1.73.2-3.43.22-4.79.03-1.36.04-2.37.01-2.72l-.08,4.25c-.02-2.83-.11-.85-.32,1.72-.28,2.57-.62,5.73-.68,5.31-.08,1.58-.21,3.41-.38,5.42-.22,2.01-.56,4.2-.87,6.51-.16,1.16-.32,2.35-.49,3.56-.08.61-.16,1.22-.25,1.84-.11.61-.22,1.23-.33,1.85-.45,2.49-.88,5.04-1.28,7.6-.44,2.25.28-1.93.02-.74-.31,2.62-1.09,5.7-2.43,11.43l.13-.65c-.23,1.01-.45,1.98-.67,2.92-.24.93-.51,1.83-.75,2.7-.5,1.74-.96,3.38-1.41,4.96-.47,1.57-.83,3.1-1.36,4.56-.5,1.46-.99,2.91-1.49,4.36-.5,1.46-1,2.93-1.53,4.45-.51,1.53-1.19,3.06-1.83,4.7-.65,1.64-1.34,3.37-2.09,5.23-.19.46-.37.94-.57,1.42-.21.47-.43.95-.66,1.44-.45.98-.91,1.99-1.39,3.05l.65-1.21c-1.68,3.61-2.03,4.38-2.82,6.07-1.76,4.23,4.62-10.2,3.05-6.34-.59,1.19-1.61,3.38-2.83,6.06-.58,1.35-1.36,2.75-2.11,4.23-.76,1.48-1.54,3.01-2.32,4.52-.39.76-.78,1.51-1.16,2.26-.4.73-.82,1.44-1.22,2.14-.81,1.39-1.57,2.7-2.25,3.88-1.37,2.35-2.43,4.17-2.99,4.87-3.31,5.16,1.06-1.46-2.25,3.71l-.93,1.34-.77,1.35c-.55.84-1.01,1.59-1.46,2.21-.45.61-.83,1.12-1.13,1.54-.62.82-.96,1.25-1.02,1.3.56-.8,1.6-2.27,2.2-3.12-1.54,2.1-3.66,5.1-5.54,7.76-.91,1.35-1.88,2.51-2.62,3.48-.76.96-1.33,1.69-1.61,2.04,1.22-1.54,2.46-3.06,3.65-4.62-1.25,1.68-2.6,3.35-3.95,5.08-.68.86-1.36,1.73-2.05,2.61l-1.04,1.32-1.1,1.28c-2.99,3.39-5.9,7-9.16,10.27-1.59,1.67-3.18,3.34-4.75,4.99-1.65,1.58-3.28,3.14-4.89,4.68-3.15,3.15-6.49,5.89-9.51,8.58l.96-.77c-1.16,1.02-2.14,1.89-3.02,2.63-.9.71-1.66,1.31-2.33,1.84-1.36,1.06-2.36,1.84-3.4,2.65-1.05.79-2.08,1.67-3.61,2.75-1.52,1.08-3.47,2.47-6.23,4.44l.4-.29c-2.15,1.67-5.23,3.59-8.35,5.6,2.86-1.89-5.48,3.39-1.73.92-.7.45-1.34.87-1.92,1.24-.59.35-1.13.66-1.61.94-.96.56-1.71,1-2.31,1.35-1.19.71-1.78,1.06-2.25,1.34-.46.28-.81.5-1.5.93-.7.43-1.74,1.1-3.71,2.12l-1.85.87c-1.33.72-2.05,1.11-3.18,1.72-1.14.59-2.67,1.48-5.77,2.84,5.04-2.35-3.99,1.68,1.65-.96-3.26,1.43-6.08,2.69-8.58,3.83-2.53,1.07-4.77,1.93-6.77,2.75-2.01.78-3.76,1.58-5.46,2.12-1.69.57-3.27,1.07-4.83,1.54-3.06,1.14-.14.18,3.12-.91,3.28-1.02,6.76-2.55,5.08-1.83,1.44-.53.2,0-1.92.87-2.15.79-5.21,1.82-7.33,2.53-1.08.35-2.08.67-3.14,1.02-1.06.34-2.22.59-3.57.95-1.35.36-2.91.77-4.82,1.28-.95.26-1.99.55-3.14.86-1.16.27-2.43.56-3.82.87,1.11-.26,1.18-.28,2.28-.54-2.09.46-4.12.94-6.28,1.45-1.08.25-2.19.51-3.34.78-1.17.2-2.39.41-3.69.63-2.87.64-6.7,1.19-7.51,1.5l10.31-1.88c-2.91.56-5.75,1.1-9.05,1.74-1.65.36-3.44.53-5.41.81-1.98.24-4.14.51-6.58.81.75-.13,3.64-.54,5.62-.81-1.42.16-2.79.34-4.17.52-1.38.19-2.77.38-4.25.44.21-.07,1.11-.11,2.43-.3,1.32-.17,3.07-.4,4.99-.65,1.92-.25,4.01-.52,6.02-.78,1.99-.37,3.89-.73,5.45-1.03-1.52.21-4.47.85-6.67,1.15-2.21.3-3.64.48-2.06.19-2.26.4-5.06.75-8.24,1.14-3.2.25-6.79.49-10.64.87l.5-.13c-1.22.15-3.75.25-6,.3l4.07-.23c-6.25.24-12.06.33-18.06.1,6.28.17,6.99.18,6.79.21-.2.04-1.31.12,1.35.08-1.94.1-3.53.02-4.87,0-1.34-.04-2.42-.07-3.34-.09-1.83-.06-3.01-.13-4.23-.19-1.23-.04-2.51-.21-4.57-.38-2.06-.17-4.89-.41-9.21-.77,2.34.24,8.79.75,5.12.53-1.64-.16-3.56-.25-5.3-.49-1.74-.25-3.32-.47-4.33-.61-11.41-1.43,1.74.32-3.12-.24-3.88-.55-5.59-.82-10.57-1.64l-.02-.1c-1.61-.29-2.88-.52-3.87-.7-.99-.22-1.72-.38-2.27-.5-1.1-.24-1.49-.3-1.84-.36-.7-.11-1.24-.19-6.98-1.55l4.89.99c-2-.47-4.01-.85-5.99-1.4.42.07.83.18,1.25.22-3.24-.84-5.35-1.45-7.44-2.04-1.05-.3-2.09-.6-3.26-.93-1.17-.34-2.45-.82-4-1.34,1.42.55-.87-.11-6.37-1.97-3.7-1.41,2.08.75-5.59-2.23.88.32,1.79.65,2.9,1.06.56.22,1.16.45,1.83.71.68.24,1.43.51,2.28.81.38.11,1.74.51,2.12.62-4.06-1.31-10.03-3.75-12.81-4.82,1.06.43,2.33.94,2.99,1.2-1.85-.72-3.72-1.4-5.57-2.15l-5.46-2.4c-1.7-.81-.33-.22,1.03.36-1.1-.49-2.04-.9-3.11-1.37-1.06-.47-2.28-.96-3.85-1.8.86.34.66.24,5.27,2.26-3.5-1.46-6.85-3.24-10.24-4.93-.34-.18-1.62-.87-2.65-1.43-1.05-.54-1.79-1.06-1.15-.69-2.73-1.56-6.08-3.48-9.66-5.52-1.74-1.1-3.54-2.23-5.34-3.37-1.79-1.15-3.63-2.26-5.29-3.52-.36-.25-1.08-.74-2.53-1.75-1.59-1.14-3.14-2.25-4.69-3.36-1.49-1.18-2.98-2.36-4.5-3.56-1.52-1.21-3.1-2.42-4.71-3.73-1.58-1.35-3.24-2.77-5.01-4.28-1.28-1.21-2.64-2.33-3.86-3.6-5.29-5,5.05,5.06-3.77-3.27-3.12-2.95-3.69-3.52-3.72-3.64-.04-.1.4.29-.62-.82-1.5-1.53-3.55-3.62-5.91-6.02-.29-.3-.59-.61-.9-.93-.29-.33-.58-.66-.87-1-.59-.68-1.19-1.37-1.81-2.08-1.21-1.42-2.48-2.9-3.76-4.4,1.72,1.97,3.06,3.52,4.66,5.36ZM56.81,359.69c.29.82.72,2.05,1.14,3.22.47,1.15.9,2.26,1.11,2.86-.42-.9-.75-1.72-1.12-2.65-.34-.94-.67-2.02-1.13-3.43ZM51.1,225.05c-.31,1.27-.77,3.21-1.3,5.41.38-1.6.75-3.42,1.3-5.41ZM350.57,64.24c-.07-.02-.12-.04-.18-.06-3.68-1.29-2.38-.83.18.06ZM358.16,67.05c.76.29.71.25.4.11-.54-.18-2.22-.86-4.16-1.61.53.21,1.5.63,3.76,1.49ZM330.44,508.56l-1.54.33c3.46-.83,2.5-.58,1.54-.33Z"/><path class="b" d="M47.87,240.22c-.1.48-.14.61-.18.72-.1.68-.09.69.18-.72Z"/><path class="b" d="M143.89,473.58l.22.16c.12.08.19.12.23.15l-.46-.3Z"/><path class="b" d="M234.96,55.91c-1.64.27-2.55.41-3.16.51-.08.04.66-.07,3.16-.51Z"/><path class="b" d="M396.65,85.94c-1.44-.96-2.97-1.77-4.47-2.64,2.18,1.25,2.96,1.69,4.01,2.41-.08-.08-.9-.64.46.23Z"/><path class="b" d="M432.05,113.61c.55.52,1.17,1.1,1.71,1.61l-.12-.18c-2.34-2.22-3.99-3.75-1.59-1.44Z"/><path class="b" d="M400.52,88.8c.15.14.91.65,2.02,1.36.56.35,1.2.76,1.89,1.21.67.47,1.39.98,2.14,1.5-.18-.13-.35-.25-.52-.37.47.26-.09-.16-1.16-.92-1.08-.75-2.74-1.75-4.36-2.78Z"/><path class="b" d="M407.26,93.36c.91.65,1.84,1.31,2.74,1.94.37.21-1.1-.8-2.74-1.94Z"/><path class="b" d="M367.69,70.9c1.56.73,1.03.35,1.9.78.9.35-1.73-.81-3.51-1.57-.88-.4-1.58-.63-1.49-.58.09.03.95.4,3.1,1.37Z"/><polygon class="b" points="402.85 90.61 401.81 89.82 400.05 88.79 402.85 90.61"/><path class="b" d="M378.1,76.22l5.15,2.67c-.07-.05.59.27,1.4.68-1.59-.82-3.25-1.67-4.51-2.32-1.25-.64-2.09-1.07-2.04-1.03Z"/><path class="b" d="M384.65,79.56c1.64.87,3.16,1.79,4.07,2.28-.88-.49-2.74-1.61-4.07-2.28Z"/><path class="b" d="M396.16,86.36c-.48-.31-.95-.64-1.44-.93l-3.54-2.05,2.51,1.46,1.25.73,1.22.79Z"/><path class="b" d="M319.28,56.21l-6.23-1.08c-.64-.08,1.05.24,3.38.65,1.5.24,3.81.64,2.86.44Z"/><path class="b" d="M337.81,60.93c-1.64-.49-1.74-.54-2.66-.84l-.22.07,2.88.77Z"/><path class="b" d="M319.89,56.63c-.63-.08-9.04-1.51-1.16-.11.32.04,2.04.32,2.96.49.46.1.72.15.51.1-.2-.06-.88-.22-2.31-.47Z"/><polygon class="b" points="225.3 57.45 226.87 57.08 226.6 56.93 225.3 57.45"/><path class="b" d="M148.57,90.2c6.33-3.98,1.41-1.09,7.17-4.63.76-.45-.48.19-1.62.94-1.16.73-2.32,1.46-1.58.96-3.78,2.48-5.79,3.74-3.97,2.73Z"/><path class="b" d="M152.54,87.47c.6-.4,1.24-.82,1.92-1.27-1.09.72-1.61,1.06-1.92,1.27Z"/><path class="b" d="M506.43,296.77c.17-1.6.16-3.22.23-4.83l-.15,3.11c0,.57-.06,1.14-.09,1.71Z"/><path class="b" d="M506.58,287.5l.16-1.14-.04-2.9c-.02,1.09-.06,3.21-.11,4.04Z"/><path class="b" d="M53.03,346.88l-.13-.34c.17.73.48,1.81,1.09,3.98l-.96-3.63Z"/><polygon class="b" points="79.43 406.24 78.82 405.29 79.86 407.12 79.43 406.24"/><path class="b" d="M113.85,448.59c-.8-.78-1.71-1.58-2.55-2.46-.84-.88-1.68-1.76-2.46-2.57,3.32,3.55,5.36,5.53,5.01,5.03Z"/><path class="f" d="M182.98,226.35h-78.41v240.2h78.41v-240.2Z"/><path class="i" d="M244.71,226.35h-61.97v240.2h61.97v-240.2Z"/><path class="e" d="M175.29,264.79h-66.51v18.72h66.51v-18.72Z"/><path class="f" d="M114.37,267.15h-3.73v14.33h3.73v-14.33Z"/><path class="i" d="M118.75,270.17c0,.23-.07.46-.2.66-.13.2-.31.35-.53.44-.22.09-.46.11-.68.07-.23-.05-.44-.16-.61-.32-.17-.17-.28-.38-.32-.61-.05-.23-.02-.47.07-.68.09-.22.24-.4.44-.53.19-.13.42-.2.66-.2.31,0,.62.12.84.35s.35.52.35.84Z"/><path class="i" d="M117.57,276.41c.65,0,1.18-.53,1.18-1.18s-.53-1.18-1.18-1.18-1.18.53-1.18,1.18.53,1.18,1.18,1.18Z"/><path class="f" d="M127.15,268.98h-3.66v11.01h3.66v-11.01Z"/><path class="f" d="M132.43,268.98h-3.66v11.01h3.66v-11.01Z"/><path class="f" d="M137.73,268.98h-3.66v11.01h3.66v-11.01Z"/><path class="f" d="M143.01,268.98h-3.66v11.01h3.66v-11.01Z"/><path class="f" d="M148.3,268.98h-3.66v11.01h3.66v-11.01Z"/><path class="f" d="M153.58,268.98h-3.66v11.01h3.66v-11.01Z"/><path class="f" d="M158.87,268.98h-3.66v11.01h3.66v-11.01Z"/><path class="f" d="M164.16,268.98h-3.66v11.01h3.66v-11.01Z"/><path class="f" d="M169.45,268.98h-3.66v11.01h3.66v-11.01Z"/><path class="f" d="M174.73,268.98h-3.66v11.01h3.66v-11.01Z"/><path class="e" d="M175.29,294.79h-66.51v18.72h66.51v-18.72Z"/><path class="f" d="M114.37,297.14h-3.73v14.33h3.73v-14.33Z"/><path class="i" d="M118.75,300.16c0,.23-.07.46-.2.66-.13.19-.31.35-.53.44-.22.09-.46.11-.68.07-.23-.05-.44-.16-.61-.32-.17-.17-.28-.38-.32-.61-.05-.23-.02-.47.07-.68.09-.22.24-.4.44-.53.19-.13.42-.2.66-.2.31,0,.62.12.84.35.22.22.35.52.35.84Z"/><path class="i" d="M117.57,306.4c.65,0,1.18-.53,1.18-1.18s-.53-1.18-1.18-1.18-1.18.53-1.18,1.18.53,1.18,1.18,1.18Z"/><path class="f" d="M127.15,298.98h-3.66v11.01h3.66v-11.01Z"/><path class="f" d="M132.43,298.98h-3.66v11.01h3.66v-11.01Z"/><path class="f" d="M137.73,298.98h-3.66v11.01h3.66v-11.01Z"/><path class="f" d="M143.01,298.98h-3.66v11.01h3.66v-11.01Z"/><path class="f" d="M148.3,298.98h-3.66v11.01h3.66v-11.01Z"/><path class="f" d="M153.58,298.98h-3.66v11.01h3.66v-11.01Z"/><path class="f" d="M158.87,298.98h-3.66v11.01h3.66v-11.01Z"/><path class="f" d="M164.16,298.98h-3.66v11.01h3.66v-11.01Z"/><path class="f" d="M169.45,298.98h-3.66v11.01h3.66v-11.01Z"/><path class="f" d="M174.73,298.98h-3.66v11.01h3.66v-11.01Z"/><path class="e" d="M175.29,324.79h-66.51v18.72h66.51v-18.72Z"/><path class="f" d="M114.37,327.13h-3.73v14.33h3.73v-14.33Z"/><path class="i" d="M118.75,330.13c0,.23-.07.46-.2.66-.13.2-.31.35-.53.44-.22.09-.46.11-.68.07-.23-.05-.44-.16-.61-.32-.17-.17-.28-.38-.32-.61-.05-.23-.02-.47.07-.68.09-.22.24-.4.44-.53.19-.13.42-.2.66-.2.31,0,.62.13.84.35.22.22.35.52.35.84Z"/><path class="i" d="M117.57,336.4c.65,0,1.18-.53,1.18-1.18s-.53-1.18-1.18-1.18-1.18.53-1.18,1.18.53,1.18,1.18,1.18Z"/><path class="f" d="M127.15,328.97h-3.66v11.01h3.66v-11.01Z"/><path class="f" d="M132.43,328.97h-3.66v11.01h3.66v-11.01Z"/><path class="f" d="M137.73,328.97h-3.66v11.01h3.66v-11.01Z"/><path class="f" d="M143.01,328.97h-3.66v11.01h3.66v-11.01Z"/><path class="f" d="M148.3,328.97h-3.66v11.01h3.66v-11.01Z"/><path class="f" d="M153.58,328.97h-3.66v11.01h3.66v-11.01Z"/><path class="f" d="M158.87,328.97h-3.66v11.01h3.66v-11.01Z"/><path class="f" d="M164.16,328.97h-3.66v11.01h3.66v-11.01Z"/><path class="f" d="M169.45,328.97h-3.66v11.01h3.66v-11.01Z"/><path class="f" d="M174.73,328.97h-3.66v11.01h3.66v-11.01Z"/><path class="e" d="M175.29,354.78h-66.51v18.72h66.51v-18.72Z"/><path class="f" d="M114.37,357.14h-3.73v14.33h3.73v-14.33Z"/><path class="i" d="M118.75,360.15c0,.23-.07.46-.2.66-.13.2-.31.35-.53.44-.22.09-.46.11-.68.07-.23-.05-.44-.16-.61-.32-.17-.17-.28-.38-.32-.61-.05-.23-.02-.47.07-.68.09-.22.24-.4.44-.53.19-.13.42-.2.66-.2.31,0,.62.12.84.35.22.22.35.52.35.84Z"/><path class="i" d="M117.57,366.4c.65,0,1.18-.53,1.18-1.18s-.53-1.18-1.18-1.18-1.18.53-1.18,1.18.53,1.18,1.18,1.18Z"/><path class="f" d="M127.15,358.97h-3.66v11.01h3.66v-11.01Z"/><path class="f" d="M132.43,358.97h-3.66v11.01h3.66v-11.01Z"/><path class="f" d="M137.73,358.97h-3.66v11.01h3.66v-11.01Z"/><path class="f" d="M143.01,358.97h-3.66v11.01h3.66v-11.01Z"/><path class="f" d="M148.3,358.97h-3.66v11.01h3.66v-11.01Z"/><path class="f" d="M153.58,358.97h-3.66v11.01h3.66v-11.01Z"/><path class="f" d="M158.87,358.97h-3.66v11.01h3.66v-11.01Z"/><path class="f" d="M164.16,358.97h-3.66v11.01h3.66v-11.01Z"/><path class="f" d="M169.45,358.97h-3.66v11.01h3.66v-11.01Z"/><path class="f" d="M174.73,358.97h-3.66v11.01h3.66v-11.01Z"/><path class="e" d="M175.29,384.78h-66.51v18.72h66.51v-18.72Z"/><path class="f" d="M114.37,387.13h-3.73v14.33h3.73v-14.33Z"/><path class="i" d="M118.75,390.14c0,.23-.07.46-.2.66-.13.19-.31.35-.53.44-.22.09-.46.11-.68.07-.23-.05-.44-.16-.61-.32-.17-.17-.28-.38-.32-.61-.05-.23-.02-.47.07-.68.09-.22.24-.4.44-.53.19-.13.42-.2.66-.2.31,0,.62.12.84.35.22.22.35.52.35.84Z"/><path class="i" d="M117.57,396.4c.65,0,1.18-.53,1.18-1.18s-.53-1.18-1.18-1.18-1.18.53-1.18,1.18.53,1.18,1.18,1.18Z"/><path class="f" d="M127.15,388.96h-3.66v11.01h3.66v-11.01Z"/><path class="f" d="M132.43,388.96h-3.66v11.01h3.66v-11.01Z"/><path class="f" d="M137.73,388.96h-3.66v11.01h3.66v-11.01Z"/><path class="f" d="M143.01,388.96h-3.66v11.01h3.66v-11.01Z"/><path class="f" d="M148.3,388.96h-3.66v11.01h3.66v-11.01Z"/><path class="f" d="M153.58,388.96h-3.66v11.01h3.66v-11.01Z"/><path class="f" d="M158.87,388.96h-3.66v11.01h3.66v-11.01Z"/><path class="f" d="M164.16,388.96h-3.66v11.01h3.66v-11.01Z"/><path class="f" d="M169.45,388.96h-3.66v11.01h3.66v-11.01Z"/><path class="f" d="M174.73,388.96h-3.66v11.01h3.66v-11.01Z"/><path class="e" d="M175.29,414.77h-66.51v18.72h66.51v-18.72Z"/><path class="f" d="M114.37,417.13h-3.73v14.33h3.73v-14.33Z"/><path class="i" d="M118.75,420.13c0,.23-.07.46-.2.66-.13.19-.32.34-.53.43-.22.09-.45.11-.68.06-.23-.05-.44-.16-.6-.33-.16-.17-.28-.38-.32-.61-.04-.23-.02-.47.07-.68.09-.22.24-.4.44-.53.19-.13.42-.2.66-.2.16,0,.31.03.46.09.14.06.28.15.39.26.11.11.2.24.26.39.06.14.09.3.09.46Z"/><path class="i" d="M117.57,426.39c.65,0,1.18-.53,1.18-1.18s-.53-1.18-1.18-1.18-1.18.53-1.18,1.18.53,1.18,1.18,1.18Z"/><path class="f" d="M127.15,418.95h-3.66v11.01h3.66v-11.01Z"/><path class="f" d="M132.43,418.95h-3.66v11.01h3.66v-11.01Z"/><path class="f" d="M137.73,418.95h-3.66v11.01h3.66v-11.01Z"/><path class="f" d="M143.01,418.95h-3.66v11.01h3.66v-11.01Z"/><path class="f" d="M148.3,418.95h-3.66v11.01h3.66v-11.01Z"/><path class="f" d="M153.58,418.95h-3.66v11.01h3.66v-11.01Z"/><path class="f" d="M158.87,418.95h-3.66v11.01h3.66v-11.01Z"/><path class="f" d="M164.16,418.95h-3.66v11.01h3.66v-11.01Z"/><path class="f" d="M169.45,418.95h-3.66v11.01h3.66v-11.01Z"/><path class="f" d="M174.73,418.95h-3.66v11.01h3.66v-11.01Z"/><path class="e" d="M175.29,444.76h-66.51v18.72h66.51v-18.72Z"/><path class="f" d="M114.37,447.12h-3.73v14.33h3.73v-14.33Z"/><path class="i" d="M117.57,451.32c.65,0,1.18-.53,1.18-1.18s-.53-1.18-1.18-1.18-1.18.53-1.18,1.18.53,1.18,1.18,1.18Z"/><path class="i" d="M117.57,456.38c.65,0,1.18-.53,1.18-1.18s-.53-1.18-1.18-1.18-1.18.53-1.18,1.18.53,1.18,1.18,1.18Z"/><path class="f" d="M127.15,448.95h-3.66v11.01h3.66v-11.01Z"/><path class="f" d="M132.43,448.95h-3.66v11.01h3.66v-11.01Z"/><path class="f" d="M137.73,448.95h-3.66v11.01h3.66v-11.01Z"/><path class="f" d="M143.01,448.95h-3.66v11.01h3.66v-11.01Z"/><path class="f" d="M148.3,448.95h-3.66v11.01h3.66v-11.01Z"/><path class="f" d="M153.58,448.95h-3.66v11.01h3.66v-11.01Z"/><path class="f" d="M158.87,448.95h-3.66v11.01h3.66v-11.01Z"/><path class="f" d="M164.16,448.95h-3.66v11.01h3.66v-11.01Z"/><path class="f" d="M169.45,448.95h-3.66v11.01h3.66v-11.01Z"/><path class="f" d="M174.73,448.95h-3.66v11.01h3.66v-11.01Z"/><path class="e" d="M149.92,264.79c-.05-.19-.08-.38-.07-.57,0-.38,0-.93-.07-1.67-.07-.74,0-1.61-.08-2.63-.03-1.15-.18-2.29-.45-3.41-.38-1.33-.98-2.58-1.78-3.7-.91-1.3-2.17-2.31-3.64-2.92-1.66-.6-3.4-.95-5.16-1.05l-5.74-.49c-7.84-.68-14.97-1.12-20.13-1.22-2.58-.06-4.63-.05-6.11,0h-1.66c-.19.02-.39.02-.58,0,.19-.04.39-.07.58-.06l1.66-.11c1.44-.06,3.53-.13,6.12-.11,5.17,0,12.3.4,20.17,1.08l5.73.5c1.81.1,3.59.48,5.29,1.11,1.54.65,2.85,1.72,3.79,3.1.81,1.18,1.41,2.5,1.78,3.88.26,1.14.39,2.31.4,3.49v4.29c0,.16-.01.33-.04.49Z"/><path class="e" d="M129.74,264.79c-.04-.18-.06-.36-.05-.55v-1.56c0-.64,0-1.51-.07-2.46-.05-1.07-.33-2.12-.82-3.08-.72-1.07-1.77-1.88-3-2.3-1.39-.53-2.9-.68-4.37-.43-.79.13-1.55.39-2.26.76-.73.38-1.33.95-1.75,1.66-.2.35-.31.75-.31,1.16s.11.81.31,1.16c.21.37.5.69.84.95.34.26.73.44,1.14.54.41.09.84.07,1.24-.04.4-.12.77-.34,1.07-.63.61-.58.98-1.36,1.05-2.2.05-.81-.2-1.61-.69-2.26-.45-.65-1.05-1.18-1.75-1.54-.69-.32-1.43-.53-2.19-.6-.75-.11-1.48-.21-2.18-.29-1.42-.16-2.77-.25-3.95-.31-2.42-.09-4.39-.06-5.74-.06h-1.57c-.18.02-.36.02-.55,0,.18-.04.36-.06.55-.06l1.56-.08c1.36-.06,3.33-.15,5.76-.09,1.22,0,2.55.1,3.98.25.71.07,1.45.16,2.21.27.38.06.75.1,1.15.18.41.08.81.22,1.18.42.77.39,1.43.97,1.92,1.67.56.73.84,1.64.78,2.55-.06.96-.48,1.85-1.17,2.52-.36.36-.8.61-1.29.75-.49.14-1,.15-1.49.03-.48-.11-.93-.32-1.32-.62-.39-.3-.72-.67-.96-1.1-.24-.42-.36-.9-.36-1.39s.13-.96.36-1.39c.46-.79,1.13-1.43,1.94-1.85.75-.4,1.57-.67,2.41-.8,1.56-.26,3.16-.08,4.63.51,1.3.46,2.4,1.34,3.14,2.51.49,1.01.77,2.11.8,3.23.05.97,0,1.85,0,2.48s-.06,1.16-.07,1.56c0,.19-.03.38-.08.56Z"/><path class="e" d="M155.35,264.79c-.07-.2-.12-.41-.14-.62-.07-.41-.19-1.01-.36-1.78-.45-2.17-1.11-4.29-1.96-6.34-1.21-3.05-3.21-5.73-5.79-7.75-1.55-1.13-3.38-1.82-5.29-2.02-2.07-.23-4.15-.34-6.24-.33-8.59-.17-16.38-.13-22.02-.36-2.82-.1-5.1-.23-6.67-.35l-1.85-.15c-.21,0-.42-.04-.63-.09.21-.02.43-.02.64,0l1.85.06c1.57.06,3.85.14,6.67.19,5.62.14,13.41.06,22.02.22,2.1,0,4.2.11,6.29.34,1.99.21,3.88.95,5.5,2.13,1.44,1.09,2.68,2.4,3.7,3.89.87,1.29,1.6,2.66,2.17,4.1.84,2.09,1.46,4.26,1.85,6.48.14.78.23,1.39.27,1.8.02.19.01.38,0,.57Z"/><path class="e" d="M174.38,229.34h-64.68v9.39h64.68v-9.39Z"/><path class="f" d="M159.14,234.03h-35.22v4.7h35.22v-4.7Z"/><path class="h" d="M61.38,357.11c-4.13-1.97-8.79-2.57-13.28-1.71-2.46.2-4.78,1.22-6.6,2.88-1.66,1.81-1.98,4.99-.1,6.56,1.21.83,2.67,1.22,4.13,1.09,3.52,0,7.42-.61,10.22,1.53,1.59,1.22,2.65,3.23,4.55,3.88.96.23,1.97.14,2.87-.26.9-.39,1.65-1.07,2.14-1.93.92-1.75,1.14-3.8.61-5.7-.21-1.33-.73-2.6-1.52-3.7-.79-1.1-1.81-2-3.01-2.64Z"/><g class="m"><path class="d" d="M61.38,357.11c-4.13-1.97-8.79-2.57-13.28-1.71-2.46.2-4.78,1.22-6.6,2.88-1.66,1.81-1.98,4.99-.1,6.56,1.21.83,2.67,1.22,4.13,1.09,3.52,0,7.42-.61,10.22,1.53,1.59,1.22,2.65,3.23,4.55,3.88.96.23,1.97.14,2.87-.26.9-.39,1.65-1.07,2.14-1.93.92-1.75,1.14-3.8.61-5.7-.21-1.33-.73-2.6-1.52-3.7-.79-1.1-1.81-2-3.01-2.64Z"/></g><path class="c" d="M70.78,339.29c-2.5,3.52-7.29,2.32-9.51.14-2.21-2.17-3.13-5.3-3.97-8.29-1.91-6.82-3.88-13.98-2.33-20.9.37-2.1,1.31-4.06,2.7-5.67.71-.79,1.62-1.37,2.63-1.7,1.01-.33,2.09-.38,3.13-.16,2.42.66,3.88,3.04,4.98,5.3,3.18,6.69,4.84,14,4.84,21.4,0,3.44-.44,7.05-2.41,9.87"/><g class="m"><path class="g" d="M70.78,339.29c-2.5,3.52-7.29,2.32-9.51.14-2.21-2.17-3.13-5.3-3.97-8.29-1.91-6.82-3.88-13.98-2.33-20.9.37-2.1,1.31-4.06,2.7-5.67.71-.79,1.62-1.37,2.63-1.7,1.01-.33,2.09-.38,3.13-.16,2.42.66,3.88,3.04,4.98,5.3,3.18,6.69,4.84,14,4.84,21.4,0,3.44-.44,7.05-2.41,9.87"/></g><path class="h" d="M77.54,344.41c-1.25-1.67-2.08-3.62-2.42-5.69-.34-2.06-.17-4.18.49-6.16,1.39-3.96,3.84-7.45,7.09-10.11,3.68-3.23,7.96-5.72,12.6-7.31,1.79-.71,3.71-1.03,5.64-.92.96.06,1.9.36,2.72.86.82.5,1.51,1.2,2,2.03,1.29,2.52,0,5.57-1.37,8.06-2.44,4.37-5.23,8.55-8.33,12.48-2.5,3.17-5.34,6.29-9.12,7.76-3.78,1.47-7.68,1.22-9.66-1.41"/><path class="j" d="M70.57,392.58c-.12-.53-.19-1.06-.21-1.6-.1-1.16-.23-2.59-.4-4.38-.2-2.17-.51-4.33-.93-6.47-.55-2.57-1.3-5.1-2.25-7.55-.94-2.46-2.23-4.78-3.81-6.88-1.3-1.71-2.97-3.12-4.88-4.11-1.29-.64-2.68-1.08-4.11-1.29-.54-.02-1.07-.11-1.59-.25.54-.06,1.08-.06,1.62,0,1.49.12,2.94.51,4.29,1.15,2.02.96,3.8,2.37,5.17,4.14,1.67,2.13,3,4.5,3.97,7.02.98,2.52,1.74,5.11,2.26,7.76.4,2.14.67,4.3.81,6.47.12,1.86.17,3.38.18,4.41.02.53-.02,1.07-.13,1.59Z"/><path class="j" d="M70.3,389.21c-.03-.25-.03-.5,0-.75v-9.96c-.12-6.61-.62-15.73-1.64-25.76-1.02-10.04-2.44-19.06-3.74-25.54-.3-1.62-.61-3.08-.91-4.36-.3-1.28-.5-2.39-.74-3.28-.23-.89-.35-1.53-.48-2.07-.07-.24-.12-.49-.13-.74.11.22.2.46.26.7.16.53.35,1.22.6,2.04.25.83.54,1.99.85,3.26.31,1.27.67,2.74,1.01,4.36,1.75,8.45,3.04,16.98,3.88,25.57,1.03,10.05,1.46,19.21,1.46,25.87,0,3.31-.08,5.99-.17,7.84,0,.87-.12,1.56-.16,2.12,0,.24-.04.48-.1.71Z"/><path class="j" d="M70.37,371.57c-.05-.74-.05-1.48,0-2.22.1-1.44.31-3.49.72-6.03.52-2.96,1.2-5.88,2.03-8.77,1-3.53,2.25-6.99,3.74-10.35,2.6-6.19,6.29-11.85,10.9-16.72.81-.84,1.68-1.62,2.59-2.34.39-.32.74-.65,1.09-.9l1-.67c.59-.44,1.22-.84,1.88-1.19-2.17,1.68-4.24,3.49-6.18,5.43-4.46,4.91-8.06,10.54-10.63,16.66-1.47,3.34-2.73,6.77-3.76,10.27-.98,3.22-1.64,6.18-2.15,8.69-.5,2.51-.75,4.54-.93,5.96-.04.74-.13,1.47-.29,2.19Z"/><path class="j" d="M258.64,191.16c-.13,0-.24-10.18-.24-22.79s.11-22.8.24-22.8.24,10.18.24,22.8-.1,22.79-.24,22.79Z"/><path class="j" d="M492.8,345.77h-104.27v114.4h104.27v-114.4Z"/><path class="l" d="M487.29,368.64h-113.98v28.28h113.98v-28.28Z"/><path class="j" d="M400.81,374.46h-22.44v3.45h22.44v-3.45Z"/><path class="j" d="M400.81,380.41h-22.44v3.45h22.44v-3.45Z"/><path class="j" d="M400.81,386.55h-22.44v3.45h22.44v-3.45Z"/><path class="j" d="M409.69,376.55c0,.25-.08.5-.22.71-.14.21-.34.38-.58.47-.24.1-.49.12-.74.07-.25-.05-.48-.17-.66-.35-.18-.18-.3-.41-.35-.66-.05-.25-.02-.51.07-.74.1-.23.26-.44.47-.58.21-.14.46-.22.71-.22.34,0,.67.14.91.38s.38.57.38.91Z"/><path class="j" d="M415.37,376.55c0,.25-.08.5-.22.71-.14.21-.34.38-.58.47-.23.1-.49.12-.74.07-.25-.05-.48-.17-.66-.35-.18-.18-.3-.41-.35-.66-.05-.25-.02-.51.07-.74.1-.23.26-.44.47-.58.21-.14.46-.22.71-.22.34,0,.67.14.91.38.24.24.38.57.38.91Z"/><path class="j" d="M421.05,376.55c0,.25-.08.5-.22.71-.14.21-.34.38-.58.47s-.49.12-.74.07c-.25-.05-.48-.17-.66-.35-.18-.18-.3-.41-.35-.66-.05-.25-.02-.51.07-.74.1-.23.26-.44.47-.58.21-.14.46-.22.71-.22.34,0,.67.14.91.38s.38.57.38.91Z"/><path class="j" d="M426.73,376.55c0,.25-.08.5-.22.71-.14.21-.34.38-.58.47s-.49.12-.74.07c-.25-.05-.48-.17-.66-.35-.18-.18-.3-.41-.35-.66-.05-.25-.02-.51.07-.74.1-.23.26-.44.47-.58.21-.14.46-.22.71-.22.34,0,.67.14.91.38.24.24.38.57.38.91Z"/><path class="j" d="M470.75,376.55c0,.25-.08.5-.22.71-.14.21-.34.38-.58.47-.24.1-.49.12-.74.07-.25-.05-.48-.17-.66-.35-.18-.18-.3-.41-.35-.66-.05-.25-.02-.51.07-.74.1-.23.26-.44.47-.58.21-.14.46-.22.71-.22.34,0,.67.14.91.38s.38.57.38.91Z"/><path class="j" d="M476.54,376.55c0,.25-.08.5-.22.71-.14.21-.34.38-.58.47-.23.1-.49.12-.74.07-.25-.05-.48-.17-.66-.35-.18-.18-.3-.41-.35-.66-.05-.25-.02-.51.07-.74.1-.23.26-.44.47-.58.21-.14.46-.22.71-.22.34,0,.67.14.91.38.24.24.38.57.38.91Z"/><path class="j" d="M432.41,376.55c0,.25-.08.5-.22.71-.14.21-.34.38-.58.47s-.49.12-.74.07c-.25-.05-.48-.17-.66-.35s-.3-.41-.35-.66c-.05-.25-.02-.51.07-.74.1-.23.26-.44.47-.58.21-.14.46-.22.71-.22.34,0,.67.14.91.38s.38.57.38.91Z"/><path class="j" d="M460.31,376.55c0,.25-.08.5-.22.71-.14.21-.34.38-.58.47-.23.1-.49.12-.74.07-.25-.05-.48-.17-.66-.35-.18-.18-.3-.41-.35-.66-.05-.25-.02-.51.07-.74.1-.23.26-.44.47-.58.21-.14.46-.22.71-.22.34,0,.67.14.91.38s.38.57.38.91Z"/><path class="f" d="M438.09,376.55c0,.25-.08.5-.22.71-.14.21-.34.38-.58.47s-.49.12-.74.07c-.25-.05-.48-.17-.66-.35-.18-.18-.3-.41-.35-.66-.05-.25-.02-.51.07-.74.1-.23.26-.44.47-.58.21-.14.46-.22.71-.22.34,0,.67.14.91.38s.38.57.38.91Z"/><path class="f" d="M443.76,376.55c0,.26-.07.51-.21.72-.14.21-.34.38-.58.48-.24.1-.5.13-.75.08-.25-.05-.48-.17-.67-.35-.18-.18-.31-.41-.36-.66-.05-.25-.03-.51.07-.75s.26-.44.48-.58c.21-.14.46-.22.72-.22.34,0,.67.14.91.38.24.24.38.57.38.91Z"/><path class="f" d="M455.3,376.55c0,.26-.07.51-.21.72-.14.21-.34.38-.58.48-.24.1-.5.13-.75.08-.25-.05-.48-.17-.67-.35-.18-.18-.31-.41-.36-.66-.05-.25-.03-.51.07-.75.1-.24.26-.44.48-.58.21-.14.46-.22.72-.22.34,0,.67.14.91.38.24.24.38.57.38.91Z"/><path class="f" d="M481.26,376.55c0,.25-.08.5-.22.71-.14.21-.34.38-.58.47-.24.1-.49.12-.74.07-.25-.05-.48-.17-.66-.35-.18-.18-.3-.41-.35-.66-.05-.25-.02-.51.07-.74.1-.23.26-.44.47-.58.21-.14.46-.22.71-.22.34,0,.67.14.91.38s.38.57.38.91Z"/><path class="h" d="M449.46,376.55c0,.26-.07.51-.21.72-.14.21-.34.38-.58.48-.24.1-.5.13-.75.08-.25-.05-.48-.17-.67-.36-.18-.18-.31-.41-.35-.67-.05-.25-.02-.51.08-.75.1-.24.27-.44.48-.58.21-.14.47-.22.72-.21.34,0,.67.14.91.38.24.24.38.57.38.91Z"/><path class="h" d="M465.72,376.55c0,.25-.08.5-.22.71-.14.21-.34.38-.58.47s-.49.12-.74.07c-.25-.05-.48-.17-.66-.35-.18-.18-.3-.41-.35-.66-.05-.25-.02-.51.07-.74.1-.23.26-.44.47-.58.21-.14.46-.22.71-.22.34,0,.67.14.91.38s.38.57.38.91Z"/><path class="j" d="M478.69,382.76c0-.26.08-.5.22-.71.14-.21.34-.38.58-.47.23-.1.49-.12.74-.07.25.05.48.17.66.35.18.18.3.41.35.66.05.25.02.51-.07.74-.1.24-.26.44-.47.58-.21.14-.46.22-.71.22-.34,0-.67-.14-.91-.38-.24-.24-.38-.57-.38-.91Z"/><path class="j" d="M473,382.76c0-.26.07-.51.21-.72.14-.21.34-.38.58-.48.24-.1.5-.13.75-.08.25.05.48.17.67.35s.31.41.36.66c.05.25.03.51-.07.75-.1.24-.26.44-.48.58-.21.14-.46.22-.72.22-.34,0-.67-.14-.91-.38-.24-.24-.38-.57-.38-.91Z"/><path class="j" d="M467.32,382.76c0-.26.07-.51.21-.72.14-.21.34-.38.58-.48.24-.1.5-.13.75-.08.25.05.48.17.67.35.18.18.31.41.35.67.05.25.02.51-.08.75-.1.24-.27.44-.48.58s-.47.22-.72.21c-.34,0-.67-.14-.91-.38-.24-.24-.38-.57-.38-.91Z"/><path class="j" d="M461.64,382.76c0-.26.07-.51.21-.72.14-.21.34-.38.58-.48.24-.1.5-.13.75-.08.25.05.48.17.66.35.18.18.31.41.36.67.05.25.02.51-.08.75-.1.24-.27.44-.48.58s-.47.22-.72.21c-.34,0-.67-.14-.91-.38-.24-.24-.38-.57-.38-.91Z"/><path class="j" d="M417.61,382.76c0-.26.07-.51.21-.72.14-.21.34-.38.58-.48.24-.1.5-.13.75-.08.25.05.48.17.67.35.18.18.31.41.35.67.05.25.02.51-.08.75-.1.24-.27.44-.48.58-.21.14-.47.22-.72.21-.34,0-.67-.14-.91-.38-.24-.24-.38-.57-.38-.91Z"/><path class="j" d="M411.82,382.76c0-.26.08-.5.22-.71.14-.21.34-.38.58-.47s.49-.12.74-.07c.25.05.48.17.66.35.18.18.3.41.35.66.05.25.02.51-.07.74-.1.24-.26.44-.47.58-.21.14-.46.22-.71.22-.34,0-.67-.14-.91-.38-.24-.24-.38-.57-.38-.91Z"/><path class="j" d="M455.96,382.76c0-.26.08-.5.22-.71.14-.21.34-.38.58-.47.23-.1.49-.12.74-.07.25.05.48.17.66.35.18.18.3.41.35.66.05.25.02.51-.07.74-.1.24-.26.44-.47.58-.21.14-.46.22-.71.22-.34,0-.67-.14-.91-.38-.24-.24-.38-.57-.38-.91Z"/><path class="j" d="M428.03,382.76c0-.26.08-.5.22-.71.14-.21.34-.38.58-.47s.49-.12.74-.07c.25.05.48.17.66.35.18.18.3.41.35.66.05.25.02.51-.07.74-.1.24-.26.44-.47.58-.21.14-.46.22-.71.22-.34,0-.67-.14-.91-.38-.24-.24-.38-.57-.38-.91Z"/><path class="f" d="M450.28,382.76c0-.26.08-.5.22-.71.14-.21.34-.38.58-.47.24-.1.49-.12.74-.07.25.05.48.17.66.35.18.18.3.41.35.66.05.25.02.51-.07.74-.1.24-.26.44-.47.58-.21.14-.46.22-.71.22-.34,0-.67-.14-.91-.38-.24-.24-.38-.57-.38-.91Z"/><path class="f" d="M444.6,382.76c0-.26.08-.5.22-.71.14-.21.34-.38.58-.47.23-.1.49-.12.74-.07.25.05.48.17.66.35.18.18.3.41.35.66.05.25.02.51-.07.74-.1.24-.26.44-.47.58-.21.14-.46.22-.71.22-.34,0-.67-.14-.91-.38-.24-.24-.38-.57-.38-.91Z"/><path class="f" d="M433.07,382.76c0-.26.08-.5.22-.71.14-.21.34-.38.58-.47s.49-.12.74-.07c.25.05.48.17.66.35.18.18.3.41.35.66.05.25.02.51-.07.74-.1.24-.26.44-.47.58-.21.14-.46.22-.71.22-.34,0-.67-.14-.91-.38-.24-.24-.38-.57-.38-.91Z"/><path class="f" d="M407.11,382.76c0-.26.08-.5.22-.71.14-.21.34-.38.58-.47.23-.1.49-.12.74-.07.25.05.48.17.66.35.18.18.3.41.35.66.05.25.02.51-.07.74-.1.24-.26.44-.47.58-.21.14-.46.22-.71.22-.34,0-.67-.14-.91-.38-.24-.24-.38-.57-.38-.91Z"/><path class="c" d="M438.92,382.76c0-.26.08-.5.22-.71.14-.21.34-.38.58-.47s.49-.12.74-.07c.25.05.48.17.66.35.18.18.3.41.35.66.05.25.02.51-.07.74-.1.24-.26.44-.47.58-.21.14-.46.22-.71.22-.34,0-.67-.14-.91-.38-.24-.24-.38-.57-.38-.91Z"/><path class="h" d="M422.65,382.76c0-.26.07-.51.21-.72.14-.21.34-.38.58-.48.24-.1.5-.13.75-.08.25.05.48.17.67.35s.31.41.36.66c.05.25.03.51-.07.75-.1.24-.26.44-.48.58-.21.14-.46.22-.72.22-.34,0-.67-.14-.91-.38-.24-.24-.38-.57-.38-.91Z"/><path class="j" d="M408.4,389.56c.71,0,1.29-.58,1.29-1.29s-.58-1.29-1.29-1.29-1.29.58-1.29,1.29.58,1.29,1.29,1.29Z"/><path class="j" d="M414.08,389.56c.71,0,1.29-.58,1.29-1.29s-.58-1.29-1.29-1.29-1.29.58-1.29,1.29.58,1.29,1.29,1.29Z"/><path class="j" d="M419.76,389.56c.71,0,1.29-.58,1.29-1.29s-.58-1.29-1.29-1.29-1.29.58-1.29,1.29.58,1.29,1.29,1.29Z"/><path class="j" d="M425.44,389.56c.71,0,1.29-.58,1.29-1.29s-.58-1.29-1.29-1.29-1.29.58-1.29,1.29.58,1.29,1.29,1.29Z"/><path class="j" d="M469.47,389.56c.71,0,1.29-.58,1.29-1.29s-.58-1.29-1.29-1.29-1.29.58-1.29,1.29.58,1.29,1.29,1.29Z"/><path class="j" d="M475.26,389.56c.71,0,1.29-.58,1.29-1.29s-.58-1.29-1.29-1.29-1.29.58-1.29,1.29.58,1.29,1.29,1.29Z"/><path class="j" d="M431.12,389.56c.71,0,1.29-.58,1.29-1.29s-.58-1.29-1.29-1.29-1.29.58-1.29,1.29.58,1.29,1.29,1.29Z"/><path class="j" d="M460.31,388.27c0,.25-.08.5-.22.71-.14.21-.34.38-.58.47-.23.1-.49.12-.74.07-.25-.05-.48-.17-.66-.35-.18-.18-.3-.41-.35-.66-.05-.25-.02-.51.07-.74.1-.24.26-.44.47-.58.21-.14.46-.22.71-.22.34,0,.67.14.91.38.24.24.38.57.38.91Z"/><path class="f" d="M436.8,389.56c.71,0,1.29-.58,1.29-1.29s-.58-1.29-1.29-1.29-1.29.58-1.29,1.29.58,1.29,1.29,1.29Z"/><path class="f" d="M443.76,388.27c0,.26-.07.51-.21.72-.14.21-.34.38-.58.48-.24.1-.5.13-.75.08-.25-.05-.48-.17-.67-.35s-.31-.41-.36-.66c-.05-.25-.03-.51.07-.75s.26-.44.48-.58c.21-.14.46-.22.72-.22.34,0,.67.14.91.38.24.24.38.57.38.91Z"/><path class="f" d="M454.01,389.56c.71,0,1.29-.58,1.29-1.29s-.58-1.29-1.29-1.29-1.29.58-1.29,1.29.58,1.29,1.29,1.29Z"/><path class="f" d="M481.26,388.27c0,.25-.08.5-.22.71-.14.21-.34.38-.58.47-.24.1-.49.12-.74.07-.25-.05-.48-.17-.66-.35-.18-.18-.3-.41-.35-.66-.05-.25-.02-.51.07-.74.1-.24.26-.44.47-.58.21-.14.46-.22.71-.22.34,0,.67.14.91.38.24.24.38.57.38.91Z"/><path class="h" d="M448.17,389.56c.71,0,1.29-.58,1.29-1.29s-.58-1.29-1.29-1.29-1.29.58-1.29,1.29.58,1.29,1.29,1.29Z"/><path class="h" d="M464.43,389.56c.71,0,1.29-.58,1.29-1.29s-.58-1.29-1.29-1.29-1.29.58-1.29,1.29.58,1.29,1.29,1.29Z"/><path class="l" d="M487.29,403.54h-113.98v28.28h113.98v-28.28Z"/><path class="j" d="M409.4,411.17c0,.25-.08.5-.22.71-.14.21-.34.38-.58.47-.24.1-.49.12-.74.07-.25-.05-.48-.17-.66-.35-.18-.18-.3-.41-.35-.66-.05-.25-.02-.51.07-.74.1-.24.26-.44.47-.58.21-.14.46-.22.71-.22.34,0,.67.14.91.38s.38.57.38.91Z"/><path class="j" d="M415.08,411.17c0,.25-.08.5-.22.71-.14.21-.34.38-.58.47-.23.1-.49.12-.74.07-.25-.05-.48-.17-.66-.35-.18-.18-.3-.41-.35-.66-.05-.25-.02-.51.07-.74.1-.24.26-.44.47-.58.21-.14.46-.22.71-.22.34,0,.67.14.91.38s.38.57.38.91Z"/><path class="j" d="M420.77,411.17c0,.26-.07.51-.21.72-.14.21-.34.38-.58.48s-.5.13-.75.08c-.25-.05-.48-.17-.67-.35s-.31-.41-.36-.66c-.05-.25-.03-.51.07-.75.1-.24.26-.44.48-.58.21-.14.46-.22.72-.22.34,0,.67.14.91.38.24.24.38.57.38.91Z"/><path class="j" d="M426.45,411.17c0,.26-.07.51-.21.72s-.34.38-.58.48c-.24.1-.5.13-.75.08-.25-.05-.48-.17-.67-.35-.18-.18-.31-.41-.35-.67-.05-.25-.02-.51.08-.75.1-.24.27-.44.48-.58.21-.14.47-.22.72-.21.34,0,.67.14.91.38.24.24.38.57.38.91Z"/><path class="j" d="M470.47,411.17c0,.26-.07.51-.21.72-.14.21-.34.38-.58.48-.24.1-.5.13-.75.08-.25-.05-.48-.17-.67-.35s-.31-.41-.36-.66c-.05-.25-.03-.51.07-.75.1-.24.26-.44.48-.58.21-.14.46-.22.72-.22.34,0,.67.14.91.38.24.24.38.57.38.91Z"/><path class="j" d="M476.26,411.17c0,.25-.08.5-.22.71-.14.21-.34.38-.58.47-.24.1-.49.12-.74.07-.25-.05-.48-.17-.66-.35-.18-.18-.3-.41-.35-.66-.05-.25-.02-.51.07-.74.1-.24.26-.44.47-.58.21-.14.46-.22.71-.22.34,0,.67.14.91.38s.38.57.38.91Z"/><path class="j" d="M432.13,411.17c0,.26-.07.51-.21.72-.14.21-.34.38-.58.48-.24.1-.5.13-.75.08-.25-.05-.48-.17-.66-.35-.18-.18-.31-.41-.36-.67-.05-.25-.02-.51.08-.75.1-.24.27-.44.48-.58s.47-.22.72-.21c.34,0,.67.14.91.38s.38.57.38.91Z"/><path class="j" d="M460.03,411.17c0,.26-.07.51-.21.72s-.34.38-.58.48c-.24.1-.5.13-.75.08-.25-.05-.48-.17-.67-.35-.18-.18-.31-.41-.36-.67-.05-.25-.02-.51.08-.75.1-.24.27-.44.48-.58.21-.14.47-.22.72-.21.34,0,.67.14.91.38s.38.57.38.91Z"/><path class="f" d="M437.81,411.17c0,.25-.08.5-.22.71-.14.21-.34.38-.58.47-.23.1-.49.12-.74.07-.25-.05-.48-.17-.66-.35-.18-.18-.3-.41-.35-.66-.05-.25-.02-.51.07-.74.1-.24.26-.44.47-.58.21-.14.46-.22.71-.22.34,0,.67.14.91.38s.38.57.38.91Z"/><path class="f" d="M443.49,411.17c0,.25-.08.5-.22.71-.14.21-.34.38-.58.47-.24.1-.49.12-.74.07-.25-.05-.48-.17-.66-.35-.18-.18-.3-.41-.35-.66-.05-.25-.02-.51.07-.74.1-.24.26-.44.47-.58.21-.14.46-.22.71-.22.34,0,.67.14.91.38s.38.57.38.91Z"/><path class="f" d="M455.02,411.17c0,.25-.08.5-.22.71-.14.21-.34.38-.58.47-.23.1-.49.12-.74.07-.25-.05-.48-.17-.66-.35-.18-.18-.3-.41-.35-.66-.05-.25-.02-.51.07-.74.1-.24.26-.44.47-.58.21-.14.46-.22.71-.22.34,0,.67.14.91.38.24.24.38.57.38.91Z"/><path class="f" d="M480.97,411.17c0,.25-.08.5-.22.71-.14.21-.34.38-.58.47-.23.1-.49.12-.74.07-.25-.05-.48-.17-.66-.35-.18-.18-.3-.41-.35-.66-.05-.25-.02-.51.07-.74.1-.24.26-.44.47-.58.21-.14.46-.22.71-.22.34,0,.67.14.91.38.24.24.38.57.38.91Z"/><path class="h" d="M449.17,411.17c0,.25-.08.5-.22.71-.14.21-.34.38-.58.47-.23.1-.49.12-.74.07-.25-.05-.48-.17-.66-.35-.18-.18-.3-.41-.35-.66-.05-.25-.02-.51.07-.74.1-.24.26-.44.47-.58.21-.14.46-.22.71-.22.34,0,.67.14.91.38.24.24.38.57.38.91Z"/><path class="h" d="M465.44,411.17c0,.26-.07.51-.21.72-.14.21-.34.38-.58.48s-.5.13-.75.08c-.25-.05-.48-.17-.67-.35s-.31-.41-.36-.66c-.05-.25-.03-.51.07-.75.1-.24.26-.44.48-.58.21-.14.46-.22.72-.22.34,0,.67.14.91.38.24.24.38.57.38.91Z"/><path class="j" d="M478.4,417.38c0-.25.08-.5.22-.71.14-.21.34-.38.58-.47.23-.1.49-.12.74-.07.25.05.48.17.66.35.18.18.3.41.35.66.05.25.02.51-.07.74-.1.23-.26.44-.47.58-.21.14-.46.22-.71.22-.34,0-.67-.14-.91-.38-.24-.24-.38-.57-.38-.91Z"/><path class="j" d="M472.72,417.38c0-.25.08-.5.22-.71.14-.21.34-.38.58-.47s.49-.12.74-.07c.25.05.48.17.66.35.18.18.3.41.35.66.05.25.02.51-.07.74-.1.23-.26.44-.47.58-.21.14-.46.22-.71.22-.34,0-.67-.14-.91-.38s-.38-.57-.38-.91Z"/><path class="j" d="M467.04,417.38c0-.25.08-.5.22-.71.14-.21.34-.38.58-.47.23-.1.49-.12.74-.07.25.05.48.17.66.35.18.18.3.41.35.66.05.25.02.51-.07.74-.1.23-.26.44-.47.58-.21.14-.46.22-.71.22-.34,0-.67-.14-.91-.38-.24-.24-.38-.57-.38-.91Z"/><path class="j" d="M461.33,417.38c0-.25.08-.5.22-.71.14-.21.34-.38.58-.47.23-.1.49-.12.74-.07.25.05.48.17.66.35.18.18.3.41.35.66.05.25.02.51-.07.74-.1.23-.26.44-.47.58-.21.14-.46.22-.71.22-.34,0-.67-.14-.91-.38-.24-.24-.38-.57-.38-.91Z"/><path class="j" d="M417.34,417.38c0-.25.08-.5.22-.71.14-.21.34-.38.58-.47s.49-.12.74-.07c.25.05.48.17.66.35.18.18.3.41.35.66.05.25.02.51-.07.74-.1.23-.26.44-.47.58-.21.14-.46.22-.71.22-.34,0-.67-.14-.91-.38-.24-.24-.38-.57-.38-.91Z"/><path class="j" d="M411.54,417.38c0-.25.08-.5.22-.71.14-.21.34-.38.58-.47.23-.1.49-.12.74-.07.25.05.48.17.66.35.18.18.3.41.35.66.05.25.02.51-.07.74-.1.23-.26.44-.47.58-.21.14-.46.22-.71.22-.34,0-.67-.14-.91-.38-.24-.24-.38-.57-.38-.91Z"/><path class="j" d="M455.68,417.38c0-.25.08-.5.22-.71.14-.21.34-.38.58-.47s.49-.12.74-.07c.25.05.48.17.66.35.18.18.3.41.35.66.05.25.02.51-.07.74-.1.23-.26.44-.47.58-.21.14-.46.22-.71.22-.34,0-.67-.14-.91-.38s-.38-.57-.38-.91Z"/><path class="j" d="M427.78,417.38c0-.25.08-.5.22-.71.14-.21.34-.38.58-.47.24-.1.49-.12.74-.07.25.05.48.17.66.35.18.18.3.41.35.66.05.25.02.51-.07.74-.1.23-.26.44-.47.58-.21.14-.46.22-.71.22-.34,0-.67-.14-.91-.38-.24-.24-.38-.57-.38-.91Z"/><path class="f" d="M449.99,417.38c0-.26.07-.51.21-.72.14-.21.34-.38.58-.48.24-.1.5-.13.75-.08.25.05.48.17.67.35.18.18.31.41.36.66.05.25.03.51-.07.75-.1.24-.26.44-.48.58s-.46.22-.72.22c-.34,0-.67-.14-.91-.38-.24-.24-.38-.57-.38-.91Z"/><path class="f" d="M444.31,417.38c0-.26.07-.51.21-.72.14-.21.34-.38.58-.48.24-.1.5-.13.75-.08.25.05.48.17.67.35.18.18.31.41.36.66.05.25.03.51-.07.75-.1.24-.26.44-.48.58-.21.14-.46.22-.72.22-.34,0-.67-.14-.91-.38-.24-.24-.38-.57-.38-.91Z"/><path class="f" d="M432.78,417.38c0-.26.07-.51.21-.72.14-.21.34-.38.58-.48.24-.1.5-.13.75-.08.25.05.48.17.67.35.18.18.31.41.36.66.05.25.03.51-.07.75s-.26.44-.48.58-.46.22-.72.22c-.34,0-.67-.14-.91-.38-.24-.24-.38-.57-.38-.91Z"/><path class="f" d="M406.83,417.38c0-.25.08-.5.22-.71.14-.21.34-.38.58-.47.23-.1.49-.12.74-.07.25.05.48.17.66.35.18.18.3.41.35.66.05.25.02.51-.07.74-.1.23-.26.44-.47.58-.21.14-.46.22-.71.22-.34,0-.67-.14-.91-.38-.24-.24-.38-.57-.38-.91Z"/><path class="h" d="M438.63,417.38c0-.26.07-.51.21-.72.14-.21.34-.38.58-.48.24-.1.5-.13.75-.08.25.05.48.17.66.36.18.18.31.41.36.66.05.25.02.51-.08.75-.1.24-.27.44-.48.58-.21.14-.47.22-.72.21-.34,0-.67-.14-.91-.38-.24-.24-.38-.57-.38-.91Z"/><path class="h" d="M422.37,417.38c0-.25.08-.5.22-.71.14-.21.34-.38.58-.47.24-.1.49-.12.74-.07.25.05.48.17.66.35s.3.41.35.66c.05.25.02.51-.07.74-.1.23-.26.44-.47.58-.21.14-.46.22-.71.22-.34,0-.67-.14-.91-.38-.24-.24-.38-.57-.38-.91Z"/><path class="j" d="M408.11,424.18c.71,0,1.29-.58,1.29-1.29s-.58-1.29-1.29-1.29-1.29.58-1.29,1.29.58,1.29,1.29,1.29Z"/><path class="j" d="M413.79,424.18c.71,0,1.29-.58,1.29-1.29s-.58-1.29-1.29-1.29-1.29.58-1.29,1.29.58,1.29,1.29,1.29Z"/><path class="j" d="M419.47,424.18c.71,0,1.29-.58,1.29-1.29s-.58-1.29-1.29-1.29-1.29.58-1.29,1.29.58,1.29,1.29,1.29Z"/><path class="j" d="M425.16,424.18c.71,0,1.29-.58,1.29-1.29s-.58-1.29-1.29-1.29-1.29.58-1.29,1.29.58,1.29,1.29,1.29Z"/><path class="j" d="M469.18,424.18c.71,0,1.29-.58,1.29-1.29s-.58-1.29-1.29-1.29-1.29.58-1.29,1.29.58,1.29,1.29,1.29Z"/><path class="j" d="M474.98,424.18c.71,0,1.29-.58,1.29-1.29s-.58-1.29-1.29-1.29-1.29.58-1.29,1.29.58,1.29,1.29,1.29Z"/><path class="j" d="M430.84,424.18c.71,0,1.29-.58,1.29-1.29s-.58-1.29-1.29-1.29-1.29.58-1.29,1.29.58,1.29,1.29,1.29Z"/><path class="j" d="M458.74,424.18c.71,0,1.29-.58,1.29-1.29s-.58-1.29-1.29-1.29-1.29.58-1.29,1.29.58,1.29,1.29,1.29Z"/><path class="f" d="M436.52,424.18c.71,0,1.29-.58,1.29-1.29s-.58-1.29-1.29-1.29-1.29.58-1.29,1.29.58,1.29,1.29,1.29Z"/><path class="f" d="M442.2,424.18c.71,0,1.29-.58,1.29-1.29s-.58-1.29-1.29-1.29-1.29.58-1.29,1.29.58,1.29,1.29,1.29Z"/><path class="f" d="M453.73,424.18c.71,0,1.29-.58,1.29-1.29s-.58-1.29-1.29-1.29-1.29.58-1.29,1.29.58,1.29,1.29,1.29Z"/><path class="f" d="M480.97,422.89c0,.25-.08.5-.22.71-.14.21-.34.38-.58.47-.23.1-.49.12-.74.07-.25-.05-.48-.17-.66-.35-.18-.18-.3-.41-.35-.66-.05-.25-.02-.51.07-.74.1-.23.26-.44.47-.58.21-.14.46-.22.71-.22.34,0,.67.14.91.38.24.24.38.57.38.91Z"/><path class="c" d="M447.88,424.18c.71,0,1.29-.58,1.29-1.29s-.58-1.29-1.29-1.29-1.29.58-1.29,1.29.58,1.29,1.29,1.29Z"/><path class="h" d="M464.15,424.18c.71,0,1.29-.58,1.29-1.29s-.58-1.29-1.29-1.29-1.29.58-1.29,1.29.58,1.29,1.29,1.29Z"/><path class="j" d="M400.81,409.37h-22.44v3.45h22.44v-3.45Z"/><path class="j" d="M400.81,415.31h-22.44v3.45h22.44v-3.45Z"/><path class="j" d="M400.81,421.45h-22.44v3.45h22.44v-3.45Z"/><path class="l" d="M487.29,438.43h-113.98v28.28h113.98v-28.28Z"/><path class="j" d="M400.81,444.26h-22.44v3.45h22.44v-3.45Z"/><path class="j" d="M400.81,450.2h-22.44v3.45h22.44v-3.45Z"/><path class="j" d="M400.81,456.34h-22.44v3.45h22.44v-3.45Z"/><path class="j" d="M408.99,446.07c0,.26-.07.51-.21.72-.14.21-.34.38-.58.48-.24.1-.5.13-.75.08-.25-.05-.48-.17-.67-.35-.18-.18-.3-.41-.35-.67-.05-.25-.02-.51.08-.75.1-.24.27-.44.48-.58s.47-.22.72-.21c.34,0,.67.14.91.38.24.24.38.57.38.91Z"/><path class="j" d="M414.67,446.07c0,.25-.08.5-.22.71-.14.21-.34.38-.58.47-.23.1-.49.12-.74.07-.25-.05-.48-.17-.66-.35-.18-.18-.3-.41-.35-.66-.05-.25-.02-.51.07-.74.1-.23.26-.44.47-.58.21-.14.46-.22.71-.22.34,0,.67.14.91.38.24.24.38.57.38.91Z"/><path class="j" d="M420.35,446.07c0,.25-.08.5-.22.71-.14.21-.34.38-.58.47-.23.1-.49.12-.74.07-.25-.05-.48-.17-.66-.35-.18-.18-.3-.41-.35-.66-.05-.25-.02-.51.07-.74.1-.23.26-.44.47-.58.21-.14.46-.22.71-.22.34,0,.67.14.91.38.24.24.38.57.38.91Z"/><path class="j" d="M426.03,446.07c0,.25-.08.5-.22.71-.14.21-.34.38-.58.47-.23.1-.49.12-.74.07-.25-.05-.48-.17-.66-.35-.18-.18-.3-.41-.35-.66-.05-.25-.02-.51.07-.74.1-.23.26-.44.47-.58.21-.14.46-.22.71-.22.34,0,.67.14.91.38.24.24.38.57.38.91Z"/><path class="j" d="M470.06,446.07c0,.25-.08.5-.22.71-.14.21-.34.38-.58.47-.23.1-.49.12-.74.07-.25-.05-.48-.17-.66-.35s-.3-.41-.35-.66c-.05-.25-.02-.51.07-.74.1-.23.26-.44.47-.58.21-.14.46-.22.71-.22.34,0,.67.14.91.38.24.24.38.57.38.91Z"/><path class="j" d="M475.85,446.07c0,.25-.08.5-.22.71-.14.21-.34.38-.58.47-.23.1-.49.12-.74.07-.25-.05-.48-.17-.66-.35-.18-.18-.3-.41-.35-.66-.05-.25-.02-.51.07-.74.1-.23.26-.44.47-.58.21-.14.46-.22.71-.22.34,0,.67.14.91.38.24.24.38.57.38.91Z"/><path class="j" d="M431.73,446.07c0,.25-.08.5-.22.71-.14.21-.34.38-.58.47-.23.1-.49.12-.74.07-.25-.05-.48-.17-.66-.35-.18-.18-.3-.41-.35-.66-.05-.25-.02-.51.07-.74.1-.23.26-.44.47-.58.21-.14.46-.22.71-.22.34,0,.67.14.91.38.24.24.38.57.38.91Z"/><path class="j" d="M459.61,446.07c0,.25-.08.5-.22.71-.14.21-.34.38-.58.47-.23.1-.49.12-.74.07-.25-.05-.48-.17-.66-.35s-.3-.41-.35-.66c-.05-.25-.02-.51.07-.74.1-.23.26-.44.47-.58.21-.14.46-.22.71-.22.34,0,.67.14.91.38.24.24.38.57.38.91Z"/><path class="f" d="M437.39,446.07c0,.25-.08.5-.22.71-.14.21-.34.38-.58.47-.23.1-.49.12-.74.07-.25-.05-.48-.17-.66-.35-.18-.18-.3-.41-.35-.66-.05-.25-.02-.51.07-.74.1-.23.26-.44.47-.58.21-.14.46-.22.71-.22.34,0,.67.14.91.38.24.24.38.57.38.91Z"/><path class="f" d="M443.07,446.07c0,.25-.08.5-.22.71-.14.21-.34.38-.58.47-.24.1-.49.12-.74.07-.25-.05-.48-.17-.66-.35-.18-.18-.3-.41-.35-.66-.05-.25-.02-.51.07-.74.1-.23.26-.44.47-.58.21-.14.46-.22.71-.22.34,0,.67.14.91.38.24.24.38.57.38.91Z"/><path class="f" d="M454.6,446.07c0,.25-.08.5-.22.71-.14.21-.34.38-.58.47-.23.1-.49.12-.74.07-.25-.05-.48-.17-.66-.35-.18-.18-.3-.41-.35-.66-.05-.25-.02-.51.07-.74.1-.23.26-.44.47-.58.21-.14.46-.22.71-.22.34,0,.67.14.91.38.24.24.38.57.38.91Z"/><path class="f" d="M480.57,446.07c0,.26-.07.51-.21.72-.14.21-.34.38-.58.48-.24.1-.5.13-.75.08-.25-.05-.48-.17-.67-.35-.18-.18-.31-.41-.35-.67-.05-.25-.02-.51.08-.75.1-.24.27-.44.48-.58s.47-.22.72-.21c.34,0,.67.14.91.38.24.24.38.57.38.91Z"/><path class="c" d="M448.76,446.07c0,.26-.07.51-.21.72-.14.21-.34.38-.58.48-.24.1-.5.13-.75.08-.25-.05-.48-.17-.67-.35-.18-.18-.31-.41-.36-.66-.05-.25-.03-.51.07-.75.1-.24.26-.44.48-.58.21-.14.46-.22.72-.22.34,0,.67.14.91.38.24.24.38.57.38.91Z"/><path class="h" d="M465.03,446.07c0,.25-.08.5-.22.71-.14.21-.34.38-.58.47-.24.1-.49.12-.74.07-.25-.05-.48-.17-.66-.35-.18-.18-.3-.41-.35-.66-.05-.25-.02-.51.07-.74.1-.23.26-.44.47-.58.21-.14.46-.22.71-.22.34,0,.67.14.91.38.24.24.38.57.38.91Z"/><path class="j" d="M477.99,452.24c0-.26.07-.51.21-.72.14-.21.34-.38.58-.48.24-.1.5-.13.75-.08.25.05.48.17.67.35.18.18.31.41.36.66.05.25.03.51-.07.75-.1.24-.26.44-.48.58-.21.14-.46.22-.72.22-.34,0-.67-.14-.91-.38-.24-.24-.38-.57-.38-.91Z"/><path class="j" d="M472.31,452.24c0-.26.07-.51.21-.72.14-.21.34-.38.58-.48.24-.1.5-.13.75-.08.25.05.48.17.66.36.18.18.31.41.36.66.05.25.02.51-.08.75-.1.24-.27.44-.48.58-.21.14-.47.22-.72.21-.34,0-.67-.14-.91-.38s-.38-.57-.38-.91Z"/><path class="j" d="M466.62,452.24c0-.25.08-.5.22-.71.14-.21.34-.38.58-.47.24-.1.49-.12.74-.07.25.05.48.17.66.35.18.18.3.41.35.66s.02.51-.07.74c-.1.23-.26.44-.47.58-.21.14-.46.22-.71.22-.34,0-.67-.14-.91-.38s-.38-.57-.38-.91Z"/><path class="j" d="M460.95,452.24c0-.25.08-.5.22-.71.14-.21.34-.38.58-.47.23-.1.49-.12.74-.07.25.05.48.17.66.35.18.18.3.41.35.66.05.25.02.51-.07.74-.1.23-.26.44-.47.58-.21.14-.46.22-.71.22-.34,0-.67-.14-.91-.38s-.38-.57-.38-.91Z"/><path class="j" d="M416.93,452.24c0-.25.08-.5.22-.71.14-.21.34-.38.58-.47.23-.1.49-.12.74-.07.25.05.48.17.66.35.18.18.3.41.35.66.05.25.02.51-.07.74-.1.23-.26.44-.47.58-.21.14-.46.22-.71.22-.34,0-.67-.14-.91-.38s-.38-.57-.38-.91Z"/><path class="j" d="M411.13,452.24c0-.25.08-.5.22-.71.14-.21.34-.38.58-.47.23-.1.49-.12.74-.07.25.05.48.17.66.35s.3.41.35.66c.05.25.02.51-.07.74-.1.23-.26.44-.47.58-.21.14-.46.22-.71.22-.34,0-.67-.14-.91-.38s-.38-.57-.38-.91Z"/><path class="j" d="M455.26,452.24c0-.25.08-.5.22-.71.14-.21.34-.38.58-.47.23-.1.49-.12.74-.07.25.05.48.17.66.35.18.18.3.41.35.66s.02.51-.07.74c-.1.23-.26.44-.47.58-.21.14-.46.22-.71.22-.34,0-.67-.14-.91-.38s-.38-.57-.38-.91Z"/><path class="j" d="M427.36,452.24c0-.25.08-.5.22-.71.14-.21.34-.38.58-.47.24-.1.49-.12.74-.07.25.05.48.17.66.35s.3.41.35.66c.05.25.02.51-.07.74-.1.23-.26.44-.47.58-.21.14-.46.22-.71.22-.34,0-.67-.14-.91-.38-.24-.24-.38-.57-.38-.91Z"/><path class="f" d="M449.58,452.24c0-.25.08-.5.22-.71.14-.21.34-.38.58-.47.24-.1.49-.12.74-.07.25.05.48.17.66.35.18.18.3.41.35.66.05.25.02.51-.07.74-.1.23-.26.44-.47.58-.21.14-.46.22-.71.22-.34,0-.67-.14-.91-.38s-.38-.57-.38-.91Z"/><path class="f" d="M443.9,452.24c0-.25.08-.5.22-.71.14-.21.34-.38.58-.47.23-.1.49-.12.74-.07.25.05.48.17.66.35.18.18.3.41.35.66.05.25.02.51-.07.74-.1.23-.26.44-.47.58-.21.14-.46.22-.71.22-.34,0-.67-.14-.91-.38-.24-.24-.38-.57-.38-.91Z"/><path class="f" d="M432.38,452.24c0-.25.08-.5.22-.71.14-.21.34-.38.58-.47.23-.1.49-.12.74-.07.25.05.48.17.66.35.18.18.3.41.35.66.05.25.02.51-.07.74-.1.23-.26.44-.47.58-.21.14-.46.22-.71.22-.34,0-.67-.14-.91-.38s-.38-.57-.38-.91Z"/><path class="f" d="M406.41,452.24c0-.26.07-.51.21-.72.14-.21.34-.38.58-.48.24-.1.5-.13.75-.08.25.05.48.17.67.35.18.18.31.41.36.66.05.25.03.51-.07.75-.1.24-.26.44-.48.58-.21.14-.46.22-.72.22-.34,0-.67-.14-.91-.38-.24-.24-.38-.57-.38-.91Z"/><path class="h" d="M438.21,452.24c0-.25.08-.5.22-.71.14-.21.34-.38.58-.47.24-.1.49-.12.74-.07.25.05.48.17.66.35.18.18.3.41.35.66s.02.51-.07.74c-.1.23-.26.44-.47.58-.21.14-.46.22-.71.22-.34,0-.67-.14-.91-.38s-.38-.57-.38-.91Z"/><path class="h" d="M421.95,452.24c0-.26.07-.51.21-.72.14-.21.34-.38.58-.48.24-.1.5-.13.75-.08.25.05.48.17.66.36.18.18.31.41.36.66.05.25.02.51-.08.75-.1.24-.27.44-.48.58-.21.14-.47.22-.72.21-.34,0-.67-.14-.91-.38s-.38-.57-.38-.91Z"/><path class="j" d="M408.99,457.8c0,.26-.08.5-.22.72-.14.21-.34.38-.58.48-.24.1-.5.13-.75.08-.25-.05-.48-.17-.66-.35-.18-.18-.31-.41-.36-.66-.05-.25-.03-.51.07-.75.1-.24.26-.44.47-.58.21-.14.46-.22.71-.23.17,0,.34.03.5.09.16.06.3.16.43.28.12.12.22.26.28.42.07.16.1.33.1.5Z"/><path class="j" d="M414.67,457.8c0,.25-.08.5-.22.71-.14.21-.34.38-.58.47-.23.1-.49.12-.74.07s-.48-.17-.66-.35c-.18-.18-.3-.41-.35-.66-.05-.25-.02-.51.07-.74s.26-.44.47-.58c.21-.14.46-.22.71-.22.34,0,.67.14.91.38.24.24.38.57.38.91Z"/><path class="j" d="M420.35,457.8c0,.25-.08.5-.22.71-.14.21-.34.38-.58.47-.23.1-.49.12-.74.07s-.48-.17-.66-.35c-.18-.18-.3-.41-.35-.66-.05-.25-.02-.51.07-.74.1-.23.26-.44.47-.58.21-.14.46-.22.71-.22.34,0,.67.14.91.38.24.24.38.57.38.91Z"/><path class="j" d="M426.03,457.8c0,.25-.08.5-.22.71-.14.21-.34.38-.58.47-.23.1-.49.12-.74.07-.25-.05-.48-.17-.66-.35-.18-.18-.3-.41-.35-.66-.05-.25-.02-.51.07-.74.1-.23.26-.44.47-.58.21-.14.46-.22.71-.22.34,0,.67.14.91.38.24.24.38.57.38.91Z"/><path class="j" d="M470.06,457.8c0,.25-.08.5-.22.71-.14.21-.34.37-.57.47-.23.1-.49.12-.74.08-.25-.05-.48-.17-.66-.34-.18-.18-.3-.4-.36-.65-.05-.25-.03-.5.06-.74.09-.23.25-.44.46-.58.21-.15.45-.23.7-.23.17,0,.34.03.5.09.16.06.31.16.43.28.12.12.22.26.29.42.07.16.1.33.1.5Z"/><path class="j" d="M475.85,457.8c0,.25-.08.5-.22.71-.14.21-.34.38-.58.47-.23.1-.49.12-.74.07-.25-.05-.48-.17-.66-.35-.18-.18-.3-.41-.35-.66-.05-.25-.02-.51.07-.74.1-.23.26-.44.47-.58.21-.14.46-.22.71-.22.34,0,.67.14.91.38s.38.57.38.91Z"/><path class="j" d="M431.73,457.8c0,.25-.08.5-.22.71-.14.21-.34.38-.58.47-.23.1-.49.12-.74.07s-.48-.17-.66-.35-.3-.41-.35-.66-.02-.51.07-.74.26-.44.47-.58c.21-.14.46-.22.71-.22.34,0,.67.14.91.38.24.24.38.57.38.91Z"/><path class="j" d="M459.61,457.8c0,.25-.08.5-.22.71-.14.21-.34.38-.58.47-.23.1-.49.12-.74.07s-.48-.17-.66-.35c-.18-.18-.3-.41-.35-.66-.05-.25-.02-.51.07-.74.1-.23.26-.44.47-.58.21-.14.46-.22.71-.22.34,0,.67.14.91.38.24.24.38.57.38.91Z"/><path class="f" d="M437.39,457.8c0,.25-.08.5-.22.71-.14.21-.34.38-.58.47-.23.1-.49.12-.74.07s-.48-.17-.66-.35c-.18-.18-.3-.41-.35-.66-.05-.25-.02-.51.07-.74.1-.23.26-.44.47-.58.21-.14.46-.22.71-.22.34,0,.67.14.91.38.24.24.38.57.38.91Z"/><path class="f" d="M443.07,457.8c0,.25-.08.5-.22.71-.14.21-.34.38-.58.47-.24.1-.49.12-.74.07s-.48-.17-.66-.35c-.18-.18-.3-.41-.35-.66-.05-.25-.02-.51.07-.74.1-.23.26-.44.47-.58.21-.14.46-.22.71-.22.34,0,.67.14.91.38.24.24.38.57.38.91Z"/><path class="f" d="M454.6,457.8c0,.25-.08.5-.22.71-.14.21-.34.38-.58.47-.23.1-.49.12-.74.07-.25-.05-.48-.17-.66-.35-.18-.18-.3-.41-.35-.66-.05-.25-.02-.51.07-.74.1-.23.26-.44.47-.58.21-.14.46-.22.71-.22.34,0,.67.14.91.38.24.24.38.57.38.91Z"/><path class="f" d="M480.57,457.8c0,.26-.07.51-.21.72-.14.21-.34.38-.58.48-.24.1-.5.13-.75.08-.25-.05-.48-.17-.67-.35-.18-.18-.31-.41-.35-.67-.05-.25-.02-.51.08-.75.1-.24.27-.44.48-.58s.47-.22.72-.21c.34,0,.67.14.91.38.24.24.38.57.38.91Z"/><path class="h" d="M448.76,457.8c0,.26-.07.51-.21.72-.14.21-.34.38-.58.48-.24.1-.5.13-.75.08-.25-.05-.48-.17-.67-.35-.18-.18-.31-.41-.36-.66-.05-.25-.03-.51.07-.75.1-.24.26-.44.48-.58.21-.14.46-.22.72-.22.34,0,.67.14.91.38.24.24.38.57.38.91Z"/><path class="h" d="M465.03,457.8c0,.25-.08.5-.22.71-.14.21-.34.38-.58.47-.24.1-.49.12-.74.07s-.48-.17-.66-.35c-.18-.18-.3-.41-.35-.66-.05-.25-.02-.51.07-.74.1-.23.26-.44.47-.58.21-.14.46-.22.71-.22.34,0,.67.14.91.38.24.24.38.57.38.91Z"/><path class="j" d="M504.42,396.88l-17.14.05v-28.28l17.14-.05v28.28Z"/><path class="j" d="M504.42,362.49l-17.14.05v-28.28l17.14-.05v28.28Z"/><path class="j" d="M504.42,431.55l-17.14.05v-28.28l17.14-.05v28.28Z"/><path class="j" d="M504.42,466.67l-17.14.05v-28.28l17.14-.05v28.28Z"/><path class="l" d="M488.11,334h-113.98v28.28h113.98v-28.28Z"/><path class="j" d="M401.64,339.82h-22.44v3.45h22.44v-3.45Z"/><path class="j" d="M401.64,345.77h-22.44v3.45h22.44v-3.45Z"/><path class="j" d="M401.64,351.91h-22.44v3.45h22.44v-3.45Z"/><path class="j" d="M410.51,341.91c0,.25-.08.5-.22.71-.14.21-.34.38-.58.47-.23.1-.49.12-.74.07-.25-.05-.48-.17-.66-.35-.18-.18-.3-.41-.35-.66-.05-.25-.02-.51.07-.74.1-.23.26-.44.47-.58.21-.14.46-.22.71-.22.34,0,.67.14.91.38.24.24.38.57.38.91Z"/><path class="j" d="M416.19,341.91c0,.25-.08.5-.22.71-.14.21-.34.38-.58.47-.23.1-.49.12-.74.07-.25-.05-.48-.17-.66-.35-.18-.18-.3-.41-.35-.66-.05-.25-.02-.51.07-.74.1-.23.26-.44.47-.58.21-.14.46-.22.71-.22.34,0,.67.14.91.38.24.24.38.57.38.91Z"/><path class="j" d="M421.87,341.91c0,.25-.08.5-.22.71-.14.21-.34.38-.58.47-.24.1-.49.12-.74.07-.25-.05-.48-.17-.66-.35-.18-.18-.3-.41-.35-.66-.05-.25-.02-.51.07-.74.1-.23.26-.44.47-.58.21-.14.46-.22.71-.22.34,0,.67.14.91.38.24.24.38.57.38.91Z"/><path class="j" d="M427.55,341.91c0,.25-.08.5-.22.71-.14.21-.34.38-.58.47-.23.1-.49.12-.74.07-.25-.05-.48-.17-.66-.35-.18-.18-.3-.41-.35-.66-.05-.25-.02-.51.07-.74.1-.23.26-.44.47-.58.21-.14.46-.22.71-.22.34,0,.67.14.91.38.24.24.38.57.38.91Z"/><path class="j" d="M471.57,341.91c0,.25-.08.5-.22.71-.14.21-.34.38-.58.47-.24.1-.49.12-.74.07-.25-.05-.48-.17-.66-.35s-.3-.41-.35-.66c-.05-.25-.02-.51.07-.74.1-.23.26-.44.47-.58.21-.14.46-.22.71-.22.34,0,.67.14.91.38.24.24.38.57.38.91Z"/><path class="j" d="M477.37,341.91c0,.26-.07.51-.21.72-.14.21-.34.38-.58.48-.24.1-.5.13-.75.08-.25-.05-.48-.17-.67-.35-.18-.18-.31-.41-.36-.66-.05-.25-.03-.51.07-.75.1-.24.26-.44.48-.58.21-.14.46-.22.72-.22.34,0,.67.14.91.38.24.24.38.57.38.91Z"/><path class="j" d="M433.24,341.91c0,.26-.07.51-.21.72-.14.21-.34.38-.58.48s-.5.13-.75.08c-.25-.05-.48-.17-.67-.35-.18-.18-.31-.41-.36-.66-.05-.25-.03-.51.07-.75.1-.24.26-.44.48-.58s.46-.22.72-.22c.34,0,.67.14.91.38.24.24.38.57.38.91Z"/><path class="j" d="M461.13,341.91c0,.25-.08.5-.22.71-.14.21-.34.38-.58.47-.24.1-.49.12-.74.07-.25-.05-.48-.17-.66-.35s-.3-.41-.35-.66c-.05-.25-.02-.51.07-.74.1-.23.26-.44.47-.58.21-.14.46-.22.71-.22.34,0,.67.14.91.38.24.24.38.57.38.91Z"/><path class="f" d="M438.92,341.91c0,.26-.07.51-.21.72-.14.21-.34.38-.58.48s-.5.13-.75.08c-.25-.05-.48-.17-.67-.35-.18-.18-.31-.41-.36-.66-.05-.25-.03-.51.07-.75.1-.24.26-.44.48-.58s.46-.22.72-.22c.34,0,.67.14.91.38.24.24.38.57.38.91Z"/><path class="f" d="M444.6,341.91c0,.26-.07.51-.21.72-.14.21-.34.38-.58.48-.24.1-.5.13-.75.08-.25-.05-.48-.17-.66-.36-.18-.18-.31-.41-.36-.66-.05-.25-.02-.51.08-.75.1-.24.27-.44.48-.58s.47-.22.72-.21c.34,0,.67.14.91.38.24.24.38.57.38.91Z"/><path class="f" d="M456.13,341.91c0,.26-.07.51-.21.72-.14.21-.34.38-.58.48-.24.1-.5.13-.75.08-.25-.05-.48-.17-.67-.36-.18-.18-.31-.41-.35-.66-.05-.25-.02-.51.08-.75.1-.24.27-.44.48-.58.21-.14.47-.22.72-.21.34,0,.67.14.91.38.24.24.38.57.38.91Z"/><path class="f" d="M482.08,341.91c0,.25-.08.5-.22.71-.14.21-.34.38-.58.47-.23.1-.49.12-.74.07-.25-.05-.48-.17-.66-.35-.18-.18-.3-.41-.35-.66-.05-.25-.02-.51.07-.74.1-.23.26-.44.47-.58.21-.14.46-.22.71-.22.34,0,.67.14.91.38.24.24.38.57.38.91Z"/><path class="h" d="M450.28,341.91c0,.25-.08.5-.22.71-.14.21-.34.38-.58.47-.23.1-.49.12-.74.07-.25-.05-.48-.17-.66-.35-.18-.18-.3-.41-.35-.66s-.02-.51.07-.74c.1-.23.26-.44.47-.58.21-.14.46-.22.71-.22.34,0,.67.14.91.38.24.24.38.57.38.91Z"/><path class="h" d="M466.54,341.91c0,.25-.08.5-.22.71-.14.21-.34.38-.58.47-.23.1-.49.12-.74.07-.25-.05-.48-.17-.66-.35-.18-.18-.3-.41-.35-.66-.05-.25-.02-.51.07-.74.1-.23.26-.44.47-.58.21-.14.46-.22.71-.22.34,0,.67.14.91.38.24.24.38.57.38.91Z"/><path class="j" d="M479.51,348.12c0-.25.08-.5.22-.71.14-.21.34-.38.58-.47.23-.1.49-.12.74-.07.25.05.48.17.66.35.18.18.3.41.35.66.05.25.02.51-.07.74-.1.23-.26.44-.47.58-.21.14-.46.22-.71.22-.34,0-.67-.14-.91-.38-.24-.24-.38-.57-.38-.91Z"/><path class="j" d="M473.83,348.12c0-.25.08-.5.22-.71.14-.21.34-.38.58-.47.23-.1.49-.12.74-.07.25.05.48.17.66.35.18.18.3.41.35.66.05.25.02.51-.07.74-.1.23-.26.44-.47.58-.21.14-.46.22-.71.22-.34,0-.67-.14-.91-.38-.24-.24-.38-.57-.38-.91Z"/><path class="j" d="M468.15,348.12c0-.25.08-.5.22-.71.14-.21.34-.38.58-.47.23-.1.49-.12.74-.07.25.05.48.17.66.35.18.18.3.41.35.66.05.25.02.51-.07.74-.1.23-.26.44-.47.58-.21.14-.46.22-.71.22-.34,0-.67-.14-.91-.38-.24-.24-.38-.57-.38-.91Z"/><path class="j" d="M462.46,348.12c0-.26.07-.51.21-.72.14-.21.34-.38.58-.48s.5-.13.75-.08c.25.05.48.17.67.35s.31.41.36.66c.05.25.03.51-.07.75s-.26.44-.48.58c-.21.14-.46.22-.72.22-.34,0-.67-.14-.91-.38-.24-.24-.38-.57-.38-.91Z"/><path class="j" d="M418.45,348.12c0-.25.08-.5.22-.71.14-.21.34-.38.58-.47.23-.1.49-.12.74-.07.25.05.48.17.66.35.18.18.3.41.35.66.05.25.02.51-.07.74-.1.23-.26.44-.47.58-.21.14-.46.22-.71.22-.34,0-.67-.14-.91-.38-.24-.24-.38-.57-.38-.91Z"/><path class="j" d="M412.65,348.12c0-.26.07-.51.21-.72.14-.21.34-.38.58-.48.24-.1.5-.13.75-.08.25.05.48.17.67.35.18.18.31.41.36.67.05.25.02.51-.08.75-.1.24-.27.44-.48.58-.21.14-.47.22-.72.21-.34,0-.67-.14-.91-.38-.24-.24-.38-.57-.38-.91Z"/><path class="j" d="M456.78,348.12c0-.26.07-.51.21-.72.14-.21.34-.38.58-.48.24-.1.5-.13.75-.08.25.05.48.17.67.35.18.18.31.41.35.67.05.25.02.51-.08.75-.1.24-.27.44-.48.58-.21.14-.47.22-.72.21-.34,0-.67-.14-.91-.38-.24-.24-.38-.57-.38-.91Z"/><path class="j" d="M428.88,348.12c0-.26.07-.51.21-.72.14-.21.34-.38.58-.48.24-.1.5-.13.75-.08.25.05.48.17.67.35.18.18.3.41.35.67.05.25.02.51-.08.75-.1.24-.27.44-.48.58s-.47.22-.72.21c-.34,0-.67-.14-.91-.38-.24-.24-.38-.57-.38-.91Z"/><path class="f" d="M451.1,348.12c0-.25.08-.5.22-.71.14-.21.34-.38.58-.47.23-.1.49-.12.74-.07.25.05.48.17.66.35.18.18.3.41.35.66.05.25.02.51-.07.74-.1.23-.26.44-.47.58-.21.14-.46.22-.71.22-.34,0-.67-.14-.91-.38-.24-.24-.38-.57-.38-.91Z"/><path class="f" d="M445.42,348.12c0-.25.08-.5.22-.71.14-.21.34-.38.58-.47.23-.1.49-.12.74-.07.25.05.48.17.66.35s.3.41.35.66c.05.25.02.51-.07.74-.1.23-.26.44-.47.58-.21.14-.46.22-.71.22-.34,0-.67-.14-.91-.38-.24-.24-.38-.57-.38-.91Z"/><path class="f" d="M433.9,348.12c0-.25.08-.5.22-.71.14-.21.34-.38.58-.47.23-.1.49-.12.74-.07.25.05.48.17.66.35.18.18.3.41.35.66.05.25.02.51-.07.74-.1.23-.26.44-.47.58-.21.14-.46.22-.71.22-.34,0-.67-.14-.91-.38-.24-.24-.38-.57-.38-.91Z"/><path class="f" d="M407.94,348.12c0-.25.08-.5.22-.71.14-.21.34-.38.58-.47.23-.1.49-.12.74-.07.25.05.48.17.66.35.18.18.3.41.35.66.05.25.02.51-.07.74-.1.23-.26.44-.47.58-.21.14-.46.22-.71.22-.34,0-.67-.14-.91-.38-.24-.24-.38-.57-.38-.91Z"/><path class="h" d="M439.74,348.12c0-.25.08-.5.22-.71.14-.21.34-.38.58-.47.24-.1.49-.12.74-.07.25.05.48.17.66.35.18.18.3.41.35.66.05.25.02.51-.07.74-.1.23-.26.44-.47.58-.21.14-.46.22-.71.22-.34,0-.67-.14-.91-.38-.24-.24-.38-.57-.38-.91Z"/><path class="h" d="M423.48,348.12c0-.25.08-.5.22-.71.14-.21.34-.38.58-.47.23-.1.49-.12.74-.07.25.05.48.17.66.35.18.18.3.41.35.66.05.25.02.51-.07.74-.1.23-.26.44-.47.58-.21.14-.46.22-.71.22-.34,0-.67-.14-.91-.38-.24-.24-.38-.57-.38-.91Z"/><path class="j" d="M410.51,353.63c0,.25-.08.5-.22.71-.14.21-.34.38-.58.47s-.49.12-.74.07c-.25-.05-.48-.17-.66-.35-.18-.18-.3-.41-.35-.66-.05-.25-.02-.51.07-.74.1-.23.26-.44.47-.58.21-.14.46-.22.71-.22.34,0,.67.14.91.38.24.24.38.57.38.91Z"/><path class="j" d="M416.19,353.63c0,.25-.08.5-.22.71-.14.21-.34.38-.58.47-.23.1-.49.12-.74.07-.25-.05-.48-.17-.66-.35-.18-.18-.3-.41-.35-.66-.05-.25-.02-.51.07-.74.1-.23.26-.44.47-.58.21-.14.46-.22.71-.22.34,0,.67.14.91.38.24.24.38.57.38.91Z"/><path class="j" d="M421.87,353.63c0,.26-.08.51-.23.72-.14.21-.35.37-.59.47-.24.09-.5.12-.75.06-.25-.05-.48-.18-.65-.37-.18-.18-.29-.42-.34-.67-.04-.25-.01-.51.09-.74.1-.23.28-.43.49-.57.22-.14.47-.2.73-.19.33.01.65.15.88.4s.36.56.36.9Z"/><path class="j" d="M427.55,353.63c0,.25-.08.5-.22.71-.14.21-.34.38-.58.47-.23.1-.49.12-.74.07-.25-.05-.48-.17-.66-.35-.18-.18-.3-.41-.35-.66-.05-.25-.02-.51.07-.74.1-.23.26-.44.47-.58.21-.14.46-.22.71-.22.34,0,.67.14.91.38.24.24.38.57.38.91Z"/><path class="j" d="M471.57,353.63c0,.25-.08.5-.22.71-.14.21-.34.38-.58.47-.24.1-.49.12-.74.07-.25-.05-.48-.17-.66-.35-.18-.18-.3-.41-.35-.66-.05-.25-.02-.51.07-.74.1-.23.26-.44.47-.58.21-.14.46-.22.71-.22.34,0,.67.14.91.38.24.24.38.57.38.91Z"/><path class="j" d="M477.37,353.63c0,.26-.07.51-.21.72-.14.21-.34.38-.58.48-.24.1-.5.13-.75.08-.25-.05-.48-.17-.67-.35s-.31-.41-.36-.66c-.05-.25-.03-.51.07-.75.1-.24.26-.44.48-.58.21-.14.46-.22.72-.22.34,0,.67.14.91.38.24.24.38.57.38.91Z"/><path class="j" d="M433.24,353.63c0,.26-.07.51-.21.72-.14.21-.34.38-.58.48-.24.1-.5.13-.75.08-.25-.05-.48-.17-.67-.35s-.31-.41-.36-.66c-.05-.25-.03-.51.07-.75.1-.24.26-.44.48-.58.21-.14.46-.22.72-.22.34,0,.67.14.91.38.24.24.38.57.38.91Z"/><path class="j" d="M461.13,353.63c0,.25-.08.5-.22.71-.14.21-.34.38-.58.47-.24.1-.49.12-.74.07-.25-.05-.48-.17-.66-.35-.18-.18-.3-.41-.35-.66-.05-.25-.02-.51.07-.74.1-.23.26-.44.47-.58.21-.14.46-.22.71-.22.34,0,.67.14.91.38.24.24.38.57.38.91Z"/><path class="f" d="M438.92,353.63c0,.26-.07.51-.21.72-.14.21-.34.38-.58.48-.24.1-.5.13-.75.08-.25-.05-.48-.17-.67-.35s-.31-.41-.36-.66c-.05-.25-.03-.51.07-.75.1-.24.26-.44.48-.58.21-.14.46-.22.72-.22.34,0,.67.14.91.38.24.24.38.57.38.91Z"/><path class="f" d="M444.6,353.63c0,.26-.07.51-.21.72-.14.21-.34.38-.58.48-.24.1-.5.13-.75.08-.25-.05-.48-.17-.66-.35-.18-.18-.31-.41-.36-.67-.05-.25-.02-.51.08-.75.1-.24.27-.44.48-.58s.47-.22.72-.21c.34,0,.67.14.91.38.24.24.38.57.38.91Z"/><path class="f" d="M456.13,353.63c0,.26-.08.51-.22.72-.14.21-.35.38-.59.48-.24.1-.5.12-.75.07-.25-.05-.48-.18-.66-.36-.18-.18-.3-.42-.35-.67-.05-.25-.02-.51.09-.75.1-.24.27-.44.49-.57.22-.14.47-.21.73-.2.34,0,.66.14.9.39.24.24.37.57.37.91Z"/><path class="f" d="M482.08,353.63c0,.25-.08.5-.22.71-.14.21-.34.37-.57.47-.23.1-.49.12-.74.08-.25-.05-.48-.17-.66-.34-.18-.18-.31-.4-.36-.65-.05-.25-.03-.5.06-.74.09-.24.25-.44.46-.58.21-.15.45-.23.7-.23.17,0,.34.03.51.09.16.06.31.16.43.28.12.12.22.26.29.42.07.16.1.33.1.5Z"/><path class="h" d="M450.28,353.63c0,.25-.08.5-.22.71-.14.21-.34.38-.58.47-.23.1-.49.12-.74.07-.25-.05-.48-.17-.66-.35-.18-.18-.3-.41-.35-.66s-.02-.51.07-.74c.1-.23.26-.44.47-.58.21-.14.46-.22.71-.22.34,0,.67.14.91.38s.38.57.38.91Z"/><path class="h" d="M466.54,353.63c0,.25-.08.5-.22.71-.14.21-.34.38-.58.47s-.49.12-.74.07c-.25-.05-.48-.17-.66-.35-.18-.18-.3-.41-.35-.66-.05-.25-.02-.51.07-.74.1-.23.26-.44.47-.58.21-.14.46-.22.71-.22.34,0,.67.14.91.38.24.24.38.57.38.91Z"/><path class="j" d="M300.47,131.24h14.44l39.52-.07,130.36-.07c3.19-.04,6.37.44,9.41,1.44,3,1,5.79,2.53,8.23,4.53,4.82,3.92,8.16,9.37,9.45,15.45.47,2.95.65,5.95.53,8.94v25.69c0,22.05,0,41.93-.06,58.6v17.37c.05,1.74-.31,3.46-1.05,5.03-.66,1.42-1.63,2.67-2.84,3.66-1.21.99-2.62,1.7-4.14,2.07-1.34.28-2.71.39-4.07.31,1.35.06,2.7-.04,4.02-.32,1.48-.37,2.86-1.07,4.04-2.04,1.18-.97,2.12-2.2,2.75-3.59.7-1.55,1.01-3.24.93-4.94v-101.67c.12-2.96-.05-5.92-.52-8.84-1.26-5.98-4.52-11.34-9.25-15.21-2.41-1.96-5.14-3.47-8.09-4.45-2.99-.98-6.11-1.45-9.25-1.42l-130.36-.06-39.52-.08h-13.52l-1.01-.33Z"/><path class="k" d="M296.55,192.42h-89.37v273.78h89.37V192.42Z"/><path class="e" d="M367.06,466.2h-70.51l-.13-273.78h70.64v273.78Z"/><path class="j" d="M287.92,236.24h-75.81v21.34h75.81v-21.34Z"/><path class="l" d="M218.48,238.93h-4.25v16.34h4.25v-16.34Z"/><path class="g" d="M223.48,242.36c0,.27-.08.53-.23.75-.15.22-.36.4-.61.5-.25.1-.52.13-.78.08-.26-.05-.5-.18-.69-.37-.19-.19-.32-.43-.37-.69-.05-.26-.03-.53.08-.78.1-.25.28-.46.5-.61.22-.15.48-.23.75-.23.36,0,.7.14.96.4.25.25.4.6.4.95Z"/><path class="g" d="M223.48,248.13c0,.27-.08.53-.23.75-.15.22-.36.4-.61.5-.25.1-.52.13-.78.08-.26-.05-.5-.18-.69-.37-.19-.19-.32-.43-.37-.69-.05-.26-.03-.53.08-.78s.28-.46.5-.61c.22-.15.48-.23.75-.23.36,0,.7.14.96.4.25.25.4.6.4.95Z"/><path class="l" d="M233.05,241.01h-4.17v12.54h4.17v-12.54Z"/><path class="l" d="M239.07,241.01h-4.17v12.54h4.17v-12.54Z"/><path class="l" d="M245.1,241.01h-4.17v12.54h4.17v-12.54Z"/><path class="l" d="M251.12,241.01h-4.17v12.54h4.17v-12.54Z"/><path class="l" d="M257.15,241.01h-4.17v12.54h4.17v-12.54Z"/><path class="l" d="M263.18,241.01h-4.17v12.54h4.17v-12.54Z"/><path class="l" d="M269.2,241.01h-4.17v12.54h4.17v-12.54Z"/><path class="l" d="M275.22,241.01h-4.17v12.54h4.17v-12.54Z"/><path class="l" d="M281.25,241.01h-4.17v12.54h4.17v-12.54Z"/><path class="l" d="M287.28,241.01h-4.17v12.54h4.17v-12.54Z"/><path class="j" d="M287.92,266.9h-75.81v21.34h75.81v-21.34Z"/><path class="l" d="M218.48,269.58h-4.25v16.34h4.25v-16.34Z"/><path class="g" d="M223.48,273.03c0,.27-.08.53-.23.75-.15.22-.36.4-.61.5-.25.1-.52.13-.78.08-.26-.05-.5-.18-.69-.37-.19-.19-.32-.43-.37-.69-.05-.26-.03-.53.08-.78s.28-.46.5-.61c.22-.15.48-.23.75-.23.36,0,.7.15.95.4.25.25.4.6.4.95Z"/><path class="g" d="M223.48,278.8c0,.27-.08.53-.23.75-.15.22-.36.4-.61.5-.25.1-.52.13-.78.08s-.5-.18-.69-.37c-.19-.19-.32-.43-.37-.69-.05-.26-.03-.53.08-.78.1-.25.28-.46.5-.61.22-.15.48-.23.75-.23.36,0,.7.14.95.4.25.25.4.59.4.95Z"/><path class="l" d="M233.05,271.68h-4.17v12.54h4.17v-12.54Z"/><path class="l" d="M239.07,271.68h-4.17v12.54h4.17v-12.54Z"/><path class="l" d="M245.1,271.68h-4.17v12.54h4.17v-12.54Z"/><path class="l" d="M251.12,271.68h-4.17v12.54h4.17v-12.54Z"/><path class="l" d="M257.15,271.68h-4.17v12.54h4.17v-12.54Z"/><path class="l" d="M263.18,271.68h-4.17v12.54h4.17v-12.54Z"/><path class="l" d="M269.2,271.68h-4.17v12.54h4.17v-12.54Z"/><path class="l" d="M275.22,271.68h-4.17v12.54h4.17v-12.54Z"/><path class="l" d="M281.25,271.68h-4.17v12.54h4.17v-12.54Z"/><path class="l" d="M287.28,271.68h-4.17v12.54h4.17v-12.54Z"/><path class="j" d="M287.92,297.81h-75.81v21.34h75.81v-21.34Z"/><path class="l" d="M218.48,300.49h-4.25v16.34h4.25v-16.34Z"/><path class="g" d="M223.48,303.93c0,.27-.08.53-.23.75-.15.22-.36.4-.61.5-.25.1-.52.13-.78.08-.26-.05-.5-.18-.69-.37-.19-.19-.32-.43-.37-.69-.05-.26-.03-.53.08-.78.1-.25.28-.46.5-.61.22-.15.48-.23.75-.23.36,0,.7.14.95.4s.4.59.4.95Z"/><path class="g" d="M223.48,309.71c0,.27-.08.53-.23.75-.15.22-.36.4-.61.5-.25.1-.52.13-.78.08-.26-.05-.5-.18-.69-.37-.19-.19-.32-.43-.37-.69-.05-.26-.03-.53.08-.78s.28-.46.5-.61c.22-.15.48-.23.75-.23.36,0,.7.15.95.4.25.25.4.6.4.95Z"/><path class="l" d="M233.05,302.58h-4.17v12.54h4.17v-12.54Z"/><path class="l" d="M239.07,302.58h-4.17v12.54h4.17v-12.54Z"/><path class="l" d="M245.1,302.58h-4.17v12.54h4.17v-12.54Z"/><path class="l" d="M251.12,302.58h-4.17v12.54h4.17v-12.54Z"/><path class="l" d="M257.15,302.58h-4.17v12.54h4.17v-12.54Z"/><path class="l" d="M263.18,302.58h-4.17v12.54h4.17v-12.54Z"/><path class="l" d="M269.2,302.58h-4.17v12.54h4.17v-12.54Z"/><path class="l" d="M275.22,302.58h-4.17v12.54h4.17v-12.54Z"/><path class="l" d="M281.25,302.58h-4.17v12.54h4.17v-12.54Z"/><path class="l" d="M287.28,302.58h-4.17v12.54h4.17v-12.54Z"/><path class="j" d="M287.92,331.2h-75.81v21.34h75.81v-21.34Z"/><path class="l" d="M218.48,333.89h-4.25v16.34h4.25v-16.34Z"/><path class="g" d="M223.48,337.32c0,.27-.08.53-.23.75-.15.22-.36.4-.61.5-.25.1-.52.13-.78.08-.26-.05-.5-.18-.69-.37-.19-.19-.32-.43-.37-.69-.05-.26-.03-.53.08-.78.1-.25.28-.46.5-.61.22-.15.48-.23.75-.23.36,0,.7.14.96.4.25.25.4.6.4.96Z"/><path class="g" d="M223.48,343.08c0,.27-.08.53-.23.75-.15.22-.36.4-.61.5-.25.1-.52.13-.78.08-.26-.05-.5-.18-.69-.37-.19-.19-.32-.43-.37-.69-.05-.26-.03-.53.08-.78s.28-.46.5-.61c.22-.15.48-.23.75-.23.36,0,.7.14.96.4.25.25.4.6.4.95Z"/><path class="l" d="M233.05,335.97h-4.17v12.54h4.17v-12.54Z"/><path class="l" d="M239.07,335.97h-4.17v12.54h4.17v-12.54Z"/><path class="l" d="M245.1,335.97h-4.17v12.54h4.17v-12.54Z"/><path class="l" d="M251.12,335.97h-4.17v12.54h4.17v-12.54Z"/><path class="l" d="M257.15,335.97h-4.17v12.54h4.17v-12.54Z"/><path class="l" d="M263.18,335.97h-4.17v12.54h4.17v-12.54Z"/><path class="l" d="M269.2,335.97h-4.17v12.54h4.17v-12.54Z"/><path class="l" d="M275.22,335.97h-4.17v12.54h4.17v-12.54Z"/><path class="l" d="M281.25,335.97h-4.17v12.54h4.17v-12.54Z"/><path class="l" d="M287.28,335.97h-4.17v12.54h4.17v-12.54Z"/><path class="j" d="M287.92,364.92h-75.81v21.34h75.81v-21.34Z"/><path class="l" d="M218.48,367.61h-4.25v16.34h4.25v-16.34Z"/><path class="g" d="M223.48,371.04c0,.27-.08.53-.23.75-.15.22-.36.4-.61.5-.25.1-.52.13-.78.08-.26-.05-.5-.18-.69-.37-.19-.19-.32-.43-.37-.69-.05-.26-.03-.53.08-.78.1-.25.28-.46.5-.61.22-.15.48-.23.75-.23.36,0,.7.14.96.4.25.25.4.6.4.96Z"/><path class="g" d="M223.48,376.81c0,.27-.08.53-.23.75-.15.22-.36.4-.61.5-.25.1-.52.13-.78.08-.26-.05-.5-.18-.69-.37-.19-.19-.32-.43-.37-.69-.05-.26-.03-.53.08-.78.1-.25.28-.46.5-.61.22-.15.48-.23.75-.23.36,0,.7.14.96.4.25.25.4.6.4.96Z"/><path class="l" d="M233.05,369.69h-4.17v12.54h4.17v-12.54Z"/><path class="l" d="M239.07,369.69h-4.17v12.54h4.17v-12.54Z"/><path class="l" d="M245.1,369.69h-4.17v12.54h4.17v-12.54Z"/><path class="l" d="M251.12,369.69h-4.17v12.54h4.17v-12.54Z"/><path class="l" d="M257.15,369.69h-4.17v12.54h4.17v-12.54Z"/><path class="l" d="M263.18,369.69h-4.17v12.54h4.17v-12.54Z"/><path class="l" d="M269.2,369.69h-4.17v12.54h4.17v-12.54Z"/><path class="l" d="M275.22,369.69h-4.17v12.54h4.17v-12.54Z"/><path class="l" d="M281.25,369.69h-4.17v12.54h4.17v-12.54Z"/><path class="l" d="M287.28,369.69h-4.17v12.54h4.17v-12.54Z"/><path class="j" d="M287.92,432.03h-75.81v21.34h75.81v-21.34Z"/><path class="l" d="M218.48,434.71h-4.25v16.34h4.25v-16.34Z"/><path class="g" d="M223.48,438.15c0,.27-.08.53-.23.75-.15.22-.36.4-.61.5-.25.1-.52.13-.78.08-.26-.05-.5-.18-.69-.37-.19-.19-.32-.43-.37-.69-.05-.26-.03-.53.08-.78.1-.25.28-.46.5-.61.22-.15.48-.23.75-.23.36,0,.7.14.96.4.25.25.4.6.4.96Z"/><path class="g" d="M223.48,443.92c0,.27-.08.53-.23.75-.15.22-.36.4-.61.5-.25.1-.52.13-.78.08s-.5-.18-.69-.37c-.19-.19-.32-.43-.37-.69-.05-.26-.03-.53.08-.78.1-.25.28-.46.5-.61.22-.15.48-.23.75-.23.36,0,.7.14.96.4.25.25.4.6.4.96Z"/><path class="l" d="M233.05,436.8h-4.17v12.54h4.17v-12.54Z"/><path class="l" d="M239.07,436.8h-4.17v12.54h4.17v-12.54Z"/><path class="l" d="M245.1,436.8h-4.17v12.54h4.17v-12.54Z"/><path class="l" d="M251.12,436.8h-4.17v12.54h4.17v-12.54Z"/><path class="l" d="M257.15,436.8h-4.17v12.54h4.17v-12.54Z"/><path class="l" d="M263.18,436.8h-4.17v12.54h4.17v-12.54Z"/><path class="l" d="M269.2,436.8h-4.17v12.54h4.17v-12.54Z"/><path class="l" d="M275.22,436.8h-4.17v12.54h4.17v-12.54Z"/><path class="l" d="M281.25,436.8h-4.17v12.54h4.17v-12.54Z"/><path class="l" d="M287.28,436.8h-4.17v12.54h4.17v-12.54Z"/><path class="j" d="M287.92,398.51h-75.81v21.34h75.81v-21.34Z"/><path class="l" d="M218.48,401.19h-4.25v16.34h4.25v-16.34Z"/><path class="g" d="M223.48,404.62c0,.27-.08.53-.23.75-.15.22-.36.4-.61.5-.25.1-.52.13-.78.08-.26-.05-.5-.18-.69-.37-.19-.19-.32-.43-.37-.69-.05-.26-.03-.53.08-.78.1-.25.28-.46.5-.61.22-.15.48-.23.75-.23.36,0,.7.14.96.4s.4.6.4.96Z"/><path class="g" d="M223.48,410.39c0,.27-.08.53-.23.75-.15.22-.36.4-.61.5-.25.1-.52.13-.78.08-.26-.05-.5-.18-.69-.37-.19-.19-.32-.43-.37-.69-.05-.26-.03-.53.08-.78.1-.25.28-.46.5-.61.22-.15.48-.23.75-.23.36,0,.7.14.96.4.25.25.4.6.4.96Z"/><path class="l" d="M233.05,403.27h-4.17v12.54h4.17v-12.54Z"/><path class="l" d="M239.07,403.27h-4.17v12.54h4.17v-12.54Z"/><path class="l" d="M245.1,403.27h-4.17v12.54h4.17v-12.54Z"/><path class="l" d="M251.12,403.27h-4.17v12.54h4.17v-12.54Z"/><path class="l" d="M257.15,403.27h-4.17v12.54h4.17v-12.54Z"/><path class="l" d="M263.18,403.27h-4.17v12.54h4.17v-12.54Z"/><path class="l" d="M269.2,403.27h-4.17v12.54h4.17v-12.54Z"/><path class="l" d="M275.22,403.27h-4.17v12.54h4.17v-12.54Z"/><path class="l" d="M281.25,403.27h-4.17v12.54h4.17v-12.54Z"/><path class="l" d="M287.28,403.27h-4.17v12.54h4.17v-12.54Z"/><path class="j" d="M286.89,195.83h-73.73v10.7h73.73v-10.7Z"/><path class="l" d="M269.51,201.18h-40.14v5.35h40.14v-5.35Z"/><path class="j" d="M317.02,417.8c0,.06-.81.14-2.23.55-1.98.61-3.86,1.53-5.55,2.73-1.17.82-2.23,1.8-3.13,2.91-.5.61-.93,1.28-1.29,1.99-.35.76-.62,1.56-.8,2.38-.84,3.38-.59,7.25-.43,11.29.17,4.03-.09,8.04-1.68,11.27-.72,1.53-1.74,2.9-3.01,4.02-2.03,1.76-4.5,2.93-7.15,3.38-.9.14-1.81.17-2.72.11-.57-.03-1.14-.12-1.69-.27-.2-.04-.39-.09-.57-.17,0-.06.8.19,2.28.25.89.03,1.79-.04,2.66-.19,1.16-.22,2.29-.58,3.36-1.07,1.3-.6,2.5-1.39,3.57-2.33,1.21-1.1,2.19-2.44,2.87-3.92,1.53-3.13,1.78-7.05,1.61-11.05-.17-4.01-.42-7.95.47-11.42.21-.84.49-1.66.86-2.45.37-.73.82-1.42,1.35-2.05.94-1.12,2.03-2.11,3.24-2.93,1.74-1.2,3.68-2.08,5.72-2.63.55-.14,1.12-.25,1.68-.32.19-.03.39-.05.58-.05Z"/><path class="j" d="M289.03,454.67h-6.05v7.36h6.05v-7.36Z"/><path class="l" d="M350.91,399.21h-33.94v37.19h33.94v-37.19Z"/><path class="j" d="M344.83,420.33c1.33-6.03-2.47-11.99-8.5-13.32-6.03-1.33-11.99,2.47-13.32,8.5-1.33,6.03,2.47,11.99,8.5,13.32,6.03,1.33,11.99-2.47,13.32-8.5Z"/><path class="l" d="M339.53,417.95c0,1.1-.33,2.17-.94,3.08-.61.91-1.48,1.62-2.49,2.04-1.01.42-2.13.53-3.21.32-1.08-.21-2.07-.74-2.84-1.52-.78-.78-1.3-1.77-1.52-2.84-.21-1.08-.1-2.19.32-3.21s1.13-1.88,2.04-2.49c.91-.61,1.99-.94,3.08-.94,1.47,0,2.88.58,3.92,1.63,1.04,1.04,1.63,2.45,1.63,3.92Z"/><path class="j" d="M321.56,406.02c.57,0,1.04-.46,1.04-1.04s-.46-1.04-1.04-1.04-1.04.46-1.04,1.04.46,1.04,1.04,1.04Z"/><path class="j" d="M345.71,406.02c.57,0,1.04-.46,1.04-1.04s-.46-1.04-1.04-1.04-1.04.46-1.04,1.04.46,1.04,1.04,1.04Z"/><path class="j" d="M346.98,432.45c0,.21-.06.41-.17.58-.11.17-.28.31-.47.39-.19.08-.4.1-.6.06-.2-.04-.39-.14-.54-.28-.15-.15-.25-.33-.29-.54-.04-.2-.02-.41.06-.6.08-.19.21-.36.38-.47.17-.11.37-.18.58-.18.28,0,.54.11.74.3.2.19.31.46.31.73Z"/><path class="j" d="M321.56,433.91c.57,0,1.04-.46,1.04-1.04s-.46-1.04-1.04-1.04-1.04.46-1.04,1.04.46,1.04,1.04,1.04Z"/><path class="j" d="M353.65,399.21h-2.74v37.19h2.74v-37.19Z"/><path class="h" d="M309.62,151.2c3.35-7.83,1.31-15.99-4.19-22.48-2.81-3.22-6.44-5.61-10.5-6.93-4.06-1.32-8.41-1.5-12.57-.55-1.11-6.25-4.48-11.86-9.47-15.78-4.99-3.91-11.25-5.85-17.58-5.44-6.33.41-12.29,3.14-16.73,7.67-4.44,4.53-7.06,10.53-7.35,16.87-2.84.48-5.54,1.58-7.9,3.24-2.36,1.66-4.32,3.82-5.73,6.33-1.41,2.51-2.25,5.31-2.44,8.18-.19,2.88.26,5.76,1.33,8.43l93.13.44Z"/><path class="j" d="M502.41,350.87c.11-.01.22-.01.33,0h.92l3.7-.05c1.96.06,3.91-.17,5.8-.68,2.75-.76,5.28-2.17,7.38-4.11,2.09-1.94,3.69-4.36,4.65-7.05.3-.8.54-1.62.72-2.46.17-.86.27-1.74.31-2.62.1-1.79,0-3.7.05-5.55v-31.41c.02-1.06-.02-2.11-.12-3.16-.13-1.02-.37-2.03-.72-3-.66-1.85-1.71-3.55-3.05-4.98-1.35-1.43-2.98-2.57-4.79-3.35-3.48-1.6-7.23-1.05-10.61-1.2l-9.46-.09-13.69-.18-3.7-.06h32.13c1.91.01,3.79.41,5.55,1.16,1.87.8,3.56,1.98,4.96,3.46,1.4,1.48,2.47,3.24,3.16,5.16.37,1,.62,2.04.75,3.1.11,1.07.15,2.14.13,3.22v31.41c0,1.92.05,3.76-.06,5.6-.05.9-.17,1.8-.34,2.68-.19.85-.44,1.69-.74,2.52-1,2.74-2.65,5.2-4.81,7.17-2.16,1.97-4.76,3.38-7.58,4.12-1.91.49-3.89.69-5.87.6h-4.63c-.13-.06-.25-.14-.36-.24Z"/><path class="g" d="M255.68,150.92v-13.11h-6.57l9.89-13.96,9.89,13.87h-6.45v13.2h-6.76Z"/><path class="l" d="M442.06,299.24c.53-2.26-.87-4.53-3.13-5.07-2.27-.54-4.54.87-5.07,3.13-.54,2.26.87,4.53,3.13,5.07,2.27.54,4.54-.87,5.07-3.13Z"/><path class="l" d="M429.54,292.88c1.07-1.16,2.38-2.09,3.82-2.73,1.45-.64,3.01-.98,4.59-1,1.58-.02,3.15.28,4.61.89,1.46.6,2.79,1.5,3.89,2.63.45.41,1.04.63,1.65.62.61-.01,1.19-.26,1.62-.69.43-.43.69-1.01.7-1.62.02-.61-.2-1.2-.6-1.66-1.55-1.56-3.4-2.8-5.43-3.64-2.04-.84-4.22-1.26-6.42-1.24-2.2.02-4.38.48-6.4,1.35-2.02.87-3.85,2.14-5.37,3.73-2.11,2.2,1.22,5.58,3.32,3.36Z"/><path class="l" d="M415.23,273.19c6.19-5.68,14.24-8.91,22.64-9.08,8.55-.1,16.81,3.07,23.11,8.85,2.22,2.09,5.6-1.25,3.36-3.34-7.2-6.65-16.65-10.31-26.45-10.25-9.65.19-18.89,3.9-26,10.43-2.31,2,1.04,5.36,3.34,3.38v.02Z"/><path class="l" d="M420.88,284.09c2.14-2.38,4.75-4.3,7.67-5.63,2.92-1.33,6.08-2.03,9.28-2.08,3.2-.04,6.38.58,9.33,1.82,2.95,1.24,5.61,3.09,7.82,5.41,2.13,2.18,5.45-1.16,3.36-3.34-2.64-2.77-5.83-4.96-9.35-6.45-3.53-1.49-7.32-2.23-11.15-2.19-3.83.04-7.6.87-11.09,2.43-3.49,1.56-6.63,3.83-9.21,6.65-2.07,2.23,1.27,5.61,3.34,3.36Z"/></svg>
