<?xml version="1.0" encoding="UTF-8"?>
<svg id="Layer_1" data-name="Layer 1" xmlns="http://www.w3.org/2000/svg" viewBox="0 0 566.93 566.93">
  <defs>
    <style>
      .cls-1 {
        fill: #ff9a6c;
      }

      .cls-1, .cls-2, .cls-3, .cls-4, .cls-5, .cls-6, .cls-7, .cls-8, .cls-9, .cls-10, .cls-11, .cls-12, .cls-13 {
        stroke-width: 0px;
      }

      .cls-2 {
        fill: #005584;
      }

      .cls-3 {
        fill: #000;
      }

      .cls-4 {
        fill: #e0e0e0;
      }

      .cls-14 {
        opacity: .2;
      }

      .cls-5 {
        fill: #455a64;
      }

      .cls-6 {
        fill: #e89842;
      }

      .cls-7 {
        fill: #f5f5f5;
      }

      .cls-8 {
        fill: #09f;
      }

      .cls-9 {
        fill: #ebebeb;
      }

      .cls-10 {
        fill: #e30613;
      }

      .cls-11 {
        fill: #263238;
      }

      .cls-12 {
        fill: #ffbf9d;
      }

      .cls-13 {
        fill: #fff;
      }
    </style>
  </defs>
  <path class="cls-11" d="M524.38,539.3c0,.16-107.08.28-239.3.28s-239.3-.12-239.3-.28,107.08-.28,239.3-.28,239.3.13,239.3.28Z"/>
  <g>
    <path class="cls-11" d="M350.12,540.13l-148.6-.08c-17.88,0-32.37-13.83-32.35-30.87l.07-355.12c0-17.05,14.51-30.87,32.4-30.86l148.6.09c17.88,0,32.37,13.82,32.36,30.86l-.07,355.12c-.04,17.06-14.54,30.87-32.4,30.86Z"/>
    <path class="cls-13" d="M349.03,135.78h-148.32c-12.52,0-22.68,9.66-22.68,21.6l-.08,346.62c0,11.93,10.15,21.61,22.66,21.61l148.35.09c12.52,0,22.68-9.67,22.68-21.6l.08-346.63c0-12.01-10.14-21.68-22.7-21.69Z"/>
  </g>
  <g>
    <path class="cls-4" d="M420.42,208.14h-11.12v11.12h11.12v-11.12Z"/>
    <path class="cls-4" d="M414.22,323.01h-11.12v11.12h11.12v-11.12Z"/>
    <path class="cls-4" d="M431.81,354.95h-16.79v16.8h16.79v-16.8Z"/>
    <path class="cls-4" d="M156.46,332.77h-16.79v16.79h16.79v-16.79Z"/>
    <path class="cls-4" d="M132.33,318.14h-10.85v10.85h10.85v-10.85Z"/>
    <path class="cls-4" d="M161.89,383.8h-10.85v10.85h10.85v-10.85Z"/>
    <path class="cls-4" d="M116.19,239.53h-7.86v7.86h7.86v-7.86Z"/>
    <path class="cls-4" d="M448.7,225.31h-4.15v4.15h4.15v-4.15Z"/>
    <path class="cls-4" d="M409.13,190.33h-6.41v6.41h6.41v-6.41Z"/>
    <path class="cls-4" d="M441.68,317.38h-6.41v6.41h6.41v-6.41Z"/>
    <path class="cls-4" d="M153.52,216.87h-10.9v10.91h10.9v-10.91Z"/>
    <path class="cls-7" d="M42.54,213.31l37.69.63-18.36-23.61-19.33,22.98Z"/>
    <path class="cls-7" d="M60.06,231.83h-6.39v6.39h6.39v-6.39Z"/>
    <path class="cls-7" d="M66.16,238.82h-6.39v6.39h6.39v-6.39Z"/>
    <path class="cls-7" d="M58.57,247.42h-4.91v4.91h4.91v-4.91Z"/>
    <path class="cls-7" d="M70.43,233.36h-4.91v4.91h4.91v-4.91Z"/>
    <path class="cls-7" d="M53.67,239.37h-3.51v3.51h3.51v-3.51Z"/>
    <path class="cls-7" d="M63.84,258.5h-4.1v-4.11h4.1v4.11ZM60.33,257.89h2.9v-2.89h-2.87l-.02,2.89Z"/>
    <path class="cls-7" d="M69.74,244.87h-3.51v3.51h3.51v-3.51Z"/>
    <path class="cls-7" d="M69.98,210.23l-17.97.21-1.16,23.01h19.67l-.54-23.22ZM63.66,229.39h-3.5v-3.5h3.5v3.5Z"/>
    <path class="cls-9" d="M51.47,440.12l61.02,1.09-29.73-39.55-31.28,38.46Z"/>
    <path class="cls-9" d="M79.81,471.12h-10.34v10.69h10.34v-10.69Z"/>
    <path class="cls-9" d="M89.68,482.83h-10.34v10.69h10.34v-10.69Z"/>
    <path class="cls-9" d="M77.41,497.23h-7.94v8.22h7.94v-8.22Z"/>
    <path class="cls-9" d="M96.62,473.68h-7.94v8.22h7.94v-8.22Z"/>
    <path class="cls-9" d="M69.47,483.75h-5.67v5.87h5.67v-5.87Z"/>
    <path class="cls-9" d="M85.98,515.77h-6.67v-6.88h6.67v6.88ZM80.31,514.76h4.68v-4.85h-4.68v4.85Z"/>
    <path class="cls-9" d="M95.49,492.94h-5.67v5.87h5.67v-5.87Z"/>
    <path class="cls-9" d="M95.89,434.96l-29.11.36-1.85,38.52h31.79l-.83-38.88ZM85.69,467.01h-5.71v-5.86h5.71v5.86Z"/>
    <path class="cls-4" d="M64.93,97.83l62.98,1.09-30.66-39.5-32.32,38.41Z"/>
    <path class="cls-4" d="M94.21,128.78h-10.68v10.68h10.68v-10.68Z"/>
    <path class="cls-4" d="M104.4,140.47h-10.68v10.68h10.68v-10.68Z"/>
    <path class="cls-4" d="M91.73,154.85h-8.2v8.2h8.2v-8.2Z"/>
    <path class="cls-4" d="M111.56,131.35h-8.2v8.2h8.2v-8.2Z"/>
    <path class="cls-4" d="M83.53,141.4h-5.86v5.86h5.86v-5.86Z"/>
    <path class="cls-4" d="M100.57,173.36h-6.87v-6.87h6.87v6.87ZM94.72,172.34h4.83v-4.83h-4.83v4.83Z"/>
    <path class="cls-4" d="M110.39,150.57h-5.86v5.86h5.86v-5.86Z"/>
    <path class="cls-4" d="M110.83,92.69l-30.05.36-1.92,38.45h32.81l-.84-38.81ZM100.26,124.68h-5.82v-5.86h5.86l-.03,5.86Z"/>
    <path class="cls-7" d="M400.39,428.78l54.1.91-26.36-33.87-27.74,32.97Z"/>
    <path class="cls-7" d="M425.47,455.36h-9.17v9.17h9.17v-9.17Z"/>
    <path class="cls-7" d="M434.23,465.39h-9.17v9.17h9.17v-9.17Z"/>
    <path class="cls-7" d="M423.35,477.74h-7.05v7.05h7.05v-7.05Z"/>
    <path class="cls-7" d="M440.38,457.56h-7.05v7.05h7.05v-7.05Z"/>
    <path class="cls-7" d="M416.3,466.19h-5.03v5.03h5.03v-5.03Z"/>
    <path class="cls-7" d="M430.98,493.65h-5.9v-5.9h5.9v5.9ZM425.95,492.77h4.15v-4.15h-4.15v4.15Z"/>
    <path class="cls-7" d="M439.36,474.07h-5.03v5.03h5.03v-5.03Z"/>
    <path class="cls-7" d="M439.72,424.35l-25.81.31-1.66,33.03h28.2l-.73-33.34ZM430.64,451.83h-5.04v-4.99h5.04v4.99Z"/>
    <path class="cls-7" d="M383.05,77.11l54.1.91-26.37-33.87-27.73,32.97Z"/>
    <path class="cls-7" d="M408.17,103.69h-9.17v9.17h9.17v-9.17Z"/>
    <path class="cls-7" d="M416.92,113.72h-9.17v9.17h9.17v-9.17Z"/>
    <path class="cls-7" d="M406.05,126.07h-7.05v7.05h7.05v-7.05Z"/>
    <path class="cls-7" d="M423.08,105.89h-7.05v7.05h7.05v-7.05Z"/>
    <path class="cls-7" d="M399,114.52h-5.03v5.03h5.03v-5.03Z"/>
    <path class="cls-7" d="M413.63,141.98h-5.9v-5.9h5.9v5.9ZM408.6,141.1h4.15v-4.15h-4.15v4.15Z"/>
    <path class="cls-7" d="M422.07,122.4h-5.03v5.03h5.03v-5.03Z"/>
    <path class="cls-7" d="M422.43,72.68l-25.81.31-1.69,33.03h28.21l-.71-33.34ZM413.35,100.16h-5.03v-5.03h5.03v5.03Z"/>
    <path class="cls-9" d="M454.9,263.7l62.39,1.09-30.4-39.1-31.99,38Z"/>
    <path class="cls-9" d="M483.88,294.36h-10.58v10.58h10.58v-10.58Z"/>
    <path class="cls-9" d="M493.97,305.95h-10.58v10.58h10.58v-10.58Z"/>
    <path class="cls-9" d="M481.43,320.18h-8.13v8.13h8.13v-8.13Z"/>
    <path class="cls-9" d="M501.08,296.9h-8.13v8.13h8.13v-8.13Z"/>
    <path class="cls-9" d="M473.3,306.87h-5.8v5.8h5.8v-5.8Z"/>
    <path class="cls-9" d="M490.18,338.53h-6.75v-6.81h6.81l-.05,6.81ZM484.38,337.53h4.8v-4.8h-4.8v4.8Z"/>
    <path class="cls-9" d="M499.91,315.94h-5.8v5.8h5.8v-5.8Z"/>
    <path class="cls-9" d="M500.32,258.6l-29.76.36-1.91,38.09h32.53l-.85-38.45ZM489.85,290.29h-5.8v-5.8h5.8v5.8Z"/>
    <path class="cls-8" d="M338.15,166.47h-9.81v8.94h9.81v-8.94Z"/>
    <path class="cls-8" d="M232.25,165.64h-4.13v3.26h4.13v-3.26Z"/>
    <path class="cls-8" d="M328.38,159.61h-4.13v3.26h4.13v-3.26Z"/>
    <path class="cls-10" d="M295.06,143.07h-6.29v5.82h6.29v-5.82Z"/>
    <path class="cls-8" d="M229.46,175.56h-12.25v10.8h12.25v-10.8Z"/>
    <path class="cls-10" d="M269.56,151.82h-3.94v3.26h3.94v-3.26Z"/>
    <path class="cls-10" d="M318.98,159.67h-78.37l-.91,176.76h79.27v-176.76Z"/>
    <path class="cls-13" d="M283.29,158.01h-8.52v7.04h8.52v-7.04Z"/>
    <path class="cls-13" d="M307.74,158.12h-8.18v11.58h8.18v-11.58Z"/>
    <path class="cls-13" d="M314.49,157.94h-5.41v9.77h5.41v-9.77Z"/>
    <path class="cls-13" d="M249.13,158.48h-7.31v10.41h7.31v-10.41Z"/>
    <path class="cls-13" d="M260.7,159.19h-3.98v7.28h3.98v-7.28Z"/>
    <path class="cls-10" d="M295.42,155.27h-7.77v6.4h7.77v-6.4Z"/>
    <path class="cls-10" d="M276.79,111.05c-.01.65-.22,1.27-.58,1.8-.37.53-.88.94-1.48,1.18-.6.24-1.26.29-1.89.16-.63-.13-1.21-.45-1.66-.91-.45-.46-.76-1.05-.88-1.68-.12-.63-.05-1.29.2-1.88.25-.6.67-1.1,1.21-1.46.54-.36,1.17-.55,1.81-.55.44,0,.87.09,1.27.26.4.17.77.42,1.07.73.31.31.55.68.71,1.09.16.41.24.84.23,1.27Z"/>
    <path class="cls-10" d="M211.31,100.19c1.82,0,3.3-1.5,3.3-3.34s-1.48-3.34-3.3-3.34-3.3,1.5-3.3,3.34,1.48,3.34,3.3,3.34Z"/>
    <path class="cls-10" d="M241.29,161.56h-1.09l.87-56.45h-38.09l.87-.92c.25-.26,6.16-6.56,7.55-7.52l.65.87c-.91.68-4.28,4.13-6.56,6.47h36.66l-.86,57.54Z"/>
    <path class="cls-10" d="M221.39,89.98c.04.66-.11,1.31-.44,1.88-.33.57-.83,1.02-1.42,1.3-.59.28-1.26.38-1.91.28-.65-.1-1.25-.39-1.73-.84-.48-.45-.82-1.03-.96-1.67-.15-.64-.09-1.31.15-1.92.24-.61.66-1.14,1.2-1.51.54-.37,1.18-.57,1.84-.57.84-.03,1.66.28,2.27.85.62.57.98,1.37,1.01,2.21Z"/>
    <path class="cls-10" d="M227.49,82.3c.04.66-.11,1.31-.44,1.88-.33.57-.83,1.02-1.42,1.3-.59.28-1.26.38-1.91.28-.65-.1-1.25-.39-1.73-.84-.48-.45-.82-1.03-.96-1.67-.15-.64-.09-1.31.15-1.92.24-.61.66-1.14,1.2-1.51.54-.37,1.18-.57,1.84-.57.84-.03,1.66.28,2.27.85.61.57.98,1.37,1.01,2.21Z"/>
    <path class="cls-10" d="M246.67,67.49c1.56,0,2.83-1.37,2.83-3.06s-1.27-3.06-2.83-3.06-2.83,1.37-2.83,3.06,1.27,3.06,2.83,3.06Z"/>
    <path class="cls-10" d="M276.48,67.53c0,.6-.19,1.18-.52,1.68-.34.5-.81.88-1.37,1.11s-1.16.28-1.75.16c-.59-.12-1.13-.41-1.55-.84-.42-.43-.71-.97-.82-1.56-.12-.59-.05-1.2.18-1.75.23-.55.62-1.03,1.12-1.36.5-.33,1.09-.51,1.69-.51.81,0,1.58.33,2.15.9.57.57.89,1.35.89,2.16Z"/>
    <path class="cls-10" d="M282.76,42.55c0,.6-.19,1.18-.53,1.67-.34.49-.81.88-1.36,1.1-.55.22-1.16.28-1.75.16-.58-.12-1.12-.41-1.54-.84-.42-.42-.7-.96-.82-1.55-.11-.59-.05-1.19.18-1.74.23-.55.62-1.02,1.12-1.35s1.08-.51,1.68-.51c.81,0,1.58.33,2.15.9.57.57.88,1.35.88,2.16Z"/>
    <path class="cls-10" d="M298.8,50.81c1.64,0,2.96-1.37,2.96-3.06s-1.32-3.06-2.96-3.06-2.96,1.37-2.96,3.06,1.32,3.06,2.96,3.06Z"/>
    <path class="cls-10" d="M330.46,76.12c-.04.55-.25,1.08-.59,1.51-.34.44-.8.76-1.32.94-.52.18-1.08.2-1.62.07-.53-.13-1.02-.42-1.39-.83-.37-.41-.62-.91-.72-1.45-.09-.54-.02-1.1.2-1.61.22-.51.58-.94,1.04-1.24.46-.3,1-.47,1.55-.47.39.01.77.1,1.12.27.35.16.67.39.94.68.26.29.47.62.6.98.13.36.19.75.18,1.14Z"/>
    <path class="cls-10" d="M287.91,83.6c-.02.58-.21,1.14-.55,1.61-.34.47-.81.83-1.34,1.04-.54.21-1.13.25-1.7.12-.56-.13-1.08-.42-1.48-.83-.4-.42-.67-.94-.78-1.51-.11-.57-.04-1.16.18-1.69.23-.53.6-.99,1.09-1.31.48-.32,1.05-.49,1.63-.49.39,0,.78.09,1.14.25.36.16.69.39.96.67.27.28.49.62.63.99.15.37.22.76.21,1.15Z"/>
    <path class="cls-10" d="M301.02,82.59c-.02.58-.22,1.14-.56,1.61-.34.47-.81.83-1.35,1.03-.54.2-1.13.25-1.69.12-.56-.13-1.08-.42-1.48-.84-.4-.42-.67-.94-.77-1.51-.1-.57-.04-1.16.19-1.69.23-.53.61-.98,1.09-1.3.48-.32,1.05-.49,1.63-.48.4,0,.79.09,1.15.25.36.16.69.39.96.67.27.29.49.62.63.99.14.37.21.76.2,1.16Z"/>
    <path class="cls-10" d="M337.24,90.19c1.56,0,2.83-1.37,2.83-3.06s-1.27-3.06-2.83-3.06-2.83,1.37-2.83,3.06,1.27,3.06,2.83,3.06Z"/>
    <path class="cls-10" d="M291.74,35.99c0,.6-.19,1.18-.53,1.67-.34.49-.81.88-1.37,1.1-.55.22-1.16.28-1.75.16-.59-.12-1.12-.41-1.54-.84-.42-.43-.7-.97-.82-1.55-.11-.59-.05-1.19.18-1.75.23-.55.62-1.02,1.12-1.35.5-.33,1.08-.5,1.68-.5.81,0,1.57.34,2.14.91.56.57.88,1.35.88,2.15Z"/>
    <path class="cls-10" d="M261.82,165.92h-1.09v-35.96c-.92-.69-5.59-3.51-8.51-5.24l-.27-.15v-27.74l-21.72-.25-9.83-6.69.62-.91,9.52,6.56,22.48.25v28.2c8.74,5.21,8.74,5.39,8.74,5.78l.08,36.16Z"/>
    <path class="cls-10" d="M274.82,163.5h-1.09v-37.27l-10.53-7.39v-32.68l-23.57-15.48c-4.5,4.2-11.03,10.33-11.38,10.74l-.84-.71c.49-.58,10.63-10.05,11.78-11.12l.32-.3,24.79,16.28v32.7l10.53,7.39v37.84Z"/>
    <path class="cls-10" d="M274.05,111.72h-1.09v-34.1l15.32-9.92v-28.82h1.09v29.41l-15.32,9.92v33.51Z"/>
    <path class="cls-10" d="M273.99,67.53h-1.09v-15.28l6.29-3.11v-6.64h1.09v7.32l-6.29,3.11v14.6Z"/>
    <path class="cls-10" d="M284.33,164.44h-1.09v-41.62l8.76-7.74v-5.38l-7.34-6.64v-17.2h1.09v16.71l7.34,6.65v6.35l-8.76,7.74v41.13Z"/>
    <path class="cls-10" d="M299.55,82.59h-1.09v85.46h1.09v-85.46Z"/>
    <path class="cls-10" d="M308.95,169.43h-1.09l.21-73.54,14.42-9.15h15.11v1.09h-14.79l-13.65,8.66-.21,72.93Z"/>
    <path class="cls-10" d="M319.09,177.47h-1.09v-74.04l34.57-.89-14.61-13.35.73-.8,16.62,15.18-36.22.92v72.98Z"/>
    <path class="cls-10" d="M328.27,76.8l-12.9-2.38-15.51-16v-.16c-.44-2.33-1.85-9.97-1.85-10.51h1.09c0,.47,1.09,6.41,1.79,10.16l15.11,15.51,12.57,2.33-.31,1.06Z"/>
    <path class="cls-10" d="M248.61,63.69l-.33-1.04,8.82-2.8,7.02-6.98-5.85-3.97,21.44-22.1,8.56,7.78-.73.81-7.78-7.07-19.79,20.41,5.87,3.98-8.15,8.11-9.07,2.87Z"/>
    <path class="cls-8" d="M338.15,186.35h-8.31v8.3h8.31v-8.3Z"/>
    <path class="cls-8" d="M213.11,173.22h-9.41v-9.39h9.41v9.39ZM204.8,172.13h7.22v-7.2h-7.22v7.2Z"/>
    <path class="cls-11" d="M152.81,267.84h-16.61v16.61h16.61v-16.61Z"/>
    <path class="cls-11" d="M418.39,270.02h-16.61v16.61h16.61v-16.61Z"/>
    <path class="cls-11" d="M393.81,236.97h-4.15v4.15h4.15v-4.15Z"/>
    <path class="cls-5" d="M351.48,225.27h-8.05v8.05h8.05v-8.05Z"/>
    <path class="cls-5" d="M341.43,217.56h-4.92v4.92h4.92v-4.92Z"/>
    <path class="cls-5" d="M358.98,202.36h-6v-6.01h6v6.01ZM354.08,201.27h3.81v-3.82h-3.81v3.82Z"/>
    <path class="cls-11" d="M405.37,250.32h-7.52v-7.51h7.52v7.51ZM398.94,249.23h5.33v-5.32h-5.33v5.32Z"/>
    <path class="cls-11" d="M120.09,267.12h-7.51v-7.51h7.51v7.51ZM113.68,266.03h5.32v-5.32h-5.32v5.32Z"/>
    <path class="cls-5" d="M206.63,250.11h-10.9v10.91h10.9v-10.91Z"/>
    <path class="cls-5" d="M212.16,232.04h-5.54v5.54h5.54v-5.54Z"/>
    <path class="cls-11" d="M152.73,194.92h-5.54v5.54h5.54v-5.54Z"/>
    <path class="cls-11" d="M427.32,290.94h-5.54v5.54h5.54v-5.54Z"/>
    <path class="cls-11" d="M136.9,295.64h-5.54v5.54h5.54v-5.54Z"/>
    <path class="cls-5" d="M200.34,218.57h-9.43v9.43h9.43v-9.43Z"/>
    <path class="cls-5" d="M225.36,214.59h-8.54v-8.58h8.59l-.04,8.58ZM217.87,213.5h6.4v-6.39h-6.36l-.04,6.39Z"/>
    <g class="cls-14">
      <path class="cls-3" d="M349.22,431.13c.16-.76.33-1.56.49-2.36l-.95,2.36h.46Z"/>
    </g>
    <path class="cls-5" d="M332.06,272.87l27.66.47-13.47-17.33-14.18,16.86Z"/>
    <path class="cls-5" d="M345.22,286.46h-4.69v4.69h4.69v-4.69Z"/>
    <path class="cls-5" d="M349.5,291.41h-4.28v4.17h4.28v-4.17Z"/>
    <path class="cls-5" d="M344.35,297.35h-3.6v3.61h3.6v-3.61Z"/>
    <path class="cls-5" d="M353.11,287.59h-3.6v3.6h3.6v-3.6Z"/>
    <path class="cls-5" d="M340.31,291.41h-2.57v2.57h2.57v-2.57Z"/>
    <path class="cls-5" d="M348.55,306.36h-3.66v-3.66h3.66v3.66ZM345.98,305.27h1.47v-1.48h-1.47v1.48Z"/>
    <path class="cls-5" d="M352.25,295.84h-2.57v2.57h2.57v-2.57Z"/>
    <path class="cls-5" d="M353.05,270.61l-14.37.16v16.88h14.41l-.04-17.04ZM348.46,284.66h-2.57v-2.57h2.57v2.57Z"/>
    <path class="cls-8" d="M239.16,381.53l30.87.52-15.04-19.35-15.83,18.83Z"/>
    <path class="cls-8" d="M253.5,396.69h-5.23v5.23h5.23v-5.23Z"/>
    <path class="cls-8" d="M258.49,402.43h-5.23v5.23h5.23v-5.23Z"/>
    <path class="cls-8" d="M252.28,409.48h-4.02v4.02h4.02v-4.02Z"/>
    <path class="cls-8" d="M262.01,397.95h-4.02v4.02h4.02v-4.02Z"/>
    <path class="cls-8" d="M248.28,402.88h-2.87v2.87h2.87v-2.87Z"/>
    <path class="cls-8" d="M261.43,407.38h-2.87v2.87h2.87v-2.87Z"/>
    <path class="cls-8" d="M261.62,379l-14.73.17-.95,18.85h16.12l-.44-19.02ZM256.44,394.68h-2.87v-2.86h2.87v2.86Z"/>
    <path class="cls-5" d="M187.57,304.02l45.02.75-21.93-28.21-23.09,27.46Z"/>
    <path class="cls-5" d="M208.47,326.15h-7.63v7.63h7.63v-7.63Z"/>
    <path class="cls-5" d="M215.02,333.86h-6.54v6.54h6.54v-6.54Z"/>
    <path class="cls-5" d="M206.71,341.85h-5.87v5.87h5.87v-5.87Z"/>
    <path class="cls-5" d="M220.88,327.97h-5.87v5.87h5.87v-5.87Z"/>
    <path class="cls-5" d="M200.84,334.5h-4.18v4.19h4.18v-4.19Z"/>
    <path class="cls-5" d="M213.33,355.39h-5.25v-5.28h5.28l-.02,5.28ZM209.15,354.3h3.09v-3.09h-3.07l-.02,3.09Z"/>
    <path class="cls-5" d="M219.2,341.03h-4.18v4.19h4.18v-4.19Z"/>
    <path class="cls-5" d="M220.96,300.73l-23.3-.12-.19,27.47h23.48v-27.35ZM212.78,323.21h-4.18v-4.22h4.18v4.22Z"/>
    <path class="cls-8" d="M316.58,340.63l36.3.61-17.68-22.74-18.62,22.13Z"/>
    <path class="cls-8" d="M333.44,358.47h-6.15v6.15h6.15v-6.15Z"/>
    <path class="cls-8" d="M339.32,365.2h-6.15v6.15h6.15v-6.15Z"/>
    <path class="cls-8" d="M332.01,373.49h-4.72v4.72h4.72v-4.72Z"/>
    <path class="cls-8" d="M343.44,359.95h-4.72v4.72h4.72v-4.72Z"/>
    <path class="cls-8" d="M327.29,365.74h-3.38v3.38h3.38v-3.38Z"/>
    <path class="cls-8" d="M337.36,384.41h-4.47v-4.47h4.47v4.47ZM333.98,383.32h2.28v-2.28h-2.28v2.28Z"/>
    <path class="cls-8" d="M342.77,371.03h-3.38v3.38h3.38v-3.38Z"/>
    <path class="cls-8" d="M343.01,337.67l-17.32.21-1.09,22.16h18.93l-.51-22.37ZM337.92,356.24h-3.37v-3.37h3.37v3.37Z"/>
    <path class="cls-8" d="M45.52,302.67l45.03.75-21.94-28.21-23.09,27.46Z"/>
    <path class="cls-8" d="M66.43,324.8h-7.63v7.63h7.63v-7.63Z"/>
    <path class="cls-8" d="M72.98,332.51h-6.55v6.54h6.55v-6.54Z"/>
    <path class="cls-8" d="M64.66,340.5h-5.86v5.87h5.86v-5.87Z"/>
    <path class="cls-8" d="M78.83,326.62h-5.86v5.87h5.86v-5.87Z"/>
    <path class="cls-8" d="M58.8,333.14h-4.18v4.18h4.18v-4.18Z"/>
    <path class="cls-8" d="M70.74,349.3h-4.18v4.19h4.18v-4.19Z"/>
    <path class="cls-8" d="M77.16,339.68h-4.18v4.19h4.18v-4.19Z"/>
    <path class="cls-8" d="M78.91,299.38l-23.3-.12-.17,27.47h23.47v-27.35ZM70.75,321.86h-4.18v-4.18h4.18v4.18Z"/>
    <path class="cls-8" d="M461.19,460.3l34.79.59-16.93-21.8-17.87,21.21Z"/>
    <path class="cls-8" d="M477.36,477.4h-5.9v5.9h5.9v-5.9Z"/>
    <path class="cls-8" d="M482.41,483.37h-5.06v5.06h5.06v-5.06Z"/>
    <path class="cls-8" d="M475.99,489.53h-4.54v4.54h4.54v-4.54Z"/>
    <path class="cls-8" d="M486.95,478.81h-4.54v4.54h4.54v-4.54Z"/>
    <path class="cls-8" d="M471.45,483.86h-3.23v3.23h3.23v-3.23Z"/>
    <path class="cls-8" d="M480.69,496.33h-3.24v3.24h3.24v-3.24Z"/>
    <path class="cls-8" d="M485.65,488.91h-3.23v3.23h3.23v-3.23Z"/>
    <path class="cls-8" d="M486.99,457.76l-18-.1-.14,21.23h18.14v-21.13ZM480.69,475.14h-3.28v-3.28h3.28v3.28Z"/>
    <path class="cls-8" d="M457.56,134.12l45.02.76-21.93-28.21-23.09,27.45Z"/>
    <path class="cls-8" d="M478.46,156.25h-7.63v7.63h7.63v-7.63Z"/>
    <path class="cls-8" d="M485.01,163.96h-6.54v6.55h6.54v-6.55Z"/>
    <path class="cls-8" d="M476.7,171.95h-5.87v5.87h5.87v-5.87Z"/>
    <path class="cls-8" d="M490.87,158.09h-5.87v5.87h5.87v-5.87Z"/>
    <path class="cls-8" d="M470.83,164.61h-4.19v4.18h4.19v-4.18Z"/>
    <path class="cls-8" d="M482.77,180.76h-4.18v4.18h4.18v-4.18Z"/>
    <path class="cls-8" d="M489.19,171.14h-4.18v4.18h4.18v-4.18Z"/>
    <path class="cls-8" d="M490.95,130.84l-23.3-.13-.19,27.48h23.48v-27.35ZM482.78,153.32h-4.19v-4.18h4.19v4.18Z"/>
  </g>
  <g>
    <path class="cls-6" d="M241.97,238.88c-.16-4.84-2.55-20.92-2.7-25.76-2.13.04-4.24-.38-6.19-1.24-1.95-.86-3.69-2.13-5.09-3.73-1.41-1.6-2.45-3.48-3.05-5.52-.6-2.04-.76-4.19-.44-6.3.31-2.11,1.08-4.12,2.24-5.9,1.17-1.78,2.71-3.28,4.52-4.41,1.81-1.12,3.84-1.84,5.95-2.1,2.11-.26,4.26-.05,6.28.6-.93-4.59-.29-9.36,1.82-13.54,2.11-4.18,5.56-7.53,9.8-9.52,4.24-1.98,9.03-2.48,13.59-1.42,4.56,1.06,8.63,3.63,11.56,7.29.31-5.65,6.42-9.09,11.95-10.43,4.62-1.37,9.57-1.16,14.06.59,2.2.95,4.01,2.62,5.14,4.73,1.13,2.11,1.5,4.55,1.07,6.9,2-2.52,4.93-4.14,8.12-4.5,1.58-.18,3.19-.05,4.72.39,1.53.44,2.96,1.18,4.21,2.17,1.25.99,2.29,2.22,3.06,3.61.77,1.39,1.26,2.93,1.44,4.51.18,1.58.05,3.19-.39,4.72-.44,1.53-1.18,2.96-2.17,4.21,3.16,1.5,5.67,4.08,7.07,7.28,1.4,3.2,1.61,6.8.58,10.13-1.03,3.34-3.24,6.19-6.2,8.04-2.97,1.85-6.5,2.56-9.95,2.01"/>
    <path class="cls-2" d="M235.61,308.77l-48.05,22.94,9.43,118.2-1.09,75.9,148.71.09-.82-65.48,4.22-26.42,19.87-102.29-56.13-24.41-11.26-7.59-55.96.13-8.92,8.93Z"/>
    <g class="cls-14">
      <path class="cls-3" d="M197.53,495.32c2.46,3.11,7.12,3.28,11.01,2.46,13.11-2.61,25.01-12.02,38.24-10.45,8.47,1.03,16.72,6.56,24.91,4.21,2.83-.81,5.39-2.53,8.29-2.94,4.26-.59,8.31,1.7,12.12,3.68,16.2,8.39,34.32,12.4,52.55,11.64l7.44-19.82-66.65-17.29-53.42-3.06-34.44,20.13-.05,11.44Z"/>
    </g>
    <path class="cls-11" d="M268.81,524.79c-.15,0,.65-40.56,1.79-90.57,1.15-50.01,2.19-90.58,2.36-90.57.17,0-.65,40.55-1.79,90.58-1.15,50.03-2.2,90.57-2.36,90.56Z"/>
    <path class="cls-2" d="M365.78,331.71s12.66,3.43,19.32,30.95c2.81,11.58,17.45,108.07,15.44,121.5-2.01,13.43-22.3,27.07-52.66,22.86-16.75-2.33-45.59-17.05-45.59-17.05l22.24-29.65h21.37l8.45-6.33-6.81-26.15s13.28-87.66,18.24-96.14Z"/>
    <path class="cls-11" d="M385.24,454.93c-.05.1-1.58-.92-4.22-2.18-3.41-1.76-7.11-2.87-10.93-3.28-2.09-.16-4.19-.04-6.25.36l-1.38.32c-.44.12-.85.27-1.27.39-.74.25-1.47.54-2.19.86-2.67,1.22-4.15,2.33-4.22,2.19.31-.3.65-.57,1.02-.8.96-.67,1.97-1.27,3.03-1.78.73-.36,1.48-.68,2.25-.94.42-.14.84-.32,1.29-.44l1.4-.35c2.1-.44,4.26-.58,6.4-.41,3.88.39,7.63,1.56,11.05,3.44,1.03.55,2.04,1.15,3,1.81.37.23.7.5,1,.81Z"/>
    <path class="cls-11" d="M332.44,459.99c.31-.06.62-.09.93-.08l2.59-.08,9.28-.1h-.13l8.38-5.4-.08.07c.57-.67,1.15-1.39,1.82-2.04,1.2-1.25,2.52-2.37,3.95-3.34,3.59-2.48,7.7-4.09,12.02-4.69,1.81-.26,3.64-.32,5.46-.2.65.05,1.09.14,1.47.19.17.01.35.05.51.11-.67.01-1.33,0-2-.07-4.5-.13-8.98.81-13.05,2.74-1.43.67-2.79,1.47-4.09,2.37-1.4.96-2.7,2.05-3.87,3.28-.65.65-1.22,1.36-1.78,2l-8.51,5.45h-.08l-9.28-.1-2.59-.07c-.33,0-.66,0-.98-.05Z"/>
    <path class="cls-11" d="M272.96,343.64s.01.1,0,.15c0,.04-.01.07-.03.1-.02.03-.04.06-.07.07-.04.02-.09.03-.14.03s-.1,0-.14-.03c-.54-.24-1.04-.58-1.45-1-1.59-1.5-3.1-3.1-4.5-4.77-3.67-4.24-8.57-10.4-14.05-17.67h.4c-.54.74-.98,1.54-1.32,2.39-.4.87-.78,1.79-1.09,2.71-.73,1.86-1.43,3.78-2.11,5.74-1.16,3.41-2.27,6.75-3.03,9.93l-.16.68-.35-.59c-4-6.84-6.55-14.44-7.48-22.31-.27-2.29-.4-4.59-.38-6.89,0-.81,0-1.43.08-1.85,0-.22.02-.43.05-.64.03.21.03.43,0,.64v1.85c.05,2.29.23,4.58.54,6.85,1.05,7.8,3.65,15.3,7.65,22.07l-.51.08c.76-3.28,1.87-6.56,3.04-10,.68-1.97,1.38-3.9,2.12-5.76.37-.93.74-1.84,1.15-2.73.37-.91.86-1.77,1.45-2.56l.21-.24.21.27c5.46,7.29,10.29,13.48,13.88,17.77,1.79,2.19,3.28,3.81,4.37,4.86.39.44.85.81,1.35,1.09.19.08.31,0,.33-.11.02-.11,0-.14.02-.13Z"/>
    <path class="cls-11" d="M312.57,308.26c.04.19.06.39.05.59v1.72c0,1.49-.09,3.67-.33,6.38-.44,5.46-1.73,13-3.09,21.7l-.1.65-.39-.52c-1.96-2.59-3.85-5.46-5.8-8.5-1.53-2.34-3.04-4.61-4.62-6.72l.38.05c-7.55,5.46-14.34,10.02-18.76,13.85-2.24,1.86-3.98,3.42-5.16,4.51l-1.34,1.26c-.15.16-.31.3-.48.43,0,0,.12-.19.4-.49.28-.31.72-.77,1.29-1.33,1.09-1.09,2.84-2.74,5.06-4.66,4.37-3.9,11.12-8.53,18.67-14.02l.22-.15.16.22c1.6,2.12,3.13,4.37,4.66,6.75,1.95,2.99,3.82,5.9,5.76,8.48l-.49.12c1.41-8.74,2.75-16.23,3.28-21.65.28-2.7.44-4.86.49-6.36v-1.71c.03-.2.08-.4.14-.59Z"/>
    <path class="cls-11" d="M340.89,390.8c0,.15-8.66-.51-19.32-1.48-10.65-.97-19.28-1.89-19.26-2.06.02-.16,8.65.51,19.32,1.49,10.66.97,19.28,1.89,19.27,2.05Z"/>
    <path class="cls-12" d="M325.78,217.45c-.44-11.15-5.06-21.72-12.94-29.62-7.88-7.9-18.45-12.54-29.59-13l-2.29-.09c-24.84.43-38.34,21.75-37.24,46.56l2.32,82.13,26.9,37.28,28.41-30.87c0-6.99,0-9.1.05-9.1s23.96-2.72,25.24-26.52c.64-11.49-.01-35.27-.85-56.78Z"/>
    <path class="cls-1" d="M301.41,300.74s-15.05.26-30.59-10.45c0,0,6.72,18.2,30.59,17.04v-6.6Z"/>
    <path class="cls-11" d="M314.67,238.75c-.03.89-.41,1.72-1.05,2.33-.64.61-1.49.95-2.38.94-.43.01-.86-.06-1.27-.21-.4-.16-.77-.39-1.09-.69-.31-.3-.56-.66-.74-1.05-.17-.4-.27-.82-.28-1.26.03-.88.41-1.72,1.04-2.33s1.49-.95,2.38-.95c.43-.01.87.06,1.27.21.41.16.78.39,1.09.69.32.3.57.66.74,1.05.17.4.27.83.28,1.26Z"/>
    <path class="cls-6" d="M320.28,227.75c-.45.43-2.94-1.58-6.56-1.73-3.62-.14-6.41,1.57-6.8,1.09-.19-.21.27-.99,1.48-1.79,1.63-1.03,3.54-1.54,5.46-1.44,1.9.08,3.73.75,5.22,1.94,1.05.93,1.39,1.75,1.18,1.93Z"/>
    <path class="cls-11" d="M282.05,238.75c-.03.88-.41,1.72-1.04,2.33s-1.49.95-2.38.95c-.43.01-.86-.06-1.27-.21-.41-.16-.78-.39-1.09-.69-.32-.3-.57-.66-.74-1.05-.17-.4-.27-.82-.28-1.26.03-.88.4-1.72,1.04-2.33.64-.61,1.48-.95,2.37-.95.43-.01.87.06,1.27.21.41.16.78.39,1.09.69.32.3.57.66.74,1.05.18.4.27.83.28,1.26Z"/>
    <path class="cls-6" d="M285.16,227.75c-.45.43-2.94-1.58-6.56-1.73-3.62-.14-6.41,1.57-6.8,1.09-.19-.21.27-.99,1.48-1.79,1.63-1.03,3.54-1.54,5.46-1.44,1.9.08,3.73.75,5.22,1.94,1.04.93,1.39,1.75,1.18,1.93Z"/>
    <path class="cls-11" d="M296.34,255.78c0-.21,2.28-.51,5.99-.83.94-.05,1.84-.21,2.01-.84.12-.96-.05-1.93-.5-2.78l-2.47-7.23c-3.42-10.28-5.86-18.73-5.46-18.86.39-.13,3.53,8.09,6.94,18.38.83,2.53,1.61,4.95,2.36,7.27.53,1.15.65,2.45.33,3.68-.15.33-.37.61-.65.84-.28.22-.6.38-.95.46-.52.12-1.06.18-1.6.16-3.69.04-5.99-.03-6-.24Z"/>
    <path class="cls-6" d="M285.15,219.71c-.49.93-3.6-.13-7.45-.32-3.85-.18-7.09.4-7.43-.56-.14-.47.56-1.29,1.96-2.01,1.8-.86,3.8-1.24,5.79-1.09,1.98.09,3.89.71,5.55,1.79,1.26.85,1.81,1.75,1.58,2.18Z"/>
    <path class="cls-6" d="M320.89,213.95c-.79.81-3.75-.13-7.33-.27-3.58-.14-6.63.39-7.3-.5-.3-.43.2-1.25,1.55-2,1.86-.9,3.91-1.31,5.98-1.2,2.06.11,4.06.74,5.81,1.82,1.24.89,1.63,1.75,1.29,2.15Z"/>
    <path class="cls-11" d="M284.85,258.06c.57,0,.59,3.7,3.8,6.35,3.21,2.64,7.2,2.18,7.23,2.73.05.24-.89.73-2.57.79-2.19.04-4.33-.69-6.04-2.06-1.63-1.33-2.69-3.24-2.94-5.33-.15-1.59.23-2.47.51-2.47Z"/>
    <path class="cls-2" d="M189.5,332.45s-14.07,11.39-17.71,28.07c-3.64,16.68-23.62,93.47-24.13,104.79-.5,11.32,0,35.44,20.92,35.93s73.89-23.92,73.89-23.92l-10.11-30.59-33.02.91-9.85-115.18Z"/>
    <path class="cls-11" d="M232.38,446.68c-.27.06-.54.1-.81.11l-2.32.17-8.56.56-12.69.74-7.48.43c-2.67.09-5.33.36-7.97.79-1.38.22-2.78.22-4.16,0-1.34-.16-2.64-.4-3.92-.52-2.47-.16-4.95.06-7.35.64-4.08,1.05-7.86,3.06-11.01,5.85-2.15,1.87-4.04,4.01-5.62,6.38-.57.83-.97,1.5-1.23,1.96-.12.25-.27.48-.45.69.09-.26.21-.51.35-.74.34-.7.72-1.37,1.15-2.02,1.53-2.43,3.39-4.64,5.53-6.56,3.19-2.88,7.02-4.95,11.17-6.04,2.46-.62,5-.85,7.53-.7,1.31.12,2.61.36,3.94.52,1.32.2,2.66.2,3.98,0,2.66-.44,5.35-.7,8.05-.79l7.49-.38,12.69-.63,8.57-.37,2.33-.08c.27-.02.54-.02.81,0Z"/>
    <path class="cls-11" d="M200.25,447.57c-.06-.24-.1-.49-.11-.74-.05-.56-.13-1.27-.22-2.18-.17-1.94-.44-4.62-.74-7.9-.64-6.68-1.64-15.88-2.76-26.05-1.13-10.17-2.05-19.32-2.55-26.04-.27-3.34-.47-6.04-.57-7.92,0-.88-.08-1.61-.11-2.19-.01-.25-.01-.5,0-.75.07.24.11.49.12.74.05.55.12,1.26.21,2.18.19,1.92.44,4.61.75,7.9.63,6.67,1.64,15.88,2.75,26.05,1.11,10.17,2.05,19.38,2.6,26.06.27,3.34.46,6.05.57,7.92,0,.9.08,1.61.1,2.19.01.24,0,.49-.04.73Z"/>
    <path class="cls-11" d="M240.47,478.23c-.16.12-.33.23-.5.32l-1.5.81c-1.3.7-3.21,1.64-5.61,2.75-4.77,2.18-11.49,5.09-19.05,7.88-7.55,2.79-14.49,5.03-19.57,6.47-2.53.73-4.6,1.26-6.03,1.61l-1.66.37c-.19.06-.39.09-.59.09.18-.09.37-.16.57-.2l1.63-.48c1.41-.4,3.46-.99,5.98-1.77,5.04-1.54,11.94-3.82,19.48-6.62,7.54-2.8,14.21-5.57,19.08-7.7,2.4-1.09,4.37-1.96,5.67-2.59l1.54-.72c.17-.1.36-.16.56-.21Z"/>
    <path class="cls-11" d="M359.84,356.48c.01.09.01.18,0,.27,0,.21,0,.47-.08.79-.08.74-.19,1.76-.32,3.04-.28,2.63-.74,6.44-1.33,11.13-1.18,9.4-2.96,22.37-5.16,36.65-2.2,14.28-4.37,27.2-5.92,36.54-.81,4.63-1.47,8.39-1.93,11.05-.23,1.27-.42,2.27-.56,2.99-.07.32-.12.58-.15.79-.01.09-.04.18-.08.26-.02-.09-.02-.18,0-.27,0-.22.06-.47.11-.79.11-.74.26-1.75.45-3.01.43-2.67,1.02-6.44,1.75-11.08,1.5-9.35,3.58-22.27,5.77-36.56,2.19-14.29,4.04-27.23,5.39-36.57.63-4.66,1.15-8.44,1.51-11.11.17-1.27.32-2.28.43-3.02,0-.32.09-.58.12-.79-.01-.1,0-.2.01-.31Z"/>
    <path class="cls-11" d="M359.42,507.13c-.2.03-.4.03-.6,0l-1.73-.15c-1.5-.14-3.65-.43-6.31-.85-6.92-1.14-13.75-2.77-20.43-4.87-3.91-1.25-7.65-2.59-10.93-3.91-3.28-1.32-6.22-2.65-8.62-3.86-1.21-.58-2.29-1.15-3.28-1.65-.98-.5-1.76-.94-2.4-1.32l-1.5-.87c-.18-.09-.35-.21-.5-.34.2.06.39.14.57.24l1.54.78c.66.36,1.47.76,2.44,1.23.96.47,2.04,1.02,3.28,1.56,2.42,1.16,5.35,2.4,8.64,3.74,3.29,1.33,6.97,2.62,10.87,3.86,6.66,2.1,13.45,3.77,20.32,5.02,2.64.48,4.79.83,6.27,1.04l1.7.26c.22,0,.44.04.65.11Z"/>
    <g class="cls-14">
      <path class="cls-3" d="M308.92,339.18c-3.88-4.69-6.48-10.71-9.77-15.81-9.48,5.75-18.27,12.55-26.22,20.27,7.65-4.37,15.3-8.4,22.74-13.11l13.82,17.9c.29-5.78.58-11.57.87-17.35l-1.44,8.11Z"/>
    </g>
    <g class="cls-14">
      <path class="cls-3" d="M358.46,365.54c-2.49,19.23-4.76,43.07-8.74,62.4,3.82-9.58,7.55-19.24,9.66-29.33,2.27-10.93,2.59-22.49-.92-33.08Z"/>
    </g>
    <path class="cls-12" d="M236,427.71s-6.67,3.41-7.65,6.16c-.56,1.85-.56,3.83,0,5.68l3.61,11.86v12.34s2.9,12.53,5.65,13.81c2.75,1.28,7.65,1.09,10.93-4.07,1.87-2.93,3.34-6.1,4.37-9.42l5.68-23.55,1.63-12.02-15.43,7.96-4.37,5.99-4.26-6.8s3.47-3.41,3.2-5.53c-.27-2.12-3.35-2.41-3.35-2.41Z"/>
    <path class="cls-1" d="M232.4,436.61c0-.16.91-.15,1.94-.37,1.04-.22,1.85-.58,1.94-.44.09.14-.67.75-1.81.99-1.15.24-2.1-.04-2.06-.18Z"/>
    <path class="cls-11" d="M239.37,469.22l1.09-50.04c0-1.69.65-3.31,1.81-4.53,1.17-1.22,2.76-1.95,4.45-2.02l85.44-1.88c1.01.01,2,.25,2.91.71.9.45,1.69,1.11,2.3,1.91.61.8,1.03,1.74,1.23,2.73.2.99.16,2.01-.09,2.99l-12.81,54.46c-.31,1.46-1.13,2.77-2.3,3.7-1.17.93-2.63,1.43-4.13,1.4l-73.72-2.53c-1.73-.1-3.36-.87-4.51-2.16-1.16-1.29-1.76-2.99-1.67-4.72Z"/>
    <path class="cls-13" d="M293.3,425.85l-.68-.11c-.88-.05-1.76.23-2.43.81-.68.57-1.11,1.38-1.21,2.26-.1.88.15,1.76.68,2.47.54.7,1.32,1.18,2.2,1.32.87.14,1.77-.06,2.5-.56.73-.5,1.24-1.26,1.43-2.13.18-.87.03-1.77-.44-2.53-.46-.75-1.2-1.3-2.06-1.53Z"/>
    <path class="cls-5" d="M329.36,416.36c0,.16-18.27.6-40.81.98-22.54.38-40.81.58-40.82.41-.01-.16,18.27-.59,40.81-.98,22.54-.39,40.82-.57,40.82-.42Z"/>
    <path class="cls-12" d="M262.38,427.89s4.74-4.73,10.38-1.57c5.64,3.16,24.61,16.7,31.15,18.5,6.54,1.8,13.11,3.17,18.05,0,4.94-3.17,8.58-7.22,8.81-11.28.23-4.05,2.7-12.87,8.12-13.11l2.71,2.03s-1.09,13.11-1.09,18.73-5,13.56-5,13.56l-3.64,6.24,1.87,6.87s-2.26,10.38-7.9,15.8c-5.64,5.42-16.74,5.64-16.74,5.64l-36.06-22.56-33.62-9.93s.9-4.51,5.46-4.74c4.57-.23,11.96,2.82,11.96,2.82l-17.47-13.24c.3-1.37,1.14-2.57,2.32-3.34,1.18-.76,2.62-1.02,4-.73,5.46.68,24.83,12.02,24.83,12.02l-19.82-19.89s-.45-5.19,4.29-5.46c1.43-.01,2.85.31,4.13.94,1.28.64,2.4,1.56,3.26,2.71Z"/>
    <path class="cls-1" d="M290.4,449.89c-.43-.18-.84-.41-1.22-.69-.78-.47-1.88-1.17-3.28-2.05-2.7-1.77-6.43-4.26-10.38-7.21-3.41-2.49-6.65-5.2-9.7-8.12-1.16-1.09-2.04-2.11-2.62-2.8-.32-.33-.61-.7-.85-1.09.37.29.71.62,1.01.98.62.65,1.55,1.57,2.73,2.66,3.12,2.82,6.38,5.47,9.77,7.95,3.94,2.95,7.65,5.46,10.27,7.34l3.12,2.18c.41.24.8.52,1.15.84Z"/>
    <path class="cls-1" d="M278.42,454.82c-1.84-.68-3.57-1.64-5.11-2.85-1.64-1.06-3.12-2.36-4.37-3.86.12-.12,2.12,1.55,4.74,3.4,2.62,1.85,4.82,3.17,4.74,3.31Z"/>
    <path class="cls-1" d="M273.02,463.82c-3.2-1.42-6.32-3.02-9.35-4.77-3.12-1.59-6.15-3.34-9.07-5.27,3.2,1.43,6.32,3.02,9.34,4.77,3.12,1.59,6.15,3.34,9.08,5.27Z"/>
    <path class="cls-6" d="M331,189.54c-.58-2.17-1.63-4.18-3.08-5.89-1.45-1.71-3.26-3.08-5.3-4.01-4.1-1.81-8.46-2.94-12.91-3.35-15.67-2.23-31.96-3.29-47.11,1.37-7.53,1.9-14.21,6.27-18.96,12.41-3.82,5.62-6.86,13.78-4.16,19.67l3.69,34.32c2.3.23,4.62.23,6.92,0v-27.4c1.98.29,4,.18,5.93-.34,2.83-.81,5.36-2.41,7.31-4.61,1.95-2.2,3.24-4.9,3.71-7.8,2.17,3.08,5.26,5.38,8.83,6.58,3.57,1.2,7.43,1.23,11.01.08,3.59-1.15,6.72-3.41,8.93-6.45,2.21-3.05,3.4-6.72,3.38-10.48,1.85,3.32,4.55,6.08,7.83,8.02,3.27,1.94,6.99,2.97,10.8,3,7.69-.28,14.74-7.67,13.19-15.11Z"/>
    <path class="cls-6" d="M238.06,180.14c-.37.31-2.45-1.8-5.52-3.54-3.07-1.74-5.93-2.51-5.83-3.1.09-.59,3.26-.37,6.64,1.58,3.38,1.96,5.06,4.84,4.72,5.06Z"/>
    <path class="cls-6" d="M238.93,174.88c-.4.22-2.08-2.64-2.76-6.58-.67-2.35-.54-4.87.37-7.14.69,2.23,1.11,4.53,1.24,6.86.63,2.24,1.02,4.54,1.15,6.86Z"/>
    <path class="cls-12" d="M244.93,239.01c-.4-.18-16.16-5.46-16.31,10.79-.15,16.25,16.24,13.11,16.27,12.62.03-.49.04-23.41.04-23.41Z"/>
    <path class="cls-1" d="M239.97,256.19c-.08,0-.28.2-.76.42-.7.29-1.49.29-2.19,0-1.72-.65-3.14-3.4-3.19-6.34-.03-1.4.26-2.78.84-4.05.16-.52.44-.99.82-1.37.38-.38.85-.66,1.37-.82.33-.08.67-.04.98.1.3.15.55.39.69.7.21.46.1.79.19.81.09.02.36-.27.23-.94-.09-.4-.31-.77-.63-1.03-.45-.34-1.01-.5-1.56-.44-.67.13-1.3.42-1.82.86-.52.44-.93,1-1.17,1.64-.71,1.41-1.06,2.96-1.03,4.54.08,3.28,1.73,6.37,4.08,7.08.44.13.9.16,1.34.09.45-.07.88-.24,1.26-.49.53-.36.62-.72.57-.75Z"/>
  </g>
</svg>