<?xml version="1.0" encoding="UTF-8"?>
<svg id="a" data-name="Layer 1" xmlns="http://www.w3.org/2000/svg" viewBox="0 0 566.9291 566.9291">
  <defs>
    <style>
      .b {
        fill: #e30613;
      }

      .b, .c, .d, .e, .f, .g, .h, .i {
        stroke-width: 0px;
      }

      .c {
        fill: #e0e0e0;
      }

      .d {
        fill: #fff;
      }

      .e {
        fill: #09f;
      }

      .f {
        fill: #fafafa;
      }

      .g {
        fill: #263238;
      }

      .h {
        fill: #ebebeb;
      }

      .i {
        fill: #455a64;
      }
    </style>
  </defs>
  <path class="c" d="M524.1329,57.5384h-78.7476v82.0884h78.7476V57.5384Z"/>
  <path class="f" d="M518.7968,57.5384h-78.7477v82.0884h78.7477V57.5384Z"/>
  <path class="c" d="M518.8208,139.65h-78.7942V57.5611h78.7942v82.089ZM440.0724,139.65h78.6682V57.5611h-78.6682v82.089Z"/>
  <path class="d" d="M508.2168,68.5632h-57.5764v60.0159h57.5764v-60.0159Z"/>
  <path class="c" d="M450.6411,128.9898c-.407.6056-.8852,1.1611-1.4249,1.6528-.9234.9692-2.2119,2.2802-3.6601,3.7058-1.4481,1.4249-2.7816,2.7021-3.762,3.6024-.4932.5299-1.0524.9939-1.6648,1.3799.4107-.5967.8845-1.1468,1.4137-1.6423.9234-.9692,2.2119-2.2801,3.6713-3.7163,1.4594-1.4369,2.7816-2.7021,3.762-3.6031.4992-.5239,1.0576-.9864,1.6648-1.3792Z"/>
  <path class="c" d="M508.2161,128.8414c.6042.4048,1.1588.8792,1.6528,1.4137.9692.9234,2.2809,2.2119,3.7058,3.6601,1.4249,1.4474,2.7022,2.7816,3.6024,3.762.5209.5052.9871,1.0629,1.3911,1.6648-.6108-.3958-1.167-.8717-1.6527-1.4137-.9692-.9122-2.2809-2.2119-3.7171-3.6601-1.4369-1.4481-2.7021-2.7928-3.6031-3.774-.5247-.4932-.988-1.0479-1.3792-1.6528Z"/>
  <path class="c" d="M508.0684,68.7342c.4048-.5975.8793-1.1448,1.4137-1.6304.9122-.9691,2.2119-2.2802,3.6593-3.7168,1.4481-1.4365,2.7704-2.6907,3.7628-3.6028.4924-.53,1.0524-.9938,1.6648-1.3795-.4018.5868-.8642,1.1295-1.3799,1.619-.9234.9691-2.2801,2.2802-3.6713,3.7168-1.3904,1.4366-2.7929,2.7021-3.7733,3.6142-.5052.5218-1.0674.9847-1.676,1.3796Z"/>
  <path class="c" d="M450.48,68.8712c-.6237-.3974-1.1941-.8725-1.6985-1.4137-.9692-.9235-2.2802-2.2119-3.7051-3.6598-1.4256-1.448-2.7021-2.7819-3.6031-3.7624-.5232-.5018-.9902-1.0601-1.3912-1.6645.6027.4028,1.1543.8776,1.6423,1.4137.9804.9235,2.2801,2.2118,3.7283,3.6712,1.4474,1.4593,2.7022,2.7819,3.6024,3.7624.5412.4907,1.0194,1.0459,1.4249,1.6531Z"/>
  <path class="c" d="M508.0677,128.5903v-4.3669c0-2.8498,0-6.9889-.0682-12.2335,0-10.5116-.057-25.4927-.1027-43.4268l.2166.2281h-57.416l.2503-.2623v60.027l-.2166-.2166,41.5689.1027h15.5743c.0907-.0112.1829-.0112.2736,0h-15.6995l-41.7173.1139h-.2166v-60.4944h57.907v.2166c0,17.9911-.0794,33.0635-.1027,43.5641,0,5.2327,0,9.3485-.0682,12.1878v4.0019c-.0382.1926-.0997.38-.1829.5584Z"/>
  <path class="h" d="M489.0282,88.9714h-19.2111v19.2108h19.2111v-19.2108Z"/>
  <path class="c" d="M524.1329,171.1854h-78.7476v82.0884h78.7476v-82.0884Z"/>
  <path class="f" d="M518.7968,171.1854h-78.7477v82.0884h78.7477v-82.0884Z"/>
  <path class="c" d="M518.8208,253.297h-78.7942v-82.0892h78.7942v82.0892ZM440.0724,253.297h78.6682v-82.0892h-78.6682v82.0892Z"/>
  <path class="d" d="M508.2168,182.2219h-57.5764v60.0155h57.5764v-60.0155Z"/>
  <path class="c" d="M450.6411,242.6826c-.407.6064-.8852,1.161-1.4249,1.6528-.9234.9692-2.2119,2.2809-3.6601,3.7058-1.4481,1.4249-2.7816,2.7022-3.762,3.6024-.4992.5269-1.0576.9939-1.6648,1.3912.4085-.6019.883-1.1558,1.4137-1.6528.9234-.9692,2.2119-2.2809,3.6713-3.717,1.4594-1.4369,2.7816-2.7022,3.762-3.6031.4992-.5232,1.0576-.9864,1.6648-1.3792Z"/>
  <path class="c" d="M508.2161,242.4884c.6064.407,1.1611.886,1.6528,1.4249.9692.9122,2.2809,2.2119,3.7058,3.6601,1.4249,1.4481,2.7022,2.7816,3.6024,3.7628.5269.4985.9939,1.0569,1.3911,1.664-.6041-.4047-1.1588-.8792-1.6527-1.4137-.9692-.9234-2.2809-2.2232-3.7171-3.6713-1.4369-1.4474-2.7021-2.7816-3.6031-3.7733-.5247-.494-.988-1.0486-1.3792-1.6535Z"/>
  <path class="c" d="M508.0684,182.3815c.407-.6064.8852-1.1611,1.4249-1.6535.9122-.9692,2.212-2.2802,3.6601-3.7163,1.4474-1.4369,2.7704-2.6909,3.7621-3.5919.4992-.5269,1.0576-.9932,1.6648-1.3904-.4078.5989-.8815,1.1498-1.4137,1.6415-.9234.9804-2.2801,2.2802-3.6713,3.7171-1.3912,1.4362-2.7936,2.7134-3.774,3.6136-.4932.5247-1.0486.9879-1.6528,1.3799Z"/>
  <path class="c" d="M450.48,182.5299c-.6214-.401-1.1918-.8755-1.6985-1.4144-.9692-.9235-2.2802-2.2112-3.7051-3.6593-1.4256-1.4481-2.7021-2.7824-3.6031-3.7628-.5269-.4985-.9932-1.0569-1.3912-1.664.6027.4025,1.1543.877,1.6423,1.4137.9804.9235,2.2801,2.2119,3.7283,3.6713,1.4474,1.4594,2.7022,2.7816,3.6024,3.762.5389.4925,1.0179,1.0471,1.4249,1.6535Z"/>
  <path class="c" d="M508.0684,242.2381v-4.3669c0-2.8506,0-6.9776-.0689-12.2335,0-10.5118-.057-25.4932-.1019-43.4158l.2166.2166h-57.4168l.2511-.2511v60.0162l-.2166-.2166,41.5689.1139h14.7752-14.6733l-41.7166.1139h-.2166v-60.4945h57.9063v.2279c0,17.9909-.0795,33.0067-.1019,43.5522,0,5.2334,0,9.3605-.069,12.1885v4.0131c-.0217.1836-.0674.3635-.1364.5359Z"/>
  <path class="h" d="M489.0282,202.6188h-19.2111v19.2111h19.2111v-19.2111Z"/>
  <path class="c" d="M113.1766,256.5464h-62.1139v64.7587h62.1139v-64.7587Z"/>
  <path class="f" d="M108.9686,256.5464h-62.1133v64.7587h62.1133v-64.7587Z"/>
  <path class="c" d="M109.027,321.3508h-62.1938v-64.8276h62.1938v64.8276ZM46.9016,321.3508h62.0452v-64.7932h-62.0794l.0342,64.7932Z"/>
  <path class="d" d="M100.6237,265.245h-45.4224v47.3495h45.4224v-47.3495Z"/>
  <path class="c" d="M55.2018,312.9025c-.3273.4797-.7101.9197-1.1401,1.311-.7297.7638-1.7444,1.8012-2.8845,2.9188-1.1401,1.1169-2.2004,2.1318-2.9757,2.8498-.3887.416-.8294.7803-1.3112,1.0831.3309-.47.7134-.9025,1.1401-1.2877.7297-.7758,1.7102-1.8477,2.8503-2.9877,1.1401-1.1401,2.2005-2.1317,2.9643-2.8386.4105-.4003.8657-.7526,1.3568-1.0486Z"/>
  <path class="c" d="M100.6241,312.7886c.4733.3313.9091.7136,1.2997,1.1401.7639.7181,1.8014,1.7442,2.9304,2.8843,1.1288,1.1401,2.1205,2.1887,2.8386,2.9645.4257.395.808.835,1.1401,1.311-.482-.3201-.919-.7038-1.2997-1.1401-.7638-.7181-1.8012-1.7442-2.93-2.8843-1.1287-1.1401-2.132-2.2007-2.8503-2.9757-.4281-.3853-.8071-.8223-1.1288-1.2997Z"/>
  <path class="c" d="M100.4983,265.3709c.3331-.4722.7152-.9077,1.1401-1.2997.7297-.7638,1.7444-1.8012,2.8845-2.93,1.1401-1.1288,2.2008-2.1205,2.9758-2.8393.392-.428.832-.811,1.311-1.1401-.3246.479-.7076.9152-1.1401,1.2997-.7293.7638-1.7442,1.8019-2.8955,2.93-1.1518,1.1288-2.2008,2.1325-2.976,2.8506-.384.4295-.8207.8088-1.2997,1.1288Z"/>
  <path class="c" d="M55.0758,265.4848c-.4761-.3283-.9123-.7106-1.2997-1.1401-.7639-.7181-1.8014-1.7442-2.9301-2.8843-1.1288-1.1408-2.1206-2.1895-2.8389-2.9645-.4254-.3958-.8076-.835-1.1401-1.311.4812.3216.9181.7046,1.2997,1.1401.7639.7293,1.8014,1.7555,2.9301,2.8955,1.1288,1.1401,2.132,2.2007,2.8503,2.9757.4304.3785.8098.8118,1.1287,1.2885Z"/>
  <path class="c" d="M100.4981,312.5945c-.0049-.0757-.0049-.1522,0-.2279v-12.8721c0-8.2886,0-20.1001-.0912-34.2038l.1824.1829-45.3767.0112.2052-.2054v47.3495l-.171-.1709,32.8013.0795h11.6406-11.5266l-32.9039.0914h-.171v-47.7138h45.6732v.1709c0,14.1943-.0684,26.0403-.0912,34.3627v12.7694c0,.1484-.171.3763-.171.3763Z"/>
  <path class="h" d="M85.4837,281.344h-15.1521v15.1523h15.1521v-15.1523Z"/>
  <path class="c" d="M516.049,286.7138c-12.211,6.3278-21.5715,17.2158-28.298,29.1982-6.7265,11.9832-11.0702,25.0832-15.3689,38.2056l-3.762,67.3581c14.2056-24.1702,25.6071-52.5821,28.6855-80.4469l-9.4519-.832c6.339-.9692,11.6631-5.564,15.0496-11.0133,3.3865-5.45,5.1195-11.7208,6.8405-17.9001l-11.5267,1.7097c9.0967-6.1464,15.4814-15.5556,17.832-26.2795Z"/>
  <path class="h" d="M466.4666,437.2554s-30.8405-36.9059-30.4755-72.1358h12.4501s-13.5332-8.8927-12.4621-13.8751c1.0719-4.9823,1.4024-23.8516,1.4024-23.8516l11.4015,2.8505s-8.5397-4.2642-9.6116-11.0252c-1.0711-6.7603,2.4975-38.0797,2.4975-38.0797,0,0,13.875,14.5939,18.1505,29.5295,4.2755,14.9349,15.4828,32.3449,12.1991,77.9494-3.2838,45.6053-5.552,48.638-5.552,48.638Z"/>
  <path class="h" d="M482.0963,440.7327s33.3942-22.2551,40.8163-50.6558l-10.0103-2.7246s12.8264-4.184,13.0543-8.4258c.2278-4.241,4.0701-19.484,4.0701-19.484l-9.7825-.2054s7.7984-1.5621,10.1475-6.761c2.3484-5.1989,6.3277-31.1253,6.3277-31.1253,0,0-14.354,8.6993-21.058,19.7808-6.704,11.0822-19.5304,22.6434-26.8499,59.9818-7.3194,37.3391-6.7153,39.6193-6.7153,39.6193Z"/>
  <path class="c" d="M450.1052,313.3703c.0487.1244.0832.2548.1019.3875l.2736,1.1401c.2286,1.0374.5592,2.508.9812,4.3782.4213,1.8694.9234,4.2298,1.4706,6.9544.5472,2.7246,1.1401,5.7918,1.8124,9.2233,1.3229,6.8412,2.7134,15.0271,4.1503,24.1252,1.4362,9.0981,2.7703,19.1429,4.0131,29.6434,1.2427,10.5005,2.1437,20.6585,2.8618,29.8481.7181,9.1896,1.254,17.4324,1.4706,24.4213.1709,3.4772.2511,6.6358.3306,9.3949.0802,2.7591.1484,5.1532.1596,7.1028.0113,1.9496,0,3.4202,0,4.4808v1.1401c.0172.1319.0172.2661,0,.3988-.0142-.1327-.0142-.2661,0-.3988,0-.2969,0-.6844-.057-1.1401,0-1.0719-.0915-2.5657-.1597-4.4921-.0682-1.9271-.1364-4.3212-.2623-7.0916-.1252-2.7711-.2166-5.9057-.422-9.3837-.3305-6.9544-.8777-15.2317-1.5846-24.4101-.7068-9.1775-1.7097-19.2681-2.9188-29.8256-1.2083-10.5575-2.6107-20.5791-3.9674-29.6427-1.3567-9.0636-2.7478-17.284-4.0243-24.1252-.5929-3.4202-1.2091-6.5212-1.7217-9.2466-.5134-2.7246-.9692-5.0505-1.3679-6.9656-.3995-1.9159-.6619-3.352-.8665-4.4006-.0915-.479-.1597-.8553-.2166-1.1408-.0352-.1222-.054-.2489-.057-.3755Z"/>
  <path class="h" d="M462.1903,459.8523s-28.2298-32.0151-36.9854-51.3739l6.6126-2.8161c-4.7889.7863-9.703-1.2773-13.4193-4.4006-3.717-3.1242-6.4417-7.2512-9.1214-11.2988l8.7106-1.4706c-7.9955-2.2771-14.812-7.5375-19.0395-14.6965,10.2607,1.6992,19.5867,7.3426,27.2486,14.3997,6.0924,5.8443,11.6196,12.2493,16.509,19.1317,2.4668,3.3048,4.6165,6.836,6.4184,10.5455,4.7432,9.7367,13.0775,30.2251,13.0663,41.9797Z"/>
  <path class="c" d="M523.3571,339.9458c-.0255.1162-.0682.2271-.1259.3306l-.4332.9354-1.721,3.5454c-1.5051,3.0784-3.6489,7.5473-6.2371,13.1-2.5874,5.552-5.5977,12.1878-8.8125,19.6211-3.2156,7.4341-6.5901,15.677-9.9646,24.3876-3.3752,8.7106-6.3847,17.1019-9.0299,24.7406-2.6452,7.6387-4.8796,14.6051-6.6928,20.4539-1.8124,5.8488-3.2381,10.5912-4.184,13.8863-.479,1.6078-.8553,2.8843-1.1401,3.7853l-.3081.9805c-.0277.1154-.0697.2264-.1252.3305.006-.1199.0292-.2391.0682-.353.0682-.2511.1484-.5817.2511-.9924.2391-.9115.5809-2.1887,1.0142-3.8078.8785-3.3176,2.2809-8.0832,4.0019-13.9552,1.7217-5.8713,3.9794-12.8264,6.5676-20.5221,2.5874-7.6957,5.6202-16.0413,9.0411-24.7631,3.4203-8.7218,6.8405-16.9535,10.0216-24.3876,3.1811-7.4333,6.2821-14.0572,8.9272-19.5866,2.6444-5.5302,4.8451-9.9766,6.4184-13.0205l1.8244-3.5004c.1934-.3763.353-.6724.4789-.9002.1252-.2279.1597-.3081.1597-.3081Z"/>
  <path class="c" d="M464.5724,473.5677c-.0599-.1896-.1057-.3845-.1364-.5809-.0689-.4564-.1596-1.0261-.2736-1.6992-.2166-1.4819-.5817-3.6144-1.1401-6.2363-.5591-2.6219-1.2428-5.7004-2.1662-9.1206-.9234-3.421-2.1212-7.0916-3.5461-10.9113-1.4249-3.8197-3.0215-7.3539-4.5603-10.535-1.5396-3.1804-3.0559-5.9627-4.4006-8.2654-1.3454-2.3034-2.4743-4.1503-3.295-5.3931-.365-.5929-.6619-1.0719-.9122-1.4594-.1155-.1672-.2114-.3463-.2848-.536,0,0,.1476.1484.3875.4677l1.0029,1.3911c.8785,1.2195,2.0635,3.0327,3.4202,5.3129,1.3575,2.2801,2.942,5.085,4.5611,8.2429,1.619,3.1579,3.1579,6.7498,4.6172,10.5687,1.4594,3.8197,2.5882,7.548,3.5229,10.9683.9347,3.4202,1.5846,6.5443,2.0411,9.1895.4557,2.6444.7638,4.777.9122,6.2701l.1709,1.7105c.0607.1994.0877.4078.0794.6154Z"/>
  <path class="c" d="M501.8096,466.0436h-61.7492v12.5978h61.7492v-12.5978Z"/>
  <path class="c" d="M445.9429,478.6302l6.3278,36.1188h37.3159l6.5781-36.1188h-50.2218Z"/>
  <path class="h" d="M498.0236,478.6872c0,.1709-11.6863.3073-26.0973.3073s-26.0861-.1364-26.0861-.3073,11.6751-.2968,26.0861-.2968,26.0973.0802,26.0973.2968Z"/>
  <path class="c" d="M135.3522,50.9256H35.0672v162.8773h100.285V50.9256Z"/>
  <path class="h" d="M132.0114,50.9256H31.7264v162.8773h100.285V50.9256Z"/>
  <path class="d" d="M127.7465,54.2206H36.0013v156.276h91.7452V54.2206Z"/>
  <path class="h" d="M109.8808,74.5373h-56.4128v115.665h56.4128v-115.665Z"/>
  <path class="c" d="M53.4679,149.2609c-.1368-10.7966,9.7708-21.3429,20.6704-22.8023,5.199-.7181,10.7286.2968,15.5855-1.6528,8.665-3.4892,11.4012-14.8217,20.1571-18.1513l.3995,83.5823h-56.8124v-40.976Z"/>
  <path class="g" d="M537.1527,515.2625c0,.1597-113.59.2961-253.6769.2961s-253.6994-.1364-253.6994-.2961,113.5676-.2968,253.6994-.2968,253.6769.1372,253.6769.2968Z"/>
  <path class="g" d="M398.3431,458.5337h-229.7571c-3.0372-.054-5.9282-1.311-8.0382-3.496s-3.2666-5.1187-3.2148-8.1559V95.7251c-.036-1.5077.2271-3.0077.7743-4.4129.5479-1.4053,1.3687-2.688,2.4151-3.7738,1.0464-1.0859,2.2981-1.9533,3.6826-2.552,1.3837-.5987,2.8731-.9169,4.3812-.9361h229.7571c1.5051.0193,2.9915.3363,4.3737.933,1.3814.5966,2.6317,1.4609,3.6781,2.5431,1.0456,1.0822,1.8672,2.3609,2.4166,3.7622.5502,1.4013.8163,2.8976.7848,4.4024v351.1572c.03,1.5066-.2369,3.0042-.787,4.4074-.5494,1.4032-1.3702,2.6842-2.4151,3.7695-1.0456,1.0861-2.2944,1.9548-3.6758,2.5567-1.3814.6019-2.8685.9257-4.3751.952Z"/>
  <path class="i" d="M287.866,441.5008c.0382,2.125-.5569,4.2133-1.709,5.9994-1.1528,1.7854-2.8116,3.1879-4.7642,4.0281-1.9518.8403-4.1106,1.0801-6.1996.6888-2.0898-.3905-4.0154-1.3949-5.5317-2.8843-1.5171-1.4886-2.556-3.3955-2.9848-5.4778-.4295-2.0815-.2286-4.244.5757-6.2116.8043-1.9676,2.176-3.6511,3.9404-4.8361s3.8415-1.8184,5.9672-1.8192c1.3934-.0135,2.7756.2481,4.0686.769,1.2922.5209,2.469,1.2922,3.463,2.2682.9947.9767,1.7869,2.1392,2.3311,3.4217.5449,1.2825.8313,2.6602.8433,4.0536Z"/>
  <path class="i" d="M309.3108,103.8314h-51.5223c-.9684-.018-1.8904-.4194-2.5635-1.1161-.6738-.6967-1.0426-1.632-1.0276-2.6007-.015-.9687.3538-1.9039,1.0276-2.6007.6731-.6968,1.595-1.0981,2.5635-1.1161h51.5223c.9684.018,1.8904.4193,2.5635,1.1161.6739.6967,1.0434,1.6319,1.0276,2.6007.0157.9687-.3538,1.904-1.0276,2.6007-.6731.6967-1.595,1.0981-2.5635,1.1161Z"/>
  <path class="d" d="M401.4208,110.7631h-236.3584v312.7461h236.3584V110.7631Z"/>
  <path class="h" d="M401.6374,110.7631h-236.3584v312.7461h236.3584V110.7631Z"/>
  <path class="d" d="M370.5698,136.2565h-174.2104c-6.2086,0-11.2418,5.033-11.2418,11.2412v239.083c0,6.2086,5.0333,11.2418,11.2418,11.2418h174.2104c6.2086,0,11.2411-5.0333,11.2411-11.2418v-239.083c0-6.2083-5.0325-11.2412-11.2411-11.2412Z"/>
  <path class="e" d="M248.874,170.0039l1.1401-2.4855c1.1805.7361,2.5417,1.1311,3.9329,1.1401,1.4024,0,1.9496-.3875,1.9496-.9692,0-1.8926-6.8405-.5127-6.8405-4.9478,0-2.1437,1.7442-3.8767,5.2904-3.8767,1.5119-.0262,3.0065.3306,4.3437,1.0374l-1.0486,2.5088c-1.0089-.5764-2.1452-.8935-3.3063-.9235-1.4144,0-1.9271.4782-1.9271,1.1401,0,1.8237,6.7722.4557,6.7722,4.8564,0,2.0868-1.7442,3.8655-5.2904,3.8655-1.7652.0307-3.5034-.4355-5.016-1.3455Z"/>
  <path class="e" d="M260.2516,159.0814c.0083-.2451.0667-.4865.1724-.7083.1049-.2219.2548-.4198.44-.5809.1851-.1612.401-.2833.6349-.3575.2346-.0742.4812-.0997.7256-.0742.2421-.0322.4887-.0135.7233.0555.2346.069.452.1859.6386.344.1874.1574.3388.3523.446.5727.1064.2196.1664.4595.1754.7038-.063.4797-.2983.9197-.6626,1.239-.3635.3193-.8313.4955-1.3155.4955-.4835,0-.9512-.1761-1.3155-.4955-.3635-.3193-.5989-.7593-.6626-1.239v.045ZM260.6054,161.8293h3.2381v9.2578h-3.1811l-.057-9.2578Z"/>
  <path class="e" d="M275.8933,161.8293v7.5593c0,3.4997-1.9721,5.1532-5.4268,5.1532-1.607.0622-3.1954-.3583-4.5603-1.2083l1.1401-2.2801c.9115.6499,2.0043.9969,3.1242.9917,1.7442,0,2.4736-.787,2.4736-2.2802v-.2054c-.3448.3815-.7706.6813-1.2458.8785s-.9879.2863-1.5014.2616c-.6057.0307-1.2105-.0622-1.7787-.2728-.5682-.2106-1.0876-.5344-1.5268-.9519s-.7885-.9197-1.0276-1.4766-.362-1.1566-.362-1.7622.1229-1.2053.362-1.7622c.2391-.5569.5884-1.0591,1.0276-1.4766s.9587-.7413,1.5268-.9519c.5682-.2106,1.1731-.3036,1.7787-.2728.5502-.042,1.1026.0525,1.6078.2751.5052.2226.9474.5674,1.2878,1.0022v-1.1401l3.1009-.0802ZM272.6897,166.1392c-.0382-.5104-.2683-.9879-.6431-1.3357-.3755-.3485-.8687-.5419-1.3807-.5419s-1.0044.1934-1.3799.5419c-.3755.3478-.6049.8253-.6439,1.3357.039.5104.2683.9872.6439,1.3357.3755.3478.868.5412,1.3799.5412s1.0052-.1934,1.3807-.5412c.3748-.3485.6049-.8253.6431-1.3357Z"/>
  <path class="e" d="M287.8323,165.7967v5.2904h-3.2269v-4.7657c0-1.3335-.5704-1.8926-1.5163-1.8926-.9467,0-1.8357.6499-1.8357,2.1775v4.4808h-3.2493v-9.2578h3.0897v1.0149c.386-.3815.8462-.6798,1.3522-.8762.5059-.1956,1.0471-.2856,1.5891-.2638,2.1437-.0232,3.7973,1.2195,3.7973,4.0926Z"/>
  <path class="e" d="M304.5571,161.8293v9.2578h-3.0897v-.9917c-.3523.3718-.7795.6663-1.2525.8627-.4737.1964-.9834.2908-1.4954.2773-2.2802,0-3.9224-1.2997-3.9224-4.2297v-5.1764h3.2381v4.6405c0,1.4362.5704,2.0066,1.5396,2.0066.9684,0,1.7442-.6386,1.7442-2.1895v-4.4576h3.2381Z"/>
  <path class="e" d="M317.0072,166.4578c.0412.6199-.0472,1.2413-.2586,1.8252-.2121.5839-.5427,1.1176-.9714,1.5666s-.9467.8043-1.5201,1.0426c-.5734.2391-1.1896.3553-1.8109.3433-.4745.027-.9504-.045-1.3957-.2114-.446-.1672-.8522-.425-1.1918-.7578v4.1271h-3.2381v-12.5416h3.0664v.8665c.3448-.3748.7706-.6656,1.245-.8515.4737-.1859.9842-.2608,1.4916-.2196.6259-.0165,1.248.0989,1.8267.3381s1.1003.5974,1.5328,1.0501c.4318.4535.7638.9924.9744,1.5816.2106.5899.2961,1.2173.2496,1.8409ZM313.7234,166.4578c-.0465-.3748-.2001-.7286-.4422-1.0186-.2429-.2901-.5637-.5037-.925-.6154-.3613-.1117-.7466-.1162-1.1108-.0135-.3635.1019-.6904.3073-.9399.5914-.2496.2833-.4123.6334-.4677,1.0067-.0562.374-.0022.7563.1537,1.1003.1566.344.4093.6356.7271.8395.3186.2046.6888.3118,1.0666.3103.2773-.0007.5509-.0607.8028-.1754.2526-.1147.4775-.2811.6611-.4895.1829-.2076.3201-.452.4017-.7166.0817-.2646.1064-.5442.0727-.8193Z"/>
  <path class="g" d="M207.5892,188.052v1.2653h2.2802v.8897h-2.2802v1.7442h-1.1401v-4.7882h3.6144v.889h-2.4743Z"/>
  <path class="g" d="M214.3959,188.2686v3.6826h-1.0149v-.4445c-.1447.1582-.3208.2833-.5172.368-.1964.0847-.4093.1259-.6229.1222-.2189.0195-.4385-.0112-.6439-.0884-.2046-.078-.3898-.2001-.5412-.359s-.2646-.35-.332-.5584c-.0667-.2091-.0862-.4302-.0562-.6476v-2.0748h1.0599v1.9159c0,.6154.2736.889.7526.889s.844-.3081.844-.9917v-1.8132h1.0719Z"/>
  <path class="g" d="M215.3884,186.8774h1.0606v5.0737h-1.0606v-5.0737Z"/>
  <path class="g" d="M217.4399,186.8774h1.0374v5.0737h-1.0719l.0345-5.0737Z"/>
  <path class="g" d="M225.9001,187.163v4.7882h-.9122l-2.3829-2.9075v2.9075h-1.1401v-4.7882h.9234l2.3716,2.9068v-2.9068h1.1401Z"/>
  <path class="g" d="M230.2206,189.8419v2.1092h-1.0036v-.4677c-.1192.1874-.2908.3358-.4932.4265-.2024.0914-.4273.1214-.6469.0869-.8665,0-1.3792-.479-1.3792-1.1401,0-.6619.467-1.1401,1.5845-1.1401h.844c0-.4565-.2736-.7301-.844-.7301-.3808,0-.7518.1199-1.0606.3418l-.3875-.7406c.4775-.3013,1.0321-.4557,1.5966-.4452,1.1401.0345,1.7899.5929,1.7899,1.6992ZM229.1487,190.7878v-.3306h-.7293c-.5022,0-.6499.1829-.6499.422s.2166.4445.5929.4445c.1717.0112.3425-.036.485-.1327.1424-.0974.2481-.2391.3013-.4033Z"/>
  <path class="g" d="M237.4043,189.8419v2.1092h-1.0719v-1.9496c0-.5929-.2623-.8665-.6956-.8665s-.8095.3081-.8095.9692v1.8469h-1.0719v-1.9496c0-.5929-.2503-.8665-.6956-.8665-.4445,0-.8088.3081-.8088.9692v1.8469h-1.0606v-3.6826h.9692v.422c.1439-.1582.3201-.2826.5172-.365.1971-.0832.4093-.1222.6229-.1139.2369-.015.473.033.6859.1394.2121.1057.392.2661.5224.4647.1619-.1956.3658-.3523.5974-.4565.2309-.1049.4827-.1552.7368-.1477.2166-.0232.4362.003.6409.078.2054.075.3898.1956.5412.353.1507.1574.2631.3471.3291.5554.0659.2076.0832.428.051.6439Z"/>
  <path class="g" d="M241.9864,190.4573h-2.7816c.0562.2286.1941.428.3868.5622.1934.1349.428.1941.6619.1679.1701.0075.3396-.0202.4985-.081.1589-.0607.3036-.1537.425-.2728l.5704.6161c-.1941.2031-.431.362-.6926.464-.2623.1027-.5434.1462-.8238.1289-.2653.027-.5329-.0023-.7855-.0847-.2534-.0825-.4865-.2174-.6836-.3958-.1979-.1784-.356-.3965-.4647-.6394-.1079-.2436-.1641-.5067-.1641-.7728-.0157-.2661.0262-.5322.1222-.781.096-.2489.2436-.4737.434-.6604.1896-.1866.4175-.3306.6678-.4228.2496-.0914.5172-.1282.7825-.1087.2541-.0128.5082.0277.7451.1184.2376.0907.4535.2309.6341.41.1799.1792.3208.3943.4138.6311.0922.2369.1342.4902.1222.7443-.0457.1259-.0682.2399-.0682.3763ZM239.1928,189.8306h1.8132c-.0285-.2189-.1379-.419-.3073-.5599-.1687-.1417-.3845-.2144-.6049-.2039-.2121-.012-.4205.0555-.5869.1874-.1664.1327-.2773.3216-.3141.5307v.0457Z"/>
  <path class="g" d="M210.1894,222.7114v.8897h-3.7051v-4.7889h3.6144v.8897h-2.5088v1.0374h2.2809v.8665h-2.2809v1.1401l2.5995-.0345Z"/>
  <path class="g" d="M217.2128,221.4919v2.1092h-1.0149v-1.9384c0-.5929-.2736-.8665-.7068-.8665s-.8095.3073-.8095.9572v1.8477h-1.0599v-1.9384c0-.5929-.2623-.8665-.7068-.8665-.4452,0-.7983.3073-.7983.9572v1.8477h-1.0719v-3.6833h1.0149v.4332c.1439-.1567.3208-.2811.5172-.3635.1971-.0824.4093-.1222.6229-.1147.2354-.0127.47.0352.6813.1387.2114.1042.3928.2601.5269.4542.1612-.1934.3635-.3463.5929-.4497.2294-.1027.479-.1514.7301-.1432.2099-.0127.4197.0217.6146.1004.1949.0794.3695.2009.5112.356.1424.1552.2481.3396.3096.5412.0615.2009.0772.413.0465.6214Z"/>
  <path class="g" d="M221.4305,221.5032v2.098h-1.0029v-.4565c-.1252.1814-.2976.3253-.4985.416-.2009.09-.4227.1237-.6416.0974-.8665,0-1.3799-.4789-1.3799-1.1401,0-.6619.4677-1.1401,1.5853-1.1401h.8433c0-.4677-.2736-.7301-.8433-.7301-.3815-.006-.7548.1147-1.0606.3418l-.3875-.7406c.4745-.3066,1.0314-.4617,1.5958-.4445,1.1176.0682,1.7899.5809,1.7899,1.6985ZM220.3594,222.4379v-.3763h-.7413c-.5015,0-.6499.1829-.6499.4332,0,.2511.2166.4453.5929.4453.1694.015.3396-.0255.4842-.1162.1439-.0907.2541-.2264.3141-.386Z"/>
  <path class="g" d="M222.2633,218.8122c-.0157-.1357.0097-.2728.0735-.3943.0637-.1207.1634-.2189.2841-.2826.1214-.063.2593-.0869.395-.0705.1357.0172.2631.0757.3643.1671.102.0907.1739.2114.2054.344.0322.1327.0225.2728-.027.4003-.0495.1274-.1364.2369-.2496.3133-.1132.0765-.2474.1169-.3845.1154-.0825.0082-.1664-.0015-.2459-.0277-.0795-.0262-.1522-.0682-.2144-.1237-.0622-.0562-.1117-.1237-.1462-.1994-.0352-.0764-.0532-.1589-.0547-.2421ZM222.4005,219.9523h1.0599v3.6826h-1.0599v-3.6826Z"/>
  <path class="g" d="M224.452,218.5274h1.0711v5.0738h-1.0711v-5.0738Z"/>
  <path class="g" d="M231.68,222.575h-2.2802l-.422,1.0261h-1.1401l2.1325-4.7889h1.1401l2.143,4.7889h-1.1401l-.4332-1.0261ZM231.3269,221.731l-.7526-1.8244-.7638,1.8244h1.5164Z"/>
  <path class="g" d="M237.4028,218.5274v5.0738h-1.0141v-.422c-.1424.1596-.3186.2856-.5164.368-.1971.0832-.41.1207-.6236.1109-.5022,0-.9834-.1994-1.3387-.5547-.3545-.3545-.5539-.8365-.5539-1.338,0-.5022.1994-.9834.5539-1.3387.3553-.3545.8365-.5539,1.3387-.5539.2114-.0187.4243.012.6214.0885.1979.0772.3755.1994.5187.356v-1.7899h1.0141ZM236.3542,221.7655c-.0135-.1844-.0802-.3605-.1927-.5075-.1124-.1462-.2646-.2571-.4392-.3178-.1739-.0607-.3628-.0697-.5419-.0248-.1791.045-.341.1409-.4662.2773-.1252.1357-.2076.3051-.2376.4872-.03.1821-.006.3688.069.5374.0749.1687.1979.3118.353.4123.1552.0997.3358.1522.5209.1499.1304.0023.2594-.0225.3793-.0742.1199-.051.2271-.1274.3156-.2234.0885-.0959.1552-.2091.1964-.3328.042-.1237.0562-.2541.0435-.3838Z"/>
  <path class="g" d="M242.1348,218.5274v5.0738h-1.0149v-.422c-.1424.1596-.3186.2856-.5157.368-.1971.0832-.4108.1207-.6244.1109-.5022,0-.9834-.1994-1.338-.5547-.3553-.3545-.5547-.8365-.5547-1.338,0-.5022.1994-.9834.5547-1.3387.3545-.3545.8357-.5539,1.338-.5539.2114-.0172.4235.0143.6214.0915.1971.0764.3748.1979.5187.353v-1.7899h1.0149ZM241.0861,221.7655c-.0135-.1844-.081-.3605-.1926-.5075-.1124-.1462-.2653-.2571-.4392-.3178-.1746-.0607-.3628-.0697-.5419-.0248-.1791.045-.341.1409-.4662.2773-.1252.1357-.2076.3051-.2376.4872-.03.1821-.006.3688.0682.5374.075.1687.1979.3118.353.4123.1552.0997.3366.1522.5209.1499.1304.0023.2601-.0225.3793-.0742.1199-.051.2279-.1274.3163-.2234.0877-.0959.1552-.2091.1964-.3328.0412-.1237.0562-.2541.0435-.3838Z"/>
  <path class="g" d="M245.4081,219.8729v.9804h-.2398c-.1357-.0135-.2736.0045-.4018.0517-.1282.0472-.2436.1237-.338.2226-.0944.0989-.1657.2181-.2069.3478-.042.1304-.0532.2683-.0337.404v1.733h-1.0599v-3.6826h1.0141v.4902c.1522-.1859.3455-.3328.5659-.428.2204-.0959.4602-.1364.7001-.1192Z"/>
  <path class="g" d="M249.5921,222.0616h-2.7823c.0562.2294.1934.4302.386.5667.1927.1357.428.1979.6634.1746.1694.0082.3396-.0187.4985-.0802.1589-.0607.3036-.1537.425-.2728l.5697.6154c-.1941.2031-.4302.362-.6926.4647-.2616.1019-.5427.1462-.8238.1282-.2646.027-.5322-.0015-.7855-.0847-.2533-.0825-.4857-.2174-.6836-.3958-.1979-.1784-.356-.3965-.464-.6394-.1087-.2436-.1641-.5067-.1649-.7728-.003-.2556.0457-.5089.1439-.7443.0982-.2361.2436-.449.4273-.6259.1836-.1776.4017-.3156.6409-.4055s.494-.1297.7496-.1169c.2541-.015.509.024.7473.1147.2384.09.455.2294.6356.4093.1806.1799.3216.3958.413.6334.0922.2376.1327.4924.1192.7466-.0022.0952-.0097.1904-.0225.2848ZM246.7985,221.4462h1.8124c-.0255-.2189-.1319-.4197-.2991-.5629-.1664-.1439-.3815-.2196-.6011-.2121-.2226-.0135-.4415.06-.6116.2046-.1701.1447-.2773.3485-.3006.5704Z"/>
  <path class="g" d="M249.9676,223.2586l.353-.7638c.392.2279.8357.3493,1.2885.3538.4902,0,.6724-.1252.6724-.3306,0-.6041-2.2801,0-2.2801-1.4594,0-.6956.6274-1.1401,1.6992-1.1401.494-.0105.9827.0989,1.4249.3193l-.365.7526c-.3223-.1851-.6888-.2796-1.0599-.2743-.479,0-.6843.1597-.6843.3425,0,.6386,2.2232,0,2.2232,1.4706,0,.6843-.6386,1.1401-1.733,1.1401-.5397-.0022-1.0696-.1432-1.5388-.4108Z"/>
  <path class="g" d="M253.6052,223.2586l.3538-.7638c.3875.2264.8275.3478,1.2765.3538.4902,0,.6843-.1252.6843-.3306,0-.6041-2.2801,0-2.2801-1.4594,0-.6956.6266-1.1401,1.6985-1.1401.4902-.0105.9759.0989,1.4137.3193l-.353.7526c-.3238-.1822-.6888-.2766-1.0606-.2743-.479,0-.6836.1597-.6836.3425,0,.6386,2.2232,0,2.2232,1.4706,0,.6843-.6386,1.1401-1.733,1.1401-.5404-.0022-1.0704-.1432-1.5396-.4108Z"/>
  <path class="g" d="M211.364,251.1002c0,1.0719-.8095,1.733-2.0868,1.733h-.9572v1.323h-1.1401v-4.7889h2.0635c1.311,0,2.1205.6619,2.1205,1.733ZM210.2239,251.1002c0-.5239-.3418-.832-1.0149-.832h-.9002v1.6648h.9002c.6844,0,1.0261-.3081,1.0261-.8328h-.0112Z"/>
  <path class="g" d="M215.2969,252.0244v2.0972h-1.0037v-.4557c-.1252.1814-.2976.3253-.4985.4153-.2009.0907-.4228.1244-.6416.0974-.8665,0-1.3792-.4782-1.3792-1.1401,0-.6611.4557-1.1401,1.5846-1.1401h.844c0-.4557-.2743-.7181-.844-.7181-.3815-.0075-.7548.1132-1.0606.3418l-.3875-.7526c.4737-.2991,1.0246-.4535,1.5846-.4445,1.1521.0915,1.8019.6162,1.8019,1.6993ZM214.225,252.959v-.3763h-.7301c-.5014,0-.6611.1821-.6611.4332s.2279.4445.6041.4445c.1634.012.3268-.0262.467-.1094.1409-.0839.2526-.2084.3201-.3575v-.0345Z"/>
  <path class="g" d="M215.9003,253.8143l.3538-.7638c.3883.2256.8283.3478,1.2773.353.5014,0,.6836-.1252.6836-.3306,0-.6041-2.2801,0-2.2801-1.4594,0-.6956.6274-1.1401,1.6985-1.1401.4917-.0083.9774.1057,1.4144.3305l-.3538.7526c-.3231-.1836-.6888-.2781-1.0606-.2736-.4782,0-.6836.1484-.6836.3418,0,.6274,2.2232,0,2.2232,1.4706,0,.6843-.6386,1.1408-1.733,1.1408-.5412-.006-1.0711-.1514-1.5396-.422Z"/>
  <path class="g" d="M219.5387,253.8143l.3538-.7638c.3868.2271.8275.3493,1.2765.353.4902,0,.6731-.1252.6731-.3306,0-.6041-2.212,0-2.212-1.4594,0-.6956.6266-1.1401,1.6985-1.1401.491-.0053.9759.1079,1.4137.3305l-.353.7526c-.3238-.1821-.6896-.2758-1.0606-.2736-.479,0-.6843.1484-.6843.3418,0,.6274,2.2239,0,2.2239,1.4714,0,.6836-.6386,1.1401-1.745,1.1401-.5562.003-1.1033-.1424-1.5846-.422Z"/>
  <path class="g" d="M229.3661,250.4735l-1.3335,3.6826h-1.0261l-.8328-2.2802-.8545,2.2802h-1.0261l-1.323-3.6826h1.0037l.8665,2.4968.9002-2.4968h.9122l.8665,2.4968.901-2.4968h.9459Z"/>
  <path class="g" d="M229.492,252.3204c-.0255-.4033.0712-.805.2773-1.1536.2061-.3478.5112-.6259.877-.7975.3658-.1724.7751-.2309,1.1746-.1679.3995.0637.7705.2451,1.0651.5217.2953.2766.5.6356.5892,1.0299.0885.3942.0562.8065-.0922,1.1828-.1484.3755-.4063.6986-.7398.9265-.3343.2279-.7293.35-1.1333.3508-.2586.0172-.5187-.0187-.7631-.1064-.2443-.0877-.4677-.2241-.6573-.4018-.1889-.1769-.3396-.392-.4422-.6296-.1034-.2384-.1559-.4954-.1552-.7548ZM232.4445,252.3204c-.0135-.1844-.0802-.3606-.1926-.5067-.1117-.1469-.2646-.2571-.4393-.3178-.1739-.0615-.362-.0697-.5412-.0247-.1792.0442-.3418.1409-.4662.2766-.1252.1357-.2084.3051-.2384.4872-.03.1822-.006.3695.069.5382s.1979.3118.353.4115c.1552.0997.3366.1522.5209.1507.1297,0,.2578-.0262.377-.078.1192-.0517.2256-.1282.314-.2234.0877-.0959.1552-.2084.1971-.3313s.0577-.2526.0465-.3823Z"/>
  <path class="g" d="M236.5259,250.4165v.9924h-.2391c-.1364-.0143-.2736.0038-.4018.051-.1282.048-.2443.1237-.3388.2226-.0944.099-.1649.2181-.2069.3485-.0412.1304-.0532.2683-.033.4033v1.733h-1.0606v-3.6826h1.0149v.491c.1499-.1889.3441-.338.5644-.4347.2204-.0974.461-.1402.7008-.1244Z"/>
  <path class="g" d="M240.8815,249.0823v5.0738h-1.0262v-.422c-.1417.1612-.3171.2878-.5149.371-.1971.0832-.4115.1199-.6251.1079-.4782-.0367-.9242-.2526-1.2503-.6049-.3253-.3515-.5067-.814-.5067-1.293,0-.4797.1814-.9415.5067-1.2937.3261-.3515.772-.5674,1.2503-.6049.2114-.015.4227.0172.6199.0937.1979.0772.3748.1971.5202.3508v-1.7787h1.0262ZM239.8329,252.3204c-.0135-.1836-.0802-.3598-.1926-.5067-.1124-.1469-.2653-.2571-.4392-.3178-.1746-.0607-.3628-.0697-.5419-.0247-.1791.045-.341.1409-.4662.2766-.1252.1357-.2076.3051-.2376.4872-.03.1822-.006.3695.069.5382s.1971.3118.3523.4115c.1552.1004.3366.1522.5209.1507.1304.0008.2586-.0262.3778-.078.1184-.0517.2256-.1282.3133-.2234.0884-.0952.1552-.2084.1971-.3313.042-.1222.0577-.2526.0472-.3823Z"/>
  <path class="b" d="M333.026,359.7886h-91.1063c-3.0102,0-5.45,2.4398-5.45,5.4493v9.9758c0,3.0102,2.4398,5.45,5.45,5.45h91.1063c3.0102,0,5.45-2.4398,5.45-5.45v-9.9758c0-3.0095-2.4398-5.4493-5.45-5.4493Z"/>
  <path class="d" d="M254.7566,369.7532c-.0045-.3965.0735-.79.2286-1.1551.1544-.365.383-.6941.6709-.9669.2878-.2728.6289-.4835,1.0014-.6191.3733-.1349.7698-.1919,1.1656-.1664.4557-.0232.9107.0607,1.3282.2451.4182.1844.787.4632,1.0779.8155l-1.0036.9002c-.1559-.2024-.356-.3665-.5854-.479-.2294-.1132-.4812-.1709-.7368-.1709-.4235,0-.8298.1679-1.1288.4677-.2991.2991-.4677.7053-.4677,1.1288,0,.4227.1687.829.4677,1.1281.2991.2998.7053.4677,1.1288.4677.2556.0008.5075-.0577.7368-.1709.2294-.1124.4295-.2766.5854-.479l1.0036.9122c-.2931.3485-.6626.6244-1.0801.8065-.4175.1822-.871.2646-1.326.2421-.3958.0255-.7923-.0315-1.1656-.1664-.3725-.1357-.7136-.3455-1.0014-.6184-.2878-.2728-.5165-.6026-.6709-.9677-.1552-.365-.2331-.7578-.2286-1.1543Z"/>
  <path class="d" d="M263.7528,368.1455v1.3679h-.3425c-.1432-.015-.2871.0023-.4228.051-.1349.0495-.2571.1282-.3575.2316-.0997.1034-.1746.2279-.2196.365-.0442.1364-.057.2818-.0375.4243v1.9151h-1.5164v-4.3212h1.4481v.5134c.1836-.1956.41-.3463.6603-.4407.2511-.0952.5202-.1312.7878-.1064Z"/>
  <path class="d" d="M268.7343,370.7674h-3.1466c.0719.2211.2174.4115.413.5374.1949.1267.4272.1829.6589.1582.3673.0105.7241-.1244.9917-.3763l.7983.832c-.2391.2443-.5277.4332-.8462.5554-.3186.1222-.6604.1739-1.0007.1522-.32.0352-.6439.0022-.9497-.096-.3066-.0989-.5884-.2616-.8275-.4767s-.4295-.479-.5599-.7736c-.1297-.2938-.1956-.6124-.1941-.9347,0-.3073.0615-.6109.1822-.8942.1199-.2826.2961-.5382.5179-.7511.2211-.2129.4835-.3785.7706-.488.2878-.1094.5936-.1589.901-.1469.3036-.0165.6079.0315.892.1402s.5419.2766.757.4917c.2151.2151.3823.473.491.7571.1087.2841.1567.5876.1402.8912.0345.1596.0232.3081.0113.422ZM265.5652,369.9691h1.7787c-.0345-.2114-.1424-.4033-.3051-.5419-.1634-.1394-.3703-.2159-.5847-.2159-.2136,0-.4212.0764-.5839.2159-.1634.1387-.2713.3306-.3051.5419Z"/>
  <path class="d" d="M273.3973,370.1408v2.3596h-1.4144v-.5584c-.1282.2189-.3171.395-.5434.5082-.2271.1132-.4812.1589-.7331.1304-1.0374,0-1.6078-.5929-1.6078-1.3342,0-.7406.5817-1.2997,1.9159-1.2997h.8665c0-.4332-.3193-.6836-.9122-.6836-.4108.0008-.8103.1327-1.1401.3763l-.5134-1.0381c.5779-.3358,1.236-.509,1.9039-.5015,1.3687.0457,2.1782.6731,2.1782,2.041ZM271.8809,371.1557v-.3763h-.6499c-.491,0-.6619.1822-.6619.4445s.2054.4332.5592.4332c.1626.0112.3253-.0322.4617-.1229.1357-.0907.2384-.2241.2908-.3785Z"/>
  <path class="d" d="M277.3422,372.3752c-.3238.1791-.6903.2653-1.0606.2511-.2294.0352-.4647.018-.6866-.0502-.2226-.0689-.4257-.1881-.5952-.347-.1694-.1597-.2998-.356-.3823-.5734-.0817-.2174-.1132-.4512-.0915-.6828v-1.4594h-.6274v-1.1401h.6274v-1.1401h1.5164v1.1401h.9917v1.1401h-.9917v1.4369c-.006.0637.0007.1274.021.1881.0195.0607.0525.1169.0952.1642.0435.0472.0959.0847.1544.1109.0585.0255.1214.0382.1851.0382.1656-.0015.3275-.0495.4677-.1372l.3763,1.0606Z"/>
  <path class="d" d="M282.1986,370.7674h-3.1466c.0675.2219.2106.4123.404.5397.1941.1267.4257.1822.6559.1559.3673.0105.7241-.1244.9924-.3763l.7975.832c-.2361.2436-.5232.4332-.8403.5554-.3163.1222-.6559.1739-.9954.1522-.3201.0367-.6454.0052-.9527-.0922-.3081-.0982-.5914-.2601-.832-.476-.2399-.2151-.4318-.4797-.5622-.775-.1312-.2946-.1971-.6146-.1956-.9377,0-.3081.0622-.6131.1829-.8965.1214-.2841.2983-.5397.5209-.7533.2226-.2129.4865-.3785.775-.4872.2886-.1079.5967-.1566.904-.1431.3043-.0165.6079.0315.892.1402s.5419.2766.757.4917c.2151.2151.383.473.4917.7571s.1567.5876.1402.8912c.0337.1596.0112.3081.0112.422ZM279.0175,369.9691h1.7787c-.0285-.2121-.1357-.4063-.3006-.5434-.1641-.1372-.3748-.2076-.5891-.1971-.2129-.0082-.422.063-.5862.2002-.1641.1364-.2721.3291-.3028.5404Z"/>
  <path class="d" d="M289.0518,371.463h-2.3603l-.4332,1.1401h-1.6528l2.4736-5.5864h1.5508l2.4743,5.5864h-1.6423l-.41-1.1401ZM288.5953,370.3229l-.7181-1.7899-.7181,1.7899h1.4361Z"/>
  <path class="d" d="M291.206,370.3799c-.0007-.3163.0637-.6296.1904-.9197.1267-.2901.3118-.5509.5449-.7653.2324-.2144.5075-.3778.8065-.4805.2998-.1027.6169-.1417.9324-.1147.4205-.0345.8418.0615,1.2053.2758.3628.2151.6514.5367.8238.9212l-1.1401.5929c-.0884-.1417-.2121-.2578-.359-.3381-.1469-.0794-.3126-.1199-.4797-.1169s-.3306.0487-.4745.1342c-.1447.0847-.2639.2054-.3478.3501-.0832.1454-.1282.3096-.1297.4767-.0015.1671.0405.332.1222.4782.081.1462.1986.2691.341.356.1424.0877.3058.1364.473.1424.1836-.0038.362-.0607.5134-.1641.1522-.1027.2706-.2481.341-.4175l1.1401.5929c-.1724.3845-.461.7068-.8238.9212-.3635.2144-.7848.3103-1.2053.2758-.3088.0262-.6199-.0105-.9137-.1079-.2938-.0974-.5652-.2541-.7968-.4602s-.4183-.4565-.5502-.7376c-.1312-.2803-.2039-.5854-.2136-.895Z"/>
  <path class="d" d="M296.0069,370.3799c-.0015-.3163.063-.6296.1897-.9197.1267-.2901.3126-.5509.5449-.7653.2324-.2144.5075-.3778.8073-.4805.2991-.1027.6169-.1417.9317-.1147.4205-.0345.8417.0615,1.2053.2758.3635.2151.6514.5367.8245.9212l-1.1401.5929c-.0892-.1417-.2129-.2578-.3598-.3381-.1469-.0794-.3118-.1199-.479-.1169-.1679.003-.3313.0487-.4752.1342-.1439.0847-.2638.2054-.3478.3501-.0832.1454-.1282.3096-.1289.4767-.0015.1671.0405.332.1214.4782s.1986.2691.341.356c.1432.0877.3058.1364.473.1424.1836-.0038.362-.0607.5142-.1641.1514-.1027.2698-.2481.341-.4175l1.1401.5929c-.1731.3845-.461.7068-.8245.9212-.3635.2144-.7848.3103-1.2053.2758-.3088.0262-.6191-.0105-.9137-.1079-.2938-.0974-.5652-.2541-.796-.4602-.2316-.2061-.419-.4565-.5502-.7376-.1312-.2803-.2039-.5854-.2136-.895Z"/>
  <path class="d" d="M300.7269,370.3799c-.0345-.4902.0795-.9804.3268-1.4047.2481-.425.6176-.766,1.0614-.9782.4437-.2121.9414-.2856,1.4271-.2114.4865.075.9392.2938,1.299.6289.3605.3351.6116.7706.7203,1.2503.1094.479.072.9804-.1072,1.4384-.1799.458-.4924.8515-.8987,1.1288-.4055.2781-.886.4273-1.3777.428-.3133.024-.6289-.018-.925-.1214-.2968-.1042-.5689-.2683-.799-.4827-.2301-.2136-.4138-.4737-.5389-.7615-.1252-.2886-.1896-.5996-.1881-.9145ZM304.0901,370.3799c.021-.1319.0127-.2668-.0232-.395-.0367-.1282-.1004-.2473-.1867-.3493-.0869-.1012-.1941-.1829-.3156-.2391-.1214-.0554-.2534-.0847-.3868-.0847s-.2653.0292-.3868.0847c-.1214.0562-.2286.1379-.3156.2391-.0869.102-.1507.2211-.1866.3493-.036.1282-.0442.2631-.0232.395-.021.1319-.0127.2669.0232.3958.036.1282.0997.2473.1866.3485.0869.1019.1941.1836.3156.2391.1214.0562.2534.0847.3868.0847s.2653-.0285.3868-.0847c.1214-.0555.2286-.1372.3156-.2391.0862-.1012.1499-.2204.1867-.3485.036-.1289.0442-.2639.0232-.3958Z"/>
  <path class="d" d="M310.8279,368.2249v4.2755h-1.4481v-.4557c-.2661.2646-.6064.4407-.9759.5059-.3695.0652-.7496.015-1.0898-.1424-.3403-.1582-.6244-.416-.8133-.7398-.1896-.3238-.2743-.6978-.2451-1.0719v-2.4173h1.5164v2.1662c0,.6731.2623.9354.7188.9354.4557,0,.8208-.2968.8208-1.0261v-2.0755l1.5164.0457Z"/>
  <path class="d" d="M316.4488,370.0726v2.4278h-1.5163v-2.2801c0-.6267-.2736-.889-.7068-.889s-.8665.3081-.8665,1.0261v2.143h-1.5164v-4.3204h1.4474v.467c.1776-.1814.3913-.3238.6266-.4175.2354-.0944.488-.1387.7421-.1297.2556-.0172.5112.024.7488.1192.2376.0959.4505.2443.6229.434.1724.1896.2991.416.3718.6619.0719.2459.0877.5045.0465.7578Z"/>
  <path class="d" d="M320.3817,372.3752c-.3238.1799-.6903.2668-1.0606.2511-.2294.0352-.4647.018-.6866-.0502-.2226-.0689-.4258-.1881-.5952-.347-.1694-.1597-.2998-.356-.3823-.5734-.0817-.2174-.1132-.4512-.0914-.6828v-1.4594h-.6274v-1.1401h.6274v-1.1401h1.5163v1.1401h.9917v1.1401h-.9917v1.4369c-.0067.0637.0008.1274.021.1881.0195.0607.0525.1169.0952.1642.0435.0472.096.0847.1544.1109.0585.0255.1214.0382.1851.0382.1657-.0015.3276-.0495.4677-.1372l.3763,1.0606Z"/>
  <path class="g" d="M287.7393,189.8419v-2.6789h1.1401v2.6332c0,.9122.3995,1.2885,1.0719,1.2885.6731,0,1.0606-.3763,1.0606-1.2885v-2.6332h1.1401v2.6789c0,.5749-.2286,1.1258-.6349,1.5321-.4063.4063-.9572.6341-1.5313.6341-.5749,0-1.1258-.2279-1.5321-.6341-.4063-.4063-.6341-.9572-.6341-1.5321h-.0802Z"/>
  <path class="g" d="M292.7448,191.5973l.3538-.7638c.3845.2339.8268.3568,1.2765.3538.4902,0,.6731-.1252.6731-.3306,0-.6041-2.2809,0-2.2809-1.4594,0-.6956.6386-1.1401,1.7105-1.1401.4902-.009.9752.1004,1.4137.3193l-.353.7638c-.3238-.1821-.6896-.2766-1.0606-.2736-.479,0-.6844.1477-.6844.3418,0,.6274,2.2232,0,2.2232,1.4706,0,.6843-.6379,1.1401-1.7442,1.1401-.5367-.006-1.0636-.1514-1.5276-.422Z"/>
  <path class="g" d="M300.3154,190.4573h-2.7824c.057.2286.1949.428.3875.5622.1926.1349.428.1941.6619.1679.1701.0075.3396-.0202.4985-.081.1589-.0607.3036-.1537.425-.2728l.5697.6161c-.1956.2039-.434.3635-.6978.4655-.2638.1027-.5472.1462-.8298.1274-.2646.0247-.5314-.0052-.7833-.0885-.2526-.0832-.485-.2181-.6821-.3965-.1971-.1776-.3553-.395-.464-.6371-.1094-.2428-.1664-.5052-.1687-.7705-.0015-.2548.0487-.5075.1477-.7428.0982-.2346.2444-.4467.4273-.6244.1836-.1769.401-.3148.6394-.4048.2384-.0907.4925-.1319.7473-.1207.2534-.0135.5075.027.7451.1184.2376.0907.4535.2301.6341.4093.1799.1791.3208.3943.413.6311.093.2376.1342.491.1229.7451,0,.0457-.0112.1597-.0112.2961ZM297.5105,189.8306h1.8132c-.0262-.2174-.1334-.4175-.3006-.5592-.1672-.1417-.3815-.2151-.6004-.2046-.2136-.012-.4243.0547-.5922.1866-.1679.1319-.2818.3216-.3201.5314v.0457Z"/>
  <path class="g" d="M303.3256,188.1771v.9804h-.2391c-.1349-.0112-.2713.0075-.398.0562-.1267.048-.2414.1244-.3343.2234-.0937.0982-.1634.2166-.2039.3463-.0412.1289-.0525.2661-.033.4003v1.733h-1.0719v-3.6706h1.0149v.4782c.1514-.1859.3455-.3328.5659-.428.2204-.0952.4602-.1364.6993-.1192Z"/>
  <path class="g" d="M307.7262,189.8419v2.098h-1.0719v-1.9384c0-.5929-.2736-.8665-.7406-.8665-.4677,0-.8785.3193-.8785.9917v1.8132h-1.0486v-3.6713h1.0149v.4332c.1574-.1627.3478-.2901.5577-.3748.2106-.0847.4355-.1237.6619-.1154.2114-.0105.4227.0262.6184.1064.1956.0802.371.2024.515.3575.1432.1552.2511.3403.3148.5419.0645.2016.0839.4145.057.6244Z"/>
  <path class="g" d="M311.968,189.8419v2.098h-.9917v-.4565c-.1252.1814-.2976.3253-.4985.416-.2009.09-.4227.1237-.6416.0974-.8552,0-1.3679-.479-1.3679-1.1401s.4557-1.1401,1.5733-1.1401h.8545c0-.4565-.2736-.7301-.8545-.7301-.3808.0015-.751.1214-1.0606.3425l-.3763-.7413c.4722-.3028,1.0239-.458,1.5846-.4445,1.1063.0337,1.7787.5929,1.7787,1.6985ZM310.9081,190.7766v-.3193h-.7413c-.4902,0-.6499.1829-.6499.422,0,.2399.2279.4445.6041.4445.1694.0037.335-.048.473-.1469.1372-.0982.2399-.2384.2908-.4003h.0232Z"/>
  <path class="g" d="M319.1277,189.8419v2.098h-1.0719v-1.9384c0-.5929-.2623-.8665-.6956-.8665s-.8095.3081-.8095.9692v1.8357h-1.0711v-1.9384c0-.5929-.2511-.8665-.6956-.8665s-.8095.3081-.8095.9692v1.8357h-1.0606v-3.6713h1.0149v.422c.1447-.1574.3208-.2818.518-.3643.1964-.0825.4085-.1222.6221-.1147.2369-.0135.473.0345.6851.1409.2121.1057.392.2653.5232.4632.1642-.2099.3763-.3778.6184-.4887.2414-.1109.5067-.1627.7728-.1499.2121-.0082.4227.0315.6176.1154.1949.0832.3688.2099.5089.3695.1394.1589.2421.3478.2998.5524.0577.2039.069.4183.033.6274Z"/>
  <path class="g" d="M323.7113,190.4573h-2.7816c.0562.2286.1941.428.3868.5622.1934.1349.428.1941.6619.1679.1701.0082.3403-.0195.4992-.0802.1589-.0607.3036-.1537.4243-.2736l.5704.6161c-.1941.2031-.431.362-.6926.464-.2623.1027-.5434.1469-.8238.1289-.2646.0247-.5314-.0052-.7841-.0885-.2518-.0832-.4842-.2181-.6813-.3965-.1979-.1776-.356-.395-.4647-.6371-.1087-.2428-.1657-.5052-.1679-.7705-.0015-.2548.048-.5075.1469-.7428.0989-.2346.2443-.4467.428-.6244.1829-.1769.401-.3148.6386-.4048.2384-.0907.4925-.1319.7473-.1207.2541-.0135.5082.027.7458.1184.2369.0907.4527.2301.6334.4093s.3216.3943.4138.6311c.0922.2376.1342.491.1229.7451-.0022.0989-.0097.1979-.0232.2961ZM320.9184,189.8306h1.8124c-.0412-.2106-.1537-.3995-.3193-.5359-.1657-.1364-.3725-.2106-.5869-.2106s-.422.0742-.5876.2106c-.1649.1364-.2781.3253-.3186.5359Z"/>
  <path class="h" d="M276.1332,197.2415h-66.6401c-1.9766,0-3.5799,1.6026-3.5799,3.5799v7.2969c0,1.9773,1.6033,3.5799,3.5799,3.5799h66.6401c1.9773,0,3.5799-1.6026,3.5799-3.5799v-7.2969c0-1.9773-1.6026-3.5799-3.5799-3.5799Z"/>
  <path class="h" d="M356.0786,227.9336h-146.5855c-1.9766,0-3.5799,1.6026-3.5799,3.5799v7.2969c0,1.9766,1.6033,3.5799,3.5799,3.5799h146.5855c1.9773,0,3.5799-1.6033,3.5799-3.5799v-7.2969c0-1.9773-1.6026-3.5799-3.5799-3.5799Z"/>
  <path class="h" d="M356.0786,258.7164h-146.5855c-1.9766,0-3.5799,1.6026-3.5799,3.5799v7.2969c0,1.9773,1.6033,3.5799,3.5799,3.5799h146.5855c1.9773,0,3.5799-1.6026,3.5799-3.5799v-7.2969c0-1.9773-1.6026-3.5799-3.5799-3.5799Z"/>
  <path class="h" d="M356.0786,197.2415h-65.2834c-1.9773,0-3.5799,1.6026-3.5799,3.5799v7.2969c0,1.9773,1.6026,3.5799,3.5799,3.5799h65.2834c1.9773,0,3.5799-1.6026,3.5799-3.5799v-7.2969c0-1.9773-1.6026-3.5799-3.5799-3.5799Z"/>
  <path class="e" d="M212.6285,281.4617h-3.762c-.6236,0-1.1288.5052-1.1288,1.1288v3.7628c0,.6229.5052,1.1281,1.1288,1.1281h3.762c.6236,0,1.1288-.5052,1.1288-1.1281v-3.7628c0-.6236-.5052-1.1288-1.1288-1.1288Z"/>
  <path class="c" d="M352.7836,287.0714h-132.4931c-.5952,0-1.1663-.2324-1.5928-.6476-.4258-.4152-.6724-.9804-.6873-1.5756.015-.5944.2616-1.1603.6873-1.5756.4265-.4153.9977-.6476,1.5928-.6476h132.4931c.5854.0143,1.1423.2534,1.5561.6671s.6529.9714.6671,1.5561c.0015.2923-.0547.5824-.1657.853-.1117.2698-.2751.5157-.482.7226s-.452.3703-.7226.4812c-.2706.1117-.5607.1679-.853.1664Z"/>
  <path class="c" d="M242.0891,295.3487h-21.115c-.5847-.0143-1.1423-.2534-1.5561-.6671s-.6521-.9707-.6671-1.5561c0-.2916.0577-.5801.1694-.8492.1124-.2691.2758-.5134.4827-.7188.2061-.2054.452-.368.7211-.4789.2698-.1102.5592-.1664.85-.1649h21.115c.5831.0142,1.1386.2518,1.5523.6633.4138.4115.6536.9654.6709,1.5486-.0143.5854-.2534,1.1423-.6671,1.5561s-.9707.6529-1.5561.6671Z"/>
  <path class="e" d="M380.6093,151.6428c6.0969-2.5065,9.0082-9.482,6.5009-15.5795-2.5073-6.0973-9.4819-9.008-15.5795-6.5011-6.0976,2.5069-9.0082,9.4821-6.5009,15.5795,2.5065,6.0977,9.4819,9.0082,15.5795,6.501Z"/>
  <path class="d" d="M380.8942,137.5517l-1.7659-1.7656-7.8928,7.8926,1.7659,1.7655,7.8928-7.8925Z"/>
  <path class="d" d="M373.0043,135.7715l-1.7652,1.7655,7.8921,7.8926,1.7659-1.7656-7.8928-7.8925Z"/>
  <path class="d" d="M114.2365,413.7576l-7.3996-.8897c-5.8989,3.9382-13.0577,5.5272-20.0689,4.4546-7.0112-1.0726-13.3678-4.7282-17.8204-10.2494-4.4526-5.5205-6.6791-12.5078-6.2419-19.5866.4371-7.0796,3.5064-13.7394,8.6044-18.6707,5.098-4.9313,11.8561-7.7774,18.946-7.979,7.0898-.2016,13.9987,2.2562,19.3685,6.8899,5.3698,4.6337,8.8125,11.1084,9.6513,18.1513.8388,7.0428-.9872,14.1449-5.1187,19.9105l.0795,7.9693Z"/>
  <path class="g" d="M114.2365,413.7576v-2.0868c0-1.3567-.0682-3.34-.1139-5.8945l.1717.0802c-.0097.0097-.0217.018-.0345.0232-.0127.0052-.0262.0082-.0397.0082-.0142,0-.0277-.003-.0405-.0082-.0127-.0053-.024-.0135-.0337-.0232-.0142-.018-.0217-.0397-.0217-.063,0-.0225.0075-.0442.0217-.0622,2.6632-3.7478,4.3729-8.0877,4.9823-12.6443.3883-2.9772.3073-5.9972-.2399-8.9497-.6379-3.3565-1.8776-6.5706-3.6593-9.4856-1.9946-3.2066-4.5978-5.9912-7.662-8.1979-3.3059-2.4076-7.1074-4.0469-11.1273-4.8002-4.2733-.7893-8.6699-.6026-12.8606.5479-4.3974,1.2218-8.424,3.5132-11.7204,6.6695-1.6893,1.5958-3.1785,3.3918-4.4351,5.3466-.57.9924-1.1401,1.9728-1.6418,2.999l-.6727,1.5621-.3306.775-.2508.8095c-1.3679,4.1728-1.758,8.6042-1.1401,12.9516.5818,4.0821,2.0784,7.979,4.3781,11.4015,2.1095,3.1594,4.8215,5.8713,7.9808,7.9805,2.8392,1.9158,6.0033,3.2988,9.3376,4.0821l2.3487.41c.7753.1139,1.5391.1372,2.2802.2054,1.4476.0945,2.9006.0675,4.3438-.0794,4.5625-.4662,8.944-2.0313,12.7697-4.5611h.0682l5.45.7188,1.4362.1934.5015.0802h-.467l-1.4137-.1484-5.5302-.6154h.069c-3.8347,2.5905-8.2471,4.1998-12.8493,4.6855-1.4613.1597-2.9333.1971-4.4009.114-.7525-.0682-1.5391-.0795-2.2802-.1934l-2.4627-.4677c-3.4068-.7496-6.6459-2.1213-9.5542-4.0476-3.2154-2.143-5.9744-4.9021-8.1176-8.1177-2.3433-3.4847-3.8745-7.4506-4.4807-11.6061-.6341-4.4224-.2441-8.9317,1.1401-13.1802l.2508-.8207.342-.7975.6727-1.5853c.5017-1.0486,1.1401-2.0523,1.6874-3.0552,1.2779-1.9833,2.7942-3.8018,4.5149-5.4156,3.3485-3.2373,7.4513-5.5887,11.9371-6.8412,4.2876-1.1581,8.7821-1.3297,13.1456-.5014,4.0835.7818,7.9426,2.46,11.2984,4.9141,3.1054,2.2479,5.7394,5.0835,7.7527,8.3455,1.7982,2.9623,3.0424,6.2266,3.6713,9.6341.5442,3.011.6094,6.0894.1941,9.1206-.6461,4.5985-2.4121,8.9677-5.142,12.7245l-.1484-.1484c.0097-.0105.021-.018.0337-.0232.0127-.006.027-.0082.0405-.0082.0142,0,.0277.0022.0405.0082.0127.0053.024.0127.0337.0232.006.0225.006.0457,0,.0682v7.4791c0,.3763-.0232.4677-.0232.4677Z"/>
  <path class="e" d="M78.562,390.9891l3.5572-3.8078,7.3082,6.0654,13.4762-13.8751,3.5458,3.5687-17.307,17.4324-10.5804-9.3837Z"/>
</svg>
