<svg width="195" height="195" viewBox="0 0 195 195" fill="none" xmlns="http://www.w3.org/2000/svg">
<path d="M0 7.89474C0 3.5346 3.53459 0 7.89474 0H187.105C191.465 0 195 3.53459 195 7.89474V187.105C195 191.465 191.465 195 187.105 195H7.89474C3.5346 195 0 191.465 0 187.105V7.89474Z" fill="#CDEAFC"/>
<mask id="mask0_797_3300" style="mask-type:alpha" maskUnits="userSpaceOnUse" x="0" y="0" width="195" height="195">
<path d="M0 7.89474C0 3.5346 3.53459 0 7.89474 0H187.105C191.465 0 195 3.53459 195 7.89474V187.105C195 191.465 191.465 195 187.105 195H7.89474C3.5346 195 0 191.465 0 187.105V7.89474Z" fill="#CDEAFC"/>
</mask>
<g mask="url(#mask0_797_3300)">
<path d="M198.396 37.1128H172.416V64.1931H198.396V37.1128Z" fill="#E0E0E0"/>
<path d="M196.635 37.1128H170.656V64.1931H196.635V37.1128Z" fill="#FAFAFA"/>
<path d="M196.628 64.2047H170.648V37.1053H196.628V64.2047ZM170.648 64.1856H196.628V37.1358H170.664L170.648 64.1856Z" fill="#E0E0E0"/>
<path d="M193.145 40.7551H174.149V60.5549H193.145V40.7551Z" fill="#FAFAFA"/>
<path d="M174.15 60.6843C174.015 60.8832 173.858 61.0659 173.681 61.2291C173.376 61.5492 172.95 61.9911 172.473 62.4559C171.997 62.9207 171.555 63.3436 171.231 63.6446C171.066 63.8171 170.882 63.9705 170.683 64.1018C170.816 63.9023 170.972 63.7194 171.148 63.5569C171.452 63.2369 171.879 62.795 172.359 62.3302C172.839 61.8654 173.277 61.4387 173.601 61.1415C173.766 60.969 173.95 60.8156 174.15 60.6843Z" fill="#E0E0E0"/>
<path d="M193.146 60.6387C193.345 60.7733 193.528 60.9305 193.691 61.1073C194.011 61.4083 194.453 61.835 194.914 62.315C195.375 62.795 195.805 63.2294 196.102 63.5532C196.275 63.7183 196.428 63.9023 196.559 64.1018C196.358 63.9721 196.174 63.8157 196.015 63.637C195.695 63.3322 195.253 62.9055 194.788 62.4255C194.323 61.9454 193.896 61.5073 193.599 61.1835C193.426 61.0212 193.274 60.8382 193.146 60.6387Z" fill="#E0E0E0"/>
<path d="M193.092 40.8046C193.233 40.6058 193.397 40.4242 193.58 40.2636C193.884 39.9436 194.311 39.5016 194.787 39.0406C195.264 38.5796 195.706 38.1491 196.029 37.852C196.194 37.6784 196.378 37.5249 196.578 37.3948C196.445 37.5948 196.287 37.7777 196.109 37.9396C195.808 38.2596 195.382 38.7016 194.902 39.1664C194.422 39.6312 193.98 40.0579 193.656 40.355C193.487 40.5278 193.298 40.6789 193.092 40.8046Z" fill="#E0E0E0"/>
<path d="M174.096 40.8542C173.896 40.7208 173.714 40.5634 173.552 40.3856C173.232 40.0846 172.79 39.6579 172.329 39.1779C171.868 38.6979 171.437 38.2597 171.14 37.9359C170.966 37.7718 170.813 37.5876 170.683 37.3873C170.88 37.5227 171.062 37.6799 171.224 37.8559C171.544 38.1569 171.986 38.5874 172.451 39.0636C172.915 39.5398 173.346 39.9856 173.643 40.3094C173.816 40.4717 173.968 40.6547 174.096 40.8542Z" fill="#E0E0E0"/>
<path d="M193.092 60.5549C193.092 60.5549 193.092 60.5207 193.092 60.4597C193.092 60.3987 193.092 60.2997 193.092 60.1816C193.092 59.9339 193.092 59.5758 193.092 59.111C193.092 58.1738 193.092 56.8251 193.073 55.0764C193.073 51.6094 193.05 46.6681 193.035 40.7552L193.107 40.8276H174.165L174.249 40.7438C174.249 48.0091 174.249 54.8097 174.249 60.5549L174.176 60.4826L187.892 60.5207L191.743 60.5397H192.764H191.759H187.922L174.161 60.5778H174.089V60.5054C174.089 54.7907 174.089 47.971 174.089 40.6943V40.6066H174.15H193.092H193.164V40.6828C193.164 46.6147 193.138 51.5713 193.126 55.0535C193.126 56.7794 193.126 58.1357 193.107 59.0691C193.107 59.5301 193.107 59.8806 193.107 60.1244C193.107 60.2387 193.107 60.3302 193.107 60.3949C193.108 60.4487 193.103 60.5023 193.092 60.5549Z" fill="#E0E0E0"/>
<path d="M186.817 47.4833H180.478V53.8229H186.817V47.4833Z" fill="#EBEBEB"/>
<path d="M198.396 70.6168H172.416V97.6972H198.396V70.6168Z" fill="#E0E0E0"/>
<path d="M196.635 70.6168H170.656V97.6972H196.635V70.6168Z" fill="#FAFAFA"/>
<path d="M196.628 97.7084H170.648V70.609H196.628V97.7084ZM170.648 97.6894H196.628V70.6395H170.664L170.648 97.6894Z" fill="#E0E0E0"/>
<path d="M193.145 74.2589H174.149V94.0587H193.145V74.2589Z" fill="#FAFAFA"/>
<path d="M174.15 94.1918C174.014 94.3898 173.857 94.5724 173.681 94.7366C173.376 95.0567 172.95 95.4986 172.473 95.9596C171.997 96.4206 171.555 96.8511 171.231 97.1483C171.066 97.3208 170.882 97.4742 170.683 97.6054C170.816 97.406 170.972 97.2231 171.148 97.0606C171.452 96.7406 171.879 96.2987 172.359 95.8339C172.839 95.3691 173.277 94.9424 173.601 94.6452C173.764 94.4716 173.949 94.3192 174.15 94.1918Z" fill="#E0E0E0"/>
<path d="M193.146 94.1427C193.345 94.2773 193.528 94.4346 193.691 94.6113C194.011 94.9123 194.453 95.339 194.914 95.819C195.375 96.2991 195.805 96.7334 196.102 97.0572C196.276 97.2221 196.43 97.4076 196.559 97.6097C196.359 97.4762 196.176 97.3188 196.015 97.141C195.695 96.8401 195.253 96.4096 194.788 95.9333C194.323 95.4571 193.896 95.0113 193.599 94.6875C193.426 94.5252 193.274 94.3422 193.146 94.1427Z" fill="#E0E0E0"/>
<path d="M193.092 74.3122C193.225 74.1105 193.382 73.9262 193.561 73.7636C193.865 73.4436 194.292 73.0016 194.768 72.5406C195.245 72.0796 195.687 71.6529 196.01 71.352C196.174 71.1784 196.359 71.0249 196.559 70.8948C196.426 71.0948 196.268 71.2777 196.09 71.4396C195.789 71.7596 195.363 72.2016 194.883 72.6664C194.403 73.1312 193.961 73.5579 193.637 73.855C193.472 74.0269 193.29 74.1802 193.092 74.3122Z" fill="#E0E0E0"/>
<path d="M174.096 74.3579C173.896 74.2245 173.714 74.0671 173.552 73.8893C173.232 73.5883 172.79 73.1616 172.329 72.6816C171.868 72.2016 171.437 71.7672 171.14 71.4434C170.967 71.2783 170.814 71.0943 170.683 70.8948C170.882 71.0264 171.064 71.1825 171.224 71.3596C171.544 71.6606 171.986 72.0911 172.451 72.5673C172.915 73.0435 173.346 73.4893 173.643 73.8131C173.816 73.9754 173.968 74.1584 174.096 74.3579Z" fill="#E0E0E0"/>
<path d="M193.092 94.0587C193.092 94.0587 193.092 94.0244 193.092 93.9634C193.092 93.9025 193.092 93.8034 193.092 93.6853C193.092 93.4377 193.092 93.0796 193.092 92.6186C193.092 91.6775 193.092 90.3327 193.073 88.5801C193.073 85.1132 193.051 80.1718 193.035 74.259L193.108 74.3313H174.165L174.249 74.2475C174.249 81.5129 174.249 88.3135 174.249 94.0587L174.15 93.9825L187.865 94.0206H191.717H192.738H191.732H187.896L174.135 94.0587H174.062V93.9863C174.062 88.2715 174.062 81.4519 174.062 74.1751V74.1713H174.15H193.092H193.165V74.2475C193.165 80.1794 193.138 85.136 193.127 88.6182C193.127 90.3441 193.127 91.7004 193.108 92.6376C193.108 93.0948 193.108 93.4453 193.108 93.6891C193.108 93.8034 193.108 93.8949 193.108 93.9596C193.105 93.993 193.1 94.0261 193.092 94.0587Z" fill="#E0E0E0"/>
<path d="M186.817 80.9868H180.478V87.3264H186.817V80.9868Z" fill="#EBEBEB"/>
<path d="M116.023 102.843L116.247 103.224C116.501 103.643 116.868 103.981 117.306 104.199L117.687 104.39L117.306 104.618C116.886 104.87 116.547 105.238 116.331 105.677L116.137 106.058L115.912 105.677C115.659 105.258 115.292 104.919 114.853 104.702L114.472 104.508L114.853 104.283C115.273 104.03 115.611 103.663 115.828 103.224L116.023 102.843Z" fill="#E0E0E0"/>
<path d="M156.174 92.3315L156.399 92.7125C156.649 93.1371 157.017 93.4799 157.458 93.6992L157.839 93.8935L157.458 94.1183C157.038 94.3709 156.7 94.7385 156.482 95.1774L156.288 95.5584L156.063 95.1774C155.81 94.7586 155.443 94.4204 155.004 94.2021L154.623 94.0078L155.004 93.783C155.424 93.5304 155.762 93.1628 155.98 92.7239L156.174 92.3315Z" fill="#E0E0E0"/>
<path d="M135.715 79.6031L135.83 79.7898C135.956 79.9997 136.14 80.1689 136.359 80.2775L136.557 80.3765L136.371 80.487C136.159 80.6136 135.988 80.7988 135.879 81.0204L135.784 81.2147L135.67 81.028C135.544 80.8173 135.36 80.6478 135.14 80.5404L134.942 80.4413L135.132 80.327C135.342 80.2006 135.511 80.0169 135.62 79.7975L135.715 79.6031Z" fill="#E0E0E0"/>
<path d="M151.26 92.4725L151.37 92.6592C151.498 92.8692 151.683 93.0383 151.904 93.1468L152.098 93.2459L151.911 93.3564C151.701 93.4841 151.532 93.6692 151.424 93.8897L151.324 94.084L151.214 93.8974C151.086 93.6874 150.901 93.5182 150.681 93.4097L150.486 93.3106L150.673 93.2002C150.883 93.0724 151.052 92.8874 151.161 92.6668L151.26 92.4725Z" fill="#E0E0E0"/>
<path d="M136.523 106.211L136.637 106.398C136.764 106.607 136.948 106.776 137.167 106.885L137.365 106.984L137.175 107.095C136.965 107.223 136.795 107.408 136.687 107.628L136.588 107.822L136.477 107.636C136.35 107.426 136.167 107.255 135.948 107.144L135.75 107.049L135.936 106.935C136.147 106.809 136.318 106.625 136.428 106.405L136.523 106.211Z" fill="#E0E0E0"/>
<path d="M154.479 80.1522C154.616 79.1502 153.199 78.3235 152.132 78.2473C151.621 78.2682 151.109 78.2247 150.608 78.1177C149.564 77.7367 149.149 76.4071 148.132 75.9766C147.37 75.6566 146.494 75.9423 145.755 76.3119C145.015 76.6814 144.288 77.15 143.469 77.2034C142.752 77.2491 141.971 76.9824 141.347 77.3329C140.878 77.5958 140.634 78.133 140.204 78.453C139.754 78.7269 139.236 78.867 138.71 78.8568C138.185 78.8431 137.661 78.9284 137.167 79.1083C136.924 79.2043 136.718 79.3764 136.581 79.5988C136.444 79.8213 136.382 80.0822 136.405 80.3427L154.479 80.1522Z" fill="#EBEBEB"/>
<path d="M61.3023 64.8164C61.4394 63.8144 60.0222 62.9877 58.9554 62.9115C58.444 62.9325 57.932 62.889 57.4315 62.782C56.3876 62.401 55.9723 61.0714 54.9551 60.6408C54.1931 60.3208 53.3169 60.6066 52.5778 60.9761C51.8387 61.3457 51.111 61.8143 50.2919 61.8676C49.5756 61.9133 48.7946 61.6466 48.1698 61.9971C47.7012 62.26 47.4573 62.7972 47.0268 63.1172C46.5775 63.3912 46.0595 63.5313 45.5334 63.5211C45.0078 63.5074 44.4844 63.5927 43.9904 63.7725C43.7472 63.8685 43.5416 64.0406 43.4042 64.2631C43.2669 64.4856 43.2052 64.7465 43.2284 65.0069L61.3023 64.8164Z" fill="#EBEBEB"/>
<path d="M87.5748 43.8332C87.7653 42.454 85.8184 41.3187 84.3593 41.2044C83.6582 41.1473 82.9344 41.2539 82.2753 41.0215C80.8428 40.5224 80.2713 38.6747 78.8769 38.0841C77.833 37.646 76.6291 38.0384 75.6157 38.5451C74.6023 39.0518 73.6041 39.6881 72.4726 39.7681C71.4896 39.8329 70.4229 39.4671 69.5618 39.9472C68.918 40.3053 68.5827 41.0444 67.9922 41.4711C67.3764 41.8492 66.6649 42.0423 65.9425 42.0273C65.2225 42.0096 64.5055 42.1259 63.828 42.3702C63.1765 42.6712 62.6355 43.3608 62.7689 44.0656L87.5748 43.8332Z" fill="#F5F5F5"/>
<path d="M26.6106 30H-17.4807V102.981H26.6106V30Z" fill="#E0E0E0"/>
<path d="M25.144 30H-18.9473V102.981H25.144V30Z" fill="#EBEBEB"/>
<path d="M23.2659 31.4782H-17.0688V101.499H23.2659V31.4782Z" fill="#FAFAFA"/>
<path d="M15.4136 40.5762H-9.38843V92.4015H15.4136V40.5762Z" fill="#EBEBEB"/>
<path d="M-9.39617 74.0646C-9.45332 69.2223 -5.10248 64.4943 -0.305894 63.82C1.98001 63.4962 4.40688 63.9533 6.55182 63.058C10.3617 61.4922 11.577 56.4289 15.4135 54.924L15.5888 92.3824H-9.39617V74.0646Z" fill="#E0E0E0"/>
<path d="M81.5494 118.208L89.6682 116.642L105.243 120.216L113.137 121.862L113.251 132.647L95.642 135.89L83.7591 132.369L79.2673 125.759L81.5494 118.208Z" fill="#FFBE9D"/>
<path d="M75.7814 119.282L83.443 117.477C83.443 117.477 88.8606 134.24 102.229 133.505C113.125 132.914 113.137 121.862 113.137 121.862L121.103 123.268C121.103 123.268 124.445 143.494 120.783 157.682C117.735 169.492 115.03 185.677 115.03 185.677H62.1079L75.7814 119.282Z" fill="#0099FF"/>
<path d="M153.414 171.108C153.414 171.108 131.588 132.868 127.66 127.961C123.359 122.589 119.926 123.21 119.926 123.21L117.617 148.969L136.175 175.299L140.598 176.895L153.414 171.108Z" fill="#0099FF"/>
<path d="M76.6956 119.069C76.6956 119.069 64.2907 120.06 59.8408 140.404C57.8292 149.597 55.269 160.372 54.5528 167.61C54.0194 172.864 57.2616 178.327 62.5001 178.998L69.0759 180.217C70.8131 180.539 72.6079 180.183 74.0906 179.222C75.5733 178.261 76.6311 176.768 77.0461 175.051L79.2672 165.854L73.3505 163.865L74.7182 136.469L76.6956 119.069Z" fill="#0099FF"/>
<path d="M122.116 137.486C122.145 137.578 122.165 137.672 122.174 137.768C122.208 137.973 122.246 138.248 122.299 138.587C122.326 138.766 122.353 138.968 122.387 139.181C122.421 139.395 122.433 139.635 122.455 139.89C122.509 140.397 122.57 140.976 122.596 141.62C122.688 143.125 122.699 144.635 122.627 146.142C122.538 147.986 122.355 149.825 122.078 151.651C121.793 153.594 121.434 155.43 121.073 157.091C120.711 158.752 120.349 160.242 120.04 161.492C119.731 162.741 119.461 163.743 119.278 164.437C119.187 164.768 119.114 165.035 119.057 165.233C119.034 165.326 119.005 165.418 118.969 165.507C118.977 165.412 118.994 165.318 119.019 165.225C119.065 165.02 119.129 164.753 119.206 164.418L119.907 161.442C120.2 160.189 120.551 158.699 120.897 157.038C121.244 155.377 121.602 153.544 121.888 151.605C122.174 149.666 122.368 147.795 122.448 146.115C122.528 144.435 122.535 142.892 122.448 141.612C122.448 140.972 122.379 140.393 122.337 139.882C122.318 139.631 122.299 139.395 122.284 139.174C122.269 138.953 122.235 138.762 122.215 138.579C122.177 138.24 122.151 137.966 122.128 137.76C122.118 137.669 122.114 137.577 122.116 137.486Z" fill="#263238"/>
<path d="M79.8461 166.837C79.8198 166.783 79.7981 166.727 79.7813 166.669C79.7432 166.544 79.6899 166.384 79.6251 166.178L79.3813 165.389C79.3127 165.031 79.1614 164.693 78.9394 164.403C78.6131 164.09 78.2233 163.851 77.7964 163.702C77.2945 163.512 76.7769 163.366 76.2496 163.267C74.9925 163.034 73.7181 162.907 72.4398 162.886H72.3369V162.787L73.457 155.484C74.1771 150.885 74.8324 146.721 75.3086 143.673C75.5562 142.18 75.7543 140.964 75.8953 140.103C75.9639 139.696 76.021 139.372 76.0629 139.132C76.0629 139.033 76.0972 138.949 76.1125 138.88C76.1152 138.851 76.1229 138.823 76.1353 138.797C76.1412 138.826 76.1412 138.855 76.1353 138.884C76.1353 138.953 76.1353 139.037 76.1048 139.14C76.0744 139.38 76.0287 139.703 75.9753 140.115C75.8496 140.98 75.6705 142.199 75.4534 143.696C74.9886 146.744 74.3561 150.9 73.6551 155.507C73.2437 158.135 72.8589 160.623 72.5122 162.806L72.4245 162.703C73.7184 162.737 75.007 162.881 76.2763 163.134C76.8109 163.241 77.335 163.395 77.8421 163.595C78.2865 163.758 78.6888 164.018 79.0194 164.357C79.1555 164.51 79.2569 164.691 79.3165 164.886L79.4575 165.393C79.5451 165.702 79.6175 165.968 79.6785 166.189C79.7394 166.41 79.7775 166.57 79.808 166.688C79.8253 166.737 79.8381 166.786 79.8461 166.837Z" fill="#263238"/>
<path d="M62.759 169.946C62.7712 169.772 62.8045 169.601 62.8581 169.435C62.9779 168.976 63.1386 168.528 63.3381 168.098C63.9878 166.659 65.0007 165.414 66.2771 164.485C67.5536 163.556 69.0498 162.974 70.6187 162.798C71.0888 162.741 71.5632 162.726 72.036 162.753C72.2106 162.755 72.3844 162.777 72.5541 162.818C71.9174 162.821 71.2815 162.861 70.6492 162.936C69.1159 163.147 67.6587 163.734 66.4071 164.645C65.1555 165.555 64.1483 166.761 63.4753 168.155C63.2048 168.739 62.9657 169.337 62.759 169.946Z" fill="#263238"/>
<path d="M65.6279 159.819C65.7249 159.794 65.8253 159.785 65.9251 159.792C66.1987 159.787 66.4723 159.8 66.7442 159.831C67.6438 159.921 68.5254 160.142 69.3616 160.486C70.1975 160.832 70.98 161.295 71.6856 161.861C71.8995 162.03 72.1018 162.214 72.2913 162.41C72.4247 162.551 72.4971 162.631 72.4856 162.642C72.4742 162.654 72.1504 162.376 71.6018 161.972C70.1631 160.918 68.4893 160.23 66.7252 159.968C66.0508 159.869 65.6279 159.853 65.6279 159.819Z" fill="#263238"/>
<path d="M78.4673 133.505C78.4424 133.324 78.4335 133.142 78.4407 132.96C78.4407 132.609 78.4178 132.106 78.3721 131.485C78.2577 129.865 77.9795 128.261 77.5415 126.696C77.0974 125.135 76.4988 123.621 75.7547 122.178C75.4652 121.626 75.2213 121.184 75.0423 120.886C74.9419 120.734 74.8552 120.574 74.7832 120.406C74.9048 120.542 75.0132 120.689 75.107 120.845C75.309 121.134 75.5718 121.565 75.869 122.113C77.4546 124.991 78.3543 128.195 78.4978 131.478C78.5245 132.103 78.5207 132.621 78.4978 132.96C78.5057 133.142 78.4955 133.324 78.4673 133.505Z" fill="#263238"/>
<g opacity="0.3">
<path d="M121.553 154.55C124.715 149.19 124.783 142.225 122.021 136.644C122.909 142.591 122.718 148.649 121.457 154.527" fill="black"/>
</g>
<g opacity="0.3">
<path d="M93.3977 160.612C90.9975 161.316 87.6829 161.488 85.3323 160.612C87.1648 163.214 90.6965 164.155 93.7596 163.309C96.8228 162.463 99.6497 159.396 99.8859 156.223C98.4038 158.227 95.8017 159.918 93.3977 160.612Z" fill="black"/>
</g>
<path d="M102.229 151.956C102.218 152.029 102.199 152.1 102.172 152.169C102.126 152.306 102.073 152.516 101.966 152.767C101.688 153.495 101.343 154.196 100.934 154.859C100.331 155.848 99.6019 156.754 98.7659 157.556C96.7147 159.553 94.0669 160.824 91.2262 161.176C90.0779 161.324 88.9152 161.324 87.7669 161.176C86.9913 161.079 86.2262 160.912 85.481 160.676C85.2143 160.596 85.02 160.509 84.8828 160.459C84.8132 160.436 84.7457 160.406 84.6809 160.372C84.9576 160.434 85.231 160.51 85.5 160.6C88.7258 161.497 92.1658 161.212 95.1999 159.796C98.2035 158.32 100.577 155.813 101.886 152.733C102.107 152.238 102.21 151.948 102.229 151.956Z" fill="#263238"/>
<path d="M75.4688 178.628C75.4688 178.628 75.4421 178.67 75.3735 178.731C75.2776 178.827 75.1744 178.914 75.0649 178.994C74.6664 179.291 74.2243 179.525 73.7543 179.687C73.0556 179.92 72.3265 180.048 71.5904 180.068C70.7003 180.097 69.8093 180.065 68.9235 179.973C67.0185 179.809 65.327 179.531 64.104 179.314C63.4906 179.204 62.9954 179.108 62.6563 179.036C62.4757 179.011 62.2982 178.968 62.1267 178.906C62.3082 178.909 62.4892 178.927 62.6677 178.96L64.1269 179.173C65.3536 179.36 67.0528 179.611 68.9425 179.775C69.8284 179.867 70.719 179.903 71.6094 179.885C72.3305 179.87 73.046 179.755 73.7353 179.543C74.3557 179.326 74.94 179.018 75.4688 178.628Z" fill="#263238"/>
<path d="M118.497 78.3875L120.063 76.8636C122.147 77.7703 123.111 80.1896 123.465 82.4374C123.819 84.6852 123.766 87.0473 124.722 89.1122C125.454 90.7009 126.783 92.1601 126.627 93.9164C126.479 95.5737 124.978 96.9148 124.97 98.5797C124.97 100.184 126.303 101.414 127.081 102.816C128.654 105.655 129.675 117.267 128.852 120.41C121.93 119.812 109.67 119.073 102.743 117.48C104.568 105.548 112.253 88.7084 118.497 78.3875Z" fill="#263238"/>
<path d="M121.594 89.0247C122.074 80.9135 116.184 73.492 107.974 72.5128C99.2612 71.4766 91.5539 77.7171 90.83 86.2054L88.7879 120.471C88.7506 121.133 88.9357 121.789 89.3137 122.334C91.3253 125.275 94.9675 127.576 98.2249 128.03C101.376 128.468 104.572 127.649 107.254 126.155C107.699 125.904 108.07 125.54 108.33 125.1C108.59 124.66 108.73 124.16 108.736 123.649L108.877 115.979C108.877 115.973 108.877 115.966 108.88 115.96C108.882 115.953 108.886 115.948 108.89 115.943C108.895 115.938 108.901 115.935 108.907 115.932C108.913 115.93 108.92 115.929 108.927 115.93C109.644 115.984 110.366 115.963 111.079 115.869C113.106 115.374 118.276 113.385 120.013 105.796C120.592 103.281 121.172 96.1377 121.594 89.0247Z" fill="#FFBE9D"/>
<path d="M110.325 100.229C110.325 100.153 111.175 100.069 112.55 99.9932C112.897 99.9932 113.228 99.9361 113.312 99.7075C113.363 99.358 113.304 99.0013 113.144 98.6865L112.291 96.0196C111.11 92.2402 110.279 89.1428 110.432 89.1009C110.584 89.059 111.67 92.0802 112.851 95.8596C113.133 96.793 113.403 97.6807 113.662 98.5264C113.769 98.9074 113.963 99.3722 113.754 99.8713C113.695 99.9876 113.611 100.089 113.508 100.168C113.404 100.246 113.283 100.3 113.156 100.325C112.961 100.363 112.763 100.377 112.565 100.367C111.178 100.359 110.329 100.306 110.325 100.229Z" fill="#263238"/>
<path d="M119.354 91.8936C119.206 92.0574 118.307 91.3031 117.019 91.265C115.731 91.2269 114.771 91.9012 114.634 91.7259C114.565 91.6459 114.722 91.345 115.141 91.0326C115.694 90.6346 116.364 90.431 117.046 90.4535C117.726 90.477 118.38 90.7278 118.901 91.1659C119.301 91.5088 119.45 91.8212 119.354 91.8936Z" fill="#263238"/>
<path d="M106.271 92.2211C106.096 92.3849 105.159 91.5353 103.753 91.4134C102.347 91.2915 101.254 91.9354 101.113 91.7449C101.044 91.6572 101.235 91.3639 101.711 91.0515C102.349 90.6734 103.091 90.5079 103.829 90.5791C104.568 90.6446 105.266 90.948 105.818 91.4439C106.233 91.8134 106.355 92.1487 106.271 92.2211Z" fill="#263238"/>
<path d="M108.877 115.926C108.877 115.926 103.627 115.983 97.3489 111.67C97.3489 111.67 98.9719 118.597 108.836 118.379L108.877 115.926Z" fill="#EB996E"/>
<path d="M109.544 103.392C109.305 103.054 108.985 102.782 108.614 102.601C108.242 102.419 107.831 102.333 107.418 102.351C107.12 102.356 106.825 102.42 106.552 102.541C106.28 102.661 106.034 102.835 105.829 103.052C105.634 103.261 105.509 103.525 105.472 103.807C105.434 104.09 105.486 104.378 105.62 104.63C105.951 105.159 106.706 105.331 107.365 105.194C108.017 105.015 108.628 104.709 109.163 104.294C109.322 104.193 109.461 104.064 109.574 103.913C109.628 103.843 109.66 103.759 109.665 103.67C109.67 103.582 109.649 103.494 109.605 103.418" fill="#EB996E"/>
<path d="M106.287 100.866C106.508 100.866 106.42 102.314 107.609 103.426C108.798 104.538 110.371 104.485 110.371 104.687C110.371 104.782 109.99 104.946 109.342 104.916C108.484 104.868 107.668 104.525 107.034 103.944C106.429 103.392 106.066 102.624 106.02 101.807C106.001 101.201 106.188 100.866 106.287 100.866Z" fill="#263238"/>
<path d="M106.496 86.9102C106.336 87.2607 104.999 86.9902 103.402 87.055C101.806 87.1197 100.492 87.436 100.301 87.1121C100.221 86.9483 100.465 86.6283 101.01 86.3159C101.734 85.9385 102.534 85.7289 103.351 85.7025C104.167 85.6761 104.979 85.8337 105.726 86.1635C106.279 86.4378 106.549 86.7426 106.496 86.9102Z" fill="#263238"/>
<path d="M119.632 87.196C119.358 87.5008 118.272 87.196 116.965 87.196C115.659 87.196 114.561 87.4132 114.299 87.097C114.184 86.9446 114.356 86.6398 114.836 86.335C115.5 85.9867 116.242 85.8124 116.992 85.8284C117.743 85.8444 118.476 86.0501 119.126 86.4264C119.598 86.735 119.754 87.0474 119.632 87.196Z" fill="#263238"/>
<path d="M109.163 70.7984C108.455 69.5945 107.14 69.0459 105.67 68.8249C99.6652 67.9144 92.9675 71.5299 89.6034 76.5817C86.2394 81.6336 86.0603 89.1733 88.5214 94.7204L92.2665 92.3812C99.7833 89.2799 105.09 82.0374 109.925 74.5549C110.599 73.5377 109.792 71.8461 109.163 70.7984Z" fill="#263238"/>
<path d="M118.413 74.1015C115.903 71.2441 114.078 68.3867 108.866 70.3831C108.104 71.8422 109.628 73.7357 110.938 74.8406C112.843 76.4636 114.478 77.557 115.72 78.719C118.227 81.0621 121.076 88.9446 121.324 93.2459C121.324 93.5164 121.8 89.5542 122.086 89.5123C122.437 89.4589 123.85 87.7293 123.656 85.3672C122.985 77.2941 120.924 76.955 118.413 74.1015Z" fill="#263238"/>
<path d="M105.685 68.8248C106.076 68.7485 106.481 68.7828 106.855 68.9239C107.777 69.2068 108.599 69.7474 109.224 70.4821C109.403 70.6887 109.561 70.9119 109.697 71.1488C109.815 71.3777 109.907 71.6193 109.971 71.8689C110.107 72.2714 110.21 72.6842 110.28 73.1033C110.382 73.8386 110.207 74.2843 110.169 74.2729C110.131 74.2615 110.188 73.8234 110.028 73.149C109.922 72.75 109.795 72.3571 109.647 71.9718C109.579 71.7465 109.49 71.5284 109.38 71.3203C109.252 71.1019 109.104 70.8954 108.939 70.7031C108.349 70.0197 107.602 69.489 106.763 69.1563C106.115 68.9239 105.677 68.8858 105.685 68.8248Z" fill="#455A64"/>
<path d="M118.165 94.389C118.166 94.6813 118.054 94.9626 117.854 95.1752C117.653 95.3877 117.379 95.5154 117.087 95.532C116.942 95.5455 116.796 95.53 116.657 95.4864C116.518 95.4428 116.39 95.3718 116.279 95.2778C116.168 95.1838 116.076 95.0685 116.01 94.9388C115.945 94.8091 115.905 94.6675 115.895 94.5224C115.887 94.2256 115.996 93.9375 116.197 93.7192C116.398 93.5009 116.676 93.3695 116.973 93.3527C117.12 93.3387 117.268 93.3546 117.409 93.3997C117.55 93.4448 117.68 93.518 117.791 93.6149C117.903 93.7119 117.994 93.8305 118.058 93.9636C118.122 94.0966 118.159 94.2414 118.165 94.389Z" fill="#263238"/>
<path d="M105.616 94.4498C105.624 94.7467 105.515 95.0347 105.314 95.253C105.113 95.4713 104.835 95.6027 104.538 95.6195C104.393 95.6336 104.247 95.6186 104.109 95.5754C103.97 95.5322 103.841 95.4616 103.73 95.3679C103.619 95.2742 103.528 95.1592 103.462 95.0296C103.396 94.9001 103.356 94.7587 103.346 94.6137C103.337 94.3162 103.445 94.0272 103.647 93.8081C103.848 93.5889 104.127 93.457 104.424 93.4402C104.569 93.4261 104.715 93.4413 104.854 93.4847C104.993 93.5281 105.122 93.599 105.233 93.6931C105.345 93.7873 105.436 93.9027 105.501 94.0327C105.567 94.1627 105.606 94.3045 105.616 94.4498Z" fill="#263238"/>
<path d="M71.0837 103.986C71.7923 102.82 72.6076 101.723 73.903 101.239C75.1983 100.755 76.6689 100.477 77.6861 99.5322C79.2825 98.0654 79.2101 95.6271 79.0653 93.5013C78.9205 91.3754 78.8824 88.9294 80.513 87.5008C81.877 86.3083 84.0448 86.2016 85.2258 84.8339C86.0145 83.9233 86.1707 82.6661 86.445 81.5041C87.2069 78.3914 88.9099 72.9548 98.084 69.8269L89.9691 100.664C90.5748 100.835 92.0226 102.214 92.1026 103.148C92.175 104.02 91.7978 104.904 91.7902 105.78C91.7902 106.851 92.956 107.491 93.6951 108.283C94.6323 109.293 94.9219 110.748 94.7771 112.093C94.4766 113.931 93.985 115.733 93.3103 117.469C85.7821 116.707 74.7945 116.463 69.0569 111.663C68.0168 110.794 69.5064 106.58 71.0837 103.986Z" fill="#263238"/>
<path d="M92.2819 92.3812C92.1409 92.305 86.5976 90.0953 86.2433 95.9434C85.889 101.791 91.8209 100.923 91.8399 100.759C91.859 100.595 92.2819 92.3812 92.2819 92.3812Z" fill="#FFBE9D"/>
<path d="M90.1939 98.4425C90.1672 98.4197 90.0872 98.5073 89.9081 98.5721C89.6604 98.6627 89.387 98.6531 89.1462 98.5454C88.5442 98.2787 88.0832 97.2691 88.1175 96.2176C88.1369 95.7166 88.267 95.226 88.4985 94.7813C88.5649 94.6026 88.6733 94.4426 88.8145 94.3146C88.9558 94.1867 89.1257 94.0945 89.31 94.046C89.4288 94.0222 89.5522 94.0409 89.6587 94.0986C89.7652 94.1564 89.848 94.2497 89.8929 94.3622C89.9615 94.5298 89.9158 94.6441 89.9462 94.6556C89.9767 94.667 90.0796 94.5641 90.0453 94.3203C90.0234 94.1732 89.9506 94.0384 89.8396 93.9393C89.6869 93.8077 89.4882 93.7419 89.2871 93.7564C89.0448 93.7886 88.8148 93.8827 88.6193 94.0295C88.4238 94.1763 88.2694 94.3709 88.1708 94.5946C87.8924 95.086 87.7381 95.6378 87.7213 96.2024C87.687 97.3796 88.2204 98.5149 89.0509 98.8083C89.2044 98.8641 89.3686 98.8842 89.531 98.867C89.6934 98.8498 89.8497 98.7959 89.9881 98.7092C90.1748 98.5797 90.2129 98.454 90.1939 98.4425Z" fill="#EB996E"/>
<path d="M113.026 93.9089C113.057 93.4694 113.119 93.0327 113.213 92.6021C113.389 91.8816 113.714 91.2058 114.166 90.6179C114.618 90.0299 115.188 89.5427 115.839 89.1874C116.49 88.8321 117.208 88.6165 117.947 88.5544C118.686 88.4922 119.43 88.585 120.131 88.8266C120.614 88.9895 121.069 89.2259 121.48 89.5276C121.919 89.8309 122.305 90.2041 122.623 90.6325C123.306 91.5263 123.684 92.6156 123.702 93.7402C123.719 94.8648 123.376 95.9655 122.722 96.8806C122.42 97.318 122.05 97.7039 121.625 98.0235C121.225 98.3391 120.777 98.5898 120.299 98.7665C119.415 99.107 118.456 99.2043 117.522 99.0484C116.707 98.9139 115.935 98.5889 115.27 98.0997C114.296 97.3911 113.589 96.3752 113.262 95.2157C113.157 94.787 113.081 94.3517 113.034 93.9127C113.032 93.9419 113.032 93.9712 113.034 94.0004C113.034 94.0727 113.034 94.1566 113.034 94.2594C113.037 94.3987 113.051 94.5375 113.076 94.6747C113.097 94.8639 113.132 95.0511 113.182 95.2347C113.488 96.4276 114.194 97.4793 115.182 98.214C115.914 98.7617 116.773 99.1153 117.678 99.2418C118.583 99.3684 119.506 99.2638 120.36 98.9379C121.374 98.5547 122.251 97.8783 122.878 96.9949C123.558 96.0469 123.914 94.9057 123.896 93.7395C123.877 92.5734 123.485 91.4441 122.776 90.5182C122.445 90.0765 122.047 89.6907 121.594 89.3752C121.172 89.072 120.706 88.8355 120.211 88.6742C119.348 88.3757 118.422 88.3006 117.522 88.4558C116.621 88.611 115.775 88.9915 115.061 89.5619C114.094 90.3286 113.421 91.405 113.156 92.6098C113.112 92.7954 113.082 92.9838 113.064 93.1736C113.046 93.3125 113.037 93.4526 113.038 93.5927C113.038 93.6956 113.038 93.7794 113.038 93.848C113.033 93.8681 113.029 93.8884 113.026 93.9089Z" fill="#455A64"/>
<path d="M98.3051 94.1451C98.3356 93.7058 98.3967 93.2692 98.4879 92.8384C98.7745 91.6697 99.4453 90.6312 100.393 89.8895C101.043 89.3798 101.804 89.03 102.614 88.8685C103.543 88.6849 104.504 88.7519 105.399 89.0628C105.881 89.2273 106.336 89.4636 106.748 89.7638C107.186 90.0682 107.572 90.4412 107.891 90.8687C108.572 91.762 108.95 92.8503 108.969 93.9739C108.987 95.0976 108.645 96.1976 107.993 97.113C107.69 97.5503 107.318 97.9361 106.892 98.2559C106.492 98.5716 106.045 98.8223 105.567 98.9989C104.683 99.3394 103.724 99.4367 102.789 99.2808C101.976 99.1465 101.205 98.8214 100.541 98.3321C99.5666 97.6235 98.8581 96.6078 98.5298 95.4481C98.4248 95.0195 98.3497 94.5841 98.3051 94.1451C98.3009 94.1742 98.3009 94.2037 98.3051 94.2328C98.3051 94.3013 98.3051 94.389 98.3051 94.4918C98.3049 94.6311 98.3177 94.7701 98.3432 94.9071C98.3637 95.0966 98.4006 95.284 98.4536 95.4671C98.7563 96.6614 99.463 97.7142 100.454 98.4464C101.128 98.9526 101.91 99.2944 102.74 99.4446C103.703 99.6107 104.694 99.5159 105.609 99.1703C106.624 98.79 107.501 98.113 108.127 97.2273C108.806 96.2793 109.163 95.1381 109.144 93.9719C109.126 92.8058 108.733 91.6765 108.024 90.7506C107.369 89.8869 106.471 89.2383 105.445 88.8875C104.519 88.5713 103.526 88.5095 102.568 88.7085C101.548 88.9181 100.611 89.4174 99.8673 90.1466C99.124 90.8757 98.6067 91.8037 98.3774 92.8193C98.3301 93.0041 98.2995 93.1928 98.286 93.3832C98.2634 93.5216 98.2545 93.662 98.2593 93.8022V94.0575C98.268 94.0897 98.2836 94.1196 98.3051 94.1451Z" fill="#455A64"/>
<path d="M108.82 93.7452C108.851 93.7642 109.003 93.5166 109.357 93.2308C109.811 92.8542 110.38 92.6433 110.97 92.6329C111.56 92.6225 112.136 92.8132 112.603 93.1737C112.984 93.4442 113.129 93.688 113.156 93.6652C113.061 93.4245 112.9 93.2157 112.691 93.0632C112.214 92.6455 111.598 92.4207 110.964 92.4326C110.33 92.4446 109.723 92.6925 109.262 93.128C109.06 93.2882 108.907 93.502 108.82 93.7452Z" fill="#455A64"/>
<path d="M90.9407 92.0079C91.2913 92.1191 91.6527 92.1932 92.0189 92.2289C92.6932 92.3356 93.6266 92.4346 94.6553 92.5261L97.2955 92.7623C97.6573 92.818 98.0228 92.846 98.3889 92.8461C98.0383 92.734 97.6769 92.6586 97.3107 92.6213C96.6402 92.5185 95.7068 92.4194 94.6743 92.328L92.0379 92.0918C91.6751 92.0337 91.3081 92.0057 90.9407 92.0079Z" fill="#455A64"/>
<path d="M121.53 97.2043C122.005 96.6549 122.391 96.0339 122.672 95.3642C122.894 94.6708 123.006 93.9471 123.004 93.2192C123.089 93.4242 123.128 93.6453 123.118 93.8669C123.132 94.4006 123.044 94.9319 122.859 95.4328C122.675 95.9337 122.395 96.3942 122.036 96.7891C121.758 97.0862 121.545 97.2234 121.53 97.2043Z" fill="white"/>
<path d="M122.452 91.1849C122.482 91.1391 122.699 91.2496 122.833 91.5087C122.966 91.7678 122.909 92.004 122.856 92.0002C122.802 91.9964 122.757 91.8021 122.654 91.5925C122.551 91.383 122.417 91.2268 122.452 91.1849Z" fill="white"/>
<path d="M108.081 96.05C108.05 96.05 108.157 95.7452 108.244 95.2537C108.469 93.9646 108.222 92.6377 107.547 91.5163C107.292 91.0896 107.086 90.8534 107.109 90.8305C107.334 90.9943 107.523 91.2016 107.665 91.4401C108.048 91.994 108.311 92.6216 108.438 93.2828C108.564 93.944 108.552 94.6243 108.401 95.2804C108.347 95.5559 108.238 95.8177 108.081 96.05Z" fill="white"/>
<path d="M87.828 100.679C87.828 100.679 87.748 100.793 87.6337 101.003C87.4698 101.301 87.3833 101.635 87.3823 101.974C87.3762 102.221 87.4211 102.466 87.5142 102.694C87.6073 102.922 87.7466 103.128 87.9233 103.3C88.1364 103.512 88.3966 103.67 88.6827 103.762C88.9687 103.855 89.2725 103.878 89.5691 103.83C89.8638 103.769 90.1404 103.641 90.3771 103.455C90.6138 103.269 90.8041 103.031 90.9331 102.759C91.0372 102.536 91.0946 102.294 91.1019 102.047C91.1091 101.801 91.0659 101.556 90.975 101.327C90.8548 101.01 90.6585 100.727 90.4035 100.504C90.2206 100.348 90.0987 100.283 90.1063 100.268C90.2322 100.3 90.3493 100.36 90.4492 100.443C90.7398 100.654 90.9666 100.942 91.1045 101.273C91.2149 101.519 91.272 101.785 91.272 102.054C91.272 102.324 91.2149 102.59 91.1045 102.835C90.9734 103.142 90.7683 103.41 90.5077 103.618C90.247 103.825 89.939 103.965 89.6111 104.023C89.2833 104.082 88.946 104.059 88.6295 103.955C88.3129 103.852 88.0271 103.671 87.7976 103.43C87.6077 103.239 87.4603 103.011 87.3651 102.759C87.2699 102.508 87.229 102.239 87.2451 101.971C87.2583 101.612 87.3704 101.264 87.569 100.965C87.7023 100.755 87.828 100.671 87.828 100.679Z" fill="#E0E0E0"/>
<path d="M120.01 105.175C120.332 105.304 120.688 105.325 121.023 105.236C121.382 105.135 121.706 104.936 121.957 104.66C122.266 104.326 122.475 103.912 122.559 103.464C122.646 103.016 122.59 102.552 122.399 102.138C122.242 101.799 122.008 101.5 121.717 101.266C121.435 101.06 121.128 100.892 120.802 100.767C120.899 100.758 120.997 100.771 121.088 100.805C121.346 100.876 121.588 100.994 121.804 101.151C122.128 101.389 122.389 101.702 122.566 102.062C122.784 102.507 122.851 103.012 122.757 103.498C122.663 103.985 122.43 104.434 122.086 104.79C121.807 105.081 121.448 105.284 121.054 105.373C120.79 105.435 120.513 105.421 120.257 105.331C120.078 105.258 120.002 105.182 120.01 105.175Z" fill="#E0E0E0"/>
<path d="M98.8763 180.823L104.526 182.495C104.526 182.495 107.643 183.833 109.159 184.179C111.041 184.61 112.325 184.027 112.394 182.979C112.462 181.931 110.999 181.798 110.999 181.798C109.756 181.324 108.546 180.766 107.38 180.126C106.533 179.537 105.84 178.753 105.361 177.84L107.38 178.118C107.38 178.118 111.628 181.166 113.228 182.088C114.828 183.01 115.179 181.39 115.316 180.903C115.453 180.415 110.584 175.474 110.584 175.474C110.584 175.474 115.247 178.468 116.082 179.215C116.916 179.962 118.173 180.206 118.451 179.722C118.729 179.238 119.495 179.234 118.451 177.169C117.407 175.104 109.052 169.55 109.052 169.55L111.338 169.062L113.845 170.178C114.02 171.038 114.376 171.851 114.889 172.563C115.792 173.904 117.396 172.563 117.396 172.563L116.402 167.42L111.449 164.319C111.449 164.319 106.298 164.947 105.532 165.294C104.766 165.641 103.928 167.1 103.928 167.1L102.538 167.664C100.377 168.288 100.45 170.449 99.7526 170.517C99.0554 170.586 78.7337 166.624 78.7337 166.624L76.8935 166.144C73.8457 168.456 72.6303 172.277 72.0931 175.668C72.0931 175.668 71.5331 177.329 72.0931 178.244L98.8763 180.823Z" fill="#FFBE9D"/>
<path d="M95.1466 177.207C95.1226 177.098 95.1161 176.987 95.1276 176.876C95.1262 176.748 95.1377 176.62 95.1619 176.495C95.1796 176.322 95.2127 176.151 95.2609 175.984C95.547 175.022 96.0311 174.131 96.682 173.367C97.3141 172.599 98.0183 171.894 98.785 171.26C99.0888 170.983 99.4194 170.737 99.7718 170.525C99.4899 170.817 99.1909 171.091 98.8765 171.348C98.1437 172.004 97.4611 172.715 96.8344 173.474C96.2017 174.221 95.7146 175.08 95.3981 176.007C95.1733 176.735 95.1885 177.211 95.1466 177.207Z" fill="#EB996E"/>
<path d="M103.948 167.1C103.948 167.1 103.78 167.187 103.521 167.397C103.16 167.702 102.847 168.06 102.595 168.46C102.413 168.73 102.257 169.017 102.13 169.317C102.013 169.67 101.939 170.036 101.909 170.407C101.857 170.838 101.703 171.251 101.46 171.611C101.184 171.959 100.957 172.344 100.785 172.754C100.524 173.446 100.524 174.21 100.785 174.902L100.812 174.975L100.747 175.017C99.8639 175.587 99.2243 176.466 98.9528 177.482C98.8592 177.882 98.8018 178.29 98.7814 178.701C98.7504 178.594 98.7376 178.484 98.7433 178.373C98.7391 178.064 98.7724 177.756 98.8423 177.455C99.0854 176.388 99.7327 175.456 100.648 174.857L100.61 174.971C100.334 174.234 100.334 173.422 100.61 172.685C100.786 172.263 101.022 171.869 101.311 171.515C101.543 171.174 101.689 170.782 101.738 170.372C101.784 169.646 102.049 168.951 102.5 168.38C102.769 167.975 103.107 167.62 103.498 167.332C103.603 167.253 103.719 167.187 103.841 167.138C103.875 167.121 103.91 167.108 103.948 167.1Z" fill="#EB996E"/>
<path d="M108.839 169.378C108.352 169.441 107.856 169.388 107.393 169.224C106.93 169.06 106.511 168.789 106.172 168.433C106.21 168.387 106.721 168.78 107.456 169.035C108.192 169.29 108.839 169.321 108.839 169.378Z" fill="#EB996E"/>
<path d="M110.142 175.005C109.406 174.799 108.691 174.526 108.005 174.19C107.292 173.916 106.603 173.582 105.947 173.192C106.681 173.404 107.396 173.676 108.085 174.007C108.797 174.281 109.486 174.615 110.142 175.005Z" fill="#EB996E"/>
<path d="M105.559 177.786C104.819 177.536 104.097 177.238 103.395 176.895C103.793 176.912 104.182 177.014 104.538 177.192C104.918 177.313 105.266 177.516 105.559 177.786Z" fill="#EB996E"/>
<path d="M109.441 175.367C109.113 175.543 108.824 175.784 108.593 176.076C108.362 176.367 108.193 176.703 108.096 177.063C108.069 177.063 108.047 176.929 108.096 176.716C108.15 176.436 108.27 176.174 108.447 175.951C108.623 175.727 108.85 175.549 109.109 175.432C109.296 175.352 109.433 175.344 109.441 175.367Z" fill="#EB996E"/>
<path d="M111.483 172.277C111.506 172.331 111.133 172.521 110.881 172.948C110.753 173.219 110.646 173.499 110.561 173.786C110.507 173.629 110.493 173.461 110.519 173.296C110.546 173.132 110.613 172.977 110.714 172.845C111.003 172.357 111.476 172.224 111.483 172.277Z" fill="#EB996E"/>
<path d="M110.908 166.681C110.889 166.681 110.813 166.593 110.756 166.41C110.687 166.161 110.687 165.897 110.756 165.648C110.822 165.402 110.954 165.178 111.137 165C111.274 164.867 111.388 164.821 111.4 164.84C111.218 165.106 111.071 165.395 110.962 165.698C110.905 166.022 110.887 166.352 110.908 166.681Z" fill="#EB996E"/>
<path d="M152.096 168.433C152.096 168.433 151.841 163.435 146.66 162.398C141.478 161.362 132.403 165.766 132.403 165.766L106.976 183.486L107.738 185.677L133.546 182.08L135.908 182.987L154.035 171.077L171.142 158.71L169.237 157.221C169.237 157.221 164.444 160.524 161.274 161.945C158.104 163.366 153.521 165.858 152.096 168.433Z" fill="#F5F5F5"/>
<path d="M106.583 186.4L128.101 173.032L150.85 169.378C150.85 169.378 151.993 171.031 153.925 170.628L172.631 157.674L172.985 158.455L136.708 183.943C136.175 184.138 135.599 184.183 135.043 184.074C134.486 183.966 133.97 183.707 133.55 183.326L106.583 186.4Z" fill="#455A64"/>
<path d="M150.85 169.378C150.799 169.434 150.74 169.483 150.675 169.523L150.149 169.904C149.692 170.231 149.033 170.708 148.244 171.31C146.629 172.51 144.435 174.22 142.065 176.16C139.695 178.099 137.565 179.901 136.041 181.215L134.224 182.777L133.729 183.196C133.675 183.25 133.615 183.296 133.55 183.333C133.55 183.333 133.596 183.273 133.702 183.17L134.171 182.72C134.582 182.339 135.18 181.783 135.935 181.116C137.436 179.775 139.543 177.962 141.924 176.015C144.305 174.068 146.496 172.376 148.145 171.203C148.961 170.612 149.635 170.155 150.107 169.847L150.652 169.496C150.714 169.451 150.781 169.411 150.85 169.378Z" fill="#263238"/>
<path d="M150.618 166.597C148.556 164.383 145.31 163.595 142.293 163.831C139.276 164.067 136.415 165.191 133.599 166.307L107.277 184.324L107.513 185.002L133.976 167.096C133.976 167.096 139.889 165.191 142.506 164.863C146.88 164.319 150.618 166.597 150.618 166.597Z" fill="#E0E0E0"/>
<path d="M154.748 168.966L167.404 160.429C167.404 160.429 157.033 165.823 154.748 168.966Z" fill="#E0E0E0"/>
<path d="M107.277 184.324C107.309 184.291 107.345 184.262 107.384 184.236L107.711 184.004L108.972 183.116L113.635 179.886L129.065 169.29L133.546 166.243C136.095 165.092 138.785 164.284 141.546 163.839C143.777 163.524 146.051 163.844 148.107 164.764C148.876 165.122 149.584 165.598 150.206 166.174C150.671 166.608 151.067 167.11 151.38 167.664C151.576 168.011 151.73 168.381 151.837 168.765C151.863 168.89 151.886 168.99 151.905 169.066C151.914 169.1 151.92 169.134 151.924 169.169C151.787 168.655 151.585 168.16 151.322 167.698C151.002 167.159 150.604 166.67 150.141 166.246C149.518 165.688 148.814 165.226 148.054 164.875C146.017 163.99 143.775 163.689 141.577 164.006C138.838 164.455 136.169 165.258 133.637 166.395H133.656L129.176 169.443L113.735 180L109.033 183.181L107.753 184.035L107.414 184.256C107.371 184.283 107.325 184.306 107.277 184.324Z" fill="#263238"/>
<path d="M130.319 170.704C130.379 170.654 130.446 170.613 130.517 170.582C130.651 170.51 130.849 170.399 131.104 170.27C131.618 170.003 132.369 169.629 133.314 169.203C135.764 168.054 138.363 167.258 141.036 166.837C143.723 166.431 146.468 166.682 149.037 167.568C149.809 167.847 150.55 168.203 151.25 168.631C151.502 168.776 151.681 168.917 151.807 169.012C151.873 169.053 151.936 169.1 151.993 169.153C151.993 169.153 151.715 168.993 151.212 168.707C150.503 168.31 149.76 167.977 148.991 167.713C146.434 166.874 143.716 166.646 141.055 167.046C138.402 167.466 135.815 168.235 133.363 169.332C132.415 169.744 131.656 170.094 131.131 170.342L130.529 170.62C130.462 170.655 130.392 170.683 130.319 170.704Z" fill="#263238"/>
<path d="M170.463 158.173C170.463 158.173 170.41 158.223 170.299 158.299L169.808 158.627L167.983 159.8C166.436 160.791 164.307 162.159 161.971 163.698C159.636 165.237 157.548 166.65 156.024 167.679L154.222 168.891L153.727 169.214C153.671 169.255 153.611 169.288 153.548 169.313C153.595 169.264 153.647 169.219 153.704 169.18L154.18 168.826C154.592 168.521 155.193 168.09 155.944 167.561C157.445 166.506 159.533 165.069 161.872 163.53C164.211 161.991 166.356 160.642 167.918 159.682C168.699 159.202 169.336 158.821 169.778 158.562L170.292 158.265C170.346 158.229 170.403 158.199 170.463 158.173Z" fill="#263238"/>
<path d="M158.95 171.873C158.692 172.495 158.363 173.086 157.971 173.634C157.483 174.213 155.891 175.02 155.765 176.121C155.639 177.222 155.898 179.806 154.176 181.771C153.066 182.994 151.662 183.912 150.096 184.438L143.303 183.775L132.453 179.505C132.21 179.443 132.002 179.289 131.872 179.075C131.742 178.861 131.702 178.605 131.759 178.362C131.827 178.097 131.971 177.858 132.175 177.677C132.378 177.495 132.632 177.378 132.902 177.341L133.161 177.299C133.161 177.299 132.537 176.788 133.432 175.893C134.194 175.131 135.821 175.561 136.659 175.839C137.497 176.118 142.412 178.171 143.292 178.487C144.073 178.765 144.675 179.013 144.675 179.013C144.675 179.013 138.385 174.769 138.297 174.213C138.194 173.546 138.263 173.241 138.907 172.776C139.669 172.224 140.918 172.814 142.13 173.325C143.033 173.706 148.789 176.548 148.789 176.548C148.789 176.548 149.048 176.297 148.789 175.786C148.53 175.276 146.618 172.814 146.317 172.357C146.016 171.9 145.936 171.641 146.237 171.256C146.656 170.711 147.761 170.452 148.778 171.382C149.422 171.976 151.711 173.515 151.711 173.515L162.28 165.804C162.28 165.804 163.594 165.77 163.137 167.603C162.68 169.435 158.95 171.873 158.95 171.873Z" fill="#FFBE9D"/>
<path d="M151.071 178.301C150.648 178.207 150.255 178.012 149.923 177.734C149.591 177.455 149.332 177.101 149.166 176.701C149.216 176.67 149.524 177.142 150.05 177.581C150.576 178.019 151.098 178.244 151.071 178.301Z" fill="#EB996E"/>
<path d="M151.94 173.702C151.94 173.679 152.081 173.637 152.321 173.668C152.62 173.711 152.902 173.836 153.135 174.029C153.368 174.222 153.544 174.475 153.643 174.761C153.715 174.982 153.704 175.142 153.677 175.142C153.517 174.787 153.29 174.466 153.006 174.198C152.686 173.965 152.324 173.796 151.94 173.702Z" fill="#EB996E"/>
<path d="M152.439 175.824C152.382 175.824 152.355 175.257 152.13 174.609C151.906 173.961 151.589 173.485 151.635 173.466C151.97 173.751 152.208 174.133 152.317 174.559C152.487 174.958 152.53 175.4 152.439 175.824Z" fill="#EB996E"/>
<path d="M158.691 171.325C158.691 171.344 158.558 171.268 158.42 171.085C158.247 170.842 158.138 170.559 158.104 170.262C158.071 169.965 158.114 169.665 158.23 169.389C158.321 169.184 158.424 169.081 158.443 169.096C158.308 169.461 158.259 169.853 158.302 170.24C158.345 170.627 158.478 170.999 158.691 171.325Z" fill="#EB996E"/>
<path d="M149.14 180.96C148.895 181.016 148.641 181.016 148.397 180.96C147.805 180.855 147.236 180.643 146.72 180.335C146.206 180.033 145.723 179.682 145.276 179.287C145.078 179.142 144.902 178.967 144.754 178.769C144.974 178.879 145.178 179.016 145.364 179.177C145.828 179.535 146.314 179.865 146.819 180.164C147.319 180.46 147.86 180.682 148.423 180.823C148.858 180.914 149.14 180.929 149.14 180.96Z" fill="#EB996E"/>
<path d="M150.908 179.87C150.961 179.87 150.965 180.251 150.645 180.567C150.325 180.884 149.936 180.868 149.944 180.815C149.951 180.762 150.245 180.686 150.504 180.434C150.763 180.183 150.85 179.863 150.908 179.87Z" fill="#EB996E"/>
<path d="M153.502 177.965C153.525 177.965 153.525 178.068 153.452 178.205C153.352 178.374 153.202 178.508 153.022 178.586C152.843 178.673 152.642 178.702 152.447 178.67C152.294 178.64 152.218 178.579 152.229 178.556C152.241 178.533 152.58 178.586 152.938 178.407C153.296 178.228 153.449 177.946 153.502 177.965Z" fill="#EB996E"/>
<path d="M144.351 182.29C144.332 182.339 141.806 181.288 138.712 179.935C135.619 178.583 133.127 177.444 133.165 177.398C133.203 177.352 135.714 178.404 138.808 179.756C141.901 181.109 144.374 182.24 144.351 182.29Z" fill="#EB996E"/>
<path d="M22.1921 145.102L30.4594 185.688H102.218C102.598 185.688 102.962 185.537 103.231 185.268C103.499 185 103.65 184.635 103.65 184.255C103.651 184.067 103.614 183.88 103.542 183.706C103.471 183.532 103.365 183.374 103.232 183.24C103.099 183.107 102.941 183.001 102.767 182.929C102.593 182.856 102.406 182.819 102.218 182.819H87.7708L80.1054 145.06C80.0344 144.707 79.8441 144.39 79.5664 144.162C79.2888 143.934 78.941 143.808 78.5815 143.806L23.7465 143.22C23.5125 143.217 23.2809 143.267 23.0687 143.366C22.8565 143.464 22.6691 143.609 22.52 143.79C22.371 143.97 22.2643 144.182 22.2075 144.409C22.1508 144.636 22.1455 144.872 22.1921 145.102Z" fill="#F39090"/>
<path d="M22.192 145.102L22.1691 144.98C22.1536 144.853 22.1536 144.726 22.1691 144.599C22.1962 144.356 22.279 144.123 22.4112 143.917C22.5434 143.712 22.7213 143.54 22.9311 143.414C23.0767 143.325 23.2364 143.26 23.4035 143.224C23.5897 143.193 23.7787 143.181 23.9673 143.189H25.2589L28.4896 143.216L49.2266 143.41L63.6811 143.559L71.7808 143.639L76.025 143.685L78.1966 143.708C78.3833 143.708 78.5547 143.708 78.7528 143.708C78.9464 143.729 79.1346 143.785 79.3091 143.871C79.6608 144.043 79.9392 144.335 80.0939 144.694C80.1653 144.872 80.2164 145.057 80.2463 145.247L80.3568 145.792C80.4292 146.172 80.5054 146.523 80.5816 146.889C80.7289 147.623 80.8787 148.362 81.0311 149.106C81.3334 150.592 81.6394 152.097 81.9493 153.621C82.569 156.669 83.204 159.784 83.8542 162.966C85.1458 169.329 86.4944 175.946 87.8774 182.777L87.7822 182.701H101.989C102.176 182.694 102.364 182.706 102.549 182.736C102.93 182.817 103.266 183.042 103.486 183.364C103.709 183.685 103.801 184.079 103.742 184.465C103.707 184.699 103.618 184.922 103.483 185.115C103.347 185.309 103.168 185.469 102.961 185.581C102.751 185.693 102.519 185.756 102.282 185.764H64.1497H30.4593H30.3984V185.703C27.8686 173.226 25.8265 163.081 24.3902 156.048C23.6816 152.535 23.133 149.799 22.7596 147.94C22.5768 147.011 22.4371 146.306 22.3405 145.826C22.2453 145.346 22.2034 145.102 22.2034 145.102C22.2034 145.102 22.2605 145.346 22.3596 145.818C22.4586 146.291 22.611 147.007 22.8015 147.929C23.1825 149.788 23.7502 152.52 24.4741 156.032C25.9142 163.061 27.9905 173.203 30.5469 185.673L30.4707 185.612L64.1612 185.593H102.267C102.472 185.585 102.672 185.531 102.854 185.437C103.034 185.338 103.189 185.198 103.308 185.03C103.426 184.862 103.504 184.668 103.536 184.465C103.585 184.128 103.506 183.784 103.315 183.501C103.12 183.223 102.828 183.029 102.496 182.956C102.324 182.931 102.151 182.92 101.978 182.926H87.6907V182.85C86.3078 176.026 84.9629 169.409 83.6752 163.039C83.0275 159.854 82.3925 156.737 81.7702 153.689L80.8559 149.175C80.7073 148.432 80.5549 147.693 80.4063 146.961C80.3339 146.58 80.2577 146.226 80.1853 145.864L80.0749 145.315C80.0463 145.138 80.0004 144.965 79.9377 144.797C79.8329 144.557 79.6663 144.348 79.4549 144.193C79.2434 144.038 78.9946 143.941 78.7338 143.913C78.5662 143.913 78.3757 143.913 78.1966 143.913L76.025 143.887L71.777 143.841L63.6811 143.746L49.2228 143.574L28.4858 143.319L25.2589 143.277L23.9673 143.258C23.7814 143.247 23.5947 143.257 23.4111 143.288C23.2474 143.322 23.0904 143.383 22.9463 143.467C22.7408 143.588 22.5653 143.753 22.4333 143.951C22.3013 144.149 22.2161 144.375 22.1843 144.61C22.1692 144.774 22.1718 144.939 22.192 145.102Z" fill="#263238"/>
<path d="M52.888 166.045C54.1968 166.045 55.2578 164.984 55.2578 163.675C55.2578 162.366 54.1968 161.305 52.888 161.305C51.5793 161.305 50.5183 162.366 50.5183 163.675C50.5183 164.984 51.5793 166.045 52.888 166.045Z" fill="white"/>
<path d="M22.2605 145.441C22.2605 145.441 22.3443 145.441 22.5081 145.441H26.0208L36.2807 145.491L70.1311 145.727L75.0268 145.769H76.2307C76.4359 145.761 76.6414 145.774 76.8441 145.807C77.1541 145.87 77.4406 146.018 77.6719 146.234C77.9032 146.449 78.0703 146.725 78.1547 147.03C78.2461 147.411 78.3109 147.792 78.3909 148.173L80.1396 156.989C81.2483 162.608 82.2502 167.656 83.0884 171.92C83.9266 176.183 84.6123 179.604 85.0619 181.985C85.2905 183.17 85.4657 184.092 85.5877 184.724C85.6448 185.033 85.6905 185.273 85.721 185.441C85.7515 185.608 85.7591 185.685 85.7591 185.685C85.7591 185.685 85.7362 185.605 85.7019 185.445C85.6677 185.285 85.6143 185.041 85.5496 184.732L84.9857 182.016C84.5057 179.635 83.8123 176.202 82.9512 171.962C82.0902 167.721 81.0844 162.654 79.9605 157.038C79.4005 154.231 78.8176 151.282 78.2004 148.226C78.1204 147.845 78.0518 147.464 77.968 147.083C77.8675 146.721 77.6368 146.409 77.3203 146.207C77.1634 146.107 76.9889 146.037 76.806 146.001C76.6146 145.97 76.4206 145.959 76.2269 145.967H75.0268L70.1311 145.929L36.2807 145.632L26.0208 145.517L23.232 145.441H22.5043H22.2605Z" fill="#263238"/>
<path d="M199.351 148.57C200.46 147.26 200.669 145.34 200.174 143.694C199.679 142.048 198.57 140.646 197.286 139.503C195.775 138.163 194.018 137.128 192.113 136.455C191.375 136.162 190.582 136.032 189.789 136.074C189.391 136.096 189.005 136.215 188.664 136.421C188.324 136.627 188.038 136.914 187.834 137.255C187.289 138.291 187.811 139.541 188.379 140.577C189.373 142.388 190.508 144.118 191.774 145.751C192.795 147.066 193.96 148.361 195.511 148.955C197.062 149.55 198.677 149.454 199.485 148.388" fill="#EBEBEB"/>
<path d="M202.224 159.79C202.247 159.485 202.247 159.178 202.224 158.872C202.189 158.286 202.106 157.432 201.942 156.388C201.741 155.168 201.471 153.959 201.134 152.769C200.736 151.303 200.227 149.871 199.61 148.483C198.561 145.923 197.055 143.576 195.164 141.557C194.837 141.21 194.487 140.885 194.116 140.585C193.956 140.448 193.815 140.315 193.671 140.204L193.267 139.922C193.025 139.739 192.77 139.573 192.505 139.427C192.459 139.488 193.598 140.158 195.034 141.686C196.861 143.723 198.327 146.056 199.37 148.586C199.973 149.966 200.482 151.385 200.894 152.834C201.241 154.013 201.528 155.21 201.755 156.419C201.946 157.451 202.052 158.293 202.136 158.88C202.142 159.185 202.171 159.49 202.224 159.79Z" fill="#E0E0E0"/>
<path d="M211.009 168.686H193.956V172.622H211.009V168.686Z" fill="#E0E0E0"/>
<path d="M193.956 182.223V183.317H194.756H210.727V182.223H193.956Z" fill="#EBEBEB"/>
<path d="M195.542 185.237L194.757 183.317H210.118L209.2 185.237H195.542Z" fill="#E0E0E0"/>
<path d="M210.305 183.423C210.305 183.469 206.815 183.503 202.506 183.503C198.197 183.503 194.704 183.469 194.704 183.423C194.704 183.378 198.197 183.343 202.506 183.343C206.815 183.343 210.305 183.362 210.305 183.423Z" fill="#F5F5F5"/>
</g>
</svg>
