<svg width="196" height="195" viewBox="0 0 196 195" fill="none" xmlns="http://www.w3.org/2000/svg">
<path d="M0.842285 7.89474C0.842285 3.5346 4.37688 0 8.73702 0H187.948C192.308 0 195.842 3.53459 195.842 7.89474V187.105C195.842 191.465 192.308 195 187.948 195H8.73703C4.37688 195 0.842285 191.465 0.842285 187.105V7.89474Z" fill="#CDEAFC"/>
<mask id="mask0_797_5546" style="mask-type:alpha" maskUnits="userSpaceOnUse" x="0" y="0" width="196" height="195">
<path d="M0.684082 7.89474C0.684082 3.5346 4.21868 0 8.57882 0H187.789C192.149 0 195.684 3.53459 195.684 7.89474V187.105C195.684 191.465 192.149 195 187.789 195H8.57882C4.21868 195 0.684082 191.465 0.684082 187.105V7.89474Z" fill="#D9D9D9"/>
</mask>
<g mask="url(#mask0_797_5546)">
<path d="M166.232 130.151C169.804 127.991 173.65 126.318 177.666 125.179L180.018 113.867L199.137 113.529L201.889 124.756C205.943 125.753 209.846 127.288 213.492 129.321L223.167 122.966L236.923 136.253L230.937 146.128C233.087 149.697 234.751 153.537 235.886 157.547L247.198 159.899L247.536 179.018L236.308 181.769C235.312 185.82 233.78 189.72 231.751 193.365L238.084 203.033L224.797 216.788L214.922 210.794C211.35 212.956 207.504 214.628 203.487 215.766L201.135 227.078L182.016 227.416L179.265 216.189C175.212 215.194 171.312 213.658 167.669 211.624L158.001 217.964L144.246 204.677L150.24 194.802C148.078 191.231 146.406 187.385 145.268 183.368L133.956 181.016L133.618 161.897L144.845 159.145C145.836 155.096 147.366 151.199 149.394 147.557L143.062 137.89L156.341 124.134L166.216 130.128L166.232 130.151ZM176.421 155.618C173.606 158.537 171.718 162.226 170.999 166.218C170.279 170.21 170.759 174.325 172.378 178.044C173.997 181.763 176.682 184.919 180.094 187.112C183.506 189.305 187.492 190.437 191.548 190.365C195.603 190.293 199.546 189.02 202.878 186.707C206.21 184.395 208.782 181.146 210.268 177.372C211.754 173.598 212.088 169.468 211.227 165.504C210.366 161.54 208.349 157.921 205.431 155.103C203.493 153.231 201.206 151.758 198.698 150.771C196.191 149.783 193.514 149.299 190.82 149.347C188.125 149.395 185.467 149.973 182.996 151.049C180.526 152.125 178.292 153.678 176.421 155.618Z" fill="white"/>
<path d="M68.2319 103.362C70.7046 101.872 73.3647 100.718 76.1421 99.9305L77.7685 92.1069L91.0014 91.8746L92.9024 99.6349C95.7066 100.33 98.4058 101.395 100.929 102.802L107.614 98.4207L117.119 107.606L112.968 114.427C114.458 116.899 115.613 119.558 116.401 122.335L124.226 123.961L124.459 137.18L116.696 139.091C116.003 141.891 114.937 144.587 113.528 147.104L117.911 153.788L108.723 163.29L101.89 159.151C99.4174 160.644 96.7574 161.802 93.9796 162.593L92.3532 170.417L79.1731 170.66L77.251 162.921C74.4453 162.23 71.7455 161.165 69.2246 159.753L62.5395 164.135L53.0346 154.949L57.1745 148.139C55.675 145.671 54.5168 143.01 53.7316 140.231L45.9059 138.605L45.6736 125.386L53.4359 123.486C54.134 120.683 55.1993 117.985 56.6042 115.462L52.2214 108.778L61.4095 99.2759L68.2425 103.415L68.2319 103.362ZM75.2867 120.973C73.3357 122.991 72.0274 125.543 71.5271 128.305C71.0268 131.067 71.3571 133.915 72.4761 136.489C73.5951 139.063 75.4526 141.248 77.8137 142.767C80.1747 144.286 82.9333 145.07 85.7404 145.021C88.5476 144.973 91.2772 144.093 93.5841 142.493C95.891 140.893 97.6715 138.645 98.7004 136.034C99.7293 133.422 99.9604 130.564 99.3645 127.822C98.7686 125.079 97.3724 122.574 95.3526 120.625C92.6451 118.011 89.0103 116.58 85.2474 116.645C81.4846 116.711 77.9018 118.267 75.2867 120.973Z" fill="white"/>
<path d="M11.8381 3.66869C14.9786 1.77639 18.3559 0.308646 21.882 -0.696222L23.9492 -10.6325L40.7403 -10.9246L43.161 -1.06509C46.7152 -0.188323 50.1369 1.1581 53.3355 2.93864L61.7887 -2.62508L73.869 9.04029L68.6511 17.6856C70.5455 20.8249 72.0134 24.2026 73.016 27.7295L82.9523 29.7967L83.2444 46.5954L73.3849 49.0084C72.5094 52.568 71.163 55.9949 69.3812 59.1983L74.9372 67.6515L63.2795 79.7395L54.6035 74.5524C51.4641 76.4468 48.0865 77.9146 44.5596 78.9173L42.4924 88.8536L25.6706 89.1533L23.2576 79.2938C19.6969 78.4218 16.2696 77.0752 13.0677 75.2901L4.61451 80.8538L-7.47353 69.1731L-2.21719 60.497C-4.12162 57.3572 -5.59737 53.9767 -6.60516 50.4455L-16.5415 48.3783L-16.8335 31.5872L-6.97403 29.1665C-6.10199 25.6059 -4.75537 22.1785 -2.9703 18.9766L-8.53402 10.5234L3.15441 -1.58765L11.8381 3.66869ZM20.7908 26.0389C18.3141 28.6024 16.6534 31.8429 16.0186 35.3505C15.3838 38.858 15.8035 42.475 17.2246 45.744C18.6456 49.013 21.0043 51.7872 24.0021 53.7156C27 55.6439 30.5024 56.6399 34.0664 56.5776C37.6304 56.5152 41.0958 55.3973 44.0244 53.3652C46.953 51.3332 49.2131 48.4782 50.519 45.1615C51.8248 41.8448 52.1177 38.2153 51.3606 34.7321C50.6035 31.2489 48.8304 28.0685 46.2656 25.5931C44.5637 23.9482 42.5543 22.6547 40.3522 21.7868C38.1501 20.9189 35.7986 20.4934 33.432 20.5348C31.0654 20.5762 28.7302 21.0836 26.5598 22.028C24.3894 22.9725 22.4265 24.3354 20.7831 26.0389H20.7908Z" fill="white"/>
<path d="M-24.3875 107.143C-22.8655 106.229 -21.2301 105.518 -19.5231 105.03L-18.5164 100.219L-10.3783 100.073L-9.21026 104.853C-7.49167 105.286 -5.83978 105.951 -4.29974 106.828L-0.180737 104.138L5.69037 109.748L3.14674 113.952C4.06226 115.473 4.77284 117.109 5.26003 118.816L10.0707 119.823L10.2167 127.961L5.43678 129.114C5.01757 130.838 4.3661 132.498 3.50023 134.047L6.18987 138.166L0.541626 144.014L-3.66191 141.471C-5.18326 142.386 -6.81888 143.097 -8.52632 143.584L-9.53302 148.395L-17.6711 148.541L-18.8392 143.761C-20.5627 143.338 -22.2219 142.687 -23.7728 141.824L-27.8841 144.514L-33.7398 138.866L-31.1962 134.677C-32.1117 133.156 -32.8223 131.52 -33.3095 129.813L-38.1124 128.806L-38.2661 120.661L-33.5016 119.5C-33.0789 117.777 -32.4276 116.117 -31.5651 114.567L-34.2701 110.455L-28.6218 104.6L-24.4183 107.143H-24.3875ZM-20.0457 117.986C-21.2454 119.228 -22.05 120.798 -22.3575 122.497C-22.665 124.196 -22.4618 125.948 -21.7734 127.532C-21.0851 129.116 -19.9425 130.459 -18.4904 131.394C-17.0382 132.328 -15.3415 132.81 -13.6151 132.78C-11.8886 132.75 -10.2098 132.209 -8.79109 131.225C-7.37235 130.24 -6.27737 128.857 -5.64464 127.251C-5.01191 125.644 -4.86984 123.886 -5.23642 122.199C-5.603 120.511 -6.46175 118.97 -7.70406 117.771C-9.3694 116.163 -11.6051 115.283 -13.9194 115.323C-16.2338 115.364 -18.4374 116.322 -20.0457 117.986Z" fill="white"/>
<path d="M-24.3875 107.143C-22.8655 106.229 -21.2301 105.518 -19.5231 105.03L-18.5164 100.219L-10.3783 100.073L-9.21026 104.853C-7.49167 105.286 -5.83978 105.951 -4.29974 106.828L-0.180737 104.138L5.69037 109.748L3.14674 113.952C4.06226 115.473 4.77284 117.109 5.26003 118.816L10.0707 119.823L10.2167 127.961L5.43678 129.114C5.01757 130.838 4.3661 132.498 3.50023 134.047L6.18987 138.166L0.541626 144.014L-3.66191 141.471C-5.18326 142.386 -6.81888 143.097 -8.52632 143.584L-9.53302 148.395L-17.6711 148.541L-18.8392 143.761C-20.5627 143.338 -22.2219 142.687 -23.7728 141.824L-27.8841 144.514L-33.7398 138.866L-31.1962 134.677C-32.1117 133.156 -32.8223 131.52 -33.3095 129.813L-38.1124 128.806L-38.2661 120.661L-33.5016 119.5C-33.0789 117.777 -32.4276 116.117 -31.5651 114.567L-34.2701 110.455L-28.6218 104.6L-24.4183 107.143H-24.3875ZM-20.0457 117.986C-21.2454 119.228 -22.05 120.798 -22.3575 122.497C-22.665 124.196 -22.4618 125.948 -21.7734 127.532C-21.0851 129.116 -19.9425 130.459 -18.4904 131.394C-17.0382 132.328 -15.3415 132.81 -13.6151 132.78C-11.8886 132.75 -10.2098 132.209 -8.79109 131.225C-7.37235 130.24 -6.27737 128.857 -5.64464 127.251C-5.01191 125.644 -4.86984 123.886 -5.23642 122.199C-5.603 120.511 -6.46175 118.97 -7.70406 117.771C-9.3694 116.163 -11.6051 115.283 -13.9194 115.323C-16.2338 115.364 -18.4374 116.322 -20.0457 117.986Z" fill="white"/>
<path d="M153.359 36.7589C156.002 35.1697 158.845 33.9396 161.813 33.101L163.549 24.7631L177.635 24.5172L179.664 32.786C182.637 33.5197 185.5 34.6437 188.179 36.1288L195.295 31.4642L205.431 41.2468L201.02 48.5242C202.612 51.1654 203.843 54.0085 204.678 56.9774L213.016 58.7141L213.262 72.8002L204.993 74.829C204.265 77.8113 203.141 80.6828 201.65 83.3667L206.315 90.4827L196.532 100.619L189.255 96.2078C186.612 97.7978 183.769 99.028 180.801 99.8657L179.065 108.204L164.986 108.45L162.958 100.181C159.976 99.4504 157.105 98.3262 154.42 96.8379L147.296 101.503L137.16 91.7122L141.579 84.4348C139.981 81.7953 138.748 78.9518 137.913 75.9817L129.575 74.2449L129.329 60.1589L137.598 58.1378C138.33 55.1567 139.455 52.2859 140.941 49.6001L136.33 42.484L146.113 32.3479L153.39 36.7589H153.359ZM160.867 55.525C158.791 57.6757 157.398 60.3941 156.866 63.3362C156.335 66.2783 156.687 69.312 157.88 72.0537C159.072 74.7953 161.051 77.1218 163.566 78.7389C166.08 80.3559 169.018 81.1909 172.008 81.1382C174.997 81.0856 177.903 80.1476 180.36 78.443C182.816 76.7383 184.711 74.3436 185.806 71.5616C186.902 68.7796 187.147 65.7354 186.512 62.8138C185.877 59.8923 184.39 57.2247 182.238 55.1484C179.353 52.3667 175.482 50.8439 171.475 50.9145C167.468 50.9851 163.653 52.6434 160.867 55.525Z" fill="white"/>
<path d="M153.359 36.7589C156.002 35.1697 158.845 33.9396 161.813 33.101L163.549 24.7631L177.635 24.5172L179.664 32.786C182.637 33.5197 185.5 34.6437 188.179 36.1288L195.295 31.4642L205.431 41.2468L201.02 48.5242C202.612 51.1654 203.843 54.0085 204.678 56.9774L213.016 58.7141L213.262 72.8002L204.993 74.829C204.265 77.8113 203.141 80.6828 201.65 83.3667L206.315 90.4827L196.532 100.619L189.255 96.2078C186.612 97.7978 183.769 99.028 180.801 99.8657L179.065 108.204L164.986 108.45L162.958 100.181C159.976 99.4504 157.105 98.3262 154.42 96.8379L147.296 101.503L137.16 91.7122L141.579 84.4348C139.981 81.7953 138.748 78.9518 137.913 75.9817L129.575 74.2449L129.329 60.1589L137.598 58.1378C138.33 55.1567 139.455 52.2859 140.941 49.6001L136.33 42.484L146.113 32.3479L153.39 36.7589H153.359ZM160.867 55.525C158.791 57.6757 157.398 60.3941 156.866 63.3362C156.335 66.2783 156.687 69.312 157.88 72.0537C159.072 74.7953 161.051 77.1218 163.566 78.7389C166.08 80.3559 169.018 81.1909 172.008 81.1382C174.997 81.0856 177.903 80.1476 180.36 78.443C182.816 76.7383 184.711 74.3436 185.806 71.5616C186.902 68.7796 187.147 65.7354 186.512 62.8138C185.877 59.8923 184.39 57.2247 182.238 55.1484C179.353 52.3667 175.482 50.8439 171.475 50.9145C167.468 50.9851 163.653 52.6434 160.867 55.525Z" fill="white"/>
<path d="M102.518 -12.2078C104.201 -13.2114 106.009 -13.9867 107.897 -14.5132L109.003 -19.8464L118.002 -20.0001L119.301 -14.713C121.21 -14.2462 123.048 -13.5251 124.765 -12.569L129.314 -15.5507L135.792 -9.29533L132.972 -4.64609C133.974 -2.96213 134.749 -1.15344 135.277 0.733204L140.603 1.8398L140.764 10.8386L135.477 12.1373C135.006 14.0462 134.283 15.8837 133.326 17.6011L136.307 22.1505L130.06 28.621L125.449 25.8007C123.766 26.8041 121.957 27.5793 120.069 28.1061L118.963 33.4316L109.956 33.593L108.665 28.3059C106.757 27.8343 104.919 27.1107 103.202 26.1542L98.6522 29.1359L92.174 22.8882L94.9943 18.2313C93.9888 16.5493 93.2134 14.7401 92.6889 12.852L87.3634 11.7454L87.1482 2.75428L92.4353 1.46325C92.9008 -0.44623 93.622 -2.28411 94.5793 -4.00057L91.5976 -8.54992L97.853 -15.0281L102.518 -12.2078ZM107.321 -0.219704C105.991 1.15362 105.098 2.89061 104.756 4.77137C104.414 6.65213 104.638 8.59209 105.399 10.3457C106.16 12.0992 107.424 13.5875 109.032 14.6222C110.639 15.6569 112.517 16.1913 114.429 16.158C116.34 16.1246 118.199 15.5248 119.769 14.4347C121.339 13.3445 122.551 11.813 123.25 10.0339C123.949 8.25482 124.105 6.30823 123.698 4.44056C123.29 2.57289 122.338 0.868122 120.961 -0.457928C120.048 -1.34122 118.969 -2.03579 117.787 -2.50192C116.605 -2.96805 115.343 -3.19659 114.072 -3.17446C112.802 -3.15233 111.548 -2.87998 110.383 -2.37298C109.218 -1.86597 108.164 -1.13427 107.282 -0.219704H107.321Z" fill="white"/>
<path d="M102.518 -12.2078C104.201 -13.2114 106.009 -13.9867 107.897 -14.5132L109.003 -19.8464L118.002 -20.0001L119.301 -14.713C121.21 -14.2462 123.048 -13.5251 124.765 -12.569L129.314 -15.5507L135.792 -9.29533L132.972 -4.64609C133.974 -2.96213 134.749 -1.15344 135.277 0.733204L140.603 1.8398L140.764 10.8386L135.477 12.1373C135.006 14.0462 134.283 15.8837 133.326 17.6011L136.307 22.1505L130.06 28.621L125.449 25.8007C123.766 26.8041 121.957 27.5793 120.069 28.1061L118.963 33.4316L109.956 33.593L108.665 28.3059C106.757 27.8343 104.919 27.1107 103.202 26.1542L98.6522 29.1359L92.174 22.8882L94.9943 18.2313C93.9888 16.5493 93.2134 14.7401 92.6889 12.852L87.3634 11.7454L87.1482 2.75428L92.4353 1.46325C92.9008 -0.44623 93.622 -2.28411 94.5793 -4.00057L91.5976 -8.54992L97.853 -15.0281L102.518 -12.2078ZM107.321 -0.219704C105.991 1.15362 105.098 2.89061 104.756 4.77137C104.414 6.65213 104.638 8.59209 105.399 10.3457C106.16 12.0992 107.424 13.5875 109.032 14.6222C110.639 15.6569 112.517 16.1913 114.429 16.158C116.34 16.1246 118.199 15.5248 119.769 14.4347C121.339 13.3445 122.551 11.813 123.25 10.0339C123.949 8.25482 124.105 6.30823 123.698 4.44056C123.29 2.57289 122.338 0.868122 120.961 -0.457928C120.048 -1.34122 118.969 -2.03579 117.787 -2.50192C116.605 -2.96805 115.343 -3.19659 114.072 -3.17446C112.802 -3.15233 111.548 -2.87998 110.383 -2.37298C109.218 -1.86597 108.164 -1.13427 107.282 -0.219704H107.321Z" fill="white"/>
<path d="M-10.0634 173.616C-7.31926 171.95 -4.36537 170.658 -1.27977 169.773L0.533821 161.074L15.2347 160.813L17.3479 169.443C20.4652 170.211 23.4658 171.392 26.2699 172.955L33.701 168.083L44.2751 178.296L39.6643 185.888C41.3298 188.638 42.622 191.597 43.5067 194.687L52.2058 196.493L52.467 211.194L43.8294 213.307C43.0681 216.425 41.8894 219.426 40.3252 222.229L45.1896 229.66L34.969 240.258L27.3688 235.647C24.622 237.312 21.6656 238.604 18.5775 239.489L16.7716 248.188L2.07076 248.449L-0.0502129 239.773C-3.16542 239.011 -6.16377 237.832 -8.96446 236.269L-16.3956 241.141L-26.9697 230.951L-22.3589 223.351C-24.0288 220.607 -25.3212 217.65 -26.2012 214.56L-34.885 212.754L-35.1462 198.053L-26.5163 195.971C-25.7488 192.853 -24.5677 189.853 -23.0044 187.049L-27.8765 179.618L-17.6635 169.043L-10.0634 173.654V173.616ZM-2.23267 193.196C-4.40054 195.44 -5.85439 198.275 -6.41029 201.345C-6.96619 204.415 -6.59916 207.58 -5.35563 210.441C-4.1121 213.302 -2.04794 215.73 0.575695 217.417C3.19933 219.105 6.26455 219.976 9.38358 219.922C12.5026 219.867 15.5353 218.888 18.098 217.109C20.6607 215.33 22.6382 212.831 23.7803 209.929C24.9225 207.026 25.178 203.849 24.5145 200.801C23.851 197.753 22.2984 194.97 20.053 192.805C17.0437 189.905 13.0072 188.318 8.8291 188.392C4.65103 188.465 0.67276 190.193 -2.23267 193.196Z" fill="white"/>
<path d="M-10.0634 173.616C-7.31926 171.95 -4.36537 170.658 -1.27977 169.773L0.533821 161.074L15.2347 160.813L17.3479 169.443C20.4652 170.211 23.4658 171.392 26.2699 172.955L33.701 168.083L44.2751 178.296L39.6643 185.888C41.3298 188.638 42.622 191.597 43.5067 194.687L52.2058 196.493L52.467 211.194L43.8294 213.307C43.0681 216.425 41.8894 219.426 40.3252 222.229L45.1896 229.66L34.969 240.258L27.3688 235.647C24.622 237.312 21.6656 238.604 18.5775 239.489L16.7716 248.188L2.07076 248.449L-0.0502129 239.773C-3.16542 239.011 -6.16377 237.832 -8.96446 236.269L-16.3956 241.141L-26.9697 230.951L-22.3589 223.351C-24.0288 220.607 -25.3212 217.65 -26.2012 214.56L-34.885 212.754L-35.1462 198.053L-26.5163 195.971C-25.7488 192.853 -24.5677 189.853 -23.0044 187.049L-27.8765 179.618L-17.6635 169.043L-10.0634 173.654V173.616ZM-2.23267 193.196C-4.40054 195.44 -5.85439 198.275 -6.41029 201.345C-6.96619 204.415 -6.59916 207.58 -5.35563 210.441C-4.1121 213.302 -2.04794 215.73 0.575695 217.417C3.19933 219.105 6.26455 219.976 9.38358 219.922C12.5026 219.867 15.5353 218.888 18.098 217.109C20.6607 215.33 22.6382 212.831 23.7803 209.929C24.9225 207.026 25.178 203.849 24.5145 200.801C23.851 197.753 22.2984 194.97 20.053 192.805C17.0437 189.905 13.0072 188.318 8.8291 188.392C4.65103 188.465 0.67276 190.193 -2.23267 193.196Z" fill="white"/>
</g>
<path d="M158.385 193.126L157.876 177.511L161.307 193.126H175.137L169.01 163.586H142.188L143.648 193.126H158.385Z" fill="#263239"/>
<path d="M149.187 108.742C149.187 108.742 147.322 108.151 147.302 107.03C147.282 105.91 161.279 104.321 163.957 110.534C163.957 110.534 163.407 110.87 161.268 110.748" fill="#438DCC"/>
<path d="M160.8 126.741L152.264 126.12C152.212 125.213 152.264 121.698 152.264 121.698C152.264 121.698 148.708 121.199 148.667 117.96C148.627 114.721 149.217 107.295 149.217 107.295C151.245 106.501 153.466 106.215 155.655 106.47C157.846 106.724 159.924 107.509 161.665 108.742L162.215 109.108L160.8 126.741Z" fill="#EC9A6E"/>
<path d="M150.073 112.878C150.125 112.837 150.175 112.786 150.206 112.735C150.236 112.674 150.257 112.613 150.267 112.552C150.267 112.491 150.267 112.419 150.236 112.358C150.216 112.297 150.176 112.246 150.135 112.195C150.084 112.144 150.033 112.113 149.962 112.083C149.89 112.052 149.829 112.042 149.758 112.042C149.686 112.042 149.615 112.052 149.554 112.073C149.493 112.104 149.432 112.134 149.381 112.185C149.33 112.226 149.289 112.276 149.259 112.328C149.228 112.378 149.218 112.439 149.208 112.501C149.208 112.562 149.208 112.623 149.238 112.684C149.259 112.745 149.299 112.796 149.34 112.837C149.38 112.878 149.442 112.919 149.503 112.949C149.564 112.98 149.625 112.99 149.697 113C149.768 113 149.829 113 149.9 112.969C149.962 112.949 150.023 112.919 150.073 112.878Z" fill="#263239"/>
<path d="M149.217 112.133C149.269 112.185 149.625 111.939 150.114 111.939C150.603 111.939 150.96 112.174 151.011 112.113C151.062 112.052 150.981 111.991 150.827 111.879C150.614 111.746 150.369 111.674 150.104 111.674C149.849 111.674 149.604 111.756 149.391 111.899C149.269 112.011 149.187 112.113 149.207 112.133H149.217Z" fill="#263239"/>
<path d="M154.851 112.521C154.759 112.571 154.697 112.643 154.647 112.725C154.606 112.806 154.586 112.908 154.606 112.999C154.617 113.092 154.667 113.173 154.738 113.244C154.81 113.316 154.901 113.356 154.993 113.387C155.095 113.407 155.197 113.407 155.289 113.366C155.381 113.336 155.472 113.275 155.533 113.203C155.594 113.132 155.625 113.04 155.636 112.949C155.636 112.857 155.615 112.765 155.564 112.684C155.492 112.582 155.381 112.501 155.248 112.47C155.116 112.439 154.973 112.47 154.861 112.531L154.851 112.521Z" fill="#263239"/>
<path d="M154.525 112.53C154.576 112.582 154.932 112.337 155.422 112.337C155.911 112.337 156.268 112.561 156.318 112.51C156.37 112.459 156.318 112.378 156.135 112.276C155.921 112.133 155.677 112.062 155.422 112.062C155.167 112.062 154.912 112.133 154.708 112.276C154.556 112.398 154.505 112.51 154.535 112.53H154.525Z" fill="#263239"/>
<path d="M152.569 116.208C152.314 116.116 152.049 116.065 151.775 116.055C151.642 116.055 151.54 116.014 151.53 115.953C151.53 115.841 151.56 115.719 151.621 115.617L152.008 114.71C152.375 113.947 152.651 113.141 152.844 112.327C152.396 113.05 152.029 113.824 151.744 114.619L151.377 115.536C151.295 115.688 151.275 115.871 151.316 116.034C151.336 116.075 151.367 116.116 151.397 116.147C151.438 116.177 151.479 116.208 151.53 116.218H151.754C152.019 116.259 152.294 116.249 152.559 116.208H152.569Z" fill="#263239"/>
<path d="M154.159 116.697C153.395 117.013 152.59 117.227 151.754 117.329C151.917 117.563 152.162 117.746 152.458 117.838C152.743 117.93 153.068 117.93 153.354 117.838C154.413 117.472 154.159 116.707 154.159 116.707V116.697Z" fill="white"/>
<path d="M152.273 121.678C153.914 121.709 155.523 121.291 156.898 120.476C156.898 120.476 155.798 122.809 152.263 122.513V121.678H152.273Z" fill="#D17349"/>
<path d="M149.187 108.13C149.187 108.13 151.265 109.231 154.178 108.13C156.093 107.417 158.273 107.132 158.712 107.519C159.16 107.906 159.119 109.627 160.911 110.249C160.911 110.249 160.525 113.539 161.972 113.519C163.418 113.498 162.939 108.324 162.939 108.324L159.537 106.521L155.747 105.594L152.08 105.818L149.217 106.317V108.12L149.187 108.13Z" fill="#263239"/>
<path d="M161.757 112.46C161.818 112.439 164.192 111.798 164.121 114.019C164.039 116.239 161.625 115.699 161.615 115.638C161.615 115.577 161.757 112.46 161.757 112.46Z" fill="#EC9A6E"/>
<path d="M162.389 114.814C162.389 114.814 162.429 114.814 162.5 114.875C162.602 114.916 162.715 114.916 162.817 114.875C162.98 114.783 163.112 114.66 163.193 114.518C163.285 114.375 163.326 114.202 163.326 114.039C163.347 113.845 163.306 113.652 163.224 113.478C163.204 113.407 163.163 113.346 163.112 113.295C163.061 113.244 162.99 113.204 162.919 113.183C162.867 113.173 162.817 113.173 162.776 113.183C162.725 113.204 162.694 113.234 162.674 113.275C162.643 113.336 162.674 113.376 162.643 113.387C162.613 113.387 162.592 113.346 162.613 113.254C162.633 113.204 162.663 113.152 162.715 113.122C162.786 113.081 162.867 113.061 162.949 113.071C163.051 113.091 163.143 113.132 163.214 113.193C163.285 113.254 163.347 113.336 163.377 113.428C163.479 113.621 163.519 113.835 163.499 114.049C163.499 114.243 163.448 114.447 163.336 114.61C163.224 114.773 163.051 114.905 162.857 114.986C162.796 114.997 162.725 115.007 162.654 114.986C162.582 114.977 162.522 114.946 162.47 114.916C162.399 114.875 162.378 114.823 162.398 114.823L162.389 114.814Z" fill="#D17349"/>
<path d="M163.408 105.604C163.408 105.675 163.031 105.644 162.623 105.767C162.216 105.889 161.941 106.093 161.88 106.042C161.819 105.991 162.043 105.665 162.542 105.542C163.041 105.42 163.438 105.542 163.408 105.604Z" fill="#263239"/>
<path d="M162.022 104.199C162.185 104.535 162.216 104.901 162.094 105.258C161.961 105.859 161.544 106.216 161.492 106.165C161.442 106.114 161.707 105.737 161.809 105.207C161.92 104.667 161.92 104.209 162.013 104.209L162.022 104.199Z" fill="#263239"/>
<path d="M151.592 111.41C151.511 111.543 151.042 111.41 150.492 111.41C149.941 111.41 149.462 111.45 149.391 111.318C149.319 111.186 149.808 110.86 150.492 110.89C151.174 110.921 151.674 111.287 151.592 111.41Z" fill="#263239"/>
<path d="M157.042 111.41C156.97 111.543 156.492 111.41 155.942 111.41C155.391 111.41 154.912 111.45 154.841 111.318C154.769 111.186 155.249 110.86 155.942 110.89C156.624 110.921 157.124 111.287 157.042 111.41Z" fill="#263239"/>
<path d="M154.984 106.572C148.576 105.94 147.353 106.969 147.292 107.02C147.129 106.857 147.018 106.664 146.966 106.44C146.742 104.718 149.035 104.229 149.035 104.229C150.471 98.2595 156.358 98.8707 156.358 98.8707V98.8299C156.41 98.5756 156.573 98.3614 156.807 98.2089C157.041 98.0663 157.326 98.015 157.601 98.0558L158.528 98.2187C158.803 98.2701 159.048 98.4127 159.211 98.6262C159.364 98.8405 159.425 99.0948 159.374 99.3498C166.28 101.448 163.988 107.264 163.988 107.264L164.996 108.375C165.893 110.025 163.948 110.535 163.948 110.535C163.948 110.535 161.553 107.244 154.993 106.572L154.984 106.572Z" fill="#E2323D"/>
<g opacity="0.2">
<path d="M157.897 105.594C158.284 105.594 158.671 105.665 159.038 105.788C160.831 106.256 162.491 107.081 163.906 108.201C164.213 108.416 164.487 108.67 164.711 108.966C163.672 108.242 162.603 107.58 161.483 106.969C160.321 106.449 159.129 105.991 157.907 105.594L157.897 105.594Z" fill="white"/>
</g>
<g opacity="0.2">
<path d="M158.935 99.7376C158.865 99.7066 158.935 99.4417 158.844 99.1262C158.752 98.8099 158.609 98.5858 158.671 98.5352C158.732 98.4839 159.037 98.6779 159.119 99.0854C159.2 99.493 158.997 99.7474 158.926 99.7474L158.935 99.7376Z" fill="white"/>
</g>
<g opacity="0.2">
<path d="M163.387 106.399C162.99 106.327 163.132 104.636 162.144 102.956C161.156 101.285 159.577 100.409 159.731 100.083C159.802 99.9204 160.342 99.9204 161.096 100.256C162.083 100.725 162.888 101.448 163.397 102.345C163.917 103.241 164.121 104.249 163.988 105.258C163.866 106.032 163.53 106.44 163.377 106.399H163.387Z" fill="white"/>
</g>
<path d="M112.119 148.021C112.119 148.021 107.891 146.024 107.178 145.148C106.455 144.282 106.129 141.084 106.129 141.084L113.331 143.538L112.119 148.021Z" fill="#EC9A6E"/>
<path d="M143.564 139.749C143.32 139.82 138.665 149.284 134.916 149.335C131.178 149.386 112.119 148.01 112.119 148.01L113.301 143.508L131.585 142.978L137.575 135.593L143.564 139.759L143.564 139.749Z" fill="#EC9A6E"/>
<path d="M169.04 164.757L142.209 166.142C142.127 163.453 143.227 141.898 143.227 141.898L141.751 144.404L134.06 138.17L140.773 129.909C141.832 128.615 143.157 127.515 144.685 126.7C146.212 125.875 147.903 125.345 149.656 125.121C150.695 124.989 151.489 124.928 151.998 124.867C154.962 125.722 158.141 125.722 161.105 124.867C162.389 124.907 163.662 125.131 164.874 125.528C167.166 126.262 169.234 127.484 170.914 129.073L178.952 141.369L169.214 146.951L167.808 143.08L169.04 164.746L169.04 164.757Z" fill="#438DCC"/>
<path d="M156.694 189.266C156.776 189.266 156.837 189.602 156.817 190.03C156.807 190.448 156.735 190.794 156.654 190.794C156.572 190.794 156.521 190.448 156.531 190.03C156.531 189.612 156.613 189.245 156.694 189.276V189.266Z" fill="#455A64"/>
<path d="M156.797 186.19C156.868 186.19 156.919 186.536 156.909 186.954C156.888 187.372 156.817 187.718 156.736 187.708C156.654 187.708 156.603 187.361 156.623 186.944C156.644 186.526 156.715 186.179 156.797 186.19Z" fill="#455A64"/>
<path d="M156.959 183.154C157.031 183.154 157.081 183.5 157.051 183.918C157.02 184.336 156.939 184.682 156.857 184.673C156.776 184.673 156.735 184.325 156.766 183.897C156.796 183.48 156.898 183.144 156.959 183.144V183.154Z" fill="#455A64"/>
<path d="M157.266 180.119C157.347 180.119 157.377 180.465 157.327 180.893C157.275 181.311 157.184 181.647 157.103 181.637C157.021 181.627 156.99 181.291 157.041 180.863C157.092 180.445 157.184 180.109 157.255 180.119H157.266Z" fill="#455A64"/>
<path d="M157.581 177.867C157.662 177.867 157.693 178.051 157.662 178.255C157.632 178.459 157.54 178.611 157.469 178.601C157.388 178.601 157.357 178.418 157.388 178.214C157.418 178 157.51 177.857 157.581 177.867Z" fill="#455A64"/>
<path d="M162.358 166.132L160.891 140.492H144.756L142.138 166.855L162.358 166.122L162.358 166.132Z" fill="#263239"/>
<path d="M165.862 125.885C165.862 125.885 159.323 127.444 159.222 141.43H156.583C156.583 141.43 155.89 129.695 163 125.081C163 125.081 165.058 124.633 165.862 125.896L165.862 125.885Z" fill="#263239"/>
<path d="M152.009 124.887C152.009 124.887 147.364 126.884 147.262 140.89H145.021C145.021 140.89 144.868 127.78 149.269 125.193C149.666 124.948 150.124 124.796 150.603 124.744C151.082 124.694 151.561 124.744 152.019 124.887H152.009Z" fill="#263239"/>
<path d="M173.033 190.662C173.105 190.662 173.248 190.957 173.329 191.365C173.421 191.762 173.421 192.099 173.329 192.119C173.237 192.139 173.115 191.823 173.033 191.416C172.952 191.018 172.952 190.672 173.033 190.662Z" fill="#455A64"/>
<path d="M172.412 187.768C172.494 187.768 172.626 188.064 172.707 188.472C172.789 188.879 172.8 189.205 172.707 189.226C172.616 189.236 172.494 188.93 172.412 188.522C172.32 188.125 172.331 187.768 172.412 187.768Z" fill="#455A64"/>
<path d="M171.781 184.856C171.863 184.856 171.995 185.151 172.076 185.558C172.168 185.966 172.168 186.292 172.076 186.312C171.985 186.323 171.863 186.017 171.781 185.61C171.7 185.202 171.709 184.865 171.781 184.856Z" fill="#455A64"/>
<path d="M171.159 181.963C171.231 181.963 171.373 182.258 171.455 182.666C171.546 183.063 171.546 183.399 171.455 183.42C171.363 183.43 171.241 183.125 171.159 182.717C171.068 182.319 171.078 181.983 171.159 181.963Z" fill="#455A64"/>
<path d="M170.527 179.06C170.609 179.06 170.742 179.355 170.833 179.762C170.925 180.16 170.925 180.496 170.833 180.516C170.742 180.527 170.619 180.221 170.538 179.814C170.456 179.406 170.456 179.08 170.538 179.06H170.527Z" fill="#455A64"/>
<path d="M169.886 176.166C169.958 176.166 170.1 176.462 170.192 176.869C170.283 177.266 170.294 177.603 170.192 177.613C170.09 177.623 169.978 177.318 169.897 176.92C169.805 176.523 169.815 176.186 169.897 176.166H169.886Z" fill="#455A64"/>
<path d="M169.244 173.263C169.316 173.263 169.458 173.558 169.55 173.955C169.642 174.353 169.652 174.689 169.55 174.71C169.448 174.72 169.336 174.414 169.244 174.017C169.153 173.62 169.163 173.263 169.244 173.263Z" fill="#455A64"/>
<path d="M168.756 171.083C168.827 171.083 168.929 171.225 168.98 171.419C169.031 171.623 168.98 171.797 168.919 171.817C168.858 171.827 168.745 171.675 168.694 171.481C168.653 171.277 168.674 171.104 168.745 171.083H168.756Z" fill="#455A64"/>
<path d="M147.354 140.156C147.465 140.391 147.506 140.645 147.496 140.9C147.506 141.186 147.446 141.471 147.313 141.736C147.231 141.899 147.109 142.051 146.946 142.164C146.794 142.275 146.6 142.357 146.407 142.398C146.203 142.428 145.989 142.398 145.795 142.336C145.601 142.265 145.439 142.153 145.306 142.001C145.103 141.777 144.99 141.491 144.98 141.196C144.98 140.697 145.143 140.442 145.174 140.462C145.204 140.473 145.133 140.758 145.174 141.186C145.204 141.43 145.316 141.664 145.489 141.847C145.591 141.96 145.724 142.041 145.866 142.092C146.009 142.143 146.172 142.164 146.325 142.143C146.478 142.112 146.62 142.051 146.742 141.96C146.865 141.868 146.966 141.766 147.048 141.634C147.17 141.41 147.242 141.165 147.262 140.91C147.323 140.442 147.302 140.156 147.354 140.156Z" fill="#455A64"/>
<path d="M146.192 140.524C146.192 140.524 146.355 140.432 146.549 140.585C146.611 140.636 146.661 140.708 146.682 140.789C146.702 140.871 146.702 140.952 146.682 141.023C146.651 141.095 146.611 141.166 146.539 141.217C146.468 141.268 146.386 141.299 146.305 141.308C146.213 141.329 146.111 141.319 146.02 141.288C145.927 141.258 145.857 141.197 145.805 141.115C145.775 141.054 145.755 140.982 145.755 140.921C145.755 140.86 145.775 140.789 145.805 140.728C145.918 140.514 146.111 140.514 146.111 140.554C146.111 140.585 146.02 140.646 145.999 140.789C145.989 140.83 145.989 140.86 145.999 140.901C146.009 140.932 146.029 140.973 146.06 140.993C146.091 141.023 146.121 141.043 146.162 141.054C146.203 141.064 146.244 141.064 146.284 141.054C146.325 141.054 146.366 141.034 146.396 141.003C146.427 140.972 146.448 140.952 146.468 140.911C146.478 140.88 146.488 140.84 146.478 140.799C146.478 140.758 146.457 140.728 146.437 140.697C146.335 140.575 146.223 140.554 146.223 140.514L146.192 140.524Z" fill="#455A64"/>
<path d="M159.037 140.249C159.139 140.473 159.18 140.707 159.149 140.952C159.149 141.226 159.068 141.491 158.915 141.726C158.824 141.878 158.681 142.001 158.528 142.102C158.365 142.195 158.181 142.245 157.988 142.256C157.805 142.256 157.611 142.235 157.438 142.174C157.265 142.113 157.102 142.021 156.959 141.909C156.745 141.726 156.592 141.481 156.511 141.217C156.379 140.778 156.46 140.504 156.511 140.504C156.562 140.504 156.562 140.778 156.715 141.156C156.807 141.369 156.959 141.573 157.153 141.726C157.387 141.909 157.683 142.001 157.988 141.991C158.131 141.991 158.283 141.95 158.406 141.878C158.528 141.807 158.64 141.715 158.711 141.593C158.844 141.389 158.925 141.165 158.956 140.931C158.956 140.697 158.976 140.473 159.027 140.249H159.037Z" fill="#455A64"/>
<path d="M157.774 140.524C157.774 140.524 157.917 140.453 158.06 140.595C158.1 140.636 158.131 140.687 158.152 140.738C158.172 140.789 158.172 140.85 158.152 140.901C158.131 140.973 158.08 141.034 158.03 141.084C157.968 141.136 157.897 141.166 157.815 141.177C157.734 141.186 157.652 141.177 157.581 141.146C157.509 141.115 157.439 141.075 157.398 141.013C157.367 140.962 157.346 140.912 157.346 140.85C157.346 140.789 157.346 140.738 157.377 140.687C157.459 140.514 157.622 140.504 157.622 140.545C157.622 140.586 157.581 140.636 157.581 140.738C157.581 140.84 157.642 140.942 157.785 140.921C157.928 140.901 157.958 140.789 157.917 140.687C157.876 140.586 157.795 140.555 157.795 140.514L157.774 140.524Z" fill="#455A64"/>
<path d="M158.426 146.717C158.426 146.717 158.304 146.819 158.049 146.962C157.692 147.155 157.326 147.338 156.949 147.492C155.696 148.021 154.372 148.418 153.007 148.653C151.642 148.887 150.256 148.968 148.861 148.897C148.443 148.866 148.026 148.826 147.618 148.755C147.465 148.744 147.313 148.714 147.17 148.663C147.17 148.622 147.822 148.663 148.882 148.703C150.247 148.724 151.611 148.612 152.956 148.388C154.301 148.153 155.605 147.787 156.868 147.308C157.825 146.962 158.396 146.686 158.416 146.717H158.426Z" fill="#455A64"/>
<path d="M171.17 169.188L141.761 166.866V169.911L171.17 172.193V169.178V169.188Z" fill="#438DCC"/>
<path d="M151.051 167.467C150.644 167.477 150.237 167.467 149.829 167.436C149.076 167.396 148.016 167.344 146.773 167.252L146.916 167.12L147.517 170.176L147.557 170.421L147.425 170.319L151.327 170.554L151.204 170.665C151.143 169.728 151.102 168.943 151.072 168.383C151.052 168.078 151.052 167.772 151.072 167.476C151.143 167.752 151.184 168.037 151.204 168.322C151.275 168.872 151.367 169.687 151.459 170.665V170.787H151.327L147.415 170.604H147.302V170.502L147.252 170.258L146.702 167.192L146.671 167.039H146.834C148.128 167.151 149.208 167.263 149.951 167.344C150.318 167.365 150.684 167.415 151.051 167.476L151.051 167.467Z" fill="#455A64"/>
<path d="M145.428 168.109C145.968 168.007 146.529 167.996 147.079 168.078C147.629 168.078 148.178 168.15 148.698 168.313C148.158 168.414 147.598 168.424 147.048 168.343C146.498 168.343 145.948 168.272 145.428 168.109Z" fill="#263239"/>
<path d="M145.225 168.974C145.805 168.893 146.396 168.904 146.977 169.005C147.568 169.005 148.148 169.107 148.698 169.291C148.118 169.372 147.527 169.362 146.946 169.26C146.355 169.26 145.775 169.158 145.225 168.974Z" fill="#263239"/>
<path d="M112.404 141.104L101.514 137.753L101.086 139.026C101.086 139.026 105.344 145.138 110.306 146.391L112.404 141.114V141.104Z" fill="#455A64"/>
<path d="M144.756 158.86C144.756 158.86 127.948 148.123 126.94 147.797C125.931 147.471 118.699 147.461 116.916 147.634C115.133 147.807 109.938 147.328 109.938 147.328L115.276 133.851L103.948 131.203L104.55 129.359C104.55 129.359 113.666 124.358 118.933 125.793C124.199 127.23 126.675 133.515 127.765 135.074C128.855 136.632 131.239 142.204 142.485 148.754L149.136 152.798L144.766 158.849L144.756 158.86Z" fill="#455A64"/>
<path d="M126.625 137.161C126.604 137.213 126.584 137.263 126.564 137.315L126.37 137.732L125.616 139.321L122.866 145.056L122.753 144.924C123.395 144.883 124.037 144.883 124.689 144.924C125.392 144.924 126.084 145.066 126.736 145.311C127.99 145.953 129.222 146.737 130.526 147.531C133.134 149.151 135.955 150.944 138.889 152.839C139.235 153.114 139.663 153.297 140.111 153.369C140.437 153.409 140.773 153.378 141.079 153.277C141.395 153.175 141.67 153.012 141.894 152.788C142.118 152.564 142.281 152.299 142.363 152.004C142.444 151.708 142.454 151.402 142.372 151.117C142.281 150.73 142.057 150.384 141.741 150.119C141.415 149.874 141.018 149.64 140.672 149.416L138.563 148.051L131.3 143.314C130.8 142.988 130.373 142.591 130.006 142.143C129.65 141.725 129.344 141.328 129.059 140.941C128.509 140.177 128.04 139.495 127.683 138.945C127.327 138.394 127.053 137.946 126.879 137.641L126.685 137.304C126.685 137.304 126.645 137.223 126.625 137.182C126.665 137.213 126.685 137.254 126.716 137.294L126.93 137.62L127.786 138.893C128.162 139.443 128.631 140.116 129.202 140.89C129.487 141.267 129.803 141.664 130.159 142.071C130.516 142.51 130.944 142.886 131.433 143.202L138.726 147.898L140.835 149.253C141.201 149.498 141.558 149.702 141.935 149.976C142.311 150.272 142.576 150.679 142.678 151.117C142.78 151.565 142.729 152.024 142.515 152.441C142.311 152.859 141.955 153.195 141.517 153.419C141.079 153.634 140.57 153.725 140.081 153.654C139.581 153.572 139.113 153.378 138.726 153.073C135.782 151.178 132.971 149.385 130.373 147.755C129.069 146.961 127.826 146.157 126.614 145.535C125.992 145.301 125.34 145.168 124.668 145.158C124.037 145.127 123.405 145.127 122.773 145.158H122.59L122.662 145.005C123.884 142.591 124.862 140.625 125.565 139.25C125.901 138.598 126.155 138.078 126.349 137.712L126.553 137.315C126.594 137.223 126.614 137.172 126.614 137.182L126.625 137.161Z" fill="#263239"/>
<path d="M170.253 171.134C169.886 171.643 169.397 172.081 168.837 172.407C168.277 172.744 167.645 172.968 166.983 173.07C166.321 173.171 165.648 173.161 164.997 173.018C164.345 172.876 163.733 172.621 163.194 172.255L140.773 156.312L144.756 150.139L168.98 164.92C170.049 165.593 170.782 166.621 171.017 167.782C171.262 168.944 170.986 170.146 170.263 171.134L170.253 171.134Z" fill="#455A64"/>
<path d="M121.021 136.296L119.004 142.041H115.307L117.598 136.316L121.021 136.296Z" fill="#263239"/>
<path d="M115.062 140.778C115.062 140.635 116.285 140.513 117.782 140.503C119.28 140.493 120.532 140.605 120.532 140.748C120.532 140.89 119.32 141.013 117.813 141.022C116.305 141.022 115.062 140.921 115.062 140.778Z" fill="#263239"/>
<path d="M115.766 138.944C115.766 138.802 116.988 138.68 118.505 138.669C120.033 138.669 121.256 138.771 121.256 138.914C121.256 139.056 120.033 139.178 118.505 139.178C116.977 139.178 115.766 139.077 115.766 138.934V138.944Z" fill="#263239"/>
<path d="M116.203 137.202C116.203 137.06 117.415 136.938 118.923 136.928C120.431 136.928 121.673 137.029 121.673 137.183C121.673 137.335 120.451 137.447 118.953 137.447C117.456 137.447 116.203 137.345 116.203 137.202Z" fill="#263239"/>
<path d="M112.475 140.462C112.312 141.491 112.006 142.499 111.579 143.467C111.232 144.455 110.784 145.403 110.234 146.309C110.53 145.311 110.896 144.323 111.334 143.375C111.935 141.756 112.393 140.452 112.485 140.462H112.475Z" fill="#263239"/>
<path d="M182.242 153.226C182.293 149.457 177.852 142.021 177.852 142.021L169.896 146.574L171.19 149.65L153.394 156.313L148.525 156.516L145.418 160.58L149.411 163.922L159.842 161.294C166.443 160.255 182.171 157.402 182.232 153.226H182.242Z" fill="#EC9A6E"/>
<path d="M50.8057 187.768C50.4593 188.227 50.1537 188.705 49.8685 189.194C49.5527 189.673 49.2777 190.162 49.0332 190.672C49.3795 190.213 49.6851 189.735 49.9704 189.246C50.2861 188.766 50.5612 188.278 50.8057 187.768Z" fill="#263239"/>
<path d="M49.4814 191.854V192.078C49.4814 192.2 49.5732 192.281 49.6037 192.272C49.6343 192.272 49.6037 192.159 49.6037 192.047C49.6037 191.935 49.512 191.844 49.4814 191.854Z" fill="#263239"/>
<path d="M48.8193 191.14C48.8193 191.14 48.9212 191.212 49.0028 191.314C49.0945 191.405 49.1556 191.507 49.176 191.497C49.2065 191.497 49.176 191.354 49.0843 191.242C48.9926 191.13 48.8193 191.109 48.8193 191.14Z" fill="#263239"/>
<path d="M48.3201 190.723C48.3201 190.723 48.3201 190.794 48.3709 190.855C48.4218 190.906 48.4828 190.937 48.5032 190.927C48.5235 190.916 48.5032 190.845 48.4523 190.794C48.4015 190.743 48.3404 190.702 48.3201 190.733V190.723Z" fill="#263239"/>
<path d="M94.8619 169.087H78.0142V172.714H94.8619V169.087Z" fill="#263239"/>
<path d="M86.4584 144.547H69.6099V148.174H86.4584V144.547Z" fill="#263239"/>
<path d="M64.8327 169.819H47.9842C46.884 169.819 45.9978 170.634 45.9978 171.633C45.9978 172.641 46.884 173.446 47.9842 173.446H64.8327C65.9328 173.446 66.8191 172.641 66.8191 171.633C66.8191 170.624 65.9328 169.819 64.8327 169.819Z" fill="#455A64"/>
<path d="M54.1062 146.992C54.1062 147.47 54.3201 147.929 54.6868 148.275C55.0637 148.621 55.5629 148.805 56.0926 148.805H68.9683C69.498 148.805 69.9972 148.611 70.3741 148.275C70.751 147.939 70.9547 147.47 70.9547 146.992C70.9547 146.512 70.7412 146.054 70.3741 145.708C69.9972 145.372 69.4981 145.178 68.9683 145.178H56.0926C55.5629 145.178 55.0637 145.372 54.6868 145.708C54.3099 146.044 54.1062 146.512 54.1062 146.992Z" fill="#455A64"/>
<path d="M57.773 109.872C58.0276 109.944 62.6727 119.407 66.4213 119.457C70.1598 119.509 89.229 118.134 89.229 118.134L89.4636 113.071L69.7625 113.121L63.7728 105.737L57.7831 109.882L57.773 109.872Z" fill="#F8BC9E"/>
<path d="M87.0396 113.702C87.0396 113.702 90.2887 112.754 90.6456 112.286C91.0017 111.817 92.4686 109.637 92.4686 109.637C92.7742 110.015 92.907 110.483 92.8353 110.952C92.7334 111.309 92.5501 111.95 92.418 112.45C92.3977 112.52 92.3977 112.592 92.418 112.663C92.4384 112.735 92.4792 112.796 92.5297 112.846C92.581 112.898 92.652 112.939 92.7334 112.959C92.8051 112.979 92.8866 112.989 92.9681 112.969C93.7317 112.846 94.8628 112.714 94.9949 113.05C95.1986 113.549 94.3127 116.871 93.6502 117.482C92.9983 118.093 88.5268 118.103 88.5268 118.103L87.0396 113.692L87.0396 113.702Z" fill="#F8BC9E"/>
<path d="M94.1604 114.039C94.1604 114.039 93.9566 114.263 93.4976 114.457C93.2229 114.569 92.9376 114.65 92.6417 114.691C92.4379 114.722 92.2341 114.691 92.0612 114.589C91.9692 114.528 91.8876 114.446 91.8469 114.344C91.8061 114.243 91.7963 114.141 91.8167 114.029C91.8574 113.825 91.9797 113.652 92.1526 113.529C92.3058 113.438 92.4688 113.366 92.6523 113.325C92.9678 113.244 93.2531 113.203 93.4878 113.153C93.7422 113.081 94.0079 113.051 94.2728 113.061C94.0486 113.193 93.7935 113.285 93.5384 113.325L92.7232 113.55C92.5805 113.57 92.4379 113.631 92.3262 113.723C92.2137 113.815 92.1322 113.927 92.0816 114.059C92.0205 114.335 92.3058 114.467 92.6017 114.437C92.8764 114.406 93.1414 114.355 93.3957 114.274C93.6305 114.181 93.8856 114.1 94.1302 114.049L94.1604 114.039Z" fill="#EC9A6E"/>
<path d="M93.6206 115.536C93.4575 115.659 93.2741 115.751 93.0703 115.801C92.9684 115.842 92.856 115.863 92.7443 115.873C92.6726 115.873 92.591 115.873 92.5201 115.842C92.4484 115.812 92.3872 115.781 92.3261 115.73C92.194 115.629 92.1125 115.496 92.0815 115.343C92.0513 115.19 92.0815 115.038 92.1631 114.905C92.3465 114.68 92.6016 114.528 92.8967 114.456L93.5081 114.232C93.8651 114.1 94.0991 114.069 94.1097 114.1C94.1195 114.13 93.9157 114.232 93.5896 114.395C93.4266 114.477 93.2228 114.579 92.9986 114.68C92.7646 114.752 92.5608 114.874 92.4076 115.047C92.3669 115.129 92.3465 115.221 92.3669 115.312C92.3872 115.404 92.4386 115.486 92.5095 115.547C92.5299 115.577 92.5707 115.608 92.6114 115.618C92.6522 115.638 92.6929 115.638 92.7337 115.638C92.8258 115.638 92.9171 115.629 93.0092 115.608C93.3655 115.536 93.6002 115.486 93.61 115.536L93.6206 115.536Z" fill="#EC9A6E"/>
<path d="M91.6531 116.636C91.6531 116.636 91.5513 116.463 91.3785 116.219C91.1544 115.882 90.8382 115.617 90.4617 115.424L90.2783 115.332L90.4413 115.21C90.553 115.128 90.6752 115.037 90.7771 114.935C91.297 114.415 91.7142 113.825 92.0304 113.183C92.0712 113.183 92.0304 113.438 91.9082 113.815C91.7044 114.304 91.3883 114.752 90.9808 115.119C90.8691 115.221 90.7469 115.322 90.6141 115.414V115.2C91.0321 115.414 91.3679 115.74 91.5618 116.137C91.6531 116.432 91.6531 116.636 91.6531 116.636Z" fill="#EC9A6E"/>
<path d="M93.7021 116.698C93.7021 116.698 93.5594 116.861 93.213 116.973C93.1005 117.014 92.9888 117.024 92.8763 117.024C92.7646 117.024 92.6521 116.994 92.5404 116.942C92.4076 116.881 92.3057 116.79 92.2347 116.677C92.194 116.607 92.1736 116.535 92.1736 116.453C92.1736 116.372 92.194 116.301 92.2347 116.229C92.3774 116.016 92.591 115.832 92.8461 115.73C93.019 115.638 93.2024 115.567 93.3964 115.495C93.7224 115.384 93.9466 115.353 93.9466 115.384C93.9466 115.414 93.773 115.506 93.4779 115.659C93.3352 115.74 93.1616 115.832 92.9684 115.944C92.7744 116.036 92.6114 116.168 92.4891 116.321C92.4076 116.464 92.5299 116.637 92.6831 116.718C92.8355 116.79 93.0092 116.82 93.182 116.779C93.4877 116.739 93.6915 116.657 93.7119 116.698L93.7021 116.698Z" fill="#EC9A6E"/>
<path d="M38.6839 83.469C38.6126 84.3549 38.4292 85.2317 38.1338 86.0768C37.8282 86.9324 37.1966 87.6553 36.3613 88.1344C35.5464 88.5517 34.4259 88.7252 34.1101 89.5198C33.7943 90.3249 34.4768 91.3534 33.8351 91.954C33.5499 92.1683 33.2035 92.3011 32.8368 92.3419C32.2358 92.4739 31.6653 92.7184 31.1764 93.0647C30.6874 93.4111 30.28 93.8487 29.9846 94.3482C29.7095 94.9594 29.5975 95.6114 29.6484 96.2633C29.6993 96.9152 29.9133 97.5574 30.2698 98.1172C31.0134 99.2378 31.9404 100.256 33.0202 101.122L43.4512 99.0846C43.4512 99.0846 40.3646 84.0191 40.4156 84.1209C39.8248 83.9376 39.2441 83.7233 38.6839 83.469Z" fill="#263239"/>
<path d="M52.5171 84.2629C52.568 84.4969 52.6699 84.7111 52.8227 84.9043C52.9755 85.0982 53.1792 85.2507 53.4033 85.3729C53.8617 85.597 54.3099 85.852 54.7276 86.1267C55.0637 86.4225 55.3387 86.7688 55.5119 87.1657C55.6953 87.5634 55.7768 87.9807 55.7564 88.4085C55.7258 89.2641 55.5527 90.0994 55.2573 90.9144C56.1129 90.9453 56.9482 91.1589 57.702 91.5158C58.4558 91.8719 59.1281 92.3812 59.6477 93.003C60.6867 94.2556 61.2266 95.7835 61.196 97.3523C61.196 98.463 60.8904 99.665 59.9532 100.358C59.1689 100.867 58.2419 101.162 57.2742 101.223C55.3795 101.478 53.4746 101.631 51.5697 101.773C49.6648 101.926 47.6072 102.038 45.9162 101.203C44.5308 100.439 43.4816 99.2575 42.9417 97.8616C42.0962 95.8243 41.7907 93.6346 42.0555 91.4644C42.3204 89.3049 42.8399 87.1763 43.5937 85.1186" fill="#263239"/>
<path d="M39.3766 81.8188C38.4496 81.391 37.4309 81.1367 36.3919 81.0959C35.3529 81.0959 34.2527 81.6558 33.9675 82.5628C33.8351 83.0518 33.9064 83.5709 34.1509 84.0297C34.4055 84.4779 34.7417 84.8853 35.139 85.2317C35.4955 85.6286 35.9946 85.8934 36.5549 85.9855C36.9929 86.0059 37.4207 85.8934 37.7773 85.6693C38.5005 85.2928 39.0302 84.6612 39.2645 83.9376C39.3664 83.5709 39.3664 83.1838 39.2441 82.8277C39.1219 82.4707 38.8978 82.1448 38.582 81.8905" fill="#263239"/>
<path d="M51.2539 79.6898C51.2539 79.6898 53.1282 79.099 53.1384 77.9785C53.1588 76.8678 39.1625 75.2688 36.4834 81.4826C36.4834 81.4826 37.0029 81.8184 39.1726 81.6962" fill="#438DCC"/>
<path d="M40.5378 96.8742L49.0741 96.2532C49.125 95.3462 49.0741 91.8322 49.0741 91.8322C49.0741 91.8322 52.6292 91.3327 52.6699 88.0934C52.7107 84.8541 52.1199 77.4285 52.1199 77.4285C50.1029 76.6339 47.8823 76.3487 45.7023 76.603C43.5224 76.858 41.4546 77.6322 39.7127 78.8546L39.1626 79.2213L40.5378 96.8742Z" fill="#F8BC9E"/>
<path d="M50.6423 82.8066C50.5914 82.7659 50.5404 82.7153 50.5099 82.664C50.4793 82.6134 50.4589 82.5417 50.4487 82.4806C50.4487 82.4194 50.4487 82.3485 50.4793 82.2873C50.4997 82.2262 50.5404 82.1749 50.5812 82.1243C50.6321 82.073 50.6831 82.0428 50.7544 82.0126C50.8156 81.9816 50.8869 81.9711 50.9582 81.9711C51.0295 81.9711 51.1009 81.9816 51.162 82.0126C51.2232 82.033 51.2843 82.073 51.3352 82.1243C51.3862 82.165 51.4371 82.2164 51.4677 82.2669C51.4983 82.3281 51.5187 82.3892 51.5289 82.4504C51.5289 82.5115 51.5289 82.5825 51.4983 82.6436C51.4779 82.7047 51.4371 82.7561 51.3964 82.8066C51.3454 82.858 51.2945 82.8882 51.2232 82.9191C51.162 82.9493 51.0907 82.9599 51.0194 82.9599C50.948 82.9599 50.8767 82.9493 50.8156 82.9191C50.7544 82.8882 50.6933 82.858 50.6423 82.8066Z" fill="#263239"/>
<path d="M52.1102 82.2468C52.0592 82.2974 51.7128 82.0634 51.2236 82.0528C50.7345 82.0528 50.3779 82.2876 50.3269 82.2264C50.276 82.1653 50.3575 82.1042 50.5103 81.9917C50.7141 81.849 50.9689 81.7781 51.2236 81.7781C51.4784 81.7781 51.7331 81.8596 51.9369 82.0023C52.1102 82.1147 52.1509 82.2159 52.1102 82.2363V82.2468Z" fill="#263239"/>
<path d="M46.0283 82.491C46.0895 82.522 46.1404 82.5627 46.171 82.6133C46.2016 82.6646 46.2423 82.7258 46.2525 82.7764C46.2627 82.8277 46.2729 82.8986 46.2525 82.9598C46.2423 83.0209 46.2219 83.082 46.1812 83.1334C46.1404 83.1839 46.0997 83.2353 46.0385 83.2655C45.9876 83.3062 45.9162 83.3266 45.8551 83.3372C45.7838 83.347 45.7226 83.3576 45.6513 83.3372C45.58 83.3266 45.5188 83.3062 45.4577 83.276C45.3456 83.2043 45.2641 83.1024 45.2335 82.9802C45.203 82.8579 45.2233 82.7356 45.2845 82.6239C45.315 82.5726 45.366 82.522 45.4271 82.4812C45.4781 82.4405 45.5494 82.4201 45.6106 82.3997C45.6819 82.3891 45.743 82.3793 45.8144 82.3997C45.8857 82.4095 45.9468 82.4299 46.008 82.4707L46.0283 82.491Z" fill="#263239"/>
<path d="M46.813 82.6441C46.7518 82.6947 46.4054 82.4502 45.9163 82.4502C45.4272 82.4502 45.0705 82.6743 45.0196 82.6238C44.9686 82.5724 45.0501 82.5015 45.203 82.389C45.4068 82.2464 45.6615 82.1754 45.9265 82.1852C46.1812 82.1852 46.436 82.2667 46.6398 82.4094C46.7926 82.5219 46.8435 82.6238 46.8232 82.654L46.813 82.6441Z" fill="#263239"/>
<path d="M48.7684 86.321C49.023 86.2289 49.2879 86.1784 49.5629 86.1678C49.6852 86.1678 49.7972 86.1376 49.7972 86.066C49.7972 85.9543 49.7768 85.832 49.7055 85.7302C49.5833 85.4344 49.4509 85.1394 49.3185 84.8232C48.9517 84.0596 48.6767 83.2552 48.4832 82.4403C48.9314 83.1737 49.2981 83.9373 49.5833 84.7319C49.7055 85.0481 49.8278 85.3431 49.95 85.6487C50.0417 85.8019 50.0621 85.9747 50.0213 86.1482C50.001 86.189 49.9704 86.2297 49.9398 86.2599C49.8991 86.2908 49.8583 86.3112 49.8074 86.3316C49.7361 86.3414 49.6648 86.3414 49.5833 86.3316C49.3185 86.3723 49.0434 86.3617 48.7786 86.321H48.7684Z" fill="#263239"/>
<path d="M49.0638 91.7812C47.4238 91.8122 45.8041 91.3941 44.429 90.5792C44.429 90.5792 45.5291 92.9123 49.074 92.6165V91.7812H49.0638Z" fill="#EC9A6E"/>
<path d="M52.1502 78.2429C51.3658 78.5688 50.5203 78.7424 49.6545 78.7424C48.7886 78.7424 47.9431 78.5688 47.1588 78.2429C45.2437 77.5298 43.0638 77.2446 42.6258 77.6317C42.1775 78.0188 42.9517 81.36 41.1691 81.9915C41.1691 81.9915 40.8329 83.6621 39.3763 83.6417C37.9196 83.6214 38.4187 78.4572 38.4187 78.4572L41.821 76.644L45.6206 75.7272L49.2878 75.9513L52.1502 76.45V78.2534V78.2429Z" fill="#263239"/>
<path d="M39.5799 82.5625C39.5188 82.5625 37.1351 81.9106 37.2166 84.1207C37.2981 86.3316 39.7123 85.8019 39.7123 85.7407C39.7123 85.6796 39.5799 82.5625 39.5799 82.5625Z" fill="#F8BC9E"/>
<path d="M38.9285 84.9252C38.9285 84.9252 38.8878 84.9252 38.8164 84.9863C38.7145 85.0271 38.6024 85.0271 38.5005 84.9863C38.3375 84.895 38.205 84.7727 38.1235 84.63C38.0318 84.4874 37.991 84.3138 37.991 84.1507C37.9809 83.9575 38.0114 83.7741 38.0929 83.6005C38.1133 83.5295 38.1541 83.4684 38.205 83.4171C38.256 83.3665 38.3273 83.3257 38.3986 83.2948C38.4496 83.2744 38.5005 83.285 38.5413 83.2948C38.5923 83.3152 38.6228 83.3461 38.6432 83.3869C38.684 83.448 38.6432 83.4888 38.684 83.4986C38.7247 83.4986 38.7349 83.4578 38.684 83.3665C38.6636 83.3152 38.633 83.2646 38.5821 83.2336C38.5209 83.2035 38.4496 83.1929 38.3885 83.2034C38.2866 83.2238 38.1948 83.2646 38.1235 83.3355C38.0522 83.3967 37.991 83.4782 37.9605 83.5597C37.8688 83.7635 37.8178 83.9877 37.8382 84.2021C37.8382 84.3953 37.8892 84.5991 38.0114 84.7621C38.1235 84.9252 38.2967 85.058 38.4904 85.1395C38.5515 85.1493 38.6228 85.1599 38.6942 85.1395C38.7655 85.1192 38.8266 85.0988 38.8776 85.0678C38.9387 84.9863 38.9693 84.9357 38.9387 84.9357L38.9285 84.9252Z" fill="#EC9A6E"/>
<path d="M37.9298 75.6864C37.8993 75.6253 38.3069 75.4622 38.796 75.6049C39.2953 75.7476 39.5195 76.1038 39.4583 76.1038C39.3972 76.1038 39.1221 75.9408 38.7145 75.8291C38.3069 75.7166 37.9502 75.7778 37.9298 75.6864Z" fill="#263239"/>
<path d="M39.3151 74.3112C39.4068 74.3112 39.4068 74.78 39.5189 75.3098C39.631 75.8397 39.8959 76.2269 39.8347 76.2677C39.7736 76.3084 39.366 75.962 39.2437 75.3604C39.1316 75.014 39.152 74.6373 39.3253 74.3007L39.3151 74.3112Z" fill="#263239"/>
<path d="M49.7361 81.5237C49.6546 81.4015 50.1029 81.024 50.8366 81.024C51.5703 81.024 52.0288 81.3199 51.9371 81.452C51.8454 81.5743 51.3868 81.523 50.8366 81.5434C50.2863 81.5637 49.8176 81.6558 49.7361 81.5237Z" fill="#263239"/>
<path d="M42.5546 77.5607C43.2982 77.9885 44.0011 78.4775 44.6632 79.0072C45.3355 79.5369 46.2013 79.8221 47.0978 79.8221L46.8838 79.4456C48.1673 79.9141 49.5222 80.2092 50.9075 80.3314C51.152 80.3827 51.4169 80.3827 51.6613 80.3314C51.9058 80.2703 52.1401 80.1586 52.3234 79.9956C52.6392 79.6183 52.2012 78.946 52.1503 78.2533C52.1095 77.7546 51.916 77.6218 51.3965 77.4384C51.152 77.3773 50.8973 77.3569 50.6529 77.3773C48.7276 77.449 46.8023 77.3471 44.8873 77.0921C44.4391 77.0106 43.9909 76.9804 43.5325 77.0008C43.3084 77.0008 43.0843 77.0513 42.8805 77.1434C42.6768 77.2249 42.4934 77.3569 42.3508 77.4995" fill="#263239"/>
<path d="M48.8092 86.7284C48.7277 86.677 48.636 86.6469 48.5341 86.6469C48.4322 86.6469 48.3405 86.677 48.259 86.7284C48.1775 86.7691 48.1163 86.8401 48.0756 86.9118C48.0348 86.9827 48.0042 87.0643 48.0144 87.1563C48.0144 87.3292 48.0858 87.4922 48.208 87.6145C48.2997 87.7164 48.4322 87.7979 48.5851 87.8289C48.7073 87.8493 48.8296 87.8387 48.9417 87.7979C49.0538 87.7572 49.1557 87.6756 49.2168 87.5843C49.278 87.4922 49.3187 87.3805 49.3187 87.2681C49.3187 87.1564 49.2882 87.0439 49.2168 86.9525C49.1455 86.8605 49.0538 86.7789 48.9417 86.7284C48.8296 86.677 48.7073 86.6567 48.5851 86.6567" fill="#EC9A6E"/>
<path d="M50.0415 87.3597C50.0415 87.3597 49.8989 87.4819 49.6239 87.4917C49.2674 87.4917 48.921 87.4306 48.5951 87.2986C47.8311 87.0231 47.3523 86.5546 47.4338 86.4935C47.5153 86.4323 47.9839 86.7991 48.6969 87.0541C48.9923 87.1763 49.3081 87.2578 49.6239 87.3084C49.8684 87.3393 50.0212 87.3288 50.0314 87.3597H50.0415Z" fill="#263239"/>
<path d="M46.701 81.472C46.6398 81.5226 46.5278 81.503 46.3749 81.5233C46.222 81.5437 45.9877 81.5943 45.6718 81.6147C45.0706 81.6652 44.5713 81.6147 44.5713 81.4418C44.5713 81.2682 45.0298 81.1459 45.6412 81.0954C45.9164 81.0546 46.2119 81.0848 46.4768 81.1565C46.7112 81.2584 46.7621 81.4312 46.701 81.4622L46.701 81.472Z" fill="#263239"/>
<path d="M40.9043 78.9763C40.945 80.7488 41.3321 82.5115 41.3525 84.2733C41.3729 86.0458 40.9858 87.9201 39.7023 89.2753C39.2846 89.7846 38.6632 90.1106 37.9706 90.2019C37.777 90.2329 37.5733 90.2019 37.3899 90.1204C37.2066 90.0389 37.064 89.9167 36.9723 89.7537C36.8908 89.479 36.9315 89.1833 37.0843 88.929C37.5224 88.1239 38.0317 87.3399 38.5919 86.5959C39.1522 85.8526 39.5087 84.997 39.6106 84.1006C39.6004 83.4381 39.4985 82.7763 39.305 82.1448C39.1115 81.5026 39.0809 80.8303 39.2235 80.1784C39.2948 79.8524 39.4782 79.5574 39.7328 79.3227C39.9875 79.0888 40.3135 78.9258 40.67 78.8541" fill="#263239"/>
<path d="M45.4578 77.5197C51.8651 76.8881 53.0875 77.9166 53.1486 77.9679C53.3218 77.8049 53.4339 77.611 53.4746 77.3974C53.7089 75.6959 51.4067 75.1866 51.4067 75.1866C49.9704 69.2173 44.0826 69.8285 44.0826 69.8285V69.7877C44.0317 69.5334 43.8687 69.3191 43.6344 69.1667C43.4001 69.0241 43.1149 68.9728 42.8399 69.0135L41.9231 69.1765C41.648 69.2278 41.4036 69.3704 41.2508 69.584C41.098 69.7983 41.0368 70.0526 41.0878 70.3076C34.1813 72.406 36.4733 78.2222 36.4733 78.2222L35.4648 79.3329C34.5684 80.9929 36.514 81.4924 36.514 81.4924C36.514 81.4924 38.8977 78.192 45.468 77.5295L45.4578 77.5197Z" fill="#E2323D"/>
<g opacity="0.2">
<path d="M42.5339 76.5417C41.3115 76.9393 40.1197 77.4079 38.9584 77.9271C37.8379 78.5383 36.7683 79.2008 35.7395 79.9236C35.9534 79.6286 36.2285 79.3735 36.534 79.16C37.9398 78.0395 39.6104 77.214 41.4032 76.7454C41.7597 76.6126 42.1468 76.5417 42.5339 76.5311V76.5417Z" fill="white"/>
</g>
<g opacity="0.2">
<path d="M37.0535 77.3565C36.8702 77.3973 36.5544 76.9898 36.4322 76.236C36.3099 75.2377 36.5136 74.2191 37.0332 73.3227C37.5527 72.4263 38.3574 71.7034 39.3353 71.2348C40.0993 70.8983 40.6392 70.8983 40.7105 71.0613C40.8633 71.3978 39.2538 72.2429 38.2963 73.9339C37.3388 75.6248 37.461 77.2849 37.0637 77.3565H37.0535Z" fill="white"/>
</g>
<path d="M32.3373 134.85L58.262 136.978C58.3028 135.359 57.7629 125.509 57.4471 119.04C57.386 117.818 58.7204 115.689 58.6695 114.66C58.5371 112.113 58.1194 112.011 58.1194 112.011L59.5965 114.517L67.2873 108.283L60.5744 100.021C59.515 98.7281 58.1907 97.628 56.6628 96.8131C55.1348 95.9982 53.4438 95.4586 51.6917 95.2345C50.6527 95.1123 49.8582 95.0406 49.3386 94.9795C46.3744 95.8352 43.1962 95.8352 40.2319 94.9795C38.9484 95.0202 37.6751 95.2444 36.4629 95.642C34.1709 96.3754 32.103 97.5971 30.4222 99.1862L19.4412 110.963L29.5971 116.942L33.5088 113.193L34.0181 122.931L32.3475 134.85L32.3373 134.85Z" fill="#438DCC"/>
<path d="M56.3878 107.978C56.3878 108.049 52.5475 108.11 47.8515 108.11C43.1555 108.11 39.3152 108.049 39.3152 107.978C39.3152 107.906 43.1351 107.845 47.8515 107.845C52.5679 107.845 56.3878 107.896 56.3878 107.978Z" fill="white"/>
<path d="M55.8177 105.452C54.1675 105.624 52.4969 105.624 50.8467 105.452C52.4969 105.278 54.1675 105.278 55.8177 105.452Z" fill="white"/>
<path d="M37.2777 109.006C36.9722 109.444 36.6156 109.852 36.2285 110.228C35.5562 110.962 34.5783 111.96 33.5393 113.06C32.5003 114.16 31.5122 115.138 30.7889 115.841C30.4222 116.238 30.0249 116.605 29.5869 116.942C29.9027 116.514 30.249 116.106 30.6361 115.719C31.3186 114.986 32.2863 113.977 33.3254 112.877C34.3644 111.777 35.3525 110.799 36.0757 110.096C36.4425 109.699 36.8397 109.332 37.2777 108.996V109.006Z" fill="#263239"/>
<path d="M21.6516 119.977C22.1102 120.232 22.5178 120.548 22.8642 120.915C23.282 121.22 23.6081 121.617 23.8323 122.066C23.3941 121.791 23.0069 121.465 22.6604 121.098C22.2426 120.792 21.9064 120.405 21.6516 119.977Z" fill="#EC9A6E"/>
<path d="M38.9789 136.246L40.4458 110.606H56.5711L57.7629 137.784L38.9688 136.246H38.9789Z" fill="#263239"/>
<path d="M54.3098 117.247C54.3098 117.247 54.1876 117.359 53.9329 117.512C53.5865 117.736 53.2198 117.94 52.8327 118.124C50.2861 119.356 47.4135 119.906 44.5307 119.702C44.1029 119.672 43.6751 119.611 43.2472 119.539C43.0842 119.529 42.9314 119.489 42.7888 119.427C42.7888 119.387 43.4611 119.478 44.5511 119.519C45.9568 119.57 47.3728 119.458 48.7479 119.213C50.1231 118.948 51.4678 118.541 52.7411 117.991C53.719 117.543 54.2996 117.207 54.2996 117.247H54.3098Z" fill="#455A64"/>
<path d="M43.0232 120.996C42.9416 120.996 42.8601 120.833 42.8499 120.629C42.8397 120.425 42.8907 120.262 42.962 120.242C43.0435 120.232 43.1149 120.395 43.1352 120.608C43.1556 120.823 43.0945 120.996 43.0232 120.996Z" fill="#455A64"/>
<path d="M42.5851 123.808C42.5035 123.808 42.5035 123.482 42.5851 123.084C42.6666 122.697 42.7787 122.391 42.8602 122.402C42.9417 122.412 42.9417 122.738 42.8602 123.125C42.7787 123.512 42.6666 123.818 42.5851 123.808Z" fill="#455A64"/>
<path d="M42.9619 126.589C42.9008 126.63 42.6562 126.365 42.534 125.967C42.4117 125.57 42.4524 125.234 42.534 125.234C42.6155 125.234 42.697 125.53 42.8091 125.896C42.9212 126.263 43.0333 126.558 42.9619 126.589Z" fill="#455A64"/>
<path d="M45.5903 127.861C45.5903 127.932 45.2235 127.984 44.7853 127.912C44.3369 127.841 44.0312 127.627 44.072 127.566C44.1128 127.504 44.4388 127.586 44.8362 127.658C45.2438 127.719 45.5903 127.79 45.5903 127.861Z" fill="#455A64"/>
<path d="M48.7179 127.832C48.7179 127.903 48.3613 127.964 47.9333 127.974C47.5053 127.974 47.1487 127.923 47.1487 127.852C47.1487 127.78 47.4951 127.719 47.9333 127.709C48.3613 127.709 48.7179 127.75 48.7179 127.832Z" fill="#455A64"/>
<path d="M51.8351 127.79C51.8351 127.862 51.4887 127.933 51.0505 127.933C50.6123 127.933 50.2659 127.882 50.2659 127.81C50.2659 127.739 50.6225 127.678 51.0505 127.668C51.4887 127.668 51.8351 127.699 51.8351 127.78V127.79Z" fill="#455A64"/>
<path d="M54.3814 126.507C54.4425 126.507 54.412 126.874 54.1063 127.21C53.8006 127.536 53.393 127.608 53.3726 127.546C53.3522 127.485 53.6376 127.312 53.8923 127.047C54.147 126.782 54.3101 126.487 54.3916 126.517L54.3814 126.507Z" fill="#455A64"/>
<path d="M54.9518 123.706C55.0333 123.706 55.0435 124.042 54.9823 124.429C54.9212 124.817 54.7989 125.122 54.7276 125.112C54.6461 125.102 54.6359 124.775 54.697 124.388C54.7582 124.001 54.8601 123.706 54.9518 123.706Z" fill="#455A64"/>
<path d="M55.2672 120.885C55.3487 120.885 55.3793 121.21 55.3487 121.608C55.3181 122.005 55.2162 122.311 55.1449 122.301C55.0634 122.301 55.0328 121.974 55.0634 121.577C55.094 121.189 55.1857 120.874 55.2672 120.885Z" fill="#455A64"/>
<path d="M55.3694 118.704C55.4509 118.704 55.5019 118.877 55.5019 119.081C55.5019 119.285 55.4204 119.458 55.349 119.448C55.2675 119.448 55.2166 119.274 55.2166 119.07C55.2166 118.867 55.2879 118.694 55.3694 118.694V118.704Z" fill="#455A64"/>
<path d="M35.4746 95.9986C35.4746 95.9986 42.0144 97.5568 42.1162 111.533H44.7444C44.7444 111.533 45.437 99.7978 38.3268 95.1837C38.3268 95.1837 36.2692 94.7355 35.4746 95.9881V95.9986Z" fill="#263239"/>
<path d="M49.2981 95C49.2981 95 53.9432 96.9965 54.0552 111.003H56.2861C56.2861 111.003 56.4796 97.9133 52.0892 95.3357C51.6817 95.0913 51.2234 94.929 50.7344 94.8679C50.2455 94.8068 49.7565 94.8573 49.2981 95Z" fill="#263239"/>
<path d="M44.7343 110.463C44.8565 110.707 44.9177 110.983 44.8973 111.257C44.8973 111.574 44.8056 111.869 44.6121 112.124C44.4797 112.276 44.3065 112.389 44.1231 112.47C43.9398 112.552 43.7258 112.592 43.5119 112.592C43.298 112.613 43.0841 112.592 42.8804 112.511C42.6766 112.439 42.5035 112.327 42.3507 112.185C42.1367 111.94 42.0145 111.645 42.0043 111.339C41.9738 111.064 42.0043 110.789 42.1164 110.535C42.1673 110.789 42.1979 111.054 42.2081 111.319C42.2386 111.583 42.3609 111.828 42.5442 112.032C42.8091 112.235 43.1452 112.337 43.4916 112.327C43.8379 112.317 44.1639 112.185 44.4083 111.971C44.5815 111.757 44.6834 111.502 44.7038 111.237C44.6834 110.972 44.7038 110.718 44.7241 110.453L44.7343 110.463Z" fill="#455A64"/>
<path d="M43.4307 110.88C43.4307 110.88 43.5734 110.769 43.7772 110.88C43.8383 110.921 43.8791 110.982 43.9096 111.043C43.9402 111.105 43.9402 111.176 43.93 111.247C43.9096 111.329 43.8689 111.41 43.7976 111.471C43.7262 111.533 43.6447 111.573 43.553 111.584C43.4613 111.594 43.3594 111.584 43.2779 111.543C43.1964 111.502 43.125 111.441 43.0741 111.37C43.0333 111.308 43.0129 111.247 43.0129 111.176C43.0129 111.105 43.0333 111.043 43.0741 110.982C43.2167 110.799 43.4002 110.83 43.39 110.86C43.3798 110.891 43.2983 110.942 43.2575 111.074C43.2575 111.105 43.2473 111.136 43.2575 111.166C43.2575 111.197 43.2779 111.227 43.2983 111.247C43.3186 111.278 43.3594 111.299 43.39 111.308C43.4307 111.329 43.4613 111.329 43.5021 111.329C43.5428 111.329 43.5734 111.299 43.604 111.278C43.6345 111.258 43.6549 111.227 43.6651 111.186C43.6753 111.156 43.6753 111.125 43.6651 111.095C43.6651 111.064 43.6447 111.034 43.6243 111.013C43.5632 110.932 43.4409 110.921 43.4409 110.88L43.4307 110.88Z" fill="#455A64"/>
<path d="M56.337 110.453C56.337 110.453 56.4999 110.698 56.4694 111.135C56.449 111.4 56.3573 111.645 56.1944 111.869C56.0925 112.001 55.9601 112.124 55.8073 112.205C55.6545 112.287 55.4813 112.348 55.2979 112.368C55.1146 112.398 54.921 112.368 54.7479 112.307C54.5747 112.246 54.4219 112.144 54.3098 112.001C54.157 111.798 54.045 111.574 54.0042 111.329C53.9635 111.085 53.9737 110.84 54.0552 110.596C54.1061 110.596 54.1163 110.85 54.208 111.248C54.2487 111.472 54.3608 111.676 54.5136 111.848C54.6053 111.94 54.7173 112.022 54.8497 112.063C54.9822 112.103 55.1248 112.124 55.2674 112.103C55.41 112.083 55.5424 112.032 55.6748 111.971C55.7971 111.9 55.9091 111.808 55.9906 111.706C56.1332 111.522 56.2351 111.309 56.2758 111.095C56.3573 110.698 56.3064 110.463 56.3471 110.453L56.337 110.453Z" fill="#455A64"/>
<path d="M55.0942 110.799C55.0942 110.799 55.1655 110.646 55.4101 110.677C55.4814 110.687 55.5528 110.717 55.6037 110.758C55.6649 110.799 55.7056 110.86 55.726 110.921C55.7566 111.003 55.7566 111.084 55.726 111.166C55.7056 111.247 55.6445 111.319 55.5731 111.369C55.5018 111.421 55.4101 111.451 55.3082 111.451C55.2063 111.451 55.1248 111.421 55.0433 111.369C54.9821 111.329 54.9312 111.278 54.9006 111.217C54.87 111.156 54.8598 111.084 54.87 111.013C54.921 110.789 55.1044 110.758 55.1044 110.789C55.1044 110.819 55.0534 110.901 55.0738 111.013C55.0738 111.043 55.084 111.074 55.1044 111.095C55.1248 111.115 55.1452 111.135 55.1757 111.156C55.2063 111.176 55.2471 111.186 55.2878 111.186C55.3286 111.186 55.3592 111.186 55.3999 111.156C55.4305 111.135 55.4509 111.105 55.4611 111.064C55.4712 111.034 55.4712 110.993 55.4611 110.962C55.4611 110.932 55.4407 110.901 55.4203 110.88C55.3999 110.86 55.3693 110.84 55.3388 110.819C55.2165 110.769 55.1044 110.799 55.084 110.769L55.0942 110.799Z" fill="#455A64"/>
<path d="M48.2291 193.126H56.6571L58.0586 190.692L50.2353 186.862L46.9451 192.413L47.4137 192.678C47.6205 192.793 47.9067 192.95 48.2291 193.126Z" fill="#438DCC"/>
<path d="M41.6606 193.126L64.425 130.51L81.6438 193.126H87.7146L67.5217 120.151H62.6219L36.2876 193.126H41.6606Z" fill="#263239"/>
<path d="M61.9253 193.126L78.645 130.744L101.249 193.126H107.945L81.1411 120.151H75.294H75.2842L54.844 193.126H61.9253Z" fill="#455A64"/>
<path d="M46.9243 192.22H46.9143L46.9273 192.222L46.9243 192.22Z" fill="#263239"/>
<path d="M47.4237 192.516L48.6117 193.127H48.7801L47.4339 192.434L47.0467 192.241L46.9275 192.222L47.0467 192.302L47.4237 192.516Z" fill="#263239"/>
<path d="M41.186 193.126L48.6969 146.167L48.5238 136.235L32.3068 133.688L26.573 193.126H41.186Z" fill="#263239"/>
<path d="M46.7923 188.176L57.0492 193.126H59.9695L74.7034 165.45C75.0798 164.9 75.2738 164.258 75.2738 163.606C75.2738 162.954 75.0798 162.323 74.7034 161.762L58.2317 136.979V136.958H43.4307L42.7686 144.323L58.9855 162.21C59.4134 162.751 59.6782 163.382 59.7291 164.044C59.78 164.707 59.6272 165.368 59.2911 165.959L46.7923 188.176Z" fill="#263239"/>
<path d="M49.7439 193.126C49.7514 193.098 49.764 193.08 49.7663 193.045C49.7764 192.892 49.7052 192.78 49.6747 192.78C49.6747 192.78 49.6748 192.902 49.6442 193.035C49.6362 193.07 49.6348 193.095 49.6301 193.126L49.7439 193.126Z" fill="#263239"/>
<path d="M49.7972 191.721C50.0009 192.159 50.0621 192.648 49.9805 193.117C49.9799 193.12 49.9787 193.124 49.978 193.127H50.0621C50.1639 192.638 50.113 192.139 49.8991 191.68C49.675 191.222 49.3184 190.835 48.86 190.57C48.7174 190.489 48.5748 190.428 48.422 190.367C48.3711 190.346 48.3201 190.326 48.2692 190.326H48.259C48.259 190.326 48.4933 190.417 48.8091 190.631C49.237 190.906 49.5833 191.283 49.7972 191.721Z" fill="#263239"/>
<path d="M16.803 126.619C15.4278 125.182 14.674 123.339 14.6842 121.434C14.6842 119.529 15.4584 117.696 16.8437 116.259L21.173 112.012L28.9861 116.585C28.7416 116.738 23.5974 121.811 23.5974 121.811L32.6125 132.038C33.3052 132.813 33.7636 133.729 33.9571 134.707C34.1507 135.685 34.0692 136.693 33.7126 137.641L32.1745 143.366L24.667 140.32L25.1661 139.617H30.1066L30.402 138.537L16.8234 126.619L16.803 126.619Z" fill="#F8BC9E"/>
<path d="M39.2032 137.325C39.1828 137.651 39.081 137.957 38.9078 138.232C38.5309 138.935 37.9503 139.525 37.2168 139.943C36.4834 140.36 35.6481 140.575 34.7823 140.564C34.4257 140.584 34.0794 140.523 33.7534 140.401C33.7534 140.36 34.1507 140.401 34.7721 140.401C35.5768 140.35 36.3612 140.117 37.0539 139.739C37.7364 139.342 38.2966 138.802 38.7041 138.171C39.0402 137.661 39.1523 137.305 39.2032 137.325Z" fill="#455A64"/>
<path d="M60.7988 192.536C60.6052 192.495 60.4219 192.444 60.2487 192.363C59.9024 192.241 59.393 192.047 58.7819 191.792C57.5493 191.293 55.8685 190.529 54.0655 189.613C52.2625 188.696 50.6836 187.779 49.563 187.107C49.013 186.76 48.5546 186.475 48.249 186.271C47.9434 186.068 47.7804 185.945 47.8008 185.925C47.9841 185.996 48.1573 186.077 48.3203 186.19L49.6751 186.964C50.816 187.616 52.4255 188.502 54.2081 189.419C56.0009 190.335 57.6613 191.11 58.8735 191.66L60.3098 192.312C60.483 192.373 60.6562 192.454 60.809 192.556L60.7988 192.536Z" fill="#455A64"/>
<path d="M39.6309 189.806C39.7124 189.806 39.7226 190.152 39.6614 190.571C39.6003 190.978 39.4882 191.304 39.4169 191.294C39.3354 191.294 39.3252 190.947 39.3761 190.53C39.4271 190.122 39.5493 189.796 39.6309 189.806Z" fill="#455A64"/>
<path d="M40.0587 186.842C40.1402 186.842 40.1504 187.188 40.0893 187.605C40.0281 188.013 39.916 188.339 39.8345 188.329C39.753 188.329 39.7428 187.983 39.804 187.565C39.8651 187.157 39.9772 186.831 40.0587 186.842Z" fill="#455A64"/>
<path d="M40.5072 183.867C40.5887 183.867 40.5989 184.214 40.5378 184.631C40.4766 185.039 40.3645 185.365 40.283 185.355C40.2015 185.355 40.1913 185.008 40.2524 184.591C40.3136 184.183 40.4257 183.857 40.5072 183.867Z" fill="#455A64"/>
<path d="M40.9658 180.893C41.0473 180.893 41.0575 181.239 40.9658 181.657C40.8741 182.064 40.7925 182.391 40.711 182.381C40.6295 182.381 40.6193 182.034 40.711 181.617C40.8027 181.209 40.8842 180.882 40.9658 180.893Z" fill="#455A64"/>
<path d="M41.4343 177.928C41.5158 177.928 41.526 178.274 41.4343 178.692C41.3426 179.1 41.2508 179.426 41.1795 179.415C41.098 179.415 41.0878 179.069 41.1795 178.652C41.2712 178.244 41.3527 177.918 41.4343 177.928Z" fill="#455A64"/>
<path d="M41.9028 174.955C41.9843 174.955 41.9945 175.301 41.9028 175.718C41.8111 176.126 41.7194 176.452 41.648 176.442C41.5665 176.432 41.5563 176.096 41.648 175.678C41.7397 175.27 41.8314 174.944 41.9028 174.955Z" fill="#455A64"/>
<path d="M42.3915 171.989C42.473 171.989 42.4832 172.336 42.3915 172.754C42.2998 173.162 42.2081 173.487 42.1266 173.477C42.045 173.477 42.045 173.131 42.1266 172.713C42.2081 172.305 42.31 171.98 42.3915 171.989Z" fill="#455A64"/>
<path d="M42.8907 169.026C42.9723 169.026 42.9825 169.373 42.8907 169.79C42.799 170.198 42.7073 170.524 42.6258 170.513C42.5443 170.513 42.5341 170.167 42.6258 169.749C42.7175 169.342 42.8092 169.016 42.8907 169.026Z" fill="#455A64"/>
<path d="M43.4001 166.061C43.4816 166.061 43.4816 166.417 43.4001 166.825C43.3185 167.232 43.2064 167.559 43.1351 167.549C43.0536 167.549 43.0536 167.192 43.1351 166.785C43.2166 166.377 43.3287 166.05 43.4001 166.061Z" fill="#455A64"/>
<path d="M43.9093 163.096C43.9908 163.096 43.9908 163.453 43.9093 163.861C43.8277 164.268 43.7156 164.595 43.6341 164.585C43.5526 164.574 43.5526 164.238 43.6341 163.82C43.7156 163.413 43.8277 163.086 43.9093 163.096Z" fill="#455A64"/>
<path d="M44.4185 160.143C44.5001 160.143 44.5001 160.499 44.4185 160.907C44.337 161.314 44.2249 161.64 44.1434 161.631C44.0619 161.62 44.0619 161.284 44.1434 160.866C44.2249 160.458 44.3574 160.132 44.4185 160.143Z" fill="#455A64"/>
<path d="M44.9688 157.189C45.0503 157.189 45.0503 157.535 44.9688 157.953C44.8873 158.36 44.7752 158.687 44.6937 158.666C44.6122 158.656 44.6122 158.32 44.6937 157.902C44.7752 157.494 44.8975 157.169 44.9688 157.189Z" fill="#455A64"/>
<path d="M45.5189 154.214C45.6004 154.214 45.6004 154.571 45.5189 154.979C45.4374 155.386 45.3151 155.702 45.2438 155.692C45.1622 155.692 45.1622 155.345 45.2438 154.928C45.3253 154.52 45.4476 154.204 45.5189 154.204V154.214Z" fill="#455A64"/>
<path d="M46.0694 151.27C46.1509 151.27 46.1509 151.627 46.0694 152.035C45.9878 152.442 45.8656 152.769 45.784 152.758C45.7025 152.748 45.7025 152.402 45.784 151.994C45.8656 151.587 46.0082 151.26 46.0694 151.27Z" fill="#455A64"/>
<path d="M46.7312 148.327C46.8127 148.327 46.7924 148.683 46.7007 149.091C46.6089 149.489 46.4663 149.815 46.3848 149.794C46.3033 149.784 46.3236 149.448 46.4255 149.03C46.5274 148.622 46.6599 148.306 46.7414 148.327H46.7312Z" fill="#455A64"/>
<path d="M47.7192 145.464C47.7905 145.484 47.7192 145.821 47.5867 146.218C47.4542 146.605 47.2606 146.911 47.1893 146.89C47.1179 146.87 47.1893 146.534 47.3116 146.136C47.4338 145.739 47.6071 145.443 47.709 145.474L47.7192 145.464Z" fill="#455A64"/>
<path d="M48.7276 143.417C48.7989 143.458 48.7683 143.631 48.6664 143.814C48.5544 143.998 48.4219 144.12 48.3506 144.09C48.2894 144.059 48.3098 143.886 48.4117 143.703C48.5136 143.519 48.6664 143.386 48.7276 143.427V143.417Z" fill="#455A64"/>
<path d="M49.9092 186.516C49.9703 186.556 49.9092 186.73 49.7971 186.903C49.685 187.076 49.522 187.178 49.4507 187.137C49.3895 187.097 49.4507 186.923 49.5526 186.75C49.6545 186.577 49.8379 186.465 49.9092 186.506V186.516Z" fill="#455A64"/>
<path d="M51.7023 184C51.7635 184.04 51.6208 184.346 51.3763 184.702C51.1317 185.049 50.8769 185.304 50.826 185.263C50.775 185.222 50.9075 184.906 51.1521 184.56C51.3966 184.213 51.631 183.959 51.7023 184Z" fill="#455A64"/>
<path d="M53.4647 181.452C53.5258 181.493 53.3832 181.809 53.1488 182.156C52.9043 182.502 52.6597 182.757 52.5986 182.726C52.5374 182.695 52.6699 182.38 52.9144 182.023C53.159 181.667 53.3934 181.422 53.4647 181.452Z" fill="#455A64"/>
<path d="M55.1659 178.896C55.2372 178.937 55.1048 179.242 54.8602 179.599C54.6258 179.956 54.3813 180.211 54.3099 180.17C54.2386 180.129 54.3813 179.813 54.6156 179.457C54.85 179.1 55.0946 178.845 55.1557 178.886L55.1659 178.896Z" fill="#455A64"/>
<path d="M56.8464 176.309C56.9075 176.34 56.7853 176.666 56.5509 177.022C56.3267 177.379 56.0822 177.644 56.0006 177.603C55.9191 177.572 56.0618 177.246 56.2961 176.89C56.5305 176.533 56.7751 176.268 56.8464 176.309Z" fill="#455A64"/>
<path d="M58.4765 173.722C58.5377 173.752 58.4154 174.078 58.1912 174.445C57.9671 174.811 57.7327 175.067 57.641 175.026C57.5493 174.985 57.6919 174.67 57.9161 174.313C58.1403 173.956 58.395 173.67 58.4664 173.722L58.4765 173.722Z" fill="#455A64"/>
<path d="M60.0653 171.073C60.1264 171.103 60.0143 171.43 59.8003 171.796C59.5864 172.163 59.352 172.429 59.2807 172.388C59.2093 172.347 59.3316 172.031 59.5456 171.664C59.7698 171.307 59.9939 171.032 60.0653 171.073Z" fill="#455A64"/>
<path d="M61.6036 168.424C61.6749 168.455 61.5628 168.781 61.3488 169.148C61.1348 169.515 60.9107 169.779 60.8393 169.749C60.768 169.718 60.8903 169.392 61.0941 169.025C61.2979 168.659 61.5322 168.394 61.6036 168.424Z" fill="#455A64"/>
<path d="M62.8363 165.644C62.9179 165.644 62.8975 166 62.7446 166.408C62.5918 166.806 62.388 167.101 62.3167 167.071C62.2453 167.04 62.3167 166.714 62.4797 166.326C62.6427 165.939 62.765 165.633 62.8465 165.654L62.8363 165.644Z" fill="#455A64"/>
<path d="M62.5711 162.72C62.6425 162.689 62.8666 162.985 62.9787 163.392C63.0908 163.81 63.0399 164.167 62.9787 164.167C62.9176 164.167 62.8157 163.851 62.7138 163.453C62.6017 163.066 62.51 162.71 62.5813 162.71L62.5711 162.72Z" fill="#455A64"/>
<path d="M60.6963 160.254C60.7473 160.214 61.0326 160.428 61.3281 160.754C61.6236 161.08 61.7968 161.375 61.7357 161.416C61.6746 161.457 61.3892 161.233 61.1039 160.917C60.8186 160.591 60.6352 160.306 60.6963 160.254Z" fill="#455A64"/>
<path d="M58.5066 158.003C58.5678 157.952 58.8633 158.166 59.1588 158.482C59.4645 158.788 59.6581 159.083 59.5969 159.134C59.5358 159.185 59.2403 158.971 58.9448 158.635C58.6391 158.299 58.4455 158.064 58.5066 158.013V158.003Z" fill="#455A64"/>
<path d="M56.3267 155.763C56.3878 155.712 56.6833 155.926 56.9788 156.242C57.2845 156.547 57.4782 156.843 57.417 156.894C57.3559 156.945 57.0706 156.731 56.7649 156.395C56.4592 156.058 56.2656 155.824 56.3267 155.773V155.763Z" fill="#455A64"/>
<path d="M54.1365 153.511C54.1976 153.46 54.4932 153.675 54.7887 154.01C55.0842 154.347 55.288 154.612 55.2268 154.663C55.1657 154.714 54.8702 154.5 54.5747 154.184C54.269 153.878 54.0754 153.562 54.1365 153.511Z" fill="#455A64"/>
<path d="M51.9568 151.27C52.0078 151.22 52.3135 151.433 52.609 151.75C52.9147 152.055 53.1083 152.35 53.0471 152.391C52.9962 152.432 52.6905 152.228 52.395 151.913C52.0893 151.607 51.8957 151.311 51.9568 151.27Z" fill="#455A64"/>
<path d="M49.7766 149.019C49.8378 148.968 50.1333 149.182 50.4288 149.498C50.7345 149.804 50.9281 150.1 50.867 150.14C50.8058 150.181 50.5103 149.977 50.2148 149.641C49.9091 149.305 49.7155 149.07 49.7766 149.019Z" fill="#455A64"/>
<path d="M48.1368 147.339C48.198 147.298 48.3712 147.379 48.5139 147.532C48.6667 147.685 48.738 147.848 48.6769 147.899C48.6158 147.95 48.4425 147.858 48.2999 147.705C48.147 147.552 48.0757 147.389 48.1368 147.339Z" fill="#455A64"/>
<path d="M42.6362 182.421C42.6362 182.278 42.6565 182.146 42.6871 182.013L42.9112 180.841C43.1047 179.793 43.3798 178.346 43.7159 176.533C44.3781 172.896 45.2235 167.854 46.0996 162.272C46.9756 156.69 47.6989 151.637 48.1878 147.97C48.4221 146.157 48.6156 144.679 48.7379 143.63C48.799 143.131 48.8499 142.745 48.8907 142.449C48.9009 142.317 48.9314 142.173 48.962 142.041C48.9722 142.184 48.9722 142.317 48.962 142.459C48.9314 142.754 48.9009 143.152 48.8601 143.641C48.7684 144.669 48.6055 146.146 48.3916 147.99C47.9535 151.667 47.2507 156.73 46.3848 162.312C45.519 167.895 44.6225 172.927 43.9095 176.563C43.553 178.387 43.2474 179.854 43.0131 180.862C42.901 181.361 42.8093 181.728 42.738 182.023C42.7075 182.156 42.6769 182.288 42.626 182.421H42.6362Z" fill="#455A64"/>
<path d="M56.9379 135.604C57.0398 135.705 57.1315 135.818 57.213 135.93L57.9668 136.897C58.6187 137.753 59.5355 138.986 60.6254 140.534C62.8257 143.621 65.6983 148.001 68.9886 152.758C70.6392 155.141 72.2788 157.362 73.7963 159.369C74.581 160.306 75.1409 161.376 75.4465 162.516C75.5483 163.046 75.5589 163.586 75.4774 164.115C75.3854 164.594 75.2427 165.074 75.039 165.522C74.6723 166.285 74.2347 167.019 73.7351 167.712L72.635 169.301L71.9529 170.299C71.8812 170.421 71.7997 170.543 71.7084 170.645C71.7597 170.513 71.8306 170.391 71.9023 170.269C72.0344 170.024 72.2585 169.678 72.5437 169.23L73.6031 167.62C74.0822 166.917 74.4889 166.184 74.8353 165.419C75.0186 164.971 75.1514 164.513 75.2329 164.044C75.3038 163.535 75.2835 163.026 75.1922 162.516C74.8964 161.406 74.3463 160.367 73.5827 159.46C72.0442 157.464 70.3943 155.243 68.7543 152.86C65.464 148.092 62.6322 143.702 60.4625 140.585C59.3623 139.026 58.4964 137.774 57.8751 136.907L57.162 135.909C57.0703 135.807 56.999 135.705 56.9277 135.583L56.9379 135.604Z" fill="#455A64"/>
</svg>
