<svg width="195" height="195" viewBox="0 0 195 195" fill="none" xmlns="http://www.w3.org/2000/svg">
<path d="M0 7.89474C0 3.5346 3.53459 0 7.89474 0H187.105C191.465 0 195 3.53459 195 7.89474V187.105C195 191.465 191.465 195 187.105 195H7.89474C3.5346 195 0 191.465 0 187.105V7.89474Z" fill="#D9D9D9"/>
<mask id="mask0_797_2615" style="mask-type:alpha" maskUnits="userSpaceOnUse" x="0" y="0" width="195" height="195">
<path d="M0 7.89474C0 3.5346 3.53459 0 7.89474 0H187.105C191.465 0 195 3.53459 195 7.89474V187.105C195 191.465 191.465 195 187.105 195H7.89474C3.5346 195 0 191.465 0 187.105V7.89474Z" fill="#D9D9D9"/>
</mask>
<g mask="url(#mask0_797_2615)">
<path d="M197.916 37.9028H171.938V64.9827H197.916V37.9028Z" fill="#E0E0E0"/>
<path d="M196.156 37.9027H170.177V64.9826H196.156V37.9027Z" fill="#FAFAFA"/>
<path d="M196.149 64.9937H170.17V37.8948H196.149V64.9937ZM170.17 64.9747H196.149V37.9253H170.185L170.17 64.9747Z" fill="#E0E0E0"/>
<path d="M192.666 41.545H173.671V61.3445H192.666V41.545Z" fill="#FAFAFA"/>
<path d="M173.671 61.4738C173.536 61.6726 173.379 61.8554 173.203 62.0186C172.898 62.3386 172.471 62.7805 171.995 63.2453C171.519 63.7101 171.077 64.133 170.753 64.4339C170.588 64.6065 170.404 64.7599 170.204 64.8911C170.337 64.6917 170.493 64.5088 170.669 64.3463C170.974 64.0263 171.401 63.5844 171.881 63.1196C172.361 62.6548 172.799 62.2281 173.123 61.9309C173.288 61.7584 173.472 61.605 173.671 61.4738Z" fill="#E0E0E0"/>
<path d="M192.667 61.4281C192.866 61.5627 193.049 61.72 193.212 61.8967C193.532 62.1977 193.974 62.6244 194.434 63.1044C194.895 63.5844 195.326 64.0188 195.623 64.3426C195.796 64.5077 195.949 64.6917 196.08 64.8912C195.879 64.7615 195.695 64.6051 195.536 64.4264C195.216 64.1216 194.774 63.6949 194.309 63.2149C193.844 62.7349 193.417 62.2967 193.12 61.9729C192.947 61.8106 192.795 61.6276 192.667 61.4281Z" fill="#E0E0E0"/>
<path d="M192.613 41.5945C192.754 41.3957 192.918 41.2141 193.101 41.0535C193.405 40.7335 193.832 40.2916 194.308 39.8306C194.785 39.3696 195.227 38.9391 195.55 38.6419C195.714 38.4683 195.899 38.3149 196.099 38.1848C195.966 38.3847 195.808 38.5677 195.63 38.7296C195.329 39.0496 194.903 39.4915 194.423 39.9563C193.943 40.4211 193.501 40.8478 193.177 41.1449C193.008 41.3178 192.819 41.4688 192.613 41.5945Z" fill="#E0E0E0"/>
<path d="M173.618 41.6442C173.418 41.5107 173.235 41.3534 173.073 41.1756C172.753 40.8746 172.311 40.4479 171.85 39.9679C171.389 39.4879 170.959 39.0497 170.662 38.7259C170.488 38.5618 170.334 38.3777 170.204 38.1773C170.402 38.3127 170.583 38.4699 170.745 38.6459C171.065 38.9469 171.507 39.3774 171.972 39.8536C172.437 40.3298 172.867 40.7756 173.165 41.0994C173.337 41.2617 173.49 41.4447 173.618 41.6442Z" fill="#E0E0E0"/>
<path d="M192.613 61.3444C192.613 61.3444 192.613 61.3101 192.613 61.2492C192.613 61.1882 192.613 61.0892 192.613 60.9711C192.613 60.7234 192.613 60.3653 192.613 59.9005C192.613 58.9633 192.613 57.6146 192.594 55.866C192.594 52.3991 192.571 47.4578 192.556 41.545L192.628 41.6174H173.686L173.77 41.5336C173.77 48.7988 173.77 55.5993 173.77 61.3444L173.697 61.272L187.413 61.3101L191.264 61.3292H192.285H191.28H187.443L173.682 61.3673H173.61V61.2949C173.61 55.5802 173.61 48.7607 173.61 41.484V41.3964H173.671H192.613H192.685V41.4726C192.685 47.4044 192.659 52.361 192.647 55.8431C192.647 57.5689 192.647 58.9252 192.628 59.8586C192.628 60.3196 192.628 60.6701 192.628 60.9139C192.628 61.0282 192.628 61.1196 192.628 61.1844C192.629 61.2381 192.624 61.2917 192.613 61.3444Z" fill="#E0E0E0"/>
<path d="M186.338 48.2731H179.999V54.6126H186.338V48.2731Z" fill="#EBEBEB"/>
<path d="M197.916 71.4061H171.938V98.486H197.916V71.4061Z" fill="#E0E0E0"/>
<path d="M196.156 71.4061H170.177V98.486H196.156V71.4061Z" fill="#FAFAFA"/>
<path d="M196.149 98.4973H170.17V71.3984H196.149V98.4973ZM170.17 98.4783H196.149V71.4289H170.185L170.17 98.4783Z" fill="#E0E0E0"/>
<path d="M192.666 75.0483H173.671V94.8478H192.666V75.0483Z" fill="#FAFAFA"/>
<path d="M173.671 94.9805C173.535 95.1785 173.378 95.3611 173.203 95.5253C172.898 95.8453 172.471 96.2873 171.995 96.7483C171.519 97.2092 171.077 97.6398 170.753 97.9369C170.588 98.1095 170.404 98.2628 170.204 98.3941C170.337 98.1947 170.493 98.0118 170.669 97.8493C170.974 97.5293 171.401 97.0873 171.881 96.6225C172.361 96.1578 172.799 95.7311 173.123 95.4339C173.286 95.2603 173.47 95.1079 173.671 94.9805Z" fill="#E0E0E0"/>
<path d="M192.667 94.9314C192.866 95.066 193.049 95.2233 193.212 95.4C193.532 95.701 193.974 96.1277 194.434 96.6077C194.895 97.0877 195.326 97.522 195.623 97.8459C195.797 98.0107 195.951 98.1962 196.08 98.3983C195.88 98.2648 195.697 98.1075 195.536 97.9297C195.216 97.6287 194.774 97.1982 194.309 96.722C193.844 96.2458 193.417 95.8 193.12 95.4762C192.947 95.3139 192.795 95.1309 192.667 94.9314Z" fill="#E0E0E0"/>
<path d="M192.613 75.1018C192.746 74.9001 192.903 74.7158 193.082 74.5532C193.386 74.2332 193.813 73.7913 194.289 73.3303C194.766 72.8693 195.207 72.4426 195.531 72.1416C195.695 71.968 195.88 71.8146 196.08 71.6844C195.946 71.8844 195.789 72.0674 195.611 72.2292C195.31 72.5493 194.884 72.9912 194.404 73.456C193.924 73.9208 193.482 74.3475 193.158 74.6446C192.993 74.8165 192.811 74.9698 192.613 75.1018Z" fill="#E0E0E0"/>
<path d="M173.618 75.1475C173.418 75.0141 173.235 74.8567 173.073 74.6789C172.753 74.378 172.311 73.9513 171.85 73.4712C171.389 72.9912 170.959 72.5569 170.662 72.2331C170.489 72.068 170.336 71.8839 170.204 71.6844C170.403 71.816 170.585 71.9722 170.745 72.1492C171.065 72.4502 171.507 72.8807 171.972 73.3569C172.437 73.8332 172.867 74.2789 173.165 74.6027C173.337 74.765 173.49 74.948 173.618 75.1475Z" fill="#E0E0E0"/>
<path d="M192.613 94.8477C192.613 94.8477 192.613 94.8134 192.613 94.7525C192.613 94.6915 192.613 94.5925 192.613 94.4744C192.613 94.2267 192.613 93.8686 192.613 93.4076C192.613 92.4666 192.613 91.1218 192.594 89.3693C192.594 85.9024 192.571 80.9611 192.556 75.0483L192.629 75.1207H173.686L173.77 75.0369C173.77 82.3021 173.77 89.1026 173.77 94.8477L173.671 94.7715L187.386 94.8096H191.238H192.259H191.253H187.417L173.656 94.8477H173.583V94.7753C173.583 89.0607 173.583 82.2412 173.583 74.9645V74.9607H173.671H192.613H192.686V75.0369C192.686 80.9687 192.659 85.9252 192.648 89.4074C192.648 91.1332 192.648 92.4895 192.629 93.4267C192.629 93.8839 192.629 94.2344 192.629 94.4782C192.629 94.5925 192.629 94.6839 192.629 94.7487C192.626 94.782 192.621 94.8151 192.613 94.8477Z" fill="#E0E0E0"/>
<path d="M186.338 81.7758H179.999V88.1153H186.338V81.7758Z" fill="#EBEBEB"/>
<path d="M115.545 104.421L115.769 104.802C116.023 105.221 116.39 105.559 116.829 105.777L117.21 105.968L116.829 106.197C116.408 106.448 116.07 106.816 115.853 107.256L115.659 107.637L115.434 107.256C115.182 106.836 114.814 106.498 114.375 106.28L113.994 106.086L114.375 105.861C114.795 105.609 115.133 105.241 115.35 104.802L115.545 104.421Z" fill="#E0E0E0"/>
<path d="M155.696 93.9099L155.92 94.2909C156.17 94.7155 156.538 95.0583 156.979 95.2776L157.36 95.4719L156.979 95.6967C156.56 95.9493 156.221 96.3169 156.004 96.7558L155.81 97.1368L155.585 96.7558C155.331 96.337 154.964 95.9988 154.526 95.7805L154.145 95.5862L154.526 95.3614C154.946 95.1088 155.284 94.7413 155.501 94.3023L155.696 93.9099Z" fill="#E0E0E0"/>
<path d="M135.237 81.1822L135.352 81.3689C135.478 81.5787 135.662 81.748 135.881 81.8565L136.079 81.9556L135.893 82.0661C135.681 82.1926 135.51 82.3779 135.401 82.5994L135.306 82.7937L135.192 82.607C135.066 82.3964 134.882 82.2269 134.662 82.1194L134.464 82.0203L134.654 81.906C134.864 81.7796 135.033 81.5959 135.142 81.3765L135.237 81.1822Z" fill="#E0E0E0"/>
<path d="M150.781 94.0508L150.892 94.2375C151.019 94.4475 151.204 94.6167 151.425 94.7252L151.619 94.8242L151.433 94.9347C151.223 95.0625 151.054 95.2475 150.945 95.4681L150.846 95.6624L150.735 95.4757C150.608 95.2657 150.423 95.0965 150.202 94.988L150.008 94.889L150.194 94.7785C150.404 94.6508 150.574 94.4657 150.682 94.2451L150.781 94.0508Z" fill="#E0E0E0"/>
<path d="M136.045 107.789L136.159 107.976C136.286 108.186 136.47 108.355 136.689 108.464L136.887 108.563L136.697 108.673C136.487 108.801 136.317 108.986 136.209 109.207L136.11 109.401L135.999 109.214C135.872 109.004 135.689 108.834 135.47 108.723L135.272 108.628L135.458 108.513C135.669 108.387 135.84 108.203 135.95 107.984L136.045 107.789Z" fill="#E0E0E0"/>
<path d="M154 70.6781C154.138 69.6761 152.72 68.8494 151.654 68.7732C151.142 68.7942 150.63 68.7507 150.13 68.6437C149.086 68.2627 148.671 66.9331 147.653 66.5026C146.891 66.1826 146.015 66.4683 145.276 66.8379C144.537 67.2074 143.809 67.676 142.99 67.7293C142.274 67.7751 141.493 67.5084 140.868 67.8589C140.4 68.1217 140.156 68.6589 139.725 68.9789C139.276 69.2529 138.758 69.393 138.232 69.3828C137.706 69.3691 137.183 69.4544 136.689 69.6342C136.446 69.7302 136.24 69.9023 136.103 70.1248C135.965 70.3472 135.904 70.6082 135.927 70.8686L154 70.6781Z" fill="#EBEBEB"/>
<path d="M60.8254 55.3424C60.9626 54.3404 59.5453 53.5137 58.4786 53.4375C57.9672 53.4584 57.4552 53.4149 56.9547 53.3079C55.9108 52.927 55.4956 51.5973 54.4783 51.1668C53.7164 50.8468 52.8401 51.1326 52.101 51.5021C51.3619 51.8716 50.6343 52.3402 49.8152 52.3936C49.0989 52.4393 48.3179 52.1726 47.6931 52.5231C47.2245 52.786 46.9807 53.3232 46.5502 53.6432C46.1009 53.9171 45.5828 54.0572 45.0568 54.047C44.5312 54.0333 44.0078 54.1186 43.5138 54.2985C43.2706 54.3945 43.065 54.5665 42.9277 54.789C42.7903 55.0115 42.7287 55.2724 42.7518 55.5328L60.8254 55.3424Z" fill="#EBEBEB"/>
<path d="M87.0973 34.3595C87.2878 32.9803 85.341 31.845 83.8819 31.7307C83.1809 31.6736 82.457 31.7802 81.7979 31.5479C80.3654 31.0488 79.794 29.201 78.3996 28.6105C77.3557 28.1724 76.1518 28.5648 75.1384 29.0715C74.125 29.5782 73.1269 30.2144 71.9953 30.2944C71.0124 30.3592 69.9457 29.9935 69.0847 30.4735C68.4408 30.8316 68.1056 31.5707 67.515 31.9974C66.8993 32.3755 66.1878 32.5686 65.4654 32.5536C64.7454 32.5359 64.0284 32.6522 63.351 32.8965C62.6995 33.1975 62.1585 33.8871 62.2918 34.5919L87.0973 34.3595Z" fill="#F5F5F5"/>
<path d="M26.1345 31.5793H-17.9561V104.559H26.1345V31.5793Z" fill="#E0E0E0"/>
<path d="M24.6677 31.5793H-19.4229V104.559H24.6677V31.5793Z" fill="#EBEBEB"/>
<path d="M22.7897 33.0575H-17.5444V103.077H22.7897V33.0575Z" fill="#FAFAFA"/>
<path d="M14.9376 42.1551H-9.86401V93.9795H14.9376V42.1551Z" fill="#EBEBEB"/>
<path d="M-9.87176 75.6429C-9.9289 70.8007 -5.57814 66.0727 -0.781628 65.3984C1.50424 65.0746 3.93107 65.5317 6.07597 64.6364C9.88575 63.0706 11.1011 58.0074 14.9375 56.5026L15.1128 93.9603H-9.87176V75.6429Z" fill="#E0E0E0"/>
<path d="M81.0721 119.786L89.1907 118.22L104.765 121.794L112.659 123.44L112.773 134.225L95.1645 137.467L83.2818 133.947L78.79 127.337L81.0721 119.786Z" fill="#BABBBB"/>
<path d="M75.3044 120.861L82.9659 119.055C82.9659 119.055 88.3834 135.818 101.752 135.083C112.648 134.492 112.659 123.44 112.659 123.44L120.626 124.846C120.626 124.846 123.967 145.072 120.305 159.26C117.258 171.07 114.553 187.254 114.553 187.254H61.6311L75.3044 120.861Z" fill="#363637"/>
<path d="M152.936 172.685C152.936 172.685 131.11 134.446 127.182 129.539C122.88 124.168 119.448 124.789 119.448 124.789L117.139 150.547L135.697 176.876L140.12 178.472L152.936 172.685Z" fill="#363637"/>
<path d="M76.2181 120.647C76.2181 120.647 63.8135 121.638 59.3637 141.982C57.3521 151.175 54.7919 161.949 54.0757 169.188C53.5423 174.442 56.7845 179.905 62.0229 180.575L68.5986 181.794C70.3358 182.117 72.1306 181.761 73.6132 180.8C75.0959 179.839 76.1537 178.346 76.5686 176.628L78.7897 167.432L72.8732 165.443L74.2409 138.047L76.2181 120.647Z" fill="#363637"/>
<path d="M121.638 139.064C121.667 139.155 121.687 139.25 121.695 139.346C121.73 139.551 121.768 139.826 121.821 140.165C121.848 140.344 121.875 140.546 121.909 140.759C121.943 140.972 121.955 141.212 121.977 141.468C122.031 141.974 122.092 142.553 122.118 143.197C122.21 144.703 122.221 146.213 122.149 147.719C122.06 149.564 121.877 151.403 121.6 153.228C121.315 155.171 120.956 157.008 120.594 158.669C120.233 160.33 119.871 161.819 119.562 163.069C119.253 164.319 118.983 165.321 118.8 166.014C118.709 166.345 118.636 166.612 118.579 166.81C118.556 166.904 118.527 166.995 118.491 167.085C118.499 166.989 118.516 166.895 118.541 166.803C118.587 166.597 118.651 166.33 118.728 165.995L119.429 163.019C119.722 161.766 120.073 160.276 120.419 158.615C120.766 156.954 121.124 155.122 121.41 153.183C121.695 151.243 121.89 149.373 121.97 147.693C122.05 146.013 122.057 144.47 121.97 143.19C121.97 142.55 121.901 141.97 121.859 141.46C121.84 141.209 121.821 140.972 121.806 140.751C121.791 140.53 121.756 140.34 121.737 140.157C121.699 139.818 121.673 139.544 121.65 139.338C121.64 139.247 121.636 139.155 121.638 139.064Z" fill="#263238"/>
<path d="M79.3687 168.415C79.3424 168.361 79.3207 168.305 79.3039 168.247C79.2658 168.121 79.2125 167.961 79.1477 167.756L78.9039 166.967C78.8353 166.608 78.6839 166.27 78.462 165.98C78.1357 165.667 77.7459 165.428 77.319 165.279C76.8171 165.09 76.2996 164.944 75.7723 164.845C74.5152 164.612 73.2408 164.485 71.9625 164.464H71.8596V164.365L72.9797 157.062C73.6997 152.463 74.355 148.299 74.8312 145.251C75.0789 143.758 75.277 142.543 75.418 141.682C75.4865 141.274 75.5437 140.95 75.5856 140.71C75.5856 140.611 75.6199 140.527 75.6351 140.459C75.6378 140.43 75.6455 140.401 75.658 140.375C75.6638 140.404 75.6638 140.433 75.658 140.462C75.658 140.531 75.658 140.615 75.6275 140.718C75.597 140.958 75.5513 141.281 75.498 141.693C75.3722 142.558 75.1932 143.777 74.976 145.274C74.5112 148.322 73.8788 152.478 73.1778 157.084C72.7663 159.713 72.3816 162.201 72.0349 164.384L71.9472 164.281C73.2411 164.314 74.5297 164.458 75.7989 164.712C76.3336 164.818 76.8576 164.973 77.3647 165.173C77.8091 165.336 78.2114 165.596 78.542 165.935C78.6781 166.088 78.7795 166.268 78.8391 166.464L78.9801 166.971C79.0677 167.279 79.1401 167.546 79.2011 167.767C79.262 167.988 79.3001 168.148 79.3306 168.266C79.3479 168.314 79.3606 168.364 79.3687 168.415Z" fill="#263238"/>
<path d="M62.2822 171.523C62.2944 171.349 62.3277 171.178 62.3813 171.012C62.5011 170.553 62.6617 170.106 62.8613 169.675C63.511 168.236 64.5238 166.991 65.8002 166.062C67.0767 165.133 68.5729 164.552 70.1418 164.376C70.6119 164.318 71.0862 164.303 71.559 164.33C71.7336 164.332 71.9074 164.354 72.0772 164.395C71.4405 164.398 70.8045 164.438 70.1723 164.513C68.639 164.724 67.1818 165.311 65.9302 166.222C64.6786 167.133 63.6715 168.338 62.9985 169.732C62.7279 170.316 62.4889 170.914 62.2822 171.523Z" fill="#263238"/>
<path d="M65.1509 161.396C65.2479 161.372 65.3482 161.363 65.448 161.37C65.7216 161.365 65.9952 161.377 66.2671 161.408C67.1667 161.498 68.0483 161.719 68.8845 162.063C69.7204 162.409 70.5028 162.872 71.2084 163.438C71.4223 163.608 71.6247 163.791 71.8142 163.987C71.9475 164.128 72.0199 164.208 72.0085 164.219C71.9971 164.231 71.6732 163.953 71.1246 163.549C69.686 162.495 68.0122 161.807 66.2481 161.545C65.5738 161.446 65.1509 161.431 65.1509 161.396Z" fill="#263238"/>
<path d="M77.99 135.082C77.965 134.902 77.9561 134.72 77.9633 134.538C77.9633 134.187 77.9404 133.684 77.8947 133.063C77.7804 131.443 77.5021 129.839 77.0642 128.274C76.6201 126.713 76.0215 125.199 75.2774 123.756C74.9879 123.204 74.744 122.762 74.565 122.464C74.4646 122.312 74.3779 122.152 74.3059 121.984C74.4275 122.12 74.5359 122.267 74.6297 122.423C74.8317 122.712 75.0945 123.143 75.3917 123.691C76.9773 126.569 77.8769 129.773 78.0204 133.056C78.0471 133.68 78.0433 134.199 78.0204 134.538C78.0283 134.72 78.0181 134.902 77.99 135.082Z" fill="#263238"/>
<g opacity="0.3">
<path d="M121.075 156.128C124.237 150.768 124.305 143.803 121.543 138.222C122.432 144.168 122.241 150.226 120.979 156.105" fill="black"/>
</g>
<g opacity="0.3">
<path d="M92.92 162.189C90.5199 162.894 87.2054 163.065 84.8547 162.189C86.6872 164.791 90.2189 165.732 93.282 164.887C96.345 164.041 99.1719 160.974 99.4081 157.8C97.9261 159.804 95.324 161.496 92.92 162.189Z" fill="black"/>
</g>
<path d="M101.751 153.533C101.74 153.606 101.721 153.678 101.694 153.747C101.649 153.884 101.595 154.094 101.489 154.345C101.211 155.073 100.865 155.773 100.456 156.437C99.853 157.425 99.1244 158.332 98.2884 159.134C96.2372 161.13 93.5895 162.401 90.7488 162.753C89.6005 162.902 88.4378 162.902 87.2895 162.753C86.514 162.657 85.7488 162.49 85.0037 162.254C84.737 162.174 84.5427 162.086 84.4055 162.037C84.3359 162.013 84.2684 161.984 84.2036 161.949C84.4803 162.012 84.7537 162.088 85.0227 162.178C88.2484 163.075 91.6884 162.79 94.7224 161.374C97.726 159.897 100.099 157.391 101.409 154.311C101.63 153.815 101.732 153.526 101.751 153.533Z" fill="#263238"/>
<path d="M74.9917 180.205C74.9917 180.205 74.9651 180.247 74.8965 180.308C74.8006 180.403 74.6974 180.491 74.5879 180.571C74.1894 180.868 73.7473 181.102 73.2773 181.264C72.5786 181.497 71.8495 181.625 71.1134 181.645C70.2233 181.673 69.3323 181.642 68.4465 181.55C66.5417 181.386 64.8501 181.108 63.6272 180.891C63.0138 180.78 62.5185 180.685 62.1795 180.613C61.9989 180.588 61.8214 180.545 61.6499 180.483C61.8314 180.486 62.0124 180.504 62.1909 180.537L63.65 180.75C64.8768 180.937 66.5759 181.188 68.4656 181.352C69.3514 181.443 70.2421 181.48 71.1324 181.462C71.8535 181.447 72.569 181.332 73.2583 181.119C73.8787 180.903 74.463 180.595 74.9917 180.205Z" fill="#263238"/>
<path d="M118.019 79.9664L119.585 78.4425C121.669 79.3492 122.633 81.7684 122.987 84.0162C123.341 86.264 123.288 88.626 124.244 90.6909C124.976 92.2796 126.305 93.7388 126.149 95.4951C126.001 97.1523 124.499 98.4934 124.492 100.158C124.492 101.762 125.825 102.993 126.602 104.395C128.176 107.233 129.197 118.845 128.374 121.988C121.452 121.39 109.192 120.651 102.266 119.059C104.091 107.126 111.775 90.2871 118.019 79.9664Z" fill="#263238"/>
<path d="M121.117 90.6033C121.597 82.4922 115.707 75.0708 107.497 74.0917C98.7837 73.0554 91.0765 79.2958 90.3527 87.784L88.3106 122.049C88.2733 122.711 88.4584 123.367 88.8364 123.912C90.8479 126.853 94.4901 129.154 97.7474 129.608C100.898 130.046 104.095 129.227 106.777 127.733C107.222 127.482 107.593 127.118 107.853 126.678C108.113 126.238 108.253 125.738 108.259 125.227L108.4 117.557C108.399 117.551 108.4 117.544 108.402 117.538C108.404 117.532 108.408 117.526 108.413 117.521C108.418 117.516 108.423 117.513 108.429 117.511C108.436 117.508 108.442 117.507 108.449 117.508C109.167 117.562 109.888 117.542 110.602 117.447C112.628 116.952 117.798 114.963 119.536 107.374C120.115 104.859 120.694 97.7161 121.117 90.6033Z" fill="#BABBBB"/>
<path d="M109.847 101.808C109.847 101.732 110.697 101.648 112.072 101.572C112.419 101.572 112.75 101.514 112.834 101.286C112.885 100.936 112.827 100.58 112.666 100.265L111.813 97.5979C110.632 93.8186 109.801 90.7213 109.954 90.6794C110.106 90.6375 111.192 93.6586 112.373 97.4379C112.655 98.3713 112.925 99.259 113.185 100.105C113.291 100.486 113.486 100.951 113.276 101.45C113.218 101.566 113.133 101.667 113.03 101.746C112.926 101.825 112.806 101.878 112.678 101.903C112.484 101.942 112.285 101.956 112.087 101.945C110.701 101.937 109.851 101.884 109.847 101.808Z" fill="#263238"/>
<path d="M118.877 93.4725C118.728 93.6364 117.829 92.882 116.541 92.8439C115.253 92.8058 114.293 93.4802 114.156 93.3049C114.088 93.2249 114.244 92.9239 114.663 92.6115C115.217 92.2136 115.886 92.01 116.568 92.0324C117.248 92.0559 117.902 92.3068 118.423 92.7449C118.823 93.0877 118.972 93.4001 118.877 93.4725Z" fill="#263238"/>
<path d="M105.794 93.7999C105.618 93.9637 104.681 93.1142 103.275 92.9923C101.87 92.8703 100.776 93.5142 100.635 93.3237C100.567 93.2361 100.757 92.9427 101.233 92.6303C101.871 92.2522 102.613 92.0868 103.352 92.1579C104.091 92.2234 104.788 92.5269 105.34 93.0227C105.755 93.3923 105.877 93.7275 105.794 93.7999Z" fill="#263238"/>
<path d="M108.4 117.504C108.4 117.504 103.15 117.561 96.8713 113.248C96.8713 113.248 98.4943 120.175 108.358 119.957L108.4 117.504Z" fill="#9B9D9C"/>
<path d="M109.066 104.97C108.827 104.632 108.507 104.361 108.136 104.179C107.765 103.997 107.354 103.911 106.94 103.93C106.642 103.934 106.348 103.998 106.075 104.119C105.802 104.239 105.556 104.413 105.352 104.631C105.157 104.839 105.032 105.103 104.994 105.386C104.957 105.668 105.008 105.956 105.142 106.208C105.474 106.737 106.228 106.909 106.887 106.772C107.54 106.593 108.151 106.288 108.685 105.873C108.844 105.771 108.983 105.642 109.097 105.492C109.15 105.421 109.182 105.337 109.187 105.249C109.193 105.16 109.172 105.073 109.127 104.996" fill="#9B9D9C"/>
<path d="M105.809 102.444C106.03 102.444 105.942 103.892 107.131 105.004C108.32 106.117 109.893 106.064 109.893 106.265C109.893 106.361 109.512 106.525 108.864 106.494C108.006 106.446 107.19 106.103 106.556 105.523C105.952 104.97 105.588 104.203 105.542 103.385C105.523 102.78 105.71 102.444 105.809 102.444Z" fill="#263238"/>
<path d="M106.018 88.4886C105.858 88.8391 104.521 88.5686 102.925 88.6334C101.329 88.6981 100.014 89.0144 99.8237 88.6905C99.7437 88.5267 99.9875 88.2067 100.532 87.8943C101.257 87.5169 102.057 87.3073 102.873 87.2809C103.69 87.2545 104.502 87.4121 105.249 87.7419C105.801 88.0162 106.072 88.321 106.018 88.4886Z" fill="#263238"/>
<path d="M119.154 88.7748C118.88 89.0796 117.794 88.7748 116.488 88.7748C115.181 88.7748 114.084 88.992 113.821 88.6758C113.706 88.5234 113.878 88.2186 114.358 87.9138C115.022 87.5655 115.764 87.3913 116.515 87.4073C117.265 87.4232 117.999 87.629 118.648 88.0053C119.12 88.3139 119.276 88.6263 119.154 88.7748Z" fill="#263238"/>
<path d="M108.685 72.3774C107.977 71.1735 106.662 70.6249 105.192 70.4039C99.1877 69.4934 92.4901 73.1088 89.1261 78.1606C85.7621 83.2124 85.583 90.7519 88.0441 96.2989L91.7891 93.9597C99.3058 90.8586 104.613 83.6162 109.447 76.1338C110.122 75.1166 109.314 73.425 108.685 72.3774Z" fill="#263238"/>
<path d="M117.935 75.6807C115.425 72.8234 113.6 69.966 108.388 71.9623C107.626 73.4215 109.15 75.315 110.461 76.4198C112.366 78.0428 114 79.1362 115.242 80.2981C117.749 82.6412 120.598 90.5236 120.846 94.8248C120.846 95.0953 121.322 91.1331 121.608 91.0912C121.959 91.0379 123.372 89.3083 123.178 86.9462C122.507 78.8733 120.446 78.5342 117.935 75.6807Z" fill="#263238"/>
<path d="M105.207 70.4038C105.599 70.3274 106.004 70.3618 106.377 70.5029C107.299 70.7857 108.121 71.3264 108.746 72.0611C108.925 72.2676 109.083 72.4909 109.219 72.7278C109.337 72.9567 109.429 73.1982 109.493 73.4478C109.629 73.8503 109.732 74.2631 109.802 74.6822C109.905 75.4175 109.729 75.8632 109.691 75.8518C109.653 75.8404 109.71 75.4023 109.55 74.7279C109.445 74.329 109.317 73.936 109.169 73.5507C109.102 73.3255 109.012 73.1073 108.903 72.8992C108.774 72.6809 108.626 72.4743 108.461 72.282C107.871 71.5987 107.124 71.068 106.285 70.7353C105.638 70.5029 105.2 70.4648 105.207 70.4038Z" fill="#455A64"/>
<path d="M117.687 95.9677C117.688 96.2599 117.576 96.5412 117.376 96.7538C117.175 96.9664 116.901 97.0941 116.609 97.1106C116.464 97.1242 116.318 97.1087 116.179 97.065C116.041 97.0214 115.912 96.9505 115.801 96.8565C115.69 96.7624 115.599 96.6472 115.533 96.5175C115.467 96.3877 115.427 96.2462 115.417 96.101C115.409 95.8042 115.518 95.5162 115.719 95.2979C115.92 95.0796 116.199 94.9482 116.495 94.9314C116.642 94.9173 116.791 94.9333 116.931 94.9784C117.072 95.0234 117.202 95.0967 117.314 95.1936C117.425 95.2905 117.516 95.4091 117.58 95.5422C117.644 95.6753 117.681 95.8201 117.687 95.9677Z" fill="#263238"/>
<path d="M105.139 96.0285C105.146 96.3253 105.038 96.6133 104.836 96.8316C104.635 97.0499 104.357 97.1814 104.06 97.1981C103.916 97.2122 103.77 97.1972 103.631 97.154C103.492 97.1108 103.363 97.0403 103.252 96.9465C103.141 96.8528 103.05 96.7378 102.984 96.6083C102.918 96.4787 102.878 96.3373 102.868 96.1923C102.859 95.8949 102.967 95.6059 103.169 95.3867C103.37 95.1676 103.649 95.0357 103.946 95.0189C104.091 95.0048 104.237 95.0199 104.376 95.0634C104.515 95.1068 104.644 95.1777 104.756 95.2718C104.867 95.3659 104.958 95.4814 105.024 95.6114C105.089 95.7413 105.129 95.8832 105.139 96.0285Z" fill="#263238"/>
<path d="M70.6066 105.565C71.3152 104.399 72.1305 103.302 73.4258 102.818C74.7212 102.334 76.1917 102.056 77.2089 101.111C78.8052 99.6443 78.7329 97.206 78.5881 95.0802C78.4433 92.9543 78.4052 90.5084 80.0358 89.0798C81.3997 87.8873 83.5675 87.7806 84.7485 86.4129C85.5371 85.5024 85.6933 84.2451 85.9676 83.0832C86.7296 79.9706 88.4325 74.534 97.6065 71.4062L89.4917 102.243C90.0974 102.414 91.5451 103.793 91.6251 104.727C91.6975 105.599 91.3204 106.483 91.3127 107.359C91.3127 108.43 92.4785 109.07 93.2176 109.862C94.1548 110.872 94.4444 112.327 94.2996 113.672C93.9991 115.51 93.5075 117.312 92.8328 119.047C85.3047 118.286 74.3173 118.042 68.5798 113.241C67.5397 112.373 69.0294 108.159 70.6066 105.565Z" fill="#263238"/>
<path d="M91.8043 93.9599C91.6633 93.8837 86.1201 91.6741 85.7658 97.5221C85.4114 103.37 91.3433 102.501 91.3623 102.338C91.3814 102.174 91.8043 93.9599 91.8043 93.9599Z" fill="#BABBBB"/>
<path d="M89.7165 100.021C89.6899 99.9982 89.6099 100.086 89.4308 100.151C89.183 100.241 88.9097 100.232 88.6689 100.124C88.0669 99.8572 87.6059 98.8476 87.6402 97.7961C87.6596 97.2951 87.7897 96.8046 88.0212 96.3598C88.0876 96.1812 88.196 96.0211 88.3372 95.8932C88.4784 95.7652 88.6484 95.6731 88.8327 95.6245C88.9515 95.6008 89.0748 95.6194 89.1813 95.6772C89.2878 95.7349 89.3707 95.8282 89.4156 95.9407C89.4841 96.1084 89.4384 96.2227 89.4689 96.2341C89.4994 96.2455 89.6022 96.1427 89.568 95.8988C89.546 95.7517 89.4732 95.6169 89.3622 95.5179C89.2095 95.3862 89.0109 95.3205 88.8098 95.335C88.5675 95.3672 88.3375 95.4612 88.142 95.608C87.9465 95.7548 87.7921 95.9494 87.6935 96.1731C87.4151 96.6645 87.2608 97.2164 87.244 97.7809C87.2097 98.9581 87.7431 100.093 88.5736 100.387C88.7271 100.443 88.8913 100.463 89.0536 100.445C89.216 100.428 89.3724 100.374 89.5108 100.288C89.6975 100.158 89.7356 100.032 89.7165 100.021Z" fill="#9B9D9C"/>
<path d="M112.548 95.4876C112.579 95.0481 112.642 94.6114 112.735 94.1809C112.911 93.4604 113.236 92.7846 113.688 92.1966C114.14 91.6087 114.71 91.1215 115.361 90.7662C116.012 90.4109 116.73 90.1953 117.469 90.1332C118.208 90.071 118.952 90.1637 119.654 90.4054C120.137 90.5683 120.591 90.8047 121.002 91.1064C121.441 91.4097 121.827 91.7829 122.145 92.2112C122.828 93.1051 123.206 94.1943 123.224 95.3189C123.241 96.4435 122.898 97.5442 122.244 98.4592C121.942 98.8966 121.572 99.2826 121.147 99.6022C120.747 99.9177 120.299 100.168 119.821 100.345C118.937 100.686 117.978 100.783 117.044 100.627C116.229 100.493 115.458 100.168 114.792 99.6784C113.818 98.9697 113.111 97.9539 112.785 96.7944C112.679 96.3656 112.603 95.9304 112.556 95.4914C112.554 95.5206 112.554 95.5499 112.556 95.5791C112.556 95.6514 112.556 95.7353 112.556 95.8381C112.559 95.9774 112.573 96.1162 112.598 96.2534C112.619 96.4426 112.654 96.6298 112.705 96.8134C113.01 98.0063 113.716 99.058 114.705 99.7927C115.437 100.34 116.295 100.694 117.2 100.82C118.106 100.947 119.028 100.842 119.882 100.517C120.896 100.133 121.773 99.457 122.4 98.5735C123.08 97.6256 123.436 96.4844 123.418 95.3183C123.399 94.1522 123.007 93.0229 122.298 92.0969C121.967 91.6553 121.569 91.2695 121.117 90.954C120.694 90.6508 120.228 90.4143 119.734 90.253C118.87 89.9545 117.945 89.8794 117.044 90.0346C116.143 90.1898 115.297 90.5703 114.583 91.1407C113.616 91.9073 112.943 92.9837 112.678 94.1885C112.634 94.3741 112.604 94.5625 112.586 94.7523C112.568 94.8912 112.559 95.0313 112.56 95.1714C112.56 95.2743 112.56 95.3581 112.56 95.4267C112.555 95.4468 112.551 95.4672 112.548 95.4876Z" fill="#455A64"/>
<path d="M97.8275 95.7237C97.8581 95.2844 97.9192 94.8478 98.0104 94.417C98.2969 93.2483 98.9678 92.2098 99.9153 91.4682C100.565 90.9584 101.326 90.6087 102.136 90.4472C103.065 90.2635 104.027 90.3306 104.921 90.6415C105.404 90.8059 105.858 91.0423 106.27 91.3425C106.708 91.6468 107.094 92.0199 107.413 92.4473C108.095 93.3407 108.472 94.4289 108.491 95.5525C108.51 96.6761 108.168 97.7762 107.516 98.6915C107.212 99.1288 106.84 99.5146 106.415 99.8345C106.015 100.15 105.567 100.401 105.089 100.577C104.205 100.918 103.246 101.015 102.312 100.859C101.498 100.725 100.728 100.4 100.064 99.9107C99.089 99.202 98.3806 98.1863 98.0523 97.0267C97.9473 96.5981 97.8722 96.1627 97.8275 95.7237C97.8234 95.7528 97.8234 95.7823 97.8275 95.8113C97.8275 95.8799 97.8275 95.9675 97.8275 96.0704C97.8274 96.2097 97.8401 96.3487 97.8656 96.4857C97.8861 96.6752 97.9231 96.8626 97.9761 97.0457C98.2787 98.24 98.9854 99.2927 99.9762 100.025C100.65 100.531 101.433 100.873 102.262 101.023C103.226 101.189 104.216 101.094 105.131 100.749C106.146 100.369 107.024 99.6915 107.649 98.8058C108.328 97.8578 108.685 96.7166 108.667 95.5505C108.648 94.3844 108.255 93.2551 107.546 92.3292C106.891 91.4656 105.993 90.8169 104.967 90.4662C104.042 90.15 103.048 90.0881 102.091 90.2872C101.071 90.4968 100.133 90.9961 99.3897 91.7252C98.6464 92.4543 98.1292 93.3823 97.8999 94.3979C97.8526 94.5827 97.822 94.7714 97.8085 94.9618C97.7859 95.1002 97.7769 95.2406 97.7818 95.3808V95.6361C97.7905 95.6683 97.8061 95.6982 97.8275 95.7237Z" fill="#455A64"/>
<path d="M108.343 95.3238C108.373 95.3429 108.525 95.0952 108.88 94.8095C109.334 94.4328 109.903 94.222 110.493 94.2116C111.083 94.2012 111.658 94.3919 112.126 94.7523C112.507 95.0228 112.651 95.2667 112.678 95.2438C112.583 95.0031 112.422 94.7944 112.213 94.6419C111.736 94.2242 111.12 93.9993 110.486 94.0113C109.852 94.0233 109.246 94.2712 108.784 94.7066C108.582 94.8668 108.429 95.0807 108.343 95.3238Z" fill="#455A64"/>
<path d="M90.4631 93.5867C90.8138 93.6979 91.1752 93.7719 91.5413 93.8076C92.2156 93.9143 93.149 94.0134 94.1777 94.1048L96.8178 94.341C97.1797 94.3967 97.5452 94.4247 97.9113 94.4248C97.5606 94.3127 97.1993 94.2374 96.8331 94.2001C96.1626 94.0972 95.2292 93.9981 94.1967 93.9067L91.5604 93.6705C91.1975 93.6124 90.8306 93.5844 90.4631 93.5867Z" fill="#455A64"/>
<path d="M121.052 98.783C121.527 98.2336 121.913 97.6126 122.194 96.9429C122.416 96.2495 122.528 95.5258 122.526 94.798C122.611 95.003 122.65 95.224 122.64 95.4456C122.654 95.9793 122.566 96.5106 122.381 97.0115C122.197 97.5124 121.917 97.9729 121.558 98.3677C121.28 98.6649 121.067 98.8021 121.052 98.783Z" fill="white"/>
<path d="M121.974 92.7633C122.004 92.7176 122.221 92.8281 122.355 93.0871C122.488 93.3462 122.431 93.5824 122.378 93.5786C122.324 93.5748 122.279 93.3805 122.176 93.1709C122.073 92.9614 121.939 92.8052 121.974 92.7633Z" fill="white"/>
<path d="M107.603 97.6289C107.573 97.6289 107.679 97.3241 107.767 96.8326C107.992 95.5435 107.744 94.2167 107.07 93.0952C106.814 92.6686 106.609 92.4323 106.632 92.4095C106.856 92.5733 107.045 92.7806 107.188 93.019C107.57 93.573 107.833 94.2005 107.96 94.8617C108.087 95.5229 108.074 96.2032 107.923 96.8593C107.869 97.1348 107.761 97.3966 107.603 97.6289Z" fill="white"/>
<path d="M87.3507 102.258C87.3507 102.258 87.2707 102.372 87.1564 102.581C86.9925 102.879 86.906 103.213 86.905 103.553C86.8989 103.799 86.9438 104.044 87.0369 104.272C87.13 104.501 87.2693 104.707 87.446 104.879C87.6591 105.091 87.9193 105.249 88.2053 105.341C88.4914 105.433 88.7951 105.456 89.0918 105.408C89.3865 105.348 89.6631 105.219 89.8998 105.034C90.1365 104.848 90.3268 104.61 90.4557 104.338C90.5598 104.114 90.6173 103.872 90.6245 103.626C90.6317 103.379 90.5885 103.134 90.4976 102.905C90.3774 102.588 90.1812 102.306 89.9261 102.082C89.7433 101.926 89.6214 101.861 89.629 101.846C89.7548 101.878 89.872 101.938 89.9719 102.021C90.2625 102.233 90.4892 102.52 90.6271 102.852C90.7375 103.097 90.7946 103.364 90.7946 103.633C90.7946 103.902 90.7375 104.168 90.6271 104.414C90.496 104.72 90.291 104.989 90.0303 105.196C89.7697 105.404 89.4616 105.543 89.1338 105.602C88.806 105.661 88.4687 105.637 88.1521 105.534C87.8356 105.43 87.5498 105.25 87.3203 105.008C87.1304 104.818 86.983 104.589 86.8878 104.338C86.7926 104.086 86.7517 103.818 86.7678 103.549C86.781 103.19 86.8931 102.842 87.0917 102.543C87.225 102.334 87.3507 102.25 87.3507 102.258Z" fill="#E0E0E0"/>
<path d="M119.532 106.753C119.854 106.882 120.21 106.903 120.545 106.814C120.904 106.713 121.227 106.514 121.479 106.239C121.788 105.905 121.997 105.49 122.081 105.042C122.168 104.595 122.112 104.131 121.92 103.717C121.764 103.377 121.53 103.078 121.239 102.844C120.957 102.638 120.65 102.47 120.324 102.345C120.421 102.336 120.519 102.349 120.61 102.383C120.868 102.455 121.11 102.572 121.326 102.73C121.65 102.968 121.911 103.28 122.088 103.64C122.306 104.086 122.373 104.59 122.279 105.077C122.185 105.563 121.952 106.012 121.608 106.368C121.329 106.66 120.97 106.862 120.576 106.951C120.312 107.013 120.035 106.999 119.779 106.909C119.6 106.837 119.524 106.761 119.532 106.753Z" fill="#E0E0E0"/>
<path d="M98.3988 182.4L104.049 184.073C104.049 184.073 107.165 185.41 108.681 185.757C110.563 186.187 111.847 185.604 111.916 184.556C111.985 183.509 110.522 183.375 110.522 183.375C109.278 182.902 108.069 182.343 106.902 181.703C106.055 181.115 105.362 180.33 104.883 179.417L106.902 179.695C106.902 179.695 111.15 182.743 112.75 183.665C114.35 184.587 114.701 182.968 114.838 182.48C114.975 181.992 110.106 177.051 110.106 177.051C110.106 177.051 114.769 180.046 115.604 180.792C116.438 181.539 117.695 181.783 117.973 181.299C118.252 180.815 119.017 180.811 117.973 178.747C116.93 176.682 108.575 171.127 108.575 171.127L110.861 170.639L113.367 171.756C113.542 172.616 113.898 173.429 114.411 174.141C115.314 175.482 116.918 174.141 116.918 174.141L115.924 168.997L110.971 165.896C110.971 165.896 105.82 166.525 105.055 166.871C104.289 167.218 103.451 168.677 103.451 168.677L102.06 169.241C99.8999 169.866 99.9723 172.026 99.2751 172.095C98.5779 172.163 78.2565 168.201 78.2565 168.201L76.4164 167.721C73.3686 170.034 72.1533 173.855 71.6161 177.246C71.6161 177.246 71.0561 178.907 71.6161 179.821L98.3988 182.4Z" fill="#BABBBB"/>
<path d="M94.6691 178.785C94.645 178.676 94.6386 178.564 94.65 178.453C94.6486 178.326 94.6601 178.198 94.6843 178.072C94.7021 177.9 94.7352 177.729 94.7834 177.562C95.0695 176.6 95.5535 175.709 96.2044 174.945C96.8365 174.177 97.5407 173.471 98.3074 172.838C98.6112 172.561 98.9418 172.314 99.2942 172.103C99.0123 172.394 98.7133 172.669 98.3989 172.925C97.6661 173.582 96.9835 174.293 96.3568 175.051C95.7242 175.799 95.237 176.658 94.9205 177.585C94.6957 178.312 94.711 178.789 94.6691 178.785Z" fill="#9B9D9C"/>
<path d="M103.47 168.677C103.47 168.677 103.302 168.765 103.043 168.974C102.682 169.279 102.37 169.638 102.117 170.037C101.935 170.307 101.779 170.595 101.652 170.895C101.535 171.248 101.461 171.613 101.431 171.984C101.379 172.415 101.225 172.828 100.982 173.188C100.706 173.537 100.479 173.921 100.308 174.331C100.047 175.024 100.047 175.787 100.308 176.48L100.334 176.552L100.269 176.594C99.3861 177.165 98.7465 178.043 98.475 179.059C98.3814 179.459 98.3241 179.867 98.3036 180.278C98.2727 180.172 98.2598 180.061 98.2655 179.95C98.2614 179.642 98.2946 179.333 98.3645 179.032C98.6076 177.965 99.2549 177.034 100.17 176.434L100.132 176.548C99.8565 175.811 99.8565 174.999 100.132 174.262C100.308 173.841 100.544 173.447 100.833 173.093C101.065 172.752 101.211 172.36 101.26 171.95C101.306 171.224 101.572 170.529 102.022 169.957C102.291 169.552 102.629 169.198 103.02 168.91C103.125 168.83 103.241 168.765 103.363 168.715C103.397 168.698 103.433 168.685 103.47 168.677Z" fill="#9B9D9C"/>
<path d="M108.361 170.955C107.874 171.019 107.378 170.966 106.915 170.802C106.452 170.638 106.034 170.367 105.695 170.011C105.733 169.965 106.243 170.357 106.978 170.613C107.714 170.868 108.361 170.898 108.361 170.955Z" fill="#9B9D9C"/>
<path d="M109.664 176.582C108.929 176.376 108.213 176.103 107.527 175.767C106.814 175.493 106.126 175.159 105.47 174.769C106.204 174.981 106.918 175.253 107.607 175.584C108.32 175.858 109.008 176.192 109.664 176.582Z" fill="#9B9D9C"/>
<path d="M105.081 179.363C104.342 179.113 103.619 178.815 102.917 178.472C103.315 178.489 103.704 178.591 104.06 178.769C104.44 178.89 104.788 179.093 105.081 179.363Z" fill="#9B9D9C"/>
<path d="M108.963 176.944C108.635 177.12 108.347 177.361 108.116 177.653C107.884 177.944 107.715 178.28 107.619 178.64C107.592 178.64 107.569 178.506 107.619 178.293C107.672 178.013 107.793 177.751 107.969 177.528C108.145 177.304 108.373 177.126 108.632 177.009C108.819 176.929 108.956 176.921 108.963 176.944Z" fill="#9B9D9C"/>
<path d="M111.005 173.855C111.028 173.908 110.655 174.099 110.403 174.525C110.275 174.796 110.168 175.076 110.083 175.363C110.029 175.206 110.015 175.038 110.042 174.874C110.068 174.71 110.135 174.554 110.236 174.422C110.525 173.935 110.998 173.801 111.005 173.855Z" fill="#9B9D9C"/>
<path d="M110.43 168.258C110.411 168.258 110.335 168.17 110.278 167.988C110.209 167.738 110.209 167.475 110.278 167.226C110.344 166.979 110.476 166.756 110.659 166.578C110.796 166.445 110.91 166.399 110.922 166.418C110.74 166.684 110.593 166.972 110.484 167.275C110.427 167.6 110.409 167.929 110.43 168.258Z" fill="#9B9D9C"/>
<path d="M151.618 170.01C151.618 170.01 151.363 165.012 146.181 163.976C141 162.94 131.925 167.344 131.925 167.344L106.499 185.063L107.261 187.253L133.068 183.657L135.43 184.564L153.557 172.654L170.663 160.288L168.758 158.798C168.758 158.798 163.965 162.101 160.796 163.522C157.626 164.943 153.043 167.435 151.618 170.01Z" fill="#F5F5F5"/>
<path d="M106.106 187.978L127.624 174.609L150.372 170.956C150.372 170.956 151.515 172.609 153.446 172.205L172.152 159.252L172.507 160.033L136.23 185.52C135.697 185.715 135.121 185.76 134.565 185.652C134.008 185.543 133.492 185.284 133.072 184.903L106.106 187.978Z" fill="#363637"/>
<path d="M150.372 170.955C150.32 171.011 150.261 171.06 150.197 171.1L149.671 171.481C149.214 171.809 148.555 172.285 147.766 172.887C146.151 174.087 143.956 175.798 141.587 177.737C139.217 179.676 137.087 181.478 135.563 182.792L133.746 184.354L133.251 184.773C133.197 184.827 133.137 184.873 133.072 184.911C133.072 184.911 133.117 184.85 133.224 184.747L133.693 184.297C134.104 183.916 134.702 183.36 135.457 182.693C136.958 181.352 139.065 179.539 141.446 177.592C143.827 175.645 146.017 173.954 147.667 172.78C148.482 172.19 149.157 171.733 149.629 171.424L150.174 171.073C150.236 171.028 150.302 170.989 150.372 170.955Z" fill="#263238"/>
<path d="M150.139 168.174C148.078 165.961 144.832 165.172 141.815 165.408C138.798 165.645 135.937 166.769 133.121 167.885L106.799 185.901L107.036 186.579L133.498 168.673C133.498 168.673 139.411 166.769 142.028 166.441C146.402 165.896 150.139 168.174 150.139 168.174Z" fill="#E0E0E0"/>
<path d="M154.269 170.544L166.925 162.006C166.925 162.006 156.555 167.401 154.269 170.544Z" fill="#E0E0E0"/>
<path d="M106.799 185.901C106.832 185.868 106.867 185.839 106.906 185.813L107.234 185.581L108.495 184.693L113.158 181.463L128.587 170.868L133.068 167.82C135.617 166.67 138.307 165.861 141.068 165.416C143.299 165.101 145.573 165.422 147.629 166.342C148.398 166.699 149.106 167.175 149.728 167.751C150.193 168.185 150.589 168.687 150.901 169.241C151.098 169.588 151.251 169.958 151.358 170.342C151.385 170.468 151.408 170.567 151.427 170.643C151.435 170.677 151.442 170.711 151.446 170.746C151.309 170.232 151.107 169.738 150.844 169.275C150.524 168.736 150.126 168.247 149.663 167.824C149.039 167.265 148.336 166.803 147.575 166.452C145.539 165.567 143.296 165.266 141.099 165.584C138.36 166.032 135.691 166.835 133.159 167.972H133.178L128.698 171.02L113.257 181.577L108.556 184.758L107.276 185.612L106.936 185.833C106.893 185.86 106.847 185.883 106.799 185.901Z" fill="#263238"/>
<path d="M129.841 172.281C129.901 172.231 129.968 172.19 130.039 172.159C130.173 172.087 130.371 171.976 130.626 171.847C131.14 171.58 131.891 171.207 132.836 170.78C135.285 169.631 137.885 168.835 140.558 168.414C143.245 168.008 145.99 168.259 148.559 169.145C149.33 169.424 150.072 169.78 150.772 170.208C151.023 170.353 151.202 170.494 151.328 170.589C151.395 170.63 151.457 170.678 151.515 170.73C151.515 170.73 151.237 170.57 150.734 170.285C150.025 169.887 149.282 169.554 148.513 169.29C145.956 168.452 143.238 168.223 140.577 168.624C137.923 169.043 135.337 169.812 132.885 170.909C131.936 171.321 131.178 171.671 130.653 171.919L130.051 172.197C129.984 172.232 129.914 172.26 129.841 172.281Z" fill="#263238"/>
<path d="M169.985 159.751C169.985 159.751 169.931 159.8 169.821 159.877L169.329 160.204L167.504 161.378C165.958 162.368 163.828 163.736 161.493 165.275C159.157 166.814 157.069 168.228 155.545 169.256L153.743 170.468L153.248 170.792C153.193 170.832 153.133 170.865 153.069 170.891C153.116 170.841 153.169 170.796 153.225 170.757L153.702 170.403C154.113 170.098 154.715 169.668 155.465 169.138C156.966 168.083 159.054 166.647 161.393 165.107C163.733 163.568 165.878 162.22 167.44 161.26C168.221 160.779 168.857 160.399 169.299 160.139L169.813 159.842C169.867 159.807 169.925 159.776 169.985 159.751Z" fill="#263238"/>
<path d="M158.471 173.451C158.213 174.073 157.884 174.663 157.492 175.211C157.005 175.79 155.412 176.597 155.286 177.698C155.161 178.799 155.42 181.382 153.698 183.348C152.588 184.571 151.183 185.489 149.617 186.015L142.825 185.352L131.974 181.082C131.732 181.02 131.523 180.866 131.394 180.652C131.264 180.438 131.223 180.182 131.281 179.939C131.348 179.674 131.493 179.435 131.697 179.254C131.9 179.072 132.153 178.955 132.424 178.918L132.683 178.876C132.683 178.876 132.058 178.365 132.954 177.47C133.715 176.708 135.342 177.138 136.18 177.417C137.019 177.695 141.933 179.748 142.813 180.064C143.594 180.342 144.196 180.59 144.196 180.59C144.196 180.59 137.906 176.346 137.819 175.79C137.716 175.123 137.784 174.818 138.428 174.353C139.19 173.801 140.44 174.392 141.651 174.902C142.554 175.283 148.311 178.125 148.311 178.125C148.311 178.125 148.57 177.874 148.311 177.363C148.052 176.853 146.139 174.392 145.838 173.934C145.537 173.477 145.457 173.218 145.758 172.833C146.177 172.289 147.282 172.029 148.299 172.959C148.943 173.553 151.233 175.093 151.233 175.093L161.801 167.382C161.801 167.382 163.116 167.347 162.658 169.18C162.201 171.012 158.471 173.451 158.471 173.451Z" fill="#BABBBB"/>
<path d="M150.593 179.878C150.17 179.784 149.776 179.589 149.444 179.311C149.113 179.032 148.853 178.678 148.688 178.278C148.737 178.247 149.046 178.72 149.572 179.158C150.097 179.596 150.619 179.821 150.593 179.878Z" fill="#9B9D9C"/>
<path d="M151.461 175.28C151.461 175.257 151.602 175.215 151.842 175.246C152.142 175.289 152.424 175.414 152.657 175.607C152.89 175.8 153.066 176.053 153.164 176.339C153.237 176.56 153.225 176.72 153.199 176.72C153.039 176.364 152.811 176.043 152.528 175.775C152.208 175.542 151.846 175.374 151.461 175.28Z" fill="#9B9D9C"/>
<path d="M151.96 177.402C151.903 177.402 151.877 176.834 151.652 176.186C151.427 175.539 151.111 175.063 151.157 175.044C151.491 175.329 151.73 175.711 151.838 176.137C152.009 176.536 152.051 176.978 151.96 177.402Z" fill="#9B9D9C"/>
<path d="M158.212 172.902C158.212 172.921 158.079 172.845 157.942 172.662C157.768 172.419 157.659 172.136 157.626 171.839C157.593 171.542 157.636 171.242 157.751 170.967C157.843 170.761 157.946 170.658 157.965 170.673C157.829 171.038 157.781 171.43 157.824 171.817C157.867 172.204 158 172.576 158.212 172.902Z" fill="#9B9D9C"/>
<path d="M148.661 182.537C148.417 182.593 148.163 182.593 147.918 182.537C147.326 182.433 146.758 182.221 146.242 181.912C145.728 181.61 145.245 181.26 144.798 180.865C144.599 180.719 144.423 180.544 144.276 180.347C144.495 180.457 144.7 180.594 144.886 180.754C145.35 181.113 145.836 181.442 146.341 181.741C146.841 182.037 147.381 182.259 147.945 182.4C148.379 182.492 148.661 182.507 148.661 182.537Z" fill="#9B9D9C"/>
<path d="M150.429 181.448C150.482 181.448 150.486 181.829 150.166 182.145C149.846 182.461 149.458 182.446 149.465 182.392C149.473 182.339 149.766 182.263 150.025 182.011C150.284 181.76 150.372 181.44 150.429 181.448Z" fill="#9B9D9C"/>
<path d="M153.023 179.543C153.046 179.543 153.046 179.646 152.974 179.783C152.874 179.952 152.723 180.085 152.543 180.164C152.365 180.251 152.164 180.28 151.968 180.248C151.816 180.217 151.739 180.156 151.751 180.133C151.762 180.11 152.101 180.164 152.459 179.985C152.818 179.806 152.97 179.524 153.023 179.543Z" fill="#9B9D9C"/>
<path d="M143.872 183.867C143.853 183.916 141.328 182.865 138.234 181.512C135.14 180.16 132.649 179.021 132.687 178.975C132.725 178.929 135.236 179.981 138.329 181.333C141.423 182.686 143.895 183.817 143.872 183.867Z" fill="#9B9D9C"/>
<path d="M21.7157 146.679L29.983 187.265H101.74C102.12 187.265 102.484 187.114 102.753 186.845C103.022 186.577 103.173 186.212 103.173 185.833C103.173 185.644 103.136 185.457 103.065 185.283C102.993 185.109 102.887 184.951 102.754 184.817C102.621 184.684 102.463 184.578 102.289 184.506C102.115 184.433 101.929 184.396 101.74 184.396H87.2934L79.6282 146.638C79.5572 146.285 79.3668 145.968 79.0892 145.74C78.8116 145.511 78.4637 145.386 78.1043 145.384L23.2701 144.797C23.0362 144.795 22.8046 144.845 22.5924 144.944C22.3802 145.042 22.1927 145.187 22.0437 145.367C21.8947 145.548 21.7879 145.759 21.7312 145.986C21.6744 146.213 21.6692 146.45 21.7157 146.679Z" fill="#868687"/>
<path d="M21.7156 146.679L21.6928 146.557C21.6773 146.431 21.6773 146.303 21.6928 146.176C21.7198 145.933 21.8027 145.7 21.9349 145.495C22.0671 145.289 22.245 145.117 22.4547 144.991C22.6004 144.902 22.7601 144.837 22.9272 144.801C23.1134 144.77 23.3024 144.758 23.491 144.767H24.7825L28.0132 144.793L48.7498 144.988L63.2041 145.136L71.3037 145.216L75.5478 145.262L77.7194 145.285C77.9061 145.285 78.0775 145.285 78.2756 145.285C78.4691 145.307 78.6574 145.362 78.8318 145.449C79.1835 145.62 79.462 145.912 79.6166 146.272C79.688 146.449 79.7392 146.635 79.769 146.824L79.8795 147.369C79.9519 147.75 80.0281 148.1 80.1043 148.466C80.2516 149.2 80.4015 149.939 80.5539 150.683C80.8561 152.169 81.1621 153.674 81.472 155.198C82.0917 158.246 82.7267 161.361 83.3769 164.543C84.6684 170.906 86.0171 177.523 87.4 184.354L87.3048 184.278H101.511C101.699 184.271 101.886 184.282 102.071 184.312C102.453 184.394 102.788 184.619 103.009 184.941C103.232 185.261 103.323 185.656 103.264 186.042C103.229 186.276 103.141 186.498 103.005 186.692C102.87 186.886 102.691 187.045 102.483 187.158C102.274 187.27 102.042 187.332 101.805 187.341H63.6727H29.9829H29.9219V187.28C27.3922 174.803 25.3502 164.657 23.9139 157.625C23.2053 154.112 22.6567 151.377 22.2833 149.517C22.1004 148.588 21.9607 147.883 21.8642 147.403C21.769 146.923 21.7271 146.679 21.7271 146.679C21.7271 146.679 21.7842 146.923 21.8833 147.395C21.9823 147.868 22.1347 148.584 22.3252 149.506C22.7062 151.365 23.2738 154.097 23.9977 157.609C25.4378 164.638 27.5141 174.78 30.0705 187.249L29.9943 187.189L63.6842 187.169H101.79C101.994 187.161 102.195 187.108 102.376 187.013C102.556 186.914 102.712 186.775 102.83 186.607C102.948 186.438 103.026 186.245 103.058 186.042C103.107 185.704 103.029 185.36 102.837 185.078C102.642 184.8 102.35 184.605 102.018 184.533C101.847 184.507 101.673 184.497 101.5 184.503H87.2133V184.426C85.8304 177.603 84.4855 170.986 83.1978 164.616C82.5502 161.431 81.9152 158.314 81.2929 155.266L80.3786 150.752C80.23 150.009 80.0776 149.27 79.929 148.538C79.8567 148.157 79.7805 147.803 79.7081 147.441L79.5976 146.893C79.5691 146.716 79.5231 146.542 79.4604 146.374C79.3557 146.134 79.1891 145.925 78.9776 145.77C78.7662 145.615 78.5174 145.518 78.2566 145.491C78.0889 145.491 77.8984 145.491 77.7194 145.491L75.5478 145.464L71.2999 145.418L63.2041 145.323L48.746 145.151L28.0094 144.896L24.7825 144.854L23.491 144.835C23.305 144.824 23.1184 144.834 22.9348 144.866C22.7711 144.899 22.614 144.96 22.47 145.045C22.2645 145.165 22.089 145.33 21.957 145.528C21.8249 145.726 21.7398 145.952 21.708 146.188C21.6929 146.351 21.6954 146.516 21.7156 146.679Z" fill="#868687"/>
<path d="M52.4112 167.622C53.7199 167.622 54.7809 166.561 54.7809 165.252C54.7809 163.943 53.7199 162.883 52.4112 162.883C51.1024 162.883 50.0415 163.943 50.0415 165.252C50.0415 166.561 51.1024 167.622 52.4112 167.622Z" fill="white"/>
<path d="M21.7844 147.019C21.7844 147.019 21.8682 147.019 22.0321 147.019H25.5447L35.8044 147.068L69.6543 147.304L74.5498 147.346H75.7537C75.959 147.339 76.1644 147.351 76.3671 147.384C76.6771 147.447 76.9636 147.595 77.1949 147.811C77.4263 148.027 77.5933 148.302 77.6777 148.607C77.7691 148.988 77.8339 149.369 77.9139 149.75L79.6626 158.566C80.7712 164.186 81.7732 169.233 82.6113 173.497C83.4495 177.76 84.1352 181.181 84.5848 183.562C84.8134 184.747 84.9886 185.669 85.1105 186.301C85.1677 186.61 85.2134 186.85 85.2439 187.018C85.2744 187.185 85.282 187.261 85.282 187.261C85.282 187.261 85.2591 187.181 85.2248 187.021C85.1905 186.861 85.1372 186.618 85.0724 186.309L84.5086 183.593C84.0286 181.211 83.3352 177.779 82.4742 173.539C81.6132 169.298 80.6074 164.231 79.4835 158.616C78.9235 155.808 78.3406 152.859 77.7234 149.804C77.6434 149.423 77.5748 149.042 77.491 148.661C77.3905 148.299 77.1598 147.987 76.8433 147.784C76.6864 147.684 76.5119 147.614 76.329 147.579C76.1377 147.548 75.9436 147.536 75.7499 147.544H74.5498L69.6543 147.506L35.8044 147.209L25.5447 147.095L22.7559 147.019H22.0282H21.7844Z" fill="#868687"/>
<path d="M198.872 150.148C199.981 148.837 200.19 146.917 199.695 145.272C199.2 143.626 198.091 142.224 196.807 141.081C195.296 139.74 193.539 138.705 191.633 138.033C190.896 137.739 190.103 137.609 189.31 137.652C188.912 137.674 188.526 137.793 188.185 137.999C187.845 138.205 187.559 138.491 187.355 138.833C186.81 139.869 187.332 141.119 187.9 142.155C188.894 143.966 190.029 145.696 191.294 147.329C192.315 148.643 193.481 149.938 195.032 150.533C196.582 151.127 198.198 151.032 199.005 149.965" fill="#EBEBEB"/>
<path d="M201.744 161.368C201.768 161.062 201.768 160.755 201.744 160.45C201.71 159.863 201.626 159.01 201.463 157.966C201.262 156.745 200.992 155.537 200.655 154.346C200.257 152.881 199.748 151.448 199.131 150.06C198.082 147.501 196.576 145.154 194.685 143.134C194.358 142.788 194.008 142.463 193.637 142.163C193.477 142.026 193.336 141.892 193.192 141.782L192.788 141.5C192.546 141.317 192.291 141.151 192.026 141.005C191.98 141.066 193.119 141.736 194.555 143.264C196.382 145.301 197.848 147.634 198.891 150.163C199.494 151.543 200.003 152.963 200.415 154.411C200.762 155.591 201.049 156.788 201.276 157.996C201.466 159.029 201.573 159.871 201.657 160.457C201.662 160.763 201.692 161.067 201.744 161.368Z" fill="#E0E0E0"/>
<path d="M194.716 174.199L195.443 184.184H208.271L209.002 174.199H194.716Z" fill="#E0E0E0"/>
<path d="M210.53 170.263H193.477V174.199H210.53V170.263Z" fill="#E0E0E0"/>
<path d="M193.477 183.8V184.894H194.277H210.248V183.8H193.477Z" fill="#EBEBEB"/>
<path d="M195.062 186.814L194.278 184.894H209.639L208.72 186.814H195.062Z" fill="#E0E0E0"/>
<path d="M208.762 177.46C208.762 177.46 208.743 177.495 208.701 177.556L208.511 177.807C208.328 178.04 208.08 178.363 207.749 178.763L207.714 178.805L207.684 178.763L205.863 176.222H205.97L204.16 178.782L204.103 178.862L204.042 178.786L201.897 176.238H202.019C201.985 176.287 201.943 176.337 201.901 176.386L199.996 178.79L199.935 178.87L199.874 178.786C199.222 177.868 198.617 177.007 198.068 176.23H198.171L195.946 178.767L195.904 178.813L195.874 178.76L195.176 177.59L194.997 177.278C194.976 177.243 194.958 177.206 194.944 177.167C194.944 177.167 194.971 177.198 195.02 177.266L195.215 177.567C195.394 177.845 195.641 178.23 195.95 178.71H195.877L198.072 176.142L198.125 176.077L198.175 176.146L200 178.695H199.878L201.783 176.287L201.901 176.138L201.962 176.062L202.023 176.138L204.16 178.695H204.042L205.867 176.15L205.92 176.074L205.973 176.15L207.768 178.714H207.703L208.465 177.78L208.675 177.54C208.7 177.51 208.73 177.484 208.762 177.46Z" fill="#F5F5F5"/>
<path d="M209.178 174.135C209.178 174.176 205.966 174.215 202 174.215C198.034 174.215 194.822 174.176 194.822 174.135C194.822 174.093 198.038 174.055 202 174.055C205.962 174.055 209.178 174.089 209.178 174.135Z" fill="#F5F5F5"/>
<path d="M209.825 185C209.825 185.046 206.336 185.08 202.027 185.08C197.718 185.08 194.224 185.046 194.224 185C194.224 184.955 197.718 184.92 202.027 184.92C206.336 184.92 209.825 184.939 209.825 185Z" fill="#F5F5F5"/>
</g>
</svg>
