<?xml version="1.0" encoding="UTF-8"?>
<svg id="a" data-name="Layer 1" xmlns="http://www.w3.org/2000/svg" xmlns:xlink="http://www.w3.org/1999/xlink" viewBox="0 0 195 195">
  <defs>
    <mask id="b" data-name="mask" x="0" y="0" width="195" height="195" maskUnits="userSpaceOnUse">
      <g id="c" data-name="mask0 892 4122">
        <path d="M195,185c0,5.52-4.48,10-10,10H10c-5.52,0-10-4.48-10-10V10C0,4.48,4.48,0,10,0h175c5.52,0,10,4.48,10,10v175Z" fill="#f9f19a" stroke-width="0"/>
      </g>
    </mask>
  </defs>
  <path d="M195,185c0,5.52-4.48,10-10,10H10c-5.52,0-10-4.48-10-10V10C0,4.48,4.48,0,10,0h175c5.52,0,10,4.48,10,10v175Z" fill="#f9f19a" stroke-width="0"/>
  <g mask="url(#b)">
    <g>
      <path d="M108.24,39.44h.21s0-.05,0-.05c0-.19-.03-.33-.05-.33s-.05.13-.05.33l.05-.05h-.16c-.17-.02-.33,0-.49.06.16.05.33.07.5.05Z" fill="#263238" stroke-width="0"/>
      <path d="M106.76,39.46c.18,0,.33-.03.33-.06,0-.03-.14-.06-.33-.06s-.33.03-.33.06.15.06.33.06Z" fill="#263238" stroke-width="0"/>
      <path d="M105.45,39.46c.18,0,.33-.03.33-.06,0-.03-.15-.06-.33-.06s-.33.03-.33.06.15.06.33.06Z" fill="#263238" stroke-width="0"/>
      <path d="M104.13,39.46c.18,0,.33-.03.33-.06,0-.03-.15-.06-.33-.06s-.33.03-.33.06.14.06.33.06Z" fill="#263238" stroke-width="0"/>
      <path d="M102.83,39.46c.18,0,.33-.03.33-.06,0-.03-.15-.06-.33-.06s-.33.03-.33.06.14.06.33.06Z" fill="#263238" stroke-width="0"/>
      <path d="M101.51,39.46c.18,0,.33-.03.33-.06,0-.03-.14-.06-.33-.06s-.33.03-.33.06.15.06.33.06Z" fill="#263238" stroke-width="0"/>
      <path d="M100.2,39.46c.18,0,.33-.03.33-.06,0-.03-.15-.06-.33-.06s-.33.03-.33.06.15.06.33.06Z" fill="#263238" stroke-width="0"/>
      <path d="M98.89,39.46c.18,0,.33-.03.33-.06,0-.03-.15-.06-.33-.06s-.33.03-.33.06c0,.03.14.06.33.06Z" fill="#263238" stroke-width="0"/>
      <path d="M97.58,39.46c.18,0,.33-.03.33-.06,0-.03-.14-.06-.33-.06s-.33.03-.33.06c0,.03.15.06.33.06Z" fill="#263238" stroke-width="0"/>
      <path d="M96.26,39.46c.18,0,.33-.03.33-.06,0-.03-.15-.06-.33-.06s-.33.03-.33.06.15.06.33.06Z" fill="#263238" stroke-width="0"/>
      <path d="M94.95,39.46c.18,0,.33-.03.33-.06s-.15-.06-.33-.06-.32.03-.32.06.14.06.32.06Z" fill="#263238" stroke-width="0"/>
      <path d="M93.65,39.46c.18,0,.33-.03.33-.06s-.14-.06-.33-.06-.33.03-.33.06.15.06.33.06Z" fill="#263238" stroke-width="0"/>
      <path d="M92.33,39.46c.18,0,.33-.03.33-.06s-.15-.06-.33-.06-.33.03-.33.06.15.06.33.06Z" fill="#263238" stroke-width="0"/>
      <path d="M91.02,39.46c.18,0,.33-.03.33-.06s-.15-.06-.33-.06-.33.03-.33.06.15.06.33.06Z" fill="#263238" stroke-width="0"/>
      <path d="M89.71,39.46c.18,0,.33-.03.33-.06s-.15-.06-.33-.06-.33.03-.33.06.14.06.33.06Z" fill="#263238" stroke-width="0"/>
      <path d="M88.4,39.46c.18,0,.33-.03.33-.06s-.14-.06-.33-.06-.33.03-.33.06.15.06.33.06Z" fill="#263238" stroke-width="0"/>
      <path d="M87.08,39.46c.18,0,.33-.03.33-.06s-.15-.06-.33-.06-.33.03-.33.06.15.06.33.06Z" fill="#263238" stroke-width="0"/>
      <path d="M85.77,39.46c.18,0,.33-.03.33-.06s-.15-.06-.33-.06-.32.03-.32.06.14.06.32.06Z" fill="#263238" stroke-width="0"/>
      <path d="M84.98,38.82c0,.18.03.33.06.33s.06-.14.06-.33c0-.18-.03-.33-.06-.33s-.06.15-.06.33Z" fill="#263238" stroke-width="0"/>
      <path d="M84.98,37.5c0,.18.03.33.06.33s.06-.15.06-.33c0-.18-.03-.33-.06-.33s-.06.15-.06.33Z" fill="#263238" stroke-width="0"/>
      <path d="M84.98,36.2c0,.18.03.33.06.33s.06-.15.06-.33c0-.18-.03-.33-.06-.33s-.06.14-.06.33Z" fill="#263238" stroke-width="0"/>
      <path d="M84.98,34.89c0,.18.03.33.06.33s.06-.14.06-.33c0-.18-.03-.33-.06-.33s-.06.15-.06.33Z" fill="#263238" stroke-width="0"/>
      <path d="M84.98,33.58c0,.18.03.33.06.33s.06-.15.06-.33c0-.18-.03-.33-.06-.33s-.06.15-.06.33Z" fill="#263238" stroke-width="0"/>
      <path d="M84.98,32.26c0,.18.03.33.06.33s.06-.15.06-.33c0-.18-.03-.33-.06-.33s-.06.15-.06.33Z" fill="#263238" stroke-width="0"/>
      <path d="M84.98,30.95c0,.18.03.33.06.33s.06-.15.06-.33c0-.18-.03-.33-.06-.33s-.06.14-.06.33Z" fill="#263238" stroke-width="0"/>
      <path d="M84.98,29.64c0,.18.03.33.06.33s.06-.14.06-.33c0-.18-.03-.33-.06-.33s-.06.15-.06.33Z" fill="#263238" stroke-width="0"/>
      <path d="M84.98,28.32c0,.18.03.33.06.33s.06-.15.06-.33c0-.18-.03-.33-.06-.33s-.06.15-.06.33Z" fill="#263238" stroke-width="0"/>
      <path d="M84.98,27.02c0,.18.03.33.06.33s.06-.15.06-.33c0-.18-.03-.33-.06-.33s-.06.14-.06.33Z" fill="#263238" stroke-width="0"/>
      <path d="M84.98,25.71c0,.18.03.33.06.33s.06-.14.06-.33-.03-.33-.06-.33-.06.15-.06.33Z" fill="#263238" stroke-width="0"/>
      <path d="M84.98,24.4c0,.18.03.33.06.33s.06-.15.06-.33c0-.18-.03-.33-.06-.33s-.06.15-.06.33Z" fill="#263238" stroke-width="0"/>
      <path d="M84.98,23.08c0,.18.03.33.06.33s.06-.15.06-.33c0-.18-.03-.33-.06-.33s-.06.14-.06.33Z" fill="#263238" stroke-width="0"/>
      <path d="M84.98,21.77c0,.18.03.33.06.33s.06-.14.06-.33c0-.18-.03-.33-.06-.33s-.06.15-.06.33Z" fill="#263238" stroke-width="0"/>
      <path d="M84.98,20.46c0,.18.03.33.06.33s.06-.14.06-.33c0-.18-.03-.33-.06-.33s-.06.15-.06.33Z" fill="#263238" stroke-width="0"/>
      <path d="M84.98,19.13c0,.18.03.33.06.33s.06-.15.06-.33c0-.18-.03-.33-.06-.33s-.06.15-.06.33Z" fill="#263238" stroke-width="0"/>
      <path d="M84.98,17.84c0,.18.03.33.06.33s.06-.15.06-.33c0-.18-.03-.33-.06-.33s-.06.14-.06.33Z" fill="#263238" stroke-width="0"/>
      <path d="M84.98,16.53c0,.18.03.33.06.33s.06-.14.06-.33c0-.18-.03-.33-.06-.33s-.06.15-.06.33Z" fill="#263238" stroke-width="0"/>
      <path d="M85.85,15.98c-.18,0-.32.02-.32.05s.14.06.32.06.33-.02.33-.06-.15-.05-.33-.05Z" fill="#263238" stroke-width="0"/>
      <path d="M87.17,15.98c-.18,0-.33.02-.33.05s.15.06.33.06.33-.02.33-.06-.15-.05-.33-.05Z" fill="#263238" stroke-width="0"/>
      <path d="M88.48,15.98c-.18,0-.33.02-.33.05s.15.06.33.06.33-.02.33-.06-.14-.05-.33-.05Z" fill="#263238" stroke-width="0"/>
      <path d="M89.79,15.98c-.18,0-.33.02-.33.05s.14.06.33.06.33-.02.33-.06-.15-.05-.33-.05Z" fill="#263238" stroke-width="0"/>
      <path d="M91.1,15.98c-.18,0-.33.02-.33.05s.15.06.33.06.33-.02.33-.06-.15-.05-.33-.05Z" fill="#263238" stroke-width="0"/>
      <path d="M92.41,15.98c-.18,0-.33.02-.33.05s.15.06.33.06.32-.02.32-.06-.14-.05-.32-.05Z" fill="#263238" stroke-width="0"/>
      <path d="M93.72,15.98c-.18,0-.32.02-.32.05s.14.06.32.06.33-.02.33-.06-.15-.05-.33-.05Z" fill="#263238" stroke-width="0"/>
      <path d="M95.04,15.98c-.18,0-.33.02-.33.05s.15.06.33.06.33-.02.33-.06-.15-.05-.33-.05Z" fill="#263238" stroke-width="0"/>
      <path d="M96.35,15.98c-.18,0-.33.02-.33.05s.15.06.33.06.33-.02.33-.06c0-.03-.15-.05-.33-.05Z" fill="#263238" stroke-width="0"/>
      <path d="M97.66,15.98c-.18,0-.33.02-.33.05,0,.03.15.06.33.06s.33-.02.33-.06c0-.03-.14-.05-.33-.05Z" fill="#263238" stroke-width="0"/>
      <path d="M98.97,15.98c-.18,0-.33.02-.33.05,0,.03.14.06.33.06s.33-.02.33-.06-.15-.05-.33-.05Z" fill="#263238" stroke-width="0"/>
      <path d="M100.28,15.98c-.18,0-.33.02-.33.05s.15.06.33.06.33-.02.33-.06-.15-.05-.33-.05Z" fill="#263238" stroke-width="0"/>
      <path d="M101.6,15.98c-.18,0-.33.02-.33.05s.15.06.33.06.33-.02.33-.06-.14-.05-.33-.05Z" fill="#263238" stroke-width="0"/>
      <path d="M102.9,15.98c-.18,0-.33.02-.33.05s.14.06.33.06.33-.02.33-.06-.15-.05-.33-.05Z" fill="#263238" stroke-width="0"/>
      <path d="M104.22,15.98c-.18,0-.33.02-.33.05s.15.06.33.06.33-.02.33-.06-.15-.05-.33-.05Z" fill="#263238" stroke-width="0"/>
      <path d="M105.53,15.98c-.18,0-.33.02-.33.05s.15.06.33.06.33-.02.33-.06-.14-.05-.33-.05Z" fill="#263238" stroke-width="0"/>
      <path d="M106.84,15.98c-.18,0-.33.02-.33.05s.14.06.33.06.33-.02.33-.06-.15-.05-.33-.05Z" fill="#263238" stroke-width="0"/>
      <path d="M108.44,16.01v-.03h-.04c-.08-.01-.16-.02-.24-.02-.18,0-.33.02-.33.05s.15.06.33.06c.08,0,.16,0,.24,0l-.04-.04c.01.05.04.08.04.08.02,0,.03-.04.04-.11Z" fill="#263238" stroke-width="0"/>
      <path d="M108.45,17.1c0-.18-.03-.33-.06-.33s-.06.14-.06.33c0,.18.03.33.06.33s.06-.15.06-.33Z" fill="#263238" stroke-width="0"/>
      <path d="M108.45,18.41c0-.18-.03-.33-.06-.33s-.06.15-.06.33.03.33.06.33.06-.15.06-.33Z" fill="#263238" stroke-width="0"/>
      <path d="M108.45,19.73c0-.18-.03-.33-.06-.33s-.06.15-.06.33c0,.18.03.33.06.33s.06-.14.06-.33Z" fill="#263238" stroke-width="0"/>
      <path d="M108.45,21.04c0-.18-.03-.33-.06-.33s-.06.14-.06.33c0,.18.03.33.06.33s.06-.15.06-.33Z" fill="#263238" stroke-width="0"/>
      <path d="M108.45,22.35c0-.18-.03-.33-.06-.33s-.06.14-.06.33.03.33.06.33.06-.15.06-.33Z" fill="#263238" stroke-width="0"/>
      <path d="M108.45,23.66c0-.18-.03-.33-.06-.33s-.06.15-.06.33c0,.18.03.33.06.33s.06-.15.06-.33Z" fill="#263238" stroke-width="0"/>
      <path d="M108.45,24.99c0-.18-.03-.33-.06-.33s-.06.15-.06.33.03.33.06.33.06-.14.06-.33Z" fill="#263238" stroke-width="0"/>
      <path d="M108.34,26.28c0-.18.03-.33.06-.33s.06.15.06.33-.03.33-.06.33-.06-.15-.06-.33Z" fill="#263238" stroke-width="0"/>
      <path d="M108.45,27.6c0-.18-.03-.33-.06-.33s-.06.15-.06.33c0,.18.03.33.06.33s.06-.15.06-.33Z" fill="#263238" stroke-width="0"/>
      <path d="M108.45,28.91c0-.18-.03-.33-.06-.33s-.06.15-.06.33.03.33.06.33.06-.14.06-.33Z" fill="#263238" stroke-width="0"/>
      <path d="M108.34,30.22c0-.18.03-.33.06-.33s.06.15.06.33c0,.18-.03.33-.06.33s-.06-.15-.06-.33Z" fill="#263238" stroke-width="0"/>
      <path d="M108.45,31.53c0-.18-.03-.33-.06-.33s-.06.15-.06.33c0,.18.03.33.06.33s.06-.15.06-.33Z" fill="#263238" stroke-width="0"/>
      <path d="M108.45,32.84c0-.18-.03-.33-.06-.33s-.06.15-.06.33.03.33.06.33.06-.14.06-.33Z" fill="#263238" stroke-width="0"/>
      <path d="M108.45,34.17c0-.18-.03-.33-.06-.33s-.06.15-.06.33.03.33.06.33.06-.14.06-.33Z" fill="#263238" stroke-width="0"/>
      <path d="M108.45,35.46c0-.18-.03-.33-.06-.33s-.06.14-.06.33.03.33.06.33.06-.15.06-.33Z" fill="#263238" stroke-width="0"/>
      <path d="M108.34,36.78c0-.18.03-.33.06-.33s.06.15.06.33-.03.33-.06.33-.06-.15-.06-.33Z" fill="#263238" stroke-width="0"/>
      <path d="M108.45,38.09c0-.18-.03-.33-.06-.33s-.06.15-.06.33c0,.18.03.33.06.33s.06-.14.06-.33Z" fill="#263238" stroke-width="0"/>
      <path d="M109.26,40.03h-1.73v-1.73h1.73v1.73Z" fill="#263238" stroke-width="0"/>
      <path d="M85.9,40.26h-1.73v-1.73h1.73v1.73Z" fill="#263238" stroke-width="0"/>
      <path d="M109.26,16.73h-1.73v-1.73h1.73v1.73Z" fill="#263238" stroke-width="0"/>
      <path d="M85.9,16.9h-1.73v-1.73h1.73v1.73Z" fill="#263238" stroke-width="0"/>
      <path d="M64.28,179.53c.33,0,.6-.04.6-.1s-.27-.1-.6-.1-.59.05-.59.1.26.1.59.1Z" fill="#263238" stroke-width="0"/>
      <path d="M61.9,179.53c.33,0,.6-.04.6-.1s-.27-.1-.6-.1-.6.05-.6.1.27.1.6.1Z" fill="#263238" stroke-width="0"/>
      <path d="M59.51,179.53c.33,0,.6-.04.6-.1s-.27-.1-.6-.1-.6.05-.6.1.27.1.6.1Z" fill="#263238" stroke-width="0"/>
      <path d="M57.12,179.53c.33,0,.6-.04.6-.1s-.27-.1-.6-.1-.6.05-.6.1.27.1.6.1Z" fill="#263238" stroke-width="0"/>
      <path d="M54.74,179.53c.33,0,.6-.04.6-.1s-.27-.1-.6-.1-.6.05-.6.1.27.1.6.1Z" fill="#263238" stroke-width="0"/>
      <path d="M52.35,179.53c.33,0,.6-.04.6-.1s-.27-.1-.6-.1-.6.05-.6.1.27.1.6.1Z" fill="#263238" stroke-width="0"/>
      <path d="M49.96,179.53c.33,0,.6-.04.6-.1s-.27-.1-.6-.1-.6.05-.6.1.27.1.6.1Z" fill="#263238" stroke-width="0"/>
      <path d="M47.57,179.53c.33,0,.6-.04.6-.1s-.27-.1-.6-.1-.59.05-.59.1.26.1.59.1Z" fill="#263238" stroke-width="0"/>
      <path d="M45.19,179.53c.33,0,.6-.04.6-.1s-.27-.1-.6-.1-.6.05-.6.1.27.1.6.1Z" fill="#263238" stroke-width="0"/>
      <path d="M42.8,179.53c.33,0,.6-.04.6-.1s-.27-.1-.6-.1-.6.05-.6.1.27.1.6.1Z" fill="#263238" stroke-width="0"/>
      <path d="M40.42,179.53c.33,0,.6-.04.6-.1s-.27-.1-.6-.1-.6.05-.6.1.27.1.6.1Z" fill="#263238" stroke-width="0"/>
      <path d="M38.04,179.53c.33,0,.6-.04.6-.1s-.27-.1-.6-.1-.6.05-.6.1.27.1.6.1Z" fill="#263238" stroke-width="0"/>
      <path d="M35.63,179.33v.2s.1,0,.1,0c.29,0,.51-.05.51-.1s-.22-.1-.51-.1l.1.1v-.09c0-.33-.04-.59-.1-.59s-.1.26-.1.59Z" fill="#263238" stroke-width="0"/>
      <path d="M35.63,176.95c0,.33.05.6.1.6s.1-.27.1-.6-.05-.6-.1-.6-.1.27-.1.6Z" fill="#263238" stroke-width="0"/>
      <path d="M35.63,174.56c0,.33.05.6.1.6s.1-.27.1-.6-.05-.6-.1-.6-.1.27-.1.6Z" fill="#263238" stroke-width="0"/>
      <path d="M35.63,172.18c0,.33.05.6.1.6s.1-.27.1-.6-.05-.6-.1-.6-.1.27-.1.6Z" fill="#263238" stroke-width="0"/>
      <path d="M35.63,169.79c0,.33.05.6.1.6s.1-.27.1-.6-.05-.6-.1-.6-.1.27-.1.6Z" fill="#263238" stroke-width="0"/>
      <path d="M35.63,167.4c0,.33.05.6.1.6s.1-.27.1-.6-.05-.6-.1-.6-.1.27-.1.6Z" fill="#263238" stroke-width="0"/>
      <path d="M35.63,165.01c0,.33.05.6.1.6s.1-.27.1-.6-.05-.6-.1-.6-.1.27-.1.6Z" fill="#263238" stroke-width="0"/>
      <path d="M35.63,162.63c0,.33.05.59.1.59s.1-.26.1-.59c0-.33-.05-.6-.1-.6s-.1.27-.1.6Z" fill="#263238" stroke-width="0"/>
      <path d="M35.63,160.25c0,.33.05.6.1.6s.1-.27.1-.6c0-.33-.05-.6-.1-.6s-.1.27-.1.6Z" fill="#263238" stroke-width="0"/>
      <path d="M35.63,157.85c0,.33.05.6.1.6s.1-.27.1-.6c0-.33-.05-.59-.1-.59s-.1.26-.1.59Z" fill="#263238" stroke-width="0"/>
      <path d="M35.63,155.47c0,.33.05.6.1.6s.1-.27.1-.6-.05-.6-.1-.6-.1.27-.1.6Z" fill="#263238" stroke-width="0"/>
      <path d="M35.63,153.08c0,.33.05.6.1.6s.1-.27.1-.6-.05-.6-.1-.6-.1.27-.1.6Z" fill="#263238" stroke-width="0"/>
      <path d="M35.72,150.2h-.06s0,.08,0,.08c-.02.14-.03.28-.03.42,0,.33.05.6.1.6s.1-.27.1-.6c0-.14,0-.28-.03-.42l-.07.07c.11-.02.18-.05.18-.08,0-.03-.07-.05-.19-.08Z" fill="#263238" stroke-width="0"/>
      <path d="M37.7,150.17c-.33,0-.6.05-.6.1,0,.06.27.11.6.11s.6-.05.6-.11c0-.05-.27-.1-.6-.1Z" fill="#263238" stroke-width="0"/>
      <path d="M40.09,150.17c-.33,0-.6.05-.6.1,0,.06.27.11.6.11s.6-.05.6-.11c0-.05-.27-.1-.6-.1Z" fill="#263238" stroke-width="0"/>
      <path d="M42.47,150.17c-.33,0-.59.05-.59.1,0,.06.26.11.59.11s.6-.05.6-.11c0-.05-.27-.1-.6-.1Z" fill="#263238" stroke-width="0"/>
      <path d="M44.88,150.17c-.33,0-.6.05-.6.1,0,.06.27.11.6.11s.6-.05.6-.11c0-.05-.27-.1-.6-.1Z" fill="#263238" stroke-width="0"/>
      <path d="M47.25,150.17c-.33,0-.6.05-.6.1,0,.06.27.11.6.11s.6-.05.6-.11c0-.05-.27-.1-.6-.1Z" fill="#263238" stroke-width="0"/>
      <path d="M49.63,150.17c-.33,0-.6.05-.6.1,0,.06.27.11.6.11s.6-.05.6-.11c0-.05-.27-.1-.6-.1Z" fill="#263238" stroke-width="0"/>
      <path d="M52.02,150.17c-.33,0-.6.05-.6.1,0,.06.27.11.6.11s.6-.05.6-.11c0-.05-.27-.1-.6-.1Z" fill="#263238" stroke-width="0"/>
      <path d="M54.41,150.17c-.33,0-.6.05-.6.1,0,.06.27.11.6.11s.6-.05.6-.11c0-.05-.27-.1-.6-.1Z" fill="#263238" stroke-width="0"/>
      <path d="M56.79,150.17c-.33,0-.6.05-.6.1,0,.06.27.11.6.11s.6-.05.6-.11c0-.05-.27-.1-.6-.1Z" fill="#263238" stroke-width="0"/>
      <path d="M59.18,150.17c-.33,0-.59.05-.59.1,0,.06.26.11.59.11s.6-.05.6-.11c0-.05-.27-.1-.6-.1Z" fill="#263238" stroke-width="0"/>
      <path d="M61.57,150.17c-.33,0-.6.05-.6.1,0,.06.27.11.6.11s.6-.05.6-.11c0-.05-.27-.1-.6-.1Z" fill="#263238" stroke-width="0"/>
      <path d="M63.96,150.17c-.33,0-.6.05-.6.1,0,.06.27.11.6.11s.59-.05.59-.11c0-.05-.26-.1-.59-.1Z" fill="#263238" stroke-width="0"/>
      <path d="M64.98,151.74c0-.33-.05-.6-.1-.6s-.1.27-.1.6.05.6.1.6.1-.27.1-.6Z" fill="#263238" stroke-width="0"/>
      <path d="M64.98,154.13c0-.33-.05-.6-.1-.6s-.1.27-.1.6c0,.33.05.6.1.6s.1-.27.1-.6Z" fill="#263238" stroke-width="0"/>
      <path d="M64.98,156.51c0-.33-.05-.59-.1-.59s-.1.26-.1.59c0,.33.05.6.1.6s.1-.27.1-.6Z" fill="#263238" stroke-width="0"/>
      <path d="M64.98,158.9c0-.33-.05-.6-.1-.6s-.1.27-.1.6c0,.33.05.6.1.6s.1-.27.1-.6Z" fill="#263238" stroke-width="0"/>
      <path d="M64.98,161.29c0-.33-.05-.6-.1-.6s-.1.27-.1.6.05.59.1.59.1-.26.1-.59Z" fill="#263238" stroke-width="0"/>
      <path d="M64.98,163.67c0-.33-.05-.6-.1-.6s-.1.27-.1.6.05.6.1.6.1-.27.1-.6Z" fill="#263238" stroke-width="0"/>
      <path d="M64.98,166.06c0-.33-.05-.6-.1-.6s-.1.27-.1.6.05.6.1.6.1-.27.1-.6Z" fill="#263238" stroke-width="0"/>
      <path d="M64.98,168.44c0-.33-.05-.6-.1-.6s-.1.27-.1.6.05.6.1.6.1-.27.1-.6Z" fill="#263238" stroke-width="0"/>
      <path d="M64.98,170.83c0-.33-.05-.6-.1-.6s-.1.27-.1.6.05.6.1.6.1-.27.1-.6Z" fill="#263238" stroke-width="0"/>
      <path d="M64.98,173.21c0-.33-.05-.59-.1-.59s-.1.26-.1.59c0,.33.05.6.1.6s.1-.27.1-.6Z" fill="#263238" stroke-width="0"/>
      <path d="M64.98,175.6c0-.33-.05-.6-.1-.6s-.1.27-.1.6.05.6.1.6.1-.27.1-.6Z" fill="#263238" stroke-width="0"/>
      <path d="M64.98,177.99c0-.33-.05-.6-.1-.6s-.1.27-.1.6.05.59.1.59.1-.26.1-.59Z" fill="#263238" stroke-width="0"/>
      <path d="M65.96,180.21h-2.16v-2.16h2.16v2.16Z" fill="#263238" stroke-width="0"/>
      <path d="M36.81,180.5h-2.16v-2.16h2.16v2.16Z" fill="#263238" stroke-width="0"/>
      <path d="M65.96,151.15h-2.16v-2.16h2.16v2.16Z" fill="#263238" stroke-width="0"/>
      <path d="M36.81,151.36h-2.16v-2.16h2.16v2.16Z" fill="#263238" stroke-width="0"/>
      <path d="M52.39,155.07c-5.22,2.33-10.25,2.19-15.76.68-5.51-1.5-10.52-4.67-14.54-8.78-1.15-1.18-2.25-2.46-2.85-4-.6-1.54-.65-3.38.24-4.77,1.36-2.11,4.33-2.48,6.72-1.76,1.27.38,2.49,1,3.8,1.15,1.32.15,2.85-.34,3.37-1.57.52-1.23-.19-2.71-1.25-3.51-1.06-.8-2.4-1.1-3.67-1.48-3.57-1.04-6.94-2.68-9.95-4.85-1.5-1.09-3.07-2.79-2.5-4.57.43-1.28,1.8-1.96,3.1-2.21,1.3-.25,2.68-.21,3.91-.72,1.08-.44,2.07-1.64,1.63-2.74-.26-.61-.85-.98-1.41-1.32-3.11-1.89-5.93-4.23-8.37-6.94-1.65-1.82-3.21-4.15-2.76-6.56.46-2.41,2.93-4.1,5.36-4.12,2.43-.02,4.71,1.29,6.43,3.04,1.72,1.75,2.95,3.92,4.21,6.02,1.26,2.09,2.6,4.21,4.45,5.79.54.46,1.26.89,1.91.65.66-.24.92-1.04.92-1.74,0-.7-.19-1.41-.1-2.11.22-1.68,2.15-2.75,3.78-2.41,1.63.34,2.9,1.75,3.54,3.31.64,1.56.75,3.29.86,4.98.2,3.15.4,6.3.6,9.45.11,1.69.41,3.7,1.95,4.41,1.09.52,2.4.08,3.44-.56,1.6-.98,2.89-2.4,3.72-4.08.63-1.26,1.07-2.76,2.3-3.44,1.47-.82,3.43.06,4.34,1.5.91,1.44.85,3.24,1.03,4.93,1.07,10.16-.12,21.61-8.42,28.32" fill="#f5f5f5" stroke-width="0"/>
      <path d="M50.98,155.88c-.67-3.99-.04-1.96-1.91-6.96-2.09-5.41-4.48-10.69-7.16-15.83l-2.09-4.06c-.69-1.34-1.36-2.64-2.1-3.89-1.43-2.39-2.99-4.7-4.67-6.93-1.6-2.12-3.18-4.13-4.68-5.94-1.5-1.81-2.93-3.5-4.3-4.98-2.15-2.34-4.47-4.51-6.94-6.51-.89-.71-1.57-1.24-2.04-1.6l-.53-.38c-.06-.04-.12-.09-.18-.15.07.04.13.08.2.12l.55.38c.48.34,1.19.86,2.07,1.55,2.51,1.96,4.86,4.11,7.02,6.44,1.38,1.47,2.83,3.15,4.34,4.98,1.51,1.83,3.11,3.8,4.71,5.94,1.7,2.23,3.27,4.54,4.71,6.94.75,1.25,1.43,2.57,2.12,3.91l2.11,4.07c2.69,5.15,5.07,10.45,7.15,15.87,1.87,5.02,1.22,3.02,1.87,7.03" fill="#263238" stroke-width="0"/>
      <path d="M37.88,124.26c.02-.54.05-1.21.07-2.01.06-1.77.12-4.04.21-6.64.09-2.6.24-4.95.44-6.64.1-.85.2-1.53.29-2,.03-.25.08-.49.16-.72.02.25,0,.5-.04.74-.05.47-.12,1.16-.19,2-.15,1.69-.26,4.04-.35,6.63-.09,2.59-.17,4.94-.29,6.64-.06.86-.12,1.54-.18,2.01-.01.25-.05.5-.12.74-.03-.25-.03-.5,0-.74Z" fill="#263238" stroke-width="0"/>
      <path d="M16.79,122.4c.56-.03,1.37-.05,2.38-.03,2.62.04,5.24.22,7.84.54,3.05.36,5.79.84,7.76,1.28.96.21,1.76.41,2.3.57.29.06.57.15.83.27-.29-.03-.58-.08-.86-.15-.55-.11-1.34-.28-2.33-.47-1.97-.38-4.71-.83-7.75-1.18-3.04-.36-5.81-.56-7.81-.63-1-.05-1.82-.07-2.37-.07-.3,0-.59-.01-.88-.06.3-.05.6-.07.9-.06Z" fill="#263238" stroke-width="0"/>
      <path d="M49.11,148.18c.07-.22.16-.5.26-.83.25-.77.57-1.81.98-3.06.82-2.58,1.88-6.14,3.04-10.12,1.16-3.98,2.25-7.54,3.12-10.1.44-1.28.8-2.31,1.07-3.02.13-.32.23-.59.32-.81.03-.1.07-.19.13-.28-.01.1-.03.2-.07.3-.07.23-.16.5-.26.83-.24.76-.6,1.81-.98,3.06-.82,2.58-1.88,6.15-3.04,10.12-1.16,3.97-2.25,7.54-3.13,10.1-.44,1.28-.8,2.31-1.07,3.02l-.32.81c-.03.1-.08.19-.13.28,0-.1.03-.2.07-.3Z" fill="#263238" stroke-width="0"/>
      <path d="M19.83,141.22l.88.18c.75.15,1.84.38,3.18.69,2.68.61,6.37,1.55,10.43,2.6,4.06,1.06,7.72,2.02,10.4,2.68l3.16.76.86.22c.1.02.2.05.29.1-.1,0-.21-.01-.31-.04l-.87-.16c-.75-.15-1.84-.38-3.18-.69-2.68-.61-6.37-1.55-10.43-2.6-4.06-1.06-7.72-2.02-10.4-2.68l-3.16-.79-.86-.22c-.11-.01-.21-.04-.31-.09.1,0,.21,0,.31.04Z" fill="#263238" stroke-width="0"/>
      <path d="M176.86,108.75c-2.05-1.68-6.09,2.66-7.38,5.5-.82,1.79-2.19,5.42-1.07,8.57,2.76-1.19,5.73-2.98,7.49-5.42.95-1.24,1.61-2.68,1.91-4.21.15-.76.14-1.55-.02-2.31-.16-.76-.48-1.48-.92-2.12" fill="#f5f5f5" stroke-width="0"/>
      <path d="M168.56,128.56c1.78,1.86,4.29,2.21,6.87,2.09.76,0,1.5-.2,2.15-.58.32-.19.59-.47.77-.8.18-.33.27-.7.26-1.08-.08-.8-.72-1.43-1.39-1.88-.72-.5-1.53-.85-2.38-1.03-.85-.18-1.74-.19-2.59-.03-.85.18-1.64.58-2.29,1.16-.65.58-1.13,1.32-1.4,2.15" fill="#f5f5f5" stroke-width="0"/>
      <path d="M163.98,131.76c.51-.49,1.07-.93,1.66-1.31.72-.49,1.47-.93,2.24-1.34,1.4-.72,2.95-1.12,4.52-1.17,1.21-.01,1.95.18,1.96.15,0-.02-.17-.09-.5-.19-.48-.12-.96-.19-1.45-.2-1.63-.02-3.23.36-4.68,1.11-.78.41-1.54.87-2.26,1.38-.61.4-1.16.87-1.66,1.4-.47.47-.89.98-1.26,1.53.51-.42.98-.88,1.43-1.36Z" fill="#263238" stroke-width="0"/>
      <path d="M173.57,113.18l-1.31,2.4c-1.13,2.08-2.61,4.85-4.31,7.93-1.71,3.08-3.31,5.85-4.46,7.85l-1.38,2.37c-.18.28-.34.58-.47.89.22-.26.41-.53.58-.82.36-.53.86-1.31,1.47-2.3,1.22-1.97,2.85-4.72,4.55-7.81,1.71-3.09,3.18-5.92,4.23-7.98.52-1.03.94-1.87,1.22-2.45.16-.29.28-.6.38-.92-.19.27-.36.55-.5.85Z" fill="#263238" stroke-width="0"/>
      <path d="M164.52,127.9c-1.81-.72-3.37-1.97-4.47-3.58-1.1-1.61-1.71-3.51-1.74-5.46,0-.93.28-2.04,1.15-2.37.87-.33,1.8.32,2.43,1,1.24,1.36,2.13,2.99,2.62,4.76.48,1.77.53,3.63.15,5.43" fill="#f5f5f5" stroke-width="0"/>
      <path d="M162.45,121.9c.8,1.34,1.38,2.8,1.72,4.32.16.84.19,1.69.09,2.54-.09.69-.27,1.37-.52,2.02-.44,1.11-.84,1.75-.82,1.76.02.01.14-.13.33-.41.27-.4.51-.82.71-1.26.3-.66.5-1.35.61-2.07.12-.88.1-1.77-.07-2.64-.35-1.57-.98-3.06-1.86-4.4-.33-.51-.61-.93-.82-1.18-.21-.25-.33-.38-.35-.38.3.59.62,1.15.98,1.7Z" fill="#263238" stroke-width="0"/>
      <path d="M179.18,101.91c.39,0,.72-.05.72-.12s-.32-.13-.72-.13-.72.06-.72.13.32.12.72.12Z" fill="#263238" stroke-width="0"/>
      <path d="M176.32,101.91c.39,0,.72-.05.72-.12s-.32-.13-.72-.13-.72.06-.72.13.32.12.72.12Z" fill="#263238" stroke-width="0"/>
      <path d="M173.46,101.91c.39,0,.72-.05.72-.12s-.32-.13-.72-.13-.72.06-.72.13.32.12.72.12Z" fill="#263238" stroke-width="0"/>
      <path d="M170.6,101.91c.39,0,.72-.05.72-.12s-.32-.13-.72-.13-.71.06-.71.13.32.12.71.12Z" fill="#263238" stroke-width="0"/>
      <path d="M167.74,101.91c.39,0,.71-.05.71-.12s-.31-.13-.71-.13-.72.06-.72.13.32.12.72.12Z" fill="#263238" stroke-width="0"/>
      <path d="M164.88,101.91c.39,0,.71-.05.71-.12s-.32-.13-.71-.13-.72.06-.72.13.32.12.72.12Z" fill="#263238" stroke-width="0"/>
      <path d="M162.02,101.91c.39,0,.72-.05.72-.12s-.32-.13-.72-.13-.72.06-.72.13.32.12.72.12Z" fill="#263238" stroke-width="0"/>
      <path d="M159.17,101.91c.39,0,.72-.05.72-.12s-.32-.13-.72-.13-.72.06-.72.13.32.12.72.12Z" fill="#263238" stroke-width="0"/>
      <path d="M156.31,101.91c.39,0,.72-.05.72-.12s-.32-.13-.72-.13-.71.06-.71.13.32.12.71.12Z" fill="#263238" stroke-width="0"/>
      <path d="M153.45,101.91c.4,0,.72-.05.72-.12s-.32-.13-.72-.13-.71.06-.71.13.31.12.71.12Z" fill="#263238" stroke-width="0"/>
      <path d="M150.59,101.91c.39,0,.71-.05.71-.12s-.31-.13-.71-.13-.72.06-.72.13.32.12.72.12Z" fill="#263238" stroke-width="0"/>
      <path d="M147.73,101.91c.39,0,.71-.05.71-.12s-.32-.13-.71-.13-.72.06-.72.13.32.12.72.12Z" fill="#263238" stroke-width="0"/>
      <path d="M144.86,101.68v.23s.12,0,.12,0c.34-.01.61-.06.61-.12s-.26-.12-.61-.12l.12.12v-.11c0-.39-.05-.72-.12-.72-.07,0-.13.32-.12.72Z" fill="#263238" stroke-width="0"/>
      <path d="M144.86,98.82c0,.39.05.72.12.72s.12-.32.12-.72c0-.39-.05-.72-.12-.72-.07,0-.12.32-.12.72Z" fill="#263238" stroke-width="0"/>
      <path d="M144.86,95.96c0,.39.05.72.12.72s.12-.32.12-.72-.05-.72-.12-.72c-.07,0-.12.32-.12.72Z" fill="#263238" stroke-width="0"/>
      <path d="M144.86,93.1c0,.39.06.72.12.72s.12-.32.12-.72c0-.39-.05-.72-.12-.72-.07,0-.12.32-.12.72Z" fill="#263238" stroke-width="0"/>
      <path d="M144.86,90.24c0,.39.05.72.12.72s.12-.32.12-.72c0-.39-.05-.71-.12-.71-.07,0-.12.32-.12.71Z" fill="#263238" stroke-width="0"/>
      <path d="M144.86,87.39c0,.39.05.71.12.71s.12-.31.12-.71-.05-.72-.12-.72c-.07,0-.12.32-.12.72Z" fill="#263238" stroke-width="0"/>
      <path d="M144.86,84.53c0,.39.05.71.12.71s.12-.32.12-.71-.05-.72-.12-.72c-.07,0-.12.32-.12.72Z" fill="#263238" stroke-width="0"/>
      <path d="M144.86,81.67c0,.39.05.72.12.72s.12-.32.12-.72c0-.39-.05-.72-.12-.72-.07,0-.12.32-.12.72Z" fill="#263238" stroke-width="0"/>
      <path d="M144.86,78.81c0,.39.05.72.12.72s.12-.32.12-.72c0-.39-.05-.72-.12-.72-.07,0-.12.32-.12.72Z" fill="#263238" stroke-width="0"/>
      <path d="M144.86,75.95c0,.39.05.72.12.72s.12-.32.12-.72-.05-.71-.12-.71c-.07,0-.12.32-.12.71Z" fill="#263238" stroke-width="0"/>
      <path d="M144.86,73.1c0,.4.05.72.12.72s.12-.32.12-.72-.05-.71-.12-.71c-.07,0-.12.31-.12.71Z" fill="#263238" stroke-width="0"/>
      <path d="M144.86,70.24c0,.39.05.71.12.71s.12-.32.12-.71c0-.39-.05-.72-.12-.72-.07,0-.12.32-.12.72Z" fill="#263238" stroke-width="0"/>
      <path d="M144.97,66.78h-.07s0,.1,0,.1c-.03.17-.04.33-.03.5,0,.39.05.72.12.72s.12-.33.12-.72c0-.17,0-.34-.03-.5l-.09.09c.13-.02.21-.05.21-.09s-.08-.06-.23-.1Z" fill="#263238" stroke-width="0"/>
      <path d="M147.33,66.76c-.39,0-.72.05-.72.12s.32.12.72.12.72-.05.72-.12-.32-.12-.72-.12Z" fill="#263238" stroke-width="0"/>
      <path d="M150.2,66.76c-.39,0-.72.05-.72.12s.32.12.72.12.71-.05.71-.12-.32-.12-.71-.12Z" fill="#263238" stroke-width="0"/>
      <path d="M153.08,66.76c-.4,0-.72.05-.72.12s.32.12.72.12.71-.05.71-.12-.31-.12-.71-.12Z" fill="#263238" stroke-width="0"/>
      <path d="M155.91,66.76c-.39,0-.71.05-.71.12s.31.12.71.12.72-.05.72-.12-.32-.12-.72-.12Z" fill="#263238" stroke-width="0"/>
      <path d="M158.77,66.76c-.39,0-.71.05-.71.12s.32.12.71.12.72-.05.72-.12-.32-.12-.72-.12Z" fill="#263238" stroke-width="0"/>
      <path d="M161.63,66.76c-.39,0-.72.05-.72.12s.32.12.72.12.72-.05.72-.12-.32-.12-.72-.12Z" fill="#263238" stroke-width="0"/>
      <path d="M164.49,66.76c-.39,0-.72.05-.72.12s.32.12.72.12.72-.05.72-.12-.32-.12-.72-.12Z" fill="#263238" stroke-width="0"/>
      <path d="M167.35,66.76c-.39,0-.72.05-.72.12s.32.12.72.12.71-.05.71-.12-.32-.12-.71-.12Z" fill="#263238" stroke-width="0"/>
      <path d="M170.21,66.76c-.4,0-.72.05-.72.12s.32.12.72.12.71-.05.71-.12-.31-.12-.71-.12Z" fill="#263238" stroke-width="0"/>
      <path d="M173.06,66.76c-.39,0-.71.05-.71.12s.32.12.71.12.72-.05.72-.12-.32-.12-.72-.12Z" fill="#263238" stroke-width="0"/>
      <path d="M175.92,66.76c-.39,0-.72.05-.72.12s.32.12.72.12.72-.05.72-.12-.32-.12-.72-.12Z" fill="#263238" stroke-width="0"/>
      <path d="M178.78,66.76c-.39,0-.72.05-.72.12s.32.12.72.12.72-.05.72-.12-.32-.12-.72-.12Z" fill="#263238" stroke-width="0"/>
      <path d="M180.01,68.63c0-.39-.05-.71-.12-.71s-.13.32-.13.71c0,.39.06.72.13.72.06,0,.12-.32.12-.72Z" fill="#263238" stroke-width="0"/>
      <path d="M180.01,71.49c0-.39-.05-.72-.12-.72s-.13.32-.13.72.06.72.13.72c.06,0,.12-.32.12-.72Z" fill="#263238" stroke-width="0"/>
      <path d="M180.01,74.35c0-.39-.05-.72-.12-.72s-.13.32-.13.72c0,.39.06.72.13.72.06,0,.12-.32.12-.72Z" fill="#263238" stroke-width="0"/>
      <path d="M180.01,77.2c0-.39-.05-.72-.12-.72s-.13.32-.13.72.06.71.13.71c.06,0,.12-.32.12-.71Z" fill="#263238" stroke-width="0"/>
      <path d="M180.01,80.06c0-.4-.05-.72-.12-.72s-.13.32-.13.72.06.71.13.71c.06,0,.12-.31.12-.71Z" fill="#263238" stroke-width="0"/>
      <path d="M180.01,82.92c0-.39-.05-.71-.12-.71s-.13.31-.13.71.06.72.13.72c.06,0,.12-.32.12-.72Z" fill="#263238" stroke-width="0"/>
      <path d="M180.01,85.78c0-.39-.05-.71-.12-.71s-.13.32-.13.71c0,.39.06.72.13.72.06,0,.12-.32.12-.72Z" fill="#263238" stroke-width="0"/>
      <path d="M180.01,88.64c0-.39-.05-.72-.12-.72s-.13.32-.13.72c0,.39.06.72.13.72.06,0,.12-.32.12-.72Z" fill="#263238" stroke-width="0"/>
      <path d="M180.01,91.5c0-.39-.05-.72-.12-.72s-.13.32-.13.72.06.72.13.72c.06,0,.12-.32.12-.72Z" fill="#263238" stroke-width="0"/>
      <path d="M180.01,94.36c0-.39-.05-.72-.12-.72s-.13.32-.13.72.06.71.13.71c.06,0,.12-.32.12-.71Z" fill="#263238" stroke-width="0"/>
      <path d="M180.01,97.21c0-.4-.05-.72-.12-.72s-.13.32-.13.72c0,.39.06.71.13.71.06,0,.12-.31.12-.71Z" fill="#263238" stroke-width="0"/>
      <path d="M180.01,100.07c0-.39-.05-.71-.12-.71s-.13.32-.13.71c0,.39.06.72.13.72.06,0,.12-.32.12-.72Z" fill="#263238" stroke-width="0"/>
      <path d="M181.18,102.72h-2.58v-2.58h2.58v2.58Z" fill="#263238" stroke-width="0"/>
      <path d="M146.27,103.08h-2.58v-2.58h2.58v2.58Z" fill="#263238" stroke-width="0"/>
      <path d="M181.18,67.92h-2.58v-2.58h2.58v2.58Z" fill="#263238" stroke-width="0"/>
      <path d="M146.27,68.17h-2.58v-2.58h2.58v2.58Z" fill="#263238" stroke-width="0"/>
      <path d="M175.29,56.12c.26,0,.48-.04.48-.08s-.21-.08-.48-.08-.49.04-.49.08c0,.05.22.08.49.08Z" fill="#263238" stroke-width="0"/>
      <path d="M173.36,56.12c.26,0,.48-.04.48-.08s-.21-.08-.48-.08-.49.04-.49.08c0,.05.22.08.49.08Z" fill="#263238" stroke-width="0"/>
      <path d="M171.42,56.12c.26,0,.48-.04.48-.08s-.21-.08-.48-.08-.49.04-.49.08c0,.05.22.08.49.08Z" fill="#263238" stroke-width="0"/>
      <path d="M169.49,56.12c.26,0,.48-.04.48-.08s-.21-.08-.48-.08-.49.04-.49.08c0,.05.22.08.49.08Z" fill="#263238" stroke-width="0"/>
      <path d="M167.56,56.12c.27,0,.49-.04.49-.08s-.22-.08-.49-.08-.48.04-.48.08c0,.05.21.08.48.08Z" fill="#263238" stroke-width="0"/>
      <path d="M165.62,56.12c.27,0,.49-.04.49-.08s-.22-.08-.49-.08-.48.04-.48.08c0,.05.21.08.48.08Z" fill="#263238" stroke-width="0"/>
      <path d="M163.69,56.12c.27,0,.49-.04.49-.08s-.22-.08-.49-.08-.48.04-.48.08c0,.05.21.08.48.08Z" fill="#263238" stroke-width="0"/>
      <path d="M161.76,56.12c.27,0,.49-.04.49-.08s-.22-.08-.49-.08-.48.04-.48.08c0,.05.21.08.48.08Z" fill="#263238" stroke-width="0"/>
      <path d="M159.82,56.12c.27,0,.48-.04.48-.08s-.21-.08-.48-.08-.48.04-.48.08c0,.05.21.08.48.08Z" fill="#263238" stroke-width="0"/>
      <path d="M157.89,56.12c.27,0,.48-.04.48-.08s-.21-.08-.48-.08-.48.04-.48.08c0,.05.21.08.48.08Z" fill="#263238" stroke-width="0"/>
      <path d="M155.96,56.12c.27,0,.48-.04.48-.08s-.21-.08-.48-.08-.48.04-.48.08c0,.05.21.08.48.08Z" fill="#263238" stroke-width="0"/>
      <path d="M154.03,56.12c.27,0,.48-.04.48-.08s-.21-.08-.48-.08-.48.04-.48.08c0,.05.21.08.48.08Z" fill="#263238" stroke-width="0"/>
      <path d="M152.09,55.97v.16s.08,0,.08,0c.23,0,.41-.04.41-.08s-.18-.08-.41-.08l.08.08v-.07c0-.27-.04-.48-.08-.48s-.08.21-.08.48Z" fill="#263238" stroke-width="0"/>
      <path d="M152.08,54.03c0,.27.04.48.08.48s.08-.21.08-.48-.04-.48-.08-.48-.08.21-.08.48Z" fill="#263238" stroke-width="0"/>
      <path d="M152.08,52.1c0,.27.04.48.08.48s.08-.21.08-.48c0-.27-.04-.48-.08-.48s-.08.21-.08.48Z" fill="#263238" stroke-width="0"/>
      <path d="M152.08,50.17c0,.27.04.48.08.48s.08-.21.08-.48c0-.27-.04-.48-.08-.48s-.08.21-.08.48Z" fill="#263238" stroke-width="0"/>
      <path d="M152.08,48.24c0,.26.04.48.08.48s.08-.21.08-.48-.04-.49-.08-.49-.08.22-.08.49Z" fill="#263238" stroke-width="0"/>
      <path d="M152.08,46.3c0,.26.04.48.08.48s.08-.21.08-.48c0-.27-.04-.49-.08-.49s-.08.22-.08.49Z" fill="#263238" stroke-width="0"/>
      <path d="M152.08,44.37c0,.26.04.48.08.48s.08-.21.08-.48c0-.27-.04-.49-.08-.49s-.08.22-.08.49Z" fill="#263238" stroke-width="0"/>
      <path d="M152.08,42.44c0,.26.04.48.08.48s.08-.21.08-.48-.04-.49-.08-.49-.08.22-.08.49Z" fill="#263238" stroke-width="0"/>
      <path d="M152.08,40.5c0,.27.04.49.08.49s.08-.22.08-.49-.04-.48-.08-.48-.08.21-.08.48Z" fill="#263238" stroke-width="0"/>
      <path d="M152.08,38.57c0,.27.04.49.08.49s.08-.22.08-.49c0-.26-.04-.48-.08-.48s-.08.21-.08.48Z" fill="#263238" stroke-width="0"/>
      <path d="M152.08,36.64c0,.27.04.49.08.49s.08-.22.08-.49c0-.26-.04-.48-.08-.48s-.08.21-.08.48Z" fill="#263238" stroke-width="0"/>
      <path d="M152.08,34.7c0,.27.04.49.08.49s.08-.22.08-.49-.04-.48-.08-.48-.08.21-.08.48Z" fill="#263238" stroke-width="0"/>
      <path d="M152.15,32.36h-.05s0,.07,0,.07c-.02.11-.02.22-.02.34,0,.27.04.48.08.48s.08-.21.08-.48c0-.11,0-.23-.03-.34l-.06.06c.09-.02.15-.03.15-.06s-.05-.05-.16-.07Z" fill="#263238" stroke-width="0"/>
      <path d="M153.76,32.35c-.26,0-.48.04-.48.08s.21.08.48.08.49-.04.49-.08-.22-.08-.49-.08Z" fill="#263238" stroke-width="0"/>
      <path d="M155.69,32.35c-.26,0-.48.04-.48.08s.21.08.48.08.49-.04.49-.08-.22-.08-.49-.08Z" fill="#263238" stroke-width="0"/>
      <path d="M157.63,32.35c-.27,0-.49.04-.49.08s.22.08.49.08.48-.04.48-.08-.21-.08-.48-.08Z" fill="#263238" stroke-width="0"/>
      <path d="M159.56,32.35c-.27,0-.49.04-.49.08s.22.08.49.08.48-.04.48-.08-.21-.08-.48-.08Z" fill="#263238" stroke-width="0"/>
      <path d="M161.49,32.35c-.27,0-.49.04-.49.08s.22.08.49.08.48-.04.48-.08-.21-.08-.48-.08Z" fill="#263238" stroke-width="0"/>
      <path d="M163.43,32.35c-.27,0-.49.04-.49.08s.22.08.49.08.48-.04.48-.08-.21-.08-.48-.08Z" fill="#263238" stroke-width="0"/>
      <path d="M165.36,32.35c-.27,0-.48.04-.48.08s.21.08.48.08.48-.04.48-.08-.21-.08-.48-.08Z" fill="#263238" stroke-width="0"/>
      <path d="M167.29,32.35c-.27,0-.48.04-.48.08s.21.08.48.08.48-.04.48-.08-.21-.08-.48-.08Z" fill="#263238" stroke-width="0"/>
      <path d="M169.22,32.35c-.27,0-.48.04-.48.08s.21.08.48.08.48-.04.48-.08-.21-.08-.48-.08Z" fill="#263238" stroke-width="0"/>
      <path d="M171.16,32.35c-.27,0-.48.04-.48.08s.21.08.48.08.48-.04.48-.08-.21-.08-.48-.08Z" fill="#263238" stroke-width="0"/>
      <path d="M173.09,32.35c-.27,0-.48.04-.48.08s.21.08.48.08.48-.04.48-.08-.21-.08-.48-.08Z" fill="#263238" stroke-width="0"/>
      <path d="M175.02,32.35c-.27,0-.48.04-.48.08s.21.08.48.08.48-.04.48-.08-.21-.08-.48-.08Z" fill="#263238" stroke-width="0"/>
      <path d="M175.86,33.63c0-.27-.04-.48-.08-.48s-.08.21-.08.48c0,.27.04.48.08.48s.08-.21.08-.48Z" fill="#263238" stroke-width="0"/>
      <path d="M175.86,35.54c0-.27-.04-.48-.08-.48s-.08.21-.08.48.04.48.08.48.08-.21.08-.48Z" fill="#263238" stroke-width="0"/>
      <path d="M175.86,37.48c0-.27-.04-.48-.08-.48s-.08.21-.08.48c0,.27.04.48.08.48s.08-.21.08-.48Z" fill="#263238" stroke-width="0"/>
      <path d="M175.86,39.41c0-.27-.04-.48-.08-.48s-.08.21-.08.48c0,.27.04.48.08.48s.08-.21.08-.48Z" fill="#263238" stroke-width="0"/>
      <path d="M175.86,41.35c0-.26-.04-.48-.08-.48s-.08.21-.08.48.04.49.08.49.08-.22.08-.49Z" fill="#263238" stroke-width="0"/>
      <path d="M175.86,43.28c0-.26-.04-.48-.08-.48s-.08.21-.08.48c0,.27.04.49.08.49s.08-.22.08-.49Z" fill="#263238" stroke-width="0"/>
      <path d="M175.86,45.21c0-.26-.04-.48-.08-.48s-.08.21-.08.48c0,.27.04.49.08.49s.08-.22.08-.49Z" fill="#263238" stroke-width="0"/>
      <path d="M175.86,47.15c0-.26-.04-.48-.08-.48s-.08.21-.08.48.04.49.08.49.08-.22.08-.49Z" fill="#263238" stroke-width="0"/>
      <path d="M175.86,49.08c0-.27-.04-.49-.08-.49s-.08.22-.08.49.04.48.08.48.08-.21.08-.48Z" fill="#263238" stroke-width="0"/>
      <path d="M175.86,51.01c0-.27-.04-.49-.08-.49s-.08.22-.08.49c0,.26.04.48.08.48s.08-.21.08-.48Z" fill="#263238" stroke-width="0"/>
      <path d="M175.86,52.95c0-.27-.04-.49-.08-.49s-.08.22-.08.49c0,.26.04.48.08.48s.08-.21.08-.48Z" fill="#263238" stroke-width="0"/>
      <path d="M175.86,54.88c0-.27-.04-.49-.08-.49s-.08.22-.08.49.04.48.08.48.08-.21.08-.48Z" fill="#263238" stroke-width="0"/>
      <path d="M176.65,56.68h-1.75v-1.75h1.75v1.75Z" fill="#263238" stroke-width="0"/>
      <path d="M153.04,56.92h-1.75v-1.75h1.75v1.75Z" fill="#263238" stroke-width="0"/>
      <path d="M176.65,33.14h-1.75v-1.75h1.75v1.75Z" fill="#263238" stroke-width="0"/>
      <path d="M153.04,33.31h-1.75v-1.75h1.75v1.75Z" fill="#263238" stroke-width="0"/>
      <path d="M43.32,90.23c.27,0,.48-.04.48-.08,0-.05-.21-.08-.48-.08s-.48.04-.48.08c0,.05.21.08.48.08Z" fill="#263238" stroke-width="0"/>
      <path d="M41.39,90.23c.27,0,.48-.04.48-.08,0-.05-.21-.08-.48-.08s-.48.04-.48.08c0,.05.21.08.48.08Z" fill="#263238" stroke-width="0"/>
      <path d="M39.45,90.23c.27,0,.48-.04.48-.08,0-.05-.21-.08-.48-.08s-.48.04-.48.08c0,.05.21.08.48.08Z" fill="#263238" stroke-width="0"/>
      <path d="M37.54,90.23c.27,0,.48-.04.48-.08,0-.05-.22-.08-.48-.08s-.48.04-.48.08c0,.05.22.08.48.08Z" fill="#263238" stroke-width="0"/>
      <path d="M35.59,90.23c.26,0,.48-.04.48-.08,0-.05-.21-.08-.48-.08s-.49.04-.49.08c0,.05.22.08.49.08Z" fill="#263238" stroke-width="0"/>
      <path d="M33.66,90.23c.26,0,.48-.04.48-.08,0-.05-.21-.08-.48-.08s-.49.04-.49.08c0,.05.22.08.49.08Z" fill="#263238" stroke-width="0"/>
      <path d="M31.73,90.23c.26,0,.48-.04.48-.08,0-.05-.21-.08-.48-.08s-.49.04-.49.08c0,.05.22.08.49.08Z" fill="#263238" stroke-width="0"/>
      <path d="M29.79,90.23c.26,0,.48-.04.48-.08,0-.05-.21-.08-.48-.08s-.49.04-.49.08c0,.05.22.08.49.08Z" fill="#263238" stroke-width="0"/>
      <path d="M27.86,90.23c.27,0,.49-.04.49-.08,0-.05-.22-.08-.49-.08s-.48.04-.48.08c0,.05.22.08.48.08Z" fill="#263238" stroke-width="0"/>
      <path d="M25.92,90.23c.27,0,.49-.04.49-.08,0-.05-.22-.08-.49-.08s-.48.04-.48.08c0,.05.22.08.48.08Z" fill="#263238" stroke-width="0"/>
      <path d="M23.99,90.23c.27,0,.49-.04.49-.08,0-.05-.22-.08-.49-.08s-.48.04-.48.08c0,.05.21.08.48.08Z" fill="#263238" stroke-width="0"/>
      <path d="M22.06,90.23c.27,0,.49-.04.49-.08,0-.05-.22-.08-.49-.08s-.48.04-.48.08c0,.05.21.08.48.08Z" fill="#263238" stroke-width="0"/>
      <path d="M20.14,90.09v.16s.08,0,.08,0c.23,0,.41-.04.41-.08s-.18-.08-.41-.08l.08.08v-.07c0-.26-.04-.48-.08-.48-.07,0-.1.2-.08.48Z" fill="#263238" stroke-width="0"/>
      <path d="M20.13,88.14c0,.27.04.49.08.49s.09-.22.09-.49c0-.26-.04-.48-.09-.48-.07,0-.08.21-.08.48Z" fill="#263238" stroke-width="0"/>
      <path d="M20.13,86.21c0,.27.04.48.08.48s.09-.21.09-.48c0-.27-.04-.48-.09-.48-.07,0-.08.21-.08.48Z" fill="#263238" stroke-width="0"/>
      <path d="M20.13,84.27c0,.27.04.48.08.48s.09-.21.09-.48c0-.27-.04-.48-.09-.48-.07,0-.08.21-.08.48Z" fill="#263238" stroke-width="0"/>
      <path d="M20.13,82.34c0,.27.04.48.08.48s.09-.21.09-.48c0-.27-.04-.48-.09-.48-.07,0-.08.21-.08.48Z" fill="#263238" stroke-width="0"/>
      <path d="M20.13,80.41c0,.27.04.48.08.48s.09-.21.09-.48-.04-.48-.09-.48c-.07,0-.08.21-.08.48Z" fill="#263238" stroke-width="0"/>
      <path d="M20.13,78.48c0,.27.04.48.08.48s.09-.21.09-.48c0-.27-.04-.48-.09-.48-.07,0-.08.21-.08.48Z" fill="#263238" stroke-width="0"/>
      <path d="M20.13,76.54c0,.27.04.48.08.48s.09-.21.09-.48c0-.27-.04-.48-.09-.48-.07,0-.08.21-.08.48Z" fill="#263238" stroke-width="0"/>
      <path d="M20.13,74.61c0,.26.04.48.08.48s.09-.21.09-.48-.04-.49-.09-.49c-.07,0-.08.22-.08.49Z" fill="#263238" stroke-width="0"/>
      <path d="M20.13,72.67c0,.26.06.48.08.48s.09-.21.09-.47c0-.27-.04-.49-.09-.49-.07,0-.08.21-.08.48Z" fill="#263238" stroke-width="0"/>
      <path d="M20.13,70.76c0,.26.06.48.08.48s.09-.23.09-.49c0-.27-.04-.49-.09-.49-.07,0-.08.23-.08.5Z" fill="#263238" stroke-width="0"/>
      <path d="M20.13,68.81c0,.26.04.48.08.48s.09-.21.09-.48c0-.27-.04-.49-.09-.49-.07,0-.08.22-.08.49Z" fill="#263238" stroke-width="0"/>
      <path d="M20.18,66.47h-.05s0,.07,0,.07c-.01.11-.02.22-.02.34,0,.27.04.49.08.49s.08-.22.08-.49c0-.11,0-.23-.02-.34l-.06.06c.09-.02.15-.04.15-.06,0-.02-.06-.05-.16-.07Z" fill="#263238" stroke-width="0"/>
      <path d="M21.79,66.45c-.27,0-.49.04-.49.08s.22.08.49.08.48-.04.48-.08-.21-.08-.48-.08Z" fill="#263238" stroke-width="0"/>
      <path d="M23.73,66.45c-.27,0-.48.04-.48.08s.21.08.48.08.48-.04.48-.08-.21-.08-.48-.08Z" fill="#263238" stroke-width="0"/>
      <path d="M25.66,66.45c-.27,0-.48.04-.48.08s.21.08.48.08.48-.04.48-.08-.21-.08-.48-.08Z" fill="#263238" stroke-width="0"/>
      <path d="M27.59,66.45c-.27,0-.48.04-.48.08s.21.08.48.08.48-.04.48-.08-.21-.08-.48-.08Z" fill="#263238" stroke-width="0"/>
      <path d="M29.52,66.45c-.27,0-.48.04-.48.08s.21.08.48.08.48-.04.48-.08-.21-.08-.48-.08Z" fill="#263238" stroke-width="0"/>
      <path d="M31.46,66.45c-.27,0-.48.04-.48.08s.21.08.48.08.48-.04.48-.08-.21-.08-.48-.08Z" fill="#263238" stroke-width="0"/>
      <path d="M33.39,66.45c-.27,0-.48.04-.48.08s.21.08.48.08.48-.04.48-.08-.21-.08-.48-.08Z" fill="#263238" stroke-width="0"/>
      <path d="M35.32,66.45c-.27,0-.48.04-.48.08s.21.08.48.08.48-.04.48-.08-.21-.08-.48-.08Z" fill="#263238" stroke-width="0"/>
      <path d="M37.26,66.45c-.26,0-.48.04-.48.08s.21.08.48.08.49-.04.49-.08-.22-.08-.49-.08Z" fill="#263238" stroke-width="0"/>
      <path d="M39.19,66.45c-.26,0-.48.04-.48.08s.21.08.48.08.49-.04.49-.08-.22-.08-.49-.08Z" fill="#263238" stroke-width="0"/>
      <path d="M41.12,66.45c-.26,0-.48.04-.48.08s.21.08.48.08.49-.04.49-.08-.22-.08-.49-.08Z" fill="#263238" stroke-width="0"/>
      <path d="M43.05,66.45c-.26,0-.48.04-.48.08s.22.08.48.08.49-.04.49-.08-.22-.08-.49-.08Z" fill="#263238" stroke-width="0"/>
      <path d="M43.89,67.72c0-.26-.04-.48-.08-.48s-.08.21-.08.48.04.49.08.49.08-.22.08-.49Z" fill="#263238" stroke-width="0"/>
      <path d="M43.89,69.65c0-.26-.04-.48-.08-.48s-.08.21-.08.48c0,.27.04.49.08.49s.08-.22.08-.49Z" fill="#263238" stroke-width="0"/>
      <path d="M43.89,71.59c0-.26-.04-.48-.08-.48s-.08.21-.08.48c0,.27.04.49.08.49s.08-.22.08-.49Z" fill="#263238" stroke-width="0"/>
      <path d="M43.89,73.52c0-.27-.04-.49-.08-.49s-.08.22-.08.49c0,.26.04.48.08.48s.08-.21.08-.48Z" fill="#263238" stroke-width="0"/>
      <path d="M43.89,75.46c0-.27-.04-.49-.08-.49s-.08.22-.08.49c0,.26.04.48.08.48s.08-.21.08-.48Z" fill="#263238" stroke-width="0"/>
      <path d="M43.89,77.39c0-.27-.04-.49-.08-.49s-.08.22-.08.49c0,.26.04.48.08.48s.08-.21.08-.48Z" fill="#263238" stroke-width="0"/>
      <path d="M43.89,79.32c0-.27-.04-.49-.08-.49s-.08.22-.08.49c0,.26.04.48.08.48s.08-.21.08-.48Z" fill="#263238" stroke-width="0"/>
      <path d="M43.89,81.25c0-.27-.04-.48-.08-.48s-.08.21-.08.48.04.48.08.48.08-.21.08-.48Z" fill="#263238" stroke-width="0"/>
      <path d="M43.89,83.19c0-.27-.04-.48-.08-.48s-.08.21-.08.48c0,.27.04.48.08.48s.08-.21.08-.48Z" fill="#263238" stroke-width="0"/>
      <path d="M43.89,85.12c0-.27-.04-.48-.08-.48s-.08.21-.08.48c0,.27.04.48.08.48s.08-.21.08-.48Z" fill="#263238" stroke-width="0"/>
      <path d="M43.89,87.05c0-.27-.04-.48-.08-.48s-.08.21-.08.48.04.48.08.48.08-.21.08-.48Z" fill="#263238" stroke-width="0"/>
      <path d="M43.89,88.99c0-.27-.04-.48-.08-.48s-.08.21-.08.48c0,.27.04.48.08.48s.08-.21.08-.48Z" fill="#263238" stroke-width="0"/>
      <path d="M44.68,90.78h-1.75v-1.75h1.75v1.75Z" fill="#263238" stroke-width="0"/>
      <path d="M21.07,91.02h-1.75v-1.75h1.75v1.75Z" fill="#263238" stroke-width="0"/>
      <path d="M44.68,67.24h-1.75v-1.75h1.75v1.75Z" fill="#263238" stroke-width="0"/>
      <path d="M21.07,67.41h-1.75v-1.75h1.75v1.75Z" fill="#263238" stroke-width="0"/>
      <path d="M157.2,172.26H51.72v-98.53h105.48v98.53Z" fill="#fff" stroke-width="0"/>
      <path d="M157.2,80.41H51.72v-6.79h105.48v6.79Z" fill="#ee7411" stroke-width="0"/>
      <path d="M56.32,76.83c-.18-.19-.44-.31-.71-.32-.19,0-.38.06-.54.16-.16.11-.29.26-.36.43-.08.18-.1.37-.06.56.03.19.12.36.25.5.13.14.3.24.49.28.19.04.38.03.56-.03.18-.07.34-.18.45-.34.11-.15.18-.34.19-.53,0-.27-.09-.53-.28-.72Z" fill="#263238" stroke-width="0"/>
      <path d="M59.88,76.83c-.18-.19-.44-.31-.71-.32-.19,0-.38.06-.54.16-.16.11-.29.26-.36.43-.08.18-.1.37-.06.56s.12.36.25.5c.13.14.3.24.49.28.19.04.38.03.56-.03.18-.07.34-.18.45-.34.11-.15.18-.34.19-.53,0-.27-.09-.53-.28-.72Z" fill="#263238" stroke-width="0"/>
      <path d="M63.11,76.59c-.12-.05-.25-.08-.38-.08s-.26.03-.38.08c-.12.05-.23.13-.32.22-.19.2-.29.46-.29.73,0,.27.1.53.29.73.09.1.2.17.32.22.12.05.25.08.38.08s.26-.03.38-.08c.12-.05.23-.13.32-.22.18-.2.29-.46.29-.73,0-.27-.1-.53-.29-.73-.09-.09-.2-.17-.32-.22Z" fill="#263238" stroke-width="0"/>
      <path d="M157.29,73.6v-.06s-.06,0-.06,0H51.76s-.08,0-.08,0v.07c0,35.94,0,69.71,0,98.53v.06s.06,0,.06,0l105.48-.06-105.48-.06.06.06c0-28.82,0-62.59,0-98.53l-.07.07h105.47s-.06-.06-.06-.06c.03,59.22.06,98.02.06,98.53,0-.52.03-39.32.1-98.56Z" fill="#263238" stroke-width="0"/>
      <path d="M101.89,90.78h-5.27v-5.27h5.27v5.27Z" fill="#f9b01c" stroke-width="0"/>
      <path d="M108.6,90.78h-5.27v-5.27h5.27v5.27Z" fill="#f9b01c" stroke-width="0"/>
      <path d="M115.31,90.78h-5.27v-5.27h5.27v5.27Z" fill="#f9b01c" stroke-width="0"/>
      <path d="M115.31,90.78h-5.27v-5.27h5.27v5.27Z" fill="#fff" isolation="isolate" opacity=".4" stroke-width="0"/>
      <path d="M101.89,90.78h-5.27v-5.27h5.27v5.27Z" isolation="isolate" opacity=".2" stroke-width="0"/>
      <path d="M129.36,122.29c-.02.3-.03.75-.07,1.34-.15,1.7-.48,3.38-.98,5.01-.18.52-.33,1.09-.59,1.64-.11.28-.23.57-.36.87-.12.29-.28.58-.42.88-.28.61-.64,1.2-1,1.82-.18.31-.4.61-.6.92-.21.31-.42.63-.67.93-.99,1.32-2.12,2.52-3.37,3.59-1.39,1.19-2.91,2.22-4.54,3.06l-.04.02v.05c-.06,1.97-.11,4.05-.18,6.21l.09-.08h-20.33s.1.1.1.1v-5.89s-.06-.03-.06-.03c-.67-.35-1.42-.7-2.12-1.15-3.35-2.02-6.13-4.86-8.08-8.25-1.95-3.39-3-7.23-3.05-11.14-.06-3.41.63-6.79,2.04-9.9,1.23-2.7,2.96-5.15,5.11-7.2.93-.89,1.94-1.71,3.01-2.44.96-.64,1.96-1.22,3-1.72,1.67-.79,3.42-1.39,5.23-1.78,1.15-.23,2.31-.39,3.47-.46l.91-.03c.21-.02.31-.02.31-.02h-.31s-.91,0-.91,0c-1.17.06-2.33.2-3.48.43-1.82.37-3.59.96-5.27,1.75-1.04.5-2.05,1.08-3.02,1.72-1.07.73-2.09,1.54-3.03,2.44-2.17,2.06-3.92,4.51-5.16,7.23-1.43,3.12-2.14,6.52-2.08,9.95.05,3.95,1.1,7.81,3.07,11.24s4.77,6.29,8.15,8.32c.7.44,1.45.79,2.14,1.15l-.06-.09v5.85s0,.1,0,.1h.1s20.33,0,20.33,0h.08s0-.08,0-.08c.06-2.16.11-4.25.16-6.21l-.04.07c1.64-.85,3.17-1.9,4.56-3.11,1.26-1.08,2.39-2.3,3.38-3.62.25-.3.46-.62.66-.94.2-.31.42-.61.6-.93.36-.63.72-1.23,1-1.84.14-.3.3-.59.42-.89.12-.3.24-.59.35-.88.25-.56.4-1.13.58-1.65.49-1.64.81-3.32.94-5.03.05-.58.05-1.04.05-1.34v-.46s0,.16-.01.46Z" fill="#f9b01c" stroke-width="0"/>
      <path d="M109.3,148.3c.03-.2.07-.47.12-.83.1-.75.26-1.81.48-3.2.22-1.39.51-3.08.97-5.02.5-2.2,1.21-4.35,2.13-6.41.54-1.2,1.18-2.34,1.91-3.42.38-.57.9-1.03,1.5-1.35.31-.15.66-.22,1-.21.35.01.68.11.98.28.3.17.53.46.63.79.1.34.07.7-.09,1.01-.36.66-.95,1.16-1.66,1.41-1.52.5-3.18.37-4.62-.35-.75-.37-1.41-.9-1.95-1.54-.54-.64-.94-1.38-1.18-2.18-.28-.81-.32-1.68-.13-2.52.11-.41.34-.77.66-1.04.32-.27.73-.4,1.15-.38.2.02.4.1.57.21.17.12.3.28.39.46.2.38.25.82.16,1.24-.19.86-.85,1.56-1.53,2.15-.71.6-1.54,1.04-2.43,1.3s-1.83.33-2.75.2c-.92-.15-1.78-.51-2.53-1.06-.74-.55-1.34-1.28-1.75-2.11-.2-.4-.32-.83-.35-1.27-.03-.44.04-.89.19-1.31.07-.2.18-.38.32-.53.15-.15.32-.27.52-.34.2-.07.41-.1.62-.08.21.02.41.08.59.19.77.4,1.13,1.28,1.19,2.13.06.86-.05,1.72-.33,2.54-.53,1.6-1.65,2.94-3.13,3.75-1.41.75-3.04.98-4.6.64-.75-.12-1.43-.47-1.96-1.02-.23-.26-.37-.59-.4-.93-.02-.35.07-.69.26-.98.44-.53,1.27-.53,1.87-.24.59.34,1.05.86,1.32,1.49.57,1.23,1.05,2.47,1.53,3.62,1.88,4.65,3.22,8.5,4.13,11.16l1.03,3.06.27.8c.03.09.06.18.1.27,0,0-.02-.1-.08-.27l-.24-.81c-.22-.71-.54-1.75-.98-3.09-.88-2.67-2.2-6.52-4.05-11.19-.48-1.17-.95-2.39-1.53-3.65-.29-.67-.78-1.23-1.42-1.59-.35-.17-.73-.24-1.11-.22-.2.01-.39.06-.57.15-.18.09-.34.21-.47.36-.23.33-.35.73-.32,1.14s.18.79.46,1.09c.55.59,1.29.98,2.09,1.11,1.63.34,3.33.1,4.8-.69,1.55-.83,2.71-2.22,3.27-3.89.3-.85.42-1.75.35-2.65-.03-.46-.15-.92-.35-1.34-.21-.43-.55-.79-.98-1.02-.21-.12-.45-.2-.7-.22-.25-.02-.49,0-.73.09-.23.09-.44.23-.62.41-.18.18-.31.39-.4.62-.17.45-.24.94-.22,1.42.03.48.15.96.37,1.39.42.88,1.05,1.64,1.83,2.22.78.58,1.69.97,2.65,1.12.96.13,1.94.06,2.87-.21.93-.27,1.79-.73,2.53-1.36.71-.6,1.41-1.33,1.63-2.3.11-.48.04-.99-.18-1.43-.11-.22-.28-.42-.49-.56-.21-.14-.45-.23-.7-.26-.48-.02-.96.13-1.34.43-.38.29-.65.71-.76,1.18-.21.89-.16,1.82.13,2.68.26.83.68,1.61,1.24,2.27.56.66,1.26,1.21,2.03,1.6,1.5.74,3.23.87,4.82.34.76-.27,1.4-.82,1.79-1.53.18-.37.22-.8.1-1.19-.12-.39-.38-.72-.73-.92-.33-.19-.71-.29-1.09-.31-.38-.01-.76.07-1.11.23-.64.33-1.19.82-1.58,1.42-.74,1.1-1.38,2.26-1.91,3.47-.91,2.08-1.61,4.24-2.09,6.45-.44,1.95-.72,3.65-.92,5.04-.21,1.39-.34,2.48-.43,3.21-.04.36-.07.64-.09.83-.01.1-.02.19-.02.29,0,0,0-.07.03-.26Z" fill="#f9b01c" stroke-width="0"/>
      <path d="M115.72,152.38c.11-.01.22-.05.32-.12.16-.1.27-.26.33-.44.03-.25.05-.51.04-.76v-.44c.02-.17-.01-.34-.09-.49-.09-.17-.23-.31-.41-.38-.19-.06-.39-.08-.59-.07h-2.68s-15.58-.03-15.58-.03c-.22,0-.42.08-.58.23-.16.15-.26.35-.27.56v1.13c0,.21.06.41.19.58.13.16.32.27.52.31h1.1s4.14,0,4.14,0l7-.02,4.73-.03,1.28-.02-1.28-.02-4.73-.03-7-.02h-4.14c-.35,0-.74,0-1.07,0-.16-.03-.3-.11-.4-.24-.1-.13-.15-.29-.14-.45v-1.11c.01-.17.09-.32.21-.43.12-.11.28-.18.45-.18l15.58-.03h2.68c.18-.02.37,0,.55.05.15.06.28.18.36.32.07.14.1.3.08.45v.44c.02.24.02.49,0,.73-.04.17-.15.32-.29.42-.12.08-.27.13-.41.15.04,0,.07-.03.11-.05Z" fill="#f9b01c" stroke-width="0"/>
      <path d="M115.42,153.61c.16.05.32.14.45.25s.24.25.32.4c.13.25.17.53.12.8-.05.27-.18.52-.39.71-.48.5-1.33.29-2.17.33h-.04s0,.03,0,.03c-.52,1-1.1,2.13-1.75,3.38-.16.31-.33.64-.5.96-.14.34-.34.65-.59.92-.28.25-.64.4-1.01.41h-1.22c-1.65,0-3.43.02-5.25,0-.22-.03-.43-.09-.62-.21-.19-.11-.36-.26-.49-.44-.12-.19-.24-.4-.34-.6l-.33-.64-1.36-2.59-.64-1.21-.03-.05h-1.88c-.19,0-.38-.02-.55-.09-.17-.07-.32-.17-.44-.31-.12-.13-.21-.3-.26-.47-.05-.18-.06-.36-.03-.54.03-.18.1-.35.2-.5.1-.14.23-.27.39-.35s.32-.14.5-.16h1.11s2.16,0,2.16,0l7.46-.02,4.98-.08,1.35-.02h.35s.08,0,.12,0h-.47s-1.35-.02-1.35-.02l-4.96-.02-7.46-.02h-2.16c-.38,0-.77,0-1.15,0-.31.03-.61.16-.84.37-.23.22-.38.5-.43.82-.05.31.01.63.17.9.16.28.4.49.69.61.2.08.41.12.62.11h1.82s-.09-.05-.09-.05l.63,1.21,1.36,2.59.33.64c.11.22.23.43.36.63.15.2.33.36.55.49.21.12.45.2.7.23,1.86.02,3.61,0,5.27,0h1.25c.31-.01.61-.1.87-.27.26-.16.47-.39.62-.66l.26-.5.49-.97,1.72-3.39-.05.03h1.22c.19,0,.37-.02.55-.09.17-.06.33-.16.47-.29.23-.22.38-.52.41-.84.03-.31-.05-.63-.23-.89-.18-.26-.44-.45-.75-.53-.12-.04-.25-.05-.38-.04.12,0,.24.02.36.04Z" fill="#f9b01c" stroke-width="0"/>
      <path d="M117.28,143.35h-1.07v-1.07h1.07v1.07Z" fill="#f9b01c" stroke-width="0"/>
      <path d="M117.17,149.03h-1.07v-1.07h1.07v1.07Z" fill="#f9b01c" stroke-width="0"/>
      <path d="M96.83,149.03h-1.07v-1.07h1.07v1.07Z" fill="#f9b01c" stroke-width="0"/>
      <path d="M96.83,143.35h-1.07v-1.07h1.07v1.07Z" fill="#f9b01c" stroke-width="0"/>
      <path d="M106.72,99.17h-1.07v-1.07h1.07v1.07Z" fill="#f9b01c" stroke-width="0"/>
      <path d="M129.91,122.37h-1.07v-1.07h1.07v1.07Z" fill="#f9b01c" stroke-width="0"/>
      <path d="M105.86,98.4c-5,0-9.05.05-9.05.1s4.05.1,9.05.1c4.99,0,9.05-.05,9.05-.1,0-.06-4.05-.1-9.05-.1Z" fill="#f9b01c" stroke-width="0"/>
      <path d="M115.01,98.27c-.06-.06-.14-.09-.22-.09-.06,0-.12.02-.18.05-.05.03-.09.08-.12.14-.02.06-.03.12-.02.18.01.06.04.12.09.16.04.04.1.07.16.09.06.01.13,0,.18-.02.06-.02.11-.06.14-.12.03-.05.05-.11.05-.18s-.03-.17-.09-.22Z" fill="#f9b01c" stroke-width="0"/>
      <path d="M96.49,98.5c0-.18.14-.32.32-.32s.32.14.32.32-.14.32-.32.32-.32-.14-.32-.32Z" fill="#f9b01c" stroke-width="0"/>
      <path d="M118.37,103.79c-6.51-2.98-11.8-5.35-11.82-5.3-.02.05,5.23,2.5,11.73,5.48,6.5,2.98,11.8,5.35,11.82,5.3.02-.05-5.23-2.5-11.73-5.48Z" fill="#f9b01c" stroke-width="0"/>
      <path d="M83.76,60.4c-.15-.05-.31-.1-.46-.13-.21-.05-.42-.1-.63-.13-.55-.09-1.11-.14-1.67-.13-.68.01-1.37.09-2.04.23-.67.15-1.32.36-1.95.63-.51.23-1,.5-1.46.81-.2.13-.36.27-.52.38-.16.11-.28.22-.38.31-.19.18-.31.26-.29.29.02.03.46-.37,1.26-.86.46-.29.95-.55,1.46-.77.62-.26,1.26-.46,1.91-.61.66-.14,1.33-.21,2-.23.55-.01,1.1.02,1.64.09.93.13,1.5.31,1.5.27-.12-.06-.24-.11-.37-.15Z" fill="#fafafa" stroke-width="0"/>
      <path d="M145.31,61.69l-6.72,11.86-38.68.02-29.37-.03c.29-6.54,3.43-12.52,9.44-15.14l8.91-3.89,12.47-5.5c.75-.33,1.54-.68,2-.9,7.07-3.41,11.19-4.09,18.59-1.45l10.67,3.54c2.74,1.29,11.07,3.22,12.7,11.49Z" fill="#f9b01c" stroke-width="0"/>
      <path d="M138.59,73.56l14.68,9.32-10.48,13.56,8.95,5.07,12.69-10.57c1.05-.88,1.91-1.97,2.5-3.21.6-1.24.92-2.59.96-3.96.03-1.37-.23-2.74-.76-4-.54-1.26-1.34-2.4-2.35-3.33l-24.33-22.34-1.86,19.47Z" fill="#f9b01c" stroke-width="0"/>
      <path d="M108.54,73.31v-.31c0-.29-.03-.69-.03-1.19-.04-1.05-.1-2.55-.17-4.39v-.08s-.05,0-.05,0c-3.3-.77-7.76-1.95-12.56-3.59-2.5-.83-4.82-1.81-7.02-2.45-1.04-.31-2.11-.52-3.19-.63-.95-.09-1.9-.06-2.84.1-1.36.21-2.65.76-3.74,1.61-.4.31-.74.68-1.03,1.09,0,0,.03-.02.07-.07l.19-.21c.25-.27.53-.52.82-.75,1.09-.81,2.37-1.34,3.72-1.53.92-.15,1.87-.17,2.8-.07,1.07.11,2.13.33,3.16.64,2.18.64,4.5,1.63,7,2.46,4.13,1.41,8.34,2.59,12.6,3.54l-.06-.07c.1,1.84.18,3.33.24,4.39.03.51.07.9.07,1.19.03.13.03.23.03.31,0,.04,0,.07,0,.11,0-.03.01-.07.01-.1Z" fill="#263238" stroke-width="0"/>
      <path d="M103.62,62.04c.08-2.29.1-4.16.05-4.16s-.16,1.86-.24,4.15c-.08,2.29-.1,4.15-.05,4.15.06,0,.17-1.86.25-4.15Z" fill="#263238" stroke-width="0"/>
      <path d="M138.56,73.26c.04-.3.08-.73.11-1.27.08-1.08.12-2.58.13-4.21s.04-3.09.04-4.21c.02-.51.02-.93.02-1.27.01-.16,0-.31-.02-.47-.04.15-.06.31-.06.47-.03.3-.05.73-.08,1.27-.05,1.09-.08,2.55-.1,4.21-.01,1.66-.03,3.14-.07,4.21-.02.51-.05.93-.05,1.27-.02.16-.02.31,0,.47.04-.15.07-.31.08-.47Z" fill="#263238" stroke-width="0"/>
      <path d="M119.74,55.11c-.46.32-.72.66-.68.7s.36-.25.78-.53c.28-.15.55-.33.79-.53-.33.02-.64.15-.9.36Z" fill="#263238" stroke-width="0"/>
      <path d="M122.22,57.25c.26-.54.58-.88.54-.92-.03-.04-.44.28-.72.83-.2.32-.28.7-.25,1.07.06,0,.16-.44.42-.98Z" fill="#263238" stroke-width="0"/>
      <path d="M125.81,57.86c.05-.32.05-.64,0-.96-.25.61-.29,1.28-.11,1.91.08-.31.12-.63.11-.96Z" fill="#263238" stroke-width="0"/>
      <path d="M129.72,57.09c-.08-.38-.26-.73-.53-1.01.09.36.2.72.34,1.07.08.37.18.73.31,1.08.07-.38.03-.78-.11-1.14Z" fill="#263238" stroke-width="0"/>
      <path d="M132.14,54.58c-.28-.38-.62-.6-.66-.55-.03.05.22.31.5.67s.46.68.52.66c.05-.02-.08-.4-.36-.78Z" fill="#263238" stroke-width="0"/>
      <path d="M133.52,52.17c-.31-.26-.69-.39-1.09-.38-.01.06.47.19.98.54.51.35.79.76.84.73-.12-.37-.38-.69-.73-.88Z" fill="#263238" stroke-width="0"/>
      <path d="M118.32,52.27c-.45.23-.69.57-.64.61s.35-.21.73-.43c.38-.21.77-.29.77-.35-.3-.06-.6,0-.86.17Z" fill="#263238" stroke-width="0"/>
      <path d="M118.08,49.37c-.44-.08-.78.05-.77.1.01.06.34.02.73.09.39.07.68.21.71.16.03-.04-.23-.28-.67-.36Z" fill="#263238" stroke-width="0"/>
      <path d="M107.02,71.76c-.47-.03-.94,0-1.4.1.46.1.93.13,1.4.1.47.03.94,0,1.4-.1-.46-.1-.93-.13-1.4-.1Z" fill="#263238" stroke-width="0"/>
      <path d="M105.68,70.05c.44.08.89.1,1.33.05.45.01.89-.04,1.32-.15-.89-.1-1.78-.06-2.66.1Z" fill="#263238" stroke-width="0"/>
      <path d="M106.89,68.17c-.45-.05-.91-.03-1.36.05.44.11.9.16,1.35.15.45.05.91.03,1.36-.05-.44-.11-.9-.16-1.35-.15Z" fill="#263238" stroke-width="0"/>
      <path d="M159.76,84.02c-.18-.19-.37-.37-.59-.53-.31-.24-.65-.44-1-.6-.43-.2-.89-.36-1.36-.46-.47-.09-.95-.14-1.43-.13-.39.01-.77.07-1.15.16-.26.06-.51.14-.75.25-.17.08-.26.1-.25.14.01.03.39-.13,1.03-.25.38-.07.76-.11,1.15-.11.47,0,.93.05,1.39.14.45.1.9.24,1.32.42.35.16.68.34,1,.56.54.37.82.67.85.64.01,0-.05-.09-.2-.23Z" fill="#263238" stroke-width="0"/>
      <path d="M150.95,99.66c-.3.33-.54.71-.72,1.12.33-.3.62-.63.87-1,.3-.33.55-.69.77-1.08-.36.26-.67.58-.92.95Z" fill="#263238" stroke-width="0"/>
      <path d="M148.33,97.89c-.35.39-.65.81-.91,1.25.78-.69,1.43-1.51,1.93-2.43-.38.35-.72.75-1.02,1.18Z" fill="#263238" stroke-width="0"/>
      <path d="M145.86,96.25c-.41.38-.78.81-1.09,1.27.45-.33.87-.72,1.23-1.15.41-.38.78-.81,1.09-1.27-.45.33-.87.72-1.23,1.14Z" fill="#263238" stroke-width="0"/>
      <g opacity=".3">
        <path d="M153.89,82.74l-.58.11c.91-.36,1.9-.5,2.87-.42.98.08,1.92.39,2.76.9.36.22.8.5,1.18.33.18-.11.32-.28.39-.48.07-.2.06-.42-.03-.62-.25-.67-1-1-1.68-1.15-.99-.21-2.02-.19-3.01.05-.99.24-1.91.7-2.7,1.34" stroke-width="0"/>
      </g>
      <g opacity=".2">
        <path d="M80.76,61.56c1.54-.67,3.24-.9,4.9-.66,1.65.25,3.28.65,4.86,1.2,6.02,1.89,6.83,2.21,12.85,4.1l-.33-.38c-1.01-1.15-2.31-2-3.77-2.46-1.58-.51-3.11-1.17-4.64-1.81-2.2-.9-4.47-1.76-6.85-1.97-2.38-.21-4.9.28-6.73,1.81" stroke-width="0"/>
      </g>
      <path d="M135.92,51.69c-.02.07-.06.15-.1.26-.07.21-.2.56-.38.97-.52,1.17-1.22,2.26-2.06,3.23-1.24,1.45-2.83,2.56-4.61,3.23-2.19.82-4.59.9-6.82.23-2.23-.71-4.12-2.21-5.32-4.21-.52-.87-.88-1.82-1.06-2.82-.16-.87-.18-1.76-.07-2.63.16-1.27.6-2.5,1.29-3.58.11-.17.22-.34.35-.5.08-.12.17-.24.27-.34l.18-.21s.04-.05.06-.08c-.35.32-.66.69-.91,1.09-.73,1.08-1.2,2.31-1.37,3.6-.12.89-.11,1.79.04,2.68.18,1.02.54,2,1.07,2.89,1.22,2.05,3.15,3.59,5.42,4.32,2.28.69,4.73.6,6.95-.25,1.81-.69,3.41-1.82,4.65-3.3.84-.99,1.52-2.1,2.02-3.3.14-.32.26-.65.36-.99l.08-.26c.02-.06.02-.09.02-.09-.02.02-.03.05-.05.07Z" fill="#fafafa" stroke-width="0"/>
      <path d="M147.72,61.64c-.18.19-.39.34-.64.44-.24.1-.5.14-.76.13-.38-.02-.75-.09-1.1-.22-.39-.13-.81-.31-1.28-.46-1.07-.32-2.18-.46-3.29-.41-1.34.06-2.68.28-3.97.65-1.4.37-2.86.88-4.41,1.34-1.62.49-3.28.85-4.96,1.06-1.8.23-3.62.21-5.42-.05-1.8-.26-3.53-.84-5.12-1.71-1.48-.82-2.78-1.92-3.85-3.23-1.04-1.24-1.89-2.52-2.74-3.69-.76-1.1-1.62-2.14-2.56-3.1-.78-.79-1.69-1.45-2.68-1.95-.75-.39-1.56-.64-2.39-.77-.52-.07-1.06-.07-1.58,0-.18.02-.37.06-.54.11,0,.01.19-.03.55-.07.52-.05,1.05-.04,1.57.04.82.13,1.61.39,2.35.77.97.51,1.86,1.17,2.63,1.95.93.96,1.77,1.99,2.53,3.09.84,1.17,1.69,2.46,2.73,3.72.53.64,1.12,1.24,1.75,1.79.66.57,1.38,1.07,2.15,1.49,1.61.88,3.37,1.47,5.19,1.74,1.81.26,3.66.28,5.47.05,1.69-.21,3.35-.57,4.98-1.07,1.56-.47,3.01-.98,4.4-1.36,1.28-.37,2.6-.6,3.93-.67,1.1-.06,2.2.07,3.25.38.46.14.88.32,1.28.44.37.13.76.2,1.15.21.27,0,.54-.04.78-.15.25-.11.47-.27.64-.47.09-.11.15-.23.2-.36.01-.04.02-.09.03-.14-.05.18-.14.35-.26.49Z" fill="#fafafa" stroke-width="0"/>
      <path d="M102.6,62.74c-.58-.15-1.13-.4-1.61-.75-.72-.52-1.35-1.15-1.88-1.86-.62-.79-1.23-1.73-1.99-2.61-1.34-1.52-3.15-2.55-5.14-2.92-.6-.11-1.2-.16-1.81-.13-.21,0-.38.04-.49.04-.06,0-.12.01-.17.03.82-.01,1.64.06,2.44.2.87.18,1.71.48,2.49.9.96.51,1.82,1.19,2.53,2.01.76.87,1.36,1.8,2,2.59.54.72,1.2,1.35,1.95,1.86.5.35,1.07.59,1.67.71.16.03.33.05.49.05.06.01.12.01.17,0,0-.02-.24-.02-.65-.13Z" fill="#fafafa" stroke-width="0"/>
      <path d="M137.34,72.13c-.73-1.14-1.7-2.11-2.83-2.85-.78-.52-1.61-.95-2.48-1.28-1-.38-2.04-.65-3.1-.8-2.43-.31-4.89-.33-7.32-.06-2.57.23-5.03.53-7.27.53-1.98.05-3.97-.21-5.87-.77-1.28-.38-2.5-.96-3.6-1.73-.2-.14-.36-.27-.51-.38-.15-.11-.26-.21-.36-.29l-.21-.18c-.05-.06-.08-.06-.08-.06.34.36.71.69,1.11.98,1.09.8,2.31,1.4,3.6,1.8,1.92.59,3.92.86,5.93.82,2.25,0,4.72-.29,7.3-.51,2.42-.27,4.86-.26,7.27.04,1.04.15,2.07.4,3.06.77.86.32,1.69.74,2.46,1.25,1.13.72,2.1,1.67,2.85,2.77.12.17.23.35.33.54.09.16.16.29.22.41l.13.25c.05.06.05.08.05.08-.17-.46-.4-.9-.68-1.31Z" fill="#fafafa" stroke-width="0"/>
      <path d="M152.91,66.31c-.24.02-.48.06-.72.11-.32.06-.63.13-.94.22l-.54.16c-.19.06-.38.14-.57.21-.42.16-.83.34-1.24.54-1.85.93-3.47,2.26-4.74,3.9-.27.36-.53.72-.77,1.11-.11.18-.23.35-.32.52l-.26.5c-.15.29-.28.58-.4.88-.1.22-.18.45-.25.69-.07.2-.13.4-.17.6.05.02.28-.85.95-2.1.08-.16.17-.32.27-.49.1-.17.21-.33.32-.51.21-.36.49-.7.77-1.08,1.27-1.6,2.86-2.91,4.68-3.85.42-.2.83-.41,1.21-.55.18-.08.38-.16.56-.22l.53-.17c1.36-.41,2.24-.48,2.24-.52-.21,0-.41.01-.61.05Z" fill="#fafafa" stroke-width="0"/>
      <path d="M159.97,73.04c-.34.06-.87.17-1.49.34-.73.2-1.45.44-2.15.72-.86.35-1.7.75-2.51,1.2-.8.46-1.58.97-2.32,1.53-.6.46-1.17.95-1.71,1.47-.37.35-.72.72-1.05,1.11-.13.14-.25.28-.35.44.15-.12.28-.24.41-.38.25-.26.62-.62,1.09-1.06.47-.44,1.06-.93,1.74-1.44.74-.54,1.5-1.05,2.3-1.51.8-.45,1.63-.85,2.48-1.21.78-.33,1.51-.59,2.12-.77.62-.17,1.12-.3,1.47-.38.18-.03.37-.08.54-.15-.19.01-.38.04-.56.08Z" fill="#fafafa" stroke-width="0"/>
      <path d="M165.57,86.68l-.54.11c-.19.03-.39.05-.59.08-.44.06-.88.09-1.32.1-2.02.06-4.04-.32-5.91-1.1-.43-.19-.83-.36-1.19-.57-.18-.1-.36-.19-.52-.29l-.47-.29c-1.18-.77-1.8-1.4-1.83-1.37.13.16.28.31.43.44.17.17.36.33.55.47.25.2.5.4.77.57l.47.31c.16.11.34.2.53.3.36.21.77.39,1.2.59.94.4,1.92.69,2.93.89,1.01.18,2.04.26,3.06.23.45-.02.89-.06,1.34-.12.21-.03.41-.05.6-.09l.55-.12c.31-.07.62-.15.93-.25.23-.07.46-.15.68-.24.2-.07.39-.15.57-.25-.02-.04-.82.32-2.21.61Z" fill="#fafafa" stroke-width="0"/>
      <path d="M154.38,98.26c-.04-.29-.11-.72-.21-1.24-.23-1.38-.64-2.72-1.22-4-.6-1.28-1.54-2.37-2.71-3.17-.36-.23-.74-.42-1.15-.56-.14-.06-.3-.1-.45-.11.53.22,1.05.48,1.53.79,1.12.81,2.01,1.89,2.6,3.13.57,1.26,1,2.58,1.27,3.93.1.49.2.9.27,1.23.02.15.06.3.12.45,0-.16-.02-.31-.06-.46Z" fill="#fafafa" stroke-width="0"/>
      <path d="M97.27,72.3c.18-2.08.91-4.08,2.11-5.8.46-.67.77-1.04.77-1.05,0-.01-.1.08-.26.24-.22.23-.43.47-.62.73-1.28,1.7-2.03,3.74-2.13,5.87-.02.32-.02.64,0,.96,0,.12.02.24.05.35.03,0,.02-.5.09-1.3Z" fill="#fafafa" stroke-width="0"/>
      <path d="M82.85,71.5c.07-.31.14-.64.25-1.02.11-.38.24-.77.38-1.15.32-.86.72-1.68,1.18-2.47.47-.78,1.01-1.52,1.62-2.21.29-.31.58-.59.83-.86.25-.27.52-.49.77-.7.99-.82,1.69-1.2,1.67-1.24-.17.07-.34.16-.49.26-.19.11-.38.22-.55.35-.24.16-.48.33-.7.51-.28.21-.55.44-.8.69-.29.25-.56.55-.86.86-.62.69-1.17,1.44-1.65,2.23-.47.8-.87,1.64-1.18,2.51-.13.38-.25.78-.35,1.15-.1.37-.16.72-.23,1.03-.06.31-.09.61-.12.86-.03.22-.04.44-.05.65-.02.19-.02.38,0,.56.05,0,.05-.81.3-2.03Z" fill="#fafafa" stroke-width="0"/>
      <path d="M118.69,47.21c-.25-.17-.56-.23-.85-.18,0,.06.36.18.77.36s.7.42.74.38c.03-.03-.22-.36-.65-.56Z" fill="#263238" stroke-width="0"/>
      <path d="M140.85,26.42c.76.51,1.8.69,2.71.8,1.05.09,2.1-.2,2.96-.81.35-.29.62-.67.76-1.11.14-.43.16-.9.04-1.34-.14-.44-.43-.81-.82-1.04s-.86-.31-1.31-.22c.29-.38.46-.85.47-1.34.01-.48-.13-.96-.4-1.36-.58-.79-1.45-1.32-2.42-1.48-.96-.15-1.93-.17-2.89-.07.05-.39,0-.79-.13-1.16-.14-.37-.37-.7-.68-.95-.61-.5-1.35-.82-2.14-.91-1.49-.23-3.02.03-4.36.74-.85.45-1.64,1.09-2.6,1.18-.83.08-1.63-.28-2.46-.33-.67-.01-1.33.14-1.93.44s-1.12.74-1.51,1.28c-.78,1.11-1.21,2.42-1.25,3.77-.03,1.34.07,2.69.3,4.01" fill="#263238" stroke-width="0"/>
      <path d="M121.88,55.82c-.77-.51-1.43-1.17-1.94-1.94-.51-.77-.87-1.63-1.04-2.54-.18-.91-.17-1.84.02-2.74l5.25-25.29.93-.38c3.09-1.29,6.46-1.72,9.77-1.27,3.31.45,6.44,1.79,9.06,3.86,0,0-2.29,12.22-3.74,17.41-1.45,5.2-6.89,4.62-6.89,4.62,0,0-.33,1.73-.75,3.83-.36,1.8-1.41,3.39-2.93,4.41-1.52,1.03-3.39,1.41-5.19,1.07-.91-.17-1.77-.52-2.54-1.03Z" fill="#ec9a6e" stroke-width="0"/>
      <path d="M132.97,48.81c-5.33-.92-5.94-5.1-5.94-5.1,1.68,1.84,3.86,3.15,6.28,3.75l-.35,1.35Z" fill="#d17349" stroke-width="0"/>
      <path d="M122.2,34.06c-.03.1-3.81,0-2.97-3.59.83-3.59,4.06-1.64,4.14-1.58,0,0-1.13,5.08-1.16,5.17Z" fill="#ec9a6e" stroke-width="0"/>
      <path d="M121.26,32.58c-.1.04-.2.06-.3.05-.1,0-.2-.03-.3-.08-.49-.27-.7-1.04-.55-1.76.07-.35.23-.69.46-.96.09-.13.2-.23.34-.3.14-.07.29-.11.44-.1.06,0,.12.02.18.05s.11.07.15.12c.06.07.09.17.09.26,0,.15-.1.21-.1.2s.03-.08,0-.19c-.02-.07-.06-.14-.12-.19-.06-.05-.13-.07-.21-.07-.12.01-.24.05-.34.12-.1.07-.18.16-.24.26-.19.25-.32.55-.38.86-.15.65.03,1.33.38,1.56.14.09.3.13.47.1.12-.02.19-.05.19-.05.01.01-.03.08-.16.14Z" fill="#d17349" stroke-width="0"/>
      <path d="M140.1,33.56c-.02-.1-.06-.19-.11-.27-.06-.08-.13-.15-.21-.21-.08-.05-.17-.09-.27-.11-.2-.05-.4-.01-.58.09-.17.11-.3.27-.34.47-.02.1-.02.2,0,.29.02.1.06.19.11.27.05.08.13.15.21.21.08.05.17.09.27.11.2.05.4.01.58-.09.17-.11.3-.27.34-.47.02-.1.02-.2,0-.29Z" fill="#263238" stroke-width="0"/>
      <path d="M140.8,32.1c-.27-.33-.64-.57-1.06-.68-.42-.12-.87-.1-1.28.05-.31.12-.45.27-.42.33.06.12.75-.12,1.56.09s1.26.78,1.37.71c.06-.05.02-.25-.18-.49Z" fill="#263238" stroke-width="0"/>
      <path d="M131.92,31.48c-.02-.1-.06-.19-.11-.27-.05-.08-.13-.15-.21-.21-.08-.05-.17-.09-.27-.11-.2-.05-.4-.01-.57.09-.17.1-.3.27-.34.47-.02.1-.02.2,0,.29.02.1.06.19.11.27.06.08.13.15.21.21.08.05.18.09.27.11.2.05.4.01.57-.09.17-.1.3-.27.34-.47.02-.1.02-.2,0-.29Z" fill="#263238" stroke-width="0"/>
      <path d="M132.88,30.13c-.27-.34-.64-.58-1.06-.69-.42-.12-.87-.1-1.28.05-.31.12-.45.27-.42.32.06.12.76-.13,1.56.09.8.21,1.26.78,1.37.71.07-.03.02-.23-.18-.48Z" fill="#263238" stroke-width="0"/>
      <path d="M135.7,37.68c.12.03.24.05.36.05.08,0,.16-.02.23-.06.07-.04.14-.09.18-.15.13-.26.17-.55.11-.83-.05-.55-.11-1.12-.16-1.72-.25-2.45-.52-4.42-.63-4.41-.11.01.02,2,.28,4.44.07.6.13,1.17.19,1.72.06.21.05.44-.02.64-.07.13-.28.12-.49.08-.45-.09-.91-.13-1.36-.11.42.17.87.29,1.32.35Z" fill="#263238" stroke-width="0"/>
      <path d="M131.6,37.78c-.07.5.05,1.01.35,1.42.31.43.76.73,1.27.86.39.11.65.06.65,0,.02-.12-.93-.28-1.51-1.09-.58-.82-.35-1.69-.48-1.71-.06-.02-.21.17-.28.52Z" fill="#263238" stroke-width="0"/>
      <path d="M140.91,30.53c-.26-.31-.6-.54-.98-.65-.39-.12-.8-.11-1.18,0-.28.11-.41.28-.38.38.08.23.68.24,1.34.43.66.19,1.16.52,1.35.38.1-.07.06-.28-.14-.54Z" fill="#263238" stroke-width="0"/>
      <path d="M132.7,26.8c-.28-.4-.69-.69-1.15-.82-.46-.14-.96-.12-1.41.06-.34.16-.49.35-.43.48.06.13.27.16.55.2.34.04.68.1,1.01.2.33.1.65.23.95.38.25.12.45.22.56.15.11-.07.11-.32-.09-.64Z" fill="#263238" stroke-width="0"/>
      <path d="M144.75,23.4l-4.57-2.23-5.18-.83-5.7.13-5.47,1.66s-2.59,7.83-.55,8.35c2.04.52,2.7-4.7,2.7-4.7,2.74-.37,3.33-3.07,4.09-3.49.77-.42,3.75.73,6.18,2.46,2.18,1.58,4.81,2.43,7.51,2.42l1-3.76Z" fill="#263238" stroke-width="0"/>
      <path d="M143.41,97.96s-3.79,3.15-3.94,3.96c-.11.58-.44,3.06-.62,4.39-.03.27-.14.52-.31.72-.17.2-.4.35-.66.43-.79.23-1.59.42-2.4.57-1.27.21-2.74.3-2.58,1.71.1.92,4.59.48,7.65.1.19-.02.88.17,1.05.14.82-.16,1.15-.42,1.48-.46,1.32-.13,7.07-8.93,7.07-8.93l-6.74-2.63Z" fill="#ec9a6e" stroke-width="0"/>
      <path d="M133.68,107.1c-.07.06-.14.13-.18.21-.05.08-.07.17-.08.27,0,.1,0,.19.03.28l.2.63c.05.17.17.32.32.4.16.09.34.11.51.06l12.48-3.21c.13-.03.24-.09.35-.17.1-.08.19-.18.25-.29.06-.11.11-.24.12-.37.02-.13,0-.26-.03-.38-.07-.25-.23-.45-.45-.58-.22-.13-.48-.16-.73-.1l-12.55,3.12c-.09.02-.18.07-.25.12Z" fill="#263238" stroke-width="0"/>
      <path d="M150.14,100.6l-6.04-3.42-.7.8c-2.84-.69-5.83,2.55-6.53,5.39-.16.65-.55,1.22-1.09,1.62-.49.38-1.08.82-1.46,1.13-.39.31-.95.51-.73.96.09.15.21.28.37.37.15.09.33.14.51.13.36.01.71-.06,1.03-.2,2.5-1.07,5.74-2.22,5.74-2.22" fill="#ec9a6e" stroke-width="0"/>
      <path d="M133.41,107.71l.27.91c-.24.11-.44.31-.56.55-.12.24-.15.52-.08.78l-2.89-.51-.05-.16,1.94-.59s.06.08.11.1c.05.02.1.02.15,0,.06-.02.11-.06.13-.11.03-.05.03-.11.02-.17-.02-.06-.06-.11-.11-.13-.05-.03-.12-.03-.17-.02-.05.02-.09.05-.12.09-.03.04-.04.1-.03.15l-1.94.59-.05-.17,2.07-1.99s.41.94,1.31.67Z" fill="#f9b01c" stroke-width="0"/>
      <path d="M141.64,108.94c-.18.2-.39.38-.62.52-.15.1-.32.18-.5.24-.21.05-.42.09-.64.12-.46.06-.97.07-1.5.11-1.08.06-2.05.13-2.75.19-.39.01-.77.06-1.15.14.38.03.77.03,1.15,0,.7-.03,1.68-.07,2.75-.14.55-.04,1.06-.06,1.53-.13.22-.03.44-.07.66-.13.19-.07.37-.16.53-.28.24-.16.44-.36.61-.59.07-.08.1-.19.1-.29-.02,0-.03.1-.17.25Z" fill="#d17349" stroke-width="0"/>
      <path d="M143.31,108.91c-.27.31-.59.57-.95.76-.36.18-.77.26-1.17.23-.13-.01-.26-.03-.38-.05-.09,0-.14-.01-.15,0,0,.01.04.04.12.08.12.05.25.09.38.11.44.08.89.02,1.28-.19.39-.21.72-.5.97-.85.19-.27.28-.47.26-.47-.02-.02-.15.14-.36.38Z" fill="#d17349" stroke-width="0"/>
      <path d="M140.33,105.33c-.6.23-1.44.56-2.35.94l-2.35.95c-.3.12-.55.21-.72.27s-.26.1-.26.1c.36-.01.71-.1,1.04-.25.62-.21,1.45-.53,2.37-.9.92-.37,1.74-.73,2.33-1,.33-.13.65-.28.95-.47-.35.09-.69.21-1.01.36Z" fill="#d17349" stroke-width="0"/>
      <path d="M108.59,73.6l15.02-.05c-1.78-5.59-15.27-5.55-15.27-5.55l.25,5.6Z" fill="#ec9a6e" stroke-width="0"/>
      <path d="M181.91,150.56h-47.21v-18.35h47.21v18.35Z" fill="#fff" stroke-width="0"/>
      <path d="M181.91,136.15h-47.21v-3.93h47.21v3.93Z" fill="#f9b01c" stroke-width="0"/>
      <path d="M142.02,145.72h-4.67v-4.66h4.67v4.66Z" fill="#fff" stroke-width="0"/>
      <path d="M142.07,145.35c0-.24.02-.55.02-.94.02-.81.04-1.99.04-3.41v-.08s-.08,0-.08,0h-4.67s-.19.19-.1.1v1.25c0,.41,0,.82,0,1.21v2.29s.08,0,.08,0c1.42,0,2.6-.05,3.41-.05l.94-.02c.11.01.21.01.32,0,0-.02-.13-.02-.35-.02l-.96-.02-3.35-.04.09.08v-2.2c0-.39,0-.79,0-1.21v-1.25c.09-.09-.12.12-.1.1h4.67s-.09-.09-.09-.09c.02,1.37.05,2.51.05,3.36.02.39.02.71.02.96,0,.12,0,.24.02.35.02-.12.04-.24.05-.36Z" fill="#263238" stroke-width="0"/>
      <path d="M139.76,143.46c.8-.75,1.56-1.56,2.26-2.4-.84.71-1.65,1.46-2.4,2.26-.8.76-1.56,1.56-2.26,2.4.85-.71,1.65-1.46,2.4-2.26Z" fill="#f9b01c" stroke-width="0"/>
      <path d="M148.09,145.72h-4.67v-4.66h4.67v4.66Z" fill="#263238" stroke-width="0"/>
      <path d="M154.16,145.72h-4.67v-4.66h4.67v4.66Z" fill="#ee7411" stroke-width="0"/>
      <path d="M160.23,145.72h-4.67v-4.66h4.67v4.66Z" fill="#f9b01c" stroke-width="0"/>
      <path d="M166.3,145.72h-4.67v-4.66h4.67v4.66Z" fill="#f9b01c" stroke-width="0"/>
      <g opacity=".5">
        <path d="M166.3,145.72h-4.67v-4.66h4.67v4.66Z" fill="#fff" stroke-width="0"/>
      </g>
      <path d="M172.37,145.72h-4.67v-4.66h4.67v4.66Z" fill="#f9b01c" stroke-width="0"/>
      <g opacity=".3">
        <path d="M172.37,145.72h-4.67v-4.66h4.67v4.66Z" stroke-width="0"/>
      </g>
      <path d="M178.44,145.72h-4.67v-4.66h4.67v4.66Z" fill="#f9b01c" stroke-width="0"/>
      <g opacity=".7">
        <path d="M178.44,145.72h-4.67v-4.66h4.67v4.66Z" stroke-width="0"/>
      </g>
      <path d="M181.95,150.2v-.94c.02-.83.02-2.05.02-3.63,0-3.17.03-7.77.03-13.47v-.07s-.07,0-.07,0l-47.21-.03h-.1s0,.1,0,.1c0,6.43,0,12.63,0,18.37v.1s.1,0,.1,0l33.89-.05,9.81-.03h2.61s.67,0,.67,0h.22s-.23,0-.23,0h-.69s-2.63,0-2.63,0l-9.83-.03-33.83-.04.1.1c0-5.74,0-11.95,0-18.37l-.1.1,47.21-.03-.07-.07c.02,5.69.04,10.27.04,13.43.02,1.58.02,2.81.02,3.65v1.28s.04-.14.04-.36Z" fill="#263238" stroke-width="0"/>
      <path d="M71.76,57.84H27.93V25.83h43.83v32.01Z" fill="#fff" stroke-width="0"/>
      <path d="M71.76,29.83H27.93v-4h43.83v4Z" fill="#f9b01c" stroke-width="0"/>
      <path d="M30.29,27.76c-.02-.06-.05-.12-.1-.16-.04-.05-.1-.08-.15-.11-.06-.03-.12-.04-.19-.04s-.13.01-.19.04c-.06.03-.11.06-.15.11-.04.05-.08.1-.1.16-.02.06-.03.12-.02.19,0,.06,0,.13.02.19.02.06.05.12.1.16.04.05.1.08.15.11.06.03.12.04.19.04s.13-.01.19-.04c.06-.03.11-.06.15-.11.04-.05.07-.1.1-.16.02-.06.03-.12.02-.19,0-.06,0-.13-.02-.19Z" fill="#fff" stroke-width="0"/>
      <path d="M32.14,27.76c-.02-.06-.06-.11-.1-.16s-.1-.08-.15-.11-.12-.04-.18-.04c-.09,0-.18.03-.25.08-.07.05-.13.12-.17.2-.04.08-.04.17-.03.26.02.09.06.17.12.23.06.06.14.11.22.13.09.02.18.02.26-.01.08-.03.16-.08.21-.15.05-.07.09-.15.1-.24,0-.06,0-.13-.03-.19Z" fill="#fff" stroke-width="0"/>
      <path d="M34,27.76c-.02-.06-.05-.12-.1-.16-.04-.05-.1-.08-.15-.11-.06-.03-.12-.04-.19-.04s-.13.01-.19.04c-.06.03-.11.06-.15.11-.04.05-.08.1-.1.16-.02.06-.03.12-.02.19,0,.06,0,.13.02.19.02.06.05.12.1.16.04.05.1.08.15.11.06.03.12.04.19.04s.13-.01.19-.04c.06-.03.11-.06.15-.11.04-.05.08-.1.1-.16.02-.06.03-.12.02-.19,0-.06,0-.13-.02-.19Z" fill="#fff" stroke-width="0"/>
      <path d="M38.34,49.46h-6.25v-15.71h6.25v15.71Z" fill="#f9b01c" stroke-width="0"/>
      <path d="M47.98,49.46h-6.25v-15.71h6.25v15.71Z" fill="#ebebeb" stroke-width="0"/>
      <path d="M57.61,49.46h-6.25v-15.71h6.25v15.71Z" fill="#fafafa" stroke-width="0"/>
      <path d="M67.24,49.59h-6.25v-15.71h6.25v15.71Z" fill="#263238" stroke-width="0"/>
      <path d="M69.24,54.79H31.37v-3.59h37.86v3.59Z" fill="#f9b01c" stroke-width="0"/>
      <path d="M66.47,56.49l1.32.2-1.44,2.15.72.48,1.44-2.15.67,1.21.82-4.32-3.53,2.43Z" fill="#263238" stroke-width="0"/>
      <path d="M71.82,57.27v-1.68c.02-1.47.02-3.66.02-6.45.01-5.58.03-13.59.05-23.31v-.08s-.09,0-.09,0l-43.83-.02h-.1s0,.1,0,.1c0,11.48,0,22.37,0,32.01v.05s.09,0,.09,0l31.68-.05,8.97-.02h2.37s.61,0,.61,0h.2s-.83,0-.83,0h-2.39s-9-.02-9-.02l-31.62-.05.09.09c0-9.64,0-20.53,0-32.01l-.1.1,43.83-.02-.08-.08c.02,9.69.04,17.68.04,23.26.02,2.79.02,4.97.02,6.46v1.7c0,.38,0,.59,0,.59,0,0,.06-.19.06-.57Z" fill="#263238" stroke-width="0"/>
      <path d="M73.1,167.6H28.47v-17.35h44.63v17.35Z" fill="#fff" stroke-width="0"/>
      <path d="M73.1,153.97H28.47v-3.72h44.63v3.72Z" fill="#f9b01c" stroke-width="0"/>
      <path d="M38.16,161.19h-4.38v-4.38h4.38v4.38Z" fill="#f9b01c" stroke-width="0"/>
      <path d="M40.81,163.84h-4.38v-4.38h4.38v4.38Z" fill="#f9b01c" stroke-width="0"/>
      <path d="M48.6,161.19h-4.38v-4.38h4.38v4.38Z" fill="#f9b01c" stroke-width="0"/>
      <path d="M51.26,163.84h-4.38v-4.38h4.38v4.38Z" fill="#fff" stroke-width="0"/>
      <path d="M51.33,163.54c.02-.23.02-.52.02-.88.02-.77.04-1.87.04-3.21v-.08s-.09,0-.09,0h-4.38s-.1.1-.1.1v1.18c0,.4,0,.76,0,1.15v2.1s.09,0,.09,0c1.33,0,2.44-.03,3.2-.05l.88-.02c.1,0,.2,0,.3-.02h-.33s-.9-.02-.9-.02c-.77-.01-1.86-.04-3.15-.04l.08.08v-2.07s0-2.3,0-2.3l-.1.1h4.38s-.09-.09-.09-.09c.01,1.3.05,2.38.05,3.15.02.36.02.67.02.9,0,.11,0,.22,0,.33.03-.1.06-.21.07-.32Z" fill="#f9b01c" stroke-width="0"/>
      <path d="M58.35,161.19h-4.38v-4.38h4.38v4.38Z" fill="#fff" stroke-width="0"/>
      <path d="M58.4,160.88c.02-.23.02-.52.02-.88.01-.76.04-1.87.04-3.21v-.08s-.09,0-.09,0h-4.38s-.19.19-.1.1v1.14c0,.4,0,.77,0,1.15v2.13s.1,0,.1,0c1.34,0,2.44-.04,3.21-.04l.88-.02c.1,0,.2,0,.29-.02-.11-.01-.22-.01-.33,0l-.9-.02c-.77-.02-1.85-.05-3.15-.05l.09.09v-2.07c0-.38,0-.77,0-1.15v-1.17s-.1.1-.1.1h4.38s-.08-.09-.08-.09c0,1.3.04,2.39.04,3.15.02.36.02.69.02.9v.33c.03-.1.04-.2.05-.29Z" fill="#f9b01c" stroke-width="0"/>
      <path d="M61.01,163.84h-4.38v-4.38h4.38v4.38Z" fill="#fff" stroke-width="0"/>
      <path d="M61.05,163.54c.02-.23.02-.52.02-.88.02-.77.05-1.87.05-3.21v-.08s-.09,0-.09,0h-4.38s-.1.1-.1.1v1.18c0,.4,0,.76,0,1.15v2.13s.09,0,.09,0c1.33,0,2.44-.03,3.2-.05l.88-.02c.1,0,.2,0,.3-.02h-.33s-.9-.02-.9-.02c-.77-.02-1.86-.04-3.15-.04l.08.08v-2.07c0-.38,0-.76,0-1.15v-1.18s-.1.1-.1.1h4.38s-.08-.09-.08-.09c0,1.3.04,2.38.04,3.15.02.36.02.67.02.9,0,.11,0,.22.02.33.03-.1.04-.21.05-.32Z" fill="#f9b01c" stroke-width="0"/>
      <path d="M58.36,161.19h-1.73v-1.73h1.73v1.73Z" fill="#f9b01c" stroke-width="0"/>
      <path d="M67.32,161.19h-4.38v-4.38h4.38v4.38Z" fill="#f9b01c" stroke-width="0"/>
      <path d="M69.97,163.84h-4.38v-4.38h4.38v4.38Z" fill="#f9b01c" stroke-width="0"/>
      <path d="M67.32,161.19h-1.73v-1.73h1.73v1.73Z" fill="#fafafa" stroke-width="0"/>
      <path d="M73.13,167.3v-.88c.02-.8.02-1.96.02-3.45,0-3,.03-7.34.03-12.74v-.07s-.07,0-.07,0l-44.63-.03h-.1s0,.1,0,.1c0,6.07,0,11.93,0,17.35v.1s.1,0,.1,0l32.07-.07,9.27-.03h2.47s.63,0,.63,0h.21s-.22,0-.22,0h-.65s-2.49,0-2.49,0l-9.29-.03-31.98-.05.1.09c0-5.42,0-11.29,0-17.35l-.1.1,44.63-.03-.07-.07c.04,5.38.04,9.71.04,12.7.02,1.49.02,2.65.02,3.44v1.21s.02-.1.02-.3Z" fill="#263238" stroke-width="0"/>
      <path d="M68.93,138.2h-30.97v-53.12h30.97v53.12Z" fill="#fff" stroke-width="0"/>
      <path d="M68.93,89.55h-30.97v-4.48h30.97v4.48Z" fill="#f9b01c" stroke-width="0"/>
      <path d="M49.48,98.19l-2.32.1-1.39,1.81-.37-4.96,4.08,3.05Z" fill="#f9b01c" stroke-width="0"/>
      <path d="M58.88,95.22l.23.18.85.65,2.89,2.2.03-.1-2.24.09h-.11s-.02,0-.02,0l-1.38,1.81.1.03c-.12-1.41-.22-2.63-.3-3.53-.04-.42-.07-.76-.09-1.04-.03-.11-.03-.2-.03-.28v-.1s0,.06,0,.08v.27c.02.25.04.61.07,1.02.06.91.14,2.16.24,3.59v.15s.09-.12.09-.12l1.39-1.81-.05.03h.08s2.24-.1,2.24-.1h.16s-.13-.1-.13-.1l-2.97-2.18-.85-.62-.22-.16s-.05-.04-.07-.05l.09.08Z" fill="#f9b01c" stroke-width="0"/>
      <path d="M48.06,113.15c1.93-1.99,3.49-3.63,3.46-3.65-.02-.02-1.62,1.57-3.55,3.57-1.93,1.99-3.49,3.63-3.46,3.65.02.02,1.62-1.57,3.55-3.57Z" fill="#f9b01c" stroke-width="0"/>
      <path d="M66.01,112.78c0-.12-.01-.24-.03-.35-.02-.16-.04-.32-.08-.47-.23-1.01-.8-1.92-1.61-2.57-.6-.48-1.31-.8-2.07-.92-.76-.12-1.54-.04-2.26.23-.41.15-.8.37-1.15.65-.37.28-.69.62-.95,1-.56.8-.87,1.76-.87,2.74s.3,1.94.87,2.74c.26.38.59.72.96,1,.35.27.73.49,1.15.64.72.27,1.5.35,2.26.23.76-.12,1.48-.44,2.07-.93.81-.65,1.37-1.55,1.6-2.56.04-.16.07-.31.08-.47.02-.12.03-.23.03-.35v-.29c-.03.37-.08.74-.16,1.11-.25.99-.82,1.87-1.62,2.51-.55.43-1.2.73-1.88.87-.79.15-1.61.08-2.36-.21-.41-.15-.79-.36-1.12-.63-.36-.27-.67-.6-.93-.98-.55-.78-.85-1.72-.85-2.68s.3-1.89.85-2.68c.26-.37.57-.7.93-.97.34-.27.72-.48,1.13-.64.7-.27,1.47-.35,2.21-.23.74.12,1.44.42,2.03.9.8.64,1.37,1.52,1.62,2.51.08.36.13.73.16,1.11,0,0,0-.1,0-.27Z" fill="#f9b01c" stroke-width="0"/>
      <path d="M62.09,124.96l.31.29,1.18,1.07v-.05s-5.24,5.94-5.24,5.94l.03-.02-.62.09-1.13.17.07.07.38-2.05v.02c1.4-1.66,2.62-3.09,3.49-4.09.44-.49.78-.88,1.03-1.15.12-.13.22-.23.29-.3.04-.03.07-.06.11-.09-.03-.03-.59.5-1.48,1.5s-2.12,2.4-3.52,4.06c-.13.65-.26,1.34-.41,2.05v.08s.08,0,.08,0l1.13-.17.63-.1h.02v-.02s5.21-5.97,5.21-5.97l.03-.03-.03-.02-1.21-1.05c-.13-.11-.23-.19-.32-.27l-.11-.09s.06.08.09.11Z" fill="#f9b01c" stroke-width="0"/>
      <path d="M50.72,131.95v-.38c0-.36,0-.88,0-1.51,0-1.33.03-3.2.03-5.43v-.05s-.05,0-.05,0h-7.27s-.06.06-.06.06v2.01c0,.66,0,1.31,0,1.93v3.52s0-.02,0-.02h.05s5.28-.02,5.28-.02h1.47s.38,0,.38,0c.04,0,.08,0,.13,0h-.52s-1.48,0-1.48,0l-5.25-.02.05.05v-3.52s0-3.94,0-3.94l-.06.06h7.27s-.05-.05-.05-.05c.03,2.22.03,4.07.03,5.4v1.53s0,.4,0,.4v.14s.04-.1.06-.14Z" fill="#f9b01c" stroke-width="0"/>
      <path d="M42.93,124.57c-.52-.02-1.05,0-1.57.06.52.06,1.05.08,1.57.06.53.02,1.05,0,1.57-.06-.52-.06-1.05-.08-1.57-.06Z" fill="#f9b01c" stroke-width="0"/>
      <path d="M43.41,122.52c-.08,1.18-.08,2.36,0,3.54.08-1.18.08-2.36,0-3.54Z" fill="#f9b01c" stroke-width="0"/>
      <path d="M68.98,137.89v-.76c0-.66,0-1.64,0-2.9.02-2.55.02-6.26.02-10.95.01-9.4.03-22.69.05-38.27v-.1s-.09,0-.09,0h-30.97s-.1,0-.1,0v.1c.02,20.26.02,38.85.02,53.12v.08s.08,0,.08,0l22.64-.04,6.18-.02h1.61c.36,0,.54,0,.54,0h-.56s-1.62,0-1.62,0h-6.2s-22.58-.04-22.58-.04l.08.08c.02-14.27.02-32.86.02-53.12l-.1.1h30.97s-.09-.09-.09-.09c.02,15.56.04,28.82.04,38.21.03,4.7.03,8.42.03,10.97v2.92c0,.34,0,.59,0,.76v.26s.04-.11.04-.3Z" fill="#263238" stroke-width="0"/>
    </g>
  </g>
</svg>
