<svg width="196" height="195" viewBox="0 0 196 195" fill="none" xmlns="http://www.w3.org/2000/svg">
<path d="M0.368652 7.89474C0.368652 3.5346 3.90325 0 8.26339 0H187.474C191.834 0 195.369 3.53459 195.369 7.89474V187.105C195.369 191.465 191.834 195 187.474 195H8.26339C3.90325 195 0.368652 191.465 0.368652 187.105V7.89474Z" fill="#CDEAFC"/>
<mask id="mask0_797_6558" style="mask-type:alpha" maskUnits="userSpaceOnUse" x="0" y="0" width="196" height="195">
<path d="M0.210449 7.89474C0.210449 3.5346 3.74504 0 8.10519 0H187.316C191.676 0 195.21 3.53459 195.21 7.89474V187.105C195.21 191.465 191.676 195 187.316 195H8.10519C3.74505 195 0.210449 191.465 0.210449 187.105V7.89474Z" fill="#CDEAFC"/>
</mask>
<g mask="url(#mask0_797_6558)">
<path d="M208.21 48.5629V93.4707H143.711L141.387 48.8735L208.21 48.5629Z" fill="#E0E0E0"/>
<path d="M141.387 48.8745V93.3774H205.886V48.8745L141.387 48.8745Z" fill="white"/>
<path d="M206.197 93.6815H141.082V48.5684H206.197V93.6815ZM141.692 93.0713H205.581V49.1785H141.692V93.0713Z" fill="#E0E0E0"/>
<path d="M198.902 54.4048H148.375V87.8472H198.902V54.4048Z" fill="white"/>
<path d="M198.903 54.4045H198.653H197.937H195.164L184.752 54.4433L148.381 54.5154L148.525 54.3712C148.525 64.5886 148.525 75.9099 148.525 87.808L148.37 87.6472L198.897 87.6805L198.769 87.808C198.797 77.6294 198.819 69.2869 198.836 63.4737C198.836 60.5727 198.864 58.304 198.869 56.7453C198.869 55.9798 198.869 55.3918 198.869 54.9814C198.869 54.5764 198.869 54.3657 198.869 54.3657C198.869 54.3657 198.869 54.5598 198.869 54.9536C198.869 55.3475 198.869 55.941 198.869 56.6954C198.869 58.2485 198.869 60.5061 198.903 63.396C198.903 69.2259 198.941 77.5962 198.969 87.8025V87.9301H198.842L148.315 87.9634H148.154V87.8025C148.154 75.9043 148.154 64.5831 148.154 54.3657V54.2214H148.304L184.874 54.3324L195.253 54.3712H197.998H198.697L198.903 54.4045Z" fill="#E0E0E0"/>
<path d="M141.387 48.7516C141.785 48.9434 142.157 49.1838 142.496 49.4671C143.156 49.9442 144.055 50.6209 145.025 51.3975C145.996 52.174 146.85 52.9062 147.45 53.4609C147.798 53.7341 148.109 54.0511 148.376 54.4039C147.147 53.5396 145.962 52.6139 144.826 51.6304C143.621 50.7425 142.473 49.781 141.387 48.7516Z" fill="#E0E0E0"/>
<path d="M141.387 93.3775C142.437 92.3443 143.561 91.3878 144.748 90.5153C145.868 89.5602 147.056 88.6888 148.304 87.9082C147.254 88.9402 146.13 89.8949 144.942 90.7649C143.822 91.7205 142.633 92.5937 141.387 93.3775Z" fill="#E0E0E0"/>
<path d="M158.632 64.8215V76.0208H190.427V64.8215H158.632Z" fill="#E0E0E0"/>
<path d="M53.88 47.4427H-6.07666V101.081H53.88V47.4427Z" fill="#FAFAFA"/>
<path d="M53.8801 101.081C53.8801 101.081 53.8801 100.737 53.8801 100.083C53.8801 99.4283 53.8801 98.4631 53.8801 97.2095C53.8801 94.6912 53.8801 91.0136 53.8413 86.3209C53.8413 76.9522 53.8025 63.5785 53.7748 47.4425L53.9079 47.5757H-6.04325L-5.88239 47.4148C-5.88239 66.9289 -5.88239 85.2892 -5.88239 101.054L-6.02661 100.909L37.3392 100.981L49.5702 101.02H52.8096H53.6416H53.9301H53.6583H52.8373H49.6312L37.428 101.054L-6.02661 101.126H-6.16528V100.987C-6.16528 85.2226 -6.16528 66.8623 -6.16528 47.3482V47.1874H-5.99888H53.9523H54.0909V47.3261C54.0576 63.4787 54.0355 76.8967 54.0188 86.2932C54.0188 90.9692 53.9911 94.6136 53.9855 97.1485C53.9855 98.391 53.9855 99.3673 53.9855 99.9996C53.9855 100.632 53.8801 101.081 53.8801 101.081Z" fill="#E0E0E0"/>
<path d="M16.9209 56.973C16.9209 57.0617 13.7647 57.1339 9.87076 57.1339C5.97682 57.1339 2.82617 57.0617 2.82617 56.973C2.82617 56.8842 5.97682 56.8121 9.87076 56.8121C13.7647 56.8121 16.9209 56.8842 16.9209 56.973Z" fill="#E0E0E0"/>
<path d="M42.3204 60.989C42.3204 61.0777 33.6505 61.1498 22.9561 61.1498C12.2616 61.1498 3.6084 61.0888 3.6084 60.989C3.6084 60.8891 12.2782 60.8281 22.9727 60.8281C33.6672 60.8281 42.3204 60.9113 42.3204 60.989Z" fill="#E0E0E0"/>
<path d="M5.44426 67.8228H2.92041V70.3466H5.44426V67.8228Z" fill="#E0E0E0"/>
<path d="M11.6623 67.8228H9.13843V70.3466H11.6623V67.8228Z" fill="#E0E0E0"/>
<path d="M17.997 67.7056H15.4731V70.2294H17.997V67.7056Z" fill="#E0E0E0"/>
<path d="M24.0986 67.8228H21.5747V70.3466H24.0986V67.8228Z" fill="#E0E0E0"/>
<path d="M30.3168 67.8228H27.793V70.3466H30.3168V67.8228Z" fill="#E0E0E0"/>
<path d="M36.5348 67.8228H34.011V70.3466H36.5348V67.8228Z" fill="#E0E0E0"/>
<path d="M42.7531 67.8228H40.2292V70.3466H42.7531V67.8228Z" fill="#EBEBEB"/>
<path d="M5.44426 73.1921H2.92041V75.716H5.44426V73.1921Z" fill="#EBEBEB"/>
<path d="M11.6623 73.1921H9.13843V75.716H11.6623V73.1921Z" fill="#E0E0E0"/>
<path d="M17.8808 73.1921H15.3569V75.716H17.8808V73.1921Z" fill="#EBEBEB"/>
<path d="M24.0986 73.1921H21.5747V75.716H24.0986V73.1921Z" fill="#E0E0E0"/>
<path d="M30.3168 73.1921H27.793V75.716H30.3168V73.1921Z" fill="#E0E0E0"/>
<path d="M36.6457 73.0756H34.1218V75.5994H36.6457V73.0756Z" fill="#E0E0E0"/>
<path d="M42.7531 73.1921H40.2292V75.716H42.7531V73.1921Z" fill="#E0E0E0"/>
<path d="M5.44426 78.5608H2.92041V81.0846H5.44426V78.5608Z" fill="#E0E0E0"/>
<path d="M11.7792 78.4447H9.25537V80.9685H11.7792V78.4447Z" fill="#E0E0E0"/>
<path d="M17.8808 78.5608H15.3569V81.0846H17.8808V78.5608Z" fill="#E0E0E0"/>
<path d="M24.0986 78.5608H21.5747V81.0846H24.0986V78.5608Z" fill="#EBEBEB"/>
<path d="M30.3168 78.5608H27.793V81.0846H30.3168V78.5608Z" fill="#E0E0E0"/>
<path d="M36.5348 78.5608H34.011V81.0846H36.5348V78.5608Z" fill="#E0E0E0"/>
<path d="M42.7531 78.5608H40.2292V81.0846H42.7531V78.5608Z" fill="#E0E0E0"/>
<path d="M5.44426 83.931H2.92041V86.4549H5.44426V83.931Z" fill="#E0E0E0"/>
<path d="M11.6623 83.931H9.13843V86.4549H11.6623V83.931Z" fill="#E0E0E0"/>
<path d="M17.8808 83.931H15.3569V86.4549H17.8808V83.931Z" fill="#E0E0E0"/>
<path d="M24.215 83.8199H21.6912V86.3438H24.215V83.8199Z" fill="#E0E0E0"/>
<path d="M30.3168 83.931H27.793V86.4549H30.3168V83.931Z" fill="#E0E0E0"/>
<path d="M36.5348 83.931H34.011V86.4549H36.5348V83.931Z" fill="#EBEBEB"/>
<path d="M42.7531 83.931H40.2292V86.4549H42.7531V83.931Z" fill="#E0E0E0"/>
<path d="M5.44426 89.3H2.92041V91.8239H5.44426V89.3Z" fill="#E0E0E0"/>
<path d="M11.6623 89.3H9.13843V91.8239H11.6623V89.3Z" fill="#EBEBEB"/>
<path d="M17.8808 89.3H15.3569V91.8239H17.8808V89.3Z" fill="#E0E0E0"/>
<path d="M24.0986 89.3H21.5747V91.8239H24.0986V89.3Z" fill="#E0E0E0"/>
<path d="M30.3168 89.3H27.793V91.8239H30.3168V89.3Z" fill="#E0E0E0"/>
<path d="M36.6457 89.1888H34.1218V91.7127H36.6457V89.1888Z" fill="#E0E0E0"/>
<path d="M42.7531 89.3H40.2292V91.8239H42.7531V89.3Z" fill="#E0E0E0"/>
<path d="M84.0077 86.8615L62.2524 83.0107L59.6566 97.6763L81.4118 101.527L84.0077 86.8615Z" fill="#EBEBEB"/>
<path d="M84.0387 87.0613C83.966 87.1244 83.8861 87.1788 83.8008 87.2233L83.1038 87.6484C82.4731 88.016 81.5901 88.5371 80.5099 89.1734C78.2999 90.4424 75.2534 92.2086 71.893 94.1561L71.8229 94.1984L71.7513 94.1559L71.6202 94.0073L64.9799 86.4131L62.9825 84.0937L62.4484 83.461C62.3814 83.3893 62.322 83.3108 62.2712 83.2269C62.3445 83.2911 62.4135 83.36 62.4777 83.4332L63.0431 84.0458L65.0859 86.3212L71.8021 93.8636L71.9332 94.0123L71.8028 93.993C75.1814 92.0691 78.226 90.3277 80.4532 89.0624L83.0759 87.5867L83.7978 87.1958C83.8739 87.1439 83.9546 87.0989 84.0387 87.0613Z" fill="#E0E0E0"/>
<path d="M59.6862 97.8736C59.6432 97.8481 61.6406 96.1112 64.1374 94.032C66.6343 91.9529 68.6891 90.2822 68.7122 90.3411C68.7353 90.4 66.755 92.1083 64.2799 94.1616C61.8047 96.215 59.7339 97.9018 59.6862 97.8736Z" fill="#E0E0E0"/>
<path d="M75.9778 91.4437C76.0271 91.4149 77.2908 93.6991 78.8009 96.5357C80.311 99.3723 81.4922 101.698 81.4429 101.727C81.3936 101.755 80.1299 99.4712 78.6226 96.6298C77.1153 93.7885 75.9313 91.4677 75.9778 91.4437Z" fill="#E0E0E0"/>
<path d="M122.891 83.5427C123.419 83.2222 123.988 82.974 124.583 82.8049L124.932 81.1409L127.761 81.0909L128.171 82.755C128.771 82.9015 129.348 83.1291 129.885 83.4317L131.317 82.4943L133.352 84.4579L132.465 85.9223C132.785 86.441 133.033 87.0008 133.202 87.5864L134.867 87.9303L134.916 90.7648L133.252 91.1697C133.105 91.7697 132.879 92.3477 132.581 92.8892L133.519 94.3148L131.55 96.3505L130.091 95.4686C129.561 95.7851 128.992 96.0313 128.399 96.2008L128.049 97.8648L125.22 97.9148L124.81 96.2507C124.211 96.1018 123.635 95.8742 123.096 95.574L121.665 96.5114L119.629 94.5422L120.517 93.0834C120.195 92.5555 119.947 91.9864 119.779 91.3916L118.115 91.0421L118.065 88.2132L119.729 87.8027C119.876 87.2042 120.102 86.6278 120.4 86.0887L119.463 84.6576L121.432 82.6219L122.891 83.5094V83.5427ZM124.4 87.309C123.981 87.741 123.7 88.2874 123.592 88.8791C123.484 89.4708 123.554 90.0813 123.793 90.6332C124.032 91.1851 124.43 91.6536 124.936 91.9795C125.441 92.3054 126.032 92.4739 126.633 92.4638C127.235 92.4537 127.82 92.2654 128.314 91.9227C128.808 91.5801 129.19 91.0985 129.41 90.5388C129.631 89.9792 129.68 89.3668 129.553 88.779C129.425 88.1912 129.126 87.6546 128.693 87.2369C128.408 86.9581 128.071 86.7382 127.7 86.5897C127.33 86.4413 126.935 86.3673 126.536 86.3719C126.137 86.3766 125.743 86.4598 125.377 86.6168C125.01 86.7737 124.678 87.0015 124.4 87.2869V87.309Z" fill="#369FFF"/>
<path d="M124.34 87.4615C124.498 87.2687 124.685 87.1021 124.895 86.9678C125.261 86.7307 125.672 86.574 126.103 86.5081C126.533 86.4422 126.973 86.4687 127.393 86.5856C127.812 86.7026 128.202 86.9075 128.537 87.1866C128.871 87.4658 129.143 87.8128 129.333 88.2048C129.607 88.7573 129.71 89.3795 129.627 89.9909C129.538 90.6495 129.242 91.263 128.784 91.7437C128.321 92.2206 127.719 92.5373 127.064 92.6479C126.755 92.6977 126.441 92.6977 126.132 92.6479C125.833 92.6106 125.541 92.5283 125.267 92.4038C124.76 92.1741 124.324 91.8143 124.002 91.361C123.726 90.9643 123.548 90.5082 123.481 90.0297C123.376 89.3379 123.517 88.631 123.88 88.0328C124.006 87.8239 124.166 87.6366 124.352 87.4781C124.352 87.4781 124.168 87.6778 123.936 88.0938C123.61 88.6873 123.492 89.3729 123.603 90.0408C123.675 90.4975 123.853 90.9307 124.124 91.3055C124.434 91.7333 124.851 92.072 125.333 92.2873C125.593 92.4024 125.867 92.479 126.149 92.5147C126.443 92.5617 126.742 92.5617 127.036 92.5147C127.655 92.4093 128.224 92.1102 128.661 91.6605C129.096 91.2033 129.375 90.6212 129.46 89.9964C129.53 89.4272 129.436 88.8499 129.188 88.3324C128.958 87.8554 128.606 87.4478 128.168 87.1509C127.784 86.8948 127.345 86.7332 126.886 86.6794C126.216 86.5927 125.537 86.7333 124.956 87.0788C124.535 87.2951 124.357 87.5003 124.34 87.4615Z" fill="#E0E0E0"/>
<path d="M122.945 83.6013L122.851 83.5511L122.572 83.3893L121.458 82.731H121.491L119.53 84.7951V84.7393L120.477 86.173C120.18 86.7132 119.957 87.2911 119.814 87.8912V87.9246H119.781L118.11 88.343L118.154 88.2817C118.154 89.1742 118.193 90.1282 118.21 91.1267L118.16 91.0598L119.831 91.4056H119.87V91.4447C120.04 92.0327 120.287 92.5955 120.605 93.1183V93.1573V93.1964L119.736 94.7416V94.6412L121.787 96.616H121.686L123.118 95.6677L123.163 95.6398L123.207 95.6677C123.743 95.9654 124.317 96.1905 124.912 96.3371H124.962V96.3873L125.369 98.0608L125.285 97.9995L128.127 97.9493L128.043 98.0162C128.154 97.4584 128.277 96.9005 128.394 96.3426V96.2924H128.444C129.032 96.1274 129.595 95.8814 130.116 95.5617H130.166H130.21L131.675 96.4542H131.57L133.542 94.4069V94.5129C133.224 94.0276 132.907 93.5478 132.6 93.0736L132.572 93.029V92.9844C132.872 92.448 133.099 91.8739 133.247 91.2773V91.2271H133.297L134.968 90.8199L134.907 90.9036C134.907 89.9329 134.89 88.9846 134.857 88.0585L134.924 88.1366L133.252 87.7796H133.208V87.7294C133.042 87.1417 132.798 86.5789 132.483 86.0558V86.0168V85.9777L133.375 84.505V84.5943L131.336 82.6139H131.419L129.982 83.5511H129.948H129.915C129.377 83.2516 128.802 83.0247 128.205 82.8761H128.171V82.8426C128.026 82.2345 127.893 81.6878 127.764 81.169L127.82 81.2081L124.973 81.2416H125.012C124.867 81.911 124.75 82.4633 124.65 82.9151C124.201 83.0376 123.766 83.2058 123.352 83.4172L123.046 83.5734L122.94 83.6292C122.968 83.6028 123 83.5803 123.034 83.5622L123.335 83.3893C123.749 83.1686 124.184 82.9911 124.633 82.8593C124.723 82.4019 124.834 81.8496 124.968 81.1858V81.1523H125.001L127.842 81.0909H127.887V81.13C128.015 81.6488 128.154 82.1955 128.305 82.8036L128.26 82.7645C128.869 82.9123 129.456 83.1412 130.004 83.4451H129.937L131.375 82.5023L131.419 82.4688L131.458 82.5079L133.503 84.4827L133.547 84.5217L133.514 84.5719L132.628 86.0447V85.9666C132.954 86.5026 133.205 87.0806 133.375 87.6848L133.319 87.629L134.99 87.9748H135.052V88.0362C135.052 88.9623 135.091 89.9106 135.107 90.8813V90.9482H135.041L133.369 91.361L133.43 91.2997C133.281 91.9096 133.05 92.4968 132.745 93.0457V92.9453L133.692 94.3846L133.726 94.4404L133.681 94.4906L131.703 96.5379L131.659 96.5881L131.597 96.5546L130.127 95.6621H130.216C129.68 95.9879 129.103 96.2394 128.5 96.4096L128.561 96.3426C128.439 96.9005 128.322 97.4974 128.21 98.0162V98.0887H128.143L125.302 98.1334H125.235V98.0664C125.09 97.5086 124.951 96.9172 124.823 96.3929L124.884 96.4542C124.276 96.3021 123.689 96.0714 123.14 95.7681H123.229L121.792 96.7108L121.736 96.7443L121.692 96.6997L119.647 94.7193L119.603 94.6802L119.636 94.6245C119.948 94.1112 120.249 93.6092 120.527 93.1573V93.2354C120.204 92.6969 119.955 92.1171 119.786 91.5116L119.837 91.5618L118.165 91.2104H118.11V91.1546C118.11 90.1561 118.076 89.2077 118.065 88.3096V88.2594H118.11L119.781 87.8521L119.736 87.9246C119.886 87.3165 120.117 86.7312 120.422 86.1841V86.2399C120.082 85.7211 119.77 85.2358 119.486 84.7951L121.469 82.7589L122.583 83.4283L122.856 83.6069C122.917 83.5734 122.945 83.5957 122.945 83.6013Z" fill="#E0E0E0"/>
<path d="M7.2521 40.7269L-13.7896 47.4624L-9.24906 61.6469L11.7926 54.9114L7.2521 40.7269Z" fill="#369FFF"/>
<path d="M7.37716 40.8644C7.33872 40.9534 7.29231 41.0388 7.23848 41.1195C7.13309 41.297 6.99442 41.53 6.81692 41.8184L5.23604 44.3811L-0.0612679 52.8069L-0.105644 52.8735H-0.183301L-0.366343 52.8014L-9.79611 49.1848L-12.6417 48.0754L-13.4127 47.7648C-13.5049 47.7321 -13.594 47.6913 -13.679 47.6427C-13.5841 47.6615 -13.4912 47.6894 -13.4016 47.7259L-12.6139 48.0033L-9.74619 49.0627L-0.316422 52.6294L-0.127829 52.696L-0.249862 52.7403L5.10291 44.3423C5.78519 43.2884 6.33989 42.4286 6.73926 41.8184L7.18856 41.1362C7.24304 41.04 7.30617 40.9491 7.37716 40.8644Z" fill="#263238"/>
<path d="M2.28505 48.4969C2.31833 48.4525 4.50382 49.8836 7.15525 51.6919C9.80668 53.5002 11.9478 55.02 11.9145 55.02C11.8812 55.02 9.69573 53.6389 7.0443 51.8306C4.39287 50.0223 2.25177 48.5468 2.28505 48.4969Z" fill="#263238"/>
<path d="M133.131 77.3401L112.149 68.4731C111.463 68.1724 110.923 67.6143 110.645 66.9192C110.367 66.224 110.373 65.4474 110.662 64.7568L122.971 35.7103C123.27 35.0233 123.828 34.4819 124.523 34.2036C125.219 33.9253 125.996 33.9326 126.687 34.2238L139.999 39.8577L145.796 54.8417L136.877 75.8982C136.568 76.5833 136.001 77.119 135.3 77.389C134.599 77.6589 133.819 77.6414 133.131 77.3401Z" fill="#369FFF"/>
<path d="M139.992 39.7837L136.528 47.9595C136.391 48.28 136.319 48.6245 136.315 48.9731C136.312 49.3216 136.377 49.6675 136.507 49.9907C136.638 50.314 136.831 50.6082 137.076 50.8566C137.32 51.1049 137.612 51.3025 137.933 51.438L145.789 54.7678L139.992 39.7837Z" fill="#369FFF"/>
<g opacity="0.2">
<path d="M136.327 48.7245C136.075 49.3462 136.041 50.0348 136.23 50.6784C136.419 51.3221 136.82 51.8829 137.368 52.2698C137.441 52.3309 137.518 52.388 137.598 52.4408C138.549 53.0577 144.793 57.1233 144.86 56.9672L145.789 54.7374L137.932 51.4076C137.932 51.4076 135.985 50.538 136.327 48.7245Z" fill="black"/>
</g>
<g opacity="0.3">
<path d="M139.992 39.7837L136.528 47.9595C136.391 48.28 136.319 48.6245 136.315 48.9731C136.312 49.3216 136.377 49.6675 136.507 49.9907C136.638 50.314 136.831 50.6082 137.076 50.8566C137.32 51.1049 137.612 51.3025 137.933 51.438L145.789 54.7678L139.992 39.7837Z" fill="white"/>
</g>
<path d="M134.907 46.9186C133.216 46.4263 131.566 45.8025 129.972 45.053C128.325 44.4312 126.727 43.6859 125.193 42.8232C126.888 43.3108 128.541 43.9347 130.136 44.6888C131.782 45.3059 133.378 46.0514 134.907 46.9186Z" fill="#FAFAFA"/>
<path d="M139.218 54.1577C139.174 54.2618 135.561 52.8348 131.146 50.9617C126.732 49.0887 123.194 47.4982 123.238 47.3867C123.283 47.2752 126.895 48.7171 131.31 50.5827C135.725 52.4483 139.263 54.0537 139.218 54.1577Z" fill="#FAFAFA"/>
<path d="M139.025 58.6327C138.98 58.7368 135.041 57.1462 130.232 55.132C125.423 53.1178 121.558 51.3785 121.603 51.2522C121.648 51.1258 125.579 52.7387 130.396 54.7529C135.212 56.7672 139.069 58.5213 139.025 58.6327Z" fill="#FAFAFA"/>
<path d="M137.472 62.2743C137.427 62.3784 133.495 60.7878 128.686 58.7735C123.878 56.7593 120.013 54.9978 120.05 54.8937C120.087 54.7897 124.034 56.3803 128.843 58.3945C133.651 60.4087 137.524 62.1628 137.472 62.2743Z" fill="#FAFAFA"/>
<path d="M135.941 65.9088C135.896 66.0203 131.957 64.4223 127.148 62.4155C122.339 60.4087 118.474 58.6398 118.519 58.5357C118.563 58.4317 122.495 60.0222 127.311 62.0365C132.128 64.0507 135.985 65.8048 135.941 65.9088Z" fill="#FAFAFA"/>
<path d="M134.394 69.5508C134.35 69.6623 130.411 68.0643 125.602 66.0575C120.793 64.0507 116.928 62.2817 116.973 62.1777C117.017 62.0736 120.956 63.6642 125.765 65.671C130.574 67.6778 134.439 69.4467 134.394 69.5508Z" fill="#FAFAFA"/>
<path d="M97.5552 94.959C108.997 94.959 118.273 85.6833 118.273 74.2412C118.273 62.7991 108.997 53.5234 97.5552 53.5234C86.1131 53.5234 76.8374 62.7991 76.8374 74.2412C76.8374 85.6833 86.1131 94.959 97.5552 94.959Z" fill="white"/>
<path d="M118.273 74.2413C118.273 74.2413 118.273 74.1304 118.24 73.9085C118.206 73.6866 118.201 73.3538 118.173 72.9212C118.173 72.7048 118.145 72.4663 118.129 72.2001C118.112 71.9338 118.045 71.6454 118.001 71.3348C117.908 70.6135 117.764 69.8998 117.568 69.1992C117.085 67.2615 116.31 65.4082 115.272 63.7022C113.768 61.1959 111.75 59.0367 109.351 57.3664C106.952 55.6962 104.227 54.5529 101.355 54.0117C100.496 53.852 99.6263 53.7519 98.7533 53.7122C98.3095 53.7122 97.8602 53.6512 97.4109 53.6567L96.0464 53.7288C95.819 53.7288 95.586 53.7288 95.3586 53.7732L94.6707 53.8786C94.2159 53.9562 93.75 54.0117 93.2896 54.106C91.4011 54.5302 89.5757 55.1977 87.8591 56.0918C87.4265 56.3248 87.0104 56.6021 86.5778 56.8573C86.367 56.9904 86.1451 57.1069 85.9399 57.2567L85.3353 57.7115C83.6558 58.9312 82.1869 60.417 80.9865 62.1102L80.515 62.7426L80.099 63.4193L79.683 64.0738C79.5363 64.2968 79.4065 64.5304 79.2947 64.7727C79.0673 65.2553 78.8343 65.7379 78.5958 66.226L78.0411 67.7459C77.3641 69.8458 77.0052 72.0352 76.9761 74.2413C77.0052 76.4457 77.3642 78.6332 78.0411 80.7312C78.2241 81.2416 78.4127 81.7519 78.5958 82.2566C78.7788 82.7614 79.0617 83.2274 79.2947 83.7044C79.4052 83.9492 79.535 84.1847 79.683 84.4088L80.099 85.0911L80.5095 85.7678L80.9865 86.4002C81.6017 87.2408 82.2745 88.0378 83 88.7854C83.7337 89.4982 84.5138 90.1616 85.3353 90.7712L85.9399 91.226C86.1451 91.3758 86.367 91.4923 86.5778 91.6254C87.0104 91.8805 87.4265 92.1801 87.8591 92.3909C89.5757 93.285 91.4011 93.9525 93.2896 94.3767C93.75 94.4765 94.2159 94.5264 94.6763 94.6041L95.3586 94.7095C95.5915 94.7095 95.819 94.7095 96.0464 94.7538L97.4331 94.8371C97.8824 94.8371 98.3317 94.7982 98.7755 94.7871C99.6486 94.7456 100.518 94.6437 101.377 94.4821C104.25 93.9429 106.976 92.8004 109.375 91.13C111.774 89.4596 113.792 87.2992 115.294 84.7916C116.324 83.0877 117.09 81.2382 117.568 79.3057C117.764 78.6051 117.908 77.8914 118.001 77.1701C118.045 76.8595 118.101 76.571 118.129 76.3048C118.156 76.0385 118.162 75.8 118.173 75.5837C118.203 75.1547 118.225 74.8275 118.24 74.6019C118.24 74.38 118.273 74.2635 118.273 74.2635C118.273 74.2635 118.273 74.38 118.273 74.6019C118.273 74.8238 118.273 75.1566 118.24 75.5837C118.24 75.8056 118.24 76.0441 118.206 76.3159C118.173 76.5877 118.134 76.8706 118.09 77.1812C118.004 77.8983 117.867 78.6083 117.679 79.3057C117.209 81.2592 116.444 83.1296 115.411 84.8526C113.908 87.3947 111.881 89.588 109.465 91.2865C107.05 92.985 104.3 94.15 101.399 94.7039C100.531 94.8671 99.6524 94.9708 98.7699 95.0146C98.3206 95.0146 97.8658 95.0756 97.4109 95.07L96.0297 95.0035C95.7968 95.0035 95.5638 95.0035 95.3308 94.9591L94.6597 94.8371C94.1937 94.7594 93.7222 94.7095 93.2563 94.6096C92.3144 94.4034 91.3877 94.1328 90.4828 93.7998C89.549 93.4666 88.639 93.07 87.7593 92.6127C87.3211 92.3742 86.894 92.0969 86.4613 91.8362C86.245 91.6975 86.0175 91.581 85.8123 91.4312L85.2021 90.9709C84.3697 90.3539 83.5785 89.6832 82.8336 88.9629C82.0971 88.2043 81.4132 87.3962 80.7868 86.5444L80.3042 85.9065L79.8827 85.2187L79.4666 84.5253C79.316 84.2999 79.1843 84.0624 79.0728 83.8153C78.8398 83.3272 78.6013 82.8391 78.3683 82.3454L77.8137 80.7978C77.1299 78.6706 76.7672 76.4533 76.7375 74.2192C76.7546 71.9924 77.1042 69.7806 77.7748 67.6571L78.3295 66.1151L79.0395 64.6396C79.1503 64.3932 79.2801 64.1558 79.4278 63.9296L79.8494 63.2418L80.2654 62.554L80.748 61.9105C81.3758 61.0616 82.0596 60.2555 82.7948 59.4976C83.5396 58.7773 84.3308 58.1066 85.1633 57.4896L85.7735 57.0292C85.9787 56.8795 86.2061 56.763 86.4225 56.6243C86.8551 56.3692 87.2822 56.0696 87.7205 55.8533C89.4607 54.9515 91.3102 54.2784 93.223 53.8509C93.6889 53.7566 94.1604 53.7011 94.6264 53.6234L95.3197 53.518C95.5527 53.518 95.7857 53.518 96.0187 53.4737L97.3998 53.4071C97.8547 53.4071 98.304 53.4459 98.7533 53.4626C99.6374 53.5087 100.517 53.6125 101.388 53.7732C104.289 54.3272 107.038 55.4921 109.454 57.1906C111.87 58.8892 113.897 61.0824 115.4 63.6245C116.433 65.3475 117.198 67.218 117.668 69.1715C117.856 69.878 117.991 70.5973 118.073 71.3237C118.118 71.6398 118.168 71.9283 118.19 72.1945L118.223 72.9212C118.223 73.3483 118.251 73.6756 118.256 73.9085C118.262 74.1415 118.273 74.2413 118.273 74.2413Z" fill="#263238"/>
<path d="M107.379 73.6586C107.108 73.7584 106.83 73.8381 106.547 73.8972L104.234 74.4518C102.276 74.9067 99.5576 75.5224 96.5179 76.188L96.3459 76.2269V75.4226C96.3459 72.1776 96.3459 69.2377 96.3848 67.1022C96.3848 66.0815 96.4236 65.2329 96.4347 64.5839C96.4264 64.2759 96.4449 63.9678 96.4902 63.6631C96.5319 63.9682 96.5504 64.276 96.5456 64.5839C96.5456 65.2329 96.5734 66.0815 96.59 67.1022C96.59 69.2322 96.6344 72.1721 96.6344 75.4226V76.0272L96.4569 75.883C99.4966 75.2229 102.22 74.6404 104.189 74.2189L106.519 73.7585C106.802 73.6987 107.09 73.6652 107.379 73.6586Z" fill="#263238"/>
<path d="M119.754 82.7837C119.774 82.668 119.805 82.5547 119.848 82.4453C119.909 82.229 120.037 81.8906 120.148 81.5023C120.504 80.3386 120.775 79.1502 120.957 77.9468C121.591 73.9703 121.212 69.8981 119.855 66.1071C118.497 62.316 116.206 58.9286 113.192 56.2583C112.289 55.4506 111.328 54.7091 110.318 54.0395C109.963 53.7899 109.669 53.6235 109.486 53.4848C109.385 53.4263 109.289 53.3595 109.198 53.2852C109.31 53.3187 109.417 53.3692 109.514 53.4349C109.708 53.5459 110.013 53.6956 110.379 53.9341C111.422 54.5755 112.409 55.3029 113.33 56.1085C116.409 58.7718 118.745 62.186 120.114 66.0195C121.483 69.8529 121.836 73.9751 121.141 77.9856C120.944 79.1874 120.649 80.371 120.259 81.5245C120.125 81.935 119.981 82.2456 119.904 82.4564C119.866 82.5709 119.816 82.6807 119.754 82.7837Z" fill="#263238"/>
<path d="M123.726 72.5888C123.681 72.5888 123.654 71.7623 123.487 70.4421C123.265 68.7255 122.875 67.0348 122.322 65.3944C121.765 63.7609 121.046 62.1871 120.176 60.6962C119.499 59.548 119.011 58.8823 119.066 58.8546C119.216 58.9796 119.346 59.1253 119.455 59.2873C119.682 59.5868 120.009 60.025 120.364 60.5853C121.308 62.0603 122.072 63.6433 122.639 65.3001C123.21 66.9568 123.582 68.6755 123.748 70.4199C123.809 71.0856 123.826 71.6292 123.826 72.0064C123.823 72.2045 123.789 72.4011 123.726 72.5888Z" fill="#263238"/>
<path d="M76.8707 62.2432C76.8377 62.3538 76.7911 62.46 76.7321 62.5593C76.6322 62.7646 76.4603 63.053 76.2828 63.4468C74.194 67.5967 73.3511 72.2625 73.8561 76.8808C74.361 81.4992 76.1922 85.8726 79.1283 89.473C79.8927 90.4182 80.7231 91.3079 81.6134 92.1355C81.924 92.4351 82.1681 92.6458 82.3511 92.8012C82.4402 92.8762 82.5237 92.9578 82.6007 93.0452C82.4966 92.9909 82.3997 92.9239 82.3123 92.8455C82.1348 92.7069 81.863 92.5072 81.5413 92.2187C80.6148 91.418 79.7558 90.5423 78.973 89.6006C76.3553 86.4827 74.5896 82.74 73.8479 78.737C73.1062 74.734 73.4138 70.6072 74.7407 66.7584C75.132 65.599 75.62 64.4746 76.1996 63.3969C76.3937 63.0086 76.5823 62.7257 76.6932 62.5316C76.7443 62.4307 76.8037 62.3342 76.8707 62.2432Z" fill="#263238"/>
<path d="M71.3294 71.679C71.3793 71.679 71.2739 72.5054 71.2295 73.8367C71.1707 75.5655 71.2878 77.2958 71.579 79.0009C71.8761 80.7077 72.3444 82.3802 72.9768 83.9931C73.4594 85.2301 73.8366 85.9678 73.7922 85.99C73.6674 85.8398 73.563 85.6739 73.4816 85.4963C73.2985 85.1691 73.0545 84.6865 72.7882 84.0708C72.0918 82.4723 71.589 80.7964 71.2905 79.0785C70.996 77.3534 70.9067 75.5995 71.0243 73.8533C71.0742 73.1822 71.1408 72.6441 71.2018 72.2725C71.2173 72.0698 71.2603 71.8701 71.3294 71.679Z" fill="#263238"/>
<path d="M114.706 77.6419C113.924 77.4811 113.292 77.3424 113.292 77.3369C113.292 77.3313 113.93 77.4533 114.712 77.6142C115.494 77.7751 116.126 77.9082 116.121 77.9137C116.115 77.9193 115.483 77.825 114.706 77.6419Z" fill="#263238"/>
<path d="M112.698 82.8832C112.01 82.4783 111.456 82.1455 111.456 82.14C111.456 82.1344 112.011 82.4561 112.709 82.8611C113.408 83.266 113.952 83.5988 113.946 83.6044C113.941 83.6099 113.381 83.2882 112.698 82.8832Z" fill="#263238"/>
<path d="M109.082 87.1659C108.56 86.5557 108.144 86.0565 108.15 86.0565C108.155 86.0565 108.582 86.5391 109.098 87.1659C109.614 87.7927 110.036 88.2753 110.025 88.2753C110.013 88.2753 109.636 87.7705 109.082 87.1659Z" fill="#263238"/>
<path d="M104.306 90.0502C104.012 89.3069 103.779 88.7023 103.785 88.7023C103.79 88.7023 104.034 89.2958 104.339 90.0391C104.644 90.7824 104.866 91.3814 104.855 91.387C104.844 91.3925 104.6 90.7879 104.306 90.0502Z" fill="#263238"/>
<path d="M98.8364 91.2204C98.8031 90.4216 98.7809 89.7782 98.7865 89.7782C98.792 89.7782 98.8309 90.4216 98.8641 91.2204C98.8974 92.0192 98.9252 92.6626 98.9196 92.6626C98.9141 92.6626 98.8752 92.0192 98.8364 91.2204Z" fill="#263238"/>
<path d="M93.2842 90.549C93.5061 89.7836 93.6891 89.1678 93.7002 89.1678C93.7113 89.1678 93.5338 89.7947 93.312 90.5601C93.0901 91.3256 92.9015 91.9413 92.8904 91.9413C92.8793 91.9413 93.0568 91.3145 93.2842 90.549Z" fill="#263238"/>
<path d="M88.2419 88.1195C88.7023 87.465 89.0795 86.9436 89.0906 86.9491C89.1017 86.9547 88.7245 87.5038 88.2641 88.1362C87.8037 88.7685 87.4487 89.2899 87.4487 89.2899C87.4487 89.2899 87.7815 88.7685 88.2419 88.1195Z" fill="#263238"/>
<path d="M84.2757 84.1818C84.9192 83.7103 85.4461 83.3386 85.4517 83.3442C85.4572 83.3497 84.9358 83.7325 84.2868 84.204C83.6378 84.6754 83.1164 85.0415 83.1109 85.036C83.1053 85.0304 83.6268 84.6477 84.2757 84.1818Z" fill="#263238"/>
<path d="M81.7909 79.1672C82.5564 78.9342 83.1776 78.7512 83.1776 78.7567C83.1776 78.7623 82.5619 78.962 81.7965 79.1949C81.031 79.4279 80.4153 79.6054 80.4153 79.5998C80.4153 79.5943 81.031 79.4002 81.7909 79.1672Z" fill="#263238"/>
<path d="M81.0753 73.6201C81.874 73.6201 82.5175 73.6756 82.5175 73.6867C82.5175 73.6978 81.8685 73.6867 81.0753 73.6479C80.2821 73.6091 79.6275 73.5869 79.6331 73.5813C79.6386 73.5758 80.2765 73.5869 81.0753 73.6201Z" fill="#263238"/>
<path d="M82.1957 68.1346C82.9446 68.4231 83.5436 68.656 83.5436 68.6893C83.5436 68.7226 82.9335 68.4674 82.1846 68.1845C81.4358 67.9016 80.8423 67.6631 80.8423 67.6576C80.8423 67.652 81.4524 67.8517 82.1957 68.1346Z" fill="#263238"/>
<path d="M85.0413 63.3137C85.6514 63.8296 86.1507 64.2512 86.1507 64.2567C86.1507 64.2623 85.6459 63.8518 85.0413 63.3359C84.4367 62.8201 83.9319 62.404 83.9319 62.3985C83.9319 62.3929 84.4256 62.8034 85.0413 63.3137Z" fill="#263238"/>
<path d="M89.2903 59.6864C89.7007 60.3687 90.0336 60.9234 90.028 60.9289C90.0225 60.9345 89.6786 60.3742 89.2681 59.6975C88.8576 59.0208 88.5248 58.4605 88.5303 58.455C88.5359 58.4495 88.8798 59.0041 89.2903 59.6864Z" fill="#263238"/>
<path d="M94.4877 57.6232C94.6542 58.4053 94.7873 59.0377 94.7817 59.0377C94.7762 59.0377 94.632 58.4109 94.46 57.6287C94.2881 56.8466 94.1605 56.2198 94.1716 56.2143C94.1827 56.2087 94.3213 56.8466 94.4877 57.6232Z" fill="#263238"/>
<path d="M100.073 57.3676C99.979 58.1608 99.8958 58.7987 99.8902 58.7987C99.8847 58.7987 99.9512 58.1552 100.051 57.362C100.151 56.5688 100.229 55.9309 100.234 55.9309C100.24 55.9309 100.173 56.5633 100.073 57.3676Z" fill="#263238"/>
<path d="M105.448 58.9379C105.104 59.6535 104.816 60.2359 104.81 60.2303C104.805 60.2248 105.077 59.6424 105.421 58.9213C105.764 58.2002 106.053 57.6233 106.064 57.6288C106.075 57.6344 105.792 58.2279 105.448 58.9379Z" fill="#263238"/>
<path d="M110.014 62.1659C109.459 62.7206 108.993 63.1865 108.987 63.181C108.982 63.1754 109.437 62.7095 109.997 62.1437C110.557 61.5779 111.018 61.123 111.023 61.1286C111.029 61.1341 110.579 61.6001 110.014 62.1659Z" fill="#263238"/>
<path d="M113.286 66.6972C112.571 67.0522 111.988 67.3351 111.988 67.3296C111.988 67.324 112.543 67.03 113.275 66.675C114.007 66.32 114.573 66.0371 114.573 66.0427C114.573 66.0482 114.002 66.3422 113.286 66.6972Z" fill="#263238"/>
<path d="M114.917 72.0503L113.48 72.2223C113.48 72.2223 114.118 72.1225 114.912 72.0226C115.705 71.9228 116.343 71.8396 116.343 71.8451C116.343 71.8507 115.705 71.945 114.917 72.0503Z" fill="#263238"/>
<path d="M125.168 70.1368C124.86 71.0734 124.462 71.9781 123.981 72.8382L123.947 72.8992L123.836 73.1266L123.698 72.9159C123.14 72.1369 122.66 71.3045 122.267 70.4308C122.906 71.1467 123.475 71.9232 123.964 72.7494H123.714L123.748 72.6829C124.137 71.7902 124.613 70.9376 125.168 70.1368Z" fill="#263238"/>
</g>
<path d="M100.815 193.028C98.6473 177.102 95.0613 152.661 95.0613 152.661H95.0712L94.0178 143.607L83.4902 143.771L75.3982 173.474L78.7907 193.028H100.815Z" fill="#455A64"/>
<path d="M78.3242 190.169L86.6944 143.221L64.4533 142.901C64.4518 142.902 61.1236 146.504 59.4849 149.961C57.8457 153.408 56.7905 161.643 56.7905 161.643C56.7905 161.643 52.1805 171.984 52.8771 177.268C53.1421 179.283 53.9871 185.768 54.9321 193.028H78.2399L78.3242 190.169Z" fill="#455A64"/>
<path d="M77.7799 193.028C78.7512 185.783 79.5574 179.779 80.1351 175.494C80.4283 173.214 80.6669 171.425 80.8293 170.191C80.9056 169.594 80.9594 169.123 81.0028 168.799C81.0462 168.475 81.0462 168.318 81.0462 168.318C81.0462 168.318 81.014 168.475 80.9594 168.789C80.9056 169.103 80.8405 169.584 80.7537 170.18C80.569 171.414 80.3198 173.204 79.9832 175.473L77.5161 193.028H77.7799Z" fill="#263239"/>
<path d="M62.7029 193.028L64.8077 163.066H64.7976L43.0419 161.963L40.803 193.028H62.7029Z" fill="#263239"/>
<path d="M48.0581 193.028C48.1043 192.079 48.1477 191.153 48.1861 190.276C48.3503 186.342 48.4676 183.148 48.5145 180.933C48.538 179.847 48.5693 178.992 48.5693 178.392V177.496C48.5693 177.496 48.538 177.538 48.538 177.696C48.5302 177.864 48.5067 178.085 48.5067 178.359C48.4833 178.95 48.452 179.805 48.4051 180.901C48.3347 183.106 48.1939 186.3 48.0062 190.234C47.9629 191.125 47.9144 192.065 47.8633 193.028H48.0581Z" fill="#455A64"/>
<path d="M46.7745 193.028L48.3734 177.443L54.2175 162.527L23.8689 161.278L23.8586 161.257V171.028L25.3639 193.028H46.7745Z" fill="#263239"/>
<path d="M79.6342 106.894H68.3379V118.19H79.6342V106.894Z" fill="#EE7160"/>
<path d="M70.2549 57.4724C70.2549 57.4724 68.9002 69.7905 70.6289 76.535L87.4005 75.8113C87.4005 75.8113 83.8113 63.6614 86.0151 58.2956L70.2549 57.4724Z" fill="#EBEBEB"/>
<path d="M84.5764 62.4325C84.5764 62.4917 82.0528 62.6889 78.938 62.8763C75.8136 63.0637 73.29 63.1624 73.28 63.1032C73.28 63.044 75.804 62.8369 78.918 62.6495C82.0424 62.4621 84.566 62.3733 84.5764 62.4325Z" fill="white"/>
<path d="M84.5764 65.2557C84.5764 65.315 82.0527 65.5125 78.9379 65.6998C75.8134 65.8879 73.28 65.9867 73.28 65.9274C73.28 65.8681 75.8037 65.6706 78.9178 65.4825C82.0423 65.2952 84.566 65.1964 84.5764 65.2557Z" fill="white"/>
<path d="M81.7523 68.1087C81.4129 68.2315 81.0726 68.2928 80.7332 68.3088C80.1079 68.4009 79.2203 68.4929 78.2336 68.5691C77.2575 68.6464 76.3585 68.7078 75.734 68.7226C75.3938 68.784 75.043 68.784 74.6921 68.7226C75.0324 68.5998 75.3718 68.5384 75.7227 68.5236C76.348 68.4315 77.2356 68.3395 78.2222 68.2622C79.1984 68.186 80.0973 68.1246 80.7218 68.1087C81.0621 68.0473 81.4129 68.0473 81.7523 68.1087Z" fill="white"/>
<path d="M70.5544 157.011C70.5175 156.834 70.5052 156.648 70.4991 156.45C70.4745 156.097 70.4622 155.578 70.4561 154.934C70.4561 153.262 70.5175 151.591 70.6282 149.93C70.7634 148.04 70.874 146.327 70.9785 144.957C71.0093 144.271 71.0585 143.576 71.1384 142.901C71.1752 143.597 71.1691 144.292 71.1199 144.988C71.0707 146.265 70.954 148.03 70.831 149.971C70.7081 151.913 70.622 153.678 70.5974 154.945C70.5728 156.211 70.5851 157.011 70.5483 157.021L70.5544 157.011Z" fill="#455A64"/>
<path d="M72.5652 148.549C72.243 147.666 72.0514 146.721 71.9991 145.766C71.851 144.822 71.8249 143.856 71.9381 142.901C72.1036 143.835 72.2168 144.77 72.2778 145.715C72.4259 146.65 72.5217 147.594 72.5739 148.539L72.5652 148.549Z" fill="#455A64"/>
<path d="M81.746 146.036C81.6737 146.036 81.6978 145.658 81.1314 145.377C80.9753 145.298 80.7942 145.254 80.6016 145.237C80.4089 145.219 80.2287 145.237 80.0477 145.298C79.8309 145.36 79.6507 145.456 79.5178 145.596C79.3858 145.729 79.3252 145.895 79.3252 146.062C79.3252 146.229 79.3974 146.387 79.5178 146.527C79.6507 146.66 79.8309 146.764 80.0477 146.826C80.2287 146.87 80.4214 146.888 80.6016 146.87C80.7826 146.853 80.9628 146.8 81.1198 146.721C81.6737 146.422 81.6256 146.027 81.6978 146.045C81.77 146.062 81.7576 146.132 81.7335 146.29C81.6853 146.518 81.5292 146.73 81.2884 146.879C81.1073 147.002 80.879 147.081 80.6381 147.116C80.3973 147.151 80.144 147.142 79.9156 147.081C79.6382 147.011 79.3858 146.879 79.2047 146.703C79.0246 146.527 78.9282 146.317 78.9282 146.097C78.9282 145.878 79.0121 145.667 79.1806 145.483C79.3492 145.298 79.5901 145.157 79.8675 145.087C80.0958 145.026 80.3366 144.999 80.5775 145.034C80.8183 145.061 81.0475 145.14 81.2277 145.254C81.481 145.395 81.6496 145.606 81.6978 145.825C81.77 145.974 81.7335 146.062 81.7219 146.062L81.746 146.036Z" fill="#455A64"/>
<path d="M54.0966 94.1854C51.6989 96.3474 49.7196 98.9239 48.281 101.803C46.3221 105.774 34.3645 128.797 36.0174 131.302C37.6702 133.808 42.5471 135.909 43.0368 135.839C43.5266 135.768 52.6886 130.312 52.6886 130.312C52.6886 130.312 58.3919 112.299 58.4531 112.259C58.5143 112.209 54.0864 94.1952 54.0864 94.1952L54.0966 94.1854Z" fill="#E0E0E0"/>
<path d="M100.93 125.261C100.93 125.261 103.167 158.923 102.913 160.701C102.658 162.478 98.2268 171.142 98.2268 171.142L95.2589 160.976L97.678 156.042L93.7546 128.305L100.93 125.25L100.93 125.261Z" fill="#B78876"/>
<path d="M85.5451 91.4035L80.7073 90.6552C80.7073 90.6552 80.9342 99.2411 73.4341 99.5591C64.9234 99.9075 63.4482 90.8805 63.4482 90.8805C63.4482 90.8805 55.2263 92.3871 53.7202 93.76C52.2141 95.1329 59.3528 131.187 59.3528 131.187L58.6719 154.466C58.6719 154.466 67.7913 159.015 78.4584 159.138C81.5838 159.169 84.6893 158.585 87.5877 157.396C90.4869 156.218 93.1071 154.466 95.3148 152.253L97.2847 147.202L93.561 128.524L85.5451 91.4035Z" fill="#E0E0E0"/>
<path d="M85.2825 91.3613C85.2825 91.3613 91.299 93.1269 93.1311 95.5523C94.9531 97.9785 101.521 125.684 101.521 125.684L93.4017 128.78L85.2825 91.372V91.3613Z" fill="#E0E0E0"/>
<path d="M89.529 101.245C89.5186 101.346 89.5186 101.437 89.529 101.538C89.529 101.761 89.5991 102.034 89.6394 102.367C89.7505 103.126 89.9116 104.147 90.1025 105.391C90.5052 107.989 91.0488 111.488 91.6431 115.361C92.2368 119.233 92.7304 122.752 93.1025 125.351C93.2837 126.594 93.4351 127.616 93.5455 128.374L93.6864 129.203C93.717 129.396 93.7372 129.486 93.7468 129.486C93.7573 129.396 93.7573 129.294 93.7468 129.203C93.7468 128.981 93.6969 128.697 93.6663 128.374C93.5962 127.656 93.4754 126.615 93.324 125.331C93.0123 122.762 92.5291 119.223 91.9452 115.32C91.3613 111.417 90.7669 107.899 90.3143 105.36C90.0928 104.086 89.8914 103.055 89.74 102.347C89.6796 102.024 89.6192 101.771 89.5693 101.538C89.5693 101.448 89.5491 101.346 89.5186 101.255L89.529 101.245Z" fill="#263239"/>
<path d="M69.0439 115.366C69.1966 115.636 69.3797 115.886 69.5731 116.135C69.919 116.625 70.4583 117.321 71.1503 118.111C74.7927 122.343 79.2496 125.775 84.2461 128.176C85.192 128.634 85.9857 128.977 86.5352 129.185C86.8201 129.31 87.1058 129.403 87.4005 129.486C87.1359 129.33 86.8608 129.184 86.5759 129.08C86.037 128.842 85.2734 128.488 84.3373 127.989C79.4433 125.494 75.0271 122.104 71.3131 117.997C70.6008 117.207 70.0411 116.561 69.6646 116.094C69.4815 115.833 69.278 115.595 69.0541 115.387L69.0439 115.366Z" fill="#263239"/>
<path d="M90.2244 101.942C90.2546 102.022 91.3307 101.601 92.6858 101.221C94.0409 100.84 95.1768 100.649 95.1664 100.54C93.4327 100.589 91.7293 101.071 90.2244 101.942Z" fill="#455A64"/>
<path d="M54.9236 104.768C55.0466 104.778 55.1696 104.778 55.2823 104.768L56.3176 104.715L60.0896 104.495L72.5638 103.624C77.4432 103.237 81.8507 102.932 85.0487 102.869C86.6371 102.827 87.9392 102.817 88.8306 102.827H89.8662C89.9892 102.838 90.1016 102.838 90.2246 102.827C90.1122 102.796 89.9892 102.775 89.8662 102.785C89.6301 102.785 89.2816 102.743 88.8412 102.722C87.9491 102.68 86.6477 102.649 85.0487 102.659C81.8401 102.659 77.4227 102.943 72.5536 103.331L60.0793 104.285L56.2971 104.61L55.2721 104.715C55.1491 104.715 55.0363 104.726 54.9236 104.757L54.9236 104.768Z" fill="#455A64"/>
<path d="M90.9304 108.303C91.8714 108.322 92.8227 108.248 93.7541 108.091C94.7054 108.018 95.6567 107.852 96.5786 107.603C95.6369 107.584 94.6856 107.658 93.7541 107.815C92.7933 107.889 91.8516 108.045 90.9304 108.303Z" fill="#455A64"/>
<path d="M56.3354 114.644C56.4584 114.665 56.5712 114.665 56.6942 114.644L57.709 114.601C58.5905 114.547 59.8615 114.471 61.4401 114.354C64.5767 114.118 68.933 113.742 73.6994 112.991C76.0774 112.615 78.3325 112.154 80.3826 111.767C82.4227 111.37 84.2777 111.037 85.8463 110.833C87.4142 110.64 88.6754 110.575 89.5569 110.544C90.4278 110.522 90.9198 110.543 90.9305 110.511C90.8173 110.478 90.6943 110.468 90.5713 110.468C90.3359 110.468 89.9874 110.425 89.5569 110.425C88.3064 110.415 87.0657 110.468 85.8152 110.618C84.2473 110.78 82.3916 111.091 80.3416 111.477C78.2915 111.864 76.0364 112.314 73.6584 112.701C68.9125 113.462 64.5767 113.87 61.4401 114.161L57.7192 114.504L56.7045 114.611C56.5815 114.611 56.4584 114.611 56.3457 114.644L56.3354 114.644Z" fill="#455A64"/>
<path d="M76.8101 122.411C77.014 122.431 77.2278 122.431 77.4318 122.411C77.8299 122.411 78.4011 122.331 79.115 122.261C80.5224 122.121 82.4806 121.891 84.6224 121.611C86.7739 121.321 88.6913 121.041 90.1093 120.771C90.8029 120.652 91.374 120.541 91.7615 120.461C91.9549 120.432 92.1589 120.381 92.3425 120.312C92.1385 120.301 91.9247 120.312 91.7208 120.352L90.058 120.572L84.5612 121.331L79.0636 122.071L77.4016 122.311C77.1976 122.321 77.0035 122.361 76.8101 122.421V122.411Z" fill="#455A64"/>
<path d="M58.4536 126.654C58.7097 126.674 58.976 126.654 59.2321 126.626L61.3523 126.444C63.1448 126.281 65.6133 126.032 68.3481 125.745C71.083 125.457 73.5412 125.199 75.3436 124.959L77.4536 124.682C77.7101 124.663 77.9764 124.615 78.2222 124.548C77.9657 124.538 77.6994 124.547 77.4437 124.576L75.3231 124.759C73.5412 124.921 71.0625 125.17 68.3277 125.467C65.5826 125.754 63.1346 126.013 61.3318 126.253L59.2218 126.52C58.9658 126.539 58.6994 126.588 58.4536 126.654Z" fill="#455A64"/>
<path d="M59.1597 136.547C59.2842 136.547 59.3983 136.547 59.5227 136.514L60.5497 136.344L64.3049 135.663C67.4688 135.11 71.8568 134.312 76.7112 133.811C79.1494 133.567 81.4831 133.407 83.61 133.364C85.7262 133.322 87.6557 133.364 89.2532 133.364C90.8507 133.364 92.1685 133.29 93.0706 133.205C93.5171 133.163 93.859 133.13 94.098 133.088C94.2217 133.078 94.3362 133.056 94.4607 133.025C94.3362 133.014 94.2117 133.014 94.098 133.025L93.0599 133.088C92.1578 133.13 90.8615 133.163 89.2532 133.141C87.6457 133.12 85.7055 133.056 83.5993 133.088C81.4938 133.12 79.1287 133.258 76.6805 133.503C71.7842 134.003 67.4066 134.833 64.2427 135.45C62.6659 135.769 61.39 136.057 60.5082 136.227L59.502 136.45C59.3879 136.472 59.2738 136.504 59.17 136.547H59.1597Z" fill="#455A64"/>
<path d="M59.1597 147.617C59.2839 147.657 59.4081 147.679 59.5323 147.689C59.7807 147.729 60.1534 147.77 60.6399 147.801C61.9958 147.883 63.3622 147.842 64.7181 147.689C68.1546 147.341 72.7505 146.123 77.9156 145.356C83.0811 144.589 87.8011 143.975 91.1855 143.453C92.5311 143.279 93.8668 143.043 95.1917 142.726C95.5536 142.624 95.8956 142.511 96.2368 142.368C96.361 142.327 96.4752 142.266 96.5788 142.195C96.4545 142.225 96.3303 142.255 96.2161 142.307C95.8749 142.439 95.5329 142.563 95.181 142.655C94.2601 142.88 92.8731 143.043 91.1756 143.279C87.7804 143.75 83.0704 144.292 77.8849 145.1C72.6987 145.908 68.1029 147.105 64.7078 147.494C63.3725 147.668 62.0165 147.74 60.6606 147.709C59.6876 147.658 59.1597 147.586 59.1597 147.617Z" fill="#455A64"/>
<path d="M91.6365 116.778C92.9565 116.709 94.2546 116.525 95.5412 116.238C96.8506 116.054 98.1373 115.767 99.4027 115.366C98.0827 115.435 96.7732 115.618 95.4866 115.905C94.1771 116.089 92.8905 116.376 91.6365 116.778Z" fill="#455A64"/>
<path d="M93.0595 125.231C93.0595 125.231 93.1856 125.274 93.4059 125.231C93.711 125.178 94.0052 125.072 94.2885 124.923L96.9895 123.604C99.1121 122.582 100.846 121.784 100.814 121.72C100.404 121.795 99.9948 121.923 99.6165 122.114C98.9019 122.391 97.9142 122.806 96.8525 123.327C95.7916 123.838 94.8458 124.337 94.1733 124.731C93.8262 124.955 93.4479 125.125 93.0486 125.242L93.0595 125.231Z" fill="#455A64"/>
<path d="M95.8727 150.675C95.7507 150.684 95.6182 150.71 95.5067 150.736L94.4591 150.973C93.5547 151.174 92.233 151.445 90.5957 151.708C88.9592 151.97 86.9869 152.206 84.8006 152.407C82.6249 152.609 80.1645 152.696 77.6228 152.854C72.5291 153.169 67.9032 153.352 64.5583 153.256C62.8909 153.221 61.5387 153.125 60.6135 153.064L59.546 152.976C59.424 152.967 59.2918 152.967 59.1597 152.976C59.2817 153.011 59.4037 153.029 59.5257 153.037C59.7697 153.072 60.1052 153.125 60.5932 153.177C61.5184 153.274 62.8706 153.395 64.5481 153.457C68.9199 153.553 73.2917 153.448 77.6431 153.125C80.1848 152.967 82.6249 152.862 84.8315 152.652C87.0373 152.442 89.0097 152.18 90.6567 151.892C92.3038 151.603 93.6051 151.305 94.5104 151.078C94.9577 150.973 95.3034 150.868 95.5368 150.798C95.6491 150.763 95.7605 150.719 95.8622 150.667L95.8727 150.675Z" fill="#455A64"/>
<path d="M98.6967 161.009C96.8694 163.632 94.9885 166.224 93.0644 168.795C92.9779 168.899 92.881 169.023 92.7401 169.023C92.5999 169.023 92.459 168.816 92.4158 168.65C92.2324 167.51 92.3942 166.349 92.8914 165.291C93.3887 164.254 93.8106 163.186 94.167 162.087C94.4592 160.937 94.448 159.724 94.9669 158.625C95.248 158.034 95.6371 157.506 95.9294 156.935C96.3402 156.034 97.0856 155.307 98.0265 154.903" fill="#B78876"/>
<path d="M54.9236 106.894C54.9333 107.21 54.9724 107.537 55.031 107.844L55.4409 110.419C55.7923 112.596 56.3096 115.6 56.8952 118.921C57.4809 122.243 58.008 125.237 58.4374 127.403C58.6326 128.446 58.8083 129.304 58.9352 129.969C58.984 130.285 59.0621 130.592 59.1597 130.898C59.1499 130.582 59.1109 130.255 59.0523 129.948C58.945 129.294 58.8181 128.415 58.6424 127.373C58.2813 125.196 57.7737 122.191 57.1881 118.871C56.6024 115.549 56.0753 112.565 55.6459 110.398C55.4409 109.356 55.275 108.488 55.1481 107.834C55.0993 107.517 55.031 107.2 54.9236 106.904L54.9236 106.894Z" fill="#263239"/>
<path d="M45.0393 108.306C45.5252 108.578 46.0408 108.791 46.5664 108.945C47.5183 109.288 48.8272 109.751 50.2948 110.236C51.7723 110.722 53.0911 111.149 54.053 111.433C54.5686 111.623 55.0941 111.752 55.6296 111.836C55.1437 111.551 54.6281 111.326 54.1025 111.16C53.1506 110.817 51.8417 110.355 50.3741 109.869C48.8966 109.383 47.5877 108.957 46.616 108.672C46.1003 108.495 45.5748 108.364 45.0393 108.306Z" fill="#455A64"/>
<path d="M39.3911 118.896C39.5419 119.04 39.7228 119.162 39.9138 119.239C40.4164 119.483 40.9492 119.683 41.492 119.805C42.859 120.138 44.7387 120.526 46.7993 121.069C48.8599 121.601 50.7195 122.135 52.0564 122.534L53.6446 123C53.8255 123.077 54.0266 123.121 54.2175 123.132C54.0366 123.021 53.8456 122.932 53.6446 122.877C53.2827 122.733 52.7399 122.534 52.0765 122.312C50.7497 121.857 48.9001 121.28 46.8295 120.748C44.7588 120.215 42.859 119.849 41.502 119.583C40.9692 119.472 40.4365 119.317 39.9239 119.118C39.753 119.029 39.5721 118.951 39.3911 118.896Z" fill="#455A64"/>
<path d="M50.3525 128.808L59.1595 151.682L56.6638 161.257L40.803 134.924C40.803 134.924 46.4646 128.305 50.3525 128.808Z" fill="#B78876"/>
<path d="M58.7913 151.373L66.926 163.754L66.7331 166.946L56.3799 171.141L55.6296 159.375L58.7806 151.383L58.7913 151.373Z" fill="#B78876"/>
<path d="M54.2382 172.554C54.2382 172.554 55.0552 172.044 56.4306 171.368C56.8028 171.181 57.1855 171.015 57.5784 170.869C57.9921 170.713 58.4678 170.599 58.9538 170.443C59.9362 170.131 60.991 169.746 62.0768 169.257C64.2381 168.291 66.1409 167.334 67.5266 166.658L69.1605 165.827C69.3674 165.733 69.5638 165.618 69.75 165.493C69.5328 165.535 69.3156 165.619 69.1088 165.723L67.4335 166.461L61.9424 168.977C60.8669 169.445 59.8121 169.84 58.8504 170.162C58.3747 170.329 57.899 170.443 57.475 170.62C57.0717 170.776 56.6787 170.952 56.2961 171.16C55.7584 171.451 55.231 171.773 54.7346 172.117C54.5484 172.242 54.3726 172.387 54.2175 172.554H54.2382Z" fill="#263239"/>
<path d="M88.8017 69.2417C88.8017 65.2136 84.0486 58.0372 79.9775 58.1803L69.5521 62.5966C68.9528 62.617 68.3844 62.8624 67.9608 63.2815C67.5371 63.7006 67.2892 64.2526 67.2581 64.8456L66.2249 92.3141C66.1525 94.2262 66.8449 96.0867 68.1572 97.4975C69.4694 98.9082 71.288 99.7465 73.2202 99.8282C75.1525 99.8994 77.043 99.2353 78.4896 97.9677C79.9362 96.7001 80.8355 94.9213 80.9901 93.0199C81.1248 91.067 81.1661 88.8286 81.1661 88.8384C81.1661 88.849 86.4045 88.3174 87.913 81.7029C88.6884 78.4316 88.8124 73.7193 88.8124 69.2417L88.8017 69.2417Z" fill="#B78876"/>
<path d="M86.6945 73.7238C86.6864 73.9166 86.6024 74.0919 86.4679 74.223C86.3334 74.3548 86.1566 74.4249 85.9717 74.4158C85.8795 74.4158 85.7955 74.3982 85.7114 74.3632C85.6274 74.3281 85.5514 74.2756 85.4842 74.2055C85.4169 74.1354 85.3665 74.0568 85.3329 73.9692C85.2993 73.8816 85.2825 73.7849 85.2825 73.6972C85.2912 73.5044 85.3752 73.3292 85.5097 73.1981C85.6442 73.0663 85.8204 72.9962 86.0053 73.0053C86.0981 73.0053 86.1821 73.0228 86.2662 73.0579C86.3502 73.0929 86.4255 73.1455 86.4928 73.2065C86.56 73.2766 86.6105 73.3558 86.6441 73.4434C86.6777 73.5311 86.6945 73.6271 86.6945 73.7147L86.6945 73.7238Z" fill="#263239"/>
<path d="M87.3676 71.5837C87.2535 71.6536 86.6187 71.2974 85.6826 71.2555C84.7364 71.2135 84.0291 71.4998 83.9043 71.4232C83.7895 71.3461 83.9768 71.2555 84.2996 71.1157C84.7256 70.9479 85.2249 70.8641 85.7141 70.892C86.2026 70.9127 86.6603 71.0385 87.0455 71.2482C87.3468 71.4092 87.4508 71.5557 87.3783 71.5837H87.3676Z" fill="#263239"/>
<path d="M77.516 73.7235C77.5073 73.9162 77.4233 74.0914 77.2888 74.2232C77.1543 74.3542 76.9781 74.4243 76.7932 74.4159C76.7005 74.4159 76.6164 74.3984 76.5323 74.3633C76.4483 74.3283 76.373 74.2757 76.3057 74.2056C76.2385 74.1356 76.1881 74.0564 76.1544 73.9688C76.1208 73.8812 76.104 73.7852 76.104 73.6976C76.1121 73.5048 76.1961 73.3296 76.3306 73.1979C76.4651 73.0668 76.6419 72.9968 76.8268 73.0052C76.919 73.0052 77.003 73.0227 77.0871 73.0578C77.1711 73.0928 77.2471 73.1454 77.3143 73.2154C77.3816 73.2855 77.432 73.3647 77.4656 73.4523C77.4992 73.5399 77.516 73.6359 77.516 73.7235Z" fill="#263239"/>
<path d="M78.2038 71.5742C78.0887 71.7152 77.4528 70.9963 76.5141 70.9253C75.5753 70.8552 74.8552 71.4195 74.73 71.2502C74.6049 71.081 74.8034 70.9117 75.1264 70.6431C75.5544 70.291 76.0443 70.1353 76.545 70.1917C77.0356 70.2345 77.5046 70.4885 77.8801 70.9117C78.1721 71.2356 78.2664 71.5313 78.2038 71.5878L78.2038 71.5742Z" fill="#263239"/>
<path d="M81.0548 78.5615C81.4977 78.45 81.9493 78.389 82.4009 78.389C82.6083 78.389 82.807 78.3484 82.8525 78.1857C82.8793 77.9417 82.8525 77.6978 82.7528 77.4839L82.2383 75.6542C81.5245 73.0519 81.0281 70.9172 81.1184 70.8871C81.2087 70.8562 81.8677 72.9404 82.5722 75.5224L83.0599 77.362C83.1776 77.6571 83.1957 77.9824 83.1141 78.2874C83.078 78.3687 83.0331 78.4395 82.9702 78.4907C82.9067 78.5411 82.8344 78.5818 82.7528 78.6021C82.6357 78.633 82.5093 78.633 82.3922 78.633C81.9406 78.6736 81.4884 78.6533 81.0461 78.5615H81.0548Z" fill="#263239"/>
<path d="M81.0462 88.4705C77.7629 88.3275 74.5752 87.3675 71.8679 85.7131C71.8679 85.7131 73.9142 90.1248 80.9396 89.9438L81.0462 88.4796L81.0462 88.4705Z" fill="#AB6550"/>
<path d="M80.2994 80.807C80.1364 80.5612 79.922 80.3686 79.6675 80.2401C79.4124 80.1117 79.1376 80.0475 78.8522 80.0689C78.6484 80.0689 78.4445 80.122 78.2611 80.2076C78.0776 80.2933 77.904 80.4217 77.7719 80.5827C77.639 80.7325 77.5477 80.9252 77.5273 81.1392C77.4971 81.3422 77.5273 81.5563 77.6292 81.7386C77.7613 81.9202 77.9455 82.0486 78.1493 82.124C78.3532 82.1985 78.5766 82.1985 78.791 82.1454C79.2395 82.0169 79.6577 81.7918 80.0141 81.4818C80.1265 81.4064 80.2179 81.3208 80.2896 81.2138C80.3198 81.1606 80.3402 81.0964 80.3402 81.0322C80.3402 80.968 80.3198 80.9038 80.2896 80.8498" fill="#AB6550"/>
<path d="M78.3885 78.6528C78.5354 78.6528 78.4768 79.6685 79.2484 80.4255C80.03 81.1817 81.0563 81.161 81.0462 81.3061C81.0462 81.4512 80.8117 81.4926 80.3818 81.4719C79.815 81.4412 79.2874 81.2024 78.8771 80.7986C78.4862 80.4048 78.2423 79.8651 78.2228 79.2954C78.2127 78.8908 78.3299 78.6528 78.3987 78.6528L78.3885 78.6528Z" fill="#263239"/>
<path d="M78.2187 68.5887C78.1165 68.7405 77.1968 68.6267 76.1137 68.6646C75.02 68.7025 74.1208 68.8543 73.9982 68.7025C73.9368 68.6332 74.1109 68.4941 74.4788 68.3424C74.9693 68.178 75.5105 68.0829 76.0728 68.0642C76.6345 68.0516 77.1863 68.1148 77.6972 68.2539C78.0855 68.3864 78.2489 68.5194 78.2187 68.5887Z" fill="#263239"/>
<path d="M86.6746 68.724C86.5199 68.8447 85.9633 68.6859 85.2797 68.6545C84.5954 68.6164 84.0117 68.6859 83.8841 68.5403C83.8294 68.4703 83.9388 68.344 84.2036 68.2359C84.5501 68.0964 84.9602 68.0396 85.3526 68.0711C85.7539 68.0964 86.1369 68.204 86.4469 68.3815C86.6746 68.5276 86.7388 68.6671 86.6658 68.724H86.6746Z" fill="#263239"/>
<path d="M81.0613 90.2475L81.1961 88.7082C81.1961 88.7082 84.1407 87.9645 85.6701 86.0747C87.4996 83.8537 88.5842 79.2371 88.2329 76.3864C87.9228 73.8762 88.1816 70.447 84.1614 69.5488C82.3947 69.1456 82.7461 65.9544 81.8053 64.2498C80.8447 62.4836 80.9894 61.8949 78.9946 61.5024C77.0519 61.2545 75.0992 61.2752 73.1668 61.5644C73.7559 62.0602 74.1692 62.6179 74.0758 63.1137C73.9518 63.7747 72.8982 65.4174 72.5158 65.9644C71.0691 68.0508 70.2218 70.4884 70.0668 73.0193C69.8911 75.9113 70.6248 78.7926 71.5445 81.5401C72.4642 84.2875 73.6835 89.4006 74.2932 92.2406C74.9025 95.0706 75.0058 100.566 72.9498 102.621C69.4157 106.154 61.6345 104.522 63.1536 103.458C65.582 102.002 67.7107 100.648 67.194 96.7959C66.76 97.9627 65.9333 98.9443 64.869 99.574C63.7943 100.204 62.5439 100.462 61.3142 100.287C62.9366 98.0453 63.6599 95.2673 63.3189 92.5198C62.8022 93.0156 62.2029 93.3974 61.5415 93.6552C60.8802 93.9138 60.1672 94.0378 59.4541 94.0171C58.0384 93.9659 56.6227 93.7279 55.269 93.3148C54.2357 93.0462 53.037 92.5918 52.8303 91.5489C52.603 90.3095 53.9773 89.4105 55.1864 89.0494C56.3954 88.6875 57.8421 88.3057 58.2348 87.1175C58.6791 85.7855 57.4494 84.4528 57.4494 83.048C57.4494 81.2822 59.2165 80.1667 60.3945 78.8753C62.4922 76.5203 62.8126 73.1532 63.1536 70.0546C63.4843 66.946 64.1043 63.5165 66.5223 61.5231C67.0803 61.0996 67.69 60.7484 68.3307 60.4799C68.7544 58.9719 69.7051 57.6601 71.0071 56.7719C72.4125 55.8423 73.9931 55.2226 75.6672 54.9643C78.9433 54.3033 82.3427 54.6855 85.4015 56.0489C86.9209 56.7409 88.2742 57.7324 89.3902 58.9616C90.5063 60.201 91.3536 61.647 91.881 63.2273C92.2836 64.5287 92.4696 65.9437 93.2343 67.0493C93.999 68.1541 95.7557 68.7639 96.7378 67.8236C96.7378 69.1357 96.4691 70.4371 95.9425 71.6452L97.7811 71.4287C98.0399 72.5334 97.8638 73.701 97.2958 74.6925C96.7172 75.6734 95.7971 76.4063 94.7017 76.7269C95.8797 77.7598 95.9731 79.5883 95.4044 81.0343C94.8364 82.4804 93.7304 83.6265 92.635 84.7312C93.503 84.8866 94.2784 85.341 94.8158 86.0334C95.3631 86.7251 95.6317 87.5827 95.5697 88.4603C95.4358 88.9974 95.3944 89.5551 95.4565 90.1029C95.6631 90.9499 96.5311 91.4143 97.1198 92.0547C97.4918 92.4678 97.7605 92.9636 97.8952 93.5007C98.0291 94.0378 98.0192 94.6062 97.8845 95.1433C97.7398 95.6804 97.4711 96.1762 97.0892 96.5786C96.7072 96.9818 96.2311 97.281 95.7045 97.457L94.5264 97.9527C94.5264 97.9527 93.6063 95.8556 92.6557 95.0813C91.705 94.3063 87.4376 91.8894 84.2341 91.373L81.0307 90.8565L81.1134 90.2475H81.0613Z" fill="#263239"/>
<path d="M65.9586 103.272C66.1124 103.333 66.2867 103.364 66.4508 103.364C66.9327 103.364 67.4043 103.24 67.8144 103.004C68.9218 102.418 70.1111 100.938 70.9006 98.8621C71.1057 98.3177 71.239 97.7521 71.321 97.1666C71.3928 96.5393 71.3928 95.9029 71.321 95.2755C71.1159 93.8983 70.6648 92.5622 69.9881 91.3494C69.3216 90.0544 68.4706 88.7693 67.6504 87.4333C66.7891 86.056 66.0611 84.6073 65.4665 83.0968C64.882 81.5963 64.5232 80.0234 64.4104 78.4094C64.3796 77.6489 64.4104 76.8784 64.5232 76.1179C64.636 75.3984 64.8205 74.679 65.0768 73.9908C66.1022 71.2873 67.8759 69.3041 69.3216 67.6696C70.0701 66.8679 70.7571 66.1485 71.3518 65.5014C71.8849 64.9563 72.2745 64.2985 72.4899 63.5585C72.6129 63.0857 72.6026 62.5924 72.4488 62.1402C72.3976 61.986 72.3258 61.8318 72.213 61.7085C72.213 61.7085 72.3053 61.8524 72.3873 62.1607C72.5206 62.6129 72.5206 63.0857 72.3873 63.5277C72.1515 64.2368 71.7516 64.8638 71.2185 65.3879C70.634 66.0251 69.9061 66.7134 69.1576 67.515C67.6811 69.1184 65.8766 71.1229 64.8103 73.888C64.5437 74.5968 64.3489 75.3261 64.2258 76.0661C64.113 76.8373 64.0823 77.6283 64.113 78.4094C64.2156 80.0538 64.5744 81.6777 65.1794 83.2194C65.774 84.7511 66.5123 86.2212 67.394 87.6084C68.2245 88.9551 69.0756 90.2189 69.7318 91.4933C70.3982 92.6855 70.8494 93.9805 71.0647 95.3166C71.2185 96.499 71.0852 97.7011 70.6853 98.8316C69.9471 100.867 68.7987 102.347 67.7632 102.932C67.3633 103.179 66.9224 103.313 66.4508 103.333C66.1227 103.302 65.9586 103.262 65.9484 103.272H65.9586Z" fill="#455A64"/>
<path d="M64.1134 70.1806C64.1134 70.1806 64.3329 69.5216 64.7919 68.5181C65.0614 67.9327 65.4006 67.3999 65.8098 66.9082C66.3187 66.3337 66.9274 65.8629 67.616 65.5183C68.3145 65.1733 69.003 64.7761 69.6516 64.3266C70.1905 63.9398 70.6196 63.4171 70.909 62.8108C71.1085 62.4031 71.1984 61.9327 71.1485 61.4727C71.1485 61.3055 71.0886 61.1382 70.9988 61.0023C70.9988 61.1591 71.0088 61.3264 71.0287 61.4832C71.0287 61.9013 70.909 62.309 70.7194 62.6749C70.41 63.2289 69.9909 63.6994 69.482 64.0548C68.8334 64.4729 68.1548 64.8492 67.4663 65.1838C66.7578 65.5392 66.1191 66.041 65.6002 66.6573C65.1811 67.2009 64.8418 67.7972 64.6023 68.4453C64.4327 68.8526 64.293 69.2816 64.1832 69.7098C64.1134 69.9924 64.0834 70.1597 64.1134 70.1697V70.1806Z" fill="#455A64"/>
<path d="M95.8726 71.2718C95.5127 71.5031 95.1328 71.6948 94.7329 71.8455C93.6131 72.2387 92.3934 72.2387 91.2737 71.8455C90.4539 71.5434 89.7037 71.0801 89.0742 70.4758C88.444 69.8715 87.9345 69.1569 87.5746 68.3511C87.1347 67.4141 86.8444 66.407 86.7044 65.37C86.5948 64.232 86.3149 63.1141 85.895 62.0566C85.4247 61.0494 84.7449 60.1531 83.9051 59.4179C83.0653 58.6928 82.0855 58.1489 81.0258 57.8266C79.2862 57.3231 77.4466 57.3533 75.727 57.9374C74.5673 58.3 73.5175 58.9345 72.6477 59.7905C72.4178 60.0222 72.2078 60.284 72.0279 60.556C71.9579 60.6466 71.9079 60.7473 71.8679 60.8581C72.1279 60.5056 72.4078 60.1732 72.7177 59.861C73.5975 59.0654 74.6376 58.4813 75.7774 58.1388C77.457 57.6051 79.2462 57.5849 80.9258 58.0885C81.9455 58.4108 82.8853 58.9345 83.6851 59.6395C84.4849 60.3445 85.1448 61.2106 85.595 62.1774C86.0149 63.2148 86.2749 64.3025 86.3845 65.4208C86.5244 66.4779 86.8347 67.5052 87.2946 68.472C87.6642 69.2978 88.204 70.0431 88.8639 70.6571C89.5341 71.2718 90.3139 71.7448 91.1633 72.0372C92.3231 72.42 93.5828 72.3797 94.7225 71.9365C95.0328 71.8157 95.3127 71.6545 95.5823 71.4636C95.6727 71.4024 95.7526 71.3323 95.8222 71.2517L95.8726 71.2718Z" fill="#455A64"/>
<path d="M94.4606 93.4484C94.4606 93.4484 94.1198 93.3342 93.5269 93.0858C92.7039 92.7446 91.9459 92.2577 91.2871 91.6682C90.3209 90.788 89.5743 89.7115 89.1246 88.5109C88.5642 87.0519 88.5097 85.4679 88.9814 83.9874C89.4979 82.4249 90.3543 80.9865 90.5186 79.4961C90.6723 78.1919 90.4421 76.8671 89.8492 75.6871C89.454 74.8897 88.905 74.176 88.2243 73.5756C88.0372 73.41 87.8396 73.2651 87.6314 73.1302C87.4882 73.0374 87.4118 72.996 87.4004 73.006C87.4004 73.0167 87.6753 73.2337 88.125 73.6584C88.7513 74.2795 89.2563 74.9933 89.6182 75.7799C90.1566 76.9391 90.3649 78.2126 90.2111 79.4754C90.0249 80.893 89.201 82.3007 88.6521 83.9153C88.1584 85.4571 88.2129 87.1239 88.8172 88.6351C89.3002 89.8672 90.0794 90.9643 91.1009 91.8437C91.7816 92.4441 92.5827 92.9102 93.4505 93.2207C93.6806 93.3135 93.9222 93.3756 94.1637 93.4377C94.241 93.4691 94.3288 93.4791 94.4167 93.4791L94.4606 93.4484Z" fill="#455A64"/>
<path d="M60.9969 62.213C60.8828 59.3111 59.6689 56.5629 57.5939 54.5121C55.5292 52.4612 52.7487 51.241 49.823 51.1179H49.2316C42.6953 51.2205 39.1263 56.7578 39.4064 63.2077L39.4583 89.0382C39.4583 89.0382 49.6673 94.9857 50.0512 95.1908L54.6059 98.4213L54.554 83.9005C54.554 83.9005 60.862 83.2039 61.2148 77.0104C61.3704 73.9956 61.2148 67.802 60.9969 62.2028V62.213Z" fill="#F8BC9E"/>
<path d="M54.9237 83.4839C51.8754 83.3615 48.9356 82.4233 46.4514 80.7711C46.4514 80.7711 48.263 85.2894 54.826 84.9933L54.9237 83.4839Z" fill="#EC9A6E"/>
<path d="M59.1514 66.6458C59.1514 66.834 59.0698 67.0223 58.9392 67.1503C58.8086 67.2872 58.6291 67.3563 58.4495 67.3563C58.3597 67.3563 58.2699 67.3474 58.1883 67.3132C58.1067 67.2789 58.0251 67.2276 57.9598 67.1592C57.8945 67.0907 57.8455 67.014 57.8047 66.9285C57.772 66.8429 57.7476 66.7485 57.7476 66.6547C57.7476 66.4664 57.8292 66.2782 57.9679 66.1496C58.0985 66.0127 58.2781 65.9442 58.4577 65.9442C58.5474 65.9442 58.6372 65.9531 58.7188 65.9873C58.8005 66.0215 58.8821 66.0729 58.9474 66.1324C59.0127 66.2009 59.0617 66.2782 59.1025 66.3638C59.1433 66.4493 59.1596 66.5431 59.1596 66.6376L59.1514 66.6458Z" fill="#263239"/>
<path d="M59.8471 65.2165C59.7336 65.3722 59.0831 64.6504 58.1229 64.5938C57.1627 64.5371 56.44 65.1599 56.3574 64.9901C56.2748 64.8202 56.4297 64.6362 56.7497 64.339C57.173 63.971 57.6789 63.8011 58.1745 63.8294C58.6701 63.8578 59.1554 64.0984 59.5477 64.523C59.8162 64.8485 59.9091 65.1316 59.8471 65.2024V65.2165Z" fill="#263239"/>
<path d="M49.9814 66.6461C49.9814 66.8427 49.8998 67.0227 49.761 67.1508C49.6304 67.2878 49.4508 67.3563 49.2713 67.3563C49.1815 67.3563 49.0917 67.348 49.0101 67.3138C48.9285 67.2795 48.8469 67.2282 48.7816 67.1597C48.7163 67.0912 48.6673 67.0139 48.6265 66.9283C48.5938 66.8427 48.5693 66.7488 48.5693 66.6544C48.5693 66.466 48.651 66.2777 48.7816 66.1496C48.9121 66.0127 49.0917 65.9442 49.2713 65.9442C49.3611 65.9442 49.4508 65.9525 49.5325 65.9867C49.6141 66.0209 49.6957 66.0723 49.761 66.1325C49.8263 66.201 49.8753 66.2777 49.9161 66.3633C49.9487 66.4489 49.9732 66.5434 49.9732 66.6372L49.9814 66.6461Z" fill="#263239"/>
<path d="M49.9631 64.5215C49.8495 64.5993 49.1887 64.2384 48.2389 64.2101C47.289 64.1818 46.556 64.4932 46.4734 64.4082C46.3908 64.3233 46.5456 64.2313 46.8657 64.0827C47.289 63.8987 47.7949 63.8138 48.2905 63.8279C48.7861 63.8421 49.2713 63.9624 49.6637 64.1747C49.9321 64.3375 50.025 64.4861 49.9631 64.5144V64.5215Z" fill="#263239"/>
<path d="M53.5996 72.2125C54.029 72.0714 54.467 71.9961 54.905 71.9849C55.1111 71.9849 55.3001 71.9312 55.343 71.758C55.3688 71.4984 55.3258 71.2275 55.2314 70.9894C55.0682 70.373 54.8878 69.691 54.6989 68.9985C53.9603 66.1748 53.4279 63.8592 53.5223 63.8268C53.6168 63.7943 54.2867 66.0553 55.0252 68.8686L55.5148 70.8708C55.635 71.1842 55.6608 71.5416 55.5921 71.8767C55.5577 71.9632 55.5148 72.0498 55.4546 72.1043C55.3945 72.1692 55.3258 72.2125 55.2485 72.2341C55.1369 72.2662 55.0167 72.2774 54.905 72.2774C54.4756 72.3207 54.0376 72.2991 53.6082 72.2013L53.5996 72.2125Z" fill="#263239"/>
<path d="M50.8393 72.2987C50.98 72.2987 50.9425 73.3279 51.7206 74.0928C52.4988 74.857 53.5113 74.7966 53.5113 74.9393C53.5113 75.082 53.2863 75.1228 52.8551 75.1228C52.3019 75.1024 51.7769 74.8781 51.3644 74.4704C50.9706 74.083 50.7268 73.5529 50.6893 72.9715C50.6706 72.523 50.7831 72.2987 50.8487 72.2987L50.8393 72.2987Z" fill="#263239"/>
<path d="M50.6825 61.2501C50.583 61.5437 49.6575 61.3602 48.5729 61.4581C47.4882 61.5682 46.5926 61.8741 46.4632 61.5927C46.4035 61.4581 46.5727 61.1767 46.9309 60.8952C47.4185 60.5526 47.9559 60.3568 48.5131 60.3078C49.0704 60.2589 49.6277 60.369 50.1452 60.626C50.5233 60.8463 50.7223 61.1032 50.6825 61.2501Z" fill="#263239"/>
<path d="M59.1486 62.3098C58.9882 62.5751 58.4355 62.2593 57.7491 62.1962C57.0627 62.133 56.4833 62.2972 56.3496 62.0067C56.2961 61.8678 56.3941 61.6152 56.6526 61.3752C57.0003 61.0973 57.4014 60.971 57.8026 61.0089C58.2037 61.0468 58.587 61.2615 58.9079 61.6152C59.1397 61.9057 59.1843 62.1835 59.1486 62.3098Z" fill="#263239"/>
<path d="M40.0972 67.6104C39.9949 67.5599 35.9025 66.1955 35.8615 70.3488C35.8104 74.4925 40.0665 73.6899 40.0767 73.5695C40.087 73.4492 40.0972 67.6104 40.0972 67.6104Z" fill="#F8BC9E"/>
<path d="M39.3808 71.9954C39.3808 71.9954 39.3272 72.0446 39.2353 72.093C39.1664 72.1321 39.0898 72.1516 39.0209 72.1516C38.952 72.1516 38.8754 72.1321 38.8065 72.093C38.6074 71.9274 38.439 71.6931 38.3318 71.4197C38.2246 71.1463 38.171 70.8339 38.1863 70.5308C38.1863 70.1793 38.2322 69.838 38.3471 69.5255C38.3777 69.3888 38.4313 69.2717 38.5079 69.174C38.5845 69.0764 38.6763 69.0077 38.7835 68.9686C38.8448 68.9491 38.9137 68.9592 38.9749 68.9882C39.0362 69.0272 39.0821 69.0858 39.1051 69.1639C39.151 69.2811 39.1281 69.3592 39.1434 69.3693C39.1587 69.3787 39.2123 69.3006 39.1893 69.135C39.174 69.0373 39.1281 68.9397 39.0668 68.8811C38.9826 68.7929 38.8678 68.7538 38.7606 68.7734C38.6304 68.803 38.5079 68.8811 38.4084 68.9882C38.3088 69.0959 38.2322 69.242 38.1787 69.3982C38.0408 69.7403 37.9719 70.1207 37.9796 70.5113C37.9796 71.3314 38.3088 72.093 38.7682 72.2688C38.8524 72.2984 38.9443 72.3078 39.0285 72.2883C39.1128 72.2688 39.197 72.2297 39.2736 72.1617C39.3731 72.093 39.4114 72.0055 39.3808 71.9954Z" fill="#EC9A6E"/>
<path d="M35.8572 161.963C35.8679 162.164 35.8572 162.365 35.7931 162.565C35.6863 163.083 35.5367 163.59 35.3444 164.075C34.7035 165.712 33.6459 167.149 32.2571 168.247C30.879 169.345 29.2232 170.063 27.4712 170.327C26.9477 170.411 26.4136 170.442 25.8794 170.432C25.6765 170.442 25.4735 170.432 25.2705 170.369C25.2705 170.316 26.1038 170.369 27.4071 170.126C29.095 169.799 30.6867 169.081 32.0327 168.025C33.3681 166.948 34.4257 165.575 35.1094 164.012C35.6649 162.787 35.8038 161.963 35.8358 161.974L35.8572 161.963Z" fill="#455A64"/>
<path d="M49.2753 164.444C49.2753 164.652 49.2383 164.861 49.1549 165.027C49.0808 165.207 48.9696 165.332 48.8399 165.416C48.7102 165.499 48.5712 165.512 48.4322 165.471C48.2933 165.429 48.1728 165.332 48.0709 165.179C47.969 165.027 47.9041 164.846 47.8763 164.639C47.8485 164.43 47.8671 164.222 47.9134 164.028C47.969 163.834 48.0616 163.667 48.1728 163.556C48.2933 163.445 48.423 163.375 48.5619 163.375C48.6546 163.375 48.7472 163.404 48.8306 163.46C48.914 163.515 48.9974 163.597 49.0622 163.695C49.1271 163.792 49.1827 163.903 49.2197 164.041C49.2568 164.167 49.2753 164.306 49.2753 164.444Z" fill="#455A64"/>
<path d="M62.6789 171.847C62.2562 171.561 61.8769 171.21 61.5517 170.806C59.8935 168.937 58.8422 166.632 58.5279 164.178C58.4412 163.679 58.4304 163.169 58.4954 162.669C58.5496 162.669 58.5713 163.243 58.7447 164.156C59.1674 166.536 60.197 168.778 61.7252 170.679C62.072 171.051 62.3971 171.444 62.6897 171.847H62.6789Z" fill="#455A64"/>
<path d="M54.9236 91.3613C55.1368 91.9993 55.4211 92.6284 55.7664 93.2204C56.2741 94.2593 56.9645 94.9431 57.0356 94.8884C57.1067 94.8337 56.5381 94.1134 56.0405 93.111C55.543 92.1086 55.015 91.3161 54.9337 91.3708L54.9236 91.3613Z" fill="#263239"/>
<path d="M52.3337 90.649L39.7574 80.0648L37.107 84.1449C37.107 84.1449 26.1373 92.1731 24.06 94.454L26.8024 130.932C26.8024 130.932 23.886 150.117 23.6814 151.631C23.4767 153.144 21.7576 166.388 21.7576 166.388C21.5324 168.893 23.5995 171.941 24.019 171.941C24.019 171.941 26.1373 169.404 28.409 169.609C30.6807 169.814 46.0916 173.966 46.0916 173.966L64.8077 169.804L62.8225 132.916L62.1574 108.249L60.5303 98.8098L56.826 95.1184L54.6259 89.3604C54.6259 89.3604 53.9301 96.7137 53.838 96.4274C53.7356 96.1411 52.3337 90.6694 52.3337 90.6694L52.3337 90.649Z" fill="#0166AB"/>
<path d="M37.273 84.301C37.418 84.5504 37.5838 84.7791 37.7806 84.9977C38.1329 85.4341 38.651 86.0469 39.3141 86.7743C40.6299 88.2499 42.557 90.1936 44.6292 92.3759C45.6549 93.4566 46.6288 94.4958 47.4577 95.4827L47.5613 95.5974L47.6649 95.4934C49.074 94.0802 50.0894 92.7392 50.8664 91.8455L51.7782 90.8063C51.9025 90.6924 52.0061 90.5677 52.0994 90.4322C51.9543 90.5154 51.83 90.6193 51.716 90.744C51.4777 90.9626 51.1255 91.3051 50.7421 91.7316C49.9236 92.5937 48.8668 93.9239 47.4681 95.2856H47.6753C46.8464 94.288 45.8725 93.228 44.8468 92.1573C42.7539 89.975 40.806 88.0629 39.4487 86.6188C38.7753 85.9014 38.2262 85.3094 37.8532 84.9038C37.677 84.6859 37.4905 84.4881 37.273 84.301Z" fill="#263239"/>
<path d="M58.4536 150.667V150.103C58.4536 149.713 58.4059 149.17 58.3678 148.493C58.2819 147.078 58.1579 145.057 58.0052 142.586C57.6808 137.602 57.2133 130.711 56.6504 123.102C56.0875 115.492 55.5342 108.621 55.0762 103.637C54.8472 101.145 54.6373 99.1351 54.4847 97.7511C54.3988 97.0841 54.3225 96.541 54.2748 96.1513L54.2175 95.7411L54.2461 96.1612C54.2843 96.5509 54.332 97.0841 54.3988 97.761C54.5228 99.1762 54.6946 101.186 54.8949 103.658C55.3052 108.642 55.8299 115.523 56.3928 123.132C56.9557 130.741 57.4805 137.592 57.824 142.596C58.0148 145.068 58.1674 147.078 58.2724 148.503C58.3296 149.18 58.3773 149.713 58.4059 150.103C58.4059 150.267 58.4346 150.41 58.4537 150.524C58.4537 150.565 58.4441 150.615 58.4441 150.667H58.4536Z" fill="#263239"/>
<path d="M45.0396 158.431C45.0815 158.5 49.0619 156.506 53.9431 153.976C58.8139 151.446 62.7314 149.334 62.6895 149.257C62.6476 149.188 58.6672 151.183 53.786 153.713C48.9153 156.243 44.9977 158.354 45.0396 158.431Z" fill="#263239"/>
<path d="M57.7146 171.142C57.7585 170.889 57.7585 170.636 57.7146 170.384L57.5684 168.343C57.4515 166.615 57.4369 164.251 57.4807 161.615C57.5246 158.989 57.5392 156.594 57.5246 154.877V152.836C57.5246 152.584 57.5246 152.331 57.4515 152.079C57.3784 152.321 57.3492 152.574 57.3492 152.827C57.3492 153.372 57.2907 154.049 57.2468 154.867C57.1737 156.595 57.1153 158.979 57.0568 161.605C57.0129 164.231 57.0568 166.626 57.2761 168.353C57.3638 169.212 57.4807 169.909 57.5684 170.384C57.5684 170.636 57.6269 170.878 57.7 171.121L57.7146 171.142Z" fill="#263239"/>
<path d="M94.913 143.602L63.2621 144.313L62.6897 133.722L100.815 136.845L94.913 143.612V143.602Z" fill="#F8BC9E"/>
<path d="M118.117 110.424L118.465 111.204C115.753 116.465 105.887 135.521 105.887 135.521L93.7602 141.489L64.8079 140.304V138.713L79.7084 132.725L98.3246 133.192L108.323 113.055C108.446 112.805 108.63 112.576 108.855 112.41C109.08 112.233 109.337 112.119 109.613 112.067L118.117 110.424Z" fill="#455A64"/>
<path d="M93.7546 141.489C94.072 141.124 94.357 140.729 94.5875 140.304C95.0584 139.544 95.694 138.495 96.3735 137.341C97.0529 136.187 97.6561 135.096 98.0725 134.316C98.3242 133.9 98.5328 133.474 98.6968 133.016C98.3794 133.38 98.105 133.775 97.8752 134.201C97.4036 134.96 96.768 136.01 96.0885 137.164C95.4091 138.308 94.8067 139.41 94.3903 140.2C94.1378 140.605 93.93 141.041 93.7652 141.489H93.7546Z" fill="#263239"/>
<path d="M91.1194 138.664L78.9282 138.281L88.1371 133.722L97.9908 133.933L91.1291 138.664H91.1194Z" fill="#263239"/>
<path d="M64.8079 138.665C64.9099 138.691 65.0119 138.701 65.114 138.691L65.9813 138.718L69.165 138.8C71.8487 138.863 75.5627 138.981 79.6239 139.126C83.6957 139.261 87.4304 139.353 90.1138 139.371H94.1546C94.2566 139.371 94.3587 139.371 94.4607 139.343C94.3587 139.334 94.2566 139.334 94.1546 139.343L93.2975 139.316L90.1138 139.235C87.4304 139.172 83.726 139.045 79.6549 138.918C75.5831 138.782 71.8589 138.682 69.1956 138.673H65.1548C65.0426 138.664 64.9303 138.664 64.8283 138.673L64.8079 138.665Z" fill="#263239"/>
<path d="M95.8825 140.762C95.9632 140.647 96.0342 140.531 96.0842 140.406L96.6289 139.358C97.1033 138.415 97.7787 137.106 98.5759 135.493L104.89 122.683L109.579 113.015L109.489 113.088L116.014 111.705L117.83 111.297C118.052 111.255 118.264 111.203 118.465 111.13C118.244 111.14 118.022 111.172 117.809 111.224L115.984 111.559L109.438 112.827H109.378L109.348 112.889C107.976 115.676 106.352 118.986 104.607 122.536L98.3741 135.388L96.5079 139.306L96.014 140.385C95.9535 140.51 95.9027 140.647 95.8728 140.783L95.8825 140.762Z" fill="#263239"/>
<path d="M102.813 133.602C102.813 133.602 102.307 133.091 101.285 134.409C100.263 135.727 98.5727 139.548 98.5727 139.548L96.6997 140.406C96.6997 140.406 98.3395 138.465 98.3395 137.668C98.3395 136.871 97.1046 136.871 96.4163 138.015C95.5968 139.19 94.7158 140.324 93.7546 141.387C93.7546 141.387 94.3822 143.716 94.5539 143.603C94.7263 143.491 97.8334 143.328 97.8334 143.328L98.6836 142.929C98.6836 142.929 100.779 142.929 100.89 142.347C101.002 141.764 104.464 139.384 104.464 138.853V135.564C104.464 135.564 106.052 131.671 105.708 131.283C105.364 130.885 103.947 130.027 102.824 133.623L102.813 133.602Z" fill="#F8BC9E"/>
<path d="M103.174 133.755C103.174 133.755 103.236 133.755 103.329 133.795C103.391 133.826 103.442 133.866 103.474 133.926C103.504 133.986 103.525 134.046 103.515 134.116C103.38 134.527 103.215 135.168 103.04 135.949C102.864 136.73 102.678 137.662 102.378 138.603C102.161 139.234 101.821 139.815 101.366 140.316C100.983 140.797 100.632 141.238 100.312 141.638C99.9707 142.029 99.6607 142.449 99.4028 142.901C99.7954 142.55 100.157 142.169 100.477 141.759L101.582 140.477C101.81 140.226 102.016 139.956 102.202 139.675C102.399 139.364 102.554 139.034 102.668 138.683C102.926 137.792 103.143 136.891 103.288 135.979C103.422 135.278 103.546 134.667 103.639 134.136C103.639 134.046 103.608 133.955 103.556 133.886C103.494 133.815 103.422 133.765 103.329 133.745C103.215 133.705 103.164 133.725 103.164 133.745L103.174 133.755Z" fill="#EC9A6E"/>
<path d="M103.639 140.076C104.313 138.49 104.787 136.828 105.051 135.134C104.377 136.721 103.902 138.382 103.639 140.076Z" fill="#EC9A6E"/>
<path d="M97.6789 137.33C97.6789 137.33 97.7626 137.33 97.8934 137.376C98.0616 137.376 98.2298 137.441 98.3516 137.551C98.4824 137.689 98.4353 137.957 98.2858 138.233L97.8374 139.164L97.3889 140.078C97.2305 140.345 97.0623 140.603 96.9405 140.778C96.6699 141.184 96.5481 141.47 96.5855 141.489C96.782 141.304 96.9592 141.11 97.1183 140.889C97.3052 140.668 97.4824 140.446 97.6505 140.207C97.8097 139.921 97.9779 139.607 98.1364 139.275C98.3045 138.943 98.4263 138.639 98.5661 138.335C98.6409 138.188 98.6782 138.021 98.6969 137.865C98.6969 137.781 98.6969 137.708 98.6692 137.625C98.6409 137.551 98.6035 137.477 98.5474 137.422C98.4637 137.357 98.3703 137.302 98.2582 137.275C98.155 137.247 98.0429 137.247 97.9405 137.266C97.7536 137.284 97.6879 137.311 97.6879 137.33H97.6789Z" fill="#EC9A6E"/>
<path d="M41.4884 97.705C41.4264 97.5068 41.3232 97.3085 41.1889 97.1403C40.8687 96.6645 40.5071 96.218 40.0939 95.812C39.4948 95.2069 38.8647 94.6422 38.1933 94.1165C37.4083 93.4027 36.489 92.8277 35.4973 92.4217C34.4644 92.1044 33.3798 91.995 32.2952 92.114C31.4275 92.1933 30.5702 92.3122 29.7231 92.4907C28.9897 92.6199 28.401 92.7389 28.0084 92.8182C27.7915 92.838 27.5849 92.8975 27.3887 92.9768C27.6056 92.9768 27.8225 92.9665 28.0394 92.9269C28.4423 92.8872 29.0414 92.8079 29.7645 92.6992C30.4978 92.5898 31.3552 92.4415 32.3262 92.3915C33.3591 92.2924 34.4127 92.4018 35.4044 92.7088C36.365 93.0957 37.2533 93.6406 38.028 94.3147C38.6995 94.8302 39.3399 95.3758 39.9597 95.9603C40.5071 96.5257 41.0236 97.1102 41.5091 97.7153L41.4884 97.705Z" fill="#263239"/>
<path d="M61.2778 126.673L60.8434 134.523C60.8434 134.523 49.0642 139.97 41.3493 141.934C33.6344 143.895 24.5647 143.59 24.5647 143.59L27.8017 130.823L61.2778 126.662V126.673Z" fill="#F8BC9E"/>
<path d="M83.9278 127.971C83.9586 127.659 83.8861 127.336 83.7403 127.054C83.5836 126.772 83.3544 126.54 83.0627 126.388C82.0318 125.774 79.8751 124.413 79.8751 124.413L73.3538 123.838L61.0093 126.388L60.5718 134.131C60.5718 134.131 66.8638 134.474 68.3223 134.424C69.7807 134.373 73.8438 133.112 73.8438 133.112C73.8438 133.112 80.656 133.949 80.9585 133.586C81.2602 133.224 81.7193 132.8 81.2818 132.538C80.8442 132.276 75.5939 130.965 75.5939 130.965L79.1142 130.703C79.1142 130.703 84.2611 131.752 84.6361 131.59C85.0112 131.44 85.5004 130.804 85.1771 130.331L84.8545 129.856C84.9487 129.614 84.9379 129.343 84.8445 129.101C84.7403 128.859 84.552 128.657 84.3128 128.546L83.8228 128.385L83.9278 127.961V127.971Z" fill="#F8BC9E"/>
<path d="M74.6922 128.093C75.1979 128.264 75.7459 128.339 76.2837 128.329C77.2742 128.396 78.6861 128.254 80.0981 128.623C80.7616 128.84 81.4149 129.086 82.0471 129.37C82.5849 129.578 83.1329 129.758 83.7019 129.909C84.2077 130.079 84.7447 130.174 85.2824 130.193C85.2824 130.155 84.6814 130.013 83.7651 129.72C83.3014 129.568 82.7535 129.379 82.1634 129.134C81.5203 128.84 80.867 128.585 80.1926 128.358C79.487 128.178 78.7704 128.093 78.043 128.102H76.2938C75.3033 128.14 74.7031 128.046 74.6921 128.084L74.6922 128.093Z" fill="#EC9A6E"/>
<path d="M75.3982 126.05C75.8561 126.226 76.3347 126.297 76.8134 126.25C77.9265 126.132 79.0612 126.297 80.1118 126.744C81.3297 127.321 82.4328 127.874 83.2445 128.25C83.6707 128.486 84.1186 128.663 84.5765 128.78C84.191 128.474 83.7648 128.227 83.3277 128.027C82.5368 127.604 81.4546 127.003 80.2159 126.427C79.6231 126.144 78.988 125.98 78.3428 125.956C77.75 125.956 77.2397 125.991 76.8027 126.015C75.9185 126.109 75.4082 126.062 75.3982 126.062L75.3982 126.05Z" fill="#EC9A6E"/>
<path d="M24.0481 93.8858C24.0481 93.8858 20.7939 99.0807 20.279 101.621C19.7641 104.162 18.518 130.908 19.0226 131.414C19.4655 131.827 19.9289 132.209 20.4129 132.561C20.4129 132.561 17.4779 133.19 18.3841 134.719C18.9196 135.638 19.5066 136.526 20.1451 137.373C20.1451 137.373 20.5777 142.319 21.1235 142.443C22.3592 143.001 23.5641 143.631 24.7381 144.313C24.7381 144.313 33.5945 139.521 34.3978 136.99C35.201 134.45 37.0959 129.38 37.0959 129.38L35.5718 125.848L40.1236 104.295C40.1236 104.295 42.5745 97.397 38.1669 94.5781C33.7696 91.7585 25.6958 91.0257 24.0481 93.8759V93.8858Z" fill="#0166AB"/>
<path d="M39.3911 108.316C39.3498 108.418 39.3188 108.532 39.2982 108.635C39.2466 108.871 39.164 109.179 39.0711 109.579C38.8853 110.433 38.617 111.625 38.2764 113.136L35.5518 125.667V125.749L37.0689 129.264V129.151C36.202 131.556 35.3041 134.178 34.303 136.84L34.1482 137.179L33.9108 137.487C33.756 137.703 33.5908 137.899 33.3947 138.074C33.209 138.269 33.0129 138.443 32.8065 138.618C32.6104 138.792 32.4143 138.968 32.2182 139.122C31.4132 139.78 30.5669 140.376 29.7309 140.931C28.0486 142.051 26.3664 143.048 24.7563 143.932H24.8905C24.1165 143.5 23.363 143.089 22.6303 142.709C22.2587 142.513 21.8975 142.329 21.5156 142.175L21.3712 142.113C21.3712 142.113 21.237 142.072 21.237 142.062C21.1957 142.01 21.1544 141.949 21.1338 141.887C21.0615 141.712 21.0099 141.527 20.9583 141.352C20.659 139.965 20.4526 138.547 20.3391 137.128V137.097C19.885 136.511 19.4825 135.925 19.1625 135.39C18.9768 135.113 18.8116 134.856 18.6568 134.589C18.5846 134.465 18.5226 134.342 18.471 134.209C18.4298 134.085 18.4194 133.951 18.4401 133.828C18.5433 133.314 19.0284 133.026 19.4205 132.831C19.7818 132.656 20.1636 132.523 20.5455 132.42H20.6487L20.5558 132.359C20.0604 132.009 19.7095 131.741 19.4825 131.546C19.2554 131.35 19.1419 131.258 19.1316 131.269C19.1316 131.269 19.1316 131.299 19.2038 131.361C19.2761 131.413 19.338 131.494 19.4412 131.597C19.7818 131.896 20.1327 132.183 20.4939 132.451V132.359C20.0914 132.441 19.6992 132.574 19.3173 132.748C19.0903 132.862 18.8839 132.985 18.6878 133.139C18.4607 133.314 18.3059 133.561 18.2337 133.839C18.2027 133.993 18.2027 134.147 18.2337 134.301C18.2956 134.445 18.3575 134.589 18.4401 134.723C18.5949 134.99 18.76 135.257 18.9355 135.534C19.2864 136.121 19.6786 136.665 20.112 137.292V137.241C20.2152 138.67 20.4113 140.098 20.7003 141.506C20.7416 141.702 20.8035 141.898 20.8861 142.092C20.9274 142.216 21.0099 142.328 21.1235 142.401L21.268 142.452L21.4021 142.504C21.7633 142.657 22.1246 142.853 22.4961 143.038C23.2289 143.429 23.9823 143.84 24.746 144.272L24.8079 144.313L24.8802 144.272C26.5005 143.388 28.1931 142.401 29.8857 141.27C30.7527 140.705 31.5989 140.098 32.404 139.45C32.6104 139.286 32.8168 139.122 32.9922 138.926C33.1677 138.741 33.3947 138.577 33.5805 138.371C33.7766 138.176 33.9624 137.971 34.1172 137.755C34.1998 137.642 34.2823 137.538 34.3649 137.426L34.5507 137.035C35.5414 134.342 36.4393 131.762 37.3063 129.337V129.223L35.7788 125.708V125.79C36.8522 120.671 37.7501 116.333 38.39 113.239C38.6996 111.728 38.937 110.515 39.1021 109.662C39.1743 109.261 39.2363 108.953 39.2879 108.706C39.3188 108.573 39.3498 108.439 39.3601 108.306L39.3911 108.316Z" fill="#263239"/>
<path d="M20.3286 132.624C20.3286 132.624 20.4724 132.719 20.7703 132.814C21.1915 132.952 21.6434 133.026 22.0851 133.015C22.4035 133.004 22.7117 132.92 22.9993 132.783C23.3177 132.624 23.6156 132.444 23.9135 132.243C24.5298 131.82 25.1461 131.313 25.8446 130.826C27.221 129.843 28.5153 129.018 29.4398 128.415C29.9636 128.119 30.4567 127.77 30.9189 127.368C30.3642 127.601 29.8404 127.887 29.337 128.215C28.3818 128.786 27.0567 129.578 25.67 130.572C24.9715 131.059 24.3449 131.588 23.7594 132C23.2766 132.412 22.6911 132.687 22.0748 132.793C21.6537 132.814 21.2223 132.793 20.8011 132.687C20.647 132.634 20.493 132.603 20.3286 132.603V132.624Z" fill="#263239"/>
<path d="M20.3286 137.115C20.5166 137.205 20.7151 137.244 20.924 137.244C21.4672 137.283 22.0104 137.194 22.5118 136.976C24.0891 136.234 25.5725 135.341 26.9513 134.321C28.3197 133.291 29.6255 132.181 30.8581 130.992C31.3386 130.537 31.7042 130.171 31.9549 129.913C32.1012 129.794 32.2265 129.645 32.331 129.487C31.7564 129.903 31.2132 130.358 30.7014 130.844C29.7195 131.706 28.372 132.895 26.7633 134.084C25.3949 135.094 23.9429 135.996 22.4178 136.789C21.9582 137.016 21.4463 137.135 20.9345 137.135C20.736 137.125 20.5375 137.115 20.3286 137.125V137.115Z" fill="#263239"/>
<path d="M60.5822 134.572C60.8328 134.652 61.0833 134.678 61.3339 134.692L63.4009 134.853L66.4597 135.04L68.2449 135.135C68.5789 135.108 68.9025 135.026 69.2157 134.919L70.1762 134.624C71.5124 134.196 72.7652 133.768 73.9034 133.379H73.8508C75.5529 133.58 76.9935 133.74 78.0166 133.834L79.2067 133.929C79.3529 133.942 79.4882 133.942 79.6343 133.929C79.499 133.861 79.3629 133.82 79.2168 133.808L78.0266 133.607C77.0144 133.446 75.5737 133.245 73.8616 133.016H73.8091L70.0927 134.236L69.1322 134.531C68.8399 134.638 68.5372 134.705 68.224 134.732L66.4388 134.651L63.3799 134.544L61.313 134.504C61.0624 134.49 60.8223 134.504 60.5718 134.544L60.5822 134.572Z" fill="#EC9A6E"/>
<path d="M45.7452 55.2665H45.7064C44.7648 55.9869 44.1532 57.0218 43.9881 58.1582V58.2698C43.7551 59.9034 43.8037 61.5369 43.5513 63.1806C43.2989 64.8142 42.7164 66.4481 41.4641 67.5439C40.9496 68.0001 40.0371 68.315 39.6197 67.7874C39.4741 67.5642 39.4061 67.3102 39.4061 67.0464C39.0857 63.14 37.9694 59.67 37.9791 55.5912C37.9791 55.0433 38.1053 54.5055 38.3577 54.0083C38.6198 53.5213 38.9887 53.0952 39.4546 52.7705C40.3477 52.1617 41.4447 51.5225 42.4446 51.9791C43.4445 52.4357 44.7259 54.2113 45.5025 54.9621" fill="#263239"/>
<path d="M41.7123 53.233C40.7566 51.7898 43.377 49.704 45.2884 49.1702C47.1998 48.6364 49.7278 49.4767 51.6289 50.0599C52.8313 50.4355 54.0336 50.9496 55.2976 50.9001C56.1402 50.821 56.9726 50.6233 57.7536 50.3169C58.5346 50.0105 59.3875 49.8523 60.2405 49.8622C60.6618 49.8622 61.0831 49.9907 61.4428 50.1983C61.8025 50.4059 62.0902 50.7123 62.2855 51.0682C62.604 51.7997 62.1519 52.808 61.2989 52.9167C61.5661 52.7783 61.8744 52.7091 62.1724 52.6992C62.4704 52.6893 62.7787 52.7585 63.0562 52.887C63.3337 53.0156 63.57 53.2034 63.7447 53.4307C63.9194 53.6581 64.0427 53.9349 64.0838 54.2117C64.1249 54.4983 64.0941 54.785 64.0016 55.0519C63.8989 55.3188 63.7344 55.5659 63.5084 55.7636C63.2823 55.9613 63.0151 56.0997 62.7171 56.1788C62.4191 56.2579 62.1108 56.2678 61.8128 56.2085C62.3574 55.8131 63.2103 56.4655 63.1384 57.0981C63.0665 57.4145 62.902 57.711 62.6657 57.9483C62.4293 58.1855 62.1416 58.3733 61.8128 58.4722C60.1788 59.1345 58.3085 58.917 56.6335 58.3931C54.9585 57.8692 53.4067 57.0487 51.7214 56.4853C50.0464 55.9218 47.2718 54.9036 45.6173 55.4671C44.3944 55.8724 42.8427 56.9499 42.8427 56.9499L42.0206 56.2777C41.8048 55.991 41.6712 55.6747 41.6198 55.3287C41.5273 54.6565 41.5581 53.9645 41.6917 53.2923" fill="#263239"/>
</svg>
