<svg width="196" height="195" viewBox="0 0 196 195" fill="none" xmlns="http://www.w3.org/2000/svg">
<path d="M0.789551 7.89474C0.789551 3.5346 4.32415 0 8.68429 0H187.895C192.255 0 195.79 3.53459 195.79 7.89474V187.105C195.79 191.465 192.255 195 187.895 195H8.68429C4.32415 195 0.789551 191.465 0.789551 187.105V7.89474Z" fill="#D9D9D9"/>
<mask id="mask0_119_741" style="mask-type:alpha" maskUnits="userSpaceOnUse" x="0" y="0" width="196" height="195">
<path d="M0.789551 7.89474C0.789551 3.5346 4.32415 0 8.68429 0H187.895C192.255 0 195.79 3.53459 195.79 7.89474V187.105C195.79 191.465 192.255 195 187.895 195H8.68429C4.32415 195 0.789551 191.465 0.789551 187.105V7.89474Z" fill="#D9D9D9"/>
</mask>
<g mask="url(#mask0_119_741)">
<path d="M198.706 37.9028H172.727V64.9827H198.706V37.9028Z" fill="#E0E0E0"/>
<path d="M196.946 37.9027H170.967V64.9826H196.946V37.9027Z" fill="#FAFAFA"/>
<path d="M196.938 64.9937H170.959V37.8948H196.938V64.9937ZM170.959 64.9747H196.938V37.9253H170.975L170.959 64.9747Z" fill="#E0E0E0"/>
<path d="M193.456 41.545H174.461V61.3445H193.456V41.545Z" fill="#FAFAFA"/>
<path d="M174.461 61.4738C174.326 61.6726 174.168 61.8554 173.992 62.0186C173.687 62.3386 173.261 62.7805 172.784 63.2453C172.308 63.7101 171.866 64.133 171.542 64.4339C171.377 64.6065 171.193 64.7599 170.994 64.8911C171.127 64.6917 171.283 64.5088 171.459 64.3463C171.763 64.0263 172.19 63.5844 172.67 63.1196C173.15 62.6548 173.588 62.2281 173.912 61.9309C174.077 61.7584 174.261 61.605 174.461 61.4738Z" fill="#E0E0E0"/>
<path d="M193.456 61.4281C193.655 61.5627 193.838 61.72 194.001 61.8967C194.321 62.1977 194.763 62.6244 195.224 63.1044C195.685 63.5844 196.116 64.0188 196.413 64.3426C196.585 64.5077 196.739 64.6917 196.87 64.8912C196.668 64.7615 196.485 64.6051 196.325 64.4264C196.005 64.1216 195.563 63.6949 195.098 63.2149C194.634 62.7349 194.207 62.2967 193.91 61.9729C193.737 61.8106 193.584 61.6276 193.456 61.4281Z" fill="#E0E0E0"/>
<path d="M193.402 41.5945C193.543 41.3957 193.707 41.2141 193.89 41.0535C194.195 40.7335 194.622 40.2916 195.098 39.8306C195.574 39.3696 196.016 38.9391 196.34 38.6419C196.504 38.4683 196.688 38.3149 196.888 38.1848C196.755 38.3847 196.598 38.5677 196.42 38.7296C196.119 39.0496 195.692 39.4915 195.212 39.9563C194.732 40.4211 194.29 40.8478 193.966 41.1449C193.798 41.3178 193.608 41.4688 193.402 41.5945Z" fill="#E0E0E0"/>
<path d="M174.407 41.6442C174.207 41.5107 174.024 41.3534 173.863 41.1756C173.543 40.8746 173.101 40.4479 172.64 39.9679C172.179 39.4879 171.748 39.0497 171.451 38.7259C171.277 38.5618 171.124 38.3777 170.994 38.1773C171.191 38.3127 171.373 38.4699 171.535 38.6459C171.855 38.9469 172.297 39.3774 172.762 39.8536C173.226 40.3298 173.657 40.7756 173.954 41.0994C174.127 41.2617 174.279 41.4447 174.407 41.6442Z" fill="#E0E0E0"/>
<path d="M193.403 61.3444C193.403 61.3444 193.403 61.3101 193.403 61.2492C193.403 61.1882 193.403 61.0892 193.403 60.9711C193.403 60.7234 193.403 60.3653 193.403 59.9005C193.403 58.9633 193.403 57.6146 193.384 55.866C193.384 52.3991 193.361 47.4578 193.346 41.545L193.418 41.6174H174.476L174.56 41.5336C174.56 48.7988 174.56 55.5993 174.56 61.3444L174.487 61.272L188.202 61.3101L192.054 61.3292H193.075H192.069H188.233L174.472 61.3673H174.4V61.2949C174.4 55.5802 174.4 48.7607 174.4 41.484V41.3964H174.46H193.403H193.475V41.4726C193.475 47.4044 193.448 52.361 193.437 55.8431C193.437 57.5689 193.437 58.9252 193.418 59.8586C193.418 60.3196 193.418 60.6701 193.418 60.9139C193.418 61.0282 193.418 61.1196 193.418 61.1844C193.418 61.2381 193.413 61.2917 193.403 61.3444Z" fill="#E0E0E0"/>
<path d="M187.128 48.2731H180.789V54.6126H187.128V48.2731Z" fill="#EBEBEB"/>
<path d="M198.706 71.4061H172.727V98.486H198.706V71.4061Z" fill="#E0E0E0"/>
<path d="M196.946 71.4061H170.967V98.486H196.946V71.4061Z" fill="#FAFAFA"/>
<path d="M196.938 98.4973H170.959V71.3984H196.938V98.4973ZM170.959 98.4783H196.938V71.4289H170.975L170.959 98.4783Z" fill="#E0E0E0"/>
<path d="M193.456 75.0483H174.461V94.8478H193.456V75.0483Z" fill="#FAFAFA"/>
<path d="M174.461 94.9805C174.325 95.1785 174.167 95.3611 173.992 95.5253C173.687 95.8453 173.261 96.2873 172.784 96.7483C172.308 97.2092 171.866 97.6398 171.542 97.9369C171.377 98.1095 171.193 98.2628 170.994 98.3941C171.127 98.1947 171.283 98.0118 171.459 97.8493C171.763 97.5293 172.19 97.0873 172.67 96.6225C173.15 96.1578 173.588 95.7311 173.912 95.4339C174.075 95.2603 174.259 95.1079 174.461 94.9805Z" fill="#E0E0E0"/>
<path d="M193.456 94.9314C193.655 95.066 193.838 95.2233 194.001 95.4C194.321 95.701 194.763 96.1277 195.224 96.6077C195.685 97.0877 196.116 97.522 196.413 97.8459C196.587 98.0107 196.741 98.1962 196.87 98.3983C196.67 98.2648 196.487 98.1075 196.325 97.9297C196.005 97.6287 195.563 97.1982 195.098 96.722C194.634 96.2458 194.207 95.8 193.91 95.4762C193.737 95.3139 193.584 95.1309 193.456 94.9314Z" fill="#E0E0E0"/>
<path d="M193.402 75.1018C193.535 74.9001 193.693 74.7158 193.871 74.5532C194.176 74.2332 194.603 73.7913 195.079 73.3303C195.555 72.8693 195.997 72.4426 196.321 72.1416C196.485 71.968 196.669 71.8146 196.869 71.6844C196.736 71.8844 196.579 72.0674 196.401 72.2292C196.1 72.5493 195.673 72.9912 195.193 73.456C194.713 73.9208 194.271 74.3475 193.947 74.6446C193.783 74.8165 193.6 74.9698 193.402 75.1018Z" fill="#E0E0E0"/>
<path d="M174.407 75.1475C174.207 75.0141 174.024 74.8567 173.863 74.6789C173.543 74.378 173.101 73.9513 172.64 73.4712C172.179 72.9912 171.748 72.5569 171.451 72.2331C171.278 72.068 171.125 71.8839 170.994 71.6844C171.193 71.816 171.375 71.9722 171.535 72.1492C171.855 72.4502 172.297 72.8807 172.762 73.3569C173.226 73.8332 173.657 74.2789 173.954 74.6027C174.127 74.765 174.279 74.948 174.407 75.1475Z" fill="#E0E0E0"/>
<path d="M193.403 94.8477C193.403 94.8477 193.403 94.8134 193.403 94.7525C193.403 94.6915 193.403 94.5925 193.403 94.4744C193.403 94.2267 193.403 93.8686 193.403 93.4076C193.403 92.4666 193.403 91.1218 193.384 89.3693C193.384 85.9024 193.361 80.9611 193.346 75.0483L193.418 75.1207H174.476L174.56 75.0369C174.56 82.3021 174.56 89.1026 174.56 94.8477L174.461 94.7715L188.176 94.8096H192.028H193.049H192.043H188.206L174.446 94.8477H174.373V94.7753C174.373 89.0607 174.373 82.2412 174.373 74.9645V74.9607H174.461H193.403H193.475V75.0369C193.475 80.9687 193.449 85.9252 193.437 89.4074C193.437 91.1332 193.437 92.4895 193.418 93.4267C193.418 93.8839 193.418 94.2344 193.418 94.4782C193.418 94.5925 193.418 94.6839 193.418 94.7487C193.416 94.782 193.41 94.8151 193.403 94.8477Z" fill="#E0E0E0"/>
<path d="M187.128 81.7758H180.789V88.1153H187.128V81.7758Z" fill="#EBEBEB"/>
<path d="M116.334 104.421L116.559 104.802C116.813 105.221 117.18 105.559 117.618 105.777L117.999 105.968L117.618 106.197C117.198 106.448 116.859 106.816 116.643 107.256L116.449 107.637L116.224 107.256C115.971 106.836 115.604 106.498 115.165 106.28L114.784 106.086L115.165 105.861C115.584 105.609 115.923 105.241 116.14 104.802L116.334 104.421Z" fill="#E0E0E0"/>
<path d="M156.485 93.9099L156.71 94.2909C156.96 94.7155 157.328 95.0583 157.769 95.2776L158.15 95.4719L157.769 95.6967C157.349 95.9493 157.011 96.3169 156.794 96.7558L156.599 97.1368L156.375 96.7558C156.121 96.337 155.754 95.9988 155.316 95.7805L154.935 95.5862L155.316 95.3614C155.735 95.1088 156.074 94.7413 156.291 94.3023L156.485 93.9099Z" fill="#E0E0E0"/>
<path d="M136.027 81.1822L136.141 81.3689C136.267 81.5787 136.451 81.748 136.671 81.8565L136.869 81.9556L136.682 82.0661C136.47 82.1926 136.3 82.3779 136.191 82.5994L136.095 82.7937L135.981 82.607C135.856 82.3964 135.672 82.2269 135.452 82.1194L135.254 82.0203L135.444 81.906C135.654 81.7796 135.823 81.5959 135.932 81.3765L136.027 81.1822Z" fill="#E0E0E0"/>
<path d="M151.571 94.0508L151.681 94.2375C151.809 94.4475 151.994 94.6167 152.215 94.7252L152.409 94.8242L152.222 94.9347C152.012 95.0625 151.843 95.2475 151.735 95.4681L151.636 95.6624L151.525 95.4757C151.398 95.2657 151.212 95.0965 150.992 94.988L150.798 94.889L150.984 94.7785C151.194 94.6508 151.363 94.4657 151.472 94.2451L151.571 94.0508Z" fill="#E0E0E0"/>
<path d="M136.835 107.789L136.949 107.976C137.076 108.186 137.259 108.355 137.479 108.464L137.677 108.563L137.486 108.673C137.276 108.801 137.107 108.986 136.999 109.207L136.9 109.401L136.789 109.214C136.662 109.004 136.479 108.834 136.26 108.723L136.062 108.628L136.248 108.513C136.459 108.387 136.63 108.203 136.74 107.984L136.835 107.789Z" fill="#E0E0E0"/>
<path d="M154.79 70.6781C154.927 69.6761 153.51 68.8494 152.443 68.7732C151.932 68.7942 151.42 68.7507 150.92 68.6437C149.876 68.2627 149.46 66.9331 148.443 66.5026C147.681 66.1826 146.805 66.4683 146.066 66.8379C145.327 67.2074 144.599 67.676 143.78 67.7293C143.064 67.7751 142.283 67.5084 141.658 67.8589C141.189 68.1217 140.946 68.6589 140.515 68.9789C140.066 69.2529 139.548 69.393 139.022 69.3828C138.496 69.3691 137.973 69.4544 137.479 69.6342C137.235 69.7302 137.03 69.9023 136.893 70.1248C136.755 70.3472 136.694 70.6082 136.717 70.8686L154.79 70.6781Z" fill="#EBEBEB"/>
<path d="M61.6151 55.3424C61.7523 54.3404 60.335 53.5137 59.2683 53.4375C58.7569 53.4584 58.2449 53.4149 57.7444 53.3079C56.7005 52.927 56.2852 51.5973 55.268 51.1668C54.5061 50.8468 53.6298 51.1326 52.8907 51.5021C52.1516 51.8716 51.424 52.3402 50.6049 52.3936C49.8886 52.4393 49.1076 52.1726 48.4828 52.5231C48.0142 52.786 47.7704 53.3232 47.3399 53.6432C46.8906 53.9171 46.3725 54.0572 45.8464 54.047C45.3209 54.0333 44.7975 54.1186 44.3035 54.2985C44.0603 54.3945 43.8547 54.5665 43.7173 54.789C43.58 55.0115 43.5183 55.2724 43.5415 55.5328L61.6151 55.3424Z" fill="#EBEBEB"/>
<path d="M87.887 34.3595C88.0775 32.9803 86.1307 31.845 84.6715 31.7307C83.9705 31.6736 83.2467 31.7802 82.5876 31.5479C81.1551 31.0488 80.5836 29.201 79.1893 28.6105C78.1454 28.1724 76.9415 28.5648 75.9281 29.0715C74.9147 29.5782 73.9165 30.2144 72.785 30.2944C71.8021 30.3592 70.7354 29.9935 69.8743 30.4735C69.2305 30.8316 68.8952 31.5707 68.3047 31.9974C67.689 32.3755 66.9775 32.5686 66.2551 32.5536C65.5351 32.5359 64.8181 32.6522 64.1406 32.8965C63.4892 33.1975 62.9482 33.8871 63.0815 34.5919L87.887 34.3595Z" fill="#F5F5F5"/>
<path d="M26.924 31.5793H-17.1666V104.559H26.924V31.5793Z" fill="#E0E0E0"/>
<path d="M25.4573 31.5793H-18.6332V104.559H25.4573V31.5793Z" fill="#EBEBEB"/>
<path d="M23.5792 33.0575H-16.7549V103.077H23.5792V33.0575Z" fill="#FAFAFA"/>
<path d="M15.7272 42.1551H-9.07446V93.9795H15.7272V42.1551Z" fill="#EBEBEB"/>
<path d="M-9.08221 75.6429C-9.13935 70.8007 -4.78859 66.0727 0.00792313 65.3984C2.29379 65.0746 4.72062 65.5317 6.86552 64.6364C10.6753 63.0706 11.8906 58.0074 15.7271 56.5026L15.9023 93.9603H-9.08221V75.6429Z" fill="#E0E0E0"/>
<path d="M81.8619 119.786L89.9805 118.22L105.555 121.794L113.449 123.44L113.563 134.225L95.9543 137.467L84.0716 133.947L79.5798 127.337L81.8619 119.786Z" fill="#BABBBB"/>
<path d="M76.0941 120.861L83.7555 119.055C83.7555 119.055 89.173 135.818 102.542 135.083C113.438 134.492 113.449 123.44 113.449 123.44L121.415 124.846C121.415 124.846 124.756 145.072 121.095 159.26C118.047 171.07 115.342 187.254 115.342 187.254H62.4208L76.0941 120.861Z" fill="#363637"/>
<path d="M153.726 172.685C153.726 172.685 131.899 134.446 127.972 129.539C123.67 124.168 120.238 124.789 120.238 124.789L117.929 150.547L136.486 176.876L140.91 178.472L153.726 172.685Z" fill="#363637"/>
<path d="M77.0081 120.647C77.0081 120.647 64.6034 121.638 60.1536 141.982C58.142 151.175 55.5819 161.949 54.8656 169.188C54.3323 174.442 57.5744 179.905 62.8128 180.575L69.3885 181.794C71.1257 182.117 72.9205 181.761 74.4032 180.8C75.8858 179.839 76.9436 178.346 77.3586 176.628L79.5797 167.432L73.6631 165.443L75.0308 138.047L77.0081 120.647Z" fill="#363637"/>
<path d="M122.428 139.064C122.457 139.155 122.476 139.25 122.485 139.346C122.52 139.551 122.558 139.826 122.611 140.165C122.638 140.344 122.664 140.546 122.699 140.759C122.733 140.972 122.744 141.212 122.767 141.468C122.821 141.974 122.881 142.553 122.908 143.197C123 144.703 123.01 146.213 122.939 147.719C122.85 149.564 122.667 151.403 122.39 153.228C122.104 155.171 121.746 157.008 121.384 158.669C121.022 160.33 120.66 161.819 120.352 163.069C120.043 164.319 119.773 165.321 119.59 166.014C119.498 166.345 119.426 166.612 119.369 166.81C119.346 166.904 119.317 166.995 119.281 167.085C119.289 166.989 119.306 166.895 119.331 166.803C119.376 166.597 119.441 166.33 119.517 165.995L120.218 163.019C120.512 161.766 120.862 160.276 121.209 158.615C121.556 156.954 121.914 155.122 122.2 153.183C122.485 151.243 122.68 149.373 122.76 147.693C122.84 146.013 122.847 144.47 122.76 143.19C122.76 142.55 122.691 141.97 122.649 141.46C122.63 141.209 122.611 140.972 122.596 140.751C122.581 140.53 122.546 140.34 122.527 140.157C122.489 139.818 122.462 139.544 122.44 139.338C122.43 139.247 122.426 139.155 122.428 139.064Z" fill="#263238"/>
<path d="M80.1586 168.415C80.1323 168.361 80.1106 168.305 80.0938 168.247C80.0557 168.121 80.0024 167.961 79.9376 167.756L79.6938 166.967C79.6252 166.608 79.4739 166.27 79.2519 165.98C78.9256 165.667 78.5358 165.428 78.1089 165.279C77.6071 165.09 77.0895 164.944 76.5622 164.845C75.3051 164.612 74.0307 164.485 72.7524 164.464H72.6495V164.365L73.7696 157.062C74.4897 152.463 75.1449 148.299 75.6212 145.251C75.8688 143.758 76.0669 142.543 76.2079 141.682C76.2764 141.274 76.3336 140.95 76.3755 140.71C76.3755 140.611 76.4098 140.527 76.425 140.459C76.4277 140.43 76.4355 140.401 76.4479 140.375C76.4537 140.404 76.4537 140.433 76.4479 140.462C76.4479 140.531 76.4479 140.615 76.4174 140.718C76.3869 140.958 76.3412 141.281 76.2879 141.693C76.1622 142.558 75.9831 143.777 75.7659 145.274C75.3011 148.322 74.6687 152.478 73.9677 157.084C73.5563 159.713 73.1715 162.201 72.8248 164.384L72.7372 164.281C74.031 164.314 75.3196 164.458 76.5888 164.712C77.1235 164.818 77.6475 164.973 78.1547 165.173C78.599 165.336 79.0013 165.596 79.3319 165.935C79.468 166.088 79.5694 166.268 79.6291 166.464L79.77 166.971C79.8576 167.279 79.93 167.546 79.991 167.767C80.0519 167.988 80.09 168.148 80.1205 168.266C80.1378 168.314 80.1506 168.364 80.1586 168.415Z" fill="#263238"/>
<path d="M63.0719 171.523C63.0841 171.349 63.1174 171.178 63.171 171.012C63.2908 170.553 63.4514 170.106 63.651 169.675C64.3007 168.236 65.3135 166.991 66.5899 166.062C67.8664 165.133 69.3625 164.552 70.9315 164.376C71.4016 164.318 71.8759 164.303 72.3487 164.33C72.5233 164.332 72.6971 164.354 72.8668 164.395C72.2302 164.398 71.5942 164.438 70.962 164.513C69.4287 164.724 67.9714 165.311 66.7199 166.222C65.4683 167.133 64.4612 168.338 63.7881 169.732C63.5176 170.316 63.2785 170.914 63.0719 171.523Z" fill="#263238"/>
<path d="M65.9408 161.396C66.0378 161.372 66.1381 161.363 66.238 161.37C66.5115 161.365 66.7851 161.377 67.0571 161.408C67.9566 161.498 68.8383 161.719 69.6744 162.063C70.5103 162.409 71.2928 162.872 71.9983 163.438C72.2122 163.608 72.4146 163.791 72.6041 163.987C72.7374 164.128 72.8098 164.208 72.7984 164.219C72.787 164.231 72.4631 163.953 71.9145 163.549C70.4759 162.495 68.8021 161.807 67.038 161.545C66.3637 161.446 65.9408 161.431 65.9408 161.396Z" fill="#263238"/>
<path d="M78.7798 135.082C78.7548 134.902 78.7459 134.72 78.7531 134.538C78.7531 134.187 78.7302 133.684 78.6845 133.063C78.5702 131.443 78.2919 129.839 77.854 128.274C77.4099 126.713 76.8113 125.199 76.0672 123.756C75.7777 123.204 75.5338 122.762 75.3548 122.464C75.2544 122.312 75.1677 122.152 75.0957 121.984C75.2173 122.12 75.3257 122.267 75.4195 122.423C75.6215 122.712 75.8843 123.143 76.1815 123.691C77.7671 126.569 78.6667 129.773 78.8102 133.056C78.8369 133.68 78.8331 134.199 78.8102 134.538C78.8181 134.72 78.8079 134.902 78.7798 135.082Z" fill="#263238"/>
<g opacity="0.3">
<path d="M121.865 156.128C125.027 150.768 125.095 143.803 122.333 138.222C123.221 144.168 123.03 150.226 121.769 156.105" fill="black"/>
</g>
<g opacity="0.3">
<path d="M93.71 162.189C91.3098 162.894 87.9953 163.065 85.6447 162.189C87.4772 164.791 91.0088 165.732 94.0719 164.887C97.1349 164.041 99.9618 160.974 100.198 157.8C98.716 159.804 96.1139 161.496 93.71 162.189Z" fill="black"/>
</g>
<path d="M102.541 153.533C102.53 153.606 102.511 153.678 102.484 153.747C102.438 153.884 102.385 154.094 102.278 154.345C102.001 155.073 101.655 155.773 101.246 156.437C100.643 157.425 99.9142 158.332 99.0782 159.134C97.027 161.13 94.3793 162.401 91.5386 162.753C90.3903 162.902 89.2276 162.902 88.0793 162.753C87.3038 162.657 86.5386 162.49 85.7935 162.254C85.5268 162.174 85.3325 162.086 85.1953 162.037C85.1257 162.013 85.0582 161.984 84.9934 161.949C85.2701 162.012 85.5435 162.088 85.8125 162.178C89.0382 163.075 92.4782 162.79 95.5122 161.374C98.5158 159.897 100.889 157.391 102.198 154.311C102.419 153.815 102.522 153.526 102.541 153.533Z" fill="#263238"/>
<path d="M75.7814 180.205C75.7814 180.205 75.7547 180.247 75.6862 180.308C75.5902 180.403 75.4871 180.491 75.3776 180.571C74.979 180.868 74.537 181.102 74.067 181.264C73.3683 181.497 72.6392 181.625 71.9031 181.645C71.013 181.673 70.122 181.642 69.2362 181.55C67.3313 181.386 65.6398 181.108 64.4169 180.891C63.8035 180.78 63.3082 180.685 62.9691 180.613C62.7886 180.588 62.6111 180.545 62.4396 180.483C62.6211 180.486 62.802 180.504 62.9806 180.537L64.4397 180.75C65.6665 180.937 67.3656 181.188 69.2553 181.352C70.1411 181.443 71.0317 181.48 71.9221 181.462C72.6432 181.447 73.3587 181.332 74.048 181.119C74.6684 180.903 75.2527 180.595 75.7814 180.205Z" fill="#263238"/>
<path d="M118.809 79.9664L120.375 78.4425C122.459 79.3492 123.423 81.7684 123.777 84.0162C124.131 86.264 124.078 88.626 125.034 90.6909C125.766 92.2796 127.095 93.7388 126.939 95.4951C126.79 97.1523 125.289 98.4934 125.282 100.158C125.282 101.762 126.615 102.993 127.392 104.395C128.966 107.233 129.987 118.845 129.164 121.988C122.242 121.39 109.982 120.651 103.056 119.059C104.88 107.126 112.565 90.2871 118.809 79.9664Z" fill="#263238"/>
<path d="M121.906 90.6033C122.386 82.4922 116.497 75.0708 108.286 74.0917C99.5735 73.0554 91.8663 79.2958 91.1425 87.784L89.1004 122.049C89.0631 122.711 89.2482 123.367 89.6262 123.912C91.6377 126.853 95.2799 129.154 98.5372 129.608C101.688 130.046 104.884 129.227 107.566 127.733C108.011 127.482 108.382 127.118 108.642 126.678C108.903 126.238 109.043 125.738 109.048 125.227L109.189 117.557C109.189 117.551 109.19 117.544 109.192 117.538C109.194 117.532 109.198 117.526 109.203 117.521C109.207 117.516 109.213 117.513 109.219 117.511C109.226 117.508 109.232 117.507 109.239 117.508C109.957 117.562 110.678 117.542 111.391 117.447C113.418 116.952 118.588 114.963 120.325 107.374C120.904 104.859 121.484 97.7161 121.906 90.6033Z" fill="#BABBBB"/>
<path d="M110.637 101.808C110.637 101.732 111.487 101.648 112.862 101.572C113.209 101.572 113.54 101.514 113.624 101.286C113.675 100.936 113.616 100.58 113.456 100.265L112.603 97.5979C111.422 93.8186 110.591 90.7213 110.744 90.6794C110.896 90.6375 111.982 93.6586 113.163 97.4379C113.445 98.3713 113.715 99.259 113.974 100.105C114.081 100.486 114.275 100.951 114.066 101.45C114.007 101.566 113.923 101.667 113.819 101.746C113.716 101.825 113.595 101.878 113.468 101.903C113.273 101.942 113.075 101.956 112.877 101.945C111.49 101.937 110.641 101.884 110.637 101.808Z" fill="#263238"/>
<path d="M119.666 93.4725C119.518 93.6364 118.618 92.882 117.331 92.8439C116.043 92.8058 115.083 93.4802 114.946 93.3049C114.877 93.2249 115.033 92.9239 115.453 92.6115C116.006 92.2136 116.676 92.01 117.357 92.0324C118.038 92.0559 118.691 92.3068 119.213 92.7449C119.613 93.0877 119.761 93.4001 119.666 93.4725Z" fill="#263238"/>
<path d="M106.583 93.7999C106.408 93.9637 105.471 93.1142 104.065 92.9923C102.659 92.8703 101.566 93.5142 101.425 93.3237C101.356 93.2361 101.547 92.9427 102.023 92.6303C102.661 92.2522 103.403 92.0868 104.141 92.1579C104.88 92.2234 105.578 92.5269 106.13 93.0227C106.545 93.3923 106.667 93.7275 106.583 93.7999Z" fill="#263238"/>
<path d="M109.19 117.504C109.19 117.504 103.94 117.561 97.6611 113.248C97.6611 113.248 99.2841 120.175 109.148 119.957L109.19 117.504Z" fill="#9B9D9C"/>
<path d="M109.856 104.97C109.617 104.632 109.297 104.361 108.926 104.179C108.554 103.997 108.143 103.911 107.73 103.93C107.432 103.934 107.138 103.998 106.865 104.119C106.592 104.239 106.346 104.413 106.141 104.631C105.946 104.839 105.821 105.103 105.784 105.386C105.746 105.668 105.798 105.956 105.932 106.208C106.263 106.737 107.018 106.909 107.677 106.772C108.33 106.593 108.941 106.288 109.475 105.873C109.634 105.771 109.773 105.642 109.886 105.492C109.94 105.421 109.972 105.337 109.977 105.249C109.982 105.16 109.962 105.073 109.917 104.996" fill="#9B9D9C"/>
<path d="M106.599 102.444C106.82 102.444 106.732 103.892 107.921 105.004C109.109 106.117 110.683 106.064 110.683 106.265C110.683 106.361 110.302 106.525 109.654 106.494C108.796 106.446 107.98 106.103 107.345 105.523C106.741 104.97 106.377 104.203 106.332 103.385C106.313 102.78 106.5 102.444 106.599 102.444Z" fill="#263238"/>
<path d="M106.808 88.4886C106.648 88.8391 105.311 88.5686 103.715 88.6334C102.118 88.6981 100.804 89.0144 100.614 88.6905C100.533 88.5267 100.777 88.2067 101.322 87.8943C102.047 87.5169 102.847 87.3073 103.663 87.2809C104.479 87.2545 105.291 87.4121 106.039 87.7419C106.591 88.0162 106.862 88.321 106.808 88.4886Z" fill="#263238"/>
<path d="M119.944 88.7748C119.67 89.0796 118.584 88.7748 117.277 88.7748C115.971 88.7748 114.873 88.992 114.611 88.6758C114.496 88.5234 114.668 88.2186 115.148 87.9138C115.812 87.5655 116.554 87.3913 117.304 87.4073C118.055 87.4232 118.788 87.629 119.438 88.0053C119.91 88.3139 120.066 88.6263 119.944 88.7748Z" fill="#263238"/>
<path d="M109.475 72.3774C108.767 71.1735 107.452 70.6249 105.982 70.4039C99.9775 69.4934 93.2799 73.1088 89.9159 78.1606C86.5519 83.2124 86.3728 90.7519 88.8339 96.2989L92.5789 93.9597C100.096 90.8586 105.403 83.6162 110.237 76.1338C110.912 75.1166 110.104 73.425 109.475 72.3774Z" fill="#263238"/>
<path d="M118.725 75.6807C116.215 72.8234 114.39 69.966 109.178 71.9623C108.416 73.4215 109.94 75.315 111.251 76.4198C113.155 78.0428 114.79 79.1362 116.032 80.2981C118.539 82.6412 121.388 90.5236 121.636 94.8248C121.636 95.0953 122.112 91.1331 122.398 91.0912C122.748 91.0379 124.162 89.3083 123.968 86.9462C123.297 78.8733 121.236 78.5342 118.725 75.6807Z" fill="#263238"/>
<path d="M105.997 70.4038C106.388 70.3274 106.793 70.3618 107.167 70.5029C108.089 70.7857 108.911 71.3264 109.536 72.0611C109.715 72.2676 109.873 72.4909 110.009 72.7278C110.127 72.9567 110.219 73.1982 110.283 73.4478C110.419 73.8503 110.522 74.2631 110.592 74.6822C110.694 75.4175 110.519 75.8632 110.481 75.8518C110.443 75.8404 110.5 75.4023 110.34 74.7279C110.234 74.329 110.107 73.936 109.959 73.5507C109.891 73.3255 109.802 73.1073 109.692 72.8992C109.564 72.6809 109.416 72.4743 109.25 72.282C108.661 71.5987 107.914 71.068 107.075 70.7353C106.427 70.5029 105.989 70.4648 105.997 70.4038Z" fill="#455A64"/>
<path d="M118.477 95.9677C118.478 96.2599 118.366 96.5412 118.166 96.7538C117.965 96.9664 117.691 97.0941 117.399 97.1106C117.254 97.1242 117.108 97.1087 116.969 97.065C116.83 97.0214 116.702 96.9505 116.591 96.8565C116.48 96.7624 116.388 96.6472 116.323 96.5175C116.257 96.3877 116.217 96.2462 116.207 96.101C116.199 95.8042 116.308 95.5162 116.509 95.2979C116.71 95.0796 116.988 94.9482 117.285 94.9314C117.432 94.9173 117.58 94.9333 117.721 94.9784C117.862 95.0234 117.992 95.0967 118.103 95.1936C118.215 95.2905 118.306 95.4091 118.37 95.5422C118.434 95.6753 118.471 95.8201 118.477 95.9677Z" fill="#263238"/>
<path d="M105.928 96.0285C105.936 96.3253 105.827 96.6133 105.626 96.8316C105.425 97.0499 105.147 97.1814 104.85 97.1981C104.705 97.2122 104.559 97.1972 104.421 97.154C104.282 97.1108 104.153 97.0403 104.042 96.9465C103.931 96.8528 103.84 96.7378 103.774 96.6083C103.708 96.4787 103.668 96.3373 103.658 96.1923C103.649 95.8949 103.757 95.6059 103.959 95.3867C104.16 95.1676 104.439 95.0357 104.736 95.0189C104.881 95.0048 105.027 95.0199 105.166 95.0634C105.305 95.1068 105.434 95.1777 105.545 95.2718C105.657 95.3659 105.748 95.4814 105.813 95.6114C105.879 95.7413 105.918 95.8832 105.928 96.0285Z" fill="#263238"/>
<path d="M71.3964 105.565C72.105 104.399 72.9203 103.302 74.2156 102.818C75.511 102.334 76.9815 102.056 77.9987 101.111C79.595 99.6443 79.5227 97.206 79.3779 95.0802C79.2331 92.9543 79.195 90.5084 80.8256 89.0798C82.1895 87.8873 84.3573 87.7806 85.5383 86.4129C86.3269 85.5024 86.4831 84.2451 86.7574 83.0832C87.5194 79.9706 89.2223 74.534 98.3963 71.4062L90.2815 102.243C90.8872 102.414 92.3349 103.793 92.4149 104.727C92.4873 105.599 92.1102 106.483 92.1025 107.359C92.1025 108.43 93.2683 109.07 94.0074 109.862C94.9446 110.872 95.2342 112.327 95.0894 113.672C94.7889 115.51 94.2973 117.312 93.6226 119.047C86.0945 118.286 75.1071 118.042 69.3696 113.241C68.3295 112.373 69.8191 108.159 71.3964 105.565Z" fill="#263238"/>
<path d="M92.5942 93.9599C92.4532 93.8837 86.91 91.6741 86.5557 97.5221C86.2014 103.37 92.1332 102.501 92.1522 102.338C92.1713 102.174 92.5942 93.9599 92.5942 93.9599Z" fill="#BABBBB"/>
<path d="M90.5063 100.021C90.4797 99.9982 90.3997 100.086 90.2206 100.151C89.9728 100.241 89.6995 100.232 89.4586 100.124C88.8567 99.8572 88.3957 98.8476 88.43 97.7961C88.4494 97.2951 88.5795 96.8046 88.811 96.3598C88.8774 96.1812 88.9858 96.0211 89.127 95.8932C89.2682 95.7652 89.4382 95.6731 89.6225 95.6245C89.7413 95.6008 89.8646 95.6194 89.9711 95.6772C90.0776 95.7349 90.1605 95.8282 90.2054 95.9407C90.2739 96.1084 90.2282 96.2227 90.2587 96.2341C90.2892 96.2455 90.392 96.1427 90.3578 95.8988C90.3358 95.7517 90.263 95.6169 90.152 95.5179C89.9993 95.3862 89.8007 95.3205 89.5996 95.335C89.3573 95.3672 89.1273 95.4612 88.9318 95.608C88.7363 95.7548 88.5819 95.9494 88.4833 96.1731C88.2049 96.6645 88.0506 97.2164 88.0338 97.7809C87.9995 98.9581 88.5329 100.093 89.3634 100.387C89.5169 100.443 89.681 100.463 89.8434 100.445C90.0058 100.428 90.1622 100.374 90.3006 100.288C90.4873 100.158 90.5254 100.032 90.5063 100.021Z" fill="#9B9D9C"/>
<path d="M113.338 95.4876C113.369 95.0481 113.431 94.6114 113.525 94.1809C113.701 93.4604 114.026 92.7846 114.478 92.1966C114.93 91.6087 115.5 91.1215 116.151 90.7662C116.802 90.4109 117.52 90.1953 118.259 90.1332C118.998 90.071 119.742 90.1637 120.443 90.4054C120.926 90.5683 121.381 90.8047 121.792 91.1064C122.231 91.4097 122.617 91.7829 122.935 92.2112C123.618 93.1051 123.996 94.1943 124.013 95.3189C124.031 96.4435 123.688 97.5442 123.034 98.4592C122.732 98.8966 122.361 99.2826 121.937 99.6022C121.536 99.9177 121.089 100.168 120.611 100.345C119.727 100.686 118.768 100.783 117.834 100.627C117.019 100.493 116.247 100.168 115.582 99.6784C114.608 98.9697 113.901 97.9539 113.574 96.7944C113.469 96.3656 113.393 95.9304 113.346 95.4914C113.344 95.5206 113.344 95.5499 113.346 95.5791C113.346 95.6514 113.346 95.7353 113.346 95.8381C113.349 95.9774 113.363 96.1162 113.388 96.2534C113.409 96.4426 113.444 96.6298 113.494 96.8134C113.8 98.0063 114.506 99.058 115.494 99.7927C116.226 100.34 117.085 100.694 117.99 100.82C118.895 100.947 119.818 100.842 120.672 100.517C121.686 100.133 122.562 99.457 123.19 98.5735C123.87 97.6256 124.226 96.4844 124.208 95.3183C124.189 94.1522 123.796 93.0229 123.087 92.0969C122.757 91.6553 122.359 91.2695 121.906 90.954C121.484 90.6508 121.018 90.4143 120.523 90.253C119.66 89.9545 118.734 89.8794 117.834 90.0346C116.933 90.1898 116.087 90.5703 115.373 91.1407C114.406 91.9073 113.733 92.9837 113.468 94.1885C113.424 94.3741 113.394 94.5625 113.376 94.7523C113.358 94.8912 113.349 95.0313 113.35 95.1714C113.35 95.2743 113.35 95.3581 113.35 95.4267C113.345 95.4468 113.341 95.4672 113.338 95.4876Z" fill="#455A64"/>
<path d="M98.6173 95.7237C98.6479 95.2844 98.709 94.8478 98.8002 94.417C99.0867 93.2483 99.7576 92.2098 100.705 91.4682C101.355 90.9584 102.116 90.6087 102.926 90.4472C103.855 90.2635 104.817 90.3306 105.711 90.6415C106.193 90.8059 106.648 91.0423 107.06 91.3425C107.498 91.6468 107.884 92.0199 108.203 92.4473C108.884 93.3407 109.262 94.4289 109.281 95.5525C109.299 96.6761 108.958 97.7762 108.306 98.6915C108.002 99.1288 107.63 99.5146 107.205 99.8345C106.804 100.15 106.357 100.401 105.879 100.577C104.995 100.918 104.036 101.015 103.101 100.859C102.288 100.725 101.518 100.4 100.854 99.9107C99.8788 99.202 99.1704 98.1863 98.8421 97.0267C98.7371 96.5981 98.662 96.1627 98.6173 95.7237C98.6132 95.7528 98.6132 95.7823 98.6173 95.8113C98.6173 95.8799 98.6173 95.9675 98.6173 96.0704C98.6172 96.2097 98.6299 96.3487 98.6554 96.4857C98.6759 96.6752 98.7129 96.8626 98.7659 97.0457C99.0685 98.24 99.7752 99.2927 100.766 100.025C101.44 100.531 102.223 100.873 103.052 101.023C104.016 101.189 105.006 101.094 105.921 100.749C106.936 100.369 107.814 99.6915 108.439 98.8058C109.118 97.8578 109.475 96.7166 109.456 95.5505C109.438 94.3844 109.045 93.2551 108.336 92.3292C107.681 91.4656 106.783 90.8169 105.757 90.4662C104.831 90.15 103.838 90.0881 102.88 90.2872C101.861 90.4968 100.923 90.9961 100.18 91.7252C99.4362 92.4543 98.919 93.3823 98.6897 94.3979C98.6424 94.5827 98.6118 94.7714 98.5983 94.9618C98.5757 95.1002 98.5667 95.2406 98.5716 95.3808V95.6361C98.5803 95.6683 98.5959 95.6982 98.6173 95.7237Z" fill="#455A64"/>
<path d="M109.132 95.3238C109.163 95.3429 109.315 95.0952 109.67 94.8095C110.124 94.4328 110.692 94.222 111.282 94.2116C111.872 94.2012 112.448 94.3919 112.915 94.7523C113.296 95.0228 113.441 95.2667 113.468 95.2438C113.373 95.0031 113.212 94.7944 113.003 94.6419C112.526 94.2242 111.91 93.9993 111.276 94.0113C110.642 94.0233 110.035 94.2712 109.574 94.7066C109.372 94.8668 109.219 95.0807 109.132 95.3238Z" fill="#455A64"/>
<path d="M91.2529 93.5867C91.6036 93.6979 91.965 93.7719 92.3311 93.8076C93.0054 93.9143 93.9388 94.0134 94.9675 94.1048L97.6076 94.341C97.9694 94.3967 98.335 94.4247 98.701 94.4248C98.3504 94.3127 97.9891 94.2374 97.6229 94.2001C96.9524 94.0972 96.019 93.9981 94.9865 93.9067L92.3501 93.6705C91.9873 93.6124 91.6204 93.5844 91.2529 93.5867Z" fill="#455A64"/>
<path d="M121.841 98.783C122.317 98.2336 122.703 97.6126 122.984 96.9429C123.206 96.2495 123.317 95.5258 123.316 94.798C123.401 95.003 123.44 95.224 123.43 95.4456C123.444 95.9793 123.356 96.5106 123.171 97.0115C122.987 97.5124 122.707 97.9729 122.348 98.3677C122.07 98.6649 121.857 98.8021 121.841 98.783Z" fill="white"/>
<path d="M122.764 92.7633C122.794 92.7176 123.011 92.8281 123.145 93.0871C123.278 93.3462 123.221 93.5824 123.167 93.5786C123.114 93.5748 123.068 93.3805 122.965 93.1709C122.863 92.9614 122.729 92.8052 122.764 92.7633Z" fill="white"/>
<path d="M108.393 97.6289C108.362 97.6289 108.469 97.3241 108.557 96.8326C108.781 95.5435 108.534 94.2167 107.86 93.0952C107.604 92.6686 107.399 92.4323 107.421 92.4095C107.646 92.5733 107.835 92.7806 107.978 93.019C108.36 93.573 108.623 94.2005 108.75 94.8617C108.876 95.5229 108.864 96.2032 108.713 96.8593C108.659 97.1348 108.55 97.3966 108.393 97.6289Z" fill="white"/>
<path d="M88.1404 102.258C88.1404 102.258 88.0604 102.372 87.9461 102.581C87.7822 102.879 87.6957 103.213 87.6947 103.553C87.6885 103.799 87.7334 104.044 87.8265 104.272C87.9196 104.501 88.0589 104.707 88.2356 104.879C88.4488 105.091 88.709 105.249 88.995 105.341C89.2811 105.433 89.5848 105.456 89.8815 105.408C90.1762 105.348 90.4528 105.219 90.6895 105.034C90.9261 104.848 91.1164 104.61 91.2454 104.338C91.3495 104.114 91.407 103.872 91.4142 103.626C91.4214 103.379 91.3782 103.134 91.2873 102.905C91.1671 102.588 90.9708 102.306 90.7158 102.082C90.5329 101.926 90.411 101.861 90.4186 101.846C90.5445 101.878 90.6616 101.938 90.7615 102.021C91.0522 102.233 91.2789 102.52 91.4168 102.852C91.5272 103.097 91.5843 103.364 91.5843 103.633C91.5843 103.902 91.5272 104.168 91.4168 104.414C91.2857 104.72 91.0806 104.989 90.82 105.196C90.5593 105.404 90.2513 105.543 89.9235 105.602C89.5957 105.661 89.2584 105.637 88.9418 105.534C88.6253 105.43 88.3394 105.25 88.1099 105.008C87.9201 104.818 87.7727 104.589 87.6775 104.338C87.5823 104.086 87.5414 103.818 87.5575 103.549C87.5707 103.19 87.6827 102.842 87.8813 102.543C88.0147 102.334 88.1404 102.25 88.1404 102.258Z" fill="#E0E0E0"/>
<path d="M120.322 106.753C120.644 106.882 121 106.903 121.335 106.814C121.694 106.713 122.017 106.514 122.268 106.239C122.578 105.905 122.787 105.49 122.87 105.042C122.958 104.595 122.902 104.131 122.71 103.717C122.553 103.377 122.32 103.078 122.028 102.844C121.747 102.638 121.44 102.47 121.114 102.345C121.211 102.336 121.309 102.349 121.4 102.383C121.658 102.455 121.9 102.572 122.116 102.73C122.44 102.968 122.701 103.28 122.878 103.64C123.096 104.086 123.162 104.59 123.069 105.077C122.975 105.563 122.742 106.012 122.398 106.368C122.119 106.66 121.759 106.862 121.366 106.951C121.102 107.013 120.825 106.999 120.569 106.909C120.39 106.837 120.314 106.761 120.322 106.753Z" fill="#E0E0E0"/>
<path d="M99.1886 182.4L104.839 184.073C104.839 184.073 107.955 185.41 109.471 185.757C111.353 186.187 112.637 185.604 112.706 184.556C112.774 183.509 111.311 183.375 111.311 183.375C110.068 182.902 108.859 182.343 107.692 181.703C106.845 181.115 106.152 180.33 105.673 179.417L107.692 179.695C107.692 179.695 111.94 182.743 113.54 183.665C115.14 184.587 115.491 182.968 115.628 182.48C115.765 181.992 110.896 177.051 110.896 177.051C110.896 177.051 115.559 180.046 116.394 180.792C117.228 181.539 118.485 181.783 118.763 181.299C119.041 180.815 119.807 180.811 118.763 178.747C117.719 176.682 109.365 171.127 109.365 171.127L111.65 170.639L114.157 171.756C114.332 172.616 114.688 173.429 115.201 174.141C116.104 175.482 117.708 174.141 117.708 174.141L116.714 168.997L111.761 165.896C111.761 165.896 106.61 166.525 105.844 166.871C105.079 167.218 104.24 168.677 104.24 168.677L102.85 169.241C100.69 169.866 100.762 172.026 100.065 172.095C99.3677 172.163 79.0463 168.201 79.0463 168.201L77.2062 167.721C74.1584 170.034 72.9431 173.855 72.4059 177.246C72.4059 177.246 71.8459 178.907 72.4059 179.821L99.1886 182.4Z" fill="#BABBBB"/>
<path d="M95.4588 178.785C95.4347 178.676 95.4283 178.564 95.4397 178.453C95.4383 178.326 95.4498 178.198 95.474 178.072C95.4917 177.9 95.5249 177.729 95.573 177.562C95.8592 176.6 96.3432 175.709 96.9941 174.945C97.6262 174.177 98.3304 173.471 99.0971 172.838C99.4009 172.561 99.7314 172.314 100.084 172.103C99.802 172.394 99.503 172.669 99.1885 172.925C98.4557 173.582 97.7731 174.293 97.1465 175.051C96.5139 175.799 96.0267 176.658 95.7102 177.585C95.4854 178.312 95.5007 178.789 95.4588 178.785Z" fill="#9B9D9C"/>
<path d="M104.26 168.677C104.26 168.677 104.092 168.765 103.833 168.974C103.472 169.279 103.16 169.638 102.907 170.037C102.725 170.307 102.569 170.595 102.442 170.895C102.325 171.248 102.251 171.613 102.221 171.984C102.169 172.415 102.015 172.828 101.772 173.188C101.496 173.537 101.269 173.921 101.097 174.331C100.837 175.024 100.837 175.787 101.097 176.48L101.124 176.552L101.059 176.594C100.176 177.165 99.5364 178.043 99.2649 179.059C99.1713 179.459 99.114 179.867 99.0935 180.278C99.0626 180.172 99.0497 180.061 99.0554 179.95C99.0513 179.642 99.0845 179.333 99.1544 179.032C99.3975 177.965 100.045 177.034 100.96 176.434L100.922 176.548C100.646 175.811 100.646 174.999 100.922 174.262C101.098 173.841 101.334 173.447 101.623 173.093C101.855 172.752 102.001 172.36 102.05 171.95C102.096 171.224 102.362 170.529 102.812 169.957C103.081 169.552 103.419 169.198 103.81 168.91C103.915 168.83 104.031 168.765 104.153 168.715C104.187 168.698 104.223 168.685 104.26 168.677Z" fill="#9B9D9C"/>
<path d="M109.151 170.955C108.664 171.019 108.168 170.966 107.705 170.802C107.242 170.638 106.823 170.367 106.484 170.011C106.522 169.965 107.033 170.357 107.768 170.613C108.504 170.868 109.151 170.898 109.151 170.955Z" fill="#9B9D9C"/>
<path d="M110.454 176.582C109.718 176.376 109.003 176.103 108.317 175.767C107.604 175.493 106.916 175.159 106.26 174.769C106.993 174.981 107.708 175.253 108.397 175.584C109.11 175.858 109.798 176.192 110.454 176.582Z" fill="#9B9D9C"/>
<path d="M105.871 179.363C105.131 179.113 104.409 178.815 103.707 178.472C104.105 178.489 104.494 178.591 104.85 178.769C105.23 178.89 105.578 179.093 105.871 179.363Z" fill="#9B9D9C"/>
<path d="M109.753 176.944C109.425 177.12 109.137 177.361 108.905 177.653C108.674 177.944 108.505 178.28 108.408 178.64C108.382 178.64 108.359 178.506 108.408 178.293C108.462 178.013 108.582 177.751 108.759 177.528C108.935 177.304 109.162 177.126 109.422 177.009C109.608 176.929 109.745 176.921 109.753 176.944Z" fill="#9B9D9C"/>
<path d="M111.795 173.855C111.818 173.908 111.445 174.099 111.193 174.525C111.065 174.796 110.958 175.076 110.873 175.363C110.819 175.206 110.805 175.038 110.831 174.874C110.858 174.71 110.925 174.554 111.026 174.422C111.315 173.935 111.788 173.801 111.795 173.855Z" fill="#9B9D9C"/>
<path d="M111.22 168.258C111.201 168.258 111.125 168.17 111.068 167.988C110.999 167.738 110.999 167.475 111.068 167.226C111.134 166.979 111.266 166.756 111.449 166.578C111.586 166.445 111.7 166.399 111.712 166.418C111.53 166.684 111.383 166.972 111.274 167.275C111.217 167.6 111.199 167.929 111.22 168.258Z" fill="#9B9D9C"/>
<path d="M152.408 170.01C152.408 170.01 152.153 165.012 146.971 163.976C141.79 162.94 132.715 167.344 132.715 167.344L107.289 185.063L108.051 187.253L133.858 183.657L136.22 184.564L154.347 172.654L171.453 160.288L169.548 158.798C169.548 158.798 164.755 162.101 161.586 163.522C158.416 164.943 153.833 167.435 152.408 170.01Z" fill="#F5F5F5"/>
<path d="M106.896 187.978L128.413 174.609L151.161 170.956C151.161 170.956 152.304 172.609 154.236 172.205L172.942 159.252L173.296 160.033L137.02 185.52C136.487 185.715 135.911 185.76 135.354 185.652C134.798 185.543 134.281 185.284 133.861 184.903L106.896 187.978Z" fill="#363637"/>
<path d="M151.162 170.955C151.11 171.011 151.051 171.06 150.986 171.1L150.461 171.481C150.003 171.809 149.344 172.285 148.556 172.887C146.94 174.087 144.746 175.798 142.376 177.737C140.007 179.676 137.877 181.478 136.353 182.792L134.536 184.354L134.041 184.773C133.987 184.827 133.927 184.873 133.861 184.911C133.861 184.911 133.907 184.85 134.014 184.747L134.482 184.297C134.894 183.916 135.492 183.36 136.246 182.693C137.747 181.352 139.854 179.539 142.235 177.592C144.616 175.645 146.807 173.954 148.457 172.78C149.272 172.19 149.946 171.733 150.419 171.424L150.964 171.073C151.026 171.028 151.092 170.989 151.162 170.955Z" fill="#263238"/>
<path d="M150.929 168.174C148.868 165.961 145.622 165.172 142.605 165.408C139.587 165.645 136.726 166.769 133.911 167.885L107.589 185.901L107.825 186.579L134.288 168.673C134.288 168.673 140.201 166.769 142.818 166.441C147.192 165.896 150.929 168.174 150.929 168.174Z" fill="#E0E0E0"/>
<path d="M155.059 170.544L167.715 162.006C167.715 162.006 157.345 167.401 155.059 170.544Z" fill="#E0E0E0"/>
<path d="M107.589 185.901C107.621 185.868 107.657 185.839 107.696 185.813L108.023 185.581L109.284 184.693L113.948 181.463L129.377 170.868L133.857 167.82C136.407 166.67 139.097 165.861 141.858 165.416C144.088 165.101 146.362 165.422 148.418 166.342C149.187 166.699 149.896 167.175 150.518 167.751C150.983 168.185 151.378 168.687 151.691 169.241C151.887 169.588 152.041 169.958 152.148 170.342C152.175 170.468 152.198 170.567 152.217 170.643C152.225 170.677 152.231 170.711 152.236 170.746C152.099 170.232 151.897 169.738 151.634 169.275C151.314 168.736 150.916 168.247 150.453 167.824C149.829 167.265 149.125 166.803 148.365 166.452C146.329 165.567 144.086 165.266 141.888 165.584C139.15 166.032 136.481 166.835 133.949 167.972H133.968L129.488 171.02L114.047 181.577L109.345 184.758L108.065 185.612L107.726 185.833C107.683 185.86 107.637 185.883 107.589 185.901Z" fill="#263238"/>
<path d="M130.631 172.281C130.691 172.231 130.757 172.19 130.829 172.159C130.962 172.087 131.16 171.976 131.416 171.847C131.93 171.58 132.68 171.207 133.625 170.78C136.075 169.631 138.675 168.835 141.348 168.414C144.034 168.008 146.779 168.259 149.348 169.145C150.12 169.424 150.862 169.78 151.562 170.208C151.813 170.353 151.992 170.494 152.118 170.589C152.184 170.63 152.247 170.678 152.305 170.73C152.305 170.73 152.026 170.57 151.524 170.285C150.815 169.887 150.071 169.554 149.302 169.29C146.746 168.452 144.028 168.223 141.367 168.624C138.713 169.043 136.127 169.812 133.675 170.909C132.726 171.321 131.968 171.671 131.442 171.919L130.84 172.197C130.773 172.232 130.703 172.26 130.631 172.281Z" fill="#263238"/>
<path d="M170.774 159.751C170.774 159.751 170.721 159.8 170.61 159.877L170.119 160.204L168.294 161.378C166.747 162.368 164.618 163.736 162.282 165.275C159.947 166.814 157.859 168.228 156.335 169.256L154.533 170.468L154.038 170.792C153.983 170.832 153.923 170.865 153.859 170.891C153.906 170.841 153.958 170.796 154.015 170.757L154.491 170.403C154.903 170.098 155.505 169.668 156.255 169.138C157.756 168.083 159.844 166.647 162.183 165.107C164.522 163.568 166.667 162.22 168.229 161.26C169.01 160.779 169.647 160.399 170.089 160.139L170.603 159.842C170.657 159.807 170.714 159.776 170.774 159.751Z" fill="#263238"/>
<path d="M159.261 173.451C159.003 174.073 158.674 174.663 158.282 175.211C157.794 175.79 156.202 176.597 156.076 177.698C155.951 178.799 156.21 181.382 154.488 183.348C153.378 184.571 151.973 185.489 150.407 186.015L143.614 185.352L132.764 181.082C132.522 181.02 132.313 180.866 132.183 180.652C132.054 180.438 132.013 180.182 132.071 179.939C132.138 179.674 132.283 179.435 132.486 179.254C132.69 179.072 132.943 178.955 133.214 178.918L133.473 178.876C133.473 178.876 132.848 178.365 133.743 177.47C134.505 176.708 136.132 177.138 136.97 177.417C137.808 177.695 142.723 179.748 143.603 180.064C144.384 180.342 144.986 180.59 144.986 180.59C144.986 180.59 138.696 176.346 138.608 175.79C138.506 175.123 138.574 174.818 139.218 174.353C139.98 173.801 141.23 174.392 142.441 174.902C143.344 175.283 149.101 178.125 149.101 178.125C149.101 178.125 149.36 177.874 149.101 177.363C148.841 176.853 146.929 174.392 146.628 173.934C146.327 173.477 146.247 173.218 146.548 172.833C146.967 172.289 148.072 172.029 149.089 172.959C149.733 173.553 152.023 175.093 152.023 175.093L162.591 167.382C162.591 167.382 163.905 167.347 163.448 169.18C162.991 171.012 159.261 173.451 159.261 173.451Z" fill="#BABBBB"/>
<path d="M151.383 179.878C150.96 179.784 150.566 179.589 150.234 179.311C149.903 179.032 149.643 178.678 149.478 178.278C149.527 178.247 149.836 178.72 150.362 179.158C150.887 179.596 151.409 179.821 151.383 179.878Z" fill="#9B9D9C"/>
<path d="M152.251 175.28C152.251 175.257 152.392 175.215 152.632 175.246C152.932 175.289 153.213 175.414 153.446 175.607C153.68 175.8 153.855 176.053 153.954 176.339C154.026 176.56 154.015 176.72 153.988 176.72C153.829 176.364 153.601 176.043 153.318 175.775C152.998 175.542 152.635 175.374 152.251 175.28Z" fill="#9B9D9C"/>
<path d="M152.75 177.402C152.693 177.402 152.667 176.834 152.442 176.186C152.217 175.539 151.901 175.063 151.946 175.044C152.281 175.329 152.519 175.711 152.628 176.137C152.799 176.536 152.841 176.978 152.75 177.402Z" fill="#9B9D9C"/>
<path d="M159.002 172.902C159.002 172.921 158.869 172.845 158.732 172.662C158.558 172.419 158.449 172.136 158.416 171.839C158.382 171.542 158.426 171.242 158.541 170.967C158.633 170.761 158.736 170.658 158.755 170.673C158.619 171.038 158.571 171.43 158.614 171.817C158.657 172.204 158.79 172.576 159.002 172.902Z" fill="#9B9D9C"/>
<path d="M149.451 182.537C149.206 182.593 148.952 182.593 148.708 182.537C148.116 182.433 147.548 182.221 147.032 181.912C146.518 181.61 146.034 181.26 145.588 180.865C145.389 180.719 145.213 180.544 145.066 180.347C145.285 180.457 145.49 180.594 145.675 180.754C146.14 181.113 146.626 181.442 147.131 181.741C147.631 182.037 148.171 182.259 148.735 182.4C149.169 182.492 149.451 182.507 149.451 182.537Z" fill="#9B9D9C"/>
<path d="M151.219 181.448C151.272 181.448 151.276 181.829 150.956 182.145C150.636 182.461 150.247 182.446 150.255 182.392C150.263 182.339 150.556 182.263 150.815 182.011C151.074 181.76 151.162 181.44 151.219 181.448Z" fill="#9B9D9C"/>
<path d="M153.813 179.543C153.836 179.543 153.836 179.646 153.764 179.783C153.664 179.952 153.513 180.085 153.333 180.164C153.155 180.251 152.954 180.28 152.758 180.248C152.605 180.217 152.529 180.156 152.541 180.133C152.552 180.11 152.891 180.164 153.249 179.985C153.607 179.806 153.76 179.524 153.813 179.543Z" fill="#9B9D9C"/>
<path d="M144.662 183.867C144.643 183.916 142.117 182.865 139.024 181.512C135.93 180.16 133.439 179.021 133.477 178.975C133.515 178.929 136.025 179.981 139.119 181.333C142.213 182.686 144.685 183.817 144.662 183.867Z" fill="#9B9D9C"/>
<path d="M22.5055 146.679L30.7728 187.265H102.53C102.91 187.265 103.274 187.114 103.543 186.845C103.811 186.577 103.962 186.212 103.962 185.833C103.963 185.644 103.926 185.457 103.854 185.283C103.783 185.109 103.677 184.951 103.544 184.817C103.411 184.684 103.253 184.578 103.079 184.506C102.905 184.433 102.718 184.396 102.53 184.396H88.0832L80.418 146.638C80.347 146.285 80.1566 145.968 79.879 145.74C79.6014 145.511 79.2535 145.386 78.8941 145.384L24.0599 144.797C23.8259 144.795 23.5944 144.845 23.3822 144.944C23.17 145.042 22.9825 145.187 22.8335 145.367C22.6845 145.548 22.5777 145.759 22.521 145.986C22.4642 146.213 22.459 146.45 22.5055 146.679Z" fill="#868687"/>
<path d="M22.5054 146.679L22.4825 146.557C22.467 146.431 22.467 146.303 22.4825 146.176C22.5096 145.933 22.5924 145.7 22.7246 145.495C22.8568 145.289 23.0347 145.117 23.2445 144.991C23.3901 144.902 23.5498 144.837 23.7169 144.801C23.9031 144.77 24.0921 144.758 24.2807 144.767H25.5722L28.8029 144.793L49.5396 144.988L63.9939 145.136L72.0934 145.216L76.3375 145.262L78.5091 145.285C78.6958 145.285 78.8672 145.285 79.0653 145.285C79.2589 145.307 79.4471 145.362 79.6216 145.449C79.9732 145.62 80.2517 145.912 80.4064 146.272C80.4778 146.449 80.5289 146.635 80.5588 146.824L80.6693 147.369C80.7416 147.75 80.8178 148.1 80.894 148.466C81.0413 149.2 81.1912 149.939 81.3436 150.683C81.6458 152.169 81.9519 153.674 82.2617 155.198C82.8815 158.246 83.5164 161.361 84.1666 164.543C85.4581 170.906 86.8068 177.523 88.1898 184.354L88.0945 184.278H102.301C102.489 184.271 102.676 184.282 102.861 184.312C103.243 184.394 103.578 184.619 103.798 184.941C104.021 185.261 104.113 185.656 104.054 186.042C104.019 186.276 103.93 186.498 103.795 186.692C103.659 186.886 103.481 187.045 103.273 187.158C103.063 187.27 102.832 187.332 102.595 187.341H64.4625H30.7726H30.7116V187.28C28.1819 174.803 26.1399 164.657 24.7036 157.625C23.995 154.112 23.4464 151.377 23.073 149.517C22.8902 148.588 22.7505 147.883 22.654 147.403C22.5587 146.923 22.5168 146.679 22.5168 146.679C22.5168 146.679 22.574 146.923 22.673 147.395C22.7721 147.868 22.9245 148.584 23.1149 149.506C23.4959 151.365 24.0636 154.097 24.7874 157.609C26.2275 164.638 28.3039 174.78 30.8602 187.249L30.784 187.189L64.4739 187.169H102.579C102.784 187.161 102.984 187.108 103.166 187.013C103.346 186.914 103.501 186.775 103.62 186.607C103.738 186.438 103.816 186.245 103.848 186.042C103.897 185.704 103.818 185.36 103.627 185.078C103.432 184.8 103.14 184.605 102.808 184.533C102.636 184.507 102.463 184.497 102.29 184.503H88.0031V184.426C86.6201 177.603 85.2753 170.986 83.9876 164.616C83.3399 161.431 82.7049 158.314 82.0827 155.266L81.1683 150.752C81.0198 150.009 80.8674 149.27 80.7188 148.538C80.6464 148.157 80.5702 147.803 80.4978 147.441L80.3873 146.893C80.3588 146.716 80.3129 146.542 80.2502 146.374C80.1454 146.134 79.9788 145.925 79.7674 145.77C79.5559 145.615 79.3071 145.518 79.0463 145.491C78.8787 145.491 78.6882 145.491 78.5091 145.491L76.3375 145.464L72.0896 145.418L63.9939 145.323L49.5357 145.151L28.7991 144.896L25.5722 144.854L24.2807 144.835C24.0948 144.824 23.9081 144.834 23.7245 144.866C23.5608 144.899 23.4038 144.96 23.2597 145.045C23.0542 145.165 22.8787 145.33 22.7467 145.528C22.6147 145.726 22.5295 145.952 22.4978 146.188C22.4826 146.351 22.4852 146.516 22.5054 146.679Z" fill="#868687"/>
<path d="M53.2009 167.622C54.5097 167.622 55.5706 166.561 55.5706 165.252C55.5706 163.943 54.5097 162.883 53.2009 162.883C51.8922 162.883 50.8312 163.943 50.8312 165.252C50.8312 166.561 51.8922 167.622 53.2009 167.622Z" fill="white"/>
<path d="M22.574 147.019C22.574 147.019 22.6578 147.019 22.8217 147.019H26.3343L36.594 147.068L70.4439 147.304L75.3395 147.346H76.5433C76.7486 147.339 76.954 147.351 77.1567 147.384C77.4667 147.447 77.7533 147.595 77.9846 147.811C78.2159 148.027 78.3829 148.302 78.4673 148.607C78.5587 148.988 78.6235 149.369 78.7035 149.75L80.4522 158.566C81.5608 164.186 82.5628 169.233 83.4009 173.497C84.2391 177.76 84.9249 181.181 85.3744 183.562C85.603 184.747 85.7782 185.669 85.9002 186.301C85.9573 186.61 86.003 186.85 86.0335 187.018C86.064 187.185 86.0716 187.261 86.0716 187.261C86.0716 187.261 86.0487 187.181 86.0144 187.021C85.9802 186.861 85.9268 186.618 85.8621 186.309L85.2982 183.593C84.8182 181.211 84.1248 177.779 83.2638 173.539C82.4028 169.298 81.397 164.231 80.2731 158.616C79.7131 155.808 79.1302 152.859 78.513 149.804C78.433 149.423 78.3644 149.042 78.2806 148.661C78.1801 148.299 77.9494 147.987 77.6329 147.784C77.476 147.684 77.3015 147.614 77.1186 147.579C76.9273 147.548 76.7332 147.536 76.5395 147.544H75.3395L70.4439 147.506L36.594 147.209L26.3343 147.095L23.5455 147.019H22.8179H22.574Z" fill="#868687"/>
<path d="M199.662 150.148C200.771 148.837 200.98 146.917 200.485 145.272C199.99 143.626 198.881 142.224 197.597 141.081C196.085 139.74 194.328 138.705 192.423 138.033C191.685 137.739 190.892 137.609 190.099 137.652C189.702 137.674 189.316 137.793 188.975 137.999C188.634 138.205 188.349 138.491 188.145 138.833C187.6 139.869 188.122 141.119 188.69 142.155C189.684 143.966 190.819 145.696 192.084 147.329C193.105 148.643 194.271 149.938 195.822 150.533C197.372 151.127 198.988 151.032 199.795 149.965" fill="#EBEBEB"/>
<path d="M202.534 161.368C202.558 161.062 202.558 160.755 202.534 160.45C202.5 159.863 202.416 159.01 202.252 157.966C202.051 156.745 201.782 155.537 201.445 154.346C201.047 152.881 200.537 151.448 199.921 150.06C198.872 147.501 197.365 145.154 195.475 143.134C195.148 142.788 194.798 142.463 194.427 142.163C194.267 142.026 194.126 141.892 193.981 141.782L193.577 141.5C193.336 141.317 193.081 141.151 192.816 141.005C192.77 141.066 193.909 141.736 195.345 143.264C197.172 145.301 198.638 147.634 199.681 150.163C200.284 151.543 200.793 152.963 201.205 154.411C201.552 155.591 201.839 156.788 202.066 157.996C202.256 159.029 202.363 159.871 202.447 160.457C202.452 160.763 202.482 161.067 202.534 161.368Z" fill="#E0E0E0"/>
<path d="M195.505 174.199L196.233 184.184H209.06L209.792 174.199H195.505Z" fill="#E0E0E0"/>
<path d="M211.32 170.263H194.267V174.199H211.32V170.263Z" fill="#E0E0E0"/>
<path d="M194.267 183.8V184.894H195.067H211.038V183.8H194.267Z" fill="#EBEBEB"/>
<path d="M195.852 186.814L195.067 184.894H210.428L209.51 186.814H195.852Z" fill="#E0E0E0"/>
<path d="M209.552 177.46C209.552 177.46 209.533 177.495 209.491 177.556L209.301 177.807C209.118 178.04 208.87 178.363 208.539 178.763L208.504 178.805L208.474 178.763L206.653 176.222H206.759L204.95 178.782L204.893 178.862L204.832 178.786L202.687 176.238H202.809C202.774 176.287 202.732 176.337 202.691 176.386L200.786 178.79L200.725 178.87L200.664 178.786C200.012 177.868 199.407 177.007 198.858 176.23H198.961L196.736 178.767L196.694 178.813L196.663 178.76L195.966 177.59L195.787 177.278C195.766 177.243 195.748 177.206 195.734 177.167C195.734 177.167 195.761 177.198 195.81 177.266L196.004 177.567C196.183 177.845 196.431 178.23 196.74 178.71H196.667L198.862 176.142L198.915 176.077L198.965 176.146L200.789 178.695H200.668L202.572 176.287L202.691 176.138L202.752 176.062L202.812 176.138L204.95 178.695H204.832L206.657 176.15L206.71 176.074L206.763 176.15L208.558 178.714H208.493L209.255 177.78L209.464 177.54C209.49 177.51 209.52 177.484 209.552 177.46Z" fill="#F5F5F5"/>
<path d="M209.967 174.135C209.967 174.176 206.756 174.215 202.79 174.215C198.824 174.215 195.612 174.176 195.612 174.135C195.612 174.093 198.827 174.055 202.79 174.055C206.752 174.055 209.967 174.089 209.967 174.135Z" fill="#F5F5F5"/>
<path d="M210.615 185C210.615 185.046 207.125 185.08 202.817 185.08C198.508 185.08 195.014 185.046 195.014 185C195.014 184.955 198.508 184.92 202.817 184.92C207.125 184.92 210.615 184.939 210.615 185Z" fill="#F5F5F5"/>
</g>
<path fill-rule="evenodd" clip-rule="evenodd" d="M187.895 2.36842H8.68429C5.63219 2.36842 3.15797 4.84264 3.15797 7.89474V187.105C3.15797 190.157 5.63219 192.632 8.68429 192.632H187.895C190.947 192.632 193.421 190.157 193.421 187.105V7.89474C193.421 4.84264 190.947 2.36842 187.895 2.36842ZM8.68429 0C4.32414 0 0.789551 3.5346 0.789551 7.89474V187.105C0.789551 191.465 4.32415 195 8.68429 195H187.895C192.255 195 195.79 191.465 195.79 187.105V7.89474C195.79 3.53459 192.255 0 187.895 0H8.68429Z" fill="black"/>
</svg>
