<svg width="196" height="195" viewBox="0 0 196 195" fill="none" xmlns="http://www.w3.org/2000/svg">
<path d="M0.210449 7.89474C0.210449 3.5346 3.74504 0 8.10519 0H187.316C191.676 0 195.21 3.53459 195.21 7.89474V187.105C195.21 191.465 191.676 195 187.316 195H8.10519C3.74505 195 0.210449 191.465 0.210449 187.105V7.89474Z" fill="#D9D9D9"/>
<mask id="mask0_797_6349" style="mask-type:alpha" maskUnits="userSpaceOnUse" x="0" y="0" width="196" height="195">
<path d="M0.210449 7.89474C0.210449 3.5346 3.74504 0 8.10519 0H187.316C191.676 0 195.21 3.53459 195.21 7.89474V187.105C195.21 191.465 191.676 195 187.316 195H8.10519C3.74505 195 0.210449 191.465 0.210449 187.105V7.89474Z" fill="#D9D9D9"/>
</mask>
<g mask="url(#mask0_797_6349)">
<path d="M209.211 44.8906V90.8099H143.258L140.882 45.2082L209.211 44.8906Z" fill="#E0E0E0"/>
<path d="M140.882 45.2093V90.7146H206.834V45.2093L140.882 45.2093Z" fill="white"/>
<path d="M207.152 91.0253H140.57V44.8961H207.152V91.0253ZM141.194 90.4014H206.522V45.52H141.194V90.4014Z" fill="#E0E0E0"/>
<path d="M199.693 50.8641H148.028V85.0597H199.693V50.8641Z" fill="white"/>
<path d="M199.693 50.8639H199.438H198.706H195.87L185.224 50.9036L148.034 50.9774L148.181 50.8299C148.181 61.2774 148.181 72.8537 148.181 85.0198L148.022 84.8553L199.687 84.8894L199.557 85.0198C199.585 74.612 199.608 66.0815 199.625 60.1374C199.625 57.171 199.653 54.8512 199.659 53.2574C199.659 52.4747 199.659 51.8735 199.659 51.4538C199.659 51.0398 199.659 50.8242 199.659 50.8242C199.659 50.8242 199.659 51.0227 199.659 51.4254C199.659 51.8281 199.659 52.435 199.659 53.2064C199.659 54.7945 199.659 57.103 199.693 60.058C199.693 66.0191 199.733 74.5779 199.761 85.0141V85.1446H199.631L147.966 85.1786H147.801V85.0141C147.801 72.848 147.801 61.2718 147.801 50.8242V50.6768H147.954L185.349 50.7902L195.961 50.8299H198.769H199.483L199.693 50.8639Z" fill="#E0E0E0"/>
<path d="M140.882 45.0839C141.289 45.28 141.67 45.5258 142.016 45.8155C142.691 46.3033 143.61 46.9953 144.603 47.7893C145.595 48.5834 146.469 49.3321 147.081 49.8993C147.437 50.1786 147.755 50.5027 148.028 50.8635C146.772 49.9797 145.56 49.0332 144.398 48.0276C143.167 47.1196 141.992 46.1365 140.882 45.0839Z" fill="#E0E0E0"/>
<path d="M140.882 90.7145C141.956 89.6581 143.105 88.6801 144.319 87.7878C145.464 86.8113 146.679 85.9203 147.955 85.1221C146.881 86.1773 145.732 87.1535 144.517 88.0431C143.372 89.0202 142.157 89.9131 140.882 90.7145Z" fill="#E0E0E0"/>
<path d="M158.515 61.5156V72.967H191.026V61.5156H158.515Z" fill="#E0E0E0"/>
<path d="M51.4042 43.7452H-9.90283V98.5921H51.4042V43.7452Z" fill="#FAFAFA"/>
<path d="M51.4042 98.5919C51.4042 98.5919 51.4042 98.2402 51.4042 97.5709C51.4042 96.9016 51.4042 95.9147 51.4042 94.6329C51.4042 92.0579 51.4042 88.2974 51.3644 83.4991C51.3644 73.9193 51.3247 60.2445 51.2964 43.745L51.4325 43.8812H-9.86887L-9.70439 43.7167C-9.70439 63.6703 -9.70439 82.4441 -9.70439 98.5635L-9.85186 98.416L34.4907 98.4898L46.9971 98.5295H50.3095H51.1603H51.4552H51.1773H50.3378H47.0595L34.5814 98.5635L-9.85186 98.6372H-9.99365V98.4954C-9.99365 82.376 -9.99365 63.6022 -9.99365 43.6486V43.4841H-9.8235H51.4779H51.6197V43.6259C51.5856 60.1424 51.563 73.8626 51.546 83.4707C51.546 88.2521 51.5176 91.9785 51.5119 94.5705C51.5119 95.841 51.5119 96.8393 51.5119 97.4858C51.5119 98.1324 51.4042 98.5919 51.4042 98.5919Z" fill="#E0E0E0"/>
<path d="M13.6124 53.4904C13.6124 53.5812 10.3851 53.6549 6.40345 53.6549C2.42181 53.6549 -0.799805 53.5812 -0.799805 53.4904C-0.799805 53.3997 2.42181 53.3259 6.40345 53.3259C10.3851 53.3259 13.6124 53.3997 13.6124 53.4904Z" fill="#E0E0E0"/>
<path d="M39.5841 57.5966C39.5841 57.6874 30.719 57.7611 19.7837 57.7611C8.84833 57.7611 0.000244141 57.6987 0.000244141 57.5966C0.000244141 57.4945 8.86535 57.4321 19.8007 57.4321C30.736 57.4321 39.5841 57.5172 39.5841 57.5966Z" fill="#E0E0E0"/>
<path d="M1.87757 64.5845H-0.703125V67.1652H1.87757V64.5845Z" fill="#E0E0E0"/>
<path d="M8.23548 64.5845H5.65479V67.1652H8.23548V64.5845Z" fill="#E0E0E0"/>
<path d="M14.713 64.4647H12.1323V67.0454H14.713V64.4647Z" fill="#E0E0E0"/>
<path d="M20.9518 64.5845H18.3711V67.1652H20.9518V64.5845Z" fill="#E0E0E0"/>
<path d="M27.3102 64.5845H24.7295V67.1652H27.3102V64.5845Z" fill="#E0E0E0"/>
<path d="M33.6683 64.5845H31.0876V67.1652H33.6683V64.5845Z" fill="#E0E0E0"/>
<path d="M40.0265 64.5845H37.4458V67.1652H40.0265V64.5845Z" fill="#EBEBEB"/>
<path d="M1.87757 70.0746H-0.703125V72.6553H1.87757V70.0746Z" fill="#EBEBEB"/>
<path d="M8.23548 70.0746H5.65479V72.6553H8.23548V70.0746Z" fill="#E0E0E0"/>
<path d="M14.5939 70.0746H12.0132V72.6553H14.5939V70.0746Z" fill="#EBEBEB"/>
<path d="M20.9518 70.0746H18.3711V72.6553H20.9518V70.0746Z" fill="#E0E0E0"/>
<path d="M27.3102 70.0746H24.7295V72.6553H27.3102V70.0746Z" fill="#E0E0E0"/>
<path d="M33.7816 69.9557H31.2009V72.5364H33.7816V69.9557Z" fill="#E0E0E0"/>
<path d="M40.0265 70.0746H37.4458V72.6553H40.0265V70.0746Z" fill="#E0E0E0"/>
<path d="M1.87757 75.5643H-0.703125V78.145H1.87757V75.5643Z" fill="#E0E0E0"/>
<path d="M8.35511 75.4454H5.77441V78.0261H8.35511V75.4454Z" fill="#E0E0E0"/>
<path d="M14.5939 75.5643H12.0132V78.145H14.5939V75.5643Z" fill="#E0E0E0"/>
<path d="M20.9518 75.5643H18.3711V78.145H20.9518V75.5643Z" fill="#EBEBEB"/>
<path d="M27.3102 75.5643H24.7295V78.145H27.3102V75.5643Z" fill="#E0E0E0"/>
<path d="M33.6683 75.5643H31.0876V78.145H33.6683V75.5643Z" fill="#E0E0E0"/>
<path d="M40.0265 75.5643H37.4458V78.145H40.0265V75.5643Z" fill="#E0E0E0"/>
<path d="M1.87757 81.0554H-0.703125V83.6361H1.87757V81.0554Z" fill="#E0E0E0"/>
<path d="M8.23548 81.0554H5.65479V83.6361H8.23548V81.0554Z" fill="#E0E0E0"/>
<path d="M14.5939 81.0554H12.0132V83.6361H14.5939V81.0554Z" fill="#E0E0E0"/>
<path d="M21.0709 80.942H18.4902V83.5227H21.0709V80.942Z" fill="#E0E0E0"/>
<path d="M27.3102 81.0554H24.7295V83.6361H27.3102V81.0554Z" fill="#E0E0E0"/>
<path d="M33.6683 81.0554H31.0876V83.6361H33.6683V81.0554Z" fill="#EBEBEB"/>
<path d="M40.0265 81.0554H37.4458V83.6361H40.0265V81.0554Z" fill="#E0E0E0"/>
<path d="M1.87757 86.5455H-0.703125V89.1262H1.87757V86.5455Z" fill="#E0E0E0"/>
<path d="M8.23548 86.5455H5.65479V89.1262H8.23548V86.5455Z" fill="#EBEBEB"/>
<path d="M14.5939 86.5455H12.0132V89.1262H14.5939V86.5455Z" fill="#E0E0E0"/>
<path d="M20.9518 86.5455H18.3711V89.1262H20.9518V86.5455Z" fill="#E0E0E0"/>
<path d="M27.3102 86.5455H24.7295V89.1262H27.3102V86.5455Z" fill="#E0E0E0"/>
<path d="M33.7816 86.4318H31.2009V89.0125H33.7816V86.4318Z" fill="#E0E0E0"/>
<path d="M40.0265 86.5455H37.4458V89.1262H40.0265V86.5455Z" fill="#E0E0E0"/>
<path d="M82.2103 84.0522L59.9651 80.1147L57.3108 95.1106L79.556 99.0481L82.2103 84.0522Z" fill="#EBEBEB"/>
<path d="M82.2421 84.2565C82.1677 84.321 82.086 84.3766 81.9988 84.4222L81.2861 84.8568C80.6411 85.2327 79.7383 85.7655 78.6337 86.4162C76.374 87.7138 73.2589 89.5197 69.8228 91.5111L69.7511 91.5543L69.6779 91.5109L69.5438 91.3589L62.7539 83.5937L60.7116 81.222L60.1655 80.5751C60.097 80.5018 60.0362 80.4216 59.9843 80.3357C60.0592 80.4013 60.1298 80.4718 60.1955 80.5467L60.7736 81.1731L62.8624 83.4997L69.7298 91.212L69.8639 91.364L69.7305 91.3443C73.1852 89.3771 76.2985 87.5965 78.5757 86.3027L81.2575 84.7937L81.9957 84.394C82.0736 84.3409 82.156 84.2949 82.2421 84.2565Z" fill="#E0E0E0"/>
<path d="M57.3411 95.3123C57.2972 95.2862 59.3395 93.5102 61.8926 91.3842C64.4458 89.2583 66.5468 87.55 66.5704 87.6102C66.5941 87.6704 64.5691 89.4172 62.0383 91.5167C59.5074 93.6163 57.3899 95.3412 57.3411 95.3123Z" fill="#E0E0E0"/>
<path d="M73.9998 88.7374C74.0502 88.708 75.3424 91.0436 76.8865 93.9441C78.4306 96.8446 79.6384 99.2225 79.5879 99.2519C79.5375 99.2814 78.2453 96.9457 76.7041 94.0404C75.1629 91.135 73.9522 88.762 73.9998 88.7374Z" fill="#E0E0E0"/>
<path d="M121.969 80.6584C122.509 80.3307 123.091 80.077 123.699 79.9041L124.056 78.2025L126.949 78.1515L127.369 79.853C127.982 80.0028 128.571 80.2356 129.121 80.545L130.585 79.5865L132.666 81.5943L131.759 83.0917C132.086 83.6221 132.34 84.1945 132.513 84.7932L134.215 85.1449L134.266 88.0432L132.564 88.4572C132.413 89.0707 132.182 89.6618 131.878 90.2155L132.836 91.6732L130.823 93.7547L129.331 92.8529C128.79 93.1766 128.208 93.4283 127.601 93.6016L127.244 95.3032L124.351 95.3542L123.932 93.6527C123.319 93.5004 122.73 93.2678 122.179 92.9607L120.716 93.9192L118.634 91.9057L119.542 90.414C119.213 89.8743 118.959 89.2923 118.787 88.6841L117.086 88.3268L117.035 85.4341L118.736 85.0144C118.886 84.4024 119.117 83.8131 119.423 83.2618L118.464 81.7985L120.477 79.7169L121.969 80.6244V80.6584ZM123.512 84.5096C123.084 84.9513 122.797 85.51 122.686 86.1151C122.576 86.7201 122.647 87.3443 122.892 87.9086C123.137 88.473 123.543 88.9521 124.06 89.2853C124.577 89.6185 125.181 89.7908 125.796 89.7805C126.411 89.7702 127.009 89.5776 127.515 89.2272C128.02 88.8769 128.41 88.3844 128.636 87.8122C128.861 87.24 128.912 86.6137 128.781 86.0127C128.651 85.4117 128.345 84.8629 127.902 84.4359C127.61 84.1508 127.266 83.9259 126.887 83.7741C126.509 83.6224 126.104 83.5467 125.696 83.5514C125.289 83.5562 124.886 83.6412 124.511 83.8018C124.136 83.9623 123.797 84.1951 123.512 84.4869V84.5096Z" fill="#8C9192"/>
<path d="M123.451 84.6654C123.613 84.4683 123.804 84.2979 124.019 84.1606C124.392 83.9182 124.813 83.7579 125.254 83.6906C125.694 83.6232 126.143 83.6502 126.573 83.7698C127.002 83.8894 127.4 84.0989 127.742 84.3843C128.084 84.6698 128.362 85.0246 128.556 85.4254C128.837 85.9904 128.941 86.6266 128.857 87.2518C128.766 87.9252 128.464 88.5525 127.995 89.0441C127.522 89.5317 126.906 89.8556 126.236 89.9686C125.921 90.0195 125.599 90.0195 125.283 89.9686C124.978 89.9305 124.679 89.8463 124.399 89.719C123.881 89.4842 123.435 89.1162 123.105 88.6527C122.823 88.2471 122.641 87.7808 122.572 87.2915C122.465 86.584 122.609 85.8613 122.981 85.2496C123.11 85.0359 123.273 84.8444 123.463 84.6824C123.463 84.6824 123.276 84.8866 123.037 85.312C122.704 85.9188 122.584 86.6198 122.697 87.3028C122.771 87.7698 122.953 88.2128 123.23 88.596C123.547 89.0335 123.973 89.3797 124.467 89.5999C124.732 89.7176 125.013 89.7959 125.3 89.8325C125.601 89.8805 125.907 89.8805 126.208 89.8325C126.84 89.7247 127.422 89.4188 127.87 88.959C128.314 88.4915 128.599 87.8962 128.686 87.2574C128.758 86.6754 128.661 86.085 128.409 85.5559C128.173 85.0682 127.813 84.6514 127.365 84.3478C126.972 84.0859 126.523 83.9207 126.055 83.8657C125.37 83.777 124.675 83.9208 124.081 84.274C123.65 84.4953 123.468 84.7051 123.451 84.6654Z" fill="#E0E0E0"/>
<path d="M122.025 80.7184L121.928 80.667L121.643 80.5016L120.504 79.8285H120.538L118.533 81.9391V81.882L119.501 83.348C119.197 83.9003 118.969 84.4913 118.823 85.1049V85.1391H118.789L117.08 85.5669L117.126 85.5042C117.126 86.4168 117.166 87.3923 117.183 88.4133L117.132 88.3449L118.841 88.6985H118.88V88.7384C119.054 89.3397 119.307 89.9151 119.632 90.4497V90.4896V90.5296L118.744 92.1096V92.0069L120.84 94.0262H120.738L122.202 93.0565L122.247 93.028L122.293 93.0565C122.841 93.3609 123.427 93.5911 124.036 93.741H124.087V93.7923L124.503 95.5036L124.418 95.4408L127.323 95.3895L127.237 95.458C127.351 94.8875 127.477 94.3171 127.596 93.7467V93.6954H127.648C128.249 93.5266 128.824 93.2751 129.357 92.9481H129.408H129.454L130.952 93.8608H130.844L132.86 91.7674V91.8757C132.535 91.3795 132.211 90.8889 131.897 90.4041L131.869 90.3584V90.3128C132.175 89.7644 132.407 89.1773 132.558 88.5673V88.516H132.609L134.319 88.0996L134.256 88.1851C134.256 87.1926 134.239 86.2229 134.205 85.276L134.273 85.3559L132.564 84.9908H132.518V84.9395C132.349 84.3386 132.1 83.7631 131.778 83.2282V83.1883V83.1483L132.689 81.6424V81.7337L130.604 79.7087H130.69L129.22 80.667H129.186H129.152C128.602 80.3608 128.013 80.1287 127.403 79.9768H127.369V79.9426C127.22 79.3208 127.084 78.7618 126.953 78.2313L127.01 78.2713L124.099 78.3055H124.138C123.99 78.99 123.871 79.5547 123.768 80.0168C123.309 80.142 122.865 80.314 122.441 80.5301L122.128 80.6898L122.019 80.7469C122.048 80.72 122.081 80.6969 122.116 80.6784L122.424 80.5016C122.847 80.276 123.291 80.0944 123.751 79.9597C123.842 79.492 123.956 78.9273 124.093 78.2485V78.2142H124.127L127.032 78.1515H127.078V78.1914C127.209 78.7219 127.351 79.2809 127.505 79.9027L127.46 79.8627C128.082 80.0138 128.682 80.2479 129.243 80.5587H129.174L130.644 79.5946L130.69 79.5604L130.73 79.6004L132.82 81.6196L132.866 81.6596L132.832 81.7109L131.926 83.2168V83.1369C132.259 83.685 132.516 84.2761 132.689 84.8938L132.632 84.8368L134.341 85.1904H134.404V85.2532C134.404 86.2001 134.444 87.1698 134.461 88.1623V88.2308H134.393L132.684 88.6529L132.746 88.5901C132.593 89.2138 132.357 89.8143 132.046 90.3755V90.2729L133.014 91.7445L133.048 91.8016L133.003 91.8529L130.98 93.9464L130.935 93.9977L130.872 93.9635L129.368 93.0508H129.459C128.912 93.384 128.321 93.6411 127.705 93.8152L127.767 93.7467C127.642 94.3171 127.522 94.9275 127.408 95.458V95.5321H127.34L124.435 95.5777H124.366V95.5093C124.218 94.9389 124.076 94.3342 123.945 93.798L124.007 93.8608C123.385 93.7052 122.786 93.4694 122.224 93.1592H122.316L120.846 94.1232L120.789 94.1574L120.743 94.1118L118.653 92.0868L118.607 92.0469L118.641 91.9898C118.96 91.465 119.268 90.9517 119.553 90.4896V90.5695C119.222 90.0188 118.967 89.4259 118.795 88.8069L118.846 88.8582L117.137 88.4989H117.08V88.4418C117.08 87.4208 117.046 86.4511 117.035 85.5327V85.4814H117.08L118.789 85.065L118.744 85.1391C118.897 84.5173 119.133 83.9188 119.444 83.3594V83.4164C119.097 82.886 118.778 82.3897 118.487 81.9391L120.515 79.857L121.655 80.5415L121.934 80.7241C121.997 80.6898 122.025 80.7127 122.025 80.7184Z" fill="#E0E0E0"/>
<path d="M3.72601 36.8787L-17.7896 43.7659L-13.1468 58.2698L8.36877 51.3826L3.72601 36.8787Z" fill="#8C9192"/>
<path d="M3.85384 37.019C3.81454 37.1101 3.76708 37.1974 3.71204 37.2799C3.60427 37.4614 3.46248 37.6997 3.28098 37.9946L1.6645 40.615L-3.75212 49.2305L-3.7975 49.2986H-3.8769L-4.06407 49.2249L-13.7062 45.5268L-16.6159 44.3925L-17.4043 44.0748C-17.4986 44.0415 -17.5897 43.9997 -17.6765 43.95C-17.5795 43.9692 -17.4845 43.9977 -17.3929 44.0351L-16.5875 44.3187L-13.6552 45.402L-4.01302 49.049L-3.82018 49.1171L-3.94496 49.1625L1.52837 40.5753C2.22601 39.4976 2.7932 38.6185 3.20158 37.9946L3.661 37.297C3.7167 37.1987 3.78125 37.1056 3.85384 37.019Z" fill="#263238"/>
<path d="M-1.35288 44.8234C-1.31885 44.778 0.91586 46.2414 3.62701 48.0904C6.33815 49.9394 8.52749 51.4935 8.49345 51.4935C8.45942 51.4935 6.22471 50.0812 3.51356 48.2322C0.802416 46.3832 -1.38691 44.8745 -1.35288 44.8234Z" fill="#263238"/>
<path d="M132.44 74.3162L110.985 65.2494C110.284 64.9419 109.732 64.3713 109.448 63.6605C109.163 62.9496 109.17 62.1556 109.465 61.4494L122.051 31.7487C122.357 31.0462 122.927 30.4926 123.639 30.2081C124.35 29.9235 125.145 29.9309 125.851 30.2287L139.462 35.9895L145.39 51.311L136.27 72.8418C135.955 73.5423 135.375 74.09 134.658 74.3661C133.941 74.6421 133.144 74.6242 132.44 74.3162Z" fill="#8C9192"/>
<path d="M139.455 35.9137L135.913 44.2737C135.773 44.6014 135.699 44.9536 135.696 45.31C135.692 45.6665 135.759 46.0201 135.892 46.3506C136.026 46.6811 136.223 46.982 136.473 47.236C136.724 47.4899 137.021 47.692 137.35 47.8305L145.383 51.2353L139.455 35.9137Z" fill="#8C9192"/>
<g opacity="0.2">
<path d="M135.708 45.0562C135.45 45.6918 135.415 46.396 135.608 47.0541C135.802 47.7122 136.212 48.2857 136.772 48.6813C136.847 48.7438 136.926 48.8022 137.008 48.8561C137.98 49.4869 144.364 53.6441 144.433 53.4845L145.383 51.2045L137.35 47.7997C137.35 47.7997 135.358 46.9105 135.708 45.0562Z" fill="black"/>
</g>
<g opacity="0.3">
<path d="M139.455 35.9137L135.913 44.2737C135.773 44.6014 135.699 44.9536 135.696 45.31C135.692 45.6665 135.759 46.0201 135.892 46.3506C136.026 46.6811 136.223 46.982 136.473 47.236C136.724 47.4899 137.021 47.692 137.35 47.8305L145.383 51.2353L139.455 35.9137Z" fill="white"/>
</g>
<path d="M134.256 43.2091C132.527 42.7057 130.84 42.0679 129.21 41.3015C127.526 40.6657 125.892 39.9035 124.323 39.0215C126.056 39.52 127.747 40.158 129.377 40.9291C131.061 41.56 132.692 42.3224 134.256 43.2091Z" fill="#FAFAFA"/>
<path d="M138.664 50.6117C138.619 50.7181 134.925 49.2589 130.411 47.3437C125.896 45.4285 122.279 43.8021 122.324 43.6881C122.37 43.5741 126.064 45.0485 130.578 46.9561C135.092 48.8637 138.71 50.5053 138.664 50.6117Z" fill="#FAFAFA"/>
<path d="M138.467 55.1873C138.421 55.2937 134.393 53.6673 129.476 51.6077C124.559 49.5481 120.607 47.7697 120.652 47.6405C120.698 47.5113 124.718 49.1605 129.643 51.2201C134.568 53.2797 138.512 55.0733 138.467 55.1873Z" fill="#FAFAFA"/>
<path d="M136.879 58.9108C136.833 59.0172 132.813 57.3908 127.895 55.3313C122.978 53.2717 119.026 51.4705 119.064 51.3641C119.102 51.2577 123.138 52.8841 128.055 54.9437C132.972 57.0033 136.932 58.7968 136.879 58.9108Z" fill="#FAFAFA"/>
<path d="M135.313 62.6273C135.267 62.7413 131.239 61.1073 126.322 59.0553C121.405 57.0033 117.453 55.1945 117.499 55.0881C117.544 54.9817 121.565 56.6081 126.489 58.6677C131.414 60.7273 135.359 62.5209 135.313 62.6273Z" fill="#FAFAFA"/>
<path d="M133.732 66.3511C133.686 66.4651 129.658 64.8311 124.741 62.7791C119.824 60.7271 115.872 58.9183 115.917 58.8119C115.963 58.7055 119.991 60.3319 124.908 62.3839C129.825 64.4359 133.777 66.2447 133.732 66.3511Z" fill="#FAFAFA"/>
<path d="M96.0628 92.3311C107.763 92.3311 117.247 82.8466 117.247 71.1468C117.247 59.447 107.763 49.9624 96.0628 49.9624C84.363 49.9624 74.8784 59.447 74.8784 71.1468C74.8784 82.8466 84.363 92.3311 96.0628 92.3311Z" fill="white"/>
<path d="M117.247 71.1473C117.247 71.1473 117.247 71.0339 117.213 70.807C117.179 70.5802 117.173 70.2398 117.145 69.7974C117.145 69.5762 117.117 69.3324 117.1 69.0601C117.083 68.7879 117.015 68.4929 116.969 68.1753C116.874 67.4377 116.726 66.708 116.527 65.9916C116.032 64.0103 115.24 62.1153 114.179 60.3708C112.641 57.8081 110.577 55.6002 108.125 53.8924C105.672 52.1845 102.885 51.0154 99.948 50.4621C99.0695 50.2988 98.1807 50.1964 97.288 50.1558C96.8342 50.1558 96.3748 50.0934 95.9154 50.0991L94.5201 50.1728C94.2875 50.1728 94.0493 50.1728 93.8168 50.2182L93.1135 50.326C92.6484 50.4054 92.1719 50.4621 91.7012 50.5585C89.7702 50.9922 87.9037 51.6748 86.1484 52.589C85.706 52.8273 85.2806 53.1109 84.8382 53.3718C84.6227 53.5079 84.3958 53.627 84.186 53.7801L83.5677 54.2452C81.8505 55.4924 80.3485 57.0116 79.121 58.743L78.6389 59.3896L78.2135 60.0816L77.7881 60.7508C77.6381 60.9788 77.5054 61.2177 77.3911 61.4655C77.1585 61.9589 76.9203 62.4524 76.6764 62.9515L76.1092 64.5056C75.4171 66.6528 75.05 68.8915 75.0203 71.1473C75.0501 73.4013 75.4171 75.6381 76.1092 77.7834C76.2964 78.3052 76.4893 78.827 76.6764 79.3432C76.8636 79.8593 77.1529 80.3357 77.3911 80.8235C77.5041 81.0738 77.6368 81.3147 77.7881 81.5438L78.2135 82.2415L78.6332 82.9335L79.121 83.58C79.7501 84.4396 80.438 85.2545 81.1799 86.0189C81.9301 86.7478 82.7278 87.4261 83.5677 88.0495L84.186 88.5146C84.3958 88.6677 84.6227 88.7868 84.8382 88.9229C85.2806 89.1838 85.706 89.4901 86.1484 89.7056C87.9037 90.6199 89.7702 91.3024 91.7012 91.7362C92.1719 91.8383 92.6484 91.8893 93.1191 91.9687L93.8168 92.0765C94.055 92.0765 94.2875 92.0765 94.5201 92.1218L95.938 92.2069C96.3975 92.2069 96.8569 92.1672 97.3106 92.1559C98.2035 92.1134 99.0923 92.0092 99.9707 91.8439C102.909 91.2927 105.696 90.1244 108.149 88.4164C110.602 86.7083 112.665 84.4993 114.201 81.9352C115.254 80.1929 116.038 78.3018 116.527 76.3257C116.726 75.6094 116.874 74.8796 116.969 74.1421C117.015 73.8245 117.071 73.5295 117.1 73.2573C117.128 72.985 117.134 72.7411 117.145 72.5199C117.175 72.0813 117.198 71.7467 117.213 71.516C117.213 71.2891 117.247 71.17 117.247 71.17C117.247 71.17 117.247 71.2891 117.247 71.516C117.247 71.7429 117.247 72.0832 117.213 72.5199C117.213 72.7468 117.213 72.9907 117.179 73.2686C117.145 73.5465 117.105 73.8358 117.06 74.1534C116.973 74.8867 116.832 75.6127 116.64 76.3257C116.16 78.3232 115.377 80.2358 114.321 81.9976C112.784 84.597 110.711 86.8396 108.241 88.5764C105.771 90.3132 102.959 91.5044 99.9934 92.0708C99.1055 92.2376 98.2073 92.3437 97.305 92.3884C96.8455 92.3884 96.3804 92.4508 95.9154 92.4451L94.5031 92.3771C94.2649 92.3771 94.0266 92.3771 93.7884 92.3317L93.1021 92.2069C92.6257 92.1275 92.1436 92.0765 91.6671 91.9744C90.704 91.7635 89.7565 91.4868 88.8312 91.1463C87.8764 90.8056 86.9459 90.4001 86.0463 89.9325C85.5983 89.6886 85.1615 89.405 84.7191 89.1385C84.4979 88.9967 84.2654 88.8776 84.0555 88.7244L83.4316 88.2537C82.5804 87.6228 81.7714 86.937 81.0097 86.2004C80.2566 85.4248 79.5573 84.5985 78.9168 83.7275L78.4234 83.0753L77.9923 82.3719L77.5669 81.663C77.4129 81.4325 77.2782 81.1896 77.1642 80.937C76.926 80.4378 76.6821 79.9387 76.4439 79.4339L75.8767 77.8515C75.1775 75.6764 74.8067 73.4092 74.7764 71.1247C74.7938 68.8477 75.1513 66.5862 75.837 64.4149L76.4042 62.8381L77.1302 61.3294C77.2435 61.0774 77.3762 60.8347 77.5272 60.6034L77.9583 59.9001L78.3837 59.1968L78.8771 58.5388C79.5191 57.6708 80.2183 56.8465 80.97 56.0716C81.7317 55.3351 82.5407 54.6492 83.3919 54.0184L84.0158 53.5476C84.2257 53.3945 84.4582 53.2753 84.6794 53.1335C85.1218 52.8726 85.5586 52.5664 86.0066 52.3452C87.7861 51.423 89.6772 50.7348 91.6331 50.2976C92.1095 50.2012 92.5917 50.1445 93.0681 50.0651L93.7771 49.9573C94.0153 49.9573 94.2535 49.9573 94.4917 49.9119L95.904 49.8439C96.3691 49.8439 96.8285 49.8836 97.288 49.9006C98.1919 49.9478 99.0919 50.0539 99.9821 50.2182C102.948 50.7847 105.76 51.9758 108.23 53.7126C110.7 55.4494 112.772 57.692 114.309 60.2914C115.366 62.0532 116.148 63.9658 116.629 65.9633C116.821 66.6857 116.959 67.4213 117.043 68.164C117.088 68.4872 117.139 68.7822 117.162 69.0544L117.196 69.7974C117.196 70.2342 117.225 70.5688 117.23 70.807C117.236 71.0452 117.247 71.1473 117.247 71.1473Z" fill="#263238"/>
<path d="M106.108 70.5515C105.83 70.6535 105.546 70.735 105.257 70.7954L102.892 71.3626C100.89 71.8277 98.1104 72.4572 95.0022 73.1379L94.8264 73.1776V72.3551C94.8264 69.0371 94.8264 66.031 94.8661 63.8474C94.8661 62.8037 94.9058 61.9359 94.9172 61.2723C94.9087 60.9574 94.9276 60.6424 94.9739 60.3308C95.0165 60.6428 95.0355 60.9575 95.0306 61.2723C95.0306 61.9359 95.059 62.8037 95.076 63.8474C95.076 66.0254 95.1213 69.0314 95.1213 72.3551V72.9734L94.9398 72.8259C98.048 72.151 100.833 71.5554 102.846 71.1243L105.229 70.6536C105.518 70.5924 105.812 70.5582 106.108 70.5515Z" fill="#263238"/>
<path d="M118.761 79.8819C118.782 79.7636 118.814 79.6477 118.858 79.5359C118.92 79.3147 119.051 78.9687 119.164 78.5717C119.529 77.3818 119.806 76.1666 119.992 74.9361C120.64 70.87 120.253 66.7061 118.865 62.8297C117.477 58.9533 115.133 55.4896 112.052 52.7591C111.128 51.9332 110.146 51.175 109.113 50.4904C108.751 50.2351 108.45 50.065 108.263 49.9232C108.159 49.8633 108.06 49.795 107.968 49.719C108.083 49.7533 108.192 49.805 108.291 49.8721C108.49 49.9856 108.802 50.1387 109.176 50.3826C110.242 51.0384 111.251 51.7821 112.193 52.606C115.341 55.3292 117.73 58.8203 119.13 62.7401C120.529 66.6599 120.891 70.8749 120.179 74.9758C119.978 76.2046 119.677 77.4149 119.277 78.5944C119.141 79.0141 118.994 79.3317 118.914 79.5473C118.876 79.6643 118.825 79.7766 118.761 79.8819Z" fill="#263238"/>
<path d="M122.823 69.4574C122.777 69.4574 122.749 68.6123 122.579 67.2624C122.352 65.5072 121.953 63.7784 121.388 62.1011C120.817 60.4308 120.082 58.8214 119.193 57.297C118.501 56.1229 118.002 55.4423 118.058 55.4139C118.211 55.5417 118.345 55.6907 118.455 55.8563C118.688 56.1626 119.023 56.6107 119.386 57.1836C120.351 58.6919 121.131 60.3104 121.711 62.0046C122.295 63.6986 122.676 65.456 122.845 67.2398C122.908 67.9204 122.925 68.4762 122.925 68.8619C122.922 69.0645 122.888 69.2655 122.823 69.4574Z" fill="#263238"/>
<path d="M74.9123 58.8788C74.8785 58.992 74.8309 59.1005 74.7705 59.2021C74.6684 59.4119 74.4926 59.7069 74.3111 60.1096C72.1752 64.3529 71.3134 69.1237 71.8298 73.8461C72.3461 78.5685 74.2184 83.0404 77.2208 86.7219C78.0023 87.6884 78.8514 88.5981 79.7617 89.4444C80.0794 89.7507 80.3289 89.9662 80.5161 90.125C80.6072 90.2018 80.6925 90.2852 80.7713 90.3746C80.6649 90.3191 80.5658 90.2505 80.4764 90.1704C80.2949 90.0286 80.017 89.8244 79.688 89.5295C78.7407 88.7107 77.8623 87.8153 77.0619 86.8524C74.3852 83.6642 72.5798 79.8372 71.8214 75.7441C71.063 71.6509 71.3775 67.4312 72.7343 63.4957C73.1344 62.3102 73.6334 61.1604 74.226 60.0585C74.4245 59.6615 74.6174 59.3722 74.7308 59.1737C74.783 59.0705 74.8437 58.9719 74.9123 58.8788Z" fill="#263238"/>
<path d="M69.2463 68.527C69.2974 68.527 69.1896 69.3721 69.1442 70.7333C69.084 72.5011 69.2038 74.2703 69.5016 76.0138C69.8053 77.7591 70.2842 79.4693 70.9309 81.1185C71.4243 82.3833 71.81 83.1377 71.7646 83.1604C71.637 83.0068 71.5302 82.8371 71.447 82.6556C71.2598 82.3209 71.0103 81.8275 70.738 81.1979C70.0259 79.5635 69.5118 77.8497 69.2066 76.0932C68.9055 74.3292 68.8141 72.5358 68.9344 70.7503C68.9854 70.064 69.0535 69.5139 69.1159 69.1339C69.1318 68.9266 69.1756 68.7225 69.2463 68.527Z" fill="#263238"/>
<path d="M113.6 74.6244C112.8 74.4599 112.154 74.3181 112.154 74.3124C112.154 74.3068 112.806 74.4316 113.606 74.596C114.406 74.7605 115.052 74.8966 115.046 74.9023C115.041 74.908 114.394 74.8116 113.6 74.6244Z" fill="#263238"/>
<path d="M111.547 79.9837C110.844 79.5697 110.277 79.2294 110.277 79.2237C110.277 79.218 110.844 79.547 111.558 79.961C112.273 80.3751 112.829 80.7154 112.823 80.7211C112.818 80.7267 112.245 80.3978 111.547 79.9837Z" fill="#263238"/>
<path d="M107.849 84.3631C107.316 83.7392 106.89 83.2288 106.896 83.2288C106.902 83.2288 107.338 83.7222 107.866 84.3631C108.393 85.004 108.824 85.4975 108.813 85.4975C108.802 85.4975 108.416 84.9814 107.849 84.3631Z" fill="#263238"/>
<path d="M102.966 87.3122C102.665 86.5522 102.427 85.934 102.432 85.934C102.438 85.934 102.688 86.5408 103 87.3009C103.312 88.0609 103.538 88.6735 103.527 88.6791C103.516 88.6848 103.266 88.0666 102.966 87.3122Z" fill="#263238"/>
<path d="M97.3727 88.5085C97.3387 87.6918 97.316 87.0338 97.3217 87.0338C97.3273 87.0338 97.367 87.6918 97.4011 88.5085C97.4351 89.3252 97.4635 89.9832 97.4578 89.9832C97.4521 89.9832 97.4124 89.3252 97.3727 88.5085Z" fill="#263238"/>
<path d="M91.6954 87.8223C91.9223 87.0396 92.1095 86.41 92.1208 86.41C92.1322 86.41 91.9507 87.051 91.7238 87.8337C91.4969 88.6164 91.3041 89.246 91.2927 89.246C91.2814 89.246 91.4629 88.605 91.6954 87.8223Z" fill="#263238"/>
<path d="M86.5398 85.3378C87.0106 84.6685 87.3963 84.1354 87.4076 84.141C87.419 84.1467 87.0333 84.7082 86.5625 85.3548C86.0918 86.0014 85.7288 86.5346 85.7288 86.5346C85.7288 86.5346 86.0691 86.0014 86.5398 85.3378Z" fill="#263238"/>
<path d="M82.4841 81.3117C83.142 80.8296 83.6809 80.4496 83.6865 80.4553C83.6922 80.4609 83.1591 80.8523 82.4955 81.3344C81.8318 81.8165 81.2987 82.1909 81.293 82.1852C81.2873 82.1795 81.8205 81.7881 82.4841 81.3117Z" fill="#263238"/>
<path d="M79.9435 76.1841C80.7262 75.9459 81.3614 75.7587 81.3614 75.7644C81.3614 75.7701 80.7319 75.9743 79.9492 76.2125C79.1664 76.4507 78.5369 76.6322 78.5369 76.6265C78.5369 76.6209 79.1664 76.4223 79.9435 76.1841Z" fill="#263238"/>
<path d="M79.2118 70.5123C80.0285 70.5123 80.6865 70.569 80.6865 70.5804C80.6865 70.5917 80.0228 70.5804 79.2118 70.5406C78.4007 70.5009 77.7314 70.4783 77.7371 70.4726C77.7428 70.4669 78.395 70.4783 79.2118 70.5123Z" fill="#263238"/>
<path d="M80.3576 64.9028C81.1233 65.1977 81.7358 65.436 81.7358 65.47C81.7358 65.504 81.1119 65.2431 80.3462 64.9539C79.5805 64.6646 78.9736 64.4207 78.9736 64.415C78.9736 64.4094 79.5975 64.6135 80.3576 64.9028Z" fill="#263238"/>
<path d="M83.2672 59.9735C83.8911 60.501 84.4016 60.9321 84.4016 60.9377C84.4016 60.9434 83.8854 60.5237 83.2672 59.9962C82.649 59.4687 82.1328 59.0433 82.1328 59.0377C82.1328 59.032 82.6376 59.4517 83.2672 59.9735Z" fill="#263238"/>
<path d="M87.6118 56.2646C88.0316 56.9622 88.3719 57.5294 88.3662 57.5351C88.3605 57.5407 88.0089 56.9679 87.5891 56.2759C87.1694 55.5839 86.8291 55.0111 86.8348 55.0054C86.8405 54.9997 87.1921 55.5669 87.6118 56.2646Z" fill="#263238"/>
<path d="M92.9263 54.1549C93.0964 54.9547 93.2326 55.6012 93.2269 55.6012C93.2212 55.6012 93.0737 54.9603 92.8979 54.1606C92.7221 53.3609 92.5916 52.7199 92.603 52.7143C92.6143 52.7086 92.7561 53.3609 92.9263 54.1549Z" fill="#263238"/>
<path d="M98.6377 53.8932C98.5413 54.7043 98.4562 55.3565 98.4505 55.3565C98.4449 55.3565 98.5129 54.6986 98.615 53.8875C98.7171 53.0765 98.7965 52.4242 98.8022 52.4242C98.8078 52.4242 98.7398 53.0708 98.6377 53.8932Z" fill="#263238"/>
<path d="M104.134 55.4989C103.782 56.2305 103.487 56.8261 103.482 56.8204C103.476 56.8147 103.754 56.2192 104.105 55.4819C104.457 54.7445 104.752 54.1546 104.763 54.1603C104.775 54.166 104.485 54.7729 104.134 55.4989Z" fill="#263238"/>
<path d="M108.802 58.7997C108.235 59.3669 107.758 59.8433 107.752 59.8377C107.747 59.832 108.212 59.3555 108.785 58.777C109.358 58.1985 109.828 57.7334 109.834 57.7391C109.84 57.7447 109.38 58.2212 108.802 58.7997Z" fill="#263238"/>
<path d="M112.148 63.4332C111.417 63.7962 110.821 64.0854 110.821 64.0797C110.821 64.0741 111.388 63.7735 112.137 63.4105C112.886 63.0475 113.464 62.7582 113.464 62.7639C113.464 62.7695 112.88 63.0702 112.148 63.4332Z" fill="#263238"/>
<path d="M113.816 68.907L112.347 69.0829C112.347 69.0829 112.999 68.9808 113.81 68.8787C114.621 68.7766 115.274 68.6915 115.274 68.6972C115.274 68.7028 114.621 68.7993 113.816 68.907Z" fill="#263238"/>
<path d="M124.297 66.9502C123.983 67.9079 123.576 68.8329 123.083 69.7124L123.049 69.7748L122.936 70.0073L122.794 69.7918C122.224 68.9953 121.733 68.1441 121.331 67.2508C121.985 67.9828 122.566 68.7768 123.066 69.6216H122.811L122.845 69.5536C123.244 68.6408 123.73 67.769 124.297 66.9502Z" fill="#263238"/>
</g>
<path d="M105.744 193.37C103.582 177.519 100.005 153.194 100.005 153.194H100.015L98.964 144.183L88.4628 144.346L80.3911 173.91L83.7751 193.37H105.744Z" fill="#3A4B4B"/>
<path d="M82.8907 190.543L91.2283 144.121L69.0735 143.805C69.0721 143.806 65.7567 147.368 64.1243 150.785C62.4915 154.194 61.4404 162.337 61.4404 162.337C61.4404 162.337 56.8482 172.562 57.5421 177.787C57.8061 179.778 58.6479 186.191 59.5892 193.37H82.8067L82.8907 190.543Z" fill="#3A4B4B"/>
<path d="M82.6479 193.37C83.5617 186.304 84.3201 180.446 84.8635 176.267C85.1395 174.042 85.364 172.297 85.5166 171.093C85.5885 170.512 85.6391 170.052 85.6799 169.736C85.7208 169.42 85.7208 169.267 85.7208 169.267C85.7208 169.267 85.6905 169.42 85.6391 169.726C85.5885 170.032 85.5273 170.501 85.4456 171.083C85.2718 172.287 85.0374 174.032 84.7208 176.247L82.3997 193.37L82.6479 193.37Z" fill="#202A2B"/>
<path d="M67.4605 193.37L69.5839 163.721H69.5737L47.6245 162.63L45.3657 193.37H67.4605Z" fill="#202A2B"/>
<path d="M52.7015 193.37C52.7617 192.452 52.8184 191.556 52.8685 190.707C53.0828 186.9 53.2358 183.808 53.297 181.665C53.3276 180.614 53.3686 179.788 53.3686 179.206V178.339C53.3686 178.339 53.3276 178.379 53.3276 178.533C53.3174 178.696 53.2868 178.91 53.2868 179.175C53.2562 179.747 53.2154 180.573 53.1542 181.635C53.0623 183.768 52.8786 186.86 52.6337 190.666C52.5773 191.528 52.5139 192.438 52.4473 193.37H52.7015Z" fill="#3A4B4B"/>
<path d="M51.8487 193.37L53.4401 177.971L59.2569 163.235L29.0505 162.001L29.0403 161.98V171.634L30.5385 193.37L51.8487 193.37Z" fill="#202A2B"/>
<path d="M84.299 107.639H72.8291V119.109H84.299V107.639Z" fill="#585657"/>
<path d="M101.127 99.4343H89.657V119.109H101.127V99.4343Z" fill="#585657"/>
<path d="M74.717 58.4316C74.717 58.4316 73.3494 71.1058 75.0944 78.0451L92.0243 77.3004C92.0243 77.3004 88.4013 64.7995 90.6259 59.2786L74.717 58.4316Z" fill="#F0E3CE"/>
<path d="M74.7881 58.0336C74.7881 58.0336 74.9003 71.7179 75.5943 75.8921L92.7588 75.0757C92.7588 75.0757 91.2485 61.6257 91.8306 58.0336H74.7881Z" fill="#585657"/>
<path d="M89.2389 63.7791C89.2389 63.8403 86.6673 64.0444 83.4933 64.2383C80.3094 64.4322 77.7376 64.5342 77.7275 64.473C77.7275 64.4117 80.2995 64.1975 83.4729 64.0036C86.6568 63.8097 89.2284 63.7178 89.2389 63.7791Z" fill="white"/>
<path d="M89.2485 66.6774C89.2485 66.7386 86.6769 66.9427 83.5027 67.1362C80.3188 67.3305 77.7373 67.4326 77.7373 67.3713C77.7373 67.3101 80.309 67.106 83.4823 66.9117C86.6662 66.7182 89.2379 66.6162 89.2485 66.6774Z" fill="white"/>
<path d="M86.3302 69.5243C86.0143 69.6059 85.6975 69.6467 85.3816 69.6573C84.7995 69.7186 83.9733 69.7797 83.0549 69.8304C82.1462 69.8818 81.3094 69.9227 80.7282 69.9325C80.4114 69.9733 80.0849 69.9733 79.7583 69.9325C80.075 69.8508 80.391 69.81 80.7175 69.8002C81.2996 69.739 82.1258 69.6777 83.0443 69.6263C83.9529 69.5757 84.7897 69.5349 85.371 69.5243C85.6877 69.4834 86.0143 69.4834 86.3302 69.5243Z" fill="white"/>
<path d="M75.0742 157.776C75.0129 157.602 74.9925 157.419 74.9823 157.225C74.9415 156.878 74.9211 156.367 74.9109 155.735C74.9109 154.092 75.0129 152.449 75.1966 150.816C75.4211 148.959 75.6048 147.275 75.7783 145.928C75.8293 145.254 75.911 144.571 76.0436 143.907C76.1049 144.591 76.0946 145.275 76.013 145.959C75.9314 147.214 75.7375 148.949 75.5334 150.857C75.3293 152.765 75.1864 154.5 75.1456 155.745C75.1048 156.99 75.1252 157.776 75.064 157.786L75.0742 157.776Z" fill="#3A4B4B"/>
<path d="M77.5743 149.551C77.1968 148.673 76.9723 147.734 76.911 146.785C76.7375 145.846 76.7069 144.887 76.8396 143.938C77.0335 144.867 77.1661 145.795 77.2376 146.734C77.4111 147.663 77.5233 148.601 77.5845 149.54L77.5743 149.551Z" fill="#3A4B4B"/>
<path d="M86.158 146.796C86.0968 146.796 86.1172 146.357 85.637 146.03C85.5047 145.938 85.3512 145.887 85.1878 145.867C85.0245 145.846 84.8718 145.867 84.7183 145.938C84.5345 146.009 84.3818 146.122 84.2691 146.285C84.1572 146.438 84.1058 146.632 84.1058 146.826C84.1058 147.02 84.167 147.204 84.2691 147.367C84.3818 147.52 84.5345 147.643 84.7183 147.714C84.8718 147.765 85.0351 147.786 85.1878 147.765C85.3414 147.745 85.4941 147.684 85.6272 147.592C86.0968 147.245 86.056 146.785 86.1172 146.806C86.1784 146.826 86.1678 146.908 86.1474 147.092C86.1066 147.357 85.9743 147.602 85.7701 147.776C85.6166 147.918 85.423 148.01 85.2189 148.051C85.0147 148.092 84.7999 148.082 84.6064 148.01C84.3712 147.929 84.1572 147.776 84.0037 147.571C83.851 147.367 83.7693 147.122 83.7693 146.867C83.7693 146.612 83.8403 146.367 83.9833 146.152C84.1262 145.938 84.3303 145.775 84.5655 145.693C84.7591 145.622 84.9632 145.591 85.1674 145.632C85.3716 145.662 85.5659 145.754 85.7186 145.887C85.9334 146.05 86.0763 146.295 86.1172 146.551C86.1784 146.724 86.1474 146.826 86.1376 146.826L86.158 146.796Z" fill="#3A4B4B"/>
<path d="M58.8072 95.0159C56.4091 97.1997 54.4293 99.8019 52.9904 102.71C51.0311 106.721 39.071 129.978 40.7242 132.509C42.3774 135.039 47.2553 137.162 47.7451 137.09C48.235 137.019 57.3989 131.508 57.3989 131.508C57.3989 131.508 63.1034 113.313 63.1647 113.272C63.2259 113.221 58.797 95.0261 58.797 95.0261L58.8072 95.0159Z" fill="#DBD7D6"/>
<path d="M105.332 125.957C105.332 125.957 107.577 159.582 107.322 161.358C107.067 163.133 102.617 171.787 102.617 171.787L99.6373 161.633L102.066 156.704L98.127 128.998L105.332 125.947L105.332 125.957Z" fill="#5E6360"/>
<path d="M90.3098 92.6077L85.5241 91.8624C85.5241 91.8624 85.7486 100.414 78.3293 100.731C69.9103 101.078 68.451 92.0868 68.451 92.0868C68.451 92.0868 60.3177 93.5874 58.8278 94.9548C57.3379 96.3222 64.3997 132.233 64.3997 132.233L63.7261 155.419C63.7261 155.419 72.7472 159.95 83.2995 160.072C86.3911 160.103 89.4632 159.521 92.3304 158.337C95.1983 157.164 97.7904 155.419 99.9742 153.214L101.923 148.183L98.2394 129.58L90.3098 92.6077Z" fill="#DBD7D6"/>
<path d="M90.2993 92.771C90.2993 92.771 96.1977 94.516 97.9938 96.9142C99.78 99.3123 106.218 126.702 106.218 126.702L98.2591 129.764L90.2993 92.7816V92.771Z" fill="#DBD7D6"/>
<path d="M94.1781 101.996C94.1675 102.098 94.1675 102.19 94.1781 102.292C94.1781 102.516 94.2491 102.792 94.2899 103.129C94.4026 103.894 94.5659 104.925 94.7594 106.18C95.1676 108.803 95.7186 112.333 96.3211 116.242C96.9228 120.15 97.4233 123.702 97.8004 126.324C97.9841 127.58 98.1376 128.61 98.2494 129.376L98.3923 130.212C98.4233 130.406 98.4437 130.498 98.4535 130.498C98.4641 130.406 98.4641 130.304 98.4535 130.212C98.4535 129.988 98.4029 129.702 98.3719 129.376C98.3009 128.651 98.1784 127.6 98.0249 126.304C97.709 123.712 97.2192 120.14 96.6273 116.201C96.0354 112.262 95.4329 108.711 94.9741 106.149C94.7496 104.864 94.5455 103.823 94.392 103.108C94.3308 102.782 94.2695 102.527 94.2189 102.292C94.2189 102.2 94.1985 102.098 94.1675 102.006L94.1781 101.996Z" fill="#202A2B"/>
<path d="M73.8601 116.364C74.0132 116.63 74.1969 116.874 74.3908 117.119C74.7377 117.599 75.2786 118.283 75.9725 119.058C79.6254 123.212 84.0952 126.579 89.1062 128.937C90.0548 129.386 90.8508 129.722 91.4018 129.927C91.6876 130.049 91.9741 130.141 92.2697 130.222C92.0043 130.069 91.7284 129.927 91.4427 129.824C90.9022 129.59 90.1364 129.243 89.1976 128.753C84.2895 126.304 79.8606 122.977 76.1358 118.946C75.4214 118.171 74.8602 117.538 74.4826 117.079C74.2989 116.823 74.0948 116.589 73.8703 116.385L73.8601 116.364Z" fill="#202A2B"/>
<path d="M94.5552 102.976C94.5862 103.057 95.6883 102.629 97.0762 102.241C98.464 101.853 99.6274 101.659 99.6168 101.547C97.8411 101.598 96.0965 102.088 94.5552 102.976Z" fill="#3A4B4B"/>
<path d="M59.4709 105.925C59.5934 105.935 59.7159 105.935 59.8281 105.925L60.8588 105.874L64.6142 105.66L77.0335 104.813C81.8914 104.435 86.2795 104.139 89.4634 104.078C91.0448 104.037 92.3412 104.027 93.2286 104.037H94.2597C94.3822 104.048 94.494 104.048 94.6165 104.037C94.5046 104.007 94.3822 103.986 94.2597 103.997C94.0246 103.997 93.6776 103.956 93.2392 103.935C92.351 103.894 91.0554 103.864 89.4634 103.874C86.2689 103.874 81.871 104.15 77.0233 104.527L64.604 105.456L60.8384 105.772L59.8179 105.874C59.6955 105.874 59.5832 105.884 59.4709 105.915V105.925Z" fill="#3A4B4B"/>
<path d="M95.7183 109.395C96.6874 109.415 97.6671 109.333 98.6263 109.16C99.606 109.078 100.586 108.895 101.535 108.619C100.565 108.599 99.5856 108.68 98.6263 108.854C97.6368 108.935 96.667 109.109 95.7183 109.395Z" fill="#3A4B4B"/>
<path d="M61.2468 115.497C61.3693 115.518 61.4815 115.518 61.604 115.497L62.6143 115.456C63.4919 115.405 64.7573 115.334 66.3288 115.222C69.4515 114.997 73.7886 114.64 78.5338 113.926C80.9014 113.569 83.1464 113.13 85.1874 112.762C87.2185 112.385 89.0653 112.068 90.6269 111.875C92.188 111.691 93.4434 111.63 94.3211 111.599C95.1882 111.579 95.678 111.599 95.6885 111.568C95.576 111.538 95.4535 111.528 95.331 111.528C95.0966 111.528 94.7497 111.487 94.3211 111.487C93.0761 111.477 91.841 111.528 90.596 111.67C89.035 111.823 87.1876 112.119 85.1466 112.487C83.1056 112.854 80.8606 113.283 78.493 113.65C73.7682 114.375 69.4515 114.762 66.3288 115.038L62.6245 115.365L61.6142 115.467C61.4917 115.467 61.3693 115.467 61.257 115.497L61.2468 115.497Z" fill="#3A4B4B"/>
<path d="M81.6057 123.447C81.8098 123.467 82.0238 123.467 82.2279 123.447C82.6262 123.447 83.1978 123.365 83.9121 123.294C85.3204 123.151 87.2796 122.916 89.4226 122.63C91.5755 122.334 93.4941 122.049 94.9128 121.773C95.6068 121.651 96.1783 121.538 96.566 121.457C96.7596 121.426 96.9637 121.375 97.1474 121.304C96.9433 121.293 96.7293 121.304 96.5252 121.344L94.8615 121.569L89.3615 122.344L83.8607 123.1L82.1976 123.345C81.9935 123.355 81.7993 123.396 81.6057 123.457L81.6057 123.447Z" fill="#3A4B4B"/>
<path d="M63.2468 127.579C63.5019 127.6 63.7673 127.579 64.0224 127.549L66.1348 127.355C67.9207 127.181 70.38 126.916 73.1047 126.61C75.8294 126.304 78.2786 126.028 80.0742 125.773L82.1764 125.477C82.432 125.457 82.6973 125.406 82.9422 125.334C82.6867 125.324 82.4213 125.334 82.1666 125.365L80.0538 125.559C78.2786 125.732 75.809 125.998 73.0843 126.314C70.3494 126.62 67.9104 126.896 66.1144 127.151L64.0122 127.437C63.7571 127.457 63.4917 127.508 63.2468 127.579Z" fill="#3A4B4B"/>
<path d="M64.155 137.264C64.2775 137.264 64.3897 137.264 64.5122 137.234L65.5225 137.07L69.2166 136.417C72.3291 135.886 76.6458 135.121 81.4212 134.641C83.8198 134.407 86.1155 134.254 88.2079 134.213C90.2897 134.172 92.1878 134.213 93.7593 134.213C95.3308 134.213 96.6272 134.141 97.5147 134.06C97.9538 134.019 98.2903 133.988 98.5253 133.948C98.647 133.937 98.7597 133.917 98.8821 133.886C98.7597 133.876 98.6372 133.876 98.5253 133.886L97.5041 133.948C96.6167 133.988 95.3414 134.019 93.7593 133.999C92.1779 133.978 90.2692 133.917 88.1973 133.948C86.1261 133.978 83.7994 134.111 81.391 134.346C76.5743 134.825 72.2679 135.621 69.1554 136.213C67.6043 136.519 66.3491 136.795 65.4817 136.958L64.4918 137.172C64.3795 137.193 64.2673 137.223 64.1652 137.264H64.155Z" fill="#3A4B4B"/>
<path d="M63.9814 148.336C64.1039 148.377 64.2264 148.398 64.3488 148.408C64.5937 148.449 64.9611 148.489 65.4407 148.52C66.7776 148.602 68.1246 148.561 69.4615 148.408C72.8495 148.061 77.3804 146.847 82.4726 146.081C87.5653 145.316 92.2187 144.703 95.5553 144.183C96.8819 144.01 98.1987 143.775 99.505 143.458C99.8617 143.356 100.199 143.244 100.535 143.101C100.658 143.061 100.77 142.999 100.872 142.928C100.75 142.958 100.627 142.989 100.515 143.04C100.178 143.173 99.8413 143.295 99.4943 143.387C98.5865 143.612 97.2191 143.775 95.5455 144.01C92.1983 144.479 87.5547 145.02 82.4424 145.826C77.3294 146.632 72.7985 147.826 69.4513 148.214C68.1348 148.387 66.798 148.459 65.4612 148.428C64.5019 148.377 63.9814 148.306 63.9814 148.336Z" fill="#3A4B4B"/>
<path d="M96.5862 117.814C97.8108 117.752 99.0149 117.589 100.209 117.334C101.423 117.171 102.617 116.916 103.791 116.558C102.566 116.62 101.352 116.783 100.158 117.038C98.9432 117.201 97.7495 117.456 96.5862 117.814Z" fill="#3A4B4B"/>
<path d="M97.7499 126.273C97.7499 126.273 97.8723 126.314 98.0862 126.273C98.3826 126.222 98.6683 126.12 98.9434 125.977L101.566 124.712C103.628 123.732 105.311 122.967 105.281 122.906C104.883 122.977 104.485 123.1 104.118 123.283C103.424 123.549 102.465 123.947 101.433 124.447C100.403 124.936 99.4847 125.416 98.8316 125.794C98.4944 126.008 98.127 126.171 97.7393 126.283L97.7499 126.273Z" fill="#3A4B4B"/>
<path d="M100.648 151.388C100.525 151.398 100.392 151.428 100.28 151.459L99.2289 151.735C98.3209 151.969 96.9943 152.286 95.351 152.592C93.7083 152.898 91.7286 153.174 89.5342 153.408C87.3504 153.643 84.8808 153.745 82.3296 153.929C77.217 154.296 72.5738 154.51 69.2164 154.398C67.5428 154.357 66.1855 154.245 65.2569 154.174L64.1854 154.072C64.0629 154.061 63.9303 154.061 63.7976 154.072C63.9201 154.112 64.0425 154.133 64.165 154.143C64.4099 154.184 64.7467 154.245 65.2365 154.306C66.1651 154.418 67.5224 154.561 69.2062 154.633C73.5943 154.745 77.9823 154.623 82.35 154.245C84.9012 154.061 87.3504 153.939 89.5652 153.694C91.7793 153.449 93.7591 153.143 95.4122 152.806C97.0654 152.469 98.3716 152.122 99.2802 151.857C99.7292 151.735 100.076 151.612 100.311 151.531C100.423 151.49 100.535 151.439 100.637 151.377L100.648 151.388Z" fill="#3A4B4B"/>
<path d="M103.261 161.623C101.536 164.205 99.7601 166.756 97.9436 169.287C97.862 169.389 97.7706 169.511 97.6375 169.511C97.5052 169.511 97.3722 169.307 97.3313 169.144C97.1583 168.022 97.3109 166.879 97.7803 165.838C98.2498 164.817 98.6482 163.766 98.9845 162.684C99.2605 161.552 99.2498 160.358 99.7397 159.276C100.005 158.694 100.372 158.174 100.648 157.613C101.036 156.725 101.74 156.01 102.628 155.612" fill="#5E6360"/>
<path d="M59.8586 107.691C59.8688 108.007 59.9097 108.333 59.9709 108.64L60.3995 111.211C60.7669 113.385 61.3077 116.385 61.92 119.702C62.5323 123.018 63.0834 126.008 63.5324 128.172C63.7365 129.213 63.9202 130.07 64.0528 130.733C64.1039 131.049 64.1855 131.356 64.2875 131.662C64.2773 131.345 64.2365 131.019 64.1753 130.713C64.063 130.06 63.9304 129.182 63.7467 128.141C63.3691 125.967 62.8385 122.967 62.2262 119.651C61.6139 116.334 61.0628 113.354 60.6138 111.191C60.3995 110.15 60.226 109.283 60.0934 108.629C60.0423 108.313 59.9709 107.997 59.8586 107.701V107.691Z" fill="#202A2B"/>
<path d="M49.7866 109.568C50.2867 109.803 50.8173 109.987 51.3582 110.119C52.3378 110.415 53.6849 110.813 55.1952 111.232C56.7157 111.65 58.073 112.017 59.0628 112.262C59.5935 112.425 60.1343 112.538 60.6854 112.609C60.1854 112.364 59.6547 112.17 59.1139 112.027C58.1342 111.732 56.7872 111.334 55.2768 110.915C53.7563 110.497 52.4093 110.129 51.4092 109.884C50.8785 109.731 50.3377 109.619 49.7866 109.568Z" fill="#3A4B4B"/>
<path d="M44.2759 120.232C44.429 120.365 44.6126 120.477 44.8065 120.548C45.3168 120.773 45.8576 120.956 46.4087 121.069C47.7966 121.375 49.7049 121.732 51.7969 122.232C53.8889 122.722 55.7768 123.212 57.134 123.579L58.7464 124.008C58.93 124.079 59.1341 124.12 59.328 124.13C59.1444 124.028 58.9505 123.947 58.7464 123.895C58.379 123.763 57.8279 123.579 57.1544 123.375C55.8074 122.957 53.9297 122.426 51.8275 121.936C49.7253 121.446 47.7966 121.11 46.4189 120.865C45.878 120.763 45.3372 120.62 44.8167 120.436C44.6433 120.354 44.4596 120.283 44.2759 120.232Z" fill="#3A4B4B"/>
<path d="M55.2358 129.753L63.9508 152.5L61.4812 162.021L45.7861 135.835C45.7861 135.835 51.3886 129.253 55.2358 129.753Z" fill="#5E6360"/>
<path d="M63.7873 152.071L71.5328 164.419L71.3491 167.603L61.4912 171.787L60.7769 160.051L63.7771 152.081L63.7873 152.071Z" fill="#5E6360"/>
<path d="M59.1034 173.144C59.1034 173.144 59.9096 172.644 61.2668 171.981C61.6342 171.797 62.0118 171.634 62.3996 171.491C62.8078 171.338 63.2772 171.226 63.7568 171.073C64.7263 170.766 65.7672 170.389 66.8387 169.909C68.9715 168.96 70.8492 168.021 72.2167 167.358L73.829 166.542C74.0331 166.45 74.227 166.338 74.4107 166.215C74.1964 166.256 73.9821 166.338 73.778 166.44L72.1248 167.164L66.706 169.634C65.6447 170.093 64.6038 170.481 63.6548 170.797C63.1854 170.96 62.7159 171.073 62.2975 171.246C61.8995 171.399 61.5118 171.573 61.1342 171.777C60.6035 172.062 60.0831 172.379 59.5933 172.716C59.4096 172.838 59.2361 172.981 59.083 173.144H59.1034Z" fill="#202A2B"/>
<path d="M93.2179 70.1877C93.2179 66.1667 88.5237 59.0029 84.503 59.1458L74.2067 63.5543C73.6148 63.5747 73.0534 63.8196 72.635 64.238C72.2166 64.6564 71.9718 65.2075 71.9411 65.7993L70.9206 93.2198C70.8492 95.1281 71.533 96.9854 72.829 98.3937C74.125 99.8019 75.9211 100.639 77.8294 100.72C79.7377 100.792 81.6049 100.128 83.0336 98.8631C84.4622 97.5977 85.3504 95.822 85.5031 93.9239C85.6361 91.9748 85.6769 89.7402 85.6769 89.7501C85.6769 89.7607 90.8504 89.23 92.3403 82.6272C93.1061 79.3616 93.2285 74.6575 93.2285 70.1877H93.2179Z" fill="#5E6360"/>
<path d="M91.4125 74.8824C91.4027 75.107 91.3006 75.3112 91.1373 75.4639C90.9739 75.6174 90.7592 75.6991 90.5346 75.6885C90.4227 75.6885 90.3206 75.6681 90.2185 75.6272C90.1165 75.5864 90.0242 75.5251 89.9425 75.4435C89.8608 75.3618 89.7996 75.2703 89.7588 75.1683C89.7179 75.0662 89.6975 74.9535 89.6975 74.8514C89.7081 74.6268 89.8102 74.4227 89.9735 74.2699C90.1369 74.1164 90.3508 74.0347 90.5754 74.0454C90.6881 74.0454 90.7902 74.0658 90.8923 74.1065C90.9944 74.1473 91.0858 74.2086 91.1675 74.2797C91.2492 74.3614 91.3104 74.4537 91.3512 74.5558C91.3921 74.6579 91.4125 74.7697 91.4125 74.8718V74.8824Z" fill="#202A2B"/>
<path d="M91.8616 72.9423C91.7497 73.0443 91.1268 72.5243 90.2084 72.4631C89.2801 72.4018 88.5862 72.8198 88.4638 72.708C88.3511 72.5953 88.5348 72.4631 88.8515 72.259C89.2695 72.0141 89.7594 71.8916 90.2394 71.9324C90.7186 71.9626 91.1676 72.1463 91.5456 72.4525C91.8412 72.6876 91.9432 72.9015 91.8722 72.9423L91.8616 72.9423Z" fill="#202A2B"/>
<path d="M82.6366 74.5349C82.6261 74.7595 82.524 74.9637 82.3607 75.1171C82.1974 75.2699 81.9833 75.3516 81.7587 75.3417C81.6461 75.3417 81.544 75.3212 81.4419 75.2804C81.3399 75.2396 81.2483 75.1783 81.1666 75.0967C81.085 75.015 81.0237 74.9228 80.9829 74.8207C80.942 74.7186 80.9216 74.6067 80.9216 74.5046C80.9315 74.28 81.0336 74.0758 81.1969 73.9224C81.3603 73.7696 81.575 73.6879 81.7995 73.6978C81.9115 73.6978 82.0136 73.7182 82.1157 73.7591C82.2178 73.7999 82.31 73.8612 82.3917 73.9428C82.4733 74.0245 82.5345 74.1167 82.5754 74.2188C82.6162 74.3208 82.6366 74.4328 82.6366 74.5349Z" fill="#202A2B"/>
<path d="M82.7897 72.5246C82.677 72.6267 82.0549 72.1066 81.1365 72.0552C80.2181 72.0046 79.5135 72.4128 79.3911 72.2903C79.2686 72.1678 79.4629 72.0454 79.7788 71.8511C80.1977 71.5964 80.6769 71.4837 81.1667 71.5245C81.6468 71.5555 82.1056 71.7392 82.4729 72.0454C82.7587 72.2797 82.8509 72.4937 82.7897 72.5345V72.5246Z" fill="#202A2B"/>
<path d="M85.687 79.5753C86.1875 79.4635 86.6977 79.4022 87.208 79.4022C87.4423 79.4022 87.6668 79.3614 87.7182 79.1982C87.7484 78.9532 87.7182 78.7083 87.6056 78.4936L87.0243 76.6567C86.2177 74.0444 85.6568 71.9014 85.7589 71.8711C85.8609 71.8401 86.6055 73.9324 87.4014 76.5245L87.9525 78.3712C88.0856 78.6675 88.106 78.9941 88.0137 79.3002C87.9729 79.3818 87.9223 79.453 87.8513 79.5043C87.7794 79.555 87.6978 79.5958 87.6055 79.6162C87.4733 79.6472 87.3304 79.6472 87.1982 79.6472C86.6879 79.688 86.1769 79.6676 85.6772 79.5753H85.687Z" fill="#202A2B"/>
<path d="M85.7583 89.7704C82.6152 89.617 79.5637 88.5866 76.9719 86.811C76.9719 86.811 78.931 91.5461 85.6563 91.3518L85.7583 89.7802V89.7704Z" fill="#534340"/>
<path d="M85.1468 81.78C84.9835 81.5457 84.7688 81.362 84.5141 81.2395C84.2586 81.1171 83.9834 81.0558 83.6977 81.0763C83.4936 81.0763 83.2895 81.1269 83.1058 81.2085C82.9221 81.2901 82.7482 81.4126 82.616 81.5661C82.4829 81.709 82.3915 81.8926 82.3711 82.0967C82.3408 82.2902 82.3711 82.4943 82.4731 82.6682C82.6054 82.8413 82.7898 82.9638 82.9939 83.0356C83.198 83.1066 83.4218 83.1066 83.6365 83.056C84.0855 82.9335 84.5042 82.7188 84.8611 82.4233C84.9736 82.3515 85.0652 82.2698 85.1369 82.1678C85.1672 82.1172 85.1876 82.0559 85.1876 81.9947C85.1876 81.9335 85.1672 81.8722 85.1369 81.8208" fill="#534340"/>
<path d="M82.9315 80.0353C83.085 80.0353 83.0238 81.0353 83.8296 81.7807C84.646 82.5253 85.7179 82.5049 85.7073 82.6477C85.7073 82.7906 85.4623 82.8315 85.0133 82.8111C84.4214 82.7808 83.8704 82.5457 83.4418 82.1481C83.0336 81.7603 82.7789 81.2289 82.7585 80.668C82.7478 80.2697 82.8703 80.0353 82.9421 80.0353H82.9315Z" fill="#202A2B"/>
<path d="M83.1868 69.8402C83.0847 70.0851 82.1663 69.9015 81.0846 69.9627C79.9923 70.0239 79.0942 70.2688 78.9718 70.0239C78.9105 69.9121 79.0844 69.6876 79.4518 69.4426C79.9416 69.1773 80.4821 69.0238 81.0438 68.9936C81.6046 68.9732 82.1557 69.0753 82.6659 69.2998C83.0537 69.5137 83.217 69.7283 83.1868 69.8402Z" fill="#202A2B"/>
<path d="M91.6876 70.2484C91.5145 70.4427 90.8916 70.1871 90.1267 70.1365C89.3609 70.0753 88.7078 70.1872 88.5649 69.9529C88.5037 69.8402 88.6261 69.6368 88.9225 69.463C89.3103 69.2385 89.7691 69.147 90.2083 69.1977C90.6573 69.2385 91.0859 69.4116 91.4329 69.6973C91.6876 69.9324 91.7594 70.157 91.6778 70.2484H91.6876Z" fill="#202A2B"/>
<path d="M85.6258 91.2916L85.7588 89.7707C85.7588 89.7707 88.6669 89.036 90.1772 87.1689C91.9838 84.9744 93.055 80.4133 92.708 77.5967C92.4019 75.1166 92.6573 71.7285 88.6873 70.8411C86.9426 70.4427 87.2895 67.2898 86.3606 65.6056C85.4118 63.8606 85.5547 63.2789 83.5849 62.8911C81.6664 62.6462 79.7379 62.6666 77.8296 62.9524C78.4113 63.4422 78.8195 63.9933 78.7274 64.4831C78.6049 65.1362 77.5643 66.7592 77.1867 67.2996C75.7581 69.361 74.9213 71.7694 74.7682 74.27C74.5947 77.1273 75.3192 79.9741 76.2275 82.6886C77.1357 85.4031 78.3399 90.4549 78.942 93.2608C79.5438 96.0569 79.6458 101.486 77.6153 103.517C74.1253 107.007 66.441 105.394 67.9411 104.343C70.3393 102.904 72.4415 101.568 71.9312 97.7611C71.5026 98.9143 70.6862 99.8838 69.6351 100.506C68.5738 101.129 67.339 101.384 66.1247 101.21C67.7268 98.9959 68.4412 96.2508 68.1044 93.5363C67.5942 94.0262 67.0023 94.4037 66.3492 94.6589C65.6961 94.914 64.9919 95.0364 64.2878 95.016C62.8897 94.965 61.4917 94.7303 60.1548 94.3221C59.1343 94.0568 57.9506 93.6078 57.7465 92.5775C57.522 91.3529 58.8792 90.4647 60.0732 90.1079C61.2672 89.7503 62.6958 89.3732 63.0836 88.1992C63.5224 86.8832 62.3081 85.5664 62.3081 84.1785C62.3081 82.4339 64.0531 81.3317 65.2164 80.0557C67.288 77.729 67.6044 74.4022 67.9411 71.3408C68.2677 68.2695 68.88 64.8811 71.2679 62.9116C71.819 62.4932 72.4211 62.1462 73.0538 61.8809C73.4722 60.391 74.411 59.095 75.6968 58.2174C77.0847 57.2989 78.6457 56.6866 80.2989 56.4315C83.5342 55.7784 86.8912 56.156 89.9119 57.503C91.4123 58.1867 92.7488 59.1664 93.851 60.3808C94.9531 61.6054 95.7899 63.034 96.3106 64.5954C96.7083 65.8812 96.892 67.2793 97.6472 68.3716C98.4023 69.4631 100.137 70.0656 101.107 69.1365C101.107 70.433 100.842 71.7188 100.322 72.9123L102.137 72.6985C102.393 73.79 102.219 74.9435 101.658 75.9232C101.087 76.8922 100.178 77.6164 99.0962 77.9331C100.26 78.9536 100.352 80.7603 99.7902 82.189C99.2292 83.6176 98.137 84.75 97.0553 85.8415C97.9125 85.995 98.6782 86.444 99.2088 87.1281C99.7494 87.8114 100.015 88.6588 99.9535 89.5258C99.8211 90.0565 99.7803 90.6076 99.8415 91.1488C100.046 91.9856 100.903 92.4444 101.484 93.0771C101.852 93.4853 102.117 93.9752 102.25 94.5058C102.382 95.0365 102.372 95.5977 102.239 96.1284C102.096 96.659 101.831 97.1489 101.454 97.5468C101.077 97.9448 100.607 98.2408 100.086 98.4143L98.9231 98.9041C98.9231 98.9041 98.0145 96.8325 97.0757 96.0671C96.1368 95.3018 91.9225 92.9138 88.759 92.4036L85.5955 91.8934L85.6772 91.2917L85.6258 91.2916Z" fill="#202A2B"/>
<path d="M70.9006 104.078C71.0536 104.139 71.2271 104.17 71.3904 104.17C71.87 104.17 72.3394 104.047 72.7476 103.813C73.8497 103.231 75.0335 101.762 75.8193 99.7002C76.0234 99.1593 76.156 98.598 76.2377 98.0163C76.3091 97.3939 76.3091 96.7612 76.2377 96.1387C76.0336 94.7712 75.5846 93.4446 74.9111 92.2405C74.2477 90.9547 73.4007 89.6787 72.5843 88.352C71.7271 86.9846 71.0026 85.5461 70.4107 84.0463C69.829 82.5564 69.4719 80.9948 69.3596 79.3922C69.329 78.637 69.3596 77.8721 69.4719 77.1169C69.5841 76.4026 69.7678 75.6882 70.0229 75.0048C71.0434 72.3206 72.8089 70.3514 74.2477 68.7285C74.9927 67.9325 75.6764 67.2182 76.2683 66.5756C76.7989 66.0344 77.1867 65.3813 77.401 64.6466C77.5235 64.1772 77.5133 63.6873 77.3602 63.2383C77.3092 63.0852 77.2378 62.9322 77.1255 62.8097C77.1255 62.8097 77.2173 62.9526 77.299 63.2587C77.4317 63.7077 77.4317 64.1771 77.299 64.616C77.0643 65.3201 76.6663 65.9426 76.1356 66.463C75.554 67.0957 74.8294 67.779 74.0845 68.575C72.615 70.167 70.8189 72.1573 69.7576 74.9028C69.4923 75.6066 69.2984 76.3307 69.1759 77.0655C69.0637 77.8312 69.0331 78.6166 69.0637 79.3922C69.1657 81.025 69.5229 82.6373 70.125 84.168C70.7169 85.689 71.4516 87.1486 72.3292 88.5259C73.1558 89.8631 74.0028 91.118 74.6559 92.3834C75.3192 93.567 75.7683 94.8528 75.9826 96.1795C76.1356 97.353 76.003 98.547 75.605 99.6695C74.8702 101.69 73.7273 103.16 72.6966 103.741C72.2986 103.986 71.8598 104.119 71.3904 104.139C71.0638 104.109 70.9005 104.068 70.8903 104.078L70.9006 104.078Z" fill="#3A4B4B"/>
<path d="M68.6451 71.2591C68.6451 71.2591 68.8696 70.6158 69.3391 69.6361C69.6146 69.0646 69.9615 68.5446 70.3799 68.0645C70.9004 67.5037 71.5229 67.0441 72.227 66.7077C72.9414 66.3709 73.6455 65.9831 74.3088 65.5443C74.8599 65.1668 75.2987 64.6565 75.5946 64.0646C75.7987 63.6666 75.8906 63.2074 75.8395 62.7584C75.8395 62.5951 75.7783 62.4319 75.6865 62.2992C75.6865 62.4523 75.6967 62.6156 75.7171 62.7686C75.7171 63.1768 75.5946 63.5748 75.4007 63.932C75.0844 64.4728 74.6558 64.9321 74.1353 65.279C73.472 65.6872 72.7781 66.0546 72.074 66.3811C71.3494 66.7281 70.6963 67.2179 70.1656 67.8196C69.737 68.3503 69.3901 68.9324 69.1452 69.5651C68.9717 69.9626 68.8288 70.3815 68.7166 70.7994C68.6451 71.0754 68.6145 71.2387 68.6451 71.2484V71.2591Z" fill="#3A4B4B"/>
<path d="M100.852 72.4837C100.485 72.718 100.097 72.9123 99.6886 73.065C98.5457 73.4634 97.3007 73.4634 96.1578 73.065C95.321 72.7588 94.5553 72.2894 93.9127 71.6771C93.2695 71.0648 92.7493 70.3407 92.382 69.5243C91.933 68.5749 91.6367 67.5544 91.4938 66.5037C91.3819 65.3505 91.0962 64.2178 90.6676 63.1463C90.1876 62.1258 89.4937 61.2176 88.6365 60.4726C87.7793 59.7379 86.7792 59.1868 85.6975 58.8602C83.9218 58.35 82.0441 58.3806 80.2889 58.9725C79.1051 59.3399 78.0336 59.9828 77.1458 60.8502C76.9111 61.0849 76.6968 61.3502 76.5131 61.6258C76.4416 61.7176 76.3907 61.8196 76.3499 61.9319C76.6152 61.5747 76.9009 61.238 77.2173 60.9216C78.1153 60.1155 79.1769 59.5236 80.3403 59.1766C82.0547 58.6357 83.881 58.6153 85.5955 59.1256C86.6364 59.4521 87.5956 59.9828 88.412 60.6971C89.2284 61.4115 89.9019 62.2891 90.3614 63.2687C90.79 64.3198 91.0554 65.422 91.1673 66.555C91.3102 67.6262 91.6268 68.6671 92.0962 69.6468C92.4735 70.4836 93.0246 71.2387 93.6981 71.8608C94.3821 72.4837 95.1781 72.9629 96.0452 73.2593C97.229 73.6471 98.5148 73.6063 99.6781 73.1572C99.9948 73.0348 100.281 72.8715 100.556 72.6779C100.648 72.616 100.73 72.545 100.801 72.4633L100.852 72.4837Z" fill="#3A4B4B"/>
<path d="M98.9634 94.2916C98.9634 94.2916 98.6467 94.1793 98.0957 93.9344C97.3306 93.5976 96.6262 93.118 96.0139 92.5366C95.1159 91.6689 94.4219 90.6076 94.0038 89.4238C93.4831 87.9852 93.4324 86.4236 93.8709 84.9639C94.3508 83.4234 95.1468 82.0052 95.2995 80.5357C95.4424 79.2499 95.2284 77.9437 94.6774 76.7803C94.31 75.9942 93.7997 75.2904 93.167 74.6985C92.9933 74.5352 92.8096 74.3924 92.616 74.2594C92.483 74.1679 92.4119 74.127 92.4014 74.1369C92.4014 74.1475 92.6568 74.3614 93.0748 74.7803C93.6569 75.3926 94.1263 76.0963 94.4627 76.8718C94.9631 78.0148 95.1567 79.2703 95.0138 80.5153C94.8406 81.913 94.075 83.3009 93.5647 84.8929C93.1058 86.413 93.1565 88.0564 93.7181 89.5463C94.1671 90.7611 94.8913 91.8427 95.8407 92.7098C96.4734 93.3017 97.2181 93.7609 98.0245 94.067C98.2385 94.1589 98.463 94.2201 98.6876 94.2813C98.7593 94.3119 98.8409 94.3221 98.9226 94.3221L98.9634 94.2916Z" fill="#3A4B4B"/>
<path d="M65.8591 63.2382C65.7468 60.3502 64.5528 57.6153 62.5119 55.5743C60.4811 53.5334 57.7462 52.319 54.8684 52.1965H54.2867C47.8577 52.2986 44.3472 57.8092 44.6227 64.2281L44.6738 89.9341C44.6738 89.9341 54.7154 95.8529 55.0929 96.057L59.5729 99.2715L59.5218 84.8211C59.5218 84.8211 65.7264 84.1279 66.0734 77.9642C66.2264 74.964 66.0734 68.8002 65.8591 63.228V63.2382Z" fill="#9B9D9B"/>
<path d="M59.573 84.7907C56.7055 84.6682 53.9399 83.7294 51.603 82.0762C51.603 82.0762 53.3071 86.5973 59.4812 86.301L59.573 84.7907Z" fill="#797979"/>
<path d="M64.2988 68.0348C64.2988 68.2594 64.1967 68.484 64.0334 68.6367C63.87 68.8 63.6455 68.8825 63.4209 68.8825C63.3086 68.8825 63.1963 68.8719 63.0942 68.8311C62.9921 68.7902 62.89 68.729 62.8084 68.6473C62.7267 68.5657 62.6655 68.4742 62.6144 68.3721C62.5736 68.27 62.543 68.1573 62.543 68.0454C62.543 67.8209 62.6451 67.5963 62.8186 67.4427C62.9819 67.2794 63.2065 67.1978 63.4311 67.1978C63.5434 67.1978 63.6557 67.2084 63.7577 67.2492C63.8598 67.29 63.9619 67.3513 64.0436 67.4223C64.1252 67.504 64.1865 67.5963 64.2375 67.6984C64.2886 67.8005 64.309 67.9123 64.309 68.025L64.2988 68.0348Z" fill="#202A2B"/>
<path d="M64.3996 66.2078C64.2874 66.3201 63.6445 65.7996 62.6954 65.7588C61.7464 65.718 61.032 66.167 60.9504 66.0446C60.8688 65.9221 61.0218 65.7894 61.3382 65.5751C61.7566 65.3098 62.2566 65.1873 62.7465 65.2078C63.2363 65.2282 63.7159 65.4016 64.1037 65.7078C64.369 65.9425 64.4609 66.1466 64.3996 66.1976V66.2078Z" fill="#202A2B"/>
<path d="M54.9203 67.8411C54.9203 68.0755 54.8182 68.2903 54.6447 68.443C54.4814 68.6063 54.2568 68.688 54.0322 68.688C53.9199 68.688 53.8076 68.6782 53.7055 68.6373C53.6035 68.5965 53.5014 68.5353 53.4197 68.4536C53.338 68.3719 53.2768 68.2796 53.2258 68.1776C53.1849 68.0755 53.1543 67.9636 53.1543 67.8509C53.1543 67.6263 53.2564 67.4017 53.4197 67.249C53.583 67.0857 53.8076 67.004 54.0322 67.004C54.1445 67.004 54.2568 67.0138 54.3589 67.0547C54.461 67.0955 54.563 67.1567 54.6447 67.2286C54.7264 67.3103 54.7876 67.4017 54.8387 67.5038C54.8795 67.6059 54.9101 67.7186 54.9101 67.8305L54.9203 67.8411Z" fill="#202A2B"/>
<path d="M55.0827 65.9831C54.9705 66.0953 54.3174 65.5749 53.3785 65.5341C52.4397 65.4933 51.7151 65.9423 51.6335 65.8198C51.5519 65.6974 51.7049 65.5647 52.0213 65.3504C52.4397 65.0851 52.9397 64.9626 53.4296 64.983C53.9194 65.0034 54.399 65.1769 54.7868 65.4831C55.0521 65.7178 55.144 65.9321 55.0827 65.9729V65.9831Z" fill="#202A2B"/>
<path d="M58.2158 73.1573C58.7261 73.0243 59.2465 72.9532 59.767 72.9427C60.012 72.9427 60.2364 72.8919 60.2874 72.7287C60.318 72.4837 60.267 72.2283 60.1548 72.0038C59.9609 71.4224 59.7467 70.7792 59.5222 70.1261C58.6445 67.4629 58.0117 65.2791 58.124 65.2485C58.2362 65.2179 59.0323 67.3504 59.9099 70.0037L60.4916 71.8919C60.6345 72.1875 60.6651 72.5246 60.5835 72.8406C60.5426 72.9223 60.4915 73.0039 60.4201 73.0552C60.3486 73.1165 60.2671 73.1573 60.1753 73.1777C60.0426 73.208 59.8996 73.2185 59.767 73.2185C59.2567 73.2593 58.7364 73.2389 58.2261 73.1468L58.2158 73.1573Z" fill="#202A2B"/>
<path d="M55.4099 73.7083C55.563 73.7083 55.5222 74.7385 56.3692 75.5043C57.2162 76.2693 58.3183 76.2089 58.3183 76.3517C58.3183 76.4946 58.0734 76.5354 57.604 76.5354C57.0019 76.515 56.4304 76.2905 55.9814 75.8823C55.5528 75.4945 55.2875 74.9639 55.2466 74.3818C55.2262 73.9328 55.3487 73.7083 55.4201 73.7083H55.4099Z" fill="#202A2B"/>
<path d="M55.5013 62.2889C55.3992 62.5338 54.4502 62.3807 53.3379 62.4624C52.2255 62.5542 51.3071 62.8093 51.1744 62.5746C51.1132 62.4624 51.2867 62.2277 51.6541 61.9929C52.1541 61.7072 52.7052 61.5439 53.2766 61.5031C53.8481 61.4623 54.4196 61.5541 54.9502 61.7684C55.338 61.9521 55.5421 62.1664 55.5013 62.2889Z" fill="#202A2B"/>
<path d="M64.1751 63.4524C63.9914 63.6667 63.3587 63.4116 62.5729 63.3606C61.7871 63.3095 61.1238 63.4422 60.9707 63.2075C60.9095 63.0952 61.0218 62.8911 61.3177 62.6972C61.7157 62.4727 62.1749 62.3707 62.6341 62.4013C63.0934 62.4319 63.5322 62.6054 63.8995 62.8911C64.165 63.1259 64.2159 63.3504 64.1751 63.4524Z" fill="#202A2B"/>
<path d="M45.3476 68.8002C45.2455 68.7488 41.1636 67.361 41.1228 71.5858C41.0717 75.8008 45.317 74.9844 45.3272 74.8619C45.3374 74.7395 45.3476 68.8002 45.3476 68.8002Z" fill="#9B9D9B"/>
<path d="M44.4288 73.2691C44.4288 73.2691 44.3574 73.3205 44.2349 73.3712C44.1431 73.412 44.041 73.4324 43.9492 73.4324C43.8573 73.4324 43.7553 73.412 43.6634 73.3712C43.3981 73.1981 43.1736 72.9532 43.0307 72.6674C42.8879 72.3817 42.8164 72.0551 42.8368 71.7384C42.8368 71.371 42.8981 71.0142 43.0511 70.6877C43.092 70.5448 43.1634 70.4224 43.2654 70.3203C43.3675 70.2183 43.49 70.1464 43.6328 70.1056C43.7145 70.0852 43.8063 70.0958 43.8879 70.126C43.9696 70.1668 44.0308 70.2281 44.0614 70.3097C44.1227 70.4322 44.092 70.5138 44.1125 70.5244C44.1329 70.5342 44.2043 70.4526 44.1737 70.2795C44.1533 70.1774 44.092 70.0754 44.0104 70.0142C43.8981 69.9219 43.7451 69.8811 43.6022 69.9015C43.4287 69.9325 43.2654 70.0142 43.1328 70.126C43.0001 70.2387 42.8981 70.3913 42.8266 70.5546C42.643 70.9122 42.5511 71.3098 42.5613 71.718C42.5613 72.5752 43.0001 73.3712 43.6124 73.5549C43.7247 73.5859 43.8471 73.5957 43.9594 73.5753C44.0716 73.5549 44.1839 73.514 44.2859 73.443C44.4186 73.3712 44.4696 73.2797 44.4288 73.2691Z" fill="#797979"/>
<path d="M40.4289 162.939C40.4391 163.133 40.4289 163.327 40.3677 163.521C40.2657 164.021 40.1228 164.511 39.9391 164.98C39.3268 166.562 38.3165 167.95 36.9899 169.011C35.6735 170.073 34.0917 170.767 32.4181 171.022C31.9181 171.103 31.4078 171.134 30.8976 171.124C30.7037 171.134 30.5098 171.124 30.3159 171.063C30.3159 171.012 31.1119 171.063 32.3569 170.828C33.9693 170.511 35.4898 169.818 36.7756 168.797C38.0512 167.756 39.0615 166.43 39.7146 164.919C40.2452 163.735 40.3779 162.939 40.4085 162.95L40.4289 162.939Z" fill="#3A4B4B"/>
<path d="M54.3381 165.226C54.3381 165.379 54.2972 165.532 54.2054 165.654C54.1237 165.787 54.0012 165.879 53.8583 165.94C53.7154 166.002 53.5622 166.012 53.4091 165.981C53.256 165.951 53.1233 165.879 53.011 165.767C52.8987 165.654 52.8272 165.522 52.7966 165.369C52.766 165.216 52.7864 165.062 52.8374 164.919C52.8987 164.777 53.0008 164.654 53.1233 164.572C53.256 164.491 53.3989 164.44 53.552 164.44C53.6541 164.44 53.7562 164.46 53.8481 164.501C53.9399 164.542 54.0318 164.603 54.1033 164.674C54.1747 164.746 54.236 164.828 54.2768 164.93C54.3176 165.022 54.3381 165.124 54.3381 165.226Z" fill="#3A4B4B"/>
<path d="M67.5944 172.552C67.1964 172.277 66.8392 171.94 66.5331 171.552C64.9718 169.756 63.9819 167.542 63.6859 165.184C63.6043 164.705 63.5941 164.215 63.6553 163.735C63.7064 163.735 63.7268 164.286 63.89 165.164C64.288 167.45 65.2575 169.603 66.6964 171.43C67.0229 171.787 67.3291 172.164 67.6046 172.552H67.5944Z" fill="#3A4B4B"/>
<path d="M59.665 92.189C59.8793 92.9037 60.1651 93.6078 60.512 94.2712C61.0223 95.4345 61.7162 96.1999 61.7877 96.1387C61.8591 96.0774 61.2876 95.2712 60.7876 94.1487C60.2875 93.0262 59.7569 92.1384 59.6752 92.1996L59.665 92.189Z" fill="#202A2B"/>
<path d="M57.2464 91.4747L44.7047 80.913L42.0616 84.9844C42.0616 84.9844 31.122 92.9955 29.0504 95.2712L31.7853 131.672C31.7853 131.672 28.8769 150.816 28.6729 152.327C28.4688 153.837 26.7543 167.052 26.7543 167.052C26.5298 169.552 28.5912 172.593 29.0096 172.593C29.0096 172.593 31.122 170.063 33.3875 170.267C35.653 170.471 51.0215 174.614 51.0215 174.614L69.6862 170.461L67.7063 133.652L67.0431 109.038L65.4205 99.6184L61.7264 95.9345L59.5323 90.1889C59.5323 90.1889 58.8384 97.5265 58.7466 97.2407C58.6445 96.955 57.2464 91.4951 57.2464 91.4951V91.4747Z" fill="#8C9192"/>
<path d="M42.4187 85.6072C42.5616 85.8521 42.7248 86.0766 42.9187 86.2913C43.2657 86.7199 43.7759 87.3216 44.4291 88.0359C45.7251 89.485 47.6232 91.3937 49.6641 93.5363C50.6744 94.5976 51.6337 95.6181 52.4501 96.5876L52.5521 96.6998L52.6542 96.5978C54.042 95.2099 55.0421 93.8935 55.8075 93.0159L56.7055 91.9954C56.8279 91.8836 56.93 91.7611 57.0218 91.628C56.879 91.7097 56.7565 91.8117 56.6443 91.9342C56.4096 92.1489 56.0626 92.4852 55.685 92.9036C54.8788 93.7506 53.8379 95.0569 52.4603 96.3937H52.6644C51.848 95.414 50.8887 94.3731 49.8784 93.322C47.8171 91.179 45.8986 89.3013 44.5617 87.8833C43.8984 87.1787 43.3575 86.5975 42.9902 86.1991C42.8167 85.9852 42.633 85.7909 42.4187 85.6072Z" fill="#202A2B"/>
<path d="M63.614 151.816V151.255C63.614 150.867 63.5629 150.326 63.5221 149.653C63.4303 148.244 63.2976 146.234 63.1343 143.775C62.7874 138.815 62.2873 131.958 61.6852 124.385C61.0832 116.813 60.4913 109.976 60.0014 105.017C59.7565 102.537 59.532 100.537 59.3687 99.1591C59.2769 98.4958 59.1953 97.9549 59.1442 97.5671L59.083 97.1589L59.1136 97.5773C59.1544 97.9651 59.2055 98.4958 59.2769 99.1693C59.4096 100.578 59.5933 102.578 59.8076 105.037C60.2464 109.997 60.8076 116.844 61.4097 124.416C62.0118 131.988 62.5731 138.805 62.9404 143.785C63.1445 146.244 63.3078 148.244 63.4201 149.663C63.4813 150.336 63.5323 150.867 63.5629 151.255C63.5629 151.418 63.5936 151.561 63.614 151.673C63.614 151.714 63.6038 151.765 63.6038 151.816H63.614Z" fill="#202A2B"/>
<path d="M50.0924 159.48C50.1332 159.551 54.011 157.459 58.7665 154.806C63.5118 152.153 67.3284 149.938 67.2875 149.857C67.2467 149.785 63.3689 151.877 58.6134 154.531C53.8682 157.184 50.0515 159.398 50.0924 159.48Z" fill="#202A2B"/>
<path d="M62.3898 172.073C62.4204 171.818 62.4204 171.563 62.3898 171.308L62.2878 169.246C62.2061 167.501 62.1959 165.113 62.2265 162.45C62.2571 159.797 62.2674 157.378 62.2571 155.643V153.582C62.2571 153.327 62.2571 153.072 62.2061 152.816C62.1551 153.061 62.1347 153.316 62.1347 153.572C62.1347 154.123 62.0939 154.806 62.0633 155.633C62.0122 157.378 61.9714 159.786 61.9306 162.44C61.9 165.093 61.9306 167.511 62.0837 169.256C62.1449 170.124 62.2265 170.828 62.2878 171.308C62.2878 171.563 62.3286 171.808 62.3796 172.053L62.3898 172.073Z" fill="#202A2B"/>
<path d="M99.3818 144.397L68.3491 145.091L67.7878 134.743L105.168 137.795L99.3818 144.407V144.397Z" fill="#9B9D9B"/>
<path d="M122.863 111.691L123.21 112.456C120.505 117.62 110.668 136.325 110.668 136.325L98.5756 142.183L69.7061 141.019V139.458L84.5639 133.58L103.127 134.039L113.096 114.273C113.219 114.028 113.402 113.803 113.627 113.64C113.851 113.466 114.108 113.354 114.382 113.303L122.863 111.691Z" fill="#3A4B4B"/>
<path d="M98.5757 142.183C98.8713 141.826 99.1367 141.438 99.3513 141.02C99.7898 140.275 100.382 139.244 101.014 138.111C101.647 136.978 102.209 135.907 102.596 135.142C102.831 134.733 103.025 134.315 103.178 133.866C102.882 134.223 102.627 134.611 102.413 135.029C101.974 135.774 101.382 136.805 100.749 137.938C100.116 139.06 99.5554 140.142 99.1676 140.918C98.9325 141.316 98.739 141.744 98.5856 142.183H98.5757Z" fill="#202A2B"/>
<path d="M95.8821 139.632L83.5342 139.223L92.8614 134.366L102.842 134.59L95.8919 139.632H95.8821Z" fill="#202A2B"/>
<path d="M69.7061 139.479C69.8081 139.509 69.9102 139.519 70.0122 139.509L70.8796 139.54L74.0635 139.632C76.7474 139.703 80.4616 139.836 84.5231 139.999C88.5952 140.152 92.3302 140.254 95.0137 140.274H99.0548C99.1569 140.274 99.2589 140.274 99.361 140.244C99.2589 140.234 99.1569 140.234 99.0548 140.244L98.1976 140.213L95.0137 140.121C92.3302 140.05 88.6255 139.907 84.5541 139.764C80.482 139.611 76.7576 139.499 74.0942 139.489H70.053C69.9408 139.479 69.8285 139.479 69.7265 139.489L69.7061 139.479Z" fill="#202A2B"/>
<path d="M100.352 141.326C100.433 141.213 100.505 141.101 100.556 140.979L101.107 139.958C101.587 139.04 102.27 137.764 103.077 136.193L109.465 123.712L114.21 114.293L114.118 114.364L120.721 113.017L122.557 112.619C122.782 112.579 122.996 112.527 123.2 112.456C122.976 112.466 122.751 112.497 122.537 112.548L120.69 112.874L114.067 114.109H114.006L113.975 114.17C112.587 116.885 110.944 120.11 109.179 123.569L102.873 136.09L100.984 139.907L100.485 140.958C100.423 141.081 100.372 141.213 100.342 141.346L100.352 141.326Z" fill="#202A2B"/>
<path d="M107.708 134.417C107.708 134.417 107.198 133.907 106.168 135.223C105.137 136.54 103.433 140.356 103.433 140.356L101.545 141.213C101.545 141.213 103.198 139.275 103.198 138.479C103.198 137.683 101.953 137.683 101.259 138.825C100.433 139.999 99.5448 141.132 98.5757 142.193C98.5757 142.193 99.2085 144.52 99.3816 144.408C99.5554 144.295 102.688 144.132 102.688 144.132L103.545 143.734C103.545 143.734 105.658 143.734 105.769 143.152C105.883 142.571 109.373 140.193 109.373 139.662V136.376C109.373 136.376 110.974 132.488 110.627 132.1C110.28 131.703 108.851 130.845 107.719 134.437L107.708 134.417Z" fill="#9B9D9B"/>
<path d="M107.485 134.366C107.485 134.366 107.546 134.366 107.638 134.407C107.699 134.437 107.75 134.478 107.781 134.54C107.811 134.601 107.832 134.662 107.822 134.733C107.689 135.152 107.526 135.805 107.352 136.601C107.179 137.397 106.995 138.346 106.699 139.305C106.485 139.948 106.148 140.54 105.699 141.05C105.321 141.54 104.974 141.989 104.658 142.397C104.321 142.795 104.015 143.224 103.76 143.683C104.148 143.326 104.505 142.938 104.821 142.52L105.913 141.214C106.138 140.958 106.342 140.683 106.526 140.397C106.72 140.081 106.873 139.744 106.985 139.387C107.24 138.479 107.454 137.56 107.597 136.632C107.73 135.917 107.852 135.295 107.944 134.754C107.944 134.662 107.913 134.57 107.862 134.499C107.801 134.427 107.73 134.376 107.638 134.356C107.526 134.315 107.475 134.335 107.475 134.356L107.485 134.366Z" fill="#797979"/>
<path d="M107.995 141.071C108.648 139.56 109.107 137.979 109.362 136.366C108.709 137.877 108.25 139.458 107.995 141.071Z" fill="#797979"/>
<path d="M102.138 138.019C102.138 138.019 102.229 138.019 102.372 138.07C102.556 138.07 102.74 138.142 102.873 138.264C103.015 138.417 102.964 138.713 102.801 139.019L102.311 140.05L101.821 141.06C101.648 141.356 101.464 141.642 101.331 141.836C101.036 142.285 100.903 142.601 100.943 142.622C101.158 142.418 101.352 142.203 101.526 141.958C101.73 141.714 101.923 141.469 102.107 141.203C102.281 140.887 102.464 140.54 102.637 140.173C102.821 139.805 102.954 139.468 103.107 139.132C103.189 138.968 103.229 138.785 103.25 138.611C103.25 138.519 103.25 138.438 103.22 138.346C103.189 138.264 103.148 138.183 103.087 138.121C102.995 138.05 102.893 137.989 102.771 137.958C102.658 137.928 102.535 137.928 102.424 137.948C102.22 137.968 102.148 137.999 102.148 138.019H102.138Z" fill="#797979"/>
<path d="M46.2971 98.7306C46.2358 98.5265 46.1338 98.3224 46.0011 98.1489C45.6848 97.6591 45.3276 97.1999 44.9194 96.7815C44.3275 96.159 43.705 95.5773 43.0417 95.0364C42.2661 94.3017 41.3579 93.7098 40.3782 93.2914C39.3578 92.9648 38.2862 92.8526 37.2147 92.975C36.3575 93.0567 35.5105 93.1791 34.6737 93.3628C33.9492 93.4955 33.3675 93.618 32.9797 93.6996C32.7654 93.72 32.5613 93.7812 32.3674 93.8629C32.5817 93.8629 32.796 93.8527 33.0103 93.8118C33.4083 93.771 34.0002 93.6894 34.7145 93.5771C35.4391 93.4649 36.2861 93.3118 37.2454 93.2608C38.2658 93.1587 39.3067 93.271 40.2864 93.5873C41.2355 93.9853 42.1131 94.5466 42.8784 95.2405C43.5417 95.7712 44.1745 96.3325 44.7867 96.9345C45.3276 97.5162 45.8378 98.1183 46.3175 98.7408L46.2971 98.7306Z" fill="#202A2B"/>
<path d="M66.0934 127.488L65.6648 135.325C65.6648 135.325 54.0415 140.764 46.4287 142.723C38.8159 144.683 29.8662 144.377 29.8662 144.377L33.0603 131.631L66.0934 127.477V127.488Z" fill="#9B9D9B"/>
<path d="M88.5857 129.09C88.616 128.774 88.5449 128.447 88.4021 128.161C88.2486 127.876 88.0241 127.641 87.7383 127.488C86.7285 126.865 84.6156 125.488 84.6156 125.488L78.2274 124.906L66.1347 127.488L65.7061 135.325C65.7061 135.325 71.8698 135.672 73.2985 135.621C74.7271 135.57 78.7074 134.294 78.7074 134.294C78.7074 134.294 85.3806 135.141 85.677 134.774C85.9725 134.407 86.4223 133.978 85.9937 133.713C85.5651 133.447 80.4219 132.121 80.4219 132.121L83.8703 131.856C83.8703 131.856 88.9123 132.917 89.2797 132.754C89.647 132.6 90.1263 131.958 89.8095 131.478L89.4936 130.998C89.5858 130.753 89.5752 130.478 89.4838 130.233C89.3817 129.988 89.1972 129.784 88.9629 129.672L88.4829 129.508L88.5857 129.08V129.09Z" fill="#9B9D9B"/>
<path d="M79.4316 128.998C79.9215 129.182 80.4521 129.264 80.973 129.253C81.9322 129.325 83.2997 129.172 84.667 129.57C85.3096 129.804 85.9423 130.07 86.5546 130.376C87.0755 130.6 87.6061 130.794 88.1572 130.958C88.647 131.141 89.1671 131.243 89.6878 131.264C89.6878 131.223 89.1058 131.07 88.2183 130.753C87.7693 130.59 87.2387 130.386 86.6673 130.121C86.0444 129.804 85.4117 129.529 84.7586 129.284C84.0753 129.09 83.3813 128.998 82.6768 129.008H80.9828C80.0235 129.049 79.4422 128.947 79.4316 128.988L79.4316 128.998Z" fill="#797979"/>
<path d="M79.9934 127.171C80.4424 127.324 80.9118 127.386 81.3813 127.345C82.4728 127.243 83.5855 127.386 84.6158 127.773C85.8102 128.273 86.8919 128.753 87.6879 129.08C88.1059 129.284 88.5451 129.437 88.9941 129.539C88.6161 129.273 88.1981 129.059 87.7695 128.886C86.9939 128.518 85.9326 127.998 84.7179 127.498C84.1366 127.253 83.5137 127.11 82.881 127.09C82.2997 127.09 81.7993 127.12 81.3707 127.141C80.5037 127.222 80.0032 127.181 79.9934 127.181L79.9934 127.171Z" fill="#797979"/>
<path d="M29.0604 95.2405C29.0604 95.2405 25.8357 100.374 25.3254 102.884C24.8152 105.394 23.5804 131.825 24.0805 132.325C24.5193 132.733 24.9785 133.111 25.4581 133.458C25.4581 133.458 22.5497 134.08 23.4478 135.591C23.9784 136.499 24.5601 137.376 25.1928 138.213C25.1928 138.213 25.6214 143.101 26.1622 143.224C27.3868 143.775 28.5808 144.397 29.7442 145.071C29.7442 145.071 38.5203 140.336 39.3163 137.836C40.1123 135.325 41.99 130.315 41.99 130.315L40.4797 126.825L44.9902 105.527C44.9902 105.527 47.419 98.7102 43.0513 95.9243C38.6938 93.1383 30.6932 92.4142 29.0604 95.2303V95.2405Z" fill="#8C9192"/>
<path d="M44.1534 109.568C44.1125 109.67 44.0819 109.782 44.0615 109.885C44.0105 110.119 43.9289 110.425 43.837 110.823C43.6533 111.67 43.388 112.854 43.0512 114.354L40.3572 126.794V126.876L41.8573 130.366V130.253C41.0001 132.641 40.1122 135.244 39.1224 137.887L38.9693 138.223L38.7346 138.53C38.5815 138.744 38.4182 138.938 38.2243 139.111C38.0407 139.305 37.8468 139.479 37.6427 139.652C37.4488 139.826 37.2549 139.999 37.061 140.152C36.265 140.805 35.4282 141.397 34.6016 141.948C32.9382 143.061 31.2748 144.05 29.6829 144.928H29.8155C29.0502 144.499 28.3052 144.091 27.5807 143.714C27.2133 143.52 26.8561 143.336 26.4786 143.183L26.3357 143.122C26.3357 143.122 26.203 143.081 26.203 143.071C26.1622 143.02 26.1214 142.958 26.101 142.897C26.0295 142.724 25.9785 142.54 25.9275 142.367C25.6316 140.989 25.4275 139.581 25.3152 138.172V138.142C24.8662 137.56 24.4682 136.978 24.1518 136.448C23.9682 136.172 23.8049 135.917 23.6518 135.652C23.5804 135.529 23.5191 135.407 23.4681 135.274C23.4273 135.152 23.4171 135.019 23.4375 134.897C23.5396 134.386 24.0192 134.101 24.407 133.907C24.7641 133.733 25.1417 133.601 25.5193 133.499H25.6213L25.5295 133.437C25.0397 133.09 24.6927 132.825 24.4682 132.631C24.2437 132.437 24.1314 132.345 24.1212 132.356C24.1212 132.356 24.1212 132.386 24.1927 132.447C24.2641 132.499 24.3253 132.58 24.4274 132.682C24.7641 132.978 25.1111 133.264 25.4683 133.529V133.437C25.0703 133.519 24.6825 133.652 24.3049 133.825C24.0804 133.937 23.8763 134.06 23.6824 134.213C23.4579 134.386 23.3048 134.631 23.2334 134.907C23.2028 135.06 23.2028 135.213 23.2334 135.366C23.2946 135.509 23.3559 135.652 23.4375 135.784C23.5906 136.05 23.7539 136.315 23.9273 136.591C24.2743 137.172 24.6621 137.713 25.0907 138.336V138.285C25.1927 139.703 25.3866 141.122 25.6724 142.52C25.7132 142.714 25.7744 142.907 25.8561 143.101C25.8969 143.224 25.9785 143.336 26.0908 143.407L26.2336 143.459L26.3663 143.51C26.7235 143.663 27.0806 143.857 27.448 144.04C28.1726 144.428 28.9175 144.836 29.6727 145.265L29.7339 145.306L29.8053 145.265C31.4075 144.387 33.0811 143.407 34.7547 142.285C35.6119 141.724 36.4487 141.122 37.2447 140.479C37.4488 140.315 37.6529 140.152 37.8264 139.958C37.9998 139.775 38.2243 139.611 38.408 139.407C38.6019 139.213 38.7856 139.009 38.9387 138.795C39.0203 138.683 39.102 138.581 39.1836 138.468L39.3673 138.081C40.347 135.407 41.2348 132.845 42.092 130.437V130.325L40.5817 126.835V126.916C41.643 121.834 42.5308 117.528 43.1635 114.456C43.4696 112.956 43.7043 111.752 43.8676 110.905C43.9391 110.507 44.0003 110.201 44.0513 109.956C44.0819 109.823 44.1125 109.691 44.1227 109.558L44.1534 109.568Z" fill="#202A2B"/>
<path d="M25.3257 133.366C25.3257 133.366 25.4686 133.458 25.7645 133.55C26.1829 133.682 26.6319 133.754 27.0707 133.744C27.3871 133.734 27.6932 133.652 27.9789 133.519C28.2953 133.366 28.5912 133.193 28.8872 132.999C29.4995 132.591 30.1118 132.101 30.8057 131.631C32.1731 130.682 33.459 129.886 34.3774 129.305C34.8978 129.019 35.3877 128.682 35.8469 128.294C35.2958 128.519 34.7754 128.794 34.2753 129.111C33.3263 129.662 32.0099 130.427 30.6322 131.386C29.9383 131.856 29.3158 132.366 28.7341 132.764C28.2545 133.162 27.6728 133.427 27.0605 133.529C26.6421 133.55 26.2135 133.529 25.7951 133.427C25.642 133.376 25.489 133.346 25.3257 133.346V133.366Z" fill="#202A2B"/>
<path d="M25.2134 138.223C25.3971 138.315 25.591 138.356 25.7951 138.356C26.3257 138.397 26.8564 138.305 27.3462 138.081C28.8871 137.315 30.3362 136.397 31.6833 135.346C33.0201 134.284 34.2957 133.141 35.4999 131.917C35.9693 131.447 36.3265 131.07 36.5714 130.805C36.7143 130.682 36.8367 130.529 36.9388 130.366C36.3775 130.794 35.8468 131.264 35.3468 131.764C34.3875 132.652 33.0711 133.876 31.4996 135.101C30.1627 136.142 28.7443 137.07 27.2543 137.887C26.8053 138.121 26.3053 138.244 25.8053 138.244C25.6114 138.234 25.4175 138.223 25.2134 138.234V138.223Z" fill="#202A2B"/>
<path d="M65.6655 135.315C65.9104 135.376 66.1553 135.396 66.4003 135.407L68.4208 135.529L71.4108 135.672L73.1559 135.743C73.4824 135.723 73.7988 135.662 74.1049 135.58L75.0438 135.356C76.35 135.029 77.5746 134.702 78.6872 134.407H78.6358C80.2996 134.56 81.7078 134.682 82.7079 134.753L83.8713 134.825C84.0141 134.835 84.1464 134.835 84.2892 134.825C84.157 134.774 84.0239 134.743 83.8811 134.733L82.7177 134.58C81.7283 134.458 80.32 134.304 78.6464 134.131H78.595L74.9621 135.06L74.0233 135.284C73.7375 135.366 73.4416 135.417 73.1354 135.437L71.3904 135.376L68.4003 135.294L66.3798 135.264C66.1349 135.254 65.9002 135.264 65.6553 135.294L65.6655 135.315Z" fill="#797979"/>
<path d="M50.7765 56.513H50.7357C49.7458 57.2376 49.1029 58.2785 48.9294 59.4214V59.5337C48.6845 61.1766 48.7355 62.8196 48.4702 64.4728C48.2049 66.1158 47.5926 67.7591 46.2762 68.8612C45.7353 69.3201 44.776 69.6368 44.3372 69.1061C44.1842 68.8816 44.1127 68.6262 44.1127 68.3609C43.776 64.432 42.6024 60.9419 42.6126 56.8396C42.6126 56.2885 42.7453 55.7477 43.0106 55.2476C43.2861 54.7578 43.6739 54.3292 44.1638 54.0026C45.1026 53.3903 46.2558 52.7474 47.3069 53.2066C48.358 53.6659 49.705 55.4517 50.5214 56.2069" fill="#202A2B"/>
<path d="M46.8986 54.3699C45.9496 52.88 48.5518 50.7268 50.4499 50.1757C52.348 49.6247 54.8584 50.4921 56.7463 51.0942C57.9403 51.4819 59.1342 52.0126 60.3894 51.9616C61.2262 51.8799 62.0528 51.6758 62.8284 51.3595C63.604 51.0431 64.451 50.8799 65.298 50.8901C65.7164 50.8901 66.1348 51.0227 66.4919 51.237C66.8491 51.4513 67.1348 51.7677 67.3287 52.135C67.6451 52.8902 67.1961 53.9311 66.3491 54.0434C66.6144 53.9005 66.9205 53.8291 67.2165 53.8189C67.5124 53.8086 67.8186 53.8801 68.0941 54.0127C68.3696 54.1454 68.6043 54.3393 68.7778 54.574C68.9513 54.8087 69.0738 55.0945 69.1146 55.3802C69.1554 55.6761 69.1248 55.9721 69.0329 56.2476C68.9309 56.5231 68.7676 56.7783 68.5431 56.9824C68.3186 57.1865 68.0533 57.3293 67.7573 57.411C67.4614 57.4926 67.1552 57.5028 66.8593 57.4416C67.4002 57.0334 68.2472 57.7069 68.1757 58.36C68.1043 58.6866 67.941 58.9927 67.7063 59.2376C67.4716 59.4826 67.1859 59.6764 66.8593 59.7785C65.2367 60.4622 63.3795 60.2377 61.7161 59.6969C60.0527 59.156 58.5117 58.309 56.8381 57.7273C55.1747 57.1456 52.4194 56.0945 50.7765 56.6762C49.5621 57.0946 48.0211 58.207 48.0211 58.207L47.2048 57.513C46.9905 57.2171 46.8578 56.8905 46.8068 56.5334C46.7149 55.8394 46.7455 55.1251 46.8782 54.4311" fill="#202A2B"/>
</svg>
